<?xml version="1.0" encoding="UTF-8"?>
<svg width="1280px" height="795px" viewBox="0 0 1280 795" version="1.1" xmlns="http://www.w3.org/2000/svg" xmlns:xlink="http://www.w3.org/1999/xlink">
    <!-- Generator: Sketch 51.3 (57544) - http://www.bohemiancoding.com/sketch -->
    <title>GitcoinLogo_White</title>
    <desc>Created with Sketch.</desc>
    <defs></defs>
    <g id="Page-1" stroke="none" stroke-width="1" fill="none" fill-rule="evenodd">
        <g id="GitcoinLogo_White" fill-rule="nonzero">
            <path d="M94.8,696.7 L164.3,696.7 L164.3,702.3 C164.3,714.9 162.8,726.1 159.8,735.8 C156.9,744.8 152,753.2 145.1,761.1 C129.5,778.7 109.6,787.4 85.5,787.4 C62,787.4 41.8,778.9 25.1,761.9 C8.4,744.8 0,724.4 0,700.5 C0,676.1 8.5,655.4 25.6,638.4 C42.7,621.3 63.4,612.8 87.9,612.8 C101,612.8 113.3,615.5 124.7,620.8 C135.6,626.1 146.3,634.8 156.8,646.9 L138.7,664.2 C124.9,645.8 108.1,636.7 88.3,636.7 C70.5,636.7 55.6,642.8 43.6,655.1 C31.6,667.1 25.5,682.2 25.5,700.4 C25.5,719.1 32.2,734.6 45.6,746.7 C58.2,757.9 71.8,763.6 86.4,763.6 C98.9,763.6 110.1,759.4 120,751 C129.9,742.5 135.5,732.4 136.7,720.6 L94.8,720.6 C94.8,720.5 94.8,696.7 94.8,696.7 Z" id="Shape" fill="#FFFFFF"></path>
            <rect id="Rectangle-path" fill="#FFFFFF" x="254.1" y="616.1" width="25.4" height="168.1"></rect>
            <polygon id="Shape" fill="#FFFFFF" points="424.3 640 424.3 784.2 398.9 784.2 398.9 640 360.3 640 360.3 616.2 462.9 616.2 462.9 640"></polygon>
            <path d="M661.6,625.1 L661.6,655.1 C646.9,642.8 631.8,636.7 616.1,636.7 C598.8,636.7 584.3,642.9 572.4,655.3 C560.5,667.6 554.5,682.7 554.5,700.6 C554.5,718.2 560.4,733.1 572.4,745.2 C584.3,757.3 598.9,763.4 616.2,763.4 C625.1,763.4 632.7,762 639,759 C642.5,757.6 646.1,755.6 649.8,753.1 C653.5,750.6 657.5,747.7 661.6,744.2 L661.6,774.8 C647.1,783 631.8,787.2 615.9,787.2 C591.9,787.2 571.4,778.8 554.4,762 C537.5,745.1 529,724.7 529,700.8 C529,679.4 536.1,660.3 550.2,643.5 C567.6,623 590.2,612.7 617.8,612.7 C633,612.8 647.6,616.9 661.6,625.1" id="Shape" fill="#FFFFFF"></path>
            <path d="M782.9,672.9 C782.9,691.5 789.1,706.7 801.6,718.7 C814,730.7 828.3,736.6 844.6,736.6 C862.2,736.6 877.1,730.5 889.2,718.3 C901.3,706 907.4,691 907.4,673.3 C907.4,655.4 901.4,640.4 889.4,628.3 C877.5,616.1 862.8,610 845.2,610 C827.7,610 812.9,616.1 800.9,628.3 C788.9,640.3 782.9,655.2 782.9,672.9 M757.3,672.6 C757.3,648.9 766,628.6 783.3,611.6 C800.6,594.6 821.3,586.1 845.6,586.1 C869.5,586.1 890.1,594.7 907.2,611.8 C924.4,628.9 933,649.5 933,673.5 C933,697.7 924.4,718.2 907.1,735 C889.8,751.9 868.8,760.4 844.3,760.4 C822.6,760.4 803.1,752.9 785.8,737.9 C766.8,721.3 757.3,699.5 757.3,672.6" id="Shape" fill="#48B978"></path>
            <rect id="Rectangle-path" fill="#FFFFFF" x="1007.7" y="616.1" width="25.4" height="168.1"></rect>
            <polygon id="Shape" fill="#FFFFFF" points="1131.5 784.2 1131.5 604.7 1254 732.9 1254 616.1 1279.4 616.1 1279.4 794.4 1156.8 666.5 1156.8 784.2 1131.5 784.2"></polygon>
            <path d="M631.4,193.9 C625.7,193.9 621.1,189.3 621.1,183.6 L621.1,102.4 C621.1,96.7 625.7,92.1 631.4,92.1 C637.1,92.1 641.7,96.7 641.7,102.4 L641.7,183.6 C641.8,189.3 637.1,193.9 631.4,193.9" id="Shape" fill="#FFFFFF"></path>
            <path d="M637.1,438.5 C550.4,438.5 479.9,368 479.9,281.3 C479.9,194.6 550.4,124.1 637.1,124.1 C679.1,124.1 718.6,140.5 748.3,170.1 L758.5,180.3 L714.1,222.1 L694.8,201.7 L717.5,180.3 C694.7,162.1 666.6,152.2 637,152.2 C565.8,152.2 507.9,210.1 507.9,281.3 C507.9,352.5 565.8,410.4 637,410.4" id="Shape" fill="#FFFFFF"></path>
            <path d="M716,357.8 L695.8,338.2 C710.7,322.9 718.8,302.7 718.8,281.3 C718.8,259 710,238.2 694,222.6 L683.5,212.4 L694.8,201.7 L704.4,211.9 L713.6,202.4 C735.1,223.3 746.9,251.3 746.9,281.2 C747,310 736,337.2 716,357.8" id="Shape" fill="#48B978"></path>
            <path d="M604.8,281.3 C604.8,263.4 619.3,249 637.1,249 C655,249 669.4,263.5 669.4,281.3 C669.4,299.1 654.9,313.6 637.1,313.6 C619.3,313.6 604.8,299.2 604.8,281.3" id="Shape" fill="#F0F4EE"></path>
            <path d="M637.1,263.1 C627,263.1 618.8,271.3 618.8,281.4 C618.8,291.5 627,299.7 637.1,299.7 C647.2,299.7 655.4,291.5 655.4,281.4 C655.4,271.2 647.2,263.1 637.1,263.1 M637.1,327.7 C611.5,327.7 590.7,306.9 590.7,281.3 C590.7,255.7 611.5,234.9 637.1,234.9 C662.7,234.9 683.5,255.7 683.5,281.3 C683.5,306.9 662.7,327.7 637.1,327.7" id="Shape" fill="#FFFFFF"></path>
            <path d="M738.3,180.1 L656.6,255.6" id="Shape" fill="#190B3C"></path>
            <polygon id="Shape" fill="#FFFFFF" points="728.8 169.8 747.9 190.4 666.2 265.9 647.1 245.3"></polygon>
            <polygon id="Shape" fill="#FFFFFF" points="756.8 438.5 634.5 438.5 634.5 410.4 728.7 410.4 728.7 384.9 643.9 321 660.8 298.5 756.8 370.8 756.8 438.5"></polygon>
            <polygon id="Shape" fill="#62C08C" points="766.8 110.2 778.1 98.9 789.4 110.2 778.1 121.5"></polygon>
            <polygon id="Shape" fill="#62C08C" points="718.4 55.9 723.8 50.5 729.2 55.9 723.8 61.3"></polygon>
            <path d="M785.1,8.6 C785.1,4.1 781.5,0.5 777,0.5 C772.5,0.5 768.9,4.1 768.9,8.6 C768.9,13.1 772.5,16.7 777,16.7 C781.5,16.7 785.1,13.1 785.1,8.6" id="Shape" fill="#62C08C"></path>
            <path d="M582.7,222.3 C577,222.3 572.4,217.7 572.4,212 L572.4,102.4 C572.4,96.7 577,92.1 582.7,92.1 C588.4,92.1 593,96.7 593,102.4 L593,212 C593,217.7 588.4,222.3 582.7,222.3" id="Shape" fill="#FFFFFF"></path>
        </g>
    </g>
</svg>