<svg xmlns="http://www.w3.org/2000/svg" viewBox="0 0 899.21 1415.66"><defs><style>.cls-1{fill:none;stroke-linecap:round;stroke-width:16px;}.cls-1,.cls-2{stroke:#333;stroke-miterlimit:10;}.cls-2{fill:#fff;stroke-width:14px;}</style></defs><title>gitcoin_avatar2</title><g id="BODY"><path class="cls-1" d="M378.23,639.78l17.26,25.1a113.47,113.47,0,0,1,18.82-6.27c15.52-3.71,28.33-3.27,47.06-1.57,16,1.45,36.22,3.81,59.61,7.84"/><path class="cls-2" d="M386.05,602.17H517.11a33,33,0,0,1,0,16,13,13,0,0,1-1.88,4.71c-4.75,6.69-17.23,4.55-18.86,4.25l-96.18.56a9.88,9.88,0,0,1-4.71-.09c-5.79-1.59-9.89-9-10.38-18.39Z"/></g></svg>