<?xml version="1.0" encoding="utf-8"?>
<!-- Generator: Adobe Illustrator 24.0.1, SVG Export Plug-In . SVG Version: 6.00 Build 0)  -->
<svg version="1.1" id="Layer_1" xmlns="http://www.w3.org/2000/svg" xmlns:xlink="http://www.w3.org/1999/xlink" x="0px" y="0px"
	 viewBox="0 0 106.2 128" style="enable-background:new 0 0 106.2 128;" xml:space="preserve">
<style type="text/css">
	.st0{fill:#00E9CC;}
	.st1{fill:#FFFFFF;}
	.st2{fill:#10005F;}
	.st3{fill:#00151F;}
	.st4{fill:#FFFFFF;stroke:#000000;stroke-width:0.25;stroke-miterlimit:10;}
	.st5{opacity:0.46;fill:#002A07;stroke:#000000;stroke-width:0.5;stroke-miterlimit:10;}
	.st6{fill:#F40030;}
	.st7{fill:#0C9400;}
	.st8{fill:none;}
	.st9{opacity:0.8;stroke:#5FDDFF;stroke-width:0.5;stroke-miterlimit:10;}
	.st10{font-family:'MyriadPro-Regular';}
	.st11{font-size:2.9822px;}
	.st12{opacity:0.1;}
	.st13{fill:#000E4A;}
	.st14{fill:none;stroke:#FFFFFF;stroke-width:2;stroke-miterlimit:10;}
	.st15{fill:none;stroke:#0AFFA2;stroke-width:2;stroke-miterlimit:10;}
	.st16{fill:#000AB4;}
	.st17{opacity:0.46;fill:none;stroke:#5FDDFF;stroke-miterlimit:10;}
</style>
<g id="Layer_2_2_">
	<g>
		<g id="Layer_1_1_">
			<g id="Layer_63">
				<polygon class="st0" points="106.2,32 106.2,96 53.1,128 10.6,102.4 10.4,102.3 0,96 0,32 53.1,0 				"/>
			</g>
			<path class="st1" d="M67.6,114.3l1.5-0.9l0.1,0.1c0.1,0.3,0.3,0.5,0.3,0.8c0,0.3,0,0.5,0,0.8c-0.1,0.6-0.5,1.1-1,1.4
				c-0.5,0.3-1.1,0.4-1.6,0.2c-1.2-0.3-1.8-1.6-1.5-2.8c0.2-0.6,0.5-1.1,1-1.4c0.3-0.2,0.6-0.3,0.9-0.3c0.3,0,0.7,0,1,0.2l-0.2,0.6
				c-0.4-0.2-1-0.2-1.4,0c-0.4,0.2-0.6,0.6-0.7,1c-0.1,0.4,0,0.9,0.2,1.3c0.2,0.4,0.6,0.7,1,0.8c0.4,0.1,0.8,0,1.1-0.2
				c0.3-0.2,0.5-0.4,0.6-0.7c0.1-0.3,0.1-0.6,0-0.9l-0.9,0.5L67.6,114.3z"/>
			<polygon class="st1" points="70,110.5 70.6,110.1 72.7,113.9 72.1,114.3 			"/>
			<polygon class="st1" points="74,108.8 75.8,112.1 75.2,112.4 73.4,109.1 72.6,109.6 72.3,109.1 74.5,107.8 74.8,108.3 			"/>
			<path class="st1" d="M78.9,105.4l0.4,0.7c-0.4-0.1-0.8,0-1.2,0.2c-0.4,0.2-0.6,0.6-0.7,1c-0.1,0.4,0,0.9,0.2,1.3
				c0.2,0.4,0.5,0.7,1,0.8c0.4,0.1,0.8,0.1,1.2-0.2c0.2-0.1,0.3-0.2,0.4-0.4c0.1-0.1,0.1-0.2,0.2-0.3c0.1-0.1,0.1-0.2,0.1-0.4
				l0.4,0.7c-0.2,0.4-0.5,0.7-0.8,0.9c-0.5,0.3-1.1,0.4-1.6,0.2c-0.5-0.1-1-0.5-1.3-1c-0.3-0.5-0.4-1-0.2-1.6
				c0.1-0.7,0.5-1.2,1.1-1.6C78.2,105.5,78.6,105.4,78.9,105.4"/>
			<path class="st2" d="M81.6,105.2c-0.3-0.5-0.4-1.1-0.2-1.7c0.1-0.6,0.5-1.1,1-1.4c1-0.6,2.4-0.2,3,0.8c0.3,0.5,0.4,1.1,0.2,1.7
				c-0.3,1.2-1.4,1.9-2.6,1.6C82.4,106.2,81.9,105.8,81.6,105.2 M82.1,104.9c0.4,0.8,1.3,1.1,2.1,0.7c0.4-0.2,0.7-0.6,0.8-1
				c0.2-0.9-0.3-1.7-1.1-2c-0.4-0.1-0.8-0.1-1.2,0.2c-0.4,0.2-0.6,0.6-0.7,1C81.9,104.1,81.9,104.6,82.1,104.9"/>
			<polygon class="st1" points="86.3,100.7 86.8,100.4 88.9,104.1 88.4,104.5 			"/>
			<polygon class="st1" points="91.1,102.9 88.8,98.8 93.1,100.1 91.6,97.5 92.2,97.2 94.4,101.2 90.1,99.9 91.6,102.6 			"/>
		</g>
	</g>
</g>
<path class="st3" d="M77.6,26.2c-4.4-2.9-8.9-5.5-13.5-8.1c-2.7-1.5-5.4-3-7.5-5.2h-4.2c-3.6,2.8-7.7,4.4-11.6,6.8
	c-3.5,2.1-6.5,5-10.1,7c-3.9,2.2-8.1,3.5-11.8,6.1c-2.3,1.6-4.3,2.8-6.5,3.6c-1,0.8-2.1,1.2-3.2,1.2v51.8c0.4,0.2,0.7,0.5,1.1,0.8
	c3.3,2.8,7.6,4.2,11.2,6.4c3.5,2.1,6.7,4.8,10.4,6.6c7.8,3.7,14.7,9.1,22.3,13.2c2.2-2.5,6.1-3.7,8.8-5.7c3.7-2.6,7.4-5.4,11.4-7.5
	c7.6-3.9,14.7-8.8,21.9-13.4v-52C89.8,34.6,83.5,30.1,77.6,26.2z"/>
<g id="Layer_2_1_">
	<polygon class="st4" points="43.7,51.9 41.2,51.9 42,53.8 43.4,53.8 	"/>
	<rect x="42" y="53.8" class="st4" width="0.4" height="1.3"/>
	<rect x="42.9" y="53.8" class="st4" width="0.4" height="1.3"/>
	<polygon class="st4" points="41.4,51.4 42,49.4 42.5,49.5 41.8,51.5 	"/>
	<rect x="43.1" y="49.5" class="st4" width="0.4" height="2"/>
	<polygon class="st4" points="41.9,50.3 41.6,51.7 43.4,51.7 42.9,50.3 	"/>
	<polygon class="st4" points="45.2,46.6 42.8,45.9 42.8,48 44.1,48.3 	"/>
	<polygon class="st4" points="42.3,49.2 42.8,48 43.3,48.1 42.8,49.3 	"/>
	<polygon class="st4" points="43.2,49.4 43.7,48.2 44.1,48.3 43.6,49.5 	"/>
	<polygon class="st4" points="43.2,45.4 44.6,43.7 45,43.9 43.6,45.6 	"/>
	<polygon class="st4" points="44.8,46.1 45.6,44.2 46,44.3 45.2,46.2 	"/>
	<polygon class="st4" points="44.1,44.7 43.2,45.9 44.9,46.4 45,44.9 	"/>
	<polygon class="st4" points="48.5,41.7 46.4,40.5 45.7,42.5 46.8,43.1 	"/>
	<polygon class="st4" points="44.8,43.5 45.7,42.5 46.1,42.7 45.2,43.7 	"/>
	<polygon class="st4" points="45.6,43.9 46.5,42.9 46.8,43.1 45.9,44.1 	"/>
	<polygon class="st4" points="47.2,40.2 49,38.8 49.3,39 47.5,40.4 	"/>
	<polygon class="st4" points="48.2,41.2 49.7,39.5 50,39.7 48.6,41.4 	"/>
	<polygon class="st4" points="48.1,39.6 46.8,40.6 48.3,41.4 48.9,40.1 	"/>
	<polygon class="st4" points="62.3,42.3 64.3,41 62.2,39.9 61.1,40.6 	"/>
	<polygon class="st4" points="60.8,39.2 61.2,38.9 62.2,39.9 61.8,40.2 	"/>
	<polygon class="st4" points="60.2,39.6 60.5,39.4 61.5,40.4 61.1,40.6 	"/>
	<polygon class="st4" points="64.1,41.6 64.5,41.5 65.5,43.3 65,43.5 	"/>
	<polygon class="st4" points="62.7,42.5 63,42.2 64.6,43.8 64.2,44.1 	"/>
	<polygon class="st4" points="64.9,42.6 64.1,41.3 62.7,42.2 64.1,43.1 	"/>
	<polygon class="st4" points="65.2,47.1 67.6,46.4 66,44.9 64.8,45.2 	"/>
	<polygon class="st4" points="65.1,43.8 65.5,43.7 66,44.9 65.6,45 	"/>
	<polygon class="st4" points="64.2,44.1 64.6,43.9 65.2,45.1 64.8,45.2 	"/>
	<polygon class="st4" points="67.2,47.1 67.6,47 68.1,49 67.7,49.1 	"/>
	<polygon class="st4" points="65.5,47.4 65.9,47.3 66.8,49.2 66.4,49.3 	"/>
	<polygon class="st4" points="67.6,48.1 67.3,46.7 65.6,47.2 66.7,48.4 	"/>
	<polygon class="st4" points="66.4,52.6 68.9,52.5 68,50.6 66.7,50.7 	"/>
	<polygon class="st4" points="67.5,49.4 67.9,49.4 68,50.6 67.6,50.7 	"/>
	<polygon class="st4" points="66.6,49.4 67,49.4 67.1,50.7 66.7,50.7 	"/>
	<polygon class="st4" points="68,54.9 68.2,52.8 68.7,52.9 68.5,54.9 	"/>
	<polygon class="st4" points="66.6,53 67.1,52.9 67.2,55 66.8,55 	"/>
	<polygon class="st4" points="68.3,54.1 68.6,52.7 66.8,52.8 67.4,54.1 	"/>
	<polygon class="st4" points="52.9,38.8 52.6,36.8 55,37.1 55.2,38.2 	"/>
	<polygon class="st4" points="49.6,38.2 51.8,37.2 52,37.5 49.8,38.5 	"/>
	<polygon class="st4" points="50.1,39 52.5,38.4 52.6,38.8 50.2,39.4 	"/>
	<polygon class="st4" points="50.7,37.9 52.2,37.2 52.7,38.6 51,38.6 	"/>
	<polygon class="st4" points="57.5,38.8 57.9,36.8 55.5,37.1 55.3,38.2 	"/>
	<polygon class="st4" points="58.3,37.6 58.5,37.3 60.6,38.4 60.4,38.7 	"/>
	<polygon class="st4" points="57.8,38.8 58,38.4 60.3,39 60.2,39.4 	"/>
	<polygon class="st4" points="59.8,37.9 58.2,37.2 57.7,38.6 59.5,38.6 	"/>
</g>
<ellipse class="st5" cx="55.1" cy="73.8" rx="21" ry="19.8"/>
<g id="Layer_2">
	<ellipse class="st6" cx="42.5" cy="51" rx="0.4" ry="0.3"/>
	<rect x="41.7" y="52.1" class="st7" width="1.6" height="0.3"/>
	<rect x="42" y="52.9" class="st7" width="1.2" height="0.3"/>
	<ellipse class="st6" cx="44.3" cy="45.4" rx="0.4" ry="0.3"/>
	<polygon class="st7" points="44.6,47.1 43,46.7 43.1,46.3 44.7,46.8 	"/>
	<polygon class="st7" points="44.2,47.7 43,47.4 43.1,47.2 44.3,47.5 	"/>
	<ellipse class="st6" cx="48.1" cy="40.4" rx="0.4" ry="0.3"/>
	<polygon class="st7" points="47.7,42.1 46.4,41.3 46.6,41 48,41.8 	"/>
	<polygon class="st7" points="47.1,42.6 46.1,42 46.3,41.8 47.3,42.4 	"/>
	<ellipse class="st6" cx="51.9" cy="38" rx="0.4" ry="0.3"/>
	<polygon class="st7" points="53.6,37.1 53.8,38.4 53.4,38.5 53.2,37.1 	"/>
	<polygon class="st7" points="54.5,37.1 54.7,38.1 54.3,38.1 54.2,37.1 	"/>
	<ellipse class="st6" cx="58.7" cy="38" rx="0.4" ry="0.3"/>
	<polygon class="st7" points="56.7,38.5 57,37.2 57.4,37.2 57.1,38.6 	"/>
	<polygon class="st7" points="55.9,38.3 56.1,37.3 56.4,37.3 56.2,38.3 	"/>
	<ellipse class="st6" cx="64" cy="42.4" rx="0.4" ry="0.3"/>
	<polygon class="st7" points="62.2,41.7 63.5,40.8 63.7,41.1 62.4,41.9 	"/>
	<polygon class="st7" points="61.7,41 62.7,40.4 62.9,40.6 62,41.2 	"/>
	<ellipse class="st6" cx="66.8" cy="47.5" rx="0.4" ry="0.3"/>
	<polygon class="st7" points="65.3,46.3 66.9,45.9 67,46.2 65.5,46.6 	"/>
	<polygon class="st7" points="65.2,45.5 66.3,45.2 66.4,45.5 65.3,45.8 	"/>
	<ellipse class="st6" cx="67.8" cy="53.5" rx="0.4" ry="0.3"/>
	<polygon class="st7" points="66.8,52 68.4,51.9 68.5,52.2 66.8,52.3 	"/>
	<polygon class="st7" points="66.9,51.2 68.1,51.2 68.1,51.5 66.9,51.5 	"/>
	<polygon class="st4" points="50.9,53.4 51.2,56 53.5,54.9 53.3,53.5 	"/>
	<rect x="53.4" y="54.3" transform="matrix(0.9913 -0.1313 0.1313 0.9913 -6.6937 7.5868)" class="st4" width="1.5" height="0.5"/>
	<rect x="53.3" y="53.4" transform="matrix(0.9913 -0.1313 0.1313 0.9913 -6.5736 7.5629)" class="st4" width="1.5" height="0.5"/>
	<rect x="48.3" y="55.6" transform="matrix(0.9913 -0.1313 0.1313 0.9913 -6.9067 6.9905)" class="st4" width="2.5" height="0.5"/>
	<rect x="48.1" y="53.8" transform="matrix(0.9913 -0.1313 0.1313 0.9913 -6.6666 6.9426)" class="st4" width="2.5" height="0.5"/>
	<polygon class="st4" points="49.3,55.5 51,55.7 50.8,53.8 49.1,54.5 	"/>
	<ellipse transform="matrix(0.9926 -0.1212 0.1212 0.9926 -6.2847 6.4746)" class="st6" cx="50.1" cy="54.9" rx="0.4" ry="0.3"/>
	<polygon class="st7" points="51.8,53.9 52,55.2 51.6,55.3 51.4,54 	"/>
	<polygon class="st7" points="52.7,53.9 52.8,54.9 52.5,54.9 52.4,54 	"/>
</g>
<g id="Layer_3_1_">
	<rect x="39.9" y="59" class="st8" width="29.6" height="2.2"/>
	<text transform="matrix(0.9559 0 0 1 39.92 61.0852)" class="st9 st10 st11">10101010101010101011</text>
	<rect x="37.9" y="62" class="st8" width="34.9" height="2.2"/>
	<text transform="matrix(0.9559 0 0 1 37.8755 64.095)" class="st9 st10 st11">10101010101010101010101</text>
	<rect x="35.8" y="64.8" class="st8" width="38.2" height="2.2"/>
	<text transform="matrix(0.9559 0 0 1 35.8194 66.9211)" class="st9 st10 st11">10101010101010101010101010</text>
	<rect x="35.1" y="67.8" class="st8" width="40.3" height="2.2"/>
	<text transform="matrix(0.9559 0 0 1 35.0689 69.9309)" class="st9 st10 st11">101010101010101010101010101</text>
	<rect x="34.2" y="70.8" class="st8" width="41.9" height="2.2"/>
	<text transform="matrix(0.9559 0 0 1 34.149 72.9397)" class="st9 st10 st11">1010101010101010101010101010</text>
	<rect x="34.1" y="73.8" class="st8" width="42" height="2.2"/>
	<text transform="matrix(0.9559 0 0 1 34.0694 75.9494)" class="st9 st10 st11">1010101010101010101010101010</text>
	<rect x="34.1" y="76.8" class="st8" width="41.5" height="2.2"/>
	<text transform="matrix(0.9559 0 0 1 34.0694 78.8879)" class="st9 st10 st11">1010101010101010101010101010</text>
	<rect x="35.5" y="79.8" class="st8" width="38.6" height="2.2"/>
	<text transform="matrix(0.9559 0 0 1 35.442 81.8977)" class="st9 st10 st11">10101010101010101010101010</text>
	<rect x="37.2" y="82.8" class="st8" width="35.6" height="2.2"/>
	<text transform="matrix(0.9559 0 0 1 37.1949 84.9075)" class="st9 st10 st11">101010101010101010101010</text>
	<rect x="39.3" y="85.8" class="st8" width="30.7" height="2.2"/>
	<text transform="matrix(0.9559 0 0 1 39.2872 87.9172)" class="st9 st10 st11">101010101010101010101</text>
	<rect x="43.5" y="88.8" class="st8" width="22.2" height="2.2"/>
	<text transform="matrix(0.9559 0 0 1 43.4835 90.927)" class="st9 st10 st11">101010101010101</text>
	<rect x="49.8" y="91.4" class="st8" width="10.9" height="2.2"/>
	<text transform="matrix(0.9559 0 0 1 49.784 93.5535)" class="st9 st10 st11">1010101</text>
	<rect x="48.1" y="56.3" class="st8" width="13.4" height="2.2"/>
	<text transform="matrix(0.9559 0 0 1 48.0525 58.3847)" class="st9 st10 st11">101010101</text>
</g>
<path class="st12" d="M55.7,83.9c1.2,0,2.4,0,3.5,0c0.1,0,0.2,0,0.2-0.2c0-0.6,0-1.1,0-1.7c0-0.3-0.1-0.5-0.3-0.7
	c-0.2-0.2-0.5-0.3-0.6-0.6c-0.2-0.3-0.5-0.4-0.7-0.6c-0.2-0.2-0.4-0.3-0.6-0.5c-0.1-0.1-0.2-0.2-0.1-0.4c0.2-0.5,0.2-0.9,0-1.4
	c-0.1-0.2,0-0.3,0.1-0.4c0.2-0.2,0.4-0.4,0.6-0.6c0.2-0.2,0.4-0.4,0.6-0.7c0.3-0.3,0.6-0.7,0.9-1c-0.1-0.2-0.2-0.4-0.4-0.7
	c-0.7-0.7-1.5-1.2-2.4-1.3c-0.2,0-0.5,0-0.6-0.1c-0.1-0.1,0-0.4,0-0.7c0-0.2-0.1-0.4-0.3-0.4c-0.2,0-0.3,0.2-0.3,0.4
	c0,0.2,0,0.4,0,0.6c0,0.1,0,0.1-0.1,0.2c-0.2,0-0.5,0.1-0.8,0.2c0-0.3,0-0.6,0-1c0-0.2-0.1-0.4-0.3-0.4c-0.2,0-0.3,0.1-0.3,0.4
	c0,0.3,0,0.6,0,0.9c0,0.2-0.1,0.3-0.2,0.4c-1.3,0.8-2.2,2.1-2.5,3.8C50.6,80.7,52.8,83.8,55.7,83.9z"/>
<path class="st13" d="M55.7,82.6c1,0,2,0,3,0c0.1,0,0.2,0,0.2-0.2c0-0.4,0-0.9,0-1.3c0-0.3-0.1-0.4-0.3-0.6
	c-0.2-0.1-0.4-0.3-0.5-0.5c-0.2-0.2-0.4-0.3-0.6-0.5c-0.2-0.1-0.3-0.3-0.5-0.4c-0.1-0.1-0.1-0.1-0.1-0.3c0.2-0.4,0.2-0.7,0-1.1
	c-0.1-0.1,0-0.2,0.1-0.3c0.2-0.1,0.3-0.3,0.5-0.5c0.2-0.2,0.4-0.3,0.5-0.5c0.3-0.3,0.5-0.5,0.8-0.8c-0.1-0.2-0.2-0.4-0.3-0.5
	c-0.6-0.5-1.3-0.9-2.1-1c-0.2,0-0.4,0-0.5-0.1c-0.1-0.1,0-0.3,0-0.5c0-0.2-0.1-0.3-0.3-0.3c-0.2,0-0.3,0.1-0.3,0.3
	c0,0.1,0,0.3,0,0.4c0,0.1,0,0.1-0.1,0.1c-0.2,0-0.4,0.1-0.6,0.1c0-0.3,0-0.5,0-0.8c0-0.2-0.1-0.3-0.3-0.3c-0.2,0-0.3,0.1-0.3,0.3
	c0,0.2,0,0.5,0,0.7c0,0.2,0,0.3-0.2,0.3c-1.1,0.6-1.8,1.6-2.1,3C51.4,80.1,53.2,82.6,55.7,82.6z"/>
<ellipse class="st14" cx="53.1" cy="64.8" rx="36.6" ry="39"/>
<path class="st15" d="M21.6,63.9c-0.1,2.2-0.6,15,8.8,25.4c8.9,9.8,20.1,10.5,22.4,10.6"/>
<path class="st15" d="M91.4,72.1c-0.2,2.8-1.3,14.5-10.8,23.9c-9.1,9-19.7,9.9-22.4,10"/>
<path class="st15" d="M15.1,54.6c0.4-3,2.4-14,11.9-22.8c9.5-8.7,20.1-9.4,23-9.5"/>
<path class="st15" d="M85.9,67.3c0.2-2.2,1.4-14.9-7.4-25.9c-8.3-10.3-19.5-11.7-21.8-11.9"/>
<g id="Layer_3_2_">
	<g id="Layer_63-2">
		<path class="st16" d="M53.2,11L9.1,37.6v53.1l44.1,26.6l44.1-26.6V37.6L53.2,11z M95.7,89.7l-42.3,25.5L11,89.7v-51l42.3-25.5
			l42.3,25.5V89.7z"/>
	</g>
</g>
<ellipse class="st17" cx="54.9" cy="73.8" rx="21" ry="19.8"/>
<g id="Layer_4">
	<polygon class="st4" points="58.2,53.5 57.8,56.1 60.2,55.7 60.5,54.3 	"/>
	<rect x="60.8" y="54.8" transform="matrix(0.1643 -0.9864 0.9864 0.1643 -3.803 106.6359)" class="st4" width="0.5" height="1.5"/>
	<rect x="61" y="53.9" transform="matrix(0.1643 -0.9864 0.9864 0.1643 -2.7692 106.0205)" class="st4" width="0.5" height="1.5"/>
	<rect x="56" y="54.2" transform="matrix(0.1643 -0.9864 0.9864 0.1643 -7.7319 101.8104)" class="st4" width="0.5" height="2.5"/>
	
		<rect x="56.3" y="52.4" transform="matrix(0.1643 -0.9864 0.9864 0.1643 -5.6643 100.5796)" class="st4" width="0.5" height="2.5"/>
	<polygon class="st4" points="56,55.1 57.6,55.7 58,53.9 56.2,54.1 	"/>
	<ellipse transform="matrix(0.1743 -0.9847 0.9847 0.1743 -6.7718 101.2565)" class="st6" cx="57" cy="54.7" rx="0.3" ry="0.4"/>
	<polygon class="st7" points="58.9,54.3 58.7,55.6 58.3,55.5 58.5,54.2 	"/>
	<polygon class="st7" points="59.8,54.5 59.6,55.5 59.3,55.4 59.5,54.5 	"/>
	<polygon class="st4" points="65.4,55.1 64.6,57.6 67.1,57.5 67.5,56.2 	"/>
	
		<rect x="67.7" y="56.7" transform="matrix(0.2983 -0.9545 0.9545 0.2983 -7.2301 105.1613)" class="st4" width="0.5" height="1.5"/>
	<rect x="68" y="55.8" transform="matrix(0.2983 -0.9545 0.9545 0.2983 -6.1872 104.8039)" class="st4" width="0.5" height="1.5"/>
	
		<rect x="62.9" y="55.5" transform="matrix(0.2983 -0.9545 0.9545 0.2983 -9.8457 100.0946)" class="st4" width="0.5" height="2.5"/>
	<rect x="63.5" y="53.7" transform="matrix(0.2983 -0.9545 0.9545 0.2983 -7.7599 99.3798)" class="st4" width="0.5" height="2.5"/>
	<polygon class="st4" points="63,56.3 64.5,57.2 65.1,55.4 63.3,55.3 	"/>
	<ellipse transform="matrix(0.308 -0.9514 0.9514 0.308 -9.0213 99.7073)" class="st6" cx="64" cy="56.1" rx="0.3" ry="0.4"/>
	<polygon class="st7" points="66,55.9 65.6,57.2 65.2,57.1 65.6,55.8 	"/>
	<polygon class="st7" points="66.8,56.3 66.5,57.2 66.2,57.1 66.5,56.2 	"/>
	<polygon class="st4" points="43.5,55.6 44.3,58.1 46.3,56.6 45.9,55.3 	"/>
	<rect x="46.2" y="56" transform="matrix(0.9542 -0.2992 0.2992 0.9542 -14.6579 16.6275)" class="st4" width="1.5" height="0.5"/>
	
		<rect x="45.9" y="55.1" transform="matrix(0.9542 -0.2992 0.2992 0.9542 -14.4049 16.5037)" class="st4" width="1.5" height="0.5"/>
	<rect x="41.4" y="58" transform="matrix(0.9542 -0.2992 0.2992 0.9542 -15.4819 15.4262)" class="st4" width="2.5" height="0.5"/>
	
		<rect x="40.8" y="56.3" transform="matrix(0.9542 -0.2992 0.2992 0.9542 -14.9759 15.1787)" class="st4" width="2.5" height="0.5"/>
	<polygon class="st4" points="42.3,58 44,57.8 43.5,56.1 42,57 	"/>
	<ellipse transform="matrix(0.9572 -0.2895 0.2895 0.9572 -14.7231 14.8882)" class="st6" cx="43" cy="57.2" rx="0.4" ry="0.3"/>
	<polygon class="st7" points="44.5,56 44.9,57.2 44.5,57.4 44.1,56.1 	"/>
	<polygon class="st7" points="45.4,55.8 45.7,56.7 45.4,56.8 45.1,55.9 	"/>
</g>
</svg>
