<svg id="Layer_1" data-name="Layer 1" xmlns="http://www.w3.org/2000/svg" viewBox="0 0 110.84998 128"><title>skudos</title><g id="Layer_63" data-name="Layer 63"><polygon points="110.85 32 110.85 96 55.43 128 11.08 102.4 10.88 102.28 0 96 0 32 55.43 0 110.85 32"/></g><g id="Layer_63-2" data-name="Layer 63" opacity="0.13" style="isolation:isolate"><path d="M55.42957,10.86123l-46.00995,26.57v53.13l46.00995,26.57,46.01-26.57v-53.13Zm44.3,78.64-44.18,25.5-44.18-25.5v-51.01l44.18-25.51,44.18,25.51Z" transform="translate(0.00405 0.00379)"/></g><g id="Layer_63-3" data-name="Layer 63"><polygon points="101.567 37.429 101.567 90.561 55.558 117.128 9.54 90.561 9.54 37.429 55.558 10.862 101.567 37.429" fill="#fad706"/><path d="M69.78107,23.39079h3.88769L68.869,29.1027l5.23144,6.352H70.03693l-4.04786-5.23193h-.03222v5.23193H62.82111v-12.064h3.13574v4.97607h.03222Z" transform="translate(0.00405 0.00379)" fill="#fff"/><path d="M73.12482,39.39079V46.175a13.85423,13.85423,0,0,1-.18457,2.2876,3.56676,3.56676,0,0,1-1.08008,1.98437,3.77484,3.77484,0,0,1-1.36719.87158,6.88941,6.88941,0,0,1-1.624.39209q-.25635.03224-.5127.04834c-.1709.01026-.33594.01563-.49609.01563-.15918,0-.3252-.00537-.4961-.01563-.16992-.01074-.34082-.02685-.51171-.04834a6.87792,6.87792,0,0,1-1.624-.39209,3.78694,3.78694,0,0,1-1.36816-.87158,3.57872,3.57872,0,0,1-1.08008-1.98437,13.86189,13.86189,0,0,1-.18359-2.272v-6.7998h3.13574v6.73584a5.64654,5.64654,0,0,0,.376,2q.36036.91187,1.752.91211,1.39307,0,1.752-.91211a5.62471,5.62471,0,0,0,.376-2V39.39079Z" transform="translate(0.00405 0.00379)" fill="#fff"/><path d="M62.86993,55.39079H67.3172a6.05824,6.05824,0,0,1,4.32812,1.75976,5.98974,5.98974,0,0,1-.00781,8.56836,6.02,6.02,0,0,1-4.32031,1.73584H62.86993Zm3.13575,9.4082h.7041a3.75914,3.75914,0,0,0,2.43945-.79394,3.07046,3.07046,0,0,0,1.03223-2.57422,3.22875,3.22875,0,0,0-.96-2.502,3.52183,3.52183,0,0,0-2.4795-.88232h-.73632Z" transform="translate(0.00405 0.00379)" fill="#fff"/><path d="M67.85333,70.98991a7.01233,7.01233,0,0,1,4.63965,1.752,5.61175,5.61175,0,0,1,2.03223,4.47168,6.43206,6.43206,0,0,1-1.87989,4.78418,7.10285,7.10285,0,0,1-9.57617,0,6.41548,6.41548,0,0,1-1.88769-4.78418,5.60876,5.60876,0,0,1,2.03222-4.47168,6.9426,6.9426,0,0,1,4.63965-1.73633Zm-2.4082,4.02344a3.00846,3.00846,0,0,0-1,2.21679,3.53736,3.53736,0,0,0,1,2.5752,3.34062,3.34062,0,0,0,4.8164-.002,3.55339,3.55339,0,0,0,1-2.582,3.01876,3.01876,0,0,0-1-2.22168,3.33583,3.33583,0,0,0-2.4082-.96972A3.401,3.401,0,0,0,65.44513,75.01335Z" transform="translate(0.00405 0.00379)" fill="#fff"/><path d="M71.82989,88.06217l-1.248,2.43165a3.75592,3.75592,0,0,0-.96875-.56836,2.95438,2.95438,0,0,0-1.11133-.21582c-.05371,0-.11231.00293-.17676.00781a.89129.89129,0,0,0-.1914.04,1.62733,1.62733,0,0,0-.67188.32031.77312.77312,0,0,0-.30469.63965.7532.7532,0,0,0,.28809.61621,2.64753,2.64753,0,0,0,.624.376c.08594.03222.168.06152.24805.08789.08008.02734.15723.05078.23242.07226l.79981.22363a5.86834,5.86834,0,0,1,2.12011,1.11231,2.72921,2.72921,0,0,1,.85547,2.20019v.25586a5.63748,5.63748,0,0,1-.30371,1.624A3.11115,3.11115,0,0,1,71.077,98.654a4.01791,4.01791,0,0,1-1.376.78418,6.60351,6.60351,0,0,1-1.56738.31934c-.08594,0-.168.00293-.24805.00781-.08008.00586-.15723.00879-.23242.00879a7.031,7.031,0,0,1-2.22364-.36035,7.89593,7.89593,0,0,1-2.01562-1l1.34375-2.544a6.48485,6.48485,0,0,0,1.28808.89551,3.14173,3.14173,0,0,0,1.4961.36816h.12793a1.85326,1.85326,0,0,0,.96-.32812,1.004,1.004,0,0,0,.43164-.8877.85809.85809,0,0,0-.36035-.71972,3.00779,3.00779,0,0,0-.80762-.43262c-.12793-.042-.25586-.082-.38379-.11914-.12793-.03809-.24609-.07227-.35254-.10449a.26539.26539,0,0,0-.07129-.02344.29915.29915,0,0,1-.07226-.02441A7.0492,7.0492,0,0,1,64.741,93.4694a2.73686,2.73686,0,0,1-.84766-2.33594,3.84358,3.84358,0,0,1,1.17578-2.94336,4.18582,4.18582,0,0,1,2.98438-1.10449,7.34082,7.34082,0,0,1,.752.04,5.69917,5.69917,0,0,1,.76758.13574,9.47494,9.47494,0,0,1,1.19238.33594,6.81265,6.81265,0,0,1,1.06445.48047Z" transform="translate(0.00405 0.00379)" fill="#fff"/><path d="M41.33719,59.32333c-2.05666-.16876-4.11812-.02561-6.17631-.09506-.10189-.34374.15129-.55239.31523-.78346q3.678-5.18436,7.39511-10.34084a1.34928,1.34928,0,0,0,.33016-.57814,1.18579,1.18579,0,0,0-.6788-.07436c-3.15387-.00442-6.30775.00009-9.4616-.00746-.30274-.00072-.64079.08422-.87993-.20977a2.22394,2.22394,0,0,1,.93353-.09551c3.37806-.00371,6.75676-.04013,10.13388.01632,1.38053.02307,2.76163.03372,4.14231.05883a8.28008,8.28008,0,0,0,2.23131-.19646c-.65663,1.14846-1.49732,2.16937-2.26,3.24376q-3.04988,4.29646-6.13781,8.56584C41.04467,59.07619,40.96375,59.23291,41.33719,59.32333Z" transform="translate(0.00405 0.00379)" fill="#888791"/><path d="M28.99188,76.06156c-1.23376.00258-2.46938.048-3.7007-.00557a3.68293,3.68293,0,0,0-2.71148.81707,19.65262,19.65262,0,0,1,1.57147-2.28528q3.57271-5.01946,7.17076-10.02089c.13723-.19172.26057-.39338.39037-.59042q3.62906-.011,7.25813-.02051c.19531-.00041.39067.02033.586.03123-.103.34008-.41064.30439-.6316.26537-1.0782-.19042-1.65426.36929-2.23837,1.20161-2.33027,3.3205-4.709,6.60732-7.06528,9.90989A2.85212,2.85212,0,0,1,28.99188,76.06156Z" transform="translate(0.00405 0.00379)" fill="#888690"/><path d="M31.7123,63.97647a10.51958,10.51958,0,0,1-7.931-4.99471,10.309,10.309,0,0,1-.35714-10.86138A10.092,10.092,0,0,1,32.58622,42.496c5.24817-.09422,10.49922-.029,15.749-.0286A2.37415,2.37415,0,0,1,49.8487,46.8277c-.07691.06152-.15114.1264-.22662.18972a2.08912,2.08912,0,0,1-1.55433.444c-1.53239-.01253-3.0645-.03651-4.59782-.09752-3.62187-.14413-7.25288-.077-10.88009-.029a1.19722,1.19722,0,0,0-.22962.04991,5.83984,5.83984,0,0,0,.40541,11.65424c.84677-.02695,1.6961-.0287,2.54517.00725,1.67689-.09974,3.35375-.03283,5.03012-.04019.37421-.00164.62992.32182.99627.31721a10.77974,10.77974,0,0,1,1.1723,21.23718,11.63421,11.63421,0,0,1-2.4089.24717c-5.13222-.0038-10.26493-.04323-15.39641.01863a2.40953,2.40953,0,0,1-2.29077-3.53345c.079-.13684-.0085-.32941.16629-.4198a2.4701,2.4701,0,0,1,2.24344-1.03228c1.37058.02144,2.7418-.03544,4.11171.02844,3.75241-.03361,7.50534-.00173,11.25818-.01744A5.71221,5.71221,0,0,0,45.751,71.74964,5.82963,5.82963,0,0,0,40.19374,64.176a5.19,5.19,0,0,1-.76981-.0236c-2.25712-.01206-4.5124.09207-6.76852.04516C32.32863,64.19071,31.97916,64.25141,31.7123,63.97647Z" transform="translate(0.00405 0.00379)"/></g></svg>