<?xml version="1.0" encoding="utf-8"?>
<!-- Generator: Adobe Illustrator 22.1.0, SVG Export Plug-In . SVG Version: 6.00 Build 0)  -->
<svg version="1.1" id="Layer_1" xmlns="http://www.w3.org/2000/svg" xmlns:xlink="http://www.w3.org/1999/xlink" x="0px" y="0px"
	 viewBox="0 0 899.2 1415.7" style="enable-background:new 0 0 899.2 1415.7;" xml:space="preserve">
<style type="text/css">
	.st0{fill:#FFCC3B;}
	.st1{opacity:0.5;}
	.st2{fill:#FFFFFF;}
	.st3{fill:#FFFFFF;stroke:#999999;stroke-width:27;stroke-miterlimit:10;}
	.st4{fill:none;stroke:#333333;stroke-width:12.5228;stroke-linecap:round;stroke-miterlimit:10;}
	.st5{fill:#333333;}
	.st6{opacity:0.15;fill:none;stroke:#333333;stroke-width:11.0453;stroke-miterlimit:10;enable-background:new    ;}
	.st7{fill:#D8BF82;}
</style>
<g>
	<g>
		<g>
			<g>
				<g>
					<g>
						<path class="st0" d="M872.2,1310.4v-0.4l0,0c0-73.2-43.7-139.4-111-168.2L644.6,1092c-61.6-26.4-127.9-39.9-195-39.9l0,0
							c-67,0-133.3,13.6-195,39.9L138,1141.8c-67.3,28.8-111,95-111,168.2l0,0l0,0v105.6h845.2V1310.4z"/>
					</g>
				</g>
				<g class="st1">
					<g>
						<rect x="314.9" y="1073.9" class="st2" width="263.6" height="337.5"/>
					</g>
				</g>
				<path class="st3" d="M630.7,1235.1"/>
				<path class="st3" d="M630.7,1310.1"/>
				<line class="st4" x1="208.1" y1="1254.1" x2="199.2" y2="1396.5"/>
				<line class="st4" x1="691.1" y1="1254.1" x2="696.5" y2="1396.5"/>
				<g>
					<path class="st5" d="M449.6,1079c31.5,0,63.2,3.2,94.1,9.5s61.3,15.8,90.3,28.2l116.6,49.9c57.5,24.6,94.6,80.9,94.6,143.4v0.4
						v78.2H54V1310c0-62.5,37.1-118.8,94.6-143.4l116.6-49.9c29-12.4,59.4-21.9,90.3-28.2C386.4,1082.2,418.1,1079,449.6,1079
						 M449.6,1052L449.6,1052c-67,0-133.3,13.6-195,39.9L138,1141.8c-67.3,28.8-111,95-111,168.2l0,0l0,0v105.6h845.2v-105.2v-0.4
						c0-73.2-43.7-139.4-111-168.2L644.6,1092C582.9,1065.6,516.6,1052,449.6,1052L449.6,1052z"/>
				</g>
			</g>
			<line class="st4" x1="314.9" y1="1082.7" x2="314.9" y2="1408.7"/>
			<line class="st4" x1="578.5" y1="1082.7" x2="578.5" y2="1408.7"/>
		</g>
		<path class="st6" d="M548.2,1083.7c0,1.1,0.1,19.6,0.1,20.7c0,53.7-45.5,97.3-101.6,97.3s-101.6-43.6-101.6-97.3v-20.7"/>
	</g>
	<g>
		<path class="st7" d="M446.6,1170.7c-33,0-62.1-21.1-72.2-52.6l-15.3-47.5L396.9,944l100.9,0.3l36.4,126.1l-15.6,47.9
			C508.4,1149.5,479.5,1170.6,446.6,1170.7L446.6,1170.7L446.6,1170.7z"/>
		<path class="st5" d="M407,957.6l80.7,0.2l32.5,112.4l-14.3,43.9c-8.4,25.7-32.1,43-59.1,43h-0.1c-27.2,0-51-17.4-59.3-43.2
			l-14-43.5L407,957.6 M386.9,930.5L345,1070.7l16.6,51.5c11.9,36.9,46.3,62,85.1,62c0.1,0,0.1,0,0.2,0l0,0
			c38.6-0.1,72.8-24.9,84.8-61.7l16.9-51.8L508,930.8L386.9,930.5L386.9,930.5z"/>
	</g>
</g>
</svg>
