<?xml version="1.0" encoding="utf-8"?>
<!-- Generator: Adobe Illustrator 23.0.1, SVG Export Plug-In . SVG Version: 6.00 Build 0)  -->
<svg version="1.1" xmlns="http://www.w3.org/2000/svg" xmlns:xlink="http://www.w3.org/1999/xlink" x="0px" y="0px"
	 viewBox="0 0 965.221863 1236.768066" style="enable-background:new 0 0 965.221863 1236.768066;" xml:space="preserve">
<style type="text/css">
	.Drop_x0020_Shadow{fill:none;}
	.Round_x0020_Corners_x0020_2_x0020_pt{fill:#FFFFFF;stroke:#231F20;stroke-miterlimit:10;}
	.Live_x0020_Reflect_x0020_X{fill:none;}
	.Bevel_x0020_Soft{fill:url(#SVGID_1_);}
	.Dusk{fill:#FFFFFF;}
	.Foliage_GS{fill:#FFDD00;}
	.Pompadour_GS{fill-rule:evenodd;clip-rule:evenodd;fill:#44ADE2;}
	.st0{fill:none;stroke:#562732;stroke-width:6;stroke-miterlimit:10;}
	.st1{fill:#FFFAF5;}
	.st2{fill:#25E899;}
	.st3{fill:none;stroke:#FFFAF5;stroke-width:12;stroke-miterlimit:10;}
	.st4{fill:#15003E;}
</style>
<linearGradient id="SVGID_1_" gradientUnits="userSpaceOnUse" x1="-116.15641" y1="-106.055855" x2="-115.44931" y2="-105.348747">
	<stop  offset="0" style="stop-color:#DEDFE3"/>
	<stop  offset="0.178331" style="stop-color:#DADBDF"/>
	<stop  offset="0.361141" style="stop-color:#CECFD3"/>
	<stop  offset="0.546043" style="stop-color:#B9BCBF"/>
	<stop  offset="0.732396" style="stop-color:#9CA0A2"/>
	<stop  offset="0.918145" style="stop-color:#787D7E"/>
	<stop  offset="1" style="stop-color:#656B6C"/>
</linearGradient>
<g id="Layer_4">
</g>
<g id="Layer_2">
</g>
<g id="Layer_1">
</g>
<g id="Layer_3">
	<g>
		<path class="st0" d="M133.074905,1148.860596c-12.542969,0-22.748047-10.204102-22.748047-22.74707V109.697021
			c0-12.542969,10.205078-22.747559,22.748047-22.747559h716.262695c12.542969,0,22.74707,10.20459,22.74707,22.747559v1016.416504
			c0,12.542969-10.204102,22.74707-22.74707,22.74707H133.074905z"/>
		<path class="st1" d="M849.337463,1178.86084H133.074753c-29.131706,0-52.74762-23.615967-52.74762-52.747681V109.697006
			c0-29.131706,23.615913-52.747623,52.74762-52.747623h716.262695c29.131714,0,52.74762,23.615917,52.74762,52.747623v1016.416138
			C902.085083,1155.244873,878.469177,1178.86084,849.337463,1178.86084z"/>
		<path class="st2" d="M132.41452,1148.200195c-12.542961,0-22.748039-10.204102-22.748039-22.74707V109.036644
			c0-12.542969,10.205078-22.747559,22.748039-22.747559h716.262695c12.542969,0,22.74707,10.20459,22.74707,22.747559v1016.416504
			c0,12.542969-10.204102,22.74707-22.74707,22.74707H132.41452z"/>
	</g>
	<path class="st3" d="M494.212311,900.158325c-77.214325,0-149.807373-30.069153-204.405762-84.667542
		c-54.598419-54.599304-84.667587-127.191467-84.667587-204.40625c0-77.214294,30.069168-149.806885,84.667587-204.405731
		c54.598389-54.598419,127.191437-84.667572,204.405762-84.667572s149.806488,30.068726,204.405731,84.667572
		c54.59845,54.598846,84.667603,127.191437,84.667603,204.405731c0,77.214783-30.069153,149.806946-84.667603,204.40625
		C644.018799,870.089172,571.426636,900.158325,494.212311,900.158325z"/>
	<circle class="st1" cx="494.211914" cy="611.084778" r="262.221649"/>
	<g>
		<g>
			<path class="st4" d="M515.970276,769.00708c-89.365204,11.628418-171.524994-51.613708-183.153442-140.978882
				c-11.628479-89.365173,51.610901-171.52713,140.976074-183.155579
				c89.365173-11.628479,171.529907,51.613037,183.158386,140.97821
				C668.579712,675.216003,605.335388,757.378601,515.970276,769.00708z M475.772644,460.087067
				c-80.975403,10.536774-138.278107,84.985931-127.741364,165.961395
				c10.536774,80.975403,84.983795,138.280884,165.959198,127.744141
				c80.975464-10.536804,138.283081-84.986572,127.746338-165.962036
				C631.200012,506.855164,556.748047,449.550323,475.772644,460.087067z"/>
		</g>
		<g>
			<path class="st4" d="M603.707825,675.742493l-12.963806-8.204773c14.111267-22.301941,20.007568-49.019653,16.596802-75.231445
				c-8.068542-62.006836-65.080322-105.889893-127.092133-97.82074c-20.06308,2.610657-39.054108,10.518707-54.928375,22.871338
				l-9.422668-12.110504c18.028107-14.030518,39.599121-23.012115,62.371277-25.975311
				c70.40155-9.160858,135.12616,40.658875,144.286377,111.055481
				C626.42749,620.084412,619.732605,650.418945,603.707825,675.742493z"/>
		</g>
		<g>
			<circle class="st4" cx="495.292664" cy="607.2052" r="84.294754"/>
		</g>
		<g>
			<g>
				<path class="st4" d="M363.858765,775.359802c37.402435-48.592346,74.804901-97.184692,112.207336-145.777039
					c6.030273-7.834412-6.125305-17.196106-12.158142-9.358398c-37.402466,48.592346-74.804901,97.184692-112.207336,145.777039
					C345.670349,773.835815,357.825897,783.19751,363.858765,775.359802L363.858765,775.359802z"/>
			</g>
		</g>
		<g>
			<g>
				<path class="st4" d="M430.52179,600.776489c-14.993958,1.95105-29.987915,3.9021-44.981873,5.85321
					c-9.789795,1.273865-7.826263,16.490417,1.979736,15.214417c14.993958-1.95105,29.987915-3.9021,44.981903-5.853149
					C442.291321,614.717102,440.327789,599.500488,430.52179,600.776489L430.52179,600.776489z"/>
			</g>
		</g>
		<g>
			<g>
				<path class="st4" d="M624.291504,474.655548c16.316284-2.123138,13.043701-27.4841-3.299622-25.357452
					C604.675598,451.421234,607.94812,476.782196,624.291504,474.655548L624.291504,474.655548z"/>
			</g>
		</g>
		<g>
			<g>
				<path class="st4" d="M670.341187,531.00238c16.316284-2.123108,13.043701-27.48407-3.299622-25.357422
					C650.725281,507.768097,653.997864,533.129028,670.341187,531.00238L670.341187,531.00238z"/>
			</g>
		</g>
		<g>
			<g>
				<path class="st4" d="M685.559021,611.76416c16.316345-2.123108,13.043762-27.48407-3.299561-25.357422
					C665.943115,588.529846,669.215698,613.890808,685.559021,611.76416L685.559021,611.76416z"/>
			</g>
		</g>
		<g>
			<circle class="st4" cx="597.695862" cy="670.951599" r="7.665462"/>
		</g>
		<g>
			<circle class="st4" cx="575.242004" cy="693.549805" r="7.665462"/>
		</g>
		<g>
			<circle class="st4" cx="364.421417" cy="616.545898" r="7.665462"/>
		</g>
		<g>
			<circle class="st4" cx="403.137207" cy="528.934265" r="7.665462"/>
		</g>
		<g>
			<circle class="st4" cx="421.023926" cy="511.302917" r="7.665462"/>
		</g>
		<circle class="st4" cx="495.292664" cy="607.2052" r="33.007053"/>
	</g>
	<g>
		<g>
			<path class="st4" d="M811.904175,850.839539c-0.000122,4.263977,0,8.572876,0,12.837036
				c-0.000122,80.927368-0.022461,161.832214,0,242.737244l-15.86676-15.866821c0-75.855408,0-151.755615-0.022461-227.588623
				v-12.118958C796.014954,840.605835,811.904175,840.605652,811.904175,850.839539z"/>
		</g>
		<g>
			<path class="st4" d="M774.425354,767.129333c-0.000183,0.314087,0,0.628174,0,0.942444
				c0,100.272827,0,200.590332,0.022461,300.88562l-15.889282-15.88916c0-94.303162,0.022461-188.628723,0.000122-282.954163
				c-0.000122-0.987427-0.000122-2.019714-0.000122-3.007324C758.558533,756.873169,774.425354,756.895447,774.425354,767.129333z"
				/>
		</g>
		<g>
			<path class="st4" d="M731.04425,768.453369c3.186768,0.718201,5.924683,3.186768,5.924683,7.450928
				c-0.022461,85.168884-0.022461,170.405151,0,255.574341l-15.889282-15.889343
				c0.022461-78.211792,0.022461-156.446045,0.000122-234.657959c-0.000122-1.660828,0-3.366333-0.000122-5.027222
				C721.079651,769.934631,726.510681,767.420959,731.04425,768.453369z"/>
		</g>
		<g>
			<path class="st4" d="M733.612366,771.019592c-39.371826-39.371826-78.743652-78.743652-118.115479-118.115479
				c-7.220276-7.220337-18.453491,3.988953-11.221191,11.221191c39.371826,39.371826,78.743652,78.743652,118.115417,118.115479
				C729.61145,789.46106,740.844604,778.251831,733.612366,771.019592L733.612366,771.019592z"/>
		</g>
		<g>
			<path class="st4" d="M772.252319,761.359558c-36.298157-36.298157-80.414429-80.414429-116.712585-116.712646
				c-7.220337-7.220276-10.635437,11.807068-3.403137,19.039307c36.298157,36.298218,72.596375,72.596375,108.894531,108.894531
				C768.251465,779.801086,779.484619,768.591858,772.252319,761.359558L772.252319,761.359558z"/>
		</g>
		<g>
			<path class="st4" d="M688.470764,793.375244c2.872681,0.897766,5.184326,3.299011,5.184326,7.203979
				c-0.022461,52.402954-0.022461,135.137573-0.022461,187.563049l-15.866821-15.866821
				c0-45.692749,0-121.739258,0.000122-167.432129c-0.000122-1.436218-0.000122-2.827637-0.000122-4.263977
				C677.765808,794.250427,683.847778,791.84906,688.470764,793.375244z"/>
		</g>
		<g>
			<path class="st4" d="M687.800537,792.624878c-27.711487-27.711548-51.061951-51.095398-78.773438-78.806885
				c-7.220337-7.220337-16.367249,5.404175-9.134949,12.636414c27.711487,27.711548,48.975647,49.680115,76.687195,77.391663
				C683.799622,811.066345,695.032776,799.857117,687.800537,792.624878L687.800537,792.624878z"/>
		</g>
		<circle class="st4" cx="804.549927" cy="850.251038" r="15.317217"/>
		<circle class="st4" cx="804.549927" cy="1097.142212" r="15.317217"/>
		<circle class="st4" cx="684.520264" cy="978.823547" r="15.317217"/>
		<circle class="st4" cx="727.7146" cy="1022.410522" r="15.317217"/>
		<circle class="st4" cx="766.282715" cy="1060.978638" r="15.317217"/>
	</g>
	<g>
		<g>
			<path class="st4" d="M168.887802,383.902985c0.000137-4.263977,0-8.572876,0-12.837006
				c0.000137-80.927368,0.022476-161.83226,0-242.737305l15.866821,15.866806c0,75.855499,0,151.755661,0.022461,227.588669
				v12.118988C184.777084,394.136719,168.887802,394.136871,168.887802,383.902985z"/>
		</g>
		<g>
			<path class="st4" d="M206.366684,467.61319c0.000137-0.314087,0-0.628174,0-0.942413
				c0-100.272858,0-200.590363-0.022461-300.885681l15.889267,15.889282c0,94.303085-0.022461,188.628647-0.000137,282.954102
				c0.000137,0.987457,0.000137,2.019745,0.000137,3.007355C222.23349,477.869385,206.366684,477.847076,206.366684,467.61319z"/>
		</g>
		<g>
			<path class="st4" d="M252.325989,465.000061c-3.186798-0.71817-5.924698-3.186768-5.924698-7.450897
				c0.022461-85.168884,0.022461-170.405151,0-255.57431l15.889267,15.889282
				c-0.022461,78.211792-0.022461,156.446014-0.000122,234.657959c0.000122,1.660858,0,3.366364,0.000122,5.027222
				C262.290558,463.518799,256.859528,466.032471,252.325989,465.000061z"/>
		</g>
		<g>
			<path class="st4" d="M351.460602,559.236938c1.65625-3.915894,3.775146-7.614319,5.527588-11.486084
				c-0.423828-0.762573-0.956543-1.485657-1.615234-2.14447c-39.37207-39.371765-55.021973-55.021912-94.393799-94.393738
				c-7.220474-7.220337-18.453629,3.988953-11.221451,11.221191l98.021011,98.020752
				c0.865479,0.86554,1.736084,1.406616,2.586426,1.689331C350.69278,561.161743,351.057037,560.190979,351.460602,559.236938z"/>
		</g>
		<g>
			<path class="st4" d="M208.539673,473.382965c36.298172,36.298187,88.900208,88.37442,125.198364,124.672638
				c7.220306,7.220276,10.865784-10.632507,3.633514-17.864746c-36.298187-36.298218-81.3125-81.730927-117.610672-118.029083
				C212.540573,454.941467,201.307404,466.150696,208.539673,473.382965L208.539673,473.382965z"/>
		</g>
		<g>
			<path class="st4" d="M292.321259,441.367279c-2.872681-0.897766-5.184326-3.298981-5.184326-7.203949
				c0.022461-52.402985,0.022461-135.137604,0.022461-187.563065l15.866821,15.866806c0,45.692749,0,121.739288-0.000153,167.432159
				c0.000153,1.436188,0.000153,2.827637,0.000153,4.263977C303.026215,440.492126,296.944275,442.893463,292.321259,441.367279z"/>
		</g>
		<g>
			<path class="st4" d="M292.991486,442.117676c27.711517,27.711517,44.475342,44.475372,72.186859,72.18689
				c7.220306,7.220276,18.06488-4.377563,10.832611-11.609833c-27.711517-27.711517-44.086761-44.086731-71.798279-71.798248
				C296.992371,423.676178,285.759216,434.885406,292.991486,442.117676L292.991486,442.117676z"/>
		</g>
		<circle class="st4" cx="176.242096" cy="384.491486" r="15.317217"/>
		<circle class="st4" cx="176.242096" cy="137.600281" r="15.317217"/>
		<circle class="st4" cx="296.271729" cy="255.919006" r="15.317217"/>
		<circle class="st4" cx="255.655624" cy="211.042938" r="15.317217"/>
		<circle class="st4" cx="214.509308" cy="173.763916" r="15.317217"/>
	</g>
	<path class="st1" d="M463.55899,547.11322c3.170654-1.760254,6.572266-3.088989,10.037109-4.230713
		c3.468018-1.155762,7.042725-2.00708,10.675781-2.65094c7.267334-1.253723,14.816406-1.483582,22.328857-0.461853
		c7.506073,1.009705,14.955292,3.375244,21.766327,7.04895c3.405762,1.834167,6.630127,4.011658,9.648682,6.429688
		c3.003662,2.438599,5.785889,5.13385,8.326904,8.015076c2.513916,2.912659,4.796143,5.9776,6.855713,9.164612
		c2.02417,3.221863,3.876953,6.578491,5.409668,10.092896c3.071533,7.018616,4.980713,14.622498,5.327393,22.268311
		c0.366455,7.642273-0.74707,15.2677-3.173828,22.313049c-1.223145,3.520569-2.721924,6.916931-4.559082,10.102051
		c-1.828857,3.179993-3.88501,6.2276-6.390381,8.854614c2.9104-6.593384,4.753418-13.417969,5.713623-20.228577
		c0.952881-6.808594,0.918701-13.611877-0.175293-20.161072c-1.082275-6.552673-3.199707-12.842773-6.177979-18.733521
		c-1.503906-2.937683-3.158936-5.810486-5.046143-8.550781c-1.870117-2.762878-3.874756-5.416626-6.056152-7.871826
		c-2.141602-2.497803-4.484131-4.794861-6.97583-6.900696c-2.459961-2.148987-5.131104-4.029053-7.906738-5.749695
		c-5.568604-3.421143-11.724579-5.938843-18.221649-7.61322c-6.498535-1.680786-13.328369-2.492126-20.274658-2.640686
		C477.736725,545.468262,470.674469,545.942383,463.55899,547.11322z"/>
	
		<ellipse transform="matrix(0.654198 -0.756323 0.756323 0.654198 -249.470993 590.443237)" class="st1" cx="520.96051" cy="568.03772" rx="17.591454" ry="24.695694"/>
	
		<ellipse transform="matrix(0.960894 -0.276916 0.276916 0.960894 -144.899033 176.103424)" class="st1" cx="551.060303" cy="601.07959" rx="8.911616" ry="12.510539"/>
	<g>
		<g>
			<path class="st4" d="M570.012085,147.074783h15.4729v1.237213c0,2.81337-0.331116,5.30336-0.99408,7.469986
				c-0.646729,2.004929-1.738403,3.880508-3.274475,5.62674c-3.476257,3.912842-7.898132,5.868668-13.266174,5.868668
				c-5.238708,0-9.72583-1.891144-13.460205-5.674652c-3.735596-3.799667-5.602783-8.359268-5.602783-13.678802
				c0-5.432709,1.899536-10.041412,5.699768-13.824905c3.799072-3.799072,8.42334-5.699203,13.872864-5.699203
				c2.925903,0,5.658447,0.59584,8.19696,1.786346c2.425293,1.191696,4.810486,3.126572,7.154968,5.805206l-4.026001,3.855957
				c-3.072083-4.090714-6.815491-6.136368-11.228943-6.136368c-3.961975,0-7.284363,1.366562-9.968384,4.099091
				c-2.684021,2.684021-4.026001,6.047134-4.026001,10.089325c0,4.171555,1.4953,7.607727,4.487122,10.307907
				c2.796631,2.506165,5.828552,3.758942,9.094666,3.758942c2.781006,0,5.278809-0.935394,7.494507-2.806183
				c2.214539-1.886948,3.451782-4.144592,3.710449-6.773514h-9.337158V147.074783z"/>
			<path class="st4" d="M611.15686,129.127426v37.446915h-5.651306v-37.446915H611.15686z"/>
			<path class="st4" d="M643.401062,134.439163v32.135178h-5.651306v-32.135178h-8.609619v-5.311737h22.845947v5.311737H643.401062z
				"/>
			<path class="st4" d="M696.284363,131.128159v6.6819c-3.266113-2.732529-6.645386-4.099091-10.137817-4.099091
				c-3.848206,0-7.090332,1.382736-9.72522,4.147598c-2.652283,2.748703-3.977539,6.111801-3.977539,10.089325
				c0,3.929016,1.325256,7.243622,3.977539,9.943817c2.651062,2.70018,5.901001,4.049973,9.749146,4.049973
				c1.98938,0,3.678711-0.322769,5.069214-0.970123c0.776123-0.322769,1.580383-0.759338,2.41333-1.309067
				c0.832397-0.549744,1.709717-1.213257,2.631348-1.989365v6.827423c-3.233765,1.835449-6.629211,2.752884-10.18634,2.752884
				c-5.351868,0-9.919861-1.867188-13.703369-5.602783c-3.767334-3.766739-5.650696-8.310165-5.650696-13.6297
				c0-4.769791,1.576172-9.022186,4.729675-12.757767c3.880554-4.57518,8.900635-6.863358,15.060974-6.863358
				C689.897705,128.399826,693.147644,129.309464,696.284363,131.128159z"/>
			<path class="st1" d="M717.596313,141.713715c0-5.270432,1.931824-9.798294,5.796814-13.581787
				c3.847534-3.783493,8.471802-5.674644,13.872803-5.674644c5.335693,0,9.910889,1.907913,13.726685,5.723747
				c3.832642,3.815842,5.748352,8.399399,5.748352,13.751266c0,5.384201-1.924133,9.952194-5.772278,13.703354
				c-3.86438,3.767319-8.529358,5.650696-13.993774,5.650696c-4.835083,0-9.176086-1.673172-13.024292-5.020721
				C719.714417,152.563583,717.596313,147.712936,717.596313,141.713715z M723.296082,141.774796
				c0,4.13562,1.389954,7.535858,4.17157,10.20192c2.764221,2.665451,5.957886,3.997879,9.579712,3.997879
				c3.929016,0,7.243591-1.356979,9.943787-4.070938c2.700195-2.745712,4.050598-6.090256,4.050598-10.031845
				c0-3.990097-1.334229-7.334045-4.002075-10.03244c-2.651672-2.713959-5.93396-4.070938-9.846802-4.070938
				c-3.896667,0-7.187317,1.356979-9.871338,4.070938C724.637512,134.521591,723.296082,137.833206,723.296082,141.774796z"/>
			<path class="st4" d="M779.035645,129.127426v37.446915h-5.651306v-37.446915H779.035645z"/>
			<path class="st4" d="M800.947388,166.574341v-39.99321l27.309692,28.569656v-26.023361h5.650696v39.726715l-27.309143-28.497192
				v26.217392H800.947388z"/>
		</g>
	</g>
	<g>
		<g>
			<path class="st4" d="M410.76355,1085.587646h-15.472931v-1.237305c0-2.813354,0.331177-5.303345,0.99408-7.469971
				c0.646759-2.004883,1.738464-3.880493,3.274475-5.626709c3.476288-3.912842,7.898163-5.868652,13.266205-5.868652
				c5.238678,0,9.72583,1.891113,13.460236,5.674683c3.735565,3.799561,5.602783,8.359253,5.602783,13.678711
				c0,5.432739-1.899536,10.041504-5.699799,13.824951c-3.799072,3.799072-8.42334,5.699219-13.872833,5.699219
				c-2.925964,0-5.658478-0.595825-8.196991-1.786377c-2.425293-1.19165-4.810516-3.126587-7.154968-5.805176l4.026031-3.855957
				c3.072052,4.090698,6.81543,6.136353,11.228912,6.136353c3.961945,0,7.284332-1.366577,9.968353-4.099121
				c2.684021-2.68396,4.026031-6.047119,4.026031-10.089355c0-4.171509-1.4953-7.607666-4.487122-10.307861
				c-2.7966-2.506104-5.828552-3.758911-9.094666-3.758911c-2.781036,0-5.278809,0.935425-7.494537,2.806152
				c-2.214508,1.886963-3.451721,4.144653-3.710419,6.77356h9.337158V1085.587646z"/>
			<path class="st4" d="M369.618774,1103.534912v-37.446899h5.651276v37.446899H369.618774z"/>
			<path class="st4" d="M337.374603,1098.223267v-32.135254h5.651306v32.135254h8.609558v5.311646h-22.845886v-5.311646H337.374603z
				"/>
			<path class="st4" d="M284.491272,1101.53418v-6.681885c3.266083,2.732544,6.645386,4.099121,10.137817,4.099121
				c3.848175,0,7.090332-1.38269,9.72525-4.147583c2.652283-2.748657,3.977509-6.111816,3.977509-10.089355
				c0-3.928955-1.325226-7.243652-3.977509-9.943848c-2.651093-2.700195-5.901031-4.049927-9.749176-4.049927
				c-1.98938,0-3.678711,0.322754-5.069244,0.970093c-0.776093,0.322754-1.580322,0.759399-2.41333,1.309082
				c-0.832397,0.549805-1.709686,1.213257-2.631317,1.98938v-6.827393c3.233765-1.835449,6.629211-2.75293,10.18634-2.75293
				c5.351868,0,9.919861,1.867188,13.703339,5.602783c3.767334,3.766724,5.650696,8.310181,5.650696,13.629761
				c0,4.769775-1.576141,9.022095-4.729675,12.75769c-3.880493,4.575195-8.900604,6.863403-15.060913,6.863403
				C290.87793,1104.262573,287.628021,1103.352905,284.491272,1101.53418z"/>
			<path class="st1" d="M263.179352,1090.948608c0,5.270508-1.931885,9.79834-5.796814,13.581787
				c-3.84758,3.783569-8.471848,5.674683-13.872833,5.674683c-5.335693,0-9.910873-1.907837-13.7267-5.723755
				c-3.832611-3.815796-5.748306-8.399414-5.748306-13.751221c0-5.384277,1.924088-9.952148,5.772263-13.703369
				c3.864334-3.767334,8.529327-5.650635,13.99379-5.650635c4.835068,0,9.176086,1.673096,13.024261,5.02063
				C261.061249,1080.098755,263.179352,1084.949463,263.179352,1090.948608z M257.479553,1090.887573
				c0-4.13562-1.389923-7.535889-4.171555-10.201904c-2.764267-2.665405-5.957901-3.997925-9.579712-3.997925
				c-3.929016,0-7.243622,1.357056-9.943802,4.071045c-2.700195,2.745605-4.050583,6.09021-4.050583,10.031738
				c0,3.990112,1.334213,7.334106,4.002075,10.032471c2.651672,2.713989,5.933945,4.070923,9.846786,4.070923
				c3.896683,0,7.187332-1.356934,9.871353-4.070923C256.138123,1098.140747,257.479553,1094.829224,257.479553,1090.887573z"/>
			<path class="st4" d="M201.739975,1103.534912v-37.446899h5.651306v37.446899H201.739975z"/>
			<path class="st4" d="M179.828278,1066.088013v39.993286l-27.309692-28.569702v26.023315h-5.650696v-39.726685
				l27.309082,28.497192v-26.217407H179.828278z"/>
		</g>
	</g>
</g>
</svg>
