<svg xmlns="http://www.w3.org/2000/svg" viewBox="0 0 899.21 1415.66"><defs><style>.cls-1{fill:none;stroke:#333;stroke-linecap:round;stroke-miterlimit:10;stroke-width:10px;}.cls-2{fill:#fff;}.cls-3{fill:#333;}.cls-4{fill:#00aeef;}</style></defs><title>gitcoin_avatar2</title><g id="BODY"><polyline class="cls-1" points="312.99 600.08 376.93 600.08 378.54 612.04"/><path class="cls-2" d="M383.77,628.48l-7.82.21a10.77,10.77,0,0,1-1.58,16.53c5.64-.79,11.82-2.32,13.84-6.44,1.05-2.16,1.66-6.18-.29-8.39A6.63,6.63,0,0,0,383.77,628.48Z"/><path class="cls-2" d="M357.52,636.3a10.77,10.77,0,0,1,2.77-7.2l-22.27.59,1.13,2.62a22.31,22.31,0,0,0,5.91,8.51c5.74,5,12.94,5.69,19,5.4A10.79,10.79,0,0,1,357.52,636.3Z"/><path class="cls-3" d="M384.39,618.5l-.28,0-53.61,1.41h-.22l-17.85.47-6,11.62a5,5,0,0,0,8.88,4.6l3.31-6.38,8.67-.23,2.66,6.21a32.24,32.24,0,0,0,8.52,12.15c7.42,6.53,16.21,7.94,23.41,7.94a83.56,83.56,0,0,0,8.71-.55c8.58-.87,21.55-2.2,26.62-12.55,2.73-5.57,3.24-13.72-1.77-19.4A16.66,16.66,0,0,0,384.39,618.5Zm-39.33,22.32a22.31,22.31,0,0,1-5.91-8.51L338,629.69l22.27-.59a10.76,10.76,0,0,0,3.8,17.12C358,646.51,350.8,645.87,345.06,640.82Zm23.25,1.27a5.79,5.79,0,1,1,5.79-5.79A5.8,5.8,0,0,1,368.31,642.09Zm19.9-3.31c-2,4.12-8.2,5.65-13.84,6.44A10.77,10.77,0,0,0,376,628.69l7.82-.21a6.63,6.63,0,0,1,4.15,1.91C389.87,632.6,389.26,636.62,388.21,638.78Z"/><circle class="cls-4" cx="368.31" cy="636.3" r="5.79"/><polyline class="cls-1" points="574.44 600.96 510.5 600.96 508.89 612.93"/><path class="cls-2" d="M515.44,629.41l7.82.21a10.76,10.76,0,0,0,1.58,16.52c-5.64-.78-11.82-2.31-13.84-6.44-1.05-2.15-1.66-6.18.29-8.39A6.61,6.61,0,0,1,515.44,629.41Z"/><path class="cls-2" d="M541.69,637.22a10.76,10.76,0,0,0-2.77-7.19l22.27.58-1.13,2.63a22.47,22.47,0,0,1-5.91,8.51c-5.74,5-12.94,5.68-19,5.4A10.81,10.81,0,0,0,541.69,637.22Z"/><path class="cls-3" d="M503.79,624.7c-5,5.67-4.5,13.83-1.77,19.4,5.07,10.35,18,11.67,26.62,12.55a83.56,83.56,0,0,0,8.71.55c7.2,0,16-1.42,23.41-8a32.24,32.24,0,0,0,8.52-12.15l2.66-6.2,8.67.22,3.31,6.39a5,5,0,1,0,8.88-4.6l-6-11.63-17.85-.47h-.22L515.1,619.4l-.28,0A16.68,16.68,0,0,0,503.79,624.7Zm31.33,22.45a10.76,10.76,0,0,0,3.8-17.12l22.27.58-1.13,2.63a22.47,22.47,0,0,1-5.91,8.51C548.41,646.79,541.21,647.43,535.12,647.15Zm-10-9.93A5.79,5.79,0,1,1,530.9,643,5.8,5.8,0,0,1,525.11,637.22Zm-13.82-5.91a6.61,6.61,0,0,1,4.15-1.9l7.82.21a10.76,10.76,0,0,0,1.58,16.52c-5.64-.78-11.82-2.31-13.84-6.44C510,637.55,509.34,633.52,511.29,631.31Z"/><circle class="cls-4" cx="530.9" cy="637.22" r="5.79"/></g></svg>