<?xml version="1.0" encoding="UTF-8"?>
<svg width="3000px" height="1114px" viewBox="0 0 3000 1114" version="1.1" xmlns="http://www.w3.org/2000/svg" xmlns:xlink="http://www.w3.org/1999/xlink">
    <!-- Generator: Sketch 50.2 (55047) - http://www.bohemiancoding.com/sketch -->
    <title>background-lines</title>
    <desc>Created with Sketch.</desc>
    <defs></defs>
    <g id="background-lines" stroke="none" stroke-width="1" fill="none" fill-rule="evenodd">
        <rect id="bg" stroke="#979797" fill="#0D003C" x="0.5" y="0.5" width="2999" height="1113"></rect>
        <g id="lines" transform="translate(-342.000000, -47.000000)">
            <g id="pink" transform="translate(510.000000, 388.000000)" fill="#F9016C">
                <rect id="Rectangle" transform="translate(522.546203, 75.546203) rotate(-45.000000) translate(-522.546203, -75.546203) " x="419.207738" y="72.0462031" width="206.67693" height="7" rx="3.5"></rect>
                <rect id="Rectangle-Copy" transform="translate(227.546203, 428.546203) rotate(-45.000000) translate(-227.546203, -428.546203) " x="124.207738" y="425.046203" width="206.67693" height="7" rx="3.5"></rect>
                <rect id="Rectangle-Copy-3" transform="translate(450.546203, 753.546203) rotate(-45.000000) translate(-450.546203, -753.546203) " x="347.207738" y="750.046203" width="206.67693" height="7" rx="3.5"></rect>
                <rect id="Rectangle-Copy-3" transform="translate(2569.278371, 595.742706) rotate(-45.000000) translate(-2569.278371, -595.742706) " x="2542.02954" y="592.242706" width="54.4976596" height="7" rx="3.5"></rect>
                <path d="M2042.47082,549 L2050.81925,549 C2052.75225,549 2054.31925,550.567003 2054.31925,552.5 C2054.31925,554.432997 2052.75225,556 2050.81925,556 L2034.5,556 C2033.60556,556 2032.78948,555.664483 2032.17075,555.11244 C2032.02734,555.007425 2031.89012,554.890125 2031.76054,554.760538 C2030.3937,553.393703 2030.3937,551.177626 2031.76054,549.810791 L2133.09646,448.474874 C2134.46329,447.108039 2136.67937,447.108039 2138.0462,448.474874 C2139.41304,449.841709 2139.41304,452.057786 2138.0462,453.424621 L2042.47082,549 Z" id="Combined-Shape"></path>
                <path d="M2076.57133,557 L2067.5,557 C2065.567,557 2064,555.432997 2064,553.5 C2064,551.567003 2065.567,550 2067.5,550 L2083.81925,550 C2084.63244,550 2085.38085,550.277326 2085.97508,550.742559 C2086.36385,550.912603 2086.72804,551.156707 2087.0462,551.474874 C2088.41304,552.841709 2088.41304,555.057786 2087.0462,556.424621 L2006.21029,637.260538 C2004.84345,638.627373 2002.62737,638.627373 2001.26054,637.260538 C1999.8937,635.893703 1999.8937,633.677626 2001.26054,632.310791 L2076.57133,557 Z" id="Combined-Shape"></path>
                <rect id="Rectangle-Copy-2" transform="translate(21.064694, 69.064694) rotate(-45.000000) translate(-21.064694, -69.064694) " x="-5.22528185" y="65.5646938" width="52.5799513" height="7" rx="3.5"></rect>
                <circle id="Oval" cx="1536.5" cy="255.5" r="3.5"></circle>
                <rect id="Rectangle-3" transform="translate(2301.727922, 512.727922) rotate(-315.000000) translate(-2301.727922, -512.727922) " x="2292.72792" y="503.727922" width="18" height="18"></rect>
            </g>
            <g id="azul" fill="#0C0066">
                <rect id="Rectangle-4" transform="translate(3012.289042, 504.567443) rotate(44.000000) translate(-3012.289042, -504.567443) " x="2968.83877" y="166.223383" width="86.900541" height="676.68812" rx="43.4502705"></rect>
                <rect id="Rectangle-4-Copy" transform="translate(2350.385802, 659.816440) rotate(44.300000) translate(-2350.385802, -659.816440) " x="2324.61921" y="261.851444" width="51.5331906" height="795.929993" rx="25.7665953"></rect>
                <rect id="Rectangle-4-Copy-2" transform="translate(2270.688658, 506.239128) rotate(44.300000) translate(-2270.688658, -506.239128) " x="2244.92206" y="448.611962" width="51.5331906" height="115.254331" rx="25.7665953"></rect>
                <rect id="Rectangle-4-Copy-4" transform="translate(1252.551971, 953.346440) rotate(44.300000) translate(-1252.551971, -953.346440) " x="1226.78538" y="881.596856" width="51.5331906" height="143.499167" rx="25.7665953"></rect>
                <rect id="Rectangle-4-Copy-3" transform="translate(1689.875024, 865.176030) rotate(44.300000) translate(-1689.875024, -865.176030) " x="1664.10843" y="648.350794" width="51.5331906" height="433.650473" rx="25.7665953"></rect>
                <rect id="Rectangle-4-Copy-6" transform="translate(1432.875024, 173.176030) rotate(44.300000) translate(-1432.875024, -173.176030) " x="1407.10843" y="-43.6492062" width="51.5331906" height="433.650473" rx="25.7665953"></rect>
                <rect id="Rectangle-4-Copy-5" transform="translate(266.289042, 828.567443) rotate(44.000000) translate(-266.289042, -828.567443) " x="222.838772" y="490.223383" width="86.900541" height="676.68812" rx="43.4502705"></rect>
            </g>
            <g id="green" transform="translate(1131.000000, 165.000000)" fill="#25EC9A">
                <circle id="Oval-3" cx="959" cy="404" r="4"></circle>
                <circle id="Oval-3" cx="1043" cy="854" r="4"></circle>
                <rect id="Rectangle-Copy" transform="translate(30.367706, 495.367706) rotate(-45.000000) translate(-30.367706, -495.367706) " x="-9.07871571" y="491.867706" width="78.8928435" height="7" rx="3.5"></rect>
                <rect id="Rectangle-Copy" transform="translate(894.564122, 494.171290) rotate(-45.000000) translate(-894.564122, -494.171290) " x="883.679746" y="490.67129" width="21.7687522" height="7" rx="3.5"></rect>
                <rect id="Rectangle-Copy" transform="translate(979.269498, 914.073082) rotate(-45.000000) translate(-979.269498, -914.073082) " x="941.653951" y="910.573082" width="75.2310932" height="7" rx="3.5"></rect>
                <rect id="Rectangle-Copy-7" transform="translate(856.921290, 59.814122) rotate(-45.000000) translate(-856.921290, -59.814122) " x="777.094003" y="56.3141222" width="159.654575" height="7" rx="3.5"></rect>
                <circle id="Oval-2" cx="229" cy="274" r="4"></circle>
                <rect id="Rectangle-2" transform="translate(904.656854, 431.656854) rotate(45.000000) translate(-904.656854, -431.656854) " x="900.656854" y="427.656854" width="8" height="8"></rect>
                <rect id="Rectangle-2-Copy" transform="translate(877.428403, 403.828427) rotate(45.000000) translate(-877.428403, -403.828427) " x="875.428403" y="401.828427" width="4" height="4"></rect>
                <circle id="Oval-2-Copy" cx="334" cy="175" r="4"></circle>
            </g>
        </g>
    </g>
</svg>