<svg id="Layer_1" data-name="Layer 1" xmlns="http://www.w3.org/2000/svg" xmlns:xlink="http://www.w3.org/1999/xlink" viewBox="0 0 110.85 128"><defs><style>.cls-1,.cls-13,.cls-14{fill:none;}.cls-2{fill:#fff;}.cls-3{fill:#3c9;}.cls-4{fill:#9ff;}.cls-5{opacity:0.13;isolation:isolate;}.cls-6{fill:#15003e;}.cls-7{fill:#432939;}.cls-8{fill:#2d1a27;}.cls-9{fill:#57bf8e;}.cls-10{fill:#734260;}.cls-11{clip-path:url(#clip-path);}.cls-12{opacity:0.15;}.cls-13{stroke:#b5eecc;stroke-linecap:round;stroke-linejoin:round;stroke-width:0.5px;}.cls-14{stroke:#009678;stroke-miterlimit:10;stroke-width:0.7px;}.cls-15{clip-path:url(#clip-path-2);}.cls-16{fill:#3fa473;}.cls-17{clip-path:url(#clip-path-3);}.cls-18{clip-path:url(#clip-path-4);}.cls-19{clip-path:url(#clip-path-5);}.cls-20{fill:#9cc;}.cls-21{fill:#34202d;}.cls-22{fill:#c3d8e2;}.cls-23{fill:#ff7333;}.cls-24{fill:#ad241b;}.cls-25{fill:#96b5c2;}.cls-26{fill:#991713;}.cls-27{fill:#ff5b25;}.cls-28{fill:#129360;}.cls-29{clip-path:url(#clip-path-6);}.cls-30{fill:#ffac00;}</style><clipPath id="clip-path" transform="translate(-0.03 -0.01)"><polygon class="cls-1" points="18.46 50.07 16.47 43.35 31.5 43.35 29.79 50.07 18.46 50.07"/></clipPath><clipPath id="clip-path-2" transform="translate(-0.03 -0.01)"><polygon class="cls-1" points="26.12 81.5 23.88 59.54 69.15 53.67 67.05 81.5 26.12 81.5"/></clipPath><clipPath id="clip-path-3" transform="translate(-0.03 -0.01)"><polyline class="cls-1" points="45.8 81.5 45.94 73.49 51.29 73.4 51.1 81.5"/></clipPath><clipPath id="clip-path-4" transform="translate(-0.03 -0.01)"><polygon class="cls-1" points="51.63 64.63 45.95 64.88 45.8 72.57 51.39 72.52 51.63 64.63"/></clipPath><clipPath id="clip-path-5" transform="translate(-0.03 -0.01)"><polygon class="cls-1" points="52.03 53.67 45.8 54.54 45.8 63.66 51.6 63.42 52.03 53.67"/></clipPath><clipPath id="clip-path-6" transform="translate(-0.03 -0.01)"><path class="cls-1" d="M88.11,76a.31.31,0,0,0-.31.31v.08l-.68,0v-.11a.31.31,0,1,0-.62,0v.08l-.68,0v-.11a.31.31,0,1,0-.62,0v.08l-.68,0v-.11a.31.31,0,1,0-.62,0v.08l-.68,0v-.11a.31.31,0,1,0-.62,0v.08l-.68,0V76a.31.31,0,1,0-.62,0v.08l-.68,0V76A.31.31,0,1,0,80,76V76l-.68,0v-.11a.31.31,0,0,0-.62,0V76l-.68,0v-.12a.31.31,0,0,0-.62,0v.09l-2.51-.12v-.42l-2.47-.07a5.22,5.22,0,0,0-1.09,1l3.56.1V75.9l2.51.12v.2a.31.31,0,0,0,.62,0v-.17l.68,0v.2a.31.31,0,0,0,.62,0v-.17l.68,0v.2a.31.31,0,1,0,.62,0v-.17l.68,0v.2a.31.31,0,1,0,.62,0v-.17l.68,0v.19a.31.31,0,1,0,.62,0v-.16l.68,0v.19a.31.31,0,0,0,.62,0v-.16l.68,0v.19a.31.31,0,1,0,.62,0v-.16l.68,0v.19a.31.31,0,0,0,.62,0V76.5l.68,0v.19a.31.31,0,1,0,.62,0v-.4A.31.31,0,0,0,88.11,76Z"/></clipPath></defs><title>aeroport</title><g id="mask0"><path class="cls-2" d="M45.68,88.11h21.2v7H45.68Z" transform="translate(-0.03 -0.01)"/></g><g id="Layer_63" data-name="Layer 63"><polygon class="cls-3" points="110.85 32 110.85 96 55.43 128 11.08 102.4 10.88 102.28 0 96 0 32 55.43 0 110.85 32"/></g><polygon class="cls-4" points="55.92 13.23 11.75 38.72 11.75 89.69 55.92 115.18 100.11 89.69 100.11 38.72 55.92 13.23"/><g id="Layer_2" data-name="Layer 2"><g id="Layer_16" data-name="Layer 16"><path class="cls-5" d="M96.84,34.67l-.53-.3-.72-.42-.77-.45-.11-.06-.49-.28-.51-.29-.9-.52-7.25-4.18-1.71-1-.72-.42-.45-.26-.49-.29-.05,0-.42-.25-.41-.24L76,22.64,56.48,11.4l-.53-.31-.47.27L38.37,21.24l-5,2.9-1.3.75-.53.31-.1,0h0l-.25.15-.42.25-.3.17-.27.16-.18.1-1.5.87h0L26.7,28h0l-.58.34-.76.43h0l0,0-3.25,1.87h0L19.67,32l-1,.58-3,1.72-4.23,2.44-1.54.89V90.77l.07,0,1.72,1,.75.43.15.08,4.32,2.5.69.39,4,2.32.46.26,1.3.75,3.38,1.95,5.38,3.1.69.4.07,0,.15.08.11.07.18.1,0,0,1.91,1.11.88.5,1.33.78.89.51.18.1.31.18.19.11.48.28,3.57,2.05.09.05.44.26.62.36L45,111h0l.53.3,1.51.87L50.21,114l4.48,2.58,1,.6.23.13h0l.19-.11.14-.08,0,0,.31-.18,1.81-1,.09-.05.69-.4.5-.29L60,115l3.85-2.22,2.45-1.41L67,111l.66-.38.67-.39.44-.26,2.33-1.34.39-.22h0l.23-.14.21-.12.63-.36.8-.46,1.26-.73.46-.27h0l.46-.27h0l.25-.14.53-.31.37-.21.35-.21.55-.31.21-.13.32-.18.43-.24h0l.05,0,.13-.08L79,104l3.78-2.18.38-.22L84.3,101l3-1.71,1.56-.9,8.53-4.92h0l.06,0,2.65-1.53.9-.52,1-.59V37.65Zm3.3,55-.52.3-.32.18-.58.34L91.13,94.9l-4.67,2.69-3.12,1.8-1.28.74-.72.41-2.93,1.69-.07.05-.16.09-.18.11-.57.32-.89.51-.22.13-.05,0-.81.47-.09.05-3.91,2.25-.08.05-.79.45-.08.05-.91.53-2.15,1.24-1.54.89-1.68,1-1.1.63-3,1.72-1.23.71-.06,0h0l-.75.44-.28.15-1.87,1.08-3.45-2-1.23-.71-.61-.35-1.81-1.05-.72-.41-.69-.4-5.26-3-.77-.45,0,0-1.79-1-2.06-1.18-.9-.52L36,103.7l-.25-.15-.43-.25-.21-.12-1.75-1-.31-.18-.19-.11-1.5-.87L28,99l-3.91-2.26-1.76-1-3.42-2L14,91l-.9-.51-.39-.23-.23-.13-.67-.39v-51l3.91-2.26,3-1.72.93-.54h0l.06,0,3.2-1.85h0l1.36-.79h0l1.79-1,1.25-.72.43-.25h0l.76-.44.46-.27h0l3-1.72h0l.78-.45.35-.2.2-.12.29-.17.17-.1L34,25.9l0,0,8-4.64,13.39-7.73.47-.27.53.31,16.83,9.71,7,4,.05,0,.32.18.11.06.44.26.35.2,1.23.71,1.94,1.12,7,4,1.41.81.55.32,0,0,.77.44.19.11.54.31.53.31,4.36,2.51v51Z" transform="translate(-0.03 -0.01)"/></g></g><path class="cls-6" d="M69.54,115.09l1.57-.9.07.12a3,3,0,0,1,.34.81,1.89,1.89,0,0,1,0,.76,2,2,0,0,1-1,1.37,2.13,2.13,0,0,1-1.69.21,2.28,2.28,0,0,1-.52-4.17,2.23,2.23,0,0,1,.93-.3,2.75,2.75,0,0,1,1.06.17l-.18.63a1.59,1.59,0,0,0-1.49,0,1.56,1.56,0,0,0-.77,1,1.6,1.6,0,0,0,.18,1.25,1.54,1.54,0,0,0,1.05.78,1.57,1.57,0,0,0,1.14-.15,1.32,1.32,0,0,0,.59-.72,1.18,1.18,0,0,0,0-.9l-.95.54Z" transform="translate(-0.03 -0.01)"/><rect class="cls-6" x="73.14" y="110.75" width="0.66" height="4.37" transform="translate(-46.6 51.74) rotate(-29.95)"/><polygon class="cls-6" points="76.2 109.52 78.08 112.78 77.5 113.1 75.63 109.85 74.76 110.36 74.45 109.82 76.76 108.49 77.07 109.03 76.2 109.52"/><path class="cls-6" d="M81.39,106.12l.39.68a1.83,1.83,0,0,0-1.26.17,1.51,1.51,0,0,0-.74,1,1.63,1.63,0,0,0,.19,1.25,1.59,1.59,0,0,0,1,.78,1.54,1.54,0,0,0,1.22-.16,1.41,1.41,0,0,0,.46-.39,1.67,1.67,0,0,0,.17-.27,3.41,3.41,0,0,0,.15-.36l.4.69a2.38,2.38,0,0,1-.87.87,2.2,2.2,0,0,1-1.71.23,2.17,2.17,0,0,1-1.37-1,2.25,2.25,0,0,1-.26-1.57,2.19,2.19,0,0,1,1.12-1.57,2.23,2.23,0,0,1,1.15-.29" transform="translate(-0.03 -0.01)"/><path class="cls-2" d="M84.16,106a2.14,2.14,0,0,1-.2-1.71A2.24,2.24,0,0,1,85,102.86a2.29,2.29,0,0,1,3.1.84,2.15,2.15,0,0,1,.21,1.72,2.31,2.31,0,0,1-2.7,1.64,2.14,2.14,0,0,1-1.49-1.1m.58-.33a1.62,1.62,0,0,0,3-.35,1.7,1.7,0,0,0-1.16-2,1.54,1.54,0,0,0-1.23.16,1.56,1.56,0,0,0-.76,1,1.58,1.58,0,0,0,.17,1.24" transform="translate(-0.03 -0.01)"/><rect class="cls-6" x="90.12" y="100.98" width="0.66" height="4.37" transform="translate(-39.46 58.96) rotate(-29.97)"/><polygon class="cls-6" points="94.02 103.6 91.69 99.56 96.11 100.86 94.6 98.22 95.17 97.89 97.48 101.92 93.06 100.62 94.59 103.27 94.02 103.6"/><path class="cls-2" d="M21.37,47.26H14.32s3.11-1.35,4.92-1.06S21.37,47.26,21.37,47.26Z" transform="translate(-0.03 -0.01)"/><path class="cls-2" d="M73.56,45.66H95.37s.82-3.9-5.7-.82c1.58-2.89-.8-2.19-5.35-.18C86,42.06,73.56,45.66,73.56,45.66Z" transform="translate(-0.03 -0.01)"/><path class="cls-2" d="M48.2,47H70s.82-3.9-5.7-.82C65.89,43.33,63.51,44,59,46,60.6,43.44,48.2,47,48.2,47Z" transform="translate(-0.03 -0.01)"/><path class="cls-2" d="M48.2,47H70s.82,3.9-5.7.82c1.58,2.89-.8,2.19-5.35.18C60.6,50.64,48.2,47,48.2,47Z" transform="translate(-0.03 -0.01)"/><path class="cls-2" d="M39.83,39.52H57.65s-7.57-.87-9.67-1.92-2.72,0-2,1C42.71,34.33,38.1,37.31,39.83,39.52Z" transform="translate(-0.03 -0.01)"/><path class="cls-2" d="M33.11,51.07h10S42.58,48.89,33.11,51.07Z" transform="translate(-0.03 -0.01)"/><path class="cls-2" d="M77.34,56.22h8.78S81.74,55,82.23,55.9c-1.81-.89-2,0-2,0S76.28,54.17,77.34,56.22Z" transform="translate(-0.03 -0.01)"/><rect class="cls-7" x="20.89" y="53.03" width="6.42" height="28.47"/><polygon class="cls-8" points="29.77 50.06 18.43 50.06 20.89 53.03 27.31 53.03 29.77 50.06"/><polygon class="cls-9" points="18.43 50.06 16.44 43.34 31.47 43.34 29.77 50.06 18.43 50.06"/><rect class="cls-7" x="17.33" y="42.27" width="13" height="1.07"/><polygon class="cls-7" points="23.33 39.56 23.85 32.34 24.49 39.56 23.33 39.56"/><polygon class="cls-10" points="15.84 42.27 32.06 42.27 30.33 39.56 17.33 39.56 15.84 42.27"/><g class="cls-11"><g class="cls-12"><polygon class="cls-2" points="38.45 67.06 33.3 67.06 7.48 30.26 12.64 30.26 38.45 67.06"/><polygon class="cls-2" points="40.44 67.06 39.97 67.06 14.15 30.26 14.62 30.26 40.44 67.06"/></g><g class="cls-12"><polygon class="cls-2" points="48.3 67.06 43.15 67.06 17.33 30.26 22.49 30.26 48.3 67.06"/><polygon class="cls-2" points="50.28 67.06 49.82 67.06 24 30.26 24.47 30.26 50.28 67.06"/></g><line class="cls-13" x1="18.91" y1="43.34" x2="20.04" y2="50.06"/><line class="cls-13" x1="22.44" y1="43.34" x2="22.95" y2="50.06"/><line class="cls-13" x1="25.85" y1="43.34" x2="25.25" y2="50.06"/><line class="cls-13" x1="29.01" y1="43.34" x2="27.68" y2="50.06"/><line class="cls-14" x1="18.99" y1="43.34" x2="20.12" y2="50.06"/><line class="cls-14" x1="22.52" y1="43.34" x2="23.04" y2="50.06"/><line class="cls-14" x1="25.93" y1="43.34" x2="25.34" y2="50.06"/><line class="cls-14" x1="29.09" y1="43.34" x2="27.76" y2="50.06"/></g><polygon class="cls-7" points="68.2 76.07 67.36 75.49 67.36 69.33 68.2 68.75 68.2 76.07"/><polygon class="cls-10" points="69.03 75.49 68.2 76.07 68.2 68.75 69.03 69.33 69.03 75.49"/><polygon class="cls-7" points="69.87 76.07 69.03 75.49 69.03 69.33 69.87 68.75 69.87 76.07"/><polygon class="cls-10" points="70.7 75.49 69.87 76.07 69.87 68.75 70.7 69.33 70.7 75.49"/><polygon class="cls-7" points="71.54 76.07 70.7 75.49 70.7 69.33 71.54 68.75 71.54 76.07"/><polygon class="cls-10" points="72.38 75.49 71.54 76.07 71.54 68.75 72.38 69.33 72.38 75.49"/><polygon class="cls-7" points="73.21 76.07 72.38 75.49 72.38 69.33 73.21 68.75 73.21 76.07"/><polygon class="cls-10" points="74.05 75.49 73.21 76.07 73.21 68.75 74.05 69.33 74.05 75.49"/><polygon class="cls-7" points="74.88 76.07 74.05 75.49 74.05 69.33 74.88 68.75 74.88 76.07"/><polygon class="cls-10" points="75.72 75.49 74.88 76.07 74.88 68.75 75.72 69.33 75.72 75.49"/><polygon class="cls-7" points="76.56 76.07 75.72 75.49 75.72 69.33 76.56 68.75 76.56 76.07"/><polygon class="cls-10" points="77.39 75.49 76.56 76.07 76.56 68.75 77.39 69.33 77.39 75.49"/><polygon class="cls-7" points="78.23 76.07 77.39 75.49 77.39 69.33 78.23 68.75 78.23 76.07"/><polygon class="cls-10" points="79.06 75.49 78.23 76.07 78.23 68.75 79.06 69.33 79.06 75.49"/><path class="cls-7" d="M78.6,81.5c-.15-.06.07-13.91.07-13.91h5.59l-.49,13.86Z" transform="translate(-0.03 -0.01)"/><polygon class="cls-9" points="26.09 81.49 23.85 59.53 69.12 53.66 67.02 81.49 26.09 81.49"/><g class="cls-15"><g class="cls-12"><polygon class="cls-2" points="41.67 85.13 37.91 85.13 12.1 48.33 15.86 48.33 41.67 85.13"/><polygon class="cls-2" points="66.19 85.13 62.43 85.13 36.61 48.33 40.37 48.33 66.19 85.13"/><polygon class="cls-2" points="56.15 85.13 50.99 85.13 25.18 48.33 30.33 48.33 56.15 85.13"/><polygon class="cls-2" points="75.52 85.13 70.37 85.13 44.55 48.33 49.71 48.33 75.52 85.13"/><polygon class="cls-2" points="46.95 85.13 45.07 85.13 19.25 48.33 21.13 48.33 46.95 85.13"/><polygon class="cls-2" points="82.4 85.13 80.52 85.13 54.7 48.33 56.58 48.33 82.4 85.13"/><polygon class="cls-2" points="34.83 85.13 32.95 85.13 7.13 48.33 9.01 48.33 34.83 85.13"/><polygon class="cls-2" points="58.13 85.13 57.19 85.13 31.38 48.33 32.32 48.33 58.13 85.13"/><polygon class="cls-2" points="31.38 85.13 30.44 85.13 4.62 48.33 5.56 48.33 31.38 85.13"/><polygon class="cls-2" points="77.5 85.13 77.03 85.13 51.22 48.33 51.69 48.33 77.5 85.13"/></g></g><polygon class="cls-16" points="24.09 61.89 68.63 60.19 68.98 55.53 23.95 60.45 24.09 61.89"/><line class="cls-13" x1="24.39" y1="65.61" x2="68.34" y2="63.06"/><line class="cls-13" x1="25.28" y1="74.37" x2="67.57" y2="73.17"/><line class="cls-13" x1="31.57" y1="60.93" x2="31.57" y2="81.56"/><line class="cls-13" x1="60.59" y1="59.18" x2="59.93" y2="73.39"/><line class="cls-13" x1="39.59" y1="60.59" x2="39.38" y2="81.56"/><line class="cls-13" x1="56.58" y1="73.48" x2="56.58" y2="81.5"/><line class="cls-13" x1="64.22" y1="73.3" x2="63.88" y2="81.56"/><line class="cls-14" x1="24.47" y1="65.53" x2="68.42" y2="62.99"/><line class="cls-14" x1="25.36" y1="74.29" x2="67.65" y2="73.1"/><line class="cls-14" x1="31.66" y1="60.86" x2="31.66" y2="81.49"/><line class="cls-14" x1="60.68" y1="59.11" x2="60.01" y2="73.31"/><line class="cls-14" x1="39.67" y1="60.52" x2="39.46" y2="81.49"/><line class="cls-14" x1="56.66" y1="73.41" x2="56.66" y2="81.43"/><line class="cls-14" x1="64.3" y1="73.23" x2="63.96" y2="81.49"/><polygon class="cls-10" points="23.85 69.28 68.76 67.98 68.76 68.63 24.14 70.26 23.85 69.28"/><polygon class="cls-10" points="22.62 58.88 70.35 52.16 69.55 58.45 23.35 61.56 22.62 58.88"/><path class="cls-7" d="M56.1,57.77l.29-2,.41,0,.31,2-.29,0,0-.35-.33,0,0,.36Zm.64-.67-.14-1h0l-.13,1Z" transform="translate(-0.03 -0.01)"/><path class="cls-7" d="M57.91,57.58v-2l.31,0v2Z" transform="translate(-0.03 -0.01)"/><path class="cls-7" d="M59.51,56.47h-.1v.94l-.31,0v-2l.51-.06a.35.35,0,0,1,.24,0,.26.26,0,0,1,.1.16,1.37,1.37,0,0,1,0,.29.79.79,0,0,1,0,.28.25.25,0,0,1-.15.14.16.16,0,0,1,.15.12,1.85,1.85,0,0,1,0,.5,3.15,3.15,0,0,0,0,.41l-.31,0s0-.25,0-.71a.3.3,0,0,0,0-.17S59.58,56.47,59.51,56.47Zm-.1-.23h.12a.14.14,0,0,0,.09,0,.17.17,0,0,0,0-.09,1.27,1.27,0,0,0,0-.19h0a.49.49,0,0,0,0-.21s-.06,0-.13,0h-.11Z" transform="translate(-0.03 -0.01)"/><path class="cls-7" d="M60.84,57.26v-2l.47-.05a.32.32,0,0,1,.32.11.78.78,0,0,1,.09.41v0a1,1,0,0,1-.09.46.38.38,0,0,1-.32.19l-.17,0v.78Zm.31-1.07h.11a.14.14,0,0,0,.13-.09.92.92,0,0,0,0-.29v0a.72.72,0,0,0,0-.25.11.11,0,0,0-.12-.06h-.11Z" transform="translate(-0.03 -0.01)"/><path class="cls-7" d="M63.27,56.88a.45.45,0,0,1-.34.18.37.37,0,0,1-.34-.11.66.66,0,0,1-.11-.42v-.91q0-.55.46-.6a.36.36,0,0,1,.34.1.62.62,0,0,1,.1.4v.91A.79.79,0,0,1,63.27,56.88Zm-.45-.14a.1.1,0,0,0,.11.06.12.12,0,0,0,.11-.08.8.8,0,0,0,0-.25v-.93a.55.55,0,0,0,0-.2.09.09,0,0,0-.11-.05.13.13,0,0,0-.11.08.52.52,0,0,0,0,.21v.93A.72.72,0,0,0,62.82,56.74Z" transform="translate(-0.03 -0.01)"/><path class="cls-7" d="M64.64,55.92h-.1v.94l-.31,0v-2l.51-.06a.35.35,0,0,1,.24,0,.26.26,0,0,1,.1.16,1.37,1.37,0,0,1,0,.29.79.79,0,0,1,0,.28.25.25,0,0,1-.15.14.16.16,0,0,1,.15.12,1.85,1.85,0,0,1,0,.5,3.16,3.16,0,0,0,0,.41l-.31,0s0-.25,0-.71a.3.3,0,0,0,0-.17S64.7,55.92,64.64,55.92Zm-.1-.23h.12a.14.14,0,0,0,.09,0,.17.17,0,0,0,0-.09,1.26,1.26,0,0,0,0-.19h0a.49.49,0,0,0,0-.21s-.06,0-.13,0h-.11Z" transform="translate(-0.03 -0.01)"/><path class="cls-7" d="M66.07,56.7V55l-.24,0v-.26l.78-.08v.26l-.23,0v1.73Z" transform="translate(-0.03 -0.01)"/><path class="cls-2" d="M56,57.63l.29-2,.41,0,.31,2-.29,0,0-.35-.33,0,0,.36ZM56.6,57l-.14-1h0l-.13,1Z" transform="translate(-0.03 -0.01)"/><path class="cls-2" d="M57.77,57.44v-2l.31,0v2Z" transform="translate(-0.03 -0.01)"/><path class="cls-2" d="M59.37,56.33h-.1v.94l-.31,0v-2l.51-.06a.35.35,0,0,1,.24,0,.26.26,0,0,1,.1.16,1.37,1.37,0,0,1,0,.29.79.79,0,0,1,0,.28.25.25,0,0,1-.15.14.16.16,0,0,1,.15.12,1.85,1.85,0,0,1,0,.5,3.15,3.15,0,0,0,0,.41l-.31,0s0-.25,0-.71a.3.3,0,0,0,0-.17S59.44,56.33,59.37,56.33Zm-.1-.23h.12a.14.14,0,0,0,.09,0,.17.17,0,0,0,0-.09,1.27,1.27,0,0,0,0-.19h0a.49.49,0,0,0,0-.21s-.06,0-.13,0h-.11Z" transform="translate(-0.03 -0.01)"/><path class="cls-2" d="M60.7,57.12v-2l.47-.05a.32.32,0,0,1,.32.11.78.78,0,0,1,.09.41v0a1,1,0,0,1-.09.46.38.38,0,0,1-.32.19l-.17,0v.78ZM61,56.06h.11a.14.14,0,0,0,.13-.09.92.92,0,0,0,0-.29v0a.72.72,0,0,0,0-.25.11.11,0,0,0-.12-.06H61Z" transform="translate(-0.03 -0.01)"/><path class="cls-2" d="M63.13,56.74a.45.45,0,0,1-.34.18.37.37,0,0,1-.34-.11.66.66,0,0,1-.11-.42v-.91q0-.55.46-.6a.36.36,0,0,1,.34.1.62.62,0,0,1,.1.4v.91A.79.79,0,0,1,63.13,56.74Zm-.45-.14a.1.1,0,0,0,.11.06.12.12,0,0,0,.11-.08.8.8,0,0,0,0-.25v-.93a.55.55,0,0,0,0-.2.09.09,0,0,0-.11-.05.13.13,0,0,0-.11.08.52.52,0,0,0,0,.21v.93A.72.72,0,0,0,62.68,56.6Z" transform="translate(-0.03 -0.01)"/><path class="cls-2" d="M64.5,55.78h-.1v.94l-.31,0v-2l.51-.06a.35.35,0,0,1,.24,0,.26.26,0,0,1,.1.16,1.37,1.37,0,0,1,0,.29.79.79,0,0,1,0,.28.25.25,0,0,1-.15.14.16.16,0,0,1,.15.12,1.85,1.85,0,0,1,0,.5,3.16,3.16,0,0,0,0,.41l-.31,0s0-.25,0-.71a.3.3,0,0,0,0-.17S64.56,55.78,64.5,55.78Zm-.1-.23h.12a.14.14,0,0,0,.09,0,.17.17,0,0,0,0-.09,1.27,1.27,0,0,0,0-.19h0a.49.49,0,0,0,0-.21s-.06,0-.13,0H64.4Z" transform="translate(-0.03 -0.01)"/><path class="cls-2" d="M65.93,56.56V54.84l-.24,0V54.6l.78-.08v.26l-.23,0v1.73Z" transform="translate(-0.03 -0.01)"/><polyline class="cls-7" points="44.82 81.49 44.82 53.09 53.21 51.98 52.13 81.49"/><polygon class="cls-9" points="52 53.66 45.77 54.53 45.77 63.65 51.57 63.41 52 53.66"/><polygon class="cls-9" points="51.61 64.62 45.92 64.87 45.77 72.56 51.36 72.51 51.61 64.62"/><polyline class="cls-9" points="45.78 81.49 45.91 73.48 51.27 73.39 51.08 81.49"/><g class="cls-17"><g class="cls-12"><polygon class="cls-2" points="64.91 80.14 59.75 80.14 33.94 43.34 39.09 43.34 64.91 80.14"/><polygon class="cls-2" points="64.91 92.54 59.75 92.54 33.94 55.74 39.09 55.74 64.91 92.54"/><polygon class="cls-2" points="66.89 80.14 65.95 80.14 40.13 43.34 41.08 43.34 66.89 80.14"/><polygon class="cls-2" points="62.4 98.2 61.46 98.2 35.64 61.41 36.58 61.41 62.4 98.2"/></g></g><g class="cls-18"><g class="cls-12"><polygon class="cls-2" points="64.91 80.14 59.75 80.14 33.94 43.34 39.09 43.34 64.91 80.14"/><polygon class="cls-2" points="64.91 92.54 59.75 92.54 33.94 55.74 39.09 55.74 64.91 92.54"/><polygon class="cls-2" points="66.89 80.14 65.95 80.14 40.13 43.34 41.08 43.34 66.89 80.14"/><polygon class="cls-2" points="62.4 98.2 61.46 98.2 35.64 61.41 36.58 61.41 62.4 98.2"/></g></g><g class="cls-19"><g class="cls-12"><polygon class="cls-2" points="64.91 80.14 59.75 80.14 33.94 43.34 39.09 43.34 64.91 80.14"/><polygon class="cls-2" points="64.91 92.54 59.75 92.54 33.94 55.74 39.09 55.74 64.91 92.54"/><polygon class="cls-2" points="66.89 80.14 65.95 80.14 40.13 43.34 41.08 43.34 66.89 80.14"/><polygon class="cls-2" points="62.4 98.2 61.46 98.2 35.64 61.41 36.58 61.41 62.4 98.2"/></g></g><path class="cls-16" d="M45.8,63.67H46c.07-1.86.11-8.88.11-8.88L52,54.1l0-.43-6.23.87Z" transform="translate(-0.03 -0.01)"/><path class="cls-16" d="M45.8,72.57h.54c0-1.75.05-7.15.05-7.15l5.23-.22,0-.57L46,64.88Z" transform="translate(-0.03 -0.01)"/><polygon class="cls-16" points="45.78 81.49 46.01 81.49 46.36 74.02 51.25 74.02 51.27 73.39 45.91 73.48 45.78 81.49"/><rect class="cls-20" x="11.75" y="81.61" width="88.31" height="8.17"/><ellipse class="cls-9" cx="82.11" cy="82.08" rx="13.13" ry="0.42"/><polygon class="cls-2" points="73.36 81.1 74.28 81.36 74.47 81.15 73.63 80.95 73.36 81.1"/><polygon class="cls-21" points="74.12 79.66 73.36 81.1 73.63 81.1 74.65 79.54 74.12 79.66"/><polygon class="cls-22" points="73.5 79.22 73.63 79.7 74.77 79.7 75.18 79.31 73.5 79.22"/><polygon class="cls-2" points="85.42 79.22 85.15 80.32 84.24 81.1 84.42 81.24 85.19 80.66 85.84 81.25 86.14 81.16 85.49 80.44 85.74 79.18 85.42 79.22"/><path class="cls-2" d="M94.61,75.67c-.11,0-18.37-1-20.29-1a4.38,4.38,0,0,0-3.17,1.84s-1.5.64-1.18,1.64,4.35,1.35,10.66,1.35,11.52-.57,14-3.1C95.22,76,94.61,75.67,94.61,75.67Z" transform="translate(-0.03 -0.01)"/><polygon class="cls-23" points="91.34 75.73 95.8 71.59 97.15 71.59 94.48 75.87 91.34 75.73"/><path class="cls-24" d="M81.19,80s1.77-.07,2.12-.52-1-.8-2.12-1" transform="translate(-0.03 -0.01)"/><ellipse class="cls-22" cx="81.16" cy="79.21" rx="0.37" ry="0.75"/><ellipse class="cls-25" cx="81.16" cy="79.21" rx="0.24" ry="0.49"/><path class="cls-26" d="M81.19,79.32l.21.11a.93.93,0,0,0,0-.42l-.21.1Z" transform="translate(-0.03 -0.01)"/><ellipse class="cls-24" cx="81.16" cy="79.21" rx="0.05" ry="0.11"/><circle class="cls-21" cx="84.13" cy="81.25" r="0.8"/><circle class="cls-2" cx="84.13" cy="81.25" r="0.41"/><circle class="cls-21" cx="84.13" cy="81.25" r="0.11"/><circle class="cls-21" cx="85.95" cy="81.25" r="0.8"/><circle class="cls-2" cx="85.95" cy="81.25" r="0.41"/><circle class="cls-21" cx="85.95" cy="81.25" r="0.11"/><path class="cls-24" d="M82.71,80.66s2-.08,2.44-.6-1.13-.92-2.44-1.13" transform="translate(-0.03 -0.01)"/><ellipse class="cls-22" cx="82.68" cy="79.78" rx="0.42" ry="0.87"/><ellipse class="cls-25" cx="82.68" cy="79.78" rx="0.27" ry="0.56"/><path class="cls-26" d="M82.71,79.91,83,80a1.08,1.08,0,0,0,0-.48l-.25.12Z" transform="translate(-0.03 -0.01)"/><ellipse class="cls-24" cx="82.68" cy="79.78" rx="0.06" ry="0.12"/><polygon class="cls-27" points="79.06 77.75 84 77.94 86.75 79.9 85.36 79.9 79.06 77.75"/><polygon class="cls-27" points="79.06 77.74 84 77.93 86.75 79.89 85.36 79.89 79.06 77.74"/><polygon class="cls-27" points="79.06 77.73 84 77.92 86.75 79.88 85.36 79.88 79.06 77.73"/><polygon class="cls-27" points="79.06 77.72 84 77.91 86.75 79.87 85.36 79.87 79.06 77.72"/><polygon class="cls-27" points="79.06 77.71 84 77.9 86.75 79.86 85.36 79.86 79.06 77.71"/><polygon class="cls-27" points="79.06 77.7 84 77.89 86.75 79.84 85.36 79.84 79.06 77.7"/><polygon class="cls-27" points="79.06 77.69 84 77.87 86.75 79.83 85.36 79.83 79.06 77.69"/><polygon class="cls-27" points="79.06 77.67 84 77.86 86.75 79.82 85.36 79.82 79.06 77.67"/><polygon class="cls-27" points="79.06 77.66 84 77.85 86.75 79.81 85.36 79.81 79.06 77.66"/><polygon class="cls-27" points="79.06 77.65 84 77.84 86.75 79.8 85.36 79.8 79.06 77.65"/><polygon class="cls-27" points="79.06 77.64 84 77.83 86.75 79.79 85.36 79.79 79.06 77.64"/><polygon class="cls-27" points="79.06 77.63 84 77.82 86.75 79.78 85.36 79.78 79.06 77.63"/><polygon class="cls-23" points="79.06 77.63 84 77.82 86.75 79.78 85.36 79.78 79.06 77.63"/><path class="cls-28" d="M71.38,76.29l3.56.1v-1l-2.47-.07A5.22,5.22,0,0,0,71.38,76.29Z" transform="translate(-0.03 -0.01)"/><rect class="cls-28" x="77.41" y="75.53" width="0.62" height="1.01" rx="0.31" ry="0.31"/><path class="cls-28" d="M79,76.62h0a.31.31,0,0,1-.31-.31v-.4a.31.31,0,0,1,.31-.31h0a.31.31,0,0,1,.31.31v.4A.31.31,0,0,1,79,76.62Z" transform="translate(-0.03 -0.01)"/><path class="cls-28" d="M80.34,76.68h0a.31.31,0,0,1-.31-.31V76a.31.31,0,0,1,.31-.31h0a.31.31,0,0,1,.31.31v.4A.31.31,0,0,1,80.34,76.68Z" transform="translate(-0.03 -0.01)"/><path class="cls-28" d="M81.64,76.75h0a.31.31,0,0,1-.31-.31V76a.31.31,0,0,1,.31-.31h0A.31.31,0,0,1,82,76v.4A.31.31,0,0,1,81.64,76.75Z" transform="translate(-0.03 -0.01)"/><path class="cls-28" d="M82.94,76.81h0a.31.31,0,0,1-.31-.31v-.4a.31.31,0,0,1,.31-.31h0a.31.31,0,0,1,.31.31v.4A.31.31,0,0,1,82.94,76.81Z" transform="translate(-0.03 -0.01)"/><path class="cls-28" d="M84.24,76.87h0a.31.31,0,0,1-.31-.31v-.4a.31.31,0,0,1,.31-.31h0a.31.31,0,0,1,.31.31v.4A.31.31,0,0,1,84.24,76.87Z" transform="translate(-0.03 -0.01)"/><path class="cls-28" d="M85.54,76.94h0a.31.31,0,0,1-.31-.31v-.4a.31.31,0,0,1,.31-.31h0a.31.31,0,0,1,.31.31v.4A.31.31,0,0,1,85.54,76.94Z" transform="translate(-0.03 -0.01)"/><path class="cls-28" d="M86.84,77h0a.31.31,0,0,1-.31-.31v-.4a.31.31,0,0,1,.31-.31h0a.31.31,0,0,1,.31.31v.4A.31.31,0,0,1,86.84,77Z" transform="translate(-0.03 -0.01)"/><rect class="cls-28" x="87.8" y="76.04" width="0.62" height="1.01" rx="0.31" ry="0.31"/><path class="cls-9" d="M71.36,76.27l3.56.1v-1l-2.47-.07A5.22,5.22,0,0,0,71.36,76.27Z" transform="translate(-0.03 -0.01)"/><path class="cls-9" d="M77.73,76.53h0a.31.31,0,0,1-.31-.31v-.4a.31.31,0,0,1,.31-.31h0a.31.31,0,0,1,.31.31v.4A.31.31,0,0,1,77.73,76.53Z" transform="translate(-0.03 -0.01)"/><path class="cls-9" d="M79,76.6h0a.31.31,0,0,1-.31-.31v-.4a.31.31,0,0,1,.31-.31h0a.31.31,0,0,1,.31.31v.4A.31.31,0,0,1,79,76.6Z" transform="translate(-0.03 -0.01)"/><path class="cls-9" d="M80.32,76.66h0a.31.31,0,0,1-.31-.31V76a.31.31,0,0,1,.31-.31h0a.31.31,0,0,1,.31.31v.4A.31.31,0,0,1,80.32,76.66Z" transform="translate(-0.03 -0.01)"/><path class="cls-9" d="M81.62,76.72h0a.31.31,0,0,1-.31-.31V76a.31.31,0,0,1,.31-.31h0a.31.31,0,0,1,.31.31v.4A.31.31,0,0,1,81.62,76.72Z" transform="translate(-0.03 -0.01)"/><path class="cls-9" d="M82.92,76.79h0a.31.31,0,0,1-.31-.31v-.4a.31.31,0,0,1,.31-.31h0a.31.31,0,0,1,.31.31v.4A.31.31,0,0,1,82.92,76.79Z" transform="translate(-0.03 -0.01)"/><path class="cls-9" d="M84.22,76.85h0a.31.31,0,0,1-.31-.31v-.4a.31.31,0,0,1,.31-.31h0a.31.31,0,0,1,.31.31v.4A.31.31,0,0,1,84.22,76.85Z" transform="translate(-0.03 -0.01)"/><path class="cls-9" d="M85.52,76.91h0a.31.31,0,0,1-.31-.31v-.4a.31.31,0,0,1,.31-.31h0a.31.31,0,0,1,.31.31v.4A.31.31,0,0,1,85.52,76.91Z" transform="translate(-0.03 -0.01)"/><path class="cls-9" d="M86.81,77h0a.31.31,0,0,1-.31-.31v-.4a.31.31,0,0,1,.31-.31h0a.31.31,0,0,1,.31.31v.4A.31.31,0,0,1,86.81,77Z" transform="translate(-0.03 -0.01)"/><path class="cls-9" d="M88.11,77h0a.31.31,0,0,1-.31-.31v-.4a.31.31,0,0,1,.31-.31h0a.31.31,0,0,1,.31.31v.4A.31.31,0,0,1,88.11,77Z" transform="translate(-0.03 -0.01)"/><polyline class="cls-2" points="73.88 75.11 73.04 76.52 73.15 76.52 73.97 75.11"/><g class="cls-29"><g class="cls-12"><polygon class="cls-2" points="78.45 81.65 77.22 81.65 68.74 69.57 69.97 69.57 78.45 81.65"/><polygon class="cls-2" points="86.5 81.65 85.27 81.65 76.79 69.57 78.02 69.57 86.5 81.65"/><polygon class="cls-2" points="83.2 81.65 81.51 81.65 73.03 69.57 74.73 69.57 83.2 81.65"/><polygon class="cls-2" points="89.57 81.65 87.87 81.65 79.4 69.57 81.09 69.57 89.57 81.65"/><polygon class="cls-2" points="80.18 81.65 79.56 81.65 71.09 69.57 71.7 69.57 80.18 81.65"/><polygon class="cls-2" points="91.82 81.65 91.21 81.65 82.73 69.57 83.35 69.57 91.82 81.65"/><polygon class="cls-2" points="76.2 81.65 75.58 81.65 67.11 69.57 67.72 69.57 76.2 81.65"/><polygon class="cls-2" points="83.86 81.65 83.55 81.65 75.07 69.57 75.38 69.57 83.86 81.65"/><polygon class="cls-2" points="75.07 81.65 74.76 81.65 66.28 69.57 66.59 69.57 75.07 81.65"/><polygon class="cls-2" points="90.22 81.65 90.06 81.65 81.58 69.57 81.74 69.57 90.22 81.65"/></g></g><path class="cls-26" d="M94.51,76.51c-1.07.11-2.6.29-4.22.56a4.08,4.08,0,0,0-3,2.13C90.45,78.81,93,78,94.51,76.51Z" transform="translate(-0.03 -0.01)"/><polygon class="cls-26" points="88.09 77.63 87.78 78.23 85.49 78.16 88.09 77.63"/><circle class="cls-21" cx="74.58" cy="81.24" r="0.8"/><circle class="cls-2" cx="74.58" cy="81.24" r="0.41"/><circle class="cls-21" cx="74.58" cy="81.24" r="0.11"/><polygon class="cls-24" points="66.19 78.63 26.99 78.63 26.91 76.8 66.11 76.8 66.19 78.63"/><path class="cls-2" d="M28.59,78.39a.24.24,0,0,1-.21.09.24.24,0,0,1-.21-.09.45.45,0,0,1-.07-.27v-.55q0-.28.15-.35a.31.31,0,0,1,.13,0q.27,0,.27.34v.17h-.19v-.16a.42.42,0,0,0,0-.14.06.06,0,0,0-.06,0,.07.07,0,0,0-.07,0,.37.37,0,0,0,0,.14v.59a.42.42,0,0,0,0,.15.07.07,0,0,0,.13,0,.43.43,0,0,0,0-.15v-.18h.19v.18A.46.46,0,0,1,28.59,78.39Z" transform="translate(-0.03 -0.01)"/><path class="cls-2" d="M28.87,78.47V77.2h.19v1.1h.24v.16Z" transform="translate(-0.03 -0.01)"/><path class="cls-2" d="M30,78.39a.24.24,0,0,1-.21.09.25.25,0,0,1-.21-.09.46.46,0,0,1-.07-.28v-.58q0-.35.28-.35a.24.24,0,0,1,.21.09.44.44,0,0,1,.06.26v.58A.47.47,0,0,1,30,78.39Zm-.28-.12a.07.07,0,0,0,.07,0,.07.07,0,0,0,.07,0,.5.5,0,0,0,0-.15v-.59a.37.37,0,0,0,0-.13.06.06,0,0,0-.07,0,.07.07,0,0,0-.07,0,.32.32,0,0,0,0,.13v.59A.49.49,0,0,0,29.67,78.27Z" transform="translate(-0.03 -0.01)"/><path class="cls-2" d="M30.23,78.11V78h.18v.13a.43.43,0,0,0,0,.15.07.07,0,0,0,.07,0,.07.07,0,0,0,.07,0,.3.3,0,0,0,0-.12.32.32,0,0,0,0-.14.49.49,0,0,0-.09-.12l-.09-.1a.58.58,0,0,1-.1-.14.38.38,0,0,1,0-.17.37.37,0,0,1,.06-.23.25.25,0,0,1,.21-.08.21.21,0,0,1,.2.09.52.52,0,0,1,.05.26v.08h-.18v-.09a.39.39,0,0,0,0-.13.06.06,0,0,0-.06,0,.07.07,0,0,0-.06,0,.17.17,0,0,0,0,.09.2.2,0,0,0,0,.1l.07.09.1.11a.66.66,0,0,1,.12.17.45.45,0,0,1,0,.19.46.46,0,0,1-.06.26.24.24,0,0,1-.21.09.23.23,0,0,1-.21-.09A.53.53,0,0,1,30.23,78.11Z" transform="translate(-0.03 -0.01)"/><path class="cls-2" d="M31,78.47V77.2h.42v.17h-.23v.37h.22v.16h-.22v.4h.24v.17Z" transform="translate(-0.03 -0.01)"/><path class="cls-2" d="M31.61,78.47V77.2h.28a.24.24,0,0,1,.2.08.4.4,0,0,1,.06.24v.57a.49.49,0,0,1-.06.28.24.24,0,0,1-.21.09Zm.19-.15h.06a.09.09,0,0,0,.08,0,.24.24,0,0,0,0-.13v-.63a.3.3,0,0,0,0-.14.09.09,0,0,0-.08,0H31.8Z" transform="translate(-0.03 -0.01)"/><path class="cls-2" d="M34.09,78.3a.24.24,0,0,1-.21.09.24.24,0,0,1-.21-.09.45.45,0,0,1-.07-.27v-.55q0-.28.15-.35a.31.31,0,0,1,.13,0q.27,0,.27.34v.17H34v-.16a.42.42,0,0,0,0-.14.06.06,0,0,0-.06,0,.07.07,0,0,0-.07,0,.37.37,0,0,0,0,.14V78a.42.42,0,0,0,0,.15.07.07,0,0,0,.13,0A.43.43,0,0,0,34,78v-.18h.19V78A.46.46,0,0,1,34.09,78.3Z" transform="translate(-0.03 -0.01)"/><path class="cls-2" d="M34.37,78.37V77.11h.19v1.1h.24v.16Z" transform="translate(-0.03 -0.01)"/><path class="cls-2" d="M35.45,78.3a.24.24,0,0,1-.21.09A.25.25,0,0,1,35,78.3.46.46,0,0,1,35,78v-.58q0-.35.28-.35a.24.24,0,0,1,.21.09.44.44,0,0,1,.06.26V78A.47.47,0,0,1,35.45,78.3Zm-.28-.12a.07.07,0,0,0,.07,0,.07.07,0,0,0,.07,0,.5.5,0,0,0,0-.15v-.59a.37.37,0,0,0,0-.13.06.06,0,0,0-.07,0,.07.07,0,0,0-.07,0,.32.32,0,0,0,0,.13V78A.49.49,0,0,0,35.17,78.18Z" transform="translate(-0.03 -0.01)"/><path class="cls-2" d="M35.73,78V77.9h.18V78a.43.43,0,0,0,0,.15.07.07,0,0,0,.07,0,.07.07,0,0,0,.07,0,.3.3,0,0,0,0-.12.32.32,0,0,0,0-.14.49.49,0,0,0-.09-.12l-.09-.1a.58.58,0,0,1-.1-.14.38.38,0,0,1,0-.17.37.37,0,0,1,.06-.23.25.25,0,0,1,.21-.08.21.21,0,0,1,.2.09.52.52,0,0,1,.05.26v.08h-.18v-.09a.39.39,0,0,0,0-.13.06.06,0,0,0-.06,0,.07.07,0,0,0-.06,0,.17.17,0,0,0,0,.09.2.2,0,0,0,0,.1l.07.09.1.11a.66.66,0,0,1,.12.17.45.45,0,0,1,0,.19.46.46,0,0,1-.06.26.24.24,0,0,1-.21.08.23.23,0,0,1-.21-.09A.53.53,0,0,1,35.73,78Z" transform="translate(-0.03 -0.01)"/><path class="cls-2" d="M36.46,78.37V77.11h.42v.17h-.23v.37h.22v.16h-.22v.4h.24v.17Z" transform="translate(-0.03 -0.01)"/><path class="cls-2" d="M37.11,78.37V77.11h.28a.24.24,0,0,1,.2.08.4.4,0,0,1,.06.24V78a.49.49,0,0,1-.06.28.24.24,0,0,1-.21.09Zm.19-.15h.06a.09.09,0,0,0,.08,0,.24.24,0,0,0,0-.13v-.63a.3.3,0,0,0,0-.14.09.09,0,0,0-.08,0H37.3Z" transform="translate(-0.03 -0.01)"/><path class="cls-2" d="M39.59,78.3a.24.24,0,0,1-.21.09.24.24,0,0,1-.21-.09.45.45,0,0,1-.07-.27v-.55q0-.28.15-.35a.31.31,0,0,1,.13,0q.27,0,.27.34v.17h-.19v-.16a.42.42,0,0,0,0-.14.06.06,0,0,0-.06,0,.07.07,0,0,0-.07,0,.37.37,0,0,0,0,.14V78a.42.42,0,0,0,0,.15.07.07,0,0,0,.13,0,.43.43,0,0,0,0-.15v-.18h.19V78A.46.46,0,0,1,39.59,78.3Z" transform="translate(-0.03 -0.01)"/><path class="cls-2" d="M39.88,78.37V77.11h.19v1.1h.24v.16Z" transform="translate(-0.03 -0.01)"/><path class="cls-2" d="M41,78.3a.24.24,0,0,1-.21.09.25.25,0,0,1-.21-.09.46.46,0,0,1-.07-.28v-.58q0-.35.28-.35a.24.24,0,0,1,.21.09.44.44,0,0,1,.06.26V78A.47.47,0,0,1,41,78.3Zm-.28-.12a.07.07,0,0,0,.07,0,.07.07,0,0,0,.07,0,.5.5,0,0,0,0-.15v-.59a.37.37,0,0,0,0-.13.06.06,0,0,0-.07,0,.07.07,0,0,0-.07,0,.32.32,0,0,0,0,.13V78A.49.49,0,0,0,40.67,78.18Z" transform="translate(-0.03 -0.01)"/><path class="cls-2" d="M41.23,78V77.9h.18V78a.43.43,0,0,0,0,.15.07.07,0,0,0,.07,0,.07.07,0,0,0,.07,0,.3.3,0,0,0,0-.12.32.32,0,0,0,0-.14.49.49,0,0,0-.09-.12l-.09-.1a.58.58,0,0,1-.1-.14.38.38,0,0,1,0-.17.37.37,0,0,1,.06-.23.25.25,0,0,1,.21-.08.21.21,0,0,1,.2.09.52.52,0,0,1,.05.26v.08h-.18v-.09a.39.39,0,0,0,0-.13.06.06,0,0,0-.06,0,.07.07,0,0,0-.06,0,.17.17,0,0,0,0,.09.2.2,0,0,0,0,.1l.07.09.1.11a.66.66,0,0,1,.12.17.45.45,0,0,1,0,.19.46.46,0,0,1-.06.26.24.24,0,0,1-.21.08.23.23,0,0,1-.21-.09A.53.53,0,0,1,41.23,78Z" transform="translate(-0.03 -0.01)"/><path class="cls-2" d="M42,78.37V77.11h.42v.17h-.23v.37h.22v.16h-.22v.4h.24v.17Z" transform="translate(-0.03 -0.01)"/><path class="cls-2" d="M42.61,78.37V77.11h.28a.24.24,0,0,1,.2.08.4.4,0,0,1,.06.24V78a.49.49,0,0,1-.06.28.24.24,0,0,1-.21.09Zm.19-.15h.06a.09.09,0,0,0,.08,0,.24.24,0,0,0,0-.13v-.63a.3.3,0,0,0,0-.14.09.09,0,0,0-.08,0h-.06Z" transform="translate(-0.03 -0.01)"/><path class="cls-2" d="M45.1,78.3a.24.24,0,0,1-.21.09.24.24,0,0,1-.21-.09.45.45,0,0,1-.07-.27v-.55q0-.28.15-.35a.31.31,0,0,1,.13,0q.27,0,.27.34v.17H45v-.16a.42.42,0,0,0,0-.14.06.06,0,0,0-.06,0,.07.07,0,0,0-.07,0,.38.38,0,0,0,0,.14V78a.42.42,0,0,0,0,.15.07.07,0,0,0,.13,0A.43.43,0,0,0,45,78v-.18h.19V78A.46.46,0,0,1,45.1,78.3Z" transform="translate(-0.03 -0.01)"/><path class="cls-2" d="M45.38,78.37V77.11h.19v1.1h.24v.16Z" transform="translate(-0.03 -0.01)"/><path class="cls-2" d="M46.46,78.3a.24.24,0,0,1-.21.09A.25.25,0,0,1,46,78.3.46.46,0,0,1,46,78v-.58q0-.35.28-.35a.24.24,0,0,1,.21.09.44.44,0,0,1,.06.26V78A.47.47,0,0,1,46.46,78.3Zm-.28-.12a.07.07,0,0,0,.07,0,.07.07,0,0,0,.07,0,.5.5,0,0,0,0-.15v-.59a.37.37,0,0,0,0-.13.06.06,0,0,0-.07,0,.07.07,0,0,0-.07,0,.32.32,0,0,0,0,.13V78A.49.49,0,0,0,46.17,78.18Z" transform="translate(-0.03 -0.01)"/><path class="cls-2" d="M46.73,78V77.9h.18V78a.43.43,0,0,0,0,.15.07.07,0,0,0,.07,0,.07.07,0,0,0,.07,0,.3.3,0,0,0,0-.12.32.32,0,0,0,0-.14.49.49,0,0,0-.09-.12l-.09-.1a.58.58,0,0,1-.1-.14.38.38,0,0,1,0-.17.37.37,0,0,1,.06-.23.25.25,0,0,1,.21-.08.21.21,0,0,1,.2.09.52.52,0,0,1,.05.26v.08h-.18v-.09a.39.39,0,0,0,0-.13.06.06,0,0,0-.06,0,.07.07,0,0,0-.06,0,.17.17,0,0,0,0,.09.2.2,0,0,0,0,.1l.07.09.1.11a.66.66,0,0,1,.12.17.45.45,0,0,1,0,.19.46.46,0,0,1-.06.26.24.24,0,0,1-.21.08.23.23,0,0,1-.21-.09A.53.53,0,0,1,46.73,78Z" transform="translate(-0.03 -0.01)"/><path class="cls-2" d="M47.47,78.37V77.11h.42v.17h-.23v.37h.22v.16h-.22v.4h.24v.17Z" transform="translate(-0.03 -0.01)"/><path class="cls-2" d="M48.11,78.37V77.11h.28a.24.24,0,0,1,.2.08.4.4,0,0,1,.06.24V78a.49.49,0,0,1-.06.28.24.24,0,0,1-.21.09Zm.19-.15h.06a.09.09,0,0,0,.08,0,.24.24,0,0,0,0-.13v-.63a.3.3,0,0,0,0-.14.09.09,0,0,0-.08,0h-.06Z" transform="translate(-0.03 -0.01)"/><path class="cls-2" d="M50.6,78.3a.24.24,0,0,1-.21.09.24.24,0,0,1-.21-.09.45.45,0,0,1-.07-.27v-.55q0-.28.15-.35a.31.31,0,0,1,.13,0q.27,0,.27.34v.17h-.19v-.16a.42.42,0,0,0,0-.14.06.06,0,0,0-.06,0,.07.07,0,0,0-.07,0,.38.38,0,0,0,0,.14V78a.42.42,0,0,0,0,.15.07.07,0,0,0,.13,0,.43.43,0,0,0,0-.15v-.18h.19V78A.46.46,0,0,1,50.6,78.3Z" transform="translate(-0.03 -0.01)"/><path class="cls-2" d="M50.88,78.37V77.11h.19v1.1h.24v.16Z" transform="translate(-0.03 -0.01)"/><path class="cls-2" d="M52,78.3a.24.24,0,0,1-.21.09.25.25,0,0,1-.21-.09.46.46,0,0,1-.07-.28v-.58q0-.35.28-.35a.24.24,0,0,1,.21.09.44.44,0,0,1,.06.26V78A.47.47,0,0,1,52,78.3Zm-.28-.12a.08.08,0,0,0,.14,0,.5.5,0,0,0,0-.15v-.59a.37.37,0,0,0,0-.13.06.06,0,0,0-.07,0,.07.07,0,0,0-.07,0,.32.32,0,0,0,0,.13V78A.49.49,0,0,0,51.68,78.18Z" transform="translate(-0.03 -0.01)"/><path class="cls-2" d="M52.23,78V77.9h.18V78a.43.43,0,0,0,0,.15.07.07,0,0,0,.07,0,.07.07,0,0,0,.07,0,.3.3,0,0,0,0-.12.32.32,0,0,0,0-.14.49.49,0,0,0-.09-.12l-.09-.1a.58.58,0,0,1-.1-.14.38.38,0,0,1,0-.17.37.37,0,0,1,.06-.23.25.25,0,0,1,.21-.08.21.21,0,0,1,.2.09.52.52,0,0,1,.05.26v.08h-.18v-.09a.39.39,0,0,0,0-.13.06.06,0,0,0-.06,0,.07.07,0,0,0-.06,0,.17.17,0,0,0,0,.09.2.2,0,0,0,0,.1l.07.09.1.11a.66.66,0,0,1,.12.17.45.45,0,0,1,0,.19.46.46,0,0,1-.06.26.24.24,0,0,1-.21.08.23.23,0,0,1-.21-.09A.53.53,0,0,1,52.23,78Z" transform="translate(-0.03 -0.01)"/><path class="cls-2" d="M53,78.37V77.11h.42v.17h-.23v.37h.22v.16h-.22v.4h.24v.17Z" transform="translate(-0.03 -0.01)"/><path class="cls-2" d="M53.62,78.37V77.11h.28a.24.24,0,0,1,.2.08.4.4,0,0,1,.06.24V78a.49.49,0,0,1-.06.28.24.24,0,0,1-.21.09Zm.19-.15h.06a.09.09,0,0,0,.08,0,.24.24,0,0,0,0-.13v-.63a.3.3,0,0,0,0-.14.09.09,0,0,0-.08,0h-.06Z" transform="translate(-0.03 -0.01)"/><path class="cls-2" d="M56.1,78.3a.24.24,0,0,1-.21.09.24.24,0,0,1-.21-.09.45.45,0,0,1-.07-.27v-.55q0-.28.15-.35a.31.31,0,0,1,.13,0q.27,0,.27.34v.17H56v-.16a.42.42,0,0,0,0-.14.06.06,0,0,0-.06,0,.07.07,0,0,0-.07,0,.37.37,0,0,0,0,.14V78a.42.42,0,0,0,0,.15.07.07,0,0,0,.13,0A.43.43,0,0,0,56,78v-.18h.19V78A.46.46,0,0,1,56.1,78.3Z" transform="translate(-0.03 -0.01)"/><path class="cls-2" d="M56.38,78.37V77.11h.19v1.1h.24v.16Z" transform="translate(-0.03 -0.01)"/><path class="cls-2" d="M57.46,78.3a.24.24,0,0,1-.21.09A.25.25,0,0,1,57,78.3.46.46,0,0,1,57,78v-.58q0-.35.28-.35a.24.24,0,0,1,.21.09.44.44,0,0,1,.06.26V78A.47.47,0,0,1,57.46,78.3Zm-.28-.12a.07.07,0,0,0,.07,0,.07.07,0,0,0,.07,0,.5.5,0,0,0,0-.15v-.59a.37.37,0,0,0,0-.13.06.06,0,0,0-.07,0,.07.07,0,0,0-.07,0,.32.32,0,0,0,0,.13V78A.49.49,0,0,0,57.18,78.18Z" transform="translate(-0.03 -0.01)"/><path class="cls-2" d="M57.74,78V77.9h.18V78a.43.43,0,0,0,0,.15.07.07,0,0,0,.07,0,.07.07,0,0,0,.07,0,.3.3,0,0,0,0-.12.32.32,0,0,0,0-.14.49.49,0,0,0-.09-.12l-.09-.1a.58.58,0,0,1-.1-.14.38.38,0,0,1,0-.17.37.37,0,0,1,.06-.23.25.25,0,0,1,.21-.08.21.21,0,0,1,.2.09.52.52,0,0,1,.05.26v.08h-.18v-.09a.39.39,0,0,0,0-.13.06.06,0,0,0-.06,0,.07.07,0,0,0-.06,0,.17.17,0,0,0,0,.09.2.2,0,0,0,0,.1l.07.09.1.11a.66.66,0,0,1,.12.17.45.45,0,0,1,0,.19.46.46,0,0,1-.06.26.24.24,0,0,1-.21.08.23.23,0,0,1-.21-.09A.53.53,0,0,1,57.74,78Z" transform="translate(-0.03 -0.01)"/><path class="cls-2" d="M58.47,78.37V77.11h.42v.17h-.23v.37h.22v.16h-.22v.4h.24v.17Z" transform="translate(-0.03 -0.01)"/><path class="cls-2" d="M59.12,78.37V77.11h.28a.24.24,0,0,1,.2.08.4.4,0,0,1,.06.24V78a.49.49,0,0,1-.06.28.24.24,0,0,1-.21.09Zm.19-.15h.06a.09.09,0,0,0,.08,0,.24.24,0,0,0,0-.13v-.63a.3.3,0,0,0,0-.14.09.09,0,0,0-.08,0h-.06Z" transform="translate(-0.03 -0.01)"/><path class="cls-2" d="M61.6,78.3a.24.24,0,0,1-.21.09.24.24,0,0,1-.21-.09.45.45,0,0,1-.07-.27v-.55q0-.28.15-.35a.31.31,0,0,1,.13,0q.27,0,.27.34v.17h-.19v-.16a.42.42,0,0,0,0-.14.06.06,0,0,0-.06,0,.07.07,0,0,0-.07,0,.37.37,0,0,0,0,.14V78a.42.42,0,0,0,0,.15.07.07,0,0,0,.13,0,.43.43,0,0,0,0-.15v-.18h.19V78A.46.46,0,0,1,61.6,78.3Z" transform="translate(-0.03 -0.01)"/><path class="cls-2" d="M61.88,78.37V77.11h.19v1.1h.24v.16Z" transform="translate(-0.03 -0.01)"/><path class="cls-2" d="M63,78.3a.24.24,0,0,1-.21.09.25.25,0,0,1-.21-.09.46.46,0,0,1-.07-.28v-.58q0-.35.28-.35a.24.24,0,0,1,.21.09.44.44,0,0,1,.06.26V78A.47.47,0,0,1,63,78.3Zm-.28-.12a.07.07,0,0,0,.07,0,.07.07,0,0,0,.07,0,.5.5,0,0,0,0-.15v-.59a.37.37,0,0,0,0-.13.06.06,0,0,0-.07,0,.07.07,0,0,0-.07,0,.32.32,0,0,0,0,.13V78A.49.49,0,0,0,62.68,78.18Z" transform="translate(-0.03 -0.01)"/><path class="cls-2" d="M63.24,78V77.9h.18V78a.43.43,0,0,0,0,.15.07.07,0,0,0,.07,0,.07.07,0,0,0,.07,0,.3.3,0,0,0,0-.12.32.32,0,0,0,0-.14.49.49,0,0,0-.09-.12l-.09-.1a.58.58,0,0,1-.1-.14.38.38,0,0,1,0-.17.37.37,0,0,1,.06-.23.25.25,0,0,1,.21-.08.21.21,0,0,1,.2.09.52.52,0,0,1,.05.26v.08h-.18v-.09a.39.39,0,0,0,0-.13.06.06,0,0,0-.06,0,.07.07,0,0,0-.06,0,.17.17,0,0,0,0,.09.2.2,0,0,0,0,.1l.07.09.1.11a.66.66,0,0,1,.12.17.45.45,0,0,1,0,.19.46.46,0,0,1-.06.26.24.24,0,0,1-.21.08.23.23,0,0,1-.21-.09A.53.53,0,0,1,63.24,78Z" transform="translate(-0.03 -0.01)"/><path class="cls-2" d="M64,78.37V77.11h.42v.17h-.23v.37h.22v.16h-.22v.4h.24v.17Z" transform="translate(-0.03 -0.01)"/><path class="cls-2" d="M64.62,78.37V77.11h.28a.24.24,0,0,1,.2.08.4.4,0,0,1,.06.24V78a.49.49,0,0,1-.06.28.24.24,0,0,1-.21.09Zm.19-.15h.06a.09.09,0,0,0,.08,0,.24.24,0,0,0,0-.13v-.63a.3.3,0,0,0,0-.14.09.09,0,0,0-.08,0h-.06Z" transform="translate(-0.03 -0.01)"/><rect class="cls-23" x="26.8" y="76.52" width="0.3" height="4.52"/><polygon class="cls-23" points="25.99 81.49 25.99 81.33 26.8 81.05 27.1 81.05 28 81.33 28 81.49 25.99 81.49"/><rect class="cls-30" x="26.8" y="77.21" width="0.3" height="0.28"/><rect class="cls-30" x="26.8" y="77.81" width="0.3" height="0.28"/><rect class="cls-23" x="38.1" y="76.52" width="0.3" height="4.52"/><polygon class="cls-23" points="37.29 81.49 37.29 81.33 38.1 81.05 38.4 81.05 39.3 81.33 39.3 81.49 37.29 81.49"/><rect class="cls-30" x="38.1" y="77.21" width="0.3" height="0.28"/><rect class="cls-30" x="38.1" y="77.81" width="0.3" height="0.28"/><rect class="cls-23" x="54.75" y="76.52" width="0.3" height="4.52"/><polygon class="cls-23" points="53.94 81.49 53.94 81.33 54.75 81.05 55.05 81.05 55.95 81.33 55.95 81.49 53.94 81.49"/><rect class="cls-30" x="54.75" y="77.21" width="0.3" height="0.28"/><rect class="cls-30" x="54.75" y="77.81" width="0.3" height="0.28"/><rect class="cls-23" x="66" y="76.52" width="0.3" height="4.52"/><polygon class="cls-23" points="65.19 81.49 65.19 81.33 66 81.05 66.3 81.05 67.2 81.33 67.2 81.49 65.19 81.49"/><rect class="cls-30" x="66" y="77.21" width="0.3" height="0.28"/><rect class="cls-30" x="66" y="77.81" width="0.3" height="0.28"/></svg>