<svg xmlns="http://www.w3.org/2000/svg" xmlns:xlink="http://www.w3.org/1999/xlink" viewBox="0 0 110.85 128"><defs><style>.cls-1,.cls-5{isolation:isolate;}.cls-2{fill:#fff;}.cls-3{fill:#f63;}.cls-22,.cls-4,.cls-7{opacity:0.58;}.cls-4{fill:url(#Degradado_sin_nombre_195);}.cls-5{opacity:0.13;}.cls-6{fill:#2c2e55;}.cls-8{fill:url(#Degradado_sin_nombre_195-2);}.cls-9{fill:url(#Degradado_sin_nombre_195-3);}.cls-10{fill:url(#Degradado_sin_nombre_195-4);}.cls-11{fill:#3f6d8c;}.cls-12{fill:#3a4860;}.cls-13{fill:#cb8f6b;}.cls-14{fill:#bc8864;}.cls-15{fill:#4b5a77;}.cls-16{fill:#54007f;}.cls-17{fill:#66007f;}.cls-18{fill:#ffc362;}.cls-19{fill:#3a4f6c;}.cls-20{fill:#2f5c75;}.cls-21{opacity:0.42;mix-blend-mode:soft-light;}.cls-22{fill:url(#Degradado_sin_nombre_195-5);}</style><linearGradient id="Degradado_sin_nombre_195" x1="9.97" y1="64.2" x2="101.96" y2="64.2" gradientUnits="userSpaceOnUse"><stop offset="0" stop-color="#e65540"/><stop offset="0.46" stop-color="#f57b3d"/><stop offset="1" stop-color="#ffcd69"/></linearGradient><linearGradient id="Degradado_sin_nombre_195-2" x1="98.76" y1="32.22" x2="33.8" y2="48.97" gradientTransform="translate(-3.09 16.97) rotate(-4.82)" xlink:href="#Degradado_sin_nombre_195"/><linearGradient id="Degradado_sin_nombre_195-3" x1="104.36" y1="51.96" x2="35.75" y2="69.65" xlink:href="#Degradado_sin_nombre_195"/><linearGradient id="Degradado_sin_nombre_195-4" x1="57.33" y1="44.91" x2="57.06" y2="87.87" gradientTransform="matrix(1, 0, 0, 1, -1.34, 0.22)" xlink:href="#Degradado_sin_nombre_195"/><linearGradient id="Degradado_sin_nombre_195-5" x1="93.64" y1="50.74" x2="100.12" y2="50.74" xlink:href="#Degradado_sin_nombre_195"/></defs><title>bridge-gd</title><g class="cls-1"><g id="Layer_1" data-name="Layer 1"><g id="mask0"><path class="cls-2" d="M45.68,88.11h21.2v7H45.68Z" transform="translate(-0.03 -0.01)"/></g><g id="Layer_63" data-name="Layer 63"><polygon class="cls-3" points="110.85 32 110.85 96 55.43 128 11.08 102.4 10.88 102.28 0 96 0 32 55.43 0 110.85 32"/></g><path class="cls-4" d="M102,37.63V90.77h0l-1.09.62-.33.19-.13.07-.88.51L96.38,94l-.2.12-1.93,1.11-.16.09-1.48.86-.47.27-.14.08-.47.27-.24.13h0l-.1,0-.11.07-3,1.74-.82.47-1.05.6,0,0-1.23.71-.45.26,0,0h0l-1.54.89-.87.52-1.26.72-.05,0-.07,0-.08.05-.41.24h0l-.05,0-.05,0-.06,0h0l-.78.45L79,104l0,0,0,0-1,.58-.14.08-.15.09-.05,0-.32.18-.24.14h0l-.07,0-.64.38-.2.12-.33.19-.25.14a0,0,0,0,1,0,0l-.47.27-.42.24,0,0-.57.33-2.33,1.34-.63.36-.06,0-3.5,2h0l-.4.23-.35.2-.5.29-.14.08-1.25.72-1,.57-.39.22h0l-.43.25-.4.23-2.36,1.36-.36.21,0,0-.18.1-.5.29-1.87,1.08-.56.32h0l-.32.19-.48.28-.14-.08-1.28-.74-.85-.49h0l-.91-.53-.17-.1,0,0-.61-.35-.17-.1L48.34,113l0,0-2.07-1.19L41.48,109l-.61-.35-.69-.39-.93-.54-.22-.12-.09-.06,0,0-2.23-1.29-1.22-.71-.37-.21-.39-.22-.23-.13-.26-.15-.24-.15-.09-.05-.35-.2-.08-.05-.08,0,0,0-1.3-.74,0,0-.15-.08-.37-.22-1.71-1-2.51-1.46-2.09-1.2-.82-.47L24.24,99l-.5-.29h0l-.21-.12h0l-1-.6h0L20.6,96.91l-1-.59-1.33-.77-.72-.43,0,0h0l-.29-.17h0l-.26-.15h0l-3.3-1.9-3.41-2-.09-.05-.08,0,0,0V37.63l5.66-3.26.77-.46h0l.25-.14.58-.33,1.75-1,2.27-1.31.82-.48.15-.09,2.07-1.19,1-.57,1-.59.42-.24.45-.26.25-.14h0l.57-.33,3.23-1.86,1.58-.92.17-.09,1.66-1,.78-.45.38-.22.44-.26,1.1-.65.52-.3,2.28-1.3.69-.41,1.4-.8h0l0,0L48,15.69l.19-.11.27-.16,6.07-3.51L56,11.08,57,11.7l6.49,3.75,2.6,1.5,3.95,2.28,1.34.77L78,23.83l1,.61,2.3,1.31.87.5,1.52.88,1.37.79.8.46.09.06,1.81,1,3.78,2.18,0,0h0l.26.14.26.16.4.23.92.53.54.31h0L96,34.19l.78.44.44.25L99.15,36Z" transform="translate(-0.03 -0.01)"/><g id="Layer_2" data-name="Layer 2"><g id="Layer_16" data-name="Layer 16"><path class="cls-5" d="M96.84,34.67l-.53-.3-.72-.42-.77-.45-.11-.06-.49-.28-.51-.29-.9-.52-7.25-4.18-1.71-1-.72-.42-.45-.26-.49-.29-.05,0-.42-.25-.41-.24L76,22.64,56.48,11.4l-.53-.31-.47.27L38.37,21.24l-5,2.9-1.3.75-.53.31-.1,0h0l-.25.15-.42.25-.3.17-.27.16-.18.1-1.5.87h0L26.7,28h0l-.58.34-.76.43h0l0,0-3.25,1.87h0L19.67,32l-1,.58-3,1.72-4.23,2.44-1.54.89V90.77l.07,0,1.72,1,.75.43.15.08,4.32,2.5.69.39,4,2.32.46.26,1.3.75,3.38,1.95,5.38,3.1.69.4.07,0,.15.08.11.07.18.1,0,0,1.91,1.11.88.5,1.33.78.89.51.18.1.31.18.19.11.48.28,3.57,2.05.09.05.44.26.62.36L45,111h0l.53.3,1.51.87L50.21,114l4.48,2.58,1,.6.23.13h0l.19-.11.14-.08,0,0,.31-.18,1.81-1,.09-.05.69-.4.5-.29L60,115l3.85-2.22,2.45-1.41L67,111l.66-.38.67-.39.44-.26,2.33-1.34.39-.22h0l.23-.14.21-.12.63-.36.8-.46,1.26-.73.46-.27h0l.46-.27h0l.25-.14.53-.31.37-.21.35-.21.55-.31.21-.13.32-.18.43-.24h0l.05,0,.13-.08L79,104l3.78-2.18.38-.22L84.3,101l3-1.71,1.56-.9,8.53-4.92h0l.06,0,2.65-1.53.9-.52,1-.59V37.65Zm3.3,55-.52.3-.32.18-.58.34L91.13,94.9l-4.67,2.69-3.12,1.8-1.28.74-.72.41-2.93,1.69-.07.05-.16.09-.18.11-.57.32-.89.51-.22.13-.05,0-.81.47-.09.05-3.91,2.25-.08.05-.79.45-.08.05-.91.53-2.15,1.24-1.54.89-1.68,1-1.1.63-3,1.72-1.23.71-.06,0h0l-.75.44-.28.15-1.87,1.08-3.45-2-1.23-.71-.61-.35-1.81-1.05-.72-.41-.69-.4-5.26-3-.77-.45,0,0-1.79-1-2.06-1.18-.9-.52L36,103.7l-.25-.15-.43-.25-.21-.12-1.75-1-.31-.18-.19-.11-1.5-.87L28,99l-3.91-2.26-1.76-1-3.42-2L14,91l-.9-.51-.39-.23-.23-.13-.67-.39v-51l3.91-2.26,3-1.72.93-.54h0l.06,0,3.2-1.85h0l1.36-.79h0l1.79-1,1.25-.72.43-.25h0l.76-.44.46-.27h0l3-1.72h0l.78-.45.35-.2.2-.12.29-.17.17-.1L34,25.9l0,0,8-4.64,13.39-7.73.47-.27.53.31,16.83,9.71,7,4,.05,0,.32.18.11.06.44.26.35.2,1.23.71,1.94,1.12,7,4,1.41.81.55.32,0,0,.77.44.19.11.54.31.53.31,4.36,2.51v51Z" transform="translate(-0.03 -0.01)"/></g></g><path class="cls-6" d="M69.54,115.09l1.57-.9.07.12a3,3,0,0,1,.34.81,1.89,1.89,0,0,1,0,.76,2,2,0,0,1-1,1.37,2.13,2.13,0,0,1-1.69.21,2.28,2.28,0,0,1-.52-4.17,2.23,2.23,0,0,1,.93-.3,2.75,2.75,0,0,1,1.06.17l-.18.63a1.59,1.59,0,0,0-1.49,0,1.56,1.56,0,0,0-.77,1,1.6,1.6,0,0,0,.18,1.25,1.54,1.54,0,0,0,1.05.78,1.57,1.57,0,0,0,1.14-.15,1.32,1.32,0,0,0,.59-.72,1.18,1.18,0,0,0,0-.9l-.95.54Z" transform="translate(-0.03 -0.01)"/><rect class="cls-6" x="73.14" y="110.75" width="0.66" height="4.37" transform="translate(-46.6 51.74) rotate(-29.95)"/><polygon class="cls-6" points="76.2 109.52 78.08 112.78 77.5 113.1 75.63 109.85 74.76 110.36 74.45 109.82 76.76 108.49 77.07 109.03 76.2 109.52"/><path class="cls-6" d="M81.39,106.12l.39.68a1.83,1.83,0,0,0-1.26.17,1.51,1.51,0,0,0-.74,1,1.63,1.63,0,0,0,.19,1.25,1.59,1.59,0,0,0,1,.78,1.54,1.54,0,0,0,1.22-.16,1.41,1.41,0,0,0,.46-.39,1.67,1.67,0,0,0,.17-.27,3.41,3.41,0,0,0,.15-.36l.4.69a2.38,2.38,0,0,1-.87.87,2.2,2.2,0,0,1-1.71.23,2.17,2.17,0,0,1-1.37-1,2.25,2.25,0,0,1-.26-1.57,2.19,2.19,0,0,1,1.12-1.57,2.23,2.23,0,0,1,1.15-.29" transform="translate(-0.03 -0.01)"/><path class="cls-2" d="M84.16,106a2.14,2.14,0,0,1-.2-1.71A2.24,2.24,0,0,1,85,102.86a2.29,2.29,0,0,1,3.1.84,2.15,2.15,0,0,1,.21,1.72,2.31,2.31,0,0,1-2.7,1.64,2.14,2.14,0,0,1-1.49-1.1m.58-.33a1.62,1.62,0,0,0,3-.35,1.7,1.7,0,0,0-1.16-2,1.54,1.54,0,0,0-1.23.16,1.56,1.56,0,0,0-.76,1,1.58,1.58,0,0,0,.17,1.24" transform="translate(-0.03 -0.01)"/><rect class="cls-6" x="90.12" y="100.98" width="0.66" height="4.37" transform="translate(-39.46 58.96) rotate(-29.97)"/><polygon class="cls-6" points="94.02 103.6 91.69 99.56 96.11 100.86 94.6 98.22 95.17 97.89 97.48 101.92 93.06 100.62 94.59 103.27 94.02 103.6"/><g class="cls-7"><path class="cls-8" d="M93.75,35.19a41.88,41.88,0,0,1-9.88,7.44c-5,2.54-10.78,3.39-16.43,3.44S56.19,45.41,50.56,45c-5.11-.38-10.39-.48-15.22,1.24A21.46,21.46,0,0,0,21.47,64.54l73.46-6.2Z" transform="translate(-0.03 -0.01)"/></g><g class="cls-7"><path class="cls-9" d="M99.27,41.74a2.46,2.46,0,0,0-.92-1.85A23.9,23.9,0,0,0,75.8,36c-2.82,1-5.46,2.54-8.26,3.6-9.36,3.58-20,1.77-29.18,5.93a26.8,26.8,0,0,0-12.9,13A29.89,29.89,0,0,0,23,75.36a2.28,2.28,0,0,0,2.19,2h72.9a2.31,2.31,0,0,0,2.21-2.47Z" transform="translate(-0.03 -0.01)"/></g><path class="cls-10" d="M96.55,74.92v-.56l-19.49,0L46,74.44l-20.27,0h-.05c-.34,0-2.23.23-4.3.6l-9.18,0s0-.07,0-.11a38.73,38.73,0,0,1-.05-6.57v0A28.08,28.08,0,0,1,14,59.8a22.24,22.24,0,0,1,1.76-3.44,21.66,21.66,0,0,1,7.1-7h0a27.06,27.06,0,0,1,5.85-2.67c9.12-3,20.42-1.94,29.77,1.41a109.65,109.65,0,0,0,10.85,3.5,48.58,48.58,0,0,0,10.49,1.27,44,44,0,0,0,9.25-.66,16.33,16.33,0,0,0,5.83-1.71,35.19,35.19,0,0,0,3.47-1.61l1.46,25.47,0,.56Z" transform="translate(-0.03 -0.01)"/><path class="cls-11" d="M99.9,75.85H92.15a.25.25,0,0,1-.26.26c-6.55-.25-13.06.92-19.6,1.11-6,.18-11.9.52-17.85.76s-11.88.22-17.82.29c-2.92,0-5.84.17-8.76.22-2.62,0-5.31-.4-7.91.08-.43.08-1.56.17-1.79.61-.38.72,1.26,1.14,1.74,1.33a19.25,19.25,0,0,0,4.22.95c.76.11,2.23.37.75.88-2.75,1-9.11,1.64-11.82,3.21-.81.47-1.3,1-1.25,1.68C12,90.11,24,89.59,24,89.59l76.11-.14,0-13.6Z" transform="translate(-0.03 -0.01)"/><path class="cls-12" d="M49.33,76.06h0a6.69,6.69,0,0,0-1.61-.94,18,18,0,0,0-2.84-.65c-2.93-.6-5.53-2.08-8.57-2.15a26.74,26.74,0,0,1-4.15,0c-.71-.13-1.35-.4-2.05-.55-1.69-.37-3.52,0-5.28-.19-2.11-.2-3.95-1.12-5.95-1.65a20.15,20.15,0,0,0-6.76-.48,42.54,42.54,0,0,0,.06,7.21h0c.08.89.25,1.77.35,2.66l1.7-.09A55.24,55.24,0,0,1,23.33,79a49.85,49.85,0,0,0,8.84-.12c4.35-.32,10.14-.55,12.31-.13s9.28-.24,9.28-.24C51.85,78.43,50.72,77.11,49.33,76.06Z" transform="translate(-0.03 -0.01)"/><path class="cls-13" d="M96.43,76.24v.16l-24.25,0-2.59-.91a31.52,31.52,0,0,1,5.84-1c1.32-.06,2.66,0,4,0,1.71-.08,3.33-.43,5-.62a53,53,0,0,1,11.52.34A5.72,5.72,0,0,1,96.43,76.24Z" transform="translate(-0.03 -0.01)"/><path class="cls-14" d="M41.43,73.11c3.83-.3,7.76-.6,11.47.14,1.37.28,2.68.69,4,1a41,41,0,0,0,5.89.59l2.85.15a8.25,8.25,0,0,0,1.09-.1c.51,0,1.6-.47,2.11-.52a39,39,0,0,1,8.35.63c2.13.45,4.45,1,4.66,2,0,0-18.29.94-21.51.53s-6.27-.5-6.27-.5Z" transform="translate(-0.03 -0.01)"/><path class="cls-15" d="M49,75.41a8.73,8.73,0,0,1,5.32.15,11.27,11.27,0,0,0,1.27.45c.56.13,1.17.13,1.75.23a14.84,14.84,0,0,1,4.06,1.38s-8.18,1-11.46.19S49,75.41,49,75.41Z" transform="translate(-0.03 -0.01)"/><path class="cls-12" d="M53.89,78.11c1.85-.53-2.87-2-4.51-2.82a15.47,15.47,0,0,0-2.57-.9,36.66,36.66,0,0,0-8.71-1.74,5.81,5.81,0,0,0-2.84.44,12.31,12.31,0,0,1-1.15.68c-.6.24-1.35.22-1.94.48a3.52,3.52,0,0,0-.94.71c-2.27,2.09-7.8,3.23-11.45,3.4C19.76,78.36,48.89,79.55,53.89,78.11Z" transform="translate(-0.03 -0.01)"/><path class="cls-16" d="M49.32,74.74l0,0v0Z" transform="translate(-0.03 -0.01)"/><polygon class="cls-16" points="49.71 74.71 49.71 74.68 49.72 74.68 49.71 74.71"/><path class="cls-16" d="M51,55.91v0h0Z" transform="translate(-0.03 -0.01)"/><path class="cls-16" d="M49.26,74.89l0,0h0Z" transform="translate(-0.03 -0.01)"/><path class="cls-16" d="M57.43,73.89h0Z" transform="translate(-0.03 -0.01)"/><polygon class="cls-6" points="38.32 89.3 42.78 89.21 43.02 89.57 38.12 89.7 38.32 89.3"/><polygon class="cls-6" points="40.19 84.43 40.2 88.85 38.51 88.58 40.19 84.43"/><polygon class="cls-6" points="40.77 88.61 40.72 84.47 42.34 88.24 40.77 88.61"/><path class="cls-6" d="M40.47,89.42a.07.07,0,0,1-.07-.07V84.19a.07.07,0,1,1,.15,0v5.15A.07.07,0,0,1,40.47,89.42Z" transform="translate(-0.03 -0.01)"/><path class="cls-17" d="M51.39,42.87v0h0Z" transform="translate(-0.03 -0.01)"/><path class="cls-18" d="M61.91,60.52l20.38-.19a12,12,0,0,0-.22-1.88,4.76,4.76,0,0,0-1.6-2.62A2.66,2.66,0,0,0,79,55.26c-.61,0-1.17.37-1.75.3-.35,0-.51-.3-.91-.22a1.6,1.6,0,0,0-1.26,1.55,2.17,2.17,0,0,0-1.62-.32c-.61.08-.93.66-1.48.8s-.8-.49-1.33-.61a2.2,2.2,0,0,0-1.77.68c-.39.31-.71.76-1.11,1-.41-.89-1.64.33-2,.7s-.32.42-.79.44a5.35,5.35,0,0,0-1.75.27C62,60.34,61.4,60.43,61.91,60.52Z" transform="translate(-0.03 -0.01)"/><path class="cls-18" d="M47,64.8l-.15.29c0,.51,2.06.22,2.38.2,3.51-.19,7,0,10.52-.47a36.21,36.21,0,0,1,4.55-.27c.82,0,1.63-.1,2.45-.13a3.35,3.35,0,0,0,1.43-.17c-.32-.3-1.08-.3-1.5-.37a24.08,24.08,0,0,0-2.44-.44c-.14-.79-.7-1-1.41-.81-.26-1.34-.64-2.39-2.19-2.39a2.68,2.68,0,0,0-2,.68c-.47.45-.62,1.15-1,1.61a2,2,0,0,0-2.55.37c-.25.26-.33.68-.74.71s-.6-.34-.93-.44c-.88-.26-1.41.34-2,.82a4,4,0,0,1-2,.57,13.52,13.52,0,0,1-2.41.3" transform="translate(-0.03 -0.01)"/><path class="cls-19" d="M51.36,56.91a2.67,2.67,0,0,0-.25-.9c-.2-.35-1.1-.6-1.1-.6a3.84,3.84,0,0,1,.65,1.3c0,.4-.7.5-.7.5l.05.4.65-.25a2.35,2.35,0,0,1,.9,1.15c.2.7.45.65.45,0a1.56,1.56,0,0,0-.09-.78c-.15-.23-.38-.25-.38-.4s.17-.17.27-.1.17,0,0-.21S51.6,56.76,51.36,56.91Z" transform="translate(-0.03 -0.01)"/><path class="cls-19" d="M57.62,72.31s0-.87.63-.72c0,0,.27-.74.76-.5,0,0-.63.13-.63.57A1.13,1.13,0,0,0,57.62,72.31Z" transform="translate(-0.03 -0.01)"/><path class="cls-19" d="M57.62,70s.54-.35.7.07c0,0,.56-.16.62.24,0,0-.35-.32-.61-.13A.83.83,0,0,0,57.62,70Z" transform="translate(-0.03 -0.01)"/><path class="cls-20" d="M48.52,85.63a.1.1,0,0,0,0-.21,26.71,26.71,0,0,0-3.9.09.09.09,0,0,0,0,.19A26.76,26.76,0,0,0,48.52,85.63Z" transform="translate(-0.03 -0.01)"/><path class="cls-20" d="M49.09,85.41a.07.07,0,0,0,0,.14,27.66,27.66,0,0,0,3.8-.16,0,0,0,0,0,0-.09A27.69,27.69,0,0,0,49.09,85.41Z" transform="translate(-0.03 -0.01)"/><path class="cls-20" d="M53.27,85.41c2.41,0,4.82,0,7.23.05,1.16,0,2.32.08,3.48.08a6.19,6.19,0,0,0,2.94-.33c.21-.12.06-.43-.16-.38a17.41,17.41,0,0,1-3.31.26l-1.64.07-4.63.12-3.9.08A0,0,0,0,0,53.27,85.41Z" transform="translate(-0.03 -0.01)"/><path class="cls-20" d="M87.25,86.24a.16.16,0,0,0,0-.32,12.6,12.6,0,0,0-1.78.19h0a35.73,35.73,0,0,0-4.59.23l-4,.1c-.78,0-1.55-.06-2.34-.12a.15.15,0,0,0-.17.15c-1.39-.15-2.8-.22-4.21-.23a.22.22,0,0,0-.1.42l-1.44.09a.13.13,0,0,0,0,.27c1.58.06,3.16,0,4.74,0a40.31,40.31,0,0,0,8,.16,13.14,13.14,0,0,0,5.75-.9Z" transform="translate(-0.03 -0.01)"/><path class="cls-20" d="M82.59,87.38a16.69,16.69,0,0,0-2.67,0h-3c-1,0-1.93.05-2.9.09s-2-.13-3-.09a.08.08,0,0,0,0,.16c1,.1,1.93,0,2.9.06s2,.15,3,.17,1.93,0,2.9,0a15.34,15.34,0,0,0,2.8-.11A.13.13,0,0,0,82.59,87.38Z" transform="translate(-0.03 -0.01)"/><path class="cls-20" d="M86.42,86.68l-.71.24-1.69.4-.6.08c-.08,0-.08.13,0,.13a8.09,8.09,0,0,0,3.06-.72C86.55,86.78,86.5,86.65,86.42,86.68Z" transform="translate(-0.03 -0.01)"/><path class="cls-20" d="M89.53,82.54c-1.19-.06-2.4.1-3.6,0-.09,0-.08.12,0,.13a9.52,9.52,0,0,0,3.62,0A.07.07,0,0,0,89.53,82.54Z" transform="translate(-0.03 -0.01)"/><path class="cls-20" d="M35.87,84.39a7.07,7.07,0,0,0-1.44,0,.08.08,0,0,0,0,.16,7.07,7.07,0,0,0,1.44,0A.07.07,0,0,0,35.87,84.39Z" transform="translate(-0.03 -0.01)"/><path class="cls-20" d="M68.94,87.19A18.62,18.62,0,0,1,66,87.06a9.55,9.55,0,0,0-2.5-.08,30.18,30.18,0,0,1-5.8.3c-.13,0-.12.18,0,.19a25.42,25.42,0,0,0,4.89-.14l3.37,0,.27,0a11.38,11.38,0,0,0,2.68,0C69,87.35,69,87.18,68.94,87.19Z" transform="translate(-0.03 -0.01)"/><path class="cls-20" d="M65.09,85.92a.09.09,0,0,0,0,.18c.63,0,1.27,0,1.9,0a.11.11,0,0,0,0-.22C66.36,85.89,65.72,85.89,65.09,85.92Z" transform="translate(-0.03 -0.01)"/><path class="cls-20" d="M47.38,83.87c-1.09-.13-2.22,0-3.32-.1a12.45,12.45,0,0,0-3.09,0,.15.15,0,0,0,0,.28,11.17,11.17,0,0,0,3.22.09,27.66,27.66,0,0,0,3.2-.15C47.47,84,47.44,83.88,47.38,83.87Z" transform="translate(-0.03 -0.01)"/><path class="cls-20" d="M39.87,83.79c-.61,0-1.2,0-1.81-.05a.08.08,0,0,0,0,.15,5.89,5.89,0,0,0,1.83,0C40,83.91,40,83.78,39.87,83.79Z" transform="translate(-0.03 -0.01)"/><path class="cls-20" d="M58.17,83.35c-.15,0-.1.23,0,.25a6.88,6.88,0,0,0,2.12-.14c.12,0,.08-.19,0-.2A6.88,6.88,0,0,0,58.17,83.35Z" transform="translate(-0.03 -0.01)"/><path class="cls-20" d="M61.34,83.34l4.08-.25a0,0,0,0,0,0-.09,25.58,25.58,0,0,0-4.08.2C61.25,83.21,61.25,83.35,61.34,83.34Z" transform="translate(-0.03 -0.01)"/><path class="cls-20" d="M71.21,82.64A35.52,35.52,0,0,0,66,83s0,0,0,0a35.38,35.38,0,0,0,5.22-.23C71.33,82.81,71.33,82.64,71.21,82.64Z" transform="translate(-0.03 -0.01)"/><path class="cls-20" d="M59.57,78.3a2.74,2.74,0,0,0,1.12.37,7.86,7.86,0,0,0,1.67.25,5,5,0,0,0,2.57-.4.1.1,0,0,0,0-.12l.19,0c.14,0,.1-.24,0-.24a25.85,25.85,0,0,0-2.74.12,9.46,9.46,0,0,1-1.66,0,8.84,8.84,0,0,1-1-.33C59.51,77.88,59.39,78.19,59.57,78.3Z" transform="translate(-0.03 -0.01)"/><path class="cls-20" d="M64.7,78.93c.09,0,.05-.16,0-.14l-.74.11L62,79h-.7c-.06,0-.07.09,0,.1A9.85,9.85,0,0,0,64.7,78.93Z" transform="translate(-0.03 -0.01)"/><path class="cls-20" d="M60.3,79.14a0,0,0,0,0,0,.06A0,0,0,0,0,60.3,79.14Z" transform="translate(-0.03 -0.01)"/><path class="cls-20" d="M60.12,79.15l-.1-.09a0,0,0,0,0,0,0l.09.1S60.14,79.17,60.12,79.15Z" transform="translate(-0.03 -0.01)"/><path class="cls-20" d="M57.26,79.3a20.12,20.12,0,0,0,2.18,0,.05.05,0,0,0,0-.11,20.11,20.11,0,0,0-2.18,0A0,0,0,0,0,57.26,79.3Z" transform="translate(-0.03 -0.01)"/><path class="cls-20" d="M54.69,79.4c.76,0,1.52-.08,2.28-.13,0,0,0-.07,0-.07-.76,0-1.52,0-2.28.11C54.64,79.32,54.64,79.4,54.69,79.4Z" transform="translate(-0.03 -0.01)"/><path class="cls-20" d="M57.14,78c.38,0,.76-.11,1.14-.14a.06.06,0,1,0,0-.12c-.38.08-.76.12-1.14.2C57.1,77.9,57.1,78,57.14,78Z" transform="translate(-0.03 -0.01)"/><path class="cls-20" d="M50.69,78.45A22.76,22.76,0,0,0,56.56,78a0,0,0,0,0,0,0,2.45,2.45,0,0,0,.47-.11s0,0,0,0a1.41,1.41,0,0,0-.34.05,0,0,0,0,0,0,0l-.33.06-4.75.34-.9,0A0,0,0,0,0,50.69,78.45Z" transform="translate(-0.03 -0.01)"/><path class="cls-20" d="M30,78.41a17.45,17.45,0,0,0,5.43.49.06.06,0,0,0,0-.11l-1.2-.05-2.76-.25L30,78.3C29.94,78.3,29.9,78.39,30,78.41Z" transform="translate(-0.03 -0.01)"/><path class="cls-20" d="M36.16,78.81c1.11,0,2.22,0,3.32-.13a.05.05,0,0,0,0-.1c-1.11,0-2.22.09-3.32.15C36.11,78.73,36.11,78.81,36.16,78.81Z" transform="translate(-0.03 -0.01)"/><path class="cls-20" d="M39.86,78.68a16,16,0,0,0,3,.08,0,0,0,0,0,0-.06c-1,0-2,0-3-.12C39.8,78.58,39.8,78.67,39.86,78.68Z" transform="translate(-0.03 -0.01)"/><path class="cls-20" d="M45.28,78.77c.35,0,.7,0,1,0a0,0,0,0,0,0-.08c-.35,0-.7,0-1,0A0,0,0,0,0,45.28,78.77Z" transform="translate(-0.03 -0.01)"/><path class="cls-20" d="M33.91,85.65c.06,0,.06-.09,0-.09l-.86,0H30.71c-2.26-.06-4.52-.25-6.77-.09-.1,0-.13.16,0,.18C27.21,86.36,30.61,85.83,33.91,85.65Z" transform="translate(-0.03 -0.01)"/><path class="cls-20" d="M38.74,86.67a26.74,26.74,0,0,0-2.85,0,.08.08,0,0,0,0,.15,26.74,26.74,0,0,0,2.85,0A0,0,0,0,0,38.74,86.67Z" transform="translate(-0.03 -0.01)"/><path class="cls-20" d="M94.58,84.53a22.85,22.85,0,0,0-3.13.19c-.09,0-.09.14,0,.14a23,23,0,0,0,3.15-.2C94.67,84.65,94.65,84.53,94.58,84.53Z" transform="translate(-0.03 -0.01)"/><path class="cls-20" d="M72,80.63c-.07,0,0,.11,0,.12a20.7,20.7,0,0,0,4.08,0,.16.16,0,0,0,0-.32A20.72,20.72,0,0,0,72,80.63Z" transform="translate(-0.03 -0.01)"/><path class="cls-20" d="M71.78,80.75a0,0,0,0,0,0,0A0,0,0,0,0,71.78,80.75Z" transform="translate(-0.03 -0.01)"/><path class="cls-20" d="M71.11,80.92c.08,0,.09-.14,0-.13-.79,0-1.59,0-2.37.14a.06.06,0,0,0,0,.11C69.53,81,70.33,81,71.11,80.92Z" transform="translate(-0.03 -0.01)"/><path class="cls-20" d="M72.91,78.73A21.29,21.29,0,0,0,76,78.4a.11.11,0,0,0,0-.22,21.3,21.3,0,0,0-3.05.44A.05.05,0,0,0,72.91,78.73Z" transform="translate(-0.03 -0.01)"/><path class="cls-20" d="M33.06,81.22a.06.06,0,0,0,0-.12,8.7,8.7,0,0,0-1.44.09.09.09,0,0,0,0,.17A3.48,3.48,0,0,0,33.06,81.22Z" transform="translate(-0.03 -0.01)"/><path class="cls-20" d="M43.62,81c-1.66,0-3.32,0-5-.06a0,0,0,0,0,0,.06c1.87.06,3.74.16,5.62.2.89,0,1.78,0,2.67.06a3.83,3.83,0,0,0,2.23-.16.1.1,0,0,0-.08-.18l-.43.09Z" transform="translate(-0.03 -0.01)"/><path class="cls-20" d="M44.93,80.68a12.67,12.67,0,0,0,1.59,0,.07.07,0,0,0,0-.14,12.67,12.67,0,0,0-1.59,0A0,0,0,0,0,44.93,80.68Z" transform="translate(-0.03 -0.01)"/><path class="cls-20" d="M47.32,80.68a9.54,9.54,0,0,0,1.42,0,.07.07,0,0,0,0-.13,9.54,9.54,0,0,0-1.42,0A0,0,0,0,0,47.32,80.68Z" transform="translate(-0.03 -0.01)"/><path class="cls-20" d="M58,81.8a0,0,0,0,0,0,0A0,0,0,0,0,58,81.8Z" transform="translate(-0.03 -0.01)"/><path class="cls-20" d="M58.17,81.82c.69-.06,1.37-.14,2.05-.23,0,0,0,0,0,0-.69,0-1.37.1-2,.18C58.1,81.72,58.1,81.82,58.17,81.82Z" transform="translate(-0.03 -0.01)"/><path class="cls-20" d="M62.1,81.51s0,0,0-.05a3.27,3.27,0,0,0-1,.05h0a.86.86,0,0,0-.49,0,0,0,0,0,0,0,.05l.24,0h.24l0,0A3.24,3.24,0,0,0,62.1,81.51Z" transform="translate(-0.03 -0.01)"/><path class="cls-20" d="M62.82,81.5a0,0,0,0,0,0,0h-.43a0,0,0,0,0,0,.08Z" transform="translate(-0.03 -0.01)"/><path class="cls-20" d="M48.32,84.87a3.3,3.3,0,0,1,.7-.14l.48,0c.62,0,1.27.06,1.85,0a12.49,12.49,0,0,0,3-.22c.06,0,.07-.12,0-.13a6.24,6.24,0,0,0-1.57,0l-1.81.1c-.9,0-1.9-.25-2.72.17A.1.1,0,0,0,48.32,84.87Z" transform="translate(-0.03 -0.01)"/><path class="cls-20" d="M68.07,80a2.29,2.29,0,0,0-1.14.17s0,.09,0,.08l.26-.06.31,0c.68,0,1.42.24,2-.11,0,0,0-.07,0-.06A7.4,7.4,0,0,1,68.07,80Z" transform="translate(-0.03 -0.01)"/><path class="cls-20" d="M69.86,80l.34-.09a0,0,0,0,0,0-.07l-.34.09A0,0,0,0,0,69.86,80Z" transform="translate(-0.03 -0.01)"/><path class="cls-20" d="M70.45,79.82a0,0,0,0,0,0,0A0,0,0,0,0,70.45,79.82Z" transform="translate(-0.03 -0.01)"/><path class="cls-20" d="M71.14,77.76l1.15-.06a5.21,5.21,0,0,0,.7-.13h0l1.17-.07h.32s0,0,0,0a5.39,5.39,0,0,0-1.72.05,6.09,6.09,0,0,1-1,.13l-.49,0-.26,0-.34,0a0,0,0,0,0,0,0h0a0,0,0,0,0-.06,0h0a.05.05,0,0,0,0,.09C70.74,77.86,71,77.77,71.14,77.76Zm-.49,0h0Z" transform="translate(-0.03 -0.01)"/><path class="cls-20" d="M75,77.53h.3a0,0,0,0,0,0,0H75A0,0,0,0,0,75,77.53Z" transform="translate(-0.03 -0.01)"/><path class="cls-20" d="M49.94,80c.22,0,.43-.08.64-.12l.1,0,.35,0c.23,0,.44,0,.69,0a5.77,5.77,0,0,0,1.94-.2c.05,0,0-.1,0-.1-1.25.13-2.52-.15-3.73.25C49.84,79.84,49.84,80,49.94,80Z" transform="translate(-0.03 -0.01)"/><path class="cls-20" d="M55.44,79.64a0,0,0,0,0,0-.07,4,4,0,0,0-1.55,0,0,0,0,0,0,0,.07A11.24,11.24,0,0,1,55.44,79.64Z" transform="translate(-0.03 -0.01)"/><path class="cls-20" d="M54,81.37a18.27,18.27,0,0,0,2.54-.15c.73,0,1.47-.06,2.2-.14.06,0,.07-.1,0-.1L57.62,81h0a9.49,9.49,0,0,0-3.34.08h-.16a.07.07,0,0,0-.08.07h0A.09.09,0,0,0,54,81.37Z" transform="translate(-0.03 -0.01)"/><path class="cls-20" d="M62.22,80.48a7.93,7.93,0,0,0-2.19.36l-.3,0c-.06,0,0,.11,0,.11h.1a.06.06,0,0,0,.06.05c.21,0,.41,0,.61-.08.61,0,1.22-.07,1.83-.09.87,0,1.74,0,2.6,0a.08.08,0,0,0,0-.16l-1,0A11.26,11.26,0,0,0,62.22,80.48Z" transform="translate(-0.03 -0.01)"/><path class="cls-20" d="M21.94,83.52c1-.3,2-.66,3.06-1a4.38,4.38,0,0,0,2.11-.92s0-.08,0-.06l-.11.08-2.42.87-.07,0a17.62,17.62,0,0,0-2.56.88S21.89,83.53,21.94,83.52Z" transform="translate(-0.03 -0.01)"/><path class="cls-20" d="M18.89,84.19l.82-.35.08,0,.39-.14.24-.07c.08,0,.12,0,.12,0s0,0,.12,0a0,0,0,0,0,0-.07,5,5,0,0,0-1.77.68S18.85,84.21,18.89,84.19Z" transform="translate(-0.03 -0.01)"/><path class="cls-20" d="M32.43,83.27l-1.24,0c-.26,0-.51-.15-.78-.17a11.21,11.21,0,0,0-2,.16c-.09,0-.09.15,0,.14l.8-.09,1.16,0a3.48,3.48,0,0,1,.43.06,3.56,3.56,0,0,0,1.79-.07,0,0,0,0,0,0-.07Z" transform="translate(-0.03 -0.01)"/><path class="cls-20" d="M40,83c-.64,0-1.28,0-1.92.06a0,0,0,0,0,0,.05,7.41,7.41,0,0,0,1.93,0S40,83,40,83Z" transform="translate(-0.03 -0.01)"/><path class="cls-20" d="M84.63,76.65a15.37,15.37,0,0,0,2.6-.08c.06,0,0-.1,0-.1a15.38,15.38,0,0,0-2.58.07A.06.06,0,0,0,84.63,76.65Z" transform="translate(-0.03 -0.01)"/><path class="cls-20" d="M87.74,76.6a17.09,17.09,0,0,0,2.74-.06,0,0,0,0,0,0-.08,17.09,17.09,0,0,0-2.74.05A0,0,0,0,0,87.74,76.6Z" transform="translate(-0.03 -0.01)"/><path class="cls-20" d="M90.69,76.5a0,0,0,0,0,0,0A0,0,0,0,0,90.69,76.5Z" transform="translate(-0.03 -0.01)"/><path class="cls-20" d="M88.68,77.35a9,9,0,0,1-1.79-.21,4.9,4.9,0,0,0-1.6.18c-.12,0-.09.23,0,.21a9.63,9.63,0,0,1,2,.08,2.67,2.67,0,0,0,1.39-.16A.06.06,0,0,0,88.68,77.35Z" transform="translate(-0.03 -0.01)"/><path class="cls-20" d="M89.8,77.42a0,0,0,0,0,0-.08,2.57,2.57,0,0,0-.54,0,.06.06,0,0,0,0,.11A2.57,2.57,0,0,0,89.8,77.42Z" transform="translate(-0.03 -0.01)"/><path class="cls-20" d="M84.63,79.86c1.26-.06,2.48-.14,3.74-.11,0,0,0,0,0-.05a12,12,0,0,0-3.77,0C84.51,79.7,84.53,79.86,84.63,79.86Z" transform="translate(-0.03 -0.01)"/><path class="cls-20" d="M90.59,79.72a7.1,7.1,0,0,0-1,0,.05.05,0,0,0,0,.1,7.1,7.1,0,0,0,1,0A0,0,0,0,0,90.59,79.72Z" transform="translate(-0.03 -0.01)"/><path class="cls-20" d="M93.42,79.2a.9.9,0,0,0,.48.06.05.05,0,1,0,0-.11,1.21,1.21,0,0,1-.46,0A0,0,0,0,0,93.42,79.2Z" transform="translate(-0.03 -0.01)"/><path class="cls-20" d="M88.74,79.15l2.07,0,1.81,0,.59,0s0,0,0,0A31,31,0,0,0,88.74,79C88.66,79,88.65,79.15,88.74,79.15Z" transform="translate(-0.03 -0.01)"/><path class="cls-20" d="M95.06,77.29h-.42a0,0,0,0,0,0,.06h.42A0,0,0,0,0,95.06,77.29Z" transform="translate(-0.03 -0.01)"/><path class="cls-20" d="M94.06,77.4a0,0,0,0,0,0,0A0,0,0,0,0,94.06,77.4Z" transform="translate(-0.03 -0.01)"/><path class="cls-20" d="M92.64,77.46a8.35,8.35,0,0,0,.95,0,0,0,0,0,0,0-.06,8.36,8.36,0,0,0-.95,0A0,0,0,0,0,92.64,77.46Z" transform="translate(-0.03 -0.01)"/><path class="cls-20" d="M95.11,76.26h-.63a.06.06,0,0,0,0,.11h.63A.06.06,0,0,0,95.11,76.26Z" transform="translate(-0.03 -0.01)"/><path class="cls-20" d="M90.57,80.77c-.06,0,0,.1,0,.1,1.23.05,2.51.05,3.74,0a.12.12,0,0,0,0-.25A15.39,15.39,0,0,0,90.57,80.77Z" transform="translate(-0.03 -0.01)"/><path class="cls-20" d="M90.17,80.88c-.67,0-1.33-.06-2-.05a0,0,0,0,0,0,.06c.67.06,1.33.07,2,.09C90.23,81,90.23,80.88,90.17,80.88Z" transform="translate(-0.03 -0.01)"/><path class="cls-20" d="M87.43,80.92a.06.06,0,0,0,0-.12H87a0,0,0,0,0,0,.09Z" transform="translate(-0.03 -0.01)"/><path class="cls-20" d="M81.87,81.32c.11,0,.08-.19,0-.19-.88.05-1.75,0-2.63,0-.07,0-.1.12,0,.13A8.42,8.42,0,0,0,81.87,81.32Z" transform="translate(-0.03 -0.01)"/><path class="cls-20" d="M80.58,78.34c.79,0,1.58,0,2.37-.05a.06.06,0,0,0,0-.12c-.79,0-1.59,0-2.37.1A0,0,0,0,0,80.58,78.34Z" transform="translate(-0.03 -0.01)"/><path class="cls-20" d="M80,78.36a0,0,0,0,0,0,0A0,0,0,0,0,80,78.36Z" transform="translate(-0.03 -0.01)"/><path class="cls-20" d="M76.36,78.52a14.58,14.58,0,0,0,3-.08,0,0,0,0,0,0-.05c-1,0-2-.05-3,0A.07.07,0,0,0,76.36,78.52Z" transform="translate(-0.03 -0.01)"/><path class="cls-20" d="M26.2,80.23l-1.05-.12-1.36-.21-.68-.15a0,0,0,0,0,0,.07,8.36,8.36,0,0,0,3.12.5A0,0,0,0,0,26.2,80.23Z" transform="translate(-0.03 -0.01)"/><path class="cls-20" d="M53.83,87.19c-.32,0-.63,0-.95-.05a.06.06,0,0,0,0,.11,2.5,2.5,0,0,0,1,.05C53.9,87.3,53.9,87.19,53.83,87.19Z" transform="translate(-0.03 -0.01)"/><path class="cls-20" d="M52.3,87.19l-.26,0s0,0,0,0l.26.06S52.32,87.19,52.3,87.19Z" transform="translate(-0.03 -0.01)"/><path class="cls-20" d="M51.35,87a16.57,16.57,0,0,0-3.43.15s0,.07,0,.07c1.13,0,2.29-.07,3.42-.13A0,0,0,0,0,51.35,87Z" transform="translate(-0.03 -0.01)"/><path class="cls-20" d="M46.61,87.08,45,87s0,0,0,0l1.58.08S46.65,87.08,46.61,87.08Z" transform="translate(-0.03 -0.01)"/><path class="cls-20" d="M42.6,86.38c-.56,0-1.12-.09-1.69-.07a.06.06,0,0,0,0,.11c.56.06,1.12,0,1.69.06C42.67,86.48,42.66,86.39,42.6,86.38Z" transform="translate(-0.03 -0.01)"/><path class="cls-20" d="M21.39,86.54c-1.38,0-2.78-.06-4.16,0a.08.08,0,0,0,0,.15c1.38.06,2.78,0,4.16-.1A.05.05,0,0,0,21.39,86.54Z" transform="translate(-0.03 -0.01)"/><path class="cls-20" d="M54.61,83.13s0,0,0,0c1-.07,2-.06,3-.19.07,0,.08-.12,0-.11C56.6,82.89,55.61,83.05,54.61,83.13Z" transform="translate(-0.03 -0.01)"/><g class="cls-21"><path class="cls-2" d="M44.65,84.49c-1.08-.06-2.15-.1-3.23-.12-.65,0-1.73-.19-2.29.2,0,0,0,.07,0,.05a3,3,0,0,1,1.42-.06l1.4,0,2.66.06C44.75,84.65,44.75,84.5,44.65,84.49Z" transform="translate(-0.03 -0.01)"/><path class="cls-2" d="M19.28,86.48c-1.08-.06-2.15-.1-3.23-.12-.65,0-1.73-.19-2.29.2,0,0,0,.07,0,.05a3,3,0,0,1,1.42-.06l1.4,0,2.66.06C19.38,86.64,19.38,86.49,19.28,86.48Z" transform="translate(-0.03 -0.01)"/><path class="cls-2" d="M31.3,83.13A7.34,7.34,0,0,0,29,83a15.64,15.64,0,0,1-2.5-.07c-.17,0-.21.27,0,.3a9,9,0,0,0,2.29,0,24,24,0,0,1,2.5,0A.06.06,0,0,0,31.3,83.13Z" transform="translate(-0.03 -0.01)"/><path class="cls-2" d="M39.44,83.12c.44.07.89.09,1.34.12.15,0,.15-.22,0-.23-.43-.05-.87-.1-1.31-.11C39.35,82.9,39.31,83.1,39.44,83.12Z" transform="translate(-0.03 -0.01)"/><path class="cls-2" d="M52.89,81.71a6.25,6.25,0,0,1,1.14-.2.08.08,0,0,0,0-.15,2.47,2.47,0,0,0-1.18.21C52.78,81.6,52.81,81.73,52.89,81.71Z" transform="translate(-0.03 -0.01)"/><path class="cls-2" d="M54.83,81.48a13.59,13.59,0,0,0,2.38,0,8.12,8.12,0,0,0,2-.25c.08,0,.07-.17,0-.16-1.46.19-2.94,0-4.39.26C54.74,81.36,54.77,81.47,54.83,81.48Z" transform="translate(-0.03 -0.01)"/><path class="cls-2" d="M59.57,81.08c-.05,0-.05.09,0,.08.53,0,1.06-.11,1.59-.19,0,0,0-.05,0-.05C60.62,81,60.1,81,59.57,81.08Z" transform="translate(-0.03 -0.01)"/><path class="cls-2" d="M32.56,81.57a15,15,0,0,0,3.18,0,12.33,12.33,0,0,1,1.57-.11c.69,0,1.36.1,2,.19.09,0,.13-.11,0-.14a12.33,12.33,0,0,0-3.25-.26c-1.17,0-2.36.06-3.53.07C32.44,81.29,32.39,81.55,32.56,81.57Z" transform="translate(-0.03 -0.01)"/><path class="cls-2" d="M47,79.64c1.22,0,2.44,0,3.65-.1a0,0,0,0,0,0-.09c-1.21-.09-2.44,0-3.65,0A.09.09,0,0,0,47,79.64Z" transform="translate(-0.03 -0.01)"/><path class="cls-2" d="M52.71,79.51c.05,0,.05-.08,0-.08-.59,0-1.2.08-1.8.07,0,0,0,0,0,0A11.57,11.57,0,0,0,52.71,79.51Z" transform="translate(-0.03 -0.01)"/><path class="cls-2" d="M61.65,85.79a28.22,28.22,0,0,0-6.59,0c-.14,0-.15.23,0,.22,2.19-.12,4.4-.2,6.59-.15C61.71,85.87,61.71,85.79,61.65,85.79Z" transform="translate(-0.03 -0.01)"/><path class="cls-2" d="M63,85.78a0,0,0,0,0,0-.06A0,0,0,0,0,63,85.78Z" transform="translate(-0.03 -0.01)"/><path class="cls-2" d="M63.88,85.59a0,0,0,0,0,0,.06c.38-.08.76-.1,1.14-.15.08,0,.08-.12,0-.12A4.74,4.74,0,0,0,63.88,85.59Z" transform="translate(-0.03 -0.01)"/><path class="cls-2" d="M75.05,82.83a20,20,0,0,1-3.26.24c-1.06,0-2.11.1-3.16.19a.06.06,0,0,0,0,.12,26.63,26.63,0,0,0,6.45-.45C75.15,82.91,75.12,82.81,75.05,82.83Z" transform="translate(-0.03 -0.01)"/><path class="cls-2" d="M69.55,81.19c1.26-.06,2.56-.15,3.81-.28a.11.11,0,0,0,0-.21,13.88,13.88,0,0,0-3.84.34A.08.08,0,0,0,69.55,81.19Z" transform="translate(-0.03 -0.01)"/><path class="cls-2" d="M65.84,80c1.71,0,3.47,0,5.18-.16a.06.06,0,0,0,0-.13c-1.71-.08-3.47,0-5.18.13A.08.08,0,0,0,65.84,80Z" transform="translate(-0.03 -0.01)"/><path class="cls-2" d="M95.66,84.91c-.74,0-1.46.2-2.2.25s-1.48,0-2.22.11c-.07,0-.1.13,0,.14a11.16,11.16,0,0,0,4.46-.31C95.79,85.07,95.78,84.9,95.66,84.91Z" transform="translate(-0.03 -0.01)"/><path class="cls-2" d="M89.86,83c.86,0,1.73-.12,2.58-.2,0,0,0-.06,0-.06a37.83,37.83,0,0,1-4.15-.09,9.49,9.49,0,0,0-3.48.2h-.05c-.08,0-.08.12,0,.12l0,0a2.82,2.82,0,0,0,1.46,0,12.57,12.57,0,0,1,2,.05c.49,0,1,0,1.47,0h.1Z" transform="translate(-0.03 -0.01)"/><path class="cls-2" d="M89.19,81.08c-.86,0-1.76.05-2.6.18-.08,0-.06.13,0,.14.89.06,1.82,0,2.72-.05s1.89-.09,2.84-.19a.07.07,0,0,0,0-.14C91.17,81,90.19,81,89.19,81.08Z" transform="translate(-0.03 -0.01)"/><path class="cls-2" d="M92.71,82.77a0,0,0,0,0,0,0A0,0,0,0,0,92.71,82.77Z" transform="translate(-0.03 -0.01)"/><path class="cls-2" d="M93.26,82.74a3.89,3.89,0,0,0,.61-.07,0,0,0,0,0,0-.07,3.84,3.84,0,0,0-.6.07S93.21,82.75,93.26,82.74Z" transform="translate(-0.03 -0.01)"/><path class="cls-2" d="M94.13,82.67a1.09,1.09,0,0,0,.22,0,0,0,0,0,0,0-.06,1.09,1.09,0,0,0-.22,0A0,0,0,0,0,94.13,82.67Z" transform="translate(-0.03 -0.01)"/><path class="cls-2" d="M86.22,79.47a.12.12,0,0,0,0-.24,17.83,17.83,0,0,0-3.14,0,4,4,0,0,1-.88.15c-.24,0-.43-.07-.66-.09-.49,0-.92.3-1.4.23a.06.06,0,0,0,0,.11,2.16,2.16,0,0,0,1,0c.48-.07.89.16,1.37.08a10.36,10.36,0,0,1,1.83-.21C84.95,79.5,85.59,79.46,86.22,79.47Z" transform="translate(-0.03 -0.01)"/><path class="cls-2" d="M74.15,78.65c2.34-.37,4.75-.2,7.11-.36a.09.09,0,0,0,0-.17,29.54,29.54,0,0,0-7.14.43C74,78.56,74.08,78.66,74.15,78.65Z" transform="translate(-0.03 -0.01)"/><path class="cls-2" d="M85.89,76.59c1.22,0,2.43,0,3.65,0s2.45,0,3.65-.09a.06.06,0,0,0,0-.13c-1.2-.06-2.45,0-3.65,0s-2.43.06-3.65.1A.06.06,0,0,0,85.89,76.59Z" transform="translate(-0.03 -0.01)"/><path class="cls-2" d="M84.42,76.76a3.62,3.62,0,0,0,.84-.08.08.08,0,0,0,0-.16,3.55,3.55,0,0,0-.82,0C84.3,76.58,84.29,76.76,84.42,76.76Z" transform="translate(-0.03 -0.01)"/><path class="cls-2" d="M37.72,85.83c-5,.3-10.06-.73-15.07.12-.07,0,0,.12,0,.1,5-.75,10,.5,15-.09C37.8,85.95,37.81,85.82,37.72,85.83Z" transform="translate(-0.03 -0.01)"/><path class="cls-2" d="M38.52,88c-1.61.1-3.21.13-4.83.15a.11.11,0,0,0,0,.22,22.91,22.91,0,0,0,4.83-.16C38.65,88.15,38.66,87.95,38.52,88Z" transform="translate(-0.03 -0.01)"/><path class="cls-2" d="M44.65,88.32a11,11,0,0,0-1.72.09c-.07,0,0,.11,0,.12a10.93,10.93,0,0,0,1.7-.09C44.73,88.43,44.73,88.32,44.65,88.32Z" transform="translate(-0.03 -0.01)"/><path class="cls-2" d="M24.79,87.69a7.71,7.71,0,0,0-2.88,0s0,.05,0,.05a24.87,24.87,0,0,0,2.85.06C24.84,87.8,24.86,87.7,24.79,87.69Z" transform="translate(-0.03 -0.01)"/><path class="cls-2" d="M28.25,87.84c-1-.06-1.95-.11-2.91-.23,0,0,0,.05,0,.06a9.91,9.91,0,0,0,2.92.32A.07.07,0,0,0,28.25,87.84Z" transform="translate(-0.03 -0.01)"/><path class="cls-2" d="M22.45,80.14c-1-.06-1.95-.11-2.91-.23,0,0,0,.05,0,.06a9.91,9.91,0,0,0,2.92.32A.07.07,0,0,0,22.45,80.14Z" transform="translate(-0.03 -0.01)"/><path class="cls-2" d="M53.28,83.71a.08.08,0,0,0,0,.16c1.7,0,3.41,0,5.1-.06a.09.09,0,0,0,0-.18C56.68,83.63,55,83.63,53.28,83.71Z" transform="translate(-0.03 -0.01)"/><path class="cls-2" d="M59.06,83.64a0,0,0,0,0,0,.06,14.25,14.25,0,0,0,2.73-.17c.06,0,0-.1,0-.1C60.88,83.49,60,83.56,59.06,83.64Z" transform="translate(-0.03 -0.01)"/><path class="cls-2" d="M53.7,87.66A28.48,28.48,0,0,0,50,87.61a18,18,0,0,0-3.45.24c-.1,0-.07.16,0,.17a34.06,34.06,0,0,0,3.57-.14c1.19,0,2.38,0,3.57-.11A.06.06,0,0,0,53.7,87.66Z" transform="translate(-0.03 -0.01)"/><path class="cls-2" d="M54.92,87.6l-.62.08s0,.09,0,.09l.63-.07C55,87.69,55,87.59,54.92,87.6Z" transform="translate(-0.03 -0.01)"/><path class="cls-2" d="M55.26,87.55a0,0,0,0,0,0,0A0,0,0,0,0,55.26,87.55Z" transform="translate(-0.03 -0.01)"/><path class="cls-2" d="M56.55,87.55h-.48a0,0,0,0,0,0,0h.48A0,0,0,0,0,56.55,87.55Z" transform="translate(-0.03 -0.01)"/><path class="cls-2" d="M57.7,87.42l-.75.14s0,0,0,0l.75-.11S57.75,87.41,57.7,87.42Z" transform="translate(-0.03 -0.01)"/><path class="cls-2" d="M56.13,79.3c1.66,0,3.31-.14,5-.2a.07.07,0,0,0,0-.14c-1.66,0-3.31.05-5,.21C56.06,79.19,56.05,79.31,56.13,79.3Z" transform="translate(-0.03 -0.01)"/><path class="cls-2" d="M59.46,78.09a10.62,10.62,0,0,0,1.22,0,.05.05,0,0,0,0-.11,10.63,10.63,0,0,0-1.22,0A0,0,0,0,0,59.46,78.09Z" transform="translate(-0.03 -0.01)"/><path class="cls-2" d="M40.28,79.16c1,0,2,0,2.92,0s2,0,2.92-.07a.06.06,0,0,0,0-.12c-1,0-2,0-2.92,0s-2,0-2.92.08A0,0,0,0,0,40.28,79.16Z" transform="translate(-0.03 -0.01)"/><path class="cls-2" d="M27.34,80.44a18.07,18.07,0,0,0,4.1.08.05.05,0,0,0,0-.11c-2.29-.19-5,.21-7.05-1-.09-.06-.17.08-.08.15A6.19,6.19,0,0,0,27.34,80.44Z" transform="translate(-0.03 -0.01)"/><path class="cls-2" d="M31.85,80.5c.68,0,1.36,0,2,0a.07.07,0,0,0,0-.13c-.68,0-1.36,0-2,0A0,0,0,0,0,31.85,80.5Z" transform="translate(-0.03 -0.01)"/><path class="cls-2" d="M61.37,80.29c1.37.08,2.78.17,4.15.11a.06.06,0,0,0,0-.12c-1.36-.14-2.78-.13-4.15-.13A.07.07,0,0,0,61.37,80.29Z" transform="translate(-0.03 -0.01)"/><path class="cls-2" d="M77.1,87.09c-1.45-.09-2.9-.2-4.35-.3a.08.08,0,0,0,0,.16,12.71,12.71,0,0,0,4.38.23A0,0,0,0,0,77.1,87.09Z" transform="translate(-0.03 -0.01)"/><path class="cls-2" d="M77.91,87.13a0,0,0,0,0,0,0A0,0,0,0,0,77.91,87.13Z" transform="translate(-0.03 -0.01)"/><path class="cls-2" d="M80.43,86.94c-.77,0-1.55.06-2.31.15,0,0,0,.06,0,.06.77,0,1.54-.11,2.31-.18C80.45,87,80.45,86.94,80.43,86.94Z" transform="translate(-0.03 -0.01)"/><path class="cls-2" d="M88.92,86.19c-1.1.3-2.22.47-3.34.72a0,0,0,0,0,0,.06A13.65,13.65,0,0,0,89,86.29.05.05,0,0,0,88.92,86.19Z" transform="translate(-0.03 -0.01)"/><path class="cls-2" d="M85.12,86.95a6.31,6.31,0,0,1-1.29,0s0,0,0,0a5.47,5.47,0,0,0,1.3.06S85.15,86.94,85.12,86.95Z" transform="translate(-0.03 -0.01)"/><path class="cls-2" d="M63.25,78.87a7.56,7.56,0,0,0,4,.12s0-.08,0-.08a15.74,15.74,0,0,1-4-.17A.07.07,0,0,0,63.25,78.87Z" transform="translate(-0.03 -0.01)"/><path class="cls-2" d="M67.48,79a2.8,2.8,0,0,0,.33-.06l.43,0a0,0,0,0,0,0,0,1.22,1.22,0,0,0-.76.13A0,0,0,0,0,67.48,79Z" transform="translate(-0.03 -0.01)"/><path class="cls-2" d="M65.45,87.38a18.14,18.14,0,0,1-3.59.4.06.06,0,0,0,0,.12,10,10,0,0,0,3.63-.4A.06.06,0,0,0,65.45,87.38Z" transform="translate(-0.03 -0.01)"/><path class="cls-2" d="M70.57,87.51c-1.65.19-3.28-.54-4.92-.18,0,0,0,.06,0,.06,1.66-.21,3.27.49,4.93.26C70.66,87.63,70.65,87.5,70.57,87.51Z" transform="translate(-0.03 -0.01)"/><path class="cls-2" d="M65.66,83.68c-.68,0-1.36,0-2,0a.08.08,0,0,0,0,.16c.68,0,1.36,0,2,0A.07.07,0,0,0,65.66,83.68Z" transform="translate(-0.03 -0.01)"/><path class="cls-2" d="M66.27,82.41a.12.12,0,0,0,0,.23h.48a.1.1,0,0,0,0-.2Z" transform="translate(-0.03 -0.01)"/></g><path class="cls-18" d="M100.07,66.46A22.3,22.3,0,0,0,97.81,66c-.12-.73-.64-.93-1.3-.76-.23-1.24-.57-2.22-2-2.23a2.48,2.48,0,0,0-1.83.61c-.43.42-.59,1.06-1,1.48a1.83,1.83,0,0,0-2.37.33c-.23.24-.31.62-.69.65s-.55-.32-.86-.41c-.81-.24-1.31.3-1.89.74a3.66,3.66,0,0,1-1.86.51,12.52,12.52,0,0,1-2.23.26l0-.06-.14.27c0,.47,1.9.22,2.2.2,3.25-.15,6.51,0,9.75-.35a33.53,33.53,0,0,1,4.21-.21c.76,0,1.51-.08,2.27-.1a3.1,3.1,0,0,0,1.33-.14C101.17,66.54,100.47,66.53,100.07,66.46Z" transform="translate(-0.03 -0.01)"/><path class="cls-18" d="M55.52,35.79c-1.15-.86-1.13-1.49-2.88-1.49-.78,0-.65.34-1.45.17-.58-.12-1.09-.71-1.72-.84a2.23,2.23,0,0,0-2.92,1.65c-1.57-.7-2.42.37-3.57,1-.92.53-3.33.55-3.61,1.4.65.07,1.33.1,2,.14h1.87A57.92,57.92,0,0,1,52,37.74c1.66,0,6.68.34,8-.58C60.13,36.6,56.4,36.45,55.52,35.79Z" transform="translate(-0.03 -0.01)"/><path class="cls-18" d="M37.51,57.72a27.44,27.44,0,0,0-4.76-.17.3.3,0,0,0-.21-.12,17,17,0,0,0-3.23-.24c-.53,0-1,.17-1.56.2-.26,0-.49,0-.73,0a7.9,7.9,0,0,0-2.16.09l-.65.05-.72,0-.29,0c-1.1-.21-2.15-.64-3.24-.88a12.94,12.94,0,0,0-4.19-.22A22.24,22.24,0,0,0,14,59.8c1.36-.05,2.72-.16,4.09-.21.54,0,1.07-.06,1.6-.1l6.34-.05h3.08c1.45,0,2.91.21,4.35.11.16,0,.22-.26,0-.29-1.65-.31-3.35-.14-5-.31-.83-.09-1.68-.13-2.54-.15l-.19-.24a4.54,4.54,0,0,0,1.36-.35l.24,0,1-.08.49,0a28.68,28.68,0,0,0,3.56,0,.34.34,0,0,0,.21-.08,24.64,24.64,0,0,0,3.94-.27h.9S37.54,57.72,37.51,57.72ZM21,57.45l0,0,.48,0,.13,0Zm1,.19a.29.29,0,0,0-.08-.11l.41.09Z" transform="translate(-0.03 -0.01)"/><path class="cls-18" d="M68.84,53.61a22.15,22.15,0,0,0-3,.19c-1,.07-2,0-3,.11a0,0,0,0,0,0,.09c1.05.06,2.11,0,3.16-.05a14.2,14.2,0,0,0,2.91-.17C69,53.76,68.93,53.62,68.84,53.61Z" transform="translate(-0.03 -0.01)"/><path class="cls-18" d="M67.14,50.38q-5.17.15-10.34.25h-.31l-.39,0-.9-.24-.08,0c0-.13.14-.26.41-.34h0l4.28,0h.26s0,0,0,0q-1.44-.12-2.88-.21h.68c2.5-.07,5-.37,7.45-.54.08,0,.08-.13,0-.12-2.47.19-5,.15-7.45.22s-5,.2-7.46.21a.07.07,0,0,0-.07.07,28.09,28.09,0,0,0-5.54.47.08.08,0,0,0,0,.15c.72,0,1.43-.06,2.15-.1h1c.86.16,1.77.18,2.63.26h0a.19.19,0,0,0,0,.07l-.39.11a.19.19,0,0,0-.13.17l0,0-.67,0h-.05a11.26,11.26,0,0,0-2.95.25.09.09,0,0,0,0,.19c.71,0,1.43-.05,2.14-.09h.59a.24.24,0,0,0,.24.18q4.78,0,9.57-.16h1l.42,0a0,0,0,0,0,.05,0A59.88,59.88,0,0,0,67,50.65a.1.1,0,0,0,.08-.07h.06C67.26,50.56,67.26,50.38,67.14,50.38Zm-13.83.13h.15v0h-.33Z" transform="translate(-0.03 -0.01)"/><path class="cls-18" d="M43.93,48.32l-1.24,0a11.93,11.93,0,0,1-1.81-.47,6.24,6.24,0,0,0-2.48-.3c-1.73.16-3-1.24-4.76-.8a4.2,4.2,0,0,1-1.67.16c-.46-.06-.91-.16-1.37-.21a11.33,11.33,0,0,0-1.86,0,27.06,27.06,0,0,0-5.85,2.67l2-.09a.23.23,0,0,0,.11,0q1.28,0,2.55-.14c3.67-.17,7.35-.35,11-.46a.23.23,0,0,0,.16,0l.88-.07,2.82-.06a4.13,4.13,0,0,0,1.57,0A.14.14,0,0,0,43.93,48.32ZM24.67,49l-.33,0,.34-.05Z" transform="translate(-0.03 -0.01)"/><path class="cls-18" d="M47.55,68.67a13.84,13.84,0,0,0-3.62-.35,5.55,5.55,0,0,1-.74,0c-.65-.06-.4-.18-.81-.28a2.49,2.49,0,0,0-.49-.07,1,1,0,0,1-.65-.18c-.53-.29-1-.68-1.65-.3a1,1,0,0,0-.5,1,1.08,1.08,0,0,0-.28-.11c-1-.64-2.74.22-3.59.58a.2.2,0,0,0,.11.38c.39-.05.78-.1,1.17-.13,3.69,0,7.35-.3,11-.53C47.58,68.76,47.6,68.68,47.55,68.67Z" transform="translate(-0.03 -0.01)"/><path class="cls-6" d="M100.44,62.4v-.56a112.68,112.68,0,0,1-9.72-9.74V52h-.07A99.71,99.71,0,0,1,79.72,37.36a.24.24,0,0,0-.3-.09h0a.17.17,0,0,0-.19,0,4.75,4.75,0,0,1-2.11,1c-1.3,0-2.51.36-3.83-1.14a.34.34,0,0,0-.57.1,3.21,3.21,0,0,0-.07.79c-.16.64-.78,3.18-1.71,6.74-.3,1.15-.64,2.41-1,3.74h0v.08c-.28,1-.58,2.11-.9,3.23-.73,2.57-1.54,5.31-2.45,8C66.18,60.93,65.8,62,65.39,63h0l-.32.81a20.51,20.51,0,0,1-.89,1.9c-.32.62-.65,1.22-1,1.81A12.6,12.6,0,0,1,62,69.21l-.12.13a5.46,5.46,0,0,1-.5-.79h0a10.82,10.82,0,0,1-.62-1.47V67h0a23,23,0,0,1-.69-2.57v0h0a37.92,37.92,0,0,1-.61-3.84,0,0,0,0,0,0,0,0,0,0,0,0,0,0v.07A.41.41,0,0,1,59,61c-.34,0-1.61.27-1.85-.48,0,0-.2.36-.13.54s0,4.47,0,4.47h-.27v6.35a.19.19,0,0,0-.09.21c0,.07,0,.11.1.14v4.47h-.4v.47a5.6,5.6,0,0,0-1.76.19l0,.4a39.54,39.54,0,0,0,7,0V77.3a5.71,5.71,0,0,0-1.79-.18v-.43h-.24V71.93c1.9-.07,3.88,0,5.69,0,2.21,0,4.42.19,6.64.43l0,10.74H70.8v1.41c-3.86.11-6.55.35-6.55.63l-.07,1.27a125.05,125.05,0,0,0,22.26.09V85.12c0-.25-2.31-.47-5.72-.58V83.19H80l0-9.74c1.23.18,2.46.35,3.69.5q5.49.7,11,1.36l0,17.22h2.46l0-23.53c1.29,1.35,2.42,2.53,3.34,3.46v-.61c-.93-1-2.06-2.13-3.34-3.47v-.94l-.95-.07-1.93-2.06,0-8.81C96.13,58.44,98.2,60.43,100.44,62.4ZM58.15,75.14l.62.59H57.54Zm-.89.56V74.29L58,75Zm.89-.86-.63-.6h1.26ZM57.51,74l.61-.61.65.61ZM57.26,74V72.9a.3.3,0,0,1,.09-.21l.61.57Zm.86-.86-.56-.52h1.09ZM59,76.39a.35.35,0,0,1-.36.33H57.63a.35.35,0,0,1-.37-.33v-.44H59Zm0-.71L58.31,75l.73-.7ZM59,74l-.76-.71.62-.61a.31.31,0,0,1,.14.25Zm33.3-19.44q.81.87,1.67,1.75l0,8.79-1.67-1.81ZM75.86,78.78l1.79,1.7H74.1Zm-2.55,1.59v-4l2.1,2Zm2.54-2.47L74,76.17h3.6ZM74,75.57l1.75-1.75,1.86,1.74Zm1.73-2.63-.12-.12.21,0Zm-10-1.83h0l-.21-.92.52,0Zm.33-.94.27.95h-.56Zm3,1L69,70h.42Zm.32-1,.21,1.11-.48,0Zm-.38,1.08-.52,0,.38-1Zm-.58,0h0l-.24-1.1.66,0Zm-.06,0-.58,0,.34-1.08h0Zm-.11-1.55-.51,0V66.56l.51-.82Zm-.18.45-.34,1.08-.38-1Zm-.39,1.08h-.66l.31-1Zm-.7,0h0l-.29-1h0l.66,0Zm-.08,0h-.48l.21-.89Zm4.46.09L71.1,70h.73Zm.48-1.16,0,.25v1l-.48,0Zm-.54,1.23-.87,0L71,70h0Zm-.94-.06L70.18,70l.76,0Zm-.07,0-.58,0L70.12,70Zm5.64.19h.13l-.05.2h0Zm1.05.24.07-.24h.17Zm.72-27h-.4l.3-.87.1-.29Zm2.54,25.42.3,2L80,72V70.84Zm-.28.37V70h.16ZM81.3,70l-.6,1.75L80.42,70l.9,0Zm0,.31.31,1.78-.9-.08Zm4.6-.18-.74,2.17-.43-2.21,1.18,0Zm.08.32.58,2.11-1.26-.12Zm-1,2-.93-.09.54-1.94Zm-1-.35-.6-2,1.15,0Zm-.1.24-1-.09.38-1.91Zm4.07.1-.6-2.24,1.26.05Zm.79-1.91.64,2.33-1.32-.13Zm-.91,2.18-1-.1.44-2.08Zm1.79.17.69-2.32L91.17,73Zm2.69-9L94,65.69v3.53l-1.66,0Zm.84,6.6v2.45l-.89-2.5Zm-.13,2.74-1.64-.16.73-2.4ZM90.72,52.74l1.4,1.54,0,8.73-1.4-1.54Zm0,9.36,1.4,1.54v5.55l-1.39,0ZM92,70.42l-.71,2.34-.81-2.41ZM89,50.79q.72.84,1.49,1.71l0,8.72-.27-.3L89,59.54Zm0,9.4.87,1,.62.69v7.31l-1.48,0Zm1.18,10.15-.66,2.23-.63-2.29Zm-3-21.71q.75.93,1.58,1.9l0,8.77-1.58-1.81Zm0,9.51,1.58,1.8,0,9.22H87.25Zm-.5,14.24-.61-2.2h0l1.06,0ZM85.5,46.47q.7.91,1.49,1.88l0,8.87-1.49-1.74Zm0,9.67L87,57.88l0,11.26H85.54ZM84,44.45q.63.85,1.34,1.78h0l0,9L84,53.64Zm0,9.86,1.31,1.56,0,13.26H84Zm-1.55-12c.4.57.83,1.18,1.31,1.82l0,9.22-1.31-1.61Zm0,10.12L83.77,54l0,15.09h-1.3Zm.77,17.63-.36,1.84-.41-1.86Zm-.45,2.17-1-.09.54-1.87Zm-1-.39-.32-1.79,0,0,.85,0Zm-.94-31.91c.39.6.86,1.29,1.4,2.07l0,9.47-1.4-1.78Zm0,10.46,1.4,1.76,0,17H80.88ZM79.47,37.79c.19.32.57.94,1.13,1.81l0,9.82-1.13-1.49Zm0,10.85,1.13,1.47,0,19H80L80,51h-.48ZM78,40.4l.13,0-.13.44Zm0,2.44c.24-.72.45-1.36.63-1.92a.84.84,0,0,1,.08.36v2.44a1,1,0,0,1-.71.88Zm0,4.27a.94.94,0,0,1,.64.86v2.44a.94.94,0,0,1-.64.86ZM78,54a.93.93,0,0,1,.57.83V59a.93.93,0,0,1-.57.83Zm0,8.44a.93.93,0,0,1,.57.83v5a.93.93,0,0,1-.57.83Zm0,9.17a1,1,0,0,1,.19.18l-.22,0ZM76.94,40.35h.8v1.26c-.19.61-.4,1.29-.64,2l-.16.49ZM77,47h.62l.18,0v4.28l-.18,0H77Zm0,6.88h.55a1.14,1.14,0,0,1,.25,0v6a1.14,1.14,0,0,1-.25,0H77Zm0,8.44h.55a1.14,1.14,0,0,1,.25,0v6.82l-.8,0ZM76.9,71.7h0l-.75-.07.06-.21h.63Zm-1-31.36h.83V44q-.43-.64-.83-1.27Zm0,3.21.73,1.1H75.9Zm0,3.48H76l-.1.29Zm0,1.7.61-1.7h.21v4.32h-.83Zm0,5.18h.83v6h-.83Zm0,8.44h.83v6.88l-.57,0h-.26Zm0,9.26-1.09-.09,0-.1h1Zm-.24-20.27h-.76q.39-1,.76-2Zm-1-11h1v2.06q-.52-.83-1-1.62Zm0,1.3q.46.77,1,1.57v1.45h-1Zm0,5.39h1V48c-.31.9-.63,1.82-1,2.77Zm0,6.88h1v6h-1Zm0,8.44h1v6.89h-1Zm0,9.07,0,.09h0l0-.09Zm-.16.08-.42,0,0,0,.18,0h.25Zm-1-30.22a.91.91,0,0,1,.45-.77l.43.76v3.38a1,1,0,0,1-.89-.92ZM73.53,48a1,1,0,0,1,1-.93v4.3a1,1,0,0,1-1-.93Zm-.06,7,0-.1.31-.75a1.1,1.1,0,0,1,.67-.24v6a1,1,0,0,1-1-.93Zm0,8.28a1,1,0,0,1,1-.94v6.89a1,1,0,0,1-1-.93Zm-1.1-21.75.27-1c0,3.65,0,10.64,0,10.64H72.4Zm-1,3.69.09-.33c.26-.92.49-1.78.7-2.55l0,8.82h-.29V58c-.17.4-.34.8-.51,1.19Zm0,14.55.21-.45.3-.66,0,10.73-.51,0Zm-1.34-10c.39-1.34.76-2.62,1.09-3.8l0,13.7-.42.94q-.33.74-.67,1.44Zm0,12.66q.43-.85.87-1.75l.23-.48,0,9.18-1.1.06Zm0,7.51-.38,1.17L69.48,70Zm-.82-17.44.19-.61.46-1.55,0,12.05-.43.86-.22.43Zm0,11.48.36-.67.29-.55v6.69l-.65,0Zm-.83-8.85q.33-1.05.65-2.08l0,11q-.33.62-.65,1.19Zm0,10.28q.32-.54.65-1.13v5.23l-.65,0Zm-.18-9.75,0,9.83,0,.09-.46.78,0-9.11h0ZM67,59.57q.31-.89.61-1.78l0,8.89c-.19.3-.37.59-.55.85l-.05.08Zm0,8.14.11-.15c.16-.23.33-.48.5-.74v2.84l-.61,0Zm-.76-6.08q.32-.84.62-1.69l0-.05v7.89l-.38.52-.25.34v-7Zm0,7.07,0,0,.25-.33.34-.45v1.85l-.64.05Zm.41,1.42h0l-.23,1-.26-.94ZM65.5,63.52q.33-.79.63-1.59v6.86l-.12.14-.41.5-.1.11Zm0,6,.12-.12.42-.49.1-.11v.95l-.64.06Zm0,.63.21.92h-.55l.33-.91ZM65,64.63l.31-.69.07-.16v5.87l-.12.12-.09.09-.17,0Zm.39,5v.18l-.2,0,.09-.09Zm.07.52-.32.91h0L65,70.22Zm-1.61.11.48,0-.25.84h0Zm.18.8h-.46l.22-.81h0Zm.33-.82.21.82h-.45Zm0,0,.5,0-.25.88h0Zm.54,0h0l.15.88h-.41Zm-.27-4.85c.1-.2.2-.41.3-.62v5.14l-.3,0Zm-.26.48.21-.38v4.45l-.36,0V66.16h0Zm-.49.88.27-.49V70l-.27,0Zm-.46.77.4-.67V70l-.4,0Zm0,2.84h0l.31,0-.22.81h0l-.11-.39c0-.13-.08-.25-.12-.38h.18Zm-1.92.19.54-.06-.18.7Zm.35.64-.5,0,.09-.66h0Zm.2-.71h0l.26.69-.46,0Zm0,0,.4,0-.14.73h0Zm.42,0h0l.28.71-.43,0Zm0,0,.58-.06,0,.09-.09.25-.17.44h0Zm.49.28.09-.25,0-.09h.06c0,.13.08.25.12.38l.11.38-.58,0Zm0-2.63.26-.41,0-.06v2.48l-.3,0Zm-.34.49.28-.4v2l-.15,0-.13-.06Zm-.34.45.29-.37v1.42L62.61,70l-.19-.13Zm0,.93.16.11.13.07v.05l-.29,0Zm-.25-.62.2-.24v.75a2.85,2.85,0,0,1-.35-.35Zm-.19.2h0a2.83,2.83,0,0,0,.39.38v.32l-.39.06ZM61.6,69c.09.14.17.26.27.38l-.26.26Zm0,.87c.11-.09.22-.19.32-.29v.71l-.32.05Zm-.2-1.2.15.26h0v.77l-.14.12Zm0,1.36h0l.12-.1v.43l-.14,0Zm-.28-1.92q.11.24.22.46v1.31l0,0-.19.13Zm0,2.1.22-.13v.32l-.22,0Zm.35.36-.09.66h0l-.25-.62Zm-.37,0,.25.62-.42,0,.15-.65Zm-.33-3.37c.09.26.19.51.3.75h0V70a1.48,1.48,0,0,1-.29.13Zm0,3.1a1.49,1.49,0,0,0,.29-.11v.2l-.29.05Zm.29.28-.15.65h0l-.22-.6Zm-.16.65-.36,0,.14-.63Zm-.47-5.07c.09.3.18.6.28.88v3.12a.92.92,0,0,1-.28,0Zm0,4.17a1.12,1.12,0,0,0,.28,0v.15l-.28.05Zm-.39-5.68c.1.44.21.88.33,1.32h0v4.21a.82.82,0,0,1-.32-.12Zm0,5.58a1,1,0,0,0,.32.1v.2l-.32.07Zm-.24-6.72c.05.29.11.59.18.89v5.64a1.26,1.26,0,0,1-.18-.15Zm0,6.56.1.08.08.05v.41l-.18,0Zm.85.57-.14.63h0l-.21-.55h0l-.13.58H60.1l-.29-.54Zm-.18.63-.33,0,.13-.57Zm-.7-.49.29.54-.37,0,.08-.59Zm-.08.59h-.08l0-.11V71a.18.18,0,0,0,0-.15l.18,0Zm-.08,0h0v-.12Zm0-.67v-.88a1.66,1.66,0,0,0,.18.2v.64Zm0-8.8c.06.38.12.83.21,1.31h0v6.61l-.07-.09-.1-.15V65.42h0Zm-.14-1.09c0,.18.05.43.09.75h0v3.84h-.08Zm-.32,1a.3.3,0,0,1,0,.16v.85a.3.3,0,0,1,0,.16Zm0,2.39a.29.29,0,0,1,0,.11v.85a.29.29,0,0,1,0,.11Zm-.18-2.54a.37.37,0,0,1,.12.08v1.3a.37.37,0,0,1-.12.08Zm0,2.35a.36.36,0,0,1,.12.09v1.25a.36.36,0,0,1-.12.09Zm0,2.42a.35.35,0,0,1,.12.11v1.71L58.93,68Zm0,1.84,0,.14,0,0Zm0,1.12a.35.35,0,0,1,.12.11v1.22l-.12,0Zm0,1.79.12,0v.29l-.12,0Zm-.27-9.53h.2v1.49h-.2Zm0,2.34h.09l.11,0v1.48l-.11,0h-.09Zm0,2.41h.06l.13,0v1.31c0-.13-.08-.25-.12-.38l-.08-.26Zm0,1.07q.09.32.2.65v.37l-.13,0h-.06Zm0,1.88h.06l.13,0v1.41l-.2.06Zm0,1.91.2-.06v.27l-.2,0Zm-.2-9.61h.12V63.2h-.12Zm0,2.34h.12v1.51h-.12Zm0,2.41h.12v.5l-.12-.43Zm0,.43.12.44v1.24H58.5Zm0,2.52h.12v1.5l-.12,0Zm0,2,.12,0v.23l-.12,0Zm-.25-9.66h.17v1.51h-.17Zm0,2.34h.17v1.51h-.17Zm0,2.41h.11l.06.23v1.88h-.17Zm0,3h.17V71l-.17,0Zm0,2,.17,0v.21l-.17,0ZM58,61.7h.2v1.51H58ZM58,64h.2v1.4l-.2-.82Zm0,.86.15.64H58Zm0,1.54h.2v2.11H58Zm0,3h.2V71l-.2.06Zm0,2.1.2-.06v.18l-.2,0Zm-.2-9.79h.12v1.51h-.12ZM58,64v.34L57.88,64Zm-.12,0,.11.51v1h-.12Zm0,2.36H58v2.11h-.12Zm0,3H58v1.69l-.12,0Zm0,2.15h0l.12,0v.15l-.5.08-.07-.07.44-.13Zm-.37-9.75a.39.39,0,0,1,.25-.09h0v1.51h-.08l-.17-.81-.05-.26Zm0,.48,0,.12.15.8a.38.38,0,0,1-.18-.08Zm0,1.84A.39.39,0,0,1,57.7,64h.07v1.51h-.07a.39.39,0,0,1-.23-.07Zm0,2.39a.39.39,0,0,1,.2-.06h.1v2.11h-.1a.39.39,0,0,1-.2-.06Zm0,3a.39.39,0,0,1,.2-.06h.1v1.74l-.3.09ZM57.36,62a.3.3,0,0,1,0-.15l0,.09v1.09a.3.3,0,0,1-.06-.17Zm0,2.34a.3.3,0,0,1,.08-.2v1.26a.3.3,0,0,1-.08-.2Zm0,2.41a.31.31,0,0,1,.1-.23v1.91a.31.31,0,0,1-.11-.23Zm0,3a.31.31,0,0,1,.1-.23v1.75l-.11,0Zm17.23,3,.75.71-2,2V72.53Zm3.85,9.66a1,1,0,0,1-1,.94h-3a1,1,0,0,1-1-.93V81.08H78.4Zm0-2-2.08-2,2.08-2Zm0-4.9-2.18-2,.41-.41,1.76.25Zm17.16-8.09-.88-.06v2h-.42v-3.3Z" transform="translate(-0.03 -0.01)"/><polygon class="cls-11" points="100.06 89.44 101.98 90.76 55.92 117.32 9.96 90.8 11.75 89.69 11.75 87.44 14.85 88.21 26.35 89.46 30.86 90.27 94.22 90.33 95.16 89.3 100.06 89.44"/><path class="cls-11" d="M95.19,89.31l-9.87.17-13.47-.17L58,89.53l-14.47-.11-6.44.11H31.49l-3.8-.11-1.31,0,.75,3.06s13,2.54,14.31,2.54,24.51-.63,25.57-.69,17.33-.81,17.33-.81l9.61-1,1.54-1.72Z" transform="translate(-0.03 -0.01)"/><polygon class="cls-22" points="93.72 35.04 93.64 35.26 93.82 37.07 98.33 39.88 99.47 58.76 99.9 66.16 100.04 66.45 100.12 56.88 100.11 38.72 93.72 35.04"/></g></g></svg>