<svg xmlns="http://www.w3.org/2000/svg" xmlns:xlink="http://www.w3.org/1999/xlink" viewBox="0 0 110.85 128"><defs><style>.cls-1,.cls-10,.cls-33{fill:#fff;}.cls-14,.cls-2{isolation:isolate;}.cls-3{fill:url(#linear-gradient);}.cls-4{clip-path:url(#clip-path);}.cls-5{fill:#25e899;}.cls-6{fill:none;stroke:#0e2947;stroke-linecap:round;stroke-linejoin:round;stroke-width:0.5px;}.cls-7{fill:url(#linear-gradient-2);}.cls-8{fill:#393;}.cls-9{fill:#cff;opacity:0.61;}.cls-10{opacity:0.89;}.cls-11{fill:#0f6;}.cls-12{fill:#696;}.cls-13{fill:#363;}.cls-14{fill:#ffc147;opacity:0.88;}.cls-15{opacity:0.7;}.cls-16,.cls-18,.cls-45{fill:gray;}.cls-16{opacity:0.35;mix-blend-mode:color-burn;}.cls-17,.cls-45{opacity:0.5;mix-blend-mode:multiply;}.cls-19{fill:#fb0;}.cls-20{fill:#9c3;}.cls-21{fill:#807f83;}.cls-22{fill:#a2a4a5;}.cls-23{fill:#cbc9cf;}.cls-24{fill:#c5c4c6;}.cls-25{fill:#4e7e23;}.cls-26{fill:#4a2400;}.cls-27{fill:#729d00;}.cls-28{fill:#fcc124;}.cls-29{fill:#f67f20;}.cls-30{fill:#e42a39;}.cls-31{fill:#8db90a;}.cls-32{fill:#557e08;}.cls-33{opacity:0.71;}.cls-34{fill:#f4ddc1;}.cls-35{fill:#efb773;}.cls-36{fill:#625a74;}.cls-37{fill:#66accc;}.cls-38{fill:#ebfff5;}.cls-39{fill:#efc3bf;}.cls-40{fill:#f29083;}.cls-41{fill:#e71508;}.cls-42{fill:#56770e;}.cls-43{fill:#669000;}.cls-44{fill:#70af1a;}.cls-46{fill:#d8a616;}.cls-47{fill:#fec111;}.cls-48{fill:#686868;}.cls-49{fill:#eceff0;}.cls-50{fill:#fbfbfb;}.cls-51{fill:#767676;}.cls-52{fill:#2c2b2e;}.cls-53{fill:#003a51;}.cls-54{opacity:0.6;}.cls-55{fill:#e22313;}</style><linearGradient id="linear-gradient" y1="64" x2="110.85" y2="64" gradientUnits="userSpaceOnUse"><stop offset="0" stop-color="#363"/><stop offset="0.16" stop-color="#363"/><stop offset="0.23" stop-color="#093"/><stop offset="0.33" stop-color="#060"/><stop offset="0.41" stop-color="#060"/><stop offset="0.49" stop-color="#030"/><stop offset="0.5" stop-color="#0f054c"/><stop offset="0.5" stop-color="#1a32a4"/><stop offset="0.51" stop-color="#0f064e"/><stop offset="0.52" stop-color="#100a55"/><stop offset="0.52" stop-color="#121061"/><stop offset="0.52" stop-color="#141972"/><stop offset="1" stop-color="#333"/></linearGradient><clipPath id="clip-path" transform="translate(0 -0.27)"><polygon id="SVGID" class="cls-1" points="101.54 37.39 101.54 90.52 55.53 117.09 9.51 90.52 9.51 37.39 55.53 10.82 101.54 37.39"/></clipPath><linearGradient id="linear-gradient-2" x1="56.17" y1="115.23" x2="56.17" y2="12.21" gradientUnits="userSpaceOnUse"><stop offset="0" stop-color="#39c"/><stop offset="0.41" stop-color="#39c"/><stop offset="0.65" stop-color="#39f"/><stop offset="1" stop-color="#369"/></linearGradient></defs><title>cleanenrgy for clean city</title><g class="cls-2"><g id="Layer_1" data-name="Layer 1"><g id="Layer_63" data-name="Layer 63"><polygon class="cls-3" points="110.85 32 110.85 96 55.43 128 11.08 102.4 10.88 102.28 0 96 0 32 55.43 0 110.85 32"/></g><polygon id="SVGID-2" data-name="SVGID" class="cls-1" points="101.53 37.12 101.53 90.25 55.52 116.82 9.51 90.25 9.51 37.12 55.52 10.56 101.53 37.12"/><g class="cls-4"><polygon class="cls-1" points="54.82 117.07 90.45 95.8 15.48 95.68 54.82 117.07"/></g><path class="cls-1" d="M66.62,117.18l1.57-.9.07.12a3,3,0,0,1,.34.81,1.89,1.89,0,0,1,0,.76,2,2,0,0,1-1,1.37,2.13,2.13,0,0,1-1.69.21,2.28,2.28,0,0,1-.52-4.17,2.23,2.23,0,0,1,.93-.3,2.75,2.75,0,0,1,1.06.17l-.18.63a1.59,1.59,0,0,0-1.49,0,1.56,1.56,0,0,0-.77,1,1.6,1.6,0,0,0,.18,1.25,1.54,1.54,0,0,0,1.05.78,1.57,1.57,0,0,0,1.14-.15,1.32,1.32,0,0,0,.59-.72,1.18,1.18,0,0,0,0-.9l-.95.54Z" transform="translate(0 -0.27)"/><rect class="cls-1" x="70.21" y="112.85" width="0.66" height="4.37" transform="translate(-48.01 50.31) rotate(-29.95)"/><polygon class="cls-1" points="73.3 111.36 75.17 114.61 74.6 114.94 72.73 111.69 71.86 112.19 71.55 111.66 73.86 110.33 74.17 110.86 73.3 111.36"/><path class="cls-1" d="M78.47,108.21l.39.68a1.83,1.83,0,0,0-1.26.17,1.51,1.51,0,0,0-.74,1A1.63,1.63,0,0,0,77,111.3a1.59,1.59,0,0,0,1,.78,1.54,1.54,0,0,0,1.22-.16,1.41,1.41,0,0,0,.46-.39,1.67,1.67,0,0,0,.17-.27,3.41,3.41,0,0,0,.15-.36l.4.69a2.38,2.38,0,0,1-.87.87,2.2,2.2,0,0,1-1.71.23,2.17,2.17,0,0,1-1.37-1,2.25,2.25,0,0,1-.26-1.57,2.19,2.19,0,0,1,1.12-1.57,2.23,2.23,0,0,1,1.15-.29" transform="translate(0 -0.27)"/><path class="cls-5" d="M81.24,108a2.14,2.14,0,0,1-.2-1.71,2.24,2.24,0,0,1,1.07-1.38,2.29,2.29,0,0,1,3.1.84,2.15,2.15,0,0,1,.21,1.72,2.31,2.31,0,0,1-2.7,1.64,2.14,2.14,0,0,1-1.49-1.1m.58-.33a1.62,1.62,0,0,0,3-.35,1.7,1.7,0,0,0-1.16-2,1.54,1.54,0,0,0-1.23.16,1.56,1.56,0,0,0-.76,1,1.58,1.58,0,0,0,.17,1.24" transform="translate(0 -0.27)"/><rect class="cls-1" x="87.19" y="103.07" width="0.66" height="4.37" transform="translate(-40.88 57.52) rotate(-29.97)"/><polygon class="cls-1" points="91.11 105.44 88.78 101.39 93.21 102.69 91.7 100.06 92.27 99.73 94.58 103.75 90.16 102.46 91.68 105.11 91.11 105.44"/><line class="cls-6" x1="76.76" y1="95.78" x2="37.29" y2="95.78"/><line class="cls-6" x1="35.17" y1="95.57" x2="28.62" y2="95.57"/><path class="cls-7" d="M101.41,38V89.48l-3.09,1.74L86,98.16l-.16.09-4.34,2.44L55.66,115.23,30.4,100.69l-4.24-2.44L26,98.16l-12-6.94-3-1.74V38l5-2.89,2.58-1.49,4.26-2.46h0l2.44-1.4L55.66,12.21,88.48,30.69,100,37.21Z" transform="translate(0 -0.27)"/><polyline class="cls-8" points="11.48 89.19 14.5 91.04 96.57 91.04 55.66 114.92"/><path class="cls-9" d="M91,35.61V38.5c-.87.06-1.7.09-2.36.17a61.36,61.36,0,0,1-7.58.23l-.65,0-.69.05h0c-2.38.17-7.52.56-13.18.78h0c-11.68.45-25.65.15-22.64-4.47,1.37-2.1,11.85-.71,15-2.46a6.31,6.31,0,0,0,1.59-1.33.82.82,0,0,0-.07-1.16l-.15-.11c-2.2-1.18-5.14-1-7.1-2.66a1.21,1.21,0,0,1,0-1.94,6.28,6.28,0,0,1,3.12-1c1.42-.18,11.93-.74,21.92-.48l11.49,6.49A10.94,10.94,0,0,0,86,32.35a.83.83,0,0,0-.21,1.15l.11.12A5.51,5.51,0,0,0,88.26,35a12.36,12.36,0,0,0,1.37.34l.61.13C90.45,35.54,90.73,35.58,91,35.61Z" transform="translate(0 -0.27)"/><path class="cls-10" d="M87.08,33v2c-.6,0-1.18.06-1.63.12a42.43,42.43,0,0,1-5.24.16l-.45,0-.48,0h0c-1.65.12-5.2.39-9.11.54h0c-8.08.31-17.74.1-15.65-3.09.95-1.45,8.2-.49,10.35-1.7a4.37,4.37,0,0,0,1.1-.92.57.57,0,0,0,0-.8l-.11-.07c-1.52-.81-3.56-.68-4.91-1.84a.83.83,0,0,1,0-1.34A4.34,4.34,0,0,1,63,25.39c1-.13,8.25-.51,15.16-.33l7.94,4.49a7.57,7.57,0,0,0-2.55,1.2.57.57,0,0,0-.14.8l.07.09a3.81,3.81,0,0,0,1.63,1,8.55,8.55,0,0,0,.95.24l.42.09Z" transform="translate(0 -0.27)"/><path class="cls-1" d="M37,41.8c.12,1.27-1.63,1.94-2.88,2.15a.82.82,0,0,0-.48-.17c-6.73-.19-13.68.82-20.35-.36h0c-.6-.11-1.21-.23-1.8-.38V39.4c1,0,2,.06,3,0a6.57,6.57,0,0,0,4.24-1.75.81.81,0,0,0,0-1.14c-.65-.54-1.42-1.88-2.22-2.13l2.57-1.49,4.24-2.45s0,1,0,1l2.34.14c.79.05,1.78,0,2.84,0,3.87-.19,8.67-.61,8.16,1.8C36,36.45,28.85,34.3,25.82,37a.81.81,0,0,0,0,1.14,5.07,5.07,0,0,0,3.41,1.54c1.59.22,3.21.21,4.8.44C35,40.24,36.92,40.55,37,41.8Z" transform="translate(0 -0.27)"/><path class="cls-11" d="M101.41,64.55V85.16H11.51V41.44a8.4,8.4,0,0,1,1,.94,3.61,3.61,0,0,1,.26.29c.11.12.21.25.31.38l.27.37h0a.22.22,0,0,1,.05.08c.18.24.35.49.51.74.55.84,1,1.72,1.5,2.59.54,1,1.06,2.05,1.55,3.09.61,1.29,1.21,2.6,1.82,3.88a24.12,24.12,0,0,0,3.18,5.41.82.82,0,0,0,1.15,0A38.3,38.3,0,0,0,28.7,52.7c1.31-1.71,2.62-3.42,4-5,.81-.93,1.66-1.82,2.57-2.67,1.88-1.74,4.64-3.78,7.38-3.3,3.06.54,4.86,4,6.1,6.5.08.15.15.3.22.45h0c.63,1.32,1.19,2.68,1.75,4,.43,1,.8,1.84,1.18,2.74,1,2.44,2.05,4.88,3.16,7.28a42.62,42.62,0,0,0,3,5.7c.24.35.48.69.74,1a2,2,0,0,0,1.93,1,4.7,4.7,0,0,0,2.1-1.63,53.43,53.43,0,0,0,5.05-7c1-1.53,2-3,3-4.61h0c.32-.52.64-1,1-1.57,1.54-2.59,2.9-5.27,4.46-7.84.22-.37.44-.73.67-1.1h0l.12-.19c.15-.25.32-.51.49-.76A22.19,22.19,0,0,1,81,41.53c1.17-1.06,2.81-2.25,4.46-2.19,2,.06,3.13,3.22,3.81,4.72l.81,1.79h0l1.09,2.36c.45,1,.9,2,1.32,3,1.45,3.52,2.89,7.3,5.25,10.35a15.76,15.76,0,0,0,2.91,2.94A.7.7,0,0,0,101.41,64.55Z" transform="translate(0 -0.27)"/><path class="cls-12" d="M36.14,49.63c1.93-1.2,2.77-4.66,5.65-3.72a4.4,4.4,0,0,1,2.44,2.46c.41.81.88,2.17,1.92,2.35,1.34.23,2.19-.82,2.84-2.07l-.22-.45c-1.24-2.51-3-6-6.1-6.5-2.74-.48-5.5,1.56-7.38,3.3a36.39,36.39,0,0,0-2.57,2.67C33.23,49.32,34.37,50.73,36.14,49.63Z" transform="translate(0 -0.27)"/><path class="cls-12" d="M76.79,48.3a2.92,2.92,0,0,0,.94.49c.21.06,0,.11.24,0a16.78,16.78,0,0,1,1.66-1c.77-.48,1.82-1.23,2.8-1.11a3.35,3.35,0,0,1,2.26,1.58c.51.68.94,1.41,1.47,2.07.35.42.83,1.15,1.42,1.25s1.26-.79,1.61-1.17.84-.93,1.27-1.38c.23-.24.48-.49.74-.71-.63-1.39-1.29-2.77-1.92-4.16s-1.77-4.65-3.81-4.72c-1.65-.05-3.29,1.14-4.46,2.2a22.46,22.46,0,0,0-3.48,4.15c-.45.67-.88,1.36-1.3,2.06A3.46,3.46,0,0,0,76.79,48.3Z" transform="translate(0 -0.27)"/><path class="cls-12" d="M16.93,49.92a1.29,1.29,0,0,1-.86-.2c-1.13-.64-1.58-2.06-2.83-2.59a1.89,1.89,0,0,0-1.74.14V41.44a8.4,8.4,0,0,1,1,.94,3.61,3.61,0,0,1,.26.29c.11.12.21.25.31.38l.27.37h0a.22.22,0,0,1,.05.08c.18.24.35.49.51.74.55.84,1,1.72,1.5,2.59C15.92,47.85,16.44,48.88,16.93,49.92Z" transform="translate(0 -0.27)"/><path class="cls-13" d="M101.41,60.28V83.55H11.51V66.83a12.88,12.88,0,0,0,3.7,3.78,6.07,6.07,0,0,0,4.84.67,7,7,0,0,0,3.36-2.89c1.06-1.49,1.88-3.12,2.9-4.63A20.92,20.92,0,0,1,30.8,59a11.37,11.37,0,0,1,10-2.26c3.86,1,7,3.78,9.49,6.79,1.92,2.33,4.32,5.42,7.74,4.88H58c3.16-.55,4.9-4,6.46-6.45a13.57,13.57,0,0,1,3.12-3.69,5.73,5.73,0,0,1,3.21-1.1h0a8,8,0,0,1,2.18.22,11.1,11.1,0,0,1,4.73,2.9,36.39,36.39,0,0,1,4.13,4.58,45.84,45.84,0,0,0,3.37,4.37,3.64,3.64,0,0,0,3.49,1.27c1.78-.4,3-2.24,4.13-3.56s2.22-2.83,3.48-4.1a10.17,10.17,0,0,1,1.42-1.23,7,7,0,0,1,2.55-1.17A5.53,5.53,0,0,1,101.41,60.28Z" transform="translate(0 -0.27)"/><path class="cls-8" d="M101.41,68V87.39l-3.07,3.92H14.51l-3-1.73v-15a12.88,12.88,0,0,0,3.7,3.78,6.07,6.07,0,0,0,4.84.67,7,7,0,0,0,3.36-2.9c1.06-1.48,1.88-3.12,2.9-4.63a21.08,21.08,0,0,1,4.5-4.77,11.34,11.34,0,0,1,10-2.26c3.86,1,7,3.77,9.49,6.79,1.92,2.32,4.32,5.42,7.74,4.87,3.2-.51,4.95-4,6.52-6.45A13.28,13.28,0,0,1,67.63,66a6.43,6.43,0,0,1,5.39-.9A11.12,11.12,0,0,1,77.75,68a35.7,35.7,0,0,1,4.13,4.58A45.84,45.84,0,0,0,85.25,77a3.68,3.68,0,0,0,3.49,1.27c1.78-.4,3-2.25,4.13-3.57s2.22-2.82,3.48-4.1a8,8,0,0,1,4-2.38A5,5,0,0,1,101.41,68Z" transform="translate(0 -0.27)"/><circle class="cls-14" cx="67.64" cy="56.27" r="7.07"/><path class="cls-1" d="M101.41,43.23v3.9c-1.2,0-2.44-.06-3-.06a21.68,21.68,0,0,1-5.51-.18,4.28,4.28,0,0,1-2-1.09,1,1,0,0,1-.15-1.39l.08-.09c.84-.84,2.67.09,3.58.36-.09-.73-.36-2.47.64-2.85s1.84,1.56,2.39,2.2a6.79,6.79,0,0,1,1.27-2.14.9.9,0,0,1,.75-.24.85.85,0,0,1,.61.58,8.19,8.19,0,0,1,.3,2.08C100.57,44.12,101,43.58,101.41,43.23Z" transform="translate(0 -0.27)"/><path class="cls-1" d="M55.55,10.07l-46,27.3,0,53.15,46,26.82,46-26.82V36.64Zm44.3,79.38L55.67,115.19,11.49,89.45l0-51,44.2-26.23,44.18,25.5Z" transform="translate(0 -0.27)"/><g class="cls-15"><circle class="cls-1" cx="34.2" cy="98.71" r="0.26"/><circle class="cls-1" cx="35.42" cy="98.71" r="0.26"/><circle class="cls-1" cx="36.64" cy="98.71" r="0.26"/><circle class="cls-1" cx="37.86" cy="98.71" r="0.26"/><circle class="cls-1" cx="39.08" cy="98.71" r="0.26"/><circle class="cls-1" cx="40.3" cy="98.71" r="0.26"/><circle class="cls-1" cx="41.52" cy="98.71" r="0.26"/><circle class="cls-1" cx="42.74" cy="98.71" r="0.26"/><circle class="cls-1" cx="43.96" cy="98.71" r="0.26"/><circle class="cls-1" cx="45.18" cy="98.71" r="0.26"/><circle class="cls-1" cx="46.39" cy="98.71" r="0.26"/><circle class="cls-1" cx="47.61" cy="98.71" r="0.26"/><circle class="cls-1" cx="48.83" cy="98.71" r="0.26"/><circle class="cls-1" cx="50.05" cy="98.71" r="0.26"/><circle class="cls-1" cx="51.27" cy="98.71" r="0.26"/><circle class="cls-1" cx="52.49" cy="98.71" r="0.26"/><circle class="cls-1" cx="53.71" cy="98.71" r="0.26"/><circle class="cls-1" cx="54.93" cy="98.71" r="0.26"/><circle class="cls-1" cx="56.15" cy="98.71" r="0.26"/><circle class="cls-1" cx="57.37" cy="98.71" r="0.26"/><circle class="cls-1" cx="58.58" cy="98.71" r="0.26"/><circle class="cls-1" cx="59.8" cy="98.71" r="0.26"/><circle class="cls-1" cx="61.02" cy="98.71" r="0.26"/><circle class="cls-1" cx="62.24" cy="98.71" r="0.26"/><circle class="cls-1" cx="63.46" cy="98.71" r="0.26"/><circle class="cls-1" cx="64.68" cy="98.71" r="0.26"/><circle class="cls-1" cx="65.9" cy="98.71" r="0.26"/><circle class="cls-1" cx="67.12" cy="98.71" r="0.26"/><circle class="cls-1" cx="68.34" cy="98.71" r="0.26"/><circle class="cls-1" cx="69.56" cy="98.71" r="0.26"/><circle class="cls-1" cx="70.78" cy="98.71" r="0.26"/><circle class="cls-1" cx="71.99" cy="98.71" r="0.26"/><circle class="cls-1" cx="73.21" cy="98.71" r="0.26"/><circle class="cls-1" cx="74.43" cy="98.71" r="0.26"/><circle class="cls-1" cx="75.65" cy="98.71" r="0.26"/><circle class="cls-1" cx="76.87" cy="98.71" r="0.26"/><circle class="cls-1" cx="78.09" cy="98.71" r="0.26"/><circle class="cls-1" cx="79.31" cy="98.71" r="0.26"/><circle class="cls-1" cx="80.57" cy="98.53" r="0.26"/><circle class="cls-1" cx="81.53" cy="97.8" r="0.26"/><circle class="cls-1" cx="82.33" cy="96.9" r="0.26"/><circle class="cls-1" cx="83.1" cy="95.96" r="0.26"/><circle class="cls-1" cx="83.83" cy="95" r="0.26"/><circle class="cls-1" cx="84.53" cy="94.01" r="0.26"/><circle class="cls-1" cx="85.19" cy="92.99" r="0.26"/><circle class="cls-1" cx="85.82" cy="91.95" r="0.26"/><circle class="cls-1" cx="86.4" cy="90.89" r="0.26"/><circle class="cls-1" cx="86.95" cy="89.81" r="0.26"/><circle class="cls-1" cx="87.46" cy="88.71" r="0.26"/><circle class="cls-1" cx="87.92" cy="87.58" r="0.26"/><circle class="cls-1" cx="88.33" cy="86.44" r="0.26"/><circle class="cls-1" cx="88.72" cy="85.3" r="0.26"/><circle class="cls-1" cx="89.06" cy="84.13" r="0.26"/><circle class="cls-1" cx="89.36" cy="82.96" r="0.26"/><circle class="cls-1" cx="89.61" cy="81.78" r="0.26"/><circle class="cls-1" cx="89.82" cy="80.58" r="0.26"/><circle class="cls-1" cx="89.99" cy="79.38" r="0.26"/><circle class="cls-1" cx="90.11" cy="78.18" r="0.26"/><circle class="cls-1" cx="90.19" cy="76.97" r="0.26"/><circle class="cls-1" cx="90.21" cy="75.76" r="0.26"/><circle class="cls-1" cx="90.15" cy="73.33" r="0.26"/><circle class="cls-1" cx="90.2" cy="74.54" r="0.26"/><circle class="cls-1" cx="90.06" cy="72.13" r="0.26"/><circle class="cls-1" cx="89.91" cy="70.92" r="0.26"/><circle class="cls-1" cx="89.73" cy="69.72" r="0.26"/><circle class="cls-1" cx="89.5" cy="68.54" r="0.26"/><circle class="cls-1" cx="89.23" cy="67.35" r="0.26"/><circle class="cls-1" cx="88.91" cy="66.18" r="0.26"/><circle class="cls-1" cx="88.55" cy="65.02" r="0.26"/><circle class="cls-1" cx="88.14" cy="63.87" r="0.26"/><circle class="cls-1" cx="87.7" cy="62.74" r="0.26"/><circle class="cls-1" cx="87.21" cy="61.63" r="0.26"/><circle class="cls-1" cx="86.69" cy="60.53" r="0.26"/><circle class="cls-1" cx="86.12" cy="59.46" r="0.26"/><circle class="cls-1" cx="85.51" cy="58.41" r="0.26"/><circle class="cls-1" cx="84.87" cy="57.38" r="0.26"/><circle class="cls-1" cx="83.47" cy="55.39" r="0.26"/><circle class="cls-1" cx="84.19" cy="56.37" r="0.26"/><circle class="cls-1" cx="82.71" cy="54.44" r="0.26"/><circle class="cls-1" cx="81.93" cy="53.52" r="0.26"/><circle class="cls-1" cx="80.27" cy="51.76" r="0.26"/><circle class="cls-1" cx="81.12" cy="52.62" r="0.26"/><circle class="cls-1" cx="79.39" cy="50.93" r="0.26"/><circle class="cls-1" cx="78.47" cy="50.13" r="0.26"/><circle class="cls-1" cx="77.53" cy="49.36" r="0.26"/><circle class="cls-1" cx="76.57" cy="48.63" r="0.26"/><circle class="cls-1" cx="75.58" cy="47.93" r="0.26"/><circle class="cls-1" cx="74.56" cy="47.28" r="0.26"/><circle class="cls-1" cx="73.52" cy="46.66" r="0.26"/><circle class="cls-1" cx="72.46" cy="46.08" r="0.26"/><circle class="cls-1" cx="71.37" cy="45.53" r="0.26"/><circle class="cls-1" cx="70.28" cy="45.03" r="0.26"/><circle class="cls-1" cx="69.16" cy="44.57" r="0.26"/><circle class="cls-1" cx="68.03" cy="44.15" r="0.26"/><circle class="cls-1" cx="66.87" cy="43.77" r="0.26"/><circle class="cls-1" cx="65.71" cy="43.43" r="0.26"/><circle class="cls-1" cx="64.53" cy="43.14" r="0.26"/><circle class="cls-1" cx="63.34" cy="42.89" r="0.26"/><circle class="cls-1" cx="62.15" cy="42.68" r="0.26"/><circle class="cls-1" cx="60.95" cy="42.52" r="0.26"/><circle class="cls-1" cx="59.74" cy="42.4" r="0.26"/><circle class="cls-1" cx="58.53" cy="42.32" r="0.26"/><circle class="cls-1" cx="57.31" cy="42.28" r="0.26"/><circle class="cls-1" cx="56.11" cy="42.31" r="0.26"/><circle class="cls-1" cx="54.9" cy="42.36" r="0.26"/><circle class="cls-1" cx="53.69" cy="42.46" r="0.26"/><circle class="cls-1" cx="52.49" cy="42.61" r="0.26"/><circle class="cls-1" cx="51.28" cy="42.8" r="0.26"/><circle class="cls-1" cx="50.1" cy="43.03" r="0.26"/><circle class="cls-1" cx="48.91" cy="43.31" r="0.26"/><circle class="cls-1" cx="47.75" cy="43.62" r="0.26"/><circle class="cls-1" cx="46.59" cy="43.99" r="0.26"/><circle class="cls-1" cx="45.44" cy="44.39" r="0.26"/><circle class="cls-1" cx="44.32" cy="44.84" r="0.26"/><circle class="cls-1" cx="43.2" cy="45.33" r="0.26"/><circle class="cls-1" cx="42.11" cy="45.86" r="0.26"/><circle class="cls-1" cx="41.04" cy="46.43" r="0.26"/><circle class="cls-1" cx="39.99" cy="47.03" r="0.26"/><circle class="cls-1" cx="38.96" cy="47.68" r="0.26"/><circle class="cls-1" cx="37.95" cy="48.36" r="0.26"/><circle class="cls-1" cx="36.98" cy="49.08" r="0.26"/><circle class="cls-1" cx="36.03" cy="49.84" r="0.26"/><circle class="cls-1" cx="35.11" cy="50.62" r="0.26"/><circle class="cls-1" cx="34.21" cy="51.45" r="0.26"/><circle class="cls-1" cx="33.35" cy="52.3" r="0.26"/><circle class="cls-1" cx="32.51" cy="53.19" r="0.26"/><circle class="cls-1" cx="31.72" cy="54.1" r="0.26"/><circle class="cls-1" cx="30.96" cy="55.04" r="0.26"/><circle class="cls-1" cx="30.22" cy="56.01" r="0.26"/><circle class="cls-1" cx="29.53" cy="57" r="0.26"/><circle class="cls-1" cx="28.88" cy="58.02" r="0.26"/><circle class="cls-1" cx="28.26" cy="59.05" r="0.26"/><circle class="cls-1" cx="27.68" cy="60.11" r="0.26"/><circle class="cls-1" cx="27.14" cy="61.2" r="0.26"/><circle class="cls-1" cx="26.64" cy="62.3" r="0.26"/><circle class="cls-1" cx="26.18" cy="63.41" r="0.26"/><circle class="cls-1" cx="25.76" cy="64.56" r="0.26"/><circle class="cls-1" cx="25.39" cy="65.71" r="0.26"/><circle class="cls-1" cx="25.05" cy="66.87" r="0.26"/><circle class="cls-1" cx="24.76" cy="68.06" r="0.26"/><circle class="cls-1" cx="24.51" cy="69.23" r="0.26"/><circle class="cls-1" cx="24.31" cy="70.44" r="0.26"/><circle class="cls-1" cx="24.15" cy="71.63" r="0.26"/><circle class="cls-1" cx="24.04" cy="72.85" r="0.26"/><circle class="cls-1" cx="23.96" cy="74.05" r="0.26"/><circle class="cls-1" cx="23.94" cy="75.27" r="0.26"/><circle class="cls-1" cx="23.95" cy="76.48" r="0.26"/><circle class="cls-1" cx="24.01" cy="77.69" r="0.26"/><circle class="cls-1" cx="24.11" cy="78.9" r="0.26"/><circle class="cls-1" cx="24.26" cy="80.1" r="0.26"/><circle class="cls-1" cx="24.45" cy="81.3" r="0.26"/><circle class="cls-1" cx="24.69" cy="82.5" r="0.26"/><circle class="cls-1" cx="24.97" cy="83.68" r="0.26"/><circle class="cls-1" cx="25.29" cy="84.85" r="0.26"/><circle class="cls-1" cx="25.66" cy="86" r="0.26"/><circle class="cls-1" cx="26.06" cy="87.14" r="0.26"/><circle class="cls-1" cx="26.51" cy="88.27" r="0.26"/><circle class="cls-1" cx="27.01" cy="89.38" r="0.26"/><circle class="cls-1" cx="27.54" cy="90.48" r="0.26"/><circle class="cls-1" cx="28.1" cy="91.54" r="0.26"/><circle class="cls-1" cx="28.72" cy="92.6" r="0.26"/><circle class="cls-1" cx="29.36" cy="93.62" r="0.26"/><circle class="cls-1" cx="30.05" cy="94.62" r="0.26"/><circle class="cls-1" cx="30.77" cy="95.6" r="0.26"/><circle class="cls-1" cx="31.53" cy="96.54" r="0.26"/><circle class="cls-1" cx="32.31" cy="97.46" r="0.26"/><circle class="cls-1" cx="33.13" cy="98.35" r="0.26"/></g><path class="cls-16" d="M79.25,96.23a30.22,30.22,0,1,0-44.35,0Z" transform="translate(0 -0.27)"/><g class="cls-17"><circle class="cls-18" cx="68.03" cy="56.78" r="3.53" transform="translate(-11.6 17.63) rotate(-13.82)"/><path class="cls-18" d="M64.66,59.25,65,61.78l2.4-.87,2,1.55,1.08-2.31L73,59.81l-.87-2.4,1.55-2L71.39,54.3l-.34-2.53-2.4.88-2-1.55-1.08,2.32L63,53.75l.87,2.4-1.55,2Zm-.72-3.1a4.37,4.37,0,0,1,4.72-3.47,5.15,5.15,0,0,1,2.71,1.64,5.14,5.14,0,0,1,.76,3.08,5.15,5.15,0,0,1-1.64,2.71,5.16,5.16,0,0,1-3.07.76,5.15,5.15,0,0,1-2.71-1.64,5.14,5.14,0,0,1-.76-3.08Z" transform="translate(0 -0.27)"/><path class="cls-18" d="M81.38,81.14c-.78-.44-1.51-.66-1.73-.53l-.31-.17v0a.36.36,0,0,0,0-.12.31.31,0,0,0-.25-.3v-.28a2.73,2.73,0,0,0,.37-1.77c0-1-.22-1.79-.47-1.79s-.45.81-.44,1.8A2.73,2.73,0,0,0,79,79.71V80a.31.31,0,0,0-.17.1L76,72.76h0L71.55,61.28,66.32,74.76l-1.76-4.68h0l-5-13.33L54.46,70.19,51,63,45.78,74l-1-1.57-4.43,6.86h0L34.9,87.75a.79.79,0,0,0-.7.06.71.71,0,0,0-1.11.46.7.7,0,0,0-.58.68v.57H82.24V89h0l-3-7.74,0-.67h0l.33.19c0,.26.57.77,1.35,1.21s1.66.7,1.79.48S82.24,81.62,81.38,81.14Z" transform="translate(0 -0.27)"/></g><g id="mountains"><circle class="cls-19" cx="67.59" cy="56.34" r="3.53" transform="translate(-11.51 17.52) rotate(-13.82)"/><path class="cls-19" d="M71.73,57l1.55-2L71,53.87l-.34-2.53-2.4.88-2-1.55L65.12,53l-2.53.34.87,2.4-1.55,2,2.31,1.08.34,2.53,2.4-.87L69,62l1.08-2.31,2.53-.34ZM70,59.68a5.16,5.16,0,0,1-3.07.76,5.15,5.15,0,0,1-2.71-1.64,5.14,5.14,0,0,1-.76-3.08,4.37,4.37,0,0,1,4.72-3.47,5.15,5.15,0,0,1,2.71,1.64A5.14,5.14,0,0,1,71.69,57,5.15,5.15,0,0,1,70,59.68Z" transform="translate(0 -0.27)"/><path class="cls-20" d="M47,84.83a.7.7,0,0,0-.49-1,.71.71,0,0,0-1.11-.46.71.71,0,0,0-1.11.46.7.7,0,0,0-.49,1Z" transform="translate(0 -0.27)"/><polygon class="cls-21" points="71.22 88.25 59.1 56.05 55.72 88.25 71.22 88.25"/><polygon class="cls-22" points="66.7 88.25 59.1 56.05 46.93 88.25 66.7 88.25"/><path class="cls-23" d="M59.11,56.32l-1.16,11a2.56,2.56,0,0,1,1.18-.47c1.29-.12,1.63,1.06,2,2,.18.43.37.86.56,1.28l.18-1.38.21.15.81,1.21.41-1.37.81.85h0Z" transform="translate(0 -0.27)"/><polygon class="cls-1" points="55.36 68.88 56.58 71.96 57.6 69.05 58.01 70.42 58.62 69.05 59.43 70.93 60.04 68.54 61.47 71.61 61.88 68.54 62.09 68.69 59.1 56.05 54.08 69.33 54.34 70.25 55.36 68.88"/><polygon class="cls-21" points="47.59 85.09 50.61 62.32 61.44 85.09 47.59 85.09"/><polygon class="cls-24" points="39.73 85.09 50.61 62.32 57.4 85.09 39.73 85.09"/><path class="cls-23" d="M50.19,71.68c.36.36,0,1,.72,1.31,0-.6.54-1.08.54-1.67a18.48,18.48,0,0,1,1.26,2.15l.36-2.15.9,1,.36-1,.72.6h0l-4.43-9.33L49.38,71.9a6.22,6.22,0,0,0,.27.74C50,72.4,50,72,50.19,71.68Z" transform="translate(0 -0.27)"/><polygon class="cls-1" points="47.3 71.29 48.38 73.45 49.28 71.41 49.64 72.37 50.18 71.41 50.9 72.73 51.44 71.06 52.7 73.21 53.06 71.06 53.29 71.3 50.61 62.32 46.18 71.61 46.4 72.25 47.3 71.29"/><polygon class="cls-21" points="54.93 88.25 44.33 71.77 41.38 88.25 54.93 88.25"/><polygon class="cls-23" points="50.98 88.25 44.33 71.77 33.69 88.25 50.98 88.25"/><path class="cls-23" d="M43.91,78.76c.36.26,0,.71.72,1,0-.44.54-.8.54-1.24a13.53,13.53,0,0,1,1.26,1.59l.36-1.59.9.71L48,78.5l.72.44h0L44.34,72,43.1,78.92a3.72,3.72,0,0,0,.27.55C43.73,79.29,43.73,79,43.91,78.76Z" transform="translate(0 -0.27)"/><polygon class="cls-1" points="41.03 78.41 42.11 80 43.01 78.5 43.37 79.2 43.91 78.5 44.62 79.47 45.16 78.23 46.42 79.82 46.78 78.23 47.01 78.41 46.97 78.31 44.33 71.77 39.9 78.64 40.13 79.11 41.03 78.41"/><path class="cls-25" d="M47.62,83.33a2.18,2.18,0,0,0-.85-2.71c-.33-1.13-1.15-1.61-2-1.12-.9-.49-1.72,0-2,1.12a2.18,2.18,0,0,0-.85,2.71A2.18,2.18,0,0,0,42.67,86c.33,1.13,1.15,1.61,2,1.12.9.49,1.72,0,2-1.12A2.18,2.18,0,0,0,47.62,83.33Z" transform="translate(0 -0.27)"/><polygon class="cls-26" points="44.31 86.33 44.17 88.25 45.05 88.25 44.78 84.38 45.59 83.36 45.58 83.35 44.76 84.13 44.64 82.38 44.59 82.38 44.55 82.86 44.15 82.4 44.15 82.41 44.54 83.01 44.35 85.8 43.1 84.24 43.09 84.25 43.5 84.94 42.89 84.92 42.89 84.93 43.56 85.05 44.31 86.33"/><circle class="cls-27" cx="47.52" cy="84.34" r="2.51"/><polygon class="cls-26" points="47.15 88.25 47.81 88.25 47.59 85.19 48.09 84.56 48.09 84.56 47.58 85.03 47.5 83.83 47.46 83.83 47.28 86.34 46.61 85.49 46.6 85.5 47.26 86.62 47.15 88.25"/><polygon class="cls-21" points="81.8 88.25 71.11 60.58 68.13 88.25 81.8 88.25"/><polygon class="cls-24" points="77.82 88.25 71.11 60.58 60.38 88.25 77.82 88.25"/><path class="cls-23" d="M70.69,72c.36.44,0,1.18.72,1.62,0-.74.54-1.32.54-2.06a24.62,24.62,0,0,1,1.26,2.65l.36-2.65.9,1.18.36-1.18.72.74h0L71.12,60.85,69.88,72.31a9,9,0,0,0,.27.91C70.51,72.92,70.51,72.48,70.69,72Z" transform="translate(0 -0.27)"/><polygon class="cls-1" points="67.8 71.63 68.88 74.27 69.78 71.77 70.14 72.95 70.68 71.77 71.4 73.39 71.94 71.33 73.2 73.98 73.56 71.33 73.79 71.63 73.75 71.46 71.11 60.58 66.68 72.01 66.9 72.8 67.8 71.63"/><polygon class="cls-28" points="78.69 79.59 78.55 79.59 78.54 78.81 78.68 78.81 78.69 79.59"/><ellipse class="cls-28" cx="78.6" cy="77.5" rx="0.46" ry="1.79" transform="translate(-0.72 0.47) rotate(-0.53)"/><rect class="cls-28" x="77.87" y="80.05" width="0.78" height="0.14" transform="translate(-29.81 50.45) rotate(-30.45)"/><ellipse class="cls-28" cx="76.57" cy="81.12" rx="1.79" ry="0.46" transform="matrix(0.86, -0.51, 0.51, 0.86, -30.59, 49.85)"/><rect class="cls-28" x="78.94" y="79.75" width="0.14" height="0.78" transform="translate(-29.3 110.45) rotate(-61.17)"/><ellipse class="cls-28" cx="80.72" cy="81.1" rx="0.46" ry="1.79" transform="translate(-29.64 111.09) rotate(-60.47)"/><polygon class="cls-29" points="78.45 79.68 78.37 87.98 79.03 87.97 78.79 79.67 78.45 79.68"/><path class="cls-30" d="M78.91,80a.36.36,0,0,0,0-.12.31.31,0,1,0-.31.32.32.32,0,0,0,.29-.19Z" transform="translate(0 -0.27)"/><path class="cls-31" d="M75.75,88.52a109.45,109.45,0,0,0-12.38-.59A109.43,109.43,0,0,0,51,88.52Z" transform="translate(0 -0.27)"/><path class="cls-32" d="M75.75,88.52a109.45,109.45,0,0,0-12.38-.59,69.22,69.22,0,0,1,8.9.59Z" transform="translate(0 -0.27)"/><path class="cls-33" d="M48.85,28.85a2.89,2.89,0,0,0-.41,0,1.73,1.73,0,0,0-1.58-1l-.23,0a1.55,1.55,0,0,0-3.07-.12,1.49,1.49,0,0,0-.39-.05,1.61,1.61,0,0,0-1.56,1.51,1.48,1.48,0,0,0-.77-.22,1.62,1.62,0,0,0-1.57,1.67,1.73,1.73,0,0,0,.87,1.5c.85.49,1.53.49,5.4.49a12,12,0,0,0,4.1-.51,1.36,1.36,0,0,0,1-1.54A2,2,0,0,0,48.85,28.85Z" transform="translate(0 -0.27)"/><path class="cls-1" d="M59,51.28l-.19,0a.82.82,0,0,0-.75-.47H58a.73.73,0,0,0-1.45-.06l-.19,0a.76.76,0,0,0-.74.71.7.7,0,0,0-.36-.1.77.77,0,0,0-.74.79.82.82,0,0,0,.41.71c.4.23.73.23,2.55.23a5.65,5.65,0,0,0,1.94-.25.64.64,0,0,0,.48-.73A.92.92,0,0,0,59,51.28Z" transform="translate(0 -0.27)"/><polygon class="cls-34" points="54.05 88.25 54.05 80.77 51.67 78.41 49.35 80.89 49.35 88.25 54.05 88.25"/><rect class="cls-35" x="54.05" y="80.49" width="5.4" height="7.77"/><path class="cls-30" d="M57.27,78.45H51.89a.86.86,0,0,1-.27.2l2.44,2.5H60Z" transform="translate(0 -0.27)"/><polygon class="cls-30" points="51.58 78.18 52 78.19 49.39 80.89 49 80.89 51.58 78.18"/><rect class="cls-36" x="51.98" y="81.47" width="1.53" height="1.77"/><rect class="cls-36" x="49.89" y="83.78" width="1.53" height="1.77"/><rect class="cls-36" x="51.98" y="83.78" width="1.53" height="1.77"/><rect class="cls-36" x="49.89" y="86.09" width="1.53" height="1.77"/><rect class="cls-36" x="51.98" y="86.09" width="1.53" height="1.77"/><circle class="cls-36" cx="51.7" cy="80.13" r="0.67"/><circle class="cls-37" cx="51.7" cy="80.13" r="0.58"/><rect class="cls-37" x="52.1" y="81.61" width="1.3" height="1.5"/><rect class="cls-37" x="50.01" y="83.91" width="1.3" height="1.5"/><rect class="cls-37" x="52.1" y="83.91" width="1.3" height="1.5"/><rect class="cls-37" x="50.01" y="86.24" width="1.3" height="1.5"/><rect class="cls-37" x="52.1" y="86.24" width="1.3" height="1.5"/><rect class="cls-36" x="51.66" y="79.48" width="0.09" height="1.29"/><rect class="cls-36" x="51.06" y="80.08" width="1.29" height="0.09"/><rect class="cls-36" x="52.68" y="81.54" width="0.14" height="1.56"/><rect class="cls-36" x="52.05" y="82.25" width="1.4" height="0.14"/><rect class="cls-36" x="50.58" y="83.89" width="0.14" height="1.56"/><rect class="cls-36" x="49.96" y="84.6" width="1.4" height="0.14"/><rect class="cls-36" x="52.68" y="83.89" width="0.14" height="1.56"/><rect class="cls-36" x="52.05" y="84.6" width="1.4" height="0.14"/><rect class="cls-36" x="50.58" y="86.2" width="0.14" height="1.56"/><rect class="cls-36" x="49.96" y="86.9" width="1.4" height="0.14"/><rect class="cls-36" x="52.68" y="86.2" width="0.14" height="1.56"/><rect class="cls-36" x="52.05" y="86.9" width="1.4" height="0.14"/><rect class="cls-36" x="49.89" y="81.47" width="1.53" height="1.77"/><rect class="cls-37" x="50.01" y="81.61" width="1.3" height="1.5"/><rect class="cls-36" x="50.58" y="81.54" width="0.14" height="1.56"/><rect class="cls-36" x="49.96" y="82.25" width="1.4" height="0.14"/><rect class="cls-30" x="49.78" y="83.01" width="1.76" height="0.23"/><rect class="cls-30" x="49.78" y="85.34" width="1.76" height="0.23"/><rect class="cls-30" x="51.87" y="85.34" width="1.76" height="0.23"/><rect class="cls-30" x="49.78" y="87.65" width="1.76" height="0.23"/><rect class="cls-30" x="51.87" y="87.65" width="1.76" height="0.23"/><rect class="cls-30" x="51.87" y="83.01" width="1.76" height="0.23"/><rect class="cls-36" x="54.94" y="81.47" width="1.53" height="1.77"/><rect class="cls-37" x="55.06" y="81.61" width="1.3" height="1.5"/><rect class="cls-36" x="55.63" y="81.54" width="0.14" height="1.56"/><rect class="cls-36" x="55" y="82.25" width="1.4" height="0.14"/><rect class="cls-30" x="54.82" y="83.01" width="1.76" height="0.23"/><rect class="cls-36" x="57.03" y="81.47" width="1.53" height="1.77"/><rect class="cls-37" x="57.15" y="81.61" width="1.3" height="1.5"/><rect class="cls-36" x="57.73" y="81.54" width="0.14" height="1.56"/><rect class="cls-36" x="57.1" y="82.25" width="1.4" height="0.14"/><rect class="cls-30" x="56.92" y="83.01" width="1.76" height="0.23"/><rect class="cls-36" x="54.94" y="83.78" width="1.53" height="1.77"/><rect class="cls-37" x="55.06" y="83.91" width="1.3" height="1.5"/><rect class="cls-36" x="55.63" y="83.85" width="0.14" height="1.56"/><rect class="cls-36" x="55" y="84.56" width="1.4" height="0.14"/><rect class="cls-30" x="54.82" y="85.32" width="1.76" height="0.23"/><rect class="cls-36" x="57.03" y="83.78" width="1.53" height="1.77"/><rect class="cls-37" x="57.15" y="83.91" width="1.3" height="1.5"/><rect class="cls-36" x="57.73" y="83.85" width="0.14" height="1.56"/><rect class="cls-36" x="57.1" y="84.56" width="1.4" height="0.14"/><rect class="cls-30" x="56.92" y="85.32" width="1.76" height="0.23"/><rect class="cls-36" x="54.94" y="86.09" width="1.53" height="1.77"/><rect class="cls-37" x="55.06" y="86.22" width="1.3" height="1.5"/><rect class="cls-36" x="55.63" y="86.16" width="0.14" height="1.56"/><rect class="cls-36" x="55" y="86.87" width="1.4" height="0.14"/><rect class="cls-30" x="54.82" y="87.63" width="1.76" height="0.23"/><rect class="cls-36" x="57.03" y="86.09" width="1.53" height="1.77"/><rect class="cls-37" x="57.15" y="86.22" width="1.3" height="1.5"/><rect class="cls-36" x="57.73" y="86.16" width="0.14" height="1.56"/><rect class="cls-36" x="57.1" y="86.87" width="1.4" height="0.14"/><rect class="cls-30" x="56.92" y="87.63" width="1.76" height="0.23"/><polygon class="cls-36" points="54.44 78.41 52.07 78.42 52.14 78.5 54.28 80.66 56.76 80.66 54.44 78.41"/><path class="cls-38" d="M52.65,78.78a.18.18,0,0,0-.1,0h-.28s0,0,0,0l.1.11a.16.16,0,0,0,.1,0h.3s0,0,0,0Z" transform="translate(0 -0.27)"/><path class="cls-38" d="M53.11,78.78a.18.18,0,0,0-.1,0h-.28s0,0,0,0l.1.11a.16.16,0,0,0,.1,0h.3s0,0,0,0Z" transform="translate(0 -0.27)"/><path class="cls-38" d="M53.57,78.78a.17.17,0,0,0-.1,0h-.28s0,0,0,0l.1.11a.16.16,0,0,0,.1,0h.3s0,0,0,0Z" transform="translate(0 -0.27)"/><path class="cls-38" d="M54,78.78a.17.17,0,0,0-.1,0h-.28s0,0,0,0l.1.11a.16.16,0,0,0,.1,0h.3s0,0,0,0Z" transform="translate(0 -0.27)"/><path class="cls-38" d="M54.48,78.78a.18.18,0,0,0-.1,0h-.28s0,0,0,0l.1.11a.16.16,0,0,0,.1,0h.3s0,0,0,0Z" transform="translate(0 -0.27)"/><path class="cls-38" d="M52.88,79a.17.17,0,0,0-.1,0h-.28s0,0,0,0l.1.11a.16.16,0,0,0,.1,0H53s0,0,0,0Z" transform="translate(0 -0.27)"/><path class="cls-38" d="M53.33,79a.17.17,0,0,0-.1,0h-.28s0,0,0,0l.1.11a.17.17,0,0,0,.1,0h.3s0,0,0,0Z" transform="translate(0 -0.27)"/><path class="cls-38" d="M53.79,79a.17.17,0,0,0-.1,0H53.4s0,0,0,0l.1.11a.16.16,0,0,0,.1,0h.3s0,0,0,0Z" transform="translate(0 -0.27)"/><path class="cls-38" d="M54.25,79a.17.17,0,0,0-.1,0h-.28s0,0,0,0l.1.11a.17.17,0,0,0,.1,0h.3s0,0,0,0Z" transform="translate(0 -0.27)"/><path class="cls-38" d="M54.7,79a.17.17,0,0,0-.1,0h-.28s0,0,0,0l.1.11a.17.17,0,0,0,.1,0h.3s0,0,0,0Z" transform="translate(0 -0.27)"/><path class="cls-38" d="M53.09,79.22a.17.17,0,0,0-.11,0H52.7s0,0,0,0l.1.1a.16.16,0,0,0,.1,0h.3s0,0,0,0Z" transform="translate(0 -0.27)"/><path class="cls-38" d="M53.55,79.22a.17.17,0,0,0-.1,0h-.28s0,0,0,0l.1.1a.16.16,0,0,0,.1,0h.3s0,0,0,0Z" transform="translate(0 -0.27)"/><path class="cls-38" d="M54,79.22a.17.17,0,0,0-.1,0h-.29s0,0,0,0l.1.1a.16.16,0,0,0,.1,0h.3s0,0,0,0Z" transform="translate(0 -0.27)"/><path class="cls-38" d="M54.46,79.22a.17.17,0,0,0-.1,0h-.28s0,0,0,0l.1.1a.16.16,0,0,0,.1,0h.3s0,0,0,0Z" transform="translate(0 -0.27)"/><path class="cls-38" d="M54.92,79.22a.17.17,0,0,0-.1,0h-.28s0,0,0,0l.1.1a.16.16,0,0,0,.1,0H55s0,0,0,0Z" transform="translate(0 -0.27)"/><path class="cls-38" d="M53.32,79.45a.18.18,0,0,0-.1,0h-.28s0,0,0,0l.1.11a.16.16,0,0,0,.1,0h.3s0,0,0,0Z" transform="translate(0 -0.27)"/><path class="cls-38" d="M53.78,79.45a.18.18,0,0,0-.1,0h-.29s0,0,0,0l.1.11a.16.16,0,0,0,.1,0h.3s0,0,0,0Z" transform="translate(0 -0.27)"/><path class="cls-38" d="M54.23,79.45a.18.18,0,0,0-.1,0h-.28s0,0,0,0l.1.11a.16.16,0,0,0,.1,0h.3s0,0,0,0Z" transform="translate(0 -0.27)"/><path class="cls-38" d="M54.69,79.45a.18.18,0,0,0-.1,0H54.3s0,0,0,0l.1.11a.17.17,0,0,0,.1,0h.3s0,0,0,0Z" transform="translate(0 -0.27)"/><path class="cls-38" d="M55.15,79.45a.18.18,0,0,0-.1,0h-.28s0,0,0,0l.1.11a.17.17,0,0,0,.1,0h.3s0,0,0,0Z" transform="translate(0 -0.27)"/><path class="cls-38" d="M53.84,80a.18.18,0,0,0-.1,0h-.28s0,0,0,0l.1.11a.16.16,0,0,0,.1,0h.3s0,0,0,0Z" transform="translate(0 -0.27)"/><path class="cls-38" d="M54.29,80a.18.18,0,0,0-.1,0H53.9s0,0,0,0l.1.11a.16.16,0,0,0,.1,0h.3s0,0,0,0Z" transform="translate(0 -0.27)"/><path class="cls-38" d="M54.75,80a.17.17,0,0,0-.1,0h-.28s0,0,0,0l.1.11a.17.17,0,0,0,.1,0h.3s0,0,0,0Z" transform="translate(0 -0.27)"/><path class="cls-38" d="M55.21,80a.18.18,0,0,0-.1,0h-.28s0,0,0,0l.1.11a.17.17,0,0,0,.1,0h.3s0,0,0,0Z" transform="translate(0 -0.27)"/><path class="cls-38" d="M55.66,80a.18.18,0,0,0-.1,0h-.28s0,0,0,0l.1.11a.16.16,0,0,0,.1,0h.3s0,0,0,0Z" transform="translate(0 -0.27)"/><path class="cls-38" d="M54.06,80.19a.17.17,0,0,0-.1,0h-.28s0,0,0,0l.1.11a.16.16,0,0,0,.1,0h.3s0,0,0,0Z" transform="translate(0 -0.27)"/><path class="cls-38" d="M54.52,80.19a.18.18,0,0,0-.1,0h-.28s0,0,0,0l.1.11a.16.16,0,0,0,.1,0h.3s0,0,0,0Z" transform="translate(0 -0.27)"/><path class="cls-38" d="M55,80.19a.18.18,0,0,0-.1,0h-.28s0,0,0,0l.1.11a.16.16,0,0,0,.1,0h.3s0,0,0,0Z" transform="translate(0 -0.27)"/><path class="cls-38" d="M55.43,80.19a.18.18,0,0,0-.1,0H55s0,0,0,0l.1.11a.16.16,0,0,0,.1,0h.3s0,0,0,0Z" transform="translate(0 -0.27)"/><path class="cls-38" d="M55.89,80.19a.18.18,0,0,0-.1,0H55.5s0,0,0,0l.1.11a.16.16,0,0,0,.1,0H56s0,0,0,0Z" transform="translate(0 -0.27)"/><path class="cls-38" d="M54.27,80.4a.18.18,0,0,0-.1,0h-.28s0,0,0,0l.1.11a.16.16,0,0,0,.1,0h.3s0,0,0,0Z" transform="translate(0 -0.27)"/><path class="cls-38" d="M54.73,80.4a.17.17,0,0,0-.1,0h-.28s0,0,0,0l.1.11a.16.16,0,0,0,.1,0h.3s0,0,0,0Z" transform="translate(0 -0.27)"/><path class="cls-38" d="M55.19,80.4a.18.18,0,0,0-.1,0H54.8s0,0,0,0l.1.11a.16.16,0,0,0,.1,0h.3s0,0,0,0Z" transform="translate(0 -0.27)"/><path class="cls-38" d="M55.64,80.4a.17.17,0,0,0-.1,0h-.28s0,0,0,0l.1.11a.16.16,0,0,0,.1,0h.3s0,0,0,0Z" transform="translate(0 -0.27)"/><path class="cls-38" d="M56.1,80.4a.17.17,0,0,0-.1,0h-.28s0,0,0,0l.1.11a.16.16,0,0,0,.1,0h.3s0,0,0,0Z" transform="translate(0 -0.27)"/><path class="cls-38" d="M54.5,80.63a.19.19,0,0,0-.1,0h-.28s0,0,0,0l.1.11a.16.16,0,0,0,.1,0h.3s0,0,0,0Z" transform="translate(0 -0.27)"/><path class="cls-38" d="M55,80.63a.18.18,0,0,0-.1,0h-.28s0,0,0,0l.1.11a.17.17,0,0,0,.1,0h.3s0,0,0,0Z" transform="translate(0 -0.27)"/><path class="cls-38" d="M55.42,80.63a.18.18,0,0,0-.1,0H55s0,0,0,0l.1.11a.16.16,0,0,0,.1,0h.3s0,0,0,0Z" transform="translate(0 -0.27)"/><path class="cls-38" d="M55.87,80.63a.18.18,0,0,0-.1,0h-.28s0,0,0,0l.1.11a.17.17,0,0,0,.1,0H56s0,0,0,0Z" transform="translate(0 -0.27)"/><path class="cls-38" d="M56.33,80.63a.18.18,0,0,0-.1,0h-.28s0,0,0,0l.1.11a.17.17,0,0,0,.1,0h.3s0,0,0,0Z" transform="translate(0 -0.27)"/><polygon class="cls-36" points="57.17 78.41 54.8 78.42 54.87 78.5 57.01 80.66 59.48 80.66 57.17 78.41"/><path class="cls-38" d="M55.38,78.78a.18.18,0,0,0-.1,0H55s0,0,0,0l.1.11a.16.16,0,0,0,.1,0h.3s0,0,0,0Z" transform="translate(0 -0.27)"/><path class="cls-38" d="M55.84,78.78a.18.18,0,0,0-.1,0h-.28s0,0,0,0l.1.11a.16.16,0,0,0,.1,0h.3s0,0,0,0Z" transform="translate(0 -0.27)"/><path class="cls-38" d="M56.29,78.78a.18.18,0,0,0-.1,0h-.28s0,0,0,0l.1.11a.16.16,0,0,0,.1,0h.3s0,0,0,0Z" transform="translate(0 -0.27)"/><path class="cls-38" d="M56.75,78.78a.18.18,0,0,0-.1,0h-.28s0,0,0,0l.1.11a.16.16,0,0,0,.1,0h.3s0,0,0,0Z" transform="translate(0 -0.27)"/><path class="cls-38" d="M57.21,78.78a.18.18,0,0,0-.1,0h-.28s0,0,0,0l.1.11a.16.16,0,0,0,.1,0h.3s0,0,0,0Z" transform="translate(0 -0.27)"/><path class="cls-38" d="M55.6,79a.18.18,0,0,0-.1,0h-.28s0,0,0,0l.1.11a.17.17,0,0,0,.1,0h.3s0,0,0,0Z" transform="translate(0 -0.27)"/><path class="cls-38" d="M56.06,79a.17.17,0,0,0-.1,0h-.29s0,0,0,0l.1.11a.17.17,0,0,0,.1,0h.3s0,0,0,0Z" transform="translate(0 -0.27)"/><path class="cls-38" d="M56.52,79a.17.17,0,0,0-.1,0h-.28s0,0,0,0l.1.11a.16.16,0,0,0,.1,0h.3s0,0,0,0Z" transform="translate(0 -0.27)"/><path class="cls-38" d="M57,79a.18.18,0,0,0-.1,0h-.28s0,0,0,0l.1.11a.16.16,0,0,0,.1,0h.3s0,0,0,0Z" transform="translate(0 -0.27)"/><path class="cls-38" d="M57.43,79a.17.17,0,0,0-.1,0H57s0,0,0,0l.1.11a.17.17,0,0,0,.1,0h.3s0,0,0,0Z" transform="translate(0 -0.27)"/><path class="cls-38" d="M55.82,79.22a.17.17,0,0,0-.1,0h-.29s0,0,0,0l.1.1a.16.16,0,0,0,.1,0h.3s0,0,0,0Z" transform="translate(0 -0.27)"/><path class="cls-38" d="M56.27,79.22a.17.17,0,0,0-.1,0h-.28s0,0,0,0l.1.1a.16.16,0,0,0,.1,0h.3s0,0,0,0Z" transform="translate(0 -0.27)"/><path class="cls-38" d="M56.73,79.22a.17.17,0,0,0-.1,0h-.29s0,0,0,0l.1.1a.16.16,0,0,0,.1,0h.3s0,0,0,0Z" transform="translate(0 -0.27)"/><path class="cls-38" d="M57.19,79.22a.17.17,0,0,0-.1,0H56.8s0,0,0,0l.1.1a.16.16,0,0,0,.1,0h.3s0,0,0,0Z" transform="translate(0 -0.27)"/><path class="cls-38" d="M57.65,79.22a.17.17,0,0,0-.1,0h-.28s0,0,0,0l.1.1a.16.16,0,0,0,.1,0h.3s0,0,0,0Z" transform="translate(0 -0.27)"/><path class="cls-38" d="M56,79.45a.18.18,0,0,0-.1,0h-.28s0,0,0,0l.1.11a.16.16,0,0,0,.1,0h.3s0,0,0,0Z" transform="translate(0 -0.27)"/><path class="cls-38" d="M56.51,79.45a.18.18,0,0,0-.1,0h-.28s0,0,0,0l.1.11a.16.16,0,0,0,.1,0h.3s0,0,0,0Z" transform="translate(0 -0.27)"/><path class="cls-38" d="M57,79.45a.18.18,0,0,0-.1,0h-.28s0,0,0,0l.1.11a.17.17,0,0,0,.1,0h.3s0,0,0,0Z" transform="translate(0 -0.27)"/><path class="cls-38" d="M57.42,79.45a.18.18,0,0,0-.1,0H57s0,0,0,0l.1.11a.17.17,0,0,0,.1,0h.3s0,0,0,0Z" transform="translate(0 -0.27)"/><path class="cls-38" d="M57.88,79.45a.18.18,0,0,0-.1,0h-.28s0,0,0,0l.1.11a.17.17,0,0,0,.1,0H58s0,0,0,0Z" transform="translate(0 -0.27)"/><path class="cls-38" d="M56.56,80a.18.18,0,0,0-.1,0h-.28s0,0,0,0l.1.11a.16.16,0,0,0,.1,0h.3s0,0,0,0Z" transform="translate(0 -0.27)"/><path class="cls-38" d="M57,80a.18.18,0,0,0-.1,0h-.28s0,0,0,0l.1.11a.17.17,0,0,0,.1,0h.3s0,0,0,0Z" transform="translate(0 -0.27)"/><path class="cls-38" d="M57.48,80a.18.18,0,0,0-.1,0h-.28s0,0,0,0l.1.11a.16.16,0,0,0,.1,0h.3s0,0,0,0Z" transform="translate(0 -0.27)"/><path class="cls-38" d="M57.93,80a.18.18,0,0,0-.1,0h-.28s0,0,0,0l.1.11a.17.17,0,0,0,.1,0H58s0,0,0,0Z" transform="translate(0 -0.27)"/><path class="cls-38" d="M58.39,80a.18.18,0,0,0-.1,0H58s0,0,0,0l.1.11a.17.17,0,0,0,.1,0h.3s0,0,0,0Z" transform="translate(0 -0.27)"/><path class="cls-38" d="M56.79,80.19a.17.17,0,0,0-.1,0H56.4s0,0,0,0l.1.11a.16.16,0,0,0,.1,0h.3s0,0,0,0Z" transform="translate(0 -0.27)"/><path class="cls-38" d="M57.24,80.19a.18.18,0,0,0-.1,0h-.28s0,0,0,0l.1.11a.16.16,0,0,0,.1,0h.3s0,0,0,0Z" transform="translate(0 -0.27)"/><path class="cls-38" d="M57.7,80.19a.18.18,0,0,0-.1,0h-.28s0,0,0,0l.1.11a.16.16,0,0,0,.1,0h.3s0,0,0,0Z" transform="translate(0 -0.27)"/><path class="cls-38" d="M58.16,80.19a.17.17,0,0,0-.1,0h-.28s0,0,0,0l.1.11a.17.17,0,0,0,.1,0h.3s0,0,0,0Z" transform="translate(0 -0.27)"/><path class="cls-38" d="M58.61,80.19a.18.18,0,0,0-.1,0h-.28s0,0,0,0l.1.11a.16.16,0,0,0,.1,0h.3s0,0,0,0Z" transform="translate(0 -0.27)"/><path class="cls-38" d="M57,80.4a.18.18,0,0,0-.1,0h-.28s0,0,0,0l.1.11a.16.16,0,0,0,.1,0h.3s0,0,0,0Z" transform="translate(0 -0.27)"/><path class="cls-38" d="M57.46,80.4a.18.18,0,0,0-.1,0h-.28s0,0,0,0l.1.11a.16.16,0,0,0,.1,0h.3s0,0,0,0Z" transform="translate(0 -0.27)"/><path class="cls-38" d="M57.91,80.4a.17.17,0,0,0-.1,0h-.28s0,0,0,0l.1.11a.16.16,0,0,0,.1,0H58s0,0,0,0Z" transform="translate(0 -0.27)"/><path class="cls-38" d="M58.37,80.4a.18.18,0,0,0-.1,0H58s0,0,0,0l.1.11a.16.16,0,0,0,.1,0h.3s0,0,0,0Z" transform="translate(0 -0.27)"/><path class="cls-38" d="M58.83,80.4a.18.18,0,0,0-.1,0h-.28s0,0,0,0l.1.11a.16.16,0,0,0,.1,0h.3s0,0,0,0Z" transform="translate(0 -0.27)"/><path class="cls-38" d="M57.23,80.63a.18.18,0,0,0-.1,0h-.28s0,0,0,0l.1.11a.16.16,0,0,0,.1,0h.3s0,0,0,0Z" transform="translate(0 -0.27)"/><path class="cls-38" d="M57.69,80.63a.17.17,0,0,0-.1,0H57.3s0,0,0,0l.1.11a.16.16,0,0,0,.1,0h.3s0,0,0,0Z" transform="translate(0 -0.27)"/><path class="cls-38" d="M58.14,80.63a.18.18,0,0,0-.1,0h-.28s0,0,0,0l.1.11a.16.16,0,0,0,.1,0h.3s0,0,0,0Z" transform="translate(0 -0.27)"/><path class="cls-38" d="M58.6,80.63a.18.18,0,0,0-.1,0h-.28s0,0,0,0l.1.11a.16.16,0,0,0,.1,0h.3s0,0,0,0Z" transform="translate(0 -0.27)"/><path class="cls-38" d="M59.06,80.63a.18.18,0,0,0-.1,0h-.28s0,0,0,0l.1.11a.17.17,0,0,0,.1,0h.3s0,0,0,0Z" transform="translate(0 -0.27)"/><circle class="cls-27" cx="70.73" cy="83.3" r="0.84"/><circle class="cls-27" cx="69.54" cy="81.29" r="1.46"/><circle class="cls-27" cx="68.23" cy="84.13" r="1.17"/><polygon class="cls-26" points="69.33 86.07 69.17 88.25 70.15 88.25 69.84 84.35 70.88 83.15 70.87 83.14 69.83 84.02 69.69 81.69 69.63 81.69 69.6 82.22 69.15 81.71 69.15 81.72 69.58 82.39 69.37 85.49 67.99 83.75 67.97 83.77 68.42 84.54 67.75 84.51 67.75 84.52 68.49 84.65 69.33 86.07"/><path class="cls-26" d="M69,85.47a.19.19,0,0,1,.1-.1L68,84h0l.45.77-.67,0h0l.74.14.4.68Z" transform="translate(0 -0.27)"/><polygon class="cls-39" points="74.37 88.25 74.37 85.09 71.98 82.96 69.67 85.44 69.67 88.25 74.37 88.25"/><rect class="cls-40" x="74.37" y="85.04" width="5.4" height="3.21"/><path class="cls-41" d="M77.71,83H72.2a.85.85,0,0,1-.27.21l2.44,2.5h5.95Z" transform="translate(0 -0.27)"/><polygon class="cls-41" points="71.89 82.74 72.32 82.74 69.7 85.44 69.31 85.44 71.89 82.74"/><rect class="cls-36" x="72.07" y="85.97" width="1.53" height="1.77"/><rect class="cls-37" x="72.19" y="86.1" width="1.3" height="1.5"/><rect class="cls-36" x="72.77" y="86.04" width="0.14" height="1.56"/><rect class="cls-36" x="72.14" y="86.75" width="1.4" height="0.14"/><rect class="cls-30" x="71.96" y="87.51" width="1.76" height="0.23"/><rect class="cls-36" x="75.03" y="85.97" width="1.53" height="1.77"/><rect class="cls-37" x="75.15" y="86.1" width="1.3" height="1.5"/><rect class="cls-36" x="75.73" y="86.04" width="0.14" height="1.56"/><rect class="cls-36" x="75.1" y="86.75" width="1.4" height="0.14"/><rect class="cls-30" x="74.92" y="87.51" width="1.76" height="0.23"/><rect class="cls-36" x="77.71" y="85.97" width="1.53" height="1.77"/><rect class="cls-37" x="77.83" y="86.1" width="1.3" height="1.5"/><rect class="cls-36" x="78.41" y="86.04" width="0.14" height="1.56"/><rect class="cls-36" x="77.77" y="86.75" width="1.4" height="0.14"/><rect class="cls-30" x="77.59" y="87.51" width="1.76" height="0.23"/><rect class="cls-36" x="71.53" y="83.97" width="0.97" height="1.13"/><rect class="cls-37" x="71.6" y="84.05" width="0.83" height="0.96"/><rect class="cls-36" x="71.97" y="83.98" width="0.1" height="1.07"/><rect class="cls-36" x="71.54" y="84.46" width="0.96" height="0.1"/><rect class="cls-36" x="69.89" y="86.6" width="1.47" height="1.66"/><rect class="cls-29" x="69.95" y="86.66" width="1.34" height="1.59"/><polygon class="cls-36" points="74.72 82.86 72.35 82.86 72.42 82.95 74.56 85.11 77.03 85.11 74.72 82.86"/><path class="cls-38" d="M72.93,83.23a.18.18,0,0,0-.1,0h-.28s0,0,0,0l.1.1a.16.16,0,0,0,.1,0H73s0,0,0,0Z" transform="translate(0 -0.27)"/><path class="cls-38" d="M73.39,83.23a.18.18,0,0,0-.1,0H73s0,0,0,0l.1.1a.16.16,0,0,0,.1,0h.3s0,0,0,0Z" transform="translate(0 -0.27)"/><path class="cls-38" d="M73.84,83.23a.18.18,0,0,0-.1,0h-.28s0,0,0,0l.1.1a.16.16,0,0,0,.1,0h.3s0,0,0,0Z" transform="translate(0 -0.27)"/><path class="cls-38" d="M74.3,83.23a.18.18,0,0,0-.1,0h-.28s0,0,0,0l.1.1a.16.16,0,0,0,.1,0h.3s0,0,0,0Z" transform="translate(0 -0.27)"/><path class="cls-38" d="M74.76,83.23a.18.18,0,0,0-.1,0h-.28s0,0,0,0l.1.1a.16.16,0,0,0,.1,0h.3s0,0,0,0Z" transform="translate(0 -0.27)"/><path class="cls-38" d="M73.15,83.46a.17.17,0,0,0-.1,0h-.28s0,0,0,0l.1.11a.17.17,0,0,0,.1,0h.3s0,0,0,0Z" transform="translate(0 -0.27)"/><path class="cls-38" d="M73.61,83.46a.18.18,0,0,0-.1,0h-.28s0,0,0,0l.1.11a.16.16,0,0,0,.1,0h.3s0,0,0,0Z" transform="translate(0 -0.27)"/><path class="cls-38" d="M74.07,83.46a.17.17,0,0,0-.1,0h-.28s0,0,0,0l.1.11a.17.17,0,0,0,.1,0h.3s0,0,0,0Z" transform="translate(0 -0.27)"/><path class="cls-38" d="M74.52,83.46a.17.17,0,0,0-.1,0h-.28s0,0,0,0l.1.11a.16.16,0,0,0,.1,0h.3s0,0,0,0Z" transform="translate(0 -0.27)"/><path class="cls-38" d="M75,83.46a.17.17,0,0,0-.1,0h-.29s0,0,0,0l.1.11a.16.16,0,0,0,.1,0h.3s0,0,0,0Z" transform="translate(0 -0.27)"/><path class="cls-38" d="M73.37,83.67a.18.18,0,0,0-.1,0H73s0,0,0,0l.1.11a.16.16,0,0,0,.1,0h.3s0,0,0,0Z" transform="translate(0 -0.27)"/><path class="cls-38" d="M73.83,83.67a.18.18,0,0,0-.1,0h-.28s0,0,0,0l.1.11a.16.16,0,0,0,.1,0h.3s0,0,0,0Z" transform="translate(0 -0.27)"/><path class="cls-38" d="M74.28,83.67a.18.18,0,0,0-.1,0h-.28s0,0,0,0l.1.11a.16.16,0,0,0,.1,0h.3s0,0,0,0Z" transform="translate(0 -0.27)"/><path class="cls-38" d="M74.74,83.67a.18.18,0,0,0-.1,0h-.29s0,0,0,0l.1.11a.16.16,0,0,0,.1,0h.3s0,0,0,0Z" transform="translate(0 -0.27)"/><path class="cls-38" d="M75.2,83.67a.18.18,0,0,0-.1,0h-.28s0,0,0,0l.1.11a.16.16,0,0,0,.1,0h.3s0,0,0,0Z" transform="translate(0 -0.27)"/><path class="cls-38" d="M73.6,83.9a.18.18,0,0,0-.1,0h-.28s0,0,0,0l.1.1a.16.16,0,0,0,.1,0h.3s0,0,0,0Z" transform="translate(0 -0.27)"/><path class="cls-38" d="M74.06,83.9a.17.17,0,0,0-.1,0h-.28s0,0,0,0l.1.1a.15.15,0,0,0,.1,0h.3s0,0,0,0Z" transform="translate(0 -0.27)"/><path class="cls-38" d="M74.51,83.9a.18.18,0,0,0-.1,0h-.28s0,0,0,0l.1.1a.15.15,0,0,0,.1,0h.3s0,0,0,0Z" transform="translate(0 -0.27)"/><path class="cls-38" d="M75,83.9a.18.18,0,0,0-.1,0h-.28s0,0,0,0l.1.1a.16.16,0,0,0,.1,0h.3s0,0,0,0Z" transform="translate(0 -0.27)"/><path class="cls-38" d="M75.43,83.9a.17.17,0,0,0-.1,0H75s0,0,0,0l.1.1a.15.15,0,0,0,.1,0h.3s0,0,0,0Z" transform="translate(0 -0.27)"/><path class="cls-38" d="M74.11,84.42a.17.17,0,0,0-.1,0h-.28s0,0,0,0l.1.11a.16.16,0,0,0,.1,0h.3s0,0,0,0Z" transform="translate(0 -0.27)"/><path class="cls-38" d="M74.57,84.42a.18.18,0,0,0-.1,0h-.28s0,0,0,0l.1.11a.17.17,0,0,0,.1,0h.3s0,0,0,0Z" transform="translate(0 -0.27)"/><path class="cls-38" d="M75,84.42a.17.17,0,0,0-.1,0h-.28s0,0,0,0l.1.11a.17.17,0,0,0,.1,0h.3s0,0,0,0Z" transform="translate(0 -0.27)"/><path class="cls-38" d="M75.48,84.42a.17.17,0,0,0-.1,0H75.1s0,0,0,0l.1.11a.16.16,0,0,0,.1,0h.3s0,0,0,0Z" transform="translate(0 -0.27)"/><path class="cls-38" d="M75.94,84.42a.18.18,0,0,0-.1,0h-.29s0,0,0,0l.1.11a.17.17,0,0,0,.1,0H76s0,0,0,0Z" transform="translate(0 -0.27)"/><path class="cls-38" d="M74.34,84.64a.17.17,0,0,0-.1,0h-.28s0,0,0,0l.1.11a.16.16,0,0,0,.1,0h.3s0,0,0,0Z" transform="translate(0 -0.27)"/><path class="cls-38" d="M74.79,84.64a.18.18,0,0,0-.1,0h-.28s0,0,0,0l.1.11a.17.17,0,0,0,.1,0h.3s0,0,0,0Z" transform="translate(0 -0.27)"/><path class="cls-38" d="M75.25,84.64a.17.17,0,0,0-.1,0h-.29s0,0,0,0l.1.11a.17.17,0,0,0,.1,0h.3s0,0,0,0Z" transform="translate(0 -0.27)"/><path class="cls-38" d="M75.71,84.64a.17.17,0,0,0-.1,0h-.28s0,0,0,0l.1.11a.17.17,0,0,0,.1,0h.3s0,0,0,0Z" transform="translate(0 -0.27)"/><path class="cls-38" d="M76.16,84.64a.17.17,0,0,0-.1,0h-.28s0,0,0,0l.1.11a.17.17,0,0,0,.1,0h.3s0,0,0,0Z" transform="translate(0 -0.27)"/><path class="cls-38" d="M74.55,84.85a.17.17,0,0,0-.1,0h-.29s0,0,0,0l.1.11a.16.16,0,0,0,.1,0h.3s0,0,0,0Z" transform="translate(0 -0.27)"/><path class="cls-38" d="M75,84.85a.17.17,0,0,0-.1,0h-.28s0,0,0,0l.1.11a.16.16,0,0,0,.1,0h.3s0,0,0,0Z" transform="translate(0 -0.27)"/><path class="cls-38" d="M75.47,84.85a.17.17,0,0,0-.11,0h-.28s0,0,0,0l.1.11a.16.16,0,0,0,.1,0h.3s0,0,0,0Z" transform="translate(0 -0.27)"/><path class="cls-38" d="M75.92,84.85a.17.17,0,0,0-.1,0h-.28s0,0,0,0l.1.11a.16.16,0,0,0,.1,0H76s0,0,0,0Z" transform="translate(0 -0.27)"/><path class="cls-38" d="M76.38,84.85a.17.17,0,0,0-.1,0H76s0,0,0,0l.1.11a.16.16,0,0,0,.1,0h.3s0,0,0,0Z" transform="translate(0 -0.27)"/><path class="cls-38" d="M74.78,85.08a.17.17,0,0,0-.1,0h-.28s0,0,0,0l.1.11a.16.16,0,0,0,.1,0h.3s0,0,0,0Z" transform="translate(0 -0.27)"/><path class="cls-38" d="M75.24,85.08a.17.17,0,0,0-.1,0h-.28s0,0,0,0l.1.11a.16.16,0,0,0,.1,0h.3s0,0,0,0Z" transform="translate(0 -0.27)"/><path class="cls-38" d="M75.7,85.08a.17.17,0,0,0-.1,0h-.28s0,0,0,0l.1.11a.16.16,0,0,0,.1,0h.3s0,0,0,0Z" transform="translate(0 -0.27)"/><path class="cls-38" d="M76.15,85.08a.17.17,0,0,0-.1,0h-.28s0,0,0,0l.1.11a.16.16,0,0,0,.1,0h.3s0,0,0,0Z" transform="translate(0 -0.27)"/><path class="cls-38" d="M76.61,85.08a.17.17,0,0,0-.1,0h-.28s0,0,0,0l.1.11a.16.16,0,0,0,.1,0h.3s0,0,0,0Z" transform="translate(0 -0.27)"/><polygon class="cls-36" points="77.45 82.86 75.08 82.86 75.15 82.95 77.28 85.11 79.76 85.11 77.45 82.86"/><path class="cls-38" d="M75.66,83.23a.18.18,0,0,0-.1,0h-.28s0,0,0,0l.1.1a.16.16,0,0,0,.1,0h.3s0,0,0,0Z" transform="translate(0 -0.27)"/><path class="cls-38" d="M76.12,83.23a.18.18,0,0,0-.1,0h-.28s0,0,0,0l.1.1a.16.16,0,0,0,.1,0h.3s0,0,0,0Z" transform="translate(0 -0.27)"/><path class="cls-38" d="M76.57,83.23a.17.17,0,0,0-.1,0h-.28s0,0,0,0l.1.1a.16.16,0,0,0,.1,0h.3s0,0,0,0Z" transform="translate(0 -0.27)"/><path class="cls-38" d="M77,83.23a.18.18,0,0,0-.1,0h-.28s0,0,0,0l.1.1a.16.16,0,0,0,.1,0h.3s0,0,0,0Z" transform="translate(0 -0.27)"/><path class="cls-38" d="M77.48,83.23a.17.17,0,0,0-.1,0H77.1s0,0,0,0l.1.1a.16.16,0,0,0,.1,0h.3s0,0,0,0Z" transform="translate(0 -0.27)"/><path class="cls-38" d="M75.88,83.46a.17.17,0,0,0-.1,0h-.28s0,0,0,0l.1.11a.16.16,0,0,0,.1,0H76s0,0,0,0Z" transform="translate(0 -0.27)"/><path class="cls-38" d="M76.34,83.46a.17.17,0,0,0-.1,0H76s0,0,0,0l.1.11a.17.17,0,0,0,.1,0h.3s0,0,0,0Z" transform="translate(0 -0.27)"/><path class="cls-38" d="M76.79,83.46a.17.17,0,0,0-.1,0h-.28s0,0,0,0l.1.11a.16.16,0,0,0,.1,0h.3s0,0,0,0Z" transform="translate(0 -0.27)"/><path class="cls-38" d="M77.25,83.46a.17.17,0,0,0-.1,0h-.28s0,0,0,0l.1.11a.17.17,0,0,0,.1,0h.3s0,0,0,0Z" transform="translate(0 -0.27)"/><path class="cls-38" d="M77.71,83.46a.17.17,0,0,0-.1,0h-.28s0,0,0,0l.1.11a.17.17,0,0,0,.1,0h.3s0,0,0,0Z" transform="translate(0 -0.27)"/><path class="cls-38" d="M76.1,83.67a.17.17,0,0,0-.1,0h-.28s0,0,0,0l.1.11a.16.16,0,0,0,.1,0h.3s0,0,0,0Z" transform="translate(0 -0.27)"/><path class="cls-38" d="M76.55,83.67a.18.18,0,0,0-.1,0h-.28s0,0,0,0l.1.11a.15.15,0,0,0,.1,0h.3s0,0,0,0Z" transform="translate(0 -0.27)"/><path class="cls-38" d="M77,83.67a.18.18,0,0,0-.1,0h-.28s0,0,0,0l.1.11a.16.16,0,0,0,.1,0h.3s0,0,0,0Z" transform="translate(0 -0.27)"/><path class="cls-38" d="M77.47,83.67a.18.18,0,0,0-.1,0h-.28s0,0,0,0l.1.11a.16.16,0,0,0,.1,0h.3s0,0,0,0Z" transform="translate(0 -0.27)"/><path class="cls-38" d="M77.92,83.67a.18.18,0,0,0-.1,0h-.28s0,0,0,0l.1.11a.16.16,0,0,0,.1,0H78s0,0,0,0Z" transform="translate(0 -0.27)"/><path class="cls-38" d="M76.33,83.9a.18.18,0,0,0-.1,0h-.28s0,0,0,0l.1.1a.16.16,0,0,0,.1,0h.3s0,0,0,0Z" transform="translate(0 -0.27)"/><path class="cls-38" d="M76.78,83.9a.17.17,0,0,0-.1,0H76.4s0,0,0,0l.1.1a.16.16,0,0,0,.1,0h.3s0,0,0,0Z" transform="translate(0 -0.27)"/><path class="cls-38" d="M77.24,83.9a.18.18,0,0,0-.11,0h-.28s0,0,0,0l.1.1a.16.16,0,0,0,.1,0h.3s0,0,0,0Z" transform="translate(0 -0.27)"/><path class="cls-38" d="M77.7,83.9a.18.18,0,0,0-.1,0h-.28s0,0,0,0l.1.1a.16.16,0,0,0,.1,0h.3s0,0,0,0Z" transform="translate(0 -0.27)"/><path class="cls-38" d="M78.15,83.9a.18.18,0,0,0-.1,0h-.29s0,0,0,0l.1.1a.15.15,0,0,0,.1,0h.3s0,0,0,0Z" transform="translate(0 -0.27)"/><path class="cls-38" d="M76.84,84.42a.18.18,0,0,0-.1,0h-.29s0,0,0,0l.1.11a.17.17,0,0,0,.1,0h.3s0,0,0,0Z" transform="translate(0 -0.27)"/><path class="cls-38" d="M77.3,84.42a.18.18,0,0,0-.1,0h-.28s0,0,0,0l.1.11a.17.17,0,0,0,.1,0h.3s0,0,0,0Z" transform="translate(0 -0.27)"/><path class="cls-38" d="M77.75,84.42a.18.18,0,0,0-.1,0h-.28s0,0,0,0l.1.11a.17.17,0,0,0,.1,0h.3s0,0,0,0Z" transform="translate(0 -0.27)"/><path class="cls-38" d="M78.21,84.42a.18.18,0,0,0-.1,0h-.28s0,0,0,0l.1.11a.17.17,0,0,0,.1,0h.3s0,0,0,0Z" transform="translate(0 -0.27)"/><path class="cls-38" d="M78.67,84.42a.18.18,0,0,0-.1,0h-.28s0,0,0,0l.1.11a.17.17,0,0,0,.1,0h.3s0,0,0,0Z" transform="translate(0 -0.27)"/><path class="cls-38" d="M77.06,84.64a.18.18,0,0,0-.1,0h-.28s0,0,0,0l.1.11a.17.17,0,0,0,.1,0h.3s0,0,0,0Z" transform="translate(0 -0.27)"/><path class="cls-38" d="M77.52,84.64a.17.17,0,0,0-.1,0h-.28s0,0,0,0l.1.11a.17.17,0,0,0,.1,0h.3s0,0,0,0Z" transform="translate(0 -0.27)"/><path class="cls-38" d="M78,84.64a.17.17,0,0,0-.1,0h-.28s0,0,0,0l.1.11a.16.16,0,0,0,.1,0h.3s0,0,0,0Z" transform="translate(0 -0.27)"/><path class="cls-38" d="M78.43,84.64a.18.18,0,0,0-.1,0H78s0,0,0,0l.1.11a.17.17,0,0,0,.1,0h.3s0,0,0,0Z" transform="translate(0 -0.27)"/><path class="cls-38" d="M78.89,84.64a.18.18,0,0,0-.1,0H78.5s0,0,0,0l.1.11a.17.17,0,0,0,.1,0H79s0,0,0,0Z" transform="translate(0 -0.27)"/><path class="cls-38" d="M77.28,84.85a.17.17,0,0,0-.1,0h-.28s0,0,0,0L77,85a.16.16,0,0,0,.1,0h.3s0,0,0,0Z" transform="translate(0 -0.27)"/><path class="cls-38" d="M77.73,84.85a.17.17,0,0,0-.1,0h-.28s0,0,0,0l.1.11a.16.16,0,0,0,.1,0h.3s0,0,0,0Z" transform="translate(0 -0.27)"/><path class="cls-38" d="M78.19,84.85a.17.17,0,0,0-.1,0H77.8s0,0,0,0l.1.11a.16.16,0,0,0,.1,0h.3s0,0,0,0Z" transform="translate(0 -0.27)"/><path class="cls-38" d="M78.65,84.85a.17.17,0,0,0-.1,0h-.28s0,0,0,0l.1.11a.17.17,0,0,0,.1,0h.3s0,0,0,0Z" transform="translate(0 -0.27)"/><path class="cls-38" d="M79.11,84.85a.17.17,0,0,0-.1,0h-.28s0,0,0,0l.1.11a.16.16,0,0,0,.1,0h.3s0,0,0,0Z" transform="translate(0 -0.27)"/><path class="cls-38" d="M77.51,85.08a.17.17,0,0,0-.1,0h-.28s0,0,0,0l.1.11a.16.16,0,0,0,.1,0h.3s0,0,0,0Z" transform="translate(0 -0.27)"/><path class="cls-38" d="M78,85.08a.17.17,0,0,0-.1,0h-.28s0,0,0,0l.1.11a.16.16,0,0,0,.1,0h.3s0,0,0,0Z" transform="translate(0 -0.27)"/><path class="cls-38" d="M78.42,85.08a.18.18,0,0,0-.1,0H78s0,0,0,0l.1.11a.16.16,0,0,0,.1,0h.3s0,0,0,0Z" transform="translate(0 -0.27)"/><path class="cls-38" d="M78.88,85.08a.17.17,0,0,0-.1,0h-.28s0,0,0,0l.1.11a.16.16,0,0,0,.1,0H79s0,0,0,0Z" transform="translate(0 -0.27)"/><path class="cls-38" d="M79.34,85.08a.17.17,0,0,0-.1,0h-.28s0,0,0,0l.1.11a.16.16,0,0,0,.1,0h.3s0,0,0,0Z" transform="translate(0 -0.27)"/><path class="cls-36" d="M71.23,87.9a.1.1,0,0,0-.1-.1h0a.1.1,0,0,0-.1.1h0a.1.1,0,0,0,.1.1h0a.1.1,0,0,0,.1-.1Z" transform="translate(0 -0.27)"/><path class="cls-32" d="M67.31,87.77c-.65,0-.92-.46-.59-1l1.09-1.89a.63.63,0,0,1,1.19,0l1.09,1.89c.33.57.06,1-.59,1Z" transform="translate(0 -0.27)"/><polygon class="cls-26" points="68.16 88.25 68.59 88.25 68.45 86.28 68.79 85.86 68.79 85.86 68.45 86.18 68.39 85.36 68.36 85.36 68.24 87.07 67.78 86.49 67.78 86.5 68.23 87.26 68.16 88.25"/><path class="cls-42" d="M81.17,88.52a.7.7,0,0,0-.58-.68.71.71,0,0,0-1.11-.46.71.71,0,0,0-1.11.46.7.7,0,0,0-.58.68Z" transform="translate(0 -0.27)"/><path class="cls-20" d="M52.19,88.52a.7.7,0,0,0-.58-.68.71.71,0,0,0-1.11-.46.71.71,0,0,0-1.11.46.7.7,0,0,0-.58.68Z" transform="translate(0 -0.27)"/><path class="cls-20" d="M44.9,88.52a.7.7,0,0,0-.58-.68.71.71,0,0,0-1.11-.46.71.71,0,0,0-1.11.46.7.7,0,0,0-.58.68Z" transform="translate(0 -0.27)"/><path class="cls-20" d="M35.45,88.52a.7.7,0,0,0-.58-.68.71.71,0,0,0-1.11-.46.71.71,0,0,0-1.11.46.7.7,0,0,0-.58.68Z" transform="translate(0 -0.27)"/><polygon class="cls-26" points="64.44 88.25 64.43 86.81 63.2 86.82 63.21 88.25 64.44 88.25"/><polygon class="cls-32" points="60.53 87.41 63.77 81.36 67.1 87.36 60.53 87.41"/><polygon class="cls-43" points="60.93 85.16 63.76 79.86 66.67 85.11 60.93 85.16"/><polygon class="cls-27" points="61.41 82.8 63.75 78.43 66.16 82.77 61.41 82.8"/><path class="cls-27" d="M63.49,83.33a2.18,2.18,0,0,0-.85-2.71c-.33-1.13-1.15-1.61-2-1.12-.9-.49-1.72,0-2,1.12a2.17,2.17,0,0,0-.85,2.71A2.17,2.17,0,0,0,58.55,86c.33,1.13,1.15,1.61,2,1.12.9.49,1.72,0,2-1.12A2.18,2.18,0,0,0,63.49,83.33Z" transform="translate(0 -0.27)"/><polygon class="cls-26" points="60.18 86.33 60.05 88.25 60.92 88.25 60.65 84.38 61.46 83.36 61.45 83.35 60.63 84.13 60.51 82.38 60.46 82.38 60.43 82.86 60.02 82.4 60.02 82.41 60.42 83.01 60.22 85.8 58.98 84.24 58.96 84.25 59.37 84.94 58.77 84.92 58.76 84.93 59.43 85.05 60.18 86.33"/><path class="cls-44" d="M60.37,88.52a.7.7,0,0,0-.58-.68.71.71,0,0,0-1.11-.46.71.71,0,0,0-1.11.46.7.7,0,0,0-.58.68Z" transform="translate(0 -0.27)"/><rect class="cls-31" x="32.07" y="88.25" width="49.73" height="0.57"/></g><g class="cls-17"><path class="cls-18" d="M63.25,98.88l1.2-3.3.49-.23a.83.83,0,0,0,.4.4.85.85,0,1,0-.46-.56l-.31.09L65,94.06a1.46,1.46,0,1,0,.12-2.83A5.87,5.87,0,0,0,64,90.12c-.85-.62-1.67-1-1.95-.85L61.67,89l0,0a.36.36,0,0,0-.2-.52l0-.33c.27-.13.56-1,.67-2s0-2.11-.32-2.15-.63.88-.75,2a3.21,3.21,0,0,0,.24,2.11l0,.33a.36.36,0,0,0-.3.48l-.35.16a3.2,3.2,0,0,0-2.08.43l-.44.21a3.13,3.13,0,0,0-2-.57l-.37-.2v0a.38.38,0,0,0,0-.14.36.36,0,0,0-.29-.35v-.33a3.2,3.2,0,0,0,.4-2.08c0-1.16-.29-2.09-.59-2.09s-.51,1-.48,2.11a3.21,3.21,0,0,0,.51,2.06v.33a.37.37,0,0,0-.28.36.36.36,0,0,0,0,.15l-.33.2a2.69,2.69,0,0,0-1.71.52c-.2-.1-.41-.19-.65-.28a3.2,3.2,0,0,0-2.1-.31L50,89v0a.37.37,0,0,0,0-.15.36.36,0,0,0-.34-.31l-.05-.33A3.2,3.2,0,0,0,49.7,86c-.19-1.15-.57-2-.87-2s-.38,1-.19,2.16.5,1.86.78,2l.05.33a.36.36,0,0,0-.17.54l-.3.24c-.28-.1-1.08.29-1.89,1l-.23.2a1.89,1.89,0,0,0-.37-.07c-.81-1-1.86-1.18-2.58-.3-1.14-.13-1.78.71-1.65,2a2.42,2.42,0,0,0,.26,3.15,2.42,2.42,0,0,0,2,2.44c.67.85,1.5,1.1,2.18.67l.41,1.25a27.44,27.44,0,0,0-4.67,3V103h27v-.43A26.37,26.37,0,0,0,63.25,98.88ZM63.33,91a6.85,6.85,0,0,0,1.07.65A1.46,1.46,0,0,0,64.84,94h0l-1.31,2.42-.15-.57a1.16,1.16,0,1,0-.25,0l0,.19h0l.09.85-.87,1.61q-.78-.29-1.61-.53l.75-8.86h0l.36.26C61.89,89.7,62.47,90.37,63.33,91Zm-6.44-.11c.08.18.52.17,1.12,0,.88.43,1.64.59,1.77.36s-.15-.47-.58-.81c.87-.41,1.5-.9,1.53-1.18l.37-.17,0,0-1.08,8.71a17.47,17.47,0,0,0-4-.5H56l-.36-8.21h0l.39.21c0,.24.44.66,1.08,1.08C56.94,90.59,56.84,90.76,56.89,90.87Zm-6.6-1.62c.05.29.77.78,1.74,1.15-.54.44-.86.84-.75,1s1.08,0,2.07-.64h0c.47.07.8,0,.86-.12s0-.22-.17-.36c.52-.4.84-.78.84-1l.35-.21,0,0,0,8.21a17.81,17.81,0,0,0-3.84.6l-1.61-8.82h0ZM47.43,98c.95,0,1.47-.84,1.35-2a2.42,2.42,0,0,0-.26-3.15,3,3,0,0,0-.7-1.76c.8-.66,1.33-1.35,1.29-1.64l.31-.26,0,0,1.28,9a22.55,22.55,0,0,0-2.73,1Z" transform="translate(0 -0.27)"/><path class="cls-18" d="M65.36,99.06l.81.4-.38.65.39.19.29-.69.85.42c.59.29,1,0,1-.66l-.14-2.18c0-.65-.52-.89-1.06-.53l-1.82,1.21A.63.63,0,0,0,65.36,99.06Z" transform="translate(0 -0.27)"/></g><path class="cls-45" d="M32.37,59.65l0-.14-1.8-.78a9,9,0,0,0,1.74-1.49h0l.06-.06,0,0,0-.14L29.9,55.9l-1-1.76h-.22l0,.05c-3.38,1.88-6.66,1.47-10.29.74l0-.07H17.9L16.15,57.8,12,59.61l.09.41h4.06l0,2L12,63.81l.09.41h4.17l0,1-3.13,9.67.41.13.6-1.87H22l.6,1.87.41-.13L19.9,65.21l0-1h4.17l0-.14a15.2,15.2,0,0,0,2.54-.69l-.89,2.76.24.08.36-1.12H31.1l.36,1.12.24-.08-1.5-4.63a18,18,0,0,0,2.12-1.76h0v0l.05,0Zm-.64-.15H29.85v-.35l.48-.26Zm-10.65-.77-1,.2,0-.64Zm-2.21.38-.44-.23,1.21-.62,0,.74Zm.75,0v.33l-.5-.26Zm-1.31,0-.61.07.37-.19Zm.25.13.64.33H17l.35-.18Zm.77.65-1.25.83L16.83,60Zm.26.21,0,1.6L18.38,61ZM19.33,62h-2.5l1.25-.83Zm-.13.32-1.12.58L17,62.32Zm.85-3.24c.44-.08.86-.16,1.27-.25l1.74.76H20Zm-2-.38L17,58.12h2.24Zm-.35.18-.91.47-.28,0,0-1.12Zm.06,2.1-1.19.79,0-1.6ZM17.64,63l-1,.2,0-.72Zm-.22.21-.77.4V63.4Zm.66,0,1.12.58H17Zm-1.85.52H14.31q1-.15,1.91-.31Zm3.25,1.29H16.69l0-.92H19.5Zm-.38.32-1,.59-1-.59Zm.42-1.76-1.08-.56.24-.12.87-.22Zm-.21-1,.24-.12v.06Zm.67-.19h0ZM20,62l0-2h4.06l0-.13.25,0,.42,0a9.55,9.55,0,0,1-4.18,2.33Zm4.39-2.24h-.22l0-.12L22,58.66a7.9,7.9,0,0,0,3.12-1.45v0h2.44l0,1.18-2.52,1.09,0,.1,0,0-.15.19Zm4.19-1.92-.71.47,0-1ZM28,57.2h1.5l-.75.5Zm.75.73.75.5H28Zm-.67.69h1.35l-.67.35Zm.46.45-.65.33,0-.68Zm.38-1.26.73-.49,0,1Zm.5-.81H28.06l.67-.35Zm-.46-.46.73-.37,0,.74Zm-1.13.37,0-.74.73.37Zm-.19,2.58H25.75l1.86-.81Zm.44,0,.67-.35.29.15q-.32.12-.64.2Zm1.16-.1.19.1H29Zm.37,0-.14-.07.14-.06Zm-.33-.17-.32-.17.66-.34v.36Zm.6-.55.28.12-.29.15Zm-1.13-2.24-.67-.35h1.35Zm-1.19-.25,0,.78H25.75Zm-2.41,3.56h2a13.49,13.49,0,0,1-2,0Zm3.16,0h1.3v.55H27.9v-.46Zm1.05.74-.6.35-.61-.35Zm-1.49.06.7.4-1,.6Zm.85,1.75-.93-.41h1.64Zm-1.42.87q.42-.18.83-.38l.61-.28,1.47.65Zm2.87.19-1.41.57-1.41-.57Zm-.45-1.67h-2L28.74,61l1,.59Zm-2.3.24,1.08.48L27,63ZM28.49,64l-2,.82.47-1.45Zm.26.1,2,.8H26.77ZM29,64l1.55-.63L31,64.83Zm0-1.63,1.1-.5L30.43,63Zm1-.87-1-.58.69-.4.32,1Zm.48-2.86-.54-.24,0-1.18h2.21A8.65,8.65,0,0,1,30.42,58.65ZM29.91,57l0-.78,1.8.78Zm-.31-1.07H27.87l.86-1.45Zm-6.38-.2a10.84,10.84,0,0,0,5.21-1.24l-.86,1.44L25.08,57l0,.08,0,0a7.87,7.87,0,0,1-3.3,1.51L20,57.8l-1.59-2.68A24.76,24.76,0,0,0,23.23,55.71Zm-5.14-.32,1.44,2.42H16.65Zm-2,2.9,0,1.13L14,59.59H13.1ZM16,59.59h0Zm.19,2.86,0,.87q-1.43.26-3.07.47h0Zm.42,3.06,1.16.67-1.7,1Zm-.74,2.3,1.8.8-2.41,1.1Zm.61-.08h3.12l-1.54.7Zm-.81,2.14,2.39-1.09,2.45,1.09Zm4.78.32-2.36,1-2.34-1Zm-5.37.07,2.59,1.05L14.3,72.68Zm3,1.23,3.28,1.33H14.8Zm.43-.17,2.57-1,.78,2.4Zm-.07-2.71,1.83-.83.62,1.92Zm-2.14-1.2,1.78-1,1.8,1Zm3.76-.27-1.67-1,1.14-.67Zm-.14-3.35,0-1.17.24-.07,2.86,1.24Zm4.22.12,0-.1-3.36-1.46A9.24,9.24,0,0,0,25,59.94c.34,0,.68,0,1,0a10.5,10.5,0,0,0,1.61-.12v.5l-.92,2.85A15,15,0,0,1,24.16,63.91Zm6-2.55-.33-1v-.6h2.25A17.78,17.78,0,0,1,30.16,61.36Z" transform="translate(0 -0.27)"/><polygon class="cls-46" points="27.23 56.53 24.69 56.53 24.64 56.29 27.18 55.19 27.28 55.42 25.31 56.28 27.23 56.28 27.23 56.53"/><polygon class="cls-46" points="27.23 59.05 24.69 59.05 24.64 58.81 27.18 57.71 27.28 57.94 25.31 58.8 27.23 58.8 27.23 59.05"/><polygon class="cls-46" points="31.02 65.53 29.14 59.67 29.24 55.34 28.3 53.76 27.36 55.34 27.46 59.67 27.46 59.71 25.58 65.53 25.33 65.45 27.21 59.65 27.1 55.31 27.12 55.24 28.19 53.44 28.41 53.44 29.48 55.24 29.5 55.31 29.39 59.65 31.27 65.45 31.02 65.53"/><polygon class="cls-46" points="31.91 56.53 29.37 56.53 29.37 56.28 31.29 56.28 29.32 55.42 29.42 55.19 31.96 56.29 31.91 56.53"/><polygon class="cls-46" points="31.91 59.05 29.37 59.05 29.37 58.8 31.29 58.8 29.32 57.94 29.42 57.71 31.96 58.81 31.91 59.05"/><rect class="cls-46" x="27.1" y="56.02" width="2.41" height="0.19" transform="translate(-22.55 18.9) rotate(-27.23)"/><rect class="cls-46" x="28.21" y="54.92" width="0.19" height="2.41" transform="translate(-34.55 55.32) rotate(-62.75)"/><rect class="cls-46" x="27.23" y="55.21" width="2.14" height="0.19"/><rect class="cls-46" x="27.23" y="56.31" width="2.14" height="0.19"/><rect class="cls-46" x="27.1" y="58.54" width="2.41" height="0.19" transform="translate(-23.7 19.18) rotate(-27.23)"/><rect class="cls-46" x="28.21" y="57.44" width="0.19" height="2.41" transform="translate(-36.79 56.7) rotate(-62.76)"/><rect class="cls-46" x="27.23" y="57.73" width="2.14" height="0.19"/><rect class="cls-46" x="27.23" y="58.83" width="2.14" height="0.19"/><rect class="cls-46" x="27.02" y="57.28" width="2.57" height="0.19" transform="translate(-26.99 24.91) rotate(-33.52)"/><rect class="cls-46" x="28.21" y="56.1" width="0.19" height="2.57" transform="translate(-35.17 49.02) rotate(-56.47)"/><rect class="cls-46" x="27.34" y="59.57" width="1.93" height="0.19"/><rect class="cls-46" x="26.89" y="60.97" width="2.86" height="0.19"/><rect class="cls-46" x="26.7" y="60.54" width="2.76" height="0.19" transform="translate(-26.83 22.29) rotate(-30.41)"/><rect class="cls-46" x="28.45" y="59.24" width="0.19" height="2.78" transform="translate(-38.23 54.69) rotate(-59.93)"/><rect class="cls-46" x="26.41" y="62.45" width="3.81" height="0.19"/><rect class="cls-46" x="28.46" y="60.25" width="0.19" height="3.64" transform="translate(-39.77 62.73) rotate(-66.07)"/><rect class="cls-46" x="26.25" y="61.96" width="3.62" height="0.19" transform="translate(-23.18 16.92) rotate(-24.46)"/><rect class="cls-46" x="25.84" y="64.22" width="4.99" height="0.19"/><rect class="cls-46" x="28.5" y="61.34" width="0.19" height="4.7" transform="translate(-41.18 65.93) rotate(-67.88)"/><rect class="cls-46" x="25.67" y="63.6" width="4.73" height="0.19" transform="translate(-21.81 14.86) rotate(-21.98)"/><path class="cls-1" d="M22.79,55.27a26.09,26.09,0,0,1-5.16-.66l0-.16c3.74.76,7.12,1.23,10.6-.75l.08.14A10.82,10.82,0,0,1,22.79,55.27Z" transform="translate(0 -0.27)"/><path class="cls-1" d="M11.65,59.45v-.16l.71,0c4.54-.32,10.2-.71,12.3-2.63l.11.12c-2.14,2-7.82,2.35-12.39,2.67Z" transform="translate(0 -0.27)"/><path class="cls-1" d="M25.59,59.53c-.57,0-1.13,0-1.65-.07l-.28,0v-.16l.28,0c2.32.15,5.21.33,7.91-2.69l.12.11A7.92,7.92,0,0,1,25.59,59.53Z" transform="translate(0 -0.27)"/><path class="cls-1" d="M11.65,63.65l0-.16c7.28-.85,11.53-2.27,13-4.34l.13.09C23.27,61.35,19,62.79,11.65,63.65Z" transform="translate(0 -0.27)"/><path class="cls-1" d="M23.68,63.65l0-.16a15.34,15.34,0,0,0,8.21-4.36l.11.11A15.5,15.5,0,0,1,23.68,63.65Z" transform="translate(0 -0.27)"/><polygon class="cls-47" points="15.86 59.32 11.64 59.32 11.55 58.91 15.78 57.07 15.95 57.46 12.66 58.89 15.86 58.89 15.86 59.32"/><polygon class="cls-47" points="15.86 63.52 11.64 63.52 11.55 63.11 15.78 61.27 15.95 61.66 12.66 63.09 15.86 63.09 15.86 63.52"/><polygon class="cls-47" points="22.19 74.31 19.05 64.61 19.04 64.53 19.21 57.32 17.65 54.69 16.08 57.32 16.25 64.53 16.25 64.61 13.11 74.31 12.7 74.18 15.83 64.51 15.65 57.27 15.68 57.16 17.46 54.16 17.83 54.16 19.61 57.16 19.64 57.27 19.47 64.51 22.59 74.18 22.19 74.31"/><polygon class="cls-47" points="23.66 59.32 19.43 59.32 19.43 58.89 22.63 58.89 19.34 57.46 19.52 57.07 23.74 58.91 23.66 59.32"/><polygon class="cls-47" points="23.66 63.52 19.43 63.52 19.43 63.09 22.63 63.09 19.34 61.66 19.52 61.27 23.74 63.11 23.66 63.52"/><rect class="cls-47" x="15.65" y="58.29" width="4.01" height="0.32" transform="translate(-24.81 14.3) rotate(-27.25)"/><rect class="cls-47" x="17.49" y="56.44" width="0.32" height="4.01" transform="translate(-42.4 47.11) rotate(-62.75)"/><rect class="cls-47" x="15.86" y="57.1" width="3.57" height="0.32"/><rect class="cls-47" x="15.86" y="58.94" width="3.57" height="0.32"/><rect class="cls-47" x="15.64" y="62.49" width="4.01" height="0.32" transform="translate(-26.73 14.77) rotate(-27.25)"/><rect class="cls-47" x="17.49" y="60.64" width="0.32" height="4.01" transform="translate(-46.13 49.38) rotate(-62.74)"/><rect class="cls-47" x="15.86" y="61.31" width="3.57" height="0.32"/><rect class="cls-47" x="15.86" y="63.14" width="3.57" height="0.32"/><rect class="cls-47" x="15.51" y="60.39" width="4.28" height="0.32" transform="translate(-30.49 19.53) rotate(-33.49)"/><rect class="cls-47" x="17.49" y="58.41" width="0.32" height="4.28" transform="translate(-42.58 41.56) rotate(-56.47)"/><rect class="cls-47" x="16.04" y="64.38" width="3.21" height="0.32"/><rect class="cls-47" x="15.29" y="66.71" width="4.77" height="0.32"/><rect class="cls-47" x="14.98" y="65.81" width="4.59" height="0.32" transform="translate(-31.01 17.55) rotate(-30.4)"/><rect class="cls-47" x="17.89" y="63.65" width="0.32" height="4.64" transform="translate(-48.09 48.27) rotate(-59.92)"/><rect class="cls-47" x="14.49" y="69.17" width="6.35" height="0.32"/><rect class="cls-47" x="17.91" y="65.33" width="0.32" height="6.07" transform="translate(-51.75 56.88) rotate(-66.07)"/><rect class="cls-47" x="14.23" y="68.18" width="6.04" height="0.32" transform="translate(-26.76 13.01) rotate(-24.46)"/><rect class="cls-47" x="13.54" y="72.12" width="8.32" height="0.32"/><rect class="cls-47" x="17.97" y="67.15" width="0.32" height="7.84" transform="translate(-54.54 60.84) rotate(-67.88)"/><rect class="cls-47" x="13.25" y="70.91" width="7.88" height="0.32" transform="translate(-25.37 11.35) rotate(-22)"/><path class="cls-45" d="M99.58,65l-1-.72c-.37-.26-.77-.53-1.16-.8l-.58-.42a6.44,6.44,0,0,0-.57-.4,4.81,4.81,0,0,0-.58-.29l-.55-.21-.42-.13a.84.84,0,0,0,0-.09.85.85,0,0,0-.52-.78c0-.13.07-.26.1-.42s.07-.37.09-.58a4.78,4.78,0,0,0,0-.65,6.52,6.52,0,0,0-.06-.69c0-.24-.05-.48-.07-.72,0-.48-.07-1-.11-1.41s-.08-.87-.12-1.23c-.08-.72-.14-1.2-.14-1.2h-.11s-.07.48-.14,1.2c0,.36-.08.78-.13,1.23s-.08.93-.12,1.41c0,.24,0,.48-.08.71a6.41,6.41,0,0,0-.06.69,4.81,4.81,0,0,0,0,.65c0,.21.05.4.09.58s.06.29.1.42A.85.85,0,0,0,93,62a.84.84,0,0,0,0,.09l-.42.12-.55.21a4.76,4.76,0,0,0-.58.29,6.29,6.29,0,0,0-.55.38L90.82,63a6.68,6.68,0,0,0-.82-.41c-.27-.12-.53-.21-.77-.3l-.59-.18a1.21,1.21,0,0,0,0-.13,1.19,1.19,0,0,0-.73-1.1c0-.18.1-.37.14-.59s.1-.53.13-.82a6.73,6.73,0,0,0,.06-.91,9,9,0,0,0-.08-1c0-.33-.08-.67-.1-1-.05-.67-.1-1.35-.16-2s-.12-1.22-.17-1.73c-.11-1-.2-1.69-.2-1.69h-.15s-.09.67-.2,1.68c-.05.51-.12,1.1-.18,1.73s-.11,1.31-.17,2c0,.34-.07.67-.11,1a9.15,9.15,0,0,0-.08,1,6.73,6.73,0,0,0,.05.91c0,.29.08.56.13.82s.09.41.14.59a1.19,1.19,0,0,0-.7,1.22l-.58.17c-.24.08-.5.18-.77.3a6.68,6.68,0,0,0-.82.41,9,9,0,0,0-.8.56c-.27.2-.54.4-.82.59-.56.38-1.12.76-1.64,1.13l-1.41,1c-.82.6-1.36,1-1.36,1l0,0h0l.06.11s.63-.26,1.56-.67l1.58-.71c.58-.26,1.19-.56,1.8-.85L84,64.8a9.1,9.1,0,0,0,.88-.42,6.71,6.71,0,0,0,.76-.5c.23-.17.45-.35.64-.52s.31-.28.44-.42a1.19,1.19,0,0,0,.29.16l-.38,10.1h-.89v.92h3.39v-.92h-.9L88,65.55l.4-.17,1.13-.51.78-.36.64.29.92.41,1.62.77-.15,4h-.64v.66h2.41v-.66h-.64l-.13-3.57.9.4c.93.41,1.56.67,1.56.67l.08-.13s-.54-.42-1.36-1l-1.22-.88-.1-2.65a.84.84,0,0,0,.21-.12l.32.3c.14.12.29.25.46.37a4.73,4.73,0,0,0,.54.36,6.43,6.43,0,0,0,.63.3l.66.29,1.28.6,1.13.51,1.11.48.05-.09Zm-6.21-2.38a.84.84,0,0,0,.2.11l-.08,2.11-1-.72-.55-.39.16-.08a4.77,4.77,0,0,0,.54-.36c.17-.12.32-.25.46-.37Zm-5.49.45a1.19,1.19,0,0,0,.29-.16c.13.13.28.28.45.42s.41.35.64.52l.25.18-.35.24-1,.72-.21.15Z" transform="translate(0 -0.27)"/><polygon class="cls-48" points="93.69 60.94 94.01 69.57 92.85 69.57 93.17 60.94 93.69 60.94"/><path class="cls-49" d="M93.47,61.49a3.14,3.14,0,0,1,.36,0l.39.08.48.14.55.21a4.82,4.82,0,0,1,.58.29,6.44,6.44,0,0,1,.57.4l.58.42c.4.27.79.54,1.16.8l1,.72,1,.72-.05.09-1.11-.48-1.13-.51-1.28-.6-.66-.29a6.43,6.43,0,0,1-.63-.3,4.73,4.73,0,0,1-.54-.36c-.17-.12-.32-.25-.46-.37s-.26-.24-.36-.35-.19-.21-.27-.3a3.14,3.14,0,0,1-.21-.29Z" transform="translate(0 -0.27)"/><path class="cls-49" d="M93.46,61.58a3,3,0,0,1-.21.29c-.07.09-.16.19-.27.3s-.23.23-.37.35-.29.25-.46.37a4.77,4.77,0,0,1-.54.36,6.38,6.38,0,0,1-.63.3l-.66.29-1.28.6-1.13.51-1.11.48-.05-.09,1-.72,1-.72c.37-.26.77-.53,1.16-.8l.58-.42a6.44,6.44,0,0,1,.57-.4,4.78,4.78,0,0,1,.58-.29l.55-.21.48-.14.39-.08a3.14,3.14,0,0,1,.36,0Z" transform="translate(0 -0.27)"/><path class="cls-49" d="M93.37,61.54a3.09,3.09,0,0,1-.14-.33c0-.1-.08-.23-.12-.38s-.08-.31-.12-.49-.07-.37-.09-.58a4.81,4.81,0,0,1,0-.65,6.41,6.41,0,0,1,.06-.69c0-.24.06-.48.08-.71,0-.48.07-1,.12-1.41s.09-.87.13-1.23c.08-.72.14-1.2.14-1.2h.11s.06.48.14,1.2c0,.36.08.78.12,1.23s.08.93.11,1.41c0,.24,0,.48.07.72a6.53,6.53,0,0,1,.06.69,4.78,4.78,0,0,1,0,.65c0,.21-.06.4-.09.58s-.08.34-.12.49-.09.27-.12.38a3.17,3.17,0,0,1-.14.33Z" transform="translate(0 -0.27)"/><path class="cls-50" d="M93.87,57.7c0-.48-.07-1-.11-1.41s-.08-.87-.12-1.23c-.08-.72-.14-1.2-.14-1.2h0v7.67h0a3.17,3.17,0,0,0,.14-.33c0-.1.09-.23.12-.38s.08-.31.12-.49.07-.37.09-.58a4.78,4.78,0,0,0,0-.65,6.53,6.53,0,0,0-.06-.69C93.92,58.18,93.89,57.94,93.87,57.7Z" transform="translate(0 -0.27)"/><path class="cls-50" d="M89.89,63.07c-.4.27-.8.54-1.16.8l-1,.72-1,.72,0,0,6.64-3.83v0a3,3,0,0,0-.36,0l-.39.08-.48.14-.55.21a4.76,4.76,0,0,0-.58.29,6.44,6.44,0,0,0-.57.39Z" transform="translate(0 -0.27)"/><polygon class="cls-51" points="94.01 69.57 93.69 60.94 93.41 60.94 93.41 69.57 94.01 69.57"/><path class="cls-50" d="M97,63.07c.4.27.8.54,1.16.8l1,.72,1,.72,0,0-6.64-3.83v0a3,3,0,0,1,.36,0l.39.08.48.14.55.21a4.75,4.75,0,0,1,.58.29,6.44,6.44,0,0,1,.57.39Z" transform="translate(0 -0.27)"/><circle class="cls-48" cx="93.43" cy="61.27" r="0.85"/><rect class="cls-52" x="92.23" y="69.24" width="2.41" height="0.66"/><circle class="cls-52" cx="93.43" cy="61.27" r="0.6"/><polygon class="cls-48" points="87.38 60.82 87.83 72.96 86.2 72.96 86.65 60.82 87.38 60.82"/><path class="cls-49" d="M87.07,61.48a4.36,4.36,0,0,1,.5.06c.15,0,.34.06.55.12s.44.12.68.2.5.18.77.3a6.68,6.68,0,0,1,.82.41,8.93,8.93,0,0,1,.8.56c.27.2.54.4.82.59.56.38,1.12.76,1.63,1.13l1.41,1c.82.6,1.36,1,1.36,1l-.08.13s-.63-.26-1.56-.67l-1.58-.71c-.58-.26-1.19-.56-1.8-.85l-.92-.41a9,9,0,0,1-.88-.42,6.76,6.76,0,0,1-.76-.5c-.23-.17-.45-.35-.64-.52s-.37-.34-.51-.49-.27-.3-.37-.42a4.36,4.36,0,0,1-.3-.4Z" transform="translate(0 -0.27)"/><path class="cls-49" d="M87.06,61.62a4.33,4.33,0,0,1-.3.4c-.1.12-.22.27-.37.42s-.32.32-.51.49-.41.35-.64.52a6.71,6.71,0,0,1-.76.5,9.1,9.1,0,0,1-.88.42l-.92.41c-.61.29-1.22.59-1.8.85l-1.58.71c-.93.41-1.56.67-1.56.67l-.08-.13s.54-.42,1.36-1l1.41-1c.51-.37,1.08-.75,1.63-1.13.28-.19.55-.39.82-.59a9,9,0,0,1,.8-.56,6.71,6.71,0,0,1,.82-.41c.27-.12.53-.21.77-.3s.47-.15.68-.2.39-.09.55-.12a4.35,4.35,0,0,1,.5-.06Z" transform="translate(0 -0.27)"/><path class="cls-49" d="M86.93,61.55a4.35,4.35,0,0,1-.2-.46c-.05-.15-.12-.33-.17-.53s-.12-.44-.16-.69-.09-.53-.13-.82a6.73,6.73,0,0,1-.05-.91,9.15,9.15,0,0,1,.08-1c0-.33.08-.67.11-1,.05-.67.1-1.35.17-2s.12-1.22.18-1.73c.11-1,.2-1.68.2-1.68h.15s.09.67.2,1.69c.05.51.11,1.1.17,1.73s.11,1.31.16,2c0,.34.06.67.1,1a9,9,0,0,1,.08,1,6.73,6.73,0,0,1-.06.91c0,.29-.08.56-.13.82s-.11.48-.17.69-.12.38-.18.53a4.28,4.28,0,0,1-.2.46Z" transform="translate(0 -0.27)"/><path class="cls-50" d="M87.63,56.16c-.05-.67-.1-1.35-.16-2s-.12-1.22-.17-1.73c-.11-1-.2-1.69-.2-1.69h0V61.55h0a4.28,4.28,0,0,0,.2-.46c.05-.15.12-.33.18-.53s.12-.44.17-.69.1-.53.13-.82a6.73,6.73,0,0,0,.06-.91,9,9,0,0,0-.08-1C87.7,56.83,87.66,56.49,87.63,56.16Z" transform="translate(0 -0.27)"/><path class="cls-50" d="M82,63.7c-.56.38-1.12.76-1.64,1.13l-1.41,1c-.82.6-1.36,1-1.36,1l0,0L87,61.51v0a4.27,4.27,0,0,0-.5.06c-.16,0-.34.06-.55.11s-.44.12-.68.2-.5.18-.77.3a6.68,6.68,0,0,0-.82.41,9,9,0,0,0-.8.56C82.59,63.31,82.31,63.51,82,63.7Z" transform="translate(0 -0.27)"/><polygon class="cls-51" points="87.83 72.96 87.38 60.82 86.99 60.82 86.99 72.96 87.83 72.96"/><path class="cls-50" d="M92,63.7c.56.38,1.12.76,1.64,1.13l1.41,1c.82.6,1.36,1,1.36,1l0,0L87,61.51v0a4.28,4.28,0,0,1,.5.06c.15,0,.34.06.55.11s.44.12.68.2.5.18.77.3a6.68,6.68,0,0,1,.82.41,9,9,0,0,1,.8.56C91.42,63.31,91.7,63.51,92,63.7Z" transform="translate(0 -0.27)"/><circle class="cls-48" cx="87.02" cy="61.28" r="1.19"/><rect class="cls-52" x="85.32" y="72.5" width="3.39" height="0.92"/><circle class="cls-52" cx="87.02" cy="61.28" r="0.85"/><polygon class="cls-45" points="28.82 86.27 34.52 86.27 33.12 77.86 22 77.86 20.6 86.27 26.22 86.27 26.22 87.14 24.95 87.14 24.95 88.13 30.09 88.13 30.09 87.14 28.82 87.14 28.82 86.27"/><rect class="cls-53" x="25.85" y="85.49" width="2.6" height="1.76"/><path class="cls-53" d="M20.76,85.6l.31-2h2.22l-.2,2Zm2.61,0,.18-2h2.22l-.07,2Zm2.61,0,.06-2h2.22l.05,2Zm2.61,0-.07-2h2.22l.18,2Zm2.61,0-.19-2h2.22l.3,2ZM21.11,83.35l.28-1.77h2.1l-.18,1.77Zm2.47,0,.16-1.77h2.1l-.06,1.77Zm2.47,0,.05-1.77h2.1l0,1.77Zm2.47,0-.06-1.77h2.1l.16,1.77Zm2.47,0-.17-1.77h2.1l.27,1.77Zm-9.55-2,.25-1.6h2l-.16,1.6Zm2.34,0,.15-1.6h2l-.06,1.6Zm2.34,0,0-1.6h2l0,1.6Zm2.34,0-.05-1.6h2l.14,1.6Zm2.34,0-.16-1.6h2l.25,1.6Zm-9.08-1.82.23-1.45h1.91l-.14,1.45Zm2.22,0,.13-1.45H26l-.05,1.45Zm2.22,0,0-1.45h1.91l0,1.45Zm2.22,0,0-1.45h1.91l.13,1.45Zm2.22,0-.14-1.45h1.91l.22,1.45Zm2.14-1.77H21.63l-1.4,8.4H34.15l-1.4-8.4Z" transform="translate(0 -0.27)"/><polygon class="cls-1" points="23.83 77.81 21.93 77.81 21.7 79.25 23.69 79.25 23.83 77.81 23.83 77.81"/><polygon class="cls-1" points="25.97 77.81 24.06 77.81 23.93 79.25 25.92 79.25 25.97 77.81 25.97 77.81"/><polygon class="cls-1" points="28.1 77.81 26.2 77.81 26.15 79.25 28.14 79.25 28.1 77.81 28.1 77.81"/><polygon class="cls-1" points="30.23 77.81 28.33 77.81 28.38 79.25 30.37 79.25 30.23 77.81 30.23 77.81"/><polygon class="cls-1" points="32.37 77.81 30.46 77.81 30.6 79.25 32.59 79.25 32.37 77.81 32.37 77.81"/><polygon class="cls-1" points="23.67 79.47 21.67 79.47 21.42 81.07 23.51 81.07 23.67 79.47 23.67 79.47"/><polygon class="cls-1" points="25.91 79.47 23.91 79.47 23.76 81.07 25.85 81.07 25.91 79.47 25.91 79.47"/><polygon class="cls-1" points="28.15 79.47 26.15 79.47 26.1 81.07 28.19 81.07 28.15 79.47 28.15 79.47"/><polygon class="cls-1" points="30.39 79.47 28.39 79.47 28.44 81.07 30.53 81.07 30.39 79.47 30.39 79.47"/><polygon class="cls-1" points="32.62 79.47 30.62 79.47 30.78 81.07 32.87 81.07 32.62 79.47 32.62 79.47"/><polygon class="cls-1" points="23.49 81.31 21.38 81.31 21.11 83.08 23.31 83.08 23.49 81.31 23.49 81.31"/><polygon class="cls-1" points="25.84 81.31 23.74 81.31 23.57 83.08 25.78 83.08 25.84 81.31 25.84 81.31"/><polygon class="cls-1" points="28.2 81.31 26.09 81.31 26.04 83.08 28.25 83.08 28.2 81.31 28.2 81.31"/><polygon class="cls-1" points="30.55 81.31 28.45 81.31 28.51 83.08 30.71 83.08 30.55 81.31 30.55 81.31"/><polygon class="cls-1" points="32.91 81.31 30.8 81.31 30.98 83.08 33.18 83.08 32.91 81.31 32.91 81.31"/><polygon class="cls-1" points="23.28 83.36 21.07 83.36 20.76 85.33 23.09 85.33 23.28 83.36 23.28 83.36"/><polygon class="cls-1" points="25.77 83.36 23.55 83.36 23.37 85.33 25.7 85.33 25.77 83.36 25.77 83.36"/><polygon class="cls-1" points="28.25 83.36 26.03 83.36 25.98 85.33 28.31 85.33 28.25 83.36 28.25 83.36"/><polygon class="cls-1" points="30.74 83.36 28.52 83.36 28.59 85.33 30.91 85.33 30.74 83.36 30.74 83.36"/><polygon class="cls-1" points="33.22 83.36 31 83.36 31.19 85.33 33.52 85.33 33.22 83.36 33.22 83.36"/><rect class="cls-53" x="24.58" y="86.76" width="5.14" height="0.99"/><g class="cls-54"><circle class="cls-27" cx="66.32" cy="94.8" r="0.84" transform="translate(-47.4 115.85) rotate(-65.64)"/><circle class="cls-27" cx="66.07" cy="92.47" r="1.46" transform="translate(-45.43 114.25) rotate(-65.64)"/><circle class="cls-27" cx="63.7" cy="94.53" r="1.17" transform="translate(-48.69 113.31) rotate(-65.64)"/><polygon class="cls-26" points="63.89 96.48 62.85 98.4 63.74 98.81 65.08 95.13 66.51 94.46 66.51 94.44 65.2 94.82 66.03 92.64 65.98 92.61 65.73 93.08 65.53 92.44 65.53 92.44 65.65 93.23 64.17 95.96 63.63 93.81 63.61 93.82 63.7 94.71 63.1 94.4 63.1 94.41 63.72 94.84 63.89 96.48"/><path class="cls-26" d="M63.92,95.8a.19.19,0,0,1,.14-.05l-.42-1.66h0l.09.89-.6-.3h0l.62.43.08.78Z" transform="translate(0 -0.27)"/><path class="cls-27" d="M49.15,92.63a2.42,2.42,0,0,0-2-2.44c-.81-1-1.86-1.18-2.58-.3-1.14-.13-1.78.71-1.65,2a2.42,2.42,0,0,0,.26,3.15,2.42,2.42,0,0,0,2,2.44c.81,1,1.86,1.18,2.59.3,1.13.13,1.78-.71,1.65-2A2.42,2.42,0,0,0,49.15,92.63Z" transform="translate(0 -0.27)"/><polygon class="cls-26" points="47.1 97.12 47.76 99.17 48.67 98.8 46.77 94.91 47.18 93.52 47.17 93.52 46.64 94.66 45.79 92.91 45.74 92.93 45.9 93.44 45.3 93.14 45.29 93.14 45.95 93.6 46.91 96.56 44.98 95.47 44.97 95.49 45.68 96.03 45.05 96.26 45.05 96.27 45.79 96.12 47.1 97.12"/><polygon class="cls-19" points="62.08 88.38 61.91 88.37 62.01 87.46 62.17 87.47 62.08 88.38"/><ellipse class="cls-19" cx="62.29" cy="85.9" rx="2.1" ry="0.54" transform="translate(-29.63 138.63) rotate(-84.02)"/><rect class="cls-19" x="61.09" y="88.81" width="0.91" height="0.16" transform="translate(-30.92 32.58) rotate(-24.08)"/><ellipse class="cls-19" cx="59.44" cy="89.83" rx="2.1" ry="0.54" transform="translate(-31.38 31.65) rotate(-23.98)"/><polygon class="cls-19" points="61.99 88.55 62.08 88.41 62.82 88.95 62.73 89.08 61.99 88.55"/><ellipse class="cls-19" cx="64.27" cy="90.37" rx="0.54" ry="2.1" transform="translate(-46.62 89.03) rotate(-54.02)"/><polygon class="cls-29" points="61.38 98 62.18 88.5 61.79 88.45 60.61 97.9 61.38 98"/><path class="cls-55" d="M62.32,88.82A.37.37,0,1,0,62,89a.37.37,0,0,0,.36-.19Z" transform="translate(0 -0.27)"/><rect class="cls-19" x="50.09" y="87.75" width="0.16" height="0.91" transform="translate(-13.37 8.82) rotate(-9.14)"/><ellipse class="cls-19" cx="49.8" cy="85.94" rx="0.54" ry="2.1" transform="translate(-13.16 8.85) rotate(-9.24)"/><polygon class="cls-19" points="50.17 88.41 50.27 88.53 49.56 89.11 49.46 88.99 50.17 88.41"/><ellipse class="cls-19" cx="48.09" cy="90.48" rx="2.1" ry="0.54" transform="translate(-46.35 50.45) rotate(-39.18)"/><polygon class="cls-19" points="50.28 88.56 50.33 88.41 51.19 88.73 51.13 88.89 50.28 88.56"/><ellipse class="cls-19" cx="52.89" cy="89.73" rx="0.54" ry="2.1" transform="translate(-49.77 107.11) rotate(-69.24)"/><polygon class="cls-29" points="52.16 97.84 50.45 88.46 50.06 88.53 51.4 97.95 52.16 97.84"/><path class="cls-55" d="M50.6,88.75a.37.37,0,0,0,0-.15.37.37,0,1,0,0,.15Z" transform="translate(0 -0.27)"/><polygon class="cls-47" points="56.17 88.36 56 88.37 55.98 87.45 56.14 87.45 56.17 88.36"/><ellipse class="cls-47" cx="56.02" cy="85.87" rx="0.54" ry="2.1" transform="translate(-2.09 1.13) rotate(-1.4)"/><rect class="cls-47" x="55.21" y="88.86" width="0.91" height="0.16" transform="translate(-38.16 41.71) rotate(-31.37)"/><ellipse class="cls-47" cx="53.71" cy="90.14" rx="2.1" ry="0.54" transform="translate(-39.1 40.91) rotate(-31.4)"/><rect class="cls-47" x="56.46" y="88.49" width="0.16" height="0.91" transform="translate(-48.62 95.84) rotate(-61.45)"/><ellipse class="cls-47" cx="58.57" cy="90.05" rx="0.54" ry="2.1" transform="translate(-48.53 98.21) rotate(-61.46)"/><polygon class="cls-29" points="56.71 97.98 56.29 88.46 55.89 88.47 55.94 97.98 56.71 97.98"/><path class="cls-55" d="M56.43,88.76a.38.38,0,0,0,0-.14.37.37,0,1,0,0,.14Z" transform="translate(0 -0.27)"/><rect class="cls-32" x="43.09" y="102.14" width="26.98" height="0.43"/><path class="cls-31" d="M70.07,102.4c-2.16-1.74-7.24-5.22-13.34-5.27-6.27-.05-11.61,3.65-13.64,5.27Z" transform="translate(0 -0.27)"/><path class="cls-27" d="M70.07,102.4c-2.16-1.74-7.24-5.22-13.34-5.27h-.1A33.52,33.52,0,0,1,65,102.4Z" transform="translate(0 -0.27)"/><path class="cls-27" d="M66,98.88a.63.63,0,0,1-.08-1.19l1.82-1.21c.54-.36,1-.12,1.06.53l.14,2.18c0,.65-.4.95-1,.66Z" transform="translate(0 -0.27)"/><polygon class="cls-26" points="66.42 99.66 66.8 99.86 67.55 98.03 68.04 97.8 68.04 97.8 67.59 97.93 67.91 97.17 67.88 97.16 67.02 98.64 66.86 97.92 66.86 97.92 66.92 98.8 66.42 99.66"/></g></g></g></svg>