<svg id="Layer_1" data-name="Layer 1" xmlns="http://www.w3.org/2000/svg" viewBox="0 0 13925.65 5000"><defs><style>.cls-1{fill:#593eb1;}.cls-2{fill:#16e5b1;}.cls-3{fill:#ff0;}.cls-4{fill:#e21717;}</style></defs><path class="cls-1" d="M9881,2465.66a80.23,80.23,0,1,1,80.22-80.22A80.32,80.32,0,0,1,9881,2465.66Zm0-153a72.82,72.82,0,1,0,72.81,72.82A72.89,72.89,0,0,0,9881,2312.62Z"/><path class="cls-1" d="M12493.88,1696.19c-89.36,0-162.07,72.71-162.07,162.07a161.45,161.45,0,0,0,38.51,104.78c2.22-.6,4.5-1.13,6.85-1.66a155.27,155.27,0,0,1-39.11-103.12c0-85.92,69.9-155.82,155.82-155.82a156,156,0,0,1,138.82,85c.44-3.62.81-7.22,1.15-10.84A162.13,162.13,0,0,0,12493.88,1696.19Zm45,317c-.25.37-.53.71-.81,1.06.44-.13.91-.25,1.34-.41C12539.24,2013.61,12539.08,2013.39,12538.89,2013.18Z"/><path class="cls-2" d="M11658.24,2246.92l-30.28-25.57c39.46-96.79,18.46-156.24,3.75-181.75l29.17-24.86C11680.86,2046.19,11712.72,2123.25,11658.24,2246.92Z"/><path class="cls-1" d="M11628,2221.35l-62.4-52.81a62.79,62.79,0,0,0,3.86-75.93l62.29-53,29.17-24.86,26.58-22.62-14.26-14.51c-1.21-1.22-30.58-30.84-77.71-50.07a218.4,218.4,0,0,0-53.62-14.46,197.34,197.34,0,0,0-37.89-1.52,206,206,0,0,0-29.93,4v-36a18.95,18.95,0,1,0-37.89,0v47.89a241.75,241.75,0,0,0-29,14.51c-75.43,44.48-99.62,110.07-106.57,157.25-7.51,50.47,2.69,90.5,3.09,92.17l.36,1.17c1.67,5.17,43,126.92,170.13,152.08l1.83.35h194.23v-87.81l-12-10.19Zm4.41,85.73h-152.59c-100.79-21-136.35-116.62-139.49-125.85-2.74-11.27-30.24-138.13,86.13-206.66,3.24-1.93,6.49-3.71,9.74-5.38v67.41a18.95,18.95,0,0,0,37.89,0v-82.22a164.42,164.42,0,0,1,40.38-5.38c5.33,0,10.5.2,15.57.61a182.63,182.63,0,0,1,60.11,16.53,219.79,219.79,0,0,1,40.48,24.61l-6.34,5.42-.15.16-2.43,2-.26.25-82.58,70.36a62,62,0,0,0-21.31-3.71,62.85,62.85,0,0,0,0,125.7,59.73,59.73,0,0,0,13.95-1.62l90.86,76.85,1,.86,9,7.66Zm-89.89-179a25,25,0,1,1-25-25A25,25,0,0,1,11542.48,2128.06Z"/><path class="cls-1" d="M11541.87,1880.54v32.55a195.73,195.73,0,0,0-37.89-1.51v-31a18.95,18.95,0,0,1,37.89,0Z"/><path class="cls-1" d="M12646.3,1803.12q-1,6.75-2.26,13.51a466.68,466.68,0,0,1-70.64,175.6c-2.5,3.82-5.09,7.63-7.81,11.38q-7.45,10.65-15.66,20.91l-6.13-4.87q-2.11-3-4.38-5.82c-.18-.22-.34-.44-.53-.65,2-2.51,4-5,5.91-7.6a452.24,452.24,0,0,0,87.9-218.09c.44-3.62.81-7.22,1.15-10.84,11.63-118.91-23.31-241.5-104.33-337.83-78.24-93-188.05-150-309.14-160.48s-239,26.88-332,105.12-150,188-160.48,309.14,26.88,239.06,105.12,332.08a453.91,453.91,0,0,0,115.87,98.43,64.12,64.12,0,0,0,.91,10.28l-3.22,6.5a9.05,9.05,0,0,1-1-.59,469,469,0,0,1-124.5-104.56c-81-96.24-119.56-218.21-108.75-343.49s69.77-238.81,166-319.73,218.21-119.56,343.46-108.75,238.81,69.77,319.74,166C12631,1535.15,12666.08,1672.53,12646.3,1803.12Z"/><path class="cls-1" d="M11953.5,2125.89l-3.38,6.75a.16.16,0,0,0-.06.13l-.31.62a64.12,64.12,0,0,1-.91-10.28c1.38.87,2.75,1.69,4.16,2.47A4.53,4.53,0,0,0,11953.5,2125.89Z"/><path class="cls-1" d="M12543.8,2019.65l-6.13-4.88c.13-.19.29-.34.41-.53.28-.35.56-.69.81-1.06.19.21.35.43.53.65Q12541.69,2016.65,12543.8,2019.65Z"/><path class="cls-3" d="M11578.56,2422.56a5.55,5.55,0,0,1-4.14-9.25l13.07-14.65a5.56,5.56,0,0,1,8.29,7.4l-13.08,14.64A5.52,5.52,0,0,1,11578.56,2422.56Z"/><path class="cls-3" d="M11564.1,2415.24a5.56,5.56,0,0,1-5.56-5.56v-19.86a5.56,5.56,0,0,1,11.11,0v19.86A5.55,5.55,0,0,1,11564.1,2415.24Z"/><path class="cls-3" d="M11549.41,2420.6a5.5,5.5,0,0,1-3.2-1l-13.59-9.63a5.55,5.55,0,1,1,6.42-9.06l13.59,9.62a5.56,5.56,0,0,1-3.22,10.09Z"/><path class="cls-3" d="M11759.61,2233.21a5.57,5.57,0,0,1-2.84-.79l-19.23-11.48a5.55,5.55,0,0,1,5.69-9.54l19.23,11.48a5.56,5.56,0,0,1-2.85,10.33Z"/><path class="cls-3" d="M11746.69,2246.44h-19.38a5.56,5.56,0,0,1,0-11.11h19.38a5.56,5.56,0,1,1,0,11.11Z"/><path class="cls-3" d="M11736.78,2270.26a5.55,5.55,0,0,1-1.85-10.79l17.71-6.26a5.55,5.55,0,0,1,3.7,10.47l-17.71,6.26A5.46,5.46,0,0,1,11736.78,2270.26Z"/><path class="cls-2" d="M13139,2454.81,13264.46,2132v260.12Zm121.76-303.11-114.84,295.51,114.84-57.42Z"/><path class="cls-2" d="M13264.46,2519.65l-125.3-58.81,125.3-62.63Zm-116.81-58.91,113.11,53.08V2404.2Z"/><path class="cls-2" d="M13270.49,2519.65V2398.21l125.31,62.63Zm3.71-115.45v109.62l113.11-53.08Z"/><path class="cls-2" d="M13396,2454.81l-125.47-62.73V2132Zm-121.76-65,114.83,57.42L13274.2,2151.7Z"/><path class="cls-2" d="M13270.49,2659.89V2533.28l125.1-58.72Zm3.71-124.26v112.16L13385,2483.62Z"/><path class="cls-2" d="M13264.46,2659.9l-125-185.34,125,58.72ZM13150,2483.62l110.77,164.17V2535.63Z"/><path class="cls-2" d="M10927.66,1991.25c-72.07,63-181.3,130.67-316.28,195.93-1.46.73-2.92,1.42-4.42,2.15l-15.16,7.2c-115.43,54.71-243.14,105-379.85,149.52-197.42,64.25-390.34,108.85-559,129.2-4.34.5-8.65,1-13,1.54-1.19.12-2.43.27-3.58.38-58.29,6.55-112.35,9.82-160.72,9.82-43.71,0-82.72-2.66-116.08-8-76.3-12.27-122.59-37.82-137.44-76-29.4-75,71.91-185.22,277.84-302.5-.15,5.27-.19,10.58-.12,15.85-192,110.47-290.88,215.43-265,281.65,25.51,65.41,171.22,90.11,390.84,66.64,4.2-.46,8.47-.92,12.7-1.42,1.19-.12,2.42-.27,3.65-.42,169.92-19.67,365.42-64.53,565.65-129.75,139.36-45.36,269.34-96.77,386.31-152.71l5.77-2.77,1.08-.54c2.34-1.08,4.65-2.19,7-3.35l1-.5h0c273-132.51,428.36-269.8,396.66-351-15.12-38.67-71.88-63.6-164.22-72.11-89.31-8.27-208.43-.77-345.14,21.7-2.35-3.07-4.77-6.11-7.19-9.12l-1.12-1.38c-.46-.58-1-1.19-1.46-1.77,299.46-50.14,498.16-28.67,531.9,57.68C11036.36,1863.39,11005,1923.61,10927.66,1991.25Z"/><path class="cls-4" d="M9509.87,2110.61c-3.39,1.88-6.7,3.81-10,5.69-.07-5.27,0-10.58.12-15.85,1-.62,2.08-1.19,3.12-1.77a6.84,6.84,0,0,1,9.35,2.58A6.92,6.92,0,0,1,9509.87,2110.61Z"/><path class="cls-4" d="M10496.18,1771.7c-3.81.62-7.62,1.27-11.46,1.93a6.92,6.92,0,0,1-6.24-2.2l-.23-.3a2.74,2.74,0,0,1-.27-.35,6.77,6.77,0,0,1-1.15-2.77,6.84,6.84,0,0,1,5.62-7.89l4-.69c.5.58,1,1.19,1.46,1.77l1.12,1.38C10491.41,1765.59,10493.83,1768.63,10496.18,1771.7Z"/><path class="cls-1" d="M10496.18,1771.7c-3.81.62-7.62,1.27-11.46,1.93a6.92,6.92,0,0,1-6.24-2.2l-.23-.3a2.74,2.74,0,0,1-.27-.35c-2.23-2.73-4.42-5.46-6.77-8.2-192.58-229-535.56-258.6-764.57-66.06s-258.6,535.6-66,764.57c.46.58.92,1.12,1.42,1.66-1.23.15-2.46.3-3.65.42-4.23.5-8.5,1-12.7,1.42a553.78,553.78,0,0,1-125.86-348.29c-.07-5.27,0-10.58.12-15.85,3.23-154.68,70.45-307.24,197.85-414.4,234.78-197.46,586.42-167.1,783.85,67.68,1.61,1.89,3.19,3.81,4.73,5.7.5.58,1,1.19,1.46,1.77l1.12,1.38C10491.41,1765.59,10493.83,1768.63,10496.18,1771.7Z"/><path class="cls-3" d="M11613.6,3414.49l-58.8-83.55-1.62-38.22c2.1-3.34,7.73-13.5,4.94-22.79a17.17,17.17,0,0,0-6.73-9.2c9.24-7.85,24.79-29.67,7.59-81.35-10.75-32.21-14.41-44.45-15.64-49.09l38.89-95.86c1.24-3.67,29.77-90.44-17.34-154.58-42.66-58-107.39-57.82-120.06-57.18-7.51-10.1-47-59.33-102.61-59.33-60.33,0-115.38,58.16-117.7,60.63l-79.94,105.3-14.26-5.72c.18-8.72-2.3-34.13-35.59-46.84l-21.91-102.27,104.64-4.41h0l14-.58a199.54,199.54,0,0,0,23.55-4.35h0l.37-.08,2.25-.54h0q3.51-.85,7.19-1.88v0l4.88-1.44a278.24,278.24,0,0,0,37.8-14.16l1.81-.84v0q3-1.41,6.11-2.94c43.58-21.79,161.9-93.76,163.09-94.49l.81-.67c.55-.6,12.88-14.35,11.55-29.32l37-29.61,68.16-43.71c2.52-1.31,20.64-12,25.31-49.17,0-.06,0-.13,0-.19v0a149.34,149.34,0,0,0,1.1-18.44c0-25.93-4.8-37.38-5.77-39.42-.65-1.85-4.25-10.91-13.32-12.52a11.94,11.94,0,0,0-6.85.9c-3,1.28-9.91,5.46-9.91,16.78,0,4.66-.08,8.21-.18,10.82-5.77-3.67-14.75-8.79-20.72-9.31a13.07,13.07,0,0,0-13.76,6.21c-3.83,6.21-1.68,14.61,4.79,18.73,10.54,6.71,15.31,10.43,16.2,11.57a7.46,7.46,0,0,1,1.15,3,48.6,48.6,0,0,0-15.9-1.86,80,80,0,0,0-17.28.88l5.83-23.66.11-.71c0-.87.25-8.65-4.69-13.82a14.27,14.27,0,0,0-10.64-4.25c-14.45,0-22.49,20.73-23.41,23.24-.06.19-6,18.92-10.48,33.65-3.3,10.8-20.34,21.88-27.19,25.56a3.47,3.47,0,0,0-.37.21l-23.8,14.63c-6.91-1.59-34.24-6.31-66.88,9.23-26.69,12.71-78.53,38.48-99.38,48.85h0l-1.65.83-1.36.68h0l-14.8,7.4a125.48,125.48,0,0,1-23,7.91,3.45,3.45,0,0,0-.84.21,151.92,151.92,0,0,1-15.51,2.93h-.08a148.46,148.46,0,0,1-20.92,1.47c-5.48,0-12.87-.09-21.41-.22h0c-38.94-.61-103-2.39-124.5-3,5.54-8.18,13.44-24,9.21-43.43v-29.74c2-4.27,10.34-23.92,10.34-56.87l0-6c.2-37.83.5-94.93-56.63-138.39-3.61-6.55-29.18-48.51-93.17-51-32.36-1.27-54,0-72.5,4.15s-33.92,11.51-47.16,22.58a127.66,127.66,0,0,0-22.44,24.58c-29.34,41.1-37.62,71.44-39.11,77.76-4.16,4.15-20.16,22.55-17.77,57.73,2.12,31.39,14.57,45.42,19.81,50,.46.4.86.73,1.21,1a113.28,113.28,0,0,0,4.16,14.62c4.58,12.84,13.43,31.05,29.73,45.66V2604c-8.13-.25-25.88,2.72-46.06,26.26-25.7,30-142.63,207.33-147.6,214.87l-.21.36c-1.3,2.58-31.62,63.66.24,110.58,2.65,3.93,6,8.29,10.13,13.29h0l1.09,1.29.14.18h0c6.58,7.83,14.93,16.82,24.8,26.73l5.53,5.54v0q2.75,2.7,5.55,5.42h0l1.63,1.58c9.09,8.75,18.74,17.74,28.68,26.7h0l1.05.95,4.06,3.66v0c31.63,28.32,59.91,51.37,60.21,51.61l.68.44c1.49.75,36,17.56,76.7,1.71l21.41,78.93c3.53,13.11,16.35,21.52,29.19,19.15l.59-.11c9.38-2,16.11-11.43,15-21.08-2.11-18.73-6.7-59.46-8.89-78.7l57.68,57.68c1.62,2.48,9.08,11.8,26.83,7l43.11,43.09c23.38,23.37,50.2,41,79.72,52.35a145.5,145.5,0,0,0,14.28,4.74c29.82,8,65.35,12,123-12.23,42.74-17.95,96.3-74,126.18-108.08l-17.13,37.42a123.51,123.51,0,0,0-11.41,54.8,77.71,77.71,0,0,0,1.22,12.6l-32.11,48.54a33.61,33.61,0,0,0-5.68,19.64,50.89,50.89,0,0,0,12.21,32.18l1.7,126.13,0,.41c.06.44,6,43.43,48.06,48a58,58,0,0,0,6.21.34c37.48,0,53.48-38.42,53.64-38.83l.27-.66v-117a142,142,0,0,1,11.84-19.59c7-9.73,14.36-17.26,21.9-22.39,7.29-5,14.65-7.59,21.93-7.83-2.1,14.35-5.78,59.63,28.42,74a32.85,32.85,0,0,1,13.3,9.61l83.83,103,.35.37c1.06,1,26.46,23.82,77.22,1.56,12.72-5.58,20.48-14,23.08-25.14C11641.44,3448.07,11614.56,3415.61,11613.6,3414.49ZM11552,3181.73c20.47,61.47-8,75.44-9.2,76l-8.17,3.61,2.77,1.07a155.51,155.51,0,0,1-22.15,15.54c-5.36,1.63-66.33,19.8-93.13,11.89a38.22,38.22,0,0,1-4.65-1.67l-.23-.1c-24.36-10.73-39.1-44-39.14-44.07l-30.11-89.52c15.88-7.89,96.69-46.18,179.63-52l7.87,24.56C11535.27,3131.34,11539.18,3143.44,11552,3181.73Zm-219.44-73.17-5.57-16.57c14-7.42,82.13-41.39,179.87-54.39l6.55,20.5C11458.64,3058.7,11353.8,3100,11332.51,3108.56Zm-19.76-58.8c19.39-7.61,121.34-46.44,183-46.44h0l8.71,27.11c-95.75,13-163.37,45.77-180,54.45Zm203,15.74,9.51,29.67c-82.06,6.26-161.49,43.26-179.68,52.22l-10.69-31.79C11354.9,3107.54,11463.44,3064.79,11515.73,3065.5Zm43.19-181.26c44.8,61,16.58,147,16.37,147.61l-35,86.16-5.15-16.07h0l-13.21-41.19h0l-7.71-24.11h0l-1.1-3.4-.26-.84h0l-11.09-34.56L11448,2830C11464.41,2829.65,11520.91,2832.51,11558.92,2884.24Zm-676,203.57h-.26l-22.43-25.4,56.63,3.09c.49,0,11.26.84,16.81-7.47,167.3-38.47,192.15-107.38,195.83-126.82l11.08,4.43c-14.1,43.36-72.41,91.59-76.36,94.83C10974.17,3083.07,10904.81,3087.81,10882.93,3087.81Zm188.5-320.73c-3-18.69-19-108.22-53.32-145.08,23.18.65,82.22,2.28,119.92,2.9,5.27,10.18,30.24,61.95,35.35,137.89Zm153.56-12.24q-3.46,1-6.79,1.85c2.31-49-22.76-116-29.82-133.78,3.06-.51,6.15-1.13,9.29-1.84C11203.49,2632.34,11226.31,2681.4,11225,2754.84Zm221.88-142.39c-24.75-19.87-33.91-58.44-35.92-68.42l16.36-10.06c.34,10.82,6.62,31.52,38.71,63.16Zm112.55-179.09a4.54,4.54,0,0,1,2.62-.4c5.41.95,7.62,7.67,7.64,7.72l.25.62c0,.1,5.09,10.27,5.09,36.3,0,1.19,0,2.37-.05,3.54-6.89-9.86-17.32-18.68-21.45-22,.2-2.52.46-7.45.46-15.81C11554,2437,11556.92,2434.43,11559.42,2433.36Zm-94.75,66.63c4.44-14.68,10.4-33.36,10.4-33.39,1.88-5.07,8.48-18.24,16.41-18.24a6.89,6.89,0,0,1,5.26,1.93c2.21,2.29,2.67,6.34,2.67,8.07l-6.93,28.11a7.72,7.72,0,0,0-2.48,2.69,6.64,6.64,0,0,0-.75,3.26c-5.21,1.25-12.85,5.48-12,14.8.9,9.88,8.18,13.27,11.9,13.68l.38,0,.39,0c12.9-1.27,17.61,1.22,19.27,2.82a3.76,3.76,0,0,1,1.24,2.3c-6.29,18.55-44.45,12.59-44.83,12.52a3.7,3.7,0,0,0-1.19,7.31,97.78,97.78,0,0,0,14.63,1.07c14,0,33.65-3,38.61-19.14l.12-.57a10.58,10.58,0,0,0-3.08-8.46c-4.42-4.62-12.81-6.4-25-5.27-1.24-.28-4.58-1.53-5.07-6.94-.52-5.73,6.4-7,7.1-7.08.22,0,22-2.55,34.81,8,5.57,4.6,8.7,11.15,9.29,19.49a3.7,3.7,0,0,0,7.39-.52c-.74-10.46-4.78-18.77-12-24.71-10.36-8.52-24.75-10-33.29-10,3.38-1.39,11.82-2.24,20.19-1.86,10.73-.37,19,2.29,24.71,7.88,8.66,8.53,8.51,21.34,8.51,21.47a3.69,3.69,0,0,0,3.61,3.78h.09a3.7,3.7,0,0,0,3.7-3.6c0-.66.27-16-10.65-26.86a31.77,31.77,0,0,0-6.25-4.82c0-2.92-.57-7.68-3.06-10.92-.67-.87-2.71-3.51-18.08-13.3-3-1.92-4.16-5.85-2.39-8.71,2.2-3.42,5.25-2.88,5.77-2.75l.82.14c5,.27,16.52,7.25,22.52,11.53,6.78,5.13,24.54,20.77,26.48,32.09-4.47,34.33-21.16,42.95-21.3,43l-68.91,44.15-11.83,9.46c-38.87-38.1-37.65-58.6-36.69-63.24C11440.59,2526.16,11460.34,2514.19,11464.67,2500Zm-122.14,54.16c28.95-13.77,53.8-10.35,61.1-8.88,2.08,10.71,11.74,52.41,39.82,73.92,1.08,10.6-7.51,21.4-9.31,23.53-8.41,5.11-120.18,73-162,93.89l-1.59.77c7.86-67-18.87-120.67-26.71-134.69C11265,2592.15,11316.13,2566.74,11342.53,2554.15Zm-117.08,57.7s4.43-2.23,11.69-5.85c7.21,13,34.81,68.31,25.41,135.14a269.86,269.86,0,0,1-30.12,11.47c.79-70.68-20.34-119.19-27.4-133.39A123.9,123.9,0,0,0,11225.45,2611.85Zm-63.71,13.3a158.21,158.21,0,0,0,19.09-1.15c5.78,14.49,33,85.87,29.85,134.5a196.84,196.84,0,0,1-19.77,3.57h0l-10.13.41c-4.73-70.74-26.52-121.21-34.42-137.46C11152.36,2625.1,11157.59,2625.15,11161.74,2625.15ZM11028,2478.46l0,6c0,28.68-6.71,46.91-9.1,52.48-117.37,9.19-145.9-9.23-146.14-9.39l-.5-.36-.58-.18c-53.89-16.4-54.31-112.78-54.24-121.14,20.39-56.48,143.46-59.47,157.2-59.62C11028.47,2387.47,11028.19,2442.18,11028,2478.46Zm-334-3.05c-2.18-32.07,12-48.41,15.47-51.85,4.94-.71,26.92-3,42.35,9.58,10.64,8.69,16.15,22.79,16.4,41.92.23,17.93-4.14,31-13,39-11.16,10-27.25,9.64-35.86,8.56a59.68,59.68,0,0,1-6.79-1.22c-.29-.21-.71-.54-1.27-1C10706.75,2516.35,10695.94,2504,10694,2475.41Zm24.77,63.63c-1.32-3.74-2.26-7-2.91-9.49q1.2.19,2.58.36a72,72,0,0,0,9.15.58c9.94,0,22.67-2.12,32.57-11,10.52-9.4,15.73-24.4,15.46-44.57-.27-21.44-6.72-37.45-19.17-47.59-14.93-12.16-34.27-12.4-43.73-11.63,3.17-10.67,12.71-37.27,36.8-71a120.85,120.85,0,0,1,21.14-23.19c12.5-10.45,26.5-17.13,44-21.05,17.8-4,38.91-5.21,70.59-4,50.22,1.95,75.48,30.45,83.94,42.46-28.72.79-139,7.34-159,65.05l-.2,1.12c-.11,4.49-1.94,109.71,59,128.82,3.68,2.25,24.68,13,89.42,13,16.68,0,36.26-.72,59.2-2.47v24c-126.54,26.62-257.18,14.79-270.82,13.44C10731.46,2568.31,10723.09,2551.14,10718.78,2539Zm-164.6,310c4.54-6.88,121.88-184.74,146.92-213.93,23.77-27.74,42.44-23.58,43.18-23.4l4.66,1.24v-23.35c11,1,43.18,3.54,86.52,3.54,51,0,117.46-3.52,182.9-17.21,2.77,19.74-8.81,35.06-11.88,38.72-12.57,2.36-120.36,21.71-197.45,7.93a3.7,3.7,0,0,0-1.3,7.29c77.42,13.83,184.84-5.1,199.69-7.86,35.4,29.74,53,124.59,56.55,145.42h-.23l24,111.93c-2.43,7.55-25.15,67.52-132.94,74.07a3.7,3.7,0,0,0,.22,7.4h.23c105.31-6.39,132.91-61,138.63-76.47,24.72,10.18,28.7,27.79,29.1,36.28l-.07,0-.14,5.32c0,.81-4.23,80.71-186.19,123.85a31,31,0,0,0-.27-8.19,9.5,9.5,0,0,0-2.88-6.23c-4.07-4.17-11.78-6-22.81-5.51l-32,.4a5,5,0,0,1-3.7-1.56,4.87,4.87,0,0,1-1.29-3.75c.52-7.09,2.35-12.31,5.17-14.7l38.14-32.22.54-.57c.75-1,7.33-9.83,6.12-18a11.78,11.78,0,0,0-4.9-8c-1.26-.94-8.2-5.07-21.4,5.94l-9.48,7.9-18.59,15.48a15.44,15.44,0,0,1-10.71,3.52c-7-.39-20-2.09-27.74-9.09-.55-.49-1.11-1-1.67-1.4a11.7,11.7,0,0,0,1.49-1.57,11.37,11.37,0,0,0,2-9.88c-2.43-9.57-8.56-27.37-22.29-39.41l-63.41-71.77,51.81-76.87.34-.64c1.34-3.18,32.36-78.47-5.85-120.23a3.7,3.7,0,0,0-5.46,5c33.82,37,6.76,106.71,4.62,112l-53.11,78.81-21.15,23.71a13.7,13.7,0,0,0-3.74,9c-23.58-1.33-127.4-2.38-153.83,78.7-2.53-3.19-4.69-6.09-6.49-8.76C10525.43,2909.8,10552.43,2852.6,10554.18,2849Zm203,64.29-4.53-3.35c-2.85-2.12-5.59-4.17-8.14-6.1l-16.45-12.26c-3-2.29-5.08-4.66-5.89-6.87h0a6.35,6.35,0,0,1,1.27-6.64l18.76-21,62.69,71,.35.34c12.34,10.73,17.92,27.05,20.16,35.84a4,4,0,0,1-.7,3.51,4,4,0,0,1-3.16,1.54h-.38l0,0-1.08,0a17.93,17.93,0,0,0-2.12-.46,4.09,4.09,0,0,1-2.09-3.37,32.42,32.42,0,0,0-2.15-9.36l-.39-.94-.82-.61S10782,2931.81,10757.2,2913.3Zm-40.93-23.78.13.21c.14.25.3.51.46.76s.18.3.28.45c-103.08,3.08-127.54,73.23-132.8,96.34-7-7.18-13.09-13.8-18.17-19.75C10589.44,2883.5,10699.79,2888.33,10716.27,2889.52Zm-125.68,104.09c1.94-13.35,18.5-95.37,133.59-95.37h.44l7.64,5.7c-92,10.08-126.22,77-134.38,96.85Q10594.18,2997.2,10590.59,2993.61Zm150.56-83,.52.39,3.61,2.7.18.14c-26.82,4.58-103.08,25.25-120,112.94-7.51-6.84-14.83-13.68-21.82-20.39C10608.68,2992.73,10641.09,2917.4,10741.15,2910.58Zm-46,176.36c-3.46-2.82-32.16-26.37-63.18-54.31,16.17-98.21,109.14-111.22,122-112.54,22.09,16.47,48.18,35.87,53.28,39.66a24.51,24.51,0,0,1,1.27,6.08,12,12,0,0,0,.5,2.68c-10.79.46-25.7,3.19-35.41,13.67a11.66,11.66,0,0,1-8.5,4.07h-67.47c-1.71-.07-16.87-.55-23.52,6.26a11,11,0,0,0-3.19,7.95,12.31,12.31,0,0,0,1.08,8.89c2.76,5.26,9.06,9,18.72,11.16l42.09,1.46a8.06,8.06,0,0,1,7.63,6.35c3.48,16.4,11,44.7,23.88,60.34C10729.18,3101.69,10698.66,3088.57,10695.12,3086.94Zm194.22,60-59.53-59.75a6.95,6.95,0,0,0-11.83,5.69c2.12,18.66,6.88,60.82,9,80a12.21,12.21,0,0,1-9.19,13l-.4.08c-9.07,1.65-18.15-4.39-20.69-13.8L10773.1,3085l-1.61.7c-13.24-14.28-21-45.67-23.86-58.9a15.43,15.43,0,0,0-14.62-12.21l-41.07-1.37c-6.92-1.58-11.66-4.11-13.35-7.15a4.9,4.9,0,0,1-.57-3.7l.32-.8-.06-.86a3.64,3.64,0,0,1,1.08-3c3.27-3.37,12.69-4.27,18-4h67.64a19,19,0,0,0,13.94-6.44c9.73-10.51,26.64-11.63,35.84-11.35.36,0,.71,0,1.06.08l.2.08h0a10.69,10.69,0,0,0,1.83.47l.69.05,1.63.55a19.91,19.91,0,0,1,5.51,3.6c9,8.09,22.5,10.44,32.28,11a22.8,22.8,0,0,0,15.86-5.22l18.6-15.48,9.48-7.9c6-5,9.69-5.76,11.3-5.76.69,0,1,.17,1,.11a4.46,4.46,0,0,1,2,3.11c.61,4.09-2.81,9.83-4.45,12.08l-37.81,31.95c-4.48,3.8-7.09,10.46-7.77,19.79a12.27,12.27,0,0,0,3.26,9.36,13.07,13.07,0,0,0,9.2,3.92l32.13-.41c14.36-.68,18,3.22,18.08,4.39l0,.42.07.42c.71,4.45.42,8-.85,10.48a2.37,2.37,0,0,0-.19.35c-3,5.3-10.12,4.86-10.51,4.83l-60.6-3.31a5.92,5.92,0,0,0-5.51,3.25,5.81,5.81,0,0,0,.86,6.37l26.06,29.52h0l30.07,34.08.42.4c9.34,7.69,2.41,19,.13,22.23C10894.19,3154.9,10889.51,3147.21,10889.34,3146.92Zm277.88,92.24c-55.59,23.38-89.66,19.54-118.2,11.9a138.55,138.55,0,0,1-13.54-4.5c-28.55-11-54.5-28-77.14-50.68l-42.44-42.42c4.93-7.67,9.07-21-2.26-30.55l-24.54-27.81c27.61-.95,94.6-9,179.11-58.38l.45-.32c2.67-2.14,64.41-52.24,79.21-99.21l82.18-108.29c2.94-3.07,56.39-58.15,112.17-58.15,54.19,0,93.62,52.17,97.46,57.44l53.76,167.74c-63.56.9-162.54,38.69-183.06,46.8l-25.38-75.47a3.7,3.7,0,1,0-7,2.36l26.44,78.59,4.46,13.27c-55.51,97.67-109.27,157.3-112.52,160.86C11186.32,3229.42,11176.45,3235.28,11167.22,3239.16Zm71.34,71.53a26.25,26.25,0,0,1,4.44-15.35l16.48-24.9c3.12,14.83,7.07,47-11.53,66.56A43.68,43.68,0,0,1,11238.56,3310.69Zm121.68,25.27c-8.33-.22-42.5-1.9-56.75-14.31a3.7,3.7,0,1,0-4.86,5.58c14.13,12.31,43.27,15.25,56.59,15.95a148.73,148.73,0,0,0-7.91,13.62c-13.49-.64-34.15-2.85-38.9-6.58a3.7,3.7,0,1,0-4.58,5.82c7.31,5.74,31.76,7.58,42,8.1V3477c-2.26,5.12-17.78,36.95-51.91,33.27-35.22-3.83-41-38.15-41.5-41.39l-1.69-125.5a3.67,3.67,0,0,0,2.39-1.12c25.38-26.41,14.59-70.8,11.9-80.26l8.07-12.2c10.91,13.5,48.25,55.17,103.22,68.53A107.09,107.09,0,0,0,11360.24,3336Zm23.93-23.49c-61.77-12.21-103.18-64.49-107.84-70.61a65.78,65.78,0,0,1-1.2-12,115.84,115.84,0,0,1,10.73-51.49l18.91-41.3a6.79,6.79,0,0,0-11.29-7.28c-13.73,15.78-39.91,44.65-68.18,69.45a1063.8,1063.8,0,0,0,86.73-128.4l6.9,20.51h0l6.71,20h0l1,3,.08.26h0l14.55,43.25h0l29.86,88.73c.62,1.44,15.12,34.26,40.67,47.07l-1.65,10.51C11401.45,3304.19,11392.72,3306.94,11384.17,3312.47Zm32,1.24c10.57,6.2,36.23,25.88,30.49,68.37a45.25,45.25,0,0,0-6.44-3.29C11412,3366.93,11414.36,3327.58,11416.16,3313.71Zm211.77,159.59c-2,8.71-8.38,15.45-18.85,20-44.49,19.51-66.78,1.88-69-.06l-83.63-102.71a36.06,36.06,0,0,0-3.08-3.35c9.14-52.4-25.61-75.59-35.84-81.19l.27-1.29-.19,0,1.29-8.12,1.14.35a69.11,69.11,0,0,0,19,2.25c32.36,0,76.46-13.6,78.72-14.3l.69-.3c.64-.36,15-8.4,26.52-19.1,3.21,1.65,5.2,3.8,6,6.54,1.9,6.3-2.68,14.76-4.61,17.5l-.73,1,.42,9.94c-4.57,4.75-24.89,24.35-49.94,25.28a3.7,3.7,0,0,0,.13,7.4h.14c22.53-.83,41-14.54,50.09-22.77l.87,20.38c-4.16,4.49-13.95,13.38-22.18,14.13a3.7,3.7,0,0,0,.34,7.39h.34c9.91-.91,19.86-9.42,24.82-14.32l57,81C11608,3419.3,11633.39,3450,11627.93,3473.3Z"/><path class="cls-3" d="M10722.28,2516.89a20.64,20.64,0,0,0,11.88,3.38,32.73,32.73,0,0,0,6.64-.71c18.6-3.87,27.39-25.71,23.93-43.68-2.85-14.82-13.69-31.87-31.47-36.55-7.61-2-14.11-1.29-19.33,2.1-6.89,4.5-9.11,12.27-9.67,14.76-.14.2-.29.39-.43.6a27.41,27.41,0,0,0-4.28,16.54h0c.81,9.15,4.29,18.74,10.52,25.77C10711.83,2504.87,10717.94,2513.89,10722.28,2516.89Zm-4.3-69.25c3.39-2.21,7.89-2.6,13.39-1.15,12.5,3.29,23.23,16,26.09,30.79,2.74,14.21-4,32.1-18.17,35-3.05.63-8.76,1.28-12.8-1.52a15,15,0,0,1-2.65-2.59,29.61,29.61,0,0,0,4.66,1.08,15.06,15.06,0,0,0,2.21.17,14.62,14.62,0,0,0,9.66-3.74c5.86-5,8.54-13.84,8.54-19.89,0-13.87-5-25-13.67-30.5-6.15-3.9-13.39-6.25-19.75-5.52A12.13,12.13,0,0,1,10718,2447.64Zm-8,13.3a9.06,9.06,0,0,1,7.94-3.88c4.71,0,10,2.36,13.37,4.52,9.25,5.86,10.24,18.9,10.23,24.24,0,4.44-2.09,10.95-6,14.28a7.13,7.13,0,0,1-5.94,1.86,23,23,0,0,1-13.18-6.9,3.42,3.42,0,0,0-.66-.71c-5.22-5.76-8.15-13.91-8.83-21.67h0A20,20,0,0,1,10710,2460.94Z"/><path class="cls-3" d="M10970.9,2354a7.29,7.29,0,0,0-2.93-2l-.42-.14a7.1,7.1,0,0,0-8.2,2.71,7.5,7.5,0,0,0,.18,9c49.25,63.25,43.83,111.38,41,124.63a7.23,7.23,0,0,0,3.88,8.13,7.59,7.59,0,0,0,3.16.68,9.88,9.88,0,0,0,5.77-2.07,7.49,7.49,0,0,0,3-5.48c5.64-74.58-36.9-125.94-45.49-135.47Zm41.79,135.2a3.74,3.74,0,0,1-1.53,2.76c-1.89,1.39-3.65,1.73-5.22,1a3.58,3.58,0,0,1-1.79-4c2.92-13.64,8.54-63.16-41.7-127.67a3.78,3.78,0,0,1-.07-4.6,3.35,3.35,0,0,1,4-1.34l.36.12a3.54,3.54,0,0,1,1.42,1C10976.56,2365.84,11018.23,2416.15,11012.69,2489.22Z"/><path class="cls-3" d="M12695.58,3489.45a16.54,16.54,0,0,1-4.19-4.72l-3-4.95-10.52-17.47a16.4,16.4,0,0,1-2-11.58c7.69-39.81-5.8-67-8.62-72.09a12.12,12.12,0,0,1-.85-1.82l-71.11-181.94-35.51-105.67-1-3s0,0,0,0l-11.85-35.3,0-.13-11.93-35.51-.89-2.65-11.64-34.68,0-.05h0l0-.06a.09.09,0,0,0,0-.05l-1.56-4.64-38.27-113.9a16.88,16.88,0,0,1-.84-4.92c-.49-14.09-4.11-34.06-10.78-59.36l-.05-.24-.42-2.2a15.8,15.8,0,0,1,2.87-11.26,16.2,16.2,0,0,1,11.94-6.82h0a16.65,16.65,0,0,1,4.54.31c13.09,2.71,23.74,4.62,31.64,5.67a51.37,51.37,0,0,0,6.84.48c7.18,0,13.31-1.74,18.28-5.21a22.8,22.8,0,0,0,9.07-14.11l96.68-457.24a23.66,23.66,0,0,0-18.58-28.1l-39.38-7.69-.13,0-3.55-.69-26.71-5.22a16.24,16.24,0,0,1-13.13-15.93v-20.85a16.51,16.51,0,0,1,3.19-9.65c10.54-14.34,17.22-26.53,19.85-36.24a15.81,15.81,0,0,1,5.94-8.62c8-5.95,12.39-21.13,13-45.11,1-36.53-13.35-52.81-21.94-59.25a15.73,15.73,0,0,1-5.67-8.94,120.71,120.71,0,0,0-18.48-40.49,3.7,3.7,0,1,0-6.06,4.26,113.26,113.26,0,0,1,17.35,38,24.07,24.07,0,0,0,1.18,3.6c-12.69,1.8-51.82,10.94-50.67,55.25,1.29,49.8,25.26,58.6,28,59.45a39.84,39.84,0,0,0,13.1,2.09,42,42,0,0,0,17.54-3.81c-.18.54-.35,1.08-.5,1.63-1.64,6.06-6.22,16.85-18.68,33.8a24,24,0,0,0-3.25,6.22l-1-.45c-.08.16-9.41,16.45-78.12,26.41l.07.48h0a63.21,63.21,0,0,0-14-.31,242.53,242.53,0,0,0-42,5.53l-126.68-2.87h0l-13.23-.3h0a23.62,23.62,0,0,0,6.78-16.6v-4.82a24.41,24.41,0,0,0-.49-4.76c8.85.19,25.06.46,43.54.46,40.28,0,91.32-1.3,100.34-7.67,16.54-11.68,65.51-99.37,44.6-153-19.14-49-141.12-44.74-171.54-42.87,6.95-11.49,27.83-37.81,78.08-50.68,2.18-.58,4.41-1.1,6.68-1.61a267.46,267.46,0,0,1,55.53-5.76,16.77,16.77,0,0,1,3.35.33c10,2,61.76,13.76,95.42,51.54,1.29,1.41,2.54,2.88,3.74,4.38a3.71,3.71,0,0,0,5.79-4.63c-1.31-1.63-2.68-3.22-4-4.71-35.2-39.52-89-51.78-99.43-53.83a23.12,23.12,0,0,0-4.85-.49,276,276,0,0,0-57.13,5.94c-2.39.54-4.71,1.09-6.94,1.68-58.28,14.93-79.39,47.72-84.47,57.42a17.23,17.23,0,0,1-3.62,4.48c-28.4,25.9-34.67,73.89-38.65,120.83-3.23,38.24,12.63,61.47,22.36,71.91a16.07,16.07,0,0,1,4.32,11v4.82a16.23,16.23,0,0,1-15.39,16.23l-1.89-.06v0a15.88,15.88,0,0,1-5.51-1.4h0a13.82,13.82,0,0,1-1.33-.67l-13.91-7.76h0l-34.89-19.56h0l-11.75-6.6a15.62,15.62,0,0,1-2.93-2.12,195.32,195.32,0,0,0-23.48-18.39v0c-20.41-13.27-32.68-13-43.84-12.68-4.88.13-9.5.24-14.43-1h0c-4.89-1.19-11.13-4.47-18.55-9.74l-.24-.17c-18.26-13-33.56-30.84-34.39-34.35-.68-5.27-3.83-24.91-5.33-33.94a23.11,23.11,0,0,0-3.45-9c-4.4-6.64-8.7-9.84-13.06-9.84-2.29,0-5.64,1-8.53,5.39a22.27,22.27,0,0,0-3.38,13.59l1.14,19.59c-.05-.17-.09-.34-.15-.5a7.58,7.58,0,0,0-3.9-4.5,10.84,10.84,0,0,0-3.49-.85,62.8,62.8,0,0,0-11.81-.18,39.39,39.39,0,0,0-9.69,2.1,54,54,0,0,1,14.83-12.5l.54-.27.43-.43c1.19-1.19,7.07-7.46,5.73-13.49-.46-2.05-1.91-4.82-6.24-6.39-7-2.54-16.19,2.21-22.72,6.72,1.38-10.28,1.92-23.29-3.19-27.43-1.24-1-3.91-2.43-7.82-.75-13.27,5.67-17.13,34.1-17.69,38.81a82.73,82.73,0,0,0-3.81,25.39c0,1.88.91,9.53.91,10.22v.7l.11.32c2.37,13.47,8.12,21.45,9.36,23.05l0,0,.22.28h0l.16.19.41.49.81.35c5.57,2.4,32.39,27.36,71.74,66.76l0,0c7.47,7.51,13.49,13.6,16.72,16.87l1.44,1.46,0,0h0c.7,19.16,14.19,39.56,22.65,50.55-61.24-11-87,1.8-91.8,4.65-1.47.21-3.06.36-4.73.46h-.07l-1.77.08h0a145.69,145.69,0,0,1-23.09-1.1h-.08c-12.27-1.42-23.13-3.68-26.45-4.41-12.08-11.66-71.5-47.35-74.22-49-19.9-10.78-37.11-15.79-53-15.36-7.73.26-14,1.67-18.68,4.2a18.18,18.18,0,0,0-9.42,18.91c1.83,11.86,15.3,12.79,20.38,13.14a73.89,73.89,0,0,1,36.29,11.86,69,69,0,0,0-20.93,5,23.21,23.21,0,0,0-13.57,25.1c1,5.64,3.13,13.22,8.12,18.53-1.25,16.91,5.43,32.67,17,40.16,4.45,15.51,16.66,22.43,26.74,22.43l.83,0c19.24-.79,36.22-12.67,40.9-16.24l38.85,4.06c1,.76,3,2.21,5.69,4.14v0l.62.43,2.21,1.57.25.16c8.86,6.26,17.42,11.94,25.43,16.86h0l.5.31,2.17,1.33h0a232.6,232.6,0,0,0,31.17,16.38c29.51,12.14,165.87,23.9,171.67,24.39h.66c.7.06,2,.12,3.75.2l.41,0h.1l.22,0a16.25,16.25,0,0,1,13.69,18.11l-4.79,37.32a16.36,16.36,0,0,1-.43,2.13c-6.94,25.71-11.86,96.1-14.88,154.06l0,0-.42,8.81c0,.07,0,.13,0,.2h0c-.56,11.63-1,22.24-1.41,31.13l-.19,4.41-.08,1.79h0l-.49,12a16.17,16.17,0,0,1-6.31,12.22c-23.61,18.2-105.64,81.61-176.7,138.35h0l-1.85,1.49-5.95,4.78,0,0h0c-9.77,7.81-19.31,15.44-28.34,22.81l-8,6.57h.06l-11.83,9.62h0l-1,.86-.4.33h0c-14.86,12.24-27.22,22.69-36.74,31.09l-6.61,5.76.15,0h0c-3,2.78-5.59,5.2-7.61,7.22-43.21,43.2-24.22,123.29-23.35,126.83.56,1.93,56.1,193.39,66.28,235.9,7.36,30.52,28.91,53,41.09,63.69h0l.07.06c2.51,2.24,5,4.31,7.73,6.35a14.13,14.13,0,0,1,3.94,4.24c2.49,4.41,4.24,10.42,5.19,17.84,0,0,0,0,0,0s0,0,0,.07a127,127,0,0,1,.54,22.28c-.26,4.59-.71,9.29-1.35,13.93a15.66,15.66,0,0,1-1.17,4.16l-37.42,87.08a22.75,22.75,0,0,0-1.81,6.86c-3.18,32.94,12,53.25,43.88,58.74a48.4,48.4,0,0,0,8.13.68c30,0,59.83-26.73,64.16-46.61,3.94-18,16.4-56.74,38.12-88a4.07,4.07,0,0,0,.33-.48l.26-.39a162,162,0,0,1,12.94-16.06c27.76-30,12.73-62.33,7.48-71.49a16.49,16.49,0,0,1-2.06-7.73l-.47-30.24a15.26,15.26,0,0,1,1.31-6.65c17.37-37.44-7.62-99-12.82-110.94a14.53,14.53,0,0,1-.73-2c-24.7-86.77-27.88-127.12-27.58-143.46a16.05,16.05,0,0,1,2.4-8.23s0,0,0,0l0,0a15.82,15.82,0,0,1,4.1-4.5l17.75-13.2.25-.17.78-.58,10.06-7.46h0l1.3-1,2-1.5,0,0,28.52-21.2s0,0,0,0l.08-.05.11-.08.06,0,2.2-1.6.35-.29h0l.11-.08,123.61-91.79a16.2,16.2,0,0,1,24.86,7.39c13.38,35.87,28.31,71.82,44.43,107h-.18l2.43,4.88h0l0,.09c5.25,10.57,12.2,24.3,19.36,38.38h0l1.16,2.26,0,.05c4.14,8.11,8.34,16.31,12.3,24l1.22,2.37,1.16,2.25,0,.05c.29.55.59,1.13.89,1.73,5.45,10.56,14.08,27.16,17.42,32.85a.2.2,0,0,0,.05.09s0,0,0,.05l.33.55.83,1.39c1.18,2,2.07,3.47,2.63,4.41a15.51,15.51,0,0,1,1.14,2.31l25.23,61.76,95.66,246.93c7.13,16.69,15.28,29.29,24.91,38.5l.12.11c6.3,6.06,12.52,10.07,18,13.62,2.56,1.65,5,3.22,7.29,4.89,3.21,2.33,8.48,8.15,15.41,22.65a227.71,227.71,0,0,1,9.28,22.65,16.4,16.4,0,0,1,.91,5.42l-.62,123.95c0,.4.56,39.25,48.9,39.25,37.38,0,54.38-24.78,60-35.44a23.07,23.07,0,0,0,2.57-10.6l.59-107a16.61,16.61,0,0,1,1.66-7.07c1-2.06,2.08-4.5,3.17-7.27a2.14,2.14,0,0,0,.12-.28c0-.07.06-.13.09-.21h0c3.18-7.86,6.88-18.32,11-31.08C12716.33,3508.91,12702.13,3494.3,12695.58,3489.45Zm-156.39-1318.32-.36-.12c-.21-.06-21.61-6.85-22.8-52.56-1.18-45.29,45.52-48,47.51-48.08l.2,0a20.23,20.23,0,0,0,2.79,2.52c7.46,5.59,19.85,19.93,19,53.14-.75,28.31-6.62,36.81-10.05,39.36a23.6,23.6,0,0,0-2.09,1.75,3.68,3.68,0,0,0-4.28-.17A34.74,34.74,0,0,1,12539.19,2171.13Zm57.25,105.34,35.94,7a16.24,16.24,0,0,1,12.76,19.29L12548.46,2760a15.39,15.39,0,0,1-6.06,9.57c-4.91,3.42-11.6,4.59-19.9,3.46-7.73-1-18.2-2.91-31.1-5.58-.59-.13-1.19-.23-1.8-.31Zm-143.93-24.95c.25,0,24.61-3,64.16,17a31.62,31.62,0,0,0,29.78-.74l2.58-1.45-3.62-6.46-2.58,1.45a24.23,24.23,0,0,1-22.82.59,185.35,185.35,0,0,0-34.8-13.65h0c33.86-6.41,50.34-14.4,58.27-20.17v18.59a23.66,23.66,0,0,0,19.13,23.2l26.54,5.18L12482,2767.43a23.58,23.58,0,0,0-14.52,9.34l-.19-1a152.32,152.32,0,0,0-8-27.46c-3.17-8-7.92-19.43-13.31-30.72h0l-1.93-3.88c-9-18.16-18.85-30-29.36-35.14,3.39-10.38,11.38-41.58-8.67-57.36,4.89-3.92,13.83-11.44,25.22-22.44h0l3.92-3.88c6.7-6.62,12.87-13.06,18.88-19.7l0,0,.66-.73,1.2-1.33,1.15-1.28h0a500.78,500.78,0,0,0,51.35-68.51,449.36,449.36,0,0,0,46.46-99.73c.24-.93,22.29-92.5-41.13-129.73-4.42-3.53-54.66-41-142.81-.48l-4.58,1h0C12381.15,2265.54,12408.85,2253.63,12452.51,2251.52Zm-287.62,445.9.11-2.58c.28-6.77.63-14.54,1-23,13.72,11.7,50.94,36.72,118.3,36.71,33.94,0,75.56-6.36,125.65-24,8.66,3.61,17.39,13.41,25.44,28.54C12270.92,2763.22,12192.3,2720,12164.89,2697.42Zm8.1-386.7h0c4.62,0,9.84-.18,15.88-.56l0,.05,6.29-.49.4,0,3.42-.28,3.47-.31,3.54-.34.51-.05c3.67,13.11,17.7,69,8.69,127.2-10.2.16-20.24.17-29.92,0C12191.37,2360.48,12178.79,2323.34,12173,2310.72Zm53.43-68.66,12.1,6.76h0c-11.86,10.47-33,30.95-45.54,53.65-5.83.43-11,.7-15.6.81,13.47-18.59,37.08-47,49-61.22Zm-12.46,65.87c4.37-.48,8.77-1,13.13-1.56,3,12.81,13.77,63.64,9.3,127.16a3.68,3.68,0,0,0-4.2,2h0q-4.89.15-9.5.26C12231.27,2378.35,12218.18,2323.44,12214,2307.93Zm30.91-4,2.69-.39c5.79-.83,11.61-1.73,17.4-2.66,3.56,12.58,16.08,63.6,7.55,132.74-9.43.61-19.09,1.12-28.8,1.51,4.63-63.7-5.86-115.21-9.25-129.73l1.88-.26,3.31-.46Zm106.21-18.88c13.51-2.74,21.85-4.56,21.85-4.56l.77-.26c86.16-39.78,135.12-.9,135.6-.51l.49.35c58.91,34.33,38.15,120.81,38,121.44a442.42,442.42,0,0,1-45.64,97.86,497,497,0,0,1-51.57,68.62c-80.9-48.15-101.2-110.45-106.08-133.76,19.87-2.48,39.8-5.51,59.29-9a3.7,3.7,0,1,0-1.31-7.29c-20.64,3.71-41.77,6.89-62.81,9.45-10.89,1.34-22,2.55-33.15,3.57h-.29c-8.54.8-17.33,1.53-26.2,2.17,8.28-69-3.61-119-7.68-133.43C12302.36,2294.75,12331.53,2289.06,12351.08,2285.06Zm78.88,304.59-.64.62c-83.79-30-111.61-124.69-118-152.33,8.65-.84,17.32-1.77,25.85-2.79,4.86,23.72,25.41,88.52,108.37,138.44C12440.55,2579,12435.44,2584.23,12430,2589.65Zm-192.71-146.86.63,0h0a3.63,3.63,0,0,0,1.75.47,3.76,3.76,0,0,0,2.08-.61h0c11.51-.45,23-1,34.06-1.8h.25l3-.21c8.41-.59,16.73-1.26,24.76-2,6.13,26.88,33.94,124.48,119.6,157.36a326.29,326.29,0,0,1-25.74,22.34l-59.92,29.1a3.7,3.7,0,0,0,3.23,6.66l58.5-28.41c19.56,12.91,10.15,44.67,7.63,52-102.75,36.05-169.12,22.95-205.83,6.66C12202.58,2661.9,12212.11,2508.38,12237.25,2442.79ZM12348.53,2278h0c-19.71,4-48.72,9.66-78.44,14.53l-.16,0-3,.47c-5.59.9-11.22,1.79-16.84,2.63,4.87-8.75,17.47-24,34.51-41.43h0l101.82,2.3C12363.59,2265,12351.72,2275.05,12348.53,2278Zm-74-24c-12.8,13.45-29.22,32.09-33.14,42.93-1.63.24-3.25.46-4.87.68l-3.59.49-3.58.48c-6.84.9-13.77,1.72-20.6,2.42-2.3.24-4.56.47-6.83.68,13.08-21.52,33.58-40.58,43.76-49.35a21.62,21.62,0,0,0,8.2,1.2h.29ZM12250,2142.8c3.86-45.47,9.83-91.88,36.28-116,.62-.58,1.2-1.16,1.73-1.73,12.41-.92,151.13-10,169.79,37.78,20.1,51.52-29.61,135.5-42,144.23-9.05,6.39-92.16,6.94-142.54,5.79a23.54,23.54,0,0,0-2.88-3.83C12261.54,2199.5,12247.05,2178.2,12250,2142.8Zm-81.73,160.47-1.4,0a95.4,95.4,0,0,1-9.63-.74c-7.57-1-15.23-2-23.27-2.86a345.25,345.25,0,0,1,61.07-75.15l24.77,13.89C12206.58,2254.16,12180.86,2285.2,12168.31,2303.27Zm-153.92-181.55a3.72,3.72,0,0,0,.79,1.89l-1.22-.19A9.4,9.4,0,0,0,12014.39,2121.72Zm-19-2.93a55.81,55.81,0,0,1,10.43.17,9.77,9.77,0,0,1,1,.13,2.36,2.36,0,0,1,.11,1.94c-.16.33-1,1.45-5,2a3.66,3.66,0,0,0-1.1.37c-9.62,1.43-23.51,7.16-28.36,22.2a3.7,3.7,0,1,0,7,2.28c5.53-17.16,25.36-17.46,26.28-17.47,9.54-.24,12.69,1.75,13.57,2.61a2.44,2.44,0,0,1,.78,1.9,1.87,1.87,0,0,1-.62,1.34,2.49,2.49,0,0,1-1.88.76,61.25,61.25,0,0,0-19.21,2.61,10.77,10.77,0,0,0-6.75,6.29,10.33,10.33,0,0,0,.51,8.81c7.11,12.87,38.62,16.63,42.19,17a2.68,2.68,0,0,0,.4,0,3.7,3.7,0,0,0,.4-7.38c-12-1.3-32.54-6-36.5-13.23a2.9,2.9,0,0,1-.12-2.48,3.37,3.37,0,0,1,2.11-2,52.07,52.07,0,0,1,16.85-2.26,10.7,10.7,0,0,0,7.19-2.88,9.28,9.28,0,0,0,2.84-6.61,9.85,9.85,0,0,0-3-7.21,14.21,14.21,0,0,0-5.19-3.1,3.67,3.67,0,0,0,2.31-3.63l-1.37-23.62a15.23,15.23,0,0,1,2.19-9.12c.39-.61,1.42-2,2.36-2h0c.43,0,2.73.32,6.84,6.51a15.76,15.76,0,0,1,2.32,6.14c1.49,9,4.63,28.5,5.28,33.66.83,6.79,18.3,24.79,33.41,36.45-25.13,17.4-37.66,38.12-42.41,47.52-36.93-36.87-59.89-58.2-68.41-63.54-.59-5.55,2.77-13,9.62-21.32A35.28,35.28,0,0,1,11995.4,2118.79Zm2.44-31.4c.69.25,1.45.66,1.54,1,.28,1.26-1.5,4.23-3.38,6.28a59.7,59.7,0,0,0-13.89,11,38.72,38.72,0,0,0-8.05,12.82l-.19.51a3.92,3.92,0,0,0-.13.49,44.59,44.59,0,0,0-7.86,7.45c-3.67,4.43-7.56,10.08-9.71,16a53.87,53.87,0,0,1-2.56-9.16c6.63-18.33,19.6-33.23,21.32-35.15C11981.41,2092.87,11992.76,2085.57,11997.84,2087.39Zm-41.71,12.24.15-.68c1.24-11.16,5.95-30,13.28-33.17a1.67,1.67,0,0,1,.38-.14c1.95,2.47,1.51,15.67-1,28.6a130.35,130.35,0,0,0-16.3,23.66A79.51,79.51,0,0,1,11956.13,2099.63Zm108,85.73a128.2,128.2,0,0,1,10.86-8.76q2-1.48,4.2-2.92a89.69,89.69,0,0,0,10.29,6.12h0c.87.43,1.72.83,2.55,1.19-2.34,2.22-5.42,5.22-8.91,8.82-10.83,11.12-25.66,27.94-34.77,44.81-3.08-3.11-7.36-7.44-12.4-12.5C12038.58,2216.5,12047,2200.74,12064.09,2185.36Zm-9.58,57.06-.72-2.26h0c12.56-24.59,39.85-50.61,46.32-56.61a64.7,64.7,0,0,0,14.44.78c10.72-.29,22.58-.57,43.65,14.24v1h0v-1a200.08,200.08,0,0,1,18.48,14.9,23.51,23.51,0,0,0,4.29,3.09l7.31,4.1c-36.24,34-57.27,69.11-62.37,78.12-24.79-2.36-40.11-2.46-45.08-2.41C12075.8,2290.52,12054.51,2264.53,12054.51,2242.42Zm-130.68,127.36-39.28-4.1c-.52-3.31-2.07-8.11-6.67-10.73-6.95-3.93-17.28-1.16-31.59,8.44a3.7,3.7,0,0,0,4.12,6.15c15.76-10.58,21.89-9.22,23.79-8.16,2.2,1.23,2.88,4.09,3.09,5.91-4.62,3.42-19.85,13.75-36.3,14.43-5.37.16-16.11-3.12-20.13-16.91,2.85-4.87,15.36-23.88,41.6-32.74a3.7,3.7,0,0,0-2.37-7,85.28,85.28,0,0,0-44.37,34c-8.07-6.5-12.58-18.64-11.65-31.79,6.63-4.25,34.78-21.37,57-20.11a3.7,3.7,0,1,0,.41-7.39c-23.56-1.26-51.69,15.14-60.38,20.61-3.06-3.92-4.53-9.35-5.24-13.54a15.83,15.83,0,0,1,9.23-17.09c5.78-2.51,13-4.06,21.58-4.61a6.29,6.29,0,0,0,3.23-11.47l-2.09-1.42a82.3,82.3,0,0,0-40.53-13.5c-8.86-.61-12.92-2.67-13.57-6.88a10.73,10.73,0,0,1,5.63-11.27c3.65-2,8.83-3.08,15.38-3.31,14.48-.39,30.55,4.33,49.13,14.39,17.84,10.7,65.79,40.27,73.29,48.43l.78.85,1.11.26c.5.11,11.44,2.62,25.1,4.38-.16,10.77-1.62,46.25-13.65,69.12-3.65-2.64-5.81-4.26-5.82-4.27Zm27.71-63.38a157.91,157.91,0,0,0,16.94.8c2.11,12.2,8.42,58.57-12.08,84.94-6.33-4-13-8.37-19.82-13.15C11949.64,2354.94,11951.34,2318.69,11951.54,2306.4Zm11.2,89.64h0c21.53-28.48,15.67-74.93,13.21-89.2,1.36-.12,2.67-.28,3.9-.47l.85-.14.69-.47c.25-.17,25.91-16.83,96.71-2.09.18,0,9.56.18,9.56.18,7.78.15,20.9.7,38.73,2.43l.59.06h.2a3.58,3.58,0,0,0,.8.1h.14c9.85,1,19.07,2.13,28.15,3.38,2.48.35,5.24.58,8.37.73.14.27.3.57.47.91,4.69,9,19.29,44.33,12.74,124.32-4.7-.11-8.48-.25-11.4-.37h-.24c-.63-.08-1.26-.12-2-.15l-2.18-.06h-.31l-.32,0h-.19c-5.28-.45-141.27-12.31-169.32-23.85A221,221,0,0,1,11962.74,2396Zm218.79,106.16a24,24,0,0,0,.6-3.12l4.79-37.23a23.62,23.62,0,0,0-5.7-18.59h.06q8.92.18,18.22.18t18.81-.18h.08c3.49,0,7.13-.12,10.87-.23h0c-24.13,66.29-33.4,207-35.19,237.9-15.78-8-24.72-16-27.58-18.77C12169.45,2603.32,12174.43,2528.47,12181.53,2502.2Zm-100.27,542.22h0c-77.86-96.73-136-125.63-155-133h0l14.43-11.72h0c14,6.28,93.62,45.19,149.22,138.38Zm-47,510.1c-4,18.53-36.43,44.87-63.79,40.21-27.85-4.79-40.56-21.86-37.77-50.73a15.67,15.67,0,0,1,1.25-4.65l37.4-87a23.33,23.33,0,0,0,1.72-6.1c.45-3.31.81-6.64,1.08-9.95a117.06,117.06,0,0,0,28,3.47,3.71,3.71,0,0,0,0-7.41,110.63,110.63,0,0,1-27.51-3.6,140.16,140.16,0,0,0-.2-15.33,127.77,127.77,0,0,0,26.16,2.54,160.61,160.61,0,0,0,34.24-3.78,3.71,3.71,0,0,0-1.58-7.24c-30.19,6.59-52.8,2.34-59.69.67-1.15-7.33-3.08-13.45-5.77-18.24a20.92,20.92,0,0,0-4-4.9c5.87.41,13.49.78,22.16.78,33.27,0,81.87-5.39,104.9-34l.36,22.88a23,23,0,0,0,.22,2.87,42.68,42.68,0,0,0-21.24,20c-8.89,17.22-8,40.84,2.47,70.23C12050.78,3497.19,12038.25,3536.23,12034.24,3554.52Zm53.45-108.35c-3.32,3.59-6.55,7.47-9.78,11.71-8.18-25-8.63-44.9-1.29-59.29a35.4,35.4,0,0,1,16.9-16.49c.2.42.42.84.65,1.25C12100.11,3393.72,12111.36,3420.59,12087.69,3446.17Zm-9-222a24.49,24.49,0,0,0,1.07,3c3,7,29.27,69.54,12.89,104.84a19,19,0,0,0-.87,2.2,3.7,3.7,0,0,0-.84,1.11c-24.28,49.73-125.64,40.08-137.34,38.78-11.66-10.38-31.24-31.27-37.95-59.12-10.21-42.67-65.81-234.3-66.33-236.08-.19-.79-18.85-79.4,21.43-119.69,2.81-2.81,6.72-6.44,11.62-10.8h0c18.38,3.75,77.42,23,170.6,120.7h0a23.65,23.65,0,0,0-2.15,9.45C12050.55,3095.27,12053.75,3136.46,12078.72,3224.16Zm-18.34-164.23a23.81,23.81,0,0,0-3.17,2.83c-85.35-89.17-142.07-113.7-168-120.4,8.34-7.24,18.49-15.8,30.27-25.51,11,3.75,72.34,28.4,155.79,132Zm35.47-26.33c-53.14-88.65-127.78-129.07-148.79-139.12l2.38-1.92,8.69-7,.47-.38,1.81-1.46,1-.81c.42-.35.83-.69,1.24-1s.82-.67,1.22-1l.09-.07,1.61-1.31.12-.09.91-.74.7-.57c.77-.61,1.51-1.21,2.21-1.79l.49-.4.66-.53,4-3.25c13.38,7.39,88.34,51.63,144,144.48Zm188-102a23.62,23.62,0,0,0-36.21-10.75l-123,91.34c-53.51-88.93-124.49-134-143.73-145,70.43-56.19,150.81-118.31,174.12-136.28a23.61,23.61,0,0,0,9.2-17.79l.27-6.56c13.88,10.43,37.12,23.62,72.17,31.16,13.59,115.82,30.94,170.79,31.12,171.33a3.7,3.7,0,0,0,3.52,2.57,3.65,3.65,0,0,0,1.13-.17,3.71,3.71,0,0,0,2.4-4.66c-.17-.53-17.09-54.2-30.53-167.57a292.41,292.41,0,0,0,52.42,4.49c38.32,0,85.23-6.45,142-23.87,5.49,11.4,10.37,23.14,13.58,31.23a145.85,145.85,0,0,1,7.64,26.13l3.16,16.4v.07a22.56,22.56,0,0,0,.52,2.7c0,.14.06.27.1.4,6.43,24.47,10.08,44.46,10.55,57.81a24.19,24.19,0,0,0,1.23,7l38.91,115.83c-14.28,9.14-92.14,56.44-185.21,63.2C12312.76,3004.85,12297.5,2968.18,12283.86,2931.61Zm48.88,116.17c90.41-7.41,166.1-51.79,184.15-63.14l9.29,27.68c-73.8,49.84-159.52,64-177.75,66.51C12342.76,3067.7,12337.29,3056.87,12332.74,3047.78Zm19.31,38.16-.07-.14c22.85-3.41,104.94-18.42,176.64-66.2l10.36,30.85c-12.19,7.84-72.93,44.12-174.74,59.25C12360.34,3102.14,12356.18,3094,12352.05,3085.94Zm15.78,30.72c97.73-15,157.87-49.15,173.58-59l9.38,27.93c-90.54,47.63-155.51,57.26-168.32,58.77C12379.71,3139.43,12374.56,3129.68,12367.83,3116.66ZM12510,3464.79l-95.64-246.87-25.23-61.77a23.39,23.39,0,0,0-1.65-3.35c-.25-.41-.55-.9-.9-1.5,18.79-2.59,81.64-14.06,166.64-58.58l35.18,104.69,71.17,182.09a19.16,19.16,0,0,0,1.31,2.8c2.56,4.65,15,29.72,7.79,67a24.28,24.28,0,0,0-.43,5.29,3.64,3.64,0,0,0-.64.71c-36.61,54-126.57,48.93-134.64,45.19C12524.11,3492,12516.58,3480.29,12510,3464.79Zm175.49,110.43a24.08,24.08,0,0,0-2.41,10.26l-.59,107.08a15.52,15.52,0,0,1-1.74,7.19c-4.95,9.46-20.06,31.46-53.39,31.46-40.79,0-41.48-30.55-41.49-31.82l.61-122.47a56.71,56.71,0,0,0,6.74.34,189.13,189.13,0,0,0,21.13-1.49,3.7,3.7,0,1,0-.85-7.35c-18.85,2.17-25.68,1.36-27.81.88-.15-.59-.33-1.17-.53-1.74-1.3-3.74-3.74-10.38-7-17.67,2.24.1,5,.19,8.1.19,14.21,0,36.37-1.76,54.78-11a3.7,3.7,0,1,0-3.31-6.62c-23.56,11.78-55,10.35-63.13,9.74-5.78-11.7-11.42-19.61-16.81-23.53-2.47-1.79-5-3.4-7.63-5.12-1.94-1.25-3.91-2.52-5.9-3.88,3.36.24,7.1.37,11.11.37a204.21,204.21,0,0,0,25.43-1.62c28.42-3.61,66.39-14.3,89.61-44.43.34.72.72,1.42,1.13,2.11l9.65,16h0c-3.47,9.32-17.37,52.29,6.59,87.84C12687,3572,12686.19,3573.71,12685.45,3575.22Zm14-37.86c-3,9.3-5.75,17.34-8.24,24-15-26.55-8.88-57.28-4.88-71a23,23,0,0,0,4.88,5C12696.44,3499.3,12707.81,3511.21,12699.41,3537.36Z"/><path class="cls-3" d="M12571.59,2149.38v0a17.07,17.07,0,0,0,1.34-3.71,89.81,89.81,0,0,0,1.89-21.75l0-1.46c-.07-5.24-.15-11.64-2.15-16.89v0a22.57,22.57,0,0,0-17.28-20.75c-10.88-2.89-22.77,2.29-28.91,12.62-5.39,9-10.39,24.06-3.64,44.13,4.48,13.32,11.11,21.77,19.71,25.11a22.64,22.64,0,0,0,8.2,1.52,24.27,24.27,0,0,0,11-2.61l.61-.42a33.19,33.19,0,0,0,9.25-15.71Zm-9.35-45.5h0a7.1,7.1,0,0,1,3.19,3.59l0,0s0,.07,0,.11a2.14,2.14,0,0,0,.1.22c0,.06,0,.11.07.17l0,.06c1.56,3.93,1.64,9.6,1.7,14.48l0,1.48a83.1,83.1,0,0,1-1.68,19.92,9.41,9.41,0,0,1-.77,2.1.08.08,0,0,0,0,0,.93.93,0,0,1-.05.1l-.12.21a0,0,0,0,1,0,0l0,0a9.93,9.93,0,0,1-11,4.83c-10.23-2.42-15.33-10.58-15.16-24.27.07-5.31,1.6-22.73,18.41-23.92.39,0,.76,0,1.13,0A8.92,8.92,0,0,1,12562.24,2103.88Zm-17.13,55.79c-6.41-2.53-11.55-9.43-15.27-20.52-5.85-17.41-1.61-30.26,3-38,4.46-7.5,13-11.3,20.64-9.25a16.11,16.11,0,0,1,7.2,3.89h0a20.18,20.18,0,0,0-4.14-.1c-15.36,1.09-25.05,13.06-25.28,31.22-.3,23.1,12.94,29.69,20.86,31.56a17,17,0,0,0,4,.47,16,16,0,0,0,2.09-.13l-.38.4A16.52,16.52,0,0,1,12545.11,2159.67Z"/><path class="cls-3" d="M12277.47,2175.29l.3.32a7.1,7.1,0,0,0,5.15,2.24,7.43,7.43,0,0,0,3.36-.82,7.52,7.52,0,0,0,4-8.06c-14.09-78.91,13.14-119,21.83-129.36a7.22,7.22,0,0,0,.35-9c-1.87-2.42-4.91-3.45-8.55-2.93a7.38,7.38,0,0,0-5.24,3.43c-22.23,35.4-27.75,71.4-27.75,98.45a179.77,179.77,0,0,0,4.83,42.6A7.23,7.23,0,0,0,12277.47,2175.29Zm24.38-142.23a3.78,3.78,0,0,1,2.65-1.73c2.32-.33,4,.18,5.09,1.54a3.51,3.51,0,0,1-.28,4.36c-8.94,10.71-37,51.9-22.62,132.39a3.83,3.83,0,0,1-2.08,4.11,3.43,3.43,0,0,1-4.15-.67l-.27-.29a3.5,3.5,0,0,1-.8-1.53C12276.3,2159.05,12262.89,2095.13,12301.85,2033.06Z"/><path class="cls-2" d="M13922.73,2666.05c-11.69,34.45-56.85,53.39-130.59,54.8-3.06.06-6.16.09-9.32.09-66.95,0-154.06-13.25-252.93-38.51-1.28-.31-2.57-.62-3.85-1-4.84-1.25-9.69-2.5-14.53-3.81-85.49-22.72-175.3-53.07-267.29-90.24-133.56-54.08-256.18-116.43-355.62-180.92q-6.37-4.12-12.56-8.25l-3.44-2.31c-83.14-55.52-214.43-157.11-189.55-230.4,9.88-29.14,42.45-46.89,96.81-52.77,48.61-5.25,114.87-.62,191.89,13.38q-6,6.75-11.69,13.79c-149.19-26.07-246.81-14.82-262.19,30.6-15.29,44.95,49.86,121.71,174.76,206.61,3.94,2.69,8,5.41,12,8.1,1.15.75,2.31,1.53,3.47,2.28,100.15,66,225.21,130.06,362,185.39,95,38.41,187.67,69.45,275.47,92.3l4.35,1.13c4.53,1.15,9.06,2.31,13.53,3.43,98.12,24.45,183.77,36.64,248.38,35.45,66.58-1.25,106.71-16.53,116.09-44.17,18-53.17-78.27-151.5-246.16-252.06.32-5.91.5-11.88.54-17.85C13846.84,2500.3,13944.15,2603,13922.73,2666.05Z"/><path class="cls-2" d="M12982.16,2136a7.85,7.85,0,0,1-9.13,6.25q-6.56-1.21-13-2.34,5.67-7,11.69-13.79l4.16.75A7.85,7.85,0,0,1,12982.16,2136Z"/><path class="cls-2" d="M13662.3,2391.14c0,6-.22,11.94-.54,17.85-3.75-2.25-7.5-4.47-11.31-6.72a7.81,7.81,0,1,1,7.94-13.44Z"/><path class="cls-1" d="M13267.42,1992.7c-117.56,0-223.28,51.64-295.67,133.44q-6,6.75-11.69,13.79a393,393,0,0,0-87.43,237.21c3.94,2.69,8,5.41,12,8.1,1.15.75,2.31,1.53,3.47,2.28.06-209.12,170.19-379.19,379.28-379.19s379.28,170.14,379.28,379.28c0,2.63,0,5.28-.1,7.91-2.18,106.37-48.35,202.08-121,269.69l4.35,1.13c4.53,1.15,9.06,2.31,13.53,3.43A393.85,393.85,0,0,0,13661.76,2409c.32-5.91.5-11.88.54-17.85,0-1.18,0-2.34,0-3.53C13662.33,2169.87,13485.19,1992.7,13267.42,1992.7Zm244.09,685a377.45,377.45,0,0,1-244.09,89.24c-202.77,0-368.94-160-378.82-360.4q-6.37-4.12-12.56-8.25l-3.44-2.31c4.44,213.92,179.86,386.59,394.82,386.59a393.24,393.24,0,0,0,262.47-100.09c-1.28-.31-2.57-.62-3.85-1C13521.2,2680.21,13516.35,2679,13511.51,2677.65Z"/><path class="cls-3" d="M11601.13,2887.64a3.7,3.7,0,0,1-3.44-2.34c-23.08-58.37-105.08-85.86-105.9-86.13a3.7,3.7,0,1,1,2.3-7c3.51,1.15,86.12,28.82,110.48,90.45a3.69,3.69,0,0,1-2.08,4.8A3.61,3.61,0,0,1,11601.13,2887.64Z"/><path class="cls-3" d="M11812.68,3042.72a3.7,3.7,0,0,1-3.62-2.95c-10.76-52.42,20.56-87.43,21.89-88.89a3.71,3.71,0,0,1,5.48,5c-.31.33-30.1,33.8-20.12,82.41a3.7,3.7,0,0,1-2.88,4.37A3.81,3.81,0,0,1,11812.68,3042.72Z"/><path class="cls-3" d="M12577.88,2750.31a3.82,3.82,0,0,1-.75-.08,3.69,3.69,0,0,1-2.88-4.36l22.5-110.5a3.7,3.7,0,0,1,7.25,1.47l-22.5,110.5A3.7,3.7,0,0,1,12577.88,2750.31Z"/><path class="cls-3" d="M12607.51,2151.13a3.91,3.91,0,0,1-.49,0,3.71,3.71,0,0,1-3.19-4.16c5.42-40.59-13.42-83.1-13.61-83.52a3.7,3.7,0,1,1,6.75-3c.81,1.81,19.91,44.81,14.2,87.54A3.69,3.69,0,0,1,12607.51,2151.13Z"/><path class="cls-3" d="M10520.11,2938.6a3.7,3.7,0,0,1-3.64-3.07c-10.62-61.43,10.1-96.37,11-97.83a3.7,3.7,0,0,1,6.32,3.85c-.2.33-20.13,34.23-10,92.72a3.7,3.7,0,0,1-3,4.28A3.52,3.52,0,0,1,10520.11,2938.6Z"/><path class="cls-3" d="M10793.35,3223.6a123.6,123.6,0,0,1-13.74-.7,3.7,3.7,0,0,1,.89-7.35c.53.07,53.18,6.1,70.76-21.93a3.7,3.7,0,0,1,6.27,3.94C10843.39,3220.1,10811.69,3223.6,10793.35,3223.6Z"/><path class="cls-3" d="M11082.6,3307.38c-63,0-110.43-32.16-111.11-32.63a3.7,3.7,0,0,1,4.22-6.09c.94.65,95.27,64.47,193,8.05a3.71,3.71,0,0,1,3.71,6.42A177.26,177.26,0,0,1,11082.6,3307.38Z"/><path class="cls-3" d="M10670.9,2498.92a3.71,3.71,0,0,1-3.56-2.7c-11.59-41,13-77.56,14-79.1a3.7,3.7,0,0,1,6.11,4.18c-.23.35-23.63,35.26-13,72.9a3.7,3.7,0,0,1-2.56,4.57A3.58,3.58,0,0,1,10670.9,2498.92Z"/><path class="cls-2" d="M10347.73,2266c.06-.38.09-.69.12-1,0,.31-.06.66-.09,1Z"/><path class="cls-2" d="M10348,2264.05a2.22,2.22,0,0,1-.06.44C10348,2264.21,10348,2264.05,10348,2264.05Z"/><path class="cls-1" d="M10591.8,2196.53l15.16-7.2c-14.32,106.89-73.46,208.12-73.53,208.2a551.06,551.06,0,0,1-119.4,140c-101.11,85.08-226.51,130.63-357.25,130.63-15.28,0-30.55-.61-45.94-1.85-145.79-11.88-278.61-79-374.46-189.19,1.15-.11,2.39-.26,3.58-.38,4.35-.5,8.66-1,13-1.54,194.35,215.62,528.94,239.67,752.26,51.87a541.39,541.39,0,0,0,116.59-136.79S10575.25,2302.45,10591.8,2196.53Z"/><path class="cls-1" d="M10609.15,2170.55v.16s0,.19-.08.54c0,.19,0,.42-.07.69s-.08.73-.16,1.19l-1,.5c-2.31,1.16-4.62,2.27-7,3.35l-1.08.54-5.77,2.77c.27-2,.46-3.35.46-3.35l1.27-10c14.7-142.13-26-281.11-115.43-393.16l-1.85-2.31a6.92,6.92,0,0,0,6.24,2.2c3.84-.66,7.65-1.31,11.46-1.93a554.28,554.28,0,0,1,113,398.85Z"/><path class="cls-4" d="M10611.38,2187.18v0l-4.42,2.12C10608.46,2188.6,10609.92,2187.91,10611.38,2187.18Z"/><path class="cls-1" d="M10120.21,1807.49a40.92,40.92,0,1,1,40.92-40.92A41,41,0,0,1,10120.21,1807.49Zm0-74.43a33.52,33.52,0,1,0,33.51,33.51A33.55,33.55,0,0,0,10120.21,1733.06Z"/><path class="cls-1" d="M11881.29,1812.35a40.92,40.92,0,1,1,40.92-40.92A41,41,0,0,1,11881.29,1812.35Zm0-74.43a33.52,33.52,0,1,0,33.52,33.51A33.54,33.54,0,0,0,11881.29,1737.92Z"/><path class="cls-1" d="M12103.58,1660.14a111,111,0,1,1,111-111A111.12,111.12,0,0,1,12103.58,1660.14Zm0-214.57a103.58,103.58,0,1,0,103.58,103.58A103.7,103.7,0,0,0,12103.58,1445.57Z"/><path class="cls-1" d="M12103.58,1999.47a83.54,83.54,0,1,1,83.53-83.53A83.63,83.63,0,0,1,12103.58,1999.47Zm0-159.66a76.13,76.13,0,1,0,76.12,76.13A76.21,76.21,0,0,0,12103.58,1839.81Z"/><path class="cls-1" d="M10295.35,2146.9a80.23,80.23,0,1,1,80.22-80.23A80.32,80.32,0,0,1,10295.35,2146.9Zm0-153a72.82,72.82,0,1,0,72.82,72.81A72.89,72.89,0,0,0,10295.35,1993.86Z"/><path class="cls-1" d="M9804.46,2058a102.41,102.41,0,1,1,102.4-102.41A102.53,102.53,0,0,1,9804.46,2058Zm0-197.42a95,95,0,1,0,95,95A95.12,95.12,0,0,0,9804.46,1860.53Z"/><path class="cls-1" d="M10281.69,2514.85a66.56,66.56,0,1,1,66.56-66.56A66.64,66.64,0,0,1,10281.69,2514.85Zm0-125.71a59.16,59.16,0,1,0,59.16,59.15A59.22,59.22,0,0,0,10281.69,2389.14Z"/><rect width="5000" height="5000"/><path class="cls-2" d="M734.1,2465.66a80.23,80.23,0,1,1,80.22-80.22A80.32,80.32,0,0,1,734.1,2465.66Zm0-153a72.82,72.82,0,1,0,72.81,72.82A72.89,72.89,0,0,0,734.1,2312.62Z"/><path class="cls-2" d="M3347,1696.19c-89.36,0-162.07,72.71-162.07,162.07A161.45,161.45,0,0,0,3223.44,1963c2.22-.6,4.5-1.13,6.85-1.66a155.27,155.27,0,0,1-39.11-103.12c0-85.92,69.9-155.82,155.82-155.82a156,156,0,0,1,138.82,85c.44-3.62.81-7.22,1.15-10.84A162.13,162.13,0,0,0,3347,1696.19Zm45,317c-.25.37-.53.71-.81,1.06.44-.13.91-.25,1.34-.41C3392.36,2013.61,3392.2,2013.39,3392,2013.18Z"/><path class="cls-2" d="M2511.36,2246.92l-30.28-25.57c39.46-96.79,18.46-156.24,3.75-181.75l29.17-24.86C2534,2046.19,2565.84,2123.25,2511.36,2246.92Z"/><path class="cls-1" d="M2481.08,2221.35l-62.4-52.81a62.79,62.79,0,0,0,3.86-75.93l62.29-53,29.17-24.86,26.58-22.62-14.26-14.51c-1.21-1.22-30.58-30.84-77.71-50.07a218.4,218.4,0,0,0-53.62-14.46,197.34,197.34,0,0,0-37.89-1.52,206,206,0,0,0-29.93,4v-36a18.95,18.95,0,1,0-37.89,0v47.89a241.75,241.75,0,0,0-29,14.51c-75.43,44.48-99.62,110.07-106.57,157.25-7.51,50.47,2.69,90.5,3.09,92.17l.36,1.17c1.67,5.17,43,126.92,170.13,152.08l1.83.35h194.23v-87.81l-12-10.19Zm4.41,85.73H2332.9c-100.79-21-136.35-116.62-139.49-125.85-2.74-11.27-30.24-138.13,86.13-206.66,3.24-1.93,6.49-3.71,9.74-5.38v67.41a18.95,18.95,0,0,0,37.89,0v-82.22a164.42,164.42,0,0,1,40.38-5.38c5.33,0,10.5.2,15.57.61a182.63,182.63,0,0,1,60.11,16.53,219.79,219.79,0,0,1,40.48,24.61l-6.34,5.42-.15.16-2.43,2-.26.25L2392,2068.92a62,62,0,0,0-21.31-3.71,62.85,62.85,0,0,0,0,125.7,59.73,59.73,0,0,0,14-1.62l90.86,76.85,1,.86,9,7.66Zm-89.89-179a25,25,0,1,1-25-25A25,25,0,0,1,2395.6,2128.06Z"/><path class="cls-1" d="M2395,1880.54v32.55a195.73,195.73,0,0,0-37.89-1.51v-31a18.95,18.95,0,0,1,37.89,0Z"/><path class="cls-2" d="M3499.42,1803.12q-1,6.75-2.26,13.51a466.68,466.68,0,0,1-70.64,175.6c-2.5,3.82-5.09,7.63-7.81,11.38q-7.46,10.65-15.66,20.91l-6.13-4.87q-2.11-3-4.38-5.82c-.18-.22-.34-.44-.53-.65,2-2.51,4-5,5.91-7.6a452.24,452.24,0,0,0,87.9-218.09c.44-3.62.81-7.22,1.15-10.84,11.63-118.91-23.31-241.5-104.33-337.83-78.24-93-188-150-309.14-160.48s-239,26.88-332.05,105.12-150,188-160.48,309.14,26.88,239.06,105.12,332.08A453.91,453.91,0,0,0,2802,2123.11a64.12,64.12,0,0,0,.91,10.28l-3.22,6.5a9.05,9.05,0,0,1-1-.59,469,469,0,0,1-124.5-104.56c-81-96.24-119.56-218.21-108.75-343.49s69.77-238.81,166-319.73,218.21-119.56,343.46-108.75,238.81,69.77,319.74,166C3484.1,1535.15,3519.2,1672.53,3499.42,1803.12Z"/><path class="cls-2" d="M2806.62,2125.89l-3.38,6.75a.16.16,0,0,0-.06.13l-.31.62a64.12,64.12,0,0,1-.91-10.28c1.38.87,2.75,1.69,4.16,2.47A4.53,4.53,0,0,0,2806.62,2125.89Z"/><path class="cls-2" d="M3396.92,2019.65l-6.13-4.88c.13-.19.29-.34.41-.53.28-.35.56-.69.81-1.06.19.21.35.43.53.65Q3394.81,2016.65,3396.92,2019.65Z"/><path class="cls-3" d="M2431.68,2422.56a5.55,5.55,0,0,1-4.14-9.25l13.07-14.65a5.56,5.56,0,0,1,8.29,7.4l-13.08,14.64A5.52,5.52,0,0,1,2431.68,2422.56Z"/><path class="cls-3" d="M2417.22,2415.24a5.56,5.56,0,0,1-5.56-5.56v-19.86a5.56,5.56,0,0,1,11.11,0v19.86A5.55,5.55,0,0,1,2417.22,2415.24Z"/><path class="cls-3" d="M2402.53,2420.6a5.5,5.5,0,0,1-3.2-1l-13.59-9.63a5.55,5.55,0,1,1,6.42-9.06l13.59,9.62a5.56,5.56,0,0,1-3.22,10.09Z"/><path class="cls-3" d="M2612.73,2233.21a5.57,5.57,0,0,1-2.84-.79l-19.23-11.48a5.55,5.55,0,0,1,5.69-9.54l19.23,11.48a5.56,5.56,0,0,1-2.85,10.33Z"/><path class="cls-3" d="M2599.81,2246.44h-19.38a5.56,5.56,0,0,1,0-11.11h19.38a5.56,5.56,0,1,1,0,11.11Z"/><path class="cls-3" d="M2589.9,2270.26a5.55,5.55,0,0,1-1.85-10.79l17.71-6.26a5.55,5.55,0,0,1,3.7,10.47l-17.71,6.26A5.46,5.46,0,0,1,2589.9,2270.26Z"/><path class="cls-1" d="M4117.08,2393V2124l-129.77,333.94Zm-117.23,51.12,110.53-284.42v229.15Z"/><path class="cls-1" d="M4117.08,2524V2397.78l-130.24,65.1Zm-114.87-61.32,108.17-54.06v104.83Z"/><path class="cls-1" d="M4124.11,2397.78V2524l130.25-61.13ZM4239,2462.69l-108.17,50.77V2408.63Z"/><path class="cls-1" d="M4124.11,2124V2393l129.78,64.88Zm117.24,320.18-110.53-55.27V2159.71Z"/><path class="cls-1" d="M4124.11,2536.32V2668.8L4255,2474.9Zm111.73-45-105,155.6V2540.58Z"/><path class="cls-1" d="M4117.08,2668.8V2536.33l-130.83-61.44ZM4005.4,2491.29l105,49.29v106.3Z"/><path class="cls-2" d="M1780.78,1991.25c-72.07,63-181.3,130.67-316.28,195.93-1.46.73-2.92,1.42-4.42,2.15l-15.16,7.2c-115.43,54.71-243.14,105-379.85,149.52-197.42,64.25-390.34,108.85-559,129.2-4.34.5-8.65,1-13,1.54-1.19.12-2.43.27-3.58.38-58.29,6.55-112.35,9.82-160.72,9.82-43.71,0-82.72-2.66-116.08-8-76.3-12.27-122.59-37.82-137.44-76-29.4-75,71.91-185.22,277.84-302.5-.15,5.27-.19,10.58-.12,15.85C161,2226.77,62.1,2331.73,88,2398c25.51,65.41,171.22,90.11,390.84,66.64,4.2-.46,8.47-.92,12.7-1.42,1.19-.12,2.42-.27,3.65-.42,169.92-19.67,365.42-64.53,565.65-129.75,139.36-45.36,269.34-96.77,386.31-152.71l5.77-2.77,1.08-.54c2.34-1.08,4.65-2.19,7-3.35l1-.5h0c273-132.51,428.36-269.8,396.66-351-15.12-38.67-71.88-63.6-164.22-72.11-89.31-8.27-208.43-.77-345.14,21.7-2.35-3.07-4.77-6.11-7.19-9.12l-1.12-1.38c-.46-.58-1-1.19-1.46-1.77,299.46-50.14,498.16-28.67,531.9,57.68C1889.48,1863.39,1858.12,1923.61,1780.78,1991.25Z"/><path class="cls-2" d="M363,2110.61c-3.39,1.88-6.7,3.81-10,5.69-.07-5.27,0-10.58.12-15.85,1-.62,2.08-1.19,3.12-1.77a6.84,6.84,0,0,1,9.35,2.58A6.92,6.92,0,0,1,363,2110.61Z"/><path class="cls-2" d="M1349.3,1771.7c-3.81.62-7.62,1.27-11.46,1.93a6.92,6.92,0,0,1-6.24-2.2l-.23-.3a2.74,2.74,0,0,1-.27-.35A6.77,6.77,0,0,1,1330,1768a6.84,6.84,0,0,1,5.62-7.89l4-.69c.5.58,1,1.19,1.46,1.77l1.12,1.38C1344.53,1765.59,1347,1768.63,1349.3,1771.7Z"/><path class="cls-2" d="M1349.3,1771.7c-3.81.62-7.62,1.27-11.46,1.93a6.92,6.92,0,0,1-6.24-2.2l-.23-.3a2.74,2.74,0,0,1-.27-.35c-2.23-2.73-4.42-5.46-6.77-8.2-192.58-229-535.56-258.6-764.57-66.06s-258.6,535.6-66,764.57c.46.58.92,1.12,1.42,1.66-1.23.15-2.46.3-3.65.42-4.23.5-8.5,1-12.7,1.42A553.78,553.78,0,0,1,353,2116.3c-.07-5.27,0-10.58.12-15.85,3.23-154.68,70.45-307.24,197.85-414.4,234.78-197.46,586.42-167.1,783.85,67.68,1.61,1.89,3.19,3.81,4.73,5.7.5.58,1,1.19,1.46,1.77l1.12,1.38C1344.53,1765.59,1347,1768.63,1349.3,1771.7Z"/><path class="cls-3" d="M2466.72,3414.49l-58.8-83.55-1.62-38.22c2.1-3.34,7.73-13.5,4.94-22.79a17.22,17.22,0,0,0-6.73-9.2c9.24-7.85,24.79-29.67,7.59-81.35-10.75-32.21-14.41-44.45-15.64-49.09l38.89-95.86c1.24-3.67,29.77-90.44-17.34-154.58-42.66-58-107.39-57.82-120.06-57.18-7.51-10.1-47-59.33-102.61-59.33-60.33,0-115.38,58.16-117.7,60.63l-79.94,105.3-14.26-5.72c.18-8.72-2.3-34.13-35.59-46.84l-21.91-102.27,104.64-4.41h0l14-.58a199.54,199.54,0,0,0,23.55-4.35h0l.37-.08,2.25-.54h0q3.51-.85,7.19-1.88v0l4.88-1.44a278.24,278.24,0,0,0,37.8-14.16l1.81-.84v0q3-1.41,6.11-2.94c43.58-21.79,161.9-93.76,163.09-94.49l.81-.67c.55-.6,12.88-14.35,11.55-29.32l37-29.61,68.16-43.71c2.52-1.31,20.64-12,25.31-49.17,0-.06,0-.13,0-.19v0a149.34,149.34,0,0,0,1.1-18.44c0-25.93-4.8-37.38-5.77-39.42-.65-1.85-4.25-10.91-13.32-12.52a11.94,11.94,0,0,0-6.85.9c-3,1.28-9.91,5.46-9.91,16.78,0,4.66-.08,8.21-.18,10.82-5.77-3.67-14.75-8.79-20.72-9.31a13.07,13.07,0,0,0-13.76,6.21c-3.83,6.21-1.68,14.61,4.79,18.73,10.54,6.71,15.31,10.43,16.2,11.57a7.46,7.46,0,0,1,1.15,3,48.6,48.6,0,0,0-15.9-1.86,80,80,0,0,0-17.28.88l5.83-23.66.11-.71c0-.87.25-8.65-4.69-13.82a14.27,14.27,0,0,0-10.64-4.25c-14.45,0-22.49,20.73-23.41,23.24-.06.19-6,18.92-10.48,33.65-3.3,10.8-20.34,21.88-27.19,25.56a3.47,3.47,0,0,0-.37.21l-23.8,14.63c-6.91-1.59-34.24-6.31-66.88,9.23-26.69,12.71-78.53,38.48-99.38,48.85h0l-1.65.83-1.36.68h0l-14.8,7.4a125.48,125.48,0,0,1-23.05,7.91,3.45,3.45,0,0,0-.84.21,151.92,151.92,0,0,1-15.51,2.93h-.08a148.46,148.46,0,0,1-20.92,1.47c-5.48,0-12.87-.09-21.41-.22h0c-38.94-.61-103-2.39-124.5-3,5.54-8.18,13.44-24,9.21-43.43v-29.74c2-4.27,10.34-23.92,10.34-56.87l0-6c.2-37.83.5-94.93-56.63-138.39-3.61-6.55-29.18-48.51-93.17-51-32.36-1.27-54,0-72.5,4.15s-33.92,11.51-47.16,22.58a127.66,127.66,0,0,0-22.44,24.58c-29.34,41.1-37.62,71.44-39.11,77.76-4.16,4.15-20.16,22.55-17.77,57.73,2.12,31.39,14.57,45.42,19.81,50,.46.4.86.73,1.21,1a113.28,113.28,0,0,0,4.16,14.62c4.58,12.84,13.43,31.05,29.73,45.66V2604c-8.13-.25-25.88,2.72-46.06,26.26-25.7,30-142.63,207.33-147.6,214.87l-.21.36c-1.3,2.58-31.62,63.66.24,110.58,2.65,3.93,6,8.29,10.13,13.29h0l1.09,1.29.14.18h0c6.58,7.83,14.93,16.82,24.8,26.73l5.53,5.54v0q2.74,2.7,5.55,5.42h0l1.63,1.58c9.09,8.75,18.74,17.74,28.68,26.7h0l1.05.95,4.06,3.66v0c31.63,28.32,59.91,51.37,60.21,51.61l.68.44c1.49.75,36,17.56,76.7,1.71l21.41,78.93c3.53,13.11,16.35,21.52,29.19,19.15l.59-.11c9.38-2,16.11-11.43,15-21.08-2.11-18.73-6.7-59.46-8.89-78.7l57.68,57.68c1.62,2.48,9.08,11.8,26.83,7l43.11,43.09c23.38,23.37,50.2,41,79.72,52.35a145.5,145.5,0,0,0,14.28,4.74c29.82,8,65.35,12,123-12.23,42.74-17.95,96.3-74,126.18-108.08l-17.13,37.42a123.51,123.51,0,0,0-11.41,54.8,77.71,77.71,0,0,0,1.22,12.6L2090,3291.26a33.61,33.61,0,0,0-5.68,19.64,50.89,50.89,0,0,0,12.21,32.18l1.7,126.13,0,.41c.06.44,6,43.43,48.06,48a58,58,0,0,0,6.21.34c37.48,0,53.48-38.42,53.64-38.83l.27-.66v-117a142,142,0,0,1,11.84-19.59c7-9.73,14.36-17.26,21.9-22.39,7.29-5,14.65-7.59,21.93-7.83-2.1,14.35-5.78,59.63,28.42,74a32.85,32.85,0,0,1,13.3,9.61l83.83,103,.35.37c1.06,1,26.46,23.82,77.22,1.56,12.72-5.58,20.48-14,23.08-25.14C2494.56,3448.07,2467.68,3415.61,2466.72,3414.49Zm-61.65-232.76c20.47,61.47-8,75.44-9.2,76l-8.17,3.61,2.77,1.07a155.51,155.51,0,0,1-22.15,15.54c-5.36,1.63-66.33,19.8-93.13,11.89a38.22,38.22,0,0,1-4.65-1.67l-.23-.1c-24.36-10.73-39.1-44-39.14-44.07l-30.11-89.52c15.88-7.89,96.69-46.18,179.63-52l7.87,24.56C2388.39,3131.34,2392.3,3143.44,2405.07,3181.73Zm-219.44-73.17-5.57-16.57c14-7.42,82.13-41.39,179.87-54.39l6.55,20.5C2311.76,3058.7,2206.92,3100,2185.63,3108.56Zm-19.76-58.8c19.39-7.61,121.34-46.44,183-46.44h0l8.71,27.11c-95.75,13-163.37,45.77-180,54.45Zm203,15.74,9.51,29.67c-82.06,6.26-161.49,43.26-179.68,52.22L2188,3115.6C2208,3107.54,2316.56,3064.79,2368.85,3065.5ZM2412,2884.24c44.8,61,16.58,147,16.37,147.61l-35,86.16-5.15-16.07h0l-13.21-41.19h0l-7.71-24.11h0l-1.1-3.4-.26-.84h0l-11.09-34.56L2301.15,2830C2317.53,2829.65,2374,2832.51,2412,2884.24Zm-676,203.57h-.26l-22.43-25.4,56.63,3.09c.49,0,11.26.84,16.81-7.47,167.3-38.47,192.15-107.38,195.83-126.82l11.08,4.43c-14.1,43.36-72.41,91.59-76.36,94.83C1827.29,3083.07,1757.93,3087.81,1736.05,3087.81Zm188.5-320.73c-3-18.69-19-108.22-53.32-145.08,23.18.65,82.22,2.28,119.92,2.9,5.27,10.18,30.24,61.95,35.35,137.89Zm153.56-12.24q-3.46,1-6.79,1.85c2.31-49-22.76-116-29.82-133.78,3.06-.51,6.15-1.13,9.29-1.84C2056.61,2632.34,2079.43,2681.4,2078.11,2754.84ZM2300,2612.45c-24.75-19.87-33.91-58.44-35.92-68.42l16.36-10.06c.34,10.82,6.62,31.52,38.71,63.16Zm112.55-179.09a4.54,4.54,0,0,1,2.62-.4c5.41.95,7.62,7.67,7.64,7.72l.25.62c0,.1,5.09,10.27,5.09,36.3,0,1.19,0,2.37,0,3.54-6.89-9.86-17.32-18.68-21.45-22,.2-2.52.46-7.45.46-15.81C2407.1,2437,2410,2434.43,2412.54,2433.36ZM2317.79,2500c4.44-14.68,10.4-33.36,10.4-33.39,1.88-5.07,8.48-18.24,16.41-18.24a6.89,6.89,0,0,1,5.26,1.93c2.21,2.29,2.67,6.34,2.67,8.07l-6.93,28.11a7.72,7.72,0,0,0-2.48,2.69,6.64,6.64,0,0,0-.75,3.26c-5.21,1.25-12.85,5.48-12,14.8.9,9.88,8.18,13.27,11.9,13.68l.38,0,.39,0c12.9-1.27,17.61,1.22,19.27,2.82a3.76,3.76,0,0,1,1.24,2.3c-6.29,18.55-44.45,12.59-44.83,12.52a3.7,3.7,0,1,0-1.19,7.31,97.78,97.78,0,0,0,14.63,1.07c14,0,33.65-3,38.61-19.14l.12-.57a10.58,10.58,0,0,0-3.08-8.46c-4.42-4.62-12.81-6.4-25-5.27-1.24-.28-4.58-1.53-5.07-6.94-.52-5.73,6.4-7,7.1-7.08.22,0,22-2.55,34.81,8,5.57,4.6,8.7,11.15,9.29,19.49a3.7,3.7,0,0,0,7.39-.52c-.74-10.46-4.78-18.77-12-24.71-10.36-8.52-24.75-10-33.29-10,3.38-1.39,11.82-2.24,20.19-1.86,10.73-.37,19,2.29,24.71,7.88,8.66,8.53,8.51,21.34,8.51,21.47a3.69,3.69,0,0,0,3.61,3.78h.09a3.7,3.7,0,0,0,3.7-3.6c0-.66.27-16-10.65-26.86a31.77,31.77,0,0,0-6.25-4.82c-.05-2.92-.57-7.68-3.06-10.92-.67-.87-2.71-3.51-18.08-13.3-3-1.92-4.16-5.85-2.39-8.71,2.2-3.42,5.25-2.88,5.77-2.75l.82.14c5,.27,16.52,7.25,22.52,11.53,6.78,5.13,24.54,20.77,26.48,32.09-4.47,34.33-21.16,42.95-21.3,43L2336.79,2583l-11.83,9.46c-38.87-38.1-37.65-58.6-36.69-63.24C2293.71,2526.16,2313.46,2514.19,2317.79,2500Zm-122.14,54.16c28.95-13.77,53.8-10.35,61.1-8.88,2.08,10.71,11.74,52.41,39.82,73.92,1.08,10.6-7.51,21.4-9.31,23.53-8.41,5.11-120.18,73-162.05,93.89l-1.59.77c7.86-67-18.87-120.67-26.71-134.69C2118.09,2592.15,2169.25,2566.74,2195.65,2554.15Zm-117.08,57.7s4.43-2.23,11.69-5.85c7.21,13,34.81,68.31,25.41,135.14a269.86,269.86,0,0,1-30.12,11.47c.79-70.68-20.34-119.19-27.4-133.39A123.9,123.9,0,0,0,2078.57,2611.85Zm-63.71,13.3A158.21,158.21,0,0,0,2034,2624c5.78,14.49,33,85.87,29.85,134.5a196.84,196.84,0,0,1-19.77,3.57h0l-10.13.41c-4.73-70.74-26.52-121.21-34.42-137.46C2005.48,2625.1,2010.71,2625.15,2014.86,2625.15Zm-133.74-146.69,0,6c0,28.68-6.71,46.91-9.1,52.48-117.37,9.19-145.9-9.23-146.14-9.39l-.5-.36-.58-.18c-53.89-16.4-54.31-112.78-54.24-121.14,20.39-56.48,143.46-59.47,157.2-59.62C1881.59,2387.47,1881.31,2442.18,1881.12,2478.46Zm-334-3.05c-2.18-32.07,12-48.41,15.47-51.85,4.94-.71,26.92-3,42.35,9.58,10.64,8.69,16.15,22.79,16.4,41.92.23,17.93-4.14,31-13,39-11.16,10-27.25,9.64-35.86,8.56a59.68,59.68,0,0,1-6.79-1.22c-.29-.21-.71-.54-1.27-1C1559.87,2516.35,1549.06,2504,1547.13,2475.41ZM1571.9,2539c-1.32-3.74-2.26-7-2.91-9.49q1.2.19,2.58.36a72,72,0,0,0,9.15.58c9.94,0,22.67-2.12,32.57-11,10.52-9.4,15.73-24.4,15.46-44.57-.27-21.44-6.72-37.45-19.17-47.59-14.93-12.16-34.27-12.4-43.73-11.63,3.17-10.67,12.71-37.27,36.8-71a120.85,120.85,0,0,1,21.14-23.19c12.5-10.45,26.5-17.13,44-21.05,17.8-4,38.91-5.21,70.59-4,50.22,1.95,75.48,30.45,83.94,42.46-28.72.79-139,7.34-159,65.05l-.2,1.12c-.11,4.49-1.94,109.71,59,128.82,3.68,2.25,24.68,13,89.42,13,16.68,0,36.26-.72,59.2-2.47v24c-126.54,26.62-257.18,14.79-270.82,13.44C1584.58,2568.31,1576.21,2551.14,1571.9,2539Zm-164.6,310c4.54-6.88,121.88-184.74,146.92-213.93,23.77-27.74,42.44-23.58,43.18-23.4l4.66,1.24v-23.35c11,1,43.18,3.54,86.52,3.54,51,0,117.46-3.52,182.9-17.21,2.77,19.74-8.81,35.06-11.88,38.72-12.57,2.36-120.36,21.71-197.45,7.93a3.7,3.7,0,0,0-1.3,7.29c77.42,13.83,184.84-5.1,199.69-7.86,35.4,29.74,53,124.59,56.55,145.42h-.23l24,111.93c-2.43,7.55-25.15,67.52-132.94,74.07a3.7,3.7,0,0,0,.22,7.4h.23c105.31-6.39,132.91-61,138.63-76.47,24.72,10.18,28.7,27.79,29.1,36.28l-.07,0-.14,5.32c0,.81-4.23,80.71-186.19,123.85a31,31,0,0,0-.27-8.19,9.5,9.5,0,0,0-2.88-6.23c-4.07-4.17-11.78-6-22.81-5.51l-32,.4a5,5,0,0,1-3.7-1.56,4.87,4.87,0,0,1-1.29-3.75c.52-7.09,2.35-12.31,5.17-14.7L1770,2978l.54-.57c.75-1,7.33-9.83,6.12-18a11.78,11.78,0,0,0-4.9-8c-1.26-.94-8.2-5.07-21.4,5.94l-9.48,7.9-18.59,15.48a15.44,15.44,0,0,1-10.71,3.52c-7-.39-20-2.09-27.74-9.09-.55-.49-1.11-1-1.67-1.4a11.7,11.7,0,0,0,1.49-1.57,11.37,11.37,0,0,0,2-9.88c-2.43-9.57-8.56-27.37-22.29-39.41L1600,2851.16l51.81-76.87.34-.64c1.34-3.18,32.36-78.47-5.85-120.23a3.7,3.7,0,1,0-5.46,5c33.82,37,6.76,106.71,4.62,112l-53.11,78.81L1571.21,2873a13.7,13.7,0,0,0-3.74,9c-23.58-1.33-127.4-2.38-153.83,78.7-2.53-3.19-4.69-6.09-6.49-8.76C1378.55,2909.8,1405.55,2852.6,1407.3,2849Zm203,64.29-4.53-3.35c-2.85-2.12-5.59-4.17-8.14-6.1l-16.45-12.26c-3-2.29-5.08-4.66-5.89-6.87h0a6.35,6.35,0,0,1,1.27-6.64l18.76-21,62.69,71,.35.34c12.34,10.73,17.92,27.05,20.16,35.84a4,4,0,0,1-.7,3.51,4,4,0,0,1-3.16,1.54h-.38l0,0-1.08,0a17.93,17.93,0,0,0-2.12-.46,4.09,4.09,0,0,1-2.09-3.37,32.42,32.42,0,0,0-2.15-9.36l-.39-.94-.82-.61S1635.14,2931.81,1610.32,2913.3Zm-40.93-23.78.13.21c.14.25.3.51.46.76s.18.3.28.45c-103.08,3.08-127.54,73.23-132.8,96.34-7-7.18-13.09-13.8-18.17-19.75C1442.56,2883.5,1552.91,2888.33,1569.39,2889.52Zm-125.68,104.09c1.94-13.35,18.5-95.37,133.59-95.37h.44l7.64,5.7c-92,10.08-126.22,77-134.38,96.85Q1447.3,2997.2,1443.71,2993.61Zm150.56-83,.52.39,3.61,2.7.18.14c-26.82,4.58-103.08,25.25-120,112.94-7.51-6.84-14.83-13.68-21.82-20.39C1461.8,2992.73,1494.21,2917.4,1594.27,2910.58Zm-46,176.36c-3.46-2.82-32.16-26.37-63.18-54.31,16.17-98.21,109.14-111.22,122-112.54,22.09,16.47,48.18,35.87,53.28,39.66a24.51,24.51,0,0,1,1.27,6.08,12,12,0,0,0,.5,2.68c-10.79.46-25.7,3.19-35.41,13.67a11.66,11.66,0,0,1-8.5,4.07H1550.7c-1.71-.07-16.87-.55-23.52,6.26a11,11,0,0,0-3.19,7.95,12.31,12.31,0,0,0,1.08,8.89c2.76,5.26,9.06,9,18.72,11.16l42.09,1.46a8.06,8.06,0,0,1,7.63,6.35c3.48,16.4,11,44.7,23.88,60.34C1582.3,3101.69,1551.78,3088.57,1548.24,3086.94Zm194.22,60-59.53-59.75a6.95,6.95,0,0,0-11.83,5.69c2.12,18.66,6.88,60.82,9,80a12.21,12.21,0,0,1-9.19,13l-.4.08c-9.07,1.65-18.15-4.39-20.69-13.8L1626.22,3085l-1.61.7c-13.24-14.28-21-45.67-23.86-58.9a15.43,15.43,0,0,0-14.62-12.21l-41.07-1.37c-6.92-1.58-11.66-4.11-13.35-7.15a4.9,4.9,0,0,1-.57-3.7l.32-.8-.06-.86a3.64,3.64,0,0,1,1.08-3c3.27-3.37,12.69-4.27,18-4h67.64a19,19,0,0,0,13.94-6.44c9.73-10.51,26.64-11.63,35.84-11.35.36,0,.71,0,1.06.08l.2.08h0a10.69,10.69,0,0,0,1.83.47l.69.05,1.63.55a19.91,19.91,0,0,1,5.51,3.6c9,8.09,22.5,10.44,32.28,11a22.8,22.8,0,0,0,15.86-5.22l18.6-15.48,9.48-7.9c6-5,9.69-5.76,11.3-5.76.69,0,1,.17,1,.11a4.46,4.46,0,0,1,2,3.11c.61,4.09-2.81,9.83-4.45,12.08l-37.81,31.95c-4.48,3.8-7.09,10.46-7.77,19.79a12.27,12.27,0,0,0,3.26,9.36,13.07,13.07,0,0,0,9.2,3.92l32.13-.41c14.36-.68,18,3.22,18.08,4.39l0,.42.07.42c.71,4.45.42,8-.85,10.48a2.37,2.37,0,0,0-.19.35c-3,5.3-10.12,4.86-10.51,4.83l-60.6-3.31a5.92,5.92,0,0,0-5.51,3.25,5.81,5.81,0,0,0,.86,6.37l26.06,29.52h0L1761.4,3128l.42.4c9.34,7.69,2.41,19,.13,22.23C1747.31,3154.9,1742.63,3147.21,1742.46,3146.92Zm277.88,92.24c-55.59,23.38-89.66,19.54-118.2,11.9a138.55,138.55,0,0,1-13.54-4.5c-28.55-11-54.5-28-77.14-50.68L1769,3153.46c4.93-7.67,9.07-21-2.26-30.55l-24.54-27.81c27.61-.95,94.6-9,179.11-58.38l.45-.32c2.67-2.14,64.41-52.24,79.21-99.21l82.18-108.29c2.94-3.07,56.39-58.15,112.17-58.15,54.19,0,93.62,52.17,97.46,57.44l53.76,167.74c-63.56.9-162.54,38.69-183.06,46.8l-25.38-75.47a3.7,3.7,0,0,0-7,2.36l26.44,78.59,4.46,13.27c-55.51,97.67-109.27,157.3-112.52,160.86C2039.44,3229.42,2029.57,3235.28,2020.34,3239.16Zm71.34,71.53a26.25,26.25,0,0,1,4.44-15.35l16.48-24.9c3.12,14.83,7.07,47-11.53,66.56A43.68,43.68,0,0,1,2091.68,3310.69ZM2213.36,3336c-8.33-.22-42.5-1.9-56.75-14.31a3.7,3.7,0,1,0-4.86,5.58c14.13,12.31,43.27,15.25,56.59,15.95a148.73,148.73,0,0,0-7.91,13.62c-13.49-.64-34.15-2.85-38.9-6.58A3.7,3.7,0,1,0,2157,3356c7.31,5.74,31.76,7.58,42,8.1V3477c-2.26,5.12-17.78,36.95-51.91,33.27-35.22-3.83-41-38.15-41.5-41.39l-1.69-125.5a3.67,3.67,0,0,0,2.39-1.12c25.38-26.41,14.59-70.8,11.9-80.26l8.07-12.2c10.91,13.5,48.25,55.17,103.22,68.53A107.09,107.09,0,0,0,2213.36,3336Zm23.93-23.49c-61.77-12.21-103.18-64.49-107.84-70.61a65.78,65.78,0,0,1-1.2-12,115.84,115.84,0,0,1,10.73-51.49l18.91-41.3a6.79,6.79,0,0,0-11.29-7.28c-13.73,15.78-39.91,44.65-68.18,69.45a1063.8,1063.8,0,0,0,86.73-128.4l6.9,20.51h0l6.71,20h0l1,3,.08.26h0l14.55,43.25h0l29.86,88.73c.62,1.44,15.12,34.26,40.67,47.07l-1.65,10.51C2254.57,3304.19,2245.84,3306.94,2237.29,3312.47Zm32,1.24c10.57,6.2,36.23,25.88,30.49,68.37a45.25,45.25,0,0,0-6.44-3.29C2265.08,3366.93,2267.48,3327.58,2269.28,3313.71Zm211.77,159.59c-2,8.71-8.38,15.45-18.85,20-44.49,19.51-66.78,1.88-69-.06l-83.63-102.71a36.06,36.06,0,0,0-3.08-3.35c9.14-52.4-25.61-75.59-35.84-81.19l.27-1.29-.19,0,1.29-8.12,1.14.35a69.11,69.11,0,0,0,19,2.25c32.36,0,76.46-13.6,78.72-14.3l.69-.3c.64-.36,15-8.4,26.52-19.1,3.21,1.65,5.2,3.8,6,6.54,1.9,6.3-2.68,14.76-4.61,17.5l-.73,1,.42,9.94c-4.57,4.75-24.89,24.35-49.94,25.28a3.7,3.7,0,0,0,.13,7.4h.14c22.53-.83,41-14.54,50.09-22.77l.87,20.38c-4.16,4.49-14,13.38-22.18,14.13a3.7,3.7,0,0,0,.34,7.39h.34c9.91-.91,19.86-9.42,24.82-14.32l57,81C2461.11,3419.3,2486.51,3450,2481.05,3473.3Z"/><path class="cls-3" d="M1575.4,2516.89a20.64,20.64,0,0,0,11.88,3.38,32.73,32.73,0,0,0,6.64-.71c18.6-3.87,27.39-25.71,23.93-43.68-2.85-14.82-13.69-31.87-31.47-36.55-7.61-2-14.11-1.29-19.33,2.1-6.89,4.5-9.11,12.27-9.67,14.76-.14.2-.29.39-.43.6a27.41,27.41,0,0,0-4.28,16.54h0c.81,9.15,4.29,18.74,10.52,25.77C1565,2504.87,1571.06,2513.89,1575.4,2516.89Zm-4.3-69.25c3.39-2.21,7.89-2.6,13.39-1.15,12.5,3.29,23.23,16,26.09,30.79,2.74,14.21-4,32.1-18.17,35-3.05.63-8.76,1.28-12.8-1.52a15,15,0,0,1-2.65-2.59,29.61,29.61,0,0,0,4.66,1.08,15.06,15.06,0,0,0,2.21.17,14.62,14.62,0,0,0,9.66-3.74c5.86-5,8.54-13.84,8.54-19.89,0-13.87-5-25-13.67-30.5-6.15-3.9-13.39-6.25-19.75-5.52A12.13,12.13,0,0,1,1571.1,2447.64Zm-8,13.3a9.06,9.06,0,0,1,7.94-3.88c4.71,0,10,2.36,13.37,4.52,9.25,5.86,10.24,18.9,10.23,24.24,0,4.44-2.09,10.95-6,14.28a7.13,7.13,0,0,1-5.94,1.86,23,23,0,0,1-13.18-6.9,3.42,3.42,0,0,0-.66-.71c-5.22-5.76-8.15-13.91-8.83-21.67h0A20,20,0,0,1,1563.08,2460.94Z"/><path class="cls-3" d="M1824,2354a7.29,7.29,0,0,0-2.93-2l-.42-.14a7.1,7.1,0,0,0-8.2,2.71,7.5,7.5,0,0,0,.18,9c49.25,63.25,43.83,111.38,41,124.63a7.23,7.23,0,0,0,3.88,8.13,7.59,7.59,0,0,0,3.16.68,9.88,9.88,0,0,0,5.77-2.07,7.49,7.49,0,0,0,3-5.48c5.64-74.58-36.9-125.94-45.49-135.47Zm41.79,135.2a3.74,3.74,0,0,1-1.53,2.76c-1.89,1.39-3.65,1.73-5.22,1a3.58,3.58,0,0,1-1.79-4c2.92-13.64,8.54-63.16-41.7-127.67a3.78,3.78,0,0,1-.07-4.6,3.35,3.35,0,0,1,4-1.34l.36.12a3.54,3.54,0,0,1,1.42,1C1829.68,2365.84,1871.35,2416.15,1865.81,2489.22Z"/><path class="cls-3" d="M3548.7,3489.45a16.54,16.54,0,0,1-4.19-4.72l-3-4.95L3531,3462.31a16.4,16.4,0,0,1-2-11.58c7.69-39.81-5.8-67-8.62-72.09a12.12,12.12,0,0,1-.85-1.82l-71.11-181.94-35.51-105.67-1-3s0,0,0,0l-11.85-35.3,0-.13-11.93-35.51-.89-2.65-11.64-34.68,0-.05h0l0-.06a.09.09,0,0,0,0-.05l-1.56-4.64-38.27-113.9a16.88,16.88,0,0,1-.84-4.92c-.49-14.09-4.11-34.06-10.78-59.36l-.05-.24-.42-2.2a15.8,15.8,0,0,1,2.87-11.26,16.2,16.2,0,0,1,11.94-6.82h.05a16.65,16.65,0,0,1,4.54.31c13.09,2.71,23.74,4.62,31.64,5.67a51.37,51.37,0,0,0,6.84.48c7.18,0,13.31-1.74,18.28-5.21a22.8,22.8,0,0,0,9.07-14.11l96.68-457.24a23.66,23.66,0,0,0-18.58-28.1l-39.38-7.69-.13,0-3.55-.69-26.71-5.22a16.24,16.24,0,0,1-13.13-15.93v-20.85a16.51,16.51,0,0,1,3.19-9.65c10.54-14.34,17.22-26.53,19.85-36.24a15.81,15.81,0,0,1,5.94-8.62c8-5.95,12.39-21.13,13-45.11.95-36.53-13.35-52.81-21.94-59.25a15.73,15.73,0,0,1-5.67-8.94,120.71,120.71,0,0,0-18.48-40.49,3.7,3.7,0,1,0-6.06,4.26,113.26,113.26,0,0,1,17.35,38,24.07,24.07,0,0,0,1.18,3.6c-12.69,1.8-51.82,10.94-50.67,55.25,1.29,49.8,25.26,58.6,28,59.45a39.84,39.84,0,0,0,13.1,2.09,42,42,0,0,0,17.54-3.81c-.18.54-.35,1.08-.5,1.63-1.64,6.06-6.22,16.85-18.68,33.8A24,24,0,0,0,3398,2218l-1-.45c-.08.16-9.41,16.45-78.12,26.41l.07.48h0a63.21,63.21,0,0,0-14-.31,242.53,242.53,0,0,0-42,5.53l-126.68-2.87h0l-13.23-.3h0a23.62,23.62,0,0,0,6.78-16.6v-4.82a24.41,24.41,0,0,0-.49-4.76c8.85.19,25.06.46,43.54.46,40.28,0,91.32-1.3,100.34-7.67,16.54-11.68,65.51-99.37,44.6-153-19.14-49-141.12-44.74-171.54-42.87,6.95-11.49,27.83-37.81,78.08-50.68,2.18-.58,4.41-1.1,6.68-1.61a267.46,267.46,0,0,1,55.53-5.76,16.77,16.77,0,0,1,3.35.33c10,2,61.76,13.76,95.42,51.54,1.29,1.41,2.54,2.88,3.74,4.38a3.71,3.71,0,0,0,5.79-4.63c-1.31-1.63-2.68-3.22-4-4.71-35.2-39.52-89-51.78-99.43-53.83a23.12,23.12,0,0,0-4.85-.49,276,276,0,0,0-57.13,5.94c-2.39.54-4.71,1.09-6.94,1.68-58.28,14.93-79.39,47.72-84.47,57.42a17.23,17.23,0,0,1-3.62,4.48c-28.4,25.9-34.67,73.89-38.65,120.83-3.23,38.24,12.63,61.47,22.36,71.91a16.07,16.07,0,0,1,4.32,11v4.82a16.23,16.23,0,0,1-15.39,16.23l-1.89-.06v0a15.88,15.88,0,0,1-5.51-1.4h0a13.82,13.82,0,0,1-1.33-.67l-13.91-7.76h0l-34.89-19.56h0l-11.75-6.6a15.62,15.62,0,0,1-2.93-2.12,195.32,195.32,0,0,0-23.48-18.39v0c-20.41-13.27-32.68-13-43.84-12.68-4.88.13-9.5.24-14.43-1h0c-4.89-1.19-11.13-4.47-18.55-9.74l-.24-.17c-18.26-13-33.56-30.84-34.39-34.35-.68-5.27-3.83-24.91-5.33-33.94a23.11,23.11,0,0,0-3.45-9c-4.4-6.64-8.7-9.84-13.06-9.84-2.29,0-5.64,1-8.53,5.39a22.27,22.27,0,0,0-3.38,13.59l1.14,19.59c0-.17-.09-.34-.15-.5a7.58,7.58,0,0,0-3.9-4.5,10.84,10.84,0,0,0-3.49-.85,62.8,62.8,0,0,0-11.81-.18,39.39,39.39,0,0,0-9.69,2.1A54,54,0,0,1,2853,2101l.54-.27.43-.43c1.19-1.19,7.07-7.46,5.73-13.49-.46-2.05-1.91-4.82-6.24-6.39-7-2.54-16.19,2.21-22.72,6.72,1.38-10.28,1.92-23.29-3.19-27.43-1.24-1-3.91-2.43-7.82-.75-13.27,5.67-17.13,34.1-17.69,38.81a82.73,82.73,0,0,0-3.81,25.39c0,1.88.91,9.53.91,10.22v.7l.11.32c2.37,13.47,8.12,21.45,9.36,23.05l0,0,.22.28h0l.16.19.41.49.81.35c5.57,2.4,32.39,27.36,71.74,66.76l0,0c7.47,7.51,13.49,13.6,16.72,16.87l1.44,1.46,0,0h0c.7,19.16,14.19,39.56,22.65,50.55-61.24-11-87,1.8-91.8,4.65-1.47.21-3.06.36-4.73.46h-.07l-1.77.08h-.05a145.69,145.69,0,0,1-23.09-1.1h-.08c-12.27-1.42-23.13-3.68-26.45-4.41-12.08-11.66-71.5-47.35-74.22-49-19.9-10.78-37.11-15.79-53-15.36-7.73.26-14,1.67-18.68,4.2a18.18,18.18,0,0,0-9.42,18.91c1.83,11.86,15.3,12.79,20.38,13.14a73.89,73.89,0,0,1,36.29,11.86,69,69,0,0,0-20.93,5,23.21,23.21,0,0,0-13.57,25.1c1,5.64,3.13,13.22,8.12,18.53-1.25,16.91,5.43,32.67,17,40.16,4.45,15.51,16.66,22.43,26.74,22.43l.83,0c19.24-.79,36.22-12.67,40.9-16.24l38.85,4.06c1,.76,3,2.21,5.69,4.14v0l.62.43,2.21,1.57.25.16c8.86,6.26,17.42,11.94,25.43,16.86h0l.5.31,2.17,1.33h0a232.6,232.6,0,0,0,31.17,16.38c29.51,12.14,165.87,23.9,171.67,24.39h.66c.7.06,2,.12,3.75.2l.41,0h.1l.22,0a16.25,16.25,0,0,1,13.69,18.11l-4.79,37.32a16.36,16.36,0,0,1-.43,2.13c-6.94,25.71-11.86,96.1-14.88,154.06l0,0-.42,8.81c0,.07,0,.13,0,.2h0c-.56,11.63-1,22.24-1.41,31.13l-.19,4.41-.08,1.79h0l-.49,12a16.17,16.17,0,0,1-6.31,12.22c-23.61,18.2-105.64,81.61-176.7,138.35h0l-1.85,1.49-5.95,4.78,0,0h0c-9.77,7.81-19.31,15.44-28.34,22.81l-8,6.57h.06l-11.83,9.62h0l-1,.86-.4.33h0c-14.86,12.24-27.22,22.69-36.74,31.09l-6.61,5.76.15,0h0c-3,2.78-5.59,5.2-7.61,7.22-43.21,43.2-24.22,123.29-23.35,126.83.56,1.93,56.1,193.39,66.28,235.9,7.36,30.52,28.91,53,41.09,63.69h0l.07.06c2.51,2.24,5,4.31,7.73,6.35a14.13,14.13,0,0,1,3.94,4.24c2.49,4.41,4.24,10.42,5.19,17.84,0,0,0,0,0,0s0,0,0,.07a127,127,0,0,1,.54,22.28c-.26,4.59-.71,9.29-1.35,13.93a15.66,15.66,0,0,1-1.17,4.16l-37.42,87.08a22.75,22.75,0,0,0-1.81,6.86c-3.18,32.94,12,53.25,43.88,58.74a48.4,48.4,0,0,0,8.13.68c30,0,59.83-26.73,64.16-46.61,3.94-18,16.4-56.74,38.12-88a4.07,4.07,0,0,0,.33-.48l.26-.39a162,162,0,0,1,12.94-16.06c27.76-30,12.73-62.33,7.48-71.49a16.49,16.49,0,0,1-2.06-7.73l-.47-30.24a15.26,15.26,0,0,1,1.31-6.65c17.37-37.44-7.62-99-12.82-110.94a14.53,14.53,0,0,1-.73-2c-24.7-86.77-27.88-127.12-27.58-143.46a16.05,16.05,0,0,1,2.4-8.23s0,0,0,0l0,0a15.82,15.82,0,0,1,4.1-4.5l17.75-13.2.25-.17.78-.58,10.06-7.46h0l1.3-1,2-1.5,0,0,28.52-21.2s0,0,0,0l.08-.05.11-.08.06,0,2.2-1.6.35-.29h0l.11-.08,123.61-91.79a16.2,16.2,0,0,1,24.86,7.39c13.38,35.87,28.31,71.82,44.43,107h-.18l2.43,4.88h0l0,.09c5.25,10.57,12.2,24.3,19.36,38.38h0l1.16,2.26,0,.05c4.14,8.11,8.34,16.31,12.3,24l1.22,2.37,1.16,2.25,0,.05c.29.55.59,1.13.89,1.73,5.45,10.56,14.08,27.16,17.42,32.85a.2.2,0,0,0,.05.09s0,0,0,.05l.33.55.83,1.39c1.18,2,2.07,3.47,2.63,4.41a15.51,15.51,0,0,1,1.14,2.31l25.23,61.76,95.66,246.93c7.13,16.69,15.28,29.29,24.91,38.5l.12.11c6.3,6.06,12.52,10.07,18,13.62,2.56,1.65,5,3.22,7.29,4.89,3.21,2.33,8.48,8.15,15.41,22.65a227.71,227.71,0,0,1,9.28,22.65,16.4,16.4,0,0,1,.91,5.42l-.62,123.95c0,.4.56,39.25,48.9,39.25,37.38,0,54.38-24.78,60-35.44a23.07,23.07,0,0,0,2.57-10.6l.59-107a16.61,16.61,0,0,1,1.66-7.07c1-2.06,2.08-4.5,3.17-7.27a2.14,2.14,0,0,0,.12-.28c0-.07.06-.13.09-.21h0c3.18-7.86,6.88-18.32,11-31.08C3569.45,3508.91,3555.25,3494.3,3548.7,3489.45ZM3392.31,2171.13l-.36-.12c-.21-.06-21.61-6.85-22.8-52.56-1.18-45.29,45.52-48,47.51-48.08l.2,0a20.23,20.23,0,0,0,2.79,2.52c7.46,5.59,19.85,19.93,19,53.14-.75,28.31-6.62,36.81-10,39.36a23.6,23.6,0,0,0-2.09,1.75,3.68,3.68,0,0,0-4.28-.17A34.74,34.74,0,0,1,3392.31,2171.13Zm57.25,105.34,35.94,7a16.24,16.24,0,0,1,12.76,19.29L3401.58,2760a15.39,15.39,0,0,1-6.06,9.57c-4.91,3.42-11.6,4.59-19.9,3.46-7.73-1-18.2-2.91-31.1-5.58-.59-.13-1.19-.23-1.8-.31Zm-143.93-24.95c.25,0,24.61-3,64.16,17a31.62,31.62,0,0,0,29.78-.74l2.58-1.45-3.62-6.46-2.58,1.45a24.23,24.23,0,0,1-22.82.59,185.35,185.35,0,0,0-34.8-13.65h0c33.86-6.41,50.34-14.4,58.27-20.17v18.59a23.66,23.66,0,0,0,19.13,23.2l26.54,5.18-107.2,492.38a23.58,23.58,0,0,0-14.52,9.34l-.19-1a152.32,152.32,0,0,0-8-27.46c-3.17-8-7.92-19.43-13.31-30.72h0l-1.93-3.88c-9-18.16-18.85-30-29.36-35.14,3.39-10.38,11.38-41.58-8.67-57.36,4.89-3.92,13.83-11.44,25.22-22.44h0l3.92-3.88c6.7-6.62,12.87-13.06,18.88-19.7l0,0,.66-.73,1.2-1.33,1.15-1.28h0a500.78,500.78,0,0,0,51.35-68.51,449.36,449.36,0,0,0,46.46-99.73c.24-.93,22.29-92.5-41.13-129.73-4.42-3.53-54.66-41-142.81-.48l-4.58,1h0C3234.27,2265.54,3262,2253.63,3305.63,2251.52ZM3018,2697.42l.11-2.58c.28-6.77.63-14.54,1-23,13.72,11.7,50.94,36.72,118.3,36.71,33.94,0,75.56-6.36,125.65-24,8.66,3.61,17.39,13.41,25.44,28.54C3124,2763.22,3045.42,2720,3018,2697.42Zm8.1-386.7h0c4.62,0,9.84-.18,15.88-.56l0,.05,6.29-.49.4,0,3.42-.28,3.47-.31,3.54-.34.51-.05c3.67,13.11,17.7,69,8.69,127.2-10.2.16-20.24.17-29.92,0C3044.49,2360.48,3031.91,2323.34,3026.11,2310.72Zm53.43-68.66,12.1,6.76h0c-11.86,10.47-33,30.95-45.54,53.65-5.83.43-11,.7-15.6.81,13.47-18.59,37.08-47,49-61.22Zm-12.46,65.87c4.37-.48,8.77-1,13.13-1.56,3,12.81,13.77,63.64,9.3,127.16a3.68,3.68,0,0,0-4.2,2h0q-4.89.15-9.5.26C3084.39,2378.35,3071.3,2323.44,3067.08,2307.93Zm30.91-4,2.69-.39c5.79-.83,11.61-1.73,17.4-2.66,3.56,12.58,16.08,63.6,7.55,132.74-9.43.61-19.09,1.12-28.8,1.51,4.63-63.7-5.86-115.21-9.25-129.73l1.88-.26,3.31-.46Zm106.21-18.88c13.51-2.74,21.85-4.56,21.85-4.56l.77-.26c86.16-39.78,135.12-.9,135.6-.51l.49.35c58.91,34.33,38.15,120.81,38,121.44a442.42,442.42,0,0,1-45.64,97.86A497,497,0,0,1,3303.7,2568c-80.9-48.15-101.2-110.45-106.08-133.76,19.87-2.48,39.8-5.51,59.29-9a3.7,3.7,0,0,0-1.31-7.29c-20.64,3.71-41.77,6.89-62.81,9.45-10.89,1.34-22.05,2.55-33.15,3.57h-.29c-8.54.8-17.33,1.53-26.2,2.17,8.28-69-3.61-119-7.68-133.43C3155.48,2294.75,3184.65,2289.06,3204.2,2285.06Zm78.88,304.59-.64.62c-83.79-30-111.61-124.69-118-152.33,8.65-.84,17.32-1.77,25.85-2.79,4.86,23.72,25.41,88.52,108.37,138.44C3293.67,2579,3288.56,2584.23,3283.08,2589.65Zm-192.71-146.86.63,0h0a3.63,3.63,0,0,0,1.75.47,3.76,3.76,0,0,0,2.08-.61h0c11.51-.45,23-1,34.06-1.8h.25l3-.21c8.41-.59,16.73-1.26,24.76-2,6.13,26.88,33.94,124.48,119.6,157.36a326.29,326.29,0,0,1-25.74,22.34l-59.92,29.1a3.7,3.7,0,0,0,3.23,6.66l58.5-28.41c19.56,12.91,10.15,44.67,7.63,52-102.75,36.05-169.12,22.95-205.83,6.66C3055.7,2661.9,3065.23,2508.38,3090.37,2442.79ZM3201.65,2278h0c-19.71,4-48.72,9.66-78.44,14.53l-.16,0-3,.47c-5.59.9-11.22,1.79-16.84,2.63,4.87-8.75,17.47-24,34.51-41.43h0l101.82,2.3C3216.71,2265,3204.84,2275.05,3201.65,2278Zm-74-24c-12.8,13.45-29.22,32.09-33.14,42.93-1.63.24-3.25.46-4.87.68l-3.59.49-3.58.48c-6.84.9-13.77,1.72-20.6,2.42-2.3.24-4.56.47-6.83.68,13.08-21.52,33.58-40.58,43.76-49.35a21.62,21.62,0,0,0,8.2,1.2h.29Zm-24.54-111.23c3.86-45.47,9.83-91.88,36.28-116,.62-.58,1.2-1.16,1.73-1.73,12.41-.92,151.13-10,169.79,37.78,20.1,51.52-29.61,135.5-42,144.23-9.05,6.39-92.16,6.94-142.54,5.79a23.54,23.54,0,0,0-2.88-3.83C3114.66,2199.5,3100.17,2178.2,3103.16,2142.8Zm-81.73,160.47-1.4,0a95.4,95.4,0,0,1-9.63-.74c-7.57-1-15.23-2-23.27-2.86a345.25,345.25,0,0,1,61.07-75.15l24.77,13.89C3059.7,2254.16,3034,2285.2,3021.43,2303.27Zm-153.92-181.55a3.72,3.72,0,0,0,.79,1.89l-1.22-.19A9.4,9.4,0,0,0,2867.51,2121.72Zm-19-2.93a55.81,55.81,0,0,1,10.43.17,9.77,9.77,0,0,1,1,.13,2.36,2.36,0,0,1,.11,1.94c-.16.33-1,1.45-5,2a3.66,3.66,0,0,0-1.1.37c-9.62,1.43-23.51,7.16-28.36,22.2a3.7,3.7,0,1,0,7.05,2.28c5.53-17.16,25.36-17.46,26.28-17.47,9.54-.24,12.69,1.75,13.57,2.61a2.44,2.44,0,0,1,.78,1.9,1.87,1.87,0,0,1-.62,1.34,2.49,2.49,0,0,1-1.88.76,61.25,61.25,0,0,0-19.21,2.61,10.77,10.77,0,0,0-6.75,6.29,10.33,10.33,0,0,0,.51,8.81c7.11,12.87,38.62,16.63,42.19,17a2.68,2.68,0,0,0,.4,0,3.7,3.7,0,0,0,.4-7.38c-12-1.3-32.54-6-36.5-13.23a2.9,2.9,0,0,1-.12-2.48,3.37,3.37,0,0,1,2.11-2,52.07,52.07,0,0,1,16.85-2.26,10.7,10.7,0,0,0,7.19-2.88,9.28,9.28,0,0,0,2.84-6.61,9.85,9.85,0,0,0-3-7.21,14.21,14.21,0,0,0-5.19-3.1,3.67,3.67,0,0,0,2.31-3.63l-1.37-23.62a15.23,15.23,0,0,1,2.19-9.12c.39-.61,1.42-2,2.36-2h0c.43,0,2.73.32,6.84,6.51a15.76,15.76,0,0,1,2.32,6.14c1.49,9,4.63,28.5,5.28,33.66.83,6.79,18.3,24.79,33.41,36.45-25.13,17.4-37.66,38.12-42.41,47.52-36.93-36.87-59.89-58.2-68.41-63.54-.59-5.55,2.77-13,9.62-21.32A35.28,35.28,0,0,1,2848.52,2118.79Zm2.44-31.4c.69.25,1.45.66,1.54,1,.28,1.26-1.5,4.23-3.38,6.28a59.7,59.7,0,0,0-13.89,11,38.72,38.72,0,0,0-8.05,12.82l-.19.51a3.92,3.92,0,0,0-.13.49A44.59,44.59,0,0,0,2819,2127c-3.67,4.43-7.56,10.08-9.71,16a53.87,53.87,0,0,1-2.56-9.16c6.63-18.33,19.6-33.23,21.32-35.15C2834.53,2092.87,2845.88,2085.57,2851,2087.39Zm-41.71,12.24.15-.68c1.24-11.16,5.95-30,13.28-33.17a1.67,1.67,0,0,1,.38-.14c2,2.47,1.51,15.67-1,28.6a130.35,130.35,0,0,0-16.3,23.66A79.51,79.51,0,0,1,2809.25,2099.63Zm108,85.73a128.2,128.2,0,0,1,10.86-8.76q2-1.48,4.2-2.92a89.69,89.69,0,0,0,10.29,6.12h0c.87.43,1.72.83,2.55,1.19-2.34,2.22-5.42,5.22-8.91,8.82-10.83,11.12-25.66,27.94-34.77,44.81-3.08-3.11-7.36-7.44-12.4-12.5C2891.7,2216.5,2900.11,2200.74,2917.21,2185.36Zm-9.58,57.06-.72-2.26h0c12.56-24.59,39.85-50.61,46.32-56.61a64.7,64.7,0,0,0,14.44.78c10.72-.29,22.58-.57,43.65,14.24v1h0v-1a200.08,200.08,0,0,1,18.48,14.9,23.51,23.51,0,0,0,4.29,3.09l7.31,4.1c-36.24,34-57.27,69.11-62.37,78.12-24.79-2.36-40.11-2.46-45.08-2.41C2928.92,2290.52,2907.63,2264.53,2907.63,2242.42ZM2777,2369.78l-39.28-4.1c-.52-3.31-2.07-8.11-6.67-10.73-6.95-3.93-17.28-1.16-31.59,8.44a3.7,3.7,0,0,0,4.12,6.15c15.76-10.58,21.89-9.22,23.79-8.16,2.2,1.23,2.88,4.09,3.09,5.91-4.62,3.42-19.85,13.75-36.3,14.43-5.37.16-16.11-3.12-20.13-16.91,2.85-4.87,15.36-23.88,41.6-32.74a3.7,3.7,0,0,0-2.37-7,85.28,85.28,0,0,0-44.37,34c-8.07-6.5-12.58-18.64-11.65-31.79,6.63-4.25,34.78-21.37,57-20.11a3.7,3.7,0,1,0,.41-7.39c-23.56-1.26-51.69,15.14-60.38,20.61-3.06-3.92-4.53-9.35-5.24-13.54a15.83,15.83,0,0,1,9.23-17.09c5.78-2.51,13-4.06,21.58-4.61a6.29,6.29,0,0,0,3.23-11.47l-2.09-1.42a82.3,82.3,0,0,0-40.53-13.5c-8.86-.61-12.92-2.67-13.57-6.88a10.73,10.73,0,0,1,5.63-11.27c3.65-2,8.83-3.08,15.38-3.31,14.48-.39,30.55,4.33,49.13,14.39,17.84,10.7,65.79,40.27,73.29,48.43l.78.85,1.11.26c.5.11,11.44,2.62,25.1,4.38-.16,10.77-1.62,46.25-13.65,69.12-3.65-2.64-5.81-4.26-5.82-4.27Zm27.71-63.38a157.91,157.91,0,0,0,16.94.8c2.11,12.2,8.42,58.57-12.08,84.94-6.33-4-13-8.37-19.82-13.15C2802.76,2354.94,2804.46,2318.69,2804.66,2306.4Zm11.2,89.64h0c21.53-28.48,15.67-74.93,13.21-89.2,1.36-.12,2.67-.28,3.9-.47l.85-.14.69-.47c.25-.17,25.91-16.83,96.71-2.09.18,0,9.56.18,9.56.18,7.78.15,20.9.7,38.73,2.43l.59.06h.2a3.58,3.58,0,0,0,.8.1h.14c9.85,1,19.07,2.13,28.15,3.38,2.48.35,5.24.58,8.37.73.14.27.3.57.47.91,4.69,9,19.29,44.33,12.74,124.32-4.7-.11-8.48-.25-11.4-.37h-.24c-.63-.08-1.26-.12-2-.15l-2.18-.06h-.31l-.32,0h-.19c-5.28-.45-141.27-12.31-169.32-23.85A221,221,0,0,1,2815.86,2396Zm218.79,106.16a24,24,0,0,0,.6-3.12l4.79-37.23a23.62,23.62,0,0,0-5.7-18.59h.06q8.92.18,18.22.18t18.81-.18h.08c3.49,0,7.13-.12,10.87-.23h0c-24.13,66.29-33.4,207-35.19,237.9-15.78-8-24.72-16-27.58-18.77C3022.57,2603.32,3027.55,2528.47,3034.65,2502.2Zm-100.27,542.22h0c-77.86-96.73-136-125.63-155-133h0l14.43-11.72h0c14,6.28,93.62,45.19,149.22,138.38Zm-47,510.1c-4,18.53-36.43,44.87-63.79,40.21-27.85-4.79-40.56-21.86-37.77-50.73a15.67,15.67,0,0,1,1.25-4.65l37.4-87a23.33,23.33,0,0,0,1.72-6.1c.45-3.31.81-6.64,1.08-9.95a117.06,117.06,0,0,0,28,3.47,3.71,3.71,0,0,0,0-7.41,110.63,110.63,0,0,1-27.51-3.6,140.16,140.16,0,0,0-.2-15.33,127.77,127.77,0,0,0,26.16,2.54,160.61,160.61,0,0,0,34.24-3.78,3.71,3.71,0,0,0-1.58-7.24c-30.2,6.59-52.8,2.34-59.69.67-1.15-7.33-3.08-13.45-5.77-18.24a20.92,20.92,0,0,0-4-4.9c5.87.41,13.49.78,22.16.78,33.27,0,81.87-5.39,104.9-34l.36,22.88a23,23,0,0,0,.22,2.87,42.68,42.68,0,0,0-21.24,20c-8.89,17.22-8.05,40.84,2.47,70.23C2903.9,3497.19,2891.37,3536.23,2887.36,3554.52Zm53.45-108.35c-3.32,3.59-6.55,7.47-9.78,11.71-8.18-25-8.63-44.9-1.29-59.29a35.4,35.4,0,0,1,16.9-16.49c.2.42.42.84.65,1.25C2953.23,3393.72,2964.48,3420.59,2940.81,3446.17Zm-9-222a24.49,24.49,0,0,0,1.07,3c3,7,29.27,69.54,12.89,104.84a19,19,0,0,0-.87,2.2,3.7,3.7,0,0,0-.84,1.11c-24.28,49.73-125.64,40.08-137.34,38.78-11.66-10.38-31.24-31.27-37.95-59.12-10.21-42.67-65.81-234.3-66.33-236.08-.19-.79-18.85-79.4,21.43-119.69,2.81-2.81,6.72-6.44,11.62-10.8h0c18.38,3.75,77.42,23,170.6,120.7h0a23.65,23.65,0,0,0-2.15,9.45C2903.67,3095.27,2906.87,3136.46,2931.84,3224.16Zm-18.34-164.23a23.81,23.81,0,0,0-3.17,2.83c-85.35-89.17-142.07-113.7-168-120.4,8.34-7.24,18.49-15.8,30.27-25.51,11,3.75,72.34,28.4,155.79,132ZM2949,3033.6c-53.14-88.65-127.78-129.07-148.79-139.12l2.38-1.92,8.69-7,.47-.38,1.81-1.46,1-.81c.42-.35.83-.69,1.24-1s.82-.67,1.22-1l.09-.07,1.61-1.31.12-.09.91-.74.7-.57c.77-.61,1.51-1.21,2.21-1.79l.49-.4.66-.53,4-3.25c13.38,7.39,88.34,51.63,144,144.48Zm188-102a23.62,23.62,0,0,0-36.21-10.75l-123,91.34c-53.51-88.93-124.49-134-143.73-145,70.43-56.19,150.81-118.31,174.12-136.28a23.61,23.61,0,0,0,9.2-17.79l.27-6.56c13.88,10.43,37.12,23.62,72.17,31.16,13.59,115.82,30.94,170.79,31.12,171.33a3.7,3.7,0,0,0,3.52,2.57,3.65,3.65,0,0,0,1.13-.17,3.71,3.71,0,0,0,2.4-4.66c-.17-.53-17.09-54.2-30.53-167.57a292.41,292.41,0,0,0,52.42,4.49c38.32,0,85.23-6.45,142-23.87,5.49,11.4,10.37,23.14,13.58,31.23a145.85,145.85,0,0,1,7.64,26.13l3.16,16.4v.07a22.56,22.56,0,0,0,.52,2.7c0,.14.06.27.1.4,6.43,24.47,10.08,44.46,10.55,57.81a24.19,24.19,0,0,0,1.23,7l38.91,115.83c-14.28,9.14-92.14,56.44-185.21,63.2C3165.88,3004.85,3150.62,2968.18,3137,2931.61Zm48.88,116.17c90.41-7.41,166.1-51.79,184.15-63.14l9.29,27.68c-73.8,49.84-159.52,64-177.75,66.51C3195.88,3067.7,3190.41,3056.87,3185.86,3047.78Zm19.31,38.16-.07-.14c22.85-3.41,104.94-18.42,176.64-66.2l10.36,30.85c-12.19,7.84-72.93,44.12-174.74,59.25C3213.46,3102.14,3209.3,3094,3205.17,3085.94Zm15.78,30.72c97.73-15,157.87-49.15,173.58-59l9.38,27.93c-90.54,47.63-155.51,57.26-168.32,58.77C3232.83,3139.43,3227.68,3129.68,3221,3116.66Zm142.13,348.13-95.64-246.87-25.23-61.77a23.39,23.39,0,0,0-1.65-3.35c-.25-.41-.55-.9-.9-1.5,18.79-2.59,81.64-14.06,166.64-58.58l35.18,104.69,71.17,182.09a19.16,19.16,0,0,0,1.31,2.8c2.56,4.65,15,29.72,7.79,67a24.28,24.28,0,0,0-.43,5.29,3.64,3.64,0,0,0-.64.71c-36.61,54-126.57,48.93-134.64,45.19C3377.23,3492,3369.7,3480.29,3363.08,3464.79Zm175.49,110.43a24.08,24.08,0,0,0-2.41,10.26l-.59,107.08a15.52,15.52,0,0,1-1.74,7.19c-4.95,9.46-20.06,31.46-53.39,31.46-40.79,0-41.48-30.55-41.49-31.82l.61-122.47a56.71,56.71,0,0,0,6.74.34,189.13,189.13,0,0,0,21.13-1.49,3.7,3.7,0,1,0-.85-7.35c-18.85,2.17-25.68,1.36-27.81.88-.15-.59-.33-1.17-.53-1.74-1.3-3.74-3.74-10.38-7-17.67,2.24.1,5,.19,8.1.19,14.21,0,36.37-1.76,54.78-11a3.7,3.7,0,1,0-3.31-6.62c-23.56,11.78-55,10.35-63.13,9.74-5.78-11.7-11.42-19.61-16.81-23.53-2.47-1.79-5-3.4-7.63-5.12-1.94-1.25-3.91-2.52-5.9-3.88,3.36.24,7.1.37,11.11.37a204.21,204.21,0,0,0,25.43-1.62c28.42-3.61,66.39-14.3,89.61-44.43.34.72.72,1.42,1.13,2.11l9.65,16h0c-3.47,9.32-17.37,52.29,6.59,87.84C3540.09,3572,3539.31,3573.71,3538.57,3575.22Zm14-37.86c-3,9.3-5.75,17.34-8.24,24-15-26.55-8.88-57.28-4.88-71a23,23,0,0,0,4.88,5C3549.56,3499.3,3560.93,3511.21,3552.53,3537.36Z"/><path class="cls-3" d="M3424.71,2149.38v0a17.07,17.07,0,0,0,1.34-3.71,89.81,89.81,0,0,0,1.89-21.75l0-1.46c-.07-5.24-.15-11.64-2.15-16.89v0a22.57,22.57,0,0,0-17.28-20.75c-10.88-2.89-22.77,2.29-28.91,12.62-5.39,9-10.39,24.06-3.64,44.13,4.48,13.32,11.11,21.77,19.71,25.11a22.64,22.64,0,0,0,8.2,1.52,24.27,24.27,0,0,0,11-2.61l.61-.42a33.19,33.19,0,0,0,9.25-15.71Zm-9.35-45.5h0a7.1,7.1,0,0,1,3.19,3.59l0,0s0,.07,0,.11a2.14,2.14,0,0,0,.1.22c0,.06.05.11.07.17l0,.06c1.56,3.93,1.64,9.6,1.7,14.48l0,1.48a83.1,83.1,0,0,1-1.68,19.92,9.41,9.41,0,0,1-.77,2.1.08.08,0,0,0,0,0,.93.93,0,0,1-.05.1l-.12.21a0,0,0,0,1,0,0s0,0,0,0a9.93,9.93,0,0,1-10.95,4.83c-10.23-2.42-15.33-10.58-15.16-24.27.07-5.31,1.6-22.73,18.41-23.92.39,0,.76,0,1.13,0A8.92,8.92,0,0,1,3415.36,2103.88Zm-17.13,55.79c-6.41-2.53-11.55-9.43-15.27-20.52-5.85-17.41-1.61-30.26,3-38,4.46-7.5,13-11.3,20.64-9.25a16.11,16.11,0,0,1,7.2,3.89h0a20.18,20.18,0,0,0-4.14-.1c-15.36,1.09-25,13.06-25.28,31.22-.3,23.1,12.94,29.69,20.86,31.56a17,17,0,0,0,4,.47,16,16,0,0,0,2.09-.13l-.38.4A16.52,16.52,0,0,1,3398.23,2159.67Z"/><path class="cls-3" d="M3130.59,2175.29l.3.32a7.1,7.1,0,0,0,5.15,2.24,7.43,7.43,0,0,0,3.36-.82,7.52,7.52,0,0,0,4-8.06c-14.09-78.91,13.14-119,21.83-129.36a7.22,7.22,0,0,0,.35-9c-1.87-2.42-4.91-3.45-8.55-2.93a7.38,7.38,0,0,0-5.24,3.43c-22.23,35.4-27.75,71.4-27.75,98.45a179.77,179.77,0,0,0,4.83,42.6A7.23,7.23,0,0,0,3130.59,2175.29ZM3155,2033.06a3.78,3.78,0,0,1,2.65-1.73c2.32-.33,4,.18,5.09,1.54a3.51,3.51,0,0,1-.28,4.36c-8.94,10.71-37,51.9-22.62,132.39a3.83,3.83,0,0,1-2.08,4.11,3.43,3.43,0,0,1-4.15-.67l-.27-.29a3.5,3.5,0,0,1-.8-1.53C3129.42,2159.05,3116,2095.13,3155,2033.06Z"/><path class="cls-2" d="M4775.85,2666.05c-11.69,34.45-56.85,53.39-130.59,54.8-3.06.06-6.16.09-9.32.09-66.95,0-154.06-13.25-252.93-38.51-1.28-.31-2.57-.62-3.85-1-4.84-1.25-9.69-2.5-14.53-3.81-85.49-22.72-175.3-53.07-267.29-90.24-133.56-54.08-256.18-116.43-355.62-180.92q-6.37-4.12-12.56-8.25l-3.44-2.31c-83.14-55.52-214.43-157.11-189.55-230.4,9.88-29.14,42.45-46.89,96.81-52.77,48.61-5.25,114.87-.62,191.89,13.38q-6,6.75-11.69,13.79c-149.19-26.07-246.81-14.82-262.19,30.6-15.29,44.95,49.86,121.71,174.76,206.61,3.94,2.69,8,5.41,12,8.1,1.15.75,2.31,1.53,3.47,2.28,100.15,66,225.21,130.06,362,185.39,95,38.41,187.67,69.45,275.47,92.3l4.35,1.13c4.53,1.15,9.06,2.31,13.53,3.43,98.12,24.45,183.77,36.64,248.38,35.45,66.58-1.25,106.71-16.53,116.09-44.17,18-53.17-78.27-151.5-246.16-252.06.32-5.91.5-11.88.54-17.85C4700,2500.3,4797.27,2603,4775.85,2666.05Z"/><path class="cls-2" d="M3835.28,2136a7.85,7.85,0,0,1-9.13,6.25q-6.55-1.21-13-2.34,5.67-7,11.69-13.79l4.16.75A7.85,7.85,0,0,1,3835.28,2136Z"/><path class="cls-2" d="M4515.42,2391.14c0,6-.22,11.94-.54,17.85-3.75-2.25-7.5-4.47-11.31-6.72a7.81,7.81,0,1,1,7.94-13.44Z"/><path class="cls-2" d="M4120.54,1992.7c-117.56,0-223.28,51.64-295.67,133.44q-6,6.75-11.69,13.79a393,393,0,0,0-87.43,237.21c3.94,2.69,8,5.41,12,8.1,1.15.75,2.31,1.53,3.47,2.28.06-209.12,170.19-379.19,379.28-379.19s379.28,170.14,379.28,379.28c0,2.63,0,5.28-.1,7.91-2.18,106.37-48.35,202.08-121,269.69l4.35,1.13c4.53,1.15,9.06,2.31,13.53,3.43A393.85,393.85,0,0,0,4514.88,2409c.32-5.91.5-11.88.54-17.85,0-1.18,0-2.34,0-3.53C4515.45,2169.87,4338.31,1992.7,4120.54,1992.7Zm244.09,685a377.45,377.45,0,0,1-244.09,89.24c-202.77,0-368.94-160-378.82-360.4q-6.37-4.12-12.56-8.25l-3.44-2.31c4.44,213.92,179.86,386.59,394.82,386.59A393.24,393.24,0,0,0,4383,2682.43c-1.28-.31-2.57-.62-3.85-1C4374.32,2680.21,4369.47,2679,4364.63,2677.65Z"/><path class="cls-3" d="M2454.25,2887.64a3.7,3.7,0,0,1-3.44-2.34c-23.08-58.37-105.08-85.86-105.9-86.13a3.7,3.7,0,1,1,2.3-7c3.51,1.15,86.12,28.82,110.48,90.45a3.69,3.69,0,0,1-2.08,4.8A3.61,3.61,0,0,1,2454.25,2887.64Z"/><path class="cls-3" d="M2665.8,3042.72a3.7,3.7,0,0,1-3.62-2.95c-10.76-52.42,20.56-87.43,21.89-88.89a3.71,3.71,0,0,1,5.48,5c-.31.33-30.1,33.8-20.12,82.41a3.7,3.7,0,0,1-2.88,4.37A3.81,3.81,0,0,1,2665.8,3042.72Z"/><path class="cls-3" d="M3431,2750.31a3.82,3.82,0,0,1-.75-.08,3.69,3.69,0,0,1-2.88-4.36l22.5-110.5a3.7,3.7,0,1,1,7.25,1.47l-22.5,110.5A3.7,3.7,0,0,1,3431,2750.31Z"/><path class="cls-3" d="M3460.63,2151.13a3.91,3.91,0,0,1-.49,0,3.71,3.71,0,0,1-3.19-4.16c5.42-40.59-13.42-83.1-13.61-83.52a3.7,3.7,0,1,1,6.75-3c.81,1.81,19.91,44.81,14.2,87.54A3.69,3.69,0,0,1,3460.63,2151.13Z"/><path class="cls-3" d="M1373.23,2938.6a3.7,3.7,0,0,1-3.64-3.07c-10.62-61.43,10.1-96.37,11-97.83a3.7,3.7,0,0,1,6.32,3.85c-.2.33-20.13,34.23-10,92.72a3.7,3.7,0,0,1-3,4.28A3.52,3.52,0,0,1,1373.23,2938.6Z"/><path class="cls-3" d="M1646.47,3223.6a123.6,123.6,0,0,1-13.74-.7,3.7,3.7,0,0,1,.89-7.35c.53.07,53.18,6.1,70.76-21.93a3.7,3.7,0,0,1,6.27,3.94C1696.51,3220.1,1664.81,3223.6,1646.47,3223.6Z"/><path class="cls-3" d="M1935.72,3307.38c-63,0-110.43-32.16-111.11-32.63a3.7,3.7,0,0,1,4.22-6.09c.94.65,95.27,64.47,193,8.05a3.71,3.71,0,0,1,3.71,6.42A177.26,177.26,0,0,1,1935.72,3307.38Z"/><path class="cls-3" d="M1524,2498.92a3.71,3.71,0,0,1-3.56-2.7c-11.59-41,13-77.56,14-79.1a3.7,3.7,0,0,1,6.11,4.18c-.23.35-23.63,35.26-13,72.9a3.7,3.7,0,0,1-2.56,4.57A3.58,3.58,0,0,1,1524,2498.92Z"/><path class="cls-2" d="M1200.85,2266c.06-.38.09-.69.12-1,0,.31-.06.66-.09,1Z"/><path class="cls-2" d="M1201.1,2264.05a2.22,2.22,0,0,1-.06.44C1201.07,2264.21,1201.1,2264.05,1201.1,2264.05Z"/><path class="cls-2" d="M1444.92,2196.53l15.16-7.2c-14.32,106.89-73.46,208.12-73.53,208.2a551.06,551.06,0,0,1-119.4,140c-101.11,85.08-226.51,130.63-357.25,130.63-15.28,0-30.55-.61-45.94-1.85-145.79-11.88-278.61-79-374.46-189.19,1.15-.11,2.39-.26,3.58-.38,4.35-.5,8.66-1,13-1.54,194.35,215.62,528.94,239.67,752.26,51.87a541.39,541.39,0,0,0,116.59-136.79S1428.37,2302.45,1444.92,2196.53Z"/><path class="cls-2" d="M1462.27,2170.55v.16s0,.19-.08.54c0,.19,0,.42-.07.69s-.08.73-.16,1.19l-1,.5c-2.31,1.16-4.62,2.27-7,3.35l-1.08.54-5.77,2.77c.27-2,.46-3.35.46-3.35l1.27-10c14.7-142.13-26-281.11-115.43-393.16l-1.85-2.31a6.92,6.92,0,0,0,6.24,2.2c3.84-.66,7.65-1.31,11.46-1.93a554.28,554.28,0,0,1,113,398.85Z"/><path class="cls-4" d="M1464.5,2187.18v0l-4.42,2.12C1461.58,2188.6,1463,2187.91,1464.5,2187.18Z"/><path class="cls-2" d="M973.33,1807.49a40.92,40.92,0,1,1,40.92-40.92A41,41,0,0,1,973.33,1807.49Zm0-74.43a33.52,33.52,0,1,0,33.51,33.51A33.55,33.55,0,0,0,973.33,1733.06Z"/><path class="cls-2" d="M2734.41,1812.35a40.92,40.92,0,1,1,40.92-40.92A41,41,0,0,1,2734.41,1812.35Zm0-74.43a33.52,33.52,0,1,0,33.52,33.51A33.54,33.54,0,0,0,2734.41,1737.92Z"/><path class="cls-2" d="M2956.7,1660.14a111,111,0,1,1,111-111A111.12,111.12,0,0,1,2956.7,1660.14Zm0-214.57a103.58,103.58,0,1,0,103.58,103.58A103.7,103.7,0,0,0,2956.7,1445.57Z"/><path class="cls-2" d="M2956.7,1999.47a83.54,83.54,0,1,1,83.53-83.53A83.63,83.63,0,0,1,2956.7,1999.47Zm0-159.66a76.13,76.13,0,1,0,76.12,76.13A76.21,76.21,0,0,0,2956.7,1839.81Z"/><path class="cls-2" d="M1148.47,2146.9a80.23,80.23,0,1,1,80.22-80.23A80.32,80.32,0,0,1,1148.47,2146.9Zm0-153a72.82,72.82,0,1,0,72.82,72.81A72.89,72.89,0,0,0,1148.47,1993.86Z"/><path class="cls-2" d="M657.58,2058A102.41,102.41,0,1,1,760,1955.54,102.53,102.53,0,0,1,657.58,2058Zm0-197.42a95,95,0,1,0,95,95A95.12,95.12,0,0,0,657.58,1860.53Z"/><path class="cls-2" d="M1134.81,2514.85a66.56,66.56,0,1,1,66.56-66.56A66.64,66.64,0,0,1,1134.81,2514.85Zm0-125.71a59.16,59.16,0,1,0,59.16,59.15A59.22,59.22,0,0,0,1134.81,2389.14Z"/></svg>