<svg xmlns="http://www.w3.org/2000/svg" xmlns:xlink="http://www.w3.org/1999/xlink" viewBox="0 0 123.44 126.97"><defs><style>.cls-1{fill:none;}.cls-2{isolation:isolate;}.cls-3{fill:#f3eacd;}.cls-4{fill:#de7533;}.cls-5{fill:#3f2a15;}.cls-6{fill:#4f391c;}.cls-7{fill:#cde8e2;}.cls-8{fill:#c4bf10;}.cls-9{fill:#ffdf24;}.cls-10{fill:#ffa65e;}.cls-11{fill:#cff;}.cls-12{fill:#fff;}.cls-13{clip-path:url(#clip-path);}.cls-14{fill:#bfbb13;}.cls-15{fill:#b8ffee;}.cls-15,.cls-25,.cls-26,.cls-27,.cls-39{opacity:0.5;}.cls-15,.cls-27,.cls-39{mix-blend-mode:overlay;}.cls-16{fill:#96921d;}.cls-17{fill:#a84f13;}.cls-18{fill:#ef7320;}.cls-19{fill:#6f6;}.cls-20,.cls-25{fill:#74aaa7;}.cls-21,.cls-26{fill:#addbd0;}.cls-22{fill:#dda800;}.cls-23{fill:#7f7f19;}.cls-24{fill:#9f6;}.cls-25,.cls-41{mix-blend-mode:multiply;}.cls-27{fill:#feffa8;}.cls-28{fill:#1e7a9e;}.cls-29{fill:#2fb2f4;}.cls-30{fill:#bef4e9;}.cls-31{fill:#75d3a8;}.cls-32{fill:#8be8bb;}.cls-33{fill:#8ab2a8;}.cls-34{fill:#3c0;}.cls-35{fill:#2c90af;}.cls-36{clip-path:url(#clip-path-2);}.cls-37{fill:#ffe377;opacity:0.8;}.cls-38{fill:#683f0e;}.cls-39{fill:#ecffb5;}.cls-40{fill:#ffe843;}.cls-41{fill:#6d5e06;opacity:0.4;}.cls-42{fill:#e5c420;}.cls-43{fill:#7bdaff;}.cls-44{fill:#030;}</style><clipPath id="clip-path" transform="translate(-0.03 14.21)"><rect class="cls-1" x="15.44" y="-3.54" width="79.15" height="79.15"/></clipPath><clipPath id="clip-path-2" transform="translate(-0.03 14.21)"><polygon class="cls-1" points="52.53 40.74 39.94 40.89 37.27 51.64 56.1 50 52.53 40.74"/></clipPath></defs><title>econergyy</title><g class="cls-2"><g id="Layer_1" data-name="Layer 1"><g id="Back"><polygon class="cls-3" points="107.32 30.22 107.32 96.75 74.27 115.83 35.69 115.83 2.63 96.75 2.63 30.22 35.69 11.14 74.27 11.14 107.32 30.22"/><path class="cls-4" d="M55-14.21,0,17.54V81l55,31.74L110,81V17.54ZM100.5,75.54,55,101.81,9.52,75.54V23L55-3.25,100.5,23Z" transform="translate(-0.03 14.21)"/><path class="cls-1" d="M60.52,93.5l30-17.32a11.06,11.06,0,0,0,5.53-9.58V32a11.06,11.06,0,0,0-5.53-9.58l-30-17.32a11.06,11.06,0,0,0-11.06,0l-30,17.32A11.06,11.06,0,0,0,13.93,32V66.6a11.06,11.06,0,0,0,5.53,9.58l30,17.32A11.06,11.06,0,0,0,60.52,93.5Z" transform="translate(-0.03 14.21)"/><path class="cls-4" d="M107.35,16,74.3-3.07,55-14.21,35.72-3.07,2.66,16,0,17.54V81l2.63,1.52,33.06,19.08L55,112.76,74.3,101.62l33-19.08L110,81V17.54ZM100.5,75.54,55.33,101.62l-.32.18-.32-.18L9.52,75.54V23L54.69-3.07,55-3.25l.32.18L100.5,23Z" transform="translate(-0.03 14.21)"/><polygon class="cls-5" points="11.63 83.13 11.77 88.43 54.97 113.36 98.17 88.43 98.13 83.38 82.88 86.88 33.71 86.8 15.54 83.55 11.63 83.13"/><polygon class="cls-6" points="15.52 77.38 11.93 77.38 11.68 77.38 11.68 83.13 15.44 83.55 94.54 83.55 94.87 84.55 98.13 83.38 98.13 76.63 95.04 77.63 14.69 77.63 15.52 77.38"/><polygon class="cls-7" points="15.46 73.8 11.71 73.8 11.71 77.38 94.63 77.38 94.54 78.05 98.13 76.63 98.13 73.8 15.46 73.8"/><polygon class="cls-8" points="15.53 60.9 11.59 61.3 11.59 61.94 15.53 62.52 16.05 61.74 15.53 60.9"/><polygon class="cls-9" points="15.5 62.38 11.67 61.88 11.71 73.8 15.46 73.92 16.79 65.53 15.5 62.38"/><path class="cls-10" d="M55-3.25,9.51,23V75.54L55,101.81l45.49-26.27V23ZM98.2,74.22,55,99.16,11.8,74.22V24.34L55-.6,98.2,24.34Z" transform="translate(-0.03 14.21)"/><polygon class="cls-11" points="54.97 13.6 11.77 38.55 11.75 61.38 21.21 61.05 31.71 58.88 37.21 58.96 75.96 62.46 86.45 57.12 98.13 56.55 98.17 38.55 54.97 13.6"/><path class="cls-8" d="M70.49,99.18l1.66-1,.08.13a3.22,3.22,0,0,1,.36.86,2,2,0,0,1,0,.81,2.1,2.1,0,0,1-1.06,1.45,2.26,2.26,0,0,1-1.79.22,2.41,2.41,0,0,1-.55-4.42,2.36,2.36,0,0,1,1-.31,2.91,2.91,0,0,1,1.13.18l-.19.66a1.69,1.69,0,0,0-1.58,0,1.65,1.65,0,0,0-.82,1.06,1.69,1.69,0,0,0,.19,1.33,1.63,1.63,0,0,0,1.12.83,1.67,1.67,0,0,0,1.21-.16,1.39,1.39,0,0,0,.63-.76,1.25,1.25,0,0,0,0-1l-1,.58Z" transform="translate(-0.03 14.21)"/><rect class="cls-8" x="74.3" y="94.59" width="0.7" height="4.63" transform="translate(-38.44 64.41) rotate(-29.95)"/><polygon class="cls-8" points="77.55 107.51 79.53 110.95 78.92 111.3 76.94 107.86 76.02 108.39 75.69 107.82 78.14 106.41 78.47 106.98 77.55 107.51"/><path class="cls-8" d="M83,89.68l.41.72a1.93,1.93,0,0,0-1.34.19,1.6,1.6,0,0,0-.79,1,1.73,1.73,0,0,0,.2,1.33,1.69,1.69,0,0,0,1,.82,1.63,1.63,0,0,0,1.3-.17,1.49,1.49,0,0,0,.48-.42,1.77,1.77,0,0,0,.18-.29,3.62,3.62,0,0,0,.16-.38l.42.73a2.52,2.52,0,0,1-.92.93,2.33,2.33,0,0,1-1.81.24,2.3,2.3,0,0,1-1.45-1.11,2.39,2.39,0,0,1-.28-1.66A2.32,2.32,0,0,1,81.83,90,2.36,2.36,0,0,1,83,89.68" transform="translate(-0.03 14.21)"/><path class="cls-12" d="M86,89.5a2.27,2.27,0,0,1-.22-1.81,2.37,2.37,0,0,1,1.14-1.47,2.42,2.42,0,0,1,3.29.89,2.28,2.28,0,0,1,.23,1.83,2.45,2.45,0,0,1-2.86,1.73A2.27,2.27,0,0,1,86,89.5m.61-.34a1.72,1.72,0,0,0,3.17-.38,1.8,1.8,0,0,0-1.23-2.16,1.63,1.63,0,0,0-1.31.17,1.65,1.65,0,0,0-.81,1,1.67,1.67,0,0,0,.18,1.31" transform="translate(-0.03 14.21)"/><rect class="cls-8" x="92.29" y="84.23" width="0.7" height="4.63" transform="translate(-30.87 72.05) rotate(-29.97)"/><polygon class="cls-8" points="96.42 101.23 93.96 96.94 98.65 98.32 97.04 95.53 97.65 95.18 100.1 99.44 95.41 98.07 97.03 100.88 96.42 101.23"/></g><g class="cls-13"><path class="cls-6" d="M107.91,62,.12,61.51C27.31,91.31,87.2,86.43,107.91,62Z" transform="translate(-0.03 14.21)"/><polygon class="cls-9" points="34.01 59.88 23.06 64.76 94.55 63.3 100.36 55.92 94.54 56.27 34.01 59.88"/><polygon class="cls-8" points="33.22 58.16 4.72 62.78 82.15 65.42 33.22 58.16"/><polygon class="cls-9" points="13.3 62.25 13.06 75.31 84.44 64.91 13.3 62.25"/><polygon class="cls-8" points="106.04 55.99 11.79 75.76 105.43 75.32 106.04 55.99"/><path class="cls-14" d="M94.33,39.59a12.13,12.13,0,0,0-1.68-6.38A11.32,11.32,0,0,0,91,39.59c0,2.73.75,3.5,1.68,3.5S94.33,42.32,94.33,39.59Z" transform="translate(-0.03 14.21)"/><path class="cls-15" d="M92.5,39.74a12.78,12.78,0,0,0,.11-6.5A11.4,11.4,0,0,0,91,39.59a6.44,6.44,0,0,0,.39,2.58A5.52,5.52,0,0,0,92.5,39.74Z" transform="translate(-0.03 14.21)"/><path class="cls-14" d="M33.16,42.25a7.52,7.52,0,0,0-1-4,7,7,0,0,0-1,4c0,1.69.47,2.17,1,2.17S33.16,43.94,33.16,42.25Z" transform="translate(-0.03 14.21)"/><path class="cls-15" d="M15.08,43.74a12.78,12.78,0,0,0,.11-6.5,11.4,11.4,0,0,0-1.65,6.34,6.44,6.44,0,0,0,.39,2.58A5.52,5.52,0,0,0,15.08,43.74Z" transform="translate(-0.03 14.21)"/><path class="cls-14" d="M21.83,43.48a9.62,9.62,0,0,0-1.34-5.07,9,9,0,0,0-1.34,5.07c0,2.17.6,2.78,1.34,2.78S21.83,45.64,21.83,43.48Z" transform="translate(-0.03 14.21)"/><path class="cls-15" d="M20.38,43.6a10.14,10.14,0,0,0,.09-5.16,9,9,0,0,0-1.31,5,5.12,5.12,0,0,0,.31,2A4.38,4.38,0,0,0,20.38,43.6Z" transform="translate(-0.03 14.21)"/><path class="cls-14" d="M89.45,40.34A12.13,12.13,0,0,0,87.77,34a11.32,11.32,0,0,0-1.68,6.38c0,2.73.75,3.5,1.68,3.5S89.45,43.07,89.45,40.34Z" transform="translate(-0.03 14.21)"/><path class="cls-15" d="M87.62,40.49a12.77,12.77,0,0,0,.11-6.5,11.4,11.4,0,0,0-1.65,6.34,6.44,6.44,0,0,0,.39,2.58A5.52,5.52,0,0,0,87.62,40.49Z" transform="translate(-0.03 14.21)"/><rect class="cls-8" x="87.33" y="57.38" width="0.76" height="2.6"/><polygon class="cls-16" points="70.02 66.87 35.14 75.99 123.44 75.57 70.02 66.87"/><path class="cls-16" d="M88.65,48.89a16.38,16.38,0,0,0-2.27-8.63c-1.26,1.65-2.27,4.94-2.27,8.63s1,4.73,2.27,4.73S88.65,52.58,88.65,48.89Z" transform="translate(-0.03 14.21)"/><rect class="cls-16" x="85.8" y="66.94" width="1.03" height="3.51"/><path class="cls-14" d="M83.54,44.33a8.25,8.25,0,0,0-1.48-4.84,7.71,7.71,0,0,0-1.48,4.84c0,2.07.66,2.65,1.48,2.65S83.54,46.4,83.54,44.33Z" transform="translate(-0.03 14.21)"/><path class="cls-15" d="M81.93,44.45a8.38,8.38,0,0,0,.1-4.93,7.76,7.76,0,0,0-1.46,4.81,4.28,4.28,0,0,0,.35,2A4,4,0,0,0,81.93,44.45Z" transform="translate(-0.03 14.21)"/><rect class="cls-8" x="81.67" y="60.69" width="0.67" height="1.97"/><rect class="cls-8" x="92.21" y="56.63" width="0.76" height="2.6"/><path class="cls-14" d="M99.22,38.23a12.13,12.13,0,0,0-1.68-6.39,11.32,11.32,0,0,0-1.68,6.39c0,2.73.75,3.5,1.68,3.5S99.22,41,99.22,38.23Z" transform="translate(-0.03 14.21)"/><path class="cls-15" d="M97.4,38.38a12.77,12.77,0,0,0,.11-6.5,11.4,11.4,0,0,0-1.65,6.34,6.45,6.45,0,0,0,.39,2.58A5.52,5.52,0,0,0,97.4,38.38Z" transform="translate(-0.03 14.21)"/><rect class="cls-8" x="97.11" y="55.27" width="0.76" height="2.6"/><polygon class="cls-17" points="85.72 54.37 79.24 51.27 79.71 73.97 85.72 73.97 85.72 54.37"/><rect class="cls-18" x="40.65" y="42.03" width="42.11" height="32.12"/><rect class="cls-17" x="73.01" y="65.16" width="8.77" height="0.75"/><rect class="cls-17" x="44.11" y="65.16" width="18.9" height="0.75"/><polygon class="cls-17" points="82.77 45.06 40.66 45.06 83.08 59.48 82.77 45.06"/><rect class="cls-6" x="40.19" y="42.68" width="44.21" height="2.94"/><path class="cls-19" d="M88.51,21.66a5.08,5.08,0,0,0-5.08-5.08L38.11,10.8c-3,0-5.36,3.18-5.36,7.11v6c0,3.93,5.21,7.11,8,7.11H83.43A5.08,5.08,0,0,0,88.51,26Z" transform="translate(-0.03 14.21)"/><rect class="cls-20" x="44.01" y="50.67" width="18.98" height="14.48"/><rect class="cls-20" x="63.82" y="50.67" width="8.42" height="23.12"/><rect class="cls-20" x="73.13" y="50.67" width="8.56" height="14.48"/><polygon class="cls-21" points="44.01 65.14 62.99 65.14 62.99 52.8 56.8 50.67 44.01 50.67 44.01 65.14"/><polygon class="cls-21" points="63.82 53.09 63.82 73.79 65.55 73.79 72.24 73.74 72.24 55.99 63.82 53.09"/><polygon class="cls-21" points="81.7 65.14 81.7 59.25 73.13 56.3 73.13 65.14 81.7 65.14"/><rect class="cls-6" x="75.11" y="45.24" width="1.49" height="28.74"/><polygon class="cls-22" points="75.87 57.38 75 56.54 75 73.98 75.87 73.98 75.87 57.38"/><rect class="cls-6" x="50.88" y="45.24" width="1.49" height="27.05"/><polygon class="cls-22" points="51.63 48.01 50.77 47.48 50.77 72.28 51.63 72.28 51.63 48.01"/><path class="cls-23" d="M87.5,21.8a4.64,4.64,0,0,0-4.88-4.34L39,12.52c-2.85,0-5.16,2.72-5.16,6.08v5.14c0,3.35,5,6.07,7.71,6.07h41a4.64,4.64,0,0,0,4.88-4.34Z" transform="translate(-0.03 14.21)"/><path class="cls-24" d="M87.45,21.8a4.56,4.56,0,0,0-4.76-4.34L40.24,12.52c-2.77,0-5,2.72-5,6.08v5.14c0,3.35,4.88,6.07,7.51,6.07h40a4.56,4.56,0,0,0,4.76-4.34Z" transform="translate(-0.03 14.21)"/><rect class="cls-25" x="64.48" y="51.18" width="7.11" height="22.1"/><rect class="cls-26" x="65.1" y="52.18" width="5.86" height="20.1"/><path class="cls-23" d="M70.3,45.54c-1.19-2.21-6.55-2.06-7.73-.12L61.4,60.18h9.84Z" transform="translate(-0.03 14.21)"/><path class="cls-27" d="M62.57,45.43,61.4,60.18h4l3.2-15.91C66.54,43.54,63.43,44,62.57,45.43Z" transform="translate(-0.03 14.21)"/><polygon class="cls-28" points="34.59 68.53 28.18 71.38 31.41 72 58.17 71.75 58.11 70.35 34.59 68.53"/><polygon class="cls-29" points="58.2 66.25 53.58 53.84 39.17 54.02 35.99 66.01 27.64 68.89 28.11 71.35 58.15 71.41 58.15 66.26 58.2 66.25"/><path class="cls-27" d="M53.61,39.63l-14.4.18-3,11.28-8.55,3.59.22,1.16c5.74-.93,22.4-3.6,30-4.81ZM39.94,40.89l12.6-.15,3.34,8.62L37.45,51Z" transform="translate(-0.03 14.21)"/><polygon class="cls-30" points="52.5 54.95 39.91 55.1 37.24 65.84 56.33 64.91 52.5 54.95"/><polygon class="cls-31" points="52.5 54.95 40.78 55.07 40.18 65.77 56.09 64.2 52.5 54.95"/><polygon class="cls-32" points="56.08 64.19 52.5 54.95 44.04 55.04 44.13 64.56 56.08 64.19"/><rect class="cls-7" x="13.9" y="73.94" width="86.31" height="3.08"/><rect class="cls-33" x="29.3" y="73.98" width="75.53" height="0.96"/><path class="cls-23" d="M69.36,46.33a4.25,4.25,0,0,0-6,0l1.1,3.37a4.52,4.52,0,0,1,3.72.13Z" transform="translate(-0.03 14.21)"/><path class="cls-34" d="M81,27.32A5.54,5.54,0,0,0,84.13,26a5.18,5.18,0,0,0-3.38-.7c-1.4.14-1.75.64-1.69,1.21S79.55,27.46,81,27.32Z" transform="translate(-0.03 14.21)"/><path class="cls-34" d="M78.94,24.46a4.67,4.67,0,0,0-1-2.74,4.36,4.36,0,0,0-.74,2.82c.06,1.19.46,1.5.94,1.48S79,25.64,78.94,24.46Z" transform="translate(-0.03 14.21)"/><path class="cls-34" d="M81.08,24.23a4.73,4.73,0,0,0,1.1-2.73,4.41,4.41,0,0,0-2.46,1.62c-.76.93-.67,1.44-.29,1.75S80.32,25.16,81.08,24.23Z" transform="translate(-0.03 14.21)"/><path class="cls-34" d="M75.33,20.73a4.59,4.59,0,0,0-.68-2.79,4.3,4.3,0,0,0-1,2.68c-.08,1.17.29,1.52.76,1.55S75.25,21.9,75.33,20.73Z" transform="translate(-0.03 14.21)"/><path class="cls-34" d="M72.71,22a3.87,3.87,0,0,0-2.38.45,3.62,3.62,0,0,0,2.21,1c1,.12,1.29-.17,1.34-.57S73.69,22.1,72.71,22Z" transform="translate(-0.03 14.21)"/><path class="cls-34" d="M72.81,20.2a3.91,3.91,0,0,0-2.09-1.27,3.66,3.66,0,0,0,1,2.23c.66.75,1.09.74,1.39.48S73.47,21,72.81,20.2Z" transform="translate(-0.03 14.21)"/><path class="cls-35" d="M36.26,56.33a2.4,2.4,0,0,0-2.89-1.75,2.33,2.33,0,0,0-1.49,2.57h4.51A2.83,2.83,0,0,0,36.26,56.33Z" transform="translate(-0.03 14.21)"/><path class="cls-35" d="M53.45,56.36a2.4,2.4,0,0,0-2.89-1.75,2.33,2.33,0,0,0-1.49,2.57h4.51A2.82,2.82,0,0,0,53.45,56.36Z" transform="translate(-0.03 14.21)"/><ellipse class="cls-6" cx="34.26" cy="57.49" rx="1.52" ry="2.28" transform="matrix(0.95, -0.3, 0.3, 0.95, -15.61, 27.04)"/><path class="cls-9" d="M68.93,46.49a3.64,3.64,0,0,0-5.12,0l.94,2.89a3.87,3.87,0,0,1,3.19.11Z" transform="translate(-0.03 14.21)"/><g class="cls-36"><polygon class="cls-28" points="52.88 54.71 39.44 54.74 42.01 56.24 53.07 56.31 52.88 54.71"/><rect class="cls-28" x="42.67" y="41.98" width="0.81" height="10.72" transform="translate(-1.34 15.43) rotate(-1.6)"/><rect class="cls-28" x="50.82" y="41.32" width="0.81" height="9.85" transform="translate(-1.27 15.62) rotate(-1.56)"/><polygon class="cls-28" points="43.35 64.91 37.47 64.81 37.03 66.5 43.63 66.41 43.35 64.91"/><rect class="cls-28" x="36" y="46.84" width="10.75" height="0.85" transform="translate(-12.36 94.06) rotate(-80.06)"/></g><circle class="cls-23" cx="66.33" cy="67.38" r="2.09"/><circle class="cls-27" cx="66.33" cy="67.38" r="1.66"/><ellipse class="cls-6" cx="51.32" cy="57.55" rx="1.52" ry="2.28" transform="translate(-14.86 32.13) rotate(-17.35)"/><polygon class="cls-35" points="36.88 66.03 37.77 71.35 38.13 71.31 37.22 66 36.88 66.03"/><polygon class="cls-35" points="48.03 64.79 47.6 71.3 47.97 71.26 48.38 64.75 48.03 64.79"/><rect class="cls-35" x="27.9" y="54.89" width="0.81" height="1.44" transform="matrix(0.99, -0.17, 0.17, 0.99, -8.87, 19.68)"/><polygon class="cls-7" points="31.94 71.03 27.84 70.85 27.68 71.44 28.25 72.1 31.81 72.1 31.94 71.03"/><polygon class="cls-7" points="49.13 71.16 36.25 71.16 36.31 72.19 49.13 71.91 49.13 71.16"/><polygon class="cls-7" points="58.33 70.83 53.39 70.97 53.49 71.86 58.23 72.1 58.61 71.63 58.33 70.83"/><ellipse class="cls-37" cx="51.32" cy="57.55" rx="1.12" ry="1.69" transform="translate(-14.88 32.17) rotate(-17.38)"/><ellipse class="cls-37" cx="34.25" cy="57.55" rx="1.12" ry="1.69" transform="translate(-15.66 27.07) rotate(-17.38)"/><ellipse class="cls-38" cx="51.32" cy="57.55" rx="0.88" ry="1.32" transform="translate(-14.95 32.29) rotate(-17.49)"/><ellipse class="cls-39" cx="51.01" cy="57.17" rx="0.68" ry="0.45" transform="translate(-16.21 108.2) rotate(-76.99)"/><ellipse class="cls-38" cx="34.25" cy="57.55" rx="0.85" ry="1.28" transform="translate(-15.7 27.12) rotate(-17.44)"/><ellipse class="cls-35" cx="46.07" cy="52.03" rx="1.04" ry="0.38" transform="translate(-4.01 18.02) rotate(-4.54)"/><ellipse class="cls-7" cx="46.26" cy="52" rx="0.84" ry="0.16" transform="translate(-3.98 18.01) rotate(-4.51)"/><ellipse class="cls-7" cx="46.65" cy="51.99" rx="0.46" ry="0.25" transform="translate(-7.88 22.51) rotate(-9.38)"/><path class="cls-28" d="M56.23,52.65a.39.39,0,0,0-.39-.39h-.63a.42.42,0,0,0-.42.42v.63a.39.39,0,0,0,.39.39h.53a.52.52,0,0,0,.52-.52Z" transform="translate(-0.03 14.21)"/><polygon class="cls-33" points="28.25 72.1 31.81 72.1 31.86 71.65 27.72 71.48 28.25 72.1"/><polygon class="cls-33" points="36.31 72.19 49.13 71.91 49.13 71.72 36.29 71.72 36.31 72.19"/><polygon class="cls-33" points="53.49 71.86 58.23 72.1 58.61 71.63 58.59 71.58 53.45 71.52 53.49 71.86"/><ellipse class="cls-39" cx="34.03" cy="57.14" rx="0.68" ry="0.45" transform="translate(-29.33 91.64) rotate(-76.99)"/><path class="cls-40" d="M74.26,22.86s2.58,3.24.89,6.19C75.15,29,77.49,26.14,74.26,22.86Z" transform="translate(-0.03 14.21)"/><path class="cls-40" d="M75.15,28.86s1.64-2.16,3.42-2.35C78.57,26.51,76.79,26.14,75.15,28.86Z" transform="translate(-0.03 14.21)"/><ellipse class="cls-41" cx="32.84" cy="65.29" rx="1.36" ry="0.23"/><ellipse class="cls-42" cx="32.24" cy="64.64" rx="1.13" ry="0.79"/><ellipse class="cls-41" cx="27.61" cy="63.15" rx="1.04" ry="0.18"/><ellipse class="cls-42" cx="27.14" cy="62.65" rx="0.86" ry="0.61"/><ellipse class="cls-41" cx="17.66" cy="62.78" rx="1.04" ry="0.18"/><ellipse class="cls-42" cx="17.2" cy="62.28" rx="0.86" ry="0.61"/><ellipse class="cls-41" cx="25.08" cy="67.41" rx="2.19" ry="0.37"/><ellipse class="cls-42" cx="24.1" cy="66.37" rx="1.82" ry="1.28"/><ellipse class="cls-41" cx="18.57" cy="71.01" rx="2.77" ry="0.47"/><ellipse class="cls-42" cx="17.98" cy="69.7" rx="2.3" ry="1.62"/><polygon class="cls-18" points="67.75 61.38 66.98 63.21 67.62 63.32 67.75 61.38"/><path class="cls-27" d="M66.36,52.06a1.11,1.11,0,0,0,0,2.21C65.81,53.2,66.84,52.22,66.36,52.06Z" transform="translate(-0.03 14.21)"/><path class="cls-6" d="M62.29,49.94a.31.31,0,0,0-.14,0c-1.31,0-1,2.34-1,3.19s-.11,5.7-2.28,5.7c-1.27,0-3.06-1.39-3.06-4.47,0-.5,0-1,.07-1.49l-.37,0c0,.49-.07,1-.07,1.51,0,3.53,2.1,4.84,3.43,4.84,2.47,0,2.66-4.65,2.66-6.07,0-1-.24-2.82.58-2.82h0Z" transform="translate(-0.03 14.21)"/><circle class="cls-6" cx="55.58" cy="67.13" r="0.4"/><polygon class="cls-7" points="28.38 69.35 27.99 69.41 28.12 70.28 28.5 70.22 28.38 69.35"/><polygon class="cls-43" points="35.94 66.31 36.25 65.28 27.64 68.89 35.94 66.31"/><polygon class="cls-28" points="37.06 65.41 56.11 64.17 56.38 65.08 36.88 66 37.06 65.41"/><polygon class="cls-28" points="37.53 64.82 35.84 65.18 36.36 66.52 37.73 65.89 37.53 64.82"/><polygon class="cls-43" points="37.17 65.08 36.12 65.34 36.47 66.19 37.53 65.67 37.17 65.08"/><polygon class="cls-29" points="49.54 54.99 48.37 54.99 48.52 68.41 49.32 68.35 49.54 54.99"/><polygon class="cls-29" points="40.43 54.59 39.52 54.6 39.16 65.91 40.07 65.88 40.43 54.59"/><polygon class="cls-27" points="40.5 55.12 40.47 54.59 39.52 54.6 39.16 65.91 39.55 65.91 40.07 55.21 40.5 55.12"/><polygon class="cls-27" points="49.04 54.99 48.37 54.99 48.46 66.69 48.91 66.64 49.04 54.99"/><path class="cls-5" d="M99.68,69.45l-84-.37-3.74,0C-4.32,91.12,102.68,89.35,99.68,69.45Z" transform="translate(-0.03 14.21)"/><circle class="cls-6" cx="68.32" cy="87.43" r="0.98"/><circle class="cls-6" cx="84.28" cy="86.51" r="0.98"/><circle class="cls-6" cx="59.5" cy="84.06" r="0.98"/><circle class="cls-6" cx="74.43" cy="88.75" r="0.98"/><circle class="cls-6" cx="30.88" cy="86.41" r="0.98"/><circle class="cls-6" cx="37.04" cy="85.33" r="0.61"/><circle class="cls-6" cx="61.84" cy="87.18" r="0.61"/><circle class="cls-27" cx="62.63" cy="80.59" r="0.61"/><circle class="cls-27" cx="40.21" cy="87.31" r="0.61"/><circle class="cls-27" cx="30.58" cy="81.11" r="0.61"/><circle class="cls-27" cx="79.7" cy="86.52" r="0.61"/><circle class="cls-27" cx="86.69" cy="79" r="0.61"/><circle class="cls-27" cx="92.58" cy="82.22" r="0.61"/><circle class="cls-6" cx="20.42" cy="85.2" r="0.98"/><circle class="cls-6" cx="44.44" cy="84.77" r="1.68"/><circle class="cls-6" cx="26.89" cy="83.05" r="1.68"/><circle class="cls-6" cx="90.99" cy="87.58" r="1.68"/><circle class="cls-6" cx="61.4" cy="93.52" r="0.98"/><circle class="cls-6" cx="47.05" cy="95.39" r="0.98"/><circle class="cls-27" cx="72.78" cy="92.61" r="0.61"/><circle class="cls-6" cx="50.05" cy="88.16" r="1.68"/><circle class="cls-6" cx="23.1" cy="87.7" r="1.68"/><circle class="cls-6" cx="84.08" cy="93.66" r="1.68"/><circle class="cls-6" cx="75.11" cy="83.55" r="1.68"/><circle class="cls-5" cx="67.89" cy="80.35" r="0.98"/><circle class="cls-5" cx="90.71" cy="80.62" r="0.98"/><circle class="cls-5" cx="56.54" cy="79.41" r="0.98"/><circle class="cls-5" cx="23.85" cy="80.32" r="0.98"/><circle class="cls-5" cx="36.1" cy="79.69" r="0.98"/><circle class="cls-5" cx="47.82" cy="80.63" r="2.16"/><circle class="cls-5" cx="79.15" cy="79.41" r="2.16"/><rect class="cls-33" x="11.39" y="76.31" width="88.7" height="0.72"/><rect class="cls-6" x="74.65" y="72.5" width="2.31" height="1.44"/><path class="cls-44" d="M40,22.25H38l-.38,1.42H40l-.21.77h-3.4l1.33-5h3.4l-.21.77h-2.4l-.33,1.25h2.06Z" transform="translate(-0.03 14.21)"/><path class="cls-44" d="M44.63,22.74v0A2.21,2.21,0,0,1,43.8,24a2.47,2.47,0,0,1-1.52.47,1.48,1.48,0,0,1-1.3-.58,1.71,1.71,0,0,1-.16-1.49l.26-1A2.82,2.82,0,0,1,42,20a2.41,2.41,0,0,1,1.58-.58,1.62,1.62,0,0,1,1.31.47,1.35,1.35,0,0,1,.16,1.29v0h-1a1,1,0,0,0,0-.75.73.73,0,0,0-.66-.26,1.11,1.11,0,0,0-.81.36,2,2,0,0,0-.51.93l-.26,1a1.32,1.32,0,0,0,0,.93.66.66,0,0,0,.65.36,1.12,1.12,0,0,0,.76-.25,1.45,1.45,0,0,0,.42-.75Z" transform="translate(-0.03 14.21)"/><path class="cls-44" d="M49.43,22.4a2.84,2.84,0,0,1-1,1.51,2.57,2.57,0,0,1-1.66.6,1.51,1.51,0,0,1-1.33-.6,1.76,1.76,0,0,1-.17-1.51l.24-.89a2.86,2.86,0,0,1,1-1.51,2.54,2.54,0,0,1,1.65-.6,1.53,1.53,0,0,1,1.35.6,1.74,1.74,0,0,1,.18,1.51Zm-.76-.9a1.32,1.32,0,0,0,0-1,.71.71,0,0,0-.7-.37,1.23,1.23,0,0,0-.89.37,2,2,0,0,0-.53,1l-.24.9a1.37,1.37,0,0,0,0,1,.7.7,0,0,0,.69.37,1.25,1.25,0,0,0,.9-.37,2,2,0,0,0,.54-1Z" transform="translate(-0.03 14.21)"/><path class="cls-44" d="M55,22.37H53l-.55,2.07h-1l1.33-5h3.43l-.21.77H53.53l-.37,1.37h2.08Z" transform="translate(-0.03 14.21)"/><path class="cls-44" d="M60.7,19.46l-.88,3.3a2.17,2.17,0,0,1-.9,1.29,2.74,2.74,0,0,1-1.57.45A1.73,1.73,0,0,1,56,24.05a1.29,1.29,0,0,1-.2-1.29l.88-3.3h1l-.88,3.29a.68.68,0,0,0,.72,1,1.31,1.31,0,0,0,.8-.24,1.28,1.28,0,0,0,.46-.74l.88-3.29Z" transform="translate(-0.03 14.21)"/><path class="cls-44" d="M63.89,22.25H61.83l-.38,1.42h2.41l-.21.77h-3.4l1.33-5H65l-.21.77h-2.4L62,21.48h2.06Z" transform="translate(-0.03 14.21)"/><path class="cls-44" d="M65.46,23.67h2.21l-.21.77H64.26l1.33-5h1Z" transform="translate(-0.03 14.21)"/><path class="cls-16" d="M93.93,49.95a16.38,16.38,0,0,0-2.27-8.63c-1.26,1.65-2.27,4.94-2.27,8.63s1,4.73,2.27,4.73S93.93,53.63,93.93,49.95Z" transform="translate(-0.03 14.21)"/><rect class="cls-16" x="91.08" y="67.99" width="1.03" height="3.51"/><path class="cls-16" d="M21,44.44A8.41,8.41,0,0,0,19.82,40a7.85,7.85,0,0,0-1.17,4.43c0,1.89.52,2.43,1.17,2.43S21,46.33,21,44.44Z" transform="translate(-0.03 14.21)"/><rect class="cls-16" x="19.51" y="60.62" width="0.53" height="1.8"/><path class="cls-16" d="M34.85,41.52a10.64,10.64,0,0,0-1.48-5.6,9.93,9.93,0,0,0-1.48,5.6c0,2.39.66,3.07,1.48,3.07S34.85,43.92,34.85,41.52Z" transform="translate(-0.03 14.21)"/><rect class="cls-16" x="14.49" y="59.81" width="0.67" height="2.28"/></g><path class="cls-6" d="M113.36,85.46" transform="translate(-0.03 14.21)"/><polygon class="cls-6" points="94.56 83.62 94.56 84.19 94.75 84.16 94.56 83.62"/><polygon class="cls-6" points="15.4 77.4 15.4 77.61 15.4 77.68 14.67 77.62 15.39 77.4 15.4 77.4"/><polygon class="cls-16" points="94.52 70.84 98.19 71.63 98.19 88.43 98.19 73.8 94.44 73.86 92.17 73.46 94.52 70.84"/><polygon class="cls-9" points="98.15 56.02 98.17 57.59 94.61 58.61 94.26 58.29 94.35 56.95 94.51 56.25 98.15 56.02"/><polygon class="cls-8" points="94.48 58.42 98.17 57.59 98.17 71.63 98.17 71.82 94.27 70.84 94.25 60.13 94.48 58.42"/></g></g></svg>