<svg width="170" height="215" viewBox="0 0 170 215" fill="none" xmlns="http://www.w3.org/2000/svg">
<path fill-rule="evenodd" clip-rule="evenodd" d="M140.933 84.4364C147.889 94.1865 151.665 106.026 151.566 117.965C151.566 129.705 147.79 141.445 140.933 150.996L155.441 162.039C164.682 149.304 169.75 133.784 169.75 118.064C169.85 101.449 164.384 85.1328 154.348 72L146.028 79.5L140.933 84.4364Z" fill="#15EBB7"/>
<path fill-rule="evenodd" clip-rule="evenodd" d="M168.359 171.821L119.569 134.711C123.047 130.134 125.034 124.563 125.332 118.792C125.531 113.022 124.041 107.351 120.96 102.476L144.312 81.3836L168.757 58.5007C170.347 57.0083 170.446 54.4216 168.856 52.8297L165.478 49.447C148.088 31.8371 124.637 21.5895 99.9932 20.7936L100.093 7.36233C100.192 6.46691 100.093 5.5715 99.8938 4.67608C99.5957 3.78066 99.1982 2.98473 98.602 2.28829C98.0058 1.59185 97.3102 1.0944 96.4159 0.696438C95.6209 0.298474 94.7266 0.0994895 93.8323 0.0994895C92.938 0.0994895 92.0436 0.298474 91.2487 0.696438C90.4537 1.0944 89.6588 1.59185 89.0626 2.28829C88.4663 2.98473 87.9695 3.78066 87.7708 4.57658C87.4726 5.472 87.3733 6.36742 87.572 7.26284L87.4726 21.0921C81.6099 21.689 75.7471 22.7834 70.083 24.4748L70.1824 7.26284C70.2818 6.36742 70.1824 5.472 69.9837 4.57658C69.6855 3.68116 69.2881 2.88524 68.6918 2.1888C68.0956 1.49237 67.4001 0.994908 66.5057 0.596944C65.7108 0.19898 64.8165 0 63.9221 0C63.0278 0 62.1335 0.19898 61.3385 0.596944C60.5436 0.994908 59.7486 1.49237 59.1524 2.1888C58.5562 2.88524 58.0593 3.68117 57.8606 4.47709C57.5625 5.37251 57.4631 6.26793 57.6619 7.16335L57.3638 29.1509C37.2912 38.105 20.7959 53.7251 10.7596 73.3248C0.723263 92.9246 -2.45655 115.41 1.9157 136.999C6.28794 158.589 17.9142 178.089 34.8069 192.217C51.6997 206.344 72.9647 214.304 94.9253 214.702L165.974 215C168.161 215 169.949 213.209 169.949 211.02V175.104C169.949 173.811 169.353 172.617 168.359 171.821ZM96.3165 197.39C78.8275 197.291 61.8354 191.421 48.023 180.775C34.2107 170.03 24.2738 155.007 19.8022 138.093C15.3306 121.18 16.6224 103.172 23.2801 87.0546C30.0372 70.9371 41.8621 57.4063 57.0656 48.6511L56.9663 74.8172C56.8669 75.7126 56.9663 76.608 57.165 77.5035C57.4631 78.3989 57.8606 79.1948 58.4568 79.8913C59.053 80.5877 59.7486 81.0851 60.6429 81.4831C61.4379 81.8811 62.3322 82.0801 63.2265 82.0801C64.1209 82.0801 65.0152 81.8811 65.8101 81.4831C66.6051 81.0851 67.4001 80.5877 67.9963 79.8913C68.5925 79.1948 69.0893 78.3989 69.2881 77.603C69.5862 76.7075 69.6855 75.8121 69.4868 74.9167L69.5862 42.7811C78.3307 39.5974 87.572 38.105 96.9127 38.105C114.104 38.105 130.798 43.776 144.411 54.1231C145.405 54.919 145.504 56.3119 144.61 57.2073L107.446 91.3327C104.067 89.9398 100.391 89.1439 96.714 89.1439C92.6399 89.1439 88.5657 89.9398 84.7897 91.6312C81.0136 93.3225 77.7345 95.8098 75.0515 98.894C72.3685 101.978 70.3811 105.659 69.1887 109.54C67.9963 113.519 67.6982 117.598 68.2944 121.677C68.8906 125.757 70.2818 129.637 72.4679 133.119C74.654 136.601 77.6351 139.486 81.0136 141.775C84.4916 143.963 88.367 145.456 92.4411 146.053C96.5153 146.65 100.689 146.351 104.564 145.157L152.063 181.273C152.56 181.671 152.858 182.267 152.858 182.864L152.758 195.599C152.758 196.694 151.864 197.589 150.771 197.589L96.3165 197.39ZM107.943 117.797C107.943 119.986 107.247 122.175 106.055 124.065C104.763 125.956 103.074 127.348 100.987 128.244C98.9001 129.139 96.6146 129.338 94.5279 128.841C92.4411 128.343 90.3544 127.348 88.7645 125.757C87.1745 124.165 86.0815 122.175 85.684 119.986C85.2865 117.797 85.4853 115.509 86.3796 113.519C87.2739 111.43 88.6651 109.739 90.5531 108.445C92.4411 107.251 94.6272 106.555 96.8134 106.555C99.7944 106.555 102.676 107.749 104.763 109.938C106.75 111.927 107.943 114.713 107.943 117.797Z" fill="#0E0333"/>
</svg>
