<svg id="Layer_1" data-name="Layer 1" xmlns="http://www.w3.org/2000/svg" xmlns:xlink="http://www.w3.org/1999/xlink" viewBox="0 0 100 115.47"><defs><style>.cls-1{fill:url(#linear-gradient);}.cls-2{fill:#373f4a;}.cls-12,.cls-13,.cls-3{fill:#fff;}.cls-4{fill:#728ba8;}.cls-5{fill:#9cf;}.cls-6{fill:#c4c2bd;}.cls-7{fill:#424c58;}.cls-8{fill:#dbd8d3;}.cls-9{fill:#fbffff;}.cls-10{font-size:4px;fill:#036;font-family:Antonio-Bold, Antonio;font-weight:700;}.cls-11{opacity:0.13;isolation:isolate;}.cls-12{opacity:0.65;}.cls-13{opacity:0.39;}.cls-14{fill:#ff6;opacity:0.71;}.cls-15{fill:#fc3;opacity:0.67;}</style><linearGradient id="linear-gradient" y1="57.74" x2="100" y2="57.74" gradientUnits="userSpaceOnUse"><stop offset="0" stop-color="#f06"/><stop offset="0.5" stop-color="#06f"/><stop offset="1" stop-color="#3c6"/></linearGradient></defs><title>freeU</title><polygon class="cls-1" points="100 28.87 100 86.6 50 115.47 10 92.38 9.82 92.27 0 86.6 0 28.87 50 0 100 28.87"/><path class="cls-2" d="M62.28,103.81l1.41-.81.06.11a2.7,2.7,0,0,1,.3.73,1.69,1.69,0,0,1,0,.69,1.79,1.79,0,0,1-.9,1.23,1.92,1.92,0,0,1-1.53.19,2.05,2.05,0,0,1-.47-3.77,2,2,0,0,1,.84-.27,2.48,2.48,0,0,1,1,.15l-.19.6a1.44,1.44,0,0,0-1.35,0,1.4,1.4,0,0,0-.69.9,1.44,1.44,0,0,0,.16,1.1,1.39,1.39,0,0,0,1,.7,1.41,1.41,0,0,0,1-.14,1.18,1.18,0,0,0,.53-.65,1.06,1.06,0,0,0,0-.81l-.85.49Z"/><rect class="cls-2" x="65.52" y="99.9" width="0.6" height="3.94" transform="translate(-42.07 46.46) rotate(-29.95)"/><polygon class="cls-2" points="68.31 98.8 70 101.74 69.48 102.03 67.8 99.1 67.01 99.55 66.73 99.07 68.81 97.87 69.09 98.35 68.31 98.8"/><path class="cls-2" d="M73,95.72l.35.61a1.65,1.65,0,0,0-1.14.16,1.37,1.37,0,0,0-.67.89,1.48,1.48,0,0,0,.17,1.13,1.45,1.45,0,0,0,.89.7,1.39,1.39,0,0,0,1.1-.14,1.25,1.25,0,0,0,.41-.36,1.52,1.52,0,0,0,.15-.25,3.41,3.41,0,0,0,.14-.32l.36.62a2.14,2.14,0,0,1-.79.79,2,2,0,1,1-1-3.82"/><path class="cls-3" d="M75.47,95.57A1.93,1.93,0,0,1,75.28,94a2,2,0,0,1,1-1.25,2.06,2.06,0,0,1,2.8.75,1.94,1.94,0,0,1,.19,1.55,2.09,2.09,0,0,1-2.43,1.48,1.94,1.94,0,0,1-1.35-1m.52-.29A1.46,1.46,0,0,0,78.7,95a1.53,1.53,0,0,0-1-1.83,1.38,1.38,0,0,0-1.11.15,1.4,1.4,0,0,0-.69.89,1.42,1.42,0,0,0,.1,1.11"/><rect class="cls-2" x="80.84" y="91.08" width="0.6" height="3.94" transform="translate(-35.63 52.98) rotate(-29.97)"/><polygon class="cls-2" points="84.38 93.46 82.28 89.81 86.27 90.99 84.91 88.61 85.42 88.31 87.51 91.94 83.52 90.77 84.89 93.17 84.38 93.46"/><polygon class="cls-4" points="9.14 81.98 50.38 105.7 50.52 105.8 91.96 81.89 91.96 81.58 87.67 81.5 63.73 81.52 42.71 81.38 15.02 81.38 9.46 81.35 9.01 81.58 9.01 81.98 9.14 81.98"/><polygon class="cls-5" points="50.42 11.93 10.61 34.9 10.69 52.31 20.69 55.31 78.45 54.62 90.13 52.38 90.26 52.35 90.25 34.86 50.42 11.93"/><rect class="cls-6" x="9.01" y="56.91" width="29.88" height="20.83"/><rect class="cls-4" x="9.01" y="77.74" width="29.88" height="3.85"/><path class="cls-7" d="M22.18,66.39H18V60.84a2.09,2.09,0,0,1,2.09-2.09h0a2.09,2.09,0,0,1,2.09,2.09Z"/><path class="cls-7" d="M15.62,66.39H11.44V60.84a2.09,2.09,0,0,1,2.09-2.09h0a2.09,2.09,0,0,1,2.09,2.09Z"/><path class="cls-7" d="M24.57,66.39h4.18V60.84a2.09,2.09,0,0,0-2.09-2.09h0a2.09,2.09,0,0,0-2.09,2.09Z"/><path class="cls-7" d="M31.13,66.39h4.18V60.84a2.09,2.09,0,0,0-2.09-2.09h0a2.09,2.09,0,0,0-2.09,2.09Z"/><path class="cls-7" d="M22.18,76.31H18V70.76a2.09,2.09,0,0,1,2.09-2.09h0a2.09,2.09,0,0,1,2.09,2.09Z"/><path class="cls-7" d="M15.62,76.31H11.44V70.76a2.09,2.09,0,0,1,2.09-2.09h0a2.09,2.09,0,0,1,2.09,2.09Z"/><path class="cls-7" d="M24.57,76.31h4.18V70.76a2.09,2.09,0,0,0-2.09-2.09h0a2.09,2.09,0,0,0-2.09,2.09Z"/><path class="cls-7" d="M31.13,76.31h4.18V70.76a2.09,2.09,0,0,0-2.09-2.09h0a2.09,2.09,0,0,0-2.09,2.09Z"/><polygon class="cls-2" points="9.85 52.33 37.42 52.33 37.42 56.91 7.71 56.91 9.85 52.33"/><rect class="cls-6" x="62.12" y="56.91" width="29.88" height="20.83" transform="translate(154.12 134.65) rotate(180)"/><rect class="cls-4" x="62.12" y="77.74" width="29.88" height="3.85" transform="translate(154.12 159.32) rotate(180)"/><path class="cls-7" d="M78.83,66.39H83V60.84a2.09,2.09,0,0,0-2.09-2.09h0a2.09,2.09,0,0,0-2.09,2.09Z"/><path class="cls-7" d="M85.39,66.39h4.18V60.84a2.09,2.09,0,0,0-2.09-2.09h0a2.09,2.09,0,0,0-2.09,2.09Z"/><path class="cls-7" d="M76.45,66.39H72.27V60.84a2.09,2.09,0,0,1,2.09-2.09h0a2.09,2.09,0,0,1,2.09,2.09Z"/><path class="cls-7" d="M69.88,66.39H65.71V60.84a2.09,2.09,0,0,1,2.09-2.09h0a2.09,2.09,0,0,1,2.09,2.09Z"/><path class="cls-7" d="M78.83,76.31H83V70.76a2.09,2.09,0,0,0-2.09-2.09h0a2.09,2.09,0,0,0-2.09,2.09Z"/><path class="cls-7" d="M85.39,76.31h4.18V70.76a2.09,2.09,0,0,0-2.09-2.09h0a2.09,2.09,0,0,0-2.09,2.09Z"/><path class="cls-7" d="M76.45,76.31H72.27V70.76a2.09,2.09,0,0,1,2.09-2.09h0a2.09,2.09,0,0,1,2.09,2.09Z"/><path class="cls-7" d="M69.88,76.31H65.71V70.76a2.09,2.09,0,0,1,2.09-2.09h0a2.09,2.09,0,0,1,2.09,2.09Z"/><polygon class="cls-2" points="91.16 52.33 63.59 52.33 63.59 56.91 93.31 56.91 91.16 52.33"/><polygon class="cls-7" points="65.13 49.36 65.13 48.88 50.51 36.45 35.88 48.88 35.88 49.36 65.13 49.36"/><polygon class="cls-8" points="63.59 48.93 50.51 37.81 37.42 48.93 37.42 65.85 63.59 65.85 63.59 48.93"/><rect class="cls-8" x="39.66" y="67.31" width="21.7" height="14.27"/><path class="cls-7" d="M50.51,69.76h0a5.05,5.05,0,0,0-5.05,5.05v6.77h10.1V74.82A5.05,5.05,0,0,0,50.51,69.76Z"/><rect class="cls-7" x="37.42" y="78.4" width="4.47" height="3.18"/><rect class="cls-4" x="37.92" y="68.17" width="3.48" height="10.23"/><rect class="cls-7" x="59.12" y="78.4" width="4.47" height="3.18" transform="translate(122.71 159.99) rotate(180)"/><polygon class="cls-4" points="50.51 65.85 47.11 65.85 36.84 65.85 36.84 67.31 50.51 67.31 50.51 67.31 50.51 67.31 64.17 67.31 64.17 65.85 50.51 65.85"/><rect class="cls-4" x="59.62" y="68.17" width="3.48" height="10.23" transform="translate(122.71 146.58) rotate(180)"/><rect class="cls-7" x="39.39" y="68.67" width="0.53" height="9.24"/><rect class="cls-7" x="38.36" y="68.67" width="0.53" height="9.24"/><rect class="cls-7" x="40.42" y="68.67" width="0.53" height="9.24" transform="translate(81.36 146.58) rotate(180)"/><rect class="cls-7" x="61.09" y="68.67" width="0.53" height="9.24"/><rect class="cls-7" x="60.06" y="68.67" width="0.53" height="9.24"/><rect class="cls-7" x="62.12" y="68.67" width="0.53" height="9.24" transform="translate(124.76 146.58) rotate(180)"/><rect class="cls-9" x="38.15" y="59.28" width="24.72" height="6.57"/><path class="cls-7" d="M62,60.1V65H39V60.1H62m.82-.82H38.15v6.57H62.86V59.28Z"/><text class="cls-10" transform="translate(42.55 63.82) scale(0.96 1)">UNIVERSITY</text><path class="cls-7" d="M49.72,58H45.55V52.44a2.09,2.09,0,0,1,2.09-2.09h0a2.09,2.09,0,0,1,2.09,2.09Z"/><path class="cls-7" d="M44,58H39.8V52.44a2.09,2.09,0,0,1,2.09-2.09h0A2.09,2.09,0,0,1,44,52.44Z"/><path class="cls-7" d="M51.29,58h4.18V52.44a2.09,2.09,0,0,0-2.09-2.09h0a2.09,2.09,0,0,0-2.09,2.09Z"/><path class="cls-7" d="M57,50.35h4.18a0,0,0,0,1,0,0v5.6a2,2,0,0,1-2,2h-.09a2,2,0,0,1-2-2v-5.6A0,0,0,0,1,57,50.35Z" transform="translate(118.24 108.34) rotate(180)"/><ellipse class="cls-4" cx="50.51" cy="45.54" rx="2.79" ry="2.9"/><ellipse class="cls-9" cx="50.51" cy="45.54" rx="2.33" ry="2.42"/><path class="cls-4" d="M50.51,45.81a.27.27,0,0,1-.27-.27v-2a.27.27,0,1,1,.55,0v2A.27.27,0,0,1,50.51,45.81Z"/><path class="cls-4" d="M49.78,46.57a.27.27,0,0,1-.2-.46l.73-.76a.27.27,0,0,1,.39.38l-.73.76A.27.27,0,0,1,49.78,46.57Z"/><rect class="cls-7" x="37.42" y="67.31" width="4.47" height="0.95"/><rect class="cls-7" x="59.12" y="67.31" width="4.47" height="0.95" transform="translate(122.71 135.58) rotate(180)"/><g id="Layer_2-2" data-name="Layer 2-2"><g id="Layer_16" data-name="Layer 16"><path class="cls-11" d="M87.33,31.26,86.84,31l-.64-.33-.7-.41-.1-.05-.4-.3-.49-.24-.81-.47-6.54-3.8-1.54-.88L75,24.13l-.41-.23-.47-.24h0l-.38-.23-.37-.22L68.52,20.4,50.93,10.27,50.44,10l-.44.24L34.58,19.15l-4.52,2.61-1.16.67-.49.28h-.09l-.22.14-.38.23-.27.15-.24.14-.21.14-1.35.79h0L24,25.22h0l-.52.31-.69.39h0l-2.95,1.74h0l-2.15,1.23-.9.53L14.14,31l-3.82,2.2L8.93,34v47.9H9l1.55.9.67.39.13.07,3.9,2.25.62.35.49.28,1.7,1,1.43.83.41.23,1.17.67,3,1.82L29,93.43l.62.36h.06l.13.07.1.06.16.09h0l1.72,1,.79.45,1.2.7.8.46.16.09.28.16.17.1.43.25,3.22,1.84h.08l.4.23.56.33.65.38h0l.49.27,1.36.78,2.86,1.66,4,2.33.93.54.21.12h0l.17-.1.13-.07h0l.28-.16,1.64-.93h.08l.62-.36.45-.26.22-.13,3.47-2,2.21-1.27.67-.39.6-.34.6-.35.4-.23,2.1-1.2.35-.19h0l.33-.06.19-.11.57-.32.72-.41,1.14-.66.41-.24h0l.42-.24h0l.23-.13.49-.28.33-.19.32-.19.5-.28.19-.12.29-.16.39-.22h0L71,94l.22-.12,3.41-2,.36-.26,1-.58,2.68-1.54,1.41-.81,2.75-1.59,1.71-1,3.23-1.87h.05l2.39-1.38.81-.47.93-.53V34Zm3,49.65-.47.27-.29.16-.57.32-6.85,4-1,.56-1.71,1L78,88l-2.84,1.64L74,90.32l-.65.37-2.64,1.52h-.06l-.14.08-.16.1-.51.29-.8.46-.19.12h0l-.85.5h-.08l-3.53,2h-.07l-.71.41h-.07l-.82.48-1.94,1.12-1.39.79-1.52.87-1,.57-2.68,1.55-1.11.64H53l-.67.4-.25.14-1.69,1-3.11-1.79-1.11-.64-.54-.31L44,100.2l-.65-.37-.62-.36L38,96.73l-.7-.41h0l-1.62-.93-1.86-1.07L33,93.84l-.52-.31-.23-.13-.39-.23-.19-.11-1.58-.91L29.81,92l-.17-.1-1.35-.78L25.2,89.33l-3.53-2-.27-.15-1.32-.76-.39-.23L17,84.6,12.58,82l-.81-.46-.35-.21-.21-.12-.6-.35v-46l3.51-2,2.69-1.55.84-.49h.06l2.89-1.67h0l1.23-.71h0l1.61-.93,1.13-.65.43-.24h0l.69-.4L26.1,26h0l2.69-1.55h0l.7-.41.32-.18.19-.15.26-.15.15-.09.24-.13h0l7.25-4.19,12.1-7,.42-.24.49.28L66.11,21l6.3,3.64h0l.29.16.1.05.4.23.32.18,1.11.64,1.75,1,6.33,3.64,1.27.73.5.29h0l.69.4.17.1.49.28.49.28,3.93,2.27v46Z"/></g></g><path class="cls-3" d="M33.91,42.58a1.54,1.54,0,0,0-1.09.46,2.39,2.39,0,0,0-3.88-1.62,2.65,2.65,0,0,0-2.11-1.05h-.07a1.54,1.54,0,0,0-2.67-1,4.45,4.45,0,0,0-8,1.82,2.39,2.39,0,1,0-1.16,4.48h19a1.54,1.54,0,1,0,0-3.09Z"/><path class="cls-3" d="M48.51,26.93a1,1,0,0,0-.7.29,1.52,1.52,0,0,0-2.46-1A1.68,1.68,0,0,0,44,25.52h0a1,1,0,0,0-1.7-.64A2.83,2.83,0,0,0,37.18,26a1.52,1.52,0,1,0-.74,2.85H48.51a1,1,0,0,0,0-2Z"/><path class="cls-3" d="M85.7,40.33a1.54,1.54,0,0,0-1.09.46,2.39,2.39,0,0,0-3.88-1.62,2.65,2.65,0,0,0-2.11-1.05h-.07a1.54,1.54,0,0,0-2.67-1,4.45,4.45,0,0,0-8,1.82,2.39,2.39,0,1,0-1.16,4.48h19a1.54,1.54,0,0,0,0-3.09Z"/><path class="cls-12" d="M55.21,32.31a1.26,1.26,0,0,1,.83.33,1.49,1.49,0,0,1,1.53-1.56,1.92,1.92,0,0,1,1.13.38,1.66,1.66,0,0,1,1.43-.76h.05a1,1,0,0,1,1-1.09A1.26,1.26,0,0,1,62,30a2.79,2.79,0,0,1,2.46-1.35A3.76,3.76,0,0,1,68,31.3a1.57,1.57,0,0,1,.81-.22,2,2,0,0,1,1.94,1.73,1.5,1.5,0,0,1-1.52,1.73H55.48a1.3,1.3,0,0,1-1.25-1.12A1,1,0,0,1,55.21,32.31Z"/><path class="cls-13" d="M39.51,34.91a.57.57,0,0,1,.38.15.67.67,0,0,1,.69-.7.87.87,0,0,1,.51.17.75.75,0,0,1,.65-.34h0a.43.43,0,0,1,.44-.49.57.57,0,0,1,.39.16,1.26,1.26,0,0,1,1.11-.61,1.69,1.69,0,0,1,1.58,1.2.71.71,0,0,1,.37-.1.91.91,0,0,1,.88.78.68.68,0,0,1-.68.78H39.63a.59.59,0,0,1-.56-.5A.44.44,0,0,1,39.51,34.91Z"/><ellipse class="cls-14" cx="55.19" cy="24.56" rx="5.31" ry="5.06"/><ellipse class="cls-15" cx="55.31" cy="24.56" rx="3.57" ry="3.44"/></svg>