<svg id="Layer_1" data-name="Layer 1" xmlns="http://www.w3.org/2000/svg" viewBox="0 0 5000 5000"><defs><style>.cls-1,.cls-3,.cls-4,.cls-5{fill:none;stroke-miterlimit:10;stroke-width:7px;}.cls-1,.cls-4{stroke:#02e2ac;}.cls-2{fill:#d44d6e;}.cls-3,.cls-5{stroke:#fc0;}.cls-4,.cls-5{stroke-linecap:round;}</style></defs><path class="cls-1" d="M1737.5,3189.44a315.89,315.89,0,0,0,0,54.16c6.53,75.28,38.46,126.12,46.57,138.46,6.36,9.7,12.2,17.26,16.14,22.13"/><path class="cls-1" d="M1769.38,3200.75a413.08,413.08,0,0,0,12.33,63.36,417.66,417.66,0,0,0,53.43,117.48"/><path class="cls-1" d="M1874.08,3208.19a197.51,197.51,0,0,0,0,55.92c7.36,51,33.19,86.4,47.37,103.09"/><path class="cls-1" d="M1906.2,3200.75a176.61,176.61,0,0,0-1,65.74c8,45.78,32.27,76.26,44.18,89.4"/><path class="cls-1" d="M3851.28,2674.77q72.21,2.58,145.72,6.06,118.38,5.64,233.24,13.36h21.58"/><line class="cls-1" x1="3841.3" y1="2576.03" x2="4234.35" y2="2597.61"/><polyline class="cls-1" points="3849.61 2611.04 4206.61 2630.41 4209.69 2649.21 4234.35 2649.21 4234.35 2669.53 4212.77 2669.53 4210.72 2657.66 3852.63 2641.79"/><path class="cls-2" d="M3674.33,2683.86c-.45-.22-1-.26-1.38-.69-1.67-1.86-3.94-3-5.84-4.58a10.63,10.63,0,0,0-2.85-2.1c-.92-.35-1.35-1.21-2.06-1.77.38-.47.78-.93,1.11-1.43.18-.27.17-.67.36-.91a35.58,35.58,0,0,0,5.55-11.6,42,42,0,0,0,1.8-10.12,49,49,0,0,0-2-17.41,41.18,41.18,0,0,0-3.29-7.78,30,30,0,0,0-4-6.23c-.66-.72-.15-1.07.28-1.55,1.9-2.16,4.32-3.74,6.34-5.76,1.82-1.81,3.55-3.73,5.51-5.37a14.19,14.19,0,0,0,1.43-1.62c.94-1.07-.51-1.19-.84-1.77-1.5-2.66-3.86-4.61-6.11-6.5a60.53,60.53,0,0,0-8.29-6.15,76.88,76.88,0,0,0-8.63-4.62,70.19,70.19,0,0,0-9.18-3.31,86.27,86.27,0,0,0-9.61-2c-2-.3-4-.36-5.93-.56-.17,0-.57.34-.53-.39.12-2.38.16-4.78.06-7.16-.07-1.81.13-3.71-1.6-5.1a4.58,4.58,0,0,0-4.69-.91,4.32,4.32,0,0,0-2.92,4.19c.06,2.86-.08,5.72,0,8.58,0,1-.19,1.06-1.11,1.2a57.74,57.74,0,0,0-9.47,1.89c-1.44.48-.87-.6-.87-.71,0-3.56.05-7.12.07-10.69a4.46,4.46,0,0,0-4.63-4.66c-1.93-.08-4.55,1.93-4.54,4.28,0,4.75.09,9.51.13,14.26a1.28,1.28,0,0,1-.87,1.42,14.75,14.75,0,0,0-3,1.47c-2.21,1.48-4.54,2.78-6.78,4.21a50.48,50.48,0,0,0-6.59,5.13,56.37,56.37,0,0,0-10.61,12.22c-.68,1.12-1.54,2.12-2.18,3.32-1.32,2.47-2.92,4.78-3.87,7.46a54.85,54.85,0,0,0-2.08,5.35,22.29,22.29,0,0,1-1.16,3.66,17.29,17.29,0,0,0-.89,3.48c-.32,1.46-.37,3.17-.76,4.52-.75,2.62-.39,5.22-.73,7.81s.21,5.28.15,7.9a41.38,41.38,0,0,0,.72,6.24c.17,1.38.79,3,1,4.41a40.13,40.13,0,0,0,2,6.83,47.22,47.22,0,0,0,2.16,4.88,64.24,64.24,0,0,0,5.63,9.88c1.13,1.54,2.27,3.08,3.33,4.67s2.89,2.79,4.06,4.54c.76,1.14,2.28,2,3.38,3a17.8,17.8,0,0,0,2.45,2.32c2.23,1.45,4.41,3,6.58,4.5a62.39,62.39,0,0,0,6.29,3.56,39.29,39.29,0,0,0,5.32,2.23,78.92,78.92,0,0,0,10.55,3.08,61.29,61.29,0,0,0,12,1.34c8.49,0,17,0,25.47,0h26.34c.71,0,1,.11,1-1-.05-8.31.15-16.63.09-24.95C3675.71,2686.85,3676.39,2684.9,3674.33,2683.86Zm-15.79-32.18a30,30,0,0,1-4.49,13c-.2.3.2.53-.17.84-.57.48-.9,1.56-1.46,1.67-1,.2-1.82-.9-2.52-1.49-1.36-1.17-2.84-2.18-4.25-3.27-1.56-1.22-3.19-2.36-4.77-3.56-.59-.44-.06-.95.15-1.24a17.48,17.48,0,0,0,2.86-8,18.33,18.33,0,0,0-1.95-11.33,1.37,1.37,0,0,1,.28-2c1.7-1.6,3.23-3.41,5-4.92a54,54,0,0,0,5-4.53,38.31,38.31,0,0,0,2.49,4.21,36,36,0,0,1,3.4,9.39A31.52,31.52,0,0,1,3658.54,2651.68Zm3.28,50c-7,0-14,0-20.93,0-6.64,0-13.27.05-19.91,0a46.55,46.55,0,0,1-10.07-1.53,47.89,47.89,0,0,1-12.87-5,51.69,51.69,0,0,1-6.56-4.34,62,62,0,0,1-7.06-6.07,46.58,46.58,0,0,1-3.4-4,40,40,0,0,1-4.08-5.87c-1.31-2.66-2.88-5.19-3.78-8.09a41.48,41.48,0,0,0-1.59-4.35c-.42-.95-.29-2.25-.69-3.28-.7-1.81-.63-3.74-1.14-5.59-.46-1.66-.08-3.58-.12-5.39a44.9,44.9,0,0,1,.15-7.43c.15-1.1.36-2.26.61-3.38.54-2.41.78-4.93,1.72-7.17.67-1.62,1.21-3.32,2.05-4.91.67-1.26,1.1-2.72,1.84-4,1-1.74,2-3.48,3.05-5.19a4.94,4.94,0,0,1,.76-.94c1.35-1.17,2.14-2.77,3.32-4.08a92,92,0,0,1,6.64-6.47,38.29,38.29,0,0,1,5.68-3.94c.64-.4,1.24-.48,1.21.82q-.2,8-.08,15.92a4.28,4.28,0,0,0,4.49,4.27,4.4,4.4,0,0,0,4.66-4.62c0-6.72-.1-13.44-.11-20.16a1.66,1.66,0,0,1,1.33-1.61,54.34,54.34,0,0,1,13.3-2.62,55,55,0,0,1,15.67,1.18,55.65,55.65,0,0,1,15.1,5.68,18.16,18.16,0,0,1,4.31,3c.07.07.13.18.21.2,1.07.15,1.55,1.18,2.4,1.64a8.41,8.41,0,0,1-2.47,2.63c-2.34,1.72-4.21,3.94-6.39,5.83-3.86,3.35-7.38,7.05-11.13,10.51-1.87,1.72-3.84,3.33-5.62,5.15-.88.89-1.75,0-2.36-.19a18.83,18.83,0,0,0-6-.81,18.33,18.33,0,0,0-9.86,2.85,19.92,19.92,0,0,0-8.16,10.17c-2.07,5.58-1.37,11,1.13,16.06a17,17,0,0,0,4.75,5.76,22.15,22.15,0,0,0,5,3.06,17.34,17.34,0,0,0,11.19,1.1,3.13,3.13,0,0,1,2.76.46c1.93,1.34,3.58,3.05,5.69,4.19,1.21.66,2.09,2,3.37,2.67,2.15,1.2,3.75,3.13,5.94,4.34,1.28.71,2.31,2,3.59,2.84,2.21,1.47,4.08,3.38,6.39,4.72a20,20,0,0,1,2.37,1.84,45.35,45.35,0,0,0,4.77,3.51c.43.25.27.7.27,1.07,0,2.73,0,5.47,0,8.2C3663.27,2701.39,3662.9,2701.71,3661.82,2701.7Zm-29.66-54.23a7.75,7.75,0,0,1-7.71,7.55c-4.08,0-7.84-3.36-7.49-7.71-.35-4,3.54-7.62,7.57-7.51A7.65,7.65,0,0,1,3632.16,2647.47Z"/><path class="cls-2" d="M2730,2541.47a3.36,3.36,0,0,0-.08-.71,4.23,4.23,0,0,0-.24-.68,3.81,3.81,0,0,0-.33-.71c0-.07-.06-.15-.11-.22s-.22-.22-.32-.34a4,4,0,0,0-.54-.55,5.31,5.31,0,0,0-.65-.44,3.22,3.22,0,0,0-.39-.25,2.17,2.17,0,0,0-.24-.07,5,5,0,0,0-.76-.2,4.41,4.41,0,0,0-.7-.11,4.36,4.36,0,0,0-.72,0,4,4,0,0,0-.77.14,2,2,0,0,0-.24,0l-338.7,118.66c-.1,0-.17.1-.27.14a5,5,0,0,0-.82.45,3.47,3.47,0,0,0-.42.34,2,2,0,0,0-.32.26,2.52,2.52,0,0,0-.24.33,2.83,2.83,0,0,0-.32.45,4.07,4.07,0,0,0-.36.76,3.94,3.94,0,0,0-.18.48,4.49,4.49,0,0,0-.13,1c0,.09,0,.17,0,.26a.43.43,0,0,0,0,0,4.46,4.46,0,0,0,.24,1.3l70,204.67,0,.08s0,.06,0,.08a3.75,3.75,0,0,0,.24.44,4.63,4.63,0,0,0,.31.58c.11.15.25.28.37.42a4.91,4.91,0,0,0,.45.46,4.76,4.76,0,0,0,.47.31,4.65,4.65,0,0,0,.56.34,4.43,4.43,0,0,0,.55.18,5.43,5.43,0,0,0,.53.17h.11l.06,0,214,31.36a4.89,4.89,0,0,0,.66.05h0a5.62,5.62,0,0,0,.7-.05,4.75,4.75,0,0,0,1.35-.44h0a4.49,4.49,0,0,0,1.46-1.24c.06-.07.14-.09.19-.16s.12-.25.2-.37a4.23,4.23,0,0,0,.25-.47,4.54,4.54,0,0,0,.28-.86c0-.12.09-.21.11-.33l54.68-354.68a2,2,0,0,0,0-.25A4.07,4.07,0,0,0,2730,2541.47Zm-18.82,10.23-131.13,157.78-177.85-49.54ZM2573.6,2717.29,2458.49,2855.8,2394,2667.27Zm7.13,5.92,82,167.41-197.16-28.89Zm87.74,158-81.25-165.79,131.13-157.78Z"/><path class="cls-2" d="M2330.28,3012.55c0,.15,0,.3,0,.44a3.52,3.52,0,0,0,.18.45,5.1,5.1,0,0,0,.39.89,0,0,0,0,1,0,0,4.42,4.42,0,0,0,.85,1c.09.08.19.13.27.2a4.55,4.55,0,0,0,.87.52c.07,0,.11.08.18.11a1.62,1.62,0,0,1,.19,0,4.73,4.73,0,0,0,1.54.3h0a4.48,4.48,0,0,0,1.19-.16l308.38-82.17a4.63,4.63,0,0,0-.46-9.05l-209.31-33.34-71.07-199.68a4.64,4.64,0,0,0-9,1.2l-24.36,318.21v0A4.92,4.92,0,0,0,2330.28,3012.55Zm17.39-8.9,85.38-102.74,187.87,29.92Zm14.47-287.88L2425.93,2895l-85.38,102.73Z"/><path class="cls-3" d="M2804.59,1461.19l-56.81,64.39a46.46,46.46,0,0,0-11.48,34.82,268.31,268.31,0,0,0,22,85.74c7.5,16.85,41.72,93.71,121.76,127.93,6.24,2.67,38.62,16.12,83.22,18.49,5.41.29,32,1.7,55.49-3.08,19.53-4,56.27-16.16,148-134.09,40-51.42,60.17-77.68,69.35-104.8,21.14-62.41,10.12-117.51,4.63-143.34-14.46-68-48.43-112.39-66.28-135.63-69.22-90.14-158.12-121.19-178.78-127.92-39.07-12.74-130-42.38-221.94,1.54-41.93,20-69.65,48.5-85.8,68.33l-8.22,7.19-52.06-33.91c3.3-8.57,11.25-32.66,2.74-60.62-2.29-7.53-14.06-46.21-50.34-55.49-23.49-6-52,1.66-66.79,21.58a54.1,54.1,0,0,0-9.25,20.55c-.12-6-1.24-21.58-12.33-36a60.57,60.57,0,0,0-56.51-22.61c-26.11,4.07-47.32,26.15-51.38,54.46-17.64,2.83-31.17,15-33.9,29.8-2.17,11.76,3.14,21.41,5.13,24.66-3.29-2.19-16.59-10.5-30.82-6.17-13.18,4-18.91,16.37-24.66,28.77-4.7,10.14-10.22,22-6.17,36,3.17,10.84,10.58,17.56,14.39,20.55a38.39,38.39,0,0,1-3.08,13.35c-4.42,10.16-11.78,14.29-17.47,19.53-9.37,8.6-12.41,18.75-18.49,39a147.77,147.77,0,0,0-6.17,45.21,201,201,0,0,0-18.49,16.44c-16.13,16.2-15.05,20.63-28.77,34.94-16.6,17.29-25.9,18.87-30.83,32.87a44.29,44.29,0,0,0-2,19.53,49.36,49.36,0,0,0-16.44,3.08c-18.84,7-27.69,23.92-31.86,31.85a83.46,83.46,0,0,0-9.24,32.88c-38-14.42-58.82-30.57-70.9-43.15-4.09-4.26-12.64-13.8-25.69-15.41-12.36-1.54-23.4,4.71-30.82,10.27a90.93,90.93,0,0,0-36-7.19c-25.17.23-43.12,11.3-54.45,18.49-47.6,30.2-62.67,81.51-66.79,95.56a187.57,187.57,0,0,0-6.17,29.8,112.64,112.64,0,0,0-42.89-4.11c-36.31,3.6-60.09,24.2-67.82,31.59-20.78,19.88-27.46,41.76-37.76,77.07-8.94,30.65-7.79,39.07-17,92.47-11.92,69.46-18,79-22.35,122.53a568.75,568.75,0,0,0-2.31,83.23l-12.33,3.85q1.53,18.5,3.08,37c-6.83,9.76-13.75,20.46-20.55,32.11a463.66,463.66,0,0,0-26.72,53.43,94,94,0,0,0-26.71,9.25,96.8,96.8,0,0,0-37,34.93l-182.9-444.91L1207.34,1828l-25.69,789.12"/><path class="cls-1" d="M2710.57,1205.35c30.95-21.45,60.28-41.78,100.18-40.08,45.28,1.93,85.65,31.44,106.35,67.82a134.14,134.14,0,0,1,17,57"/><path class="cls-1" d="M2829.25,1441.16q49.3-60.89,98.64-121.76a300.24,300.24,0,0,1,47.77-9.25c25.55-2.82,70.12-4.42,120.22,10.79,71.54,21.71,116.37,66.16,135.63,87.85l11.76,10.9"/><path class="cls-4" d="M2775.3,1547.5l150.42-178.16a42.27,42.27,0,0,1,21.64-13.72,254,254,0,0,1,39.09-6.94c68.8-6.67,122.34,17,152.59,30.83a368,368,0,0,1,98.89,66.6c.85.8,1.68,1.64,2.47,2.5l8.17,8.9"/><path class="cls-1" d="M2844.66,1337.89c.27,70.39-95.82,177.93-156.7,175.7-47.45-1.73-91.44-45.2-74.49-149.5,9.83-60.49,72.8-138.19,134.09-138.19S2844.33,1253.64,2844.66,1337.89Z"/><path class="cls-1" d="M2798.14,1369.76c-42.63,63.58-60.43,77.75-92.19,87.75-39.4,12.41-90.21-3.63-75.75-92.58,8.39-51.6,62.09-117.87,114.37-117.87S2838.17,1310.08,2798.14,1369.76Z"/><path class="cls-1" d="M2774.92,1368c-33.58,50.07-47.6,61.24-72.61,69.11-31,9.77-71-2.86-59.66-72.92,6.61-40.63,48.9-92.83,90.07-92.83S2806.44,1321,2774.92,1368Z"/><path class="cls-1" d="M2743.81,1351c-5.08,29.72-28.59,44-40.21,50.51-18.92,10.59-47.24,7-47.57-36.53-.19-25.26,21.89-61.87,49.08-66.94S2750.13,1314,2743.81,1351Z"/><path class="cls-3" d="M2366.45,1314.81c-5.07,29.72-28.58,44-40.21,50.52-18.91,10.58-47.23,7-47.56-36.54-.2-25.26,21.89-61.87,49.08-66.93S2372.77,1277.79,2366.45,1314.81Z"/><path class="cls-3" d="M2342,1250.69c39.49-7.35,64.51,18.41,54,65.21-8.41,37.57-42.93,56.41-60,65a64.43,64.43,0,0,1-24.23,6.85"/><path class="cls-1" d="M3028.07,1227.64c-9.82-2.17-19.68,1.24-24.66,8.53-6.86,10-2,23.79,6.16,30.83,10.86,9.38,25.35,4.9,26.2,4.62"/><path class="cls-1" d="M3111.29,1250c.58,4.21,1.51,10.09,3.09,17,3,13.12,4.55,19.75,9.24,23.11,1.64,1.18,7.27,4.66,18.5,1.55"/><line class="cls-1" x1="2934.05" y1="1333.27" x2="2981.83" y2="1333.27"/><line class="cls-1" x1="3000.15" y1="1333.27" x2="3036.26" y2="1333.27"/><path class="cls-4" d="M3057.35,1333.27c35.3,5.19,76.69,17.38,115.59,44.7q6.45,4.52,12.33,9.24"/><path class="cls-1" d="M2965.85,1378.17a52.35,52.35,0,0,1,13.7-1.72,425.39,425.39,0,0,1,114.79,16.93c41.35,12.08,84.82,25.41,115.59,64.73,8.43,10.76,22.93,29.81,23.12,55.49.21,27-15.55,47.27-24.66,58.56-48.32,59.92-138.76,152.27-171.53,185.35a52.85,52.85,0,0,1-32.27,15.5,131.59,131.59,0,0,1-30.47-.49c-35.64-4.78-59.46-23.3-101.72-57-31.54-25.17-47.31-37.75-60.11-57a176.44,176.44,0,0,1-26.63-68.33,53.08,53.08,0,0,1,11.69-42.87L2920,1400.37a53.35,53.35,0,0,1,27.56-17.46Z"/><path class="cls-1" d="M2920,1400.37l30.44,14.17a7.4,7.4,0,0,0,10.14-4.36l6-17.91a7.42,7.42,0,0,1,7-5.06h0a7.37,7.37,0,0,1,7.4,7.74c-.6,9.85.62,22.06,8.54,30.79,9,9.94,22.11,10.3,38.54,12.33a356.12,356.12,0,0,1,66.61,15,7.4,7.4,0,0,1,5,8l-1.4,10.57a7.35,7.35,0,0,0,5.35,8.1,278.19,278.19,0,0,1,27.69,9.17c23.89,9.31,38.39,15.16,49.32,29.28a65.24,65.24,0,0,1,11.53,24.15,7.45,7.45,0,0,1-1.44,6.4c-41.42,51.89-69.84,87.5-111.72,140l-11.74,14.71a7.42,7.42,0,0,1-5.79,2.78h-24.27a91.71,91.71,0,0,1-47.55-13.26c-3.46-2.1-7.12-4.36-10.92-6.78-23.49-14.91-59.58-38.11-95.56-75.52-13-13.49-23.23-26-38.53-44.69-12.8-15.63-23.12-29.06-30.49-38.88"/><path class="cls-4" d="M3009,1406.5a397.3,397.3,0,0,1,80.73,22.33,402.16,402.16,0,0,1,124.84,78.6"/><line class="cls-4" x1="3111.29" y1="1461.2" x2="3177.57" y2="1496.64"/><line class="cls-4" x1="2789.56" y1="1559.76" x2="2915.34" y2="1748.17"/><path class="cls-1" d="M2899.36,1724.24l34.69-24.15,66.1,48.08c-3.83,3.42-15.28,12.7-32.19,13.57a50.27,50.27,0,0,1-14.44-1.38,147.3,147.3,0,0,0-15.42-3l-10.44-1.39"/><path class="cls-1" d="M2912.47,1869.62a379.73,379.73,0,0,1-49.32-86.31c-14.49,2.25-37,3.62-61.65-4.62-23.93-8-39.4-21.89-69.35-49.32a648.07,648.07,0,0,1-52.41-53.94l8.22-19"/><path class="cls-1" d="M2731.63,1627c0,20.72-12.65,36.65-28.25,36.65s-28.26-21-28.26-36.65,12.65-29.11,28.26-29.11S2731.63,1611.36,2731.63,1627Z"/><path class="cls-3" d="M1321,1759.79,1471.68,2295a162.65,162.65,0,0,1,5.58,31.49l9.56,124.23,23.12-15.41,47.93,112.91"/><line class="cls-3" x1="1258.26" y1="1797.46" x2="1348.11" y2="2530.4"/><path class="cls-3" d="M1303.18,1770.5l100.75,393.43c31.79,109.82,43.85,182.3,49,222,1.36,10.52,3,24.81,0,43.16-10.31,62.66-63.71,102.79-94,121.75"/><path class="cls-5" d="M2523,1127.69c1.29-14,7.58-26.44,21.1-35.18,21.65-14,45.29-1,59.28,20.59s1.35,93.84-19.71,103"/><path class="cls-5" d="M2540,1133.53c.69-8.56,4.42-16.09,12.54-21.34,13-8.4,29-2.64,36,12.94,8,17.8-17.1,85.52-29.77,91"/><circle class="cls-3" cx="2524.04" cy="1166.77" r="28.9"/><path class="cls-5" d="M2397.7,1100.54a61.85,61.85,0,0,1,18.49-21.58c3.85-2.78,22.33-16.14,41.61-10.79,18.42,5.12,32.24,25.84,32.37,50.87"/><path class="cls-3" d="M2383.82,1108.76c16.7.14,29.76,4.2,40.08,10.28,22.46,13.23,16.53,27,44.69,49.32,9.55,7.58,21.14,14.67,33.91,30.82,3.46,4.38,6,8.2,7.71,10.79"/><line class="cls-3" x1="2433.92" y1="1247.06" x2="2490.17" y2="1185.71"/><polyline class="cls-3" points="2358.39 1166.77 2451.64 1265.45 2465.51 1265.45 2472.45 1293.97 2490.17 1308.3 2552.93 1242.34"/><path class="cls-1" d="M2609.29,1225.9l46.74,21.16a328,328,0,0,0-54.89,100.46c-10.74,32.16-37.64,129.66,9.25,229.27a283.18,283.18,0,0,0,47.78,70.89l16.95-9.76"/><path class="cls-3" d="M2376.27,1138.73h0a17.56,17.56,0,0,1,25-1.63l42.71,38.16a17.55,17.55,0,0,1,2.62,23.24l-1,1.38a17.55,17.55,0,0,1-26.39,2.59l-41.74-39.54A17.54,17.54,0,0,1,2376.27,1138.73Z"/><path class="cls-3" d="M2473.93,1220.15h0a10.87,10.87,0,0,1,15.47-1l26.43,23.61a10.86,10.86,0,0,1,1.62,14.38l-.6.86a10.86,10.86,0,0,1-16.33,1.6l-25.83-24.47A10.87,10.87,0,0,1,2473.93,1220.15Z"/><line class="cls-1" x1="2629.4" y1="1285.74" x2="2583.68" y2="1257.78"/><polyline class="cls-3" points="2573.91 1262.58 2552.93 1262.58 2510.21 1313.23 2510.21 1340.97 2495.14 1340.97 2495.38 1374.73"/><polyline class="cls-3" points="2583.68 1355.71 2583.68 1374.73 2560.55 1400.57 2524.03 1376.45 2540.02 1355.71"/><line class="cls-3" x1="2540.02" y1="1313.23" x2="2566.15" y2="1281.38"/><line class="cls-3" x1="2553.86" y1="1329.67" x2="2573.91" y2="1301.78"/><path class="cls-3" d="M2377.66,1406.5l25.69-36.74h30.57l33.13,2a101.66,101.66,0,0,0-7.19-85.28c-20-35.27-54.6-46.67-63.71-49.32a109.65,109.65,0,0,0-37.76-4.11"/><line class="cls-4" x1="2596.52" y1="1239.48" x2="2640.67" y2="1267.94"/><path class="cls-5" d="M2262.58,1359.47c-.95,11.5,0,28,10.28,41.1,18.77,24,62.95,29.39,104.8,5.93"/><path class="cls-5" d="M2443.25,1370.34l3.77,143.29c4,4.79,10.06,12.18,16.95,21.54a459.36,459.36,0,0,1,52.4,92.48c11.59,27.42,9.69,30.22,20,49.32,22,40.54,40.48,46.34,46.24,47.78a50.17,50.17,0,0,0,23.11,0"/><path class="cls-5" d="M2403.35,1369.76q-2.46,68.84-4.93,137.67a349,349,0,0,1,48.6,52.4c13.22,17.63,37.12,49.46,52.4,95.56,7.36,22.2,8,33.62,20,50.86,5.21,7.49,17.75,25,41.62,35.45a94.46,94.46,0,0,0,40.07,7.71"/><path class="cls-5" d="M2311.83,1420.82a119.58,119.58,0,0,0,76.62,37.29h11.74"/><polyline class="cls-3" points="2449.83 1458.11 2495.14 1420.82 2479.38 1378.14 2514.06 1378.14"/><path class="cls-3" d="M2640.67,1663.61h-30.91l-35.85-32.88-12.84-111a207.82,207.82,0,0,0,33.91,89.39,202.23,202.23,0,0,0,30.82,35.45Z"/><path class="cls-3" d="M2447,1513.63a55,55,0,0,0,63.19-21.61"/><path class="cls-3" d="M2553.86,1447.51l-34.41-29.39a317.27,317.27,0,0,0,0,95.51c4.68,30.56,15.45,56,37,106.82,6,14.09,13.47,30.69,30.83,43.16a79.61,79.61,0,0,0,26.71,12.33"/><circle class="cls-3" cx="2651.74" cy="1749.32" r="50.26"/><circle class="cls-3" cx="2651.74" cy="1748.17" r="31.3"/><path class="cls-3" d="M2262.3,1387.21l-32.6,34.38c-5.06,2.8-11.47,7.54-14.59,15.2-8,19.64,11.72,43.55,24.87,54.2,17.74,14.38,37.9,16.24,47.26,16.44"/><circle class="cls-1" cx="2702.01" cy="1630.73" r="12.13"/><path class="cls-3" d="M2213.26,1461.2a203.27,203.27,0,0,1-20.55,23.84c-7.84,7.77-11.35,9.93-14.38,16.23-5.7,11.8-2.8,23.81-2.06,26.71,4.08,15.94,16.29,24,20.55,26.71,3.1,2,21.44,13.68,30.83,6.17,7.19-5.76,4.43-19.07,4.11-20.55-3.8-17.26-22.77-24-24.66-24.66"/><line class="cls-3" x1="2262.3" y1="1559.6" x2="2174.88" y2="1663.61"/><line class="cls-3" x1="2218.59" y1="1699.06" x2="2186.55" y2="1737.08"/><circle class="cls-3" cx="2119.36" cy="1702.35" r="19.47"/><path class="cls-3" d="M1872.13,1611.17l59.6-76v-27.74h43.15c-1.34,3-10.16,23.32,0,40.79,6.55,11.26,17.86,16,24.66,18.8,9.76,4.07,12.68,2.53,32.88,6.17,20.64,3.72,31.08,5.71,37,12.33,2.6,2.91,7.78,10.19,6.17,30.82-2.86,36.66-24.41,80.42-41.1,78.09-12.25-1.7-7.23-26.16-30.83-49.32-25.53-25-60.26-24.74-63.7-24.66a90.74,90.74,0,0,0-49.32,16.44l-18.5-6.16Z"/><path class="cls-3" d="M2069.41,1687.16a126.78,126.78,0,0,0-41.1,79.2"/><path class="cls-3" d="M2003.65,1682.88c2.42,7.9,6.89,26.57,0,48.06-1,3.13-11.61,34.51-43.15,47.75-10.42,4.37-28.55,12-43.16,2-11.16-7.58-16.45-22.8-14.38-39"/><path class="cls-3" d="M1974.92,1770.5c2.32,7.1,5.21,19.69-.91,29.08-11.87,18.19-51,14.17-75.16-.34-26.72-16-34.84-44.49-37-53.43"/><path class="cls-3" d="M1919.76,1642.86c2.55-.35,21.38-2.66,34.57,10.47,13.89,13.83,11.63,34.89,6.17,47.27-8.31,18.81-29.74,30.55-53.43,28.77"/><path class="cls-3" d="M1843.36,1706.25c-3.21-4.46-16-21.13-34.93-22.09-26.86-1.35-45.85,29.81-51.38,51.37-1,3.9-9.5,39.5,14.39,63.71,11,11.14,24,15,30.82,16.44l-34.93,22.17-4.11,31.77c-6.2,3.16-19.13,10.91-26.72,26.2-10.58,21.32-6.43,48.5,10.28,69.87"/><circle class="cls-3" cx="1882.92" cy="1680.39" r="33.91"/><path class="cls-3" d="M1644,2022.21l258.49-101.73a172,172,0,0,1,39.58-12.33c21.9-4,50.32-9.17,73.88,6.17,16,10.42,34.65,33.49,26.72,49.32-7.32,14.6-32.93,14.42-34.94,14.38q-1,30.82-2,61.65l1.61,16.44,62.09-8.22a698,698,0,0,0,45.21-65.76c44.27-73.08,52.37-117.08,102.75-201.39,10.28-17.2,19.17-30.81,24.66-39a145.22,145.22,0,0,1-10.27-45.21c-.54-8.65-2.12-46.71,20.55-84.26.74-1.22.57-.91,45.21-49.31,22.5-24.41,27-29.28,37-32.89,14.29-5.13,24.25-2.06,43.16-10.27a96.3,96.3,0,0,0,20.76-12.33"/><path class="cls-3" d="M2007.76,1978c3.24-9.54,7-24.83-.44-32.88-10.58-11.49-38-1.76-48.88,2.06-47.77,16.72-148,49-283.59,92.47a200.47,200.47,0,0,0-28.77,34.94c-21.71,33.62-17.91,50.57-41.1,80.14-13.66,17.43-16.19,13.08-26.71,28.77-7,10.52-26.5,39.53-18.5,74,4.46,19.21,15.77,32.84,24.66,41.1"/><polyline class="cls-3" points="1974.01 1971.83 1689.24 2070.5 1646.08 2074.61"/><path class="cls-3" d="M1974,1942.31c5.78,23.5,11.78,61.18,3.66,105.58-4.14,22.66-10.4,38.57-17.17,55.49-10.34,25.84-33.45,82.15-84.26,137.68-39.75,43.45-61.38,48.09-65.76,78.09-2.83,19.39,2,46.16,10.28,67.82a162,162,0,0,0,14.38,28.77"/><path class="cls-3" d="M1799.45,2032.31a68.78,68.78,0,0,0,24.9,8.39c21.66,2.78,38.36-6.29,54-13.87a595.15,595.15,0,0,1,77.06-30.82l25.65-9.33"/><path class="cls-3" d="M1644,2197.91a183.22,183.22,0,0,1,6.16-37c2.38-8.66,4.85-17.39,10.79-27.74a97.48,97.48,0,0,1,12.33-17c1.64-.71,17.79-7.48,26.2,0,4.74,4.22,5.5,11.6,3.08,26.2-2.46,14.89-8.2,37.08-23.12,63.2a110.59,110.59,0,0,0,57-15.42"/><path class="cls-3" d="M1565.42,2179c-6.14,4.14-16.64,12.53-23.12,26.59-10.72,23.26-3.09,46.17,1.55,60.1a116.72,116.72,0,0,0,30.82,47.78"/><path class="cls-3" d="M1659.44,2238c-2-.33-14-2.05-24.66,6.17-12.44,9.61-12.37,24.57-12.33,26.2"/><path class="cls-3" d="M1574.67,2261.1c4.62-1.94,16-5.94,27.74-1.54,19.12,7.18,26.63,32.08,23.12,50.86-.62,3.32-4.73,23.28-23.12,32.37-19.47,9.62-39-.85-43.15-3.09-3.69-2-12.8-7.43-24.66-26.2-7.45-11.77-18.14-32.2-23.12-61.65l-182-497.1"/><path class="cls-3" d="M1755,2184.55c2.64-2,14.6-10.78,23.11-6.68,10.67,5.14,8.54,26.92,7.71,35.45-3.09,31.71-23,56.93-41.61,74"/><path class="cls-3" d="M1674.85,2254v44.62h49.32a154.55,154.55,0,0,1-13.87,44.19c-21.79,44.41-59.39,66-75.52,74"/><path class="cls-3" d="M1724.17,2298.6h32.37a103.57,103.57,0,0,1-17,73.47"/><path class="cls-3" d="M1733.42,2345.87a164.35,164.35,0,0,1-87.34,89.39l67.3,78.08c-7.56,4-19.31,10-33.91,17.06-20.16,9.7-35.24,16.15-41.61,18.91-17,7.37-61,26.39-90.93,43.16-21,11.78-50.15,30.83-81.69,61.65"/><path class="cls-3" d="M1824.35,2416.77a174.58,174.58,0,0,1-24.9-17c-13.65-11.14-15.09-22.44-26-26.2-5.42-1.87-13.31-2.29-24.66,3.08"/><path class="cls-3" d="M1544.49,2327.09a82.86,82.86,0,0,0-7.63,45c.91,7.75,3.75,31.92,22.4,46.24,19.42,14.91,49.68,14.27,75.52-1.54"/><path class="cls-3" d="M819.46,2882.22c-2.55-8.76-31.66-114.86,33.91-184.95,20.2-21.59,43.45-33.42,61.65-40.07l490.11-21.58c15.41-17.88,47.47-50.06,98.64-69.35a241.76,241.76,0,0,1,81.69-15.42,153.4,153.4,0,0,1,10.79-100.18l30.12,10.79a95.6,95.6,0,0,0-13.22,26.2c-8.57,26.53-3.09,49.83,0,60.11"/><path class="cls-3" d="M1468.48,2583c-1-2.2-11.79-26.08,1.39-47.56,1-1.63,16.43-26,38.53-21.58,16.25,3.23,23.76,19.55,24.66,21.58l3.8,21"/><path class="cls-3" d="M1602.41,2342.79c-3.39,20.95,1.11,30.49,6.17,35.29,5.75,5.45,12.57,5.12,15.41,10.94,3.5,7.19-2.23,17.23-7.71,24.66"/><path class="cls-3" d="M1673.31,2433.82l51.86,70.8c9.92-8.43,24.84-20.86,43.4-35.4,55.09-43.16,67.72-46.5,87-66.86,25.88-27.29,22.11-41.22,50.29-97.54,24.53-49,49-81.72,73.85-114.84,47.08-62.81,75.79-101.12,127.29-130.58,43.7-25,85.44-33.11,111.57-36.18"/><path class="cls-3" d="M2356.08,2046.1c18.13,22-4.62,66.64-51.63,51.63-27.16-8.68-85.86-46-85.86-74.51s43.9-30,71-21C2320.42,2012.4,2345.29,2033,2356.08,2046.1Z"/><path class="cls-3" d="M2356.79,2082.74v41l-11.5,37-9.24,23.87v38l-7.71,23.69a123.11,123.11,0,0,1,14.22,41c1.09,7,9.32,64.69-23.47,86.31a49.68,49.68,0,0,1-23.12,7.71q-.76,10.79-1.54,21.57"/><path class="cls-3" d="M2140.31,2122.39a142.87,142.87,0,0,1,61.65-20c12.14-1,65.34-3.67,104.8,35.45a123.47,123.47,0,0,1,29.29,46.75l52.3,41.1"/><path class="cls-3" d="M2336.05,2205.62c-8.21-15-21.22-32.71-41.62-46.44-71-47.78-163-.91-168,1.74"/><path class="cls-3" d="M2219.39,2036.93l-13.69,10.38a246.94,246.94,0,0,0-74.63,91.62l-.35.75a501.16,501.16,0,0,0-38.53,118.68c-6.48,34.63-7,65.7-7.71,127.92-.49,43.31.53,79,1.54,103.27-6.22,16.17-11.32,29-14.55,37.16-12.81,32.1-16.92,40.93-18.5,55.48a107,107,0,0,0,2.06,34.94l4.7,20"/><path class="cls-3" d="M2100.67,2221.56a184.34,184.34,0,0,1,64.3-37c65-21.29,121.91,1.32,138.71,8.74"/><path class="cls-3" d="M2095.38,2242.82c10.7-5.63,26-13.27,44.93-21.26,21.75-9.18,32.74-13.83,47.78-17.49,22.51-5.48,50.93-12.39,80.14,0,8.58,3.64,24.13,11.88,38.53,30.83"/><path class="cls-3" d="M2084.35,2335.34a234.37,234.37,0,0,1,35.92-36.74c16.27-13.32,42.47-34.78,81.69-42.12,19.73-3.7,56.92-10.67,83.23,12.33,15.19,13.27,20,30.86,21.57,37,7.19,27.7-3,50.49-6.16,57"/><path class="cls-3" d="M2084.76,2362.82a238.91,238.91,0,0,1,111-75.52"/><line class="cls-3" x1="2219.39" y1="2253.64" x2="2215.11" y2="2325.06"/><line class="cls-3" x1="2242.97" y1="2253.64" x2="2238.69" y2="2335.34"/><line class="cls-3" x1="2259.05" y1="2253.64" x2="2254.77" y2="2335.37"/><line class="cls-3" x1="2278.88" y1="2262.89" x2="2274.6" y2="2342.79"/><line class="cls-3" x1="2201.07" y1="2353.09" x2="2201.07" y2="2429.07"/><line class="cls-3" x1="2219.39" y1="2354.82" x2="2219.39" y2="2413.68"/><line class="cls-3" x1="2244.87" y1="2362.82" x2="2242.97" y2="2402.89"/><line class="cls-3" x1="2259.05" y1="2370.08" x2="2259.05" y2="2402.89"/><path class="cls-3" d="M2108.46,2159.18v-35.47a398.33,398.33,0,0,0-56,35.67c-56,42.58-87.82,90.32-109.43,123.3a618.16,618.16,0,0,0-38.53,67.81"/><path class="cls-3" d="M2059.73,2154q8.66,11.58,17.39,23.89,7.15,10.13,13.87,20"/><path class="cls-3" d="M2040.13,2184.55a106.1,106.1,0,0,0,20.82,45.9,120.23,120.23,0,0,0,31.24,27.91"/><path class="cls-3" d="M1988.79,2220a155.19,155.19,0,0,0,17.69,33.66c9.25,13.3,21.71,31.21,44.44,39.83a74.11,74.11,0,0,0,21.57,4.62H2087"/><path class="cls-3" d="M1943,2282.68a143.61,143.61,0,0,0,38.59,40.33c35.83,25,73.17,26.25,87.79,25.94"/><path class="cls-3" d="M1922.78,2315.83a159.69,159.69,0,0,0,23.17,54.25c10.62,15.82,24.73,36.85,51,46.69,36.36,13.6,70.88-3.62,78.61-7.71l8.77-6.17a385.48,385.48,0,0,1,42.09-24.81c25.61-13,43.85-22.23,64.73-24.51,35.64-3.88,66.46,13.92,84.77,27.75"/><path class="cls-3" d="M2084.35,2421.91l-95.56,13.35c-116.71,16.27-153.15,21.24-198.35,43.16a336.29,336.29,0,0,0-55.48,33.9"/><path class="cls-3" d="M2084.35,2461.46a112.65,112.65,0,0,1,97.57-37"/><path class="cls-3" d="M2075.36,2450.67a969.66,969.66,0,0,0-298.79,47.78"/><path class="cls-3" d="M1745.63,2515.33l12.84,24.49c13-2.29,32.37-6.05,55.78-11.9,44-11,58.64-18.48,109.87-32.63,58.34-16.11,74.88-16.2,90.84-13.36,22,3.93,39.55,12.86,51.2,20"/><path class="cls-3" d="M2075.36,2501,1946,2550.85c10.85,2.06,22.24,4.59,34.07,7.71a495.57,495.57,0,0,1,60.11,20"/><path class="cls-3" d="M1659.35,2539.82c.78,10.75,3.67,25.81,14.09,38.78,19.09,23.75,51.85,26,70,27.74,30.64,2.93,81.63,16.34,183.6,43.15,75.48,19.85,58.33,24.64,127.59,41.62,29.89,7.33,79.93,17.92,138.47,46.24,19.62,9.48,36,18.91,45.12,37,14.38,28.31,2.38,60.51-3.11,75.52-21.32,58.36-52.94,154.76-94.91,280.5-4.72,7-9.81,10.49-14,12.33-21.58,9.5-55.86-8-84-44.69"/><path class="cls-3" d="M1625.11,2550.85c-3.24,10.1-6,25,0,39.49,10.73,25.89,43,35.29,72.35,42.53,69.65,17.16,107.49,18.29,154.69,25.82,28.32,4.51,77.74,19.72,176.57,50.12,54.33,16.71,78,25.08,104.69,45.56,38.63,29.67,55.46,63.2,59.38,71.39,8.9,18.59,13.08,35.53,17.18,62.27,11.52,75.07,3.16,101.94,10.94,188.33,0,0,3.64,40.43,20.32,94.16,8.64,27.87,16.38,44.7,32.81,54.68,17.1,10.38,36,8.7,46.88,7.59,75.77-7.73,168.11-25.2,186.17-28.64"/><path class="cls-3" d="M1621.56,2567.81a687.7,687.7,0,0,0-63.69,49.32c-31.7,27.66-72.17,63-106.5,118.67-30.68,49.78-42.53,93.26-52.4,129.47-17.08,62.63-19.81,112.08-21.58,148a856.26,856.26,0,0,0,13.87,200.36"/><path class="cls-3" d="M1536.86,2583a243.54,243.54,0,0,0-73.49,34.13c-36.33,25.09-54.49,52.8-90.6,107.89-36.66,55.92-54.81,99.4-60.11,112.51a597.74,597.74,0,0,0-21.58,63.19"/><path class="cls-3" d="M1439.46,2695.73a653.44,653.44,0,0,0-32.79,61.65c-32.7,70.31-44.64,128.84-50.86,160.29-26.32,133.22-9.87,265.16-3.08,311.33"/><path class="cls-3" d="M850.28,2882.22c.38-10,2.73-31.7,18.5-50.86,21.14-25.69,55.55-33.64,78.6-27.74,4.82,1.23,14.67,3.9,20,12.33,5,7.92,3.6,17,3.08,21.58-1.38,12.33-.39,30.82,10.79,57"/><path class="cls-3" d="M1013.66,2783.58c-2,2-22,22.57-17,50.86,5.37,30.36,34.62,42.24,37,43.16,21.49,8.3,36.22-1.65,70.9-9.25,17.29-3.79,61.77-13.53,106.35-3.08,11.41,2.67,67.9,15.92,90.93,61.65,3.5,7,8.06,18.29,7.71,70.9-.55,81.59-11.83,102.68-6.17,148,2.6,20.79,9.38,51.51,29.28,87.85"/><path class="cls-3" d="M1141.48,2862.06c23.47-20.19,43.92-37.29,60.21-50.73,42.85-35.36,56.67-45.17,75.52-53.95a217.38,217.38,0,0,1,53.94-17"/><path class="cls-3" d="M1357.35,2714.23q-13.12,19.65-26.2,40.07-36.59,57.16-67.81,112.51l-7,15.41"/><path class="cls-3" d="M1123.08,2916.13c.64-2.4,5.93-21.26,23.12-27.74,18.2-6.86,35.16,5.62,40.08,9.24,19.68,14.5,23.7,37.89,26.2,52.41,1.21,7.07,9.16,57.85-23.12,95.55-10.45,12.21-20.06,17.14-38.53,27.75-24.15,13.86-58.54,34.59-100.18,63.19"/><path class="cls-3" d="M1679.47,2530.4a313.28,313.28,0,0,0,61.14,29.19c52,18.18,111.68,31.81,155,36,33.4,3.2,58.71.92,138.87,31.85,119.81,46.24,84.36,31.12,158.23,65.76,26.92,12.63,54.06,15.77,67.82,39.05,17.06,28.88,4.94,65,0,80.14-21.2,64.81-52.26,176.83-92.79,325.17-9.47,34.66-40.82,59.37-76.74,59.13h-1c-53.31-.89-84.59-42.11-88.36-47.27"/><path class="cls-3" d="M2245.05,2862.06c2.89,22.29,6.9,57.07,9.72,100.31,1.93,29.46,3.7,67.81,3.7,67.81,4,86.87,2.58,103.44,16.44,117.14,7.83,7.73,24.94,18.89,63.7,14.38"/><line class="cls-3" x1="1905.89" y1="2674.64" x2="1647.52" y2="2714.23"/><path class="cls-3" d="M1536.32,2666.45l171.41-12.33a47.35,47.35,0,0,1-14.38,26.71c-13.4,12.35-29.4,12.4-32.88,12.33"/><path class="cls-3" d="M1465.24,2741.86c24.72.88,63.49,1.67,111,0,93.77-3.3,144-13.47,258.93-19.93,111.81-6.28,136.54-.73,160.29,14.39,48.82,31.07,67.63,86.08,71.93,98.64,11.55,33.79,10.43,59.64,8.22,111-3,69-4.54,105-26.72,145.9-31.54,58.22-82.43,85.21-96.58,92.48-79.86,41-158.92,22.44-182.9,16.44-71.22-17.84-56.54-44.09-195.22-121.25-57.73-32.12-89.5-43.82-115.08-84.25-24.9-39.35-27.72-80.26-28.77-98.64-3.61-62.76,19.1-110.47,30.82-131.52"/><path class="cls-3" d="M1992,2946.66c0,92.58-75,197.14-167.64,197.14s-135.11-81.57-135.11-174.16,68-188.71,160.55-188.71S1992,2854.07,1992,2946.66Z"/><path class="cls-3" d="M1926,2938c0,69.34-51.87,147.65-115.85,147.65s-93.37-61.1-93.37-130.43,47-141.33,111-141.33S1926,2868.69,1926,2938Z"/><path class="cls-1" d="M2371.69,3480.06c0,64.56-56.65,137.46-126.52,137.46s-102-56.88-102-121.43,51.29-131.58,121.16-131.58S2371.69,3415.5,2371.69,3480.06Z"/><path class="cls-1" d="M2294,3460c0,28.68-25.16,61.07-56.2,61.07s-45.31-25.27-45.31-53.95,22.79-58.45,53.83-58.45S2294,3431.28,2294,3460Z"/><path class="cls-1" d="M2554.87,3537.74c0,21.84-19.16,46.49-42.79,46.49s-34.49-19.23-34.49-41.07,17.35-44.5,41-44.5S2554.87,3515.91,2554.87,3537.74Z"/><path class="cls-3" d="M1878.52,2939.67c0,47.12-35.25,100.34-78.73,100.34s-63.45-41.52-63.45-88.64,31.92-96,75.4-96S1878.52,2892.55,1878.52,2939.67Z"/><path class="cls-3" d="M1860,2933.31c0,35.36-26.45,75.29-59.08,75.29s-47.61-31.15-47.61-66.51,24-72.07,56.58-72.07S1860,2898,1860,2933.31Z"/><path class="cls-3" d="M1557.87,2872.13c0,30.75-18,92.64-46.4,92.64s-46.4-54.25-46.4-85,20.83-62.69,49.21-62.69S1557.87,2841.37,1557.87,2872.13Z"/><path class="cls-3" d="M1821.36,2927.73c0,16.69-12.48,35.54-27.88,35.54s-22.47-14.71-22.47-31.39,11.3-34,26.7-34S1821.36,2911.05,1821.36,2927.73Z"/><path class="cls-3" d="M1532.37,2883.53c0,16.69-12.49,35.54-27.88,35.54s-22.47-14.71-22.47-31.4,11.3-34,26.7-34S1532.37,2866.84,1532.37,2883.53Z"/><path class="cls-1" d="M1611.7,3211.8c8.7,5.65,14.29,18.53,9.08,26.55s-15.27,6.73-24,1.08-13.9-17.4-8.69-25.42S1603,3206.15,1611.7,3211.8Z"/><path class="cls-3" d="M1702.41,2756.87a1354,1354,0,0,1,154.5,0c55.48,3.19,78.58,8,102.34,22.6,9.11,5.59,43,27.06,60.2,69.87,12.73,31.73,9.56,58.48,4,100.7-7.77,59.14-13.4,102-46.15,143.85-13.06,16.69-49.08,57.08-106.35,69.87-53.74,12-95.07-7.25-176.58-45.21-40.1-18.68-95.06-44.89-150.49-100.7-29-29.21-35.53-38.72-48.58-59.35"/><circle class="cls-3" cx="1821.36" cy="3114.1" r="14.04"/><circle class="cls-3" cx="1909.66" cy="3054.05" r="14.04"/><circle class="cls-3" cx="1959.99" cy="2947.67" r="14.04"/><circle class="cls-3" cx="2099.36" cy="3054.05" r="14.04"/><circle class="cls-3" cx="2109.54" cy="2947.67" r="14.04"/><circle class="cls-3" cx="2012.71" cy="3083.61" r="11.99"/><circle class="cls-3" cx="1933.31" cy="3162.74" r="11.99"/><circle class="cls-1" cx="1974.4" cy="3252.12" r="11.99"/><circle class="cls-1" cx="1394.53" cy="3250.83" r="7.53"/><circle class="cls-1" cx="1394.53" cy="3285.46" r="7.53"/><circle class="cls-1" cx="1394.53" cy="3318.31" r="7.53"/><circle class="cls-1" cx="1423.21" cy="3249.3" r="7.53"/><circle class="cls-1" cx="1423.21" cy="3283.92" r="7.53"/><circle class="cls-1" cx="1423.21" cy="3316.77" r="7.53"/><circle class="cls-1" cx="1455.12" cy="3249.3" r="7.53"/><circle class="cls-1" cx="1455.12" cy="3283.92" r="7.53"/><circle class="cls-1" cx="1455.12" cy="3316.77" r="7.53"/><circle class="cls-1" cx="1482.96" cy="3244.19" r="7.53"/><circle class="cls-1" cx="1482.96" cy="3278.81" r="7.53"/><circle class="cls-1" cx="1482.96" cy="3311.66" r="7.53"/><circle class="cls-1" cx="1362.76" cy="3322.12" r="7.53"/><circle class="cls-1" cx="1362.76" cy="3292.99" r="7.53"/><circle class="cls-1" cx="1370.29" cy="3267.53" r="7.53"/><circle class="cls-1" cx="1972.16" cy="3319.58" r="11.99"/><circle class="cls-1" cx="2231.24" cy="3570.82" r="11.99"/><circle class="cls-1" cx="2180.49" cy="3541.45" r="11.99"/><circle class="cls-1" cx="2168.5" cy="3483.06" r="11.99"/><circle class="cls-1" cx="2044.41" cy="3611.45" r="11.99"/><circle class="cls-1" cx="2032.42" cy="3470.75" r="11.99"/><circle class="cls-1" cx="2288.61" cy="3553.44" r="11.99"/><circle class="cls-1" cx="2327.93" cy="3509.51" r="11.99"/><circle class="cls-1" cx="2337.29" cy="3464.82" r="11.99"/><circle class="cls-1" cx="2306.12" cy="3412.24" r="11.99"/><path class="cls-1" d="M2111.35,3344.6a12,12,0,1,1-12-12A12,12,0,0,1,2111.35,3344.6Z"/><circle class="cls-1" cx="2205.38" cy="3351.68" r="11.99"/><circle class="cls-1" cx="2300.6" cy="3339.69" r="11.99"/><circle class="cls-1" cx="2385.1" cy="3344.6" r="11.99"/><circle class="cls-1" cx="2627.71" cy="3296.82" r="11.99"/><circle class="cls-1" cx="2704.73" cy="3319.58" r="11.99"/><circle class="cls-3" cx="2408.59" cy="3255.2" r="11.99"/><circle class="cls-3" cx="2243.23" cy="3240.13" r="11.99"/><circle class="cls-3" cx="2192.47" cy="3140.31" r="11.99"/><circle class="cls-1" cx="2778.43" cy="3342.14" r="9.53"/><circle class="cls-1" cx="2863.44" cy="3386.8" r="9.53"/><circle class="cls-3" cx="2044.41" cy="2962.72" r="11.99"/><circle class="cls-3" cx="2050.63" cy="2865.4" r="12.17"/><circle class="cls-3" cx="2012.71" cy="2780.93" r="12.17"/><circle class="cls-3" cx="1959.99" cy="2746.14" r="12.17"/><circle class="cls-3" cx="1745.63" cy="2784.78" r="12.17"/><circle class="cls-3" cx="1679.47" cy="2817.07" r="12.17"/><circle class="cls-3" cx="1679.47" cy="2813.91" r="28.18"/><path class="cls-3" d="M2077,2758.31a229,229,0,0,1,46.59,55.6c25.28,42.53,29.76,82.37,34.19,121.74a473.09,473.09,0,0,1,0,104.81"/><path class="cls-3" d="M2066.16,2785.73a586.95,586.95,0,0,1,58.74,137.59"/><line class="cls-3" x1="1716.75" y1="2867.29" x2="1557.87" y2="2862.06"/><line class="cls-3" x1="1701.44" y1="2900.72" x2="1556.24" y2="2890.7"/><line class="cls-3" x1="1693.21" y1="2938.65" x2="1550.84" y2="2922.48"/><line class="cls-3" x1="1690.21" y1="2993.2" x2="1523.35" y2="2960.99"/><path class="cls-3" d="M2086,2489.55c30.53-30.68,56.18-42.28,74.67-47,9.3-2.36,22.81-4.51,40.38-13.5,16-8.2,18.25-13.3,32.74-19.5a107,107,0,0,1,43.15-8.22c27,.11,46.46,9.78,55.49,14.39a133.1,133.1,0,0,1,49.32,43.15,129.71,129.71,0,0,1,20.55,55.49c5.39,44-14.31,78.18-30.83,106.86-9.37,16.28-24.8,42.44-55.48,65.76-20.27,15.4-52.83,27.58-66.44,32.39"/><circle class="cls-3" cx="2084.35" cy="2607.37" r="9.76"/><circle class="cls-3" cx="2094.12" cy="2578.6" r="9.76"/><circle class="cls-3" cx="2109.54" cy="2631.46" r="9.76"/><circle class="cls-3" cx="2144.44" cy="2641.23" r="9.76"/><circle class="cls-3" cx="2160.69" cy="2611.94" r="9.76"/><circle class="cls-3" cx="2180.21" cy="2588.36" r="9.76"/><circle class="cls-3" cx="2210.83" cy="2568.33" r="9.76"/><circle class="cls-3" cx="2234.63" cy="2548.97" r="9.76"/><circle class="cls-3" cx="2268.81" cy="2522.47" r="9.76"/><circle class="cls-3" cx="2294.43" cy="2501.04" r="9.76"/><circle class="cls-3" cx="2325.61" cy="2488.69" r="9.76"/><circle class="cls-3" cx="2315.85" cy="2530.4" r="9.76"/><circle class="cls-3" cx="2325.61" cy="2560.37" r="9.76"/><circle class="cls-3" cx="2290.15" cy="2545.67" r="9.76"/><circle class="cls-3" cx="2298.1" cy="2579.16" r="9.76"/><circle class="cls-3" cx="2263.93" cy="2568.33" r="9.76"/><circle class="cls-3" cx="2236.49" cy="2585.61" r="9.76"/><circle class="cls-3" cx="2218.59" cy="2607.37" r="9.76"/><circle class="cls-3" cx="2189.97" cy="2631.46" r="9.76"/><circle class="cls-3" cx="2181.92" cy="2660.75" r="9.76"/><circle class="cls-3" cx="2208.82" cy="2674.57" r="9.76"/><circle class="cls-3" cx="2224.87" cy="2641.23" r="9.76"/><circle class="cls-3" cx="2254.17" cy="2621.7" r="9.76"/><circle class="cls-3" cx="2254.17" cy="2660.75" r="9.76"/><circle class="cls-3" cx="2284.67" cy="2646.89" r="9.76"/><circle class="cls-3" cx="2313.95" cy="2627.37" r="9.76"/><circle class="cls-3" cx="2327.38" cy="2595.38" r="9.76"/><circle class="cls-3" cx="2356.79" cy="2560.37" r="9.76"/><circle class="cls-3" cx="2280.39" cy="2605.14" r="9.76"/><circle class="cls-3" cx="2238.91" cy="2684.33" r="9.76"/><circle class="cls-3" cx="2347.03" cy="2520.64" r="9.76"/><circle class="cls-3" cx="2356.79" cy="2484.32" r="9.76"/><circle class="cls-3" cx="2338.61" cy="2461.46" r="9.76"/><circle class="cls-3" cx="2283.46" cy="2471.22" r="9.76"/><circle class="cls-3" cx="2307.86" cy="2456.42" r="9.76"/><circle class="cls-3" cx="2124.9" cy="2597.61" r="9.76"/><circle class="cls-3" cx="2152.39" cy="2569.4" r="9.76"/><circle class="cls-3" cx="2229.15" cy="2461.46" r="9.76"/><circle class="cls-3" cx="2269.33" cy="2442.57" r="9.76"/><circle class="cls-3" cx="2250.49" cy="2484.32" r="9.76"/><circle class="cls-3" cx="2229.59" cy="2512.32" r="9.76"/><circle class="cls-3" cx="2201.07" cy="2530.4" r="9.76"/><circle class="cls-3" cx="2170.45" cy="2541.61" r="9.76"/><circle class="cls-3" cx="2115.13" cy="2548.97" r="9.76"/><circle class="cls-3" cx="2142.9" cy="2522.08" r="9.76"/><circle class="cls-3" cx="2170.45" cy="2502.56" r="9.76"/><circle class="cls-3" cx="2201.07" cy="2484.32" r="9.76"/><path class="cls-3" d="M2070.41,2641.23a148.71,148.71,0,0,1,0-53.39c8.18-44.14,34.79-71.6,55.51-93,19.22-19.83,53.89-54.71,109.95-67.82,17.05-4,46-10.39,80.14,0,13.35,4.06,40.31,12.27,58.57,38,20.22,28.52,17,60.53,15.41,76-3.43,33.88-18.59,57.13-34.94,82.2-12.54,19.24-26.86,42.12-54.45,62.68a190.66,190.66,0,0,1-47.27,25.69l-9.41,3.59"/><path class="cls-3" d="M2284.67,1749.58c20.42,7.43,53.07-11.69,63.71-32.08,19.35-37.11,19.35-86.77-3.6-119.46-9.75-13.89-34.85-7.82-49.32-1.88-23.73,9.74-31.21,33.3-34.93,45-5.39,17-3.84,30.66-2.06,45C2261.78,1712.86,2265.46,1742.59,2284.67,1749.58Z"/><line class="cls-3" x1="2254.17" y1="1656.48" x2="2352.38" y2="1611.17"/><polyline class="cls-3" points="2262.3 1712.05 2328.85 1663.61 2362.31 1665.09"/><path class="cls-3" d="M2328.85,1548.22c14.28,1,40.42,5,65.25,22.91,34.54,24.89,45.76,61.71,51.37,80.15,6.3,20.68,8.31,44.61,12.33,92.47,1,11.93,1.65,21.87,2.06,28.77a348.66,348.66,0,0,0,45.21,20.55c23.81,8.84,42.69,12.89,59.59,16.44,45.54,9.58,53.91,5.75,88.37,16.44,14.12,4.38,15,5.74,30.82,10.28,26.75,7.68,36.43,7.31,55.49,14.38a173.66,173.66,0,0,1,32.88,16.44l42-29.2,49-54.54"/><path class="cls-3" d="M2435.2,1669.77a111.06,111.06,0,0,0-67.47-80.19l7.14,58.1"/><path class="cls-3" d="M2377.66,1675.94a71.1,71.1,0,0,1,65.76,47.26"/><path class="cls-3" d="M2367.73,1706.25c4.17-1.12,22.41-5.55,40.75,4.62a53.78,53.78,0,0,1,20.55,20.55"/><path class="cls-3" d="M2284.67,1749.58a256.81,256.81,0,0,0,35.31,57.88,343.24,343.24,0,0,0,26.85,28.77c13.21,12.4,15.82,12.56,20.55,18.49,13.92,17.43,9.37,38.54,10.28,55.49,1.07,20,10.44,47.52,47.26,80.14"/><line class="cls-3" x1="2242.03" y1="1741.7" x2="2274.6" y2="1793.01"/><path class="cls-3" d="M2180.21,1849.94a258.42,258.42,0,0,0,34.9,29.44c17.32,12.18,31.76,19.14,47.47,26.72a492.82,492.82,0,0,0,49.32,20.55"/><path class="cls-3" d="M2369.44,1902c-2-3.77-5-9.8-8.22-17.47-6.2-14.83-6.07-19.14-11.3-24.66-7.69-8.12-18.14-9.56-21.07-9.92-2.11-.27-19.88-2.81-25.17,5.81-3.07,5,.59,9.63,3.08,23.12,3.1,16.74-.38,21.27,1.54,30.83,3.44,17.08,19.35,26.38,32.37,35.44,16.9,11.77,39.17,30.27,63.19,60.11l43.67,36L2464,2049l51.37-6.05v-35.52"/><path class="cls-3" d="M2193.31,1823.73a164.64,164.64,0,0,0,21.8,25.92c31.53,30.45,68,41,88.57,45.15"/><line class="cls-3" x1="2170.45" y1="1870.8" x2="2263.93" y2="1997.3"/><line class="cls-3" x1="2135.88" y1="1942.31" x2="2218.59" y2="2023.22"/><line class="cls-3" x1="2126.44" y1="1961.83" x2="2196.82" y2="2026.55"/><line class="cls-3" x1="2114.62" y1="1982.13" x2="2170.45" y2="2032.79"/><line class="cls-3" x1="2098.5" y1="2007.46" x2="2145.32" y2="2041.21"/><polyline class="cls-3" points="2084.36 2026.55 2084.36 2056.11 2107.02 2059.4"/><circle class="cls-3" cx="2021.23" cy="1519.76" r="23.38"/><path class="cls-3" d="M2459,1766.36c11.76-23.58,21.48-29.4,28.79-29.28s10.7,6.09,20.29,10.78c10.94,5.35,24.48,6.37,41.1,2.06"/><path class="cls-3" d="M2912.47,1785.62c1.14,41,11.8,68,21.58,85.18,8.37,14.74,29.28,45.57,29.28,45.57h0c2.52,15.33,6.7,19.67,10.28,20.55,6.56,1.63,10.45-8.54,26.71-18.49,16.47-10.07,23.26-6.24,28.77-14.39,8.08-11.93-3.75-24.18,4.11-34.93,6.66-9.1,22.89-10.91,34.94-6.17,15,5.91,19.89,20.52,20.55,22.61,15.27-14.2,29.45-21.07,39-24.66,10.06-3.76,21.09-5.93,43.16-10.28,9.49-1.86,17.34-3.23,22.6-4.11,2.77-5.53,18.84-36.29,55.49-47.26,26.95-8.07,49.71-.84,57.54,2l137.68,135.63,170.57-22.21"/><path class="cls-3" d="M2787.83,1816.05c-4.64,10.08-30.82,11.65-57.6-3.94-21.8-12.68-38.18-13.9-38.18-25s8.57-29.88,38.18-19.07C2753.41,1776.5,2799,1791.91,2787.83,1816.05Z"/><circle class="cls-3" cx="2755.82" cy="1801.76" r="6.46"/><circle class="cls-3" cx="2720.6" cy="1785.62" r="6.46"/><path class="cls-3" d="M2311.9,1799.58a96.06,96.06,0,0,1,36.48-32.23c29.74-14.87,58-9.16,66.27-7.16"/><line class="cls-1" x1="2874.4" y1="1808.22" x2="2829.25" y2="1859.26"/><path class="cls-3" d="M2912.47,1869.62a315.65,315.65,0,0,0-140.25-2.57l-16.4,20.56c-22.28,14.75-33.51,38.1-28.76,58.44,3.81,16.31,16.62,25.18,20.5,27.86,21.58,14.95,62.2,19.7,80.14-6.16,13.64-19.66,8.72-49.13-8.22-65.76-11.27-11.07-25-13.65-30.82-14.39"/><path class="cls-3" d="M2679.74,1849.39A98.34,98.34,0,0,0,2653,1887.6c-17.08,44.74,6.53,86.16,10.27,92.48"/><path class="cls-3" d="M2645.83,1849.39a98.34,98.34,0,0,0-26.72,38.21c-17.08,44.74,6.54,86.16,10.28,92.48"/><path class="cls-3" d="M2612.43,1835a98.47,98.47,0,0,0-26.72,38.22c-17.08,44.73,6.54,86.15,10.28,92.47"/><circle class="cls-3" cx="2784.74" cy="1935.93" r="21.23"/><path class="cls-3" d="M2973.61,1936.92a125.55,125.55,0,0,1,0,34.91c-2.13,15.07-6.16,43.51-24.66,53.46-9,4.86-17.29,3-47.27-4.11-29-6.91-52.39-12.64-67.81-16.44l-6.17-37"/><path class="cls-3" d="M2362.31,2059.4a51.78,51.78,0,0,0,31.79,2.88c21-4.91,31.08-21.58,32.88-24.66"/><polyline class="cls-3" points="2645.83 1997.3 2629.4 2082.74 2655.08 2100.75 2708.51 2042.98 2725.98 2023.22 2805.97 2013.95"/><polygon class="cls-3" points="2663.32 2253.64 2663.32 2219.98 2645.83 2184.55 2612.98 2184.55 2596 2205.62 2596 2262.89 2663.32 2253.64"/><path class="cls-3" d="M2842.09,2064.33l-46-21.35v20.61l-11.37,24.46-43.94,21.5-36.4,14.16v81.91l-12.35,20,12.35,26.88,36.4-6.07,22.71-22.74,42.46-1.15,45.85,23.89h33.42l47.27-79.38-90.42-102.75,4.11-32.88c-5.11-4.23-13.21-11.21-22.61-20.55-13-12.88-15-16.91-22.6-20.55-13-6.21-26.55-3.64-34.94-2-17.55,3.33-23.58,10.14-34.93,14.38-12.67,4.74-32.63,6.51-63.71-8.49l-118.28-11.42-105.88-10.94c-6.7-9.7-26.2-40.62-22.44-82.17.91-10,3.55-35.35,22.61-59.6a107.63,107.63,0,0,1,39-30.82"/><line class="cls-3" x1="2354.8" y1="2100.75" x2="2596" y2="2205.62"/><line class="cls-3" x1="2356.79" y1="2123.71" x2="2556.44" y2="2205.62"/><line class="cls-3" x1="2347.03" y1="2147.75" x2="2564.16" y2="2242.82"/><path class="cls-3" d="M2440,2137.81a243,243,0,0,1,35.37-28.26c14.2-9.32,23-15.08,35.83-18.5,10.48-2.79,36.79-9.79,57.54,6.16,14.86,11.42,27.3,34.94,18.5,55.49-6.23,14.55-20.2,20.82-24.66,22.6"/><line class="cls-3" x1="2342.56" y1="2287.3" x2="2403.23" y2="2205.62"/><line class="cls-3" x1="2336.05" y1="2222.57" x2="2372.9" y2="2246.46"/><path class="cls-3" d="M2344.16,2315.83c33.3-15.42,58.88-27.93,74.6-35.72,40.62-20.14,61.81-31.8,78.09-22.61,9.49,5.36,12.54,15.12,24.66,16.44,7.27.8,19.5-1.25,22.6-10.27,2.27-6.59-1-15-8.22-20.55"/><polyline class="cls-3" points="2605.76 2171.71 2663.32 2123.71 2515.34 2042.98"/><polyline class="cls-3" points="2651.74 2133.36 2683.04 2153.18 2683.04 2253.64"/><path class="cls-3" d="M2655.08,2100.75a265.84,265.84,0,0,1,166.46-73.41"/><line class="cls-3" x1="2899.36" y1="2037.62" x2="2971.97" y2="2137.81"/><path class="cls-3" d="M2955.4,2114.94l32.59-42.39,51.38-9c-7.85-6.55-16.56-15.19-14.39-20.61,2.73-6.81,19.66-1.1,26.72-10.19,8.15-10.5-8-26.43,0-42.44,3.73-7.46,10.61-10.73,22.6-16.44,22.32-10.62,31.37-4.49,41.1-14.38,9.47-9.63,5.68-20.29,14.39-24.66,7-3.5,14.71.67,26.71,6.16,2.6,1.19,25,9.7,69.87,26.72,28,10.63,35,11.39,34.94,14.38-.3,8.75-60-1.81-121.25,22.61-48.36,19.29-54.15,43-150,119-23.86,18.9-44.05,33.71-57.54,43.37"/><path class="cls-3" d="M3286,1826c56,47,53.64,61.39,51.37,65.76-2.71,5.23-12.08,7.6-30.82,12.33-19.21,4.86-27.23,3.79-34.94,10.69-7.13,6.4-9.44,15.57-10.27,22.37l26.71,20.06a542.82,542.82,0,0,0,53.43-33.89c11.87-8.54,14.71-14.76,22.61-17.17,13.83-4.23,35.29,1.68,69.87,39l-111,20.58a101.34,101.34,0,0,0-4.11,45.18c3.76,26.11,17.75,45.15,34.93,63.71,47.39,51.19,111.26,90.37,139.74,106.86"/><path class="cls-3" d="M3200.4,1835a151.38,151.38,0,0,0,14.16,24.23c9.44,13.18,13.78,14.76,15.92,22.18,3.51,12.12-1.52,30.69-16.44,39-15.28,8.56-36.17,3.71-47.26-12.33"/><polyline class="cls-3" points="3047.59 1980.08 3036.26 1957.16 3086.63 1933.59 3086.63 1969.18"/><polyline class="cls-3" points="3011.93 2025.88 3011.93 1965.72 2974.83 2008.85"/><path class="cls-3" d="M3523.3,2056.2c0,65.78,10.57,119.1,48.31,119.1s84.26-27.55,104.91-100.69c21.4-75.77-24-159.9-61.75-159.9S3523.3,1990.42,3523.3,2056.2Z"/><path class="cls-3" d="M3545.68,2163.36c35.41,0,71.59-21,91-86.5,20.08-67.89-22.53-143.28-57.94-143.28"/><path class="cls-3" d="M3261.31,1982.13a63.63,63.63,0,0,1,16.44,21.58c7.18,15.78,3,25.39,6.16,40.07,2.75,12.78,13.13,23.93,33.91,46.24,23.12,24.83,31.34,28.13,46.24,47.78a202.4,202.4,0,0,1,20,32.37"/><circle class="cls-3" cx="3296.91" cy="1988.97" r="6.83"/><circle class="cls-3" cx="3303.75" cy="2023.3" r="6.83"/><circle class="cls-3" cx="3322.7" cy="2064.05" r="6.83"/><circle class="cls-3" cx="3370.58" cy="2115.55" r="6.83"/><circle class="cls-3" cx="3414.92" cy="2167.08" r="6.83"/><circle class="cls-3" cx="2769.78" cy="2989.04" r="14.33"/><circle class="cls-1" cx="2792.25" cy="3154.65" r="14.33"/><circle class="cls-1" cx="2814.91" cy="3082.03" r="14.33"/><circle class="cls-3" cx="2829.25" cy="2897.29" r="14.33"/><circle class="cls-3" cx="2912.47" cy="2803.32" r="14.33"/><circle class="cls-3" cx="2974.83" cy="2728.1" r="14.33"/><circle class="cls-1" cx="3092.63" cy="2765.96" r="14.33"/><circle class="cls-1" cx="3200.69" cy="2765.96" r="14.33"/><circle class="cls-1" cx="3216.1" cy="2545.67" r="14.33"/><circle class="cls-1" cx="3275.64" cy="2362.82" r="14.33"/><circle class="cls-1" cx="3476.27" cy="2584.12" r="14.33"/><circle class="cls-1" cx="3537.71" cy="2514.41" r="14.33"/><circle class="cls-1" cx="3641.67" cy="2487.05" r="14.33"/><circle class="cls-1" cx="3783.8" cy="2707.64" r="14.33"/><circle class="cls-1" cx="3990.13" cy="2665.42" r="7.36"/><circle class="cls-1" cx="4027.32" cy="2665.42" r="7.36"/><circle class="cls-1" cx="4019.96" cy="2600.69" r="7.36"/><circle class="cls-1" cx="3990.13" cy="2600.69" r="7.36"/><circle class="cls-1" cx="3798.13" cy="2648.94" r="14.33"/><circle class="cls-1" cx="3724.21" cy="2777.69" r="14.33"/><circle class="cls-1" cx="3626.28" cy="2813.15" r="14.33"/><circle class="cls-1" cx="3123.62" cy="2522.47" r="14.33"/><circle class="cls-3" cx="2811.56" cy="2382.86" r="14.33"/><circle class="cls-3" cx="3060.43" cy="2660.75" r="14.33"/><polyline class="cls-3" points="2915.34 2059.67 2948.95 2025.29 3008.99 2037.62"/><path class="cls-1" d="M4519,2708.58c0,96.3-22.89,198.3-119.19,198.3-91.21,0-148-142.07-148-238.38s39-187,115.62-172.62C4451.28,2511.63,4519,2604.8,4519,2708.58Z"/><path class="cls-1" d="M4425.31,2904.2c-117,89-191-159.18-191-255.49s32.46-181.54,109-167.16"/><path class="cls-3" d="M4519,2708.58c0,96.3-20.55,198.3-107,198.3-81.87,0-132.82-142.07-132.82-238.38s35.05-187,103.79-172.62C4458.21,2511.63,4519,2604.8,4519,2708.58Z"/><path class="cls-3" d="M4519,2693.5c0,52.82-11.27,108.75-58.68,108.75-44.9,0-72.84-77.91-72.84-130.73s19.22-102.55,56.92-94.66C4485.64,2585.49,4519,2636.59,4519,2693.5Z"/><circle class="cls-1" cx="4372.03" cy="2847.67" r="15.41"/><circle class="cls-1" cx="4316.55" cy="2728.1" r="15.41"/><circle class="cls-1" cx="4316.55" cy="2591.44" r="15.41"/><circle class="cls-1" cx="4356.62" cy="2528.61" r="15.41"/><circle class="cls-1" cx="4472.9" cy="2728.1" r="15.41"/><line class="cls-1" x1="4316.55" y1="2641.79" x2="4356.62" y2="2641.79"/><line class="cls-1" x1="4301.14" y1="2656.17" x2="4372.03" y2="2656.17"/><line class="cls-1" x1="4316.55" y1="2680.83" x2="4372.03" y2="2680.83"/><line class="cls-3" x1="4514.68" y1="2656.17" x2="4751.01" y2="2641.79"/><line class="cls-3" x1="4518.97" y1="2708.58" x2="4756.55" y2="2657.66"/><path class="cls-3" d="M4833.11,2639c0,22.76-18.46,31.73-41.22,31.73s-41.22-9-41.22-31.73,18.45-27.87,41.22-27.87S4833.11,2616.23,4833.11,2639Z"/><path class="cls-3" d="M2544.83,2289.35l239.72-12.79,37-13.67h41.61l87.85-10.36,85.26-17.63,75-11.18h39.05l129.46-30.22h164.4c29.21-.92,67.77-1.41,113,0,27.8.87,115.24,4.25,209.61,18.79,115.62,17.83,240.42,37.06,374,111,53.83,29.79,134.3,82.4,215.77,172.62"/><path class="cls-3" d="M2314,2402.89l161.45-32.81v-25.83l-48.42,1.11v-10h48.42v-27.67H2427l-70.19,27.67-2-19.51a392.26,392.26,0,0,1,85.23-33.15c23.94-6.14,39.78-7.61,56.82-4.63a111,111,0,0,1,30.82,10.28v14.51h-34.93l-2.06,39.95,24.43-7.45.23,27.48h29.49l-8.94-27.48"/><path class="cls-3" d="M2366.55,2432.81l309.87-70,175.4-37.76,60.65-9.23a220.31,220.31,0,0,1-16.95,54.7c-13.3,28.83-29.2,46.48-33.91,52.4-18.6,23.4-28.69,73,9.25,188"/><path class="cls-1" d="M3257.94,2198.6l32.14,44.22L3166.78,2323c8.51,3.78,23.91,12.17,33.91,29,14.93,25.19,7.84,52.51,3.08,70.9-12.24,47.21-45,76.58-61.65,89.39"/><path class="cls-3" d="M3036.26,2289.35c-18.14,10.89-77,49.32-100.67,124.33-25.2,79.71-.94,169.66,61.65,234.27q-56.79,66.33-114,138.72c-81.39,103.09-154,204.35-218.86,302.08"/><line class="cls-3" x1="2645.83" y1="3054.05" x2="2949.76" y2="2674.64"/><line class="cls-3" x1="2639.51" y1="2996.27" x2="2850.29" y2="2708.58"/><path class="cls-3" d="M3185.27,2234.51c-41.35,13.32-109.49,42.7-163.37,108.28-20.11,24.47-47.32,57.59-55.48,107.88-13.72,84.48,37,151.16,49.32,166.46"/><polygon class="cls-1" points="2974.83 2842.53 3142.12 2813.91 3142.12 2854.53 2989.16 2863.53 2974.83 2842.53"/><polygon class="cls-1" points="2964.09 2906.88 3142.12 2882.95 3142.12 2923.32 2971.97 2933.62 2964.09 2906.88"/><polygon class="cls-1" points="2949.76 2933.62 2899.36 2933.62 2898.14 2911.62 2935.67 2906.88 2949.76 2933.62"/><polygon class="cls-1" points="3086.63 2989.04 3086.63 2954.15 3160.61 2954.15 3160.61 2974.7 3086.63 2989.04"/><rect class="cls-1" x="3142.12" y="3012.4" width="43.15" height="21.89"/><rect class="cls-1" x="3185.27" y="3100.05" width="30.82" height="24.66"/><ellipse class="cls-3" cx="2850.29" cy="2670.51" rx="77.81" ry="29.32"/><path class="cls-1" d="M3107,2508.14l-28.66-23.82a370,370,0,0,0,45.32-27.9c27.9-20.07,42-30.48,49.32-48.9.68-1.72,15.26-39.93-6.16-61.65-8.9-9-20.38-11.52-26.72-12.33"/><circle class="cls-1" cx="3093.42" cy="2393.03" r="34.94"/><circle class="cls-1" cx="2941.53" cy="3039.89" r="9.88"/><circle class="cls-1" cx="3036.26" cy="3003.37" r="9.88"/><circle class="cls-1" cx="3078.3" cy="3020.13" r="9.88"/><circle class="cls-1" cx="3106.79" cy="3054.05" r="9.88"/><circle class="cls-1" cx="3137.95" cy="3100.05" r="9.88"/><circle class="cls-1" cx="3142.12" cy="3134.59" r="9.88"/><circle class="cls-1" cx="3142.12" cy="3170.77" r="9.88"/><circle class="cls-1" cx="3123.62" cy="3206.94" r="9.88"/><circle class="cls-1" cx="3452.42" cy="3335.65" r="9.88"/><circle class="cls-1" cx="3269.59" cy="3457.87" r="9.88"/><circle class="cls-1" cx="3196.08" cy="3518.1" r="11.44"/><circle class="cls-1" cx="3466.69" cy="3168.28" r="9.88"/><circle class="cls-1" cx="3663.06" cy="3112.7" r="9.88"/><path class="cls-1" d="M3176,3144.47c.91,69.94-60.09,110.73-129.89,110.73s-146.93-86-146.93-155.91,64.88-127.7,126.39-126.63C3098.17,2973.91,3175.07,3072,3176,3144.47Z"/><ellipse class="cls-1" cx="3018.03" cy="3136.62" rx="66.61" ry="72.69"/><ellipse class="cls-1" cx="3022.18" cy="3127.19" rx="90.53" ry="97.18"/><path class="cls-1" d="M2898.14,3090.17a144.25,144.25,0,0,0-21.12-46c-13.83-19.91-24.65-39.15-43.15-40.7-11.46-1-21.16,5-26.72,9.24l-14.9,7.42"/><circle class="cls-1" cx="3015.5" cy="3137.49" r="47.32"/><circle class="cls-1" cx="3015.5" cy="3134.59" r="20.81"/><path class="cls-3" d="M2860.58,2362.45c0,33.22-74.21,107.63-112,120.31-42.12,14.12-85.26-3.34-85.26-45.49,0-33.23,47.45-62.24,85.26-74.82C2792.25,2347.92,2860.58,2329.23,2860.58,2362.45Z"/><path class="cls-3" d="M2702.27,2452.62c15.56,6.35,62.17-8.26,74.08-20.51,13.29-13.66,11.93-33.74-7.82-41.79-15.56-6.34-36.66,6.54-48.54,18.82C2706.27,2423.32,2686.71,2446.28,2702.27,2452.62Z"/><path class="cls-1" d="M3086.63,2545.67c11.66,18.26,36.15,58.78,45.61,95.52,1.59,6.19,3.17,13.89,1.66,23.2-3.37,20.72-19.44,33.42-30.83,43.16-47,40.22-35.12,46.59-61.65,63.7-30.11,19.43-36.54,8.95-61.65,28.77-5.91,4.67-40.85,32.25-39,67.82.42,8.33,2.68,13.5,6.16,22.6a607.39,607.39,0,0,1,24.66,82.2"/><polyline class="cls-1" points="3290.08 2242.82 3315.87 2222.57 3370.58 2213.58"/><path class="cls-1" d="M3408.08,2195.29c-25,10.07-59.45,27.52-92.21,58.35-61,57.43-81.5,128.55-105.94,213.47-16.23,56.41-22.81,100.59-26.71,127.41-14.12,97.13-11.61,173.65-10.28,201.39,4.23,88.24,12.31,225.64,92.48,367.85a668.18,668.18,0,0,0,59.59,88.36"/><path class="cls-1" d="M3355.84,3291.17A285.26,285.26,0,0,0,3549,3433"/><path class="cls-1" d="M3383.85,3291.17a254.14,254.14,0,0,0,72,84.94,238.59,238.59,0,0,0,93.12,42.47"/><polygon class="cls-1" points="3245.38 3291.17 3408.08 3282.95 3408.08 3255.2 3245.38 3265.99 3245.38 3291.17"/><polyline class="cls-1" points="3022.78 3252.12 3015.5 3291.17 3185.27 3291.17"/><polyline class="cls-1" points="3062.82 3254.39 3062.82 3262.91 3194.52 3255.2 3194.52 3314.91 3053.1 3323.02 3053.1 3306.8 3185.27 3306.8"/><line class="cls-1" x1="3046.14" y1="3273.19" x2="3194.52" y2="3273.19"/><path class="cls-1" d="M3408.08,3255.2a550.13,550.13,0,0,0,174.84,152.59"/><path class="cls-3" d="M3493.52,2192.62a294.89,294.89,0,0,0-85.44,50.2c-50.19,42.49-71.8,90.6-93.34,140-35.4,81.22-44.48,150.1-51.38,205.5a935.06,935.06,0,0,0-6.16,162.34c6.19,120.48,34.9,209.17,53.43,265.1,33.31,100.52,57.38,173.15,121.24,248.65,53.67,63.45,112.33,101.6,152.07,123.3"/><polyline class="cls-1" points="3408.08 2223.72 3377.42 2252.53 3355.84 2243.12 3290.08 2323.26"/><path class="cls-1" d="M3363.75,2262.89c-12.67,19.69-29.63,47.33-47.88,81.36-25.81,48.1-49.55,100.31-62.78,137.25-33.85,94.49-31.35,179.6-28.77,267.15,2,68.34,5.81,170,49.32,293.86a864.1,864.1,0,0,0,100.69,199.34"/><path class="cls-1" d="M3377.42,2289.35c84.47-3.92,154.79-2.46,206.52,0,60,2.85,100.06,7.29,145.91,19.53,66.41,17.74,98.56,39.46,119.19,57.54a236,236,0,0,1,37,41.1"/><path class="cls-1" d="M3799.72,2454.19c32.34-10.21,66-21.91,100.69-35.33a1689.21,1689.21,0,0,0,168.51-76"/><line class="cls-3" x1="3294.97" y1="2434.57" x2="3527.68" y2="2434.57"/><line class="cls-3" x1="3273.95" y1="2882.96" x2="3592.59" y2="2882.96"/><line class="cls-3" x1="3283.34" y1="2479.38" x2="3461.93" y2="2479.38"/><line class="cls-3" x1="3259.58" y1="2817.65" x2="3462" y2="2817.65"/><line class="cls-3" x1="3273.73" y1="2518.19" x2="3431.62" y2="2518.19"/><line class="cls-3" x1="3259.58" y1="2780.29" x2="3429.54" y2="2780.29"/><line class="cls-3" x1="3259.58" y1="2728.1" x2="3405.54" y2="2728.1"/><line class="cls-3" x1="3267.7" y1="2557" x2="3412.4" y2="2557"/><circle class="cls-1" cx="3626.28" cy="2646.64" r="124.26"/><circle class="cls-1" cx="3624.78" cy="2648.94" r="200.14"/><ellipse class="cls-3" cx="3622.71" cy="2649.21" rx="229.93" ry="235.53"/><line class="cls-3" x1="3256.07" y1="2700.63" x2="3398.12" y2="2699.83"/><line class="cls-3" x1="3263.36" y1="2588.36" x2="3400.55" y2="2588.36"/><polyline class="cls-3" points="3256.06 2680.83 3275.64 2680.83 3275.64 2660.75 3317.82 2660.75 3317.82 2630.41 3392.78 2630.41"/><path class="cls-3" d="M4257.52,2528.61c-37.06-58.32-100.78-140.4-203-207.4-234.23-153.55-488.58-108.61-551.77-95.56"/><path class="cls-3" d="M4435.3,2904.09c-56.85,121.33-120.36,197.46-161.91,240.38-21,21.75-39.59,38.23-43.15,41.38-59.05,52.25-105.59,77-186.49,123.3-143.92,82.44-124.56,77.54-158.75,92.47-81.15,35.45-155.29,47.82-208.07,52.41L3664.6,3471l-141.79,4.62-26.2,7.71q-4.64,6.93-9.25,13.87l-70.9-1.54-33.91-10.79-158.75,13.87c7.57,15.35,8,31.68,0,40.07-11.62,12.16-36.07,2.49-46.23-1.54a86.27,86.27,0,0,1-33.91-24.66,129.2,129.2,0,0,1-18.5,9.25c-41.08,16.58-81,8-101.72,1.54a121.93,121.93,0,0,1,7.71,37c2.16,45-22,77.71-30.83,89.39a158,158,0,0,1-60.1,47.78l-146.42,6.17c8.36,4.18,12.73,13.26,10.79,21.57a19.27,19.27,0,0,1-13.88,13.88c.77,1.77,5.3,12.73,0,21.57-8.49,14.19-33.27,7.91-34.28,7.49l-.31-.13c-1.78-.78-2.15-1.21-2.4-1.19-1.37.11,1.62,14.85-3.08,18.49-5.83,4.53-20.74-10.2-26.2-6.16-2.16,1.6-3.16,6.37,1.54,20l-121.76-1.54-24.66-23.12c-66.88,5.74-137.36,9.57-211.15,10.79q-52,.87-101.72,0l-60.11-55.48a196.28,196.28,0,0,1-134.09-24.66"/><path class="cls-3" d="M2087.05,3713.05c-14.15-.3-35.19-.54-60.79,0-39.47.83-48.25,2.64-61.65-.1-19-3.87-44.55-16.32-70.9-55.48H1866l12.33,15.41a238.51,238.51,0,0,1-35.45,10.79c-31.13,6.88-61.88,7-129.47-4.62-32.1-5.55-72.43-13.75-118.67-26.2-41,55.12-83.27,117.23-124.84,186.49A2280.11,2280.11,0,0,0,1345,4078.23"/><line class="cls-1" x1="3078.3" y1="3432.96" x2="3441.12" y2="3401.62"/><polygon class="cls-1" points="3392.78 3387.75 3355.84 3344.6 3058.47 3366.17 3100.39 3407.79 3392.78 3387.75"/><path class="cls-1" d="M3058.47,3417.29c-33.76-49.24-70.9-73.59-94.38-85.79-20.13-10.46-57.32-29.78-74.74-14.65-11.18,9.72-9.46,29.52-7.7,40.08"/><path class="cls-1" d="M2618.17,3269.33c19.55,5.23,44.19,12.35,72.36,21.84,48.65,16.37,83.38,31.55,115.6,45.72,61.92,27.24,93.31,41.25,114,60.11,24.87,22.61,24.3,32.23,44.7,44.7,42.23,25.81,92.9,14,113.42,9.76,71.47-14.93,189.59-25.29,362.82-32.88"/><ellipse class="cls-1" cx="2974.85" cy="3386.8" rx="24.66" ry="77.17" transform="matrix(0.54, -0.84, 0.84, 0.54, -1482.68, 4058.07)"/><path class="cls-1" d="M3549,3336.89a1316,1316,0,0,0,348.32-121.76l23.12,21.58a284.73,284.73,0,0,1-43.16,35.45c-44,29.36-83,37.37-134.09,49.32-36.26,8.47-89.69,21.51-157.2,40.07Z"/><path class="cls-4" d="M3646.11,3376.19a994.59,994.59,0,0,0,272.8-97.87"/><path class="cls-4" d="M3687.72,3386.8a830.79,830.79,0,0,0,245.06-102.31"/><path class="cls-4" d="M3728.75,3395.75a830.42,830.42,0,0,0,245.06-102.31"/><path class="cls-4" d="M3802.46,3396.56a830.8,830.8,0,0,0,236-121.82"/><path class="cls-4" d="M3549,3293.44a439.06,439.06,0,0,0,104.8-29l9.25,20a230.51,230.51,0,0,1-114,29.28Z"/><path class="cls-4" d="M4234.35,3144.47a211.67,211.67,0,0,1-71.93-9.88c-48.9-15.66-79.76-45.42-94-61.25l-67.82,43.15a203.32,203.32,0,0,0,44.7,52.4c51,42.31,108.66,47.13,131,47.78l16.31.15"/><path class="cls-4" d="M4029.88,3113.92l44.69,41.48a16.5,16.5,0,0,0,24.66-20.41l-44.69-40.08"/><polygon class="cls-4" points="4143.93 3180.65 4162.42 3160.88 4213.28 3160.88 4196.33 3184.81 4143.93 3180.65"/><path class="cls-4" d="M4291.82,3124.71a296.69,296.69,0,0,1-87.78-29.8c-39.34-20.8-54.11-40.4-78.61-58.56-50.62-37.54-105.55-41.36-175.7-46.24-77.3-5.38-131.77,8.1-211.15,27.74-96.92,24-135.78,49.23-163.37,77.06a236.42,236.42,0,0,0-24.66,29.29c1.82,32,1.87,55.29,1.54,70.9s-1,22.78,0,37c1.36,19,3.82,23.57,1.54,30.82-2.88,9.19-12.61,20.23-43.15,27.74a67.91,67.91,0,0,0-10.79-18.49c-13.56-16.46-28.7-18.29-47.78-30.83-11.87-7.8-18.48-15.29-30.83-29.28-23.48-26.62-48.51-55-44.69-89.39.33-3,3.19-26,20-41.62,28.25-26.18,86.31-22.64,138.72,15.42"/><ellipse class="cls-4" cx="3472.24" cy="3174.85" rx="45.85" ry="68.43" transform="translate(-1232.49 3134.34) rotate(-41.94)"/><ellipse class="cls-4" cx="3466.69" cy="3168.28" rx="26.44" ry="39.45" transform="translate(-1229.52 3128.94) rotate(-41.94)"/><ellipse class="cls-4" cx="3663.06" cy="3113.92" rx="26.44" ry="39.45" transform="translate(-1142.88 3246.27) rotate(-41.94)"/><ellipse class="cls-4" cx="3666.63" cy="3112.7" rx="49.22" ry="55.46" transform="translate(-1141.14 3248.34) rotate(-41.94)"/><path class="cls-4" d="M3380.86,3154.65a70.3,70.3,0,0,1,11.92-42.27c14.63-21.33,36.59-26.85,42.18-28.25,44.33-11.14,81.1,25.55,83.22,27.74"/><path class="cls-5" d="M3838.85,3419.69c4.39,5.63,5.05,15.42,18.41,22,10,4.93,26.08,3.41,37.79-2.06,12.4-5.79,16-21.86,18.27-31.69a71.3,71.3,0,0,0,1.52-21.14"/><path class="cls-4" d="M4155.55,3061.57a604.64,604.64,0,0,1,151.75-143.9"/><path class="cls-4" d="M4257.52,3087.21c17.9-24.2,33-43.56,43.62-57,13.18-16.65,20.1-24.88,29.28-38.53a352.27,352.27,0,0,0,27.74-49.32"/><polygon class="cls-1" points="2814.91 3168.28 2814.91 3145.24 2923.95 3144.47 2926.8 3168.98 2814.91 3168.28"/><polygon class="cls-1" points="2850.3 3082.03 2880.37 3082.03 2890.38 3100.05 2850.3 3100.05 2850.3 3082.03"/><ellipse class="cls-1" cx="2960.25" cy="3589.65" rx="40.07" ry="60.11"/><path class="cls-1" d="M2944.84,3509.51a133.86,133.86,0,0,0-50.86,64.73c-14.83,40.64-5,75.68-1.54,86.31H2763"/><path class="cls-1" d="M2899.21,3672.88l-150.37,7.71a56.34,56.34,0,0,1-24.4-13.87c-13.35-13.12-23.06-36.67-13.87-58.57,9-21.37,30.51-28.26,33.91-29.28-2.6-7.91-7.42-26.25-1.54-47.78,2.14-7.86,10.58-38.81,40.07-49.32,17.81-6.35,43.91-5.46,60.11,12.33,19.19,21.07,10.63,50.67,9.24,55.48-6.67,23.12-24.1,35.21-29.28,38.53"/><circle class="cls-1" cx="2792.25" cy="3529.55" r="23.89"/><circle class="cls-1" cx="2432.48" cy="3461.73" r="23.89"/><polyline class="cls-1" points="2803.09 3608.15 2870.34 3608.15 2870.34 3632.81 2806.59 3632.81"/><ellipse class="cls-1" cx="2768.36" cy="3721.43" rx="20.04" ry="11.56"/><ellipse class="cls-1" cx="2766.19" cy="3751.91" rx="14.69" ry="8.48"/><polygon class="cls-3" points="2579.56 3774.6 2601.14 3760.39 2608.85 3732.99 2724.44 3743.44 2724.44 3766.9 2579.56 3774.6"/><rect class="cls-1" x="2257.44" y="3732.99" width="291.3" height="18.92"/><line class="cls-1" x1="2300.6" y1="3766.9" x2="2548.74" y2="3766.9"/><path class="cls-3" d="M1212.48,2950c-5.51-9.91-15-23.25-30.83-31-24.26-11.86-43.13-.62-80.14,2.2-28.77,2.19-30-3.64-104.81-14.39,0,0-23-3.3-90.42-10.27-71.6-7.41-394.29-30.43-834.84-57.54v51.85c24.17,4.83,60.74,12,105.32,20.07,164.48,29.87,202.85,29.92,363.73,55.49,110.91,17.62,270.15,42.93,380.18,69.87,11.27,2.76,40.21,10,80.14,16.44a970.17,970.17,0,0,0,139.74,12.33l19.43,3"/><polygon class="cls-1" points="3374.33 3444.68 3462.3 3432.96 3509.96 3457.87 3408.08 3467.76 3376 3467.76 3374.33 3444.68"/><polygon class="cls-1" points="3078.3 3467.76 3200.69 3457.87 3200.69 3491.01 3134.51 3491.01 3078.3 3491.01 3078.3 3467.76"/><circle class="cls-1" cx="3627.11" cy="2646.42" r="97.1"/><path class="cls-3" d="M1438.19,2947.67a195.82,195.82,0,0,0,0,60.93c15.44,96.49,105,152,125.69,164.92,25.19,15.73,51.72,26.93,75.52,37a756.2,756.2,0,0,0,77.06,27.74l21,5.35"/><path class="cls-1" d="M1621.56,3252.12a133.68,133.68,0,0,1,30.17,6.17c11,3.61,47.08,15.47,64.73,46.23,9.57,16.67,2.52,19.36,18.5,66.28,5.85,17.18,9,23.37,13.87,29.28,12.83,15.67,34.84,31,46.24,24.66,10.52-5.87,2.13-24.64,15.41-34.93,9.6-7.44,17.59-.44,32.88-8.22,14-7.14,11.65-15.25,22.61-20.55,17-8.23,39,3.41,63.7,16.44a236.23,236.23,0,0,1,34.94,22.6l4.11-41.1h0"/><path class="cls-1" d="M1637.31,3233.63a92.94,92.94,0,0,1,42.16,6.5c42.81,17.79,59.32,65.52,63.2,76.72,8.39,24.27,3.56,30.67,13.87,50.87,10.72,21,26.47,34.69,38.53,43.15"/><path class="cls-1" d="M1553.09,3334,1345,3345.35a104.31,104.31,0,0,1-3.63-48.53c6.61-39.61,34.76-62.23,42.17-67.82l151-18.49a69.73,69.73,0,0,0-23.13,22.87c-21.81,35.75-.34,78.32,1.55,81.93l10.33,17.3"/><ellipse class="cls-1" cx="1571.12" cy="3286.8" rx="27.39" ry="57.8"/><ellipse class="cls-1" cx="1571.12" cy="3283.03" rx="14.64" ry="27.74"/><path class="cls-3" d="M1962.42,3178.82l29.57,47.06,9.61,1.58c91,40,268.87,102,487,70.9a853.22,853.22,0,0,0,203.44-55.49,674.75,674.75,0,0,1,58.57-157.2c8.57-16.39,18.75-34.18,80.15-120.22,97.54-136.7,146.9-205.33,175.7-218.86,28.31-13.3,75.37-27.68,86.31-64.73a66,66,0,0,0,0-37c-6.84-22.3-24.25-31.41-37-43.15-32.26-29.74-35-76.68-37-111-1.2-20.62-4.51-77.49,30.82-126.39,6.11-8.45,15.6-19.74,67.82-56.69,40.07-28.34,74.41-49.94,98.64-64.55l-22.31-29.54-53.73,29.54L3062,2258.36l-53,19.83-169,24.65L2827.7,2323H2676.42l-87.09,12.36-53.44,0,28.27-27.67,220.39-13.18"/><path class="cls-3" d="M1986.39,3162.74l38.31,38,25.93,12.84c24.93,6.08,63.31,15.66,110.06,28.26,64,17.25,109,30.77,116.27,32.88,56.39,16.28,164.77,14.75,392.51-61.65"/><path class="cls-3" d="M2587.24,3194.52c-128.85,24.72-240.5,7.21-249.39-39.11s88.37-103.9,217.22-128.62"/><ellipse class="cls-3" cx="2570.95" cy="3110.91" rx="54.71" ry="87.56"/><polygon class="cls-3" points="1387 2670.51 1402.06 2650.99 1571.12 2695.73 1571.12 2726.56 1550.84 2726.56 1387 2670.51"/><polyline class="cls-3" points="1707.65 2813.91 1724.17 2813.91 1716.19 2768.76 1598.51 2719.39 1593.16 2695.73 1571.12 2695.73"/><line class="cls-3" x1="1571.12" y1="2726.56" x2="1660.52" y2="2793.1"/><path class="cls-1" d="M1345,3345.35c11.68,24.58,22.79,46.51,32.8,65.52,18.62,35.36,29.15,52.44,47.35,69.36a174.58,174.58,0,0,0,16.95,13.87,174.24,174.24,0,0,0,57,3.08c28.59-3.24,48.23-12.85,75.52-26.2,34.29-16.78,52-25.46,69.36-44.7,7.53-8.37,13.28-16.83,26.2-24.66,15.24-9.23,30.77-11.7,41.61-12.33l20,3.09"/><path class="cls-1" d="M1769.38,3432.45l-43.67-10.65-66.36,43c-17.1,21.07-45.64,49.37-88.23,67.81-16.64,7.2-40,17-72,16.95-11.13,0-52.6-.66-89.39-27.74-21-15.47-27.67-30.12-63.19-94-20.44-36.75-37-65.6-46.24-81.68"/><path class="cls-1" d="M1650.81,3474.77a96.15,96.15,0,0,0,38.43,16.24c14.07,2.47,29.29,1.64,70.38-12.33a694.39,694.39,0,0,0,72.44-29.28"/><polyline class="cls-1" points="1702.08 3437.12 1859.95 3424.74 1859.95 3491.01 1781.02 3491.01 1781.02 3507.97 1702.08 3507.97 1702.08 3558.83"/><line class="cls-3" x1="1321.82" y1="3582.04" x2="1324.99" y2="3548.04"/><line class="cls-3" x1="1519.19" y1="3632.81" x2="1523.35" y2="3590.08"/><path class="cls-3" d="M1787.36,3563.45l4.63,32.37c-65.17,14.65-120,23.63-160.29,29.28-57.86,8.12-87.3,12.09-112.51,7.71-51-8.86-60.32-29.24-131-43.16-39.74-7.82-69.21-7.75-75.52-7.7-31.32.25-46.43,4.7-83.23,9.25a829.22,829.22,0,0,1-97,6.16v-38.53c10.6.23,26.64.41,46.14,0,92.75-2,97.74-14.06,146.42-10.79,31,2.08,28.13,6.93,134.09,29.28,4,.84,25.34,5.34,53.94,10.79,20.14,3.84,30.21,5.76,33.91,6.17,26.08,2.85,48-.17,80.14-4.63,22.69-3.13,33.51-5.87,49.32-1.54,7.15,2,10.69,4.1,18.5,4.63,15.94,1.07,27.75-6,37-10.79,6.53-3.36,22.85-8.41,55.48-18.5,17.29-5.34,43-11.31,77.06-12.33"/><polyline class="cls-3" points="1716.19 3672.88 1716.19 3632.81 1791.99 3632.81 1791.99 3595.82 1816.65 3634.62 1835.4 3634.62 1842.85 3683.67"/><path class="cls-3" d="M965.88,4078.23c3.08-9.25,48.29-289.75,48.29-289.75l49.32-59.6,39-76c5.75-2,14.41-4,21.58,0,8.34,4.63,7.39,13.29,16.44,22.6.54.56,11.24,11.28,25.69,12.33,20.22,1.47,35.23-16.91,39-21.58,21.46-26.27,13.7-61.1,12.33-66.78"/><path class="cls-3" d="M1214.22,4078.23c34.58-74.11,59-134.15,75.32-176.73,6-15.71,13.12-35,5.14-53.43-17.71-40.84-94-41.18-106.86-41.1"/><rect class="cls-3" x="1015.2" y="3977.54" width="98.64" height="16.44"/><rect class="cls-3" x="1025.47" y="3913.83" width="98.64" height="16.44"/><rect class="cls-3" x="1043.67" y="3850.13" width="98.64" height="16.44"/><polyline class="cls-3" points="993.42 4055.07 1030.66 4055.07 1048.64 4019.66 1097.96 4019.66 1097.96 4047.41 1137 4045.86"/><polyline class="cls-1" points="1968.72 3358.98 1991.99 3358.98 1991.99 3400.25"/><polyline class="cls-1" points="2006.22 3400.25 2006.22 3363.6 2024.7 3364.51 2024.7 3395.46"/><polyline class="cls-1" points="2044.41 3381.59 2044.41 3364.51 2087.37 3363.6 2087.37 3400.25"/><path class="cls-1" d="M2180.49,3402.89V3367.2h-61.65v50.09a41.44,41.44,0,0,1,19.93,44.44"/><path class="cls-3" d="M1367.18,3244.19l-56.06-5.94a390.53,390.53,0,0,1-26.2-89.39c-3-17.73-8.87-54.52-4.63-101.72,4.76-52.93,17.58-66.78,7.71-100.19-3-10.14-10.14-33.12-32.37-49.32a84.46,84.46,0,0,0-41.41-15.41"/><path class="cls-3" d="M1311.12,3238.25l-21.58,29.28a473.3,473.3,0,0,1-27.74-89.39,497.34,497.34,0,0,1-9.25-75.52c-1.44-30.43,1.18-32.42,1.54-89.39.33-51.19-1.67-67.2-10.79-84.77a106.3,106.3,0,0,0-27.74-33.91c-28-22.24-59.73-23.13-67.82-23.12-40.07.05-43.5,22.77-87.85,24.66-5.33.23-54.43,1.84-64-21.57-2.72-6.67-1.52-13.58,0-18.5"/><path class="cls-3" d="M1289.54,3267.53v23.64c-4.18-16.25-24.44-87.77-94-128.43-69.18-40.43-159.68-34.31-231.18,15.4q-36.23,65.51-72.44,131H810.21V3096.46l3.55-83.21"/><path class="cls-1" d="M1300.33,3342.68,1251,3359.39l-118.58-4.2h-21.68v30.25l-40.07,22.26-35.45-32.51h-18.49v28.57H939.68v-61.08H995.9c-1.67-3-9.83-18.49-3.82-34.65,7.88-21.17,36.08-32.73,57-23.12,17.8,8.17,22.5,28,23.12,30.83l60.21-1.14,147.86,7.52v-13c-12.81-12.66-31.17-30.36-53.94-50.79-54.34-48.75-82.16-73.31-114-81.76-18.1-4.8-51.16-9.42-97.1,7.71"/><path class="cls-1" d="M1256.29,3548,1243.16,3522c4.56.16,38.73.79,62.91-26.52,27.71-31.31,17-70.76,16.22-73.59l-491.74,95.82-18.8-40.18,485.48-98.92v-32.26"/><line class="cls-1" x1="1132.43" y1="3314.6" x2="1132.43" y2="3355.19"/><line class="cls-1" x1="1164.3" y1="3314.6" x2="1164.3" y2="3355.19"/><line class="cls-1" x1="1189.74" y1="3319.39" x2="1189.74" y2="3357.15"/><line class="cls-1" x1="1215.19" y1="3319.39" x2="1215.19" y2="3359.99"/><line class="cls-1" x1="1243.03" y1="3319.39" x2="1243.03" y2="3359.99"/><circle class="cls-1" cx="1034.41" cy="3329.3" r="17.84"/><path class="cls-1" d="M1933.31,3422.25a194.53,194.53,0,0,0-28.3,72.36c-17.39,102.91,58.36,183.38,69.87,195.23"/><path class="cls-1" d="M2018.34,3422.25a194.87,194.87,0,0,0-28.3,72.36c-17.38,102.91,58.36,183.38,69.87,195.23"/><path class="cls-1" d="M2082,3422.25a194.71,194.71,0,0,0-28.29,72.36c-17.39,102.91,58.36,183.38,69.87,195.23"/><rect class="cls-1" x="1938.66" y="3565.04" width="36.23" height="17"/><rect class="cls-1" x="2488.98" y="3672.09" width="36.23" height="17"/><rect class="cls-1" x="2561.45" y="3675.17" width="36.23" height="17"/><rect class="cls-1" x="2633.89" y="3683.67" width="36.23" height="17"/><rect class="cls-1" x="2627.71" y="3492.1" width="105.46" height="13.92"/><rect class="cls-1" x="2627.71" y="3522.58" width="105.46" height="13.92"/><rect class="cls-1" x="2617.38" y="3552.25" width="105.46" height="13.92"/><rect class="cls-1" x="2599.27" y="3582.69" width="105.46" height="13.92"/><rect class="cls-1" x="2599.27" y="3613.52" width="105.46" height="13.92"/><rect class="cls-1" x="2706.33" y="3692.17" width="36.23" height="17"/><rect class="cls-1" x="1938.66" y="3465.94" width="36.23" height="17"/><rect class="cls-3" x="1043.27" y="2788.45" width="36.23" height="17"/><rect class="cls-3" x="1092.99" y="2733.97" width="48.5" height="14.96"/><rect class="cls-3" x="1181.65" y="2688.25" width="54.67" height="25.97"/><rect class="cls-3" x="1173.43" y="2750.3" width="54.67" height="25.97"/><rect class="cls-3" x="1043.27" y="2818.04" width="36.23" height="17"/><rect class="cls-1" x="1982.61" y="3652.05" width="36.23" height="17"/><polyline class="cls-1" points="2217.37 3632.81 2403.09 3632.81 2403.09 3570.82"/><path class="cls-1" d="M2441.36,3505.66c6.52,15.81,30.24,78.43,0,134.09a121.26,121.26,0,0,1-18.49,25.43l-205.5-4.11"/><polyline class="cls-1" points="2724.44 3666.72 2664.33 3660.55 2601.65 3660.55 2462.27 3660.55 2462.27 3698.06 2724.44 3721.43"/><path class="cls-1" d="M2639.51,3376.19c13.61-11.41,36.53-26.9,66.82-30.05,34.43-3.58,60.49,10.64,100.82,33.39,69,38.91,81.12,66.91,135.63,84.26a221.88,221.88,0,0,0,63.71,10.27"/><path class="cls-1" d="M2445.47,3401.62c15.46,30.55,35.15,42.8,45.21,47.78,14.32,7.09,28.73,8.84,57.54,12.33,34.31,4.16,48.28,1.69,57.54,12.33,8.11,9.31,7.7,23,6.17,32.88"/><path class="cls-1" d="M2587.24,3491c8.27,7.8,12,19.09,9.28,29.29-3.57,13.53-17.87,23.24-33.91,21.58"/><path class="cls-1" d="M2571,3566.17c.33,3.23,1.44,17.33-8.34,29.65a39.93,39.93,0,0,1-17,12.33"/><line class="cls-3" x1="1236.32" y1="2478.93" x2="1321.04" y2="2461.46"/><line class="cls-3" x1="1218.6" y1="2513.34" x2="1329.43" y2="2491.28"/><line class="cls-3" x1="1218.6" y1="2548.17" x2="1329.43" y2="2530.4"/><line class="cls-3" x1="1243.3" y1="1961.83" x2="1264.88" y2="1952.85"/><line class="cls-3" x1="1236.32" y1="1994.19" x2="1264.88" y2="1982.13"/><line class="cls-3" x1="1226.35" y1="2023.22" x2="1264.88" y2="2007.46"/><path class="cls-3" d="M1243.16,3522c-30.67,11.49-57.56,19.68-78.86,25.5-40,10.92-59.92,16.38-87.45,19.06-27.15,2.64-37.94.56-64.73,6.16-24,5-39.21,11.67-49.32,15.41-40.35,14.92-94.69,18.68-141.8,6.17-17.93-4.76-78.19-20.76-117.13-80.15-6-9.18-39.68-62.32-27.75-132.54,16.25-95.6,102.53-137.84,111-141.8l23.12-11.64"/><polygon class="cls-3" points="850.28 3271.29 850.28 3083.61 939.68 3085.67 965.88 3136.53 894.98 3275.06 850.28 3271.29"/></svg>