<svg id="Layer_1" data-name="Layer 1" xmlns="http://www.w3.org/2000/svg" viewBox="0 0 100 115.47"><defs><style>.cls-1{fill:#27b7c5;}.cls-2,.cls-31{fill:#fff;}.cls-3{fill:#300;}.cls-4{fill:#319891;opacity:0.44;}.cls-33,.cls-4{isolation:isolate;}.cls-5{fill:#42680b;}.cls-6{fill:#393;}.cls-7{fill:#dadada;}.cls-8{fill:#004651;}.cls-9{fill:#ededed;}.cls-10{fill:#f6f6f6;}.cls-11{fill:#be1622;}.cls-12{fill:#b2b2b2;}.cls-13{fill:#a3e4e1;}.cls-14{fill:#005e26;}.cls-15{fill:#3d0103;}.cls-16{fill:#009254;}.cls-17{opacity:0.56;}.cls-18{fill:#063;}.cls-19{fill:#630;}.cls-20{fill:#00a9b8;}.cls-21{fill:#037477;}.cls-22{fill:#193b53;}.cls-23{fill:#50777f;}.cls-24{fill:#c6c6c6;}.cls-25{fill:#273438;}.cls-26{fill:#de2d32;}.cls-27{fill:#ff9409;}.cls-28{fill:#1d15b7;}.cls-29{fill:#e50e28;}.cls-30{fill:#9d9d9c;}.cls-31{opacity:0.69;}.cls-32{fill:#ff6;}.cls-33{opacity:0.13;}</style></defs><title>hosp</title><g id="Layer_63" data-name="Layer 63"><polygon class="cls-1" points="100 28.87 100 86.6 50 115.47 10 92.38 9.81 92.27 0 86.6 0 28.87 50 0 100 28.87"/></g><path class="cls-2" d="M92,33.95V81.88h0l-1,.56-.3.17-.12.06-.79.46L87,84.76l-.18.11-1.78,1-.14.08-1.34.78L83.1,87l-.13.07-.42.24-.22.12h-.09l-.1.06L79.41,89l-.74.42-.95.54h0l-1.11.64-.41.23h0l-1.39.8-.78.47-1.14.65h-.13l-.37.22h-.05l-.7.41-.16.08h0l-.91.52-.13.07-.14.08h0l-.29.16-.22.13h-.06l-.58.34-.18.11-.3.17-.23.13h0l-.42.24-.38.22h0l-.51.3L65,97.19l-.57.32h-.05l-3.16,1.83h0l-.36.21-.32.18-.45.26-.13.07-1.56,1.13-.88.51-.35.2h0l-.4.29-.36.21-2.13,1.19-.32.19h0l-.16.09-.45.26-1.69,1-.51.29h0l-.29.17-.43.25-.13-.07-1.15-.67-.77-.44h0l-.89-.47-.15-.09h0l-.55-.32-.15-.09-3-1.75h0l-2-1.15L37.4,98.3,36.85,98l-.62-.35-.84-.44-.2-.11L35.11,97h0l-2-1.16L32,95.19,31.67,95l-.35-.2-.21-.12-.23-.14-.22-.14h-.08l-.35-.21h-.14l-1.17-.67h0l-.14-.07-.33-.2-1.63-1.06-2.26-1.32-1.89-1.08-.74-.42h-.08l-.45-.26h0L21.21,89h0l-.94-.54h0l-1.68-1-.92-.53-1.24-.74-.65-.39h0l-.26-.15h0l-.23-.14h0l-3-1.71L9.15,82H9v-48L14.11,31l.69-.41h0l.23-.13.52-.3,1.58-.91,2-1.18.74-.43.14-.08,1.87-1.07.88-.51.91-.53.38-.22.41-.23.23-.13h0l.51-.3,2.93-1.69,1.43-.83.15-.08,1.5-.86.7-.41.34-.2.4-.23,1-.59.47-.27,2.06-1.17.62-.37,1.26-.69h0l5.16-3,.17-.1.24-.14,5.48-3.17,1.3-.75,1,.56,5.86,3.35,2.34,1.35,3.56,2.06,1.21.69,6,3.45.94.55,2.07,1.15.78.45,1.37.79,1.24.71.72.41.08.05,1.63.94,3.41,2h0l.23.13.23.14.36.21.83.48.49.28h0l1.73,1,.7.4.4.23,1.75,1Z"/><path class="cls-3" d="M62.27,103.82l1.41-.81.06.11a2.73,2.73,0,0,1,.3.73,1.71,1.71,0,0,1,0,.69,1.79,1.79,0,0,1-.9,1.23,1.92,1.92,0,0,1-1.53.19,2.05,2.05,0,0,1-.46-3.77,2,2,0,0,1,.84-.27,2.49,2.49,0,0,1,1,.15l-.17.56a1.44,1.44,0,0,0-1.35,0,1.4,1.4,0,0,0-.7.9,1.44,1.44,0,0,0,.16,1.13,1.39,1.39,0,0,0,1,.7,1.42,1.42,0,0,0,1-.14,1.19,1.19,0,0,0,.53-.65,1.06,1.06,0,0,0,0-.81l-.85.49Z"/><rect class="cls-3" x="65.51" y="99.9" width="0.59" height="3.94" transform="translate(-42.06 46.44) rotate(-29.94)"/><polygon class="cls-3" points="68.31 98.81 69.99 101.74 69.48 102.03 67.79 99.1 67 99.56 66.72 99.07 68.81 97.87 69.09 98.36 68.31 98.81"/><path class="cls-3" d="M73,95.73l.35.61a1.65,1.65,0,0,0-1.14.16,1.36,1.36,0,0,0-.67.89,1.47,1.47,0,0,0,.17,1.13,1.44,1.44,0,0,0,.89.7,1.39,1.39,0,0,0,1.1-.14,1.27,1.27,0,0,0,.41-.35,1.54,1.54,0,0,0,.15-.25,3.12,3.12,0,0,0,.14-.32l.36.62a2.14,2.14,0,0,1-.79.79,2,2,0,0,1-2.75-.68l0-.06A2,2,0,0,1,73,95.74"/><path class="cls-2" d="M75.46,95.58A1.93,1.93,0,0,1,75.28,94a2,2,0,0,1,1-1.25,2.06,2.06,0,0,1,2.8.76,1.94,1.94,0,0,1,.19,1.55,2.09,2.09,0,0,1-2.43,1.48,1.94,1.94,0,0,1-1.34-1m.52-.29a1.46,1.46,0,0,0,2.7-.32,1.53,1.53,0,0,0-1.05-1.83,1.39,1.39,0,0,0-1.11.15,1.41,1.41,0,0,0-.69.89,1.43,1.43,0,0,0,.13,1.1"/><rect class="cls-3" x="80.84" y="91.09" width="0.6" height="3.94" transform="translate(-35.63 52.96) rotate(-29.96)"/><polygon class="cls-3" points="84.37 93.47 82.27 89.81 86.26 90.99 84.9 88.61 85.41 88.32 87.5 91.94 83.51 90.78 84.89 93.17 84.37 93.47"/><g id="Page-1"><g id="r2_d2" data-name="r2 d2"><path id="Shape" class="cls-2" d="M90.49,35.36V81.61h0l-.36.21-.32.18-.54.3-3.61,2.08h0l-.11.07H85.5l-.5.34-.7.39h-.1l-.42.24-1,.57-.74.43-.64.37-.21.11h-.11L81,87l-.87.5h0l-1.74,1-.44.25-.12.07h0l-.12.07h0l-.9.51h-.06l-1,.58-.39.23h0l-.37.21L74,91l-.76.45-1,.58h-.07l-.11.06h0l-.09.05-.25.15h0l-.14.08h0l-.35.2-.23.14-.1.05-.16.08h0l-.6.34h-.05l-.21.12h0l-.25.15-.13.07L69,94l-.21.12h0l-.37.22-.25.15h0l-.26.15-1.18.69-.44.25-.22.12-.61.35h0l-.27.16h0l-.21.13-.73.42-.55.31h0l-.43.25h0l-.46.27-.25.15-.81.46h0l-.22.12-.87.5-.15.09h0l-.46.29-1.24.71-.31.18h-.08l-.21.12-.7.4-.23.13-.25.14h0l-.17.1-.2.11-.3.17-.72.42h-.08l-1.15.66h0l-.69.4-.53.3h0l-1.23.7h0l-.22.12-.49.28h0l-.11.07-.17.1-.24.14h0l-.17.1h0l-1-.57h0l-.17-.1-.74-.43h0l-.29-.17h0l-1.22-.7h0l-1.19-.69h0l-.72-.42h0l-.3-.17-.16-.1h0l-.57-.33H44l-.09-.05-.11-.06-.23-.14-.1-.06h0l-.9-.36-.21-.11-.34-.2h0l-1.22-.71h0l-.1-.06-.32-.19h0L40,98.71l-.54-.31h0l-1.12-.65-.34-.2-.62-.36-.5-.29-.1-.05-.87-.5-1.5-.87h0l-1.15-.66-3.41-2-.14-.08-.5-.29-.43-.26L28.35,92l-.26-.15-.33-.19-.86-.5h0l-2.38-1.38-.09-.05-.16-.09-.58-.33L23,88.86H22.9l-.44-.25h-.07l-.1-.06h0L22,88.4,21.39,88h0l-1.62-.94-.89-.51L17,85.37h-.08l-.22-.18h0l-.24-.14L16,84.81l-.71-.42h-.05l-.43-.25-.61-.35-.59-.34-1.06-.62-.09-.05h0l-.29-.17-.36-.21h0l-.43-.21-.86-.5h-.07V35.36l.68-.39,1.38-.8.31-.18,2.94-1.7.92-.53,5-2.91h0l.79-.45.91-.54L25,26.95h0l.76-.44,3.16-1.81.56-.33.82-.47.15-.08L31.89,23l.68-.39.33-.19.38-.22.58-.34.37-.23.45-.26.44-.24.51-.3,1-.59.6-.36.65-.37.61-.31h0l.37-.22,4.6-2.65.1,0h.07l.23-.14,4.87-2.87.48-.28,1.25-.72.44.26,1,.55,2.49,1.44L57,16.06l2.26,1.31.19.11,4.08,2.35.85.5,4.46,2.58.79.45.9.53,2,1.14.76.44.6.35.72.42.43.24.5.3.26.15.7.4.08.05,1.58.91L80,29.37l1,.57.44.25h0l.23.12.57.34,1.27.73,1.69,1,.68.38.38.22.43.24,1.26.73.15.09.74.43Z"/><path id="Shape-2" class="cls-4" d="M33.42,87.48H66.67a32,32,0,1,0-33.4,0Z"/></g></g><polygon class="cls-5" points="9.44 79.92 8.98 79.92 8.98 81.98 50.46 105.84 92 81.88 92 79.88 91.68 79.88 9.44 79.92"/><g id="Hospital"><g id="Grass"><path class="cls-5" d="M92,79.67a1,1,0,0,0-1.11-.92H10.1A1,1,0,0,0,9,79.67V81a1,1,0,0,0,1.11.92H90.92A1,1,0,0,0,92,81Z"/><rect id="Grass-2" data-name="Grass" class="cls-6" x="8.98" y="69.01" width="83.05" height="11.24" rx="1.11" ry="1.11"/></g><g id="Building"><rect class="cls-7" x="12.67" y="48.17" width="29.13" height="22.8" rx="1.11" ry="1.11"/><rect class="cls-7" x="59.01" y="48.17" width="29.13" height="22.8" rx="1.11" ry="1.11"/><rect class="cls-8" x="10.75" y="46.88" width="29.38" height="2.5" rx="1.11" ry="1.11"/><rect class="cls-8" x="60.8" y="46.88" width="29.38" height="2.5" rx="1.11" ry="1.11"/><rect class="cls-7" x="45.32" y="29.82" width="9.64" height="9.69" rx="1.11" ry="1.11"/><rect class="cls-9" x="37.72" y="39.28" width="24.84" height="31.7" rx="1.11" ry="1.11"/><path class="cls-8" d="M63.48,39.37a1.12,1.12,0,0,0-1.12-1.11H37.91a1.12,1.12,0,0,0-1.12,1.11v.28a1.12,1.12,0,0,0,1.12,1.11H62.36a1.12,1.12,0,0,0,1.12-1.11Z"/><circle class="cls-10" cx="50.14" cy="34.27" r="3.15"/><path class="cls-11" d="M52.14,33.31h-1v-1a.36.36,0,0,0-.36-.36h-1.2a.36.36,0,0,0-.36.36v1h-1a.36.36,0,0,0-.36.36v1.2a.36.36,0,0,0,.36.36h1v1a.36.36,0,0,0,.36.36h1.2a.36.36,0,0,0,.36-.36v-1h1a.36.36,0,0,0,.36-.36v-1.2A.36.36,0,0,0,52.14,33.31Z"/><g id="Door"><rect class="cls-12" x="43.65" y="59.58" width="13.1" height="11.4"/><rect class="cls-7" x="46.01" y="59.58" width="8.34" height="11.4"/><rect class="cls-12" x="49.77" y="59.39" width="0.77" height="11.59"/><path class="cls-8" d="M58,59.39A1.11,1.11,0,0,1,56.9,60.5H43.56a1.11,1.11,0,0,1-1.11-1.11h0a1.11,1.11,0,0,1,1.11-1.11H56.9A1.11,1.11,0,0,1,58,59.39Z"/><path class="cls-8" d="M49.4,65.54a.26.26,0,0,1-.26.26H48.08a.26.26,0,0,1-.26-.26h0a.26.26,0,0,1,.26-.26h1.05a.26.26,0,0,1,.26.26Z"/><path class="cls-8" d="M52.45,65.54a.26.26,0,0,1-.26.26H51.14a.26.26,0,0,1-.26-.26h0a.26.26,0,0,1,.26-.26h1.05a.26.26,0,0,1,.26.26Z"/></g></g><g id="Window"><path class="cls-1" d="M27.6,51.14H23.71a1.11,1.11,0,0,0-1.11,1.11v3.89a1.11,1.11,0,0,0,1.11,1.11H27.6a1.11,1.11,0,0,0,1.11-1.11V52.25A1.11,1.11,0,0,0,27.6,51.14Z"/><path class="cls-1" d="M36.49,52.11a1.11,1.11,0,0,0-1.1-1H31.49a1.11,1.11,0,0,0-1.11,1.11v3.89s0,.06,0,.09a1.11,1.11,0,0,0,1.11,1h3.89a1.11,1.11,0,0,0,1.11-1.11V52.25A1.12,1.12,0,0,0,36.49,52.11Z"/><path class="cls-1" d="M35.38,58.56H31.49a1.11,1.11,0,0,0-1.11,1.11v3.89a1.12,1.12,0,0,0,1.11,1.11h3.89a1.11,1.11,0,0,0,1.11-1.11V59.67A1.11,1.11,0,0,0,35.38,58.56Z"/><path class="cls-1" d="M19.9,51.16l-.18,0H15.83a1.11,1.11,0,0,0-1.11,1.11v3.89a1.11,1.11,0,0,0,1.11,1.11h3.89a1.11,1.11,0,0,0,1.11-1.11V52.25A1.11,1.11,0,0,0,19.9,51.16Z"/><path class="cls-1" d="M19.87,58.57h-4a1.11,1.11,0,0,0-1.11,1.11v3.89a1.11,1.11,0,0,0,1.11,1.11h3.89a1.11,1.11,0,0,0,1.11-1.11V59.67A1.11,1.11,0,0,0,19.87,58.57Z"/><path class="cls-1" d="M28.1,58.68a1.11,1.11,0,0,0-.5-.12H23.71a1.11,1.11,0,0,0-1.11,1.11v3.89a1.11,1.11,0,0,0,1.11,1.11H27.6a1.11,1.11,0,0,0,1.11-1.11V59.67A1.11,1.11,0,0,0,28.1,58.68Z"/><path class="cls-1" d="M52.11,42.06H48.22a1.11,1.11,0,0,0-1.11,1.11v3.92a1.11,1.11,0,0,0,1.11,1.08h3.89a1.11,1.11,0,0,0,1.11-1.11V43.17A1.11,1.11,0,0,0,52.11,42.06Z"/><path class="cls-1" d="M59.9,42.06H56a1.11,1.11,0,0,0-1.11,1.11v3.89A1.11,1.11,0,0,0,56,48.17h4a1.11,1.11,0,0,0,1-1.08V43.17A1.11,1.11,0,0,0,59.9,42.06Z"/><path class="cls-1" d="M44.77,49.61a1.11,1.11,0,0,0-.53-.14H40.34a1.11,1.11,0,0,0-1.11,1.11v3.89a1.12,1.12,0,0,0,1.11,1.11h3.89a1.11,1.11,0,0,0,.83-.37,1,1,0,0,1,.17-.26h0a1.11,1.11,0,0,0,.11-.48V50.58A1.11,1.11,0,0,0,44.77,49.61Z"/><path class="cls-1" d="M59.9,49.47H56a1.11,1.11,0,0,0-1.11,1.11v3.89A1.11,1.11,0,0,0,56,55.59H59.9A1.11,1.11,0,0,0,61,54.48V50.58A1.11,1.11,0,0,0,59.9,49.47Z"/><path class="cls-1" d="M44.24,42.06H40.34a1.11,1.11,0,0,0-1.11,1.11v3.89a1.11,1.11,0,0,0,1.11,1.11h3.89a1.11,1.11,0,0,0,1.11-1.11V43.17A1.11,1.11,0,0,0,44.24,42.06Z"/><path class="cls-1" d="M52.11,49.47H48.22a1.11,1.11,0,0,0-1.11,1.11v3.89a1.11,1.11,0,0,0,1.11,1.11h3.89a1.11,1.11,0,0,0,1.11-1.11V50.58a1.12,1.12,0,0,0-1.11-1.11Z"/><path class="cls-1" d="M77.92,51.29a1.11,1.11,0,0,0-.55-.15H73.48a1.11,1.11,0,0,0-1.11,1.11v3.89a1.12,1.12,0,0,0,1.11,1.11h3.89a1.11,1.11,0,0,0,1.11-1.11V52.25A1.11,1.11,0,0,0,77.92,51.29Z"/><path class="cls-1" d="M86.27,52.2a1.11,1.11,0,0,0-1.11-1.06H81.26a1.11,1.11,0,0,0-1.11,1.11v3.89a1.11,1.11,0,0,0,1.11,1.11h3.89a1.11,1.11,0,0,0,1.11-1.11V52.25S86.27,52.22,86.27,52.2Z"/><path class="cls-1" d="M85.56,58.63a1.11,1.11,0,0,0-.41-.08H81.26a1.11,1.11,0,0,0-1.11,1.11v3.89a1.11,1.11,0,0,0,1.11,1.11h3.89a1.11,1.11,0,0,0,1.11-1.11V59.67A1.11,1.11,0,0,0,85.56,58.63Z"/><path class="cls-1" d="M69.49,51.14H65.6a1.11,1.11,0,0,0-1.11,1.11v3.89a1.11,1.11,0,0,0,1.11,1.11h3.89a1.11,1.11,0,0,0,1.11-1.11V52.25A1.11,1.11,0,0,0,69.49,51.14Z"/><path class="cls-1" d="M69.49,58.56H65.6a1.11,1.11,0,0,0-1.11,1.11v3.89a1.11,1.11,0,0,0,1.11,1.11h3.89a1.11,1.11,0,0,0,1.11-1.11V59.67a1.11,1.11,0,0,0-1.11-1.11Z"/><path class="cls-1" d="M77.72,58.61a1.11,1.11,0,0,0-.35-.06H73.48a1.11,1.11,0,0,0-1.11,1.11v3.89a1.11,1.11,0,0,0,1.11,1.11h3.89a1.11,1.11,0,0,0,1.11-1.11V59.67A1.11,1.11,0,0,0,77.72,58.61Z"/><path class="cls-13" d="M28.1,58.68l-4.39,4.69a.59.59,0,0,0,0,.84l.33.3a.59.59,0,0,0,.84,0l3.8-4.06v-.75A1.11,1.11,0,0,0,28.1,58.68Z"/><path class="cls-13" d="M35.75,59.67l-.29-.28a.54.54,0,0,0-.76,0L30.45,64a1.11,1.11,0,0,0,1,.72h.32l4-4.25A.54.54,0,0,0,35.75,59.67Z"/><path class="cls-13" d="M45.35,43.17a1.11,1.11,0,0,0-1.11-1.11H43.3l-4.07,4.36v.64a1.11,1.11,0,0,0,1.11,1.11h.42l4.58-4.92Z"/><path class="cls-13" d="M45.35,47.06V46l-2,2.18h.92A1.11,1.11,0,0,0,45.35,47.06Z"/><path class="cls-13" d="M47.11,47.09l2.55-2.74a1,1,0,0,0,0-1.38l-.06-.06a1,1,0,0,0-1.38,0L47.11,44.1v3Z"/><path class="cls-13" d="M44.24,49.47H42.11l-2.87,3.08v1.92a1.11,1.11,0,0,0,.3.75l5.24-5.62A1.11,1.11,0,0,0,44.24,49.47Z"/><path class="cls-13" d="M52.11,48.17a1.11,1.11,0,0,0,1.11-1.11v-.68l-1.67,1.79Z"/><path class="cls-13" d="M59.9,42.06H57.26L54.9,44.6v2.47a1.11,1.11,0,0,0,.09.43l4.69-5A1,1,0,0,0,59.9,42.06Z"/><path class="cls-13" d="M45.24,55a1,1,0,0,0-.17.26,1.11,1.11,0,0,0,.18-.26Z"/><path class="cls-13" d="M50.35,49.47l-3.24,3.48v1.53a1.11,1.11,0,0,0,.5.93l5.26-5.64a1.11,1.11,0,0,0-.75-.29Z"/><path class="cls-13" d="M60,48.17l1-1.08V45l-3,3.21h2Z"/><path class="cls-13" d="M54.9,51.52v2.12l0,0,3.85-4.13h-2Z"/><path class="cls-13" d="M35.38,51.14h-.23l-4.77,5.1a1.11,1.11,0,0,0,1.11,1h.18l4.82-5.15A1.11,1.11,0,0,0,35.38,51.14Z"/><path class="cls-13" d="M16.34,56.15l.45.42a.81.81,0,0,0,1.15,0l2.89-3.09V52.25a1.11,1.11,0,0,0-.93-1.1L16.3,55A.81.81,0,0,0,16.34,56.15Z"/><path class="cls-13" d="M23.71,57.26h.45l2.75-2.94a.81.81,0,0,0,0-1.15l-.45-.42a.81.81,0,0,0-1.15,0l-2.68,2.86v.49A1.11,1.11,0,0,0,23.71,57.26Z"/><path class="cls-13" d="M20.83,59.67a1.11,1.11,0,0,0-1-1.1L14.8,64a1.11,1.11,0,0,0,1,.69h1.4l3.61-3.86Z"/><path class="cls-13" d="M16.83,59.67l-.24-.23a.44.44,0,0,0-.62,0L14.72,60.8v1.77l2.13-2.28A.44.44,0,0,0,16.83,59.67Z"/><path class="cls-13" d="M65.6,57.26h.51l4.49-4.82v-.19a1.11,1.11,0,0,0-1.11-1.11H68.2l-3.71,4v1A1.11,1.11,0,0,0,65.6,57.26Z"/><path class="cls-13" d="M72.82,57l4.91-5.27a.72.72,0,0,0,.19-.49,1.11,1.11,0,0,0-.55-.15H76.25L72.37,55.3v.84A1.11,1.11,0,0,0,72.82,57Z"/><path class="cls-13" d="M67,62.09l0,0a.73.73,0,0,0,1,0l2.47-2.65a1.11,1.11,0,0,0-1.09-.89h-.16L67,61.06A.73.73,0,0,0,67,62.09Z"/><path class="cls-13" d="M77.36,55.27l-1.86,2h1.87a1.11,1.11,0,0,0,1.11-1.11v-1A.9.9,0,0,0,77.36,55.27Z"/><path class="cls-13" d="M70.61,63.56V62.51l-2,2.16h.9A1.11,1.11,0,0,0,70.61,63.56Z"/><polygon class="cls-13" points="74.29 58.56 72.37 60.62 72.37 63.38 76.87 58.56 74.29 58.56"/><path class="cls-13" d="M85.16,51.14h-.48L80.15,56v.15a1.11,1.11,0,0,0,1.11,1.11h.29l4.71-5.06A1.11,1.11,0,0,0,85.16,51.14Z"/><path class="cls-13" d="M77.72,58.61l-2.56,2.75a.9.9,0,0,0,0,1.28l.06.05a.9.9,0,0,0,1.28,0l2-2.09v-.88A1.11,1.11,0,0,0,77.72,58.61Z"/><path class="cls-13" d="M86.27,56.15v-.25L85,57.26h.16A1.11,1.11,0,0,0,86.27,56.15Z"/><path class="cls-13" d="M83.79,58.56l-3.64,3.9v1.1a1.11,1.11,0,0,0,.21.65l5.2-5.58a1.11,1.11,0,0,0-.41-.08Z"/></g><g id="Trees"><path class="cls-14" d="M90.78,57.39c0,5.63-2.31,7.93-5.15,7.93s-5.15-2.3-5.15-7.93,3.1-10.72,5.15-10.72C87.34,46.67,90.78,51.76,90.78,57.39Z"/><rect class="cls-15" x="84.78" y="56.86" width="1.72" height="15.62" rx="0.6" ry="0.6"/><path class="cls-16" d="M84.81,54.36c0,6.91-2.83,9.74-6.33,9.74s-6.33-2.83-6.33-9.74S76,41.19,78.48,41.19C80.57,41.19,84.81,47.44,84.81,54.36Z"/><rect class="cls-15" x="77.43" y="53.7" width="2.11" height="19.19" rx="0.73" ry="0.73"/><g class="cls-17"><path class="cls-16" d="M18.45,60.31c0,5-2,7-4.55,7s-4.55-2-4.55-7,2.74-9.47,4.55-9.47C15.4,50.83,18.45,55.33,18.45,60.31Z"/><rect class="cls-15" x="13.14" y="59.84" width="1.52" height="13.81" rx="0.53" ry="0.53"/></g><path class="cls-18" d="M21.23,58.59c0,5.63-2.31,7.93-5.15,7.93s-5.15-2.3-5.15-7.93S14,47.87,16.08,47.87C17.79,47.87,21.23,53,21.23,58.59Z"/><rect class="cls-19" x="15.23" y="58.05" width="1.72" height="15.62" rx="0.6" ry="0.6"/></g><g id="Ambulance"><path class="cls-20" d="M46.23,62.81h-18c-.55,0-.64.34-1,.86l-2.37,4H21.57a.92.92,0,0,0-1,.83V73.8a.92.92,0,0,0,1,.83H46.23a.86.86,0,0,0,.81-.58h0v0a.7.7,0,0,0,0-.22V63.67A.86.86,0,0,0,46.23,62.81Z"/><path class="cls-21" d="M32.11,73.53H27.25a1.33,1.33,0,0,1-1.11-1.46V67.59a1.33,1.33,0,0,1,1.11-1.47h4.86a1.33,1.33,0,0,1,1.11,1.47v4.47A1.33,1.33,0,0,1,32.11,73.53Zm-4.86-7c-.39,0-.73.5-.73,1.09v4.47c0,.59.33,1.09.73,1.09h4.86c.39,0,.73-.5.73-1.09V67.59c0-.59-.33-1.09-.73-1.09Z"/><path class="cls-22" d="M28.87,63.4c-.39,0-.45.24-.7.61,0,0-1.77,2.78-1.83,3.1s.31.61.7.61h6.17V63.4Z"/><path class="cls-23" d="M30.85,64.55a.31.31,0,0,0-.44,0l-2.77,3.12h.84L30.88,65A.31.31,0,0,0,30.85,64.55Z"/><path class="cls-23" d="M32.66,63.4l-2.9,3.27a.31.31,0,1,0,.47.42l3-3.37V63.4Z"/><path class="cls-21" d="M33.22,67.85H27a.91.91,0,0,1-.7-.31.56.56,0,0,1-.13-.46A33.83,33.83,0,0,1,28,63.92l.12-.19c.17-.27.3-.48.68-.48h4.4Zm-4.4-4.31c-.23,0-.29.09-.45.35l-.12.2a33.83,33.83,0,0,0-1.77,3,.27.27,0,0,0,.07.23.64.64,0,0,0,.48.21h5.91v-4Z"/><path class="cls-10" d="M33,68.95a.22.22,0,0,1-.22.22H31.66a.22.22,0,0,1-.22-.22h0a.22.22,0,0,1,.22-.22H32.8a.22.22,0,0,1,.22.22Z"/><path class="cls-24" d="M20.65,68.9a.39.39,0,0,1,0-.09h-.06a.15.15,0,0,0-.16.14v1.48a.15.15,0,0,0,.16.14h.06a.4.4,0,0,1,0-.09Z"/><path class="cls-10" d="M21,68.55a.32.32,0,0,0-.29.26.39.39,0,0,0,0,.09v1.55a.4.4,0,0,0,0,.09.31.31,0,0,0,.29.26.33.33,0,0,0,.3-.35V68.9A.33.33,0,0,0,21,68.55Z"/><path class="cls-7" d="M45.44,71.66H44.8a.46.46,0,0,0-.43.49s.16.36.33.64.27.4.51.4h1.87V71.66Z"/><path class="cls-25" d="M47.36,74.21a.42.42,0,0,1-.42.42H20.86a.42.42,0,0,1-.42-.42h0a.42.42,0,0,1,.42-.42H46.94a.42.42,0,0,1,.42.42Z"/><rect class="cls-26" x="45.6" y="71.81" width="1.49" height="1.21"/><path class="cls-27" d="M45,71.81a.39.39,0,0,0-.39.39,5.52,5.52,0,0,0,.3.51.56.56,0,0,0,.46.31h.21V71.81Z"/><path class="cls-21" d="M25.59,71.74a2.89,2.89,0,0,0-2.89,2.89h5.79A2.89,2.89,0,0,0,25.59,71.74Z"/><circle class="cls-25" cx="25.59" cy="74.63" r="2.53"/><path class="cls-21" d="M41.59,71.74a2.89,2.89,0,0,0-2.89,2.89h5.79A2.89,2.89,0,0,0,41.59,71.74Z"/><circle class="cls-25" cx="41.59" cy="74.63" r="2.53"/><circle class="cls-20" cx="25.59" cy="74.63" r="1.89"/><circle class="cls-9" cx="25.59" cy="74.63" r="1.63"/><circle class="cls-25" cx="25.59" cy="74.63" r="0.45"/><circle class="cls-20" cx="41.6" cy="74.63" r="1.89"/><circle class="cls-9" cx="41.6" cy="74.63" r="1.63"/><circle class="cls-25" cx="41.6" cy="74.63" r="0.45"/><path class="cls-9" d="M42.49,66.15H40.83V64.48a.32.32,0,0,0-.32-.32H39.45a.32.32,0,0,0-.32.32v1.67H37.46a.32.32,0,0,0-.32.32v1.06a.32.32,0,0,0,.32.32h1.66v1.66a.32.32,0,0,0,.32.32h1.06a.32.32,0,0,0,.32-.32V67.84h1.67a.32.32,0,0,0,.32-.32V66.46A.32.32,0,0,0,42.49,66.15Z"/><path class="cls-28" d="M30.54,61.89a.46.46,0,0,0,0,.92H31l.72-.92Z"/><path class="cls-29" d="M34.23,61.89H32.07l-.72.92h2.88a.46.46,0,0,0,0-.92Z"/><polygon class="cls-30" points="31.7 61.89 30.98 62.81 31.35 62.81 32.07 61.89 31.7 61.89"/></g><g id="Cloud"><path class="cls-7" d="M23,30.86a3.09,3.09,0,0,1,3.18-3,3.34,3.34,0,0,1,1.2.22s0-.09,0-.13a3.15,3.15,0,0,1,6.27-.43,2,2,0,0,1,.48-.06,2,2,0,0,1,1.75,1,3.06,3.06,0,0,1,.69-.08,2.72,2.72,0,1,1,0,5.43H25.75a.59.59,0,0,1-.26-.06A3,3,0,0,1,23,30.86Z"/><path class="cls-10" d="M45.27,30a2.71,2.71,0,0,0-2.79-2.63,2.93,2.93,0,0,0-1,.19s0-.08,0-.12a2.76,2.76,0,0,0-5.49-.37,1.73,1.73,0,0,0-.42-.05A1.75,1.75,0,0,0,34,28a2.68,2.68,0,0,0-.6-.07,2.38,2.38,0,1,0,0,4.76h9.43A.52.52,0,0,0,43,32.6,2.67,2.67,0,0,0,45.27,30Z"/><path class="cls-10" d="M61.69,36.32a3,3,0,0,1,3.13-3,3.29,3.29,0,0,1,1.18.22s0-.09,0-.13A3.1,3.1,0,0,1,72.17,33a1.94,1.94,0,0,1,.47-.06,2,2,0,0,1,1.72,1,3,3,0,0,1,.68-.08,2.68,2.68,0,1,1,0,5.35H64.45a.58.58,0,0,1-.26-.06A3,3,0,0,1,61.69,36.32Z"/><path class="cls-31" d="M50.12,23.84a2.14,2.14,0,0,1,2.2-2.07,2.31,2.31,0,0,1,.83.15s0-.06,0-.09a2.17,2.17,0,0,1,4.33-.29,1.36,1.36,0,0,1,.33,0,1.38,1.38,0,0,1,1.21.72,2.11,2.11,0,0,1,.47-.05,1.88,1.88,0,1,1,0,3.75H52a.41.41,0,0,1-.18,0A2.1,2.1,0,0,1,50.12,23.84Z"/></g></g><ellipse class="cls-32" cx="55.88" cy="22" rx="4" ry="4.13"/><g id="Layer_2" data-name="Layer 2"><g id="Layer_16" data-name="Layer 16"><path class="cls-33" d="M87.33,31.27,86.85,31l-.65-.38-.7-.43h-.1l-.4-.28-.46-.26-.85-.46-6.54-3.77-1.54-.88L75,24.19,74.59,24l-.44-.26h0l-.38-.23-.45-.28-4.81-2.77L50.92,10.28,50.44,10l-.44.25L34.58,19.19l-4.52,2.59-1.17.68-.48.28h-.09l-.23.14-.38.23-.27.15-.24.14-.16.09-1.35.78h0l-1.63.92h0l-.52.31-.69.39h0l-2.93,1.69h0l-2.15,1.24-.9.52-2.69,1.55-3.87,2.3L8.92,34V81.88H9l1.55.9.68.39.14.07,3.9,2.26.62.35.48.28L18,87.19l1.43.83.41.23,1.17.68,3,1.76,5,2.75.62.36h.06l.14.07.1.06.16.09h0l1.72,1,.79.45,1.2.7.8.46.16.09.28.16.17.1.43.25,3.24,2H39l.4.23.56.32.65.38h0l.48.27,1.36.8,2.86,1.66,4,2.33.93.54.21.12h0l.17-.1.13-.07h0l.28-.16,1.63-.93h.08l.71-.39.45-.26.22-.13,3.47-2,2.21-1.27.67-.39.6-.34.6-.35.38-.26L64.1,98l.35-.2h0l.21-.13.19-.11.57-.32.72-.42,1.14-.66.41-.24h0l.41-.24h0l.23-.13.48-.28.33-.19.32-.19.5-.28.19-.12.29-.16.39-.22h0L71,94l.22-.12,3.41-2,.34-.2,1-.59,2.68-1.54L80,88.76l2.84-1.57,1.7-1,3.24-1.87h.05l2.39-1.38.81-.47.93-.53V34Zm3,49.64-.47.27-.29.16-.52.31-6.85,4-1,.56-1.7,1L78,88l-2.81,1.62L74,90.32l-.65.37-2.65,1.5h-.06l-.14.08-.16.1-.51.29-.83.53-.2.12h0l-.73.42H68l-3.53,2h-.07l-.71.41h-.07l-.82.48-1.94,1.12-1.39.8-1.52.88-1,.57-2.68,1.55-1.11.64h0l-.68.4-.25.14-1.69,1-3.11-1.8-1.11-.64-.59-.09-1.67-1-.65-.37-.62-.36L38,96.75l-.69-.41h0l-1.61-.93-1.86-1.06-.84-.5-.52-.31-.23-.14-.39-.21-.19-.11-1.58-.89L29.81,92l-.17-.1-1.35-.78L25.2,89.34l-3.53-2-.27-.15-1.32-.76-.38-.24L17,84.61l-4.43-2.56-.81-.46-.35-.21-.21-.12-.6-.35v-46l3.53-2,2.69-1.55.84-.49h0l2.89-1.68h0l1.23-.71h0l1.61-.93,1.13-.65.39-.23h0l.69-.4.41-.24h0l2.69-1.55h0l.7-.41.32-.18.18-.11.26-.15.15-.09.24-.14h0l7.34-4.21,12.06-7,.42-.24.48.28L66.1,21l6.3,3.64h0l.29.16.1.05.4.23.32.18,1.11.64,1.75,1,6.33,3.64,1.27.73.5.29h0l.69.4.17.1.49.28.48.28,3.93,2.26v46Z"/></g></g></svg>