<svg xmlns="http://www.w3.org/2000/svg" xmlns:xlink="http://www.w3.org/1999/xlink" viewBox="0 0 110.8 128"><defs><style>.cls-1,.cls-46,.cls-47,.cls-8{fill:none;}.cls-2{isolation:isolate;}.cls-3{fill:url(#linear-gradient);}.cls-4{fill:#393;}.cls-15,.cls-5,.cls-51{fill:#fff;}.cls-6{fill:#006;}.cls-7{fill:#0fce7c;}.cls-8{stroke:#d1d3d4;}.cls-46,.cls-47,.cls-8{stroke-linecap:round;stroke-linejoin:round;}.cls-47,.cls-8{stroke-width:0.25px;}.cls-9{fill:#add7d7;}.cls-10,.cls-12{opacity:0.4;}.cls-10,.cls-12,.cls-18,.cls-28,.cls-32,.cls-35{mix-blend-mode:multiply;}.cls-11,.cls-12,.cls-30{fill:#a3ddd6;}.cls-11{opacity:0.8;}.cls-13,.cls-35{fill:#e6e7e8;}.cls-14{fill:#84d1c9;}.cls-15,.cls-22{mix-blend-mode:soft-light;}.cls-16{fill:#dcddde;}.cls-17{fill:#f1f2f2;}.cls-18{fill:#ededee;}.cls-19{fill:#42404d;}.cls-20{clip-path:url(#clip-path);}.cls-21{fill:#f15d44;}.cls-23{fill:#6a952f;}.cls-24{fill:#8cc541;}.cls-25{fill:#8dc63f;}.cls-26{fill:#a67c52;}.cls-27{fill:#686671;}.cls-28{fill:#b3b3b8;}.cls-29{fill:#231f20;}.cls-31,.cls-32{fill:#f7cdb9;}.cls-33{fill:#dcc2a7;}.cls-34{fill:#a7a9ac;}.cls-36{fill:#a9a9a9;}.cls-37{clip-path:url(#clip-path-2);}.cls-38{fill:#23e697;}.cls-39{fill:#edf2ec;}.cls-40{fill:#15003e;}.cls-41{fill:#16cc7c;}.cls-42{fill:#d6d6ea;}.cls-43,.cls-45{fill:#25e899;}.cls-44{fill:#0e2947;}.cls-45{stroke:#0e2947;stroke-miterlimit:10;stroke-width:0.05px;}.cls-46{stroke:#8b5e3c;stroke-width:0.3px;}.cls-47{stroke:#001736;}.cls-48{fill:#ccc;}.cls-49{fill:#65c6bb;}.cls-50{fill:#ffca05;}.cls-51{opacity:0.5;}.cls-52{fill:#b9d8d7;}</style><linearGradient id="linear-gradient" y1="64" x2="110.8" y2="64" gradientUnits="userSpaceOnUse"><stop offset="0" stop-color="#9077ec"/><stop offset="0.39" stop-color="#96c"/><stop offset="0.66" stop-color="#603fd1"/><stop offset="1" stop-color="#639"/></linearGradient><clipPath id="clip-path"><rect class="cls-1" x="44.65" y="35.3" width="21.67" height="5.08"/></clipPath><clipPath id="clip-path-2"><rect class="cls-1" x="31.13" y="62.76" width="5.77" height="6.46"/></clipPath></defs><title>hospital</title><g class="cls-2"><g id="Layer_1" data-name="Layer 1"><g id="Layer_63" data-name="Layer 63"><polygon class="cls-3" points="110.8 32 110.8 96 55.4 128 11.1 102.4 10.9 102.3 0 96 0 32 55.4 0 110.8 32"/></g><polygon class="cls-4" points="11.13 76.61 10.71 76.77 10.71 89.79 55.91 116 100.5 89.08 100.5 76.61 11.13 76.61"/><g id="Layer_63-2" data-name="Layer 63" class="cls-2"><path class="cls-5" d="M55.5,10.8,9.4,37.4V91.3l46.4,26.8,45.7-27.6V37.4ZM99.8,89.5,55.9,116,11.4,90.2V38.4L55.6,13,99.8,38.5Z"/></g><path class="cls-6" d="M66.6,117.2l1.6-.9.1.1a1.6,1.6,0,0,1,.3.8v.8a2.07,2.07,0,0,1-1,1.4,2,2,0,0,1-1.7.2,2.21,2.21,0,0,1-1.4-1.1,2,2,0,0,1-.2-1.7,2.21,2.21,0,0,1,1.1-1.4,1.61,1.61,0,0,1,.9-.3,2.34,2.34,0,0,1,1.1.2l-.2.6a2,2,0,0,0-1.5,0,1.61,1.61,0,0,0-.6,2.3,1.55,1.55,0,0,0,1.1.8,1.39,1.39,0,0,0,1.1-.2,1.34,1.34,0,0,0,.6-.7,1.39,1.39,0,0,0,0-.9l-.9.5Z"/><rect class="cls-6" x="70.18" y="112.8" width="0.7" height="4.4" transform="translate(-47.99 50.56) rotate(-29.95)"/><polygon class="cls-6" points="73.3 111.6 75.2 114.9 74.6 115.2 72.7 112 71.9 112.5 71.6 111.9 73.9 110.6 74.2 111.1 73.3 111.6"/><path class="cls-6" d="M78.5,108.2l.4.7a1.91,1.91,0,0,0-1.3.2,1.45,1.45,0,0,0-.7,1,2,2,0,0,0,.2,1.3,1.59,1.59,0,0,0,1,.8,1.32,1.32,0,0,0,1.2-.2,1,1,0,0,0,.5-.4c.1-.1.1-.2.2-.3s.1-.2.2-.4l.4.7a2,2,0,0,1-.9.9,2,2,0,0,1-1.7.2,2.43,2.43,0,0,1-1.4-1,2.22,2.22,0,0,1-.3-1.6,2.27,2.27,0,0,1,1.1-1.6,1.8,1.8,0,0,1,1.1-.3"/><path class="cls-7" d="M81.2,108a2,2,0,0,1-.2-1.7,2.21,2.21,0,0,1,1.1-1.4,2,2,0,0,1,1.7-.2,2.21,2.21,0,0,1,1.4,1.1,2,2,0,0,1,.2,1.7,2.42,2.42,0,0,1-2.7,1.7,2.48,2.48,0,0,1-1.5-1.2m.6-.3a1.59,1.59,0,0,0,1,.8,1.32,1.32,0,0,0,1.2-.2,1.59,1.59,0,0,0,.8-1,1.53,1.53,0,0,0-.2-1.3,1.59,1.59,0,0,0-1-.8,1.32,1.32,0,0,0-1.2.2,2,2,0,0,0-.8,1,1.91,1.91,0,0,0,.2,1.3"/><rect class="cls-6" x="87.22" y="103.08" width="0.7" height="4.4" transform="translate(-40.88 57.82) rotate(-29.97)"/><polygon class="cls-6" points="91.1 105.7 88.8 101.7 93.2 103 91.7 100.3 92.3 100 94.6 104 90.2 102.7 91.7 105.4 91.1 105.7"/><line class="cls-8" x1="31.59" y1="100.05" x2="39.39" y2="99.95"/><line class="cls-8" x1="35.85" y1="84.1" x2="31.4" y2="84"/><line class="cls-8" x1="53.8" y1="87.2" x2="61.6" y2="87.1"/><line class="cls-8" x1="69.54" y1="101.7" x2="77.84" y2="101.6"/><line class="cls-8" x1="66.2" y1="100.75" x2="70.4" y2="100.65"/><polygon class="cls-9" points="96.75 45.73 96.75 43.35 92.69 41.32 92.69 45.73 92.01 45.73 92.01 77.22 99.8 77.22 99.8 45.73 96.75 45.73"/><g class="cls-10"><rect class="cls-9" x="93.03" y="47" width="1.27" height="1.27"/><rect class="cls-9" x="95.31" y="47" width="1.27" height="1.27"/><rect class="cls-9" x="97.6" y="47" width="1.27" height="1.27"/></g><g class="cls-10"><rect class="cls-9" x="93.03" y="49.71" width="1.27" height="1.27"/><rect class="cls-9" x="95.31" y="49.71" width="1.27" height="1.27"/><rect class="cls-9" x="97.6" y="49.71" width="1.27" height="1.27"/></g><g class="cls-10"><rect class="cls-9" x="93.03" y="52.41" width="1.27" height="1.27"/><rect class="cls-9" x="95.31" y="52.41" width="1.27" height="1.27"/><rect class="cls-9" x="97.6" y="52.41" width="1.27" height="1.27"/></g><g class="cls-10"><rect class="cls-9" x="93.03" y="55.12" width="1.27" height="1.27"/><rect class="cls-9" x="95.31" y="55.12" width="1.27" height="1.27"/><rect class="cls-9" x="97.6" y="55.12" width="1.27" height="1.27"/></g><rect class="cls-11" x="78.06" y="35.23" width="13.55" height="42"/><g class="cls-10"><rect class="cls-9" x="79.41" y="36.92" width="1.69" height="1.69"/><rect class="cls-9" x="82.46" y="36.92" width="1.69" height="1.69"/><rect class="cls-9" x="85.51" y="36.92" width="1.69" height="1.69"/><rect class="cls-9" x="88.56" y="36.92" width="1.69" height="1.69"/></g><g class="cls-10"><rect class="cls-9" x="79.41" y="40.53" width="1.69" height="1.69"/><rect class="cls-9" x="82.46" y="40.53" width="1.69" height="1.69"/><rect class="cls-9" x="85.51" y="40.53" width="1.69" height="1.69"/><rect class="cls-9" x="88.56" y="40.53" width="1.69" height="1.69"/></g><g class="cls-10"><rect class="cls-9" x="79.41" y="44.15" width="1.69" height="1.69"/><rect class="cls-9" x="82.46" y="44.15" width="1.69" height="1.69"/><rect class="cls-9" x="85.51" y="44.15" width="1.69" height="1.69"/><rect class="cls-9" x="88.56" y="44.15" width="1.69" height="1.69"/></g><g class="cls-10"><rect class="cls-9" x="79.41" y="47.76" width="1.69" height="1.69"/><rect class="cls-9" x="82.46" y="47.76" width="1.69" height="1.69"/><rect class="cls-9" x="85.51" y="47.76" width="1.69" height="1.69"/><rect class="cls-9" x="88.56" y="47.76" width="1.69" height="1.69"/></g><polygon class="cls-12" points="74.54 43.69 74.54 42 76.77 42 76.77 43.69 77.73 43.69 77.73 77.22 66.89 77.22 66.89 43.69 74.54 43.69"/><g class="cls-10"><rect class="cls-9" x="75.57" y="48.72" width="1.48" height="1.48" transform="translate(152.61 98.93) rotate(180)"/><rect class="cls-9" x="72.9" y="48.72" width="1.48" height="1.48" transform="translate(147.28 98.93) rotate(180)"/><rect class="cls-9" x="70.23" y="48.72" width="1.48" height="1.48" transform="translate(141.95 98.93) rotate(180)"/><rect class="cls-9" x="67.57" y="48.72" width="1.48" height="1.48" transform="translate(136.61 98.93) rotate(180)"/><rect class="cls-9" x="75.57" y="45.56" width="1.48" height="1.48" transform="translate(152.61 92.6) rotate(180)"/><rect class="cls-9" x="72.9" y="45.56" width="1.48" height="1.48" transform="translate(147.28 92.6) rotate(180)"/><rect class="cls-9" x="70.23" y="45.56" width="1.48" height="1.48" transform="translate(141.95 92.6) rotate(180)"/><rect class="cls-9" x="67.57" y="45.56" width="1.48" height="1.48" transform="translate(136.61 92.6) rotate(180)"/></g><polygon class="cls-12" points="59.5 45.73 54.76 45.73 54.76 77.22 62.55 77.22 62.55 45.73 59.5 45.73"/><g class="cls-10"><rect class="cls-9" x="55.77" y="47" width="1.27" height="1.27"/><rect class="cls-9" x="58.06" y="47" width="1.27" height="1.27"/><rect class="cls-9" x="60.34" y="47" width="1.27" height="1.27"/></g><g class="cls-10"><rect class="cls-9" x="55.77" y="49.71" width="1.27" height="1.27"/><rect class="cls-9" x="58.06" y="49.71" width="1.27" height="1.27"/><rect class="cls-9" x="60.34" y="49.71" width="1.27" height="1.27"/></g><g class="cls-10"><rect class="cls-9" x="55.77" y="52.41" width="1.27" height="1.27"/><rect class="cls-9" x="58.06" y="52.41" width="1.27" height="1.27"/><rect class="cls-9" x="60.34" y="52.41" width="1.27" height="1.27"/></g><g class="cls-10"><rect class="cls-9" x="55.77" y="55.12" width="1.27" height="1.27"/><rect class="cls-9" x="58.06" y="55.12" width="1.27" height="1.27"/><rect class="cls-9" x="60.34" y="55.12" width="1.27" height="1.27"/></g><polygon class="cls-9" points="47.44 43.02 47.44 41.49 46.43 41.49 46.43 38.27 46.09 38.27 46.09 41.49 45.07 41.49 45.07 43.02 45.07 43.19 45.07 77.22 54.22 77.22 54.22 43.02 47.44 43.02"/><polygon class="cls-11" points="43.78 34.89 32.95 34.89 32.27 34.89 32.27 35.57 32.95 35.57 32.95 77.22 43.78 77.22 43.78 35.57 44.46 35.57 44.46 34.89 43.78 34.89"/><g class="cls-10"><rect class="cls-9" x="40.38" y="40.2" width="1.48" height="1.48" transform="translate(82.24 81.88) rotate(180)"/><rect class="cls-9" x="37.71" y="40.2" width="1.48" height="1.48" transform="translate(76.91 81.88) rotate(180)"/><rect class="cls-9" x="35.05" y="40.2" width="1.48" height="1.48" transform="translate(71.57 81.88) rotate(180)"/><rect class="cls-9" x="40.38" y="37.04" width="1.48" height="1.48" transform="translate(82.24 75.56) rotate(180)"/><rect class="cls-9" x="37.71" y="37.04" width="1.48" height="1.48" transform="translate(76.91 75.56) rotate(180)"/><rect class="cls-9" x="35.05" y="37.04" width="1.48" height="1.48" transform="translate(71.57 75.56) rotate(180)"/></g><polygon class="cls-12" points="24.21 43.69 24.21 42 21.84 42 21.84 43.69 20.82 43.69 20.82 77.22 32.34 77.22 32.34 43.69 24.21 43.69"/><g class="cls-10"><rect class="cls-9" x="21.84" y="48.72" width="1.48" height="1.48"/><rect class="cls-9" x="24.51" y="48.72" width="1.48" height="1.48"/><rect class="cls-9" x="27.17" y="48.72" width="1.48" height="1.48"/><rect class="cls-9" x="29.84" y="48.72" width="1.48" height="1.48"/><rect class="cls-9" x="21.84" y="45.56" width="1.48" height="1.48"/><rect class="cls-9" x="24.51" y="45.56" width="1.48" height="1.48"/><rect class="cls-9" x="27.17" y="45.56" width="1.48" height="1.48"/><rect class="cls-9" x="29.84" y="45.56" width="1.48" height="1.48"/></g><polygon class="cls-9" points="17.91 37.26 17.91 35.73 18.93 35.73 18.93 32.52 19.26 32.52 19.26 35.73 20.28 35.73 20.28 37.26 20.28 37.43 20.28 77.22 11.81 77.22 11.81 37.26 17.91 37.26"/><g class="cls-10"><rect class="cls-9" x="13.1" y="39.36" width="1.27" height="1.27"/><rect class="cls-9" x="15.39" y="39.36" width="1.27" height="1.27"/><rect class="cls-9" x="17.67" y="39.36" width="1.27" height="1.27"/></g><g class="cls-10"><rect class="cls-9" x="13.1" y="42.07" width="1.27" height="1.27"/><rect class="cls-9" x="15.39" y="42.07" width="1.27" height="1.27"/><rect class="cls-9" x="17.67" y="42.07" width="1.27" height="1.27"/></g><g class="cls-10"><rect class="cls-9" x="13.1" y="44.78" width="1.27" height="1.27"/><rect class="cls-9" x="15.39" y="44.78" width="1.27" height="1.27"/><rect class="cls-9" x="17.67" y="44.78" width="1.27" height="1.27"/></g><g class="cls-10"><rect class="cls-9" x="13.1" y="47.49" width="1.27" height="1.27"/><rect class="cls-9" x="15.39" y="47.49" width="1.27" height="1.27"/><rect class="cls-9" x="17.67" y="47.49" width="1.27" height="1.27"/></g><g id="hospital"><rect class="cls-5" x="66.61" y="55.62" width="21.67" height="21"/><rect class="cls-13" x="66.27" y="55.62" width="0.34" height="21"/><rect class="cls-13" x="68.3" y="57.65" width="4.06" height="5.42"/><rect class="cls-14" x="68.63" y="57.99" width="3.42" height="4.74" rx="0.25" ry="0.25"/><polygon class="cls-15" points="70.21 62.73 72.05 60.55 72.05 59.62 69.42 62.73 70.21 62.73"/><polygon class="cls-15" points="71.34 62.73 72.05 61.9 72.05 61.27 70.82 62.73 71.34 62.73"/><rect class="cls-13" x="73.05" y="57.65" width="4.06" height="5.42"/><rect class="cls-14" x="73.37" y="57.99" width="3.42" height="4.74" rx="0.25" ry="0.25"/><polygon class="cls-15" points="74.95 62.73 76.79 60.55 76.79 59.62 74.17 62.73 74.95 62.73"/><polygon class="cls-15" points="76.08 62.73 76.79 61.9 76.79 61.27 75.56 62.73 76.08 62.73"/><rect class="cls-13" x="77.79" y="57.65" width="4.06" height="5.42"/><rect class="cls-14" x="78.11" y="57.99" width="3.42" height="4.74" rx="0.25" ry="0.25"/><polygon class="cls-15" points="79.69 62.73 81.53 60.55 81.53 59.62 78.91 62.73 79.69 62.73"/><polygon class="cls-15" points="80.83 62.73 81.53 61.9 81.53 61.27 80.3 62.73 80.83 62.73"/><rect class="cls-13" x="82.53" y="57.65" width="4.06" height="5.42"/><rect class="cls-14" x="82.85" y="57.99" width="3.42" height="4.74" rx="0.25" ry="0.25"/><polygon class="cls-15" points="84.43 62.73 86.27 60.55 86.27 59.62 83.65 62.73 84.43 62.73"/><polygon class="cls-15" points="85.57 62.73 86.27 61.9 86.27 61.27 85.04 62.73 85.57 62.73"/><rect class="cls-16" x="67.63" y="63.4" width="19.64" height="0.34"/><rect class="cls-17" x="67.63" y="63.07" width="19.64" height="0.34"/><rect class="cls-13" x="68.3" y="65.44" width="4.06" height="5.42"/><rect class="cls-14" x="68.63" y="65.78" width="3.42" height="4.74" rx="0.25" ry="0.25"/><polygon class="cls-15" points="70.21 70.52 72.05 68.34 72.05 67.41 69.42 70.52 70.21 70.52"/><polygon class="cls-15" points="71.34 70.52 72.05 69.68 72.05 69.06 70.82 70.52 71.34 70.52"/><rect class="cls-13" x="73.05" y="65.44" width="4.06" height="5.42"/><rect class="cls-14" x="73.37" y="65.78" width="3.42" height="4.74" rx="0.25" ry="0.25"/><polygon class="cls-15" points="74.95 70.52 76.79 68.34 76.79 67.41 74.17 70.52 74.95 70.52"/><polygon class="cls-15" points="76.08 70.52 76.79 69.68 76.79 69.06 75.56 70.52 76.08 70.52"/><rect class="cls-13" x="77.79" y="65.44" width="4.06" height="5.42"/><rect class="cls-14" x="78.11" y="65.78" width="3.42" height="4.74" rx="0.25" ry="0.25"/><polygon class="cls-15" points="79.69 70.52 81.53 68.34 81.53 67.41 78.91 70.52 79.69 70.52"/><polygon class="cls-15" points="80.83 70.52 81.53 69.68 81.53 69.06 80.3 70.52 80.83 70.52"/><rect class="cls-13" x="82.53" y="65.44" width="4.06" height="5.42"/><rect class="cls-14" x="82.85" y="65.78" width="3.42" height="4.74" rx="0.25" ry="0.25"/><polygon class="cls-15" points="84.43 70.52 86.27 68.34 86.27 67.41 83.65 70.52 84.43 70.52"/><polygon class="cls-15" points="85.57 70.52 86.27 69.68 86.27 69.06 85.04 70.52 85.57 70.52"/><rect class="cls-16" x="67.63" y="71.19" width="19.64" height="0.34"/><rect class="cls-17" x="67.63" y="70.86" width="19.64" height="0.34"/><rect class="cls-16" x="66.27" y="55.62" width="23.03" height="0.34"/><rect class="cls-17" x="66.27" y="55.28" width="23.03" height="0.34"/><rect class="cls-5" x="22.92" y="55.62" width="21.67" height="21"/><rect class="cls-13" x="44.26" y="55.62" width="0.34" height="21"/><rect class="cls-13" x="24.28" y="57.65" width="4.06" height="5.42"/><rect class="cls-14" x="24.6" y="57.99" width="3.42" height="4.74" rx="0.25" ry="0.25"/><polygon class="cls-15" points="26.18 62.73 28.02 60.55 28.02 59.62 25.4 62.73 26.18 62.73"/><polygon class="cls-15" points="27.32 62.73 28.02 61.9 28.02 61.27 26.79 62.73 27.32 62.73"/><rect class="cls-13" x="29.02" y="57.65" width="4.06" height="5.42"/><rect class="cls-14" x="29.34" y="57.99" width="3.42" height="4.74" rx="0.25" ry="0.25"/><polygon class="cls-15" points="30.92 62.73 32.76 60.55 32.76 59.62 30.14 62.73 30.92 62.73"/><polygon class="cls-15" points="32.06 62.73 32.76 61.9 32.76 61.27 31.54 62.73 32.06 62.73"/><rect class="cls-13" x="33.76" y="57.65" width="4.06" height="5.42"/><rect class="cls-14" x="34.08" y="57.99" width="3.42" height="4.74" rx="0.25" ry="0.25"/><polygon class="cls-15" points="35.66 62.73 37.5 60.55 37.5 59.62 34.88 62.73 35.66 62.73"/><polygon class="cls-15" points="36.8 62.73 37.5 61.9 37.5 61.27 36.28 62.73 36.8 62.73"/><rect class="cls-13" x="38.5" y="57.65" width="4.06" height="5.42"/><rect class="cls-14" x="38.82" y="57.99" width="3.42" height="4.74" rx="0.25" ry="0.25"/><polygon class="cls-15" points="40.41 62.73 42.24 60.55 42.24 59.62 39.62 62.73 40.41 62.73"/><polygon class="cls-15" points="41.54 62.73 42.24 61.9 42.24 61.27 41.02 62.73 41.54 62.73"/><rect class="cls-16" x="23.6" y="63.4" width="19.64" height="0.34"/><rect class="cls-17" x="23.6" y="63.07" width="19.64" height="0.34"/><rect class="cls-13" x="24.28" y="65.44" width="4.06" height="5.42"/><rect class="cls-14" x="24.6" y="65.78" width="3.42" height="4.74" rx="0.25" ry="0.25"/><polygon class="cls-15" points="26.18 70.52 28.02 68.34 28.02 67.41 25.4 70.52 26.18 70.52"/><polygon class="cls-15" points="27.32 70.52 28.02 69.68 28.02 69.06 26.79 70.52 27.32 70.52"/><rect class="cls-13" x="29.02" y="65.44" width="4.06" height="5.42"/><rect class="cls-14" x="29.34" y="65.78" width="3.42" height="4.74" rx="0.25" ry="0.25"/><polygon class="cls-15" points="30.92 70.52 32.76 68.34 32.76 67.41 30.14 70.52 30.92 70.52"/><polygon class="cls-15" points="32.06 70.52 32.76 69.68 32.76 69.06 31.54 70.52 32.06 70.52"/><rect class="cls-13" x="33.76" y="65.44" width="4.06" height="5.42"/><rect class="cls-14" x="34.08" y="65.78" width="3.42" height="4.74" rx="0.25" ry="0.25"/><polygon class="cls-15" points="35.66 70.52 37.5 68.34 37.5 67.41 34.88 70.52 35.66 70.52"/><polygon class="cls-15" points="36.8 70.52 37.5 69.68 37.5 69.06 36.28 70.52 36.8 70.52"/><rect class="cls-13" x="38.5" y="65.44" width="4.06" height="5.42"/><rect class="cls-14" x="38.82" y="65.78" width="3.42" height="4.74" rx="0.25" ry="0.25"/><polygon class="cls-15" points="40.41 70.52 42.24 68.34 42.24 67.41 39.62 70.52 40.41 70.52"/><polygon class="cls-15" points="41.54 70.52 42.24 69.68 42.24 69.06 41.02 70.52 41.54 70.52"/><rect class="cls-16" x="23.6" y="71.19" width="19.64" height="0.34"/><rect class="cls-17" x="23.6" y="70.86" width="19.64" height="0.34"/><rect class="cls-16" x="22.24" y="55.62" width="23.03" height="0.34"/><rect class="cls-17" x="22.24" y="55.28" width="23.03" height="0.34"/><polygon class="cls-18" points="66.61 55.95 66.61 76.61 77.51 76.61 66.61 55.95"/><rect class="cls-5" x="44.6" y="40.38" width="21.67" height="36.24"/><rect class="cls-13" x="48.15" y="65.78" width="14.56" height="10.84"/><rect class="cls-14" x="48.49" y="65.78" width="6.77" height="10.84"/><polygon class="cls-15" points="55.27 65.78 48.49 72.89 48.49 65.78 55.27 65.78"/><rect class="cls-14" x="55.6" y="65.78" width="6.77" height="10.84"/><polygon class="cls-15" points="62.38 65.78 55.6 72.89 55.6 65.78 62.38 65.78"/><path class="cls-19" d="M54.6,71.33a.14.14,0,0,1-.14-.14v-1a.14.14,0,1,1,.27,0v1A.14.14,0,0,1,54.6,71.33Z"/><path class="cls-19" d="M56.26,71.33a.14.14,0,0,1-.14-.14v-1a.14.14,0,1,1,.27,0v1A.14.14,0,0,1,56.26,71.33Z"/><rect class="cls-16" x="47.64" y="65.78" width="15.58" height="0.34"/><rect class="cls-17" x="47.64" y="65.44" width="15.58" height="0.34"/><rect class="cls-13" x="46.35" y="57.65" width="4.06" height="5.42"/><rect class="cls-14" x="46.67" y="57.99" width="3.42" height="4.74" rx="0.25" ry="0.25"/><polygon class="cls-15" points="48.25 62.73 50.09 60.55 50.09 59.62 47.47 62.73 48.25 62.73"/><polygon class="cls-15" points="49.39 62.73 50.09 61.9 50.09 61.27 48.86 62.73 49.39 62.73"/><rect class="cls-13" x="51.09" y="57.65" width="4.06" height="5.42"/><rect class="cls-14" x="51.41" y="57.99" width="3.42" height="4.74" rx="0.25" ry="0.25"/><polygon class="cls-15" points="52.99 62.73 54.83 60.55 54.83 59.62 52.21 62.73 52.99 62.73"/><polygon class="cls-15" points="54.13 62.73 54.83 61.9 54.83 61.27 53.6 62.73 54.13 62.73"/><rect class="cls-13" x="55.83" y="57.65" width="4.06" height="5.42"/><rect class="cls-14" x="56.15" y="57.99" width="3.42" height="4.74" rx="0.25" ry="0.25"/><polygon class="cls-15" points="57.74 62.73 59.57 60.55 59.57 59.62 56.95 62.73 57.74 62.73"/><polygon class="cls-15" points="58.87 62.73 59.57 61.9 59.57 61.27 58.35 62.73 58.87 62.73"/><rect class="cls-13" x="60.57" y="57.65" width="4.06" height="5.42"/><rect class="cls-14" x="60.89" y="57.99" width="3.42" height="4.74" rx="0.25" ry="0.25"/><polygon class="cls-15" points="62.48 62.73 64.31 60.55 64.31 59.62 61.69 62.73 62.48 62.73"/><polygon class="cls-15" points="63.61 62.73 64.31 61.9 64.31 61.27 63.09 62.73 63.61 62.73"/><rect class="cls-16" x="45.67" y="63.4" width="19.64" height="0.34"/><rect class="cls-17" x="45.67" y="63.07" width="19.64" height="0.34"/><rect class="cls-13" x="46.35" y="49.86" width="4.06" height="5.42"/><rect class="cls-14" x="46.67" y="50.2" width="3.42" height="4.74" rx="0.25" ry="0.25"/><polygon class="cls-15" points="48.25 54.94 50.09 52.76 50.09 51.83 47.47 54.94 48.25 54.94"/><polygon class="cls-15" points="49.39 54.94 50.09 54.1 50.09 53.48 48.86 54.94 49.39 54.94"/><rect class="cls-13" x="51.09" y="49.86" width="4.06" height="5.42"/><rect class="cls-14" x="51.41" y="50.2" width="3.42" height="4.74" rx="0.25" ry="0.25"/><polygon class="cls-15" points="52.99 54.94 54.83 52.76 54.83 51.83 52.21 54.94 52.99 54.94"/><polygon class="cls-15" points="54.13 54.94 54.83 54.1 54.83 53.48 53.6 54.94 54.13 54.94"/><rect class="cls-13" x="55.83" y="49.86" width="4.06" height="5.42"/><rect class="cls-14" x="56.15" y="50.2" width="3.42" height="4.74" rx="0.25" ry="0.25"/><polygon class="cls-15" points="57.74 54.94 59.57 52.76 59.57 51.83 56.95 54.94 57.74 54.94"/><polygon class="cls-15" points="58.87 54.94 59.57 54.1 59.57 53.48 58.35 54.94 58.87 54.94"/><rect class="cls-13" x="60.57" y="49.86" width="4.06" height="5.42"/><rect class="cls-14" x="60.89" y="50.2" width="3.42" height="4.74" rx="0.25" ry="0.25"/><polygon class="cls-15" points="62.48 54.94 64.31 52.76 64.31 51.83 61.69 54.94 62.48 54.94"/><polygon class="cls-15" points="63.61 54.94 64.31 54.1 64.31 53.48 63.09 54.94 63.61 54.94"/><rect class="cls-16" x="45.67" y="55.62" width="19.64" height="0.34"/><rect class="cls-17" x="45.67" y="55.28" width="19.64" height="0.34"/><rect class="cls-13" x="46.35" y="42.07" width="4.06" height="5.42"/><rect class="cls-14" x="46.67" y="42.41" width="3.42" height="4.74" rx="0.25" ry="0.25"/><polygon class="cls-15" points="48.25 47.15 50.09 44.97 50.09 44.04 47.47 47.15 48.25 47.15"/><polygon class="cls-15" points="49.39 47.15 50.09 46.32 50.09 45.7 48.86 47.15 49.39 47.15"/><rect class="cls-13" x="51.09" y="42.07" width="4.06" height="5.42"/><rect class="cls-14" x="51.41" y="42.41" width="3.42" height="4.74" rx="0.25" ry="0.25"/><polygon class="cls-15" points="52.99 47.15 54.83 44.97 54.83 44.04 52.21 47.15 52.99 47.15"/><polygon class="cls-15" points="54.13 47.15 54.83 46.32 54.83 45.7 53.6 47.15 54.13 47.15"/><rect class="cls-13" x="55.83" y="42.07" width="4.06" height="5.42"/><rect class="cls-14" x="56.15" y="42.41" width="3.42" height="4.74" rx="0.25" ry="0.25"/><polygon class="cls-15" points="57.74 47.15 59.57 44.97 59.57 44.04 56.95 47.15 57.74 47.15"/><polygon class="cls-15" points="58.87 47.15 59.57 46.32 59.57 45.7 58.35 47.15 58.87 47.15"/><rect class="cls-13" x="60.57" y="42.07" width="4.06" height="5.42"/><rect class="cls-14" x="60.89" y="42.41" width="3.42" height="4.74" rx="0.25" ry="0.25"/><polygon class="cls-15" points="62.48 47.15 64.31 44.97 64.31 44.04 61.69 47.15 62.48 47.15"/><polygon class="cls-15" points="63.61 47.15 64.31 46.32 64.31 45.7 63.09 47.15 63.61 47.15"/><rect class="cls-16" x="45.67" y="47.83" width="19.64" height="0.34"/><rect class="cls-17" x="45.67" y="47.49" width="19.64" height="0.34"/><rect class="cls-16" x="43.92" y="40.71" width="23.03" height="0.34"/><rect class="cls-17" x="43.92" y="40.38" width="23.03" height="0.34"/><rect class="cls-19" x="55.29" y="34.28" width="0.41" height="1.35"/><g class="cls-20"><rect class="cls-21" x="44.65" y="35.3" width="21.67" height="5.08"/><path class="cls-22" d="M66.84,40.65v-.7l-3.39-3.39h-.51v1.33l-1.32-1.33h-.49l-.28.76h0l-.66-.76h-2V37l.74.73V38l-1.42-1.42H57v1.11l-.82-.81a1,1,0,0,0-.86-.3h-.85v1.05l-.72-.72h0l-.07-.07a1.15,1.15,0,0,0-.79-.3.78.78,0,0,0-.87.69.61.61,0,0,0,.24.49l.83.84a.67.67,0,0,1-.23,0s-1.7-1.66-1.74-1.69a1.09,1.09,0,0,0-.85-.37,1.07,1.07,0,0,0-1,.7l-.6-.66h-.51v.93l-.93-.93h-.51V39l1.69,1.67Z"/><polygon class="cls-5" points="48.13 37.49 47.2 37.49 47.2 36.55 46.69 36.55 46.69 38.98 47.2 38.98 47.2 37.93 48.13 37.93 48.13 38.98 48.64 38.98 48.64 36.55 48.13 36.55 48.13 37.49"/><path class="cls-5" d="M50.29,36.51a1.26,1.26,0,1,0,1.14,1.24A1.13,1.13,0,0,0,50.29,36.51Zm0,2.06c-.38,0-.62-.32-.62-.81s.24-.79.62-.79.62.3.62.79S50.66,38.57,50.29,38.57Z"/><path class="cls-5" d="M53.23,37.6l-.36-.14c-.2-.08-.33-.14-.33-.27s.18-.22.35-.22a.72.72,0,0,1,.49.19l.08.07.3-.33-.07-.07a1.15,1.15,0,0,0-.79-.3.78.78,0,0,0-.87.69c0,.3.19.52.56.67l.35.14c.25.1.34.15.34.3s-.21.26-.41.26a.89.89,0,0,1-.6-.25l-.07-.07-.33.34.07.07a1.33,1.33,0,0,0,.92.36c.54,0,.93-.31.93-.73A.74.74,0,0,0,53.23,37.6Z"/><path class="cls-5" d="M55.33,36.55h-.85V39H55V38.1h.34c.63,0,1-.3,1-.79S56,36.55,55.33,36.55ZM55,37h.3c.44,0,.53.12.53.33s-.06.36-.53.36H55Z"/><rect class="cls-5" x="57.01" y="36.55" width="0.51" height="2.42"/><polygon class="cls-5" points="60.19 36.55 58.2 36.55 58.2 36.99 58.94 36.99 58.94 38.98 59.45 38.98 59.45 36.99 60.19 36.99 60.19 36.55"/><path class="cls-5" d="M61.13,36.55,60.23,39h.53L61,38.3h.74L62,39h.55l-.9-2.42Zm0,1.32.07-.2.15-.46.15.46.07.2Z"/><polygon class="cls-5" points="63.46 38.54 63.46 36.55 62.94 36.55 62.94 38.98 64.52 38.98 64.52 38.54 63.46 38.54"/></g><g id="cross"><circle class="cls-21" cx="55.49" cy="31.91" r="2.71"/><path class="cls-22" d="M53.8,32.56l2,2a2.71,2.71,0,0,0,2.34-2.34l-2-2Z"/><polygon class="cls-5" points="57.19 31.26 56.14 31.26 56.14 30.21 54.84 30.21 54.84 31.26 53.8 31.26 53.8 32.56 54.84 32.56 54.84 33.6 56.14 33.6 56.14 32.56 57.19 32.56 57.19 31.26"/></g></g><g id="bushes"><path class="cls-23" d="M98.29,73.72a1.75,1.75,0,0,0-2.48-1.33,1.87,1.87,0,0,0-3.48.2,1.15,1.15,0,0,0-1.55,1,1.54,1.54,0,0,0,.06,3.09h.08s0,.09,0,.14a1.71,1.71,0,0,0,3.4.29,1.1,1.1,0,0,0,2.15-.29s0-.06,0-.09a1.8,1.8,0,0,0,1.83-3.06Z"/><path class="cls-24" d="M96,74.06a1.17,1.17,0,0,0-2.11-.85,1.37,1.37,0,0,0-2.35-.92,1.87,1.87,0,0,0-3.13,1.38s0,.06,0,.09a1.89,1.89,0,1,0,1.21,3.57s0,.1,0,.15a1.6,1.6,0,0,0,3.06.65,1.37,1.37,0,0,0,2.39-1.3l.22-.18A1.36,1.36,0,1,0,96,74.06Z"/></g><g id="bushes-2" data-name="bushes"><path class="cls-23" d="M21.76,73.72a1.75,1.75,0,0,0-2.48-1.33,1.87,1.87,0,0,0-3.48.2,1.15,1.15,0,0,0-1.55,1,1.54,1.54,0,0,0,.06,3.09h.08s0,.09,0,.14a1.71,1.71,0,0,0,3.4.29,1.1,1.1,0,0,0,2.15-.29s0-.06,0-.09a1.8,1.8,0,0,0,1.83-3.06Z"/><path class="cls-24" d="M25,74.06a1.17,1.17,0,0,0-2.11-.85,1.37,1.37,0,0,0-2.35-.92,1.87,1.87,0,0,0-3.13,1.38s0,.06,0,.09a1.89,1.89,0,1,0,1.21,3.57s0,.1,0,.15a1.6,1.6,0,0,0,3.06.65,1.37,1.37,0,0,0,2.39-1.3l.22-.18A1.36,1.36,0,1,0,25,74.06Z"/></g><g id="tree"><circle class="cls-23" cx="17.82" cy="67.87" r="1.83"/><circle class="cls-23" cx="24.44" cy="67.87" r="1.83"/><path class="cls-25" d="M26.27,65.09a1.83,1.83,0,0,1-1.69,1.82h0a1.83,1.83,0,0,1,0-3.65h0A1.83,1.83,0,0,1,26.27,65.09Z"/><path class="cls-23" d="M24.58,66.91h-.14a1.83,1.83,0,0,1,0-3.66h.14a1.83,1.83,0,0,0,0,3.65Z"/><path class="cls-25" d="M19.65,65.09A1.83,1.83,0,0,1,18,66.91h0a1.83,1.83,0,0,1,0-3.65h0A1.83,1.83,0,0,1,19.65,65.09Z"/><path class="cls-23" d="M18,66.91h-.14a1.83,1.83,0,1,1,0-3.66H18a1.83,1.83,0,0,0,0,3.65Z"/><path class="cls-25" d="M27.23,57.55a6.1,6.1,0,0,1-5.62,6.08h0a6.1,6.1,0,0,1,0-12.16h0A6.1,6.1,0,0,1,27.23,57.55Z"/><path class="cls-23" d="M21.6,63.62l-.47,0a6.1,6.1,0,0,1,0-12.19l.47,0a6.1,6.1,0,0,0,0,12.16Z"/><path class="cls-26" d="M21.13,67.51a.32.32,0,0,1-.17,0l-2.61-1.58a.32.32,0,0,1,.33-.55l2.45,1.48,2.45-1.48a.32.32,0,0,1,.33.55L21.3,67.46A.32.32,0,0,1,21.13,67.51Z"/><path class="cls-26" d="M21.13,77a.7.7,0,0,1-.7-.7v-15a.7.7,0,0,1,1.39,0v15A.7.7,0,0,1,21.13,77Z"/><path class="cls-26" d="M21.13,70.29a.32.32,0,0,1-.17,0l-2.61-1.58a.32.32,0,0,1,.33-.55l2.45,1.48,2.45-1.48a.32.32,0,0,1,.33.55L21.3,70.25A.32.32,0,0,1,21.13,70.29Z"/></g><g id="tree-2" data-name="tree"><circle class="cls-23" cx="87.75" cy="67.87" r="1.83"/><circle class="cls-23" cx="94.37" cy="67.87" r="1.83"/><path class="cls-25" d="M96.2,65.09a1.83,1.83,0,0,1-1.69,1.82h0a1.83,1.83,0,0,1,0-3.65h0A1.83,1.83,0,0,1,96.2,65.09Z"/><path class="cls-23" d="M94.51,66.91h-.14a1.83,1.83,0,1,1,0-3.66h.14a1.83,1.83,0,0,0,0,3.65Z"/><path class="cls-25" d="M89.58,65.09a1.83,1.83,0,0,1-1.69,1.82h0a1.83,1.83,0,0,1,0-3.65h0A1.83,1.83,0,0,1,89.58,65.09Z"/><path class="cls-23" d="M87.89,66.91h-.14a1.83,1.83,0,0,1,0-3.66h.14a1.83,1.83,0,0,0,0,3.65Z"/><path class="cls-25" d="M97.16,57.55a6.1,6.1,0,0,1-5.62,6.08h0a6.1,6.1,0,0,1,0-12.16h0A6.1,6.1,0,0,1,97.16,57.55Z"/><path class="cls-23" d="M91.53,63.62l-.47,0a6.1,6.1,0,0,1,0-12.19l.47,0a6.1,6.1,0,0,0,0,12.16Z"/><path class="cls-26" d="M91.06,67.51a.32.32,0,0,1-.17,0l-2.61-1.58a.32.32,0,0,1,.33-.55l2.45,1.48,2.45-1.48a.32.32,0,0,1,.33.55l-2.61,1.58A.32.32,0,0,1,91.06,67.51Z"/><path class="cls-26" d="M91.06,77a.7.7,0,0,1-.7-.7v-15a.7.7,0,0,1,1.39,0v15A.7.7,0,0,1,91.06,77Z"/><path class="cls-26" d="M91.06,70.29a.32.32,0,0,1-.17,0l-2.61-1.58a.32.32,0,0,1,.33-.55l2.45,1.48,2.45-1.48a.32.32,0,0,1,.33.55l-2.61,1.58A.32.32,0,0,1,91.06,70.29Z"/></g><path class="cls-27" d="M66,107.36H43.23c2.85-8.48,5.53-21.81,5.21-30.75H62.36A103.58,103.58,0,0,1,66,107.36Z"/><g id="doctor"><ellipse class="cls-18" cx="34.17" cy="99.6" rx="6.77" ry="0.9"/><path class="cls-19" d="M32.08,99.64a1.47,1.47,0,0,1-1.47-1.47v-9.4a1.47,1.47,0,1,1,2.95,0v9.4A1.47,1.47,0,0,1,32.08,99.64Z"/><polygon class="cls-28" points="30.61 89.08 30.61 89.16 33.55 90.19 33.55 89.08 30.61 89.08"/><path class="cls-29" d="M33.88,99.22c0,.93-4.12.93-4.12,0s.92-1.41,2.06-1.41S33.88,98.29,33.88,99.22Z"/><path class="cls-19" d="M36,99.64a1.47,1.47,0,0,1-1.47-1.47v-9.4a1.47,1.47,0,1,1,2.95,0v9.4A1.47,1.47,0,0,1,36,99.64Z"/><polygon class="cls-28" points="34.53 89.08 34.53 89.16 37.48 90.19 37.48 89.08 34.53 89.08"/><path class="cls-29" d="M38.35,99.22c0,.93-4.12.93-4.12,0s.92-1.41,2.06-1.41S38.35,98.29,38.35,99.22Z"/><ellipse class="cls-30" cx="34.15" cy="73.59" rx="4.79" ry="4.16"/><rect class="cls-31" x="32.7" y="67.81" width="2.71" height="2.64"/><polygon class="cls-32" points="32.7 68.06 32.7 68.25 35.41 69.19 35.41 68.06 32.7 68.06"/><polygon class="cls-19" points="34.7 70.89 34.44 71.38 33.66 71.38 33.41 70.89 34.05 70.36 34.7 70.89"/><polygon class="cls-14" points="32.7 69.11 34.05 70.36 33.23 71.23 32.03 69.47 32.7 69.11"/><polygon class="cls-14" points="35.41 69.11 34.05 70.36 34.88 71.23 36.09 69.47 35.41 69.11"/><polygon class="cls-19" points="34.44 71.5 34.76 76.11 34.05 76.89 33.35 76.11 33.66 71.5 34.44 71.5"/><path class="cls-5" d="M35.77,69.3l-1.71,6.93L32.34,69.3a4.71,4.71,0,0,0-3.59,4.58v15.2h10.6V73.87A4.71,4.71,0,0,0,35.77,69.3Z"/><polygon class="cls-13" points="36.09 71.5 37.2 70.87 35.77 69.3 34.11 76 34 76 32.34 69.3 30.91 70.87 32.03 71.5 31.41 72.05 33.94 76.05 33.94 89.07 34.17 89.07 34.17 76.05 36.71 72.05 36.09 71.5"/><rect class="cls-13" x="29.61" y="82.37" width="3.5" height="0.36"/><rect class="cls-5" x="29.61" y="82.73" width="3.5" height="3.25"/><rect class="cls-13" x="35" y="82.37" width="3.5" height="0.36" transform="translate(73.49 165.1) rotate(180)"/><rect class="cls-5" x="35" y="82.73" width="3.5" height="3.25"/><rect class="cls-33" x="31.2" y="77.56" width="5.89" height="7.66" transform="translate(45.27 -6.17) rotate(30)"/><polygon class="cls-34" points="36.15 79.4 34.87 78.66 35.11 77.52 37.01 78.62 36.15 79.4"/><path class="cls-31" d="M36.2,84.35c.35-.78.23-.75-.54-1.37.37.08.62.07.68-.13.11-.41-.87-.56-2-.89L34,81.9,32.62,81l-1,1.48,1.9,1.24a4.75,4.75,0,0,0,.72.58C35.28,84.93,35.85,85.13,36.2,84.35Z"/><path class="cls-35" d="M31.9,79.38c-1.61-2-2.52-4.51-.49-6.67-2.33,2.16-1.41,5,.2,7.18Z"/><path class="cls-5" d="M31.75,83.07c-2.67-2.42-4-4.9-4-7.37a7.31,7.31,0,0,1,2.16-4.93l1.49,1.95h0a4.35,4.35,0,0,0-1.29,3c0,1.76,1.08,3.63,3.21,5.57Z"/><path class="cls-31" d="M46.77,70.21c-.31-.32-1.1-.08-1.88.54.16-.35.21-.59,0-.69-.37-.2-.74.72-1.33,1.8l-.12.23-1.22,1.17,1.22,1.27L45.11,73a4.75,4.75,0,0,0,.72-.57C46.7,71.56,47.12,70.58,46.77,70.21Z"/><polygon class="cls-35" points="38.22 74.39 39.36 76.64 39.36 75 38.22 74.39"/><path class="cls-5" d="M41.2,77h0a1.18,1.18,0,0,1-.86-.38l-2.11-2.25L38,70.57l3.21,3.53,2-2.15,1.72,1.61-2.88,3.08A1.18,1.18,0,0,1,41.2,77Z"/><path class="cls-34" d="M37,72c0-.11-.13-2.75-1.54-3.14v.25c1.18.41,1.3,2.88,1.31,2.9v.12H37Z"/><path class="cls-36" d="M32.7,69.11v-.25h0c-2.19.73-1.32,6.13-1.29,6.36l0,.12.23,0,0-.12C31.6,75.14,30.75,69.84,32.7,69.11Z"/><path class="cls-34" d="M37.64,75.72a1.55,1.55,0,0,1-.61-.2,2.91,2.91,0,0,0,1-2.29c0-.81-.49-1.32-1.17-1.32s-1.12.5-1.17,1.32a2.91,2.91,0,0,0,1,2.29,1.55,1.55,0,0,1-.61.2A.12.12,0,0,0,36,76h0a1.78,1.78,0,0,0,.78-.28,1.78,1.78,0,0,0,.78.28h0a.12.12,0,0,0,0-.23ZM35.9,73.25c0-.33.14-1.09.93-1.09s.91.76.93,1.09a2.64,2.64,0,0,1-.93,2.14A2.64,2.64,0,0,1,35.9,73.25Z"/><path class="cls-19" d="M37.81,76h-.2a.18.18,0,1,1,0-.35,1.6,1.6,0,0,0,.34,0A.18.18,0,1,1,38,76Z"/><path class="cls-19" d="M35.85,76h-.21a.18.18,0,0,1,0-.35,1.61,1.61,0,0,0,.34,0,.18.18,0,1,1,0,.35Z"/><circle class="cls-13" cx="31.49" cy="75.25" r="0.71"/><path class="cls-34" d="M31.49,74.54a.71.71,0,1,1-.71.71.71.71,0,0,1,.71-.71m0-.24a.94.94,0,1,0,.94.94.94.94,0,0,0-.94-.94Z"/><circle class="cls-34" cx="31.49" cy="75.25" r="0.5"/></g><g class="cls-37"><path class="cls-5" d="M36,67.13H32L31.7,65.8v-.48a3.36,3.36,0,0,1,4.7,0v.48Z"/><path d="M36,67.14H32l-.28-1.34v-.48h0a3.13,3.13,0,0,1,2.25-1,3.3,3.3,0,0,1,2.48,1h0v.49Zm-4,0h4l.39-1.31v-.47a3.27,3.27,0,0,0-2.45-.95,3.1,3.1,0,0,0-2.22.95v.47Z"/><path class="cls-38" d="M32,67.1h3.72l.32.12-.24.85H32.23Z"/><path class="cls-39" d="M35.29,69.11H32.73a.5.5,0,0,1-.5-.5v-.54h3.57v.54a.5.5,0,0,1-.5.5"/><path class="cls-40" d="M32.32,68.16v.45a.41.41,0,0,0,.41.41h2.56a.41.41,0,0,0,.41-.41v-.45H32.32Zm3,1H32.73a.6.6,0,0,1-.6-.59V68h3.75v.64a.6.6,0,0,1-.6.59Z"/><path class="cls-41" d="M33.36,67.1a1.58,1.58,0,0,1-.59-2.46,3,3,0,0,1,2.42,0,1.58,1.58,0,0,1-.55,2.5"/><path class="cls-40" d="M33.26,67.19h0a1.75,1.75,0,0,1-.71-2.52l0,0h.1l0,0v0a.09.09,0,0,1,0,0v0A1.57,1.57,0,0,0,33.3,67l0,0,0,0a.09.09,0,0,1,0,0v0l0,0Zm1.47,0-.06,0a.09.09,0,0,1,0-.11l0,0a1.57,1.57,0,0,0,.56-2.33.09.09,0,0,1,0-.13l.07,0a.09.09,0,0,1,.06,0,1.75,1.75,0,0,1-.63,2.6Z"/><path class="cls-40" d="M32.3,68h3.42l.57-2.21h.19l-.61,2.4H32.16l-.6-2.37h.19Z"/><path class="cls-40" d="M31.55,65.77h.19v-.36l-.13-.12-.06.06Z"/><path class="cls-40" d="M36.48,65.75h-.19v-.4l.09-.16.1.09Z"/><path class="cls-40" d="M31.67,65.47l-.05,0,0,0a.09.09,0,0,1,0-.1,3.4,3.4,0,0,1,4.78-.1.09.09,0,0,1,0,.13l-.06,0-.06,0a3.22,3.22,0,0,0-4.53.1l0,0h0ZM36,67.19H32a.09.09,0,0,1-.06-.16L32,67h4l.06,0a.09.09,0,0,1,0,.13l-.06,0"/><path class="cls-5" d="M34.84,65.12a.41.41,0,1,1-.41-.41.41.41,0,0,1,.41.41Zm.3.62a.17.17,0,1,1,0-.12.17.17,0,0,1,0,.12"/><path class="cls-40" d="M35.44,67.79a.34.34,0,0,1-.27-.15c-.05-.06-.08-.09-.13-.09s-.08,0-.13.09a.32.32,0,0,1-.55,0c-.05-.06-.08-.09-.13-.09s-.08,0-.13.09a.32.32,0,0,1-.55,0c-.05-.06-.08-.09-.13-.09s-.08,0-.13.09a.32.32,0,0,1-.55,0c-.05-.06-.08-.09-.13-.09l-.06,0a.09.09,0,0,1,0-.13l.06,0a.34.34,0,0,1,.27.15c.05.06.08.09.13.09s.08,0,.13-.09a.32.32,0,0,1,.55,0c.05.06.08.09.13.09s.08,0,.13-.09a.32.32,0,0,1,.55,0c.05.06.08.09.13.09s.08,0,.13-.09a.32.32,0,0,1,.55,0c.05.06.08.09.13.09a.09.09,0,1,1,0,.18"/></g><path id="Shape" class="cls-42" d="M76.49,63.37c-.1-.1,0-.3-.1-.4l-.3.1h0a2.09,2.09,0,0,1-.4-.6v-.2h0a2.54,2.54,0,0,0-.8-1h0a.6.6,0,0,0-.4-.1,2.57,2.57,0,0,0-3.2.7c-.3.3-.5.6-.8.9l-.1.1h0c-.1,0-.2.1-.3.2a.1.1,0,0,1-.1.1.19.19,0,0,0,.1.3v.7c0,.3.4.4.6.3a1,1,0,0,0,.6.8c.1.1.3,0,.4,0s.3,0,.4-.1a.35.35,0,0,0-.1-.5.31.31,0,0,0-.2-.1,3.7,3.7,0,0,1-.4-1.5.35.35,0,0,0,.1-.2,1.42,1.42,0,0,1,.2-.6,1.79,1.79,0,0,1,.7-.5l.1.1c.1.1.2.2.3.1a1.7,1.7,0,0,1,.7-.1h.2c.2,0,.4.1.6,0,.2.1.3.2.5.2h.1c.1.1.1.2.2.4a.19.19,0,0,0,0,.3,2.2,2.2,0,0,1,.1.8v.2c-.1.3-.1.5-.4.6s-.3.8.1.7H75a.34.34,0,0,0,.6-.1c0-.1.1-.2.1-.3h.2a.52.52,0,0,0,.4-.2.76.76,0,0,0,.2-.4.82.82,0,0,0,0-.7h0"/><polygon id="Shape-2" data-name="Shape" class="cls-43" points="70.89 65.37 75.29 65.37 75.59 65.47 75.39 66.47 71.09 66.47 70.89 65.37"/><path id="Shape-3" data-name="Shape" class="cls-42" d="M74.79,67.67h-3a.64.64,0,0,1-.6-.6v-.6h4.2v.6a.58.58,0,0,1-.6.6"/><path id="Shape-4" data-name="Shape" class="cls-44" d="M74.79,67.87h-3a.68.68,0,0,1-.7-.7v-.8h4.5v.8A1,1,0,0,1,74.79,67.87Zm-3.5-1.3v.5a.47.47,0,0,0,.5.5h3a.47.47,0,0,0,.5-.5v-.5Z"/><path id="Shape-5" data-name="Shape" class="cls-7" d="M72.49,65.37a1.75,1.75,0,0,1-1.1-1.7,2.14,2.14,0,0,1,.4-1.2c.3-.4,2.5-.4,2.9,0a1.84,1.84,0,0,1,.5,1.2,1.9,1.9,0,0,1-1.1,1.7"/><path id="Shape-6" data-name="Shape" class="cls-44" d="M72.39,65.47h0a2.06,2.06,0,0,1-1.2-1.9,2,2,0,0,1,.3-1.1c0-.1.1-.1.2,0s.1.1,0,.2a1.69,1.69,0,0,0-.3,1,1.78,1.78,0,0,0,1,1.6c.1,0,.1.1.1.2h-.1"/><path id="Shape-7" data-name="Shape" class="cls-44" d="M74.09,65.47c-.1,0-.1,0-.1-.1s0-.1.1-.2a1.78,1.78,0,0,0,1-1.6,1.5,1.5,0,0,0-.4-1.1v-.2h.2a1.92,1.92,0,0,1,.4,1.2,2.1,2.1,0,0,1-1.2,2h0"/><path id="Shape-8" data-name="Shape" class="cls-44" d="M75.49,66.57h-4.4l-.7-2.8h0a2.9,2.9,0,0,1,5.8,0h0Zm-4.2-.2h4l.7-2.6a2.6,2.6,0,0,0-2.7-2.6,2.73,2.73,0,0,0-2.7,2.6Z"/><path id="Shape-9" data-name="Shape" class="cls-44" d="M70.69,65.07h-.3a.64.64,0,0,1-.6-.6v-1.1a.64.64,0,0,1,.6-.6h.1a.1.1,0,0,1,0,.2h-.1a.26.26,0,0,0-.3.3v1.1a.26.26,0,0,0,.3.3h.3a.1.1,0,0,1,.1.1c0,.2,0,.3-.1.3"/><path id="Shape-10" data-name="Shape" class="cls-44" d="M76.09,65.07h-.3a.1.1,0,1,1,0-.2h.3a.26.26,0,0,0,.3-.3v-1.1a.26.26,0,0,0-.3-.3H76a.1.1,0,1,1,0-.2h.1a.64.64,0,0,1,.6.6v1.1a.72.72,0,0,1-.6.4"/><path id="Shape-11" data-name="Shape" class="cls-44" d="M70.49,63.47h0c-.1-.1-.2-.2-.1-.2a4,4,0,0,1,2.9-1.2,4.29,4.29,0,0,1,2.8,1.1c.1.1.1.1,0,.2s-.1.1-.2,0a3.54,3.54,0,0,0-2.6-1,3.48,3.48,0,0,0-2.8,1.1h0"/><path id="Shape-12" data-name="Shape" class="cls-44" d="M75.59,65.47h-4.8a.1.1,0,1,1,0-.2h4.8a.1.1,0,0,1,.1.1c.1,0,0,.1-.1.1"/><path id="Shape-13" data-name="Shape" class="cls-5" d="M74.19,63a.5.5,0,1,1-.5-.5.47.47,0,0,1,.5.5"/><path id="Shape-14" data-name="Shape" class="cls-5" d="M74.59,63.67a.2.2,0,1,1-.2-.2.21.21,0,0,1,.2.2"/><path id="Shape-15" data-name="Shape" class="cls-45" d="M75,68.37h-3.5a.1.1,0,0,1,0-.2H75a.1.1,0,0,1,.1.1c.1,0,0,.1-.1.1"/><line class="cls-46" x1="72.49" y1="67.87" x2="74.19" y2="67.87"/><path class="cls-47" d="M72.59,65.77a1,1,0,0,0,1.6,0"/><g id="nurse"><ellipse class="cls-18" cx="73.44" cy="100.7" rx="7.16" ry="0.95"/><polygon class="cls-48" points="72.65 99.77 71.16 99.77 70.66 87.05 73.15 87.05 72.65 99.77"/><polygon class="cls-32" points="70.66 87.36 73.1 88.32 73.15 87.05 70.66 87.05 70.66 87.36"/><polygon class="cls-5" points="72.72 98.21 71.09 98.21 71.16 99.74 72.65 99.74 72.72 98.21"/><path class="cls-13" d="M73,100.19c0,.67-3,.67-3,0s.67-1,1.49-1S73,99.51,73,100.19Z"/><polygon class="cls-48" points="75.52 99.4 74.02 99.4 73.53 87.05 76.02 87.05 75.52 99.4"/><polygon class="cls-32" points="73.53 87.36 75.97 88.32 76.02 87.05 73.53 87.05 73.53 87.36"/><polygon class="cls-5" points="75.58 98.21 73.96 98.21 74.02 99.74 75.52 99.74 75.58 98.21"/><path class="cls-13" d="M76.51,100.19c0,.67-3,.67-3,0s.67-1,1.49-1S76.51,99.51,76.51,100.19Z"/><path class="cls-5" d="M78,72.76a3.25,3.25,0,0,0-3-4.4l-1.64,2.43-1.64-2.43a3.25,3.25,0,0,0-3,4.4l.6.43s1.07,1.22-.38,7.07h8.9c-1.45-5.85-.38-7.07-.38-7.07Z"/><path class="cls-5" d="M76.77,78.52H69.92s-1.69,1.46,0,8.76a.13.13,0,0,0,.13.08h6.68a.13.13,0,0,0,.13-.08C78.46,80,76.77,78.52,76.77,78.52Z"/><path class="cls-35" d="M69.27,80.26l8.27,1.45a10.08,10.08,0,0,0-.11-1.45H69.27Z"/><circle class="cls-13" cx="73.35" cy="72.33" r="0.31"/><circle class="cls-13" cx="73.36" cy="71.44" r="0.31"/><path class="cls-13" d="M71.83,68.36a4.81,4.81,0,0,0-.66,0c0,1.29.32,3.81,2.18,2.38Z"/><path class="cls-13" d="M74.86,68.36a4.81,4.81,0,0,1,.66,0c0,1.29-.32,3.81-2.18,2.38Z"/><path class="cls-5" d="M77.29,74.6a7.77,7.77,0,0,0-1.47-3.18l1.61-2A11.59,11.59,0,0,1,79.58,74Z"/><path class="cls-35" d="M69.5,73.72h0a7.81,7.81,0,0,1,.1,2.66l.83-4.59Z"/><path class="cls-31" d="M63.18,72.18a.87.87,0,0,1,1.23.06l2.66,2.91.51-1.44,1.67.49-1,2.91a.87.87,0,0,1-1.47.31l-3.66-4A.87.87,0,0,1,63.18,72.18Z"/><path class="cls-31" d="M64.86,73.49h.08a.31.31,0,0,0,.31-.31,1.83,1.83,0,0,0-.16-.86.31.31,0,1,0-.52.35,2,2,0,0,1,.05.51A.31.31,0,0,0,64.86,73.49Z"/><polygon class="cls-32" points="67.07 75.14 67.72 75.91 67.23 74.69 67.07 75.14"/><path class="cls-5" d="M69.41,74.6,67.11,74a12.16,12.16,0,0,1,2.32-4.74l1.44,2.15h0A7.77,7.77,0,0,0,69.41,74.6Z"/><polygon class="cls-33" points="76.12 80.18 70.39 80.18 69.77 72.09 76.75 72.09 76.12 80.18"/><polygon class="cls-34" points="74.05 73.26 72.47 73.26 72.1 72.09 74.42 72.09 74.05 73.26"/><path class="cls-31" d="M80,77.08l-.77-3-1.69.43.56,2.17-3,.85a.87.87,0,1,0,.49,1.67l3.85-1.09A.87.87,0,0,0,80,77.08Z"/><path class="cls-31" d="M76.52,77.87a.31.31,0,0,1-.23-.1.88.88,0,0,0-.38-.27h0a.31.31,0,0,1-.37-.24.31.31,0,0,1,.24-.37c.43-.09.85.33,1,.46a.31.31,0,0,1-.23.52Z"/><polygon class="cls-32" points="78.14 76.7 79 76.46 78.05 76.33 78.14 76.7"/><path class="cls-35" d="M77.2,73.72h0a7.81,7.81,0,0,0-.1,2.66l-.83-4.59Z"/><path class="cls-17" d="M75.75,62.58a8.33,8.33,0,0,0-4.95,0q-.55-1.6-1.15-3.18a11.71,11.71,0,0,1,7.24,0Q76.3,61,75.75,62.58Z"/><polygon class="cls-49" points="74.32 60.16 73.68 60.16 73.68 59.52 72.88 59.52 72.88 60.16 72.24 60.16 72.24 60.96 72.88 60.96 72.88 61.6 73.68 61.6 73.68 60.96 74.32 60.96 74.32 60.16"/><path class="cls-17" d="M36.53,64.64a8.33,8.33,0,0,0-4.95,0Q31,63,30.44,61.46a11.71,11.71,0,0,1,7.24,0Q37.08,63,36.53,64.64Z"/><polygon class="cls-49" points="35.1 62.21 34.46 62.21 34.46 61.57 33.65 61.57 33.65 62.21 33.01 62.21 33.01 63.02 33.65 63.02 33.65 63.66 34.46 63.66 34.46 63.02 35.1 63.02 35.1 62.21"/></g><polygon class="cls-45" points="71.74 68.38 73.39 71.02 75.04 68.38 71.74 68.38"/><g id="sun"><path class="cls-21" d="M33.76,32.25a.12.12,0,0,1-.1-.06l-.56-.86-.92.47h-.06A.11.11,0,0,1,32,31.7l-.05-1-1-.05a.11.11,0,0,1-.1-.17l.47-.92L30.43,29a.11.11,0,0,1,0-.2l.86-.56-.47-.92a.11.11,0,0,1,.1-.17l1-.05L32,26a.11.11,0,0,1,.11-.11h.06l.92.47.56-.86a.11.11,0,0,1,.2,0l.56.86.92-.47h.06a.11.11,0,0,1,.11.11l.05,1,1,.05a.11.11,0,0,1,.1.17l-.47.92.86.56a.11.11,0,0,1,0,.2l-.86.56.47.92a.11.11,0,0,1-.1.17l-1,.05-.05,1a.11.11,0,0,1-.11.11h-.06l-.92-.47-.56.86A.12.12,0,0,1,33.76,32.25Z"/><circle class="cls-21" cx="33.76" cy="28.86" r="2.21"/><circle class="cls-50" cx="33.76" cy="28.86" r="2.03"/></g><path id="cloud" class="cls-5" d="M67,26.78a.68.68,0,0,0-.57-1l-.16,0a0,0,0,0,1,0,0,2,2,0,0,0-4-.17s0,0,0,0a1.35,1.35,0,0,0-2.36,1.22,0,0,0,0,1,0,0,1.69,1.69,0,0,0,.48,3.32h6.24A1.69,1.69,0,0,0,67,26.82,0,0,0,0,1,67,26.78Z"/><path id="cloud-2" data-name="cloud" class="cls-5" d="M93.67,35a.62.62,0,0,0,0-.63.51.51,0,0,0-.21-.22.62.62,0,0,0-.5-.07A1.81,1.81,0,0,0,89.47,34a1.22,1.22,0,0,0-1.5-.35,1.07,1.07,0,0,0-.54.54,1.26,1.26,0,0,0-.06.89,1.52,1.52,0,0,0-1,2.12,1.54,1.54,0,0,0,1.3.83h5.67a1.41,1.41,0,0,0,1.3-.84A1.52,1.52,0,0,0,93.67,35Z"/><path id="cloud-3" data-name="cloud" class="cls-51" d="M76,28.82a.38.38,0,0,0-.32-.58h-.11a1.13,1.13,0,0,0-2.2-.1h0a.75.75,0,0,0-1.31.68,0,0,0,0,1,0,0,.94.94,0,0,0,.27,1.84h3.47A.94.94,0,0,0,76,28.84,0,0,0,0,1,76,28.82Z"/><path id="cloud-4" data-name="cloud" class="cls-51" d="M62.15,23.3a.3.3,0,0,0-.25-.46h-.09A.9.9,0,0,0,60,22.76h0a.6.6,0,0,0-1,.54,0,0,0,0,1,0,0,.75.75,0,0,0,.21,1.47H62a.75.75,0,0,0,.2-1.48A0,0,0,0,1,62.15,23.3Z"/><path id="cloud-5" data-name="cloud" class="cls-51" d="M57.58,25.33a.3.3,0,0,0-.25-.46h-.09a.9.9,0,0,0-1.76-.08h0a.6.6,0,0,0-1,.54,0,0,0,0,1,0,0,.75.75,0,0,0,.21,1.47h2.78a.75.75,0,0,0,.2-1.48A0,0,0,0,1,57.58,25.33Z"/><path id="cloud-6" data-name="cloud" class="cls-51" d="M30.93,31.36a.45.45,0,0,0-.38-.69h-.11a0,0,0,0,1,0,0,1.35,1.35,0,0,0-2.65-.12s0,0,0,0a.9.9,0,0,0-1.57.81,0,0,0,0,1,0,0,1.13,1.13,0,0,0,.32,2.21h4.16a1.13,1.13,0,0,0,.29-2.22A0,0,0,0,1,30.93,31.36Z"/><path id="cloud-7" data-name="cloud" class="cls-5" d="M45.06,30.34a.75.75,0,0,0-.64-1.15l-.18,0a0,0,0,0,1,0,0A2.26,2.26,0,0,0,39.8,29s0,0,0,0a1.51,1.51,0,0,0-2.62,1.35,0,0,0,0,1,0,0,1.88,1.88,0,0,0,.53,3.69h6.94a1.88,1.88,0,0,0,.49-3.7A0,0,0,0,1,45.06,30.34Z"/><path id="helicopter" class="cls-52" d="M74.57,35.08h0a1.53,1.53,0,0,0,0-.18,1.71,1.71,0,0,0-1.63-1.53h-.2v-.11h-.16v-.11h1.61a.1.1,0,1,0,0-.19H72.58a.16.16,0,0,0-.31,0H70.66a.1.1,0,1,0,0,.19h1.61v.11H72.1v.11h-.16A1,1,0,0,0,71,34H68.85l-.62-.61-.06,0h-.28a.08.08,0,0,0-.07.12L68,34a.52.52,0,1,0,.79.53l2.14.19v.14a1,1,0,0,0,0,.27h0v0h0l0,0h0l0,0h0l0,0h0l0,0h0l0,0h0l0,0h0l0,0h0a1,1,0,0,0,.76.38h.11l-.09.41h-.43a.1.1,0,0,0,0,.19h2.19l.37-.1a.1.1,0,0,0,0-.19l-.35.09h-.26l-.09-.41c.62,0,1-.11,1.12-.4h0v0h0v0h0a.85.85,0,0,0,0-.12h0v-.08Zm-6.44-1,.14.27L68,34.29A.35.35,0,0,1,68.13,34.11ZM68,34.4a.35.35,0,0,1,0,0l.29.09-.16.22A.35.35,0,0,1,68,34.4Zm.35.35a.35.35,0,0,1-.15,0l.15-.21.15.21A.35.35,0,0,1,68.32,34.75Zm.21-.07-.16-.22h0l.27,0A.35.35,0,0,1,68.54,34.67Zm3.62,1.52.09-.39v0h.91v0l.09.39Z"/></g></g></svg>