<svg xmlns="http://www.w3.org/2000/svg" xmlns:xlink="http://www.w3.org/1999/xlink" viewBox="0 0 100 115.47"><defs><style>.cls-1,.cls-5{isolation:isolate;}.cls-2{fill:url(#linear-gradient);}.cls-3{fill:#631436;}.cls-4{fill:#fff;}.cls-5{opacity:0.13;}.cls-6{fill:#36c;}.cls-12,.cls-20,.cls-7{fill:#133763;}.cls-7{opacity:0.71;}.cls-8{fill:url(#linear-gradient-2);}.cls-16,.cls-9{fill:#fafcfb;}.cls-10,.cls-17{fill:#f6f0e8;}.cls-11,.cls-18{fill:#115f9b;}.cls-13{fill:#4fbcd8;}.cls-14,.cls-21{fill:#265a9d;}.cls-15,.cls-22{fill:#ffb726;}.cls-15{mix-blend-mode:soft-light;}.cls-16,.cls-17,.cls-18,.cls-19,.cls-20,.cls-21{opacity:0.4;mix-blend-mode:multiply;}</style><linearGradient id="linear-gradient" y1="58.27" x2="100" y2="58.27" gradientTransform="matrix(1, 0, 0, -1, 0, 116)" gradientUnits="userSpaceOnUse"><stop offset="0.09" stop-color="#c06"/><stop offset="0.51" stop-color="#f06"/><stop offset="0.98" stop-color="#906"/></linearGradient><linearGradient id="linear-gradient-2" x1="76.39" y1="73.11" x2="24.46" y2="21.18" gradientUnits="userSpaceOnUse"><stop offset="0" stop-color="#099"/><stop offset="0.11" stop-color="#39c"/><stop offset="0.24" stop-color="#69c"/><stop offset="0.4" stop-color="#9cf"/><stop offset="0.54" stop-color="#9cf"/><stop offset="0.68" stop-color="#09c"/><stop offset="0.81" stop-color="#369"/><stop offset="0.96" stop-color="#36c"/><stop offset="1" stop-color="#cff"/></linearGradient></defs><title>houselight</title><g class="cls-1"><g id="Layer_1" data-name="Layer 1"><g id="Layer_1-2" data-name="Layer 1"><polygon class="cls-2" points="100 28.87 100 86.6 50 115.47 10 92.38 9.82 92.27 0 86.6 0 28.87 50 0 100 28.87"/><path class="cls-3" d="M62.28,104l1.41-.81.06.11a2.7,2.7,0,0,1,.3.73,1.69,1.69,0,0,1,0,.69,1.79,1.79,0,0,1-.9,1.23,1.92,1.92,0,0,1-1.53.19,2.05,2.05,0,0,1-.47-3.77,2,2,0,0,1,.84-.27,2.48,2.48,0,0,1,1,.15l-.19.6a1.44,1.44,0,0,0-1.35,0,1.4,1.4,0,0,0-.69.9,1.44,1.44,0,0,0,.16,1.1,1.39,1.39,0,0,0,1,.7,1.41,1.41,0,0,0,1-.14,1.18,1.18,0,0,0,.53-.65,1.06,1.06,0,0,0,0-.81l-.85.49Z" transform="translate(0 0)"/><rect class="cls-3" x="65.52" y="100.06" width="0.6" height="3.94" transform="translate(-42.15 46.49) rotate(-29.95)"/><polygon class="cls-3" points="68.31 98.97 70 101.91 69.48 102.2 67.8 99.27 67.01 99.72 66.73 99.24 68.81 98.04 69.09 98.52 68.31 98.97"/><path class="cls-3" d="M73,95.88l.35.61a1.65,1.65,0,0,0-1.14.16,1.37,1.37,0,0,0-.67.89,1.48,1.48,0,0,0,.17,1.13,1.45,1.45,0,0,0,.89.7,1.39,1.39,0,0,0,1.1-.14,1.25,1.25,0,0,0,.41-.36,1.52,1.52,0,0,0,.15-.25,3.41,3.41,0,0,0,.14-.32l.36.62a2.14,2.14,0,0,1-.79.79,2,2,0,1,1-1-3.82" transform="translate(0 0)"/><path class="cls-4" d="M75.47,95.73a1.93,1.93,0,0,1-.19-1.57,2,2,0,0,1,1-1.25,2.06,2.06,0,0,1,2.8.75,1.94,1.94,0,0,1,.19,1.55,2.09,2.09,0,0,1-2.43,1.48,1.94,1.94,0,0,1-1.35-1M76,95.4a1.46,1.46,0,0,0,2.69-.24,1.53,1.53,0,0,0-1-1.83,1.38,1.38,0,0,0-1.11.15,1.4,1.4,0,0,0-.69.89,1.42,1.42,0,0,0,.1,1.11" transform="translate(0 0)"/><rect class="cls-3" x="80.84" y="91.25" width="0.6" height="3.94" transform="translate(-35.72 53) rotate(-29.97)"/><polygon class="cls-3" points="84.38 93.63 82.28 89.98 86.27 91.16 84.91 88.78 85.42 88.48 87.51 92.11 83.52 90.94 84.89 93.34 84.38 93.63"/><g id="Layer_2-2" data-name="Layer 2-2"><g id="Layer_16" data-name="Layer 16"><path class="cls-5" d="M87.33,31.42l-.49-.26-.64-.33-.7-.41-.1,0-.4-.3-.49-.24-.81-.47-6.54-3.8-1.54-.88L75,24.29l-.41-.23-.47-.24h0l-.38-.23-.37-.22-4.85-2.81L50.93,10.43l-.49-.27L50,10.4,34.58,19.31l-4.52,2.61-1.16.67-.49.28h-.09L28.1,23l-.38.23-.27.15-.24.14-.21.14-1.35.79h0L24,25.38h0l-.52.31-.69.39h0l-3,1.74h0l-2.15,1.23-.9.53-2.65,1.58-3.82,2.2-1.39.8v47.9H9l1.55.9.67.39.13.07,3.9,2.25.62.35.49.28,1.7,1,1.43.83.41.23,1.17.67,3,1.82L29,93.59l.62.36h.06l.13.07.1.06.16.09h0l1.72,1,.79.45,1.2.7.8.46.16.09L35,97l.17.1.43.25,3.22,1.84h.08l.4.23.56.33.65.38h0l.49.27,1.36.78,2.86,1.66,4,2.33.93.54.21.12h0l.17-.1.13-.07h0l.28-.16,1.64-.93h.08l.62-.36.45-.26.22-.13,3.47-2,2.21-1.27.67-.39.6-.34.6-.35.4-.23,2.1-1.2.35-.19h0l.33-.06.19-.11.57-.32.72-.41,1.14-.66.41-.24h0l.42-.24h0l.23-.13.49-.28.33-.19.32-.19.5-.28.19-.12.29-.16.39-.22h0l.11-.11.22-.12,3.41-2,.36-.26,1-.58,2.68-1.54,1.41-.81,2.75-1.59,1.71-1,3.23-1.87h.05L90.21,83l.81-.47L92,82V34.16Zm3,49.65-.47.27-.29.16-.57.32-6.85,4-1,.56-1.71,1L78,88.16,75.16,89.8,74,90.48l-.65.37-2.64,1.52h-.06l-.14.08-.16.1-.51.29-.8.46-.19.12h0l-.85.5h-.08l-3.53,2h-.07l-.71.41h-.07l-.82.48-1.94,1.12-1.39.79-1.52.87-1,.57-2.68,1.55-1.11.64H53l-.67.4-.25.14-1.69,1-3.11-1.79-1.11-.64-.54-.31L44,100.36l-.65-.37-.62-.36L38,96.89l-.7-.41h0l-1.62-.93-1.86-1.07L33,94l-.52-.31-.23-.13-.39-.23-.19-.11-1.58-.91-.28-.15-.17-.1-1.35-.78L25.2,89.49l-3.53-2-.27-.15-1.32-.76-.39-.23L17,84.76l-4.42-2.6-.81-.46-.35-.21-.21-.12-.6-.35V35l3.51-2,2.69-1.55.84-.49h.06l2.89-1.67h0l1.23-.71h0l1.61-.93L24.57,27l.43-.24h0l.69-.4.41-.22h0l2.69-1.55h0l.7-.41.32-.18.19-.15.26-.15.15-.09.24-.13h0l7.25-4.19,12.1-7,.42-.24.49.28,15.2,8.81,6.3,3.64h0l.29.16.1,0,.4.23.32.18,1.11.64,1.75,1,6.33,3.64,1.27.73.5.29h0l.69.4.17.1.49.28.49.28,3.93,2.27v46Z" transform="translate(0 0)"/></g></g></g><path class="cls-6" d="M90.25,59.25l.08,21.82L64.85,75.73l-7.29-4.95L41.67,74.5,10.61,81V59.25S90.06,59.06,90.25,59.25Z" transform="translate(0 0)"/><path class="cls-7" d="M90.25,59.26l.08,21.82L64.85,75.73l-7.29-4.95-15.9,3.72L10.61,81V59.26S90.06,59.07,90.25,59.26Z" transform="translate(0 0)"/><polygon class="cls-8" points="50.42 12.08 10.61 35.03 10.61 59.25 43.63 59.25 90.25 59.25 90.25 35.06 50.42 12.08"/><polyline class="cls-9" points="37.25 81 83.75 80.25 85.6 79.61 90.31 81.03 90.33 81.08 50.39 103.9 10.61 81.03 16 78.26 27.54 74.58 50.49 71.11 65.33 72.45 71.36 75.88 85.6 79.61 85.67 83.74 16 83.74"/><polygon class="cls-10" points="59.76 77.4 41.88 77.4 42.59 69.42 59.06 69.42 59.76 77.4"/><polygon class="cls-10" points="58.17 70.55 43.48 70.55 44.77 26.37 56.88 26.37 58.17 70.55"/><polygon class="cls-11" points="44.2 44.49 44.09 49.71 57.56 49.71 57.45 44.49 44.2 44.49"/><polygon class="cls-11" points="57.98 63.12 57.81 56.47 43.84 56.47 43.67 63.12 57.98 63.12"/><rect class="cls-11" x="40.91" y="31.06" width="19.7" height="0.52"/><path class="cls-11" d="M51,33.66H41.11a11.84,11.84,0,0,1,3.26,4.86H57.59a11.85,11.85,0,0,1,3.26-4.86Z" transform="translate(0 0)"/><rect class="cls-11" x="41.69" y="31.58" width="0.26" height="2.26"/><rect class="cls-11" x="42.64" y="31.58" width="0.26" height="2.26"/><rect class="cls-11" x="43.6" y="31.58" width="0.35" height="2.26"/><rect class="cls-11" x="44.55" y="31.58" width="0.26" height="2.26"/><rect class="cls-11" x="45.51" y="31.58" width="0.35" height="2.26"/><rect class="cls-11" x="46.55" y="31.58" width="0.26" height="2.26"/><rect class="cls-11" x="47.5" y="31.58" width="0.26" height="2.26"/><rect class="cls-11" x="48.46" y="31.58" width="0.26" height="2.26"/><rect class="cls-11" x="49.33" y="31.58" width="0.26" height="2.26"/><rect class="cls-11" x="50.28" y="31.58" width="0.35" height="2.26"/><rect class="cls-11" x="51.41" y="31.58" width="0.17" height="2.26"/><rect class="cls-11" x="52.36" y="31.58" width="0.17" height="2.26"/><rect class="cls-11" x="53.32" y="31.58" width="0.26" height="2.26"/><rect class="cls-11" x="54.19" y="31.58" width="0.26" height="2.26"/><rect class="cls-11" x="55.14" y="31.58" width="0.35" height="2.26"/><rect class="cls-11" x="56.09" y="31.58" width="0.35" height="2.26"/><rect class="cls-11" x="57.14" y="31.58" width="0.26" height="2.26"/><rect class="cls-11" x="58.18" y="31.58" width="0.17" height="2.26"/><rect class="cls-11" x="59.05" y="31.58" width="0.26" height="2.26"/><rect class="cls-11" x="60" y="31.58" width="0.26" height="2.26"/><path class="cls-11" d="M53.08,77.43v-5a2.26,2.26,0,0,0-4.51,0v5Z" transform="translate(0 0)"/><circle class="cls-12" cx="50.82" cy="73.99" r="0.39"/><rect class="cls-13" x="49.41" y="64.12" width="2.86" height="4.69"/><rect class="cls-12" x="49.24" y="68.64" width="3.12" height="0.35"/><rect class="cls-13" x="49.41" y="50.76" width="2.86" height="4.69"/><rect class="cls-12" x="49.24" y="55.27" width="3.12" height="0.35"/><rect class="cls-13" x="49.41" y="39.13" width="2.86" height="4.69"/><rect class="cls-12" x="49.24" y="43.64" width="3.12" height="0.35"/><path class="cls-10" d="M57.14,26.36a6.83,6.83,0,0,0-12.64,0Z" transform="translate(0 0)"/><path class="cls-14" d="M57.48,26.41a.39.39,0,0,1-.39.39H44.68a.39.39,0,0,1-.39-.39h0a.39.39,0,0,1,.39-.39H57.09a.39.39,0,0,1,.39.39Z" transform="translate(0 0)"/><circle class="cls-12" cx="50.84" cy="28.76" r="1.52"/><polygon class="cls-15" points="30.11 23.15 30.11 33.55 50.96 28.49 30.11 23.15"/><polygon class="cls-15" points="71.28 23.25 50.36 28.49 71.28 33.46 71.28 23.25"/><polygon class="cls-16" points="50.81 83.74 85.67 83.74 85.6 79.61 71.36 75.88 65.33 72.45 50.81 71.14 50.81 83.74"/><polygon class="cls-17" points="50.81 77.4 59.76 77.4 59.06 69.42 50.81 69.42 50.81 77.4"/><polygon class="cls-17" points="58.14 69.46 56.88 26.37 50.81 26.37 50.81 69.46 58.14 69.46"/><polygon class="cls-18" points="50.81 49.71 57.56 49.71 57.45 44.49 50.81 44.49 50.81 49.71"/><polygon class="cls-18" points="50.81 63.12 57.98 63.12 57.81 56.47 50.81 56.47 50.81 63.12"/><rect class="cls-18" x="50.81" y="31.06" width="9.8" height="0.52"/><path class="cls-18" d="M50.81,33.66v4.86h6.78a11.85,11.85,0,0,1,3.26-4.86Z" transform="translate(0 0)"/><g class="cls-19"><rect class="cls-11" x="51.41" y="31.58" width="0.17" height="2.26"/><rect class="cls-11" x="52.36" y="31.58" width="0.17" height="2.26"/><rect class="cls-11" x="53.32" y="31.58" width="0.26" height="2.26"/><rect class="cls-11" x="54.19" y="31.58" width="0.26" height="2.26"/><rect class="cls-11" x="55.14" y="31.58" width="0.35" height="2.26"/><rect class="cls-11" x="56.09" y="31.58" width="0.35" height="2.26"/><rect class="cls-11" x="57.14" y="31.58" width="0.26" height="2.26"/><rect class="cls-11" x="58.18" y="31.58" width="0.17" height="2.26"/><rect class="cls-11" x="59.05" y="31.58" width="0.26" height="2.26"/><rect class="cls-11" x="60" y="31.58" width="0.26" height="2.26"/></g><path class="cls-18" d="M50.82,70.16h0v7.27h2.27v-5A2.26,2.26,0,0,0,50.82,70.16Z" transform="translate(0 0)"/><path class="cls-20" d="M50.82,73.59h0v.78h0a.39.39,0,0,0,0-.79Z" transform="translate(0 0)"/><g class="cls-19"><rect class="cls-13" x="50.81" y="64.12" width="1.47" height="4.69"/><rect class="cls-12" x="50.81" y="68.64" width="1.55" height="0.35"/></g><g class="cls-19"><rect class="cls-13" x="50.81" y="50.76" width="1.47" height="4.69"/><rect class="cls-12" x="50.81" y="55.27" width="1.55" height="0.35"/></g><g class="cls-19"><rect class="cls-13" x="50.81" y="39.13" width="1.47" height="4.69"/><rect class="cls-12" x="50.81" y="43.64" width="1.55" height="0.35"/></g><path class="cls-17" d="M50.81,26.36h6.34a6.83,6.83,0,0,0-6.32-4.24h0Z" transform="translate(0 0)"/><path class="cls-21" d="M57.09,26H50.81v.78h6.28a.39.39,0,0,0,0-.78Z" transform="translate(0 0)"/><path class="cls-20" d="M50.84,27.23h0v3h0a1.52,1.52,0,1,0,0-3Z" transform="translate(0 0)"/><g class="cls-19"><polygon class="cls-15" points="50.7 28.43 50.7 28.55 50.96 28.49 50.7 28.43"/><polygon class="cls-15" points="50.7 28.41 50.7 28.57 71.28 33.46 71.28 23.25 50.7 28.41"/></g><path class="cls-9" d="M30.81,41a1.14,1.14,0,0,0-2.14,0Z" transform="translate(0 0)"/><path class="cls-9" d="M34.28,41a1.14,1.14,0,0,0-2.14,0Z" transform="translate(0 0)"/><path class="cls-9" d="M33.21,41a1.76,1.76,0,0,0,0-.19,1.73,1.73,0,1,0-3.47,0,1.75,1.75,0,0,0,0,.19Z" transform="translate(0 0)"/><path class="cls-9" d="M71.59,50.52a1.14,1.14,0,0,0-2.14,0Z" transform="translate(0 0)"/><path class="cls-9" d="M75.06,50.52a1.14,1.14,0,0,0-2.14,0Z" transform="translate(0 0)"/><path class="cls-9" d="M74,50.52a1.79,1.79,0,0,0,0-.19,1.73,1.73,0,1,0-3.47,0,1.77,1.77,0,0,0,0,.19Z" transform="translate(0 0)"/><path class="cls-9" d="M69.85,41.13a1.6,1.6,0,0,0-3,0Z" transform="translate(0 0)"/><path class="cls-9" d="M73.14,41.13a2.44,2.44,0,0,0,0-.28,2.41,2.41,0,1,0-4.8.28Z" transform="translate(0 0)"/><path class="cls-9" d="M75.34,41.13a1.91,1.91,0,0,0-3.8,0Z" transform="translate(0 0)"/><path class="cls-9" d="M76.88,41.13a1.6,1.6,0,0,0-3,0Z" transform="translate(0 0)"/><path class="cls-9" d="M25.66,50.89a2.29,2.29,0,0,0-4.42,0Z" transform="translate(0 0)"/><path class="cls-9" d="M33.79,50.89a2.29,2.29,0,0,0-4.42,0Z" transform="translate(0 0)"/><path class="cls-9" d="M30.73,50.89a3.68,3.68,0,0,0-7.27,0Z" transform="translate(0 0)"/><path class="cls-9" d="M37,50.89a2.29,2.29,0,0,0-4.42,0Z" transform="translate(0 0)"/><polygon class="cls-9" points="21.89 61.81 22.09 62.09 22.42 62.19 22.22 62.47 22.22 62.81 21.89 62.7 21.57 62.81 21.57 62.47 21.37 62.19 21.7 62.09 21.89 61.81"/><polygon class="cls-9" points="76.51 60.88 76.7 61.16 77.03 61.26 76.83 61.54 76.83 61.88 76.51 61.77 76.18 61.88 76.19 61.54 75.98 61.26 76.31 61.16 76.51 60.88"/><polygon class="cls-22" points="71.4 66.93 71.56 67.16 71.83 67.24 71.66 67.46 71.66 67.74 71.4 67.65 71.14 67.74 71.14 67.46 70.97 67.24 71.24 67.16 71.4 66.93"/><polygon class="cls-9" points="29.99 67.48 30.1 67.64 30.29 67.69 30.17 67.85 30.18 68.04 29.99 67.98 29.81 68.04 29.82 67.85 29.7 67.69 29.88 67.64 29.99 67.48"/><polygon class="cls-22" points="33.72 62.15 33.83 62.3 34.01 62.36 33.9 62.51 33.9 62.7 33.72 62.64 33.54 62.7 33.54 62.51 33.43 62.36 33.61 62.3 33.72 62.15"/><polygon class="cls-22" points="20.68 69.51 20.79 69.67 20.97 69.73 20.86 69.88 20.86 70.07 20.68 70.01 20.5 70.07 20.5 69.88 20.39 69.73 20.57 69.67 20.68 69.51"/><polygon class="cls-9" points="64.54 60.88 64.65 61.03 64.83 61.09 64.72 61.24 64.72 61.43 64.54 61.37 64.36 61.43 64.36 61.24 64.25 61.09 64.43 61.03 64.54 60.88"/><polygon class="cls-9" points="79.61 70.87 79.72 71.02 79.9 71.08 79.79 71.23 79.79 71.42 79.61 71.36 79.43 71.42 79.43 71.23 79.32 71.08 79.5 71.02 79.61 70.87"/><polygon class="cls-9" points="82.57 66.04 82.68 66.2 82.87 66.25 82.75 66.41 82.75 66.6 82.57 66.54 82.39 66.6 82.39 66.41 82.28 66.25 82.46 66.2 82.57 66.04"/></g></g></svg>