<svg id="Layer_1" data-name="Layer 1" xmlns="http://www.w3.org/2000/svg" xmlns:xlink="http://www.w3.org/1999/xlink" viewBox="0 0 86.6 100"><defs><style>.cls-1{fill:#9cc;}.cls-2{fill:#9149ab;}.cls-3{fill:#306;}.cls-4{fill:url(#linear-gradient);}.cls-5{fill:url(#linear-gradient-2);}.cls-6{fill:url(#linear-gradient-3);}.cls-7{fill:url(#linear-gradient-4);}.cls-13,.cls-14,.cls-15,.cls-8{fill:#fff;}.cls-9{fill:url(#linear-gradient-5);}.cls-10{fill:url(#linear-gradient-6);}.cls-11{fill:#682091;opacity:0.3;}.cls-12{fill:#cc3;}.cls-13{opacity:0.92;}.cls-14{opacity:0.55;}.cls-15{opacity:0.39;}.cls-16{fill:#c151e1;}.cls-17{fill:#7a339c;}.cls-18{fill:#9942c0;}.cls-19{fill:#35324c;}.cls-20{fill:#a0616b;}.cls-21{fill:#ffbcc6;}.cls-22{fill:#6e52df;}.cls-23{fill:#7e6df5;}.cls-24{font-size:5px;font-family:Montserrat-Bold, Montserrat;font-weight:700;}.cls-25{letter-spacing:-0.01em;}</style><linearGradient id="linear-gradient" x1="53.53" y1="89.46" x2="57.17" y2="89.46" gradientUnits="userSpaceOnUse"><stop offset="0" stop-color="#ccf"/><stop offset="0.5" stop-color="#66c"/><stop offset="1" stop-color="#30c"/></linearGradient><linearGradient id="linear-gradient-2" x1="57.63" y1="87.51" x2="59.92" y2="87.51" gradientTransform="translate(51.54 -17.66) rotate(29.95)" xlink:href="#linear-gradient"/><linearGradient id="linear-gradient-3" x1="59.61" y1="85.74" x2="62.64" y2="85.74" xlink:href="#linear-gradient"/><linearGradient id="linear-gradient-4" x1="63.36" y1="83.67" x2="66.92" y2="83.67" xlink:href="#linear-gradient"/><linearGradient id="linear-gradient-5" x1="71.79" y1="79.35" x2="74.09" y2="79.35" gradientTransform="translate(49.39 -25.83) rotate(29.97)" xlink:href="#linear-gradient"/><linearGradient id="linear-gradient-6" x1="74" y1="77.35" x2="78.84" y2="77.35" xlink:href="#linear-gradient"/></defs><title>justice</title><g id="_Group_" data-name=" Group "><polygon class="cls-1" points="43.29 10.71 9.27 30.36 9.27 69.64 43.29 89.28 77.31 69.64 77.31 30.36 43.29 10.71"/><g id="bender"><g id="Layer_3" data-name="Layer 3"><path class="cls-2" d="M43.33,0,0,25V75l43.33,25L86.6,75V25ZM79.12,70.69,43.33,91.37,7.47,70.69V29.31L43.33,8.63,79.12,29.31Z"/><path class="cls-3" d="M43.33,8.63,7.46,29.31V70.68L43.33,91.37,79.12,70.68V29.31Zm34,61-34,19.65-34-19.64V30.36l34-19.65,34,19.65Z"/><path class="cls-4" d="M55.49,89.3l1.31-.75.06.1a2.53,2.53,0,0,1,.28.68,1.58,1.58,0,0,1,0,.64,1.65,1.65,0,0,1-.81,1.14,1.78,1.78,0,0,1-1.41.18,1.9,1.9,0,0,1-.43-3.48,1.86,1.86,0,0,1,.78-.25,2.29,2.29,0,0,1,.89.14l-.15.52a1.33,1.33,0,0,0-1.25,0,1.3,1.3,0,0,0-.64.83,1.33,1.33,0,0,0,.15,1,1.29,1.29,0,0,0,.88.65,1.31,1.31,0,0,0,1-.13,1.1,1.1,0,0,0,.49-.6,1,1,0,0,0,0-.75l-.79.45Z"/><rect class="cls-5" x="58.5" y="85.69" width="0.55" height="3.65" transform="translate(-35.84 41.03) rotate(-29.95)"/><polygon class="cls-6" points="61.08 84.67 62.64 87.39 62.16 87.66 60.6 84.95 59.87 85.36 59.61 84.92 61.54 83.81 61.8 84.25 61.08 84.67"/><path class="cls-7" d="M65.33,81.82l.32.56a1.52,1.52,0,0,0-1.06.15,1.26,1.26,0,0,0-.62.82,1.36,1.36,0,0,0,.15,1,1.33,1.33,0,0,0,.82.65,1.29,1.29,0,0,0,1-.13,1.18,1.18,0,0,0,.38-.33,1.4,1.4,0,0,0,.14-.23,2.85,2.85,0,0,0,.13-.3l.33.58a2,2,0,0,1-.73.73,1.83,1.83,0,0,1-1.43.19,1.81,1.81,0,0,1-1.14-.88,1.88,1.88,0,0,1-.22-1.31A1.83,1.83,0,0,1,64.34,82a1.86,1.86,0,0,1,1-.24"/><path class="cls-8" d="M67.69,81.68a1.79,1.79,0,0,1-.17-1.43,1.87,1.87,0,0,1,.9-1.16,1.91,1.91,0,0,1,2.59.7,1.79,1.79,0,0,1,.18,1.44,1.93,1.93,0,0,1-2.25,1.37,1.79,1.79,0,0,1-1.24-.92m.48-.27a1.35,1.35,0,0,0,2.5-.3,1.42,1.42,0,0,0-1-1.7,1.28,1.28,0,0,0-1,.13,1.3,1.3,0,0,0-.64.82,1.32,1.32,0,0,0,.14,1"/><rect class="cls-9" x="72.66" y="77.52" width="0.55" height="3.65" transform="translate(-29.89 47.05) rotate(-29.97)"/><polygon class="cls-10" points="75.94 79.73 74 76.35 77.69 77.44 76.43 75.24 76.91 74.96 78.84 78.32 75.14 77.24 76.42 79.45 75.94 79.73"/></g></g></g><ellipse class="cls-11" cx="22" cy="70.19" rx="9.92" ry="0.93"/><ellipse class="cls-11" cx="65.35" cy="70.19" rx="9.9" ry="0.93"/><ellipse class="cls-11" cx="43.24" cy="81.61" rx="11.82" ry="1.11"/><path class="cls-12" d="M65.91,36.87l-.27.42a.53.53,0,0,1-.49.24l-19.5-1.29a1.2,1.2,0,0,1-1.2-1.2v-.44a1.06,1.06,0,0,1,.53-.93,3.18,3.18,0,1,0-3.1,0,1.09,1.09,0,0,1,.56.95v.44a1.2,1.2,0,0,1-1.2,1.2L21.79,37.52a.6.6,0,0,1-.55-.27L21,36.89a.23.23,0,0,0-.42.13v.8a.44.44,0,0,0,.44.44H42.44v21a2.76,2.76,0,0,0-1.76,2.57v5a1.27,1.27,0,0,1-1.27,1.27H39a2,2,0,0,0-2,1.67h-.37a2,2,0,0,0-2,2h.09a3.16,3.16,0,0,0-3.16,3.16v.19H55.3v-.19a3.16,3.16,0,0,0-3.16-3.16h.09a2,2,0,0,0-2-2h-.37a2,2,0,0,0-2-1.67h-.4A1.27,1.27,0,0,1,46.2,66.8v-5a2.76,2.76,0,0,0-1.76-2.57v-21H65.8a.51.51,0,0,0,.51-.51V37A.21.21,0,0,0,65.91,36.87Z"/><path class="cls-12" d="M33,76h.11a3.75,3.75,0,0,0-3.75,3.75V80h28.2v-.23A3.75,3.75,0,0,0,53.83,76H33Z"/><rect class="cls-12" x="45.67" y="39.68" width="2.39" height="2.39"/><path class="cls-13" d="M28.42,35.29a2.92,2.92,0,0,0-3.48-2.22A5,5,0,0,0,15,33h-.22a2,2,0,0,0-2,2.31Z"/><path class="cls-8" d="M76.92,35.25a2.08,2.08,0,0,0-2.49-1.59,3.57,3.57,0,0,0-7.12-.06h-.16a1.42,1.42,0,0,0-1.41,1.65Z"/><path class="cls-14" d="M59,32.26a1.75,1.75,0,0,0-2.09-1.33,3,3,0,0,0-6,0h-.13a1.19,1.19,0,0,0-1.19,1.39Z"/><path class="cls-15" d="M39.31,31.54a1.54,1.54,0,0,0-1.83-1.17,2.63,2.63,0,0,0-5.25,0h-.12a1,1,0,0,0-1,1.22Z"/><path class="cls-8" d="M40.44,47.33a1.2,1.2,0,0,0-1.17-.94l-.26,0a2.06,2.06,0,0,0-4.11,0h-.09a.82.82,0,0,0-.81,1Z"/><polygon class="cls-2" points="61.25 26.62 25.75 26.62 26.96 23.96 25.75 21.31 61.25 21.31 60.04 23.96 61.25 26.62"/><rect class="cls-16" x="10" y="57.11" width="22.95" height="0.84"/><polygon class="cls-17" points="32.37 57.15 21.56 38.52 11.08 57.15 10.93 57.07 21.56 38.18 32.52 57.07 32.37 57.15"/><polygon class="cls-16" points="20.16 51.37 19.93 50.65 19.99 49.39 18.36 49.41 18.46 50.65 18.19 51.37 20.16 51.37"/><polygon class="cls-18" points="18.17 51.36 20.17 51.34 20.17 56.88 20.9 57.02 20.9 57.11 19.91 57.11 19.46 52.29 19 52.29 18.81 57.11 17.79 57.11 17.79 57.08 18.54 56.88 18.17 51.36"/><circle class="cls-18" cx="19.11" cy="48.58" r="0.56"/><circle class="cls-19" cx="19.11" cy="48.35" r="0.66"/><circle class="cls-20" cx="19.11" cy="48.69" r="0.55"/><path class="cls-16" d="M18.36,49.41l-1.55,1.33,1,.62.17-.19s-.6-.45-.54-.47,1.16-.9,1.16-.9Z"/><circle class="cls-20" cx="18.03" cy="51.28" r="0.24"/><path class="cls-16" d="M20,49.39l1.58,1.35-1,.62-.17-.19s.6-.45.54-.47-1.16-.9-1.16-.9Z"/><circle class="cls-20" cx="20.33" cy="51.28" r="0.24"/><polygon class="cls-16" points="29.25 51.37 29.02 50.65 29.07 49.39 27.44 49.41 27.54 50.65 27.27 51.37 29.25 51.37"/><polygon class="cls-18" points="27.26 51.36 29.25 51.34 29.25 56.88 29.98 57.02 29.98 57.11 28.99 57.11 28.54 52.29 28.09 52.29 27.9 57.11 26.88 57.11 26.88 57.08 27.63 56.88 27.26 51.36"/><circle class="cls-18" cx="28.19" cy="48.58" r="0.56"/><circle class="cls-18" cx="28.19" cy="47.96" r="0.42"/><circle class="cls-21" cx="28.19" cy="48.69" r="0.55"/><path class="cls-16" d="M27.44,49.41l-1.55,1.33,1,.62.17-.19s-.6-.45-.54-.47,1.16-.9,1.16-.9Z"/><circle class="cls-21" cx="27.12" cy="51.28" r="0.24"/><path class="cls-16" d="M29.07,49.39l1.58,1.35-1,.62-.17-.19s.6-.45.54-.47-1.16-.9-1.16-.9Z"/><circle class="cls-21" cx="29.42" cy="51.28" r="0.24"/><rect class="cls-18" x="23.51" y="48.6" width="1.11" height="0.83"/><polygon class="cls-16" points="25.12 51.37 24.89 50.65 24.95 49.39 23.32 49.41 23.42 50.65 23.15 51.37 25.12 51.37"/><polygon class="cls-18" points="23.14 51.36 25.13 51.34 25.13 56.88 25.86 57.02 25.86 57.11 24.87 57.11 24.42 52.29 23.97 52.29 23.77 57.11 22.75 57.11 22.75 57.08 23.5 56.88 23.14 51.36"/><circle class="cls-21" cx="24.07" cy="48.69" r="0.55"/><path class="cls-18" d="M24.07,48.14a.55.55,0,0,0-.55.54.57.57,0,0,0,.81-.32.58.58,0,0,0,.29.27A.55.55,0,0,0,24.07,48.14Z"/><path class="cls-16" d="M23.32,49.41l-1.55,1.33,1,.62.17-.19s-.6-.45-.54-.47,1.16-.9,1.16-.9Z"/><circle class="cls-21" cx="23" cy="51.28" r="0.24"/><polygon class="cls-16" points="24.94 49.4 25.9 48.53 26.38 47.35 26.64 47.37 26.21 48.72 24.87 50.04 24.94 49.4"/><circle class="cls-21" cx="26.45" cy="47.13" r="0.24"/><rect class="cls-18" x="13.95" y="48.6" width="1.11" height="0.83" transform="translate(29.01 98.03) rotate(180)"/><polygon class="cls-16" points="13.45 51.37 13.68 50.65 13.62 49.39 15.26 49.41 15.15 50.65 15.43 51.37 13.45 51.37"/><polygon class="cls-18" points="15.44 51.36 13.44 51.34 13.44 56.88 12.72 57.02 12.71 57.11 13.7 57.11 14.15 52.29 14.61 52.29 14.8 57.11 15.82 57.11 15.82 57.08 15.07 56.88 15.44 51.36"/><circle class="cls-21" cx="14.5" cy="48.69" r="0.55"/><path class="cls-18" d="M14.5,48.14a.55.55,0,0,1,.55.54.57.57,0,0,1-.81-.32.58.58,0,0,1-.29.27A.55.55,0,0,1,14.5,48.14Z"/><path class="cls-16" d="M15.26,49.41l1.55,1.33-1,.62-.17-.19s.6-.45.54-.47S15,49.8,15,49.8Z"/><circle class="cls-21" cx="15.58" cy="51.28" r="0.24"/><polygon class="cls-16" points="13.63 49.4 12.67 48.53 12.2 47.35 11.93 47.37 12.36 48.72 13.7 50.04 13.63 49.4"/><circle class="cls-21" cx="12.13" cy="47.13" r="0.24"/><rect class="cls-22" x="54.22" y="57.11" width="22.95" height="0.84"/><polygon class="cls-17" points="76.59 57.15 65.78 38.52 55.3 57.15 55.15 57.07 65.78 38.18 76.74 57.07 76.59 57.15"/><polygon class="cls-22" points="73.01 51.37 72.83 49.39 71.2 49.41 71.03 51.37 73.01 51.37"/><polygon class="cls-23" points="71.02 51.36 73.02 51.34 73.02 56.88 73.74 57.02 73.75 57.11 72.75 57.11 72.3 52.29 71.85 52.29 71.66 57.11 70.64 57.11 70.64 57.08 71.39 56.88 71.02 51.36"/><circle class="cls-22" cx="71.95" cy="48.58" r="0.56"/><circle class="cls-21" cx="71.95" cy="48.69" r="0.55"/><path class="cls-22" d="M71.2,49.41l-1.55,1.33,1,.62.17-.19s-.6-.45-.54-.47,1.16-.9,1.16-.9Z"/><circle class="cls-21" cx="70.88" cy="51.28" r="0.24"/><path class="cls-22" d="M72.83,49.39l1.58,1.35-1,.62-.17-.19s.6-.45.54-.47-1.16-.9-1.16-.9Z"/><circle class="cls-21" cx="73.18" cy="51.28" r="0.24"/><polygon class="cls-22" points="64.44 51.37 64.27 49.39 62.64 49.41 62.47 51.37 64.44 51.37"/><polygon class="cls-23" points="62.45 51.36 64.45 51.34 64.45 56.88 65.18 57.02 65.18 57.11 64.19 57.11 63.74 52.29 63.29 52.29 63.09 57.11 62.07 57.11 62.07 57.08 62.82 56.88 62.45 51.36"/><circle class="cls-19" cx="63.39" cy="48.49" r="0.6"/><circle class="cls-20" cx="63.39" cy="48.69" r="0.55"/><path class="cls-22" d="M62.64,49.41l-1.55,1.33,1,.62.17-.19s-.6-.45-.54-.47,1.16-.9,1.16-.9Z"/><circle class="cls-20" cx="62.31" cy="51.28" r="0.24"/><path class="cls-22" d="M64.26,49.39l1.58,1.35-1,.62-.17-.19s.6-.45.54-.47S64,49.8,64,49.8Z"/><circle class="cls-20" cx="64.61" cy="51.28" r="0.24"/><polygon class="cls-22" points="69.34 51.37 69.17 49.39 67.54 49.41 67.37 51.37 69.34 51.37"/><polygon class="cls-23" points="67.35 51.36 69.35 51.34 69.35 56.88 70.08 57.02 70.08 57.11 69.09 57.11 68.64 52.29 68.19 52.29 67.99 57.11 66.97 57.11 66.97 57.08 67.72 56.88 67.35 51.36"/><circle class="cls-21" cx="68.29" cy="48.69" r="0.55"/><path class="cls-22" d="M68.29,48.14a.55.55,0,0,0-.55.54.57.57,0,0,0,.81-.32.58.58,0,0,0,.29.27A.55.55,0,0,0,68.29,48.14Z"/><path class="cls-22" d="M67.54,49.41,66,50.74l1,.62.17-.19s-.6-.45-.54-.47,1.16-.9,1.16-.9Z"/><circle class="cls-21" cx="67.22" cy="51.28" r="0.24"/><polygon class="cls-22" points="69.16 49.4 70.12 48.53 70.59 47.35 70.86 47.37 70.43 48.72 69.09 50.04 69.16 49.4"/><circle class="cls-21" cx="70.67" cy="47.13" r="0.24"/><polygon class="cls-22" points="57.67 51.37 57.84 49.39 59.48 49.41 59.65 51.37 57.67 51.37"/><polygon class="cls-23" points="59.66 51.36 57.66 51.34 57.66 56.88 56.94 57.02 56.93 57.11 57.92 57.11 58.38 52.29 58.83 52.29 59.02 57.11 60.04 57.11 60.04 57.08 59.29 56.88 59.66 51.36"/><circle class="cls-21" cx="58.72" cy="48.69" r="0.55"/><path class="cls-22" d="M58.72,48.14a.55.55,0,0,1,.55.54.57.57,0,0,1-.81-.32.58.58,0,0,1-.29.27A.55.55,0,0,1,58.72,48.14Z"/><path class="cls-22" d="M59.48,49.41,61,50.74l-1,.62-.17-.19s.6-.45.54-.47-1.16-.9-1.16-.9Z"/><circle class="cls-21" cx="59.8" cy="51.28" r="0.24"/><polygon class="cls-22" points="57.85 49.4 56.89 48.53 56.42 47.35 56.15 47.37 56.58 48.72 57.92 50.04 57.85 49.4"/><circle class="cls-21" cx="56.35" cy="47.13" r="0.24"/><text class="cls-24" transform="translate(34.56 25.46)">Justi<tspan class="cls-25" x="12.47" y="0">c</tspan><tspan x="15.39" y="0">e</tspan></text></svg>