<svg id="Badge" xmlns="http://www.w3.org/2000/svg" xmlns:xlink="http://www.w3.org/1999/xlink" viewBox="0 0 322.44 214.96"><defs><style>.cls-1{fill:none;}.cls-2{fill:#0fce7c;}.cls-3{clip-path:url(#clip-path);}.cls-4{fill:#fcf0f3;}.cls-5{fill:#f6bbc8;}.cls-6{fill:#f2a0af;}.cls-7{fill:#ef8389;}.cls-8{fill:#fffafb;}.cls-9{fill:#f9d4d6;}.cls-10{fill:#ef848a;}.cls-11{fill:#f0888e;}.cls-12{fill:#f0878d;}.cls-13{fill:#f0898f;}.cls-14{fill:#ef868c;}.cls-15{fill:#5a29c4;opacity:0.13;isolation:isolate;}.cls-16{fill:#fcb1b1;}.cls-17{fill:#f98787;}.cls-18{fill:#e25a47;}.cls-19{fill:#ffd0ce;}.cls-20{fill:#f36261;}.cls-21{fill:#a8442a;}.cls-22{fill:#d63c3c;}.cls-23{fill:#cc5037;}.cls-24{fill:#eff4ee;}.cls-25{fill:#25e899;}.cls-26{fill:#15003e;}.cls-27{fill:#fff;}.cls-28{opacity:0.49;}</style><clipPath id="clip-path" transform="translate(126.61 71.43)"><polygon class="cls-1" points="55.43 0.27 0 32.27 0 96.28 55.43 128.28 110.86 96.28 110.86 32.27 55.43 0.27"/></clipPath></defs><path class="cls-2" d="M40,41.08a5.06,5.06,0,0,1-3.13-7.45c.74-1.27,6.5-2.27,7.59-1.38a5,5,0,0,1,1.79,3.11A5.06,5.06,0,0,1,44,40.43" transform="translate(126.61 71.43)"/><g class="cls-3"><path class="cls-4" d="M195.83-71.27V27.82c-.39.07-.65-.19-.93-.36A43.69,43.69,0,0,0,177.26,21a39,39,0,0,0-8.29-.2A41.91,41.91,0,0,0,155.57,24a2.6,2.6,0,0,1-.36.13.63.63,0,0,1-.71-.17.55.55,0,0,1,0-.71,21.11,21.11,0,0,0,1.08-2.12A14,14,0,0,0,150,3.4a13.4,13.4,0,0,0-7.54-2,15.61,15.61,0,0,0-8.9,3.21c-1.6,1.17-1.18,1.1-2.63,0a16.29,16.29,0,0,0-6.65-3,13.59,13.59,0,0,0-10.86,2.45,13.73,13.73,0,0,0-5.65,9.33,13.94,13.94,0,0,0-.06,3.65c.09.82,0,1-.83.78a22.85,22.85,0,0,0-4.73-.46,22,22,0,0,0-6.92,1.05c-.41.13-.81.29-1.23.39s-.67,0-.71-.5c-.06-.81-.13-1.63-.24-2.43a23.19,23.19,0,0,0-5.5-12A23.37,23.37,0,0,0,72.3-4.34,25.18,25.18,0,0,0,55.44-.22,34,34,0,0,0,52.35,2c-.68.53-.84.55-1.5,0a33.76,33.76,0,0,0-5.38-3.54,25.28,25.28,0,0,0-8.66-2.79A22.8,22.8,0,0,0,22.88-1.88a23.63,23.63,0,0,0-12.79,18,20.59,20.59,0,0,0,0,6.22,1.66,1.66,0,0,1,0,.32c0,.66-.13.79-.74.52A14.55,14.55,0,0,0,5.2,22.05a14.11,14.11,0,0,0-7.7,1.36,17.18,17.18,0,0,0-3.61,2.22c-.62.51-.81.49-1.46,0a16.44,16.44,0,0,0-9-3.63,13.18,13.18,0,0,0-6.28,1.11,14,14,0,0,0-6.71,6c-.44.77-.65.76-1.13,0A23.66,23.66,0,0,0-40.93,19.7a23.36,23.36,0,0,0-9-2.29,25.29,25.29,0,0,0-11.1,2.08c-.29.12-.63.39-.91.19s-.1-.65,0-1a30.35,30.35,0,0,0,.46-7A30.07,30.07,0,0,0-64.09,1.13,30.84,30.84,0,0,0-81.28-15.41a28.92,28.92,0,0,0-10.49-2.08c-7.61-.13-14.32,2.41-20.47,6.68-.9.63-1.76,1.32-2.62,2-.58.46-.7.46-1.28,0a42.68,42.68,0,0,0-6.49-4.42A32.5,32.5,0,0,0-126-14.88a1.64,1.64,0,0,1-.62-.34v-56a1.64,1.64,0,0,1,.76-.06h60a.59.59,0,0,1,.32,0c.66.54,1.1,1.3,1.78,1.84,1.39,1.12,2.76,2.25,4.2,3.3a.91.91,0,0,0,1.22,0c1.58-1.11,3.08-2.33,4.54-3.59a7.68,7.68,0,0,0,1.34-1.56.8.8,0,0,0,.13-.13h.13a1.92,1.92,0,0,0,.89.07H194.94A2.07,2.07,0,0,1,195.83-71.27Z" transform="translate(126.61 71.43)"/><path class="cls-5" d="M195.83,110.93v32.6H-126.61V111.06a11.89,11.89,0,0,1,7.68-4.19,9.58,9.58,0,0,1,3.07,0c.51.09.54-.12.43-.53a25.64,25.64,0,0,1-.88-6.68,26.16,26.16,0,0,1,.58-5.43,26.87,26.87,0,0,1,5.82-11.85,26.78,26.78,0,0,1,9.25-7,25.52,25.52,0,0,1,9.17-2.43,27.12,27.12,0,0,1,9.68,1,34.15,34.15,0,0,1,11.53,6.15c.71.56.71.56,1.41,0a31.76,31.76,0,0,1,14.35-6.8,26.11,26.11,0,0,1,16.27,2.17,26.92,26.92,0,0,1,11.82,11A25.69,25.69,0,0,1-23,97.11a27,27,0,0,1-.28,7.24c0,.12-.08.25,0,.33C-12,100.53-3,103.4,3.86,113.17c.12,0,.16-.22.24-.36A12.41,12.41,0,0,1,20.24,108a13.24,13.24,0,0,1,3,1.82.8.8,0,0,0,1.21,0,13.7,13.7,0,0,1,8.89-3.09,11.18,11.18,0,0,1,4,.8c.74.3.79.26.7-.55a18.7,18.7,0,0,1,.54-7.41C41,91.22,46.54,86,55.16,84.31c5.18-1,10,.21,14.56,2.73a25.38,25.38,0,0,1,3.63,2.45c.66.52.69.53,1.37,0a24.39,24.39,0,0,1,9.59-4.84,20.16,20.16,0,0,1,18.42,4.26,20.37,20.37,0,0,1,7.4,13.85c0,.25,0,.51,0,.77,0,.47.23.6.67.44a21,21,0,0,1,3.49-.89,19.35,19.35,0,0,1,6.53,0c.19,0,.39,0,.58.09.38.09.5-.08.48-.44s0-1,0-1.48a11.32,11.32,0,0,1,2.61-7.45,12,12,0,0,1,7.82-4.58,13.08,13.08,0,0,1,9.38,2.17,7.82,7.82,0,0,1,1,.72.82.82,0,0,0,1.24,0,13.67,13.67,0,0,1,3-1.83,12.44,12.44,0,0,1,16.23,17.34c-.15.29-.53.67-.31.91s.62-.11.92-.23a38.66,38.66,0,0,1,11.31-2.63,34.47,34.47,0,0,1,17.4,3.3c.91.43,1.8.9,2.68,1.4A2.06,2.06,0,0,1,195.83,110.93Z" transform="translate(126.61 71.43)"/><path class="cls-6" d="M195.83,110.93c-.72-.38-1.44-.75-2.15-1.14a29.6,29.6,0,0,0-3-1.4,34.23,34.23,0,0,0-5.51-1.74c-1.25-.28-2.51-.47-3.78-.63a35.66,35.66,0,0,0-4.62-.24c-1,0-2,.16-3,.23a31.19,31.19,0,0,0-5.16.93,32.75,32.75,0,0,0-5.35,1.82c-.11,0-.24.08-.36.13a.3.3,0,0,1-.39-.11c-.13-.16,0-.26,0-.4a15.5,15.5,0,0,0,1.72-4.14,11.75,11.75,0,0,0,.3-3.82,12.38,12.38,0,0,0-2.67-6.57,12.07,12.07,0,0,0-7.2-4.38,11.8,11.8,0,0,0-5.66.24,15,15,0,0,0-5.16,2.67c-.1.08-.22.13-.32.22-.25.23-.43.14-.66-.06a13.73,13.73,0,0,0-6.42-3.08,11.82,11.82,0,0,0-7.22.85,13.31,13.31,0,0,0-3.12,2,12.06,12.06,0,0,0-3.93,6.75,16.84,16.84,0,0,0-.12,4.32c-.43.17-.85-.08-1.29-.12a11.25,11.25,0,0,0-1.84-.19c-.46,0-.88-.16-1.34-.14a22.4,22.4,0,0,0-6.49,1.08l-1,.32a1.49,1.49,0,0,1-.23-.76,20.15,20.15,0,0,0-4.2-11.31c-.47-.62-1-1.15-1.55-1.72a18.1,18.1,0,0,0-3.79-3.14,20.48,20.48,0,0,0-7.3-2.9,19,19,0,0,0-3.43-.36,21.69,21.69,0,0,0-7.85,1.42,24.85,24.85,0,0,0-6.88,4c-.13.11-.28.19-.42.3-.53.43-.54.46-1.07,0a25.1,25.1,0,0,0-5.75-3.62,21.52,21.52,0,0,0-5.49-1.73,20.23,20.23,0,0,0-4-.36,21.61,21.61,0,0,0-7,1.41A20.39,20.39,0,0,0,46.71,88a21.37,21.37,0,0,0-3.77,3.47,20.69,20.69,0,0,0-4.67,10,23.56,23.56,0,0,0-.23,4.67c0,.61.12,1.23.19,1.83-.19.17-.33,0-.48,0a11.71,11.71,0,0,0-5-1,13.22,13.22,0,0,0-4.68,1,14.26,14.26,0,0,0-3.83,2.32.46.46,0,0,1-.71,0,14.93,14.93,0,0,0-3.14-2,14.22,14.22,0,0,0-4.09-1.23,11.78,11.78,0,0,0-7.1,1.26,12,12,0,0,0-5.12,5,.48.48,0,0,1-.27.28,21,21,0,0,0-12-9.65,20.8,20.8,0,0,0-15.27,1.15c-.18-.17-.1-.31-.07-.46.16-.77.24-1.56.35-2.34a25.65,25.65,0,0,0,.09-4.11,23.87,23.87,0,0,0-.55-4.11,26.4,26.4,0,0,0-2.75-7.25,25.89,25.89,0,0,0-3-4.26,26.09,26.09,0,0,0-2.74-2.82,25,25,0,0,0-5.27-3.64,26.85,26.85,0,0,0-6.54-2.44c-1-.22-2-.36-3-.49a29.43,29.43,0,0,0-4.5-.09,23,23,0,0,0-4.87.76,31.61,31.61,0,0,0-8.54,3.64,35.46,35.46,0,0,0-4.48,3.21c-.2.16-.3.15-.48,0a45,45,0,0,0-4.06-2.93,31.49,31.49,0,0,0-6.1-3,28.34,28.34,0,0,0-4.26-1.2,21.33,21.33,0,0,0-4.51-.48h-1a22.35,22.35,0,0,0-6.46.84,28.19,28.19,0,0,0-4.35,1.56,26.94,26.94,0,0,0-6.16,3.92A27.57,27.57,0,0,0-112.29,86a27,27,0,0,0-2.41,5.17,23.09,23.09,0,0,0-1.08,4.41c-.15,1-.22,2.08-.28,3.13a25.1,25.1,0,0,0,.37,5.47,27.74,27.74,0,0,0,.66,3,14.47,14.47,0,0,0-2.67-.21,12.47,12.47,0,0,0-5.74,1.66,11.33,11.33,0,0,0-2.6,2.08c-.16.17-.29.38-.57.38V31.43c.34-.25.62,0,.9.12a29.72,29.72,0,0,1,5.76,3.63c.72.57.72.57,1.41,0a28.36,28.36,0,0,1,10-5.23,22.85,22.85,0,0,1,7.9-.83,22.67,22.67,0,0,1,12.79,5.08,22.71,22.71,0,0,1,8.38,14.83,22.2,22.2,0,0,1-.1,6.66c-.1.65-.09.67.51.42a18.19,18.19,0,0,1,7.73-1.43,17.38,17.38,0,0,1,11.41,4.76,17.47,17.47,0,0,1,3.36,4.14c.49-.59.81-1.22,1.27-1.74a10.56,10.56,0,0,1,6.74-3.69,11.43,11.43,0,0,1,8.35,2.31c.79.56.78.58,1.53,0a12.25,12.25,0,0,1,6.48-2.44,10.25,10.25,0,0,1,4.24.68c.58.21.64.18.57-.43a17,17,0,0,1,1.48-9.16A17.41,17.41,0,0,1-20.08,42a17.84,17.84,0,0,1,7.86-3.21A18.12,18.12,0,0,1-2.16,40.27a21.6,21.6,0,0,1,5,3,.83.83,0,0,0,1.23,0,20.68,20.68,0,0,1,8.49-4.18A17.33,17.33,0,0,1,29,43.75a17.47,17.47,0,0,1,5.3,10.76,3.94,3.94,0,0,1,0,.77c0,.42.17.53.56.39A17.17,17.17,0,0,1,43.66,55c.65.11.68.09.63-.56A10.67,10.67,0,0,1,58.55,43.62a11.92,11.92,0,0,1,3.5,1.91.86.86,0,0,0,1.23,0,12.48,12.48,0,0,1,5.55-2.42,10.68,10.68,0,0,1,10.73,16c-.09.16-.3.35-.16.51s.39,0,.58-.07a30.76,30.76,0,0,1,14-2.32,29.14,29.14,0,0,1,12.14,3.58,30.85,30.85,0,0,1,4.35,2.87c.5.39.55.37.82-.22a13.94,13.94,0,0,1,12-8.65,14.25,14.25,0,0,1,9.18,2.42,15.37,15.37,0,0,1,1.69,1.17.71.71,0,0,0,1.07,0,16.39,16.39,0,0,1,6.66-3.25,13.72,13.72,0,0,1,12,2.87,7.82,7.82,0,0,1,1.25,1.12c.3.36.48.33.65-.11a16.42,16.42,0,0,1,2-3.61A17.44,17.44,0,0,1,170,47.88,18.67,18.67,0,0,1,183,51a20.69,20.69,0,0,1,2.14,1.53,11.28,11.28,0,0,0,.34-2.39,20.73,20.73,0,0,1,9.8-14.82c.17-.11.35-.27.59-.18Z" transform="translate(126.61 71.43)"/><path class="cls-7" d="M195.83,35.17a26.29,26.29,0,0,0-3.33,2.4,19.13,19.13,0,0,0-2.5,2.59,21.11,21.11,0,0,0-2.6,4.13,20.42,20.42,0,0,0-1.78,5.93,21.92,21.92,0,0,1-.32,2.71,5.73,5.73,0,0,1-1-.78,22.67,22.67,0,0,0-7.76-3.77,17.76,17.76,0,0,0-5.81-.43,17,17,0,0,0-6.14,1.75,17.53,17.53,0,0,0-5.42,4.17,18.2,18.2,0,0,0-3.28,5.42l-.08.24c-.14.26-.22.26-.42,0a13.72,13.72,0,0,0-5.5-3.78,13.56,13.56,0,0,0-5.67-.89,14.23,14.23,0,0,0-4.36,1,16.19,16.19,0,0,0-4.69,2.76c-.43.36-.44.34-.89,0a17.59,17.59,0,0,0-6.36-3.27,13.14,13.14,0,0,0-4.58-.45,14.13,14.13,0,0,0-11.89,8.76c-.07.19-.17.38-.27.61A15.37,15.37,0,0,1,109.39,63c-1-.69-2-1.33-3-1.94a29.39,29.39,0,0,0-5.11-2.25,34.2,34.2,0,0,0-4.35-1.1,31.48,31.48,0,0,0-7-.35,24.12,24.12,0,0,0-5.12.78,32.24,32.24,0,0,0-5.06,1.67,1.51,1.51,0,0,1-.3.1c-.33,0-.44-.1-.32-.4a2.22,2.22,0,0,1,.2-.41,10.63,10.63,0,0,0,1.5-6.46,10,10,0,0,0-2-5.26A10.4,10.4,0,0,0,66.18,44,12.81,12.81,0,0,0,63,46a.51.51,0,0,1-.74,0,12.43,12.43,0,0,0-5.2-2.55,10.45,10.45,0,0,0-10,3.32,10.26,10.26,0,0,0-2.48,5.2,10.48,10.48,0,0,0,0,3c.05.33-.11.38-.35.35s-.76-.14-1.14-.18A18.09,18.09,0,0,0,39,55a21.38,21.38,0,0,0-4.43,1c-.36.12-.44.07-.43-.3a14.63,14.63,0,0,0-.81-4.59,17,17,0,0,0-2.57-5A17.74,17.74,0,0,0,24,40.45,16.53,16.53,0,0,0,19.23,39a16,16,0,0,0-2.67-.23,19.54,19.54,0,0,0-7.18,1.53,25.28,25.28,0,0,0-4.93,2.87c-.26.19-.51.39-.76.6a.38.38,0,0,1-.56,0,22.2,22.2,0,0,0-4.28-2.83,19.06,19.06,0,0,0-5.08-1.78,15.83,15.83,0,0,0-3.69-.37,17.75,17.75,0,0,0-7.19,1.69,20.1,20.1,0,0,0-4.33,2.87,17.75,17.75,0,0,0-3.92,5,16.55,16.55,0,0,0-1.82,5.66,12.32,12.32,0,0,0,0,4,4.94,4.94,0,0,0,.13,1.12A1.43,1.43,0,0,1-27.8,59a9.64,9.64,0,0,0-4.13-.78,11.24,11.24,0,0,0-5.31,1.55,14.35,14.35,0,0,0-1.95,1.34c-.23.18-.36.14-.55,0a12.27,12.27,0,0,0-4.37-2.38,9.58,9.58,0,0,0-3.35-.48,10.28,10.28,0,0,0-6.46,2.51A11.37,11.37,0,0,0-56.55,64a18,18,0,0,0-10.24-8.29,17.85,17.85,0,0,0-13.09,1,2.79,2.79,0,0,1,.09-.94,14.67,14.67,0,0,0,.24-2.48c0-.39.15-.75.13-1.15a26.47,26.47,0,0,0-1-6.38,23.11,23.11,0,0,0-3-6.37,21.58,21.58,0,0,0-3.26-3.87,24.24,24.24,0,0,0-4.79-3.44,23.48,23.48,0,0,0-7.31-2.51,8.3,8.3,0,0,0-1.72-.18c-.6,0-1.19-.15-1.79-.13a26.65,26.65,0,0,0-6.64,1,27.58,27.58,0,0,0-7.87,3.86,15.42,15.42,0,0,0-2.09,1.6.41.41,0,0,1-.66,0,31.48,31.48,0,0,0-4.59-3.17c-.69-.39-1.41-.73-2.12-1.08a1.17,1.17,0,0,0-.38-.07V-15.22a1.64,1.64,0,0,1,.86.24A40.39,40.39,0,0,1-116-9l.14.13c.4.31.41.32.79,0a41.22,41.22,0,0,1,9.17-5.81,34.43,34.43,0,0,1,9.09-2.73,30,30,0,0,1,6.56-.25A30.61,30.61,0,0,1-76.54-13.3a30.72,30.72,0,0,1,7.13,5.87A30.83,30.83,0,0,1-62,7.14a30.39,30.39,0,0,1,.59,7.73A26.81,26.81,0,0,1-62,19.33c0,.08,0,.17,0,.36,5.85-2.65,11.8-3.35,17.94-1.42A24.12,24.12,0,0,1-30.16,29.56a1,1,0,0,0,.36-.46A14.08,14.08,0,0,1-23,23a13.42,13.42,0,0,1,6.4-1.16,16.41,16.41,0,0,1,9.17,3.7l.2.17c.4.31.42.31.82,0A17.74,17.74,0,0,1-.63,22.47a13.82,13.82,0,0,1,5.26-.67,13.5,13.5,0,0,1,5,1.29.31.31,0,0,0,.31,0c0-.24,0-.51-.06-.77A23.06,23.06,0,0,1,11.84,9.43a23.57,23.57,0,0,1,5.82-7.94A23.74,23.74,0,0,1,35.75-4.62,24.44,24.44,0,0,1,43.87-2.5,31,31,0,0,1,51,1.93l.21.15c.39.29.4.3.76,0A32.21,32.21,0,0,1,55.19-.28,27.18,27.18,0,0,1,65.34-4.35a23.9,23.9,0,0,1,6.86-.19A23.08,23.08,0,0,1,83.1-.41,24,24,0,0,1,93,14.71a19.07,19.07,0,0,1,.42,3.7c0,.1,0,.21,0,.31.22.1.39,0,.56-.09a22,22,0,0,1,5.81-1.34,24.82,24.82,0,0,1,4.95.05c.81.1,1.61.22,2.41.39.35.08.39,0,.35-.36a14,14,0,0,1,4.54-12.48,13.63,13.63,0,0,1,7.63-3.58,14.27,14.27,0,0,1,7.68,1.09,18.35,18.35,0,0,1,4.44,2.71.45.45,0,0,0,.69,0,17,17,0,0,1,6-3.27,13.82,13.82,0,0,1,13.09,2.53,13.82,13.82,0,0,1,5.05,8.22,14.29,14.29,0,0,1-.9,8.51,18.22,18.22,0,0,1-1.16,2.29c-.09.15-.29.29-.1.51s.38.2.63.1c1.3-.56,2.63-1.06,4-1.49a44.93,44.93,0,0,1,7.26-1.66,39.84,39.84,0,0,1,8.09-.33,38.61,38.61,0,0,1,9.28,1.69,46.17,46.17,0,0,1,12,5.62Z" transform="translate(126.61 71.43)"/><path class="cls-8" d="M195.83-71.27H-51.51c-.23,0-.51.14-.71-.12H195.25C195.44-71.39,195.68-71.54,195.83-71.27Z" transform="translate(126.61 71.43)"/><path class="cls-8" d="M-65.63-71.27h-61s-.06-.13.07-.13.34,0,.51,0h60.4s0,.06,0,.09S-65.62-71.27-65.63-71.27Z" transform="translate(126.61 71.43)"/><path class="cls-9" d="M-65.63-71.27v-.13h13.28l0,.16a1.89,1.89,0,0,1-1,.19H-64.74a3.23,3.23,0,0,1-.76-.1Z" transform="translate(126.61 71.43)"/><path class="cls-10" d="M-48.64-1.75A11.84,11.84,0,0,1-39.06-13.5a12.2,12.2,0,0,1,8.66,1.61,15.51,15.51,0,0,1,2.06,1.44.39.39,0,0,0,.59,0,15.54,15.54,0,0,1,3-1.92A12.22,12.22,0,0,1-18-13.65a11.38,11.38,0,0,1,6.55,2.87,11.66,11.66,0,0,1,3.92,7,11.71,11.71,0,0,1-.67,6.31,15.94,15.94,0,0,1-4.62,6.33c-2.11,1.79-4.23,3.57-6.4,5.3-2.7,2.15-5.46,4.23-8.33,6.16-.53.36-.49.28-.89,0-2.7-1.83-5.31-3.78-7.87-5.8-2.41-1.91-4.78-3.85-7.1-5.87a15,15,0,0,1-4.82-7.45A9.88,9.88,0,0,1-48.64-1.75Z" transform="translate(126.61 71.43)"/><path class="cls-10" d="M-79.26-42.65a10.88,10.88,0,0,1-2.58,6.73,22,22,0,0,1-3.36,3.18c-2.56,2.16-5.16,4.26-7.87,6.23-.89.64-1.79,1.27-2.68,1.89-.49.34-.5.33-1,0-2.43-1.65-4.78-3.42-7.07-5.26-1.78-1.42-3.54-2.86-5.24-4.37a11.56,11.56,0,0,1-4.07-7.25,9.37,9.37,0,0,1,2.33-7.7,9.61,9.61,0,0,1,5.22-3.11,9.82,9.82,0,0,1,6.34.72A10.77,10.77,0,0,1-96.69-50c.48.39.51.29.91,0a11.79,11.79,0,0,1,4.4-2.21,9.79,9.79,0,0,1,12,7.71A14.55,14.55,0,0,1-79.26-42.65Z" transform="translate(126.61 71.43)"/><path class="cls-10" d="M19.11-40a10.92,10.92,0,0,1,6.82,2.44,2.43,2.43,0,0,1,.25.2.35.35,0,0,0,.55,0,11.9,11.9,0,0,1,2.91-1.78,9.51,9.51,0,0,1,8.51.22,9.48,9.48,0,0,1,5.18,7.18,10.21,10.21,0,0,1-1.69,7.28,16,16,0,0,1-3.41,3.66c-2.53,2.12-5.08,4.22-7.74,6.19-1.19.88-2.41,1.72-3.61,2.59A.62.62,0,0,1,26-12c-3.37-2.3-6.58-4.8-9.71-7.42-1-.84-2-1.65-3-2.54A11.49,11.49,0,0,1,9.56-28.9a9.71,9.71,0,0,1,6.57-10.59,9.69,9.69,0,0,1,1.75-.42A11.54,11.54,0,0,1,19.11-40Z" transform="translate(126.61 71.43)"/><path class="cls-10" d="M55.43-19.57a7.51,7.51,0,0,1,6.15-7.74,7.91,7.91,0,0,1,6.21,1.71c.44.34.44.35.9,0a8.17,8.17,0,0,1,4.86-1.81,6.85,6.85,0,0,1,3.81,1,7.18,7.18,0,0,1,3.57,5.17,7.79,7.79,0,0,1-1.56,6,15.45,15.45,0,0,1-2.79,2.75c-2.22,1.86-4.48,3.67-6.84,5.35-.37.26-.76.49-1.11.77a.59.59,0,0,1-.81,0c-1.09-.75-2.18-1.52-3.23-2.33-2.12-1.61-4.21-3.27-6.18-5A8.41,8.41,0,0,1,55.43-19.57Z" transform="translate(126.61 71.43)"/><path class="cls-10" d="M.71-62.95a10.61,10.61,0,0,1,2.78-1.61,7.07,7.07,0,0,1,9.34,5.1,7.39,7.39,0,0,1-1.4,6.08,15.08,15.08,0,0,1-2.78,2.75c-1.94,1.63-3.92,3.21-6,4.69-.54.39-1.1.76-1.63,1.15a.49.49,0,0,1-.68,0c-1.88-1.28-3.69-2.66-5.47-4.08-1.23-1-2.47-2-3.63-3.08a8.52,8.52,0,0,1-2.68-4.52,7,7,0,0,1,5.47-8.37A7.46,7.46,0,0,1,0-63.49Z" transform="translate(126.61 71.43)"/><path class="cls-10" d="M187.88-29.14a7,7,0,0,1-1.68,4.42A14.36,14.36,0,0,1,184-22.66c-2,1.67-4,3.29-6.16,4.76a1.59,1.59,0,0,0-.27.18c-.27.26-.52.19-.8,0-1.17-.81-2.31-1.65-3.43-2.52-1.37-1.06-2.71-2.17-4-3.3a7.62,7.62,0,0,1-2.82-4.91A5.82,5.82,0,0,1,167.83-33a6,6,0,0,1,5-2.28,6.56,6.56,0,0,1,4,1.5.55.55,0,0,0,.82,0,6.69,6.69,0,0,1,4.23-1.5,6.17,6.17,0,0,1,6,5.06A9.81,9.81,0,0,1,187.88-29.14Z" transform="translate(126.61 71.43)"/><path class="cls-10" d="M-66-25.44a5,5,0,0,1,5.11-5.09,5.47,5.47,0,0,1,2.94,1c.62.41.61.42,1.25,0a5.38,5.38,0,0,1,3.14-1,5,5,0,0,1,4.87,4.3,5.52,5.52,0,0,1-1.2,4.14,13.6,13.6,0,0,1-2.39,2.22q-2.14,1.8-4.44,3.41c-.59.42-.59.42-1.17,0A64.23,64.23,0,0,1-64-21.26a6,6,0,0,1-1.92-3.2A5.31,5.31,0,0,1-66-25.44Z" transform="translate(126.61 71.43)"/><path class="cls-10" d="M98.66-9.43a5.44,5.44,0,0,1-2,4.34A57.83,57.83,0,0,1,90.94-.6c-.53.36-.46.36-1,0a65.45,65.45,0,0,1-5.27-4.12,7.19,7.19,0,0,1-1.39-1.42,4.76,4.76,0,0,1-.49-5.32,4.76,4.76,0,0,1,6.77-1.76c.3.19.55.59.91.54s.57-.35.87-.52a4.67,4.67,0,0,1,5.53.28A4.27,4.27,0,0,1,98.66-9.43Z" transform="translate(126.61 71.43)"/><path class="cls-10" d="M-65.5-71.14c.1-.15.26-.13.41-.13H-52.5l.13,0a5.21,5.21,0,0,1-1.41,1.72,54.36,54.36,0,0,1-4.65,3.64c-.52.35-.53.36-1.06,0a60.18,60.18,0,0,1-5-4A6.42,6.42,0,0,1-65.5-71.14Z" transform="translate(126.61 71.43)"/><path class="cls-10" d="M-8.41-18.29A1.65,1.65,0,0,1-6-19.8a1.08,1.08,0,0,0,1.1,0,1.63,1.63,0,0,1,2.06.52,1.73,1.73,0,0,1-.05,2.14,13.13,13.13,0,0,1-2.36,2,.35.35,0,0,1-.47,0A17,17,0,0,1-7.88-17,1.71,1.71,0,0,1-8.41-18.29Z" transform="translate(126.61 71.43)"/><path class="cls-10" d="M80.55-42.38a1.44,1.44,0,0,1,2-1.4,1.14,1.14,0,0,0,1.06,0,1.45,1.45,0,0,1,1.78.46,1.48,1.48,0,0,1-.09,1.9,10.81,10.81,0,0,1-2,1.67.31.31,0,0,1-.4,0A13.89,13.89,0,0,1,81-41.29,1.5,1.5,0,0,1,80.55-42.38Z" transform="translate(126.61 71.43)"/><path class="cls-10" d="M184.75-10.83c.4-.1.72.35,1.1.32s.67-.35,1.08-.33a1.44,1.44,0,0,1,1.35.91,1.6,1.6,0,0,1-.4,1.78c-.57.51-1.21,1-1.81,1.44a.36.36,0,0,1-.51,0c-.57-.46-1.17-.88-1.71-1.36a1.59,1.59,0,0,1,0-2.43A1.26,1.26,0,0,1,184.75-10.83Z" transform="translate(126.61 71.43)"/><path class="cls-10" d="M-108.43-61c.36-.08.68.27,1.05.27s.68-.29,1.09-.28a1.46,1.46,0,0,1,1.35,2.08,1.61,1.61,0,0,1-.39.58,21.61,21.61,0,0,1-1.76,1.4.46.46,0,0,1-.63,0c-.55-.45-1.13-.86-1.65-1.33a1.51,1.51,0,0,1-.47-1.8A1.37,1.37,0,0,1-108.43-61Z" transform="translate(126.61 71.43)"/><path class="cls-10" d="M103.67-12.27a1.13,1.13,0,0,1,.71.14c.28.22.51.15.81,0a1.45,1.45,0,0,1,2.13,1A1.39,1.39,0,0,1,107-9.84a10.79,10.79,0,0,1-2,1.69.31.31,0,0,1-.41,0,11.76,11.76,0,0,1-1.94-1.58,1.53,1.53,0,0,1,.22-2.31A1.27,1.27,0,0,1,103.67-12.27Z" transform="translate(126.61 71.43)"/><path class="cls-10" d="M-20.41-48.51a1.44,1.44,0,0,1,2-1.39,1,1,0,0,0,1,0,1.44,1.44,0,0,1,1.75.37,1.56,1.56,0,0,1,.07,1.81,9.1,9.1,0,0,1-2.13,1.83.33.33,0,0,1-.42,0A12.84,12.84,0,0,1-20-47.51,1.35,1.35,0,0,1-20.41-48.51Z" transform="translate(126.61 71.43)"/><path class="cls-11" d="M47.65-20.77c0,.33-.3.45-.5.63s-.32.06-.46-.05-.45-.31-.39-.61c.1-.54.55-.25.84-.32S47.58-21,47.65-20.77Z" transform="translate(126.61 71.43)"/><path class="cls-12" d="M90.28-51.54c.46,0,.69.13.68.37s-.5.7-.68.69a1,1,0,0,1-.67-.69C89.61-51.45,89.77-51.54,90.28-51.54Z" transform="translate(126.61 71.43)"/><path class="cls-13" d="M-43.08-48.82a1.08,1.08,0,0,1-.69.69c-.22,0-.69-.49-.66-.71s.21-.38.49-.38C-43.33-49.21-43.09-49.11-43.08-48.82Z" transform="translate(126.61 71.43)"/><path class="cls-12" d="M131-13.52c.51,0,.67.08.67.36a1,1,0,0,1-.66.7c-.22,0-.65-.47-.64-.71S130.47-13.52,131-13.52Z" transform="translate(126.61 71.43)"/><path class="cls-11" d="M-12.94-21c0,.28-.28.43-.5.6s-.32,0-.45-.08a2.43,2.43,0,0,1-.29-.26.46.46,0,0,1-.1-.29c0-.36.29-.35.57-.34C-13.15-21.4-13-21.32-12.94-21Z" transform="translate(126.61 71.43)"/><path class="cls-14" d="M168.09-49.48c.53,0,.68.08.68.36a.88.88,0,0,1-.62.66.87.87,0,0,1-.68-.67C167.48-49.4,167.63-49.48,168.09-49.48Z" transform="translate(126.61 71.43)"/><path class="cls-11" d="M-124-30.16c.31,0,.63-.09.7.3,0,.21-.42.7-.65.72s-.7-.44-.69-.67S-124.44-30.16-124-30.16Z" transform="translate(126.61 71.43)"/><path class="cls-12" d="M-86.12-26.56a.91.91,0,0,1-.66.63.86.86,0,0,1-.65-.7c0-.3.19-.36.84-.32C-86.25-26.93-86.11-26.81-86.12-26.56Z" transform="translate(126.61 71.43)"/></g><g id="Layer_2-2" data-name="Layer 2-2"><g id="Layer_16" data-name="Layer 16"><path class="cls-15" d="M96.32,34.74l-.56-.29L95,34l-.78-.44-.1-.07-.49-.28-.51-.29-.89-.52L85,28.25l-1.7-1-.73-.42-.45-.26-.47-.31h0l-.42-.24-.41-.24-5.33-3.08L56,11.47l-.53-.31-.47.27L37.83,21.31l-5,2.91L31.54,25l-.54.31h-.1l-.25.15-.42.26-.29.16-.27.17-.18.09L27.91,27h0l-1.78,1h0l-.57.34-.77.43h0l-3.28,2h0l-2.37,1.37-1,.59-3,1.72-4.24,2.44-1.53.88V90.85h.08l1.71,1,.74.42.16.09,4.32,2.56.68.4.54.3,1.88,1.09,1.59.92.46.26,1.29.77,3.38,2,5.39,3.11.68.39h.08l.15.08.1.08.18.09h0l1.91,1.11.88.5,1.28.78.9.51.18.09.31.2.19.1.47.28,3.57,2h.09l.44.25.63.36.71.42h0l.54.3,1.51.87,3.32,1.91,4.48,2.56,1,.6.23.13h0l.2-.11.14-.09h0l.32-.17,1.8-1H58l.69-.4.5-.29.24-.13,3.85-2.23,2.5-1.47.73-.42.67-.39.67-.38.44-.27,2.32-1.28.4-.22h0l.23-.14.22-.13.62-.35.81-.47,1.28-.73.46-.26h0l.46-.27h0l.22-.2.54-.3.37-.22.34-.2.55-.32.22-.13.32-.18.42-.23h0l.13-.08.24-.13L82.26,102l.38-.23,1.1-.64,3.06-1.77,1.56-.9,3.06-1.75,1.78-1.1,3.64-2.06h.06L99.6,92l.9-.52,1-.59V37.72Zm3.29,55.05-.51.29-.32.19-.59.34L90.64,95l-1.08.63-1.89,1.08-1.69,1-3.12,1.81-1.28.73-.72.41-3,1.69h-.08l-.15.09-.18.11-.58.32-.89.51-.22.13h0l-.81.46h-.09l-3.91,2.41h-.08l-.79.45H70l-.91.53-2.15,1.28-1.54.88-1.62,1-1.1.63-3,1.72-1.28.71h0l-.76.43-.28.16-1.95,1.15-3.44-2-1.28-.72-.61-.34-1.82-1-.72-.41-.69-.41-5.26-3-.77-.45h0l-1.79-1L37,104.69l-.9-.53-.59-.38-.24-.14-.42-.26-.22-.11-1.76-1-.3-.18-.19-.12-1.5-.87-3.42-2-3.92-2.26-.29-.17-1.46-.85-.44-.25-3-1.72L13.45,91l-.91-.51-.39-.23-.23-.13-.66-.38v-51l3.84-2.26,3-1.72.94-.55h0l3.2-1.84h0l1.35-.8h0l1.8-1,1.28-.73.42-.24h0l.75-.45.46-.27h0l3-1.72h0l.78-.44.36-.21.19-.11.29-.17.17-.1.27-.16h0l8-4.64L54.76,13.7l.47-.27.53.3,16.83,9.72,7,4h0l.32.18.1.07.44.25.36.21,1.28.7L84,30l7,4,1.41.81.55.32h0l.76.43.2.12.53.3.54.31,4.35,2.56V89.79Z" transform="translate(126.61 71.43)"/></g></g><path class="cls-16" d="M45.4,82.49a15.07,15.07,0,0,0-.28-7.88c-.54-1.83-1.55-3.76-3-4.47s-3,.69-2.4,2.51c-1-2.75-2.72-6.09-4.86-6.08s-2.58,3-2.8,5.43a18.79,18.79,0,0,0-2-4.18c-.86-1.24-2.1-2.2-3.2-2.08S25.12,67,24.88,68.38a15.9,15.9,0,0,0,.1,4.34l-3.52-5.18c-.75-1.1-1.66-2.31-2.67-2.4C17.48,65,16.89,66.83,17,68.5s.5,3.48.17,5c-1.23-2.44-4.06-3-5.34-1.39s-1.06,4.82.17,7.25a11.32,11.32,0,0,0,5.33,5.08,18.54,18.54,0,0,0,6.15,1.36c7.9.74,16,.83,22.36-3.45" transform="translate(126.61 71.43)"/><path class="cls-16" d="M92.38,86.55a20.9,20.9,0,0,0,7-10.57,2.47,2.47,0,0,0-.09-2.17,1.44,1.44,0,0,0-1.21-.4,5.44,5.44,0,0,0-3.65,1.66c-.36-2.37,1.8-5.1.63-7-.79-1.32-2.68-1.1-3.76,0a10,10,0,0,0-2,4.35c-.55-1.57.23-3.8-.89-4.87a1.94,1.94,0,0,0-2.72.47,7.93,7.93,0,0,0-1.4,3.09,8.17,8.17,0,0,0-.3-2.85,2.07,2.07,0,0,0-1.87-1.56c-1.13.07-1.88,1.42-2.32,2.64a22.66,22.66,0,0,0-.92,3.37,11.42,11.42,0,0,0,.26-3.76,3.52,3.52,0,0,0-1.83-2.83,2.06,2.06,0,0,0-2.67,1.45,2.12,2.12,0,0,0-1.23-2.67A2.73,2.73,0,0,0,70.66,66a8.16,8.16,0,0,0-1.39,3.13,45.77,45.77,0,0,0-1,6.06,2.73,2.73,0,0,0,.09,1.4,2,2,0,0,0,1.16.91q11.25,4.76,22.83,8.44c.4.13,1,.06,1-.43" transform="translate(126.61 71.43)"/><path class="cls-17" d="M88.2,64s-.41,3.19,1.85,3.34c0,0,3.39.88,2.91-3.56Z" transform="translate(126.61 71.43)"/><ellipse class="cls-17" cx="90.58" cy="63.88" rx="2.38" ry="0.74" transform="matrix(1, -0.05, 0.05, 1, 123.76, 75.68)"/><path class="cls-18" d="M93.06,63.73A3.58,3.58,0,0,0,91.3,63a5.6,5.6,0,0,0-2.08.08,2.61,2.61,0,0,0-.77.32c-.18.12-.39.29-.39.52s.31.45.53.55a4.11,4.11,0,0,0,1,.3,3.79,3.79,0,0,0,2-.09,1.21,1.21,0,0,0,.62-.38.38.38,0,0,0-.05-.51,1.33,1.33,0,0,0-.56-.27,2.85,2.85,0,0,0-.58-.12,5,5,0,0,0-1.09,0,.81.81,0,0,0-.62.32.34.34,0,0,0,.13.45,1.14,1.14,0,0,0,.51.13,2.72,2.72,0,0,0,.57,0,1.22,1.22,0,0,0,.46-.09.29.29,0,0,0,.18-.33c-.06-.18-.34-.1-.28.07l-.08,0h0l-.16,0a2.57,2.57,0,0,1-.48,0,1.51,1.51,0,0,1-.42,0L89.55,64h0s0,0,0,0,.35-.17.52-.19a4.72,4.72,0,0,1,.92,0,1.88,1.88,0,0,1,.9.26c.09.07.13.12.06.21a1.26,1.26,0,0,1-.51.27,3.59,3.59,0,0,1-1.63.08,3.73,3.73,0,0,1-.86-.21,1.76,1.76,0,0,1-.37-.17c-.07,0-.2-.1-.21-.19s.2-.27.29-.32a2.08,2.08,0,0,1,.64-.25,5.17,5.17,0,0,1,1.92-.1,3.26,3.26,0,0,1,1.65.64c.15.12.35-.09.21-.2Z" transform="translate(126.61 71.43)"/><polygon class="cls-16" points="216.65 138.72 216.82 142.45 217.48 142.42 217.61 138.78 216.65 138.72"/><path class="cls-17" d="M14.52,63.42s3,2.48,1.15,4.51c0,0-2.27,3.62-5.56-.72Z" transform="translate(126.61 71.43)"/><ellipse class="cls-17" cx="12.31" cy="65.31" rx="2.91" ry="0.91" transform="translate(87 95.25) rotate(-40.7)"/><path class="cls-18" d="M10.3,67.3A5.18,5.18,0,0,1,12.65,64a2.91,2.91,0,0,1,1.4-.59c.13,0,.3,0,.35.12a.45.45,0,0,1,0,.28,3,3,0,0,1-.19.5A5.65,5.65,0,0,1,12.87,66a3.55,3.55,0,0,1-.77.51,1.43,1.43,0,0,1-.74.21c-.42,0,.09-.8.19-1a3.67,3.67,0,0,1,.44-.52c.14-.14.29-.26.44-.39s.25-.21.39-.3a1.18,1.18,0,0,1,.37-.14.25.25,0,0,1,.12,0s0,0,0,0a.11.11,0,0,1,0,.06.31.31,0,0,1,0,.08,1.64,1.64,0,0,1-.14.22,3.43,3.43,0,0,1-.85.76l-.06,0-.07,0s0,0,0,0c-.06-.17-.34-.09-.27.08.21.53.95-.17,1.15-.36s.79-.73.53-1.1-.59-.14-.83,0a2.75,2.75,0,0,0-.44.32c-.17.14-.34.28-.5.44a3.24,3.24,0,0,0-.52.64,1.89,1.89,0,0,0-.34.75.44.44,0,0,0,.31.56,1.5,1.5,0,0,0,.9-.18,4.74,4.74,0,0,0,1.74-1.5,5.34,5.34,0,0,0,.65-1.08c.1-.25.27-.62.11-.89s-.92-.22-1.26-.08a5.76,5.76,0,0,0-1.94,1.37,5,5,0,0,0-1.29,2,3.39,3.39,0,0,0-.13.55.16.16,0,0,0,.1.18c.07,0,.17,0,.18-.1Z" transform="translate(126.61 71.43)"/><polygon class="cls-16" points="142.26 139.31 145.23 142.76 144.62 143.29 141.46 140.17 142.26 139.31"/><path class="cls-17" d="M34.34,63.09s-.06,3.39-2.44,3.2c0,0-3.68.41-2.5-4.16Z" transform="translate(126.61 71.43)"/><ellipse class="cls-17" cx="31.87" cy="62.61" rx="0.78" ry="2.52" transform="translate(90.96 153.45) rotate(-79.05)"/><path class="cls-18" d="M29.47,62.32a4.41,4.41,0,0,1,3.4-.19,2.35,2.35,0,0,1,1.27.72c.12.18,0,.27-.15.34a3.11,3.11,0,0,1-.9.21,4.61,4.61,0,0,1-1.88-.18,2.35,2.35,0,0,1-.57-.29,1,1,0,0,1-.22-.19.22.22,0,0,1,0-.14c.06-.11.26-.15.38-.18a3.07,3.07,0,0,1,.53-.06,2.68,2.68,0,0,1,.63,0l.48.1a1.93,1.93,0,0,1,.34.11c.08,0,.21.11.23.2s0,0,0,.06a1,1,0,0,1-.46,0l-.54-.09-.21-.06-.07,0s0,0,0,0-.08-.07-.1,0c.09-.17-.16-.31-.24-.15-.23.43.59.56.85.6s.88.16,1.06-.17-.06-.45-.25-.57a2.89,2.89,0,0,0-.95-.28,3.13,3.13,0,0,0-1.46,0,.61.61,0,0,0-.45.34c-.08.23.11.45.28.58a3.22,3.22,0,0,0,1.79.59,5.34,5.34,0,0,0,1.13,0,3.61,3.61,0,0,0,.55-.12,1.41,1.41,0,0,0,.45-.2c.49-.38-.13-.91-.46-1.11a5.12,5.12,0,0,0-2-.59,4.37,4.37,0,0,0-2.06.22,3.55,3.55,0,0,0-.44.21.14.14,0,0,0,.14.25Z" transform="translate(126.61 71.43)"/><polygon class="cls-16" points="158.54 137.69 157.79 141.56 157.1 141.42 157.52 137.6 158.54 137.69"/><path class="cls-17" d="M100.66,70.71s-.8,2.48-2.5,1.81c0,0-2.79-.53-.91-3.61Z" transform="translate(126.61 71.43)"/><ellipse class="cls-17" cx="98.96" cy="69.81" rx="0.6" ry="1.93" transform="translate(117.59 196.07) rotate(-62.12)"/><path class="cls-18" d="M97.27,69.09a3.43,3.43,0,0,1,2.56.65,1.84,1.84,0,0,1,.69.72c0,.08.06.16,0,.19a.84.84,0,0,1-.27,0,2.43,2.43,0,0,1-.38,0,3.6,3.6,0,0,1-1.31-.46,1.81,1.81,0,0,1-.41-.32c-.09-.08-.25-.23-.24-.36s0,0,0,0a.47.47,0,0,1,.17,0,1.84,1.84,0,0,1,.41.06,3.08,3.08,0,0,1,1,.46.55.55,0,0,1,.18.19.05.05,0,0,1,0,0h0a.78.78,0,0,1-.33,0A2.69,2.69,0,0,1,99,70l-.15-.1,0,0h0l0,0s0,0,0,0c.12-.14-.08-.34-.2-.2-.28.3.31.59.52.69s.66.32.86.06,0-.38-.11-.52a2.23,2.23,0,0,0-.67-.42A2.18,2.18,0,0,0,98,69.17a.4.4,0,0,0-.39.24.57.57,0,0,0,.17.52,2.77,2.77,0,0,0,1.23.81,4.51,4.51,0,0,0,.88.21,1.26,1.26,0,0,0,.77-.06c.35-.22.08-.66-.1-.88a3.82,3.82,0,0,0-1.51-1,3,3,0,0,0-1.86-.2.14.14,0,0,0,.07.27Z" transform="translate(126.61 71.43)"/><polygon class="cls-16" points="224.79 143.93 223.38 146.6 222.91 146.35 224.07 143.64 224.79 143.93"/><path class="cls-19" d="M15.32,86c0-4.24,11.48-7.68,25.64-7.68,8,0,15.21,1.11,19.91,2.84a62.41,62.41,0,0,1,14.36-1.5c11.69,0,21.16,2.54,21.16,5.67,0,1.84-3.26,3.47-8.32,4.51,1.69.81,2.65,1.75,2.65,2.74,0,2.92-8.25,5.33-18.84,5.64-3.78,2-10.32,3.37-17.77,3.37C42.42,101.58,33,98.27,33,94.2a2.61,2.61,0,0,1,.16-.91C22.79,92.3,15.32,89.4,15.32,86Z" transform="translate(126.61 71.43)"/><ellipse class="cls-19" cx="154.55" cy="167.22" rx="4.2" ry="2"/><polygon class="cls-16" points="176.25 169.95 175.73 165.95 176.81 169.83 176.25 169.95"/><polygon class="cls-16" points="177.39 169.29 177.82 166.13 177.96 169.32 177.39 169.29"/><polygon class="cls-16" points="164.91 154.79 164.38 150.79 165.47 154.67 164.91 154.79"/><polygon class="cls-16" points="166.04 154.13 166.47 150.97 166.61 154.16 166.04 154.13"/><polygon class="cls-16" points="155.28 152.79 154.75 148.79 155.84 152.67 155.28 152.79"/><polygon class="cls-16" points="156.41 152.13 156.84 148.97 156.98 152.16 156.41 152.13"/><polygon class="cls-16" points="149.84 158.41 149.31 154.41 150.4 158.3 149.84 158.41"/><polygon class="cls-16" points="150.98 157.76 151.41 154.59 151.55 157.78 150.98 157.76"/><polygon class="cls-16" points="159.18 160.79 158.66 156.8 159.74 160.68 159.18 160.79"/><polygon class="cls-16" points="160.32 160.14 160.75 156.98 160.89 160.16 160.32 160.14"/><polygon class="cls-16" points="167.1 164.7 166.57 160.71 167.66 164.59 167.1 164.7"/><polygon class="cls-16" points="168.24 164.05 168.66 160.89 168.81 164.07 168.24 164.05"/><polygon class="cls-16" points="196.18 169.02 195.65 165.02 196.74 168.9 196.18 169.02"/><polygon class="cls-16" points="197.31 168.36 197.74 165.2 197.89 168.39 197.31 168.36"/><polygon class="cls-16" points="211.05 165.39 210.53 161.4 211.61 165.28 211.05 165.39"/><polygon class="cls-16" points="212.19 164.74 212.62 161.58 212.76 164.76 212.19 164.74"/><polygon class="cls-16" points="219.06 157.29 218.53 153.29 219.62 157.18 219.06 157.29"/><polygon class="cls-16" points="220.2 156.63 220.63 153.47 220.77 156.66 220.2 156.63"/><polygon class="cls-16" points="212.48 154.14 211.96 150.15 213.04 154.03 212.48 154.14"/><polygon class="cls-16" points="213.62 153.49 214.05 150.33 214.19 153.51 213.62 153.49"/><path class="cls-20" d="M51.85,16.72c-.94.1-1.81.24-2.62.4-6.46,1.29-9.09,4.28-11.93,8.58C33,22.82,29.46,21.06,23,22.35c-.81.16-1.66.37-2.56.63A14.49,14.49,0,0,0,10.19,38.7l.56,2.77c2.15,7.25,10.06,15,29.59,22.63a8.62,8.62,0,0,0,8.88-1.77C64.34,47.8,68.67,37.6,67.88,30.08l-.55-2.77A14.5,14.5,0,0,0,51.85,16.72Z" transform="translate(126.61 71.43)"/><path class="cls-21" d="M37.89,54.24c.32.91,4.46,13.33-1,24.61A1,1,0,0,0,37,80c1.64,1.52,7.42,5.79,15.79-.12a1,1,0,0,0,.28-1c-1-3.07-4.68-16.34-3.4-30.29.08-.89-.82-1.27-1.14-.48l-2,5a.55.55,0,0,1-1.08,0l-1.26-3.2c-.27-.68-1-.53-1.14.23l-.67,4.58c-.08.59-.6.86-1,.5l-3.29-3.22c-.55-.54-1.25.33-.88,1.09l.58,1.17S37.88,54.2,37.89,54.24Z" transform="translate(126.61 71.43)"/><path class="cls-22" d="M14.59,36.75a8.92,8.92,0,0,1,0-1c0-.34.08-.68.14-1a10.53,10.53,0,0,1,.57-2,10.24,10.24,0,0,1,1-1.86,9.85,9.85,0,0,1,1.35-1.61l.39-.36.41-.32c.14-.11.29-.2.43-.3a4.21,4.21,0,0,1,.45-.28c.3-.18.62-.33.93-.48l.49-.19.24-.1.25-.08a11.84,11.84,0,0,1,4.08-.52,16.84,16.84,0,0,0-3.93.95,1.57,1.57,0,0,0-.23.09l-.23.1c-.15.07-.31.13-.46.21a9,9,0,0,0-.86.48A9.25,9.25,0,0,0,18,29.65a9.73,9.73,0,0,0-1.29,1.5,11.44,11.44,0,0,0-1,1.73A13.84,13.84,0,0,0,15,34.77c0,.16-.09.32-.14.48s-.08.33-.11.5-.08.33-.11.5S14.62,36.58,14.59,36.75Z" transform="translate(126.61 71.43)"/><path class="cls-22" d="M22.28,29.4a11.24,11.24,0,0,0-1.47.85,10,10,0,0,0-1.3,1c-.2.19-.39.39-.57.59s-.36.43-.52.65A13,13,0,0,0,17.54,34a5.2,5.2,0,0,1,.56-1.65,7.29,7.29,0,0,1,.49-.74,6.07,6.07,0,0,1,.59-.65,6.8,6.8,0,0,1,1.44-1,6.89,6.89,0,0,1,.81-.33A4.17,4.17,0,0,1,22.28,29.4Z" transform="translate(126.61 71.43)"/><path class="cls-22" d="M59,40.25a7.94,7.94,0,0,1-.4,1,9.84,9.84,0,0,1-.5.9,11.27,11.27,0,0,1-1.25,1.66,9.58,9.58,0,0,1-3.41,2.39l-.5.19-.5.15-.51.13a4.34,4.34,0,0,1-.52.09c-.34.06-.69.08-1,.11h-1a11.83,11.83,0,0,1-4-1,16.69,16.69,0,0,0,4,.55h.5c.16,0,.33,0,.5,0,.33,0,.66-.07,1-.14a9,9,0,0,0,1.9-.56A9.79,9.79,0,0,0,55,44.69a11,11,0,0,0,1.56-1.25,12.8,12.8,0,0,0,1.34-1.5c.11-.13.2-.26.31-.4l.29-.42.27-.43C58.85,40.55,58.94,40.4,59,40.25Z" transform="translate(126.61 71.43)"/><path class="cls-22" d="M53.75,47.61a12.2,12.2,0,0,0,1.56-.67,9.82,9.82,0,0,0,1.42-.87c.22-.16.43-.34.64-.52s.4-.38.59-.58a12.46,12.46,0,0,0,1-1.33,4.94,4.94,0,0,1-.75,1.57,6,6,0,0,1-.57.67,6.19,6.19,0,0,1-3.06,1.64A5.14,5.14,0,0,1,53.75,47.61Z" transform="translate(126.61 71.43)"/><path class="cls-22" d="M39,48.69a5.69,5.69,0,0,1-.54.56,7.22,7.22,0,0,1-.6.5,7.87,7.87,0,0,1-1.34.82,7.19,7.19,0,0,1-3.07.74,6.06,6.06,0,0,1-1.59-.17,7.26,7.26,0,0,1-1.5-.54,8.14,8.14,0,0,1-2.47-1.88,12.55,12.55,0,0,0,2.65,1.47l.36.13.35.12.36.09c.12,0,.24,0,.36.08l.18,0,.19,0c.12,0,.24,0,.37,0l.36,0h.37a8.28,8.28,0,0,0,2.9-.58,11.38,11.38,0,0,0,1.37-.64A12.33,12.33,0,0,0,39,48.69Z" transform="translate(126.61 71.43)"/><path class="cls-22" d="M29.39,47.16a12.23,12.23,0,0,0,1.47.86,10.72,10.72,0,0,0,1.54.61c.26.08.53.14.8.2s.55.09.82.12a12,12,0,0,0,1.7,0,4.78,4.78,0,0,1-1.71.34,6.4,6.4,0,0,1-.88,0,8.41,8.41,0,0,1-.87-.19,6.61,6.61,0,0,1-1.59-.75,7,7,0,0,1-.69-.53A4.56,4.56,0,0,1,29.39,47.16Z" transform="translate(126.61 71.43)"/><path class="cls-22" d="M46.54,34a5,5,0,0,1-.14.77c-.07.25-.15.5-.24.74a8.41,8.41,0,0,1-.68,1.42,7.12,7.12,0,0,1-2.19,2.28,6.39,6.39,0,0,1-1.43.72,7.49,7.49,0,0,1-1.54.36A8.55,8.55,0,0,1,37.21,40a12.71,12.71,0,0,0,3-.2l.37-.08.36-.1.35-.11.35-.13.17-.07.17-.08a3.36,3.36,0,0,0,.33-.16l.33-.18.31-.19a8.5,8.5,0,0,0,2.13-2.06,13,13,0,0,0,.8-1.28A11.06,11.06,0,0,0,46.54,34Z" transform="translate(126.61 71.43)"/><path class="cls-22" d="M60.65,26.61a13.43,13.43,0,0,0-1.22-1.17,9.82,9.82,0,0,0-1.36-1c-.24-.14-.48-.26-.73-.38a7.28,7.28,0,0,0-.77-.31,12.19,12.19,0,0,0-1.63-.44,5,5,0,0,1,1.73.07,8.34,8.34,0,0,1,.85.26,5.79,5.79,0,0,1,.79.39,5.86,5.86,0,0,1,1.37,1.1,5.11,5.11,0,0,1,.55.68A3.76,3.76,0,0,1,60.65,26.61Z" transform="translate(126.61 71.43)"/><path class="cls-23" d="M52.18,80.4a46.67,46.67,0,0,1-2.51-7.83,63.59,63.59,0,0,1-1.38-8.11q-.21-2.05-.3-4.11c0-.68-.05-1.37-.06-2.06,0-.34,0-.68,0-1s0-.68,0-1c0-.69,0-1.38.07-2.06,0-.34,0-.69,0-1l.07-1,0-.52c0-.17,0-.34.05-.51l.1-1c.07-.68.17-1.36.26-2l-.09,1c0,.34-.07.68-.09,1l-.07,1c0,.17,0,.34,0,.51l0,.51,0,1,0,1c0,.68,0,1.36,0,2.05,0,.34,0,.68,0,1s0,.69,0,1c0,.68,0,1.37.08,2.05,0,.34,0,.68.06,1l.07,1c0,.34.06.68.09,1l0,.51.06.51c.13,1.36.32,2.71.54,4.06s.47,2.7.76,4,.63,2.67,1,4S51.68,79.12,52.18,80.4Z" transform="translate(126.61 71.43)"/><path class="cls-23" d="M50.33,81.34a49.74,49.74,0,0,1-2.12-6.88,68,68,0,0,1-1.3-7.09c-.09-.59-.14-1.19-.21-1.79l-.09-.89,0-.45,0-.45L46.41,62l0-.45v-.45l0-.9,0-.9v-.9l0-1.8c0-.61,0-1.2.09-1.8s.08-1.2.12-1.8c0,.6,0,1.2,0,1.8s0,1.2,0,1.8l.05,1.79v.45l0,.45.06.89.05.9,0,.45c0,.14,0,.29,0,.44L47,63.75l0,.45,0,.44.1.89c.06.6.12,1.19.21,1.78l.24,1.78.29,1.77c.2,1.18.42,2.35.66,3.52C49.06,76.72,49.62,79.05,50.33,81.34Z" transform="translate(126.61 71.43)"/><path class="cls-23" d="M48.39,82a4.53,4.53,0,0,1-.45-.91l-.18-.48-.15-.49c0-.16-.1-.33-.14-.49l-.13-.49c-.09-.33-.18-.66-.25-1l-.22-1c-.07-.34-.13-.67-.2-1s-.13-.67-.18-1l-.17-1-.17-1c0-.33-.09-.67-.14-1l-.14-1c0-.33-.1-.67-.14-1-.16-1.35-.33-2.69-.46-4l-.2-2c-.07-.68-.12-1.36-.18-2l-.16-2c0-.68-.09-1.36-.14-2-.18-2.71-.3-5.42-.38-8.14.28,2.71.5,5.41.76,8.11l.18,2,.19,2,.19,2,.21,2c.27,2.7.58,5.4.95,8.08l.13,1c0,.33.11.67.16,1s.1.67.16,1l.18,1c0,.33.13.66.2,1l.1.5.12.49.12.5.14.48A4.55,4.55,0,0,0,48.39,82Z" transform="translate(126.61 71.43)"/><path class="cls-23" d="M45,82.87c-.39-2.43-.72-4.87-1-7.31-.15-1.21-.28-2.44-.41-3.66-.07-.61-.13-1.22-.19-1.83l-.18-1.84L43,66.4l-.14-1.84c0-.61-.09-1.23-.13-1.84l-.06-.92c0-.31,0-.62,0-.92a72.68,72.68,0,0,1-.07-7.38c.07,2.46.25,4.91.45,7.35l.15,1.84c.05.61.1,1.22.16,1.83l.16,1.84.17,1.83.67,7.34Q44.66,79.19,45,82.87Z" transform="translate(126.61 71.43)"/><path class="cls-23" d="M39.82,53.5c.46,2.37.84,4.76,1.18,7.15.18,1.19.33,2.39.48,3.59s.27,2.4.4,3.6.21,2.4.3,3.61.15,2.41.17,3.62,0,2.42,0,3.63c-.05.6-.1,1.21-.2,1.81,0,.3-.11.59-.19.89a3.58,3.58,0,0,1-.33.84,3.71,3.71,0,0,0,.26-.86c0-.15,0-.3.08-.44s0-.3,0-.45q.09-.9.09-1.8c0-.6,0-1.2,0-1.8s0-1.2-.07-1.81-.07-1.2-.11-1.8-.09-1.2-.14-1.8q-.15-1.8-.33-3.6c-.11-1.2-.24-2.39-.37-3.59s-.26-2.4-.4-3.6Z" transform="translate(126.61 71.43)"/><path class="cls-20" d="M42.33,33,42,33a2,2,0,0,0-1.44,1.28,2,2,0,0,0-1.88-.46l-.33.09a2,2,0,0,0-1.13,2.31l.1.4c.36,1.05,1.48,2.17,4.09,3.24a1,1,0,0,0,1.13-.28c1.78-2.14,2.22-3.64,2-4.73l-.11-.4A2,2,0,0,0,42.33,33Z" transform="translate(126.61 71.43)"/><path class="cls-17" d="M79,44l-.31-.07a1.92,1.92,0,0,0-1.75.56,1.9,1.9,0,0,0-1.45-1.11l-.32,0a1.93,1.93,0,0,0-1.9,1.57l-.07.39c-.1,1,.42,2.42,2.25,4.33a.93.93,0,0,0,1.08.18c2.4-1.18,3.37-2.31,3.64-3.32l.07-.39A1.88,1.88,0,0,0,79,44Z" transform="translate(126.61 71.43)"/><path class="cls-24" d="M40.11,43.84a.58.58,0,1,0-.48.66.58.58,0,0,0,.48-.66" transform="translate(126.61 71.43)"/><path class="cls-24" d="M46.2,42.84a.58.58,0,1,0-.48.66.58.58,0,0,0,.48-.66" transform="translate(126.61 71.43)"/><polygon class="cls-25" points="162.31 113.22 174.02 111.3 175.07 111.51 174.76 114.31 163.55 116.15 162.31 113.22"/><path class="cls-24" d="M47.11,46.44l-8,1.32a1.61,1.61,0,0,1-1.85-1.33l-.28-1.71,11.22-1.84.28,1.72a1.6,1.6,0,0,1-1.32,1.84" transform="translate(126.61 71.43)"/><path class="cls-26" d="M47.17,46.81l-8.05,1.31a2,2,0,0,1-2.27-1.63l-.34-2.08,12-2,.34,2.09A2,2,0,0,1,47.17,46.81ZM37.36,45l.22,1.35a1.24,1.24,0,0,0,1.42,1l8-1.32a1.24,1.24,0,0,0,1-1.42l-.22-1.36Z" transform="translate(126.61 71.43)"/><path class="cls-26" d="M39.73,41.5a.33.33,0,0,1-.17,0A5.66,5.66,0,0,1,36,33.82a.37.37,0,1,1,.67.29,4.94,4.94,0,0,0,3.13,6.67.37.37,0,0,1,.24.46A.37.37,0,0,1,39.73,41.5Z" transform="translate(126.61 71.43)"/><path class="cls-26" d="M44.35,40.72a.39.39,0,0,1-.36-.15.38.38,0,0,1,.08-.52,4.93,4.93,0,0,0,.57-7.51.37.37,0,1,1,.51-.53,5.66,5.66,0,0,1-.64,8.64A.56.56,0,0,1,44.35,40.72Z" transform="translate(126.61 71.43)"/><path class="cls-26" d="M48.49,43.2,36.71,45.13l-3.16-7.24v0a7.91,7.91,0,1,1,15.62-2.56v.09ZM37.16,44.31l10.65-1.75.62-7.2a7.17,7.17,0,0,0-14.16,2.32Z" transform="translate(126.61 71.43)"/><path class="cls-26" d="M34,38a.36.36,0,0,1-.42-.3l-1.16-7.09a.36.36,0,0,1,.3-.42.37.37,0,0,1,.43.3l1.16,7.09A.37.37,0,0,1,34,38Z" transform="translate(126.61 71.43)"/><path class="cls-26" d="M48.85,35.6a.37.37,0,0,1-.43-.3l-1.49-9.09a.37.37,0,0,1,.31-.42.36.36,0,0,1,.42.3l1.49,9.09A.36.36,0,0,1,48.85,35.6Z" transform="translate(126.61 71.43)"/><path class="cls-26" d="M35.05,41.13l-.76.13A1.52,1.52,0,0,1,32.55,40l-.47-2.88a1.51,1.51,0,0,1,1.25-1.74l.32,0a.38.38,0,0,1,.43.31.37.37,0,0,1-.31.42l-.32,0a.79.79,0,0,0-.65.9l.47,2.87a.78.78,0,0,0,.9.64l.77-.13a.37.37,0,0,1,.42.31A.36.36,0,0,1,35.05,41.13Z" transform="translate(126.61 71.43)"/><path class="cls-26" d="M49.58,38.75l-.77.13a.37.37,0,0,1-.42-.31.36.36,0,0,1,.31-.42l.76-.13a.77.77,0,0,0,.64-.89l-.47-2.87a.77.77,0,0,0-.89-.64l-.32.05a.38.38,0,0,1-.43-.3.39.39,0,0,1,.31-.43l.32,0a1.51,1.51,0,0,1,1.74,1.25L50.83,37A1.5,1.5,0,0,1,49.58,38.75Z" transform="translate(126.61 71.43)"/><path class="cls-26" d="M33.85,36.89a.33.33,0,0,1-.27-.06.36.36,0,0,1-.09-.51,10.89,10.89,0,0,1,15.1-2.81.36.36,0,0,1,.1.51.37.37,0,0,1-.51.1,10.17,10.17,0,0,0-14.09,2.62A.37.37,0,0,1,33.85,36.89Z" transform="translate(126.61 71.43)"/><path class="cls-26" d="M48.46,40.07l-12.7,2.08a.37.37,0,1,1-.12-.73l12.7-2.08a.36.36,0,0,1,.42.31A.36.36,0,0,1,48.46,40.07Z" transform="translate(126.61 71.43)"/><path class="cls-27" d="M43.63,34.08a1.32,1.32,0,0,1-1.09,1.52A1.31,1.31,0,0,1,41,34.51,1.32,1.32,0,0,1,42.12,33a1.31,1.31,0,0,1,1.51,1.09" transform="translate(126.61 71.43)"/><path class="cls-27" d="M44.89,35.88a.54.54,0,0,1-.45.61.53.53,0,1,1-.17-1.05.54.54,0,0,1,.62.44" transform="translate(126.61 71.43)"/><path class="cls-26" d="M46.94,42.38a1.16,1.16,0,0,1-1.06-.49c-.2-.22-.28-.28-.39-.27s-.16.11-.28.38a1,1,0,0,1-1.9.31c-.2-.22-.28-.28-.39-.27s-.16.11-.29.38a1.15,1.15,0,0,1-.84.81,1.17,1.17,0,0,1-1-.5c-.2-.22-.28-.28-.39-.26s-.16.1-.29.37a1,1,0,0,1-1.89.31c-.2-.22-.28-.28-.39-.26a.39.39,0,0,1-.43-.31.37.37,0,0,1,.31-.42,1.13,1.13,0,0,1,1.05.49c.2.22.28.29.39.27s.17-.11.29-.38a1,1,0,0,1,1.89-.31c.21.22.29.29.4.27s.16-.11.28-.38a1,1,0,0,1,1.89-.31c.21.22.29.28.4.27s.16-.11.28-.38a1.18,1.18,0,0,1,.84-.81,1.16,1.16,0,0,1,1.05.5c.21.22.29.28.4.27a.36.36,0,0,1,.42.3A.36.36,0,0,1,46.94,42.38Z" transform="translate(126.61 71.43)"/><path class="cls-25" d="M47.78,48.29,39,49.72a.37.37,0,0,1-.43-.31.36.36,0,0,1,.31-.42l8.74-1.43a.38.38,0,0,1,.43.3A.39.39,0,0,1,47.78,48.29Z" transform="translate(126.61 71.43)"/><path class="cls-25" d="M65.72,116.69l2-1.15.09.16a3.94,3.94,0,0,1,.43,1,2.31,2.31,0,0,1,0,1A2.52,2.52,0,0,1,67,119.46a2.76,2.76,0,0,1-2.17.28,2.92,2.92,0,0,1-.67-5.36,2.85,2.85,0,0,1,1.2-.37,3.49,3.49,0,0,1,1.36.21l-.23.8a2,2,0,0,0-1.91,0,2,2,0,0,0-1,1.27,2.06,2.06,0,0,0,.23,1.61,2.09,2.09,0,0,0,2.81.8,1.65,1.65,0,0,0,.76-.92,1.48,1.48,0,0,0,0-1.15l-1.21.7Z" transform="translate(126.61 71.43)"/><rect class="cls-25" x="70.32" y="111.14" width="0.84" height="5.6" transform="translate(79.18 121.96) rotate(-29.95)"/><polygon class="cls-25" points="200.89 181.02 203.29 185.18 202.56 185.6 200.16 181.44 199.05 182.08 198.65 181.39 201.61 179.69 202 180.38 200.89 181.02"/><path class="cls-25" d="M80.88,105.22l.5.86a2.35,2.35,0,0,0-1.62.23,1.91,1.91,0,0,0-1,1.26,2.09,2.09,0,0,0,.23,1.6,2,2,0,0,0,1.26,1,2,2,0,0,0,1.57-.2,1.74,1.74,0,0,0,.58-.5c.08-.11.15-.23.22-.35s.13-.3.19-.46l.51.88a3,3,0,0,1-1.12,1.12,2.83,2.83,0,0,1-2.18.3,2.77,2.77,0,0,1-1.75-1.35,2.93,2.93,0,0,1,1.1-4,2.86,2.86,0,0,1,1.46-.37" transform="translate(126.61 71.43)"/><path class="cls-27" d="M84.43,105a2.75,2.75,0,0,1-.26-2.19A2.87,2.87,0,0,1,85.54,101a2.93,2.93,0,0,1,4,1.07,2.76,2.76,0,0,1,.27,2.21,3,3,0,0,1-3.45,2.09A2.73,2.73,0,0,1,84.43,105m.74-.41a2.07,2.07,0,0,0,3.82-.46,2.17,2.17,0,0,0-1.49-2.6A2.09,2.09,0,0,0,85,103a2,2,0,0,0,.23,1.58" transform="translate(126.61 71.43)"/><rect class="cls-25" x="92.06" y="98.62" width="0.85" height="5.6" transform="translate(88.32 131.19) rotate(-29.97)"/><polygon class="cls-25" points="223.7 173.44 220.71 168.26 226.38 169.92 224.44 166.55 225.17 166.13 228.13 171.28 222.47 169.62 224.43 173.02 223.7 173.44"/></svg>