<svg id="Layer_1" data-name="Layer 1" xmlns="http://www.w3.org/2000/svg" viewBox="0 0 86.59 100"><defs><style>.cls-1{fill:#069;}.cls-13,.cls-2,.cls-26,.cls-31,.cls-32,.cls-35,.cls-36{fill:none;stroke-miterlimit:10;}.cls-2,.cls-35,.cls-36{stroke:#5b3f92;}.cls-3{fill:#5b3f92;}.cls-4{fill:#fff;}.cls-5{fill:#b9afe8;}.cls-28,.cls-33,.cls-6,.cls-7,.cls-9{fill:#2a1a47;}.cls-6{opacity:0.13;}.cls-8{fill:#e48698;}.cls-11,.cls-9{font-size:13.79px;}.cls-11,.cls-14,.cls-28,.cls-30,.cls-33,.cls-34,.cls-9{font-family:Rubik-Bold, Rubik Bold;font-weight:700;}.cls-10{letter-spacing:0.01em;}.cls-11,.cls-14,.cls-15,.cls-24,.cls-34{fill:#f7f7f7;}.cls-12,.cls-30{fill:#9376d1;}.cls-13{stroke:#f7f7f7;}.cls-14{font-size:2.73px;}.cls-15{font-size:1.12px;font-family:Rubik-Italic, Rubik Italic;font-style:italic;}.cls-16{letter-spacing:0.01em;}.cls-17{letter-spacing:-0.03em;}.cls-18{letter-spacing:-0.02em;}.cls-19{letter-spacing:-0.02em;}.cls-20{letter-spacing:-0.04em;}.cls-21{letter-spacing:0.02em;}.cls-22{letter-spacing:0.04em;}.cls-23{letter-spacing:-0.04em;}.cls-24{opacity:0.2;}.cls-25{fill:#e6e1ef;}.cls-26,.cls-31{stroke:#9376d1;}.cls-27{fill:#f2eff9;}.cls-28,.cls-30{font-size:2.45px;}.cls-29{letter-spacing:0.01em;}.cls-31,.cls-32{stroke-width:0.76px;}.cls-32{stroke:#2a1a47;}.cls-33,.cls-34{font-size:3.51px;}.cls-35{stroke-width:2px;}.cls-36{stroke-width:0.92px;}.cls-37{fill:#4c3584;}</style></defs><title>MEDIS4GOOD</title><g id="bender"><g id="Layer_3" data-name="Layer 3"><path class="cls-1" d="M43.26,0,0,25V75l43.26,25L86.59,75V25ZM79.12,70.69,43.26,91.37,7.47,70.69V29.31L43.26,8.63,79.12,29.31Z"/><path class="cls-2" d="M43.26,8.63,7.46,29.31V70.68l35.8,20.69L79.12,70.68V29.31Zm34,61-34,19.65-34-19.63V30.36l34-19.65,34,19.65Z"/><path class="cls-3" d="M55.49,89.3l1.31-.75.06.1a2.53,2.53,0,0,1,.28.68,1.58,1.58,0,0,1,0,.64,1.65,1.65,0,0,1-.88,1.14,1.78,1.78,0,0,1-1.41.18,1.9,1.9,0,0,1-.43-3.48,1.86,1.86,0,0,1,.78-.25,2.29,2.29,0,0,1,.89.14l-.15.52a1.33,1.33,0,0,0-1.25,0A1.3,1.3,0,0,0,54,89a1.33,1.33,0,0,0,.15,1,1.29,1.29,0,0,0,.88.65,1.31,1.31,0,0,0,1-.13,1.1,1.1,0,0,0,.49-.6,1,1,0,0,0,0-.75l-.79.45Z"/><rect class="cls-3" x="58.5" y="85.68" width="0.55" height="3.65" transform="translate(-35.84 41.03) rotate(-29.95)"/><polygon class="cls-3" points="61.08 84.67 62.64 87.39 62.16 87.66 60.6 84.95 59.87 85.36 59.61 84.92 61.54 83.81 61.8 84.25 61.08 84.67"/><path class="cls-3" d="M65.38,81.82l.32.56a1.52,1.52,0,0,0-1.06.15,1.26,1.26,0,0,0-.62.82,1.36,1.36,0,0,0,.15,1A1.33,1.33,0,0,0,65,85a1.29,1.29,0,0,0,1-.13,1.18,1.18,0,0,0,.38-.33,1.4,1.4,0,0,0,.14-.23,2.85,2.85,0,0,0,.13-.3l.33.58a2,2,0,0,1-.73.73,1.83,1.83,0,0,1-1.43.19,1.81,1.81,0,0,1-1.14-.88,1.88,1.88,0,0,1-.22-1.31A1.83,1.83,0,0,1,64.39,82a1.86,1.86,0,0,1,1-.24"/><path class="cls-4" d="M67.69,81.68a1.79,1.79,0,0,1-.17-1.43,1.87,1.87,0,0,1,.9-1.16,1.91,1.91,0,0,1,2.59.7,1.79,1.79,0,0,1,.18,1.44,1.93,1.93,0,0,1-2.25,1.37,1.79,1.79,0,0,1-1.24-.92m.48-.27a1.35,1.35,0,0,0,2.5-.3,1.42,1.42,0,0,0-1-1.7,1.28,1.28,0,0,0-1,.13,1.3,1.3,0,0,0-.64.82,1.32,1.32,0,0,0,.14,1"/><rect class="cls-3" x="72.66" y="77.53" width="0.55" height="3.65" transform="translate(-29.89 47.05) rotate(-29.97)"/><polygon class="cls-3" points="75.94 79.73 74 76.35 77.69 77.44 76.43 75.24 76.91 74.96 78.84 78.32 75.14 77.24 76.42 79.45 75.94 79.73"/></g></g><polygon class="cls-5" points="43.26 10.71 9.26 30.36 9.26 69.65 43.26 89.28 77.26 69.63 77.26 30.36 43.26 10.71"/><path class="cls-6" d="M74.79,68.22H11.71A2.18,2.18,0,0,1,9.53,66h0a2.18,2.18,0,0,1,2.18-2.18H74.79A2.18,2.18,0,0,1,77,66h0A2.18,2.18,0,0,1,74.79,68.22Z"/><rect class="cls-3" x="13.3" y="31.27" width="59.89" height="35.21" rx="2.83" ry="2.83"/><path class="cls-7" d="M72.67,66.48H13.83c-.29,0,58.83-35.21,58.83-35.21a.53.53,0,0,1,.53.53V65.95A.53.53,0,0,1,72.67,66.48Z"/><rect class="cls-8" x="14.69" y="32.76" width="57.12" height="32.22"/><text class="cls-9" transform="translate(26.03 55.15)">N<tspan class="cls-10" x="9.07" y="0">E</tspan><tspan x="15.98" y="0">WS</tspan></text><text class="cls-11" transform="translate(26.03 53.06)">N<tspan class="cls-10" x="9.07" y="0">E</tspan><tspan x="15.98" y="0">WS</tspan></text><rect class="cls-12" x="16.7" y="34.69" width="5.39" height="5.39"/><rect class="cls-13" x="17.43" y="35.31" width="5.39" height="5.39"/><text class="cls-14" transform="translate(65.36 36.65)">LIVE</text><polyline class="cls-13" points="14.69 61.12 55.22 61.12 55.22 63.45 14.69 63.45"/><rect class="cls-12" x="14.69" y="59.79" width="38.52" height="2.65"/><text class="cls-15" transform="translate(15.02 61.48)">BREKING N<tspan class="cls-16" x="5.08" y="0">E</tspan><tspan x="5.64" y="0">WS : GI</tspan><tspan class="cls-17" x="8.84" y="0">T</tspan><tspan class="cls-18" x="9.37" y="0">C</tspan><tspan x="10" y="0">OIN IS BE</tspan><tspan class="cls-19" x="14.23" y="0">C</tspan><tspan x="14.86" y="0">OMING</tspan><tspan class="cls-20" x="18.27" y="0"> </tspan><tspan x="18.46" y="0">THE 1ST SOCIAL N</tspan><tspan class="cls-21" x="26.9" y="0">E</tspan><tspan class="cls-22" x="27.47" y="0">T</tspan><tspan x="28.07" y="0">WORK IN</tspan><tspan class="cls-20" x="32.25" y="0"> </tspan><tspan x="32.44" y="0">THE</tspan><tspan class="cls-23" x="34.29" y="0"> </tspan><tspan x="34.48" y="0">WORLD</tspan></text><polygon class="cls-24" points="14.69 64.99 14.69 32.76 71.81 32.76 14.69 64.99"/><path class="cls-25" d="M58.53,69.16H40.91a.88.88,0,0,1-.88-.88h0a.88.88,0,0,1,.88-.88H58.53Z"/><path class="cls-2" d="M58.53,68.77h-17a.49.49,0,0,1-.49-.49h0a.49.49,0,0,1,.49-.49h17"/><path class="cls-25" d="M41.94,69.16H59.55a0,0,0,0,1,0,0v1.75a0,0,0,0,1,0,0H41.94a.88.88,0,0,1-.88-.88v0a.88.88,0,0,1,.88-.88Z"/><path class="cls-26" d="M59.55,70.52h-17a.49.49,0,0,1-.49-.49h0a.49.49,0,0,1,.49-.49h17"/><path class="cls-25" d="M58.71,72.66H41.1a.88.88,0,0,1-.88-.88h0a.88.88,0,0,1,.88-.88H58.71Z"/><path class="cls-2" d="M58.71,72.28h-17a.49.49,0,0,1-.49-.49h0a.49.49,0,0,1,.49-.49h17"/><path class="cls-25" d="M58.53,74.42H40.91a.88.88,0,0,1-.88-.88h0a.88.88,0,0,1,.88-.88H58.53Z"/><path class="cls-26" d="M58.53,74h-17a.49.49,0,0,1-.49-.49h0a.49.49,0,0,1,.49-.49h17"/><polygon class="cls-27" points="65.64 76.57 53.16 76.57 47.33 68.49 59.81 68.49 65.64 76.57"/><text class="cls-28" transform="matrix(1.4, 0, 0.59, 0.81, 50.88, 70.85)">N<tspan class="cls-29" x="1.61" y="0">E</tspan><tspan x="2.84" y="0">WS</tspan></text><text class="cls-30" transform="matrix(1.4, 0, 0.59, 0.81, 50.66, 70.55)">N<tspan class="cls-29" x="1.61" y="0">E</tspan><tspan x="2.84" y="0">WS</tspan></text><polygon class="cls-31" points="55.91 74.49 52.91 74.49 50.73 71.47 53.73 71.47 55.91 74.49"/><line class="cls-31" x1="54.81" y1="71.47" x2="57.15" y2="71.47"/><line class="cls-32" x1="55.19" y1="72.01" x2="60.98" y2="72.01"/><line class="cls-32" x1="55.46" y1="72.38" x2="60.19" y2="72.38"/><line class="cls-32" x1="55.76" y1="72.8" x2="61.55" y2="72.8"/><line class="cls-32" x1="56.03" y1="73.17" x2="61.44" y2="73.17"/><line class="cls-32" x1="56.28" y1="73.51" x2="61.38" y2="73.51"/><line class="cls-32" x1="56.54" y1="73.88" x2="61.96" y2="73.88"/><line class="cls-32" x1="56.82" y1="74.26" x2="62.6" y2="74.26"/><polygon class="cls-12" points="63.28 75.2 53.44 75.2 53.24 74.92 63.08 74.92 63.28 75.2"/><line class="cls-32" x1="53.76" y1="75.64" x2="62.91" y2="75.64"/><line class="cls-32" x1="54.06" y1="76.05" x2="63.53" y2="76.05"/><polygon class="cls-6" points="53.16 76.57 47.33 74.49 47.33 68.49 53.16 76.57"/><path class="cls-6" d="M48.61,81.47H36l-1.28.67,1.28.67H48.61a.67.67,0,0,0,0-1.33Z"/><rect class="cls-12" x="36.05" y="80.93" width="11.29" height="1.33"/><polygon class="cls-25" points="36.05 80.93 36.05 82.26 34.77 81.59 36.05 80.93"/><rect class="cls-25" x="47.33" y="80.93" width="0.88" height="1.33"/><path class="cls-8" d="M48.61,82.26h-.4V80.93h.4a.67.67,0,0,1,.67.67h0A.67.67,0,0,1,48.61,82.26Z"/><polygon class="cls-7" points="34.99 81.47 34.77 81.59 34.99 81.71 34.99 81.47"/><path class="cls-6" d="M34.77,81.59H49.28a.67.67,0,0,1-.67.67H36Z"/><rect class="cls-6" x="30.39" y="69.53" width="5.39" height="4.32"/><path class="cls-6" d="M37.46,73.43H35.77V70.06h1.69a1.69,1.69,0,0,1,1.69,1.69h0A1.69,1.69,0,0,1,37.46,73.43Z"/><rect class="cls-8" x="30.39" y="68.81" width="5.39" height="4.32"/><path class="cls-3" d="M37.46,72.7H35.77V69.33h1.69A1.69,1.69,0,0,1,39.14,71h0A1.69,1.69,0,0,1,37.46,72.7Z"/><rect class="cls-6" x="23.05" y="70.91" width="7.34" height="1.44"/><rect class="cls-7" x="23.05" y="70.25" width="7.34" height="1.44"/><text class="cls-33" transform="translate(31.61 69.82) rotate(90)">N</text><text class="cls-34" transform="translate(32.14 69.82) rotate(90)">N</text><path class="cls-35" d="M23,70.92h-.83a1.1,1.1,0,0,0-1.1,1.1h0a1.1,1.1,0,0,0,1.1,1.1h3.19A1.87,1.87,0,0,1,27.29,75h0a1.87,1.87,0,0,1-1.87,1.87H19.67"/><rect class="cls-24" x="30.39" y="68.81" width="5.39" height="1.95"/><rect class="cls-24" x="22.97" y="70.25" width="7.42" height="0.77"/><path class="cls-6" d="M35.77,71.39H39.1a1.51,1.51,0,0,1-.5.87,1.66,1.66,0,0,1-1.05.45H35.77Z"/><path class="cls-36" d="M37.65,26.26a2.46,2.46,0,0,0,1.52,1A6.86,6.86,0,0,0,42.75,27c1.16-.35,2.29-.83,3.48-1.07A14.11,14.11,0,0,1,51.6,26c1.77.32,3.51.8,5.29,1.08A25.47,25.47,0,0,0,64,26.86c1.86-.27,3.84-1.17,6.26-1.19"/><rect class="cls-25" x="36.05" y="26.02" width="34.2" height="0.36"/><rect class="cls-7" x="43.8" y="25.89" width="2.9" height="0.61"/><path class="cls-37" d="M33.3,41.5l-.2-.06a1.38,1.38,0,0,1-1-1.65l2.39-10a1.26,1.26,0,0,1,1.57-.92l1.31.38a1.26,1.26,0,0,1,.85,1.61L35,40.61A1.38,1.38,0,0,1,33.3,41.5Z"/><rect class="cls-7" x="35.95" y="28.24" width="1.85" height="0.83" transform="translate(9.32 -9.05) rotate(15.99)"/><rect class="cls-25" x="37.28" y="24.7" width="0.42" height="3.62" transform="translate(8.75 -9.3) rotate(15.99)"/><circle class="cls-7" cx="37.58" cy="26.2" r="0.56" transform="translate(2.04 55.1) rotate(-74.01)"/><path class="cls-6" d="M33.3,41.5,36.65,29l.76.22a1.26,1.26,0,0,1,.85,1.61L35,40.61A1.38,1.38,0,0,1,33.3,41.5Z"/></svg>