<svg id="Camada_2" data-name="Camada 2" xmlns="http://www.w3.org/2000/svg" viewBox="0 0 110.84998 128"><defs><style>.cls-1{fill:#be1e2d;}.cls-2{opacity:0.13;isolation:isolate;}.cls-3{fill:#f15a29;}.cls-4{fill:#f7941d;}.cls-5{fill:#ffffab;}.cls-6{fill:#fff;}.cls-7{fill:#030300;}.cls-8{fill:#91ddff;}.cls-9{fill:#406399;}.cls-10{fill:#3c4960;}.cls-11{fill:#f24d44;}.cls-12{fill:#833a36;}</style></defs><g id="Layer_63" data-name="Layer 63"><polygon points="110.85 32 110.85 96 55.43 128 11.08 102.4 10.88 102.28 0 96 0 32 55.43 0 110.85 32"/></g><g id="Layer_63-2" data-name="Layer 63"><polygon class="cls-1" points="101.439 37.434 101.439 90.566 55.429 117.133 9.411 90.566 9.411 37.434 55.429 10.867 101.439 37.434"/></g><g id="Layer_63-3" data-name="Layer 63" class="cls-2"><path d="M55.42091,10.86123l-46.01,26.57v53.13l46.01,26.57,46.01-26.57v-53.13Zm44.30005,78.64-44.18,25.5-44.18006-25.5v-51.01l44.18006-25.51,44.18,25.51Z" transform="translate(0.00405 0.00379)"/></g><g id="Layer_63-4" data-name="Layer 63"><polygon class="cls-3" points="92.726 43.903 92.726 86.837 55.548 108.304 18.364 86.837 18.364 43.903 55.548 22.436 92.726 43.903"/></g><g id="Layer_63-5" data-name="Layer 63"><polygon class="cls-4" points="82.764 48.286 82.764 79.716 55.547 95.431 28.326 79.716 28.326 48.286 55.547 32.571 82.764 48.286"/></g><g id="Shooting_Pose"><g id="Colors"><path class="cls-5" d="M57.62306,41.72583l.1023.16563.10229.16562c.13965-.08443.28579-.16806.43518-.25006s.302-.16238.45466-.24032a3.31662,3.31662,0,0,1,.82488-.27767,6.107,6.107,0,0,1,.79566-.10229,5.60886,5.60886,0,0,0,.44978-1.20323,5.68128,5.68128,0,0,0,.15751-.9012,2.03875,2.03875,0,0,0-.01786-.585.75869.75869,0,0,0-.15426-.33409.88562.88562,0,0,0-.42462-.28782,1.86526,1.86526,0,0,0-.41-.07591,1.90482,1.90482,0,0,0-.83057.10392,3.4143,3.4143,0,0,0-.58213.27929c-.16562.09743-.32719.19892-.48145.30243s-.30121.20907-.43761.31461a.11562.11562,0,0,0-.03126-.01461.11854.11854,0,0,0-.03369-.00487.17047.17047,0,0,0-.12544.06982.67262.67262,0,0,0-.10839.19648,2.43229,2.43229,0,0,0-.12949.52164,4.76867,4.76867,0,0,0-.04912.69944,4.11429,4.11429,0,0,0,.121,1.05181c.07469.26914.1778.43558.29147.43558a.12067.12067,0,0,0,.04181-.00731A.15237.15237,0,0,0,57.62306,41.72583Zm-4.41345-2.94554a.12352.12352,0,0,0-.0341.00487.1545.1545,0,0,0-.0341.01461,6.68558,6.68558,0,0,0-.64992-.43192,5.54088,5.54088,0,0,0-.71081-.354,2.2827,2.2827,0,0,0-.44492-.14411,1.24332,1.24332,0,0,0-.56183.01421,1.71052,1.71052,0,0,0-.23057.11244,1.89119,1.89119,0,0,0-.45466.35846,1.65926,1.65926,0,0,0-.11123,1.39645,9.56061,9.56061,0,0,0,.70228,1.9323c.22571.03086.46359.06577.68849.10311s.4368.07713.61054.11773c.05034.01137.09986.02354.14858.03572s.09661.02436.1437.03573l.42706-.125.427-.125a.19114.19114,0,0,0,.04222.02192.12465.12465,0,0,0,.04222.00731c.11367,0,.216-.16644.28984-.43558a4.15863,4.15863,0,0,0,.11935-1.05181,4.869,4.869,0,0,0-.04749-.6966,2.39534,2.39534,0,0,0-.12787-.52123.69545.69545,0,0,0-.10839-.19811A.17028.17028,0,0,0,53.20961,38.78029Zm3.56908.82488c.0958-.16563.19648-.34505.31014-.53341s.24032-.38565.38809-.587a5.75406,5.75406,0,0,1,1.64895-1.48252,3.66138,3.66138,0,0,1,1.92662-.59593,2.74734,2.74734,0,0,1,1.50647.6073,4.183,4.183,0,0,1,.76358.74369,4.6,4.6,0,0,1,.47455,2.88993,5.86075,5.86075,0,0,1-.887,2.868,8.11911,8.11911,0,0,1-.58172.62557A8.40231,8.40231,0,0,1,59.773,45.83726a.812.812,0,0,1-.22.056,1.18976,1.18976,0,0,1-.23464.00243l-.00974-.00284-.00975-.00041c-.11691-.0276-.216-.04871-.3008-.06576s-.15548-.03-.21556-.04141c-.04547-.00811-.09093-.01542-.136-.02232s-.08972-.0134-.13356-.01989l-.0341-.00487-.0341-.00488-.00812-.00284-.00811-.0004a3.78609,3.78609,0,0,0,.056-.5939,1.492,1.492,0,0,0-.16318-.80581,1.28686,1.28686,0,0,0-.41732-.39092,1.08731,1.08731,0,0,0-.544-.15467.82572.82572,0,0,0-.33652.07632,4.42164,4.42164,0,0,0-.4364.2322c-.56507.32638-.89957.52205-1.13015.65195a4.68431,4.68431,0,0,1-.50662.25737,3.09479,3.09479,0,0,1-.35642.11651c-.151.04181-.3272.08484-.50744.12381.02111.05683.12666.27361.23221.49038s.21109.43355.2322.49039a.38478.38478,0,0,0-.04587.0138c-.01584.00568-.03207.01218-.04831.01867l-.06333.01989c-.02111.00691-.04222.01421-.06333.02233-.1981.07145-.38159.138-.55493.205s-.33653.13437-.494.20744h-.0065a.45364.45364,0,0,1-.08809.01421.2078.2078,0,0,1-.071-.00771,7.33336,7.33336,0,0,1-1.65342-.7031,8.6439,8.6439,0,0,1-1.47074-1.07332,10.66174,10.66174,0,0,1-1.88968-2.27208,12.03731,12.03731,0,0,1-1.254-2.7032l.00487-.00162.00487-.00163a2.80441,2.80441,0,0,1,1.187-2.79737,4.17494,4.17494,0,0,1,2.36586-.65155,2.74889,2.74889,0,0,1,1.68508.78226,8.44891,8.44891,0,0,1,1.36114,1.63718l.15141.2318q.07368.11265.14411.21962a4.226,4.226,0,0,0,.70392.88455,1.40032,1.40032,0,0,0,.93286.356,1.1802,1.1802,0,0,0,.76318-.22368,2.18574,2.18574,0,0,0,.51961-.62069l.002-.00487.00447-.00487.04424-.0751c.015-.02558.03045-.05156.04669-.07754l.00487-.00528Z" transform="translate(0.00405 0.00379)"/><path class="cls-6" d="M58.71749,41.5667c-.15264.07794-.30527.15832-.45466.24032s-.29553.16563-.43518.25006l-.10229-.16562-.1023-.16563a.93855.93855,0,0,0,.23463-.5123,4.84272,4.84272,0,0,0-.00446-1.91485.817.817,0,0,0-.24641-.49891c.1364-.10554.28335-.21109.43761-.31461s.31583-.205.48145-.30243a3.4143,3.4143,0,0,1,.58213-.27929,1.90482,1.90482,0,0,1,.83057-.10392,1.86526,1.86526,0,0,1,.41.07591.88562.88562,0,0,1,.42462.28782.75869.75869,0,0,1,.15426.33409,2.03875,2.03875,0,0,1,.01786.585,5.68128,5.68128,0,0,1-.15751.9012,5.60886,5.60886,0,0,1-.44978,1.20323,6.107,6.107,0,0,0-.79566.10229A3.31662,3.31662,0,0,0,58.71749,41.5667Z" transform="translate(0.00405 0.00379)"/><path class="cls-7" d="M57.60682,38.79977a.817.817,0,0,1,.24641.49891,4.84272,4.84272,0,0,1,.00446,1.91485.93855.93855,0,0,1-.23463.5123.15237.15237,0,0,1-.03938.02192.12067.12067,0,0,1-.04181.00731c-.11367,0-.21678-.16644-.29147-.43558a4.11429,4.11429,0,0,1-.121-1.05181,4.76867,4.76867,0,0,1,.04912-.69944,2.43229,2.43229,0,0,1,.12949-.52164c.04547-.0406.09337-.082.1433-.12341S57.55324,38.84037,57.60682,38.79977Z" transform="translate(0.00405 0.00379)"/><path class="cls-6" d="M51.97878,41.90445c-.17374-.0406-.38565-.08038-.61054-.11773s-.46278-.07225-.68849-.10311a9.56061,9.56061,0,0,1-.70228-1.9323,1.65926,1.65926,0,0,1,.11123-1.39645,1.89119,1.89119,0,0,1,.45466-.35846,1.71052,1.71052,0,0,1,.23057-.11244,1.24332,1.24332,0,0,1,.56183-.01421,2.2827,2.2827,0,0,1,.44492.14411,5.54088,5.54088,0,0,1,.71081.354,6.68558,6.68558,0,0,1,.64992.43192.84228.84228,0,0,0-.24519.50135,4.77108,4.77108,0,0,0-.00447,1.91241.95416.95416,0,0,0,.23342.5123l-.427.125-.42706.125c-.04709-.01137-.095-.02355-.1437-.03573S52.02912,41.91582,51.97878,41.90445Z" transform="translate(0.00405 0.00379)"/><path class="cls-7" d="M52.79717,40.26767a4.33172,4.33172,0,0,1,.099-.96655.84228.84228,0,0,1,.24519-.50135c.05521.04222.1088.08444.15954.12625s.09864.08322.14249.12382a2.39534,2.39534,0,0,1,.12787.52123,4.869,4.869,0,0,1,.04749.6966,4.15863,4.15863,0,0,1-.11935,1.05181c-.07388.26914-.17617.43558-.28984.43558a.12465.12465,0,0,1-.04222-.00731.19114.19114,0,0,1-.04222-.02192.95416.95416,0,0,1-.23342-.5123A4.37475,4.37475,0,0,1,52.79717,40.26767Z" transform="translate(0.00405 0.00379)"/><path class="cls-8" d="M65.55038,48.825c.00974.56508.01867,1.07251.0004,1.4541s-.06373.63734-.16278.699a.03492.03492,0,0,1-.0272.00406.08515.08515,0,0,1-.03451-.0203.73848.73848,0,0,1-.13193-.19891c-.0548-.10474-.12138-.24925-.20257-.43761a5.27125,5.27125,0,0,0-.62312-1.103,12.48619,12.48619,0,0,0-1.08835-1.25153,6.29921,6.29921,0,0,0-.51514-.48511c-.14492-.12056-.26914-.20987-.39093-.29755a5.27124,5.27124,0,0,0-.64586-.42747,7.85889,7.85889,0,0,0-1.29618-.53706c-.2452-.08119-.4571-.147-.641-.20054s-.33978-.095-.47293-.12747a1.18976,1.18976,0,0,0,.23464-.00243.812.812,0,0,0,.22-.056A8.38549,8.38549,0,0,0,61.676,44.71035a2.52275,2.52275,0,0,0,.65764-.09824,6.07231,6.07231,0,0,0,.7648-.24925c.03085-.013.06089-.026.09012-.03978s.05764-.02842.08525-.04466a2.52824,2.52824,0,0,1,.52732.354c.21394.1705.43883.367.59309.50987a1.97637,1.97637,0,0,1,.34424.44654,6.57378,6.57378,0,0,1,.38322.79728,5.18784,5.18784,0,0,1,.36048,1.3315A9.34313,9.34313,0,0,1,65.55038,48.825Z" transform="translate(0.00405 0.00379)"/><path class="cls-8" d="M65.44321,40.92368a4.63633,4.63633,0,0,1-.42828,1.159,9.90544,9.90544,0,0,1-.6012.96169,7.69064,7.69064,0,0,1-.54316.74369,2.06254,2.06254,0,0,1-.59674.49038c-.02761.01624-.056.03085-.08525.04466s-.05927.02679-.09012.03978a6.07231,6.07231,0,0,1-.7648.24925,2.52275,2.52275,0,0,1-.65764.09824,8.4513,8.4513,0,0,0,.65236-.56954,8.11911,8.11911,0,0,0,.58172-.62557,9.4313,9.4313,0,0,0,1.4744-2.41091,10.83774,10.83774,0,0,0,.75343-2.74947,11.538,11.538,0,0,1,.289,1.14192A3.66818,3.66818,0,0,1,65.44321,40.92368Z" transform="translate(0.00405 0.00379)"/><path class="cls-9" d="M74.90013,73.19478l.07307.00487.07307.00488c.11529.09255.25574.20865.41366.34789s.33328.30162.51839.48673a13.97311,13.97311,0,0,1,3.04013,4.67163c.62151,1.63109.74329,3.15014.04182,3.99938a1.157,1.157,0,0,1-.65764.33085c-.40107.11163-1.05383.24722-2.16775.47455a18.97,18.97,0,0,1-4.34565.36982A26.97468,26.97468,0,0,1,68.72,83.58051a24.755,24.755,0,0,1-4.31317-1.01892,21.75712,21.75712,0,0,1-2.68859-1.10174A18.0084,18.0084,0,0,1,59.71043,80.38a3.06268,3.06268,0,0,1-1.07738-1.13827,3.80483,3.80483,0,0,1-.22976-2.34881,40.40081,40.40081,0,0,1,.90526-4.00993,16.31115,16.31115,0,0,1,.49485-1.63678,8.69089,8.69089,0,0,1,1.64854-2.83472c.33288-.40554.65439-.76683.82489-.96169.22083.06983.45953.14127.72136.21962s.54681.1636.8602.261c.15264.2046.50581.71528.9625,1.22961a4.581,4.581,0,0,0,1.5836,1.25154,5.86863,5.86863,0,0,0,1.64895.36535,3.09,3.09,0,0,0,2.43324-.78429,3.03145,3.03145,0,0,0,.85411-1.91485,4.16523,4.16523,0,0,0-.052-1.16709,2.4687,2.4687,0,0,0-.97062-1.38509c-.42583-.33369-.85614-.54559-.99741-.65439a6.359,6.359,0,0,0-.41974-.49038c-.13478-.14208-.26225-.26305-.37591-.36373.24357.026.72746.06739,1.254.15791a5.24307,5.24307,0,0,1,1.50971.45263,5.52592,5.52592,0,0,1,1.53164,1.23246,7.81807,7.81807,0,0,1,.81311,1.14477,7.3445,7.3445,0,0,1,.74369,1.66762,11.34291,11.34291,0,0,1,.315,1.38509c.06008.3345.13721.77861.18674,1.30918A10.94348,10.94348,0,0,1,74.90013,73.19478Z" transform="translate(0.00405 0.00379)"/><path class="cls-10" d="M71.28883,66.91074a4.16523,4.16523,0,0,1,.052,1.16709,3.03145,3.03145,0,0,1-.85411,1.91485,3.09,3.09,0,0,1-2.43324.78429,5.86863,5.86863,0,0,1-1.64895-.36535,4.581,4.581,0,0,1-1.5836-1.25154c-.45669-.51433-.80986-1.025-.9625-1.22961.276.08444.57482.17781.89958.28254s.67549.22084,1.05546.35074a8.42075,8.42075,0,0,0,.96087.28173,5.14415,5.14415,0,0,0,1.36764.121,2.88455,2.88455,0,0,0,.462-.05968,2.14271,2.14271,0,0,0,.51555-.18389,2.2074,2.2074,0,0,0,.4299-.27117,1.771,1.771,0,0,0,.48592-.61217,1.67529,1.67529,0,0,0,.16075-.61217,2.88441,2.88441,0,0,0-.01461-.49525,2.48937,2.48937,0,0,0-.121-.54316,4.16209,4.16209,0,0,0-.4571-.91825c-.04546-.07144-.09255-.14045-.14005-.207s-.0954-.13071-.14249-.19242c.14127.1088.57158.3207.99741.65439A2.4687,2.4687,0,0,1,71.28883,66.91074Z" transform="translate(0.00405 0.00379)"/><path class="cls-8" d="M69.3208,64.87126c.04709.06171.095.12585.14249.19242s.09459.13559.14005.207a4.16209,4.16209,0,0,1,.4571.91825,2.48937,2.48937,0,0,1,.121.54316,2.88441,2.88441,0,0,1,.01461.49525,1.67529,1.67529,0,0,1-.16075.61217,1.771,1.771,0,0,1-.48592.61217,2.2074,2.2074,0,0,1-.4299.27117,2.14271,2.14271,0,0,1-.51555.18389,2.88455,2.88455,0,0,1-.462.05968,5.14415,5.14415,0,0,1-1.36764-.121,8.42075,8.42075,0,0,1-.96087-.28173c-.38-.1299-.7307-.246-1.05546-.35074s-.62353-.1981-.89958-.28254c-.31339-.09742-.59836-.18267-.8602-.261s-.50053-.14979-.72136-.21962c-.37023-.11529-.69255-.22164-.99173-.33774a6.7595,6.7595,0,0,1-.85289-.39621c-.03735-.01948-.09906-.05358-.18268-.09377a3.066,3.066,0,0,0-.3142-.13031c-.02923-.00974-.05846-.01949-.08809-.02882s-.05968-.01827-.09053-.02639c.21434-.28741.53991-.72664.86588-1.1947a15.08968,15.08968,0,0,0,.86832-1.36763,11.03359,11.03359,0,0,0,.5456-1.308c.1778-.48795.33937-.96534.44816-1.24463.08606-.06008.17131-.1226.25615-.18836s.16928-.13477.25372-.20784c.33937.14289,1.23407.5261,2.24975,1.03638a18.34421,18.34421,0,0,1,2.97559,1.79874c.03734.03086.08281.06739.13437.11s.1092.09134.1709.14655c.11366.10068.24113.22165.37591.36373A6.359,6.359,0,0,1,69.3208,64.87126Z" transform="translate(0.00405 0.00379)"/><path class="cls-9" d="M65.32629,50.96192a9.3,9.3,0,0,1,.40514,2.0415,11.76177,11.76177,0,0,1,.00081,1.8296,14.29231,14.29231,0,0,1-.16116,1.50282,7.72175,7.72175,0,0,1-.51433,1.74151,8.0578,8.0578,0,0,1-.59675,1.1537,7.32169,7.32169,0,0,1-1.36154,1.60673c-.01786.01461-.03491.03-.052.04506s-.0341.02963-.052.04263c-.08444.07307-.16888.14208-.25372.20784s-.17009.12828-.25615.18836a7.00909,7.00909,0,0,1-.82732.50175,7.45342,7.45342,0,0,1-.803.35561,8.36051,8.36051,0,0,1-1.1131.32922c-.33856.07591-.639.12381-.88416.16116-.05845.00974-.12422.0203-.19729.03126s-.15344.02232-.24113.03369a10.00328,10.00328,0,0,1-1.10011.07957,8.50187,8.50187,0,0,1-1.4265-.09581,7.5209,7.5209,0,0,1-1.189-.28132,7.1553,7.1553,0,0,1-1.24017-.53706q-.19972-.10961-.38646-.22815-.18633-.11812-.35723-.24275a8.10438,8.10438,0,0,1-1.21094-1.07657,10.71617,10.71617,0,0,1-.71162-.86223c-.08931-.11854-.17375-.23545-.2525-.34952s-.15183-.2253-.2184-.33247a8.93694,8.93694,0,0,1-.46928-.84843c-.112-.2322-.18186-.40513-.216-.49282-.07307-.18186-.15182-.397-.22692-.64261a7.98506,7.98506,0,0,1-.205-.82529c-.03734-.18511-.06982-.38078-.095-.58618s-.043-.42056-.05115-.64465a8.39449,8.39449,0,0,1,.05562-1.37331,9.123,9.123,0,0,1,.1847-1.0104H49.306c.00812-.03248.01543-.06414.02273-.095s.01462-.0609.02274-.09012a12.54376,12.54376,0,0,1,.58943-1.81012c.19-.45588.36211-.78145.48227-1.02826l-.00163-.00162L50.42,49.35762a2.42344,2.42344,0,0,0,.24722-.26833c.08322-.10189.17171-.21718.27888-.34871.21434-.263.44248-.5326.68484-.78875a6.78378,6.78378,0,0,1,.77008-.70838,4.405,4.405,0,0,1,.43314-.298,4.929,4.929,0,0,1,.44045-.23464h.0065a3.27143,3.27143,0,0,0,.5123-.192c.20216-.08728.42949-.18633.66332-.26265.26143-.08606.54315-.16644.82041-.23707s.55006-.13153.79363-.17862l.04384-.00933c.01462-.00284.02923-.00528.04384-.0069.11529-.01949.2387-.039.36982-.05684s.27-.0341.4161-.04709c.1916-.00162.39539-.01136.60283-.01745s.41853-.00853.62475.00446h.01948c.039.00325.07876.00731.11854.01137s.07956.00812.11854.01137v.00324h.01623l.0341.00488.0341.00487c.12179.01948.2525.05115.38565.08078a3.1032,3.1032,0,0,0,.40026.0686l.00975.00041.00974.00284c.13315.03248.289.07388.47293.12747s.39579.11935.641.20054a7.85889,7.85889,0,0,1,1.29618.53706,5.27124,5.27124,0,0,1,.64586.42747c.12179.08768.246.177.39093.29755a6.29921,6.29921,0,0,1,.51514.48511,12.48619,12.48619,0,0,1,1.08835,1.25153,5.27125,5.27125,0,0,1,.62312,1.103c.08119.18836.14777.33287.20257.43761A.73848.73848,0,0,0,65.32629,50.96192Zm-2.26355,3.621a6.10111,6.10111,0,1,0-1.787,4.31521A6.08306,6.08306,0,0,0,63.06274,54.583Z" transform="translate(0.00405 0.00379)"/><path class="cls-9" d="M65.13793,38.35486a10.83774,10.83774,0,0,1-.75343,2.74947,9.4313,9.4313,0,0,1-1.4744,2.41091,5.86075,5.86075,0,0,0,.887-2.868,4.6,4.6,0,0,0-.47455-2.88993,4.183,4.183,0,0,0-.76358-.74369,2.74734,2.74734,0,0,0-1.50647-.6073,3.66138,3.66138,0,0,0-1.92662.59593,5.75406,5.75406,0,0,0-1.64895,1.48252c-.14777.20135-.27442.39864-.38809.587s-.21434.36778-.31014.53341l-.00487.00771-.00487.00528c-.01786.026-.03492.052-.05034.07754a.80834.80834,0,0,0-.04059.0751l-.00447.00487-.002.00487a2.18574,2.18574,0,0,1-.51961.62069,1.1802,1.1802,0,0,1-.76318.22368,1.40032,1.40032,0,0,1-.93286-.356,4.226,4.226,0,0,1-.70392-.88455q-.07062-.10717-.14411-.21962l-.15141-.2318a8.44891,8.44891,0,0,0-1.36114-1.63718,2.74889,2.74889,0,0,0-1.68508-.78226,4.17494,4.17494,0,0,0-2.36586.65155,2.80441,2.80441,0,0,0-1.187,2.79737l-.00487.00163-.00487.00162a11.20323,11.20323,0,0,1-.34383-1.33435,10.00655,10.00655,0,0,1-.166-1.3319q-.0073-.13154-.01177-.26265-.00426-.13092-.00446-.26021a11.91319,11.91319,0,0,1,.66859-3.88937,9.84293,9.84293,0,0,1,2.15679-3.58979,9.04767,9.04767,0,0,1,2.14949-1.61566,10.44608,10.44608,0,0,1,2.4783-.97265c-.06982.21109-.12422.43761-.17375.65926s-.09418.43842-.14451.63a7.36551,7.36551,0,0,0-.20217,1.33515,1.758,1.758,0,0,0,.20217,1.15248,1.79861,1.79861,0,0,0,1.07778.354c.45263.043.93409.03247,1.25072.03247.30528,0,.7234.00325,1.12569-.02922a2.59586,2.59586,0,0,0,1.0307-.24357c.2387-.14127.29228-.59349.2594-1.12975a11.05585,11.05585,0,0,0-.2594-1.63393c-.04547-.20135-.08768-.39864-.13477-.59065a5.53406,5.53406,0,0,0-.164-.559,11.77645,11.77645,0,0,1,2.47587.91175,9.17841,9.17841,0,0,1,2.13243,1.44274A9.02887,9.02887,0,0,1,64.58747,32.698a12.41683,12.41683,0,0,1,.66088,4.07855q0,.397-.0272.79159Q65.19376,37.96271,65.13793,38.35486Zm-7.294-1.86086a2.06869,2.06869,0,0,0,.29269-.92191,7.81953,7.81953,0,0,0,.071-1.02663,9.3315,9.3315,0,0,0-.07916-1.20932,2.0647,2.0647,0,0,0-.35926-1.06074,1.7468,1.7468,0,0,0-.9422-.34464,8.39978,8.39978,0,0,0-2.19211.01461,2.052,2.052,0,0,0-.97711.33,1.94589,1.94589,0,0,0-.42259,1.00919,6.64645,6.64645,0,0,0-.11326,1.17968,9.54114,9.54114,0,0,0,.06982,1.09808,2.29821,2.29821,0,0,0,.28416.99335,1.50842,1.50842,0,0,0,1.0242.3686c.43477.03816.90323.01786,1.22637.01786a8.69569,8.69569,0,0,0,1.15613-.05358A1.528,1.528,0,0,0,57.84389,36.494Z" transform="translate(0.00405 0.00379)"/><path class="cls-10" d="M62.48467,61.32167c-.10879.27929-.27036.75668-.44816,1.24463a11.03359,11.03359,0,0,1-.5456,1.308,15.08968,15.08968,0,0,1-.86832,1.36763c-.326.46806-.65154.90729-.86588,1.1947a5.76051,5.76051,0,0,0-1.16953-.19851,3.415,3.415,0,0,0-.95763.04263v-.00325l.44-.29228.44-.29228c.05684.112.095.20947.14208.28984a.43406.43406,0,0,0,.19567.18755.63475.63475,0,0,0,.438.02233,1.0058,1.0058,0,0,0,.39661-.21394.86885.86885,0,0,0,.26143-.43882,1.29711,1.29711,0,0,0,.03734-.3341.95855.95855,0,0,0-.05033-.32313,2.80592,2.80592,0,0,0-.22571-.48876l.57482-1.10742.57482-1.10742a7.45342,7.45342,0,0,0,.803-.35561A7.00909,7.00909,0,0,0,62.48467,61.32167Z" transform="translate(0.00405 0.00379)"/><path class="cls-9" d="M56.96055,48.48078a6.1011,6.1011,0,1,1-4.31521,1.787A6.08307,6.08307,0,0,1,56.96055,48.48078Zm4.0075,6.10218a4.00549,4.00549,0,1,0-1.17318,2.83432A3.99493,3.99493,0,0,0,60.96805,54.583Z" transform="translate(0.00405 0.00379)"/><path class="cls-10" d="M60.85439,62.179l-.57482,1.10742-.57482,1.10742a8.47018,8.47018,0,0,0-.559-.77739c-.25209-.32354-.53219-.66453-.72705-.88212q.13154-.01705.24113-.03369c.07307-.011.13884-.02152.19729-.03126.2452-.03735.5456-.08525.88416-.16116A8.36051,8.36051,0,0,0,60.85439,62.179Z" transform="translate(0.00405 0.00379)"/><path class="cls-9" d="M59.70475,64.39387a2.80592,2.80592,0,0,1,.22571.48876.95855.95855,0,0,1,.05033.32313,1.29711,1.29711,0,0,1-.03734.3341.86885.86885,0,0,1-.26143.43882,1.0058,1.0058,0,0,1-.39661.21394.63475.63475,0,0,1-.438-.02233.43406.43406,0,0,1-.19567-.18755c-.04708-.08037-.08524-.1778-.14208-.28984-.0211-.03735-.04384-.07713-.06941-.11894s-.054-.08566-.08647-.13113a1.86383,1.86383,0,0,0-.64992-.42908c-.26752-.12544-.53219-.2253-.63287-.27564l-.03735.01462-.03734.01461q-.039-.09255-.08485-.18552-.04566-.09316-.097-.18795a4.72133,4.72133,0,0,0-.96453-1.22109l.02111-.22733.02111-.22733a8.50187,8.50187,0,0,0,1.4265.09581,10.00328,10.00328,0,0,0,1.10011-.07957c.19486.21759.475.55858.72705.88212A8.47018,8.47018,0,0,1,59.70475,64.39387Z" transform="translate(0.00405 0.00379)"/><path class="cls-10" d="M56.96055,50.57546a4.00551,4.00551,0,1,1-2.83431,1.17318A3.99493,3.99493,0,0,1,56.96055,50.57546Zm3.18912,4.0075a3.18847,3.18847,0,1,0-.93449,2.25584A3.17916,3.17916,0,0,0,60.14967,54.583Z" transform="translate(0.00405 0.00379)"/><path class="cls-11" d="M56.96055,51.39385a3.18847,3.18847,0,1,1-2.25584.93449A3.17914,3.17914,0,0,1,56.96055,51.39385Zm1.627,3.18911a1.62576,1.62576,0,1,0-.47618,1.15086A1.62193,1.62193,0,0,0,58.58759,54.583Z" transform="translate(0.00405 0.00379)"/><path class="cls-9" d="M58.50964,65.6929l-.44.29228-.44.29228-.13152.08768-.13153.08769a4.958,4.958,0,0,0-.07185-.69782,4.4176,4.4176,0,0,0-.29837-.98767l.03734-.01461.03735-.01462c.10068.05034.36535.1502.63287.27564a1.86383,1.86383,0,0,1,.64992.42908c.03248.04547.06089.08931.08647.13113S58.48854,65.65555,58.50964,65.6929Z" transform="translate(0.00405 0.00379)"/><path class="cls-12" d="M56.96055,52.95593a1.62576,1.62576,0,1,1-1.15085.47617A1.62192,1.62192,0,0,1,56.96055,52.95593Z" transform="translate(0.00405 0.00379)"/><path class="cls-8" d="M58.20762,34.54546a7.81953,7.81953,0,0,1-.071,1.02663,2.06869,2.06869,0,0,1-.29269.92191,1.528,1.528,0,0,1-.96128.39458,8.69569,8.69569,0,0,1-1.15613.05358c-.32314,0-.7916.0203-1.22637-.01786a1.50842,1.50842,0,0,1-1.0242-.3686,2.29821,2.29821,0,0,1-.28416-.99335,9.54114,9.54114,0,0,1-.06982-1.09808,6.64645,6.64645,0,0,1,.11326-1.17968,1.94589,1.94589,0,0,1,.42259-1.00919,2.052,2.052,0,0,1,.97711-.33,8.39978,8.39978,0,0,1,2.19211-.01461,1.7468,1.7468,0,0,1,.9422.34464,2.0647,2.0647,0,0,1,.35926,1.06074A9.3315,9.3315,0,0,1,58.20762,34.54546Z" transform="translate(0.00405 0.00379)"/><path class="cls-8" d="M57.94132,27.836a11.05585,11.05585,0,0,1,.2594,1.63393c.03288.53626-.0207.98848-.2594,1.12975a2.59586,2.59586,0,0,1-1.0307.24357c-.40229.03247-.82041.02922-1.12569.02922-.31663,0-.79809.01056-1.25072-.03247a1.79861,1.79861,0,0,1-1.07778-.354,1.758,1.758,0,0,1-.20217-1.15248,7.36551,7.36551,0,0,1,.20217-1.33515c.05033-.19161.095-.40839.14451-.63s.10393-.44817.17375-.65926a8.943,8.943,0,0,1,1.03313-.20175,7.4882,7.4882,0,0,1,.98686-.0678,6.74165,6.74165,0,0,1,.88739.06252,8.9307,8.9307,0,0,1,.96047.1843,5.53406,5.53406,0,0,1,.164.559C57.85364,27.43734,57.89585,27.63463,57.94132,27.836Z" transform="translate(0.00405 0.00379)"/><path class="cls-7" d="M57.54187,38.78029a.11854.11854,0,0,1,.03369.00487.11562.11562,0,0,1,.03126.01461c-.05358.0406-.10555.082-.15548.12341s-.09783.08281-.1433.12341a.67262.67262,0,0,1,.10839-.19648A.17047.17047,0,0,1,57.54187,38.78029Z" transform="translate(0.00405 0.00379)"/><path class="cls-8" d="M57.33078,26.04007a2.59059,2.59059,0,0,1,.17658.31339,3.11923,3.11923,0,0,1,.13518.33288,8.9307,8.9307,0,0,0-.96047-.1843,6.74165,6.74165,0,0,0-.88739-.06252,7.4882,7.4882,0,0,0-.98686.0678,8.943,8.943,0,0,0-1.03313.20175,2.40939,2.40939,0,0,1,.19445-.44613,1.17828,1.17828,0,0,1,.27969-.33653,1.231,1.231,0,0,1,.6073-.25616,4.81618,4.81618,0,0,1,.71446-.02963,6.97587,6.97587,0,0,1,1.28807.06333A.66964.66964,0,0,1,57.33078,26.04007Z" transform="translate(0.00405 0.00379)"/><path class="cls-9" d="M57.36975,66.51453a3.72468,3.72468,0,0,1-.00528.55371.80161.80161,0,0,1-.14411.38809,1.20227,1.20227,0,0,1-.70067.43274,1.28781,1.28781,0,0,1-.84193-.069.882.882,0,0,1-.40391-.41245c-.09621-.18186-.17253-.40919-.28457-.68523-.04871-.11692-.10392-.24276-.16969-.37753s-.14208-.27848-.233-.43112a3.92027,3.92027,0,0,0-.78226-.84558c-.29837-.257-.585-.47131-.71162-.58984h-.01949a5.86577,5.86577,0,0,0-.13112-.83869c-.05642-.24519-.12056-.45709-.1774-.639-.07307-.24032-.15182-.45872-.229-.65235s-.15264-.36251-.21921-.50378l.20135-.20785.20135-.20784q.17049.12421.35723.24275.18633.11814.38646.22815a7.1553,7.1553,0,0,0,1.24017.53706,7.5209,7.5209,0,0,0,1.189.28132l-.02111.22733-.02111.22733a4.72133,4.72133,0,0,1,.96453,1.22109q.05115.095.097.18795.04567.09316.08485.18552a4.4176,4.4176,0,0,1,.29837.98767,4.958,4.958,0,0,1,.07185.69782l.00284.03207Z" transform="translate(0.00405 0.00379)"/><path class="cls-8" d="M54.00851,66.63469l-.0004.04384c-.00041.01462-.00122.02923-.00284.04385a1.66067,1.66067,0,0,1-.34465.84518c-.23423.34668-.61014.80133-1.1947,1.49307-.125.14939-.40839.44654-.71081.76561s-.62394.66007-.82529.89714a4.69139,4.69139,0,0,0-1.60917-1.51783,4.57925,4.57925,0,0,0-.96616-.434,4.45827,4.45827,0,0,0-1.85679-.10229,5.63306,5.63306,0,0,0-1.131.29715c-.10067.03572-.3207.10311-.58619.18389s-.57644.175-.859.26427c.1364-.18024.46765-.70472.82813-1.25924s.75019-1.13909,1.0035-1.43949A8.61838,8.61838,0,0,0,46.242,65.997c.19485-.30324.40432-.62719.57644-.84315a4.85518,4.85518,0,0,0,.70148-.4713c.19242-.15386.33937-.29188.42868-.37631a5.035,5.035,0,0,0,.7445-.87441,5.5097,5.5097,0,0,0,.41813-.74288c.0276.125.10473.42624.18389.74775s.16035.66331.19607.86954c.07307.4238.12747.7924.17375,1.14679s.08444.69458.125,1.06155c.04059.35724.07063.626.0889.82326a2.59436,2.59436,0,0,1,.01827.39458c-.013.1364-.03248.24519-.03613.34343a.51875.51875,0,0,0,.05886.2801.73049.73049,0,0,0,.37469.31989,1.71157,1.71157,0,0,0,.37225.10555,1.48522,1.48522,0,0,0,.51312.00893,2.22782,2.22782,0,0,0,.367-.09337,2.68207,2.68207,0,0,0,.274-.10717,1.866,1.866,0,0,0,.38849-.23383,1.08181,1.08181,0,0,0,.30162-.43111,6.34989,6.34989,0,0,0,.40635-1.51743c.05846-.34424.10392-.61216.13356-.85289a4.66354,4.66354,0,0,0,.03856-.6897h.00325a8.10143,8.10143,0,0,1,.60039.986A2.68114,2.68114,0,0,1,54.00851,66.63469Z" transform="translate(0.00405 0.00379)"/><path class="cls-7" d="M53.20961,38.78029a.17028.17028,0,0,1,.12544.07144.69545.69545,0,0,1,.10839.19811c-.04385-.0406-.09175-.082-.14249-.12382s-.10433-.084-.15954-.12625a.1545.1545,0,0,1,.0341-.01461A.12352.12352,0,0,1,53.20961,38.78029Z" transform="translate(0.00405 0.00379)"/><path class="cls-8" d="M53.11543,46.71735a.2078.2078,0,0,0,.071.00771.45364.45364,0,0,0,.08809-.01421,4.929,4.929,0,0,0-.44045.23464,4.405,4.405,0,0,0-.43314.298,6.78378,6.78378,0,0,0-.77008.70838c-.24236.25615-.4705.5257-.68484.78875-.10717.13153-.19566.24682-.27888.34871a2.42344,2.42344,0,0,1-.24722.26833,1.439,1.439,0,0,1-.151.12747,1.52329,1.52329,0,0,1-.18024.11285,1.29027,1.29027,0,0,1-.62963.1636,3.336,3.336,0,0,0-.78307.093,3.86321,3.86321,0,0,0-.73963.26427,2.72115,2.72115,0,0,0-1.0173.80743,2.86561,2.86561,0,0,0-.39783.80986c-.07551.22936-.11042.38849-.15426.38849h-.00325c-.03734-.00812-.05033-.121-.05277-.25047s.00568-.27564.01056-.35033c.04546-.79565.07956-1.39321.11731-1.8572a7.63588,7.63588,0,0,1,.13924-1.05587c.06333-.2728.13884-.5943.257-.95438a6.97568,6.97568,0,0,1,.51271-1.18577,3.99414,3.99414,0,0,1,.62394-.8809,1.75815,1.75815,0,0,1,.49-.35967c.11367-.05683.2387-.11772.36333-.17415s.24884-.10839.36088-.14736a3.22055,3.22055,0,0,0,.44289.04668,2.353,2.353,0,0,0,.36251-.0142A8.6439,8.6439,0,0,0,51.462,46.01425,7.33336,7.33336,0,0,0,53.11543,46.71735Z" transform="translate(0.00405 0.00379)"/><path class="cls-9" d="M53.08945,64.86477a4.66354,4.66354,0,0,1-.03856.6897c-.02964.24073-.0751.50865-.13356.85289a6.34989,6.34989,0,0,1-.40635,1.51743,1.08181,1.08181,0,0,1-.30162.43111,1.866,1.866,0,0,1-.38849.23383,2.68207,2.68207,0,0,1-.274.10717,2.22782,2.22782,0,0,1-.367.09337,1.48522,1.48522,0,0,1-.51312-.00893,1.71157,1.71157,0,0,1-.37225-.10555.73049.73049,0,0,1-.37469-.31989.51875.51875,0,0,1-.05886-.2801c.00365-.09824.02314-.207.03613-.34343a2.59436,2.59436,0,0,0-.01827-.39458c-.01827-.19729-.04831-.466-.0889-.82326-.04059-.367-.07876-.70716-.125-1.06155s-.10068-.723-.17375-1.14679c-.03572-.20623-.11691-.548-.19607-.86954s-.15629-.62272-.18389-.74775v-.00325c.0276-.05521.05115-.10717.07144-.15467s.03735-.09052.052-.12787a5.73155,5.73155,0,0,0,.38077-1.42041A4.86711,4.86711,0,0,0,49.66,60.198c-.00487-.19161-.01949-.36616-.039-.52083s-.04385-.28944-.0682-.40148l.38646-.23383.38646-.23382c.06657.10717.13964.2184.2184.33247s.16319.231.2525.34952a10.71617,10.71617,0,0,0,.71162.86223,8.10438,8.10438,0,0,0,1.21094,1.07657l-.20135.20784-.20135.20785c.06657.14127.14208.31014.21921.50378s.15588.412.229.65235c.05684.18187.121.39377.1774.639a5.86577,5.86577,0,0,1,.13112.83869c.00325.03247.00568.065.00772.09742s.00365.065.00527.09743.00244.065.00284.097S53.08945,64.83392,53.08945,64.86477Z" transform="translate(0.00405 0.00379)"/><path class="cls-9" d="M48.387,90.29324a3.43379,3.43379,0,0,1,.46156,1.00877,11.368,11.368,0,0,1,.40554,2.71619c.013.2387.03166.60567.03775.99051a8.73179,8.73179,0,0,1-.03775,1.09768,6.8746,6.8746,0,0,1-2.87978,4.21737,11.294,11.294,0,0,1-5.85618,2.3005,9.96321,9.96321,0,0,1-4.601-.77942,24.61952,24.61952,0,0,1-3.7485-2.046,12.05124,12.05124,0,0,1-1.22109-.93773c-.54316-.45547-1.24707-1.06926-2.18561-1.88765a5.10633,5.10633,0,0,1-.46278-.447,2.51636,2.51636,0,0,1-.40433-.615,2.89627,2.89627,0,0,1-.20134-1.64,7.80534,7.80534,0,0,1,.36372-1.377,8.83467,8.83467,0,0,0,.51718-2.42431,12.48571,12.48571,0,0,1,.639-2.94067c.31988-1.0441.69741-2.2733,1.25965-3.63079a24.27108,24.27108,0,0,1,2.36788-4.40045,20.33542,20.33542,0,0,1,1.40417-1.83c.51921-.60811,1.12731-1.2698,1.93758-2.15151,1.20323-1.30877,2.10524-2.29035,2.87776-3.01984a7.47587,7.47587,0,0,1,2.10077-1.50728,6.8352,6.8352,0,0,0,.71162-.399,11.477,11.477,0,0,0,1.21094-.874l.0069-.00528.00934-.00771a2.3128,2.3128,0,0,1,.29755-.11773c.14493-.05034.3276-.1096.52408-.17131.28254-.08931.59349-.18349.859-.26427s.48552-.14817.58619-.18389a5.63306,5.63306,0,0,1,1.131-.29715,4.45827,4.45827,0,0,1,1.85679.10229,4.57925,4.57925,0,0,1,.96616.434,4.69139,4.69139,0,0,1,1.60917,1.51783q.05846.09256.11407.19039.05541.098.10676.20257a4.234,4.234,0,0,1,.42219,1.79225,10.17609,10.17609,0,0,1-.13315,1.64368c-.48389,3.54472-.56427,5.17825-.65236,6.48215a24.13015,24.13015,0,0,1-.69863,4.50438,17.23389,17.23389,0,0,1-.73639,2.113C49.02755,88.47947,48.66464,89.39529,48.387,90.29324Z" transform="translate(0.00405 0.00379)"/><path class="cls-9" d="M50.42,49.35762l.00162.00163.00163.00162c-.12016.24681-.29229.57238-.48227,1.02826a12.54376,12.54376,0,0,0-.58943,1.81012c-.00812.02922-.01543.05926-.02274.09012s-.01461.06251-.02273.095h-.00325l-.04709-.013-.04709-.013c-.0958-.00163-.3621.01948-.64626.03856s-.58619.03613-.75344.02639c-.28254-.01624-.53828-.03248-.779-.0544s-.46643-.04952-.68889-.0885l.013-.07794.013-.07794c.04384,0,.07875-.15913.15426-.38849a2.86561,2.86561,0,0,1,.39783-.80986,2.72115,2.72115,0,0,1,1.0173-.80743,3.86321,3.86321,0,0,1,.73963-.26427,3.336,3.336,0,0,1,.78307-.093,1.29027,1.29027,0,0,0,.62963-.1636,1.52329,1.52329,0,0,0,.18024-.11285A1.439,1.439,0,0,0,50.42,49.35762Z" transform="translate(0.00405 0.00379)"/><path class="cls-9" d="M50.32577,58.80805l-.38646.23382-.38646.23383c.02435.112.04871.24681.0682.40148s.0341.32922.039.52083a4.86711,4.86711,0,0,1-.04466.78469,5.73155,5.73155,0,0,1-.38077,1.42041c-.01462.03735-.03167.08038-.052.12787s-.04384.09946-.07144.15467v.00325a5.5097,5.5097,0,0,1-.41813.74288,5.035,5.035,0,0,1-.7445.87441c-.08931.08443-.23626.22245-.42868.37631a4.85518,4.85518,0,0,1-.70148.4713,3.23983,3.23983,0,0,1-.78672.30974,2.299,2.299,0,0,1-.889.04425,2.08668,2.08668,0,0,1-.47212-.11935.96345.96345,0,0,1-.48916-.397,1.009,1.009,0,0,1-.12138-.56548,2.43085,2.43085,0,0,1,.07591-.46075,2.10782,2.10782,0,0,1,.16441-.44045,2.72142,2.72142,0,0,1,.1571-.26752s.13477-.207.32273-.51921.42908-.72948.6418-1.15a4.25354,4.25354,0,0,0,.29066-.81352c.09418-.34586.19485-.78429.32962-1.36885.06171-.2663.11367-.51311.151-.76561a5.81822,5.81822,0,0,0,.06332-.79972c.00163-.1234-.01786-.35155-.03937-.5671s-.04506-.41853-.05156-.4916a3.89123,3.89123,0,0,0,.72827.07672,3.48,3.48,0,0,0,.40189-.01827,3.525,3.525,0,0,0,1.09889-.38524c.35845-.18065.66941-.37307.81392-.45588a7.98506,7.98506,0,0,0,.205.82529c.0751.2456.15385.46075.22692.64261.0341.08769.10392.26062.216.49282A8.93694,8.93694,0,0,0,50.32577,58.80805Z" transform="translate(0.00405 0.00379)"/><path class="cls-8" d="M49.18587,44.90845a3.9778,3.9778,0,0,1-.50459-.11813,4.96334,4.96334,0,0,1-.55087-.20338,3.10733,3.10733,0,0,1-1.27264-1.04206,8.55578,8.55578,0,0,1-.78307-1.40011,8.04017,8.04017,0,0,1-.60445-1.52189,3.22733,3.22733,0,0,1,.02638-1.81661,4.8667,4.8667,0,0,1,.40595-.85452,5.12449,5.12449,0,0,1,.43517-.65235,10.00655,10.00655,0,0,0,.166,1.3319,11.20323,11.20323,0,0,0,.34383,1.33435,12.03731,12.03731,0,0,0,1.254,2.7032,10.66174,10.66174,0,0,0,1.88968,2.27208,2.353,2.353,0,0,1-.36251.0142A3.22055,3.22055,0,0,1,49.18587,44.90845Z" transform="translate(0.00405 0.00379)"/><path class="cls-9" d="M49.2086,52.35838l.04709.013.04709.013a9.123,9.123,0,0,0-.1847,1.0104,8.39449,8.39449,0,0,0-.05562,1.37331c.00812.22409.026.43924.05115.64465s.05765.40107.095.58618c-.14451.08281-.45547.27523-.81392.45588a3.525,3.525,0,0,1-1.09889.38524,3.48,3.48,0,0,1-.40189.01827,3.89123,3.89123,0,0,1-.72827-.07672,3.691,3.691,0,0,1-.74856-.22936,3.5403,3.5403,0,0,1-.78754-.46562,4.22446,4.22446,0,0,1-.78469-.78267,2.60939,2.60939,0,0,1-.563-1.61079,2.87991,2.87991,0,0,1,.31907-1.25559,1.35739,1.35739,0,0,1,.82083-.75141.68786.68786,0,0,1,.55411.1295,3.6919,3.6919,0,0,0,1.03395.39985c.05521.013.11042.02517.16562.03613s.11042.02071.16563.02882c.22246.039.44817.06658.68889.0885s.49647.03816.779.0544c.16725.00974.46928-.00731.75344-.02639S49.1128,52.35675,49.2086,52.35838Z" transform="translate(0.00405 0.00379)"/><path class="cls-6" d="M58.32129,44.33038a1.492,1.492,0,0,1,.16318.80581,3.78609,3.78609,0,0,1-.056.5939,4.96346,4.96346,0,0,0-1.19389-.10311,3.98728,3.98728,0,0,0-.85533.12584A8.33656,8.33656,0,0,0,55.297,46.16a.87875.87875,0,0,1-.74612.06374.76622.76622,0,0,1-.34181-.42341,2.1773,2.1773,0,0,1-.1226-.55736c.18024-.039.35643-.082.50744-.12381a3.09479,3.09479,0,0,0,.35642-.11651,4.68431,4.68431,0,0,0,.50662-.25737c.23058-.1299.56508-.32557,1.13015-.65195a4.42164,4.42164,0,0,1,.4364-.2322.82572.82572,0,0,1,.33652-.07632,1.08731,1.08731,0,0,1,.544.15467A1.28686,1.28686,0,0,1,58.32129,44.33038Z" transform="translate(0.00405 0.00379)"/></g></g></svg>