<svg xmlns="http://www.w3.org/2000/svg" viewBox="0 0 110.85 128"><defs><style>.cls-1,.cls-11,.cls-8{fill:#ff5a7c;}.cls-2,.cls-5{fill:#fff;}.cls-3{fill:#ff88a4;}.cls-4{opacity:0.33;}.cls-10,.cls-11,.cls-12,.cls-13,.cls-5,.cls-7,.cls-8,.cls-9{stroke:#15003e;}.cls-10,.cls-11,.cls-12,.cls-13,.cls-5,.cls-6,.cls-7,.cls-8,.cls-9{stroke-miterlimit:10;}.cls-11,.cls-12,.cls-5{stroke-width:0.94px;}.cls-6{stroke:#000;}.cls-6,.cls-8,.cls-9{stroke-width:0.31px;}.cls-10,.cls-12,.cls-13,.cls-7,.cls-9{fill:none;}.cls-7{stroke-width:0.63px;}.cls-10{stroke-linecap:round;stroke-width:0.47px;}.cls-13{stroke-width:0.24px;}</style></defs><g id="Hexagon"><g id="Layer_63" data-name="Layer 63"><polygon class="cls-1" points="110.85 32 110.85 96 55.43 128 11.08 102.4 10.88 102.28 0 96 0 32 55.43 0 110.85 32"/></g><g id="Layer_63-2" data-name="Layer 63"><polygon class="cls-2" points="101.44 37.43 101.44 90.57 55.43 117.13 9.41 90.57 9.41 37.43 55.43 10.87 101.44 37.43"/></g><g id="Layer_63-3" data-name="Layer 63"><path class="cls-3" d="M55.42,10.86l-46,26.57V90.56l46,26.57,46-26.57V37.43ZM99.72,89.5,55.54,115,11.36,89.5v-51L55.54,13,99.72,38.49Z" transform="translate(0 0)"/></g></g><g id="Design02"><g id="Bot01"><g id="Floor" class="cls-4"><path class="cls-1" d="M34.7,101.84l6.46-15.77c1.75-5.87,24.38-6.33,25.35-.51,14.46-.29,20.76,14.19,2.43,14.56Z" transform="translate(0 0)"/></g><g id="Legs"><path class="cls-5" d="M53.51,91.17,50.15,91a1,1,0,0,1-1-1.09,52.92,52.92,0,0,1,1.14-18.34,1,1,0,0,1,1.09-1l3.36.21a1,1,0,0,1,1,1.09A53.8,53.8,0,0,0,54.6,90.2,1,1,0,0,1,53.51,91.17Z" transform="translate(0 0)"/><path class="cls-5" d="M59.76,91.17,63.13,91a1,1,0,0,0,1-1.09A52.92,52.92,0,0,0,63,71.53a1,1,0,0,0-1.09-1l-3.36.21a1,1,0,0,0-1,1.09A53.8,53.8,0,0,1,58.67,90.2,1,1,0,0,0,59.76,91.17Z" transform="translate(0 0)"/></g><g id="Feet"><path class="cls-6" d="M54.89,89.51l-6.28.08s-2.57.71-1.92,3c.35.9,8,.59,8.61.39S54.89,89.51,54.89,89.51Z" transform="translate(0 0)"/><path class="cls-6" d="M58.38,89.51l6.28.08s2.57.71,1.91,3c-.34.9-8,.59-8.6.39S58.38,89.51,58.38,89.51Z" transform="translate(0 0)"/></g><g id="Arms"><path class="cls-5" d="M52.31,59.39a108.29,108.29,0,0,0-17.67-3.28L35.58,51a119.11,119.11,0,0,0,17.67,3.29Z" transform="translate(0 0)"/></g><g id="Hands"><path d="M35.23,50.45a6,6,0,0,0-2.18-.67,16.87,16.87,0,0,1-2.44.4c-.56-.07-2.34-.19-2.6.28s-.25,2.25,2.15,2.7c-2.58,3.54-1.77,5.54-1,6.06.87,1,5-2.82,5-2.82Z" transform="translate(0 0)"/></g><g id="Arms_copy" data-name="Arms copy"><path class="cls-5" d="M60.75,59.39a108.41,108.41,0,0,1,17.68-3.28L77.49,51a119.25,119.25,0,0,1-17.68,3.29Z" transform="translate(0 0)"/></g><g id="Hands_copy" data-name="Hands copy"><path d="M77.78,50.45A6,6,0,0,1,80,49.78a16.87,16.87,0,0,0,2.44.4c.55-.07,2.34-.19,2.6.28s.25,2.25-2.15,2.7c2.57,3.54,1.77,5.54,1,6.06-.87,1-5-2.82-5-2.82Z" transform="translate(0 0)"/></g><g id="Body"><path class="cls-5" d="M56.44,53.94h0a5.65,5.65,0,0,1,5.65,5.65v5a.69.69,0,0,1-.69.69H51.48a.69.69,0,0,1-.69-.69v-5A5.65,5.65,0,0,1,56.44,53.94Z"/><path class="cls-5" d="M51.37,67.85H61.51a.59.59,0,0,1,.59.59v0a4.75,4.75,0,0,1-4.75,4.75H55.54a4.75,4.75,0,0,1-4.75-4.75v0a.59.59,0,0,1,.59-.59Z"/><line class="cls-7" x1="58.67" y1="54.31" x2="58.67" y2="64.92"/><path class="cls-8" d="M58.67,60.11l-1.15-1.27c-.65-.65.5-1.8,1.15-1.15.65-.65,1.8.5,1.14,1.15Z" transform="translate(0 0)"/><rect class="cls-9" x="51.7" y="65.7" width="9.55" height="0.69" rx="0.35"/><rect class="cls-9" x="51.7" y="66.64" width="9.55" height="0.69" rx="0.35"/></g><g id="Mouth_copy" data-name="Mouth copy"><path class="cls-10" d="M49.41,44.52l1.22.91a.77.77,0,0,0,.93,0l.75-.56a.78.78,0,0,1,.94,0l.75.56a.77.77,0,0,0,.93,0l.75-.56a.77.77,0,0,1,.93,0l.76.56a.77.77,0,0,0,.93,0l.75-.56a.77.77,0,0,1,.93,0l.75.56a.78.78,0,0,0,.94,0l1.22-.91" transform="translate(0 0)"/></g><g id="Head"><path class="cls-5" d="M65.22,40.7h2.19a1.4,1.4,0,0,0,1.4-1.4V35.07a1.4,1.4,0,0,0-1.4-1.4H65.22Z" transform="translate(0 0)"/><path class="cls-5" d="M47.41,40.7H45.22a1.39,1.39,0,0,1-1.4-1.4V35.07a1.4,1.4,0,0,1,1.4-1.4h2.19Z" transform="translate(0 0)"/><path id="FillerMiddle" class="cls-2" d="M45.9,34.23s4.49-4.54,10.1-4.49,10.74,4.35,10.74,4.35l-1.49,8.63s-7,.56-9.1.54-8.82-.56-8.82-.56Z" transform="translate(0 0)"/><path class="cls-11" d="M56.15,42.87l-5.76-6.39c-3.27-3.27,2.49-9,5.76-5.76,3.28-3.28,9,2.48,5.76,5.76Z" transform="translate(0 0)"/><polygon id="Filler_ForeHead" class="cls-2" points="46.03 34.07 48.98 31.88 52.3 30.11 54.06 29.75 55.56 29.75 58.25 29.75 59.96 30.08 61.81 30.9 63.47 31.91 65.07 32.78 66.74 34.43 66.46 32.71 64.34 29 62.3 27.23 58.24 25.74 52.36 26.41 49.42 28.02 46.78 31.35 46.03 34.07"/><path class="cls-12" d="M56.28,25.6a10.06,10.06,0,0,0-9.82,6.45,7.05,7.05,0,0,0-.41,4.23l2.09,10.07c.15.7.26,1.41.35,2.13l.17,1.36a2,2,0,0,0,2,1.79H62a2,2,0,0,0,2-1.77L64.24,48c.08-.58.17-1.15.29-1.73L66.59,36.1a7.1,7.1,0,0,0-.46-4.29A10.16,10.16,0,0,0,56.28,25.6Z" transform="translate(0 0)"/><path class="cls-12" d="M46,34.43a13.3,13.3,0,0,1,10.29-4.64,14.5,14.5,0,0,1,10.42,4.49" transform="translate(0 0)"/><path class="cls-12" d="M47.33,42.44c0,1.09,18,1.09,18,0" transform="translate(0 0)"/><path class="cls-12" d="M48.26,46.69c.84.89,15.36.83,16.29,0" transform="translate(0 0)"/><rect class="cls-13" x="54.75" y="53.03" width="3.28" height="0.36" rx="0.18"/><rect class="cls-13" x="54.75" y="52.56" width="3.28" height="0.36" rx="0.18"/><rect class="cls-13" x="54.75" y="52.08" width="3.28" height="0.36" rx="0.18"/></g></g></g></svg>