<svg xmlns="http://www.w3.org/2000/svg" xmlns:xlink="http://www.w3.org/1999/xlink" viewBox="0 0 110.85 128"><defs><style>.cls-1{isolation:isolate;}.cls-2{fill:#0c6;}.cls-3{fill:#4c5a66;}.cls-128,.cls-4{fill:#6c0;}.cls-4{opacity:0.6;}.cls-5{fill:url(#linear-gradient);}.cls-10,.cls-107,.cls-52,.cls-6,.cls-97{fill:#fff;}.cls-7{fill:#25e899;}.cls-8{fill:none;stroke:#0e2947;stroke-linecap:round;stroke-linejoin:round;stroke-width:0.5px;}.cls-13,.cls-14,.cls-15,.cls-9{fill:#6fbfc2;}.cls-10{opacity:0.5;}.cls-11{fill:#c3ffff;}.cls-12{fill:#d7ffff;}.cls-13,.cls-58,.cls-60,.cls-64,.cls-65,.cls-66,.cls-67,.cls-74,.cls-75{opacity:0.51;}.cls-14,.cls-40{opacity:0.54;}.cls-15{opacity:0.4;}.cls-16{fill:#e0d1b4;}.cls-17{fill:#676100;}.cls-18{opacity:0.78;}.cls-19{fill:#aab600;}.cls-20{fill:#421918;}.cls-21{fill:#d4cf00;}.cls-22{fill:#8f8100;}.cls-23{fill:#dcd82f;}.cls-24{fill:#baae00;}.cls-25{fill:#dbb500;}.cls-26{fill:#5e132d;}.cls-27{fill:#f4cf00;}.cls-28{fill:#ffde00;}.cls-29,.cls-33{fill:#4c5000;}.cls-29,.cls-97{opacity:0.43;}.cls-100,.cls-105,.cls-108,.cls-114,.cls-119,.cls-120,.cls-29,.cls-44,.cls-45,.cls-56,.cls-57,.cls-70,.cls-76,.cls-84,.cls-86,.cls-94,.cls-96,.cls-99{mix-blend-mode:multiply;}.cls-115,.cls-30{fill:#fff2b8;}.cls-31{fill:#cfb1a4;}.cls-32{fill:#f1d678;}.cls-34{fill:#d8bba7;}.cls-108,.cls-35,.cls-36{fill:#c6b8ad;}.cls-35{opacity:0.77;}.cls-37{opacity:0.26;}.cls-38{fill:#797500;}.cls-39{fill:#a58d29;opacity:0.55;}.cls-41{fill:#ffffc7;}.cls-42{fill:#72d9ff;}.cls-43{fill:#6b93ff;}.cls-44,.cls-45{fill:#e82e1d;}.cls-44{opacity:0.27;}.cls-45{opacity:0.46;}.cls-46,.cls-96{fill:#51153f;}.cls-47{fill:url(#Áåçûìÿííûé_ãðàäèåíò_41);}.cls-48{fill:#ff3633;}.cls-49{fill:url(#Áåçûìÿííûé_ãðàäèåíò_41-2);}.cls-50{fill:#ffd629;}.cls-51,.cls-84{fill:#952e1d;}.cls-107,.cls-115,.cls-52,.cls-97{mix-blend-mode:soft-light;}.cls-53{fill:url(#Áåçûìÿííûé_ãðàäèåíò_41-3);}.cls-54{fill:url(#Áåçûìÿííûé_ãðàäèåíò_39);}.cls-55{fill:url(#Áåçûìÿííûé_ãðàäèåíò_83);}.cls-56,.cls-78{fill:#b3165b;}.cls-56{opacity:0.6;}.cls-57,.cls-59,.cls-99{fill:#ff7c29;}.cls-58,.cls-60,.cls-64,.cls-65,.cls-66,.cls-67,.cls-74,.cls-75{mix-blend-mode:color-dodge;}.cls-58{fill:url(#Áåçûìÿííûé_ãðàäèåíò_17);}.cls-60{fill:url(#Áåçûìÿííûé_ãðàäèåíò_17-2);}.cls-61{fill:url(#Áåçûìÿííûé_ãðàäèåíò_39-2);}.cls-62{fill:#aedf00;}.cls-105,.cls-63{fill:#b6422e;}.cls-64{fill:url(#Áåçûìÿííûé_ãðàäèåíò_17-3);}.cls-65{fill:url(#Áåçûìÿííûé_ãðàäèåíò_17-4);}.cls-66{fill:url(#Áåçûìÿííûé_ãðàäèåíò_17-5);}.cls-67{fill:url(#Áåçûìÿííûé_ãðàäèåíò_17-6);}.cls-68{fill:#ef7763;}.cls-69{fill:url(#Áåçûìÿííûé_ãðàäèåíò_50);}.cls-70,.cls-86{fill:#8da900;}.cls-71{fill:url(#Áåçûìÿííûé_ãðàäèåíò_39-3);}.cls-72{fill:url(#Áåçûìÿííûé_ãðàäèåíò_41-4);}.cls-73{fill:#590800;}.cls-74{fill:url(#Áåçûìÿííûé_ãðàäèåíò_17-7);}.cls-75{fill:url(#Áåçûìÿííûé_ãðàäèåíò_17-8);}.cls-114,.cls-119,.cls-120,.cls-76,.cls-94{opacity:0.2;}.cls-76{fill:url(#Áåçûìÿííûé_ãðàäèåíò_50-2);}.cls-77{fill:url(#Áåçûìÿííûé_ãðàäèåíò_83-2);}.cls-79{fill:url(#Áåçûìÿííûé_ãðàäèåíò_39-4);}.cls-80{fill:url(#Áåçûìÿííûé_ãðàäèåíò_50-3);}.cls-81{fill:url(#Áåçûìÿííûé_ãðàäèåíò_41-5);}.cls-82{fill:url(#Áåçûìÿííûé_ãðàäèåíò_83-3);}.cls-83{fill:url(#Áåçûìÿííûé_ãðàäèåíò_39-5);}.cls-84{opacity:0.44;}.cls-85{fill:#a41568;}.cls-86{opacity:0.36;}.cls-87{fill:url(#Áåçûìÿííûé_ãðàäèåíò_58);}.cls-88{fill:#c7c9ff;}.cls-89{fill:#861552;}.cls-90{fill:url(#Áåçûìÿííûé_ãðàäèåíò_39-6);}.cls-91{fill:url(#Áåçûìÿííûé_ãðàäèåíò_83-4);}.cls-92{fill:url(#Áåçûìÿííûé_ãðàäèåíò_41-6);}.cls-93{fill:url(#Áåçûìÿííûé_ãðàäèåíò_50-4);}.cls-94{fill:url(#Áåçûìÿííûé_ãðàäèåíò_50-5);}.cls-95{fill:#6a1543;}.cls-96{opacity:0.72;}.cls-98{fill:url(#Áåçûìÿííûé_ãðàäèåíò_39-7);}.cls-99{opacity:0.69;}.cls-100{fill:#b33b29;opacity:0.45;}.cls-101{opacity:0.19;}.cls-102{fill:#e36d1e;}.cls-103{fill:url(#Áåçûìÿííûé_ãðàäèåíò_26);}.cls-104{fill:url(#Áåçûìÿííûé_ãðàäèåíò_26-2);}.cls-105{opacity:0.33;}.cls-106{fill:#7a2941;}.cls-107{opacity:0.67;}.cls-108{opacity:0.3;}.cls-109{fill:url(#Áåçûìÿííûé_ãðàäèåíò_26-3);}.cls-110{fill:url(#Áåçûìÿííûé_ãðàäèåíò_26-4);}.cls-111{fill:url(#Áåçûìÿííûé_ãðàäèåíò_41-7);}.cls-112{fill:url(#Áåçûìÿííûé_ãðàäèåíò_50-6);}.cls-113{fill:#221925;}.cls-114{fill:url(#Áåçûìÿííûé_ãðàäèåíò_50-7);}.cls-115{opacity:0.52;}.cls-116{fill:url(#Áåçûìÿííûé_ãðàäèåíò_50-8);}.cls-117{fill:url(#Áåçûìÿííûé_ãðàäèåíò_50-9);}.cls-118{fill:url(#Áåçûìÿííûé_ãðàäèåíò_41-8);}.cls-119{fill:url(#Áåçûìÿííûé_ãðàäèåíò_50-10);}.cls-120{fill:url(#Áåçûìÿííûé_ãðàäèåíò_50-11);}.cls-121{fill:url(#Áåçûìÿííûé_ãðàäèåíò_50-12);}.cls-122{fill:url(#Áåçûìÿííûé_ãðàäèåíò_84);}.cls-123{fill:url(#Áåçûìÿííûé_ãðàäèåíò_84-2);}.cls-124{fill:url(#Áåçûìÿííûé_ãðàäèåíò_84-3);}.cls-125{fill:url(#Áåçûìÿííûé_ãðàäèåíò_84-4);}.cls-126{fill:url(#Áåçûìÿííûé_ãðàäèåíò_84-5);}.cls-127{fill:url(#Áåçûìÿííûé_ãðàäèåíò_84-6);}</style><linearGradient id="linear-gradient" x1="9.51" y1="63.71" x2="101.56" y2="63.71" gradientUnits="userSpaceOnUse"><stop offset="0" stop-color="#9f9"/><stop offset="0.52" stop-color="#063"/><stop offset="1" stop-color="#6f6"/></linearGradient><linearGradient id="Áåçûìÿííûé_ãðàäèåíò_41" x1="40.27" y1="92.09" x2="43.17" y2="92.09" gradientUnits="userSpaceOnUse"><stop offset="0" stop-color="#223b92"/><stop offset="1" stop-color="#55a7ff"/></linearGradient><linearGradient id="Áåçûìÿííûé_ãðàäèåíò_41-2" x1="40.17" y1="87.87" x2="43.07" y2="87.87" xlink:href="#Áåçûìÿííûé_ãðàäèåíò_41"/><linearGradient id="Áåçûìÿííûé_ãðàäèåíò_41-3" x1="44.24" y1="92.7" x2="54.19" y2="92.7" xlink:href="#Áåçûìÿííûé_ãðàäèåíò_41"/><linearGradient id="Áåçûìÿííûé_ãðàäèåíò_39" x1="44.24" y1="90.42" x2="54.09" y2="90.42" gradientUnits="userSpaceOnUse"><stop offset="0" stop-color="#f20032"/><stop offset="1" stop-color="#ff8661"/></linearGradient><linearGradient id="Áåçûìÿííûé_ãðàäèåíò_83" x1="49.11" y1="88.92" x2="49.11" y2="87.41" gradientUnits="userSpaceOnUse"><stop offset="0" stop-color="#ffc231"/><stop offset="1" stop-color="#fff759"/></linearGradient><linearGradient id="Áåçûìÿííûé_ãðàäèåíò_17" x1="41.17" y1="93.81" x2="41.17" y2="77.89" gradientTransform="matrix(-1, 0, 0, 1, 84.84, -0.27)" gradientUnits="userSpaceOnUse"><stop offset="0" stop-color="#ffa983"/><stop offset="1"/></linearGradient><linearGradient id="Áåçûìÿííûé_ãðàäèåíò_17-2" x1="30.68" y1="93.81" x2="30.68" y2="77.89" xlink:href="#Áåçûìÿííûé_ãðàäèåíò_17"/><linearGradient id="Áåçûìÿííûé_ãðàäèåíò_39-2" x1="30.12" y1="76.03" x2="31.43" y2="76.03" gradientTransform="matrix(-1, 0, 0, 1, 84.84, -0.27)" xlink:href="#Áåçûìÿííûé_ãðàäèåíò_39"/><linearGradient id="Áåçûìÿííûé_ãðàäèåíò_17-3" x1="35.46" y1="93.81" x2="35.46" y2="77.89" xlink:href="#Áåçûìÿííûé_ãðàäèåíò_17"/><linearGradient id="Áåçûìÿííûé_ãðàäèåíò_17-4" x1="46.03" y1="93.81" x2="46.03" y2="77.89" xlink:href="#Áåçûìÿííûé_ãðàäèåíò_17"/><linearGradient id="Áåçûìÿííûé_ãðàäèåíò_17-5" x1="51.08" y1="93.81" x2="51.08" y2="77.89" xlink:href="#Áåçûìÿííûé_ãðàäèåíò_17"/><linearGradient id="Áåçûìÿííûé_ãðàäèåíò_17-6" x1="55.95" y1="93.81" x2="55.95" y2="77.89" xlink:href="#Áåçûìÿííûé_ãðàäèåíò_17"/><linearGradient id="Áåçûìÿííûé_ãðàäèåíò_50" x1="68.34" y1="81.11" x2="74.39" y2="81.11" gradientUnits="userSpaceOnUse"><stop offset="0" stop-color="#22246f"/><stop offset="1" stop-color="#04576d"/></linearGradient><linearGradient id="Áåçûìÿííûé_ãðàäèåíò_39-3" x1="14.25" y1="68.27" x2="24.99" y2="68.27" gradientTransform="matrix(-1, 0, 0, 1, 84.84, -0.27)" xlink:href="#Áåçûìÿííûé_ãðàäèåíò_39"/><linearGradient id="Áåçûìÿííûé_ãðàäèåíò_41-4" x1="73.27" y1="71.31" x2="73.27" y2="64.69" xlink:href="#Áåçûìÿííûé_ãðàäèåíò_41"/><linearGradient id="Áåçûìÿííûé_ãðàäèåíò_17-7" x1="14.27" y1="93.81" x2="14.27" y2="72.32" xlink:href="#Áåçûìÿííûé_ãðàäèåíò_17"/><linearGradient id="Áåçûìÿííûé_ãðàäèåíò_17-8" x1="21.62" y1="93.81" x2="21.62" y2="72.22" xlink:href="#Áåçûìÿííûé_ãðàäèåíò_17"/><linearGradient id="Áåçûìÿííûé_ãðàäèåíò_50-2" x1="68.74" y1="68" x2="77.81" y2="68" xlink:href="#Áåçûìÿííûé_ãðàäèåíò_50"/><linearGradient id="Áåçûìÿííûé_ãðàäèåíò_83-2" x1="61.66" y1="93.55" x2="61.66" y2="83.14" xlink:href="#Áåçûìÿííûé_ãðàäèåíò_83"/><linearGradient id="Áåçûìÿííûé_ãðàäèåíò_39-4" x1="51.72" y1="93.55" x2="51.72" y2="83.14" xlink:href="#Áåçûìÿííûé_ãðàäèåíò_39"/><linearGradient id="Áåçûìÿííûé_ãðàäèåíò_50-3" x1="59.16" y1="88.34" x2="60.41" y2="88.34" xlink:href="#Áåçûìÿííûé_ãðàäèåíò_50"/><linearGradient id="Áåçûìÿííûé_ãðàäèåíò_41-5" x1="59.16" y1="93.55" x2="59.16" y2="83.14" xlink:href="#Áåçûìÿííûé_ãðàäèåíò_41"/><linearGradient id="Áåçûìÿííûé_ãðàäèåíò_83-3" x1="54.19" y1="93.55" x2="54.19" y2="83.14" xlink:href="#Áåçûìÿííûé_ãðàäèåíò_83"/><linearGradient id="Áåçûìÿííûé_ãðàäèåíò_39-5" x1="56.71" y1="93.55" x2="56.71" y2="83.14" xlink:href="#Áåçûìÿííûé_ãðàäèåíò_39"/><linearGradient id="Áåçûìÿííûé_ãðàäèåíò_58" x1="23.34" y1="94.56" x2="23.34" y2="84.5" gradientTransform="matrix(-1, 0, 0, 1, 84.85, 0)" gradientUnits="userSpaceOnUse"><stop offset="0" stop-color="#958b9d"/><stop offset="1" stop-color="#ffeae3"/></linearGradient><linearGradient id="Áåçûìÿííûé_ãðàäèåíò_39-6" x1="34.9" y1="76.03" x2="36.21" y2="76.03" gradientTransform="matrix(-1, 0, 0, 1, 84.84, -0.27)" xlink:href="#Áåçûìÿííûé_ãðàäèåíò_39"/><linearGradient id="Áåçûìÿííûé_ãðàäèåíò_83-4" x1="66.99" y1="78.36" x2="66.99" y2="72.76" xlink:href="#Áåçûìÿííûé_ãðàäèåíò_83"/><linearGradient id="Áåçûìÿííûé_ãðàäèåíò_41-6" x1="73.09" y1="78.39" x2="73.09" y2="72.73" xlink:href="#Áåçûìÿííûé_ãðàäèåíò_41"/><linearGradient id="Áåçûìÿííûé_ãðàäèåíò_50-4" x1="73.06" y1="76.12" x2="74.81" y2="76.12" xlink:href="#Áåçûìÿííûé_ãðàäèåíò_50"/><linearGradient id="Áåçûìÿííûé_ãðàäèåíò_50-5" x1="71.31" y1="75.56" x2="74.88" y2="75.56" xlink:href="#Áåçûìÿííûé_ãðàäèåíò_50"/><linearGradient id="Áåçûìÿííûé_ãðàäèåíò_39-7" x1="31.69" y1="84.33" x2="31.69" y2="80.25" xlink:href="#Áåçûìÿííûé_ãðàäèåíò_39"/><linearGradient id="Áåçûìÿííûé_ãðàäèåíò_26" x1="77.75" y1="83.44" x2="91.01" y2="83.44" gradientUnits="userSpaceOnUse"><stop offset="0" stop-color="#d46a00"/><stop offset="1" stop-color="#881a00"/></linearGradient><linearGradient id="Áåçûìÿííûé_ãðàäèåíò_26-2" x1="77.94" y1="85.31" x2="90.83" y2="85.31" xlink:href="#Áåçûìÿííûé_ãðàäèåíò_26"/><linearGradient id="Áåçûìÿííûé_ãðàäèåíò_26-3" x1="64.23" y1="94.03" x2="81.64" y2="94.03" xlink:href="#Áåçûìÿííûé_ãðàäèåíò_26"/><linearGradient id="Áåçûìÿííûé_ãðàäèåíò_26-4" x1="64.48" y1="96.48" x2="81.42" y2="96.48" xlink:href="#Áåçûìÿííûé_ãðàäèåíò_26"/><linearGradient id="Áåçûìÿííûé_ãðàäèåíò_41-7" x1="91.55" y1="90.08" x2="91.55" y2="86.63" xlink:href="#Áåçûìÿííûé_ãðàäèåíò_41"/><linearGradient id="Áåçûìÿííûé_ãðàäèåíò_50-6" x1="92.81" y1="90.08" x2="92.81" y2="86.63" xlink:href="#Áåçûìÿííûé_ãðàäèåíò_50"/><linearGradient id="Áåçûìÿííûé_ãðàäèåíò_50-7" x1="92.98" y1="90.03" x2="92.98" y2="87.95" xlink:href="#Áåçûìÿííûé_ãðàäèåíò_50"/><linearGradient id="Áåçûìÿííûé_ãðàäèåíò_50-8" x1="91.6" y1="90.03" x2="91.6" y2="87.92" xlink:href="#Áåçûìÿííûé_ãðàäèåíò_50"/><linearGradient id="Áåçûìÿííûé_ãðàäèåíò_50-9" x1="459.37" y1="95.72" x2="459.37" y2="89.29" gradientTransform="matrix(-1, 0, 0, 1, 485.06, -0.27)" xlink:href="#Áåçûìÿííûé_ãðàäèåíò_50"/><linearGradient id="Áåçûìÿííûé_ãðàäèåíò_41-8" x1="461.72" y1="95.72" x2="461.72" y2="89.29" gradientTransform="matrix(-1, 0, 0, 1, 485.06, -0.27)" xlink:href="#Áåçûìÿííûé_ãðàäèåíò_41"/><linearGradient id="Áåçûìÿííûé_ãðàäèåíò_50-10" x1="462.03" y1="95.62" x2="462.03" y2="91.76" gradientTransform="matrix(-1, 0, 0, 1, 485.06, -0.27)" xlink:href="#Áåçûìÿííûé_ãðàäèåíò_50"/><linearGradient id="Áåçûìÿííûé_ãðàäèåíò_50-11" x1="24.43" y1="92.11" x2="27.62" y2="92.11" xlink:href="#Áåçûìÿííûé_ãðàäèåíò_50"/><linearGradient id="Áåçûìÿííûé_ãðàäèåíò_50-12" x1="459.46" y1="95.62" x2="459.46" y2="91.69" gradientTransform="matrix(-1, 0, 0, 1, 485.06, -0.27)" xlink:href="#Áåçûìÿííûé_ãðàäèåíò_50"/><linearGradient id="Áåçûìÿííûé_ãðàäèåíò_84" x1="13.51" y1="93.42" x2="13.51" y2="78.48" gradientUnits="userSpaceOnUse"><stop offset="0" stop-color="#ffeae3"/><stop offset="1" stop-color="#958b9d"/></linearGradient><linearGradient id="Áåçûìÿííûé_ãðàäèåíò_84-2" x1="12.78" y1="78.83" x2="14.04" y2="78.83" xlink:href="#Áåçûìÿííûé_ãðàäèåíò_84"/><linearGradient id="Áåçûìÿííûé_ãðàäèåíò_84-3" x1="89.11" y1="88.92" x2="89.11" y2="78.41" xlink:href="#Áåçûìÿííûé_ãðàäèåíò_84"/><linearGradient id="Áåçûìÿííûé_ãðàäèåíò_84-4" x1="88.59" y1="78.73" x2="89.48" y2="78.73" xlink:href="#Áåçûìÿííûé_ãðàäèåíò_84"/><linearGradient id="Áåçûìÿííûé_ãðàäèåíò_84-5" x1="23.41" y1="96.67" x2="23.41" y2="77.42" xlink:href="#Áåçûìÿííûé_ãðàäèåíò_84"/><linearGradient id="Áåçûìÿííûé_ãðàäèåíò_84-6" x1="22.47" y1="77.79" x2="24.1" y2="77.79" xlink:href="#Áåçûìÿííûé_ãðàäèåíò_84"/></defs><title>parks</title><g class="cls-1"><g id="Layer_1" data-name="Layer 1"><g id="Layer_63" data-name="Layer 63"><polygon class="cls-2" points="110.85 32 110.85 96 55.43 128 11.08 102.4 10.88 102.28 0 96 0 32 55.43 0 110.85 32"/></g><polygon class="cls-3" points="101.53 37.12 101.53 90.25 55.52 116.82 9.51 90.25 9.51 37.12 55.52 10.56 101.53 37.12"/><polygon class="cls-4" points="11.24 87.57 99.84 85.59 99.84 89.19 55.66 114.92 11.48 89.19 11.24 87.57"/><path class="cls-5" d="M55.55,10.07l-46,27.3,0,53.15,46,26.82,46-26.82V36.64Zm44.3,79.38L55.67,115.19,11.49,89.45l0-51,44.2-26.23,44.18,25.5Z" transform="translate(0 -0.27)"/><path class="cls-6" d="M66.62,117.18l1.57-.9.07.12a3,3,0,0,1,.34.81,1.89,1.89,0,0,1,0,.76,2,2,0,0,1-1,1.37,2.13,2.13,0,0,1-1.69.21,2.28,2.28,0,0,1-.52-4.17,2.23,2.23,0,0,1,.93-.3,2.75,2.75,0,0,1,1.06.17l-.18.63a1.59,1.59,0,0,0-1.49,0,1.56,1.56,0,0,0-.77,1,1.6,1.6,0,0,0,.18,1.25,1.54,1.54,0,0,0,1.05.78,1.57,1.57,0,0,0,1.14-.15,1.32,1.32,0,0,0,.59-.72,1.18,1.18,0,0,0,0-.9l-.95.54Z" transform="translate(0 -0.27)"/><rect class="cls-6" x="70.21" y="112.85" width="0.66" height="4.37" transform="translate(-48.01 50.31) rotate(-29.95)"/><polygon class="cls-6" points="73.3 111.36 75.17 114.61 74.6 114.94 72.73 111.69 71.86 112.19 71.55 111.66 73.86 110.33 74.17 110.86 73.3 111.36"/><path class="cls-6" d="M78.47,108.21l.39.68a1.83,1.83,0,0,0-1.26.17,1.51,1.51,0,0,0-.74,1A1.63,1.63,0,0,0,77,111.3a1.59,1.59,0,0,0,1,.78,1.54,1.54,0,0,0,1.22-.16,1.41,1.41,0,0,0,.46-.39,1.67,1.67,0,0,0,.17-.27,3.41,3.41,0,0,0,.15-.36l.4.69a2.38,2.38,0,0,1-.87.87,2.2,2.2,0,0,1-1.71.23,2.17,2.17,0,0,1-1.37-1,2.25,2.25,0,0,1-.26-1.57,2.19,2.19,0,0,1,1.12-1.57,2.23,2.23,0,0,1,1.15-.29" transform="translate(0 -0.27)"/><path class="cls-7" d="M81.24,108a2.14,2.14,0,0,1-.2-1.71,2.24,2.24,0,0,1,1.07-1.38,2.29,2.29,0,0,1,3.1.84,2.15,2.15,0,0,1,.21,1.72,2.31,2.31,0,0,1-2.7,1.64,2.14,2.14,0,0,1-1.49-1.1m.58-.33a1.62,1.62,0,0,0,3-.35,1.7,1.7,0,0,0-1.16-2,1.54,1.54,0,0,0-1.23.16,1.56,1.56,0,0,0-.76,1,1.58,1.58,0,0,0,.17,1.24" transform="translate(0 -0.27)"/><rect class="cls-6" x="87.19" y="103.07" width="0.66" height="4.37" transform="translate(-40.88 57.52) rotate(-29.97)"/><polygon class="cls-6" points="91.11 105.44 88.78 101.39 93.21 102.69 91.7 100.06 92.27 99.73 94.58 103.75 90.16 102.46 91.68 105.11 91.11 105.44"/><line class="cls-8" x1="26.56" y1="88.53" x2="21.87" y2="88.53"/><line class="cls-8" x1="28.6" y1="88.53" x2="84.24" y2="88.53"/><polygon class="cls-9" points="54.77 70.61 55.3 82.89 55.43 85.82 56.32 85.89 56.32 85.91 57.19 85.95 58.38 86.04 58.38 86.04 59.01 86.09 59.01 86.09 59.57 86.13 59.57 86.13 60.85 86.22 60.85 86.22 61.36 86.26 61.36 86.26 62.14 86.32 62.14 86.32 63.76 86.44 63.76 57.75 54.27 59.05 54.77 70.61"/><path class="cls-10" d="M41.26,51.17s.26-2.81,2.18-2.75,3.78,2.3,3.78,2.3S48,45.81,53,46a6.55,6.55,0,0,1,6.22,4.77s3.6-1.73,5.51-1.48a2.82,2.82,0,0,1,2.34,2S71.45,50.61,73,51a9.45,9.45,0,0,1,1.81.54H35.57s-.1-.13,1.82-.64A7.08,7.08,0,0,1,41.26,51.17Z" transform="translate(0 -0.27)"/><path class="cls-11" d="M45.46,50.3l18.38,0a2.36,2.36,0,0,0-3.16-.3s-.11-4.15-2.11-4.32-3.29,3.55-3.29,3.55S54.7,46.35,53,46.78s-1.69,2.86-1.69,2.86-1.15-1.38-2-1-.3,1.36-.3,1.36S46.71,48.75,45.46,50.3Z" transform="translate(0 -0.27)"/><path class="cls-11" d="M62.35,41.48H77.56s-3.23-.77-4.07-.15c0,0-.05-2-1-2.12s-1.62,1.74-1.62,1.74-.29-1.4-1.1-1.19-.83,1.4-.83,1.4-.56-.67-1-.5-.15.67-.15.67A12.82,12.82,0,0,0,62.35,41.48Z" transform="translate(0 -0.27)"/><polygon class="cls-11" points="41.94 50.07 77.02 50 62.49 49.48 60.73 49.88 46.59 49.61 41.94 50.07"/><path class="cls-12" d="M29,43.89l57,.9.13-.29-34.64-.6s-2.92-3.11-5.65-2.48-3.45,2.16-3.45,2.16-2-3.86-4.7-3.51c-2.88.37-3.69,3.67-3.69,3.67s-.09-2.89-1.47-2.89-1.34,2.39-1.34,2.39A2.33,2.33,0,0,0,29,43.89Z" transform="translate(0 -0.27)"/><path class="cls-12" d="M11.43,52.46s.45-9.36,4-11.08S19.23,48,19.23,48s-.08-5.41,2-5.85,2.29,3.67,2.29,3.67.62-1.85,1.36-1.82c1,0,.88,2.41.88,2.41s3.12-1.55,5.09.24,1.36,6.62,1.36,6.62,1.28-2.75,2.54-2.59.85,3.57.85,3.57A3.52,3.52,0,0,1,38,53.44c1.53.3.69,2.39.69,2.39A1.54,1.54,0,0,1,40.4,55c1.28.27,1.4,1.77,1.4,1.77l38.32-2.55s-1.47-2.77-.54-3.9c1.08-1.32,3.17.8,3.17.8s-1.36-5.8.48-7.38,4.11,1.4,4.11,1.4-.21-4.81,2.2-5.79,4.54,1.78,4.54,1.78-.12-5.71,5.79-3.5h0V56.32L11,58Z" transform="translate(0 -0.27)"/><polygon class="cls-13" points="100.93 72.61 96.71 72.3 96.97 67.59 96.97 67.59 97.44 59.26 96.61 58.93 96.16 58.05 94.39 57.26 93.28 56.3 93.47 48.3 93.23 48.06 93.03 56.26 91.85 57.4 91.85 57.4 90.98 57.72 90.38 58.66 90.38 58.66 90.38 58.66 90.38 58.66 89.84 58.8 89.42 58.91 89.37 71.98 81.04 72.53 81.21 70.03 81.21 70.03 81.7 62.61 74.7 61.38 74.7 65.12 74.7 85.56 77.91 85.19 77.94 85.57 90.52 85.63 99.56 85.63 100.56 73.24 100.79 73.25 100.93 72.61"/><polygon class="cls-14" points="33.58 77.32 30.21 77.08 30.42 73.32 30.42 73.32 30.79 66.67 30.13 66.41 29.77 65.71 28.36 65.08 27.47 64.31 27.62 60.51 27.43 60.32 27.27 64.28 26.33 65.19 26.33 65.19 25.64 65.44 25.16 66.2 25.16 66.2 25.16 66.2 25.16 66.2 24.73 66.31 24.39 66.4 24.35 76.82 17.71 77.26 17.84 75.26 17.84 75.26 18.23 69.35 12.65 68.36 12.65 71.35 12.65 87.66 15.21 87.36 15.23 87.66 25.27 87.71 32.48 87.71 33.28 77.83 33.46 77.84 33.58 77.32"/><path class="cls-15" d="M50,54.46h.28V54.1H47a1.25,1.25,0,0,0-.25-.1L47,51h-.45l.06-5.86h-.21V51h-.47L46.09,54h0l-.19.08h-3v.36h.22v.73h-.34V56h.34l.34,2.9L43.63,62l.42.27h0v.39h0l0,.81h0l0,1.29-8.24-1.32-1.22.11h0l-.14-7.82h-.11l-.13,7.85L28.74,64l3.65-.31-.81-2-3.32.43-.61,2-3.33.29.19,2.07-3,.18.27.71.7,0,.1,1.33-.77,0,.17.68.74,0,0,.43h0l.3,2.83-8.91.48.63,3h0v.1h0l.44,2.12,0,.1L15.81,81h8.13l-.1-.95h0l.1,1h6.56l.56,0v0l4.87,0,8.64,0h3.58l.31-12.46h0l.19-1.05.25-5.34-.28.15L49.4,62l.25-3.06.48-2.9h.27v-.82H50ZM44.35,66.26h0V65.6h0Zm0-2.77h0l0,1.28h0Zm4.18,4.09Zm.72-13.11v.73h-.53v-.73Zm-.68,0v.73H48v-.73Zm-.68.73h0a2,2,0,0,0-.38-.73h.4Zm-2.4-.73a1.78,1.78,0,0,0-.16.22v-.22Zm-.31,0V55a2.14,2.14,0,0,0-.07.22h-.45v-.73Zm-.68,0v.73h-.53v-.73Zm-1.21,0h.53v.73h-.53Zm6.09.73v-.73h.53v.73Z" transform="translate(0 -0.27)"/><polygon class="cls-16" points="21.55 89.87 13.55 95.22 20.9 95.22 24.37 89.87 21.55 89.87"/><polygon class="cls-16" points="60.18 87.04 78.59 92.09 87.19 91.77 63.2 87.02 60.18 87.04"/><polygon class="cls-17" points="84.64 91.28 63.2 87.02 63.37 87.02 84.29 90.94 84.64 91.28"/><polygon class="cls-16" points="77.14 86.95 92.37 89.44 92.37 87 86.77 86.63 76.91 86.63 77.14 86.95"/><g class="cls-18"><path class="cls-19" d="M80.47,79.25s1.87,2,3.45,1.64a3.51,3.51,0,0,0,2.44-2.82,3,3,0,0,0,1.78,1.39c1.26.37,2.49-1.16,2.49-1.16s.73,2,2.43,2c2,0,2.47-2.9,2.47-2.9a2.61,2.61,0,0,0,2.12,1.15c1.56.12,2.79-2.78,2.79-2.78l-5.92-1.52L86,74.29Z" transform="translate(0 -0.27)"/><polygon class="cls-20" points="86.86 90.74 86.86 83.16 83.59 77.37 82.85 73.53 83.05 73.53 83.78 77.34 87.14 82.13 87.39 77.7 87.25 70.05 87.4 70.05 87.61 83.21 90.46 81.99 92.34 77.03 92.83 72.75 92.97 72.69 92.54 77.07 91.31 80.76 93.71 80.07 95.14 75.78 95.21 75.78 93.82 80.3 91.11 81.28 90.53 82.47 87.71 84.5 87.86 90.64 86.86 90.74"/><path class="cls-21" d="M100.78,74.6h0a4.31,4.31,0,0,1-.18.74,3.58,3.58,0,0,1-2,2.29c-1.86.74-3.64-1.32-3.64-1.32a1.38,1.38,0,0,1-1,1.16c-.91.17-1.43-1.87-1.43-1.87s-.4,2.61-2.57,2.34c-1.95-.24-2.23-2.91-2.23-2.91A3.2,3.2,0,0,1,87,77.29a2.15,2.15,0,0,1-2.12.34,2.51,2.51,0,0,1-.47.7c-.29.29-.85,0-.85,0s0,1.36-2.33,1.36-1.44-2.92-1.39-3.09h0a5.69,5.69,0,0,1-1.28-.09h0a3.19,3.19,0,0,1-2.41-1.62c-.67-1.4.59-2.4,1.31-2.84.18-.11.33-.18.4-.22l0,0s-2.61-3.32-1.62-5.08c1.09-1.93,3.86-1,3.86-1a1.85,1.85,0,0,1,1.15-1.84,1.72,1.72,0,0,1,1.52.34,3.34,3.34,0,0,1,.68.67h0s-.83-5.57,4.22-6a4.75,4.75,0,0,1,1.6.11h0c2.89.73,3.62,4.27,3.79,5.52,0,.16,0,.28,0,.36V65a3.6,3.6,0,0,1,2.06-.29,2.5,2.5,0,0,1,.44.13c1.23.48,1.25,2.4,1.25,2.4h.22c.76,0,3.31,0,4.51,2.07C103.05,71.72,100.89,74.47,100.78,74.6Z" transform="translate(0 -0.27)"/><path class="cls-22" d="M89.27,59c-.48-.15-3.74-1.09-5.4.57s-.43,5.23-.38,5.36h0l-.42.3a8.33,8.33,0,0,1-.26-1c-.26-1.25-.47-3.42.85-4.74C85.45,57.71,88.78,58.82,89.27,59Z" transform="translate(0 -0.27)"/><path class="cls-22" d="M89.33,59h0Z" transform="translate(0 -0.27)"/><path class="cls-23" d="M97.15,67.2h-.22s.33-2.63-.84-3.1a2.13,2.13,0,0,0-1.39,0,6.61,6.61,0,0,0-1.54.74L93,65v-.4l.12-.07A7.46,7.46,0,0,1,94.48,64a2.45,2.45,0,0,1,1.85,0C97.48,64.7,97.15,67.2,97.15,67.2Z" transform="translate(0 -0.27)"/><path class="cls-21" d="M83.56,78.31s-1.27,2.35-3.46,1.87-.26-3.6-.26-3.6l-.23-.19s-1.81,3.77.64,4a3.64,3.64,0,0,0,3.52-2Z" transform="translate(0 -0.27)"/><path class="cls-22" d="M77.89,71.78h0l-.43.23h0a6.28,6.28,0,0,1-2-4,3.35,3.35,0,0,1,1.62-3.42,3.62,3.62,0,0,0-1.42,3.27A6.43,6.43,0,0,0,77.89,71.78Z" transform="translate(0 -0.27)"/><path class="cls-21" d="M100.78,74.6s2.2-2.24,1.63-4.59a4.46,4.46,0,0,0-3.12-3,4.56,4.56,0,0,1,3.49,3.16c.72,2.88-2.19,5.15-2.19,5.15Z" transform="translate(0 -0.27)"/><path class="cls-23" d="M94,68.11s.89,4.12-2.35,5.31a6.87,6.87,0,0,1-5.41,0s.28,2.26-.57,2.26-1.35-1.07-1.35-1.07.06,2.1-1.71,2.56a3.28,3.28,0,0,1-2.77-.58h0a2.19,2.19,0,0,1-.23-.19l-1.05.09h0a3.19,3.19,0,0,1-2.41-1.62c-.67-1.4.59-2.4,1.31-2.84a6.28,6.28,0,0,1-2-4,3.35,3.35,0,0,1,1.62-3.42,3.62,3.62,0,0,0-1.42,3.27,6.43,6.43,0,0,0,2.22,3.94s-2.61-3.32-1.62-5.08c1.09-1.93,3.86-1,3.86-1a1.85,1.85,0,0,1,1.15-1.84,1.72,1.72,0,0,1,1.52.34c-.26-1.25-.47-3.42.85-4.74,1.79-1.79,5.12-.69,5.61-.51-.48-.15-3.74-1.09-5.4.57s-.43,5.23-.38,5.36h0s-.83-5.57,4.22-6a4.75,4.75,0,0,1,1.6.11h0c2.89.73,3.62,4.27,3.79,5.52A7.46,7.46,0,0,1,94.48,64l.23.17a3.52,3.52,0,0,1,.53.54,2.41,2.41,0,0,1,.56,1.53A1.74,1.74,0,0,1,94,68.11Z" transform="translate(0 -0.27)"/></g><path class="cls-22" d="M94.69,69.62a2.8,2.8,0,0,0,3.1.88c2.27-.73,1.58-4,1.58-4s.76,3.55-1.55,4.46A3.53,3.53,0,0,1,94,70.12Z" transform="translate(0 -0.27)"/><path class="cls-22" d="M83.83,70s2.11,2.64,4.51,2.08S90.5,68.7,90.5,68.7s.14,3,2.06,3.54,2.13-2.62,2.13-2.62a2.82,2.82,0,0,0,2.51.54c1.86-.8,1.53-3.83,1.53-3.83a4.68,4.68,0,0,0,2.74-4.3c0-3.6-4.24-6.07-4.24-6.07Z" transform="translate(0 -0.27)"/><polygon class="cls-20" points="89.86 89.86 87.67 67.32 87.85 67.32 89.86 85.98 91.23 63.32 91.44 63.32 89.97 86.24 90.64 89.46 91.89 89.46 93.27 86.26 92.56 63.32 92.66 63.32 93.26 77.11 94.57 63.82 94.69 63.82 93.33 77.63 93.62 86.49 92.21 89.86 89.86 89.86"/><path class="cls-24" d="M99.62,64.08c-1.1,2.55-4.2,2.36-4.2,2.36s.09,2.25-.59,2.25-1.12-1.34-1.12-1.34-.09,2.08-.91,2.08-1.49-1.75-1.49-1.75.73,5.8-1.67,5.8S86,69.83,86,69.83s-3.94,1-5.16-1.89c0-.08-.07-.16-.1-.25-.92-2.71,2.47-5.56,2.47-5.56s-3.32-1.55-2.62-3.18c.58-1.36,3.35-1.07,3.35-1.07s-3.1-4.71-1.77-7.71a3.83,3.83,0,0,1,3.29-2.06s-.34-4,1.92-4.66c1.93-.57,3.24,3.17,3.24,3.17a10.5,10.5,0,0,1,1.67-1c1.23-.61,2.88-1.07,3.94,0,1.88,1.88.59,7.21.59,7.21s1.84-1.44,2.64-.64-1.71,4.64-1.71,4.64C98.93,58,100.71,61.53,99.62,64.08Z" transform="translate(0 -0.27)"/><path class="cls-24" d="M95.42,66.44s4,.18,5.19-3.06-2.86-6.6-2.86-6.6l.21-.33s3.77,3.12,3,6.55C100.15,67.06,95.42,66.44,95.42,66.44Z" transform="translate(0 -0.27)"/><path class="cls-24" d="M90.62,46.61s2.21-2.15,4.69-2,1.91,3.8,1.91,3.8.8-4.19-1.93-4.19a8,8,0,0,0-5.07,2Z" transform="translate(0 -0.27)"/><path class="cls-24" d="M84.35,57.87s-2.91-3.28-2.91-6a4.34,4.34,0,0,1,2.22-3.81s-2.74.66-2.76,4.63c0,3,2.36,6.18,2.36,6.18Z" transform="translate(0 -0.27)"/><path class="cls-24" d="M86,69.83s-4.24,1.06-5.51-1.29.8-5,.8-5-2.55,3-1,5.91c1.34,2.52,6.47,1,6.47,1Z" transform="translate(0 -0.27)"/><path class="cls-25" d="M94.35,61.87s-.14,1.1-.82,1.1-.85-.82-.87-.92c0,.2.37,2.61-1.3,3s-2.78-1.46-2.78-1.46-1.1,5-4.74,5a6.56,6.56,0,0,1-3-.67c0-.08-.07-.16-.1-.25-.92-2.71,2.47-5.56,2.47-5.56s-3.32-1.55-2.62-3.18c.58-1.36,3.35-1.07,3.35-1.07s-3.1-4.71-1.77-7.71a3.83,3.83,0,0,1,3.29-2.06s-.34-4,1.92-4.66c1.93-.57,3.24,3.17,3.24,3.17a10.5,10.5,0,0,1,1.67-1,6.77,6.77,0,0,1-.16,2.85c.08,0,2.24-1.22,2.56.35s-2,3.06-2,3.06A4.59,4.59,0,0,1,96.74,56,5.82,5.82,0,0,1,94.35,61.87Z" transform="translate(0 -0.27)"/><path class="cls-25" d="M88.56,63.59s0,3.47-1.78,5.25c0,0,2.1-1.31,2.38-5Z" transform="translate(0 -0.27)"/><path class="cls-25" d="M92.65,51.84s3.15.37,4.2,2.72a6.75,6.75,0,0,1,.33,4.5A7.08,7.08,0,0,0,97,53.69a4.81,4.81,0,0,0-4.1-2.86Z" transform="translate(0 -0.27)"/><path class="cls-25" d="M85.33,48.14c0-.13-1-3.17,0-4.88a2.21,2.21,0,0,1,1.55-1.06,2.32,2.32,0,0,1,1.86.39c1.55,1.1,1.95,3.9,2,4l-.26,0s-.4-2.8-1.86-3.84A2.07,2.07,0,0,0,87,42.44a2,2,0,0,0-1.37.94c-1,1.62,0,4.64,0,4.68Z" transform="translate(0 -0.27)"/><path class="cls-25" d="M10.51,79.64a2.8,2.8,0,0,0,.68,2.76c1.21,1.21,4.34-.83,4.34-.83a2.65,2.65,0,0,0,1.42,1.62,1.51,1.51,0,0,0,1.64-.64A4,4,0,0,0,21,83.61a2.91,2.91,0,0,0,2.48-.87S31.12,83,32,80.68,19.39,75.3,19.39,75.3Z" transform="translate(0 -0.27)"/><polygon class="cls-26" points="18 87.94 21.41 87.97 23.67 86.19 26.61 79.27 26.49 79.27 23.58 86.02 23.5 77.03 23.39 76.97 23.39 86.08 21.34 87.66 21.19 75.71 20.91 75.71 20.97 87.67 19.26 87.67 16.32 84.77 16.23 75.71 16 75.71 16.04 84.7 13.56 75.96 13.47 75.95 15.74 84.77 18.36 87.42 18 87.94"/><path class="cls-27" d="M32,80.68c-2,2-6.48.08-6.48.08s-.31,1.64-1.8,1.64-1.72-2.77-1.74-3c0,.14,0,1.1-.69,1.28s-1.4-.57-1.4-.57-.73,2.65-2.53,2-1.83-3-1.83-3-.7,2.15-2,2.15a2.1,2.1,0,0,1-1.83-.92s-3.14.2-3.14-1.58a1.86,1.86,0,0,1,1.26-1.66h0a4.86,4.86,0,0,1,1-.33c-.57.07-1.55.11-1.55-.5,0-.87,1.54-1.17,1.54-1.17s-3.06-4-1.54-6.42,5.49-2,5.49-2-.94-1.2-.42-1.72,1.63.52,1.63.52,1.43-3.83,4.54-3.52,3.72,4.42,3.72,4.42,1-1.08,1.67-.46,0,2.17,0,2.17a13.62,13.62,0,0,1,2-.13c1.51,0,3.43.31,3.93,1.67.85,2.33-1.73,5.78-1.73,5.78S34,78.67,32,80.68Z" transform="translate(0 -0.27)"/><path class="cls-28" d="M15.95,65.5s1.07-4,5-4.3,4,5.15,4,5.15l.47-.19s-.62-6.07-4.44-5.71-5.27,4.86-5.27,4.86Z" transform="translate(0 -0.27)"/><path class="cls-27" d="M30.06,75.42S32.6,72.33,32,69.34s-5-1.92-5-1.92,4.46-1.29,5.58,1.74S30.3,76,30.3,76Z" transform="translate(0 -0.27)"/><path class="cls-28" d="M10.65,74.92a5.38,5.38,0,0,0-2.15,1c-.67.67.52,1.19.52,1.19s-.78-.56-.27-1.13,2.49-.8,2.49-.8Z" transform="translate(0 -0.27)"/><path class="cls-28" d="M14.75,66.7a7,7,0,0,0-4.69.6c-2.23,1.24-1.55,4.25-1.55,4.25a3.78,3.78,0,0,1,1-4.42c2.23-1.77,5.51-1,5.51-1Z" transform="translate(0 -0.27)"/><path class="cls-28" d="M22.83,72s.68,1.26,0,1.26a1,1,0,0,1-.93-.52s-.68,5.36-3.38,5.36-3.46-1.46-3.46-1.46-1.4,2.12-3.1,1.86a2.72,2.72,0,0,1-2.18-1.4,4.86,4.86,0,0,1,1-.33c-.57.07-1.55.11-1.55-.5,0-.87,1.54-1.17,1.54-1.17s-3.06-4-1.54-6.42,5.49-2,5.49-2-.94-1.2-.42-1.72,1.63.52,1.63.52,1.43-3.83,4.54-3.52,3.72,4.42,3.72,4.42,1-1.08,1.67-.46,0,2.17,0,2.17a13.62,13.62,0,0,1,2-.13A13.14,13.14,0,0,1,22.83,72Z" transform="translate(0 -0.27)"/><path class="cls-28" d="M22.83,72s5.68.27,7.37-.87S27.86,68,27.86,68h.37s3.55,1.67,2.69,3.15c-1,1.7-8.1,1.27-8.1,1.27Z" transform="translate(0 -0.27)"/><ellipse class="cls-29" cx="86.36" cy="90.24" rx="2.49" ry="0.16"/><polygon class="cls-30" points="87.26 90.18 86.82 89.49 85.73 89.49 84.79 90.23 87.26 90.18"/><polygon class="cls-31" points="86.82 89.49 86.12 89.7 85.63 90.21 87.26 90.18 86.82 89.49"/><polygon class="cls-32" points="85.73 89.49 86.12 89.7 86.82 89.49 85.73 89.49"/><ellipse class="cls-29" cx="63.2" cy="85.57" rx="6.06" ry="0.14"/><polygon class="cls-30" points="60.26 85.5 62.29 84.42 64.66 84.95 66.33 85.61 60.26 85.5"/><polygon class="cls-31" points="64.66 84.95 62.97 85.03 62.03 84.95 61.52 85.53 66.33 85.61 64.66 84.95"/><polygon class="cls-32" points="62.03 84.95 62.29 84.42 64.59 84.93 62.89 85.03 62.03 84.95"/><polygon class="cls-30" points="60.1 85.51 59.71 84.91 58.75 84.91 57.93 85.56 60.1 85.51"/><polygon class="cls-31" points="59.71 84.91 59.1 85.09 58.66 85.54 60.1 85.51 59.71 84.91"/><polygon class="cls-32" points="58.75 84.91 59.1 85.09 59.71 84.91 58.75 84.91"/><path class="cls-33" d="M63.93,85.88s-.69-1.77,0-2.14,1,1.07,1,1.07a.92.92,0,0,1,.59-.32.3.3,0,0,1,.3.32s1.07-.65,1.69-.32-.77,1.32-.77,1.32a1.24,1.24,0,0,1,1.48.07Z" transform="translate(0 -0.27)"/><path class="cls-33" d="M63.93,85.7a2.65,2.65,0,0,1-.48-1.56.89.89,0,0,1,.74-.85.91.91,0,0,0-.88.69c-.26.77.61,1.89.61,1.89Z" transform="translate(0 -0.27)"/><path class="cls-33" d="M66.74,85.81s1.38-1,1.09-1.52-1.76.29-1.76.29,1.15-.72,1.8-.44S67.19,85.58,66.74,85.81Z" transform="translate(0 -0.27)"/><polygon class="cls-34" points="72.43 90.4 77.85 89.93 83.85 91.21 76 91.38 72.43 90.4"/><polygon class="cls-34" points="64.72 88.29 67.61 87.91 63.2 87.02 60.18 87.04 64.72 88.29"/><polygon class="cls-35" points="69.54 89.61 74.1 89.19 73.68 89.09 69.27 89.53 69.54 89.61"/><polygon class="cls-36" points="12.15 95.24 22.15 94.78 24.1 91.78 18.12 91.25 12.15 95.24"/><polygon class="cls-34" points="18.12 91.1 23.42 91.34 24.07 90.34 18.9 90.59 18.12 91.1"/><polygon class="cls-34" points="63.27 91.67 71.33 93.77 79.56 93.72 66.42 91.64 63.27 91.67"/><g class="cls-37"><path class="cls-38" d="M40.75,71.29s2.27,2.4,4.17,2c2.52-.56,3-3.41,3-3.41A3.66,3.66,0,0,0,50,71.53c1.53.44,3-1.41,3-1.41s.88,2.42,2.93,2.42c2.36,0,3-3.51,3-3.51a3.16,3.16,0,0,0,2.56,1.39c1.89.15,3.38-3.36,3.38-3.36l-7.16-1.84-10.36.06Z" transform="translate(0 -0.27)"/><polygon class="cls-20" points="48.48 85.23 48.48 76.07 44.53 69.07 43.64 64.42 43.88 64.42 44.76 69.03 48.82 74.83 49.12 69.47 48.96 60.22 49.14 60.22 49.39 76.13 52.83 74.65 55.11 68.66 55.7 63.48 55.87 63.4 55.35 68.71 53.87 73.17 56.77 72.33 58.49 67.15 58.58 67.15 56.9 72.6 53.63 73.79 52.92 75.23 49.52 77.69 49.7 85.11 48.48 85.23"/><path class="cls-22" d="M65.32,65.66h0a5.22,5.22,0,0,1-.22.89,4.33,4.33,0,0,1-2.38,2.77c-2.25.89-4.4-1.59-4.4-1.59A1.67,1.67,0,0,1,57,69.16c-1.1.2-1.73-2.26-1.73-2.26s-.48,3.16-3.1,2.83c-2.35-.29-2.7-3.52-2.7-3.52a3.87,3.87,0,0,1-.87,2.71,2.61,2.61,0,0,1-2.56.42,3,3,0,0,1-.56.84c-.35.36-1,0-1,0s0,1.65-2.82,1.65S39.93,68.26,40,68.06h0a6.87,6.87,0,0,1-1.55-.11h0a3.86,3.86,0,0,1-2.92-2c-.8-1.69.72-2.9,1.58-3.43.22-.13.4-.22.49-.26l.06,0s-3.16-4-2-6.14C37,53.79,40.35,55,40.35,55a2.24,2.24,0,0,1,1.39-2.23,2.08,2.08,0,0,1,1.84.41,4,4,0,0,1,.83.81h0s-1-6.74,5.11-7.28a5.75,5.75,0,0,1,1.93.13h0c3.5.89,4.38,5.16,4.58,6.68,0,.19,0,.34.05.43V54a4.36,4.36,0,0,1,2.5-.35,3,3,0,0,1,.53.15c1.48.58,1.51,2.9,1.51,2.9h.26c.92-.06,4-.05,5.46,2.51C68.06,62.18,65.44,65.5,65.32,65.66Z" transform="translate(0 -0.27)"/><path class="cls-22" d="M51.4,46.79c-.58-.18-4.52-1.32-6.53.68s-.52,6.32-.46,6.49h0l-.51.36a10.08,10.08,0,0,1-.32-1.18c-.32-1.52-.56-4.14,1-5.74C46.78,45.24,50.81,46.58,51.4,46.79Z" transform="translate(0 -0.27)"/><path class="cls-22" d="M51.46,46.81h0Z" transform="translate(0 -0.27)"/><path class="cls-22" d="M60.92,56.71l-.19,0h-.08s.4-3.18-1-3.75A2.58,2.58,0,0,0,58,53a8,8,0,0,0-1.86.89l-.2.13v-.48l.15-.08a9,9,0,0,1,1.64-.67,3,3,0,0,1,2.24,0C61.33,53.69,60.92,56.71,60.92,56.71Z" transform="translate(0 -0.27)"/><path class="cls-22" d="M44.49,70.15S43,73,40.31,72.41,40,68.05,40,68.05l-.28-.23s-2.19,4.56.77,4.86a4.4,4.4,0,0,0,4.25-2.43Z" transform="translate(0 -0.27)"/><path class="cls-22" d="M37.64,62.26h0l-.52.28h0a7.6,7.6,0,0,1-2.38-4.87,4,4,0,0,1,2-4.14,4.38,4.38,0,0,0-1.71,4A7.77,7.77,0,0,0,37.64,62.26Z" transform="translate(0 -0.27)"/><path class="cls-22" d="M65.31,65.67s2.66-2.71,2-5.55-3.77-3.6-3.77-3.6a5.51,5.51,0,0,1,4.22,3.82c.87,3.48-2.64,6.23-2.64,6.23Z" transform="translate(0 -0.27)"/><path class="cls-39" d="M57.14,57.81s1.07,5-2.85,6.43a8.31,8.31,0,0,1-6.54,0S48.09,67,47.06,67s-1.64-1.3-1.64-1.3.07,2.55-2.07,3.09a4,4,0,0,1-3.35-.7h0a2.64,2.64,0,0,1-.27-.23l-1.27.11h0a3.86,3.86,0,0,1-2.92-2c-.8-1.69.72-2.9,1.58-3.43a7.6,7.6,0,0,1-2.38-4.87,4,4,0,0,1,2-4.14,4.38,4.38,0,0,0-1.71,4,7.77,7.77,0,0,0,2.68,4.77s-3.16-4-2-6.14C37,53.79,40.35,55,40.35,55a2.24,2.24,0,0,1,1.39-2.23,2.08,2.08,0,0,1,1.84.41c-.32-1.52-.56-4.14,1-5.74,2.17-2.17,6.2-.83,6.79-.62-.58-.18-4.52-1.32-6.53.68s-.52,6.32-.46,6.49h0s-1-6.74,5.11-7.28a5.75,5.75,0,0,1,1.93.13h0c3.5.89,4.38,5.16,4.58,6.68a9,9,0,0,1,1.64-.67L58,53a4.25,4.25,0,0,1,.64.65,2.92,2.92,0,0,1,.68,1.85A2.11,2.11,0,0,1,57.14,57.81Z" transform="translate(0 -0.27)"/></g><g class="cls-40"><path class="cls-22" d="M83.29,75a2.08,2.08,0,0,0,2.3.65c1.69-.54,1.18-3,1.18-3s.57,2.64-1.15,3.31a2.62,2.62,0,0,1-2.86-.6Z" transform="translate(0 -0.27)"/><path class="cls-22" d="M75.23,75.21s1.57,2,3.35,1.54,1.61-2.49,1.61-2.49.1,2.23,1.53,2.63S83.29,75,83.29,75a2.1,2.1,0,0,0,1.86.4c1.38-.6,1.14-2.84,1.14-2.84a3.48,3.48,0,0,0,2-3.19c0-2.67-3.15-4.51-3.15-4.51Z" transform="translate(0 -0.27)"/><polygon class="cls-20" points="79.7 89.91 78.08 73.17 78.21 73.17 79.7 87.03 80.72 70.2 80.88 70.2 79.79 87.22 80.28 89.61 81.21 89.61 82.24 87.24 81.71 70.2 81.79 70.2 82.23 80.44 83.2 70.57 83.29 70.57 82.28 80.83 82.5 87.41 81.45 89.91 79.7 89.91"/><path class="cls-24" d="M87,70.84a3.3,3.3,0,0,1-3.12,1.75s.07,1.67-.44,1.67-.83-1-.83-1-.07,1.54-.68,1.54-1.1-1.3-1.1-1.3.54,4.31-1.24,4.31-2.7-2.71-2.7-2.71-2.93.78-3.83-1.41l-.07-.19c-.68-2,1.83-4.13,1.83-4.13S72.31,68.23,72.82,67c.43-1,2.49-.8,2.49-.8S73,62.72,74,60.49A2.85,2.85,0,0,1,76.43,59s-.26-3,1.43-3.46c1.43-.42,2.41,2.36,2.41,2.36a7.8,7.8,0,0,1,1.24-.76c.92-.45,2.14-.8,2.93,0,1.4,1.4.44,5.35.44,5.35s1.37-1.07,2-.47-1.27,3.44-1.27,3.44C86.44,66.3,87.77,68.94,87,70.84Z" transform="translate(0 -0.27)"/><path class="cls-24" d="M83.83,72.59s3,.14,3.85-2.27-2.12-4.9-2.12-4.9l.15-.24S88.51,67.48,88,70C87.35,73,83.83,72.59,83.83,72.59Z" transform="translate(0 -0.27)"/><path class="cls-24" d="M80.27,57.86a5.27,5.27,0,0,1,3.49-1.47c1.87.14,1.42,2.82,1.42,2.82s.59-3.11-1.43-3.11A6,6,0,0,0,80,57.59Z" transform="translate(0 -0.27)"/><path class="cls-24" d="M75.61,66.22s-2.16-2.44-2.16-4.45a3.22,3.22,0,0,1,1.65-2.83s-2,.49-2,3.44A9,9,0,0,0,74.81,67Z" transform="translate(0 -0.27)"/><path class="cls-24" d="M76.84,75.1s-3.15.78-4.09-1,.6-3.68.6-3.68-1.9,2.19-.73,4.39c1,1.87,4.81.72,4.81.72Z" transform="translate(0 -0.27)"/><path class="cls-25" d="M83,69.2s-.1.81-.61.81-.63-.61-.65-.69c0,.15.27,1.94-1,2.23s-2.07-1.09-2.07-1.09-.81,3.73-3.52,3.73A4.87,4.87,0,0,1,73,73.7l-.07-.19c-.68-2,1.83-4.13,1.83-4.13S72.31,68.23,72.82,67c.43-1,2.49-.8,2.49-.8S73,62.72,74,60.49A2.85,2.85,0,0,1,76.43,59s-.4-4.82,1.28-5.32c1.43-.42,2.55,4.21,2.55,4.21a7.8,7.8,0,0,1,1.24-.76,5,5,0,0,1-.12,2.11c.06,0,1.67-.9,1.9.26s-1.52,2.27-1.52,2.27a3.41,3.41,0,0,1,3,3.05A4.32,4.32,0,0,1,83,69.2Z" transform="translate(0 -0.27)"/><path class="cls-25" d="M78.74,70.47s0,2.57-1.32,3.9a4.69,4.69,0,0,0,1.76-3.68Z" transform="translate(0 -0.27)"/><path class="cls-25" d="M81.78,61.75s2.34.28,3.12,2a5,5,0,0,1,.25,3.34,5.26,5.26,0,0,0-.14-4,3.57,3.57,0,0,0-3-2.12Z" transform="translate(0 -0.27)"/></g><polygon class="cls-41" points="54.33 74.84 53.41 76.69 53.76 76.87 53.91 83.32 53.69 76.94 53.27 76.69 54.33 74.84"/><polygon class="cls-41" points="33.91 74.58 33 76.42 33.34 76.61 33.77 93.55 33.18 76.64 32.84 76.42 33.91 74.58"/><path class="cls-29" d="M84.62,93.77c0-.4-12.79-.36-28.7-.36S27,93.37,27,93.77s8.34.38,19.88.38c-1,.05-1.6.14-1.6.28,0,.4,4.56.38,10.19.38s10.19,0,10.19-.38c0-.14-.58-.23-1.57-.28C76,94.15,84.62,94.1,84.62,93.77Z" transform="translate(0 -0.27)"/><polygon class="cls-42" points="74.67 72.98 68.27 73.08 68.27 78.52 71.11 73.47 74.66 78.58 74.67 72.98"/><polygon class="cls-43" points="68.27 78.52 68.41 78.53 71.22 73.63 71.11 73.47 68.27 78.52"/><polygon class="cls-44" points="68.27 78.52 68.41 73.82 68.94 73.28 74.66 73.34 74.67 77.47 74.67 72.98 68.27 73.08 68.27 78.52"/><polygon class="cls-45" points="71.22 73.63 71.11 73.47 70.6 74.37 70.55 74.81 71.22 73.63"/><circle class="cls-46" cx="40.51" cy="82.23" r="0.19"/><circle class="cls-46" cx="42.76" cy="80.25" r="0.19"/><circle class="cls-46" cx="40.52" cy="80.25" r="0.19"/><circle class="cls-46" cx="42.76" cy="84.13" r="0.19"/><circle class="cls-46" cx="40.52" cy="84.05" r="0.19"/><circle class="cls-46" cx="42.76" cy="86.08" r="0.19"/><circle class="cls-46" cx="40.52" cy="86.08" r="0.19"/><circle class="cls-46" cx="42.76" cy="88.02" r="0.19"/><circle class="cls-46" cx="40.52" cy="88.06" r="0.19"/><circle class="cls-46" cx="42.76" cy="89.96" r="0.19"/><circle class="cls-46" cx="40.52" cy="90.05" r="0.19"/><circle class="cls-46" cx="42.76" cy="92.24" r="0.19"/><circle class="cls-46" cx="40.52" cy="92.24" r="0.19"/><circle class="cls-46" cx="42.76" cy="82.23" r="0.19"/><polygon class="cls-46" points="42.85 92.85 42.76 92.85 42.66 78.08 42.85 78.08 42.85 92.85"/><polygon class="cls-46" points="40.62 92.85 40.43 92.85 40.52 78.08 40.62 78.08 40.62 92.85"/><polygon class="cls-47" points="40.27 92.24 43.17 92.24 43.17 91.99 40.27 91.94 40.27 92.24"/><polygon class="cls-48" points="40.16 90.05 43.07 89.98 43.07 89.76 40.16 89.76 40.16 90.05"/><polygon class="cls-49" points="40.16 88.02 43.07 88.02 43.07 87.72 40.16 87.78 40.16 88.02"/><rect class="cls-50" x="40.17" y="86.05" width="2.91" height="0.3" transform="translate(83.24 172.12) rotate(180)"/><polygon class="cls-48" points="40.16 84.05 43.07 84.13 43.07 83.84 40.16 83.84 40.16 84.05"/><rect class="cls-50" x="40.17" y="82.16" width="2.91" height="0.3" transform="translate(83.24 164.35) rotate(180)"/><rect class="cls-48" x="40.17" y="80.22" width="2.91" height="0.3" transform="translate(83.24 160.47) rotate(180)"/><polygon class="cls-51" points="53.83 77.58 44.18 77.72 44.18 78.3 53.84 78.3 53.83 77.58"/><polygon class="cls-51" points="43.69 93.55 44.07 93.55 44.07 76.5 43.26 76.5 43.69 93.55"/><polygon class="cls-46" points="44.07 76.5 44.42 76.5 44.36 93.55 44.07 93.55 44.07 76.5"/><polygon class="cls-52" points="44.07 93.55 44.07 77.32 44 93.55 44.07 93.55"/><polygon class="cls-53" points="44.24 91.94 44.24 93.46 53.75 93.41 54.19 93.41 54.13 92.12 54.13 92.05 53.57 92.04 44.24 91.94"/><polygon class="cls-54" points="44.24 89.67 44.24 91.18 54.09 91.18 54.01 89.67 54.01 89.67 44.24 89.67"/><polygon class="cls-55" points="44.24 87.41 44.24 88.92 53.16 88.83 53.97 88.82 53.91 87.52 52.99 87.51 44.24 87.41"/><polygon class="cls-52" points="44.24 87.49 53.91 87.57 53.91 87.52 44.24 87.41 44.24 87.49"/><polygon class="cls-52" points="44.24 89.67 44.24 89.76 53.28 89.77 54.01 89.77 54.01 89.67 44.24 89.67"/><polygon class="cls-52" points="44.24 91.94 44.24 92.03 53.58 92.11 54.13 92.12 54.13 92.05 53.57 92.04 44.24 91.94"/><polygon class="cls-56" points="53.27 89.67 53.28 89.77 53.32 91.18 54.09 91.18 54.01 89.67 54.01 89.67 53.27 89.67"/><polygon class="cls-57" points="53.13 87.51 53.22 88.83 53.97 88.82 53.91 87.52 53.13 87.51"/><polygon class="cls-58" points="43.94 93.55 44 77.63 43.35 77.92 43.73 93.55 43.94 93.55"/><path class="cls-51" d="M61.28,80.33a13.33,13.33,0,0,0,6.43-1.68l-.09-.16a12.93,12.93,0,0,1-9.15,1.35,12.1,12.1,0,0,1-3.83-1.54l-.1.15A12.3,12.3,0,0,0,58.44,80,13,13,0,0,0,61.28,80.33Z" transform="translate(0 -0.27)"/><polygon class="cls-59" points="39.24 77.32 44 77.25 44 76.58 41.46 71.69 38.91 76.64 39.24 77.32"/><polygon class="cls-51" points="54.17 93.55 54.55 93.55 54.55 76.5 53.75 76.5 54.17 93.55"/><polygon class="cls-50" points="41.46 71.69 41.16 71.69 38.5 76.64 38.91 76.64 41.46 71.69"/><polygon class="cls-46" points="54.55 76.5 54.91 76.5 54.84 93.55 54.55 93.55 54.55 76.5"/><polygon class="cls-52" points="54.55 93.55 54.55 77.32 54.48 93.55 54.55 93.55"/><polygon class="cls-60" points="54.48 93.55 54.48 77.63 53.84 77.92 54.21 93.55 54.48 93.55"/><polygon class="cls-61" points="54.73 76.69 53.41 76.69 54.33 74.84 54.73 76.69"/><polygon class="cls-62" points="54.62 76.69 55.2 76.69 54.33 74.84 54.62 76.69"/><polygon class="cls-46" points="53.41 76.69 53.76 76.87 53.76 77.15 54.55 77.58 54.55 76.8 54.91 76.78 55.2 76.69 54.62 76.69 53.41 76.69"/><path class="cls-51" d="M56.62,80.33a13.33,13.33,0,0,0,6.43-1.68L63,78.49a12.93,12.93,0,0,1-9.15,1.35A12.1,12.1,0,0,1,50,78.3l-.1.15A12.3,12.3,0,0,0,53.78,80,13,13,0,0,0,56.62,80.33Z" transform="translate(0 -0.27)"/><polygon class="cls-63" points="49.39 93.55 49.77 93.55 49.77 76.5 48.97 76.5 49.39 93.55"/><polygon class="cls-46" points="49.77 76.5 50.13 76.5 50.06 93.55 49.77 93.55 49.77 76.5"/><polygon class="cls-52" points="49.77 93.55 49.77 77.32 49.7 93.55 49.77 93.55"/><polygon class="cls-64" points="49.65 93.55 49.7 77.63 49.06 77.92 49.43 93.55 49.65 93.55"/><polygon class="cls-63" points="38.82 93.55 39.21 93.55 39.21 76.5 38.4 76.5 38.82 93.55"/><polygon class="cls-46" points="39.21 76.5 39.56 76.5 39.5 93.55 39.21 93.55 39.21 76.5"/><polygon class="cls-52" points="39.21 93.55 39.21 77.32 39.14 93.55 39.21 93.55"/><polygon class="cls-65" points="39.08 93.55 39.14 77.63 38.49 77.92 38.87 93.55 39.08 93.55"/><polygon class="cls-51" points="33.77 93.55 34.15 93.55 34.15 76.5 33.35 76.5 33.77 93.55"/><polygon class="cls-46" points="34.15 76.5 34.51 76.5 34.45 93.55 34.15 93.55 34.15 76.5"/><polygon class="cls-52" points="34.15 93.55 34.15 77.32 34.08 93.55 34.15 93.55"/><polygon class="cls-66" points="34.05 93.55 34.08 77.63 33.44 77.92 33.81 93.55 34.05 93.55"/><polygon class="cls-63" points="28.91 93.55 29.29 93.55 29.29 76.5 28.48 76.5 28.91 93.55"/><polygon class="cls-46" points="29.29 76.5 29.64 76.5 29.58 93.55 29.29 93.55 29.29 76.5"/><polygon class="cls-52" points="29.29 93.55 29.29 77.32 29.22 93.55 29.29 93.55"/><polygon class="cls-67" points="29.16 93.55 29.22 77.63 28.58 77.92 28.95 93.55 29.16 93.55"/><polygon class="cls-63" points="38.43 77.67 28.76 77.72 28.76 78.3 38.45 78.3 38.43 77.67"/><polygon class="cls-46" points="37.88 77.67 38.29 78.3 38.45 78.3 38.43 77.67 37.88 77.67"/><polygon class="cls-51" points="67.81 93.55 68.19 93.55 68.19 70.83 67.23 70.83 67.81 93.55"/><polygon class="cls-46" points="68.19 70.83 68.48 70.83 68.45 93.55 68.19 93.55 68.19 70.83"/><polygon class="cls-52" points="68.19 93.55 68.19 71.75 68.15 71.94 68.15 93.55 68.19 93.55"/><polygon class="cls-68" points="49.93 84.27 49.93 84.06 74.38 84.1 74.38 84.27 49.93 84.27"/><polygon class="cls-63" points="63.06 84.27 49.93 84.27 49.93 84.91 63.07 84.8 63.06 84.27"/><polygon class="cls-51" points="74.68 84.24 68.28 84.24 68.28 84.84 74.68 84.92 74.68 84.24"/><polygon class="cls-52" points="74.68 84.24 68.28 84.31 68.28 84.24 74.68 84.24"/><polygon class="cls-63" points="63.23 93.55 63.61 93.55 63.61 70.83 62.81 70.83 63.23 93.55"/><polygon class="cls-46" points="63.61 70.83 63.97 70.83 63.91 93.55 63.61 93.55 63.61 70.83"/><polygon class="cls-69" points="68.34 81.03 68.34 81.31 74.38 81.31 74.39 80.91 68.34 81.03"/><polygon class="cls-70" points="74.25 80.91 73.94 81.25 68.34 81.25 68.34 81.31 74.38 81.31 74.39 80.91 74.25 80.91"/><polygon class="cls-63" points="70.2 93.55 70.64 93.55 71.17 70.83 70.18 70.83 70.2 93.55"/><polygon class="cls-46" points="71.17 70.83 71.48 70.83 70.96 93.55 70.64 93.55 71.17 70.83"/><polygon class="cls-51" points="74.38 93.55 74.83 93.55 75.35 70.83 74.38 70.83 74.38 93.55"/><polygon class="cls-46" points="75.35 70.83 75.69 70.83 75.14 93.55 74.83 93.55 75.35 70.83"/><polygon class="cls-71" points="70.6 71.31 59.85 71.31 68.74 64.69 70.6 71.31"/><polygon class="cls-72" points="70.6 71.31 77.81 71.31 68.74 64.69 70.6 71.31"/><polygon class="cls-73" points="77.81 71.31 75.67 71.55 71.15 71.55 62.82 71.55 59.85 71.31 70.6 71.31 77.81 71.31"/><polygon class="cls-52" points="71.15 71.75 70.64 93.55 70.59 93.55 71.06 72.13 71.15 71.75"/><polygon class="cls-52" points="74.83 93.55 75.33 71.64 75.26 72.01 74.75 93.55 74.83 93.55"/><polygon class="cls-52" points="63.61 93.55 63.61 71.64 63.55 93.55 63.61 93.55"/><polygon class="cls-74" points="70.87 72.06 70.3 72.31 70.28 93.55 70.58 93.55 70.87 72.06"/><polygon class="cls-75" points="63.55 93.55 63.55 71.95 62.9 72.25 63.28 93.55 63.55 93.55"/><polygon class="cls-52" points="70.6 71.31 68.74 64.69 70.42 71.19 59.85 71.31 70.6 71.31"/><polygon class="cls-76" points="71.63 66.8 74.1 71.1 77.81 71.31 70.6 71.31 68.74 64.69 71.63 66.8"/><polygon class="cls-63" points="70.19 84.24 63.79 84.24 63.79 84.84 70.19 84.92 70.19 84.24"/><polygon class="cls-46" points="74.38 72.59 75.35 72.76 75.33 71.55 74.38 71.55 74.38 72.59"/><polygon class="cls-46" points="71.15 73 70.18 72.35 70.18 71.55 71.15 71.55 71.15 73"/><polygon class="cls-70" points="53.61 92.05 53.32 92.04 53.33 92.11 53.41 93.41 53.64 93.41 53.61 92.12 53.61 92.05"/><polygon class="cls-46" points="68.21 72.76 67.26 72.06 67.25 71.55 68.19 71.55 68.21 72.76"/><polygon class="cls-46" points="63.61 73.32 62.84 72.62 62.82 71.55 63.69 71.55 63.61 73.32"/><polygon class="cls-52" points="70.19 84.24 63.79 84.31 63.79 84.24 70.19 84.24"/><polygon class="cls-68" points="63.79 84.24 63.93 84.09 63.93 84.24 63.79 84.24"/><polygon class="cls-59" points="62.53 93.55 62.69 93.55 62.9 84.06 61.78 83.14 61.66 83.14 62.72 84.09 62.53 93.55"/><polygon class="cls-77" points="62.53 93.55 62.72 84 61.66 83.14 60.59 84 60.87 93.55 62.53 93.55"/><polygon class="cls-78" points="52.6 93.55 52.76 93.55 52.96 84.06 51.84 83.14 51.72 83.14 52.79 84.09 52.6 93.55"/><polygon class="cls-79" points="52.6 93.55 52.79 84 51.72 83.14 50.66 84 50.94 93.55 52.6 93.55"/><polygon class="cls-80" points="60.04 93.55 60.2 93.55 60.41 84.06 59.28 83.14 59.16 83.14 60.23 84.09 60.04 93.55"/><polygon class="cls-81" points="60.04 93.55 60.23 84 59.16 83.14 58.1 84 58.52 93.55 60.04 93.55"/><polygon class="cls-59" points="55.07 93.55 55.23 93.55 55.43 84.06 54.31 83.14 54.19 83.14 55.26 84.09 55.07 93.55"/><polygon class="cls-82" points="55.07 93.55 55.26 84 54.19 83.14 53.13 84 53.55 93.55 55.07 93.55"/><polygon class="cls-78" points="57.59 93.55 57.75 93.55 57.95 84.06 56.83 83.14 56.71 83.14 57.78 84.09 57.59 93.55"/><polygon class="cls-83" points="57.59 93.55 57.78 84 56.71 83.14 55.65 84 56.07 93.55 57.59 93.55"/><polygon class="cls-51" points="74.87 84.31 82.64 93.19 82.64 93.55 81.25 93.55 74.87 86.17 74.87 84.31"/><polygon class="cls-84" points="75.31 86.68 76.61 86.93 82.37 93.27 82.53 93.55 82.64 93.55 82.64 93.19 75.04 84.5 75 86.32 75.31 86.68"/><polygon class="cls-78" points="77.88 92.88 81.9 92.88 81.9 92.61 77.77 92.61 77.88 92.88"/><polygon class="cls-52" points="81.9 92.66 78.52 92.66 78.48 92.61 81.9 92.61 81.9 92.66"/><polygon class="cls-78" points="76.8 91.58 80.82 91.58 80.82 91.31 76.69 91.31 76.8 91.58"/><polygon class="cls-52" points="80.82 91.36 76.62 91.36 76.58 91.31 80.82 91.31 80.82 91.36"/><polygon class="cls-78" points="75.69 90.28 79.71 90.28 79.71 90.01 75.58 90.01 75.69 90.28"/><polygon class="cls-52" points="79.71 90.06 75.51 90.06 75.47 90.01 79.71 90.01 79.71 90.06"/><polygon class="cls-78" points="74.61 89.09 78.63 89.09 78.63 88.83 74.5 88.83 74.61 89.09"/><polygon class="cls-52" points="78.63 88.88 74.43 88.88 74.39 88.83 78.63 88.83 78.63 88.88"/><polygon class="cls-78" points="73.63 87.91 77.64 87.91 77.64 87.65 73.51 87.65 73.63 87.91"/><polygon class="cls-52" points="77.64 87.69 73.44 87.69 73.4 87.65 77.64 87.65 77.64 87.69"/><polygon class="cls-78" points="72.59 86.77 76.61 86.77 76.61 86.51 72.48 86.51 72.59 86.77"/><polygon class="cls-52" points="76.61 86.55 72.41 86.55 72.36 86.51 76.61 86.51 76.61 86.55"/><polygon class="cls-78" points="71.5 85.69 75.52 85.69 75.52 85.43 71.39 85.43 71.5 85.69"/><polygon class="cls-52" points="75.52 85.47 71.32 85.47 71.28 85.43 75.52 85.43 75.52 85.47"/><polygon class="cls-63" points="70.86 84.38 78.57 93.19 78.57 93.55 77.18 93.55 70.81 86.19 70.86 84.38"/><polygon class="cls-46" points="70.87 84.39 71.17 84.39 78.89 93.07 78.89 93.55 78.57 93.55 78.57 93.19 70.87 84.39"/><polygon class="cls-46" points="75.04 84.5 75.36 84.5 82.95 93.16 82.95 93.55 82.64 93.55 82.64 93.19 75.04 84.5"/><polygon class="cls-52" points="78.57 93.55 78.57 93.19 70.86 84.38 70.85 84.5 78.44 93.18 78.57 93.55"/><polygon class="cls-84" points="80.99 93.25 81.9 92.88 80.67 92.88 80.99 93.25"/><polygon class="cls-84" points="80.83 91.58 79.97 92.06 79.55 91.58 80.83 91.58"/><polygon class="cls-84" points="79.71 90.28 78.78 90.69 78.42 90.28 79.71 90.28"/><polygon class="cls-84" points="78.63 89.09 77.8 89.56 77.4 89.09 78.63 89.09"/><polygon class="cls-84" points="76.74 88.33 77.64 87.91 76.38 87.91 76.74 88.33"/><polygon class="cls-84" points="75.8 87.25 76.61 86.77 75.39 86.77 75.8 87.25"/><polygon class="cls-84" points="75.5 85.69 75 86.32 74.38 85.82 74.38 85.69 75.5 85.69"/><polygon class="cls-85" points="65.67 84.08 63.84 84.08 57.66 93.02 54.77 93.12 54.63 93.3 54.85 94.41 54.91 94.43 58.4 94.41 65.67 84.08"/><polygon class="cls-46" points="65.83 84.09 64 84.09 57.82 93.04 54.94 93.14 54.79 93.32 54.91 94.43 58.59 94.39 65.83 84.09"/><path class="cls-86" d="M65.84,84.36H64l-1.42,2,.07,1s-3.9,5.88-4.56,6.27a12.47,12.47,0,0,1-3.24.51l.06.53a25,25,0,0,0,3.32-.44A22.94,22.94,0,0,0,61,92.41Z" transform="translate(0 -0.27)"/><path class="cls-87" d="M59.05,94.56H55.13s2.72-.22,3.33-.82,6.32-9.24,6.32-9.24h3.11S62.06,93.83,61.41,94,59.05,94.56,59.05,94.56Z" transform="translate(0 -0.27)"/><polygon class="cls-88" points="65.83 84.09 64.77 84.23 67.88 84.23 68.48 84.09 65.83 84.09"/><polygon class="cls-85" points="69.98 84.09 67.99 84.08 61.81 93.02 58.93 93.12 58.78 93.3 59 94.41 59.06 94.43 62.55 94.41 69.98 84.09"/><polygon class="cls-89" points="69.98 84.09 68.15 84.09 61.97 93.04 59.09 93.14 58.94 93.32 59.06 94.43 62.72 94.43 69.98 84.09"/><polygon class="cls-46" points="55.13 94.29 55.2 94.44 59 94.41 58.98 94.29 55.13 94.29"/><polygon class="cls-52" points="63.79 85.71 64.88 88.57 63.07 91.24 61.7 88.83 63.79 85.71"/><polygon class="cls-52" points="61.5 89.13 62.9 91.44 62.81 91.57 61.24 89.52 61.5 89.13"/><polygon class="cls-52" points="68.15 84.09 61.97 93.04 59.09 93.14 58.94 93.32 59.06 94.43 59 93.3 59.13 93.16 62 93.11 68.28 84.14 69.98 84.09 68.15 84.09"/><polygon class="cls-63" points="69.6 67.22 65.14 67.22 68.75 64.46 69.6 67.22"/><polygon class="cls-26" points="69.6 67.22 72.53 67.22 68.75 64.46 69.6 67.22"/><polygon class="cls-73" points="72.53 67.22 72.31 67.29 69.65 67.36 65.26 67.29 65.14 67.22 69.6 67.22 72.53 67.22"/><polygon class="cls-52" points="68.75 64.46 69.56 67.09 68.67 64.52 68.75 64.46"/><polygon class="cls-90" points="49.95 76.69 48.64 76.69 49.55 74.84 49.95 76.69"/><polygon class="cls-62" points="49.84 76.69 50.41 76.69 49.55 74.84 49.84 76.69"/><polygon class="cls-46" points="48.64 76.69 48.98 76.87 48.98 77.15 49.77 77.58 49.77 76.8 50.13 76.78 50.41 76.69 49.84 76.69 48.64 76.69"/><polygon class="cls-42" points="29.46 76.42 28.15 76.42 29.06 74.58 29.46 76.42"/><polygon class="cls-48" points="29.35 76.42 29.93 76.42 29.06 74.58 29.35 76.42"/><polygon class="cls-46" points="28.15 76.42 28.49 76.61 28.5 76.88 29.32 77.32 29.32 76.53 29.64 76.52 29.93 76.42 29.35 76.42 28.15 76.42"/><polygon class="cls-42" points="34.32 76.42 33 76.42 33.91 74.58 34.32 76.42"/><polygon class="cls-48" points="34.2 76.42 34.78 76.42 33.91 74.58 34.2 76.42"/><polygon class="cls-46" points="33 76.42 33.34 76.61 33.35 76.88 34.18 77.32 34.18 76.53 34.49 76.52 34.78 76.42 34.2 76.42 33 76.42"/><polygon class="cls-91" points="70.19 72.76 63.79 72.87 63.79 78.3 66.63 73.25 70.18 78.36 70.19 72.76"/><polygon class="cls-59" points="63.79 78.3 63.93 78.31 66.74 73.41 66.63 73.25 63.79 78.3"/><polygon class="cls-44" points="63.79 78.3 63.93 73.6 64.13 72.94 70.18 73.12 70.19 77.25 70.19 72.76 63.79 72.87 63.79 78.3"/><polygon class="cls-45" points="66.74 73.41 66.63 73.25 66.12 74.16 66.06 74.59 66.74 73.41"/><polygon class="cls-92" points="74.81 78.39 74.88 72.91 71.44 72.73 71.31 78.39 73.23 73.86 74.81 78.39"/><polygon class="cls-93" points="74.81 78.39 74.52 78.39 73.06 74.27 73.23 73.86 74.81 78.39"/><polygon class="cls-70" points="73.24 74.79 73.71 75.24 73.23 73.86 73.06 74.27 73.24 74.79"/><polygon class="cls-94" points="74.88 72.91 71.84 72.81 71.6 77.7 71.31 78.39 71.44 72.73 74.88 72.91"/><polygon class="cls-63" points="49 77.58 39.35 77.72 39.35 78.3 49.01 78.3 49 77.58"/><path class="cls-46" d="M47,84.5a1.2,1.2,0,1,1-1.2,1.2A1.2,1.2,0,0,1,47,84.5Zm0,2a.81.81,0,1,0-.81-.81A.81.81,0,0,0,47,86.51Z" transform="translate(0 -0.27)"/><path class="cls-89" d="M46.73,84.5a1.2,1.2,0,1,1-1.2,1.2A1.2,1.2,0,0,1,46.73,84.5Zm0,2a.81.81,0,1,0-.81-.81A.81.81,0,0,0,46.73,86.51Z" transform="translate(0 -0.27)"/><rect class="cls-46" x="46.79" y="78.56" width="0.12" height="5.94" transform="translate(93.7 162.8) rotate(180)"/><path class="cls-95" d="M45.1,84.5a1.2,1.2,0,1,1-1.2,1.2A1.2,1.2,0,0,1,45.1,84.5Zm0,2a.81.81,0,1,0-.81-.81A.81.81,0,0,0,45.1,86.51Z" transform="translate(0 -0.27)"/><path class="cls-85" d="M44.86,84.5a1.2,1.2,0,1,1-1.2,1.2A1.2,1.2,0,0,1,44.86,84.5Zm0,2A.81.81,0,1,0,44,85.7.81.81,0,0,0,44.86,86.51Z" transform="translate(0 -0.27)"/><rect class="cls-46" x="44.92" y="78.56" width="0.12" height="5.94" transform="translate(89.96 162.8) rotate(180)"/><polygon class="cls-46" points="48.41 77.59 48.88 78.3 49.01 78.3 49 77.58 48.41 77.59"/><polygon class="cls-46" points="53.79 78.3 53.77 77.58 53.04 77.59 53.46 78.3 53.79 78.3"/><rect class="cls-46" x="35.58" y="78.57" width="0.14" height="7.63" transform="translate(71.29 164.5) rotate(180)"/><polygon class="cls-46" points="34.98 85.49 36.23 85.49 35.87 86.06 34.98 85.49"/><path class="cls-46" d="M36.12,85.75a2.8,2.8,0,0,1,0,5.53,2.8,2.8,0,0,1,0-5.53ZM36,90a1.48,1.48,0,0,0,0-2.93h0a1.3,1.3,0,0,0-1.15,1,1.7,1.7,0,0,0-.07.49A1.38,1.38,0,0,0,36,90Z" transform="translate(0 -0.27)"/><polygon class="cls-46" points="36.11 91.02 35.1 91.02 35.29 90.75 36.19 90.75 36.11 91.02"/><path class="cls-96" d="M33.93,87.52l.93.51a1.3,1.3,0,0,1,1.15-1c-.08-.16-.3-.4-1-.34C34,86.79,33.93,87.52,33.93,87.52Z" transform="translate(0 -0.27)"/><path class="cls-89" d="M32.84,87.67a2.3,2.3,0,0,1,4.54,0,3.14,3.14,0,0,1,.1.8,2.59,2.59,0,0,1-2.38,2.76,2.59,2.59,0,0,1-2.38-2.76A3.14,3.14,0,0,1,32.84,87.67ZM35,90a1.38,1.38,0,0,0,1.26-1.47,1.73,1.73,0,0,0,0-.38,1.23,1.23,0,0,0-2.45.05,1.71,1.71,0,0,0,0,.33A1.38,1.38,0,0,0,35,90Z" transform="translate(0 -0.27)"/><path class="cls-97" d="M32.84,87.67a2.56,2.56,0,0,0,1,.52,1.23,1.23,0,0,1,2.45-.05,5.94,5.94,0,0,0,1.13-.42,2.3,2.3,0,0,0-4.54,0Z" transform="translate(0 -0.27)"/><polygon class="cls-46" points="36.27 88.51 37.46 88.51 37.44 88.7 36.26 88.54 36.27 88.51"/><path class="cls-46" d="M35.35,91.27,35.28,90l-.17,0L35,91.27A1.79,1.79,0,0,0,35.35,91.27Z" transform="translate(0 -0.27)"/><polygon class="cls-46" points="33.92 88.89 32.88 89.24 32.9 89.32 33.92 88.93 33.92 88.89"/><polygon class="cls-98" points="33.77 84.33 33.77 80.25 29.64 80.25 29.62 84.33 31.14 84.33 31.69 83.06 32.27 84.33 33.77 84.33"/><polygon class="cls-78" points="32.27 84.33 32.03 84.33 31.58 83.33 31.69 83.06 32.27 84.33"/><polygon class="cls-50" points="33.92 91.07 33.92 92.69 29.58 92.77 29.59 91.02 33.92 91.07"/><polygon class="cls-99" points="33.83 91.07 33.8 92.69 33.92 92.69 33.92 91.07 33.83 91.07"/><polygon class="cls-100" points="33.24 84.33 33.6 80.44 30.86 80.25 33.77 80.25 33.77 84.33 33.24 84.33"/><polygon class="cls-52" points="29.59 91.02 33.92 91.07 33.92 91.13 29.59 91.13 29.59 91.02"/><polygon class="cls-48" points="67.71 81.38 67.71 81.03 63.93 81.03 63.93 81.47 67.71 81.38"/><polygon class="cls-78" points="64.23 81.03 64.23 81.4 67.7 81.31 67.71 81.38 63.93 81.47 63.93 81.03 64.23 81.03"/><polygon class="cls-41" points="59.85 71.31 65.26 67.29 65.14 67.22 68.75 64.46 64.97 67.29 65 67.36 59.85 71.31"/><polygon class="cls-41" points="62.84 72.76 63.07 84.09 62.96 84.09 62.84 72.76"/><polygon class="cls-41" points="54.85 94.41 54.63 93.3 54.77 93.12 57.66 93.02 63.84 84.08 65.67 84.08 63.72 84 57.58 92.94 54.79 93.02 54.54 93.3 54.85 94.41"/><polygon class="cls-41" points="29.06 74.58 28.15 76.42 28.49 76.61 28.95 93.55 28.36 76.64 28.04 76.5 29.06 74.58"/><polygon class="cls-41" points="41.16 71.69 38.58 76.5 38.4 76.5 38.82 93.55 38.26 76.42 38.5 76.32 41.16 71.69"/><polygon class="cls-41" points="49.55 74.84 48.64 76.69 48.98 76.87 49.43 93.55 48.87 76.94 48.48 76.69 49.55 74.84"/><polygon class="cls-41" points="51.72 83.14 50.66 84 50.94 93.55 50.55 83.98 51.72 83.14"/><polygon class="cls-41" points="54.19 83.14 53.13 84 53.55 93.55 53.05 84 54.19 83.14"/><polygon class="cls-41" points="56.71 83.14 55.65 84 56.04 92.85 55.57 83.94 56.71 83.14"/><polygon class="cls-41" points="59.16 83.14 58.1 84 58.41 91.02 58.2 84.06 59.16 83.14"/><polygon class="cls-41" points="61.66 83.14 60.59 84 60.71 87.92 60.66 84.06 61.66 83.14"/><ellipse class="cls-29" cx="31.69" cy="95.51" rx="9.74" ry="0.16"/><path class="cls-33" d="M95.67,92.35l-12.8,0A1.56,1.56,0,0,1,84,91.13c1-.28,1.6.84,1.6.84s.12-2.72,1.6-3.32,1.16,3.15,1.16,3.15.13-.8,1.37-1.1,1.56,1.2,1.56,1.2a1.46,1.46,0,0,1,.85-.39c.55-.07.54.54.54.54A3.56,3.56,0,0,1,95.67,92.35Z" transform="translate(0 -0.27)"/><path class="cls-33" d="M85.59,92s-.49-1.37-1.47-1.2-1.2,1.36-1.2,1.36.18-1.27,1.25-1.45a1.46,1.46,0,0,1,1.51.92Z" transform="translate(0 -0.27)"/><path class="cls-33" d="M88.36,91.8a1.89,1.89,0,0,1,1.76-1.29c1.36,0,1.25,1.47,1.25,1.47l.13-.24s-.09-1.5-1.34-1.43a2.4,2.4,0,0,0-1.86,1.28Z" transform="translate(0 -0.27)"/><path class="cls-33" d="M92.68,92.05a2.91,2.91,0,0,1,1.5-.92,1.43,1.43,0,0,1,1.31.67,1.53,1.53,0,0,0-1.31-.47,2.55,2.55,0,0,0-1.27.83Z" transform="translate(0 -0.27)"/><path class="cls-33" d="M86.33,89.4s.71-1.35,2-1.06a2.18,2.18,0,0,0-1.1.47A3.16,3.16,0,0,1,86.33,89.4Z" transform="translate(0 -0.27)"/><ellipse class="cls-29" cx="39.44" cy="96.35" rx="8.51" ry="0.16"/><path class="cls-25" d="M31.66,96.62l15.25-.06A2,2,0,0,0,45.58,95c-1.16-.37-1.91,1.11-1.91,1.11s-.14-3.56-1.91-4.35-1.39,4.13-1.39,4.13-.15-1-1.63-1.44S36.88,96,36.88,96a1.69,1.69,0,0,0-1-.51c-.66-.09-.65.71-.65.71A3.9,3.9,0,0,0,31.66,96.62Z" transform="translate(0 -0.27)"/><path class="cls-25" d="M43.67,96.12s.59-1.79,1.76-1.57,1.43,1.78,1.43,1.78-.22-1.67-1.49-1.9-1.8,1.21-1.8,1.21Z" transform="translate(0 -0.27)"/><path class="cls-25" d="M40.38,95.9a2.33,2.33,0,0,0-2.09-1.69c-1.61,0-1.49,1.93-1.49,1.93l-.16-.31s.1-2,1.6-1.88a2.92,2.92,0,0,1,2.21,1.68Z" transform="translate(0 -0.27)"/><path class="cls-25" d="M35.23,96.23A3.46,3.46,0,0,0,33.44,95a1.68,1.68,0,0,0-1.56.87,1.75,1.75,0,0,1,1.56-.61,3.05,3.05,0,0,1,1.51,1.09Z" transform="translate(0 -0.27)"/><path class="cls-25" d="M42.79,92.75s-.85-1.77-2.34-1.39a2.47,2.47,0,0,1,1.32.61A3.76,3.76,0,0,0,42.79,92.75Z" transform="translate(0 -0.27)"/><path class="cls-33" d="M26.86,95.47s-.75-4.46,1.59-6.39a1.68,1.68,0,0,1,1.62-.5c.9.33,1.19,1.78,1.2,1.84l-.13,0S30.86,89,30,88.71a1.57,1.57,0,0,0-1.5.48C26.24,91.06,27,95.4,27,95.45Z" transform="translate(0 -0.27)"/><path class="cls-25" d="M40.56,96.4c0-.13-.84-3.1,0-4.46a1.27,1.27,0,0,1,.83-.61,1.11,1.11,0,0,1,1,.21c1.07.86,1.08,3.66,1.08,3.78h-.13s0-2.86-1-3.68a1,1,0,0,0-.87-.19,1.14,1.14,0,0,0-.74.55c-.78,1.31,0,4.32,0,4.36Z" transform="translate(0 -0.27)"/><path class="cls-33" d="M34.41,89.22l-13.3,0A1.62,1.62,0,0,1,22.27,88c1-.29,1.66.88,1.66.88s.13-2.82,1.67-3.45,1.21,3.27,1.21,3.27.13-.83,1.42-1.14,1.62,1.25,1.62,1.25a1.51,1.51,0,0,1,.88-.4c.58-.07.56.56.56.56A3.7,3.7,0,0,1,34.41,89.22Z" transform="translate(0 -0.27)"/><path class="cls-33" d="M23.93,88.83s-.51-1.42-1.53-1.24S21.16,89,21.16,89s.19-1.32,1.3-1.51a1.52,1.52,0,0,1,1.57,1Z" transform="translate(0 -0.27)"/><path class="cls-33" d="M26.81,88.65a2,2,0,0,1,1.83-1.34c1.41,0,1.3,1.53,1.3,1.53l.14-.25S30,87,28.68,87.09a2.5,2.5,0,0,0-1.93,1.33Z" transform="translate(0 -0.27)"/><path class="cls-33" d="M31.3,88.91a3,3,0,0,1,1.56-1,1.49,1.49,0,0,1,1.36.69,1.59,1.59,0,0,0-1.36-.48,2.64,2.64,0,0,0-1.32.86Z" transform="translate(0 -0.27)"/><path class="cls-33" d="M24.71,86.16s.74-1.41,2-1.1a2.27,2.27,0,0,0-1.15.49A3.29,3.29,0,0,1,24.71,86.16Z" transform="translate(0 -0.27)"/><ellipse class="cls-29" cx="42.58" cy="100.21" rx="13.11" ry="0.22"/><path class="cls-33" d="M61.88,100.56l-31.44-.11a3.84,3.84,0,0,1,2.75-2.88c2.4-.69,3.93,2.07,3.93,2.07s.3-6.67,3.94-8.15,2.86,7.73,2.86,7.73.31-2,3.36-2.7,3.84,3,3.84,3a3.58,3.58,0,0,1,2.08-1c1.36-.17,1.33,1.33,1.33,1.33S58.74,98.31,61.88,100.56Z" transform="translate(0 -0.27)"/><path class="cls-33" d="M37.12,99.64s-1.21-3.35-3.62-2.94S30.56,100,30.56,100s.45-3.13,3.08-3.56,3.72,2.27,3.72,2.27Z" transform="translate(0 -0.27)"/><path class="cls-33" d="M43.92,99.22A4.65,4.65,0,0,1,48.23,96c3.33,0,3.07,3.61,3.07,3.61l.33-.59s-.21-3.68-3.3-3.52-4.56,3.15-4.56,3.15Z" transform="translate(0 -0.27)"/><path class="cls-33" d="M38.95,93.33s1.74-3.32,4.82-2.6a5.36,5.36,0,0,0-2.71,1.15A7.77,7.77,0,0,1,38.95,93.33Z" transform="translate(0 -0.27)"/><ellipse class="cls-29" cx="54.2" cy="101.12" rx="11.45" ry="0.22"/><path class="cls-25" d="M43.73,101.39l20.53-.08a2.71,2.71,0,0,0-1.8-2.07c-1.56-.5-2.57,1.49-2.57,1.49s-.2-4.79-2.57-5.86-1.87,5.55-1.87,5.55-.2-1.41-2.2-1.94-2.51,2.12-2.51,2.12a2.27,2.27,0,0,0-1.36-.69c-.89-.12-.87,1-.87,1S45.77,99.77,43.73,101.39Z" transform="translate(0 -0.27)"/><path class="cls-25" d="M59.89,100.73s.79-2.41,2.36-2.11S64.18,101,64.18,101s-.29-2.25-2-2.56-2.43,1.63-2.43,1.63Z" transform="translate(0 -0.27)"/><path class="cls-25" d="M55.46,100.42a3.14,3.14,0,0,0-2.82-2.28c-2.17,0-2,2.59-2,2.59l-.21-.42s.14-2.65,2.15-2.53a3.93,3.93,0,0,1,3,2.27Z" transform="translate(0 -0.27)"/><path class="cls-25" d="M48.53,100.87a4.66,4.66,0,0,0-2.41-1.62,2.27,2.27,0,0,0-2.1,1.18,2.35,2.35,0,0,1,2.1-.82,4.11,4.11,0,0,1,2,1.47Z" transform="translate(0 -0.27)"/><path class="cls-25" d="M58.7,96.19s-1.14-2.39-3.15-1.87a3.32,3.32,0,0,1,1.77.83A5.06,5.06,0,0,0,58.7,96.19Z" transform="translate(0 -0.27)"/><path class="cls-33" d="M37.27,99.85c0-.06-1-6,2.14-8.6a2.27,2.27,0,0,1,2.18-.67c1.22.44,1.6,2.39,1.61,2.47l-.17,0s-.38-1.94-1.5-2.34a2.11,2.11,0,0,0-2,.64c-3.08,2.53-2.09,8.37-2.08,8.43Z" transform="translate(0 -0.27)"/><path class="cls-25" d="M55.71,101.1c0-.17-1.13-4.18,0-6a1.7,1.7,0,0,1,1.11-.83,1.49,1.49,0,0,1,1.32.28c1.44,1.15,1.46,4.93,1.46,5.09h-.17s0-3.85-1.39-5a1.33,1.33,0,0,0-1.17-.25,1.54,1.54,0,0,0-1,.75c-1.05,1.76,0,5.82.06,5.86Z" transform="translate(0 -0.27)"/><ellipse class="cls-29" cx="60.01" cy="104.37" rx="14.46" ry="0.33"/><polygon class="cls-30" points="67.01 104.22 62.16 101.64 56.5 102.9 52.53 104.48 67.01 104.22"/><polygon class="cls-31" points="56.5 102.9 60.55 103.09 62.8 102.9 64.01 104.27 52.53 104.48 56.5 102.9"/><polygon class="cls-32" points="62.8 102.9 62.16 101.64 56.67 102.86 60.73 103.09 62.8 102.9"/><polygon class="cls-30" points="67.4 104.24 68.33 102.81 70.61 102.81 72.57 104.35 67.4 104.24"/><polygon class="cls-31" points="68.33 102.81 69.78 103.23 70.82 104.31 67.4 104.24 68.33 102.81"/><polygon class="cls-32" points="70.61 102.81 69.78 103.23 68.33 102.81 70.61 102.81"/><path class="cls-33" d="M58.28,104.75s1.64-4.23,0-5.11-2.38,2.55-2.38,2.55a2.21,2.21,0,0,0-1.4-.77.72.72,0,0,0-.72.77s-2.56-1.56-4-.77,1.83,3.16,1.83,3.16-1.36-1.18-3.53.17Z" transform="translate(0 -0.27)"/><path class="cls-33" d="M58.28,104.31a6.33,6.33,0,0,0,1.14-3.71,2.13,2.13,0,0,0-1.77-2,2.16,2.16,0,0,1,2.09,1.66c.62,1.85-1.46,4.52-1.46,4.52Z" transform="translate(0 -0.27)"/><path class="cls-33" d="M51.56,104.58s-3.3-2.46-2.6-3.62,4.19.7,4.19.7-2.75-1.72-4.3-1.06S50.48,104,51.56,104.58Z" transform="translate(0 -0.27)"/><g class="cls-101"><polygon class="cls-102" points="91.01 82.6 91 82.55 77.81 82.55 77.75 82.6 91.01 82.6"/><polygon class="cls-26" points="78.37 85.58 78.85 87.81 78.95 87.81 78.78 85.58 78.37 85.58"/><polygon class="cls-26" points="90.33 85.5 89.84 87.81 89.73 87.81 89.91 85.5 90.33 85.5"/><polygon class="cls-26" points="89.56 85.5 89.22 87.36 89.13 87.36 89.27 85.5 89.56 85.5"/><polygon class="cls-26" points="79.01 85.5 79.33 87.36 79.42 87.36 79.28 85.5 79.01 85.5"/><polygon class="cls-103" points="90.81 84.11 77.94 84.28 77.75 82.6 91.01 82.6 90.81 84.11"/><polygon class="cls-26" points="78.49 85.15 78.16 82.34 78.38 82.34 78.63 85.15 78.49 85.15"/><polygon class="cls-26" points="90.22 85.15 90.54 82.4 90.33 82.34 90.03 85.15 90.22 85.15"/><polygon class="cls-104" points="77.94 85.16 78.01 85.59 90.73 85.49 90.83 85.03 77.94 85.16"/><polygon class="cls-105" points="90.29 85.06 90.78 85.06 90.69 85.45 79.42 85.53 90.24 85.36 90.29 85.06"/><polygon class="cls-106" points="90.4 82.36 90.11 85.03 90.23 85.03 90.54 82.4 90.4 82.36"/><polygon class="cls-106" points="78.16 82.34 78.34 82.34 78.59 85.15 78.49 85.15 78.16 82.34"/><polygon class="cls-105" points="78.4 82.61 78.53 82.61 78.78 84.26 78.55 84.27 78.4 82.61"/><polygon class="cls-105" points="90.51 82.6 90.34 84.12 90.55 84.12 90.62 82.6 90.51 82.6"/><polygon class="cls-105" points="90.28 82.72 90.11 83.65 80.59 83.79 89.92 83.75 89.89 83.95 78.54 84.17 78.55 84.27 90.14 84.12 90.28 82.72"/><polygon class="cls-106" points="90.31 85.59 90.03 85.63 89.77 87.81 89.84 87.81 90.31 85.59"/><polygon class="cls-106" points="78.41 85.75 78.67 85.87 78.91 87.81 78.85 87.81 78.41 85.75"/><polygon class="cls-102" points="78.01 85.59 77.94 85.16 90.83 85.03 90.81 85.08 77.99 85.19 78.01 85.59"/><polygon class="cls-107" points="78.1 85.19 78.2 85.53 78.47 85.53 78.4 85.19 78.1 85.19"/><polygon class="cls-107" points="78.47 85.19 78.55 85.53 78.7 85.53 78.7 85.19 78.47 85.19"/><polygon class="cls-107" points="77.86 82.64 78.01 84.24 78.19 84.23 78.09 82.64 77.86 82.64"/></g><ellipse class="cls-108" cx="77.16" cy="95.8" rx="10.29" ry="0.76"/><ellipse class="cls-108" cx="63.09" cy="95.78" rx="3.28" ry="0.42"/><polygon class="cls-102" points="81.64 93.09 81.56 93.03 64.31 92.85 64.23 92.93 81.64 93.09"/><polygon class="cls-26" points="65.05 96.85 65.67 99.78 65.81 99.78 65.58 96.84 65.05 96.85"/><polygon class="cls-26" points="80.77 96.73 80.12 99.78 79.98 99.78 80.22 96.73 80.77 96.73"/><polygon class="cls-26" points="79.75 96.73 79.3 99.18 79.19 99.18 79.38 96.73 79.75 96.73"/><polygon class="cls-26" points="65.89 96.73 66.31 99.18 66.42 99.18 66.23 96.73 65.89 96.73"/><polygon class="cls-109" points="81.39 94.91 64.48 95.13 64.23 92.93 81.64 93.09 81.39 94.91"/><polygon class="cls-26" points="65.2 96.28 64.77 92.58 65.06 92.58 65.38 96.28 65.2 96.28"/><polygon class="cls-26" points="80.62 96.28 81.04 92.67 80.76 92.58 80.37 96.28 80.62 96.28"/><polygon class="cls-110" points="64.48 96.29 64.57 96.85 81.29 96.73 81.42 96.11 64.48 96.29"/><polygon class="cls-105" points="80.71 96.16 81.35 96.15 81.24 96.67 66.42 96.77 80.65 96.56 80.71 96.16"/><polygon class="cls-106" points="80.86 92.61 80.47 96.11 80.64 96.12 81.04 92.67 80.86 92.61"/><polygon class="cls-106" points="64.77 92.58 65.01 92.58 65.34 96.28 65.2 96.28 64.77 92.58"/><polygon class="cls-105" points="65.09 92.93 65.25 92.94 65.58 95.11 65.28 95.12 65.09 92.93"/><polygon class="cls-105" points="80.99 93.08 80.78 94.92 81.06 94.92 81.14 93.09 80.99 93.08"/><polygon class="cls-105" points="80.71 93.08 80.47 94.31 67.96 94.49 80.23 94.43 80.19 94.7 65.27 94.99 65.28 95.12 80.52 94.92 80.71 93.08"/><polygon class="cls-106" points="80.74 96.85 80.37 96.91 80.03 99.78 80.12 99.78 80.74 96.85"/><polygon class="cls-106" points="65.09 97.07 65.43 97.22 65.75 99.78 65.67 99.78 65.09 97.07"/><polygon class="cls-102" points="64.57 96.85 64.48 96.29 81.42 96.11 81.4 96.19 64.55 96.33 64.57 96.85"/><polygon class="cls-107" points="64.69 96.33 64.82 96.77 65.18 96.77 65.09 96.33 64.69 96.33"/><polygon class="cls-107" points="65.18 96.33 65.28 96.77 65.47 96.77 65.47 96.33 65.18 96.33"/><polygon class="cls-107" points="64.37 92.98 64.57 95.08 64.81 95.07 64.67 92.98 64.37 92.98"/><polygon class="cls-111" points="92.55 90.08 92.64 87.9 92.03 86.63 90.98 86.7 90.46 87.85 90.56 89.96 92.55 90.08"/><polygon class="cls-112" points="92.55 90.08 93.33 89.96 93.59 87.94 92.72 86.66 92.03 86.63 92.64 87.9 92.55 90.08"/><polygon class="cls-113" points="92.71 87.91 93.52 87.92 92.81 86.86 92.2 86.86 92.71 87.91"/><polygon class="cls-114" points="92.67 87.95 92.58 90.03 93.3 89.92 93.38 89.15 93.25 89.83 92.67 89.4 92.67 87.95"/><polygon class="cls-115" points="90.63 89.9 90.51 87.87 91.03 86.72 92 86.67 92.23 87.13 91.98 86.72 90.55 87.87 90.63 89.9"/><polygon class="cls-116" points="92.58 87.92 92.49 90.03 90.61 89.93 92.44 89.97 92.58 87.92"/><polygon class="cls-117" points="23.82 95.46 23.66 91.4 24.79 89.03 26.75 89.15 27.72 91.3 27.52 95.23 23.82 95.46"/><polygon class="cls-118" points="23.82 95.46 22.38 95.23 21.89 91.47 23.52 89.09 24.79 89.03 23.66 91.4 23.82 95.46"/><polygon class="cls-113" points="23.54 91.4 22.02 91.42 23.34 89.45 24.49 89.45 23.54 91.4"/><polygon class="cls-119" points="23.61 91.49 23.77 95.35 22.44 95.16 22.29 93.72 22.51 94.99 23.6 94.18 23.61 91.49"/><polygon class="cls-120" points="27.4 95.12 27.62 91.34 26.66 89.19 24.85 89.09 24.43 89.95 24.89 89.2 27.55 91.34 27.4 95.12"/><polygon class="cls-121" points="23.77 91.42 23.94 95.35 27.43 95.17 24.03 95.26 23.77 91.42"/><polygon class="cls-6" points="13.29 93.42 13.21 78.5 13.48 78.49 13.4 93.42 13.29 93.42"/><polygon class="cls-122" points="13.4 78.48 13.61 78.49 13.48 93.38 13.4 93.42 13.4 78.48"/><circle class="cls-6" cx="13.4" cy="78.25" r="0.63"/><path class="cls-123" d="M12.78,78.51a.63.63,0,1,0,1.26,0Z" transform="translate(0 -0.27)"/><polygon class="cls-6" points="88.95 88.92 88.89 78.42 89.08 78.41 89.03 88.92 88.95 88.92"/><polygon class="cls-124" points="89.03 78.41 89.18 78.41 89.08 88.89 89.03 88.92 89.03 78.41"/><circle class="cls-6" cx="89.03" cy="78.24" r="0.44"/><path class="cls-125" d="M88.59,78.51a.44.44,0,0,0,.89,0Z" transform="translate(0 -0.27)"/><polygon class="cls-6" points="23.14 96.67 23.03 77.45 23.38 77.43 23.28 96.67 23.14 96.67"/><polygon class="cls-126" points="23.28 77.42 23.55 77.43 23.38 96.61 23.28 96.67 23.28 77.42"/><circle class="cls-6" cx="23.28" cy="77.12" r="0.81"/><path class="cls-127" d="M22.47,77.38a.81.81,0,0,0,1.62,0Z" transform="translate(0 -0.27)"/><path class="cls-128" d="M133.7,78.75" transform="translate(0 -0.27)"/></g></g></svg>