<?xml version="1.0" encoding="utf-8"?>
<!-- Generator: Adobe Illustrator 23.0.2, SVG Export Plug-In . SVG Version: 6.00 Build 0)  -->
<svg version="1.1" id="Capa_1" xmlns="http://www.w3.org/2000/svg" xmlns:xlink="http://www.w3.org/1999/xlink" x="0px" y="0px"
	 viewBox="0 0 595.3 841.9" style="enable-background:new 0 0 595.3 841.9;" xml:space="preserve">
<style type="text/css">
	.st0{fill:#BF00D4;}
	.st1{fill:#B16AFF;}
	.st2{fill:#26E899;}
	.st3{fill:#6B6968;}
	.st4{fill:#444444;}
	.st5{fill:#ABAAA9;}
	.st6{fill:#00BC66;}
	.st7{fill:#9B9B9B;}
	.st8{opacity:0.5;fill:#FFCF08;enable-background:new    ;}
	.st9{fill:#0F0F0F;stroke:#3A3A3A;stroke-width:1.9284;stroke-miterlimit:10;}
	.st10{fill:#FFCF08;stroke:#E5B900;stroke-width:2.1675;stroke-miterlimit:10;}
	.st11{fill:#14003D;stroke:#1D006B;stroke-width:3.5937;stroke-miterlimit:10;}
	.st12{fill:#14003D;stroke:#1D006B;stroke-width:3.8957;stroke-miterlimit:10;}
	.st13{fill:#14003D;stroke:#1D006B;stroke-width:3.802;stroke-miterlimit:10;}
	.st14{fill:#14003D;stroke:#1D006B;stroke-width:3.6902;stroke-miterlimit:10;}
	.st15{fill:#FFCF08;stroke:#E5B900;stroke-width:2.7818;stroke-miterlimit:10;}
	.st16{fill:#FFCF08;stroke:#E5B900;stroke-width:2.2286;stroke-miterlimit:10;}
	.st17{fill:#FFCF08;stroke:#E5B900;stroke-width:2.1781;stroke-miterlimit:10;}
	.st18{fill:#FFCF08;stroke:#E5B900;stroke-width:3.3;stroke-miterlimit:10;}
	.st19{fill:#141E4F;}
	.st20{opacity:0.2;fill:#FFFFFF;enable-background:new    ;}
	.st21{fill:#D0D1D3;}
	.st22{fill:#1D006B;stroke:#14003D;stroke-width:3.6902;stroke-miterlimit:10;}
	.st23{fill:#1D006B;stroke:#14003D;stroke-width:2.9512;stroke-miterlimit:10;}
	.st24{fill:#FFFFFF;}
	.st25{fill:none;stroke:#EAEEE8;stroke-width:1.1979;stroke-miterlimit:10;}
	.st26{fill:none;stroke:#EAEEE8;stroke-width:0.4711;stroke-miterlimit:10;}
	.st27{fill:#94FAFF;}
	.st28{fill:#FFFFFF;stroke:#220B60;stroke-width:1.5;stroke-miterlimit:10;}
	.st29{fill:#14003D;}
	.st30{fill:none;}
	.st31{fill:#0FCF7D;}
	.st32{fill:none;stroke:#0029D4;stroke-width:2;stroke-miterlimit:10;}
	.st33{opacity:0.1;}
	.st34{fill:#FFFFFF;stroke:#14003D;stroke-width:3.6483;stroke-miterlimit:10;}
	.st35{fill:#FFFFFF;stroke:#14003D;stroke-width:2;stroke-miterlimit:10;}
	.st36{font-family:'Satisfy-Regular';}
	.st37{font-size:23.7863px;}
	.st38{fill:none;stroke:#14003D;stroke-miterlimit:10;}
	.st39{font-size:23.6981px;}
	.st40{fill:#E7E6E6;}
	.st41{fill:#D6AE03;}
	.st42{fill:none;stroke:#5A2AFF;stroke-width:29;stroke-miterlimit:10;}
</style>
<polyline class="st0" points="30.9,266.5 30.9,584.9 286.8,499.5 300,115.7 "/>
<polyline class="st1" points="21.7,260.4 25,544.8 280.1,120.9 "/>
<polygon class="st2" points="297.9,105.9 296,495 568.5,582.1 569.4,261.9 "/>
<polygon class="st3" points="32.7,577.2 300.1,116 300.1,727.1 "/>
<polygon class="st4" points="32.4,577.2 299.7,463.8 299.7,727.1 "/>
<polygon class="st5" points="567.3,576.9 300,115.7 300,726.8 "/>
<polygon class="st6" points="300.9,111 298,112.4 562.4,586.4 567.7,558.2 "/>
<polygon class="st7" points="566.7,576.8 299.4,463.3 299.4,726.7 "/>
<path class="st8" d="M301.5,169.7h-2.9c-1.1,0-1.9-0.9-1.8-1.9l1.3-29.3c0-1,0.9-1.8,1.9-1.8l0,0c1,0,1.8,0.8,1.8,1.8l1.5,29.3
	C303.4,168.9,302.5,169.7,301.5,169.7z"/>
<path class="st8" d="M302.5,229.2h-4.9c-1.1,0-1.9-0.9-1.8-1.9l1.8-39.3c0-1,0.9-1.8,1.9-1.8h1.1c1,0,1.8,0.8,1.8,1.8l2,39.3
	C304.4,228.3,303.5,229.2,302.5,229.2z"/>
<path class="st8" d="M302.8,288.3h-5.5c-1.1,0-1.9-0.9-1.8-1.9l1.9-42.5c0-1,0.9-1.8,1.9-1.8h1.4c1,0,1.8,0.8,1.8,1.8l2.2,42.4
	C304.7,287.4,303.9,288.3,302.8,288.3z"/>
<path class="st8" d="M303.9,359.2h-7.8c-1.1,0-1.9-0.9-1.8-1.9l2.5-53.7c0-1,0.9-1.8,1.9-1.8h2.6c1,0,1.8,0.8,1.8,1.8l2.8,53.6
	C305.8,358.3,305,359.2,303.9,359.2z"/>
<path class="st8" d="M305.1,443.8H295c-1.1,0-1.9-0.9-1.8-1.9l3-64.8c0-1,0.9-1.8,1.9-1.8h3.8c1,0,1.8,0.8,1.8,1.8l3.3,64.7
	C307,442.9,306.1,443.8,305.1,443.8z"/>
<path class="st8" d="M313.8,630h-27.5c-1.1,0-1.9-0.9-1.8-1.9l6.9-150.5c0-1,0.9-1.8,1.9-1.8l12.9,0.1c1,0,1.8,0.8,1.8,1.8
	l7.7,150.4C315.7,629.1,314.9,630,313.8,630z"/>
<path class="st9" d="M302.7,581.2L302.7,581.2c-1.7-1.8-3.6-1.8-5.3,0l0,0c-2.2,2.4-4.7-1.9-4.7-8.3V390.4c0-4.9,1.7-7,3.5-7h7.8
	c1.9,0,3.2,2.1,3.2,7V573C307.3,579.3,304.9,583.6,302.7,581.2z"/>
<path class="st10" d="M473.9,371.7l3.3,3.7c3.7,2.5,9.4,4.3,14,4.6l40.1,2.7c9.3,0.6,15.3-4.4,18.9-11.6"/>
<polygon class="st11" points="304.3,722.4 296.1,722.8 289.4,535.6 310.6,535.6 "/>
<circle class="st11" cx="300" cy="518.8" r="17.9"/>
<path class="st12" d="M308.9,505.9l-7.3-1.3c-1.1-0.2-2.1-0.2-3.2,0l-7.2,1.3v-42.4h17.7V505.9z"/>
<rect x="107.6" y="450.8" class="st11" width="383.5" height="12"/>
<path class="st13" d="M544.5,469.2h-62.4c-3.7,0-6.6-3-6.6-6.6v-13c0-3.7,3-6.6,6.6-6.6h62.4c3.7,0,6.6,3,6.6,6.6v13
	C551.1,466.2,548.1,469.2,544.5,469.2z"/>
<path class="st14" d="M480.6,478h-2.1c-2.4,0-4.4-2-4.4-4.4v-36c0-2.4,2-4.4,4.4-4.4h2.1c2.4,0,4.4,2,4.4,4.4v36
	C485,476,483.1,478,480.6,478z"/>
<rect x="449.1" y="433.3" class="st15" width="18.1" height="32.9"/>
<rect x="452.4" y="419.3" class="st16" width="11.6" height="23.6"/>
<path class="st16" d="M543.5,428.6H460v-12.7h9.4c3.3,0,6.5,0.5,9.6,1.5l12.1,3.8c7.7,2.4,15.8,3.4,23.9,2.9l28.4-1.6L543.5,428.6z"
	/>
<polygon class="st10" points="432.4,467.1 429.7,467.1 415.5,461.8 400.9,467 398.4,467.1 398.4,448.4 432.4,448.4 "/>
<rect x="405.1" y="401.9" transform="matrix(0.6267 -0.7793 0.7793 0.6267 -148.5972 499.6415)" class="st10" width="84.2" height="6.1"/>
<circle class="st10" cx="415.4" cy="444.8" r="9.5"/>
<ellipse class="st17" cx="458.1" cy="422.5" rx="7.7" ry="7.6"/>
<circle class="st10" cx="543.7" cy="425.1" r="5.8"/>
<path class="st18" d="M538.2,379.3l-55.5-3.3c-7.4-0.4-13.4-6.9-13.4-14.4v-10.7c0-7.5,6-13.2,13.4-12.8l55.5,3.3
	c7.4,0.4,13.4,6.9,13.4,14.4v10.7C551.6,374,545.6,379.7,538.2,379.3z M549.3,364.3v-6.7c0-7.5-6-14-13.4-14.4l-51-3
	c-7.4-0.4-13.4,5.3-13.4,12.8v6.7c0,7.5,6,14,13.4,14.4l51,3C543.3,377.6,549.3,371.9,549.3,364.3z"/>
<circle class="st19" cx="300" cy="518.8" r="6.5"/>
<polyline class="st20" points="159,362.5 183.5,440.8 198.8,441.4 300,115.7 "/>
<polygon class="st21" points="297.4,113.1 300.3,114.5 37.9,588.2 22,579.1 "/>
<path class="st22" d="M115.2,470.1H60c-4.8,0-8.7-3.9-8.7-8.7v-8.8c0-4.8,3.9-8.7,8.7-8.7h55.2c4.8,0,8.7,3.9,8.7,8.7v8.8
	C123.9,466.2,120,470.1,115.2,470.1z"/>
<path class="st23" d="M121,479.9h-1c-1.7,0-3.2-1.4-3.2-3.2v-38.5c0-1.7,1.4-3.2,3.2-3.2h1.1c1.7,0,3.2,1.4,3.2,3.2v38.5
	C124.2,478.5,122.8,479.9,121,479.9z"/>
<path class="st11" d="M318.4,470h-36.5c-4.8,0-8.7-3.9-8.7-8.7v-8.8c0-4.8,3.9-8.7,8.7-8.7h36.5c4.8,0,8.7,3.9,8.7,8.7v8.8
	C327,466.1,323.1,470,318.4,470z"/>
<path class="st24" d="M535.9,377.1l-51-3c-7.4-0.4-13.4-6.9-13.4-14.4V353c0-7.5,6-13.2,13.4-12.8l51,3c7.4,0.4,13.4,6.9,13.4,14.4
	v6.7C549.3,371.9,543.3,377.6,535.9,377.1z"/>
<polygon class="st25" points="297.8,517.5 297.8,520.1 300,521.4 302.3,520.1 302.3,517.5 300,516.2 "/>
<polygon class="st26" points="299.1,518.3 299.1,519.3 300,519.8 300.9,519.3 300.9,518.3 300,517.8 "/>
<path class="st27" d="M535.9,377.1l-51-3c-7.4-0.4-13.4-6.9-13.4-14.4V353c0-7.5,6-13.2,13.4-12.8l51,3c7.4,0.4,13.4,6.9,13.4,14.4
	v6.7C549.3,371.9,543.3,377.6,535.9,377.1z"/>
<polygon class="st24" points="545.3,372.3 545.1,374.4 535.6,377.9 526.5,376.9 530.6,374.1 "/>
<g>
	<path class="st24" d="M510.9,356c5.2-2.4,11.2-3.3,16.9-2.5c1.6,0.2,3.1,0.5,4.7,0.5c1.6,0,3.2-0.4,4.4-1.4c0.6-0.5,1.3-1.2,2-1
		c0.3,0.1,0.6,0.3,0.8,0.6c1.4,1.4,2.8,2.9,4.2,4.3c0.3,0.3,0.6,0.6,0.7,1c0.1,0.4,0.1,0.9,0,1.3c-0.4,1.9-0.8,3.8-1.1,5.7
		c0,0.2-0.1,0.4-0.2,0.6c-0.3,0.4-0.9,0.3-1.4,0.2c-6.9-1.5-13.8-3.3-20.5-5.7c-1.7-0.6-3.5-1.2-5.3-1.2c-3.1,0-5.9,2-8.7,3.2
		c-4,1.7-8.4,2.1-12.8,1.8c-4.3-0.3-8.6-1.3-12.8-2.3c7-0.9,14-1.8,21-2.8c4.7-0.6,9.4-1.2,13.9-2.7c1-0.3,2.1-0.7,3-1.3
		c0.8-0.6,1.4-1.3,2.2-1.8s1.8-0.9,2.7-0.5"/>
	<g>
		<path class="st24" d="M512.2,358.2c4.4-1.9,9.1-2.7,13.9-2.4c3.4,0.3,6.8,1.3,10.1,0.1c0.7-0.3,1.3-0.6,1.9-1.1
			c0.5-0.7,0.9-0.5,1.2,0.6c2.4,1.1,2.6,4.4,2,6.5c-0.1,2.3-0.4,2.5-0.8,0.6c-1.3-0.3-2.5-0.6-3.8-0.9c-2.2-0.5-4.4-1.1-6.5-1.8
			c-7.4-2.1-13.3-5.5-20.7-2.1c-9.4,4.4-17.3,3.3-27.2,1c-0.2,1.6-0.4,3.3-0.7,4.9c7.8-1,15.6-2,23.4-3.1c3.5-0.5,7-1,10.5-1.9
			c1.3-0.4,2.6-0.7,3.8-1.3c1.5-0.7,3.3-2.9,5.1-2.8c3.2,0.2,3.2-4.8,0-5c-2.5-0.1-3.6,0.8-5.6,2.2c-3.6,2.5-8.3,3-12.5,3.7
			c-8.2,1.2-16.5,2.2-24.7,3.3c-2.6,0.3-3.7,4.2-0.7,4.9c10.8,2.5,20.1,3.6,30.4-1.2c6.6-3.1,13.8,1.2,20.4,3
			c3,0.8,9.8,3.9,12.8,1.8c2.2-1.6,3.3-8,2.5-10.4c-0.7-2.5-5.1-7.2-7.7-7.6c-1.7-0.3-3.5,1.1-5,1.6c-3,1.1-5.9,0.1-9,0
			c-5.4-0.3-10.6,1-15.6,3.1C506.7,355.1,509.2,359.4,512.2,358.2L512.2,358.2z"/>
	</g>
</g>
<polygon class="st28" points="539.4,364.4 529.5,362.9 523.5,375.6 527.7,375.2 "/>
<path class="st28" d="M526.6,376l12.4-11c1.7-1.2,4.2-0.3,4.6,1.8l1.6,6.6"/>
<g>
	<path class="st24" d="M486.4,362.6c0,0,3.1,8.8,9.6,11.5c2.5,1.1,5.9,0.8,8.7,1l12.8,0.7c6.7,0.4,12.6-3.4,14.8-9.7
		c2.7-7.6,2.4-16.8-10.6-23.3"/>
	<g>
		<path class="st29" d="M485.7,362.8c2.1,5.9,6.5,11.8,13.1,12.8c6,0.9,12.7,0.9,18.7,1c9.2,0.2,15.5-6.3,16.7-15.2
			c1.2-9-4.6-15.3-12.2-19.2c-0.9-0.5-1.6,0.8-0.8,1.3c8,4.2,13.2,10.7,11,20c-2,8.4-8.6,11.9-16.8,11.5c-4.1-0.2-8.1-0.5-12.2-0.6
			c-5.8-0.2-9.8-1.5-13.2-6.5c-1.2-1.7-2.2-3.5-2.9-5.5C486.8,361.5,485.4,361.9,485.7,362.8L485.7,362.8z"/>
	</g>
</g>
<g>
	<line class="st30" x1="294.5" y1="449.4" x2="305.7" y2="449.4"/>
	<g>
		<path class="st24" d="M294.5,450.5c3.7,0,7.4,0,11.1,0c1.4,0,1.4-2.1,0-2.1c-3.7,0-7.4,0-11.1,0
			C293.2,448.4,293.2,450.5,294.5,450.5L294.5,450.5z"/>
	</g>
</g>
<g>
	<line class="st30" x1="294.6" y1="464.2" x2="305.7" y2="464.2"/>
	<g>
		<path class="st24" d="M294.6,465.2c3.7,0,7.4,0,11.1,0c1.4,0,1.4-2.1,0-2.1c-3.7,0-7.4,0-11.1,0
			C293.2,463.1,293.2,465.2,294.6,465.2L294.6,465.2z"/>
	</g>
</g>
<g>
	<line class="st30" x1="297.6" y1="457.2" x2="302.7" y2="457.2"/>
	<g>
		<path class="st24" d="M297.6,457.9c1.7,0,3.4,0,5.1,0c0.9,0,0.9-1.4,0-1.4c-1.7,0-3.4,0-5.1,0
			C296.7,456.5,296.7,457.9,297.6,457.9L297.6,457.9z"/>
	</g>
</g>
<g>
	<path class="st31" d="M515.8,342.1c3.8,0.5,5.6,3.4,6.5,6c1.4,4.3,0,10.7-3.1,14c-4,4.2-9.1,5.7-9.1,5.7
		c-7.8,2.1-15.4,0.2-19.6-1.2c-2.2-0.7-3.9-2.5-4.5-4.7c-1.5-5.5-3-16.1,7.5-20.1C493.5,341.8,495.8,339.7,515.8,342.1z"/>
	<g>
		<path class="st29" d="M515.7,342.6c7.7,1.6,7.9,11.6,4.6,17.2c-2.3,3.9-6.9,6.7-11.2,7.8c-5.6,1.4-12,0.8-17.4-1.1
			c-5.3-1.8-6.5-7.7-6.2-12.6c0.8-16.3,19.7-12.5,30.4-11.3c0.6,0.1,0.6-0.9,0-1c-6.8-0.8-15.8-2.8-22.5-0.2
			c-8.5,3.2-11.2,14.2-7.3,22c2.1,4.2,7.9,5,12.2,5.6c6.2,0.8,12.3,0.1,17.5-3.3c4.8-3.1,7.6-7.8,7.6-13.6c0-4.9-2.4-9.3-7.4-10.4
			C515.3,341.5,515.1,342.5,515.7,342.6z"/>
	</g>
</g>
<g>
	<g>
		<path class="st29" d="M487.4,348.9c-0.2,1.5-0.6,2.9-1.1,4.3c-0.3,0.8,0.9,1.2,1.4,0.6c0.7-1,2.5-4.5,4.1-3.9
			c-0.2-0.2-0.3-0.3-0.5-0.5c0.5,1.2,0.4,2.9,0.4,4.2c0,1,1.5,1,1.5,0c0-1.3-0.1-2.6-0.2-3.8c-0.2-1-0.6-1.6-1.7-1.4
			c-2.3,0.3-3.6,3-4.8,4.7c0.5,0.2,0.9,0.4,1.4,0.6c0.6-1.5,1-3.1,1.2-4.7C489,347.9,487.5,348,487.4,348.9L487.4,348.9z"/>
	</g>
</g>
<g>
	<g>
		<path class="st29" d="M511.1,349.8c0.1,1.1,0,2.2-0.3,3.3c0.5,0,1,0,1.4,0c-0.1-0.4,2.4-3,2.8-2.9c0.4,0.2,0.2,1.3,0.2,1.7
			c0,0.7,0.1,1.4,0.2,2.2c0.1,1,1.6,0.5,1.4-0.4c-0.1-0.7-0.2-1.4-0.2-2.1c0-0.5,0.1-1.1-0.1-1.7c-0.2-0.9-1.1-1.4-2-1.2
			c-1,0.3-1.8,1.3-2.5,2.1c-0.7,0.8-1.4,1.5-1.3,2.6c0.1,0.8,1.3,0.6,1.4,0c0.4-1.2,0.5-2.5,0.4-3.7
			C512.6,348.9,511,348.9,511.1,349.8L511.1,349.8z"/>
	</g>
</g>
<g>
	<g>
		<path class="st29" d="M489.2,347.5c1.1-0.1,2.2-0.4,3.2-1c0.8-0.5,0.1-1.8-0.8-1.3c-0.7,0.4-1.5,0.7-2.4,0.8
			C488.2,346.1,488.2,347.6,489.2,347.5L489.2,347.5z"/>
	</g>
</g>
<image style="overflow:visible;opacity:0.7;enable-background:new    ;" width="83" height="33" xlink:href="B00E29B7.png"  transform="matrix(0.2321 0 0 0.2321 493.2881 341.5305)">
</image>
<path class="st29" d="M513.7,375.6c0,0,6.8,0,12.2-3.3c2.3-1.5,4.1-4,5.1-6.8c1.2-3.6,0.6-6.9,0.1-8.5
	C531.1,356.9,535.3,373.4,513.7,375.6z"/>
<g>
	<g>
		<path class="st29" d="M504.6,364.5c1.9,2.9,6.9,1.3,7.8-1.7c0.3-0.9-1.2-1.3-1.4-0.4c-0.3,1.1-1.2,1.8-2.3,2
			c-0.8,0.2-2.2,0.2-2.7-0.6C505.3,362.9,504,363.7,504.6,364.5L504.6,364.5z"/>
	</g>
</g>
<g>
	<path class="st24" d="M527.5,353.6c0.9,0.1,1.5,1.8,1.3,3.7c-0.2,2-1.1,3.5-2,3.4s-1.5-1.8-1.3-3.7S526.6,353.5,527.5,353.6"/>
	<path class="st29" d="M527.5,353.5c0.4,0,0.7,0.3,0.9,0.6c0.2,0.3,0.4,0.7,0.5,1c0.2,0.7,0.3,1.5,0.3,2.2s-0.2,1.5-0.4,2.2
		c-0.1,0.4-0.3,0.7-0.6,1.1c-0.3,0.3-0.7,0.7-1.4,0.7c-0.7-0.1-1.1-0.5-1.3-0.9c-0.3-0.4-0.4-0.8-0.5-1.2c-0.2-0.8-0.3-1.6-0.1-2.3
		c0.1-0.8,0.4-1.5,0.8-2.2c0.2-0.3,0.5-0.7,0.8-0.9C526.7,353.6,527.1,353.4,527.5,353.5v0.1c-0.3,0.1-0.5,0.3-0.7,0.6
		c-0.2,0.3-0.3,0.6-0.3,0.9c-0.2,0.6-0.2,1.3-0.3,1.9c0,0.6,0,1.3,0.1,1.9s0.4,1.2,0.6,1.2c0.1,0,0.3,0,0.5-0.2s0.4-0.5,0.5-0.7
		c0.3-0.6,0.5-1.2,0.6-1.9c0.1-0.7,0.1-1.4,0-2c-0.1-0.3-0.1-0.7-0.3-1c-0.1-0.3-0.4-0.6-0.7-0.6L527.5,353.5z"/>
</g>
<path class="st32" d="M535.9,377.1l-51-3c-7.4-0.4-13.4-6.9-13.4-14.4V353c0-7.5,6-13.2,13.4-12.8l51,3c7.4,0.4,13.4,6.9,13.4,14.4
	v6.7C549.3,371.9,543.3,377.6,535.9,377.1z"/>
<g>
	<path class="st24" d="M547.9,590.8l-0.4-91.2c-0.2-7.3-6.6-12.9-13.9-12.1H505c-6.4,0.7-11.3,6.1-11.3,12.6l-0.2,39.2
		c0,2,0.3,4,0.8,6l15.2,52.9"/>
	<g>
		<path class="st29" d="M550.4,590.8c-0.1-16.4-0.2-32.7-0.2-49.1c-0.1-10.5-0.1-21.1-0.2-31.6c0-5.8,0.9-12.8-2.2-18
			c-5.8-9.5-18.5-7.2-28-7.2c-9.7,0-22-2.1-27.1,8.6c-1.6,3.4-1.4,7-1.5,10.7c0,5.3,0,10.6-0.1,15.9c0,8.3-1.2,17.7,0.9,25.8
			c4.6,17.7,10.1,35.2,15.2,52.8c0.9,3.1,5.7,1.8,4.8-1.3c-4.6-15.9-9.2-31.9-13.7-47.8c-4.2-14.7-2.1-30.9-2.1-46.1
			c0-4.5,0.1-8.8,4.2-11.7c3.5-2.5,7.6-1.9,11.7-1.9c5.3,0,10.7,0,16,0c4.5,0,9.6-0.7,13.3,2.3c4.8,4,3.6,11.6,3.6,17.2
			c0,9.6,0.1,19.2,0.1,28.8c0.1,17.5,0.2,35,0.3,52.6C545.4,594.1,550.4,594.1,550.4,590.8L550.4,590.8z"/>
	</g>
</g>
<g>
	<path class="st24" d="M490.3,444v17.7c0,7.5,5.9,16,13.4,16h30.8c7.5,0,13.6-6.1,13.6-13.6v-20.4c0-5.3-4.3-9.6-9.5-9.6
		s-9.5,4.3-9.5,9.6l-0.1,0.1c0-5.3-4.3-9.6-9.6-9.6s-9.6,4.3-9.6,9.6l-0.2,0.2c0-5.3-4.3-9.6-9.6-9.6
		C494.6,434.4,490.3,438.7,490.3,444z"/>
	<g>
		<path class="st29" d="M487.8,444c0,9-1.8,20.1,3.1,28.1c6.1,9.9,16.7,8.1,26.7,8.1c9.2,0,21.7,2.3,28.6-5.2
			c3.7-4,4.3-8.8,4.3-13.9c0-5.3,0.1-10.6,0-16c-0.1-5.9-2.7-11.4-8.8-13.1c-8-2.2-14.7,4-15.2,11.7c0.4-0.7,0.8-1.4,1.2-2.2
			c0,0-0.1,0-0.1,0.1c1.3,0.7,2.5,1.4,3.8,2.2c-0.4-6.6-5.2-12.1-12.1-12.1c-3,0-5.9,1.1-8.1,3.1c-1.2,1.1-2.2,2.4-2.9,4
			c-0.2,0.5-1.4,4.2-0.6,3.4c1.4,0.6,2.8,1.2,4.3,1.8C511,428.4,488.8,428.4,487.8,444c-0.2,3.2,4.8,3.2,5,0
			c0.6-9.1,13.6-9.1,14.2,0c0.1,2.1,2.7,3.4,4.3,1.8c0.7-0.7,0.6-1.2,0.9-2c1-2.5,0.8-4.5,3.5-6.1c4.9-2.9,10.3,0.9,10.7,6.1
			c0.1,1.9,2,3.1,3.8,2.2c2-1.1,1.3-4.1,2.3-5.8c2.3-3.9,7.8-4.6,11-1.4c2.8,2.7,2.1,7.4,2.1,10.9c0,8.3,2.5,21.8-7.7,25.1
			c-2.6,0.8-5.7,0.5-8.3,0.5c-4.3,0-8.6,0-12.8,0c-8,0-17,1.9-21.7-6.1c-4-6.8-2.1-17.5-2.1-25.1C492.8,440.8,487.8,440.8,487.8,444
			z"/>
	</g>
</g>
<g class="st33">
	<path class="st24" d="M540.8,449.6c0,0,0.2,6.8-6.5,9.7c-1.6,0.7-3.4,1-5.2,0.9l-16.8,0.3"/>
	<g>
		<path d="M538.3,449.6c0.1,11-18.8,8.3-26,8.4c-3.2,0.1-3.2,5.1,0,5c10.5-0.2,31.1,2.5,31-13.4
			C543.3,446.4,538.3,446.4,538.3,449.6L538.3,449.6z"/>
	</g>
</g>
<g>
	<line class="st30" x1="508.1" y1="499.7" x2="509.5" y2="596.2"/>
	<g>
		<path class="st29" d="M506.8,499.7c0.4,28.2,0.9,56.3,1.3,84.5c0.1,4,0.1,8,0.2,12c0,1.6,2.5,1.6,2.5,0
			c-0.4-28.2-0.9-56.3-1.3-84.5c-0.1-4-0.1-8-0.2-12C509.3,498.1,506.8,498.1,506.8,499.7L506.8,499.7z"/>
	</g>
</g>
<path class="st34" d="M54.8,592.9l0.4-91.2c0.2-7.3,6.6-12.9,13.9-12.1h28.6c6.4,0.7,11.3,6.1,11.3,12.6l0.2,39.2c0,2-0.3,4-0.8,6
	l-15.2,52.9"/>
<g>
	<path class="st24" d="M112.4,446v17.7c0,7.5-5.9,16-13.4,16H68.3c-7.5,0-13.6-6.1-13.6-13.6v-20.4c0-5.3,4.3-9.6,9.5-9.6
		s9.5,4.3,9.5,9.6l0.1,0.1c0-5.3,4.3-9.6,9.6-9.6s9.6,4.3,9.6,9.6l0.2,0.2c0-5.3,4.3-9.6,9.6-9.6S112.4,440.7,112.4,446z"/>
	<g>
		<path class="st29" d="M109.9,446c0,6.2,0.6,12.7-0.1,18.9c-0.6,5.9-5,12-11.2,12.3c-2.9,0.1-5.9,0-8.8,0c-7.1,0-14.3,0.3-21.4,0
			c-12.5-0.5-11.2-12.9-11.2-21.8c0-3.6-0.7-8.1,0.3-11.6c1.3-4.7,7.1-6.8,11-3.7c2.4,1.8,1.9,3.5,2.8,5.9c0.3,0.8,0.5,1.4,1.3,1.9
			c1.7,1,3.6-0.3,3.8-2.2c0.4-5.3,5.8-9,10.7-6.1c2.7,1.6,2.5,3.6,3.5,6.1c0.3,0.8,0.3,1.3,0.9,2c1.6,1.6,4.1,0.3,4.3-1.8
			C96.4,436.9,109.3,436.9,109.9,446c0.2,3.2,5.2,3.2,5,0c-1-15.6-23.2-15.6-24.2,0c1.4-0.6,2.8-1.2,4.3-1.8
			c0.9,0.9-0.2-2.5-0.4-3.1c-0.6-1.4-1.5-2.8-2.6-3.9c-2.2-2.2-5.4-3.5-8.6-3.5c-6.9,0-11.7,5.5-12.1,12.1c1.3-0.7,2.5-1.4,3.8-2.2
			c0,0-0.1,0-0.1-0.1c0.4,0.7,0.8,1.4,1.2,2.2c-1-15.5-23.3-15.7-24,0c-0.2,4.5,0,9.1,0,13.6s-0.5,9.2,1.4,13.3
			c5,11.1,17.1,9.5,27.1,9.5c8.6,0,21,2.3,27.8-4c8.7-8.1,6.4-21.5,6.4-32.2C114.9,442.8,109.9,442.8,109.9,446z"/>
	</g>
</g>
<g>
	<line class="st30" x1="94.7" y1="501.8" x2="93.2" y2="598.2"/>
	<g>
		<path class="st29" d="M93.4,501.8c-0.4,28.2-0.9,56.3-1.3,84.5c-0.1,4-0.1,8-0.2,12c0,1.6,2.5,1.6,2.5,0
			c0.4-28.2,0.9-56.3,1.3-84.5c0.1-4,0.1-8,0.2-12C95.9,500.1,93.4,500.1,93.4,501.8L93.4,501.8z"/>
	</g>
</g>
<path class="st35" d="M507.4,495.1L507.4,495.1c-2.3,0-4.1-1.9-4.1-4.1v-17.9c0-2.3,1.9-4.1,4.1-4.1l0,0c2.3,0,4.1,1.9,4.1,4.1V491
	C511.6,493.2,509.7,495.1,507.4,495.1z"/>
<path class="st35" d="M534,495.1L534,495.1c-2.3,0-4.1-1.9-4.1-4.1v-17.9c0-2.3,1.9-4.1,4.1-4.1l0,0c2.3,0,4.1,1.9,4.1,4.1V491
	C538.1,493.2,536.2,495.1,534,495.1z"/>
<path class="st35" d="M69.2,496.2L69.2,496.2c-2.3,0-4.1-1.9-4.1-4.1v-17.9c0-2.3,1.9-4.1,4.1-4.1l0,0c2.3,0,4.1,1.9,4.1,4.1V492
	C73.3,494.3,71.5,496.2,69.2,496.2z"/>
<path class="st35" d="M95.7,496.2L95.7,496.2c-2.3,0-4.1-1.9-4.1-4.1v-17.9c0-2.3,1.9-4.1,4.1-4.1l0,0c2.3,0,4.1,1.9,4.1,4.1V492
	C99.9,494.3,98,496.2,95.7,496.2z"/>
<text transform="matrix(3.202954e-02 -1.0056 0.9995 3.183648e-02 80.6067 567.3291)" class="st29 st36 st37">Trust</text>
<text transform="matrix(3.202954e-02 -1.0056 0.9995 3.183648e-02 80.6067 567.3291)" class="st38 st36 st37">Trust</text>
<text transform="matrix(-6.183760e-03 1.0025 -1 -6.168510e-03 524.0833 504.3629)" class="st29 st36 st39">Verify</text>
<text transform="matrix(-6.183760e-03 1.0025 -1 -6.168510e-03 524.0833 504.3629)" class="st38 st36 st39">Verify</text>
<g class="st33">
	<path class="st24" d="M64.6,451.3c0,0-0.2,6.8,6.5,9.7c1.6,0.7,3.4,1,5.2,0.9l16.8,0.3"/>
	<g>
		<path d="M62.1,451.3c-0.1,15.9,20.5,13.2,31,13.4c3.2,0.1,3.2-4.9,0-5c-7.2-0.1-26.1,2.6-26-8.4C67.1,448.1,62.1,448.1,62.1,451.3
			L62.1,451.3z"/>
	</g>
</g>
<path class="st10" d="M190.5,470.9L190.5,470.9c-4.6,0-8.5-2.8-9.2-6.6l-2.5-19.6c0-3.2,2.3-5.8,6.2-5.8h11c3.9,0,6.2,2.6,6.2,5.8
	l-2.5,19.6C199.1,468.2,195.1,471,190.5,470.9z"/>
<path class="st40" d="M191,457.7h-0.8c-1.4,0-2.5-1.1-2.5-2.5v-6.4c0-1.4,1.1-2.5,2.5-2.5h0.8c1.4,0,2.5,1.1,2.5,2.5v6.4
	C193.6,456.6,192.4,457.7,191,457.7z"/>
<path class="st3" d="M191.2,452.4H190c-0.8,0-1.5-0.7-1.5-1.5v-2.7c0-0.8,0.7-1.5,1.5-1.5h1.1c0.8,0,1.5,0.7,1.5,1.5v2.7
	C192.6,451.8,192,452.4,191.2,452.4z"/>
<ellipse class="st41" cx="190.8" cy="464.3" rx="4.1" ry="2.5"/>
<polygon class="st42" points="33,266.7 33,575.1 300,729.3 567,575.1 567,266.7 300,112.6 "/>
</svg>
