<svg xmlns="http://www.w3.org/2000/svg" xmlns:xlink="http://www.w3.org/1999/xlink" viewBox="0 0 100 100"><defs><style>.cls-1,.cls-85{fill:none;}.cls-13,.cls-2{isolation:isolate;}.cls-3{fill:#aeeef8;}.cls-21,.cls-4{fill:#90b725;}.cls-18,.cls-22,.cls-23,.cls-35,.cls-5,.cls-8,.cls-9,.cls-92,.cls-93,.cls-99{fill:#fff;}.cls-6{fill:#dde3e6;}.cls-7{fill:#006;}.cls-8{opacity:0.45;}.cls-9{opacity:0.38;}.cls-10{clip-path:url(#clip-path);}.cls-11{opacity:0.1;}.cls-12{fill:#008daa;}.cls-13{opacity:0.13;}.cls-100,.cls-14,.cls-16,.cls-17,.cls-19,.cls-21,.cls-26,.cls-27,.cls-28,.cls-29,.cls-30,.cls-31,.cls-34,.cls-36,.cls-37,.cls-40,.cls-42,.cls-43,.cls-44,.cls-45,.cls-47,.cls-48,.cls-50,.cls-51,.cls-65,.cls-68,.cls-76,.cls-80,.cls-83,.cls-89,.cls-93{opacity:0.5;}.cls-14,.cls-18,.cls-22,.cls-23{mix-blend-mode:overlay;}.cls-15,.cls-17,.cls-46,.cls-49{fill:#797e7f;}.cls-100,.cls-102,.cls-103,.cls-16,.cls-17,.cls-19,.cls-20,.cls-21,.cls-25,.cls-26,.cls-27,.cls-28,.cls-29,.cls-30,.cls-31,.cls-33,.cls-34,.cls-36,.cls-37,.cls-39,.cls-41,.cls-42,.cls-43,.cls-44,.cls-45,.cls-46,.cls-47,.cls-48,.cls-49,.cls-50,.cls-51,.cls-52,.cls-54,.cls-55,.cls-56,.cls-57,.cls-58,.cls-59,.cls-60,.cls-61,.cls-62,.cls-63,.cls-64,.cls-65,.cls-67,.cls-68,.cls-70,.cls-71,.cls-72,.cls-73,.cls-74,.cls-75,.cls-76,.cls-77,.cls-78,.cls-79,.cls-80,.cls-82,.cls-83,.cls-84,.cls-86,.cls-88,.cls-89,.cls-91,.cls-94,.cls-95,.cls-96,.cls-97,.cls-98{mix-blend-mode:multiply;}.cls-16{fill:url(#linear-gradient);}.cls-18{opacity:0.1;}.cls-19{fill:url(#linear-gradient-2);}.cls-101,.cls-102,.cls-103,.cls-20,.cls-25,.cls-33,.cls-39,.cls-41,.cls-49,.cls-52,.cls-54,.cls-55,.cls-56,.cls-57,.cls-58,.cls-59,.cls-60,.cls-61,.cls-62,.cls-63,.cls-64,.cls-67,.cls-70,.cls-71,.cls-72,.cls-73,.cls-75,.cls-78,.cls-79,.cls-82,.cls-84,.cls-86,.cls-88,.cls-91,.cls-94,.cls-96,.cls-97,.cls-98{opacity:0.7;}.cls-20{fill:url(#linear-gradient-3);}.cls-22,.cls-99{opacity:0.2;}.cls-23,.cls-77{opacity:0.3;}.cls-24,.cls-26,.cls-74{fill:#4a4d4f;}.cls-25{fill:url(#linear-gradient-4);}.cls-27{fill:url(#linear-gradient-5);}.cls-28{fill:url(#linear-gradient-6);}.cls-29{fill:url(#linear-gradient-7);}.cls-30{fill:url(#linear-gradient-8);}.cls-31{fill:url(#linear-gradient-9);}.cls-32,.cls-34{fill:#28bcbc;}.cls-33{fill:url(#linear-gradient-10);}.cls-35{font-size:2.88px;}.cls-35,.cls-53{font-family:Dosis-ExtraBold, Dosis ExtraBold;font-weight:700;}.cls-36{fill:url(#linear-gradient-11);}.cls-37{fill:url(#linear-gradient-12);}.cls-38,.cls-65,.cls-77{fill:#d3ede4;}.cls-39{fill:url(#linear-gradient-13);}.cls-40,.cls-42,.cls-53,.cls-90{fill:#087777;}.cls-41{fill:url(#linear-gradient-14);}.cls-43{fill:url(#linear-gradient-15);}.cls-44{fill:url(#linear-gradient-16);}.cls-45{fill:url(#linear-gradient-17);}.cls-46,.cls-74,.cls-92,.cls-95{opacity:0.25;}.cls-48{fill:url(#linear-gradient-18);}.cls-50{fill:url(#linear-gradient-19);}.cls-51{fill:url(#linear-gradient-20);}.cls-52{fill:url(#linear-gradient-21);}.cls-53{font-size:1.62px;}.cls-54{fill:url(#linear-gradient-22);}.cls-55{fill:url(#linear-gradient-23);}.cls-56{fill:url(#linear-gradient-24);}.cls-57{fill:url(#linear-gradient-25);}.cls-58{fill:url(#linear-gradient-26);}.cls-59{fill:url(#linear-gradient-27);}.cls-60{fill:url(#linear-gradient-28);}.cls-61{fill:url(#linear-gradient-29);}.cls-62{fill:url(#linear-gradient-30);}.cls-63{fill:url(#linear-gradient-31);}.cls-64{fill:url(#linear-gradient-32);}.cls-66,.cls-68{fill:#c8916e;}.cls-67{fill:url(#linear-gradient-33);}.cls-69{fill:#a0694b;}.cls-70{fill:url(#linear-gradient-34);}.cls-71{fill:url(#linear-gradient-35);}.cls-72{fill:url(#linear-gradient-36);}.cls-73{fill:url(#linear-gradient-37);}.cls-75{fill:url(#linear-gradient-38);}.cls-76{fill:url(#linear-gradient-39);}.cls-78{fill:url(#linear-gradient-40);}.cls-79{fill:url(#linear-gradient-41);}.cls-80{fill:url(#linear-gradient-42);}.cls-100,.cls-81,.cls-95{fill:#1f2021;}.cls-82{fill:url(#linear-gradient-43);}.cls-83{fill:url(#linear-gradient-44);}.cls-84{fill:url(#linear-gradient-45);}.cls-85{stroke:#4a4d4f;stroke-miterlimit:10;stroke-width:0.64px;}.cls-86{fill:url(#linear-gradient-46);}.cls-87,.cls-89{fill:#076666;}.cls-88{fill:url(#linear-gradient-47);}.cls-91{fill:url(#linear-gradient-48);}.cls-94{fill:url(#linear-gradient-49);}.cls-96{fill:url(#linear-gradient-50);}.cls-97{fill:url(#linear-gradient-51);}.cls-98{fill:url(#linear-gradient-52);}.cls-101{mix-blend-mode:soft-light;fill:url(#linear-gradient-53);}.cls-102{fill:url(#linear-gradient-54);}.cls-103{fill:url(#linear-gradient-55);}</style><clipPath id="clip-path"><rect class="cls-1" x="19.18" y="56.51" width="62.88" height="20.67"/></clipPath><linearGradient id="linear-gradient" x1="22.23" y1="68.85" x2="22.23" y2="51.29" gradientUnits="userSpaceOnUse"><stop offset="0" stop-color="#797e7f"/><stop offset="1" stop-color="#797e7f" stop-opacity="0"/></linearGradient><linearGradient id="linear-gradient-2" x1="22.23" y1="69.04" x2="22.23" y2="68.54" xlink:href="#linear-gradient"/><linearGradient id="linear-gradient-3" x1="25.21" y1="63.1" x2="25.21" y2="50.69" gradientUnits="userSpaceOnUse"><stop offset="0" stop-color="#90b725"/><stop offset="1" stop-color="#90b725" stop-opacity="0"/></linearGradient><linearGradient id="linear-gradient-4" x1="-3852.27" y1="63.1" x2="-3852.27" y2="50.69" gradientTransform="matrix(-1, 0, 0, 1, -3833.02, 0)" gradientUnits="userSpaceOnUse"><stop offset="0" stop-color="#4a4d4f"/><stop offset="1" stop-color="#4a4d4f" stop-opacity="0"/></linearGradient><linearGradient id="linear-gradient-5" x1="29.56" y1="69.01" x2="29.56" y2="26.82" xlink:href="#linear-gradient"/><linearGradient id="linear-gradient-6" x1="-2567.94" y1="69.01" x2="-2567.94" y2="26.82" gradientTransform="matrix(-1, 0, 0, 1, -2496.68, 0)" xlink:href="#linear-gradient"/><linearGradient id="linear-gradient-7" x1="50.41" y1="62.14" x2="50.41" y2="61.19" xlink:href="#linear-gradient"/><linearGradient id="linear-gradient-8" x1="50.41" y1="60.99" x2="50.41" y2="56.61" xlink:href="#linear-gradient"/><linearGradient id="linear-gradient-9" x1="50.41" y1="30.06" x2="50.41" y2="26.82" xlink:href="#linear-gradient"/><linearGradient id="linear-gradient-10" x1="50.41" y1="39.23" x2="50.41" y2="34.84" gradientUnits="userSpaceOnUse"><stop offset="0" stop-color="#28bcbc"/><stop offset="1" stop-color="#28bcbc" stop-opacity="0"/></linearGradient><linearGradient id="linear-gradient-11" x1="57.3" y1="61.09" x2="57.3" y2="58.32" xlink:href="#linear-gradient"/><linearGradient id="linear-gradient-12" x1="43.52" y1="61.09" x2="43.52" y2="58.32" xlink:href="#linear-gradient"/><linearGradient id="linear-gradient-13" x1="34.2" y1="38.37" x2="34.2" y2="35.7" gradientUnits="userSpaceOnUse"><stop offset="0" stop-color="#d3ede4"/><stop offset="1" stop-color="#d3ede4" stop-opacity="0"/></linearGradient><linearGradient id="linear-gradient-14" x1="50.41" y1="33.5" x2="50.41" y2="26.82" gradientUnits="userSpaceOnUse"><stop offset="0" stop-color="#087777"/><stop offset="1" stop-color="#087777" stop-opacity="0"/></linearGradient><linearGradient id="linear-gradient-15" x1="42.01" y1="33.12" x2="42.01" y2="26.63" xlink:href="#linear-gradient"/><linearGradient id="linear-gradient-16" x1="58.81" y1="33.12" x2="58.81" y2="26.63" xlink:href="#linear-gradient"/><linearGradient id="linear-gradient-17" x1="50.41" y1="33.59" x2="50.41" y2="32.64" xlink:href="#linear-gradient"/><linearGradient id="linear-gradient-18" x1="79.62" y1="63.28" x2="79.62" y2="35.98" xlink:href="#linear-gradient"/><linearGradient id="linear-gradient-19" x1="79.62" y1="63.38" x2="79.62" y2="69.01" gradientUnits="userSpaceOnUse"><stop offset="0" stop-color="#626668"/><stop offset="1" stop-color="#626668" stop-opacity="0"/></linearGradient><linearGradient id="linear-gradient-20" x1="79.62" y1="63.38" x2="79.62" y2="69.11" xlink:href="#linear-gradient"/><linearGradient id="linear-gradient-21" x1="79.62" y1="62.25" x2="79.62" y2="37.02" xlink:href="#linear-gradient-13"/><linearGradient id="linear-gradient-22" x1="77.9" y1="38.88" x2="77.9" y2="37.47" xlink:href="#linear-gradient-10"/><linearGradient id="linear-gradient-23" x1="77.9" y1="41.17" x2="77.9" y2="39.77" xlink:href="#linear-gradient-10"/><linearGradient id="linear-gradient-24" x1="77.9" y1="43.47" x2="77.9" y2="42.06" xlink:href="#linear-gradient-10"/><linearGradient id="linear-gradient-25" x1="77.9" y1="45.76" x2="77.9" y2="44.35" xlink:href="#linear-gradient-10"/><linearGradient id="linear-gradient-26" x1="77.9" y1="48.05" x2="77.9" y2="46.64" xlink:href="#linear-gradient-10"/><linearGradient id="linear-gradient-27" x1="77.9" y1="50.34" x2="77.9" y2="48.93" xlink:href="#linear-gradient-10"/><linearGradient id="linear-gradient-28" x1="77.9" y1="52.63" x2="77.9" y2="51.22" xlink:href="#linear-gradient-10"/><linearGradient id="linear-gradient-29" x1="77.9" y1="54.92" x2="77.9" y2="53.51" xlink:href="#linear-gradient-10"/><linearGradient id="linear-gradient-30" x1="77.9" y1="57.21" x2="77.9" y2="55.8" xlink:href="#linear-gradient-10"/><linearGradient id="linear-gradient-31" x1="77.9" y1="59.5" x2="77.9" y2="58.09" xlink:href="#linear-gradient-10"/><linearGradient id="linear-gradient-32" x1="77.9" y1="61.79" x2="77.9" y2="60.39" xlink:href="#linear-gradient-10"/><linearGradient id="linear-gradient-33" x1="223.92" y1="36.27" x2="223.92" y2="47.28" gradientTransform="matrix(-1, 0, 0, 1, 283.95, 0)" gradientUnits="userSpaceOnUse"><stop offset="0" stop-color="#c8916e"/><stop offset="1" stop-color="#c8916e" stop-opacity="0"/></linearGradient><linearGradient id="linear-gradient-34" x1="-5590.03" y1="36.27" x2="-5590.03" y2="47.28" gradientTransform="translate(5650.37)" xlink:href="#linear-gradient-33"/><linearGradient id="linear-gradient-35" x1="-1070.23" y1="55.09" x2="-1072.29" y2="57.74" gradientTransform="translate(1124.22)" xlink:href="#linear-gradient-4"/><linearGradient id="linear-gradient-36" x1="-1067.03" y1="67.02" x2="-1067.03" y2="35.76" gradientTransform="translate(1124.22)" xlink:href="#linear-gradient-13"/><linearGradient id="linear-gradient-37" x1="-1066.33" y1="67.36" x2="-1066.33" y2="69.93" gradientTransform="translate(1124.22)" xlink:href="#linear-gradient-4"/><linearGradient id="linear-gradient-38" x1="-1061.78" y1="65.96" x2="-1061.78" y2="69.36" gradientTransform="translate(1124.22)" xlink:href="#linear-gradient-4"/><linearGradient id="linear-gradient-39" x1="-1067.94" y1="47.31" x2="-1067.94" y2="43.92" gradientTransform="translate(1124.22)" xlink:href="#linear-gradient-13"/><linearGradient id="linear-gradient-40" x1="-1064.92" y1="67.02" x2="-1064.92" y2="35.76" gradientTransform="translate(1124.22)" xlink:href="#linear-gradient-13"/><linearGradient id="linear-gradient-41" x1="-1063.85" y1="67.02" x2="-1063.85" y2="35.76" gradientTransform="translate(1124.22)" xlink:href="#linear-gradient-13"/><linearGradient id="linear-gradient-42" x1="-1065.02" y1="62.67" x2="-1065.02" y2="61.85" gradientTransform="translate(1124.22)" xlink:href="#linear-gradient-13"/><linearGradient id="linear-gradient-43" x1="-1065.02" y1="56.56" x2="-1065.02" y2="54.96" gradientTransform="translate(1124.22)" gradientUnits="userSpaceOnUse"><stop offset="0" stop-color="#1f2021"/><stop offset="1" stop-color="#1f2021" stop-opacity="0"/></linearGradient><linearGradient id="linear-gradient-44" x1="-1065.02" y1="61.93" x2="-1065.02" y2="56.6" gradientTransform="translate(1124.22)" xlink:href="#linear-gradient-13"/><linearGradient id="linear-gradient-45" x1="-1063.53" y1="54.89" x2="-1065.99" y2="57.95" gradientTransform="translate(1124.22)" xlink:href="#linear-gradient-4"/><linearGradient id="linear-gradient-46" x1="-1062.99" y1="67.02" x2="-1062.99" y2="35.76" gradientTransform="translate(1124.22)" xlink:href="#linear-gradient-13"/><linearGradient id="linear-gradient-47" x1="-1061.65" y1="40.63" x2="-1061.65" y2="39.72" gradientTransform="translate(1124.22)" gradientUnits="userSpaceOnUse"><stop offset="0" stop-color="#076666"/><stop offset="1" stop-color="#076666" stop-opacity="0"/></linearGradient><linearGradient id="linear-gradient-48" x1="-1066.91" y1="40.82" x2="-1066.91" y2="39.54" gradientTransform="translate(1124.22)" xlink:href="#linear-gradient-14"/><linearGradient id="linear-gradient-49" x1="1379.32" y1="1176.28" x2="1380.07" y2="1176.28" gradientTransform="matrix(0.83, -0.56, 0.56, 0.83, -1751.56, -136.66)" xlink:href="#linear-gradient-43"/><linearGradient id="linear-gradient-50" x1="1372.59" y1="1174.13" x2="1378.57" y2="1174.13" gradientTransform="translate(-1750.03 -138.03) rotate(-34.19)" xlink:href="#linear-gradient-43"/><linearGradient id="linear-gradient-51" x1="1378.58" y1="1177.24" x2="1381.73" y2="1177.24" gradientTransform="translate(-1751 -141.15) rotate(-34.19)" xlink:href="#linear-gradient-43"/><linearGradient id="linear-gradient-52" x1="1371.67" y1="1172.26" x2="1373.15" y2="1172.26" gradientTransform="translate(-1546.89 913.79) rotate(-68.64)" xlink:href="#linear-gradient-43"/><linearGradient id="linear-gradient-53" x1="59.78" y1="63.36" x2="59.78" y2="70.03" gradientTransform="matrix(-1, 0, 0, 1, 104.13, 0)" gradientUnits="userSpaceOnUse"><stop offset="0" stop-color="#fff"/><stop offset="1" stop-color="#fff" stop-opacity="0"/></linearGradient><linearGradient id="linear-gradient-54" x1="-1069.91" y1="55.34" x2="-1071.97" y2="57.99" gradientTransform="translate(1124.22)" xlink:href="#linear-gradient-4"/><linearGradient id="linear-gradient-55" x1="-1070.69" y1="54.72" x2="-1072.76" y2="57.37" gradientTransform="translate(1124.22)" xlink:href="#linear-gradient-4"/></defs><title>public tesport</title><g class="cls-2"><g id="Layer_1" data-name="Layer 1"><polygon class="cls-3" points="50.22 10.49 15.93 30.28 15.99 70.36 50.4 89.85 84.66 70 84.66 30.29 50.22 10.49"/><g id="svg140"><path id="rect2" class="cls-1" d="M0,0H100V100H0Z"/><path id="path2129" class="cls-4" d="M50,.13,6.81,25.06V74.94l8.48,4.89.16.09L50,99.88,93.19,74.94V25.06ZM86.28,70.85l-.8.46-.7.4L82.71,72.9h0l-2.8,1.61-1.47.85L76,76.77l-1.22.7L72.46,78.8l-.87.51-.3.17-2.95,1.7-.19.1-.1.06h0l-.33.19-.25.14-.17.1-.43.24-.27.17-.29.16-.41.24-.2.11h0l-.36.21h0l-.36.21-1,.57-.62.36-.49.28-.17.09-.18.11h0l-.3.17-1.82,1L60,86l-.52.3-.51.3-.58.33L56.52,88l-3,1.73-.19.11-.39.23-.54.31h-.07l-1.41.8-.24.14h0l-.11.06-.15.08h0l-.11-.06-1-.58-.67-.38h0L47.93,90l-.21,0h0l-.48-.27-.13-.08-2.62-1.51h0l-1.61-.93-1-.55-.3-.17-1.45-.84-2.49-1.43L37.3,84h-.06l-.1-.06-.24-.14-.14-.08-.69-.4-1-.61-.68-.39-1.49-.87h0l-.15-.08-.08-.05-.12-.06h0L32,81l-4.19-2.42L25,76.9l-1-.58-.36-.2L22.4,75.4l-1.47-.85-.42-.24L20,74l-3.37-1.95L16.49,72l-.58-.33-1.34-.78h-.06V29.45l1.2-.69,3.3-1.9,2.32-1.34.78-.45L24,24h0l2.19-1.26.31-.18h0l.16-.09.57-.33.32-.18h.08l.27-.16.1-.06.93-.53.6-.35.57-.33.12-.06h0l.18-.11.23-.13L31,20l.19-.12h.08l.41-.24.21-.12.38-.22h0l.39-.22,2.74-1.58.36-.21.41-.23.59-.34,1.7-1h.07L50,9l.37-.21h0l.83.48,5.06,2.92,2,1.17,1.17.67,2.77,1.6.18.1.81.47L66,17.75l4.13,2.38h.08l.68.39,1.18.69,1.07.62.62.36h.07l1.41.81,2.95,1.7h0l.9.52.7.4.39.23.38.22h.08l.6.35.56.33.42.23,4,2.32Z"/><path id="path2133" class="cls-5" d="M60.94,89.64l1.22-.7,0,.1a2.33,2.33,0,0,1,.26.63,1.47,1.47,0,0,1,0,.59,1.55,1.55,0,0,1-.78,1.06,1.67,1.67,0,0,1-1.32.17,1.78,1.78,0,0,1-.4-3.25A1.74,1.74,0,0,1,60.7,88a2.15,2.15,0,0,1,.83.13l-.15.48a1.25,1.25,0,0,0-1.17,0,1.21,1.21,0,0,0-.6.78,1.25,1.25,0,0,0,.14,1,1.2,1.2,0,0,0,.82.61,1.22,1.22,0,0,0,.89-.12,1,1,0,0,0,.46-.56.92.92,0,0,0,0-.7l-.74.42Z"/><path id="rect2135" class="cls-5" d="M62.93,86.61l.45-.26,1.7,3-.45.26Z"/><path id="polygon2137" class="cls-5" d="M65,86l-.24-.42,1.8-1,.24.42-.68.39,1.46,2.53-.44.26-1.46-2.53Z"/><path id="path2139" class="cls-6" d="M70.17,82.65l.3.53a1.42,1.42,0,0,0-1,.14,1.18,1.18,0,0,0-.58.77,1.27,1.27,0,0,0,.14,1,1.24,1.24,0,0,0,.76.6,1.2,1.2,0,0,0,1-.12,1.1,1.1,0,0,0,.35-.31,1.25,1.25,0,0,0,.13-.21,2.54,2.54,0,0,0,.12-.28l.31.54A1.87,1.87,0,0,1,71,86a1.75,1.75,0,0,1-2.39-.63h0a1.76,1.76,0,0,1-.2-1.22,1.7,1.7,0,0,1,.88-1.23,1.73,1.73,0,0,1,.89-.23"/><path id="path2141" class="cls-7" d="M72.33,82.52a1.67,1.67,0,0,1-.16-1.33A1.74,1.74,0,0,1,73,80.1a1.78,1.78,0,0,1,2.42.65,1.68,1.68,0,0,1,.17,1.34,1.8,1.8,0,0,1-2.1,1.28,1.68,1.68,0,0,1-1.16-.86m.45-.25a1.23,1.23,0,0,0,.79.61A1.26,1.26,0,0,0,75.11,82a1.32,1.32,0,0,0-.91-1.58,1.29,1.29,0,0,0-1.59.9,1.23,1.23,0,0,0,.13,1"/><path id="rect2143" class="cls-6" d="M76.16,79l.45-.26,1.7,3-.45.26Z"/><path id="polygon2145" class="cls-6" d="M80.93,76.25l1.8,3.13-3.45-1,1.19,2.07L80,80.7l-1.82-3.15,3.45,1-1.14-2Z"/><path class="cls-8" d="M47.38,43.68a2.25,2.25,0,0,1-.6-4.43,4.51,4.51,0,0,1,4-5l.49,0a4.49,4.49,0,0,1,2.86,1,3.92,3.92,0,0,1,3.38-3.16,3.74,3.74,0,0,1,7.27.06,2,2,0,0,1,3,1.52,2.66,2.66,0,0,1,3.06.3,3.38,3.38,0,0,1,5.35-.72,3.56,3.56,0,0,1,6-2.1,3.78,3.78,0,0,1,2.9-1.35V43.68Z"/><path class="cls-9" d="M44.55,39.77a1.65,1.65,0,0,0,1.7-1.52A1.56,1.56,0,0,0,45,36.79a2.74,2.74,0,0,0,0-.35,3.24,3.24,0,0,0-3.4-3,3.65,3.65,0,0,0-2.16.69A2.84,2.84,0,0,0,36.88,32a2.92,2.92,0,0,0-5.49,0,1.65,1.65,0,0,0-.76-.18A1.44,1.44,0,0,0,29.2,33a2.18,2.18,0,0,0-1-.2,2.15,2.15,0,0,0-1.31.44,2.61,2.61,0,0,0-2.23-1.16,2.7,2.7,0,0,0-1.83.68,2.6,2.6,0,0,0-2.67-2.12,2.86,2.86,0,0,0-1.86.67,3,3,0,0,0-2.19-.91v9.35Z"/><g id="_371128936" data-name=" 371128936"><path id="_371186912" data-name=" 371186912" class="cls-5" d="M23.64,35.38a.25.25,0,0,0-.23.09.94.94,0,0,1-.9-.19.62.62,0,0,0-.22,0l.27-.11c-.18-.12-.55,0-.77-.06h-.13V35a1.63,1.63,0,0,0,.81,0c.45,0,.24.17.63.14l.1-.14h0l.2-.12c.31-.15.8-.26,1.24-.48-.14.28-.56.42-.74.51s-.31.19-.31.33l.51.15c-.08.13-.29.12-.44.12Z"/><path id="_371186792" data-name=" 371186792" class="cls-5" d="M32.58,28.48a.25.25,0,0,0-.23.09.94.94,0,0,1-.9-.19.62.62,0,0,0-.22,0l.27-.11c-.18-.12-.55,0-.77-.06H30.6v-.07a1.63,1.63,0,0,0,.81,0c.45,0,.24.17.63.14l.1-.14h0l.2-.12c.31-.15.8-.26,1.24-.48-.14.28-.56.42-.74.51s-.31.19-.31.33l.51.15c-.08.13-.29.12-.44.12Z"/><path id="_371129424" data-name=" 371129424" class="cls-5" d="M70.73,36.27a.25.25,0,0,0-.23.09.94.94,0,0,1-.9-.19.62.62,0,0,0-.22,0l.27-.11c-.18-.12-.55,0-.77-.06h-.13v-.07a1.63,1.63,0,0,0,.81,0c.45,0,.24.17.63.14l.1-.14h0l.2-.12c.31-.15.8-.26,1.24-.48-.14.28-.56.42-.74.51s-.31.19-.31.33l.51.15c-.08.13-.29.12-.44.12Z"/><path id="_371129304" data-name=" 371129304" class="cls-5" d="M64.3,29.27a.25.25,0,0,0-.23.09.94.94,0,0,1-.9-.19.62.62,0,0,0-.22,0l.27-.11c-.18-.12-.55,0-.77-.06h-.13v-.07a1.63,1.63,0,0,0,.81,0c.45,0,.24.17.63.14l.1-.14h0l.2-.12c.31-.15.8-.26,1.24-.48-.14.28-.56.42-.74.51s-.31.19-.31.33l.51.15c-.08.13-.29.12-.44.12Z"/><path id="_371129184" data-name=" 371129184" class="cls-5" d="M77.78,27.81a.25.25,0,0,0-.23.09.94.94,0,0,1-.9-.19.62.62,0,0,0-.22,0l.27-.11c-.18-.12-.55,0-.77-.06H75.8v-.07a1.63,1.63,0,0,0,.81,0c.45,0,.24.17.63.14l.1-.14h0l.2-.12c.31-.15.8-.26,1.24-.48-.14.28-.56.42-.74.51s-.31.19-.31.33l.51.15c-.08.13-.29.12-.44.12Z"/><path id="_371129016" data-name=" 371129016" class="cls-5" d="M40.8,35.06a.25.25,0,0,0-.23.09.94.94,0,0,1-.9-.19.62.62,0,0,0-.22,0l.27-.11c-.18-.12-.55,0-.77-.06h-.13v-.07a1.63,1.63,0,0,0,.81,0c.45,0,.24.17.63.14l.1-.14h0l.2-.12c.31-.15.8-.26,1.24-.48-.14.28-.56.42-.74.51s-.31.19-.31.33l.51.15c-.08.13-.29.12-.44.12Z"/></g><g class="cls-10"><g class="cls-11"><circle class="cls-5" cx="32.05" cy="69.1" r="0.08"/><circle class="cls-5" cx="28.78" cy="75.99" r="0.1"/><circle class="cls-5" cx="30.46" cy="74.11" r="0.09"/><circle class="cls-5" cx="29.2" cy="81.9" r="0.15"/><circle class="cls-5" cx="33.28" cy="73.12" r="0.12"/><circle class="cls-5" cx="31.18" cy="74.52" r="0.07"/><circle class="cls-5" cx="29.62" cy="73.2" r="0.08"/><circle class="cls-5" cx="28.54" cy="79.68" r="0.1"/><circle class="cls-5" cx="29.38" cy="81" r="0.12"/><circle class="cls-5" cx="34.92" cy="76.73" r="0.18" transform="matrix(0.07, -1, 1, 0.07, -44.08, 106.16)"/><circle class="cls-5" cx="31.96" cy="83.13" r="0.2" transform="translate(-53.18 109.26) rotate(-86.03)"/><circle class="cls-5" cx="32.66" cy="81.73" r="0.21" transform="translate(-51.16 108.58) rotate(-85.98)"/><circle class="cls-5" cx="33.31" cy="84.68" r="0.17" transform="translate(-53.48 112.02) rotate(-86.01)"/><circle class="cls-5" cx="36.26" cy="76.24" r="0.12" transform="translate(-42.4 106.89) rotate(-85.85)"/><circle class="cls-5" cx="32.99" cy="76.81" r="0.07" transform="translate(-45.94 104.35) rotate(-85.99)"/><circle class="cls-5" cx="35.89" cy="70.09" r="0.18" transform="translate(-36.54 101) rotate(-86)"/><circle class="cls-5" cx="34.08" cy="82.97" r="0.11" transform="translate(-51.01 111.36) rotate(-86.12)"/><circle class="cls-5" cx="34.76" cy="73.7" r="0.13" transform="translate(-41.17 103.26) rotate(-86.02)"/><circle class="cls-5" cx="35.95" cy="79.84" r="0.19" transform="matrix(0.07, -1, 1, 0.07, -46.2, 110.13)"/><circle class="cls-5" cx="23.69" cy="75.58" r="0.07"/><circle class="cls-5" cx="27.09" cy="73.94" r="0.2"/><circle class="cls-5" cx="24.35" cy="75.83" r="0.19"/><circle class="cls-5" cx="26.19" cy="68.77" r="0.07"/><circle class="cls-5" cx="25.93" cy="77.39" r="0.11"/><circle class="cls-5" cx="27.2" cy="83.7" r="0.16"/><circle class="cls-5" cx="25.03" cy="72.06" r="0.21"/><circle class="cls-5" cx="27.41" cy="70.66" r="0.09"/><circle class="cls-5" cx="26.56" cy="79.36" r="0.16"/><circle class="cls-5" cx="27.22" cy="80.67" r="0.07"/><circle class="cls-5" cx="24.56" cy="81.82" r="0.07"/><circle class="cls-5" cx="25.11" cy="80.59" r="0.09"/><circle class="cls-5" cx="27.28" cy="73.61" r="0.18"/><circle class="cls-5" cx="18.53" cy="70.74" r="0.12"/><circle class="cls-5" cx="36.79" cy="58.35" r="0.13" transform="translate(-24.06 90.84) rotate(-85.87)"/><circle class="cls-5" cx="20.84" cy="75.43" r="0.18" transform="matrix(0.07, -1, 1, 0.07, -55.87, 90.89)"/><circle class="cls-5" cx="22.64" cy="74.27" r="0.12" transform="translate(-53.02 91.71) rotate(-86.03)"/><circle class="cls-5" cx="19.53" cy="81.08" r="0.11" transform="translate(-62.7 94.99) rotate(-86.06)"/><circle class="cls-5" cx="20.34" cy="71.9" r="0.13" transform="translate(-52.83 87.06) rotate(-85.91)"/><circle class="cls-5" cx="23.35" cy="70.49" r="0.11" transform="translate(-48.57 88.98) rotate(-86.09)"/><circle class="cls-5" cx="22.16" cy="78.71" r="0.19" transform="translate(-57.91 95.31) rotate(-85.99)"/><circle class="cls-5" cx="39.35" cy="56.47" r="0.07"/><circle class="cls-5" cx="37.74" cy="62.54" r="0.21"/><circle class="cls-5" cx="38.42" cy="59.92" r="0.17"/><circle class="cls-5" cx="38.13" cy="58.6" r="0.09"/><circle class="cls-5" cx="44.54" cy="56.96" r="0.08"/><circle class="cls-5" cx="46.47" cy="59.25" r="0.13" transform="translate(-15.88 101.46) rotate(-86)"/><circle class="cls-5" cx="40.24" cy="57.46" r="0.18" transform="translate(-19.89 93.59) rotate(-86)"/><circle class="cls-5" cx="39.66" cy="60.91" r="0.21" transform="translate(-23.87 96.21) rotate(-85.99)"/><circle class="cls-5" cx="50.28" cy="58.85" r="0.07"/><circle class="cls-5" cx="49.91" cy="57.29" r="0.07"/><circle class="cls-5" cx="48.73" cy="63.85" r="0.21"/><circle class="cls-5" cx="49.33" cy="62.21" r="0.17"/><circle class="cls-5" cx="49.07" cy="60.65" r="0.09"/><circle class="cls-5" cx="55.95" cy="59.26" r="0.08"/><circle class="cls-5" cx="54.66" cy="53.6" r="0.12"/><circle class="cls-5" cx="57.63" cy="61.73" r="0.13" transform="translate(-8.04 114.82) rotate(-85.92)"/><circle class="cls-5" cx="51.6" cy="60.48" r="0.18" transform="translate(-12.34 107.73) rotate(-86)"/><circle class="cls-5" cx="50.71" cy="63.2" r="0.21" transform="translate(-15.86 109.4) rotate(-86.02)"/><circle class="cls-5" cx="50.74" cy="53.46" r="0.11" transform="translate(-6.13 100.35) rotate(-86)"/><circle class="cls-5" cx="61.4" cy="59.75" r="0.07"/><circle class="cls-5" cx="61.17" cy="57.62" r="0.07"/><circle class="cls-5" cx="59.95" cy="64.26" r="0.21"/><circle class="cls-5" cx="60.56" cy="62.38" r="0.17"/><circle class="cls-5" cx="61.14" cy="53.85" r="0.21"/><circle class="cls-5" cx="60.51" cy="55.4" r="0.09"/><circle class="cls-5" cx="60.27" cy="61.8" r="0.09"/><circle class="cls-5" cx="66.96" cy="60.41" r="0.08"/><circle class="cls-5" cx="64.38" cy="55.32" r="0.12"/><circle class="cls-5" cx="71.31" cy="54.34" r="0.08"/><circle class="cls-5" cx="70.36" cy="62.62" r="0.13" transform="matrix(0.07, -1, 1, 0.07, 2.82, 128.28)"/><circle class="cls-5" cx="61.93" cy="61.14" r="0.18" transform="matrix(0.07, -1, 1, 0.07, -3.43, 118.6)"/><circle class="cls-5" cx="61.72" cy="63.36" r="0.21" transform="matrix(0.07, -1, 1, 0.07, -5.83, 120.46)"/><circle class="cls-5" cx="61.79" cy="56.14" r="0.11" transform="translate(1.52 113.91) rotate(-86.04)"/><circle class="cls-5" cx="77.9" cy="59.83" r="0.07"/><circle class="cls-5" cx="77.45" cy="57.86" r="0.07"/><circle class="cls-5" cx="75.5" cy="64.59" r="0.21"/><circle class="cls-5" cx="76.56" cy="62.95" r="0.17"/><circle class="cls-5" cx="76.4" cy="55.65" r="0.09"/><circle class="cls-5" cx="76.08" cy="62.05" r="0.09"/><circle class="cls-5" cx="81.19" cy="81.65" r="0.13"/><circle class="cls-5" cx="81.06" cy="71.07" r="0.1"/><circle class="cls-5" cx="81.49" cy="69.43" r="0.09"/><circle class="cls-5" cx="81.22" cy="78.21" r="0.15"/><circle class="cls-5" cx="81.96" cy="69.92" r="0.07"/><circle class="cls-5" cx="80.96" cy="75.75" r="0.1"/><circle class="cls-5" cx="81.33" cy="84.36" r="0.19"/><circle class="cls-5" cx="81.3" cy="76.65" r="0.12"/><circle class="cls-5" cx="82.76" cy="84.04" r="0.09" transform="translate(-7.01 160.55) rotate(-85.88)"/><circle class="cls-5" cx="81.66" cy="83.61" r="0.11" transform="translate(-7.32 159.38) rotate(-86.09)"/><circle class="cls-5" cx="82.52" cy="79.44" r="0.2" transform="translate(-2.58 156.11) rotate(-85.93)"/><circle class="cls-5" cx="81.8" cy="82.4" r="0.11" transform="translate(-5.93 158.45) rotate(-86.13)"/><circle class="cls-5" cx="74.45" cy="71.65" r="0.07"/><circle class="cls-5" cx="74.98" cy="72.22" r="0.19"/><circle class="cls-5" cx="77.24" cy="74.35" r="0.11"/><circle class="cls-5" cx="78.59" cy="80.18" r="0.16"/><circle class="cls-5" cx="78.03" cy="75.67" r="0.16"/><circle class="cls-5" cx="77.85" cy="81.41" r="0.07"/><circle class="cls-5" cx="78.88" cy="83.38" r="0.08"/><circle class="cls-5" cx="78.61" cy="77.63" r="0.07"/><circle class="cls-5" cx="75.27" cy="78.86" r="0.07"/><circle class="cls-5" cx="75.53" cy="82.14" r="0.13" transform="translate(-11.65 151.79) rotate(-86.02)"/><circle class="cls-5" cx="64.88" cy="80.92" r="0.13"/><circle class="cls-5" cx="76.11" cy="77.14" r="0.09"/><circle class="cls-5" cx="78.3" cy="83.87" r="0.13"/><circle class="cls-5" cx="64.86" cy="69.84" r="0.1"/><circle class="cls-5" cx="65.07" cy="77.31" r="0.15"/><circle class="cls-5" cx="64.54" cy="74.68" r="0.1"/><circle class="cls-5" cx="65.41" cy="83.46" r="0.19"/><circle class="cls-5" cx="65.2" cy="76.4" r="0.12"/><circle class="cls-5" cx="70.7" cy="71.31" r="0.18" transform="matrix(0.07, -1, 1, 0.07, -5.41, 136.82)"/><circle class="cls-5" cx="67.75" cy="83.05" r="0.09" transform="translate(-19.97 144.63) rotate(-85.86)"/><circle class="cls-5" cx="66.23" cy="82.71" r="0.11" transform="translate(-20.86 143.07) rotate(-86.04)"/><circle class="cls-5" cx="67.41" cy="78.54" r="0.2" transform="translate(-15.75 140.16) rotate(-85.9)"/><circle class="cls-5" cx="68.03" cy="76.9" r="0.21" transform="translate(-13.44 139.39) rotate(-85.99)"/><circle class="cls-5" cx="66.62" cy="81.24" r="0.11" transform="translate(-19.19 141.87) rotate(-85.89)"/><circle class="cls-5" cx="68.63" cy="80.1" r="0.17" transform="translate(-16.02 143.03) rotate(-86.04)"/><circle class="cls-5" cx="72.64" cy="70.09" r="0.12" transform="translate(-2.48 137.52) rotate(-85.89)"/><circle class="cls-5" cx="68.25" cy="72.13" r="0.07" transform="translate(-8.64 134.97) rotate(-85.84)"/><circle class="cls-5" cx="69.15" cy="78.29" r="0.11" transform="translate(-13.65 141.97) rotate(-86.11)"/><circle class="cls-5" cx="72.27" cy="75.01" r="0.19" transform="translate(-7.55 141.93) rotate(-86.04)"/><circle class="cls-5" cx="71.79" cy="84.52" r="0.14" transform="translate(-17.58 150.18) rotate(-85.96)"/><circle class="cls-5" cx="34.05" cy="57.13" r="0.07"/><circle class="cls-5" cx="31.62" cy="66.64" r="0.07"/><circle class="cls-5" cx="32.33" cy="62.87" r="0.07"/><circle class="cls-5" cx="36.45" cy="61.64" r="0.07"/><circle class="cls-5" cx="35.18" cy="66.07" r="0.07"/><circle class="cls-5" cx="30.67" cy="61.88" r="0.07"/><circle class="cls-5" cx="29.41" cy="65.17" r="0.07"/><circle class="cls-5" cx="29.81" cy="56.88" r="0.13"/><circle class="cls-5" cx="29.73" cy="66.72" r="0.16"/><circle class="cls-5" cx="31.44" cy="54.42" r="0.21"/><circle class="cls-5" cx="30.49" cy="55.08" r="0.1"/><circle class="cls-5" cx="29.57" cy="60" r="0.07"/><circle class="cls-5" cx="30.99" cy="59.09" r="0.2"/><circle class="cls-5" cx="30.31" cy="68.45" r="0.11"/><circle class="cls-5" cx="34.15" cy="67.87" r="0.19"/><circle class="cls-5" cx="35.95" cy="60.98" r="0.14"/><circle class="cls-5" cx="34.68" cy="64.02" r="0.11"/><circle class="cls-5" cx="35.97" cy="53.44" r="0.17" transform="translate(-19.82 85.64) rotate(-86.05)"/><circle class="cls-5" cx="36.07" cy="56.55" r="0.15" transform="translate(-22.83 88.64) rotate(-86.05)"/><circle class="cls-5" cx="27.94" cy="58.93" r="0.09" transform="matrix(0.07, -1, 1, 0.07, -32.74, 82.84)"/><circle class="cls-5" cx="27.86" cy="55.56" r="0.13" transform="translate(-29.49 79.53) rotate(-86.05)"/><circle class="cls-5" cx="35" cy="54.83" r="0.11" transform="translate(-22.2 85.81) rotate(-85.89)"/><circle class="cls-5" cx="32.97" cy="66.47" r="0.17" transform="translate(-35.64 94.71) rotate(-85.99)"/><circle class="cls-5" cx="31.12" cy="68.94" r="0.15" transform="translate(-39.89 94.99) rotate(-85.85)"/><circle class="cls-5" cx="32.22" cy="61.24" r="0.13" transform="translate(-31.12 89.1) rotate(-86)"/><circle class="cls-5" cx="34.74" cy="58.28" r="0.16" transform="translate(-25.83 88.85) rotate(-85.98)"/><circle class="cls-5" cx="33.3" cy="59.17" r="0.18" transform="translate(-28.05 88.26) rotate(-86)"/><circle class="cls-5" cx="31.71" cy="64.43" r="0.15" transform="translate(-34.75 91.64) rotate(-86.06)"/><circle class="cls-5" cx="34.11" cy="63.6" r="0.11" transform="matrix(0.07, -1, 1, 0.07, -31.74, 93.16)"/><circle class="cls-5" cx="29.08" cy="62.79" r="0.18" transform="translate(-35.58 87.44) rotate(-86.02)"/><circle class="cls-5" cx="28.3" cy="64.68" r="0.15" transform="translate(-38.16 88.5) rotate(-86.09)"/><circle class="cls-5" cx="28.86" cy="69.35" r="0.19" transform="translate(-42.36 93.24) rotate(-85.95)"/><circle class="cls-5" cx="21.69" cy="57.04" r="0.07"/><circle class="cls-5" cx="18.89" cy="66.4" r="0.07"/><circle class="cls-5" cx="19.82" cy="62.46" r="0.07"/><circle class="cls-5" cx="24.88" cy="61.56" r="0.07"/><circle class="cls-5" cx="23.27" cy="65.58" r="0.07"/><circle class="cls-5" cx="18.87" cy="54.17" r="0.21"/><circle class="cls-5" cx="26.75" cy="65.74" r="0.19"/><circle class="cls-5" cx="21.95" cy="67.54" r="0.19"/><circle class="cls-5" cx="24.06" cy="60.74" r="0.14"/><circle class="cls-5" cx="26.59" cy="57.7" r="0.2"/><circle class="cls-5" cx="22.5" cy="63.69" r="0.11"/><circle class="cls-5" cx="24.51" cy="56.38" r="0.15" transform="translate(-33.44 76.91) rotate(-86.01)"/><circle class="cls-5" cx="22.93" cy="54.58" r="0.11" transform="translate(-33.12 73.65) rotate(-86)"/><circle class="cls-5" cx="20.26" cy="66.32" r="0.17" transform="translate(-47.31 81.89) rotate(-85.99)"/><circle class="cls-5" cx="19.29" cy="61.23" r="0.14" transform="translate(-43.16 76.11) rotate(-85.92)"/><circle class="cls-5" cx="22.58" cy="58.03" r="0.16" transform="translate(-36.86 76.58) rotate(-86.07)"/><circle class="cls-5" cx="20.59" cy="59.18" r="0.18" transform="matrix(0.07, -1, 1, 0.07, -39.92, 75.46)"/><circle class="cls-5" cx="19" cy="64.18" r="0.15" transform="translate(-46.36 78.61) rotate(-85.96)"/><circle class="cls-5" cx="21.76" cy="63.52" r="0.11" transform="matrix(0.07, -1, 1, 0.07, -43.11, 80.83)"/><circle class="cls-5" cx="26.3" cy="68.29" r="0.16" transform="translate(-43.68 89.7) rotate(-85.95)"/><circle class="cls-5" cx="44.67" cy="83.79" r="0.07"/><circle class="cls-5" cx="47.44" cy="81.16" r="0.07"/><circle class="cls-5" cx="48.04" cy="80.01" r="0.12"/><circle class="cls-5" cx="46.72" cy="79.11" r="0.15"/><circle class="cls-5" cx="46.88" cy="84.61" r="0.17"/><circle class="cls-5" cx="48.36" cy="82.8" r="0.09"/><circle class="cls-5" cx="43.06" cy="84.85" r="0.18"/><circle class="cls-5" cx="41.08" cy="79.03" r="0.07"/><circle class="cls-5" cx="41.59" cy="83.54" r="0.11"/><circle class="cls-5" cx="43.19" cy="78.13" r="0.1"/><circle class="cls-5" cx="44.35" cy="81.49" r="0.17"/><circle class="cls-5" cx="45.83" cy="72.63" r="0.17"/><circle class="cls-5" cx="46.99" cy="75.34" r="0.15"/><circle class="cls-5" cx="47.36" cy="70.33" r="0.07"/><circle class="cls-5" cx="45.49" cy="68.12" r="0.2"/><circle class="cls-5" cx="45.04" cy="76.16" r="0.07"/><circle class="cls-5" cx="45.99" cy="76.49" r="0.16"/><circle class="cls-5" cx="47.33" cy="73.45" r="0.16"/><circle class="cls-5" cx="45.22" cy="73.78" r="0.13"/><circle class="cls-5" cx="46.12" cy="70.25" r="0.16"/><circle class="cls-5" cx="46.7" cy="66.97" r="0.2"/><circle class="cls-5" cx="45.01" cy="65.66" r="0.12"/><circle class="cls-5" cx="45.25" cy="69.76" r="0.15"/><circle class="cls-5" cx="48.02" cy="67.63" r="0.1"/><circle class="cls-5" cx="40.11" cy="55.49" r="0.21"/><circle class="cls-5" cx="46.2" cy="84.44" r="0.18" transform="translate(-41.4 124.33) rotate(-85.8)"/><circle class="cls-5" cx="45.57" cy="79.77" r="0.16" transform="translate(-37.17 119.69) rotate(-86.02)"/><circle class="cls-5" cx="46.12" cy="83.18" r="0.18" transform="translate(-40.08 123.38) rotate(-86)"/><circle class="cls-5" cx="46.59" cy="77.06" r="0.11" transform="translate(-33.53 118.16) rotate(-86)"/><circle class="cls-5" cx="45.52" cy="74.85" r="0.07" transform="translate(-32.2 115.27) rotate(-86.17)"/><circle class="cls-5" cx="44.9" cy="82.3" r="0.2" transform="translate(-40.34 121.33) rotate(-85.99)"/><circle class="cls-5" cx="46.77" cy="80.41" r="0.15" transform="matrix(0.07, -1, 1, 0.07, -36.69, 121.49)"/><circle class="cls-5" cx="42.79" cy="82.06" r="0.08" transform="translate(-42.18 118.74) rotate(-85.81)"/><circle class="cls-5" cx="42.53" cy="77.56" r="0.1" transform="translate(-37.87 114.44) rotate(-85.9)"/><circle class="cls-5" cx="44.62" cy="67.79" r="0.15" transform="matrix(0.07, -1, 1, 0.07, -26.15, 107.51)"/><circle class="cls-5" cx="45.8" cy="70.41" r="0.11" transform="translate(-27.63 111.19) rotate(-86)"/><circle class="cls-5" cx="45.75" cy="67.21" r="0.18" transform="matrix(0.07, -1, 1, 0.07, -24.57, 108.01)"/><circle class="cls-5" cx="44.24" cy="65.24" r="0.21" transform="translate(-23.93 104.82) rotate(-85.99)"/><circle class="cls-5" cx="43.01" cy="71.24" r="0.07" transform="matrix(0.07, -1, 1, 0.07, -31.13, 109.03)"/><circle class="cls-5" cx="44.95" cy="71.15" r="0.11" transform="translate(-29.04 111.26) rotate(-86.18)"/><circle class="cls-5" cx="46.13" cy="69.59" r="0.17" transform="translate(-26.6 110.59) rotate(-85.87)"/><circle class="cls-5" cx="43.83" cy="68.53" r="0.07" transform="translate(-27.54 107.57) rotate(-86.08)"/><circle class="cls-5" cx="44.73" cy="66.81" r="0.2" transform="translate(-25.03 106.78) rotate(-86.01)"/><circle class="cls-5" cx="45.59" cy="65" r="0.2" transform="translate(-22.46 105.9) rotate(-85.96)"/><circle class="cls-5" cx="43.88" cy="63.28" r="0.1" transform="translate(-22.38 102.52) rotate(-85.9)"/><circle class="cls-5" cx="43.59" cy="66.56" r="0.2" transform="translate(-25.92 105.27) rotate(-85.89)"/><circle class="cls-5" cx="46.43" cy="66.15" r="0.2" transform="matrix(0.07, -1, 1, 0.07, -22.82, 107.82)"/><circle class="cls-5" cx="40.9" cy="63.78" r="0.12" transform="matrix(0.07, -1, 1, 0.07, -25.61, 100.07)"/><circle class="cls-5" cx="43.31" cy="64.92" r="0.15" transform="matrix(0.07, -1, 1, 0.07, -24.51, 103.54)"/><circle class="cls-5" cx="41.95" cy="68.62" r="0.15" transform="translate(-29.46 105.62) rotate(-85.95)"/><circle class="cls-5" cx="40.72" cy="65.41" r="0.13" transform="translate(-27.39 101.43) rotate(-85.97)"/><circle class="cls-5" cx="44.2" cy="64.11" r="0.11" transform="translate(-22.91 103.6) rotate(-85.89)"/><circle class="cls-5" cx="40.09" cy="73.37" r="0.13" transform="matrix(0.07, -1, 1, 0.07, -35.92, 108.2)"/><circle class="cls-5" cx="42.29" cy="75.91" r="0.14" transform="translate(-36.47 112.62) rotate(-85.87)"/><circle class="cls-5" cx="42.8" cy="71.5" r="0.19" transform="translate(-31.52 109.21) rotate(-86)"/><circle class="cls-5" cx="53.87" cy="56.72" r="0.07"/><circle class="cls-5" cx="58.87" cy="84.11" r="0.07"/><circle class="cls-5" cx="59.4" cy="82.64" r="0.12"/><circle class="cls-5" cx="58.03" cy="81.57" r="0.15"/><circle class="cls-5" cx="51.97" cy="80.83" r="0.07"/><circle class="cls-5" cx="54.21" cy="80.51" r="0.1"/><circle class="cls-5" cx="55.45" cy="83.95" r="0.17"/><circle class="cls-5" cx="57.21" cy="76.32" r="0.17"/><circle class="cls-5" cx="58.35" cy="78.45" r="0.15"/><circle class="cls-5" cx="58.74" cy="73.29" r="0.07"/><circle class="cls-5" cx="56.77" cy="72.3" r="0.2"/><circle class="cls-5" cx="56.26" cy="78.37" r="0.07"/><circle class="cls-5" cx="57.35" cy="78.95" r="0.16"/><circle class="cls-5" cx="58.85" cy="77.22" r="0.16"/><circle class="cls-5" cx="56.29" cy="77.8" r="0.13"/><circle class="cls-5" cx="57.37" cy="74.19" r="0.16"/><circle class="cls-5" cx="58.21" cy="70.83" r="0.2"/><circle class="cls-5" cx="56.24" cy="68.86" r="0.12"/><circle class="cls-5" cx="56.37" cy="72.88" r="0.15"/><circle class="cls-5" cx="59.37" cy="71.4" r="0.1"/><circle class="cls-5" cx="53.39" cy="55.73" r="0.07"/><circle class="cls-5" cx="50.94" cy="62.13" r="0.21"/><circle class="cls-5" cx="52.44" cy="60.16" r="0.17"/><circle class="cls-5" cx="53.68" cy="53.52" r="0.21"/><circle class="cls-5" cx="52.1" cy="53.68" r="0.09"/><circle class="cls-5" cx="56.84" cy="81.99" r="0.16" transform="translate(-29.03 132.78) rotate(-85.87)"/><circle class="cls-5" cx="57.98" cy="79.52" r="0.11" transform="translate(-25.51 131.62) rotate(-85.87)"/><circle class="cls-5" cx="56.61" cy="77.88" r="0.07" transform="translate(-25.11 128.79) rotate(-85.91)"/><circle class="cls-5" cx="55.26" cy="84.93" r="0.2" transform="translate(-33.33 134.12) rotate(-85.99)"/><circle class="cls-5" cx="58.26" cy="82.55" r="0.15" transform="translate(-28.24 134.77) rotate(-85.9)"/><circle class="cls-5" cx="51.31" cy="58.77" r="0.09"/><circle class="cls-5" cx="58.69" cy="57.21" r="0.08"/><circle class="cls-5" cx="57.79" cy="54.01" r="0.12"/><circle class="cls-5" cx="59.32" cy="59.67" r="0.13" transform="matrix(0.07, -1, 1, 0.07, -4.52, 114.47)"/><circle class="cls-5" cx="53.52" cy="79.6" r="0.1" transform="translate(-29.79 127.15) rotate(-85.8)"/><circle class="cls-5" cx="55.73" cy="71.56" r="0.15" transform="translate(-19.49 122.24) rotate(-86.06)"/><circle class="cls-5" cx="57.08" cy="73.86" r="0.11" transform="translate(-20.6 125.62) rotate(-85.98)"/><circle class="cls-5" cx="57.13" cy="70.99" r="0.18" transform="translate(-17.69 123) rotate(-85.98)"/><circle class="cls-5" cx="55.48" cy="67.31" r="0.21" transform="matrix(0.07, -1, 1, 0.07, -15.5, 118.01)"/><circle class="cls-5" cx="54.13" cy="75.17" r="0.07" transform="translate(-24.64 123.91) rotate(-85.99)"/><circle class="cls-5" cx="56.05" cy="74.77" r="0.11" transform="translate(-22.54 125.32) rotate(-85.89)"/><circle class="cls-5" cx="57.56" cy="72.96" r="0.17" transform="translate(-19.31 125.18) rotate(-85.92)"/><circle class="cls-5" cx="54.92" cy="71.72" r="0.07" transform="translate(-20.58 121.32) rotate(-85.86)"/><circle class="cls-5" cx="55.92" cy="70.58" r="0.2" transform="translate(-18.3 121.57) rotate(-86.1)"/><circle class="cls-5" cx="56.82" cy="66.88" r="0.2" transform="translate(-14.01 118.7) rotate(-85.83)"/><circle class="cls-5" cx="55.03" cy="64.5" r="0.1" transform="translate(-13.29 114.71) rotate(-85.84)"/><circle class="cls-5" cx="54.61" cy="69.03" r="0.2" transform="translate(-18.03 118.74) rotate(-86.04)"/><circle class="cls-5" cx="57.81" cy="68.69" r="0.2" transform="translate(-14.76 121.54) rotate(-85.98)"/><circle class="cls-5" cx="56.08" cy="57.95" r="0.18" transform="translate(-5.72 109.75) rotate(-85.91)"/><circle class="cls-5" cx="55.23" cy="61.06" r="0.21" transform="translate(-9.49 111.95) rotate(-86.05)"/><circle class="cls-5" cx="55.32" cy="54.25" r="0.11" transform="translate(-2.81 105.48) rotate(-85.83)"/><circle class="cls-5" cx="52.08" cy="64.85" r="0.12" transform="translate(-16.29 112.21) rotate(-85.94)"/><circle class="cls-5" cx="54.34" cy="68.03" r="0.15" transform="translate(-17.32 117.48) rotate(-85.99)"/><circle class="cls-5" cx="52.8" cy="72.71" r="0.15" transform="translate(-23.48 120.2) rotate(-85.92)"/><circle class="cls-5" cx="51.86" cy="68.2" r="0.13" transform="translate(-19.92 114.98) rotate(-85.84)"/><circle class="cls-5" cx="55.34" cy="65.9" r="0.11" transform="translate(-14.34 116.4) rotate(-85.91)"/><circle class="cls-5" cx="51.12" cy="76.57" r="0.13" transform="matrix(0.07, -1, 1, 0.07, -28.93, 122.04)"/><circle class="cls-5" cx="53.2" cy="78.62" r="0.14" transform="translate(-28.91 126.23) rotate(-86.02)"/><circle class="cls-5" cx="53.8" cy="74.9" r="0.19" transform="matrix(0.07, -1, 1, 0.07, -24.67, 123.33)"/><circle class="cls-5" cx="66.57" cy="58.19" r="0.07"/><circle class="cls-5" cx="74.5" cy="84.28" r="0.07"/><circle class="cls-5" cx="75.37" cy="82.88" r="0.12"/><circle class="cls-5" cx="73.55" cy="82.23" r="0.15"/><circle class="cls-5" cx="63.67" cy="81.33" r="0.07"/><circle class="cls-5" cx="67.39" cy="80.75" r="0.1"/><circle class="cls-5" cx="69.26" cy="84.2" r="0.17"/><circle class="cls-5" cx="72.13" cy="76.98" r="0.17"/><circle class="cls-5" cx="74.13" cy="78.78" r="0.15"/><circle class="cls-5" cx="74.4" cy="75.09" r="0.07"/><circle class="cls-5" cx="71.42" cy="72.55" r="0.2"/><circle class="cls-5" cx="70.34" cy="79.27" r="0.07"/><circle class="cls-5" cx="72.31" cy="79.85" r="0.16"/><circle class="cls-5" cx="74.26" cy="77.72" r="0.16"/><circle class="cls-5" cx="70.68" cy="78.04" r="0.13"/><circle class="cls-5" cx="72.45" cy="74.6" r="0.16"/><circle class="cls-5" cx="73.5" cy="71.81" r="0.2"/><circle class="cls-5" cx="70.55" cy="69.51" r="0.12"/><circle class="cls-5" cx="70.73" cy="73.53" r="0.15"/><circle class="cls-5" cx="65.94" cy="56.8" r="0.07"/><circle class="cls-5" cx="62.51" cy="62.7" r="0.21"/><circle class="cls-5" cx="64.41" cy="60.57" r="0.17"/><circle class="cls-5" cx="63.8" cy="55.16" r="0.09"/><circle class="cls-5" cx="71.57" cy="82.46" r="0.16" transform="translate(-15.57 148.26) rotate(-86.1)"/><circle class="cls-5" cx="73.31" cy="80.25" r="0.11" transform="translate(-11.88 147.75) rotate(-85.98)"/><circle class="cls-5" cx="71.68" cy="78.12" r="0.07" transform="translate(-11.26 144.16) rotate(-86)"/><circle class="cls-5" cx="70.31" cy="84.77" r="0.2" transform="translate(-19.21 148.92) rotate(-85.95)"/><circle class="cls-5" cx="73.78" cy="83.29" r="0.15" transform="translate(-14.5 151.02) rotate(-85.96)"/><circle class="cls-5" cx="62.91" cy="59.59" r="0.09"/><circle class="cls-5" cx="74.29" cy="58.44" r="0.08"/><circle class="cls-5" cx="72.74" cy="55.81" r="0.12"/><circle class="cls-5" cx="76.64" cy="54.99" r="0.08"/><circle class="cls-5" cx="75.66" cy="60.24" r="0.13" transform="translate(10.21 131.45) rotate(-85.94)"/><circle class="cls-5" cx="66.28" cy="80.34" r="0.1" transform="translate(-18.52 140.81) rotate(-85.97)"/><circle class="cls-5" cx="69.52" cy="72.39" r="0.15" transform="translate(-7.62 136.6) rotate(-85.93)"/><circle class="cls-5" cx="71.99" cy="74.43" r="0.11" transform="matrix(0.07, -1, 1, 0.07, -7.13, 141.23)"/><circle class="cls-5" cx="71.88" cy="72.46" r="0.18" transform="translate(-5.43 139.1) rotate(-85.99)"/><circle class="cls-5" cx="68.89" cy="67.47" r="0.21" transform="translate(-3.14 131.57) rotate(-86.07)"/><circle class="cls-5" cx="67.24" cy="75.26" r="0.07" transform="translate(-12.9 136.58) rotate(-85.64)"/><circle class="cls-5" cx="69.94" cy="75.5" r="0.1" transform="translate(-10.3 139.95) rotate(-85.96)"/><circle class="cls-5" cx="72.47" cy="74.04" r="0.17" transform="matrix(0.07, -1, 1, 0.07, -6.49, 141.11)"/><circle class="cls-5" cx="68.1" cy="72.8" r="0.07" transform="translate(-9.45 135.44) rotate(-85.84)"/><circle class="cls-5" cx="69.76" cy="70.9" r="0.2" transform="translate(-5.88 135.49) rotate(-85.96)"/><circle class="cls-5" cx="68.3" cy="65.08" r="0.1" transform="matrix(0.07, -1, 1, 0.07, -1.32, 128.75)"/><circle class="cls-5" cx="67.57" cy="70.01" r="0.2" transform="translate(-6.95 132.57) rotate(-86.03)"/><circle class="cls-5" cx="73.13" cy="69.26" r="0.2" transform="translate(-1.04 137.41) rotate(-86.02)"/><circle class="cls-5" cx="70.15" cy="59.51" r="0.18" transform="translate(5.94 125.38) rotate(-86.04)"/><circle class="cls-5" cx="71.5" cy="54.91" r="0.13" transform="translate(11.92 122.57) rotate(-86.16)"/><circle class="cls-5" cx="68.96" cy="56.05" r="0.11" transform="translate(8.34 121.03) rotate(-86.09)"/><circle class="cls-5" cx="63.48" cy="65.49" r="0.12" transform="translate(-6.3 124.22) rotate(-85.98)"/><circle class="cls-5" cx="67.54" cy="68.37" r="0.15" transform="translate(-5.37 130.98) rotate(-86)"/><circle class="cls-5" cx="65.09" cy="73.03" r="0.15" transform="translate(-12.24 132.95) rotate(-86.06)"/><circle class="cls-5" cx="63.28" cy="69.2" r="0.13" transform="translate(-10.19 127.46) rotate(-85.98)"/><circle class="cls-5" cx="69.02" cy="65.98" r="0.11" transform="translate(-1.63 130.22) rotate(-85.99)"/><circle class="cls-5" cx="62.69" cy="77.48" r="0.13" transform="translate(-18.9 134.71) rotate(-86.07)"/><circle class="cls-5" cx="65.79" cy="79.19" r="0.14" transform="translate(-17.96 139.06) rotate(-85.84)"/><circle class="cls-5" cx="66.34" cy="76.08" r="0.19" transform="translate(-14.16 136.98) rotate(-86.02)"/><circle class="cls-5" cx="81.8" cy="54.21" r="0.09" transform="translate(22.01 132.02) rotate(-86)"/><circle class="cls-5" cx="82.54" cy="58.69" r="0.15" transform="translate(18.48 137.14) rotate(-86.18)"/><circle class="cls-5" cx="73.84" cy="61.31" r="0.07"/><circle class="cls-5" cx="75.03" cy="57.37" r="0.07"/><circle class="cls-5" cx="79.48" cy="55.9" r="0.07"/><circle class="cls-5" cx="78.53" cy="64.75" r="0.07"/><circle class="cls-5" cx="78.96" cy="60.08" r="0.07"/><circle class="cls-5" cx="71.21" cy="56.22" r="0.07"/><circle class="cls-5" cx="68.78" cy="59.01" r="0.07"/><circle class="cls-5" cx="69.63" cy="61.47" r="0.16"/><circle class="cls-5" cx="71.68" cy="67.95" r="0.07"/><circle class="cls-5" cx="69.31" cy="54.75" r="0.07"/><circle class="cls-5" cx="70.6" cy="63.03" r="0.11"/><circle class="cls-5" cx="72.58" cy="65.33" r="0.17"/><circle class="cls-5" cx="68.91" cy="67.13" r="0.09"/><circle class="cls-5" cx="80.72" cy="60.33" r="0.19"/><circle class="cls-5" cx="78.11" cy="62.29" r="0.19"/><circle class="cls-5" cx="79.19" cy="55.24" r="0.14"/><circle class="cls-5" cx="79.17" cy="64.34" r="0.18"/><circle class="cls-5" cx="78.64" cy="57.78" r="0.11"/><circle class="cls-5" cx="80.38" cy="66.23" r="0.11"/><circle class="cls-5" cx="65.67" cy="54.09" r="0.09" transform="translate(7.1 115.8) rotate(-85.97)"/><circle class="cls-5" cx="76.17" cy="60.82" r="0.17" transform="translate(10.16 132.54) rotate(-85.98)"/><circle class="cls-5" cx="74.69" cy="55.98" r="0.13" transform="translate(13.65 126.59) rotate(-86.01)"/><circle class="cls-5" cx="74.06" cy="65.83" r="0.18" transform="translate(3.14 135.03) rotate(-85.93)"/><circle class="cls-5" cx="76.37" cy="54.5" r="0.18" transform="translate(16.54 126.77) rotate(-85.89)"/><circle class="cls-5" cx="74.42" cy="57.96" r="0.15" transform="translate(11.4 128.15) rotate(-86)"/><circle class="cls-5" cx="77.96" cy="57.54" r="0.11" transform="translate(15.02 131.21) rotate(-85.92)"/><circle class="cls-5" cx="79.74" cy="67.7" r="0.08" transform="translate(6.62 142.5) rotate(-85.98)"/><circle class="cls-5" cx="68.4" cy="56.63" r="0.18" transform="translate(7.06 120.84) rotate(-85.93)"/><circle class="cls-5" cx="66.53" cy="58.52" r="0.15" transform="matrix(0.07, -1, 1, 0.07, 3.6, 120.89)"/><circle class="cls-5" cx="80.4" cy="63.12" r="0.16" transform="translate(11.85 138.95) rotate(-86.02)"/><circle class="cls-5" cx="67.68" cy="63.93" r="0.19" transform="translate(-0.82 126.99) rotate(-86)"/></g></g><path class="cls-12" d="M16.43,70.32"/><path id="path2131" class="cls-13" d="M47.69,88.35l-1-.55-.48-.27-1.41-.82-.56-.32-.54-.31-4.1-2.36-.6-.35h0l-1.39-.8L36,81.62l-.7-.41-.45-.27-.19-.12-.33-.2-.17-.09-1.36-.79-.24-.14-.15-.08-1.17-.68L28.57,77.3l-3-1.76-.23-.13-1.14-.65-.33-.2-2.34-1.34L17.63,71l-.7-.4-.3-.18-.18-.1-.52-.3V30.28l3-1.76,2.32-1.34.73-.42h0l2.5-1.44h0l1.06-.62h0l1.4-.8,1-.56.33-.2h0l.59-.34.36-.21h0l2.32-1.34h0l.61-.35.27-.16.16-.09.23-.13.13-.08.21-.12h0l6.26-3.62,10.44-6,.37-.21.42.24L63.77,18.3l5.44,3.14h0l.25.14h.08l.34.2.27.16,1,.55,1.51.87,5.48,3.15,1.1.63.43.25h0l.6.34.15.08.42.24.42.24,3.4,2V70l-.41.23-.25.14-.45.27-5.92,3.42-.84.48-1.47.85L74,76.15l-2.43,1.4-1,.58-.56.32L67.89,79.8h-.05l-.13.07-.14.08-.44.25-.69.4-.17.1h0l-.63.37h-.07l-3,1.75h-.06l-.62.35h-.06l-.71.42-1.68,1-1.2.69L56.93,86l-.86.49L53.66,88l-1,.55h0l-.58.34-.22.12-1.46.84ZM51,91.2h0l.44-.25,1.46-.84.39-.23.14-.08h0l.28-.17,1.84-1.06.31-.18.33-.19h0l.3-.17.76-.44,1-.56.11-.06.39-.23.28-.16.31-.18h0l2.73-1.58h0l.49-.28,1.82-1,.44-.26h0l.33-.19.37-.21h0l.19-.1.26-.15.16-.09.5-.3h.06L67,82l.25-.14h0l.12-.07.11-.06.79-.45h0l.14-.07.61-.35h0l.32-.19h.12l1-.56.68-.41,1.2-.69h0l.35-.2,1-.55h0l.82-.47.64-.37,2.36-1.36.08-.06h.08l.19-.1.37-.21.11-.06.37-.21,1.15-.67.13-.07,1.51-.87.16-.09L84.37,72l.69-.4.1-.05.26-.15.85-.48h0V29.43l-2.2-1.27-1.52-.87-.34-.2-.61-.34-1.5-.87h0l-.42-.24L79,25.21,78.64,25l-.2-.12-.2-.11h0L73.47,22l-1.33-.76L71.57,21l-.35-.2-.38-.23h0l-.33-.2-.32-.19h0l-1.71-1-.81-.48L63.3,16.18l-1-.57-.86-.5-2-1.11L50.79,9l-.41-.24-1.11.64-4.73,2.73-.21.13-.15.08-4.46,2.57h0l-1,.58-.1.06-.51.31-1.19.68-.19.11-1.17.68-.5.3-.34.2-.3.17-.61.35-1.29.74h-.09l-.42.24-.86.5-.79.45h0l-.69.4-.6.35h0l-.39.22-.44.26h0l-.1,0-.37.21h-.08l-.45.27-.43.25-.17.1h0l-.34.2-.45.26-1.61.93L24,24l-.64.37-1.77,1-1.37.79-.45.26-.2.11h0l-.6.36-4.42,2.54V70.87h.13l2.66,1.54L19.9,74h0l.2.12h0l.23.13h0l.56.33,1,.6.8.46,1.45.84h0l.81.47h0l.17.09h0l.39.23h.07l.64.37,1.63.94,2,1.14,1.33.77.29.17.12.06h0l1,.58h.12l.27.16H33l.19.12.2.12.18.1.3.17.29.17,1,.55,1.74,1h0l.11.06.73.42.54.3.48.27,1,.57.29.17h.07l.34.2.48.28.26.15.3.17h0l.42.23,1.18.68L45.9,89l3.49,2,.8.47.17.09.37-.21Z"/><polyline class="cls-12" points="16.03 70.02 15.92 70.02 15.92 70.03"/></g><g id="_Group_" data-name="&lt;Group&gt;"><g id="_Group_2" data-name="&lt;Group&gt;" class="cls-14"><path id="_Compound_Path_" data-name="&lt;Compound Path&gt;" d="M38.18,62.72l.06.4a.05.05,0,0,0,.05,0h.09a.05.05,0,0,0,.05,0l0-.36.18-.43.53-.3a.09.09,0,0,0,0-.13l0,0L44.85,58l.06.09a.09.09,0,0,0,.13,0l1-.69,0,.07a.38.38,0,0,0,.64-.07.4.4,0,0,0,.52-.22.38.38,0,0,0,.46-.21.36.36,0,0,0,.44-.22.35.35,0,0,0,0-.18.7.7,0,0,0,0-.17h0l0-.09.07-.3.31-.23.07,0c.71.41.9,1.95.77,3.3-.08.8-.21,1.62-.33,2.41-.42,2.65-.78,4.94.91,5.42a1.53,1.53,0,0,0,1.44-.32,2.45,2.45,0,0,0,.43-.46l-.06.65a.27.27,0,0,0,0,.07.86.86,0,0,0,.1.29l-.16,1.68a5.93,5.93,0,0,0-.91.5.36.36,0,0,0,.2.66h2.21a.46.46,0,0,0,.45-.38L54,67.18a.84.84,0,0,0,.19-.3v0l.22-1.28.72,1a.28.28,0,0,0,.08.08,1.7,1.7,0,0,0,.21.11l.9,1.29a5.93,5.93,0,0,0-.52.86.36.36,0,0,0,.51.47l1.89-1.09a.46.46,0,0,0,.17-.62c-.16-.3-.55-1-1.11-2a1.51,1.51,0,0,0,0-.26.27.27,0,0,0,0-.09c-.46-.81-1-1.81-1.68-2.88l0-.84a.47.47,0,0,0,.12-.32V59l.06-1.21.35-.56a2.78,2.78,0,0,0,.34-2.12l.13,0,.07,0c.37-.33,1.08-1.09,1.45-1.47a1.53,1.53,0,0,0,.21-1.87,40.77,40.77,0,0,0-2.59-3.62,1.58,1.58,0,0,0-.3-.29l-.29-.54v-.43h.06a6.19,6.19,0,0,0,5-6.09s0-.29,0-.5a.27.27,0,0,0-.06-.17,1,1,0,0,0-.25-.22h0a.2.2,0,0,0,.2-.2v-.75a.2.2,0,0,0-.2-.2v-.16a.29.29,0,0,0,0-.1,5.64,5.64,0,0,0-5.3-3.73h0a5.64,5.64,0,0,0-5.18,3.43.29.29,0,0,0,0,.09l0,.28h-.47a.19.19,0,0,0-.19.19h0a.1.1,0,0,0-.09.1V47a.28.28,0,0,0,.28.28h.66a2.84,2.84,0,0,0,1.77-.62l.48.06a2.08,2.08,0,0,0,.46,0,1.57,1.57,0,0,0,.87.36v.16l-.6.91a2.29,2.29,0,0,0-.29.64,33,33,0,0,1-2.48,2.89,20.18,20.18,0,0,0-2.05,1.79.28.28,0,0,0-.08.14.89.89,0,0,0,0,.33c-.7.69-1.25,1.28-1.34,1.38a2.84,2.84,0,0,0-.33.2.68.68,0,0,0-.27.41,3.66,3.66,0,0,0-.07.46.41.41,0,0,0,.1.3l0,.06,0,0-.2-.29a.1.1,0,0,0-.14,0l-.61.42a.1.1,0,0,0,0,.14l.2.29-.31.21a.09.09,0,0,0,0,.13l.06.09-5.64,3.87,0,0a.09.09,0,0,0-.14,0l-.55.46a.09.09,0,0,0,0,0l-.14.58A.09.09,0,0,0,38.18,62.72Zm10.46-7,.51-.38a.82.82,0,0,0,.38,0l.1,0c.78-.59,1.71-1.32,2.28-1.84,0,.5,0,1,.08,1.54a.83.83,0,0,0,0,.28v.85H52a.47.47,0,0,0-.47.47v4.75a.47.47,0,0,0,.38.47v.48a.29.29,0,0,0,.17.26l-.3,3.21a2.57,2.57,0,0,1-.6.74,1.32,1.32,0,0,1-1.25.28c-1.52-.43-1.17-2.63-.77-5.19.12-.79.25-1.61.33-2.42C49.66,57.44,49.32,56.08,48.64,55.67Z"/><ellipse id="_Path_" data-name="&lt;Path&gt;" cx="44.04" cy="70" rx="5.08" ry="0.73"/><path id="_Path_2" data-name="&lt;Path&gt;" d="M84.44,69.83H16.15a.15.15,0,0,1-.06-.28l2.26-1.08a.86.86,0,0,1,.37-.08H81.88a.86.86,0,0,1,.37.08l2.26,1.08A.15.15,0,0,1,84.44,69.83Z"/><g id="_Group_3" data-name="&lt;Group&gt;"><path id="_Path_3" data-name="&lt;Path&gt;" d="M27.57,55.94a1.74,1.74,0,0,1-1.69-1.74V53a1.74,1.74,0,0,1,1.69-1.74.05.05,0,0,0,.05-.05A1.18,1.18,0,0,0,26.45,50H24.09a1.18,1.18,0,0,0-1.18,1.13.71.71,0,0,0-1.39.19v-.14A1.18,1.18,0,0,0,20.34,50H18a1.18,1.18,0,0,0-1.18,1.13.05.05,0,0,0,.05.05A1.74,1.74,0,0,1,18.54,53V54.2a1.74,1.74,0,0,1-1.69,1.74.05.05,0,0,0-.05.05v5.85A1.18,1.18,0,0,0,18,63h2.36a1.18,1.18,0,0,0,1.18-1.18v6.59H19.87a.59.59,0,0,0-.59.59v.12h5.9V69a.59.59,0,0,0-.59-.59H22.94V62.1a1.18,1.18,0,0,0,1.15.92h2.36a1.18,1.18,0,0,0,1.18-1.18V56A.05.05,0,0,0,27.57,55.94Z"/><path id="_Compound_Path_2" data-name="&lt;Compound Path&gt;" d="M76.37,31.45V29a3.54,3.54,0,0,0-3.54-3.54H59.26a.2.2,0,0,0-.4,0H42a.2.2,0,0,0-.4,0H28A3.54,3.54,0,0,0,24.45,29v2.45a.59.59,0,0,0-.59.59h0a.59.59,0,0,0,.59.59H28V69.11h1.89V62H70.94v7.08h1.89V32.63h3.54A.59.59,0,0,0,77,32h0A.59.59,0,0,0,76.37,31.45Zm-5.43,2.26H29.88v4.72H70.94v17.7H29.88V32.63H70.94Z"/><path id="_Path_4" data-name="&lt;Path&gt;" d="M83.15,34.89H76.1a.6.6,0,0,0-.6.6V62.61a.6.6,0,0,0,.6.6h1.76v5.9h3.54v-5.9h1.76a.6.6,0,0,0,.6-.6V35.49A.6.6,0,0,0,83.15,34.89Z"/></g></g><g id="_Group_4" data-name="&lt;Group&gt;"><g id="_Group_5" data-name="&lt;Group&gt;"><g id="_Group_6" data-name="&lt;Group&gt;"><path id="_Path_5" data-name="&lt;Path&gt;" class="cls-15" d="M22.91,68.95H21.54V51.88a.69.69,0,0,1,.69-.69h0a.69.69,0,0,1,.69.69Z"/><path id="_Path_6" data-name="&lt;Path&gt;" class="cls-16" d="M21.64,68.85h1.18v-17a.59.59,0,0,0-1.18,0Z"/><rect id="_Rectangle_" data-name="&lt;Rectangle&gt;" class="cls-17" x="21.54" y="68.03" width="1.37" height="0.92"/><path id="_Path_7" data-name="&lt;Path&gt;" class="cls-18" d="M22.41,60.88h0a.18.18,0,0,1-.18-.18V51.84a.18.18,0,0,1,.18-.18h0a.18.18,0,0,1,.18.18v8.85A.18.18,0,0,1,22.41,60.88Z"/></g><g id="_Group_7" data-name="&lt;Group&gt;"><path id="_Rectangle_2" data-name="&lt;Rectangle&gt;" class="cls-15" d="M20.05,68.45H24.4a.69.69,0,0,1,.69.69v0a0,0,0,0,1,0,0H19.36a0,0,0,0,1,0,0v0A.69.69,0,0,1,20.05,68.45Z"/><path id="_Path_8" data-name="&lt;Path&gt;" class="cls-19" d="M19.46,69H25v0a.48.48,0,0,0-.48-.48H19.94a.48.48,0,0,0-.48.48Z"/><path id="_Path_9" data-name="&lt;Path&gt;" class="cls-17" d="M25,68.95h-5.5a.11.11,0,0,1-.1-.06.57.57,0,0,0,0,.13v.11h5.73V69a.57.57,0,0,0,0-.13A.11.11,0,0,1,25,68.95Z"/></g><g id="_Group_8" data-name="&lt;Group&gt;"><path id="_Path_10" data-name="&lt;Path&gt;" class="cls-4" d="M25.81,54.63v-1.2a1.69,1.69,0,0,1,1.64-1.69.05.05,0,0,0,.05-.05,1.15,1.15,0,0,0-1.14-1.09H24.06a1.15,1.15,0,0,0-1.15,1.15V62.05a1.15,1.15,0,0,0,1.15,1.15h2.29a1.15,1.15,0,0,0,1.15-1.15V56.37a.05.05,0,0,0-.05-.05A1.69,1.69,0,0,1,25.81,54.63Z"/><path id="_Path_11" data-name="&lt;Path&gt;" class="cls-20" d="M24.06,50.69a1,1,0,0,0-1,1V62.05a1,1,0,0,0,1,1h2.29a1,1,0,0,0,1-1V56.42a1.79,1.79,0,0,1-1.69-1.79v-1.2a1.79,1.79,0,0,1,1.69-1.79,1,1,0,0,0-1-1Z"/><path id="_Path_12" data-name="&lt;Path&gt;" class="cls-21" d="M26.9,62.09H24.61a1.15,1.15,0,0,1-1.15-1.15V50.76a1.14,1.14,0,0,0-.55,1V62.05a1.15,1.15,0,0,0,1.15,1.15h2.29a1.15,1.15,0,0,0,1.15-1.15v-.13A1.14,1.14,0,0,1,26.9,62.09Z"/><path id="_Path_13" data-name="&lt;Path&gt;" class="cls-22" d="M26.46,51.52a.23.23,0,0,0-.1-.43H24.45a.23.23,0,0,0-.2.34l.75,1.4a.23.23,0,0,0,.42,0A2.19,2.19,0,0,1,26.46,51.52Z"/><circle id="_Path_14" data-name="&lt;Path&gt;" class="cls-23" cx="26.22" cy="51.35" r="0.18"/></g><g id="_Group_9" data-name="&lt;Group&gt;"><path id="_Path_15" data-name="&lt;Path&gt;" class="cls-24" d="M18.65,54.63v-1.2A1.69,1.69,0,0,0,17,51.74a.05.05,0,0,1-.05-.05A1.15,1.15,0,0,1,18.1,50.6h2.29a1.15,1.15,0,0,1,1.15,1.15V62.05a1.15,1.15,0,0,1-1.15,1.15H18.1A1.15,1.15,0,0,1,17,62.05V56.37a.05.05,0,0,1,.05-.05A1.69,1.69,0,0,0,18.65,54.63Z"/><path id="_Path_16" data-name="&lt;Path&gt;" class="cls-25" d="M18.1,50.69a1,1,0,0,0-1,1,1.79,1.79,0,0,1,1.69,1.79v1.2a1.79,1.79,0,0,1-1.69,1.79v5.63a1,1,0,0,0,1,1h2.29a1,1,0,0,0,1-1V51.74a1,1,0,0,0-1-1Z"/><path id="_Path_17" data-name="&lt;Path&gt;" class="cls-26" d="M17.55,62.09h2.29A1.15,1.15,0,0,0,21,60.95V50.76a1.14,1.14,0,0,1,.55,1V62.05a1.15,1.15,0,0,1-1.15,1.15H18.1A1.15,1.15,0,0,1,17,62.05v-.13A1.14,1.14,0,0,0,17.55,62.09Z"/><path id="_Path_18" data-name="&lt;Path&gt;" class="cls-22" d="M18,51.52a.23.23,0,0,1,.1-.43H20a.23.23,0,0,1,.2.34l-.75,1.4a.23.23,0,0,1-.42,0A2.19,2.19,0,0,0,18,51.52Z"/><circle id="_Path_19" data-name="&lt;Path&gt;" class="cls-23" cx="18.23" cy="51.35" r="0.18"/></g></g><g id="_Group_10" data-name="&lt;Group&gt;"><g id="_Group_11" data-name="&lt;Group&gt;"><rect id="_Rectangle_3" data-name="&lt;Rectangle&gt;" class="cls-15" x="28.64" y="26.72" width="1.83" height="42.39"/><rect id="_Path_20" data-name="&lt;Path&gt;" class="cls-27" x="28.74" y="26.82" width="1.64" height="42.19"/><rect id="_Rectangle_4" data-name="&lt;Rectangle&gt;" class="cls-17" x="28.64" y="26.72" width="1.83" height="7.84"/><path id="_Path_21" data-name="&lt;Path&gt;" class="cls-18" d="M29.82,35.64h0a.28.28,0,0,1,.28.28V68.37a.28.28,0,0,1-.28.28h0a.28.28,0,0,1-.28-.28V35.91A.28.28,0,0,1,29.82,35.64Z"/><rect id="_Rectangle_5" data-name="&lt;Rectangle&gt;" class="cls-17" x="28.64" y="68.64" width="1.83" height="0.47"/></g><g id="_Group_12" data-name="&lt;Group&gt;"><rect id="_Rectangle_6" data-name="&lt;Rectangle&gt;" class="cls-15" x="70.34" y="26.72" width="1.83" height="42.39" transform="translate(142.52 95.83) rotate(180)"/><rect id="_Path_22" data-name="&lt;Path&gt;" class="cls-28" x="70.44" y="26.82" width="1.64" height="42.19"/><rect id="_Rectangle_7" data-name="&lt;Rectangle&gt;" class="cls-17" x="70.34" y="26.72" width="1.83" height="7.84" transform="translate(142.52 61.28) rotate(180)"/><path id="_Path_23" data-name="&lt;Path&gt;" class="cls-18" d="M71,35.64h0a.28.28,0,0,0-.28.28V68.37a.28.28,0,0,0,.28.28h0a.28.28,0,0,0,.28-.28V35.91A.28.28,0,0,0,71,35.64Z"/><rect id="_Rectangle_8" data-name="&lt;Rectangle&gt;" class="cls-17" x="70.34" y="68.64" width="1.83" height="0.47"/></g><g id="_Group_13" data-name="&lt;Group&gt;"><rect id="_Rectangle_9" data-name="&lt;Rectangle&gt;" class="cls-15" x="30.48" y="61.09" width="39.87" height="1.15"/><rect id="_Path_24" data-name="&lt;Path&gt;" class="cls-29" x="30.48" y="61.19" width="39.87" height="0.95"/><rect id="_Rectangle_10" data-name="&lt;Rectangle&gt;" class="cls-17" x="30.48" y="61.87" width="39.87" height="0.37"/></g><g id="_Group_14" data-name="&lt;Group&gt;"><rect id="_Rectangle_11" data-name="&lt;Rectangle&gt;" class="cls-15" x="30.48" y="56.51" width="39.87" height="4.58"/><rect id="_Path_25" data-name="&lt;Path&gt;" class="cls-30" x="30.48" y="56.61" width="39.87" height="4.39"/><path id="_Path_26" data-name="&lt;Path&gt;" class="cls-18" d="M69.85,59.9V57.55a.46.46,0,0,0-.46-.46H61.08A.46.46,0,0,0,61,58l8.32,2.34A.46.46,0,0,0,69.85,59.9Z"/><path id="_Path_27" data-name="&lt;Path&gt;" class="cls-17" d="M69.77,56.51v4.12h-12V58.54a.49.49,0,0,0-.49-.49h0a.49.49,0,0,0-.49.49v2.09H44V58.54a.49.49,0,0,0-1,0v2.09H31V56.51h-.57v4.58H70.34V56.51Z"/></g><g id="_Group_15" data-name="&lt;Group&gt;"><rect id="_Rectangle_12" data-name="&lt;Rectangle&gt;" class="cls-15" x="30.48" y="26.72" width="39.87" height="3.44"/><rect id="_Path_28" data-name="&lt;Path&gt;" class="cls-31" x="30.48" y="26.82" width="39.87" height="3.24"/><rect id="_Rectangle_13" data-name="&lt;Rectangle&gt;" class="cls-17" x="30.48" y="26.72" width="39.87" height="3.44"/></g><g id="_Group_16" data-name="&lt;Group&gt;"><rect id="_Rectangle_14" data-name="&lt;Rectangle&gt;" class="cls-32" x="30.48" y="34.74" width="39.87" height="4.58"/><rect id="_Path_29" data-name="&lt;Path&gt;" class="cls-33" x="30.48" y="34.84" width="39.87" height="4.39"/><polygon id="_Path_30" data-name="&lt;Path&gt;" class="cls-34" points="30.48 34.74 30.48 39.32 31.05 39.32 31.05 35.3 69.77 35.3 69.77 39.32 70.34 39.32 70.34 34.74 30.48 34.74"/><path id="_Path_31" data-name="&lt;Path&gt;" class="cls-18" d="M51.88,35.79H67.37a1.48,1.48,0,0,1,1.48,1.48h0a1.48,1.48,0,0,1-1.48,1.48H51.88a1.48,1.48,0,0,1-1.48-1.48h0A1.48,1.48,0,0,1,51.88,35.79Z"/><circle id="_Path_32" data-name="&lt;Path&gt;" class="cls-23" cx="67.83" cy="36.8" r="0.65"/><path id="_Path_33" data-name="&lt;Path&gt;" class="cls-34" d="M38.5,38.45a.29.29,0,0,0,0,.1v.16a.2.2,0,0,0-.2.2v.42H49.79v-.51a.1.1,0,0,0-.09-.1h0a.19.19,0,0,0-.19-.19H49l0-.28a.29.29,0,0,0,0-.09,5.64,5.64,0,0,0-4.73-3.41h-.89A5.64,5.64,0,0,0,38.5,38.45Z"/></g><text class="cls-35" transform="translate(36.44 38.46)">H</text><g id="_Group_17" data-name="&lt;Group&gt;"><path id="_Path_34" data-name="&lt;Path&gt;" class="cls-15" d="M57.75,61.09h-.92V58.68a.46.46,0,0,1,.46-.46h0a.46.46,0,0,1,.46.46Z"/><path id="_Path_35" data-name="&lt;Path&gt;" class="cls-36" d="M56.94,61.09h.72V58.68a.36.36,0,0,0-.72,0Z"/></g><g id="_Group_18" data-name="&lt;Group&gt;"><path id="_Path_36" data-name="&lt;Path&gt;" class="cls-15" d="M44,61.09h-.92V58.68a.46.46,0,0,1,.46-.46h0a.46.46,0,0,1,.46.46Z"/><path id="_Path_37" data-name="&lt;Path&gt;" class="cls-37" d="M43.16,61.09h.72V58.68a.36.36,0,0,0-.72,0Z"/></g><g id="_Group_19" data-name="&lt;Group&gt;"><rect id="_Rectangle_15" data-name="&lt;Rectangle&gt;" class="cls-38" x="32.77" y="35.6" width="2.86" height="2.86"/><rect id="_Path_38" data-name="&lt;Path&gt;" class="cls-39" x="32.86" y="35.7" width="2.67" height="2.67"/></g><g id="_Group_20" data-name="&lt;Group&gt;"><path id="_Rectangle_16" data-name="&lt;Rectangle&gt;" class="cls-40" d="M32.08,26.72H68.74a6.87,6.87,0,0,1,6.87,6.87v0a0,0,0,0,1,0,0H25.21a0,0,0,0,1,0,0v0A6.87,6.87,0,0,1,32.08,26.72Z"/><path id="_Path_39" data-name="&lt;Path&gt;" class="cls-41" d="M25.3,33.5H75.51V30.16a3.34,3.34,0,0,0-3.34-3.34H28.64a3.34,3.34,0,0,0-3.34,3.34Z"/><path id="_Path_40" data-name="&lt;Path&gt;" class="cls-18" d="M72.18,27.31H63.78a2,2,0,0,0-2,2h0a2,2,0,0,0,2,2H73.85A1.17,1.17,0,0,0,75,30.16h0A2.85,2.85,0,0,0,72.18,27.31Z"/><circle id="_Path_41" data-name="&lt;Path&gt;" class="cls-23" cx="73.16" cy="28.73" r="0.74"/><polygon id="_Path_42" data-name="&lt;Path&gt;" class="cls-42" points="59.28 32.27 59.28 26.72 58.34 26.72 58.34 32.27 42.48 32.27 42.48 26.72 41.54 26.72 41.54 32.27 25.21 32.27 25.21 33.6 75.61 33.6 75.61 32.27 59.28 32.27"/></g><g id="_Group_21" data-name="&lt;Group&gt;"><path id="_Path_43" data-name="&lt;Path&gt;" class="cls-15" d="M42,33.22a.2.2,0,0,1-.2-.2v-6.3a.2.2,0,1,1,.39,0V33A.2.2,0,0,1,42,33.22Z"/><path id="_Path_44" data-name="&lt;Path&gt;" class="cls-43" d="M42,26.63a.1.1,0,0,0-.1.1V33a.1.1,0,1,0,.2,0v-6.3A.1.1,0,0,0,42,26.63Z"/></g><g id="_Group_22" data-name="&lt;Group&gt;"><path id="_Path_45" data-name="&lt;Path&gt;" class="cls-15" d="M58.81,33.22a.2.2,0,0,1-.2-.2v-6.3a.2.2,0,1,1,.39,0V33A.2.2,0,0,1,58.81,33.22Z"/><path id="_Path_46" data-name="&lt;Path&gt;" class="cls-44" d="M58.81,26.63a.1.1,0,0,0-.1.1V33a.1.1,0,1,0,.2,0v-6.3A.1.1,0,0,0,58.81,26.63Z"/></g><g id="_Group_23" data-name="&lt;Group&gt;"><path id="_Path_47" data-name="&lt;Path&gt;" class="cls-15" d="M75.61,32.54H25.21a.57.57,0,0,0-.57.57h0a.57.57,0,0,0,.57.57H75.61a.57.57,0,0,0,.57-.57h0A.57.57,0,0,0,75.61,32.54Z"/><path id="_Path_48" data-name="&lt;Path&gt;" class="cls-45" d="M25.21,32.64a.48.48,0,0,0,0,1H75.61a.48.48,0,1,0,0-1Z"/><path id="_Path_49" data-name="&lt;Path&gt;" class="cls-46" d="M75.61,33.32H25.21a.57.57,0,0,1-.54-.39.57.57,0,0,0,.54.76H75.61a.57.57,0,0,0,.54-.76A.57.57,0,0,1,75.61,33.32Z"/></g><g id="_Group_24" data-name="&lt;Group&gt;" class="cls-47"><path id="_Path_50" data-name="&lt;Path&gt;" class="cls-15" d="M52.87,56.52l-.2.29,0,0,0-.06a.41.41,0,0,0,.09-.21H50.27l0,.08a.35.35,0,0,0,0,.18.36.36,0,0,0,.44.22.38.38,0,0,0,.46.21.4.4,0,0,0,.52.22.38.38,0,0,0,.64.07l0-.07,1,.69a.09.09,0,0,0,.13,0l.06-.09,5.64,3.87,0,0a.09.09,0,0,0,0,.13l.37.21h.54l0-.13a.09.09,0,0,0,0,0l-.55-.46a.09.09,0,0,0-.14,0l0,0-5.64-3.87.06-.09a.09.09,0,0,0,0-.13l-.31-.21.2-.29a.1.1,0,0,0,0-.14l-.59-.4h-.17Z"/><path id="_Path_51" data-name="&lt;Path&gt;" class="cls-15" d="M49.13,59.13a6,6,0,0,1,.25-2.63h-.21a6,6,0,0,0-.24,2.65c.08.8.21,1.63.33,2.42l.1.66h.2l-.11-.7C49.33,60.75,49.2,59.93,49.13,59.13Z"/><path id="_Path_52" data-name="&lt;Path&gt;" class="cls-15" d="M46.51,61.78a.47.47,0,0,0,.38-.47V56.57a.48.48,0,0,0,0-.06H42a2.77,2.77,0,0,0,.33.76l.35.56L42.71,59v2.28a.47.47,0,0,0,.12.32l0,.6h3.65Z"/></g></g><g id="_Group_25" data-name="&lt;Group&gt;"><g id="_Group_26" data-name="&lt;Group&gt;"><rect id="_Rectangle_17" data-name="&lt;Rectangle&gt;" class="cls-15" x="75.61" y="35.89" width="8.02" height="27.49" rx="4.01" ry="4.01"/><rect id="_Path_53" data-name="&lt;Path&gt;" class="cls-48" x="75.71" y="35.98" width="7.82" height="27.3" rx="0.49" ry="0.49"/><rect id="_Rectangle_18" data-name="&lt;Rectangle&gt;" class="cls-49" x="76.46" y="36.73" width="6.33" height="25.8"/><path id="_Path_54" data-name="&lt;Path&gt;" class="cls-17" d="M83,62.46H76.2a.59.59,0,0,1-.59-.59v.92a.59.59,0,0,0,.59.59H83a.59.59,0,0,0,.59-.59v-.92A.59.59,0,0,1,83,62.46Z"/><path id="_Path_55" data-name="&lt;Path&gt;" class="cls-18" d="M83.22,36.35h0a.14.14,0,0,0-.14.14v23.7a.14.14,0,0,0,.14.14h0a.14.14,0,0,0,.14-.14V36.49A.14.14,0,0,0,83.22,36.35Z"/></g><g id="_Group_27" data-name="&lt;Group&gt;"><rect id="_Rectangle_19" data-name="&lt;Rectangle&gt;" class="cls-15" x="77.9" y="63.38" width="3.44" height="5.73"/><rect id="_Path_56" data-name="&lt;Path&gt;" class="cls-50" x="78" y="63.38" width="3.24" height="5.63"/><rect id="_Rectangle_20" data-name="&lt;Rectangle&gt;" class="cls-51" x="77.9" y="63.38" width="3.44" height="5.73"/><rect id="_Rectangle_21" data-name="&lt;Rectangle&gt;" class="cls-17" x="77.9" y="63.38" width="3.44" height="0.46"/><rect id="_Rectangle_22" data-name="&lt;Rectangle&gt;" class="cls-17" x="77.9" y="68.74" width="3.44" height="0.37"/><path id="_Path_57" data-name="&lt;Path&gt;" class="cls-18" d="M80.54,67.74l-2.08-3.28A.28.28,0,0,1,78.7,64h2.08a.28.28,0,0,1,.28.28v3.28A.28.28,0,0,1,80.54,67.74Z"/></g><g id="_Group_28" data-name="&lt;Group&gt;"><rect id="_Rectangle_23" data-name="&lt;Rectangle&gt;" class="cls-38" x="76.64" y="36.92" width="5.96" height="25.43"/><rect id="_Path_58" data-name="&lt;Path&gt;" class="cls-52" x="76.74" y="37.02" width="5.76" height="25.24"/></g><g id="_Group_29" data-name="&lt;Group&gt;"><text class="cls-53" transform="translate(79.16 38.98)">A</text><text class="cls-53" transform="translate(79.16 41.27)">B</text><text class="cls-53" transform="translate(79.16 43.56)">C</text><text class="cls-53" transform="translate(79.16 45.85)">F</text><text class="cls-53" transform="translate(79.16 48.15)">G</text><text class="cls-53" transform="translate(79.16 50.43)">H</text><text class="cls-53" transform="translate(79.16 52.73)">I</text><text class="cls-53" transform="translate(79.16 55.02)">J</text><text class="cls-53" transform="translate(79.16 57.31)">K</text><text class="cls-53" transform="translate(79.16 59.6)">L</text><text class="cls-53" transform="translate(79.16 61.89)">M</text><g id="_Group_30" data-name="&lt;Group&gt;"><rect id="_Rectangle_24" data-name="&lt;Rectangle&gt;" class="cls-32" x="77.1" y="37.38" width="1.6" height="1.6"/><rect id="_Path_59" data-name="&lt;Path&gt;" class="cls-54" x="77.2" y="37.47" width="1.41" height="1.41"/></g><g id="_Group_31" data-name="&lt;Group&gt;"><rect id="_Rectangle_25" data-name="&lt;Rectangle&gt;" class="cls-32" x="77.1" y="39.67" width="1.6" height="1.6"/><rect id="_Path_60" data-name="&lt;Path&gt;" class="cls-55" x="77.2" y="39.77" width="1.41" height="1.41"/></g><g id="_Group_32" data-name="&lt;Group&gt;"><rect id="_Rectangle_26" data-name="&lt;Rectangle&gt;" class="cls-32" x="77.1" y="41.96" width="1.6" height="1.6"/><rect id="_Path_61" data-name="&lt;Path&gt;" class="cls-56" x="77.2" y="42.06" width="1.41" height="1.41"/></g><g id="_Group_33" data-name="&lt;Group&gt;"><rect id="_Rectangle_27" data-name="&lt;Rectangle&gt;" class="cls-32" x="77.1" y="44.25" width="1.6" height="1.6"/><rect id="_Path_62" data-name="&lt;Path&gt;" class="cls-57" x="77.2" y="44.35" width="1.41" height="1.41"/></g><g id="_Group_34" data-name="&lt;Group&gt;"><rect id="_Rectangle_28" data-name="&lt;Rectangle&gt;" class="cls-32" x="77.1" y="46.54" width="1.6" height="1.6"/><rect id="_Path_63" data-name="&lt;Path&gt;" class="cls-58" x="77.2" y="46.64" width="1.41" height="1.41"/></g><g id="_Group_35" data-name="&lt;Group&gt;"><rect id="_Rectangle_29" data-name="&lt;Rectangle&gt;" class="cls-32" x="77.1" y="48.83" width="1.6" height="1.6"/><rect id="_Path_64" data-name="&lt;Path&gt;" class="cls-59" x="77.2" y="48.93" width="1.41" height="1.41"/></g><g id="_Group_36" data-name="&lt;Group&gt;"><rect id="_Rectangle_30" data-name="&lt;Rectangle&gt;" class="cls-32" x="77.1" y="51.12" width="1.6" height="1.6"/><rect id="_Path_65" data-name="&lt;Path&gt;" class="cls-60" x="77.2" y="51.22" width="1.41" height="1.41"/></g><g id="_Group_37" data-name="&lt;Group&gt;"><rect id="_Rectangle_31" data-name="&lt;Rectangle&gt;" class="cls-32" x="77.1" y="53.41" width="1.6" height="1.6"/><rect id="_Path_66" data-name="&lt;Path&gt;" class="cls-61" x="77.2" y="53.51" width="1.41" height="1.41"/></g><g id="_Group_38" data-name="&lt;Group&gt;"><rect id="_Rectangle_32" data-name="&lt;Rectangle&gt;" class="cls-32" x="77.1" y="55.71" width="1.6" height="1.6"/><rect id="_Path_67" data-name="&lt;Path&gt;" class="cls-62" x="77.2" y="55.8" width="1.41" height="1.41"/></g><g id="_Group_39" data-name="&lt;Group&gt;"><rect id="_Rectangle_33" data-name="&lt;Rectangle&gt;" class="cls-32" x="77.1" y="58" width="1.6" height="1.6"/><rect id="_Path_68" data-name="&lt;Path&gt;" class="cls-63" x="77.2" y="58.09" width="1.41" height="1.41"/></g><g id="_Group_40" data-name="&lt;Group&gt;"><rect id="_Rectangle_34" data-name="&lt;Rectangle&gt;" class="cls-32" x="77.1" y="60.29" width="1.6" height="1.6"/><rect id="_Path_69" data-name="&lt;Path&gt;" class="cls-64" x="77.2" y="60.39" width="1.41" height="1.41"/></g></g><g id="_Group_41" data-name="&lt;Group&gt;"><path id="_Path_70" data-name="&lt;Path&gt;" class="cls-22" d="M82,56.89V38a.48.48,0,0,0-.48-.48H77.81a.48.48,0,0,0-.47.57L81.07,57A.48.48,0,0,0,82,56.89Z"/><path id="_Path_71" data-name="&lt;Path&gt;" class="cls-22" d="M78.31,38.33,81,51.81a.28.28,0,0,0,.55-.05V38.28a.28.28,0,0,0-.28-.28H78.58A.28.28,0,0,0,78.31,38.33Z"/><path id="_Path_72" data-name="&lt;Path&gt;" class="cls-65" d="M81.69,61.43H77.56a.91.91,0,0,1-.91-.91v1.84h6V60.52A.91.91,0,0,1,81.69,61.43Z"/></g></g><g id="_Group_42" data-name="&lt;Group&gt;"><g id="_Group_43" data-name="&lt;Group&gt;"><g id="_Group_44" data-name="&lt;Group&gt;"><path id="_Path_73" data-name="&lt;Path&gt;" class="cls-66" d="M54.87,44.62a.93.93,0,0,0,.17-.15.27.27,0,0,0,.06-.18V41.22a5.07,5.07,0,0,1,5.07-5.07h0a5.07,5.07,0,0,1,5.07,5.07v.39a5.62,5.62,0,0,1-4.58,5.53,17.36,17.36,0,0,1-2.74.29,2,2,0,0,1-.86-.17,4.69,4.69,0,0,1-1.33-.88A2,2,0,0,1,55.1,45l-.24-.24A.09.09,0,0,1,54.87,44.62Z"/><path id="_Path_74" data-name="&lt;Path&gt;" class="cls-67" d="M60.17,36.24a5,5,0,0,1,5,5v.39A5.52,5.52,0,0,1,60.64,47a17.3,17.3,0,0,1-2.73.29,1.92,1.92,0,0,1-.82-.16,4.58,4.58,0,0,1-1.31-.86A1.91,1.91,0,0,1,55.2,45v0l-.27-.26a1,1,0,0,0,.18-.17.37.37,0,0,0,.09-.24V41.22A5,5,0,0,1,60.17,36.24Z"/></g><path id="_Compound_Path_3" data-name="&lt;Compound Path&gt;" class="cls-68" d="M60.17,36.14h0a5.07,5.07,0,0,0-5.07,5h2A18.14,18.14,0,0,1,57.91,44l-.93.45a2,2,0,0,0-.37-.19l-.49-.21a2.8,2.8,0,0,0-1-.32v.51a.27.27,0,0,1-.06.18.93.93,0,0,1-.17.15.09.09,0,0,0,0,.14l.24.24a2,2,0,0,0,.63,1.38,4.69,4.69,0,0,0,1.33.88,2,2,0,0,0,.86.17h0L58,46.9v.51a17.41,17.41,0,0,0,2.64-.29,5.62,5.62,0,0,0,4.58-5.53v-.39A5.07,5.07,0,0,0,60.17,36.14Zm-2.1,9.94-.1.07v0l-.19-.6a1.88,1.88,0,0,0-.53-.82l.72-.35A8,8,0,0,1,58.06,46.08Z"/><path id="_Path_75" data-name="&lt;Path&gt;" class="cls-24" d="M56.08,43.83a.09.09,0,0,0,.11.09.71.71,0,0,0,0-1.33.09.09,0,0,0-.11.09Z"/><g id="_Group_45" data-name="&lt;Group&gt;"><path class="cls-24" d="M56.51,42.28a1.92,1.92,0,0,0-.72.75.65.65,0,0,0-.09.42c0,.07.07.11.14-.08A3.57,3.57,0,0,0,55.91,42l0-.26a2.64,2.64,0,0,1,0-.55,1.76,1.76,0,0,1,.59-1.28.51.51,0,0,1,.64.06,1,1,0,0,1,.37.68,1.48,1.48,0,0,1-.34,1.11,1.11,1.11,0,0,1-.27.25Z"/></g><g id="_Group_46" data-name="&lt;Group&gt;"><path id="_Path_76" data-name="&lt;Path&gt;" class="cls-66" d="M59.72,43.47v1.28c.14.33,1.1.25,1.33-.79S60.09,42.47,59.72,43.47Z"/><g id="_Group_47" data-name="&lt;Group&gt;"><path class="cls-69" d="M60.65,43.73c-.22,0-.35,0-.33.07s.17.09.19,0,0,0-.12,0l-.36.26-.34,0a.87.87,0,0,1-.18-.56.84.84,0,0,1,.34-.65.8.8,0,0,1,1,0,.55.55,0,0,1,.14.74Z"/></g><path id="_Path_77" data-name="&lt;Path&gt;" class="cls-70" d="M59.72,43.47a.65.65,0,0,1,.79-.4.7.7,0,0,1,.43.86,1,1,0,0,1-.8.86c-.13,0-.37,0-.41-.05Z"/><path id="_Path_78" data-name="&lt;Path&gt;" class="cls-68" d="M60.4,43.31a.47.47,0,0,1,.59,0,.66.66,0,0,0-1.27.12v1.28a.34.34,0,0,0,.29.17C60,44.86,59.92,43.66,60.4,43.31Z"/></g></g><g id="_Group_48" data-name="&lt;Group&gt;"><path id="_Path_79" data-name="&lt;Path&gt;" class="cls-24" d="M53.42,54.43c-.74.73-1.3,1.34-1.31,1.35h0a2.19,2.19,0,0,0-.34,1.62.13.13,0,0,0,.14.1l1.65-.21a.13.13,0,0,0,.09-.06,3,3,0,0,0,.24-.81l1-.72Z"/><path id="_Path_80" data-name="&lt;Path&gt;" class="cls-71" d="M54.69,55.72l-.87.65a.1.1,0,0,0,0,.06,3,3,0,0,1-.23.78l0,0-1.65.21a0,0,0,0,1,0,0,2.09,2.09,0,0,1,.32-1.55c.06-.06.57-.62,1.24-1.29Z"/><path id="_Path_81" data-name="&lt;Path&gt;" class="cls-26" d="M53.42,54.43l1.11,1.29-.25.19a1,1,0,0,0-.68,0l-.09-.11a.1.1,0,0,0-.13,0l-.31.21-1-.24h0a2.19,2.19,0,0,0-.34,1.62.13.13,0,0,0,.14.1l1.65-.21a.13.13,0,0,0,.09-.06,3,3,0,0,0,.24-.81l1-.72Z"/></g><g id="_Group_49" data-name="&lt;Group&gt;"><path id="_Path_82" data-name="&lt;Path&gt;" class="cls-38" d="M59.57,48.16a1.37,1.37,0,0,0-1.08.53,40.55,40.55,0,0,1-3,3.55,19.59,19.59,0,0,0-2,1.74.27.27,0,0,0-.08.13.86.86,0,0,0,0,.32l1.43,1.29a.8.8,0,0,0,.37,0l.1,0c.79-.6,1.74-1.34,2.29-1.85l2.21-2.14H61V49.58A1.41,1.41,0,0,0,59.57,48.16Z"/><path id="_Path_83" data-name="&lt;Path&gt;" class="cls-72" d="M53.51,54.38a.8.8,0,0,1,0-.25.17.17,0,0,1,0-.08,19,19,0,0,1,2-1.73h0a40.62,40.62,0,0,0,3-3.57,1.28,1.28,0,0,1,1-.49h0a1.26,1.26,0,0,1,.89.37,1.34,1.34,0,0,1,.4.95v2h-1.1l-2.23,2.17c-.56.52-1.55,1.29-2.28,1.84l-.06,0a.68.68,0,0,1-.3,0Z"/><path id="_Path_84" data-name="&lt;Path&gt;" class="cls-65" d="M59.57,48.16a1.37,1.37,0,0,0-1.08.53l-.66.84a6.15,6.15,0,0,0-.42,1.72c-.13,1.27-.16,2.39-.16,2.39a8.94,8.94,0,0,1-.85,1.23c.46-.37.9-.73,1.2-1l2.21-2.14H61V49.58A1.41,1.41,0,0,0,59.57,48.16Z"/></g><g id="_Group_50" data-name="&lt;Group&gt;"><path id="_Path_85" data-name="&lt;Path&gt;" class="cls-24" d="M57.41,67.27l-.15,1.64a5.75,5.75,0,0,0-.89.49.35.35,0,0,0,.2.64h2.15a.44.44,0,0,0,.44-.37l.42-2.4Z"/><path id="_Path_86" data-name="&lt;Path&gt;" class="cls-73" d="M59.45,67.36l-.4,2.28a.35.35,0,0,1-.34.29H56.57a.26.26,0,0,1-.14-.47A5.69,5.69,0,0,1,57.3,69l.05,0,.15-1.6Z"/><path id="_Path_87" data-name="&lt;Path&gt;" class="cls-74" d="M57.41,67.27l-.15,1.64a5.75,5.75,0,0,0-.89.49.35.35,0,0,0,.2.64h2.15a.44.44,0,0,0,.44-.37l.42-2.4Z"/><path id="_Path_88" data-name="&lt;Path&gt;" class="cls-26" d="M57.41,67.27l0,.24h1.79l-.4,2.19a.42.42,0,0,1-.41.34h.35a.44.44,0,0,0,.44-.37l.42-2.4Z"/><path id="_Path_89" data-name="&lt;Path&gt;" class="cls-22" d="M57.66,67.72l-.08.9a.18.18,0,0,0,.31.15l1-.9a.18.18,0,0,0-.12-.32h-.9A.18.18,0,0,0,57.66,67.72Z"/></g><g id="_Group_51" data-name="&lt;Group&gt;"><path id="_Path_90" data-name="&lt;Path&gt;" class="cls-24" d="M63.82,67.76c-.16-.29-.53-1-1.07-1.92l-1.79,1,.87,1.25a5.76,5.76,0,0,0-.51.84.35.35,0,0,0,.49.46l1.84-1.06A.44.44,0,0,0,63.82,67.76Z"/><path id="_Path_91" data-name="&lt;Path&gt;" class="cls-75" d="M62.71,66c.51.89.86,1.53,1,1.84a.34.34,0,0,1-.13.47l-1.84,1.06a.26.26,0,0,1-.3,0,.25.25,0,0,1-.06-.3,5.63,5.63,0,0,1,.5-.82l0-.06,0-.06-.81-1.17Z"/><path id="_Path_92" data-name="&lt;Path&gt;" class="cls-22" d="M62.28,67.74l.26-1.11a.18.18,0,0,0-.26-.19l-.74.42a.18.18,0,0,0-.06.25l.47.68A.18.18,0,0,0,62.28,67.74Z"/></g><g id="_Group_52" data-name="&lt;Group&gt;"><path id="_Path_93" data-name="&lt;Path&gt;" class="cls-5" d="M55.1,43.82a5.42,5.42,0,0,1,1.5.52,1.86,1.86,0,0,1,1.13,1.18l.19.6a1.84,1.84,0,0,1,.07.76l-.06.54a6.36,6.36,0,0,1-1.51-.22,1.83,1.83,0,0,1-1.15-1l-.66-1.38a.27.27,0,0,1,0-.27Z"/><path id="_Path_94" data-name="&lt;Path&gt;" class="cls-5" d="M57.74,46.58h-.47v-.2h.41l2.51-1.71a.55.55,0,0,0,.24-.45v-.3a.55.55,0,0,0-.55-.55h0l-2.9,1.4v.33h-.2v-.45l3-1.48h.09a.74.74,0,0,1,.74.74v.3a.74.74,0,0,1-.32.61Z"/><path id="_Path_95" data-name="&lt;Path&gt;" class="cls-76" d="M56.06,44.22l.5.21a1.75,1.75,0,0,1,1.07,1.12l.19.6a1.74,1.74,0,0,1,.07.72l0,.45a6.33,6.33,0,0,1-1.4-.22,1.73,1.73,0,0,1-1.09-.93l-.66-1.38a.18.18,0,0,1,0-.17l.45-.69A3,3,0,0,1,56.06,44.22Z"/><path id="_Path_96" data-name="&lt;Path&gt;" class="cls-77" d="M57.9,46.12l-.19-.6a1.85,1.85,0,0,0-.89-1.07,3.26,3.26,0,0,1,.7,1.28,1.22,1.22,0,0,1-.33,1.2,2,2,0,0,1-1.65-.28,1.82,1.82,0,0,0,.86.54,6.36,6.36,0,0,0,1.51.22l.06-.54A1.84,1.84,0,0,0,57.9,46.12Z"/></g><g id="_Group_53" data-name="&lt;Group&gt;"><path id="_Path_97" data-name="&lt;Path&gt;" class="cls-38" d="M57.41,67.27a.83.83,0,0,1-.1-.28.26.26,0,0,1,0-.06l.83-8.87V56.24h3.14v1.87l-1.53,8.82v0a.81.81,0,0,1-.18.29Z"/><path id="_Path_98" data-name="&lt;Path&gt;" class="cls-78" d="M57.41,67a.17.17,0,0,1,0,0l.83-8.87V56.34h2.95V58.1l-1.53,8.82v0a.71.71,0,0,1-.13.23H57.47A.76.76,0,0,1,57.41,67Z"/><path id="_Path_99" data-name="&lt;Path&gt;" class="cls-65" d="M57.41,67.27a.83.83,0,0,1-.1-.28.26.26,0,0,1,0-.06l.83-8.87V56.24h3.14v1.87l-1.53,8.82v0a.81.81,0,0,1-.18.29Z"/><path id="_Path_100" data-name="&lt;Path&gt;" class="cls-65" d="M61.29,58.11V56.24H58.15v1.81l-.48,5.14h.45a6,6,0,0,1-.74,3.1l0,.4a5.43,5.43,0,0,0,1-3l.08.17c.21.39,1,1.57,1.52,2.27Z"/></g><g id="_Group_54" data-name="&lt;Group&gt;"><path id="_Path_101" data-name="&lt;Path&gt;" class="cls-38" d="M61,66.86a1.65,1.65,0,0,1-.21-.11.28.28,0,0,1-.08-.08c-.47-.68-1.06-1.5-1.7-2.39a3.15,3.15,0,0,1-.59-1.68l-.23-4.47c-1-3.17-.49-7.29-.29-8.48a2.21,2.21,0,0,1,.33-.85l.58-.89v-.15a1.52,1.52,0,0,1-.85-.35c1.08-3-1-7.23-1-7.23H55.1v-.74l0-.28a.28.28,0,0,1,0-.09,5.47,5.47,0,0,1,5-3.33h0a5.47,5.47,0,0,1,5.14,3.62.28.28,0,0,1,0,.09v1.27a1,1,0,0,1,.24.21.27.27,0,0,1,.06.16c0,.2,0,.49,0,.49a6,6,0,0,1-4.9,5.91h-.06v.41l.38.7a2.23,2.23,0,0,1,.26,1.29,20.67,20.67,0,0,0,0,4.33l.37.67a2.7,2.7,0,0,1-.07,2.72l-.34.55-.22,4.51c.63,1,1.18,2,1.63,2.8a.26.26,0,0,1,0,.08,1.46,1.46,0,0,1,0,.26Z"/><path id="_Path_102" data-name="&lt;Path&gt;" class="cls-79" d="M57.93,42.65a15.35,15.35,0,0,0-.9-2.5l0-.05H55.19v-.64l0-.28a.18.18,0,0,1,0-.06,5.37,5.37,0,0,1,10,.29.18.18,0,0,1,0,.06V40.8l0,0a.88.88,0,0,1,.21.19.17.17,0,0,1,0,.1c0,.2,0,.49,0,.49a5.91,5.91,0,0,1-4.82,5.81l-.14,0V48l.39.72a2.13,2.13,0,0,1,.25,1.23,20.78,20.78,0,0,0,0,4.35v0l.37.68a2.6,2.6,0,0,1-.07,2.62l-.35.57L61,62.72l0,0c.6,1,1.13,1.93,1.63,2.8l0,.05a1.36,1.36,0,0,1,0,.18l-1.7,1-.15-.08-.05,0C60.17,65.8,59.6,65,59,64.24a3.05,3.05,0,0,1-.57-1.63l-.23-4.47h0c-1-3.15-.48-7.25-.29-8.43a2.12,2.12,0,0,1,.32-.82l.59-.91v-.26h-.08a1.47,1.47,0,0,1-.75-.28A8.63,8.63,0,0,0,57.93,42.65Z"/><path id="_Compound_Path_4" data-name="&lt;Compound Path&gt;" class="cls-65" d="M61.25,59V57.23a.47.47,0,0,0-.47-.47h.07v-.24c.18-.15.46-.37.79-.66a1.62,1.62,0,0,0,.36,0,2.69,2.69,0,0,0-.3-.89l-.37-.67a20.67,20.67,0,0,1,0-4.33,2.23,2.23,0,0,0-.26-1.29L61,48.46a1.56,1.56,0,0,0-.56-.26l-.23-.08h-.46a1.32,1.32,0,0,0-.85.33,2.25,2.25,0,0,0-.53.73,4.79,4.79,0,0,0-.3.82c-.08.28-.14.56-.18.83-.1.55-.15,1.08-.19,1.59s-.06,1-.07,1.43,0,.6,0,.87a13.43,13.43,0,0,0,.59,3.46l.23,4.47a3.16,3.16,0,0,0,.09.6h2.11a.29.29,0,0,0,.29-.29v-.48a.47.47,0,0,0,.22-.11ZM61,53l0,0,0,0ZM59.2,55.62a3.24,3.24,0,0,0-.7.24,3.64,3.64,0,0,0-.7.44v-.4a.51.51,0,0,1,.51-.51H59.4Zm1.14-1.72a.27.27,0,0,0,0,.08,1.36,1.36,0,0,0-.07.46l-.54.62H58.31a.84.84,0,0,0-.58.23c0-.43,0-.93,0-1.49s0-.92.07-1.42.09-1,.18-1.58a6.23,6.23,0,0,1,.47-1.61,2.1,2.1,0,0,1,.49-.68,1.21,1.21,0,0,1,.35-.22,1.19,1.19,0,0,1,.29-.07,1.58,1.58,0,0,0-1,.79,1.42,1.42,0,0,0-.09.9l.24,1.79h1.1l1,1.32,0,.28Z"/><path id="_Path_103" data-name="&lt;Path&gt;" class="cls-65" d="M65.33,40.74v-1.3H60.05a.92.92,0,0,0-.56-.19H55.11l0,.2v.74h1.85a13.5,13.5,0,0,1,1.28,5.6,4.56,4.56,0,0,0,0-.59V41.1h1.23a.92.92,0,0,0,.56-.19h5.48A1,1,0,0,0,65.33,40.74Z"/><path id="_Path_104" data-name="&lt;Path&gt;" class="cls-65" d="M59.06,47.77a6,6,0,0,0,1.25-.15v.3a2.92,2.92,0,0,1,.6.45l-.24-.44v-.41h.06a6,6,0,0,0,3.2-1.72,7.33,7.33,0,0,1-3.07,1.29A4.35,4.35,0,0,0,59.06,47.77Z"/></g><g id="_Group_55" data-name="&lt;Group&gt;"><path id="_Path_105" data-name="&lt;Path&gt;" d="M60.58,56.5v-.21c0-.14,0-.33,0-.58s0-.56.06-.9.07-.74.12-1.17l.15-1.38c.05-.49.1-1,.12-1.54,0-.27,0-.54,0-.81a3.58,3.58,0,0,0-.13-.81,1.28,1.28,0,0,0-.42-.67,1,1,0,0,0-.36-.17h-.41a1.14,1.14,0,0,0-.74.29,2,2,0,0,0-.48.66,6,6,0,0,0-.45,1.56c-.09.53-.14,1-.18,1.53s-.05,1-.06,1.38c0,.86,0,1.57,0,2.07v.79a.1.1,0,0,1-.2,0h0v-.79c0-.5,0-1.22,0-2.08,0-.43,0-.9.07-1.39s.09-1,.18-1.54c0-.27.1-.54.18-.81a4.65,4.65,0,0,1,.29-.8,2.18,2.18,0,0,1,.52-.71,1.28,1.28,0,0,1,.83-.32h.44a1.11,1.11,0,0,1,.41.19,1.17,1.17,0,0,1,.3.34,1.76,1.76,0,0,1,.18.4,3.72,3.72,0,0,1,.14.84c0,.28,0,.55,0,.82,0,.54-.07,1.06-.12,1.55l-.15,1.38c0,.43-.08.82-.11,1.17s0,.65-.05.9,0,.45,0,.58v.21h0a.1.1,0,1,1-.2,0Z"/><path id="_Rectangle_35" data-name="&lt;Rectangle&gt;" class="cls-5" d="M57.54,61.85h3.32a0,0,0,0,1,0,0v0a.92.92,0,0,1-.92.92H58.46a.92.92,0,0,1-.92-.92v0a0,0,0,0,1,0,0Z"/><path id="_Path_106" data-name="&lt;Path&gt;" class="cls-80" d="M60.76,61.85v.64a.18.18,0,0,1-.18.18H57.82a.18.18,0,0,1-.18-.18v-.64Z"/><path id="_Rectangle_36" data-name="&lt;Rectangle&gt;" class="cls-65" d="M57.54,61.85h3.32a0,0,0,0,1,0,0v0a.92.92,0,0,1-.92.92H58.46a.92.92,0,0,1-.92-.92v0a0,0,0,0,1,0,0Z"/><path id="_Path_107" data-name="&lt;Path&gt;" class="cls-77" d="M57.54,61.85v.64h0a.28.28,0,0,1,.28-.28h2.76a.28.28,0,0,1,.28.28h0v-.64Z"/><path id="_Path_108" data-name="&lt;Path&gt;" class="cls-81" d="M60.84,56.5h-.33v-.82a.49.49,0,0,0-.49-.49H58.38a.49.49,0,0,0-.49.49v.82h-.33v-.82a.82.82,0,0,1,.82-.82H60a.82.82,0,0,1,.82.82Z"/><g id="_Group_56" data-name="&lt;Group&gt;" class="cls-47"><path id="_Path_109" data-name="&lt;Path&gt;" class="cls-81" d="M60.84,55.68a.82.82,0,0,0-.82-.82h-.35l-.28.33H60a.49.49,0,0,1,.49.49v.82h.13s0,0,0,0l.19-.15Z"/><path id="_Path_110" data-name="&lt;Path&gt;" class="cls-81" d="M57.56,56.3v.2h.33V56l-.29.24Z"/></g><path id="_Path_111" data-name="&lt;Path&gt;" class="cls-82" d="M57.79,55.68v.82a.07.07,0,1,1-.13,0v-.82a.72.72,0,0,1,.72-.72H60a.72.72,0,0,1,.72.72v.82a.07.07,0,1,1-.13,0v-.82a.59.59,0,0,0-.59-.59H58.38A.59.59,0,0,0,57.79,55.68Z"/><rect id="_Rectangle_37" data-name="&lt;Rectangle&gt;" class="cls-5" x="57.17" y="56.5" width="4.06" height="5.53" rx="2.03" ry="2.03"/><circle id="_Path_112" data-name="&lt;Path&gt;" class="cls-81" cx="58.12" cy="62.4" r="0.21"/><rect id="_Path_113" data-name="&lt;Path&gt;" class="cls-83" x="57.27" y="56.6" width="3.86" height="5.34" rx="0.36" ry="0.36"/><path id="_Path_114" data-name="&lt;Path&gt;" class="cls-77" d="M60.77,61.57H57.63a.46.46,0,0,1-.46-.46v.46a.46.46,0,0,0,.46.46h3.13a.46.46,0,0,0,.46-.46v-.46A.46.46,0,0,1,60.77,61.57Z"/><path id="_Path_115" data-name="&lt;Path&gt;" class="cls-77" d="M57.63,56.5l-.12,0a.25.25,0,0,0,.11.16.51.51,0,0,0,.26.08.56.56,0,0,0,.32-.11l0,0-.28.41c-.18.26-.42.63-.15.82a.29.29,0,0,0,.34,0,.32.32,0,0,0,.54.33.29.29,0,0,0,.16.3.31.31,0,0,0,.38-.11.27.27,0,0,0,.18.25l.1,0c.23,0,.36-.32.47-.55s.17-.4.19-.47a2,2,0,0,0,.48-1.13Z"/></g><g id="_Group_57" data-name="&lt;Group&gt;"><path id="_Path_116" data-name="&lt;Path&gt;" class="cls-24" d="M60.23,54.26l-1,1.14a3.15,3.15,0,0,0-.68.23,3.81,3.81,0,0,0-.86.58.25.25,0,0,0-.08.21.24.24,0,0,0,.11.19.49.49,0,0,0,.25.08.55.55,0,0,0,.31-.11l0,0-.27.4c-.17.26-.4.61-.15.79a.28.28,0,0,0,.33,0,.31.31,0,0,0,.53.32.28.28,0,0,0,.15.29.3.3,0,0,0,.37-.1.26.26,0,0,0,.17.24l.1,0c.22,0,.35-.31.45-.54s.16-.39.19-.45a1.89,1.89,0,0,0,.47-1.13c.13-.1.48-.38.93-.77Z"/><path id="_Path_117" data-name="&lt;Path&gt;" class="cls-84" d="M59.22,58.19c-.12.13-.2.11-.26.08a.18.18,0,0,1-.1-.2A.1.1,0,0,0,58.7,58c-.14.13-.23.11-.29.07s-.12-.1-.07-.29a.1.1,0,0,0-.14-.11.18.18,0,0,1-.22,0c-.17-.12,0-.37.17-.66l.27-.39a.1.1,0,0,0-.13-.14l0,0a.46.46,0,0,1-.25.09.4.4,0,0,1-.2-.07.14.14,0,0,1-.07-.11.15.15,0,0,1,.05-.13,3.71,3.71,0,0,1,.83-.56,3.06,3.06,0,0,1,.65-.22l.05,0,.92-1.06,1.22,1.22c-.41.35-.72.6-.85.69a.1.1,0,0,0,0,.08,1.8,1.8,0,0,1-.45,1.07l0,0c0,.06-.09.24-.19.45s-.21.48-.36.48H59.5a.16.16,0,0,1-.11-.16.1.1,0,0,0-.06-.08h0A.1.1,0,0,0,59.22,58.19Z"/><g id="_Group_58" data-name="&lt;Group&gt;"><path id="_Path_118" data-name="&lt;Path&gt;" class="cls-26" d="M60.23,54.26l1,1.27a2.33,2.33,0,0,1-.74.68,2.36,2.36,0,0,1-.32,1.25,2.62,2.62,0,0,1-.16.62L60,58c.09-.21.16-.39.19-.45a1.89,1.89,0,0,0,.47-1.13c.13-.1.48-.38.93-.77Z"/><path id="_Path_119" data-name="&lt;Path&gt;" class="cls-26" d="M59.91,58.21h0Z"/></g><g id="_Group_59" data-name="&lt;Group&gt;"><g id="_Group_60" data-name="&lt;Group&gt;"><g id="_Group_61" data-name="&lt;Group&gt;"><path id="_Path_120" data-name="&lt;Path&gt;" class="cls-85" d="M60.42,58.29"/></g></g></g><g id="_Group_62" data-name="&lt;Group&gt;"><g id="_Group_63" data-name="&lt;Group&gt;"><g id="_Group_64" data-name="&lt;Group&gt;"><path id="_Path_121" data-name="&lt;Path&gt;" class="cls-85" d="M59.88,58"/></g></g></g><path id="_Path_122" data-name="&lt;Path&gt;" class="cls-26" d="M59.36,57.83c-.08.18-.24.48-.42.53a.31.31,0,0,0,.35-.11l.42-1A3.71,3.71,0,0,0,59.36,57.83Z"/><path id="_Path_123" data-name="&lt;Path&gt;" class="cls-26" d="M59.31,57l-.32.46c-.06.09-.38.66-.56.71a.35.35,0,0,0,.33-.12S59.23,57.21,59.31,57Z"/><path id="_Path_124" data-name="&lt;Path&gt;" class="cls-26" d="M58.53,57.19c-.1.13-.42.58-.6.57a.28.28,0,0,0,.3,0s.57-.79.7-1C58.94,56.72,58.63,57.07,58.53,57.19Z"/><path id="_Path_125" data-name="&lt;Path&gt;" class="cls-26" d="M58.24,56.41a.57.57,0,0,1-.58.09.24.24,0,0,0,.09.1.49.49,0,0,0,.25.08.55.55,0,0,0,.31-.11l0,0s.28-.36.4-.49Z"/><path id="_Path_126" data-name="&lt;Path&gt;" class="cls-22" d="M59.67,55.6l1.28,0a.09.09,0,0,0,.07-.16l-.69-.69a.09.09,0,0,0-.14,0l-.59.68A.09.09,0,0,0,59.67,55.6Z"/></g><g id="_Group_65" data-name="&lt;Group&gt;"><path id="_Path_127" data-name="&lt;Path&gt;" class="cls-38" d="M63.77,52.25a39.58,39.58,0,0,0-2.52-3.51A1.53,1.53,0,0,0,58.7,49a1.57,1.57,0,0,0-.15.93l.24,1.79h1.1L61,52.91l-.7.82a.26.26,0,0,0,0,.08,1.32,1.32,0,0,0-.07.45l1.37,1.37a1.44,1.44,0,0,0,.48-.09l.07,0c.36-.32,1.05-1.06,1.41-1.43A1.49,1.49,0,0,0,63.77,52.25Z"/><path id="_Path_128" data-name="&lt;Path&gt;" class="cls-86" d="M60.39,53.84l0-.05.75-.89-1.3-1.2h-1.1l-.22-1.65a2,2,0,0,1,.22-1,1.43,1.43,0,0,1,2.39-.24,39.5,39.5,0,0,1,2.51,3.5h0a1.39,1.39,0,0,1-.2,1.7l-.32.33c-.37.38-.82.85-1.09,1.09l0,0a1.29,1.29,0,0,1-.4.08l-1.31-1.31A1.22,1.22,0,0,1,60.39,53.84Z"/><path id="_Path_129" data-name="&lt;Path&gt;" class="cls-65" d="M61,52.91l-.35.41a4.2,4.2,0,0,1,1.75-.41A2.53,2.53,0,0,0,61,52.91Z"/></g><g id="_Group_66" data-name="&lt;Group&gt;"><path id="_Rectangle_38" data-name="&lt;Rectangle&gt;" class="cls-87" d="M59.62,39.62H65a.55.55,0,0,1,.55.55v0a.55.55,0,0,1-.55.55H59.62a0,0,0,0,1,0,0V39.62a0,0,0,0,1,0,0Z"/><path id="_Path_130" data-name="&lt;Path&gt;" class="cls-88" d="M59.71,39.72h5.61a.09.09,0,0,1,.09.09v.73a.09.09,0,0,1-.09.09H59.71Z"/><path id="_Path_131" data-name="&lt;Path&gt;" class="cls-22" d="M65.19,40.48,64,40a.09.09,0,0,1,0-.18h1.23a.09.09,0,0,1,.09.09v.48A.09.09,0,0,1,65.19,40.48Z"/><path id="_Path_132" data-name="&lt;Path&gt;" class="cls-89" d="M60.39,40.45a.73.73,0,0,0,.05-.28h0a.74.74,0,0,0-.25-.55h-.58v1.11h5.71a.19.19,0,0,0,.19-.19v-.09Z"/><path id="_Path_133" data-name="&lt;Path&gt;" class="cls-90" d="M59.43,40.91h-4.8a.18.18,0,0,1-.18-.18V39.62a.18.18,0,0,1,.18-.18h4.8a.74.74,0,0,1,.74.74h0A.74.74,0,0,1,59.43,40.91Z"/><path id="_Path_134" data-name="&lt;Path&gt;" class="cls-91" d="M59.43,39.54a.64.64,0,1,1,0,1.28h-4.8a.09.09,0,0,1-.09-.09V39.62a.09.09,0,0,1,.09-.09Z"/><path id="_Path_135" data-name="&lt;Path&gt;" class="cls-22" d="M59.27,40.63l-1.51-.81a.1.1,0,0,1,0-.19h1.6a.56.56,0,0,1,.56.51.54.54,0,0,1-.19.45A.46.46,0,0,1,59.27,40.63Z"/><path id="_Path_136" data-name="&lt;Path&gt;" class="cls-42" d="M59.43,40.64h-4.8a.18.18,0,0,1-.18-.18v.28a.18.18,0,0,0,.18.18h4.8a.74.74,0,0,0,.74-.74h0a.74.74,0,0,0,0-.14A.74.74,0,0,1,59.43,40.64Z"/><path id="_Rectangle_39" data-name="&lt;Rectangle&gt;" class="cls-92" d="M54.48,39.62h3.23A.34.34,0,0,1,58,40v4.61a3.35,3.35,0,0,1-3.35,3.35h0a.34.34,0,0,1-.34-.34V39.74A.12.12,0,0,1,54.48,39.62Z"/><path id="_Path_137" data-name="&lt;Path&gt;" class="cls-93" d="M57.52,39.92a.23.23,0,0,0-.23.23v5a2.61,2.61,0,0,1-1.5,2.24.09.09,0,0,0,.06.17,2.47,2.47,0,0,0,1.89-2.41v-5a.23.23,0,0,0-.23-.23Z"/><circle id="_Path_138" data-name="&lt;Path&gt;" class="cls-23" cx="59.64" cy="39.99" r="0.17"/></g><path id="_Path_139" data-name="&lt;Path&gt;" d="M56,67.11a1.54,1.54,0,0,1-.42-.06c-1.64-.46-1.29-2.68-.89-5.26.12-.77.25-1.56.32-2.34.13-1.31-.06-2.8-.75-3.2a.6.6,0,0,0-.69.07.1.1,0,0,1-.12-.16.79.79,0,0,1,.9-.08c.68.39,1,1.72.85,3.39-.08.78-.2,1.58-.32,2.35-.39,2.48-.73,4.63.75,5a1.29,1.29,0,0,0,1.22-.27c.85-.69,1.32-2.37,1.19-4.18a.1.1,0,1,1,.19,0c.14,1.87-.36,3.61-1.26,4.34A1.52,1.52,0,0,1,56,67.11Z"/><g id="_Group_67" data-name="&lt;Group&gt;"><path id="_Rectangle_40" data-name="&lt;Rectangle&gt;" class="cls-81" d="M51.06,57h0a.46.46,0,0,1,.46.46v0a0,0,0,0,1,0,0H50.6a0,0,0,0,1,0,0v0a.46.46,0,0,1,.46-.46Z" transform="matrix(0.82, -0.57, 0.57, 0.82, -23.45, 38.94)"/><rect id="_Path_140" data-name="&lt;Path&gt;" class="cls-94" x="50.7" y="57.15" width="0.73" height="0.27" transform="translate(-23.41 38.78) rotate(-34.33)"/><path id="_Rectangle_41" data-name="&lt;Rectangle&gt;" class="cls-95" d="M51.06,57h0a.46.46,0,0,1,.46.46v0a0,0,0,0,1,0,0H50.6a0,0,0,0,1,0,0v0a.46.46,0,0,1,.46-.46Z" transform="matrix(0.82, -0.57, 0.57, 0.82, -23.45, 38.94)"/><rect id="_Path_141" data-name="&lt;Path&gt;" class="cls-81" x="43.87" y="60.2" width="7.38" height="0.26" transform="translate(-25.79 37.49) rotate(-34.46)"/><rect id="_Path_142" data-name="&lt;Path&gt;" class="cls-96" x="43.97" y="60.3" width="7.18" height="0.06" transform="translate(-25.79 37.49) rotate(-34.46)"/><rect id="_Path_143" data-name="&lt;Path&gt;" class="cls-95" x="43.87" y="60.2" width="7.38" height="0.26" transform="translate(-25.79 37.49) rotate(-34.46)"/><rect id="_Rectangle_42" data-name="&lt;Rectangle&gt;" class="cls-81" x="50.28" y="56.88" width="3.69" height="0.65" rx="0.32" ry="0.32" transform="translate(-23.22 39.52) rotate(-34.46)"/><path id="_Path_144" data-name="&lt;Path&gt;" class="cls-81" d="M45.22,62.13,45,61.86a.09.09,0,0,0-.13,0l-.53.44a.09.09,0,0,0,0,0l-.14.56a.09.09,0,0,0,0,0l.06.39a.05.05,0,0,0,.05,0h.09a.05.05,0,0,0,0,0l0-.35.18-.41.52-.29A.09.09,0,0,0,45.22,62.13Z"/><rect id="_Path_145" data-name="&lt;Path&gt;" class="cls-97" x="50.38" y="56.97" width="3.49" height="0.45" transform="translate(-23.22 39.52) rotate(-34.46)"/><polygon id="_Path_146" data-name="&lt;Path&gt;" class="cls-98" points="44.36 63.27 44.35 63.27 44.3 62.92 44.43 62.36 44.96 61.92 45.14 62.18 44.6 62.48 44.4 62.94 44.36 63.27"/><circle id="_Path_147" data-name="&lt;Path&gt;" class="cls-99" cx="50.8" cy="57.39" r="0.07" transform="translate(-21.15 83.8) rotate(-68.64)"/><circle id="_Path_148" data-name="&lt;Path&gt;" class="cls-99" cx="50.68" cy="58.03" r="0.07" transform="translate(-21.82 84.09) rotate(-68.64)"/><path id="_Path_149" data-name="&lt;Path&gt;" class="cls-100" d="M53.39,55.94l-1.82,1.25.12.17a.67.67,0,0,0,0,.39l-.85.7,2.89-2a.09.09,0,0,0,0-.13L53.51,56A.09.09,0,0,0,53.39,55.94Z"/><polygon id="_Path_150" data-name="&lt;Path&gt;" class="cls-101" points="44.41 63.36 50.21 70.03 38.5 70.03 44.31 63.37 44.41 63.36"/></g><g id="_Group_68" data-name="&lt;Group&gt;"><path id="_Path_151" data-name="&lt;Path&gt;" class="cls-24" d="M53.9,57a.68.68,0,0,0,0-.16h0a.69.69,0,0,0-.09-.15.35.35,0,0,0-.41-.1.35.35,0,0,0-.17.16.37.37,0,0,0-.46.18.39.39,0,0,0-.5.22.37.37,0,0,0-.26,0,.36.36,0,0,0-.22.39.72.72,0,0,0,.14.33.37.37,0,0,0,.62-.07.39.39,0,0,0,.51-.22.37.37,0,0,0,.45-.21.35.35,0,0,0,.42-.21A.34.34,0,0,0,53.9,57Z"/><path id="_Path_152" data-name="&lt;Path&gt;" class="cls-102" d="M52.19,57.22a.1.1,0,0,0,.12-.06.29.29,0,0,1,.38-.16.1.1,0,0,0,.12,0,.27.27,0,0,1,.34-.13.1.1,0,0,0,.12,0,.26.26,0,0,1,.12-.12.25.25,0,0,1,.3.07.59.59,0,0,1,.07.12h0a.59.59,0,0,1,0,.14.24.24,0,0,1,0,.13.25.25,0,0,1-.14.14.26.26,0,0,1-.17,0,.1.1,0,0,0-.12.06.27.27,0,0,1-.33.15.1.1,0,0,0-.12.06.29.29,0,0,1-.38.16.1.1,0,0,0-.12,0,.27.27,0,0,1-.14.13A.27.27,0,0,1,52,57.8a.62.62,0,0,1-.12-.29.27.27,0,0,1,.16-.28l.11,0Z"/><path id="_Path_153" data-name="&lt;Path&gt;" class="cls-26" d="M52.26,57.12s0,0,0-.07l0,.07a.37.37,0,0,0-.47.28h0l.06,0a.3.3,0,0,0,.41-.14A.45.45,0,0,0,52.26,57.12Z"/></g><g id="_Group_69" data-name="&lt;Group&gt;"><path id="_Path_154" data-name="&lt;Path&gt;" class="cls-24" d="M53,56.28a.73.73,0,0,1-.78.49l0,0a.7.7,0,0,1,.07.27.44.44,0,0,1,0,.19.29.29,0,0,1-.4.14l-.06,0-.21-.25a.4.4,0,0,1-.09-.29,3.55,3.55,0,0,1,.06-.45.66.66,0,0,1,.27-.4,2.14,2.14,0,0,1,.4-.23l.88.29A1.31,1.31,0,0,1,53,56.28Z"/><path id="_Path_155" data-name="&lt;Path&gt;" class="cls-103" d="M53.07,56c-.23.67-.66.66-.84.65a.1.1,0,0,0-.09,0l0,.06a.1.1,0,0,0,0,.09.6.6,0,0,1,.06.24.34.34,0,0,1,0,.14.18.18,0,0,1-.14.11.19.19,0,0,1-.17-.07L51.64,57a.3.3,0,0,1-.07-.22,3.72,3.72,0,0,1,0-.37A.68.68,0,0,1,51.9,56c.12-.08.28-.19.36-.26Z"/></g></g></g></g></g></g></svg>