<svg id="Layer_1" data-name="Layer 1" xmlns="http://www.w3.org/2000/svg" xmlns:xlink="http://www.w3.org/1999/xlink" viewBox="0 0 86.6 100"><defs><style>.cls-1,.cls-12,.cls-19{fill:none;}.cls-2{fill:url(#linear-gradient);}.cls-3{fill:#d9ede0;}.cls-4{clip-path:url(#clip-path);}.cls-5,.cls-6,.cls-7{opacity:0.2;}.cls-5{fill:url(#linear-gradient-2);}.cls-6{fill:url(#linear-gradient-3);}.cls-7{fill:url(#linear-gradient-4);}.cls-8{fill:#200f2e;}.cls-9{fill:#fff;}.cls-10{fill:#010101;opacity:0.13;}.cls-10,.cls-20{isolation:isolate;}.cls-11{opacity:0.35;fill:url(#linear-gradient-5);}.cls-12{stroke:#62c08d;stroke-width:2px;}.cls-12,.cls-19{stroke-linecap:round;stroke-linejoin:round;}.cls-13{fill:#62c08d;}.cls-14{fill:#d7d7eb;}.cls-15{fill:#0e2a47;}.cls-16{fill:url(#linear-gradient-6);}.cls-17{fill:url(#linear-gradient-7);}.cls-18{fill:url(#radial-gradient);}.cls-19{stroke:#0e2a47;}.cls-20{fill:#ec2227;opacity:0.2;}.cls-21{fill:#edf3ed;}.cls-22{fill:#0c2546;}.cls-23{fill:#5ebf89;}.cls-24{fill:#47b975;}</style><linearGradient id="linear-gradient" y1="50" x2="86.6" y2="50" gradientUnits="userSpaceOnUse"><stop offset="0" stop-color="#f16d95"/><stop offset="1" stop-color="#f47f74"/></linearGradient><clipPath id="clip-path" transform="translate(-6.8)"><path class="cls-1" d="M86.44,29.39V70.91h0l-.85.49-.26.15-.1,0-.69.4-2.45,1.42-.16.09-1.51.87-.12.07-1.16.67-.37.21-.11.06-.37.21-.18.1h0l-.08,0-.08.06-2.37,1.35-.64.37-.82.47,0,0-1,.55-.35.2,0,0h0l-1.2.7-.68.4-1,.56,0,0-.06,0-.06,0-.32.19h0l0,0h0l0,0h0l-.61.35-.14.07,0,0h0l-.79.46-.1.06-.12.07,0,0-.25.14-.18.11h0l-.06,0-.5.3-.15.09L66,82.7l-.2.11h0L65.4,83l-.33.19,0,0-.45.26-1.82,1-.49.28-.05,0L59.5,86.43h0l-.31.18-.27.15L58.5,87l-.11.06-1,.57-.76.44-.31.17h0l-.33.2-.31.18L53.84,89.7l-.28.17h0l-.14.08-.39.23L51.54,91l-.44.25h0l-.25.15-.37.22-.11-.07-1-.58-.67-.38h0L48,90.2l-.14-.08,0,0-.48-.28-.13-.08-2.63-1.51,0,0-1.62-.93-3.71-2.16-.48-.27-.53-.31-.73-.42L37.28,84l-.07,0,0,0-1.74-1-.95-.55-.29-.17-.31-.17-.18-.1-.2-.12-.19-.11-.07,0L33,81.54l-.07,0-.06,0,0,0-1-.58,0,0-.12-.07-.29-.17L30,79.84l-2-1.15-1.63-.93-.65-.37-.07,0-.39-.23h0l-.17-.1h0l-.81-.47h0l-1.45-.85-.8-.46-1-.6-.56-.33,0,0h0l-.22-.13h0L20,74h0l-2.58-1.49L14.72,71l-.07,0-.07,0h0V29.39L19,26.84l.6-.36h0l.2-.11.45-.25,1.37-.79,1.78-1,.64-.38.11-.07,1.62-.93.77-.44.79-.46.32-.19.36-.2.19-.11h0l.44-.26,2.53-1.45,1.23-.72.13-.07,1.3-.75.61-.35.3-.17.34-.2.86-.51.41-.23,1.78-1,.54-.32,1.09-.63h0l0,0,4.47-2.58.15-.08.21-.13L49.38,9.3l1.13-.65.82.48,5.08,2.93,2,1.18L61.52,15l1,.6,5.18,3,.82.48,1.79,1,.68.39,1.19.69,1.07.61.62.36.08.05,1.41.81,3,1.71,0,0h0l.21.11.2.12.31.18.72.42.42.24h0l1.5.87.61.34.34.19,1.52.88Z"/></clipPath><linearGradient id="linear-gradient-2" x1="29.13" y1="88.14" x2="46.93" y2="57.31" gradientUnits="userSpaceOnUse"><stop offset="0.14" stop-opacity="0"/><stop offset="0.84"/></linearGradient><linearGradient id="linear-gradient-3" x1="3.59" y1="63.77" x2="25.16" y2="55.92" xlink:href="#linear-gradient-2"/><linearGradient id="linear-gradient-4" x1="76.55" y1="76.07" x2="65.49" y2="52.36" xlink:href="#linear-gradient-2"/><linearGradient id="linear-gradient-5" x1="41.27" y1="37.28" x2="65.25" y2="37.28" xlink:href="#linear-gradient"/><linearGradient id="linear-gradient-6" x1="68.4" y1="42.28" x2="83.55" y2="42.28" gradientTransform="matrix(1, 0, 0, -1, -25.13, 81.32)" xlink:href="#linear-gradient"/><linearGradient id="linear-gradient-7" x1="51.81" y1="13.67" x2="99.45" y2="13.67" gradientTransform="matrix(1, 0, 0, -1, -25.13, 81.32)" gradientUnits="userSpaceOnUse"><stop offset="1" stop-color="#f16d95"/><stop offset="1" stop-color="#f47f74"/></linearGradient><radialGradient id="radial-gradient" cx="79.46" cy="46.22" r="2.52" gradientTransform="matrix(1, 0, 0, -1, -25.13, 81.32)" gradientUnits="userSpaceOnUse"><stop offset="0" stop-color="#fff"/><stop offset="1" stop-color="#f2f2f2"/></radialGradient></defs><polygon class="cls-2" points="43.3 0 0 25 0 75 43.3 100 86.6 75 86.6 25 43.3 0"/><path class="cls-3" d="M86.44,29.39V70.91h0l-.85.49-.26.15-.1,0-.69.4-2.45,1.42-.16.09-1.51.87-.12.07-1.16.67-.37.21-.11.06-.37.21-.18.1h0l-.08,0-.08.06-2.37,1.35-.64.37-.82.47,0,0-1,.55-.35.2,0,0h0l-1.2.7-.68.4-1,.56,0,0-.06,0-.06,0-.32.19h0l0,0h0l0,0h0l-.61.35-.14.07,0,0h0l-.79.46-.1.06-.12.07,0,0-.25.14-.18.11h0l-.06,0-.5.3-.15.09L66,82.7l-.2.11h0L65.4,83l-.33.19,0,0-.45.26-1.82,1-.49.28-.05,0L59.5,86.43h0l-.31.18-.27.15L58.5,87l-.11.06-1,.57-.76.44-.31.17h0l-.33.2-.31.18L53.84,89.7l-.28.17h0l-.14.08-.39.23L51.54,91l-.44.25h0l-.25.15-.37.22-.11-.07-1-.58-.67-.38h0L48,90.2l-.14-.08,0,0-.48-.28-.13-.08-2.63-1.51,0,0-1.62-.93-3.71-2.16-.48-.27-.53-.31-.73-.42L37.28,84l-.07,0,0,0-1.74-1-.95-.55-.29-.17-.31-.17-.18-.1-.2-.12-.19-.11-.07,0L33,81.54l-.07,0-.06,0,0,0-1-.58,0,0-.12-.07-.29-.17L30,79.84l-2-1.15-1.63-.93-.65-.37-.07,0-.39-.23h0l-.17-.1h0l-.81-.47h0l-1.45-.85-.8-.46-1-.6-.56-.33,0,0h0l-.22-.13h0L20,74h0l-2.58-1.49L14.72,71l-.07,0-.07,0h0V29.39L19,26.84l.6-.36h0l.2-.11.45-.25,1.37-.79,1.78-1,.64-.38.11-.07,1.62-.93.77-.44.79-.46.32-.19.36-.2.19-.11h0l.44-.26,2.53-1.45,1.23-.72.13-.07,1.3-.75.61-.35.3-.17.34-.2.86-.51.41-.23,1.78-1,.54-.32,1.09-.63h0l0,0,4.47-2.58.15-.08.21-.13L49.38,9.3l1.13-.65.82.48,5.08,2.93,2,1.18L61.52,15l1,.6,5.18,3,.82.48,1.79,1,.68.39,1.19.69,1.07.61.62.36.08.05,1.41.81,3,1.71,0,0h0l.21.11.2.12.31.18.72.42.42.24h0l1.5.87.61.34.34.19,1.52.88Z" transform="translate(-6.8)"/><g class="cls-4"><polyline class="cls-5" points="36.76 59.68 12.89 77.83 40.18 94.52 48.31 93.34 51.49 59.95"/><polyline class="cls-6" points="26.05 58.37 4.58 66.5 4.58 60.32 12.89 57.68"/><polyline class="cls-7" points="58.08 57.14 66.9 81.89 85.18 68.09 72.92 57.14"/></g><path class="cls-8" d="M60.73,89.9,62,89.2l0,.1a2.35,2.35,0,0,1,.27.63,1.73,1.73,0,0,1,0,.6,1.54,1.54,0,0,1-.78,1.06,1.66,1.66,0,0,1-1.32.17,1.78,1.78,0,0,1-1.25-2.19,1.81,1.81,0,0,1,.84-1.08,1.74,1.74,0,0,1,.73-.23,2.29,2.29,0,0,1,.83.13l-.14.49a1.26,1.26,0,0,0-1.17,0,1.19,1.19,0,0,0-.6.78,1.25,1.25,0,0,0,.14,1,1.21,1.21,0,0,0,.83.61,1.25,1.25,0,0,0,.89-.12,1,1,0,0,0,.46-.56.92.92,0,0,0,0-.71l-.74.43Z" transform="translate(-6.8)"/><rect class="cls-8" x="63.54" y="86.51" width="0.51" height="3.42" transform="translate(-42.32 43.63) rotate(-29.95)"/><polygon class="cls-8" points="59.16 85.57 60.62 88.11 60.18 88.36 58.71 85.82 58.03 86.22 57.79 85.8 59.6 84.76 59.84 85.18 59.16 85.57"/><path class="cls-8" d="M70,82.9l.3.53a1.38,1.38,0,0,0-1,.13,1.23,1.23,0,0,0-.59.77,1.29,1.29,0,0,0,.15,1,1.25,1.25,0,0,0,.76.61,1.2,1.2,0,0,0,1-.13,1.16,1.16,0,0,0,.36-.3,1.59,1.59,0,0,0,.13-.22L71.2,85l.31.54a1.85,1.85,0,0,1-.68.68,1.76,1.76,0,0,1-2.41-.64,1.79,1.79,0,0,1-.2-1.22,1.71,1.71,0,0,1,.88-1.22A1.65,1.65,0,0,1,70,82.9" transform="translate(-6.8)"/><path class="cls-9" d="M72.16,82.77A1.66,1.66,0,0,1,72,81.43a1.72,1.72,0,0,1,.84-1.08,1.79,1.79,0,0,1,2.42.65,1.73,1.73,0,0,1,.17,1.35,1.82,1.82,0,0,1-2.11,1.28,1.72,1.72,0,0,1-1.17-.86m.46-.25a1.27,1.27,0,0,0,2.33-.28A1.32,1.32,0,0,0,74,80.65a1.15,1.15,0,0,0-1,.13,1.24,1.24,0,0,0-.46,1.73" transform="translate(-6.8)"/><rect class="cls-8" x="76.81" y="78.87" width="0.52" height="3.41" transform="translate(-36.75 49.27) rotate(-29.97)"/><polygon class="cls-8" points="73.08 80.94 71.26 77.78 74.72 78.8 73.53 76.74 73.98 76.48 75.78 79.62 72.33 78.61 73.52 80.68 73.08 80.94"/><g id="Layer_2-2" data-name="Layer 2-2"><g id="Layer_16" data-name="Layer 16"><path class="cls-10" d="M82.44,27.07,82,26.84l-.56-.33-.61-.35-.08-.05-.38-.22-.4-.23-.7-.4L73.62,22l-1.33-.76-.57-.33-.35-.2L71,20.47l0,0-.33-.19-.32-.19-4.16-2.4L50.9,8.89l-.41-.24-.37.21L36.75,16.58l-3.92,2.27-1,.58-.42.24-.08,0h0l-.19.12-.33.2-.23.13-.21.13-.14.07L29,21h0l-1.39.8h0l-.45.26-.6.34h0l0,0L24,23.93h0L22.15,25l-.79.46L19,26.8l-3.31,1.91-1.2.69V70.9l.06,0,1.34.78.58.33.12.07,3.38,2,.53.31.42.24,1.47.85,1.24.72.36.2L25,77l2.64,1.53,4.21,2.43.53.31.06,0,.12.06.08.06.14.07,0,0,1.49.87.69.39,1,.61.7.4.14.07.24.15.15.08.37.22,2.79,1.6.07,0,.34.2.49.28.56.33h0l.42.23,1.18.68L46,89.06l3.5,2,.81.47.18.1h0l.15-.08.11-.07h0l.25-.14,1.41-.81.07,0,.54-.31.39-.23.19-.1,3-1.74L58.56,87l.57-.33.52-.3.52-.3.35-.21,1.81-1,.31-.17h0l.18-.11.17-.1.49-.28.63-.36,1-.57.36-.21h0l.36-.21h0L66,82.7l.42-.24.29-.17.27-.16.43-.25.17-.1.25-.14.33-.18h0l0,0,.1-.06.19-.1,3-1.7.3-.18.86-.5L75,77.54l1.22-.7,2.39-1.37L80,74.61,82.84,73h0l.05,0L85,71.77l.7-.41.8-.46V29.4Zm2.57,43-.4.23-.25.15-.46.26L78,74.13l-.84.49-1.48.84-1.32.77-2.44,1.41-1,.57-.56.32L68,79.85l-.06,0-.12.07-.14.09-.45.25-.7.4-.17.1,0,0-.63.36-.07,0L62.6,83l-.06,0-.62.35-.06,0-.71.42-1.68,1-1.2.68L57,86.25l-.86.49-2.32,1.35-1,.55,0,0h0l-.59.34-.22.12L50.49,90,47.8,88.43l-1-.56-.48-.27-1.42-.82-.56-.32-.54-.32-4.11-2.36-.6-.35,0,0-1.4-.8-1.61-.92-.7-.41L34.92,81l-.19-.11-.33-.2-.17-.09-1.37-.79-.24-.14-.15-.09L31.3,78.9l-2.67-1.53L25.57,75.6l-.23-.13-1.14-.66-.34-.2-2.33-1.34L17.7,71.05l-.71-.4-.3-.18-.18-.1-.52-.3V30.25l3-1.77,2.33-1.34.73-.43h0l0,0,2.5-1.44h0l1.06-.62h0l1.4-.8,1-.57.33-.19h0l.59-.35.36-.21h0l2.33-1.34h0l.61-.35.28-.16.15-.09.23-.13.13-.08.21-.12h0l6.28-3.63,10.46-6,.37-.21.41.24,13.15,7.59,5.46,3.15,0,0,.25.14.08.05.34.2.28.16,1,.55,1.51.88,5.49,3.15,1.1.63.43.25,0,0,.6.34.15.09.42.24.42.24,3.4,2V70.07Z" transform="translate(-6.8)"/></g></g><circle class="cls-11" cx="53.26" cy="37.28" r="11.99"/><circle class="cls-9" cx="52.26" cy="38.28" r="10.9"/><line class="cls-12" x1="35.31" y1="62.07" x2="51.82" y2="62.07"/><polygon id="Shape" class="cls-13" points="31.52 47.23 54.79 47.23 56.77 47.97 55.28 53.21 32.98 53.21 31.52 47.23"/><path id="Shape-2" class="cls-14" d="M58.93,59.77h-16a3.15,3.15,0,0,1-3.15-3.15V53.21H62.08v3.41a3.15,3.15,0,0,1-3.15,3.15" transform="translate(-6.8)"/><polygon class="cls-14" points="29.6 34.75 26.83 35.51 26.44 42.86 28.6 45.18 31.21 44.95 31.92 47.3 57.11 47.14 57.84 44.92 60.35 44.47 62.03 42.6 62.03 35.89 58.71 34.02 56.49 30.93 53.59 27 47.33 24.22 42.11 23.81 37.4 25.45 32.84 29.33 29.73 34.47 29.6 34.75"/><path id="Shape-3" class="cls-15" d="M58.93,60.5h-16a3.89,3.89,0,0,1-3.88-3.88V52.48H62.81v4.14A3.9,3.9,0,0,1,58.93,60.5ZM40.51,53.93v2.69a2.43,2.43,0,0,0,2.43,2.43h16a2.43,2.43,0,0,0,2.43-2.43V53.93Z" transform="translate(-6.8)"/><path class="cls-16" d="M50.85,34.76c.16-.28.29-.53.45-.77a3.93,3.93,0,0,1,4.2-1.66,3.72,3.72,0,0,1,2.86,3.17,5,5,0,0,1-1,3.74,16,16,0,0,1-2.52,2.62A33.59,33.59,0,0,0,51,45.72c-.13.17-.21.16-.33,0a40.23,40.23,0,0,0-4.51-4.44A10.88,10.88,0,0,1,44,38.77a4.58,4.58,0,0,1-.23-4.54,3.65,3.65,0,0,1,3.84-2C49.2,32.53,49.84,33,50.85,34.76Z" transform="translate(-6.8)"/><path class="cls-17" d="M50.51,54.21c.51-.88.92-1.67,1.41-2.41a12.33,12.33,0,0,1,13.23-5.23,11.68,11.68,0,0,1,9,10,15.54,15.54,0,0,1-3,11.75,49.59,49.59,0,0,1-7.95,8.24A106.68,106.68,0,0,0,51,88.69c-.41.53-.65.5-1,0a127.26,127.26,0,0,0-14.17-14A34.07,34.07,0,0,1,29,66.82a14.42,14.42,0,0,1-.71-14.28,11.43,11.43,0,0,1,12.07-6.16C45.32,47.2,47.33,48.72,50.51,54.21Z" transform="translate(-6.8)"/><path class="cls-15" d="M47,32.23a3.77,3.77,0,0,1,.58,0c1.59.26,2.23.75,3.24,2.49.16-.28.29-.53.45-.77a3.88,3.88,0,0,1,3.27-1.76,4.08,4.08,0,0,1,.93.1,3.72,3.72,0,0,1,2.86,3.17,5,5,0,0,1-1,3.74,16.43,16.43,0,0,1-2.52,2.62A33.59,33.59,0,0,0,51,45.72c-.07.08-.12.12-.17.12s-.1,0-.16-.12a40.23,40.23,0,0,0-4.51-4.44A10.88,10.88,0,0,1,44,38.77a4.58,4.58,0,0,1-.23-4.54,3.63,3.63,0,0,1,3.26-2m0-1.55h0a5.2,5.2,0,0,0-4.65,2.87,6.12,6.12,0,0,0,.28,6,12.36,12.36,0,0,0,2.47,2.88l.94.85a28.08,28.08,0,0,1,3.4,3.41,1.7,1.7,0,0,0,2.37.39,1.61,1.61,0,0,0,.39-.39,27.21,27.21,0,0,1,3.11-3.15l.59-.53.37-.34a14.43,14.43,0,0,0,2.39-2.55,6.42,6.42,0,0,0,1.2-4.87,5.24,5.24,0,0,0-4-4.42,6,6,0,0,0-1.27-.14,5.41,5.41,0,0,0-3.72,1.46,5,5,0,0,0-3-1.4,5.9,5.9,0,0,0-.83-.06Z" transform="translate(-6.8)"/><path id="Shape-4" class="cls-15" d="M62.65,53.93H39.22l-3.81-15v-.09a15.53,15.53,0,1,1,31.05,0v.09l0,.08Zm-22.3-1.45H61.52L65,38.74a14.08,14.08,0,0,0-28.15,0Z" transform="translate(-6.8)"/><path id="Shape-5" class="cls-15" d="M36.14,39.35a.73.73,0,0,1-.73-.73V24.54a.73.73,0,0,1,.73-.73.73.73,0,0,1,.72.73h0V38.62a.73.73,0,0,1-.72.73" transform="translate(-6.8)"/><path id="Shape-6" class="cls-15" d="M65.73,39.35a.73.73,0,0,1-.72-.73V20.56a.73.73,0,1,1,1.45,0V38.62a.73.73,0,0,1-.73.73" transform="translate(-6.8)"/><path id="Shape-7" class="cls-15" d="M37.29,45.67H35.76a3,3,0,0,1-3-3V37a3,3,0,0,1,3-3h.65a.73.73,0,0,1,0,1.45h-.65A1.52,1.52,0,0,0,34.24,37V42.7a1.52,1.52,0,0,0,1.52,1.52h1.53A.73.73,0,0,1,38,45a.72.72,0,0,1-.72.72h0" transform="translate(-6.8)"/><polygon class="cls-13" points="31.14 44.49 57.11 43.77 55.54 49.24 32.98 49.24 31.14 44.49"/><path id="Shape-8" class="cls-15" d="M66.16,45.67H64.63a.72.72,0,0,1-.72-.72.73.73,0,0,1,.72-.73h1.53a1.53,1.53,0,0,0,1.53-1.52V37a1.53,1.53,0,0,0-1.53-1.52h-.65a.73.73,0,0,1,0-1.45h.65a3,3,0,0,1,3,3V42.7a3,3,0,0,1-3,3" transform="translate(-6.8)"/><path id="Shape-9" class="cls-15" d="M36.29,37.08a.72.72,0,0,1-.51-1.23h0a21.41,21.41,0,0,1,30.13-.64.73.73,0,0,1-1,1.06,19.94,19.94,0,0,0-28.1.6.7.7,0,0,1-.52.21" transform="translate(-6.8)"/><path id="Shape-10" class="cls-15" d="M64.26,44.49H38a.72.72,0,1,1-.06-1.44H64.26a.72.72,0,0,1,.75.69.73.73,0,0,1-.7.75h0" transform="translate(-6.8)"/><path id="Shape-11" class="cls-18" d="M55.63,35.09a1.82,1.82,0,1,1-1.82-1.81h0a1.81,1.81,0,0,1,1.82,1.81" transform="translate(-6.8)"/><path id="Shape-12" class="cls-9" d="M56.93,37.81a.74.74,0,1,1-.73-.73.73.73,0,0,1,.73.73h0" transform="translate(-6.8)"/><path class="cls-15" d="M50.85,32.23A11.1,11.1,0,0,1,54.19,31c1.27-.08-4-.59-5.41-.12C47.81,31.21,49.8,31.16,50.85,32.23Z" transform="translate(-6.8)"/><path class="cls-19" d="M41.45,46c3.92,3.66,11.17,4.31,16.2,1.45a10,10,0,0,0,2.62-2.11" transform="translate(-6.8)"/><path class="cls-20" d="M38.39,43.05a2.79,2.79,0,0,1,5.57,0" transform="translate(-6.8)"/><path class="cls-20" d="M57.66,43.05a2.78,2.78,0,1,1,5.56,0h0" transform="translate(-6.8)"/><path id="Shape-13" class="cls-21" d="M69.06,68.45l2.07.13a.52.52,0,0,0,.55-.49l0-.45a.51.51,0,0,0-.49-.55h0L69.15,67" transform="translate(-6.8)"/><path id="Shape-14" class="cls-22" d="M68.84,68.44a.23.23,0,0,0,.2.22l2.07.13a.73.73,0,0,0,.78-.69l0-.44a.73.73,0,0,0-.69-.78h0l-2.07-.13a.21.21,0,0,0-.22.19.21.21,0,0,0,.2.23h0l2.07.13a.31.31,0,0,1,.29.33l0,.45a.31.31,0,0,1-.33.29l-2.07-.13a.2.2,0,0,0-.22.2" transform="translate(-6.8)"/><path id="Shape-15" class="cls-23" d="M69.06,68.45a.75.75,0,1,1,.79-.7.74.74,0,0,1-.79.7h0" transform="translate(-6.8)"/><path id="Shape-16" class="cls-22" d="M68.15,67.64a1,1,0,0,1,1-.89A1,1,0,1,1,69,68.66h0a1,1,0,0,1-.89-1m1.49.1a.54.54,0,0,0-.5-.57.52.52,0,0,0-.57.5.53.53,0,0,0,.5.57.54.54,0,0,0,.57-.5h0" transform="translate(-6.8)"/><path id="Shape-17" class="cls-21" d="M68.87,70.6l2.07.13a.54.54,0,0,0,.56-.5l0-.44a.53.53,0,0,0-.49-.56L69,69.1" transform="translate(-6.8)"/><path id="Shape-18" class="cls-22" d="M68.66,70.58a.22.22,0,0,0,.2.23h0l2.07.13a.74.74,0,0,0,.78-.69l0-.45a.74.74,0,0,0-.69-.78h0L69,68.89a.21.21,0,0,0-.22.2.21.21,0,0,0,.19.22l2.08.13a.32.32,0,0,1,.29.34l0,.44a.32.32,0,0,1-.33.3l-2.07-.13a.21.21,0,0,0-.23.19" transform="translate(-6.8)"/><path id="Shape-19" class="cls-23" d="M68.87,70.6a.75.75,0,0,1,.1-1.5.75.75,0,0,1-.09,1.5h0" transform="translate(-6.8)"/><path id="Shape-20" class="cls-22" d="M68,69.79a1,1,0,1,1,.9,1h0a1,1,0,0,1-.9-1m1.5.09a.54.54,0,0,0-1.08-.07.54.54,0,1,0,1.08.07h0" transform="translate(-6.8)"/><path id="Shape-21" class="cls-21" d="M68.9,72.74l2.07.13a.53.53,0,0,0,.56-.49l0-.45a.52.52,0,0,0-.49-.55L69,71.25" transform="translate(-6.8)"/><path id="Shape-22" class="cls-22" d="M68.69,72.73a.21.21,0,0,0,.2.22l2.07.13a.73.73,0,0,0,.78-.69l0-.44a.73.73,0,0,0-.69-.78h0L69,71a.2.2,0,0,0-.22.19.21.21,0,0,0,.19.23l2.07.13a.31.31,0,0,1,.3.33l0,.45a.31.31,0,0,1-.33.29l-2.07-.13a.21.21,0,0,0-.23.2" transform="translate(-6.8)"/><path id="Shape-23" class="cls-23" d="M68.9,72.74a.75.75,0,1,1,.8-.7.75.75,0,0,1-.8.7h0" transform="translate(-6.8)"/><path id="Shape-24" class="cls-22" d="M68,71.93a1,1,0,1,1,.9,1h0a1,1,0,0,1-.9-1m1.5.1a.54.54,0,1,0-.57.5.54.54,0,0,0,.57-.5h0" transform="translate(-6.8)"/><path class="cls-22" d="M72,72.31a2.92,2.92,0,0,0,.13-1l.06-3.3c0-.21,0-.42,0-.63a.82.82,0,0,0-.2-.5c-.64-.65-.6-.58-.54,0,0,.12,0,.3,0,.42a16.67,16.67,0,0,1,0,1.87c0,1.25,0,1.71,0,3,0,.2.08.82-.09,1A1.06,1.06,0,0,0,72,72.31Z" transform="translate(-6.8)"/><path id="Shape-25" class="cls-21" d="M32.09,67.86,29.93,68a.55.55,0,0,1-.59-.51l0-.47a.55.55,0,0,1,.51-.58h0L32,66.31" transform="translate(-6.8)"/><path id="Shape-26" class="cls-22" d="M32.31,67.85a.22.22,0,0,1-.21.23l-2.16.14a.78.78,0,0,1-.82-.72l0-.46a.76.76,0,0,1,.71-.82h0L32,66.08a.23.23,0,0,1,.23.21.21.21,0,0,1-.21.23l-2.16.14a.32.32,0,0,0-.3.35l0,.46a.34.34,0,0,0,.35.31l2.16-.14a.23.23,0,0,1,.24.21" transform="translate(-6.8)"/><path id="Shape-27" class="cls-23" d="M32.09,67.86a.77.77,0,0,0,.73-.83.78.78,0,1,0-.73.83h0" transform="translate(-6.8)"/><path id="Shape-28" class="cls-22" d="M33,67a1,1,0,0,1-.94,1.06A1,1,0,0,1,31,67.15,1,1,0,1,1,33,67m-1.56.1a.56.56,0,1,0,1.12-.07.58.58,0,0,0-.6-.53h0a.56.56,0,0,0-.52.6" transform="translate(-6.8)"/><path id="Shape-29" class="cls-21" d="M32.28,70.1l-2.16.14a.55.55,0,0,1-.59-.51l0-.47a.55.55,0,0,1,.51-.58l2.16-.14" transform="translate(-6.8)"/><path id="Shape-30" class="cls-22" d="M32.5,70.09a.22.22,0,0,1-.21.23l-2.16.14a.78.78,0,0,1-.82-.72l0-.46a.76.76,0,0,1,.71-.82h0l2.17-.14a.23.23,0,0,1,.23.21.21.21,0,0,1-.21.23L30,68.9a.33.33,0,0,0-.31.35l0,.46a.34.34,0,0,0,.35.31l2.16-.13a.22.22,0,0,1,.24.2" transform="translate(-6.8)"/><path id="Shape-31" class="cls-23" d="M32.28,70.1a.77.77,0,0,0,.73-.83.78.78,0,0,0-1.56.1.78.78,0,0,0,.83.73h0" transform="translate(-6.8)"/><path id="Shape-32" class="cls-22" d="M33.23,69.26a1,1,0,0,1-.94,1.06,1,1,0,0,1-1.06-.93,1,1,0,0,1,.94-1.07,1,1,0,0,1,1.06.94m-1.56.1a.56.56,0,1,0,1.12-.07.58.58,0,0,0-.6-.53h0a.56.56,0,0,0-.52.6" transform="translate(-6.8)"/><path id="Shape-33" class="cls-21" d="M32.25,72.34l-2.16.14A.55.55,0,0,1,29.5,72l0-.47a.55.55,0,0,1,.51-.58l2.16-.14" transform="translate(-6.8)"/><path id="Shape-34" class="cls-22" d="M32.47,72.33a.22.22,0,0,1-.21.23l-2.16.14a.78.78,0,0,1-.82-.72l0-.46A.76.76,0,0,1,30,70.7h0l2.17-.14a.23.23,0,0,1,.23.21.21.21,0,0,1-.21.23h0L30,71.14a.32.32,0,0,0-.3.35l0,.46a.34.34,0,0,0,.35.31l2.16-.13a.22.22,0,0,1,.24.2" transform="translate(-6.8)"/><path id="Shape-35" class="cls-23" d="M32.25,72.34a.77.77,0,0,0,.73-.83.78.78,0,1,0-.73.83h0" transform="translate(-6.8)"/><path id="Shape-36" class="cls-22" d="M33.2,71.5a1,1,0,0,1-.94,1.06,1,1,0,0,1-1.06-.93,1,1,0,1,1,2-.13m-1.56.1a.56.56,0,1,0,1.12-.07.58.58,0,0,0-.6-.53h0a.56.56,0,0,0-.52.6" transform="translate(-6.8)"/><path class="cls-22" d="M29,71.9a3.24,3.24,0,0,1-.13-1.07l-.06-3.45a4.68,4.68,0,0,1,0-.65.91.91,0,0,1,.2-.53c.68-.67.63-.6.57,0,0,.13,0,.31,0,.44a15.86,15.86,0,0,0,0,2c0,1.31,0,1.79,0,3.09,0,.21-.08.86.1,1A1.1,1.1,0,0,1,29,71.9Z" transform="translate(-6.8)"/><path class="cls-24" d="M52.85,79.76l-.33-.14A1.08,1.08,0,0,0,52,78.26l-.19-.08.08-.2L52,78,52,77.9a1.41,1.41,0,0,1,.76.76,1.45,1.45,0,0,1,.05,1.1" transform="translate(-6.8)"/><path class="cls-9" d="M53.21,80.53,52.05,81a1.88,1.88,0,0,1-1.44-3.48,1.83,1.83,0,0,1,1.22-.06l-.46,1.11c-.07,0-.17,0-.26.06a.67.67,0,0,0,.51,1.23h0c.07,0,.14-.06.16-.1l1.29.42Zm-1.8-1a.26.26,0,0,1-.2-.48.26.26,0,0,1,.34.14h0a.24.24,0,0,1-.13.33Zm.5-.53a.42.42,0,0,0-.23-.26l.28-.68h0l.34-.82-.19-.08a2.17,2.17,0,0,0-2.84,2.89,2.27,2.27,0,0,0,2.86,1.3h0l1.57-.65-.37-.89-1.41-.41A.61.61,0,0,0,51.91,79Z" transform="translate(-6.8)"/><path class="cls-23" d="M52.37,76.28l-.08.2-.19-.08.08-.2Zm-1.07.41-.08.19L51,76.8l.08-.19Zm.49-.76a.15.15,0,0,0-.2-.08.15.15,0,0,0-.08.19.16.16,0,0,0,.2.08h0a.17.17,0,0,0,.08-.19" transform="translate(-6.8)"/><path class="cls-9" d="M50.39,78.74a.16.16,0,0,1-.19-.08l-.62-1.5a.15.15,0,0,1,.27-.12h0l.62,1.5c0,.11,0,.16-.08.19M51,77.67l-.25-.61a.15.15,0,0,0-.2-.08.16.16,0,0,0-.08.19l.26.61a.81.81,0,0,1,.27-.11" transform="translate(-6.8)"/></svg>