<svg id="Layer_1" data-name="Layer 1" xmlns="http://www.w3.org/2000/svg" xmlns:xlink="http://www.w3.org/1999/xlink" viewBox="0 0 110.85 128"><defs><style>.cls-1{fill:none;}.cls-2{fill:#e0dedf;}.cls-3{fill:url(#linear-gradient);}.cls-4{fill:#006;}.cls-5{fill:#25e899;}.cls-6{fill:url(#linear-gradient-2);}.cls-7{fill:url(#linear-gradient-3);}.cls-8{fill:url(#linear-gradient-4);}.cls-9{fill:url(#linear-gradient-5);}.cls-10{fill:url(#linear-gradient-6);}.cls-11{fill:url(#linear-gradient-7);}.cls-12{fill:url(#linear-gradient-8);}.cls-13{fill:url(#linear-gradient-9);}.cls-14{opacity:0.27;}.cls-15{fill:#113556;}.cls-16{fill:#ececec;}.cls-17{fill:#a9b583;opacity:0.34;}.cls-17,.cls-18,.cls-19,.cls-20{isolation:isolate;}.cls-18,.cls-19,.cls-20,.cls-24,.cls-33,.cls-37{fill:#fff;}.cls-18{opacity:0.72;}.cls-19{opacity:0.94;}.cls-20{opacity:0.39;}.cls-21{fill:#e8ad96;}.cls-22{clip-path:url(#clip-path);}.cls-23,.cls-28{fill:#e2f5fb;}.cls-23{opacity:0.05;}.cls-25{clip-path:url(#clip-path-2);}.cls-26{fill:#98e0ef;}.cls-27{fill:#baebf2;}.cls-29{fill:url(#linear-gradient-10);}.cls-30{fill:#ffd880;}.cls-31{fill:#fff2cd;}.cls-32{fill:#d33829;}.cls-33,.cls-38{opacity:0.1;}.cls-34{fill:#f8b95c;}.cls-35{fill:#bababa;}.cls-36{fill:#363543;}.cls-37{opacity:0.2;}.cls-39{fill:#606060;}.cls-40{clip-path:url(#clip-path-3);}.cls-41{fill:#61c4ff;}</style><linearGradient id="linear-gradient" y1="64" x2="110.85" y2="64" gradientUnits="userSpaceOnUse"><stop offset="0.04" stop-color="#339"/><stop offset="0.63" stop-color="#66c"/><stop offset="0.96" stop-color="#66f"/></linearGradient><linearGradient id="linear-gradient-2" x1="93.85" y1="16.19" x2="94.28" y2="16.19" gradientTransform="translate(4.82 33)" gradientUnits="userSpaceOnUse"><stop offset="0" stop-color="#42e8e0"/><stop offset="0.04" stop-color="#3eced1" stop-opacity="0.88"/><stop offset="0.11" stop-color="#38a2b9" stop-opacity="0.67"/><stop offset="0.19" stop-color="#337ba4" stop-opacity="0.49"/><stop offset="0.27" stop-color="#2e5b92" stop-opacity="0.34"/><stop offset="0.36" stop-color="#2a4083" stop-opacity="0.22"/><stop offset="0.45" stop-color="#282c78" stop-opacity="0.12"/><stop offset="0.55" stop-color="#261d70" stop-opacity="0.05"/><stop offset="0.66" stop-color="#24156b" stop-opacity="0.01"/><stop offset="0.82" stop-color="#24126a" stop-opacity="0"/></linearGradient><linearGradient id="linear-gradient-3" x1="90.76" y1="20.07" x2="91.19" y2="20.07" gradientTransform="translate(4.82 33)" gradientUnits="userSpaceOnUse"><stop offset="0" stop-color="#ffc236"/><stop offset="0.99" stop-color="#f20750" stop-opacity="0"/></linearGradient><linearGradient id="linear-gradient-4" x1="89.16" y1="21.69" x2="89.59" y2="21.69" gradientTransform="translate(4.82 33)" gradientUnits="userSpaceOnUse"><stop offset="0" stop-color="#e84089"/><stop offset="1" stop-color="#ffc000" stop-opacity="0"/></linearGradient><linearGradient id="linear-gradient-5" x1="92" y1="27.39" x2="92.43" y2="27.39" xlink:href="#linear-gradient-3"/><linearGradient id="linear-gradient-6" x1="88.13" y1="30.65" x2="88.56" y2="30.65" gradientTransform="translate(4.82 33)" gradientUnits="userSpaceOnUse"><stop offset="0" stop-color="#00addc"/><stop offset="1" stop-color="#cbdb2a" stop-opacity="0"/></linearGradient><linearGradient id="linear-gradient-7" x1="84.61" y1="28.69" x2="85.34" y2="28.69" xlink:href="#linear-gradient-2"/><linearGradient id="linear-gradient-8" x1="80.83" y1="24.97" x2="81.9" y2="24.96" xlink:href="#linear-gradient-2"/><linearGradient id="linear-gradient-9" x1="80.2" y1="22.94" x2="80.63" y2="22.94" xlink:href="#linear-gradient-3"/><clipPath id="clip-path" transform="translate(4.82 5)"><rect class="cls-1" x="6.42" y="12.08" width="88.42" height="88.42"/></clipPath><clipPath id="clip-path-2" transform="translate(4.82 5)"><rect class="cls-1" x="6.34" y="8.15" width="88.55" height="76.33"/></clipPath><linearGradient id="linear-gradient-10" x1="4.6" y1="59.01" x2="96.6" y2="59.01" gradientTransform="matrix(1, 0, 0, -1, 0, 118)" gradientUnits="userSpaceOnUse"><stop offset="0.06" stop-color="#093"/><stop offset="0.96" stop-color="#339"/></linearGradient><clipPath id="clip-path-3" transform="translate(4.82 5)"><path class="cls-2" d="M44.66,39.06c-.35-1.69-1.14-2.66-1.41-2.66s-1.07,1-1.41,2.66a22.5,22.5,0,0,0-.25,4.27V53.82h3.33V43.33A22.5,22.5,0,0,0,44.66,39.06Z"/></clipPath></defs><title>Public Spacex</title><g id="Layer_1-2" data-name="Layer 1"><g id="Layer_63" data-name="Layer 63"><polygon class="cls-3" points="110.85 32 110.85 96 55.43 128 11.08 102.4 10.88 102.28 0 96 0 32 55.43 0 110.85 32"/></g><path class="cls-4" d="M65.69,109.35l1.57-.9.07.12a3,3,0,0,1,.34.81,1.89,1.89,0,0,1,0,.76,2,2,0,0,1-1,1.37,2.13,2.13,0,0,1-1.69.21,2.28,2.28,0,0,1-.52-4.17,2.23,2.23,0,0,1,.93-.3,2.75,2.75,0,0,1,1.06.17l-.18.63a1.59,1.59,0,0,0-1.49,0,1.56,1.56,0,0,0-.77,1,1.6,1.6,0,0,0,.18,1.25,1.54,1.54,0,0,0,1.05.78,1.57,1.57,0,0,0,1.14-.15,1.32,1.32,0,0,0,.59-.72,1.18,1.18,0,0,0,0-.9l-.95.54Z" transform="translate(4.82 5)"/><rect class="cls-4" x="69.29" y="105.01" width="0.66" height="4.37" transform="translate(-39.4 54.07) rotate(-29.95)"/><polygon class="cls-4" points="77.21 108.81 79.08 112.06 78.51 112.39 76.64 109.14 75.77 109.64 75.46 109.1 77.77 107.77 78.08 108.31 77.21 108.81"/><path class="cls-4" d="M77.54,100.39l.39.68a1.83,1.83,0,0,0-1.26.17,1.51,1.51,0,0,0-.74,1,1.63,1.63,0,0,0,.19,1.25,1.59,1.59,0,0,0,1,.78,1.54,1.54,0,0,0,1.22-.16,1.41,1.41,0,0,0,.46-.39,1.67,1.67,0,0,0,.17-.27,3.41,3.41,0,0,0,.15-.36l.4.69a2.38,2.38,0,0,1-.87.87,2.2,2.2,0,0,1-1.71.23,2.17,2.17,0,0,1-1.37-1.05,2.25,2.25,0,0,1-.26-1.57,2.19,2.19,0,0,1,1.12-1.57,2.23,2.23,0,0,1,1.15-.29" transform="translate(4.82 5)"/><path class="cls-5" d="M80.31,100.22a2.14,2.14,0,0,1-.2-1.71,2.24,2.24,0,0,1,1.07-1.39,2.29,2.29,0,0,1,3.1.84,2.15,2.15,0,0,1,.21,1.72,2.31,2.31,0,0,1-2.7,1.64,2.14,2.14,0,0,1-1.49-1.1m.58-.33a1.62,1.62,0,0,0,3-.35,1.7,1.7,0,0,0-1.16-2,1.54,1.54,0,0,0-1.23.16,1.56,1.56,0,0,0-.76,1,1.58,1.58,0,0,0,.17,1.24" transform="translate(4.82 5)"/><rect class="cls-4" x="86.27" y="95.24" width="0.66" height="4.37" transform="translate(-32.26 61.29) rotate(-29.97)"/><polygon class="cls-4" points="95.02 102.88 92.69 98.84 97.12 100.14 95.6 97.5 96.17 97.18 98.49 101.2 94.06 99.9 95.59 102.56 95.02 102.88"/><circle class="cls-6" cx="98.89" cy="49.19" r="0.22"/><circle class="cls-7" cx="95.8" cy="53.07" r="0.22"/><circle class="cls-8" cx="94.2" cy="54.69" r="0.22"/><circle class="cls-9" cx="97.04" cy="60.39" r="0.22"/><circle class="cls-10" cx="93.17" cy="63.65" r="0.22"/><circle class="cls-11" cx="89.65" cy="61.69" r="0.22"/><circle class="cls-12" cx="85.74" cy="57.97" r="0.22"/><circle class="cls-13" cx="85.24" cy="55.94" r="0.22"/><g class="cls-14"><polygon class="cls-15" points="58.63 82.86 59.39 84.3 59.9 85.49 59.67 86.62 58.63 82.86"/></g><path class="cls-16" d="M53.81,27a.23.23,0,1,0-.22-.24s0,0,0,0A.23.23,0,0,0,53.81,27Z" transform="translate(4.82 5)"/><path class="cls-16" d="M54.43,20.7a.08.08,0,1,0-.07-.07A.07.07,0,0,0,54.43,20.7Z" transform="translate(4.82 5)"/><path class="cls-16" d="M73.56,24.74a.12.12,0,1,0-.11-.11A.12.12,0,0,0,73.56,24.74Z" transform="translate(4.82 5)"/><path class="cls-16" d="M68.56,31.51a.14.14,0,1,0-.13-.13A.14.14,0,0,0,68.56,31.51Z" transform="translate(4.82 5)"/><path class="cls-16" d="M53.31,32.28Z" transform="translate(4.82 5)"/><path class="cls-16" d="M57.18,24.7a.08.08,0,1,0-.07-.07A.07.07,0,0,0,57.18,24.7Z" transform="translate(4.82 5)"/><path class="cls-16" d="M46.68,32.76Z" transform="translate(4.82 5)"/><path class="cls-16" d="M54.76,36.83l-.06.07a.15.15,0,0,0,0,.21l.06.07a.24.24,0,1,0,0-.34Z" transform="translate(4.82 5)"/><path class="cls-16" d="M46.71,37.78l.06-.06a.13.13,0,0,0,0-.18l-.06-.06C46.27,37,46.27,38.22,46.71,37.78Z" transform="translate(4.82 5)"/><path class="cls-16" d="M42.36,36.25l.08-1.33a.08.08,0,1,0-.17,0L42,36.22a.19.19,0,0,0,.36.09h0Z" transform="translate(4.82 5)"/><path class="cls-16" d="M35.68,39.63a.13.13,0,1,0-.13-.13.13.13,0,0,0,.13.13Z" transform="translate(4.82 5)"/><path class="cls-16" d="M34.06,44a.22.22,0,1,0-.22-.22.22.22,0,0,0,.22.22Z" transform="translate(4.82 5)"/><path class="cls-16" d="M24.81,43Z" transform="translate(4.82 5)"/><path class="cls-16" d="M24.81,43.6a.6.6,0,1,0-.57-.63s0,0,0,.06A.6.6,0,0,0,24.81,43.6Z" transform="translate(4.82 5)"/><path class="cls-16" d="M24.68,38.28a.16.16,0,1,0-.15-.15A.16.16,0,0,0,24.68,38.28Z" transform="translate(4.82 5)"/><path class="cls-16" d="M29.68,33.89Z" transform="translate(4.82 5)"/><path class="cls-16" d="M35.53,35.6l-.06.06a.12.12,0,0,0,0,.17h0l.06.06C35.95,36.33,35.95,35.17,35.53,35.6Z" transform="translate(4.82 5)"/><path class="cls-16" d="M35.18,28.76a.26.26,0,1,0-.25-.27s0,0,0,0A.26.26,0,0,0,35.18,28.76Z" transform="translate(4.82 5)"/><path class="cls-16" d="M43.81,25.24a.24.24,0,1,0-.23-.25s0,0,0,0A.24.24,0,0,0,43.81,25.24Z" transform="translate(4.82 5)"/><path class="cls-16" d="M49.31,30.63a.26.26,0,1,0-.25-.27s0,0,0,0A.26.26,0,0,0,49.31,30.63Z" transform="translate(4.82 5)"/><path class="cls-16" d="M53.23,32.43l.06-.09a.42.42,0,1,0-.73,0l.06.09a.36.36,0,0,0,.61,0Z" transform="translate(4.82 5)"/><path class="cls-16" d="M62.56,35a.17.17,0,1,0-.17-.17h0A.17.17,0,0,0,62.56,35Z" transform="translate(4.82 5)"/><path class="cls-16" d="M67.57,41.92a.94.94,0,0,1-.19-.67.11.11,0,0,0-.21,0,1.11,1.11,0,0,0,.1.87c.11.2.43,0,.3-.18Z" transform="translate(4.82 5)"/><path class="cls-16" d="M72.81,39.68a.31.31,0,1,0-.29-.29A.31.31,0,0,0,72.81,39.68Z" transform="translate(4.82 5)"/><path class="cls-16" d="M66.81,44.89a.14.14,0,1,0-.14-.14h0A.14.14,0,0,0,66.81,44.89Z" transform="translate(4.82 5)"/><path class="cls-16" d="M73.83,34.22a.14.14,0,1,0-.14-.14h0A.14.14,0,0,0,73.83,34.22Z" transform="translate(4.82 5)"/><path class="cls-16" d="M79.43,35.85a.23.23,0,1,0-.22-.24s0,0,0,0A.23.23,0,0,0,79.43,35.85Z" transform="translate(4.82 5)"/><path class="cls-16" d="M69.06,26.25Z" transform="translate(4.82 5)"/><path class="cls-16" d="M55.83,17.46v-.12a.12.12,0,0,0-.23,0v.12C55.45,17.71,55.91,17.71,55.83,17.46Z" transform="translate(4.82 5)"/><path class="cls-16" d="M29.56,31.65Z" transform="translate(4.82 5)"/><path class="cls-16" d="M27.29,37.29l-.07.16a.1.1,0,0,0,.06.13h.07l.16-.07C27.77,37.4,27.4,37,27.29,37.29Z" transform="translate(4.82 5)"/><path class="cls-16" d="M17.81,46.48a.23.23,0,1,0-.22-.24s0,0,0,0A.23.23,0,0,0,17.81,46.48Z" transform="translate(4.82 5)"/><path class="cls-16" d="M17.93,50.59a.22.22,0,1,0-.21-.23s0,0,0,0A.22.22,0,0,0,17.93,50.59Z" transform="translate(4.82 5)"/><path class="cls-16" d="M12.72,52.35l-.09.06a.11.11,0,0,0,0,.16h0l.09.06C13,52.86,13,52.14,12.72,52.35Z" transform="translate(4.82 5)"/><path class="cls-16" d="M14.31,41.47a.22.22,0,1,0-.21-.23s0,0,0,0A.22.22,0,0,0,14.31,41.47Z" transform="translate(4.82 5)"/><path class="cls-16" d="M11.06,37.76Z" transform="translate(4.82 5)"/><path class="cls-16" d="M19.81,33.37a.25.25,0,1,0-.24-.26s0,0,0,0A.25.25,0,0,0,19.81,33.37Z" transform="translate(4.82 5)"/><path class="cls-16" d="M29.06,24.85a.23.23,0,1,0-.22-.24s0,0,0,0A.23.23,0,0,0,29.06,24.85Z" transform="translate(4.82 5)"/><path class="cls-16" d="M28.94,31.68l-.09.06a.16.16,0,0,0,0,.22l0,0,.09.06C29.36,32.33,29.36,31.42,28.94,31.68Z" transform="translate(4.82 5)"/><path class="cls-16" d="M81.06,56.45a.08.08,0,1,0-.07-.09h0a.07.07,0,0,0,.06.08Z" transform="translate(4.82 5)"/><path class="cls-16" d="M84.57,41.23a.23.23,0,1,0-.23-.23.23.23,0,0,0,.23.23Z" transform="translate(4.82 5)"/><path class="cls-16" d="M79.43,57Z" transform="translate(4.82 5)"/><path class="cls-16" d="M61.43,45.08a.33.33,0,1,0-.32-.34s0,0,0,0A.33.33,0,0,0,61.43,45.08Z" transform="translate(4.82 5)"/><path class="cls-16" d="M55.23,40.43l.07-.06a.17.17,0,0,0,0-.24l-.07-.06C54.71,39.6,54.71,40.9,55.23,40.43Z" transform="translate(4.82 5)"/><path class="cls-16" d="M41.06,40.8a.18.18,0,1,0-.17-.17A.18.18,0,0,0,41.06,40.8Z" transform="translate(4.82 5)"/><path class="cls-16" d="M37.06,45.22a.23.23,0,1,0-.22-.24s0,0,0,0A.23.23,0,0,0,37.06,45.22Z" transform="translate(4.82 5)"/><path class="cls-16" d="M26.56,48.68a.18.18,0,1,0-.17-.17A.18.18,0,0,0,26.56,48.68Z" transform="translate(4.82 5)"/><path class="cls-16" d="M13.31,65a.17.17,0,1,0-.17-.17h0A.17.17,0,0,0,13.31,65Z" transform="translate(4.82 5)"/><path class="cls-16" d="M9.06,64.07a.19.19,0,1,0-.19-.19.19.19,0,0,0,.19.19Z" transform="translate(4.82 5)"/><path class="cls-16" d="M12.56,58.15a.15.15,0,1,0-.15-.15.15.15,0,0,0,.15.15Z" transform="translate(4.82 5)"/><path class="cls-16" d="M10.81,53.51a.14.14,0,1,0-.13-.13A.14.14,0,0,0,10.81,53.51Z" transform="translate(4.82 5)"/><path class="cls-16" d="M11.08,44.36h.11a.07.07,0,0,0,0-.14h-.11C10.9,44.08,10.9,44.42,11.08,44.36Z" transform="translate(4.82 5)"/><path class="cls-16" d="M14.18,45.42a.17.17,0,1,0-.16-.16A.17.17,0,0,0,14.18,45.42Z" transform="translate(4.82 5)"/><path class="cls-16" d="M16.06,38.71a.09.09,0,1,0-.08-.08A.09.09,0,0,0,16.06,38.71Z" transform="translate(4.82 5)"/><path class="cls-16" d="M13.31,35.13Z" transform="translate(4.82 5)"/><path class="cls-16" d="M62.31,27.1a.35.35,0,1,0-.34-.36s0,0,0,0A.35.35,0,0,0,62.31,27.1Z" transform="translate(4.82 5)"/><path class="cls-16" d="M66.81,21.93a.18.18,0,1,0-.17-.17A.18.18,0,0,0,66.81,21.93Z" transform="translate(4.82 5)"/><path class="cls-16" d="M60.06,19.35a.22.22,0,1,0,0-.44h0a.22.22,0,1,0,0,.44Z" transform="translate(4.82 5)"/><path class="cls-16" d="M47.31,18.89a.27.27,0,1,0-.26-.28s0,0,0,0A.27.27,0,0,0,47.31,18.89Z" transform="translate(4.82 5)"/><path class="cls-16" d="M53.06,21.77a.39.39,0,1,0-.38-.4s0,0,0,0A.39.39,0,0,0,53.06,21.77Z" transform="translate(4.82 5)"/><path class="cls-16" d="M66.68,24.65a.4.4,0,1,0-.39-.41s0,0,0,0A.4.4,0,0,0,66.68,24.65Z" transform="translate(4.82 5)"/><path class="cls-16" d="M82.81,32a.37.37,0,1,0-.35-.35A.37.37,0,0,0,82.81,32Z" transform="translate(4.82 5)"/><path class="cls-16" d="M88.18,34.12a.37.37,0,1,0-.35-.35A.37.37,0,0,0,88.18,34.12Z" transform="translate(4.82 5)"/><path class="cls-16" d="M93.81,51.57a.07.07,0,1,0-.07-.07h0A.07.07,0,0,0,93.81,51.57Z" transform="translate(4.82 5)"/><path class="cls-16" d="M24.12,50v-.12a.05.05,0,0,0-.1,0h0V50a.07.07,0,1,0,.14,0h0Z" transform="translate(4.82 5)"/><path class="cls-17" d="M36.68,56.38c-.14.12-.22.27,0,.39a1.85,1.85,0,0,0,1.68-.18.58.58,0,0,0,.2-.15.23.23,0,0,0,0-.24.28.28,0,0,0-.11-.11,1.24,1.24,0,0,0-.84-.07,2.46,2.46,0,0,0-.62.17A1.42,1.42,0,0,0,36.68,56.38Z" transform="translate(4.82 5)"/><path class="cls-18" d="M74.71,38a1.24,1.24,0,0,0,.77-.16.8.8,0,0,0,.19-.94,1.65,1.65,0,0,0-.71-.72A3.67,3.67,0,0,0,72,35.77a2.45,2.45,0,0,0-4.85.23,6.49,6.49,0,0,0-2.08,0c-.78.12-1.46.68-.66,1.29s2.5.32,3.32.39Q71.18,37.9,74.71,38Z" transform="translate(4.82 5)"/><path class="cls-19" d="M33.43,27.21a2.26,2.26,0,0,1-1.41-.3,1.46,1.46,0,0,1-.35-1.7,3,3,0,0,1,1.28-1.32,6.69,6.69,0,0,1,5.34-.66,4.46,4.46,0,0,1,8.9.43,11.83,11.83,0,0,1,3.79,0c1.41.21,2.67,1.25,1.21,2.35-1.22.92-4.55.59-6,.7Q39.8,27.13,33.43,27.21Z" transform="translate(4.82 5)"/><path class="cls-18" d="M49.44,31.16a.59.59,0,0,1-.34-.09c-.27-.22,0-.64.33-.81A2.82,2.82,0,0,1,51.52,30a2.41,2.41,0,1,1,4.81.32c0-.42,2.27-.27,2.44.18.38,1-1.47.94-1.92.93C54.37,31.45,51.9,31.32,49.44,31.16Z" transform="translate(4.82 5)"/><path class="cls-20" d="M33.85,40.86a.72.72,0,0,1-.42-.12c-.33-.27,0-.8.4-1a3.48,3.48,0,0,1,2.58-.26,3,3,0,1,1,5.94.4c.06-.52,2.8-.34,3,.22.47,1.28-1.82,1.16-2.37,1.15C39.95,41.22,36.89,41.06,33.85,40.86Z" transform="translate(4.82 5)"/><path class="cls-18" d="M31.31,45.57a1.14,1.14,0,0,0-2.09.67c0-.29-1.33-.11-1.43.17s.6.67.88.68l2.23.09c.34,0,2.76.44,2.22-.59a.82.82,0,0,0-.52-.35,3,3,0,0,0-1.08-.12A1.1,1.1,0,0,0,31.31,45.57Z" transform="translate(4.82 5)"/><path class="cls-21" d="M36.72,66.51v-.06" transform="translate(4.82 5)"/></g><g class="cls-22"><circle class="cls-23" cx="55.65" cy="77.63" r="39.49"/><circle class="cls-23" cx="55.65" cy="77.63" r="31.62"/><circle class="cls-23" cx="55.65" cy="73.32" r="19.25"/><circle class="cls-24" cx="84.7" cy="28.15" r="0.3"/><circle class="cls-24" cx="81.47" cy="40.36" r="0.3"/><circle class="cls-24" cx="66.45" cy="37.02" r="0.3"/><circle class="cls-24" cx="90.37" cy="25.43" r="0.3"/><circle class="cls-24" cx="90.37" cy="37.2" r="0.3"/><circle class="cls-24" cx="39.18" cy="32.36" r="0.3"/><circle class="cls-24" cx="20.01" cy="19.78" r="0.3"/><circle class="cls-24" cx="22.72" cy="40.36" r="0.3"/><circle class="cls-24" cx="73.53" cy="21" r="0.3"/><circle class="cls-24" cx="29.66" cy="20.4" r="0.3"/><circle class="cls-24" cx="44.07" cy="27.87" r="0.15"/><circle class="cls-24" cx="83.02" cy="21.9" r="0.15"/><circle class="cls-24" cx="79.78" cy="24.43" r="0.15"/><circle class="cls-24" cx="75.7" cy="19.65" r="0.15"/><circle class="cls-24" cx="61.74" cy="22.1" r="0.15"/><circle class="cls-24" cx="51.02" cy="18.3" r="0.15"/><circle class="cls-24" cx="47.63" cy="19.51" r="0.15"/><circle class="cls-24" cx="32.37" cy="23.23" r="0.15"/><circle class="cls-24" cx="26.07" cy="26.85" r="0.15"/><circle class="cls-24" cx="21.65" cy="31.9" r="0.15"/><circle class="cls-24" cx="20.31" cy="41.09" r="0.15"/><circle class="cls-24" cx="23.11" cy="46.04" r="0.15"/><circle class="cls-24" cx="29.35" cy="41.24" r="0.15"/><circle class="cls-24" cx="32.98" cy="31.47" r="0.15"/><circle class="cls-24" cx="36.11" cy="25.66" r="0.15"/><circle class="cls-24" cx="38.69" cy="19.36" r="0.15"/><circle class="cls-24" cx="42.74" cy="26.06" r="0.15"/><circle class="cls-24" cx="47.79" cy="26.81" r="0.15"/><circle class="cls-24" cx="50.74" cy="22.71" r="0.15"/><circle class="cls-24" cx="59.64" cy="18.78" r="0.15"/><circle class="cls-24" cx="70.6" cy="19.81" r="0.15"/><circle class="cls-24" cx="78.84" cy="20.16" r="0.15"/><circle class="cls-24" cx="85" cy="19.04" r="0.15"/><circle class="cls-24" cx="89.37" cy="28.51" r="0.15"/><circle class="cls-24" cx="90.22" cy="33.38" r="0.15"/><circle class="cls-24" cx="86.75" cy="37.97" r="0.15"/><circle class="cls-24" cx="81.15" cy="34.97" r="0.15"/><circle class="cls-24" cx="87.27" cy="31.47" r="0.15"/><circle class="cls-24" cx="76.67" cy="25.75" r="0.15"/><circle class="cls-24" cx="72.37" cy="27.5" r="0.15"/><circle class="cls-24" cx="80.5" cy="31.34" r="0.15"/><circle class="cls-24" cx="86.35" cy="25.51" r="0.15"/><circle class="cls-24" cx="81.97" cy="16.92" r="0.15"/><circle class="cls-24" cx="67.97" cy="25.13" r="0.15"/><circle class="cls-24" cx="54.46" cy="19.66" r="0.15"/><circle class="cls-24" cx="75.3" cy="37.82" r="0.15"/><circle class="cls-24" cx="32.74" cy="16.33" r="0.15"/><circle class="cls-24" cx="53.22" cy="24.84" r="0.15"/><circle class="cls-24" cx="23.03" cy="20.09" r="0.15"/><circle class="cls-24" cx="22.39" cy="24.69" r="0.15"/><circle class="cls-24" cx="32.83" cy="19.23" r="0.15"/><circle class="cls-24" cx="58.77" cy="24.54" r="0.15"/><circle class="cls-24" cx="67.97" cy="18.78" r="0.15"/><circle class="cls-24" cx="30.14" cy="25.56" r="0.15"/><circle class="cls-24" cx="26.61" cy="23.32" r="0.15"/><circle class="cls-24" cx="72.22" cy="24.28" r="0.15"/><circle class="cls-24" cx="25.69" cy="33.23" r="0.15"/><circle class="cls-24" cx="19.37" cy="29.84" r="0.15"/><circle class="cls-24" cx="21.45" cy="36.41" r="0.15"/><circle class="cls-24" cx="32.83" cy="27.87" r="0.15"/><circle class="cls-24" cx="27.86" cy="19.28" r="0.15"/><circle class="cls-24" cx="39.18" cy="28.66" r="0.15"/><circle class="cls-24" cx="35.96" cy="20.93" r="0.15"/><circle class="cls-24" cx="38.54" cy="24.43" r="0.15"/><circle class="cls-24" cx="42.74" cy="18.89" r="0.15"/><circle class="cls-24" cx="47" cy="21.75" r="0.15"/><circle class="cls-24" cx="63.3" cy="18.45" r="0.15"/><circle class="cls-24" cx="65.41" cy="21.8" r="0.15"/><circle class="cls-24" cx="81.82" cy="19.63" r="0.15"/><circle class="cls-24" cx="82.71" cy="25.06" r="0.15"/><circle class="cls-24" cx="81.97" cy="28.82" r="0.15"/><circle class="cls-24" cx="84.22" cy="33.23" r="0.15"/><circle class="cls-24" cx="83.77" cy="37.21" r="0.15"/><circle class="cls-24" cx="86.5" cy="43.03" r="0.15"/><circle class="cls-24" cx="86.81" cy="47.83" r="0.15"/><circle class="cls-24" cx="90.37" cy="48.82" r="0.15"/><circle class="cls-24" cx="86.76" cy="56.17" r="0.15"/><circle class="cls-24" cx="78.69" cy="28.36" r="0.15"/><circle class="cls-24" cx="77.6" cy="41.72" r="0.15"/><circle class="cls-24" cx="75.3" cy="46.08" r="0.15"/><circle class="cls-24" cx="34.41" cy="46.08" r="0.15"/><circle class="cls-24" cx="22.09" cy="27.55" r="0.3"/><circle class="cls-24" cx="32.39" cy="37.5" r="0.3"/><polygon class="cls-24" points="18.66 37.35 18.85 37.75 19.29 37.81 18.98 38.13 19.05 38.56 18.66 38.36 18.26 38.56 18.34 38.13 18.02 37.81 18.46 37.75 18.66 37.35"/><polygon class="cls-24" points="68.98 30.77 69.18 31.17 69.62 31.24 69.3 31.55 69.38 31.99 68.98 31.78 68.59 31.99 68.67 31.55 68.35 31.24 68.79 31.17 68.98 30.77"/><polygon class="cls-24" points="74.17 31.75 74.37 32.15 74.81 32.22 74.49 32.53 74.57 32.97 74.17 32.76 73.78 32.97 73.85 32.53 73.53 32.22 73.98 32.15 74.17 31.75"/><polygon class="cls-24" points="14.78 41.73 14.97 42.13 15.42 42.19 15.1 42.5 15.17 42.94 14.78 42.73 14.38 42.94 14.46 42.5 14.14 42.19 14.58 42.13 14.78 41.73"/><polygon class="cls-24" points="42.85 22.1 43.05 22.5 43.49 22.57 43.17 22.88 43.24 23.32 42.85 23.11 42.45 23.32 42.53 22.88 42.21 22.57 42.65 22.5 42.85 22.1"/><polygon class="cls-24" points="22.09 52.01 22.28 52.41 22.72 52.48 22.41 52.79 22.48 53.23 22.09 53.02 21.69 53.23 21.77 52.79 21.45 52.48 21.89 52.41 22.09 52.01"/><polygon class="cls-24" points="64.48 26.63 64.67 27.03 65.12 27.1 64.8 27.41 64.87 27.85 64.48 27.64 64.08 27.85 64.16 27.41 63.84 27.1 64.28 27.03 64.48 26.63"/><polygon class="cls-24" points="90.37 42.02 90.57 42.42 91.01 42.48 90.69 42.8 90.77 43.23 90.37 43.03 89.98 43.23 90.05 42.8 89.73 42.48 90.17 42.42 90.37 42.02"/></g><g class="cls-25"><ellipse class="cls-26" cx="11.17" cy="65.72" rx="6.33" ry="5.46"/><ellipse class="cls-26" cx="23.35" cy="75.04" rx="6.33" ry="5.46"/><ellipse class="cls-26" cx="17.5" cy="70.31" rx="3.89" ry="3.35"/><ellipse class="cls-26" cx="71.09" cy="74.18" rx="3.89" ry="3.35"/><ellipse class="cls-26" cx="76.37" cy="71.55" rx="3.89" ry="3.35"/><ellipse class="cls-26" cx="92.69" cy="65.72" rx="3.89" ry="3.35"/><ellipse class="cls-26" cx="31.08" cy="73.85" rx="3.89" ry="3.35"/><ellipse class="cls-26" cx="44.43" cy="71.55" rx="3.89" ry="3.35"/><ellipse class="cls-26" cx="36.92" cy="70.31" rx="6.33" ry="5.46"/><ellipse class="cls-26" cx="51.92" cy="73.41" rx="6.33" ry="5.46"/><ellipse class="cls-26" cx="63.02" cy="73.72" rx="6.33" ry="5.46"/><ellipse class="cls-26" cx="85.27" cy="67.95" rx="6.33" ry="5.46"/><ellipse class="cls-26" cx="97.93" cy="60.26" rx="6.33" ry="5.46"/><polygon class="cls-26" points="11.17 67.95 11.17 77.01 99.72 77.01 99.72 59.6 84.31 69.58 63.29 73.94 47.74 74.03 35.96 70.31 31.08 73.85 22.68 75.04 16.48 71.89 11.17 67.95"/><ellipse class="cls-27" cx="97.93" cy="69.16" rx="6.33" ry="5.46"/><ellipse class="cls-27" cx="86.59" cy="78.19" rx="6.33" ry="5.46"/><ellipse class="cls-27" cx="91.07" cy="72.92" rx="3.89" ry="3.35"/><ellipse class="cls-27" cx="38" cy="76.27" rx="3.89" ry="3.35"/><ellipse class="cls-27" cx="31.08" cy="75.43" rx="3.89" ry="3.35"/><ellipse class="cls-27" cx="16.41" cy="71.17" rx="3.89" ry="3.35"/><ellipse class="cls-27" cx="78.94" cy="76.62" rx="3.89" ry="3.35"/><ellipse class="cls-27" cx="63.93" cy="77.88" rx="3.89" ry="3.35"/><ellipse class="cls-27" cx="72.48" cy="76.62" rx="6.33" ry="5.46"/><ellipse class="cls-27" cx="55.89" cy="78.79" rx="6.33" ry="5.46"/><ellipse class="cls-27" cx="45.29" cy="80.43" rx="6.33" ry="5.46"/><ellipse class="cls-27" cx="23.83" cy="72.08" rx="6.33" ry="5.46"/><ellipse class="cls-27" cx="11.17" cy="65.71" rx="6.33" ry="5.46"/><polygon class="cls-27" points="99.72 69.16 99.72 89.48 11.52 89.48 9.38 65.06 24.79 75.03 45.8 79.39 61.36 79.48 73.14 75.76 78.01 79.3 86.42 80.49 91.63 73.27 99.72 69.16"/><ellipse class="cls-28" cx="11.17" cy="78.19" rx="6.33" ry="5.46"/><ellipse class="cls-28" cx="23.35" cy="87.51" rx="6.33" ry="5.46"/><ellipse class="cls-28" cx="17.5" cy="82.78" rx="3.89" ry="3.35"/><ellipse class="cls-28" cx="71.09" cy="86.65" rx="3.89" ry="3.35"/><ellipse class="cls-28" cx="76.37" cy="84.02" rx="3.89" ry="3.35"/><ellipse class="cls-28" cx="92.69" cy="78.19" rx="3.89" ry="3.35"/><ellipse class="cls-28" cx="31.08" cy="86.32" rx="3.89" ry="3.35"/><ellipse class="cls-28" cx="44.43" cy="84.02" rx="3.89" ry="3.35"/><ellipse class="cls-28" cx="36.92" cy="82.78" rx="6.33" ry="5.46"/><ellipse class="cls-28" cx="51.92" cy="85.88" rx="6.33" ry="5.46"/><ellipse class="cls-28" cx="63.02" cy="86.19" rx="6.33" ry="5.46"/><ellipse class="cls-28" cx="85.27" cy="80.43" rx="6.33" ry="5.46"/><ellipse class="cls-28" cx="97.93" cy="72.73" rx="6.33" ry="5.46"/><polygon class="cls-28" points="11.17 80.43 11.17 89.48 99.72 89.48 99.72 72.08 84.31 82.06 63.29 86.41 47.74 86.51 35.96 82.78 31.08 86.32 22.68 87.52 16.48 84.37 11.17 80.43"/></g><polygon class="cls-26" points="43.58 60.25 38.72 89.85 47.99 89.85 45.01 60.25 43.58 60.25"/><circle class="cls-28" cx="36.31" cy="87.64" r="5.87"/><polygon class="cls-26" points="52.57 60.25 57.43 89.85 48.16 89.85 51.14 60.25 52.57 60.25"/><polygon class="cls-28" points="52.57 60.25 56.05 88.24 49.34 88.24 51.14 60.34 52.57 60.25"/><circle class="cls-28" cx="44.88" cy="84.88" r="6.46"/><circle class="cls-28" cx="52.8" cy="88.92" r="5.87"/><circle class="cls-28" cx="59.98" cy="83.69" r="5.87"/><circle class="cls-28" cx="61.48" cy="89.28" r="5.87"/><circle class="cls-28" cx="51.55" cy="81.77" r="4.37"/><polygon class="cls-28" points="9.99 88.71 55.54 115 101.09 88.69 9.99 88.71"/><g id="Layer_63-3" data-name="Layer 63-3"><path class="cls-29" d="M50.6,5.86,4.6,32.43V85.56l46,26.57,46-26.57V32.43ZM94.9,84.5,50.72,110,6.54,84.5v-51L50.72,8,94.9,33.49Z" transform="translate(4.82 5)"/></g><polygon class="cls-28" points="43.58 60.25 40.09 88.24 46.8 88.24 45.01 60.34 43.58 60.25"/><path class="cls-30" d="M40.32,56.32l-1-.54-.79.49-.75,4.81s.53-1,.88-1,.67,1,.67,1,.26-1,.67-1,.78,1,.78,1Z" transform="translate(4.82 5)"/><path class="cls-31" d="M40.07,56.32l-.74-.54-.46.54-.6,3.36s.27-.5.54-.49.51.82.51.82.2-.8.51-.82.46.21.6.61Z" transform="translate(4.82 5)"/><path class="cls-30" d="M46.17,56.32l1-.54.79.49.75,4.81s-.53-1-.88-1-.67,1-.67,1-.26-1-.67-1-.78,1-.78,1Z" transform="translate(4.82 5)"/><path class="cls-31" d="M46.42,56.32l.74-.54.46.54.6,3.36s-.27-.5-.54-.49-.51.82-.51.82-.2-.8-.51-.82-.46.21-.6.61Z" transform="translate(4.82 5)"/><path class="cls-32" d="M43.25,27.77c.42,0,1.61,1.17,2.13,3.23a22.19,22.19,0,0,1,.38,5.2V49H43.25Z" transform="translate(4.82 5)"/><path class="cls-32" d="M43.25,27.77c-.42,0-1.61,1.17-2.13,3.23a22.19,22.19,0,0,0-.38,5.2V49h2.51Z" transform="translate(4.82 5)"/><path class="cls-33" d="M44,30.43c-.19-1.69-.63-2.66-.79-2.66s-.59,1-.79,2.66a40.22,40.22,0,0,0-.14,4.27V45.19h1.86V34.7A40.22,40.22,0,0,0,44,30.43Z" transform="translate(4.82 5)"/><rect class="cls-34" x="45.55" y="39.81" width="5.04" height="0.22"/><rect class="cls-34" x="45.55" y="42.65" width="5.04" height="0.22"/><rect class="cls-34" x="45.55" y="45.49" width="5.04" height="0.22"/><rect class="cls-35" x="43.39" y="40.84" width="1.83" height="12.69"/><path class="cls-35" d="M38.57,35.84H40.4A1,1,0,0,0,38.57,35.84Z" transform="translate(4.82 5)"/><rect class="cls-36" x="43.39" y="40.84" width="1.83" height="0.44"/><rect class="cls-36" x="43.39" y="43.28" width="1.83" height="0.18"/><rect class="cls-36" x="43.39" y="45.6" width="1.83" height="0.18"/><rect class="cls-36" x="43.39" y="47.92" width="1.83" height="0.18"/><rect class="cls-36" x="43.39" y="50.23" width="1.83" height="0.18"/><polygon class="cls-37" points="44.67 53.53 43.95 53.53 43.95 40.84 44.31 37.93 44.67 40.84 44.67 53.53"/><rect class="cls-35" x="43.58" y="57.71" width="1.43" height="2.54"/><rect class="cls-36" x="43.58" y="59.69" width="1.43" height="0.12"/><rect class="cls-36" x="43.58" y="59.36" width="1.43" height="0.12"/><rect class="cls-36" x="43.58" y="59.04" width="1.43" height="0.12"/><rect class="cls-36" x="43.58" y="58.71" width="1.43" height="0.12"/><rect class="cls-36" x="43.58" y="58.38" width="1.43" height="0.12"/><polygon class="cls-35" points="45.53 61.32 43.05 61.32 43.58 60.25 45.01 60.25 45.53 61.32"/><polygon class="cls-37" points="44.89 61.32 43.69 61.32 43.97 60.25 43.97 57.71 44.61 57.71 44.61 60.25 44.89 61.32"/><polygon class="cls-38" points="45.01 58.67 43.58 58.38 43.58 57.71 45.01 57.71 45.01 58.67"/><rect class="cls-36" x="43.05" y="61.32" width="2.48" height="0.13"/><path class="cls-2" d="M41.58,51.61H36a3.15,3.15,0,0,1,1-2c1-1,2.51-2,3.61-4.87a12.68,12.68,0,0,0,1-4Z" transform="translate(4.82 5)"/><path class="cls-39" d="M41.63,40.79v0S41.63,40.79,41.63,40.79Z" transform="translate(4.82 5)"/><path class="cls-39" d="M41.05,44.76c.24-.64.42-1.19.56-1.66V40.8a13.23,13.23,0,0,1-1,4c-1.1,2.91-2.66,3.87-3.61,4.87a3.15,3.15,0,0,0-1,2h.46a3.15,3.15,0,0,1,1-2C38.4,48.63,40,47.68,41.05,44.76Z" transform="translate(4.82 5)"/><polygon class="cls-38" points="46.49 48.1 43.17 56.61 46.44 56.61 46.49 48.1"/><polygon class="cls-38" points="46.45 48.1 44.94 56.61 46.4 56.61 46.45 48.1"/><polygon class="cls-36" points="45.85 58.26 40.85 57.52 40.85 56.61 45.85 56.61 45.85 58.26"/><rect class="cls-35" x="40.85" y="57" width="5" height="0.28"/><rect class="cls-35" x="46.1" y="35.84" width="1.83" height="12.69" transform="translate(98.85 89.37) rotate(180)"/><path class="cls-35" d="M47.93,35.84H46.1A1,1,0,0,1,47.93,35.84Z" transform="translate(4.82 5)"/><rect class="cls-36" x="46.1" y="35.84" width="1.83" height="0.44" transform="translate(98.85 77.12) rotate(180)"/><rect class="cls-36" x="46.1" y="38.28" width="1.83" height="0.18" transform="translate(98.85 81.75) rotate(180)"/><rect class="cls-36" x="46.1" y="40.6" width="1.83" height="0.18" transform="translate(98.85 86.38) rotate(180)"/><rect class="cls-36" x="46.1" y="42.92" width="1.83" height="0.18" transform="translate(98.85 91.01) rotate(180)"/><rect class="cls-36" x="46.1" y="45.23" width="1.83" height="0.18" transform="translate(98.85 95.65) rotate(180)"/><polygon class="cls-37" points="51.48 53.53 52.2 53.53 52.2 40.84 51.84 37.93 51.48 40.84 51.48 53.53"/><rect class="cls-35" x="46.32" y="52.71" width="1.43" height="2.54" transform="translate(98.89 112.95) rotate(180)"/><rect class="cls-36" x="46.32" y="54.69" width="1.43" height="0.12" transform="translate(98.89 114.51) rotate(180)"/><rect class="cls-36" x="46.32" y="54.36" width="1.43" height="0.12" transform="translate(98.89 113.85) rotate(180)"/><rect class="cls-36" x="46.32" y="54.04" width="1.43" height="0.12" transform="translate(98.89 113.2) rotate(180)"/><rect class="cls-36" x="46.32" y="53.71" width="1.43" height="0.12" transform="translate(98.89 112.54) rotate(180)"/><rect class="cls-36" x="46.32" y="53.38" width="1.43" height="0.12" transform="translate(98.89 111.89) rotate(180)"/><polygon class="cls-35" points="50.62 61.32 53.1 61.32 52.57 60.25 51.14 60.25 50.62 61.32"/><polygon class="cls-37" points="51.26 61.32 52.46 61.32 52.18 60.25 52.18 57.71 51.53 57.71 51.53 60.25 51.26 61.32"/><polygon class="cls-38" points="51.14 58.67 52.57 58.38 52.57 57.71 51.14 57.71 51.14 58.67"/><rect class="cls-36" x="45.79" y="56.32" width="2.48" height="0.13" transform="translate(98.89 117.76) rotate(180)"/><path class="cls-2" d="M44.91,51.61h5.55a3.15,3.15,0,0,0-1-2c-1-1-2.51-2-3.61-4.87a12.68,12.68,0,0,1-1-4Z" transform="translate(4.82 5)"/><path class="cls-39" d="M44.86,40.79v0S44.86,40.79,44.86,40.79Z" transform="translate(4.82 5)"/><path class="cls-39" d="M45.44,44.76c-.24-.64-.42-1.19-.56-1.66V40.8a13.23,13.23,0,0,0,1,4c1.1,2.91,2.66,3.87,3.61,4.87a3.15,3.15,0,0,1,1,2H50a3.15,3.15,0,0,0-1-2C48.09,48.63,46.53,47.68,45.44,44.76Z" transform="translate(4.82 5)"/><polygon class="cls-38" points="49.65 48.1 52.97 56.61 49.7 56.61 49.65 48.1"/><polygon class="cls-38" points="49.69 48.1 51.2 56.61 49.74 56.61 49.69 48.1"/><polygon class="cls-36" points="50.29 58.26 55.29 57.52 55.29 56.61 50.29 56.61 50.29 58.26"/><rect class="cls-35" x="45.47" y="52" width="5" height="0.28" transform="translate(100.76 109.27) rotate(180)"/><path class="cls-2" d="M44.66,39.06c-.35-1.69-1.14-2.66-1.41-2.66s-1.07,1-1.41,2.66a22.5,22.5,0,0,0-.25,4.27V53.82h3.33V43.33A22.5,22.5,0,0,0,44.66,39.06Z" transform="translate(4.82 5)"/><g class="cls-40"><rect class="cls-36" x="46.39" y="43.56" width="3.4" height="0.33"/><rect class="cls-36" x="46.39" y="41.06" width="3.4" height="1.19"/></g><path class="cls-37" d="M43.85,39.06a5.78,5.78,0,0,0-.6-2.66,5.78,5.78,0,0,0-.6,2.66c-.15,1.69-.11,4.27-.11,4.27V53.82H44V43.33S44,40.75,43.85,39.06Z" transform="translate(4.82 5)"/><path class="cls-35" d="M45.48,53.44H41v-.75a2.23,2.23,0,0,1,2.23-2.23h0a2.23,2.23,0,0,1,2.23,2.23Z" transform="translate(4.82 5)"/><rect class="cls-36" x="45.84" y="58.44" width="4.46" height="0.77"/><path class="cls-36" d="M46.45,59.21h3.23a0,0,0,0,1,0,0v0a.77.77,0,0,1-.77.77h-1.7a.77.77,0,0,1-.77-.77v0A0,0,0,0,1,46.45,59.21Z"/><rect class="cls-37" x="47.26" y="55.46" width="1.62" height="4.52"/><path class="cls-41" d="M43.67,38.19h-.84a.3.3,0,0,1-.3-.3h0a.3.3,0,0,1,.3-.3h.84a.3.3,0,0,1,.3.3h0A.3.3,0,0,1,43.67,38.19Z" transform="translate(4.82 5)"/></svg>