<svg id="Layer_1" data-name="Layer 1" xmlns="http://www.w3.org/2000/svg" viewBox="0 0 5000 5000"><defs><style>.cls-1,.cls-2,.cls-3,.cls-6,.cls-7,.cls-8,.cls-9{fill:none;}.cls-1,.cls-10,.cls-7{stroke:#02e2ac;}.cls-1,.cls-10,.cls-2,.cls-3,.cls-6{stroke-miterlimit:10;}.cls-1,.cls-10,.cls-2,.cls-3,.cls-6,.cls-7,.cls-8,.cls-9{stroke-width:5px;}.cls-2{stroke:#5932c4;}.cls-3,.cls-8{stroke:#f3587d;}.cls-4{fill:#02e2ac;}.cls-5{fill:#5932c4;}.cls-6,.cls-9{stroke:#642ec8;}.cls-7,.cls-8,.cls-9{stroke-linecap:round;stroke-linejoin:round;}.cls-10{fill:#ffd4b7;}</style></defs><path class="cls-1" d="M1295.19,135.85c-23.67,7.69-38.49,26.46-37.32,44.39.65,10.13,6.26,17.78,10.17,22a665.17,665.17,0,0,1,105.17,3.39c57,6.39,154,18.37,249.36,83.12a458.83,458.83,0,0,1,101.77,95c5.36,1,26.75,4.56,35.63-6.78,8-10.17,1.67-26.95-1.7-35.62C1737.5,288,1639.91,164.12,1617.48,135.85"/><path class="cls-1" d="M908.43,135.85A295,295,0,0,0,925,160.73c18.73,25.28,31.87,43,50.89,49.62,15.64,5.43,18.82-2.37,62.34-8.91a487.09,487.09,0,0,1,76.33-5.08c16,.3,33.12-.65,67.43-2.55,6.29-.35,18.79-1.21,28-10.18,5.54-5.4,7.69-11.61,8.9-15.26,5.58-16.76,0-32.23-2.54-38.17"/><path class="cls-1" d="M866.45,135.85A230.71,230.71,0,0,1,900.8,190c5.54,12.23,16.62,37.28,19.08,71.25,1.83,25.26-1.83,45.42-5.09,59.79-14.64,64.75-44.55,117-67.42,160.3-16.92,32-40,78-64.88,136.13L738.52,517"/><path class="cls-1" d="M1654,135.85c46.52,32.32,72.41,67,86.51,89.77,39.3,63.58,46.75,132,53.43,193.37,4.62,42.48.78,42.68,6.36,78.88,7.32,47.44,14.25,92.39,42,138.67,39.57,66,106,109,132.31,126a181.07,181.07,0,0,1,16.54,11.45c37.62,29.71,54.88,70.36,63.61,101.77a315.26,315.26,0,0,0,28-40.71c9.53-16.48,43.93-79.49,44.53-212.46.39-85.58.59-130.66-22.9-187-35.15-84.3-97.58-132.07-136.13-161.57-41.73-31.93-90.16-56.49-187-105.59-27.62-14-50.63-25.13-66.16-32.52"/><path class="cls-1" d="M753.22,1039.83c-19-61.13-12.17-129.1,3.82-209.92C779,718.77,790,663.2,823.2,597.1c44.3-88.28,73.89-93.12,100.5-174.29,12.93-39.44,32.23-76.55,45.8-115.77,6.69-19.34,13-39.1,31.8-56,19.59-17.61,42.07-22.54,61.07-26.72,36.55-8,66.06-3.68,81.42-1.27,17.46,2.74,56.11,10.69,95.42,35.62,54.22,34.39,79.19,81.74,100.5,123.41,16.1,31.47,53.18,106.08,50.89,206.1-1.78,77.79-30.45,135.82-87.78,251.89-36.92,74.75-63.32,126.95-119.59,180.66-13.42,12.8-54.06,50.06-117,81.42-51.51,25.64-125.9,62.69-204.83,40.71-14.73-4.1-47.75-13.75-75.06-43.26C770.46,1082.51,760.38,1062.86,753.22,1039.83Z"/><path class="cls-1" d="M1277.37,235.79c11-24,101.55-4.18,132.31,2.55,81.25,17.77,165.36,36.17,245.54,109.41,22.81,20.83,81.77,76.05,112,170.47,31,97.13,13.21,178,8.91,195.92-2.92,12.2-16.4,65.47-56,120.86-20,28-32.78,45.41-57.25,56-41.8,18.06-90.19,4.22-120.86-17.81-6.52-4.69-22.88-17.39-50.88-70-19.27-36.17-43.51-82.56-57.25-151.39-17.26-86.44,7-83.37-8.91-153.94-20.71-92.06-77.6-166.93-90.33-183.2C1298.46,268.43,1270.77,250.22,1277.37,235.79Z"/><path class="cls-1" d="M1769.72,135.85c68.37,20.75,118.07,48.5,151.39,70.68,87.48,58.23,188.77,162.37,203.55,189.56a48,48,0,0,0,16.54,17.81c7.35,4.56,20.14,9.41,25.45,5.09,10-8.12-8.89-46.78-14-57.25-35.1-71.94-161.8-170.49-237.9-225.89"/><path class="cls-1" d="M1407.14,682.34c-12-.39-15.38,53.87-37.32,120.43-8.85,26.86-45.54,134.58-132.31,222.22-105.53,106.59-113.65,113.65-113.65,113.65-9.76,8.48-24.35,20.85-35.62,42.4-3,5.78-26.79,53-8.48,101.78,16.4,43.71,57,63.21,78,72.94,99.88,46.18,211.67.5,291.76-32.23,99-40.47,173.75-71,205.25-149.27,19.91-49.48,25.94-126.45-11.88-173-10-12.28-11.52-8.33-76.33-59.37-39-30.74-58.81-46.42-71.24-61.07-27.22-32.06-40.22-63.93-52.59-95C1416.93,721,1417.21,682.67,1407.14,682.34Z"/><path class="cls-1" d="M1821.88,669.62c13.21-4.17,24.86,30.16,67.43,70,41.48,38.79,58.27,32.25,86.51,67.42,11.66,14.53,34.65,43.17,35.62,81.43,1.11,44.2-27.83,75.73-61.07,111.95-31.61,34.45-66.11,72-122.13,80.15-15.54,2.25-66.08,9.56-100.5-22.9-39.4-37.14-28.88-99.19-26.72-112,3-17.45,20.67-48.77,56-110.69s41.81-69.71,48.34-94.14C1816.48,699.2,1810.57,673.18,1821.88,669.62Z"/><path class="cls-1" d="M2078,904.55c14.3-32.85,24.21-34.56,44.1-70.39,15.05-27.11,30.26-63.75,38.17-112a285.06,285.06,0,0,1,28.83,52.59c23.07,55.16,22.45,102.8,22.05,115.34-1.91,60.29-23.91,103.16-33.92,122.13-16.69,31.64-46.26,87.7-108.56,111.11a163.91,163.91,0,0,1-50,10.18q-1.7-16.54-3.4-33.08a359.61,359.61,0,0,0,36.47-82.27C2067.3,965.89,2059.14,947.92,2078,904.55Z"/><path class="cls-1" d="M2356.21,539c8.92-4,28.65,18.29,39.86,36.47,17.24,28,19.55,54.7,22,88.21,3.41,45.62-2.32,81.09-5.94,102.62a499.78,499.78,0,0,1-14.41,61.07c-6.85,22.65-12.18,40.27-22.9,60.22-18.37,34.16-47.73,66.12-55.13,61.91-2-1.16-3.48-5.69,11-55.13,17-57.84,20.57-57.28,24.6-77.18,8.88-43.88-8.45-47.73-6.79-113.65,1.11-43.66,8.71-42.07,8.48-85.66C2356.8,569.58,2347.34,543,2356.21,539Z"/><path class="cls-1" d="M1257.39,1003.78a127.19,127.19,0,0,1,18.95,29.27c22.51,48.35,7.8,98.07.86,121.52-31.75,107.32-159.1,160.23-173.14,165.86"/><path class="cls-1" d="M1240.9,1266.71c-8-15.15,72.53-93.57,170.48-131.47,21.24-8.21,64.4-22.69,112.8-50.88,31-18.06,46.49-27.08,59.37-42.41,14.41-17.14,21.77-34.56,33.93-33.93,9.71.51,17.35,12.26,20.35,19.51,17.93,43.3-53.12,111.09-57.67,115.35-28.37,26.58-57,41.24-179.81,81.42C1297,1258.12,1245.21,1274.86,1240.9,1266.71Z"/><path class="cls-1" d="M2155.2,453.34c9.79-5,23.88,4.08,43.25,16.54,23.38,15,39.8,34.63,68.7,85.24,27.33,47.84,41,71.76,48.35,95.41,15.8,50.85,14.17,93.3,12.72,131-.83,21.51-2.16,56.21-11.45,91.6-21.75,82.87-79.22,139.46-118.32,170.48l-14-21.63c12-12.61,28.39-32.85,39.44-61.07,26.76-68.37-.11-126.78-31.81-237.9C2171.81,652,2120.23,471.16,2155.2,453.34Z"/><path class="cls-1" d="M1428.73,570.42a285.38,285.38,0,0,0,20.82,41.52c9.16,15.07,18.82,27.8,32.23,43.26,23.42,27,45.27,47.33,63.61,63.61,58.74,52.15,66.64,49.61,86.51,74.64,13.85,17.45,29.24,42.91,39,79.72v14.42"/><path class="cls-1" d="M1441.61,684.64c3.77,2.88,9.54,7.34,16.42,13,18.69,15.28,30.69,26.93,38.16,33.92,18.49,17.29,16.43,12.75,64.46,52.59,3.42,2.83,21.63,18,43.26,39.86,13.6,13.73,21,22.52,24.59,35.62a62.63,62.63,0,0,1,0,31.38l-.84,8.32"/><path class="cls-1" d="M1328.6,899.3c.12,9.12.22,23,0,40-.61,48.16-2.86,51.89-1.19,65.3.44,3.51,8.06,58.68,46.65,78,29.43,14.76,61.81,1.12,96.69-13.57,45.4-19.12,78.72-50.52,104.32-74.64,9.36-8.82,16.85-16.52,22-22.05l4.29-3.72"/><path class="cls-1" d="M1744.55,232.56c16.61,18,42.12,44.77,74.78,75.75,74.37,70.54,89.13,71.13,122.14,106.87,75.94,82.23,93.58,182.83,99.23,217.54a455.15,455.15,0,0,1-3.82,165.39l-5.62,21.94"/><path class="cls-1" d="M1778,317.37a547,547,0,0,1,70.61,43.1c19.23,13.84,32.48,23.38,45.8,36.89,54.57,55.41,62.76,129.52,64.88,151.4a279.05,279.05,0,0,1-2.55,72.51c-23.14-54.44-49.45-92.77-70-118.31-19.25-24-35.73-39.57-54.7-71.25A342.29,342.29,0,0,1,1796.44,349"/><path class="cls-1" d="M1797.07,469.32a218.35,218.35,0,0,1,56.61,37.45c36.25,33.28,51.17,70.27,67.43,112a500.65,500.65,0,0,1,30.53,122.13v6.36"/><path class="cls-1" d="M1974.54,762.49c0-110.1,2.17-157.59,4.24-180.23.29-3.12,2.07-22.13,4.25-48.35,1.57-19,2.72-34.22,3.39-43.25L1984,471.87"/><path class="cls-1" d="M1797.07,763.82a138.34,138.34,0,0,1,20.57,34.45c12.81,31.07,10.34,58.16,5.94,100.93-3.89,37.66-6.38,61.81-19.51,92.3-16.15,37.49-37.33,58.85-42.41,63.84a179.85,179.85,0,0,1-17,14.66"/><path class="cls-1" d="M1622.57,1265.86c-8.68-19.73,89.59-84,144.18-115.35,77.42-44.38,108.73-46.29,162.84-88.21a416,416,0,0,0,93.3-101.77,194.36,194.36,0,0,1-1.7,81.42c-14,58-52.24,92.75-79.72,117-48.57,42.93-96.3,59.85-149.28,78C1737.85,1255.68,1631,1285.05,1622.57,1265.86Z"/><path class="cls-1" d="M2152.65,308.31c6.23,13.11,14.38,31.27,22.9,53.43,8.86,23,10,29.4,17,43.26,7.53,15.07,11.72,18.7,33.92,49.19,3,4.08,16.4,23.36,43.26,61.91s28.41,41.15,30.53,45c21.58,38.77,24.05,66.63,28.84,66.15,3.65-.37,7.17-17.13,5.93-92.45"/><path class="cls-1" d="M1810.88,713.62a256.11,256.11,0,0,1,26.27,46.32c4.84,11.11,28.32,67.14,19.08,141.22-5.9,47.28-9.79,78.52-30.53,95.41-4.07,3.31-17.16,12.9-17.82,26.72-.31,6.61,2.15,15.67,7.64,17.81,5.82,2.28,16.61-2.62,48.34-44.53,35.81-47.27,53.71-70.91,64.88-105.59a253.37,253.37,0,0,0,11.45-94.14l.53-20.27"/><path class="cls-1" d="M738.52,1116.32a289.52,289.52,0,0,0,45.24,57.09c40.31,39.35,68.12,42.86,114.5,73.79,39.26,26.18,85,56.69,106.86,112,26.53,67.07,2.86,132.62-2.54,147.58-4.57,12.64-11.45,28-50.89,84-32,45.3-47.94,68-86.51,114.49-36.8,44.4-83.93,116.89-126.66,239.18V4758.21h147c6.3-475-.32-856.83-7.63-1119.26,0,0-9.69-348,1.27-1304,.36-30.93,1.6-102.39,11.45-194.65,2-18.28,3.81-33.3,5.09-43.26,25.88-113.39,82.54-283.77,220.09-435.09,126.5-139.16,268.21-203.68,430-277.34,240-109.26,513.34-179.56,650.1-310.42,62.46-59.77,101.77-133.58,101.77-133.58,22.32-41.9,46.88-88,50.89-151.4,3.09-48.65-9.22-55.54-6.36-134.85,1.08-29.76,3.54-48.9,1.27-84-1.84-28.63-3.34-51.86-11.45-78.87-19.94-66.5-65.87-109.18-94.14-134.86a422,422,0,0,0-54.7-42c-46.8-30.84-113.49-83.49-198.47-178.82"/><circle class="cls-1" cx="3271.61" cy="744.2" r="296.95"/><path class="cls-1" d="M3137.49,997.44a116.24,116.24,0,0,1,33.93-28.83c18.95-10.51,34.86-12,56-15.27,30.59-4.81,59.34-9.33,83.11-18.66,22.51-8.83,14.45-11.73,79.73-61.07,15.21-11.49,44.43-33.09,71.24-67.85,6.91-9,15.64-21.34,11.88-32.23-3.45-10-14.16-9.36-30.54-22-5.74-4.45-14.08-15.46-30.53-37.32-22.39-29.74-16.59-24.48-27.14-37.31-7.79-9.49-15.44-17.81-22.05-32.23-3.95-8.63-5.91-13-5.09-18.66,2.27-15.47,21.86-20.28,20.36-28.84-1.33-7.52-16.83-5.89-20.36-15.27-3.3-8.77,8.18-15.83,13.57-32.22,4.9-14.91,3.35-33.18-3.39-44.11-13-21-48.07-19.7-76.33-18.66-38.83,1.44-94.61,3.5-123.83,45.8-1.92,2.77-28,35.76-17,54.28,7.63,12.83,29.69,13.16,57.68,13.57,43.52.65,54.77-9.84,72.94,0,13.08,7.09,19.3,19.07,30.53,40.71,13,25,8.51,29.39,18.66,50.89,18.93,40.12,41.92,40.64,45.8,69.55.15,1.13,3.1,25.79-11.87,45.8-11.8,15.76-23.13,13.16-61.07,33.93-26,14.2-39.07,21.59-45.8,35.62-9.88,20.59,2.66,32.65-6.79,44.1-12,14.55-34.5-2.14-89.9,3.39-21.64,2.16-29.49,5.84-62.76,8.48-15.65,1.25-28.61,1.6-37.32,1.7l-15.61,2"/><polygon class="cls-1" points="2059.36 1514.36 2059.36 1493.58 2074.63 1493.58 2074.63 1464.75 2096.68 1464.75 2096.68 1401.56 2113.64 1401.56 2113.64 1381.63 2178.52 1381.63 2178.52 1417.25 2201 1415.98 2201 1431.24 2234.07 1432.09 2234.07 1411.74 2246.8 1410.89 2273.09 1410.04 2273.09 1348.98 2287.51 1348.98 2287.51 1329.47 2362.14 1329.47 2362.14 1347.28 2379.11 1347.28 2379.11 1365.94 2392.68 1365.94 2392.68 1386.29 2435.93 1386.29 2435.93 1403.26 2462.22 1404.11 2462.22 1377.81 2490.21 1378.66 2490.21 1365.94 2507.18 1365.94 2507.18 1346.43 2519.9 1345.58 2519.9 1323.53 2534.32 1323.53 2534.32 1310.81 2547.89 1310.81 2547.89 1293.85 2619.98 1293.85 2624.22 1301.48 2642.03 1302.33 2642.03 1315.9 2653.9 1316.75 2653.9 1325.23 2669.17 1326.08 2669.17 1338.8 2677.65 1339.65 2677.65 1354.07 2687.83 1354.91 2687.83 1365.94 2704.79 1367.63 2704.79 1381.2 2719.21 1381.2 2719.21 1367.63 2785.36 1366.79 2785.36 1387.14 2805.72 1386.29 2805.72 1394.78 2831.16 1393.93 2831.16 1410.89 2844.74 1410.04 2844.74 1426.16 2844.74 1436.33 2858.3 1437.18 2858.3 1452.45 2874.42 1452.45 2874.42 1468.56 2887.14 1468.56 2887.14 1482.13 2900.71 1482.98 2900.71 1494.01 2970.26 1494.01 2970.26 1503.34 3032.17 1505.03 3032.17 1522.84 2059.36 1522.84 2059.36 1514.36"/><path class="cls-2" d="M2665.78,2375.22a499.72,499.72,0,0,0,223.91-135.7V1689.93a357.32,357.32,0,0,1-78,72.94c-55.72,38.06-104.76,47.5-183.2,66.15-50,11.89-124.94,30.62-218.82,57.68a1127,1127,0,0,1-242.57,156c-105,49.75-176.64,63.42-279.88,83.12-50.31,9.6-100.73,16.32-149.28-10.18-31.94-17.44-51.54-43-62.76-61.06v614"/><polygon class="cls-3" points="2999.1 1941.83 2999.1 1881.61 3023.69 1881.61 3023.69 1855.32 3033.87 1855.32 3033.87 1833.26 3057.62 1833.26 3057.62 1816.3 3111.05 1816.3 3111.05 1790.86 3126.32 1790.86 3126.32 1772.2 3173.81 1772.2 3173.81 1787.46 3206.89 1786.62 3206.89 1764.56 3233.18 1764.56 3233.18 1697.56 3242.51 1684.84 3254.39 1673.81 3270.5 1649.22 3301.03 1649.22 3364.64 1649.22 3364.64 1661.94 3381.61 1662.79 3381.61 1679.75 3391.78 1679.75 3391.78 1762.02 3424.86 1762.87 3424.86 1792.55 3456.24 1790.86 3456.24 1756.93 3468.12 1756.08 3474.9 1743.36 3491.86 1745.9 3498.65 1731.49 3576.68 1732.33 3583.46 1744.21 3600.43 1750.99 3604.67 1764.56 3616.54 1767.11 3616.54 1788.31 3631.81 1791.7 3631.81 1803.58 3680.15 1803.58 3680.15 1828.17 3697.11 1828.17 3697.11 1836.65 3697.11 1892.63 3770.05 1892.63 3770.05 1947.76 2999.1 1941.83"/><path class="cls-3" d="M2892.44,1972.36H2909V1987h21v14.63h14.63v31.17H2965v-24.17l14.63.63v-6.68h12.72v6h15.27V2022h14v14.63h20.36V2043h8.27v20.36h42v8.91h15.27v7h14v14h17.81v13.36h31.17v9.54h21v7.63h26.72v5.73h15.26v6.36h17.82v8.9h25.44v14.63h22.26V2167h22.9v9.54h16.54V2188h17.81v12.08h15.27v6.36h17.81v7.64H3409l72.73,73.79,140.79,179c24.65,43.68,52.75,89.47,84.81,136.55a1916.56,1916.56,0,0,0,155.21,198.47h226.17"/><path class="cls-3" d="M2665.78,2450.93A1373.71,1373.71,0,0,1,2821.64,2477c134.65,30.63,192.54,65.37,221,84.73,54,36.69,67.87,62.8,74.1,78.21,20.47,50.68,4,100.1-1.28,116-41.9,125.86-212.63,157.17-223.57,159a292.45,292.45,0,0,0,62.6,3.91c90.13-4.07,153.2-49.14,175-65.17,40.08-29.44,67.2-49.37,83-87.33,29.52-70.74,1.51-160.17-43.43-213.77-41.11-49-74.89-42.44-104.76-97.75-7.36-13.63-35.56-65.85-15.33-110.8,20.46-45.46,78.43-56.71,108.59-62.56,120.6-23.4,225.32,40.61,258.06,61.26,85.65,54,133.79,123.29,184,195.52,51.38,73.95,58.68,106.36,120.09,189a1178.18,1178.18,0,0,0,107.31,125.13l261.61-2.61"/><polyline class="cls-3" points="4088.67 1583.06 3950.28 1691.2 4088.67 1764.99"/><line class="cls-3" x1="3950.28" y1="1691.2" x2="3797.62" y2="2228.07"/><path class="cls-3" d="M4088.67,2184.82h-29v19.08H4047v12.72h-21.63v-15.9h-33.07v15.9h-16.54v11.45h-11.45v-21.63H3931.2v26.72h-33.08v-20.35l-36.89,2.54v34.35h-26.72V2237l-45.8-1.28v14h-25.44v-15.27h-30.53v24.17h-21.63v-14l-24.17,1.27v20.36h-31.81V2279h-31.8v-17.81l-44.53,1.27V2279h-21.63V2298s-20.35-3.81-20.35,0v11.45H3498.7"/><path class="cls-3" d="M3613.55,2455.48a502.29,502.29,0,0,1,88.65-65.84c78.65-45.88,150.58-58.79,216.28-70A915.4,915.4,0,0,1,4088.67,2307"/><path class="cls-3" d="M3693.14,2582.28a725.33,725.33,0,0,1,72.67-33.61c122.45-48.6,237.44-55.43,322.86-50.89"/><path class="cls-3" d="M3752.42,2666.83h80.82l1.27,39.59a62.27,62.27,0,0,0,24.17-8.9c34.76-22.26,29.58-72.3,50.89-76.34,14-2.64,21.83,17.86,38.17,14,15-3.56,15.77-22.64,29.26-24.17,15-1.71,24.84,20.5,35.62,16.54,7.49-2.76,5.43-14.47,14-17.82,9.46-3.69,17.27,8.56,25.44,5.09,8.84-3.74,4.24-20,15.27-30.53,6.57-6.28,15.52-7.47,21.34-7.63"/><path class="cls-1" d="M880.1,2291.82c5.92-36.66,14.8-48.16,23.25-49.75,13.36-2.53,35.62,17.81,35.62,17.81h0c-9.32,46.61-6.53,84,10.17,91.6,7.49,3.38,16.78.3,33.08-5.09,30.11-10,32-20.11,48.35-22.9,25.91-4.42,57,14.92,71.24,38.16,13.53,22,7.94,40.91,20.35,45.8,14.34,5.65,27-17.48,43.26-12.72,18.75,5.49,12.67,39.44,35.62,50.89,15,7.5,21.85-5,45.8,0,27.11,5.62,27.85,23.55,53.43,28,22.39,3.88,26.06-9.11,48.35-5.09,21.14,3.81,43.07,20,50.89,40.71,3.86,10.21,1.11,13.13,7.63,38.17,6.74,25.9,10.94,27.63,12.72,28,10,2,16.44-25.12,30.53-25.44,15.22-.34,17.69,31.06,40.72,38.17,19.15,5.91,27.82-12.61,45.79-7.64,28,7.74,27.47,58.21,50.89,61.07,13.51,1.65,18.11-14.6,33.08-12.72,18.34,2.3,17.69,27.47,40.71,38.16,19.61,9.11,30.91-4.12,53.43,2.55,11.88,3.51,28.11,12.92,43.26,40.71-23.16-19-52-19.09-66.16-5.09-10.42,10.28-10.39,25.58-10.17,30.53"/><path class="cls-1" d="M2694.61,3364.15a1658.18,1658.18,0,0,0-223.9-241.72c-19.51-17.25-110.18-96.61-246.81-180.65-126.72-77.94-254.74-156.68-368.94-170.48-28.41-3.43-90.55-7-157.76-30.53-10.76-3.76-32.25-11.74-63.61-20.35a757.67,757.67,0,0,0-81.42-17.81c-72.68-11.11-146.21-1.26-183.2,5.08v28c30.26,1.2,55,.7,72.09,0,63.34-2.57,95-3.86,98.39-4.24,12.88-1.45,32.62-4.08,54.28,5.09,4.24,1.8,22.7,9.62,22,17-.62,7-18.69,15.31-98.38,20.36L1460,2800.71"/><path class="cls-1" d="M2351.12,3066.46c-129.73-95.78-251.06-149.71-337-180.66-149-53.65-270-66.43-369.92-76.33-190.9-18.91-326.13-2-359.79,2.55-148.2,19.93-226.61,54.85-250.83,66.15a720.9,720.9,0,0,0-153.14,96.69c10,2,20.54,4.49,31.52,7.63,37.16,10.62,56,15.08,60.81,22.9,16.86,27.27-68.67,107.84-78.55,117"/><path class="cls-1" d="M874,3165.69c11.06-2.72,30.15-5.6,51,1.27,43.21,14.23,66.93,61.38,67.43,99.23.33,24.92-9.71,22.34-26.72,75.06-17.83,55.29-12.09,74.55-31.8,122.14a317.38,317.38,0,0,1-26.72,50.88,146.85,146.85,0,0,1,61.07-1.27c54.65,10.7,95.75,52.68,113.22,95.42,6.32,15.44,11.08,34.74,3.82,117-3.54,40.13-9.79,93.55-21.63,156.48a239.42,239.42,0,0,1,59.8,12.72c14.4,5.08,89.92,31.67,119.58,100.51,1.62,3.76,23.69,56.12,5.09,70-15.43,11.49-49.22-10.75-52.16-12.72,5.52-35-1.68-67-20.35-77.61-11.49-6.55-33.8-8.73-35.62-8.9a124.16,124.16,0,0,0-22.9,0c-.13-3.3-2.43-48.11-31.81-61.07-1.74-.77-24-10.27-34.35,1.27-8,8.92-3.05,24-2.54,25.45-6.12,3-15.15,6.09-22.9,2.54-12.37-5.65-7.43-21.89-20.36-35.62-15.69-16.66-36.74-7.39-45.8-22.9-5.46-9.36,1.49-13.94-1.27-30.53-3.49-21-19.66-44.12-42-48.35-5-.94-13.4-1.53-24.17,2.55"/><path class="cls-1" d="M972.78,3005.39a1118.86,1118.86,0,0,1,297-127.22c45.21-12,254.91-64.54,524.15-12.72,39.47,7.59,198.88,40.27,384.21,142.48,200.05,110.34,334.77,249,417.28,351.13"/><path class="cls-1" d="M992.4,3254.32a699.23,699.23,0,0,1,154.41-208.55c47.1-43.55,153.52-139.39,319.12-167.83,47.27-8.12,82.21-7.81,126.1-7.41,157.56,1.43,276.45,42,339.7,64.17,71.69,25.13,124,51.17,164.71,71.58A1646.7,1646.7,0,0,1,2274,3109.94c74.86,50.33,181.51,131.68,293.38,254.21"/><path class="cls-3" d="M2550.43,3384.51c-23.68-24.22-60.84-61.07-108.56-103.47-117.9-104.78-247.95-220.36-442.73-293.46-45.11-16.93-151.24-53.18-286.67-59.37-48.32-2.21-96-.39-149.27,11.87-70.34,16.2-126.13,29-161.15,79.73-36.44,52.75-34.54,123.56-11.87,174.72,17.44,39.38,49.36,72,128.91,111.95,100.46,50.47,213.67,80.93,373.18,93.3,30.86,2.39,129.14,2.16,325.69,1.69,81.86-.19,147.84-.79,259.53,0,57.65.41,82.78.87,151,1.7,325.26,3.95,299,.12,354.52,3.39,166.13,9.77,293.28,37.72,359.61,52.58,133.77,30,228.26,63.32,259.53,74.64,31.88,11.55,76.59,27.85,134,54.28,161.62,74.4,237.08,143,261.23,166.24,30.36,29.18,60.91,64.65,79.72,115.34a271.89,271.89,0,0,1,11.59,40.71v356.22l-126.94-1.69a373.42,373.42,0,0,0,56-78c13.09-24.39,60.53-116,40.71-235.78-17.52-105.9-77.4-172.21-101.78-198.47a465.2,465.2,0,0,0-52.58-47.49c-133.17-101.41-569.73-225.93-610.66-237.48l-66.15,11.87c21.5,5.18,53.33,13.13,91.59,23.75,112.31,31.16,223.94,62.14,346,123.83,94.5,47.74,169.29,86.53,235.79,169.62,60.7,75.86,74.89,139.16,78,154.37,3.72,18.09,15.74,84.34-8.49,164.53s-71.34,130.46-95,152.67"/><path class="cls-1" d="M2394.37,4639.75c19.74-82.1,57.32-134,83.12-162.84,45.51-50.9,95.64-76.27,159.45-108.56,83.51-42.26,100.12-34.6,173-74.64,64.7-35.53,104.2-57.23,135.7-98.38,72.73-95,56.82-233.53,20.36-322.29-46.13-112.31-134.22-167-161.15-183.2-15.81-9.51-96.8-56.72-212-57.67-155.58-1.29-264,82.64-296.85,110.25a482,482,0,0,1-135.7,83.12c-115.65,46.39-218.12,33.7-303.64,22.05-139.08-18.94-236.25-68.18-318.9-110.26-160.22-81.57-285.68-145.44-351.13-286.67-14.18-30.6-53.29-118-35.62-229,23.08-144.88,126.92-228.85,154.36-251.05,210.43-170.2,505.58-65.23,525.85-57.68"/><path class="cls-1" d="M2358.75,4631.27c28.53-94.64,74.26-151.39,103.47-181.5,73-75.21,168.72-114,222.22-135.7,70.39-28.53,89.87-25.32,132.31-56,16.63-12,76.16-56.26,106.86-139.09,33.94-91.58,11-172,0-208.65-10-33.1-39.44-126.16-132.31-188.28-67.34-45.05-133.59-50.79-157.75-52.59-81.56-6.06-141.72,19.51-203.56,45.8-22.86,9.72-101,44.5-183.19,117-50.61,44.64-46.29,53.76-112,117-24,23.09-84.75,81.67-147.57,122.13-97,62.49-191.13,76.75-252.75,86.51-173.72,27.51-463,78.38-836.26,139.1"/><path class="cls-1" d="M2904.72,3858.83a511.65,511.65,0,0,0-69.32-50.25c-34.73-21-98.46-59.5-178.1-66.16-119.66-10-211.39,57.2-237.48,78-111.49,89-130.27,214.27-134,247.66a363.3,363.3,0,0,0,1.7,93.29L1626,4253q-2.55-14.41-5.09-28.83"/><path class="cls-1" d="M2331.61,3795c-38.42,39.18-88.4,89.53-147.58,147.57-130.08,127.6-160.22,150.71-196.76,173-41.77,25.51-106.53,64.28-195.08,79.73-25.56,4.46-36.66,4.07-81.42,11.87-48.89,8.53-103.17,18-151,35.63-70.94,26.17-186.53,92.09-178.1,154.36,1.61,11.94,9.08,33.3,47.49,56a2249,2249,0,0,0,1150.08,178.11v126.94A4006.81,4006.81,0,0,1,2162,4744.92c-201.8-17-346.2-43.64-634.4-105.17-43.8-9.35-162.33-36.23-242.57-130.61-50.21-59.06-47.13-99.5-45.8-110.26,1.4-11.36,8.24-49.83,83.12-103.47,40.94-29.33,120.34-76.17,244.26-91.6l-1.7,8.48a492.67,492.67,0,0,0-95,40.71c-61.55,34.46-124.81,69.87-128.92,122.13-4.31,54.9,58.78,101.14,96.69,128.92,51.56,37.79,100.07,52.78,134,62.76,205.32,60.4,352.82,79.73,352.82,79.73,105.58,13.83,184.75,18.14,259.53,22.05,105.4,5.51,227.29,8.36,363,5.09"/><path class="cls-1" d="M2918.06,4132.82a935.59,935.59,0,0,0,0-107.12c-5.9-102.54-23.9-118.41-35.16-123.83-8.6-4.13-17.38-4.14-23.75-3.39l-44.1,313.81-27.14-5.09q22.9-166.23,45.8-332.47c4.73-21.58-3.63-43.39-20.36-54.28-21-13.71-52.32-8.11-69.54,15.27l-56,359.61-28.84-3.39,56-368.1c2.26-22.86-6.69-44.87-23.75-56-24.1-15.69-62.2-8.18-83.12,22.05l-59.37,393.54h-35.62q25.45-173,50.89-346.05c.93-3.79,7.52-32.07-6.78-45.79-15.85-15.21-55.82-11.08-86.51,23.74l-49.2,354.53h-35.62q22.91-153.53,45.8-307a72.44,72.44,0,0,0-27.14,5.09c-21,8.47-45.05,30.51-67.85,123.83a787,787,0,0,0-22,167.93"/><path class="cls-1" d="M1381.7,3973.54c18.49-40.73,62.33-64.88,62.33-64.88,70.86-39,146.83-41.69,167.93-42,17.43-.25,80.93,0,156.49,28,16.68,6.19,49.29,24.91,114.5,62.34,64.15,36.83,95.61,57.81,100.5,91.6.71,4.91,1.44,10,0,16.54-9.5,43.11-95.91,71.19-159,61.07-19.48-3.13-39.2-4.89-58.52-8.91-23.25-4.83-41.43-10.22-47.07-2.54-2.77,3.76-1.62,9.44,0,14l-24.17-5.09c-1.63-3.73-12.11-26.87-33.08-30.53-4.38-.77-13.88-2.42-20.35,3.82s-5.31,16.32-5.09,17.81c-4.1-2.55-10.33-6.48-17.81-11.45-14-9.29-18.48-13-24.18-16.54-8.12-5.07-20.73-11.11-39.43-14a103.39,103.39,0,0,0,5.08-44.52c-1.48-13.42-3.08-27.95-14-34.35-10-5.9-22.29-1.57-26.72,0-17.19,6.08-24.77,21.48-26.71,25.44-9.63,19.57-4.07,38.55-2.55,43.26H1472l-21.63-70a361.1,361.1,0,0,0-48.34,3.82c-10.45,1.55-19,3.33-22.9-1.27C1374.52,3989.66,1379.48,3978.42,1381.7,3973.54Z"/><path class="cls-3" d="M1395.27,3208.94a560.83,560.83,0,0,1,123.38-67.26c153.14-59.77,290.28-33.39,375.3-15.88,245,50.45,412.79,198.67,488.41,275.27"/><path class="cls-2" d="M1675.15,2054.63a257.37,257.37,0,0,1,9.33-42.41c7.68-24.74,13-42,27.14-58.52,17.06-20,30.6-19.84,33.08-34.77,2.36-14.25-8.93-20.56-4.24-34.78,3.09-9.37,12-18.64,22-20.35,9.88-1.68,15.06,4.87,19.51,1.69,6.4-4.58-3.51-18.82,3.39-33.07,4.35-9,13.92-14.94,22-17,12.6-3.14,19,3.82,26.29-.85,7.77-4.93,3.13-14.29,9.33-22,12.89-16.13,48,5.42,64.46-10.18,12-11.28-.28-28.36,11.88-39.86,16-15.19,48.35,4.26,59.36-10.18,7-9.22-3.14-21.08,4.25-28.83,10.46-11,36.14,7.39,49.19-4.24,9.31-8.31,1.41-22.29,11-29.69,11.55-8.88,30.29,5.65,38.17-2.54,6.07-6.31-3.71-16.29.85-29.69,6.8-20,37.95-25.35,48.34-27.14,5-.85,33.09-5.69,39.86,5.94,2.79,4.78.66,10.12,5.09,13.57,3.78,2.94,10.52,3.11,14.42,0,6.06-4.82.69-13.87,5.94-19.51,6.14-6.6,16.93,2.1,28.84-2.54,13.75-5.36,9.75-21,24.59-33.93,15.95-13.88,43-15.33,50-5.93,5.53,7.35-3.66,18,2.55,24.59s23.52,4.07,27.14-3.39c2.16-4.46-2-7.74,0-11,4.93-8.3,34.61,7,44.1-3.39,5-5.44-1.39-11.65,2.54-19.51,8.5-17,44.46-.62,87.36-10.17,5.34-1.19,19.8-4.79,28,2.54,3,2.69,2.8,4.74,6.79,7.63,7.81,5.68,14.23,1.87,18.65,6.79,4.11,4.56.27,9.7,4.25,13.57,4.31,4.2,13.68,2.87,19.5-.85,7.5-4.79,11.1-14.83,9.33-25.44l107.72,3.39c-3.78,14.53-1.59,19.36.84,21.2,6.49,4.91,17.83-9,39.87-11.87,12.37-1.62,22.66,1.46,43.25,7.63,22.32,6.69,22,10,42.41,16.12,22.87,6.84,24.85,3.14,47.49,10.17,20,6.2,32.92,10.42,42.41,22.9,8.08,10.62,9.88,22.27,11,29.69a83.56,83.56,0,0,1-2.55,36.47l-7.57,23"/><path class="cls-1" d="M999.85,2339.16a156.07,156.07,0,0,1,34.11-62.32c11.22-12.43,50.69-52,112-50.89,69,1.22,108.93,53,113.65,59.37a138.76,138.76,0,0,0,50.89,40.71c11.85,5.52,40.2,16.67,74.64,11.88,35.64-5,58.86-24.38,86.51-47.5,39.88-33.35,39.69-49.06,79.72-74.64,28.07-17.93,45.28-21.14,56-22.05,26-2.2,46.77,6.34,57.67,11.88"/><path class="cls-1" d="M901.31,2073.63a559.1,559.1,0,0,1,98.54,11.53c27.13,5.64,27.43,7.78,42.59,10.18,44.37,7,71.49-6.67,139.09-25.45,62.51-17.36,93.77-26,117-23.74,53.92,5.32,55,32.86,113.65,44.1,25.18,4.83,38.89,2.41,140.79-11.88,50.47-7.07,90-12.49,110.26-15.26"/><polyline class="cls-1" points="1675.15 2285.32 1642.92 2348.08 1642.92 2359.96 1615.78 2359.96 1615.78 2339.16 1581.86 2339.16 1581.86 2368.44 1581.86 2395.58 1551.32 2395.58 1551.32 2447.03 1520.79 2447.03 1520.79 2468.52 1498.74 2468.52 1498.74 2488.76 1486.86 2488.76 1486.86 2505.84 1469.9 2505.84 1469.9 2526.19 1481.78 2526.19 1459.98 2554.82"/><path class="cls-1" d="M877,2546.54c.72-3.37,10-43.85,46.72-57.77,43.22-16.4,81.35,20.4,84.81,23.85,25.56,25.48,27,58.16,27.14,66.16,9.32,5.91,15.95,6.11,20.36,5.09,16-3.71,17-26.65,33.93-30.54,10.22-2.35,13.81,5.11,22,1.7,12.37-5.13,7.51-23.29,20.35-33.93,11.54-9.55,33.49-9.8,44.11,0,14.91,13.78,2.68,43,13.57,47.5,6.17,2.58,15.57-4.53,20.35-10.18,11.78-13.93,3.16-28.09,13.57-37.32,7.46-6.61,20.64-7.09,30.53-1.69,14.49,7.89,15.25,24.7,15.27,25.44a77.49,77.49,0,0,1,15.27-35.62c4.94-6.33,19.16-24.56,44.1-27.14,3.25-.34,32.42-2.84,50.89,20.35,16.84,21.15,10.93,46.24,10.18,49.2"/><polyline class="cls-2" points="2429.98 3401.2 2429.98 3386.2 2489.79 3386.2 2489.79 3375.6 2520.32 3375.6 2520.32 3389.6 2557.22 3389.6 2562.72 3359.07 2722.6 3364.15 2722.6 3380.13 2748.05 3380.13 2748.05 3364.15 2796.39 3364.15 2810.39 3359.07 2810.39 3342.53 2832.01 3342.53 2936.33 3342.53 2941.45 3359.07 2961.78 3359.07 2987.22 3359.07 3029.2 3359.07 3053.02 3359.07 3063.55 3325.99 3078.82 3325.99 3078.82 3308.18 3108.08 3308.18 3134.8 3266.19 3153.88 3266.19 3153.88 3254.74 3202.22 3254.74 3202.22 3263.65 3216.22 3263.65 3216.22 3242.02 3248.03 3233.12 3258.2 3239.48 3273.47 3253.47 3293.82 3252.2 3302.73 3250.93 3318 3233.12 3339.62 3215.3 3358.71 3215.3 3380.19 3225.48 3390.51 3215.3 3412.14 3201.31 3432.49 3173.32 3452.85 3168.23 3464.3 3168.23 3464.3 3177.14 3482.11 3177.14 3482.11 3152.97 3498.65 3137.7 3520.28 3137.7 3520.28 3155.51 3546.99 3117.34 3562.26 3089.36 3580.07 3089.36 3585.16 3055.43 3602.97 3055.43 3596.61 3027.02 3652.59 3027.02 3670.4 2997.76 3695.84 2982.49 3720.01 2982.49 3725.1 2999.03 3725.1 3033.38 3741.22 3034.65 3752.42 3061.37 3764.54 3062.64 3764.54 3034.65 3783.62 3015.57 3791.26 2991.4 3825.61 2990.12 3825.61 3018.11 3848.51 3048.65 3904.48 3046.1 3920.55 3019.39 3952.83 3001.57 3979.54 3005.39 4004.99 2976.13 4020.26 2944.32 4041.88 2927.4 4041.88 2919.17 4069.87 2919.17 4088.67 2927.4"/><polyline class="cls-2" points="3227.24 3272.55 3244.21 3289.52 3273.05 3272.55 3313.76 3272.55 3327.32 3247.11 3362.95 3247.11 3380.19 3268.31 3397.12 3268.31 3434.19 3247.11 3469.81 3223.36 3500.35 3204.7 3512.22 3228.45 3542.75 3247.11 3574.98 3257.29 3585.16 3289.52 3612.3 3298 3634.35 3272.55 3669.97 3264.07 3688.63 3298 3688.63 3340.41 3717.47 3340.41 3764.97 3311.57 3800.59 3272.55 3846.39 3272.55 3885.4 3314.96 3917.63 3318.35 3949.86 3306.48 3971.91 3308.18 3987.18 3340.41 4005.84 3350.58 4053.33 3350.58 4073.69 3330.23 4073.69 3314.96 4088.67 3314.96"/><polyline class="cls-2" points="3522.4 3184.35 3564.8 3147.03 3602.12 3147.03 3602.12 3184.35 3647.92 3191.13 3647.92 3228.45 3668.28 3204.7 3693.72 3187.74 3734.43 3187.74 3775.14 3187.74 3775.14 3242.02 3827.73 3242.02 3844.69 3204.7 3883.7 3194.53 3907.45 3204.7 3907.45 3225.06 3934.59 3218.27 3934.59 3194.53 3987.18 3187.74 3997.36 3225.06 4016.01 3225.06 4046.55 3194.53 4034.67 3194.53 4088.67 3194.53"/><polyline class="cls-2" points="3705.59 3160.19 3759.88 3109.71 3771.75 3096.14 3810.76 3096.14 3827.73 3128.16 3865.05 3108.01 3883.7 3077.48 3917.63 3077.48 3944.77 3089.36 3944.77 3130.07"/><polyline class="cls-2" points="3947.88 3005.67 3988.96 3063.35 3988.96 3005.67 4022.89 2968.36 4063.97 2968.36 4088.67 3002.28"/><line class="cls-2" x1="1711.18" y1="2097.2" x2="1715.01" y2="2669.53"/><line class="cls-2" x1="1777.4" y1="2130.39" x2="1777.4" y2="2753.49"/><line class="cls-2" x1="1826.18" y1="2134.07" x2="1826.18" y2="2768.21"/><line class="cls-2" x1="1873.74" y1="2125.87" x2="1880.65" y2="2778.39"/><line class="cls-2" x1="1907.54" y1="2125.87" x2="1916.02" y2="2778.39"/><line class="cls-2" x1="1970.87" y1="2109.16" x2="1970.87" y2="2800.71"/><line class="cls-2" x1="2031.79" y1="2094.08" x2="2031.79" y2="2831.04"/><line class="cls-2" x1="2072.4" y1="2081.47" x2="2071.65" y2="2851.8"/><line class="cls-2" x1="2107.81" y1="2063.08" x2="2097.9" y2="2874.04"/><line class="cls-2" x1="2154.52" y1="2054.63" x2="2141.44" y2="2883.71"/><line class="cls-2" x1="2188.89" y1="2032.11" x2="2167.07" y2="2907.02"/><line class="cls-2" x1="2229.83" y1="2010.52" x2="2208.49" y2="2932.31"/><line class="cls-2" x1="2280.35" y1="1980.76" x2="2238.74" y2="2951.01"/><line class="cls-2" x1="2312.85" y1="1959.64" x2="2276.56" y2="2961.57"/><line class="cls-3" x1="2574.63" y1="3222.76" x2="2942.27" y2="3222.76"/><line class="cls-2" x1="2598.86" y1="3248.81" x2="2942.27" y2="3247.11"/><polyline class="cls-3" points="2485.58 3135.76 2942.27 3135.76 2942.27 3194.53 2547.17 3194.53"/><polyline class="cls-3" points="2293.58 2986.72 2293.58 2932.31 2337.12 2932.31 2337.12 2851.8 2889.69 2851.8 2889.69 2941.78 2942.27 2941.78 2942.27 2997.76 2942.27 3222.76"/><polyline class="cls-3" points="2331.11 3012.72 2611.63 3012.72 2739.31 3010.48 2942.27 3010.48"/><polyline class="cls-3" points="2356.27 3030.87 2632.83 3030.87 2764.12 3029.99 2942.27 3032.99"/><line class="cls-3" x1="2429.98" y1="3030.87" x2="2429.98" y2="3087.89"/><line class="cls-3" x1="2441.44" y1="3030.87" x2="2441.44" y2="3097.35"/><line class="cls-3" x1="2457.13" y1="3030.87" x2="2457.13" y2="3110.61"/><line class="cls-3" x1="2471.98" y1="3030.87" x2="2471.98" y2="3117.26"/><line class="cls-3" x1="2502.51" y1="3030.87" x2="2502.51" y2="3135.76"/><line class="cls-3" x1="2520.32" y1="3030.87" x2="2520.32" y2="3135.76"/><line class="cls-3" x1="2548.31" y1="3030.87" x2="2548.31" y2="3135.76"/><line class="cls-3" x1="2574.63" y1="3030.87" x2="2574.63" y2="3135.76"/><line class="cls-3" x1="2595.38" y1="3030.87" x2="2595.38" y2="3135.76"/><line class="cls-3" x1="2624.64" y1="3030.87" x2="2624.64" y2="3135.76"/><line class="cls-3" x1="2649.27" y1="3030.87" x2="2649.27" y2="3135.76"/><line class="cls-3" x1="2671.71" y1="3030.87" x2="2671.71" y2="3135.76"/><line class="cls-3" x1="2694.61" y1="3030.87" x2="2694.61" y2="3135.76"/><line class="cls-3" x1="2713.93" y1="3030.87" x2="2713.93" y2="3135.76"/><line class="cls-3" x1="2754.62" y1="3030.87" x2="2754.62" y2="3135.76"/><line class="cls-3" x1="2783.67" y1="3030.87" x2="2783.67" y2="3135.76"/><line class="cls-3" x1="2825.65" y1="3030.87" x2="2825.65" y2="3135.76"/><line class="cls-3" x1="2856.18" y1="3030.87" x2="2856.18" y2="3135.76"/><rect class="cls-3" x="2856.18" y="2860.36" width="17.39" height="67.04"/><rect class="cls-3" x="2808.26" y="2860.36" width="17.39" height="67.04"/><rect class="cls-3" x="2773.77" y="2860.36" width="17.39" height="67.04"/><rect class="cls-3" x="2737.23" y="2860.36" width="17.39" height="67.04"/><rect class="cls-3" x="2693.13" y="2860.36" width="17.39" height="67.04"/><rect class="cls-3" x="2648.39" y="2860.36" width="17.39" height="67.04"/><rect class="cls-3" x="2600.54" y="2860.36" width="17.39" height="67.04"/><rect class="cls-3" x="2553.75" y="2860.36" width="17.39" height="67.04"/><rect class="cls-3" x="2511.63" y="2860.36" width="17.39" height="67.04"/><rect class="cls-3" x="2472.19" y="2861.91" width="17.39" height="67.04"/><rect class="cls-3" x="2432.75" y="2860.36" width="17.39" height="67.04"/><rect class="cls-3" x="2396.21" y="2860.36" width="17.39" height="67.04"/><rect class="cls-3" x="2364.97" y="2860.36" width="17.39" height="67.04"/><rect class="cls-3" x="2331.11" y="2821.34" width="561.33" height="21.67"/><rect class="cls-3" x="2344.33" y="2757.73" width="538.57" height="35.62"/><path class="cls-3" d="M2373.66,2751.8v-20.36c2.6.93,6.14,1.7,8.7,0,7.12-4.73.95-24.91-.71-32.23-11-48.38,44.44-108,56.83-121.28a227.44,227.44,0,0,1,78-54.28l195.93,1.69a224.32,224.32,0,0,1,90.75,76.34c36.85,53.71,39.15,108,39,128.07q-.42,10.59-.85,21.2"/><rect class="cls-3" x="2416.78" y="2668.68" width="16.11" height="35.83"/><rect class="cls-3" x="2480.25" y="2668.68" width="16.11" height="35.83"/><rect class="cls-3" x="2513.54" y="2668.68" width="16.11" height="35.83"/><rect class="cls-3" x="2450.56" y="2668.68" width="16.11" height="35.83"/><rect class="cls-3" x="2545.69" y="2668.68" width="16.11" height="35.83"/><rect class="cls-3" x="2678.29" y="2668.68" width="16.11" height="35.83"/><rect class="cls-3" x="2709.46" y="2668.68" width="16.11" height="35.83"/><rect class="cls-3" x="2741.9" y="2668.68" width="16.11" height="35.83"/><rect class="cls-3" x="2774.41" y="2668.68" width="16.11" height="35.83"/><rect class="cls-3" x="2575.52" y="2668.68" width="16.11" height="35.83"/><rect class="cls-3" x="2605.56" y="2668.68" width="16.11" height="35.83"/><rect class="cls-3" x="2640.33" y="2668.68" width="16.11" height="35.83"/><polyline class="cls-3" points="2561.46 2488.87 2561.46 2346.39 2664.65 2343.42 2664.65 2485.91"/><polyline class="cls-3" points="2561.46 2346.39 2561.46 2325.39 2571.21 2325.39 2571.21 2312.04 2579.48 2312.04 2579.48 2291.82 2590.29 2291.82 2590.29 2241.43 2602.38 2241.43 2602.38 2207.72 2591.57 2207.72 2591.57 2172.09 2602.38 2172.09 2602.38 2126.93 2618.92 2126.93 2618.92 2172.73 2631.64 2173.37 2631.64 2206.44 2619.55 2207.08 2618.92 2241.43 2631.64 2241.43 2631.64 2261.78 2618.28 2263.69 2617.64 2278.96 2631.64 2280.23 2631.64 2291.82 2646.27 2291.82 2646.27 2306.31 2646.27 2330.48 2664.65 2329.85 2664.65 2343.42"/><path class="cls-3" d="M3125.84,2710.23c-5-17.74-15.92-46.42-40.66-72.51-12.41-13.09-29.14-26.39-66.15-43.25-48.47-22.08-85-29-137.4-40.71-31.22-7-77.61-17.86-134.86-33.08h-40.71v-31.81H2523.5v31.81"/><path class="cls-3" d="M1543.8,3318.34a1053,1053,0,0,1,178.85-6.77c37.35,1.78,129.77,8.19,244.26,40.71,43.27,12.29,79,25.28,105.17,35.62l23.32,13.83"/><path class="cls-3" d="M1473.74,3283.77a779.19,779.19,0,0,1,103.19-30.67c343.64-76.48,624,107.16,660.6,131.93,10.52,7.13,18.74,13.06,22.84,16"/><path class="cls-3" d="M1377.17,3156a395.16,395.16,0,0,1,88.6-80.14c157.82-103.56,346.6-57.55,461.27-29.61,218,53.12,364.94,173.3,447.55,242.36a1312.13,1312.13,0,0,1,104.6,97.64"/><path class="cls-3" d="M1373.79,4237.74c-64.9,19.91-119.4,38.73-160.91,53.78-117.2,42.48-155.59,63.77-190.65,97.15-23.15,22.05-48.45,46.77-57.72,86.75-13.07,56.39,14.61,104.93,28,128.38,36.94,64.79,95.23,96.32,141.67,121.45a497.07,497.07,0,0,0,75.21,33"/><path class="cls-3" d="M1358,4266.57c-79.84,18.49-129.08,54.32-154.36,76.34-20.55,17.89-37.41,32.92-45.8,57.67-19.19,56.56,21.84,116.59,40.71,144.18,102.67,150.2,454.32,196.76,495.31,201.86l54.28,11.59"/><path class="cls-3" d="M1160.36,4311.21c-16.93,7.81-58.57,29.86-84,77.49-37.54,70.33-10.53,141.71-5.09,156.06,30.94,81.74,107.35,118.95,169.62,149.27a511.66,511.66,0,0,0,147.58,45.8l67.85,18.38"/><path class="cls-3" d="M3075.4,2474.59a266.66,266.66,0,0,1,88.27-33.82c95.2-17.68,172.27,24.64,215.9,48.6,92.42,50.74,146.14,123.84,161.93,145.77,24.07,33.47,31,51.89,69.39,105.29A1255.53,1255.53,0,0,0,3693.14,2843"/><path class="cls-3" d="M3125.84,2515.22c74.54-22.44,129.07-12.2,157.38-4,63.86,18.57,104.87,59.08,171.33,124.72,34.24,33.83,37.64,42.58,108.56,119.46,36.17,39.22,66.44,70.72,86.51,91.35"/><path class="cls-3" d="M3193.36,2588a322.13,322.13,0,0,1,91,7.86c74.81,17.53,123.65,58.1,189,113.61a1061.13,1061.13,0,0,1,122,122.21l13.74,15.11"/><path class="cls-3" d="M3221.89,2668.68a316.57,316.57,0,0,1,96.11,5.53c127.57,27.44,199.15,127.54,220.09,159.43l8.9,13.15"/><path class="cls-3" d="M3221.89,2734.49a292.56,292.56,0,0,1,88.47,0c95.74,14.8,157.36,74,180.66,99.15l10.17,13.15"/><path class="cls-3" d="M3212.56,2766.37a580,580,0,0,1,226.3,64.73l24.17,15.69"/><line class="cls-2" x1="2351.12" y1="1932.66" x2="2311.85" y2="2927.4"/><line class="cls-2" x1="2396.21" y1="1897.75" x2="2356.27" y2="2751.8"/><line class="cls-2" x1="2424.84" y1="1882.34" x2="2413.6" y2="2607.45"/><line class="cls-2" x1="2458.62" y1="1872.84" x2="2466.68" y2="2447.03"/><line class="cls-2" x1="2506.47" y1="1852.73" x2="2513.78" y2="2447.03"/><polyline class="cls-2" points="2552.79 1847.71 2558.49 2447.03 2419.82 2447.03 2419.82 2497.78 2521.59 2497.78"/><line class="cls-2" x1="2665.78" y1="1820.2" x2="2687.24" y2="2368.52"/><line class="cls-2" x1="2703.59" y1="1810.64" x2="2730.94" y2="2351.48"/><line class="cls-2" x1="2748.14" y1="1798.49" x2="2786.21" y2="2322.64"/><line class="cls-2" x1="2811.66" y1="1762.87" x2="2838.89" y2="2285.98"/><line class="cls-2" x1="2838.89" y1="1742.2" x2="2868.33" y2="2260.63"/><line class="cls-2" x1="2589.44" y1="1842.78" x2="2602.38" y2="2126.93"/><line class="cls-2" x1="2607.06" y1="1834.17" x2="2618.92" y2="2126.93"/><line class="cls-2" x1="3227.53" y1="2862.9" x2="4088.67" y2="2862.9"/><line class="cls-2" x1="3227.53" y1="2905.72" x2="4041.32" y2="2905.72"/><line class="cls-2" x1="3720.01" y1="2982.49" x2="3999.46" y2="2982.49"/><line class="cls-2" x1="3725.1" y1="3001.57" x2="3785.53" y2="3001.57"/><line class="cls-2" x1="3828.15" y1="3001.57" x2="3952.83" y2="3001.57"/><line class="cls-2" x1="3825.61" y1="3018.11" x2="3920.55" y2="3019.38"/><path class="cls-3" d="M3417,3477.09c79.56,11.61,163.58,26.79,251.31,46.51a3359.6,3359.6,0,0,1,420.39,123.83"/><line class="cls-3" x1="3944.21" y1="1712.57" x2="4088.67" y2="1790.56"/><line class="cls-3" x1="3935.43" y1="1743.44" x2="4088.67" y2="1816.43"/><line class="cls-3" x1="3926.82" y1="1773.7" x2="4088.67" y2="1846.11"/><line class="cls-3" x1="3918.03" y1="1804.63" x2="4088.67" y2="1879.19"/><line class="cls-3" x1="3907.43" y1="1841.91" x2="4088.67" y2="1914.81"/><line class="cls-3" x1="3897.06" y1="1878.36" x2="4088.67" y2="1959.64"/><line class="cls-3" x1="3885.51" y1="1919" x2="4088.67" y2="2003.87"/><line class="cls-3" x1="3870.33" y1="1972.36" x2="4088.67" y2="2060.69"/><line class="cls-3" x1="3854.3" y1="2028.74" x2="4088.67" y2="2124.3"/><line class="cls-3" x1="3834" y1="2100.13" x2="4088.67" y2="2173.5"/><path class="cls-1" d="M699,622.74C699,477,817.13,358.9,962.84,358.9S1226.69,477,1226.69,622.74,1108.56,886.59,962.84,886.59,699,768.46,699,622.74"/><line class="cls-2" x1="3227.25" y1="2936.82" x2="4023.79" y2="2936.82"/><line class="cls-2" x1="3227.25" y1="2968.36" x2="4008.72" y2="2968.36"/><line class="cls-2" x1="3227.25" y1="2968.45" x2="3662.65" y2="2968.45"/><polyline class="cls-2" points="2942.27 3046.14 3220.46 3042.48 3600.94 3046.14"/><polyline class="cls-2" points="2942.27 3013.43 3244.54 3009.77 3657.96 3013.43"/><line class="cls-2" x1="2942.27" y1="3076.79" x2="3583.97" y2="3076.79"/><line class="cls-2" x1="2942.27" y1="3122.74" x2="3558.72" y2="3122.74"/><line class="cls-2" x1="2942.27" y1="3160.19" x2="3482.11" y2="3160.19"/><line class="cls-2" x1="2942.27" y1="3206.04" x2="3416.97" y2="3203.37"/><line class="cls-2" x1="2942.27" y1="3234.52" x2="3318" y2="3233.12"/><line class="cls-2" x1="2630.67" y1="3284.84" x2="3122.93" y2="3284.84"/><line class="cls-2" x1="2649.27" y1="3306.89" x2="3078.82" y2="3308.18"/><path class="cls-3" d="M3060.27,2447c.51-12.25,3.26-30.17,15.13-45.81,16.53-21.8,46.06-32.94,101.1-33.08,66.63-.16,162.25-.39,258.26,67.43,74.75,52.81,79.08,97,187,245.54,54.49,75,103.07,132.14,133.58,166.66"/><path class="cls-4" d="M3740.19,236.27a4.58,4.58,0,0,0-.42-.35,3.2,3.2,0,0,0-.48-.26,3.83,3.83,0,0,0-.56-.22,1.22,1.22,0,0,0-.17-.07c-.12,0-.24,0-.36,0a3.89,3.89,0,0,0-.59,0,2.8,2.8,0,0,0-.59.1,2,2,0,0,0-.35.05c-.06,0-.11.07-.17.09a3.39,3.39,0,0,0-.53.29,2.71,2.71,0,0,0-.45.3,3.59,3.59,0,0,0-.38.4,4.17,4.17,0,0,0-.36.47c0,.06-.08.1-.11.15l-128,242.34c0,.07,0,.15-.08.22a4,4,0,0,0-.22.67,3.12,3.12,0,0,0-.06.41c0,.11-.05.21-.05.32s0,.2,0,.3,0,.29.05.43a4.35,4.35,0,0,0,.2.61,1.84,1.84,0,0,0,.15.36,3.2,3.2,0,0,0,.46.65s.07.12.12.17l0,0a3.7,3.7,0,0,0,.81.6l145.48,78.24.07,0,.05,0a2.17,2.17,0,0,0,.36.12,2.9,2.9,0,0,0,.47.16c.14,0,.29,0,.43,0a4.1,4.1,0,0,0,.49,0,2,2,0,0,0,.43-.07,4.1,4.1,0,0,0,.48-.1,3.65,3.65,0,0,0,.41-.18c.13-.07.26-.11.38-.18l.07,0,0,0,136.11-93.6a4.31,4.31,0,0,0,.4-.32h0a4.48,4.48,0,0,0,.36-.4,3.33,3.33,0,0,0,.54-.95s0,0,0,0a3.46,3.46,0,0,0,.18-1.46c0-.06,0-.12,0-.18s-.06-.2-.08-.31-.06-.27-.1-.4a3.64,3.64,0,0,0-.3-.63,2.29,2.29,0,0,0-.1-.23l-153.6-227c0-.05-.1-.08-.13-.14A5.6,5.6,0,0,0,3740.19,236.27Zm-5.23,15.5,8.54,156.44-125.3,64.64Zm9,164.18,7.49,137.34-134-72.07Zm7.06-.38,132.88,51.11L3758.48,552.9Zm131.17,42.87-131.59-50.62L3742,251.39Z"/><path class="cls-4" d="M3761.05,707.62a2.73,2.73,0,0,0,.25.23,2.07,2.07,0,0,0,.34.15,2.94,2.94,0,0,0,.68.3h0a3.27,3.27,0,0,0,1,.1l.25,0a3.2,3.2,0,0,0,.76-.15l.15,0c.05,0,.08-.05.13-.07a3.51,3.51,0,0,0,1-.64h0a3.38,3.38,0,0,0,.59-.71l130-206.16a3.54,3.54,0,0,0-4.95-4.83l-134.5,90L3613.24,511a3.54,3.54,0,0,0-4.41,5.34l151.63,190.8h0A3.15,3.15,0,0,0,3761.05,707.62Zm5.11-14-5.56-101.86,120.71-80.82ZM3624.74,524.93l128.79,67.2L3759.09,694Z"/><path class="cls-5" d="M2506.68,1721.69c-.52-.27-1.16-.3-1.62-.81-2-2.19-4.64-3.51-6.87-5.39a12.59,12.59,0,0,0-3.35-2.47c-1.08-.41-1.59-1.42-2.43-2.08.44-.56.92-1.1,1.31-1.69.21-.31.2-.78.42-1.07,3.19-4.06,5-8.85,6.53-13.64a49.07,49.07,0,0,0,2.11-11.9,57.32,57.32,0,0,0-2.3-20.48,48.39,48.39,0,0,0-3.87-9.16,35.14,35.14,0,0,0-4.67-7.32c-.79-.85-.18-1.26.32-1.83,2.23-2.54,5.08-4.4,7.46-6.77,2.14-2.13,4.17-4.38,6.48-6.32a15.63,15.63,0,0,0,1.68-1.91c1.1-1.25-.6-1.39-1-2.07-1.77-3.13-4.54-5.42-7.18-7.66a72.69,72.69,0,0,0-9.76-7.23,89,89,0,0,0-10.15-5.42,81.81,81.81,0,0,0-10.8-3.91,107.39,107.39,0,0,0-11.3-2.34c-2.3-.35-4.65-.42-7-.65-.21,0-.68.4-.63-.46.15-2.8.19-5.62.08-8.42-.09-2.13.14-4.37-1.89-6a5.4,5.4,0,0,0-5.51-1.07,5.06,5.06,0,0,0-3.44,4.93c.06,3.36-.1,6.72,0,10.08,0,1.16-.22,1.26-1.31,1.42a66.89,66.89,0,0,0-11.13,2.23c-1.7.56-1-.71-1-.84,0-4.19.06-8.38.07-12.57,0-3.13-2.06-5.35-5.44-5.49-2.27-.1-5.35,2.27-5.34,5,0,5.6.1,11.19.15,16.78a1.5,1.5,0,0,1-1,1.67,17.35,17.35,0,0,0-3.51,1.73c-2.6,1.74-5.34,3.27-8,5a59.18,59.18,0,0,0-7.76,6,66.14,66.14,0,0,0-12.47,14.36c-.81,1.33-1.81,2.51-2.57,3.92-1.55,2.9-3.43,5.62-4.55,8.77-.76,2.12-1.91,4.07-2.45,6.3a25.93,25.93,0,0,1-1.36,4.3,20.18,20.18,0,0,0-1.05,4.09c-.38,1.72-.43,3.73-.89,5.31-.88,3.09-.46,6.15-.86,9.2s.25,6.21.18,9.29a49.22,49.22,0,0,0,.84,7.34c.2,1.62.94,3.52,1.22,5.18a47.66,47.66,0,0,0,2.31,8,54.49,54.49,0,0,0,2.54,5.75,75.25,75.25,0,0,0,6.62,11.62c1.33,1.82,2.68,3.62,3.92,5.49s3.4,3.29,4.78,5.34c.89,1.34,2.68,2.31,4,3.57a20.62,20.62,0,0,0,2.89,2.73c2.62,1.7,5.18,3.52,7.74,5.29a73.37,73.37,0,0,0,7.39,4.18,45.92,45.92,0,0,0,6.26,2.63,92.57,92.57,0,0,0,12.41,3.63,72,72,0,0,0,14.13,1.57q15,0,29.95,0h31c.83,0,1.2.13,1.19-1.17,0-9.78.19-19.57.11-29.35C2508.3,1725.21,2509.1,1722.91,2506.68,1721.69Zm-18.57-37.86c-.76,5.45-2.17,10.68-5.29,15.3-.23.35.24.62-.19,1-.67.56-1.06,1.83-1.73,2-1.22.24-2.13-1-3-1.76-1.61-1.37-3.34-2.56-5-3.84-1.84-1.44-3.76-2.77-5.62-4.18-.69-.53-.07-1.12.18-1.47a20.47,20.47,0,0,0,3.36-9.35,21.51,21.51,0,0,0-2.29-13.34,1.63,1.63,0,0,1,.33-2.33c2-1.88,3.8-4,5.89-5.78a66.29,66.29,0,0,0,5.91-5.33c.76,1.93,2.05,3.31,2.93,5a42.56,42.56,0,0,1,4,11A37.13,37.13,0,0,1,2488.11,1683.83Zm3.85,58.85c-8.21,0-16.41,0-24.62,0-7.8,0-15.61.06-23.41,0a55.32,55.32,0,0,1-11.85-1.8,56.25,56.25,0,0,1-15.14-5.84,62.78,62.78,0,0,1-7.72-5.1,72.56,72.56,0,0,1-8.3-7.15,54.38,54.38,0,0,1-4-4.74,46.84,46.84,0,0,1-4.81-6.92c-1.54-3.11-3.39-6.1-4.44-9.5a47.26,47.26,0,0,0-1.88-5.12c-.49-1.12-.33-2.65-.8-3.87-.83-2.12-.75-4.39-1.35-6.57-.54-2-.09-4.21-.14-6.34a54.2,54.2,0,0,1,.18-8.74c.18-1.29.43-2.66.72-4,.63-2.82.92-5.8,2-8.43.79-1.9,1.42-3.91,2.41-5.77.8-1.49,1.3-3.2,2.17-4.7,1.18-2,2.36-4.09,3.58-6.1a5.36,5.36,0,0,1,.9-1.1c1.58-1.38,2.52-3.27,3.9-4.81,2.44-2.72,5.15-5.15,7.82-7.61a44.52,44.52,0,0,1,6.67-4.63c.76-.47,1.46-.56,1.43,1q-.22,9.36-.1,18.73a5,5,0,0,0,5.28,5,5.17,5.17,0,0,0,5.48-5.44c0-7.9-.11-15.8-.12-23.71a1.94,1.94,0,0,1,1.56-1.89,64.4,64.4,0,0,1,34.07-1.7,65.23,65.23,0,0,1,17.77,6.7,21.62,21.62,0,0,1,5.07,3.49c.08.08.16.22.25.23,1.26.19,1.81,1.4,2.82,1.94a9.87,9.87,0,0,1-2.9,3.09c-2.76,2-5,4.64-7.52,6.86-4.54,3.94-8.69,8.29-13.1,12.36-2.19,2-4.52,3.92-6.61,6.06-1,1-2.05,0-2.77-.22a22.06,22.06,0,0,0-7-1,21.56,21.56,0,0,0-11.59,3.36,23.35,23.35,0,0,0-9.59,12c-2.44,6.56-1.62,12.88,1.32,18.9a20.17,20.17,0,0,0,5.59,6.76,25.58,25.58,0,0,0,5.9,3.6,20.38,20.38,0,0,0,13.16,1.3,3.66,3.66,0,0,1,3.25.54c2.28,1.58,4.22,3.58,6.7,4.93,1.42.77,2.45,2.31,4,3.14,2.54,1.41,4.42,3.68,7,5.1,1.51.84,2.72,2.35,4.23,3.35,2.59,1.73,4.8,4,7.52,5.55a23,23,0,0,1,2.78,2.16,52.57,52.57,0,0,0,5.61,4.13c.5.3.32.82.33,1.25,0,3.22-.05,6.44,0,9.65C2493.67,1742.31,2493.23,1742.68,2492,1742.68Zm-34.89-63.8a9.11,9.11,0,0,1-9.06,8.89c-4.8,0-9.22-4-8.81-9.08-.41-4.65,4.16-9,8.9-8.82A9,9,0,0,1,2457.07,1678.88Z"/><path class="cls-6" d="M3461.22,3939.84s-25.36,17.47-34.38,29.3-23.67,53.54-27.05,92.43-9,95.24-9,95.24-40.85,54.83-49.59,86.79c-.21.76-.4,1.52-.57,2.25-7.32,31.56,18,54.11,18,54.11s62.55-73.27,70.44-96.37S3461.22,3939.84,3461.22,3939.84Z"/><path class="cls-1" d="M3619.86,4635.56l76.36,106.23s47.34,24.8,56.36,41.7-41.7,89.05-50.72,110.46-37.2,45.09-46.21,37.2-1.13-112.71-3.39-127.37-88.19-111.58-88.19-111.58Z"/><path class="cls-7" d="M3611.17,4644.08l56.31,82.61c7.55,11.06,15.14,22.19,24.53,31.74,17.82,18.14,41.66,30.15,57,50.45"/><path class="cls-1" d="M3538.42,4677s2.26,166.82,3.95,170.2,25.92,72.7,22,81.15-40,11.84-68.76,12.4-86.79,11.27-92.42,3.38,81.72-76.08,83.41-85.66-29-178.93-29-178.93Z"/><path class="cls-7" d="M3524.33,4677.54s2.82,155.55,4,170.2,16.91,76.08,15.22,88.48"/><path class="cls-3" d="M3624.93,4158.78s34.66,101.44,17.75,183.44-81.15,229.09-81.15,229.09l58.33,64.25-55.79,56.64-24.52-12.68h-82s-11.83-57.49-26.2-131-27-170.76-22-229.09,16.34-160.62,16.34-160.62Z"/><path class="cls-8" d="M3451.63,4219.65l22.83,52.41s-.85,219.79,4.23,274.74,13.52,71,34.66,96.37,50.72,49,50.72,49"/><path class="cls-8" d="M3585.37,4167.6c15.25,60.47,30.59,123.08,20.15,184.57-2.89,17-7.73,33.67-12.57,50.25-13.66,46.87-27.4,93.78-44.9,139.35-2,5.16-4,10.47-3.86,16,.26,7.88,5,14.83,9.77,21.09a319.51,319.51,0,0,0,60.34,60.33"/><path class="cls-8" d="M3606.68,4272.75c-21.46-1.73-40.44-16.3-51.66-34.68s-15.58-40.16-17.17-61.63"/><path class="cls-6" d="M3578.86,4318.13s-1.27,44.8-5.49,55.79-20.29,43.54-27.48,50.72-41-3-42.27-6.34,21.14-63.4,22-67.62,19-53.26,19-53.26Z"/><path class="cls-6" d="M3544.62,4297.42s-23.67,30.43-29.58,41.42-22.83,40.16-19.45,44.38,27-21.55,30.86-24.94S3544.62,4297.42,3544.62,4297.42Z"/><path class="cls-9" d="M3540.4,4360s-2.26,14.09-6.77,23.39-17.47,40.3-17.47,40.3"/><path class="cls-9" d="M3556.46,4364.48s-2.54,14.37-6.76,21.42-20.29,40.58-20.29,40.58"/><path class="cls-9" d="M3567.45,4369.84s-4.79,17.19-8.46,24.23-16.34,32.41-16.34,32.41"/><path class="cls-1" d="M3452.67,3736.86a48.75,48.75,0,0,0-10,50.32c1.26,3.21,2.94,6.38,5.67,8.49q7.14-15.37,14.27-30.75c1-2.16,2-4.45,1.8-6.83a13.44,13.44,0,0,0-1.24-4q-3.24-7.5-6.47-15"/><path class="cls-1" d="M3443.21,3833.13a25.33,25.33,0,0,1-5.86,24c-2.47,2.6-5.48,4.64-8,7.2a26.65,26.65,0,0,0-7.46,19.4c.17,4.47,1.48,8.91,1,13.35a16.58,16.58,0,0,1-5.74,10.62c-2.11,1.77-4.66,3-6.65,4.91a19.91,19.91,0,0,0-4.64,8c-3,8.75-3.06,18.29-1.89,27.48.19,0,.72,1.13.91,1.13h78.45c-.33-5.93,1.34-10.92,2.5-16.74,3.94-19.69,5.06-39.84,5.4-59.92.14-8.45.07-17.25-3.67-24.83-3.63-7.36-10.31-12.7-17.09-17.32a16.41,16.41,0,0,0-5.8-2.87,17.45,17.45,0,0,0-5.63.09l-10.83,1.38C3446.36,3829.16,3443.9,3831.41,3443.21,3833.13Z"/><path class="cls-1" d="M3532.35,3843.4l-1.36,61.73c-17.59,23-56.59,26.53-56.59,26.53s4.07-15.43,4.33-24.36a29.61,29.61,0,0,0-.22-4.2c-.8-7.83-3.69-19.75-5.16-25.38l-.82-3.18Z"/><path class="cls-1" d="M3473.33,3737s-16.34,9.68-22,24.16c-8.45,21.69-1.61,33.84-6.48,37.9s-15.22,12.43-14.79,17.75,8.19,10.42,8.59,13.67.57,36.35,8.46,43.11c9.25,7.93,42,1.87,42,1.87s37.63-5.28,44.53-27.2,14.62-58.47,2.44-78.78S3501.34,3725.26,3473.33,3737Z"/><path class="cls-1" d="M3466.4,3802a4.44,4.44,0,1,1-3.24-5.38A4.44,4.44,0,0,1,3466.4,3802Z"/><path class="cls-7" d="M3442.12,3838.08s9.62,5.92,23-2.86"/><path class="cls-7" d="M3446.93,3848s5.21,2.58,11.56-1.17"/><path class="cls-1" d="M3479.84,3787.8a3.27,3.27,0,0,1,.89,1.23,1.18,1.18,0,0,1-.4,1.37,1.6,1.6,0,0,1-.69.17,20.47,20.47,0,0,1-6-.74l-12.52-2.8a12.3,12.3,0,0,1-4-1.38,4.12,4.12,0,0,1-2.09-3.42,3.91,3.91,0,0,1,2-3.11c3-1.83,7.84-1.43,10.93,0A43.12,43.12,0,0,1,3479.84,3787.8Z"/><path class="cls-6" d="M3500.1,3896.44s-16.91,4.79-22.54-.56l-2.26-8.74s-10.42-1.41-16.06,16.07,2.82,31.27-1.69,45.36-43.39,59.74-44,96.09,14.38,61.43,14.38,67.91-2.26,46.21-2.26,46.21,40.3,21.42,93.27,18.32,109.33-20.57,109.33-20.57-4.51-195.56-11.55-206.27c-5.46-8.3-16.14-14-24.29-19.2s-23-11-26.33-20.56c-1.3-3.71-1.57-7.69-2.32-11.55-2.2-11.34-15.23-35.61-30.19-26.74C3526,3876.72,3522.08,3891.37,3500.1,3896.44Z"/><path class="cls-6" d="M3608.87,3943.22s40.58,22,49,71.85,4.23,177.53-2.54,194.43-55.79,84.54-60.86,93.84a67.23,67.23,0,0,1-12.68,16.06l-37.2-22s16.06-51.57,23.67-84.54,15.22-61.71,15.22-61.71S3559,4076.78,3564.07,4021,3576.75,3955.9,3608.87,3943.22Z"/><path class="cls-9" d="M3596.47,4124.69s-9.58,13-20.85,56.92-31,115.81-31,115.81"/><path class="cls-1" d="M3452.86,3726.35l-.11-.13.22-.35c.08-.34.14-.54.14-.54l.11.13a44.77,44.77,0,0,1,10.15-12c.37-.31.56-.78,1-.66,23.55-19.43,56.44-27.43,86-19.78s54.77,31.23,63.22,60.57c1.24,4.32,2.15,8.76,3.9,12.9,3,7.12,7.14,14.28,13.52,18.66a60.79,60.79,0,0,1,25.68,42.85c1.4,12.73-1.3,25.54-4.28,38a46.52,46.52,0,0,0-1.67,10.11c-.09,6.05,2.26,12,5.63,17,2.08,3.09,4.56,5.93,6.26,9.25a27.86,27.86,0,0,1,2.08,18.15,48.27,48.27,0,0,1-7.47,16.94,78.61,78.61,0,0,1-19.48,20.2H3491.65a1.82,1.82,0,0,1-1-.47,52.16,52.16,0,0,1-4.66-14.68,22.82,22.82,0,0,1,.16-9.77c1-3.68,3.45-6.77,5.35-10.08s3.44-7.28,2-10.8a27.57,27.57,0,0,1,7.67-31c3.49-2.87,7.63-4.81,11.4-7.29s7.34-5.72,8.71-10c1.87-5.9-.8-12.25-4-17.53s-7.17-10.43-8.14-16.54c-1.49-9.39,4.38-18.29,10.91-25.23-1.71-.33-6.83-1.59-16.49-6.08-11.9-5.53-31.84-21.13-43.39-39.73C3450.31,3742.63,3452.08,3729.9,3452.86,3726.35Z"/><path class="cls-6" d="M3346,4243.32s22.82,64,20,76.36-20.29,32.12-26.48,37.2-24.24,9.58-24.24,5.63,23.67-24.8,23.67-43.39-27.61-29.31-27.61-29.31-3.95,20.85-3.38,32.12,2.25,26.49-3.39,27.62-16.9-33.25-17.47-46.78,9.58-68.19,9.58-68.19Z"/><path class="cls-6" d="M3091.52,4272.06s8,22,5.91,34.66-2.95,48.61-8.87,51.14-12.68,2.54-15.22-18.17a327.32,327.32,0,0,0-7.18-38.47L3056,4272.34Z"/><path class="cls-6" d="M3056,4272.34s-14,39.45-16.48,61.85-6.34,78.62,3.8,77.35,34.24-24.94,33.82-33.81-4.65-72.28-4.65-72.28Z"/><path class="cls-9" d="M3081.94,4358.57s-6.77-1.41-8.74-13.81-2.25-34.94-6.76-44.8"/><path class="cls-9" d="M3069.64,4312.5a73.14,73.14,0,0,0-10.67,18.23"/><path class="cls-9" d="M3072.07,4338.28s-18,8.73-23.1,14.09"/><path class="cls-9" d="M3052.35,4349.83s.56,48.19,1.13,56.08"/><line class="cls-9" x1="3059.96" y1="4344.48" x2="3062.92" y2="4398.86"/><line class="cls-9" x1="3067.28" y1="4340.81" x2="3072.5" y2="4387.45"/><path class="cls-1" d="M3210.23,4923.68c28.74-6.75,64.8-6.19,82.84-10.13s18-11.85,18-11.85a19.28,19.28,0,0,0,2.32-8.15,2.74,2.74,0,0,0,0-.5c.73-9.13-1.88-21.85-5.66-34.69v0c-.06-.26-.16-.53-.23-.82v0c-7.42-24.86-19-49.86-19-49.86l-55.82-1.69s-5.34,13.94-11.86,26.72c-.13.27-.23.5-.36.73a121.78,121.78,0,0,1-6.33,11,8.37,8.37,0,0,1-.46.7,38.15,38.15,0,0,1-4.5,5.66c-1.16,1.16-2.55,2.41-4.07,3.77-.24.2-.44.4-.67.6-7.08,6.22-17.45,14.3-28.11,22.68a4.79,4.79,0,0,0-.66.53c-18.71,14.67-38.17,30.06-42.45,37.64-.13.27-.26.5-.36.73a5.13,5.13,0,0,0-.46,1.39C3130.77,4928.75,3181.49,4930.44,3210.23,4923.68Z"/><path class="cls-10" d="M3132.92,4916.66c5.33,3.54,13.11,6.59,18.57,7.19a37.35,37.35,0,0,0,4.74.26c3.05,0,6.16-.26,9.47-.59a287.29,287.29,0,0,0,32.48-4.74c4.9-1.06,9.87-2.38,14.63-3.64,4.94-1.29,10-2.65,15.07-3.74,9.77-2.09,19.9-3.35,29.73-4.57,18.87-2.39,38.44-4.84,55.79-13.28a1.6,1.6,0,0,0,.23-.1l-.2-.4-.16-.36c-10.3,5.07-21.42,8-32.71,10-.24,0-.47.1-.7.13-7.45,1.33-15,2.25-22.35,3.18-9.83,1.23-20,2.52-29.8,4.6-5.06,1.1-10.16,2.45-15.13,3.74-2.58.67-5.16,1.36-7.78,2l-.79.2c-2,.5-4,1-6,1.43a284.83,284.83,0,0,1-32.38,4.7,65.63,65.63,0,0,1-14.07.33c-5.36-.6-13-3.64-18.28-7.09C3133.15,4916.2,3133,4916.43,3132.92,4916.66Z"/><path class="cls-10" d="M3175.73,4878.29a86.94,86.94,0,0,1,28.28,38.27c0,.07,0,.1.06.17l.76-.3s0,0,0-.07a87.62,87.62,0,0,0-28.41-38.6A4.79,4.79,0,0,0,3175.73,4878.29Z"/><path class="cls-10" d="M3279.69,4902.79l.17,0h0l.63.07a.36.36,0,0,1,0-.2c2.35-18.77,18.14-35.92,27.21-44.33v0c-.06-.26-.16-.53-.23-.82C3298.37,4865.91,3282.05,4883.49,3279.69,4902.79Z"/><path class="cls-10" d="M3220.53,4833.36a74.31,74.31,0,0,1,24.53,19.67.49.49,0,0,0,.33.16.38.38,0,0,0,.27-.1.45.45,0,0,0,.06-.59,74.63,74.63,0,0,0-24.83-19.87C3220.76,4832.9,3220.66,4833.13,3220.53,4833.36Z"/><path class="cls-10" d="M3213.74,4845.05a74,74,0,0,1,21.32,18,.47.47,0,0,0,.33.17.43.43,0,0,0,.27-.1.45.45,0,0,0,.06-.6,75.9,75.9,0,0,0-21.52-18.14A8.37,8.37,0,0,1,3213.74,4845.05Z"/><path class="cls-10" d="M3204.5,4855.08a73.46,73.46,0,0,1,20.86,17.68.36.36,0,0,0,.3.13.34.34,0,0,0,.26-.1.41.41,0,0,0,.07-.56,74.83,74.83,0,0,0-20.82-17.75C3204.93,4854.68,3204.73,4854.88,3204.5,4855.08Z"/><path class="cls-1" d="M2888,4838.87c.57,14.64,73.84,55.79,95.82,67.61,20.26,10.93,47.25,25.17,58.8,20.73a11.13,11.13,0,0,0,1.2-.56,6.17,6.17,0,0,0,1.42-1c8-7,12.45-22.28,14-33.7.06-.33.1-.66.13-1,.27-1.92.43-3.71.5-5.33.56-11.29,7.31-48.47,7.31-48.47l-47.34-19.74s-8,2.92-19.11,6.43c-.26.06-.53.16-.79.23h0c-3.18,1-6.56,2-10.1,3-.27.07-.57.17-.86.23-3.15.9-6.36,1.79-9.64,2.62a5.9,5.9,0,0,1-.83.2c-11.29,2.88-22.74,5.13-31.45,5.26a5.7,5.7,0,0,1-.83,0h-1.29c-21.92-.5-51.19-9.34-56.19-.17a2.9,2.9,0,0,0-.36.83A6.91,6.91,0,0,0,2888,4838.87Z"/><path class="cls-10" d="M2888.38,4836.16c10.26,13.41,24.7,23.11,38.64,31.88,4.7,3,9.47,5.93,14.27,8.81a6.14,6.14,0,0,0,.53.33l0,0c22.22,13.41,45.13,26,68.31,37.48a186.93,186.93,0,0,0,32.44,12.52,11.13,11.13,0,0,0,1.2-.56,170.22,170.22,0,0,1-20.2-6.86l-.8-.29c-4.47-1.86-8.7-3.78-12.28-5.53-23.18-11.49-46.05-24.11-68.27-37.52a4.8,4.8,0,0,1-.76-.46q-7.11-4.27-14-8.64c-14-8.84-28.54-18.54-38.71-32A2.9,2.9,0,0,0,2888.38,4836.16Z"/><path class="cls-10" d="M2942.05,4877.25a170.24,170.24,0,0,0,5-42.05h-.83a169.6,169.6,0,0,1-5,41.84Z"/><path class="cls-10" d="M3022.61,4919.73l.62.53.37-.47c8.21-10,21.32-20.26,35.66-27.84.06-.33.1-.66.13-1-14.73,7.71-28.28,18.21-36.59,28.51C3022.74,4919.56,3022.67,4919.66,3022.61,4919.73Z"/><path class="cls-10" d="M3000,4824.11a107.73,107.73,0,0,1,10.06,27.48.4.4,0,0,0,.4.33l.1,0a.41.41,0,0,0,.3-.5,105.38,105.38,0,0,0-10.07-27.51C3000.49,4823.94,3000.22,4824,3000,4824.11Z"/><path class="cls-10" d="M2989,4827.38a106.47,106.47,0,0,1,8.41,24.21.44.44,0,0,0,.39.33s.07,0,.1,0a.42.42,0,0,0,.33-.5,108.08,108.08,0,0,0-8.37-24.24C2989.56,4827.22,2989.26,4827.32,2989,4827.38Z"/><path class="cls-10" d="M2978.5,4830.2a106.92,106.92,0,0,1,7.09,21.39.39.39,0,0,0,.4.33s.06,0,.1,0a.38.38,0,0,0,.29-.5,104.12,104.12,0,0,0-7.05-21.39A5.9,5.9,0,0,1,2978.5,4830.2Z"/><path class="cls-3" d="M3088.14,4257.69s14.37,131,25.36,163.15,71.85,186.82,81.15,224.86,34.66,160.62,34.66,160.62l63.4,1.69s4.23-105.67-1.69-161.46-20.29-93-17.75-124.27-17.76-262.06-17.76-262.06Z"/><path class="cls-8" d="M3236.26,4429.21c10.41,125.45,39,249.89,34.31,375.69"/><path class="cls-3" d="M3288.2,4260.51s1.13,67.62-21.41,105.95-96.94,193.86-96.94,193.86-18,151-41.7,195-57.49,83.4-57.49,83.4l-55.22-22.54s50.72-215.28,60.86-270.51,56.36-293.05,56.36-293.05Z"/><path class="cls-8" d="M3265.38,4369.27s-96.09,191-97.22,201.76-15.78,139.2-41.7,187.1-55.8,80.59-55.8,80.59"/><polyline class="cls-8" points="3111.24 4278.54 3123.64 4320.24 3106.17 4388.44"/><path class="cls-8" d="M3255.33,4257.08a712.17,712.17,0,0,1-79.06,236.65c-9.91,18.18-20.68,36.07-27.5,55.62-4.63,13.3-7.37,27.18-10.22,41q-8.87,43-19.32,85.59c-13.42,54.74-29.47,110.43-63.31,155.5"/><path class="cls-8" d="M3235.49,4349.86c-4.63-2.19-8.36-5.87-11.88-9.59-10.91-11.56-20.74-24.31-27.6-38.64s-10.65-30.37-9.25-46.2"/><path class="cls-6" d="M3314.27,4280.09s32.12,27.47,27.89,41.84-19,43.12-28.32,43.12c-4.65,0-22.4-27.48-23.67-39.73S3304.12,4277.13,3314.27,4280.09Z"/><line class="cls-9" x1="3338.78" y1="4308.83" x2="3307.5" y2="4359.13"/><line class="cls-9" x1="3330.33" y1="4296.57" x2="3297.78" y2="4346.45"/><line class="cls-9" x1="3320.18" y1="4286.01" x2="3291.86" y2="4332.5"/><path class="cls-1" d="M3079,3654.59q.45,11.22.92,22.44a76,76,0,0,0,1.22,12.61c1.71,8.07,6,15.34,10.21,22.44.3.5.66,1.05,1.24,1.15.84.16,1.47-.71,1.85-1.48,2.51-5.17,3.25-11,3.61-16.77a150,150,0,0,0-2.22-36.82c-.64-3.41-1.44-6.91-3.52-9.68C3085.29,3639.18,3078.59,3645.39,3079,3654.59Z"/><path class="cls-1" d="M3125.05,3790.29v-.07l-.56-5.49,78.34-44.67s.27,28.17,1.54,43.81c0,0-32.53,37.21-76.5,34.23l-.63-6.09Z"/><path class="cls-1" d="M3083.67,3675.36c0,4.47.26,8.94.66,13.35.59,7.15,1.59,14.1,2.68,20.56,2.09,12.38,4.64,22.91,5.76,29.37.86,4.93,1.95,13.14,4.64,21.62,4.3,13.8,12.74,28.34,30.89,30.79,29.3,3.94,66.48-28.18,71-37.18s13-56.35,12.42-79.47-13.54-58.6-51.29-67.08-58.6,16.92-58.6,16.92-16.92,16.92-18,44.54C3083.67,3671,3083.63,3673.15,3083.67,3675.36Z"/><path class="cls-1" d="M3210.45,3707.58a32.61,32.61,0,0,1-19.23-37.18c.33-1.5.77-3.1.2-4.53-.66-1.68-2.47-2.55-4.08-3.38-7.53-3.91-13.8-10.63-16.17-18.78s-.41-17.68,5.72-23.55c3.55-3.4,8.16-5.42,12.68-7.37,7.56-3.27,15.76-6.61,23.8-4.83a21.42,21.42,0,0,1,14.87,12.88c4.29,10.72-.13,23,1.75,34.37,1.19,7.23,4.91,14.05,4.8,21.38-.09,5.92-2.72,11.58-6.34,16.27s-8.18,8.55-12.7,12.37a8.34,8.34,0,0,1-3.39,2c-2.56.56-4.94-1.34-6.88-3.11"/><path class="cls-1" d="M3197.61,3706.52s21.13-20.71,33.81-5.49-5.21,48.32-31.7,38.88Z"/><path class="cls-1" d="M3156.8,3648c-11.26.6-21.6-8.42-32.78-6.95-3.5.47-6.77,1.94-10,3.31-7.11,3-14.67,5.63-22.36,5.05-13.49-1-25.19-13.28-25.61-26.8-.19-6.29,1.76-12.46,4.25-18.24a27.1,27.1,0,0,1,5.12-8.41c2.88-2.92,6.83-4.63,9.67-7.59,3.38-3.52,4.86-8.48,8-12.24,6.64-8,18.82-8.68,29-6.34s19.92,7,30.33,7.17c4.65.08,9.27-.72,13.92-.73a41,41,0,0,1,29.87,13.09c5.19,5.66,8.78,13.94,5.77,21-4.06,9.53-16.47,12.75-23,20.25C3172.46,3637.85,3167.84,3647.38,3156.8,3648Z"/><path class="cls-1" d="M3202,3718.45c-.71,1.61-1.7,3.38-3.42,3.73-2.65.53-4.46-2.57-5.28-5.15a107.14,107.14,0,0,1-2.85-53.32c.5-2.46,1.66-5.42,4.16-5.58a5,5,0,0,1,2.41.61c6.74,3.13,10.86,10.32,12.23,17.62C3211.88,3690.24,3207.66,3705.81,3202,3718.45Z"/><path class="cls-1" d="M3164.71,3680.44a4,4,0,0,1-.07,4.09c-1.14,1.57-3.41,1.66-5.35,1.6l-14.63-.49a17,17,0,0,1-5.32-.74c-8.9-3.25-.1-13.75,5.91-14.57S3162,3675.14,3164.71,3680.44Z"/><path class="cls-1" d="M3083.67,3675.36c0,4.47.26,8.94.66,13.35,3.28-.1,6.59-.23,9.9-.33a16.06,16.06,0,0,0,5.3-.73c8.9-3.25.09-13.74-5.9-14.57C3090.88,3672.72,3087.14,3673.68,3083.67,3675.36Z"/><path class="cls-1" d="M3140.41,3698.56a4.72,4.72,0,1,0,4.72-4.72A4.72,4.72,0,0,0,3140.41,3698.56Z"/><path class="cls-1" d="M3095,3701.1a4.72,4.72,0,1,0,4.72-4.72A4.72,4.72,0,0,0,3095,3701.1Z"/><path class="cls-7" d="M3153.09,3741s-16.43,20.78-37.47,11.55"/><path class="cls-7" d="M3147.18,3755.08s-12.06,10.27-22.32,5.39"/><path class="cls-6" d="M3203.1,3771.61s-22.82,28.32-45.65,33-30.85-.84-30.85-.84l-1.27-11.84s-11-1.27-15.22,4.65-3.8,22-3.8,22-37.2,82.42-39.73,123.42,6.34,135.68,5.49,180.06,2.54,130.18,10.57,136.95,55.37-5.08,75.24-3.81,131.45,19.44,137.79,2.12,6.34-284,8-309-3.81-104.82-10.15-111.59-76.08-38-77.34-38S3225.5,3774.15,3203.1,3771.61Z"/><path class="cls-6" d="M3106.31,3818.53s-22.68,12.54-31.7,31.7-31,63.68-33.25,138.64,7.33,207.39,7.89,229.93,6.76,53.54,6.76,53.54l36.07,2.25Z"/><path class="cls-6" d="M3275.8,3826.56s42.27,13.53,54.1,54.1,67.63,195.28,67.63,220.64-51.56,142-51.56,142l-48.19-6.77s4.23-125.95-2.53-150.47-50.73-143.71-48.19-183.44S3275.8,3826.56,3275.8,3826.56Z"/><polyline class="cls-9" points="3251.29 3945.75 3300.32 4075.94 3296.65 4234.58"/><path class="cls-9" d="M3347.38,4085.24s-24.24-13-47.06-9.3"/><line class="cls-9" x1="3349.63" y1="4234.02" x2="3297.22" y2="4225"/><path class="cls-9" d="M3207.75,3819.37s-24.94,14.8-43.53,16.91"/><path class="cls-9" d="M3106.31,3818.53s11.83,10.57,23.25,14.79"/></svg>