<svg xmlns="http://www.w3.org/2000/svg" xmlns:xlink="http://www.w3.org/1999/xlink" viewBox="0 0 1251.059 1249.929"><defs><style>.cls-1{isolation:isolate;}.cls-2{fill:#1a50a7;}.cls-10,.cls-11,.cls-3{fill:#00dbfa;}.cls-19,.cls-4,.cls-7{opacity:0.15;}.cls-21,.cls-23,.cls-24,.cls-27,.cls-4{mix-blend-mode:multiply;}.cls-12,.cls-13,.cls-5,.cls-6,.cls-9{fill:none;}.cls-10,.cls-11,.cls-12,.cls-13,.cls-5,.cls-6,.cls-9{stroke:#00dbfa;}.cls-10,.cls-11,.cls-13,.cls-5,.cls-6,.cls-9{stroke-miterlimit:10;}.cls-5{stroke-width:2px;}.cls-8{fill:#fff;}.cls-12,.cls-9{stroke-width:0.75px;}.cls-10{stroke-width:0.5px;}.cls-11{stroke-width:0.25px;}.cls-12{stroke-linecap:round;stroke-linejoin:round;}.cls-13{stroke-width:1.25px;}.cls-14{fill:#00eefd;}.cls-15{fill:url(#Degradado_sin_nombre_3);}.cls-16{fill:url(#Degradado_sin_nombre_3-2);}.cls-17{fill:url(#Degradado_sin_nombre_3-3);}.cls-18{fill:url(#Degradado_sin_nombre_3-4);}.cls-19{fill:#cd86f2;}.cls-20{fill:url(#linear-gradient);}.cls-21,.cls-24{opacity:0.3;}.cls-21{fill:url(#linear-gradient-2);}.cls-22{fill:url(#linear-gradient-3);}.cls-23,.cls-27{opacity:0.5;}.cls-23{fill:url(#linear-gradient-4);}.cls-24{fill:url(#linear-gradient-5);}.cls-25{fill:url(#linear-gradient-6);}.cls-26{fill:url(#linear-gradient-7);}.cls-27{fill:url(#linear-gradient-8);}</style><linearGradient id="Degradado_sin_nombre_3" x1="762.973" y1="460.989" x2="819.454" y2="460.989" gradientTransform="matrix(1.012, 0.186, 0.186, 1.012, -114.494, -132.714)" gradientUnits="userSpaceOnUse"><stop offset="0.826" stop-color="#00b1dc"/><stop offset="0.944" stop-color="#00b1dc"/></linearGradient><linearGradient id="Degradado_sin_nombre_3-2" x1="416.601" y1="807.36" x2="473.083" y2="807.36" xlink:href="#Degradado_sin_nombre_3"/><linearGradient id="Degradado_sin_nombre_3-3" x1="386.678" y1="897.308" x2="443.16" y2="897.308" gradientTransform="matrix(-0.186, 1.012, -1.012, 0.186, 1469.476, -102.713)" xlink:href="#Degradado_sin_nombre_3"/><linearGradient id="Degradado_sin_nombre_3-4" x1="731.122" y1="556.051" x2="787.604" y2="556.051" gradientTransform="matrix(-0.186, 1.012, -1.012, 0.186, 1469.476, -102.713)" xlink:href="#Degradado_sin_nombre_3"/><linearGradient id="linear-gradient" x1="623.139" y1="587.503" x2="675.2" y2="587.503" gradientUnits="userSpaceOnUse"><stop offset="0" stop-color="#f4c551"/><stop offset="1" stop-color="#f9e664"/></linearGradient><linearGradient id="linear-gradient-2" x1="637.5" y1="547.563" x2="650.396" y2="646.839" xlink:href="#linear-gradient"/><linearGradient id="linear-gradient-3" x1="610.049" y1="523.126" x2="595.693" y2="649.896" xlink:href="#linear-gradient"/><linearGradient id="linear-gradient-4" x1="638.558" y1="574.706" x2="651.697" y2="652.326" xlink:href="#linear-gradient"/><linearGradient id="linear-gradient-5" x1="609.818" y1="569.741" x2="594.002" y2="653.931" xlink:href="#linear-gradient"/><linearGradient id="linear-gradient-6" x1="603.248" y1="743.458" x2="597.651" y2="655.133" xlink:href="#linear-gradient"/><linearGradient id="linear-gradient-7" x1="623.139" y1="679.734" x2="675.2" y2="679.734" xlink:href="#linear-gradient"/><linearGradient id="linear-gradient-8" x1="635.369" y1="728.319" x2="651.914" y2="630.261" xlink:href="#linear-gradient"/></defs><g class="cls-1"><g id="Layer_1" data-name="Layer 1"><path class="cls-2" d="M672.17,226.01,735.923,164.7V98.373a17.526,17.526,0,1,0-5.9,0v63.818l-63.753,61.3V363.068h-5.228v80.276H677.4V363.068H672.17ZM721.349,81.117a11.622,11.622,0,1,1,11.622,11.62A11.633,11.633,0,0,1,721.349,81.117Z" transform="translate(1.059 -0.036)"/><path class="cls-2" d="M585,223.5l-63.753-61.3V98.373a17.524,17.524,0,1,0-5.9,0V164.7L579.1,226.01V363.068h-5.228v80.276h16.36V363.068H585ZM506.674,81.117a11.621,11.621,0,1,1,11.62,11.62A11.632,11.632,0,0,1,506.674,81.117Z" transform="translate(1.059 -0.036)"/><path class="cls-2" d="M625.633.036a17.516,17.516,0,0,0-2.953,34.782v328.25h-5.227v80.276h16.36V363.068h-5.228V34.818A17.515,17.515,0,0,0,625.633.036Zm0,29.146A11.621,11.621,0,1,1,637.254,17.56,11.635,11.635,0,0,1,625.633,29.182Z" transform="translate(1.059 -0.036)"/><path class="cls-2" d="M793.78,204.225a17.5,17.5,0,0,0-14.216,27.736l-69.441,67.931v63.176h-5.5v80.276h16.359V363.068h-4.956V302.377l67.737-66.266a17.518,17.518,0,1,0,10.016-31.886Zm0,29.146a11.621,11.621,0,1,1,11.618-11.62A11.633,11.633,0,0,1,793.78,233.371Z" transform="translate(1.059 -0.036)"/><path class="cls-2" d="M541.415,299.892l-69.442-67.93a17.537,17.537,0,1,0-4.2,4.15l67.738,66.265v60.691h-5.228v80.276h16.36V363.068h-5.227Zm-83.657-66.521a11.621,11.621,0,1,1,11.621-11.62A11.632,11.632,0,0,1,457.758,233.371Z" transform="translate(1.059 -0.036)"/><rect class="cls-3" x="498.332" y="395.005" width="80.276" height="16.36" transform="translate(136.344 941.618) rotate(-90)"/><rect class="cls-3" x="541.917" y="395.005" width="80.276" height="16.36" transform="translate(179.929 985.203) rotate(-90)"/><rect class="cls-3" x="585.502" y="395.005" width="80.276" height="16.36" transform="translate(223.515 1028.789) rotate(-90)"/><rect class="cls-3" x="629.088" y="395.005" width="80.276" height="16.36" transform="translate(267.1 1072.374) rotate(-90)"/><rect class="cls-3" x="672.673" y="395.005" width="80.276" height="16.36" transform="translate(310.685 1115.96) rotate(-90)"/><path class="cls-2" d="M361.973,545.873h80.276V529.514H361.973v5.227H301.282L235.017,467a17.623,17.623,0,1,0-4.151,4.2L298.8,540.645h63.176Zm-129.7-88.883a11.621,11.621,0,1,1-11.622-11.62A11.634,11.634,0,0,1,232.277,456.99Z" transform="translate(1.059 -0.036)"/><path class="cls-2" d="M361.973,589.459h80.276V573.1H361.973v5.227H224.916l-61.308-63.752H97.278a17.526,17.526,0,1,0,0,5.9H161.1L222.4,584.231H361.973ZM91.642,517.526a11.62,11.62,0,1,1-11.621-11.62A11.634,11.634,0,0,1,91.642,517.526Z" transform="translate(1.059 -0.036)"/><path class="cls-2" d="M62.5,732.2a17.515,17.515,0,0,0,34.78,2.952h66.33L224.916,671.4H361.973v5.227h80.276V660.27H361.973V665.5H222.4L161.1,729.251H97.278A17.514,17.514,0,0,0,62.5,732.2Zm5.9,0a11.62,11.62,0,1,1,11.619,11.618A11.633,11.633,0,0,1,68.4,732.2Z" transform="translate(1.059 -0.036)"/><path class="cls-2" d="M-1.059,624.864a17.515,17.515,0,0,0,34.781,2.953H361.973v5.227h80.276v-16.36H361.973v5.228H33.722a17.515,17.515,0,0,0-34.781,2.952Zm5.905,0a11.62,11.62,0,1,1,11.621,11.622A11.632,11.632,0,0,1,4.846,624.864Z" transform="translate(1.059 -0.036)"/><path class="cls-2" d="M203.132,793.009A17.525,17.525,0,1,0,235.017,783l66.265-67.737h60.691v4.956h80.276v-16.36H361.973v5.5H298.8L230.866,778.8a17.494,17.494,0,0,0-27.734,14.213Zm5.9,0a11.621,11.621,0,1,1,11.619,11.621A11.633,11.633,0,0,1,209.036,793.009Z" transform="translate(1.059 -0.036)"/><rect class="cls-3" x="362.822" y="529.478" width="80.276" height="16.36"/><rect class="cls-3" x="362.822" y="573.063" width="80.276" height="16.36"/><rect class="cls-3" x="362.822" y="616.649" width="80.276" height="16.36"/><rect class="cls-3" x="362.822" y="660.234" width="80.276" height="16.36"/><rect class="cls-3" x="362.822" y="703.82" width="80.276" height="16.36"/><path class="cls-2" d="M886.968,540.645h63.176l67.931-69.441a17.528,17.528,0,1,0-4.151-4.2l-66.265,67.737H886.968v-5.227H806.692v16.359h80.276Zm141.318-95.275a11.62,11.62,0,1,1-11.622,11.62A11.633,11.633,0,0,1,1028.286,445.37Z" transform="translate(1.059 -0.036)"/><path class="cls-2" d="M886.968,584.231h139.571l61.308-63.753h63.816a17.524,17.524,0,1,0,0-5.9h-66.331l-61.307,63.752H886.968V573.1H806.692v16.36h80.276Zm281.952-78.325a11.621,11.621,0,1,1-11.621,11.62A11.633,11.633,0,0,1,1168.92,505.906Z" transform="translate(1.059 -0.036)"/><path class="cls-2" d="M1168.92,714.677a17.539,17.539,0,0,0-17.257,14.574h-63.816L1026.539,665.5H886.968V660.27H806.692v16.36h80.276V671.4h137.057l61.307,63.752h66.331a17.517,17.517,0,1,0,17.257-20.478Zm0,29.144a11.62,11.62,0,1,1,11.619-11.618A11.632,11.632,0,0,1,1168.92,743.821Z" transform="translate(1.059 -0.036)"/><path class="cls-2" d="M1232.474,607.34a17.54,17.54,0,0,0-17.255,14.572H886.968v-5.228H806.692v16.36h80.276v-5.227h328.251a17.516,17.516,0,1,0,17.255-20.477Zm0,29.146a11.621,11.621,0,1,1,11.622-11.622A11.634,11.634,0,0,1,1232.474,636.486Z" transform="translate(1.059 -0.036)"/><path class="cls-2" d="M1028.286,775.486a17.411,17.411,0,0,0-10.211,3.31l-67.931-69.441H886.968v-5.5H806.692v16.36h80.276v-4.956h60.691L1013.924,783a17.511,17.511,0,1,0,14.362-7.51Zm0,29.144a11.62,11.62,0,1,1,11.619-11.621A11.634,11.634,0,0,1,1028.286,804.63Z" transform="translate(1.059 -0.036)"/><rect class="cls-3" x="807.751" y="529.478" width="80.276" height="16.36"/><rect class="cls-3" x="807.751" y="573.063" width="80.276" height="16.36"/><rect class="cls-3" x="807.751" y="616.649" width="80.276" height="16.36"/><rect class="cls-3" x="807.751" y="660.234" width="80.276" height="16.36"/><rect class="cls-3" x="807.751" y="703.82" width="80.276" height="16.36"/><path class="cls-2" d="M672.17,886.932H677.4V806.656h-16.36v80.276h5.228v139.573l63.753,61.3v63.818a17.526,17.526,0,1,0,5.9,0V1085.3L672.17,1023.99Zm60.8,270.331a11.62,11.62,0,1,1-11.622,11.62A11.633,11.633,0,0,1,732.971,1157.263Z" transform="translate(1.059 -0.036)"/><path class="cls-2" d="M585,886.932h5.228V806.656h-16.36v80.276H579.1V1023.99L515.342,1085.3v66.332a17.526,17.526,0,1,0,5.9,0v-63.818l63.753-61.3Zm-66.705,270.331a11.62,11.62,0,1,1-11.62,11.62A11.635,11.635,0,0,1,518.294,1157.263Z" transform="translate(1.059 -0.036)"/><path class="cls-2" d="M643.158,1232.44a17.54,17.54,0,0,0-14.573-17.258V886.932h5.228V806.656h-16.36v80.276h5.227v328.25a17.517,17.517,0,1,0,20.478,17.258Zm-5.9,0a11.621,11.621,0,1,1-11.621-11.622A11.633,11.633,0,0,1,637.254,1232.44Z" transform="translate(1.059 -0.036)"/><path class="cls-2" d="M811.3,1028.249a17.5,17.5,0,0,0-27.539-14.361l-67.737-66.265V886.932h4.956V806.656H704.624v80.276h5.5v63.176l69.441,67.931a17.515,17.515,0,1,0,31.739,10.21Zm-5.9,0a11.62,11.62,0,1,1-11.618-11.62A11.633,11.633,0,0,1,805.4,1028.249Z" transform="translate(1.059 -0.036)"/><path class="cls-2" d="M541.415,886.932h5.227V806.656h-16.36v80.276h5.228v60.691l-67.738,66.265a17.618,17.618,0,1,0,4.2,4.15l69.442-67.93Zm-72.036,141.317a11.621,11.621,0,1,1-11.621-11.62A11.635,11.635,0,0,1,469.379,1028.249Z" transform="translate(1.059 -0.036)"/><rect class="cls-3" x="498.332" y="838.614" width="80.276" height="16.36" transform="translate(-307.266 1385.228) rotate(-90)"/><rect class="cls-3" x="541.917" y="838.614" width="80.276" height="16.36" transform="translate(-263.681 1428.813) rotate(-90)"/><rect class="cls-3" x="585.502" y="838.614" width="80.276" height="16.36" transform="translate(-220.095 1472.398) rotate(-90)"/><rect class="cls-3" x="629.088" y="838.614" width="80.276" height="16.36" transform="translate(-176.51 1515.984) rotate(-90)"/><rect class="cls-3" x="672.673" y="838.614" width="80.276" height="16.36" transform="translate(-132.924 1559.569) rotate(-90)"/><path class="cls-3" d="M861.7,449.123a59.727,59.727,0,1,1,59.734-59.881A59.772,59.772,0,0,1,861.7,449.123Zm42.381-57.477c-3.967,0-7.934.017-11.9-.015-.7-.006-.906.169-.93.9a110.8,110.8,0,0,1-3,23.445c-.185.737-.009.91.749.907q9.883-.045,19.767,0a1.319,1.319,0,0,0,1.342-.809,58.787,58.787,0,0,0,3.557-7.829,56.005,56.005,0,0,0,3.216-15.523c.055-.912-.242-1.1-1.1-1.091C911.882,391.672,907.979,391.648,904.076,391.646Zm-84.724,0c-3.87,0-7.741-.007-11.612,0-1.306,0-1.253-.24-1.164,1.242a54.869,54.869,0,0,0,6.866,23.427c.3.542.7.547,1.193.547,6.589,0,13.178-.02,19.767.017.88,0,.918-.3.743-1a110.581,110.581,0,0,1-2.964-23.255c-.026-.793-.228-1.012-1.024-1C827.223,391.668,823.287,391.645,819.352,391.647Zm84.74-4.515c3.936,0,7.872-.022,11.808.019.8.008,1.019-.2.974-1.011a55.636,55.636,0,0,0-5.609-21.256,1.006,1.006,0,0,0-1.06-.613q-10.312.016-20.626-.008c-.811,0-.9.3-.751.977a115.95,115.95,0,0,1,2.416,21.026c.022.743.26.887.944.881C896.156,387.117,900.124,387.132,904.092,387.132Zm-84.787,0c4,0,8-.008,12,.009.564,0,.847-.073.866-.759a116.456,116.456,0,0,1,2.43-21.219c.144-.673-.023-.9-.735-.9-6.267.016-12.538.111-18.8-.063-2.127-.059-3.289.578-3.752,2.59a1.01,1.01,0,0,1-.082.173,54.07,54.07,0,0,0-4.7,19.251c-.047.806.234.94.959.933C811.432,387.114,815.368,387.132,819.305,387.133Zm44.658,17.15q0,5.662,0,11.325c0,1.254,0,1.255,1.212,1.255,5.694,0,11.389-.019,17.083.021.86.006,1.206-.234,1.413-1.087A105.368,105.368,0,0,0,886.7,394c.022-.752.406-1.726-.1-2.205s-1.466-.141-2.227-.143c-6.494-.011-12.989.017-19.483-.035-.839-.007-.939.263-.935.958C863.974,396.477,863.963,400.379,863.963,404.283Zm-4.508-.084c0-3.935-.007-7.87.009-11.805,0-.474-.009-.76-.627-.759q-10.747.027-21.5,0c-.548,0-.7.171-.688.72a107.659,107.659,0,0,0,3.117,23.52,1.1,1.1,0,0,0,1.284,1.009q8.733-.06,17.466-.005c.784,0,.956-.241.95-.974C859.438,412,859.454,408.1,859.455,404.2Zm-.006-28.366h0c0-3.551-.009-7.1.009-10.652,0-.607-.087-.922-.823-.919q-9.211.042-18.424,0a.828.828,0,0,0-.966.774,109.66,109.66,0,0,0-2.6,21.28c-.012.629.131.849.778.827,1.246-.044,2.5-.013,3.742-.013,5.79,0,11.58-.01,17.37.015.734,0,.949-.149.935-.952C859.412,382.743,859.449,379.287,859.449,375.833Zm15.9,11.3c3.49,0,6.98-.018,10.47.016.747.007.963-.178.946-.963a110.123,110.123,0,0,0-2.585-21.109.877.877,0,0,0-1.035-.813q-9.124.035-18.25,0c-.685,0-.951.149-.947.9q.043,10.566.01,21.131c0,.655.124.865.826.857C868.305,387.111,871.827,387.134,875.349,387.132ZM848.22,335.978a54.706,54.706,0,0,0-33.146,23.763c.329.043.447.072.566.072,6.528,0,13.055-.008,19.582.02.656,0,.8-.335.933-.826a66.835,66.835,0,0,1,2.7-7.883,48.857,48.857,0,0,1,7.732-13.288C847.119,337.207,847.674,336.6,848.22,335.978Zm59.91,23.873.108-.3a55.762,55.762,0,0,0-33.028-23.785,1.6,1.6,0,0,0,.552.871,39.827,39.827,0,0,1,6.129,8.773,63.314,63.314,0,0,1,5.248,13.24c.239.877.583,1.208,1.542,1.192,3.452-.057,6.906,0,10.359.007C902.07,359.856,905.1,359.851,908.13,359.851Zm-48.677-12.685V335.94c0-1.712-.009-1.735-1.649-1.116a19.335,19.335,0,0,0-8.316,6.566c-4.148,5.286-6.645,11.384-8.661,17.719-.226.709.08.716.618.715,5.725-.011,11.45-.019,17.175.008.682,0,.853-.2.848-.864C859.44,355.034,859.454,351.1,859.453,347.166Zm4.514-.054h0c0,3.966.011,7.932-.012,11.9,0,.607.142.825.792.822q8.635-.038,17.271,0c.646,0,.775-.165.558-.759-.625-1.707-1.142-3.45-1.8-5.149a45.373,45.373,0,0,0-7.849-13.741,17.69,17.69,0,0,0-7.989-5.58c-.763-.241-.989-.127-.981.711C863.987,339.243,863.967,343.178,863.967,347.112Zm-47.324,74.171a51.992,51.992,0,0,0,11.463,11.972,53.9,53.9,0,0,0,20.108,9.709,2.683,2.683,0,0,0-.713-.98,36.49,36.49,0,0,1-4.424-5.894,58.508,58.508,0,0,1-6.167-13.984,1.009,1.009,0,0,0-1.162-.842c-4.923.141-9.847.127-14.771.023C819.616,421.259,818.255,421.283,816.643,421.283ZM875,443.056a55.933,55.933,0,0,0,31.785-21.7H899.6c-4.029,0-8.058.008-12.087-.015a.827.827,0,0,0-.926.717,66.83,66.83,0,0,1-2.382,6.47,51.718,51.718,0,0,1-5.976,10.683C877.284,440.483,876.19,441.635,875,443.056Zm-15.547-10.15h0q0-5.325,0-10.651c0-.5.054-.922-.708-.918-5.534.027-11.067.018-16.6,0-.592,0-.73.179-.515.734.5,1.281.914,2.591,1.436,3.86,2.13,5.174,4.723,10.07,8.752,14.061a16.266,16.266,0,0,0,6.763,4.212c.7.212.885.073.879-.652C859.435,440.007,859.45,436.456,859.45,432.906Zm4.516-.085c0,3.55.022,7.1-.017,10.651-.009.849.235.945.987.708a17.549,17.549,0,0,0,7.922-5.51c4.2-4.8,6.8-10.465,8.874-16.419.271-.776.084-.917-.668-.914q-8.109.035-16.216,0c-.739,0-.9.239-.9.934C863.985,425.784,863.967,429.3,863.966,432.821Z" transform="translate(1.059 -0.036)"/><g class="cls-4"><path d="M906.762,287.634l56.546,56.546v90.434l-56.546,56.545H816.328l-56.547-56.545V344.18l56.547-56.546h90.434m1.656-4H814.671l-1.172,1.171-56.546,56.546-1.172,1.172V436.27l1.172,1.172L813.5,493.988l1.172,1.171h93.747l1.172-1.171,56.546-56.546,1.172-1.172V342.523l-1.172-1.172L909.59,284.805l-1.172-1.171Z" transform="translate(1.059 -0.036)"/></g><polygon class="cls-5" points="907.821 287.598 817.387 287.598 760.84 344.144 760.84 434.578 817.387 491.124 907.821 491.124 964.367 434.578 964.367 344.144 907.821 287.598"/><polygon class="cls-6" points="900.993 302.963 824.214 302.963 776.206 350.971 776.206 427.75 824.214 475.758 900.993 475.758 949.001 427.75 949.001 350.971 900.993 302.963"/><g class="cls-7"><rect class="cls-8" x="840.082" y="275.11" width="22.819" height="207.83" transform="translate(518.474 -491.12) rotate(45.001)"/><rect class="cls-8" x="866.973" y="297.231" width="13.279" height="207.83" transform="translate(1208.742 1302.506) rotate(-134.999)"/></g><g class="cls-4"><path d="M439.977,287.634l56.546,56.546v90.434l-56.546,56.545H349.543L293,434.614V344.18l56.546-56.546h90.434m1.657-4H347.887l-1.172,1.171-56.546,56.546L289,342.523V436.27l1.172,1.172,56.546,56.546,1.172,1.171h93.747l1.172-1.171,56.546-56.546,1.171-1.172V342.523l-1.171-1.172-56.546-56.546-1.172-1.171Z" transform="translate(1.059 -0.036)"/></g><polygon class="cls-5" points="441.036 287.598 350.602 287.598 294.056 344.144 294.056 434.578 350.602 491.124 441.036 491.124 497.582 434.578 497.582 344.144 441.036 287.598"/><polygon class="cls-6" points="434.209 302.963 357.43 302.963 309.421 350.971 309.421 427.75 357.43 475.758 434.209 475.758 482.217 427.75 482.217 350.971 434.209 302.963"/><path class="cls-6" d="M412.178,426.316v17.6a9.351,9.351,0,0,1-9.151,9.329H388.3a9.534,9.534,0,0,1-4.487-1.24,9.418,9.418,0,0,1-4.635-7.322c0-.265-.03-.5-.03-.767V426.877a51.736,51.736,0,0,0,14.938,1.949c.532.029,1.034.029,1.535.029v-.029h.059A55.413,55.413,0,0,0,412.178,426.316Z" transform="translate(1.059 -0.036)"/><path class="cls-9" d="M401.9,453.241v2.151a6.241,6.241,0,0,1-12.481,0v-2.151Z" transform="translate(1.059 -0.036)"/><path class="cls-10" d="M388.8,317.175v1.519a11.1,11.1,0,0,1,5.3,1.041c.054,26.77.068,81.467.007,107.593-5.658-.077-12.5-.627-18.129-3.339-7.1-3.418-10.857-9.491-11.491-18.567l-.092-1.305-1.305-.1c-6.131-.483-11.094-2.176-14.751-5.031-3.91-3.047-6.524-7.571-7.767-13.447a20.126,20.126,0,0,1,1.582-12.723l.072-.16c.17-.364.341-.71.521-1.055A23.075,23.075,0,0,1,353,361.826l1.257-.662-.576-1.3c-2.808-6.333-2.514-11.473.926-16.174,2.868-3.918,6.837-5.822,12.132-5.822a26.156,26.156,0,0,1,3.058.189l1.843.218-.15-1.85c-.413-5.085.817-9.226,3.657-12.305,3.688-4,9.471-5.427,13.653-5.427l0-1.519m6.819,2.743V319a2.63,2.63,0,0,0-.826-.62,12.475,12.475,0,0,0-5.993-1.21c-8.148,0-20.016,4.753-18.835,19.366a30.246,30.246,0,0,0-3.218-.177c-5.373,0-9.979,1.8-13.374,6.436-4.045,5.521-3.838,11.455-1.092,17.684A24.645,24.645,0,0,0,341.384,370.9c-.207.413-.413.857-.62,1.27a22.433,22.433,0,0,0-2.126,9.388,21.3,21.3,0,0,0,.443,4.28c1.358,6.407,4.192,11.13,8.326,14.348,4.015,3.13,9.27,4.842,15.558,5.344.915,12.99,8.03,18.776,16.178,21.344a51.736,51.736,0,0,0,14.938,1.949c.532.029,1.034.029,1.535.029v-5.284C395.675,396.2,395.675,345.042,395.616,319.918Z" transform="translate(1.059 -0.036)"/><path class="cls-10" d="M434.7,334.561a54.874,54.874,0,0,0-39.029-16.178h-1.594v1.535c.059,25.153.089,77.053.03,103.653v3.749l-.03,1.506h1.594a55.153,55.153,0,0,0,55.207-55.207A54.769,54.769,0,0,0,434.7,334.561Zm-22.526,90.162a53.512,53.512,0,0,1-16.5,2.6h-.059v-3.749c.059-27.367.059-78.529,0-103.653h.059a53.7,53.7,0,0,1,16.5,104.805Z" transform="translate(1.059 -0.036)"/><path class="cls-9" d="M412.167,426.28v8.674l-32.981,9.722c-.02-.248-.03-.5-.03-.754v-7.905Z" transform="translate(1.059 -0.036)"/><line class="cls-9" x1="413.226" y1="443.593" x2="384.879" y2="451.953"/><path class="cls-10" d="M369.013,375.124a.76.76,0,0,1-.751-.651c-1.753-12.139-14.606-12.827-15.153-12.85a.759.759,0,0,1-.726-.791.744.744,0,0,1,.789-.727c.147.006,14.658.752,16.594,14.151a.76.76,0,0,1-.643.86A.826.826,0,0,1,369.013,375.124Z" transform="translate(1.059 -0.036)"/><path class="cls-10" d="M384.141,349.352l-.063,0c-13.939-1.143-14.1-13.817-14.1-13.945a.76.76,0,0,1,1.519,0h0c0,.465.182,11.405,12.706,12.431a.76.76,0,0,1-.062,1.517ZM371.5,335.405h0Z" transform="translate(1.059 -0.036)"/><path class="cls-11" d="M364.361,410.548a.758.758,0,0,1-.733-.564c-.085-.316-2.022-7.808,1.517-13.881a14.3,14.3,0,0,1,9.208-6.554.76.76,0,0,1,.384,1.47,12.839,12.839,0,0,0-8.274,5.84c-3.223,5.52-1.386,12.663-1.367,12.735a.759.759,0,0,1-.54.928A.775.775,0,0,1,364.361,410.548Z" transform="translate(1.059 -0.036)"/><path class="cls-10" d="M380.392,379.088a.783.783,0,0,1-.108-.007.76.76,0,0,1-.645-.859c2.222-15.556-8.8-21.979-9.274-22.244a.76.76,0,0,1,.745-1.325c.124.07,12.406,7.17,10.033,23.783A.759.759,0,0,1,380.392,379.088Z" transform="translate(1.059 -0.036)"/><path class="cls-10" d="M375.76,411.034a.76.76,0,0,1-.456-1.368c8.537-6.4,6.341-14.774,6.243-15.127a.76.76,0,0,1,1.463-.41c.027.1,2.6,9.708-6.794,16.753A.762.762,0,0,1,375.76,411.034Z" transform="translate(1.059 -0.036)"/><path class="cls-11" d="M353.573,391.8a.76.76,0,0,1-.633-.339c-.055-.083-5.452-8.443,1.325-18.029a.759.759,0,1,1,1.24.877c-6.159,8.714-1.5,16.007-1.3,16.313a.76.76,0,0,1-.216,1.052A.749.749,0,0,1,353.573,391.8Z" transform="translate(1.059 -0.036)"/><path class="cls-10" d="M402.081,427.32c0-.373-.4-34.766-.083-48.791-.293.01-.588.013-.89.01-2.549-.027-5.814,0-5.846,0l-.013-1.519c.033,0,3.312-.026,5.875,0,.307,0,.612,0,.913-.013.014-.464.028-.9.044-1.294.271-6.787,2.571-9.088,4.786-10.443,2.416-1.479,5.093-1.338,6.819.357,1.771,1.741,1.958,4.492.478,7.009s-5.337,5.19-10.644,5.783c-.317,13.884.075,48.509.08,48.883Zm8.146-61.558a4.932,4.932,0,0,0-2.567.8c-1.872,1.146-3.819,3.136-4.061,9.208-.013.344-.026.714-.039,1.107,4.512-.572,7.988-2.793,9.294-5.014,1.116-1.9,1.024-3.92-.233-5.155A3.387,3.387,0,0,0,410.227,365.762Z" transform="translate(1.059 -0.036)"/><path class="cls-12" d="M435.268,354.431a36.49,36.49,0,0,0-17.177-18.026" transform="translate(1.059 -0.036)"/><path class="cls-12" d="M438.229,368.821a36.517,36.517,0,0,0-.787-7.568" transform="translate(1.059 -0.036)"/><g class="cls-7"><rect class="cls-8" x="373.298" y="275.11" width="22.819" height="207.829" transform="translate(381.753 -161.051) rotate(45.001)"/><rect class="cls-8" x="400.188" y="297.231" width="13.28" height="207.83" transform="translate(411.905 972.434) rotate(-135)"/></g><path class="cls-6" d="M905.2,849.883l-2.361,8.414,7.233,7.381-4.4,7.469-9.595-2.51-6.288,6.288,2.834,9.625-8.06,4.753-6.1-6.647a.47.47,0,0,0-.816.3l-.231,7.761v.029l-.059.03c-.531.5-5.668,4.812-14.938,3.69V788.506h3.985l2.716,10.717,7.853,2.509,7.587-7.853,8.06,4.99-2.834,9.86,6.17,6.052,9.477-2.745,4.871,8.679-7.115,6.524,1.89,8.414,9.978,2.362v9.152Z" transform="translate(1.059 -0.036)"/><path class="cls-6" d="M886.085,842.5a23.674,23.674,0,0,1-23.677,23.676V818.8A23.7,23.7,0,0,1,886.085,842.5Z" transform="translate(1.059 -0.036)"/><path class="cls-6" d="M862.39,892.72v3.749h-.029a53.123,53.123,0,0,1-7.233-.472c-1.978-.266-5.816-1.122-5.816-1.122s-2.775-.8-5.019-1.535c-.649-.207-1.27-.413-1.742-.62a53.988,53.988,0,0,1,19.81-104.214h.029C862.361,813.305,862.331,865.914,862.39,892.72Z" transform="translate(1.059 -0.036)"/><path class="cls-6" d="M877.476,892.72v20.459a9.336,9.336,0,0,1-9.359,9.329H853.652a9.173,9.173,0,0,1-4.665-1.24,9.338,9.338,0,0,1-4.665-7.351,6.28,6.28,0,0,1-.029-.738V893.34c2.244.738,5.019,1.535,5.019,1.535s3.838.856,5.816,1.122a53.123,53.123,0,0,0,7.233.472h.029V892.72h.03v3.749c9.27,1.122,14.407-3.188,14.938-3.69l.059-.03v-.029Z" transform="translate(1.059 -0.036)"/><path class="cls-6" d="M860.883,932.486h0a7.408,7.408,0,0,1-7.408-7.407V920.1H868.29v4.982A7.407,7.407,0,0,1,860.883,932.486Z" transform="translate(1.059 -0.036)"/><path class="cls-6" d="M877.473,895.433v8.719l-33.151,9.773c-.021-.249-.031-.5-.031-.758v-7.946Z" transform="translate(1.059 -0.036)"/><path class="cls-6" d="M877.473,904.152v8.72l-28.494,8.4a9.355,9.355,0,0,1-4.657-7.35Z" transform="translate(1.059 -0.036)"/><path class="cls-6" d="M861.29,846.682s-3.292-.027-5.891,0c-9.314.1-16.906-6.5-10.711-11.177,3.906-2.95,8.978.51,8.978,9.13V896.47" transform="translate(1.059 -0.036)"/><g class="cls-4"><path d="M906.507,758.733l56.546,56.546v90.434l-56.546,56.546H816.073l-56.546-56.546V815.279l56.546-56.546h90.434m1.657-4H814.417l-1.172,1.172L756.7,812.451l-1.172,1.172V907.37l1.172,1.172,56.546,56.546,1.172,1.171h93.747l1.171-1.171,56.547-56.546,1.171-1.172V813.623l-1.171-1.172-56.547-56.546-1.171-1.172Z" transform="translate(1.059 -0.036)"/></g><polygon class="cls-5" points="907.566 758.698 817.132 758.698 760.586 815.244 760.586 905.678 817.132 962.224 907.566 962.224 964.112 905.678 964.112 815.244 907.566 758.698"/><polygon class="cls-6" points="900.739 774.063 823.959 774.063 775.951 822.071 775.951 898.85 823.959 946.859 900.739 946.859 948.747 898.85 948.747 822.071 900.739 774.063"/><g class="cls-7"><rect class="cls-8" x="839.828" y="746.21" width="22.819" height="207.83" transform="translate(851.509 -352.955) rotate(45)"/><rect class="cls-8" x="866.718" y="768.331" width="13.28" height="207.83" transform="translate(875.204 2106.539) rotate(-135)"/></g><path class="cls-13" d="M470.069,875.88a22.225,22.225,0,0,1-22.23,22.231H414.006V883.97a2.406,2.406,0,0,1,2.391-2.421h7.883a2.393,2.393,0,0,0,1.771-4.015l-28.784-31.205a2.377,2.377,0,0,0-3.513,0L364.97,877.534a2.391,2.391,0,0,0,1.741,4.015h7.912a2.407,2.407,0,0,1,2.392,2.421v14.141H352.9a33.434,33.434,0,1,1,9.329-65.54,27.534,27.534,0,0,1-.561-5.668,28.132,28.132,0,0,1,56.211-1.771,28.9,28.9,0,0,1,6.022-.65,28.16,28.16,0,0,1,28.164,28.164c0,.473-.029.916-.059,1.388A22.219,22.219,0,0,1,470.069,875.88Z" transform="translate(1.059 -0.036)"/><path class="cls-13" d="M424.28,881.549H416.4a2.406,2.406,0,0,0-2.391,2.421v35.869a2.431,2.431,0,0,1-2.421,2.421H379.406a2.406,2.406,0,0,1-2.391-2.421V883.97a2.407,2.407,0,0,0-2.392-2.421h-7.912a2.391,2.391,0,0,1-1.741-4.015l28.784-31.205a2.377,2.377,0,0,1,3.513,0l28.784,31.205A2.393,2.393,0,0,1,424.28,881.549Z" transform="translate(1.059 -0.036)"/><g class="cls-4"><path d="M439.977,758.733l56.546,56.546v90.434l-56.546,56.546H349.543L293,905.713V815.279l56.546-56.546h90.434m1.657-4H347.887l-1.172,1.172-56.546,56.546L289,813.623V907.37l1.172,1.172,56.546,56.546,1.172,1.171h93.747l1.172-1.171,56.546-56.546,1.171-1.172V813.623l-1.171-1.172-56.546-56.546-1.172-1.172Z" transform="translate(1.059 -0.036)"/></g><polygon class="cls-5" points="441.036 758.698 350.602 758.698 294.056 815.244 294.056 905.678 350.602 962.224 441.036 962.224 497.582 905.678 497.582 815.244 441.036 758.698"/><polygon class="cls-6" points="434.209 774.063 357.43 774.063 309.421 822.071 309.421 898.85 357.43 946.859 434.209 946.859 482.217 898.85 482.217 822.071 434.209 774.063"/><g class="cls-7"><rect class="cls-8" x="373.298" y="746.21" width="22.819" height="207.829" transform="translate(714.866 -23.069) rotate(45)"/><rect class="cls-8" x="400.188" y="768.331" width="13.28" height="207.83" transform="translate(78.787 1776.652) rotate(-135)"/></g><g class="cls-4"><path d="M722.876,461.811l66.072,66.072V722.117l-66.072,66.072H528.641l-66.072-66.072V527.883l66.072-66.072H722.876m1.242-3H527.4l-.878.878-66.072,66.072-.879.879V723.36l.879.879,66.072,66.072.878.878h196.72l.879-.878,66.072-66.072.879-.879V526.64l-.879-.879L725,459.689l-.879-.878Z" transform="translate(1.059 -0.036)"/></g><path class="cls-3" d="M721.219,465.811l63.729,63.729V720.46l-63.729,63.729H530.3L466.569,720.46V529.54L530.3,465.811H721.219m1.657-4H528.641l-66.072,66.072V722.117l66.072,66.072H722.876l66.072-66.072V527.883l-66.072-66.072Z" transform="translate(1.059 -0.036)"/><path class="cls-3" d="M519.839,513.848A3.148,3.148,0,1,1,516.692,517a3.151,3.151,0,0,1,3.147-3.148m0-4A7.148,7.148,0,1,0,526.987,517a7.147,7.147,0,0,0-7.148-7.148Z" transform="translate(1.059 -0.036)"/><path class="cls-3" d="M731.677,513.848A3.148,3.148,0,1,1,728.529,517a3.15,3.15,0,0,1,3.148-3.148m0-4A7.148,7.148,0,1,0,738.824,517a7.148,7.148,0,0,0-7.147-7.148Z" transform="translate(1.059 -0.036)"/><path class="cls-3" d="M519.839,729.857A3.148,3.148,0,1,1,516.692,733a3.151,3.151,0,0,1,3.147-3.147m0-4A7.148,7.148,0,1,0,526.987,733a7.147,7.147,0,0,0-7.148-7.147Z" transform="translate(1.059 -0.036)"/><path class="cls-3" d="M731.677,729.857A3.148,3.148,0,1,1,728.529,733a3.15,3.15,0,0,1,3.148-3.147m0-4A7.148,7.148,0,1,0,738.824,733a7.147,7.147,0,0,0-7.147-7.147Z" transform="translate(1.059 -0.036)"/><polygon class="cls-14" points="783.546 453.345 792.962 457.162 796.779 466.578 757.498 505.86 748.082 502.042 744.265 492.626 783.546 453.345"/><polyline class="cls-15" points="792.962 457.162 796.779 466.578 757.498 505.86 748.082 502.042"/><polygon class="cls-14" points="497.512 739.378 506.929 743.196 510.746 752.612 471.465 791.893 462.048 788.076 458.231 778.659 497.512 739.378"/><polyline class="cls-16" points="506.929 743.196 510.746 752.612 471.465 791.893 462.048 788.076"/><polygon class="cls-14" points="511.94 495.747 508.123 505.164 498.707 508.981 459.425 469.7 463.243 460.283 472.659 456.466 511.94 495.747"/><polyline class="cls-17" points="508.123 505.164 498.707 508.981 459.425 469.7 463.243 460.283"/><polygon class="cls-14" points="793.157 780.782 789.34 790.198 779.924 794.015 740.642 754.734 744.46 745.318 753.876 741.5 793.157 780.782"/><polyline class="cls-18" points="789.34 790.198 779.924 794.015 740.642 754.734 744.46 745.318"/><circle class="cls-19" cx="626.059" cy="623.852" r="126.929"/><circle class="cls-19" cx="626.059" cy="623.852" r="106.574"/><polygon class="cls-20" points="675.2 621.358 623.139 653.431 623.139 521.575 675.2 621.358"/><polygon class="cls-21" points="675.2 621.358 623.139 653.431 623.139 521.575 675.2 621.358"/><polygon class="cls-22" points="571.078 621.358 623.139 653.431 623.139 521.575 571.078 621.358"/><polygon class="cls-23" points="675.2 621.358 623.139 653.431 623.139 591.607 675.2 621.358"/><polygon class="cls-24" points="623.139 591.607 623.139 653.431 571.078 621.358 623.139 591.607"/><polygon class="cls-25" points="571.078 629.843 623.134 663.212 623.139 729.625 571.078 629.843"/><polygon class="cls-26" points="623.139 729.625 623.139 663.213 675.2 629.843 623.139 729.625"/><polygon class="cls-27" points="623.139 729.625 623.139 663.213 675.2 629.843 623.139 729.625"/></g></g></svg>