<svg xmlns="http://www.w3.org/2000/svg" xmlns:xlink="http://www.w3.org/1999/xlink" viewBox="0 0 128.43 127.02"><defs><style>.cls-1{fill:none;}.cls-2{isolation:isolate;}.cls-3{fill:#bef4e9;}.cls-4{fill:#3f2a10;}.cls-5{clip-path:url(#clip-path);}.cls-6{fill:#caffff;}.cls-7{fill:#fff;}.cls-30,.cls-8{fill:#e6fffe;}.cls-27,.cls-28,.cls-9{fill:#96921d;}.cls-10{fill:#ffdf24;}.cls-11{fill:#ddd431;}.cls-12,.cls-16{fill:#b8ffee;}.cls-13{fill:#4f391c;}.cls-14{fill:#c1bc14;}.cls-15{fill:#bfbb13;}.cls-16,.cls-30,.cls-31{opacity:0.5;}.cls-16,.cls-22,.cls-23{mix-blend-mode:overlay;}.cls-17{fill:#a0980a;}.cls-18{fill:#7f7f19;}.cls-19,.cls-22{fill:#15938a;}.cls-20{fill:#f4af16;}.cls-21{fill:#c48302;}.cls-22,.cls-23,.cls-27,.cls-29{opacity:0.4;}.cls-23,.cls-24,.cls-31{fill:#8be8e5;}.cls-25,.cls-26,.cls-28{opacity:0.3;}.cls-26{fill:#00618d;mix-blend-mode:multiply;}.cls-32{clip-path:url(#clip-path-2);}.cls-33{fill:#704e25;}.cls-34{fill:#39c;}.cls-35{fill:#9ff;}</style><clipPath id="clip-path" transform="translate(3.2 6.66)"><rect class="cls-1" x="11.48" y="0.56" width="87.63" height="87.63"/></clipPath><clipPath id="clip-path-2" transform="translate(3.2 6.66)"><path class="cls-1" d="M53,80c-.35,0-.68-.43-.71-.93l-.16-2.28-.2-3.46H51.4l.31,4.48.06,2c0,.57.35,1.06.74,1l5.75-.25-.31-.68Z"/></clipPath></defs><title>water for humanity</title><g class="cls-2"><g id="Layer_8" data-name="Layer 8"><g id="Frame"><path class="cls-3" d="M11.4,31.94,54.79,6.89,98.18,31.94,39.27,37.62,12,33.73l-.63-.13S11.53,31.81,11.4,31.94Z" transform="translate(3.2 6.66)"/><path class="cls-4" d="M21,87.06c-.12-.19.81,1.81.81,1.81L55,106.75,88.69,87.81l-.56-.87-40.06.81-14.5-.94Z" transform="translate(3.2 6.66)"/><g class="cls-5"><polygon class="cls-6" points="101.7 53.58 13.69 56.2 13.39 74.54 104.74 76.45 101.7 53.58"/><polygon class="cls-3" points="101.36 39.29 11.47 39.52 14.01 57.4 104.41 62.16 101.36 39.29"/><polygon class="cls-6" points="30.7 39.73 31.1 40.44 60.71 39.33 61.22 38.21 59.7 38.11 60.61 36.69 59.29 34.36 57.06 35.58 55.44 35.37 54.63 33.14 53 32.13 49.96 31.62 47.93 34.16 47.02 33.24 45.91 32.84 43.88 34.46 43.37 35.98 42.87 37.3 40.53 36.69 39.32 37.91 38.71 38.72 36.78 38.11 33.94 38.41 34.25 39.53 32.02 38.11 30.7 39.73"/><polygon class="cls-7" points="82.85 30.36 82.59 30.92 63.33 30.03 63 29.15 63.99 29.07 63.4 27.94 64.25 26.1 65.71 27.06 66.76 26.9 67.29 25.13 68.34 24.33 70.32 23.93 71.64 25.93 72.23 25.21 72.96 24.89 74.28 26.18 74.61 27.38 74.94 28.43 76.45 27.94 77.25 28.91 77.64 29.55 78.89 29.07 80.74 29.31 80.54 30.2 81.99 29.07 82.85 30.36"/><polygon class="cls-6" points="64.81 24.46 64.64 24.88 50.56 24.96 50.29 24.33 51.01 24.23 50.53 23.43 51.09 22.05 52.18 22.7 52.94 22.54 53.26 21.23 54 20.61 55.43 20.24 56.47 21.66 56.87 21.11 57.39 20.84 58.4 21.73 58.68 22.6 58.96 23.35 60.05 22.94 60.66 23.61 60.98 24.07 61.87 23.67 63.23 23.77 63.12 24.43 64.13 23.55 64.81 24.46"/><polygon class="cls-8" points="46.7 58.77 46.48 59.35 27.23 60.13 26.82 59.27 27.8 59.11 27.11 58.04 27.81 56.12 29.34 56.96 30.37 56.71 30.75 54.9 31.73 54.01 33.66 53.44 35.15 55.33 35.68 54.56 36.38 54.17 37.8 55.34 38.23 56.52 38.65 57.53 40.12 56.92 40.99 57.81 41.44 58.42 42.65 57.83 44.51 57.91 44.39 58.81 45.73 57.56 46.7 58.77"/><rect class="cls-9" x="60.01" y="36.54" width="0.22" height="1.54"/><path class="cls-9" d="M58,28.11a5.92,5.92,0,0,0-1.06-3.47,5.54,5.54,0,0,0-1.06,3.47c0,1.49.48,1.9,1.06,1.9S58,29.59,58,28.11Z" transform="translate(3.2 6.66)"/><rect class="cls-9" x="21.16" y="70.22" width="0.19" height="1.31"/><path class="cls-9" d="M19,62.06a5,5,0,0,0-.91-3,4.71,4.71,0,0,0-.91,3c0,1.27.41,1.62.91,1.62S19,63.32,19,62.06Z" transform="translate(3.2 6.66)"/><rect class="cls-9" x="19.08" y="70.14" width="0.19" height="1.31"/><path class="cls-9" d="M16.91,62A5,5,0,0,0,16,59a4.71,4.71,0,0,0-.91,3c0,1.27.41,1.62.91,1.62S16.91,63.24,16.91,62Z" transform="translate(3.2 6.66)"/><rect class="cls-9" x="103.91" y="36.93" width="0.22" height="1.54"/><path class="cls-9" d="M101.92,28.5A5.92,5.92,0,0,0,100.85,25a5.53,5.53,0,0,0-1.06,3.47c0,1.48.48,1.9,1.06,1.9S101.92,30,101.92,28.5Z" transform="translate(3.2 6.66)"/><rect class="cls-9" x="16.55" y="70.06" width="0.19" height="1.31"/><path class="cls-9" d="M14.38,61.89a5,5,0,0,0-.91-3,4.71,4.71,0,0,0-.91,3c0,1.26.41,1.62.91,1.62S14.38,63.16,14.38,61.89Z" transform="translate(3.2 6.66)"/><polygon class="cls-10" points="98.36 37.3 58.34 36.86 36 70.01 94.82 47.96 98.36 37.3"/><polygon class="cls-11" points="57.32 39.05 36 70.01 94.82 47.96 57.32 39.05"/><path class="cls-12" d="M88.17,31.56c-4.43,0-35.59-.58-36,6.3C52.05,40.74,60,43.53,70,44.09S88,34.44,88.17,31.56Z" transform="translate(3.2 6.66)"/><path class="cls-4" d="M120,81.35C124.66,68.61.82,58.83-3.2,80.08,32.76,107.61,95.3,103.42,120,81.35Z" transform="translate(3.2 6.66)"/><path class="cls-13" d="M125.1,67.33c4.67-12.74-116.83,4.05-119.17,1C41.89,95.85,84.79,91,125.1,67.33Z" transform="translate(3.2 6.66)"/><polygon class="cls-14" points="107.85 71.62 79.95 74.8 85.23 78.46 109.17 81.11 107.85 71.62"/><polygon class="cls-15" points="96.92 36.57 91.5 37.09 87.11 43.27 93.77 56.5 96.92 36.57"/><polygon class="cls-10" points="47.39 64.17 18.91 72.5 22.13 77.17 47.25 74.39 47.39 64.17"/><polygon class="cls-9" points="37.74 73.49 11.31 70.16 11.17 75.12 33.37 76.58 37.74 73.49"/><polygon class="cls-15" points="39.23 71.49 12.78 74.69 13.76 78.13 35.72 77.22 39.23 71.49"/><path class="cls-15" d="M33.47,62a9.76,9.76,0,0,0-1.75-5.72A9.12,9.12,0,0,0,30,62c0,2.45.78,3.14,1.75,3.14S33.47,64.42,33.47,62Z" transform="translate(3.2 6.66)"/><rect class="cls-15" x="34.7" y="71.04" width="0.54" height="1.9"/><path class="cls-15" d="M36.45,61.08a7.38,7.38,0,0,0-1.32-4.33,6.89,6.89,0,0,0-1.32,4.33c0,1.85.59,2.37,1.32,2.37S36.45,62.93,36.45,61.08Z" transform="translate(3.2 6.66)"/><path class="cls-16" d="M35.06,60.93a7.75,7.75,0,0,0,.15-4.06l-.09-.11a6.89,6.89,0,0,0-1.32,4.33,4.23,4.23,0,0,0,.24,1.6A3.18,3.18,0,0,0,35.06,60.93Z" transform="translate(3.2 6.66)"/><polygon class="cls-15" points="51.84 39.78 47.06 47.97 43.83 66.44 50.81 61.56 51.84 39.78"/><polygon class="cls-17" points="54.56 51.28 37.86 69.4 35.99 76.55 51.16 74.45 54.56 51.28"/><polygon class="cls-9" points="80.46 39.26 79.44 67.83 77.57 74.98 94.44 73.06 80.46 39.26"/><polygon class="cls-18" points="80.46 39.78 86.6 58.25 94.61 73.41 91.54 41.52 80.46 39.78"/><path class="cls-9" d="M49.19,29.79a5,5,0,0,0-.89-2.9,4.63,4.63,0,0,0-.89,2.9c0,1.24.4,1.59.89,1.59S49.19,31,49.19,29.79Z" transform="translate(3.2 6.66)"/><rect class="cls-9" x="51.36" y="37.67" width="0.22" height="1.54"/><polygon class="cls-17" points="64.11 38.95 50.3 39.09 49.79 70.8 56.44 43.79 64.11 38.95"/><path class="cls-19" d="M82.37,70.93l-49.91-.16C54.63,91.66,70.71,90.58,82.37,70.93Z" transform="translate(3.2 6.66)"/><path class="cls-9" d="M52.14,27.84A6.42,6.42,0,0,0,51,24.07a6,6,0,0,0-1.15,3.77c0,1.61.52,2.06,1.15,2.06S52.14,29.45,52.14,27.84Z" transform="translate(3.2 6.66)"/><path class="cls-9" d="M54.89,27.11a6.42,6.42,0,0,0-1.15-3.77,6,6,0,0,0-1.15,3.77c0,1.61.52,2.06,1.15,2.06S54.89,28.72,54.89,27.11Z" transform="translate(3.2 6.66)"/><polygon class="cls-20" points="85.88 32.12 83.23 31.79 80.31 31.98 80.29 38.05 77.13 73.84 82.24 74.67 85.88 32.12"/><polygon class="cls-20" points="58.99 35.6 55.98 34.81 53.37 35.6 51.5 73.24 54.9 73.06 58.99 35.6"/><polygon class="cls-20" points="80.29 38.04 56.27 38.56 56.27 53.9 78.66 64.18 80.29 38.04"/><path class="cls-21" d="M77.71,39.64a19.07,19.07,0,0,0-.36-3.82L76.78,33,74,34.16l-1,33.35,4.61.16Z" transform="translate(3.2 6.66)"/><polygon class="cls-18" points="50.26 57.91 45.32 73.4 50.04 73.35 50.26 57.91"/><path class="cls-12" d="M76.86,33l-25,.82c-4.56,3-5.58,17.18-5.11,32.93l29.48.87C75,52.86,73.8,40.15,76.86,33Z" transform="translate(3.2 6.66)"/><path class="cls-22" d="M76.86,33l-25,.82a5.38,5.38,0,0,0-1.41,1.43L76.15,35A17.52,17.52,0,0,1,76.86,33Z" transform="translate(3.2 6.66)"/><path class="cls-22" d="M46.76,66.7l29.48.92q-.25-3.1-.49-6.09c-.12-14.41-20.67,3.94-29.09-2.9C46.65,61.24,46.68,63.95,46.76,66.7Z" transform="translate(3.2 6.66)"/><polygon class="cls-20" points="89.99 39.27 84.57 38.59 82.68 41.52 91.61 41.57 89.99 39.27"/><path class="cls-23" d="M55,73.93c-7.91,0-14.48-.32-18.84-1.18C55.46,90.06,70,89.06,80.56,71.89,75.89,73.62,65.66,73.93,55,73.93Z" transform="translate(3.2 6.66)"/><polygon class="cls-18" points="32.24 76.53 35.54 77.47 36.34 76.05 38.69 74.88 38.9 71.17 38.22 73.59 37.94 71.55 37.63 73.58 36.17 70.88 36.81 73.12 35.23 72.09 36.21 73.16 34.97 72.6 36.25 73.82 35.89 74.16 35.36 73.51 35.22 74.36 34.5 72.93 34.77 74.48 33.48 72.34 33.93 74.28 33.12 73.71 33.46 74.56 31.52 73.44 32.89 74.88 31.77 74.71 33.1 76.04 32.24 76.53"/><polygon class="cls-18" points="90.58 50.01 109.75 71.77 94.58 73.26 90.58 50.01"/><polygon class="cls-21" points="82.24 74.67 85.42 41.98 91.61 41.57 90.49 39.98 85.31 38.68 85.32 38.63 85.88 32.12 83.24 31.78 81.77 74.59 82.24 74.67"/><polygon class="cls-18" points="84.87 48.29 82.18 74.61 83.5 74.33 87.13 56.48 84.87 48.29"/><polygon class="cls-18" points="90.49 39.98 92.5 37.8 94.02 40.13 91.47 44.12 91.36 41.32 90.49 39.98"/><polygon class="cls-21" points="55.98 34.81 55.7 40.44 57.13 40.38 57.57 38.62 58.78 38.46 58.99 35.6 55.98 34.81"/><path class="cls-24" d="M69.86,38s-.35,1.32,2.17,7.55c0,0,3.33-5.68,2.73-8.39l-1.61-1Z" transform="translate(3.2 6.66)"/><path class="cls-24" d="M61.32,38.06S61.6,39.51,63,45c0,0,2.23-5.59,1.9-8l-1-.51Z" transform="translate(3.2 6.66)"/><path class="cls-24" d="M53.85,38s-.24,1.07,1.47,6.11c0,0,2.06-4.84,1.65-7L56,36.4Z" transform="translate(3.2 6.66)"/><rect class="cls-20" x="72.15" y="42.92" width="3.93" height="1.91"/><polygon class="cls-21" points="72.15 44.83 75.02 44.38 74.92 42.91 76.3 42.92 76.3 44.96 72.15 44.83"/><rect class="cls-20" x="63.77" y="43.11" width="3.27" height="1.91"/><polygon class="cls-21" points="63.79 45.01 66.05 44.56 65.98 43.09 67.07 43.11 67.07 45.14 63.79 45.01"/><rect class="cls-20" x="55.99" y="43.03" width="3.28" height="1.91"/><polygon class="cls-21" points="55.98 44.94 58.25 44.48 58.17 43.02 59.27 43.03 59.27 45.07 55.98 44.94"/><polygon class="cls-15" points="46.75 50.11 46.09 46.87 47.02 48.79 47.02 46.32 47.68 47.85 46.75 50.11"/><polygon class="cls-15" points="91.49 37.37 91.93 35.77 93.03 36.62 93.64 35.67 94.44 37.2 91.49 37.37"/><polygon class="cls-17" points="42.18 65.86 42.21 62.55 42.72 64.63 43.24 62.21 43.56 63.85 42.18 65.86"/><polygon class="cls-17" points="41.66 67.69 40.81 64.5 41.85 66.36 41.71 63.89 42.46 65.39 41.66 67.69"/><path class="cls-24" d="M82.72,70.21c0-2.39-11.29-4.33-25.22-4.33s-25.22,1.94-25.22,4.33,9.59,3.12,23.52,3.12S82.72,72.61,82.72,70.21Z" transform="translate(3.2 6.66)"/><g class="cls-25"><path class="cls-20" d="M77.32,71.75l0,.24c2.65-.41,4.26-1,4.26-1.76,0-1-2.09-1.82-5.53-2.48l.11.22Z" transform="translate(3.2 6.66)"/></g><path class="cls-23" d="M54.86,73.82c-7.91,0-14.48-.31-18.84-1.15q.79.69,1.58,1.34c8.08,2,33.18,2,41.64-.34q.62-.88,1.22-1.83C75.78,73.51,65.55,73.82,54.86,73.82Z" transform="translate(3.2 6.66)"/><path class="cls-23" d="M68,83.69c0-.93-3.44-2-7.55-2s-7.42.9-7.42,1.83a23.4,23.4,0,0,0,7.5,1.68A18.06,18.06,0,0,0,68,83.69Z" transform="translate(3.2 6.66)"/><path class="cls-26" d="M66.54,84.07a22.34,22.34,0,0,0-5.75-.68,23,23,0,0,0-5.73.63,25.24,25.24,0,0,0,5.52.88A22.5,22.5,0,0,0,66.54,84.07Z" transform="translate(3.2 6.66)"/><path class="cls-16" d="M57.5,66.14c-3.85,0-7.5.14-10.76.39V73c2.73.09,5.78.12,9.06.12,7.71,0,15.88-.18,21.45-1L76,67.43A115.53,115.53,0,0,0,57.5,66.14Z" transform="translate(3.2 6.66)"/><ellipse class="cls-14" cx="83.1" cy="76.04" rx="1.04" ry="0.35"/><ellipse class="cls-14" cx="83.72" cy="76.88" rx="0.79" ry="0.26"/><ellipse class="cls-9" cx="81.23" cy="76.84" rx="0.79" ry="0.26"/><ellipse class="cls-9" cx="82.48" cy="75.16" rx="0.79" ry="0.26"/><path class="cls-27" d="M42.34,67.2l1.84,5.64c.75,0,1.52.14,2.33.16l-.05-6.21Z" transform="translate(3.2 6.66)"/><path class="cls-28" d="M42.34,67.2h0v0a43.88,43.88,0,0,0-6.69,1.33l0,3.3a50.69,50.69,0,0,0,8.46,1Z" transform="translate(3.2 6.66)"/><g class="cls-29"><path class="cls-9" d="M35.71,71.79l0-3.29c-.6,0-3.07.88-3.07,1.76C32.57,71.3,35.51,71.77,35.71,71.79Z" transform="translate(3.2 6.66)"/></g><path class="cls-14" d="M80.12,69.07l1,.64,1.48-.85-.4-3-.11,1-1-2,.23,1.21-1.33-2,.61,1.58L79,65l1.14.79a2.66,2.66,0,0,0-3.29.45s1.54-.72,2.44-.17l-.66.15.67.34-1.65.06,1.27.4-.76.25.64.5L78.2,68A2,2,0,0,1,80.12,69.07Z" transform="translate(3.2 6.66)"/><path class="cls-9" d="M80.84,70.55l.17.87,1.21.36L83.63,70l-.6.45L83.59,69l-.53.74.42-1.76-.53,1.13-.47-1.2.16,1a2,2,0,0,0-1.92-1.53s1.17.46,1.34,1.22l-.42-.28.16.53L80.91,68l.44.88-.52-.28.06.59-.43-.22A1.44,1.44,0,0,1,80.84,70.55Z" transform="translate(3.2 6.66)"/><path class="cls-8" d="M42,66.82l1.65.42,4-.11,2.09.66L55.19,67l5.71.77,5.88-.49,4.73.66,4.3-.37H77.5l-.38-1.92-1.48-.06L75,64.32l.16-1.7-2.2.44-.55,1.1-1.37-1.54-3.35-.44-1.81.6-.49.93-2.47-2.31H61l-.93,1.81-1.54.27-1.81-.88-.16-1.48-1.81.38-1.37,1.7-.49.71L51.62,64l-.88-.82L49,61.8l-.88.88-.6,1.48-2-.05-.88.38a2.77,2.77,0,0,0-.38.71c0,.16-.77.49-.77.49s-1.1.06-1.1.27A2.93,2.93,0,0,1,42,66.82Z" transform="translate(3.2 6.66)"/><path class="cls-30" d="M75.81,67.59l-4.3.37-4.73-.66-5.88.49L55.19,67l-5.55.77-2.09-.66-4,.11L42,66.84l-.56.1s.44.43.44.58,1.1.19,1.1.19.77.23.77.34.38.49.38.49l.88.26,2,0,.6,1,.88.6,1.76-.94.88-.56,1.26,0,.49.49,1.37,1.17,1.81.26.16-1,1.81-.6,1.54.19.93,1.24h1.92l2.47-1.58.49.64,1.81.41,3.35-.3,1.37-1.05.55.75,2.2.3-.16-1.17.6-.87,1.48,0,0-.16Z" transform="translate(3.2 6.66)"/><polygon class="cls-8" points="68.39 74.85 69.64 74.37 70.44 74.56 70.66 75.21 69.6 75.47 68.39 74.85"/><polygon class="cls-8" points="43.45 74.19 44.7 73.71 45.5 73.9 45.72 74.56 44.66 74.81 43.45 74.19"/><polygon class="cls-8" points="57.53 74.15 59.48 73.4 60.74 73.69 61.08 74.72 59.42 75.12 57.53 74.15"/><polygon class="cls-30" points="44.62 74.89 43.53 74.33 43.44 74.33 44.64 75.4 45.46 75.19 45.62 74.64 44.62 74.89"/><polygon class="cls-30" points="69.58 75.53 68.5 74.97 68.41 74.98 69.6 76.03 70.41 75.83 70.57 75.29 69.58 75.53"/><polygon class="cls-30" points="79.03 75.49 77.49 74.95 77.39 74.96 78.72 76.13 79.61 75.9 79.79 75.3 79.03 75.49"/><path class="cls-8" d="M74.37,68.32l.93-1.19.71.31a5.66,5.66,0,0,1,.64,1.08c0,.18-.48.51-.48.51Z" transform="translate(3.2 6.66)"/><rect class="cls-8" x="58.05" y="61.67" width="0.44" height="0.44" transform="matrix(0.53, -0.85, 0.85, 0.53, -21.96, 84.83)"/><rect class="cls-8" x="46.55" y="62.88" width="0.44" height="0.44" transform="matrix(0.53, -0.85, 0.85, 0.53, -28.35, 75.6)"/><rect class="cls-8" x="65.74" y="61.05" width="0.44" height="0.44" transform="translate(-17.85 91.03) rotate(-57.76)"/><rect class="cls-8" x="76.29" y="62.18" width="0.44" height="0.44" transform="matrix(0.53, -0.85, 0.85, 0.53, -13.92, 100.37)"/><rect class="cls-8" x="75.78" y="64.71" width="0.44" height="0.44" transform="translate(-16.29 101.13) rotate(-57.7)"/><polygon class="cls-8" points="60.2 67.13 60.15 66.8 59.92 66.83 59.97 67.17 60.2 67.13"/><polygon class="cls-8" points="79.59 70.68 79.54 70.34 79.31 70.38 79.36 70.72 79.59 70.68"/><polygon class="cls-8" points="76.48 68.41 76.43 68.07 76.2 68.1 76.25 68.44 76.48 68.41"/><polygon class="cls-8" points="72.2 68 72.14 67.67 71.91 67.7 71.97 68.04 72.2 68"/><polygon class="cls-8" points="55.24 68.59 55.19 68.25 54.95 68.29 55.01 68.63 55.24 68.59"/><polygon class="cls-8" points="45.61 71.38 45.41 71.1 45.22 71.24 45.43 71.52 45.61 71.38"/><polygon class="cls-8" points="47.78 69.54 47.73 69.2 47.5 69.23 47.55 69.57 47.78 69.54"/><polygon class="cls-21" points="78.1 39.03 74.29 38.92 74.22 39.83 78.14 39.69 78.1 39.03"/><polygon class="cls-21" points="69.79 39.43 66.77 39.34 66.71 40.07 69.82 39.95 69.79 39.43"/><polygon class="cls-21" points="62.76 39.65 59.74 39.56 59.68 40.29 62.78 40.17 62.76 39.65"/><polygon class="cls-31" points="65.68 68.69 67.62 71.11 67.22 72.14 66.34 73.02 68.14 72.5 69.34 73.31 68.87 71.11 69.86 70.53 69.09 70.38 68.14 70.67 65.68 68.69"/><polygon class="cls-31" points="59.6 68.73 59.52 69.75 58.75 70.35 59.8 71.26 59.27 70.38 59.74 69.91 60.7 70.13 59.85 69.56 59.6 68.73"/><polygon class="cls-31" points="51.09 70.68 51.31 71.42 50.34 72.71 50.84 73.51 49.6 72.82 50.45 72.06 49.99 71.2 50.84 71.29 51.09 70.68"/><path class="cls-31" d="M50.3,67.46,52,66.38s.93-1.46.93-1.54a6.69,6.69,0,0,1,.38-.77l-.05,1.48,1,.27,1.32.58L53.25,66Z" transform="translate(3.2 6.66)"/><polygon class="cls-31" points="74.27 72.69 75.15 72.85 76.74 72.14 78.23 72.41 76.85 70.87 77.07 71.7 75.09 72.47 74.33 71.75 74.27 72.69"/><path class="cls-8" d="M72.85,36.43a4.74,4.74,0,0,0,.33.73l1-1-.22-.77L73.21,35l-.88.55-.7-.22-1.06.44,0,.4,1.28.15Z" transform="translate(3.2 6.66)"/><path class="cls-8" d="M63.62,36.67a3.39,3.39,0,0,0,.24.52l.71-.73-.16-.55-.53-.24-.63.39-.5-.16-.76.31,0,.25.86.15Z" transform="translate(3.2 6.66)"/><path class="cls-8" d="M56.1,36.42c0,.08,0,.82,0,.82l.94-1-.16-.55-.52-.24-.63.39-.5-.16-.76.31.15.44.75,0Z" transform="translate(3.2 6.66)"/><rect class="cls-8" x="73.45" y="41.15" width="0.37" height="0.37"/><rect class="cls-8" x="74.8" y="41.23" width="0.22" height="0.22"/><rect class="cls-8" x="72.16" y="42.32" width="0.37" height="0.22"/><rect class="cls-8" x="78.13" y="42.14" width="0.26" height="0.26"/><rect class="cls-8" x="77.37" y="45.11" width="0.22" height="0.4"/><polygon class="cls-8" points="64.62 42.65 64.91 42.21 64.07 42.1 63.52 42.51 64.18 42.69 64.62 42.65"/><polygon class="cls-8" points="76.87 41.48 77.07 41.04 76.5 40.93 76.12 41.34 76.57 41.52 76.87 41.48"/><polygon class="cls-8" points="64.55 67.2 64.99 66.12 63.74 65.85 62.94 66.84 63.91 67.29 64.55 67.2"/><polygon class="cls-8" points="73.98 66.88 73.81 66.2 73.17 66.42 73.14 67.16 73.72 67.11 73.98 66.88"/><polygon class="cls-8" points="65.24 75.61 65.08 74.94 64.44 75.16 64.41 75.89 64.98 75.84 65.24 75.61"/><polygon class="cls-8" points="53.98 68.03 53.81 67.35 53.17 67.57 53.14 68.31 53.72 68.26 53.98 68.03"/><polygon class="cls-8" points="58.96 43.36 59.61 43.45 59.68 42.9 59.06 42.65 58.87 43.1 58.96 43.36"/><polygon class="cls-8" points="58.77 41.85 59.27 41.92 59.32 41.5 58.85 41.31 58.7 41.65 58.77 41.85"/><rect class="cls-8" x="66.45" y="41.66" width="0.37" height="0.37"/><rect class="cls-8" x="57.11" y="42.07" width="0.37" height="0.37"/><rect class="cls-8" x="68.03" y="42.14" width="0.15" height="0.15"/><rect class="cls-8" x="60.41" y="41.44" width="0.15" height="0.15"/><rect class="cls-8" x="57.06" y="43.4" width="0.15" height="0.15"/><rect class="cls-8" x="67.77" y="44.85" width="0.37" height="0.37"/><rect class="cls-8" x="61.05" y="44.25" width="0.37" height="0.37"/><path class="cls-16" d="M31.57,62.11a9.91,9.91,0,0,0,.12-5.83A9.18,9.18,0,0,0,30,62a5.07,5.07,0,0,0,.41,2.31A4.72,4.72,0,0,0,31.57,62.11Z" transform="translate(3.2 6.66)"/><polygon class="cls-9" points="89.38 52.63 88.78 55.11 91.85 61.09 90.53 54.5 89.38 52.63"/><g class="cls-32"><rect class="cls-24" x="56.25" y="86.2" width="0.82" height="1.59"/><rect class="cls-24" x="51.29" y="79.41" width="1.59" height="0.82" transform="translate(-38.47 69.34) rotate(-46.52)"/><rect class="cls-24" x="51.24" y="77.76" width="1.59" height="0.82" transform="translate(-1.48 9.99) rotate(-3.51)"/><rect class="cls-24" x="51.02" y="76.16" width="1.59" height="0.82" transform="translate(-1.39 9.98) rotate(-3.51)"/><rect class="cls-24" x="50.85" y="74.24" width="1.59" height="0.82" transform="translate(-1.25 9.94) rotate(-3.49)"/></g><path class="cls-23" d="M67,80.5a.42.42,0,1,0,.42.42A.42.42,0,0,0,67,80.5Zm0,.75a.34.34,0,1,1,.34-.34A.34.34,0,0,1,67,81.25Z" transform="translate(3.2 6.66)"/><circle class="cls-23" cx="70.33" cy="87.47" r="0.1"/><path class="cls-23" d="M61.4,76.45a.42.42,0,1,0,.42.42A.42.42,0,0,0,61.4,76.45Zm0,.75a.34.34,0,1,1,.34-.34A.34.34,0,0,1,61.4,77.2Z" transform="translate(3.2 6.66)"/><circle class="cls-23" cx="64.72" cy="83.42" r="0.1"/><path class="cls-23" d="M53.69,78.8a.3.3,0,1,0,.3.3A.3.3,0,0,0,53.69,78.8Zm0,.55a.24.24,0,1,1,.24-.24A.24.24,0,0,1,53.69,79.35Z" transform="translate(3.2 6.66)"/><circle class="cls-23" cx="56.98" cy="85.68" r="0.08"/><path class="cls-23" d="M50.72,74.86a.3.3,0,1,0,.3.3A.3.3,0,0,0,50.72,74.86Zm0,.55a.24.24,0,1,1,.24-.24A.24.24,0,0,1,50.72,75.4Z" transform="translate(3.2 6.66)"/><circle class="cls-23" cx="54.01" cy="81.74" r="0.08"/><path class="cls-23" d="M46,77.48a.35.35,0,1,0,.35.35A.35.35,0,0,0,46,77.48Zm0,.64a.28.28,0,1,1,.28-.28A.28.28,0,0,1,46,78.12Z" transform="translate(3.2 6.66)"/><circle class="cls-23" cx="49.34" cy="84.4" r="0.09"/><path class="cls-23" d="M68.28,76.23a.42.42,0,1,0,.42.42A.42.42,0,0,0,68.28,76.23Zm0,.75a.34.34,0,1,1,.34-.34A.34.34,0,0,1,68.28,77Z" transform="translate(3.2 6.66)"/><circle class="cls-23" cx="71.6" cy="83.2" r="0.1"/><path class="cls-23" d="M74.45,76.4a.26.26,0,1,0,.26.26A.26.26,0,0,0,74.45,76.4Zm0,.47a.21.21,0,1,1,.21-.21A.21.21,0,0,1,74.45,76.87Z" transform="translate(3.2 6.66)"/><circle class="cls-23" cx="77.73" cy="83.25" r="0.07"/><path class="cls-23" d="M71.25,78.68a.17.17,0,1,0,.17.17A.17.17,0,0,0,71.25,78.68Zm0,.31a.14.14,0,1,1,.14-.14A.14.14,0,0,1,71.25,79Z" transform="translate(3.2 6.66)"/><circle class="cls-23" cx="74.5" cy="85.47" r="0.04"/><polygon class="cls-18" points="96.46 37.74 93.69 55.26 109.75 71.77 96.46 37.74"/><polygon class="cls-15" points="96.92 36.57 108.29 38.03 105.81 63 96.17 38.32 96.92 36.57"/><circle class="cls-4" cx="91.68" cy="84.87" r="1.51"/><circle class="cls-4" cx="41.59" cy="89.84" r="1.51"/><circle class="cls-13" cx="30.26" cy="90.02" r="1.51"/><circle class="cls-4" cx="99.38" cy="84.62" r="0.88"/><circle class="cls-33" cx="86.09" cy="84.18" r="0.88"/><circle class="cls-33" cx="33.52" cy="82.72" r="0.88"/><circle class="cls-33" cx="54.11" cy="92.5" r="0.77"/><circle class="cls-33" cx="102.6" cy="86.81" r="0.77"/><circle class="cls-4" cx="81.71" cy="90.17" r="0.88"/><circle class="cls-4" cx="39.75" cy="83.64" r="1.06"/><circle class="cls-4" cx="23.73" cy="83.16" r="1.06"/><circle class="cls-13" cx="43.89" cy="93.38" r="0.88"/><circle class="cls-13" cx="48.63" cy="100.4" r="1.51"/><circle class="cls-13" cx="62.26" cy="103.75" r="0.88"/><circle class="cls-13" cx="56.7" cy="96.65" r="1.51"/><circle class="cls-13" cx="70.32" cy="100" r="0.88"/><circle class="cls-13" cx="51.82" cy="101.9" r="1.51"/><circle class="cls-13" cx="65.45" cy="105.25" r="0.88"/><circle class="cls-13" cx="21.54" cy="92.36" r="0.88"/><circle class="cls-13" cx="99.68" cy="92.79" r="0.88"/><circle class="cls-13" cx="88.28" cy="90.9" r="0.88"/></g><path class="cls-7" d="M55,4.3,9.45,30.57V83.13L55,109.4l45.5-26.28V30.57ZM98.18,81.81,55,106.75,11.74,81.81V31.91L55,6.95l43.21,25Z" transform="translate(3.2 6.66)"/><path class="cls-34" d="M55-6.66,0,25.1V88.61l55,31.76,55-31.76V25.1Zm45.5,89.79L55,109.41,9.46,83.13V30.58L55,4.3l45.5,26.28Z" transform="translate(3.2 6.66)"/><path class="cls-7" d="M70.46,106.78l1.66-1,.08.13a3.22,3.22,0,0,1,.36.86,2,2,0,0,1,0,.81,2.1,2.1,0,0,1-1.06,1.45,2.26,2.26,0,0,1-1.79.22,2.41,2.41,0,0,1-.55-4.43,2.37,2.37,0,0,1,1-.31,2.91,2.91,0,0,1,1.13.18l-.19.66a1.69,1.69,0,0,0-1.58,0,1.65,1.65,0,0,0-.82,1.06,1.69,1.69,0,0,0,.19,1.33,1.63,1.63,0,0,0,1.12.83,1.67,1.67,0,0,0,1.21-.16,1.39,1.39,0,0,0,.63-.76,1.25,1.25,0,0,0,0-1l-1,.58Z" transform="translate(3.2 6.66)"/><rect class="cls-7" x="74.27" y="102.19" width="0.7" height="4.64" transform="translate(-39 57.86) rotate(-29.95)"/><polygon class="cls-7" points="80.75 107.55 82.73 111 82.13 111.35 80.14 107.9 79.22 108.43 78.89 107.86 81.34 106.45 81.67 107.02 80.75 107.55"/><path class="cls-7" d="M83,97.27l.41.72a1.94,1.94,0,0,0-1.34.19,1.61,1.61,0,0,0-.79,1,1.73,1.73,0,0,0,.2,1.33,1.69,1.69,0,0,0,1,.82,1.63,1.63,0,0,0,1.3-.17,1.5,1.5,0,0,0,.48-.42,1.77,1.77,0,0,0,.18-.29,3.62,3.62,0,0,0,.16-.38l.42.73a2.52,2.52,0,0,1-.92.93,2.33,2.33,0,0,1-1.81.24,2.3,2.3,0,0,1-1.45-1.11,2.39,2.39,0,0,1-.28-1.66,2.32,2.32,0,0,1,1.19-1.67A2.36,2.36,0,0,1,83,97.27" transform="translate(3.2 6.66)"/><rect class="cls-7" x="92.27" y="91.82" width="0.7" height="4.63" transform="translate(-31.44 65.51) rotate(-29.97)"/><polygon class="cls-7" points="99.64 101.27 97.17 96.98 101.86 98.36 100.25 95.57 100.86 95.22 103.31 99.48 98.62 98.11 100.24 100.92 99.64 101.27"/></g><path class="cls-35" d="M86,97.09a2.27,2.27,0,0,1-.22-1.81,2.37,2.37,0,0,1,1.14-1.47,2.43,2.43,0,0,1,3.29.89,2.28,2.28,0,0,1,.23,1.83,2.45,2.45,0,0,1-2.86,1.74A2.27,2.27,0,0,1,86,97.09m.61-.34a1.72,1.72,0,0,0,3.17-.38,1.8,1.8,0,0,0-1.23-2.16,1.63,1.63,0,0,0-1.31.17,1.65,1.65,0,0,0-.81,1,1.68,1.68,0,0,0,.18,1.32" transform="translate(3.2 6.66)"/><path class="cls-7" d="M32.87,40l-18,1.13.33-.79h.91l.49-.56-.13-1.11L17.87,37l2.69-.47s0,2,.24,2,.16.58.16.58l2-1.61.68-.16.62.91-.22.9a2.42,2.42,0,0,0,.63.14,3.18,3.18,0,0,0,.81-.52l.86-.05.37.51a2.64,2.64,0,0,0,1.25.33l.92-.06a3.84,3.84,0,0,1,.87-.47c.2,0,.71.43.71.43a3.24,3.24,0,0,0,1,.11c.2,0,.88-.17,1.08-.19a4.84,4.84,0,0,1,.7.07Z" transform="translate(3.2 6.66)"/><path class="cls-4" d="M116.75,66.43" transform="translate(3.2 6.66)"/></g></g></svg>