<?xml version="1.0" encoding="utf-8"?>
<!-- Generator: Adobe Illustrator 21.0.2, SVG Export Plug-In . SVG Version: 6.00 Build 0)  -->
<svg version="1.1" id="Layer_1" xmlns="http://www.w3.org/2000/svg" xmlns:xlink="http://www.w3.org/1999/xlink" x="0px" y="0px"
	 viewBox="0 0 841.89 595.28" enable-background="new 0 0 841.89 595.28" xml:space="preserve">
<g>
	<polygon fill="#8C8C8C" points="418.437,588.879 167.519,444.012 167.519,154.275 418.437,9.406 669.357,154.275 669.357,444.01 	
		"/>
</g>
<g enable-background="new    ">
	<path fill="#FFFFFF" d="M418.432,55.258L206.908,177.206v243.887l211.523,121.935l211.535-121.935V177.206L418.432,55.258z
		 M621.402,416.179l-202.97,117.025L215.454,416.179V182.165L418.432,65.141l202.97,117.023V416.179z"/>
</g>
<g>
	<path fill="#FFFFFF" d="M215.547,149.816l6.576-3.777l0.303,0.526c0.687,1.195,1.152,2.334,1.4,3.416
		c0.214,1.011,0.209,2.074-0.018,3.19c-0.522,2.512-1.925,4.423-4.206,5.733c-2.226,1.279-4.595,1.57-7.105,0.874
		c-2.515-0.702-4.421-2.184-5.72-4.445c-1.326-2.309-1.645-4.73-0.953-7.267c0.688-2.542,2.189-4.479,4.505-5.809
		c1.243-0.715,2.551-1.127,3.921-1.238c1.324-0.084,2.811,0.159,4.463,0.728l-0.77,2.621c-2.306-0.988-4.396-0.944-6.271,0.134
		c-1.684,0.967-2.762,2.358-3.235,4.174c-0.485,1.797-0.234,3.554,0.752,5.271c1.019,1.772,2.493,2.868,4.424,3.285
		c1.8,0.383,3.395,0.175,4.782-0.622c1.182-0.68,2.015-1.688,2.498-3.025c0.479-1.346,0.453-2.609-0.08-3.791l-3.969,2.279
		L215.547,149.816z"/>
	<path fill="#FFFFFF" d="M231.094,138.556l2.33-1.338l5.766,10.039l-2.329,1.338l-0.604-1.052c-0.441,1.442-1.212,2.479-2.312,3.11
		c-1.388,0.797-2.823,0.955-4.307,0.474c-1.488-0.508-2.673-1.527-3.553-3.06c-0.864-1.505-1.135-3.018-0.812-4.537
		c0.324-1.521,1.163-2.669,2.517-3.447c1.168-0.671,2.492-0.792,3.973-0.363L231.094,138.556z M228.455,146.706
		c0.553,0.962,1.261,1.597,2.123,1.905c0.881,0.309,1.723,0.231,2.527-0.23c0.858-0.494,1.383-1.188,1.572-2.082
		c0.178-0.916-0.004-1.845-0.545-2.786s-1.251-1.565-2.131-1.873c-0.873-0.295-1.731-0.199-2.576,0.287
		c-0.798,0.458-1.291,1.144-1.479,2.056C227.769,144.897,227.938,145.806,228.455,146.706z"/>
	<path fill="#FFFFFF" d="M236.351,135.536l2.319-1.332l0.532,0.928c0.179-0.725,0.378-1.26,0.6-1.606
		c0.238-0.364,0.611-0.693,1.12-0.985c1.133-0.651,2.314-0.672,3.542-0.061c0.16-1.409,0.862-2.47,2.105-3.184
		c2.261-1.299,4.179-0.577,5.754,2.164l3.563,6.205l-2.329,1.338l-3.203-5.576c-0.553-0.962-1.06-1.575-1.522-1.839
		c-0.474-0.268-0.984-0.244-1.534,0.072c-0.64,0.367-0.967,0.875-0.982,1.523c-0.017,0.649,0.282,1.506,0.895,2.571l2.978,5.185
		l-2.329,1.338l-3.186-5.545c-1.026-1.787-2.055-2.385-3.085-1.793c-0.653,0.376-0.988,0.893-1.008,1.553
		c-0.019,0.659,0.274,1.515,0.878,2.566l2.979,5.185l-2.319,1.332L236.351,135.536z"/>
	<path fill="#FFFFFF" d="M265.387,126.259l-7.194,4.133c0.536,0.788,1.181,1.291,1.936,1.507c0.75,0.208,1.496,0.1,2.238-0.326
		c0.577-0.332,0.976-0.744,1.196-1.236c0.213-0.488,0.344-1.239,0.391-2.253l2.587-0.033c-0.007,0.689-0.073,1.314-0.198,1.875
		c-0.125,0.562-0.313,1.07-0.562,1.529c-0.249,0.458-0.563,0.87-0.948,1.236c-0.383,0.367-0.836,0.7-1.358,1
		c-1.498,0.86-2.976,1.071-4.436,0.63c-1.464-0.447-2.655-1.473-3.575-3.073c-0.912-1.588-1.21-3.125-0.896-4.613
		c0.33-1.478,1.228-2.637,2.69-3.478c1.478-0.849,2.916-1.049,4.316-0.602c1.388,0.445,2.559,1.496,3.51,3.151L265.387,126.259z
		 M261.917,125.729c-1.034-1.052-2.169-1.222-3.405-0.511c-0.282,0.161-0.521,0.357-0.72,0.584c-0.198,0.229-0.353,0.481-0.463,0.76
		c-0.108,0.278-0.171,0.571-0.185,0.881c-0.015,0.311,0.023,0.631,0.113,0.963L261.917,125.729z"/>
	<path fill="#FFFFFF" d="M273.995,109.1l7.845,13.657l-2.401,1.38l-7.845-13.657l-3.659,2.102l-1.296-2.257l9.709-5.577l1.296,2.257
		L273.995,109.1z"/>
	<path fill="#FFFFFF" d="M281.423,109.646l2.319-1.332l0.516,0.896c0.168-0.692,0.371-1.215,0.605-1.569
		c0.239-0.364,0.588-0.68,1.048-0.943c0.612-0.352,1.366-0.52,2.261-0.504l0.158,2.732c-0.621-0.063-1.142,0.025-1.561,0.267
		c-1.265,0.727-1.348,2.044-0.251,3.955l2.99,5.205l-2.319,1.332L281.423,109.646z"/>
	<path fill="#FFFFFF" d="M296.719,100.859l2.329-1.338l5.767,10.039l-2.329,1.338l-0.604-1.052
		c-0.442,1.442-1.213,2.479-2.313,3.109c-1.388,0.798-2.822,0.956-4.307,0.474c-1.488-0.507-2.673-1.527-3.553-3.059
		c-0.864-1.506-1.135-3.018-0.811-4.538s1.162-2.669,2.517-3.446c1.168-0.671,2.492-0.793,3.973-0.363L296.719,100.859z
		 M294.08,109.009c0.553,0.962,1.261,1.598,2.123,1.905c0.88,0.309,1.723,0.231,2.526-0.23c0.858-0.493,1.383-1.188,1.573-2.082
		c0.177-0.916-0.004-1.844-0.545-2.785s-1.251-1.566-2.131-1.873c-0.873-0.295-1.732-0.199-2.577,0.286
		c-0.797,0.458-1.29,1.144-1.479,2.056C293.393,107.201,293.563,108.108,294.08,109.009z"/>
	<path fill="#FFFFFF" d="M310.036,93.784l1.771,3.082c-0.9-0.342-1.629-0.514-2.186-0.513c-0.555-0.011-1.11,0.144-1.667,0.463
		c-0.872,0.502-1.422,1.224-1.647,2.167s-0.075,1.875,0.454,2.797c0.541,0.94,1.263,1.554,2.167,1.839
		c0.91,0.281,1.803,0.171,2.676-0.33c0.556-0.32,0.979-0.723,1.266-1.208c0.279-0.47,0.502-1.202,0.672-2.194l1.759,3.061
		c-0.661,1.029-1.462,1.813-2.403,2.354c-1.554,0.893-3.14,1.137-4.761,0.734c-1.625-0.411-2.867-1.365-3.728-2.863
		s-1.059-3.066-0.592-4.704c0.467-1.639,1.469-2.899,3.008-3.784C307.813,94.115,308.885,93.816,310.036,93.784z"/>
	<path fill="#FFFFFF" d="M310.121,83.358l6.098,10.617l1.402-5.124l3.113-1.788l-1.938,6.721l8.024,3.135l-3.01,1.729l-5.752-2.33
		l-0.158,0.584l2.221,3.865l-2.319,1.332l-10-17.409L310.121,83.358z"/>
	<path fill="#FFFFFF" d="M326.913,75.7l10.254,8.257l-2.226-13.896l10.697,9.029l-1.708-13.164l2.607-1.498l2.609,21.009
		l-10.568-8.925l2.216,13.737l-16.489-13.051L326.913,75.7z"/>
	<path fill="#FFFFFF" d="M348.7,65.447c-0.233-0.406-0.286-0.84-0.16-1.306s0.394-0.816,0.807-1.054
		c0.419-0.24,0.861-0.298,1.327-0.172c0.46,0.118,0.812,0.387,1.053,0.807c0.24,0.419,0.298,0.861,0.172,1.326
		c-0.119,0.461-0.387,0.813-0.807,1.054c-0.419,0.241-0.861,0.298-1.326,0.172C349.3,66.149,348.945,65.873,348.7,65.447z
		 M353.768,68.088l5.768,10.039l-2.319,1.332l-5.767-10.039L353.768,68.088z"/>
	<path fill="#FFFFFF" d="M356.705,66.4l2.33-1.338l0.532,0.928c0.349-1.27,1.032-2.196,2.049-2.781
		c1.168-0.67,2.29-0.826,3.364-0.466c0.924,0.302,1.791,1.16,2.604,2.575l3.535,6.154l-2.329,1.338l-3.221-5.606
		c-0.568-0.99-1.099-1.595-1.591-1.815c-0.488-0.23-1.087-0.143-1.795,0.264c-0.77,0.442-1.17,1.01-1.201,1.703
		c-0.027,0.685,0.317,1.65,1.036,2.901l2.783,4.845l-2.329,1.338L356.705,66.4z"/>
	<path fill="#FFFFFF" d="M368.28,59.752l2.329-1.338l0.533,0.928c0.349-1.27,1.031-2.197,2.049-2.781
		c1.168-0.671,2.289-0.827,3.364-0.467c0.923,0.303,1.791,1.16,2.604,2.575l3.535,6.154l-2.329,1.338l-3.221-5.606
		c-0.568-0.99-1.1-1.595-1.592-1.814c-0.488-0.23-1.086-0.143-1.794,0.264c-0.77,0.441-1.17,1.01-1.201,1.703
		c-0.028,0.685,0.317,1.65,1.035,2.901l2.783,4.845l-2.329,1.338L368.28,59.752z"/>
	<path fill="#FFFFFF" d="M392.194,53.417L385,57.55c0.535,0.788,1.18,1.291,1.935,1.507c0.751,0.208,1.497,0.1,2.239-0.326
		c0.576-0.332,0.976-0.744,1.195-1.236c0.214-0.487,0.344-1.239,0.392-2.253l2.586-0.033c-0.007,0.689-0.072,1.314-0.198,1.875
		c-0.125,0.562-0.313,1.07-0.562,1.529c-0.248,0.458-0.563,0.87-0.947,1.236c-0.384,0.367-0.837,0.7-1.358,1
		c-1.498,0.86-2.977,1.071-4.437,0.63c-1.464-0.447-2.655-1.473-3.575-3.073c-0.912-1.588-1.21-3.125-0.895-4.613
		c0.33-1.478,1.227-2.637,2.689-3.478c1.478-0.849,2.916-1.049,4.316-0.601c1.389,0.444,2.559,1.495,3.51,3.15L392.194,53.417z
		 M388.724,52.888c-1.033-1.052-2.168-1.222-3.405-0.511c-0.281,0.161-0.521,0.357-0.72,0.584c-0.197,0.229-0.352,0.481-0.462,0.76
		c-0.109,0.278-0.172,0.571-0.186,0.882c-0.014,0.31,0.023,0.63,0.113,0.962L388.724,52.888z"/>
	<path fill="#FFFFFF" d="M391.533,46.395l2.318-1.332l0.516,0.896c0.169-0.691,0.371-1.215,0.606-1.569
		c0.238-0.364,0.587-0.679,1.048-0.943c0.611-0.352,1.365-0.519,2.26-0.503l0.158,2.732c-0.621-0.063-1.142,0.025-1.561,0.267
		c-1.264,0.726-1.348,2.043-0.251,3.954l2.99,5.205l-2.319,1.332L391.533,46.395z"/>
</g>
<g>
	<path fill="#FFFFFF" d="M498.63,71.863l-5.55-3.176l-2.19,3.827l5.354,3.064l-1.293,2.259l-5.354-3.064l-4.34,7.583l-2.404-1.376
		l9.116-15.928l7.954,4.552L498.63,71.863z"/>
	<path fill="#FFFFFF" d="M501.221,78.154l-5.751,10.048l-2.321-1.329l5.751-10.048L501.221,78.154z M500.939,72.447
		c0.232-0.406,0.581-0.673,1.046-0.799c0.465-0.127,0.904-0.072,1.317,0.164c0.418,0.24,0.691,0.593,0.817,1.058
		c0.131,0.458,0.076,0.897-0.164,1.317c-0.24,0.419-0.593,0.691-1.058,0.818c-0.458,0.131-0.896,0.076-1.316-0.164
		s-0.692-0.594-0.818-1.059C500.637,73.318,500.695,72.873,500.939,72.447z"/>
	<path fill="#FFFFFF" d="M504.16,79.836l2.321,1.329l-0.514,0.897c0.683-0.203,1.235-0.293,1.66-0.269
		c0.435,0.021,0.883,0.163,1.345,0.427c0.611,0.35,1.137,0.916,1.576,1.696l-2.279,1.517c-0.259-0.567-0.599-0.973-1.018-1.212
		c-1.267-0.725-2.445-0.131-3.54,1.781l-2.981,5.21l-2.321-1.328L504.16,79.836z"/>
	<path fill="#FFFFFF" d="M516.922,89.414l-2.504-0.077c0.051-0.793-0.146-1.316-0.593-1.572c-0.213-0.122-0.437-0.156-0.667-0.101
		c-0.233,0.054-0.412,0.19-0.538,0.41c-0.22,0.386,0.008,1.023,0.686,1.913c0.929,1.235,1.478,2.197,1.648,2.889
		c0.171,0.69,0.039,1.414-0.394,2.171c-0.556,0.97-1.377,1.576-2.466,1.82c-1.05,0.223-2.065,0.051-3.049-0.512
		c-1.686-0.965-2.408-2.469-2.169-4.515l2.506,0.216c0,0.639,0.034,1.064,0.104,1.277c0.132,0.424,0.396,0.747,0.787,0.971
		c0.784,0.449,1.381,0.316,1.791-0.399c0.236-0.412,0.153-0.97-0.247-1.675c-0.168-0.251-0.336-0.498-0.508-0.742
		c-0.17-0.244-0.343-0.493-0.517-0.748c-0.485-0.715-0.771-1.316-0.856-1.805c-0.11-0.62,0.022-1.261,0.4-1.921
		c0.5-0.873,1.214-1.424,2.138-1.652c0.939-0.221,1.845-0.081,2.719,0.419C516.479,86.518,517.056,87.729,516.922,89.414z"/>
	<path fill="#FFFFFF" d="M521.788,92.801l-4.511,7.883l-2.32-1.328l4.511-7.883l-0.991-0.566l1.24-2.166l0.991,0.566l2.107-3.683
		l2.32,1.328l-2.107,3.683l1.806,1.033l-1.24,2.166L521.788,92.801z"/>
	<path fill="#FFFFFF" d="M533.731,101.513l-3.702,6.469l-2.404-1.376l9.116-15.928l2.724,1.559c1.334,0.764,2.289,1.434,2.863,2.008
		c0.582,0.58,0.985,1.277,1.214,2.092c0.402,1.418,0.214,2.808-0.565,4.169c-0.835,1.458-1.984,2.334-3.449,2.628
		c-1.464,0.294-3.024-0.033-4.683-0.982L533.731,101.513z M535.007,99.285l0.897,0.514c2.207,1.263,3.797,1.046,4.77-0.653
		c0.94-1.644,0.272-3.117-2.004-4.42l-0.794-0.454L535.007,99.285z"/>
	<path fill="#FFFFFF" d="M544.342,102.834l2.321,1.328l-0.514,0.897c0.683-0.202,1.235-0.292,1.661-0.269
		c0.434,0.021,0.883,0.164,1.344,0.428c0.612,0.35,1.138,0.915,1.576,1.696l-2.278,1.517c-0.26-0.568-0.6-0.973-1.018-1.213
		c-1.267-0.725-2.446-0.13-3.541,1.782l-2.981,5.21l-2.321-1.329L544.342,102.834z"/>
	<path fill="#FFFFFF" d="M554.566,108.686l-5.751,10.048l-2.321-1.329l5.751-10.048L554.566,108.686z M554.285,102.979
		c0.232-0.406,0.581-0.672,1.046-0.799c0.465-0.126,0.904-0.072,1.316,0.164c0.419,0.24,0.691,0.593,0.818,1.059
		c0.131,0.457,0.076,0.896-0.164,1.316c-0.24,0.419-0.593,0.692-1.058,0.818c-0.458,0.131-0.896,0.076-1.316-0.164
		s-0.692-0.593-0.818-1.059C553.982,103.851,554.041,103.405,554.285,102.979z"/>
	<path fill="#FFFFFF" d="M556.339,120.136l5.973,3.419l-1.252,2.188l-10.574-6.053l11.021-4.156l-5.128-2.934l1.24-2.167
		l9.718,5.563L556.339,120.136z"/>
	<path fill="#FFFFFF" d="M574.95,127.747l-7.201-4.121c-0.41,0.86-0.519,1.671-0.323,2.431c0.199,0.753,0.67,1.342,1.413,1.768
		c0.577,0.33,1.134,0.467,1.67,0.408c0.529-0.063,1.243-0.33,2.144-0.801l1.333,2.216c-0.598,0.342-1.171,0.602-1.718,0.776
		c-0.548,0.176-1.081,0.271-1.604,0.287c-0.52,0.018-1.035-0.047-1.547-0.193c-0.509-0.146-1.024-0.368-1.548-0.667
		c-1.499-0.858-2.428-2.028-2.784-3.511c-0.354-1.489-0.071-3.035,0.846-4.638c0.909-1.589,2.086-2.623,3.529-3.103
		c1.442-0.462,2.896-0.273,4.36,0.564c1.479,0.847,2.379,1.986,2.7,3.421c0.316,1.424,0.001,2.964-0.948,4.622L574.95,127.747z
		 M573.652,124.485c0.387-1.423-0.04-2.489-1.278-3.197c-0.282-0.161-0.571-0.271-0.868-0.325c-0.297-0.056-0.593-0.061-0.889-0.016
		c-0.295,0.045-0.58,0.14-0.854,0.284c-0.274,0.145-0.532,0.339-0.774,0.585L573.652,124.485z"/>
</g>
<g>
	<path fill="#FFFFFF" d="M319.756,400.31c-38.994,0-70.718-31.725-70.718-70.719c0-36.409,27.613-66.688,63.453-70.343v-0.265
		l3.692-0.021c2.383-0.117,4.765-0.117,7.142,0h171.148c2.377-0.116,4.756-0.116,7.135,0h3.413l0.006,0.255
		c35.955,3.52,63.663,33.797,63.663,70.308c0,38.957-31.693,70.65-70.649,70.65c-0.814,0-5.305-0.507-22.881-2.582
		c-5.909-0.698-12.013-1.419-13.028-1.514H364.38c-0.809,0.074-3.853,0.374-7.992,0.782
		C334.215,399.045,321.112,400.31,319.756,400.31z M316.77,265.942l-0.585,0.036c-33.728,1.863-60.146,29.805-60.146,63.612
		c0,35.135,28.584,63.719,63.718,63.719c1.761-0.048,24.85-2.321,35.945-3.415c4.495-0.442,7.712-0.759,8.224-0.803l0.299-0.013
		l98.262,0.006c0.598,0.036,4.176,0.456,13.496,1.556c8.34,0.985,20.942,2.474,22.156,2.536c35-0.002,63.553-28.556,63.553-63.652
		c0-33.875-26.475-61.794-60.271-63.561l-0.576-0.03c-2.041-0.087-4.071-0.079-6.104,0.023l-0.178,0.005l-171.5-0.005
		C320.966,265.851,318.87,265.845,316.77,265.942z"/>
</g>
<g>
	<path fill="#FFFFFF" d="M320.87,379.127c-26.95,0-48.876-21.926-48.876-48.876s21.926-48.875,48.876-48.875
		s48.875,21.925,48.875,48.875S347.82,379.127,320.87,379.127z M320.87,285.376c-24.745,0-44.876,20.131-44.876,44.875
		c0,24.745,20.131,44.876,44.876,44.876c24.744,0,44.875-20.131,44.875-44.876C365.745,305.507,345.614,285.376,320.87,285.376z"/>
</g>
<g>
	<path fill="#FFFFFF" d="M500.449,379.127c-26.95,0-48.876-21.926-48.876-48.876s21.926-48.875,48.876-48.875
		s48.876,21.925,48.876,48.875S527.399,379.127,500.449,379.127z M500.449,285.376c-24.745,0-44.876,20.131-44.876,44.875
		c0,24.745,20.131,44.876,44.876,44.876s44.876-20.131,44.876-44.876C545.325,305.507,525.194,285.376,500.449,285.376z"/>
</g>
<g>
	<path fill="#FFFFFF" d="M427.33,373.826c0,3.192-2.587,5.777-5.778,5.777h-27.728c-3.191,0-5.777-2.585-5.777-5.777l0,0
		c0-3.192,2.587-5.776,5.777-5.776h27.728C424.743,368.049,427.33,370.634,427.33,373.826L427.33,373.826z"/>
</g>
<g>
	<g>
		<rect x="309.388" y="301.615" fill="#FFFFFF" width="22.222" height="60.905"/>
	</g>
	<g>
		<rect x="290.046" y="319.858" fill="#FFFFFF" width="60.905" height="22.223"/>
	</g>
</g>
<g>
	<circle fill="#FFFFFF" cx="500.118" cy="307.473" r="9.903"/>
</g>
<g>
	<circle fill="#FFFFFF" cx="500.118" cy="354.844" r="9.903"/>
</g>
<g>
	<circle fill="#FFFFFF" cx="475.196" cy="331.737" r="9.903"/>
</g>
<g>
	<circle fill="#FFFFFF" cx="526.198" cy="331.737" r="9.903"/>
</g>
<g>
	<g>
		<g>
			<path fill="#FFFFFF" d="M447.531,255.203c34.844,5.615,69.688,11.231,104.533,16.847c3.148,0.507,4.503-4.31,1.329-4.821
				c-34.844-5.616-69.688-11.233-104.533-16.847C445.712,249.875,444.357,254.692,447.531,255.203L447.531,255.203z"/>
		</g>
	</g>
	<g>
		<g>
			<path fill="#FFFFFF" d="M449.71,253.563c3.467-21.509,6.933-43.019,10.4-64.529c0.507-3.148-4.31-4.503-4.821-1.329
				c-3.467,21.51-6.933,43.019-10.4,64.529C444.381,255.382,449.198,256.737,449.71,253.563L449.71,253.563z"/>
		</g>
	</g>
	<g>
		<g>
			<path fill="#FFFFFF" d="M455.429,189.029c6.926,9.587,13.851,19.174,20.777,28.761c1.867,2.584,6.206,0.091,4.317-2.524
				c-6.926-9.587-13.851-19.174-20.777-28.761C457.879,183.921,453.54,186.414,455.429,189.029L455.429,189.029z"/>
		</g>
	</g>
	<g>
		<g>
			<path fill="#FFFFFF" d="M479.848,219.391c11.1-8.02,22.201-16.039,33.301-24.057c2.584-1.867,0.091-6.206-2.524-4.317
				c-11.101,8.018-22.201,16.037-33.301,24.057C474.74,216.94,477.233,221.28,479.848,219.391L479.848,219.391z"/>
		</g>
	</g>
	<g>
		<g>
			<path fill="#FFFFFF" d="M509.64,194.464c7.563,10.47,15.128,20.939,22.691,31.41c1.867,2.584,6.206,0.091,4.317-2.524
				c-7.563-10.47-15.128-20.94-22.691-31.41C512.09,189.356,507.751,191.849,509.64,194.464L509.64,194.464z"/>
		</g>
	</g>
	<g>
		<g>
			<path fill="#FFFFFF" d="M535.738,226.853c9.713-7.018,19.426-14.035,29.139-21.051c2.584-1.867,0.091-6.206-2.524-4.317
				c-9.714,7.016-19.427,14.033-29.139,21.051C530.63,224.403,533.123,228.742,535.738,226.853L535.738,226.853z"/>
		</g>
	</g>
	<g>
		<g>
			<path fill="#FFFFFF" d="M560.769,204.12c-3.484,21.618-6.967,43.237-10.452,64.855c-0.507,3.148,4.31,4.503,4.821,1.329
				c3.485-21.618,6.968-43.237,10.452-64.855C566.098,202.302,561.281,200.947,560.769,204.12L560.769,204.12z"/>
		</g>
	</g>
</g>
<g>
	<g>
		<path fill="#FFFFFF" d="M564.32,192.615c12.617,4.908,12.171,22.331,6.924,32.473c-1.476,2.854,2.837,5.386,4.317,2.524
			c6.901-13.339,5.948-33.649-9.912-39.818C562.648,186.626,561.349,191.459,564.32,192.615L564.32,192.615z"/>
	</g>
</g>
<g>
	<g>
		<path fill="#FFFFFF" d="M578.897,188.422c2.251,2.01,4.136,4.34,5.299,7.15c0.514,1.242,1.66,2.142,3.075,1.746
			c1.176-0.329,2.267-1.816,1.746-3.075c-1.503-3.63-3.648-6.733-6.585-9.357C580.039,182.749,576.491,186.273,578.897,188.422
			L578.897,188.422z"/>
	</g>
</g>
<g>
	<g>
		<path fill="#FFFFFF" d="M450.155,170.693c-6.156,6.052-9.432,13.702-10.306,22.234c-0.328,3.198,4.675,3.175,5,0
			c0.739-7.211,3.663-13.608,8.842-18.698C455.989,171.969,452.453,168.434,450.155,170.693L450.155,170.693z"/>
	</g>
</g>
<g>
	<g>
		<path fill="#FFFFFF" d="M430.287,178.791c-2.317,4.788-3.53,9.792-2.981,15.127c0.326,3.169,5.33,3.203,5,0
			c-0.459-4.46,0.349-8.575,2.298-12.603C436,178.43,431.69,175.892,430.287,178.791L430.287,178.791z"/>
	</g>
</g>
<g>
	<circle fill="#FFFFFF" cx="475.422" cy="234.776" r="5.717"/>
</g>
<g>
	<circle fill="#FFFFFF" cx="531.322" cy="242.716" r="5.717"/>
</g>
<g>
	<circle fill="#FFFFFF" cx="506.231" cy="224.295" r="5.717"/>
</g>
<g>
	<g>
		<circle fill="#FFFFFF" cx="584.868" cy="131.299" r="4.129"/>
	</g>
	<g>
		<circle fill="#FFFFFF" cx="477.516" cy="67.777" r="4.129"/>
	</g>
</g>
<g>
	<g>
		<g>
			<path fill="#FFFFFF" d="M502.942,504.93l1.867-1.085l3.838,6.609c0.317-0.984,0.877-1.708,1.68-2.174
				c0.913-0.53,1.816-0.659,2.708-0.384c0.765,0.245,1.474,0.931,2.13,2.061l2.878,4.957l-1.868,1.085l-2.777-4.783
				c-0.376-0.647-0.764-1.051-1.161-1.208c-0.399-0.157-0.853-0.087-1.362,0.209c-0.653,0.379-0.996,0.847-1.027,1.406
				c-0.023,0.561,0.256,1.339,0.834,2.335l2.271,3.911l-1.868,1.085L502.942,504.93z"/>
		</g>
		<g>
			<path fill="#FFFFFF" d="M521.674,501.991l1.877-1.09l4.696,8.088l-1.876,1.09l-0.493-0.847c-0.352,1.166-0.97,2.006-1.855,2.521
				c-1.118,0.649-2.277,0.783-3.478,0.397c-1.204-0.403-2.164-1.223-2.881-2.457c-0.705-1.213-0.928-2.433-0.673-3.663
				c0.256-1.229,0.929-2.16,2.019-2.793c0.942-0.546,2.011-0.649,3.208-0.307L521.674,501.991z M519.574,508.585
				c0.45,0.775,1.024,1.285,1.722,1.531c0.712,0.246,1.392,0.18,2.04-0.196c0.692-0.401,1.113-0.965,1.263-1.689
				c0.14-0.739-0.009-1.489-0.451-2.248c-0.44-0.758-1.016-1.26-1.729-1.505c-0.706-0.234-1.398-0.153-2.08,0.242
				c-0.642,0.373-1.038,0.928-1.187,1.666C519.013,507.126,519.153,507.858,519.574,508.585z"/>
		</g>
		<g>
			<path fill="#FFFFFF" d="M532.406,496.226l1.441,2.482c-0.728-0.273-1.317-0.408-1.768-0.405
				c-0.448-0.007-0.896,0.121-1.344,0.381c-0.703,0.408-1.144,0.993-1.323,1.755c-0.179,0.764-0.053,1.516,0.377,2.257
				c0.441,0.758,1.027,1.251,1.758,1.478c0.737,0.224,1.456,0.132,2.159-0.277c0.448-0.26,0.788-0.588,1.019-0.98
				c0.222-0.381,0.401-0.973,0.534-1.776l1.432,2.465c-0.531,0.834-1.175,1.471-1.933,1.911c-1.251,0.726-2.532,0.931-3.843,0.609
				c-1.314-0.325-2.321-1.091-3.022-2.298c-0.701-1.207-0.866-2.472-0.496-3.797c0.371-1.326,1.175-2.348,2.415-3.068
				C530.612,496.502,531.475,496.255,532.406,496.226z"/>
		</g>
		<g>
			<path fill="#FFFFFF" d="M532.435,487.805l4.966,8.552l1.113-4.143l2.508-1.457l-1.541,5.436l6.494,2.503l-2.425,1.408
				l-4.656-1.861l-0.125,0.472l1.808,3.115l-1.868,1.085l-8.143-14.024L532.435,487.805z"/>
		</g>
		<g>
			<path fill="#FFFFFF" d="M548.445,486.448l1.876-1.09l4.697,8.087l-1.877,1.09l-0.493-0.846c-0.351,1.166-0.97,2.006-1.855,2.521
				c-1.118,0.649-2.277,0.783-3.478,0.397c-1.203-0.403-2.164-1.223-2.881-2.457c-0.705-1.213-0.928-2.433-0.672-3.663
				c0.256-1.229,0.929-2.161,2.019-2.793c0.941-0.546,2.01-0.649,3.207-0.308L548.445,486.448z M546.344,493.041
				c0.451,0.775,1.024,1.285,1.722,1.531c0.712,0.246,1.393,0.18,2.04-0.196c0.692-0.401,1.113-0.964,1.263-1.688
				c0.141-0.739-0.009-1.489-0.451-2.248c-0.44-0.758-1.016-1.26-1.729-1.505c-0.705-0.234-1.398-0.153-2.079,0.242
				c-0.642,0.373-1.038,0.928-1.186,1.666C545.783,491.583,545.924,492.315,546.344,493.041z"/>
		</g>
		<g>
			<path fill="#FFFFFF" d="M555.618,484.614l3.684,6.345l-1.867,1.084l-3.684-6.344l-0.797,0.463l-1.013-1.744l0.797-0.462
				l-1.721-2.965l1.868-1.084l1.721,2.964l1.453-0.844l1.013,1.744L555.618,484.614z"/>
		</g>
		<g>
			<path fill="#FFFFFF" d="M553.883,475.352l1.867-1.085l3.838,6.609c0.317-0.984,0.877-1.708,1.68-2.174
				c0.913-0.531,1.816-0.659,2.708-0.384c0.764,0.245,1.473,0.931,2.129,2.061l2.878,4.957l-1.868,1.085l-2.777-4.783
				c-0.376-0.647-0.764-1.05-1.161-1.207c-0.399-0.157-0.853-0.087-1.362,0.209c-0.653,0.379-0.995,0.846-1.026,1.406
				c-0.022,0.56,0.256,1.339,0.834,2.335l2.271,3.911l-1.868,1.085L553.883,475.352z"/>
		</g>
		<g>
			<path fill="#FFFFFF" d="M568.587,480.082c-0.679-1.168-0.837-2.404-0.478-3.709c0.361-1.303,1.141-2.306,2.343-3.002
				c1.207-0.701,2.47-0.883,3.79-0.547c1.309,0.343,2.313,1.115,3.01,2.316c0.704,1.213,0.875,2.472,0.515,3.776
				c-0.369,1.302-1.164,2.308-2.388,3.018c-1.213,0.705-2.469,0.879-3.771,0.524C570.314,482.114,569.306,481.322,568.587,480.082z
				 M570.516,479.006c0.469,0.808,1.056,1.322,1.762,1.542c0.719,0.219,1.44,0.118,2.166-0.302c0.73-0.425,1.178-0.998,1.343-1.723
				c0.164-0.724,0.017-1.479-0.44-2.267c-0.456-0.786-1.04-1.287-1.75-1.504c-0.719-0.217-1.441-0.117-2.166,0.305
				c-0.715,0.415-1.155,0.988-1.321,1.72C569.943,477.511,570.079,478.253,570.516,479.006z"/>
		</g>
		<g>
			<path fill="#FFFFFF" d="M576.876,469.939l1.877-1.09l0.433,0.747c0.278-1.027,0.825-1.778,1.645-2.253
				c0.942-0.546,1.846-0.677,2.716-0.389c0.747,0.239,1.451,0.93,2.113,2.071l2.878,4.957l-1.877,1.09l-2.623-4.518
				c-0.463-0.797-0.893-1.284-1.292-1.46c-0.396-0.185-0.878-0.111-1.449,0.219c-0.62,0.36-0.942,0.821-0.963,1.382
				c-0.02,0.551,0.263,1.331,0.847,2.338l2.267,3.903l-1.877,1.09L576.876,469.939z"/>
		</g>
		<g>
			<path fill="#FFFFFF" d="M598.169,465.959l4.774-2.772l1.057,1.819l-8.611,4.999l1.322-7.973c0.125-0.791,0.222-1.469,0.29-2.034
				c0.068-0.564,0.102-1.025,0.103-1.381c0.013-0.703-0.101-1.262-0.341-1.677c-0.347-0.598-0.848-0.977-1.503-1.137
				c-0.656-0.16-1.293-0.059-1.913,0.301c-1.295,0.752-1.592,1.949-0.89,3.592l-1.927,1.119c-1.259-2.882-0.678-5.026,1.74-6.43
				c1.168-0.678,2.364-0.875,3.586-0.594c1.228,0.279,2.16,0.966,2.796,2.062c0.405,0.698,0.617,1.489,0.635,2.375
				c0.013,0.458-0.021,1.031-0.105,1.72c-0.085,0.691-0.215,1.522-0.389,2.496L598.169,465.959z"/>
		</g>
		<g>
			<path fill="#FFFFFF" d="M602.413,457.244c-1.186-2.043-1.656-3.949-1.412-5.72c0.213-1.595,0.925-2.747,2.138-3.451
				c1.212-0.704,2.564-0.751,4.057-0.145c1.659,0.666,3.097,2.046,4.316,4.144c1.214,2.093,1.7,4.025,1.455,5.795
				c-0.214,1.596-0.923,2.745-2.129,3.446c-1.207,0.701-2.562,0.751-4.065,0.15C605.113,460.798,603.66,459.391,602.413,457.244z
				 M604.319,456.148c0.826,1.423,1.758,2.461,2.797,3.116c1.03,0.639,1.926,0.736,2.69,0.292c0.758-0.44,1.118-1.267,1.08-2.481
				c-0.036-1.208-0.46-2.513-1.273-3.913c-0.813-1.401-1.737-2.419-2.772-3.054c-1.032-0.629-1.927-0.724-2.684-0.284
				c-0.753,0.437-1.112,1.26-1.077,2.468C603.113,453.496,603.525,454.782,604.319,456.148z"/>
		</g>
		<g>
			<path fill="#FFFFFF" d="M614.171,444.377l-2.217,1.287l0.012-2.426l3.089-1.793l7.443,12.821l-1.935,1.123L614.171,444.377z"/>
		</g>
		<g>
			<path fill="#FFFFFF" d="M625.536,443.586c-1.327-0.118-2.323-0.75-2.988-1.896c-0.604-1.041-0.752-2.118-0.442-3.229
				c0.314-1.116,1.005-1.984,2.074-2.605c1.062-0.617,2.151-0.782,3.265-0.495c1.11,0.28,1.97,0.946,2.581,1.998
				c0.639,1.101,0.694,2.274,0.164,3.514c0.675-0.023,1.314,0.147,1.916,0.507c0.607,0.359,1.104,0.869,1.49,1.533
				c0.659,1.135,0.828,2.281,0.507,3.436c-0.32,1.157-1.059,2.07-2.217,2.742c-1.185,0.687-2.373,0.889-3.567,0.606
				c-1.2-0.281-2.12-0.974-2.763-2.082C624.72,446.176,624.713,444.833,625.536,443.586z M624.362,440.625
				c0.318,0.547,0.77,0.899,1.356,1.055c0.595,0.157,1.159,0.083,1.691-0.226c0.526-0.305,0.867-0.755,1.025-1.35
				c0.158-0.595,0.085-1.155-0.221-1.682c-0.306-0.525-0.756-0.867-1.351-1.026c-0.595-0.157-1.155-0.083-1.681,0.221
				c-0.526,0.306-0.867,0.756-1.026,1.351C623.997,439.564,624.066,440.116,624.362,440.625z M627.418,446.444
				c0.344,0.592,0.845,0.984,1.502,1.171c0.659,0.179,1.285,0.097,1.878-0.247c0.586-0.341,0.966-0.839,1.141-1.495
				c0.171-0.663,0.086-1.286-0.255-1.873c-0.344-0.592-0.844-0.975-1.5-1.15c-0.656-0.174-1.277-0.09-1.864,0.25
				c-0.581,0.337-0.962,0.836-1.141,1.495C627.004,445.253,627.085,445.869,627.418,446.444z"/>
		</g>
	</g>
	<g>
		<g>
			<path fill="#FFFFFF" d="M428.971,560.004c-0.084-0.142-0.168-0.283-0.251-0.426c-0.082-0.143-0.162-0.287-0.205-0.448
				c-0.034-0.126-0.108-0.234-0.166-0.349c-0.042-0.083-0.091-0.163-0.096-0.26c-0.001-0.021-0.006-0.043-0.015-0.062
				c-0.084-0.166-0.148-0.338-0.202-0.517c-0.05-0.163-0.094-0.328-0.142-0.492c-0.066-0.225-0.116-0.456-0.161-0.687
				c-0.064-0.328-0.111-0.658-0.142-0.991c-0.04-0.429-0.05-0.857-0.041-1.288c0.006-0.328,0.052-0.651,0.082-0.977
				c0.027-0.29,0.109-0.57,0.155-0.856c0.06-0.369,0.175-0.72,0.283-1.075c0.168-0.55,0.396-1.076,0.662-1.584
				c0.175-0.333,0.372-0.656,0.576-0.973c0.114-0.176,0.233-0.353,0.368-0.513c0.132-0.156,0.236-0.336,0.396-0.467
				c0.057-0.047,0.066-0.127,0.131-0.167c0.055-0.034,0.091-0.086,0.127-0.142c0.058-0.09,0.156-0.142,0.228-0.224
				c0.116-0.134,0.253-0.25,0.387-0.367c0.156-0.136,0.324-0.259,0.477-0.399c0.144-0.131,0.304-0.238,0.461-0.351
				c0.338-0.242,0.68-0.479,1.051-0.666c0.472-0.239,0.949-0.468,1.45-0.644c0.188-0.066,0.377-0.133,0.568-0.188
				c0.155-0.044,0.305-0.122,0.473-0.12c0.114-0.069,0.253-0.04,0.37-0.095c0.092-0.044,0.194-0.031,0.291-0.054
				c0.211-0.049,0.429-0.073,0.645-0.094c0.409-0.04,0.82-0.062,1.231-0.058c0.411,0.004,0.819,0.052,1.228,0.091
				c0.407,0.039,0.796,0.163,1.199,0.216c0.063,0.008,0.124,0.033,0.185,0.053c0.135,0.044,0.266,0.1,0.403,0.132
				c0.343,0.079,0.661,0.22,0.981,0.36c0.252,0.11,0.506,0.217,0.749,0.345c0.262,0.138,0.515,0.294,0.767,0.452
				c0.338,0.212,0.66,0.448,0.963,0.705c0.172,0.146,0.364,0.273,0.502,0.457c0.146,0.07,0.201,0.24,0.345,0.315
				c0.035,0.018,0.058,0.062,0.083,0.097c0.051,0.07,0.1,0.138,0.172,0.189c0.039,0.028,0.071,0.07,0.1,0.11
				c0.062,0.088,0.119,0.176,0.211,0.24c0.045,0.031,0.075,0.086,0.106,0.133c0.094,0.144,0.186,0.289,0.301,0.418
				c0.125,0.14,0.22,0.3,0.315,0.46c0.113,0.191,0.226,0.383,0.338,0.574c0.094,0.161,0.189,0.321,0.249,0.499
				c0.051,0.15,0.127,0.288,0.2,0.427c0.043,0.082,0.094,0.162,0.093,0.26c0,0.014,0.003,0.029,0.009,0.042
				c0.081,0.159,0.138,0.326,0.186,0.498c0.026,0.095,0.07,0.182,0.086,0.284c0.018,0.117,0.066,0.231,0.097,0.348
				c0.09,0.336,0.155,0.675,0.209,1.019c0.076,0.485,0.112,0.97,0.118,1.461c0.003,0.255-0.027,0.508-0.012,0.762
				c-0.074,0.512-0.106,1.031-0.238,1.535c-0.038,0.144-0.055,0.294-0.096,0.437c-0.067,0.234-0.148,0.463-0.217,0.696
				c-0.076,0.259-0.196,0.501-0.295,0.75c-0.235,0.589-0.558,1.133-0.894,1.668c-0.174,0.186-0.28,0.422-0.458,0.607
				c-0.066,0.069-0.119,0.156-0.184,0.23c-0.144,0.165-0.272,0.346-0.431,0.495c-0.119,0.112-0.212,0.253-0.356,0.338
				c-0.278,0.311-0.623,0.545-0.936,0.816c-0.011,0.009-0.022,0.018-0.034,0.026c-0.412,0.273-0.803,0.579-1.25,0.793
				c-0.335,0.16-0.658,0.345-1.009,0.475c-0.214,0.079-0.429,0.16-0.641,0.245c-0.138,0.055-0.286,0.086-0.428,0.133
				c-0.175,0.057-0.354,0.109-0.535,0.138c-0.215,0.034-0.422,0.117-0.644,0.113c-0.43,0.097-0.868,0.127-1.306,0.141
				c-0.418,0.013-0.838,0.02-1.255-0.042c-0.195-0.029-0.395-0.034-0.59-0.064c-0.238-0.037-0.473-0.097-0.711-0.134
				c-0.453-0.07-0.876-0.243-1.312-0.369c-0.231-0.066-0.446-0.184-0.671-0.274c-0.33-0.132-0.642-0.3-0.951-0.473
				c-0.382-0.213-0.744-0.459-1.096-0.719c-0.195-0.144-0.38-0.302-0.562-0.463c-0.177-0.155-0.339-0.326-0.511-0.485
				c-0.125-0.117-0.218-0.265-0.362-0.362c-0.028-0.019-0.048-0.053-0.068-0.082c-0.077-0.112-0.152-0.223-0.262-0.31
				c-0.059-0.047-0.096-0.124-0.137-0.191c-0.08-0.128-0.169-0.248-0.272-0.359c-0.049-0.052-0.092-0.11-0.129-0.17
				c-0.112-0.184-0.219-0.37-0.328-0.555C428.973,560.002,428.972,560.003,428.971,560.004z M435.74,555.867
				c0.194-0.157,0.371-0.327,0.572-0.46c0.406-0.267,0.816-0.532,1.273-0.71c0.188-0.073,0.354-0.193,0.541-0.26
				c0.34-0.122,0.646-0.305,0.955-0.486c0.167-0.098,0.332-0.197,0.465-0.342c0.033-0.036,0.076-0.067,0.12-0.09
				c0.169-0.089,0.258-0.266,0.414-0.369c0.204-0.278,0.423-0.545,0.54-0.88c0.167-0.478,0.171-0.947-0.036-1.412
				c-0.079-0.177-0.18-0.342-0.293-0.5c-0.183-0.255-0.422-0.443-0.705-0.57c-0.314-0.141-0.643-0.207-0.99-0.209
				c-0.3-0.001-0.59,0.03-0.872,0.133c-0.019,0.007-0.042,0.011-0.063,0.008c-0.069-0.008-0.125,0.026-0.182,0.055
				c-0.28,0.145-0.55,0.307-0.813,0.481c-0.042,0.028-0.089,0.051-0.11,0.099c-0.031,0.071-0.093,0.106-0.151,0.148
				c-0.029,0.021-0.064,0.039-0.083,0.067c-0.115,0.17-0.263,0.312-0.382,0.48c-0.203,0.287-0.371,0.593-0.487,0.92
				c-0.205,0.579-0.297,1.179-0.276,1.796c0.013,0.38,0.073,0.753,0.166,1.119c0.034,0.137,0.054,0.281,0.126,0.409
				c0.042,0.075,0.065,0.156,0.085,0.241C435.582,555.659,435.633,555.777,435.74,555.867z M436.931,555.797
				c-0.093,0.055-0.183,0.113-0.278,0.163c-0.104,0.054-0.18,0.14-0.259,0.222c-0.025,0.025-0.058,0.041-0.087,0.063
				c-0.102,0.077-0.226,0.124-0.296,0.242c-0.066,0.11-0.221,0.14-0.258,0.279c-0.162,0.181-0.281,0.387-0.386,0.606
				c-0.235,0.487-0.22,0.979-0.029,1.464c0.124,0.313,0.338,0.566,0.615,0.774c0.34,0.255,0.721,0.371,1.13,0.385
				c0.365,0.012,0.734-0.009,1.073-0.18c0.037-0.019,0.083-0.021,0.124-0.032c0.041-0.011,0.084-0.02,0.122-0.038
				c0.371-0.172,0.723-0.448,1.019-0.765c0.121-0.13,0.232-0.263,0.339-0.404c0.28-0.37,0.455-0.785,0.591-1.223
				c0.061-0.198,0.079-0.404,0.119-0.606c0.036-0.182,0.045-0.367,0.045-0.55c-0.001-0.364-0.035-0.725-0.109-1.083
				c-0.02-0.1-0.068-0.188-0.084-0.287c-0.034-0.213-0.132-0.405-0.199-0.607c-0.013-0.04-0.038-0.077-0.061-0.114
				c-0.034-0.055-0.06-0.058-0.12-0.014c-0.143,0.107-0.293,0.205-0.42,0.333c-0.05,0.05-0.112,0.089-0.173,0.125
				c-0.271,0.161-0.543,0.32-0.816,0.477c-0.074,0.042-0.153,0.079-0.235,0.104c-0.124,0.039-0.239,0.095-0.352,0.157
				c-0.12,0.065-0.236,0.14-0.363,0.184C437.35,555.552,437.139,555.67,436.931,555.797z"/>
		</g>
		<g>
			<path fill="#FFFFFF" d="M476.811,533.663c0.702,1.192,1.405,2.384,2.107,3.576c0.053,0.09,0.109,0.178,0.157,0.271
				c0.079,0.152,0.058,0.224-0.092,0.326c-0.076,0.051-0.156,0.095-0.235,0.142c-0.562,0.331-1.123,0.665-1.687,0.993
				c-0.537,0.313-0.433,0.341-0.746-0.178c-0.067-0.112-0.132-0.225-0.2-0.337c-0.02-0.033-0.041-0.069-0.071-0.092
				c-0.029-0.022-0.069-0.032-0.101,0.007c-0.052,0.063-0.073,0.138-0.084,0.216c-0.068,0.513-0.295,0.966-0.586,1.377
				c-0.144,0.204-0.287,0.435-0.531,0.558c-0.057,0.029-0.107,0.076-0.15,0.124c-0.276,0.314-0.612,0.52-1.025,0.601
				c-0.05,0.01-0.099,0.033-0.145,0.058c-0.399,0.213-0.834,0.241-1.274,0.273c-0.511,0.037-1.005-0.036-1.491-0.172
				c-0.423-0.118-0.823-0.298-1.192-0.539c-0.151-0.099-0.297-0.205-0.444-0.309c-0.22-0.157-0.43-0.328-0.598-0.543
				c-0.056-0.072-0.102-0.156-0.17-0.214c-0.4-0.341-0.597-0.818-0.853-1.255c-0.045-0.076-0.058-0.171-0.085-0.258
				c-0.027-0.087-0.043-0.18-0.083-0.26c-0.201-0.402-0.252-0.837-0.298-1.275c-0.077-0.736,0.025-1.45,0.289-2.135
				c0.163-0.421,0.402-0.804,0.665-1.177c0.191-0.271,0.497-0.416,0.667-0.697c0.389-0.23,0.731-0.553,1.207-0.611
				c0.038-0.005,0.076-0.021,0.111-0.036c0.491-0.221,1.004-0.223,1.523-0.156c0.206,0.027,0.413,0.061,0.606,0.143
				c0.087,0.037,0.174,0.052,0.266,0.044c0.048-0.004,0.065-0.049,0.051-0.082c-0.036-0.084-0.081-0.163-0.126-0.242
				c-0.103-0.181-0.21-0.361-0.313-0.542c-0.046-0.081-0.024-0.149,0.053-0.199c0.131-0.086,0.258-0.177,0.393-0.258
				c0.505-0.3,1.01-0.6,1.519-0.894c0.146-0.085,0.301-0.156,0.455-0.226c0.079-0.036,0.153-0.012,0.201,0.067
				c0.054,0.089,0.108,0.179,0.161,0.268C475.38,531.233,476.095,532.448,476.811,533.663z M470.278,537.483
				c0.204,0.377,0.506,0.651,0.864,0.872c0.554,0.342,1.135,0.48,1.771,0.263c0.049-0.017,0.101-0.031,0.152-0.034
				c0.163-0.012,0.294-0.096,0.433-0.169c0.25-0.132,0.37-0.401,0.598-0.556c0.291-0.471,0.47-0.968,0.427-1.537
				c-0.018-0.237-0.1-0.451-0.151-0.677c-0.047-0.209-0.128-0.402-0.256-0.566c-0.297-0.381-0.642-0.717-1.09-0.913
				c-0.698-0.305-1.387-0.28-2.05,0.115c-0.202,0.12-0.368,0.269-0.522,0.455c-0.143,0.173-0.267,0.347-0.348,0.551
				C469.806,536.046,469.892,536.777,470.278,537.483z"/>
		</g>
		<g>
			<path fill="#FFFFFF" d="M491.952,524.422c0.729,1.238,1.459,2.476,2.188,3.714c0.148,0.251,0.22,0.288-0.114,0.484
				c-0.676,0.397-1.351,0.795-2.026,1.193c-0.022,0.013-0.045,0.027-0.068,0.039c-0.178,0.092-0.214,0.085-0.316-0.078
				c-0.097-0.155-0.186-0.315-0.28-0.472c-0.033-0.056-0.065-0.114-0.105-0.165c-0.021-0.027-0.058-0.05-0.091-0.056
				c-0.053-0.009-0.062,0.043-0.064,0.078c-0.015,0.209-0.062,0.408-0.129,0.608c-0.128,0.383-0.317,0.722-0.579,1.034
				c-0.137,0.163-0.28,0.301-0.448,0.422c-0.032,0.023-0.067,0.045-0.089,0.076c-0.231,0.322-0.58,0.497-0.922,0.639
				c-0.366,0.152-0.745,0.322-1.15,0.338c-0.752,0.03-1.464-0.095-2.075-0.596c-0.174-0.143-0.336-0.283-0.455-0.473
				c-0.034-0.055-0.069-0.116-0.12-0.154c-0.239-0.178-0.376-0.432-0.522-0.678c-0.978-1.652-1.954-3.306-2.929-4.96
				c-0.18-0.305-0.177-0.311,0.111-0.482c0.651-0.387,1.305-0.77,1.958-1.155c0.045-0.027,0.089-0.054,0.136-0.077
				c0.141-0.069,0.219-0.054,0.304,0.067c0.06,0.085,0.11,0.177,0.163,0.267c0.677,1.148,1.352,2.296,2.03,3.443
				c0.16,0.27,0.325,0.536,0.496,0.799c0.205,0.314,0.602,0.612,0.946,0.777c0.151,0.073,0.314,0.105,0.452,0.079
				c0.429-0.081,0.884-0.133,1.152-0.557c0.076-0.12,0.211-0.178,0.285-0.313c0.201-0.365,0.22-0.747,0.146-1.137
				c-0.073-0.385-0.214-0.744-0.419-1.086c-0.739-1.232-1.462-2.474-2.19-3.713c-0.298-0.506-0.302-0.433,0.185-0.723
				c0.584-0.347,1.17-0.691,1.756-1.034c0.09-0.053,0.182-0.102,0.277-0.146c0.066-0.03,0.131-0.008,0.171,0.051
				c0.066,0.097,0.128,0.197,0.187,0.299C490.52,521.991,491.236,523.207,491.952,524.422z"/>
		</g>
		<g>
			<path fill="#FFFFFF" d="M455.812,547.441c0.337-0.199,0.675-0.397,1.012-0.597c0.156-0.092,0.214-0.128,0.357,0.054
				c0.23,0.291,0.539,0.438,0.914,0.381c0.376-0.057,0.737-0.163,1.048-0.4c0.18-0.136,0.304-0.321,0.436-0.494
				c0.102-0.133,0.119-0.305,0.045-0.482c-0.147-0.352-0.342-0.496-0.722-0.467c-0.246,0.019-0.492,0.056-0.733,0.109
				c-0.531,0.116-1.055,0.276-1.59,0.366c-0.505,0.085-1.003,0.229-1.524,0.218c-0.418-0.009-0.819-0.062-1.192-0.265
				c-0.241-0.131-0.472-0.271-0.617-0.517c-0.033-0.056-0.075-0.108-0.123-0.152c-0.139-0.126-0.231-0.278-0.276-0.461
				c-0.019-0.075-0.052-0.148-0.087-0.218c-0.372-0.753-0.249-1.485,0.121-2.189c0.141-0.269,0.3-0.544,0.56-0.73
				c0.104-0.227,0.316-0.338,0.508-0.471c0.053-0.037,0.104-0.08,0.148-0.127c0.417-0.453,0.984-0.675,1.501-0.972
				c0.21-0.025,0.407-0.089,0.586-0.2c0.173-0.107,0.39-0.038,0.562-0.147c0.604-0.069,1.204-0.116,1.79,0.127
				c0.44,0.182,0.825,0.429,1.122,0.804c0.073,0.092,0.152,0.179,0.222,0.274c0.12,0.164,0.106,0.224-0.075,0.342
				c-0.044,0.029-0.089,0.054-0.134,0.08c-0.596,0.351-1.192,0.703-1.789,1.054c-0.068,0.04-0.134,0.083-0.204,0.116
				c-0.112,0.053-0.196,0.034-0.278-0.06c-0.051-0.059-0.09-0.129-0.143-0.186c-0.154-0.163-0.336-0.285-0.565-0.295
				c-0.391-0.018-0.754,0.069-1.025,0.375c-0.127,0.144-0.291,0.254-0.355,0.457c-0.131,0.412,0.135,0.882,0.564,0.934
				c0.191,0.023,0.394,0.017,0.583-0.018c0.486-0.091,0.967-0.208,1.451-0.313c0.605-0.131,1.198-0.323,1.821-0.36
				c0.468-0.027,0.929-0.01,1.357,0.23c0.172,0.096,0.341,0.2,0.466,0.344c0.272,0.314,0.506,0.647,0.668,1.047
				c0.328,0.81,0.206,1.571-0.126,2.331c-0.108,0.247-0.41,0.644-0.617,0.833c-0.124,0.113-0.182,0.282-0.342,0.368
				c-0.137,0.073-0.283,0.156-0.381,0.271c-0.245,0.287-0.573,0.448-0.886,0.634c-0.146,0.086-0.296,0.162-0.463,0.206
				c-0.125,0.033-0.256,0.075-0.362,0.146c-0.28,0.186-0.609,0.236-0.919,0.309c-0.255,0.06-0.527,0.105-0.802,0.097
				c-0.378-0.011-0.754-0.05-1.101-0.189c-0.369-0.147-0.739-0.315-0.991-0.651c-0.243-0.127-0.367-0.358-0.505-0.577
				c-0.021-0.033-0.041-0.067-0.058-0.102c-0.052-0.105-0.04-0.159,0.068-0.227c0.211-0.13,0.426-0.255,0.639-0.381
				C455.519,547.613,455.665,547.527,455.812,547.441C455.811,547.441,455.811,547.441,455.812,547.441z"/>
		</g>
		<g>
			<path fill="#FFFFFF" d="M497.911,518.774c-0.304,0.179-0.607,0.358-0.911,0.536c-0.079,0.046-0.159,0.091-0.241,0.13
				c-0.066,0.031-0.128,0.014-0.172-0.045c-0.078-0.103-0.145-0.213-0.249-0.299c-0.466-0.382-1.094-0.251-1.5,0.105
				c-0.097,0.086-0.186,0.183-0.266,0.286c-0.283,0.363-0.257,0.88,0.277,1.129c0.045,0.021,0.1,0.028,0.15,0.029
				c0.234,0.005,0.467,0.009,0.699-0.042c0.482-0.105,0.967-0.199,1.446-0.322c0.337-0.087,0.676-0.188,1.018-0.243
				c0.491-0.079,0.986-0.149,1.491-0.051c0.421,0.082,0.769,0.281,1.091,0.543c0.049,0.04,0.082,0.101,0.116,0.157
				c0.124,0.2,0.247,0.4,0.367,0.602c0.388,0.653,0.391,1.346,0.217,2.059c-0.116,0.476-0.406,0.857-0.669,1.253
				c-0.251,0.183-0.393,0.483-0.686,0.623c-0.08,0.038-0.152,0.102-0.216,0.166c-0.396,0.394-0.869,0.659-1.393,0.841
				c-0.111,0.038-0.221,0.082-0.325,0.136c-0.625,0.324-1.299,0.413-1.988,0.381c-0.5-0.023-0.967-0.177-1.385-0.466
				c-0.38-0.263-0.699-0.581-0.921-0.989c-0.083-0.153-0.069-0.227,0.09-0.321c0.662-0.394,1.326-0.784,1.99-1.174
				c0.022-0.013,0.045-0.027,0.069-0.037c0.151-0.065,0.239-0.056,0.337,0.089c0.187,0.277,0.453,0.376,0.767,0.368
				c0.45-0.011,1.13-0.25,1.409-0.641c0.13-0.182,0.274-0.339,0.283-0.576c0.008-0.213-0.189-0.5-0.388-0.571
				c-0.191-0.068-0.386-0.077-0.577-0.041c-0.37,0.07-0.735,0.167-1.105,0.235c-0.407,0.074-0.802,0.207-1.217,0.247
				c-0.191,0.019-0.375,0.088-0.568,0.118c-0.431,0.067-0.895,0.091-1.3,0.036c-0.605-0.083-1.07-0.399-1.414-0.88
				c-0.423-0.589-0.632-1.245-0.528-1.984c0.063-0.449,0.256-0.839,0.508-1.202c0.153-0.221,0.335-0.422,0.512-0.625
				c0.059-0.067,0.142-0.114,0.215-0.167c0.125-0.092,0.26-0.165,0.342-0.312c0.041-0.073,0.135-0.12,0.212-0.167
				c0.266-0.165,0.534-0.328,0.804-0.487c0.191-0.113,0.38-0.228,0.61-0.252c0.063-0.006,0.126-0.036,0.182-0.067
				c0.314-0.168,0.652-0.226,1.002-0.267c0.231-0.028,0.456-0.045,0.689-0.043c0.568,0.005,1.073,0.191,1.521,0.51
				c0.303,0.216,0.586,0.474,0.748,0.829c0.049,0.108,0.04,0.155-0.064,0.228c-0.021,0.015-0.044,0.028-0.066,0.042
				C498.585,518.376,498.248,518.575,497.911,518.774C497.911,518.774,497.911,518.774,497.911,518.774z"/>
		</g>
		<g>
			<path fill="#FFFFFF" d="M478.446,532.517c-0.345-0.585-0.689-1.17-1.034-1.754c-0.046-0.079-0.091-0.159-0.142-0.234
				c-0.085-0.125-0.166-0.151-0.3-0.08c-0.207,0.111-0.407,0.235-0.611,0.352c-0.09,0.052-0.18,0.108-0.275,0.15
				c-0.135,0.059-0.218,0.033-0.297-0.093c-0.111-0.177-0.214-0.359-0.32-0.538c-0.179-0.304-0.361-0.606-0.535-0.912
				c-0.102-0.179-0.087-0.235,0.093-0.348c0.21-0.131,0.427-0.253,0.64-0.38c0.079-0.047,0.156-0.095,0.233-0.144
				c0.079-0.051,0.089-0.131,0.06-0.206c-0.038-0.096-0.092-0.187-0.144-0.277c-0.337-0.574-0.677-1.147-1.013-1.722
				c-0.195-0.334-0.193-0.337,0.139-0.534c0.607-0.359,1.214-0.716,1.822-1.074c0.067-0.04,0.135-0.081,0.206-0.112
				c0.066-0.029,0.135-0.011,0.178,0.042c0.065,0.081,0.121,0.17,0.174,0.259c0.333,0.562,0.664,1.124,0.995,1.687
				c0.257,0.437,0.239,0.375,0.616,0.157c0.35-0.203,0.697-0.411,1.047-0.615c0.09-0.052,0.182-0.102,0.277-0.144
				c0.065-0.028,0.128-0.012,0.171,0.05c0.023,0.032,0.045,0.064,0.065,0.098c0.279,0.472,0.558,0.944,0.834,1.418
				c0.093,0.16,0.08,0.228-0.055,0.333c-0.072,0.056-0.152,0.102-0.23,0.148c-0.337,0.2-0.675,0.398-1.012,0.597
				c-0.078,0.047-0.156,0.095-0.231,0.147c-0.074,0.051-0.091,0.126-0.059,0.206c0.024,0.06,0.057,0.117,0.091,0.173
				c0.531,0.899,1.065,1.797,1.591,2.699c0.134,0.229,0.308,0.417,0.5,0.597c0.109,0.103,0.238,0.164,0.37,0.209
				c0.131,0.044,0.264,0.051,0.416,0.008c0.423-0.119,0.804-0.303,1.141-0.582c0.03-0.025,0.062-0.047,0.095-0.068
				c0.099-0.062,0.174-0.052,0.237,0.033c0.031,0.042,0.057,0.088,0.083,0.133c0.279,0.472,0.557,0.945,0.835,1.417
				c0.033,0.056,0.066,0.113,0.092,0.172c0.048,0.108,0.038,0.171-0.061,0.235c-0.567,0.369-1.049,0.862-1.671,1.152
				c-0.141,0.066-0.27,0.154-0.432,0.174c-0.088,0.011-0.173,0.055-0.255,0.093c-0.852,0.399-1.647,0.314-2.404-0.25
				c-0.392-0.292-0.717-0.632-0.962-1.054c-0.315-0.542-0.635-1.08-0.954-1.62C478.449,532.515,478.448,532.516,478.446,532.517z"/>
		</g>
		<g>
			<path fill="#FFFFFF" d="M462.625,541.811c-0.338-0.573-0.676-1.147-1.014-1.72c-0.053-0.09-0.104-0.181-0.164-0.266
				c-0.07-0.098-0.162-0.122-0.274-0.067c-0.105,0.051-0.205,0.114-0.307,0.173c-0.181,0.104-0.358,0.216-0.543,0.312
				c-0.178,0.092-0.258,0.07-0.357-0.094c-0.282-0.47-0.561-0.942-0.835-1.416c-0.115-0.199-0.1-0.244,0.109-0.372
				c0.245-0.15,0.495-0.29,0.741-0.44c0.216-0.131,0.23-0.182,0.108-0.408c-0.093-0.172-0.197-0.338-0.296-0.507
				c-0.258-0.439-0.517-0.877-0.775-1.316c-0.053-0.09-0.102-0.182-0.144-0.277c-0.029-0.065-0.011-0.128,0.051-0.171
				c0.032-0.022,0.064-0.045,0.098-0.064c0.674-0.398,1.348-0.797,2.024-1.192c0.175-0.102,0.244-0.085,0.358,0.077
				c0.052,0.074,0.096,0.155,0.142,0.234c0.305,0.517,0.61,1.034,0.914,1.552c0.046,0.079,0.09,0.159,0.141,0.235
				c0.12,0.179,0.166,0.193,0.348,0.088c0.395-0.229,0.788-0.461,1.181-0.694c0.459-0.272,0.419-0.232,0.648,0.155
				c0.24,0.404,0.479,0.808,0.715,1.215c0.117,0.202,0.108,0.247-0.076,0.388c-0.082,0.063-0.173,0.116-0.263,0.169
				c-0.314,0.187-0.63,0.371-0.944,0.557c-0.078,0.047-0.156,0.095-0.231,0.147c-0.075,0.053-0.083,0.132-0.052,0.21
				c0.029,0.072,0.071,0.139,0.111,0.207c0.503,0.855,1.011,1.707,1.509,2.564c0.16,0.275,0.357,0.511,0.598,0.716
				c0.233,0.198,0.479,0.262,0.788,0.175c0.411-0.115,0.776-0.3,1.104-0.567c0.04-0.033,0.084-0.063,0.131-0.084
				c0.064-0.028,0.13-0.018,0.177,0.037c0.042,0.049,0.078,0.104,0.111,0.16c0.279,0.472,0.557,0.944,0.835,1.417
				c0.026,0.045,0.053,0.09,0.074,0.138c0.053,0.123,0.037,0.192-0.069,0.27c-0.073,0.054-0.153,0.1-0.227,0.153
				c-0.106,0.076-0.219,0.145-0.311,0.236c-0.368,0.364-0.833,0.579-1.272,0.834c-0.066,0.038-0.145,0.057-0.221,0.072
				c-0.117,0.023-0.223,0.07-0.329,0.12c-0.838,0.393-1.629,0.3-2.37-0.245c-0.38-0.279-0.707-0.61-0.946-1.023
				c-0.328-0.564-0.662-1.125-0.993-1.687C462.629,541.809,462.627,541.81,462.625,541.811z"/>
		</g>
	</g>
</g>
</svg>
