<?xml version="1.0" encoding="utf-8"?>
<!-- Generator: Adobe Illustrator 21.0.2, SVG Export Plug-In . SVG Version: 6.00 Build 0)  -->
<svg version="1.1" id="Layer_1" xmlns="http://www.w3.org/2000/svg" xmlns:xlink="http://www.w3.org/1999/xlink" x="0px" y="0px"
	 viewBox="0 0 841.89 595.28" enable-background="new 0 0 841.89 595.28" xml:space="preserve">
<g>
	<polygon fill="#8C8C8C" points="413.437,588 162.519,443.132 162.519,153.396 413.437,8.527 664.357,153.396 664.357,443.131 	"/>
</g>
<g enable-background="new    ">
	<path fill="#FFFFFF" d="M413.432,54.379L201.908,176.327v243.887l211.523,121.935l211.535-121.935V176.327L413.432,54.379z
		 M616.402,415.3l-202.97,117.025L210.454,415.3V181.285L413.432,64.262l202.97,117.023V415.3z"/>
</g>
<g>
	<path fill="#FFFFFF" d="M349.842,380.823c-23.331,0-44.49-16.05-49.978-39.729c-5.905-25.477,8.305-51.14,32.59-59.851
		l-0.052-0.276l3.375-0.796c0.815-0.232,1.651-0.448,2.484-0.642c0.839-0.193,1.685-0.368,2.515-0.517l118.526-27.47
		c0.819-0.233,1.654-0.448,2.482-0.641c0.839-0.194,1.685-0.368,2.513-0.517l3.265-0.758l0.072,0.269
		c25.664-2.931,49.742,13.848,55.656,39.368c6.382,27.534-10.827,55.126-38.361,61.507c-0.588,0.137-2.803,0.402-16.337,1.9
		c-4.142,0.458-8.418,0.931-9.247,1.039l-67.633,15.674c-0.591,0.196-2.56,0.861-5.224,1.763c-17.856,6.035-24.18,8.141-25.06,8.345
		C357.549,380.392,353.666,380.823,349.842,380.823z M337.918,286.84l-0.479,0.143c-22.554,6.557-36.063,29.631-30.756,52.531
		c5.517,23.799,29.363,38.672,53.166,33.16c1.311-0.354,17.49-5.823,24.398-8.158c2.978-1.006,5.099-1.723,5.441-1.834l0.29-0.08
		l68.138-15.784c0.429-0.073,2.454-0.301,9.706-1.104c5.776-0.639,14.464-1.601,15.605-1.779
		c23.728-5.544,38.548-29.342,33.045-53.09c-5.317-22.944-27.632-37.698-50.804-33.592l-0.351,0.062
		c-0.651,0.121-1.302,0.257-1.952,0.407c-0.752,0.175-1.493,0.366-2.225,0.576l-0.173,0.044l-118.877,27.547
		c-0.75,0.133-1.5,0.287-2.25,0.461C339.193,286.499,338.552,286.663,337.918,286.84z"/>
</g>
<g>
	<path fill="#FFFFFF" d="M475.076,336.306c-6.534,0-12.953-1.823-18.635-5.367c-8.009-4.996-13.593-12.812-15.724-22.007
		s-0.554-18.67,4.441-26.679c4.995-8.008,12.81-13.593,22.006-15.724c9.193-2.13,18.67-0.554,26.68,4.44
		c8.009,4.995,13.594,12.811,15.725,22.007l0,0c2.131,9.194,0.554,18.67-4.442,26.679c-4.995,8.01-12.811,13.594-22.006,15.725
		C480.449,335.999,477.752,336.306,475.076,336.306z M475.203,269.605c-2.374,0-4.765,0.271-7.136,0.82
		c-8.154,1.891-15.085,6.843-19.515,13.944c-4.43,7.103-5.828,15.505-3.938,23.659s6.842,15.085,13.944,19.515
		c7.102,4.431,15.506,5.827,23.66,3.939c8.154-1.89,15.085-6.842,19.515-13.945c4.43-7.103,5.829-15.505,3.939-23.659
		s-6.843-15.085-13.945-19.515C486.689,271.223,480.997,269.605,475.203,269.605z"/>
</g>
<g>
	<g>
		<g>
			<path fill="#FFFFFF" d="M426.502,258.178c25.043-1.705,50.086-3.408,75.13-5.112c3.193-0.217,3.217-5.219,0-5
				c-25.043,1.704-50.087,3.407-75.13,5.112C423.309,253.396,423.285,258.397,426.502,258.178L426.502,258.178z"/>
		</g>
	</g>
	<g>
		<g>
			<path fill="#FFFFFF" d="M428.398,255.896c-1.052-15.459-2.104-30.919-3.156-46.378c-0.217-3.193-5.219-3.217-5,0
				c1.052,15.459,2.104,30.919,3.156,46.378C423.615,259.089,428.617,259.113,428.398,255.896L428.398,255.896z"/>
		</g>
	</g>
	<g>
		<g>
			<path fill="#FFFFFF" d="M420.801,210.886c6.338,5.53,12.675,11.06,19.013,16.59c2.415,2.107,5.966-1.415,3.536-3.536
				c-6.338-5.53-12.675-11.06-19.013-16.59C421.921,205.243,418.371,208.765,420.801,210.886L420.801,210.886z"/>
		</g>
	</g>
	<g>
		<g>
			<path fill="#FFFFFF" d="M443.616,227.928c6.403-7.339,12.806-14.677,19.21-22.015c2.107-2.415-1.415-5.965-3.536-3.536
				c-6.404,7.338-12.807,14.676-19.21,22.015C437.973,226.808,441.496,230.359,443.616,227.928L443.616,227.928z"/>
		</g>
	</g>
	<g>
		<g>
			<path fill="#FFFFFF" d="M459.233,205.947c6.921,6.04,13.843,12.079,20.765,18.118c2.415,2.107,5.965-1.415,3.536-3.536
				c-6.921-6.04-13.843-12.079-20.765-18.118C460.353,200.304,456.803,203.826,459.233,205.947L459.233,205.947z"/>
		</g>
	</g>
	<g>
		<g>
			<path fill="#FFFFFF" d="M483.537,224.125c5.603-6.422,11.205-12.843,16.809-19.264c2.107-2.415-1.415-5.965-3.536-3.536
				c-5.604,6.421-11.206,12.842-16.809,19.264C477.894,223.004,481.417,226.555,483.537,224.125L483.537,224.125z"/>
		</g>
	</g>
	<g>
		<g>
			<path fill="#FFFFFF" d="M495.96,203.954c1.057,15.538,2.115,31.075,3.172,46.613c0.217,3.193,5.219,3.217,5,0
				c-1.057-15.538-2.115-31.075-3.172-46.613C500.742,200.761,495.741,200.736,495.96,203.954L495.96,203.954z"/>
		</g>
	</g>
</g>
<g>
	<g>
		<path fill="#FFFFFF" d="M414.027,198.16c-3.233,5.117-4.431,10.988-3.688,16.979c0.391,3.152,5.395,3.191,5,0
			c-0.644-5.199,0.186-9.993,3.006-14.455C420.068,197.956,415.743,195.444,414.027,198.16L414.027,198.16z"/>
	</g>
</g>
<g>
	<g>
		<path fill="#FFFFFF" d="M485.754,71.639l1.047,9.611l-2.941-1.684l-0.817-9.123l-0.434-0.248l-3.731,6.52l-2.404-1.375
			l9.117-15.929l2.816,1.612c2.104,1.204,3.397,2.469,3.88,3.796c0.528,1.471,0.378,2.928-0.448,4.372
			c-0.646,1.128-1.523,1.913-2.635,2.354S486.942,72.018,485.754,71.639z M483.807,68.101l0.764,0.438
			c2.276,1.303,3.912,1.084,4.908-0.656c0.933-1.63,0.293-3.078-1.922-4.346l-0.857-0.49L483.807,68.101z"/>
		<path fill="#FFFFFF" d="M496.821,73.646l-3.3,5.767c-0.953,1.665-0.771,2.873,0.541,3.625c1.314,0.752,2.447,0.296,3.4-1.369
			l3.3-5.767l2.32,1.328l-3.329,5.818c-0.461,0.805-0.958,1.443-1.492,1.913c-0.491,0.412-1.094,0.693-1.809,0.841
			c-1.174,0.232-2.367,0.002-3.577-0.691c-1.204-0.688-2.003-1.598-2.396-2.728c-0.241-0.695-0.313-1.361-0.213-1.998
			c0.075-0.577,0.376-1.328,0.903-2.249l3.33-5.818L496.821,73.646z"/>
		<path fill="#FFFFFF" d="M506.012,78.906l2.332,1.335l-0.531,0.929c1.273-0.341,2.418-0.22,3.436,0.363
			c1.169,0.668,1.869,1.558,2.102,2.668c0.206,0.949-0.097,2.132-0.907,3.549l-3.524,6.158l-2.332-1.334l3.213-5.612
			c0.566-0.99,0.819-1.753,0.762-2.289c-0.049-0.539-0.427-1.011-1.135-1.417c-0.771-0.439-1.463-0.499-2.077-0.175
			c-0.604,0.321-1.264,1.107-1.98,2.359l-2.774,4.849l-2.332-1.334L506.012,78.906z"/>
		<path fill="#FFFFFF" d="M517.598,85.537l2.331,1.334l-0.531,0.929c1.273-0.34,2.418-0.219,3.437,0.364
			c1.169,0.668,1.869,1.558,2.102,2.668c0.206,0.949-0.098,2.131-0.908,3.548l-3.525,6.159l-2.33-1.334l3.212-5.612
			c0.566-0.991,0.82-1.753,0.763-2.289c-0.049-0.539-0.428-1.011-1.136-1.417c-0.77-0.439-1.463-0.499-2.076-0.175
			c-0.604,0.321-1.265,1.107-1.981,2.358l-2.775,4.85l-2.33-1.335L517.598,85.537z"/>
		<path fill="#FFFFFF" d="M535.146,102.976l-7.201-4.121c-0.41,0.86-0.519,1.671-0.323,2.431c0.198,0.754,0.669,1.342,1.413,1.768
			c0.576,0.33,1.134,0.467,1.669,0.408c0.53-0.063,1.244-0.329,2.144-0.801l1.334,2.216c-0.598,0.343-1.17,0.601-1.719,0.776
			c-0.546,0.176-1.081,0.271-1.603,0.287c-0.521,0.018-1.036-0.047-1.546-0.193c-0.51-0.146-1.026-0.368-1.55-0.667
			c-1.499-0.858-2.428-2.028-2.783-3.511c-0.354-1.489-0.071-3.035,0.846-4.638c0.909-1.589,2.087-2.623,3.528-3.103
			c1.442-0.462,2.897-0.273,4.362,0.564c1.479,0.847,2.378,1.986,2.698,3.422c0.317,1.423,0.001,2.963-0.947,4.621L535.146,102.976z
			 M533.849,99.714c0.386-1.423-0.041-2.489-1.279-3.197c-0.282-0.161-0.57-0.271-0.867-0.325c-0.297-0.056-0.593-0.061-0.888-0.016
			c-0.297,0.045-0.582,0.14-0.855,0.284c-0.274,0.145-0.532,0.34-0.773,0.585L533.849,99.714z"/>
		<path fill="#FFFFFF" d="M540.871,98.857l2.321,1.328l-0.514,0.898c0.682-0.203,1.235-0.293,1.66-0.27
			c0.436,0.021,0.884,0.163,1.345,0.428c0.612,0.35,1.138,0.915,1.576,1.696l-2.279,1.517c-0.258-0.568-0.598-0.973-1.017-1.213
			c-1.267-0.725-2.446-0.13-3.54,1.782l-2.982,5.21l-2.32-1.329L540.871,98.857z"/>
		<path fill="#FFFFFF" d="M561.508,102.861l-5.491,9.595c-0.783,1.368-1.134,2.497-1.049,3.385c0.144,1.297,0.821,2.292,2.031,2.985
			c1.218,0.695,2.422,0.777,3.612,0.245c0.797-0.356,1.594-1.229,2.389-2.618l5.491-9.594l2.404,1.375l-5.869,10.254
			c-0.961,1.679-2.275,2.762-3.942,3.25c-1.868,0.537-3.659,0.315-5.372-0.664c-1.713-0.98-2.807-2.41-3.283-4.289
			c-0.424-1.686-0.154-3.367,0.807-5.045l5.869-10.254L561.508,102.861z"/>
		<path fill="#FFFFFF" d="M564.343,132.889l-2.321-1.328l8.88-15.516l2.321,1.328l-0.625,1.094c1.438-0.391,2.738-0.254,3.901,0.411
			c1.382,0.792,2.229,1.952,2.541,3.481c0.328,1.53,0.052,3.065-0.83,4.606c-0.862,1.506-2.03,2.504-3.506,2.992
			c-1.466,0.485-2.879,0.338-4.24-0.44c-1.176-0.674-1.959-1.747-2.349-3.221L564.343,132.889z M575.832,125.619
			c0.551-0.963,0.737-1.897,0.562-2.802c-0.179-0.915-0.671-1.603-1.476-2.063c-0.854-0.488-1.713-0.588-2.582-0.3
			c-0.867,0.288-1.577,0.914-2.128,1.877c-0.539,0.942-0.72,1.871-0.54,2.786c0.181,0.897,0.697,1.59,1.549,2.078
			c0.805,0.461,1.643,0.538,2.512,0.232C574.61,127.129,575.313,126.526,575.832,125.619z"/>
	</g>
	<g>
		<circle fill="#FFFFFF" cx="586.588" cy="131.433" r="4.129"/>
	</g>
	<g>
		<circle fill="#FFFFFF" cx="470.979" cy="61.876" r="4.129"/>
	</g>
</g>
<g>
	
		<ellipse transform="matrix(0.9742 -0.2258 0.2258 0.9742 -51.8472 113.6243)" fill="#FFFFFF" cx="470.855" cy="283.494" rx="7.044" ry="7.043"/>
</g>
<g>
	
		<ellipse transform="matrix(0.9742 -0.2258 0.2258 0.9742 -59.0606 116.1889)" fill="#FFFFFF" cx="478.461" cy="316.314" rx="7.044" ry="7.043"/>
</g>
<g>
	
		<ellipse transform="matrix(0.9742 -0.2258 0.2258 0.9742 -56.8912 111.1429)" fill="#FFFFFF" cx="457.484" cy="304.306" rx="7.043" ry="7.043"/>
</g>
<g>
	
		<ellipse transform="matrix(0.9742 -0.2258 0.2258 0.9742 -54.13 118.9093)" fill="#FFFFFF" cx="492.82" cy="296.117" rx="7.043" ry="7.043"/>
</g>
<g>
	<path fill="#FFFFFF" d="M210.547,148.937l6.576-3.777l0.302,0.526c0.688,1.195,1.153,2.334,1.401,3.418
		c0.215,1.009,0.208,2.072-0.019,3.188c-0.521,2.512-1.923,4.424-4.204,5.733c-2.227,1.279-4.596,1.57-7.105,0.874
		c-2.516-0.702-4.422-2.184-5.721-4.444c-1.327-2.31-1.645-4.731-0.953-7.267c0.688-2.543,2.189-4.479,4.505-5.809
		c1.243-0.714,2.551-1.128,3.921-1.239c1.323-0.083,2.811,0.16,4.463,0.728l-0.771,2.622c-2.304-0.989-4.395-0.945-6.271,0.133
		c-1.684,0.967-2.762,2.359-3.235,4.175c-0.485,1.797-0.234,3.553,0.753,5.271c1.018,1.771,2.492,2.867,4.422,3.284
		c1.801,0.383,3.396,0.175,4.783-0.622c1.182-0.679,2.015-1.688,2.498-3.024c0.479-1.346,0.453-2.609-0.08-3.792l-3.969,2.279
		L210.547,148.937z"/>
	<path fill="#FFFFFF" d="M226.094,137.676l2.329-1.338l5.767,10.039l-2.329,1.338l-0.604-1.052
		c-0.441,1.442-1.212,2.479-2.312,3.111c-1.388,0.798-2.823,0.955-4.307,0.473c-1.489-0.507-2.673-1.527-3.553-3.06
		c-0.864-1.505-1.136-3.017-0.812-4.537s1.163-2.669,2.517-3.447c1.169-0.671,2.492-0.792,3.973-0.363L226.094,137.676z
		 M223.455,145.826c0.553,0.962,1.261,1.597,2.123,1.906c0.881,0.308,1.723,0.23,2.526-0.231c0.858-0.493,1.384-1.188,1.573-2.082
		c0.178-0.916-0.004-1.845-0.545-2.786s-1.251-1.565-2.131-1.873c-0.873-0.293-1.731-0.197-2.577,0.288
		c-0.797,0.458-1.29,1.143-1.479,2.055C222.769,144.018,222.938,144.927,223.455,145.826z"/>
	<path fill="#FFFFFF" d="M231.351,134.656l2.319-1.332l0.532,0.928c0.178-0.725,0.378-1.259,0.599-1.606
		c0.238-0.364,0.612-0.692,1.121-0.985c1.133-0.65,2.313-0.672,3.542-0.061c0.159-1.408,0.862-2.469,2.106-3.184
		c2.26-1.299,4.178-0.576,5.753,2.164l3.563,6.205l-2.329,1.339l-3.203-5.576c-0.552-0.962-1.06-1.575-1.522-1.84
		c-0.474-0.268-0.985-0.242-1.535,0.073c-0.639,0.367-0.966,0.875-0.981,1.523s0.282,1.505,0.894,2.57l2.979,5.185l-2.33,1.338
		l-3.185-5.545c-1.026-1.787-2.055-2.384-3.086-1.791c-0.652,0.375-0.988,0.892-1.007,1.552c-0.019,0.658,0.273,1.514,0.878,2.565
		l2.978,5.185l-2.318,1.332L231.351,134.656z"/>
	<path fill="#FFFFFF" d="M260.387,125.379l-7.194,4.133c0.536,0.788,1.181,1.291,1.935,1.507c0.751,0.208,1.497,0.1,2.239-0.326
		c0.577-0.332,0.976-0.744,1.196-1.236c0.213-0.487,0.344-1.239,0.392-2.253l2.585-0.033c-0.006,0.689-0.072,1.314-0.197,1.875
		c-0.126,0.562-0.313,1.07-0.562,1.529c-0.248,0.458-0.564,0.871-0.947,1.236c-0.384,0.367-0.837,0.701-1.358,1.001
		c-1.498,0.86-2.978,1.07-4.438,0.629c-1.463-0.447-2.654-1.472-3.574-3.073c-0.912-1.588-1.21-3.124-0.896-4.613
		c0.33-1.478,1.228-2.637,2.69-3.478c1.478-0.849,2.916-1.049,4.315-0.601c1.389,0.445,2.56,1.495,3.511,3.151L260.387,125.379z
		 M256.917,124.85c-1.034-1.051-2.169-1.221-3.405-0.51c-0.282,0.162-0.521,0.356-0.72,0.584c-0.198,0.229-0.353,0.48-0.462,0.759
		c-0.11,0.278-0.173,0.571-0.187,0.882c-0.014,0.31,0.024,0.63,0.114,0.962L256.917,124.85z"/>
	<path fill="#FFFFFF" d="M268.995,108.221l7.845,13.656l-2.401,1.38l-7.845-13.657l-3.659,2.102l-1.296-2.257l9.709-5.577
		l1.297,2.257L268.995,108.221z"/>
	<path fill="#FFFFFF" d="M276.423,108.766l2.319-1.332l0.515,0.896c0.169-0.691,0.372-1.214,0.606-1.569
		c0.238-0.364,0.588-0.679,1.048-0.943c0.612-0.352,1.366-0.52,2.261-0.504l0.157,2.733c-0.62-0.064-1.141,0.025-1.56,0.266
		c-1.265,0.727-1.349,2.044-0.251,3.955l2.99,5.205l-2.319,1.332L276.423,108.766z"/>
	<path fill="#FFFFFF" d="M291.719,99.979l2.329-1.338l5.767,10.039l-2.33,1.338l-0.604-1.052c-0.441,1.442-1.213,2.479-2.312,3.111
		c-1.388,0.797-2.824,0.954-4.307,0.473c-1.489-0.508-2.673-1.527-3.554-3.06c-0.863-1.505-1.135-3.018-0.811-4.537
		c0.324-1.521,1.163-2.67,2.517-3.447c1.168-0.671,2.492-0.792,3.972-0.363L291.719,99.979z M289.08,108.129
		c0.553,0.962,1.26,1.598,2.123,1.907c0.881,0.307,1.722,0.229,2.526-0.231c0.858-0.494,1.383-1.188,1.573-2.082
		c0.178-0.916-0.004-1.845-0.545-2.786s-1.252-1.565-2.132-1.873c-0.872-0.294-1.731-0.198-2.576,0.287
		c-0.798,0.458-1.29,1.143-1.479,2.056C288.393,106.321,288.563,107.229,289.08,108.129z"/>
	<path fill="#FFFFFF" d="M305.036,92.904l1.771,3.082c-0.9-0.342-1.629-0.513-2.187-0.513c-0.554-0.011-1.109,0.145-1.666,0.465
		c-0.873,0.501-1.422,1.224-1.647,2.166c-0.227,0.944-0.075,1.874,0.454,2.796c0.54,0.94,1.263,1.555,2.167,1.839
		c0.911,0.281,1.803,0.171,2.675-0.33c0.557-0.319,0.979-0.722,1.267-1.208c0.279-0.469,0.502-1.201,0.672-2.194l1.759,3.061
		c-0.661,1.029-1.462,1.814-2.403,2.354c-1.554,0.893-3.14,1.137-4.761,0.733c-1.625-0.41-2.867-1.364-3.728-2.862
		c-0.861-1.498-1.059-3.066-0.592-4.705c0.466-1.638,1.469-2.899,3.008-3.784C302.814,93.235,303.884,92.937,305.036,92.904z"/>
	<path fill="#FFFFFF" d="M305.12,82.479l6.099,10.616l1.402-5.123l3.112-1.788l-1.938,6.72l8.025,3.136l-3.01,1.729l-5.753-2.33
		l-0.157,0.584l2.22,3.865l-2.319,1.333l-10-17.408L305.12,82.479z"/>
	<path fill="#FFFFFF" d="M321.914,74.82l10.253,8.257l-2.226-13.896l10.698,9.03l-1.709-13.165l2.607-1.498l2.61,21.009
		l-10.569-8.925l2.216,13.737l-16.488-13.051L321.914,74.82z"/>
	<path fill="#FFFFFF" d="M343.7,64.567c-0.233-0.405-0.286-0.84-0.16-1.306c0.125-0.465,0.395-0.816,0.807-1.053
		c0.419-0.241,0.861-0.298,1.327-0.173c0.46,0.118,0.812,0.387,1.053,0.807c0.24,0.419,0.297,0.861,0.172,1.326
		c-0.118,0.462-0.388,0.813-0.807,1.054c-0.419,0.241-0.861,0.298-1.326,0.172C344.3,65.27,343.945,64.993,343.7,64.567z
		 M348.768,67.209l5.767,10.039l-2.319,1.332l-5.766-10.039L348.768,67.209z"/>
	<path fill="#FFFFFF" d="M351.705,65.521l2.329-1.339l0.533,0.928c0.349-1.269,1.032-2.196,2.05-2.78
		c1.167-0.671,2.289-0.827,3.364-0.467c0.923,0.303,1.79,1.161,2.604,2.575l3.534,6.154l-2.329,1.338l-3.221-5.606
		c-0.568-0.99-1.099-1.595-1.591-1.814c-0.489-0.231-1.088-0.144-1.795,0.264c-0.77,0.441-1.17,1.01-1.201,1.704
		c-0.027,0.683,0.317,1.648,1.036,2.899l2.782,4.845l-2.329,1.339L351.705,65.521z"/>
	<path fill="#FFFFFF" d="M363.28,58.872l2.329-1.338l0.533,0.928c0.349-1.27,1.032-2.197,2.049-2.781
		c1.168-0.671,2.289-0.826,3.365-0.466c0.922,0.302,1.79,1.16,2.603,2.574l3.535,6.154l-2.329,1.339l-3.221-5.606
		c-0.568-0.99-1.099-1.596-1.591-1.815c-0.489-0.23-1.088-0.143-1.795,0.264c-0.771,0.442-1.17,1.01-1.201,1.704
		c-0.027,0.684,0.317,1.649,1.036,2.9l2.782,4.845l-2.329,1.338L363.28,58.872z"/>
	<path fill="#FFFFFF" d="M387.193,52.537l-7.194,4.133c0.536,0.788,1.181,1.291,1.936,1.507c0.75,0.208,1.496,0.1,2.239-0.326
		c0.576-0.332,0.976-0.744,1.195-1.236c0.213-0.487,0.344-1.239,0.392-2.253l2.586-0.033c-0.007,0.689-0.072,1.314-0.198,1.875
		c-0.125,0.562-0.313,1.07-0.561,1.529c-0.249,0.458-0.564,0.871-0.948,1.236c-0.384,0.367-0.837,0.701-1.358,1.001
		c-1.498,0.86-2.977,1.07-4.437,0.629c-1.464-0.447-2.655-1.472-3.574-3.072c-0.912-1.588-1.21-3.125-0.896-4.614
		c0.329-1.478,1.227-2.637,2.69-3.478c1.478-0.849,2.915-1.049,4.315-0.601c1.389,0.445,2.559,1.495,3.51,3.151L387.193,52.537z
		 M383.724,52.009c-1.034-1.052-2.169-1.222-3.405-0.511c-0.281,0.162-0.521,0.356-0.72,0.584c-0.198,0.229-0.352,0.481-0.462,0.759
		c-0.109,0.278-0.172,0.571-0.186,0.882c-0.015,0.31,0.023,0.63,0.114,0.962L383.724,52.009z"/>
	<path fill="#FFFFFF" d="M386.533,45.516l2.318-1.333l0.516,0.896c0.169-0.69,0.371-1.214,0.606-1.569
		c0.238-0.363,0.587-0.679,1.048-0.943c0.611-0.352,1.365-0.519,2.26-0.503l0.158,2.732c-0.621-0.063-1.142,0.025-1.561,0.267
		c-1.264,0.727-1.348,2.043-0.25,3.954l2.989,5.205l-2.319,1.333L386.533,45.516z"/>
</g>
<g>
	<path fill="#FFFFFF" d="M350.656,365.141c-6.534,0-12.952-1.823-18.635-5.367c-8.009-4.996-13.594-12.811-15.725-22.007
		c-2.131-9.194-0.554-18.67,4.442-26.679c4.995-8.009,12.811-13.593,22.006-15.724c9.193-2.13,18.671-0.554,26.679,4.44
		c8.009,4.995,13.594,12.811,15.725,22.007l0,0c2.131,9.194,0.554,18.67-4.441,26.679c-4.995,8.01-12.811,13.594-22.006,15.725
		C356.029,364.834,353.332,365.141,350.656,365.141z M350.783,298.44c-2.374,0-4.765,0.271-7.136,0.82
		c-8.154,1.89-15.084,6.842-19.515,13.944s-5.829,15.505-3.939,23.659c1.891,8.154,6.843,15.085,13.945,19.515
		c7.103,4.431,15.506,5.827,23.66,3.939c8.154-1.89,15.084-6.842,19.514-13.945c4.43-7.103,5.829-15.505,3.939-23.659
		s-6.843-15.085-13.945-19.515C362.27,300.058,356.577,298.44,350.783,298.44z"/>
</g>
<g>
	<path fill="#FFFFFF" d="M431.48,342.885c0.512,2.211-0.865,4.418-3.076,4.93l-19.211,4.452c-2.211,0.512-4.418-0.863-4.93-3.075
		l0,0c-0.512-2.211,0.865-4.418,3.075-4.93l19.211-4.452C428.76,339.299,430.967,340.674,431.48,342.885L431.48,342.885z"/>
</g>
<g>
	<g>
		
			<rect x="342.856" y="309.449" transform="matrix(0.9742 -0.2258 0.2258 0.9742 -65.6976 87.7394)" fill="#FFFFFF" width="15.804" height="43.316"/>
	</g>
	<g>
		
			<rect x="328.923" y="322.444" transform="matrix(0.9742 -0.2258 0.2258 0.9742 -65.5305 87.6799)" fill="#FFFFFF" width="43.316" height="15.805"/>
	</g>
</g>
<g>
	<g>
		<path fill="#FFFFFF" d="M401.5,207.145c-0.861,3.814-0.874,7.634,0.397,11.359c1.033,3.028,5.865,1.728,4.821-1.329
			c-0.989-2.899-1.07-5.724-0.397-8.701C407.029,205.341,402.209,204.003,401.5,207.145L401.5,207.145z"/>
	</g>
</g>
<g>
	
		<ellipse transform="matrix(0.9742 -0.2258 0.2258 0.9742 -42.572 106.0907)" fill="#FFFFFF" cx="442.555" cy="239.175" rx="4.066" ry="4.066"/>
</g>
<g>
	
		<ellipse transform="matrix(0.9742 -0.2258 0.2258 0.9742 -40.7548 115.0328)" fill="#FFFFFF" cx="482.559" cy="235.701" rx="4.066" ry="4.066"/>
</g>
<g>
	
		<ellipse transform="matrix(0.9742 -0.2258 0.2258 0.9742 -39.3081 110.2148)" fill="#FFFFFF" cx="462.217" cy="226.967" rx="4.066" ry="4.066"/>
</g>
<g>
	<g>
		<g>
			<path fill="#FFFFFF" d="M497.942,506.51l1.867-1.085l3.838,6.609c0.317-0.984,0.877-1.708,1.68-2.174
				c0.913-0.53,1.816-0.659,2.708-0.384c0.765,0.245,1.474,0.931,2.13,2.061l2.878,4.957l-1.868,1.085l-2.777-4.783
				c-0.376-0.647-0.764-1.051-1.161-1.208c-0.399-0.157-0.853-0.087-1.362,0.209c-0.653,0.379-0.996,0.847-1.027,1.406
				c-0.023,0.561,0.256,1.339,0.834,2.335l2.271,3.911l-1.868,1.085L497.942,506.51z"/>
		</g>
		<g>
			<path fill="#FFFFFF" d="M516.674,503.571l1.877-1.09l4.696,8.088l-1.876,1.09l-0.493-0.847c-0.352,1.166-0.97,2.006-1.855,2.521
				c-1.118,0.649-2.277,0.783-3.478,0.398c-1.204-0.403-2.164-1.223-2.881-2.457c-0.705-1.213-0.928-2.433-0.673-3.663
				c0.256-1.229,0.929-2.16,2.019-2.793c0.942-0.546,2.011-0.649,3.208-0.307L516.674,503.571z M514.574,510.165
				c0.45,0.775,1.024,1.285,1.722,1.531c0.712,0.246,1.392,0.18,2.04-0.196c0.692-0.401,1.113-0.965,1.263-1.689
				c0.14-0.739-0.009-1.489-0.451-2.248c-0.44-0.758-1.016-1.26-1.729-1.505c-0.706-0.234-1.398-0.153-2.08,0.242
				c-0.642,0.373-1.038,0.928-1.187,1.666C514.013,508.706,514.153,509.438,514.574,510.165z"/>
		</g>
		<g>
			<path fill="#FFFFFF" d="M527.406,497.806l1.441,2.482c-0.728-0.273-1.317-0.408-1.768-0.405
				c-0.448-0.007-0.896,0.121-1.344,0.381c-0.703,0.408-1.144,0.993-1.323,1.755c-0.179,0.764-0.053,1.516,0.377,2.257
				c0.441,0.758,1.027,1.251,1.758,1.478c0.737,0.224,1.456,0.132,2.159-0.277c0.448-0.26,0.788-0.588,1.019-0.98
				c0.222-0.381,0.401-0.973,0.534-1.776l1.432,2.465c-0.531,0.834-1.175,1.471-1.933,1.911c-1.251,0.726-2.532,0.931-3.843,0.609
				c-1.314-0.325-2.321-1.091-3.022-2.298c-0.701-1.207-0.866-2.472-0.496-3.797c0.371-1.326,1.175-2.348,2.415-3.068
				C525.612,498.082,526.475,497.835,527.406,497.806z"/>
		</g>
		<g>
			<path fill="#FFFFFF" d="M527.435,489.385l4.966,8.552l1.113-4.143l2.508-1.457l-1.541,5.436l6.494,2.503l-2.425,1.408
				l-4.656-1.861l-0.125,0.472l1.808,3.115l-1.868,1.085l-8.143-14.024L527.435,489.385z"/>
		</g>
		<g>
			<path fill="#FFFFFF" d="M543.445,488.027l1.876-1.09l4.697,8.087l-1.877,1.09l-0.493-0.846c-0.351,1.166-0.97,2.006-1.855,2.521
				c-1.118,0.649-2.277,0.783-3.478,0.397c-1.203-0.403-2.164-1.223-2.881-2.457c-0.705-1.213-0.928-2.433-0.672-3.663
				c0.256-1.229,0.929-2.161,2.019-2.793c0.941-0.546,2.01-0.649,3.207-0.308L543.445,488.027z M541.344,494.621
				c0.451,0.775,1.024,1.285,1.722,1.531c0.712,0.246,1.393,0.18,2.04-0.196c0.692-0.401,1.113-0.964,1.263-1.688
				c0.141-0.739-0.009-1.489-0.451-2.248c-0.44-0.758-1.016-1.26-1.729-1.505c-0.705-0.234-1.398-0.153-2.079,0.242
				c-0.642,0.373-1.038,0.928-1.186,1.666C540.783,493.163,540.924,493.895,541.344,494.621z"/>
		</g>
		<g>
			<path fill="#FFFFFF" d="M550.618,486.193l3.684,6.344l-1.867,1.084l-3.684-6.344l-0.797,0.463l-1.013-1.744l0.797-0.462
				l-1.721-2.965l1.868-1.084l1.721,2.964l1.453-0.844l1.013,1.744L550.618,486.193z"/>
		</g>
		<g>
			<path fill="#FFFFFF" d="M548.883,476.932l1.867-1.085l3.838,6.609c0.317-0.984,0.877-1.708,1.68-2.174
				c0.913-0.531,1.816-0.659,2.708-0.384c0.764,0.245,1.473,0.931,2.129,2.061l2.878,4.957l-1.868,1.085l-2.777-4.783
				c-0.376-0.647-0.764-1.05-1.161-1.207c-0.399-0.157-0.853-0.087-1.362,0.209c-0.653,0.379-0.995,0.846-1.026,1.406
				c-0.022,0.56,0.256,1.339,0.834,2.335l2.271,3.911l-1.868,1.085L548.883,476.932z"/>
		</g>
		<g>
			<path fill="#FFFFFF" d="M563.587,481.662c-0.679-1.168-0.837-2.404-0.478-3.709c0.361-1.303,1.141-2.306,2.343-3.002
				c1.207-0.701,2.47-0.883,3.79-0.547c1.309,0.343,2.313,1.115,3.01,2.316c0.704,1.213,0.875,2.472,0.515,3.776
				c-0.369,1.302-1.164,2.308-2.388,3.018c-1.213,0.705-2.469,0.879-3.771,0.524C565.314,483.694,564.306,482.902,563.587,481.662z
				 M565.516,480.586c0.469,0.808,1.056,1.322,1.762,1.542c0.719,0.219,1.44,0.118,2.166-0.302c0.73-0.425,1.178-0.998,1.343-1.723
				c0.164-0.724,0.017-1.479-0.44-2.267c-0.456-0.786-1.04-1.287-1.75-1.504c-0.719-0.217-1.441-0.117-2.166,0.305
				c-0.715,0.415-1.155,0.988-1.321,1.72C564.943,479.09,565.079,479.833,565.516,480.586z"/>
		</g>
		<g>
			<path fill="#FFFFFF" d="M571.876,471.519l1.877-1.09l0.433,0.747c0.278-1.027,0.825-1.778,1.645-2.253
				c0.942-0.546,1.846-0.677,2.716-0.389c0.747,0.239,1.451,0.93,2.113,2.071l2.878,4.957l-1.877,1.09l-2.623-4.518
				c-0.463-0.797-0.893-1.284-1.292-1.46c-0.396-0.185-0.878-0.111-1.449,0.219c-0.62,0.36-0.942,0.821-0.963,1.382
				c-0.02,0.551,0.263,1.331,0.847,2.338l2.267,3.903l-1.877,1.09L571.876,471.519z"/>
		</g>
		<g>
			<path fill="#FFFFFF" d="M593.169,467.539l4.774-2.772l1.057,1.819l-8.611,4.999l1.322-7.973c0.125-0.791,0.222-1.469,0.29-2.034
				c0.068-0.564,0.102-1.025,0.103-1.381c0.013-0.703-0.101-1.262-0.341-1.677c-0.347-0.598-0.848-0.977-1.503-1.137
				c-0.656-0.16-1.293-0.059-1.913,0.301c-1.295,0.752-1.592,1.949-0.89,3.592l-1.927,1.119c-1.259-2.882-0.678-5.026,1.74-6.43
				c1.168-0.678,2.364-0.875,3.586-0.594c1.228,0.279,2.16,0.966,2.796,2.062c0.405,0.698,0.617,1.489,0.635,2.375
				c0.013,0.458-0.021,1.031-0.105,1.72c-0.085,0.691-0.215,1.522-0.389,2.496L593.169,467.539z"/>
		</g>
		<g>
			<path fill="#FFFFFF" d="M597.413,458.824c-1.186-2.043-1.656-3.949-1.412-5.72c0.213-1.595,0.925-2.747,2.138-3.451
				c1.212-0.704,2.564-0.751,4.057-0.145c1.659,0.666,3.097,2.046,4.316,4.144c1.214,2.093,1.7,4.025,1.455,5.795
				c-0.214,1.596-0.923,2.745-2.129,3.446c-1.207,0.701-2.562,0.751-4.065,0.15C600.113,462.378,598.66,460.971,597.413,458.824z
				 M599.319,457.728c0.826,1.423,1.758,2.461,2.797,3.116c1.03,0.639,1.926,0.736,2.69,0.292c0.758-0.44,1.118-1.267,1.08-2.481
				c-0.036-1.208-0.46-2.513-1.273-3.913c-0.813-1.401-1.737-2.419-2.772-3.054c-1.032-0.629-1.927-0.724-2.684-0.284
				c-0.753,0.437-1.112,1.26-1.077,2.468C598.113,455.076,598.525,456.362,599.319,457.728z"/>
		</g>
		<g>
			<path fill="#FFFFFF" d="M609.171,445.956l-2.217,1.287l0.012-2.426l3.089-1.793l7.443,12.821l-1.935,1.123L609.171,445.956z"/>
		</g>
		<g>
			<path fill="#FFFFFF" d="M620.536,445.165c-1.327-0.118-2.323-0.75-2.988-1.896c-0.604-1.041-0.752-2.118-0.442-3.229
				c0.314-1.116,1.005-1.984,2.074-2.605c1.062-0.617,2.151-0.782,3.265-0.495c1.11,0.28,1.97,0.946,2.581,1.998
				c0.639,1.101,0.694,2.274,0.164,3.514c0.675-0.023,1.314,0.147,1.916,0.507c0.607,0.359,1.104,0.869,1.49,1.533
				c0.659,1.135,0.828,2.281,0.507,3.436c-0.32,1.157-1.059,2.07-2.217,2.742c-1.185,0.687-2.373,0.889-3.567,0.606
				c-1.2-0.281-2.12-0.974-2.763-2.082C619.72,447.755,619.713,446.412,620.536,445.165z M619.362,442.205
				c0.318,0.547,0.77,0.899,1.356,1.055c0.595,0.157,1.159,0.083,1.691-0.226c0.526-0.305,0.867-0.755,1.025-1.35
				c0.158-0.595,0.085-1.155-0.221-1.682c-0.306-0.525-0.756-0.867-1.351-1.026c-0.595-0.157-1.155-0.083-1.681,0.221
				c-0.526,0.306-0.867,0.756-1.026,1.351C618.997,441.144,619.066,441.695,619.362,442.205z M622.418,448.024
				c0.344,0.592,0.845,0.984,1.502,1.171c0.659,0.179,1.285,0.097,1.878-0.247c0.586-0.341,0.966-0.839,1.141-1.495
				c0.171-0.663,0.086-1.286-0.255-1.873c-0.344-0.592-0.844-0.975-1.5-1.15c-0.656-0.174-1.277-0.09-1.864,0.25
				c-0.581,0.337-0.962,0.836-1.141,1.495C622.004,446.833,622.085,447.449,622.418,448.024z"/>
		</g>
	</g>
	<g>
		<g>
			<path fill="#FFFFFF" d="M423.971,561.583c-0.084-0.142-0.168-0.283-0.251-0.426s-0.162-0.287-0.205-0.448
				c-0.034-0.126-0.108-0.233-0.166-0.348c-0.042-0.083-0.091-0.163-0.096-0.26c-0.001-0.021-0.006-0.043-0.015-0.062
				c-0.084-0.166-0.148-0.338-0.202-0.517c-0.05-0.163-0.094-0.328-0.142-0.492c-0.066-0.225-0.116-0.456-0.161-0.687
				c-0.064-0.328-0.111-0.658-0.142-0.991c-0.04-0.429-0.05-0.857-0.041-1.288c0.006-0.328,0.052-0.652,0.082-0.977
				c0.027-0.29,0.109-0.57,0.155-0.856c0.06-0.369,0.175-0.72,0.283-1.075c0.168-0.55,0.396-1.076,0.662-1.584
				c0.175-0.333,0.372-0.656,0.576-0.973c0.114-0.176,0.233-0.353,0.368-0.513c0.132-0.156,0.236-0.336,0.396-0.467
				c0.057-0.047,0.066-0.127,0.131-0.167c0.055-0.034,0.091-0.086,0.127-0.142c0.058-0.09,0.156-0.142,0.228-0.224
				c0.116-0.134,0.253-0.25,0.387-0.367c0.156-0.136,0.324-0.259,0.477-0.399c0.144-0.131,0.304-0.238,0.461-0.351
				c0.338-0.242,0.68-0.479,1.051-0.666c0.472-0.239,0.949-0.468,1.45-0.644c0.188-0.066,0.377-0.133,0.568-0.188
				c0.155-0.044,0.305-0.122,0.473-0.12c0.114-0.069,0.253-0.04,0.37-0.095c0.092-0.044,0.194-0.031,0.291-0.054
				c0.211-0.049,0.429-0.073,0.645-0.094c0.409-0.04,0.82-0.062,1.231-0.058c0.411,0.004,0.819,0.052,1.228,0.091
				c0.407,0.039,0.796,0.163,1.199,0.216c0.063,0.008,0.124,0.033,0.185,0.053c0.135,0.044,0.266,0.1,0.403,0.132
				c0.343,0.079,0.661,0.22,0.981,0.36c0.252,0.11,0.506,0.217,0.749,0.345c0.262,0.138,0.515,0.294,0.767,0.452
				c0.338,0.212,0.66,0.448,0.963,0.705c0.172,0.146,0.364,0.273,0.502,0.457c0.146,0.07,0.201,0.24,0.345,0.315
				c0.035,0.018,0.058,0.062,0.083,0.097c0.051,0.07,0.1,0.138,0.172,0.189c0.039,0.028,0.071,0.07,0.1,0.11
				c0.062,0.088,0.119,0.176,0.211,0.24c0.045,0.031,0.075,0.086,0.106,0.133c0.094,0.144,0.186,0.289,0.301,0.418
				c0.125,0.14,0.22,0.3,0.315,0.46c0.113,0.191,0.226,0.383,0.338,0.574c0.094,0.161,0.189,0.321,0.249,0.499
				c0.051,0.15,0.127,0.288,0.2,0.427c0.043,0.082,0.094,0.162,0.093,0.26c0,0.014,0.003,0.029,0.009,0.042
				c0.081,0.159,0.138,0.326,0.186,0.498c0.026,0.095,0.07,0.182,0.086,0.284c0.018,0.117,0.066,0.231,0.097,0.348
				c0.09,0.336,0.155,0.676,0.209,1.019c0.076,0.485,0.112,0.97,0.118,1.461c0.003,0.255-0.027,0.508-0.012,0.762
				c-0.074,0.512-0.106,1.031-0.238,1.535c-0.038,0.144-0.055,0.294-0.096,0.437c-0.067,0.234-0.148,0.463-0.217,0.696
				c-0.076,0.259-0.196,0.501-0.295,0.75c-0.235,0.589-0.558,1.133-0.894,1.668c-0.174,0.186-0.28,0.422-0.458,0.607
				c-0.066,0.069-0.119,0.156-0.184,0.23c-0.144,0.165-0.272,0.346-0.431,0.494c-0.119,0.112-0.212,0.253-0.356,0.338
				c-0.278,0.311-0.623,0.545-0.936,0.816c-0.011,0.009-0.022,0.018-0.034,0.026c-0.412,0.273-0.803,0.579-1.25,0.793
				c-0.335,0.16-0.658,0.345-1.009,0.475c-0.214,0.079-0.429,0.16-0.641,0.245c-0.138,0.055-0.286,0.086-0.428,0.133
				c-0.175,0.057-0.354,0.109-0.535,0.138c-0.215,0.035-0.422,0.117-0.644,0.113c-0.43,0.097-0.868,0.127-1.306,0.141
				c-0.418,0.013-0.838,0.02-1.255-0.042c-0.195-0.029-0.395-0.034-0.59-0.064c-0.238-0.037-0.473-0.097-0.711-0.134
				c-0.453-0.07-0.876-0.243-1.312-0.369c-0.231-0.066-0.446-0.184-0.671-0.274c-0.33-0.132-0.642-0.3-0.951-0.473
				c-0.382-0.213-0.744-0.459-1.096-0.719c-0.195-0.144-0.38-0.302-0.562-0.463c-0.177-0.155-0.339-0.326-0.511-0.485
				c-0.125-0.117-0.218-0.265-0.362-0.362c-0.028-0.019-0.048-0.053-0.068-0.082c-0.077-0.112-0.152-0.223-0.262-0.31
				c-0.059-0.047-0.096-0.124-0.137-0.191c-0.08-0.128-0.169-0.248-0.272-0.359c-0.049-0.052-0.092-0.11-0.129-0.17
				c-0.112-0.183-0.219-0.37-0.328-0.555C423.973,561.582,423.972,561.583,423.971,561.583z M430.74,557.446
				c0.194-0.157,0.371-0.327,0.572-0.46c0.406-0.267,0.816-0.532,1.273-0.71c0.188-0.073,0.354-0.193,0.541-0.26
				c0.34-0.122,0.646-0.305,0.955-0.486c0.167-0.098,0.332-0.197,0.465-0.342c0.033-0.036,0.076-0.067,0.12-0.09
				c0.169-0.089,0.258-0.266,0.414-0.369c0.204-0.278,0.423-0.545,0.54-0.88c0.167-0.478,0.171-0.947-0.036-1.412
				c-0.079-0.177-0.18-0.342-0.293-0.5c-0.183-0.255-0.422-0.443-0.705-0.57c-0.314-0.141-0.643-0.207-0.99-0.209
				c-0.3-0.002-0.59,0.03-0.872,0.133c-0.019,0.007-0.042,0.011-0.063,0.008c-0.069-0.008-0.125,0.026-0.182,0.055
				c-0.28,0.145-0.55,0.307-0.813,0.481c-0.042,0.028-0.089,0.051-0.11,0.099c-0.031,0.071-0.093,0.106-0.151,0.148
				c-0.029,0.021-0.064,0.039-0.083,0.067c-0.115,0.17-0.263,0.312-0.382,0.48c-0.203,0.287-0.371,0.593-0.487,0.92
				c-0.205,0.579-0.297,1.179-0.276,1.796c0.013,0.38,0.073,0.753,0.166,1.119c0.034,0.137,0.054,0.281,0.126,0.409
				c0.042,0.075,0.065,0.156,0.085,0.241C430.582,557.239,430.633,557.357,430.74,557.446z M431.931,557.376
				c-0.093,0.055-0.183,0.113-0.278,0.163c-0.104,0.054-0.18,0.14-0.259,0.222c-0.025,0.025-0.058,0.041-0.087,0.063
				c-0.102,0.077-0.226,0.124-0.296,0.242c-0.066,0.11-0.221,0.14-0.258,0.279c-0.162,0.18-0.281,0.387-0.386,0.606
				c-0.235,0.486-0.22,0.979-0.029,1.464c0.124,0.313,0.338,0.566,0.615,0.774c0.34,0.255,0.721,0.371,1.13,0.385
				c0.365,0.012,0.734-0.009,1.073-0.18c0.037-0.019,0.083-0.021,0.124-0.032c0.041-0.011,0.084-0.02,0.122-0.038
				c0.371-0.172,0.723-0.448,1.019-0.765c0.121-0.13,0.232-0.263,0.339-0.404c0.28-0.37,0.455-0.785,0.591-1.223
				c0.061-0.198,0.079-0.404,0.119-0.606c0.036-0.182,0.045-0.367,0.045-0.55c-0.001-0.364-0.035-0.725-0.109-1.083
				c-0.02-0.099-0.068-0.188-0.084-0.287c-0.034-0.213-0.132-0.405-0.199-0.607c-0.013-0.04-0.038-0.077-0.061-0.114
				c-0.034-0.055-0.06-0.058-0.12-0.014c-0.143,0.107-0.293,0.205-0.42,0.333c-0.05,0.05-0.112,0.089-0.173,0.125
				c-0.271,0.161-0.543,0.32-0.816,0.476c-0.074,0.042-0.153,0.079-0.235,0.104c-0.124,0.039-0.239,0.095-0.352,0.157
				c-0.12,0.065-0.236,0.14-0.363,0.184C432.35,557.132,432.139,557.25,431.931,557.376z"/>
		</g>
		<g>
			<path fill="#FFFFFF" d="M471.811,535.242c0.702,1.192,1.405,2.384,2.107,3.576c0.053,0.09,0.109,0.178,0.157,0.271
				c0.079,0.153,0.058,0.224-0.092,0.326c-0.076,0.051-0.156,0.095-0.235,0.142c-0.562,0.331-1.123,0.665-1.687,0.993
				c-0.537,0.313-0.433,0.341-0.746-0.178c-0.067-0.112-0.132-0.225-0.2-0.337c-0.02-0.033-0.041-0.07-0.071-0.092
				c-0.029-0.022-0.069-0.032-0.101,0.007c-0.052,0.063-0.073,0.138-0.084,0.216c-0.068,0.513-0.295,0.966-0.586,1.377
				c-0.144,0.204-0.287,0.435-0.531,0.558c-0.057,0.029-0.107,0.076-0.15,0.124c-0.276,0.314-0.612,0.52-1.025,0.601
				c-0.05,0.01-0.099,0.033-0.145,0.058c-0.399,0.213-0.834,0.241-1.274,0.273c-0.511,0.037-1.005-0.036-1.491-0.172
				c-0.423-0.118-0.823-0.298-1.192-0.539c-0.151-0.099-0.297-0.205-0.444-0.309c-0.22-0.157-0.43-0.328-0.598-0.543
				c-0.056-0.072-0.102-0.156-0.17-0.214c-0.4-0.341-0.597-0.818-0.853-1.255c-0.045-0.076-0.058-0.171-0.085-0.258
				c-0.027-0.087-0.043-0.18-0.083-0.26c-0.201-0.402-0.252-0.837-0.298-1.275c-0.077-0.736,0.025-1.45,0.289-2.135
				c0.163-0.421,0.402-0.804,0.665-1.177c0.191-0.27,0.497-0.416,0.667-0.697c0.389-0.229,0.731-0.553,1.207-0.611
				c0.038-0.005,0.076-0.021,0.111-0.036c0.491-0.221,1.004-0.223,1.523-0.156c0.206,0.027,0.413,0.061,0.606,0.143
				c0.087,0.037,0.174,0.052,0.266,0.044c0.048-0.004,0.065-0.049,0.051-0.082c-0.036-0.084-0.081-0.163-0.126-0.242
				c-0.103-0.181-0.21-0.361-0.313-0.542c-0.046-0.081-0.024-0.149,0.053-0.2c0.131-0.086,0.258-0.177,0.393-0.257
				c0.505-0.301,1.01-0.6,1.519-0.894c0.146-0.085,0.301-0.156,0.455-0.226c0.079-0.036,0.153-0.012,0.201,0.067
				c0.054,0.089,0.108,0.179,0.161,0.268C470.38,532.813,471.095,534.028,471.811,535.242z M465.278,539.062
				c0.204,0.377,0.506,0.651,0.864,0.872c0.554,0.342,1.135,0.48,1.771,0.263c0.049-0.017,0.101-0.031,0.152-0.034
				c0.163-0.012,0.294-0.096,0.433-0.169c0.25-0.132,0.37-0.401,0.598-0.556c0.291-0.471,0.47-0.968,0.427-1.536
				c-0.018-0.237-0.1-0.452-0.151-0.677c-0.047-0.209-0.128-0.402-0.256-0.566c-0.297-0.38-0.642-0.717-1.09-0.913
				c-0.698-0.305-1.387-0.28-2.05,0.115c-0.202,0.12-0.368,0.269-0.522,0.455c-0.143,0.173-0.267,0.347-0.348,0.551
				C464.806,537.626,464.892,538.357,465.278,539.062z"/>
		</g>
		<g>
			<path fill="#FFFFFF" d="M486.952,526.002c0.729,1.238,1.459,2.476,2.188,3.714c0.148,0.251,0.22,0.288-0.114,0.484
				c-0.676,0.397-1.351,0.795-2.026,1.193c-0.022,0.013-0.045,0.027-0.068,0.039c-0.178,0.092-0.214,0.085-0.316-0.078
				c-0.097-0.155-0.186-0.315-0.28-0.472c-0.033-0.056-0.065-0.114-0.105-0.165c-0.021-0.027-0.058-0.05-0.091-0.056
				c-0.053-0.009-0.062,0.043-0.064,0.078c-0.015,0.209-0.062,0.408-0.129,0.608c-0.128,0.383-0.317,0.722-0.579,1.034
				c-0.137,0.163-0.28,0.301-0.448,0.422c-0.032,0.023-0.067,0.045-0.089,0.076c-0.231,0.322-0.58,0.497-0.922,0.639
				c-0.366,0.152-0.745,0.322-1.15,0.338c-0.752,0.03-1.464-0.095-2.075-0.596c-0.174-0.143-0.336-0.283-0.455-0.473
				c-0.034-0.055-0.069-0.116-0.12-0.154c-0.239-0.178-0.376-0.432-0.522-0.678c-0.978-1.652-1.954-3.306-2.929-4.96
				c-0.18-0.305-0.177-0.311,0.111-0.482c0.651-0.387,1.305-0.77,1.958-1.155c0.045-0.026,0.089-0.054,0.136-0.077
				c0.141-0.069,0.219-0.054,0.304,0.067c0.06,0.085,0.11,0.177,0.163,0.267c0.677,1.148,1.352,2.296,2.03,3.443
				c0.16,0.27,0.325,0.536,0.496,0.799c0.205,0.314,0.602,0.612,0.946,0.777c0.151,0.073,0.314,0.105,0.452,0.079
				c0.429-0.081,0.884-0.133,1.152-0.557c0.076-0.12,0.211-0.178,0.285-0.313c0.201-0.365,0.22-0.747,0.146-1.137
				c-0.073-0.385-0.214-0.744-0.419-1.086c-0.739-1.232-1.462-2.474-2.19-3.713c-0.298-0.506-0.302-0.433,0.185-0.723
				c0.584-0.347,1.17-0.691,1.756-1.034c0.09-0.053,0.182-0.102,0.277-0.146c0.066-0.03,0.131-0.008,0.171,0.051
				c0.066,0.097,0.128,0.197,0.187,0.299C485.52,523.571,486.236,524.787,486.952,526.002z"/>
		</g>
		<g>
			<path fill="#FFFFFF" d="M450.812,549.021c0.337-0.199,0.675-0.397,1.012-0.597c0.156-0.092,0.214-0.128,0.357,0.054
				c0.23,0.291,0.539,0.438,0.914,0.381c0.376-0.057,0.737-0.163,1.048-0.4c0.18-0.136,0.304-0.321,0.436-0.494
				c0.102-0.133,0.119-0.305,0.045-0.482c-0.147-0.352-0.342-0.496-0.722-0.467c-0.246,0.019-0.492,0.056-0.733,0.109
				c-0.531,0.117-1.055,0.276-1.59,0.366c-0.505,0.085-1.003,0.229-1.524,0.218c-0.418-0.009-0.819-0.062-1.192-0.265
				c-0.241-0.131-0.472-0.271-0.617-0.517c-0.033-0.056-0.075-0.108-0.123-0.152c-0.139-0.126-0.231-0.277-0.276-0.461
				c-0.019-0.075-0.052-0.148-0.087-0.218c-0.372-0.753-0.249-1.485,0.121-2.189c0.141-0.269,0.3-0.544,0.56-0.73
				c0.104-0.227,0.316-0.338,0.508-0.471c0.053-0.037,0.104-0.08,0.148-0.127c0.417-0.453,0.984-0.675,1.501-0.972
				c0.21-0.025,0.407-0.088,0.586-0.2c0.173-0.107,0.39-0.038,0.562-0.147c0.604-0.069,1.204-0.115,1.79,0.127
				c0.44,0.182,0.825,0.429,1.122,0.804c0.073,0.092,0.152,0.179,0.222,0.274c0.12,0.164,0.106,0.224-0.075,0.342
				c-0.044,0.029-0.089,0.054-0.134,0.081c-0.596,0.351-1.192,0.703-1.789,1.054c-0.068,0.04-0.134,0.083-0.204,0.116
				c-0.112,0.053-0.196,0.034-0.278-0.06c-0.051-0.059-0.09-0.129-0.143-0.186c-0.154-0.163-0.336-0.285-0.565-0.295
				c-0.391-0.018-0.754,0.069-1.025,0.375c-0.127,0.144-0.291,0.254-0.355,0.457c-0.131,0.412,0.135,0.882,0.564,0.934
				c0.191,0.023,0.394,0.017,0.583-0.018c0.486-0.091,0.967-0.208,1.451-0.313c0.605-0.131,1.198-0.323,1.821-0.36
				c0.468-0.027,0.929-0.01,1.357,0.23c0.172,0.096,0.341,0.2,0.466,0.344c0.272,0.314,0.506,0.647,0.668,1.047
				c0.328,0.81,0.206,1.571-0.126,2.331c-0.108,0.247-0.41,0.644-0.617,0.833c-0.124,0.113-0.182,0.282-0.342,0.368
				c-0.137,0.073-0.283,0.156-0.381,0.271c-0.245,0.287-0.573,0.448-0.886,0.634c-0.146,0.086-0.296,0.162-0.463,0.206
				c-0.125,0.033-0.256,0.075-0.362,0.146c-0.28,0.186-0.609,0.236-0.919,0.309c-0.255,0.06-0.527,0.105-0.802,0.097
				c-0.378-0.011-0.754-0.05-1.101-0.189c-0.369-0.147-0.739-0.315-0.991-0.651c-0.243-0.127-0.367-0.358-0.505-0.577
				c-0.021-0.033-0.041-0.067-0.058-0.102c-0.052-0.105-0.04-0.159,0.068-0.227c0.211-0.13,0.426-0.255,0.639-0.381
				C450.519,549.193,450.665,549.107,450.812,549.021C450.811,549.021,450.811,549.021,450.812,549.021z"/>
		</g>
		<g>
			<path fill="#FFFFFF" d="M492.911,520.354c-0.304,0.179-0.607,0.358-0.911,0.536c-0.079,0.046-0.159,0.091-0.241,0.13
				c-0.066,0.031-0.128,0.014-0.172-0.045c-0.078-0.103-0.145-0.213-0.249-0.299c-0.466-0.382-1.094-0.251-1.5,0.105
				c-0.097,0.086-0.186,0.183-0.266,0.286c-0.283,0.363-0.257,0.88,0.277,1.129c0.045,0.021,0.1,0.028,0.15,0.029
				c0.234,0.005,0.467,0.009,0.699-0.042c0.482-0.105,0.967-0.199,1.446-0.322c0.337-0.087,0.676-0.188,1.018-0.243
				c0.491-0.079,0.986-0.149,1.491-0.051c0.421,0.082,0.769,0.281,1.091,0.543c0.049,0.04,0.082,0.101,0.116,0.157
				c0.124,0.2,0.247,0.4,0.367,0.602c0.388,0.653,0.391,1.346,0.217,2.059c-0.116,0.476-0.406,0.857-0.669,1.253
				c-0.251,0.183-0.393,0.484-0.686,0.623c-0.08,0.038-0.152,0.102-0.216,0.166c-0.396,0.394-0.869,0.659-1.393,0.841
				c-0.111,0.038-0.221,0.082-0.325,0.136c-0.625,0.324-1.299,0.413-1.988,0.381c-0.5-0.023-0.967-0.177-1.385-0.466
				c-0.38-0.263-0.699-0.581-0.921-0.989c-0.083-0.153-0.069-0.227,0.09-0.321c0.662-0.394,1.326-0.784,1.99-1.174
				c0.022-0.013,0.045-0.027,0.069-0.037c0.151-0.065,0.239-0.056,0.337,0.089c0.187,0.277,0.453,0.376,0.767,0.368
				c0.45-0.011,1.13-0.25,1.409-0.641c0.13-0.182,0.274-0.339,0.283-0.576c0.008-0.213-0.189-0.5-0.388-0.571
				c-0.191-0.069-0.386-0.077-0.577-0.041c-0.37,0.07-0.735,0.167-1.105,0.235c-0.407,0.074-0.802,0.207-1.217,0.247
				c-0.191,0.019-0.375,0.088-0.568,0.118c-0.431,0.067-0.895,0.091-1.3,0.036c-0.605-0.083-1.07-0.399-1.414-0.88
				c-0.423-0.589-0.632-1.245-0.528-1.984c0.063-0.449,0.256-0.839,0.508-1.202c0.153-0.221,0.335-0.422,0.512-0.625
				c0.059-0.067,0.142-0.114,0.215-0.167c0.125-0.092,0.26-0.165,0.342-0.312c0.041-0.073,0.135-0.12,0.212-0.167
				c0.266-0.165,0.534-0.328,0.804-0.487c0.191-0.113,0.38-0.228,0.61-0.252c0.063-0.006,0.126-0.036,0.182-0.067
				c0.314-0.168,0.652-0.226,1.002-0.267c0.231-0.028,0.456-0.045,0.689-0.043c0.568,0.005,1.073,0.191,1.521,0.51
				c0.303,0.216,0.586,0.474,0.748,0.829c0.049,0.108,0.04,0.155-0.064,0.228c-0.021,0.015-0.044,0.028-0.066,0.042
				C493.585,519.956,493.248,520.155,492.911,520.354C492.911,520.354,492.911,520.354,492.911,520.354z"/>
		</g>
		<g>
			<path fill="#FFFFFF" d="M473.446,534.096c-0.345-0.585-0.689-1.17-1.034-1.755c-0.046-0.079-0.091-0.159-0.142-0.234
				c-0.085-0.125-0.166-0.151-0.3-0.08c-0.207,0.111-0.407,0.235-0.611,0.352c-0.09,0.052-0.18,0.108-0.275,0.149
				c-0.135,0.059-0.218,0.034-0.297-0.093c-0.111-0.177-0.214-0.359-0.32-0.538c-0.179-0.304-0.361-0.606-0.535-0.912
				c-0.102-0.179-0.087-0.235,0.093-0.348c0.21-0.131,0.427-0.253,0.64-0.38c0.079-0.047,0.156-0.095,0.233-0.144
				c0.079-0.051,0.089-0.131,0.06-0.206c-0.038-0.096-0.092-0.187-0.144-0.277c-0.337-0.574-0.677-1.147-1.013-1.722
				c-0.195-0.334-0.193-0.337,0.139-0.533c0.607-0.359,1.214-0.716,1.822-1.074c0.067-0.04,0.135-0.081,0.206-0.112
				c0.066-0.029,0.135-0.011,0.178,0.042c0.065,0.081,0.121,0.17,0.174,0.259c0.333,0.562,0.664,1.124,0.995,1.687
				c0.257,0.437,0.239,0.375,0.616,0.157c0.35-0.203,0.697-0.411,1.047-0.615c0.09-0.052,0.182-0.102,0.277-0.144
				c0.065-0.029,0.128-0.012,0.171,0.05c0.023,0.032,0.045,0.064,0.065,0.098c0.279,0.472,0.558,0.944,0.834,1.418
				c0.093,0.16,0.08,0.228-0.055,0.333c-0.072,0.056-0.152,0.102-0.23,0.148c-0.337,0.2-0.675,0.398-1.012,0.597
				c-0.078,0.047-0.156,0.095-0.231,0.147c-0.074,0.051-0.091,0.126-0.059,0.206c0.024,0.06,0.057,0.117,0.091,0.173
				c0.531,0.899,1.065,1.797,1.591,2.699c0.134,0.229,0.308,0.417,0.5,0.597c0.109,0.103,0.238,0.164,0.37,0.209
				c0.131,0.044,0.264,0.051,0.416,0.008c0.423-0.119,0.804-0.303,1.141-0.582c0.03-0.025,0.062-0.048,0.095-0.068
				c0.099-0.062,0.174-0.052,0.237,0.033c0.031,0.042,0.057,0.088,0.083,0.133c0.279,0.472,0.557,0.945,0.835,1.417
				c0.033,0.056,0.066,0.113,0.092,0.172c0.048,0.108,0.038,0.171-0.061,0.235c-0.567,0.369-1.049,0.862-1.671,1.152
				c-0.141,0.066-0.27,0.154-0.432,0.174c-0.088,0.011-0.173,0.055-0.255,0.093c-0.852,0.399-1.647,0.314-2.404-0.25
				c-0.392-0.292-0.717-0.632-0.962-1.054c-0.315-0.542-0.635-1.08-0.954-1.62C473.449,534.095,473.448,534.096,473.446,534.096z"/>
		</g>
		<g>
			<path fill="#FFFFFF" d="M457.625,543.391c-0.338-0.573-0.676-1.147-1.014-1.72c-0.053-0.09-0.104-0.182-0.164-0.266
				c-0.07-0.098-0.162-0.122-0.274-0.067c-0.105,0.051-0.205,0.115-0.307,0.173c-0.181,0.104-0.358,0.216-0.543,0.312
				c-0.178,0.092-0.258,0.07-0.357-0.094c-0.282-0.47-0.561-0.942-0.835-1.417c-0.115-0.199-0.1-0.244,0.109-0.372
				c0.245-0.15,0.495-0.29,0.741-0.44c0.216-0.131,0.23-0.182,0.108-0.408c-0.093-0.172-0.197-0.338-0.296-0.507
				c-0.258-0.439-0.517-0.877-0.775-1.316c-0.053-0.09-0.102-0.182-0.144-0.277c-0.029-0.065-0.011-0.128,0.051-0.171
				c0.032-0.022,0.064-0.045,0.098-0.064c0.674-0.398,1.348-0.797,2.024-1.192c0.175-0.102,0.244-0.085,0.358,0.077
				c0.052,0.075,0.096,0.155,0.142,0.234c0.305,0.517,0.61,1.034,0.914,1.552c0.046,0.079,0.09,0.159,0.141,0.235
				c0.12,0.179,0.166,0.193,0.348,0.088c0.395-0.229,0.788-0.461,1.181-0.694c0.459-0.272,0.419-0.232,0.648,0.155
				c0.24,0.404,0.479,0.808,0.715,1.215c0.117,0.202,0.108,0.247-0.076,0.388c-0.082,0.063-0.173,0.116-0.263,0.169
				c-0.314,0.187-0.63,0.371-0.944,0.557c-0.078,0.047-0.156,0.095-0.231,0.147c-0.075,0.053-0.083,0.132-0.052,0.21
				c0.029,0.072,0.071,0.139,0.111,0.207c0.503,0.855,1.011,1.707,1.509,2.564c0.16,0.274,0.357,0.511,0.598,0.715
				c0.233,0.198,0.479,0.262,0.788,0.175c0.411-0.115,0.776-0.3,1.104-0.567c0.04-0.033,0.084-0.063,0.131-0.084
				c0.064-0.028,0.13-0.018,0.177,0.037c0.042,0.049,0.078,0.104,0.111,0.16c0.279,0.472,0.557,0.944,0.835,1.417
				c0.026,0.045,0.053,0.09,0.074,0.138c0.053,0.123,0.037,0.192-0.069,0.27c-0.073,0.054-0.153,0.099-0.227,0.153
				c-0.106,0.076-0.219,0.145-0.311,0.236c-0.368,0.364-0.833,0.579-1.272,0.834c-0.066,0.038-0.145,0.057-0.221,0.072
				c-0.117,0.023-0.223,0.07-0.329,0.12c-0.838,0.393-1.629,0.3-2.37-0.245c-0.38-0.279-0.707-0.61-0.946-1.023
				c-0.328-0.564-0.662-1.125-0.993-1.687C457.629,543.389,457.627,543.39,457.625,543.391z"/>
		</g>
	</g>
</g>
</svg>
