<?xml version="1.0" encoding="utf-8"?>
<!-- Generator: Adobe Illustrator 21.0.2, SVG Export Plug-In . SVG Version: 6.00 Build 0)  -->
<svg version="1.1" id="Layer_1" xmlns="http://www.w3.org/2000/svg" xmlns:xlink="http://www.w3.org/1999/xlink" x="0px" y="0px"
	 viewBox="0 0 841.89 595.28" enable-background="new 0 0 841.89 595.28" xml:space="preserve">
<g>
	<polygon fill="#8C8C8C" points="428.583,581.192 177.665,436.323 177.665,146.587 428.583,1.718 679.503,146.587 679.503,436.321 	
		"/>
</g>
<g enable-background="new    ">
	<path fill="#FFFFFF" d="M428.578,47.57L217.054,169.518v243.887l211.523,121.934l211.535-121.934V169.518L428.578,47.57z
		 M631.548,408.49l-202.97,117.026L225.6,408.49V174.476L428.578,57.453l202.97,117.024V408.49z"/>
</g>
<g>
	<path fill="#FFFFFF" d="M214.221,158.223l-4.89-14.365l9.484,6.966l-1.091-11.787l9.689,11.608l-1.859,1.067l-5.324-6.584
		l0.928,9.844l-7.94-5.825l2.878,7.999L214.221,158.223z"/>
	<path fill="#FFFFFF" d="M230.855,138.59l1.759-1.01l4.353,7.577l-1.758,1.01l-0.456-0.794c-0.334,1.089-0.916,1.871-1.745,2.348
		c-1.048,0.602-2.132,0.721-3.251,0.356c-1.123-0.382-2.017-1.151-2.681-2.308c-0.653-1.137-0.857-2.277-0.612-3.426
		c0.244-1.146,0.877-2.015,1.898-2.602c0.882-0.506,1.882-0.597,2.999-0.272L230.855,138.59z M228.865,144.741
		c0.417,0.726,0.95,1.205,1.602,1.438c0.664,0.231,1.301,0.174,1.907-0.175c0.648-0.372,1.044-0.896,1.187-1.571
		c0.135-0.691-0.002-1.392-0.41-2.102c-0.408-0.711-0.944-1.183-1.609-1.414c-0.658-0.223-1.307-0.15-1.944,0.216
		c-0.603,0.346-0.974,0.863-1.116,1.552C228.347,143.377,228.475,144.062,228.865,144.741z"/>
	<path fill="#FFFFFF" d="M234.823,136.311l1.75-1.006l0.39,0.678c0.128-0.521,0.28-0.916,0.457-1.185
		c0.181-0.274,0.443-0.513,0.791-0.712c0.461-0.266,1.03-0.393,1.706-0.381l0.12,2.063c-0.47-0.048-0.863,0.02-1.179,0.201
		c-0.954,0.548-1.018,1.542-0.188,2.983l2.256,3.93l-1.75,1.005L234.823,136.311z"/>
	<path fill="#FFFFFF" d="M239.337,126.321l4.603,8.012l1.059-3.867l2.349-1.349l-1.462,5.071l6.056,2.366l-2.271,1.306l-4.342-1.759
		l-0.118,0.441l1.676,2.917l-1.75,1.005l-7.548-13.139L239.337,126.321z"/>
	<path fill="#FFFFFF" d="M258.029,128.567l-5.43,3.119c0.404,0.596,0.891,0.975,1.461,1.138c0.565,0.157,1.129,0.075,1.689-0.246
		c0.436-0.251,0.736-0.563,0.901-0.934c0.161-0.369,0.26-0.935,0.296-1.7l1.951-0.025c-0.004,0.521-0.054,0.993-0.148,1.416
		c-0.095,0.424-0.236,0.808-0.424,1.153c-0.188,0.347-0.426,0.657-0.715,0.934c-0.29,0.276-0.632,0.528-1.026,0.755
		c-1.13,0.649-2.245,0.809-3.348,0.476c-1.104-0.339-2.004-1.111-2.698-2.32c-0.688-1.197-0.913-2.357-0.676-3.48
		c0.249-1.117,0.926-1.991,2.03-2.626c1.115-0.641,2.2-0.791,3.258-0.454c1.048,0.337,1.931,1.129,2.649,2.379L258.029,128.567z
		 M255.41,128.168c-0.78-0.793-1.637-0.922-2.57-0.386c-0.213,0.122-0.393,0.271-0.543,0.442c-0.149,0.171-0.266,0.362-0.349,0.572
		s-0.13,0.432-0.141,0.665s0.019,0.476,0.087,0.726L255.41,128.168z"/>
	<path fill="#FFFFFF" d="M260.273,123.865l3.413,5.943l-1.75,1.005l-3.413-5.943l-0.747,0.429l-0.938-1.634l0.746-0.429
		l-1.595-2.776l1.75-1.005l1.595,2.775l1.361-0.781l0.939,1.633L260.273,123.865z"/>
	<path fill="#FFFFFF" d="M270.357,131.46l-1.75,1.005l-6.722-11.7l1.751-1.005l0.473,0.824c0.294-1.085,0.879-1.881,1.756-2.384
		c1.042-0.599,2.121-0.708,3.236-0.328c1.122,0.368,2.017,1.136,2.685,2.296c0.652,1.137,0.856,2.277,0.611,3.426
		c-0.241,1.139-0.876,2.004-1.903,2.594c-0.887,0.51-1.884,0.609-2.992,0.302L270.357,131.46z M270.001,121.204
		c-0.417-0.726-0.953-1.203-1.609-1.435c-0.665-0.23-1.301-0.174-1.907,0.175c-0.643,0.37-1.036,0.893-1.18,1.567
		c-0.143,0.676-0.006,1.376,0.411,2.102c0.409,0.712,0.944,1.184,1.609,1.415c0.652,0.224,1.301,0.152,1.944-0.217
		c0.606-0.349,0.976-0.864,1.107-1.548C270.52,122.576,270.395,121.89,270.001,121.204z"/>
	<path fill="#FFFFFF" d="M269.994,108.711l7.547,13.139l-1.75,1.005l-7.547-13.139L269.994,108.711z"/>
	<path fill="#FFFFFF" d="M280.991,109.79l1.758-1.01l4.353,7.577l-1.758,1.01l-0.455-0.794c-0.334,1.089-0.916,1.871-1.746,2.349
		c-1.047,0.602-2.131,0.72-3.25,0.356c-1.123-0.382-2.018-1.152-2.682-2.309c-0.652-1.137-0.856-2.276-0.611-3.425
		c0.244-1.147,0.877-2.015,1.898-2.602c0.882-0.506,1.881-0.598,2.999-0.273L280.991,109.79z M279,115.942
		c0.418,0.726,0.951,1.204,1.602,1.438c0.665,0.231,1.301,0.174,1.908-0.175c0.648-0.372,1.044-0.896,1.187-1.571
		c0.134-0.691-0.003-1.393-0.411-2.103c-0.408-0.711-0.943-1.182-1.608-1.413c-0.658-0.223-1.307-0.15-1.944,0.216
		c-0.603,0.346-0.974,0.862-1.116,1.552C278.482,114.577,278.609,115.263,279,115.942z"/>
	<path fill="#FFFFFF" d="M291.043,104.451l1.336,2.326c-0.68-0.259-1.229-0.387-1.649-0.387c-0.419-0.008-0.838,0.108-1.259,0.35
		c-0.658,0.378-1.072,0.924-1.242,1.635c-0.171,0.713-0.057,1.416,0.342,2.109c0.409,0.713,0.954,1.175,1.636,1.389
		c0.688,0.213,1.36,0.13,2.02-0.248c0.42-0.242,0.738-0.545,0.956-0.912c0.21-0.355,0.379-0.906,0.507-1.656l1.327,2.31
		c-0.499,0.777-1.104,1.369-1.814,1.777c-1.172,0.673-2.369,0.857-3.593,0.554c-1.226-0.311-2.164-1.03-2.813-2.161
		c-0.649-1.13-0.798-2.313-0.446-3.55s1.108-2.189,2.271-2.856C289.365,104.701,290.174,104.476,291.043,104.451z"/>
	<path fill="#FFFFFF" d="M301.863,103.388l-5.43,3.119c0.404,0.595,0.891,0.975,1.461,1.137c0.566,0.158,1.13,0.076,1.689-0.245
		c0.436-0.251,0.736-0.563,0.902-0.934c0.161-0.369,0.26-0.935,0.296-1.701l1.951-0.024c-0.005,0.521-0.055,0.992-0.149,1.416
		c-0.094,0.424-0.235,0.808-0.424,1.153c-0.187,0.347-0.426,0.656-0.715,0.934c-0.29,0.276-0.632,0.528-1.025,0.755
		c-1.131,0.649-2.246,0.809-3.349,0.476c-1.104-0.339-2.003-1.112-2.698-2.321c-0.688-1.197-0.912-2.357-0.675-3.479
		c0.249-1.117,0.925-1.992,2.03-2.626c1.114-0.641,2.2-0.792,3.257-0.454c1.048,0.337,1.932,1.129,2.649,2.379L301.863,103.388z
		 M299.244,102.988c-0.779-0.793-1.637-0.922-2.57-0.386c-0.213,0.122-0.393,0.271-0.543,0.441
		c-0.148,0.172-0.266,0.363-0.348,0.573c-0.084,0.21-0.13,0.432-0.141,0.665s0.019,0.476,0.086,0.726L299.244,102.988z"/>
	<path fill="#FFFFFF" d="M306.509,96.85l-1.004,1.602c-0.496-0.336-0.913-0.407-1.25-0.213c-0.161,0.092-0.268,0.225-0.321,0.396
		c-0.053,0.172-0.031,0.341,0.064,0.507c0.166,0.291,0.669,0.385,1.507,0.283c1.157-0.134,1.994-0.125,2.509,0.027
		c0.516,0.152,0.938,0.514,1.264,1.084c0.421,0.732,0.503,1.499,0.246,2.301c-0.256,0.768-0.754,1.365-1.495,1.791
		c-1.271,0.729-2.526,0.626-3.768-0.309l1.097-1.551c0.415,0.244,0.705,0.384,0.871,0.42c0.326,0.075,0.637,0.027,0.933-0.143
		c0.591-0.339,0.731-0.779,0.422-1.318c-0.179-0.311-0.573-0.471-1.185-0.477c-0.228,0.012-0.453,0.027-0.677,0.046
		c-0.225,0.018-0.452,0.035-0.685,0.051c-0.651,0.043-1.152,0-1.503-0.13c-0.445-0.164-0.812-0.495-1.098-0.993
		c-0.378-0.659-0.466-1.333-0.262-2.022c0.215-0.695,0.651-1.232,1.31-1.61C304.454,96.033,305.463,96.12,306.509,96.85z"/>
	<path fill="#FFFFFF" d="M314.825,86.724l5.921,10.308l-1.813,1.041l-5.921-10.308l-2.762,1.587l-0.979-1.703l7.327-4.21
		l0.979,1.703L314.825,86.724z"/>
	<path fill="#FFFFFF" d="M320.431,87.135l1.75-1.005l0.39,0.678c0.128-0.522,0.28-0.917,0.457-1.185
		c0.18-0.275,0.443-0.514,0.791-0.713c0.461-0.266,1.029-0.392,1.706-0.38l0.12,2.063c-0.47-0.048-0.863,0.02-1.18,0.201
		c-0.953,0.548-1.017,1.543-0.188,2.984l2.256,3.929l-1.75,1.006L320.431,87.135z"/>
	<path fill="#FFFFFF" d="M331.975,80.504l1.758-1.01l4.354,7.577l-1.758,1.01l-0.456-0.794c-0.334,1.089-0.916,1.871-1.745,2.348
		c-1.049,0.602-2.132,0.721-3.251,0.356c-1.123-0.382-2.017-1.151-2.681-2.308c-0.653-1.137-0.857-2.277-0.612-3.426
		c0.244-1.146,0.877-2.014,1.898-2.602c0.882-0.506,1.881-0.597,2.999-0.272L331.975,80.504z M329.984,86.655
		c0.416,0.726,0.95,1.205,1.602,1.438c0.664,0.232,1.301,0.174,1.907-0.174c0.647-0.373,1.044-0.896,1.187-1.572
		c0.135-0.691-0.002-1.392-0.41-2.102c-0.408-0.711-0.945-1.182-1.609-1.414c-0.658-0.223-1.307-0.15-1.944,0.216
		c-0.603,0.347-0.974,0.863-1.116,1.552C329.466,85.291,329.594,85.976,329.984,86.655z"/>
	<path fill="#FFFFFF" d="M342.025,75.165l1.336,2.326c-0.68-0.259-1.229-0.388-1.648-0.388c-0.419-0.007-0.838,0.109-1.259,0.351
		c-0.658,0.378-1.072,0.924-1.243,1.635c-0.17,0.712-0.057,1.415,0.343,2.11c0.409,0.711,0.954,1.174,1.636,1.388
		c0.688,0.213,1.36,0.13,2.02-0.249c0.42-0.24,0.738-0.545,0.955-0.911c0.211-0.355,0.379-0.907,0.508-1.656l1.326,2.31
		c-0.498,0.777-1.104,1.369-1.814,1.777c-1.172,0.673-2.369,0.857-3.592,0.554c-1.227-0.311-2.164-1.03-2.813-2.161
		c-0.649-1.13-0.798-2.313-0.446-3.551c0.352-1.235,1.107-2.188,2.27-2.855C340.349,75.414,341.156,75.189,342.025,75.165z"/>
	<path fill="#FFFFFF" d="M342.09,67.297l4.603,8.012l1.058-3.867l2.35-1.349l-1.463,5.071l6.057,2.367l-2.271,1.305l-4.342-1.758
		l-0.119,0.44l1.676,2.917l-1.75,1.006l-7.547-13.139L342.09,67.297z"/>
	<path fill="#FFFFFF" d="M353.827,58.98l9.228,7.432l-2.003-12.508l9.628,8.128l-1.539-11.849l2.348-1.348l2.348,18.906
		l-9.511-8.031l1.994,12.362L351.48,60.328L353.827,58.98z"/>
	<path fill="#FFFFFF" d="M373.434,49.753c-0.209-0.364-0.258-0.756-0.145-1.175s0.355-0.734,0.727-0.947
		c0.377-0.217,0.775-0.27,1.193-0.155c0.416,0.107,0.731,0.349,0.947,0.726c0.218,0.377,0.27,0.776,0.156,1.194
		c-0.106,0.415-0.35,0.731-0.727,0.948s-0.775,0.268-1.193,0.154C373.974,50.386,373.654,50.137,373.434,49.753z M377.994,52.131
		l5.189,9.034l-2.086,1.198l-5.189-9.033L377.994,52.131z"/>
	<path fill="#FFFFFF" d="M380.639,50.612l2.096-1.204l0.479,0.834c0.313-1.143,0.929-1.977,1.845-2.502
		c1.051-0.604,2.061-0.744,3.027-0.42c0.83,0.271,1.611,1.044,2.344,2.317l3.181,5.538l-2.097,1.204l-2.898-5.046
		c-0.512-0.892-0.988-1.435-1.432-1.633c-0.439-0.208-0.979-0.128-1.615,0.238c-0.693,0.397-1.053,0.908-1.081,1.532
		c-0.024,0.614,0.286,1.485,0.933,2.611l2.504,4.359l-2.096,1.204L380.639,50.612z"/>
	<path fill="#FFFFFF" d="M391.055,44.629l2.097-1.205l0.479,0.834c0.313-1.143,0.929-1.977,1.844-2.502
		c1.051-0.604,2.061-0.743,3.027-0.42c0.832,0.272,1.613,1.045,2.344,2.318l3.182,5.538l-2.097,1.204l-2.898-5.046
		c-0.512-0.892-0.989-1.435-1.432-1.634c-0.439-0.207-0.979-0.127-1.616,0.238c-0.691,0.398-1.053,0.909-1.08,1.533
		c-0.025,0.614,0.286,1.484,0.933,2.611l2.504,4.359l-2.097,1.203L391.055,44.629z"/>
	<path fill="#FFFFFF" d="M412.576,38.928l-6.475,3.719c0.482,0.709,1.063,1.162,1.741,1.356c0.675,0.188,1.347,0.09,2.015-0.294
		c0.52-0.299,0.879-0.67,1.076-1.111c0.192-0.439,0.31-1.115,0.354-2.029l2.326-0.029c-0.006,0.62-0.064,1.184-0.178,1.688
		c-0.113,0.506-0.281,0.963-0.505,1.376c-0.224,0.412-0.509,0.784-0.854,1.112c-0.346,0.331-0.753,0.631-1.222,0.9
		c-1.349,0.775-2.68,0.964-3.993,0.566c-1.317-0.402-2.39-1.324-3.218-2.766c-0.82-1.43-1.088-2.812-0.805-4.15
		c0.297-1.331,1.104-2.374,2.421-3.131c1.329-0.764,2.624-0.944,3.884-0.541c1.25,0.4,2.303,1.346,3.158,2.836L412.576,38.928z
		 M409.453,38.45c-0.93-0.945-1.951-1.099-3.064-0.459c-0.254,0.146-0.471,0.32-0.647,0.526c-0.179,0.205-0.317,0.433-0.416,0.683
		c-0.099,0.251-0.155,0.515-0.167,0.794c-0.013,0.277,0.021,0.566,0.102,0.865L409.453,38.45z"/>
	<path fill="#FFFFFF" d="M411.981,32.607l2.087-1.198l0.463,0.807c0.152-0.623,0.335-1.094,0.547-1.412
		c0.213-0.329,0.528-0.612,0.942-0.85c0.55-0.316,1.229-0.467,2.034-0.454l0.143,2.461c-0.56-0.058-1.027,0.022-1.404,0.239
		c-1.139,0.653-1.213,1.84-0.227,3.559l2.691,4.685l-2.087,1.199L411.981,32.607z"/>
</g>
<g>
	<g>
		<path fill="#FFFFFF" d="M225.477,364.123c105.678,0,211.357,0,317.035,0c29.834,0,59.669,0,89.503,0c3.217,0,3.223-5,0-5
			c-104.711,0-209.423,0-314.134,0c-30.801,0-61.603,0-92.404,0C222.26,359.123,222.255,364.123,225.477,364.123L225.477,364.123z"
			/>
	</g>
</g>
<g>
	<g>
		<path fill="#FFFFFF" d="M302.352,359.81c0-17.843,0-35.685,0-53.528c0-3.217-5-3.223-5,0c0,17.843,0,35.685,0,53.528
			C297.352,363.027,302.352,363.033,302.352,359.81L302.352,359.81z"/>
	</g>
</g>
<g>
	<g>
		<path fill="#FFFFFF" d="M299.876,303.496c-0.905,0-1.809,0-2.714,0c-3.217,0-3.223,5,0,5c3.133,0,6.265,0,9.397,0
			c3.217,0,3.223-5,0-5c-0.126,0-0.251,0-0.377,0c-3.217,0-3.223,5,0,5c18.738,0,37.476,0,56.213,0c3.217,0,3.223-5,0-5
			c-18.738,0-37.476,0-56.213,0c-3.217,0-3.223,5,0,5c0.126,0,0.251,0,0.377,0c3.217,0,3.223-5,0-5c-3.133,0-6.265,0-9.397,0
			c-3.217,0-3.223,5,0,5c0.905,0,1.809,0,2.714,0C303.094,308.496,303.099,303.496,299.876,303.496L299.876,303.496z"/>
	</g>
</g>
<g>
	<g>
		<path fill="#FFFFFF" d="M361.748,359.524c0-17.461,0-34.922,0-52.383c0-3.217-5-3.223-5,0c0,17.461,0,34.922,0,52.383
			C356.748,362.741,361.748,362.747,361.748,359.524L361.748,359.524z"/>
	</g>
</g>
<g>
	<g>
		<path fill="#FFFFFF" d="M299.776,305.853c0-4.055,0-8.11,0-12.165c0-3.217-5-3.223-5,0c0,4.055,0,8.11,0,12.165
			C294.776,309.07,299.776,309.076,299.776,305.853L299.776,305.853z"/>
	</g>
</g>
<g>
	<g>
		<path fill="#FFFFFF" d="M297.418,295.901c21.612,0,43.223,0,64.835,0c3.217,0,3.223-5,0-5c-21.612,0-43.223,0-64.835,0
			C294.201,290.901,294.196,295.901,297.418,295.901L297.418,295.901z"/>
	</g>
</g>
<g>
	<g>
		<path fill="#FFFFFF" d="M364.753,305.996c0-4.007,0-8.015,0-12.022c0-3.217-5-3.223-5,0c0,4.007,0,8.015,0,12.022
			C359.753,309.213,364.753,309.219,364.753,305.996L364.753,305.996z"/>
	</g>
</g>
<g>
	<g>
		<path fill="#FFFFFF" d="M310.653,360.239c0-8.73,0-17.461,0-26.191c0-3.217-5-3.223-5,0c0,8.73,0,17.461,0,26.191
			C305.653,363.457,310.653,363.462,310.653,360.239L310.653,360.239z"/>
	</g>
</g>
<g>
	<g>
		<path fill="#FFFFFF" d="M307.867,336.405c3.673,0,7.347,0,11.02,0c3.217,0,3.223-5,0-5c-3.673,0-7.347,0-11.02,0
			C304.65,331.405,304.644,336.405,307.867,336.405L307.867,336.405z"/>
	</g>
</g>
<g>
	<g>
		<path fill="#FFFFFF" d="M322.962,360.669c0-8.635,0-17.27,0-25.905c0-3.217-5-3.223-5,0c0,8.635,0,17.27,0,25.905
			C317.962,363.886,322.962,363.892,322.962,360.669L322.962,360.669z"/>
	</g>
</g>
<g>
	<g>
		<path fill="#FFFFFF" d="M330.909,336.262c9.255,0,18.511,0,27.766,0c3.217,0,3.223-5,0-5c-9.255,0-18.511,0-27.766,0
			C327.692,331.262,327.687,336.262,330.909,336.262L330.909,336.262z"/>
	</g>
</g>
<g>
	<g>
		<path fill="#FFFFFF" d="M328.266,329.182c0,1.574,0,3.149,0,4.723c0,3.217,5,3.223,5,0c0-1.574,0-3.149,0-4.723
			C333.266,325.965,328.266,325.96,328.266,329.182L328.266,329.182z"/>
	</g>
</g>
<g>
	<g>
		<path fill="#FFFFFF" d="M358.246,326.539c-8.635,0-17.27,0-25.905,0c-3.217,0-3.223,5,0,5c8.635,0,17.27,0,25.905,0
			C361.463,331.539,361.468,326.539,358.246,326.539L358.246,326.539z"/>
	</g>
</g>
<g>
	<g>
		<path fill="#FFFFFF" d="M332.98,328.896c0-2.481,0-4.962,0-7.442c0-3.217-5-3.223-5,0c0,2.481,0,4.962,0,7.442
			C327.98,332.113,332.98,332.118,332.98,328.896L332.98,328.896z"/>
	</g>
</g>
<g>
	<g>
		<path fill="#FFFFFF" d="M328.333,322.522c1.67,0,3.34,0,5.009,0c3.217,0,3.223-5,0-5c-1.67,0-3.34,0-5.009,0
			C325.116,317.522,325.111,322.522,328.333,322.522L328.333,322.522z"/>
	</g>
</g>
<g>
	<g>
		<path fill="#FFFFFF" d="M328.123,335.479c0,4.294,0,8.587,0,12.881c0,3.217,5,3.223,5,0c0-4.294,0-8.587,0-12.881
			C333.123,332.262,328.123,332.257,328.123,335.479L328.123,335.479z"/>
	</g>
</g>
<g>
	<g>
		<path fill="#FFFFFF" d="M331.482,351.29c8.397,0,16.793,0,25.19,0c3.217,0,3.223-5,0-5c-8.397,0-16.793,0-25.19,0
			C328.265,346.29,328.259,351.29,331.482,351.29L331.482,351.29z"/>
	</g>
</g>
<g>
	<g>
		<path fill="#FFFFFF" d="M328.266,347.788c0,3.721,0,7.442,0,11.163c0,3.217,5,3.223,5,0c0-3.721,0-7.442,0-11.163
			C333.266,344.571,328.266,344.566,328.266,347.788L328.266,347.788z"/>
	</g>
</g>
<g>
	<g>
		<path fill="#FFFFFF" d="M337.362,348.907c0.174-0.238,0.399-0.533,0.626-0.711c0.294-0.144,0.351-0.193,0.172-0.145
			c0.308-0.083,0.342-0.094,0.103-0.035c0.063,0.27-0.606-0.711-0.012,0.051c0.27,0.347,0.561,0.607,0.805,0.983
			c1.747,2.688,6.078,0.185,4.317-2.524c-1.165-1.793-2.811-3.499-5.111-3.51c-2.311-0.011-3.947,1.632-5.218,3.367
			c-0.798,1.09-0.184,2.789,0.897,3.42C335.209,350.545,336.562,349.999,337.362,348.907L337.362,348.907z"/>
	</g>
</g>
<g>
	<g>
		<path fill="#FFFFFF" d="M353.303,347.645c-0.009-1.376-0.181-2.841,0.054-4.201c-1.025,0.582-2.05,1.164-3.075,1.746
			c0.351,0.144,0.612,0.404,0.616,0.409c-0.143-0.195,0.164,0.299,0.185,0.357c-0.165-0.449,0.046,0.315,0.049,0.328
			c0.171,0.754,0.252,2.054,0.409,3.172c0.189,1.338,1.894,2.071,3.075,1.746c1.439-0.396,1.935-1.733,1.746-3.075
			c-0.204-1.449-0.217-3.06-0.869-4.474c-0.779-1.689-2.211-2.598-3.883-3.283c-1.169-0.479-2.865,0.529-3.075,1.746
			c-0.319,1.848-0.245,3.666-0.233,5.531C348.325,350.861,353.325,350.868,353.303,347.645L353.303,347.645z"/>
	</g>
</g>
<g>
	<g>
		<path fill="#FFFFFF" d="M335.992,348.706c0.311,0.145,0.628,0.281,0.95,0.4c0.16,0.059,0.641,0.278,0.004-0.019
			c0.623,0.29,1.24,0.441,1.926,0.252c0.58-0.16,1.208-0.608,1.494-1.149c0.584-1.105,0.369-2.832-0.897-3.42
			c-0.311-0.145-0.627-0.281-0.95-0.4c-0.161-0.059-0.64-0.278-0.005,0.018c-0.623-0.29-1.241-0.441-1.926-0.252
			c-0.58,0.16-1.208,0.608-1.494,1.149C334.511,346.391,334.727,348.116,335.992,348.706L335.992,348.706z"/>
	</g>
</g>
<g>
	<g>
		<path fill="#FFFFFF" d="M350.172,346.664c0.078,0.157,0.157,0.314,0.233,0.472c0.045,0.094,0.226,0.505,0.043,0.076
			c-0.175-0.411-0.042-0.063-0.011,0.018c0.14,0.365-0.05-0.694-0.035-0.301c0.05,1.305,1.114,2.562,2.5,2.5
			c1.312-0.059,2.554-1.1,2.5-2.5c-0.04-1.029-0.462-1.884-0.913-2.788c-0.585-1.173-2.338-1.595-3.42-0.897
			C349.869,344.018,349.547,345.41,350.172,346.664L350.172,346.664z"/>
	</g>
</g>
<g>
	<g>
		<path fill="#FFFFFF" d="M306.741,305.137c0-3.117,0-6.234,0-9.351c0-3.217-5-3.223-5,0c0,3.117,0,6.234,0,9.351
			C301.741,308.355,306.741,308.36,306.741,305.137L306.741,305.137z"/>
	</g>
</g>
<g>
	<g>
		<path fill="#FFFFFF" d="M315.329,305.137c0-3.117,0-6.234,0-9.351c0-3.217-5-3.223-5,0c0,3.117,0,6.234,0,9.351
			C310.329,308.355,315.329,308.36,315.329,305.137L315.329,305.137z"/>
	</g>
</g>
<g>
	<g>
		<path fill="#FFFFFF" d="M323.916,305.137c0-3.117,0-6.234,0-9.351c0-3.217-5-3.223-5,0c0,3.117,0,6.234,0,9.351
			C318.916,308.355,323.916,308.36,323.916,305.137L323.916,305.137z"/>
	</g>
</g>
<g>
	<g>
		<path fill="#FFFFFF" d="M332.503,305.137c0-3.117,0-6.234,0-9.351c0-3.217-5-3.223-5,0c0,3.117,0,6.234,0,9.351
			C327.503,308.355,332.503,308.36,332.503,305.137L332.503,305.137z"/>
	</g>
</g>
<g>
	<g>
		<path fill="#FFFFFF" d="M341.091,305.137c0-3.117,0-6.234,0-9.351c0-3.217-5-3.223-5,0c0,3.117,0,6.234,0,9.351
			C336.091,308.355,341.091,308.36,341.091,305.137L341.091,305.137z"/>
	</g>
</g>
<g>
	<g>
		<path fill="#FFFFFF" d="M349.678,305.137c0-3.117,0-6.234,0-9.351c0-3.217-5-3.223-5,0c0,3.117,0,6.234,0,9.351
			C344.678,308.355,349.678,308.36,349.678,305.137L349.678,305.137z"/>
	</g>
</g>
<g>
	<g>
		<path fill="#FFFFFF" d="M358.265,305.137c0-3.117,0-6.234,0-9.351c0-3.217-5-3.223-5,0c0,3.117,0,6.234,0,9.351
			C353.265,308.355,358.265,308.36,358.265,305.137L358.265,305.137z"/>
	</g>
</g>
<g>
	<g>
		<path fill="#FFFFFF" d="M359.029,291.111c0-5.439,0-10.877,0-16.316c0-3.217-5-3.223-5,0c0,5.439,0,10.877,0,16.316
			C354.029,294.329,359.029,294.334,359.029,291.111L359.029,291.111z"/>
	</g>
</g>
<g>
	<g>
		<path fill="#FFFFFF" d="M357.387,275.578c40.551,0,81.103,0,121.654,0c3.217,0,3.223-5,0-5c-40.551,0-81.103,0-121.654,0
			C354.17,270.578,354.165,275.578,357.387,275.578L357.387,275.578z"/>
	</g>
</g>
<g>
	<g>
		<path fill="#FFFFFF" d="M476.827,273.078c0,28.529,0,57.058,0,85.587c0,3.217,5,3.223,5,0c0-0.095,0-0.191,0-0.286
			c0-3.217-5-3.223-5,0c0,0.095,0,0.191,0,0.286c0,3.217,5,3.223,5,0c0-28.529,0-57.058,0-85.587
			C481.827,269.861,476.827,269.855,476.827,273.078L476.827,273.078z"/>
	</g>
</g>
<g>
	<g>
		<path fill="#FFFFFF" d="M439.177,361.242c0-11.45,0-22.9,0-34.349c0-3.217-5-3.223-5,0c0,11.45,0,22.9,0,34.349
			C434.177,364.459,439.177,364.464,439.177,361.242L439.177,361.242z"/>
	</g>
</g>
<g>
	<g>
		<path fill="#FFFFFF" d="M436.677,329.964c8.969,0,17.938,0,26.907,0c3.217,0,3.223-5,0-5c-8.969,0-17.938,0-26.907,0
			C433.46,324.964,433.455,329.964,436.677,329.964L436.677,329.964z"/>
	</g>
</g>
<g>
	<g>
		<path fill="#FFFFFF" d="M460.511,328.323c0,10.877,0,21.755,0,32.632c0,3.217,5,3.223,5,0c0-10.877,0-21.755,0-32.632
			C465.511,325.106,460.511,325.101,460.511,328.323L460.511,328.323z"/>
	</g>
</g>
<g>
	<g>
		<path fill="#FFFFFF" d="M452.345,360.383c0-10.305,0-20.61,0-30.914c0-3.217-5-3.223-5,0c0,10.305,0,20.61,0,30.914
			C447.345,363.6,452.345,363.605,452.345,360.383L452.345,360.383z"/>
	</g>
</g>
<g>
	<g>
		<path fill="#FFFFFF" d="M361.395,270.578c-3.721,0-7.442,0-11.163,0c-3.217,0-3.223,5,0,5c3.721,0,7.442,0,11.163,0
			C364.612,275.578,364.617,270.578,361.395,270.578L361.395,270.578z"/>
	</g>
</g>
<g>
	<g>
		<path fill="#FFFFFF" d="M353.017,272.219c0-5.534,0-11.068,0-16.602c0-3.217-5-3.223-5,0c0,5.534,0,11.068,0,16.602
			C348.017,275.437,353.017,275.442,353.017,272.219L353.017,272.219z"/>
	</g>
</g>
<g>
	<g>
		<path fill="#FFFFFF" d="M351.09,257.258c46.181,0,92.362,0,138.543,0c3.217,0,3.223-5,0-5c-46.181,0-92.362,0-138.543,0
			C347.873,252.258,347.867,257.258,351.09,257.258L351.09,257.258z"/>
	</g>
</g>
<g>
	<g>
		<path fill="#FFFFFF" d="M477.324,275.864c3.912,0,7.824,0,11.736,0c3.217,0,3.223-5,0-5c-3.912,0-7.824,0-11.736,0
			C474.107,270.864,474.101,275.864,477.324,275.864L477.324,275.864z"/>
	</g>
</g>
<g>
	<g>
		<path fill="#FFFFFF" d="M491.274,273.364c0-5.63,0-11.259,0-16.889c0-3.217-5-3.223-5,0c0,5.63,0,11.259,0,16.889
			C486.274,276.582,491.274,276.587,491.274,273.364L491.274,273.364z"/>
	</g>
</g>
<g>
	<g>
		<path fill="#FFFFFF" d="M367.596,302.676c17.556,0,35.113,0,52.669,0c3.217,0,3.223-5,0-5c-17.556,0-35.113,0-52.669,0
			C364.379,297.676,364.374,302.676,367.596,302.676L367.596,302.676z"/>
	</g>
</g>
<g>
	<g>
		<path fill="#FFFFFF" d="M417.193,300.557c0,12.913,0,25.826,0,38.739c0,3.217,5,3.223,5,0c0-12.913,0-25.826,0-38.739
			C422.193,297.34,417.193,297.335,417.193,300.557L417.193,300.557z"/>
	</g>
</g>
<g>
	<g>
		<path fill="#FFFFFF" d="M418.93,337.178c-16.411,0-32.823,0-49.234,0c-3.217,0-3.223,5,0,5c16.411,0,32.823,0,49.234,0
			C422.147,342.178,422.153,337.178,418.93,337.178L418.93,337.178z"/>
	</g>
</g>
<g>
	<g>
		<path fill="#FFFFFF" d="M371.814,339.487c0-12.404,0-24.808,0-37.212c0-3.217-5-3.223-5,0c0,12.404,0,24.808,0,37.212
			C366.814,342.704,371.814,342.709,371.814,339.487L371.814,339.487z"/>
	</g>
</g>
<g>
	<g>
		<path fill="#FFFFFF" d="M435.704,311.053c0,2.99,0,5.979,0,8.969c0,3.217,5,3.223,5,0c0-2.99,0-5.979,0-8.969
			C440.704,307.836,435.704,307.83,435.704,311.053L435.704,311.053z"/>
	</g>
</g>
<g>
	<g>
		<path fill="#FFFFFF" d="M438.204,312.599c7.824,0,15.648,0,23.472,0c3.217,0,3.223-5,0-5c-7.824,0-15.648,0-23.472,0
			C434.987,307.599,434.982,312.599,438.204,312.599L438.204,312.599z"/>
	</g>
</g>
<g>
	<g>
		<path fill="#FFFFFF" d="M438.586,322.713c7.697,0,15.394,0,23.09,0c3.217,0,3.223-5,0-5c-7.697,0-15.394,0-23.09,0
			C435.368,317.713,435.363,322.713,438.586,322.713L438.586,322.713z"/>
	</g>
</g>
<g>
	<g>
		<path fill="#FFFFFF" d="M464.367,319.45c0-2.862,0-5.725,0-8.587c0-3.217-5-3.223-5,0c0,2.862,0,5.725,0,8.587
			C459.367,322.667,464.367,322.672,464.367,319.45L464.367,319.45z"/>
	</g>
</g>
<g>
	<g>
		<path fill="#FFFFFF" d="M370.65,286.074c3.217,0,3.223-5,0-5C367.433,281.074,367.427,286.074,370.65,286.074L370.65,286.074z"/>
	</g>
</g>
<g>
	<g>
		<path fill="#FFFFFF" d="M378.092,285.31c26.844,0,53.687,0,80.531,0c3.217,0,3.223-5,0-5c-26.844,0-53.687,0-80.531,0
			C374.875,280.31,374.87,285.31,378.092,285.31L378.092,285.31z"/>
	</g>
</g>
<g>
	<g>
		<path fill="#FFFFFF" d="M466.256,284.738c3.217,0,3.223-5,0-5C463.039,279.738,463.034,284.738,466.256,284.738L466.256,284.738z"
			/>
	</g>
</g>
<g>
	<g>
		<path fill="#FFFFFF" d="M480.759,313.553c11.768,0,23.536,0,35.304,0c3.217,0,3.223-5,0-5c-11.768,0-23.536,0-35.304,0
			C477.541,308.553,477.536,313.553,480.759,313.553L480.759,313.553z"/>
	</g>
</g>
<g>
	<g>
		<path fill="#FFFFFF" d="M513.219,360.86c0-15.712,0-31.424,0-47.136c0-3.217-5-3.223-5,0c0,15.712,0,31.424,0,47.136
			C508.219,364.078,513.219,364.083,513.219,360.86L513.219,360.86z"/>
	</g>
</g>
<g>
	<g>
		<path fill="#FFFFFF" d="M481.331,307.637c11.45,0,22.9,0,34.349,0c3.217,0,3.223-5,0-5c-11.45,0-22.9,0-34.349,0
			C478.114,302.637,478.109,307.637,481.331,307.637L481.331,307.637z"/>
	</g>
</g>
<g>
	<g>
		<path fill="#FFFFFF" d="M518.371,310.099c0-1.283,0-2.565,0-3.847c0-1.308-1.15-2.56-2.5-2.5c-1.354,0.061-2.5,1.098-2.5,2.5
			c0,0.01,0,0.02,0,0.031c0,1.308,1.15,2.56,2.5,2.5c1.354-0.061,2.5-1.098,2.5-2.5c0-0.01,0-0.02,0-0.031
			c0-1.308-1.15-2.56-2.5-2.5c-1.354,0.061-2.5,1.098-2.5,2.5c0,1.282,0,2.565,0,3.847c0,1.308,1.15,2.56,2.5,2.5
			C517.226,312.539,518.371,311.501,518.371,310.099L518.371,310.099z"/>
	</g>
</g>
<g>
	<g>
		<path fill="#FFFFFF" d="M557.682,322.885c0-3.753,0-7.506,0-11.259c0-3.217-5-3.223-5,0c0,3.753,0,7.506,0,11.259
			C552.682,326.102,557.682,326.107,557.682,322.885L557.682,322.885z"/>
	</g>
</g>
<g>
	<g>
		<path fill="#FFFFFF" d="M517.017,311.263c12.658,0,25.316,0,37.974,0c3.217,0,3.223-5,0-5c-12.658,0-25.316,0-37.974,0
			C513.8,306.263,513.795,311.263,517.017,311.263L517.017,311.263z"/>
	</g>
</g>
<g>
	<g>
		<path fill="#FFFFFF" d="M557.682,311.244c0-0.7,0-1.4,0-2.1c0-1.308-1.15-2.56-2.5-2.5c-1.354,0.061-2.5,1.098-2.5,2.5
			c0,0.7,0,1.4,0,2.1c0,1.308,1.15,2.56,2.5,2.5C556.537,313.684,557.682,312.646,557.682,311.244L557.682,311.244z"/>
	</g>
</g>
<g>
	<g>
		<path fill="#FFFFFF" d="M509.896,325.292c2.012,3.164,5.105,5.776,9.052,5.669c3.934-0.107,6.92-2.896,8.623-6.241
			c1.456-2.862-2.856-5.395-4.317-2.524c-2.247,4.415-6.297,4.886-9.04,0.573C512.491,320.061,508.162,322.566,509.896,325.292
			L509.896,325.292z"/>
	</g>
</g>
<g>
	<g>
		<path fill="#FFFFFF" d="M522.491,325.101c2.364,3.211,5.628,5.778,9.816,5.644c4.179-0.134,7.365-2.955,9.387-6.407
			c1.63-2.782-2.69-5.302-4.317-2.524c-2.659,4.54-7.337,5.152-10.568,0.763C524.921,320.013,520.58,322.504,522.491,325.101
			L522.491,325.101z"/>
	</g>
</g>
<g>
	<g>
		<path fill="#FFFFFF" d="M537.004,325.416c5.575,6.956,16.732,8.046,20.719-1.079c1.276-2.92-3.031-5.468-4.317-2.524
			c-2.745,6.282-9.216,4.621-12.866,0.067C538.527,319.37,535.01,322.928,537.004,325.416L537.004,325.416z"/>
	</g>
</g>
<g>
	<g>
		<path fill="#FFFFFF" d="M536.462,325.556c0,6.425,0,12.849,0,19.274c0,3.217,5,3.223,5,0c0-6.425,0-12.85,0-19.274
			C541.462,322.339,536.462,322.334,536.462,325.556L536.462,325.556z"/>
	</g>
</g>
<g>
	<g>
		<path fill="#FFFFFF" d="M521.005,326.892c0,6.17,0,12.341,0,18.511c0,3.217,5,3.223,5,0c0-6.17,0-12.341,0-18.511
			C526.005,323.675,521.005,323.67,521.005,326.892L521.005,326.892z"/>
	</g>
</g>
<g>
	<g>
		<path fill="#FFFFFF" d="M513.582,348.476c13.676,0,27.352,0,41.028,0c3.217,0,3.223-5,0-5c-13.676,0-27.352,0-41.028,0
			C510.365,343.476,510.359,348.476,513.582,348.476L513.582,348.476z"/>
	</g>
</g>
<g>
	<g>
		<path fill="#FFFFFF" d="M553.064,321.931c0,12.722,0,25.444,0,38.166c0,3.217,5,3.223,5,0c0-12.722,0-25.444,0-38.166
			C558.064,318.714,553.064,318.708,553.064,321.931L553.064,321.931z"/>
	</g>
</g>
<g>
	<path fill="#FFFFFF" d="M407.65,259.976l-1.326,0.785c-0.248-0.43-0.483-0.711-0.708-0.842c-0.234-0.149-0.535-0.225-0.905-0.225
		c-0.453,0-0.83,0.129-1.129,0.386c-0.299,0.253-0.449,0.571-0.449,0.954c0,0.528,0.394,0.954,1.179,1.276l1.08,0.442
		c0.879,0.355,1.522,0.789,1.929,1.301c0.407,0.512,0.61,1.14,0.61,1.883c0,0.996-0.332,1.819-0.996,2.47
		c-0.669,0.654-1.498,0.981-2.49,0.981c-0.939,0-1.716-0.278-2.328-0.835c-0.604-0.556-0.979-1.339-1.129-2.35l1.655-0.364
		c0.074,0.636,0.205,1.075,0.393,1.318c0.337,0.468,0.827,0.701,1.473,0.701c0.51,0,0.933-0.17,1.27-0.512
		c0.337-0.341,0.505-0.773,0.505-1.298c0-0.21-0.029-0.403-0.088-0.578c-0.059-0.176-0.149-0.337-0.273-0.484
		s-0.284-0.285-0.48-0.413c-0.196-0.129-0.43-0.252-0.701-0.369l-1.045-0.435c-1.482-0.626-2.224-1.543-2.224-2.749
		c0-0.813,0.312-1.494,0.933-2.041c0.622-0.552,1.396-0.828,2.322-0.828C405.974,258.151,406.948,258.76,407.65,259.976z"/>
	<path fill="#FFFFFF" d="M411.535,262.599h4.671v-4.236h1.635v10.829h-1.635v-5.057h-4.671v5.057h-1.634v-10.829h1.634V262.599z"/>
	<path fill="#FFFFFF" d="M419.896,263.728c0-1.524,0.559-2.833,1.676-3.928c1.113-1.094,2.45-1.642,4.012-1.642
		c1.543,0,2.866,0.553,3.97,1.655c1.108,1.104,1.663,2.43,1.663,3.978c0,1.557-0.557,2.878-1.67,3.963
		c-1.117,1.089-2.466,1.634-4.047,1.634c-1.398,0-2.653-0.483-3.767-1.452C420.509,266.865,419.896,265.463,419.896,263.728z
		 M421.544,263.749c0,1.196,0.402,2.181,1.207,2.952c0.8,0.771,1.723,1.157,2.771,1.157c1.136,0,2.095-0.393,2.875-1.178
		c0.781-0.795,1.172-1.763,1.172-2.904c0-1.154-0.386-2.122-1.157-2.903c-0.768-0.785-1.716-1.179-2.848-1.179
		c-1.127,0-2.079,0.394-2.854,1.179C421.933,261.649,421.544,262.607,421.544,263.749z"/>
	<path fill="#FFFFFF" d="M434.905,264.794v4.397h-1.634v-10.829h1.852c0.907,0,1.592,0.063,2.055,0.189
		c0.468,0.126,0.879,0.364,1.234,0.715c0.622,0.608,0.933,1.375,0.933,2.301c0,0.991-0.332,1.777-0.995,2.356
		c-0.664,0.58-1.56,0.87-2.687,0.87H434.905z M434.905,263.278h0.61c1.501,0,2.251-0.577,2.251-1.732
		c0-1.117-0.773-1.676-2.321-1.676h-0.54V263.278z"/>
</g>
<g>
	<path fill="#FFFFFF" d="M404.675,338.284c-0.509-0.509-1.018-1.018-1.526-1.527l-31.106-31.105
		c-1.306-1.307-3.33,0.718-2.023,2.024l32.632,32.632C403.958,341.615,405.982,339.59,404.675,338.284z"/>
</g>
<g>
	<path fill="#FFFFFF" d="M416.424,337.384c-0.142-0.223-0.321-0.424-0.49-0.627c-0.18-0.216-0.38-0.344-0.585-0.414
		c-0.998-0.919-1.954-1.931-2.887-2.88c-2.663-2.704-5.392-5.375-7.977-8.155c-5.431-5.842-11.345-11.337-16.984-16.984
		c-1.305-1.307-3.328,0.717-2.023,2.024c5.657,5.666,11.235,11.41,16.984,16.984c3.949,3.829,7.48,8.273,11.716,11.787
		C415.36,340.101,417.351,338.844,416.424,337.384z"/>
</g>
<g>
	<path fill="#FFFFFF" d="M406.584,310.614c-3.181-3.18-6.361-6.361-9.542-9.542c-1.306-1.307-3.33,0.717-2.023,2.024
		c3.18,3.18,6.36,6.361,9.542,9.542C405.866,313.944,407.89,311.92,406.584,310.614z"/>
</g>
<g>
	<path fill="#FFFFFF" d="M409.77,315.538c-1.846,0-1.846,2.862,0,2.862C411.616,318.4,411.616,315.538,409.77,315.538z"/>
</g>
<g>
	<g>
		<path fill="#FFFFFF" d="M499.659,64.828l1.046,9.61l-2.94-1.683l-0.818-9.124l-0.433-0.248l-3.731,6.521l-2.403-1.376
			l9.116-15.929l2.816,1.612c2.104,1.204,3.397,2.47,3.881,3.796c0.527,1.471,0.378,2.928-0.449,4.373
			c-0.646,1.127-1.523,1.912-2.635,2.354C501.998,65.176,500.848,65.207,499.659,64.828z M497.713,61.29l0.762,0.437
			c2.277,1.303,3.913,1.084,4.909-0.655c0.933-1.63,0.292-3.079-1.922-4.347l-0.856-0.49L497.713,61.29z"/>
		<path fill="#FFFFFF" d="M510.727,66.835l-3.301,5.767c-0.952,1.664-0.771,2.873,0.542,3.625c1.314,0.752,2.447,0.295,3.399-1.369
			l3.301-5.767l2.321,1.328l-3.33,5.818c-0.461,0.805-0.958,1.442-1.492,1.912c-0.492,0.413-1.095,0.693-1.81,0.841
			c-1.174,0.232-2.365,0.002-3.576-0.69c-1.203-0.689-2.003-1.599-2.397-2.728c-0.241-0.695-0.313-1.361-0.212-1.998
			c0.075-0.578,0.376-1.328,0.903-2.25l3.33-5.818L510.727,66.835z"/>
		<path fill="#FFFFFF" d="M519.918,72.096l2.332,1.334l-0.531,0.929c1.271-0.34,2.417-0.22,3.435,0.363
			c1.169,0.669,1.87,1.559,2.102,2.669c0.206,0.948-0.097,2.131-0.907,3.547l-3.525,6.159l-2.331-1.334l3.212-5.612
			c0.567-0.99,0.821-1.754,0.763-2.289c-0.048-0.538-0.426-1.011-1.135-1.416c-0.77-0.44-1.463-0.499-2.077-0.176
			c-0.604,0.322-1.264,1.107-1.979,2.359l-2.775,4.849l-2.332-1.334L519.918,72.096z"/>
		<path fill="#FFFFFF" d="M531.503,78.727l2.332,1.334l-0.531,0.929c1.272-0.341,2.417-0.22,3.435,0.363
			c1.169,0.669,1.87,1.559,2.102,2.668c0.207,0.949-0.097,2.132-0.907,3.548l-3.525,6.159l-2.33-1.334l3.212-5.612
			c0.567-0.99,0.82-1.754,0.762-2.289c-0.048-0.539-0.426-1.011-1.135-1.416c-0.77-0.441-1.462-0.499-2.076-0.176
			c-0.604,0.322-1.265,1.107-1.98,2.359l-2.775,4.849l-2.332-1.334L531.503,78.727z"/>
		<path fill="#FFFFFF" d="M549.052,96.165l-7.201-4.122c-0.411,0.861-0.52,1.672-0.324,2.432c0.2,0.752,0.671,1.342,1.414,1.768
			c0.577,0.33,1.134,0.466,1.669,0.407c0.529-0.062,1.244-0.329,2.145-0.8l1.333,2.215c-0.599,0.342-1.171,0.602-1.718,0.776
			c-0.548,0.176-1.082,0.271-1.603,0.288c-0.521,0.017-1.037-0.048-1.547-0.194c-0.51-0.146-1.026-0.367-1.549-0.667
			c-1.5-0.858-2.428-2.027-2.785-3.51c-0.353-1.49-0.07-3.036,0.847-4.639c0.91-1.589,2.086-2.622,3.529-3.103
			c1.442-0.462,2.896-0.273,4.36,0.565c1.479,0.846,2.378,1.986,2.699,3.421c0.317,1.423,0.002,2.964-0.946,4.621L549.052,96.165z
			 M547.754,92.902c0.386-1.422-0.04-2.488-1.278-3.197c-0.282-0.161-0.571-0.27-0.868-0.325s-0.594-0.062-0.888-0.015
			c-0.296,0.045-0.581,0.139-0.855,0.284c-0.273,0.145-0.531,0.339-0.772,0.584L547.754,92.902z"/>
		<path fill="#FFFFFF" d="M554.776,92.046l2.321,1.329l-0.514,0.896c0.683-0.202,1.235-0.292,1.66-0.268
			c0.436,0.021,0.884,0.162,1.345,0.426c0.612,0.352,1.138,0.917,1.577,1.697l-2.279,1.518c-0.26-0.568-0.6-0.974-1.019-1.213
			c-1.266-0.725-2.445-0.131-3.54,1.781l-2.981,5.21l-2.321-1.329L554.776,92.046z"/>
		<path fill="#FFFFFF" d="M575.412,96.051l-5.491,9.594c-0.783,1.369-1.132,2.496-1.047,3.386c0.144,1.297,0.821,2.292,2.031,2.983
			c1.217,0.697,2.421,0.779,3.611,0.246c0.798-0.356,1.594-1.229,2.389-2.618l5.491-9.595l2.403,1.377l-5.868,10.254
			c-0.961,1.678-2.274,2.762-3.941,3.25c-1.869,0.537-3.66,0.315-5.372-0.665c-1.713-0.98-2.808-2.409-3.283-4.289
			c-0.424-1.685-0.155-3.366,0.806-5.044l5.868-10.255L575.412,96.051z"/>
		<path fill="#FFFFFF" d="M578.249,126.078l-2.321-1.328l8.88-15.516l2.321,1.328l-0.626,1.094c1.438-0.392,2.738-0.255,3.9,0.41
			c1.383,0.791,2.23,1.952,2.541,3.481c0.33,1.53,0.053,3.066-0.829,4.606c-0.861,1.506-2.03,2.504-3.506,2.992
			c-1.465,0.485-2.878,0.339-4.239-0.44c-1.177-0.673-1.96-1.747-2.349-3.22L578.249,126.078z M589.737,118.807
			c0.552-0.963,0.738-1.896,0.563-2.801c-0.181-0.915-0.672-1.603-1.476-2.063c-0.854-0.489-1.715-0.588-2.582-0.3
			c-0.868,0.288-1.577,0.913-2.129,1.876c-0.539,0.943-0.719,1.871-0.54,2.787c0.181,0.897,0.696,1.59,1.55,2.078
			c0.805,0.461,1.642,0.537,2.51,0.23C588.517,120.317,589.218,119.715,589.737,118.807z"/>
	</g>
	<g>
		<circle fill="#FFFFFF" cx="600.494" cy="124.621" r="4.129"/>
	</g>
	<g>
		<circle fill="#FFFFFF" cx="484.885" cy="55.065" r="4.129"/>
	</g>
</g>
<g>
	<g>
		<g>
			<path fill="#FFFFFF" d="M514.944,497.428l1.867-1.085l3.838,6.609c0.317-0.984,0.877-1.708,1.68-2.174
				c0.914-0.53,1.816-0.659,2.708-0.384c0.765,0.245,1.474,0.931,2.13,2.061l2.878,4.957l-1.868,1.085l-2.777-4.783
				c-0.376-0.647-0.764-1.051-1.161-1.208c-0.399-0.157-0.853-0.087-1.362,0.209c-0.653,0.379-0.996,0.847-1.026,1.406
				c-0.023,0.561,0.256,1.339,0.834,2.335l2.271,3.911l-1.868,1.085L514.944,497.428z"/>
		</g>
		<g>
			<path fill="#FFFFFF" d="M533.676,494.489l1.877-1.09l4.696,8.088l-1.876,1.09l-0.493-0.847c-0.352,1.166-0.97,2.006-1.855,2.521
				c-1.118,0.649-2.278,0.783-3.478,0.397c-1.204-0.403-2.164-1.223-2.881-2.457c-0.705-1.213-0.928-2.433-0.673-3.663
				s0.929-2.16,2.019-2.793c0.942-0.546,2.011-0.649,3.208-0.307L533.676,494.489z M531.576,501.082
				c0.45,0.775,1.024,1.285,1.722,1.531c0.712,0.246,1.392,0.18,2.04-0.196c0.692-0.401,1.113-0.965,1.263-1.689
				c0.14-0.739-0.009-1.489-0.451-2.248c-0.44-0.758-1.016-1.26-1.729-1.505c-0.706-0.234-1.398-0.153-2.08,0.242
				c-0.642,0.373-1.038,0.928-1.187,1.666C531.015,499.624,531.155,500.356,531.576,501.082z"/>
		</g>
		<g>
			<path fill="#FFFFFF" d="M544.408,488.724l1.441,2.482c-0.728-0.273-1.317-0.408-1.768-0.405
				c-0.448-0.007-0.896,0.121-1.344,0.381c-0.703,0.408-1.144,0.993-1.323,1.755c-0.179,0.764-0.053,1.516,0.377,2.257
				c0.441,0.758,1.027,1.251,1.758,1.478c0.737,0.224,1.456,0.132,2.159-0.277c0.448-0.26,0.788-0.588,1.019-0.98
				c0.222-0.381,0.401-0.973,0.534-1.776l1.432,2.465c-0.531,0.834-1.175,1.471-1.933,1.911c-1.251,0.726-2.532,0.931-3.843,0.61
				c-1.314-0.325-2.321-1.091-3.022-2.298c-0.701-1.207-0.866-2.472-0.496-3.797c0.371-1.326,1.175-2.348,2.415-3.068
				C542.614,489,543.477,488.753,544.408,488.724z"/>
		</g>
		<g>
			<path fill="#FFFFFF" d="M544.437,480.303l4.966,8.552l1.113-4.143l2.508-1.457l-1.541,5.436l6.494,2.503l-2.425,1.408
				l-4.656-1.86l-0.125,0.472l1.808,3.115l-1.868,1.085l-8.143-14.024L544.437,480.303z"/>
		</g>
		<g>
			<path fill="#FFFFFF" d="M560.447,478.945l1.876-1.09l4.697,8.087l-1.877,1.09l-0.493-0.846c-0.351,1.166-0.97,2.006-1.855,2.521
				c-1.118,0.649-2.277,0.783-3.478,0.397c-1.203-0.403-2.164-1.223-2.881-2.457c-0.705-1.213-0.928-2.433-0.672-3.663
				s0.929-2.161,2.019-2.793c0.941-0.546,2.01-0.649,3.207-0.308L560.447,478.945z M558.346,485.539
				c0.451,0.775,1.024,1.285,1.722,1.531c0.712,0.246,1.393,0.18,2.04-0.196c0.692-0.401,1.113-0.964,1.263-1.688
				c0.141-0.739-0.009-1.489-0.451-2.248c-0.44-0.758-1.016-1.26-1.729-1.505c-0.705-0.234-1.398-0.153-2.079,0.242
				c-0.642,0.373-1.038,0.928-1.186,1.666C557.785,484.081,557.926,484.813,558.346,485.539z"/>
		</g>
		<g>
			<path fill="#FFFFFF" d="M567.62,477.111l3.684,6.344l-1.867,1.084l-3.684-6.345l-0.797,0.463l-1.013-1.744l0.797-0.462
				l-1.721-2.965l1.868-1.084l1.721,2.964l1.453-0.844l1.013,1.744L567.62,477.111z"/>
		</g>
		<g>
			<path fill="#FFFFFF" d="M565.885,467.85l1.867-1.085l3.838,6.609c0.317-0.984,0.877-1.708,1.68-2.174
				c0.913-0.531,1.816-0.659,2.708-0.384c0.764,0.245,1.473,0.931,2.129,2.061l2.878,4.957l-1.868,1.085l-2.777-4.783
				c-0.376-0.647-0.764-1.05-1.161-1.207c-0.399-0.157-0.853-0.087-1.362,0.209c-0.653,0.379-0.995,0.846-1.026,1.406
				c-0.022,0.56,0.256,1.339,0.834,2.335l2.271,3.911l-1.868,1.085L565.885,467.85z"/>
		</g>
		<g>
			<path fill="#FFFFFF" d="M580.589,472.58c-0.679-1.168-0.837-2.404-0.478-3.709c0.361-1.303,1.141-2.306,2.343-3.002
				c1.207-0.701,2.47-0.883,3.79-0.547c1.309,0.343,2.313,1.115,3.01,2.316c0.704,1.213,0.875,2.472,0.515,3.776
				c-0.369,1.302-1.164,2.308-2.388,3.018c-1.213,0.705-2.469,0.879-3.771,0.524C582.316,474.612,581.308,473.82,580.589,472.58z
				 M582.518,471.504c0.469,0.808,1.056,1.322,1.762,1.542c0.719,0.219,1.44,0.118,2.166-0.302c0.73-0.425,1.178-0.998,1.343-1.723
				c0.164-0.724,0.017-1.479-0.44-2.267c-0.456-0.786-1.04-1.287-1.75-1.504c-0.719-0.217-1.441-0.117-2.166,0.305
				c-0.715,0.415-1.155,0.988-1.321,1.72C581.945,470.008,582.081,470.751,582.518,471.504z"/>
		</g>
		<g>
			<path fill="#FFFFFF" d="M588.878,462.437l1.877-1.09l0.433,0.747c0.277-1.026,0.825-1.778,1.645-2.253
				c0.942-0.546,1.846-0.677,2.716-0.389c0.747,0.239,1.451,0.93,2.113,2.071l2.878,4.957l-1.877,1.09l-2.623-4.518
				c-0.463-0.797-0.893-1.284-1.292-1.46c-0.396-0.185-0.878-0.111-1.449,0.219c-0.62,0.36-0.942,0.821-0.963,1.382
				c-0.02,0.551,0.263,1.331,0.847,2.338l2.267,3.903l-1.877,1.09L588.878,462.437z"/>
		</g>
		<g>
			<path fill="#FFFFFF" d="M610.171,458.457l4.774-2.772l1.057,1.819l-8.611,4.999l1.322-7.973c0.125-0.791,0.222-1.469,0.29-2.034
				c0.068-0.564,0.102-1.025,0.103-1.381c0.013-0.703-0.101-1.262-0.341-1.677c-0.347-0.598-0.848-0.977-1.503-1.137
				c-0.656-0.16-1.293-0.059-1.913,0.301c-1.295,0.752-1.592,1.949-0.89,3.592l-1.927,1.119c-1.259-2.882-0.678-5.026,1.74-6.43
				c1.168-0.678,2.364-0.875,3.586-0.594c1.228,0.279,2.16,0.966,2.796,2.062c0.405,0.698,0.617,1.489,0.635,2.375
				c0.013,0.458-0.021,1.031-0.105,1.72c-0.085,0.691-0.215,1.522-0.389,2.496L610.171,458.457z"/>
		</g>
		<g>
			<path fill="#FFFFFF" d="M614.415,449.742c-1.186-2.043-1.656-3.949-1.411-5.72c0.213-1.595,0.925-2.747,2.138-3.451
				c1.212-0.704,2.564-0.751,4.057-0.145c1.659,0.666,3.097,2.046,4.316,4.144c1.214,2.093,1.7,4.025,1.455,5.795
				c-0.214,1.596-0.923,2.745-2.129,3.446c-1.207,0.701-2.562,0.751-4.065,0.15C617.115,453.296,615.662,451.889,614.415,449.742z
				 M616.321,448.646c0.826,1.423,1.758,2.461,2.797,3.116c1.03,0.639,1.926,0.736,2.69,0.292c0.758-0.44,1.118-1.267,1.08-2.481
				c-0.036-1.208-0.46-2.513-1.273-3.913c-0.813-1.401-1.737-2.419-2.772-3.054c-1.032-0.629-1.927-0.724-2.684-0.284
				c-0.753,0.437-1.112,1.26-1.077,2.468C615.115,445.994,615.527,447.28,616.321,448.646z"/>
		</g>
		<g>
			<path fill="#FFFFFF" d="M626.173,436.874l-2.217,1.287l0.012-2.426l3.089-1.793l7.443,12.821l-1.935,1.123L626.173,436.874z"/>
		</g>
		<g>
			<path fill="#FFFFFF" d="M637.538,436.083c-1.327-0.118-2.323-0.75-2.988-1.896c-0.604-1.041-0.752-2.118-0.442-3.229
				c0.314-1.116,1.005-1.984,2.074-2.605c1.062-0.617,2.151-0.782,3.265-0.495c1.11,0.28,1.97,0.946,2.581,1.998
				c0.639,1.101,0.694,2.274,0.164,3.514c0.675-0.023,1.314,0.147,1.916,0.507c0.607,0.359,1.104,0.869,1.49,1.533
				c0.659,1.135,0.828,2.281,0.507,3.436c-0.32,1.157-1.059,2.07-2.217,2.742c-1.185,0.687-2.373,0.889-3.567,0.606
				c-1.2-0.281-2.12-0.974-2.763-2.082C636.722,438.673,636.715,437.33,637.538,436.083z M636.364,433.123
				c0.318,0.547,0.77,0.899,1.356,1.055c0.595,0.157,1.159,0.083,1.691-0.226c0.526-0.305,0.867-0.755,1.025-1.35
				c0.158-0.595,0.085-1.155-0.221-1.682c-0.306-0.525-0.756-0.867-1.351-1.026c-0.595-0.157-1.155-0.083-1.681,0.221
				c-0.526,0.306-0.867,0.756-1.026,1.351S636.068,432.613,636.364,433.123z M639.42,438.942c0.344,0.592,0.845,0.984,1.502,1.171
				c0.659,0.179,1.285,0.097,1.878-0.247c0.586-0.341,0.966-0.839,1.141-1.495c0.171-0.663,0.086-1.286-0.255-1.873
				c-0.344-0.592-0.844-0.975-1.5-1.15c-0.656-0.174-1.277-0.09-1.864,0.25c-0.581,0.337-0.962,0.836-1.141,1.495
				C639.006,437.75,639.087,438.367,639.42,438.942z"/>
		</g>
	</g>
	<g>
		<g>
			<path fill="#FFFFFF" d="M440.973,552.501c-0.084-0.142-0.168-0.283-0.251-0.426s-0.162-0.287-0.205-0.448
				c-0.034-0.126-0.108-0.233-0.166-0.348c-0.042-0.083-0.091-0.163-0.096-0.26c-0.001-0.021-0.006-0.043-0.015-0.062
				c-0.084-0.166-0.148-0.338-0.202-0.517c-0.05-0.163-0.094-0.328-0.142-0.492c-0.066-0.225-0.116-0.456-0.161-0.687
				c-0.064-0.328-0.111-0.658-0.142-0.991c-0.04-0.429-0.05-0.857-0.041-1.288c0.006-0.328,0.052-0.652,0.082-0.977
				c0.027-0.29,0.109-0.57,0.155-0.856c0.06-0.369,0.175-0.72,0.283-1.075c0.168-0.55,0.396-1.076,0.662-1.584
				c0.175-0.333,0.372-0.656,0.576-0.973c0.114-0.176,0.233-0.353,0.368-0.513c0.132-0.156,0.236-0.336,0.397-0.467
				c0.057-0.047,0.066-0.127,0.131-0.167c0.055-0.034,0.091-0.086,0.127-0.142c0.058-0.09,0.156-0.142,0.228-0.224
				c0.116-0.134,0.253-0.25,0.387-0.367c0.156-0.136,0.324-0.259,0.477-0.399c0.144-0.131,0.304-0.238,0.461-0.351
				c0.338-0.242,0.68-0.479,1.051-0.666c0.472-0.239,0.949-0.468,1.45-0.644c0.188-0.066,0.377-0.133,0.568-0.188
				c0.155-0.044,0.305-0.122,0.473-0.12c0.114-0.069,0.253-0.04,0.37-0.095c0.092-0.044,0.194-0.031,0.291-0.054
				c0.211-0.049,0.429-0.073,0.645-0.094c0.409-0.04,0.82-0.062,1.231-0.058c0.411,0.004,0.819,0.052,1.228,0.091
				c0.407,0.039,0.796,0.163,1.199,0.216c0.063,0.008,0.124,0.033,0.185,0.053c0.135,0.044,0.266,0.1,0.403,0.132
				c0.343,0.079,0.661,0.22,0.981,0.36c0.252,0.11,0.506,0.217,0.749,0.345c0.262,0.138,0.515,0.294,0.767,0.452
				c0.338,0.212,0.66,0.448,0.963,0.705c0.172,0.146,0.364,0.273,0.502,0.457c0.146,0.07,0.201,0.24,0.345,0.315
				c0.035,0.018,0.058,0.062,0.083,0.097c0.051,0.07,0.1,0.138,0.172,0.189c0.04,0.028,0.071,0.07,0.1,0.11
				c0.062,0.088,0.119,0.176,0.211,0.24c0.045,0.031,0.075,0.086,0.106,0.133c0.094,0.144,0.186,0.289,0.301,0.418
				c0.125,0.14,0.22,0.3,0.315,0.46c0.113,0.191,0.226,0.383,0.338,0.574c0.094,0.161,0.189,0.321,0.249,0.499
				c0.051,0.15,0.127,0.288,0.2,0.427c0.043,0.082,0.094,0.162,0.093,0.26c0,0.014,0.003,0.029,0.009,0.042
				c0.081,0.159,0.138,0.326,0.186,0.498c0.026,0.095,0.07,0.182,0.086,0.284c0.018,0.117,0.066,0.231,0.097,0.348
				c0.09,0.336,0.155,0.676,0.209,1.019c0.076,0.485,0.112,0.97,0.118,1.461c0.003,0.255-0.027,0.508-0.012,0.762
				c-0.074,0.512-0.106,1.031-0.238,1.535c-0.038,0.144-0.055,0.294-0.096,0.437c-0.066,0.234-0.148,0.463-0.217,0.696
				c-0.076,0.259-0.196,0.501-0.295,0.75c-0.235,0.589-0.558,1.133-0.894,1.668c-0.174,0.186-0.28,0.422-0.458,0.607
				c-0.066,0.069-0.119,0.156-0.184,0.23c-0.144,0.165-0.272,0.346-0.431,0.494c-0.119,0.112-0.212,0.253-0.356,0.338
				c-0.278,0.311-0.623,0.545-0.936,0.816c-0.011,0.009-0.022,0.018-0.034,0.026c-0.412,0.273-0.803,0.579-1.25,0.793
				c-0.335,0.16-0.658,0.345-1.009,0.475c-0.214,0.079-0.429,0.16-0.641,0.245c-0.138,0.055-0.286,0.086-0.428,0.133
				c-0.175,0.057-0.354,0.109-0.535,0.138c-0.215,0.035-0.422,0.117-0.644,0.113c-0.43,0.097-0.868,0.127-1.306,0.141
				c-0.418,0.013-0.838,0.02-1.255-0.042c-0.195-0.029-0.395-0.034-0.59-0.064c-0.238-0.037-0.473-0.097-0.711-0.134
				c-0.453-0.07-0.876-0.243-1.312-0.369c-0.231-0.066-0.446-0.184-0.671-0.274c-0.33-0.132-0.642-0.3-0.951-0.473
				c-0.382-0.213-0.744-0.459-1.096-0.719c-0.195-0.144-0.38-0.302-0.562-0.463c-0.177-0.155-0.339-0.326-0.511-0.485
				c-0.125-0.117-0.218-0.265-0.362-0.362c-0.028-0.019-0.047-0.053-0.068-0.082c-0.077-0.112-0.152-0.223-0.261-0.31
				c-0.059-0.047-0.096-0.124-0.137-0.191c-0.08-0.128-0.169-0.248-0.272-0.359c-0.048-0.052-0.092-0.11-0.129-0.17
				c-0.112-0.184-0.219-0.37-0.328-0.555C440.975,552.5,440.974,552.501,440.973,552.501z M447.742,548.364
				c0.194-0.157,0.371-0.327,0.572-0.46c0.406-0.267,0.816-0.532,1.273-0.71c0.188-0.073,0.354-0.193,0.541-0.26
				c0.34-0.122,0.646-0.305,0.955-0.486c0.167-0.098,0.332-0.197,0.465-0.342c0.033-0.036,0.076-0.067,0.12-0.09
				c0.169-0.089,0.258-0.266,0.414-0.369c0.204-0.278,0.423-0.545,0.54-0.88c0.167-0.478,0.171-0.947-0.036-1.412
				c-0.079-0.177-0.18-0.342-0.293-0.5c-0.183-0.255-0.422-0.443-0.705-0.57c-0.314-0.141-0.643-0.207-0.99-0.209
				c-0.3-0.002-0.59,0.03-0.872,0.133c-0.019,0.007-0.042,0.011-0.063,0.008c-0.069-0.008-0.125,0.026-0.182,0.055
				c-0.28,0.145-0.55,0.307-0.813,0.481c-0.042,0.028-0.089,0.051-0.11,0.099c-0.031,0.071-0.093,0.106-0.151,0.148
				c-0.029,0.021-0.064,0.039-0.083,0.067c-0.115,0.17-0.263,0.312-0.382,0.48c-0.203,0.287-0.371,0.593-0.487,0.92
				c-0.205,0.579-0.297,1.179-0.276,1.796c0.013,0.38,0.073,0.753,0.166,1.119c0.034,0.137,0.054,0.281,0.126,0.409
				c0.042,0.075,0.065,0.156,0.085,0.241C447.584,548.157,447.635,548.275,447.742,548.364z M448.933,548.294
				c-0.093,0.055-0.183,0.113-0.278,0.163c-0.104,0.054-0.18,0.14-0.259,0.222c-0.025,0.025-0.058,0.041-0.087,0.063
				c-0.102,0.077-0.226,0.124-0.296,0.242c-0.066,0.11-0.221,0.14-0.258,0.279c-0.162,0.18-0.281,0.387-0.386,0.606
				c-0.235,0.486-0.22,0.979-0.029,1.464c0.124,0.313,0.338,0.566,0.615,0.774c0.34,0.255,0.721,0.371,1.13,0.385
				c0.365,0.012,0.734-0.009,1.073-0.18c0.037-0.019,0.083-0.021,0.124-0.032c0.041-0.011,0.084-0.02,0.122-0.038
				c0.371-0.172,0.723-0.448,1.019-0.765c0.121-0.13,0.232-0.263,0.339-0.404c0.28-0.37,0.455-0.785,0.591-1.223
				c0.061-0.198,0.079-0.404,0.119-0.606c0.036-0.182,0.045-0.367,0.045-0.55c-0.001-0.364-0.035-0.725-0.109-1.083
				c-0.02-0.099-0.068-0.188-0.084-0.287c-0.034-0.213-0.132-0.405-0.199-0.607c-0.013-0.04-0.038-0.077-0.061-0.114
				c-0.034-0.055-0.06-0.058-0.12-0.014c-0.143,0.107-0.293,0.205-0.42,0.333c-0.05,0.05-0.112,0.089-0.173,0.125
				c-0.271,0.161-0.543,0.32-0.816,0.476c-0.074,0.042-0.153,0.079-0.235,0.104c-0.124,0.039-0.239,0.095-0.352,0.157
				c-0.12,0.065-0.236,0.14-0.363,0.184C449.352,548.05,449.141,548.168,448.933,548.294z"/>
		</g>
		<g>
			<path fill="#FFFFFF" d="M488.813,526.16c0.702,1.192,1.405,2.384,2.107,3.576c0.053,0.09,0.109,0.178,0.157,0.271
				c0.079,0.153,0.058,0.224-0.092,0.326c-0.076,0.051-0.156,0.095-0.235,0.142c-0.562,0.332-1.123,0.665-1.687,0.993
				c-0.537,0.313-0.433,0.341-0.746-0.178c-0.067-0.112-0.132-0.225-0.2-0.337c-0.02-0.033-0.041-0.07-0.071-0.092
				c-0.029-0.022-0.069-0.033-0.101,0.007c-0.052,0.063-0.073,0.138-0.084,0.216c-0.068,0.513-0.295,0.966-0.586,1.377
				c-0.144,0.204-0.287,0.435-0.531,0.558c-0.057,0.029-0.107,0.076-0.15,0.124c-0.276,0.314-0.612,0.52-1.025,0.601
				c-0.05,0.01-0.099,0.033-0.145,0.058c-0.399,0.213-0.834,0.241-1.274,0.273c-0.511,0.037-1.005-0.036-1.491-0.172
				c-0.423-0.118-0.823-0.298-1.192-0.539c-0.151-0.099-0.297-0.205-0.444-0.309c-0.22-0.157-0.43-0.328-0.598-0.543
				c-0.056-0.072-0.102-0.156-0.17-0.214c-0.4-0.341-0.597-0.818-0.853-1.255c-0.045-0.076-0.058-0.171-0.085-0.258
				c-0.027-0.087-0.043-0.18-0.083-0.26c-0.201-0.402-0.252-0.837-0.298-1.275c-0.077-0.736,0.025-1.45,0.289-2.135
				c0.163-0.421,0.402-0.804,0.665-1.177c0.191-0.27,0.497-0.416,0.667-0.697c0.389-0.229,0.731-0.553,1.207-0.611
				c0.038-0.005,0.076-0.021,0.111-0.036c0.491-0.221,1.004-0.223,1.523-0.156c0.206,0.027,0.413,0.061,0.606,0.143
				c0.087,0.037,0.174,0.052,0.266,0.044c0.048-0.004,0.065-0.049,0.051-0.082c-0.036-0.084-0.081-0.163-0.126-0.242
				c-0.103-0.181-0.21-0.361-0.313-0.542c-0.046-0.081-0.024-0.149,0.053-0.199c0.131-0.086,0.258-0.177,0.393-0.258
				c0.505-0.301,1.01-0.6,1.519-0.894c0.146-0.085,0.301-0.156,0.455-0.226c0.079-0.036,0.153-0.012,0.201,0.067
				c0.054,0.089,0.108,0.179,0.161,0.268C487.382,523.731,488.098,524.946,488.813,526.16z M482.28,529.98
				c0.204,0.377,0.506,0.651,0.864,0.872c0.554,0.342,1.135,0.48,1.771,0.263c0.049-0.017,0.101-0.031,0.152-0.034
				c0.163-0.012,0.295-0.096,0.433-0.169c0.25-0.132,0.37-0.401,0.598-0.556c0.291-0.471,0.47-0.968,0.427-1.537
				c-0.018-0.237-0.1-0.451-0.151-0.677c-0.047-0.209-0.128-0.402-0.256-0.566c-0.297-0.38-0.642-0.717-1.09-0.913
				c-0.698-0.305-1.387-0.28-2.05,0.115c-0.202,0.12-0.368,0.269-0.522,0.455c-0.143,0.173-0.267,0.347-0.348,0.551
				C481.808,528.544,481.894,529.275,482.28,529.98z"/>
		</g>
		<g>
			<path fill="#FFFFFF" d="M503.954,516.92c0.729,1.238,1.459,2.476,2.188,3.714c0.148,0.251,0.22,0.288-0.114,0.484
				c-0.676,0.397-1.351,0.795-2.026,1.193c-0.023,0.013-0.045,0.027-0.068,0.039c-0.178,0.092-0.214,0.085-0.316-0.078
				c-0.097-0.155-0.186-0.315-0.28-0.472c-0.033-0.056-0.065-0.114-0.105-0.165c-0.021-0.027-0.058-0.05-0.091-0.056
				c-0.053-0.009-0.062,0.043-0.064,0.078c-0.015,0.209-0.062,0.408-0.129,0.608c-0.128,0.383-0.317,0.722-0.579,1.034
				c-0.137,0.163-0.28,0.301-0.448,0.422c-0.032,0.023-0.067,0.045-0.089,0.076c-0.231,0.322-0.58,0.497-0.922,0.639
				c-0.366,0.152-0.745,0.322-1.15,0.338c-0.752,0.03-1.464-0.095-2.075-0.596c-0.174-0.143-0.336-0.283-0.455-0.473
				c-0.034-0.055-0.069-0.116-0.12-0.154c-0.239-0.178-0.376-0.432-0.522-0.678c-0.978-1.652-1.954-3.306-2.929-4.96
				c-0.18-0.305-0.177-0.311,0.111-0.482c0.651-0.387,1.305-0.77,1.958-1.155c0.045-0.027,0.089-0.054,0.136-0.077
				c0.141-0.069,0.219-0.054,0.304,0.067c0.06,0.085,0.11,0.177,0.163,0.267c0.677,1.148,1.352,2.296,2.03,3.443
				c0.16,0.27,0.325,0.536,0.496,0.799c0.205,0.314,0.602,0.612,0.946,0.777c0.151,0.073,0.314,0.105,0.452,0.079
				c0.429-0.081,0.884-0.133,1.152-0.557c0.076-0.12,0.211-0.178,0.285-0.313c0.201-0.365,0.22-0.747,0.146-1.137
				c-0.073-0.385-0.214-0.744-0.419-1.086c-0.739-1.232-1.462-2.474-2.19-3.713c-0.298-0.506-0.302-0.433,0.185-0.723
				c0.584-0.347,1.17-0.691,1.756-1.034c0.09-0.053,0.182-0.102,0.277-0.146c0.066-0.031,0.131-0.008,0.171,0.051
				c0.066,0.097,0.128,0.197,0.187,0.299C502.522,514.489,503.238,515.705,503.954,516.92z"/>
		</g>
		<g>
			<path fill="#FFFFFF" d="M467.814,539.939c0.337-0.199,0.675-0.397,1.012-0.597c0.156-0.092,0.214-0.128,0.357,0.054
				c0.229,0.291,0.539,0.438,0.914,0.381c0.376-0.057,0.737-0.163,1.048-0.4c0.18-0.136,0.304-0.321,0.436-0.494
				c0.102-0.133,0.119-0.305,0.045-0.482c-0.147-0.352-0.342-0.496-0.721-0.467c-0.246,0.019-0.492,0.056-0.733,0.109
				c-0.531,0.117-1.055,0.276-1.59,0.366c-0.505,0.085-1.003,0.229-1.524,0.218c-0.418-0.009-0.819-0.062-1.192-0.265
				c-0.241-0.131-0.472-0.271-0.617-0.517c-0.033-0.056-0.075-0.108-0.123-0.152c-0.139-0.126-0.231-0.278-0.276-0.461
				c-0.019-0.075-0.052-0.148-0.087-0.218c-0.372-0.753-0.249-1.485,0.121-2.189c0.141-0.269,0.3-0.544,0.56-0.73
				c0.104-0.227,0.316-0.338,0.508-0.471c0.053-0.037,0.104-0.079,0.148-0.127c0.417-0.453,0.984-0.675,1.501-0.972
				c0.21-0.025,0.407-0.088,0.586-0.2c0.173-0.107,0.39-0.038,0.562-0.147c0.604-0.069,1.204-0.116,1.79,0.127
				c0.44,0.182,0.825,0.429,1.122,0.804c0.073,0.092,0.152,0.179,0.222,0.274c0.12,0.164,0.106,0.224-0.075,0.342
				c-0.044,0.029-0.089,0.054-0.134,0.08c-0.596,0.351-1.192,0.703-1.789,1.054c-0.068,0.04-0.134,0.083-0.204,0.116
				c-0.112,0.053-0.197,0.034-0.278-0.06c-0.051-0.059-0.09-0.129-0.143-0.186c-0.154-0.163-0.336-0.285-0.565-0.295
				c-0.391-0.018-0.754,0.069-1.025,0.375c-0.127,0.144-0.291,0.254-0.355,0.457c-0.131,0.412,0.135,0.882,0.564,0.934
				c0.191,0.023,0.394,0.017,0.583-0.018c0.486-0.091,0.967-0.208,1.451-0.313c0.605-0.131,1.198-0.323,1.821-0.36
				c0.468-0.027,0.929-0.01,1.357,0.23c0.172,0.096,0.341,0.2,0.466,0.344c0.272,0.314,0.506,0.647,0.668,1.047
				c0.328,0.81,0.206,1.571-0.126,2.331c-0.108,0.247-0.41,0.644-0.617,0.833c-0.124,0.113-0.182,0.282-0.342,0.368
				c-0.137,0.073-0.283,0.156-0.381,0.271c-0.245,0.287-0.573,0.448-0.886,0.634c-0.146,0.086-0.296,0.162-0.463,0.206
				c-0.125,0.033-0.256,0.075-0.362,0.146c-0.28,0.186-0.609,0.236-0.919,0.309c-0.255,0.06-0.527,0.105-0.802,0.097
				c-0.378-0.011-0.754-0.05-1.101-0.188c-0.369-0.147-0.739-0.315-0.991-0.651c-0.243-0.127-0.367-0.358-0.505-0.577
				c-0.021-0.033-0.041-0.067-0.058-0.102c-0.052-0.105-0.04-0.159,0.069-0.227c0.211-0.13,0.426-0.255,0.639-0.381
				C467.521,540.111,467.667,540.025,467.814,539.939C467.813,539.939,467.814,539.939,467.814,539.939z"/>
		</g>
		<g>
			<path fill="#FFFFFF" d="M509.913,511.272c-0.304,0.179-0.607,0.358-0.911,0.536c-0.079,0.046-0.159,0.091-0.241,0.13
				c-0.066,0.031-0.128,0.014-0.172-0.045c-0.078-0.103-0.145-0.213-0.249-0.299c-0.466-0.382-1.094-0.251-1.5,0.105
				c-0.097,0.086-0.186,0.183-0.266,0.286c-0.283,0.363-0.257,0.88,0.277,1.129c0.045,0.021,0.1,0.028,0.15,0.029
				c0.234,0.005,0.467,0.009,0.699-0.042c0.482-0.105,0.967-0.199,1.446-0.322c0.337-0.087,0.676-0.188,1.018-0.243
				c0.491-0.079,0.986-0.149,1.491-0.051c0.421,0.082,0.769,0.281,1.091,0.543c0.049,0.04,0.082,0.101,0.116,0.157
				c0.124,0.2,0.247,0.4,0.367,0.602c0.388,0.653,0.391,1.346,0.217,2.059c-0.116,0.476-0.406,0.857-0.669,1.253
				c-0.251,0.183-0.393,0.484-0.686,0.623c-0.08,0.038-0.152,0.102-0.216,0.166c-0.396,0.394-0.869,0.659-1.393,0.841
				c-0.111,0.038-0.221,0.082-0.325,0.136c-0.625,0.324-1.299,0.413-1.988,0.381c-0.5-0.023-0.967-0.177-1.385-0.466
				c-0.38-0.263-0.699-0.581-0.921-0.989c-0.083-0.153-0.069-0.227,0.09-0.321c0.662-0.394,1.326-0.784,1.99-1.174
				c0.022-0.013,0.045-0.027,0.069-0.037c0.151-0.065,0.239-0.056,0.337,0.089c0.187,0.277,0.453,0.376,0.767,0.368
				c0.451-0.011,1.13-0.25,1.41-0.641c0.13-0.182,0.274-0.339,0.283-0.576c0.008-0.213-0.189-0.5-0.388-0.571
				c-0.191-0.068-0.386-0.077-0.577-0.041c-0.37,0.07-0.735,0.167-1.105,0.235c-0.407,0.074-0.802,0.207-1.217,0.247
				c-0.191,0.019-0.375,0.088-0.568,0.118c-0.432,0.067-0.895,0.091-1.3,0.036c-0.605-0.083-1.07-0.4-1.414-0.88
				c-0.423-0.589-0.632-1.245-0.528-1.984c0.063-0.449,0.256-0.839,0.508-1.202c0.153-0.221,0.335-0.422,0.512-0.625
				c0.059-0.067,0.142-0.114,0.215-0.167c0.125-0.092,0.26-0.165,0.342-0.312c0.041-0.073,0.135-0.12,0.212-0.167
				c0.266-0.165,0.534-0.328,0.804-0.487c0.191-0.113,0.38-0.228,0.61-0.252c0.063-0.006,0.126-0.037,0.182-0.067
				c0.314-0.168,0.652-0.226,1.002-0.267c0.231-0.028,0.456-0.045,0.689-0.043c0.568,0.005,1.073,0.191,1.521,0.51
				c0.303,0.216,0.585,0.473,0.747,0.829c0.049,0.108,0.04,0.155-0.064,0.228c-0.021,0.015-0.044,0.028-0.066,0.042
				C510.587,510.874,510.25,511.073,509.913,511.272C509.913,511.271,509.913,511.272,509.913,511.272z"/>
		</g>
		<g>
			<path fill="#FFFFFF" d="M490.448,525.014c-0.345-0.585-0.689-1.17-1.034-1.755c-0.046-0.079-0.091-0.159-0.142-0.234
				c-0.085-0.125-0.166-0.151-0.3-0.08c-0.207,0.111-0.407,0.235-0.611,0.352c-0.09,0.052-0.18,0.108-0.275,0.149
				c-0.135,0.059-0.218,0.034-0.297-0.093c-0.111-0.177-0.214-0.359-0.32-0.538c-0.179-0.304-0.361-0.606-0.535-0.912
				c-0.102-0.179-0.087-0.235,0.093-0.348c0.21-0.131,0.427-0.253,0.64-0.38c0.078-0.047,0.156-0.095,0.233-0.144
				c0.079-0.051,0.089-0.131,0.06-0.206c-0.038-0.096-0.092-0.187-0.144-0.277c-0.337-0.574-0.677-1.147-1.013-1.722
				c-0.195-0.334-0.193-0.337,0.139-0.533c0.607-0.359,1.214-0.716,1.822-1.074c0.067-0.04,0.135-0.081,0.206-0.112
				c0.066-0.029,0.135-0.011,0.178,0.042c0.065,0.081,0.121,0.17,0.174,0.259c0.333,0.562,0.664,1.124,0.995,1.687
				c0.257,0.437,0.239,0.375,0.616,0.157c0.35-0.203,0.697-0.411,1.047-0.615c0.09-0.052,0.182-0.102,0.277-0.144
				c0.065-0.028,0.128-0.012,0.171,0.05c0.023,0.032,0.045,0.064,0.065,0.098c0.279,0.472,0.558,0.944,0.834,1.418
				c0.093,0.16,0.08,0.228-0.055,0.333c-0.072,0.056-0.152,0.102-0.23,0.148c-0.337,0.2-0.675,0.398-1.012,0.597
				c-0.079,0.047-0.156,0.095-0.231,0.147c-0.074,0.051-0.091,0.126-0.059,0.206c0.024,0.06,0.057,0.117,0.091,0.173
				c0.531,0.899,1.065,1.797,1.591,2.699c0.134,0.229,0.308,0.417,0.5,0.597c0.109,0.103,0.238,0.164,0.37,0.209
				c0.131,0.044,0.264,0.051,0.416,0.008c0.423-0.119,0.804-0.303,1.141-0.582c0.03-0.025,0.062-0.048,0.095-0.068
				c0.099-0.062,0.174-0.052,0.237,0.033c0.031,0.042,0.057,0.088,0.083,0.133c0.279,0.472,0.557,0.945,0.835,1.417
				c0.033,0.056,0.066,0.113,0.092,0.172c0.048,0.108,0.038,0.171-0.061,0.235c-0.567,0.369-1.049,0.862-1.671,1.152
				c-0.141,0.066-0.27,0.154-0.432,0.174c-0.088,0.011-0.173,0.055-0.255,0.093c-0.852,0.399-1.647,0.314-2.404-0.25
				c-0.392-0.292-0.717-0.632-0.962-1.054c-0.315-0.542-0.635-1.08-0.954-1.62C490.451,525.013,490.45,525.014,490.448,525.014z"/>
		</g>
		<g>
			<path fill="#FFFFFF" d="M474.627,534.309c-0.338-0.573-0.676-1.147-1.014-1.72c-0.053-0.09-0.104-0.182-0.164-0.266
				c-0.07-0.098-0.162-0.122-0.274-0.067c-0.105,0.051-0.205,0.115-0.307,0.173c-0.181,0.104-0.358,0.216-0.543,0.312
				c-0.178,0.092-0.258,0.07-0.357-0.094c-0.282-0.47-0.561-0.942-0.835-1.416c-0.115-0.199-0.1-0.244,0.109-0.372
				c0.245-0.15,0.495-0.29,0.741-0.44c0.216-0.131,0.23-0.182,0.108-0.408c-0.093-0.172-0.197-0.338-0.296-0.507
				c-0.258-0.439-0.517-0.877-0.775-1.316c-0.053-0.09-0.102-0.182-0.144-0.277c-0.029-0.065-0.011-0.128,0.051-0.171
				c0.032-0.022,0.064-0.045,0.098-0.064c0.674-0.398,1.348-0.797,2.024-1.192c0.175-0.102,0.244-0.085,0.358,0.077
				c0.052,0.075,0.096,0.155,0.142,0.234c0.305,0.517,0.61,1.034,0.915,1.552c0.046,0.079,0.09,0.159,0.141,0.235
				c0.12,0.179,0.166,0.193,0.348,0.088c0.395-0.229,0.788-0.461,1.181-0.694c0.459-0.272,0.419-0.232,0.648,0.155
				c0.24,0.404,0.479,0.808,0.715,1.215c0.117,0.202,0.108,0.247-0.076,0.388c-0.082,0.063-0.173,0.116-0.263,0.169
				c-0.314,0.187-0.63,0.371-0.944,0.557c-0.078,0.047-0.156,0.095-0.231,0.147c-0.075,0.053-0.083,0.132-0.052,0.21
				c0.029,0.072,0.071,0.139,0.111,0.207c0.503,0.855,1.011,1.707,1.509,2.564c0.16,0.275,0.357,0.511,0.598,0.715
				c0.233,0.198,0.479,0.262,0.788,0.175c0.411-0.115,0.776-0.3,1.104-0.567c0.04-0.033,0.084-0.063,0.131-0.084
				c0.064-0.028,0.13-0.018,0.177,0.037c0.042,0.049,0.078,0.104,0.111,0.16c0.279,0.472,0.557,0.944,0.835,1.417
				c0.026,0.045,0.053,0.09,0.074,0.138c0.053,0.123,0.037,0.192-0.069,0.27c-0.073,0.054-0.153,0.099-0.227,0.153
				c-0.106,0.076-0.219,0.145-0.311,0.236c-0.368,0.364-0.833,0.579-1.272,0.834c-0.066,0.038-0.145,0.057-0.221,0.072
				c-0.117,0.023-0.223,0.07-0.329,0.12c-0.838,0.393-1.629,0.3-2.37-0.245c-0.38-0.279-0.707-0.61-0.946-1.023
				c-0.328-0.564-0.662-1.125-0.993-1.687C474.631,534.307,474.629,534.308,474.627,534.309z"/>
		</g>
	</g>
</g>
</svg>
