<?xml version="1.0" encoding="utf-8"?>
<!-- Generator: Adobe Illustrator 21.0.2, SVG Export Plug-In . SVG Version: 6.00 Build 0)  -->
<svg version="1.1" id="Layer_1" xmlns="http://www.w3.org/2000/svg" xmlns:xlink="http://www.w3.org/1999/xlink" x="0px" y="0px"
	 viewBox="0 0 841.89 595.28" enable-background="new 0 0 841.89 595.28" xml:space="preserve">
<g>
	<polygon fill="#8C8C8C" points="423.802,588.879 172.883,444.012 172.883,154.275 423.802,9.406 674.722,154.275 674.722,444.01 	
		"/>
</g>
<g enable-background="new    ">
	<path fill="#FFFFFF" d="M423.796,55.258L212.273,177.206v243.887l211.523,121.935l211.535-121.935V177.206L423.796,55.258z
		 M626.767,416.179l-202.97,117.025L220.819,416.179V182.165L423.796,65.141l202.97,117.023V416.179z"/>
</g>
<g>
	<path fill="#FFFFFF" d="M504.591,72.46l-5.55-3.177l-2.19,3.828l5.354,3.063l-1.293,2.259l-5.354-3.063l-4.34,7.583l-2.404-1.377
		l9.116-15.928l7.954,4.553L504.591,72.46z"/>
	<path fill="#FFFFFF" d="M507.182,78.75l-5.751,10.048l-2.321-1.329l5.751-10.048L507.182,78.75z M506.9,73.043
		c0.232-0.406,0.581-0.672,1.046-0.799c0.465-0.126,0.904-0.071,1.316,0.165c0.419,0.239,0.691,0.592,0.818,1.057
		c0.131,0.458,0.076,0.897-0.164,1.317c-0.24,0.419-0.593,0.691-1.058,0.818c-0.458,0.131-0.897,0.076-1.316-0.164
		c-0.42-0.24-0.692-0.593-0.818-1.058C506.598,73.914,506.656,73.469,506.9,73.043z"/>
	<path fill="#FFFFFF" d="M510.121,80.432l2.321,1.329l-0.514,0.897c0.682-0.203,1.235-0.293,1.66-0.269
		c0.435,0.021,0.883,0.163,1.345,0.427c0.611,0.35,1.137,0.916,1.575,1.696l-2.278,1.518c-0.259-0.568-0.599-0.974-1.018-1.212
		c-1.267-0.726-2.445-0.131-3.54,1.78l-2.981,5.21l-2.321-1.328L510.121,80.432z"/>
	<path fill="#FFFFFF" d="M522.883,90.01l-2.504-0.077c0.051-0.792-0.146-1.316-0.593-1.571c-0.213-0.123-0.437-0.156-0.668-0.102
		c-0.232,0.054-0.411,0.191-0.537,0.411c-0.221,0.386,0.008,1.022,0.686,1.912c0.929,1.235,1.478,2.197,1.647,2.889
		c0.172,0.691,0.04,1.414-0.393,2.171c-0.556,0.97-1.379,1.576-2.466,1.82c-1.05,0.223-2.065,0.051-3.05-0.512
		c-1.686-0.965-2.407-2.469-2.168-4.515l2.506,0.216c-0.001,0.639,0.034,1.064,0.104,1.277c0.132,0.424,0.396,0.747,0.787,0.971
		c0.784,0.449,1.38,0.316,1.789-0.398c0.236-0.413,0.155-0.971-0.245-1.676c-0.168-0.25-0.336-0.498-0.508-0.742
		c-0.17-0.243-0.343-0.492-0.517-0.748c-0.485-0.715-0.771-1.316-0.856-1.805c-0.11-0.62,0.022-1.26,0.4-1.92
		c0.5-0.874,1.212-1.425,2.138-1.653c0.939-0.22,1.845-0.081,2.719,0.419C522.44,87.113,523.017,88.324,522.883,90.01z"/>
	<path fill="#FFFFFF" d="M527.75,93.398l-4.511,7.881l-2.32-1.328l4.511-7.882l-0.991-0.566l1.24-2.167l0.991,0.567l2.107-3.683
		l2.32,1.328l-2.107,3.683l1.806,1.033l-1.24,2.167L527.75,93.398z"/>
	<path fill="#FFFFFF" d="M539.692,102.109l-3.702,6.468l-2.404-1.376l9.116-15.928l2.724,1.559c1.334,0.764,2.289,1.434,2.863,2.008
		c0.581,0.58,0.985,1.277,1.214,2.092c0.402,1.418,0.214,2.808-0.565,4.169c-0.835,1.458-1.984,2.335-3.449,2.628
		c-1.465,0.295-3.024-0.033-4.683-0.982L539.692,102.109z M540.968,99.881l0.897,0.514c2.207,1.263,3.797,1.046,4.77-0.653
		c0.94-1.644,0.272-3.116-2.004-4.42l-0.794-0.454L540.968,99.881z"/>
	<path fill="#FFFFFF" d="M550.303,103.43l2.321,1.328l-0.514,0.898c0.683-0.203,1.235-0.293,1.66-0.269
		c0.435,0.021,0.884,0.163,1.345,0.427c0.612,0.35,1.138,0.916,1.576,1.696l-2.278,1.517c-0.26-0.568-0.6-0.973-1.019-1.212
		c-1.266-0.726-2.445-0.131-3.54,1.781l-2.981,5.21l-2.321-1.329L550.303,103.43z"/>
	<path fill="#FFFFFF" d="M560.527,109.281l-5.751,10.048L552.455,118l5.751-10.048L560.527,109.281z M560.246,103.574
		c0.232-0.406,0.581-0.672,1.046-0.799c0.465-0.126,0.904-0.071,1.316,0.165c0.419,0.239,0.691,0.592,0.818,1.058
		c0.131,0.458,0.076,0.896-0.164,1.316s-0.593,0.692-1.058,0.818c-0.458,0.131-0.897,0.076-1.316-0.164
		c-0.42-0.24-0.692-0.593-0.818-1.058C559.943,104.446,560.002,104.001,560.246,103.574z"/>
	<path fill="#FFFFFF" d="M562.3,120.732l5.973,3.418l-1.252,2.188l-10.574-6.053l11.021-4.155l-5.128-2.935l1.24-2.167l9.718,5.563
		L562.3,120.732z"/>
	<path fill="#FFFFFF" d="M580.911,128.344l-7.201-4.122c-0.411,0.861-0.519,1.671-0.323,2.431c0.199,0.754,0.67,1.343,1.413,1.768
		c0.577,0.33,1.134,0.467,1.669,0.408c0.53-0.063,1.244-0.329,2.144-0.801l1.333,2.216c-0.597,0.343-1.17,0.602-1.717,0.776
		c-0.548,0.176-1.082,0.271-1.604,0.288c-0.52,0.017-1.035-0.048-1.547-0.194c-0.509-0.145-1.025-0.368-1.549-0.667
		c-1.498-0.858-2.428-2.028-2.783-3.511c-0.354-1.489-0.071-3.035,0.846-4.638c0.909-1.589,2.086-2.623,3.528-3.103
		c1.443-0.462,2.897-0.273,4.361,0.564c1.479,0.847,2.379,1.986,2.7,3.422c0.316,1.423,0,2.964-0.948,4.621L580.911,128.344z
		 M579.613,125.081c0.387-1.423-0.041-2.488-1.279-3.197c-0.281-0.161-0.571-0.27-0.867-0.325c-0.297-0.056-0.593-0.061-0.889-0.016
		c-0.295,0.045-0.58,0.141-0.854,0.284c-0.274,0.146-0.533,0.34-0.774,0.585L579.613,125.081z"/>
</g>
<g>
	<circle fill="#FFFFFF" cx="590.679" cy="132.506" r="4.129"/>
</g>
<g>
	<circle fill="#FFFFFF" cx="483.328" cy="68.984" r="4.129"/>
</g>
<g>
	<path fill="#FFFFFF" d="M236.575,141.298l3.156,5.494l-2.041,1.173l-7.771-13.528l2.313-1.329c1.133-0.65,2.034-1.063,2.702-1.238
		c0.675-0.177,1.36-0.176,2.056,0.009c1.214,0.313,2.152,1.048,2.816,2.204c0.712,1.238,0.86,2.458,0.447,3.658
		c-0.413,1.201-1.324,2.205-2.732,3.014L236.575,141.298z M235.488,139.405l0.763-0.438c1.875-1.077,2.397-2.338,1.569-3.779
		c-0.802-1.396-2.17-1.539-4.104-0.429l-0.674,0.388L235.488,139.405z"/>
	<path fill="#FFFFFF" d="M238.503,127.815l1.972-1.132l4.007,6.975c0.338-1.034,0.931-1.795,1.777-2.281
		c0.964-0.554,1.915-0.684,2.853-0.391c0.802,0.262,1.546,0.988,2.23,2.18l3.005,5.23l-1.972,1.133l-2.899-5.047
		c-0.393-0.684-0.798-1.109-1.216-1.276c-0.419-0.168-0.896-0.097-1.435,0.212c-0.689,0.396-1.052,0.889-1.087,1.475
		c-0.026,0.591,0.263,1.412,0.866,2.463l2.371,4.127l-1.972,1.132L238.503,127.815z"/>
	<path fill="#FFFFFF" d="M249.605,125.051c-0.199-0.345-0.244-0.715-0.137-1.11c0.106-0.396,0.335-0.694,0.686-0.896
		c0.355-0.204,0.732-0.253,1.128-0.146c0.392,0.102,0.69,0.331,0.896,0.688c0.204,0.355,0.253,0.73,0.146,1.127
		c-0.102,0.392-0.33,0.691-0.686,0.896c-0.357,0.205-0.733,0.252-1.128,0.146C250.115,125.647,249.813,125.413,249.605,125.051z
		 M253.913,127.296l4.902,8.534l-1.972,1.133l-4.902-8.535L253.913,127.296z"/>
	<path fill="#FFFFFF" d="M254.783,118.464l8.501,14.799l-1.972,1.133l-8.501-14.799L254.783,118.464z"/>
	<path fill="#FFFFFF" d="M262.891,127.73c-0.707-1.23-0.869-2.533-0.482-3.904c0.385-1.371,1.211-2.422,2.479-3.149
		c1.273-0.731,2.604-0.917,3.992-0.556c1.376,0.366,2.428,1.184,3.156,2.451c0.735,1.28,0.91,2.604,0.524,3.977
		c-0.395,1.368-1.237,2.424-2.528,3.165c-1.279,0.735-2.604,0.911-3.971,0.533C264.699,129.878,263.643,129.041,262.891,127.73z
		 M264.927,126.609c0.49,0.853,1.105,1.396,1.847,1.631c0.755,0.233,1.516,0.132,2.281-0.308c0.771-0.443,1.244-1.045,1.421-1.808
		c0.176-0.761,0.026-1.557-0.45-2.386c-0.477-0.83-1.089-1.36-1.835-1.592c-0.756-0.233-1.517-0.131-2.281,0.309
		c-0.754,0.433-1.22,1.035-1.399,1.806C264.332,125.032,264.471,125.814,264.927,126.609z"/>
	<path fill="#FFFFFF" d="M277.459,115.704l-1.131,1.804c-0.56-0.378-1.028-0.457-1.408-0.239c-0.182,0.104-0.302,0.252-0.361,0.445
		c-0.06,0.194-0.036,0.385,0.071,0.571c0.188,0.327,0.754,0.434,1.698,0.318c1.304-0.15,2.245-0.141,2.826,0.031
		c0.58,0.172,1.055,0.579,1.424,1.222c0.474,0.823,0.564,1.687,0.276,2.59c-0.288,0.865-0.85,1.538-1.685,2.019
		c-1.432,0.822-2.846,0.706-4.243-0.349l1.233-1.745c0.469,0.273,0.797,0.432,0.983,0.472c0.366,0.084,0.717,0.031,1.05-0.16
		c0.666-0.383,0.824-0.877,0.475-1.484c-0.201-0.351-0.646-0.53-1.334-0.539c-0.256,0.015-0.51,0.033-0.762,0.052
		c-0.253,0.021-0.51,0.041-0.771,0.06c-0.733,0.049-1.297,0-1.691-0.146c-0.503-0.186-0.916-0.56-1.238-1.12
		c-0.426-0.742-0.523-1.501-0.294-2.278c0.241-0.783,0.733-1.389,1.475-1.814C275.145,114.784,276.279,114.883,277.459,115.704z"/>
	<path fill="#FFFFFF" d="M280.958,117.353c-0.708-1.231-0.869-2.533-0.483-3.904s1.212-2.422,2.479-3.15
		c1.273-0.731,2.604-0.916,3.991-0.556c1.377,0.367,2.429,1.184,3.157,2.451c0.735,1.28,0.909,2.605,0.524,3.977
		c-0.396,1.369-1.238,2.425-2.529,3.166c-1.279,0.734-2.603,0.911-3.97,0.532C282.767,119.5,281.71,118.662,280.958,117.353z
		 M282.994,116.231c0.49,0.853,1.105,1.396,1.846,1.631c0.756,0.233,1.517,0.131,2.281-0.309c0.771-0.442,1.245-1.045,1.422-1.807
		c0.176-0.761,0.025-1.557-0.45-2.386c-0.478-0.83-1.089-1.361-1.835-1.592c-0.756-0.233-1.517-0.132-2.282,0.308
		c-0.753,0.433-1.219,1.036-1.398,1.806C282.398,114.653,282.537,115.437,282.994,116.231z"/>
	<path fill="#FFFFFF" d="M299.273,118.766l-1.972,1.133l-7.569-13.178l1.971-1.133l0.534,0.929c0.329-1.224,0.989-2.119,1.976-2.687
		c1.174-0.674,2.39-0.796,3.646-0.368c1.265,0.416,2.272,1.278,3.024,2.587c0.734,1.278,0.964,2.564,0.688,3.856
		c-0.272,1.284-0.987,2.259-2.144,2.923c-0.999,0.573-2.123,0.686-3.371,0.339L299.273,118.766z M298.872,107.215
		c-0.47-0.818-1.074-1.356-1.813-1.615c-0.748-0.262-1.464-0.196-2.147,0.196c-0.725,0.416-1.167,1.005-1.329,1.766
		c-0.161,0.761-0.006,1.551,0.464,2.367c0.459,0.801,1.063,1.332,1.812,1.594c0.735,0.253,1.466,0.171,2.19-0.245
		c0.684-0.393,1.099-0.974,1.248-1.742C299.456,108.76,299.315,107.986,298.872,107.215z"/>
	<path fill="#FFFFFF" d="M296.893,94.275l1.972-1.133l4.007,6.975c0.338-1.033,0.931-1.795,1.777-2.281
		c0.964-0.554,1.915-0.683,2.853-0.391c0.802,0.262,1.546,0.988,2.23,2.18l3.005,5.23l-1.972,1.133l-2.899-5.047
		c-0.393-0.684-0.798-1.109-1.217-1.276c-0.418-0.167-0.896-0.097-1.434,0.212c-0.689,0.396-1.052,0.889-1.087,1.476
		c-0.026,0.59,0.263,1.411,0.866,2.462l2.371,4.127l-1.972,1.133L296.893,94.275z"/>
	<path fill="#FFFFFF" d="M320.82,95.154l-6.115,3.514c0.455,0.671,1.004,1.098,1.645,1.281c0.639,0.177,1.272,0.084,1.903-0.278
		c0.491-0.281,0.829-0.632,1.017-1.05c0.182-0.415,0.293-1.054,0.333-1.916l2.198-0.027c-0.006,0.586-0.062,1.117-0.169,1.594
		c-0.106,0.477-0.265,0.911-0.476,1.3c-0.212,0.39-0.48,0.739-0.807,1.052c-0.326,0.311-0.711,0.596-1.155,0.85
		c-1.273,0.732-2.53,0.91-3.771,0.534c-1.245-0.381-2.258-1.25-3.039-2.612c-0.775-1.349-1.029-2.656-0.762-3.921
		c0.281-1.256,1.043-2.243,2.287-2.958c1.256-0.721,2.479-0.891,3.668-0.51c1.182,0.378,2.176,1.272,2.984,2.68L320.82,95.154z
		 M317.871,94.705c-0.879-0.894-1.844-1.039-2.896-0.435c-0.239,0.138-0.443,0.304-0.612,0.497
		c-0.167,0.194-0.298,0.409-0.392,0.646c-0.094,0.235-0.146,0.485-0.158,0.748c-0.012,0.264,0.021,0.536,0.097,0.818L317.871,94.705
		z"/>
	<path fill="#FFFFFF" d="M320.258,89.185l1.973-1.132l0.438,0.763c0.144-0.588,0.315-1.032,0.516-1.334
		c0.202-0.311,0.499-0.579,0.891-0.804c0.52-0.299,1.16-0.439,1.922-0.427l0.134,2.322c-0.528-0.053-0.971,0.022-1.327,0.227
		c-1.074,0.618-1.145,1.738-0.213,3.362l2.543,4.425l-1.973,1.132L320.258,89.185z"/>
	<path fill="#FFFFFF" d="M332.765,83.935l-1.132,1.805c-0.559-0.379-1.027-0.458-1.407-0.239c-0.181,0.104-0.302,0.251-0.361,0.445
		c-0.06,0.193-0.036,0.384,0.071,0.57c0.188,0.327,0.754,0.434,1.697,0.318c1.305-0.15,2.246-0.141,2.827,0.031
		c0.579,0.172,1.055,0.58,1.424,1.223c0.474,0.822,0.565,1.686,0.276,2.59c-0.288,0.865-0.85,1.538-1.686,2.018
		c-1.431,0.822-2.844,0.706-4.242-0.348l1.234-1.746c0.468,0.274,0.795,0.433,0.982,0.473c0.367,0.084,0.717,0.03,1.049-0.16
		c0.666-0.383,0.825-0.878,0.476-1.485c-0.201-0.351-0.646-0.53-1.334-0.538c-0.256,0.014-0.51,0.032-0.763,0.052
		c-0.252,0.021-0.509,0.04-0.771,0.06c-0.733,0.048-1.298,0-1.692-0.146c-0.502-0.186-0.915-0.559-1.237-1.119
		c-0.426-0.742-0.523-1.502-0.294-2.279c0.241-0.783,0.732-1.389,1.475-1.814C330.449,83.016,331.585,83.113,332.765,83.935z"/>
	<path fill="#FFFFFF" d="M346.104,70.377l-1.092,1.933c-0.619-0.36-1.115-0.541-1.489-0.543c-0.4-0.02-0.83,0.104-1.292,0.369
		c-0.566,0.325-0.944,0.756-1.133,1.291c-0.193,0.531-0.152,1.035,0.123,1.514c0.379,0.661,1.175,0.91,2.388,0.749l1.667-0.223
		c1.354-0.186,2.467-0.106,3.343,0.241s1.581,0.986,2.114,1.915c0.715,1.244,0.891,2.511,0.527,3.799
		c-0.366,1.298-1.168,2.303-2.406,3.014c-1.174,0.675-2.344,0.883-3.508,0.627c-1.152-0.261-2.185-0.97-3.097-2.124l1.806-1.644
		c0.551,0.741,1.029,1.196,1.438,1.365c0.756,0.343,1.537,0.282,2.344-0.181c0.636-0.365,1.042-0.882,1.218-1.55
		s0.075-1.33-0.301-1.984c-0.15-0.263-0.325-0.482-0.524-0.66c-0.199-0.176-0.429-0.313-0.688-0.408
		c-0.261-0.094-0.56-0.152-0.897-0.171c-0.338-0.02-0.718-0.005-1.141,0.043l-1.617,0.207c-2.302,0.28-3.885-0.333-4.75-1.839
		c-0.584-1.018-0.684-2.09-0.3-3.221c0.381-1.135,1.149-2.034,2.306-2.699C342.701,69.302,344.354,69.361,346.104,70.377z"/>
	<path fill="#FFFFFF" d="M353.341,72.63l3.845,6.693l-1.971,1.132l-3.846-6.693l-0.841,0.483l-1.058-1.841l0.842-0.483l-1.797-3.128
		l1.971-1.132l1.797,3.128l1.533-0.881l1.058,1.841L353.341,72.63z"/>
	<path fill="#FFFFFF" d="M357.17,73.574c-0.708-1.231-0.869-2.533-0.483-3.904c0.385-1.371,1.211-2.422,2.479-3.15
		c1.272-0.731,2.604-0.916,3.991-0.555c1.376,0.366,2.429,1.183,3.157,2.45c0.734,1.28,0.909,2.605,0.523,3.978
		c-0.395,1.368-1.237,2.424-2.528,3.165c-1.279,0.735-2.604,0.911-3.971,0.532C358.979,75.722,357.922,74.884,357.17,73.574z
		 M359.205,72.453c0.49,0.853,1.105,1.396,1.847,1.631c0.755,0.233,1.516,0.132,2.281-0.309c0.771-0.442,1.245-1.045,1.421-1.807
		c0.176-0.761,0.026-1.557-0.449-2.386c-0.478-0.83-1.09-1.36-1.836-1.592c-0.756-0.233-1.517-0.132-2.281,0.308
		c-0.754,0.434-1.22,1.036-1.398,1.807C358.609,70.875,358.749,71.658,359.205,72.453z"/>
	<path fill="#FFFFFF" d="M365.943,62.942l1.98-1.138l0.452,0.789c0.297-1.08,0.877-1.868,1.741-2.365
		c0.994-0.57,1.947-0.701,2.861-0.396c0.784,0.256,1.522,0.987,2.214,2.19l3.005,5.23l-1.98,1.137l-2.738-4.766
		c-0.483-0.842-0.935-1.356-1.353-1.542c-0.415-0.196-0.923-0.122-1.525,0.224c-0.653,0.376-0.995,0.858-1.021,1.448
		c-0.023,0.581,0.27,1.402,0.88,2.466l2.366,4.118l-1.98,1.138L365.943,62.942z"/>
	<path fill="#FFFFFF" d="M386.272,57.557l-6.116,3.514c0.455,0.671,1.004,1.098,1.646,1.281c0.638,0.178,1.272,0.085,1.903-0.277
		c0.49-0.282,0.829-0.633,1.016-1.051c0.182-0.414,0.293-1.054,0.334-1.916l2.197-0.027c-0.005,0.586-0.061,1.117-0.168,1.594
		c-0.106,0.478-0.266,0.911-0.477,1.301c-0.212,0.389-0.48,0.739-0.807,1.051c-0.326,0.311-0.711,0.596-1.154,0.851
		c-1.273,0.731-2.531,0.909-3.771,0.534c-1.244-0.382-2.257-1.251-3.039-2.613c-0.775-1.349-1.029-2.656-0.762-3.921
		c0.281-1.256,1.043-2.242,2.287-2.957c1.256-0.722,2.479-0.891,3.669-0.511c1.181,0.378,2.176,1.272,2.984,2.68L386.272,57.557z
		 M383.322,57.107c-0.879-0.893-1.844-1.039-2.895-0.435c-0.24,0.138-0.443,0.304-0.612,0.497c-0.168,0.195-0.299,0.409-0.392,0.646
		c-0.095,0.236-0.146,0.485-0.159,0.749c-0.012,0.264,0.021,0.536,0.097,0.818L383.322,57.107z"/>
</g>
<g>
	<g>
		<path fill="#FFFFFF" d="M420.65,188.016c-16.53,22.97-26.053,50.136-33.352,77.242c-3.672,13.637-7.017,27.427-9.874,41.258
			c-3.307,16.015-4.631,32.355-7.263,48.48c-0.514,3.148,4.303,4.502,4.821,1.329c2.584-15.825,3.899-31.856,7.078-47.584
			c2.75-13.6,6.066-27.151,9.631-40.558c7.254-27.278,16.649-54.541,33.276-77.645C426.849,187.924,422.514,185.425,420.65,188.016
			L420.65,188.016z"/>
	</g>
</g>
<g>
	<g>
		<path fill="#FFFFFF" d="M369.42,357.89c5.365,4.843,6.256,11.076,4.426,17.848c-0.84,3.11,3.982,4.437,4.821,1.329
			c2.266-8.388,0.92-16.726-5.712-22.712C370.573,352.203,367.026,355.728,369.42,357.89L369.42,357.89z"/>
	</g>
</g>
<g>
	<g>
		<path fill="#FFFFFF" d="M374.339,359.734c4.087-3.584,8.126-7.229,11.983-11.062c2.286-2.271-1.249-5.807-3.536-3.536
			c-3.857,3.833-7.895,7.477-11.983,11.062C368.379,358.324,371.927,361.849,374.339,359.734L374.339,359.734z"/>
	</g>
</g>
<g>
	<g>
		<path fill="#FFFFFF" d="M393.665,301.994c-11.633,28.83-16.957,65.454-2.052,94.105c1.486,2.856,5.802,0.33,4.317-2.524
			c-14.271-27.432-8.541-62.751,2.556-90.252C399.69,300.34,394.856,299.043,393.665,301.994L393.665,301.994z"/>
	</g>
</g>
<g>
	<g>
		<path fill="#FFFFFF" d="M399.408,301.072c-1.893-12.641-4.129-25.225-6.452-37.794c-0.584-3.16-5.404-1.821-4.821,1.329
			c2.323,12.569,4.559,25.152,6.452,37.794C395.061,305.573,399.88,304.225,399.408,301.072L399.408,301.072z"/>
	</g>
</g>
<g>
	<g>
		<path fill="#FFFFFF" d="M399.642,303.434c7.003-3.568,13.599-7.859,20.279-11.984c2.733-1.688,0.225-6.014-2.524-4.317
			c-6.68,4.125-13.277,8.416-20.279,11.984C394.25,300.578,396.778,304.893,399.642,303.434L399.642,303.434z"/>
	</g>
</g>
<g>
	<g>
		<path fill="#FFFFFF" d="M418.925,191.582c0,32.109,0,64.218,0,96.327c0,3.217,5,3.223,5,0c0-32.109,0-64.218,0-96.327
			C423.925,188.365,418.925,188.36,418.925,191.582L418.925,191.582z"/>
	</g>
</g>
<g>
	<g>
		<path fill="#FFFFFF" d="M376.111,405.777c3.374-5.785,10.499-10.529,17.198-11.206c3.171-0.32,3.204-5.324,0-5
			c-8.508,0.859-17.185,6.258-21.516,13.683C370.17,406.039,374.489,408.558,376.111,405.777L376.111,405.777z"/>
	</g>
</g>
<g>
	<g>
		<path fill="#FFFFFF" d="M373.757,375.478c-0.957,9.433-2.718,18.708-4.98,27.911c-0.768,3.124,4.053,4.457,4.821,1.329
			c2.368-9.637,4.157-19.365,5.159-29.24C379.081,372.28,374.079,372.302,373.757,375.478L373.757,375.478z"/>
	</g>
</g>
<g>
	<g>
		<path fill="#FFFFFF" d="M369.148,403.592c2.209,24.129,18.75,41.046,35.761,56.615c2.37,2.169,5.915-1.357,3.536-3.536
			c-15.862-14.517-32.225-30.464-34.296-53.079C373.857,400.414,368.854,400.384,369.148,403.592L369.148,403.592z"/>
	</g>
</g>
<g>
	<g>
		<path fill="#FFFFFF" d="M408.979,460.939c10.754,0,21.509,0,32.263,0c3.217,0,3.223-5,0-5c-10.754,0-21.509,0-32.263,0
			C405.762,455.939,405.757,460.939,408.979,460.939L408.979,460.939z"/>
	</g>
</g>
<g>
	<g>
		<path fill="#FFFFFF" d="M391.269,393.914c0.536,8.93,1.877,17.736,3.776,26.475c0.683,3.143,5.504,1.813,4.821-1.329
			c-1.804-8.304-3.088-16.658-3.597-25.145C396.077,390.717,391.076,390.695,391.269,393.914L391.269,393.914z"/>
	</g>
</g>
<g>
	<g>
		<path fill="#FFFFFF" d="M395.297,420.064c5.507,11.511,11.367,24,11.642,36.993c0.068,3.213,5.068,3.224,5,0
			c-0.295-13.925-6.417-27.168-12.324-39.516C398.227,414.639,393.914,417.172,395.297,420.064L395.297,420.064z"/>
	</g>
</g>
<g>
	<g>
		<path fill="#FFFFFF" d="M396.85,392.871c7.677-13.176,13.991-28.844,24.673-39.935c2.233-2.318-1.298-5.859-3.536-3.536
			c-11.01,11.432-17.548,27.376-25.455,40.947C390.91,393.133,395.229,395.653,396.85,392.871L396.85,392.871z"/>
	</g>
</g>
<g>
	<g>
		<path fill="#FFFFFF" d="M419.955,190.771c16.627,23.104,26.021,50.366,33.275,77.645c3.565,13.406,6.894,26.957,9.631,40.558
			c3.166,15.731,4.495,31.758,7.079,47.584c0.517,3.168,5.336,1.824,4.821-1.329c-2.584-15.825-3.905-31.855-7.079-47.584
			c-2.853-14.138-6.308-28.23-10.058-42.155c-7.299-27.106-16.821-54.272-33.352-77.242
			C422.41,185.659,418.071,188.152,419.955,190.771L419.955,190.771z"/>
	</g>
</g>
<g>
	<g>
		<path fill="#FFFFFF" d="M470.814,354.354c-6.633,5.987-7.978,14.327-5.712,22.712c0.838,3.103,5.663,1.786,4.821-1.329
			c-1.829-6.772-0.939-13.005,4.426-17.848C476.743,355.729,473.198,352.202,470.814,354.354L470.814,354.354z"/>
	</g>
</g>
<g>
	<g>
		<path fill="#FFFFFF" d="M472.966,356.199c-4.087-3.584-8.126-7.229-11.983-11.062c-2.285-2.271-5.822,1.263-3.536,3.536
			c3.857,3.833,7.895,7.477,11.983,11.062C471.841,361.848,475.391,358.325,472.966,356.199L472.966,356.199z"/>
	</g>
</g>
<g>
	<g>
		<path fill="#FFFFFF" d="M445.283,303.323c11.097,27.501,16.828,62.819,2.556,90.252c-1.483,2.851,2.83,5.382,4.317,2.524
			c14.905-28.65,9.581-65.274-2.052-94.105C448.915,299.048,444.077,300.335,445.283,303.323L445.283,303.323z"/>
	</g>
</g>
<g>
	<g>
		<path fill="#FFFFFF" d="M449.183,302.401c1.893-12.641,4.129-25.226,6.453-37.794c0.582-3.145-4.236-4.494-4.821-1.329
			c-2.324,12.568-4.56,25.152-6.453,37.794C443.89,304.22,448.707,305.578,449.183,302.401L449.183,302.401z"/>
	</g>
</g>
<g>
	<g>
		<path fill="#FFFFFF" d="M446.651,299.116c-7.003-3.568-13.599-7.859-20.279-11.984c-2.745-1.695-5.259,2.628-2.524,4.317
			c6.68,4.125,13.277,8.416,20.279,11.984C446.989,304.892,449.522,300.579,446.651,299.116L446.651,299.116z"/>
	</g>
</g>
<g>
	<g>
		<path fill="#FFFFFF" d="M419.845,191.582c0,32.109,0,64.218,0,96.327c0,3.217,5,3.223,5,0c0-32.109,0-64.218,0-96.327
			C424.845,188.365,419.845,188.36,419.845,191.582L419.845,191.582z"/>
	</g>
</g>
<g>
	<g>
		<path fill="#FFFFFF" d="M471.975,403.253c-4.33-7.425-13.008-12.823-21.516-13.683c-3.199-0.323-3.176,4.679,0,5
			c6.702,0.677,13.825,5.422,17.198,11.206C469.278,408.555,473.601,406.041,471.975,403.253L471.975,403.253z"/>
	</g>
</g>
<g>
	<g>
		<path fill="#FFFFFF" d="M465.013,375.478c1.002,9.875,2.79,19.604,5.159,29.24c0.768,3.123,5.59,1.8,4.821-1.329
			c-2.261-9.202-4.023-18.477-4.98-27.911C469.691,372.308,464.688,372.274,465.013,375.478L465.013,375.478z"/>
	</g>
</g>
<g>
	<g>
		<path fill="#FFFFFF" d="M469.622,403.592c-2.071,22.615-18.434,38.562-34.295,53.079c-2.379,2.177,1.165,5.706,3.536,3.536
			c17.011-15.569,33.551-32.486,35.76-56.615C474.915,400.389,469.913,400.409,469.622,403.592L469.622,403.592z"/>
	</g>
</g>
<g>
	<g>
		<path fill="#FFFFFF" d="M434.79,455.939c-10.754,0-21.509,0-32.263,0c-3.217,0-3.223,5,0,5c10.754,0,21.509,0,32.263,0
			C438.008,460.939,438.013,455.939,434.79,455.939L434.79,455.939z"/>
	</g>
</g>
<g>
	<g>
		<path fill="#FFFFFF" d="M447.5,393.914c-0.51,8.487-1.793,16.842-3.597,25.145c-0.682,3.137,4.137,4.477,4.821,1.329
			c1.899-8.739,3.24-17.544,3.776-26.475C452.693,390.7,447.692,390.711,447.5,393.914L447.5,393.914z"/>
	</g>
</g>
<g>
	<g>
		<path fill="#FFFFFF" d="M444.266,418.235c-9.98,1.951-19.885,4.506-29.498,7.836c-3.022,1.047-1.723,5.879,1.329,4.821
			c9.612-3.33,19.517-5.885,29.498-7.836C448.75,422.439,447.415,417.619,444.266,418.235L444.266,418.235z"/>
	</g>
</g>
<g>
	<g>
		<path fill="#FFFFFF" d="M444.155,417.54c-5.908,12.349-12.03,25.59-12.324,39.516c-0.068,3.219,4.932,3.218,5,0
			c0.275-12.991,6.135-25.483,11.642-36.993C449.854,417.175,445.544,414.636,444.155,417.54L444.155,417.54z"/>
	</g>
</g>
<g>
	<g>
		<path fill="#FFFFFF" d="M451.237,390.347c-8.509-14.439-17.649-29.929-29.427-41.987c-2.252-2.306-5.787,1.231-3.536,3.536
			c11.472,11.745,20.354,26.906,28.645,40.975C448.552,395.641,452.876,393.129,451.237,390.347L451.237,390.347z"/>
	</g>
</g>
<g>
	<g>
		<path fill="#FFFFFF" d="M420.858,289.033c3.937,19.493,4.133,40.979-2.305,59.969c-1.035,3.054,3.792,4.365,4.821,1.329
			c6.73-19.849,6.417-42.27,2.305-62.627C425.043,284.552,420.223,285.886,420.858,289.033L420.858,289.033z"/>
	</g>
</g>
<g>
	<g>
		<path fill="#FFFFFF" d="M396.449,422.194c14.936,3.413,25.189,16.39,37.946,23.945c2.775,1.644,5.293-2.677,2.524-4.317
			c-13.178-7.805-23.673-20.915-39.14-24.449C394.646,416.657,393.308,421.477,396.449,422.194L396.449,422.194z"/>
	</g>
</g>
<g>
	<g>
		<path fill="#FFFFFF" d="M425.885,175.913c0-10.255,0-20.51,0-30.765c0-3.217-5-3.223-5,0c0,10.255,0,20.51,0,30.765
			C420.885,179.13,425.885,179.135,425.885,175.913L425.885,175.913z"/>
	</g>
</g>
<g>
	<g>
		<path fill="#FFFFFF" d="M424.768,135.895c3.217,0,3.223-5,0-5C421.551,130.895,421.545,135.895,424.768,135.895L424.768,135.895z"
			/>
	</g>
</g>
<g>
	<g>
		<path fill="#FFFFFF" d="M453.844,214.321c7.49-7.49,14.979-14.979,22.469-22.469c2.278-2.278-1.256-5.815-3.536-3.536
			c-7.49,7.49-14.979,14.979-22.469,22.469C448.03,213.064,451.565,216.6,453.844,214.321L453.844,214.321z"/>
	</g>
</g>
<g>
	<g>
		<path fill="#FFFFFF" d="M484.914,184.98c3.217,0,3.223-5,0-5C481.697,179.98,481.691,184.98,484.914,184.98L484.914,184.98z"/>
	</g>
</g>
<g>
	<g>
		<path fill="#FFFFFF" d="M396.116,210.786c-7.49-7.49-14.979-14.979-22.469-22.469c-2.278-2.278-5.815,1.256-3.536,3.536
			c7.49,7.49,14.979,14.979,22.469,22.469C394.859,216.599,398.395,213.065,396.116,210.786L396.116,210.786z"/>
	</g>
</g>
<g>
	<g>
		<path fill="#FFFFFF" d="M361.51,184.98c3.217,0,3.223-5,0-5C358.293,179.98,358.288,184.98,361.51,184.98L361.51,184.98z"/>
	</g>
</g>
<g>
	<g>
		<path fill="#FFFFFF" d="M466.133,237.868c17.821,0,35.642,0,53.463,0c3.217,0,3.223-5,0-5c-17.821,0-35.642,0-53.463,0
			C462.916,232.868,462.91,237.868,466.133,237.868L466.133,237.868z"/>
	</g>
</g>
<g>
	<g>
		<path fill="#FFFFFF" d="M532.963,238.789c3.217,0,3.223-5,0-5C529.746,233.789,529.74,238.789,532.963,238.789L532.963,238.789z"
			/>
	</g>
</g>
<g>
	<g>
		<path fill="#FFFFFF" d="M378.102,232.868c-17.821,0-35.643,0-53.464,0c-3.217,0-3.223,5,0,5c17.821,0,35.643,0,53.464,0
			C381.319,237.868,381.324,232.868,378.102,232.868L378.102,232.868z"/>
	</g>
</g>
<g>
	<g>
		<path fill="#FFFFFF" d="M311.272,238.789c3.217,0,3.223-5,0-5C308.055,233.789,308.049,238.789,311.272,238.789L311.272,238.789z"
			/>
	</g>
</g>
<g>
	<g>
		<g>
			<path fill="#FFFFFF" d="M508.7,504.93l1.867-1.085l3.838,6.609c0.317-0.984,0.877-1.708,1.68-2.174
				c0.914-0.53,1.816-0.659,2.708-0.384c0.765,0.245,1.474,0.931,2.13,2.061l2.878,4.957l-1.868,1.085l-2.777-4.783
				c-0.376-0.647-0.764-1.051-1.161-1.208c-0.399-0.157-0.853-0.087-1.362,0.209c-0.653,0.379-0.996,0.847-1.026,1.406
				c-0.023,0.561,0.256,1.339,0.834,2.335l2.271,3.911l-1.868,1.085L508.7,504.93z"/>
		</g>
		<g>
			<path fill="#FFFFFF" d="M527.432,501.991l1.877-1.09l4.696,8.088l-1.876,1.09l-0.493-0.847c-0.352,1.166-0.97,2.006-1.855,2.521
				c-1.118,0.649-2.277,0.783-3.478,0.397c-1.204-0.403-2.164-1.223-2.881-2.457c-0.705-1.213-0.928-2.433-0.673-3.663
				c0.256-1.229,0.929-2.16,2.019-2.793c0.942-0.546,2.011-0.649,3.208-0.307L527.432,501.991z M525.333,508.585
				c0.45,0.775,1.024,1.285,1.722,1.531c0.712,0.246,1.392,0.18,2.04-0.196c0.692-0.401,1.113-0.965,1.263-1.689
				c0.14-0.739-0.009-1.489-0.451-2.248c-0.44-0.758-1.016-1.26-1.729-1.505c-0.706-0.234-1.398-0.153-2.08,0.242
				c-0.642,0.373-1.038,0.928-1.187,1.666C524.771,507.126,524.911,507.858,525.333,508.585z"/>
		</g>
		<g>
			<path fill="#FFFFFF" d="M538.164,496.226l1.441,2.482c-0.728-0.273-1.317-0.408-1.768-0.405
				c-0.448-0.007-0.896,0.121-1.344,0.381c-0.703,0.408-1.144,0.993-1.323,1.755c-0.179,0.764-0.053,1.516,0.377,2.257
				c0.441,0.758,1.026,1.251,1.758,1.478c0.737,0.224,1.456,0.132,2.159-0.277c0.448-0.26,0.788-0.588,1.019-0.98
				c0.222-0.381,0.401-0.973,0.534-1.776l1.432,2.465c-0.531,0.834-1.175,1.471-1.933,1.911c-1.251,0.726-2.532,0.931-3.843,0.609
				c-1.314-0.325-2.321-1.091-3.022-2.298c-0.701-1.207-0.866-2.472-0.496-3.797c0.371-1.326,1.175-2.348,2.415-3.068
				C536.37,496.502,537.234,496.255,538.164,496.226z"/>
		</g>
		<g>
			<path fill="#FFFFFF" d="M538.193,487.805l4.966,8.552l1.113-4.143l2.508-1.457l-1.541,5.436l6.494,2.503l-2.425,1.408
				l-4.656-1.861l-0.125,0.472l1.808,3.115l-1.868,1.085l-8.143-14.024L538.193,487.805z"/>
		</g>
		<g>
			<path fill="#FFFFFF" d="M554.203,486.448l1.876-1.09l4.697,8.087l-1.877,1.09l-0.493-0.846c-0.351,1.166-0.97,2.006-1.855,2.521
				c-1.118,0.649-2.277,0.783-3.478,0.397c-1.203-0.403-2.164-1.223-2.881-2.457c-0.705-1.213-0.928-2.433-0.672-3.663
				c0.256-1.229,0.929-2.161,2.019-2.793c0.941-0.546,2.01-0.649,3.207-0.308L554.203,486.448z M552.103,493.041
				c0.451,0.775,1.024,1.285,1.722,1.531c0.712,0.246,1.393,0.18,2.04-0.196c0.692-0.401,1.113-0.964,1.263-1.688
				c0.141-0.739-0.009-1.489-0.451-2.248c-0.44-0.758-1.016-1.26-1.729-1.505c-0.705-0.234-1.398-0.153-2.08,0.242
				c-0.642,0.373-1.038,0.928-1.186,1.666C551.542,491.583,551.682,492.315,552.103,493.041z"/>
		</g>
		<g>
			<path fill="#FFFFFF" d="M561.376,484.614l3.684,6.345l-1.867,1.084l-3.684-6.344l-0.797,0.463l-1.013-1.744l0.797-0.462
				l-1.721-2.965l1.868-1.084l1.721,2.964l1.453-0.844l1.013,1.744L561.376,484.614z"/>
		</g>
		<g>
			<path fill="#FFFFFF" d="M559.641,475.352l1.867-1.085l3.838,6.609c0.317-0.984,0.877-1.708,1.68-2.174
				c0.914-0.531,1.816-0.659,2.708-0.384c0.764,0.245,1.473,0.931,2.129,2.061l2.878,4.957l-1.868,1.085l-2.777-4.783
				c-0.376-0.647-0.764-1.05-1.161-1.207c-0.399-0.157-0.853-0.087-1.362,0.209c-0.653,0.379-0.995,0.846-1.026,1.406
				c-0.022,0.56,0.256,1.339,0.834,2.335l2.271,3.911l-1.868,1.085L559.641,475.352z"/>
		</g>
		<g>
			<path fill="#FFFFFF" d="M574.345,480.082c-0.679-1.168-0.837-2.404-0.478-3.709c0.361-1.303,1.141-2.306,2.343-3.002
				c1.207-0.701,2.47-0.883,3.79-0.547c1.309,0.343,2.313,1.115,3.01,2.316c0.704,1.213,0.875,2.472,0.515,3.776
				c-0.369,1.302-1.164,2.308-2.388,3.018c-1.213,0.705-2.469,0.879-3.771,0.524C576.072,482.114,575.064,481.322,574.345,480.082z
				 M576.274,479.006c0.469,0.808,1.056,1.322,1.762,1.542c0.719,0.219,1.44,0.118,2.166-0.302c0.73-0.425,1.178-0.998,1.343-1.723
				c0.164-0.724,0.017-1.479-0.44-2.267c-0.456-0.786-1.04-1.287-1.75-1.504c-0.719-0.217-1.441-0.117-2.166,0.305
				c-0.715,0.415-1.155,0.988-1.321,1.72C575.701,477.511,575.837,478.253,576.274,479.006z"/>
		</g>
		<g>
			<path fill="#FFFFFF" d="M582.634,469.939l1.877-1.09l0.433,0.747c0.277-1.027,0.825-1.778,1.645-2.253
				c0.942-0.546,1.846-0.677,2.716-0.389c0.747,0.239,1.451,0.93,2.113,2.071l2.878,4.957l-1.877,1.09l-2.623-4.518
				c-0.463-0.797-0.893-1.284-1.292-1.46c-0.396-0.185-0.878-0.111-1.449,0.219c-0.62,0.36-0.942,0.821-0.963,1.382
				c-0.02,0.551,0.263,1.331,0.847,2.338l2.267,3.903l-1.877,1.09L582.634,469.939z"/>
		</g>
		<g>
			<path fill="#FFFFFF" d="M603.927,465.959l4.774-2.772l1.057,1.819l-8.611,4.999l1.322-7.973c0.125-0.791,0.222-1.469,0.29-2.034
				c0.068-0.564,0.102-1.025,0.103-1.381c0.013-0.703-0.101-1.262-0.341-1.677c-0.347-0.598-0.848-0.977-1.503-1.137
				c-0.656-0.16-1.293-0.059-1.913,0.301c-1.295,0.752-1.592,1.949-0.89,3.592l-1.927,1.119c-1.259-2.882-0.678-5.026,1.74-6.43
				c1.168-0.678,2.364-0.875,3.586-0.594c1.228,0.279,2.16,0.966,2.796,2.062c0.405,0.698,0.617,1.489,0.635,2.375
				c0.013,0.458-0.021,1.031-0.105,1.72c-0.085,0.691-0.215,1.522-0.389,2.496L603.927,465.959z"/>
		</g>
		<g>
			<path fill="#FFFFFF" d="M608.171,457.244c-1.186-2.043-1.656-3.949-1.412-5.72c0.213-1.595,0.925-2.747,2.138-3.451
				c1.212-0.704,2.564-0.751,4.057-0.145c1.659,0.666,3.097,2.046,4.316,4.144c1.214,2.093,1.7,4.025,1.455,5.795
				c-0.214,1.596-0.923,2.745-2.129,3.446c-1.207,0.701-2.562,0.751-4.065,0.15C610.871,460.798,609.418,459.391,608.171,457.244z
				 M610.078,456.148c0.826,1.423,1.758,2.461,2.797,3.116c1.03,0.639,1.926,0.736,2.69,0.292c0.758-0.44,1.118-1.267,1.08-2.481
				c-0.036-1.208-0.46-2.513-1.273-3.913c-0.813-1.401-1.737-2.419-2.772-3.054c-1.032-0.629-1.927-0.724-2.684-0.284
				c-0.753,0.437-1.112,1.26-1.077,2.468C608.871,453.496,609.283,454.782,610.078,456.148z"/>
		</g>
		<g>
			<path fill="#FFFFFF" d="M619.93,444.377l-2.217,1.287l0.012-2.426l3.089-1.793l7.443,12.821l-1.935,1.123L619.93,444.377z"/>
		</g>
		<g>
			<path fill="#FFFFFF" d="M631.294,443.586c-1.327-0.118-2.323-0.75-2.988-1.896c-0.604-1.041-0.752-2.118-0.442-3.229
				c0.314-1.116,1.005-1.984,2.074-2.605c1.062-0.617,2.151-0.782,3.265-0.495c1.11,0.28,1.97,0.946,2.581,1.998
				c0.639,1.101,0.694,2.274,0.164,3.514c0.675-0.023,1.314,0.147,1.916,0.507c0.607,0.359,1.104,0.869,1.49,1.533
				c0.659,1.135,0.828,2.281,0.507,3.436c-0.32,1.157-1.059,2.07-2.217,2.742c-1.185,0.687-2.373,0.889-3.567,0.606
				c-1.2-0.281-2.12-0.974-2.763-2.082C630.478,446.176,630.471,444.833,631.294,443.586z M630.12,440.625
				c0.318,0.547,0.77,0.899,1.356,1.055c0.595,0.157,1.159,0.083,1.691-0.226c0.526-0.305,0.867-0.755,1.025-1.35
				c0.158-0.595,0.085-1.155-0.221-1.682c-0.306-0.525-0.756-0.867-1.351-1.026c-0.595-0.157-1.155-0.083-1.681,0.221
				c-0.526,0.306-0.867,0.756-1.026,1.351C629.755,439.564,629.824,440.116,630.12,440.625z M633.177,446.444
				c0.344,0.592,0.845,0.984,1.502,1.171c0.659,0.179,1.285,0.097,1.878-0.247c0.586-0.341,0.966-0.839,1.141-1.495
				c0.171-0.663,0.086-1.286-0.255-1.873c-0.344-0.592-0.844-0.975-1.5-1.15c-0.656-0.174-1.277-0.09-1.864,0.25
				c-0.581,0.337-0.962,0.836-1.141,1.495C632.762,445.253,632.843,445.869,633.177,446.444z"/>
		</g>
	</g>
	<g>
		<g>
			<path fill="#FFFFFF" d="M434.729,560.004c-0.084-0.142-0.168-0.283-0.251-0.426c-0.082-0.143-0.162-0.287-0.205-0.448
				c-0.034-0.126-0.108-0.234-0.166-0.349c-0.042-0.083-0.091-0.163-0.096-0.26c-0.001-0.021-0.006-0.043-0.015-0.062
				c-0.084-0.166-0.148-0.338-0.202-0.517c-0.05-0.163-0.094-0.328-0.142-0.492c-0.066-0.225-0.116-0.456-0.161-0.687
				c-0.064-0.328-0.111-0.658-0.142-0.991c-0.04-0.429-0.05-0.857-0.041-1.288c0.006-0.328,0.052-0.651,0.082-0.977
				c0.027-0.29,0.109-0.57,0.155-0.856c0.06-0.369,0.175-0.72,0.283-1.075c0.168-0.55,0.396-1.076,0.662-1.584
				c0.175-0.333,0.372-0.656,0.576-0.973c0.114-0.176,0.233-0.353,0.368-0.513c0.132-0.156,0.236-0.336,0.397-0.467
				c0.057-0.047,0.066-0.127,0.131-0.167c0.055-0.034,0.091-0.086,0.127-0.142c0.058-0.09,0.156-0.142,0.228-0.224
				c0.116-0.134,0.253-0.25,0.387-0.367c0.156-0.136,0.324-0.259,0.477-0.399c0.144-0.131,0.304-0.238,0.461-0.351
				c0.338-0.242,0.68-0.479,1.051-0.666c0.472-0.239,0.949-0.468,1.45-0.644c0.188-0.066,0.377-0.133,0.568-0.188
				c0.155-0.044,0.305-0.122,0.473-0.12c0.114-0.069,0.253-0.04,0.37-0.095c0.092-0.044,0.194-0.031,0.291-0.054
				c0.211-0.049,0.429-0.073,0.645-0.094c0.409-0.04,0.82-0.062,1.231-0.058c0.411,0.004,0.819,0.052,1.228,0.091
				c0.407,0.039,0.796,0.163,1.199,0.216c0.063,0.008,0.124,0.033,0.185,0.053c0.135,0.044,0.266,0.1,0.403,0.132
				c0.343,0.079,0.661,0.22,0.981,0.36c0.252,0.11,0.506,0.217,0.749,0.345c0.262,0.138,0.515,0.294,0.767,0.452
				c0.338,0.212,0.66,0.448,0.963,0.705c0.172,0.146,0.364,0.273,0.502,0.457c0.146,0.07,0.201,0.24,0.345,0.315
				c0.035,0.018,0.058,0.062,0.083,0.097c0.051,0.07,0.1,0.138,0.172,0.189c0.039,0.028,0.071,0.07,0.1,0.11
				c0.062,0.088,0.119,0.176,0.211,0.24c0.045,0.031,0.075,0.086,0.106,0.133c0.094,0.144,0.186,0.289,0.301,0.418
				c0.125,0.14,0.22,0.3,0.315,0.46c0.113,0.191,0.226,0.383,0.338,0.574c0.094,0.161,0.189,0.321,0.249,0.499
				c0.051,0.15,0.127,0.288,0.2,0.427c0.043,0.082,0.094,0.162,0.093,0.26c0,0.014,0.003,0.029,0.009,0.042
				c0.081,0.159,0.138,0.326,0.186,0.498c0.026,0.095,0.07,0.182,0.086,0.284c0.018,0.117,0.066,0.231,0.097,0.348
				c0.09,0.336,0.155,0.675,0.209,1.019c0.076,0.485,0.112,0.97,0.118,1.461c0.004,0.255-0.027,0.508-0.012,0.762
				c-0.074,0.512-0.106,1.031-0.238,1.535c-0.038,0.144-0.055,0.294-0.096,0.437c-0.067,0.234-0.148,0.463-0.217,0.696
				c-0.076,0.259-0.196,0.501-0.295,0.75c-0.235,0.589-0.558,1.133-0.894,1.668c-0.174,0.186-0.28,0.422-0.458,0.607
				c-0.066,0.069-0.119,0.156-0.184,0.23c-0.144,0.165-0.272,0.346-0.431,0.495c-0.119,0.112-0.212,0.253-0.356,0.338
				c-0.278,0.311-0.623,0.545-0.936,0.816c-0.011,0.009-0.022,0.018-0.034,0.026c-0.412,0.273-0.803,0.579-1.25,0.793
				c-0.335,0.16-0.658,0.345-1.009,0.475c-0.214,0.079-0.429,0.16-0.641,0.245c-0.138,0.055-0.286,0.086-0.428,0.133
				c-0.175,0.057-0.354,0.109-0.535,0.138c-0.215,0.034-0.422,0.117-0.644,0.113c-0.43,0.097-0.868,0.127-1.306,0.141
				c-0.418,0.013-0.838,0.02-1.255-0.042c-0.195-0.029-0.395-0.034-0.59-0.064c-0.238-0.037-0.473-0.097-0.711-0.134
				c-0.453-0.07-0.876-0.243-1.312-0.369c-0.231-0.066-0.446-0.184-0.671-0.274c-0.33-0.132-0.642-0.3-0.951-0.473
				c-0.382-0.213-0.744-0.459-1.096-0.719c-0.195-0.144-0.38-0.302-0.562-0.463c-0.177-0.155-0.339-0.326-0.511-0.485
				c-0.125-0.117-0.218-0.265-0.362-0.362c-0.028-0.019-0.048-0.053-0.068-0.082c-0.077-0.112-0.152-0.223-0.262-0.31
				c-0.059-0.047-0.096-0.124-0.137-0.191c-0.08-0.128-0.169-0.248-0.272-0.359c-0.049-0.052-0.092-0.11-0.129-0.17
				c-0.112-0.184-0.219-0.37-0.328-0.555C434.732,560.002,434.73,560.003,434.729,560.004z M441.498,555.867
				c0.194-0.157,0.371-0.327,0.572-0.46c0.406-0.267,0.817-0.532,1.273-0.71c0.188-0.073,0.354-0.193,0.541-0.26
				c0.34-0.122,0.646-0.305,0.955-0.486c0.167-0.098,0.332-0.197,0.465-0.342c0.033-0.036,0.076-0.067,0.12-0.09
				c0.169-0.089,0.258-0.266,0.414-0.369c0.204-0.278,0.423-0.545,0.54-0.88c0.167-0.478,0.171-0.947-0.036-1.412
				c-0.079-0.177-0.18-0.342-0.293-0.5c-0.183-0.255-0.422-0.443-0.705-0.57c-0.314-0.141-0.643-0.207-0.99-0.209
				c-0.3-0.001-0.59,0.03-0.872,0.133c-0.019,0.007-0.042,0.011-0.063,0.008c-0.069-0.008-0.125,0.026-0.182,0.055
				c-0.28,0.145-0.55,0.307-0.813,0.481c-0.042,0.028-0.089,0.051-0.11,0.099c-0.031,0.071-0.093,0.106-0.151,0.148
				c-0.029,0.021-0.064,0.039-0.083,0.067c-0.115,0.17-0.263,0.312-0.382,0.48c-0.203,0.287-0.371,0.593-0.487,0.92
				c-0.205,0.579-0.297,1.179-0.276,1.796c0.013,0.38,0.073,0.753,0.166,1.119c0.034,0.137,0.054,0.281,0.126,0.409
				c0.042,0.075,0.065,0.156,0.085,0.241C441.34,555.659,441.391,555.777,441.498,555.867z M442.689,555.797
				c-0.093,0.055-0.183,0.113-0.278,0.163c-0.104,0.054-0.18,0.14-0.259,0.222c-0.025,0.025-0.058,0.041-0.087,0.063
				c-0.102,0.077-0.226,0.124-0.296,0.242c-0.066,0.11-0.221,0.14-0.258,0.279c-0.162,0.181-0.281,0.387-0.386,0.606
				c-0.235,0.487-0.22,0.979-0.029,1.464c0.124,0.313,0.338,0.566,0.615,0.774c0.34,0.255,0.721,0.371,1.13,0.385
				c0.365,0.012,0.734-0.009,1.073-0.18c0.037-0.019,0.083-0.021,0.124-0.032c0.041-0.011,0.084-0.02,0.122-0.038
				c0.371-0.172,0.723-0.448,1.019-0.765c0.121-0.13,0.232-0.263,0.339-0.404c0.28-0.37,0.455-0.785,0.591-1.223
				c0.061-0.198,0.079-0.404,0.119-0.606c0.036-0.182,0.045-0.367,0.045-0.55c-0.001-0.364-0.035-0.725-0.109-1.083
				c-0.02-0.1-0.068-0.188-0.084-0.287c-0.034-0.213-0.132-0.405-0.199-0.607c-0.013-0.04-0.038-0.077-0.061-0.114
				c-0.034-0.055-0.06-0.058-0.12-0.014c-0.143,0.107-0.293,0.205-0.42,0.333c-0.05,0.05-0.112,0.089-0.173,0.125
				c-0.271,0.161-0.543,0.32-0.816,0.477c-0.074,0.042-0.153,0.079-0.235,0.104c-0.124,0.039-0.239,0.095-0.352,0.157
				c-0.12,0.065-0.236,0.14-0.363,0.184C443.109,555.552,442.897,555.67,442.689,555.797z"/>
		</g>
		<g>
			<path fill="#FFFFFF" d="M482.569,533.663c0.702,1.192,1.405,2.384,2.107,3.576c0.053,0.09,0.109,0.178,0.157,0.271
				c0.079,0.152,0.058,0.224-0.092,0.326c-0.076,0.051-0.156,0.095-0.235,0.142c-0.562,0.331-1.123,0.665-1.687,0.993
				c-0.537,0.313-0.433,0.341-0.746-0.178c-0.067-0.112-0.132-0.225-0.2-0.337c-0.02-0.033-0.041-0.069-0.071-0.092
				c-0.029-0.022-0.069-0.032-0.101,0.007c-0.052,0.063-0.073,0.138-0.083,0.216c-0.068,0.513-0.295,0.966-0.586,1.377
				c-0.144,0.204-0.287,0.435-0.531,0.558c-0.057,0.029-0.107,0.076-0.15,0.124c-0.276,0.314-0.612,0.52-1.025,0.601
				c-0.05,0.01-0.099,0.033-0.145,0.058c-0.399,0.213-0.834,0.241-1.274,0.273c-0.511,0.037-1.005-0.036-1.491-0.172
				c-0.423-0.118-0.823-0.298-1.192-0.539c-0.151-0.099-0.297-0.205-0.444-0.309c-0.22-0.157-0.43-0.328-0.598-0.543
				c-0.056-0.072-0.102-0.156-0.17-0.214c-0.4-0.341-0.597-0.818-0.853-1.255c-0.045-0.076-0.058-0.171-0.085-0.258
				c-0.027-0.087-0.043-0.18-0.083-0.26c-0.201-0.402-0.252-0.837-0.297-1.275c-0.077-0.736,0.025-1.45,0.289-2.135
				c0.163-0.421,0.402-0.804,0.665-1.177c0.191-0.271,0.497-0.416,0.667-0.697c0.389-0.23,0.731-0.553,1.207-0.611
				c0.038-0.005,0.076-0.021,0.111-0.036c0.491-0.221,1.004-0.223,1.523-0.156c0.206,0.027,0.413,0.061,0.606,0.143
				c0.087,0.037,0.174,0.052,0.266,0.044c0.048-0.004,0.065-0.049,0.051-0.082c-0.036-0.084-0.081-0.163-0.126-0.242
				c-0.103-0.181-0.21-0.361-0.313-0.542c-0.046-0.081-0.024-0.149,0.053-0.199c0.131-0.086,0.258-0.177,0.393-0.258
				c0.505-0.3,1.01-0.6,1.519-0.894c0.146-0.085,0.301-0.156,0.455-0.226c0.079-0.036,0.153-0.012,0.201,0.067
				c0.054,0.089,0.108,0.179,0.161,0.268C481.138,531.233,481.854,532.448,482.569,533.663z M476.036,537.483
				c0.204,0.377,0.506,0.651,0.864,0.872c0.554,0.342,1.135,0.48,1.771,0.263c0.049-0.017,0.101-0.031,0.152-0.034
				c0.163-0.012,0.294-0.096,0.433-0.169c0.25-0.132,0.37-0.401,0.598-0.556c0.291-0.471,0.47-0.968,0.427-1.537
				c-0.018-0.237-0.1-0.451-0.151-0.677c-0.047-0.209-0.128-0.402-0.256-0.566c-0.297-0.381-0.642-0.717-1.09-0.913
				c-0.698-0.305-1.387-0.28-2.05,0.115c-0.202,0.12-0.368,0.269-0.522,0.455c-0.143,0.173-0.267,0.347-0.348,0.551
				C475.564,536.046,475.65,536.777,476.036,537.483z"/>
		</g>
		<g>
			<path fill="#FFFFFF" d="M497.71,524.422c0.729,1.238,1.459,2.476,2.188,3.714c0.148,0.251,0.22,0.288-0.114,0.484
				c-0.676,0.397-1.351,0.795-2.026,1.193c-0.022,0.013-0.045,0.027-0.068,0.039c-0.178,0.092-0.214,0.085-0.316-0.078
				c-0.097-0.155-0.186-0.315-0.28-0.472c-0.033-0.056-0.065-0.114-0.105-0.165c-0.021-0.027-0.058-0.05-0.091-0.056
				c-0.053-0.009-0.062,0.043-0.064,0.078c-0.015,0.209-0.062,0.408-0.129,0.608c-0.128,0.383-0.317,0.722-0.579,1.034
				c-0.137,0.163-0.28,0.301-0.448,0.422c-0.032,0.023-0.067,0.045-0.089,0.076c-0.231,0.322-0.58,0.497-0.922,0.639
				c-0.366,0.152-0.745,0.322-1.15,0.338c-0.752,0.03-1.464-0.095-2.075-0.596c-0.174-0.143-0.336-0.283-0.455-0.473
				c-0.034-0.055-0.069-0.116-0.12-0.154c-0.239-0.178-0.376-0.432-0.522-0.678c-0.978-1.652-1.954-3.306-2.929-4.96
				c-0.18-0.305-0.177-0.311,0.111-0.482c0.651-0.387,1.305-0.77,1.958-1.155c0.045-0.027,0.089-0.054,0.136-0.077
				c0.141-0.069,0.219-0.054,0.304,0.067c0.06,0.085,0.11,0.177,0.163,0.267c0.677,1.148,1.352,2.296,2.03,3.443
				c0.16,0.27,0.325,0.536,0.496,0.799c0.205,0.314,0.602,0.612,0.946,0.777c0.151,0.073,0.314,0.105,0.452,0.079
				c0.429-0.081,0.884-0.133,1.152-0.557c0.076-0.12,0.211-0.178,0.285-0.313c0.201-0.365,0.22-0.747,0.146-1.137
				c-0.073-0.385-0.214-0.744-0.419-1.086c-0.739-1.232-1.462-2.474-2.19-3.713c-0.298-0.506-0.302-0.433,0.185-0.723
				c0.584-0.347,1.17-0.691,1.756-1.034c0.09-0.053,0.182-0.102,0.277-0.146c0.066-0.03,0.131-0.008,0.171,0.051
				c0.066,0.097,0.128,0.197,0.187,0.299C496.278,521.991,496.994,523.207,497.71,524.422z"/>
		</g>
		<g>
			<path fill="#FFFFFF" d="M461.57,547.441c0.337-0.199,0.675-0.397,1.012-0.597c0.156-0.092,0.214-0.128,0.357,0.054
				c0.229,0.291,0.539,0.438,0.914,0.381c0.376-0.057,0.737-0.163,1.048-0.4c0.18-0.136,0.304-0.321,0.436-0.494
				c0.102-0.133,0.119-0.305,0.045-0.482c-0.147-0.352-0.342-0.496-0.722-0.467c-0.246,0.019-0.492,0.056-0.733,0.109
				c-0.531,0.116-1.055,0.276-1.59,0.366c-0.505,0.085-1.003,0.229-1.524,0.218c-0.418-0.009-0.819-0.062-1.192-0.265
				c-0.241-0.131-0.472-0.271-0.617-0.517c-0.033-0.056-0.075-0.108-0.123-0.152c-0.139-0.126-0.231-0.278-0.276-0.461
				c-0.019-0.075-0.052-0.148-0.087-0.218c-0.372-0.753-0.249-1.485,0.121-2.189c0.141-0.269,0.3-0.544,0.56-0.73
				c0.104-0.227,0.316-0.338,0.508-0.471c0.053-0.037,0.104-0.08,0.148-0.127c0.417-0.453,0.984-0.675,1.501-0.972
				c0.21-0.025,0.407-0.089,0.586-0.2c0.173-0.107,0.39-0.038,0.562-0.147c0.604-0.069,1.204-0.116,1.79,0.127
				c0.44,0.182,0.825,0.429,1.122,0.804c0.073,0.092,0.152,0.179,0.222,0.274c0.12,0.164,0.106,0.224-0.075,0.342
				c-0.044,0.029-0.089,0.054-0.134,0.08c-0.596,0.351-1.192,0.703-1.789,1.054c-0.068,0.04-0.134,0.083-0.204,0.116
				c-0.112,0.053-0.196,0.034-0.278-0.06c-0.051-0.059-0.09-0.129-0.143-0.186c-0.154-0.163-0.336-0.285-0.565-0.295
				c-0.391-0.018-0.754,0.069-1.025,0.375c-0.127,0.144-0.291,0.254-0.355,0.457c-0.131,0.412,0.135,0.882,0.564,0.934
				c0.191,0.023,0.394,0.017,0.583-0.018c0.486-0.091,0.967-0.208,1.451-0.313c0.605-0.131,1.198-0.323,1.821-0.36
				c0.468-0.027,0.929-0.01,1.357,0.23c0.172,0.096,0.341,0.2,0.466,0.344c0.272,0.314,0.506,0.647,0.668,1.047
				c0.328,0.81,0.206,1.571-0.126,2.331c-0.108,0.247-0.41,0.644-0.617,0.833c-0.124,0.113-0.182,0.282-0.342,0.368
				c-0.137,0.073-0.283,0.156-0.381,0.271c-0.245,0.287-0.573,0.448-0.886,0.634c-0.146,0.086-0.296,0.162-0.463,0.206
				c-0.125,0.033-0.256,0.075-0.362,0.146c-0.28,0.186-0.609,0.236-0.919,0.309c-0.255,0.06-0.527,0.105-0.802,0.097
				c-0.378-0.011-0.754-0.05-1.101-0.189c-0.369-0.147-0.739-0.315-0.991-0.651c-0.243-0.127-0.367-0.358-0.505-0.577
				c-0.021-0.033-0.041-0.067-0.058-0.102c-0.052-0.105-0.04-0.159,0.069-0.227c0.211-0.13,0.426-0.255,0.639-0.381
				C461.277,547.613,461.423,547.527,461.57,547.441C461.57,547.441,461.57,547.441,461.57,547.441z"/>
		</g>
		<g>
			<path fill="#FFFFFF" d="M503.669,518.774c-0.304,0.179-0.607,0.358-0.911,0.536c-0.079,0.046-0.159,0.091-0.241,0.13
				c-0.066,0.031-0.128,0.014-0.172-0.045c-0.078-0.103-0.145-0.213-0.249-0.299c-0.466-0.382-1.094-0.251-1.5,0.105
				c-0.097,0.086-0.186,0.183-0.266,0.286c-0.283,0.363-0.257,0.88,0.277,1.129c0.045,0.021,0.1,0.028,0.15,0.029
				c0.234,0.005,0.467,0.009,0.699-0.042c0.482-0.105,0.967-0.199,1.446-0.322c0.337-0.087,0.676-0.188,1.018-0.243
				c0.491-0.079,0.986-0.149,1.491-0.051c0.421,0.082,0.769,0.281,1.091,0.543c0.049,0.04,0.082,0.101,0.116,0.157
				c0.124,0.2,0.247,0.4,0.367,0.602c0.388,0.653,0.391,1.346,0.217,2.059c-0.116,0.476-0.406,0.857-0.669,1.253
				c-0.251,0.183-0.393,0.483-0.686,0.623c-0.08,0.038-0.152,0.102-0.216,0.166c-0.396,0.394-0.869,0.659-1.393,0.841
				c-0.111,0.038-0.221,0.082-0.325,0.136c-0.625,0.324-1.299,0.413-1.988,0.381c-0.5-0.023-0.967-0.177-1.385-0.466
				c-0.38-0.263-0.699-0.581-0.921-0.989c-0.083-0.153-0.069-0.227,0.09-0.321c0.662-0.394,1.326-0.784,1.99-1.174
				c0.022-0.013,0.045-0.027,0.069-0.037c0.151-0.065,0.239-0.056,0.337,0.089c0.187,0.277,0.453,0.376,0.767,0.368
				c0.45-0.011,1.13-0.25,1.409-0.641c0.13-0.182,0.274-0.339,0.283-0.576c0.008-0.213-0.189-0.5-0.388-0.571
				c-0.191-0.068-0.386-0.077-0.577-0.041c-0.37,0.07-0.735,0.167-1.105,0.235c-0.407,0.074-0.802,0.207-1.217,0.247
				c-0.191,0.019-0.375,0.088-0.568,0.118c-0.431,0.067-0.895,0.091-1.3,0.036c-0.605-0.083-1.07-0.399-1.414-0.88
				c-0.423-0.589-0.632-1.245-0.528-1.984c0.063-0.449,0.256-0.839,0.508-1.202c0.153-0.221,0.335-0.422,0.512-0.625
				c0.059-0.067,0.142-0.114,0.215-0.167c0.125-0.092,0.26-0.165,0.342-0.312c0.041-0.073,0.135-0.12,0.212-0.167
				c0.266-0.165,0.534-0.328,0.804-0.487c0.191-0.113,0.38-0.228,0.61-0.252c0.063-0.006,0.126-0.036,0.182-0.067
				c0.314-0.168,0.652-0.226,1.002-0.267c0.231-0.028,0.456-0.045,0.689-0.043c0.568,0.005,1.073,0.191,1.521,0.51
				c0.303,0.216,0.586,0.474,0.748,0.829c0.049,0.108,0.04,0.155-0.064,0.228c-0.021,0.015-0.044,0.028-0.066,0.042
				C504.344,518.376,504.006,518.575,503.669,518.774C503.669,518.774,503.669,518.774,503.669,518.774z"/>
		</g>
		<g>
			<path fill="#FFFFFF" d="M484.205,532.517c-0.345-0.585-0.689-1.17-1.034-1.754c-0.046-0.079-0.091-0.159-0.142-0.234
				c-0.085-0.125-0.166-0.151-0.3-0.08c-0.207,0.111-0.407,0.235-0.611,0.352c-0.09,0.052-0.18,0.108-0.275,0.15
				c-0.135,0.059-0.218,0.033-0.297-0.093c-0.111-0.177-0.214-0.359-0.32-0.538c-0.179-0.304-0.361-0.606-0.535-0.912
				c-0.102-0.179-0.087-0.235,0.093-0.348c0.21-0.131,0.427-0.253,0.64-0.38c0.078-0.047,0.156-0.095,0.233-0.144
				c0.079-0.051,0.089-0.131,0.06-0.206c-0.038-0.096-0.092-0.187-0.144-0.277c-0.337-0.574-0.677-1.147-1.013-1.722
				c-0.195-0.334-0.193-0.337,0.139-0.534c0.607-0.359,1.214-0.716,1.822-1.074c0.067-0.04,0.135-0.081,0.206-0.112
				c0.066-0.029,0.135-0.011,0.178,0.042c0.065,0.081,0.121,0.17,0.174,0.259c0.333,0.562,0.664,1.124,0.995,1.687
				c0.257,0.437,0.239,0.375,0.616,0.157c0.35-0.203,0.697-0.411,1.047-0.615c0.09-0.052,0.182-0.102,0.277-0.144
				c0.065-0.028,0.128-0.012,0.171,0.05c0.023,0.032,0.045,0.064,0.065,0.098c0.279,0.472,0.558,0.944,0.834,1.418
				c0.093,0.16,0.08,0.228-0.055,0.333c-0.072,0.056-0.152,0.102-0.23,0.148c-0.337,0.2-0.675,0.398-1.012,0.597
				c-0.078,0.047-0.156,0.095-0.231,0.147c-0.074,0.051-0.091,0.126-0.059,0.206c0.024,0.06,0.058,0.117,0.091,0.173
				c0.531,0.899,1.065,1.797,1.591,2.699c0.134,0.229,0.308,0.417,0.5,0.597c0.109,0.103,0.238,0.164,0.37,0.209
				c0.131,0.044,0.264,0.051,0.416,0.008c0.423-0.119,0.804-0.303,1.141-0.582c0.03-0.025,0.062-0.047,0.095-0.068
				c0.099-0.062,0.174-0.052,0.237,0.033c0.031,0.042,0.057,0.088,0.083,0.133c0.279,0.472,0.557,0.945,0.835,1.417
				c0.033,0.056,0.066,0.113,0.092,0.172c0.048,0.108,0.038,0.171-0.061,0.235c-0.567,0.369-1.049,0.862-1.671,1.152
				c-0.141,0.066-0.27,0.154-0.432,0.174c-0.088,0.011-0.173,0.055-0.255,0.093c-0.852,0.399-1.647,0.314-2.404-0.25
				c-0.392-0.292-0.717-0.632-0.962-1.054c-0.315-0.542-0.635-1.08-0.954-1.62C484.207,532.515,484.206,532.516,484.205,532.517z"/>
		</g>
		<g>
			<path fill="#FFFFFF" d="M468.383,541.811c-0.338-0.573-0.676-1.147-1.014-1.72c-0.053-0.09-0.104-0.181-0.164-0.266
				c-0.07-0.098-0.162-0.122-0.274-0.067c-0.105,0.051-0.205,0.114-0.307,0.173c-0.181,0.104-0.358,0.216-0.543,0.312
				c-0.178,0.092-0.258,0.07-0.357-0.094c-0.282-0.47-0.561-0.942-0.835-1.416c-0.115-0.199-0.1-0.244,0.109-0.372
				c0.245-0.15,0.495-0.29,0.741-0.44c0.216-0.131,0.23-0.182,0.108-0.408c-0.093-0.172-0.197-0.338-0.296-0.507
				c-0.258-0.439-0.517-0.877-0.775-1.316c-0.053-0.09-0.102-0.182-0.144-0.277c-0.029-0.065-0.011-0.128,0.051-0.171
				c0.032-0.022,0.064-0.045,0.098-0.064c0.674-0.398,1.348-0.797,2.024-1.192c0.175-0.102,0.244-0.085,0.358,0.077
				c0.052,0.074,0.096,0.155,0.142,0.234c0.305,0.517,0.61,1.034,0.914,1.552c0.046,0.079,0.09,0.159,0.141,0.235
				c0.12,0.179,0.166,0.193,0.348,0.088c0.395-0.229,0.788-0.461,1.181-0.694c0.459-0.272,0.419-0.232,0.648,0.155
				c0.24,0.404,0.479,0.808,0.715,1.215c0.117,0.202,0.108,0.247-0.076,0.388c-0.082,0.063-0.173,0.116-0.263,0.169
				c-0.314,0.187-0.63,0.371-0.944,0.557c-0.078,0.047-0.156,0.095-0.231,0.147c-0.075,0.053-0.083,0.132-0.052,0.21
				c0.029,0.072,0.071,0.139,0.111,0.207c0.503,0.855,1.011,1.707,1.509,2.564c0.16,0.275,0.357,0.511,0.598,0.716
				c0.233,0.198,0.479,0.262,0.788,0.175c0.411-0.115,0.776-0.3,1.104-0.567c0.04-0.033,0.084-0.063,0.131-0.084
				c0.064-0.028,0.13-0.018,0.177,0.037c0.042,0.049,0.078,0.104,0.111,0.16c0.279,0.472,0.557,0.944,0.835,1.417
				c0.026,0.045,0.053,0.09,0.074,0.138c0.053,0.123,0.037,0.192-0.069,0.27c-0.073,0.054-0.153,0.1-0.227,0.153
				c-0.106,0.076-0.219,0.145-0.311,0.236c-0.368,0.364-0.833,0.579-1.272,0.834c-0.066,0.038-0.145,0.057-0.221,0.072
				c-0.117,0.023-0.223,0.07-0.329,0.12c-0.838,0.393-1.629,0.3-2.37-0.245c-0.38-0.279-0.707-0.61-0.946-1.023
				c-0.328-0.564-0.662-1.125-0.993-1.687C468.387,541.809,468.385,541.81,468.383,541.811z"/>
		</g>
	</g>
</g>
</svg>
