<?xml version="1.0" encoding="utf-8"?>
<!-- Generator: Adobe Illustrator 21.0.2, SVG Export Plug-In . SVG Version: 6.00 Build 0)  -->
<svg version="1.1" id="Layer_1" xmlns="http://www.w3.org/2000/svg" xmlns:xlink="http://www.w3.org/1999/xlink" x="0px" y="0px"
	 viewBox="0 0 841.89 595.28" enable-background="new 0 0 841.89 595.28" xml:space="preserve">
<g>
	<polygon fill="#8C8C8C" points="431.666,589.868 180.747,444.999 180.747,155.263 431.666,10.394 682.586,155.263 682.586,444.997 
			"/>
</g>
<g enable-background="new    ">
	<path fill="#FFFFFF" d="M431.66,56.246L220.137,178.194v243.887L431.66,544.015l211.535-121.934V178.194L431.66,56.246z
		 M634.631,417.166L431.66,534.193L228.683,417.166V183.152L431.66,66.129l202.97,117.023V417.166z"/>
</g>
<g>
	<path fill="#FFFFFF" d="M511.858,72.851l-5.55-3.176l-2.191,3.828l5.354,3.064l-1.293,2.259l-5.354-3.063l-4.339,7.582
		l-2.404-1.376l9.116-15.928l7.954,4.552L511.858,72.851z"/>
	<path fill="#FFFFFF" d="M514.449,79.141l-5.751,10.048l-2.321-1.329l5.75-10.048L514.449,79.141z M514.168,73.434
		c0.232-0.406,0.58-0.672,1.046-0.799c0.465-0.126,0.904-0.071,1.317,0.165c0.418,0.24,0.691,0.592,0.818,1.057
		c0.13,0.458,0.075,0.897-0.165,1.316c-0.24,0.42-0.593,0.692-1.058,0.819c-0.458,0.131-0.896,0.076-1.316-0.165
		s-0.692-0.592-0.819-1.058C513.865,74.306,513.924,73.861,514.168,73.434z"/>
	<path fill="#FFFFFF" d="M517.389,80.823l2.32,1.329l-0.514,0.897c0.683-0.203,1.236-0.292,1.661-0.268
		c0.435,0.021,0.884,0.163,1.345,0.427c0.611,0.351,1.138,0.916,1.576,1.697l-2.279,1.517c-0.259-0.568-0.599-0.973-1.018-1.212
		c-1.266-0.725-2.446-0.131-3.54,1.781l-2.981,5.21l-2.321-1.329L517.389,80.823z"/>
	<path fill="#FFFFFF" d="M530.15,90.401l-2.504-0.077c0.051-0.793-0.146-1.317-0.594-1.572c-0.213-0.123-0.436-0.156-0.667-0.102
		c-0.232,0.054-0.411,0.192-0.537,0.412c-0.221,0.385,0.008,1.022,0.686,1.912c0.929,1.235,1.478,2.197,1.648,2.888
		c0.17,0.691,0.039,1.415-0.395,2.171c-0.555,0.97-1.377,1.576-2.466,1.821c-1.049,0.221-2.065,0.05-3.049-0.513
		c-1.686-0.965-2.407-2.469-2.169-4.515l2.507,0.215c-0.001,0.639,0.034,1.065,0.104,1.278c0.133,0.423,0.396,0.747,0.787,0.971
		c0.784,0.449,1.381,0.316,1.79-0.399c0.236-0.413,0.154-0.971-0.247-1.675c-0.166-0.251-0.335-0.499-0.506-0.743
		c-0.172-0.243-0.344-0.493-0.518-0.748c-0.484-0.716-0.771-1.318-0.856-1.805c-0.11-0.62,0.022-1.26,0.4-1.92
		c0.5-0.874,1.213-1.424,2.138-1.653c0.938-0.221,1.845-0.081,2.719,0.419C529.708,87.505,530.284,88.715,530.15,90.401z"/>
	<path fill="#FFFFFF" d="M535.018,93.79l-4.511,7.881l-2.32-1.328l4.511-7.881l-0.991-0.567l1.239-2.167l0.992,0.567l2.107-3.683
		l2.32,1.328l-2.107,3.683l1.805,1.033l-1.239,2.167L535.018,93.79z"/>
	<path fill="#FFFFFF" d="M546.959,102.5l-3.701,6.469l-2.404-1.376l9.116-15.928l2.724,1.559c1.334,0.764,2.288,1.433,2.863,2.008
		c0.582,0.58,0.985,1.277,1.214,2.092c0.402,1.418,0.214,2.807-0.565,4.169c-0.835,1.458-1.984,2.334-3.449,2.628
		c-1.464,0.294-3.025-0.033-4.684-0.982L546.959,102.5z M548.234,100.272l0.897,0.514c2.207,1.263,3.798,1.045,4.771-0.653
		c0.94-1.644,0.272-3.117-2.004-4.42l-0.794-0.455L548.234,100.272z"/>
	<path fill="#FFFFFF" d="M557.57,103.821l2.322,1.329l-0.515,0.897c0.682-0.203,1.235-0.293,1.661-0.269
		c0.434,0.021,0.883,0.163,1.344,0.427c0.612,0.35,1.138,0.916,1.576,1.696l-2.278,1.517c-0.26-0.568-0.6-0.973-1.018-1.212
		c-1.267-0.725-2.446-0.13-3.54,1.782l-2.981,5.21l-2.322-1.329L557.57,103.821z"/>
	<path fill="#FFFFFF" d="M567.795,109.673l-5.751,10.048l-2.321-1.328l5.75-10.048L567.795,109.673z M567.514,103.965
		c0.232-0.406,0.58-0.672,1.046-0.798c0.465-0.126,0.904-0.071,1.317,0.165c0.418,0.239,0.691,0.592,0.817,1.057
		c0.131,0.458,0.076,0.897-0.164,1.317s-0.593,0.692-1.059,0.819c-0.457,0.131-0.896,0.076-1.315-0.164
		c-0.42-0.24-0.692-0.593-0.819-1.058C567.211,104.837,567.27,104.392,567.514,103.965z"/>
	<path fill="#FFFFFF" d="M569.566,121.123l5.974,3.419l-1.251,2.187l-10.574-6.052l11.021-4.155l-5.128-2.935l1.24-2.167
		l9.717,5.562L569.566,121.123z"/>
	<path fill="#FFFFFF" d="M588.179,128.735l-7.201-4.122c-0.41,0.861-0.519,1.671-0.323,2.431c0.199,0.754,0.67,1.342,1.413,1.768
		c0.577,0.331,1.134,0.467,1.669,0.408c0.53-0.062,1.244-0.329,2.144-0.8l1.334,2.215c-0.598,0.342-1.17,0.602-1.719,0.777
		c-0.546,0.175-1.081,0.271-1.603,0.288c-0.521,0.017-1.035-0.047-1.546-0.193c-0.51-0.146-1.026-0.368-1.55-0.667
		c-1.499-0.858-2.427-2.028-2.783-3.511c-0.354-1.489-0.071-3.035,0.846-4.638c0.909-1.588,2.087-2.622,3.528-3.102
		c1.442-0.462,2.897-0.273,4.362,0.564c1.479,0.847,2.378,1.986,2.698,3.421c0.317,1.423,0.001,2.964-0.947,4.621L588.179,128.735z
		 M586.882,125.473c0.386-1.423-0.042-2.488-1.28-3.197c-0.282-0.162-0.57-0.27-0.867-0.326c-0.297-0.055-0.593-0.061-0.888-0.015
		c-0.297,0.045-0.581,0.14-0.854,0.285c-0.274,0.145-0.533,0.339-0.774,0.584L586.882,125.473z"/>
</g>
<g>
	<g>
		<path fill="#FFFFFF" d="M285.416,209.942c-9.203,0-16.69-7.487-16.69-16.69s7.487-16.689,16.69-16.689
			c9.202,0,16.688,7.487,16.688,16.689S294.618,209.942,285.416,209.942z M285.416,180.563c-6.997,0-12.69,5.692-12.69,12.689
			s5.693,12.69,12.69,12.69c6.996,0,12.688-5.693,12.688-12.69S292.412,180.563,285.416,180.563z"/>
	</g>
	<g>
		<g>
			<path fill="#FFFFFF" d="M289.426,207.386c0,1.8,0,3.6,0,5.4c0,3.217,5,3.223,5,0c0-1.8,0-3.6,0-5.4
				C294.426,204.169,289.426,204.164,289.426,207.386L289.426,207.386z"/>
		</g>
	</g>
	<g>
		<g>
			<path fill="#FFFFFF" d="M292.641,215.127c3.255,0,6.511,0,9.766,0c3.217,0,3.223-5,0-5c-3.255,0-6.511,0-9.766,0
				C289.424,210.127,289.418,215.127,292.641,215.127L292.641,215.127z"/>
		</g>
	</g>
	<g>
		<g>
			<path fill="#FFFFFF" d="M276.88,207.386c0,1.8,0,3.6,0,5.4c0,3.217,5,3.223,5,0c0-1.8,0-3.6,0-5.4
				C281.88,204.169,276.88,204.164,276.88,207.386L276.88,207.386z"/>
		</g>
	</g>
	<g>
		<g>
			<path fill="#FFFFFF" d="M278.666,210.127c-2.938,0-5.876,0-8.814,0c-3.217,0-3.223,5,0,5c2.938,0,5.876,0,8.814,0
				C281.883,215.127,281.888,210.127,278.666,210.127L278.666,210.127z"/>
		</g>
	</g>
	<g>
		<g>
			<path fill="#FFFFFF" d="M302.467,215.186c3.728-0.107,3.225,6.997,3.247,9.44c0.028,3.216,5.028,3.224,5,0
				c-0.049-5.546-0.664-14.658-8.247-14.44C299.256,210.279,299.243,215.279,302.467,215.186L302.467,215.186z"/>
		</g>
	</g>
	<g>
		<g>
			<path fill="#FFFFFF" d="M305.724,224.18c0,5.3,0,10.6,0,15.9c0,3.217,5,3.223,5,0c0-5.3,0-10.6,0-15.9
				C310.724,220.962,305.724,220.957,305.724,224.18L305.724,224.18z"/>
		</g>
	</g>
	<g>
		<g>
			<path fill="#FFFFFF" d="M305.863,240.417c0.198,2.237,1.06,5.715-1.035,7.271c-1.308,0.971-3.237,1.218-3.493-0.759
				c-0.175-1.35-1.024-2.485-2.5-2.5c-1.217-0.013-2.673,1.161-2.5,2.5c0.317,2.444,1.201,4.652,3.512,5.832
				c1.941,0.991,4.26,0.781,6.202-0.072c2-0.879,3.835-2.527,4.557-4.638c0.821-2.402,0.476-5.158,0.257-7.633
				C310.581,237.237,305.579,237.207,305.863,240.417L305.863,240.417z"/>
		</g>
	</g>
	<g>
		<g>
			<path fill="#FFFFFF" d="M295.699,225.887c0,9.74,0,19.48,0,29.219c0,3.217,5,3.223,5,0c0-9.74,0-19.48,0-29.219
				C300.699,222.67,295.699,222.665,295.699,225.887L295.699,225.887z"/>
		</g>
	</g>
	<g>
		<g>
			<path fill="#FFFFFF" d="M278.816,210.127c-3.255,0-6.511,0-9.766,0c-3.217,0-3.223,5,0,5c3.255,0,6.511,0,9.766,0
				C282.033,215.127,282.038,210.127,278.816,210.127L278.816,210.127z"/>
		</g>
	</g>
	<g>
		<g>
			<path fill="#FFFFFF" d="M268.99,210.186c-7.582-0.218-8.198,8.894-8.247,14.44c-0.028,3.218,4.972,3.221,5,0
				c0.022-2.449-0.478-9.547,3.247-9.44C272.208,215.279,272.206,210.279,268.99,210.186L268.99,210.186z"/>
		</g>
	</g>
	<g>
		<g>
			<path fill="#FFFFFF" d="M260.733,224.18c0,5.3,0,10.6,0,15.9c0,3.217,5,3.223,5,0c0-5.3,0-10.6,0-15.9
				C265.733,220.962,260.733,220.957,260.733,224.18L260.733,224.18z"/>
		</g>
	</g>
	<g>
		<g>
			<path fill="#FFFFFF" d="M260.594,240.417c-0.219,2.475-0.564,5.231,0.257,7.633c0.722,2.111,2.557,3.759,4.557,4.638
				c1.942,0.854,4.261,1.064,6.202,0.072c2.311-1.18,3.196-3.388,3.512-5.832c0.175-1.35-1.274-2.487-2.5-2.5
				c-1.494-0.016-2.327,1.166-2.5,2.5c-0.255,1.972-2.188,1.729-3.493,0.759c-2.094-1.555-1.233-5.036-1.035-7.271
				C265.877,237.212,260.876,237.231,260.594,240.417L260.594,240.417z"/>
		</g>
	</g>
	<g>
		<g>
			<path fill="#FFFFFF" d="M270.758,225.887c0,9.74,0,19.48,0,29.219c0,3.217,5,3.223,5,0c0-9.74,0-19.48,0-29.219
				C275.758,222.67,270.758,222.665,270.758,225.887L270.758,225.887z"/>
		</g>
	</g>
	<g>
		<g>
			<path fill="#FFFFFF" d="M298.041,252.726c-8.298,0-16.595,0-24.893,0c-3.217,0-3.223,5,0,5c8.298,0,16.595,0,24.893,0
				C301.258,257.726,301.263,252.726,298.041,252.726L298.041,252.726z"/>
		</g>
	</g>
</g>
<g>
	<g>
		<path fill="#FFFFFF" d="M321.068,375.178c-9.202,0-16.689-7.487-16.689-16.69s7.487-16.689,16.689-16.689
			s16.688,7.487,16.688,16.689S330.271,375.178,321.068,375.178z M321.068,345.799c-6.997,0-12.689,5.692-12.689,12.689
			s5.692,12.69,12.689,12.69c6.996,0,12.688-5.693,12.688-12.69S328.064,345.799,321.068,345.799z"/>
	</g>
	<g>
		<g>
			<path fill="#FFFFFF" d="M325.079,372.623c0,1.8,0,3.6,0,5.4c0,3.217,5,3.223,5,0c0-1.8,0-3.6,0-5.4
				C330.079,369.405,325.079,369.4,325.079,372.623L325.079,372.623z"/>
		</g>
	</g>
	<g>
		<g>
			<path fill="#FFFFFF" d="M328.294,380.363c3.255,0,6.511,0,9.766,0c3.217,0,3.223-5,0-5c-3.255,0-6.511,0-9.766,0
				C325.076,375.363,325.071,380.363,328.294,380.363L328.294,380.363z"/>
		</g>
	</g>
	<g>
		<g>
			<path fill="#FFFFFF" d="M312.533,372.623c0,1.8,0,3.6,0,5.4c0,3.217,5,3.223,5,0c0-1.8,0-3.6,0-5.4
				C317.533,369.405,312.533,369.4,312.533,372.623L312.533,372.623z"/>
		</g>
	</g>
	<g>
		<g>
			<path fill="#FFFFFF" d="M314.319,375.363c-2.938,0-5.876,0-8.814,0c-3.217,0-3.223,5,0,5c2.938,0,5.876,0,8.814,0
				C317.536,380.363,317.541,375.363,314.319,375.363L314.319,375.363z"/>
		</g>
	</g>
	<g>
		<g>
			<path fill="#FFFFFF" d="M338.12,380.423c3.728-0.107,3.225,6.997,3.247,9.44c0.028,3.216,5.028,3.224,5,0
				c-0.049-5.546-0.664-14.658-8.247-14.44C334.909,375.515,334.896,380.515,338.12,380.423L338.12,380.423z"/>
		</g>
	</g>
	<g>
		<g>
			<path fill="#FFFFFF" d="M341.377,389.416c0,5.3,0,10.6,0,15.9c0,3.217,5,3.223,5,0c0-5.3,0-10.6,0-15.9
				C346.377,386.199,341.377,386.194,341.377,389.416L341.377,389.416z"/>
		</g>
	</g>
	<g>
		<g>
			<path fill="#FFFFFF" d="M341.515,405.653c0.198,2.237,1.059,5.715-1.036,7.271c-1.308,0.971-3.237,1.218-3.493-0.759
				c-0.175-1.35-1.024-2.485-2.5-2.5c-1.217-0.013-2.673,1.161-2.5,2.5c0.317,2.444,1.201,4.652,3.512,5.832
				c1.941,0.991,4.259,0.781,6.202-0.072c2-0.879,3.835-2.527,4.557-4.638c0.821-2.402,0.476-5.158,0.258-7.633
				C346.234,402.473,341.232,402.444,341.515,405.653L341.515,405.653z"/>
		</g>
	</g>
	<g>
		<g>
			<path fill="#FFFFFF" d="M331.352,391.124c0,9.74,0,19.48,0,29.219c0,3.217,5,3.223,5,0c0-9.74,0-19.48,0-29.219
				C336.352,387.906,331.352,387.901,331.352,391.124L331.352,391.124z"/>
		</g>
	</g>
	<g>
		<g>
			<path fill="#FFFFFF" d="M314.468,375.363c-3.255,0-6.511,0-9.766,0c-3.217,0-3.223,5,0,5c3.255,0,6.511,0,9.766,0
				C317.686,380.363,317.691,375.363,314.468,375.363L314.468,375.363z"/>
		</g>
	</g>
	<g>
		<g>
			<path fill="#FFFFFF" d="M304.642,375.423c-7.583-0.218-8.197,8.894-8.247,14.44c-0.029,3.218,4.971,3.221,5,0
				c0.022-2.449-0.478-9.547,3.247-9.44C307.861,380.515,307.858,375.515,304.642,375.423L304.642,375.423z"/>
		</g>
	</g>
	<g>
		<g>
			<path fill="#FFFFFF" d="M296.385,389.416c0,5.3,0,10.6,0,15.9c0,3.217,5,3.223,5,0c0-5.3,0-10.6,0-15.9
				C301.385,386.199,296.385,386.194,296.385,389.416L296.385,389.416z"/>
		</g>
	</g>
	<g>
		<g>
			<path fill="#FFFFFF" d="M296.247,405.653c-0.219,2.475-0.564,5.231,0.257,7.633c0.722,2.111,2.557,3.759,4.557,4.638
				c1.942,0.854,4.261,1.064,6.202,0.072c2.311-1.18,3.196-3.388,3.512-5.832c0.175-1.35-1.274-2.487-2.5-2.5
				c-1.494-0.016-2.327,1.166-2.5,2.5c-0.255,1.972-2.188,1.729-3.493,0.759c-2.094-1.555-1.233-5.036-1.035-7.271
				C301.53,402.449,296.528,402.468,296.247,405.653L296.247,405.653z"/>
		</g>
	</g>
	<g>
		<g>
			<path fill="#FFFFFF" d="M306.411,391.124c0,9.74,0,19.48,0,29.219c0,3.217,5,3.223,5,0c0-9.74,0-19.48,0-29.219
				C311.411,387.906,306.411,387.901,306.411,391.124L306.411,391.124z"/>
		</g>
	</g>
	<g>
		<g>
			<path fill="#FFFFFF" d="M333.693,417.962c-8.298,0-16.595,0-24.893,0c-3.217,0-3.223,5,0,5c8.298,0,16.595,0,24.893,0
				C336.911,422.962,336.916,417.962,333.693,417.962L333.693,417.962z"/>
		</g>
	</g>
</g>
<g>
	<g>
		<path fill="#FFFFFF" d="M478.759,328.409c-9.202,0-16.688-7.486-16.688-16.688c0-9.203,7.486-16.69,16.688-16.69
			c9.204,0,16.691,7.487,16.691,16.69C495.45,320.922,487.963,328.409,478.759,328.409z M478.759,299.03
			c-6.996,0-12.688,5.693-12.688,12.69c0,6.997,5.692,12.688,12.688,12.688c6.998,0,12.691-5.692,12.691-12.688
			C491.45,304.723,485.757,299.03,478.759,299.03z"/>
	</g>
	<g>
		<g>
			<path fill="#FFFFFF" d="M482.771,325.854c0,1.8,0,3.599,0,5.399c0,3.217,5,3.223,5,0c0-1.8,0-3.599,0-5.399
				C487.771,322.637,482.771,322.632,482.771,325.854L482.771,325.854z"/>
		</g>
	</g>
	<g>
		<g>
			<path fill="#FFFFFF" d="M485.985,333.595c3.255,0,6.511,0,9.766,0c3.217,0,3.223-5,0-5c-3.255,0-6.511,0-9.766,0
				C482.768,328.595,482.763,333.595,485.985,333.595L485.985,333.595z"/>
		</g>
	</g>
	<g>
		<g>
			<path fill="#FFFFFF" d="M470.226,325.854c0,1.8,0,3.599,0,5.399c0,3.217,5,3.223,5,0c0-1.8,0-3.599,0-5.399
				C475.226,322.637,470.226,322.632,470.226,325.854L470.226,325.854z"/>
		</g>
	</g>
	<g>
		<g>
			<path fill="#FFFFFF" d="M472.011,328.595c-2.938,0-5.876,0-8.814,0c-3.217,0-3.223,5,0,5c2.938,0,5.876,0,8.814,0
				C475.228,333.595,475.234,328.595,472.011,328.595L472.011,328.595z"/>
		</g>
	</g>
	<g>
		<g>
			<path fill="#FFFFFF" d="M495.811,333.654c3.728-0.107,3.227,6.996,3.247,9.44c0.026,3.216,5.026,3.224,5,0
				c-0.044-5.547-0.666-14.658-8.247-14.44C492.601,328.747,492.587,333.747,495.811,333.654L495.811,333.654z"/>
		</g>
	</g>
	<g>
		<g>
			<path fill="#FFFFFF" d="M499.069,342.648c0,5.3,0,10.6,0,15.9c0,3.217,5,3.223,5,0c0-5.3,0-10.6,0-15.9
				C504.069,339.431,499.069,339.425,499.069,342.648L499.069,342.648z"/>
		</g>
	</g>
	<g>
		<g>
			<path fill="#FFFFFF" d="M499.207,358.885c0.197,2.237,1.059,5.713-1.036,7.27c-1.307,0.971-3.236,1.218-3.492-0.758
				c-0.175-1.35-1.024-2.485-2.5-2.5c-1.217-0.013-2.674,1.161-2.5,2.5c0.317,2.444,1.202,4.652,3.513,5.832
				c1.941,0.991,4.259,0.781,6.201-0.073c2-0.879,3.834-2.528,4.556-4.638c0.822-2.402,0.476-5.157,0.258-7.632
				C503.927,355.704,498.924,355.675,499.207,358.885L499.207,358.885z"/>
		</g>
	</g>
	<g>
		<g>
			<path fill="#FFFFFF" d="M489.044,344.354c0,9.74,0,19.48,0,29.219c0,3.217,5,3.223,5,0c0-9.74,0-19.48,0-29.219
				C494.044,341.137,489.044,341.132,489.044,344.354L489.044,344.354z"/>
		</g>
	</g>
	<g>
		<g>
			<path fill="#FFFFFF" d="M472.16,328.595c-3.255,0-6.511,0-9.766,0c-3.217,0-3.223,5,0,5c3.255,0,6.511,0,9.766,0
				C475.377,333.595,475.383,328.595,472.16,328.595L472.16,328.595z"/>
		</g>
	</g>
	<g>
		<g>
			<path fill="#FFFFFF" d="M462.334,328.654c-7.58-0.218-8.202,8.893-8.247,14.44c-0.026,3.218,4.974,3.221,5,0
				c0.02-2.449-0.478-9.547,3.247-9.44C465.553,333.747,465.55,328.747,462.334,328.654L462.334,328.654z"/>
		</g>
	</g>
	<g>
		<g>
			<path fill="#FFFFFF" d="M454.078,342.648c0,5.3,0,10.6,0,15.9c0,3.217,5,3.223,5,0c0-5.3,0-10.6,0-15.9
				C459.078,339.431,454.078,339.425,454.078,342.648L454.078,342.648z"/>
		</g>
	</g>
	<g>
		<g>
			<path fill="#FFFFFF" d="M453.938,358.885c-0.218,2.475-0.564,5.23,0.258,7.632c0.722,2.111,2.556,3.759,4.556,4.638
				c1.942,0.854,4.26,1.064,6.201,0.073c2.311-1.18,3.196-3.387,3.513-5.832c0.175-1.35-1.275-2.487-2.5-2.5
				c-1.494-0.016-2.327,1.166-2.5,2.5c-0.256,1.972-2.188,1.727-3.492,0.758c-2.094-1.556-1.233-5.035-1.036-7.27
				C459.221,355.68,454.219,355.699,453.938,358.885L453.938,358.885z"/>
		</g>
	</g>
	<g>
		<g>
			<path fill="#FFFFFF" d="M464.101,344.354c0,9.74,0,19.48,0,29.219c0,3.217,5,3.223,5,0c0-9.74,0-19.48,0-29.219
				C469.101,341.137,464.101,341.132,464.101,344.354L464.101,344.354z"/>
		</g>
	</g>
	<g>
		<g>
			<path fill="#FFFFFF" d="M491.386,371.193c-8.298,0-16.596,0-24.894,0c-3.217,0-3.223,5,0,5c8.298,0,16.596,0,24.894,0
				C494.603,376.193,494.608,371.193,491.386,371.193L491.386,371.193z"/>
		</g>
	</g>
</g>
<g>
	<g>
		<path fill="#FFFFFF" d="M377.999,255.2c-9.202,0-16.689-7.486-16.689-16.688c0-9.203,7.487-16.69,16.689-16.69
			c9.203,0,16.69,7.487,16.69,16.69C394.689,247.713,387.202,255.2,377.999,255.2z M377.999,225.821
			c-6.997,0-12.689,5.693-12.689,12.69c0,6.997,5.692,12.688,12.689,12.688s12.69-5.692,12.69-12.688
			C390.689,231.514,384.996,225.821,377.999,225.821z"/>
	</g>
	<g>
		<g>
			<path fill="#FFFFFF" d="M382.01,252.645c0,1.8,0,3.599,0,5.399c0,3.217,5,3.223,5,0c0-1.8,0-3.599,0-5.399
				C387.01,249.428,382.01,249.423,382.01,252.645L382.01,252.645z"/>
		</g>
	</g>
	<g>
		<g>
			<path fill="#FFFFFF" d="M385.225,260.386c3.255,0,6.511,0,9.766,0c3.217,0,3.223-5,0-5c-3.255,0-6.511,0-9.766,0
				C382.008,255.386,382.002,260.386,385.225,260.386L385.225,260.386z"/>
		</g>
	</g>
	<g>
		<g>
			<path fill="#FFFFFF" d="M369.465,252.645c0,1.8,0,3.599,0,5.399c0,3.217,5,3.223,5,0c0-1.8,0-3.599,0-5.399
				C374.465,249.428,369.465,249.423,369.465,252.645L369.465,252.645z"/>
		</g>
	</g>
	<g>
		<g>
			<path fill="#FFFFFF" d="M371.251,255.386c-2.938,0-5.876,0-8.814,0c-3.217,0-3.223,5,0,5c2.938,0,5.876,0,8.814,0
				C374.468,260.386,374.473,255.386,371.251,255.386L371.251,255.386z"/>
		</g>
	</g>
	<g>
		<g>
			<path fill="#FFFFFF" d="M395.051,260.445c3.728-0.107,3.227,6.996,3.247,9.44c0.026,3.216,5.026,3.224,5,0
				c-0.045-5.547-0.666-14.658-8.247-14.44C391.84,255.538,391.827,260.538,395.051,260.445L395.051,260.445z"/>
		</g>
	</g>
	<g>
		<g>
			<path fill="#FFFFFF" d="M398.309,269.439c0,5.3,0,10.6,0,15.9c0,3.217,5,3.223,5,0c0-5.3,0-10.6,0-15.9
				C403.309,266.222,398.309,266.216,398.309,269.439L398.309,269.439z"/>
		</g>
	</g>
	<g>
		<g>
			<path fill="#FFFFFF" d="M398.447,285.676c0.197,2.237,1.059,5.713-1.036,7.27c-1.307,0.971-3.236,1.219-3.492-0.758
				c-0.175-1.35-1.024-2.485-2.5-2.5c-1.217-0.013-2.674,1.161-2.5,2.5c0.317,2.444,1.202,4.652,3.513,5.832
				c1.941,0.991,4.259,0.781,6.201-0.073c2-0.879,3.834-2.528,4.556-4.638c0.822-2.402,0.476-5.157,0.258-7.632
				C403.167,282.496,398.164,282.466,398.447,285.676L398.447,285.676z"/>
		</g>
	</g>
	<g>
		<g>
			<path fill="#FFFFFF" d="M388.284,271.145c0,9.74,0,19.479,0,29.219c0,3.217,5,3.223,5,0c0-9.74,0-19.479,0-29.219
				C393.284,267.928,388.284,267.923,388.284,271.145L388.284,271.145z"/>
		</g>
	</g>
	<g>
		<g>
			<path fill="#FFFFFF" d="M371.4,255.386c-3.255,0-6.511,0-9.766,0c-3.217,0-3.223,5,0,5c3.255,0,6.511,0,9.766,0
				C374.617,260.386,374.622,255.386,371.4,255.386L371.4,255.386z"/>
		</g>
	</g>
	<g>
		<g>
			<path fill="#FFFFFF" d="M361.574,255.445c-7.58-0.218-8.202,8.893-8.247,14.44c-0.026,3.218,4.974,3.221,5,0
				c0.02-2.449-0.478-9.547,3.247-9.44C364.792,260.538,364.79,255.538,361.574,255.445L361.574,255.445z"/>
		</g>
	</g>
	<g>
		<g>
			<path fill="#FFFFFF" d="M353.318,269.439c0,5.3,0,10.6,0,15.9c0,3.217,5,3.223,5,0c0-5.3,0-10.6,0-15.9
				C358.318,266.222,353.318,266.216,353.318,269.439L353.318,269.439z"/>
		</g>
	</g>
	<g>
		<g>
			<path fill="#FFFFFF" d="M353.178,285.676c-0.218,2.475-0.564,5.23,0.258,7.632c0.722,2.111,2.556,3.759,4.556,4.638
				c1.942,0.854,4.26,1.064,6.201,0.073c2.311-1.18,3.196-3.387,3.513-5.832c0.175-1.35-1.275-2.487-2.5-2.5
				c-1.494-0.016-2.327,1.166-2.5,2.5c-0.256,1.972-2.188,1.727-3.492,0.758c-2.094-1.556-1.233-5.034-1.036-7.27
				C358.46,282.471,353.459,282.49,353.178,285.676L353.178,285.676z"/>
		</g>
	</g>
	<g>
		<g>
			<path fill="#FFFFFF" d="M363.341,271.145c0,9.74,0,19.479,0,29.219c0,3.217,5,3.223,5,0c0-9.74,0-19.479,0-29.219
				C368.341,267.928,363.341,267.923,363.341,271.145L363.341,271.145z"/>
		</g>
	</g>
	<g>
		<g>
			<path fill="#FFFFFF" d="M390.626,297.983c-8.298,0-16.596,0-24.894,0c-3.217,0-3.223,5,0,5c8.298,0,16.596,0,24.894,0
				C393.843,302.983,393.848,297.983,390.626,297.983L390.626,297.983z"/>
		</g>
	</g>
</g>
<g>
	<g>
		<path fill="#FFFFFF" d="M441.839,142.609c-9.202,0-16.689-7.487-16.689-16.69c0-9.202,7.487-16.689,16.689-16.689
			s16.688,7.487,16.688,16.689C458.527,135.122,451.041,142.609,441.839,142.609z M441.839,113.23
			c-6.997,0-12.689,5.692-12.689,12.689c0,6.997,5.692,12.69,12.689,12.69c6.996,0,12.688-5.693,12.688-12.69
			C454.527,118.922,448.835,113.23,441.839,113.23z"/>
	</g>
	<g>
		<g>
			<path fill="#FFFFFF" d="M445.849,140.053c0,1.8,0,3.6,0,5.4c0,3.217,5,3.223,5,0c0-1.8,0-3.6,0-5.4
				C450.849,136.836,445.849,136.831,445.849,140.053L445.849,140.053z"/>
		</g>
	</g>
	<g>
		<g>
			<path fill="#FFFFFF" d="M449.063,147.794c3.255,0,6.511,0,9.766,0c3.217,0,3.223-5,0-5c-3.255,0-6.511,0-9.766,0
				C445.846,142.794,445.841,147.794,449.063,147.794L449.063,147.794z"/>
		</g>
	</g>
	<g>
		<g>
			<path fill="#FFFFFF" d="M433.304,140.053c0,1.8,0,3.6,0,5.4c0,3.217,5,3.223,5,0c0-1.8,0-3.6,0-5.4
				C438.304,136.836,433.304,136.831,433.304,140.053L433.304,140.053z"/>
		</g>
	</g>
	<g>
		<g>
			<path fill="#FFFFFF" d="M435.089,142.794c-2.938,0-5.876,0-8.814,0c-3.217,0-3.223,5,0,5c2.938,0,5.876,0,8.814,0
				C438.306,147.794,438.312,142.794,435.089,142.794L435.089,142.794z"/>
		</g>
	</g>
	<g>
		<g>
			<path fill="#FFFFFF" d="M458.889,147.853c3.728-0.107,3.227,6.997,3.247,9.44c0.026,3.216,5.026,3.223,5,0
				c-0.044-5.547-0.666-14.658-8.247-14.44C455.679,142.946,455.665,147.946,458.889,147.853L458.889,147.853z"/>
		</g>
	</g>
	<g>
		<g>
			<path fill="#FFFFFF" d="M462.147,156.847c0,5.3,0,10.6,0,15.901c0,3.217,5,3.223,5,0c0-5.3,0-10.6,0-15.901
				C467.147,153.63,462.147,153.624,462.147,156.847L462.147,156.847z"/>
		</g>
	</g>
	<g>
		<g>
			<path fill="#FFFFFF" d="M462.285,173.084c0.197,2.237,1.059,5.713-1.036,7.27c-1.307,0.971-3.236,1.218-3.492-0.758
				c-0.175-1.35-1.024-2.485-2.5-2.5c-1.217-0.013-2.674,1.161-2.5,2.5c0.317,2.444,1.202,4.652,3.513,5.832
				c1.941,0.991,4.259,0.781,6.201-0.073c2-0.879,3.834-2.528,4.556-4.638c0.822-2.402,0.476-5.157,0.258-7.632
				C467.005,169.904,462.002,169.874,462.285,173.084L462.285,173.084z"/>
		</g>
	</g>
	<g>
		<g>
			<path fill="#FFFFFF" d="M452.122,158.554c0,9.74,0,19.479,0,29.219c0,3.217,5,3.223,5,0c0-9.74,0-19.479,0-29.219
				C457.122,155.337,452.122,155.332,452.122,158.554L452.122,158.554z"/>
		</g>
	</g>
	<g>
		<g>
			<path fill="#FFFFFF" d="M435.24,142.794c-3.256,0-6.512,0-9.767,0c-3.217,0-3.223,5,0,5c3.256,0,6.512,0,9.767,0
				C438.457,147.794,438.463,142.794,435.24,142.794L435.24,142.794z"/>
		</g>
	</g>
	<g>
		<g>
			<path fill="#FFFFFF" d="M425.413,142.853c-7.58-0.218-8.202,8.893-8.247,14.44c-0.026,3.218,4.974,3.221,5,0
				c0.02-2.449-0.477-9.547,3.247-9.44C428.632,147.946,428.629,142.946,425.413,142.853L425.413,142.853z"/>
		</g>
	</g>
	<g>
		<g>
			<path fill="#FFFFFF" d="M417.156,156.847c0,5.3,0,10.6,0,15.901c0,3.217,5,3.223,5,0c0-5.3,0-10.6,0-15.901
				C422.156,153.63,417.156,153.624,417.156,156.847L417.156,156.847z"/>
		</g>
	</g>
	<g>
		<g>
			<path fill="#FFFFFF" d="M417.017,173.084c-0.218,2.475-0.564,5.23,0.258,7.632c0.722,2.111,2.556,3.759,4.556,4.638
				c1.942,0.854,4.26,1.064,6.201,0.073c2.311-1.18,3.196-3.387,3.513-5.832c0.175-1.35-1.275-2.487-2.5-2.5
				c-1.494-0.016-2.327,1.166-2.5,2.5c-0.256,1.972-2.188,1.728-3.492,0.758c-2.094-1.556-1.233-5.035-1.036-7.27
				C422.3,169.88,417.298,169.899,417.017,173.084L417.017,173.084z"/>
		</g>
	</g>
	<g>
		<g>
			<path fill="#FFFFFF" d="M427.18,158.554c0,9.74,0,19.479,0,29.219c0,3.217,5,3.223,5,0c0-9.74,0-19.479,0-29.219
				C432.18,155.337,427.18,155.332,427.18,158.554L427.18,158.554z"/>
		</g>
	</g>
	<g>
		<g>
			<path fill="#FFFFFF" d="M454.464,185.392c-8.298,0-16.596,0-24.893,0c-3.217,0-3.223,5,0,5c8.298,0,16.596,0,24.893,0
				C457.681,190.392,457.686,185.392,454.464,185.392L454.464,185.392z"/>
		</g>
	</g>
</g>
<g>
	<g>
		<path fill="#FFFFFF" d="M574.437,373.311c-9.202,0-16.689-7.487-16.689-16.689c0-9.202,7.487-16.689,16.689-16.689
			c9.203,0,16.69,7.487,16.69,16.689C591.127,365.824,583.64,373.311,574.437,373.311z M574.437,343.932
			c-6.997,0-12.689,5.692-12.689,12.689c0,6.997,5.692,12.689,12.689,12.689s12.69-5.692,12.69-12.689
			C587.127,349.625,581.434,343.932,574.437,343.932z"/>
	</g>
	<g>
		<g>
			<path fill="#FFFFFF" d="M578.448,370.755c0,1.8,0,3.6,0,5.4c0,3.217,5,3.223,5,0c0-1.8,0-3.6,0-5.4
				C583.448,367.538,578.448,367.533,578.448,370.755L578.448,370.755z"/>
		</g>
	</g>
	<g>
		<g>
			<path fill="#FFFFFF" d="M581.662,378.496c3.255,0,6.511,0,9.766,0c3.217,0,3.223-5,0-5c-3.255,0-6.511,0-9.766,0
				C578.445,373.496,578.44,378.496,581.662,378.496L581.662,378.496z"/>
		</g>
	</g>
	<g>
		<g>
			<path fill="#FFFFFF" d="M565.903,370.755c0,1.8,0,3.6,0,5.4c0,3.217,5,3.223,5,0c0-1.8,0-3.6,0-5.4
				C570.903,367.538,565.903,367.533,565.903,370.755L565.903,370.755z"/>
		</g>
	</g>
	<g>
		<g>
			<path fill="#FFFFFF" d="M567.688,373.496c-2.938,0-5.876,0-8.814,0c-3.217,0-3.223,5,0,5c2.938,0,5.876,0,8.814,0
				C570.905,378.496,570.911,373.496,567.688,373.496L567.688,373.496z"/>
		</g>
	</g>
	<g>
		<g>
			<path fill="#FFFFFF" d="M591.488,378.555c3.728-0.107,3.227,6.997,3.247,9.44c0.026,3.216,5.026,3.223,5,0
				c-0.045-5.547-0.666-14.658-8.247-14.44C588.278,373.648,588.264,378.648,591.488,378.555L591.488,378.555z"/>
		</g>
	</g>
	<g>
		<g>
			<path fill="#FFFFFF" d="M594.746,387.549c0,5.3,0,10.6,0,15.9c0,3.217,5,3.223,5,0c0-5.3,0-10.6,0-15.9
				C599.746,384.331,594.746,384.326,594.746,387.549L594.746,387.549z"/>
		</g>
	</g>
	<g>
		<g>
			<path fill="#FFFFFF" d="M594.884,403.786c0.197,2.237,1.06,5.714-1.036,7.271c-1.307,0.971-3.236,1.218-3.492-0.759
				c-0.175-1.35-1.024-2.485-2.5-2.5c-1.217-0.013-2.674,1.161-2.5,2.5c0.317,2.444,1.202,4.652,3.513,5.832
				c1.941,0.991,4.259,0.781,6.201-0.072c2-0.879,3.834-2.528,4.556-4.638c0.822-2.403,0.476-5.158,0.258-7.633
				C599.604,400.605,594.601,400.576,594.884,403.786L594.884,403.786z"/>
		</g>
	</g>
	<g>
		<g>
			<path fill="#FFFFFF" d="M584.721,389.256c0,9.74,0,19.48,0,29.219c0,3.217,5,3.223,5,0c0-9.74,0-19.48,0-29.219
				C589.721,386.039,584.721,386.034,584.721,389.256L584.721,389.256z"/>
		</g>
	</g>
	<g>
		<g>
			<path fill="#FFFFFF" d="M567.837,373.496c-3.255,0-6.511,0-9.766,0c-3.217,0-3.223,5,0,5c3.255,0,6.511,0,9.766,0
				C571.054,378.496,571.06,373.496,567.837,373.496L567.837,373.496z"/>
		</g>
	</g>
	<g>
		<g>
			<path fill="#FFFFFF" d="M558.011,373.555c-7.58-0.218-8.202,8.893-8.247,14.44c-0.026,3.218,4.974,3.221,5,0
				c0.02-2.449-0.477-9.547,3.247-9.44C561.23,378.648,561.227,373.648,558.011,373.555L558.011,373.555z"/>
		</g>
	</g>
	<g>
		<g>
			<path fill="#FFFFFF" d="M549.755,387.549c0,5.3,0,10.6,0,15.9c0,3.217,5,3.223,5,0c0-5.3,0-10.6,0-15.9
				C554.755,384.331,549.755,384.326,549.755,387.549L549.755,387.549z"/>
		</g>
	</g>
	<g>
		<g>
			<path fill="#FFFFFF" d="M549.615,403.786c-0.218,2.476-0.564,5.231,0.258,7.633c0.722,2.111,2.556,3.759,4.556,4.638
				c1.942,0.854,4.26,1.064,6.201,0.072c2.311-1.18,3.196-3.388,3.513-5.832c0.175-1.35-1.275-2.487-2.5-2.5
				c-1.494-0.016-2.327,1.166-2.5,2.5c-0.256,1.972-2.187,1.729-3.492,0.759c-2.094-1.556-1.233-5.035-1.036-7.271
				C554.898,400.581,549.896,400.6,549.615,403.786L549.615,403.786z"/>
		</g>
	</g>
	<g>
		<g>
			<path fill="#FFFFFF" d="M559.778,389.256c0,9.74,0,19.48,0,29.219c0,3.217,5,3.223,5,0c0-9.74,0-19.48,0-29.219
				C564.778,386.039,559.778,386.034,559.778,389.256L559.778,389.256z"/>
		</g>
	</g>
	<g>
		<g>
			<path fill="#FFFFFF" d="M587.063,416.095c-8.298,0-16.596,0-24.894,0c-3.217,0-3.223,5,0,5c8.298,0,16.596,0,24.894,0
				C590.28,421.095,590.286,416.095,587.063,416.095L587.063,416.095z"/>
		</g>
	</g>
</g>
<g>
	<g>
		<path fill="#FFFFFF" d="M556.831,220.523c-9.202,0-16.688-7.487-16.688-16.69c0-9.202,7.486-16.689,16.688-16.689
			c9.203,0,16.69,7.487,16.69,16.689C573.521,213.036,566.034,220.523,556.831,220.523z M556.831,191.144
			c-6.996,0-12.688,5.692-12.688,12.689c0,6.997,5.692,12.69,12.688,12.69c6.997,0,12.69-5.693,12.69-12.69
			C569.521,196.836,563.828,191.144,556.831,191.144z"/>
	</g>
	<g>
		<g>
			<path fill="#FFFFFF" d="M560.843,217.967c0,1.8,0,3.6,0,5.4c0,3.217,5,3.223,5,0c0-1.8,0-3.6,0-5.4
				C565.843,214.75,560.843,214.745,560.843,217.967L560.843,217.967z"/>
		</g>
	</g>
	<g>
		<g>
			<path fill="#FFFFFF" d="M564.057,225.708c3.255,0,6.511,0,9.766,0c3.217,0,3.223-5,0-5c-3.255,0-6.511,0-9.766,0
				C560.84,220.708,560.835,225.708,564.057,225.708L564.057,225.708z"/>
		</g>
	</g>
	<g>
		<g>
			<path fill="#FFFFFF" d="M548.298,217.967c0,1.8,0,3.6,0,5.4c0,3.217,5,3.223,5,0c0-1.8,0-3.6,0-5.4
				C553.298,214.75,548.298,214.745,548.298,217.967L548.298,217.967z"/>
		</g>
	</g>
	<g>
		<g>
			<path fill="#FFFFFF" d="M550.083,220.708c-2.938,0-5.876,0-8.814,0c-3.217,0-3.223,5,0,5c2.938,0,5.876,0,8.814,0
				C553.301,225.708,553.306,220.708,550.083,220.708L550.083,220.708z"/>
		</g>
	</g>
	<g>
		<g>
			<path fill="#FFFFFF" d="M573.883,225.767c3.728-0.107,3.227,6.997,3.247,9.44c0.026,3.216,5.026,3.223,5,0
				c-0.044-5.547-0.666-14.658-8.247-14.44C570.673,220.86,570.659,225.86,573.883,225.767L573.883,225.767z"/>
		</g>
	</g>
	<g>
		<g>
			<path fill="#FFFFFF" d="M577.141,234.761c0,5.3,0,10.6,0,15.9c0,3.217,5,3.223,5,0c0-5.3,0-10.6,0-15.9
				C582.141,231.543,577.141,231.538,577.141,234.761L577.141,234.761z"/>
		</g>
	</g>
	<g>
		<g>
			<path fill="#FFFFFF" d="M577.279,250.998c0.197,2.237,1.059,5.714-1.036,7.271c-1.307,0.971-3.236,1.218-3.492-0.759
				c-0.175-1.35-1.024-2.485-2.5-2.5c-1.217-0.013-2.674,1.161-2.5,2.5c0.317,2.444,1.201,4.652,3.513,5.832
				c1.941,0.991,4.259,0.781,6.201-0.072c2-0.879,3.834-2.528,4.556-4.638c0.822-2.403,0.476-5.158,0.258-7.633
				C581.999,247.817,576.997,247.788,577.279,250.998L577.279,250.998z"/>
		</g>
	</g>
	<g>
		<g>
			<path fill="#FFFFFF" d="M567.116,236.468c0,9.74,0,19.48,0,29.219c0,3.217,5,3.223,5,0c0-9.74,0-19.48,0-29.219
				C572.116,233.251,567.116,233.246,567.116,236.468L567.116,236.468z"/>
		</g>
	</g>
	<g>
		<g>
			<path fill="#FFFFFF" d="M550.232,220.708c-3.255,0-6.511,0-9.766,0c-3.217,0-3.223,5,0,5c3.255,0,6.511,0,9.766,0
				C553.449,225.708,553.455,220.708,550.232,220.708L550.232,220.708z"/>
		</g>
	</g>
	<g>
		<g>
			<path fill="#FFFFFF" d="M540.406,220.767c-7.58-0.218-8.202,8.893-8.247,14.44c-0.026,3.218,4.974,3.221,5,0
				c0.02-2.449-0.478-9.547,3.247-9.44C543.625,225.86,543.622,220.86,540.406,220.767L540.406,220.767z"/>
		</g>
	</g>
	<g>
		<g>
			<path fill="#FFFFFF" d="M532.15,234.761c0,5.3,0,10.6,0,15.9c0,3.217,5,3.223,5,0c0-5.3,0-10.6,0-15.9
				C537.15,231.543,532.15,231.538,532.15,234.761L532.15,234.761z"/>
		</g>
	</g>
	<g>
		<g>
			<path fill="#FFFFFF" d="M532.01,250.998c-0.218,2.476-0.564,5.231,0.258,7.633c0.722,2.111,2.556,3.759,4.556,4.638
				c1.942,0.854,4.26,1.064,6.201,0.072c2.311-1.18,3.196-3.388,3.513-5.832c0.175-1.35-1.275-2.487-2.5-2.5
				c-1.494-0.016-2.327,1.166-2.5,2.5c-0.256,1.972-2.187,1.729-3.492,0.759c-2.094-1.556-1.233-5.035-1.036-7.271
				C537.293,247.793,532.291,247.812,532.01,250.998L532.01,250.998z"/>
		</g>
	</g>
	<g>
		<g>
			<path fill="#FFFFFF" d="M542.173,236.468c0,9.74,0,19.48,0,29.219c0,3.217,5,3.223,5,0c0-9.74,0-19.48,0-29.219
				C547.173,233.251,542.173,233.246,542.173,236.468L542.173,236.468z"/>
		</g>
	</g>
	<g>
		<g>
			<path fill="#FFFFFF" d="M569.458,263.307c-8.298,0-16.596,0-24.894,0c-3.217,0-3.223,5,0,5c8.298,0,16.596,0,24.894,0
				C572.675,268.307,572.681,263.307,569.458,263.307L569.458,263.307z"/>
		</g>
	</g>
</g>
<g>
	<g>
		<path fill="#FFFFFF" d="M432.647,450.629c-9.202,0-16.688-7.487-16.688-16.689s7.486-16.688,16.688-16.688
			s16.688,7.486,16.688,16.688S441.85,450.629,432.647,450.629z M432.647,421.251c-6.996,0-12.688,5.692-12.688,12.688
			c0,6.997,5.692,12.689,12.688,12.689s12.688-5.692,12.688-12.689C445.336,426.943,439.644,421.251,432.647,421.251z"/>
	</g>
	<g>
		<g>
			<path fill="#FFFFFF" d="M436.659,448.074c0,1.8,0,3.6,0,5.4c0,3.217,5,3.223,5,0c0-1.8,0-3.6,0-5.4
				C441.659,444.856,436.659,444.851,436.659,448.074L436.659,448.074z"/>
		</g>
	</g>
	<g>
		<g>
			<path fill="#FFFFFF" d="M439.874,455.814c3.255,0,6.511,0,9.766,0c3.217,0,3.223-5,0-5c-3.255,0-6.511,0-9.766,0
				C436.656,450.814,436.651,455.814,439.874,455.814L439.874,455.814z"/>
		</g>
	</g>
	<g>
		<g>
			<path fill="#FFFFFF" d="M424.113,448.074c0,1.8,0,3.6,0,5.4c0,3.217,5,3.223,5,0c0-1.8,0-3.6,0-5.4
				C429.113,444.856,424.113,444.851,424.113,448.074L424.113,448.074z"/>
		</g>
	</g>
	<g>
		<g>
			<path fill="#FFFFFF" d="M425.899,450.814c-2.938,0-5.876,0-8.814,0c-3.217,0-3.223,5,0,5c2.938,0,5.876,0,8.814,0
				C429.116,455.814,429.121,450.814,425.899,450.814L425.899,450.814z"/>
		</g>
	</g>
	<g>
		<g>
			<path fill="#FFFFFF" d="M449.7,455.874c3.728-0.107,3.227,6.997,3.247,9.44c0.026,3.216,5.026,3.223,5,0
				c-0.045-5.547-0.666-14.658-8.247-14.44C446.489,450.966,446.476,455.966,449.7,455.874L449.7,455.874z"/>
		</g>
	</g>
	<g>
		<g>
			<path fill="#FFFFFF" d="M452.958,464.867c0,5.3,0,10.6,0,15.9c0,3.217,5,3.223,5,0c0-5.3,0-10.6,0-15.9
				C457.958,461.65,452.958,461.645,452.958,464.867L452.958,464.867z"/>
		</g>
	</g>
	<g>
		<g>
			<path fill="#FFFFFF" d="M453.095,481.104c0.197,2.237,1.06,5.714-1.036,7.271c-1.307,0.971-3.236,1.218-3.492-0.759
				c-0.175-1.35-1.024-2.485-2.5-2.5c-1.217-0.013-2.674,1.161-2.5,2.5c0.317,2.444,1.202,4.652,3.513,5.832
				c1.941,0.991,4.259,0.781,6.201-0.072c2-0.879,3.834-2.528,4.556-4.638c0.822-2.403,0.476-5.158,0.258-7.633
				C457.815,477.924,452.813,477.894,453.095,481.104L453.095,481.104z"/>
		</g>
	</g>
	<g>
		<g>
			<path fill="#FFFFFF" d="M442.933,466.575c0,9.74,0,19.48,0,29.219c0,3.217,5,3.223,5,0c0-9.74,0-19.48,0-29.219
				C447.933,463.357,442.933,463.352,442.933,466.575L442.933,466.575z"/>
		</g>
	</g>
	<g>
		<g>
			<path fill="#FFFFFF" d="M426.049,450.814c-3.255,0-6.511,0-9.766,0c-3.217,0-3.223,5,0,5c3.255,0,6.511,0,9.766,0
				C429.266,455.814,429.271,450.814,426.049,450.814L426.049,450.814z"/>
		</g>
	</g>
	<g>
		<g>
			<path fill="#FFFFFF" d="M416.223,450.874c-7.58-0.218-8.202,8.893-8.247,14.44c-0.026,3.218,4.974,3.221,5,0
				c0.02-2.449-0.477-9.547,3.247-9.44C419.441,455.966,419.438,450.966,416.223,450.874L416.223,450.874z"/>
		</g>
	</g>
	<g>
		<g>
			<path fill="#FFFFFF" d="M407.966,464.867c0,5.3,0,10.6,0,15.9c0,3.217,5,3.223,5,0c0-5.3,0-10.6,0-15.9
				C412.966,461.65,407.966,461.645,407.966,464.867L407.966,464.867z"/>
		</g>
	</g>
	<g>
		<g>
			<path fill="#FFFFFF" d="M407.827,481.104c-0.218,2.476-0.564,5.231,0.258,7.633c0.722,2.111,2.556,3.759,4.556,4.638
				c1.942,0.854,4.26,1.064,6.201,0.072c2.311-1.18,3.196-3.388,3.513-5.832c0.175-1.35-1.275-2.487-2.5-2.5
				c-1.494-0.016-2.327,1.166-2.5,2.5c-0.256,1.972-2.187,1.729-3.492,0.759c-2.094-1.556-1.233-5.035-1.036-7.271
				C413.109,477.9,408.107,477.919,407.827,481.104L407.827,481.104z"/>
		</g>
	</g>
	<g>
		<g>
			<path fill="#FFFFFF" d="M417.99,466.575c0,9.74,0,19.48,0,29.219c0,3.217,5,3.223,5,0c0-9.74,0-19.48,0-29.219
				C422.99,463.357,417.99,463.352,417.99,466.575L417.99,466.575z"/>
		</g>
	</g>
	<g>
		<g>
			<path fill="#FFFFFF" d="M445.273,493.413c-8.298,0-16.595,0-24.893,0c-3.217,0-3.223,5,0,5c8.298,0,16.595,0,24.893,0
				C448.49,498.413,448.495,493.413,445.273,493.413L445.273,493.413z"/>
		</g>
	</g>
</g>
<g>
	<g>
		<path fill="#FFFFFF" d="M448.925,412.9c6.511-6.511,13.022-13.022,19.533-19.533c2.278-2.278-1.256-5.815-3.536-3.536
			c-6.511,6.511-13.022,13.022-19.533,19.533C443.112,411.643,446.646,415.179,448.925,412.9L448.925,412.9z"/>
	</g>
</g>
<g>
	<g>
		<path fill="#FFFFFF" d="M577.269,332.149c-5.406-18.571-10.812-37.141-16.22-55.711c-0.898-3.083-5.724-1.771-4.821,1.329
			c5.408,18.57,10.814,37.141,16.22,55.711C573.345,336.561,578.172,335.249,577.269,332.149L577.269,332.149z"/>
	</g>
</g>
<g>
	<g>
		<path fill="#FFFFFF" d="M311.431,328.337c-5.406-18.571-10.812-37.141-16.22-55.712c-0.898-3.083-5.724-1.771-4.821,1.329
			c5.408,18.57,10.814,37.141,16.22,55.711C307.507,332.75,312.334,331.438,311.431,328.337L311.431,328.337z"/>
	</g>
</g>
<g>
	<g>
		<path fill="#FFFFFF" d="M551.643,341.958c-13.975-8.258-27.949-16.516-41.924-24.773c-2.777-1.641-5.295,2.68-2.524,4.317
			c13.975,8.257,27.95,16.515,41.924,24.773C551.896,347.916,554.414,343.596,551.643,341.958L551.643,341.958z"/>
	</g>
</g>
<g>
	<g>
		<path fill="#FFFFFF" d="M457.202,293.866c-13.931-7.56-27.861-15.12-41.792-22.68c-2.829-1.535-5.356,2.78-2.524,4.317
			c13.931,7.559,27.862,15.12,41.792,22.68C457.507,299.718,460.034,295.403,457.202,293.866L457.202,293.866z"/>
	</g>
</g>
<g>
	<g>
		<path fill="#FFFFFF" d="M351.159,241.526c-8.882-3.62-17.765-7.24-26.647-10.86c-2.978-1.214-4.274,3.621-1.329,4.821
			c8.883,3.619,17.765,7.239,26.647,10.86C352.808,247.561,354.104,242.727,351.159,241.526L351.159,241.526z"/>
	</g>
</g>
<g>
	<g>
		<path fill="#FFFFFF" d="M345.237,303.614c-4.487,8.477-8.974,16.955-13.46,25.433c-1.504,2.842,2.81,5.372,4.317,2.524
			c4.486-8.478,8.973-16.956,13.46-25.433C351.059,303.295,346.745,300.765,345.237,303.614L345.237,303.614z"/>
	</g>
</g>
<g>
	<g>
		<path fill="#FFFFFF" d="M423.491,201.399c-7.993,5.302-15.987,10.603-23.98,15.905c-2.669,1.771-0.168,6.103,2.524,4.317
			c7.993-5.303,15.986-10.604,23.98-15.905C428.684,203.946,426.182,199.614,423.491,201.399L423.491,201.399z"/>
	</g>
</g>
<g>
	<g>
		<path fill="#FFFFFF" d="M519.249,269.05c-7.993,5.301-15.986,10.603-23.979,15.905c-2.669,1.771-0.168,6.103,2.524,4.317
			c7.992-5.303,15.986-10.604,23.979-15.905C524.442,271.597,521.94,267.265,519.249,269.05L519.249,269.05z"/>
	</g>
</g>
<g>
	<g>
		<path fill="#FFFFFF" d="M535.333,187.149c-17.061-10.384-34.122-20.768-51.183-31.151c-2.756-1.677-5.271,2.645-2.524,4.317
			c17.061,10.383,34.122,20.767,51.183,31.151C535.566,193.144,538.081,188.822,535.333,187.149L535.333,187.149z"/>
	</g>
</g>
<g>
	<g>
		<path fill="#FFFFFF" d="M400.393,153.114c-26.955,14.618-53.91,29.236-80.865,43.855c-2.829,1.535-0.308,5.853,2.524,4.317
			c26.955-14.618,53.91-29.237,80.865-43.855C405.746,155.897,403.225,151.578,400.393,153.114L400.393,153.114z"/>
	</g>
</g>
<g>
	<g>
		<path fill="#FFFFFF" d="M476.27,281.967c-8.901-25.029-17.8-50.058-26.701-75.087c-1.071-3.01-5.904-1.713-4.821,1.329
			c8.902,25.028,17.8,50.058,26.701,75.087C472.519,286.307,477.352,285.01,476.27,281.967L476.27,281.967z"/>
	</g>
</g>
<g>
	<g>
		<path fill="#FFFFFF" d="M458.78,428.788c27.87-6.988,55.74-13.974,83.61-20.962c3.119-0.782,1.798-5.605-1.329-4.821
			c-27.87,6.988-55.74,13.974-83.61,20.962C454.331,424.749,455.653,429.572,458.78,428.788L458.78,428.788z"/>
	</g>
</g>
<g>
	<g>
		<path fill="#FFFFFF" d="M413.362,415.074c-20.274-6.882-40.548-13.763-60.823-20.645c-3.054-1.036-4.364,3.791-1.329,4.821
			c20.274,6.882,40.548,13.763,60.823,20.645C415.087,420.932,416.398,416.104,413.362,415.074L413.362,415.074z"/>
	</g>
</g>
<g>
	<g>
		<circle fill="#FFFFFF" cx="598.969" cy="132.425" r="4.129"/>
	</g>
	<g>
		<circle fill="#FFFFFF" cx="491.618" cy="68.903" r="4.129"/>
	</g>
</g>
<g>
	<path fill="#FFFFFF" d="M226.252,144.822l-1.284,2.274c-0.728-0.423-1.312-0.636-1.752-0.639c-0.471-0.022-0.977,0.122-1.519,0.434
		c-0.667,0.383-1.111,0.89-1.334,1.521c-0.227,0.624-0.179,1.217,0.145,1.78c0.446,0.776,1.383,1.071,2.81,0.881l1.961-0.262
		c1.591-0.219,2.902-0.125,3.933,0.284c1.029,0.409,1.858,1.16,2.486,2.251c0.841,1.465,1.048,2.954,0.62,4.47
		c-0.431,1.526-1.373,2.708-2.83,3.545c-1.381,0.793-2.757,1.04-4.127,0.738c-1.355-0.309-2.569-1.141-3.642-2.499l2.124-1.934
		c0.647,0.872,1.21,1.407,1.69,1.606c0.889,0.403,1.808,0.331,2.756-0.213c0.749-0.43,1.227-1.038,1.434-1.824
		c0.207-0.785,0.089-1.563-0.354-2.333c-0.178-0.309-0.383-0.568-0.617-0.776c-0.233-0.208-0.504-0.369-0.811-0.481
		s-0.658-0.18-1.055-0.202c-0.397-0.023-0.845-0.006-1.342,0.051l-1.902,0.243c-2.707,0.331-4.57-0.391-5.589-2.163
		c-0.687-1.195-0.804-2.458-0.353-3.787c0.449-1.335,1.354-2.394,2.714-3.176C222.25,143.558,224.195,143.628,226.252,144.822z"/>
	<path fill="#FFFFFF" d="M233.498,151.9c-0.833-1.45-1.022-2.981-0.568-4.595c0.453-1.612,1.425-2.847,2.916-3.704
		c1.498-0.86,3.063-1.079,4.696-0.654c1.618,0.432,2.856,1.394,3.713,2.885c0.864,1.505,1.069,3.063,0.616,4.676
		c-0.465,1.61-1.455,2.852-2.974,3.724c-1.505,0.865-3.063,1.072-4.671,0.626C235.625,154.426,234.383,153.439,233.498,151.9z
		 M235.893,150.58c0.576,1.004,1.301,1.643,2.172,1.92c0.889,0.274,1.783,0.154,2.684-0.364c0.907-0.521,1.464-1.229,1.672-2.125
		c0.207-0.896,0.03-1.832-0.529-2.808c-0.561-0.976-1.28-1.599-2.158-1.872c-0.89-0.275-1.785-0.154-2.685,0.362
		c-0.887,0.51-1.435,1.218-1.646,2.125C235.192,148.726,235.355,149.645,235.893,150.58z"/>
	<path fill="#FFFFFF" d="M251.88,135.337l1.77,3.082c-0.899-0.341-1.629-0.512-2.186-0.513c-0.555-0.011-1.109,0.144-1.667,0.464
		c-0.872,0.501-1.421,1.224-1.647,2.167c-0.226,0.943-0.074,1.874,0.455,2.796c0.54,0.94,1.263,1.554,2.167,1.839
		c0.91,0.281,1.802,0.171,2.675-0.33c0.557-0.32,0.979-0.722,1.267-1.208c0.278-0.469,0.502-1.202,0.672-2.194l1.759,3.061
		c-0.661,1.029-1.463,1.814-2.403,2.354c-1.554,0.893-3.141,1.137-4.761,0.733c-1.625-0.411-2.867-1.365-3.729-2.863
		c-0.86-1.498-1.058-3.066-0.591-4.705c0.466-1.638,1.468-2.899,3.008-3.784C249.657,135.668,250.728,135.369,251.88,135.337z"/>
	<path fill="#FFFFFF" d="M251.13,129.641c-0.233-0.405-0.286-0.84-0.16-1.306c0.125-0.466,0.395-0.816,0.806-1.053
		c0.42-0.241,0.862-0.298,1.327-0.172c0.461,0.118,0.813,0.387,1.053,0.807c0.241,0.419,0.298,0.861,0.173,1.326
		c-0.119,0.462-0.388,0.813-0.807,1.054c-0.419,0.241-0.862,0.298-1.327,0.172C251.729,130.343,251.374,130.066,251.13,129.641z
		 M256.197,132.282l5.767,10.039l-2.319,1.332l-5.767-10.039L256.197,132.282z"/>
	<path fill="#FFFFFF" d="M266.535,126.344l2.329-1.339l5.767,10.039l-2.33,1.339l-0.604-1.052c-0.441,1.442-1.212,2.479-2.312,3.11
		c-1.388,0.798-2.823,0.955-4.307,0.473c-1.489-0.507-2.673-1.527-3.553-3.059c-0.864-1.505-1.136-3.017-0.812-4.538
		s1.162-2.669,2.517-3.447c1.167-0.67,2.492-0.792,3.972-0.363L266.535,126.344z M263.896,134.493
		c0.553,0.962,1.261,1.597,2.123,1.906c0.88,0.308,1.723,0.23,2.526-0.231c0.858-0.493,1.383-1.188,1.573-2.082
		c0.178-0.917-0.004-1.844-0.545-2.786s-1.252-1.566-2.131-1.874c-0.873-0.293-1.732-0.199-2.577,0.287
		c-0.798,0.458-1.29,1.144-1.479,2.056C263.21,132.685,263.38,133.594,263.896,134.493z"/>
	<path fill="#FFFFFF" d="M269.877,114.623l10,17.408l-2.318,1.332l-10-17.408L269.877,114.623z"/>
	<path fill="#FFFFFF" d="M286.318,110.167l7.845,13.657l-2.401,1.38l-7.846-13.657l-3.658,2.102l-1.297-2.257l9.71-5.577
		l1.296,2.257L286.318,110.167z"/>
	<path fill="#FFFFFF" d="M293.746,110.713l2.318-1.332l0.516,0.896c0.169-0.691,0.371-1.214,0.606-1.569
		c0.238-0.364,0.587-0.68,1.048-0.944c0.611-0.351,1.365-0.519,2.261-0.503l0.157,2.732c-0.621-0.063-1.142,0.026-1.561,0.267
		c-1.264,0.727-1.348,2.044-0.251,3.955l2.99,5.205l-2.319,1.332L293.746,110.713z"/>
	<path fill="#FFFFFF" d="M309.041,101.927l2.33-1.338l5.766,10.039l-2.329,1.338l-0.604-1.052c-0.441,1.442-1.212,2.479-2.311,3.11
		c-1.389,0.798-2.824,0.955-4.308,0.473c-1.488-0.507-2.673-1.527-3.553-3.06c-0.864-1.505-1.135-3.017-0.811-4.537
		c0.323-1.521,1.162-2.669,2.516-3.447c1.168-0.671,2.493-0.793,3.973-0.363L309.041,101.927z M306.402,110.076
		c0.553,0.962,1.261,1.597,2.123,1.907c0.88,0.307,1.723,0.23,2.526-0.231c0.859-0.494,1.383-1.188,1.573-2.082
		c0.178-0.916-0.004-1.844-0.544-2.786c-0.541-0.941-1.252-1.566-2.132-1.874c-0.873-0.293-1.731-0.199-2.577,0.287
		c-0.797,0.458-1.29,1.144-1.479,2.056C305.716,108.268,305.886,109.177,306.402,110.076z"/>
	<path fill="#FFFFFF" d="M322.359,94.852l1.77,3.082c-0.899-0.341-1.629-0.513-2.186-0.513c-0.555-0.011-1.109,0.144-1.667,0.464
		c-0.872,0.501-1.421,1.224-1.647,2.167c-0.226,0.943-0.074,1.874,0.455,2.796c0.54,0.94,1.263,1.554,2.166,1.839
		c0.91,0.281,1.803,0.171,2.676-0.33c0.557-0.32,0.979-0.722,1.267-1.208c0.278-0.469,0.503-1.202,0.672-2.194l1.759,3.061
		c-0.661,1.029-1.463,1.814-2.404,2.354c-1.553,0.893-3.14,1.136-4.76,0.733c-1.625-0.411-2.867-1.365-3.729-2.863
		c-0.86-1.498-1.058-3.066-0.592-4.705c0.467-1.638,1.469-2.9,3.008-3.784C320.137,95.183,321.207,94.883,322.359,94.852z"/>
	<path fill="#FFFFFF" d="M322.443,84.427l6.098,10.616l1.402-5.124l3.113-1.788l-1.939,6.72l8.025,3.135l-3.01,1.729l-5.752-2.33
		l-0.158,0.584l2.221,3.865l-2.319,1.333l-10-17.408L322.443,84.427z"/>
	<path fill="#FFFFFF" d="M339.236,76.768l10.254,8.257l-2.226-13.897l10.698,9.03l-1.709-13.165l2.607-1.498l2.609,21.009
		l-10.569-8.925l2.217,13.737l-16.489-13.051L339.236,76.768z"/>
	<path fill="#FFFFFF" d="M361.023,66.514c-0.233-0.405-0.287-0.839-0.16-1.305c0.125-0.466,0.395-0.816,0.807-1.053
		c0.419-0.241,0.861-0.298,1.326-0.172c0.461,0.118,0.813,0.387,1.053,0.807c0.241,0.419,0.298,0.861,0.173,1.326
		c-0.119,0.462-0.388,0.813-0.807,1.054c-0.419,0.241-0.862,0.298-1.327,0.172C361.623,67.217,361.268,66.94,361.023,66.514z
		 M366.091,69.155l5.767,10.039l-2.319,1.332l-5.767-10.039L366.091,69.155z"/>
	<path fill="#FFFFFF" d="M369.028,67.468l2.329-1.338l0.532,0.928c0.35-1.269,1.032-2.196,2.05-2.781
		c1.168-0.671,2.289-0.827,3.364-0.466c0.923,0.303,1.791,1.161,2.604,2.575l3.535,6.154l-2.33,1.338l-3.221-5.606
		c-0.568-0.99-1.098-1.595-1.591-1.815c-0.488-0.231-1.087-0.143-1.794,0.263c-0.771,0.442-1.17,1.01-1.201,1.704
		c-0.028,0.684,0.316,1.65,1.035,2.901l2.783,4.845l-2.329,1.338L369.028,67.468z"/>
	<path fill="#FFFFFF" d="M380.604,60.819l2.328-1.338l0.533,0.928c0.35-1.27,1.032-2.197,2.049-2.781
		c1.168-0.671,2.29-0.827,3.365-0.467c0.923,0.303,1.791,1.161,2.604,2.575l3.535,6.154l-2.33,1.338l-3.221-5.606
		c-0.568-0.99-1.098-1.595-1.591-1.815c-0.488-0.231-1.087-0.143-1.795,0.264c-0.77,0.442-1.17,1.01-1.2,1.703
		c-0.028,0.685,0.316,1.65,1.035,2.901l2.783,4.845l-2.33,1.338L380.604,60.819z"/>
	<path fill="#FFFFFF" d="M404.516,54.484l-7.193,4.133c0.535,0.788,1.181,1.291,1.935,1.507c0.751,0.208,1.497,0.1,2.239-0.326
		c0.577-0.332,0.976-0.744,1.195-1.236c0.213-0.487,0.344-1.239,0.392-2.252l2.587-0.034c-0.007,0.689-0.072,1.314-0.198,1.875
		c-0.126,0.562-0.313,1.071-0.562,1.529c-0.249,0.458-0.564,0.871-0.947,1.237c-0.385,0.367-0.837,0.701-1.359,1
		c-1.498,0.861-2.977,1.07-4.437,0.629c-1.463-0.447-2.655-1.472-3.574-3.073c-0.912-1.588-1.211-3.125-0.896-4.613
		c0.33-1.478,1.227-2.637,2.689-3.478c1.479-0.849,2.916-1.049,4.316-0.601c1.389,0.445,2.559,1.495,3.51,3.151L404.516,54.484z
		 M401.047,53.956c-1.034-1.052-2.169-1.222-3.406-0.511c-0.281,0.161-0.521,0.357-0.72,0.584c-0.197,0.229-0.352,0.481-0.462,0.759
		c-0.109,0.278-0.172,0.571-0.186,0.882c-0.014,0.31,0.023,0.63,0.114,0.962L401.047,53.956z"/>
	<path fill="#FFFFFF" d="M403.855,47.462l2.319-1.332l0.515,0.896c0.169-0.69,0.372-1.214,0.606-1.569
		c0.239-0.364,0.587-0.679,1.048-0.943c0.611-0.352,1.365-0.519,2.261-0.504l0.157,2.733c-0.621-0.063-1.141,0.025-1.561,0.267
		c-1.264,0.726-1.348,2.043-0.25,3.954l2.99,5.205l-2.319,1.332L403.855,47.462z"/>
</g>
<g>
	<g>
		<g>
			<path fill="#FFFFFF" d="M519.576,506.519l1.867-1.085l3.838,6.609c0.317-0.984,0.877-1.708,1.68-2.174
				c0.913-0.53,1.816-0.659,2.708-0.384c0.765,0.245,1.474,0.931,2.13,2.061l2.878,4.957l-1.868,1.085l-2.777-4.783
				c-0.376-0.647-0.764-1.051-1.161-1.208c-0.399-0.157-0.853-0.087-1.362,0.209c-0.653,0.379-0.996,0.847-1.026,1.406
				c-0.023,0.561,0.256,1.339,0.834,2.335l2.271,3.911l-1.868,1.085L519.576,506.519z"/>
		</g>
		<g>
			<path fill="#FFFFFF" d="M538.308,503.58l1.877-1.09l4.696,8.088l-1.876,1.09l-0.493-0.847c-0.352,1.166-0.97,2.006-1.855,2.521
				c-1.118,0.649-2.277,0.783-3.478,0.398c-1.204-0.403-2.164-1.223-2.881-2.457c-0.705-1.213-0.928-2.433-0.673-3.663
				c0.256-1.229,0.929-2.16,2.02-2.793c0.942-0.546,2.011-0.649,3.208-0.307L538.308,503.58z M536.208,510.174
				c0.45,0.775,1.024,1.285,1.722,1.531c0.712,0.246,1.392,0.18,2.04-0.196c0.692-0.401,1.113-0.965,1.263-1.689
				c0.14-0.739-0.009-1.489-0.451-2.248c-0.44-0.758-1.016-1.26-1.729-1.505c-0.706-0.234-1.398-0.153-2.079,0.242
				c-0.642,0.373-1.038,0.928-1.187,1.666C535.647,508.716,535.787,509.448,536.208,510.174z"/>
		</g>
		<g>
			<path fill="#FFFFFF" d="M549.04,497.815l1.441,2.482c-0.728-0.273-1.317-0.408-1.768-0.405c-0.448-0.007-0.896,0.121-1.344,0.381
				c-0.703,0.408-1.144,0.993-1.323,1.755c-0.178,0.764-0.053,1.516,0.377,2.257c0.441,0.758,1.026,1.251,1.758,1.478
				c0.737,0.224,1.456,0.132,2.159-0.277c0.448-0.26,0.788-0.588,1.019-0.98c0.222-0.381,0.401-0.973,0.534-1.776l1.432,2.465
				c-0.531,0.834-1.175,1.471-1.933,1.911c-1.251,0.726-2.532,0.931-3.843,0.609c-1.314-0.325-2.321-1.091-3.022-2.298
				s-0.866-2.472-0.496-3.797c0.371-1.326,1.175-2.348,2.415-3.068C547.246,498.091,548.109,497.844,549.04,497.815z"/>
		</g>
		<g>
			<path fill="#FFFFFF" d="M549.069,489.395l4.966,8.552l1.113-4.143l2.508-1.457l-1.541,5.436l6.494,2.503l-2.425,1.408
				l-4.655-1.86l-0.125,0.472l1.808,3.115l-1.868,1.085l-8.143-14.024L549.069,489.395z"/>
		</g>
		<g>
			<path fill="#FFFFFF" d="M565.079,488.037l1.876-1.09l4.697,8.087l-1.877,1.09l-0.493-0.846c-0.351,1.166-0.97,2.006-1.855,2.521
				c-1.118,0.649-2.277,0.783-3.478,0.397c-1.203-0.403-2.164-1.223-2.881-2.457c-0.705-1.213-0.927-2.433-0.672-3.663
				c0.256-1.229,0.929-2.161,2.02-2.793c0.941-0.546,2.01-0.649,3.207-0.308L565.079,488.037z M562.978,494.631
				c0.451,0.775,1.024,1.285,1.722,1.531c0.712,0.246,1.393,0.18,2.04-0.196c0.692-0.401,1.113-0.964,1.263-1.688
				c0.141-0.739-0.009-1.489-0.451-2.248c-0.44-0.758-1.016-1.26-1.729-1.505c-0.705-0.234-1.398-0.153-2.08,0.242
				c-0.642,0.373-1.038,0.928-1.186,1.666C562.417,493.172,562.557,493.904,562.978,494.631z"/>
		</g>
		<g>
			<path fill="#FFFFFF" d="M572.252,486.203l3.684,6.344l-1.867,1.084l-3.684-6.344l-0.797,0.463l-1.012-1.744l0.797-0.462
				l-1.721-2.965l1.868-1.084l1.721,2.964l1.453-0.844l1.012,1.744L572.252,486.203z"/>
		</g>
		<g>
			<path fill="#FFFFFF" d="M570.517,476.942l1.867-1.085l3.838,6.609c0.317-0.984,0.877-1.708,1.68-2.174
				c0.914-0.531,1.816-0.659,2.708-0.384c0.764,0.245,1.473,0.931,2.129,2.061l2.878,4.957l-1.868,1.085l-2.777-4.783
				c-0.376-0.647-0.764-1.05-1.161-1.207c-0.399-0.157-0.853-0.087-1.362,0.209c-0.653,0.379-0.995,0.846-1.026,1.406
				c-0.022,0.56,0.256,1.339,0.834,2.335l2.271,3.911l-1.868,1.085L570.517,476.942z"/>
		</g>
		<g>
			<path fill="#FFFFFF" d="M585.221,481.671c-0.679-1.168-0.837-2.404-0.478-3.709c0.361-1.303,1.141-2.306,2.343-3.002
				c1.207-0.701,2.47-0.883,3.79-0.547c1.309,0.343,2.313,1.115,3.01,2.316c0.704,1.213,0.875,2.472,0.515,3.776
				c-0.369,1.302-1.164,2.308-2.388,3.018c-1.213,0.705-2.469,0.879-3.771,0.524C586.948,483.703,585.94,482.911,585.221,481.671z
				 M587.15,480.596c0.469,0.808,1.056,1.322,1.761,1.542c0.719,0.219,1.44,0.118,2.166-0.302c0.73-0.425,1.178-0.998,1.343-1.723
				c0.164-0.724,0.017-1.479-0.44-2.267c-0.456-0.786-1.04-1.287-1.75-1.504c-0.719-0.217-1.441-0.117-2.166,0.305
				c-0.715,0.415-1.155,0.988-1.321,1.72C586.577,479.1,586.713,479.843,587.15,480.596z"/>
		</g>
		<g>
			<path fill="#FFFFFF" d="M593.51,471.529l1.877-1.09l0.433,0.747c0.277-1.026,0.825-1.778,1.645-2.253
				c0.942-0.546,1.846-0.677,2.716-0.389c0.747,0.239,1.451,0.93,2.113,2.071l2.878,4.957l-1.877,1.09l-2.623-4.518
				c-0.463-0.797-0.893-1.284-1.292-1.46c-0.396-0.185-0.878-0.111-1.449,0.219c-0.62,0.36-0.942,0.821-0.963,1.382
				c-0.02,0.551,0.263,1.331,0.847,2.338l2.267,3.903l-1.877,1.09L593.51,471.529z"/>
		</g>
		<g>
			<path fill="#FFFFFF" d="M614.803,467.548l4.774-2.772l1.057,1.819l-8.611,4.999l1.322-7.973c0.125-0.791,0.222-1.469,0.29-2.034
				c0.068-0.564,0.102-1.025,0.103-1.381c0.013-0.703-0.101-1.262-0.341-1.677c-0.347-0.598-0.848-0.977-1.504-1.137
				c-0.655-0.16-1.293-0.059-1.913,0.301c-1.295,0.752-1.592,1.949-0.89,3.592l-1.927,1.119c-1.259-2.882-0.678-5.026,1.74-6.43
				c1.168-0.678,2.364-0.875,3.586-0.594c1.228,0.279,2.16,0.966,2.796,2.062c0.405,0.698,0.617,1.489,0.635,2.375
				c0.013,0.458-0.021,1.031-0.105,1.72c-0.085,0.691-0.215,1.522-0.389,2.496L614.803,467.548z"/>
		</g>
		<g>
			<path fill="#FFFFFF" d="M619.047,458.833c-1.186-2.043-1.656-3.949-1.412-5.72c0.213-1.595,0.925-2.747,2.138-3.451
				c1.212-0.704,2.564-0.751,4.057-0.145c1.659,0.666,3.097,2.046,4.316,4.144c1.214,2.093,1.7,4.025,1.455,5.795
				c-0.214,1.596-0.923,2.745-2.129,3.446c-1.207,0.701-2.562,0.751-4.065,0.15C621.747,462.388,620.294,460.981,619.047,458.833z
				 M620.953,457.738c0.826,1.423,1.758,2.461,2.797,3.116c1.03,0.639,1.926,0.736,2.69,0.292c0.758-0.44,1.118-1.267,1.08-2.481
				c-0.036-1.208-0.46-2.513-1.273-3.913c-0.813-1.401-1.737-2.419-2.772-3.054c-1.032-0.629-1.927-0.724-2.684-0.284
				c-0.753,0.437-1.112,1.26-1.077,2.468C619.747,455.085,620.159,456.371,620.953,457.738z"/>
		</g>
		<g>
			<path fill="#FFFFFF" d="M630.805,445.966l-2.217,1.287l0.012-2.426l3.089-1.793l7.443,12.821l-1.935,1.123L630.805,445.966z"/>
		</g>
		<g>
			<path fill="#FFFFFF" d="M642.17,445.175c-1.327-0.118-2.323-0.75-2.988-1.896c-0.604-1.041-0.752-2.118-0.442-3.229
				c0.314-1.116,1.005-1.984,2.074-2.605c1.062-0.617,2.151-0.782,3.265-0.495c1.11,0.28,1.97,0.946,2.581,1.998
				c0.639,1.101,0.694,2.274,0.164,3.514c0.675-0.023,1.314,0.147,1.916,0.507c0.607,0.359,1.104,0.869,1.489,1.533
				c0.659,1.135,0.828,2.281,0.507,3.436c-0.32,1.157-1.059,2.07-2.217,2.742c-1.185,0.687-2.373,0.889-3.567,0.606
				c-1.2-0.281-2.12-0.974-2.763-2.082C641.354,447.765,641.347,446.422,642.17,445.175z M640.995,442.215
				c0.318,0.547,0.77,0.899,1.356,1.055c0.596,0.157,1.159,0.083,1.691-0.226c0.526-0.305,0.867-0.755,1.025-1.35
				c0.158-0.595,0.085-1.155-0.221-1.682c-0.306-0.525-0.756-0.867-1.351-1.026c-0.596-0.157-1.155-0.083-1.681,0.221
				c-0.526,0.306-0.867,0.756-1.026,1.351C640.631,441.153,640.7,441.705,640.995,442.215z M644.052,448.034
				c0.344,0.592,0.845,0.984,1.502,1.171c0.659,0.179,1.285,0.097,1.878-0.247c0.586-0.341,0.966-0.839,1.141-1.495
				c0.171-0.663,0.086-1.286-0.255-1.873c-0.344-0.592-0.844-0.975-1.5-1.15c-0.656-0.174-1.277-0.09-1.864,0.25
				c-0.581,0.337-0.962,0.836-1.141,1.495C643.638,446.842,643.719,447.458,644.052,448.034z"/>
		</g>
	</g>
	<g>
		<g>
			<path fill="#FFFFFF" d="M445.605,561.593c-0.084-0.142-0.168-0.283-0.251-0.426c-0.082-0.143-0.162-0.287-0.205-0.448
				c-0.034-0.126-0.108-0.234-0.166-0.349c-0.042-0.083-0.091-0.163-0.096-0.26c-0.001-0.021-0.006-0.043-0.015-0.062
				c-0.084-0.166-0.148-0.338-0.202-0.517c-0.05-0.163-0.094-0.328-0.142-0.492c-0.066-0.225-0.116-0.456-0.161-0.687
				c-0.064-0.328-0.111-0.658-0.142-0.991c-0.04-0.429-0.05-0.857-0.041-1.288c0.006-0.328,0.052-0.651,0.082-0.977
				c0.027-0.29,0.109-0.57,0.155-0.856c0.06-0.369,0.175-0.72,0.283-1.075c0.168-0.55,0.396-1.076,0.662-1.584
				c0.175-0.333,0.372-0.656,0.576-0.973c0.114-0.176,0.233-0.353,0.368-0.513c0.132-0.156,0.236-0.336,0.397-0.467
				c0.057-0.047,0.066-0.127,0.131-0.167c0.055-0.034,0.091-0.086,0.127-0.142c0.058-0.09,0.156-0.142,0.228-0.224
				c0.116-0.134,0.253-0.25,0.387-0.367c0.156-0.136,0.324-0.259,0.477-0.399c0.144-0.131,0.304-0.238,0.461-0.351
				c0.338-0.242,0.68-0.479,1.051-0.666c0.472-0.239,0.949-0.468,1.45-0.644c0.188-0.066,0.377-0.133,0.568-0.188
				c0.155-0.044,0.305-0.122,0.473-0.12c0.114-0.069,0.253-0.04,0.37-0.095c0.092-0.044,0.194-0.031,0.291-0.054
				c0.211-0.049,0.429-0.073,0.645-0.094c0.409-0.04,0.82-0.062,1.231-0.058c0.411,0.004,0.819,0.052,1.228,0.091
				c0.407,0.039,0.796,0.163,1.199,0.216c0.063,0.008,0.124,0.033,0.185,0.053c0.135,0.044,0.266,0.1,0.403,0.132
				c0.343,0.079,0.661,0.22,0.981,0.36c0.252,0.11,0.506,0.217,0.749,0.345c0.262,0.138,0.515,0.294,0.767,0.452
				c0.338,0.212,0.66,0.448,0.963,0.705c0.172,0.146,0.364,0.273,0.502,0.457c0.146,0.07,0.201,0.24,0.345,0.315
				c0.035,0.018,0.058,0.062,0.083,0.097c0.051,0.07,0.1,0.138,0.172,0.189c0.04,0.028,0.071,0.07,0.1,0.11
				c0.062,0.088,0.119,0.176,0.211,0.24c0.045,0.031,0.075,0.086,0.106,0.133c0.094,0.144,0.186,0.289,0.301,0.418
				c0.125,0.14,0.22,0.3,0.315,0.46c0.113,0.191,0.226,0.383,0.338,0.574c0.094,0.161,0.189,0.321,0.249,0.499
				c0.051,0.15,0.127,0.288,0.2,0.427c0.043,0.082,0.094,0.162,0.093,0.26c0,0.014,0.003,0.029,0.009,0.042
				c0.081,0.159,0.138,0.326,0.186,0.498c0.026,0.095,0.07,0.182,0.086,0.284c0.018,0.117,0.066,0.231,0.097,0.348
				c0.09,0.336,0.155,0.675,0.209,1.019c0.076,0.485,0.112,0.97,0.118,1.461c0.003,0.255-0.027,0.508-0.012,0.762
				c-0.074,0.512-0.106,1.031-0.238,1.535c-0.038,0.144-0.055,0.294-0.096,0.437c-0.067,0.234-0.148,0.463-0.217,0.696
				c-0.076,0.259-0.196,0.501-0.295,0.75c-0.235,0.589-0.558,1.133-0.894,1.668c-0.174,0.186-0.28,0.422-0.458,0.607
				c-0.066,0.069-0.119,0.156-0.184,0.23c-0.144,0.165-0.272,0.346-0.431,0.495c-0.119,0.112-0.212,0.253-0.356,0.338
				c-0.278,0.311-0.623,0.545-0.936,0.816c-0.011,0.009-0.022,0.018-0.034,0.026c-0.412,0.273-0.803,0.579-1.25,0.793
				c-0.335,0.16-0.658,0.345-1.009,0.475c-0.214,0.079-0.429,0.16-0.641,0.245c-0.138,0.055-0.286,0.086-0.428,0.133
				c-0.175,0.057-0.354,0.109-0.535,0.138c-0.215,0.035-0.422,0.117-0.644,0.113c-0.43,0.097-0.868,0.127-1.306,0.141
				c-0.418,0.013-0.838,0.02-1.255-0.042c-0.195-0.029-0.395-0.034-0.59-0.064c-0.238-0.037-0.473-0.097-0.711-0.134
				c-0.453-0.07-0.876-0.243-1.312-0.369c-0.231-0.066-0.446-0.184-0.671-0.274c-0.33-0.132-0.642-0.3-0.951-0.473
				c-0.382-0.213-0.744-0.459-1.096-0.719c-0.195-0.144-0.38-0.302-0.562-0.463c-0.177-0.155-0.339-0.326-0.511-0.485
				c-0.125-0.117-0.218-0.265-0.362-0.362c-0.028-0.019-0.048-0.053-0.068-0.082c-0.077-0.112-0.152-0.223-0.262-0.31
				c-0.059-0.047-0.096-0.124-0.137-0.191c-0.08-0.128-0.169-0.248-0.272-0.358c-0.048-0.052-0.092-0.11-0.129-0.17
				c-0.112-0.184-0.219-0.37-0.328-0.555C445.607,561.591,445.606,561.592,445.605,561.593z M452.374,557.456
				c0.194-0.157,0.371-0.327,0.572-0.46c0.406-0.267,0.816-0.532,1.273-0.71c0.188-0.073,0.354-0.192,0.541-0.26
				c0.34-0.122,0.646-0.305,0.955-0.486c0.167-0.098,0.332-0.197,0.465-0.342c0.033-0.036,0.076-0.067,0.12-0.09
				c0.169-0.089,0.258-0.266,0.414-0.369c0.204-0.278,0.423-0.545,0.54-0.88c0.167-0.478,0.171-0.947-0.036-1.412
				c-0.079-0.177-0.18-0.342-0.293-0.5c-0.183-0.255-0.422-0.443-0.705-0.57c-0.314-0.141-0.643-0.207-0.99-0.209
				c-0.3-0.002-0.59,0.03-0.872,0.133c-0.019,0.007-0.042,0.011-0.063,0.008c-0.069-0.008-0.125,0.026-0.182,0.055
				c-0.28,0.145-0.55,0.307-0.813,0.481c-0.042,0.028-0.089,0.051-0.11,0.099c-0.031,0.071-0.093,0.106-0.151,0.148
				c-0.029,0.021-0.064,0.039-0.083,0.067c-0.115,0.17-0.263,0.312-0.382,0.48c-0.203,0.287-0.371,0.593-0.487,0.92
				c-0.205,0.579-0.297,1.179-0.276,1.796c0.013,0.38,0.073,0.753,0.166,1.119c0.034,0.137,0.054,0.281,0.126,0.409
				c0.042,0.075,0.065,0.156,0.085,0.241C452.216,557.248,452.266,557.367,452.374,557.456z M453.565,557.386
				c-0.093,0.055-0.183,0.113-0.278,0.163c-0.104,0.054-0.18,0.14-0.259,0.222c-0.025,0.025-0.058,0.041-0.087,0.063
				c-0.102,0.077-0.226,0.123-0.296,0.242c-0.066,0.11-0.221,0.14-0.258,0.279c-0.162,0.181-0.281,0.387-0.386,0.606
				c-0.235,0.487-0.22,0.979-0.029,1.464c0.124,0.313,0.338,0.566,0.615,0.774c0.34,0.255,0.721,0.371,1.13,0.385
				c0.365,0.012,0.734-0.009,1.073-0.18c0.037-0.019,0.083-0.021,0.124-0.032c0.041-0.011,0.084-0.02,0.122-0.038
				c0.371-0.172,0.723-0.448,1.019-0.765c0.121-0.13,0.232-0.263,0.339-0.404c0.28-0.37,0.455-0.785,0.591-1.223
				c0.061-0.198,0.079-0.404,0.119-0.606c0.036-0.182,0.045-0.367,0.045-0.55c-0.001-0.364-0.035-0.725-0.109-1.083
				c-0.02-0.099-0.068-0.188-0.084-0.287c-0.034-0.213-0.132-0.405-0.199-0.607c-0.013-0.04-0.038-0.077-0.061-0.113
				c-0.034-0.055-0.06-0.058-0.12-0.014c-0.143,0.107-0.293,0.205-0.42,0.333c-0.05,0.05-0.112,0.089-0.173,0.125
				c-0.271,0.161-0.543,0.32-0.816,0.476c-0.074,0.042-0.153,0.079-0.235,0.104c-0.124,0.039-0.239,0.095-0.352,0.157
				c-0.12,0.065-0.236,0.14-0.363,0.184C453.984,557.141,453.773,557.259,453.565,557.386z"/>
		</g>
		<g>
			<path fill="#FFFFFF" d="M493.445,535.252c0.702,1.192,1.405,2.384,2.107,3.576c0.053,0.09,0.109,0.178,0.157,0.271
				c0.079,0.152,0.058,0.224-0.092,0.326c-0.076,0.051-0.156,0.095-0.235,0.142c-0.562,0.331-1.123,0.665-1.687,0.993
				c-0.537,0.313-0.433,0.341-0.746-0.178c-0.067-0.112-0.132-0.225-0.2-0.337c-0.02-0.033-0.041-0.069-0.071-0.092
				c-0.029-0.022-0.069-0.032-0.101,0.007c-0.052,0.063-0.073,0.138-0.084,0.216c-0.068,0.513-0.295,0.966-0.586,1.377
				c-0.144,0.204-0.287,0.435-0.531,0.558c-0.057,0.029-0.107,0.076-0.15,0.124c-0.276,0.314-0.612,0.52-1.025,0.601
				c-0.05,0.01-0.099,0.033-0.145,0.058c-0.399,0.213-0.834,0.241-1.274,0.273c-0.511,0.037-1.005-0.036-1.491-0.172
				c-0.423-0.118-0.823-0.298-1.192-0.539c-0.151-0.099-0.297-0.205-0.444-0.309c-0.22-0.157-0.43-0.328-0.598-0.543
				c-0.056-0.072-0.102-0.156-0.17-0.214c-0.4-0.341-0.597-0.818-0.853-1.255c-0.045-0.076-0.058-0.171-0.085-0.258
				c-0.027-0.087-0.043-0.18-0.083-0.26c-0.201-0.402-0.252-0.837-0.298-1.274c-0.077-0.736,0.025-1.45,0.289-2.135
				c0.163-0.421,0.402-0.804,0.665-1.177c0.191-0.271,0.497-0.416,0.667-0.697c0.389-0.229,0.731-0.553,1.207-0.611
				c0.038-0.005,0.076-0.021,0.111-0.036c0.491-0.221,1.004-0.223,1.523-0.156c0.206,0.027,0.413,0.061,0.606,0.143
				c0.087,0.037,0.174,0.052,0.266,0.044c0.048-0.004,0.065-0.049,0.051-0.082c-0.036-0.084-0.081-0.163-0.126-0.242
				c-0.103-0.181-0.21-0.361-0.313-0.542c-0.046-0.081-0.024-0.149,0.053-0.199c0.131-0.086,0.258-0.177,0.393-0.258
				c0.505-0.3,1.01-0.6,1.519-0.894c0.146-0.085,0.301-0.156,0.455-0.226c0.079-0.036,0.153-0.012,0.201,0.067
				c0.054,0.089,0.108,0.179,0.161,0.269C492.014,532.823,492.729,534.037,493.445,535.252z M486.912,539.072
				c0.204,0.377,0.506,0.651,0.864,0.872c0.554,0.342,1.135,0.48,1.771,0.263c0.049-0.017,0.101-0.031,0.152-0.034
				c0.163-0.012,0.294-0.096,0.433-0.169c0.25-0.132,0.37-0.401,0.598-0.556c0.291-0.471,0.47-0.968,0.427-1.537
				c-0.018-0.237-0.1-0.451-0.151-0.677c-0.047-0.209-0.128-0.402-0.256-0.566c-0.297-0.381-0.642-0.717-1.09-0.913
				c-0.698-0.305-1.387-0.28-2.05,0.115c-0.202,0.12-0.368,0.269-0.522,0.455c-0.143,0.173-0.267,0.347-0.348,0.551
				C486.44,537.635,486.525,538.366,486.912,539.072z"/>
		</g>
		<g>
			<path fill="#FFFFFF" d="M508.586,526.012c0.729,1.238,1.459,2.476,2.188,3.714c0.148,0.251,0.22,0.288-0.114,0.484
				c-0.676,0.397-1.351,0.795-2.026,1.193c-0.022,0.013-0.045,0.027-0.068,0.039c-0.178,0.092-0.214,0.085-0.316-0.078
				c-0.097-0.155-0.186-0.315-0.28-0.472c-0.033-0.056-0.065-0.114-0.105-0.165c-0.021-0.027-0.058-0.05-0.091-0.056
				c-0.053-0.009-0.062,0.043-0.064,0.078c-0.015,0.209-0.062,0.408-0.129,0.608c-0.128,0.383-0.317,0.722-0.579,1.034
				c-0.137,0.163-0.28,0.301-0.448,0.422c-0.032,0.023-0.067,0.045-0.089,0.076c-0.231,0.322-0.58,0.497-0.922,0.639
				c-0.366,0.152-0.745,0.322-1.15,0.338c-0.752,0.03-1.464-0.095-2.075-0.596c-0.174-0.143-0.336-0.283-0.455-0.473
				c-0.034-0.055-0.069-0.116-0.12-0.154c-0.239-0.178-0.376-0.432-0.522-0.678c-0.978-1.652-1.954-3.306-2.929-4.96
				c-0.18-0.305-0.177-0.311,0.111-0.482c0.651-0.387,1.305-0.77,1.958-1.155c0.045-0.026,0.089-0.054,0.136-0.077
				c0.141-0.069,0.219-0.054,0.304,0.067c0.06,0.085,0.11,0.177,0.163,0.267c0.677,1.148,1.352,2.296,2.03,3.443
				c0.16,0.27,0.325,0.536,0.496,0.799c0.205,0.314,0.602,0.612,0.946,0.777c0.151,0.073,0.314,0.105,0.452,0.079
				c0.429-0.081,0.884-0.133,1.152-0.557c0.076-0.12,0.211-0.178,0.285-0.313c0.201-0.365,0.22-0.747,0.146-1.137
				c-0.073-0.385-0.214-0.744-0.419-1.086c-0.739-1.232-1.462-2.474-2.19-3.713c-0.298-0.506-0.302-0.433,0.185-0.723
				c0.584-0.347,1.17-0.691,1.756-1.034c0.09-0.053,0.182-0.102,0.277-0.146c0.066-0.03,0.131-0.008,0.171,0.051
				c0.066,0.097,0.128,0.197,0.187,0.298C507.154,523.581,507.87,524.796,508.586,526.012z"/>
		</g>
		<g>
			<path fill="#FFFFFF" d="M472.445,549.03c0.337-0.199,0.675-0.397,1.012-0.597c0.156-0.092,0.214-0.128,0.357,0.054
				c0.229,0.291,0.539,0.438,0.914,0.381c0.376-0.057,0.737-0.163,1.048-0.4c0.18-0.136,0.304-0.321,0.436-0.494
				c0.102-0.133,0.119-0.305,0.045-0.482c-0.147-0.352-0.342-0.496-0.722-0.467c-0.246,0.019-0.492,0.056-0.733,0.109
				c-0.531,0.116-1.055,0.276-1.59,0.366c-0.505,0.085-1.003,0.229-1.524,0.218c-0.418-0.009-0.819-0.062-1.192-0.265
				c-0.241-0.131-0.472-0.271-0.617-0.517c-0.033-0.056-0.075-0.108-0.123-0.152c-0.139-0.126-0.231-0.278-0.276-0.461
				c-0.019-0.075-0.052-0.148-0.087-0.218c-0.372-0.753-0.249-1.485,0.121-2.189c0.141-0.269,0.3-0.544,0.56-0.73
				c0.104-0.227,0.316-0.338,0.508-0.471c0.053-0.037,0.104-0.08,0.148-0.127c0.417-0.453,0.984-0.675,1.501-0.972
				c0.21-0.025,0.407-0.089,0.586-0.2c0.173-0.107,0.39-0.038,0.562-0.147c0.604-0.069,1.204-0.116,1.79,0.127
				c0.44,0.182,0.825,0.429,1.122,0.804c0.073,0.092,0.152,0.179,0.222,0.274c0.12,0.164,0.106,0.224-0.075,0.342
				c-0.044,0.029-0.089,0.054-0.134,0.08c-0.596,0.351-1.192,0.703-1.789,1.054c-0.068,0.04-0.134,0.083-0.204,0.116
				c-0.112,0.053-0.196,0.034-0.278-0.06c-0.051-0.059-0.09-0.129-0.143-0.186c-0.154-0.163-0.336-0.285-0.565-0.295
				c-0.391-0.018-0.754,0.069-1.025,0.375c-0.127,0.144-0.291,0.254-0.355,0.457c-0.131,0.412,0.135,0.882,0.564,0.934
				c0.191,0.023,0.394,0.017,0.583-0.018c0.486-0.091,0.967-0.208,1.451-0.313c0.605-0.131,1.198-0.323,1.821-0.36
				c0.468-0.027,0.929-0.01,1.357,0.23c0.172,0.096,0.341,0.2,0.466,0.344c0.272,0.314,0.506,0.647,0.668,1.047
				c0.328,0.81,0.206,1.571-0.126,2.331c-0.108,0.247-0.41,0.644-0.617,0.833c-0.124,0.113-0.182,0.282-0.342,0.368
				c-0.137,0.073-0.283,0.156-0.381,0.271c-0.245,0.287-0.573,0.448-0.886,0.634c-0.146,0.086-0.296,0.162-0.463,0.206
				c-0.125,0.033-0.256,0.075-0.362,0.146c-0.28,0.186-0.609,0.236-0.919,0.309c-0.255,0.06-0.527,0.105-0.802,0.097
				c-0.378-0.011-0.754-0.05-1.101-0.189c-0.369-0.147-0.739-0.315-0.991-0.651c-0.243-0.127-0.367-0.358-0.505-0.577
				c-0.021-0.033-0.041-0.067-0.058-0.102c-0.052-0.105-0.04-0.159,0.069-0.227c0.211-0.13,0.426-0.255,0.639-0.381
				C472.153,549.202,472.299,549.116,472.445,549.03C472.445,549.03,472.445,549.03,472.445,549.03z"/>
		</g>
		<g>
			<path fill="#FFFFFF" d="M514.545,520.363c-0.304,0.179-0.607,0.358-0.911,0.536c-0.079,0.046-0.159,0.091-0.241,0.13
				c-0.066,0.031-0.128,0.014-0.172-0.045c-0.078-0.103-0.145-0.213-0.249-0.299c-0.466-0.382-1.094-0.251-1.5,0.105
				c-0.097,0.086-0.186,0.183-0.266,0.286c-0.283,0.363-0.257,0.88,0.277,1.129c0.045,0.021,0.1,0.028,0.15,0.029
				c0.234,0.005,0.467,0.009,0.699-0.042c0.482-0.105,0.967-0.199,1.446-0.322c0.337-0.087,0.676-0.188,1.018-0.243
				c0.491-0.079,0.986-0.149,1.491-0.051c0.421,0.082,0.769,0.281,1.091,0.543c0.049,0.04,0.082,0.101,0.116,0.157
				c0.124,0.2,0.247,0.4,0.367,0.602c0.388,0.653,0.391,1.346,0.217,2.059c-0.116,0.476-0.406,0.857-0.669,1.253
				c-0.251,0.183-0.393,0.483-0.686,0.623c-0.08,0.038-0.152,0.102-0.216,0.166c-0.396,0.394-0.869,0.659-1.393,0.841
				c-0.111,0.038-0.221,0.082-0.325,0.136c-0.625,0.324-1.299,0.413-1.988,0.381c-0.5-0.023-0.967-0.177-1.385-0.466
				c-0.38-0.263-0.699-0.581-0.921-0.989c-0.083-0.153-0.069-0.227,0.09-0.321c0.662-0.394,1.326-0.784,1.99-1.174
				c0.022-0.013,0.045-0.027,0.069-0.037c0.151-0.065,0.239-0.056,0.337,0.089c0.187,0.277,0.453,0.376,0.767,0.368
				c0.451-0.011,1.13-0.25,1.409-0.641c0.13-0.182,0.274-0.339,0.283-0.576c0.008-0.213-0.189-0.5-0.388-0.571
				c-0.191-0.069-0.386-0.077-0.577-0.041c-0.37,0.07-0.735,0.167-1.105,0.235c-0.407,0.074-0.802,0.207-1.217,0.247
				c-0.191,0.019-0.375,0.088-0.568,0.118c-0.431,0.067-0.895,0.091-1.3,0.036c-0.605-0.083-1.07-0.399-1.414-0.88
				c-0.423-0.589-0.632-1.245-0.528-1.984c0.063-0.449,0.256-0.839,0.508-1.202c0.153-0.221,0.335-0.422,0.512-0.625
				c0.059-0.067,0.142-0.114,0.215-0.167c0.125-0.092,0.26-0.165,0.342-0.312c0.041-0.073,0.135-0.12,0.212-0.167
				c0.266-0.165,0.534-0.328,0.804-0.487c0.191-0.113,0.38-0.228,0.61-0.252c0.063-0.006,0.126-0.036,0.182-0.067
				c0.314-0.168,0.651-0.226,1.002-0.267c0.231-0.028,0.456-0.045,0.689-0.043c0.568,0.005,1.073,0.191,1.521,0.51
				c0.303,0.216,0.586,0.474,0.748,0.829c0.049,0.108,0.04,0.155-0.064,0.228c-0.021,0.015-0.044,0.028-0.066,0.042
				C515.219,519.965,514.882,520.164,514.545,520.363C514.544,520.363,514.545,520.363,514.545,520.363z"/>
		</g>
		<g>
			<path fill="#FFFFFF" d="M495.08,534.106c-0.345-0.585-0.689-1.17-1.034-1.754c-0.046-0.079-0.091-0.159-0.142-0.234
				c-0.085-0.125-0.166-0.151-0.3-0.08c-0.207,0.111-0.407,0.235-0.611,0.352c-0.09,0.052-0.18,0.108-0.275,0.15
				c-0.135,0.059-0.218,0.034-0.297-0.093c-0.111-0.177-0.214-0.359-0.32-0.538c-0.179-0.304-0.361-0.606-0.535-0.912
				c-0.102-0.179-0.087-0.235,0.093-0.348c0.21-0.131,0.427-0.253,0.64-0.38c0.078-0.047,0.156-0.095,0.233-0.144
				c0.079-0.051,0.089-0.131,0.06-0.206c-0.038-0.096-0.092-0.187-0.144-0.277c-0.337-0.574-0.677-1.147-1.013-1.722
				c-0.195-0.334-0.193-0.337,0.139-0.534c0.607-0.359,1.214-0.716,1.822-1.074c0.067-0.04,0.135-0.081,0.206-0.112
				c0.066-0.029,0.135-0.011,0.178,0.042c0.065,0.081,0.121,0.17,0.174,0.259c0.333,0.562,0.664,1.124,0.995,1.687
				c0.257,0.437,0.239,0.375,0.616,0.157c0.35-0.203,0.697-0.411,1.047-0.615c0.09-0.052,0.182-0.102,0.277-0.144
				c0.065-0.028,0.128-0.012,0.171,0.05c0.023,0.032,0.045,0.064,0.065,0.098c0.279,0.472,0.558,0.944,0.834,1.418
				c0.093,0.16,0.08,0.228-0.055,0.333c-0.072,0.056-0.152,0.102-0.23,0.148c-0.337,0.2-0.675,0.398-1.012,0.597
				c-0.078,0.047-0.156,0.095-0.231,0.147c-0.074,0.051-0.091,0.126-0.059,0.206c0.024,0.06,0.057,0.117,0.091,0.173
				c0.531,0.899,1.065,1.797,1.591,2.699c0.134,0.229,0.308,0.417,0.5,0.597c0.109,0.103,0.238,0.164,0.37,0.209
				c0.131,0.044,0.264,0.051,0.416,0.008c0.423-0.119,0.804-0.303,1.141-0.582c0.03-0.025,0.062-0.047,0.095-0.068
				c0.099-0.062,0.174-0.052,0.237,0.033c0.031,0.042,0.057,0.088,0.083,0.133c0.279,0.472,0.557,0.945,0.835,1.417
				c0.033,0.056,0.066,0.113,0.092,0.172c0.048,0.108,0.038,0.171-0.061,0.235c-0.567,0.369-1.049,0.862-1.671,1.152
				c-0.141,0.066-0.27,0.154-0.432,0.174c-0.088,0.011-0.173,0.055-0.255,0.093c-0.852,0.399-1.647,0.314-2.404-0.25
				c-0.392-0.292-0.717-0.632-0.962-1.054c-0.315-0.542-0.635-1.08-0.954-1.62C495.083,534.104,495.082,534.105,495.08,534.106z"/>
		</g>
		<g>
			<path fill="#FFFFFF" d="M479.259,543.4c-0.338-0.573-0.676-1.147-1.014-1.72c-0.053-0.09-0.104-0.182-0.164-0.267
				c-0.07-0.098-0.162-0.122-0.274-0.067c-0.105,0.051-0.205,0.114-0.307,0.173c-0.181,0.104-0.358,0.216-0.543,0.312
				c-0.178,0.092-0.258,0.07-0.357-0.094c-0.282-0.47-0.561-0.942-0.835-1.417c-0.115-0.199-0.1-0.244,0.109-0.372
				c0.245-0.15,0.495-0.29,0.741-0.44c0.216-0.131,0.23-0.182,0.108-0.408c-0.093-0.172-0.197-0.338-0.296-0.507
				c-0.258-0.439-0.517-0.877-0.775-1.316c-0.053-0.09-0.102-0.182-0.144-0.277c-0.029-0.065-0.011-0.128,0.051-0.171
				c0.032-0.022,0.064-0.045,0.098-0.064c0.674-0.398,1.348-0.797,2.024-1.192c0.175-0.102,0.244-0.085,0.358,0.077
				c0.052,0.075,0.096,0.155,0.142,0.234c0.305,0.517,0.61,1.034,0.914,1.552c0.046,0.079,0.09,0.159,0.141,0.235
				c0.12,0.179,0.166,0.193,0.348,0.088c0.395-0.229,0.788-0.461,1.181-0.694c0.459-0.272,0.419-0.232,0.648,0.155
				c0.24,0.404,0.479,0.808,0.715,1.215c0.117,0.202,0.108,0.247-0.076,0.388c-0.082,0.063-0.173,0.116-0.263,0.169
				c-0.314,0.187-0.63,0.371-0.944,0.557c-0.078,0.047-0.156,0.095-0.231,0.147c-0.075,0.053-0.083,0.132-0.052,0.21
				c0.029,0.072,0.071,0.139,0.111,0.207c0.503,0.855,1.011,1.707,1.509,2.564c0.16,0.274,0.357,0.511,0.598,0.715
				c0.233,0.198,0.479,0.262,0.788,0.175c0.411-0.115,0.776-0.3,1.104-0.567c0.04-0.033,0.084-0.063,0.131-0.084
				c0.064-0.028,0.13-0.018,0.177,0.037c0.042,0.049,0.078,0.104,0.111,0.16c0.279,0.472,0.557,0.944,0.835,1.417
				c0.026,0.045,0.053,0.09,0.074,0.138c0.053,0.123,0.037,0.192-0.069,0.27c-0.073,0.054-0.153,0.099-0.227,0.153
				c-0.106,0.076-0.219,0.145-0.311,0.236c-0.368,0.364-0.833,0.579-1.272,0.834c-0.066,0.038-0.145,0.057-0.221,0.072
				c-0.117,0.023-0.223,0.07-0.329,0.12c-0.838,0.393-1.629,0.3-2.37-0.245c-0.38-0.279-0.707-0.61-0.946-1.023
				c-0.328-0.564-0.662-1.125-0.993-1.687C479.262,543.398,479.261,543.399,479.259,543.4z"/>
		</g>
	</g>
</g>
</svg>
