<?xml version="1.0" encoding="utf-8"?>
<!-- Generator: Adobe Illustrator 21.0.2, SVG Export Plug-In . SVG Version: 6.00 Build 0)  -->
<svg version="1.1" id="Layer_1" xmlns="http://www.w3.org/2000/svg" xmlns:xlink="http://www.w3.org/1999/xlink" x="0px" y="0px"
	 viewBox="0 0 841.89 595.28" enable-background="new 0 0 841.89 595.28" xml:space="preserve">
<g>
	<polygon fill="#8C8C8C" points="430.634,590.545 179.715,445.676 179.715,155.94 430.634,11.071 681.553,155.94 681.553,445.674 	
		"/>
</g>
<g enable-background="new    ">
	<path fill="#FFFFFF" d="M430.628,56.923L219.105,178.871v243.887l211.523,121.934l211.535-121.934V178.871L430.628,56.923z
		 M633.598,417.843L430.628,534.87L227.65,417.843V183.829L430.628,66.806l202.97,117.024V417.843z"/>
</g>
<g>
	<path fill="#FFFFFF" d="M224.585,145.438l-1.284,2.274c-0.728-0.424-1.312-0.637-1.752-0.64c-0.47-0.022-0.978,0.122-1.52,0.434
		c-0.667,0.384-1.11,0.891-1.333,1.521c-0.228,0.624-0.179,1.217,0.146,1.781c0.445,0.775,1.382,1.07,2.81,0.881l1.959-0.263
		c1.593-0.22,2.903-0.124,3.934,0.284c1.029,0.408,1.858,1.16,2.485,2.252c0.842,1.465,1.048,2.953,0.621,4.469
		c-0.43,1.527-1.373,2.709-2.83,3.546c-1.381,0.793-2.757,1.039-4.127,0.737c-1.355-0.308-2.569-1.141-3.642-2.498l2.124-1.934
		c0.647,0.871,1.21,1.406,1.689,1.605c0.891,0.403,1.81,0.332,2.757-0.213c0.749-0.43,1.227-1.037,1.434-1.823
		c0.207-0.785,0.089-1.563-0.354-2.334c-0.178-0.309-0.383-0.567-0.617-0.775c-0.233-0.208-0.503-0.369-0.81-0.481
		c-0.307-0.111-0.659-0.179-1.056-0.201c-0.397-0.023-0.845-0.006-1.342,0.051l-1.902,0.242c-2.707,0.332-4.57-0.391-5.588-2.163
		c-0.688-1.195-0.805-2.458-0.354-3.786c0.449-1.336,1.354-2.395,2.714-3.176C220.583,144.175,222.529,144.244,224.585,145.438z"/>
	<path fill="#FFFFFF" d="M231.831,152.518c-0.833-1.451-1.022-2.982-0.569-4.595c0.454-1.612,1.426-2.848,2.917-3.704
		c1.498-0.86,3.063-1.079,4.695-0.654c1.62,0.431,2.857,1.393,3.714,2.884c0.864,1.505,1.069,3.063,0.616,4.677
		c-0.465,1.609-1.455,2.852-2.974,3.724c-1.505,0.864-3.063,1.072-4.671,0.626C233.958,155.042,232.716,154.057,231.831,152.518z
		 M234.226,151.196c0.576,1.004,1.3,1.643,2.172,1.92c0.889,0.274,1.783,0.153,2.684-0.363c0.907-0.521,1.464-1.229,1.672-2.126
		c0.207-0.896,0.03-1.831-0.53-2.807c-0.56-0.976-1.279-1.6-2.157-1.873c-0.891-0.274-1.784-0.154-2.685,0.363
		c-0.886,0.509-1.435,1.217-1.646,2.124C233.526,149.342,233.689,150.262,234.226,151.196z"/>
	<path fill="#FFFFFF" d="M250.213,135.954l1.771,3.082c-0.9-0.342-1.629-0.513-2.187-0.514c-0.555-0.01-1.109,0.145-1.666,0.464
		c-0.873,0.502-1.423,1.225-1.647,2.168c-0.227,0.943-0.075,1.874,0.454,2.796c0.54,0.94,1.263,1.554,2.167,1.839
		c0.91,0.281,1.802,0.171,2.675-0.33c0.557-0.32,0.979-0.723,1.267-1.209c0.278-0.469,0.503-1.201,0.672-2.193l1.759,3.061
		c-0.661,1.029-1.462,1.813-2.403,2.354c-1.554,0.892-3.141,1.136-4.762,0.733c-1.624-0.411-2.867-1.365-3.728-2.863
		s-1.058-3.066-0.591-4.705c0.466-1.638,1.469-2.899,3.008-3.783C247.99,136.285,249.062,135.985,250.213,135.954z"/>
	<path fill="#FFFFFF" d="M249.463,130.257c-0.233-0.405-0.286-0.84-0.161-1.306c0.126-0.465,0.395-0.816,0.807-1.053
		c0.42-0.24,0.862-0.299,1.327-0.172c0.461,0.118,0.812,0.387,1.054,0.807c0.24,0.419,0.298,0.861,0.172,1.326
		c-0.119,0.461-0.388,0.813-0.807,1.054s-0.862,0.298-1.327,0.171C250.063,130.959,249.707,130.683,249.463,130.257z
		 M254.53,132.898l5.767,10.039l-2.319,1.332l-5.767-10.039L254.53,132.898z"/>
	<path fill="#FFFFFF" d="M264.868,126.96l2.329-1.338l5.767,10.039l-2.329,1.338l-0.604-1.052c-0.441,1.442-1.212,2.479-2.312,3.111
		c-1.388,0.797-2.823,0.954-4.308,0.473c-1.487-0.508-2.672-1.527-3.553-3.06c-0.863-1.505-1.134-3.018-0.811-4.537
		c0.324-1.521,1.162-2.669,2.517-3.447c1.168-0.671,2.492-0.792,3.973-0.363L264.868,126.96z M262.23,135.109
		c0.553,0.963,1.261,1.598,2.123,1.907c0.88,0.308,1.723,0.229,2.526-0.231c0.858-0.494,1.383-1.188,1.573-2.082
		c0.178-0.916-0.004-1.845-0.545-2.786s-1.251-1.565-2.131-1.873c-0.873-0.294-1.732-0.198-2.577,0.287
		c-0.797,0.458-1.29,1.144-1.479,2.056C261.543,133.302,261.713,134.211,262.23,135.109z"/>
	<path fill="#FFFFFF" d="M268.21,115.239l10,17.408l-2.318,1.332l-10-17.408L268.21,115.239z"/>
	<path fill="#FFFFFF" d="M284.652,110.784l7.845,13.657l-2.401,1.379l-7.846-13.656l-3.658,2.102l-1.297-2.257l9.709-5.577
		l1.297,2.256L284.652,110.784z"/>
	<path fill="#FFFFFF" d="M292.079,111.329l2.318-1.332l0.516,0.896c0.169-0.69,0.371-1.214,0.606-1.569
		c0.238-0.364,0.587-0.679,1.048-0.943c0.611-0.352,1.365-0.52,2.26-0.504l0.158,2.733c-0.621-0.063-1.141,0.025-1.561,0.267
		c-1.264,0.727-1.348,2.043-0.25,3.954l2.99,5.205l-2.319,1.332L292.079,111.329z"/>
	<path fill="#FFFFFF" d="M307.374,102.543l2.33-1.338l5.766,10.039l-2.329,1.338l-0.604-1.052c-0.442,1.442-1.213,2.479-2.312,3.111
		c-1.389,0.798-2.824,0.954-4.308,0.473c-1.488-0.507-2.673-1.527-3.553-3.06c-0.864-1.505-1.135-3.018-0.812-4.537
		c0.324-1.521,1.163-2.669,2.518-3.447c1.167-0.67,2.492-0.792,3.972-0.363L307.374,102.543z M304.736,110.693
		c0.553,0.962,1.261,1.597,2.123,1.906c0.881,0.308,1.723,0.23,2.526-0.231c0.859-0.493,1.384-1.188,1.573-2.082
		c0.178-0.916-0.004-1.845-0.545-2.786s-1.251-1.565-2.131-1.873c-0.873-0.293-1.731-0.198-2.576,0.287
		c-0.798,0.458-1.291,1.144-1.479,2.056C304.049,108.885,304.219,109.794,304.736,110.693z"/>
	<path fill="#FFFFFF" d="M320.693,95.469l1.77,3.082c-0.899-0.342-1.629-0.513-2.186-0.514c-0.555-0.01-1.109,0.145-1.666,0.464
		c-0.873,0.501-1.423,1.225-1.648,2.167c-0.226,0.944-0.074,1.875,0.455,2.797c0.54,0.94,1.263,1.554,2.166,1.838
		c0.911,0.281,1.803,0.172,2.676-0.33c0.557-0.319,0.979-0.722,1.267-1.207c0.278-0.47,0.503-1.202,0.672-2.194l1.759,3.061
		c-0.661,1.028-1.463,1.813-2.404,2.354c-1.553,0.892-3.139,1.136-4.761,0.732c-1.624-0.41-2.867-1.364-3.728-2.862
		s-1.058-3.066-0.592-4.704c0.467-1.639,1.469-2.9,3.009-3.784C318.47,95.799,319.54,95.5,320.693,95.469z"/>
	<path fill="#FFFFFF" d="M320.777,85.044l6.098,10.616l1.402-5.124l3.113-1.788l-1.938,6.721l8.024,3.135l-3.01,1.729l-5.752-2.329
		l-0.158,0.584l2.221,3.865l-2.319,1.332l-10-17.408L320.777,85.044z"/>
	<path fill="#FFFFFF" d="M337.57,77.385l10.254,8.256l-2.226-13.896l10.697,9.03l-1.708-13.165l2.607-1.498l2.609,21.01
		l-10.569-8.926l2.216,13.738l-16.488-13.051L337.57,77.385z"/>
	<path fill="#FFFFFF" d="M359.357,67.131c-0.233-0.405-0.287-0.84-0.161-1.306c0.126-0.465,0.395-0.816,0.807-1.053
		c0.419-0.241,0.862-0.299,1.327-0.173c0.461,0.119,0.812,0.388,1.053,0.808c0.241,0.419,0.299,0.86,0.173,1.325
		c-0.119,0.462-0.388,0.814-0.807,1.055s-0.862,0.298-1.327,0.171C359.956,67.833,359.601,67.557,359.357,67.131z M364.424,69.772
		l5.767,10.039l-2.319,1.332l-5.767-10.039L364.424,69.772z"/>
	<path fill="#FFFFFF" d="M367.362,68.085l2.329-1.338l0.533,0.928c0.349-1.27,1.031-2.197,2.049-2.781
		c1.168-0.671,2.289-0.827,3.364-0.466c0.923,0.302,1.791,1.16,2.604,2.574l3.535,6.154l-2.329,1.339l-3.221-5.606
		c-0.569-0.99-1.1-1.596-1.592-1.815c-0.488-0.231-1.087-0.143-1.794,0.264c-0.771,0.442-1.17,1.01-1.202,1.703
		c-0.027,0.685,0.318,1.65,1.037,2.901l2.782,4.845l-2.329,1.338L367.362,68.085z"/>
	<path fill="#FFFFFF" d="M378.937,61.435l2.328-1.338l0.533,0.928c0.349-1.27,1.032-2.196,2.049-2.781
		c1.168-0.67,2.29-0.826,3.365-0.466c0.922,0.303,1.791,1.161,2.604,2.575l3.535,6.154l-2.33,1.338l-3.221-5.606
		c-0.568-0.99-1.099-1.595-1.591-1.815c-0.488-0.23-1.087-0.143-1.794,0.264c-0.771,0.442-1.17,1.01-1.202,1.703
		c-0.027,0.685,0.317,1.65,1.036,2.902l2.783,4.844l-2.33,1.338L378.937,61.435z"/>
	<path fill="#FFFFFF" d="M402.85,55.102l-7.194,4.132c0.535,0.789,1.181,1.291,1.936,1.507c0.75,0.209,1.496,0.101,2.238-0.326
		c0.577-0.331,0.976-0.743,1.195-1.235c0.214-0.487,0.344-1.239,0.393-2.253l2.586-0.033c-0.008,0.689-0.073,1.314-0.198,1.875
		c-0.126,0.562-0.313,1.07-0.562,1.528c-0.249,0.459-0.564,0.871-0.948,1.237c-0.383,0.367-0.836,0.701-1.358,1.001
		c-1.498,0.86-2.977,1.069-4.437,0.629c-1.464-0.448-2.655-1.473-3.574-3.073c-0.912-1.588-1.211-3.125-0.896-4.613
		c0.33-1.478,1.227-2.637,2.689-3.478c1.479-0.849,2.916-1.049,4.316-0.602c1.389,0.445,2.559,1.495,3.51,3.151L402.85,55.102z
		 M399.379,54.572c-1.033-1.052-2.168-1.222-3.405-0.512c-0.281,0.162-0.521,0.357-0.719,0.585
		c-0.198,0.229-0.353,0.481-0.463,0.759c-0.109,0.279-0.172,0.572-0.186,0.882s0.023,0.631,0.114,0.962L399.379,54.572z"/>
	<path fill="#FFFFFF" d="M402.189,48.079l2.319-1.332l0.515,0.896c0.17-0.691,0.372-1.214,0.607-1.569
		c0.238-0.364,0.586-0.68,1.047-0.943c0.611-0.352,1.365-0.52,2.261-0.504l0.157,2.732c-0.621-0.063-1.141,0.026-1.56,0.267
		c-1.265,0.727-1.349,2.044-0.251,3.955l2.99,5.205l-2.319,1.332L402.189,48.079z"/>
</g>
<g>
	<g>
		<path fill="#FFFFFF" d="M331.137,236.415c-0.161,0-0.322-0.003-0.484-0.01c-3.265-0.125-6.284-1.516-8.504-3.913
			c-2.219-2.396-3.371-5.515-3.245-8.779c0.125-3.265,1.515-6.284,3.912-8.503c2.397-2.22,5.517-3.384,8.78-3.245
			c3.265,0.125,6.284,1.515,8.503,3.912c2.22,2.397,3.372,5.516,3.245,8.779c-0.126,3.265-1.515,6.284-3.912,8.504
			C337.154,235.269,334.224,236.415,331.137,236.415z M331.115,215.955c-2.078,0-4.049,0.771-5.582,2.19
			c-1.613,1.493-2.549,3.525-2.634,5.722c-0.084,2.196,0.691,4.295,2.185,5.908s3.525,2.549,5.723,2.634
			c2.214,0.077,4.295-0.69,5.907-2.185c1.613-1.493,2.549-3.525,2.634-5.723l0,0c0.085-2.196-0.69-4.295-2.185-5.907
			c-1.493-1.613-3.525-2.549-5.722-2.634C331.332,215.957,331.224,215.955,331.115,215.955z"/>
	</g>
	<g>
		<g>
			<path fill="#FFFFFF" d="M332.775,234.196c-0.048,1.253-0.097,2.505-0.145,3.758c-0.051,1.308,1.186,2.559,2.5,2.5
				c1.398-0.063,2.446-1.098,2.5-2.5c0.048-1.253,0.097-2.505,0.145-3.758c0.051-1.308-1.186-2.559-2.5-2.5
				C333.878,231.759,332.83,232.794,332.775,234.196L332.775,234.196z"/>
		</g>
	</g>
	<g>
		<g>
			<path fill="#FFFFFF" d="M335.632,240.362c2.266,0.087,4.531,0.175,6.797,0.262c3.218,0.124,3.212-4.876,0-5
				c-2.266-0.087-4.531-0.175-6.797-0.262C332.414,235.238,332.419,240.238,335.632,240.362L335.632,240.362z"/>
		</g>
	</g>
	<g>
		<g>
			<path fill="#FFFFFF" d="M324.045,233.859c-0.048,1.253-0.097,2.505-0.145,3.758c-0.051,1.308,1.186,2.559,2.5,2.5
				c1.398-0.063,2.446-1.098,2.5-2.5c0.048-1.253,0.097-2.505,0.145-3.758c0.051-1.308-1.186-2.559-2.5-2.5
				C325.147,231.421,324.099,232.457,324.045,233.859L324.045,233.859z"/>
		</g>
	</g>
	<g>
		<g>
			<path fill="#FFFFFF" d="M325.906,234.987c-2.045-0.079-4.089-0.158-6.134-0.237c-3.218-0.124-3.212,4.876,0,5
				c2.044,0.079,4.089,0.158,6.134,0.237C329.124,240.111,329.119,235.111,325.906,234.987L325.906,234.987z"/>
		</g>
	</g>
	<g>
		<g>
			<path fill="#FFFFFF" d="M342.468,240.668c0.42,0.004,0.288-0.046,0.547,0.302c0.353,0.477,0.476,1.227,0.569,1.797
				c0.21,1.276,0.099,2.579,0.063,3.865c-0.091,3.219,4.909,3.216,5,0c0.124-4.386-0.359-10.906-6.178-10.964
				C339.25,235.636,339.247,240.636,342.468,240.668L342.468,240.668z"/>
		</g>
	</g>
	<g>
		<g>
			<path fill="#FFFFFF" d="M343.666,246.321c-0.142,3.688-0.285,7.377-0.427,11.065c-0.124,3.218,4.876,3.212,5,0
				c0.142-3.688,0.285-7.377,0.427-11.065C348.79,243.103,343.79,243.108,343.666,246.321L343.666,246.321z"/>
		</g>
	</g>
	<g>
		<g>
			<path fill="#FFFFFF" d="M343.326,257.624c0.051,1.031,0.146,2.099,0.031,3.128c-0.024,0.214-0.191,0.859-0.106,0.685
				c-0.067,0.138-0.397,0.45-0.38,0.436c-0.474,0.402-0.886,0.481-1.387,0.406c0.537,0.08-0.173-0.17,0.061-0.023
				c0.363,0.228,0.008,0.026,0.039-0.012c0.004-0.005,0.091,0.211-0.041-0.117c0.103,0.257-0.022-0.237-0.021-0.228
				c-0.123-1.345-1.061-2.5-2.5-2.5c-1.257,0-2.624,1.147-2.5,2.5c0.181,1.983,0.923,3.859,2.794,4.81
				c1.495,0.76,3.253,0.717,4.792,0.117c1.698-0.662,3.193-1.95,3.826-3.693c0.627-1.726,0.483-3.707,0.394-5.51
				C348.167,254.421,343.166,254.402,343.326,257.624L343.326,257.624z"/>
		</g>
	</g>
	<g>
		<g>
			<path fill="#FFFFFF" d="M336.643,247.24c-0.262,6.778-0.523,13.556-0.785,20.334c-0.124,3.218,4.876,3.212,5,0
				c0.262-6.778,0.523-13.556,0.785-20.334C341.768,244.022,336.767,244.027,336.643,247.24L336.643,247.24z"/>
		</g>
	</g>
	<g>
		<g>
			<path fill="#FFFFFF" d="M326.011,234.991c-2.266-0.087-4.531-0.175-6.797-0.262c-3.218-0.124-3.212,4.876,0,5
				c2.266,0.087,4.531,0.175,6.797,0.262C329.229,240.115,329.223,235.115,326.011,234.991L326.011,234.991z"/>
		</g>
	</g>
	<g>
		<g>
			<path fill="#FFFFFF" d="M319.171,234.768c-5.761-0.398-6.62,6.432-6.82,10.655c-0.153,3.217,4.848,3.209,5,0
				c0.061-1.292,0.067-2.465,0.377-3.707c0.307-1.227,0.582-2.008,1.443-1.948C322.383,239.99,322.369,234.989,319.171,234.768
				L319.171,234.768z"/>
		</g>
	</g>
	<g>
		<g>
			<path fill="#FFFFFF" d="M312.356,245.112c-0.142,3.688-0.285,7.377-0.427,11.065c-0.124,3.218,4.876,3.212,5,0
				c0.142-3.688,0.285-7.377,0.427-11.065C317.48,241.894,312.48,241.899,312.356,245.112L312.356,245.112z"/>
		</g>
	</g>
	<g>
		<g>
			<path fill="#FFFFFF" d="M311.823,256.408c-0.229,1.797-0.52,3.747,0.019,5.519c0.483,1.589,1.812,2.959,3.273,3.697
				c3.39,1.711,7.414,0.171,8.074-3.763c0.223-1.33-0.351-2.692-1.746-3.075c-1.199-0.329-2.85,0.407-3.075,1.746
				c-0.044,0.263-0.099,0.507-0.171,0.763c-0.065,0.233,0.038-0.057-0.149,0.246c0.061-0.099,0.451-0.429,0.054-0.132
				c0.175-0.131,0.24-0.068-0.016-0.019c0.516-0.099-0.091,0.012-0.226-0.019c0.257,0.057,0.188,0.026-0.026-0.023
				c-0.496-0.113-0.398-0.096-0.681-0.3c0.155,0.112-0.308-0.287-0.315-0.295c-0.272-0.296-0.024,0.015-0.147-0.187
				c-0.176-0.289,0.035,0.44-0.102-0.238c0.049,0.242-0.032-0.401-0.034-0.453c-0.039-1.16,0.121-2.32,0.268-3.468
				c0.171-1.342-1.271-2.5-2.5-2.5C312.83,253.908,311.995,255.062,311.823,256.408L311.823,256.408z"/>
		</g>
	</g>
	<g>
		<g>
			<path fill="#FFFFFF" d="M319.287,246.569c-0.262,6.778-0.523,13.556-0.785,20.334c-0.124,3.218,4.876,3.212,5,0
				c0.262-6.778,0.523-13.556,0.785-20.334C324.411,243.352,319.411,243.357,319.287,246.569L319.287,246.569z"/>
		</g>
	</g>
	<g>
		<g>
			<path fill="#FFFFFF" d="M338.245,265.152c-5.774-0.223-11.549-0.446-17.323-0.669c-3.218-0.124-3.212,4.876,0,5
				c5.774,0.223,11.549,0.446,17.323,0.669C341.463,270.277,341.458,265.276,338.245,265.152L338.245,265.152z"/>
		</g>
	</g>
</g>
<g>
	<g>
		<path fill="#FFFFFF" d="M351.508,352.363c-0.161,0-0.322-0.003-0.483-0.01c-3.265-0.125-6.284-1.516-8.504-3.913
			c-2.219-2.396-3.371-5.515-3.245-8.779c0.26-6.739,5.976-12.052,12.692-11.749c3.265,0.125,6.284,1.516,8.503,3.913
			c2.22,2.397,3.372,5.516,3.245,8.779c-0.126,3.265-1.515,6.284-3.912,8.503C357.526,351.218,354.596,352.363,351.508,352.363z
			 M351.492,331.902c-4.394,0-8.05,3.485-8.221,7.913c-0.084,2.196,0.691,4.295,2.185,5.908s3.525,2.549,5.723,2.634
			c4.524,0.147,8.366-3.372,8.541-7.907l0,0c0.085-2.197-0.69-4.295-2.185-5.908c-1.493-1.613-3.525-2.549-5.722-2.634
			C351.706,331.904,351.599,331.902,351.492,331.902z"/>
	</g>
	<g>
		<g>
			<path fill="#FFFFFF" d="M353.147,350.144c-0.048,1.253-0.097,2.505-0.145,3.758c-0.051,1.308,1.186,2.559,2.5,2.5
				c1.398-0.063,2.446-1.098,2.5-2.5c0.048-1.253,0.097-2.505,0.145-3.758c0.051-1.308-1.186-2.559-2.5-2.5
				C354.25,347.707,353.201,348.742,353.147,350.144L353.147,350.144z"/>
		</g>
	</g>
	<g>
		<g>
			<path fill="#FFFFFF" d="M356.004,356.31c2.266,0.087,4.531,0.175,6.797,0.262c3.218,0.124,3.212-4.876,0-5
				c-2.266-0.087-4.531-0.175-6.797-0.262C352.786,351.186,352.791,356.186,356.004,356.31L356.004,356.31z"/>
		</g>
	</g>
	<g>
		<g>
			<path fill="#FFFFFF" d="M344.417,349.807c-0.048,1.253-0.097,2.505-0.145,3.758c-0.051,1.308,1.186,2.559,2.5,2.5
				c1.398-0.063,2.446-1.098,2.5-2.5c0.048-1.253,0.097-2.505,0.145-3.758c0.051-1.308-1.186-2.559-2.5-2.5
				C345.519,347.37,344.471,348.405,344.417,349.807L344.417,349.807z"/>
		</g>
	</g>
	<g>
		<g>
			<path fill="#FFFFFF" d="M346.278,350.935c-2.045-0.079-4.089-0.158-6.134-0.237c-3.218-0.124-3.212,4.876,0,5
				c2.045,0.079,4.089,0.158,6.134,0.237C349.496,356.059,349.491,351.059,346.278,350.935L346.278,350.935z"/>
		</g>
	</g>
	<g>
		<g>
			<path fill="#FFFFFF" d="M362.84,356.616c0.42,0.004,0.288-0.046,0.547,0.302c0.353,0.477,0.476,1.227,0.569,1.797
				c0.21,1.276,0.099,2.579,0.063,3.865c-0.091,3.219,4.909,3.216,5,0c0.125-4.387-0.359-10.906-6.178-10.964
				C359.622,351.584,359.619,356.584,362.84,356.616L362.84,356.616z"/>
		</g>
	</g>
	<g>
		<g>
			<path fill="#FFFFFF" d="M364.038,362.269c-0.142,3.688-0.285,7.377-0.427,11.065c-0.124,3.218,4.876,3.212,5,0
				c0.142-3.688,0.285-7.377,0.427-11.065C369.162,359.051,364.162,359.056,364.038,362.269L364.038,362.269z"/>
		</g>
	</g>
	<g>
		<g>
			<path fill="#FFFFFF" d="M363.698,373.572c0.051,1.031,0.146,2.099,0.031,3.128c-0.024,0.214-0.191,0.859-0.106,0.685
				c-0.067,0.138-0.397,0.45-0.38,0.436c-0.475,0.402-0.886,0.481-1.387,0.406c0.537,0.08-0.173-0.17,0.061-0.023
				c0.363,0.228,0.008,0.026,0.039-0.012c0.004-0.005,0.091,0.211-0.041-0.117c0.103,0.257-0.022-0.237-0.021-0.228
				c-0.123-1.345-1.061-2.5-2.5-2.5c-1.257,0-2.624,1.147-2.5,2.5c0.181,1.983,0.923,3.859,2.794,4.81
				c1.495,0.76,3.253,0.717,4.792,0.117c1.698-0.662,3.193-1.95,3.826-3.693c0.627-1.726,0.483-3.707,0.394-5.51
				C368.539,370.37,363.538,370.35,363.698,373.572L363.698,373.572z"/>
		</g>
	</g>
	<g>
		<g>
			<path fill="#FFFFFF" d="M357.015,363.188c-0.262,6.778-0.523,13.556-0.785,20.334c-0.124,3.218,4.876,3.212,5,0
				c0.262-6.778,0.523-13.556,0.785-20.334C362.14,359.97,357.139,359.975,357.015,363.188L357.015,363.188z"/>
		</g>
	</g>
	<g>
		<g>
			<path fill="#FFFFFF" d="M346.383,350.939c-2.266-0.087-4.531-0.175-6.797-0.262c-3.218-0.124-3.212,4.876,0,5
				c2.266,0.087,4.531,0.175,6.797,0.262C349.601,356.063,349.595,351.063,346.383,350.939L346.383,350.939z"/>
		</g>
	</g>
	<g>
		<g>
			<path fill="#FFFFFF" d="M339.543,350.716c-5.761-0.398-6.62,6.432-6.82,10.655c-0.153,3.217,4.848,3.209,5,0
				c0.061-1.292,0.067-2.465,0.377-3.707c0.307-1.227,0.582-2.008,1.443-1.948C342.755,355.938,342.741,350.937,339.543,350.716
				L339.543,350.716z"/>
		</g>
	</g>
	<g>
		<g>
			<path fill="#FFFFFF" d="M332.728,361.06c-0.142,3.688-0.285,7.377-0.427,11.065c-0.124,3.218,4.876,3.212,5,0
				c0.142-3.688,0.285-7.377,0.427-11.065C337.852,357.842,332.852,357.848,332.728,361.06L332.728,361.06z"/>
		</g>
	</g>
	<g>
		<g>
			<path fill="#FFFFFF" d="M332.195,372.356c-0.229,1.797-0.52,3.747,0.019,5.519c0.483,1.589,1.812,2.959,3.273,3.697
				c3.39,1.711,7.413,0.171,8.074-3.763c0.223-1.33-0.351-2.692-1.746-3.075c-1.199-0.329-2.85,0.407-3.075,1.746
				c-0.044,0.263-0.099,0.507-0.171,0.763c-0.065,0.233,0.038-0.057-0.149,0.246c0.061-0.099,0.451-0.429,0.054-0.132
				c0.175-0.131,0.24-0.068-0.016-0.019c0.516-0.099-0.091,0.012-0.226-0.019c0.257,0.057,0.188,0.026-0.026-0.023
				c-0.496-0.113-0.398-0.096-0.681-0.3c0.155,0.112-0.308-0.287-0.315-0.295c-0.272-0.296-0.024,0.015-0.147-0.187
				c-0.176-0.289,0.035,0.44-0.102-0.238c0.049,0.242-0.032-0.401-0.034-0.453c-0.039-1.16,0.121-2.32,0.268-3.468
				c0.171-1.342-1.271-2.5-2.5-2.5C333.202,369.856,332.367,371.01,332.195,372.356L332.195,372.356z"/>
		</g>
	</g>
	<g>
		<g>
			<path fill="#FFFFFF" d="M339.659,362.518c-0.262,6.778-0.523,13.556-0.785,20.334c-0.124,3.218,4.876,3.212,5,0
				c0.262-6.778,0.523-13.556,0.785-20.334C344.783,359.3,339.783,359.305,339.659,362.518L339.659,362.518z"/>
		</g>
	</g>
	<g>
		<g>
			<path fill="#FFFFFF" d="M358.617,381.1c-5.774-0.223-11.549-0.446-17.323-0.669c-3.218-0.124-3.212,4.876,0,5
				c5.774,0.223,11.549,0.446,17.323,0.669C361.835,386.225,361.83,381.224,358.617,381.1L358.617,381.1z"/>
		</g>
	</g>
</g>
<g>
	<g>
		<path fill="#FFFFFF" d="M462.497,324.053c-0.159,0-0.317-0.003-0.478-0.01c-3.265-0.125-6.284-1.516-8.503-3.913
			s-3.371-5.515-3.245-8.779c0.125-3.265,1.515-6.284,3.912-8.504c2.397-2.221,5.533-3.396,8.779-3.245
			c6.739,0.261,12.011,5.955,11.75,12.693l0,0C474.46,318.873,469.026,324.053,462.497,324.053z M462.484,303.592
			c-2.077,0-4.049,0.771-5.582,2.19c-1.613,1.493-2.549,3.525-2.634,5.723c-0.084,2.196,0.691,4.295,2.185,5.908
			s3.525,2.549,5.722,2.634c4.529,0.17,8.368-3.372,8.543-7.906s-3.373-8.367-7.908-8.543
			C462.7,303.594,462.592,303.592,462.484,303.592z"/>
	</g>
	<g>
		<g>
			<path fill="#FFFFFF" d="M464.143,321.834c-0.048,1.252-0.097,2.505-0.145,3.757c-0.051,1.308,1.186,2.559,2.5,2.5
				c1.398-0.063,2.446-1.098,2.5-2.5c0.048-1.252,0.097-2.505,0.145-3.757c0.051-1.308-1.186-2.559-2.5-2.5
				C465.246,319.396,464.198,320.432,464.143,321.834L464.143,321.834z"/>
		</g>
	</g>
	<g>
		<g>
			<path fill="#FFFFFF" d="M467,328c2.266,0.087,4.531,0.175,6.797,0.262c3.218,0.124,3.212-4.876,0-5
				c-2.266-0.087-4.531-0.175-6.797-0.262C463.782,322.876,463.788,327.876,467,328L467,328z"/>
		</g>
	</g>
	<g>
		<g>
			<path fill="#FFFFFF" d="M455.413,321.497c-0.048,1.252-0.097,2.505-0.145,3.757c-0.051,1.308,1.186,2.559,2.5,2.5
				c1.398-0.063,2.446-1.098,2.5-2.5c0.048-1.252,0.097-2.505,0.145-3.757c0.051-1.308-1.186-2.559-2.5-2.5
				C456.516,319.059,455.467,320.095,455.413,321.497L455.413,321.497z"/>
		</g>
	</g>
	<g>
		<g>
			<path fill="#FFFFFF" d="M457.275,322.625c-2.044-0.079-4.089-0.158-6.134-0.237c-3.218-0.124-3.212,4.876,0,5
				c2.045,0.079,4.089,0.158,6.134,0.237C460.493,327.749,460.488,322.749,457.275,322.625L457.275,322.625z"/>
		</g>
	</g>
	<g>
		<g>
			<path fill="#FFFFFF" d="M473.836,328.305c0.42,0.004,0.288-0.046,0.547,0.302c0.353,0.476,0.476,1.227,0.57,1.796
				c0.21,1.276,0.1,2.579,0.062,3.865c-0.095,3.219,4.906,3.216,5,0c0.129-4.387-0.362-10.906-6.178-10.964
				C470.618,323.274,470.616,328.274,473.836,328.305L473.836,328.305z"/>
		</g>
	</g>
	<g>
		<g>
			<path fill="#FFFFFF" d="M475.035,333.959c-0.142,3.688-0.285,7.377-0.427,11.065c-0.124,3.218,4.876,3.212,5,0
				c0.142-3.688,0.285-7.377,0.427-11.065C480.159,330.741,475.159,330.746,475.035,333.959L475.035,333.959z"/>
		</g>
	</g>
	<g>
		<g>
			<path fill="#FFFFFF" d="M474.694,345.262c0.051,1.031,0.146,2.099,0.031,3.128c-0.024,0.215-0.191,0.858-0.107,0.685
				c-0.067,0.138-0.396,0.45-0.38,0.436c-0.474,0.402-0.885,0.481-1.387,0.406c0.535,0.08-0.17-0.17,0.061-0.023
				c0.362,0.23,0.01,0.023,0.039-0.012c0.004-0.005,0.091,0.211-0.041-0.117c0.103,0.257-0.022-0.237-0.022-0.228
				c-0.123-1.345-1.061-2.5-2.5-2.5c-1.257,0-2.624,1.148-2.5,2.5c0.182,1.983,0.923,3.858,2.794,4.809
				c1.495,0.76,3.253,0.717,4.792,0.117c1.698-0.662,3.192-1.951,3.826-3.693c0.628-1.726,0.483-3.706,0.394-5.509
				C479.536,342.059,474.535,342.04,474.694,345.262L474.694,345.262z"/>
		</g>
	</g>
	<g>
		<g>
			<path fill="#FFFFFF" d="M468.012,334.877c-0.262,6.778-0.523,13.556-0.785,20.334c-0.124,3.218,4.876,3.212,5,0
				c0.262-6.778,0.523-13.556,0.785-20.334C473.136,331.659,468.136,331.664,468.012,334.877L468.012,334.877z"/>
		</g>
	</g>
	<g>
		<g>
			<path fill="#FFFFFF" d="M457.379,322.629c-2.266-0.087-4.531-0.175-6.797-0.262c-3.218-0.124-3.212,4.876,0,5
				c2.266,0.087,4.531,0.175,6.797,0.262C460.597,327.753,460.591,322.753,457.379,322.629L457.379,322.629z"/>
		</g>
	</g>
	<g>
		<g>
			<path fill="#FFFFFF" d="M450.539,322.406c-5.759-0.398-6.623,6.432-6.82,10.655c-0.15,3.217,4.85,3.209,5,0
				c0.06-1.292,0.067-2.465,0.377-3.707c0.307-1.227,0.582-2.007,1.443-1.948C453.751,327.628,453.737,322.627,450.539,322.406
				L450.539,322.406z"/>
		</g>
	</g>
	<g>
		<g>
			<path fill="#FFFFFF" d="M443.725,332.75c-0.142,3.688-0.285,7.377-0.427,11.065c-0.124,3.218,4.876,3.212,5,0
				c0.142-3.688,0.285-7.377,0.427-11.065C448.849,329.532,443.849,329.537,443.725,332.75L443.725,332.75z"/>
		</g>
	</g>
	<g>
		<g>
			<path fill="#FFFFFF" d="M443.191,344.046c-0.228,1.797-0.52,3.746,0.02,5.518c0.484,1.589,1.811,2.959,3.273,3.697
				c3.39,1.711,7.413,0.171,8.074-3.762c0.224-1.33-0.351-2.692-1.746-3.075c-1.199-0.329-2.85,0.407-3.075,1.746
				c-0.044,0.263-0.099,0.507-0.171,0.763c-0.065,0.233,0.038-0.057-0.149,0.246c0.061-0.099,0.451-0.43,0.054-0.132
				c0.175-0.131,0.24-0.068-0.016-0.019c0.516-0.099-0.091,0.012-0.226-0.019c0.257,0.057,0.188,0.026-0.026-0.023
				c-0.496-0.113-0.398-0.096-0.681-0.3c0.155,0.112-0.308-0.287-0.315-0.295c-0.272-0.296-0.024,0.015-0.147-0.187
				c-0.177-0.289,0.035,0.441-0.102-0.238c0.049,0.242-0.032-0.401-0.034-0.453c-0.039-1.16,0.122-2.32,0.268-3.468
				c0.171-1.342-1.271-2.5-2.5-2.5C444.199,341.546,443.362,342.7,443.191,344.046L443.191,344.046z"/>
		</g>
	</g>
	<g>
		<g>
			<path fill="#FFFFFF" d="M450.654,334.207c-0.262,6.778-0.523,13.556-0.785,20.334c-0.124,3.218,4.876,3.212,5,0
				c0.262-6.778,0.523-13.556,0.785-20.334C455.778,330.989,450.778,330.994,450.654,334.207L450.654,334.207z"/>
		</g>
	</g>
	<g>
		<g>
			<path fill="#FFFFFF" d="M469.614,352.79c-5.775-0.223-11.55-0.446-17.324-0.669c-3.218-0.124-3.212,4.876,0,5
				c5.775,0.223,11.55,0.446,17.324,0.669C472.832,357.914,472.826,352.914,469.614,352.79L469.614,352.79z"/>
		</g>
	</g>
</g>
<g>
	<g>
		<path fill="#FFFFFF" d="M394.344,270.398c-0.159,0-0.317-0.003-0.478-0.01c-3.265-0.125-6.284-1.515-8.503-3.912
			c-2.22-2.397-3.372-5.516-3.245-8.779c0.125-3.265,1.515-6.285,3.912-8.504c2.397-2.22,5.51-3.381,8.779-3.245
			c6.739,0.26,12.011,5.953,11.75,12.692l0,0C406.307,265.219,400.872,270.398,394.344,270.398z M394.329,249.938
			c-2.078,0-4.049,0.771-5.581,2.19c-1.613,1.493-2.549,3.525-2.634,5.723c-0.085,2.196,0.69,4.294,2.185,5.907
			c1.493,1.613,3.525,2.549,5.722,2.634c4.563,0.154,8.368-3.372,8.543-7.906c0.084-2.197-0.691-4.295-2.185-5.908
			c-1.494-1.613-3.526-2.549-5.724-2.634C394.546,249.94,394.438,249.938,394.329,249.938z"/>
	</g>
	<g>
		<g>
			<path fill="#FFFFFF" d="M395.99,268.18c-0.048,1.252-0.097,2.505-0.145,3.757c-0.051,1.308,1.186,2.559,2.5,2.5
				c1.398-0.063,2.446-1.098,2.5-2.5c0.048-1.252,0.097-2.505,0.145-3.757c0.051-1.308-1.186-2.559-2.5-2.5
				C397.092,265.742,396.044,266.778,395.99,268.18L395.99,268.18z"/>
		</g>
	</g>
	<g>
		<g>
			<path fill="#FFFFFF" d="M398.846,274.346c2.266,0.087,4.531,0.175,6.797,0.262c3.218,0.124,3.212-4.876,0-5
				c-2.266-0.087-4.531-0.175-6.797-0.262C395.629,269.222,395.634,274.222,398.846,274.346L398.846,274.346z"/>
		</g>
	</g>
	<g>
		<g>
			<path fill="#FFFFFF" d="M387.26,267.843c-0.048,1.252-0.097,2.505-0.145,3.757c-0.051,1.308,1.186,2.559,2.5,2.5
				c1.398-0.063,2.446-1.098,2.5-2.5c0.048-1.252,0.097-2.505,0.145-3.757c0.051-1.308-1.186-2.559-2.5-2.5
				C388.362,265.405,387.314,266.441,387.26,267.843L387.26,267.843z"/>
		</g>
	</g>
	<g>
		<g>
			<path fill="#FFFFFF" d="M389.122,268.971c-2.044-0.079-4.089-0.158-6.134-0.237c-3.218-0.124-3.212,4.876,0,5
				c2.044,0.079,4.089,0.158,6.134,0.237C392.34,274.095,392.334,269.095,389.122,268.971L389.122,268.971z"/>
		</g>
	</g>
	<g>
		<g>
			<path fill="#FFFFFF" d="M405.683,274.651c0.42,0.004,0.288-0.046,0.547,0.302c0.353,0.476,0.476,1.227,0.57,1.796
				c0.21,1.276,0.1,2.579,0.062,3.865c-0.095,3.219,4.906,3.216,5,0c0.129-4.387-0.362-10.906-6.178-10.964
				C402.465,269.62,402.462,274.62,405.683,274.651L405.683,274.651z"/>
		</g>
	</g>
	<g>
		<g>
			<path fill="#FFFFFF" d="M406.881,280.305c-0.142,3.688-0.285,7.377-0.427,11.065c-0.124,3.218,4.876,3.212,5,0
				c0.142-3.688,0.285-7.377,0.427-11.065C412.005,277.087,407.005,277.092,406.881,280.305L406.881,280.305z"/>
		</g>
	</g>
	<g>
		<g>
			<path fill="#FFFFFF" d="M406.541,291.608c0.051,1.031,0.146,2.099,0.031,3.128c-0.024,0.215-0.191,0.858-0.107,0.685
				c-0.067,0.138-0.396,0.45-0.38,0.436c-0.474,0.402-0.885,0.481-1.387,0.406c0.535,0.08-0.17-0.17,0.061-0.023
				c0.362,0.23,0.01,0.023,0.039-0.012c0.004-0.005,0.091,0.211-0.041-0.117c0.103,0.257-0.022-0.237-0.022-0.228
				c-0.123-1.345-1.061-2.5-2.5-2.5c-1.257,0-2.624,1.148-2.5,2.5c0.182,1.983,0.923,3.858,2.794,4.809
				c1.495,0.76,3.253,0.717,4.792,0.117c1.698-0.662,3.192-1.951,3.826-3.693c0.628-1.726,0.483-3.706,0.394-5.509
				C411.383,288.405,406.382,288.386,406.541,291.608L406.541,291.608z"/>
		</g>
	</g>
	<g>
		<g>
			<path fill="#FFFFFF" d="M399.859,281.223c-0.262,6.778-0.523,13.556-0.785,20.334c-0.124,3.218,4.876,3.212,5,0
				c0.262-6.778,0.523-13.556,0.785-20.334C404.983,278.005,399.983,278.01,399.859,281.223L399.859,281.223z"/>
		</g>
	</g>
	<g>
		<g>
			<path fill="#FFFFFF" d="M389.225,268.975c-2.266-0.087-4.531-0.175-6.797-0.262c-3.218-0.124-3.212,4.876,0,5
				c2.266,0.087,4.531,0.175,6.797,0.262C392.443,274.099,392.438,269.099,389.225,268.975L389.225,268.975z"/>
		</g>
	</g>
	<g>
		<g>
			<path fill="#FFFFFF" d="M382.386,268.752c-5.759-0.398-6.623,6.432-6.82,10.655c-0.15,3.217,4.85,3.209,5,0
				c0.06-1.292,0.067-2.465,0.377-3.707c0.307-1.227,0.582-2.007,1.443-1.948C385.597,273.974,385.583,268.973,382.386,268.752
				L382.386,268.752z"/>
		</g>
	</g>
	<g>
		<g>
			<path fill="#FFFFFF" d="M375.571,279.096c-0.142,3.688-0.285,7.377-0.427,11.065c-0.124,3.218,4.876,3.212,5,0
				c0.142-3.688,0.285-7.377,0.427-11.065C380.695,275.878,375.695,275.883,375.571,279.096L375.571,279.096z"/>
		</g>
	</g>
	<g>
		<g>
			<path fill="#FFFFFF" d="M375.038,290.392c-0.228,1.797-0.52,3.746,0.02,5.518c0.484,1.589,1.811,2.959,3.273,3.697
				c3.39,1.711,7.413,0.171,8.074-3.762c0.224-1.33-0.351-2.692-1.746-3.075c-1.199-0.329-2.85,0.407-3.075,1.746
				c-0.044,0.263-0.099,0.507-0.171,0.763c-0.065,0.233,0.038-0.057-0.149,0.246c0.061-0.099,0.451-0.43,0.054-0.132
				c0.175-0.131,0.24-0.068-0.016-0.019c0.516-0.099-0.091,0.012-0.226-0.019c0.257,0.057,0.188,0.026-0.026-0.023
				c-0.496-0.113-0.398-0.096-0.681-0.3c0.155,0.112-0.308-0.287-0.315-0.295c-0.272-0.296-0.024,0.015-0.147-0.187
				c-0.177-0.289,0.035,0.441-0.102-0.238c0.049,0.242-0.032-0.401-0.034-0.453c-0.039-1.16,0.122-2.32,0.268-3.468
				c0.171-1.342-1.271-2.5-2.5-2.5C376.045,287.892,375.209,289.046,375.038,290.392L375.038,290.392z"/>
		</g>
	</g>
	<g>
		<g>
			<path fill="#FFFFFF" d="M382.501,280.553c-0.262,6.778-0.523,13.556-0.785,20.334c-0.124,3.218,4.876,3.212,5,0
				c0.262-6.778,0.523-13.556,0.785-20.334C387.625,277.335,382.625,277.34,382.501,280.553L382.501,280.553z"/>
		</g>
	</g>
	<g>
		<g>
			<path fill="#FFFFFF" d="M401.46,299.135c-5.775-0.223-11.55-0.446-17.324-0.669c-3.218-0.124-3.212,4.876,0,5
				c5.775,0.223,11.55,0.446,17.324,0.669C404.678,304.259,404.673,299.259,401.46,299.135L401.46,299.135z"/>
		</g>
	</g>
</g>
<g>
	<g>
		<path fill="#FFFFFF" d="M441.803,193.76c-0.161,0-0.322-0.003-0.484-0.01c-3.265-0.125-6.284-1.516-8.503-3.913
			c-2.22-2.396-3.372-5.515-3.246-8.779c0.125-3.265,1.516-6.284,3.913-8.503c2.397-2.22,5.506-3.38,8.779-3.245
			c3.265,0.125,6.284,1.515,8.503,3.912c2.22,2.397,3.372,5.516,3.245,8.779c-0.126,3.265-1.515,6.284-3.912,8.504
			C447.82,192.614,444.89,193.76,441.803,193.76z M441.781,173.3c-2.078,0-4.049,0.771-5.582,2.19
			c-1.613,1.493-2.549,3.525-2.634,5.722c-0.175,4.535,3.372,8.366,7.907,8.542c2.203,0.084,4.295-0.69,5.907-2.185
			c1.613-1.493,2.549-3.525,2.634-5.723l0,0c0.085-2.196-0.69-4.295-2.185-5.907c-1.493-1.613-3.525-2.549-5.722-2.634
			C441.998,173.302,441.89,173.3,441.781,173.3z"/>
	</g>
	<g>
		<g>
			<path fill="#FFFFFF" d="M443.441,191.541c-0.048,1.253-0.097,2.505-0.145,3.758c-0.051,1.308,1.186,2.559,2.5,2.5
				c1.398-0.063,2.446-1.098,2.5-2.5c0.048-1.253,0.097-2.505,0.145-3.758c0.051-1.308-1.186-2.559-2.5-2.5
				C444.543,189.103,443.495,190.139,443.441,191.541L443.441,191.541z"/>
		</g>
	</g>
	<g>
		<g>
			<path fill="#FFFFFF" d="M446.297,197.707c2.266,0.087,4.531,0.175,6.797,0.262c3.218,0.124,3.212-4.876,0-5
				c-2.266-0.087-4.531-0.175-6.797-0.262C443.079,192.583,443.085,197.583,446.297,197.707L446.297,197.707z"/>
		</g>
	</g>
	<g>
		<g>
			<path fill="#FFFFFF" d="M434.711,191.204c-0.048,1.253-0.097,2.505-0.145,3.758c-0.051,1.308,1.186,2.559,2.5,2.5
				c1.398-0.063,2.446-1.098,2.5-2.5c0.048-1.253,0.097-2.505,0.145-3.758c0.051-1.308-1.186-2.559-2.5-2.5
				C435.813,188.766,434.765,189.802,434.711,191.204L434.711,191.204z"/>
		</g>
	</g>
	<g>
		<g>
			<path fill="#FFFFFF" d="M436.573,192.331c-2.044-0.079-4.089-0.158-6.134-0.237c-3.218-0.124-3.212,4.876,0,5
				c2.044,0.079,4.089,0.158,6.134,0.237C439.79,197.456,439.785,192.455,436.573,192.331L436.573,192.331z"/>
		</g>
	</g>
	<g>
		<g>
			<path fill="#FFFFFF" d="M453.134,198.012c0.42,0.004,0.288-0.046,0.547,0.302c0.353,0.477,0.476,1.227,0.57,1.797
				c0.21,1.276,0.1,2.579,0.062,3.865c-0.095,3.219,4.906,3.216,5,0c0.129-4.387-0.362-10.906-6.178-10.964
				C449.915,192.981,449.913,197.981,453.134,198.012L453.134,198.012z"/>
		</g>
	</g>
	<g>
		<g>
			<path fill="#FFFFFF" d="M454.332,203.665c-0.142,3.689-0.285,7.377-0.427,11.066c-0.124,3.218,4.876,3.212,5,0
				c0.142-3.689,0.285-7.377,0.427-11.066C459.456,200.448,454.456,200.453,454.332,203.665L454.332,203.665z"/>
		</g>
	</g>
	<g>
		<g>
			<path fill="#FFFFFF" d="M453.992,214.969c0.051,1.031,0.146,2.099,0.03,3.128c-0.024,0.215-0.191,0.858-0.107,0.685
				c-0.067,0.138-0.396,0.45-0.38,0.436c-0.474,0.402-0.885,0.481-1.387,0.406c0.535,0.08-0.17-0.17,0.061-0.023
				c0.362,0.23,0.01,0.023,0.039-0.012c0.004-0.005,0.091,0.212-0.041-0.117c0.103,0.257-0.022-0.237-0.022-0.228
				c-0.123-1.345-1.061-2.5-2.5-2.5c-1.257,0-2.624,1.148-2.5,2.5c0.182,1.983,0.923,3.858,2.794,4.809
				c1.495,0.76,3.253,0.717,4.792,0.117c1.698-0.662,3.192-1.951,3.826-3.693c0.628-1.726,0.483-3.706,0.394-5.509
				C458.834,211.766,453.833,211.747,453.992,214.969L453.992,214.969z"/>
		</g>
	</g>
	<g>
		<g>
			<path fill="#FFFFFF" d="M447.309,204.584c-0.262,6.778-0.523,13.556-0.785,20.334c-0.124,3.218,4.876,3.212,5,0
				c0.262-6.778,0.523-13.556,0.785-20.334C452.434,201.366,447.433,201.372,447.309,204.584L447.309,204.584z"/>
		</g>
	</g>
	<g>
		<g>
			<path fill="#FFFFFF" d="M436.677,192.335c-2.266-0.087-4.531-0.175-6.797-0.262c-3.218-0.124-3.212,4.876,0,5
				c2.266,0.087,4.531,0.175,6.797,0.262C439.895,197.46,439.89,192.459,436.677,192.335L436.677,192.335z"/>
		</g>
	</g>
	<g>
		<g>
			<path fill="#FFFFFF" d="M429.837,192.113c-5.759-0.398-6.623,6.432-6.82,10.655c-0.15,3.217,4.85,3.209,5,0
				c0.06-1.292,0.067-2.465,0.377-3.707c0.307-1.227,0.582-2.008,1.443-1.948C433.049,197.335,433.035,192.334,429.837,192.113
				L429.837,192.113z"/>
		</g>
	</g>
	<g>
		<g>
			<path fill="#FFFFFF" d="M423.022,202.457c-0.142,3.689-0.285,7.377-0.427,11.066c-0.124,3.218,4.876,3.212,5,0
				c0.142-3.689,0.285-7.377,0.427-11.066C428.146,199.239,423.146,199.244,423.022,202.457L423.022,202.457z"/>
		</g>
	</g>
	<g>
		<g>
			<path fill="#FFFFFF" d="M422.489,213.753c-0.228,1.797-0.52,3.746,0.02,5.518c0.484,1.589,1.811,2.959,3.273,3.697
				c3.39,1.711,7.413,0.171,8.074-3.762c0.224-1.33-0.351-2.692-1.746-3.075c-1.199-0.329-2.85,0.407-3.075,1.746
				c-0.044,0.263-0.099,0.507-0.171,0.763c-0.065,0.233,0.038-0.057-0.149,0.246c0.061-0.099,0.451-0.43,0.054-0.132
				c0.175-0.131,0.24-0.068-0.016-0.019c0.516-0.099-0.091,0.012-0.226-0.019c0.257,0.057,0.188,0.026-0.026-0.023
				c-0.496-0.113-0.398-0.096-0.68-0.3c0.155,0.112-0.308-0.287-0.315-0.295c-0.272-0.296-0.024,0.015-0.147-0.187
				c-0.177-0.289,0.035,0.441-0.102-0.238c0.049,0.242-0.032-0.401-0.034-0.453c-0.039-1.16,0.122-2.32,0.268-3.468
				c0.171-1.342-1.271-2.5-2.5-2.5C423.497,211.253,422.66,212.407,422.489,213.753L422.489,213.753z"/>
		</g>
	</g>
	<g>
		<g>
			<path fill="#FFFFFF" d="M429.952,203.914c-0.262,6.778-0.523,13.556-0.785,20.334c-0.124,3.218,4.876,3.212,5,0
				c0.262-6.778,0.523-13.556,0.785-20.334C435.076,200.696,430.076,200.702,429.952,203.914L429.952,203.914z"/>
		</g>
	</g>
	<g>
		<g>
			<path fill="#FFFFFF" d="M448.911,222.497c-5.775-0.223-11.549-0.446-17.324-0.669c-3.218-0.124-3.212,4.876,0,5
				c5.775,0.223,11.549,0.446,17.324,0.669C452.129,227.621,452.124,222.621,448.911,222.497L448.911,222.497z"/>
		</g>
	</g>
</g>
<g>
	<g>
		<path fill="#FFFFFF" d="M527.874,357.871c-0.159,0-0.317-0.003-0.478-0.01c-3.264-0.125-6.284-1.516-8.503-3.913
			c-2.22-2.397-3.372-5.516-3.246-8.779c0.262-6.739,5.982-12.037,12.692-11.749c6.739,0.261,12.011,5.954,11.75,12.692l0,0
			C539.835,352.691,534.402,357.871,527.874,357.871z M527.864,337.41c-4.393,0-8.049,3.486-8.221,7.913
			c-0.084,2.196,0.691,4.294,2.185,5.908c1.494,1.613,3.526,2.549,5.723,2.634c4.522,0.171,8.367-3.373,8.543-7.907
			c0.175-4.534-3.373-8.366-7.908-8.542C528.078,337.412,527.971,337.41,527.864,337.41z"/>
	</g>
	<g>
		<g>
			<path fill="#FFFFFF" d="M529.52,355.651c-0.048,1.253-0.097,2.505-0.145,3.758c-0.051,1.308,1.186,2.559,2.5,2.5
				c1.398-0.063,2.446-1.098,2.5-2.5c0.048-1.253,0.097-2.505,0.145-3.758c0.05-1.308-1.186-2.559-2.5-2.5
				C530.622,353.214,529.574,354.25,529.52,355.651L529.52,355.651z"/>
		</g>
	</g>
	<g>
		<g>
			<path fill="#FFFFFF" d="M532.377,361.818c2.266,0.087,4.531,0.175,6.797,0.262c3.218,0.124,3.212-4.876,0-5
				c-2.266-0.087-4.531-0.175-6.797-0.262C529.159,356.693,529.164,361.694,532.377,361.818L532.377,361.818z"/>
		</g>
	</g>
	<g>
		<g>
			<path fill="#FFFFFF" d="M520.79,355.314c-0.048,1.253-0.097,2.505-0.145,3.758c-0.05,1.308,1.186,2.559,2.5,2.5
				c1.398-0.063,2.446-1.098,2.5-2.5c0.048-1.253,0.097-2.505,0.145-3.758c0.05-1.308-1.186-2.559-2.5-2.5
				C521.892,352.877,520.844,353.913,520.79,355.314L520.79,355.314z"/>
		</g>
	</g>
	<g>
		<g>
			<path fill="#FFFFFF" d="M522.652,356.442c-2.044-0.079-4.089-0.158-6.133-0.237c-3.218-0.124-3.212,4.876,0,5
				c2.044,0.079,4.089,0.158,6.133,0.237C525.87,361.566,525.864,356.566,522.652,356.442L522.652,356.442z"/>
		</g>
	</g>
	<g>
		<g>
			<path fill="#FFFFFF" d="M539.213,362.123c0.42,0.004,0.288-0.046,0.547,0.302c0.353,0.477,0.476,1.227,0.57,1.797
				c0.21,1.276,0.1,2.579,0.062,3.865c-0.094,3.219,4.906,3.216,5,0c0.128-4.387-0.361-10.906-6.178-10.964
				C535.995,357.091,535.992,362.091,539.213,362.123L539.213,362.123z"/>
		</g>
	</g>
	<g>
		<g>
			<path fill="#FFFFFF" d="M540.411,367.776c-0.142,3.688-0.285,7.377-0.427,11.065c-0.124,3.218,4.876,3.212,5,0
				c0.142-3.688,0.285-7.377,0.427-11.065C545.535,364.558,540.535,364.564,540.411,367.776L540.411,367.776z"/>
		</g>
	</g>
	<g>
		<g>
			<path fill="#FFFFFF" d="M540.071,379.079c0.051,1.031,0.146,2.099,0.03,3.128c-0.024,0.215-0.191,0.858-0.107,0.685
				c-0.067,0.138-0.396,0.45-0.38,0.436c-0.474,0.402-0.886,0.481-1.387,0.406c0.538,0.081-0.174-0.17,0.061-0.023
				c0.364,0.227,0.008,0.026,0.039-0.012c0.004-0.005,0.091,0.211-0.041-0.117c0.103,0.257-0.022-0.237-0.022-0.228
				c-0.123-1.345-1.061-2.5-2.5-2.5c-1.257,0-2.624,1.148-2.5,2.5c0.182,1.983,0.923,3.859,2.794,4.81
				c1.495,0.76,3.253,0.717,4.792,0.117c1.698-0.662,3.192-1.951,3.826-3.693c0.628-1.726,0.483-3.707,0.394-5.51
				C544.913,375.877,539.912,375.858,540.071,379.079L540.071,379.079z"/>
		</g>
	</g>
	<g>
		<g>
			<path fill="#FFFFFF" d="M533.389,368.695c-0.262,6.778-0.523,13.556-0.785,20.334c-0.124,3.218,4.876,3.212,5,0
				c0.262-6.778,0.523-13.556,0.785-20.334C538.513,365.477,533.513,365.483,533.389,368.695L533.389,368.695z"/>
		</g>
	</g>
	<g>
		<g>
			<path fill="#FFFFFF" d="M522.755,356.446c-2.266-0.087-4.531-0.175-6.797-0.262c-3.218-0.124-3.212,4.876,0,5
				c2.266,0.087,4.531,0.175,6.797,0.262C525.973,361.57,525.968,356.57,522.755,356.446L522.755,356.446z"/>
		</g>
	</g>
	<g>
		<g>
			<path fill="#FFFFFF" d="M515.916,356.224c-5.759-0.398-6.623,6.432-6.82,10.655c-0.15,3.217,4.85,3.209,5,0
				c0.06-1.292,0.067-2.465,0.377-3.707c0.307-1.227,0.582-2.008,1.443-1.948C519.127,361.445,519.113,356.445,515.916,356.224
				L515.916,356.224z"/>
		</g>
	</g>
	<g>
		<g>
			<path fill="#FFFFFF" d="M509.101,366.567c-0.142,3.688-0.285,7.377-0.427,11.065c-0.124,3.218,4.876,3.212,5,0
				c0.142-3.688,0.285-7.377,0.427-11.065C514.225,363.35,509.225,363.355,509.101,366.567L509.101,366.567z"/>
		</g>
	</g>
	<g>
		<g>
			<path fill="#FFFFFF" d="M508.568,377.863c-0.228,1.797-0.52,3.747,0.02,5.519c0.484,1.589,1.811,2.959,3.273,3.696
				c3.39,1.711,7.413,0.17,8.074-3.763c0.224-1.33-0.351-2.692-1.746-3.075c-1.199-0.329-2.85,0.407-3.075,1.746
				c-0.044,0.263-0.099,0.507-0.171,0.763c-0.065,0.233,0.038-0.057-0.149,0.246c0.061-0.099,0.451-0.429,0.054-0.132
				c0.175-0.131,0.24-0.068-0.016-0.019c0.516-0.099-0.091,0.012-0.226-0.019c0.257,0.057,0.188,0.026-0.026-0.023
				c-0.496-0.113-0.398-0.096-0.68-0.3c0.155,0.112-0.308-0.287-0.315-0.295c-0.272-0.296-0.024,0.015-0.147-0.187
				c-0.177-0.289,0.035,0.441-0.102-0.238c0.049,0.242-0.032-0.401-0.034-0.453c-0.039-1.16,0.122-2.32,0.268-3.468
				c0.17-1.342-1.271-2.5-2.5-2.5C509.575,375.363,508.739,376.518,508.568,377.863L508.568,377.863z"/>
		</g>
	</g>
	<g>
		<g>
			<path fill="#FFFFFF" d="M516.031,368.025c-0.262,6.778-0.523,13.556-0.785,20.334c-0.124,3.218,4.876,3.212,5,0
				c0.262-6.778,0.523-13.556,0.785-20.334C521.155,364.807,516.155,364.813,516.031,368.025L516.031,368.025z"/>
		</g>
	</g>
	<g>
		<g>
			<path fill="#FFFFFF" d="M534.99,386.608c-5.775-0.223-11.55-0.446-17.324-0.669c-3.218-0.124-3.212,4.876,0,5
				c5.775,0.223,11.55,0.446,17.324,0.669C538.208,391.732,538.203,386.732,534.99,386.608L534.99,386.608z"/>
		</g>
	</g>
</g>
<g>
	<g>
		<path fill="#FFFFFF" d="M519.728,251.071c-0.159,0-0.317-0.003-0.478-0.01c-6.738-0.261-12.01-5.955-11.749-12.693
			c0.125-3.265,1.516-6.284,3.913-8.503c2.397-2.22,5.508-3.387,8.779-3.245c3.265,0.125,6.285,1.515,8.504,3.912
			c2.22,2.397,3.372,5.516,3.245,8.78C531.69,245.891,526.256,251.071,519.728,251.071z M519.714,230.61
			c-2.078,0-4.05,0.771-5.583,2.19c-1.613,1.493-2.549,3.525-2.634,5.722c-0.175,4.534,3.373,8.367,7.907,8.543
			c4.561,0.16,8.367-3.373,8.542-7.907l0,0c0.085-2.197-0.69-4.295-2.185-5.908c-1.493-1.613-3.525-2.549-5.723-2.634
			C519.931,230.612,519.822,230.61,519.714,230.61z"/>
	</g>
	<g>
		<g>
			<path fill="#FFFFFF" d="M521.373,248.851c-0.048,1.253-0.097,2.505-0.145,3.758c-0.051,1.308,1.186,2.559,2.5,2.5
				c1.398-0.063,2.446-1.098,2.5-2.5c0.048-1.253,0.097-2.505,0.145-3.758c0.051-1.308-1.186-2.559-2.5-2.5
				C522.476,246.414,521.427,247.45,521.373,248.851L521.373,248.851z"/>
		</g>
	</g>
	<g>
		<g>
			<path fill="#FFFFFF" d="M524.23,255.018c2.266,0.087,4.531,0.175,6.797,0.262c3.218,0.124,3.212-4.876,0-5
				c-2.266-0.087-4.531-0.175-6.797-0.262C521.012,249.893,521.017,254.894,524.23,255.018L524.23,255.018z"/>
		</g>
	</g>
	<g>
		<g>
			<path fill="#FFFFFF" d="M512.643,248.514c-0.048,1.253-0.097,2.505-0.145,3.758c-0.051,1.308,1.186,2.559,2.5,2.5
				c1.398-0.063,2.446-1.098,2.5-2.5c0.048-1.253,0.097-2.505,0.145-3.758c0.05-1.308-1.186-2.559-2.5-2.5
				C513.745,246.077,512.697,247.113,512.643,248.514L512.643,248.514z"/>
		</g>
	</g>
	<g>
		<g>
			<path fill="#FFFFFF" d="M514.505,249.642c-2.044-0.079-4.089-0.158-6.134-0.237c-3.218-0.124-3.212,4.876,0,5
				c2.045,0.079,4.089,0.158,6.134,0.237C517.723,254.766,517.718,249.766,514.505,249.642L514.505,249.642z"/>
		</g>
	</g>
	<g>
		<g>
			<path fill="#FFFFFF" d="M531.066,255.323c0.42,0.004,0.288-0.046,0.547,0.302c0.353,0.477,0.476,1.227,0.57,1.797
				c0.21,1.276,0.1,2.579,0.062,3.865c-0.095,3.219,4.906,3.216,5,0c0.129-4.387-0.362-10.906-6.178-10.964
				C527.848,250.291,527.845,255.291,531.066,255.323L531.066,255.323z"/>
		</g>
	</g>
	<g>
		<g>
			<path fill="#FFFFFF" d="M532.265,260.976c-0.142,3.688-0.285,7.377-0.427,11.065c-0.124,3.218,4.876,3.212,5,0
				c0.142-3.688,0.285-7.377,0.427-11.065C537.389,257.758,532.389,257.764,532.265,260.976L532.265,260.976z"/>
		</g>
	</g>
	<g>
		<g>
			<path fill="#FFFFFF" d="M531.924,272.279c0.051,1.031,0.146,2.099,0.031,3.128c-0.024,0.215-0.191,0.858-0.107,0.685
				c-0.067,0.138-0.396,0.45-0.38,0.436c-0.474,0.402-0.886,0.481-1.387,0.406c0.538,0.081-0.174-0.17,0.061-0.023
				c0.364,0.227,0.008,0.026,0.039-0.012c0.004-0.005,0.091,0.211-0.041-0.117c0.103,0.257-0.022-0.237-0.022-0.228
				c-0.123-1.345-1.061-2.5-2.5-2.5c-1.257,0-2.624,1.148-2.5,2.5c0.182,1.983,0.923,3.859,2.794,4.81
				c1.495,0.76,3.253,0.717,4.792,0.117c1.698-0.662,3.192-1.951,3.826-3.693c0.628-1.726,0.483-3.707,0.394-5.51
				C536.766,269.077,531.766,269.058,531.924,272.279L531.924,272.279z"/>
		</g>
	</g>
	<g>
		<g>
			<path fill="#FFFFFF" d="M525.242,261.895c-0.262,6.778-0.523,13.556-0.785,20.334c-0.124,3.218,4.876,3.212,5,0
				c0.262-6.778,0.523-13.556,0.785-20.334C530.366,258.677,525.366,258.683,525.242,261.895L525.242,261.895z"/>
		</g>
	</g>
	<g>
		<g>
			<path fill="#FFFFFF" d="M514.609,249.646c-2.266-0.087-4.531-0.175-6.797-0.262c-3.218-0.124-3.212,4.876,0,5
				c2.266,0.087,4.531,0.175,6.797,0.262C517.826,254.77,517.821,249.77,514.609,249.646L514.609,249.646z"/>
		</g>
	</g>
	<g>
		<g>
			<path fill="#FFFFFF" d="M507.769,249.424c-5.759-0.398-6.623,6.432-6.82,10.655c-0.15,3.217,4.85,3.209,5,0
				c0.06-1.292,0.067-2.465,0.377-3.707c0.307-1.227,0.582-2.008,1.443-1.948C510.981,254.645,510.967,249.645,507.769,249.424
				L507.769,249.424z"/>
		</g>
	</g>
	<g>
		<g>
			<path fill="#FFFFFF" d="M500.955,259.767c-0.142,3.688-0.285,7.377-0.427,11.065c-0.124,3.218,4.876,3.212,5,0
				c0.142-3.688,0.285-7.377,0.427-11.065C506.079,256.55,501.079,256.555,500.955,259.767L500.955,259.767z"/>
		</g>
	</g>
	<g>
		<g>
			<path fill="#FFFFFF" d="M500.421,271.063c-0.228,1.797-0.52,3.747,0.02,5.519c0.484,1.589,1.811,2.959,3.273,3.697
				c3.39,1.711,7.413,0.17,8.074-3.763c0.224-1.33-0.351-2.692-1.746-3.075c-1.199-0.329-2.85,0.407-3.075,1.746
				c-0.044,0.263-0.099,0.507-0.171,0.763c-0.065,0.233,0.038-0.057-0.149,0.246c0.061-0.099,0.451-0.429,0.054-0.132
				c0.175-0.131,0.24-0.068-0.016-0.019c0.516-0.099-0.091,0.012-0.226-0.019c0.257,0.057,0.188,0.026-0.026-0.023
				c-0.496-0.113-0.398-0.096-0.681-0.3c0.155,0.112-0.308-0.287-0.315-0.295c-0.272-0.296-0.024,0.015-0.147-0.187
				c-0.177-0.289,0.035,0.441-0.102-0.238c0.049,0.242-0.032-0.401-0.034-0.453c-0.039-1.16,0.122-2.32,0.268-3.468
				c0.17-1.342-1.271-2.5-2.5-2.5C501.429,268.563,500.592,269.718,500.421,271.063L500.421,271.063z"/>
		</g>
	</g>
	<g>
		<g>
			<path fill="#FFFFFF" d="M507.884,261.225c-0.262,6.778-0.523,13.556-0.785,20.334c-0.124,3.218,4.876,3.212,5,0
				c0.262-6.778,0.523-13.556,0.785-20.334C513.008,258.007,508.008,258.012,507.884,261.225L507.884,261.225z"/>
		</g>
	</g>
	<g>
		<g>
			<path fill="#FFFFFF" d="M526.844,279.808c-5.775-0.223-11.55-0.446-17.324-0.669c-3.218-0.124-3.212,4.876,0,5
				c5.775,0.223,11.55,0.446,17.324,0.669C530.062,284.932,530.056,279.932,526.844,279.808L526.844,279.808z"/>
		</g>
	</g>
</g>
<g>
	<g>
		<path fill="#FFFFFF" d="M427.126,407.868c-0.159,0-0.319-0.003-0.479-0.01c-3.265-0.125-6.284-1.516-8.503-3.913
			s-3.371-5.515-3.245-8.779c0.125-3.264,1.515-6.284,3.912-8.503c2.398-2.22,5.532-3.393,8.779-3.245
			c3.265,0.125,6.284,1.515,8.504,3.912c2.219,2.397,3.371,5.515,3.245,8.779l0,0C439.084,402.688,433.653,407.868,427.126,407.868z
			 M427.111,387.408c-2.077,0-4.049,0.771-5.582,2.19c-1.613,1.493-2.549,3.525-2.634,5.722c-0.084,2.196,0.691,4.295,2.185,5.908
			s3.525,2.549,5.722,2.634c4.56,0.158,8.366-3.373,8.542-7.907l0,0c0.084-2.196-0.691-4.295-2.185-5.907
			c-1.493-1.613-3.525-2.549-5.723-2.634C427.327,387.41,427.219,387.408,427.111,387.408z"/>
	</g>
	<g>
		<g>
			<path fill="#FFFFFF" d="M428.77,405.649c-0.048,1.253-0.097,2.505-0.145,3.758c-0.051,1.308,1.186,2.559,2.5,2.5
				c1.398-0.063,2.446-1.098,2.5-2.5c0.048-1.253,0.097-2.505,0.145-3.758c0.051-1.308-1.186-2.559-2.5-2.5
				C429.873,403.212,428.824,404.247,428.77,405.649L428.77,405.649z"/>
		</g>
	</g>
	<g>
		<g>
			<path fill="#FFFFFF" d="M431.627,411.815c2.266,0.087,4.531,0.175,6.797,0.262c3.218,0.124,3.212-4.876,0-5
				c-2.266-0.087-4.531-0.175-6.797-0.262C428.409,406.691,428.414,411.691,431.627,411.815L431.627,411.815z"/>
		</g>
	</g>
	<g>
		<g>
			<path fill="#FFFFFF" d="M420.04,405.312c-0.048,1.253-0.097,2.505-0.145,3.758c-0.051,1.308,1.186,2.559,2.5,2.5
				c1.398-0.063,2.446-1.098,2.5-2.5c0.048-1.253,0.097-2.505,0.145-3.758c0.051-1.308-1.186-2.559-2.5-2.5
				C421.142,402.875,420.094,403.91,420.04,405.312L420.04,405.312z"/>
		</g>
	</g>
	<g>
		<g>
			<path fill="#FFFFFF" d="M421.901,406.44c-2.044-0.079-4.089-0.158-6.134-0.237c-3.218-0.124-3.212,4.876,0,5
				c2.045,0.079,4.089,0.158,6.134,0.237C425.119,411.564,425.114,406.564,421.901,406.44L421.901,406.44z"/>
		</g>
	</g>
	<g>
		<g>
			<path fill="#FFFFFF" d="M438.463,412.121c0.42,0.004,0.288-0.046,0.547,0.302c0.353,0.477,0.476,1.227,0.57,1.797
				c0.21,1.276,0.1,2.579,0.062,3.865c-0.095,3.219,4.906,3.216,5,0c0.129-4.387-0.362-10.906-6.178-10.964
				C435.245,407.089,435.242,412.089,438.463,412.121L438.463,412.121z"/>
		</g>
	</g>
	<g>
		<g>
			<path fill="#FFFFFF" d="M439.661,417.774c-0.142,3.688-0.285,7.377-0.427,11.065c-0.124,3.218,4.876,3.212,5,0
				c0.142-3.688,0.285-7.377,0.427-11.065C444.786,414.556,439.785,414.561,439.661,417.774L439.661,417.774z"/>
		</g>
	</g>
	<g>
		<g>
			<path fill="#FFFFFF" d="M439.321,429.077c0.051,1.031,0.146,2.099,0.03,3.128c-0.024,0.215-0.191,0.858-0.107,0.685
				c-0.067,0.138-0.396,0.45-0.38,0.436c-0.474,0.402-0.886,0.481-1.387,0.406c0.538,0.081-0.174-0.17,0.061-0.023
				c0.363,0.227,0.008,0.026,0.039-0.012c0.004-0.005,0.091,0.211-0.041-0.117c0.103,0.257-0.022-0.237-0.022-0.228
				c-0.123-1.345-1.061-2.5-2.5-2.5c-1.257,0-2.624,1.148-2.5,2.5c0.182,1.983,0.923,3.859,2.794,4.81
				c1.495,0.76,3.253,0.717,4.792,0.117c1.698-0.662,3.192-1.951,3.826-3.693c0.628-1.726,0.483-3.707,0.394-5.51
				C444.163,425.874,439.162,425.855,439.321,429.077L439.321,429.077z"/>
		</g>
	</g>
	<g>
		<g>
			<path fill="#FFFFFF" d="M432.639,418.693c-0.262,6.778-0.523,13.556-0.785,20.334c-0.124,3.218,4.876,3.212,5,0
				c0.262-6.778,0.523-13.556,0.785-20.334C437.763,415.475,432.763,415.48,432.639,418.693L432.639,418.693z"/>
		</g>
	</g>
	<g>
		<g>
			<path fill="#FFFFFF" d="M422.006,406.444c-2.266-0.087-4.531-0.175-6.797-0.262c-3.218-0.124-3.212,4.876,0,5
				c2.266,0.087,4.531,0.175,6.797,0.262C425.223,411.568,425.218,406.568,422.006,406.444L422.006,406.444z"/>
		</g>
	</g>
	<g>
		<g>
			<path fill="#FFFFFF" d="M415.166,406.221c-5.759-0.398-6.623,6.432-6.82,10.655c-0.15,3.217,4.85,3.209,5,0
				c0.06-1.292,0.067-2.465,0.377-3.707c0.307-1.227,0.582-2.008,1.443-1.948C418.378,411.443,418.364,406.442,415.166,406.221
				L415.166,406.221z"/>
		</g>
	</g>
	<g>
		<g>
			<path fill="#FFFFFF" d="M408.351,416.565c-0.142,3.688-0.285,7.377-0.427,11.065c-0.124,3.218,4.876,3.212,5,0
				c0.142-3.688,0.285-7.377,0.427-11.065C413.475,413.347,408.475,413.353,408.351,416.565L408.351,416.565z"/>
		</g>
	</g>
	<g>
		<g>
			<path fill="#FFFFFF" d="M407.818,427.861c-0.228,1.797-0.52,3.747,0.02,5.519c0.484,1.589,1.811,2.959,3.273,3.696
				c3.39,1.711,7.413,0.17,8.074-3.763c0.224-1.33-0.351-2.692-1.746-3.075c-1.199-0.329-2.85,0.407-3.075,1.746
				c-0.044,0.263-0.099,0.507-0.171,0.763c-0.065,0.233,0.038-0.057-0.149,0.246c0.061-0.099,0.451-0.429,0.054-0.132
				c0.175-0.131,0.24-0.068-0.016-0.019c0.516-0.099-0.091,0.012-0.226-0.019c0.257,0.057,0.188,0.026-0.026-0.023
				c-0.496-0.113-0.398-0.096-0.68-0.3c0.155,0.112-0.308-0.287-0.315-0.295c-0.272-0.296-0.024,0.015-0.147-0.187
				c-0.177-0.289,0.035,0.441-0.102-0.238c0.049,0.242-0.032-0.401-0.034-0.453c-0.039-1.16,0.122-2.32,0.268-3.468
				c0.17-1.342-1.271-2.5-2.5-2.5C408.826,425.361,407.989,426.515,407.818,427.861L407.818,427.861z"/>
		</g>
	</g>
	<g>
		<g>
			<path fill="#FFFFFF" d="M415.281,418.023c-0.262,6.778-0.523,13.556-0.785,20.334c-0.124,3.218,4.876,3.212,5,0
				c0.262-6.778,0.523-13.556,0.785-20.334C420.405,414.805,415.405,414.81,415.281,418.023L415.281,418.023z"/>
		</g>
	</g>
	<g>
		<g>
			<path fill="#FFFFFF" d="M434.239,436.605c-5.774-0.223-11.549-0.446-17.323-0.669c-3.218-0.124-3.212,4.876,0,5
				c5.774,0.223,11.549,0.446,17.323,0.669C437.457,441.73,437.452,436.729,434.239,436.605L434.239,436.605z"/>
		</g>
	</g>
</g>
<g>
	<g>
		<path fill="#FFFFFF" d="M439.597,381.924c4.706-4.356,9.412-8.712,14.118-13.068c2.367-2.191-1.176-5.72-3.536-3.536
			c-4.706,4.356-9.412,8.712-14.118,13.068C433.695,380.579,437.237,384.108,439.597,381.924L439.597,381.924z"/>
	</g>
</g>
<g>
	<g>
		<path fill="#FFFFFF" d="M531.213,328.419c-3.263-13.069-6.527-26.138-9.791-39.206c-0.779-3.12-5.603-1.798-4.821,1.329
			c3.265,13.068,6.528,26.137,9.791,39.206C527.17,332.868,531.994,331.547,531.213,328.419L531.213,328.419z"/>
	</g>
</g>
<g>
	<g>
		<path fill="#FFFFFF" d="M346.315,318.625c-3.263-13.069-6.527-26.138-9.791-39.206c-0.779-3.12-5.603-1.798-4.821,1.329
			c3.265,13.068,6.528,26.137,9.791,39.206C342.272,323.074,347.096,321.752,346.315,318.625L346.315,318.625z"/>
	</g>
</g>
<g>
	<g>
		<path fill="#FFFFFF" d="M512.726,334.134c-9.503-6.122-19.007-12.245-28.51-18.367c-2.713-1.748-5.223,2.579-2.524,4.317
			c9.504,6.122,19.007,12.244,28.51,18.367C512.915,340.199,515.425,335.873,512.726,334.134L512.726,334.134z"/>
	</g>
</g>
<g>
	<g>
		<path fill="#FFFFFF" d="M448.295,298.128c-9.491-5.636-18.983-11.271-28.474-16.906c-2.773-1.646-5.291,2.674-2.524,4.317
			c9.492,5.635,18.983,11.27,28.474,16.906C448.544,304.092,451.062,299.772,448.295,298.128L448.295,298.128z"/>
	</g>
</g>
<g>
	<g>
		<path fill="#FFFFFF" d="M376.314,259.047c-6.084-2.758-12.168-5.516-18.253-8.273c-2.908-1.318-5.453,2.99-2.524,4.317
			c6.084,2.757,12.169,5.515,18.253,8.273C376.698,264.683,379.243,260.375,376.314,259.047L376.314,259.047z"/>
	</g>
</g>
<g>
	<g>
		<path fill="#FFFFFF" d="M369.099,302.268c-3.35,5.779-6.701,11.558-10.05,17.338c-1.617,2.789,2.703,5.31,4.317,2.524
			c3.349-5.78,6.7-11.559,10.05-17.338C375.034,302.003,370.715,299.483,369.099,302.268L369.099,302.268z"/>
	</g>
</g>
<g>
	<g>
		<path fill="#FFFFFF" d="M426.552,232.942c-5.705,3.475-11.41,6.949-17.115,10.425c-2.744,1.672-0.234,5.998,2.524,4.317
			c5.705-3.476,11.41-6.95,17.115-10.425C431.82,235.588,429.31,231.262,426.552,232.942L426.552,232.942z"/>
	</g>
</g>
<g>
	<g>
		<path fill="#FFFFFF" d="M491.374,282.593c-5.705,3.475-11.41,6.949-17.114,10.425c-2.744,1.672-0.234,5.998,2.524,4.317
			c5.704-3.475,11.409-6.95,17.114-10.425C496.641,285.239,494.132,280.914,491.374,282.593L491.374,282.593z"/>
	</g>
</g>
<g>
	<g>
		<path fill="#FFFFFF" d="M505.535,225.962c-11.594-7.685-23.188-15.369-34.782-23.054c-2.69-1.783-5.197,2.546-2.524,4.317
			c11.594,7.684,23.188,15.369,34.782,23.054C505.701,232.062,508.208,227.734,505.535,225.962L505.535,225.962z"/>
	</g>
</g>
<g>
	<g>
		<path fill="#FFFFFF" d="M411.775,198.719c-19.151,9.449-38.302,18.898-57.453,28.346c-2.886,1.424-0.355,5.738,2.524,4.317
			c19.151-9.449,38.302-18.898,57.453-28.346C417.184,201.612,414.654,197.299,411.775,198.719L411.775,198.719z"/>
	</g>
</g>
<g>
	<g>
		<path fill="#FFFFFF" d="M462.274,290.784c-5.522-17.657-11.042-35.314-16.565-52.971c-0.957-3.061-5.786-1.754-4.821,1.329
			c5.522,17.657,11.043,35.314,16.565,52.971C458.41,295.174,463.238,293.867,462.274,290.784L462.274,290.784z"/>
	</g>
</g>
<g>
	<g>
		<path fill="#FFFFFF" d="M445.71,393.47c19.583-4.114,39.166-8.227,58.749-12.342c3.147-0.661,1.815-5.482-1.329-4.821
			c-19.583,4.114-39.166,8.227-58.749,12.342C441.233,389.31,442.565,394.131,445.71,393.47L445.71,393.47z"/>
	</g>
</g>
<g>
	<g>
		<path fill="#FFFFFF" d="M414.342,381.24c-13.924-5.334-27.848-10.667-41.773-16.001c-3.007-1.152-4.309,3.68-1.329,4.821
			c13.924,5.334,27.848,10.667,41.773,16.001C416.02,387.213,417.321,382.381,414.342,381.24L414.342,381.24z"/>
	</g>
</g>
<g>
	<g>
		<path fill="#FFFFFF" d="M499.804,73.228l1.047,9.61l-2.941-1.683l-0.817-9.124l-0.433-0.248l-3.732,6.521l-2.404-1.376L499.64,61
			l2.816,1.612c2.104,1.204,3.398,2.47,3.881,3.796c0.527,1.471,0.378,2.928-0.448,4.372c-0.646,1.128-1.524,1.913-2.635,2.354
			C502.143,73.576,500.992,73.607,499.804,73.228z M497.858,69.69l0.763,0.437c2.276,1.303,3.913,1.084,4.909-0.656
			c0.933-1.63,0.292-3.078-1.923-4.346l-0.855-0.49L497.858,69.69z"/>
		<path fill="#FFFFFF" d="M510.871,75.235l-3.3,5.767c-0.953,1.664-0.771,2.873,0.541,3.624c1.314,0.752,2.447,0.296,3.4-1.368
			l3.3-5.768l2.32,1.328l-3.329,5.818c-0.461,0.805-0.957,1.443-1.492,1.914c-0.491,0.412-1.094,0.692-1.809,0.84
			c-1.174,0.232-2.367,0.002-3.577-0.691c-1.203-0.688-2.002-1.598-2.396-2.728c-0.241-0.694-0.313-1.36-0.213-1.997
			c0.075-0.578,0.376-1.328,0.903-2.25l3.33-5.818L510.871,75.235z"/>
		<path fill="#FFFFFF" d="M520.063,80.496l2.331,1.334l-0.531,0.929c1.273-0.341,2.418-0.22,3.437,0.363
			c1.168,0.669,1.868,1.559,2.102,2.668c0.206,0.949-0.098,2.132-0.908,3.548l-3.524,6.159l-2.332-1.334l3.213-5.612
			c0.566-0.99,0.82-1.753,0.762-2.289c-0.049-0.539-0.427-1.011-1.135-1.416c-0.77-0.44-1.463-0.499-2.077-0.176
			c-0.603,0.322-1.264,1.107-1.98,2.359l-2.774,4.849l-2.332-1.334L520.063,80.496z"/>
		<path fill="#FFFFFF" d="M531.648,87.126l2.332,1.335l-0.531,0.928c1.272-0.34,2.418-0.219,3.436,0.364
			c1.169,0.669,1.869,1.558,2.102,2.668c0.206,0.949-0.098,2.132-0.908,3.548l-3.525,6.159l-2.33-1.334l3.212-5.612
			c0.566-0.99,0.82-1.753,0.763-2.289c-0.049-0.539-0.427-1.011-1.136-1.416c-0.77-0.44-1.463-0.5-2.076-0.176
			c-0.604,0.321-1.264,1.107-1.98,2.359l-2.774,4.849l-2.332-1.335L531.648,87.126z"/>
		<path fill="#FFFFFF" d="M549.196,104.564l-7.201-4.121c-0.41,0.861-0.519,1.671-0.323,2.432c0.199,0.753,0.669,1.342,1.413,1.768
			c0.578,0.33,1.134,0.466,1.669,0.407c0.53-0.062,1.244-0.329,2.144-0.8l1.334,2.215c-0.598,0.342-1.17,0.602-1.719,0.776
			c-0.546,0.176-1.081,0.271-1.603,0.288c-0.521,0.017-1.036-0.048-1.546-0.193c-0.51-0.146-1.026-0.369-1.55-0.668
			c-1.499-0.857-2.427-2.028-2.783-3.511c-0.353-1.489-0.071-3.035,0.846-4.638c0.909-1.589,2.087-2.623,3.529-3.103
			c1.441-0.462,2.896-0.273,4.361,0.564c1.479,0.847,2.378,1.987,2.698,3.422c0.317,1.423,0.002,2.964-0.946,4.621L549.196,104.564z
			 M547.9,101.303c0.385-1.423-0.041-2.488-1.279-3.197c-0.282-0.161-0.571-0.27-0.868-0.325s-0.593-0.061-0.888-0.016
			c-0.297,0.046-0.58,0.14-0.855,0.284c-0.273,0.145-0.531,0.34-0.772,0.585L547.9,101.303z"/>
		<path fill="#FFFFFF" d="M554.921,100.446l2.321,1.329l-0.514,0.896c0.683-0.202,1.236-0.292,1.66-0.268
			c0.436,0.021,0.885,0.163,1.346,0.427c0.611,0.35,1.138,0.915,1.576,1.696l-2.28,1.517c-0.258-0.567-0.598-0.973-1.017-1.212
			c-1.266-0.725-2.446-0.131-3.54,1.781l-2.982,5.21l-2.32-1.329L554.921,100.446z"/>
		<path fill="#FFFFFF" d="M575.558,104.451l-5.491,9.594c-0.783,1.369-1.134,2.497-1.048,3.386c0.144,1.296,0.82,2.291,2.031,2.984
			c1.217,0.696,2.421,0.778,3.611,0.245c0.798-0.355,1.595-1.229,2.39-2.618l5.491-9.594l2.403,1.375l-5.869,10.255
			c-0.961,1.678-2.274,2.761-3.942,3.249c-1.868,0.538-3.659,0.316-5.371-0.663c-1.713-0.98-2.808-2.411-3.284-4.29
			c-0.424-1.686-0.154-3.366,0.807-5.045l5.869-10.254L575.558,104.451z"/>
		<path fill="#FFFFFF" d="M578.394,134.478l-2.322-1.329l8.88-15.516l2.322,1.329l-0.626,1.093c1.438-0.391,2.738-0.254,3.901,0.411
			c1.383,0.792,2.229,1.952,2.541,3.481c0.328,1.53,0.052,3.066-0.829,4.606c-0.862,1.507-2.031,2.504-3.507,2.992
			c-1.464,0.486-2.879,0.339-4.239-0.44c-1.177-0.673-1.96-1.747-2.348-3.221L578.394,134.478z M589.882,127.207
			c0.551-0.962,0.737-1.896,0.563-2.801c-0.18-0.915-0.672-1.603-1.476-2.063c-0.854-0.488-1.714-0.588-2.582-0.3
			c-0.868,0.289-1.577,0.914-2.128,1.877c-0.539,0.942-0.721,1.871-0.541,2.786c0.181,0.897,0.697,1.591,1.549,2.078
			c0.807,0.461,1.643,0.538,2.512,0.231C588.66,128.719,589.362,128.115,589.882,127.207z"/>
	</g>
	<g>
		<circle fill="#FFFFFF" cx="600.638" cy="133.022" r="4.129"/>
	</g>
	<g>
		<circle fill="#FFFFFF" cx="485.029" cy="63.465" r="4.129"/>
	</g>
</g>
<g>
	<g>
		<g>
			<path fill="#FFFFFF" d="M517.656,505.828l1.867-1.085l3.838,6.609c0.317-0.984,0.877-1.708,1.68-2.174
				c0.914-0.53,1.816-0.659,2.708-0.384c0.765,0.245,1.474,0.931,2.13,2.061l2.878,4.957l-1.868,1.085l-2.777-4.783
				c-0.376-0.647-0.764-1.051-1.161-1.208c-0.399-0.157-0.853-0.087-1.362,0.209c-0.653,0.379-0.996,0.847-1.026,1.406
				c-0.023,0.561,0.256,1.339,0.834,2.335l2.271,3.911l-1.868,1.085L517.656,505.828z"/>
		</g>
		<g>
			<path fill="#FFFFFF" d="M536.389,502.889l1.877-1.09l4.696,8.088l-1.876,1.09l-0.493-0.847c-0.352,1.166-0.97,2.006-1.855,2.521
				c-1.118,0.649-2.277,0.783-3.478,0.398c-1.204-0.403-2.164-1.223-2.881-2.457c-0.705-1.213-0.928-2.433-0.673-3.663
				c0.256-1.229,0.929-2.16,2.019-2.793c0.942-0.546,2.011-0.649,3.208-0.307L536.389,502.889z M534.289,509.483
				c0.45,0.775,1.024,1.285,1.722,1.531c0.712,0.246,1.392,0.18,2.04-0.196c0.692-0.401,1.113-0.965,1.263-1.689
				c0.14-0.739-0.009-1.489-0.451-2.248c-0.44-0.758-1.016-1.26-1.729-1.505c-0.706-0.234-1.398-0.153-2.08,0.242
				c-0.642,0.373-1.038,0.928-1.187,1.666C533.728,508.024,533.868,508.756,534.289,509.483z"/>
		</g>
		<g>
			<path fill="#FFFFFF" d="M547.121,497.124l1.441,2.482c-0.728-0.273-1.317-0.408-1.768-0.405
				c-0.448-0.007-0.896,0.121-1.344,0.381c-0.703,0.408-1.144,0.993-1.323,1.755c-0.179,0.764-0.053,1.516,0.377,2.257
				c0.441,0.758,1.026,1.251,1.758,1.478c0.737,0.224,1.456,0.132,2.159-0.277c0.448-0.26,0.788-0.588,1.019-0.98
				c0.222-0.381,0.401-0.973,0.534-1.776l1.432,2.465c-0.531,0.834-1.175,1.471-1.933,1.911c-1.251,0.726-2.532,0.931-3.843,0.61
				c-1.314-0.325-2.321-1.091-3.022-2.298c-0.701-1.207-0.866-2.472-0.496-3.797c0.371-1.326,1.175-2.348,2.415-3.068
				C545.327,497.4,546.19,497.153,547.121,497.124z"/>
		</g>
		<g>
			<path fill="#FFFFFF" d="M547.15,488.703l4.966,8.552l1.113-4.143l2.508-1.457l-1.541,5.436l6.494,2.503l-2.425,1.408l-4.656-1.86
				l-0.125,0.472l1.808,3.115l-1.868,1.085l-8.143-14.024L547.15,488.703z"/>
		</g>
		<g>
			<path fill="#FFFFFF" d="M563.16,487.346l1.876-1.09l4.697,8.087l-1.877,1.09l-0.493-0.846c-0.351,1.166-0.97,2.006-1.855,2.521
				c-1.118,0.649-2.277,0.783-3.478,0.398c-1.203-0.403-2.164-1.223-2.881-2.457c-0.705-1.213-0.928-2.433-0.672-3.663
				c0.256-1.229,0.929-2.161,2.019-2.793c0.941-0.546,2.01-0.649,3.207-0.308L563.16,487.346z M561.059,493.94
				c0.451,0.775,1.024,1.285,1.722,1.531c0.712,0.246,1.393,0.18,2.04-0.196c0.692-0.401,1.113-0.964,1.263-1.688
				c0.141-0.739-0.009-1.489-0.451-2.248c-0.44-0.758-1.016-1.26-1.729-1.505c-0.705-0.234-1.398-0.153-2.08,0.242
				c-0.642,0.373-1.038,0.928-1.186,1.666C560.498,492.481,560.638,493.213,561.059,493.94z"/>
		</g>
		<g>
			<path fill="#FFFFFF" d="M570.333,485.512l3.684,6.344l-1.867,1.084l-3.684-6.345l-0.797,0.463l-1.013-1.744l0.797-0.462
				l-1.721-2.965l1.868-1.084l1.721,2.964l1.453-0.844l1.013,1.744L570.333,485.512z"/>
		</g>
		<g>
			<path fill="#FFFFFF" d="M568.598,476.251l1.867-1.085l3.838,6.609c0.317-0.984,0.877-1.708,1.68-2.174
				c0.913-0.531,1.816-0.659,2.708-0.384c0.764,0.245,1.473,0.931,2.129,2.061l2.878,4.957l-1.868,1.085l-2.777-4.783
				c-0.376-0.647-0.764-1.05-1.161-1.207c-0.399-0.157-0.853-0.087-1.362,0.209c-0.653,0.379-0.995,0.846-1.026,1.406
				c-0.022,0.56,0.256,1.339,0.834,2.335l2.271,3.911l-1.868,1.085L568.598,476.251z"/>
		</g>
		<g>
			<path fill="#FFFFFF" d="M583.302,480.98c-0.679-1.168-0.837-2.404-0.478-3.709c0.361-1.303,1.141-2.306,2.343-3.002
				c1.207-0.701,2.47-0.883,3.79-0.547c1.309,0.343,2.313,1.115,3.01,2.316c0.704,1.213,0.875,2.472,0.515,3.776
				c-0.369,1.302-1.164,2.308-2.388,3.018c-1.213,0.705-2.469,0.879-3.771,0.524C585.029,483.012,584.021,482.22,583.302,480.98z
				 M585.231,479.904c0.469,0.808,1.056,1.322,1.762,1.542c0.719,0.219,1.44,0.118,2.166-0.302c0.73-0.425,1.178-0.998,1.343-1.723
				c0.164-0.724,0.017-1.479-0.44-2.267c-0.456-0.786-1.04-1.287-1.75-1.504c-0.719-0.217-1.441-0.117-2.166,0.305
				c-0.715,0.415-1.155,0.988-1.321,1.72C584.658,478.409,584.793,479.152,585.231,479.904z"/>
		</g>
		<g>
			<path fill="#FFFFFF" d="M591.591,470.837l1.877-1.09l0.433,0.747c0.278-1.026,0.825-1.778,1.645-2.253
				c0.942-0.546,1.846-0.677,2.716-0.389c0.747,0.239,1.451,0.93,2.113,2.071l2.878,4.957l-1.877,1.09l-2.623-4.518
				c-0.463-0.797-0.893-1.284-1.292-1.46c-0.396-0.185-0.878-0.111-1.449,0.219c-0.62,0.36-0.942,0.821-0.963,1.382
				c-0.02,0.551,0.263,1.331,0.847,2.338l2.267,3.903l-1.877,1.09L591.591,470.837z"/>
		</g>
		<g>
			<path fill="#FFFFFF" d="M612.884,466.857l4.774-2.772l1.057,1.819l-8.611,4.999l1.322-7.973c0.125-0.791,0.222-1.469,0.29-2.034
				c0.068-0.564,0.102-1.025,0.103-1.381c0.013-0.703-0.101-1.262-0.341-1.677c-0.347-0.598-0.848-0.977-1.503-1.137
				c-0.656-0.16-1.293-0.059-1.913,0.301c-1.295,0.752-1.592,1.949-0.89,3.592l-1.927,1.119c-1.259-2.882-0.678-5.026,1.74-6.43
				c1.168-0.678,2.364-0.875,3.586-0.594c1.228,0.279,2.16,0.966,2.796,2.062c0.405,0.698,0.617,1.489,0.635,2.375
				c0.013,0.458-0.021,1.031-0.105,1.72c-0.085,0.691-0.215,1.522-0.389,2.496L612.884,466.857z"/>
		</g>
		<g>
			<path fill="#FFFFFF" d="M617.128,458.142c-1.186-2.043-1.656-3.949-1.412-5.72c0.213-1.595,0.925-2.747,2.138-3.451
				c1.212-0.704,2.564-0.751,4.057-0.145c1.659,0.666,3.097,2.046,4.316,4.144c1.214,2.093,1.7,4.025,1.455,5.795
				c-0.214,1.596-0.923,2.745-2.129,3.446c-1.207,0.701-2.562,0.751-4.065,0.15C619.828,461.696,618.375,460.29,617.128,458.142z
				 M619.034,457.046c0.826,1.423,1.758,2.461,2.797,3.116c1.03,0.639,1.926,0.736,2.69,0.292c0.758-0.44,1.118-1.267,1.08-2.481
				c-0.036-1.208-0.46-2.513-1.273-3.913c-0.813-1.401-1.737-2.419-2.772-3.054c-1.032-0.629-1.927-0.724-2.684-0.284
				c-0.753,0.437-1.112,1.26-1.077,2.468C617.828,454.394,618.24,455.68,619.034,457.046z"/>
		</g>
		<g>
			<path fill="#FFFFFF" d="M628.886,445.275l-2.217,1.287l0.012-2.426l3.089-1.793l7.443,12.821l-1.935,1.123L628.886,445.275z"/>
		</g>
		<g>
			<path fill="#FFFFFF" d="M640.251,444.484c-1.327-0.118-2.323-0.75-2.988-1.896c-0.604-1.041-0.752-2.118-0.442-3.229
				c0.314-1.116,1.005-1.984,2.074-2.605c1.062-0.617,2.151-0.782,3.265-0.495c1.11,0.28,1.97,0.946,2.581,1.998
				c0.639,1.101,0.694,2.274,0.164,3.514c0.675-0.023,1.314,0.147,1.916,0.507c0.607,0.359,1.104,0.869,1.49,1.533
				c0.659,1.135,0.828,2.281,0.507,3.436c-0.32,1.157-1.059,2.07-2.217,2.742c-1.185,0.687-2.373,0.889-3.567,0.606
				c-1.2-0.281-2.12-0.974-2.763-2.082C639.435,447.074,639.428,445.731,640.251,444.484z M639.076,441.523
				c0.318,0.547,0.77,0.899,1.356,1.055c0.595,0.157,1.159,0.083,1.691-0.226c0.526-0.305,0.867-0.755,1.025-1.35
				c0.158-0.595,0.085-1.155-0.221-1.682c-0.306-0.525-0.756-0.867-1.351-1.026c-0.595-0.157-1.155-0.083-1.681,0.221
				c-0.526,0.306-0.867,0.756-1.026,1.351C638.712,440.462,638.781,441.014,639.076,441.523z M642.133,447.343
				c0.344,0.592,0.845,0.984,1.502,1.171c0.659,0.179,1.285,0.097,1.878-0.247c0.586-0.341,0.966-0.839,1.141-1.495
				c0.171-0.663,0.086-1.286-0.255-1.873c-0.344-0.592-0.844-0.975-1.5-1.15c-0.656-0.174-1.277-0.09-1.864,0.25
				c-0.581,0.337-0.962,0.836-1.141,1.495C641.719,446.151,641.8,446.767,642.133,447.343z"/>
		</g>
	</g>
	<g>
		<g>
			<path fill="#FFFFFF" d="M443.686,560.902c-0.084-0.142-0.168-0.283-0.251-0.426s-0.162-0.287-0.205-0.448
				c-0.034-0.126-0.108-0.233-0.166-0.348c-0.042-0.083-0.091-0.163-0.096-0.26c-0.001-0.021-0.006-0.043-0.015-0.062
				c-0.084-0.166-0.148-0.338-0.202-0.517c-0.05-0.163-0.094-0.328-0.142-0.492c-0.066-0.225-0.116-0.456-0.161-0.687
				c-0.064-0.328-0.111-0.658-0.142-0.991c-0.04-0.429-0.05-0.857-0.041-1.288c0.006-0.328,0.052-0.651,0.082-0.977
				c0.027-0.29,0.109-0.57,0.155-0.856c0.06-0.369,0.175-0.72,0.283-1.075c0.168-0.55,0.396-1.076,0.662-1.584
				c0.175-0.333,0.372-0.656,0.576-0.973c0.114-0.176,0.233-0.353,0.368-0.513c0.132-0.156,0.236-0.336,0.396-0.467
				c0.057-0.047,0.066-0.127,0.131-0.167c0.055-0.034,0.091-0.086,0.127-0.142c0.058-0.09,0.156-0.142,0.228-0.224
				c0.116-0.134,0.253-0.25,0.387-0.367c0.156-0.136,0.324-0.259,0.477-0.399c0.144-0.131,0.304-0.238,0.461-0.351
				c0.338-0.242,0.68-0.479,1.051-0.666c0.472-0.239,0.949-0.468,1.45-0.644c0.188-0.066,0.377-0.133,0.568-0.188
				c0.155-0.044,0.305-0.122,0.473-0.12c0.114-0.069,0.253-0.04,0.37-0.095c0.092-0.044,0.194-0.031,0.291-0.054
				c0.211-0.049,0.429-0.073,0.645-0.094c0.409-0.04,0.82-0.062,1.231-0.058c0.411,0.004,0.819,0.052,1.228,0.091
				c0.407,0.039,0.796,0.163,1.199,0.216c0.063,0.008,0.124,0.033,0.185,0.053c0.135,0.044,0.266,0.1,0.403,0.132
				c0.343,0.079,0.661,0.22,0.981,0.36c0.252,0.11,0.506,0.217,0.749,0.345c0.262,0.138,0.515,0.294,0.767,0.452
				c0.338,0.212,0.66,0.448,0.963,0.705c0.172,0.146,0.364,0.273,0.502,0.457c0.146,0.07,0.201,0.24,0.345,0.315
				c0.035,0.018,0.058,0.062,0.083,0.097c0.051,0.07,0.1,0.138,0.172,0.189c0.039,0.028,0.071,0.07,0.1,0.11
				c0.062,0.088,0.119,0.176,0.211,0.24c0.045,0.031,0.075,0.086,0.106,0.133c0.094,0.144,0.186,0.289,0.301,0.418
				c0.125,0.14,0.22,0.3,0.315,0.46c0.113,0.191,0.226,0.383,0.338,0.574c0.094,0.161,0.189,0.321,0.249,0.499
				c0.051,0.15,0.127,0.288,0.2,0.427c0.043,0.082,0.094,0.162,0.093,0.26c0,0.014,0.003,0.029,0.009,0.042
				c0.081,0.159,0.138,0.326,0.186,0.498c0.026,0.095,0.07,0.182,0.086,0.284c0.018,0.117,0.066,0.231,0.097,0.348
				c0.09,0.336,0.155,0.676,0.209,1.019c0.076,0.485,0.112,0.97,0.118,1.461c0.003,0.255-0.027,0.508-0.012,0.762
				c-0.074,0.512-0.106,1.031-0.238,1.535c-0.038,0.144-0.055,0.294-0.096,0.437c-0.067,0.234-0.148,0.463-0.217,0.696
				c-0.076,0.259-0.196,0.501-0.295,0.75c-0.235,0.589-0.558,1.133-0.894,1.668c-0.174,0.186-0.28,0.422-0.458,0.607
				c-0.066,0.069-0.119,0.156-0.184,0.23c-0.144,0.165-0.272,0.346-0.431,0.495c-0.119,0.112-0.212,0.253-0.356,0.338
				c-0.278,0.311-0.623,0.545-0.936,0.816c-0.011,0.009-0.022,0.018-0.034,0.026c-0.411,0.273-0.803,0.579-1.25,0.793
				c-0.335,0.16-0.658,0.345-1.009,0.475c-0.214,0.079-0.429,0.16-0.641,0.245c-0.138,0.055-0.286,0.086-0.428,0.133
				c-0.175,0.057-0.354,0.109-0.535,0.138c-0.215,0.035-0.422,0.117-0.644,0.113c-0.43,0.097-0.868,0.127-1.306,0.141
				c-0.418,0.013-0.838,0.02-1.255-0.042c-0.195-0.029-0.395-0.034-0.59-0.064c-0.238-0.037-0.473-0.097-0.711-0.134
				c-0.453-0.07-0.876-0.243-1.312-0.369c-0.231-0.066-0.446-0.184-0.671-0.274c-0.33-0.132-0.642-0.3-0.951-0.473
				c-0.382-0.213-0.744-0.459-1.096-0.719c-0.195-0.144-0.38-0.302-0.562-0.463c-0.177-0.155-0.339-0.326-0.511-0.485
				c-0.125-0.117-0.218-0.265-0.362-0.362c-0.028-0.019-0.048-0.053-0.068-0.082c-0.077-0.112-0.152-0.223-0.262-0.31
				c-0.059-0.047-0.096-0.124-0.137-0.191c-0.08-0.128-0.169-0.248-0.272-0.359c-0.049-0.052-0.092-0.11-0.129-0.17
				c-0.112-0.184-0.219-0.37-0.328-0.555C443.688,560.9,443.687,560.901,443.686,560.902z M450.454,556.765
				c0.194-0.157,0.371-0.327,0.572-0.46c0.406-0.267,0.817-0.532,1.273-0.71c0.188-0.073,0.354-0.193,0.541-0.26
				c0.34-0.122,0.646-0.305,0.955-0.486c0.167-0.098,0.332-0.197,0.465-0.342c0.033-0.036,0.076-0.067,0.12-0.09
				c0.169-0.089,0.258-0.266,0.414-0.369c0.204-0.278,0.423-0.545,0.54-0.88c0.167-0.478,0.171-0.947-0.036-1.412
				c-0.079-0.177-0.18-0.342-0.293-0.5c-0.183-0.255-0.422-0.443-0.705-0.57c-0.314-0.141-0.643-0.207-0.99-0.209
				c-0.3-0.002-0.59,0.03-0.872,0.133c-0.019,0.007-0.042,0.011-0.063,0.008c-0.069-0.008-0.125,0.026-0.182,0.055
				c-0.28,0.145-0.55,0.307-0.813,0.481c-0.042,0.028-0.089,0.051-0.11,0.099c-0.031,0.071-0.093,0.106-0.151,0.148
				c-0.029,0.021-0.064,0.039-0.083,0.067c-0.115,0.17-0.263,0.312-0.382,0.48c-0.203,0.287-0.371,0.593-0.487,0.92
				c-0.205,0.579-0.297,1.179-0.276,1.796c0.013,0.38,0.073,0.753,0.166,1.119c0.034,0.137,0.054,0.281,0.126,0.409
				c0.042,0.075,0.065,0.156,0.085,0.241C450.297,556.557,450.347,556.675,450.454,556.765z M451.646,556.695
				c-0.093,0.055-0.183,0.113-0.278,0.163c-0.104,0.054-0.18,0.14-0.259,0.222c-0.025,0.025-0.058,0.041-0.087,0.063
				c-0.102,0.077-0.226,0.124-0.296,0.242c-0.066,0.11-0.221,0.14-0.258,0.279c-0.162,0.18-0.281,0.387-0.386,0.606
				c-0.235,0.486-0.22,0.979-0.029,1.464c0.124,0.313,0.338,0.566,0.615,0.774c0.34,0.255,0.721,0.371,1.13,0.385
				c0.365,0.012,0.734-0.009,1.073-0.18c0.037-0.019,0.083-0.021,0.124-0.032c0.041-0.011,0.084-0.02,0.122-0.038
				c0.371-0.172,0.723-0.448,1.019-0.765c0.121-0.13,0.232-0.263,0.339-0.404c0.28-0.37,0.455-0.785,0.591-1.223
				c0.061-0.198,0.079-0.404,0.119-0.606c0.036-0.182,0.045-0.367,0.045-0.55c-0.001-0.364-0.035-0.725-0.109-1.083
				c-0.02-0.099-0.068-0.188-0.084-0.287c-0.034-0.213-0.132-0.405-0.199-0.607c-0.013-0.04-0.038-0.077-0.061-0.114
				c-0.034-0.055-0.06-0.058-0.12-0.014c-0.143,0.107-0.293,0.205-0.42,0.333c-0.05,0.05-0.112,0.089-0.173,0.125
				c-0.271,0.161-0.543,0.32-0.816,0.476c-0.074,0.042-0.153,0.079-0.235,0.104c-0.124,0.039-0.239,0.095-0.352,0.157
				c-0.12,0.065-0.236,0.14-0.363,0.184C452.065,556.45,451.854,556.568,451.646,556.695z"/>
		</g>
		<g>
			<path fill="#FFFFFF" d="M491.526,534.561c0.702,1.192,1.405,2.384,2.107,3.576c0.053,0.09,0.109,0.178,0.157,0.271
				c0.079,0.153,0.058,0.224-0.092,0.326c-0.076,0.051-0.156,0.095-0.235,0.142c-0.562,0.332-1.123,0.665-1.687,0.993
				c-0.537,0.313-0.433,0.341-0.746-0.178c-0.067-0.112-0.132-0.225-0.2-0.337c-0.02-0.033-0.041-0.07-0.071-0.092
				c-0.029-0.022-0.069-0.033-0.101,0.007c-0.052,0.063-0.073,0.138-0.084,0.216c-0.068,0.513-0.295,0.966-0.586,1.377
				c-0.144,0.204-0.287,0.435-0.531,0.558c-0.057,0.029-0.107,0.076-0.15,0.124c-0.276,0.314-0.612,0.52-1.025,0.601
				c-0.05,0.01-0.099,0.033-0.145,0.058c-0.399,0.213-0.834,0.241-1.274,0.273c-0.511,0.037-1.005-0.036-1.491-0.172
				c-0.423-0.118-0.823-0.298-1.192-0.539c-0.151-0.099-0.297-0.205-0.444-0.309c-0.22-0.157-0.43-0.328-0.598-0.543
				c-0.056-0.072-0.102-0.156-0.17-0.214c-0.4-0.341-0.597-0.818-0.853-1.255c-0.045-0.076-0.058-0.171-0.085-0.258
				c-0.027-0.087-0.043-0.18-0.083-0.26c-0.201-0.402-0.252-0.837-0.298-1.275c-0.077-0.736,0.025-1.45,0.289-2.135
				c0.163-0.421,0.402-0.804,0.665-1.177c0.191-0.27,0.497-0.416,0.667-0.697c0.389-0.229,0.731-0.553,1.207-0.611
				c0.038-0.005,0.076-0.021,0.111-0.036c0.491-0.221,1.004-0.223,1.523-0.156c0.206,0.027,0.413,0.061,0.606,0.143
				c0.087,0.037,0.174,0.052,0.266,0.044c0.048-0.004,0.065-0.049,0.051-0.082c-0.036-0.084-0.081-0.163-0.126-0.242
				c-0.103-0.181-0.21-0.361-0.313-0.542c-0.046-0.081-0.024-0.149,0.053-0.199c0.131-0.086,0.258-0.177,0.393-0.258
				c0.505-0.301,1.01-0.6,1.519-0.894c0.146-0.085,0.301-0.156,0.455-0.226c0.079-0.036,0.153-0.012,0.201,0.067
				c0.054,0.089,0.108,0.179,0.161,0.268C490.095,532.131,490.81,533.346,491.526,534.561z M484.993,538.381
				c0.204,0.377,0.506,0.651,0.864,0.872c0.554,0.342,1.135,0.48,1.771,0.263c0.049-0.017,0.101-0.031,0.152-0.034
				c0.163-0.012,0.294-0.096,0.433-0.169c0.25-0.132,0.37-0.401,0.598-0.556c0.291-0.471,0.47-0.968,0.427-1.537
				c-0.018-0.237-0.1-0.451-0.151-0.677c-0.047-0.209-0.128-0.402-0.256-0.566c-0.297-0.381-0.642-0.717-1.09-0.913
				c-0.698-0.305-1.387-0.28-2.05,0.115c-0.202,0.12-0.368,0.269-0.522,0.455c-0.143,0.173-0.267,0.347-0.348,0.551
				C484.521,536.944,484.606,537.675,484.993,538.381z"/>
		</g>
		<g>
			<path fill="#FFFFFF" d="M506.667,525.32c0.729,1.238,1.459,2.476,2.188,3.714c0.148,0.251,0.22,0.288-0.114,0.484
				c-0.676,0.397-1.351,0.795-2.026,1.193c-0.022,0.013-0.045,0.027-0.068,0.039c-0.178,0.092-0.214,0.085-0.316-0.078
				c-0.097-0.155-0.186-0.315-0.28-0.472c-0.033-0.056-0.065-0.114-0.105-0.165c-0.021-0.027-0.058-0.05-0.091-0.056
				c-0.053-0.009-0.062,0.043-0.064,0.078c-0.015,0.209-0.062,0.408-0.129,0.608c-0.128,0.383-0.317,0.722-0.579,1.034
				c-0.137,0.163-0.28,0.301-0.448,0.422c-0.032,0.023-0.067,0.045-0.089,0.076c-0.231,0.322-0.58,0.497-0.922,0.639
				c-0.366,0.152-0.745,0.322-1.15,0.338c-0.752,0.03-1.464-0.095-2.075-0.596c-0.174-0.143-0.336-0.283-0.455-0.473
				c-0.034-0.055-0.069-0.116-0.12-0.154c-0.239-0.178-0.376-0.432-0.522-0.678c-0.978-1.652-1.954-3.306-2.929-4.96
				c-0.18-0.305-0.177-0.311,0.111-0.482c0.651-0.387,1.305-0.77,1.958-1.155c0.045-0.027,0.089-0.054,0.136-0.077
				c0.141-0.069,0.219-0.054,0.304,0.067c0.06,0.085,0.11,0.177,0.163,0.267c0.677,1.148,1.352,2.296,2.03,3.443
				c0.16,0.27,0.325,0.536,0.496,0.799c0.205,0.314,0.602,0.612,0.946,0.777c0.151,0.073,0.314,0.105,0.452,0.079
				c0.429-0.081,0.884-0.133,1.152-0.557c0.076-0.12,0.211-0.178,0.285-0.313c0.201-0.365,0.22-0.747,0.146-1.137
				c-0.073-0.385-0.214-0.744-0.419-1.086c-0.739-1.232-1.462-2.474-2.19-3.713c-0.298-0.506-0.302-0.433,0.185-0.723
				c0.584-0.347,1.17-0.691,1.756-1.034c0.09-0.053,0.182-0.102,0.277-0.146c0.066-0.03,0.131-0.008,0.171,0.051
				c0.066,0.097,0.128,0.197,0.187,0.299C505.235,522.889,505.951,524.105,506.667,525.32z"/>
		</g>
		<g>
			<path fill="#FFFFFF" d="M470.526,548.339c0.337-0.199,0.675-0.397,1.012-0.597c0.156-0.092,0.214-0.128,0.357,0.054
				c0.229,0.291,0.539,0.438,0.914,0.381c0.376-0.057,0.737-0.163,1.048-0.4c0.18-0.136,0.304-0.321,0.436-0.494
				c0.102-0.133,0.119-0.305,0.045-0.482c-0.147-0.352-0.342-0.496-0.722-0.467c-0.246,0.019-0.492,0.056-0.733,0.109
				c-0.531,0.117-1.055,0.276-1.59,0.366c-0.505,0.085-1.003,0.229-1.524,0.218c-0.418-0.009-0.819-0.062-1.192-0.265
				c-0.241-0.131-0.472-0.271-0.617-0.517c-0.033-0.056-0.075-0.108-0.123-0.152c-0.139-0.126-0.231-0.278-0.276-0.461
				c-0.019-0.075-0.052-0.148-0.087-0.218c-0.372-0.753-0.249-1.485,0.121-2.189c0.141-0.269,0.3-0.544,0.56-0.73
				c0.104-0.227,0.316-0.338,0.508-0.471c0.053-0.037,0.104-0.079,0.148-0.127c0.417-0.453,0.984-0.675,1.501-0.972
				c0.21-0.025,0.407-0.089,0.586-0.2c0.173-0.107,0.39-0.038,0.562-0.147c0.604-0.069,1.204-0.116,1.79,0.127
				c0.44,0.182,0.825,0.429,1.122,0.804c0.073,0.092,0.152,0.179,0.222,0.274c0.12,0.164,0.106,0.224-0.075,0.342
				c-0.044,0.029-0.089,0.054-0.134,0.08c-0.596,0.351-1.192,0.703-1.789,1.054c-0.068,0.04-0.134,0.083-0.204,0.116
				c-0.112,0.053-0.196,0.034-0.278-0.06c-0.051-0.059-0.09-0.129-0.143-0.186c-0.154-0.163-0.336-0.285-0.565-0.295
				c-0.391-0.018-0.754,0.069-1.025,0.375c-0.127,0.144-0.291,0.254-0.355,0.457c-0.131,0.412,0.135,0.882,0.564,0.934
				c0.191,0.023,0.394,0.017,0.583-0.018c0.486-0.091,0.967-0.208,1.451-0.313c0.605-0.131,1.198-0.323,1.821-0.36
				c0.468-0.027,0.929-0.01,1.357,0.23c0.172,0.096,0.341,0.2,0.466,0.344c0.272,0.314,0.506,0.647,0.668,1.047
				c0.328,0.81,0.206,1.571-0.126,2.331c-0.108,0.247-0.41,0.644-0.617,0.833c-0.124,0.113-0.182,0.282-0.342,0.368
				c-0.137,0.073-0.283,0.156-0.381,0.271c-0.245,0.287-0.573,0.448-0.886,0.634c-0.146,0.086-0.296,0.162-0.463,0.206
				c-0.125,0.033-0.256,0.075-0.362,0.146c-0.28,0.186-0.609,0.236-0.919,0.309c-0.255,0.06-0.527,0.105-0.802,0.097
				c-0.378-0.011-0.754-0.05-1.101-0.189c-0.369-0.147-0.739-0.315-0.991-0.651c-0.243-0.127-0.367-0.358-0.505-0.577
				c-0.021-0.033-0.041-0.067-0.058-0.102c-0.052-0.105-0.04-0.159,0.069-0.227c0.211-0.13,0.426-0.255,0.639-0.381
				C470.234,548.511,470.38,548.425,470.526,548.339C470.526,548.339,470.526,548.339,470.526,548.339z"/>
		</g>
		<g>
			<path fill="#FFFFFF" d="M512.625,519.672c-0.304,0.179-0.607,0.358-0.911,0.536c-0.079,0.046-0.159,0.091-0.241,0.13
				c-0.066,0.031-0.128,0.014-0.172-0.045c-0.078-0.103-0.145-0.213-0.249-0.299c-0.466-0.382-1.094-0.251-1.5,0.105
				c-0.097,0.086-0.186,0.183-0.266,0.286c-0.283,0.363-0.257,0.88,0.277,1.129c0.045,0.021,0.1,0.028,0.15,0.029
				c0.234,0.005,0.467,0.009,0.699-0.042c0.482-0.105,0.967-0.199,1.446-0.322c0.337-0.087,0.676-0.188,1.018-0.243
				c0.491-0.079,0.986-0.149,1.491-0.051c0.421,0.082,0.769,0.281,1.091,0.543c0.049,0.04,0.082,0.101,0.116,0.157
				c0.124,0.2,0.247,0.4,0.367,0.602c0.388,0.653,0.391,1.346,0.217,2.059c-0.116,0.476-0.406,0.857-0.669,1.253
				c-0.251,0.183-0.393,0.483-0.686,0.623c-0.08,0.038-0.152,0.102-0.216,0.166c-0.396,0.394-0.869,0.659-1.393,0.841
				c-0.111,0.038-0.221,0.082-0.325,0.136c-0.625,0.324-1.299,0.413-1.988,0.381c-0.5-0.023-0.967-0.177-1.385-0.466
				c-0.38-0.263-0.699-0.581-0.921-0.989c-0.083-0.153-0.069-0.227,0.09-0.321c0.662-0.394,1.326-0.784,1.99-1.174
				c0.022-0.013,0.045-0.027,0.069-0.037c0.151-0.065,0.239-0.056,0.337,0.089c0.187,0.277,0.453,0.376,0.767,0.368
				c0.45-0.011,1.13-0.25,1.41-0.641c0.13-0.182,0.274-0.339,0.283-0.576c0.008-0.213-0.189-0.5-0.388-0.571
				c-0.191-0.068-0.386-0.077-0.577-0.041c-0.37,0.07-0.735,0.167-1.105,0.235c-0.407,0.074-0.802,0.207-1.217,0.247
				c-0.191,0.019-0.375,0.088-0.568,0.118c-0.431,0.067-0.895,0.091-1.3,0.036c-0.605-0.083-1.07-0.4-1.414-0.88
				c-0.423-0.589-0.632-1.245-0.528-1.984c0.063-0.449,0.256-0.839,0.508-1.202c0.153-0.221,0.335-0.422,0.512-0.625
				c0.059-0.067,0.142-0.114,0.215-0.167c0.125-0.092,0.26-0.165,0.342-0.312c0.041-0.073,0.135-0.12,0.212-0.167
				c0.266-0.165,0.534-0.328,0.804-0.487c0.191-0.113,0.38-0.228,0.61-0.252c0.063-0.006,0.126-0.037,0.182-0.067
				c0.314-0.168,0.652-0.226,1.002-0.267c0.231-0.028,0.456-0.045,0.689-0.043c0.568,0.005,1.073,0.191,1.521,0.51
				c0.303,0.216,0.585,0.474,0.747,0.829c0.049,0.108,0.04,0.155-0.064,0.228c-0.021,0.015-0.044,0.028-0.066,0.042
				C513.3,519.274,512.963,519.473,512.625,519.672C512.625,519.672,512.625,519.672,512.625,519.672z"/>
		</g>
		<g>
			<path fill="#FFFFFF" d="M493.161,533.415c-0.345-0.585-0.689-1.17-1.034-1.755c-0.046-0.079-0.091-0.159-0.142-0.234
				c-0.085-0.125-0.166-0.151-0.3-0.08c-0.207,0.111-0.407,0.235-0.611,0.352c-0.09,0.052-0.18,0.108-0.275,0.149
				c-0.135,0.059-0.218,0.034-0.297-0.093c-0.111-0.177-0.214-0.359-0.32-0.538c-0.179-0.304-0.361-0.606-0.535-0.912
				c-0.102-0.179-0.087-0.235,0.093-0.348c0.21-0.131,0.427-0.253,0.64-0.38c0.079-0.047,0.156-0.095,0.233-0.144
				c0.079-0.051,0.089-0.131,0.06-0.206c-0.038-0.096-0.092-0.187-0.144-0.277c-0.337-0.574-0.677-1.147-1.013-1.722
				c-0.195-0.334-0.193-0.337,0.139-0.533c0.607-0.359,1.214-0.716,1.822-1.074c0.067-0.04,0.135-0.081,0.206-0.112
				c0.066-0.029,0.135-0.011,0.178,0.042c0.065,0.081,0.121,0.17,0.174,0.259c0.333,0.562,0.664,1.124,0.995,1.687
				c0.257,0.437,0.239,0.375,0.616,0.157c0.35-0.203,0.697-0.411,1.047-0.615c0.09-0.052,0.182-0.102,0.277-0.144
				c0.065-0.028,0.128-0.012,0.171,0.05c0.023,0.032,0.045,0.064,0.065,0.098c0.279,0.472,0.558,0.944,0.834,1.418
				c0.093,0.16,0.08,0.228-0.055,0.333c-0.072,0.056-0.152,0.102-0.23,0.148c-0.337,0.2-0.675,0.398-1.012,0.597
				c-0.078,0.047-0.156,0.095-0.231,0.147c-0.074,0.051-0.091,0.126-0.059,0.206c0.024,0.06,0.058,0.117,0.091,0.173
				c0.531,0.9,1.065,1.797,1.591,2.699c0.134,0.229,0.308,0.417,0.5,0.597c0.109,0.103,0.238,0.164,0.37,0.209
				c0.131,0.044,0.264,0.051,0.416,0.008c0.423-0.119,0.804-0.303,1.141-0.582c0.03-0.025,0.062-0.048,0.095-0.068
				c0.099-0.062,0.174-0.052,0.237,0.033c0.031,0.042,0.057,0.088,0.083,0.133c0.279,0.472,0.557,0.945,0.835,1.417
				c0.033,0.056,0.066,0.113,0.092,0.172c0.048,0.108,0.038,0.171-0.061,0.235c-0.567,0.369-1.049,0.862-1.671,1.152
				c-0.141,0.066-0.27,0.154-0.432,0.174c-0.088,0.011-0.173,0.055-0.255,0.093c-0.852,0.399-1.647,0.314-2.404-0.25
				c-0.392-0.292-0.717-0.632-0.962-1.054c-0.315-0.542-0.635-1.08-0.954-1.62C493.164,533.413,493.163,533.414,493.161,533.415z"/>
		</g>
		<g>
			<path fill="#FFFFFF" d="M477.34,542.709c-0.338-0.573-0.676-1.147-1.014-1.72c-0.053-0.09-0.104-0.182-0.164-0.266
				c-0.07-0.098-0.162-0.122-0.274-0.067c-0.105,0.051-0.205,0.115-0.307,0.173c-0.181,0.104-0.358,0.216-0.543,0.312
				c-0.178,0.092-0.258,0.07-0.357-0.094c-0.282-0.47-0.561-0.942-0.835-1.416c-0.115-0.199-0.1-0.244,0.109-0.372
				c0.245-0.15,0.495-0.29,0.741-0.44c0.216-0.131,0.23-0.182,0.108-0.408c-0.093-0.172-0.197-0.338-0.296-0.507
				c-0.258-0.439-0.517-0.877-0.775-1.316c-0.053-0.09-0.102-0.182-0.144-0.277c-0.029-0.065-0.011-0.128,0.051-0.171
				c0.032-0.022,0.064-0.045,0.098-0.064c0.674-0.398,1.348-0.797,2.024-1.192c0.175-0.102,0.244-0.085,0.358,0.077
				c0.052,0.074,0.096,0.155,0.142,0.234c0.305,0.517,0.61,1.034,0.914,1.552c0.046,0.079,0.09,0.159,0.141,0.235
				c0.12,0.179,0.166,0.193,0.348,0.088c0.395-0.229,0.788-0.461,1.181-0.694c0.459-0.272,0.419-0.232,0.648,0.155
				c0.24,0.404,0.479,0.808,0.715,1.215c0.117,0.202,0.108,0.247-0.076,0.388c-0.082,0.063-0.173,0.116-0.263,0.169
				c-0.314,0.187-0.63,0.371-0.944,0.557c-0.078,0.047-0.156,0.095-0.231,0.147c-0.075,0.053-0.083,0.132-0.052,0.21
				c0.029,0.072,0.071,0.139,0.111,0.207c0.503,0.855,1.011,1.707,1.509,2.564c0.16,0.275,0.357,0.511,0.598,0.715
				c0.233,0.198,0.479,0.262,0.788,0.175c0.411-0.115,0.776-0.3,1.104-0.567c0.04-0.033,0.084-0.063,0.131-0.084
				c0.064-0.028,0.13-0.018,0.177,0.037c0.042,0.049,0.078,0.104,0.111,0.16c0.279,0.472,0.557,0.944,0.835,1.417
				c0.026,0.045,0.053,0.09,0.074,0.138c0.053,0.123,0.037,0.192-0.069,0.27c-0.073,0.054-0.153,0.099-0.227,0.153
				c-0.106,0.076-0.219,0.145-0.311,0.236c-0.368,0.364-0.833,0.579-1.272,0.834c-0.066,0.038-0.145,0.057-0.221,0.072
				c-0.117,0.023-0.223,0.07-0.329,0.12c-0.838,0.393-1.629,0.3-2.37-0.245c-0.38-0.279-0.707-0.61-0.946-1.023
				c-0.328-0.564-0.662-1.125-0.993-1.687C477.343,542.707,477.342,542.708,477.34,542.709z"/>
		</g>
	</g>
</g>
</svg>
