<?xml version="1.0" encoding="utf-8"?>
<!-- Generator: Adobe Illustrator 21.0.2, SVG Export Plug-In . SVG Version: 6.00 Build 0)  -->
<svg version="1.1" id="Layer_1" xmlns="http://www.w3.org/2000/svg" xmlns:xlink="http://www.w3.org/1999/xlink" x="0px" y="0px"
	 viewBox="0 0 841.89 595.28" enable-background="new 0 0 841.89 595.28" xml:space="preserve">
<g>
	<polygon fill="#8C8C8C" points="449.666,582.616 198.747,437.748 198.747,148.012 449.666,3.143 700.586,148.012 700.586,437.746 	
		"/>
</g>
<g enable-background="new    ">
	<path fill="#FFFFFF" d="M449.66,48.995L238.137,170.943V414.83L449.66,536.764L661.195,414.83V170.943L449.66,48.995z
		 M652.631,409.915L449.66,526.941L246.683,409.915V175.901L449.66,58.878l202.97,117.023V409.915z"/>
</g>
<g>
	<path fill="#FFFFFF" d="M245.615,137.185l7.845,13.657l-2.401,1.379l-7.845-13.657l-3.659,2.103l-1.297-2.256l9.709-5.578
		l1.297,2.256L245.615,137.185z"/>
	<path fill="#FFFFFF" d="M253.043,137.73l2.318-1.332l0.516,0.896c0.169-0.692,0.371-1.215,0.606-1.569
		c0.238-0.364,0.587-0.68,1.048-0.944c0.611-0.352,1.365-0.519,2.26-0.503l0.158,2.731c-0.621-0.063-1.141,0.027-1.56,0.268
		c-1.265,0.727-1.349,2.044-0.251,3.954l2.989,5.205l-2.319,1.332L253.043,137.73z"/>
	<path fill="#FFFFFF" d="M268.338,128.944l2.33-1.338l5.766,10.038l-2.329,1.338l-0.604-1.052c-0.442,1.442-1.213,2.479-2.313,3.111
		c-1.388,0.797-2.823,0.955-4.307,0.473c-1.488-0.507-2.673-1.527-3.553-3.059c-0.864-1.505-1.135-3.018-0.811-4.538
		c0.323-1.521,1.163-2.67,2.517-3.447c1.168-0.671,2.491-0.791,3.972-0.362L268.338,128.944z M265.699,137.094
		c0.553,0.962,1.261,1.598,2.123,1.906c0.881,0.307,1.723,0.23,2.526-0.232c0.859-0.493,1.384-1.187,1.573-2.081
		c0.178-0.916-0.003-1.844-0.544-2.785s-1.252-1.566-2.132-1.874c-0.873-0.294-1.731-0.198-2.577,0.287
		c-0.797,0.458-1.289,1.144-1.479,2.057C265.013,135.286,265.183,136.193,265.699,137.094z"/>
	<path fill="#FFFFFF" d="M274.842,125.208l5.836,4.146l-0.651-7.123l2.607-1.498l0.948,13.726l-11.338-7.758L274.842,125.208z"/>
	<path fill="#FFFFFF" d="M296.54,120.146l-7.194,4.132c0.535,0.79,1.181,1.293,1.936,1.508c0.75,0.209,1.496,0.1,2.238-0.327
		c0.576-0.331,0.976-0.742,1.195-1.234c0.213-0.487,0.344-1.239,0.392-2.254l2.586-0.032c-0.006,0.689-0.072,1.314-0.198,1.875
		c-0.125,0.561-0.313,1.07-0.561,1.529c-0.249,0.457-0.564,0.869-0.948,1.236s-0.836,0.7-1.358,1
		c-1.498,0.86-2.977,1.07-4.436,0.629c-1.464-0.447-2.656-1.473-3.575-3.073c-0.912-1.588-1.21-3.124-0.896-4.613
		c0.33-1.478,1.227-2.637,2.69-3.478c1.478-0.849,2.916-1.049,4.315-0.601c1.389,0.444,2.559,1.495,3.51,3.151L296.54,120.146z
		 M293.07,119.617c-1.034-1.052-2.169-1.222-3.406-0.512c-0.281,0.162-0.521,0.357-0.719,0.585
		c-0.198,0.229-0.353,0.481-0.463,0.759c-0.109,0.277-0.172,0.572-0.186,0.881c-0.014,0.311,0.023,0.631,0.114,0.963L293.07,119.617
		z"/>
	<path fill="#FFFFFF" d="M293.964,104.422l10,17.408l-2.319,1.332l-10-17.408L293.964,104.422z"/>
	<path fill="#FFFFFF" d="M310.405,99.967l7.845,13.657l-2.402,1.38l-7.844-13.657l-3.659,2.102l-1.297-2.256l9.709-5.577
		l1.297,2.256L310.405,99.967z"/>
	<path fill="#FFFFFF" d="M317.832,100.514l2.319-1.332l0.515,0.896c0.17-0.692,0.372-1.215,0.607-1.569
		c0.238-0.364,0.587-0.681,1.047-0.945c0.612-0.351,1.366-0.518,2.261-0.502l0.157,2.731c-0.62-0.063-1.141,0.027-1.559,0.268
		c-1.265,0.727-1.35,2.043-0.252,3.953l2.99,5.205l-2.319,1.333L317.832,100.514z"/>
	<path fill="#FFFFFF" d="M333.128,91.727l2.329-1.338l5.767,10.038l-2.329,1.338l-0.604-1.052c-0.442,1.442-1.213,2.48-2.313,3.111
		c-1.388,0.798-2.823,0.956-4.307,0.473c-1.488-0.506-2.673-1.527-3.553-3.059c-0.864-1.505-1.135-3.017-0.811-4.538
		c0.323-1.52,1.162-2.669,2.516-3.446c1.168-0.672,2.492-0.792,3.973-0.363L333.128,91.727z M330.49,99.877
		c0.553,0.962,1.26,1.597,2.122,1.905c0.881,0.308,1.723,0.23,2.526-0.231c0.859-0.493,1.384-1.187,1.573-2.082
		c0.178-0.916-0.003-1.843-0.544-2.784s-1.252-1.567-2.132-1.875c-0.873-0.293-1.731-0.197-2.577,0.288
		c-0.797,0.458-1.289,1.144-1.479,2.056C329.803,98.068,329.973,98.977,330.49,99.877z"/>
	<path fill="#FFFFFF" d="M346.445,84.652l1.771,3.081c-0.899-0.342-1.628-0.513-2.186-0.513c-0.555-0.01-1.11,0.145-1.667,0.464
		c-0.873,0.502-1.422,1.224-1.647,2.167s-0.075,1.875,0.454,2.796c0.541,0.941,1.264,1.554,2.167,1.84
		c0.911,0.28,1.803,0.17,2.675-0.331c0.557-0.32,0.979-0.723,1.268-1.207c0.278-0.471,0.502-1.202,0.672-2.195l1.758,3.062
		c-0.661,1.028-1.462,1.813-2.403,2.354c-1.554,0.893-3.14,1.138-4.761,0.733c-1.625-0.41-2.867-1.365-3.728-2.862
		c-0.86-1.498-1.058-3.066-0.591-4.704c0.465-1.64,1.468-2.9,3.008-3.785C344.224,84.982,345.294,84.683,346.445,84.652z"/>
	<path fill="#FFFFFF" d="M346.529,74.227l6.1,10.616l1.401-5.123l3.112-1.788l-1.938,6.72l8.024,3.135l-3.01,1.729l-5.753-2.33
		l-0.156,0.585l2.219,3.864l-2.318,1.332l-10-17.408L346.529,74.227z"/>
	<path fill="#FFFFFF" d="M363.323,66.568l10.253,8.256l-2.225-13.896l10.697,9.029l-1.709-13.164l2.607-1.497l2.61,21.009
		l-10.569-8.926l2.217,13.737l-16.489-13.05L363.323,66.568z"/>
	<path fill="#FFFFFF" d="M385.109,56.314c-0.232-0.406-0.285-0.84-0.16-1.305c0.125-0.466,0.395-0.817,0.807-1.055
		c0.419-0.24,0.861-0.297,1.327-0.171c0.461,0.117,0.812,0.387,1.053,0.806c0.24,0.419,0.298,0.861,0.172,1.327
		c-0.118,0.462-0.388,0.813-0.807,1.053c-0.419,0.241-0.861,0.299-1.326,0.173C385.709,57.016,385.354,56.74,385.109,56.314z
		 M390.177,58.956l5.767,10.038l-2.318,1.332l-5.767-10.038L390.177,58.956z"/>
	<path fill="#FFFFFF" d="M393.114,57.269l2.329-1.338l0.533,0.927c0.35-1.27,1.032-2.196,2.049-2.781
		c1.168-0.671,2.29-0.825,3.365-0.466c0.923,0.302,1.791,1.161,2.604,2.576l3.535,6.153l-2.33,1.338l-3.22-5.606
		c-0.569-0.99-1.1-1.594-1.592-1.815c-0.489-0.23-1.087-0.142-1.795,0.265c-0.77,0.442-1.17,1.01-1.2,1.703
		c-0.028,0.684,0.316,1.65,1.035,2.901l2.783,4.844l-2.33,1.338L393.114,57.269z"/>
	<path fill="#FFFFFF" d="M404.689,50.62l2.329-1.338l0.533,0.927c0.349-1.27,1.032-2.197,2.049-2.781
		c1.168-0.671,2.29-0.826,3.365-0.467c0.923,0.303,1.79,1.161,2.603,2.576l3.535,6.153l-2.329,1.338l-3.221-5.606
		c-0.568-0.99-1.099-1.594-1.591-1.814c-0.489-0.23-1.088-0.143-1.795,0.265c-0.77,0.442-1.17,1.01-1.201,1.703
		c-0.027,0.684,0.317,1.65,1.036,2.901l2.782,4.844l-2.329,1.338L404.689,50.62z"/>
	<path fill="#FFFFFF" d="M428.604,44.284l-7.195,4.133c0.537,0.789,1.182,1.292,1.936,1.507c0.75,0.209,1.496,0.1,2.238-0.326
		c0.578-0.332,0.977-0.743,1.196-1.235c0.214-0.487,0.344-1.239,0.392-2.254l2.586-0.032c-0.006,0.689-0.072,1.314-0.197,1.875
		c-0.126,0.561-0.313,1.07-0.562,1.529c-0.249,0.457-0.564,0.869-0.948,1.236s-0.836,0.7-1.358,1
		c-1.498,0.86-2.977,1.07-4.437,0.629c-1.463-0.447-2.655-1.473-3.574-3.073c-0.912-1.588-1.211-3.124-0.896-4.613
		c0.329-1.478,1.227-2.637,2.69-3.478c1.478-0.849,2.916-1.049,4.315-0.6c1.389,0.443,2.559,1.495,3.51,3.15L428.604,44.284z
		 M425.133,43.756c-1.033-1.052-2.168-1.222-3.405-0.512c-0.282,0.162-0.521,0.357-0.72,0.585c-0.197,0.229-0.352,0.481-0.462,0.759
		c-0.109,0.278-0.172,0.572-0.186,0.881c-0.015,0.311,0.024,0.631,0.114,0.964L425.133,43.756z"/>
	<path fill="#FFFFFF" d="M427.942,37.263l2.318-1.332l0.516,0.896c0.169-0.691,0.372-1.215,0.606-1.569
		c0.238-0.364,0.588-0.68,1.048-0.944c0.611-0.352,1.365-0.519,2.261-0.503l0.157,2.732c-0.621-0.063-1.141,0.026-1.56,0.268
		c-1.265,0.726-1.349,2.043-0.251,3.953l2.989,5.205l-2.318,1.332L427.942,37.263z"/>
</g>
<g>
	<g>
		<path fill="#FFFFFF" d="M527.348,301.788c0.075,0.64,0.171,1.278,0.316,1.912c0.089-0.73,0.166-1.463,0.235-2.199
			C527.73,301.625,527.545,301.721,527.348,301.788z"/>
	</g>
	<g>
		<path fill="#FFFFFF" d="M524.962,306.533c-0.352,2.15-0.799,4.27-1.328,6.357c0.761,0.039,1.53,0.185,2.227,0.457
			c0.659-2.61,1.19-5.269,1.58-7.974C526.943,306.221,525.897,306.669,524.962,306.533z"/>
	</g>
	<g>
		<path fill="#FFFFFF" d="M449.735,217.902c34.439,0,63.6,22.96,73.025,54.371h2.37c-9.495-32.681-39.692-56.643-75.395-56.643
			c-43.291,0-78.512,35.22-78.512,78.512c0,43.292,35.22,78.513,78.512,78.513c10.885,0,21.255-2.237,30.686-6.259h-6.379
			c-7.639,2.578-15.81,3.986-24.308,3.986c-42.039,0-76.24-34.201-76.24-76.24C373.495,252.103,407.695,217.902,449.735,217.902z"/>
	</g>
	<g>
		<path fill="#FFFFFF" d="M521.183,320.729c-6.061,16.237-17.512,29.861-32.159,38.708h3.079c0.337,0,0.631,0.066,0.89,0.173
			c14.009-9.288,24.887-22.936,30.657-39.007C522.948,321.071,521.909,321.177,521.183,320.729z"/>
	</g>
</g>
<g>
	<g>
		<path fill="#FFFFFF" d="M478.834,335.494c0.03-0.191,0.069-0.379,0.105-0.569c-0.173,0.022-0.347,0.021-0.519,0.001
			c-1.441,0.94-3.387-0.072-4.679-0.785c-2.894-1.598-5.695-4.055-7.554-6.789c-1.123-1.653-1.937-3.48-2.52-5.399
			c-0.883-0.22-1.737-0.514-2.511-0.92c-0.204-0.037-0.409-0.08-0.613-0.119c0.193,0.824,0.413,1.641,0.665,2.449
			c1.762,5.635,5.686,9.764,10.577,12.917c2.352,1.517,5.157,2.378,7.61,1.272C478.955,337.051,478.705,336.339,478.834,335.494z"/>
	</g>
	<g>
		<path fill="#FFFFFF" d="M462.345,312.44c-0.023-1.259-0.005-2.504,0.039-3.714c0.139-3.774,0.614-7.588,1.573-11.257h-2.919
			c-0.559,2.469-0.928,4.987-1.209,7.476c-0.305,2.7-0.431,5.452-0.319,8.192C460.307,312.795,461.285,312.575,462.345,312.44z"/>
	</g>
	<g>
		<path fill="#FFFFFF" d="M524.998,297.469c-1.205,4.453-5.462,7.105-10.08,8.922c-0.233,0.479-0.476,0.952-0.731,1.419
			c0.228,0.552,0.204,1.211-0.238,1.883c-0.018,0.026-0.034,0.053-0.051,0.079c6.662-2.341,12.729-5.849,14.005-12.303H524.998z"/>
	</g>
	<g>
		<path fill="#FFFFFF" d="M506.167,244.638c-2.513,10.037-12.017,16.4-19.869,22.176c-5.124,3.769-10.391,7.634-14.854,12.209
			c0.364,0.387,0.606,0.908,0.635,1.521c0.031,0.659-0.071,1.273-0.253,1.861c0.036,0.056,0.066,0.115,0.097,0.174
			c3.416-3.83,7.522-7.103,11.565-10.164c9.596-7.265,22.279-14.479,25.419-27.022C509.351,243.616,506.612,242.862,506.167,244.638
			z"/>
	</g>
</g>
<g>
	<g>
		<path fill="#FFFFFF" d="M502.901,252.063c-6.189,9.112-16.062,11.996-26.168,14.683c-8.719,2.319-17.949,5.437-22.775,13.678
			c-0.568,0.97-1.047,1.979-1.449,3.017c0.259,0.298,0.507,0.604,0.744,0.918c0.268,0.046,0.538,0.149,0.799,0.33
			c0.297,0.207,0.56,0.432,0.813,0.664c0.694-2.092,1.707-4.059,3.116-5.816c5.826-7.267,15.76-8.987,24.228-11.318
			c9.282-2.555,17.593-6.55,23.145-14.723C506.387,251.976,503.924,250.557,502.901,252.063z"/>
	</g>
	<g>
		<path fill="#FFFFFF" d="M461.127,319.772c-0.279,0.958-1.339,1.622-2.359,1.655c2.53,4.144,5.674,7.889,9.513,11.131
			c1.39,1.174,3.409-0.825,2.008-2.008C466.535,327.378,463.532,323.768,461.127,319.772z"/>
	</g>
</g>
<g>
	<g>
		<path fill="#FFFFFF" d="M403.674,235.875c22.263-3.087,13.954,37.233,10.327,48.468c-4.616,14.298-8.786,27.253-1.905,41.562
			c2.999,6.237,7.123,11.876,9.818,18.27c2.564,6.085,6.161,15.567,0.725,21.021c-2.274,2.282,1.26,5.819,3.536,3.536
			c7.969-7.998,3.094-21.039-1.158-29.729c-2.715-5.548-6.307-10.632-8.894-16.243c-3.253-7.056-3.729-14.418-1.973-21.96
			c2.649-11.381,7.331-21.913,8.64-33.623c0.899-8.045,1.197-16.901-1.517-24.654c-3.039-8.682-9.867-12.725-18.927-11.469
			C399.171,231.494,400.522,236.312,403.674,235.875L403.674,235.875z"/>
	</g>
</g>
<g>
	<path fill="#FFFFFF" d="M427.291,359.391c-0.175-0.885-0.387-1.76-0.604-2.633c-0.068-0.815-0.186-1.628-0.327-2.439
		c-0.31-3.826-0.166-7.707-2.242-11.173c-0.333-0.558-0.951-0.743-1.506-0.639c-0.003-0.317-0.125-0.654-0.421-0.974
		c-0.464-0.503-0.914-1.018-1.351-1.544c-0.271-0.679-0.536-1.362-0.791-2.048c-0.499-1.69-0.958-3.393-1.494-5.052
		c-0.629-1.948-1.432-3.86-2.426-5.648c-0.462-0.832-1.071-1.57-1.671-2.302c-0.235-0.288-0.519-0.535-0.822-0.769
		c-0.302-1.103-0.863-2.049-1.75-2.513c-0.247-1.018-0.499-2.028-0.781-3.014c-0.663-2.317-1.286-4.638-1.956-6.942
		c0.663,0.788,2.199,0.446,2.426-0.6c2.143-9.884,4.685-19.89,4.608-30.067c0.768,0.739,2.409,0.409,2.449-0.987
		c0.069-2.419,0.16-4.838,0.284-7.254c0.835,0.319,1.983-0.102,1.989-1.268c0.02-4.107,0.22-8.219,0.199-12.315
		c0.496-4.165-0.147-8.557-1.196-12.49c-0.137-0.51-0.454-0.806-0.827-0.934c-0.115-1.321-0.259-2.641-0.447-3.961
		c-0.001-0.01-0.002-0.02-0.002-0.03c0,0-0.001,0-0.002,0c-0.018-0.126-0.03-0.252-0.049-0.378c-0.165-1.108-1.45-1.254-2.217-0.722
		c-0.112-0.243-0.225-0.486-0.342-0.727c0.125-0.371,0.129-0.79-0.046-1.163c-0.608-1.301-1.411-2.196-2.495-3.128
		c-0.18-0.156-0.385-0.25-0.594-0.302c-0.042-0.056-0.085-0.111-0.129-0.166c-0.001-0.001-0.001-0.002-0.001-0.002v0
		c-0.075-0.096-0.147-0.193-0.222-0.288c-0.416-0.522-0.999-0.552-1.489-0.319c-1.096-0.859-2.359-1.298-3.871-1.423
		c-0.203-0.017-0.384,0.012-0.546,0.071c-1.509-0.6-3.057-0.91-4.321-0.267c-0.225,0.115-0.423,0.243-0.598,0.383
		c-0.395-0.092-0.835,0.01-1.22,0.419c-1.832,1.946-3.529,3.997-5.164,6.099c-0.259,0.043-0.507,0.149-0.707,0.339
		c-2.591,2.469-4.621,5.396-6.441,8.458c-0.22,0.109-0.427,0.281-0.598,0.54c-1.045,1.575-2.068,3.164-3.056,4.774
		c-0.629,0.824-1.276,1.637-1.912,2.465c-2.076,2.708-3.306,6.254-4.392,9.457c-0.396,1.165-0.757,2.345-1.075,3.536
		c-0.208,0.652-0.407,1.307-0.588,1.97c-0.458,1.679-0.778,3.39-0.997,5.115c-0.603-0.983-2.226-0.567-2.516,0.481
		c-1.33,4.81-1.049,10.436-1.277,15.399c-0.259,5.633-0.027,11.255,1.087,16.79c1.082,5.37,3.285,10.321,6.398,14.658
		c1.078,4.683,3.64,9.067,6.38,12.932c1.565,2.207,3.159,4.394,4.946,6.428c0.837,0.953,1.796,1.74,2.78,2.491
		c0.285,0.377,0.578,0.746,0.875,1.11c-0.28,0.602-0.216,1.386,0.483,1.861c3.574,2.431,5.888,6.121,9.62,8.438
		c1.233,0.765,2.49,1.488,3.761,2.188c2.119,1.508,4.543,2.678,7.008,3.666c1.161,0.595,2.32,1.192,3.47,1.804
		c0.518,0.276,1.013,0.215,1.396-0.022c0.345,0.119,0.689,0.237,1.027,0.354c0.115,0.037,0.225,0.059,0.331,0.07
		c0.345,0.182,0.69,0.364,1.034,0.545c0.59,0.31,1.137,0.206,1.526-0.099c0.854,0.524,2.153,0.19,2.126-1.127
		c-0.024-1.176,0.189-2.315,0.392-3.457C427.001,360.82,427.457,360.226,427.291,359.391z M410.168,343.342
		c-0.09-0.104-0.176-0.213-0.265-0.317c-0.144-0.28-0.286-0.553-0.427-0.819c0.016-0.022,0.029-0.048,0.043-0.071
		c0.361,0.568,0.721,1.137,1.085,1.702C410.456,343.67,410.309,343.504,410.168,343.342z"/>
</g>
<g>
	<path fill="#FFFFFF" d="M523.298,269.634c-0.106-0.388-0.318-0.649-0.574-0.812c-0.458-3.749-3.152-7.072-5.129-10.528
		c-0.733-1.413-1.475-2.82-1.871-4.378c-0.197-0.774-0.825-1.068-1.434-1.005c-0.646-1.038-1.294-2.075-1.929-3.121
		c-0.177-0.291-0.414-0.48-0.673-0.585c-0.411-0.822-0.831-1.635-1.22-2.445c-0.673-1.398-2.447-0.552-2.637,0.665
		c-0.259,0.029-0.503,0.118-0.697,0.278c0.568-1.907,0.711-3.946,0.258-6.094c-0.356-1.681-2.787-1.116-2.775,0.436
		c-0.64-2.14-1.744-4.219-2.67-6.078c-0.818-1.639-3.268-0.2-2.454,1.434c1.481,2.968,3.276,6.294,2.643,9.721
		c-0.747,4.039-6.012,5.661-9.451,6.275c-3.535,0.631-7.207,0.414-10.773,0.777c-0.087,0.009-0.172,0.023-0.259,0.033
		c-1.751-0.223-3.497-0.485-5.217-0.634c-4.866-0.422-9.376,0.46-13.704,2.714c-0.385,0.201-0.75,0.413-1.111,0.627
		c-0.216,0.056-0.43,0.164-0.63,0.354c-0.041,0.039-0.079,0.08-0.12,0.119c-4.081,2.664-6.503,6.262-7.912,10.362
		c-0.628,1.202-1.197,2.444-1.692,3.737c-1.829,4.784-2.339,10.194-2.263,15.45h0.092c-0.319,1.857,0.03,3.642,2.024,4.376
		c1.52,0.56,3.205-1.011,4.208-1.908c1.108-0.99,2.143-1.868,3.373-2.375c0.211-0.035,0.431-0.066,0.659-0.094h26.778
		c0.068,0,0.125,0.014,0.19,0.019v-9.638c-0.229-1.268,0.487-4.287,2.154-4.287l35.795-0.864
		C524.045,270.506,523.745,271.269,523.298,269.634z M472.284,268.666c-0.019-0.01-0.04-0.018-0.06-0.028
		c0.123-0.146,0.247-0.292,0.37-0.44c0.117-0.03,0.234-0.066,0.351-0.101c0.047,0.117,0.103,0.231,0.174,0.333
		C472.841,268.491,472.562,268.57,472.284,268.666z M494.898,262.331c-2.431,1.241-4.909,2.207-6.979,3.949
		c0.167-0.343,0.24-0.708,0.159-1.081c0.52-0.393,0.792-1.085,0.563-1.645c1.425-0.549,2.83-1.153,4.212-1.832
		c0.734-0.179,1.466-0.363,2.185-0.567c0.657-0.186,0.971-0.659,1.007-1.169c0.312-0.187,0.624-0.376,0.934-0.573
		c0.603-0.191,1.172-0.442,1.681-0.779C497.38,259.844,496.112,261.068,494.898,262.331z M506.559,250.362
		c-0.48,0.229-0.81,0.72-0.822,1.282c0.008,0.079-0.004,0.154-0.009,0.231c-0.961,0.982-1.953,1.948-2.963,2.906
		c1.644-1.709,3.025-3.637,3.897-5.746C506.611,249.475,506.574,249.918,506.559,250.362z M514.321,258.624
		c-0.153-0.142-0.319-0.271-0.484-0.402c0.065-0.099,0.115-0.207,0.154-0.322c0.129,0.222,0.258,0.444,0.385,0.667
		C514.357,258.585,514.339,258.605,514.321,258.624z"/>
</g>
<g>
	<path fill="#FFFFFF" d="M473.767,335.823c0.167,0.048,0.329,0.085,0.484,0.109c0.585,0.279,1.214,0.461,1.884,0.521
		c1.564,0.139,2.302-0.628,2.57-1.715c0.713-0.468,1.22-1.268,1.563-2.207c0.928,0.515,2.145,0.048,2.178-1.167
		c0.011-0.381-0.032-0.767-0.118-1.142c1.104-0.846,1.428-2.545,1.408-4.367C480.413,329.178,477.09,332.501,473.767,335.823z"/>
</g>
<g>
	<path fill="#FFFFFF" d="M463.638,328.583c0.2-0.927,0.42-1.848,0.649-2.767c-0.427,0.049-0.867-0.029-1.266-0.206
		c-0.471,0.34-1.049,0.516-1.602,0.48c0.666,0.982,1.394,1.915,2.184,2.797C463.613,328.786,463.615,328.688,463.638,328.583z"/>
</g>
<g>
	<path fill="#FFFFFF" d="M479.061,317.245c0.054-0.195,0.118-0.388,0.175-0.583c-0.127-0.014-0.254-0.028-0.381-0.042
		c-0.28,0.717-0.637,1.545-1.004,2.433C478.243,318.466,478.647,317.859,479.061,317.245z"/>
</g>
<g>
	<path fill="#FFFFFF" d="M472.018,328.016c-0.327-0.904-0.418-1.883-0.364-2.887c-0.758,0.611-1.769,0.603-2.544,0.147
		c-0.097,0.37-0.193,0.738-0.287,1.108c-0.265,1.136-0.528,2.272-0.802,3.407c-0.125,0.516-0.37,0.895-0.68,1.16
		c0.383,0.101,0.769,0.039,1.094-0.132c0.012,0.011,0.023,0.023,0.036,0.035c0.194,0.175,0.413,0.286,0.637,0.341
		c0.34,0.376,0.713,0.728,1.104,1.067c0.064,0.16,0.14,0.317,0.217,0.474l3.158-3.158
		C472.886,329.363,472.3,328.798,472.018,328.016z"/>
</g>
<g>
	<g>
		<path fill="#FFFFFF" d="M453.758,219.632c9.913,1.131,19.422,5.229,27.81,10.509c3.923,2.47,7.488,5.33,10.931,8.423
			c4.286,3.85,9.196,7.547,4.736,13.332c-1.963,2.547,2.378,5.039,4.317,2.524c8.009-10.389-4.501-19.253-12.28-25.043
			c-10.33-7.689-22.661-13.278-35.515-14.745C450.566,214.268,450.592,219.271,453.758,219.632L453.758,219.632z"/>
	</g>
</g>
<g>
	<g>
		<path fill="#FFFFFF" d="M464.644,222.052c12.908,4.769,27.286,9.633,34.674,22.142c1.635,2.769,5.959,0.256,4.317-2.524
			c-8.105-13.724-23.464-19.195-37.662-24.44C462.951,216.114,461.647,220.944,464.644,222.052L464.644,222.052z"/>
	</g>
</g>
<g>
	<g>
		<path fill="#FFFFFF" d="M494.786,236.368c0.797,0.664,1.599,1.323,2.361,2.027c0.275,0.254,0.54,0.517,0.799,0.788
			c0.262,0.274,0.117,0.29,0.039,0.017c0.028,0.044,0.056,0.088,0.085,0.131c-0.449-0.914-0.176-1.822,0.819-2.724
			c-1.196,0.626-1.556,2.294-0.897,3.42c0.709,1.212,2.22,1.525,3.42,0.897c0.897-0.47,1.461-1.464,1.455-2.469
			c-0.005-0.944-0.484-1.719-1.059-2.425c-0.993-1.219-2.287-2.197-3.489-3.199c-1.036-0.864-2.52-1.016-3.536,0
			C493.897,233.722,493.744,235.5,494.786,236.368L494.786,236.368z"/>
	</g>
</g>
<g>
	<g>
		<path fill="#FFFFFF" d="M443.57,215.854c0-10.036,0-20.072,0-30.109c0-3.217-5-3.223-5,0c0,10.036,0,20.072,0,30.109
			C438.57,219.071,443.57,219.077,443.57,215.854L443.57,215.854z"/>
	</g>
</g>
<g>
	<g>
		<path fill="#FFFFFF" d="M467.051,216.99c0-10.794,0-21.587,0-32.381c0-3.217-5-3.223-5,0c0,10.794,0,21.587,0,32.381
			C462.051,220.207,467.051,220.213,467.051,216.99L467.051,216.99z"/>
	</g>
</g>
<g>
	<g>
		<path fill="#FFFFFF" d="M442.933,186.756c4.008-3.882,8.016-7.764,12.024-11.646c2.316-2.243-1.222-5.776-3.536-3.536
			c-4.008,3.882-8.016,7.764-12.024,11.646C437.082,185.463,440.62,188.997,442.933,186.756L442.933,186.756z"/>
	</g>
</g>
<g>
	<g>
		<path fill="#FFFFFF" d="M466.13,182.084c-3.724-3.503-7.448-7.007-11.173-10.51c-2.343-2.203-5.885,1.325-3.536,3.536
			c3.724,3.503,7.449,7.006,11.173,10.51C464.937,187.823,468.48,184.295,466.13,182.084L466.13,182.084z"/>
	</g>
</g>
<g>
	<g>
		<path fill="#FFFFFF" d="M455.879,173.248c0-4.639,0-9.279,0-13.918c0-3.217-5-3.223-5,0c0,4.639,0,9.279,0,13.918
			C450.879,176.465,455.879,176.47,455.879,173.248L455.879,173.248z"/>
	</g>
</g>
<g>
	<path fill="#FFFFFF" d="M452.622,202.421c-4.653,0-8.438-3.785-8.438-8.438c0-4.652,3.785-8.438,8.438-8.438
		c4.652,0,8.438,3.785,8.438,8.438C461.06,198.636,457.274,202.421,452.622,202.421z M452.622,189.545
		c-2.447,0-4.438,1.99-4.438,4.438s1.991,4.438,4.438,4.438s4.438-1.991,4.438-4.438S455.069,189.545,452.622,189.545z"/>
</g>
<g>
	<g>
		<path fill="#FFFFFF" d="M453.474,156.149c3.217,0,3.223-5,0-5C450.256,151.149,450.251,156.149,453.474,156.149L453.474,156.149z"
			/>
	</g>
</g>
<g>
	<g>
		<path fill="#FFFFFF" d="M452.527,196.672c3.217,0,3.223-5,0-5C449.31,191.672,449.304,196.672,452.527,196.672L452.527,196.672z"
			/>
	</g>
</g>
<g>
	<g>
		<path fill="#FFFFFF" d="M451.174,196.958c0.911,0.911,1.822,1.822,2.733,2.734c0.926,0.926,2.622,0.995,3.536,0
			c0.916-0.998,0.988-2.547,0-3.536c-0.911-0.912-1.822-1.823-2.733-2.734c-0.926-0.926-2.622-0.995-3.536,0
			C450.257,194.42,450.186,195.969,451.174,196.958L451.174,196.958z"/>
	</g>
</g>
<g>
	<g>
		<path fill="#FFFFFF" d="M454.212,195.75c1.468-1.468,2.935-2.935,4.403-4.403c2.279-2.278-1.256-5.814-3.536-3.536
			c-1.468,1.467-2.935,2.935-4.403,4.403C448.398,194.493,451.932,198.03,454.212,195.75L454.212,195.75z"/>
	</g>
</g>
<g>
	<g>
		<path fill="#FFFFFF" d="M510.377,249.22c3.217,0,3.223-5,0-5C507.16,244.22,507.154,249.22,510.377,249.22L510.377,249.22z"/>
	</g>
</g>
<g>
	<g>
		<path fill="#FFFFFF" d="M512.316,250.696c7.285-3.308,14.57-6.616,21.855-9.924c2.926-1.329,0.387-5.639-2.524-4.317
			c-7.285,3.308-14.57,6.616-21.855,9.924C506.867,247.707,509.405,252.018,512.316,250.696L512.316,250.696z"/>
	</g>
</g>
<g>
	<g>
		<path fill="#FFFFFF" d="M519.204,264.199c6.424-4.526,12.848-9.053,19.272-13.579c2.61-1.839,0.115-6.176-2.524-4.317
			c-6.424,4.527-12.848,9.053-19.272,13.579C514.07,261.721,516.566,266.059,519.204,264.199L519.204,264.199z"/>
	</g>
</g>
<g>
	<g>
		<path fill="#FFFFFF" d="M528.503,235.462c3.244,5.834,6.487,11.668,9.73,17.502c1.563,2.813,5.884,0.294,4.317-2.524
			c-3.243-5.834-6.486-11.668-9.73-17.502C531.257,230.126,526.937,232.644,528.503,235.462L528.503,235.462z"/>
	</g>
</g>
<g>
	<g>
		<path fill="#FFFFFF" d="M531.786,236.11c1.655-0.92,3.31-1.84,4.965-2.76c2.813-1.564,0.294-5.884-2.524-4.317
			c-1.655,0.92-3.31,1.84-4.965,2.76C526.45,233.357,528.969,237.677,531.786,236.11L531.786,236.11z"/>
	</g>
</g>
<g>
	<g>
		<path fill="#FFFFFF" d="M534.076,232.04c3.358,6.041,6.717,12.082,10.075,18.123c1.564,2.813,5.884,0.294,4.317-2.524
			c-3.358-6.041-6.717-12.082-10.075-18.123C536.83,226.703,532.509,229.222,534.076,232.04L534.076,232.04z"/>
	</g>
</g>
<g>
	<g>
		<path fill="#FFFFFF" d="M541.944,254.675c1.821-1.012,3.641-2.024,5.462-3.036c2.813-1.564,0.294-5.884-2.524-4.317
			c-1.821,1.012-3.641,2.024-5.462,3.036C536.608,251.921,539.126,256.241,541.944,254.675L541.944,254.675z"/>
	</g>
</g>
<g>
	<g>
		<path fill="#FFFFFF" d="M542.05,238.205c2.565-1.426,5.131-2.852,7.696-4.279c2.813-1.564,0.294-5.884-2.524-4.317
			c-2.565,1.426-5.131,2.852-7.696,4.279C536.714,235.451,539.232,239.771,542.05,238.205L542.05,238.205z"/>
	</g>
</g>
<g>
	<g>
		<path fill="#FFFFFF" d="M545.914,245.156c2.648-1.472,5.296-2.945,7.944-4.417c2.813-1.564,0.294-5.884-2.524-4.317
			c-2.648,1.472-5.296,2.944-7.944,4.417C540.578,242.403,543.097,246.723,545.914,245.156L545.914,245.156z"/>
	</g>
</g>
<g>
	<g>
		<path fill="#FFFFFF" d="M546.656,230.408c1.909,3.434,3.818,6.868,5.728,10.303c1.564,2.813,5.884,0.294,4.317-2.524
			c-1.909-3.434-3.818-6.868-5.728-10.303C549.409,225.072,545.089,227.59,546.656,230.408L546.656,230.408z"/>
	</g>
</g>
<g>
	<g>
		<path fill="#FFFFFF" d="M553.595,236.173c2.235-1.242,4.469-2.484,6.703-3.726c2.813-1.564,0.294-5.884-2.524-4.317
			c-2.234,1.242-4.469,2.484-6.703,3.726C548.258,233.419,550.777,237.74,553.595,236.173L553.595,236.173z"/>
	</g>
</g>
<g>
	<g>
		<path fill="#FFFFFF" d="M563.849,229.463c3.217,0,3.223-5,0-5C560.632,224.463,560.627,229.463,563.849,229.463L563.849,229.463z"
			/>
	</g>
</g>
<g>
	<g>
		<path fill="#FFFFFF" d="M525.959,240.227c-1.494,5.236-2.988,10.472-4.483,15.708c-0.885,3.1,3.938,4.423,4.821,1.329
			c1.495-5.236,2.989-10.472,4.483-15.708C531.665,238.456,526.842,237.133,525.959,240.227L525.959,240.227z"/>
	</g>
</g>
<g>
	<g>
		<path fill="#FFFFFF" d="M516.287,245.821c-1.25,4.378-2.499,8.756-3.748,13.133c-0.885,3.1,3.939,4.423,4.821,1.329
			c1.249-4.378,2.499-8.756,3.748-13.133C521.993,244.051,517.17,242.727,516.287,245.821L516.287,245.821z"/>
	</g>
</g>
<g>
	<g>
		<path fill="#FFFFFF" d="M518.198,248.805c4.464,1.274,8.927,2.548,13.39,3.822c3.1,0.885,4.423-3.938,1.329-4.821
			c-4.463-1.274-8.927-2.548-13.39-3.822C516.427,243.099,515.104,247.922,518.198,248.805L518.198,248.805z"/>
	</g>
</g>
<g>
	<g>
		<path fill="#FFFFFF" d="M524.855,254.346c-4.592-1.311-9.185-2.622-13.777-3.933c-3.1-0.885-4.423,3.938-1.329,4.821
			c4.592,1.311,9.185,2.622,13.777,3.933C526.625,260.052,527.948,255.229,524.855,254.346L524.855,254.346z"/>
	</g>
</g>
<g>
	<path fill="#FFFFFF" d="M513.118,252.536c-1.047-2.23-1.616-4.441-3.182-6.398c-1.676-2.095-3.545-4.024-5.249-6.098
		c-2.733-3.327-5.647-6.593-9.419-8.697c-0.15-0.314-0.439-0.568-0.894-0.669c-0.284-0.063-0.568-0.126-0.852-0.189
		c-1.497-0.333-2.626,1.902-1.095,2.596c4.009,1.814,6.921,4.986,9.7,8.302c1.473,1.756,2.979,3.47,4.499,5.186
		c1.452,1.641,2.271,3.405,3.088,5.266c-0.152,0.641,0.089,1.39,0.732,1.676c0.01,0.027,0.016,0.053,0.03,0.079
		c0.063,0.126,0.126,0.252,0.189,0.379C511.49,255.619,513.887,254.175,513.118,252.536z"/>
</g>
<g>
	<g>
		<g>
			<path fill="#FFFFFF" d="M379.483,258.665c-1.92-1.285-3.839-2.57-5.758-3.856c-1.122-0.752-2.769-0.218-3.42,0.897
				c-0.718,1.228-0.228,2.667,0.897,3.42c1.919,1.286,3.838,2.571,5.758,3.856c1.122,0.751,2.768,0.218,3.42-0.897
				C381.098,260.858,380.609,259.419,379.483,258.665L379.483,258.665z"/>
		</g>
	</g>
	<g>
		<g>
			<path fill="#FFFFFF" d="M392.053,239.372c-2.031-1.36-4.062-2.721-6.093-4.081c-1.122-0.752-2.768-0.218-3.42,0.897
				c-0.718,1.228-0.228,2.667,0.897,3.42c2.031,1.36,4.062,2.721,6.093,4.081c1.122,0.752,2.768,0.218,3.42-0.897
				C393.668,241.565,393.178,240.126,392.053,239.372L392.053,239.372z"/>
		</g>
	</g>
	<g>
		<path fill="#FFFFFF" d="M365.305,261.468c-2.005,0-3.88-0.517-5.504-1.604c-3.288-2.202-4.911-6.235-4.57-11.355
			c0.3-4.523,2.132-9.502,5.157-14.017c3.023-4.515,6.93-8.103,10.998-10.103c4.605-2.265,8.952-2.299,12.24-0.095
			c3.287,2.201,4.91,6.234,4.57,11.354c-0.301,4.523-2.132,9.502-5.156,14.017C378.068,257.089,371.141,261.468,365.305,261.468z
			 M378.07,228.681c-1.177,0-2.561,0.367-4.038,1.094c-3.092,1.52-6.248,4.456-8.659,8.057c-2.413,3.601-3.928,7.638-4.156,11.076
			c-0.189,2.85,0.511,5.026,1.922,5.972c3.002,2.009,9.865-1.01,14.917-8.552c2.411-3.601,3.925-7.638,4.153-11.075
			c0.189-2.851-0.512-5.027-1.922-5.973h-0.001C379.688,228.879,378.935,228.681,378.07,228.681z"/>
	</g>
	<g>
		<g>
			<path fill="#FFFFFF" d="M362.166,242.148c0.852-2.588,0.559-6.164-0.451-8.693c-0.501-1.253-1.67-2.132-3.075-1.746
				c-1.191,0.327-2.25,1.814-1.746,3.075c0.706,1.766,1.048,4.221,0.451,6.034C356.336,243.882,361.163,245.196,362.166,242.148
				L362.166,242.148z"/>
		</g>
	</g>
	<g>
		<g>
			<path fill="#FFFFFF" d="M364.827,229.588c-1.639,0.354-3.314,0.498-4.991,0.447c-3.219-0.097-3.215,4.903,0,5
				c2.11,0.064,4.259-0.181,6.32-0.626c1.32-0.285,2.089-1.826,1.746-3.075C367.528,229.969,366.151,229.302,364.827,229.588
				L364.827,229.588z"/>
		</g>
	</g>
	<g>
		<g>
			<path fill="#FFFFFF" d="M358.114,235.208c-0.127-0.061-0.255-0.122-0.382-0.183c-0.383-0.498-0.766-0.996-1.149-1.494
				c0.003,0.009,0.005,0.017,0.008,0.026c0.383-0.941,0.766-1.882,1.149-2.823c0.539-0.19,0.691-0.258,0.455-0.204
				c-1.28,0.275-2.145,1.841-1.746,3.075c0.437,1.349,1.704,2.041,3.075,1.746c0.26-0.056,0.515-0.159,0.739-0.3
				c0.909-0.57,1.491-1.753,1.149-2.823c-0.307-0.96-1.007-1.594-1.969-1.841c-1.265-0.324-2.772,0.414-3.075,1.746
				C356.071,233.434,356.759,234.86,358.114,235.208L358.114,235.208z"/>
		</g>
	</g>
	<g>
		<g>
			<path fill="#FFFFFF" d="M359.857,230.516c-1.137-0.762-2.275-1.523-3.412-2.285c-1.089-0.729-2.816-0.247-3.421,0.897
				c-0.665,1.259-0.266,2.642,0.897,3.42c1.137,0.762,2.275,1.523,3.412,2.285c1.089,0.73,2.816,0.247,3.42-0.897
				C361.42,232.676,361.02,231.294,359.857,230.516L359.857,230.516z"/>
		</g>
	</g>
	<g>
		<g>
			<path fill="#FFFFFF" d="M352.117,231.011c3.217,0,3.223-5,0-5C348.899,226.011,348.894,231.011,352.117,231.011L352.117,231.011z
				"/>
		</g>
	</g>
	<g>
		<g>
			<path fill="#FFFFFF" d="M361.249,236.859c-0.283,0.079-0.564,0.072-0.845-0.019c-0.563-0.146-0.948-0.472-1.154-0.976
				c-0.235-0.261-0.345-0.566-0.328-0.915c0.003,0.078,0.002,0.156-0.004,0.234c-0.058,1.242,0.996,2.298,2.168,2.455
				c1.194,0.16,2.439-0.577,2.743-1.791c0.104-0.416,0.22-0.775,0.23-1.221c0.01-0.446-0.095-0.898-0.207-1.328
				c-1.025,1.025-2.05,2.05-3.075,3.075c0.639,0.091,1.15,0.201,1.787,0.02c0.991-0.282,1.711-1.119,1.848-2.133
				c0.087-0.648-0.044-1.189-0.354-1.762c-0.058-0.107-0.186-0.386,0.018,0.08c0.188,0.432,0.138,0.31-0.15-0.364
				c-0.131-0.173-0.263-0.344-0.397-0.514c-0.933-1.187-3.319-0.867-3.926,0.506c-0.319,0.721-0.408,1.254-0.239,2.018
				c0.039,0.176,0.089,0.35,0.137,0.524c0.082,0.298,0.15,0.613,0.261,0.902c0.449,1.175,1.434,1.967,2.743,1.791
				c1.169-0.157,2.233-1.208,2.168-2.455c0.008,0.16-0.111,0.764-0.007,0.26c0.017-0.083,0.035-0.166,0.051-0.249
				c0.024-0.119,0.045-0.237,0.065-0.356c0.185-1.123-0.029-2.346-1.158-2.947c-0.955-0.509-2.013-0.422-2.86,0.232
				c-0.098,0.076-0.202,0.152-0.299,0.233c-0.212,0.176,0.389-0.278,0.366-0.279c-0.058-0.003-0.226,0.143-0.286,0.171
				c-1.181,0.57-1.589,2.347-0.897,3.42c0.781,1.211,2.158,1.507,3.42,0.897c0.119-0.058,0.224-0.129,0.331-0.206
				c0.199-0.144,0.392-0.3,0.584-0.454c-0.394,0.315-0.852,0.62-1.627,0.642c-0.421-0.114-0.841-0.228-1.262-0.341
				c0.003,0.002,0.007,0.005,0.01,0.007c-0.383-0.498-0.766-0.996-1.149-1.494c-0.065-0.158-0.162-0.943-0.005-1.153
				c-0.044,0.058-0.042,0.227-0.057,0.3c-0.083,0.414-0.245,0.91-0.223,1.319c1.637-0.222,3.274-0.443,4.911-0.665
				c-0.084-0.221-0.137-0.458-0.201-0.685c-0.047-0.166-0.093-0.333-0.137-0.5c-0.078-0.298-0.083-0.746,0.014,0.337
				c-0.114,0.421-0.228,0.841-0.341,1.262c0.001-0.002,0.002-0.003,0.002-0.005c-1.309,0.169-2.618,0.337-3.926,0.506
				c0.002,0.003,0.004,0.006,0.007,0.008c-0.214-0.368-0.429-0.735-0.643-1.103c0.076,0.261,0.177,0.525,0.316,0.76
				c0.284,0.481-0.193,0.191-0.217-0.972c0.114-0.421,0.228-0.841,0.341-1.262c-0.006,0.011-0.012,0.021-0.017,0.032
				c0.299-0.299,0.598-0.598,0.897-0.897c0.463-0.291,0.939-0.374,1.429-0.249c-0.915-0.131-1.741-0.048-2.432,0.643
				c-0.636,0.636-0.87,1.566-0.643,2.432c0.032,0.121,0.054,0.247,0.09,0.366c0.027,0.138,0.02,0.075-0.023-0.19
				c-0.06-0.258-0.047-0.516,0.042-0.775c-0.065,0.147-0.092,0.335-0.131,0.49c1.637,0.222,3.274,0.443,4.911,0.665
				c0.041-0.882-0.249-1.812-0.895-2.434c-0.882-0.847-1.966-0.898-3.102-0.711c-0.581,0.096-1.209,0.662-1.494,1.149
				c-0.314,0.536-0.446,1.326-0.252,1.926C358.627,236.514,359.863,237.087,361.249,236.859L361.249,236.859z"/>
		</g>
	</g>
	<g>
		<g>
			<path fill="#FFFFFF" d="M356.859,247.967c6.142,5.369,14.798,6.309,22.517,4.388c3.121-0.777,1.799-5.6-1.329-4.821
				c-5.867,1.46-12.918,1.037-17.653-3.102C357.982,242.322,354.431,245.844,356.859,247.967L356.859,247.967z"/>
		</g>
	</g>
	<g>
		<g>
			<path fill="#FFFFFF" d="M359.443,238.312c7.276,6.124,17.406,5.604,26.1,3.257c3.103-0.838,1.786-5.662-1.329-4.821
				c-6.737,1.819-15.471,2.88-21.235-1.971C360.531,232.717,356.977,236.237,359.443,238.312L359.443,238.312z"/>
		</g>
	</g>
	<g>
		<g>
			<path fill="#FFFFFF" d="M367.692,231.887c5.699,2.574,11.181,2.631,17.279,1.708c3.171-0.48,1.824-5.299-1.329-4.821
				c-4.619,0.699-9.086,0.756-13.426-1.204C367.306,226.255,364.761,230.563,367.692,231.887L367.692,231.887z"/>
		</g>
	</g>
</g>
<g>
	<path fill="#FFFFFF" d="M368.616,337.666c-5.063,0-9.85-3.073-11.776-8.074c-2.497-6.486,0.748-13.793,7.232-16.289l1.438,3.732
		c-4.427,1.704-6.642,6.692-4.938,11.119c1.706,4.426,6.69,6.64,11.12,4.937l1.438,3.732
		C371.646,337.395,370.118,337.666,368.616,337.666z"/>
</g>
<g>
	<path fill="#FFFFFF" d="M362.054,317.625c-3.854,0-7.497-2.34-8.963-6.146c-1.9-4.938,0.569-10.5,5.505-12.4l1.438,3.732
		c-2.878,1.108-4.317,4.352-3.21,7.23c1.109,2.879,4.354,4.318,7.229,3.209l1.438,3.732
		C364.36,317.419,363.197,317.625,362.054,317.625z"/>
</g>
<g>
	<path fill="#FFFFFF" d="M375.136,351.642c-1.323,0-2.644-0.277-3.889-0.83c-2.342-1.04-4.139-2.93-5.06-5.321
		c-1.9-4.937,0.569-10.499,5.505-12.399l1.438,3.732c-2.878,1.108-4.317,4.352-3.21,7.229c0.537,1.395,1.585,2.496,2.95,3.103
		c1.367,0.606,2.885,0.643,4.279,0.107l1.438,3.732C377.468,351.427,376.301,351.642,375.136,351.642z"/>
</g>
<g>
	<g>
		<path fill="#FFFFFF" d="M379.51,348.724c-6.186-16.065-12.372-32.13-18.558-48.195c-0.858-2.229-4.485-1.261-3.616,0.997
			c6.186,16.065,12.372,32.13,18.558,48.195C376.752,351.95,380.379,350.982,379.51,348.724L379.51,348.724z"/>
	</g>
</g>
<g>
	<g>
		<path fill="#FFFFFF" d="M372.822,337.329c4.27-1.645,8.541-3.289,12.811-4.934c2.229-0.858,1.261-4.485-0.997-3.616
			c-4.271,1.644-8.541,3.289-12.811,4.934C369.597,334.571,370.565,338.199,372.822,337.329L372.822,337.329z"/>
	</g>
</g>
<g>
	<g>
		<path fill="#FFFFFF" d="M364.997,317.007c4.271-1.644,8.541-3.289,12.812-4.934c2.229-0.858,1.261-4.485-0.997-3.616
			c-4.271,1.645-8.541,3.289-12.812,4.934C361.771,314.249,362.739,317.876,364.997,317.007L364.997,317.007z"/>
	</g>
</g>
<g>
	<g>
		<path fill="#FFFFFF" d="M359.383,302.428c4.271-1.644,8.542-3.288,12.813-4.933c2.229-0.858,1.261-4.485-0.997-3.616
			c-4.271,1.645-8.542,3.289-12.813,4.933C356.157,299.67,357.125,303.297,359.383,302.428L359.383,302.428z"/>
	</g>
</g>
<g>
	<g>
		<path fill="#FFFFFF" d="M366.393,311.237c4.271-1.645,8.541-3.289,12.812-4.934c1.486-0.572,0.84-2.99-0.665-2.411
			c-4.271,1.645-8.541,3.289-12.812,4.934C364.242,309.399,364.888,311.817,366.393,311.237L366.393,311.237z"/>
	</g>
</g>
<g>
	<g>
		<path fill="#FFFFFF" d="M364.997,307.614c4.271-1.644,8.542-3.288,12.813-4.933c1.486-0.572,0.84-2.99-0.665-2.411
			c-4.271,1.645-8.542,3.289-12.813,4.933C362.846,305.775,363.492,308.194,364.997,307.614L364.997,307.614z"/>
	</g>
</g>
<g>
	<g>
		<path fill="#FFFFFF" d="M363.602,303.991c4.271-1.644,8.542-3.288,12.812-4.933c1.486-0.573,0.84-2.991-0.665-2.411
			c-4.27,1.646-8.541,3.289-12.812,4.933C361.452,302.152,362.097,304.57,363.602,303.991L363.602,303.991z"/>
	</g>
</g>
<g>
	<g>
		<path fill="#FFFFFF" d="M379.738,345.894c4.271-1.644,8.541-3.288,12.812-4.932c1.486-0.572,0.84-2.99-0.665-2.411
			c-4.271,1.644-8.541,3.288-12.812,4.932C377.588,344.056,378.233,346.474,379.738,345.894L379.738,345.894z"/>
	</g>
</g>
<g>
	<g>
		<path fill="#FFFFFF" d="M378.343,342.272c4.27-1.645,8.541-3.289,12.811-4.934c1.486-0.572,0.84-2.99-0.665-2.411
			c-4.27,1.645-8.541,3.289-12.811,4.934C376.193,340.434,376.838,342.852,378.343,342.272L378.343,342.272z"/>
	</g>
</g>
<g>
	<g>
		<path fill="#FFFFFF" d="M376.948,338.649c4.271-1.645,8.541-3.289,12.812-4.934c1.486-0.572,0.84-2.99-0.665-2.411
			c-4.271,1.645-8.541,3.289-12.812,4.934C374.797,336.811,375.443,339.229,376.948,338.649L376.948,338.649z"/>
	</g>
</g>
<g>
	<g>
		<path fill="#FFFFFF" d="M373.793,330.455c4.271-1.644,8.541-3.289,12.812-4.933c1.486-0.572,0.841-2.99-0.665-2.411
			c-4.271,1.644-8.541,3.289-12.812,4.933C371.642,328.616,372.288,331.034,373.793,330.455L373.793,330.455z"/>
	</g>
</g>
<g>
	<g>
		<path fill="#FFFFFF" d="M372.397,326.832c4.271-1.645,8.541-3.289,12.812-4.934c1.486-0.572,0.841-2.99-0.665-2.411
			c-4.271,1.644-8.541,3.289-12.812,4.934C370.247,324.994,370.892,327.412,372.397,326.832L372.397,326.832z"/>
	</g>
</g>
<g>
	<g>
		<path fill="#FFFFFF" d="M371.003,323.209c4.27-1.645,8.541-3.289,12.812-4.933c1.486-0.572,0.841-2.99-0.665-2.411
			c-4.271,1.644-8.542,3.288-12.812,4.933C368.852,321.37,369.497,323.789,371.003,323.209L371.003,323.209z"/>
	</g>
</g>
<g>
	<g>
		<path fill="#FFFFFF" d="M369.665,319.539c4.271-1.645,8.541-3.289,12.812-4.933c1.486-0.572,0.841-2.99-0.665-2.411
			c-4.271,1.644-8.541,3.288-12.812,4.933C367.515,317.7,368.16,320.118,369.665,319.539L369.665,319.539z"/>
	</g>
</g>
<g>
	<g>
		<path fill="#FFFFFF" d="M378.433,351.191c4.271-1.644,8.541-3.289,12.812-4.934c2.229-0.858,1.261-4.485-0.997-3.616
			c-4.271,1.645-8.541,3.289-12.812,4.934C375.207,348.433,376.175,352.06,378.433,351.191L378.433,351.191z"/>
	</g>
</g>
<g>
	<g>
		<path fill="#FFFFFF" d="M504.02,354.19c13.897-6.252,27.788-12.515,41.689-18.757c-0.841-1.439-1.682-2.878-2.524-4.317
			c-0.038,0.017-0.075,0.034-0.113,0.051c-2.928,1.323-0.389,5.633,2.524,4.317c0.038-0.017,0.075-0.034,0.113-0.051
			c2.93-1.324,0.389-5.625-2.524-4.317c-13.901,6.241-27.792,12.505-41.689,18.757C498.566,351.191,501.106,355.501,504.02,354.19
			L504.02,354.19z"/>
	</g>
</g>
<g>
	<g>
		<path fill="#FFFFFF" d="M436.914,371.509c0,10.936,0,21.871,0,32.807c0,3.217,5,3.223,5,0c0-10.936,0-21.871,0-32.807
			C441.914,368.291,436.914,368.286,436.914,371.509L436.914,371.509z"/>
	</g>
</g>
<g>
	<g>
		<path fill="#FFFFFF" d="M440.124,407.242c7.101,0,14.202,0,21.303,0c3.217,0,3.223-5,0-5c-7.101,0-14.202,0-21.303,0
			C436.906,402.242,436.901,407.242,440.124,407.242L440.124,407.242z"/>
	</g>
</g>
<g>
	<g>
		<path fill="#FFFFFF" d="M464.353,404.884c0-11.078,0-22.155,0-33.233c0-3.217-5-3.223-5,0c0,11.078,0,22.155,0,33.233
			C459.353,408.101,464.353,408.107,464.353,404.884L464.353,404.884z"/>
	</g>
</g>
<g>
	<g>
		<path fill="#FFFFFF" d="M439.896,406.304c0,1.894,0,3.787,0,5.681c0,3.217,5,3.223,5,0c0-1.894,0-3.787,0-5.681
			C444.896,403.087,439.896,403.082,439.896,406.304L439.896,406.304z"/>
	</g>
</g>
<g>
	<g>
		<path fill="#FFFFFF" d="M441.97,415.479c5.397,0,10.794,0,16.19,0c3.217,0,3.223-5,0-5c-5.397,0-10.794,0-16.19,0
			C438.753,410.479,438.748,415.479,441.97,415.479L441.97,415.479z"/>
	</g>
</g>
<g>
	<g>
		<path fill="#FFFFFF" d="M461.087,412.837c0-2.225,0-4.45,0-6.675c0-3.217-5-3.223-5,0c0,2.225,0,4.45,0,6.675
			C456.087,416.054,461.087,416.059,461.087,412.837L461.087,412.837z"/>
	</g>
</g>
<g>
	<g>
		<path fill="#FFFFFF" d="M448.559,414.683c0,0.805,0,1.61,0,2.414c0,1.308,1.15,2.56,2.5,2.5c1.354-0.061,2.5-1.098,2.5-2.5
			c0-0.805,0-1.61,0-2.414c0-1.308-1.15-2.56-2.5-2.5C449.705,412.244,448.559,413.281,448.559,414.683L448.559,414.683z"/>
	</g>
</g>
<g>
	<g>
		<path fill="#FFFFFF" d="M446.231,400.425c3.217,0,3.223-5,0-5C443.014,395.425,443.008,400.425,446.231,400.425L446.231,400.425z"
			/>
	</g>
</g>
<g>
	<g>
		<path fill="#FFFFFF" d="M455.462,400.709c3.217,0,3.223-5,0-5C452.245,395.709,452.239,400.709,455.462,400.709L455.462,400.709z"
			/>
	</g>
</g>
<g>
	<g>
		<path fill="#FFFFFF" d="M446.231,392.613c3.217,0,3.223-5,0-5C443.014,387.613,443.008,392.613,446.231,392.613L446.231,392.613z"
			/>
	</g>
</g>
<g>
	<g>
		<path fill="#FFFFFF" d="M455.32,392.187c3.217,0,3.223-5,0-5C452.103,387.187,452.098,392.187,455.32,392.187L455.32,392.187z"/>
	</g>
</g>
<g>
	<g>
		<path fill="#FFFFFF" d="M446.373,382.956c3.217,0,3.223-5,0-5C443.155,377.956,443.15,382.956,446.373,382.956L446.373,382.956z"
			/>
	</g>
</g>
<g>
	<g>
		<path fill="#FFFFFF" d="M455.746,383.24c3.217,0,3.223-5,0-5C452.529,378.24,452.524,383.24,455.746,383.24L455.746,383.24z"/>
	</g>
</g>
<g>
	<g>
		<path fill="#FFFFFF" d="M560.845,316.629v35.585c0,4.874-3.96,8.834-8.833,8.834h-86.866c-4.88,0-8.832-3.96-8.832-8.834v-35.585
			h45.029c0.161,3.283,2.871,5.889,6.191,5.889h4.049c3.32,0,6.029-2.606,6.191-5.889H560.845z"/>
	</g>
	<g>
		<path fill="#FFFFFF" d="M552.013,295.47h-27.73v-12.205c0-2.26-1.63-4.134-3.777-4.523c-0.723-0.283-1.532-0.446-2.391-0.446
			h-18.03c-0.819,0-2.882,0.215-3.578,0.473c-0.186-0.023,0.914-0.105,0.723-0.105c-2.542,0-4.601,2.06-4.601,4.601v12.205h-27.481
			c-4.88,0-8.833,3.96-8.833,8.834v10.306h45.324c0.302-0.942,0.832-1.789,1.516-2.474c1.12-1.126,2.665-1.818,4.38-1.818h4.049
			c2.753,0,5.094,1.796,5.896,4.292h43.366v-10.306C560.846,299.43,556.886,295.47,552.013,295.47z M501.829,295.47v-8.525h13.251
			v8.525H501.829z"/>
	</g>
</g>
<g>
	<path fill="#FFFFFF" d="M514.638,316.547c0,1.752-1.42,3.172-3.172,3.172h-3.881c-1.752,0-3.172-1.42-3.172-3.172l0,0
		c0-1.751,1.42-3.172,3.172-3.172h3.881C513.217,313.375,514.638,314.795,514.638,316.547L514.638,316.547z"/>
</g>
<g>
	<g>
		<path fill="#FFFFFF" d="M521.693,66.828l1.047,9.61l-2.94-1.683l-0.818-9.124l-0.433-0.248l-3.731,6.521l-2.404-1.376
			l9.116-15.929l2.816,1.612c2.104,1.205,3.398,2.47,3.882,3.796c0.527,1.471,0.378,2.929-0.449,4.373
			c-0.646,1.127-1.523,1.912-2.635,2.354C524.033,67.176,522.882,67.207,521.693,66.828z M519.748,63.29l0.762,0.437
			c2.277,1.303,3.913,1.084,4.909-0.655c0.933-1.63,0.292-3.079-1.923-4.347l-0.855-0.49L519.748,63.29z"/>
		<path fill="#FFFFFF" d="M532.762,68.835l-3.301,5.767c-0.952,1.664-0.771,2.873,0.542,3.625s2.447,0.295,3.399-1.369l3.301-5.767
			l2.32,1.328l-3.33,5.818c-0.461,0.805-0.957,1.442-1.491,1.912c-0.492,0.413-1.095,0.693-1.81,0.841
			c-1.174,0.232-2.366,0.002-3.576-0.69c-1.203-0.688-2.003-1.599-2.397-2.728c-0.241-0.695-0.313-1.361-0.212-1.998
			c0.075-0.578,0.376-1.328,0.903-2.25l3.33-5.818L532.762,68.835z"/>
		<path fill="#FFFFFF" d="M541.953,74.096l2.331,1.334l-0.531,0.929c1.272-0.34,2.417-0.219,3.436,0.363
			c1.168,0.669,1.869,1.559,2.102,2.669c0.206,0.948-0.097,2.131-0.907,3.547l-3.525,6.159l-2.331-1.334l3.212-5.612
			c0.567-0.99,0.821-1.754,0.762-2.289c-0.048-0.538-0.426-1.011-1.134-1.416c-0.77-0.44-1.463-0.499-2.077-0.176
			c-0.604,0.322-1.265,1.107-1.98,2.359l-2.775,4.849l-2.331-1.334L541.953,74.096z"/>
		<path fill="#FFFFFF" d="M553.538,80.727l2.332,1.334l-0.531,0.929c1.272-0.341,2.417-0.22,3.435,0.363
			c1.169,0.669,1.87,1.559,2.102,2.669c0.207,0.948-0.097,2.131-0.907,3.547l-3.525,6.159l-2.331-1.334l3.212-5.612
			c0.567-0.99,0.821-1.754,0.763-2.289c-0.048-0.539-0.426-1.011-1.135-1.416c-0.77-0.441-1.463-0.499-2.076-0.176
			c-0.604,0.322-1.265,1.107-1.98,2.359l-2.775,4.849l-2.332-1.334L553.538,80.727z"/>
		<path fill="#FFFFFF" d="M571.086,98.165l-7.2-4.122c-0.411,0.861-0.52,1.672-0.324,2.432c0.199,0.752,0.67,1.342,1.414,1.768
			c0.577,0.33,1.134,0.466,1.669,0.407c0.529-0.062,1.243-0.329,2.144-0.8l1.334,2.215c-0.599,0.342-1.171,0.602-1.719,0.776
			c-0.547,0.176-1.081,0.271-1.603,0.288c-0.521,0.017-1.036-0.048-1.546-0.193c-0.511-0.146-1.026-0.368-1.55-0.668
			c-1.499-0.857-2.427-2.027-2.784-3.51c-0.353-1.489-0.07-3.036,0.847-4.639c0.91-1.589,2.086-2.622,3.529-3.103
			c1.441-0.462,2.896-0.273,4.36,0.565c1.479,0.846,2.378,1.986,2.699,3.421c0.317,1.423,0.002,2.964-0.946,4.621L571.086,98.165z
			 M569.789,94.902c0.386-1.422-0.04-2.488-1.278-3.197c-0.282-0.161-0.571-0.27-0.868-0.325s-0.594-0.061-0.888-0.015
			c-0.297,0.045-0.581,0.139-0.855,0.284c-0.274,0.145-0.531,0.339-0.772,0.584L569.789,94.902z"/>
		<path fill="#FFFFFF" d="M576.812,94.046l2.321,1.329l-0.514,0.896c0.683-0.202,1.235-0.292,1.66-0.268
			c0.436,0.021,0.884,0.163,1.345,0.427c0.611,0.351,1.138,0.916,1.577,1.696l-2.28,1.518c-0.259-0.568-0.599-0.974-1.018-1.213
			c-1.266-0.725-2.445-0.131-3.54,1.781l-2.981,5.21l-2.321-1.329L576.812,94.046z"/>
		<path fill="#FFFFFF" d="M597.447,98.051l-5.491,9.594c-0.783,1.369-1.133,2.496-1.047,3.386c0.144,1.297,0.82,2.292,2.031,2.984
			c1.217,0.696,2.421,0.778,3.611,0.245c0.798-0.355,1.594-1.229,2.389-2.618l5.491-9.594l2.403,1.376l-5.868,10.254
			c-0.961,1.678-2.274,2.762-3.942,3.25c-1.868,0.537-3.659,0.315-5.371-0.664c-1.713-0.98-2.808-2.41-3.284-4.29
			c-0.424-1.685-0.154-3.366,0.807-5.044l5.868-10.255L597.447,98.051z"/>
		<path fill="#FFFFFF" d="M600.284,128.078l-2.322-1.328l8.88-15.516l2.322,1.328l-0.626,1.094c1.438-0.392,2.737-0.255,3.9,0.411
			c1.383,0.791,2.229,1.951,2.541,3.48c0.329,1.53,0.053,3.066-0.829,4.606c-0.861,1.507-2.03,2.504-3.507,2.992
			c-1.464,0.485-2.878,0.339-4.238-0.44c-1.177-0.673-1.96-1.747-2.349-3.22L600.284,128.078z M611.771,120.807
			c0.551-0.963,0.738-1.896,0.563-2.801c-0.181-0.915-0.672-1.603-1.476-2.063c-0.854-0.489-1.715-0.588-2.582-0.3
			c-0.869,0.288-1.577,0.914-2.129,1.876c-0.539,0.943-0.72,1.871-0.54,2.787c0.18,0.897,0.696,1.59,1.549,2.078
			c0.806,0.461,1.642,0.537,2.511,0.23C610.551,122.318,611.252,121.715,611.771,120.807z"/>
	</g>
	<g>
		<circle fill="#FFFFFF" cx="622.528" cy="126.621" r="4.129"/>
	</g>
	<g>
		<circle fill="#FFFFFF" cx="506.919" cy="57.065" r="4.129"/>
	</g>
</g>
<g>
	<g>
		<g>
			<path fill="#FFFFFF" d="M536.794,498.035l1.867-1.085l3.838,6.609c0.317-0.984,0.877-1.708,1.68-2.174
				c0.914-0.53,1.816-0.659,2.708-0.384c0.765,0.245,1.474,0.931,2.13,2.061l2.878,4.957l-1.868,1.085l-2.777-4.783
				c-0.376-0.647-0.764-1.051-1.161-1.208c-0.399-0.157-0.853-0.087-1.362,0.209c-0.653,0.379-0.996,0.847-1.026,1.406
				c-0.023,0.561,0.256,1.339,0.834,2.335l2.271,3.911l-1.868,1.085L536.794,498.035z"/>
		</g>
		<g>
			<path fill="#FFFFFF" d="M555.527,495.096l1.877-1.09l4.696,8.088l-1.876,1.09l-0.493-0.847c-0.352,1.166-0.97,2.006-1.855,2.521
				c-1.118,0.649-2.278,0.783-3.478,0.398c-1.204-0.403-2.164-1.223-2.881-2.457c-0.705-1.213-0.928-2.433-0.673-3.663
				c0.256-1.229,0.929-2.16,2.019-2.793c0.942-0.546,2.011-0.649,3.208-0.307L555.527,495.096z M553.427,501.69
				c0.45,0.775,1.024,1.285,1.722,1.531c0.712,0.246,1.392,0.18,2.04-0.196c0.692-0.401,1.113-0.965,1.263-1.689
				c0.14-0.739-0.009-1.489-0.451-2.248c-0.44-0.758-1.016-1.26-1.729-1.505c-0.706-0.234-1.398-0.153-2.08,0.242
				c-0.642,0.373-1.038,0.928-1.187,1.666C552.866,500.232,553.005,500.964,553.427,501.69z"/>
		</g>
		<g>
			<path fill="#FFFFFF" d="M566.259,489.332l1.441,2.482c-0.728-0.273-1.317-0.408-1.768-0.405
				c-0.448-0.007-0.896,0.121-1.344,0.381c-0.703,0.408-1.144,0.993-1.323,1.755c-0.179,0.764-0.053,1.516,0.377,2.257
				c0.441,0.758,1.027,1.251,1.758,1.478c0.737,0.224,1.456,0.132,2.159-0.277c0.448-0.26,0.788-0.588,1.019-0.98
				c0.222-0.381,0.401-0.973,0.534-1.776l1.432,2.465c-0.531,0.834-1.175,1.471-1.933,1.911c-1.251,0.726-2.532,0.931-3.843,0.609
				c-1.314-0.325-2.321-1.091-3.022-2.298c-0.701-1.207-0.866-2.472-0.496-3.797c0.371-1.326,1.175-2.348,2.415-3.068
				C564.464,489.607,565.328,489.36,566.259,489.332z"/>
		</g>
		<g>
			<path fill="#FFFFFF" d="M566.287,480.911l4.966,8.552l1.113-4.143l2.508-1.457l-1.541,5.436l6.494,2.503l-2.425,1.408
				l-4.656-1.86l-0.125,0.472l1.808,3.115l-1.868,1.085l-8.143-14.024L566.287,480.911z"/>
		</g>
		<g>
			<path fill="#FFFFFF" d="M582.298,479.553l1.876-1.09l4.697,8.087l-1.877,1.09l-0.493-0.846c-0.351,1.166-0.97,2.006-1.855,2.521
				c-1.118,0.649-2.277,0.783-3.478,0.398c-1.203-0.403-2.164-1.223-2.881-2.457c-0.705-1.213-0.928-2.433-0.672-3.663
				c0.256-1.229,0.929-2.161,2.019-2.793c0.941-0.546,2.01-0.649,3.207-0.308L582.298,479.553z M580.197,486.147
				c0.451,0.775,1.024,1.285,1.722,1.531c0.712,0.246,1.393,0.18,2.04-0.196c0.692-0.401,1.113-0.964,1.263-1.688
				c0.141-0.739-0.009-1.489-0.451-2.248c-0.44-0.758-1.016-1.26-1.729-1.505c-0.705-0.234-1.398-0.153-2.079,0.242
				c-0.642,0.373-1.038,0.927-1.186,1.666C579.636,484.689,579.776,485.42,580.197,486.147z"/>
		</g>
		<g>
			<path fill="#FFFFFF" d="M589.471,477.719l3.684,6.345l-1.867,1.084l-3.684-6.345l-0.797,0.463l-1.013-1.744l0.797-0.462
				l-1.721-2.965l1.868-1.084l1.721,2.964l1.453-0.844l1.013,1.744L589.471,477.719z"/>
		</g>
		<g>
			<path fill="#FFFFFF" d="M587.736,468.458l1.867-1.085l3.838,6.609c0.317-0.984,0.877-1.708,1.68-2.174
				c0.913-0.531,1.816-0.659,2.708-0.384c0.764,0.245,1.473,0.931,2.129,2.061l2.878,4.957l-1.868,1.085l-2.777-4.783
				c-0.376-0.647-0.764-1.05-1.161-1.207c-0.399-0.157-0.853-0.087-1.362,0.209c-0.653,0.379-0.995,0.846-1.026,1.406
				c-0.022,0.56,0.256,1.339,0.834,2.335l2.271,3.911l-1.868,1.085L587.736,468.458z"/>
		</g>
		<g>
			<path fill="#FFFFFF" d="M602.439,473.187c-0.679-1.168-0.837-2.404-0.478-3.709c0.361-1.303,1.141-2.306,2.343-3.002
				c1.207-0.701,2.47-0.883,3.79-0.547c1.309,0.343,2.313,1.115,3.01,2.316c0.704,1.213,0.875,2.472,0.515,3.776
				c-0.369,1.302-1.164,2.308-2.388,3.018c-1.213,0.705-2.469,0.879-3.771,0.524C604.167,475.219,603.159,474.427,602.439,473.187z
				 M604.368,472.112c0.469,0.808,1.056,1.322,1.762,1.542c0.719,0.219,1.44,0.118,2.166-0.302c0.73-0.425,1.178-0.998,1.343-1.723
				c0.164-0.724,0.017-1.479-0.44-2.267c-0.456-0.786-1.04-1.287-1.75-1.504c-0.719-0.217-1.441-0.117-2.166,0.305
				c-0.715,0.415-1.155,0.988-1.321,1.72C603.796,470.616,603.931,471.359,604.368,472.112z"/>
		</g>
		<g>
			<path fill="#FFFFFF" d="M610.729,463.045l1.877-1.09l0.433,0.747c0.278-1.026,0.825-1.778,1.645-2.253
				c0.942-0.546,1.846-0.677,2.716-0.389c0.747,0.239,1.451,0.93,2.113,2.071l2.878,4.957l-1.877,1.09l-2.623-4.518
				c-0.463-0.797-0.893-1.284-1.292-1.46c-0.396-0.185-0.878-0.111-1.449,0.219c-0.62,0.36-0.942,0.821-0.963,1.382
				c-0.02,0.551,0.263,1.331,0.847,2.338l2.267,3.903l-1.877,1.09L610.729,463.045z"/>
		</g>
		<g>
			<path fill="#FFFFFF" d="M632.022,459.064l4.774-2.772l1.057,1.819l-8.611,4.999l1.322-7.973c0.125-0.791,0.222-1.469,0.29-2.034
				c0.068-0.564,0.102-1.025,0.103-1.381c0.013-0.703-0.101-1.262-0.341-1.677c-0.347-0.598-0.848-0.977-1.503-1.137
				c-0.656-0.16-1.293-0.059-1.913,0.301c-1.295,0.752-1.592,1.949-0.89,3.592l-1.927,1.119c-1.259-2.882-0.678-5.026,1.74-6.43
				c1.168-0.678,2.364-0.875,3.586-0.594c1.228,0.279,2.16,0.966,2.796,2.062c0.405,0.698,0.617,1.489,0.635,2.375
				c0.013,0.458-0.021,1.031-0.105,1.72c-0.085,0.691-0.215,1.522-0.389,2.496L632.022,459.064z"/>
		</g>
		<g>
			<path fill="#FFFFFF" d="M636.266,450.35c-1.186-2.043-1.656-3.949-1.411-5.72c0.213-1.595,0.925-2.747,2.138-3.451
				c1.212-0.704,2.564-0.751,4.057-0.145c1.659,0.666,3.097,2.046,4.316,4.144c1.214,2.093,1.7,4.025,1.455,5.795
				c-0.214,1.596-0.923,2.745-2.129,3.446c-1.207,0.701-2.562,0.751-4.065,0.15C638.966,453.904,637.513,452.497,636.266,450.35z
				 M638.172,449.254c0.826,1.423,1.758,2.461,2.797,3.116c1.03,0.639,1.926,0.736,2.69,0.292c0.758-0.44,1.118-1.267,1.08-2.481
				c-0.036-1.208-0.46-2.513-1.273-3.913c-0.813-1.401-1.737-2.419-2.772-3.054c-1.032-0.629-1.927-0.724-2.684-0.284
				c-0.753,0.437-1.112,1.26-1.077,2.468C636.966,446.601,637.378,447.887,638.172,449.254z"/>
		</g>
		<g>
			<path fill="#FFFFFF" d="M648.024,437.482l-2.217,1.287l0.012-2.426l3.089-1.793l7.444,12.821l-1.935,1.123L648.024,437.482z"/>
		</g>
		<g>
			<path fill="#FFFFFF" d="M659.389,436.691c-1.327-0.118-2.323-0.75-2.988-1.896c-0.604-1.041-0.752-2.118-0.442-3.229
				c0.314-1.116,1.005-1.984,2.074-2.605c1.062-0.617,2.151-0.782,3.265-0.495c1.11,0.28,1.97,0.946,2.581,1.998
				c0.639,1.101,0.694,2.274,0.164,3.514c0.675-0.023,1.314,0.147,1.916,0.507c0.607,0.359,1.104,0.869,1.49,1.533
				c0.659,1.135,0.828,2.281,0.507,3.436c-0.32,1.157-1.059,2.07-2.217,2.742c-1.185,0.687-2.373,0.889-3.567,0.606
				c-1.2-0.281-2.12-0.974-2.763-2.082C658.573,439.281,658.566,437.938,659.389,436.691z M658.214,433.731
				c0.318,0.547,0.77,0.899,1.356,1.055c0.595,0.157,1.159,0.083,1.691-0.226c0.526-0.305,0.867-0.755,1.025-1.35
				c0.158-0.595,0.085-1.155-0.221-1.682c-0.306-0.525-0.756-0.868-1.351-1.026c-0.595-0.157-1.155-0.083-1.681,0.221
				c-0.526,0.306-0.867,0.756-1.026,1.351S657.919,433.221,658.214,433.731z M661.271,439.55c0.344,0.592,0.845,0.984,1.502,1.171
				c0.659,0.179,1.285,0.097,1.878-0.247c0.586-0.341,0.966-0.839,1.141-1.495c0.171-0.663,0.086-1.286-0.255-1.873
				c-0.344-0.592-0.844-0.975-1.5-1.15c-0.656-0.174-1.277-0.09-1.864,0.25c-0.581,0.337-0.962,0.836-1.141,1.495
				C660.856,438.358,660.937,438.975,661.271,439.55z"/>
		</g>
	</g>
	<g>
		<g>
			<path fill="#FFFFFF" d="M462.823,553.109c-0.084-0.142-0.168-0.283-0.251-0.426c-0.082-0.143-0.162-0.287-0.205-0.448
				c-0.034-0.126-0.108-0.234-0.166-0.349c-0.042-0.083-0.091-0.163-0.096-0.26c-0.001-0.021-0.006-0.043-0.015-0.062
				c-0.084-0.166-0.148-0.338-0.202-0.517c-0.05-0.163-0.094-0.328-0.142-0.492c-0.066-0.225-0.116-0.456-0.161-0.687
				c-0.064-0.328-0.111-0.658-0.142-0.991c-0.04-0.429-0.05-0.857-0.041-1.288c0.006-0.328,0.052-0.651,0.082-0.977
				c0.027-0.29,0.109-0.57,0.155-0.856c0.06-0.369,0.175-0.72,0.283-1.075c0.168-0.55,0.396-1.076,0.662-1.584
				c0.175-0.333,0.372-0.656,0.576-0.973c0.114-0.176,0.233-0.353,0.368-0.513c0.132-0.156,0.236-0.336,0.397-0.467
				c0.057-0.047,0.066-0.127,0.131-0.167c0.055-0.034,0.091-0.086,0.127-0.142c0.058-0.09,0.156-0.142,0.228-0.224
				c0.116-0.134,0.253-0.25,0.387-0.367c0.156-0.136,0.324-0.259,0.477-0.399c0.144-0.131,0.304-0.238,0.461-0.351
				c0.338-0.242,0.68-0.479,1.051-0.666c0.472-0.239,0.949-0.468,1.45-0.644c0.188-0.066,0.377-0.133,0.568-0.188
				c0.155-0.044,0.305-0.122,0.473-0.12c0.114-0.069,0.253-0.04,0.37-0.095c0.092-0.044,0.194-0.031,0.291-0.054
				c0.211-0.049,0.429-0.073,0.645-0.094c0.409-0.04,0.82-0.062,1.231-0.058c0.411,0.004,0.819,0.052,1.228,0.091
				c0.407,0.039,0.796,0.163,1.199,0.216c0.063,0.008,0.124,0.033,0.185,0.053c0.135,0.044,0.266,0.1,0.403,0.132
				c0.343,0.079,0.661,0.22,0.981,0.36c0.252,0.11,0.506,0.217,0.749,0.345c0.262,0.138,0.515,0.294,0.767,0.452
				c0.338,0.212,0.66,0.448,0.963,0.705c0.172,0.146,0.364,0.273,0.502,0.457c0.146,0.07,0.201,0.24,0.345,0.315
				c0.035,0.018,0.058,0.062,0.083,0.097c0.051,0.07,0.1,0.138,0.172,0.189c0.04,0.028,0.071,0.07,0.1,0.11
				c0.062,0.088,0.119,0.176,0.211,0.24c0.045,0.031,0.075,0.086,0.106,0.133c0.094,0.144,0.186,0.289,0.301,0.418
				c0.125,0.14,0.22,0.3,0.315,0.46c0.113,0.191,0.226,0.383,0.338,0.574c0.094,0.161,0.189,0.321,0.249,0.499
				c0.051,0.15,0.127,0.288,0.2,0.427c0.043,0.082,0.094,0.162,0.093,0.26c0,0.014,0.003,0.029,0.009,0.042
				c0.081,0.159,0.138,0.326,0.186,0.498c0.026,0.095,0.07,0.182,0.086,0.284c0.018,0.117,0.066,0.231,0.097,0.348
				c0.09,0.336,0.155,0.675,0.209,1.019c0.076,0.485,0.112,0.97,0.118,1.461c0.003,0.255-0.027,0.508-0.012,0.762
				c-0.074,0.512-0.106,1.031-0.238,1.535c-0.038,0.144-0.055,0.294-0.096,0.437c-0.067,0.234-0.148,0.463-0.217,0.696
				c-0.076,0.259-0.196,0.501-0.295,0.75c-0.235,0.589-0.558,1.133-0.894,1.668c-0.174,0.186-0.28,0.422-0.458,0.607
				c-0.066,0.069-0.119,0.156-0.184,0.23c-0.144,0.165-0.272,0.346-0.431,0.495c-0.119,0.112-0.212,0.253-0.356,0.338
				c-0.278,0.311-0.623,0.545-0.936,0.816c-0.011,0.009-0.022,0.018-0.034,0.026c-0.412,0.273-0.803,0.579-1.25,0.793
				c-0.335,0.16-0.658,0.345-1.009,0.475c-0.214,0.079-0.429,0.16-0.641,0.245c-0.138,0.055-0.286,0.086-0.428,0.133
				c-0.175,0.057-0.354,0.109-0.535,0.138c-0.215,0.035-0.422,0.117-0.644,0.113c-0.43,0.097-0.868,0.127-1.306,0.141
				c-0.418,0.013-0.838,0.02-1.255-0.042c-0.195-0.029-0.395-0.034-0.59-0.064c-0.238-0.037-0.473-0.097-0.711-0.134
				c-0.453-0.07-0.876-0.243-1.312-0.369c-0.231-0.066-0.446-0.184-0.671-0.274c-0.33-0.132-0.642-0.3-0.951-0.473
				c-0.382-0.213-0.744-0.459-1.096-0.719c-0.195-0.144-0.38-0.302-0.562-0.463c-0.177-0.155-0.339-0.326-0.511-0.485
				c-0.125-0.117-0.218-0.265-0.362-0.362c-0.028-0.019-0.048-0.053-0.068-0.082c-0.077-0.112-0.152-0.223-0.261-0.31
				c-0.059-0.047-0.096-0.124-0.137-0.191c-0.08-0.128-0.169-0.248-0.272-0.359c-0.048-0.052-0.092-0.11-0.129-0.17
				c-0.112-0.184-0.219-0.37-0.328-0.555C462.826,553.108,462.825,553.108,462.823,553.109z M469.592,548.972
				c0.194-0.157,0.371-0.327,0.572-0.46c0.406-0.267,0.816-0.532,1.273-0.71c0.188-0.073,0.354-0.193,0.541-0.26
				c0.34-0.122,0.646-0.305,0.955-0.486c0.167-0.098,0.332-0.197,0.465-0.342c0.033-0.036,0.076-0.067,0.12-0.09
				c0.169-0.089,0.258-0.266,0.414-0.369c0.204-0.278,0.423-0.545,0.54-0.88c0.167-0.478,0.171-0.947-0.036-1.412
				c-0.079-0.177-0.18-0.342-0.293-0.5c-0.183-0.255-0.422-0.443-0.705-0.57c-0.314-0.141-0.643-0.207-0.99-0.209
				c-0.3-0.002-0.59,0.03-0.872,0.133c-0.019,0.007-0.042,0.011-0.063,0.008c-0.069-0.008-0.125,0.026-0.182,0.055
				c-0.28,0.145-0.55,0.307-0.813,0.481c-0.042,0.028-0.089,0.051-0.11,0.099c-0.031,0.071-0.093,0.106-0.151,0.148
				c-0.029,0.021-0.064,0.039-0.083,0.067c-0.115,0.17-0.263,0.312-0.382,0.48c-0.203,0.287-0.371,0.593-0.487,0.92
				c-0.205,0.579-0.297,1.179-0.276,1.796c0.013,0.38,0.073,0.753,0.166,1.119c0.034,0.137,0.054,0.281,0.126,0.409
				c0.042,0.075,0.065,0.156,0.085,0.241C469.434,548.765,469.485,548.883,469.592,548.972z M470.784,548.902
				c-0.093,0.055-0.183,0.113-0.278,0.163c-0.104,0.054-0.18,0.14-0.259,0.222c-0.025,0.025-0.058,0.041-0.087,0.063
				c-0.102,0.077-0.226,0.124-0.296,0.242c-0.066,0.11-0.221,0.14-0.258,0.279c-0.162,0.18-0.281,0.387-0.386,0.606
				c-0.235,0.487-0.22,0.979-0.029,1.464c0.124,0.313,0.338,0.566,0.615,0.774c0.34,0.255,0.721,0.371,1.13,0.385
				c0.365,0.012,0.734-0.009,1.073-0.18c0.037-0.019,0.083-0.021,0.124-0.032c0.041-0.011,0.084-0.02,0.122-0.038
				c0.371-0.172,0.723-0.448,1.019-0.765c0.121-0.13,0.232-0.263,0.339-0.404c0.28-0.37,0.455-0.785,0.591-1.223
				c0.061-0.198,0.079-0.404,0.119-0.606c0.036-0.182,0.045-0.367,0.045-0.55c-0.001-0.364-0.035-0.725-0.109-1.083
				c-0.02-0.099-0.068-0.188-0.084-0.287c-0.034-0.213-0.132-0.405-0.199-0.607c-0.013-0.04-0.038-0.077-0.061-0.114
				c-0.034-0.055-0.06-0.058-0.12-0.014c-0.143,0.107-0.293,0.205-0.42,0.333c-0.05,0.05-0.112,0.089-0.173,0.125
				c-0.271,0.161-0.543,0.32-0.816,0.476c-0.074,0.042-0.153,0.079-0.235,0.104c-0.124,0.039-0.239,0.095-0.352,0.157
				c-0.12,0.065-0.236,0.14-0.363,0.184C471.203,548.658,470.992,548.775,470.784,548.902z"/>
		</g>
		<g>
			<path fill="#FFFFFF" d="M510.664,526.768c0.702,1.192,1.405,2.384,2.107,3.576c0.053,0.09,0.109,0.178,0.157,0.271
				c0.079,0.152,0.058,0.224-0.092,0.326c-0.076,0.051-0.156,0.095-0.235,0.142c-0.562,0.332-1.123,0.665-1.687,0.993
				c-0.537,0.313-0.433,0.341-0.746-0.178c-0.067-0.112-0.132-0.225-0.2-0.337c-0.02-0.033-0.041-0.07-0.071-0.092
				c-0.029-0.022-0.069-0.033-0.101,0.007c-0.052,0.063-0.073,0.138-0.084,0.216c-0.068,0.513-0.295,0.966-0.586,1.377
				c-0.144,0.204-0.287,0.435-0.531,0.558c-0.057,0.029-0.107,0.076-0.15,0.124c-0.276,0.314-0.612,0.52-1.025,0.601
				c-0.05,0.01-0.099,0.033-0.145,0.058c-0.399,0.213-0.834,0.241-1.274,0.273c-0.511,0.037-1.005-0.036-1.491-0.172
				c-0.423-0.118-0.823-0.298-1.192-0.539c-0.151-0.099-0.297-0.205-0.444-0.309c-0.22-0.157-0.43-0.328-0.598-0.543
				c-0.056-0.072-0.102-0.156-0.17-0.214c-0.4-0.341-0.597-0.818-0.853-1.255c-0.045-0.076-0.058-0.171-0.085-0.258
				c-0.027-0.087-0.043-0.18-0.083-0.26c-0.201-0.402-0.252-0.837-0.298-1.275c-0.077-0.736,0.025-1.45,0.289-2.135
				c0.163-0.421,0.402-0.804,0.665-1.177c0.191-0.271,0.497-0.416,0.667-0.697c0.389-0.229,0.731-0.553,1.207-0.611
				c0.038-0.005,0.076-0.021,0.111-0.036c0.491-0.221,1.004-0.223,1.523-0.156c0.206,0.027,0.413,0.061,0.606,0.143
				c0.087,0.037,0.174,0.052,0.266,0.044c0.048-0.004,0.065-0.049,0.051-0.082c-0.036-0.084-0.081-0.163-0.126-0.242
				c-0.103-0.181-0.21-0.361-0.313-0.542c-0.046-0.081-0.024-0.149,0.053-0.199c0.131-0.086,0.258-0.177,0.393-0.258
				c0.505-0.301,1.01-0.6,1.519-0.894c0.146-0.085,0.301-0.156,0.455-0.226c0.079-0.036,0.153-0.012,0.201,0.067
				c0.054,0.089,0.108,0.179,0.161,0.268C509.232,524.339,509.948,525.553,510.664,526.768z M504.13,530.588
				c0.204,0.377,0.506,0.651,0.864,0.872c0.554,0.342,1.135,0.48,1.771,0.263c0.049-0.017,0.101-0.031,0.152-0.034
				c0.163-0.012,0.295-0.096,0.433-0.169c0.25-0.132,0.37-0.401,0.598-0.556c0.291-0.471,0.47-0.968,0.427-1.537
				c-0.018-0.237-0.1-0.451-0.151-0.677c-0.047-0.209-0.128-0.402-0.256-0.566c-0.297-0.381-0.642-0.717-1.09-0.913
				c-0.698-0.305-1.387-0.28-2.05,0.115c-0.202,0.12-0.368,0.269-0.522,0.455c-0.143,0.173-0.267,0.347-0.348,0.551
				C503.659,529.151,503.744,529.883,504.13,530.588z"/>
		</g>
		<g>
			<path fill="#FFFFFF" d="M525.805,517.528c0.729,1.238,1.459,2.476,2.188,3.714c0.148,0.251,0.22,0.288-0.114,0.484
				c-0.676,0.397-1.351,0.795-2.026,1.193c-0.023,0.013-0.045,0.027-0.068,0.039c-0.178,0.092-0.214,0.085-0.316-0.078
				c-0.097-0.155-0.186-0.315-0.28-0.472c-0.033-0.056-0.065-0.114-0.105-0.165c-0.021-0.027-0.058-0.05-0.091-0.056
				c-0.053-0.009-0.062,0.043-0.064,0.078c-0.015,0.209-0.063,0.408-0.129,0.608c-0.128,0.383-0.317,0.722-0.579,1.034
				c-0.137,0.163-0.28,0.301-0.448,0.422c-0.032,0.023-0.067,0.045-0.089,0.076c-0.231,0.322-0.58,0.497-0.922,0.639
				c-0.366,0.152-0.745,0.322-1.15,0.338c-0.752,0.03-1.464-0.095-2.075-0.596c-0.174-0.143-0.336-0.283-0.455-0.473
				c-0.034-0.055-0.069-0.116-0.12-0.154c-0.239-0.178-0.376-0.432-0.522-0.678c-0.978-1.652-1.954-3.306-2.929-4.96
				c-0.18-0.305-0.177-0.311,0.111-0.482c0.651-0.387,1.305-0.77,1.958-1.155c0.045-0.027,0.089-0.054,0.136-0.077
				c0.141-0.069,0.219-0.054,0.304,0.067c0.06,0.085,0.11,0.177,0.163,0.267c0.677,1.148,1.352,2.296,2.03,3.443
				c0.16,0.27,0.325,0.536,0.496,0.799c0.205,0.314,0.602,0.612,0.946,0.777c0.151,0.073,0.314,0.105,0.452,0.079
				c0.429-0.081,0.884-0.133,1.152-0.557c0.076-0.12,0.211-0.178,0.285-0.313c0.201-0.365,0.22-0.747,0.146-1.137
				c-0.073-0.385-0.214-0.744-0.419-1.086c-0.739-1.232-1.462-2.474-2.19-3.713c-0.298-0.506-0.302-0.433,0.185-0.723
				c0.584-0.347,1.17-0.691,1.756-1.034c0.09-0.053,0.182-0.102,0.277-0.146c0.066-0.03,0.131-0.008,0.171,0.051
				c0.066,0.097,0.128,0.197,0.187,0.299C524.372,515.097,525.088,516.312,525.805,517.528z"/>
		</g>
		<g>
			<path fill="#FFFFFF" d="M489.664,540.546c0.337-0.199,0.675-0.397,1.012-0.597c0.156-0.092,0.214-0.128,0.357,0.054
				c0.229,0.291,0.539,0.438,0.914,0.381c0.376-0.057,0.737-0.163,1.048-0.4c0.18-0.136,0.304-0.321,0.436-0.494
				c0.102-0.133,0.119-0.305,0.045-0.482c-0.147-0.352-0.342-0.496-0.721-0.467c-0.246,0.019-0.492,0.056-0.733,0.109
				c-0.531,0.116-1.055,0.276-1.59,0.366c-0.505,0.085-1.003,0.229-1.524,0.218c-0.418-0.009-0.819-0.062-1.192-0.265
				c-0.241-0.131-0.472-0.271-0.617-0.517c-0.033-0.056-0.075-0.108-0.123-0.152c-0.139-0.126-0.231-0.278-0.276-0.461
				c-0.019-0.075-0.052-0.148-0.087-0.218c-0.372-0.753-0.249-1.485,0.121-2.189c0.141-0.269,0.3-0.544,0.56-0.73
				c0.104-0.227,0.316-0.338,0.508-0.471c0.053-0.037,0.104-0.079,0.148-0.127c0.417-0.453,0.984-0.675,1.501-0.972
				c0.21-0.025,0.407-0.089,0.586-0.2c0.173-0.107,0.39-0.038,0.562-0.147c0.604-0.069,1.204-0.116,1.79,0.127
				c0.44,0.182,0.825,0.429,1.122,0.804c0.073,0.092,0.152,0.179,0.222,0.274c0.12,0.164,0.106,0.224-0.075,0.342
				c-0.044,0.029-0.089,0.054-0.134,0.08c-0.596,0.351-1.192,0.703-1.789,1.054c-0.068,0.04-0.134,0.083-0.204,0.116
				c-0.112,0.053-0.197,0.034-0.278-0.06c-0.051-0.059-0.09-0.129-0.143-0.186c-0.154-0.163-0.336-0.285-0.565-0.295
				c-0.391-0.018-0.754,0.069-1.025,0.375c-0.127,0.144-0.291,0.254-0.355,0.457c-0.131,0.412,0.135,0.882,0.564,0.934
				c0.191,0.023,0.394,0.017,0.583-0.018c0.486-0.091,0.967-0.208,1.451-0.313c0.605-0.131,1.198-0.323,1.821-0.36
				c0.468-0.027,0.929-0.01,1.357,0.23c0.172,0.096,0.341,0.2,0.466,0.344c0.272,0.314,0.506,0.647,0.668,1.047
				c0.328,0.81,0.206,1.571-0.126,2.331c-0.108,0.247-0.41,0.644-0.617,0.833c-0.124,0.113-0.182,0.282-0.342,0.368
				c-0.137,0.073-0.283,0.156-0.381,0.271c-0.245,0.287-0.573,0.448-0.886,0.634c-0.146,0.086-0.296,0.162-0.463,0.206
				c-0.125,0.033-0.256,0.075-0.362,0.146c-0.28,0.186-0.609,0.236-0.919,0.309c-0.255,0.06-0.527,0.105-0.802,0.097
				c-0.378-0.011-0.754-0.05-1.101-0.189c-0.369-0.147-0.739-0.315-0.991-0.651c-0.243-0.127-0.367-0.358-0.505-0.577
				c-0.021-0.033-0.041-0.067-0.058-0.102c-0.052-0.105-0.04-0.159,0.069-0.227c0.211-0.13,0.426-0.255,0.639-0.381
				C489.371,540.718,489.518,540.632,489.664,540.546C489.664,540.546,489.664,540.546,489.664,540.546z"/>
		</g>
		<g>
			<path fill="#FFFFFF" d="M531.763,511.879c-0.304,0.179-0.607,0.358-0.911,0.536c-0.079,0.046-0.159,0.091-0.241,0.13
				c-0.066,0.031-0.128,0.014-0.172-0.045c-0.078-0.103-0.145-0.213-0.249-0.299c-0.466-0.382-1.094-0.251-1.5,0.105
				c-0.097,0.086-0.186,0.183-0.266,0.286c-0.283,0.363-0.257,0.88,0.277,1.129c0.045,0.021,0.1,0.028,0.15,0.029
				c0.234,0.005,0.467,0.009,0.699-0.042c0.482-0.105,0.967-0.199,1.446-0.322c0.337-0.087,0.676-0.188,1.018-0.243
				c0.491-0.079,0.986-0.149,1.491-0.051c0.421,0.082,0.769,0.281,1.091,0.543c0.049,0.04,0.082,0.101,0.116,0.157
				c0.124,0.2,0.247,0.4,0.367,0.602c0.388,0.653,0.391,1.346,0.217,2.059c-0.116,0.476-0.406,0.857-0.669,1.253
				c-0.251,0.183-0.393,0.483-0.686,0.623c-0.08,0.038-0.152,0.102-0.216,0.166c-0.396,0.394-0.869,0.659-1.393,0.841
				c-0.111,0.038-0.221,0.082-0.325,0.136c-0.625,0.324-1.299,0.413-1.988,0.381c-0.5-0.023-0.967-0.177-1.385-0.466
				c-0.38-0.263-0.699-0.581-0.921-0.989c-0.083-0.153-0.069-0.227,0.09-0.321c0.662-0.394,1.326-0.784,1.99-1.174
				c0.022-0.013,0.045-0.027,0.069-0.037c0.151-0.065,0.239-0.056,0.337,0.089c0.187,0.277,0.453,0.376,0.767,0.368
				c0.45-0.011,1.13-0.25,1.409-0.641c0.13-0.182,0.274-0.339,0.283-0.576c0.008-0.213-0.189-0.5-0.388-0.571
				c-0.191-0.068-0.386-0.077-0.577-0.041c-0.37,0.07-0.735,0.167-1.105,0.235c-0.407,0.074-0.802,0.207-1.217,0.247
				c-0.191,0.019-0.375,0.088-0.568,0.118c-0.431,0.067-0.895,0.091-1.3,0.036c-0.605-0.083-1.07-0.4-1.414-0.88
				c-0.423-0.589-0.632-1.245-0.528-1.984c0.063-0.449,0.256-0.839,0.508-1.202c0.153-0.221,0.335-0.422,0.512-0.625
				c0.059-0.067,0.142-0.114,0.215-0.167c0.125-0.092,0.26-0.165,0.342-0.312c0.041-0.073,0.135-0.12,0.212-0.167
				c0.266-0.165,0.534-0.328,0.804-0.487c0.191-0.113,0.38-0.228,0.61-0.252c0.063-0.006,0.126-0.037,0.182-0.067
				c0.314-0.168,0.651-0.226,1.002-0.267c0.231-0.028,0.456-0.045,0.689-0.043c0.568,0.005,1.073,0.191,1.521,0.51
				c0.303,0.216,0.586,0.474,0.747,0.829c0.049,0.108,0.04,0.155-0.064,0.228c-0.021,0.015-0.044,0.028-0.066,0.042
				C532.438,511.481,532.101,511.68,531.763,511.879C531.763,511.879,531.763,511.879,531.763,511.879z"/>
		</g>
		<g>
			<path fill="#FFFFFF" d="M512.299,525.622c-0.345-0.585-0.689-1.17-1.034-1.754c-0.046-0.079-0.091-0.159-0.142-0.234
				c-0.085-0.125-0.166-0.151-0.3-0.08c-0.207,0.111-0.407,0.235-0.611,0.352c-0.09,0.052-0.18,0.108-0.275,0.15
				c-0.135,0.059-0.218,0.033-0.297-0.093c-0.111-0.177-0.214-0.359-0.32-0.538c-0.179-0.304-0.361-0.606-0.535-0.912
				c-0.102-0.179-0.087-0.235,0.093-0.348c0.21-0.131,0.427-0.253,0.64-0.38c0.078-0.047,0.156-0.095,0.233-0.144
				c0.079-0.051,0.089-0.131,0.06-0.206c-0.038-0.096-0.092-0.187-0.144-0.277c-0.337-0.574-0.677-1.147-1.013-1.722
				c-0.195-0.334-0.193-0.337,0.139-0.534c0.607-0.359,1.214-0.716,1.822-1.074c0.067-0.04,0.135-0.081,0.206-0.112
				c0.066-0.029,0.135-0.011,0.178,0.042c0.065,0.081,0.121,0.17,0.174,0.259c0.333,0.562,0.664,1.124,0.995,1.687
				c0.257,0.437,0.239,0.375,0.616,0.157c0.35-0.203,0.697-0.411,1.047-0.615c0.09-0.052,0.182-0.102,0.277-0.144
				c0.065-0.028,0.128-0.012,0.171,0.05c0.023,0.032,0.045,0.064,0.065,0.098c0.279,0.472,0.558,0.944,0.834,1.418
				c0.093,0.16,0.08,0.228-0.055,0.333c-0.072,0.056-0.152,0.102-0.23,0.148c-0.337,0.2-0.675,0.398-1.012,0.597
				c-0.078,0.047-0.156,0.095-0.231,0.147c-0.074,0.051-0.091,0.126-0.059,0.206c0.024,0.06,0.057,0.117,0.091,0.173
				c0.531,0.9,1.065,1.797,1.591,2.699c0.134,0.229,0.308,0.417,0.5,0.597c0.109,0.103,0.238,0.164,0.37,0.209
				c0.131,0.044,0.264,0.051,0.416,0.008c0.423-0.119,0.804-0.303,1.141-0.582c0.03-0.025,0.062-0.048,0.095-0.068
				c0.099-0.062,0.174-0.052,0.237,0.033c0.031,0.042,0.057,0.088,0.083,0.133c0.279,0.472,0.557,0.945,0.835,1.417
				c0.033,0.056,0.066,0.113,0.092,0.172c0.048,0.108,0.038,0.171-0.061,0.235c-0.567,0.369-1.049,0.862-1.671,1.152
				c-0.141,0.066-0.27,0.154-0.432,0.174c-0.088,0.011-0.173,0.055-0.255,0.093c-0.852,0.399-1.647,0.314-2.404-0.25
				c-0.392-0.292-0.717-0.632-0.962-1.054c-0.315-0.542-0.635-1.08-0.954-1.62C512.302,525.62,512.3,525.621,512.299,525.622z"/>
		</g>
		<g>
			<path fill="#FFFFFF" d="M496.478,534.916c-0.338-0.573-0.676-1.147-1.014-1.72c-0.053-0.09-0.104-0.182-0.164-0.266
				c-0.07-0.098-0.162-0.122-0.274-0.067c-0.105,0.051-0.205,0.115-0.307,0.173c-0.181,0.104-0.358,0.216-0.543,0.312
				c-0.178,0.092-0.258,0.07-0.357-0.094c-0.282-0.47-0.561-0.942-0.835-1.416c-0.115-0.199-0.1-0.244,0.109-0.372
				c0.245-0.15,0.495-0.29,0.741-0.44c0.216-0.131,0.23-0.182,0.108-0.408c-0.093-0.172-0.197-0.338-0.296-0.507
				c-0.258-0.439-0.517-0.877-0.775-1.316c-0.053-0.09-0.102-0.182-0.144-0.277c-0.029-0.065-0.011-0.128,0.051-0.171
				c0.032-0.022,0.064-0.045,0.098-0.064c0.674-0.398,1.348-0.797,2.024-1.192c0.175-0.102,0.244-0.085,0.358,0.077
				c0.052,0.074,0.096,0.155,0.142,0.234c0.305,0.517,0.61,1.034,0.915,1.552c0.046,0.079,0.09,0.159,0.141,0.235
				c0.12,0.179,0.166,0.193,0.348,0.088c0.395-0.229,0.788-0.461,1.181-0.694c0.459-0.272,0.419-0.232,0.648,0.155
				c0.24,0.404,0.479,0.808,0.715,1.215c0.117,0.202,0.108,0.247-0.076,0.388c-0.082,0.063-0.173,0.116-0.263,0.169
				c-0.314,0.187-0.63,0.371-0.944,0.557c-0.078,0.047-0.156,0.095-0.231,0.147c-0.075,0.053-0.083,0.132-0.052,0.21
				c0.029,0.072,0.071,0.139,0.111,0.207c0.503,0.855,1.011,1.707,1.509,2.564c0.16,0.275,0.357,0.511,0.598,0.715
				c0.233,0.198,0.479,0.262,0.788,0.175c0.411-0.115,0.776-0.3,1.104-0.567c0.04-0.033,0.084-0.063,0.131-0.084
				c0.064-0.028,0.13-0.018,0.177,0.037c0.042,0.049,0.078,0.104,0.111,0.16c0.279,0.472,0.557,0.944,0.835,1.417
				c0.026,0.045,0.053,0.09,0.074,0.138c0.053,0.123,0.037,0.192-0.069,0.27c-0.073,0.054-0.153,0.1-0.227,0.153
				c-0.106,0.076-0.219,0.145-0.311,0.236c-0.368,0.364-0.833,0.579-1.272,0.834c-0.066,0.038-0.145,0.057-0.221,0.072
				c-0.117,0.023-0.223,0.07-0.329,0.12c-0.838,0.393-1.629,0.3-2.37-0.245c-0.38-0.279-0.707-0.61-0.946-1.023
				c-0.328-0.564-0.662-1.125-0.993-1.687C496.481,534.914,496.479,534.915,496.478,534.916z"/>
		</g>
	</g>
</g>
</svg>
