<?xml version="1.0" encoding="utf-8"?>
<!-- Generator: Adobe Illustrator 21.0.2, SVG Export Plug-In . SVG Version: 6.00 Build 0)  -->
<svg version="1.1" id="Layer_1" xmlns="http://www.w3.org/2000/svg" xmlns:xlink="http://www.w3.org/1999/xlink" x="0px" y="0px"
	 viewBox="0 0 841.89 595.28" enable-background="new 0 0 841.89 595.28" xml:space="preserve">
<g>
	<polygon fill="#8C8C8C" points="452.726,590.151 201.807,445.282 201.807,155.546 452.726,10.677 703.645,155.546 703.645,445.28 	
		"/>
</g>
<g enable-background="new    ">
	<path fill="#FFFFFF" d="M452.72,56.529L241.197,178.477v243.887L452.72,544.298l211.535-121.934V178.477L452.72,56.529z
		 M655.69,417.449L452.72,534.476L249.742,417.449V183.435L452.72,66.412l202.97,117.023V417.449z"/>
</g>
<g>
	<path fill="#FFFFFF" d="M532.919,73.134l-5.55-3.176l-2.191,3.828l5.354,3.064l-1.293,2.259l-5.354-3.064l-4.339,7.583
		l-2.404-1.376l9.116-15.929l7.954,4.553L532.919,73.134z"/>
	<path fill="#FFFFFF" d="M535.51,79.424l-5.751,10.048l-2.321-1.328l5.75-10.048L535.51,79.424z M535.229,73.717
		c0.232-0.406,0.58-0.672,1.046-0.799c0.465-0.126,0.904-0.071,1.317,0.165c0.418,0.239,0.691,0.592,0.817,1.057
		c0.13,0.458,0.076,0.897-0.164,1.317c-0.24,0.419-0.593,0.692-1.059,0.819c-0.457,0.13-0.896,0.076-1.315-0.165
		s-0.692-0.593-0.819-1.058C534.926,74.589,534.984,74.144,535.229,73.717z"/>
	<path fill="#FFFFFF" d="M538.449,81.106l2.32,1.329l-0.514,0.897c0.684-0.204,1.236-0.293,1.66-0.269
		c0.436,0.021,0.884,0.163,1.346,0.427c0.611,0.35,1.137,0.916,1.576,1.697l-2.279,1.517c-0.259-0.568-0.599-0.973-1.018-1.212
		c-1.267-0.725-2.446-0.13-3.54,1.782l-2.981,5.21l-2.321-1.329L538.449,81.106z"/>
	<path fill="#FFFFFF" d="M551.211,90.684l-2.504-0.077c0.051-0.792-0.146-1.316-0.594-1.572c-0.213-0.122-0.436-0.156-0.666-0.102
		c-0.233,0.054-0.412,0.192-0.538,0.412c-0.221,0.386,0.007,1.022,0.686,1.913c0.929,1.234,1.478,2.197,1.647,2.888
		c0.171,0.691,0.04,1.415-0.394,2.171c-0.555,0.97-1.377,1.577-2.466,1.821c-1.049,0.221-2.065,0.051-3.049-0.512
		c-1.686-0.965-2.407-2.469-2.169-4.514l2.506,0.215c0,0.639,0.035,1.065,0.104,1.278c0.133,0.423,0.396,0.747,0.788,0.971
		c0.784,0.449,1.381,0.316,1.79-0.399c0.236-0.413,0.154-0.971-0.247-1.675c-0.167-0.251-0.336-0.499-0.507-0.742
		c-0.171-0.244-0.343-0.493-0.517-0.748c-0.485-0.716-0.771-1.317-0.856-1.805c-0.11-0.621,0.022-1.261,0.4-1.921
		c0.5-0.874,1.213-1.425,2.138-1.653c0.938-0.221,1.845-0.082,2.719,0.419C550.769,87.787,551.345,88.998,551.211,90.684z"/>
	<path fill="#FFFFFF" d="M556.077,94.072l-4.511,7.881l-2.32-1.328l4.511-7.881l-0.991-0.567l1.24-2.167l0.99,0.567l2.108-3.683
		l2.32,1.328l-2.108,3.683l1.807,1.033l-1.24,2.167L556.077,94.072z"/>
	<path fill="#FFFFFF" d="M568.02,102.783l-3.701,6.469l-2.404-1.376l9.116-15.929l2.724,1.559c1.334,0.764,2.288,1.434,2.863,2.009
		c0.582,0.58,0.985,1.276,1.214,2.092c0.402,1.417,0.214,2.807-0.565,4.168c-0.835,1.458-1.984,2.334-3.449,2.629
		c-1.465,0.293-3.025-0.034-4.684-0.983L568.02,102.783z M569.295,100.555l0.897,0.514c2.207,1.263,3.798,1.045,4.771-0.653
		c0.94-1.644,0.272-3.117-2.004-4.419l-0.794-0.455L569.295,100.555z"/>
	<path fill="#FFFFFF" d="M578.631,104.104l2.32,1.329l-0.514,0.897c0.684-0.203,1.236-0.292,1.662-0.269
		c0.434,0.021,0.883,0.163,1.344,0.427c0.612,0.35,1.138,0.916,1.576,1.697l-2.279,1.517c-0.259-0.568-0.599-0.973-1.017-1.212
		c-1.267-0.725-2.447-0.13-3.541,1.782l-2.981,5.209l-2.321-1.328L578.631,104.104z"/>
	<path fill="#FFFFFF" d="M588.855,109.956l-5.751,10.048l-2.321-1.329l5.75-10.048L588.855,109.956z M588.574,104.248
		c0.232-0.406,0.58-0.672,1.046-0.798c0.465-0.126,0.904-0.072,1.316,0.165c0.419,0.24,0.691,0.593,0.818,1.057
		c0.13,0.458,0.076,0.897-0.164,1.317c-0.24,0.42-0.593,0.692-1.059,0.819c-0.457,0.131-0.896,0.076-1.315-0.164
		c-0.42-0.24-0.692-0.592-0.819-1.058C588.271,105.12,588.33,104.675,588.574,104.248z"/>
	<path fill="#FFFFFF" d="M590.627,121.406l5.973,3.418l-1.251,2.188l-10.574-6.052l11.021-4.156l-5.128-2.935l1.24-2.167
		l9.717,5.562L590.627,121.406z"/>
	<path fill="#FFFFFF" d="M609.239,129.018l-7.201-4.121c-0.41,0.86-0.519,1.671-0.323,2.43c0.199,0.753,0.67,1.342,1.413,1.768
		c0.577,0.331,1.134,0.466,1.669,0.408c0.529-0.062,1.244-0.329,2.144-0.8l1.334,2.215c-0.598,0.343-1.171,0.602-1.719,0.777
		c-0.547,0.175-1.081,0.271-1.603,0.288c-0.521,0.017-1.035-0.048-1.547-0.193c-0.509-0.146-1.025-0.368-1.549-0.667
		c-1.499-0.858-2.428-2.028-2.783-3.511c-0.354-1.489-0.071-3.036,0.846-4.638c0.909-1.589,2.086-2.622,3.528-3.103
		c1.442-0.461,2.897-0.273,4.361,0.565c1.479,0.846,2.379,1.987,2.699,3.421c0.317,1.423,0.001,2.964-0.947,4.621L609.239,129.018z
		 M607.941,125.755c0.387-1.423-0.041-2.489-1.279-3.198c-0.282-0.161-0.57-0.27-0.867-0.325c-0.297-0.056-0.593-0.061-0.889-0.016
		c-0.296,0.045-0.58,0.14-0.854,0.285c-0.275,0.145-0.533,0.339-0.774,0.584L607.941,125.755z"/>
</g>
<g>
	<g>
		<path fill="#FFFFFF" d="M563.027,317.042c0.11,0.941,0.251,1.879,0.464,2.811c0.131-1.073,0.245-2.151,0.346-3.233
			C563.589,316.802,563.317,316.943,563.027,317.042z"/>
	</g>
	<g>
		<path fill="#FFFFFF" d="M559.519,324.018c-0.518,3.161-1.174,6.278-1.953,9.346c1.119,0.057,2.249,0.272,3.274,0.671
			c0.969-3.837,1.75-7.746,2.323-11.724C562.432,323.56,560.894,324.218,559.519,324.018z"/>
	</g>
	<g>
		<path fill="#FFFFFF" d="M448.915,193.708c50.634,0,93.509,33.756,107.366,79.939h3.484c-13.96-48.05-58.357-83.28-110.85-83.28
			c-63.649,0-115.432,51.783-115.432,115.432c0,63.65,51.783,115.434,115.432,115.434c16.004,0,31.25-3.288,45.117-9.202h-9.378
			c-11.231,3.79-23.245,5.86-35.738,5.86c-61.808,0-112.092-50.284-112.092-112.093
			C336.823,243.992,387.107,193.708,448.915,193.708z"/>
	</g>
	<g>
		<path fill="#FFFFFF" d="M553.962,344.889c-8.911,23.873-25.747,43.904-47.281,56.911h4.527c0.496,0,0.928,0.098,1.309,0.254
			c20.597-13.656,36.59-33.722,45.073-57.349C556.558,345.392,555.031,345.548,553.962,344.889z"/>
	</g>
</g>
<g>
	<g>
		<path fill="#FFFFFF" d="M491.699,366.598c0.044-0.281,0.101-0.558,0.154-0.836c-0.254,0.032-0.51,0.03-0.763,0.001
			c-2.119,1.383-4.98-0.106-6.879-1.154c-4.255-2.349-8.374-5.962-11.106-9.982c-1.651-2.43-2.848-5.116-3.704-7.938
			c-1.298-0.324-2.553-0.756-3.692-1.352c-0.301-0.054-0.601-0.118-0.902-0.175c0.284,1.212,0.608,2.413,0.978,3.601
			c2.591,8.285,8.36,14.356,15.551,18.991c3.458,2.23,7.582,3.496,11.188,1.871C491.876,368.887,491.51,367.84,491.699,366.598z"/>
	</g>
	<g>
		<path fill="#FFFFFF" d="M467.456,332.703c-0.034-1.851-0.007-3.682,0.058-5.461c0.204-5.548,0.903-11.156,2.313-16.551h-4.291
			c-0.823,3.63-1.364,7.332-1.778,10.991c-0.449,3.969-0.634,8.015-0.469,12.044C464.46,333.224,465.897,332.901,467.456,332.703z"
			/>
	</g>
	<g>
		<path fill="#FFFFFF" d="M559.571,310.691c-1.772,6.547-8.03,10.446-14.82,13.118c-0.342,0.704-0.7,1.4-1.075,2.086
			c0.336,0.812,0.3,1.78-0.35,2.769c-0.026,0.039-0.049,0.078-0.074,0.116c9.794-3.441,18.715-8.6,20.591-18.089H559.571z"/>
	</g>
	<g>
		<path fill="#FFFFFF" d="M531.886,233.017c-3.694,14.757-17.668,24.112-29.213,32.605c-7.533,5.542-15.278,11.225-21.84,17.951
			c0.535,0.569,0.891,1.335,0.933,2.236c0.046,0.968-0.105,1.871-0.372,2.737c0.053,0.082,0.098,0.169,0.143,0.255
			c5.023-5.631,11.059-10.443,17.003-14.943c14.109-10.681,32.755-21.288,37.372-39.73
			C536.567,231.514,532.54,230.405,531.886,233.017z"/>
	</g>
</g>
<g>
	<g>
		<path fill="#FFFFFF" d="M527.084,243.932c-9.099,13.397-23.616,17.637-38.473,21.588c-12.818,3.409-26.39,7.994-33.485,20.11
			c-0.835,1.426-1.539,2.91-2.131,4.435c0.381,0.439,0.745,0.889,1.093,1.35c0.394,0.067,0.791,0.219,1.174,0.486
			c0.437,0.304,0.823,0.636,1.195,0.976c1.021-3.075,2.51-5.967,4.582-8.551c8.566-10.684,23.171-13.214,35.622-16.641
			c13.648-3.756,25.867-9.63,34.029-21.646C532.208,243.806,528.588,241.719,527.084,243.932z"/>
	</g>
	<g>
		<path fill="#FFFFFF" d="M465.665,343.483c-0.41,1.409-1.968,2.385-3.468,2.433c3.719,6.092,8.343,11.599,13.986,16.366
			c2.043,1.726,5.013-1.213,2.953-2.953C473.616,354.665,469.201,349.358,465.665,343.483z"/>
	</g>
</g>
<g>
	<g>
		<path fill="#FFFFFF" d="M380.882,218.999c25.845-3.797,24.1,32.272,22.049,48.784c-1.946,15.659-8.321,29.897-12.045,45.11
			c-2.084,8.513-2.827,17.228-1,25.86c1.594,7.535,5.158,14.442,8.966,21.068c4.558,7.93,9.21,15.69,12.253,24.364
			c2.942,8.386,6.105,19.876-1.195,26.917c-2.32,2.238,1.218,5.771,3.536,3.536c12.084-11.654,3.324-32.362-3.121-44.735
			c-4.101-7.872-9.263-15.219-12.727-23.417c-4.163-9.851-4.635-20.13-2.303-30.52c2.516-11.212,7.227-21.783,9.957-32.935
			c1.334-5.447,2.205-11.019,2.839-16.587c1.32-11.598,1.778-24.231-1.904-35.468c-4.062-12.397-13.634-18.705-26.633-16.795
			C376.381,214.644,377.729,219.462,380.882,218.999L380.882,218.999z"/>
	</g>
</g>
<g>
	<path fill="#FFFFFF" d="M415.918,401.732c-0.258-1.301-0.57-2.588-0.888-3.872c-0.1-1.198-0.274-2.394-0.481-3.586
		c-0.456-5.626-0.245-11.331-3.297-16.427c-0.49-0.82-1.398-1.092-2.214-0.939c-0.005-0.466-0.183-0.962-0.619-1.432
		c-0.682-0.739-1.344-1.496-1.987-2.269c-0.399-0.999-0.788-2.002-1.163-3.011c-0.733-2.484-1.409-4.989-2.197-7.427
		c-0.925-2.864-2.105-5.675-3.567-8.304c-0.679-1.223-1.574-2.308-2.457-3.385c-0.345-0.423-0.763-0.787-1.209-1.13
		c-0.444-1.622-1.269-3.013-2.573-3.696c-0.364-1.497-0.734-2.982-1.148-4.431c-0.974-3.406-1.891-6.82-2.875-10.206
		c0.975,1.158,3.233,0.656,3.567-0.882c3.151-14.532,6.888-29.244,6.775-44.206c1.129,1.086,3.542,0.601,3.6-1.452
		c0.101-3.557,0.235-7.113,0.417-10.665c1.228,0.469,2.916-0.149,2.925-1.864c0.029-6.039,0.324-12.083,0.292-18.107
		c0.729-6.123-0.217-12.58-1.759-18.363c-0.201-0.75-0.668-1.185-1.215-1.374c-0.168-1.942-0.381-3.882-0.657-5.823
		c-0.001-0.015-0.003-0.029-0.003-0.044c0,0-0.001,0-0.003,0c-0.026-0.185-0.044-0.37-0.072-0.555
		c-0.242-1.629-2.132-1.844-3.26-1.061c-0.165-0.358-0.331-0.715-0.503-1.069c0.184-0.546,0.19-1.162-0.067-1.71
		c-0.893-1.913-2.075-3.228-3.668-4.598c-0.265-0.23-0.566-0.368-0.874-0.443c-0.062-0.082-0.126-0.163-0.189-0.244
		c-0.001-0.001-0.001-0.002-0.002-0.003v0c-0.11-0.141-0.216-0.284-0.327-0.423c-0.611-0.767-1.468-0.812-2.189-0.469
		c-1.612-1.262-3.469-1.909-5.691-2.092c-0.299-0.025-0.565,0.018-0.802,0.104c-2.219-0.882-4.495-1.339-6.353-0.393
		c-0.331,0.168-0.622,0.357-0.879,0.563c-0.581-0.136-1.227,0.014-1.793,0.616c-2.694,2.86-5.188,5.877-7.592,8.968
		c-0.382,0.063-0.745,0.219-1.039,0.498c-3.809,3.63-6.794,7.934-9.47,12.436c-0.323,0.16-0.627,0.413-0.879,0.793
		c-1.536,2.315-3.041,4.653-4.492,7.019c-0.925,1.211-1.876,2.407-2.811,3.624c-3.053,3.981-4.86,9.195-6.458,13.904
		c-0.582,1.713-1.113,3.447-1.58,5.198c-0.305,0.958-0.598,1.921-0.864,2.896c-0.674,2.469-1.145,4.985-1.466,7.52
		c-0.887-1.445-3.273-0.833-3.699,0.707c-1.955,7.073-1.543,15.344-1.878,22.641c-0.382,8.281-0.039,16.547,1.599,24.686
		c1.59,7.895,4.829,15.175,9.406,21.55c1.585,6.886,5.351,13.33,9.38,19.013c2.301,3.244,4.645,6.461,7.272,9.451
		c1.23,1.4,2.64,2.558,4.088,3.662c0.42,0.555,0.85,1.097,1.286,1.632c-0.411,0.885-0.318,2.037,0.71,2.736
		c5.255,3.574,8.657,8.999,14.144,12.405c1.813,1.125,3.661,2.188,5.529,3.217c3.115,2.217,6.68,3.937,10.304,5.389
		c1.707,0.875,3.411,1.753,5.102,2.652c0.761,0.406,1.489,0.316,2.052-0.032c0.507,0.175,1.013,0.349,1.509,0.521
		c0.169,0.055,0.331,0.087,0.487,0.102c0.507,0.267,1.014,0.535,1.52,0.801c0.867,0.456,1.671,0.302,2.243-0.146
		c1.256,0.77,3.165,0.279,3.126-1.657c-0.035-1.729,0.278-3.404,0.576-5.083C415.491,403.833,416.161,402.961,415.918,401.732z
		 M390.743,378.136c-0.133-0.154-0.259-0.313-0.389-0.467c-0.212-0.412-0.421-0.812-0.627-1.204c0.024-0.033,0.042-0.07,0.063-0.104
		c0.53,0.835,1.06,1.671,1.595,2.503C391.165,378.618,390.949,378.375,390.743,378.136z"/>
</g>
<g>
	<path fill="#FFFFFF" d="M557.072,269.767c-0.156-0.57-0.467-0.954-0.844-1.194c-0.674-5.512-4.635-10.398-7.542-15.478
		c-1.078-2.077-2.168-4.146-2.751-6.436c-0.29-1.138-1.212-1.57-2.109-1.478c-0.949-1.526-1.903-3.051-2.836-4.589
		c-0.26-0.428-0.608-0.705-0.99-0.86c-0.604-1.208-1.222-2.404-1.793-3.595c-0.989-2.055-3.597-0.811-3.876,0.978
		c-0.381,0.042-0.74,0.174-1.025,0.408c0.835-2.804,1.046-5.802,0.379-8.96c-0.523-2.471-4.098-1.64-4.079,0.642
		c-0.941-3.146-2.564-6.204-3.926-8.935c-1.203-2.41-4.804-0.295-3.607,2.108c2.177,4.364,4.817,9.254,3.886,14.292
		c-1.098,5.938-8.839,8.323-13.896,9.226c-5.198,0.928-10.596,0.609-15.84,1.142c-0.128,0.013-0.253,0.034-0.381,0.048
		c-2.575-0.328-5.142-0.714-7.67-0.933c-7.154-0.621-13.785,0.677-20.148,3.99c-0.567,0.295-1.103,0.607-1.633,0.923
		c-0.318,0.082-0.633,0.241-0.926,0.52c-0.061,0.057-0.116,0.118-0.176,0.175c-6.001,3.916-9.562,9.207-11.633,15.235
		c-0.924,1.767-1.76,3.594-2.487,5.495c-2.689,7.034-3.439,14.988-3.327,22.716h0.135c-0.469,2.731,0.044,5.354,2.976,6.434
		c2.234,0.824,4.712-1.486,6.187-2.804c1.628-1.456,3.151-2.747,4.96-3.492c0.31-0.051,0.634-0.097,0.969-0.138h39.371
		c0.1,0,0.184,0.021,0.279,0.027v-14.17c-0.337-1.864,0.716-6.303,3.166-6.303l52.628-1.271
		C558.171,271.048,557.729,272.171,557.072,269.767z M482.069,268.343c-0.028-0.014-0.06-0.026-0.088-0.04
		c0.181-0.214,0.364-0.429,0.544-0.646c0.172-0.045,0.344-0.097,0.516-0.148c0.07,0.173,0.152,0.339,0.256,0.49
		C482.888,268.087,482.478,268.202,482.069,268.343z M515.317,259.029c-3.575,1.825-7.218,3.244-10.26,5.806
		c0.246-0.504,0.354-1.041,0.234-1.589c0.764-0.578,1.165-1.595,0.827-2.418c2.096-0.807,4.16-1.695,6.192-2.693
		c1.079-0.264,2.155-0.534,3.212-0.834c0.966-0.273,1.427-0.969,1.481-1.718c0.459-0.275,0.917-0.553,1.373-0.842
		c0.886-0.281,1.723-0.65,2.471-1.146C518.966,255.374,517.103,257.172,515.317,259.029z M532.462,241.432
		c-0.705,0.337-1.191,1.058-1.209,1.884c0.011,0.116-0.006,0.227-0.014,0.339c-1.413,1.444-2.872,2.864-4.357,4.272
		c2.417-2.512,4.448-5.347,5.73-8.448C532.539,240.129,532.484,240.779,532.462,241.432z M543.874,253.579
		c-0.225-0.209-0.469-0.399-0.711-0.591c0.095-0.145,0.169-0.304,0.226-0.473c0.19,0.326,0.379,0.653,0.566,0.981
		C543.926,253.522,543.901,253.552,543.874,253.579z"/>
</g>
<g>
	<path fill="#FFFFFF" d="M484.25,367.082c0.246,0.071,0.483,0.126,0.712,0.161c0.861,0.41,1.785,0.678,2.77,0.766
		c2.3,0.205,3.385-0.924,3.778-2.522c1.048-0.689,1.794-1.864,2.298-3.246c1.365,0.757,3.153,0.07,3.202-1.715
		c0.016-0.561-0.046-1.128-0.174-1.679c1.624-1.244,2.099-3.742,2.069-6.42C494.02,357.312,489.135,362.197,484.25,367.082z"/>
</g>
<g>
	<path fill="#FFFFFF" d="M469.357,356.436c0.294-1.362,0.618-2.717,0.954-4.069c-0.627,0.072-1.275-0.042-1.861-0.303
		c-0.692,0.5-1.543,0.759-2.356,0.706c0.979,1.444,2.05,2.816,3.211,4.112C469.32,356.736,469.324,356.591,469.357,356.436z"/>
</g>
<g>
	<path fill="#FFFFFF" d="M492.033,339.767c0.079-0.287,0.174-0.57,0.258-0.857c-0.187-0.021-0.374-0.041-0.56-0.062
		c-0.412,1.055-0.937,2.271-1.477,3.577C490.829,341.562,491.424,340.671,492.033,339.767z"/>
</g>
<g>
	<path fill="#FFFFFF" d="M481.677,355.603c-0.481-1.33-0.614-2.768-0.535-4.244c-1.115,0.899-2.602,0.886-3.74,0.215
		c-0.142,0.543-0.284,1.085-0.422,1.63c-0.389,1.67-0.777,3.341-1.18,5.009c-0.183,0.758-0.544,1.316-1,1.706
		c0.563,0.148,1.131,0.058,1.609-0.194c0.018,0.016,0.034,0.034,0.053,0.051c0.286,0.257,0.608,0.42,0.936,0.501
		c0.501,0.552,1.048,1.071,1.624,1.569c0.094,0.235,0.206,0.466,0.319,0.697l4.643-4.643
		C482.955,357.584,482.093,356.753,481.677,355.603z"/>
</g>
<g>
	<g>
		<path fill="#FFFFFF" d="M454.83,195.076c15.054,1.64,29.544,7.977,42.21,16.077c6.129,3.92,11.574,8.519,16.989,13.35
			c6.111,5.452,12.607,11.196,6.131,19.273c-1.994,2.487,1.522,6.047,3.536,3.536c4.789-5.973,6.03-12.356,1.274-18.797
			c-4.885-6.615-12.28-12.291-18.844-17.161c-14.859-11.024-32.791-19.261-51.294-21.277
			C451.636,189.728,451.661,194.73,454.83,195.076L454.83,195.076z"/>
	</g>
</g>
<g>
	<g>
		<path fill="#FFFFFF" d="M471.149,198.675c19.174,7.085,40.824,14.389,51.682,33.095c1.615,2.782,5.937,0.267,4.317-2.524
			c-11.568-19.931-34.208-27.832-54.67-35.393C469.456,192.737,468.152,197.568,471.149,198.675L471.149,198.675z"/>
	</g>
</g>
<g>
	<g>
		<path fill="#FFFFFF" d="M515.984,220.027c1.171,0.976,2.351,1.946,3.472,2.98c0.404,0.373,0.8,0.756,1.175,1.159
			c0.073,0.079,0.497,0.413,0.242,0.263c0.041,0.064,0.083,0.129,0.124,0.193c-0.345-0.814-0.084-1.613,0.783-2.397
			c-2.852,1.493-0.327,5.81,2.524,4.317c2.254-1.18,1.644-3.739,0.345-5.349c-1.45-1.797-3.366-3.233-5.129-4.703
			c-1.036-0.864-2.52-1.016-3.536,0C515.095,217.38,514.941,219.158,515.984,220.027L515.984,220.027z"/>
	</g>
</g>
<g>
	<g>
		<path fill="#FFFFFF" d="M438.677,190.697c0-14.756,0-29.512,0-44.267c0-3.217-5-3.223-5,0c0,14.756,0,29.512,0,44.267
			C433.677,193.914,438.677,193.919,438.677,190.697L438.677,190.697z"/>
	</g>
</g>
<g>
	<g>
		<path fill="#FFFFFF" d="M473.2,192.367c0-15.869,0-31.738,0-47.608c0-3.217-5-3.223-5,0c0,15.869,0,31.738,0,47.608
			C468.2,195.584,473.2,195.589,473.2,192.367L473.2,192.367z"/>
	</g>
</g>
<g>
	<g>
		<path fill="#FFFFFF" d="M438.084,147.084c5.893-5.707,11.785-11.415,17.678-17.122c2.316-2.243-1.222-5.776-3.536-3.536
			c-5.893,5.707-11.786,11.415-17.678,17.122C432.233,145.791,435.771,149.324,438.084,147.084L438.084,147.084z"/>
	</g>
</g>
<g>
	<g>
		<path fill="#FFFFFF" d="M472.19,141.878c-5.476-5.151-10.951-10.301-16.427-15.452c-2.343-2.203-5.885,1.325-3.536,3.536
			c5.476,5.15,10.951,10.301,16.427,15.452C470.997,147.617,474.539,144.088,472.19,141.878L472.19,141.878z"/>
	</g>
</g>
<g>
	<g>
		<path fill="#FFFFFF" d="M456.774,128.054c0-6.821,0-13.642,0-20.463c0-3.217-5-3.223-5,0c0,6.821,0,13.642,0,20.463
			C451.774,131.272,456.774,131.277,456.774,128.054L456.774,128.054z"/>
	</g>
</g>
<g>
	<path fill="#FFFFFF" d="M453.161,170.006c-6.322,0-11.466-5.144-11.466-11.466c0-6.322,5.144-11.465,11.466-11.465
		c6.321,0,11.465,5.144,11.465,11.465C464.626,164.862,459.482,170.006,453.161,170.006z M453.161,151.075
		c-4.116,0-7.466,3.349-7.466,7.465c0,4.117,3.35,7.466,7.466,7.466s7.465-3.349,7.465-7.466
		C460.626,154.424,457.277,151.075,453.161,151.075z"/>
</g>
<g>
	<g>
		<path fill="#FFFFFF" d="M454.413,101.739c3.217,0,3.223-5,0-5C451.195,96.739,451.19,101.739,454.413,101.739L454.413,101.739z"/>
	</g>
</g>
<g>
	<g>
		<path fill="#FFFFFF" d="M453.021,161.319c3.217,0,3.223-5,0-5C449.803,156.319,449.798,161.319,453.021,161.319L453.021,161.319z"
			/>
	</g>
</g>
<g>
	<g>
		<path fill="#FFFFFF" d="M451.862,162.083c1.34,1.34,2.68,2.68,4.019,4.02c0.954,0.955,2.581,0.955,3.536,0
			c0.958-0.958,0.957-2.577,0-3.536c-1.339-1.34-2.679-2.68-4.019-4.02c-0.955-0.955-2.581-0.955-3.536,0
			C450.904,159.505,450.905,161.125,451.862,162.083L451.862,162.083z"/>
	</g>
</g>
<g>
	<g>
		<path fill="#FFFFFF" d="M454.666,160.308c2.158-2.158,4.315-4.315,6.474-6.473c2.279-2.278-1.256-5.814-3.536-3.536
			c-2.158,2.157-4.316,4.315-6.473,6.473C448.853,159.05,452.387,162.587,454.666,160.308L454.666,160.308z"/>
	</g>
</g>
<g>
	<g>
		<path fill="#FFFFFF" d="M538.075,238.577c3.217,0,3.223-5,0-5C534.858,233.577,534.853,238.577,538.075,238.577L538.075,238.577z"
			/>
	</g>
</g>
<g>
	<g>
		<path fill="#FFFFFF" d="M540.333,240.909c10.711-4.863,21.421-9.727,32.132-14.591c2.926-1.329,0.387-5.639-2.524-4.317
			c-10.711,4.864-21.421,9.728-32.132,14.591C534.883,237.92,537.422,242.23,540.333,240.909L540.333,240.909z"/>
	</g>
</g>
<g>
	<g>
		<path fill="#FFFFFF" d="M550.46,260.762c9.445-6.655,18.89-13.31,28.335-19.965c2.61-1.839,0.115-6.176-2.524-4.317
			c-9.445,6.655-18.89,13.31-28.335,19.965C545.326,258.283,547.822,262.621,550.46,260.762L550.46,260.762z"/>
	</g>
</g>
<g>
	<g>
		<path fill="#FFFFFF" d="M565.741,218.932c4.769,8.577,9.538,17.155,14.305,25.733c1.563,2.813,5.883,0.294,4.317-2.524
			c-4.768-8.578-9.536-17.155-14.305-25.733C568.494,213.596,564.174,216.114,565.741,218.932L565.741,218.932z"/>
	</g>
</g>
<g>
	<g>
		<path fill="#FFFFFF" d="M568.959,219.464c2.433-1.353,4.867-2.705,7.3-4.058c2.813-1.564,0.294-5.884-2.524-4.317
			c-2.433,1.353-4.867,2.705-7.3,4.058C563.623,216.71,566.142,221.03,568.959,219.464L568.959,219.464z"/>
	</g>
</g>
<g>
	<g>
		<path fill="#FFFFFF" d="M573.934,213.9c4.937,8.882,9.875,17.763,14.813,26.645c1.564,2.813,5.884,0.294,4.317-2.524
			c-4.937-8.882-9.875-17.763-14.813-26.645C576.687,208.564,572.367,211.082,573.934,213.9L573.934,213.9z"/>
	</g>
</g>
<g>
	<g>
		<path fill="#FFFFFF" d="M583.894,246.758c2.677-1.488,5.353-2.976,8.03-4.464c2.813-1.564,0.294-5.884-2.524-4.317
			c-2.677,1.488-5.353,2.976-8.03,4.464C578.557,244.004,581.076,248.324,583.894,246.758L583.894,246.758z"/>
	</g>
</g>
<g>
	<g>
		<path fill="#FFFFFF" d="M584.049,222.543c3.771-2.097,7.543-4.194,11.315-6.291c2.813-1.564,0.294-5.884-2.524-4.317
			c-3.772,2.097-7.543,4.193-11.315,6.291C578.713,219.789,581.232,224.109,584.049,222.543L584.049,222.543z"/>
	</g>
</g>
<g>
	<g>
		<path fill="#FFFFFF" d="M589.731,232.763c3.893-2.165,7.786-4.329,11.68-6.493c2.813-1.564,0.294-5.884-2.524-4.317
			c-3.893,2.164-7.787,4.329-11.68,6.493C584.394,230.009,586.913,234.329,589.731,232.763L589.731,232.763z"/>
	</g>
</g>
<g>
	<g>
		<path fill="#FFFFFF" d="M592.429,211.501c2.807,5.049,5.614,10.098,8.421,15.148c1.564,2.813,5.884,0.294,4.317-2.524
			c-2.807-5.049-5.614-10.098-8.421-15.148C595.183,206.165,590.862,208.684,592.429,211.501L592.429,211.501z"/>
	</g>
</g>
<g>
	<g>
		<path fill="#FFFFFF" d="M601.023,219.556c3.285-1.826,6.571-3.652,9.856-5.479c2.813-1.564,0.294-5.884-2.524-4.317
			c-3.285,1.826-6.57,3.653-9.856,5.479C595.686,216.802,598.205,221.122,601.023,219.556L601.023,219.556z"/>
	</g>
</g>
<g>
	<g>
		<path fill="#FFFFFF" d="M616.693,209.529c3.217,0,3.223-5,0-5C613.476,204.529,613.471,209.529,616.693,209.529L616.693,209.529z"
			/>
	</g>
</g>
<g>
	<g>
		<path fill="#FFFFFF" d="M562.118,226.844c-2.197,7.699-4.393,15.397-6.592,23.095c-0.885,3.1,3.938,4.423,4.821,1.329
			c2.198-7.698,4.395-15.397,6.592-23.095C567.824,225.073,563.001,223.75,562.118,226.844L562.118,226.844z"/>
	</g>
</g>
<g>
	<g>
		<path fill="#FFFFFF" d="M547.898,235.068c-1.838,6.436-3.674,12.873-5.511,19.31c-0.885,3.1,3.939,4.423,4.821,1.329
			c1.837-6.437,3.674-12.873,5.511-19.31C553.604,233.298,548.781,231.975,547.898,235.068L547.898,235.068z"/>
	</g>
</g>
<g>
	<g>
		<path fill="#FFFFFF" d="M549.887,238.009c6.563,1.873,13.125,3.746,19.687,5.619c3.1,0.885,4.423-3.938,1.329-4.821
			c-6.562-1.873-13.125-3.746-19.687-5.619C548.116,232.303,546.793,237.126,549.887,238.009L549.887,238.009z"/>
	</g>
</g>
<g>
	<g>
		<path fill="#FFFFFF" d="M559.049,248.423c-6.752-1.928-13.504-3.855-20.256-5.782c-3.1-0.885-4.423,3.938-1.329,4.821
			c6.752,1.927,13.504,3.854,20.256,5.782C560.819,254.129,562.142,249.306,559.049,248.423L559.049,248.423z"/>
	</g>
</g>
<g>
	<path fill="#FFFFFF" d="M542.105,244.628c-1.539-3.278-2.376-6.529-4.679-9.406c-2.465-3.081-5.213-5.916-7.717-8.965
		c-4.018-4.891-8.302-9.693-13.848-12.787c-0.221-0.462-0.645-0.835-1.314-0.983c-0.418-0.093-0.836-0.185-1.253-0.278
		c-2.202-0.489-3.862,2.797-1.61,3.816c5.894,2.667,10.175,7.33,14.262,12.207c2.165,2.582,4.38,5.102,6.614,7.625
		c2.135,2.413,3.339,5.006,4.54,7.742c-0.224,0.943,0.13,2.044,1.077,2.464c0.014,0.039,0.024,0.077,0.044,0.116
		c0.092,0.186,0.185,0.371,0.277,0.557C539.711,249.161,543.236,247.038,542.105,244.628z"/>
</g>
<g>
	<g>
		<g>
			<path fill="#FFFFFF" d="M345.035,254.655c-2.822-1.889-5.644-3.779-8.466-5.67c-2.681-1.796-5.186,2.533-2.524,4.317
				c2.822,1.89,5.643,3.78,8.466,5.669C345.193,260.768,347.699,256.439,345.035,254.655L345.035,254.655z"/>
		</g>
	</g>
	<g>
		<g>
			<path fill="#FFFFFF" d="M363.516,226.29c-2.986-2-5.972-4.001-8.958-6c-2.681-1.795-5.187,2.534-2.524,4.317
				c2.986,2,5.972,4,8.958,6C363.673,232.403,366.179,228.074,363.516,226.29L363.516,226.29z"/>
		</g>
	</g>
	<g>
		<path fill="#FFFFFF" d="M324.835,256.37c-2.688,0-5.194-0.689-7.36-2.14c-4.397-2.945-6.563-8.424-6.097-15.428
			c0.426-6.407,3.035-13.48,7.347-19.917c4.31-6.436,9.858-11.541,15.621-14.373c6.299-3.096,12.189-3.179,16.587-0.234l0,0
			c4.397,2.945,6.563,8.424,6.098,15.429c-0.426,6.408-3.034,13.481-7.345,19.917C342.646,250.133,332.919,256.369,324.835,256.37z
			 M343.574,208.13c-2.491,0-4.988,0.983-6.583,1.767c-4.832,2.375-9.549,6.752-13.282,12.327
			c-3.734,5.574-5.988,11.603-6.345,16.975c-0.184,2.766,0.02,7.749,3.449,10.045c5.69,3.809,16.628-2.124,23.887-12.959
			c3.733-5.574,5.986-11.603,6.343-16.975c0.184-2.766-0.021-7.749-3.45-10.046l0,0C346.362,208.439,344.969,208.13,343.574,208.13z
			"/>
	</g>
	<g>
		<g>
			<path fill="#FFFFFF" d="M319.034,229.043c1.194-3.627,0.752-8.613-0.663-12.155c-1.18-2.951-6.018-1.664-4.821,1.329
				c1.111,2.78,1.603,6.643,0.663,9.497C313.204,230.777,318.031,232.091,319.034,229.043L319.034,229.043z"/>
		</g>
	</g>
	<g>
		<g>
			<path fill="#FFFFFF" d="M324.393,212.022c-2.509,0.542-5.084,0.777-7.65,0.7c-3.219-0.097-3.216,4.903,0,5
				c3.001,0.09,6.047-0.245,8.979-0.878C328.866,216.165,327.535,211.344,324.393,212.022L324.393,212.022z"/>
		</g>
	</g>
	<g>
		<g>
			<path fill="#FFFFFF" d="M314.522,218.018c0.311,0.084,0.217,0.034-0.281-0.151c-0.299-0.299-0.598-0.598-0.897-0.897
				c0.005,0.009,0.011,0.017,0.016,0.026c0-0.841,0-1.682,0-2.524c-0.005,0.007-0.01,0.015-0.015,0.022
				c0.299-0.299,0.598-0.598,0.897-0.897c0.658-0.34,0.652-0.245,0.399-0.192c-1.283,0.266-2.143,1.848-1.746,3.075
				c0.439,1.357,1.701,2.031,3.075,1.746c0.737-0.153,1.3-0.611,1.707-1.231c0.475-0.723,0.449-1.799,0-2.524
				c-0.43-0.695-1.048-1.089-1.826-1.276c-1.269-0.305-2.769,0.4-3.075,1.746C312.483,216.228,313.162,217.691,314.522,218.018
				L314.522,218.018z"/>
		</g>
	</g>
	<g>
		<g>
			<path fill="#FFFFFF" d="M316.18,213.268c-1.672-1.12-3.344-2.24-5.016-3.36c-1.122-0.752-2.768-0.218-3.42,0.897
				c-0.718,1.228-0.228,2.667,0.897,3.42c1.672,1.12,3.344,2.239,5.016,3.36c1.122,0.752,2.769,0.218,3.42-0.897
				C317.795,215.461,317.304,214.022,316.18,213.268L316.18,213.268z"/>
		</g>
	</g>
	<g>
		<g>
			<path fill="#FFFFFF" d="M305.392,211.806c3.217,0,3.223-5,0-5C302.175,206.806,302.17,211.806,305.392,211.806L305.392,211.806z"
				/>
		</g>
	</g>
	<g>
		<g>
			<path fill="#FFFFFF" d="M318.507,220.446c-0.428,0.045-0.516,0.058-0.264,0.038c0.27,0.004,0.152-0.018-0.354-0.067
				c0.028,0.008,0.057,0.016,0.085,0.023c-0.509-0.137-0.907-0.443-1.193-0.919c-0.315-0.561-0.202-0.563-0.14-0.284
				c-0.183-0.813-0.059-0.414-0.075-0.123c-0.069,1.241,1.004,2.299,2.168,2.455c1.19,0.16,2.445-0.576,2.743-1.791
				c0.122-0.496,0.278-0.963,0.297-1.483c0.02-0.545-0.124-1.114-0.263-1.641c-1.025,1.025-2.05,2.05-3.075,3.075
				c0.813,0.123,1.52,0.233,2.301-0.097c1.094-0.462,1.737-1.554,1.578-2.736c-0.062-0.461-0.215-0.909-0.474-1.302
				c-0.163-0.248,0.191,0.45,0.167,0.407c-0.111-0.202-0.152-0.46-0.269-0.661c-0.293-0.505-0.909-1.06-1.506-1.16
				c-0.651-0.109-1.342-0.125-1.926,0.252c-0.511,0.329-1.052,0.866-1.149,1.494c-0.136,0.879,0.044,1.598,0.275,2.425
				c0.16,0.574,0.294,1.207,0.583,1.733c0.512,0.93,1.797,1.481,2.823,1.149c0.412-0.133,0.784-0.35,1.103-0.643
				c0.404-0.371,0.806-1.204,0.732-1.768c-0.074,0.531-0.08,0.634-0.018,0.307c0.011-0.052,0.022-0.105,0.033-0.157
				c0.028-0.134,0.056-0.267,0.083-0.401c0.035-0.174,0.07-0.347,0.099-0.522c0.195-1.191,0.008-2.374-1.157-3.055
				c-1.142-0.668-2.248-0.28-3.173,0.465c-0.034,0.027-0.074,0.053-0.103,0.085c-0.24,0.258,0.547-0.38,0.328-0.253
				c-0.132,0.077-0.249,0.163-0.388,0.229c-1.185,0.561-1.585,2.354-0.897,3.42c0.786,1.219,2.152,1.497,3.42,0.897
				c0.356-0.168,0.663-0.43,0.967-0.673c0.054-0.043,0.107-0.086,0.161-0.13c-0.36,0.297-0.778,0.658-1.581,0.616
				c-0.421-0.114-0.841-0.228-1.262-0.341c0.004,0.002,0.007,0.004,0.011,0.006c-0.299-0.299-0.598-0.598-0.897-0.897
				c0.007,0.01-0.325-1.305-0.324-1.175c0.002,0.245,0.125-0.703,0.07-0.491c-0.032,0.123-0.046,0.254-0.071,0.379
				c-0.102,0.513-0.365,1.185-0.299,1.692c1.553-0.421,3.106-0.841,4.659-1.262c-0.015-0.028,0.302,0.842,0.218,0.493
				c-0.02-0.083-0.049-0.166-0.074-0.248c-0.068-0.231-0.133-0.462-0.198-0.694c-0.064-0.228-0.127-0.457-0.188-0.686
				c-0.202-0.77,0.111-0.616-0.112,0.83c-1.025,0.582-2.05,1.164-3.075,1.746c0.001,0,0.003,0,0.004,0.001
				c-0.498-0.383-0.996-0.766-1.494-1.149c-0.222-0.537-0.294-0.7-0.216-0.49c0.078,0.214,0.166,0.423,0.264,0.629
				c0.026,0.053,0.051,0.105,0.078,0.157c0.026,0.049,0.054,0.1,0.083,0.147c0.01,0.018,0.019,0.036,0.029,0.054
				c-0.298-0.525-0.371-1.097-0.219-1.715c0.214-0.368,0.429-0.735,0.643-1.103c1.635-0.453,2.122-0.674,1.461-0.663
				c-0.238-0.019-0.162-0.006,0.229,0.039c-0.912-0.138-1.745-0.045-2.432,0.643c-0.635,0.635-0.872,1.567-0.643,2.432
				c0.05,0.189,0.092,0.38,0.14,0.569c0.106,0.425-0.045-0.748-0.055-0.258c0.017-0.803,0.089-0.605,0.006-0.307
				c-0.043,0.153-0.086,0.306-0.124,0.461c1.637,0.222,3.274,0.443,4.911,0.665c0.055-0.993-0.227-2.026-0.956-2.737
				c-0.953-0.929-2.201-0.971-3.433-0.754c-1.291,0.227-2.135,1.875-1.746,3.075C315.881,220.089,317.123,220.69,318.507,220.446
				L318.507,220.446z"/>
		</g>
	</g>
	<g>
		<g>
			<path fill="#FFFFFF" d="M313.197,237.08c8.603,7.63,21.127,8.894,31.962,6.15c3.117-0.789,1.796-5.613-1.329-4.821
				c-9,2.279-19.887,1.532-27.098-4.864C314.332,231.415,310.783,234.939,313.197,237.08L313.197,237.08z"/>
		</g>
	</g>
	<g>
		<g>
			<path fill="#FFFFFF" d="M316.995,222.885c10.177,8.812,25.036,7.788,37.23,4.486c3.102-0.84,1.786-5.665-1.329-4.821
				c-10.265,2.779-23.671,4.328-32.365-3.2C318.108,217.252,314.557,220.774,316.995,222.885L316.995,222.885z"/>
		</g>
	</g>
	<g>
		<g>
			<path fill="#FFFFFF" d="M328.885,213.254c8.06,3.641,15.874,3.698,24.498,2.393c3.171-0.48,1.824-5.299-1.329-4.821
				c-7.136,1.08-13.941,1.139-20.646-1.889C328.499,207.622,325.954,211.93,328.885,213.254L328.885,213.254z"/>
		</g>
	</g>
</g>
<g>
	<path fill="#FFFFFF" d="M329.648,368.85c-7.066,0-13.745-4.288-16.434-11.268c-3.484-9.052,1.043-19.25,10.093-22.733l1.438,3.732
		c-6.992,2.691-10.49,10.571-7.798,17.563c2.693,6.992,10.572,10.488,17.564,7.797l1.438,3.732
		C333.878,368.472,331.746,368.85,329.648,368.85z"/>
</g>
<g>
	<path fill="#FFFFFF" d="M320.001,339.385c-5.29,0-10.289-3.21-12.299-8.433c-2.608-6.774,0.781-14.407,7.554-17.016l1.438,3.732
		c-4.715,1.815-7.074,7.13-5.258,11.846c1.814,4.714,7.127,7.069,11.844,5.258l1.437,3.732
		C323.166,339.102,321.571,339.385,320.001,339.385z"/>
</g>
<g>
	<path fill="#FFFFFF" d="M339.237,389.398c-1.815,0-3.627-0.381-5.336-1.14c-3.214-1.427-5.679-4.021-6.943-7.302
		c-2.607-6.773,0.781-14.406,7.554-17.016l1.438,3.732c-4.715,1.816-7.074,7.131-5.259,11.846c0.88,2.285,2.596,4.09,4.833,5.083
		c2.238,0.994,4.727,1.057,7.011,0.177l1.438,3.732C342.436,389.104,340.835,389.398,339.237,389.398z"/>
</g>
<g>
	<g>
		<path fill="#FFFFFF" d="M344.816,386.284c-9.095-23.62-18.189-47.239-27.285-70.859c-0.858-2.229-4.485-1.261-3.616,0.997
			c9.095,23.619,18.19,47.239,27.285,70.859C342.059,389.51,345.686,388.542,344.816,386.284L344.816,386.284z"/>
	</g>
</g>
<g>
	<g>
		<path fill="#FFFFFF" d="M335.6,368.445c6.278-2.419,12.557-4.836,18.836-7.254c2.229-0.858,1.261-4.485-0.997-3.616
			c-6.279,2.417-12.558,4.835-18.836,7.254C332.375,365.688,333.343,369.315,335.6,368.445L335.6,368.445z"/>
	</g>
</g>
<g>
	<g>
		<path fill="#FFFFFF" d="M324.095,338.567c6.279-2.417,12.558-4.836,18.837-7.254c2.229-0.858,1.261-4.485-0.997-3.616
			c-6.279,2.418-12.558,4.836-18.837,7.254C320.869,335.809,321.837,339.436,324.095,338.567L324.095,338.567z"/>
	</g>
</g>
<g>
	<g>
		<path fill="#FFFFFF" d="M315.84,317.132c6.28-2.417,12.559-4.835,18.838-7.253c2.229-0.858,1.261-4.485-0.997-3.616
			c-6.279,2.418-12.558,4.836-18.838,7.253C312.615,314.374,313.583,318.001,315.84,317.132L315.84,317.132z"/>
	</g>
</g>
<g>
	<g>
		<path fill="#FFFFFF" d="M326.225,330.368c6.279-2.418,12.558-4.836,18.837-7.254c1.486-0.572,0.84-2.99-0.665-2.411
			c-6.279,2.418-12.558,4.836-18.837,7.254C324.075,328.529,324.72,330.947,326.225,330.368L326.225,330.368z"/>
	</g>
</g>
<g>
	<g>
		<path fill="#FFFFFF" d="M324.174,325.04c6.28-2.417,12.559-4.835,18.838-7.253c1.486-0.572,0.84-2.99-0.665-2.411
			c-6.279,2.418-12.558,4.836-18.838,7.253C322.023,323.202,322.668,325.62,324.174,325.04L324.174,325.04z"/>
	</g>
</g>
<g>
	<g>
		<path fill="#FFFFFF" d="M322.123,319.713c6.279-2.417,12.559-4.834,18.837-7.253c1.486-0.573,0.84-2.991-0.665-2.411
			c-6.278,2.419-12.558,4.836-18.837,7.253C319.972,317.875,320.617,320.293,322.123,319.713L322.123,319.713z"/>
	</g>
</g>
<g>
	<g>
		<path fill="#FFFFFF" d="M345.847,381.322c6.279-2.417,12.558-4.834,18.837-7.252c1.486-0.572,0.84-2.99-0.665-2.411
			c-6.279,2.418-12.558,4.835-18.837,7.252C343.696,379.484,344.341,381.902,345.847,381.322L345.847,381.322z"/>
	</g>
</g>
<g>
	<g>
		<path fill="#FFFFFF" d="M343.796,375.997c6.278-2.419,12.557-4.836,18.836-7.254c1.486-0.572,0.84-2.99-0.665-2.411
			c-6.279,2.418-12.558,4.835-18.836,7.254C341.645,374.159,342.291,376.577,343.796,375.997L343.796,375.997z"/>
	</g>
</g>
<g>
	<g>
		<path fill="#FFFFFF" d="M341.744,370.67c6.279-2.418,12.558-4.835,18.837-7.254c1.486-0.572,0.84-2.99-0.665-2.411
			c-6.279,2.418-12.558,4.836-18.837,7.254C339.594,368.832,340.239,371.25,341.744,370.67L341.744,370.67z"/>
	</g>
</g>
<g>
	<g>
		<path fill="#FFFFFF" d="M337.105,358.622c6.279-2.418,12.558-4.836,18.837-7.253c1.486-0.572,0.841-2.99-0.665-2.411
			c-6.279,2.417-12.558,4.835-18.837,7.253C334.955,356.783,335.6,359.202,337.105,358.622L337.105,358.622z"/>
	</g>
</g>
<g>
	<g>
		<path fill="#FFFFFF" d="M335.054,353.296c6.279-2.418,12.558-4.836,18.837-7.254c1.486-0.572,0.841-2.99-0.665-2.411
			c-6.279,2.418-12.558,4.836-18.837,7.254C332.903,351.457,333.549,353.875,335.054,353.296L335.054,353.296z"/>
	</g>
</g>
<g>
	<g>
		<path fill="#FFFFFF" d="M333.003,347.969c6.279-2.418,12.558-4.836,18.837-7.253c1.486-0.572,0.841-2.99-0.665-2.411
			c-6.279,2.417-12.558,4.834-18.837,7.253C330.853,346.13,331.498,348.548,333.003,347.969L333.003,347.969z"/>
	</g>
</g>
<g>
	<g>
		<path fill="#FFFFFF" d="M331.037,342.572c6.279-2.418,12.558-4.835,18.837-7.253c1.486-0.572,0.841-2.99-0.665-2.411
			c-6.279,2.417-12.558,4.835-18.837,7.253C328.886,340.734,329.532,343.152,331.037,342.572L331.037,342.572z"/>
	</g>
</g>
<g>
	<g>
		<path fill="#FFFFFF" d="M343.849,388.827c6.279-2.417,12.558-4.836,18.837-7.254c2.229-0.858,1.261-4.485-0.997-3.616
			c-6.279,2.418-12.558,4.836-18.837,7.254C340.623,386.069,341.592,389.696,343.849,388.827L343.849,388.827z"/>
	</g>
</g>
<g>
	<g>
		<path fill="#FFFFFF" d="M528.135,393.071c20.47-9.209,40.921-18.461,61.409-27.629c-0.841-1.439-1.682-2.878-2.524-4.317
			c-0.094,0.042-0.188,0.084-0.282,0.127c-2.93,1.317-0.39,5.628,2.524,4.317c0.094-0.042,0.188-0.084,0.282-0.127
			c2.932-1.318,0.39-5.621-2.524-4.317c-20.488,9.168-40.939,18.42-61.409,27.629C522.682,390.071,525.221,394.382,528.135,393.071
			L528.135,393.071z"/>
	</g>
</g>
<g>
	<g>
		<path fill="#FFFFFF" d="M431.241,419.549c0,16.078,0,32.157,0,48.235c0,3.217,5,3.223,5,0c0-16.078,0-32.157,0-48.235
			C436.241,416.331,431.241,416.326,431.241,419.549L431.241,419.549z"/>
	</g>
</g>
<g>
	<g>
		<path fill="#FFFFFF" d="M434.785,470.91c10.44,0,20.881,0,31.321,0c3.217,0,3.223-5,0-5c-10.44,0-20.881,0-31.321,0
			C431.568,465.91,431.562,470.91,434.785,470.91L434.785,470.91z"/>
	</g>
</g>
<g>
	<g>
		<path fill="#FFFFFF" d="M469.232,468.619c0-16.287,0-32.574,0-48.861c0-3.217-5-3.223-5,0c0,16.287,0,32.574,0,48.861
			C464.232,471.836,469.232,471.842,469.232,468.619L469.232,468.619z"/>
	</g>
</g>
<g>
	<g>
		<path fill="#FFFFFF" d="M435.626,470.707c0,2.784,0,5.568,0,8.352c0,3.217,5,3.223,5,0c0-2.784,0-5.568,0-8.352
			C440.626,467.49,435.626,467.484,435.626,470.707L435.626,470.707z"/>
	</g>
</g>
<g>
	<g>
		<path fill="#FFFFFF" d="M437.5,483.021c7.935,0,15.869,0,23.804,0c3.217,0,3.223-5,0-5c-7.935,0-15.869,0-23.804,0
			C434.283,478.021,434.277,483.021,437.5,483.021L437.5,483.021z"/>
	</g>
</g>
<g>
	<g>
		<path fill="#FFFFFF" d="M464.43,480.312c0-3.271,0-6.543,0-9.814c0-3.217-5-3.223-5,0c0,3.271,0,6.543,0,9.814
			C459.43,483.529,464.43,483.534,464.43,480.312L464.43,480.312z"/>
	</g>
</g>
<g>
	<g>
		<path fill="#FFFFFF" d="M448.363,483.026c0,1.183,0,2.367,0,3.55c0,1.308,1.15,2.56,2.5,2.5c1.354-0.061,2.5-1.098,2.5-2.5
			c0-1.183,0-2.367,0-3.55c0-1.308-1.15-2.56-2.5-2.5C449.508,480.586,448.363,481.624,448.363,483.026L448.363,483.026z"/>
	</g>
</g>
<g>
	<g>
		<path fill="#FFFFFF" d="M443.764,460.887c3.217,0,3.223-5,0-5C440.547,455.887,440.541,460.887,443.764,460.887L443.764,460.887z"
			/>
	</g>
</g>
<g>
	<g>
		<path fill="#FFFFFF" d="M457.336,461.305c3.217,0,3.223-5,0-5C454.119,456.305,454.114,461.305,457.336,461.305L457.336,461.305z"
			/>
	</g>
</g>
<g>
	<g>
		<path fill="#FFFFFF" d="M443.764,449.402c3.217,0,3.223-5,0-5C440.547,444.402,440.541,449.402,443.764,449.402L443.764,449.402z"
			/>
	</g>
</g>
<g>
	<g>
		<path fill="#FFFFFF" d="M457.128,448.776c3.217,0,3.223-5,0-5C453.911,443.776,453.905,448.776,457.128,448.776L457.128,448.776z"
			/>
	</g>
</g>
<g>
	<g>
		<path fill="#FFFFFF" d="M443.973,435.204c3.217,0,3.223-5,0-5C440.755,430.204,440.75,435.204,443.973,435.204L443.973,435.204z"
			/>
	</g>
</g>
<g>
	<g>
		<path fill="#FFFFFF" d="M457.754,435.622c3.217,0,3.223-5,0-5C454.537,430.622,454.531,435.622,457.754,435.622L457.754,435.622z"
			/>
	</g>
</g>
<g>
	<g>
		<path fill="#FFFFFF" d="M612.276,338.862v52.318c0,7.166-5.822,12.988-12.987,12.988H471.575c-7.175,0-12.986-5.822-12.986-12.988
			v-52.318h66.205c0.237,4.827,4.222,8.658,9.102,8.658h5.953c4.881,0,8.864-3.831,9.102-8.658H612.276z"/>
	</g>
	<g>
		<path fill="#FFFFFF" d="M599.29,307.753H558.52v-17.945c0-3.322-2.396-6.078-5.553-6.65c-1.063-0.416-2.252-0.656-3.515-0.656
			h-26.509c-1.204,0-4.237,0.316-5.261,0.696c-0.274-0.033,1.345-0.154,1.063-0.154c-3.737,0-6.765,3.028-6.765,6.765v17.945
			h-40.404c-7.175,0-12.987,5.823-12.987,12.988v15.152h66.638c0.444-1.385,1.224-2.63,2.229-3.637
			c1.646-1.656,3.918-2.673,6.44-2.673h5.953c4.048,0,7.49,2.641,8.668,6.31h63.759v-15.152
			C612.277,313.575,606.455,307.753,599.29,307.753z M525.508,307.753v-12.534h19.483v12.534H525.508z"/>
	</g>
</g>
<g>
	<path fill="#FFFFFF" d="M544.339,338.741c0,2.576-2.088,4.664-4.664,4.664h-5.707c-2.576,0-4.664-2.088-4.664-4.664l0,0
		c0-2.575,2.088-4.663,4.664-4.663h5.707C542.251,334.078,544.339,336.166,544.339,338.741L544.339,338.741z"/>
</g>
<g>
	<g>
		<circle fill="#FFFFFF" cx="618.999" cy="132.31" r="4.129"/>
	</g>
	<g>
		<circle fill="#FFFFFF" cx="511.647" cy="68.788" r="4.129"/>
	</g>
</g>
<g>
	<path fill="#FFFFFF" d="M244.863,150.239l7.846,13.657l-2.402,1.379l-7.845-13.657l-3.659,2.102l-1.296-2.257l9.709-5.577
		l1.296,2.257L244.863,150.239z"/>
	<path fill="#FFFFFF" d="M252.291,150.785l2.319-1.332l0.515,0.897c0.17-0.692,0.372-1.215,0.607-1.569
		c0.238-0.364,0.587-0.68,1.047-0.945c0.611-0.351,1.365-0.518,2.262-0.503l0.157,2.733c-0.621-0.063-1.142,0.026-1.561,0.268
		c-1.265,0.726-1.349,2.043-0.251,3.954l2.99,5.205l-2.318,1.332L252.291,150.785z"/>
	<path fill="#FFFFFF" d="M267.587,141.999l2.329-1.338l5.767,10.039l-2.329,1.338l-0.604-1.052
		c-0.442,1.442-1.213,2.479-2.313,3.111c-1.388,0.797-2.823,0.956-4.307,0.473c-1.488-0.506-2.673-1.527-3.553-3.059
		c-0.865-1.505-1.135-3.017-0.811-4.538c0.323-1.52,1.162-2.669,2.516-3.447c1.168-0.671,2.492-0.792,3.973-0.362L267.587,141.999z
		 M264.949,150.149c0.552,0.962,1.26,1.597,2.122,1.905c0.88,0.308,1.723,0.23,2.526-0.231c0.859-0.493,1.383-1.188,1.573-2.082
		c0.178-0.916-0.004-1.843-0.545-2.785c-0.54-0.942-1.251-1.567-2.131-1.875c-0.873-0.293-1.731-0.198-2.577,0.288
		c-0.797,0.458-1.289,1.143-1.479,2.056C264.262,148.341,264.432,149.249,264.949,150.149z"/>
	<path fill="#FFFFFF" d="M274.091,138.262l5.836,4.147l-0.651-7.125l2.607-1.498l0.948,13.727l-11.338-7.758L274.091,138.262z"/>
	<path fill="#FFFFFF" d="M295.789,133.2l-7.195,4.133c0.536,0.79,1.181,1.292,1.936,1.507c0.75,0.209,1.496,0.1,2.238-0.326
		c0.578-0.332,0.977-0.743,1.196-1.235c0.214-0.487,0.344-1.239,0.392-2.253l2.586-0.032c-0.006,0.689-0.072,1.313-0.197,1.875
		c-0.126,0.561-0.313,1.07-0.562,1.528c-0.249,0.458-0.565,0.871-0.948,1.238c-0.384,0.367-0.836,0.7-1.358,1
		c-1.498,0.86-2.977,1.07-4.437,0.628c-1.463-0.447-2.655-1.472-3.574-3.073c-0.912-1.588-1.211-3.125-0.896-4.613
		c0.329-1.478,1.226-2.637,2.69-3.478c1.477-0.849,2.915-1.049,4.315-0.6c1.389,0.444,2.559,1.495,3.51,3.15L295.789,133.2z
		 M292.318,132.672c-1.033-1.052-2.168-1.222-3.405-0.511c-0.282,0.162-0.521,0.356-0.72,0.584
		c-0.197,0.228-0.352,0.481-0.462,0.758c-0.11,0.278-0.172,0.572-0.186,0.882c-0.015,0.31,0.023,0.63,0.114,0.963L292.318,132.672z"
		/>
	<path fill="#FFFFFF" d="M293.213,117.477l10,17.408l-2.318,1.332l-10-17.408L293.213,117.477z"/>
	<path fill="#FFFFFF" d="M309.653,113.022l7.845,13.657l-2.4,1.379l-7.846-13.657l-3.659,2.102l-1.296-2.257l9.709-5.577
		l1.296,2.257L309.653,113.022z"/>
	<path fill="#FFFFFF" d="M317.081,113.567l2.319-1.332l0.515,0.897c0.169-0.692,0.372-1.215,0.606-1.569
		c0.238-0.364,0.588-0.68,1.048-0.944c0.611-0.352,1.365-0.519,2.261-0.504l0.158,2.733c-0.621-0.063-1.142,0.027-1.561,0.268
		c-1.265,0.726-1.349,2.043-0.251,3.954l2.99,5.205l-2.319,1.332L317.081,113.567z"/>
	<path fill="#FFFFFF" d="M332.377,104.781l2.329-1.338l5.767,10.039l-2.329,1.338l-0.604-1.052
		c-0.441,1.442-1.212,2.479-2.312,3.111c-1.388,0.797-2.823,0.956-4.307,0.473c-1.489-0.506-2.673-1.527-3.553-3.058
		c-0.865-1.505-1.136-3.018-0.812-4.539c0.324-1.52,1.163-2.669,2.517-3.447c1.168-0.671,2.492-0.792,3.973-0.362L332.377,104.781z
		 M329.738,112.932c0.553,0.962,1.261,1.597,2.123,1.905c0.88,0.308,1.723,0.23,2.526-0.231c0.858-0.494,1.383-1.188,1.573-2.082
		c0.178-0.917-0.004-1.844-0.545-2.785c-0.541-0.942-1.251-1.567-2.131-1.874c-0.873-0.294-1.731-0.198-2.577,0.288
		c-0.797,0.458-1.29,1.142-1.479,2.056C329.051,111.124,329.222,112.032,329.738,112.932z"/>
	<path fill="#FFFFFF" d="M345.694,97.708l1.771,3.081c-0.9-0.342-1.629-0.513-2.187-0.512c-0.554-0.011-1.109,0.144-1.666,0.464
		c-0.873,0.501-1.422,1.223-1.647,2.166c-0.227,0.944-0.074,1.875,0.455,2.796c0.539,0.941,1.262,1.554,2.166,1.838
		c0.91,0.281,1.803,0.171,2.675-0.33c0.557-0.319,0.979-0.722,1.267-1.207c0.279-0.47,0.503-1.202,0.672-2.195l1.759,3.062
		c-0.661,1.028-1.462,1.813-2.403,2.354c-1.553,0.892-3.14,1.137-4.761,0.733c-1.625-0.41-2.867-1.365-3.728-2.863
		c-0.861-1.498-1.058-3.066-0.592-4.704c0.466-1.639,1.469-2.9,3.008-3.785C343.472,98.038,344.543,97.738,345.694,97.708z"/>
	<path fill="#FFFFFF" d="M345.778,87.282l6.099,10.616l1.402-5.124l3.113-1.788l-1.939,6.72l8.025,3.135l-3.01,1.729l-5.753-2.33
		l-0.157,0.585l2.22,3.864l-2.318,1.332l-10-17.408L345.778,87.282z"/>
	<path fill="#FFFFFF" d="M362.571,79.623l10.255,8.256L370.6,73.983l10.698,9.029l-1.709-13.165l2.607-1.498l2.61,21.01
		l-10.569-8.926l2.216,13.737l-16.489-13.05L362.571,79.623z"/>
	<path fill="#FFFFFF" d="M384.358,69.37c-0.233-0.406-0.286-0.841-0.16-1.307c0.126-0.464,0.395-0.816,0.807-1.053
		c0.419-0.241,0.861-0.297,1.327-0.172c0.46,0.119,0.812,0.388,1.053,0.807c0.24,0.419,0.298,0.861,0.172,1.327
		c-0.118,0.461-0.388,0.813-0.807,1.053s-0.861,0.298-1.326,0.172C384.958,70.071,384.604,69.796,384.358,69.37z M389.426,72.01
		l5.767,10.039l-2.319,1.332l-5.766-10.039L389.426,72.01z"/>
	<path fill="#FFFFFF" d="M392.363,70.323l2.33-1.338l0.532,0.928c0.349-1.269,1.032-2.197,2.049-2.781
		c1.168-0.671,2.29-0.826,3.364-0.467c0.924,0.303,1.791,1.161,2.604,2.576l3.534,6.153l-2.329,1.338l-3.221-5.606
		c-0.568-0.99-1.099-1.594-1.591-1.814c-0.489-0.231-1.087-0.143-1.795,0.263c-0.77,0.442-1.17,1.011-1.201,1.705
		c-0.027,0.683,0.317,1.65,1.036,2.9l2.782,4.845l-2.329,1.338L392.363,70.323z"/>
	<path fill="#FFFFFF" d="M403.938,63.674l2.329-1.338l0.533,0.928c0.349-1.27,1.031-2.197,2.049-2.781
		c1.168-0.671,2.289-0.825,3.364-0.466c0.923,0.303,1.791,1.161,2.604,2.576l3.534,6.153l-2.329,1.338l-3.221-5.606
		c-0.568-0.99-1.099-1.594-1.592-1.815c-0.488-0.23-1.087-0.143-1.794,0.264c-0.771,0.442-1.17,1.011-1.201,1.704
		c-0.028,0.684,0.317,1.65,1.036,2.9l2.782,4.845l-2.329,1.338L403.938,63.674z"/>
	<path fill="#FFFFFF" d="M427.852,57.339l-7.193,4.133c0.535,0.79,1.18,1.292,1.935,1.507c0.75,0.209,1.497,0.1,2.239-0.326
		c0.576-0.332,0.976-0.743,1.195-1.235c0.213-0.487,0.344-1.239,0.392-2.253l2.586-0.032c-0.006,0.689-0.072,1.313-0.198,1.875
		c-0.125,0.561-0.313,1.07-0.561,1.528c-0.249,0.458-0.564,0.871-0.948,1.238c-0.384,0.367-0.837,0.7-1.358,1
		c-1.498,0.86-2.977,1.07-4.437,0.629c-1.464-0.448-2.655-1.472-3.574-3.073c-0.912-1.588-1.211-3.125-0.896-4.614
		c0.33-1.478,1.227-2.637,2.689-3.478c1.478-0.849,2.916-1.049,4.316-0.6c1.389,0.444,2.559,1.495,3.51,3.15L427.852,57.339z
		 M424.382,56.811c-1.034-1.051-2.168-1.222-3.405-0.511c-0.281,0.162-0.521,0.356-0.72,0.585c-0.198,0.228-0.353,0.481-0.462,0.758
		c-0.109,0.278-0.172,0.572-0.186,0.882c-0.015,0.31,0.023,0.63,0.114,0.963L424.382,56.811z"/>
	<path fill="#FFFFFF" d="M427.191,50.317l2.318-1.332l0.516,0.897c0.169-0.692,0.371-1.215,0.606-1.569
		c0.238-0.364,0.587-0.68,1.048-0.944c0.611-0.352,1.365-0.518,2.26-0.503l0.158,2.732c-0.621-0.063-1.142,0.027-1.561,0.268
		c-1.264,0.727-1.348,2.043-0.251,3.954l2.99,5.205l-2.319,1.332L427.191,50.317z"/>
</g>
<g>
	<g>
		<g>
			<path fill="#FFFFFF" d="M536.942,507.534l1.867-1.085l3.838,6.609c0.317-0.984,0.877-1.708,1.68-2.174
				c0.914-0.53,1.816-0.659,2.708-0.384c0.765,0.245,1.474,0.931,2.13,2.061l2.878,4.957l-1.868,1.085l-2.777-4.783
				c-0.376-0.647-0.764-1.051-1.161-1.208c-0.399-0.157-0.853-0.087-1.362,0.209c-0.653,0.379-0.996,0.847-1.026,1.406
				c-0.023,0.561,0.256,1.339,0.834,2.335l2.271,3.911l-1.868,1.085L536.942,507.534z"/>
		</g>
		<g>
			<path fill="#FFFFFF" d="M555.674,504.595l1.877-1.09l4.696,8.088l-1.876,1.09l-0.493-0.847c-0.352,1.166-0.97,2.006-1.855,2.521
				c-1.118,0.649-2.277,0.783-3.478,0.398c-1.204-0.403-2.164-1.223-2.881-2.457c-0.705-1.213-0.928-2.433-0.673-3.663
				c0.256-1.229,0.929-2.16,2.019-2.793c0.942-0.546,2.011-0.649,3.208-0.307L555.674,504.595z M553.574,511.189
				c0.45,0.775,1.024,1.285,1.722,1.531c0.712,0.246,1.392,0.18,2.04-0.196c0.692-0.401,1.113-0.965,1.263-1.689
				c0.14-0.739-0.009-1.489-0.451-2.248c-0.44-0.758-1.016-1.26-1.729-1.505c-0.706-0.234-1.398-0.153-2.08,0.242
				c-0.642,0.373-1.038,0.928-1.187,1.666C553.013,509.73,553.153,510.462,553.574,511.189z"/>
		</g>
		<g>
			<path fill="#FFFFFF" d="M566.406,498.83l1.441,2.482c-0.728-0.273-1.317-0.408-1.768-0.405c-0.448-0.007-0.896,0.121-1.344,0.381
				c-0.703,0.408-1.144,0.993-1.323,1.755c-0.179,0.764-0.053,1.516,0.377,2.257c0.441,0.758,1.027,1.251,1.758,1.478
				c0.737,0.224,1.456,0.132,2.159-0.277c0.448-0.26,0.788-0.588,1.019-0.98c0.222-0.381,0.401-0.973,0.534-1.776l1.432,2.465
				c-0.531,0.834-1.175,1.471-1.933,1.911c-1.251,0.726-2.532,0.931-3.843,0.61c-1.314-0.325-2.321-1.091-3.022-2.298
				c-0.701-1.207-0.866-2.472-0.496-3.797c0.371-1.326,1.175-2.348,2.415-3.068C564.612,499.106,565.475,498.859,566.406,498.83z"/>
		</g>
		<g>
			<path fill="#FFFFFF" d="M566.435,490.409l4.966,8.552l1.113-4.143l2.508-1.457l-1.541,5.436l6.494,2.503l-2.425,1.408
				l-4.656-1.86l-0.125,0.472l1.808,3.115l-1.868,1.085l-8.143-14.024L566.435,490.409z"/>
		</g>
		<g>
			<path fill="#FFFFFF" d="M582.445,489.052l1.876-1.09l4.697,8.087l-1.877,1.09l-0.493-0.846c-0.351,1.166-0.97,2.006-1.855,2.521
				c-1.118,0.649-2.277,0.783-3.478,0.398c-1.203-0.403-2.164-1.223-2.881-2.457c-0.705-1.213-0.928-2.433-0.672-3.663
				c0.256-1.229,0.929-2.161,2.019-2.793c0.941-0.546,2.01-0.649,3.207-0.308L582.445,489.052z M580.344,495.646
				c0.451,0.775,1.024,1.285,1.722,1.531c0.712,0.246,1.393,0.18,2.04-0.196c0.692-0.401,1.113-0.964,1.263-1.688
				c0.141-0.739-0.009-1.489-0.451-2.248c-0.44-0.758-1.016-1.26-1.729-1.505c-0.705-0.234-1.398-0.153-2.079,0.242
				c-0.642,0.373-1.038,0.928-1.186,1.666C579.783,494.187,579.924,494.919,580.344,495.646z"/>
		</g>
		<g>
			<path fill="#FFFFFF" d="M589.618,487.218l3.684,6.345l-1.867,1.084l-3.684-6.345l-0.797,0.463l-1.013-1.744l0.797-0.462
				l-1.721-2.965l1.868-1.084l1.721,2.964l1.453-0.844l1.013,1.744L589.618,487.218z"/>
		</g>
		<g>
			<path fill="#FFFFFF" d="M587.883,477.957l1.867-1.085l3.838,6.609c0.317-0.984,0.877-1.708,1.68-2.174
				c0.913-0.531,1.816-0.659,2.708-0.384c0.764,0.245,1.473,0.931,2.129,2.061l2.878,4.957l-1.868,1.085l-2.777-4.783
				c-0.376-0.647-0.764-1.05-1.161-1.207c-0.399-0.157-0.853-0.087-1.362,0.209c-0.653,0.379-0.995,0.846-1.026,1.406
				c-0.022,0.56,0.256,1.339,0.834,2.335l2.271,3.911l-1.868,1.085L587.883,477.957z"/>
		</g>
		<g>
			<path fill="#FFFFFF" d="M602.587,482.686c-0.679-1.168-0.837-2.404-0.478-3.709c0.361-1.303,1.141-2.306,2.343-3.002
				c1.207-0.701,2.47-0.883,3.79-0.547c1.309,0.343,2.313,1.115,3.01,2.316c0.704,1.213,0.875,2.472,0.515,3.776
				c-0.369,1.302-1.164,2.308-2.388,3.018c-1.213,0.705-2.469,0.879-3.771,0.524C604.314,484.718,603.306,483.926,602.587,482.686z
				 M604.516,481.61c0.469,0.808,1.056,1.322,1.762,1.542c0.719,0.219,1.44,0.118,2.166-0.302c0.73-0.425,1.178-0.998,1.343-1.723
				c0.164-0.724,0.017-1.479-0.44-2.267c-0.456-0.786-1.04-1.287-1.75-1.504c-0.719-0.217-1.441-0.117-2.166,0.305
				c-0.715,0.415-1.155,0.988-1.321,1.72C603.943,480.115,604.079,480.858,604.516,481.61z"/>
		</g>
		<g>
			<path fill="#FFFFFF" d="M610.876,472.543l1.877-1.09l0.433,0.747c0.278-1.026,0.825-1.778,1.645-2.253
				c0.942-0.546,1.846-0.677,2.716-0.389c0.747,0.239,1.451,0.93,2.113,2.071l2.878,4.957l-1.877,1.09l-2.623-4.518
				c-0.463-0.797-0.893-1.284-1.292-1.46c-0.396-0.185-0.878-0.111-1.449,0.219c-0.62,0.36-0.942,0.821-0.963,1.382
				c-0.02,0.551,0.263,1.331,0.847,2.338l2.267,3.903l-1.877,1.09L610.876,472.543z"/>
		</g>
		<g>
			<path fill="#FFFFFF" d="M632.169,468.563l4.774-2.772L638,467.61l-8.611,4.999l1.322-7.973c0.125-0.791,0.222-1.469,0.29-2.034
				c0.068-0.564,0.102-1.025,0.103-1.381c0.013-0.703-0.101-1.262-0.341-1.677c-0.347-0.598-0.848-0.977-1.503-1.137
				c-0.656-0.16-1.293-0.059-1.913,0.301c-1.295,0.752-1.592,1.949-0.89,3.592l-1.927,1.119c-1.259-2.882-0.678-5.026,1.74-6.43
				c1.168-0.678,2.364-0.875,3.586-0.594c1.228,0.279,2.16,0.966,2.796,2.062c0.405,0.698,0.617,1.49,0.635,2.375
				c0.013,0.458-0.021,1.031-0.105,1.72c-0.085,0.691-0.215,1.522-0.389,2.496L632.169,468.563z"/>
		</g>
		<g>
			<path fill="#FFFFFF" d="M636.413,459.848c-1.186-2.043-1.656-3.949-1.412-5.72c0.213-1.595,0.925-2.747,2.138-3.451
				c1.212-0.704,2.564-0.751,4.057-0.145c1.659,0.666,3.097,2.046,4.316,4.144c1.214,2.093,1.7,4.025,1.455,5.795
				c-0.214,1.596-0.923,2.745-2.129,3.446c-1.207,0.701-2.562,0.751-4.065,0.15C639.113,463.402,637.66,461.996,636.413,459.848z
				 M638.319,458.752c0.826,1.423,1.758,2.461,2.797,3.116c1.03,0.639,1.926,0.736,2.69,0.292c0.758-0.44,1.118-1.267,1.08-2.481
				c-0.036-1.208-0.46-2.513-1.273-3.913c-0.813-1.401-1.737-2.419-2.772-3.054c-1.032-0.629-1.927-0.724-2.684-0.284
				c-0.753,0.437-1.112,1.26-1.077,2.468C637.113,456.1,637.525,457.386,638.319,458.752z"/>
		</g>
		<g>
			<path fill="#FFFFFF" d="M648.171,446.981l-2.217,1.287l0.012-2.426l3.089-1.793l7.443,12.821l-1.935,1.123L648.171,446.981z"/>
		</g>
		<g>
			<path fill="#FFFFFF" d="M659.536,446.19c-1.327-0.118-2.323-0.75-2.988-1.896c-0.604-1.041-0.752-2.118-0.442-3.229
				c0.314-1.116,1.005-1.984,2.074-2.605c1.062-0.617,2.151-0.782,3.265-0.495c1.11,0.28,1.97,0.946,2.581,1.998
				c0.639,1.101,0.694,2.274,0.164,3.514c0.675-0.023,1.314,0.147,1.916,0.507c0.607,0.359,1.104,0.869,1.49,1.533
				c0.659,1.135,0.828,2.281,0.507,3.436c-0.32,1.157-1.059,2.07-2.217,2.742c-1.185,0.687-2.373,0.889-3.567,0.606
				c-1.2-0.281-2.12-0.974-2.763-2.082C658.72,448.78,658.713,447.437,659.536,446.19z M658.362,443.229
				c0.318,0.547,0.77,0.899,1.356,1.055c0.595,0.157,1.159,0.083,1.691-0.226c0.526-0.305,0.867-0.755,1.025-1.35
				c0.158-0.595,0.085-1.155-0.221-1.682c-0.306-0.525-0.756-0.867-1.351-1.026c-0.595-0.157-1.155-0.083-1.681,0.221
				c-0.526,0.306-0.867,0.756-1.026,1.351C657.997,442.168,658.066,442.72,658.362,443.229z M661.418,449.049
				c0.344,0.592,0.845,0.984,1.502,1.171c0.659,0.179,1.285,0.097,1.878-0.247c0.586-0.341,0.966-0.839,1.141-1.495
				c0.171-0.663,0.086-1.286-0.255-1.873c-0.344-0.592-0.844-0.975-1.5-1.15c-0.656-0.174-1.277-0.09-1.864,0.25
				c-0.581,0.337-0.962,0.836-1.141,1.495C661.004,447.857,661.085,448.473,661.418,449.049z"/>
		</g>
	</g>
	<g>
		<g>
			<path fill="#FFFFFF" d="M462.971,562.608c-0.084-0.142-0.168-0.283-0.251-0.426c-0.082-0.143-0.162-0.287-0.205-0.448
				c-0.034-0.126-0.108-0.234-0.166-0.349c-0.042-0.083-0.091-0.163-0.096-0.26c-0.001-0.021-0.006-0.043-0.015-0.062
				c-0.084-0.166-0.148-0.338-0.202-0.517c-0.05-0.163-0.094-0.328-0.142-0.492c-0.066-0.225-0.116-0.456-0.161-0.687
				c-0.064-0.328-0.111-0.658-0.142-0.991c-0.04-0.429-0.05-0.857-0.041-1.288c0.006-0.328,0.052-0.651,0.082-0.977
				c0.027-0.29,0.109-0.57,0.155-0.856c0.06-0.369,0.175-0.72,0.283-1.075c0.168-0.55,0.396-1.076,0.662-1.584
				c0.175-0.333,0.372-0.656,0.576-0.973c0.114-0.176,0.233-0.353,0.368-0.513c0.132-0.156,0.236-0.336,0.396-0.467
				c0.057-0.047,0.066-0.127,0.131-0.167c0.055-0.034,0.091-0.086,0.127-0.142c0.058-0.09,0.156-0.142,0.228-0.224
				c0.116-0.134,0.253-0.25,0.387-0.367c0.156-0.136,0.324-0.259,0.477-0.399c0.144-0.131,0.304-0.238,0.461-0.351
				c0.338-0.242,0.68-0.479,1.051-0.666c0.472-0.239,0.949-0.468,1.45-0.644c0.188-0.066,0.377-0.133,0.568-0.188
				c0.155-0.044,0.305-0.122,0.473-0.12c0.114-0.069,0.253-0.04,0.37-0.095c0.092-0.044,0.194-0.031,0.291-0.054
				c0.211-0.049,0.429-0.073,0.645-0.094c0.409-0.04,0.82-0.062,1.231-0.058c0.411,0.004,0.819,0.052,1.228,0.091
				c0.407,0.039,0.796,0.163,1.199,0.216c0.063,0.008,0.124,0.033,0.185,0.053c0.135,0.044,0.266,0.1,0.403,0.132
				c0.343,0.079,0.661,0.22,0.981,0.36c0.252,0.11,0.506,0.217,0.749,0.345c0.262,0.138,0.515,0.294,0.767,0.452
				c0.338,0.212,0.66,0.448,0.963,0.705c0.172,0.146,0.364,0.273,0.502,0.457c0.146,0.07,0.201,0.24,0.345,0.315
				c0.035,0.018,0.058,0.062,0.083,0.097c0.051,0.07,0.1,0.138,0.172,0.189c0.039,0.028,0.071,0.07,0.1,0.11
				c0.062,0.088,0.119,0.176,0.211,0.24c0.045,0.031,0.075,0.086,0.106,0.133c0.094,0.144,0.186,0.289,0.301,0.418
				c0.125,0.14,0.22,0.3,0.315,0.46c0.113,0.191,0.226,0.383,0.338,0.574c0.094,0.161,0.189,0.321,0.249,0.499
				c0.051,0.15,0.127,0.288,0.2,0.427c0.043,0.082,0.094,0.162,0.093,0.26c0,0.014,0.003,0.029,0.009,0.042
				c0.081,0.159,0.138,0.326,0.186,0.498c0.026,0.095,0.07,0.182,0.086,0.284c0.018,0.117,0.066,0.231,0.097,0.348
				c0.09,0.336,0.155,0.675,0.209,1.019c0.076,0.485,0.112,0.97,0.118,1.461c0.003,0.255-0.027,0.508-0.012,0.762
				c-0.074,0.512-0.106,1.031-0.238,1.535c-0.038,0.144-0.055,0.294-0.096,0.437c-0.067,0.234-0.148,0.463-0.217,0.696
				c-0.076,0.259-0.196,0.501-0.295,0.75c-0.235,0.589-0.558,1.133-0.894,1.668c-0.174,0.186-0.28,0.422-0.458,0.607
				c-0.066,0.069-0.119,0.156-0.184,0.23c-0.144,0.165-0.272,0.346-0.431,0.495c-0.119,0.112-0.212,0.253-0.356,0.338
				c-0.278,0.311-0.623,0.545-0.936,0.816c-0.011,0.009-0.022,0.018-0.034,0.026c-0.412,0.273-0.803,0.579-1.25,0.793
				c-0.335,0.16-0.658,0.345-1.009,0.475c-0.214,0.079-0.429,0.16-0.641,0.245c-0.138,0.055-0.286,0.086-0.428,0.133
				c-0.175,0.057-0.354,0.109-0.535,0.138c-0.215,0.035-0.422,0.117-0.644,0.113c-0.43,0.097-0.868,0.127-1.306,0.141
				c-0.418,0.013-0.838,0.02-1.255-0.042c-0.195-0.029-0.395-0.034-0.59-0.064c-0.238-0.037-0.473-0.097-0.711-0.134
				c-0.453-0.07-0.876-0.243-1.312-0.369c-0.231-0.066-0.446-0.184-0.671-0.274c-0.33-0.132-0.642-0.3-0.951-0.473
				c-0.382-0.213-0.744-0.459-1.096-0.719c-0.195-0.144-0.38-0.302-0.562-0.463c-0.177-0.155-0.339-0.326-0.511-0.485
				c-0.125-0.117-0.218-0.265-0.362-0.362c-0.028-0.019-0.048-0.053-0.068-0.082c-0.077-0.112-0.152-0.223-0.262-0.31
				c-0.059-0.047-0.096-0.124-0.137-0.191c-0.08-0.128-0.169-0.248-0.272-0.359c-0.049-0.052-0.092-0.11-0.129-0.17
				c-0.112-0.184-0.219-0.37-0.328-0.555C462.973,562.606,462.972,562.607,462.971,562.608z M469.74,558.471
				c0.194-0.157,0.371-0.327,0.572-0.46c0.406-0.267,0.816-0.532,1.273-0.71c0.188-0.073,0.354-0.193,0.541-0.26
				c0.34-0.122,0.646-0.305,0.955-0.486c0.167-0.098,0.332-0.197,0.465-0.342c0.033-0.036,0.076-0.067,0.12-0.09
				c0.169-0.089,0.258-0.266,0.414-0.369c0.204-0.278,0.423-0.545,0.54-0.88c0.167-0.478,0.171-0.947-0.036-1.412
				c-0.079-0.177-0.18-0.342-0.293-0.5c-0.183-0.255-0.422-0.443-0.705-0.57c-0.314-0.141-0.643-0.207-0.99-0.209
				c-0.3-0.002-0.59,0.03-0.872,0.133c-0.019,0.007-0.042,0.011-0.063,0.008c-0.069-0.008-0.125,0.026-0.182,0.055
				c-0.28,0.145-0.55,0.307-0.813,0.481c-0.042,0.028-0.089,0.051-0.11,0.099c-0.031,0.071-0.093,0.106-0.151,0.148
				c-0.029,0.021-0.064,0.039-0.083,0.067c-0.115,0.17-0.263,0.312-0.382,0.48c-0.203,0.287-0.371,0.593-0.487,0.92
				c-0.205,0.579-0.297,1.179-0.276,1.796c0.013,0.38,0.073,0.753,0.166,1.119c0.034,0.137,0.054,0.281,0.126,0.409
				c0.042,0.075,0.065,0.156,0.085,0.241C469.582,558.263,469.633,558.381,469.74,558.471z M470.931,558.401
				c-0.093,0.055-0.183,0.113-0.278,0.163c-0.104,0.054-0.18,0.14-0.259,0.222c-0.025,0.025-0.058,0.041-0.087,0.063
				c-0.102,0.077-0.226,0.124-0.296,0.242c-0.066,0.11-0.221,0.14-0.258,0.279c-0.162,0.18-0.281,0.387-0.386,0.606
				c-0.235,0.487-0.22,0.979-0.029,1.464c0.124,0.313,0.338,0.566,0.615,0.774c0.34,0.255,0.721,0.371,1.13,0.385
				c0.365,0.012,0.734-0.009,1.073-0.18c0.037-0.019,0.083-0.021,0.124-0.032c0.041-0.011,0.084-0.02,0.122-0.038
				c0.371-0.172,0.723-0.448,1.019-0.765c0.121-0.13,0.232-0.263,0.339-0.404c0.28-0.37,0.455-0.785,0.591-1.223
				c0.061-0.198,0.079-0.404,0.119-0.606c0.036-0.182,0.045-0.367,0.045-0.55c-0.001-0.364-0.035-0.725-0.109-1.083
				c-0.02-0.099-0.068-0.188-0.084-0.287c-0.034-0.213-0.132-0.405-0.199-0.607c-0.013-0.04-0.038-0.077-0.061-0.114
				c-0.034-0.055-0.06-0.058-0.12-0.014c-0.143,0.107-0.293,0.205-0.42,0.333c-0.05,0.05-0.112,0.089-0.173,0.125
				c-0.271,0.161-0.543,0.32-0.816,0.476c-0.074,0.042-0.153,0.079-0.235,0.104c-0.124,0.039-0.239,0.095-0.352,0.157
				c-0.12,0.065-0.236,0.14-0.363,0.184C471.35,558.156,471.139,558.274,470.931,558.401z"/>
		</g>
		<g>
			<path fill="#FFFFFF" d="M510.811,536.267c0.702,1.192,1.405,2.384,2.107,3.576c0.053,0.09,0.109,0.178,0.157,0.271
				c0.079,0.152,0.058,0.224-0.092,0.326c-0.076,0.051-0.156,0.095-0.235,0.142c-0.562,0.332-1.123,0.665-1.687,0.993
				c-0.537,0.313-0.433,0.341-0.746-0.178c-0.067-0.112-0.132-0.225-0.2-0.337c-0.02-0.033-0.041-0.07-0.071-0.092
				c-0.029-0.022-0.069-0.033-0.101,0.007c-0.052,0.063-0.073,0.138-0.084,0.216c-0.068,0.513-0.295,0.966-0.586,1.377
				c-0.144,0.204-0.287,0.435-0.531,0.558c-0.057,0.029-0.107,0.076-0.15,0.124c-0.276,0.314-0.612,0.52-1.025,0.601
				c-0.05,0.01-0.099,0.033-0.145,0.058c-0.399,0.213-0.834,0.241-1.274,0.273c-0.511,0.037-1.005-0.036-1.491-0.172
				c-0.423-0.118-0.823-0.298-1.192-0.539c-0.151-0.099-0.297-0.205-0.444-0.309c-0.22-0.157-0.43-0.328-0.598-0.543
				c-0.056-0.072-0.102-0.156-0.17-0.214c-0.4-0.341-0.597-0.818-0.853-1.255c-0.045-0.076-0.058-0.171-0.085-0.258
				c-0.027-0.087-0.043-0.18-0.083-0.26c-0.201-0.402-0.252-0.837-0.298-1.275c-0.077-0.736,0.025-1.45,0.289-2.135
				c0.163-0.421,0.402-0.804,0.665-1.177c0.191-0.271,0.497-0.416,0.667-0.697c0.389-0.229,0.731-0.553,1.207-0.611
				c0.038-0.005,0.076-0.021,0.111-0.036c0.491-0.221,1.004-0.223,1.523-0.156c0.206,0.027,0.413,0.061,0.606,0.143
				c0.087,0.037,0.174,0.052,0.266,0.044c0.048-0.004,0.065-0.049,0.051-0.082c-0.036-0.084-0.081-0.163-0.126-0.242
				c-0.103-0.181-0.21-0.361-0.313-0.542c-0.046-0.081-0.024-0.149,0.053-0.199c0.131-0.086,0.258-0.177,0.393-0.258
				c0.505-0.301,1.01-0.6,1.519-0.894c0.146-0.085,0.301-0.156,0.455-0.226c0.079-0.036,0.153-0.012,0.201,0.067
				c0.054,0.089,0.108,0.179,0.161,0.268C509.38,533.837,510.095,535.052,510.811,536.267z M504.278,540.087
				c0.204,0.377,0.506,0.651,0.864,0.872c0.554,0.342,1.135,0.48,1.771,0.263c0.049-0.017,0.101-0.031,0.152-0.034
				c0.163-0.012,0.294-0.096,0.433-0.169c0.25-0.132,0.37-0.401,0.598-0.556c0.291-0.471,0.47-0.968,0.427-1.537
				c-0.018-0.237-0.1-0.451-0.151-0.677c-0.047-0.209-0.128-0.402-0.256-0.566c-0.297-0.381-0.642-0.717-1.09-0.913
				c-0.698-0.305-1.387-0.28-2.05,0.115c-0.202,0.12-0.368,0.269-0.522,0.455c-0.143,0.173-0.267,0.347-0.348,0.551
				C503.806,538.65,503.892,539.381,504.278,540.087z"/>
		</g>
		<g>
			<path fill="#FFFFFF" d="M525.952,527.026c0.729,1.238,1.459,2.476,2.188,3.714c0.148,0.251,0.22,0.288-0.114,0.484
				c-0.676,0.397-1.351,0.795-2.026,1.193c-0.023,0.013-0.045,0.027-0.068,0.039c-0.178,0.092-0.214,0.085-0.316-0.078
				c-0.097-0.155-0.186-0.315-0.28-0.472c-0.033-0.056-0.065-0.114-0.105-0.165c-0.021-0.027-0.058-0.05-0.091-0.056
				c-0.053-0.009-0.062,0.043-0.064,0.078c-0.015,0.209-0.063,0.408-0.129,0.608c-0.128,0.383-0.317,0.722-0.579,1.034
				c-0.137,0.163-0.28,0.301-0.448,0.422c-0.032,0.023-0.067,0.045-0.089,0.076c-0.231,0.322-0.58,0.497-0.922,0.639
				c-0.366,0.152-0.745,0.322-1.15,0.338c-0.752,0.03-1.464-0.095-2.075-0.596c-0.174-0.143-0.336-0.283-0.455-0.473
				c-0.035-0.055-0.07-0.116-0.12-0.154c-0.239-0.178-0.376-0.432-0.522-0.678c-0.978-1.652-1.954-3.306-2.929-4.96
				c-0.18-0.305-0.177-0.311,0.111-0.482c0.651-0.387,1.305-0.77,1.958-1.155c0.045-0.027,0.089-0.054,0.136-0.077
				c0.141-0.069,0.219-0.054,0.304,0.067c0.06,0.085,0.11,0.177,0.163,0.267c0.677,1.148,1.352,2.296,2.03,3.443
				c0.16,0.27,0.325,0.536,0.496,0.799c0.205,0.314,0.602,0.612,0.946,0.777c0.151,0.073,0.314,0.105,0.452,0.079
				c0.429-0.081,0.884-0.133,1.152-0.557c0.076-0.12,0.211-0.178,0.285-0.313c0.201-0.365,0.22-0.747,0.146-1.137
				c-0.073-0.385-0.214-0.744-0.419-1.086c-0.739-1.232-1.462-2.474-2.19-3.713c-0.298-0.506-0.302-0.433,0.185-0.723
				c0.584-0.347,1.17-0.691,1.756-1.034c0.09-0.053,0.182-0.102,0.277-0.146c0.066-0.03,0.131-0.008,0.171,0.051
				c0.066,0.097,0.128,0.197,0.187,0.299C524.52,524.595,525.236,525.811,525.952,527.026z"/>
		</g>
		<g>
			<path fill="#FFFFFF" d="M489.812,550.045c0.337-0.199,0.675-0.397,1.012-0.597c0.156-0.092,0.214-0.128,0.357,0.054
				c0.23,0.291,0.539,0.438,0.914,0.381c0.376-0.057,0.737-0.163,1.048-0.4c0.18-0.136,0.304-0.321,0.436-0.494
				c0.102-0.133,0.119-0.305,0.045-0.482c-0.147-0.352-0.342-0.496-0.722-0.467c-0.246,0.019-0.492,0.056-0.733,0.109
				c-0.531,0.116-1.055,0.276-1.59,0.366c-0.505,0.085-1.003,0.229-1.524,0.218c-0.418-0.009-0.819-0.062-1.192-0.265
				c-0.241-0.131-0.472-0.271-0.617-0.517c-0.033-0.056-0.075-0.108-0.123-0.152c-0.139-0.126-0.231-0.278-0.276-0.461
				c-0.019-0.075-0.052-0.148-0.087-0.218c-0.372-0.753-0.249-1.485,0.121-2.189c0.141-0.269,0.3-0.544,0.56-0.73
				c0.104-0.227,0.316-0.338,0.508-0.471c0.053-0.037,0.104-0.079,0.148-0.127c0.417-0.453,0.984-0.675,1.501-0.972
				c0.21-0.025,0.407-0.089,0.586-0.2c0.173-0.107,0.39-0.038,0.562-0.147c0.604-0.069,1.204-0.116,1.79,0.127
				c0.44,0.182,0.825,0.429,1.122,0.804c0.073,0.092,0.152,0.179,0.222,0.274c0.12,0.164,0.106,0.224-0.075,0.342
				c-0.044,0.029-0.089,0.054-0.134,0.08c-0.596,0.351-1.192,0.703-1.789,1.054c-0.068,0.04-0.134,0.083-0.204,0.116
				c-0.112,0.053-0.196,0.034-0.278-0.06c-0.051-0.059-0.09-0.129-0.143-0.186c-0.154-0.163-0.336-0.285-0.565-0.295
				c-0.391-0.018-0.754,0.069-1.025,0.375c-0.127,0.144-0.291,0.254-0.355,0.457c-0.131,0.412,0.135,0.882,0.564,0.934
				c0.191,0.023,0.394,0.017,0.583-0.018c0.486-0.091,0.967-0.208,1.451-0.313c0.605-0.131,1.198-0.323,1.821-0.36
				c0.468-0.027,0.929-0.01,1.357,0.23c0.172,0.096,0.341,0.2,0.466,0.344c0.272,0.314,0.506,0.647,0.668,1.047
				c0.328,0.81,0.206,1.571-0.126,2.331c-0.108,0.247-0.41,0.644-0.617,0.833c-0.124,0.113-0.182,0.282-0.342,0.368
				c-0.137,0.073-0.283,0.156-0.381,0.271c-0.245,0.287-0.573,0.448-0.886,0.634c-0.146,0.086-0.296,0.162-0.463,0.206
				c-0.125,0.033-0.256,0.075-0.362,0.146c-0.28,0.186-0.609,0.236-0.919,0.309c-0.255,0.06-0.527,0.105-0.802,0.097
				c-0.378-0.011-0.754-0.05-1.101-0.189c-0.369-0.147-0.739-0.315-0.991-0.651c-0.243-0.127-0.367-0.358-0.505-0.577
				c-0.021-0.033-0.041-0.067-0.058-0.102c-0.052-0.105-0.04-0.159,0.068-0.227c0.211-0.13,0.426-0.255,0.639-0.381
				C489.519,550.217,489.665,550.131,489.812,550.045C489.811,550.045,489.811,550.045,489.812,550.045z"/>
		</g>
		<g>
			<path fill="#FFFFFF" d="M531.911,521.378c-0.304,0.179-0.607,0.358-0.911,0.536c-0.079,0.046-0.159,0.091-0.241,0.13
				c-0.066,0.031-0.128,0.014-0.172-0.045c-0.078-0.103-0.145-0.213-0.249-0.299c-0.466-0.382-1.094-0.251-1.5,0.105
				c-0.097,0.086-0.186,0.183-0.266,0.286c-0.283,0.363-0.257,0.88,0.277,1.129c0.045,0.021,0.1,0.028,0.15,0.029
				c0.234,0.005,0.467,0.009,0.699-0.042c0.482-0.105,0.967-0.199,1.446-0.322c0.337-0.087,0.676-0.188,1.018-0.243
				c0.491-0.079,0.986-0.149,1.491-0.051c0.421,0.082,0.769,0.281,1.091,0.543c0.049,0.04,0.082,0.101,0.116,0.157
				c0.124,0.2,0.247,0.4,0.367,0.602c0.388,0.653,0.391,1.346,0.217,2.059c-0.116,0.476-0.406,0.857-0.669,1.253
				c-0.251,0.183-0.393,0.483-0.686,0.623c-0.08,0.038-0.152,0.102-0.216,0.166c-0.396,0.394-0.869,0.659-1.393,0.841
				c-0.111,0.038-0.221,0.082-0.325,0.136c-0.625,0.324-1.299,0.413-1.988,0.381c-0.5-0.023-0.967-0.177-1.385-0.466
				c-0.38-0.263-0.699-0.581-0.921-0.989c-0.083-0.153-0.069-0.227,0.09-0.321c0.662-0.394,1.326-0.784,1.99-1.174
				c0.022-0.013,0.045-0.027,0.069-0.037c0.151-0.065,0.239-0.056,0.337,0.089c0.187,0.277,0.453,0.376,0.767,0.368
				c0.451-0.011,1.13-0.25,1.41-0.641c0.13-0.182,0.274-0.339,0.283-0.576c0.008-0.213-0.189-0.5-0.388-0.571
				c-0.191-0.068-0.386-0.077-0.577-0.041c-0.37,0.07-0.735,0.167-1.105,0.235c-0.407,0.074-0.802,0.207-1.217,0.247
				c-0.191,0.019-0.375,0.088-0.568,0.118c-0.431,0.067-0.895,0.091-1.3,0.036c-0.605-0.083-1.07-0.4-1.414-0.88
				c-0.423-0.589-0.632-1.245-0.528-1.984c0.063-0.449,0.256-0.839,0.508-1.202c0.153-0.221,0.335-0.422,0.512-0.625
				c0.059-0.067,0.142-0.114,0.215-0.167c0.125-0.092,0.26-0.165,0.342-0.312c0.041-0.073,0.135-0.12,0.212-0.167
				c0.266-0.165,0.534-0.328,0.804-0.487c0.191-0.113,0.38-0.228,0.61-0.252c0.063-0.006,0.126-0.037,0.182-0.067
				c0.314-0.168,0.651-0.226,1.002-0.267c0.231-0.028,0.456-0.045,0.689-0.043c0.568,0.005,1.073,0.191,1.521,0.51
				c0.303,0.216,0.585,0.474,0.747,0.829c0.049,0.108,0.04,0.155-0.064,0.228c-0.021,0.015-0.044,0.028-0.066,0.042
				C532.585,520.98,532.248,521.179,531.911,521.378C531.911,521.378,531.911,521.378,531.911,521.378z"/>
		</g>
		<g>
			<path fill="#FFFFFF" d="M512.446,535.121c-0.345-0.585-0.689-1.17-1.034-1.755c-0.046-0.079-0.091-0.159-0.142-0.234
				c-0.085-0.125-0.166-0.151-0.3-0.08c-0.207,0.111-0.407,0.235-0.611,0.352c-0.09,0.052-0.18,0.108-0.275,0.15
				c-0.135,0.059-0.218,0.033-0.297-0.093c-0.111-0.177-0.214-0.359-0.32-0.538c-0.179-0.304-0.361-0.606-0.535-0.912
				c-0.102-0.179-0.087-0.235,0.093-0.348c0.21-0.131,0.427-0.253,0.64-0.38c0.079-0.047,0.156-0.095,0.233-0.144
				c0.079-0.051,0.089-0.131,0.06-0.206c-0.038-0.096-0.092-0.187-0.144-0.277c-0.337-0.574-0.677-1.147-1.013-1.722
				c-0.195-0.334-0.193-0.337,0.139-0.534c0.607-0.359,1.214-0.716,1.822-1.074c0.067-0.04,0.135-0.081,0.206-0.112
				c0.066-0.029,0.135-0.011,0.178,0.042c0.065,0.081,0.121,0.17,0.174,0.259c0.333,0.562,0.664,1.124,0.995,1.687
				c0.257,0.437,0.239,0.375,0.616,0.157c0.35-0.203,0.697-0.411,1.047-0.615c0.09-0.052,0.182-0.102,0.277-0.144
				c0.065-0.028,0.128-0.012,0.171,0.05c0.023,0.032,0.045,0.064,0.065,0.098c0.279,0.472,0.558,0.944,0.834,1.418
				c0.093,0.16,0.08,0.228-0.055,0.333c-0.072,0.056-0.152,0.102-0.23,0.148c-0.337,0.2-0.675,0.398-1.012,0.597
				c-0.079,0.047-0.156,0.095-0.231,0.147c-0.074,0.051-0.091,0.126-0.059,0.206c0.024,0.06,0.057,0.117,0.091,0.173
				c0.531,0.9,1.065,1.797,1.591,2.699c0.134,0.229,0.308,0.417,0.5,0.597c0.109,0.103,0.238,0.164,0.37,0.209
				c0.131,0.044,0.264,0.051,0.416,0.008c0.423-0.119,0.804-0.303,1.141-0.582c0.03-0.025,0.062-0.048,0.095-0.068
				c0.099-0.062,0.174-0.052,0.237,0.033c0.031,0.042,0.057,0.088,0.083,0.133c0.279,0.472,0.557,0.945,0.835,1.417
				c0.033,0.056,0.066,0.113,0.092,0.172c0.048,0.108,0.038,0.171-0.061,0.235c-0.567,0.369-1.049,0.862-1.671,1.152
				c-0.141,0.066-0.27,0.154-0.432,0.174c-0.088,0.011-0.173,0.055-0.255,0.093c-0.852,0.399-1.647,0.314-2.404-0.25
				c-0.392-0.292-0.717-0.632-0.962-1.054c-0.315-0.542-0.635-1.08-0.954-1.62C512.449,535.119,512.448,535.12,512.446,535.121z"/>
		</g>
		<g>
			<path fill="#FFFFFF" d="M496.625,544.415c-0.338-0.573-0.676-1.147-1.014-1.72c-0.053-0.09-0.104-0.182-0.164-0.266
				c-0.07-0.098-0.162-0.122-0.274-0.067c-0.105,0.051-0.205,0.115-0.307,0.173c-0.181,0.104-0.358,0.216-0.543,0.312
				c-0.178,0.092-0.258,0.07-0.357-0.094c-0.282-0.47-0.561-0.942-0.835-1.416c-0.115-0.199-0.1-0.244,0.109-0.372
				c0.245-0.15,0.495-0.29,0.741-0.44c0.216-0.131,0.23-0.182,0.108-0.408c-0.093-0.172-0.197-0.338-0.296-0.507
				c-0.258-0.439-0.517-0.877-0.775-1.316c-0.053-0.09-0.102-0.182-0.144-0.277c-0.029-0.065-0.011-0.128,0.051-0.171
				c0.032-0.022,0.064-0.045,0.098-0.064c0.674-0.398,1.348-0.797,2.024-1.192c0.175-0.102,0.244-0.085,0.358,0.077
				c0.052,0.074,0.096,0.155,0.142,0.234c0.305,0.517,0.61,1.034,0.914,1.552c0.046,0.079,0.09,0.159,0.141,0.235
				c0.12,0.179,0.166,0.193,0.348,0.088c0.395-0.229,0.788-0.461,1.181-0.694c0.459-0.272,0.419-0.232,0.648,0.155
				c0.24,0.404,0.479,0.808,0.715,1.215c0.117,0.202,0.108,0.247-0.076,0.388c-0.082,0.063-0.173,0.116-0.263,0.169
				c-0.314,0.187-0.63,0.371-0.944,0.557c-0.078,0.047-0.156,0.095-0.231,0.147c-0.075,0.053-0.083,0.132-0.052,0.21
				c0.029,0.072,0.071,0.139,0.111,0.207c0.503,0.855,1.011,1.707,1.509,2.564c0.16,0.275,0.357,0.511,0.598,0.715
				c0.233,0.198,0.479,0.262,0.788,0.175c0.411-0.115,0.776-0.3,1.104-0.567c0.04-0.033,0.084-0.063,0.131-0.084
				c0.064-0.028,0.13-0.018,0.177,0.037c0.042,0.049,0.078,0.104,0.111,0.16c0.279,0.472,0.557,0.944,0.835,1.417
				c0.026,0.045,0.053,0.09,0.074,0.138c0.053,0.123,0.037,0.192-0.069,0.27c-0.073,0.054-0.153,0.099-0.227,0.153
				c-0.106,0.076-0.219,0.145-0.311,0.236c-0.368,0.364-0.833,0.579-1.272,0.834c-0.066,0.038-0.145,0.057-0.221,0.072
				c-0.117,0.023-0.223,0.07-0.329,0.12c-0.838,0.393-1.629,0.3-2.37-0.245c-0.38-0.279-0.707-0.61-0.946-1.023
				c-0.328-0.564-0.662-1.125-0.993-1.687C496.629,544.413,496.627,544.414,496.625,544.415z"/>
		</g>
	</g>
</g>
</svg>
