<?xml version="1.0" encoding="utf-8"?>
<!-- Generator: Adobe Illustrator 21.0.2, SVG Export Plug-In . SVG Version: 6.00 Build 0)  -->
<svg version="1.1" xmlns="http://www.w3.org/2000/svg" xmlns:xlink="http://www.w3.org/1999/xlink" x="0px" y="0px"
	 viewBox="0 0 191.2749 183.1816" style="enable-background:new 0 0 191.2749 183.1816;" xml:space="preserve">
<style type="text/css">
	.st0{fill:#0FCE7C;}
	.st1{fill:#D6D6EA;}
	.st2{fill:#20EF90;}
	.st3{fill:#11C96D;}
	.st4{fill:#9393B5;}
	.st5{fill:#25E899;}
	.st6{fill:#0E2947;}
	.st7{fill:#FFFFFF;}
	.st8{fill:#EFF4EE;}
</style>
<g id="Layer_2">
	<path class="st0" d="M109.309,43.9196c0.0504-0.122,0.057-0.2651-0.0116-0.4136c-0.0109-0.0208-0.0171-0.0431-0.0278-0.064
		c0.1463-0.1315,0.2206-0.3482,0.1111-0.6029c-0.2871-0.6681-0.5791-1.3216-0.7935-2.0007c0.3392,0.0649,0.7077-0.263,0.5886-0.6162
		c0.2127-0.1378,0.3415-0.4057,0.1691-0.6568c-0.7821-1.1399-1.6047-2.2401-2.4699-3.3059
		c-0.5109-0.7631-1.0625-1.5088-1.6159-2.2503c0.0392-0.0642,0.0636-0.1358,0.0699-0.2133c0.3123-0.1666,0.448-0.6461,0.0462-0.8598
		c-0.2544-0.1354-0.4858-0.2848-0.7085-0.442c-0.4101-0.2957-0.7615-0.6276-1.0878-0.9802
		c-0.0469-0.053-0.0959-0.1003-0.1421-0.1556c-0.0039-0.0043-0.0083-0.0051-0.0122-0.0092
		c-0.2309-0.2579-0.4552-0.5242-0.6857-0.7922c0.0895-0.2487,0.0148-0.5618-0.3122-0.6575
		c-0.1921-0.0998-0.3841-0.1994-0.5762-0.2992c-0.0268-0.026-0.0505-0.0528-0.0778-0.0787
		c-0.5043-0.4775-0.6935-0.6754-1.3776-0.5529c-0.0507,0.0091-0.0864,0.0453-0.128,0.0717c-0.1439-0.0757-0.2811-0.168-0.422-0.2506
		c-0.0119-0.1432-0.0776-0.2803-0.231-0.3638c-0.4488-0.2443-0.8975-0.4885-1.3462-0.7327
		c-0.1796-0.0978-0.3746-0.063-0.5236,0.0379c-0.0364-0.043-0.0824-0.0819-0.1398-0.114c-3.3908-1.8965-8.1253-1.5317-11.7152-0.391
		c-2.9325,0.9318-6.1338,2.8008-8.055,5.4149c-0.1491-0.0439-0.3154-0.034-0.4639,0.0998
		c-3.5619,3.2087-5.4988,9.2089-4.7593,13.9264c0.0176,0.1116,0.0789,0.1951,0.1601,0.2547
		c-0.0011,0.0462-0.0064,0.0904-0.0072,0.1368c-0.0077,0.4444,0.5329,0.6102,0.8208,0.3812
		c0.1425,0.0303,0.2966-0.0031,0.4247-0.1359c0.0914-0.0947,0.1773-0.1937,0.2678-0.2889c0.1614,0.0198,0.3351-0.0201,0.4599-0.1467
		c0.1319-0.0188,0.2616-0.0842,0.3577-0.2206c0.3559-0.5054,0.3754-0.5142,0.4818-0.8935c0.1976-0.0044,0.398-0.1034,0.4906-0.3302
		c0.0564-0.1381,0.1154-0.2721,0.1721-0.4093c0.2332,0.144,0.5639,0.1422,0.6925-0.1516c0.0174-0.0396,0.0331-0.0798,0.0504-0.1194
		l0.0001-0.0001c0.3695-0.8466,0.7271-1.6975,1.0756-2.5519c0.171,0.024,0.3532-0.0362,0.4746-0.2323
		c0.2357-0.3803,0.4804-0.7529,0.7236-1.1267c0.1871,0.1351,0.4412,0.1612,0.6117-0.0575c0.9224-1.1837,1.8638-2.3342,2.8732-3.4142
		c0.1141,0.0353,0.2421,0.0238,0.3692-0.0693c0.0348-0.0255,0.0665-0.0529,0.101-0.0785l0.0002,0.0003
		c0.0006-0.0007,0.0013-0.0013,0.0019-0.002c0.3494-0.259,0.68-0.5304,1.0068-0.8053c0.0664,0.0113,0.1366,0.0109,0.212-0.0126
		c1.7362-0.5421,3.4726-1.0842,5.2088-1.6264c0.9858,0.1519,1.9637,0.195,2.9466,0.1748c0.6916,0.1383,1.3798,0.3044,2.0722,0.4465
		c0.0511,0.1177,0.1479,0.2193,0.2999,0.2736c0.3704,0.1325,0.8472,0.2911,1.335,0.3891c0.9218,0.236,1.9446,0.3988,2.6824,0.1401
		c0.1635-0.0573,0.3195-0.2114,0.3612-0.3891c0.5717,0.2674,1.1513,0.5115,1.7426,0.7102c0.7014,0.7666,1.5557,1.4561,2.4381,2.0798
		c0.637,0.9892,1.5301,1.8296,2.4471,2.5894c0.481,0.8308,1.031,1.6256,1.6658,2.3888c0.0005,0.0011,0.0013,0.002,0.0018,0.0031
		l0.0004-0.0002c0.0276,0.0332,0.0499,0.0683,0.0778,0.1014c0.1178,0.1396,0.2623,0.1724,0.3992,0.1477
		c0.1267,0.2291,0.2483,0.4584,0.3788,0.6878c0.3215,0.5651,1.1429,0.0681,0.8634-0.5048
		C109.3392,43.9764,109.3232,43.9486,109.309,43.9196z M75.5977,42.6086c-0.0489,0.1-0.1018,0.1982-0.1499,0.2986
		c-0.4647,0.6577-0.8309,1.3317-1.1193,2.08c0.1633-0.736,0.3965-1.4637,0.6005-2.1708c0.0842-0.1821,0.1564-0.3674,0.2349-0.551
		c0.1568,0.0447,0.3316,0.017,0.4662-0.1262c0.0009-0.001,0.0017-0.0018,0.0026-0.0027c0.0232-0.0003,0.047-0.0085,0.0707-0.0116
		C75.6675,42.2863,75.6286,42.4487,75.5977,42.6086z"/>
	<path class="st1" d="M85.3197,19.6649c-0.0607-0.2882-0.3123-0.5588-0.5385-0.8028c0.1147-0.1355,0.1493-0.3218,0.0061-0.5169
		c-0.0258-0.0351-0.0538-0.0656-0.0798-0.0999l0.0016-0.0013c-0.0027-0.0023-0.0055-0.0046-0.0082-0.0069
		c-0.4939-0.6488-1.0468-1.1739-1.7394-1.6198c-0.0986-0.0635-0.1908-0.0801-0.2773-0.0773l-0.4277-0.36
		c-0.212-0.3446-0.4601-0.6591-0.7831-0.962c-0.2392-0.2244-0.5643-0.1563-0.7345,0.0509c-0.111-0.0162-0.2255,0.0049-0.3263,0.0543
		c-0.3377-0.1083-0.7175,0.2758-0.6132,0.6242c0.0077,0.0254,0.0181,0.0479,0.026,0.073c-0.0048,0.0433-0.0075,0.087-0.0135,0.1301
		c-0.3299,0.9826-0.367,1.9693-0.3679,3.034c-0.0003,0.3932-0.0554,0.8403-0.0241,1.2495
		c-0.5095,0.0589-0.6969,0.8656-0.1144,0.9771c0.5705,0.1092,1.1409,0.2185,1.7115,0.3277
		c0.0285,0.0061,0.0556,0.0154,0.0851,0.0163c0.1996,0.0483,0.398,0.086,0.5738,0.1099c0.0044,0.0006,0.0079-0.0012,0.0123-0.0007
		c0.2168,0.0411,0.4351,0.0726,0.6525,0.1101c0.0799,0.0594,0.1594,0.1187,0.2502,0.1753c0.1741,0.1083,0.3491,0.0769,0.4897-0.0183
		c0.0592,0.0182,0.1196,0.0286,0.1796,0.025c0.1773,0.2154,0.524,0.2986,0.7428,0.057c0.3945-0.4359,0.6862-0.8815,0.9079-1.3889
		C85.1872,20.4587,85.4074,20.0814,85.3197,19.6649z"/>
	<path class="st1" d="M87.1954,23.4363c-0.1032-0.4897-0.8449-0.4632-0.9643,0c-0.2031,0.7881-0.5215,1.4797-1.0223,2.1246
		c-0.0399,0.0513-0.0621,0.1057-0.0808,0.1601c-0.1017,0.0175-0.2053,0.03-0.3134,0.0395c-0.6892-0.4766-1.9421-0.587-2.6413-0.7648
		c-0.0926-0.0235-0.1782-0.01-0.2585,0.0172c-0.0426-0.057-0.0993-0.1084-0.1852-0.1448c-0.1269-0.0539-0.2538-0.1078-0.3807-0.1616
		c-0.5754-0.2444-1.0721,0.5193-0.5047,0.8634c0.7608,0.4615,1.5215,0.9229,2.2823,1.3844c0.0412,0.025,0.0774,0.0478,0.1168,0.0725
		c-0.0689,0.3251,0.225,0.7292,0.6188,0.617c0.7135-0.2032,1.427-0.4064,2.1406-0.6096c0.3802-0.1083,0.9082-0.1816,1.1952-0.4986
		C87.837,25.8295,87.365,24.2408,87.1954,23.4363z"/>
	<path class="st2" d="M115.4531,129.5422c-0.1711-0.6478-0.3451-1.2947-0.5164-1.9422c0.1352-0.1052,0.2177-0.2806,0.1705-0.507
		c-0.3956-1.8955-0.8963-3.7431-1.5121-5.5794c-0.0295-0.0882-0.0737-0.1543-0.1243-0.2085c-0.084-0.1564-0.2183-0.2275-0.357-0.249
		c-0.2558-0.6444-0.5395-1.2702-0.8349-1.861c-0.1374-0.2747-0.3386-0.4572-0.5703-0.5647
		c-0.1548-0.3582-0.3196-0.7134-0.5069-1.0618c-0.1397-0.2596-0.4196-0.285-0.6377-0.18c-0.0162-0.0135-0.0326-0.0262-0.0491-0.0393
		c-0.0746-0.1238-0.1474-0.2483-0.2286-0.3697c-0.0221-0.0331-0.0503-0.0542-0.0763-0.0799
		c0.0828-0.0913,0.1606-0.1887,0.2034-0.3211c0.0529-0.1639-0.0042-0.3692-0.1286-0.4864c-0.1344-0.1267-0.2952-0.1861-0.465-0.2199
		c0.0849-0.3425-0.3174-0.7049-0.6958-0.5665c-0.1495-0.1924-0.4252-0.2997-0.654-0.1542c-0.4803,0.3054-0.9421,0.633-1.3963,0.9713
		c-0.5724,0.2329-1.0766,0.5857-1.5172,1.0592c-0.0216,0.0061-0.0431,0.0123-0.0647,0.0185
		c-0.1864,0.0534-0.2832,0.1898-0.3233,0.3411c-0.0054-0.0018-0.0107-0.0045-0.0161-0.0064
		c-0.1019-0.0344-0.1934-0.0239-0.2772,0.0039c-0.603-0.1994-0.8244,0.7289-0.2503,0.9667
		c0.5476,0.2268,1.0951,0.4536,1.6427,0.6804c0.4644,0.2908,0.9129,0.6139,1.3539,0.9347c0.2607,0.3947,0.5333,0.782,0.7959,1.1705
		c-0.0623,0.9772-0.1213,1.9659-0.0634,2.9393c-0.4562,0.508-0.9429,0.9782-1.5544,1.2934c-0.144,0.0743-0.253,0.1823-0.3442,0.3037
		c-0.15,0.0328-0.3009,0.0599-0.4506,0.0953c-0.1612-0.0407-0.3341-0.062-0.5232-0.0491c-0.1753,0.0119-0.3478,0.038-0.5223,0.053
		c-1.6058-0.8683-3.2115-1.7365-4.8172-2.6047c-0.17-0.0919-0.3394-0.0723-0.4758,0.0033
		c-0.1573-0.1571-0.3214-0.3057-0.5046-0.4268c-0.296-0.1958-0.6179-0.2854-0.9453-0.3573c-0.033-0.1074-0.1007-0.2043-0.214-0.2666
		c-0.5795-0.3193-0.9674-0.3775-1.6191-0.1798c-0.1154,0.0349-0.1981,0.1179-0.261,0.2151
		c-0.0481,0.0076-0.0931,0.0093-0.1418,0.0177c-0.124,0.0212-0.1971,0.0931-0.2508,0.179
		c-0.2593-0.0997-0.5194-0.1971-0.7801-0.2928c-0.0363-0.151-0.1187-0.2929-0.3021-0.3618
		c-0.7351-0.2495-1.4369-0.5694-2.1053-0.9595c-0.2-0.1075-0.4162-0.0474-0.5701,0.0812c-0.0358-0.0108-0.0724-0.0191-0.1082-0.0297
		c0.2028-0.259,0.1637-0.71-0.234-0.7971c-0.1262-0.0277-0.2525-0.0553-0.3787-0.083c-0.1171-0.0256-0.2427-0.0019-0.3536,0.0522
		c-0.1124-0.014-0.2386-0.0023-0.5149,0.0128c-0.1488,0.0082-0.2601,0.07-0.3402,0.1554c-0.2188-0.0006-0.4377-0.0012-0.6565-0.0018
		c-0.0476-0.0001-0.0875,0.0134-0.1287,0.0247c-0.1506-0.0802-0.3036-0.1552-0.4537-0.2364
		c0.1592-0.2248,0.1649-0.5589-0.1379-0.7096c-3.7869-1.8845-7.4662-3.9493-11.0478-6.1998
		c-0.2352-0.1478-0.4972-0.0433-0.6454,0.1437c-0.1113-0.1093-0.2397-0.2133-0.3559-0.3194
		c-0.0305-0.0678-0.0558-0.1262-0.0963-0.2124c-0.0818-0.1735-0.2413-0.2388-0.4059-0.236
		c-0.0247-0.0205-0.0445-0.0415-0.0695-0.062c-0.3381-0.2766-1.0411-0.0298-0.8357,0.4865c0.0242,0.0608,0.0421,0.107,0.0621,0.1579
		c-0.0966,0.1001-0.154,0.2365-0.1575,0.3754c-0.3676,0.0458-0.6607,0.5068-0.3147,0.8368
		c0.1416,0.1351,0.2906,0.2577,0.4339,0.3894c-0.0328,0.0484-0.0578,0.1047-0.068,0.1736
		c-0.1828,1.2395-0.0556,6.0102,1.5964,6.9136c0.1881,0.5181,0.3936,1.0342,0.6377,1.5497c0.1085,0.229,0.3669,0.2803,0.5849,0.2109
		c0.625,1.0335,1.3323,1.9723,2.1335,2.5897c0.0505,0.0882,0.1364,0.1518,0.2497,0.1836c0.0368,0.0426,0.0801,0.0832,0.1383,0.118
		c0.6772,0.4046,1.3245,0.6242,1.9946,0.6958c0.3311,0.7105,1.7669,0.8979,2.3967,0.9262c0.4469,0.02,0.6363-0.5482,0.3553-0.8501
		c0.4885,0.0762,0.977,0.1524,1.4655,0.2286c0.3405,0.0531,0.6169-0.2157,0.6316-0.4952c0.0121-0.0156,0.0233-0.0317,0.0335-0.0489
		c0.1269,0.0277,0.2538,0.065,0.381,0.0905c0.0454,0.0348,0.0972,0.0627,0.1572,0.0784c0.9155,0.2399,0.7181,0.2157,1.6645,0.2127
		c0.0954-0.0003,0.172-0.0237,0.2386-0.057c1.524,0.2263,3.0479,0.4528,4.572,0.6792c0.2731,0.0406,0.4719-0.1189,0.5638-0.3176
		c1.1277,1.3344,2.2554,2.6689,3.3831,4.0033c0.2864,0.3388,0.8573,0.0568,0.8536-0.3536c-0.0019-0.21-0.0037-0.42-0.0056-0.63
		c-0.0038-0.4258-0.4397-0.5641-0.7347-0.4263c-0.4338-0.5133-0.8676-1.0266-1.3014-1.5398
		c0.8677,0.5743,1.7228,1.1676,2.5775,1.7615c-0.0165,0.2198,0.0171,0.461,0.1201,0.7221c0.4161,1.0546,0.6444,2.1439,0.9152,3.2199
		c-0.7773,0.5361-1.4745,1.4168-1.9821,2.3061c-0.1301,0.0365-0.2615,0.0855-0.3943,0.1638
		c-0.4685,0.2309-0.9369,0.4619-1.4054,0.6929c-0.271,0.1057-0.4825,0.2508-0.6491,0.4173c-0.3155-0.0112-0.6392,0.0769-0.93,0.2752
		c-0.4107-0.169-0.8263-0.3212-1.2655-0.372c-0.8131-0.0942-1.7621-0.0184-2.6239,0.2598
		c-1.8419-0.3103-4.1563-0.6208-5.7787-0.3095c-5.4249,1.041-2.6918,7.9672-1.282,11.2009
		c-0.0469,0.0883-0.0939,0.1773-0.1163,0.2733c-0.1087,0.4651,0.0866,0.897,0.4268,1.1947c0.4789,0.6851,1.4846,0.7999,2.0634,0.168
		c0.4606-0.5029,0.4142-1.1547,0.0625-1.6431c0.0272-0.1692,0.023-0.3563-0.0253-0.5614c-0.094-0.399-0.3306-1.0555-0.5932-1.8161
		c0.5854-0.3383,0.98-1.0029,0.7503-1.6492c0.0385-0.0365,0.0866-0.0814,0.1518-0.1398c0.1587-0.1425,0.289-0.3374,0.4393-0.4914
		c0.3735-0.383,0.7832-0.6891,1.2388-0.9687c0.0266-0.0163,0.0555-0.0267,0.0823-0.0424c1.3463-0.3826,2.66-0.442,4.0743-0.208
		c1.0383,0.1718,1.9899,0.3076,2.9415,0.008c0.4656,0.2043,0.9304,0.3938,1.392,0.5452c0.2969,0.1787,0.6099,0.3294,0.9031,0.4512
		c0.9602,0.3989,1.8497,0.613,2.8223,0.5713c0.4415,0.1876,0.7994,0.3264,1.0159,0.4015c2.2471,0.7799,7.5734,0.2632,9.1838-2.1896
		c0.7004-0.2297,0.9503-0.9181,0.8148-1.5659c0.0615-0.0462,0.1233-0.0915,0.1813-0.1486c0.4911-0.4832,0.7759-1.1393,0.9346-1.8438
		c0.187-0.1937,0.3466-0.4124,0.4371-0.6582c0.119-0.3232,0.2264-0.6529,0.3231-0.988c0.0165-0.026,0.033-0.046,0.0494-0.0723
		c1.0914-1.74,1.9082-3.881,0.6958-5.5492c0.0096-0.6554,0.0018-1.3136-0.0259-1.9706
		C114.9965,130.3332,115.5724,129.9941,115.4531,129.5422z"/>
	<path class="st3" d="M96.1633,121.3986c-0.5411,0.3745-1.9619-0.0358-2.5812-0.2292c-0.2366-0.0739-0.4558-0.175-0.668-0.287
		c-0.0163-0.8527-0.5975-1.6942-1.6312-1.5944c-5.5528,0.5363-10.5928-4.3905-15.1183-7.0634
		c-1.3947-0.8238-2.4437,1.0961-1.5176,2.1536c2.3493,2.6827,5.5554,4.1609,8.6045,5.9343
		c2.1752,1.2652,4.4977,2.1834,6.8854,2.0625c1.8414,2.1373,7.3283,2.4544,9.2623,0.7481
		C100.7923,121.8939,97.6745,120.3527,96.1633,121.3986z"/>
	<path class="st3" d="M110.3786,115.2568c-0.4777-0.7486-1.5382-0.997-2.2882-0.5035c-0.5068,0.3335-0.9671,0.7241-1.4572,1.0795
		c-0.5676,0.4117-1.1701,0.7314-1.6701,1.2345c-1.0431,1.0498,0.1594,2.8294,1.5202,2.4018c1.2672-0.3982,2.2937-1.337,3.3639-2.096
		C110.5765,116.8557,110.8765,116.037,110.3786,115.2568z"/>
	<path class="st1" d="M119.3956,159.2794c-0.1541-0.1498-0.3051-0.3039-0.4593-0.4541c-0.0085-0.0419-0.0125-0.084-0.0252-0.1254
		c-0.0661-0.2169-0.1322-0.4338-0.1983-0.6508c-0.1691-0.5546-0.6439-1.0066-1.2133-1.1308
		c-0.1572-0.0343-0.3145-0.0686-0.4717-0.1029c-0.11-0.1269-0.2282-0.2469-0.3345-0.3772c-0.436-0.6635-0.9327-1.3091-1.4975-1.8511
		c-0.004,0.0057-0.008,0.0113-0.012,0.017c-0.6932-0.6059-1.6247-0.3933-2.1036,0.2024c-0.5268-1.0059-1.089-2.0143-1.8881-2.7546
		c-0.475-0.44-1.4114-0.6077-1.9555-0.17c-0.026,0.0209-0.0519,0.0419-0.0779,0.0627c-0.8485-0.1253-1.6909-0.167-2.6383-0.1206
		c-0.6584,0.0321-1.3103,0.5436-1.5192,1.1831c-0.0832,0.0667-0.1636,0.142-0.2375,0.2341
		c-0.1946,0.2421-0.389,0.4843-0.5834,0.7265c-0.3184,0.2608-0.6236,0.5366-0.9378,0.8013
		c-0.3673-0.083-0.7667-0.0319-1.1382,0.2262c-0.8138,0.5655-1.8817,1.4598-2.5031,2.4799
		c-0.6082-0.0818-1.2162-0.0847-1.8241-0.0504c-2.6853-0.4201-3.4915-0.0039-5.1652-2.4888
		c-1.0942-1.6243-3.6925,0.0301-2.5678,1.6415c2.3875,3.421,2.6477,3.3781,5.9267,3.8929c0.2523,0.208,0.5889,0.3325,1.0134,0.3193
		c0.282,0.2661,0.6577,0.4474,1.1058,0.4725c1.0727,0.06,1.4415-0.0111,1.9561-0.1234c1.127,1.6805,2.8614,3.8044,4.7817,4.2616
		c0.0121,0.0028,0.0253,0.001,0.0375,0.0036c-0.762,0.7152-0.3414,2.2541,0.7232,2.4523c3.5099,0.6534,5.6767,0.6036,7.3193-1.6942
		c0.3461-0.0134,0.7016-0.1427,1.0192-0.4445c0.4871-0.3904,0.9147-0.8336,1.3103-1.3053c0.7418-0.4597,1.3796-0.9595,1.9949-1.5608
		c0.0304-0.0291,0.0579-0.059,0.085-0.0893c0.144-0.1432,0.2889-0.302,0.4332-0.455c0.2874,0.0146,0.5787-0.0179,0.8807-0.1259
		c0.4281-0.1532,0.871-0.5136,1.0068-0.9783C119.9762,160.6242,119.9724,159.8406,119.3956,159.2794z"/>
	<path class="st4" d="M110.466,165.6129c-0.6205,0.2399-1.3933,0.0101-2.0394-0.0503c-0.7981-0.0746-1.5968-0.1239-2.3978-0.1548
		c-1.928-0.074-1.8225,2.918,0.092,2.9916c0.9182,0.0353,1.8338,0.0938,2.7473,0.1931c0.8539,0.0929,1.6595,0.197,2.4816-0.1209
		C113.1358,167.7809,112.2659,164.9169,110.466,165.6129z"/>
</g>
<g id="Layer_1">
	<g>
		<path class="st1" d="M111.9194,49.3647c-0.7676-0.334-1.5449-0.8223-2.25-1.4169c-0.0488,0.0176-0.0996,0.0225-0.1465,0.0449
			c0-0.0625-0.0058-0.1221-0.0058-0.1837c-1.0606-0.9344-1.9375-2.1084-2.2969-3.3856c-0.0898-0.3232-0.1777-0.6378-0.2656-0.9522
			c-0.0039,0.0019-0.0078,0-0.0117,0c-1-2.4122-2.5196-4.459-4.668-5.7413c-0.0215-0.0214-0.0371-0.0459-0.0586-0.0663
			c-0.6816-0.7745-1.5879-0.8106-2.3223-0.4688c-7.2304-2.7929-15.0937-1.5263-19.3994,4.1466
			c-1.7397,1.6953-3.1421,3.7304-4.7969,5.535c-0.2094,0.2276-0.331,0.465-0.4101,0.6992c-0.0825,0-0.1651,0-0.2476-0.0018
			c-0.6836-0.0069-1.3711,0.4784-1.6699,1.0751c-0.1216,0.2402-0.2402,0.4834-0.354,0.7285
			c-0.3662,0.7638-0.1133,1.504,0.3994,2.0226c0.0996,1.4657,0.1626,2.9462,0.1362,4.3994
			c-0.0356,1.9795,2.3511,2.5995,3.4424,1.6142c0.628,2.1201,1.7666,3.9824,3.6577,5.0449c0.793,0.4462,1.5547,0.2871,2.1153-0.1464
			c0.8359,0.3368,1.8496,0.0634,2.3828-0.6934c0.6289-0.8945,0.4014-2.1484-0.4824-2.7803
			c-0.4434-0.3174-0.9063-0.5283-1.3907-0.6523c-1.6806-2.6231-2.0713-5.7413-2.1464-8.8076
			c0.2158-0.2305,0.3857-0.5283,0.4677-0.9209c0.292-1.4054,0.7412-2.6154,1.3145-3.6524c1.1846-1.1621,2.499-2.1671,4.2148-2.873
			c0.1846,0.2235,0.419,0.3934,0.6944,0.495c0.4462,0.6543,1.2705,1.0929,2.0546,0.8535c1.3995-0.4296,2.8379-0.8055,4.3145-0.7645
			c0.4199,0.0117,0.7686-0.0948,1.0586-0.2686c1.3584,0.2821,2.5977,0.3399,3.8887,0.1181c0.9101,0.459,1.8222,0.9044,2.7675,1.1982
			c0.2911,0.0918,0.5625,0.1241,0.8165,0.1154c0.4218,0.7021,0.7656,1.4804,1.0292,2.3163
			c-0.3261,0.4473-0.4589,1.0117-0.2011,1.6221c0.6738,1.5899,0.5019,3.2237,0.7558,4.8964
			c0.0332,0.2169,0.1133,0.4005,0.2129,0.5704c-0.0136,0.2569-0.0293,0.5117-0.0488,0.7647
			c-0.3477,1.5165-0.7441,2.916-2.4688,3.3135c-2.496,0.577-1.9589,4.5545,0.5333,3.955c0.3183-0.0772,0.6171-0.1582,0.9003-0.2431
			c0.6836,1.2656,3.1895,1.3418,3.8438-0.5265c0.2207-0.6317,0.4082-1.33,0.5742-2.0557c0.2949,0.049,0.6172,0.0353,0.9629-0.0752
			c0.918-0.2949,1.9336-0.374,2.6563-1.0838c0.7343-0.7188,0.9902-1.6749,1.1347-2.667c0.2285-1.5479,0.2168-3.3409-0.1152-4.8829
			C112.3003,49.5141,112.1069,49.4468,111.9194,49.3647z"/>
		<g>
			<polygon class="st5" points="78.3452,61.1557 104.7104,61.1557 106.9448,62.0084 105.2651,68.0239 80.0054,68.0239 			"/>
		</g>
		<g>
			<path class="st1" d="M101.6948,75.4614H83.5757c-1.9717,0-3.5703-1.5995-3.5703-3.5712v-3.8663h25.2597v3.8663
				C105.2651,73.8619,103.6655,75.4614,101.6948,75.4614"/>
		</g>
		<g>
			<path class="st6" d="M101.6948,76.2807H83.5757c-2.4209,0-4.3902-1.9706-4.3902-4.3905v-4.6875h26.8999v4.6875
				C106.0854,74.3101,104.1147,76.2807,101.6948,76.2807z M80.8257,68.8443v3.0459c0,1.5166,1.2343,2.75,2.75,2.75h18.1191
				c1.5156,0,2.75-1.2334,2.75-2.75v-3.0459H80.8257z"/>
		</g>
		<g>
			<path class="st0" d="M88.0054,61.1557c-3.9659-1.743-6.7344-5.7041-6.7344-10.3125c0-2.7206,0.9629-5.2158,2.5683-7.162
				c2.0645-2.501,15.0547-2.628,17.1153-0.3008c1.7617,1.9873,2.8301,4.5986,2.8301,7.4628c0,4.6074-2.7696,8.5685-6.7344,10.3125"
				/>
		</g>
		<g>
			<path class="st6" d="M87.2925,61.9752c-0.1211,0-0.2422-0.0274-0.3584-0.084c-4.3741-2.1271-7.0899-6.4689-7.0899-11.3282
				c0-2.413,0.6856-4.7608,1.9815-6.7823c0.2422-0.3818,0.7509-0.493,1.1328-0.2479c0.3799,0.2441,0.4922,0.7509,0.248,1.1327
				c-1.1269,1.7579-1.7217,3.7989-1.7217,5.8975c0,4.2266,2.3633,8.003,6.167,9.8544c0.4082,0.1964,0.5762,0.6886,0.3789,1.0948
				C87.8882,61.8043,87.5972,61.9752,87.2925,61.9752z"/>
		</g>
		<g>
			<path class="st6" d="M97.7026,61.9146c-0.2998,0-0.5888-0.166-0.7334-0.4532c-0.2021-0.4052-0.04-0.8984,0.3662-1.1005
				c3.7325-1.8712,6.0528-5.6261,6.0528-9.7979c0-2.3496-0.7325-4.5878-2.1172-6.4726c-0.2676-0.3643-0.1875-0.8779,0.1758-1.1475
				c0.3671-0.2685,0.8789-0.1905,1.1484,0.1748c1.5918,2.17,2.4336,4.7442,2.4336,7.4453c0,4.7968-2.666,9.1133-6.959,11.2657
				C97.9507,61.8863,97.8257,61.9146,97.7026,61.9146z"/>
		</g>
		<g>
			<path class="st6" d="M105.9018,68.8443H79.3686l-4.3183-16.9971v-0.1045c0-9.6954,7.8886-17.584,17.584-17.584
				c9.6972,0,17.5879,7.8886,17.5879,17.584v0.1045l-0.0254,0.0987L105.9018,68.8443z M80.644,67.2027h23.9824l3.9532-15.5615
				c-0.0547-8.7432-7.1875-15.8418-15.9453-15.8418c-8.7579,0-15.8887,7.0986-15.9434,15.8418L80.644,67.2027z"/>
		</g>
		<g>
			<path class="st6" d="M75.8706,52.3209c-0.4522,0-0.8203-0.3672-0.8203-0.8204v-15.956c0-0.4523,0.3681-0.8193,0.8203-0.8193
				c0.4531,0,0.8203,0.367,0.8203,0.8193v15.956C76.6909,51.9537,76.3237,52.3209,75.8706,52.3209z"/>
		</g>
		<g>
			<path class="st6" d="M109.4018,52.3209c-0.4531,0-0.8203-0.3672-0.8203-0.8204v-20.46c0-0.4541,0.3672-0.8202,0.8203-0.8202
				c0.4532,0,0.8204,0.3661,0.8204,0.8202v20.46C110.2222,51.9537,109.855,52.3209,109.4018,52.3209z"/>
		</g>
		<g>
			<path class="st6" d="M77.1763,59.4888h-1.7305c-1.8565,0-3.3667-1.5108-3.3667-3.3673v-6.4647
				c0-1.8555,1.5102-3.3672,3.3667-3.3672h0.7334c0.4526,0,0.8193,0.3672,0.8193,0.8202c0,0.4541-0.3667,0.8204-0.8193,0.8204
				h-0.7334c-0.9527,0-1.7256,0.7754-1.7256,1.7266v6.4647c0,0.9513,0.7729,1.7247,1.7256,1.7247h1.7305
				c0.4541,0,0.8212,0.3692,0.8212,0.8203C77.9975,59.1206,77.6304,59.4888,77.1763,59.4888z"/>
		</g>
		<g>
			<path class="st6" d="M109.8843,59.4888h-1.7305c-0.4531,0-0.8203-0.3682-0.8203-0.8223c0-0.4511,0.3672-0.8203,0.8203-0.8203
				h1.7305c0.9531,0,1.7265-0.7734,1.7265-1.7247v-6.4647c0-0.9512-0.7734-1.7266-1.7265-1.7266h-0.7344
				c-0.4512,0-0.8184-0.3663-0.8184-0.8204c0-0.453,0.3672-0.8202,0.8184-0.8202h0.7344c1.8574,0,3.3671,1.5117,3.3671,3.3672
				v6.4647C113.2514,57.978,111.7417,59.4888,109.8843,59.4888z"/>
		</g>
		<g>
			<path class="st6" d="M76.0503,49.7593c-0.2066,0-0.4141-0.0771-0.5723-0.2334c-0.3242-0.3154-0.3306-0.836-0.0137-1.1591
				c4.6563-4.7696,10.8487-7.3956,17.4366-7.3956c6.2041,0,12.1338,2.3672,16.6943,6.6651
				c0.3301,0.3105,0.3457,0.8301,0.0332,1.1601c-0.3086,0.3272-0.8301,0.3448-1.1582,0.0342
				c-4.2559-4.0108-9.7852-6.2187-15.5693-6.2187c-6.1426,0-11.919,2.4502-16.2637,6.9003
				C76.4765,49.6763,76.2641,49.7593,76.0503,49.7593z"/>
		</g>
		<g>
			<path class="st6" d="M106.9448,61.9752H78.3452c-0.4526,0-0.8189-0.3682-0.8189-0.8223c0-0.4523,0.3663-0.8203,0.8189-0.8203
				h28.5996c0.4531,0,0.8203,0.368,0.8203,0.8203C107.7651,61.607,107.3979,61.9752,106.9448,61.9752z"/>
		</g>
		<g>
			<path class="st7" d="M98.519,47.1098c0,1.6222-1.3144,2.9375-2.9365,2.9375c-1.6211,0-2.9365-1.3153-2.9365-2.9375
				c0-1.621,1.3154-2.9345,2.9365-2.9345C97.2046,44.1753,98.519,45.4888,98.519,47.1098"/>
		</g>
		<g>
			<path class="st7" d="M100.6167,51.5005c0,0.6563-0.5293,1.1884-1.1875,1.1884c-0.6543,0-1.1875-0.5321-1.1875-1.1884
				c0-0.6543,0.5332-1.1875,1.1875-1.1875C100.0874,50.313,100.6167,50.8462,100.6167,51.5005"/>
		</g>
		<g>
			<path class="st6" d="M102.7768,66.5024c-1.164,0-1.7461-0.8788-2.1308-1.4609c-0.3653-0.5527-0.5196-0.7266-0.7617-0.7266
				c-0.2442,0-0.3965,0.1739-0.7637,0.7266c-0.3848,0.5821-0.9649,1.4609-2.1309,1.4609c-1.164,0-1.7461-0.8788-2.1308-1.4609
				c-0.3662-0.5527-0.5196-0.7266-0.7617-0.7266c-0.2442,0-0.3985,0.1739-0.7647,0.7266c-0.3838,0.5821-0.9658,1.4609-2.1318,1.4609
				c-1.1641,0-1.7452-0.8788-2.1309-1.4609c-0.3662-0.5527-0.5176-0.7266-0.7617-0.7266c-0.2442,0-0.3975,0.1739-0.7656,0.7266
				c-0.3838,0.5821-0.9668,1.4609-2.1309,1.4609c-1.1641,0-1.7471-0.8788-2.1318-1.4609c-0.3662-0.5527-0.5205-0.7266-0.7647-0.7266
				c-0.4521,0-0.8203-0.3671-0.8203-0.8193c0-0.4541,0.3682-0.8212,0.8203-0.8212c1.1641,0,1.7481,0.8788,2.1328,1.4619
				c0.3653,0.5526,0.5196,0.7256,0.7637,0.7256c0.2451,0,0.3965-0.173,0.7637-0.7256c0.3867-0.5831,0.9668-1.4619,2.1328-1.4619
				c1.1641,0,1.7461,0.8788,2.1299,1.4637c0.3672,0.5508,0.5205,0.7238,0.7627,0.7238c0.2441,0,0.3974-0.173,0.7636-0.7256
				c0.3858-0.5831,0.9678-1.4619,2.1329-1.4619c1.164,0,1.746,0.8788,2.1298,1.4637c0.3662,0.5508,0.5186,0.7238,0.7627,0.7238
				c0.2442,0,0.3975-0.173,0.7637-0.7238c0.3848-0.5849,0.9648-1.4637,2.1309-1.4637c1.164,0,1.7441,0.8788,2.1308,1.4637
				c0.3653,0.5508,0.5176,0.7238,0.7617,0.7238c0.4512,0,0.8204,0.368,0.8204,0.8203
				C103.5972,66.1353,103.228,66.5024,102.7768,66.5024z"/>
		</g>
	</g>
	<g>
		<rect x="74.3764" y="87.729" class="st1" width="37.5118" height="8.7686"/>
		<rect x="79.4292" y="82.0103" class="st1" width="25.7969" height="5.4531"/>
		<g>
			<line class="st5" x1="73.852" y1="96.9693" x2="111.6479" y2="96.9693"/>
		</g>
		<g>
			<rect x="73.852" y="96.149" class="st6" width="37.7959" height="1.6405"/>
		</g>
		<g>
			<polygon class="st6" points="73.852,96.9693 74.2627,102.5122 78.0063,107.5703 81.2866,107.8828 93.2973,109.0508 
				105.6108,108.168 109.7397,105.3085 111.6479,99.8589 110.8296,96.9693 			"/>
		</g>
		<g>
			<path class="st6" d="M102.9116,109.416H82.5874c-5.2695,0-9.5557-4.287-9.5557-9.5571V87.5424
				c0-0.454,0.3672-0.8202,0.8203-0.8202h37.7959c0.4532,0,0.8203,0.3662,0.8203,0.8202v12.3165
				C112.4682,105.129,108.1811,109.416,102.9116,109.416z M74.6723,88.3619v11.497c0,4.3658,3.5499,7.9164,7.9151,7.9164h20.3242
				c4.3652,0,7.916-3.5506,7.916-7.9164v-11.497H74.6723z"/>
		</g>
		<g>
			<path class="st5" d="M96.4429,97.4537c0-2.1534-1.7481-3.9014-3.9024-3.9014c-2.1543,0-3.9023,1.748-3.9023,3.9014
				c0,2.1552,1.748,3.9032,3.9023,3.9032C94.6948,101.3569,96.4429,99.6089,96.4429,97.4537"/>
		</g>
		<g>
			<path class="st6" d="M92.5405,102.1773c-2.6055,0-4.7226-2.1201-4.7226-4.7236c0-2.6045,2.1171-4.7218,4.7226-4.7218
				c2.6035,0,4.7227,2.1173,4.7227,4.7218C97.2632,100.0572,95.144,102.1773,92.5405,102.1773z M92.5405,94.3726
				c-1.6992,0-3.082,1.3828-3.082,3.0811c0,1.6992,1.3828,3.083,3.082,3.083c1.6992,0,3.0801-1.3838,3.0801-3.083
				C95.6206,95.7554,94.2397,94.3726,92.5405,94.3726z"/>
		</g>
		<g>
			<path class="st6" d="M77.9057,106.7735c0-1.0527-0.852-1.9043-1.9052-1.9043c-1.0523,0-1.9053,0.8516-1.9053,1.9043
				c0,1.0507,0.853,1.9043,1.9053,1.9043C77.0537,108.6778,77.9057,107.8242,77.9057,106.7735"/>
		</g>
		<g>
			<path class="st6" d="M111.3725,106.7735c0-1.0527-0.8535-1.9043-1.9062-1.9043c-1.0508,0-1.9043,0.8516-1.9043,1.9043
				c0,1.0507,0.8535,1.9043,1.9043,1.9043C110.519,108.6778,111.3725,107.8242,111.3725,106.7735"/>
		</g>
		<g>
			<path class="st8" d="M109.2554,105.4747c0-0.6525-0.5313-1.1817-1.1836-1.1817c-0.6524,0-1.1817,0.5292-1.1817,1.1817
				c0,0.6543,0.5293,1.1836,1.1817,1.1836C108.7241,106.6583,109.2554,106.129,109.2554,105.4747"/>
		</g>
		<g>
			<path class="st8" d="M78.3657,105.4747c0-0.6525-0.5293-1.1817-1.1831-1.1817c-0.6519,0-1.1821,0.5292-1.1821,1.1817
				c0,0.6543,0.5302,1.1836,1.1821,1.1836C77.8364,106.6583,78.3657,106.129,78.3657,105.4747"/>
		</g>
		<g>
			<rect x="62.4482" y="96.4976" class="st6" width="11.8394" height="6.0497"/>
		</g>
		<g>
			<rect x="111.8882" y="96.4976" class="st6" width="11.8398" height="6.0497"/>
		</g>
		<g>
			<path class="st6" d="M106.4311,88.3619H77.8989v-7.6875h28.5322V88.3619z M79.5405,86.7222h25.25v-4.4073h-25.25V86.7222z"/>
		</g>
		<g>
			<path class="st5" d="M102.8237,79.2915H81.8491c-0.4531,0-0.8213-0.3671-0.8213-0.8203c0-0.4531,0.3682-0.8203,0.8213-0.8203
				h20.9746c0.4551,0,0.8223,0.3672,0.8223,0.8203C103.646,78.9244,103.2788,79.2915,102.8237,79.2915z"/>
		</g>
		<rect x="101.437" y="88.394" class="st4" width="9.4414" height="7.7119"/>
		<rect x="97.6128" y="82.3432" class="st4" width="7.1562" height="4.3702"/>
	</g>
	<g>
		<path class="st1" d="M80.9297,101.3538c-4.143-3.3824-8.8093-6.8176-13.8003-8.7471c-1.4261-0.5513-3.1849,0.1731-4.1934,1.1908
			c-1.1078,1.1199-0.8655,3.9572-1.9721,4.7368c-0.5135,0.363-0.8281,1.31-0.624,1.9081c1.2662,3.6979,4.9122,5.2694,8.0626,7.1465
			c2.7192,1.6191,5.4201,3.2711,8.1458,4.8798c3.1532,1.8604,6.5995,3.1506,9.5228,5.3803
			c0.1811,0.4039,0.4866,0.7557,0.9022,0.9787c-0.2436-0.1333-0.185-0.0945,0.1753,0.1177
			c0.2547,0.1304,0.5194,0.2411,0.7928,0.3303c0.3801,0.1433,0.8105,0.1801,1.212,0.2114c0.7163,0.0542,1.4074-0.0878,2.0968-0.2713
			c1.3181-0.3545,2.4532-1.4315,2.508-2.8461c0.006-0.1798-0.021-0.3508-0.0625-0.5169c0.9874-0.4627,1.7701-1.151,2.0555-2.2524
			c0.1778-0.6923,0.0802-1.4261-0.1842-2.0841c-0.064-0.1635-0.1467-0.3226-0.2392-0.4733
			c-0.077-0.2975-0.2204-0.5921-0.4677-0.8675C91.0006,105.8796,86.0158,103.5686,80.9297,101.3538z M70.3998,102.2035
			c-0.0217,0.0314-0.0416,0.0633-0.0612,0.0948c-0.6401-0.4278-1.2416-0.892-1.7877-1.4033
			C69.2387,101.3524,69.8798,101.8379,70.3998,102.2035z M91.5775,112.5218c-0.5829,0.4411-0.7938,1.3342-0.6316,2.0161
			c-0.393,0.1879-0.7071,0.4928-0.9091,0.8875c-0.0487,0.0192-0.0924,0.0339-0.1085,0.0377
			c-0.1749,0.0333-0.3194,0.0399-0.4542,0.0348c-0.057-0.0562-0.106-0.1143-0.1719-0.1674
			c-1.708-1.3623-3.5623-2.5154-5.4697-3.5941c0.7514-1.0593,1.3191-2.145,2.3966-2.9742c0.103-0.0803,0.1797-0.174,0.2543-0.268
			C88.3202,109.6274,90.0447,110.9297,91.5775,112.5218z"/>
		<g>
			<line class="st5" x1="71.7307" y1="101.8247" x2="61.8787" y2="95.6919"/>
		</g>
		<g>
			<path class="st6" d="M72.4271,102.2582c-0.2394,0.3847-0.7451,0.5024-1.1299,0.2629l-9.852-6.1328
				c-0.3847-0.2395-0.5007-0.7442-0.2612-1.1289c0.2394-0.3847,0.7435-0.5034,1.1282-0.2639l9.852,6.1329
				C72.549,101.3679,72.6666,101.8736,72.4271,102.2582z"/>
		</g>
		<g>
			<line class="st6" x1="96.8611" y1="117.4683" x2="88.0051" y2="111.9555"/>
		</g>
		<g>
			<path class="st6" d="M97.5592,117.9029c-0.2395,0.3847-0.747,0.5013-1.1316,0.2618l-8.856-5.5128
				c-0.3847-0.2395-0.5024-0.7453-0.2629-1.1299c0.2394-0.3847,0.7452-0.5024,1.1299-0.2629l8.856,5.5128
				C97.6792,117.0114,97.7986,117.5182,97.5592,117.9029z"/>
		</g>
		<g>
			<path class="st6" d="M96.0096,114.4456l-2.2367,3.5931c-1.4152,2.2733-4.4151,2.9716-6.6884,1.5565l-25.4648-15.8518
				c-2.2724-1.4146-2.9692-4.4141-1.5541-6.6875l2.2367-3.5931c1.4154-2.2736,4.4146-2.9729,6.6871-1.5583l25.4648,15.8518
				C96.7275,109.1714,97.4249,112.1719,96.0096,114.4456z M61.4568,97.922c-0.9365,1.5043-0.4748,3.4919,1.0299,4.4286
				l25.4649,15.8518c1.5056,0.9372,3.4937,0.4746,4.4301-1.0297l2.2367-3.5931c0.9377-1.5064,0.4742-3.4928-1.0314-4.4301
				L68.1222,93.2977c-1.5048-0.9367-3.491-0.4752-4.4287,1.0311L61.4568,97.922z"/>
		</g>
		<g>
			<path class="st5" d="M89.727,109.1894c-1.5271-0.9507-3.5368-0.4831-4.4877,1.0444c-0.9506,1.5271-0.483,3.5368,1.0442,4.4874
				c1.5287,0.9517,3.5367,0.4831,4.4874-1.044C91.7217,112.1497,91.2558,110.141,89.727,109.1894"/>
		</g>
		<g>
			<path class="st6" d="M91.4672,114.1107c-1.188,1.9085-3.7088,2.4949-5.6172,1.3069c-1.9086-1.188-2.4951-3.7087-1.3071-5.6173
				c1.188-1.9084,3.7089-2.4949,5.6174-1.3069C92.0687,109.6814,92.6552,112.2022,91.4672,114.1107z M85.9358,110.6674
				c-0.7104,1.1412-0.3596,2.6473,0.7812,3.3575c1.1407,0.7101,2.647,0.36,3.3575-0.7812c0.7103-1.1412,0.3598-2.6478-0.7809-3.3579
				C88.1527,109.1756,86.6462,109.5262,85.9358,110.6674z"/>
		</g>
		<g>
			<path class="st6" d="M75.6784,97.0352l-6.5024,10.4457c-0.2394,0.3847-0.7451,0.5024-1.1299,0.2629
				c-0.3846-0.2394-0.5023-0.7452-0.2629-1.1299l6.5024-10.4457c0.2395-0.3846,0.7456-0.5027,1.1302-0.2633
				C75.8006,96.1444,75.9179,96.6506,75.6784,97.0352z"/>
		</g>
		<g>
			<path class="st6" d="M81.9859,100.9616l-6.5024,10.4457c-0.2395,0.3846-0.7469,0.5013-1.1299,0.2629
				c-0.3864-0.2405-0.5024-0.7453-0.2629-1.1299l6.5024-10.4457c0.2395-0.3846,0.7438-0.5038,1.1302-0.2633
				C82.1063,100.0697,82.2253,100.577,81.9859,100.9616z"/>
		</g>
		<g>
			<path class="st8" d="M103.9103,125.2885l-6.853-4.266c-0.9584-0.5966-1.2519-1.8583-0.6551-2.8171l0.9176-1.474
				c0.5971-0.9593,1.8589-1.2528,2.8172-0.6563l6.853,4.266"/>
		</g>
		<g>
			<path class="st6" d="M107.6864,120.7746c-0.2394,0.3847-0.7452,0.5024-1.1299,0.2629l-6.853-4.266
				c-0.5737-0.3571-1.3304-0.1799-1.6873,0.3934l-0.9176,1.474c-0.3566,0.5729-0.1815,1.3301,0.3922,1.6872l6.853,4.266
				c0.3847,0.2394,0.5024,0.7452,0.2629,1.1299c-0.2392,0.3842-0.7452,0.5023-1.1299,0.2629l-6.853-4.266
				c-1.3414-0.835-1.7527-2.606-0.918-3.947l0.9176-1.4741c0.8348-1.341,2.6058-1.7542,3.9472-0.9191l6.853,4.2659
				C107.8082,119.8841,107.9259,120.3899,107.6864,120.7746z"/>
		</g>
		<g>
			<path class="st5" d="M106.9898,120.3415c-1.3663-0.8506-3.1631-0.4328-4.0137,0.9334c-0.8502,1.3659-0.4321,3.1631,0.9342,4.0136
				c1.3663,0.8505,3.1617,0.4313,4.012-0.9346C108.7728,122.9876,108.3561,121.192,106.9898,120.3415"/>
		</g>
		<g>
			<path class="st6" d="M108.6187,124.7874c-1.0879,1.7477-3.3942,2.2854-5.1419,1.1975c-1.7493-1.089-2.285-3.3958-1.1971-5.1435
				c1.0885-1.7484,3.3945-2.2857,5.1439-1.1968C109.1712,120.7326,109.7071,123.0389,108.6187,124.7874z M103.6725,121.7085
				c-0.61,0.9799-0.3086,2.2736,0.6713,2.8836c0.98,0.61,2.2721,0.3083,2.8821-0.6717c0.61-0.9799,0.3106-2.2729-0.6694-2.8829
				C105.5766,120.4275,104.2825,120.7285,103.6725,121.7085z"/>
		</g>
	</g>
	<g>
		<path class="st1" d="M110.6686,113.4878c2.054-1.5418,3.936-3.2847,5.9155-4.9191c2.0016-1.6526,4.6097-2.3673,6.6005-4.0975
			c0.9773-0.8468,1.495-1.8957,1.6667-3.0039c-0.1372-0.0848-0.2661-0.1815-0.3971-0.2746
			c0.0258-0.2276,0.0129-0.4613-0.0517-0.6945c-0.4621-1.7141-1.416-3.134-2.6239-4.4109
			c-0.1738-0.1833-0.3928-0.3523-0.6335-0.4886c-0.0998-0.4709-0.1711-0.9422-0.2002-1.4166
			c-1.3853-0.6976-2.9748-0.8066-4.502,0.0644c-0.7328,0.4184-1.0265,1.0903-1.0204,1.7585
			c-3.0563,1.2082-5.5646,3.5897-8.2856,5.4077c-5.3656,3.5837-11.0374,6.6137-16.4844,10.0546
			c-0.9996,0.6327-1.0566,1.6661-0.6244,2.4693c-0.0398,0.0278-0.0734,0.0634-0.1122,0.0956
			c0.0015-0.0057-0.0012-0.0105-0.0002-0.0143c-0.0231,0.0183-0.0405,0.0459-0.0639,0.066
			c-0.0816,0.0713-0.1546,0.149-0.2235,0.2339c-0.0341,0.0374-0.0664,0.0753-0.0934,0.1167
			c-0.0899,0.1258-0.1689,0.2563-0.2253,0.401c-0.0603,0.1517-0.0937,0.3086-0.1176,0.468
			c-0.0054,0.0429-0.0102,0.0841-0.0107,0.1244c-0.0232,0.3171,0.0194,0.6374,0.1452,0.9333
			c0.0652,0.1506,0.1525,0.2868,0.2507,0.4117c0.0078,0.0163,0.0138,0.032,0.0241,0.0469c-0.001-0.0043,0.0005-0.01,0.002-0.0157
			c0.322,0.4023,0.7852,0.6601,1.2849,0.7336c-0.2904,0.6324-0.211,1.3867,0.1732,2.0276c0.3061,0.5153,0.8249,0.8302,1.3841,0.9235
			c0.0396,0.1862,0.0983,0.3694,0.212,0.5429c0.8512,1.3119,2.0727,1.2995,2.8938,0.7307c0.3843,0.1662,0.8421,0.1923,1.3627-0.0196
			C101.8715,119.718,106.3958,116.6958,110.6686,113.4878z M95.7069,117.9408c-0.2052,0.0812-0.3758,0.1916-0.5315,0.3141
			c-0.1522-0.0584-0.3098-0.1041-0.472-0.1248c-0.0745-0.3146-0.2182-0.6112-0.4105-0.9004
			c-0.3533-0.5359-0.9632-0.8041-1.5775-0.811c0.2386-0.6582,0.2929-1.2074,0.1709-1.6477c0.0077-0.0061,0.0143-0.0083,0.0234-0.012
			c3.0678-1.9528,6.2388-3.7307,9.3731-5.5688c0.0223,0.2827,0.0635,0.5704,0.1514,0.8643
			c0.4372,1.4408,1.2429,2.4054,2.2185,2.9178C101.8217,114.9391,98.8435,116.6831,95.7069,117.9408z"/>
		<g>
			<path class="st6" d="M91.6144,120.5681l-2.3062-3.549c-1.4593-2.2444-0.8199-5.2593,1.424-6.7167l25.1514-16.3472
				c2.2453-1.459,5.2567-0.8184,6.7155,1.4278l2.3077,3.5474c1.4597,2.2466,0.8218,5.2597-1.4236,6.7187l-25.1508,16.3454
				C96.088,123.4537,93.075,122.8148,91.6144,120.5681z M121.226,96.2746c-0.9658-1.4857-2.9616-1.9103-4.4476-0.9434
				L91.627,111.6784c-1.4878,0.9664-1.9121,2.9613-0.9434,4.4476l2.3062,3.5491c0.9669,1.486,2.9618,1.9103,4.4496,0.9439
				l25.1504-16.3475c1.4863-0.9646,1.9093-2.962,0.9434-4.4476L121.226,96.2746z"/>
		</g>
		<g>
			<path class="st6" d="M116.0031,109.5324l-6.7052-10.3181c-0.2475-0.3785-0.1416-0.8859,0.2412-1.1342
				c0.378-0.2456,0.8854-0.1397,1.1342,0.2413l6.7057,10.3161c0.246,0.3802,0.1369,0.8887-0.2426,1.1359
				C116.7569,110.0205,116.249,109.9125,116.0031,109.5324z"/>
		</g>
		<g>
			<path class="st6" d="M109.7724,113.5822l-6.7048-10.3179c-0.247-0.3804-0.1388-0.8892,0.2394-1.1347
				c0.3809-0.2488,0.8891-0.1387,1.1365,0.2398l6.7062,10.3184c0.2465,0.3783,0.1383,0.887-0.2431,1.1337
				C110.5281,114.0689,110.0197,113.9608,109.7724,113.5822z"/>
		</g>
		<g>
			<line class="st5" x1="113.3375" y1="103.9266" x2="123.0672" y2="97.6017"/>
		</g>
		<g>
			<path class="st6" d="M112.6492,104.373c-0.2468-0.3804-0.1391-0.8873,0.2413-1.1341l9.7297-6.3231
				c0.3794-0.2471,0.8863-0.1394,1.1333,0.2411c0.2469,0.3804,0.1406,0.8856-0.2398,1.1326l-9.7297,6.3249
				C113.4036,104.8614,112.8976,104.7538,112.6492,104.373z"/>
		</g>
		<g>
			<path class="st8" d="M96.9208,118.0718l6.767-4.399c0.9487-0.6159,1.2149-1.8829,0.6005-2.8292l-0.947-1.4543
				c-0.6158-0.9487-1.8818-1.2187-2.8286-0.6023l-6.767,4.399"/>
		</g>
		<g>
			<path class="st6" d="M96.2311,118.5179c-0.2455-0.3781-0.1391-0.8874,0.2432-1.1338l6.767-4.3991
				c0.5658-0.3676,0.7263-1.1272,0.3592-1.6949l-0.9468-1.4543c-0.3676-0.5659-1.1287-0.7287-1.6945-0.3611l-6.7671,4.399
				c-0.3804,0.2469-0.8891,0.1387-1.136-0.2418c-0.2455-0.378-0.1393-0.8872,0.2412-1.1342l6.7689-4.3985
				c1.3248-0.8619,3.1033-0.4826,3.9634,0.8417l0.9463,1.4562c0.8619,1.3249,0.4865,3.1044-0.8402,3.9658l-6.7684,4.3967
				C96.9888,119.0069,96.48,118.8987,96.2311,118.5179z"/>
		</g>
		<g>
			<path class="st5" d="M93.7457,113.186c1.3468-0.8763,3.1546-0.4934,4.0304,0.8554c0.8758,1.3487,0.4915,3.1541-0.8553,4.0304
				c-1.3487,0.8758-3.1528,0.4939-4.0305-0.8553C92.0127,115.8673,92.3951,114.0613,93.7457,113.186"/>
		</g>
		<g>
			<path class="st6" d="M92.2021,117.6648c-1.1232-1.7272-0.6315-4.0458,1.0952-5.1671s4.0452-0.6295,5.1666,1.0972
				c1.1213,1.7267,0.6301,4.0433-1.0966,5.1647C95.6424,119.8814,93.3239,119.3897,92.2021,117.6648z M97.0885,114.4878
				c-0.6294-0.9663-1.9281-1.243-2.8964-0.6141c-0.9682,0.6289-1.2448,1.9275-0.614,2.8963c0.6269,0.9677,1.928,1.243,2.8962,0.6141
				C97.4407,116.7547,97.7155,115.4556,97.0885,114.4878z"/>
		</g>
	</g>
	<g>
		<path class="st6" d="M73.6859,111.5814c-0.1474,6.0626,0.2712,14.0925,6.9654,16.6635c3.383,1.2992,6.9611,0.5184,10.4649,0.5183
			c2.2003,0,4.6978,0.3023,6.375,1.8983c2.3439,2.2304,1.5303,5.8366-1.9485,6.181c-3.4753,0.3441-6.6588-1.7729-10.1906-0.7554
			c-2.515,0.7245-3.9916,2.7322-4.4099,5.2582c-0.9802,5.92,4.2344,11.3647,9.3579,13.367
			c1.1993,0.4687,1.7191-1.4644,0.5317-1.9285c-3.3397-1.3052-6.4713-4.2406-7.6218-7.6916
			c-0.5503-1.6505-0.6033-3.6701,0.2756-5.2324c1.0884-1.9348,3.4207-2.2294,5.4252-2.0235
			c3.0658,0.315,6.1749,1.8587,9.1844,0.3614c2.047-1.0184,3.0207-3.1477,2.6757-5.3783c-0.9809-6.34-8.5547-6.1066-13.3506-5.8659
			c-3.973,0.1994-7.656-0.3179-9.9078-3.96c-2.0863-3.3743-1.9193-7.5996-1.8266-11.4121
			C75.7172,110.2939,73.7172,110.2945,73.6859,111.5814L73.6859,111.5814z"/>
	</g>
	<g>
		<path class="st6" d="M108.7313,114.9722c1.4926,1.9488,3.0937,3.8984,4.1563,6.1277c1.4445,3.0305,2.0291,6.8528,1.785,10.1899
			c-0.2232,3.0505-1.0224,6.3704-2.6722,8.9767c-2.0785,3.2834-5.5402,4.6119-9.3709,4.4794
			c-2.9901-0.1035-5.7903-1.8703-8.8487-2.1163c-1.9867-0.1598-4.4976-0.325-6.3019,0.7137
			c-4.1836,2.4085-0.1344,9.215,2.5406,11.1432c1.0457,0.7538,2.0452-0.9803,1.0095-1.7269
			c-1.7186-1.2388-2.6155-3.1022-3.06-5.1293c-0.5266-2.4014,1.1267-2.9812,3.1009-3.0753c3.0119-0.1435,5.6899,0.5771,8.51,1.5537
			c4.661,1.6141,10.4462,0.1699,13.4463-3.8153c2.9867-3.9673,4.1123-9.7092,3.5326-14.5722
			c-0.3112-2.6113-0.7875-5.2462-1.9442-7.6307c-1.0804-2.227-2.6599-4.1738-4.1563-6.1277
			C109.6862,112.9547,107.9483,113.9498,108.7313,114.9722L108.7313,114.9722z"/>
	</g>
	<g>
		<path class="st6" d="M108.5011,59.2686c-0.0662,1.572,0.1834,3.4649,1.8946,4.0818c1.3713,0.4944,2.6115-0.3969,3.1473-1.629
			c0.6485-1.4913,0.7996-3.5675,0.2547-5.1125c-0.4855-1.3766-1.9089-2.3531-3.3567-1.7889
			c-1.1862,0.4623-0.6703,2.3969,0.5317,1.9286c1.4157-0.5517,1.1396,2.5125,1.01,3.2119
			c-0.0913,0.4926-0.3157,1.9718-1.1841,1.3055c-0.4861-0.3729-0.3196-1.4739-0.2975-1.9974
			C110.5553,57.9816,108.5552,57.9841,108.5011,59.2686L108.5011,59.2686z"/>
	</g>
	<g>
		<path class="st6" d="M88.6909,68.7897c0,0.4583,0,0.9167,0,1.375c0,1.2869,2,1.2891,2,0c0-0.4583,0-0.9167,0-1.375
			C90.6909,67.5028,88.6909,67.5007,88.6909,68.7897L88.6909,68.7897z"/>
	</g>
	<g>
		<path class="st6" d="M89.7326,71.4147c1.8889,0,3.7778,0,5.6666,0c1.2869,0,1.2891-2,0-2c-1.8888,0-3.7777,0-5.6666,0
			C88.4457,69.4147,88.4435,71.4147,89.7326,71.4147L89.7326,71.4147z"/>
	</g>
	<g>
		<path class="st6" d="M96.6909,70.3314c0-0.5972,0-1.1945,0-1.7917c0-1.2869-2-1.289-2,0c0,0.5972,0,1.1945,0,1.7917
			C94.6909,71.6183,96.6909,71.6204,96.6909,70.3314L96.6909,70.3314z"/>
	</g>
	<g>
		<path class="st6" d="M94.8576,68.0397c-1.3472,0-2.6945,0-4.0417,0c-1.2869,0-1.289,2,0,2c1.3472,0,2.6945,0,4.0417,0
			C96.1445,70.0397,96.1466,68.0397,94.8576,68.0397L94.8576,68.0397z"/>
	</g>
	<g>
		<path class="st6" d="M79.879,71.5183c1.1389,1.1389,2.2778,2.2777,3.4167,3.4166c0.4556,0.4557,1.1629-0.2512,0.7071-0.7071
			c-1.1389-1.1389-2.2778-2.2777-3.4167-3.4166C80.1305,70.3555,79.4232,71.0624,79.879,71.5183L79.879,71.5183z"/>
	</g>
	<g>
		<path class="st6" d="M82.8159,73.7064c7.0417,0,14.0833,0,21.125,0c0.6435,0,0.6445-1,0-1c-7.0417,0-14.0833,0-21.125,0
			C82.1725,72.7064,82.1714,73.7064,82.8159,73.7064L82.8159,73.7064z"/>
	</g>
	<g>
		<path class="st6" d="M104.4624,70.7278c-1.4306,1.4306-2.8612,2.8611-4.2917,4.2917c-0.4556,0.4556,0.2513,1.1629,0.7071,0.7071
			c1.4306-1.4306,2.8611-2.8611,4.2917-4.2917C105.6251,70.9793,104.9182,70.272,104.4624,70.7278L104.4624,70.7278z"/>
	</g>
	<g>
		<path class="st6" d="M104.5897,72.4643c0.0239-0.0576,0.0478-0.1152,0.0718-0.1729c0.2371-0.5716-0.6042-0.7881-0.9139-0.3853
			c-0.5755,0.7484-1.2223,1.4348-1.9201,2.0698c-0.4779,0.435,0.2283,1.1331,0.7071,0.7071
			c0.8133-0.7235,1.6265-1.447,2.4397-2.1706c-0.2357-0.2357-0.4714-0.4714-0.7071-0.7071
			c-0.8481,0.8646-1.6517,1.7685-2.4111,2.712c-0.321,0.3988,0.1154,1.1608,0.6059,0.7853
			c0.8278-0.6337,1.5076-1.3863,2.0238-2.2947c-0.2879-0.1683-0.5757-0.3365-0.8635-0.5048
			c-0.2939,0.5593-0.6286,1.0879-1.0086,1.5927c-0.2944,0.391,0.293,0.9809,0.6841,0.6841
			c0.0929-0.0706,0.1858-0.1411,0.2787-0.2116c0.4053-0.3076,0.1954-1.1367-0.3852-0.9139c-0.35,0.1343-0.7,0.2686-1.05,0.4029
			c-0.5948,0.2282-0.3366,1.1954,0.2658,0.9643c0.35-0.1343,0.7-0.2686,1.05-0.4029c-0.1284-0.3046-0.2569-0.6093-0.3853-0.9139
			c-0.0929,0.0705-0.1858,0.1411-0.2787,0.2116c0.228,0.228,0.456,0.456,0.6841,0.6841c0.38-0.5048,0.7147-1.0333,1.0086-1.5926
			c0.2984-0.568-0.5441-1.067-0.8635-0.5048c-0.4267,0.7511-0.977,1.4094-1.665,1.936c0.202,0.2618,0.404,0.5235,0.6059,0.7853
			c0.7594-0.9435,1.563-1.8474,2.4111-2.712c0.4544-0.4631-0.2289-1.1325-0.7071-0.7071c-0.8132,0.7236-1.6264,1.4471-2.4397,2.1706
			c0.2357,0.2357,0.4714,0.4714,0.7071,0.7071c0.7637-0.695,1.4473-1.454,2.0764-2.2721c-0.3046-0.1285-0.6092-0.2569-0.9138-0.3853
			c-0.0239,0.0576-0.0479,0.1153-0.0718,0.1729C103.379,72.7923,104.3462,73.0512,104.5897,72.4643L104.5897,72.4643z"/>
	</g>
	<g>
		<path class="st6" d="M102.1492,73.5814c-6.75,0-13.5,0-20.25,0c-0.6434,0-0.6445,1,0,1c6.75,0,13.5,0,20.25,0
			C102.7927,74.5814,102.7938,73.5814,102.1492,73.5814L102.1492,73.5814z"/>
	</g>
	<g>
		<path class="st6" d="M100.5242,74.2064c-5.6388,0-11.2777,0-16.9166,0c-0.6435,0-0.6445,1,0,1c5.6389,0,11.2778,0,16.9166,0
			C101.1677,75.2064,101.1688,74.2064,100.5242,74.2064L100.5242,74.2064z"/>
	</g>
	<g>
		<path class="st6" d="M83.1523,73.9569c-0.5447-0.3952-1.0508-0.8321-1.5296-1.3048c-0.4316-0.4261-0.9992,0.1106-0.7853,0.6059
			c0.1054,0.2438,0.2107,0.4877,0.316,0.7315c0.2325,0.5383,1.0364,0.1426,0.9139-0.3853
			c-0.1698-0.7316-0.5113-1.3684-1.0031-1.9338c-0.2278-0.2619-0.7859-0.149-0.8357,0.2206
			c-0.0575,0.4264,0.1413,0.723,0.5841,0.7598c0.6413,0.0533,0.6378-0.947,0-1c-0.0222-0.0018-0.0444-0.0036-0.0666-0.0055
			c0.1179,0.0488,0.2357,0.0976,0.3536,0.1465c-0.0148-0.0184-0.0296-0.0368-0.0444-0.0552
			c0.0429,0.1621,0.0858,0.3243,0.1286,0.4865c0.003-0.0221,0.006-0.0442,0.0089-0.0663c-0.2785,0.0736-0.5571,0.1471-0.8356,0.2207
			c0.3793,0.4361,0.6156,0.9314,0.7459,1.4926c0.3046-0.1285,0.6093-0.2569,0.9139-0.3853
			c-0.1053-0.2439-0.2107-0.4877-0.316-0.7315c-0.2618,0.2019-0.5235,0.4039-0.7853,0.6059
			c0.5397,0.5328,1.1184,1.0159,1.732,1.4612C83.1692,75.1989,83.6688,74.3317,83.1523,73.9569L83.1523,73.9569z"/>
	</g>
	<g>
		<path class="st6" d="M89.1811,75.7579c0.9792,0.9791,1.9583,1.9583,2.9375,2.9375c0.4556,0.4556,1.1629-0.2513,0.7071-0.7072
			c-0.9792-0.9791-1.9583-1.9583-2.9375-2.9375C89.4326,74.5951,88.7253,75.302,89.1811,75.7579L89.1811,75.7579z"/>
	</g>
	<g>
		<path class="st6" d="M93.0757,79.0079c1.125-1.125,2.25-2.25,3.375-3.375c0.4557-0.4557-0.2513-1.163-0.7071-0.7072
			c-1.125,1.125-2.25,2.25-3.375,3.375C91.913,78.7564,92.6199,79.4637,93.0757,79.0079L93.0757,79.0079z"/>
	</g>
	<g>
		<path class="st6" d="M90.8067,76.1272c0.5157,0.6164,1.0315,1.2328,1.5472,1.8491c0.202-0.2618,0.404-0.5235,0.6059-0.7853
			c-0.5718-0.4141-1.0507-0.9105-1.4497-1.4928c-0.2617,0.2019-0.5235,0.4039-0.7853,0.6059
			c0.504,0.6081,1.0079,1.2162,1.5118,1.8243c0.2289,0.2762,0.7759,0.1373,0.8357-0.2206c0.1086-0.6495,0.2172-1.299,0.3257-1.9485
			c-0.3274-0.0443-0.6548-0.0886-0.9821-0.133c-0.0066,0.4384-0.0131,0.8768-0.0196,1.3151
			c-0.0063,0.4237,0.5575,0.6724,0.8535,0.3536c0.3576-0.3852,0.7153-0.7703,1.0729-1.1554
			c-0.2786-0.1622-0.5572-0.3244-0.8357-0.4865c-0.0762,0.3024-0.1525,0.6048-0.2287,0.9072
			c-0.1173,0.4654,0.4868,0.867,0.8357,0.4865c0.2761-0.3011,0.5522-0.6023,0.8283-0.9034
			c0.3149-0.3434,0.0125-1.0104-0.4865-0.8357c-0.763,0.2673-1.5251,0.3947-2.3335,0.3827
			c0.0443,0.3273,0.0886,0.6547,0.1329,0.9821c0.4779-0.1626,0.9559-0.3252,1.4339-0.4877
			c0.6135-0.2087,0.3652-1.0821-0.2659-0.9643c-0.5369,0.1002-1.112,0.271-1.6589,0.2751c0.1179,0.0488,0.2357,0.0977,0.3536,0.1465
			c-0.0301-0.0247-0.0602-0.0495-0.0903-0.0742c0.0488,0.1179,0.0976,0.2357,0.1464,0.3536
			c-0.0045-0.0363-0.0091-0.0725-0.0136-0.1088c-0.0488,0.1179-0.0976,0.2357-0.1464,0.3536
			c0.0324-0.0262,0.0648-0.0524,0.0972-0.0786c-0.1178,0.0488-0.2357,0.0976-0.3535,0.1464
			c0.4159-0.0366,0.8511,0.017,1.2679,0.0342c0.571,0.0235,0.6685-0.8304,0.1329-0.9822c-0.1756-0.0497-0.3513-0.0995-0.5269-0.1493
			c-0.6203-0.1758-0.885,0.7888-0.2659,0.9643c0.1757,0.0498,0.3513,0.0995,0.527,0.1493c0.0443-0.3274,0.0886-0.6547,0.1329-0.9821
			c-0.5149-0.0213-2.0754-0.2997-1.8426,0.7196c0.2226,0.9752,1.9095,0.3082,2.5061,0.1969
			c-0.0886-0.3215-0.1773-0.6429-0.2659-0.9643c-0.4779,0.1626-0.9559,0.3251-1.4339,0.4877
			c-0.5234,0.1781-0.4496,0.9734,0.133,0.9822c0.8934,0.0133,1.7556-0.1229,2.5993-0.4184
			c-0.1621-0.2786-0.3243-0.5571-0.4864-0.8357c-0.2761,0.3011-0.5522,0.6023-0.8283,0.9034
			c0.2786,0.1621,0.5571,0.3243,0.8357,0.4864c0.0762-0.3024,0.1524-0.6048,0.2287-0.9072
			c0.1178-0.4673-0.4853-0.8639-0.8357-0.4864c-0.3577,0.3851-0.7153,0.7702-1.0729,1.1554
			c0.2845,0.1178,0.5691,0.2357,0.8536,0.3535c0.0065-0.4383,0.013-0.8767,0.0196-1.3151c0.0081-0.5477-0.8873-0.7007-0.9822-0.1329
			c-0.1085,0.6495-0.2171,1.299-0.3256,1.9486c0.2785-0.0736,0.5571-0.1471,0.8357-0.2207
			c-0.504-0.6081-1.0079-1.2162-1.5119-1.8243c-0.3598-0.4342-1.106,0.1377-0.7852,0.6059c0.5,0.7298,1.0919,1.3326,1.8084,1.8516
			c0.4903,0.3551,0.9444-0.3807,0.6059-0.7853c-0.5157-0.6164-1.0314-1.2327-1.5472-1.8491
			C91.1004,74.926,90.3962,75.6367,90.8067,76.1272L90.8067,76.1272z"/>
	</g>
	<g>
		<path class="st6" d="M73.9471,47.4427c1.2275-5.7994,4.3599-11.38,9.8847-14.041c5.6062-2.7001,12.4956-1.6242,16.2049,3.6222
			c0.3686,0.5213,1.2361,0.0223,0.8635-0.5047c-3.6266-5.1294-10.2188-6.8316-16.0367-4.6473
			c-6.5801,2.4705-10.4747,8.6622-11.8807,15.3049C72.8499,47.8046,73.8137,48.0729,73.9471,47.4427L73.9471,47.4427z"/>
	</g>
	<g>
		<path class="st6" d="M91.1184,31.6069c9.9984-3.1397,20.4053,5.0925,17.9806,15.737c-0.1427,0.6266,0.8212,0.8941,0.9643,0.2659
			c2.5899-11.3697-8.4478-20.3469-19.2107-16.9672C90.2407,30.8348,90.5019,31.8005,91.1184,31.6069L91.1184,31.6069z"/>
	</g>
	<g>
		<path class="st6" d="M73.0224,48.2966c-1.346-9.4809,4.6-18.6111,13.9801-20.8642c9.0903-2.1834,18.2927,2.9391,21.6339,11.5772
			c0.2297,0.5938,1.197,0.3358,0.9643-0.2659c-3.5427-9.1588-13.2094-14.5946-22.8641-12.2755
			c-9.9504,2.39-16.0991,12.0879-14.6785,22.0943C72.1482,49.197,73.1119,48.9271,73.0224,48.2966L73.0224,48.2966z"/>
	</g>
	<g>
		<path class="st6" d="M79.7129,24.3987c0.8543,1.6379,2.13,2.9774,3.7158,3.923c0.5541,0.3304,1.0576-0.5338,0.5048-0.8634
			c-1.447-0.8628-2.5784-2.0714-3.3571-3.5643C80.2787,23.3232,79.4154,23.8282,79.7129,24.3987L79.7129,24.3987z"/>
	</g>
	<g>
		<path class="st6" d="M79.8091,24.2677c1.6677,0.7455,3.3874,1.2246,5.1992,1.4537c0.6368,0.0806,0.6309-0.9202,0-1
			c-1.6252-0.2055-3.1993-0.6488-4.6945-1.3172C79.7312,23.1438,79.222,24.0053,79.8091,24.2677L79.8091,24.2677z"/>
	</g>
	<g>
		<path class="st6" d="M85.5573,25.3114c0.5459-1.0394,1.0918-2.0788,1.6378-3.1183c0.2989-0.5692-0.5639-1.0753-0.8635-0.5047
			c-0.5459,1.0394-1.0918,2.0789-1.6377,3.1183C84.3949,25.376,85.2577,25.882,85.5573,25.3114L85.5573,25.3114z"/>
	</g>
	<g>
		<path class="st6" d="M86.4116,22.0001c0.5521,1.5236,0.7691,3.0747,0.655,4.6909c-0.0454,0.6423,0.9548,0.6394,1,0
			c0.1201-1.7007-0.1098-3.3537-0.6908-4.9567C87.1583,21.1339,86.1915,21.3931,86.4116,22.0001L86.4116,22.0001z"/>
	</g>
	<g>
		<path class="st6" d="M84.3959,25.5559c0.3603,0.6004,0.7207,1.2009,1.0811,1.8013c0.3308,0.5512,1.1958,0.049,0.8635-0.5047
			c-0.3604-0.6004-0.7208-1.2009-1.0812-1.8013C84.9285,24.5,84.0635,25.0022,84.3959,25.5559L84.3959,25.5559z"/>
	</g>
	<g>
		<path class="st6" d="M79.3126,22.087c1.3228,0.5218,2.691,0.7943,4.1112,0.8385c0.6437,0.02,0.643-0.98,0-1
			c-1.334-0.0415-2.6052-0.3136-3.8453-0.8028C78.9797,20.8865,78.7199,21.8532,79.3126,22.087L79.3126,22.087z"/>
	</g>
	<g>
		<path class="st6" d="M84.1695,22.6329c0.8569-0.799,1.4831-1.7665,1.8942-2.8613c0.2265-0.6032-0.7398-0.8638-0.9643-0.2658
			c-0.3499,0.9319-0.9105,1.7425-1.637,2.4199C82.9907,22.3656,83.699,23.0716,84.1695,22.6329L84.1695,22.6329z"/>
	</g>
	<g>
		<path class="st6" d="M79.7534,21.5449c-0.1766-2.6095-0.0602-5.221,0.2699-7.814c0.0811-0.6367-0.9197-0.6307-1,0
			c-0.3301,2.593-0.4465,5.2045-0.2699,7.814C78.7966,22.1836,79.7969,22.1884,79.7534,21.5449L79.7534,21.5449z"/>
	</g>
	<g>
		<path class="st6" d="M79.3136,14.1954c2.3991,1.3736,4.3798,3.2557,5.8675,5.5863c0.3452,0.5408,1.2111,0.0398,0.8634-0.5048
			c-1.5772-2.4708-3.6816-4.4881-6.2262-5.945C79.2589,13.0117,78.7545,13.8754,79.3136,14.1954L79.3136,14.1954z"/>
	</g>
	<g>
		<path class="st6" d="M79.2081,14.3388c1.3556,2.7674,2.7111,5.5348,4.0667,8.3022c0.2831,0.5779,1.1458,0.0717,0.8635-0.5047
			c-1.3556-2.7674-2.7112-5.5348-4.0667-8.3022C79.7885,13.2562,78.9258,13.7625,79.2081,14.3388L79.2081,14.3388z"/>
	</g>
	<path class="st4" d="M78.7086,43.9897c0,0,6.3573-6.8041,13.8261-6.8041c8.125,0,14.4062,7.375,14.4062,7.375
		s-4.3445-9.214-15.1406-8.7188C82.717,36.2585,78.7086,43.9897,78.7086,43.9897z"/>
	<g>
		<path class="st6" d="M87.9599,154.9436c1.509,0,3.0181,0,4.5272,0c0.9651,0,0.9667-1.5,0-1.5c-1.5091,0-3.0182,0-4.5272,0
			C86.9947,153.4436,86.9931,154.9436,87.9599,154.9436L87.9599,154.9436z"/>
	</g>
	<g>
		<path class="st6" d="M87.3565,154.87c2.1419,2.1419,4.2838,4.2838,6.4257,6.4257c0.6835,0.6834,1.7444-0.3769,1.0607-1.0607
			c-2.1419-2.1419-4.2838-4.2838-6.4257-6.4257C87.7337,153.1259,86.6728,154.1863,87.3565,154.87L87.3565,154.87z"/>
	</g>
	<g>
		<path class="st6" d="M94.6685,161.5884c1.3272,0,2.6544,0,3.9816,0c0.9651,0,0.9667-1.5,0-1.5c-1.3272,0-2.6544,0-3.9816,0
			C93.7033,160.0884,93.7017,161.5884,94.6685,161.5884L94.6685,161.5884z"/>
	</g>
	<g>
		<path class="st6" d="M92.1758,154.797c0.9006,0.8519,1.8011,1.7038,2.7017,2.5557c0.7011,0.6631,1.7637-0.3957,1.0607-1.0607
			c-0.9006-0.8519-1.8012-1.7038-2.7017-2.5557C92.5354,153.0732,91.4728,154.132,92.1758,154.797L92.1758,154.797z"/>
	</g>
	<g>
		<path class="st6" d="M95.179,157.6088c1.208,0,2.4161,0,3.6242,0c0.9652,0,0.9668-1.5,0-1.5c-1.2081,0-2.4162,0-3.6242,0
			C94.2138,156.1088,94.2122,157.6088,95.179,157.6088L95.179,157.6088z"/>
	</g>
	<g>
		<path class="st6" d="M98.1633,161.4417c1.4726,1.4726,2.9451,2.9451,4.4177,4.4177c0.6835,0.6834,1.7444-0.3769,1.0607-1.0607
			c-1.4726-1.4725-2.9451-2.9451-4.4177-4.4176C98.5405,159.6976,97.4796,160.758,98.1633,161.4417L98.1633,161.4417z"/>
	</g>
	<g>
		<path class="st6" d="M103.2209,166.1521c3.4927,0,6.9854,0,10.4782,0c0.9652,0,0.9668-1.5,0-1.5c-3.4928,0-6.9855,0-10.4782,0
			C102.2557,164.6521,102.2541,166.1521,103.2209,166.1521L103.2209,166.1521z"/>
	</g>
	<g>
		<path class="st6" d="M114.2419,165.9584c2.5009-1.5152,5.0018-3.0303,7.5027-4.5454c0.8246-0.4996,0.0715-1.7972-0.7571-1.2953
			c-2.5009,1.5152-5.0018,3.0303-7.5027,4.5455C112.6603,165.1627,113.4133,166.4604,114.2419,165.9584L114.2419,165.9584z"/>
	</g>
	<g>
		<path class="st6" d="M98.6745,156.146c-0.0411,0.041-0.0821,0.082-0.1231,0.1231c-0.6835,0.6834,0.3769,1.7444,1.0606,1.0606
			c0.4548-0.4548,0.9097-0.9096,1.3645-1.3644c0.6834-0.6835-0.3769-1.7444-1.0607-1.0607
			c-0.4548,0.4548-0.9096,0.9097-1.3644,1.3645c0.3535,0.3535,0.7071,0.7071,1.0606,1.0606c0.0411-0.041,0.0821-0.082,0.1231-0.1231
			C100.4186,156.5232,99.3582,155.4622,98.6745,156.146L98.6745,156.146z"/>
	</g>
	<g>
		<path class="st6" d="M100.8112,156.0024c4.9775,0,9.955,0,14.9324,0c0.9652,0,0.9668-1.5,0-1.5c-4.9774,0-9.9549,0-14.9324,0
			C99.846,154.5024,99.8445,156.0024,100.8112,156.0024L100.8112,156.0024z"/>
	</g>
	<g>
		<path class="st6" d="M115.2863,155.8558c1.8498,1.7676,3.6996,3.5353,5.5494,5.303c0.698,0.6669,1.7603-0.3922,1.0607-1.0607
			c-1.8498-1.7677-3.6996-3.5353-5.5494-5.303C115.649,154.1282,114.5867,155.1872,115.2863,155.8558L115.2863,155.8558z"/>
	</g>
	<g>
		<path class="st6" d="M118.1085,156.0657c0.8398-0.7302,1.6795-1.4604,2.5192-2.1906c0.7298-0.6346-0.3349-1.6917-1.0607-1.0606
			c-0.8397,0.7302-1.6794,1.4603-2.5191,2.1905C116.3181,155.6396,117.3828,156.6968,118.1085,156.0657L118.1085,156.0657z"/>
	</g>
	<g>
		<path class="st6" d="M119.6035,153.9116c1.0527,1.1014,2.1054,2.2028,3.1581,3.3041c0.6683,0.6993,1.728-0.3624,1.0607-1.0606
			c-1.0527-1.1014-2.1054-2.2028-3.1581-3.3041C119.9959,152.1518,118.9362,153.2135,119.6035,153.9116L119.6035,153.9116z"/>
	</g>
	<g>
		<path class="st6" d="M120.719,160.0087c1.0283-0.9553,2.0567-1.9106,3.085-2.866c0.7088-0.6584-0.3538-1.7173-1.0606-1.0606
			c-1.0284,0.9553-2.0567,1.9106-3.0851,2.866C118.9495,159.6065,120.0121,160.6654,120.719,160.0087L120.719,160.0087z"/>
	</g>
	<g>
		<path class="st6" d="M103.7122,165.7671c0,0.6694,0,1.3387,0,2.0081c0,0.9652,1.5,0.9667,1.5,0c0-0.6694,0-1.3387,0-2.0081
			C105.2122,164.802,103.7122,164.8004,103.7122,165.7671L103.7122,165.7671z"/>
	</g>
	<g>
		<path class="st6" d="M111.8903,165.7671c0,0.6694,0,1.3387,0,2.0081c0,0.9652,1.5,0.9667,1.5,0c0-0.6694,0-1.3387,0-2.0081
			C113.3903,164.802,111.8903,164.8004,111.8903,165.7671L111.8903,165.7671z"/>
	</g>
	<g>
		<path class="st6" d="M102.1621,169.1458c4.2716,0,8.5432,0,12.8148,0c0.9652,0,0.9668-1.5,0-1.5c-4.2716,0-8.5432,0-12.8148,0
			C101.1969,167.6458,101.1953,169.1458,102.1621,169.1458L102.1621,169.1458z"/>
	</g>
	<g>
		<path class="st6" d="M103.3131,155.2351c0.9207-0.9208,1.8415-1.8415,2.7623-2.7623c0.6835-0.6835-0.3769-1.7444-1.0607-1.0607
			c-0.0323,0.0324-0.0647,0.0648-0.0971,0.0971c-0.6835,0.6835,0.3769,1.7445,1.0607,1.0607
			c0.0323-0.0324,0.0647-0.0647,0.0971-0.0971c-0.3536-0.3536-0.7071-0.7071-1.0607-1.0607
			c-0.9207,0.9208-1.8415,1.8416-2.7623,2.7623C101.569,154.8579,102.6293,155.9189,103.3131,155.2351L103.3131,155.2351z"/>
	</g>
	<g>
		<path class="st6" d="M105.7035,152.5705c1.8498,0,3.6996,0,5.5494,0c0.9652,0,0.9668-1.5,0-1.5c-1.8498,0-3.6996,0-5.5494,0
			C104.7383,151.0705,104.7367,152.5705,105.7035,152.5705L105.7035,152.5705z"/>
	</g>
	<g>
		<path class="st6" d="M111.0512,152.3143c1.0223,1.0345,2.0445,2.0689,3.0668,3.1033c0.6796,0.6877,1.7402-0.373,1.0607-1.0606
			c-1.0223-1.0344-2.0446-2.0689-3.0668-3.1033C111.4323,150.566,110.3717,151.6267,111.0512,152.3143L111.0512,152.3143z"/>
	</g>
	<g>
		<path class="st6" d="M109.5568,151.0903c0-0.4259,0-0.8519,0-1.2778c0-0.9652-1.5-0.9668-1.5,0c0,0.4259,0,0.8519,0,1.2778
			C108.0568,152.0555,109.5568,152.0571,109.5568,151.0903L109.5568,151.0903z"/>
	</g>
	<g>
		<path class="st6" d="M98.146,161.5153c7.2188,0,14.4375,0,21.6562,0c0-0.5,0-1,0-1.5c-0.075,0-0.1501,0-0.2251,0
			c-0.9652,0-0.9668,1.5,0,1.5c0.075,0,0.1501,0,0.2251,0c0.9652,0,0.9668-1.5,0-1.5c-7.2187,0-14.4374,0-21.6562,0
			C97.1809,160.0153,97.1793,161.5153,98.146,161.5153L98.146,161.5153z"/>
	</g>
</g>
</svg>
