<svg id="Donatello" xmlns="http://www.w3.org/2000/svg" viewBox="0 0 1999.99994 2000.00276"><defs><style>.cls-1,.cls-23,.cls-25{fill:#eff4ee;}.cls-2{fill:#374d01;}.cls-10,.cls-11,.cls-12,.cls-13,.cls-14,.cls-15,.cls-17,.cls-2,.cls-20,.cls-23,.cls-28,.cls-3,.cls-5,.cls-6,.cls-8,.cls-9{stroke:#15003e;}.cls-10,.cls-11,.cls-13,.cls-16,.cls-17,.cls-2,.cls-20,.cls-22,.cls-23,.cls-25,.cls-26,.cls-27,.cls-5,.cls-9{stroke-linecap:round;}.cls-10,.cls-11,.cls-13,.cls-16,.cls-17,.cls-2,.cls-20,.cls-22,.cls-23,.cls-25,.cls-27,.cls-28,.cls-5,.cls-6{stroke-miterlimit:10;}.cls-10,.cls-11,.cls-12,.cls-13,.cls-14,.cls-15,.cls-16,.cls-17,.cls-2,.cls-20,.cls-22,.cls-23,.cls-25,.cls-26,.cls-27,.cls-28,.cls-3,.cls-5,.cls-6,.cls-8,.cls-9{stroke-width:6px;}.cls-24,.cls-3{fill:#25e899;}.cls-12,.cls-14,.cls-15,.cls-26,.cls-3,.cls-8,.cls-9{stroke-linejoin:round;}.cls-11,.cls-15,.cls-4{fill:#15003e;}.cls-14,.cls-5,.cls-6,.cls-7{fill:#a8ac15;}.cls-8{fill:#f2d21c;}.cls-12,.cls-13,.cls-16,.cls-22,.cls-26,.cls-27,.cls-28,.cls-9{fill:none;}.cls-10{fill:#855a2f;}.cls-16{stroke:#855a2f;}.cls-17{fill:#5461aa;}.cls-18{fill:#0fce7c;}.cls-19{fill:#fff;}.cls-20{fill:#c78747;}.cls-21{fill:#ffce08;}.cls-22{stroke:#ffce08;}.cls-25,.cls-26,.cls-27{stroke:#25e899;}.cls-29{fill:#3f4980;}</style></defs><title>Donatello</title><g id="Back"><rect class="cls-1" width="1999.99994" height="2000.00276"/></g><g id="Character"><ellipse class="cls-2" cx="996.20879" cy="1026.6275" rx="409.40256" ry="460.83235"/><ellipse class="cls-2" cx="996.20879" cy="1026.6275" rx="377.42269" ry="424.83511"/><path class="cls-3" d="M765.81843,1013.22575h460.78071" transform="translate(0 0.00011)"/><path class="cls-4" d="M765.81843,1013.22842l5.00334,67.56684,45.64341,61.66683,40.00006,3.78668,146.41691,14.2667,150.12022-10.76,50.32011-34.88342,23.27666-66.41684-9.99-35.22676Z" transform="translate(0 0.00011)"/><path class="cls-5" d="M415.0301,733.67652l206.647,206.64719v93.87358c0,14.24-17.2167,21.37005-27.28338,11.30336l-94.83348-94.83691-85.37347-148.487Z" transform="translate(0 0.00011)"/><path class="cls-6" d="M763.43458,966.03829,599.691,803.67789a45.10972,45.10972,0,0,1,0-63.79016l51.63009-51.63013a45.10962,45.10962,0,0,1,63.7901,0L848.83764,820.54292" transform="translate(0 0.00011)"/><rect class="cls-7" x="768.801" y="847.50675" width="449.0688" height="50.78687"/><path class="cls-6" d="M1153.21005,842.3668l103.0535-103.0536a58.888,58.888,0,0,1,83.28014,83.28021L1228.7235,933.667" transform="translate(0 0.00011)"/><path class="cls-8" d="M1120.09243,1154.961H872.32536a106.50732,106.50732,0,0,1-106.50682-106.50694V898.29372h460.78073v150.16039A106.50519,106.50519,0,0,1,1120.09243,1154.961Z" transform="translate(0 0.00011)"/><line class="cls-9" x1="995.2089" y1="900.29312" x2="995.2089" y2="1151.19431"/><line class="cls-9" x1="1226.59886" y1="982.44525" x2="763.81836" y2="982.44525"/><polygon class="cls-10" points="1394.01 1116.922 598.408 1116.922 593.415 1086.872 1399.001 1086.872 1394.01 1116.922"/><rect class="cls-4" x="1364.68484" y="1532.24289" width="70.00011" height="156.0204" transform="translate(-587.51134 833.6684) rotate(-27.65649)"/><path class="cls-5" d="M1493.169,1627.42285l62.26216-32.62807L1326.4404,1157.82564a43.09244,43.09244,0,0,0-58.16953-18.16877l-38.11078,19.9717a43.09244,43.09244,0,0,0-18.16421,58.171l201.64494,384.78674A58.91379,58.91379,0,0,0,1493.169,1627.42285Z" transform="translate(0 0.00011)"/><rect class="cls-5" x="1226.89495" y="1375.48423" width="87.43341" height="96.66691" transform="translate(-515.72079 752.45562) rotate(-27.65649)"/><rect class="cls-11" x="1229.39235" y="1385.63022" width="43.7167" height="96.66691" transform="translate(-522.64231 744.62807) rotate(-27.65649)"/><rect class="cls-5" x="1280.74764" y="1495.5631" width="87.43341" height="62.0368" transform="matrix(0.88575, -0.46417, 0.46417, 0.88575, -557.26775, 789.19354)"/><rect class="cls-4" x="1283.24504" y="1505.70908" width="43.7167" height="62.0368" transform="translate(-564.18927 781.36599) rotate(-27.65649)"/><circle class="cls-12" cx="1282.73871" cy="1213.61535" r="30.00005" transform="translate(-416.76572 734.06825) rotate(-27.65649)"/><path class="cls-12" d="M1394.68343,1566.4074l114.44452-59.97389" transform="translate(0 0.00011)"/><path class="cls-12" d="M1411.63808,1598.76094l114.44452-59.97389" transform="translate(0 0.00011)"/><path class="cls-12" d="M1451.90314,1536.42145l-155.78091-297.26722" transform="translate(0 0.00011)"/><path class="cls-13" d="M1243.28879,1333.38973l-31.49424,16.50435" transform="translate(0 0.00011)"/><path class="cls-13" d="M1227.10747,1302.5119l-31.49424,16.50435" transform="translate(0 0.00011)"/><path class="cls-13" d="M1210.92614,1271.63406l-31.49424,16.50435" transform="translate(0 0.00011)"/><path class="cls-13" d="M1217.71755,1228.713l-77.44388,40.584" transform="translate(0 0.00011)"/><path class="cls-5" d="M1395.24855,1904.96085h238.34371a21.18951,21.18951,0,0,0,21.19-21.19006v-30.95341a21.18951,21.18951,0,0,0-21.19-21.19005H1395.24855a21.18951,21.18951,0,0,0-21.19,21.19005v30.95341A21.18951,21.18951,0,0,0,1395.24855,1904.96085Z" transform="translate(0 0.00011)"/><path class="cls-14" d="M1481.85986,1701.35v-92.22357l60.56343,60.56349V1701.35" transform="translate(0 0.00011)"/><path class="cls-13" d="M1594.6513,1779.40327H1438.141" transform="translate(0 0.00011)"/><path class="cls-5" d="M1473.83667,1744.70159h84.48347a13.83329,13.83329,0,0,0,13.83336-13.83337v-16.5a13.83329,13.83329,0,0,0-13.83336-13.83337h-84.48347a13.83328,13.83328,0,0,0-13.83336,13.83337v16.5A13.83328,13.83328,0,0,0,1473.83667,1744.70159Z" transform="translate(0 0.00011)"/><rect class="cls-5" x="1481.85028" y="1744.70162" width="66.12681" height="86.9269"/><path class="cls-13" d="M1547.98663,1796.0717h-66.12677" transform="translate(0 0.00011)"/><rect class="cls-15" x="1547.9836" y="1904.95997" width="70.00011" height="27.70342"/><rect class="cls-15" x="1396.65035" y="1904.95997" width="70.00011" height="27.70342"/><path class="cls-1" d="M1391.44882,1611.088a9.5,9.5,0,0,1-8.81924-16.82922" transform="translate(0 0.00011)"/><path class="cls-13" d="M1588.82021,1904.96008v-13.28a23.386,23.386,0,0,0-23.3867-23.38673H1428.82v45.00011" transform="translate(0 0.00011)"/><path class="cls-13" d="M1147.01934,1293.51761l211.85988,404.27929" transform="translate(0 0.00011)"/><rect class="cls-10" x="1395.77958" y="1534.33379" width="129.20688" height="36.52686" transform="translate(-553.81426 855.25523) rotate(-27.65649)"/><path class="cls-10" d="M1555.43117,1594.79477l-58.43022,30.62a63.238,63.238,0,0,1-85.36284-26.65375l0-.00006,114.44452-59.97389Z" transform="translate(0 0.00011)"/><rect class="cls-4" x="534.75421" y="1575.25303" width="156.0204" height="70.00011" transform="translate(-1097.938 1405.57667) rotate(-62.34351)"/><path class="cls-5" d="M519.28029,1627.42285l-62.26216-32.62807L686.0089,1157.82564a43.09244,43.09244,0,0,1,58.16953-18.16877l38.11078,19.9717a43.09244,43.09244,0,0,1,18.16421,58.171L598.80848,1602.58627A58.91379,58.91379,0,0,1,519.28029,1627.42285Z" transform="translate(0 0.00011)"/><rect class="cls-5" x="693.50418" y="1380.10099" width="96.66691" height="87.43341" transform="translate(-863.64215 1420.00505) rotate(-62.34351)"/><rect class="cls-11" x="712.86514" y="1412.10532" width="96.66691" height="43.7167" transform="translate(-862.25473 1442.59047) rotate(-62.34351)"/><rect class="cls-5" x="656.96655" y="1482.86479" width="62.0368" height="87.43341" transform="translate(-983.52074 1427.3692) rotate(-62.34351)"/><rect class="cls-4" x="676.32751" y="1514.86913" width="62.0368" height="43.7167" transform="translate(-982.13331 1449.95463) rotate(-62.34351)"/><circle class="cls-12" cx="729.71059" cy="1213.61535" r="30.00008" transform="translate(-683.95423 1296.63074) rotate(-62.34351)"/><path class="cls-12" d="M617.76587,1566.4074l-114.44452-59.97389" transform="translate(0 0.00011)"/><path class="cls-12" d="M600.81122,1598.76094,486.36669,1538.787" transform="translate(0 0.00011)"/><path class="cls-12" d="M560.54616,1536.42145l155.78091-297.26722" transform="translate(0 0.00011)"/><path class="cls-13" d="M769.16051,1333.38973l31.49424,16.50435" transform="translate(0 0.00011)"/><path class="cls-13" d="M785.34183,1302.5119l31.49424,16.50435" transform="translate(0 0.00011)"/><path class="cls-13" d="M801.52316,1271.63406l31.49424,16.50435" transform="translate(0 0.00011)"/><path class="cls-13" d="M794.73175,1228.713l77.44388,40.584" transform="translate(0 0.00011)"/><path class="cls-5" d="M617.20075,1904.96085H378.857a21.18951,21.18951,0,0,1-21.19-21.19006v-30.95341a21.18951,21.18951,0,0,1,21.19-21.19005H617.20075a21.18951,21.18951,0,0,1,21.19,21.19005v30.95341A21.18951,21.18951,0,0,1,617.20075,1904.96085Z" transform="translate(0 0.00011)"/><path class="cls-14" d="M530.58944,1701.35v-92.22357L470.026,1669.68988V1701.35" transform="translate(0 0.00011)"/><path class="cls-13" d="M417.798,1779.40327H574.30825" transform="translate(0 0.00011)"/><path class="cls-5" d="M538.61263,1744.70159H454.12917a13.83329,13.83329,0,0,1-13.83336-13.83337v-16.5a13.83329,13.83329,0,0,1,13.83336-13.83337h84.48347a13.83328,13.83328,0,0,1,13.83336,13.83337v16.5A13.83328,13.83328,0,0,1,538.61263,1744.70159Z" transform="translate(0 0.00011)"/><rect class="cls-5" x="464.47221" y="1744.70162" width="66.12681" height="86.9269"/><path class="cls-13" d="M464.46267,1796.0717h66.12677" transform="translate(0 0.00011)"/><rect class="cls-15" x="394.46559" y="1904.95997" width="70.00011" height="27.70342"/><rect class="cls-15" x="545.79884" y="1904.95997" width="70.00011" height="27.70342"/><path class="cls-1" d="M621.00048,1611.088a9.5,9.5,0,0,0,8.81924-16.82922" transform="translate(0 0.00011)"/><path class="cls-13" d="M423.62909,1904.96008v-13.28a23.386,23.386,0,0,1,23.3867-23.38673H583.62934v45.00011" transform="translate(0 0.00011)"/><path class="cls-13" d="M865.43,1293.51761,653.57008,1697.7969" transform="translate(0 0.00011)"/><rect class="cls-10" x="487.46284" y="1534.33379" width="129.20688" height="36.52686" transform="translate(320.3887 3184.05706) rotate(-152.34351)"/><path class="cls-10" d="M457.01813,1594.79477l58.43022,30.62a63.238,63.238,0,0,0,85.36284-26.65375l0-.00006L486.36669,1538.787Z" transform="translate(0 0.00011)"/><path class="cls-4" d="M550.71711,1001.82087V862.73718L430.03359,748.67689l-4.04,75.8902Z" transform="translate(0 0.00011)"/><rect class="cls-5" x="621.65121" y="966.07265" width="47.47322" height="71.12018"/><rect class="cls-4" x="645.403" y="966.07265" width="23.73661" height="71.12018"/><path class="cls-16" d="M883.36515,1241.62676V1604.961" transform="translate(0 0.00011)"/><path class="cls-5" d="M1584.975,733.67652,1378.328,940.32371v93.87358c0,14.24,17.2167,21.37005,27.28338,11.30336l94.83348-94.83691,85.37347-148.487Z" transform="translate(0 0.00011)"/><path class="cls-4" d="M1449.29126,1001.82229V862.7386l120.68353-114.06029,4.04,75.8902Z" transform="translate(0 0.00011)"/><rect class="cls-5" x="1330.8503" y="966.07265" width="47.47322" height="71.12018"/><rect class="cls-4" x="1330.8503" y="966.07265" width="23.73661" height="71.12018"/><path class="cls-17" d="M783.01616,364.09955c0-112.877,91.50348-204.38052,204.38032-204.38052s204.38366,91.50357,204.38366,204.38052l-50.41342,198.47051H833.42958Z" transform="translate(0 0.00011)"/><path class="cls-13" d="M922.2677,478.821a143.58846,143.58846,0,0,1-58.24009-206.40387" transform="translate(0 0.00011)"/><path class="cls-13" d="M1100.75018,264.86995a143.56982,143.56982,0,0,1-51.57675,213.21721" transform="translate(0 0.00011)"/><path class="cls-18" d="M930.94111,478.83054a137.28075,137.28075,0,0,1-50.76675-213.00721c12.13967-14.70844,50.9977.515,95.86287,14.57122,34.99317,12.16376,43.1628-17.861,108.67112-20.57427,23.07,20.17973,38.59973,58.40319,38.59973,93.29662a137.26747,137.26747,0,0,1-82.09013,125.707" transform="translate(0 0.00011)"/><path class="cls-19" d="M1059.12643,307.62334a35.80006,35.80006,0,1,1-35.80006-35.80009,35.7981,35.7981,0,0,1,35.80006,35.80009" transform="translate(0 0.00011)"/><path class="cls-19" d="M1084.70835,361.14366a14.475,14.475,0,1,1-14.47669-14.4767,14.477,14.477,0,0,1,14.47669,14.4767" transform="translate(0 0.00011)"/><path class="cls-5" d="M1178.66448,291.91062a.45007.45007,0,0,1-.77724.43034C1127.554,228.97181,1053.47908,288.33394,950,303c-88.67058,12.56726-99.80312-60.96529-151.303-12.56445a.97807.97807,0,0,1-1.58108-1.07151,204.465,204.465,0,0,1,381.54854,2.54659Z" transform="translate(0 0.00011)"/><path class="cls-13" d="M1121.37776,1241.62676V1604.961" transform="translate(0 0.00011)"/><path class="cls-16" d="M1121.37776,1241.62676V1604.961" transform="translate(0 0.00011)"/><path class="cls-4" d="M815.24423,1132.73739a23.2217,23.2217,0,1,0-23.22337,23.22339,23.22239,23.22239,0,0,0,23.22337-23.22339" transform="translate(0 0.00011)"/><path class="cls-4" d="M1223.2241,1132.73739a23.2217,23.2217,0,1,0-23.22337,23.22339,23.22239,23.22239,0,0,0,23.22337-23.22339" transform="translate(0 0.00011)"/><rect class="cls-4" x="669.15403" y="976.49574" width="99.64697" height="56.79682"/><rect class="cls-4" x="1226.60903" y="976.49574" width="99.64697" height="56.79682"/><path class="cls-16" d="M1120.09243,1215.14143c0-40.14011-52.99342-72.68019-118.36352-72.68019s-118.36019,32.54008-118.36019,72.68019" transform="translate(0 0.00011)"/><path class="cls-10" d="M1034.54222,1102.50876a38.33339,38.33339,0,1,0-38.33339,38.33343,38.33459,38.33459,0,0,0,38.33339-38.33343" transform="translate(0 0.00011)"/><path class="cls-1" d="M1197.41635,1116.92213a14.41336,14.41336,0,1,0-14.41336,14.41337,14.4137,14.4137,0,0,0,14.41336-14.41337" transform="translate(0 0.00011)"/><path class="cls-1" d="M820.84734,1116.92213A14.41336,14.41336,0,1,0,806.434,1131.3355a14.4137,14.4137,0,0,0,14.41336-14.41337" transform="translate(0 0.00011)"/><rect class="cls-20" x="1026.63674" y="506.95722" width="47.44716" height="1793.89075" rx="16.87833" ry="16.87833" transform="translate(-11.91093 2798.81456) rotate(-105.90674)"/><path class="cls-5" d="M1516.6687,774.56665l122.81507,78.70568,30.40066-47.43825a59.93309,59.93309,0,0,0-18.12491-82.7957l-21.89628-14.03217a59.93238,59.93238,0,0,0-82.79388,18.12218Z" transform="translate(0 0.00011)"/><path class="cls-5" d="M1134.38108,1346.05616l143.976,92.26663a71.74131,71.74131,0,0,0,99.10951-21.69341l293.49418-457.97848a71.74131,71.74131,0,0,0-21.6933-99.10953l-143.976-92.26663a71.74131,71.74131,0,0,0-99.1095,21.6934l-293.49418,457.97848A71.74132,71.74132,0,0,0,1134.38108,1346.05616Z" transform="translate(0 0.00011)"/><path class="cls-13" d="M1134.38224,1346.05435l143.976,92.26663a71.74131,71.74131,0,0,0,99.10951-21.69341l81.99348-127.94547a71.74131,71.74131,0,0,0-21.6933-99.10953l-143.976-92.26663a71.74131,71.74131,0,0,0-99.1095,21.6934l-81.99348,127.94547A71.74132,71.74132,0,0,0,1134.38224,1346.05435Z" transform="translate(0 0.00011)"/><path class="cls-13" d="M1588.05621,1088.01954l-17.71187-80.91965a50.844,50.844,0,0,0-22.234-31.93383L1443.7985,908.31813a50.83891,50.83891,0,0,0-38.22383-6.8777l-81.1607,17.62476" transform="translate(0 0.00011)"/><path class="cls-13" d="M1536.10276,1169.08951l-17.71187-80.91965a50.844,50.844,0,0,0-22.234-31.93383L1391.84505,989.3881a50.83891,50.83891,0,0,0-38.22383-6.8777l-81.1607,17.62476" transform="translate(0 0.00011)"/><path class="cls-5" d="M1435.66116,1100.22232l53.091-82.845a24.93448,24.93448,0,0,0-7.53774-34.44846l-17.82406-11.42249a24.93519,24.93519,0,0,0-34.45025,7.54058l-53.091,82.845" transform="translate(0 0.00011)"/><path class="cls-21" d="M1375.84912,1061.89392a35.52006,35.52006,0,1,1,10.74082,49.07124,35.5207,35.5207,0,0,1-10.74082-49.07124" transform="translate(0 0.00011)"/><circle class="cls-13" cx="1405.75634" cy="1081.05626" r="35.52009" transform="translate(-262.92547 1681.33507) rotate(-57.34634)"/><path class="cls-4" d="M1230.7,1226.5426a68.88844,68.88844,0,1,1,20.8315,95.17222A68.89044,68.89044,0,0,1,1230.7,1226.5426" transform="translate(0 0.00011)"/><circle class="cls-22" cx="1288.7006" cy="1263.71409" r="68.89018" transform="translate(-470.61096 1666.88335) rotate(-57.34634)"/><path class="cls-5" d="M1179.241,1418.90441l95.639-149.23838a24.93448,24.93448,0,0,0-7.53774-34.44846l-17.82406-11.4225a24.93733,24.93733,0,0,0-34.45025,7.54058l-95.639,149.23838" transform="translate(0 0.00011)"/><path class="cls-21" d="M1119.42922,1380.57554a35.52006,35.52006,0,1,1,10.74082,49.07124,35.5207,35.5207,0,0,1-10.74082-49.07124" transform="translate(0 0.00011)"/><circle class="cls-13" cx="1149.33644" cy="1399.73787" r="35.52009" transform="translate(-649.30473 1612.1769) rotate(-57.34634)"/><path class="cls-5" d="M1325.72341,1368.45626l-50.51693-32.37363,47.29612-73.8025,30.24,19.37921a24.08448,24.08448,0,0,1,7.28251,33.27137Z" transform="translate(0 0.00011)"/><path class="cls-5" d="M1267.483,1475.45342l53.0928-82.84784a24.93448,24.93448,0,0,0-7.54234-34.44745l-17.82125-11.4207a24.93448,24.93448,0,0,0-34.44845,7.53777L1207.671,1437.123" transform="translate(0 0.00011)"/><path class="cls-21" d="M1207.671,1437.125a35.52006,35.52006,0,1,1,10.74082,49.07124A35.5207,35.5207,0,0,1,1207.671,1437.125" transform="translate(0 0.00011)"/><circle class="cls-13" cx="1237.57821" cy="1456.28736" r="35.52009" transform="translate(-656.28635 1712.50951) rotate(-57.34634)"/><rect class="cls-4" x="1571.96181" y="726.45687" width="30.00008" height="146.34341" transform="translate(57.45619 1704.31991) rotate(-57.34634)"/><path class="cls-4" d="M1602.999,740.1016a17.9,17.9,0,1,1,5.41274,24.729,17.89905,17.89905,0,0,1-5.41274-24.729" transform="translate(0 0.00011)"/><path class="cls-23" d="M1612.399,758.61115l-20.29828,31.67414" transform="translate(0 0.00011)"/><path class="cls-23" d="M1574.26647,819.85949l-78.168,121.976" transform="translate(0 0.00011)"/><path class="cls-23" d="M1228.4742,1342.07708l-57.651-36.9455" transform="translate(0 0.00011)"/><path class="cls-23" d="M1251.63141,1305.94177l-57.651-36.9455" transform="translate(0 0.00011)"/><path class="cls-24" d="M1429.04366,1253.54807a10.97668,10.97668,0,1,0-15.16437,3.31922,10.9753,10.9753,0,0,0,15.16437-3.31922" transform="translate(0 0.00011)"/><path class="cls-24" d="M1411.36114,1281.14049a10.97668,10.97668,0,1,0-15.16437,3.31922,10.9753,10.9753,0,0,0,15.16437-3.31922" transform="translate(0 0.00011)"/><rect class="cls-5" x="823.81325" y="773.78047" width="327.84395" height="73.72679"/><path class="cls-5" d="M811.75269,478.45914l351.54881.00339-23.385,83.73683H831.97938Z" transform="translate(0 0.00011)"/><path class="cls-5" d="M1097.83351,653.22823h-220.877a43.52847,43.52847,0,0,1-43.52673-43.53011V562.57133h307.93382v47.12679A43.53132,43.53132,0,0,1,1097.83351,653.22823Z" transform="translate(0 0.00011)"/><path class="cls-13" d="M783.01567,361.14147V166.63431" transform="translate(0 0.00011)"/><path class="cls-13" d="M1191.78139,111.71715V361.14446" transform="translate(0 0.00011)"/><path class="cls-13" d="M813.20347,478.81447H1161.8507" transform="translate(0 0.00011)"/><path class="cls-25" d="M841.46273,740.24381h281.84379" transform="translate(0 0.00011)"/><path class="cls-25" d="M867.74461,695.51281h240.03372" transform="translate(0 0.00011)"/><path class="cls-26" d="M599.68909,739.89l-46.35341-46.35345L530.549,670.74982h-29.61v-26.2734H469.38888V611.47634l-33.28006-33.27675" transform="translate(0 0.00011)"/><path class="cls-9" d="M452.35781,594.44846,436.1061,578.19674" transform="translate(0 0.00011)"/><path class="cls-9" d="M599.69028,739.88942,553.337,693.53609" transform="translate(0 0.00011)"/><path class="cls-27" d="M753.5343,726.68034,727.607,752.60766" transform="translate(0 0.00011)"/><path class="cls-28" d="M775.13751,748.28773l-32.86339,32.86342a26.85614,26.85614,0,0,1-37.98339,0l-5.23-5.23a26.86224,26.86224,0,0,1,0-37.98343l32.86339-32.86342Z" transform="translate(0 0.00011)"/><path class="cls-24" d="M702.56779,820.85775a15.00012,15.00012,0,1,0,0,21.21339,15.00234,15.00234,0,0,0,0-21.21339" transform="translate(0 0.00011)"/><path class="cls-24" d="M671.13888,789.43061a15.00012,15.00012,0,1,0,0,21.21339,15.00234,15.00234,0,0,0,0-21.21339" transform="translate(0 0.00011)"/><path class="cls-24" d="M640.52719,758.81621a15.00012,15.00012,0,1,0,0,21.21339,15.00234,15.00234,0,0,0,0-21.21339" transform="translate(0 0.00011)"/><path class="cls-9" d="M628.80654,710.7724l-78.17321-78.17323" transform="translate(0 0.00011)"/><path class="cls-13" d="M1341.32653,738.12015l77.77487-77.77489" transform="translate(0 0.00011)"/><path class="cls-13" d="M1346.62732,672.73941l67.18474,67.18476" transform="translate(0 0.00011)"/><path class="cls-27" d="M1346.62445,672.74338l31.70911,31.70911" transform="translate(0 0.00011)"/><path class="cls-13" d="M1373.63148,645.7334l67.18474,67.18476" transform="translate(0 0.00011)"/><path class="cls-27" d="M1369.38383,641.47649l32.28186,32.28187" transform="translate(0 0.00011)"/><path class="cls-6" d="M1501.52421,648.15824a52.63714,52.63714,0,1,1-74.44012-74.44019Z" transform="translate(0 0.00011)"/><path class="cls-9" d="M1463.00713,609.63949l63.17308-63.1731" transform="translate(0 0.00011)"/><path class="cls-24" d="M1542.01467,546.46366a15.83336,15.83336,0,1,0-15.83336,15.83337,15.83487,15.83487,0,0,0,15.83336-15.83337" transform="translate(0 0.00011)"/><path class="cls-27" d="M1262.99683,797.864l39.79068-39.7873" transform="translate(0 0.00011)"/><path class="cls-12" d="M1268.87523,889.31648V843.20969l44.11007-44.11011,18.8067,18.80672" transform="translate(0 0.00011)"/><path class="cls-13" d="M353.05268,1938.29448h1293.8954" transform="translate(0 0.00011)"/><path class="cls-5" d="M901.32006,1341.84033,763.921,1443.64273a71.74131,71.74131,0,0,1-100.3508-14.93372L339.74335,991.65146A71.74131,71.74131,0,0,1,354.677,891.30066L492.076,789.49826A71.74131,71.74131,0,0,1,592.42683,804.432l323.82684,437.05755A71.74132,71.74132,0,0,1,901.32006,1341.84033Z" transform="translate(0 0.00011)"/><path class="cls-5" d="M481.21864,797.54365,364.01389,884.38358l-33.54257-45.27122a59.9331,59.9331,0,0,1,12.47789-83.83282l20.896-15.48239a59.93238,59.93238,0,0,1,83.83082,12.47529Z" transform="translate(0 0.00011)"/><path class="cls-13" d="M901.31878,1341.8386,763.91972,1443.641a71.74131,71.74131,0,0,1-100.3508-14.93372L573.1014,1306.6065A71.74131,71.74131,0,0,1,588.035,1206.25569l137.39907-101.8024A71.74131,71.74131,0,0,1,825.78487,1119.387l90.46752,122.10079A71.74132,71.74132,0,0,1,901.31878,1341.8386Z" transform="translate(0 0.00011)"/><path class="cls-13" d="M431.21626,1115.11048l12.1928-81.93311a50.844,50.844,0,0,1,20.021-33.36584l99.54677-73.75669a50.83891,50.83891,0,0,1,37.67049-9.44975L682.815,928.69466" transform="translate(0 0.00011)"/><path class="cls-13" d="M488.53911,1192.47708l12.1928-81.93311a50.844,50.844,0,0,1,20.021-33.36584l99.54677-73.75669a50.83891,50.83891,0,0,1,37.67049-9.44975l82.16772,12.08957" transform="translate(0 0.00011)"/><path class="cls-5" d="M584.08774,1116.96784l-58.578-79.06058a24.93448,24.93448,0,0,1,5.18821-34.87974l17.00983-12.603a24.93733,24.93733,0,0,1,34.88172,5.19093l58.578,79.06059" transform="translate(0 0.00011)"/><path class="cls-21" d="M641.16759,1074.678a35.52006,35.52006,0,1,0-7.394,49.68582,35.5207,35.5207,0,0,0,7.394-49.68582" transform="translate(0 0.00011)"/><circle class="cls-13" cx="612.62637" cy="1095.82114" r="35.52006" transform="translate(-531.97824 580.05453) rotate(-36.53567)"/><path class="cls-5" d="M728.38208,1516.18459l-58.57995-79.06326a24.93448,24.93448,0,0,1,5.19288-34.879l17.00716-12.601a24.93448,24.93448,0,0,1,34.87973,5.18825l58.57995,79.06326" transform="translate(0 0.00011)"/><path class="cls-24" d="M785.462,1473.89474a35.52006,35.52006,0,1,0-7.394,49.68582,35.5207,35.5207,0,0,0,7.394-49.68582" transform="translate(0 0.00011)"/><circle class="cls-13" cx="756.92071" cy="1495.03789" r="35.52006" transform="translate(-741.2854 744.4078) rotate(-36.53567)"/><path class="cls-4" d="M797.13092,1229.12193a68.88844,68.88844,0,1,0-14.34035,96.36419,68.89044,68.89044,0,0,0,14.34035-96.36419" transform="translate(0 0.00011)"/><circle class="cls-22" cx="741.77984" cy="1270.13497" r="68.89011" transform="translate(-610.37088 691.19761) rotate(-36.53567)"/><path class="cls-5" d="M923.98992,1371.25386,865.41,1292.1906a24.93377,24.93377,0,0,1,5.1902-34.87706l17.00983-12.603a24.93448,24.93448,0,0,1,34.87973,5.18825l58.57995,79.06326" transform="translate(0 0.00011)"/><path class="cls-24" d="M981.0697,1328.96409a35.52006,35.52006,0,1,0-7.394,49.68582,35.5207,35.5207,0,0,0,7.394-49.68582" transform="translate(0 0.00011)"/><circle class="cls-13" cx="952.52855" cy="1350.10716" r="35.52006" transform="translate(-616.56518 832.37681) rotate(-36.53567)"/><path class="cls-5" d="M910.85434,1557.99307l-58.57995-79.06326a24.93377,24.93377,0,0,1,5.1902-34.87706l17.00983-12.603a24.93661,24.93661,0,0,1,34.87973,5.18825l58.57995,79.06326" transform="translate(0 0.00011)"/><path class="cls-21" d="M967.93418,1515.70326a35.52006,35.52006,0,1,0-7.394,49.68582,35.5207,35.5207,0,0,0,7.394-49.68582" transform="translate(0 0.00011)"/><circle class="cls-13" cx="939.39297" cy="1536.84637" r="35.52006" transform="translate(-730.31667 861.2537) rotate(-36.53567)"/><path class="cls-13" d="M865.97175,1437.74826l-91.11642-122.97659" transform="translate(0 0.00011)"/><path class="cls-13" d="M741.77847,1270.13312l-70.5114,52.24365a33.9658,33.9658,0,0,0-7.0706,47.513l19.30241,26.05177" transform="translate(0 0.00011)"/><path class="cls-13" d="M741.23428,1270.53633l70.5114-52.24366a33.9658,33.9658,0,0,1,47.513,7.07065l19.30241,26.05177" transform="translate(0 0.00011)"/><rect class="cls-4" x="339.60881" y="812.30925" width="146.34341" height="30.00008" transform="translate(-411.39936 408.31543) rotate(-36.53567)"/><path class="cls-4" d="M392.753,769.0025a17.9,17.9,0,1,0-3.72612,25.03874A17.89905,17.89905,0,0,0,392.753,769.0025" transform="translate(0 0.00011)"/><path class="cls-23" d="M384.634,788.10129l22.39611,30.22724" transform="translate(0 0.00011)"/><path class="cls-23" d="M426.81867,846.63263l86.24667,116.40405" transform="translate(0 0.00011)"/><path class="cls-10" d="M431.2154,1115.11111l57.32387,77.36489,10.27715-78.0301a55.38648,55.38648,0,0,1,21.9394-37.26993l21.85177-16.19052-18.1343-24.47522a23.19719,23.19719,0,0,1,4.8288-32.44845l19.80251-14.67217a23.19719,23.19719,0,0,1,32.44845,4.8288l18.1343,24.47522,21.85219-16.19083a55.38648,55.38648,0,0,1,42.0424-10.13658l77.64478,12.88831L682.815,928.69466,606.53259,915.2764a55.38648,55.38648,0,0,0-42.56842,10.04691l-104.06435,77.10486a55.38648,55.38648,0,0,0-22.19636,39.60406Z" transform="translate(0 0.00011)"/><path class="cls-10" d="M1324.07122,918.84553l-51.95149,81.07031,76.59066-18.116a55.38648,55.38648,0,0,1,42.63307,7.26676l22.89776,14.674,16.43567-25.64679a23.19719,23.19719,0,0,1,32.04708-7.01455l20.75041,13.29784a23.19719,23.19719,0,0,1,7.01455,32.04708l-16.43567,25.64679,22.8982,14.67425a55.38648,55.38648,0,0,1,24.41213,35.6982l15.53824,77.15817,50.81251-81.80114-14.55886-76.073a55.38648,55.38648,0,0,0-24.5152-36.22176l-109.04659-69.88125a55.38648,55.38648,0,0,0-44.90621-6.67769Z" transform="translate(0 0.00011)"/><path class="cls-4" d="M876.52563,522.18294a65.88221,65.88221,0,0,1,14.55353-4.05,86.6495,86.6495,0,0,1,15.18585-.99341,142.42687,142.42687,0,0,1,15.15717,1.28906c5.01068.71985,9.97784,1.62842,14.91461,2.605,4.9425.95471,9.82837,2.09363,14.717,3.15674l14.63361,3.152c9.73261,2.09546,19.51489,3.725,29.32794,4.95569l-.90607.03259c8.498-1.62866,16.97443-3.32532,25.40723-5.19238q6.31989-1.41962,12.597-3.02087c4.18664-1.0658,8.377-2.12915,12.5575-3.28076,8.35339-2.30286,16.77539-4.59363,25.271-6.57544,8.502-1.95667,17.06128-3.6261,25.6781-4.89417-8.35584,2.46533-16.69043,4.89526-24.93982,7.5675-4.12341,1.339-8.24609,2.67322-12.35376,4.06824q-6.15949,2.11707-12.37164,4.13306c-4.1402,1.35254-8.304,2.68164-12.49792,3.91125q-6.29938,1.81787-12.65558,3.44336c-8.46851,2.18152-17.01215,4.01453-25.5741,5.69653l-.436.08569-.47052-.0531a289.56718,289.56718,0,0,1-29.85742-5.23352c-4.91968-1.07788-9.78607-2.339-14.64856-3.55l-14.5387-3.66138c-4.83447-1.20874-9.67352-2.344-14.53693-3.29114a140.5429,140.5429,0,0,0-14.65643-2.26941A83.97812,83.97812,0,0,0,876.52563,522.18294Z" transform="translate(0 0.00011)"/><path class="cls-17" d="M1187.29565,381.75562C1362.479,437,1331.792,555,1317.07455,663.57578c-14.287-10.64189-31.57455-10.34755-44.614,8.11-18.169-119.18578,30.327-193.59862-92.78291-259.937Z" transform="translate(0 0.00011)"/><path class="cls-17" d="M789.26422,388.6842C689.90009,442.56934,729.237,578.70349,792.02063,627.116l18.113-11.08057c-21.93817-74.85461-42.74792-148.952-10.78528-187.63831Z" transform="translate(0 0.00011)"/><path class="cls-19" d="M860.33569,214.73052a221.62654,221.62654,0,0,1,59.28564-33.91345q8.0517-3.11792,16.41089-5.44141c5.55664-1.57007,11.19043-2.88916,16.87048-4.01807a192.9864,192.9864,0,0,1,34.59045-3.25989,196.48211,196.48211,0,0,1,34.58166,3.31848c2.83765.57507,5.681,1.11108,8.48022,1.84009l4.21179,1.02515c1.40564.333,2.78284.77258,4.17468,1.15393l4.16272,1.18567c1.3833.40759,2.74951.86963,4.11426,1.33435l4.09033,1.39673c1.35693.48181,2.693,1.02087,4.03906,1.52844a223.4178,223.4178,0,0,1,59.316,33.84973l.02051.01624a.2994.2994,0,0,1-.34839.48621c-18.939-12.24854-39.15454-22.63879-60.51367-29.89185a201.6511,201.6511,0,0,0-132.67041-.0481c-21.35883,7.25378-41.57178,17.6554-60.48767,29.9397a.29943.29943,0,0,1-.35052-.48462Z" transform="translate(0 0.00011)"/><path class="cls-19" d="M1259.33215,745.84353a50.52046,50.52046,0,0,1,13.96558-12.34937c.68384-.41089,1.385-.79138,2.08142-1.18909.6936-.4043,1.44641-.67908,2.17188-1.02527a38.05181,38.05181,0,0,1,4.48132-1.8313,31.53974,31.53974,0,0,1,4.68616-1.34741,40.69246,40.69246,0,0,1,4.82813-.87012,49.44961,49.44961,0,0,1,19.6239,1.36816l2.39392.66541,2.32544.86084c.77258.2948,1.55408.57239,2.31909.886l2.246,1.0498c.74158.3645,1.50207.69751,2.219,1.10669l2.13977,1.24963a44.74558,44.74558,0,0,1,4.14551,2.70813,49.35481,49.35481,0,0,1,3.87561,3.07715,22.20551,22.20551,0,0,1,1.8429,1.64929l1.76465,1.73462a58.67417,58.67417,0,0,1,6.23608,7.66235,50.31186,50.31186,0,0,1,7.73328,18.04065c.26465,1.62415.61182,3.22253.78613,4.84668a46.40568,46.40568,0,0,1,.27881,4.88123l-.08569,2.43713a18.83651,18.83651,0,0,1-.17493,2.41748l-.31482,2.39807a14.94394,14.94394,0,0,1-.42078,2.36743,43.74144,43.74144,0,0,1-7.74951,17.01147l-.0304.03979a.29791.29791,0,0,1-.50354-.31335,50.36721,50.36721,0,0,0,5.06738-17.10181,46.941,46.941,0,0,0-1.44421-17.71619,53.15181,53.15181,0,0,0-20.37109-28.56873,51.48585,51.48585,0,0,0-33.56482-9.9906,48.98961,48.98961,0,0,0-17.22021,4.44568,60.6425,60.6425,0,0,0-14.927,9.84229.29821.29821,0,0,1-.43384-.40515Z" transform="translate(0 0.00011)"/><path class="cls-19" d="M640.00732,711.4635a143.5763,143.5763,0,0,1,15.39648-18.61475c.69537-.72974,1.34674-1.44165,2.07819-2.18591.82764-.76611,1.67664-1.51868,2.53223-2.26978.90784-.68054,1.82263-1.36572,2.76227-2.01782l2.9649-1.73572c1.02289-.51672,2.08527-.95813,3.13538-1.42883,1.07654-.39917,2.17139-.75769,3.26318-1.12915,1.11359-.28955,2.2431-.52441,3.36731-.77869,1.13721-.17834,2.28192-.3241,3.4256-.46948a34.2477,34.2477,0,0,1,25.42773,8.23511c.82959.75891,1.62213,1.55334,2.41919,2.32593.74188.75732,1.375,1.46851,2.02893,2.24866l3.88965,4.58838a117.66016,117.66016,0,0,1,7.23468,9.78735l.04279.06738a.29469.29469,0,0,1-.44208.38049l-8.98932-7.81958-4.4646-3.94336c-.74622-.6521-1.4823-1.32764-2.23676-1.96033-.76617-.6084-1.517-1.23694-2.29376-1.82971a33.31491,33.31491,0,0,0-33.37885-3.13159l-2.5968,1.35571-2.46545,1.58484-2.31189,1.80383-2.2619,1.93335-9.03619,7.76416-9.0979,7.69287a.29535.29535,0,0,1-.43542-.39087Z" transform="translate(0 0.00011)"/><path class="cls-19" d="M1408.15405,803.76025l2.27368-5.25525c.3999-.8678.77136-1.73315,1.21143-2.5929l1.35584-2.58716c.457-.86462.90491-1.74292,1.39661-2.59387l1.66443-2.42786,1.6842-2.444c.60559-.77991,1.26257-1.5188,1.897-2.28381.64014-.76013,1.3075-1.4978,1.9646-2.25.67566-.73181,1.43384-1.3772,2.15186-2.072l2.19458-2.05334c.73694-.6825,1.56641-1.245,2.35046-1.87476.79736-.611,1.58923-1.23779,2.40637-1.82874.809-.60425,1.70581-1.0658,2.55872-1.60559l2.6001-1.56311c.86487-.5304,1.80615-.90515,2.71-1.36462l2.748-1.31653c.91479-.44861,1.89148-.73511,2.8385-1.1095.95483-.35339,1.92212-.67346,2.88525-1.00989.962-.34143,1.969-.51843,2.95422-.78357l2.97742-.72791c.99268-.24927,2.01477-.33252,3.02344-.50439l3.04126-.4469c1.01465-.15588,2.04321-.14209,3.06665-.21863a63.91559,63.91559,0,0,1,24.26453,3.57349,49.98289,49.98289,0,0,1,5.67908,2.41858l2.74866,1.40112,1.37122.70386,1.23425.70666c3.27051,1.90149,6.58142,3.73071,9.8186,5.69165l9.7229,5.86218c1.61682.98352,3.249,1.9397,4.85327,2.94568l4.80408,3.03357c12.83081,8.05371,25.48828,16.41638,37.65381,25.65686l.03235.02454a.29863.29863,0,0,1-.32581.49878l-39.66577-22.06836-19.83289-11.03418c-6.65918-3.583-13.06494-7.73047-20.12952-10.201a59.73152,59.73152,0,0,0-62.45117,13.76343c-.66345.66516-1.353,1.30627-1.99536,1.99109l-1.80505,2.16614-1.8064,2.16638-1.58752,2.3313-1.58423,2.335c-.52344.78223-.99194,1.60852-1.4906,2.41064l-2.94946,4.84717a.29867.29867,0,0,1-.5293-.2738Z" transform="translate(0 0.00011)"/><path class="cls-19" d="M589.75983,813.65283l-4.09564-4.00159c-.67682-.66589-1.32263-1.37964-2.00934-2.01819l-2.05188-1.88928-2.01849-1.87976-2.17023-1.69751-2.14874-1.684c-.74854-.51733-1.53534-.98364-2.295-1.4751-.76556-.48437-1.5069-.99414-2.25647-1.4884-.76019-.47888-1.58514-.86-2.36926-1.29346l-2.36853-1.26074c-.788-.4165-1.64685-.70215-2.4613-1.05908-.82263-.34314-1.64886-.67-2.45422-1.03552-.80658-.36328-1.67877-.57556-2.51062-.87146l-2.5141-.83032c-.83191-.2876-1.71674-.41309-2.5683-.62878l-2.56818-.58655c-.851-.20728-1.73914-.24854-2.60272-.38257-.86853-.11255-1.72882-.25964-2.59119-.39-.86023-.14416-1.74219-.12256-2.60962-.19434l-2.60687-.15527c-.86719-.06165-1.74017.04175-2.6076.05176l-2.601.08923c-.86621.01929-1.72235.20483-2.582.2959a55.98571,55.98571,0,0,0-19.71527,5.84973,39.98036,39.98036,0,0,0-4.53162,2.47632L506.27,798.98816l-1.09421.69409-1.15335.81946c-3.09192,2.17981-6.13507,4.42664-9.267,6.55151l-9.38223,6.39331c-1.56808,1.05957-3.11765,2.14453-4.70093,3.18323l-4.76022,3.10181c-12.67,8.30444-25.54843,16.32275-39.01956,23.52771l-.03583.01929a.29865.29865,0,0,1-.3175-.50415l36.59668-26.85266,18.29834-13.42639,9.14917-6.71326a70.42768,70.42768,0,0,1,9.71054-6.02356,60.67592,60.67592,0,0,1,64.64349,6.751c.74286.59412,1.50867,1.16138,2.23218,1.77759l2.06152,1.974,2.0603,1.974,1.86011,2.16309,1.85492,2.16675c.613.72546,1.16718,1.48938,1.7536,2.23218l3.47308,4.48682a.29874.29874,0,0,1-.44495.39661Z" transform="translate(0 0.00011)"/><path class="cls-29" d="M1274,663.57581C1264.33333,592.33333,1279,557.5,1262.33333,495c-8.82542-33.09532-34.7003-55.81772-57.33333-71.5,0,0,52.33333,11.27437,73.66667,57.58716S1274,663.57581,1274,663.57581Z" transform="translate(0 0.00011)"/><path class="cls-29" d="M790.33331,436.33337c-22.33331,58.66663-1,113,16.33337,178.33325,0,0-31.33335-51.00813-35.33335-94.33738S790.33331,436.33337,790.33331,436.33337Z" transform="translate(0 0.00011)"/></g></svg>