<?xml version="1.0" encoding="utf-8"?>
<!-- Generator: Adobe Illustrator 23.0.3, SVG Export Plug-In . SVG Version: 6.00 Build 0)  -->
<svg version="1.1" id="Layer_1" xmlns="http://www.w3.org/2000/svg" xmlns:xlink="http://www.w3.org/1999/xlink" x="0px" y="0px"
	 viewBox="0 0 110.88 110.88" style="enable-background:new 0 0 110.88 110.88;" xml:space="preserve">
<style type="text/css">
	.st0{fill:#F9006C;}
	.st1{fill:#FFFFFF;}
	.st2{fill:#15003E;}
	.st3{fill:#0FCE7C;}
	.st4{fill:#25E899;}
	.st5{fill:#FFCE08;}
	.st6{fill:#C6C6C6;}
	.st7{fill:#575560;}
	.st8{fill:#D6AF0D;}
	.st9{clip-path:url(#SVGID_2_);}
	.st10{fill:#8E2ABE;}
	.st11{fill:#FFFFFF;stroke:#15003E;stroke-width:0.4312;stroke-linecap:round;stroke-miterlimit:10;}
</style>
<polygon class="st6" points="8.21,28.07 8.21,82.81 55.61,110.17 103.01,82.81 103.01,28.07 55.61,0.71 "/>
<polygon class="st7" points="16.96,33.12 16.96,77.76 55.61,100.07 94.26,77.76 94.26,33.12 55.61,10.81 "/>
<g>
	<circle class="st8" cx="61.04" cy="21.07" r="0.69"/>
</g>
<g>
	<defs>
		<polygon id="SVGID_1_" points="17.43,33.4 17.43,77.48 55.61,99.53 93.79,77.48 93.79,33.4 55.61,11.35 		"/>
	</defs>
	<clipPath id="SVGID_2_">
		<use xlink:href="#SVGID_1_"  style="overflow:visible;"/>
	</clipPath>
	<g class="st9">
		<g>
			<g>
				<g>
					<rect x="70.28" y="67.42" class="st1" width="5.39" height="2.44"/>
					<path class="st2" d="M75.89,70.08h-5.83v-2.87h5.83V70.08z M70.5,69.65h4.96v-2.01H70.5V69.65z"/>
				</g>
				<g>
					<rect x="70.6" y="69.76" class="st0" width="4.77" height="1.44"/>
					<path class="st2" d="M75.58,71.42h-5.2v-1.87h5.2V71.42z M70.81,70.99h4.34v-1.01h-4.34V70.99z"/>
				</g>
				<g>
					<rect x="70.64" y="71.24" class="st5" width="4.67" height="0.81"/>
					<path class="st2" d="M75.53,72.27h-5.11v-1.24h5.11V72.27z M70.85,71.84h4.24v-0.38h-4.24V71.84z"/>
				</g>
			</g>
			<g>
				<g>
					<rect x="31.98" y="67.42" class="st1" width="5.39" height="2.44"/>
					<path class="st2" d="M37.59,70.08h-5.83v-2.87h5.83V70.08z M32.19,69.65h4.96v-2.01h-4.96V69.65z"/>
				</g>
				<g>
					<rect x="32.29" y="69.76" class="st0" width="4.77" height="1.44"/>
					<path class="st2" d="M37.27,71.42h-5.2v-1.87h5.2V71.42z M32.51,70.99h4.34v-1.01h-4.34V70.99z"/>
				</g>
				<g>
					<rect x="32.33" y="71.24" class="st5" width="4.67" height="0.81"/>
					<path class="st2" d="M37.22,72.27h-5.11v-1.24h5.11V72.27z M32.55,71.84h4.24v-0.38h-4.24V71.84z"/>
				</g>
			</g>
			<g>
				<path class="st10" d="M86.35,65.29c-0.29-0.53-1.05-0.91-1.65-0.63c-2.49,1.16-4.82,0.83-4.82,0.83l-25.03-0.15
					c0-0.01,0-0.01,0-0.01l-1.14,0.01l-1.14-0.01c0,0,0,0.01,0,0.01l-25.03,0.15c0,0-2.33,0.33-4.82-0.83
					c-0.6-0.28-1.36,0.1-1.65,0.63c-0.52,0.96,0.37,1.89,1.07,2.45c0.77,0.62,1.29,0.76,2.24,0.75c1.41-0.01,2.82,0.01,4.23,0.01
					c3.59,0.01,7.17,0.02,10.76,0.03c4.38,0.01,8.75,0.02,13.13,0.04c0,0,0,0.01,0,0.01c0,0,0.09,0,0.1,0c0.37,0,0.74,0,1.11,0
					c0.37,0,0.74,0,1.11,0c0,0,0.1,0,0.1,0c0,0,0,0,0-0.01c4.38-0.01,8.75-0.02,13.13-0.04c3.59-0.01,7.17-0.02,10.76-0.03
					c1.41,0,2.82-0.02,4.23-0.01c0.95,0,1.47-0.14,2.24-0.75C85.98,67.18,86.87,66.25,86.35,65.29z"/>
				<path class="st2" d="M54.91,68.8H52.5l-0.01-0.22l0,0.21l-23.88-0.06c-0.49,0-0.96,0-1.43-0.01c-0.94,0-1.87-0.01-2.81-0.01
					c-0.01,0-0.02,0-0.03,0c-1.03,0-1.58-0.19-2.34-0.8c-1.5-1.2-1.44-2.14-1.12-2.72c0.33-0.61,1.21-1.06,1.93-0.72
					c2.4,1.12,4.68,0.82,4.7,0.81l0.03,0l24.82-0.15l0,0l0.21-0.01l1.14,0.01l1.34-0.01l0,0.02l24.84,0.15l0.01,0
					c0.02,0,2.3,0.31,4.7-0.81c0.72-0.34,1.6,0.11,1.93,0.72l0,0c0.32,0.58,0.38,1.52-1.12,2.72c-0.77,0.62-1.33,0.8-2.38,0.8
					c-0.94,0-1.87,0-2.81,0.01c-0.47,0-0.95,0-1.42,0.01L54.91,68.8l0.01-0.21L54.91,68.8z M53.71,68.36l1.02,0l0.19-0.01
					l23.89-0.06c0.47,0,0.95,0,1.42-0.01c0.94,0,1.88-0.01,2.81-0.01c0.95,0.01,1.4-0.15,2.1-0.71c1.02-0.81,1.36-1.55,1.01-2.18
					c-0.24-0.44-0.88-0.76-1.37-0.54c-2.45,1.14-4.7,0.88-4.93,0.85l-25.23-0.15l0-0.01l-0.92,0.01l-0.96-0.01l-0.18,0.01
					l-25.02,0.15c-0.22,0.03-2.48,0.29-4.93-0.85c-0.49-0.23-1.13,0.09-1.37,0.54c-0.35,0.63,0,1.37,1.01,2.18
					c0.7,0.56,1.15,0.72,2.1,0.71c0.94,0,1.88,0,2.81,0.01c0.47,0,0.95,0,1.42,0.01l24.12,0.07l0,0.01L53.71,68.36z"/>
			</g>
		</g>
		<g>
			<polygon class="st2" points="32.93,72.69 32.4,72.69 32.93,72.67 			"/>
		</g>
		<g>
			<circle class="st5" cx="66.49" cy="33.29" r="17.36"/>
		</g>
		<g>
			<circle class="st8" cx="70.86" cy="23.8" r="4.43"/>
		</g>
		<g>
			<circle class="st8" cx="75.4" cy="36.32" r="2.11"/>
		</g>
		<g>
			<circle class="st8" cx="77.67" cy="30.17" r="1.39"/>
		</g>
		<g>
			<circle class="st8" cx="66.31" cy="29.01" r="0.78"/>
		</g>
		<g>
			<circle class="st8" cx="81.55" cy="36.82" r="0.83"/>
		</g>
		<g>
			<circle class="st8" cx="77.01" cy="25.07" r="0.61"/>
		</g>
		<g>
			<ellipse class="st2" cx="53.74" cy="66.11" rx="6.46" ry="0.75"/>
			<path class="st2" d="M53.74,67.08c-1.73,0-3.36-0.08-4.59-0.22c-1.92-0.22-2.08-0.5-2.08-0.74s0.16-0.52,2.08-0.74
				c1.23-0.14,2.86-0.22,4.59-0.22c1.73,0,3.36,0.08,4.59,0.22c1.92,0.22,2.08,0.5,2.08,0.74s-0.16,0.52-2.08,0.74
				C57.1,67,55.47,67.08,53.74,67.08z M47.58,66.11c0.53,0.24,2.75,0.53,6.16,0.53s5.63-0.29,6.16-0.53
				c-0.53-0.24-2.75-0.53-6.16-0.53S48.11,65.87,47.58,66.11z M60,66.18L60,66.18L60,66.18z"/>
		</g>
		<g>
			<g>
				<g>
					<path class="st5" d="M63.7,51.6c0,1.53-1.24,2.77-2.77,2.77s-2.77-1.24-2.77-2.77L63.7,51.6z"/>
					<path class="st2" d="M60.93,54.59c-1.65,0-2.99-1.34-2.99-2.99v-0.22h5.97v0.22C63.92,53.25,62.58,54.59,60.93,54.59z
						 M58.38,51.82c0.11,1.31,1.21,2.34,2.55,2.34s2.44-1.03,2.55-2.34H58.38z"/>
				</g>
				<g>
					<rect x="59.38" y="50.15" class="st1" width="3.66" height="1.33"/>
					<path class="st2" d="M63.25,51.7h-4.09v-1.76h4.09V51.7z M59.59,51.27h3.23v-0.9h-3.23V51.27z"/>
				</g>
				<g>
					<rect x="59.88" y="48.32" class="st3" width="5.49" height="2.27"/>
					<path class="st2" d="M65.58,50.81h-5.92v-2.7h5.92V50.81z M60.09,50.38h5.06v-1.84h-5.06V50.38z"/>
				</g>
				<g>
					<path class="st1" d="M63.27,49.11l-1.13,0c-2.43-0.01-4.42-2-4.41-4.44l0.01-3.72c0.01-2.43,2-4.42,4.44-4.41l1.13,0
						c2.43,0.01,4.42,2,4.41,4.44l-0.01,3.72C67.7,47.13,65.71,49.12,63.27,49.11z"/>
					<path class="st2" d="M62.72,49.33c-0.01,0-0.01,0-0.02,0c-1.38,0-2.69-0.55-3.67-1.54c-0.98-0.99-1.52-2.3-1.52-3.68l0.01-2.59
						c0-1.38,0.55-2.69,1.54-3.67c0.99-0.98,2.3-1.52,3.68-1.52c1.38,0,2.69,0.55,3.67,1.54c0.98,0.99,1.52,2.3,1.52,3.68
						l-0.01,2.59C67.92,47,65.59,49.33,62.72,49.33z M62.73,36.76c-1.26,0-2.46,0.49-3.36,1.39c-0.91,0.9-1.41,2.1-1.41,3.37
						l-0.01,2.59c0,1.27,0.49,2.47,1.39,3.38c0.9,0.91,2.1,1.41,3.37,1.41l0,0c0,0,0.01,0,0.01,0c2.63,0,4.77-2.13,4.77-4.76
						l0.01-2.59c0-1.27-0.49-2.47-1.39-3.38c-0.9-0.91-2.1-1.41-3.37-1.41C62.74,36.76,62.74,36.76,62.73,36.76z"/>
				</g>
				<g>
					<path class="st2" d="M66.86,38.92h-4.38c-0.12,0-0.22-0.1-0.22-0.22s0.1-0.22,0.22-0.22h4.38c0.12,0,0.22,0.1,0.22,0.22
						S66.98,38.92,66.86,38.92z"/>
				</g>
				<g>
					<path class="st1" d="M67.69,41.37h-4.67l0.07,5.43c0,0,2.94,0.78,4.32-1.22C67.41,45.58,68.02,45.36,67.69,41.37z"/>
					<path class="st2" d="M64.41,47.17c-0.75,0-1.32-0.15-1.38-0.16l-0.16-0.04l-0.08-5.81h5.09l0.02,0.2
						c0.28,3.36-0.09,4.19-0.34,4.39C66.73,46.91,65.41,47.17,64.41,47.17z M63.3,46.62c0.61,0.12,2.83,0.42,3.93-1.17l0.04-0.06
						l0.03-0.01c0.07-0.08,0.43-0.69,0.18-3.81h-4.26L63.3,46.62z M67.3,45.4L67.3,45.4L67.3,45.4z"/>
				</g>
			</g>
			<g>
				<g>
					<path class="st5" d="M43.42,51.6c0,1.53,1.24,2.77,2.77,2.77s2.77-1.24,2.77-2.77H43.42z"/>
					<path class="st2" d="M46.19,54.59c-1.65,0-2.99-1.34-2.99-2.99v-0.22h5.97v0.22C49.18,53.25,47.84,54.59,46.19,54.59z
						 M43.65,51.82c0.11,1.31,1.21,2.34,2.55,2.34s2.44-1.03,2.55-2.34H43.65z"/>
				</g>
				<g>
					
						<rect x="44.09" y="50.15" transform="matrix(-1 -4.525237e-11 4.525237e-11 -1 91.8349 101.6367)" class="st1" width="3.66" height="1.33"/>
					<path class="st2" d="M47.96,51.7h-4.09v-1.76h4.09V51.7z M44.3,51.27h3.23v-0.9H44.3V51.27z"/>
				</g>
				<g>
					
						<rect x="41.76" y="48.32" transform="matrix(-1 -4.508672e-11 4.508672e-11 -1 89.0083 98.9209)" class="st3" width="5.49" height="2.27"/>
					<path class="st2" d="M47.46,50.81h-5.92v-2.7h5.92V50.81z M41.98,50.38h5.06v-1.84h-5.06V50.38z"/>
				</g>
				<g>
					<path class="st1" d="M43.85,49.11l1.13,0c2.43-0.01,4.42-2,4.41-4.44l-0.01-3.72c-0.01-2.43-2-4.42-4.44-4.41l-1.13,0
						c-2.43,0.01-4.42,2-4.41,4.44l0.01,3.72C39.42,47.13,41.42,49.12,43.85,49.11z"/>
					<path class="st2" d="M44.4,49.33c-1.38,0-2.68-0.54-3.66-1.52c-0.99-0.98-1.54-2.29-1.54-3.67l-0.01-2.59
						c-0.01-2.87,2.32-5.21,5.19-5.22c0.01,0,0.01,0,0.02,0c2.86,0,5.2,2.32,5.21,5.19l0.01,2.59c0.01,2.87-2.32,5.21-5.19,5.22l0,0
						C44.41,49.33,44.41,49.33,44.4,49.33z M44.39,36.76c0,0-0.01,0-0.01,0c-2.63,0.01-4.77,2.16-4.76,4.79l0.01,2.59
						c0,1.27,0.51,2.47,1.41,3.37c0.9,0.9,2.1,1.39,3.36,1.39c0.01,0,0.01,0,0.01,0l0,0c1.27,0,2.47-0.51,3.37-1.41
						c0.9-0.91,1.4-2.11,1.39-3.38l-0.01-2.59C49.16,38.89,47.02,36.76,44.39,36.76z"/>
				</g>
				<g>
					<line class="st1" x1="40.26" y1="38.71" x2="44.64" y2="38.71"/>
					<path class="st2" d="M44.64,38.92h-4.38c-0.12,0-0.22-0.1-0.22-0.22s0.1-0.22,0.22-0.22h4.38c0.12,0,0.22,0.1,0.22,0.22
						S44.76,38.92,44.64,38.92z"/>
				</g>
				<g>
					<path class="st1" d="M39.43,41.37h4.67l-0.07,5.43c0,0-2.94,0.78-4.32-1.22C39.71,45.58,39.1,45.36,39.43,41.37z"/>
					<path class="st2" d="M42.71,47.17c-1,0-2.32-0.26-3.15-1.43c-0.25-0.2-0.62-1.03-0.34-4.39l0.02-0.2h5.09l-0.08,5.81
						l-0.16,0.04C44.03,47.02,43.46,47.17,42.71,47.17z M39.82,45.39l0.03,0.01l0.04,0.06c1.1,1.59,3.32,1.29,3.93,1.17l0.07-5.04
						h-4.26C39.39,44.7,39.75,45.31,39.82,45.39z M39.83,45.4L39.83,45.4L39.83,45.4z"/>
				</g>
			</g>
			<g>
				<g>
					<g>
						<polygon class="st2" points="63.16,42.86 72.11,63.78 76.1,63.7 63.02,41.31 						"/>
						<path class="st2" d="M71.97,64l-0.06-0.13l-8.95-20.94l-0.24-2.56l13.76,23.55L71.97,64z M63.38,42.81l8.87,20.75l3.48-0.06
							l-12.4-21.23L63.38,42.81z"/>
					</g>
					<g>
						<g>
							<rect x="63.73" y="41.38" class="st1" width="1.61" height="2.55"/>
							<path class="st2" d="M65.55,44.15h-2.04v-2.98h2.04V44.15z M63.94,43.71h1.18V41.6h-1.18V43.71z"/>
						</g>
						<g>
							<rect x="57.99" y="41.15" class="st2" width="4.8" height="1.85"/>
							<path class="st2" d="M63.01,43.21h-5.23v-2.28h5.23V43.21z M58.21,42.78h4.37v-1.42h-4.37V42.78z"/>
						</g>
						<g>
							<rect x="62.51" y="40.36" class="st1" width="1.83" height="4.6"/>
							<path class="st2" d="M64.55,45.17h-2.26v-5.03h2.26V45.17z M62.73,44.74h1.4v-4.17h-1.4V44.74z"/>
						</g>
						<g>
							<path class="st1" d="M77.12,56.88l-6.72,2.88l-5.2-12.12l2.36-1.01c3.29-1.41,5.51,0.8,6.92,4.09L77.12,56.88z"/>
							<path class="st2" d="M70.28,60.04l-5.37-12.52l2.56-1.1c1.22-0.52,2.57-0.54,3.8-0.05c1.23,0.49,2.2,1.43,2.72,2.65
								l3.41,7.96L70.28,60.04z M65.48,47.75l5.03,11.73l6.33-2.71l-3.24-7.56c-0.48-1.11-1.36-1.97-2.48-2.42
								c-1.12-0.45-2.35-0.43-3.47,0.04L65.48,47.75z"/>
						</g>
						<g>
							<path class="st1" d="M74.36,50.62c0,0-0.78-1-2.62-0.78c-1.67,0.2-4.66,2.11-4.66,2.11"/>
							<path class="st2" d="M67.08,52.17c-0.07,0-0.14-0.04-0.18-0.1c-0.06-0.1-0.03-0.23,0.07-0.3c0.12-0.08,3.05-1.93,4.75-2.14
								c1.94-0.23,2.78,0.81,2.82,0.86c0.07,0.09,0.06,0.23-0.04,0.3c-0.09,0.07-0.23,0.06-0.3-0.04c-0.03-0.04-0.74-0.9-2.43-0.69
								c-1.6,0.19-4.54,2.05-4.57,2.07C67.16,52.16,67.12,52.17,67.08,52.17z"/>
						</g>
						<g>
							<path class="st1" d="M73.63,48.97c0,0-0.78-1-2.62-0.78c-1.67,0.2-4.66,2.11-4.66,2.11"/>
							<path class="st2" d="M66.35,50.51c-0.07,0-0.14-0.04-0.18-0.1c-0.06-0.1-0.03-0.23,0.07-0.3c0.12-0.08,3.05-1.93,4.75-2.14
								c1.95-0.23,2.78,0.81,2.82,0.86c0.07,0.09,0.06,0.23-0.04,0.3c-0.09,0.07-0.23,0.06-0.3-0.04c-0.03-0.04-0.74-0.9-2.43-0.7
								c-1.6,0.19-4.54,2.06-4.57,2.07C66.43,50.5,66.39,50.51,66.35,50.51z"/>
						</g>
						<g>
							<line class="st1" x1="72.85" y1="58.49" x2="67.56" y2="46.63"/>
							<path class="st2" d="M72.85,58.71c-0.08,0-0.16-0.05-0.2-0.13l-5.29-11.87c-0.05-0.11,0-0.24,0.11-0.28
								c0.11-0.05,0.24,0,0.28,0.11l5.29,11.87c0.05,0.11,0,0.24-0.11,0.28C72.9,58.7,72.87,58.71,72.85,58.71z"/>
						</g>
						<g>
							<circle class="st4" cx="70.74" cy="58.44" r="0.33"/>
						</g>
						<g>
							<path class="st1" d="M78.14,55.79l-0.31,0.13c-0.68,0.28-1.45-0.04-1.74-0.71l-2.87-6.85l1.54-0.64
								c0.68-0.28,1.45,0.04,1.74,0.71l2.35,5.63C79.14,54.73,78.82,55.51,78.14,55.79z"/>
							<path class="st2" d="M77.41,56.19c-0.22,0-0.44-0.04-0.65-0.13c-0.42-0.17-0.75-0.5-0.93-0.92l-2.88-6.9l1.58-0.66
								c0.42-0.18,0.89-0.18,1.31,0c0.42,0.17,0.75,0.5,0.93,0.92l2.22,5.32c0.18,0.42,0.18,0.89,0,1.31
								c-0.17,0.42-0.5,0.75-0.92,0.93C77.86,56.14,77.63,56.19,77.41,56.19z M73.51,48.47l2.72,6.5c0.13,0.32,0.38,0.56,0.7,0.69
								c0.32,0.13,0.66,0.13,0.98,0v0c0.32-0.13,0.56-0.38,0.69-0.7c0.13-0.32,0.13-0.66,0-0.98l-2.22-5.32
								c-0.13-0.32-0.38-0.56-0.7-0.69c-0.32-0.13-0.66-0.13-0.98,0L73.51,48.47z"/>
						</g>
						<g>
							<circle class="st5" cx="77.64" cy="54.97" r="1.43"/>
							<path class="st2" d="M77.64,56.62c-0.91,0-1.64-0.74-1.64-1.64s0.74-1.64,1.64-1.64c0.91,0,1.64,0.74,1.64,1.64
								S78.55,56.62,77.64,56.62z M77.64,53.76c-0.67,0-1.21,0.54-1.21,1.21c0,0.67,0.54,1.21,1.21,1.21s1.21-0.54,1.21-1.21
								C78.85,54.31,78.31,53.76,77.64,53.76z"/>
						</g>
						<g>
							<path class="st2" d="M72.11,63.78l0.07,1.48l7.97,0.03c0.15,0,0.18-0.21,0.04-0.25L76.1,63.7L72.11,63.78z"/>
							<path class="st2" d="M80.15,65.5C80.15,65.5,80.15,65.5,80.15,65.5l-8.18-0.03l-0.1-1.9l4.25-0.08l4.13,1.34
								c0.16,0.05,0.26,0.21,0.23,0.38C80.46,65.38,80.32,65.5,80.15,65.5z M72.39,65.04l7.21,0.03l-3.53-1.15l-3.73,0.07
								L72.39,65.04z"/>
						</g>
					</g>
				</g>
				<g>
					<circle class="st2" cx="66.3" cy="48.22" r="0.33"/>
				</g>
			</g>
			<g>
				<g>
					<g>
						<polygon class="st2" points="44.36,42.86 35.42,63.78 31.43,63.7 44.51,41.31 						"/>
						<path class="st2" d="M35.56,64l-4.5-0.08l13.76-23.55l-0.24,2.56L35.56,64z M31.8,63.49l3.48,0.06l8.87-20.75l0.05-0.54
							L31.8,63.49z M44.36,42.86L44.36,42.86L44.36,42.86z"/>
					</g>
					<g>
						<g>
							
								<rect x="42.19" y="41.38" transform="matrix(-1 -4.470347e-11 4.470347e-11 -1 85.9811 85.3116)" class="st1" width="1.61" height="2.55"/>
							<path class="st2" d="M44.01,44.15h-2.04v-2.98h2.04V44.15z M42.4,43.71h1.18V41.6H42.4V43.71z"/>
						</g>
						<g>
							
								<rect x="44.73" y="41.15" transform="matrix(-1 -4.487534e-11 4.487534e-11 -1 94.2585 84.1451)" class="st2" width="4.8" height="1.85"/>
							<path class="st2" d="M49.75,43.21h-5.23v-2.28h5.23V43.21z M44.94,42.78h4.37v-1.42h-4.37V42.78z"/>
						</g>
						<g>
							
								<rect x="43.18" y="40.36" transform="matrix(-1 -4.525237e-11 4.525237e-11 -1 88.198 85.3116)" class="st1" width="1.83" height="4.6"/>
							<path class="st2" d="M45.23,45.17h-2.26v-5.03h2.26V45.17z M43.4,44.74h1.4v-4.17h-1.4V44.74z"/>
						</g>
						<g>
							<path class="st1" d="M30.41,56.88l6.72,2.88l5.2-12.12l-2.36-1.01c-3.29-1.41-5.51,0.8-6.92,4.09L30.41,56.88z"/>
							<path class="st2" d="M37.24,60.04l-7.12-3.05l3.41-7.96c0.52-1.22,1.49-2.16,2.72-2.65c1.23-0.49,2.58-0.48,3.8,0.05
								l2.56,1.1L37.24,60.04z M30.69,56.76l6.33,2.71l5.03-11.73l-2.16-0.93c-1.11-0.48-2.34-0.49-3.47-0.04
								c-1.12,0.45-2.01,1.31-2.48,2.42L30.69,56.76z"/>
						</g>
						<g>
							<path class="st1" d="M33.16,50.62c0,0,0.78-1,2.62-0.78c1.67,0.2,4.66,2.11,4.66,2.11"/>
							<path class="st2" d="M40.44,52.17c-0.04,0-0.08-0.01-0.12-0.03c-0.03-0.02-2.97-1.88-4.57-2.07c-1.69-0.2-2.4,0.66-2.43,0.7
								c-0.07,0.09-0.21,0.11-0.3,0.04c-0.09-0.07-0.11-0.21-0.04-0.3c0.03-0.04,0.87-1.09,2.82-0.86c1.69,0.2,4.62,2.06,4.75,2.14
								c0.1,0.06,0.13,0.2,0.07,0.3C40.58,52.13,40.51,52.17,40.44,52.17z"/>
						</g>
						<g>
							<path class="st1" d="M33.89,48.97c0,0,0.78-1,2.62-0.78c1.67,0.2,4.66,2.11,4.66,2.11"/>
							<path class="st2" d="M41.17,50.51c-0.04,0-0.08-0.01-0.12-0.03c-0.03-0.02-2.97-1.88-4.57-2.07c-1.69-0.2-2.4,0.66-2.43,0.7
								c-0.07,0.09-0.21,0.11-0.3,0.04c-0.09-0.07-0.11-0.21-0.04-0.3c0.03-0.04,0.87-1.09,2.82-0.86c1.69,0.2,4.62,2.06,4.75,2.14
								c0.1,0.06,0.13,0.2,0.07,0.3C41.31,50.48,41.24,50.51,41.17,50.51z"/>
						</g>
						<g>
							<line class="st1" x1="34.68" y1="58.49" x2="39.97" y2="46.63"/>
							<path class="st2" d="M34.68,58.71c-0.03,0-0.06-0.01-0.09-0.02c-0.11-0.05-0.16-0.18-0.11-0.28l5.29-11.87
								c0.05-0.11,0.18-0.16,0.28-0.11c0.11,0.05,0.16,0.18,0.11,0.28l-5.29,11.87C34.84,58.66,34.76,58.71,34.68,58.71z"/>
						</g>
						<g>
							<circle class="st4" cx="36.78" cy="58.44" r="0.33"/>
						</g>
						<g>
							<path class="st1" d="M29.38,55.79l0.31,0.13c0.68,0.28,1.45-0.04,1.74-0.71l2.87-6.85l-1.54-0.64
								c-0.68-0.28-1.45,0.04-1.74,0.71l-2.35,5.63C28.39,54.73,28.7,55.51,29.38,55.79z"/>
							<path class="st2" d="M30.11,56.19c-0.22,0-0.45-0.04-0.66-0.13l0,0c-0.42-0.18-0.75-0.51-0.92-0.93
								c-0.17-0.42-0.17-0.89,0-1.31l2.22-5.32c0.36-0.87,1.37-1.28,2.24-0.92l1.58,0.66l-2.88,6.9c-0.18,0.42-0.51,0.75-0.93,0.92
								C30.55,56.14,30.33,56.19,30.11,56.19z M32.34,47.87c-0.5,0-0.98,0.3-1.18,0.79l-2.22,5.32c-0.13,0.32-0.13,0.66,0,0.98
								c0.13,0.32,0.38,0.56,0.69,0.7l0,0c0.32,0.13,0.66,0.13,0.98,0c0.32-0.13,0.56-0.38,0.7-0.69l2.72-6.5l-1.18-0.49
								C32.67,47.91,32.5,47.87,32.34,47.87z"/>
						</g>
						<g>
							<circle class="st5" cx="29.88" cy="54.97" r="1.43"/>
							<path class="st2" d="M29.88,56.62c-0.91,0-1.64-0.74-1.64-1.64s0.74-1.64,1.64-1.64s1.64,0.74,1.64,1.64
								S30.79,56.62,29.88,56.62z M29.88,53.76c-0.67,0-1.21,0.54-1.21,1.21c0,0.67,0.54,1.21,1.21,1.21s1.21-0.54,1.21-1.21
								C31.09,54.31,30.55,53.76,29.88,53.76z"/>
						</g>
						<g>
							<path class="st2" d="M35.42,63.78l-0.07,1.48l-7.97,0.03c-0.15,0-0.18-0.21-0.04-0.25l4.09-1.33L35.42,63.78z"/>
							<path class="st2" d="M27.37,65.5c-0.17,0-0.31-0.12-0.34-0.29c-0.03-0.17,0.07-0.33,0.23-0.38l4.13-1.34l4.25,0.08l-0.1,1.9
								L27.37,65.5C27.37,65.5,27.37,65.5,27.37,65.5z M31.46,63.92l-3.53,1.15l7.21-0.03l0.05-1.05L31.46,63.92z"/>
						</g>
					</g>
				</g>
				<g>
					<circle class="st2" cx="41.23" cy="48.22" r="0.33"/>
				</g>
			</g>
			<g>
				<g>
					<path class="st1" d="M47.2,24.14h-0.34c-0.72,0-1.3,0.58-1.3,1.3v2.29c0,0.72,0.58,1.3,1.3,1.3h1.08"/>
					<path class="st2" d="M47.94,29.24h-1.08c-0.83,0-1.51-0.68-1.51-1.51v-2.29c0-0.83,0.68-1.51,1.51-1.51h0.34
						c0.12,0,0.22,0.1,0.22,0.22s-0.1,0.22-0.22,0.22h-0.34c-0.6,0-1.08,0.48-1.08,1.08v2.29c0,0.6,0.48,1.08,1.08,1.08h1.08
						c0.12,0,0.22,0.1,0.22,0.22S48.06,29.24,47.94,29.24z"/>
				</g>
				<g>
					<path class="st1" d="M60.16,24.14h0.32c0.72,0,1.3,0.58,1.3,1.3v2.29c0,0.72-0.47,1.3-1.18,1.3h-0.94"/>
					<path class="st2" d="M60.59,29.24h-0.94c-0.12,0-0.22-0.1-0.22-0.22s0.1-0.22,0.22-0.22h0.94c0.57,0,0.96-0.44,0.96-1.08v-2.29
						c0-0.6-0.48-1.08-1.08-1.08h-0.32c-0.12,0-0.22-0.1-0.22-0.22s0.1-0.22,0.22-0.22h0.32c0.83,0,1.51,0.68,1.51,1.51v2.29
						C61.99,28.6,61.4,29.24,60.59,29.24z"/>
				</g>
				<g>
					<path class="st1" d="M59.82,24.83c-0.41-4.12-3.59-5.32-5.46-5.45c0,0,0-0.01,0-0.01c0,0-0.21-0.02-0.56-0.01
						c-0.35,0-0.56,0.01-0.56,0.01c0,0,0,0,0,0.01c-1.87,0.13-5.32,1.33-5.73,5.45c0,0-0.39,2.54,0.74,4.75
						c0.16,0.31,0.24,0.64,0.24,0.99l0.14,2.65c0,1.21,0.84,2.1,2.04,2.1h2.71h0.84h2.71c1.21,0,1.76-0.89,1.76-2.1l0.42-2.65
						c0-0.34,0.08-0.68,0.24-0.99C60.49,27.36,59.82,24.83,59.82,24.83z"/>
					<path class="st2" d="M56.94,35.53h-6.26c-1.31,0-2.26-0.97-2.26-2.31l-0.14-2.64c0-0.32-0.07-0.62-0.21-0.9
						c-1.15-2.25-0.78-4.77-0.76-4.88c0.41-4.15,3.92-5.49,5.93-5.63l0-0.01c0.01,0,0.23-0.02,0.58-0.02c0.35,0,0.57,0.01,0.58,0.02
						l0,0.01c2.36,0.16,5.25,1.73,5.65,5.62c0.06,0.25,0.63,2.7-0.48,4.89c-0.14,0.28-0.21,0.58-0.21,0.89l0,0.03l-0.42,2.63
						C58.91,34.67,58.17,35.53,56.94,35.53z M53.51,19.58l-0.24,0.02c-0.52,0.03-5.06,0.48-5.53,5.25
						c-0.01,0.04-0.36,2.51,0.72,4.63c0.17,0.34,0.26,0.71,0.26,1.08l0.14,2.64c0,1.12,0.75,1.89,1.83,1.89h6.26
						c1.4,0,1.55-1.32,1.55-1.88l0-0.03l0.42-2.63c0-0.37,0.09-0.74,0.26-1.07c1.08-2.12,0.45-4.57,0.44-4.6l-0.01-0.03
						c-0.36-3.64-3.06-5.1-5.26-5.25l-0.29-0.02l0,0c-0.07,0-0.15,0-0.25,0C53.7,19.57,53.59,19.58,53.51,19.58z M59.12,30.56
						L59.12,30.56L59.12,30.56z"/>
				</g>
				<g>
					<path class="st2" d="M47.52,25.04c-0.06,0-0.11-0.02-0.15-0.06c-0.08-0.08-0.08-0.22,0-0.3c0.12-0.12,2.9-2.86,6.3-2.86
						c3.41,0,6.19,2.74,6.3,2.86c0.08,0.08,0.08,0.22,0,0.3c-0.08,0.08-0.22,0.08-0.3,0c-0.03-0.03-2.77-2.73-6-2.73
						c-3.23,0-5.97,2.71-6,2.73C47.63,25.02,47.58,25.04,47.52,25.04z"/>
				</g>
				<g>
					<path class="st2" d="M60.1,26.5c-0.16,0-0.29-0.13-0.29-0.29v-8.65c0-0.16,0.13-0.29,0.29-0.29s0.29,0.13,0.29,0.29v8.65
						C60.39,26.37,60.26,26.5,60.1,26.5z"/>
				</g>
				<g>
					<path class="st2" d="M47.24,26.52c-0.16,0-0.29-0.13-0.29-0.29v-6.43c0-0.16,0.13-0.29,0.29-0.29c0.16,0,0.29,0.13,0.29,0.29
						v6.43C47.53,26.39,47.4,26.52,47.24,26.52z"/>
				</g>
				<g>
					<ellipse class="st4" cx="53.67" cy="25.87" rx="4.75" ry="3.84"/>
					<path class="st2" d="M53.67,29.93c-2.74,0-4.97-1.82-4.97-4.05s2.23-4.05,4.97-4.05c2.74,0,4.97,1.82,4.97,4.05
						S56.41,29.93,53.67,29.93z M53.67,22.25c-2.5,0-4.54,1.63-4.54,3.62c0,2,2.04,3.62,4.54,3.62c2.5,0,4.54-1.63,4.54-3.62
						C58.21,23.87,56.17,22.25,53.67,22.25z"/>
				</g>
				<g>
					<circle class="st1" cx="54.78" cy="24.42" r="1.16"/>
				</g>
				<g>
					<polygon class="st3" points="58.73,32.28 48.73,32.15 48.63,30.54 48.6,30.1 59.03,30.08 58.97,30.56 					"/>
				</g>
				<g>
					<rect x="48.39" y="29.61" class="st2" width="10.89" height="0.43"/>
				</g>
				<g>
					<rect x="48.5" y="32.02" class="st2" width="10.34" height="0.43"/>
				</g>
				<g>
					<path class="st2" d="M57.51,30.94c-0.16-0.27-0.36-0.6-0.8-0.6c-0.44,0-0.64,0.33-0.8,0.6c-0.15,0.25-0.26,0.41-0.42,0.41
						c-0.14,0-0.24-0.16-0.38-0.4c-0.15-0.27-0.35-0.61-0.77-0.61c-0.42,0-0.62,0.34-0.77,0.61c-0.14,0.24-0.24,0.4-0.38,0.4
						c-0.14,0-0.24-0.16-0.38-0.4c-0.15-0.27-0.35-0.61-0.77-0.61c-0.42,0-0.62,0.34-0.77,0.61c-0.14,0.24-0.24,0.4-0.38,0.4
						s-0.24-0.16-0.38-0.4c-0.15-0.27-0.35-0.61-0.77-0.61v0.36c0.14,0,0.24,0.16,0.38,0.4c0.15,0.27,0.35,0.61,0.77,0.61
						c0.42,0,0.62-0.34,0.77-0.61c0.14-0.24,0.24-0.4,0.38-0.4c0.14,0,0.24,0.16,0.38,0.4c0.15,0.27,0.35,0.61,0.77,0.61
						c0.42,0,0.62-0.34,0.77-0.61c0.14-0.24,0.24-0.4,0.38-0.4c0.14,0,0.24,0.16,0.38,0.4c0.15,0.27,0.35,0.61,0.77,0.61
						c0.44,0,0.64-0.33,0.8-0.6c0.15-0.25,0.26-0.41,0.42-0.41c0.16,0,0.26,0.15,0.42,0.41c0.14,0.23,0.31,0.5,0.62,0.58v-0.41
						C57.67,31.2,57.6,31.09,57.51,30.94z"/>
				</g>
				<g>
					<circle class="st1" cx="56.38" cy="25.97" r="0.52"/>
				</g>
			</g>
			<g>
				<path class="st4" d="M57.77,36.67h-8.2c-0.12,0-0.22-0.1-0.22-0.22s0.1-0.22,0.22-0.22h8.2c0.12,0,0.22,0.1,0.22,0.22
					S57.89,36.67,57.77,36.67z"/>
			</g>
			<g>
				<path class="st1" d="M56.92,40.58h-6.51c-0.65,0-1.18-0.53-1.18-1.18v-0.3c0-0.65,0.53-1.18,1.18-1.18h6.51
					c0.65,0,1.18,0.53,1.18,1.18v0.3C58.1,40.05,57.57,40.58,56.92,40.58z"/>
				<path class="st2" d="M57.24,40.79h-7.15c-0.59,0-1.07-0.48-1.07-1.07v-0.94c0-0.59,0.48-1.07,1.07-1.07h7.15
					c0.59,0,1.07,0.48,1.07,1.07v0.94C58.32,40.31,57.84,40.79,57.24,40.79z M50.09,38.13c-0.35,0-0.64,0.29-0.64,0.64v0.94
					c0,0.35,0.29,0.64,0.64,0.64h7.15c0.35,0,0.64-0.29,0.64-0.64v-0.94c0-0.35-0.29-0.64-0.64-0.64H50.09z"/>
			</g>
			<g>
				<path class="st1" d="M60.5,43.29v-2.65c0-0.68-0.55-1.23-1.23-1.23H48.06c-0.68,0-1.23,0.55-1.23,1.23v2.68
					c-0.39,0.2-0.63,0.65-0.54,1.12l1.54,7.96c0.24,1.23,1.31,2.12,2.56,2.12h3.15h0.23h3.15c1.25,0,2.33-0.89,2.56-2.12l1.55-7.99
					C61.14,43.94,60.9,43.49,60.5,43.29z"/>
				<path class="st2" d="M56.93,54.73H50.4c-1.35,0-2.52-0.96-2.78-2.29l-1.54-7.96c-0.1-0.5,0.12-1.01,0.54-1.28v-2.55
					c0-0.8,0.65-1.44,1.44-1.44h11.21c0.8,0,1.44,0.65,1.44,1.44v2.52c0.42,0.28,0.64,0.79,0.54,1.28l-1.55,7.99
					C59.45,53.77,58.28,54.73,56.93,54.73z M48.06,39.63c-0.56,0-1.01,0.45-1.01,1.01v2.81l-0.12,0.06
					c-0.33,0.17-0.5,0.53-0.43,0.89l1.54,7.96c0.22,1.12,1.21,1.94,2.35,1.94h6.53c1.15,0,2.13-0.82,2.35-1.94l1.55-7.99
					c0.07-0.36-0.1-0.72-0.43-0.89l-0.12-0.06v-2.78c0-0.56-0.45-1.01-1.01-1.01H48.06z"/>
			</g>
			<g>
				<path class="st2" d="M54.88,54.37h-2.42c-1.52,0-2.75-1.23-2.75-2.75v-7.4h7.92v7.4C57.63,53.14,56.4,54.37,54.88,54.37z"/>
				<path class="st2" d="M57.09,54.59h-6.85c-0.41,0-0.75-0.34-0.75-0.75V44h8.35v9.84C57.84,54.25,57.51,54.59,57.09,54.59z
					 M49.93,44.43v9.4c0,0.18,0.14,0.32,0.32,0.32h6.85c0.18,0,0.32-0.14,0.32-0.32v-9.4H49.93z"/>
			</g>
			<g>
				<g>
					<circle class="st4" cx="53.67" cy="44.15" r="2.66"/>
					<path class="st2" d="M53.67,47.02c-1.59,0-2.88-1.29-2.88-2.88c0-1.59,1.29-2.88,2.88-2.88c1.59,0,2.88,1.29,2.88,2.88
						C56.55,45.73,55.25,47.02,53.67,47.02z M53.67,41.7c-1.35,0-2.44,1.1-2.44,2.44s1.1,2.44,2.44,2.44c1.35,0,2.44-1.1,2.44-2.44
						S55.02,41.7,53.67,41.7z"/>
				</g>
				<g>
					<circle class="st5" cx="57.57" cy="44.15" r="1.26"/>
					<path class="st2" d="M57.57,45.62c-0.81,0-1.47-0.66-1.47-1.47c0-0.81,0.66-1.47,1.47-1.47c0.81,0,1.47,0.66,1.47,1.47
						C59.04,44.96,58.38,45.62,57.57,45.62z M57.57,43.11c-0.57,0-1.04,0.47-1.04,1.04c0,0.57,0.47,1.04,1.04,1.04
						c0.57,0,1.04-0.47,1.04-1.04C58.61,43.57,58.14,43.11,57.57,43.11z"/>
				</g>
				<g>
					<circle class="st5" cx="49.77" cy="44.15" r="1.26"/>
					<path class="st2" d="M49.77,45.62c-0.81,0-1.47-0.66-1.47-1.47c0-0.81,0.66-1.47,1.47-1.47s1.47,0.66,1.47,1.47
						C51.24,44.96,50.58,45.62,49.77,45.62z M49.77,43.11c-0.57,0-1.04,0.47-1.04,1.04c0,0.57,0.47,1.04,1.04,1.04
						s1.04-0.47,1.04-1.04C50.81,43.57,50.34,43.11,49.77,43.11z"/>
				</g>
			</g>
			<g>
				<path class="st4" d="M57.77,55.83h-8.2c-0.12,0-0.22-0.1-0.22-0.22s0.1-0.22,0.22-0.22h8.2c0.12,0,0.22,0.1,0.22,0.22
					S57.89,55.83,57.77,55.83z"/>
			</g>
			<g>
				<path class="st4" d="M59.38,57.11H47.96c-0.12,0-0.22-0.1-0.22-0.22s0.1-0.22,0.22-0.22h11.42c0.12,0,0.22,0.1,0.22,0.22
					S59.5,57.11,59.38,57.11z"/>
			</g>
			<g>
				<g>
					<circle class="st1" cx="49.55" cy="52.87" r="0.59"/>
					<path class="st2" d="M49.55,53.67c-0.44,0-0.81-0.36-0.81-0.81c0-0.44,0.36-0.81,0.81-0.81s0.81,0.36,0.81,0.81
						C50.35,53.31,49.99,53.67,49.55,53.67z M49.55,52.49c-0.21,0-0.38,0.17-0.38,0.38c0,0.21,0.17,0.38,0.38,0.38
						c0.21,0,0.38-0.17,0.38-0.38C49.92,52.66,49.75,52.49,49.55,52.49z"/>
				</g>
				<g>
					<circle class="st1" cx="57.79" cy="52.87" r="0.59"/>
					<path class="st2" d="M57.79,53.67c-0.44,0-0.81-0.36-0.81-0.81c0-0.44,0.36-0.81,0.81-0.81c0.44,0,0.81,0.36,0.81,0.81
						C58.6,53.31,58.24,53.67,57.79,53.67z M57.79,52.49c-0.21,0-0.38,0.17-0.38,0.38c0,0.21,0.17,0.38,0.38,0.38
						c0.21,0,0.38-0.17,0.38-0.38C58.17,52.66,58,52.49,57.79,52.49z"/>
				</g>
			</g>
			<g>
				<path class="st1" d="M48.4,60.54c-0.29,0-0.51,0.25-0.49,0.54c0.27,3.04,2.76,5.43,5.8,5.43s5.53-2.38,5.8-5.43
					c0.03-0.29-0.2-0.54-0.49-0.54H48.4z"/>
				<path class="st2" d="M53.71,66.73c-3.15,0-5.73-2.42-6.01-5.62c-0.02-0.2,0.05-0.4,0.19-0.55c0.13-0.15,0.32-0.23,0.52-0.23
					h10.62c0.2,0,0.38,0.08,0.52,0.23c0.14,0.15,0.2,0.35,0.19,0.55C59.44,64.31,56.85,66.73,53.71,66.73z M48.4,60.76
					c-0.08,0-0.15,0.03-0.2,0.09c-0.06,0.06-0.08,0.14-0.07,0.22c0.26,2.98,2.66,5.23,5.58,5.23s5.32-2.25,5.58-5.23
					c0.01-0.08-0.02-0.16-0.07-0.22c-0.05-0.06-0.12-0.09-0.2-0.09H48.4z"/>
			</g>
			<g>
				<path class="st4" d="M62.94,70.79c-0.12,0-0.22-0.1-0.22-0.22v-6.98c0-0.12,0.1-0.22,0.22-0.22c0.12,0,0.22,0.1,0.22,0.22v6.98
					C63.16,70.69,63.06,70.79,62.94,70.79z"/>
			</g>
			<g>
				<rect x="63.95" y="52.72" class="st2" width="2.01" height="15"/>
				<path class="st2" d="M66.17,67.94h-2.44V52.51h2.44V67.94z M64.17,67.51h1.58V52.94h-1.58V67.51z"/>
			</g>
			<g>
				<path class="st2" d="M62.8,63.69c-0.12,0-0.22-0.1-0.22-0.22V53.5c0-0.12,0.1-0.22,0.22-0.22s0.22,0.1,0.22,0.22v9.98
					C63.01,63.59,62.92,63.69,62.8,63.69z"/>
			</g>
			<g>
				<path class="st2" d="M62.8,70.52l0.06,4.14h8.23c0,0,0.22-0.89-2.66-2.36c-2.88-1.48-2.51-4.18-2.51-4.18L62.8,70.52z"/>
				<path class="st2" d="M71.26,74.87h-8.62l-0.06-4.46l3.62-2.79l-0.07,0.52c-0.01,0.1-0.31,2.57,2.4,3.95
					c2.89,1.48,2.81,2.43,2.77,2.61L71.26,74.87z M63.07,74.44h7.77c-0.12-0.3-0.6-0.98-2.51-1.96c-1.56-0.8-2.19-1.95-2.44-2.77
					c-0.14-0.45-0.19-0.86-0.2-1.15l-2.67,2.06L63.07,74.44z"/>
			</g>
			<g>
				<polygon class="st1" points="58.88,59.71 62.84,51.34 63.78,53.89 59.1,62.89 				"/>
				<path class="st2" d="M58.94,63.67l-0.28-4l4.2-8.88l1.15,3.12l-0.04,0.08L58.94,63.67z M59.1,59.75l0.16,2.36l4.28-8.23
					l-0.73-1.98L59.1,59.75z"/>
			</g>
			<g>
				<ellipse class="st1" cx="59.16" cy="61.19" rx="0.64" ry="1.8"/>
				<path class="st2" d="M59.16,63.21c-0.59,0-0.85-1.05-0.85-2.02c0-0.97,0.27-2.02,0.85-2.02c0.59,0,0.85,1.05,0.85,2.02
					C60.01,62.16,59.74,63.21,59.16,63.21z M59.16,59.6c-0.12,0-0.42,0.56-0.42,1.59c0,1.03,0.3,1.59,0.42,1.59
					c0.12,0,0.42-0.56,0.42-1.59C59.58,60.16,59.28,59.6,59.16,59.6z"/>
			</g>
			<g>
				<circle class="st1" cx="64.2" cy="52.25" r="1.88"/>
				<path class="st2" d="M64.2,54.35c-1.16,0-2.1-0.94-2.1-2.1c0-1.16,0.94-2.1,2.1-2.1c1.16,0,2.1,0.94,2.1,2.1
					C66.29,53.41,65.35,54.35,64.2,54.35z M64.2,50.59c-0.92,0-1.66,0.75-1.66,1.66c0,0.92,0.75,1.66,1.66,1.66s1.66-0.75,1.66-1.66
					C65.86,51.33,65.11,50.59,64.2,50.59z"/>
			</g>
			<g>
				<path class="st5" d="M64.77,56.58h-1.33c-0.12,0-0.22-0.1-0.22-0.22s0.1-0.22,0.22-0.22h1.33c0.12,0,0.22,0.1,0.22,0.22
					S64.89,56.58,64.77,56.58z"/>
			</g>
			<g>
				<path class="st5" d="M64.77,57.35h-1.33c-0.12,0-0.22-0.1-0.22-0.22s0.1-0.22,0.22-0.22h1.33c0.12,0,0.22,0.1,0.22,0.22
					S64.89,57.35,64.77,57.35z"/>
			</g>
			<g>
				<path class="st5" d="M64.77,58.13h-1.33c-0.12,0-0.22-0.1-0.22-0.22s0.1-0.22,0.22-0.22h1.33c0.12,0,0.22,0.1,0.22,0.22
					S64.89,58.13,64.77,58.13z"/>
			</g>
			<g>
				<rect x="62.13" y="59.49" class="st1" width="2.22" height="4.06"/>
				<path class="st2" d="M64.56,63.77h-2.65v-4.5h2.65V63.77z M62.35,63.34h1.79v-3.63h-1.79V63.34z"/>
			</g>
			<g>
				<circle class="st1" cx="63.42" cy="66.99" r="1.51"/>
				<path class="st2" d="M63.42,68.72c-0.95,0-1.73-0.78-1.73-1.73c0-0.95,0.78-1.73,1.73-1.73s1.73,0.78,1.73,1.73
					C65.15,67.95,64.38,68.72,63.42,68.72z M63.42,65.69c-0.72,0-1.3,0.58-1.3,1.3c0,0.72,0.58,1.3,1.3,1.3s1.3-0.58,1.3-1.3
					C64.72,66.27,64.14,65.69,63.42,65.69z"/>
			</g>
			<g>
				<circle class="st4" cx="65.49" cy="67.21" r="0.33"/>
			</g>
			<g>
				<path class="st2" d="M64.28,61.73h-2.13c-0.12,0-0.22-0.1-0.22-0.22s0.1-0.22,0.22-0.22h2.13c0.12,0,0.22,0.1,0.22,0.22
					S64.4,61.73,64.28,61.73z"/>
			</g>
			<g>
				<path class="st4" d="M44.61,70.79c-0.12,0-0.22-0.1-0.22-0.22v-6.98c0-0.12,0.1-0.22,0.22-0.22c0.12,0,0.22,0.1,0.22,0.22v6.98
					C44.83,70.69,44.73,70.79,44.61,70.79z"/>
			</g>
			<g>
				
					<rect x="41.6" y="52.72" transform="matrix(-1 -4.531854e-11 4.531854e-11 -1 85.2049 120.4456)" class="st2" width="2.01" height="15"/>
				<path class="st2" d="M43.82,67.94h-2.44V52.51h2.44V67.94z M41.81,67.51h1.58V52.94h-1.58V67.51z"/>
			</g>
			<g>
				<line class="st2" x1="44.76" y1="53.5" x2="44.76" y2="63.47"/>
				<path class="st2" d="M44.76,63.69c-0.12,0-0.22-0.1-0.22-0.22V53.5c0-0.12,0.1-0.22,0.22-0.22c0.12,0,0.22,0.1,0.22,0.22v9.98
					C44.97,63.59,44.88,63.69,44.76,63.69z"/>
			</g>
			<g>
				<path class="st2" d="M44.76,70.52l-0.06,4.14h-8.23c0,0-0.22-0.89,2.66-2.36c2.88-1.48,2.51-4.18,2.51-4.18L44.76,70.52z"/>
				<path class="st2" d="M44.91,74.87H36.3l-0.04-0.16c-0.04-0.18-0.12-1.13,2.77-2.61c2.71-1.39,2.4-3.93,2.4-3.95l-0.07-0.52
					l3.62,2.79L44.91,74.87z M36.72,74.44h7.77l0.05-3.82l-2.68-2.06c-0.04,0.88-0.39,2.77-2.64,3.92
					C37.33,73.46,36.85,74.14,36.72,74.44z"/>
			</g>
			<g>
				<polygon class="st1" points="48.39,59.56 44.72,51.34 43.78,53.89 48.02,62.37 				"/>
				<path class="st2" d="M48.14,63.1l-4.6-9.19l1.16-3.13l3.91,8.76L48.14,63.1z M44.01,53.88l3.88,7.77l0.27-2.05l-3.43-7.68
					L44.01,53.88z"/>
			</g>
			<g>
				<ellipse class="st1" cx="48.4" cy="61.19" rx="0.64" ry="1.8"/>
				<path class="st2" d="M48.4,63.21c-0.59,0-0.85-1.05-0.85-2.02c0-0.97,0.27-2.02,0.85-2.02c0.59,0,0.85,1.05,0.85,2.02
					C49.25,62.16,48.99,63.21,48.4,63.21z M48.4,59.6c-0.12,0-0.42,0.56-0.42,1.59c0,1.03,0.3,1.59,0.42,1.59
					c0.12,0,0.42-0.56,0.42-1.59C48.82,60.16,48.52,59.6,48.4,59.6z"/>
			</g>
			<g>
				<circle class="st1" cx="43.36" cy="52.25" r="1.88"/>
				<path class="st2" d="M43.36,54.35c-1.16,0-2.1-0.94-2.1-2.1c0-1.16,0.94-2.1,2.1-2.1s2.1,0.94,2.1,2.1
					C45.46,53.41,44.52,54.35,43.36,54.35z M43.36,50.59c-0.92,0-1.66,0.75-1.66,1.66c0,0.92,0.75,1.66,1.66,1.66
					c0.92,0,1.66-0.75,1.66-1.66C45.02,51.33,44.28,50.59,43.36,50.59z"/>
			</g>
			<g>
				<path class="st5" d="M44.11,56.58h-1.33c-0.12,0-0.22-0.1-0.22-0.22s0.1-0.22,0.22-0.22h1.33c0.12,0,0.22,0.1,0.22,0.22
					S44.23,56.58,44.11,56.58z"/>
			</g>
			<g>
				<path class="st5" d="M44.11,57.35h-1.33c-0.12,0-0.22-0.1-0.22-0.22s0.1-0.22,0.22-0.22h1.33c0.12,0,0.22,0.1,0.22,0.22
					S44.23,57.35,44.11,57.35z"/>
			</g>
			<g>
				<path class="st5" d="M44.11,58.13h-1.33c-0.12,0-0.22-0.1-0.22-0.22s0.1-0.22,0.22-0.22h1.33c0.12,0,0.22,0.1,0.22,0.22
					S44.23,58.13,44.11,58.13z"/>
			</g>
			<g>
				
					<rect x="43.21" y="59.49" transform="matrix(-1 -4.594870e-11 4.594870e-11 -1 88.6345 123.0457)" class="st1" width="2.22" height="4.06"/>
				<path class="st2" d="M45.64,63.77h-2.65v-4.5h2.65V63.77z M43.42,63.34h1.79v-3.63h-1.79V63.34z"/>
			</g>
			<g>
				<circle class="st1" cx="44.13" cy="66.99" r="1.51"/>
				<path class="st2" d="M44.13,68.72c-0.95,0-1.73-0.78-1.73-1.73c0-0.95,0.78-1.73,1.73-1.73c0.95,0,1.73,0.78,1.73,1.73
					C45.86,67.95,45.09,68.72,44.13,68.72z M44.13,65.69c-0.72,0-1.3,0.58-1.3,1.3c0,0.72,0.58,1.3,1.3,1.3s1.3-0.58,1.3-1.3
					C45.43,66.27,44.85,65.69,44.13,65.69z"/>
			</g>
			<g>
				<circle class="st4" cx="42.06" cy="67.21" r="0.33"/>
			</g>
			<g>
				<line class="st1" x1="45.41" y1="61.51" x2="43.27" y2="61.51"/>
				<path class="st2" d="M45.41,61.73h-2.13c-0.12,0-0.22-0.1-0.22-0.22s0.1-0.22,0.22-0.22h2.13c0.12,0,0.22,0.1,0.22,0.22
					S45.53,61.73,45.41,61.73z"/>
			</g>
			<g>
				<path class="st4" d="M44.62,75.6h-8.13c-0.12,0-0.22-0.1-0.22-0.22c0-0.12,0.1-0.22,0.22-0.22h8.13c0.12,0,0.22,0.1,0.22,0.22
					C44.83,75.51,44.74,75.6,44.62,75.6z"/>
			</g>
			<g>
				<path class="st4" d="M71.11,75.6h-8.13c-0.12,0-0.22-0.1-0.22-0.22c0-0.12,0.1-0.22,0.22-0.22h8.13c0.12,0,0.22,0.1,0.22,0.22
					C71.33,75.51,71.23,75.6,71.11,75.6z"/>
			</g>
		</g>
		<g>
			<g>
				<path class="st4" d="M77.9,94.01c-1.74,0-3.15-1.41-3.15-3.15c0-1.74,1.41-3.15,3.15-3.15c1.74,0,3.15,1.41,3.15,3.15
					C81.06,92.6,79.64,94.01,77.9,94.01z M77.9,88.14c-1.5,0-2.72,1.22-2.72,2.72c0,1.5,1.22,2.72,2.72,2.72
					c1.5,0,2.72-1.22,2.72-2.72C80.62,89.36,79.4,88.14,77.9,88.14z"/>
			</g>
			<g>
				<path class="st4" d="M75.09,90.48c-0.12,0-0.22-0.1-0.22-0.22v-14.3c0-0.12,0.1-0.22,0.22-0.22c0.12,0,0.22,0.1,0.22,0.22v14.3
					C75.31,90.38,75.21,90.48,75.09,90.48z"/>
			</g>
			<g>
				<path class="st4" d="M73.99,79.39c-0.12,0-0.22-0.1-0.22-0.22V76.9c0-0.12,0.1-0.22,0.22-0.22c0.12,0,0.22,0.1,0.22,0.22v2.27
					C74.21,79.29,74.11,79.39,73.99,79.39z"/>
			</g>
			<g>
				<path class="st4" d="M72.66,77.52c-0.12,0-0.22-0.1-0.22-0.22v-3.21c0-0.12,0.1-0.22,0.22-0.22c0.12,0,0.22,0.1,0.22,0.22v3.21
					C72.87,77.43,72.77,77.52,72.66,77.52z"/>
			</g>
			<g>
				<path class="st4" d="M71.78,82.16c-0.12,0-0.22-0.1-0.22-0.22v-5.15c0-0.12,0.1-0.22,0.22-0.22c0.12,0,0.22,0.1,0.22,0.22v5.15
					C71.99,82.07,71.9,82.16,71.78,82.16z"/>
			</g>
			<g>
				<path class="st4" d="M73.03,85.71c-0.12,0-0.22-0.1-0.22-0.22v-7.04c0-0.12,0.1-0.22,0.22-0.22c0.12,0,0.22,0.1,0.22,0.22v7.04
					C73.25,85.61,73.15,85.71,73.03,85.71z"/>
			</g>
			<g>
				<path class="st4" d="M74.05,87.22c-0.12,0-0.22-0.1-0.22-0.22V81.3c0-0.12,0.1-0.22,0.22-0.22c0.12,0,0.22,0.1,0.22,0.22v5.71
					C74.27,87.13,74.17,87.22,74.05,87.22z"/>
			</g>
			<g>
				<path class="st4" d="M74.06,92.18c-0.12,0-0.22-0.1-0.22-0.22v-3.21c0-0.12,0.1-0.22,0.22-0.22c0.12,0,0.22,0.1,0.22,0.22v3.21
					C74.27,92.08,74.18,92.18,74.06,92.18z"/>
			</g>
			<g>
				<path class="st4" d="M80.76,88.95c-0.01,0-0.02,0-0.03,0c-0.74-0.01-1.53-0.41-2.01-1.01c-0.07-0.09-0.06-0.23,0.03-0.3
					c0.09-0.07,0.23-0.06,0.3,0.03c0.4,0.5,1.07,0.84,1.68,0.85c0.3,0.01,0.75-0.07,1.1-0.48c0.3-0.36,0.42-0.87,0.33-1.4
					c-0.09-0.54-0.39-1.01-0.81-1.26c-0.36-0.21-0.92-0.31-1.35-0.24l-0.27,0.05l0.02-0.27c0.03-0.55-0.15-1.11-0.47-1.45
					c-0.24-0.25-0.54-0.38-0.9-0.38c-1.35,0-1.61,0.96-1.62,1c-0.03,0.11-0.15,0.19-0.26,0.16c-0.12-0.03-0.19-0.14-0.16-0.26
					c0-0.01,0.34-1.33,2.04-1.33c0.47,0,0.89,0.18,1.21,0.52c0.36,0.38,0.57,0.93,0.59,1.52c0.48-0.02,1.01,0.09,1.39,0.32
					c0.52,0.31,0.9,0.89,1.01,1.56c0.11,0.66-0.05,1.3-0.43,1.75C81.8,88.73,81.32,88.95,80.76,88.95z"/>
			</g>
			<g>
				<path class="st4" d="M65.77,92.78c-0.26,0-0.52-0.04-0.76-0.13c-0.87-0.3-1.37-1.12-1.37-2.23c0-0.8,0.25-1.43,0.73-1.89
					c0.68-0.64,1.64-0.73,2.07-0.74c0.07-1.17,0.74-2.34,2.1-2.34c0.98,0,1.71,0.27,2.19,0.81c0.68,0.76,0.57,1.77,0.57,1.81
					c-0.01,0.12-0.12,0.2-0.24,0.19c-0.12-0.01-0.2-0.12-0.19-0.24c0-0.01,0.09-0.87-0.46-1.48c-0.39-0.44-1.02-0.66-1.87-0.66
					c-1.32,0-1.67,1.34-1.67,2.13v0.23l-0.23-0.02c-0.01,0-1.23-0.07-1.97,0.63c-0.39,0.37-0.6,0.9-0.6,1.57
					c0,0.93,0.38,1.58,1.08,1.82c0.86,0.3,1.97-0.08,2.64-0.91c0.07-0.09,0.21-0.11,0.3-0.03c0.09,0.07,0.11,0.21,0.03,0.3
					C67.54,92.35,66.63,92.78,65.77,92.78z"/>
			</g>
			<g>
				<path class="st4" d="M67.1,86.67c-0.05,0-0.11-0.02-0.15-0.06c-0.85-0.84-1.11-2.22-0.66-3.43c0.4-1.05,1.26-1.71,2.3-1.77
					c1.96-0.11,3.22,0.96,3.54,3.01c0.02,0.12-0.06,0.23-0.18,0.25c-0.12,0.02-0.23-0.06-0.25-0.18c-0.29-1.83-1.35-2.75-3.09-2.65
					c-0.88,0.05-1.58,0.59-1.92,1.49c-0.4,1.05-0.17,2.24,0.56,2.97c0.08,0.08,0.09,0.22,0,0.3C67.21,86.65,67.16,86.67,67.1,86.67z
					"/>
			</g>
			<g>
				<path class="st4" d="M70.26,91.77c-0.06,0-0.13-0.03-0.17-0.08c-0.84-1.09-0.62-2.3,0.03-2.94c0.52-0.51,1.52-0.79,2.6,0.09
					c0.09,0.07,0.11,0.21,0.03,0.3c-0.07,0.09-0.21,0.11-0.3,0.03c-0.86-0.7-1.61-0.52-2.03-0.12c-0.52,0.51-0.68,1.48,0.01,2.37
					c0.07,0.09,0.06,0.23-0.04,0.3C70.36,91.75,70.31,91.77,70.26,91.77z"/>
			</g>
		</g>
		<g>
			<g>
				<path class="st4" d="M29.87,94.01c-1.74,0-3.15-1.41-3.15-3.15c0-1.74,1.41-3.15,3.15-3.15c1.74,0,3.15,1.41,3.15,3.15
					C33.03,92.6,31.61,94.01,29.87,94.01z M29.87,88.14c-1.5,0-2.72,1.22-2.72,2.72c0,1.5,1.22,2.72,2.72,2.72
					c1.5,0,2.72-1.22,2.72-2.72C32.59,89.36,31.37,88.14,29.87,88.14z"/>
			</g>
			<g>
				<path class="st4" d="M32.68,90.48c-0.12,0-0.22-0.1-0.22-0.22v-14.3c0-0.12,0.1-0.22,0.22-0.22s0.22,0.1,0.22,0.22v14.3
					C32.9,90.38,32.8,90.48,32.68,90.48z"/>
			</g>
			<g>
				<path class="st4" d="M33.78,79.39c-0.12,0-0.22-0.1-0.22-0.22V76.9c0-0.12,0.1-0.22,0.22-0.22S34,76.78,34,76.9v2.27
					C34,79.29,33.9,79.39,33.78,79.39z"/>
			</g>
			<g>
				<path class="st4" d="M35.12,77.52c-0.12,0-0.22-0.1-0.22-0.22v-3.21c0-0.12,0.1-0.22,0.22-0.22s0.22,0.1,0.22,0.22v3.21
					C35.34,77.43,35.24,77.52,35.12,77.52z"/>
			</g>
			<g>
				<path class="st4" d="M36,82.16c-0.12,0-0.22-0.1-0.22-0.22v-5.15c0-0.12,0.1-0.22,0.22-0.22s0.22,0.1,0.22,0.22v5.15
					C36.21,82.07,36.12,82.16,36,82.16z"/>
			</g>
			<g>
				<path class="st4" d="M34.74,85.71c-0.12,0-0.22-0.1-0.22-0.22v-7.04c0-0.12,0.1-0.22,0.22-0.22s0.22,0.1,0.22,0.22v7.04
					C34.96,85.61,34.86,85.71,34.74,85.71z"/>
			</g>
			<g>
				<path class="st4" d="M33.73,87.22c-0.12,0-0.22-0.1-0.22-0.22V81.3c0-0.12,0.1-0.22,0.22-0.22s0.22,0.1,0.22,0.22v5.71
					C33.94,87.13,33.84,87.22,33.73,87.22z"/>
			</g>
			<g>
				<path class="st4" d="M33.72,92.18c-0.12,0-0.22-0.1-0.22-0.22v-3.21c0-0.12,0.1-0.22,0.22-0.22s0.22,0.1,0.22,0.22v3.21
					C33.93,92.08,33.84,92.18,33.72,92.18z"/>
			</g>
			<g>
				<path class="st4" d="M27.02,88.95c-0.56,0-1.05-0.22-1.4-0.63c-0.39-0.45-0.54-1.09-0.43-1.75c0.11-0.67,0.49-1.25,1.01-1.56
					c0.38-0.22,0.91-0.34,1.39-0.32c0.02-0.59,0.23-1.14,0.59-1.52c0.32-0.34,0.74-0.52,1.21-0.52c1.7,0,2.04,1.32,2.04,1.33
					c0.03,0.12-0.04,0.23-0.16,0.26c-0.12,0.03-0.23-0.04-0.26-0.16c-0.01-0.04-0.27-1-1.62-1c-0.36,0-0.66,0.13-0.9,0.38
					c-0.32,0.34-0.5,0.9-0.47,1.45l0.02,0.27l-0.27-0.05c-0.43-0.07-0.99,0.02-1.35,0.24c-0.41,0.24-0.71,0.71-0.81,1.26
					c-0.09,0.53,0.03,1.04,0.33,1.4c0.35,0.41,0.78,0.49,1.1,0.48c0.61-0.01,1.28-0.35,1.68-0.85c0.07-0.09,0.21-0.11,0.3-0.03
					c0.09,0.07,0.11,0.21,0.03,0.3c-0.48,0.6-1.27,1-2.01,1.01C27.04,88.95,27.03,88.95,27.02,88.95z"/>
			</g>
			<g>
				<path class="st4" d="M42,92.78c-0.86,0-1.76-0.43-2.36-1.17c-0.07-0.09-0.06-0.23,0.03-0.3c0.09-0.07,0.23-0.06,0.3,0.03
					c0.67,0.83,1.78,1.22,2.64,0.91c0.7-0.24,1.08-0.89,1.08-1.82c0-0.67-0.2-1.2-0.6-1.57c-0.75-0.7-1.96-0.62-1.97-0.62
					l-0.23,0.02v-0.23c0-0.79-0.35-2.13-1.67-2.13c-0.85,0-1.48,0.22-1.87,0.67c-0.55,0.62-0.46,1.47-0.46,1.48
					c0.01,0.12-0.07,0.23-0.19,0.24c-0.12,0.01-0.23-0.07-0.24-0.19c0-0.04-0.11-1.05,0.57-1.81c0.48-0.54,1.22-0.81,2.19-0.81
					c1.36,0,2.02,1.18,2.1,2.34c0.43,0.01,1.39,0.11,2.07,0.74c0.49,0.45,0.73,1.09,0.73,1.89c0,1.11-0.5,1.92-1.37,2.23
					C42.52,92.74,42.26,92.78,42,92.78z"/>
			</g>
			<g>
				<path class="st4" d="M40.67,86.67c-0.06,0-0.11-0.02-0.15-0.06c-0.08-0.08-0.08-0.22,0-0.3c0.73-0.73,0.96-1.92,0.56-2.97
					c-0.34-0.9-1.04-1.44-1.92-1.49c-1.74-0.1-2.81,0.82-3.09,2.65c-0.02,0.12-0.13,0.2-0.25,0.18c-0.12-0.02-0.2-0.13-0.18-0.25
					c0.32-2.05,1.58-3.12,3.54-3.01c1.04,0.06,1.9,0.72,2.3,1.77c0.46,1.2,0.19,2.58-0.66,3.43C40.78,86.65,40.73,86.67,40.67,86.67
					z"/>
			</g>
			<g>
				<path class="st4" d="M37.51,91.77c-0.05,0-0.09-0.01-0.13-0.05c-0.09-0.07-0.11-0.21-0.04-0.3c0.69-0.89,0.52-1.86,0.01-2.37
					c-0.41-0.4-1.16-0.59-2.03,0.12c-0.09,0.08-0.23,0.06-0.3-0.03c-0.08-0.09-0.06-0.23,0.03-0.3c1.09-0.88,2.08-0.6,2.6-0.09
					c0.65,0.64,0.87,1.85,0.03,2.94C37.64,91.74,37.58,91.77,37.51,91.77z"/>
			</g>
		</g>
	</g>
</g>
<path class="st2" d="M64.26,99.9l1.62-0.93l0.07,0.13c0.17,0.29,0.29,0.58,0.35,0.84c0.05,0.25,0.05,0.51,0,0.79
	c-0.13,0.62-0.47,1.09-1.03,1.41c-0.55,0.32-1.13,0.39-1.75,0.22c-0.62-0.17-1.09-0.54-1.41-1.09c-0.33-0.57-0.41-1.17-0.24-1.79
	c0.17-0.63,0.54-1.1,1.11-1.43c0.31-0.18,0.63-0.28,0.97-0.31c0.33-0.02,0.69,0.04,1.1,0.18l-0.19,0.65
	c-0.57-0.24-1.08-0.23-1.55,0.03c-0.41,0.24-0.68,0.58-0.8,1.03c-0.12,0.44-0.06,0.88,0.19,1.3c0.25,0.44,0.62,0.71,1.09,0.81
	c0.44,0.09,0.84,0.04,1.18-0.15c0.29-0.17,0.5-0.42,0.61-0.75c0.12-0.33,0.11-0.64-0.02-0.93l-0.98,0.56L64.26,99.9z"/>
<path class="st2" d="M67.54,95.51l2.26,3.92l-0.59,0.34l-2.26-3.92L67.54,95.51z"/>
<path class="st2" d="M71.28,94.09l1.94,3.36l-0.59,0.34l-1.94-3.36l-0.9,0.52l-0.32-0.56l2.39-1.38l0.32,0.56L71.28,94.09z"/>
<path class="st2" d="M76.67,90.53l0.4,0.7c-0.51-0.09-0.94-0.03-1.31,0.18c-0.4,0.23-0.66,0.57-0.77,1.02
	c-0.11,0.45-0.05,0.88,0.19,1.3c0.24,0.41,0.58,0.68,1.02,0.8s0.86,0.07,1.26-0.16c0.21-0.12,0.37-0.26,0.47-0.41
	c0.06-0.08,0.12-0.17,0.17-0.28s0.11-0.23,0.16-0.37l0.41,0.71c-0.23,0.39-0.53,0.69-0.9,0.9c-0.56,0.32-1.15,0.4-1.77,0.24
	c-0.62-0.17-1.09-0.53-1.41-1.09c-0.29-0.5-0.38-1.04-0.27-1.62c0.13-0.71,0.52-1.26,1.16-1.63C75.84,90.63,76.23,90.53,76.67,90.53
	z"/>
<path class="st4" d="M79.24,90.5c-0.32-0.55-0.39-1.14-0.21-1.77c0.17-0.63,0.54-1.1,1.11-1.43c0.56-0.32,1.15-0.4,1.78-0.23
	c0.63,0.17,1.11,0.53,1.43,1.09c0.32,0.56,0.4,1.16,0.22,1.78c-0.18,0.63-0.55,1.11-1.12,1.44c-0.51,0.29-1.06,0.38-1.67,0.26
	C80.12,91.5,79.6,91.12,79.24,90.5z M79.84,90.16c0.25,0.43,0.6,0.71,1.05,0.82c0.45,0.11,0.86,0.06,1.24-0.16
	c0.41-0.24,0.68-0.58,0.8-1.03c0.12-0.45,0.06-0.88-0.18-1.3c-0.24-0.42-0.58-0.69-1.02-0.81c-0.44-0.12-0.87-0.07-1.28,0.17
	c-0.41,0.23-0.67,0.58-0.79,1.02C79.55,89.32,79.61,89.75,79.84,90.16z"/>
<path class="st2" d="M85.32,85.27l2.26,3.92l-0.59,0.34l-2.26-3.92L85.32,85.27z"/>
<path class="st2" d="M89.92,87.84l-2.41-4.19l4.58,1.34l-1.57-2.72l0.59-0.34l2.4,4.16l-4.58-1.34l1.58,2.74L89.92,87.84z"/>
</svg>
