<?xml version="1.0" encoding="UTF-8"?>
<svg width="3000px" height="1112px" viewBox="0 0 3000 1112" version="1.1" xmlns="http://www.w3.org/2000/svg" xmlns:xlink="http://www.w3.org/1999/xlink">
    <!-- Generator: Sketch 51.3 (57544) - http://www.bohemiancoding.com/sketch -->
    <title>Specs Copy 10</title>
    <desc>Created with Sketch.</desc>
    <defs></defs>
    <g id="Specs-Copy-10" stroke="none" stroke-width="1" fill="none" fill-rule="evenodd">
        <g id="Group-322-Copy_looper-Copy-Copy-Copy-Copy-Copy-Copy-Copy" transform="translate(-196.000000, -167.000000)">
            <g id="Group">
                <polygon id="Fill-46" fill="#15003E" points="76 1325 3260 1325 3260 120 76 120"></polygon>
                <g id="Group-322-Copy" transform="translate(89.000000, 108.000000)">
                    <polygon id="Fill-297" fill="#3E00FF" points="329.999297 210 351 210 351 133.888146 288.508907 133.888146 288.508907 70.3289308 223.261722 70.3289308 223.261722 0 142 0 142 20.9743314 202.261018 20.9743314 202.261018 91.3032622 267.508204 91.3032622 267.508204 154.862478 329.999297 154.862478"></polygon>
                    <polygon id="Fill-303" fill="#3E00FF" points="238.999297 301 260 301 260 224.888146 197.508907 224.888146 197.508907 161.328931 132.261722 161.328931 132.261722 91 51 91 51 111.974331 111.261018 111.974331 111.261018 182.303262 176.508204 182.303262 176.508204 245.862478 238.999297 245.862478"></polygon>
                    <path d="M42.9301093,234.923373 L257.923373,19.9301093 C262.025542,15.8279404 262.025542,9.17804544 257.923373,5.07587649 C253.822205,0.974707835 247.171309,0.974707835 243.070141,5.07587649 L28.0758765,220.06914 C23.9747078,224.171309 23.9747078,230.821204 28.0758765,234.923373 C32.1780454,239.025542 38.8279404,239.025542 42.9301093,234.923373" id="Fill-299" fill="#25E999"></path>
                    <polygon id="Fill-301" fill="#3E00FF" points="287.999297 252 309 252 309 175.888146 246.508907 175.888146 246.508907 112.328931 181.261722 112.328931 181.261722 42 100 42 100 62.9743314 160.261018 62.9743314 160.261018 133.303262 225.508204 133.303262 225.508204 196.862478 287.999297 196.862478"></polygon>
                    <polygon id="Fill-305" fill="#3E00FF" points="187.999297 352 209 352 209 275.888146 146.508907 275.888146 146.508907 212.328931 81.2617217 212.328931 81.2617217 142 0 142 0 162.974331 60.2610183 162.974331 60.2610183 233.303262 125.508204 233.303262 125.508204 296.862478 187.999297 296.862478"></polygon>
                </g>
                <g id="Group-322-Copy-4" transform="translate(277.000000, 297.000000)">
                    <polygon id="Fill-297" fill="#3E00FF" points="329.999297 210 351 210 351 133.888146 288.508907 133.888146 288.508907 70.3289308 223.261722 70.3289308 223.261722 0 142 0 142 20.9743314 202.261018 20.9743314 202.261018 91.3032622 267.508204 91.3032622 267.508204 154.862478 329.999297 154.862478"></polygon>
                    <polygon id="Fill-303" fill="#3E00FF" points="238.999297 301 260 301 260 224.888146 197.508907 224.888146 197.508907 161.328931 132.261722 161.328931 132.261722 91 51 91 51 111.974331 111.261018 111.974331 111.261018 182.303262 176.508204 182.303262 176.508204 245.862478 238.999297 245.862478"></polygon>
                    <path d="M42.9301093,234.923373 L257.923373,19.9301093 C262.025542,15.8279404 262.025542,9.17804544 257.923373,5.07587649 C253.822205,0.974707835 247.171309,0.974707835 243.070141,5.07587649 L28.0758765,220.06914 C23.9747078,224.171309 23.9747078,230.821204 28.0758765,234.923373 C32.1780454,239.025542 38.8279404,239.025542 42.9301093,234.923373" id="Fill-299" fill="#25E999"></path>
                    <polygon id="Fill-301" fill="#3E00FF" points="287.999297 252 309 252 309 175.888146 246.508907 175.888146 246.508907 112.328931 181.261722 112.328931 181.261722 42 100 42 100 62.9743314 160.261018 62.9743314 160.261018 133.303262 225.508204 133.303262 225.508204 196.862478 287.999297 196.862478"></polygon>
                    <polygon id="Fill-305" fill="#3E00FF" points="187.999297 352 209 352 209 275.888146 146.508907 275.888146 146.508907 212.328931 81.2617217 212.328931 81.2617217 142 0 142 0 162.974331 60.2610183 162.974331 60.2610183 233.303262 125.508204 233.303262 125.508204 296.862478 187.999297 296.862478"></polygon>
                </g>
                <g id="Group-322-Copy-24" transform="translate(465.000000, 486.000000)">
                    <polygon id="Fill-297" fill="#3E00FF" points="329.999297 210 351 210 351 133.888146 288.508907 133.888146 288.508907 70.3289308 223.261722 70.3289308 223.261722 0 142 0 142 20.9743314 202.261018 20.9743314 202.261018 91.3032622 267.508204 91.3032622 267.508204 154.862478 329.999297 154.862478"></polygon>
                    <polygon id="Fill-303" fill="#3E00FF" points="238.999297 301 260 301 260 224.888146 197.508907 224.888146 197.508907 161.328931 132.261722 161.328931 132.261722 91 51 91 51 111.974331 111.261018 111.974331 111.261018 182.303262 176.508204 182.303262 176.508204 245.862478 238.999297 245.862478"></polygon>
                    <path d="M42.9301093,234.923373 L257.923373,19.9301093 C262.025542,15.8279404 262.025542,9.17804544 257.923373,5.07587649 C253.822205,0.974707835 247.171309,0.974707835 243.070141,5.07587649 L28.0758765,220.06914 C23.9747078,224.171309 23.9747078,230.821204 28.0758765,234.923373 C32.1780454,239.025542 38.8279404,239.025542 42.9301093,234.923373" id="Fill-299" fill="#25E999"></path>
                    <polygon id="Fill-301" fill="#3E00FF" points="287.999297 252 309 252 309 175.888146 246.508907 175.888146 246.508907 112.328931 181.261722 112.328931 181.261722 42 100 42 100 62.9743314 160.261018 62.9743314 160.261018 133.303262 225.508204 133.303262 225.508204 196.862478 287.999297 196.862478"></polygon>
                    <polygon id="Fill-305" fill="#3E00FF" points="187.999297 352 209 352 209 275.888146 146.508907 275.888146 146.508907 212.328931 81.2617217 212.328931 81.2617217 142 0 142 0 162.974331 60.2610183 162.974331 60.2610183 233.303262 125.508204 233.303262 125.508204 296.862478 187.999297 296.862478"></polygon>
                </g>
                <g id="Group-322-Copy-25" transform="translate(654.000000, 675.000000)">
                    <polygon id="Fill-297" fill="#3E00FF" points="329.999297 210 351 210 351 133.888146 288.508907 133.888146 288.508907 70.3289308 223.261722 70.3289308 223.261722 0 142 0 142 20.9743314 202.261018 20.9743314 202.261018 91.3032622 267.508204 91.3032622 267.508204 154.862478 329.999297 154.862478"></polygon>
                    <polygon id="Fill-303" fill="#3E00FF" points="238.999297 301 260 301 260 224.888146 197.508907 224.888146 197.508907 161.328931 132.261722 161.328931 132.261722 91 51 91 51 111.974331 111.261018 111.974331 111.261018 182.303262 176.508204 182.303262 176.508204 245.862478 238.999297 245.862478"></polygon>
                    <path d="M42.9301093,234.923373 L257.923373,19.9301093 C262.025542,15.8279404 262.025542,9.17804544 257.923373,5.07587649 C253.822205,0.974707835 247.171309,0.974707835 243.070141,5.07587649 L28.0758765,220.06914 C23.9747078,224.171309 23.9747078,230.821204 28.0758765,234.923373 C32.1780454,239.025542 38.8279404,239.025542 42.9301093,234.923373" id="Fill-299" fill="#25E999"></path>
                    <polygon id="Fill-301" fill="#3E00FF" points="287.999297 252 309 252 309 175.888146 246.508907 175.888146 246.508907 112.328931 181.261722 112.328931 181.261722 42 100 42 100 62.9743314 160.261018 62.9743314 160.261018 133.303262 225.508204 133.303262 225.508204 196.862478 287.999297 196.862478"></polygon>
                    <polygon id="Fill-305" fill="#3E00FF" points="187.999297 352 209 352 209 275.888146 146.508907 275.888146 146.508907 212.328931 81.2617217 212.328931 81.2617217 142 0 142 0 162.974331 60.2610183 162.974331 60.2610183 233.303262 125.508204 233.303262 125.508204 296.862478 187.999297 296.862478"></polygon>
                </g>
                <g id="Group-322-Copy-26" transform="translate(842.000000, 864.000000)">
                    <polygon id="Fill-297" fill="#3E00FF" points="329.999297 210 351 210 351 133.888146 288.508907 133.888146 288.508907 70.3289308 223.261722 70.3289308 223.261722 0 142 0 142 20.9743314 202.261018 20.9743314 202.261018 91.3032622 267.508204 91.3032622 267.508204 154.862478 329.999297 154.862478"></polygon>
                    <polygon id="Fill-303" fill="#3E00FF" points="238.999297 301 260 301 260 224.888146 197.508907 224.888146 197.508907 161.328931 132.261722 161.328931 132.261722 91 51 91 51 111.974331 111.261018 111.974331 111.261018 182.303262 176.508204 182.303262 176.508204 245.862478 238.999297 245.862478"></polygon>
                    <path d="M42.9301093,234.923373 L257.923373,19.9301093 C262.025542,15.8279404 262.025542,9.17804544 257.923373,5.07587649 C253.822205,0.974707835 247.171309,0.974707835 243.070141,5.07587649 L28.0758765,220.06914 C23.9747078,224.171309 23.9747078,230.821204 28.0758765,234.923373 C32.1780454,239.025542 38.8279404,239.025542 42.9301093,234.923373" id="Fill-299" fill="#25E999"></path>
                    <polygon id="Fill-301" fill="#3E00FF" points="287.999297 252 309 252 309 175.888146 246.508907 175.888146 246.508907 112.328931 181.261722 112.328931 181.261722 42 100 42 100 62.9743314 160.261018 62.9743314 160.261018 133.303262 225.508204 133.303262 225.508204 196.862478 287.999297 196.862478"></polygon>
                    <polygon id="Fill-305" fill="#3E00FF" points="187.999297 352 209 352 209 275.888146 146.508907 275.888146 146.508907 212.328931 81.2617217 212.328931 81.2617217 142 0 142 0 162.974331 60.2610183 162.974331 60.2610183 233.303262 125.508204 233.303262 125.508204 296.862478 187.999297 296.862478"></polygon>
                </g>
                <g id="Group-322-Copy-27" transform="translate(1030.000000, 1053.000000)">
                    <polygon id="Fill-297" fill="#3E00FF" points="329.999297 210 351 210 351 133.888146 288.508907 133.888146 288.508907 70.3289308 223.261722 70.3289308 223.261722 0 142 0 142 20.9743314 202.261018 20.9743314 202.261018 91.3032622 267.508204 91.3032622 267.508204 154.862478 329.999297 154.862478"></polygon>
                    <polygon id="Fill-303" fill="#3E00FF" points="238.999297 301 260 301 260 224.888146 197.508907 224.888146 197.508907 161.328931 132.261722 161.328931 132.261722 91 51 91 51 111.974331 111.261018 111.974331 111.261018 182.303262 176.508204 182.303262 176.508204 245.862478 238.999297 245.862478"></polygon>
                    <path d="M42.9301093,234.923373 L257.923373,19.9301093 C262.025542,15.8279404 262.025542,9.17804544 257.923373,5.07587649 C253.822205,0.974707835 247.171309,0.974707835 243.070141,5.07587649 L28.0758765,220.06914 C23.9747078,224.171309 23.9747078,230.821204 28.0758765,234.923373 C32.1780454,239.025542 38.8279404,239.025542 42.9301093,234.923373" id="Fill-299" fill="#25E999"></path>
                    <polygon id="Fill-301" fill="#3E00FF" points="287.999297 252 309 252 309 175.888146 246.508907 175.888146 246.508907 112.328931 181.261722 112.328931 181.261722 42 100 42 100 62.9743314 160.261018 62.9743314 160.261018 133.303262 225.508204 133.303262 225.508204 196.862478 287.999297 196.862478"></polygon>
                    <polygon id="Fill-305" fill="#3E00FF" points="187.999297 352 209 352 209 275.888146 146.508907 275.888146 146.508907 212.328931 81.2617217 212.328931 81.2617217 142 0 142 0 162.974331 60.2610183 162.974331 60.2610183 233.303262 125.508204 233.303262 125.508204 296.862478 187.999297 296.862478"></polygon>
                </g>
                <g id="Group-322-Copy-3" transform="translate(1546.000000, 756.000000)">
                    <polygon id="Fill-297" fill="#25E899" points="380.999297 210 402 210 402 133.888146 339.508907 133.888146 339.508907 70.3289308 274.261722 70.3289308 274.261722 0 193 0 193 20.9743314 253.261018 20.9743314 253.261018 91.3032622 318.508204 91.3032622 318.508204 154.862478 380.999297 154.862478"></polygon>
                    <polygon id="Fill-303" fill="#25E899" points="289.999297 301 311 301 311 224.888146 248.508907 224.888146 248.508907 161.328931 183.261722 161.328931 183.261722 91 102 91 102 111.974331 162.261018 111.974331 162.261018 182.303262 227.508204 182.303262 227.508204 245.862478 289.999297 245.862478"></polygon>
                    <path d="M17.9301093,306.923373 L232.923373,91.9301093 C237.025542,87.8279404 237.025542,81.1780454 232.923373,77.0758765 C228.822205,72.9747078 222.171309,72.9747078 218.070141,77.0758765 L3.07587649,292.06914 C-1.02529216,296.171309 -1.02529216,302.821204 3.07587649,306.923373 C7.17804544,311.025542 13.8279404,311.025542 17.9301093,306.923373" id="Fill-299" fill="#3E00FF"></path>
                    <polygon id="Fill-301" fill="#25E899" points="338.999297 252 360 252 360 175.888146 297.508907 175.888146 297.508907 112.328931 232.261722 112.328931 232.261722 42 151 42 151 62.9743314 211.261018 62.9743314 211.261018 133.303262 276.508204 133.303262 276.508204 196.862478 338.999297 196.862478"></polygon>
                    <polygon id="Fill-305" fill="#25E899" points="238.999297 352 260 352 260 275.888146 197.508907 275.888146 197.508907 212.328931 132.261722 212.328931 132.261722 142 51 142 51 162.974331 111.261018 162.974331 111.261018 233.303262 176.508204 233.303262 176.508204 296.862478 238.999297 296.862478"></polygon>
                </g>
                <g id="Group-322-Copy-12" transform="translate(1409.000000, 546.000000)">
                    <polygon id="Fill-297" fill="#25E899" points="329.999297 231 351 231 351 154.888146 288.508907 154.888146 288.508907 91.3289308 223.261722 91.3289308 223.261722 21 142 21 142 41.9743314 202.261018 41.9743314 202.261018 112.303262 267.508204 112.303262 267.508204 175.862478 329.999297 175.862478"></polygon>
                    <polygon id="Fill-303" fill="#25E899" points="238.999297 322 260 322 260 245.888146 197.508907 245.888146 197.508907 182.328931 132.261722 182.328931 132.261722 112 51 112 51 132.974331 111.261018 132.974331 111.261018 203.303262 176.508204 203.303262 176.508204 266.862478 238.999297 266.862478"></polygon>
                    <path d="M61.9301093,232.923373 L276.923373,17.9301093 C281.025542,13.8279404 281.025542,7.17804544 276.923373,3.07587649 C272.822205,-1.02529216 266.171309,-1.02529216 262.070141,3.07587649 L47.0758765,218.06914 C42.9747078,222.171309 42.9747078,228.821204 47.0758765,232.923373 C51.1780454,237.025542 57.8279404,237.025542 61.9301093,232.923373" id="Fill-299" fill="#3E00FF"></path>
                    <polygon id="Fill-301" fill="#25E899" points="287.999297 273 309 273 309 196.888146 246.508907 196.888146 246.508907 133.328931 181.261722 133.328931 181.261722 63 100 63 100 83.9743314 160.261018 83.9743314 160.261018 154.303262 225.508204 154.303262 225.508204 217.862478 287.999297 217.862478"></polygon>
                    <polygon id="Fill-305" fill="#25E899" points="187.999297 373 209 373 209 296.888146 146.508907 296.888146 146.508907 233.328931 81.2617217 233.328931 81.2617217 163 0 163 0 183.974331 60.2610183 183.974331 60.2610183 254.303262 125.508204 254.303262 125.508204 317.862478 187.999297 317.862478"></polygon>
                </g>
                <g id="Group-322-Copy-21" transform="translate(1221.000000, 378.000000)">
                    <polygon id="Fill-297" fill="#25E899" points="329.999297 210 351 210 351 133.888146 288.508907 133.888146 288.508907 70.3289308 223.261722 70.3289308 223.261722 0 142 0 142 20.9743314 202.261018 20.9743314 202.261018 91.3032622 267.508204 91.3032622 267.508204 154.862478 329.999297 154.862478"></polygon>
                    <polygon id="Fill-303" fill="#25E899" points="238.999297 301 260 301 260 224.888146 197.508907 224.888146 197.508907 161.328931 132.261722 161.328931 132.261722 91 51 91 51 111.974331 111.261018 111.974331 111.261018 182.303262 176.508204 182.303262 176.508204 245.862478 238.999297 245.862478"></polygon>
                    <path d="M18.9301093,268.923373 L233.923373,53.9301093 C238.025542,49.8279404 238.025542,43.1780454 233.923373,39.0758765 C229.822205,34.9747078 223.171309,34.9747078 219.070141,39.0758765 L4.07587649,254.06914 C-0.0252921648,258.171309 -0.0252921648,264.821204 4.07587649,268.923373 C8.17804544,273.025542 14.8279404,273.025542 18.9301093,268.923373" id="Fill-299" fill="#3E00FF"></path>
                    <polygon id="Fill-301" fill="#25E899" points="287.999297 252 309 252 309 175.888146 246.508907 175.888146 246.508907 112.328931 181.261722 112.328931 181.261722 42 100 42 100 62.9743314 160.261018 62.9743314 160.261018 133.303262 225.508204 133.303262 225.508204 196.862478 287.999297 196.862478"></polygon>
                    <polygon id="Fill-305" fill="#25E899" points="187.999297 352 209 352 209 275.888146 146.508907 275.888146 146.508907 212.328931 81.2617217 212.328931 81.2617217 142 0 142 0 162.974331 60.2610183 162.974331 60.2610183 233.303262 125.508204 233.303262 125.508204 296.862478 187.999297 296.862478"></polygon>
                </g>
                <g id="Group-322-Copy-22" transform="translate(1033.000000, 189.000000)">
                    <polygon id="Fill-297" fill="#25E899" points="329.999297 210 351 210 351 133.888146 288.508907 133.888146 288.508907 70.3289308 223.261722 70.3289308 223.261722 0 142 0 142 20.9743314 202.261018 20.9743314 202.261018 91.3032622 267.508204 91.3032622 267.508204 154.862478 329.999297 154.862478"></polygon>
                    <polygon id="Fill-303" fill="#25E899" points="238.999297 301 260 301 260 224.888146 197.508907 224.888146 197.508907 161.328931 132.261722 161.328931 132.261722 91 51 91 51 111.974331 111.261018 111.974331 111.261018 182.303262 176.508204 182.303262 176.508204 245.862478 238.999297 245.862478"></polygon>
                    <path d="M111.930109,237.923373 L326.923373,22.9301093 C331.025542,18.8279404 331.025542,12.1780454 326.923373,8.07587649 C322.822205,3.97470784 316.171309,3.97470784 312.070141,8.07587649 L97.0758765,223.06914 C92.9747078,227.171309 92.9747078,233.821204 97.0758765,237.923373 C101.178045,242.025542 107.82794,242.025542 111.930109,237.923373" id="Fill-299" fill="#3E00FF"></path>
                    <polygon id="Fill-301" fill="#25E899" points="287.999297 252 309 252 309 175.888146 246.508907 175.888146 246.508907 112.328931 181.261722 112.328931 181.261722 42 100 42 100 62.9743314 160.261018 62.9743314 160.261018 133.303262 225.508204 133.303262 225.508204 196.862478 287.999297 196.862478"></polygon>
                    <polygon id="Fill-305" fill="#25E899" points="187.999297 352 209 352 209 275.888146 146.508907 275.888146 146.508907 212.328931 81.2617217 212.328931 81.2617217 142 0 142 0 162.974331 60.2610183 162.974331 60.2610183 233.303262 125.508204 233.303262 125.508204 296.862478 187.999297 296.862478"></polygon>
                </g>
                <g id="Group-322-Copy-23" transform="translate(828.000000, 0.000000)">
                    <polygon id="Fill-297" fill="#25E899" points="346.999297 210 368 210 368 133.888146 305.508907 133.888146 305.508907 70.3289308 240.261722 70.3289308 240.261722 0 159 0 159 20.9743314 219.261018 20.9743314 219.261018 91.3032622 284.508204 91.3032622 284.508204 154.862478 346.999297 154.862478"></polygon>
                    <polygon id="Fill-303" fill="#25E899" points="255.999297 301 277 301 277 224.888146 214.508907 224.888146 214.508907 161.328931 149.261722 161.328931 149.261722 91 68 91 68 111.974331 128.261018 111.974331 128.261018 182.303262 193.508204 182.303262 193.508204 245.862478 255.999297 245.862478"></polygon>
                    <path d="M17.9301093,262.923373 L232.923373,47.9301093 C237.025542,43.8279404 237.025542,37.1780454 232.923373,33.0758765 C228.822205,28.9747078 222.171309,28.9747078 218.070141,33.0758765 L3.07587649,248.06914 C-1.02529216,252.171309 -1.02529216,258.821204 3.07587649,262.923373 C7.17804544,267.025542 13.8279404,267.025542 17.9301093,262.923373" id="Fill-299" fill="#3E00FF"></path>
                    <polygon id="Fill-301" fill="#25E899" points="304.999297 252 326 252 326 175.888146 263.508907 175.888146 263.508907 112.328931 198.261722 112.328931 198.261722 42 117 42 117 62.9743314 177.261018 62.9743314 177.261018 133.303262 242.508204 133.303262 242.508204 196.862478 304.999297 196.862478"></polygon>
                    <polygon id="Fill-305" fill="#25E899" points="204.999297 352 226 352 226 275.888146 163.508907 275.888146 163.508907 212.328931 98.2617217 212.328931 98.2617217 142 17 142 17 162.974331 77.2610183 162.974331 77.2610183 233.303262 142.508204 233.303262 142.508204 296.862478 204.999297 296.862478"></polygon>
                </g>
                <g id="Group-322-Copy-11" transform="translate(1785.000000, 945.000000)">
                    <polygon id="Fill-297" fill="#25E899" points="329.999297 210 351 210 351 133.888146 288.508907 133.888146 288.508907 70.3289308 223.261722 70.3289308 223.261722 0 142 0 142 20.9743314 202.261018 20.9743314 202.261018 91.3032622 267.508204 91.3032622 267.508204 154.862478 329.999297 154.862478"></polygon>
                    <polygon id="Fill-303" fill="#25E899" points="238.999297 301 260 301 260 224.888146 197.508907 224.888146 197.508907 161.328931 132.261722 161.328931 132.261722 91 51 91 51 111.974331 111.261018 111.974331 111.261018 182.303262 176.508204 182.303262 176.508204 245.862478 238.999297 245.862478"></polygon>
                    <path d="M192.930109,279.923373 L407.923373,64.9301093 C412.025542,60.8279404 412.025542,54.1780454 407.923373,50.0758765 C403.822205,45.9747078 397.171309,45.9747078 393.070141,50.0758765 L178.075876,265.06914 C173.974708,269.171309 173.974708,275.821204 178.075876,279.923373 C182.178045,284.025542 188.82794,284.025542 192.930109,279.923373" id="Fill-299" fill="#3E00FF"></path>
                    <polygon id="Fill-301" fill="#25E899" points="287.999297 252 309 252 309 175.888146 246.508907 175.888146 246.508907 112.328931 181.261722 112.328931 181.261722 42 100 42 100 62.9743314 160.261018 62.9743314 160.261018 133.303262 225.508204 133.303262 225.508204 196.862478 287.999297 196.862478"></polygon>
                    <polygon id="Fill-305" fill="#25E899" points="187.999297 352 209 352 209 275.888146 146.508907 275.888146 146.508907 212.328931 81.2617217 212.328931 81.2617217 142 0 142 0 162.974331 60.2610183 162.974331 60.2610183 233.303262 125.508204 233.303262 125.508204 296.862478 187.999297 296.862478"></polygon>
                </g>
                <g id="Group-322-Copy-17" transform="translate(1973.000000, 1134.000000)">
                    <polygon id="Fill-297" fill="#25E899" points="329.999297 210 351 210 351 133.888146 288.508907 133.888146 288.508907 70.3289308 223.261722 70.3289308 223.261722 0 142 0 142 20.9743314 202.261018 20.9743314 202.261018 91.3032622 267.508204 91.3032622 267.508204 154.862478 329.999297 154.862478"></polygon>
                    <polygon id="Fill-303" fill="#25E899" points="238.999297 301 260 301 260 224.888146 197.508907 224.888146 197.508907 161.328931 132.261722 161.328931 132.261722 91 51 91 51 111.974331 111.261018 111.974331 111.261018 182.303262 176.508204 182.303262 176.508204 245.862478 238.999297 245.862478"></polygon>
                    <path d="M192.930109,279.923373 L407.923373,64.9301093 C412.025542,60.8279404 412.025542,54.1780454 407.923373,50.0758765 C403.822205,45.9747078 397.171309,45.9747078 393.070141,50.0758765 L178.075876,265.06914 C173.974708,269.171309 173.974708,275.821204 178.075876,279.923373 C182.178045,284.025542 188.82794,284.025542 192.930109,279.923373" id="Fill-299" fill="#3E00FF"></path>
                    <polygon id="Fill-301" fill="#25E899" points="287.999297 252 309 252 309 175.888146 246.508907 175.888146 246.508907 112.328931 181.261722 112.328931 181.261722 42 100 42 100 62.9743314 160.261018 62.9743314 160.261018 133.303262 225.508204 133.303262 225.508204 196.862478 287.999297 196.862478"></polygon>
                    <polygon id="Fill-305" fill="#25E899" points="187.999297 352 209 352 209 275.888146 146.508907 275.888146 146.508907 212.328931 81.2617217 212.328931 81.2617217 142 0 142 0 162.974331 60.2610183 162.974331 60.2610183 233.303262 125.508204 233.303262 125.508204 296.862478 187.999297 296.862478"></polygon>
                </g>
                <g id="Group-322-Copy-5" transform="translate(2637.000000, 195.000000)">
                    <polygon id="Fill-297" fill="#FFCE08" points="329.999297 210 351 210 351 133.888146 288.508907 133.888146 288.508907 70.3289308 223.261722 70.3289308 223.261722 0 142 0 142 20.9743314 202.261018 20.9743314 202.261018 91.3032622 267.508204 91.3032622 267.508204 154.862478 329.999297 154.862478"></polygon>
                    <polygon id="Fill-303" fill="#FFCE08" points="238.999297 301 260 301 260 224.888146 197.508907 224.888146 197.508907 161.328931 132.261722 161.328931 132.261722 91 51 91 51 111.974331 111.261018 111.974331 111.261018 182.303262 176.508204 182.303262 176.508204 245.862478 238.999297 245.862478"></polygon>
                    <path d="M169.930109,307.923373 L384.923373,92.9301093 C389.025542,88.8279404 389.025542,82.1780454 384.923373,78.0758765 C380.822205,73.9747078 374.171309,73.9747078 370.070141,78.0758765 L155.075876,293.06914 C150.974708,297.171309 150.974708,303.821204 155.075876,307.923373 C159.178045,312.025542 165.82794,312.025542 169.930109,307.923373" id="Fill-299" fill="#3E00FF"></path>
                    <polygon id="Fill-301" fill="#FFCE08" points="287.999297 252 309 252 309 175.888146 246.508907 175.888146 246.508907 112.328931 181.261722 112.328931 181.261722 42 100 42 100 62.9743314 160.261018 62.9743314 160.261018 133.303262 225.508204 133.303262 225.508204 196.862478 287.999297 196.862478"></polygon>
                    <polygon id="Fill-305" fill="#FFCE08" points="187.999297 352 209 352 209 275.888146 146.508907 275.888146 146.508907 212.328931 81.2617217 212.328931 81.2617217 142 0 142 0 162.974331 60.2610183 162.974331 60.2610183 233.303262 125.508204 233.303262 125.508204 296.862478 187.999297 296.862478"></polygon>
                </g>
                <g id="Group-322-Copy-20" transform="translate(2449.000000, 6.000000)">
                    <polygon id="Fill-297" fill="#FFCE08" points="329.999297 210 351 210 351 133.888146 288.508907 133.888146 288.508907 70.3289308 223.261722 70.3289308 223.261722 0 142 0 142 20.9743314 202.261018 20.9743314 202.261018 91.3032622 267.508204 91.3032622 267.508204 154.862478 329.999297 154.862478"></polygon>
                    <polygon id="Fill-303" fill="#FFCE08" points="238.999297 301 260 301 260 224.888146 197.508907 224.888146 197.508907 161.328931 132.261722 161.328931 132.261722 91 51 91 51 111.974331 111.261018 111.974331 111.261018 182.303262 176.508204 182.303262 176.508204 245.862478 238.999297 245.862478"></polygon>
                    <path d="M169.930109,307.923373 L384.923373,92.9301093 C389.025542,88.8279404 389.025542,82.1780454 384.923373,78.0758765 C380.822205,73.9747078 374.171309,73.9747078 370.070141,78.0758765 L155.075876,293.06914 C150.974708,297.171309 150.974708,303.821204 155.075876,307.923373 C159.178045,312.025542 165.82794,312.025542 169.930109,307.923373" id="Fill-299" fill="#3E00FF"></path>
                    <polygon id="Fill-301" fill="#FFCE08" points="287.999297 252 309 252 309 175.888146 246.508907 175.888146 246.508907 112.328931 181.261722 112.328931 181.261722 42 100 42 100 62.9743314 160.261018 62.9743314 160.261018 133.303262 225.508204 133.303262 225.508204 196.862478 287.999297 196.862478"></polygon>
                    <polygon id="Fill-305" fill="#FFCE08" points="187.999297 352 209 352 209 275.888146 146.508907 275.888146 146.508907 212.328931 81.2617217 212.328931 81.2617217 142 0 142 0 162.974331 60.2610183 162.974331 60.2610183 233.303262 125.508204 233.303262 125.508204 296.862478 187.999297 296.862478"></polygon>
                </g>
                <g id="Group-322-Copy-8" transform="translate(2825.000000, 384.000000)">
                    <polygon id="Fill-297" fill="#FFCE08" points="329.999297 210 351 210 351 133.888146 288.508907 133.888146 288.508907 70.3289308 223.261722 70.3289308 223.261722 0 142 0 142 20.9743314 202.261018 20.9743314 202.261018 91.3032622 267.508204 91.3032622 267.508204 154.862478 329.999297 154.862478"></polygon>
                    <polygon id="Fill-303" fill="#FFCE08" points="238.999297 301 260 301 260 224.888146 197.508907 224.888146 197.508907 161.328931 132.261722 161.328931 132.261722 91 51 91 51 111.974331 111.261018 111.974331 111.261018 182.303262 176.508204 182.303262 176.508204 245.862478 238.999297 245.862478"></polygon>
                    <path d="M169.930109,307.923373 L384.923373,92.9301093 C389.025542,88.8279404 389.025542,82.1780454 384.923373,78.0758765 C380.822205,73.9747078 374.171309,73.9747078 370.070141,78.0758765 L155.075876,293.06914 C150.974708,297.171309 150.974708,303.821204 155.075876,307.923373 C159.178045,312.025542 165.82794,312.025542 169.930109,307.923373" id="Fill-299" fill="#3E00FF"></path>
                    <polygon id="Fill-301" fill="#FFCE08" points="287.999297 252 309 252 309 175.888146 246.508907 175.888146 246.508907 112.328931 181.261722 112.328931 181.261722 42 100 42 100 62.9743314 160.261018 62.9743314 160.261018 133.303262 225.508204 133.303262 225.508204 196.862478 287.999297 196.862478"></polygon>
                    <polygon id="Fill-305" fill="#FFCE08" points="187.999297 352 209 352 209 275.888146 146.508907 275.888146 146.508907 212.328931 81.2617217 212.328931 81.2617217 142 0 142 0 162.974331 60.2610183 162.974331 60.2610183 233.303262 125.508204 233.303262 125.508204 296.862478 187.999297 296.862478"></polygon>
                </g>
                <g id="Group-322-Copy-19" transform="translate(3013.000000, 573.000000)">
                    <polygon id="Fill-297" fill="#FFCE08" points="329.999297 210 351 210 351 133.888146 288.508907 133.888146 288.508907 70.3289308 223.261722 70.3289308 223.261722 0 142 0 142 20.9743314 202.261018 20.9743314 202.261018 91.3032622 267.508204 91.3032622 267.508204 154.862478 329.999297 154.862478"></polygon>
                    <polygon id="Fill-303" fill="#FFCE08" points="238.999297 301 260 301 260 224.888146 197.508907 224.888146 197.508907 161.328931 132.261722 161.328931 132.261722 91 51 91 51 111.974331 111.261018 111.974331 111.261018 182.303262 176.508204 182.303262 176.508204 245.862478 238.999297 245.862478"></polygon>
                    <path d="M169.930109,307.923373 L384.923373,92.9301093 C389.025542,88.8279404 389.025542,82.1780454 384.923373,78.0758765 C380.822205,73.9747078 374.171309,73.9747078 370.070141,78.0758765 L155.075876,293.06914 C150.974708,297.171309 150.974708,303.821204 155.075876,307.923373 C159.178045,312.025542 165.82794,312.025542 169.930109,307.923373" id="Fill-299" fill="#3E00FF"></path>
                    <polygon id="Fill-301" fill="#FFCE08" points="287.999297 252 309 252 309 175.888146 246.508907 175.888146 246.508907 112.328931 181.261722 112.328931 181.261722 42 100 42 100 62.9743314 160.261018 62.9743314 160.261018 133.303262 225.508204 133.303262 225.508204 196.862478 287.999297 196.862478"></polygon>
                    <polygon id="Fill-305" fill="#FFCE08" points="187.999297 352 209 352 209 275.888146 146.508907 275.888146 146.508907 212.328931 81.2617217 212.328931 81.2617217 142 0 142 0 162.974331 60.2610183 162.974331 60.2610183 233.303262 125.508204 233.303262 125.508204 296.862478 187.999297 296.862478"></polygon>
                </g>
                <g id="Group-322-Copy-6" transform="translate(1656.000000, 1.000000)">
                    <polygon id="Fill-297" fill="#F9006C" points="329.999297 210 351 210 351 133.888146 288.508907 133.888146 288.508907 70.3289308 223.261722 70.3289308 223.261722 0 142 0 142 20.9743314 202.261018 20.9743314 202.261018 91.3032622 267.508204 91.3032622 267.508204 154.862478 329.999297 154.862478"></polygon>
                    <polygon id="Fill-303" fill="#F9006C" points="238.999297 301 260 301 260 224.888146 197.508907 224.888146 197.508907 161.328931 132.261722 161.328931 132.261722 91 51 91 51 111.974331 111.261018 111.974331 111.261018 182.303262 176.508204 182.303262 176.508204 245.862478 238.999297 245.862478"></polygon>
                    <path d="M42.9301093,234.923373 L257.923373,19.9301093 C262.025542,15.8279404 262.025542,9.17804544 257.923373,5.07587649 C253.822205,0.974707835 247.171309,0.974707835 243.070141,5.07587649 L28.0758765,220.06914 C23.9747078,224.171309 23.9747078,230.821204 28.0758765,234.923373 C32.1780454,239.025542 38.8279404,239.025542 42.9301093,234.923373" id="Fill-299" fill="#FFCE08"></path>
                    <polygon id="Fill-301" fill="#F9006C" points="287.999297 252 309 252 309 175.888146 246.508907 175.888146 246.508907 112.328931 181.261722 112.328931 181.261722 42 100 42 100 62.9743314 160.261018 62.9743314 160.261018 133.303262 225.508204 133.303262 225.508204 196.862478 287.999297 196.862478"></polygon>
                    <polygon id="Fill-305" fill="#F9006C" points="187.999297 352 209 352 209 275.888146 146.508907 275.888146 146.508907 212.328931 81.2617217 212.328931 81.2617217 142 0 142 0 162.974331 60.2610183 162.974331 60.2610183 233.303262 125.508204 233.303262 125.508204 296.862478 187.999297 296.862478"></polygon>
                </g>
                <g id="Group-322-Copy-9" transform="translate(1828.000000, 191.000000)">
                    <polygon id="Fill-297" fill="#F9006C" points="345.999297 210 367 210 367 133.888146 304.508907 133.888146 304.508907 70.3289308 239.261722 70.3289308 239.261722 0 158 0 158 20.9743314 218.261018 20.9743314 218.261018 91.3032622 283.508204 91.3032622 283.508204 154.862478 345.999297 154.862478"></polygon>
                    <polygon id="Fill-303" fill="#F9006C" points="254.999297 301 276 301 276 224.888146 213.508907 224.888146 213.508907 161.328931 148.261722 161.328931 148.261722 91 67 91 67 111.974331 127.261018 111.974331 127.261018 182.303262 192.508204 182.303262 192.508204 245.862478 254.999297 245.862478"></polygon>
                    <path d="M17.9301093,406.923373 L232.923373,191.930109 C237.025542,187.82794 237.025542,181.178045 232.923373,177.075876 C228.822205,172.974708 222.171309,172.974708 218.070141,177.075876 L3.07587649,392.06914 C-1.02529216,396.171309 -1.02529216,402.821204 3.07587649,406.923373 C7.17804544,411.025542 13.8279404,411.025542 17.9301093,406.923373" id="Fill-299" fill="#FFCE08"></path>
                    <polygon id="Fill-301" fill="#F9006C" points="303.999297 252 325 252 325 175.888146 262.508907 175.888146 262.508907 112.328931 197.261722 112.328931 197.261722 42 116 42 116 62.9743314 176.261018 62.9743314 176.261018 133.303262 241.508204 133.303262 241.508204 196.862478 303.999297 196.862478"></polygon>
                    <polygon id="Fill-305" fill="#F9006C" points="203.999297 352 225 352 225 275.888146 162.508907 275.888146 162.508907 212.328931 97.2617217 212.328931 97.2617217 142 16 142 16 162.974331 76.2610183 162.974331 76.2610183 233.303262 141.508204 233.303262 141.508204 296.862478 203.999297 296.862478"></polygon>
                </g>
                <g id="Group-322-Copy-10" transform="translate(2032.000000, 380.000000)">
                    <polygon id="Fill-297" fill="#F9006C" points="329.999297 210 351 210 351 133.888146 288.508907 133.888146 288.508907 70.3289308 223.261722 70.3289308 223.261722 0 142 0 142 20.9743314 202.261018 20.9743314 202.261018 91.3032622 267.508204 91.3032622 267.508204 154.862478 329.999297 154.862478"></polygon>
                    <polygon id="Fill-303" fill="#F9006C" points="238.999297 301 260 301 260 224.888146 197.508907 224.888146 197.508907 161.328931 132.261722 161.328931 132.261722 91 51 91 51 111.974331 111.261018 111.974331 111.261018 182.303262 176.508204 182.303262 176.508204 245.862478 238.999297 245.862478"></polygon>
                    <path d="M99.9301093,324.923373 L314.923373,109.930109 C319.025542,105.82794 319.025542,99.1780454 314.923373,95.0758765 C310.822205,90.9747078 304.171309,90.9747078 300.070141,95.0758765 L85.0758765,310.06914 C80.9747078,314.171309 80.9747078,320.821204 85.0758765,324.923373 C89.1780454,329.025542 95.8279404,329.025542 99.9301093,324.923373" id="Fill-299" fill="#FFCE08"></path>
                    <polygon id="Fill-301" fill="#F9006C" points="287.999297 252 309 252 309 175.888146 246.508907 175.888146 246.508907 112.328931 181.261722 112.328931 181.261722 42 100 42 100 62.9743314 160.261018 62.9743314 160.261018 133.303262 225.508204 133.303262 225.508204 196.862478 287.999297 196.862478"></polygon>
                    <polygon id="Fill-305" fill="#F9006C" points="187.999297 352 209 352 209 275.888146 146.508907 275.888146 146.508907 212.328931 81.2617217 212.328931 81.2617217 142 0 142 0 162.974331 60.2610183 162.974331 60.2610183 233.303262 125.508204 233.303262 125.508204 296.862478 187.999297 296.862478"></polygon>
                </g>
                <g id="Group-322-Copy-14" transform="translate(2218.000000, 569.000000)">
                    <polygon id="Fill-297" fill="#F9006C" points="331.999297 210 353 210 353 133.888146 290.508907 133.888146 290.508907 70.3289308 225.261722 70.3289308 225.261722 0 144 0 144 20.9743314 204.261018 20.9743314 204.261018 91.3032622 269.508204 91.3032622 269.508204 154.862478 331.999297 154.862478"></polygon>
                    <polygon id="Fill-303" fill="#F9006C" points="240.999297 301 262 301 262 224.888146 199.508907 224.888146 199.508907 161.328931 134.261722 161.328931 134.261722 91 53 91 53 111.974331 113.261018 111.974331 113.261018 182.303262 178.508204 182.303262 178.508204 245.862478 240.999297 245.862478"></polygon>
                    <path d="M17.9301093,326.923373 L232.923373,111.930109 C237.025542,107.82794 237.025542,101.178045 232.923373,97.0758765 C228.822205,92.9747078 222.171309,92.9747078 218.070141,97.0758765 L3.07587649,312.06914 C-1.02529216,316.171309 -1.02529216,322.821204 3.07587649,326.923373 C7.17804544,331.025542 13.8279404,331.025542 17.9301093,326.923373" id="Fill-299" fill="#FFCE08"></path>
                    <polygon id="Fill-301" fill="#F9006C" points="289.999297 252 311 252 311 175.888146 248.508907 175.888146 248.508907 112.328931 183.261722 112.328931 183.261722 42 102 42 102 62.9743314 162.261018 62.9743314 162.261018 133.303262 227.508204 133.303262 227.508204 196.862478 289.999297 196.862478"></polygon>
                    <polygon id="Fill-305" fill="#F9006C" points="189.999297 352 211 352 211 275.888146 148.508907 275.888146 148.508907 212.328931 83.2617217 212.328931 83.2617217 142 2 142 2 162.974331 62.2610183 162.974331 62.2610183 233.303262 127.508204 233.303262 127.508204 296.862478 189.999297 296.862478"></polygon>
                </g>
                <g id="Group-322-Copy-15" transform="translate(2408.000000, 758.000000)">
                    <polygon id="Fill-297" fill="#F9006C" points="329.999297 210 351 210 351 133.888146 288.508907 133.888146 288.508907 70.3289308 223.261722 70.3289308 223.261722 0 142 0 142 20.9743314 202.261018 20.9743314 202.261018 91.3032622 267.508204 91.3032622 267.508204 154.862478 329.999297 154.862478"></polygon>
                    <polygon id="Fill-303" fill="#F9006C" points="238.999297 301 260 301 260 224.888146 197.508907 224.888146 197.508907 161.328931 132.261722 161.328931 132.261722 91 51 91 51 111.974331 111.261018 111.974331 111.261018 182.303262 176.508204 182.303262 176.508204 245.862478 238.999297 245.862478"></polygon>
                    <path d="M109.930109,238.923373 L324.923373,23.9301093 C329.025542,19.8279404 329.025542,13.1780454 324.923373,9.07587649 C320.822205,4.97470784 314.171309,4.97470784 310.070141,9.07587649 L95.0758765,224.06914 C90.9747078,228.171309 90.9747078,234.821204 95.0758765,238.923373 C99.1780454,243.025542 105.82794,243.025542 109.930109,238.923373" id="Fill-299" fill="#FFCE08"></path>
                    <polygon id="Fill-301" fill="#F9006C" points="287.999297 252 309 252 309 175.888146 246.508907 175.888146 246.508907 112.328931 181.261722 112.328931 181.261722 42 100 42 100 62.9743314 160.261018 62.9743314 160.261018 133.303262 225.508204 133.303262 225.508204 196.862478 287.999297 196.862478"></polygon>
                    <polygon id="Fill-305" fill="#F9006C" points="187.999297 352 209 352 209 275.888146 146.508907 275.888146 146.508907 212.328931 81.2617217 212.328931 81.2617217 142 0 142 0 162.974331 60.2610183 162.974331 60.2610183 233.303262 125.508204 233.303262 125.508204 296.862478 187.999297 296.862478"></polygon>
                </g>
                <g id="Group-322-Copy-16" transform="translate(2596.000000, 947.000000)">
                    <polygon id="Fill-297" fill="#F9006C" points="329.999297 210 351 210 351 133.888146 288.508907 133.888146 288.508907 70.3289308 223.261722 70.3289308 223.261722 0 142 0 142 20.9743314 202.261018 20.9743314 202.261018 91.3032622 267.508204 91.3032622 267.508204 154.862478 329.999297 154.862478"></polygon>
                    <polygon id="Fill-303" fill="#F9006C" points="238.999297 301 260 301 260 224.888146 197.508907 224.888146 197.508907 161.328931 132.261722 161.328931 132.261722 91 51 91 51 111.974331 111.261018 111.974331 111.261018 182.303262 176.508204 182.303262 176.508204 245.862478 238.999297 245.862478"></polygon>
                    <path d="M109.930109,238.923373 L324.923373,23.9301093 C329.025542,19.8279404 329.025542,13.1780454 324.923373,9.07587649 C320.822205,4.97470784 314.171309,4.97470784 310.070141,9.07587649 L95.0758765,224.06914 C90.9747078,228.171309 90.9747078,234.821204 95.0758765,238.923373 C99.1780454,243.025542 105.82794,243.025542 109.930109,238.923373" id="Fill-299" fill="#FFCE08"></path>
                    <polygon id="Fill-301" fill="#F9006C" points="287.999297 252 309 252 309 175.888146 246.508907 175.888146 246.508907 112.328931 181.261722 112.328931 181.261722 42 100 42 100 62.9743314 160.261018 62.9743314 160.261018 133.303262 225.508204 133.303262 225.508204 196.862478 287.999297 196.862478"></polygon>
                    <polygon id="Fill-305" fill="#F9006C" points="187.999297 352 209 352 209 275.888146 146.508907 275.888146 146.508907 212.328931 81.2617217 212.328931 81.2617217 142 0 142 0 162.974331 60.2610183 162.974331 60.2610183 233.303262 125.508204 233.303262 125.508204 296.862478 187.999297 296.862478"></polygon>
                </g>
                <g id="Group-322-Copy-7" transform="translate(376.000000, 1042.000000)">
                    <polygon id="Fill-297" fill="#FFCE08" points="329.999297 245 351 245 351 168.888146 288.508907 168.888146 288.508907 105.328931 223.261722 105.328931 223.261722 35 142 35 142 55.9743314 202.261018 55.9743314 202.261018 126.303262 267.508204 126.303262 267.508204 189.862478 329.999297 189.862478"></polygon>
                    <polygon id="Fill-303" fill="#FFCE08" points="238.999297 336 260 336 260 259.888146 197.508907 259.888146 197.508907 196.328931 132.261722 196.328931 132.261722 126 51 126 51 146.974331 111.261018 146.974331 111.261018 217.303262 176.508204 217.303262 176.508204 280.862478 238.999297 280.862478"></polygon>
                    <path d="M85.9301093,232.923373 L300.923373,17.9301093 C305.025542,13.8279404 305.025542,7.17804544 300.923373,3.07587649 C296.822205,-1.02529216 290.171309,-1.02529216 286.070141,3.07587649 L71.0758765,218.06914 C66.9747078,222.171309 66.9747078,228.821204 71.0758765,232.923373 C75.1780454,237.025542 81.8279404,237.025542 85.9301093,232.923373" id="Fill-299" fill="#3E00FF"></path>
                    <polygon id="Fill-301" fill="#FFCE08" points="287.999297 287 309 287 309 210.888146 246.508907 210.888146 246.508907 147.328931 181.261722 147.328931 181.261722 77 100 77 100 97.9743314 160.261018 97.9743314 160.261018 168.303262 225.508204 168.303262 225.508204 231.862478 287.999297 231.862478"></polygon>
                    <polygon id="Fill-305" fill="#FFCE08" points="187.999297 387 209 387 209 310.888146 146.508907 310.888146 146.508907 247.328931 81.2617217 247.328931 81.2617217 177 0 177 0 197.974331 60.2610183 197.974331 60.2610183 268.303262 125.508204 268.303262 125.508204 331.862478 187.999297 331.862478"></polygon>
                </g>
                <g id="Group-322-Copy-13" transform="translate(159.000000, 888.000000)">
                    <polygon id="Fill-297" fill="#FFCE08" points="358.999297 210 380 210 380 133.888146 317.508907 133.888146 317.508907 70.3289308 252.261722 70.3289308 252.261722 0 171 0 171 20.9743314 231.261018 20.9743314 231.261018 91.3032622 296.508204 91.3032622 296.508204 154.862478 358.999297 154.862478"></polygon>
                    <polygon id="Fill-303" fill="#FFCE08" points="267.999297 301 289 301 289 224.888146 226.508907 224.888146 226.508907 161.328931 161.261722 161.328931 161.261722 91 80 91 80 111.974331 140.261018 111.974331 140.261018 182.303262 205.508204 182.303262 205.508204 245.862478 267.999297 245.862478"></polygon>
                    <path d="M17.9301093,293.923373 L232.923373,78.9301093 C237.025542,74.8279404 237.025542,68.1780454 232.923373,64.0758765 C228.822205,59.9747078 222.171309,59.9747078 218.070141,64.0758765 L3.07587649,279.06914 C-1.02529216,283.171309 -1.02529216,289.821204 3.07587649,293.923373 C7.17804544,298.025542 13.8279404,298.025542 17.9301093,293.923373" id="Fill-299" fill="#3E00FF"></path>
                    <polygon id="Fill-301" fill="#FFCE08" points="316.999297 252 338 252 338 175.888146 275.508907 175.888146 275.508907 112.328931 210.261722 112.328931 210.261722 42 129 42 129 62.9743314 189.261018 62.9743314 189.261018 133.303262 254.508204 133.303262 254.508204 196.862478 316.999297 196.862478"></polygon>
                    <polygon id="Fill-305" fill="#FFCE08" points="216.999297 352 238 352 238 275.888146 175.508907 275.888146 175.508907 212.328931 110.261722 212.328931 110.261722 142 29 142 29 162.974331 89.2610183 162.974331 89.2610183 233.303262 154.508204 233.303262 154.508204 296.862478 216.999297 296.862478"></polygon>
                </g>
                <g id="Group-322-Copy-18" transform="translate(0.000000, 699.000000)">
                    <polygon id="Fill-297" fill="#FFCE08" points="329.999297 210 351 210 351 133.888146 288.508907 133.888146 288.508907 70.3289308 223.261722 70.3289308 223.261722 0 142 0 142 20.9743314 202.261018 20.9743314 202.261018 91.3032622 267.508204 91.3032622 267.508204 154.862478 329.999297 154.862478"></polygon>
                    <polygon id="Fill-303" fill="#FFCE08" points="238.999297 301 260 301 260 224.888146 197.508907 224.888146 197.508907 161.328931 132.261722 161.328931 132.261722 91 51 91 51 111.974331 111.261018 111.974331 111.261018 182.303262 176.508204 182.303262 176.508204 245.862478 238.999297 245.862478"></polygon>
                    <path d="M42.9301093,234.923373 L257.923373,19.9301093 C262.025542,15.8279404 262.025542,9.17804544 257.923373,5.07587649 C253.822205,0.974707835 247.171309,0.974707835 243.070141,5.07587649 L28.0758765,220.06914 C23.9747078,224.171309 23.9747078,230.821204 28.0758765,234.923373 C32.1780454,239.025542 38.8279404,239.025542 42.9301093,234.923373" id="Fill-299" fill="#3E00FF"></path>
                    <polygon id="Fill-301" fill="#FFCE08" points="287.999297 252 309 252 309 175.888146 246.508907 175.888146 246.508907 112.328931 181.261722 112.328931 181.261722 42 100 42 100 62.9743314 160.261018 62.9743314 160.261018 133.303262 225.508204 133.303262 225.508204 196.862478 287.999297 196.862478"></polygon>
                    <polygon id="Fill-305" fill="#FFCE08" points="187.999297 352 209 352 209 275.888146 146.508907 275.888146 146.508907 212.328931 81.2617217 212.328931 81.2617217 142 0 142 0 162.974331 60.2610183 162.974331 60.2610183 233.303262 125.508204 233.303262 125.508204 296.862478 187.999297 296.862478"></polygon>
                </g>
            </g>
        </g>
    </g>
</svg>