<?xml version="1.0" encoding="UTF-8"?>
<svg width="3000px" height="1112px" viewBox="0 0 3000 1112" version="1.1" xmlns="http://www.w3.org/2000/svg" xmlns:xlink="http://www.w3.org/1999/xlink">
    <!-- Generator: Sketch 51.3 (57544) - http://www.bohemiancoding.com/sketch -->
    <title>Specs Copy 7</title>
    <desc>Created with Sketch.</desc>
    <defs></defs>
    <g id="Specs-Copy-7" stroke="none" stroke-width="1" fill="none" fill-rule="evenodd">
        <g id="Group-2" transform="translate(-63.000000, -27.000000)">
            <g id="Header3">
                <polygon id="Fill-46" fill="#15003E" points="29 1164 3072 1164 3072 0 29 0"></polygon>
                <path d="M1093.12519,507.362762 C1111.30459,525.542166 1140.77947,525.542166 1158.9567,507.362762 C1177.1361,489.183358 1177.1361,459.708478 1158.9567,441.53125" id="Stroke-65" stroke="#25E899" stroke-width="7" stroke-linecap="round" stroke-linejoin="round"></path>
                <path d="M1169.26257,491.763906 C1186.70635,506.360969 1196.70252,520.33123 1192.78066,526.131315 C1187.72926,533.598517 1161.51679,524.69272 1134.23136,506.239091 C1106.94593,487.785461 1088.92323,466.770218 1093.97246,459.303016" id="Stroke-67" stroke="#25E899" stroke-width="7" stroke-linecap="round" stroke-linejoin="round"></path>
                <path d="M174,525 C174,516.197802 181.201251,509.061708 190.083818,509.061708 L193.042114,509.307692 C193.866138,501.271344 200.715516,495 209.042762,495 C217.925329,495 225.12658,502.134827 225.12658,510.937025 L227.62936,507.552832 C230.532636,504.717667 234.518403,502.967878 238.916182,502.967878 C247.798749,502.967878 255,510.103973 255,518.906171" id="Stroke-105-Copy" stroke="#F9006C" stroke-width="5" stroke-linejoin="round"></path>
                <path d="M523,579 C523,570.197802 530.201251,563.061708 539.083818,563.061708 L542.042114,563.307692 C542.866138,555.271344 549.715516,549 558.042762,549 C566.925329,549 574.12658,556.134827 574.12658,564.937025 L576.62936,561.552832 C579.532636,558.717667 583.518403,556.967878 587.916182,556.967878 C596.798749,556.967878 604,564.103973 604,572.906171" id="Stroke-105-Copy-2" stroke="#F9006C" stroke-width="5" stroke-linejoin="round"></path>
                <path d="M745,510 C745,501.197802 752.201251,494.061708 761.083818,494.061708 L764.042114,494.307692 C764.866138,486.271344 771.715516,480 780.042762,480 C788.925329,480 796.12658,487.134827 796.12658,495.937025 L798.62936,492.552832 C801.532636,489.717667 805.518403,487.967878 809.916182,487.967878 C818.798749,487.967878 826,495.103973 826,503.906171" id="Stroke-105-Copy-3" stroke="#F9006C" stroke-width="5" stroke-linejoin="round"></path>
                <path d="M216.5,661 C214.565934,661 213,659.434066 213,657.5 C213,655.565934 214.565934,654 216.5,654 C218.434066,654 220,655.565934 220,657.5 C220,659.434066 218.434066,661 216.5,661" id="Fill-157" fill="#F9006C"></path>
                <path d="M601.5,654 C599.565934,654 598,652.434066 598,650.5 C598,648.565934 599.565934,647 601.5,647 C603.434066,647 605,648.565934 605,650.5 C605,652.434066 603.434066,654 601.5,654" id="Fill-157-Copy-4" fill="#F9006C"></path>
                <path d="M205.5,661 C203.565934,661 202,659.434066 202,657.5 C202,655.565934 203.565934,654 205.5,654 C207.434066,654 209,655.565934 209,657.5 C209,659.434066 207.434066,661 205.5,661" id="Fill-157-Copy-8" fill="#F9006C"></path>
                <path d="M590.5,654 C588.565934,654 587,652.434066 587,650.5 C587,648.565934 588.565934,647 590.5,647 C592.434066,647 594,648.565934 594,650.5 C594,652.434066 592.434066,654 590.5,654" id="Fill-157-Copy-9" fill="#F9006C"></path>
                <path d="M216.5,673 C214.565934,673 213,671.434066 213,669.5 C213,667.565934 214.565934,666 216.5,666 C218.434066,666 220,667.565934 220,669.5 C220,671.434066 218.434066,673 216.5,673" id="Fill-157-Copy-2" fill="#F9006C"></path>
                <path d="M601.5,665 C599.565934,665 598,663.434066 598,661.5 C598,659.565934 599.565934,658 601.5,658 C603.434066,658 605,659.565934 605,661.5 C605,663.434066 603.434066,665 601.5,665" id="Fill-157-Copy-6" fill="#F9006C"></path>
                <path d="M227.5,661 C225.565934,661 224,659.434066 224,657.5 C224,655.565934 225.565934,654 227.5,654 C229.434066,654 231,655.565934 231,657.5 C231,659.434066 229.434066,661 227.5,661" id="Fill-157-Copy" fill="#F9006C"></path>
                <path d="M612.5,654 C610.565934,654 609,652.434066 609,650.5 C609,648.565934 610.565934,647 612.5,647 C614.434066,647 616,648.565934 616,650.5 C616,652.434066 614.434066,654 612.5,654" id="Fill-157-Copy-7" fill="#F9006C"></path>
                <path d="M227.5,673 C225.565934,673 224,671.434066 224,669.5 C224,667.565934 225.565934,666 227.5,666 C229.434066,666 231,667.565934 231,669.5 C231,671.434066 229.434066,673 227.5,673" id="Fill-157-Copy-3" fill="#F9006C"></path>
                <path d="M612.5,665 C610.565934,665 609,663.434066 609,661.5 C609,659.565934 610.565934,658 612.5,658 C614.434066,658 616,659.565934 616,661.5 C616,663.434066 614.434066,665 612.5,665" id="Fill-157-Copy-10" fill="#F9006C"></path>
                <path d="M227.5,683 C225.565934,683 224,681.434066 224,679.5 C224,677.565934 225.565934,676 227.5,676 C229.434066,676 231,677.565934 231,679.5 C231,681.434066 229.434066,683 227.5,683" id="Fill-157-Copy-5" fill="#F9006C"></path>
                <path d="M612.5,675 C610.565934,675 609,673.434066 609,671.5 C609,669.565934 610.565934,668 612.5,668 C614.434066,668 616,669.565934 616,671.5 C616,673.434066 614.434066,675 612.5,675" id="Fill-157-Copy-11" fill="#F9006C"></path>
                <path d="M78,777 L78,822" id="Fill-197" fill="#FFFFFF"></path>
                <path d="M79,774 L79,819" id="Stroke-198" stroke="#25E899" stroke-width="7" stroke-linejoin="round"></path>
                <polyline id="Stroke-200" stroke="#25E899" stroke-width="7" stroke-linejoin="round" points="374 817 431 817 431 622 374 622"></polyline>
                <path d="M293,818 L375,818 L375,487.982793 C375,465.348496 356.643466,447 334.000748,447 C311.356534,447 293,465.348496 293,487.982793 L293,818 Z" id="Stroke-201" stroke="#25E899" stroke-width="7" stroke-linejoin="round"></path>
                <polyline id="Stroke-202" stroke="#25E899" stroke-width="7" stroke-linejoin="round" points="537 642 448.575813 553 380 622.253884"></polyline>
                <polyline id="Stroke-203" stroke="#25E899" stroke-width="7" stroke-linejoin="round" points="292 630.7095 234.165764 573 158 649"></polyline>
                <polygon id="Stroke-204" stroke="#25E899" stroke-width="7" stroke-linejoin="round" points="482 818 620 818 620 642 482 642"></polygon>
                <path d="M458,777 L458,822" id="Fill-205" fill="#FFFFFF"></path>
                <path d="M457.5,777 L457.5,817.980469" id="Stroke-206" stroke="#25E899" stroke-width="7" stroke-linejoin="round"></path>
                <path d="M598,673 L504,673" id="Stroke-208" stroke="#25E899" stroke-width="7" stroke-linejoin="round"></path>
                <path d="M598,694 L504,694" id="Stroke-209" stroke="#25E899" stroke-width="7" stroke-linejoin="round"></path>
                <path d="M598,716 L504,716" id="Stroke-210" stroke="#25E899" stroke-width="7" stroke-linejoin="round"></path>
                <path d="M598,741 L504,741" id="Stroke-211" stroke="#25E899" stroke-width="7" stroke-linejoin="round"></path>
                <path d="M598,763 L504,763" id="Stroke-212" stroke="#25E899" stroke-width="7" stroke-linejoin="round"></path>
                <path d="M598,784 L504,784" id="Stroke-213" stroke="#25E899" stroke-width="7" stroke-linejoin="round"></path>
                <polyline id="Stroke-214" stroke="#25E899" stroke-width="7" stroke-linejoin="round" points="25.3242188 649.039062 64.6796276 648.147423 75.2585549 625 181 625"></polyline>
                <path d="M430,645 L397,645" id="Stroke-215" stroke="#25E899" stroke-width="7" stroke-linejoin="round"></path>
                <path d="M430,673 L397,673" id="Stroke-216" stroke="#25E899" stroke-width="7" stroke-linejoin="round"></path>
                <path d="M430,702 L397,702" id="Stroke-218" stroke="#25E899" stroke-width="7" stroke-linejoin="round"></path>
                <path d="M410,773 L377,773" id="Stroke-219" stroke="#25E899" stroke-width="7" stroke-linejoin="round"></path>
                <path d="M425,738 L377,738" id="Stroke-220" stroke="#25E899" stroke-width="7" stroke-linejoin="round"></path>
                <polyline id="Stroke-221" stroke="#25E899" stroke-width="7" stroke-linejoin="round" points="345 817 345 785 320 785 320 817"></polyline>
                <polygon id="Stroke-222" stroke="#25E899" stroke-width="7" stroke-linejoin="round" points="100 818 237 818 237 650 100 650"></polygon>
                <path d="M155,676 C155,669.372761 160.37309,664 167.000736,664 C173.628382,664 179,669.372761 179,676 C179,682.627239 173.628382,688 167.000736,688 C160.37309,688 155,682.627239 155,676 Z" id="Stroke-223" stroke="#25E899" stroke-width="7" stroke-linejoin="round"></path>
                <path d="M212,716 L115,716" id="Stroke-224" stroke="#25E899" stroke-width="10" stroke-linejoin="round" stroke-dasharray="10"></path>
                <path d="M212,745 L115,745" id="Stroke-225" stroke="#25E899" stroke-width="10" stroke-linejoin="round" stroke-dasharray="10"></path>
                <path d="M212,769 L115,769" id="Stroke-226" stroke="#25E899" stroke-width="10" stroke-linejoin="round" stroke-dasharray="10"></path>
                <path d="M212,794 L115,794" id="Stroke-227" stroke="#25E899" stroke-width="10" stroke-linejoin="round" stroke-dasharray="10"></path>
                <polygon id="Stroke-228" stroke="#25E899" stroke-width="7" stroke-linejoin="round" points="236 818 272 818 272 696 236 696"></polygon>
                <path d="M272,718 L236,718" id="Stroke-229" stroke="#25E899" stroke-width="7" stroke-linejoin="round"></path>
                <path d="M272,742 L236,742" id="Stroke-230" stroke="#25E899" stroke-width="7" stroke-linejoin="round"></path>
                <path d="M272,765 L236,765" id="Stroke-231" stroke="#25E899" stroke-width="7" stroke-linejoin="round"></path>
                <path d="M272,788 L236,788" id="Stroke-232" stroke="#25E899" stroke-width="7" stroke-linejoin="round"></path>
                <path d="M397,736 L397,721" id="Fill-233" fill="#FFFFFF"></path>
                <path d="M397,736 L397,721" id="Stroke-234" stroke="#25E899" stroke-width="7" stroke-linejoin="round"></path>
                <path d="M424,739 C424,719.67039 439.67039,704 459,704 C478.32961,704 494,719.67039 494,739 C494,758.32961 478.32961,774 459,774 C439.67039,774 424,758.32961 424,739" id="Fill-261" fill="#15003E"></path>
                <path d="M424,739 C424,719.67039 439.67039,704 459,704 C478.32961,704 494,719.67039 494,739 C494,758.32961 478.32961,774 459,774 C439.67039,774 424,758.32961 424,739 Z" id="Stroke-262" stroke="#25E899" stroke-width="7" stroke-linejoin="round"></path>
                <polygon id="Stroke-263" stroke="#25E899" stroke-width="7.04" stroke-linejoin="round" points="306 590 361 590 361 560 306 560"></polygon>
                <polygon id="Stroke-264" stroke="#25E899" stroke-width="7.04" stroke-linejoin="round" points="306 640 361 640 361 610 306 610"></polygon>
                <polygon id="Stroke-265" stroke="#25E899" stroke-width="7" stroke-linejoin="round" points="306 771 361 771 361 664 306 664"></polygon>
                <path d="M354,496 C354,483.850276 344.149388,474 331.99925,474 C319.849112,474 310,483.850276 310,496 C310,508.149724 319.849112,518 331.99925,518 C344.149388,518 354,508.149724 354,496 Z" id="Stroke-266" stroke="#25E899" stroke-width="7" stroke-linejoin="round"></path>
                <path d="M23.5,817 L933,817" id="Stroke-267" stroke="#25E899" stroke-width="7" stroke-linecap="round" stroke-linejoin="round"></path>
                <path d="M837,817 L780,817 L780,558.853873 C780,542.918798 792.760028,530 808.500737,530 C824.239972,530 837,542.918798 837,558.853873 L837,817 Z" id="Fill-269" fill="#15003E"></path>
                <path d="M837,817 L780,817 L780,558.853873 C780,542.918798 792.760028,530 808.500737,530 C824.239972,530 837,542.918798 837,558.853873 L837,817 Z" id="Stroke-270" stroke="#25E899" stroke-width="7" stroke-linejoin="round"></path>
                <path d="M801,840 L744,840 L744,657.891806 C744,641.935782 756.760028,629 772.500737,629 C788.239972,629 801,641.935782 801,657.891806 L801,840 Z" id="Fill-273" fill="#15003E"></path>
                <path d="M801,840 L744,840 L744,657.891806 C744,641.935782 756.760028,629 772.500737,629 C788.239972,629 801,641.935782 801,657.891806 L801,840 Z" id="Stroke-274" stroke="#25E899" stroke-width="7" stroke-linejoin="round"></path>
                <path d="M326,322 L247,401" id="Stroke-51" stroke="#150066" stroke-width="42" stroke-linecap="round"></path>
                <path d="M1357,468 L1278,547" id="Stroke-51-Copy-4" stroke="#150066" stroke-width="42" stroke-linecap="round"></path>
                <path d="M1655,295 L1576,374" id="Stroke-51-Copy-3" stroke="#150066" stroke-width="42" stroke-linecap="round"></path>
            </g>
            <g id="Header3-Copy" transform="translate(598.000000, 321.000000)">
                <path d="M1999,279 C1999,270.197802 2006.20125,263.061708 2015.08382,263.061708 L2018.04211,263.307692 C2018.86614,255.271344 2025.71552,249 2034.04276,249 C2042.92533,249 2050.12658,256.134827 2050.12658,264.937025 L2052.62936,261.552832 C2055.53264,258.717667 2059.5184,256.967878 2063.91618,256.967878 C2072.79875,256.967878 2080,264.103973 2080,272.906171" id="Stroke-105" stroke="#F9006C" stroke-width="5" stroke-linejoin="round"></path>
                <path d="M1454,228 C1454,219.197802 1461.20125,212.061708 1470.08382,212.061708 L1473.04211,212.307692 C1473.86614,204.271344 1480.71552,198 1489.04276,198 C1497.92533,198 1505.12658,205.134827 1505.12658,213.937025 L1507.62936,210.552832 C1510.53264,207.717667 1514.5184,205.967878 1518.91618,205.967878 C1527.79875,205.967878 1535,213.103973 1535,221.906171" id="Stroke-105-Copy-4" stroke="#F9006C" stroke-width="5" stroke-linejoin="round"></path>
                <path d="M1619,88 C1619,79.1978022 1626.20125,72.0617075 1635.08382,72.0617075 L1638.04211,72.3076923 C1638.86614,64.271344 1645.71552,58 1654.04276,58 C1662.92533,58 1670.12658,65.1348267 1670.12658,73.9370245 L1672.62936,70.5528318 C1675.53264,67.7176669 1679.5184,65.9678783 1683.91618,65.9678783 C1692.79875,65.9678783 1700,73.103973 1700,81.9061708" id="Stroke-105-Copy-5" stroke="#F9006C" stroke-width="5" stroke-linejoin="round"></path>
                <path d="M2354,203 C2354,194.197802 2361.20125,187.061708 2370.08382,187.061708 L2373.04211,187.307692 C2373.86614,179.271344 2380.71552,173 2389.04276,173 C2397.92533,173 2405.12658,180.134827 2405.12658,188.937025 L2407.62936,185.552832 C2410.53264,182.717667 2414.5184,180.967878 2418.91618,180.967878 C2427.79875,180.967878 2435,188.103973 2435,196.906171" id="Stroke-105-Copy" stroke="#F9006C" stroke-width="5" stroke-linejoin="round"></path>
                <g id="Group" transform="translate(1781.000000, 130.000000)" stroke="#F9006C" stroke-linejoin="round" stroke-width="7">
                    <path d="M109.82377,47.4782609 C109.82377,21.25656 88.6178145,0 62.4585378,0 C36.3002182,0 15.0942623,21.25656 15.0942623,47.4782609 C15.0942623,73.6999618 36.3002182,94.9565217 62.4585378,94.9565217 C88.6178145,94.9565217 109.82377,73.6999618 109.82377,47.4782609 Z" id="Stroke-121"></path>
                    <path d="M30.1001035,13.5652174 C32.8640251,14.3851293 35.8010503,15.6062952 38.7323374,17.2132451 C49.1673367,22.9323237 55.5836514,31.3789628 53.0626489,36.0808867 C50.5416465,40.7818436 40.0387446,39.9561305 29.6037453,34.2370518 C25.9341373,32.2249804 22.7608876,29.8764357 20.2991803,27.4718121" id="Stroke-131"></path>
                    <path d="M17.1762295,60.8069837 C17.1762295,60.8069837 88.0815999,68.222869 62.6952541,0" id="Stroke-133"></path>
                    <path d="M22.9016393,73.0034415 C22.9016393,73.0034415 75.0498569,76.5780722 98.3729508,16.173913" id="Stroke-135"></path>
                    <path d="M107.916537,32.9679695 C118.761159,32.4621016 125.863811,33.8995775 126.876423,37.4435495 C129.04439,45.036396 102.428124,59.421775 67.4264362,69.5748541 C32.4257065,79.7269678 2.29260267,81.8016057 0.123678295,74.2087592 C-0.96078389,70.4118532 5.15129097,64.9177795 15.9096923,59.1031941" id="Stroke-137"></path>
                    <path d="M90.045082,86.7539685 C87.5342086,79.6705026 79.8513164,75.9972361 72.885545,78.5505335 C65.9197735,81.1038309 62.3075397,88.9165341 64.8184131,96" id="Stroke-139"></path>
                </g>
                <path d="M1916,135 C1916,131.684571 1913.312,129 1910,129 C1906.68457,129 1904,131.684571 1904,135 C1904,138.315429 1906.68457,141 1910,141 C1913.312,141 1916,138.315429 1916,135" id="Fill-113" fill="#25E899"></path>
                <path d="M126,162 C126,158.684571 123.312,156 120,156 C116.684571,156 114,158.684571 114,162 C114,165.315429 116.684571,168 120,168 C123.312,168 126,165.315429 126,162" id="Fill-113-Copy" fill="#25E899"></path>
                <polygon id="Fill-115" fill="#25E899" points="1858 108.5 1848.49826 118 1839 108.5 1848.49826 99"></polygon>
                <polygon id="Fill-115-Copy" fill="#25E899" points="190 81.5 180.498256 91 171 81.5 180.498256 72"></polygon>
                <polygon id="Fill-117" fill="#25E899" points="1758 123.5 1753.5 128 1749 123.5 1753.5 119"></polygon>
                <path d="M1803,84.5 C1803,80.910596 1800.0894,78 1796.5,78 C1792.9106,78 1790,80.910596 1790,84.5 C1790,88.089404 1792.9106,91 1796.5,91 C1800.0894,91 1803,88.089404 1803,84.5" id="Fill-119" fill="#25E899"></path>
                <path d="M13,111.5 C13,107.910596 10.089404,105 6.5,105 C2.91059603,105 0,107.910596 0,111.5 C0,115.089404 2.91059603,118 6.5,118 C10.089404,118 13,115.089404 13,111.5" id="Fill-119-Copy" fill="#25E899"></path>
                <path d="M2396.5,339 C2394.56593,339 2393,337.434066 2393,335.5 C2393,333.565934 2394.56593,332 2396.5,332 C2398.43407,332 2400,333.565934 2400,335.5 C2400,337.434066 2398.43407,339 2396.5,339" id="Fill-157" fill="#F9006C"></path>
                <path d="M2385.5,339 C2383.56593,339 2382,337.434066 2382,335.5 C2382,333.565934 2383.56593,332 2385.5,332 C2387.43407,332 2389,333.565934 2389,335.5 C2389,337.434066 2387.43407,339 2385.5,339" id="Fill-157-Copy-8" fill="#F9006C"></path>
                <path d="M2396.5,351 C2394.56593,351 2393,349.434066 2393,347.5 C2393,345.565934 2394.56593,344 2396.5,344 C2398.43407,344 2400,345.565934 2400,347.5 C2400,349.434066 2398.43407,351 2396.5,351" id="Fill-157-Copy-2" fill="#F9006C"></path>
                <path d="M2407.5,339 C2405.56593,339 2404,337.434066 2404,335.5 C2404,333.565934 2405.56593,332 2407.5,332 C2409.43407,332 2411,333.565934 2411,335.5 C2411,337.434066 2409.43407,339 2407.5,339" id="Fill-157-Copy" fill="#F9006C"></path>
                <path d="M2407.5,351 C2405.56593,351 2404,349.434066 2404,347.5 C2404,345.565934 2405.56593,344 2407.5,344 C2409.43407,344 2411,345.565934 2411,347.5 C2411,349.434066 2409.43407,351 2407.5,351" id="Fill-157-Copy-3" fill="#F9006C"></path>
                <path d="M2407.5,361 C2405.56593,361 2404,359.434066 2404,357.5 C2404,355.565934 2405.56593,354 2407.5,354 C2409.43407,354 2411,355.565934 2411,357.5 C2411,359.434066 2409.43407,361 2407.5,361" id="Fill-157-Copy-5" fill="#F9006C"></path>
                <path d="M2258,455 L2258,500" id="Fill-197" fill="#FFFFFF"></path>
                <path d="M2259,452 L2259,497" id="Stroke-198" stroke="#25E899" stroke-width="7" stroke-linejoin="round"></path>
                <polyline id="Stroke-203" stroke="#25E899" stroke-width="7" stroke-linejoin="round" points="2478 314.024849 2414.55498 251 2331 334"></polyline>
                <polyline id="Stroke-214" stroke="#25E899" stroke-width="7" stroke-linejoin="round" points="2099 495 2099.60723 494.000926 2110.81689 463.72353 2147.89694 433.40436 2162.12573 391.567426 2196.62009 356.060786 2220.33375 326.147423 2244.67963 326.147423 2255.25855 303 2361 303"></polyline>
                <polyline id="Stroke-217" stroke="#25E899" stroke-width="7" stroke-linejoin="round" points="2178 403 2193.42929 403 2202.96044 390 2213 390"></polyline>
                <polygon id="Stroke-222" stroke="#25E899" stroke-width="7" stroke-linejoin="round" points="2280 496 2417 496 2417 328 2280 328"></polygon>
                <path d="M2335,354 C2335,347.372761 2340.37309,342 2347.00074,342 C2353.62838,342 2359,347.372761 2359,354 C2359,360.627239 2353.62838,366 2347.00074,366 C2340.37309,366 2335,360.627239 2335,354 Z" id="Stroke-223" stroke="#25E899" stroke-width="7" stroke-linejoin="round"></path>
                <path d="M2392,394 L2295,394" id="Stroke-224" stroke="#25E899" stroke-width="10" stroke-linejoin="round" stroke-dasharray="10"></path>
                <path d="M2392,423 L2295,423" id="Stroke-225" stroke="#25E899" stroke-width="10" stroke-linejoin="round" stroke-dasharray="10"></path>
                <path d="M2392,447 L2295,447" id="Stroke-226" stroke="#25E899" stroke-width="10" stroke-linejoin="round" stroke-dasharray="10"></path>
                <path d="M2392,472 L2295,472" id="Stroke-227" stroke="#25E899" stroke-width="10" stroke-linejoin="round" stroke-dasharray="10"></path>
                <polygon id="Stroke-228" stroke="#25E899" stroke-width="7" stroke-linejoin="round" points="2416 496 2452 496 2452 374 2416 374"></polygon>
                <path d="M2452,396 L2416,396" id="Stroke-229" stroke="#25E899" stroke-width="7" stroke-linejoin="round"></path>
                <path d="M2452,420 L2416,420" id="Stroke-230" stroke="#25E899" stroke-width="7" stroke-linejoin="round"></path>
                <path d="M2452,443 L2416,443" id="Stroke-231" stroke="#25E899" stroke-width="7" stroke-linejoin="round"></path>
                <path d="M2452,466 L2416,466" id="Stroke-232" stroke="#25E899" stroke-width="7" stroke-linejoin="round"></path>
                <path d="M2235,468 L2180,468" id="Fill-236" fill="#FFFFFF"></path>
                <path d="M2235,468 L2180,468" id="Stroke-237" stroke="#25E899" stroke-width="7" stroke-linejoin="round"></path>
                <path d="M2179,374 L1925,374" id="Stroke-240" stroke="#25E899" stroke-width="7" stroke-linejoin="round"></path>
                <path d="M2156,421.036889 C2156,421.036889 2042.66134,368.56766 1937,422" id="Stroke-241" stroke="#25E899" stroke-width="7" stroke-linejoin="round"></path>
                <path d="M2142,375 L2142,415" id="Stroke-242" stroke="#25E899" stroke-width="7" stroke-linejoin="round"></path>
                <path d="M2125,375 L2125,410" id="Stroke-243" stroke="#25E899" stroke-width="7" stroke-linejoin="round"></path>
                <path d="M2056.5,373.464286 L2056.5,398.860226" id="Stroke-244" stroke="#25E899" stroke-width="7" stroke-linejoin="round"></path>
                <path d="M2039.5,373.464286 L2039.5,398.860226" id="Stroke-245" stroke="#25E899" stroke-width="7" stroke-linejoin="round"></path>
                <path d="M1970,373 L1970,408" id="Stroke-246" stroke="#25E899" stroke-width="7" stroke-linejoin="round"></path>
                <path d="M1954,373 L1954,414" id="Stroke-247" stroke="#25E899" stroke-width="7" stroke-linejoin="round"></path>
                <polyline id="Stroke-248" stroke="#25E899" stroke-width="7" stroke-linejoin="round" points="2117 408 2093.00462 375 2067 399.577308"></polyline>
                <polyline id="Stroke-249" stroke="#25E899" stroke-width="7" stroke-linejoin="round" points="2027 398.238432 2010.29916 375 1978 406"></polyline>
                <polyline id="Stroke-250" stroke="#25E899" stroke-width="7" stroke-linejoin="round" points="1843 318 1867.5164 318 1890.31368 339.134495 1916.55068 358.70165 1932.18523 397.115668 1938.48616 449.68944 1954.21763 463.735856 1977 494"></polyline>
                <path d="M2070,477 C2060.61086,477 2053,469.38914 2053,460" id="Stroke-251" stroke="#25E899" stroke-width="7" stroke-linejoin="round"></path>
                <path d="M2033,477 C2043.49374,477 2052,469.38914 2052,460" id="Stroke-252" stroke="#25E899" stroke-width="7" stroke-linejoin="round"></path>
                <path d="M2034,477 C2024.61086,477 2017,469.38914 2017,460" id="Stroke-253" stroke="#25E899" stroke-width="7" stroke-linejoin="round"></path>
                <path d="M1998,477 C2007.38914,477 2015,469.38914 2015,460" id="Stroke-254" stroke="#25E899" stroke-width="7" stroke-linejoin="round"></path>
                <path d="M2001,477 C1990.50626,477 1982,469.38914 1982,460" id="Stroke-255" stroke="#25E899" stroke-width="7" stroke-linejoin="round"></path>
                <path d="M1963,477 C1972.38914,477 1980,469.38914 1980,460" id="Stroke-256" stroke="#25E899" stroke-width="7" stroke-linejoin="round"></path>
                <path d="M2106,477 C2096.61086,477 2089,469.38914 2089,460" id="Stroke-257" stroke="#25E899" stroke-width="7" stroke-linejoin="round"></path>
                <path d="M2069,477 C2079.49374,477 2088,469.38914 2088,460" id="Stroke-258" stroke="#25E899" stroke-width="7" stroke-linejoin="round"></path>
                <polyline id="Stroke-259" stroke="#25E899" stroke-width="7" stroke-linejoin="round" points="1860 345 1838.76033 308 1754 308"></polyline>
                <polyline id="Stroke-260" stroke="#25E899" stroke-width="7" stroke-linejoin="round" points="1912 423 1886.99106 423 1877.36534 414 1814 414"></polyline>
                <path d="M1570,495 L2492.5,495" id="Stroke-267" stroke="#25E899" stroke-width="7" stroke-linecap="round" stroke-linejoin="round"></path>
                <path d="M1715,494 L1658,494 L1658,247.924297 C1658,231.950329 1670.76003,219 1686.50074,219 C1702.23997,219 1715,231.950329 1715,247.924297 L1715,494 Z" id="Stroke-268" stroke="#25E899" stroke-width="7" stroke-linejoin="round"></path>
                <path d="M1627,518 L1570,518 L1570,335.891806 C1570,319.935782 1582.76003,307 1598.50074,307 C1614.23997,307 1627,319.935782 1627,335.891806 L1627,518 Z" id="Fill-271" fill="#15003E"></path>
                <path d="M1627,518 L1570,518 L1570,335.891806 C1570,319.935782 1582.76003,307 1598.50074,307 C1614.23997,307 1627,319.935782 1627,335.891806 L1627,518 Z" id="Stroke-272" stroke="#25E899" stroke-width="7" stroke-linejoin="round"></path>
                <path d="M1752,494 L1695,494 L1695,158.874641 C1695,142.928097 1707.76003,130 1723.50074,130 C1739.23997,130 1752,142.928097 1752,158.874641 L1752,494 Z" id="Fill-275" fill="#15003E"></path>
                <path d="M1752,494 L1695,494 L1695,158.874641 C1695,142.928097 1707.76003,130 1723.50074,130 C1739.23997,130 1752,142.928097 1752,158.874641 L1752,494 Z" id="Stroke-276" stroke="#25E899" stroke-width="7" stroke-linejoin="round"></path>
                <path d="M1569,496 L1492,496" id="Stroke-277" stroke="#25E899" stroke-width="7" stroke-linecap="round" stroke-linejoin="round"></path>
                <path d="M2506,0 L2427,79" id="Stroke-51" stroke="#150066" stroke-width="42" stroke-linecap="round"></path>
                <path d="M1386,186 L1307,265" id="Stroke-51-Copy" stroke="#150066" stroke-width="42" stroke-linecap="round"></path>
                <path d="M2110,88 L2031,167" id="Stroke-51-Copy-2" stroke="#150066" stroke-width="42" stroke-linecap="round"></path>
                <path d="M1335.10295,208.275955 L1180.0694,208.275955 C1168.43347,208.275955 1159,198.842484 1159,187.206556 C1159,175.570628 1168.43347,166.137157 1180.0694,166.137157 L1198.35372,166.137157 L1214.45529,166.137157 L1406.9306,166.137157 C1418.56653,166.137157 1428,156.705327 1428,145.069399 C1428,133.433471 1418.56653,124 1406.9306,124 L1286.20088,124" id="Stroke-85" stroke="#25E899" stroke-width="7" stroke-linecap="round" stroke-linejoin="round"></path>
                <path d="M654.228678,157.614339 C654.228678,150.094752 648.133926,144 640.614339,144 C633.094752,144 627,150.094752 627,157.614339 C627,165.133926 633.094752,171.228678 640.614339,171.228678 C648.133926,171.228678 654.228678,165.133926 654.228678,157.614339 Z" id="Stroke-123" stroke="#25E899" stroke-width="3" stroke-linecap="round" stroke-linejoin="round"></path>
                <path d="M762.207691,157.604698 C762.207691,155.614018 760.593673,154 758.602994,154 C756.614018,154 755,155.614018 755,157.604698 C755,159.595377 756.614018,161.209396 758.602994,161.209396 C760.593673,161.209396 762.207691,159.595377 762.207691,157.604698" id="Fill-125" fill="#25E899"></path>
                <path d="M789.207691,182.604698 C789.207691,180.614018 787.593673,179 785.602994,179 C783.614018,179 782,180.614018 782,182.604698 C782,184.595377 783.614018,186.209396 785.602994,186.209396 C787.593673,186.209396 789.207691,184.595377 789.207691,182.604698" id="Fill-127" fill="#25E899"></path>
                <path d="M614.207691,190.604698 C614.207691,188.614018 612.593673,187 610.602994,187 C608.614018,187 607,188.614018 607,190.604698 C607,192.595377 608.614018,194.209396 610.602994,194.209396 C612.593673,194.209396 614.207691,192.595377 614.207691,190.604698" id="Fill-129" fill="#25E899"></path>
                <path d="M430.74,154 L363,221.485" id="Stroke-63" stroke="#F9006C" stroke-width="3" stroke-linecap="round" stroke-linejoin="round"></path>
                <path d="M735.74,130 L710.5,156.5" id="Stroke-63-Copy" stroke="#F9006C" stroke-width="3" stroke-linecap="round" stroke-linejoin="round"></path>
            </g>
        </g>
    </g>
</svg>