<svg xmlns="http://www.w3.org/2000/svg" viewBox="0 0 1796.10078 1731.60791"><defs><style>.cls-1,.cls-15,.cls-17,.cls-19,.cls-20,.cls-22,.cls-27,.cls-28,.cls-29,.cls-30,.cls-31,.cls-8{stroke:#fff;}.cls-1,.cls-12,.cls-13,.cls-14,.cls-15,.cls-17,.cls-19,.cls-2,.cls-28,.cls-32,.cls-4,.cls-5,.cls-8{stroke-linecap:round;}.cls-1,.cls-12,.cls-13,.cls-14,.cls-15,.cls-17,.cls-19,.cls-2,.cls-20,.cls-21,.cls-22,.cls-27,.cls-28,.cls-29,.cls-30,.cls-31,.cls-32,.cls-4,.cls-5,.cls-8{stroke-miterlimit:10;}.cls-1{stroke-width:80px;}.cls-2,.cls-21{stroke:#000;stroke-width:50px;}.cls-3{fill:#121212;}.cls-12,.cls-4,.cls-5,.cls-6{stroke:#15003e;}.cls-10,.cls-12,.cls-13,.cls-14,.cls-15,.cls-17,.cls-22,.cls-4,.cls-5,.cls-6,.cls-8{stroke-width:20px;}.cls-29,.cls-5,.cls-7{fill:#15003e;}.cls-6,.cls-9{fill:#25e899;}.cls-10,.cls-6{stroke-linejoin:round;}.cls-10,.cls-12,.cls-13,.cls-14,.cls-17,.cls-19{fill:none;}.cls-10,.cls-13{stroke:#121212;}.cls-11,.cls-31{fill:#eff4ee;}.cls-14,.cls-32{stroke:#25e899;}.cls-15,.cls-18,.cls-27,.cls-28,.cls-32{fill:#fff;}.cls-16,.cls-30{fill:#0fce7c;}.cls-19{stroke-width:10px;}.cls-20{stroke-width:100px;}.cls-23{font-size:145.20625px;fill:#ffe320;font-family:Muli-Medium, Muli;}.cls-24{letter-spacing:-0.00899em;}.cls-25{letter-spacing:-0.00999em;}.cls-26{letter-spacing:0.00001em;}.cls-27,.cls-28,.cls-29,.cls-30,.cls-31{stroke-width:8px;}.cls-32{stroke-width:11px;}</style></defs><title>Batman_Eht2</title><g id="Layer_1_copy_2" data-name="Layer 1 copy 2"><path class="cls-1" d="M1794.169,1169.1534c-67.535-112.2657-338.40069-366.16294-515.68826-376.66821s-250.08911-4.37585-250.08911-4.37585l-.00006,58.77285h-.00119l-.00006-58.77285s-72.80141-6.12954-250.08893,4.37585-448.1529,264.40251-515.688,376.66821c-37.661,62.60508-54.31562,129.17409-61.68484,175.82621l-40.266,27.5922-.03947.02564a34.5423,34.5423,0,1,0,39.05261,56.98747l.0003.00048,78.93327-54.089a24.15112,24.15112,0,0,0,9.80038-14.0751l42.4497-20.48645a47.851,47.851,0,0,0,59.6272,4.439l66.26571-45.40853L469.313,1470.10708,611.73457,1335.349,657.971,1512.30554l122.94875-144.46589,28.99029,52.226v48.21255h26.76248l4.71833,8.5001a27.6905,27.6905,0,0,0,26.03568,46.90319l2.14608,3.86618,3.51723-6.04455a27.68076,27.68076,0,0,0,15.00334-24.61076c0-.3772-.01347-.75113-.02843-1.12465l55.09091-94.67747,85.23524,209.67431-.0003-392.74391.00059.00059-.0003,392.74332,85.2353-209.67431,73.58311,126.45743,46.00415-82.87649a37.00793,37.00793,0,0,0,34.82817,24.504h36.99579V1402.1208l93.77362,110.18473,46.23646-176.95656,142.42166,134.7581,13.97134-189.24811,260.26366,125.60456S1861.7042,1281.4191,1794.169,1169.1534Z" transform="translate(-105.60342 -116.96925)"/><path class="cls-1" d="M834.6488,1561.29842a24.73466,24.73466,0,0,0,0,49.46933h.0019v107.4089h65.70291v-107.4089h2.65623a24.73466,24.73466,0,0,0,0-49.46933Z" transform="translate(-105.60342 -116.96925)"/><path class="cls-1" d="M960.70333,1718.1811H789.89958a33.11083,33.11083,0,1,0,0,66.22167H960.70333a33.11083,33.11083,0,1,0,0-66.22167Z" transform="translate(-105.60342 -116.96925)"/><rect class="cls-1" x="685.51655" y="1667.43417" width="63.41443" height="23.2776"/><rect class="cls-1" x="781.77879" y="1667.43417" width="63.41438" height="23.2776"/><path class="cls-1" d="M1211.94214,1611.66881h68.361a24.73466,24.73466,0,0,0,0-49.46933h-68.361a24.73466,24.73466,0,0,0,0,49.46933Z" transform="translate(-105.60342 -116.96925)"/><path class="cls-1" d="M1325.05239,1719.07807h-44.7507V1611.66923h-65.703v107.40884h-60.35014a33.11083,33.11083,0,1,0,0,66.22167h9.902v23.27742H1227.565v-23.27742h32.84976v23.27742h63.41449v-23.27742h1.22318a33.11083,33.11083,0,1,0,0-66.22167Z" transform="translate(-105.60342 -116.96925)"/><circle class="cls-1" cx="1148.94126" cy="1380.82719" r="27.68604"/><path class="cls-1" d="M939.74786,775.34787h214.79489a42.33257,42.33257,0,0,0,42.33141-42.33141V687.18741H897.41965v45.82905A42.32984,42.32984,0,0,0,939.74786,775.34787Z" transform="translate(-105.60342 -116.96925)"/><path class="cls-1" d="M848.4295,491.06332q-.01665,1.08352-.02321,2.16929c-.00148.3166-.012.63118-.012.94813L897.41948,687.186h299.45777l.00166-.007,19.91819-71.32265-1.64222-.62667,30.74754-121.04893q0-2.66169-.0717-5.30618c-.004-.15408-.01306-.3071-.01757-.46107q-.05627-1.97918-.14993-3.94886c.13758,2.28349.2259,4.56353.2405,6.83847q24.44831-127.84217,0-242.559L1196.874,363.47341l.01353.02149A198.785,198.785,0,0,0,869.823,404.331c8.0585-19.41332,18.04591-34.44628,30.43178-44.03275L865.9005,283.75862c-15.35638,58.348-20.57323,128.23379-17.50656,207.54545C848.40552,491.22322,848.41792,491.14416,848.4295,491.06332Z" transform="translate(-105.60342 -116.96925)"/></g><g id="Layer_1_copy" data-name="Layer 1 copy"><path class="cls-2" d="M1794.169,1169.1534c-67.535-112.2657-338.40069-366.16294-515.68826-376.66821s-250.08911-4.37585-250.08911-4.37585l-.00006,58.77285h-.00119l-.00006-58.77285s-72.80141-6.12954-250.08893,4.37585-448.1529,264.40251-515.688,376.66821c-37.661,62.60508-54.31562,129.17409-61.68484,175.82621l-40.266,27.5922-.03947.02564a34.5423,34.5423,0,1,0,39.05261,56.98747l.0003.00048,78.93327-54.089a24.15112,24.15112,0,0,0,9.80038-14.0751l42.4497-20.48645a47.851,47.851,0,0,0,59.6272,4.439l66.26571-45.40853L469.313,1470.10708,611.73457,1335.349,657.971,1512.30554l122.94875-144.46589,28.99029,52.226v48.21255h26.76248l4.71833,8.5001a27.6905,27.6905,0,0,0,26.03568,46.90319l2.14608,3.86618,3.51723-6.04455a27.68076,27.68076,0,0,0,15.00334-24.61076c0-.3772-.01347-.75113-.02843-1.12465l55.09091-94.67747,85.23524,209.67431-.0003-392.74391.00059.00059-.0003,392.74332,85.2353-209.67431,73.58311,126.45743,46.00415-82.87649a37.00793,37.00793,0,0,0,34.82817,24.504h36.99579V1402.1208l93.77362,110.18473,46.23646-176.95656,142.42166,134.7581,13.97134-189.24811,260.26366,125.60456S1861.7042,1281.4191,1794.169,1169.1534Z" transform="translate(-105.60342 -116.96925)"/><path class="cls-2" d="M834.6488,1561.29842a24.73466,24.73466,0,0,0,0,49.46933h.0019v107.4089h65.70291v-107.4089h2.65623a24.73466,24.73466,0,0,0,0-49.46933Z" transform="translate(-105.60342 -116.96925)"/><path class="cls-2" d="M960.70333,1718.1811H789.89958a33.11083,33.11083,0,1,0,0,66.22167H960.70333a33.11083,33.11083,0,1,0,0-66.22167Z" transform="translate(-105.60342 -116.96925)"/><rect class="cls-2" x="685.51655" y="1667.43417" width="63.41443" height="23.2776"/><rect class="cls-2" x="781.77879" y="1667.43417" width="63.41438" height="23.2776"/><path class="cls-2" d="M1211.94214,1611.66881h68.361a24.73466,24.73466,0,0,0,0-49.46933h-68.361a24.73466,24.73466,0,0,0,0,49.46933Z" transform="translate(-105.60342 -116.96925)"/><path class="cls-2" d="M1325.05239,1719.07807h-44.7507V1611.66923h-65.703v107.40884h-60.35014a33.11083,33.11083,0,1,0,0,66.22167h9.902v23.27742H1227.565v-23.27742h32.84976v23.27742h63.41449v-23.27742h1.22318a33.11083,33.11083,0,1,0,0-66.22167Z" transform="translate(-105.60342 -116.96925)"/><circle class="cls-2" cx="1148.94126" cy="1380.82719" r="27.68604"/><path class="cls-2" d="M939.74786,775.34787h214.79489a42.33257,42.33257,0,0,0,42.33141-42.33141V687.18741H897.41965v45.82905A42.32984,42.32984,0,0,0,939.74786,775.34787Z" transform="translate(-105.60342 -116.96925)"/><path class="cls-2" d="M848.4295,491.06332q-.01665,1.08352-.02321,2.16929c-.00148.3166-.012.63118-.012.94813L897.41948,687.186h299.45777l.00166-.007,18.276-71.94932,30.74754-121.04893q0-2.66169-.0717-5.30618c-.004-.15408-.01306-.3071-.01757-.46107q-.05627-1.97918-.14993-3.94886c.13758,2.28349.2259,4.56353.2405,6.83847q24.44831-127.84217,0-242.559L1196.874,363.47341l.01353.02149A198.785,198.785,0,0,0,869.823,404.331c8.0585-19.41332,18.04591-34.44628,30.43178-44.03275L865.9005,283.75862c-15.35638,58.348-20.57323,128.23379-17.50656,207.54545C848.40552,491.22322,848.41792,491.14416,848.4295,491.06332Z" transform="translate(-105.60342 -116.96925)"/></g><g id="Layer_1" data-name="Layer 1"><path class="cls-3" d="M1028.39028,788.10925s-72.80141-6.12946-250.08891,4.37587-448.1529,264.40259-515.688,376.66828-67.53512,237.31014-67.53512,237.31014L455.34165,1280.859l13.9714,189.24813L611.73457,1335.349,657.971,1512.30554l122.94876-144.46589,88.65287,159.708,73.583-126.45744,85.23522,209.67431Z" transform="translate(-105.60342 -116.96925)"/><path class="cls-3" d="M1028.39159,788.10925s72.80146-6.12946,250.08908,4.37587,448.1532,264.40259,515.68837,376.66828,67.53516,237.31014,67.53516,237.31014L1601.44061,1280.859,1587.4692,1470.1071,1445.04758,1335.349l-46.23651,176.95654-122.94884-144.46589-88.65293,159.708-73.58309-126.45744-85.23528,209.67431Z" transform="translate(-105.60342 -116.96925)"/><path class="cls-4" d="M568.57488,1134.92146l113.48382-77.7647" transform="translate(-105.60342 -116.96925)"/><path class="cls-5" d="M279.06918,1333.30182l102.02847-69.91494" transform="translate(-105.60342 -116.96925)"/><path class="cls-6" d="M830.38821,1030.34877h448.09246" transform="translate(-105.60342 -116.96925)"/><path class="cls-7" d="M830.38821,1030.3474l4.86557,65.70629,44.38655,59.96874,38.89861,3.6824,142.38511,13.87385L1206.9105,1163.115l48.93447-33.92286,22.6357-64.588-9.71491-34.25674Z" transform="translate(-105.60342 -116.96925)"/><path class="cls-8" d="M1174.90663,1168.17721H933.96218a103.57449,103.57449,0,0,1-103.574-103.57412V918.57759h448.09247v146.02551A103.57242,103.57242,0,0,1,1174.90663,1168.17721Z" transform="translate(-105.60342 -116.96925)"/><path class="cls-9" d="M1098.206,1036.08649a46.25855,46.25855,0,1,0-46.26017,46.26021,46.25876,46.25876,0,0,0,46.26017-46.26021" transform="translate(-105.60342 -116.96925)"/><circle class="cls-10" cx="946.34682" cy="919.116" r="46.26017"/><path class="cls-3" d="M878.45287,1146.5695a22.58226,22.58226,0,1,0-22.58388,22.5839,22.58293,22.58293,0,0,0,22.58388-22.5839" transform="translate(-105.60342 -116.96925)"/><path class="cls-3" d="M1275.19843,1146.5695a22.58226,22.58226,0,1,0-22.58388,22.5839,22.58293,22.58293,0,0,0,22.58388-22.5839" transform="translate(-105.60342 -116.96925)"/><path class="cls-11" d="M1091.71217,1191.36091a37.27783,37.27783,0,1,0-37.27783,37.27787,37.279,37.279,0,0,0,37.27783-37.27787" transform="translate(-105.60342 -116.96925)"/><path class="cls-11" d="M1250.10133,1131.18985a14.01646,14.01646,0,1,0-14.01646,14.01648,14.0168,14.0168,0,0,0,14.01646-14.01648" transform="translate(-105.60342 -116.96925)"/><path class="cls-11" d="M883.90168,1131.18985a14.01646,14.01646,0,1,0-14.01646,14.01648,14.0168,14.0168,0,0,0,14.01646-14.01648" transform="translate(-105.60342 -116.96925)"/><path class="cls-8" d="M846.90589,1468.27818H809.91008v-220.685a36.99582,36.99582,0,1,1,73.99163,0v183.68912A36.99675,36.99675,0,0,1,846.90589,1468.27818Z" transform="translate(-105.60342 -116.96925)"/><path class="cls-8" d="M927.74173,1245.30162v246.22193" transform="translate(-105.60342 -116.96925)"/><path class="cls-8" d="M903.00985,1610.76776H834.64879a24.73467,24.73467,0,0,1,0-49.46935h68.36106a24.73467,24.73467,0,0,1,0,49.46935Z" transform="translate(-105.60342 -116.96925)"/><path class="cls-8" d="M960.70335,1784.40278H789.89957a33.11085,33.11085,0,1,1,0-66.2217H960.70335a33.11085,33.11085,0,1,1,0,66.2217Z" transform="translate(-105.60342 -116.96925)"/><rect class="cls-8" x="729.04729" y="1493.7953" width="65.70293" height="107.41207"/><path class="cls-8" d="M809.91439,1526.64686H927.74475" transform="translate(-105.60342 -116.96925)"/><rect class="cls-8" x="685.51655" y="1667.43419" width="63.41441" height="23.2776"/><rect class="cls-8" x="781.77877" y="1667.43419" width="63.41441" height="23.2776"/><path class="cls-8" d="M809.91439,1386.44384h73.98839" transform="translate(-105.60342 -116.96925)"/><path class="cls-8" d="M809.91439,1290.27756h73.98839" transform="translate(-105.60342 -116.96925)"/><circle class="cls-8" cx="754.80371" cy="1379.92313" r="27.68608"/><path class="cls-8" d="M867.4976,1561.30079v-34.65221" transform="translate(-105.60342 -116.96925)"/><path class="cls-8" d="M833.28594,1184.31126h45.16452l33.0703,33.06709" transform="translate(-105.60342 -116.96925)"/><path class="cls-8" d="M1268.04161,1469.17516h36.99581v-220.685a36.99582,36.99582,0,1,0-73.99163,0v183.68912A36.99675,36.99675,0,0,0,1268.04161,1469.17516Z" transform="translate(-105.60342 -116.96925)"/><path class="cls-8" d="M1187.20855,1246.2027v246.22193" transform="translate(-105.60342 -116.96925)"/><path class="cls-8" d="M1211.94208,1611.66884h68.36106a24.73467,24.73467,0,0,0,0-49.46935h-68.36106a24.73467,24.73467,0,0,0,0,49.46935Z" transform="translate(-105.60342 -116.96925)"/><path class="cls-8" d="M1154.24858,1785.29975h170.80378a33.11085,33.11085,0,1,0,0-66.2217H1154.24858a33.11085,33.11085,0,1,0,0,66.2217Z" transform="translate(-105.60342 -116.96925)"/><rect class="cls-8" x="1108.99531" y="1494.69999" width="65.70293" height="107.41207"/><path class="cls-8" d="M1305.03966,1527.54769H1187.20931" transform="translate(-105.60342 -116.96925)"/><rect class="cls-8" x="1154.81129" y="1668.33032" width="63.41441" height="23.2776"/><rect class="cls-8" x="1058.5471" y="1668.33032" width="63.41441" height="23.2776"/><path class="cls-8" d="M1305.03864,1387.34081h-73.98839" transform="translate(-105.60342 -116.96925)"/><path class="cls-8" d="M1305.03864,1291.17454h-73.98839" transform="translate(-105.60342 -116.96925)"/><circle class="cls-8" cx="1148.94124" cy="1380.8272" r="27.68608"/><path class="cls-8" d="M1247.45334,1562.19776v-34.65221" transform="translate(-105.60342 -116.96925)"/><path class="cls-8" d="M1281.66586,1185.21221h-45.16452l-33.06706,33.06709" transform="translate(-105.60342 -116.96925)"/><path class="cls-8" d="M323.97764,1332.95211l-28.3665-41.39588a47.84346,47.84346,0,0,1,12.41992-66.51151l293.33589-201.0082a47.84416,47.84416,0,0,1,66.51336,12.42254l28.3665,41.39589a47.84347,47.84347,0,0,1-12.42444,66.51068l-293.33589,201.0082A47.84277,47.84277,0,0,1,323.97764,1332.95211Z" transform="translate(-105.60342 -116.96925)"/><path class="cls-9" d="M402.931,1295.24834a38.62145,38.62145,0,1,0-53.68836-10.02724,38.61952,38.61952,0,0,0,53.68836,10.02724" transform="translate(-105.60342 -116.96925)"/><circle class="cls-12" cx="381.09687" cy="1263.39242" r="38.61987" transform="translate(-753.03086 319.66264) rotate(-34.42086)"/><path class="cls-8" d="M527.34652,1074.75555l82.45543,120.3291" transform="translate(-105.60342 -116.96925)"/><path class="cls-8" d="M454.6973,1124.53838l82.45543,120.3291" transform="translate(-105.60342 -116.96925)"/><path class="cls-8" d="M160.625,1372.5975l78.93329-54.089a24.24856,24.24856,0,0,1,33.71182,6.29627l11.63538,16.97977a24.25064,24.25064,0,0,1-6.29631,33.71181l-78.93329,54.089" transform="translate(-105.60342 -116.96925)"/><path class="cls-9" d="M199.67391,1429.58531a34.542,34.542,0,1,0-48.0194-8.96847,34.54258,34.54258,0,0,0,48.0194,8.96847" transform="translate(-105.60342 -116.96925)"/><circle class="cls-13" cx="180.15127" cy="1401.09025" r="34.542" transform="translate(-866.05097 230.18446) rotate(-34.42086)"/><rect class="cls-8" x="589.59649" y="907.78005" width="131.80201" height="71.73233"/><rect class="cls-8" x="1270.59978" y="912.17315" width="140.36879" height="71.73233" transform="translate(-328.83592 330.73758) rotate(-17.52371)"/><rect class="cls-8" x="782.4953" y="729.91297" width="318.8161" height="71.69662"/><path class="cls-14" d="M925.196,811.05045h248.67229" transform="translate(-105.60342 -116.96925)"/><path class="cls-9" d="M877.75034,605.74919h312.56l26.48673,10.10716-19.91934,71.32714H897.42007Z" transform="translate(-105.60342 -116.96925)"/><path class="cls-8" d="M1154.54269,775.34789H939.74783a42.32985,42.32985,0,0,1-42.32816-42.33145V687.18736H1196.8741v45.82908A42.33262,42.33262,0,0,1,1154.54269,775.34789Z" transform="translate(-105.60342 -116.96925)"/><path class="cls-12" d="M983.81147,605.74319A139.63455,139.63455,0,0,1,927.1751,405.02294" transform="translate(-105.60342 -116.96925)"/><path class="cls-12" d="M1157.37918,397.6836a139.61642,139.61642,0,0,1-50.15651,207.346" transform="translate(-105.60342 -116.96925)"/><path class="cls-8" d="M848.39429,494.18072c0-109.76873,88.9838-198.75262,198.75242-198.75262s198.75566,88.98389,198.75566,198.75262l-49.02521,193.00534H897.41949Z" transform="translate(-105.60342 -116.96925)"/><path class="cls-15" d="M1245.90076,494.18382l-28.33763,111.55137H876.73377L848.39614,494.18382a199.188,199.188,0,0,1,2.90766-34.02653c51.05439-51.91028,121.3733-83.97241,198.99543-83.97241,73.75168,0,140.91014,28.95029,191.22544,76.36767A199.04078,199.04078,0,0,1,1245.90076,494.18382Z" transform="translate(-105.60342 -116.96925)"/><path class="cls-16" d="M992.2459,605.74856a133.50053,133.50053,0,0,1-49.36881-207.14175c24.48019-29.66021,178.46356-31.16754,202.91457-3.56571a133.494,133.494,0,0,1-46.30555,210.701" transform="translate(-105.60342 -116.96925)"/><path class="cls-17" d="M850.53254,460.93459c51.12573-52.36406,121.75264-84.75042,199.76378-84.75042,73.768,0,140.92964,28.9568,191.245,76.37749" transform="translate(-105.60342 -116.96925)"/><path class="cls-17" d="M877.75034,605.73686h339.04673" transform="translate(-105.60342 -116.96925)"/><path class="cls-18" d="M1116.90146,439.25966a34.81425,34.81425,0,1,1-34.81425-34.81428,34.81443,34.81443,0,0,1,34.81425,34.81428" transform="translate(-105.60342 -116.96925)"/><path class="cls-18" d="M1141.77908,491.30635a14.07643,14.07643,0,1,1-14.07805-14.07807,14.07836,14.07836,0,0,1,14.07805,14.07807" transform="translate(-105.60342 -116.96925)"/><path class="cls-19" d="M1167.36794,659.42941c-17.1478,0-17.1478-25.93243-34.29885-25.93243-17.1478,0-17.1478,25.93243-34.2956,25.93243-17.15428,0-17.15428-25.93243-34.30857-25.93243-17.16077,0-17.16077,25.93243-34.3183,25.93243-17.15428,0-17.15428-25.93243-34.30857-25.93243-17.16726,0-17.16726,25.93243-34.33126,25.93243-17.16726,0-17.16726-25.93243-34.3345-25.93243" transform="translate(-105.60342 -116.96925)"/><path class="cls-18" d="M932.02441,345.76c1.58972-2.14771,3.21942-4.31042,4.97278-6.36548l2.72522-2.99988c.9043-1.01672,1.84753-1.993,2.83759-2.91345,1.95911-1.86841,3.91425-3.79272,6.03326-5.49536,2.08533-1.7572,4.21289-3.48486,6.44135-5.06555a135.46934,135.46934,0,0,1,28.80762-15.918,164.24218,164.24218,0,0,1,64.85541-11.60474,169.26128,169.26128,0,0,1,64.28015,14.01965,152.1215,152.1215,0,0,1,28.41724,16.28333,137.138,137.138,0,0,1,12.53406,10.35217c1.94544,1.88477,3.889,3.74524,5.73438,5.70288,1.79785,2.02014,3.584,4.02454,5.28235,6.098-2.43262-1.18726-4.77747-2.4436-7.1106-3.6842-2.34839-1.2196-4.75415-2.3291-7.07251-3.5282-4.74036-2.24792-9.43579-4.44836-14.22119-6.39343a247.85633,247.85633,0,0,0-28.896-10.03613,239.94916,239.94916,0,0,0-59.37-8.82458,225.84,225.84,0,0,0-59.53131,6.50085,199.09123,199.09123,0,0,0-28.86835,9.52881c-1.178.49963-2.4024.9342-3.55389,1.49207-1.16223.54114-2.3205,1.09656-3.504,1.62158-2.39722,1.00879-4.62524,2.2926-6.98688,3.42725-.58008.29773-1.18018.57214-1.74731.89136l-1.7077.9574-3.45929,1.90649C936.61237,343.00635,934.39673,344.44507,932.02441,345.76Z" transform="translate(-105.60342 -116.96925)"/><path class="cls-18" d="M851.61084,934.2666c32.98688-1.03455,65.97375-1.57568,98.96063-1.94336,16.49347-.23035,32.98688-.28162,49.48035-.41711l49.48028-.13806,49.48035.13135c16.49341.1394,32.98682.18372,49.48023.41626,32.98694.36633,65.97375.91016,98.96069,1.95093-32.98694,1.04077-65.97375,1.58459-98.96069,1.95081-16.49341.23267-32.98682.277-49.48023.41638l-49.48035.13135-49.48028-.13806c-16.49347-.1355-32.98688-.18677-49.48035-.41711C917.58459,935.84229,884.59772,935.30115,851.61084,934.2666Z" transform="translate(-105.60342 -116.96925)"/><path class="cls-18" d="M706.82642,1039.97632c8.35333-1.03448,16.70667-1.57568,25.06-1.94336,8.35333-.39789,16.70667-.546,25.06-.55585,8.35333.00262,16.70667.15228,25.06.54834,8.35333.36627,16.70667.91016,25.06,1.95087-8.35333,1.04077-16.70667,1.58466-25.06,1.95087-8.35333.39612-16.70666.54578-25.06.5484-8.35333-.00983-16.70666-.158-25.06-.55585C723.53308,1041.55206,715.17975,1041.01086,706.82642,1039.97632Z" transform="translate(-105.60342 -116.96925)"/><path class="cls-18" d="M1285.60449,943.62964c7.65418-3.50171,15.45691-6.533,23.31177-9.3988,7.84595-2.89453,15.767-5.551,23.72974-8.07556,7.96643-2.5127,15.97717-4.88513,24.06213-7.02271,8.07593-2.16589,16.20532-4.16248,24.48438-5.68518-7.65234,3.50769-15.45422,6.5415-23.30957,9.40588-7.84644,2.89294-15.76709,5.55078-23.73193,8.06848-7.96863,2.50586-15.97888,4.87976-24.06433,7.0155C1302.01025,940.10193,1293.88159,942.101,1285.60449,943.62964Z" transform="translate(-105.60342 -116.96925)"/><path class="cls-18" d="M300.28745,1244.86749c2.49838-3.00433,5.13147-5.80695,7.80655-8.54663,2.66827-2.74988,5.40967-5.39032,8.17017-8.00214,5.53854-5.19733,11.24927-10.13678,17.05573-14.93292,11.62143-9.57953,23.7352-18.42181,36.18323-26.76355a448.656,448.656,0,0,1,38.57007-23.18933c6.65311-3.52832,13.40414-6.91,20.32953-10.03058,3.47235-1.54584,6.96277-3.06464,10.52734-4.47235,3.5574-1.41846,7.1579-2.7724,10.89407-3.92322-2.49454,3.01007-5.12476,5.817-7.798,8.55945-2.66614,2.75311-5.40643,5.39514-8.16476,8.01019-5.536,5.20111-11.24634,10.14117-17.05466,14.93457a448.65029,448.65029,0,0,1-36.19824,26.741c-12.47473,8.30176-25.28375,16.10291-38.58511,23.16681-6.65494,3.52557-13.40558,6.90784-20.32843,10.03223-3.47018,1.54907-6.9595,3.06952-10.52191,4.48047C307.6174,1242.35266,304.01978,1243.71094,300.28745,1244.86749Z" transform="translate(-105.60342 -116.96925)"/><path class="cls-18" d="M470.41626,1131.64252a34.99131,34.99131,0,0,1,2.2572-4.84076c.81851-1.51459,1.71011-2.91974,2.62082-4.29627a64.74837,64.74837,0,0,1,5.95227-7.52844,77.21365,77.21365,0,0,1,13.99063-11.93292,76.3143,76.3143,0,0,1,16.3671-8.37433,64.16926,64.16926,0,0,1,9.23648-2.61041c1.62256-.31061,3.26318-.59412,4.978-.76654a34.75569,34.75569,0,0,1,5.34473-.21735,34.75121,34.75121,0,0,1-2.24866,4.85358c-.81635,1.51782-1.70685,2.92462-2.61542,4.30432a64.16854,64.16854,0,0,1-5.95032,7.53131,76.31415,76.31415,0,0,1-14.0065,11.90918,77.21513,77.21513,0,0,1-16.383,8.35059,64.75649,64.75649,0,0,1-9.23456,2.61334c-1.62042.31372-3.25995.59888-4.97256.7746A34.99913,34.99913,0,0,1,470.41626,1131.64252Z" transform="translate(-105.60342 -116.96925)"/><path class="cls-18" d="M550.98737,1080.899a45.89076,45.89076,0,0,1,3.13245-5.42529c1.11023-1.70941,2.29358-3.30939,3.496-4.88074a93.31847,93.31847,0,0,1,7.70276-8.69739,115.965,115.965,0,0,1,17.49164-14.27087,114.6327,114.6327,0,0,1,19.868-10.71228,92.4821,92.4821,0,0,1,10.98694-3.77942c1.91431-.50537,3.84668-.98376,5.85321-1.351a45.5164,45.5164,0,0,1,6.22-.80182,45.51109,45.51109,0,0,1-3.124,5.438c-1.108,1.71265-2.29034,3.31427-3.49066,4.88879a92.46017,92.46017,0,0,1-7.70081,8.70032,114.63268,114.63268,0,0,1-17.50745,14.24713,115.96782,115.96782,0,0,1-19.88391,10.68848,93.31682,93.31682,0,0,1-10.985,3.78235c-1.91217.50861-3.84344.98859-5.84784,1.35907A45.8905,45.8905,0,0,1,550.98737,1080.899Z" transform="translate(-105.60342 -116.96925)"/><path class="cls-8" d="M848.39394,491.30406c-3.06667-79.31165,2.15018-149.19745,17.50656-207.54545l34.35428,76.53968C873.0202,381.37734,857.34924,428.71578,848.39394,491.30406Z" transform="translate(-105.60342 -116.96925)"/><path class="cls-8" d="M1245.90373,491.30311q24.44831-127.84217,0-242.559L1196.874,363.47341C1224.5171,406.87474,1245.63734,449.81928,1245.90373,491.30311Z" transform="translate(-105.60342 -116.96925)"/></g><g id="Layer_5_copy_2" data-name="Layer 5 copy 2"><path class="cls-20" d="M303.15472,1405.18857c13.93542,25.15766,32.11078,46.92142,52.8729,66.66244a437.84866,437.84866,0,0,0,57.18092,45.49189,610.59081,610.59081,0,0,0,74.89922,42.81761c8.74246,4.23995,17.553,8.34375,27.09286,12.87543-.7488-2.91739-1.24475-4.88177-1.76016-6.83643-6.44744-24.11712-7.93531-48.48708-3.16051-73.04181,6.85588-35.27129,23.68924-64.36743,54.03013-84.62387a101.0398,101.0398,0,0,1,62.01406-17.339c1.517.06807,3.04381.16532,4.58031.30146,23.07658,1.99355,43.80953,10.71656,62.86983,23.60171a200.92629,200.92629,0,0,1,27.67634,22.61953,260.32671,260.32671,0,0,1,26.7525,30.691c1.91576,2.55758,3.88986,5.07627,6.09735,7.96448.86549-1.65319,1.48787-2.8007,2.08107-3.97738,7.14761-14.18826,15.91924-27.25818,27.25818-38.4318a109.337,109.337,0,0,1,23.93235-18.09757c18.23371-10.065,38.65547-13.68258,61.29444-10.61931,21.3845,2.88822,40.80461,11.02775,58.90218,22.28889q1.60457,1.0065,3.20913,2.04217a230.46469,230.46469,0,0,1,35.16432,28.07505,273.85906,273.85906,0,0,1,34.2502,40.70737,313.94164,313.94164,0,0,1,27.99725,49.18726,308.17345,308.17345,0,0,1,12.55452,32.34417q3.15079,9.67116,5.67919,19.61461c.62238,2.46033,1.31283,4.90122,2.15887,8.08118a320.36244,320.36244,0,0,1,20.56762-60.51647,301.519,301.519,0,0,1,44.218-70.25084,268.79415,268.79415,0,0,1,27.66662-28.27927,200.072,200.072,0,0,1,45.15153-30.1464c21.48174-10.3373,43.9554-16.24016,68.07252-13.60478a95.44131,95.44131,0,0,1,50.539,21.25807c.00972.00972.02917.01945.0389.02917,15.54971,12.59342,26.947,28.464,35.952,46.16289.66128,1.3031,1.42952,2.54786,2.25612,4.026.58348-.68073.87522-.97246,1.10861-1.29338q5.17837-7.19138,10.69711-14.08129a242.15116,242.15116,0,0,1,29.05724-30.62291c13.37139-11.7182,27.71524-21.58871,43.60531-28.55156a130.33081,130.33081,0,0,1,26.19819-8.35347c19.41039-3.9871,38.25676-2.8785,56.35432,3.69537a105.50205,105.50205,0,0,1,10.40537,4.415c26.13985,12.75873,44.32493,32.77205,55.95561,58.377q2.11511,4.60948,3.92876,9.4718c11.3,30.17557,11.88352,61.03188,4.64838,92.21881-.82659,3.58839-1.79906,7.13789-2.82015,11.18334,3.248-1.40035,5.90286-2.47006,8.48962-3.68564,38.78189-18.117,76.25095-38.461,110.754-64.00762,30.584-22.62925,58.2798-48.137,80.07273-79.56705a232.69514,232.69514,0,0,0,14.287-23.31634" transform="translate(-105.60342 -116.96925)"/></g><g id="Layer_5_copy" data-name="Layer 5 copy"><path class="cls-21" d="M295.99829,1391.04352q3.27661,7.14468,7.15643,14.145c13.93542,25.15766,32.11078,46.92142,52.8729,66.66244a437.84866,437.84866,0,0,0,57.18092,45.49189,610.59081,610.59081,0,0,0,74.89922,42.81761c8.74246,4.23995,17.553,8.34375,27.09286,12.87543-.7488-2.91739-1.24475-4.88177-1.76016-6.83643-6.44744-24.11712-7.93531-48.48708-3.16051-73.04181,6.85588-35.27129,23.68924-64.36743,54.03013-84.62387a101.0398,101.0398,0,0,1,62.01406-17.339c1.517.06807,3.04381.16532,4.58031.30146,23.07658,1.99355,43.80953,10.71656,62.86983,23.60171a200.92629,200.92629,0,0,1,27.67634,22.61953,260.32671,260.32671,0,0,1,26.7525,30.691c1.91576,2.55758,3.88986,5.07627,6.09735,7.96448.86549-1.65319,1.48787-2.8007,2.08107-3.97738,7.14761-14.18826,15.91924-27.25818,27.25818-38.4318a109.337,109.337,0,0,1,23.93235-18.09757c18.23371-10.065,38.65547-13.68258,61.29444-10.61931,21.3845,2.88822,40.80461,11.02775,58.90218,22.28889q1.60457,1.0065,3.20913,2.04217a230.46469,230.46469,0,0,1,35.16432,28.07505,273.85906,273.85906,0,0,1,34.2502,40.70737,313.94164,313.94164,0,0,1,27.99725,49.18726,308.17345,308.17345,0,0,1,12.55452,32.34417q3.15079,9.67116,5.67919,19.61461c.62238,2.46033,1.31283,4.90122,2.15887,8.08118a320.36244,320.36244,0,0,1,20.56762-60.51647,301.519,301.519,0,0,1,44.218-70.25084,268.79415,268.79415,0,0,1,27.66662-28.27927,200.072,200.072,0,0,1,45.15153-30.1464c21.48174-10.3373,43.9554-16.24016,68.07252-13.60478a95.44131,95.44131,0,0,1,50.539,21.25807c.00972.00972.02917.01945.0389.02917,15.54971,12.59342,26.947,28.464,35.952,46.16289.66128,1.3031,1.42952,2.54786,2.25612,4.026.58348-.68073.87522-.97246,1.10861-1.29338q5.17837-7.19138,10.69711-14.08129a242.15116,242.15116,0,0,1,29.05724-30.62291c13.37139-11.7182,27.71524-21.58871,43.60531-28.55156a130.33081,130.33081,0,0,1,26.19819-8.35347c19.41039-3.9871,38.25676-2.8785,56.35432,3.69537a105.50205,105.50205,0,0,1,10.40537,4.415c26.13985,12.75873,44.32493,32.77205,55.95561,58.377q2.11511,4.60948,3.92876,9.4718c11.3,30.17557,11.88352,61.03188,4.64838,92.21881-.82659,3.58839-1.79906,7.13789-2.82015,11.18334,3.248-1.40035,5.90286-2.47006,8.48962-3.68564,38.78189-18.117,76.25095-38.461,110.754-64.00762,30.584-22.62925,58.2798-48.137,80.07273-79.56705a230.04722,230.04722,0,0,0,15.7351-26.08748" transform="translate(-105.60342 -116.96925)"/></g><g id="Layer_5" data-name="Layer 5"><path class="cls-22" d="M515.20411,1573.03636c-9.54167-4.52881-18.35463-8.63146-27.09838-12.87689a609.61192,609.61192,0,0,1-74.89462-42.82034,437.54849,437.54849,0,0,1-57.18042-45.48335c-20.7661-19.75029-38.94082-41.51368-52.87253-66.66578-16.92524-30.55671-25.46454-63.13068-23.19084-98.18012a170.508,170.508,0,0,1,11.91168-51.85c11.50836-29.12533,29.10979-54.228,50.42888-76.86674,30.19206-32.061,65.515-57.5069,103.44028-79.517a751.46766,751.46766,0,0,1,86.74871-42.71686,932.27977,932.27977,0,0,1,88.9713-32.03674c19.38087-5.90648,39.01974-10.96648,58.54434-16.401.38-.10577.777-.15062,1.87681-.35776-2.32329,2.02655-4.17817,3.5579-5.93759,5.19207-28.91431,26.85609-34.56562,64.80346-14.8839,99.34077,10.66153,18.70862,25.84136,32.93878,43.82886,44.35763,22.98063,14.58858,48.28332,23.07959,74.85327,28.20506,24.47165,4.72074,49.18886,6.12419,74.03594,5.33075a505.18019,505.18019,0,0,0,66.5666-6.92455c4.97714-.82541,7.2711-2.96556,9.28573-7.21128,18.449-38.88,31.305-79.61879,40.36441-121.58014,4.03678-18.69729,7.19186-37.58493,10.75516-56.38462a6.40086,6.40086,0,0,1,.54469-1.02892c.94847,1.43,1.76272,2.65027,2.56954,3.87549,6.98689,10.60886,14.02605,21.184,20.91913,31.85341,1.64593,2.5475,3.26722,3.39992,6.50161,2.807,17.33308-3.17733,34.86452-3.23321,52.38372-2.28582,8.16091.44131,16.291,1.5651,24.411,2.57349,2.12542.264,2.96093-.86372,3.88746-2.25041q8.36656-12.52122,16.73739-25.03954c2.48031-3.71129,4.95656-7.42524,7.7711-11.642.96236,5.58816,1.83873,10.75323,2.74258,15.91348,6.31151,36.03611,14.34789,71.6536,25.89334,106.4155a469.94179,469.94179,0,0,0,24.74944,60.49815,5.739,5.739,0,0,0,3.63142,2.62453,445.76224,445.76224,0,0,0,89.52905,7.94563c32.69171-.56361,64.72448-5.19069,95.45165-16.80048,23.95472-9.05089,45.68539-21.77323,63.06-40.95471,17.20524-18.99468,27.68453-40.80826,26.11221-67.10636-1.32221-22.11282-11.52389-39.79176-28.02221-54.13094-1.08081-.9394-2.16312-1.87732-3.22936-2.83322-.12476-.11192-.15067-.33426-.37321-.86469,9.11674,2.43257,18.01349,4.75238,26.88019,7.18181a1018.03631,1018.03631,0,0,1,102.92232,33.95681c48.36729,18.97591,94.90809,41.56626,138.133,70.625,27.39731,18.4184,52.87019,39.114,75.13354,63.58627,18.54473,20.3844,34.08767,42.81066,44.79288,68.29266,12.39875,29.51383,16.85659,60.15744,12.06873,92.0106-4.57185,30.41682-16.88528,57.60139-34.25892,82.65573-21.79182,31.42579-49.49317,56.93165-80.07192,79.56663-34.50227,25.53932-71.97673,45.88909-110.75162,64.00923-2.59184,1.211-5.24933,2.28082-8.49116,3.68212,1.02343-4.04459,1.98857-7.60007,2.82-11.18665,7.22844-31.18075,6.65206-62.0415-4.65462-92.2197-11.29781-30.15372-30.60369-53.55454-59.88036-67.84873-21.23571-10.36831-43.59971-12.85876-66.757-8.10664-26.86013,5.512-49.4623,19.07661-69.8103,36.90852-15.11235,13.2435-28.04354,28.42438-39.74822,44.69753-.23471.32623-.52426.61307-1.11236,1.29318-.82792-1.47393-1.58967-2.72392-2.25168-4.02469-9.0179-17.71936-20.42312-33.59642-35.99107-46.18821a95.46485,95.46485,0,0,0-50.54559-21.25915c-24.11522-2.637-46.58722,3.26343-68.07012,13.60319-28.75189,13.83839-52.29366,34.28491-72.81216,58.42416a301.23109,301.23109,0,0,0-44.21725,70.25059,320.04265,320.04265,0,0,0-20.56958,60.51473c-.852-3.17529-1.53619-5.61924-2.163-8.07791a310.86683,310.86683,0,0,0-46.22888-101.14886c-18.87107-27.20008-41.50921-50.71154-69.41531-68.78413-19.012-12.31257-39.44959-21.25971-62.11236-24.32718-33.12411-4.48349-61.50143,5.34536-85.22459,28.71689-11.34483,11.17666-20.11633,24.242-27.25791,38.43273-.5899,1.17229-1.21706,2.32581-2.0828,3.97568-2.208-2.8818-4.17761-5.40465-6.097-7.96518-15.41143-20.5588-33.04723-38.85924-54.42674-53.3077-19.06031-12.88114-39.79313-21.61077-62.87385-23.60557a101.34274,101.34274,0,0,0-66.58992,17.04012c-30.3401,20.25262-47.1722,49.35594-54.03182,84.62657-4.77528,24.55367-3.28648,48.92381,3.15516,73.03753C513.95873,1568.15356,514.45077,1570.11825,515.20411,1573.03636Z" transform="translate(-105.60342 -116.96925)"/></g><g id="Layer_6" data-name="Layer 6"><text class="cls-23" transform="translate(437.80967 1223.36571)"><tspan class="cls-24">E</tspan><tspan x="84.36621" y="0">TH 2.0 is he</tspan><tspan class="cls-25" x="879.35547" y="0">r</tspan><tspan class="cls-26" x="931.4834" y="0">e</tspan></text></g><g id="Layer_8" data-name="Layer 8"><path class="cls-8" d="M1656.46669,1298.3738l41.81531-27.74451a47.84347,47.84347,0,0,0,13.41725-66.31751l-196.60069-296.308a47.84416,47.84416,0,0,0-66.32021-13.41552L1406.963,922.33282a47.84346,47.84346,0,0,0-13.41275,66.31844l196.60069,296.308A47.84277,47.84277,0,0,0,1656.46669,1298.3738Z" transform="translate(-105.60342 -116.96925)"/><path class="cls-8" d="M1564.70882,982.77191l-121.54827,80.64743" transform="translate(-105.60342 -116.96925)"/><path class="cls-8" d="M1613.40006,1056.15721l-121.54827,80.64743" transform="translate(-105.60342 -116.96925)"/><path class="cls-8" d="M1503.93617,1023.09491l-76.05956-114.63363" transform="translate(-105.60342 -116.96925)"/><path class="cls-8" d="M1673.45979,1216.12278,1620.555,1136.387a24.24718,24.24718,0,0,0-33.60943-6.79865l-17.15451,11.382a24.24788,24.24788,0,0,0-6.80132,33.61123l52.90476,79.73574" transform="translate(-105.60342 -116.96925)"/><path class="cls-9" d="M1615.8964,1254.3181a34.542,34.542,0,1,1,47.88,9.68535,34.54258,34.54258,0,0,1-47.88-9.68535" transform="translate(-105.60342 -116.96925)"/><circle class="cls-13" cx="1644.67905" cy="1235.222" r="34.54196" transform="translate(-514.29959 998.28295) rotate(-33.56432)"/><path class="cls-18" d="M1714.31946,1223.90906c-3.06616-2.42212-5.934-4.98395-8.74-7.58936-2.816-2.59839-5.52454-5.27258-8.20483-7.96661-5.33484-5.40619-10.41614-10.99109-15.35669-16.67523-9.86841-11.37714-19.01221-23.265-27.66394-35.49951a448.66142,448.66142,0,0,1-24.15088-37.9754c-3.69434-6.56238-7.24451-13.22632-10.53809-20.07117-1.63257-3.43243-3.23865-6.88355-4.73535-10.41168-1.50745-3.52063-2.95142-7.086-4.19568-10.79205,3.07178,2.41815,5.94385,4.977,8.75256,7.5805,2.81921,2.59613,5.5293,5.26923,8.21277,7.961,5.33862,5.40357,10.42053,10.988,15.35828,16.67413a448.62157,448.62157,0,0,1,27.64185,35.51508c8.61255,12.26227,16.73291,24.87128,24.12878,37.991,3.69165,6.56427,7.24243,13.22785,10.53967,20.07,1.63574,3.43017,3.24341,6.88019,4.74341,10.40607C1711.62134,1216.64459,1713.06946,1220.207,1714.31946,1223.90906Z" transform="translate(-105.60342 -116.96925)"/><path class="cls-18" d="M1596.85669,1056.6781a174.87954,174.87954,0,0,1-12.12134-13.79877q-5.7096-7.14679-10.96155-14.616-5.265-7.46018-10.084-15.23456a172.65238,172.65238,0,0,1-8.91321-16.05969,172.70518,172.70518,0,0,1,12.12683,13.79486q5.709,7.14706,10.95605,14.61993,5.25659,7.46613,10.07849,15.23846A174.88024,174.88024,0,0,1,1596.85669,1056.6781Z" transform="translate(-105.60342 -116.96925)"/><path class="cls-18" d="M1544.10523,977.407c-5.16626-5.52289-9.9054-11.34686-14.54639-17.23993q-6.9223-8.86725-13.38684-18.05713-6.47754-9.18073-12.509-18.67566c-3.99146-6.351-7.87952-12.77466-11.33838-19.50085,5.17114,5.51941,9.91321,11.34131,14.552,17.236q6.92157,8.8678,13.38123,18.06116,6.46912,9.18658,12.50354,18.67957C1536.75049,964.2627,1540.64148,970.68433,1544.10523,977.407Z" transform="translate(-105.60342 -116.96925)"/><g id="Logo_Slogan" data-name="Logo &amp; Slogan"><polygon class="cls-27" points="958.518 991.586 964.319 1003.014 959.918 1021.704 949.436 1013.14 951.273 999.431 958.518 991.586"/><path class="cls-28" d="M1048.63685,1102.54053" transform="translate(-105.60342 -116.96925)"/><path class="cls-29" d="M1048.63675,1104.72535a2.18514,2.18514,0,0,1-2.18491-2.18491v-17.22089a2.18491,2.18491,0,1,1,4.36982,0v17.22089A2.18514,2.18514,0,0,1,1048.63675,1104.72535Z" transform="translate(-105.60342 -116.96925)"/><line class="cls-27" x1="939.78494" y1="985.57128" x2="946.5383" y2="985.57128"/><path class="cls-29" d="M1052.14183,1104.72535h-6.75335a2.18491,2.18491,0,0,1,0-4.36982h6.75335a2.18491,2.18491,0,0,1,0,4.36982Z" transform="translate(-105.60342 -116.96925)"/><path class="cls-27" d="M1064.12189,1108.55487l7.17941-6.76679a30.3589,30.3589,0,1,0-21.467,51.82588c6.2497,0,11.74616,2.28149,16.5742-.95592l6.00852.8314-.17187-9.75443-17.2061-13.62541h0l3.69909-17.422,5.38372-4.1327" transform="translate(-105.60342 -116.96925)"/><path class="cls-29" d="M1049.83434,1156.59326a33.33828,33.33828,0,1,1,23.57389-56.91159l2.16978,2.16978-9.41233,8.87153-4.08739-4.33645,4.82294-4.54517a27.38091,27.38091,0,1,0-17.06688,48.79305" transform="translate(-105.60342 -116.96925)"/><path class="cls-30" d="M1066.56836,1139.4678l-4.27981-4.14636a17.34068,17.34068,0,0,0-.3732-24.50612l-2.23224-2.16823,2.394-2.25939,2.03943,2.16124,1.95059-2.008a23.29971,23.29971,0,0,1,.50122,32.92686Z" transform="translate(-105.60342 -116.96925)"/><path class="cls-29" d="M1064.42826,1137.39453" transform="translate(-105.60342 -116.96925)"/><circle class="cls-31" cx="944.2309" cy="1006.28581" r="6.85452"/><path class="cls-29" d="M1049.83434,1133.08882a9.83383,9.83383,0,1,1,9.834-9.83364A9.84508,9.84508,0,0,1,1049.83434,1133.08882Zm0-13.70883a3.875,3.875,0,1,0,3.87519,3.87519A3.87955,3.87955,0,0,0,1049.83434,1119.38Z" transform="translate(-105.60342 -116.96925)"/><line class="cls-29" x1="965.69788" y1="984.81883" x2="948.37367" y2="1000.82573"/><rect class="cls-29" x="1050.84586" y="1106.81203" width="23.58678" height="5.95901" transform="translate(-576.58911 898.83305) rotate(-42.73638)"/><polyline class="cls-27" points="947.465 1012.33 959.918 1021.704 966.642 1026.766 966.642 1039.624 953.135 1038.973"/><polygon class="cls-29" points="969.621 1039.624 943.69 1039.624 943.69 1033.665 963.662 1033.665 963.662 1028.252 945.673 1014.711 949.257 1009.95 969.621 1025.279 969.621 1039.624"/><path class="cls-29" d="M1064.70033,1137.6147" transform="translate(-105.60342 -116.96925)"/><path class="cls-29" d="M1038.29451,1110.73967a2.18514,2.18514,0,0,1-2.18491-2.18491v-23.23521a2.18491,2.18491,0,1,1,4.36982,0v23.23521A2.18514,2.18514,0,0,1,1038.29451,1110.73967Z" transform="translate(-105.60342 -116.96925)"/></g><g id="Logo_Slogan-2" data-name="Logo &amp; Slogan"><polygon class="cls-18" points="958.518 991.586 964.319 1003.014 959.918 1021.704 949.436 1013.14 951.273 999.431 958.518 991.586"/><path class="cls-32" d="M1048.63685,1102.54053" transform="translate(-105.60342 -116.96925)"/><path class="cls-7" d="M1048.63675,1104.72535a2.18514,2.18514,0,0,1-2.18491-2.18491v-17.22089a2.18491,2.18491,0,1,1,4.36982,0v17.22089A2.18514,2.18514,0,0,1,1048.63675,1104.72535Z" transform="translate(-105.60342 -116.96925)"/><line class="cls-18" x1="939.78494" y1="985.57128" x2="946.5383" y2="985.57128"/><path class="cls-7" d="M1052.14183,1104.72535h-6.75335a2.18491,2.18491,0,0,1,0-4.36982h6.75335a2.18491,2.18491,0,0,1,0,4.36982Z" transform="translate(-105.60342 -116.96925)"/><path class="cls-18" d="M1064.12189,1108.55487l7.17941-6.76679a30.3589,30.3589,0,1,0-21.467,51.82588c6.2497,0,11.74616,2.28149,16.5742-.95592l6.00852.8314-.17187-9.75443-17.2061-13.62541h0l3.69909-17.422,5.38372-4.1327" transform="translate(-105.60342 -116.96925)"/><path class="cls-7" d="M1049.83434,1156.59326a33.33828,33.33828,0,1,1,23.57389-56.91159l2.16978,2.16978-9.41233,8.87153-4.08739-4.33645,4.82294-4.54517a27.38091,27.38091,0,1,0-17.06688,48.79305" transform="translate(-105.60342 -116.96925)"/><path class="cls-16" d="M1066.56836,1139.4678l-4.27981-4.14636a17.34068,17.34068,0,0,0-.3732-24.50612l-2.23224-2.16823,2.394-2.25939,2.03943,2.16124,1.95059-2.008a23.29971,23.29971,0,0,1,.50122,32.92686Z" transform="translate(-105.60342 -116.96925)"/><path class="cls-7" d="M1064.42826,1137.39453" transform="translate(-105.60342 -116.96925)"/><circle class="cls-11" cx="944.2309" cy="1006.28581" r="6.85452"/><path class="cls-7" d="M1049.83434,1133.08882a9.83383,9.83383,0,1,1,9.834-9.83364A9.84508,9.84508,0,0,1,1049.83434,1133.08882Zm0-13.70883a3.875,3.875,0,1,0,3.87519,3.87519A3.87955,3.87955,0,0,0,1049.83434,1119.38Z" transform="translate(-105.60342 -116.96925)"/><line class="cls-7" x1="965.69788" y1="984.81883" x2="948.37367" y2="1000.82573"/><rect class="cls-7" x="1050.84586" y="1106.81203" width="23.58678" height="5.95901" transform="translate(-576.58911 898.83305) rotate(-42.73638)"/><polyline class="cls-18" points="947.465 1012.33 959.918 1021.704 966.642 1026.766 966.642 1039.624 953.135 1038.973"/><polygon class="cls-7" points="969.621 1039.624 943.69 1039.624 943.69 1033.665 963.662 1033.665 963.662 1028.252 945.673 1014.711 949.257 1009.95 969.621 1025.279 969.621 1039.624"/><path class="cls-7" d="M1064.70033,1137.6147" transform="translate(-105.60342 -116.96925)"/><path class="cls-7" d="M1038.29451,1110.73967a2.18514,2.18514,0,0,1-2.18491-2.18491v-23.23521a2.18491,2.18491,0,1,1,4.36982,0v23.23521A2.18514,2.18514,0,0,1,1038.29451,1110.73967Z" transform="translate(-105.60342 -116.96925)"/></g></g></svg>