<svg id="Layer_1" data-name="Layer 1" xmlns="http://www.w3.org/2000/svg" xmlns:xlink="http://www.w3.org/1999/xlink" viewBox="0 0 59.9917 89.8911"><defs><style>.cls-1{fill:#a7a9ac;stroke:#a7a9ac;stroke-miterlimit:10;stroke-width:3px;}.cls-2,.cls-9{fill:none;stroke-linecap:round;stroke-linejoin:round;}.cls-2{stroke:#25e899;stroke-width:2px;}.cls-3{fill:#25e899;}.cls-4{fill:#d6d6ea;}.cls-5{fill:#0e2947;}.cls-6{fill:url(#New_Gradient_Swatch_15);}.cls-7{fill:url(#radial-gradient);}.cls-8{fill:#fff;}.cls-9{stroke:#0e2947;}.cls-10{fill:#ed1c24;opacity:0.2;}.cls-11{fill:#150a3a;}.cls-12{fill:#edf3ed;}.cls-13{fill:#002446;}.cls-14{fill:#00e895;}.cls-15{fill:#00ce78;}.cls-16{fill:#211672;}</style><linearGradient id="New_Gradient_Swatch_15" x1="45.587" y1="47.4974" x2="65.1766" y2="47.4974" gradientUnits="userSpaceOnUse"><stop offset="0" stop-color="#ff6d96"/><stop offset="1" stop-color="#fd8073"/></linearGradient><radialGradient id="radial-gradient" cx="59.8746" cy="42.4048" r="3.2573" gradientUnits="userSpaceOnUse"><stop offset="0" stop-color="#fff"/><stop offset="1" stop-color="#f1f2f2"/></radialGradient></defs><title>bot</title><path class="cls-1" d="M83.5965,74.5817a1.4957,1.4957,0,0,0-.3984-.9551,6.4489,6.4489,0,0,0-.6042-.552,14.946,14.946,0,0,0-10.21-11.2126L73.7256,56.58h1.4422a4.3481,4.3481,0,0,0,4.3428-4.3438V44.8605a4.349,4.349,0,0,0-3.459-4.25V23.6222a1.4351,1.4351,0,1,0-2.87,0V36.8147a20.5086,20.5086,0,0,0-35.3833-.0042v-8.05a1.4361,1.4361,0,1,0-2.8721,0v11.87a4.3431,4.3431,0,0,0-3.3882,4.23V52.236A4.3449,4.3449,0,0,0,35.8748,56.58H37.277L38.58,61.7553A14.93,14.93,0,0,0,28.2238,72.0337c-.3241-.065-.6009.1881-1.161.7443a1.5479,1.5479,0,0,0-.41.9853,7.7757,7.7757,0,0,0-.02.9034l.0772,4.459a4.75,4.75,0,0,0,.2046,1.5419l0,.001a1.9227,1.9227,0,0,0,1.1684,1.2237,1.4383,1.4383,0,0,0,.2762.0844l.5595.1519a14.9887,14.9887,0,0,0,3.8462,5.233L53.913,108.5107a1.9261,1.9261,0,0,0,2.7238,0L77.785,87.3616a15.0068,15.0068,0,0,0,3.6211-4.7431l.5958-.1619a1.4165,1.4165,0,0,0,.2281-.0739,1.8669,1.8669,0,0,0,1.1155-1.177,4.5525,4.5525,0,0,0,.1973-1.4843l.0742-4.2706A7.6016,7.6016,0,0,0,83.5965,74.5817Z" transform="translate(-25.1284 -20.6838)"/><line class="cls-2" x1="18.9605" y1="56.5909" x2="40.2933" y2="56.5909"/><polygon id="Shape" class="cls-3" points="14.058 37.401 44.137 37.401 46.688 38.363 44.771 45.133 15.95 45.133 14.058 37.401"/><path id="Shape-2" data-name="Shape" class="cls-4" d="M65.8255,74.3022H45.151a4.0747,4.0747,0,0,1-4.0722-4.0753v-4.41h28.82v4.41a4.0761,4.0761,0,0,1-4.0738,4.0753" transform="translate(-25.1284 -20.6838)"/><polygon class="cls-4" points="11.575 21.272 7.991 22.254 7.491 31.754 10.285 34.754 13.661 34.456 14.575 37.504 47.128 37.294 48.075 34.42 51.325 33.837 53.491 31.42 53.491 22.754 49.203 20.335 46.325 16.335 42.575 11.254 34.491 7.67 27.741 7.14 21.658 9.254 15.768 14.266 11.741 20.92 11.575 21.272"/><path id="Shape-3" data-name="Shape" class="cls-5" d="M65.8255,75.2375H45.151a5.0177,5.0177,0,0,1-5.009-5.0106v-5.35H70.8345v5.35A5.0178,5.0178,0,0,1,65.8255,75.2375Zm-23.81-8.4855v3.4749a3.1406,3.1406,0,0,0,3.1354,3.137H65.8255a3.1409,3.1409,0,0,0,3.137-3.137V66.752Z" transform="translate(-25.1284 -20.6838)"/><path class="cls-6" d="M55.3779,41.9754c.21-.3608.3778-.6887.5815-.9924a5.0684,5.0684,0,0,1,5.436-2.1478,4.7982,4.7982,0,0,1,3.6933,4.0977,6.3758,6.3758,0,0,1-1.2269,4.8257,20.3724,20.3724,0,0,1-3.2647,3.3871,43.6147,43.6147,0,0,0-4.9985,4.9931c-.1711.2172-.267.2065-.4316-.0006a52.2783,52.2783,0,0,0-5.8219-5.74,14.03,14.03,0,0,1-2.8223-3.2416,5.9261,5.9261,0,0,1-.2951-5.8667A4.7048,4.7048,0,0,1,51.19,38.7581C53.2479,39.0938,54.0735,39.7209,55.3779,41.9754Z" transform="translate(-25.1284 -20.6838)"/><path class="cls-5" d="M50.4381,38.6972a4.6645,4.6645,0,0,1,.7521.0609c2.0577.3357,2.8833.9628,4.1877,3.2173.21-.3609.3778-.6886.5814-.9924a5.02,5.02,0,0,1,4.23-2.281,5.616,5.616,0,0,1,1.2056.1332,4.7982,4.7982,0,0,1,3.6933,4.0977,6.3758,6.3758,0,0,1-1.2269,4.8257,20.3768,20.3768,0,0,1-3.2647,3.3872,43.6058,43.6058,0,0,0-4.9985,4.993c-.0844.1071-.1505.1588-.2156.1588-.0669,0-.1326-.0545-.216-.1594a52.2783,52.2783,0,0,0-5.8219-5.74,14.0268,14.0268,0,0,1-2.8222-3.2416,5.9256,5.9256,0,0,1-.2951-5.8667,4.6961,4.6961,0,0,1,4.21-2.5931m0-2h0a6.7143,6.7143,0,0,0-6.0068,3.7136,7.9361,7.9361,0,0,0,.358,7.7439,15.86,15.86,0,0,0,3.2023,3.7165c.4025.37.809.736,1.2155,1.102a37.5365,37.5365,0,0,1,4.394,4.4094,2.1927,2.1927,0,0,0,3.5683-.0061,34.45,34.45,0,0,1,4.018-4.0636l.7606-.6926.4809-.4368a18.684,18.684,0,0,0,3.0845-3.2973,8.2734,8.2734,0,0,0,1.5455-6.2957,6.7579,6.7579,0,0,0-5.2344-5.7087,7.6331,7.6331,0,0,0-1.6349-.18,6.9584,6.9584,0,0,0-4.8062,1.8857,6.4316,6.4316,0,0,0-3.8713-1.8035,6.6921,6.6921,0,0,0-1.0739-.087Z" transform="translate(-25.1284 -20.6838)"/><path id="Shape-4" data-name="Shape" class="cls-5" d="M70.6262,66.752H40.3518L35.4261,47.3585V47.24a20.0629,20.0629,0,0,1,40.1258,0v.1185l-.0289.1137ZM41.809,64.8769h27.36L73.68,47.1231a18.1913,18.1913,0,0,0-36.3818,0Z" transform="translate(-25.1284 -20.6838)"/><path id="Shape-5" data-name="Shape" class="cls-5" d="M36.3613,47.9a.9363.9363,0,0,1-.9352-.9351V28.7609a.936.936,0,1,1,1.872,0V46.9647a.9366.9366,0,0,1-.9368.9351" transform="translate(-25.1284 -20.6838)"/><path id="Shape-6" data-name="Shape" class="cls-5" d="M74.6167,47.9a.9352.9352,0,0,1-.9351-.9351V23.6222a.9352.9352,0,1,1,1.87,0V46.9647a.9363.9363,0,0,1-.9352.9351" transform="translate(-25.1284 -20.6838)"/><path id="Shape-7" data-name="Shape" class="cls-5" d="M37.8505,56.0793H35.8746a3.8448,3.8448,0,0,1-3.8368-3.8432V44.8605a3.8434,3.8434,0,0,1,3.8368-3.8416h.8391a.9352.9352,0,0,1,0,1.87h-.8391a1.972,1.972,0,0,0-1.9665,1.9713v7.3756a1.9682,1.9682,0,0,0,1.9665,1.968h1.9759a.9376.9376,0,1,1,0,1.8752" transform="translate(-25.1284 -20.6838)"/><polygon class="cls-3" points="13.563 33.871 47.128 32.934 45.104 40.007 15.95 40.007 13.563 33.871"/><path id="Shape-8" data-name="Shape" class="cls-5" d="M75.1675,56.0793H73.1931a.9376.9376,0,0,1,0-1.8752h1.9744a1.9713,1.9713,0,0,0,1.9713-1.968V44.8605a1.9751,1.9751,0,0,0-1.9713-1.9713h-.8358a.9352.9352,0,0,1,0-1.87h.8358a3.8479,3.8479,0,0,1,3.8432,3.8416v7.3756a3.8494,3.8494,0,0,1-3.8432,3.8432" transform="translate(-25.1284 -20.6838)"/><path id="Shape-9" data-name="Shape" class="cls-5" d="M36.5662,44.9774a.9264.9264,0,0,1-.6516-.2659.9362.9362,0,0,1-.0177-1.3243,27.6661,27.6661,0,0,1,38.9409-.8343.9369.9369,0,0,1-1.2828,1.3659,25.787,25.787,0,0,0-36.3194.7768.9327.9327,0,0,1-.6694.2818" transform="translate(-25.1284 -20.6838)"/><path id="Shape-10" data-name="Shape" class="cls-5" d="M72.7062,54.5545H38.73a.9367.9367,0,1,1,0-1.872H72.7062a.9367.9367,0,1,1,0,1.872" transform="translate(-25.1284 -20.6838)"/><path id="Shape-11" data-name="Shape" class="cls-7" d="M61.5594,42.4049a2.3515,2.3515,0,1,1-2.352-2.3509,2.3524,2.3524,0,0,1,2.352,2.3509" transform="translate(-25.1284 -20.6838)"/><path id="Shape-12" data-name="Shape" class="cls-8" d="M63.2394,45.92a.9518.9518,0,1,1-.9518-.9519.95.95,0,0,1,.9518.9519" transform="translate(-25.1284 -20.6838)"/><path class="cls-5" d="M55.3818,38.6972a14.263,14.263,0,0,1,4.3094-1.5792c1.6433-.11-5.1661-.7638-6.9883-.1544C51.4536,37.3814,54.0274,37.325,55.3818,38.6972Z" transform="translate(-25.1284 -20.6838)"/><path class="cls-9" d="M43.2291,56.8628a14.9133,14.9133,0,0,0,24.3293-1.16" transform="translate(-25.1284 -20.6838)"/><path class="cls-10" d="M39.2781,52.6825a3.5969,3.5969,0,0,1,7.1937,0" transform="translate(-25.1284 -20.6838)"/><path class="cls-10" d="M64.1766,52.6825a3.5968,3.5968,0,0,1,7.1936,0" transform="translate(-25.1284 -20.6838)"/><path id="_Caminho_composto_" data-name="&lt;Caminho composto&gt;" class="cls-11" d="M82.9081,76.1251A14.9124,14.9124,0,0,0,55.2749,68.331a14.9121,14.9121,0,1,0-22.51,19.0306L53.913,108.5107a1.9261,1.9261,0,0,0,2.7238,0L77.785,87.3616A14.8693,14.8693,0,0,0,82.9081,76.1251Z" transform="translate(-25.1284 -20.6838)"/><path id="Shape-13" data-name="Shape" class="cls-12" d="M79.1028,76.0426l2.6758.1682a.68.68,0,0,0,.72-.6353L82.535,75a.679.679,0,0,0-.6345-.7208l-2.676-.1679" transform="translate(-25.1284 -20.6838)"/><path id="Shape-14" data-name="Shape" class="cls-13" d="M78.8305,76.026a.2724.2724,0,0,0,.2549.2885l2.676.1678a.9532.9532,0,0,0,1.01-.89l.0356-.5754a.9513.9513,0,0,0-.89-1.0094l-2.6751-.1685a.2728.2728,0,0,0-.0347.5445l2.6762.1675a.4076.4076,0,0,1,.38.4315l-.0358.5764a.4069.4069,0,0,1-.4314.38L79.12,75.7708a.273.273,0,0,0-.2891.2552" transform="translate(-25.1284 -20.6838)"/><path id="Shape-15" data-name="Shape" class="cls-14" d="M79.1031,76.0421a.9671.9671,0,1,1,1.027-.9044.9664.9664,0,0,1-1.027.9044" transform="translate(-25.1284 -20.6838)"/><path id="Shape-16" data-name="Shape" class="cls-13" d="M77.9262,75a1.24,1.24,0,1,1,1.16,1.3151A1.2416,1.2416,0,0,1,77.9262,75m1.9313.1208a.6953.6953,0,1,0-.7379.65.6949.6949,0,0,0,.7379-.65" transform="translate(-25.1284 -20.6838)"/><path id="Shape-17" data-name="Shape" class="cls-12" d="M78.8682,78.8153l2.6758.1682a.68.68,0,0,0,.72-.6352l.0361-.5751a.6791.6791,0,0,0-.6345-.7209l-2.676-.1679" transform="translate(-25.1284 -20.6838)"/><path id="Shape-18" data-name="Shape" class="cls-13" d="M78.5959,78.7987a.2722.2722,0,0,0,.2549.2885l2.676.1678a.953.953,0,0,0,1.01-.89l.0357-.5753a.9515.9515,0,0,0-.89-1.01l-2.6752-.1684a.2728.2728,0,0,0-.0346.5445l2.6762.1674a.4077.4077,0,0,1,.38.4315l-.0358.5764a.4069.4069,0,0,1-.4315.38l-2.6764-.168a.2729.2729,0,0,0-.2891.2551" transform="translate(-25.1284 -20.6838)"/><path id="Shape-19" data-name="Shape" class="cls-14" d="M78.8684,78.8149a.9672.9672,0,1,1,1.027-.9045.9664.9664,0,0,1-1.027.9045" transform="translate(-25.1284 -20.6838)"/><path id="Shape-20" data-name="Shape" class="cls-13" d="M77.6916,77.7723a1.24,1.24,0,1,1,1.16,1.3151,1.2414,1.2414,0,0,1-1.16-1.3151m1.9313.1209a.6953.6953,0,1,0-.7379.65.6948.6948,0,0,0,.7379-.65" transform="translate(-25.1284 -20.6838)"/><path id="Shape-21" data-name="Shape" class="cls-12" d="M78.9051,81.588l2.6758.1683a.68.68,0,0,0,.72-.6353l.0361-.5751a.6791.6791,0,0,0-.6345-.7209l-2.676-.1678" transform="translate(-25.1284 -20.6838)"/><path id="Shape-22" data-name="Shape" class="cls-13" d="M78.6328,81.5714a.2724.2724,0,0,0,.2549.2886l2.676.1678a.9531.9531,0,0,0,1.01-.89l.0357-.5753a.9513.9513,0,0,0-.89-1.0094l-2.6752-.1685a.2728.2728,0,0,0-.0346.5445l2.6762.1674a.4076.4076,0,0,1,.38.4316l-.0357.5764a.407.407,0,0,1-.4315.38l-2.6764-.1681a.273.273,0,0,0-.2891.2551" transform="translate(-25.1284 -20.6838)"/><path id="Shape-23" data-name="Shape" class="cls-14" d="M78.9053,81.5876a.9671.9671,0,1,1,1.027-.9044.9664.9664,0,0,1-1.027.9044" transform="translate(-25.1284 -20.6838)"/><path id="Shape-24" data-name="Shape" class="cls-13" d="M77.7285,80.5451a1.24,1.24,0,1,1,1.16,1.3151,1.2415,1.2415,0,0,1-1.16-1.3151m1.9313.1208a.6953.6953,0,1,0-.7379.65.6948.6948,0,0,0,.7379-.65" transform="translate(-25.1284 -20.6838)"/><path class="cls-13" d="M82.875,81.0364a4.11,4.11,0,0,0,.1681-1.3241l.0738-4.27a7.0128,7.0128,0,0,0-.0172-.81,1.0433,1.0433,0,0,0-.2542-.6507c-.8334-.8293-.7749-.7384-.7043-.059.016.1549.0227.3854.0458.5395a20.9707,20.9707,0,0,1-.0458,2.4207c-.0021,1.6193.002,2.2052,0,3.8245,0,.26.1078,1.0548-.116,1.2258A1.3833,1.3833,0,0,0,82.875,81.0364Z" transform="translate(-25.1284 -20.6838)"/><path id="Shape-25" data-name="Shape" class="cls-12" d="M31.3235,75.2852l-2.7939.1757a.71.71,0,0,1-.752-.6633l-.0377-.6a.709.709,0,0,1,.6625-.7527l2.7941-.1753" transform="translate(-25.1284 -20.6838)"/><path id="Shape-26" data-name="Shape" class="cls-13" d="M31.6079,75.2679a.2843.2843,0,0,1-.2662.3012l-2.7941.1753a.9953.9953,0,0,1-1.0548-.9293l-.0373-.6007a.9934.9934,0,0,1,.93-1.054l2.7933-.1759a.2848.2848,0,0,1,.0362.5685l-2.7944.1749a.4255.4255,0,0,0-.3967.45l.0373.6019a.4248.4248,0,0,0,.45.3966l2.7946-.1754a.285.285,0,0,1,.3019.2664" transform="translate(-25.1284 -20.6838)"/><path id="Shape-27" data-name="Shape" class="cls-14" d="M31.3233,75.2848A1.01,1.01,0,1,0,30.251,74.34a1.0091,1.0091,0,0,0,1.0723.9444" transform="translate(-25.1284 -20.6838)"/><path id="Shape-28" data-name="Shape" class="cls-13" d="M32.5521,74.1962a1.2945,1.2945,0,1,1-1.374-1.2115,1.2961,1.2961,0,0,1,1.374,1.2115m-2.0165.1262a.726.726,0,1,0,.6791-.7694.7272.7272,0,0,0-.6791.7694" transform="translate(-25.1284 -20.6838)"/><path id="Shape-29" data-name="Shape" class="cls-12" d="M31.5685,78.18l-2.7939.1756a.71.71,0,0,1-.7521-.6633l-.0376-.6a.7091.7091,0,0,1,.6624-.7527l2.7942-.1753" transform="translate(-25.1284 -20.6838)"/><path id="Shape-30" data-name="Shape" class="cls-13" d="M31.8529,78.163a.2845.2845,0,0,1-.2662.3013l-2.7942.1752a.9952.9952,0,0,1-1.0548-.9292l-.0372-.6008a.9932.9932,0,0,1,.93-1.0539l2.7933-.1759a.2848.2848,0,0,1,.0361.5685l-2.7943.1748a.4256.4256,0,0,0-.3967.4506l.0373.6018a.4249.4249,0,0,0,.45.3967l2.7946-.1755a.285.285,0,0,1,.3019.2664" transform="translate(-25.1284 -20.6838)"/><path id="Shape-31" data-name="Shape" class="cls-14" d="M31.5683,78.18a1.01,1.01,0,1,0-1.0723-.9444,1.0091,1.0091,0,0,0,1.0723.9444" transform="translate(-25.1284 -20.6838)"/><path id="Shape-32" data-name="Shape" class="cls-13" d="M32.7971,77.0913a1.2945,1.2945,0,1,1-1.374-1.2114,1.2961,1.2961,0,0,1,1.374,1.2114m-2.0166.1262a.726.726,0,1,0,.6791-.7693.7273.7273,0,0,0-.6791.7693" transform="translate(-25.1284 -20.6838)"/><path id="Shape-33" data-name="Shape" class="cls-12" d="M31.53,81.0755l-2.7939.1757a.71.71,0,0,1-.7521-.6633l-.0377-.6005a.7091.7091,0,0,1,.6625-.7527l2.7941-.1753" transform="translate(-25.1284 -20.6838)"/><path id="Shape-34" data-name="Shape" class="cls-13" d="M31.8144,81.0582a.2843.2843,0,0,1-.2662.3012l-2.7942.1753a.9953.9953,0,0,1-1.0548-.9293l-.0372-.6007a.9934.9934,0,0,1,.93-1.054l2.7932-.1759a.2848.2848,0,0,1,.0362.5685l-2.7943.1749a.4255.4255,0,0,0-.3968.4505l.0373.6019a.4251.4251,0,0,0,.4506.3967l2.7946-.1755a.285.285,0,0,1,.3019.2664" transform="translate(-25.1284 -20.6838)"/><path id="Shape-35" data-name="Shape" class="cls-14" d="M31.53,81.0751a1.01,1.01,0,1,0-1.0724-.9444,1.009,1.009,0,0,0,1.0724.9444" transform="translate(-25.1284 -20.6838)"/><path id="Shape-36" data-name="Shape" class="cls-13" d="M32.7586,79.9865a1.2945,1.2945,0,1,1-1.3741-1.2115,1.2961,1.2961,0,0,1,1.3741,1.2115m-2.0166.1262a.726.726,0,1,0,.6791-.7694.7273.7273,0,0,0-.6791.7694" transform="translate(-25.1284 -20.6838)"/><path class="cls-13" d="M27.3848,80.5a4.2923,4.2923,0,0,1-.1755-1.3826l-.077-4.459a7.3166,7.3166,0,0,1,.0179-.8456,1.0887,1.0887,0,0,1,.2655-.6794c.87-.866.809-.7711.7354-.0617-.0168.1618-.0238.4025-.0479.5634a21.9028,21.9028,0,0,0,.0479,2.5276c.0022,1.6907-.0022,2.3025,0,3.9933,0,.2717-.1127,1.1014.121,1.28A1.4447,1.4447,0,0,1,27.3848,80.5Z" transform="translate(-25.1284 -20.6838)"/><path class="cls-15" d="M57.9693,100.1358l-.4363-.181a1.3839,1.3839,0,0,0-.7294-1.764l-.2494-.1035.1035-.2493.187.0776.0776-.187a1.8435,1.8435,0,0,1,.9774.99,1.8875,1.8875,0,0,1,.07,1.4171" transform="translate(-25.1284 -20.6838)"/><path class="cls-8" d="M58.4328,101.1319l-1.4994.62a2.4357,2.4357,0,0,1-1.86-4.4982,2.3324,2.3324,0,0,1,1.5677-.08l-.5949,1.4337c-.0882.0365-.2128-.0152-.3269.0836a.859.859,0,1,0,.6565,1.5876c.0882-.0365.1764-.073.2022-.1353l1.6725.5478Zm-2.3276-1.2581a.3341.3341,0,1,1,.1811-.4363A.3261.3261,0,0,1,56.1052,99.8738Zm.6479-.681a.583.583,0,0,0-.2964-.3422l.3621-.8727h0l.44-1.06-.2493-.1034a2.8027,2.8027,0,0,0-3.67,3.738,2.94,2.94,0,0,0,3.6884,1.6766h0l2.0286-.8388-.4741-1.1466-1.823-.5372A.7291.7291,0,0,0,56.7531,99.1928Z" transform="translate(-25.1284 -20.6838)"/><path class="cls-14" d="M57.35,95.641l-.1035.2493-.2493-.1034.1034-.2494Zm-1.3854.5212-.1034.2493-.2494-.1034.1035-.2494Zm.6267-.9821a.1909.1909,0,1,0-.1034.2493.2053.2053,0,0,0,.1034-.2493" transform="translate(-25.1284 -20.6838)"/><path class="cls-8" d="M54.79,98.8168a.2053.2053,0,0,1-.2493-.1035l-.8024-1.94a.1909.1909,0,1,1,.3528-.1459l.8024,1.94c.0106.15-.0153.2129-.1035.2494m.72-1.382-.3283-.7938a.1909.1909,0,0,0-.3528.1458l.3283.7938a1.0161,1.0161,0,0,1,.3528-.1458" transform="translate(-25.1284 -20.6838)"/><path class="cls-16" d="M38.7034,80.2653V73.8962h4.0259v.6084H39.428v2.2177H42.55V77.34H39.428v2.3174h3.3013v.6084Z" transform="translate(-25.1284 -20.6838)"/><path class="cls-16" d="M45.3953,80.2653V74.5221H43.1766v-.6259h5.18v.6259H46.1375v5.7432Z" transform="translate(-25.1284 -20.6838)"/><path class="cls-16" d="M49.2508,80.2653V73.8962h.7246v6.3691Zm.34-2.9258v-.6172h4.6162V77.34Zm4.2051,2.9258V73.8962h.7334v6.3691Z" transform="translate(-25.1284 -20.6838)"/><path class="cls-16" d="M58.3934,80.2653v-.5547L60.62,77.2419a4.4335,4.4335,0,0,0,.6534-.9043,1.7572,1.7572,0,0,0,.206-.8047,1.0481,1.0481,0,0,0-.3047-.81,1.2309,1.2309,0,0,0-.8672-.2822,2.3929,2.3929,0,0,0-.9131.1836,3.514,3.514,0,0,0-.8935.5508l-.2774-.5645a2.7594,2.7594,0,0,1,.9473-.5723,3.2813,3.2813,0,0,1,1.1543-.2148,2.3407,2.3407,0,0,1,1.0068.2012,1.5222,1.5222,0,0,1,.6573.5771,1.6658,1.6658,0,0,1,.2324.8945,2.3737,2.3737,0,0,1-.2461,1.0518A5.01,5.01,0,0,1,61.157,77.68L59.01,80.0055l-.0537-.3574H62.49v.6172Z" transform="translate(-25.1284 -20.6838)"/><path class="cls-16" d="M63.59,79.3434h.9218v.9219H63.59Z" transform="translate(-25.1284 -20.6838)"/><path class="cls-16" d="M67.7674,80.3366a1.8851,1.8851,0,0,1-1.6592-.8272,5.4951,5.4951,0,0,1-.0049-4.8574,2.0861,2.0861,0,0,1,3.3282,0,5.4848,5.4848,0,0,1-.0049,4.8526A1.8815,1.8815,0,0,1,67.7674,80.3366Zm0-.6172a1.2022,1.2022,0,0,0,1.123-.6436,4.2471,4.2471,0,0,0,.3623-2.0039,4.1628,4.1628,0,0,0-.3623-1.9912,1.3126,1.3126,0,0,0-2.2451.0049,4.1558,4.1558,0,0,0-.3623,1.9863,4.2359,4.2359,0,0,0,.3623,2.0039A1.2009,1.2009,0,0,0,67.7674,79.7194Z" transform="translate(-25.1284 -20.6838)"/><path class="cls-16" d="M39.2449,91.0007V84.6315h.7339v6.3692Z" transform="translate(-25.1284 -20.6838)"/><path class="cls-16" d="M43.575,91.0719a4.7475,4.7475,0,0,1-.9214-.0849,3.1057,3.1057,0,0,1-.7964-.2686,2.9139,2.9139,0,0,1-.6621-.4511l.2774-.5635a3.1453,3.1453,0,0,0,.9707.5722,3.4663,3.4663,0,0,0,1.1406.17,2.0091,2.0091,0,0,0,1.1812-.3.9773.9773,0,0,0,.42-.8457.7052.7052,0,0,0-.2105-.5323,1.5008,1.5008,0,0,0-.5723-.3213q-.3626-.1215-.8188-.2285-.4563-.0981-.8677-.2285a3.1908,3.1908,0,0,1-.729-.3262,1.4422,1.4422,0,0,1-.4966-.5009,1.48,1.48,0,0,1-.1787-.7608,1.6523,1.6523,0,0,1,.2862-.9609,1.8776,1.8776,0,0,1,.8051-.6485,2.9728,2.9728,0,0,1,1.2256-.2334,3.6421,3.6421,0,0,1,.8408.0948,3.1781,3.1781,0,0,1,.7471.2724,2.6111,2.6111,0,0,1,.6128.4385l-.2861.5635a3.0152,3.0152,0,0,0-.9038-.5635,2.7958,2.7958,0,0,0-1.0108-.1787,1.9091,1.9091,0,0,0-1.1631.3125,1.031,1.031,0,0,0-.42.877.8241.8241,0,0,0,.188.5634,1.2983,1.2983,0,0,0,.5278.3448,6.8355,6.8355,0,0,0,.7784.2373q.465.1068.8945.2324a3.8044,3.8044,0,0,1,.7646.3086,1.4919,1.4919,0,0,1,.5323.4736,1.291,1.291,0,0,1,.1968.7383,1.5924,1.5924,0,0,1-.2862.9482,1.8526,1.8526,0,0,1-.8139.626A3.1934,3.1934,0,0,1,43.575,91.0719Z" transform="translate(-25.1284 -20.6838)"/><path class="cls-16" d="M49.4608,91.0007V84.6315h.7246v6.3692Zm.34-2.9258v-.6172h4.6162v.6172Zm4.2051,2.9258V84.6315h.7334v6.3692Z" transform="translate(-25.1284 -20.6838)"/><path class="cls-16" d="M56.3133,91.0007V84.6315h4.0254V85.24H57.0379v2.2178H60.159v.6172H57.0379v2.3174h3.3008v.6084Z" transform="translate(-25.1284 -20.6838)"/><path class="cls-16" d="M61.5731,91.0007V84.6315h2.5322a2.4072,2.4072,0,0,1,1.5781.4561,1.8081,1.8081,0,0,1-.0088,2.6074,2.3665,2.3665,0,0,1-1.5693.47l.6611-.125a.9563.9563,0,0,1,.6.1924,1.301,1.301,0,0,1,.4024.6123l.8056,2.1563h-.7783l-.7871-2.12a.9121.9121,0,0,0-.416-.5322,1.5982,1.5982,0,0,0-.7022-.13H62.2977v2.7823Zm.7246-3.3907h1.7441a1.6971,1.6971,0,0,0,1.1055-.3037,1.1034,1.1034,0,0,0,.3623-.8945,1.069,1.069,0,0,0-.3584-.8819,1.7473,1.7473,0,0,0-1.1094-.29H62.2977Z" transform="translate(-25.1284 -20.6838)"/><path class="cls-16" d="M67.7723,91.0007V84.6315h4.0254V85.24H68.4969v2.2178H71.619v.6172H68.4969v2.3174h3.3008v.6084Z" transform="translate(-25.1284 -20.6838)"/><path class="cls-8" d="M39.7034,80.2653V73.8962h4.0259v.6084H40.428v2.2177H43.55V77.34H40.428v2.3174h3.3013v.6084Z" transform="translate(-25.1284 -20.6838)"/><path class="cls-8" d="M46.3953,80.2653V74.5221H44.1766v-.6259h5.18v.6259H47.1375v5.7432Z" transform="translate(-25.1284 -20.6838)"/><path class="cls-8" d="M50.2508,80.2653V73.8962h.7246v6.3691Zm.34-2.9258v-.6172h4.6162V77.34Zm4.2051,2.9258V73.8962h.7334v6.3691Z" transform="translate(-25.1284 -20.6838)"/><path class="cls-8" d="M59.3934,80.2653v-.5547L61.62,77.2419a4.4335,4.4335,0,0,0,.6534-.9043,1.7572,1.7572,0,0,0,.206-.8047,1.0481,1.0481,0,0,0-.3047-.81,1.2309,1.2309,0,0,0-.8672-.2822,2.3929,2.3929,0,0,0-.9131.1836,3.514,3.514,0,0,0-.8935.5508l-.2774-.5645a2.7594,2.7594,0,0,1,.9473-.5723,3.2813,3.2813,0,0,1,1.1543-.2148,2.3407,2.3407,0,0,1,1.0068.2012,1.5222,1.5222,0,0,1,.6573.5771,1.6658,1.6658,0,0,1,.2324.8945,2.3737,2.3737,0,0,1-.2461,1.0518A5.01,5.01,0,0,1,62.157,77.68L60.01,80.0055l-.0537-.3574H63.49v.6172Z" transform="translate(-25.1284 -20.6838)"/><path class="cls-8" d="M64.59,79.3434h.9218v.9219H64.59Z" transform="translate(-25.1284 -20.6838)"/><path class="cls-8" d="M68.7674,80.3366a1.8851,1.8851,0,0,1-1.6592-.8272,5.4951,5.4951,0,0,1-.0049-4.8574,2.0861,2.0861,0,0,1,3.3282,0,5.4848,5.4848,0,0,1-.0049,4.8526A1.8815,1.8815,0,0,1,68.7674,80.3366Zm0-.6172a1.2022,1.2022,0,0,0,1.123-.6436,4.2471,4.2471,0,0,0,.3623-2.0039,4.1628,4.1628,0,0,0-.3623-1.9912,1.3126,1.3126,0,0,0-2.2451.0049,4.1558,4.1558,0,0,0-.3623,1.9863,4.2359,4.2359,0,0,0,.3623,2.0039A1.2009,1.2009,0,0,0,68.7674,79.7194Z" transform="translate(-25.1284 -20.6838)"/><path class="cls-8" d="M40.2449,91.0007V84.6315h.7339v6.3692Z" transform="translate(-25.1284 -20.6838)"/><path class="cls-8" d="M44.575,91.0719a4.7475,4.7475,0,0,1-.9214-.0849,3.1057,3.1057,0,0,1-.7964-.2686,2.9139,2.9139,0,0,1-.6621-.4511l.2774-.5635a3.1453,3.1453,0,0,0,.9707.5722,3.4663,3.4663,0,0,0,1.1406.17,2.0091,2.0091,0,0,0,1.1812-.3.9773.9773,0,0,0,.42-.8457.7052.7052,0,0,0-.2105-.5323,1.5008,1.5008,0,0,0-.5723-.3213q-.3626-.1215-.8188-.2285-.4563-.0981-.8677-.2285a3.1908,3.1908,0,0,1-.729-.3262,1.4422,1.4422,0,0,1-.4966-.5009,1.48,1.48,0,0,1-.1787-.7608,1.6523,1.6523,0,0,1,.2862-.9609,1.8776,1.8776,0,0,1,.8051-.6485,2.9728,2.9728,0,0,1,1.2256-.2334,3.6421,3.6421,0,0,1,.8408.0948,3.1781,3.1781,0,0,1,.7471.2724,2.6111,2.6111,0,0,1,.6128.4385l-.2861.5635a3.0152,3.0152,0,0,0-.9038-.5635,2.7958,2.7958,0,0,0-1.0108-.1787,1.9091,1.9091,0,0,0-1.1631.3125,1.031,1.031,0,0,0-.42.877.8241.8241,0,0,0,.188.5634,1.2983,1.2983,0,0,0,.5278.3448,6.8355,6.8355,0,0,0,.7784.2373q.465.1068.8945.2324a3.8044,3.8044,0,0,1,.7646.3086,1.4919,1.4919,0,0,1,.5323.4736,1.291,1.291,0,0,1,.1968.7383,1.5924,1.5924,0,0,1-.2862.9482,1.8526,1.8526,0,0,1-.8139.626A3.1934,3.1934,0,0,1,44.575,91.0719Z" transform="translate(-25.1284 -20.6838)"/><path class="cls-8" d="M50.4608,91.0007V84.6315h.7246v6.3692Zm.34-2.9258v-.6172h4.6162v.6172Zm4.2051,2.9258V84.6315h.7334v6.3692Z" transform="translate(-25.1284 -20.6838)"/><path class="cls-8" d="M57.3133,91.0007V84.6315h4.0254V85.24H58.0379v2.2178H61.159v.6172H58.0379v2.3174h3.3008v.6084Z" transform="translate(-25.1284 -20.6838)"/><path class="cls-8" d="M62.5731,91.0007V84.6315h2.5322a2.4072,2.4072,0,0,1,1.5781.4561,1.8081,1.8081,0,0,1-.0088,2.6074,2.3665,2.3665,0,0,1-1.5693.47l.6611-.125a.9563.9563,0,0,1,.6.1924,1.301,1.301,0,0,1,.4024.6123l.8056,2.1563h-.7783l-.7871-2.12a.9121.9121,0,0,0-.416-.5322,1.5982,1.5982,0,0,0-.7022-.13H63.2977v2.7823Zm.7246-3.3907h1.7441a1.6971,1.6971,0,0,0,1.1055-.3037,1.1034,1.1034,0,0,0,.3623-.8945,1.069,1.069,0,0,0-.3584-.8819,1.7473,1.7473,0,0,0-1.1094-.29H63.2977Z" transform="translate(-25.1284 -20.6838)"/><path class="cls-8" d="M68.7723,91.0007V84.6315h4.0254V85.24H69.4969v2.2178H72.619v.6172H69.4969v2.3174h3.3008v.6084Z" transform="translate(-25.1284 -20.6838)"/></svg>