<?xml version="1.0" encoding="utf-8"?>
<!-- Generator: Adobe Illustrator 16.0.0, SVG Export Plug-In . SVG Version: 6.00 Build 0)  -->
<!DOCTYPE svg PUBLIC "-//W3C//DTD SVG 1.1//EN" "http://www.w3.org/Graphics/SVG/1.1/DTD/svg11.dtd">
<svg version="1.1" id="Layer_1" xmlns="http://www.w3.org/2000/svg" xmlns:xlink="http://www.w3.org/1999/xlink" x="0px" y="0px"
	 width="93px" height="107px" viewBox="0 0 93 107" enable-background="new 0 0 93 107" xml:space="preserve">
<path fill="#FFFFFF" d="M63.966,48.759V43.01H77V10.334H22.667V43.01h13.765v5.731c-7.824,4.684-13.064,13.24-13.064,23.022
	c0,14.811,12.006,26.816,26.816,26.816C64.994,98.58,77,86.574,77,71.764C77,61.993,71.773,53.446,63.966,48.759z"/>
<rect x="24.728" y="12.334" fill="#11083A" width="50.167" height="29.066"/>
<text transform="matrix(0.9882 -0.1532 0.1532 0.9882 26.7549 26.4175)" fill="#48B980" font-family="'Muli-Black'" font-size="9.7703">ETH 2.0 </text>
<text transform="matrix(0.9882 -0.1532 0.1532 0.9882 28.1943 35.7036)" fill="#FFFFFF" font-family="'Muli-Black'" font-size="9.7703">IS HERE</text>
<g>
	<path id="Shape_116_" fill="#FFFFFF" d="M68.457,32.424c-0.167,0-0.303-0.135-0.303-0.302v-2.383c0-0.167,0.136-0.302,0.303-0.302
		s0.303,0.135,0.303,0.302v2.383C68.764,32.289,68.624,32.424,68.457,32.424"/>
	<path id="Shape_115_" fill="#FFFFFF" d="M68.624,39.603c-2.544,0-4.612-2.069-4.612-4.614c0-2.545,2.068-4.613,4.612-4.613
		c1.233,0,2.394,0.481,3.265,1.35l0.299,0.299l-1.304,1.227l-0.565-0.599l0.666-0.628c-0.668-0.534-1.493-0.824-2.362-0.824
		c-2.09,0-3.789,1.699-3.789,3.789c0,2.09,1.699,3.789,3.789,3.789"/>
	<path id="Shape_96_" fill="#48B978" d="M70.939,37.234l-0.594-0.575c0.438-0.449,0.676-1.042,0.676-1.67
		c0-0.654-0.258-1.265-0.729-1.723l-0.309-0.299l0.332-0.314l0.281,0.3l0.271-0.279c0.63,0.613,0.977,1.435,0.977,2.312
		C71.85,35.831,71.525,36.629,70.939,37.234"/>
	<path id="Shape_95_" fill="#FFFFFF" d="M68.624,34.455c-0.296,0-0.537,0.241-0.537,0.537c0,0.297,0.241,0.537,0.537,0.537
		c0.297,0,0.537-0.24,0.537-0.537C69.161,34.692,68.921,34.455,68.624,34.455 M68.624,36.351c-0.751,0-1.36-0.61-1.36-1.362
		c0-0.751,0.609-1.362,1.36-1.362c0.752,0,1.362,0.611,1.362,1.362C69.986,35.74,69.376,36.351,68.624,36.351"/>
	<path id="Shape_94_" fill="#190B3C" d="M71.596,32.019l-2.398,2.216"/>
	<polygon id="Shape_93_" fill="#FFFFFF" points="71.314,31.716 71.876,32.321 69.479,34.537 68.918,33.932 	"/>
	<polygon id="Shape_92_" fill="#FFFFFF" points="72.139,39.603 68.548,39.603 68.548,38.778 71.312,38.778 71.312,38.029 
		68.824,36.154 69.318,35.493 72.139,37.616 	"/>
	<polygon id="Shape_91_" fill="#62C08C" points="72.432,29.967 72.764,29.636 73.096,29.967 72.764,30.299 	"/>
	<polygon id="Shape_90_" fill="#62C08C" points="71.012,28.374 71.169,28.215 71.327,28.374 71.169,28.532 	"/>
	<path id="Shape_15_" fill="#62C08C" d="M72.968,26.985c0-0.132-0.104-0.238-0.237-0.238c-0.131,0-0.237,0.105-0.237,0.238
		c0,0.133,0.106,0.238,0.237,0.238C72.863,27.223,72.968,27.118,72.968,26.985"/>
	<path id="Shape_14_" fill="#FFFFFF" d="M67.027,33.257c-0.168,0-0.303-0.135-0.303-0.302v-3.217c0-0.167,0.135-0.302,0.303-0.302
		s0.303,0.135,0.303,0.302v3.217C67.33,33.122,67.195,33.257,67.027,33.257"/>
</g>
<rect x="24.728" y="12.334" fill="none" stroke="#FFCD2D" stroke-miterlimit="10" width="50.167" height="29.066"/>
<title>bufficorn_bot</title>
<desc>Created with Sketch.</desc>
<g id="Page-1">
	<g id="bufficorn_bot">
		<circle id="Oval" opacity="0.44" fill="#FFCD2D" cx="50.121" cy="71.92" r="24.834"/>
		<g id="Group" transform="translate(26.000000, 31.000000)">
			<polyline id="Shape_1_" fill="#FFFFFF" points="13.272,61.793 9.965,61.749 9.997,60.352 13.132,60.32 			"/>
			<polyline id="Shape_2_" fill="#FFFFFF" points="10.431,58.708 12.946,59.048 13.536,54.609 10.99,54.331 			"/>
			<polyline id="Shape_3_" fill="#FFFFFF" points="12.573,48.37 11.238,52.033 14.281,53.646 16.206,51.039 23.717,57.9 
				24.184,21.891 21.342,21.938 19.667,20.121 16.965,20.866 13.737,24.592 11.999,28.316 11.75,31.219 9.625,29.838 8.864,33.967 
				9.52,39.333 12.464,45.281 			"/>
			<polyline id="Shape_4_" fill="#FFFFFF" points="16.733,53.646 15.732,56.045 17.175,56.486 18.083,54.811 			"/>
			<polyline id="Shape_5_" fill="#FFFFFF" points="15.103,57.302 17.268,57.35 17.43,58.402 15.069,58.402 			"/>
		</g>
		<g id="Group_1_" transform="translate(46.000000, 31.000000)">
			<polyline id="Shape_6_" fill="#FFFFFF" points="14.35,61.909 17.656,61.865 17.625,60.469 14.49,60.438 			"/>
			<polyline id="Shape_7_" fill="#FFFFFF" points="17.189,58.824 14.676,59.165 14.086,54.727 16.631,54.447 			"/>
			<polyline id="Shape_8_" fill="#FFFFFF" points="15.049,48.486 16.383,52.148 13.34,53.764 11.416,51.155 3.74,57.954 
				3.438,22.007 6.279,22.054 7.955,20.238 10.656,20.983 13.885,24.708 15.621,28.434 15.871,31.336 17.996,29.954 18.758,34.083 
				18.102,39.449 15.156,45.396 			"/>
			<polyline id="Shape_9_" fill="#FFFFFF" points="10.889,53.764 11.889,56.161 10.445,56.604 9.537,54.928 			"/>
			<polyline id="Shape_10_" fill="#FFFFFF" points="12.518,57.419 10.354,57.465 10.191,58.521 12.553,58.521 			"/>
		</g>
		<polyline id="Shape_11_" fill="#FFFFFF" points="28.182,66.534 31.395,63.273 32.14,64.578 31.814,66.021 30.487,67.046 
			29.136,67.021 		"/>
		<g id="Group_2_" transform="translate(15.000000, 10.000000)">
			<path id="Shape_12_" fill="#120E3B" d="M42.328,54.967h-0.002l-15.074-0.109c-0.025,0-0.051-0.006-0.075-0.016l-2.292-0.89
				c-0.081-0.03-0.133-0.106-0.133-0.188v-1.598c0-2.635,1.046-5.111,2.946-6.977c1.899-1.861,4.426-2.889,7.112-2.889
				c2.686,0,5.213,1.027,7.112,2.889c1.897,1.863,2.945,4.342,2.945,6.977v1.598c0,0.08-0.052,0.153-0.125,0.188l-2.332,0.999
				C42.385,54.96,42.355,54.967,42.328,54.967z M27.295,54.447l14.99,0.109l2.166-0.929v-1.463c0-5.214-4.324-9.455-9.641-9.455
				s-9.641,4.241-9.641,9.455v1.458L27.295,54.447z"/>
			<path id="Shape_13_" fill="#11083A" d="M43.168,82.95H26.454c-0.116,0-0.211-0.095-0.211-0.209c0-0.116,0.095-0.209,0.211-0.209
				h16.714c0.115,0,0.211,0.093,0.211,0.209C43.379,82.855,43.283,82.95,43.168,82.95z"/>
			<path id="Shape_16_" fill="#FFCC2E" d="M47.848,54.594c0,0.206-0.166,0.373-0.371,0.373s-0.373-0.167-0.373-0.373
				c0-0.205,0.168-0.371,0.373-0.371S47.848,54.389,47.848,54.594"/>
			<path id="Shape_17_" fill="#11083A" d="M47.848,55.711c-0.41,0-0.744-0.334-0.744-0.744c0-0.412,0.334-0.744,0.744-0.744
				c0.412,0,0.746,0.332,0.746,0.744C48.594,55.377,48.26,55.711,47.848,55.711z M47.848,54.727c-0.131,0-0.24,0.107-0.24,0.24
				s0.109,0.239,0.24,0.239c0.135,0,0.24-0.106,0.24-0.239S47.982,54.727,47.848,54.727z"/>
			<path id="Shape_18_" fill="#11083A" d="M48.371,56.456h-1.043c-0.062,0-0.121-0.024-0.164-0.067l-0.736-0.736
				c-0.045-0.043-0.068-0.104-0.068-0.163v-1.044c0-0.062,0.023-0.12,0.068-0.164l0.736-0.737c0.043-0.043,0.102-0.065,0.164-0.065
				h1.043c0.061,0,0.119,0.022,0.162,0.065l0.738,0.737c0.043,0.044,0.065,0.104,0.065,0.164v1.044c0,0.061-0.022,0.12-0.065,0.163
				l-0.738,0.736C48.49,56.432,48.432,56.456,48.371,56.456z M47.424,55.994h0.852l0.601-0.604V54.54l-0.601-0.603h-0.852
				L46.82,54.54v0.853L47.424,55.994z"/>
			<path id="Shape_19_" fill="#11083A" d="M34.389,78.807c-0.043,0-0.086-0.013-0.123-0.039c-0.045-0.031-4.589-3.351-8.58-8.438
				c-2.347-2.993-4.048-6.008-5.054-8.957c-1.264-3.699-1.434-7.307-0.504-10.723c0.019-0.067,0.068-0.12,0.134-0.144
				c0.066-0.022,0.138-0.01,0.193,0.034c4.479,3.494,9.183,5.268,13.982,5.268c4.806,0,9.511-1.772,13.986-5.268
				c0.057-0.044,0.127-0.057,0.195-0.034c0.064,0.022,0.115,0.075,0.133,0.144c0.93,3.416,0.754,7.022-0.52,10.723
				c-1.017,2.951-2.73,5.964-5.092,8.957c-4.017,5.089-8.589,8.406-8.634,8.439C34.473,78.794,34.43,78.807,34.389,78.807z
				 M20.449,51.061c-1.873,7.443,1.972,14.43,5.557,19.004c3.592,4.582,7.637,7.718,8.383,8.277
				c0.746-0.561,4.818-3.695,8.435-8.277c3.608-4.575,7.479-11.561,5.608-19.004c-2.414,1.847-4.926,3.215-7.477,4.074
				c-2.146,0.723-4.342,1.09-6.518,1.09s-4.37-0.367-6.517-1.09C25.375,54.275,22.862,52.906,20.449,51.061z"/>
			<path id="Shape_20_" fill="#11083A" d="M39.396,69.867h-8.425c-1.786,0-3.238-1.506-3.238-3.354c0-1.85,1.452-3.354,3.238-3.354
				h8.425c1.785,0,3.235,1.504,3.235,3.354C42.633,68.361,41.182,69.867,39.396,69.867z M30.971,63.594
				c-1.556,0-2.82,1.312-2.82,2.922c0,1.609,1.265,2.92,2.82,2.92h8.425c1.553,0,2.817-1.311,2.817-2.92
				c0-1.61-1.266-2.922-2.817-2.922H30.971z"/>
			<rect id="Rectangle-path" x="29.968" y="69.867" fill="#120E3B" width="9.685" height="2.979"/>
			<path id="Shape_21_" fill="#11083A" d="M39.447,72.102h-9.274c-0.112,0-0.205-0.086-0.205-0.192v-2.595
				c0-0.105,0.093-0.191,0.205-0.191h9.274c0.115,0,0.205,0.086,0.205,0.191v2.595C39.652,72.016,39.562,72.102,39.447,72.102z
				 M30.378,71.716h8.864v-2.208h-8.864V71.716z"/>
			<path id="Shape_22_" fill="#FFCD2D" d="M38.705,72.102c-0.359,0-0.521-0.351-0.652-0.634c-0.111-0.239-0.188-0.386-0.295-0.386
				s-0.184,0.146-0.297,0.386c-0.131,0.283-0.293,0.634-0.652,0.634c-0.356,0-0.521-0.351-0.651-0.634
				c-0.111-0.239-0.188-0.386-0.296-0.386c-0.108,0-0.184,0.146-0.295,0.386c-0.133,0.283-0.295,0.634-0.653,0.634
				c-0.356,0-0.521-0.351-0.651-0.634c-0.111-0.239-0.188-0.386-0.296-0.386c-0.106,0-0.184,0.146-0.295,0.386
				c-0.131,0.283-0.295,0.634-0.653,0.634c-0.357,0-0.521-0.351-0.652-0.634c-0.111-0.239-0.188-0.386-0.295-0.386
				c-0.108,0-0.184,0.146-0.295,0.386c-0.131,0.283-0.295,0.634-0.653,0.634s-0.521-0.351-0.653-0.634
				c-0.111-0.239-0.187-0.386-0.294-0.386c-0.113,0-0.204-0.104-0.204-0.234c0-0.13,0.091-0.234,0.204-0.234
				c0.357,0,0.521,0.351,0.652,0.634c0.111,0.239,0.188,0.386,0.295,0.386c0.108,0,0.183-0.146,0.296-0.386
				c0.13-0.283,0.294-0.634,0.652-0.634c0.359,0,0.521,0.351,0.652,0.634c0.111,0.239,0.188,0.386,0.295,0.386
				c0.109,0,0.185-0.146,0.297-0.386c0.131-0.283,0.295-0.634,0.652-0.634s0.521,0.351,0.652,0.634
				c0.111,0.239,0.188,0.386,0.295,0.386c0.109,0,0.184-0.146,0.295-0.386c0.131-0.283,0.295-0.634,0.654-0.634
				c0.357,0,0.521,0.351,0.652,0.634c0.11,0.239,0.188,0.386,0.295,0.386c0.106,0,0.184-0.146,0.297-0.386
				c0.129-0.283,0.293-0.634,0.651-0.634c0.357,0,0.521,0.351,0.65,0.634c0.112,0.239,0.188,0.386,0.297,0.386
				c0.11,0,0.203,0.104,0.203,0.234C38.908,71.997,38.816,72.102,38.705,72.102z"/>
			<rect id="Rectangle-path_1_" x="47.104" y="31.875" fill="#11083A" width="0.744" height="20.111"/>
			<rect id="Rectangle-path_2_" x="22.518" y="31.875" fill="#11083A" width="0.745" height="20.111"/>
			<rect id="Rectangle-path_3_" x="34.438" y="63.906" fill="#11083A" width="0.746" height="5.961"/>
			<path id="Shape_23_" fill="#11083A" d="M47.104,52.73h-0.418c0-6.746-5.326-12.234-11.875-12.234
				c-6.547,0-11.875,5.488-11.875,12.234h-0.418c0-1.709,0.326-3.369,0.966-4.93c0.619-1.509,1.506-2.863,2.634-4.026
				c1.13-1.163,2.444-2.077,3.908-2.714c1.516-0.66,3.126-0.996,4.785-0.996c1.66,0,3.271,0.335,4.785,0.996
				c1.463,0.638,2.779,1.551,3.908,2.714c1.129,1.163,2.014,2.517,2.633,4.026C46.779,49.361,47.104,51.021,47.104,52.73z"/>
			<path id="Shape_24_" fill="#FFCC2E" d="M29.968,67.259c0,0.618,0.5,1.118,1.117,1.118s1.118-0.5,1.118-1.118
				c0-0.616-0.5-1.116-1.118-1.116S29.968,66.643,29.968,67.259"/>
			<path id="Shape_25_" fill="#120E3B" d="M31.085,67.632c-0.615,0-1.117-0.501-1.117-1.116c0-0.617,0.502-1.119,1.117-1.119
				c0.615,0,1.118,0.502,1.118,1.119C32.203,67.131,31.701,67.632,31.085,67.632z M31.085,65.801c-0.392,0-0.712,0.32-0.712,0.715
				c0,0.393,0.32,0.711,0.712,0.711c0.393,0,0.712-0.318,0.712-0.711C31.797,66.121,31.478,65.801,31.085,65.801z"/>
			<path id="Shape_26_" fill="#FFCC2E" d="M38.164,67.259c0,0.618,0.5,1.118,1.117,1.118s1.117-0.5,1.117-1.118
				c0-0.616-0.5-1.116-1.117-1.116S38.164,66.643,38.164,67.259"/>
			<path id="Shape_27_" fill="#120E3B" d="M39.281,67.632c-0.615,0-1.117-0.501-1.117-1.116c0-0.617,0.502-1.119,1.117-1.119
				s1.117,0.502,1.117,1.119C40.398,67.131,39.896,67.632,39.281,67.632z M39.281,65.801c-0.393,0-0.713,0.32-0.713,0.715
				c0,0.393,0.32,0.711,0.713,0.711s0.711-0.318,0.711-0.711C39.992,66.121,39.674,65.801,39.281,65.801z"/>
			<path id="Shape_28_" fill="#11083A" d="M20.81,60.927c-0.056,0-0.111-0.021-0.154-0.063l-4.034-4.034
				c-0.085-0.086-0.085-0.224,0-0.308c0.084-0.086,0.223-0.086,0.308,0l4.035,4.033c0.085,0.086,0.085,0.223,0,0.309
				C20.922,60.904,20.866,60.927,20.81,60.927z"/>
			<path id="Shape_29_" fill="#11083A" d="M17.509,60.182c-0.052,0-0.104-0.021-0.146-0.061c-0.08-0.081-0.08-0.212,0-0.293
				l2.567-2.566c0.081-0.08,0.211-0.08,0.292,0c0.082,0.081,0.082,0.213,0,0.293l-2.566,2.566
				C17.615,60.161,17.562,60.182,17.509,60.182z"/>
			<path id="Shape_30_" fill="#5DBF8F" d="M17.473,60.182c-0.043,0-0.086-0.017-0.121-0.051c-0.066-0.066-0.066-0.175,0-0.242
				l1.148-1.146c0.066-0.066,0.175-0.066,0.242,0c0.067,0.068,0.067,0.176,0,0.242l-1.148,1.146
				C17.562,60.165,17.518,60.182,17.473,60.182z"/>
			<path id="Shape_31_" fill="#11083A" d="M16.043,59.438c-0.06,0-0.118-0.022-0.163-0.068c-0.09-0.09-0.09-0.235,0-0.326
				l3.264-3.264c0.09-0.09,0.236-0.09,0.326,0c0.09,0.091,0.09,0.236,0,0.326l-3.264,3.264
				C16.161,59.414,16.102,59.438,16.043,59.438z"/>
			<path id="Shape_32_" fill="#5DBF8F" d="M15.982,58.691c-0.043,0-0.087-0.017-0.12-0.051c-0.066-0.064-0.066-0.173,0-0.238
				l1.152-1.151c0.065-0.065,0.172-0.065,0.239,0c0.065,0.065,0.065,0.173,0,0.239l-1.152,1.15
				C16.068,58.676,16.025,58.691,15.982,58.691z"/>
			<path id="Shape_33_" fill="#11083A" d="M14.721,57.201c-0.69,0-1.338-0.27-1.826-0.756c-0.083-0.084-0.083-0.219,0-0.303
				l3.35-3.35c0.041-0.04,0.095-0.062,0.151-0.062s0.111,0.022,0.15,0.062c0.488,0.488,0.757,1.137,0.757,1.825
				c0,0.69-0.269,1.338-0.757,1.825C16.058,56.934,15.411,57.201,14.721,57.201z M13.354,56.286
				c0.384,0.317,0.861,0.487,1.366,0.487c0.575,0,1.116-0.223,1.523-0.631c0.408-0.406,0.632-0.947,0.632-1.523
				c0-0.504-0.172-0.98-0.489-1.365L13.354,56.286z"/>
			<path id="Shape_34_" fill="#11083A" d="M14.129,54.967c-0.05,0-0.1-0.02-0.137-0.058L11.4,52.318
				c-0.076-0.076-0.076-0.199,0-0.275c0.076-0.075,0.199-0.075,0.274,0l2.592,2.592c0.076,0.075,0.076,0.198,0,0.274
				C14.228,54.947,14.179,54.967,14.129,54.967z"/>
			<path id="Shape_35_" fill="#5DBF8F" d="M12.087,51.241c-0.411,0-0.745,0.334-0.745,0.745c0,0.412,0.333,0.744,0.745,0.744
				s0.746-0.332,0.746-0.744C12.833,51.575,12.499,51.241,12.087,51.241"/>
			<path id="Shape_36_" fill="#11083A" d="M28.252,79.552h-2.531c-0.063,0-0.123-0.022-0.165-0.065s-0.063-0.103-0.058-0.157
				l0.113-1.081c0.01-0.105,0.106-0.186,0.222-0.186h2.307c0.116,0,0.213,0.08,0.224,0.186l0.113,1.081
				c0.006,0.056-0.016,0.114-0.059,0.157S28.316,79.552,28.252,79.552z M25.968,79.141h2.038l-0.069-0.668h-1.899L25.968,79.141z"/>
			<polygon id="Shape_37_" fill="#120E3B" points="28.478,79.552 26.243,79.552 26.342,80.009 28.378,80.009 			"/>
			<path id="Shape_38_" fill="#11083A" d="M28.141,80.297h-2.307c-0.104,0-0.195-0.058-0.219-0.138l-0.112-0.39
				c-0.015-0.053,0.001-0.107,0.044-0.15c0.042-0.042,0.105-0.067,0.174-0.067h2.531c0.069,0,0.134,0.025,0.177,0.067
				c0.042,0.043,0.059,0.099,0.043,0.15l-0.111,0.39C28.336,80.239,28.247,80.297,28.141,80.297z M26.013,79.941h1.949l0.01-0.033
				h-1.969L26.013,79.941z"/>
			<path id="Shape_39_" fill="#11083A" d="M28.137,77.316c-0.015,0-0.029-0.002-0.044-0.004l-1.673-0.289
				c-0.063-0.013-0.118-0.047-0.149-0.099c-0.032-0.05-0.037-0.108-0.013-0.163l1.707-3.916l0.413,0.141l-1.613,3.699l1.252,0.217
				l1.56-2.606l0.392,0.183l-1.636,2.734C28.293,77.277,28.217,77.316,28.137,77.316z"/>
			<path id="Shape_40_" fill="#FFFFFF" d="M27.207,77.316l-0.219,0.744"/>
			
				<rect id="Rectangle-path_4_" x="26.989" y="77.318" transform="matrix(0.2348 -0.972 0.972 0.2348 -54.5815 86.0444)" fill="#11083A" width="0.744" height="0.745"/>
			<path id="Shape_41_" fill="#11083A" d="M24.963,75.082c-0.026,0-0.055-0.007-0.082-0.02l-2.993-1.427
				c-0.091-0.045-0.137-0.151-0.105-0.253l1.781-5.752l0.377,0.128l-1.727,5.576l2.679,1.276l1.766-2.746l0.329,0.23l-1.859,2.894
				C25.09,75.05,25.029,75.082,24.963,75.082z"/>
			<path id="Shape_42_" fill="#11083A" d="M23.957,80.297c-0.009,0-0.018,0-0.027-0.001l-2.711-0.331
				c-0.119-0.015-0.204-0.117-0.188-0.232l0.579-4.467c0.007-0.056,0.036-0.105,0.082-0.14s0.103-0.049,0.16-0.043l2.713,0.33
				c0.118,0.015,0.202,0.119,0.188,0.233l-0.579,4.467c-0.008,0.055-0.038,0.104-0.083,0.14
				C24.05,80.282,24.004,80.297,23.957,80.297z M21.486,79.574l2.283,0.279l0.524-4.052l-2.282-0.276L21.486,79.574z"/>
			<path id="Shape_43_" fill="#5DBF8F" d="M23.738,79.309c-0.01,0-0.02,0-0.029-0.002l-0.952-0.082
				c-0.147-0.013-0.253-0.115-0.238-0.23c0.017-0.115,0.15-0.198,0.298-0.186l0.951,0.082c0.147,0.014,0.254,0.116,0.238,0.23
				C23.991,79.229,23.874,79.309,23.738,79.309z"/>
			<path id="Shape_44_" fill="#5DBF8F" d="M23.739,78.562c-0.009,0-0.021-0.002-0.032-0.002l-0.949-0.082
				c-0.147-0.014-0.255-0.117-0.238-0.23c0.017-0.114,0.151-0.198,0.298-0.186l0.951,0.082c0.147,0.014,0.253,0.116,0.237,0.23
				C23.991,78.482,23.874,78.562,23.739,78.562z"/>
			<path id="Shape_45_" fill="#5DBF8F" d="M23.739,77.816c-0.011,0-0.021,0-0.031,0l-0.95-0.082
				c-0.148-0.014-0.255-0.116-0.238-0.231c0.016-0.114,0.15-0.196,0.298-0.185l0.951,0.082c0.148,0.013,0.254,0.115,0.238,0.23
				C23.991,77.738,23.875,77.816,23.739,77.816z"/>
			<path id="Shape_46_" fill="#5DBF8F" d="M23.739,76.327c-0.011,0-0.02,0-0.031,0l-0.95-0.083c-0.149-0.014-0.255-0.116-0.238-0.23
				c0.017-0.115,0.15-0.197,0.298-0.186l0.95,0.082c0.148,0.013,0.255,0.115,0.238,0.23C23.991,76.248,23.874,76.327,23.739,76.327z
				"/>
			<path id="Shape_47_" fill="#11083A" d="M24.549,82.532h-3.317c-0.057,0-0.112-0.021-0.149-0.058
				c-0.04-0.035-0.059-0.082-0.055-0.131l0.102-1.142c0.008-0.091,0.096-0.161,0.203-0.161h3.115c0.106,0,0.195,0.07,0.202,0.161
				l0.103,1.142c0.004,0.049-0.015,0.096-0.054,0.131C24.66,82.512,24.606,82.532,24.549,82.532z M21.451,82.184h2.878l-0.071-0.793
				h-2.736L21.451,82.184z"/>
			<polygon id="Shape_48_" fill="#120E3B" points="24.752,82.532 21.028,82.532 21.141,83.134 24.639,83.134 			"/>
			<path id="Shape_49_" fill="#11083A" d="M24.448,83.277h-3.116c-0.098,0-0.183-0.055-0.2-0.127l-0.101-0.439
				c-0.011-0.044,0.005-0.09,0.043-0.124c0.039-0.035,0.096-0.055,0.157-0.055h3.317c0.061,0,0.117,0.02,0.156,0.055
				c0.039,0.034,0.057,0.08,0.045,0.124l-0.103,0.439C24.631,83.225,24.546,83.277,24.448,83.277z M21.504,82.973h2.771l0.031-0.135
				h-2.834L21.504,82.973z"/>
			
				<rect id="Rectangle-path_5_" x="23.267" y="74.337" transform="matrix(0.3269 -0.945 0.945 0.3269 -54.4427 72.9767)" fill="#11083A" width="1.489" height="0.745"/>
			
				<rect id="Rectangle-path_6_" x="21.775" y="80.292" transform="matrix(0.0541 -0.9985 0.9985 0.0541 -59.2446 98.7916)" fill="#11083A" width="1.49" height="0.745"/>
			
				<rect id="Rectangle-path_7_" x="24.013" y="72.104" transform="matrix(0.229 -0.9734 0.9734 0.229 -50.313 81.4301)" fill="#11083A" width="4.469" height="0.745"/>
			
				<rect id="Rectangle-path_8_" x="21.028" y="71.357" transform="matrix(0.6 -0.8 0.8 0.6 -47.9296 47.5998)" fill="#11083A" width="5.215" height="0.745"/>
			<path id="Shape_50_" fill="#11083A" d="M43.9,79.552h-2.531c-0.064,0-0.123-0.022-0.166-0.065s-0.064-0.103-0.059-0.157
				l0.11-1.081c0.013-0.105,0.108-0.186,0.226-0.186h2.307c0.117,0,0.213,0.08,0.225,0.186l0.109,1.081
				c0.008,0.056-0.014,0.114-0.057,0.157C44.023,79.527,43.963,79.552,43.9,79.552z M41.615,79.141h2.037l-0.068-0.668h-1.898
				L41.615,79.141z"/>
			<polygon id="Shape_51_" fill="#120E3B" points="41.143,79.552 43.379,79.552 43.279,80.009 41.242,80.009 			"/>
			<path id="Shape_52_" fill="#11083A" d="M43.787,80.297H41.48c-0.105,0-0.195-0.058-0.219-0.138l-0.113-0.39
				c-0.017-0.053,0.002-0.107,0.043-0.15c0.043-0.042,0.106-0.067,0.176-0.067h2.531c0.067,0,0.133,0.025,0.176,0.067
				c0.043,0.043,0.059,0.099,0.043,0.15l-0.111,0.39C43.982,80.239,43.891,80.297,43.787,80.297z M41.658,79.941h1.949l0.01-0.033
				h-1.969L41.658,79.941z"/>
			<path id="Shape_53_" fill="#11083A" d="M41.484,77.316c-0.08,0-0.156-0.039-0.195-0.104l-1.637-2.734l0.393-0.183l1.559,2.606
				l1.252-0.217l-1.612-3.699l0.414-0.141l1.706,3.916c0.023,0.055,0.021,0.113-0.012,0.163c-0.033,0.052-0.088,0.086-0.151,0.099
				l-1.673,0.289C41.514,77.314,41.498,77.316,41.484,77.316z"/>
			
				<rect id="Rectangle-path_9_" x="41.887" y="77.318" transform="matrix(0.9724 -0.2333 0.2333 0.9724 -16.9574 12.0015)" fill="#11083A" width="0.745" height="0.746"/>
			<path id="Shape_54_" fill="#11083A" d="M43.914,75.082c-0.066,0-0.129-0.032-0.166-0.092l-1.859-2.895l0.33-0.229l1.766,2.745
				l2.679-1.275l-1.728-5.576l0.377-0.128l1.781,5.752c0.031,0.101-0.014,0.208-0.105,0.253l-2.993,1.426
				C43.967,75.075,43.939,75.082,43.914,75.082z"/>
			<path id="Shape_55_" fill="#11083A" d="M45.664,80.297c-0.047,0-0.094-0.015-0.133-0.044c-0.045-0.034-0.074-0.085-0.082-0.14
				l-0.58-4.467c-0.014-0.114,0.07-0.22,0.188-0.233l2.715-0.33c0.056-0.006,0.113,0.009,0.16,0.043
				c0.043,0.033,0.072,0.084,0.08,0.14l0.58,4.467c0.016,0.115-0.07,0.219-0.189,0.232l-2.711,0.331
				C45.682,80.297,45.674,80.297,45.664,80.297z M45.326,75.803l0.525,4.051l2.28-0.278l-0.522-4.05L45.326,75.803z"/>
			<path id="Shape_56_" fill="#5DBF8F" d="M46.627,79.309c-0.135,0-0.252-0.078-0.268-0.188c-0.017-0.114,0.09-0.219,0.238-0.23
				l0.95-0.082c0.146-0.014,0.281,0.069,0.3,0.186c0.014,0.115-0.093,0.219-0.24,0.23l-0.949,0.082
				C46.646,79.309,46.637,79.309,46.627,79.309z"/>
			<path id="Shape_57_" fill="#5DBF8F" d="M46.627,78.562c-0.135,0-0.252-0.08-0.268-0.188c-0.017-0.114,0.09-0.218,0.238-0.23
				l0.95-0.082c0.147-0.013,0.281,0.07,0.3,0.186c0.016,0.113-0.093,0.218-0.24,0.23l-0.949,0.082
				C46.646,78.562,46.639,78.562,46.627,78.562z"/>
			<path id="Shape_58_" fill="#5DBF8F" d="M46.627,77.816c-0.135,0-0.252-0.078-0.268-0.186c-0.017-0.115,0.09-0.219,0.238-0.23
				l0.95-0.082c0.147-0.014,0.281,0.068,0.3,0.185c0.016,0.115-0.091,0.22-0.238,0.231l-0.951,0.082
				C46.648,77.816,46.639,77.816,46.627,77.816z"/>
			<path id="Shape_59_" fill="#5DBF8F" d="M46.627,76.327c-0.135,0-0.252-0.079-0.268-0.187c-0.017-0.115,0.09-0.219,0.238-0.23
				l0.95-0.082c0.147-0.014,0.281,0.068,0.3,0.186c0.016,0.114-0.091,0.217-0.24,0.23l-0.949,0.083
				C46.646,76.327,46.639,76.327,46.627,76.327z"/>
			<path id="Shape_60_" fill="#11083A" d="M48.389,82.532h-3.315c-0.06,0-0.111-0.021-0.15-0.058
				c-0.039-0.035-0.057-0.082-0.053-0.131l0.103-1.142c0.008-0.091,0.098-0.161,0.202-0.161h3.113c0.106,0,0.194,0.07,0.203,0.161
				l0.102,1.142c0.007,0.049-0.014,0.096-0.053,0.131C48.5,82.512,48.447,82.532,48.389,82.532z M45.291,82.184h2.879l-0.07-0.793
				h-2.736L45.291,82.184z"/>
			<polygon id="Shape_61_" fill="#120E3B" points="45.613,82.532 49.338,82.532 49.225,83.134 45.727,83.134 			"/>
			<path id="Shape_62_" fill="#11083A" d="M48.289,83.277h-3.115c-0.1,0-0.184-0.055-0.199-0.127l-0.104-0.439
				c-0.01-0.044,0.006-0.09,0.045-0.124c0.039-0.035,0.096-0.055,0.156-0.055h3.318c0.059,0,0.116,0.02,0.155,0.055
				c0.037,0.034,0.056,0.08,0.043,0.124l-0.101,0.439C48.471,83.225,48.387,83.277,48.289,83.277z M45.346,82.973h2.771l0.032-0.135
				h-2.834L45.346,82.973z"/>
			
				<rect id="Rectangle-path_10_" x="45.613" y="73.597" transform="matrix(0.9444 -0.3288 0.3288 0.9444 -21.8853 19.2516)" fill="#11083A" width="0.746" height="1.49"/>
			
				<rect id="Rectangle-path_11_" x="47.101" y="79.553" transform="matrix(0.9985 -0.0549 0.0549 0.9985 -4.336 2.727)" fill="#11083A" width="0.747" height="1.489"/>
			
				<rect id="Rectangle-path_12_" x="43.375" y="70.612" transform="matrix(0.973 -0.2308 0.2308 0.973 -15.6317 12.0633)" fill="#11083A" width="0.745" height="4.471"/>
			
				<rect id="Rectangle-path_13_" x="45.613" y="69.119" transform="matrix(0.7997 -0.6004 0.6004 0.7997 -33.855 41.9789)" fill="#11083A" width="0.745" height="5.217"/>
			<path id="Shape_63_" fill="#11083A" d="M40.607,61.672c-0.115,0-0.209-0.08-0.209-0.18v-1.131c0-0.101,0.094-0.18,0.209-0.18
				s0.209,0.079,0.209,0.18v1.131C40.816,61.592,40.723,61.672,40.607,61.672z"/>
			<path id="Shape_64_" fill="#11083A" d="M39.863,61.672c-0.115,0-0.211-0.08-0.211-0.18v-1.131c0-0.101,0.096-0.18,0.211-0.18
				s0.209,0.079,0.209,0.18v1.131C40.072,61.592,39.979,61.672,39.863,61.672z"/>
			<path id="Shape_65_" fill="#11083A" d="M40.607,61.672c-0.115,0-0.209-0.08-0.209-0.18v-1.131c0-0.101,0.094-0.18,0.209-0.18
				s0.209,0.079,0.209,0.18v1.131C40.816,61.592,40.723,61.672,40.607,61.672z"/>
			<path id="Shape_66_" fill="#11083A" d="M30.177,61.672c-0.116,0-0.209-0.08-0.209-0.18v-1.131c0-0.101,0.093-0.18,0.209-0.18
				c0.115,0,0.209,0.079,0.209,0.18v1.131C30.386,61.592,30.292,61.672,30.177,61.672z"/>
			<path id="Shape_67_" fill="#11083A" d="M28.687,61.672c-0.116,0-0.209-0.08-0.209-0.18v-1.131c0-0.101,0.093-0.18,0.209-0.18
				s0.209,0.079,0.209,0.18v1.131C28.896,61.592,28.803,61.672,28.687,61.672z"/>
			<path id="Shape_68_" fill="#11083A" d="M30.177,61.672c-0.116,0-0.209-0.08-0.209-0.18v-1.131c0-0.101,0.093-0.18,0.209-0.18
				c0.115,0,0.209,0.079,0.209,0.18v1.131C30.386,61.592,30.292,61.672,30.177,61.672z"/>
			<path id="Shape_69_" fill="#11083A" d="M44.287,66.887h-1.936v-0.41h1.719v-3.932c0-0.111,0.094-0.202,0.211-0.205l1.934-0.041
				v-4.043c0-0.113,0.096-0.205,0.217-0.207l1.537-0.009l-2.701-3.717c-0.067,1.655-0.393,3.219-0.994,4.763
				c-0.524,1.352-1.241,2.648-2.258,4.084c-0.521,0.736-1.039,1.395-1.539,2.032c-0.442,0.563-0.86,1.097-1.207,1.593l-0.36-0.229
				c0.353-0.506,0.772-1.043,1.221-1.61c0.498-0.633,1.013-1.288,1.524-2.017c1.486-2.101,3.193-5.049,3.193-9.258
				c0-0.091,0.062-0.171,0.152-0.197c0.092-0.024,0.189,0.007,0.242,0.08l3.312,4.561c0.047,0.062,0.051,0.145,0.016,0.212
				c-0.039,0.068-0.111,0.11-0.191,0.11l-1.73,0.012V62.5c0,0.111-0.094,0.202-0.211,0.205l-1.934,0.041v3.936
				C44.504,66.795,44.406,66.887,44.287,66.887z"/>
			<path id="Shape_70_" fill="#11083A" d="M28.014,66.887H26.08c-0.119,0-0.217-0.092-0.217-0.205v-3.936l-1.934-0.041
				c-0.117-0.003-0.211-0.094-0.211-0.205v-4.041l-1.73-0.012c-0.08,0-0.154-0.043-0.191-0.11s-0.031-0.147,0.013-0.212l3.313-4.561
				c0.055-0.073,0.152-0.104,0.242-0.08c0.092,0.026,0.153,0.106,0.153,0.197c0,4.209,1.706,7.157,3.191,9.258
				c0.516,0.729,1.029,1.384,1.526,2.017c0.447,0.567,0.869,1.104,1.222,1.61l-0.361,0.229c-0.346-0.496-0.765-1.029-1.207-1.593
				c-0.501-0.638-1.018-1.296-1.538-2.032c-1.016-1.436-1.733-2.732-2.26-4.084c-0.601-1.544-0.927-3.107-0.994-4.763l-2.699,3.717
				l1.537,0.009c0.119,0.002,0.215,0.094,0.215,0.207v4.043l1.934,0.041c0.117,0.003,0.212,0.094,0.212,0.205v3.932h1.718V66.887z"
				/>
			<path id="Shape_71_" fill="#12103B" d="M38.164,75.5l2.764,0.327l0.961-4.472C41.889,71.355,40.176,73.585,38.164,75.5"/>
			<path id="Shape_72_" fill="#120E3B" d="M42.021,75.827l-3.857-0.379l0.371-0.292c2.268-1.782,4.223-3.879,4.242-3.899
				l0.602-0.646L42.021,75.827z M39.199,75.156l2.479,0.242l0.854-3.283C41.834,72.818,40.594,74.023,39.199,75.156z"/>
			<path id="Shape_73_" fill="#12103B" d="M44.123,69.499l1.949,0.368l1.031-4.471C47.104,65.396,46.041,67.318,44.123,69.499"/>
			<path id="Shape_74_" fill="#120E3B" d="M45.756,70.611l-2.377-0.517l0.211-0.274c1.775-2.318,2.781-4.391,2.791-4.41l0.723-1.504
				L45.756,70.611z M44.125,69.814l1.307,0.283l0.654-3.26C45.639,67.613,44.977,68.677,44.125,69.814z"/>
			<path id="Shape_75_" fill="#12103B" d="M47.848,63.531l1.379,0.375l0.111-4.471C49.338,59.438,48.65,62.061,47.848,63.531"/>
			<path id="Shape_76_" fill="#120E3B" d="M49.906,63.906l-2.059-0.524l0.127-0.22c0.844-1.458,1.588-4.094,1.594-4.118l0.516-1.843
				L49.906,63.906z M48.518,63.127l0.933,0.237l0.067-2.621C49.252,61.507,48.9,62.411,48.518,63.127z"/>
			<path id="Shape_77_" fill="#12103B" d="M30.713,75.5l-2.765,0.327l-0.961-4.472C26.988,71.355,28.701,73.585,30.713,75.5"/>
			<path id="Shape_78_" fill="#120E3B" d="M28.343,75.827l-1.355-5.216l0.6,0.645c0.02,0.021,1.978,2.119,4.244,3.9l0.372,0.292
				L28.343,75.827z M27.834,72.114l0.854,3.284l2.479-0.242C29.772,74.023,28.531,72.818,27.834,72.114z"/>
			<path id="Shape_79_" fill="#12103B" d="M25.498,69.499l-1.947,0.368l-1.033-4.471C22.518,65.396,23.582,67.318,25.498,69.499"/>
			<path id="Shape_80_" fill="#120E3B" d="M23.865,70.611l-1.347-6.705l0.723,1.502c0.01,0.021,1.016,2.096,2.792,4.412l0.211,0.274
				L23.865,70.611z M23.536,66.838l0.654,3.26l1.305-0.283C24.644,68.676,23.982,67.611,23.536,66.838z"/>
			<path id="Shape_81_" fill="#12103B" d="M21.773,63.531l-1.378,0.375l-0.112-4.471C20.283,59.438,20.972,62.061,21.773,63.531"/>
			<path id="Shape_82_" fill="#120E3B" d="M20.46,63.906l-0.178-6.705l0.515,1.841c0.006,0.024,0.749,2.662,1.594,4.12l0.126,0.219
				L20.46,63.906z M20.848,60.742l0.07,2.622l0.931-0.237C21.465,62.411,21.114,61.507,20.848,60.742z"/>
			<path id="Shape_83_" fill="#12103B" d="M29.968,40.92l-1.659-0.109l-0.576,1.49C27.733,42.301,28.76,41.559,29.968,40.92"/>
			<path id="Shape_84_" fill="#120E3B" d="M26.988,43.046l0.961-2.235l2.765,0.164L30.05,41.29c-1.334,0.635-2.486,1.382-2.498,1.39
				L26.988,43.046z M28.221,41.208l-0.353,0.819c0.343-0.205,0.82-0.48,1.359-0.76L28.221,41.208z"/>
			<path id="Shape_85_" fill="#12103B" d="M39.652,40.92l1.66-0.109l0.576,1.49C41.889,42.301,40.861,41.559,39.652,40.92"/>
			<path id="Shape_86_" fill="#120E3B" d="M42.633,43.046l-0.564-0.367c-0.012-0.008-1.164-0.755-2.498-1.39l-0.661-0.315
				l2.766-0.164L42.633,43.046z M40.395,41.267c0.537,0.279,1.017,0.555,1.357,0.76L41.4,41.208L40.395,41.267z"/>
			<path id="Shape_87_" fill="#FFCD2D" d="M30.753,40.35l3.075-14.393c0.1-0.462,0.508-0.792,0.982-0.792
				c0.474,0,0.883,0.33,0.981,0.792l3.076,14.393c0.264,1.401-0.813,2.696-2.246,2.696h-3.625
				C31.568,43.046,30.489,41.751,30.753,40.35"/>
			<path id="Shape_88_" fill="#120E3B" d="M37.064,43.791H33.3c-0.771,0-1.498-0.333-1.991-0.914
				c-0.494-0.581-0.695-1.34-0.552-2.082c0-0.001,0.001-0.004,0.001-0.005l3.192-14.651c0.123-0.564,0.641-0.974,1.231-0.974
				c0.59,0,1.107,0.41,1.23,0.974l3.193,14.651c0,0.001,0,0.004,0,0.005c0.143,0.741-0.058,1.5-0.551,2.082
				C38.564,43.458,37.838,43.791,37.064,43.791z M31.184,40.876c-0.117,0.617,0.05,1.247,0.459,1.73
				c0.412,0.483,1.017,0.76,1.658,0.76h3.764c0.644,0,1.248-0.277,1.658-0.76c0.41-0.484,0.576-1.114,0.459-1.73L35.99,26.228
				c-0.08-0.37-0.42-0.638-0.807-0.638c-0.388,0-0.728,0.268-0.808,0.638L31.184,40.876z"/>
			
				<rect id="Rectangle-path_14_" x="34.437" y="36.339" transform="matrix(0.2439 -0.9698 0.9698 0.2439 -12.8977 64.3311)" fill="#120E3B" width="0.745" height="8.197"/>
			
				<rect id="Rectangle-path_15_" x="34.436" y="33.359" transform="matrix(0.2452 -0.9695 0.9695 0.2452 -9.3166 61.4581)" fill="#120E3B" width="0.745" height="6.706"/>
			
				<rect id="Rectangle-path_16_" x="34.439" y="31.124" transform="matrix(0.2464 -0.9692 0.9692 0.2464 -6.818 59.4389)" fill="#120E3B" width="0.745" height="5.959"/>
			
				<rect id="Rectangle-path_17_" x="34.439" y="28.889" transform="matrix(0.2439 -0.9698 0.9698 0.2439 -3.8639 57.2915)" fill="#120E3B" width="0.745" height="4.47"/>
			<polygon id="Shape_89_" fill="#120E3B" points="36.574,28.891 33.693,27.92 33.793,27.4 36.674,28.372 			"/>
			
				<rect id="Rectangle-path_18_" x="20.284" y="58.69" transform="matrix(0.7081 -0.7061 0.7061 0.7081 -35.458 32.3533)" fill="#11083A" width="2.235" height="0.745"/>
			
				<rect id="Rectangle-path_19_" x="21.772" y="63.162" transform="matrix(0.706 -0.7082 0.7082 0.706 -38.2662 34.889)" fill="#11083A" width="2.235" height="0.745"/>
			
				<rect id="Rectangle-path_20_" x="24.009" y="67.633" transform="matrix(0.7063 -0.7079 0.7079 0.7063 -40.8729 37.4975)" fill="#11083A" width="1.488" height="0.745"/>
			
				<rect id="Rectangle-path_21_" x="44.118" y="66.888" transform="matrix(0.7078 -0.7065 0.7065 0.7078 -34.7768 51.1948)" fill="#11083A" width="0.745" height="1.488"/>
			
				<rect id="Rectangle-path_22_" x="46.359" y="62.417" transform="matrix(0.7071 -0.7071 0.7071 0.7071 -31.2381 51.6529)" fill="#11083A" width="0.746" height="2.235"/>
			
				<rect id="Rectangle-path_23_" x="47.849" y="57.951" transform="matrix(0.7058 -0.7084 0.7084 0.7058 -27.3943 51.4299)" fill="#11083A" width="0.744" height="1.49"/>
			
				<rect id="Rectangle-path_24_" x="39.653" y="72.106" transform="matrix(0.7065 -0.7078 0.7078 0.7065 -39.8125 49.7141)" fill="#11083A" width="0.745" height="1.492"/>
			
				<rect id="Rectangle-path_25_" x="28.479" y="72.848" transform="matrix(0.7086 -0.7056 0.7056 0.7086 -43.1505 41.9586)" fill="#11083A" width="1.489" height="0.745"/>
			<path id="Shape_97_" fill="#48B980" d="M42.633,51.613c0,4.32-3.502,7.822-7.822,7.822s-7.823-3.502-7.823-7.822
				c0-4.319,3.502-7.822,7.823-7.822S42.633,47.294,42.633,51.613"/>
			<path id="Shape_98_" fill="#120E3B" d="M35.184,60.182c-2.188,0-4.247-0.853-5.794-2.398c-1.548-1.549-2.4-3.606-2.4-5.797
				c0-2.189,0.853-4.246,2.4-5.795c1.549-1.547,3.606-2.399,5.794-2.399s4.246,0.853,5.795,2.399c1.547,1.549,2.4,3.605,2.4,5.795
				c0,2.19-0.854,4.248-2.4,5.797C39.43,59.329,37.371,60.182,35.184,60.182z M35.184,44.209c-4.29,0-7.778,3.488-7.778,7.777
				s3.488,7.777,7.778,7.777c4.289,0,7.777-3.488,7.777-7.777S39.473,44.209,35.184,44.209z"/>
			<path id="Shape_99_" fill="#FFFFFF" d="M39.652,50.123c0,1.027-0.832,1.863-1.861,1.863s-1.863-0.836-1.863-1.863
				c0-1.028,0.834-1.862,1.863-1.862S39.652,49.095,39.652,50.123"/>
			<path id="Shape_100_" fill="#FFFFFF" d="M40.398,52.73c0,0.412-0.334,0.746-0.746,0.746c-0.41,0-0.744-0.334-0.744-0.746
				c0-0.41,0.334-0.744,0.744-0.744C40.064,51.986,40.398,52.32,40.398,52.73"/>
			<path id="Shape_101_" fill="#11083A" d="M34.811,76.572c-0.053,0-0.104-0.022-0.145-0.065l-1.719-1.856l0.289-0.312l1.574,1.7
				l1.571-1.7l0.291,0.312l-1.719,1.856C34.914,76.55,34.863,76.572,34.811,76.572z"/>
			<path id="Shape_102_" fill="#11083A" d="M36.674,75.082c-0.049,0-0.096-0.016-0.131-0.042l-0.615-0.494l0.262-0.209l0.484,0.39
				l0.484-0.39l0.26,0.209l-0.615,0.494C36.766,75.066,36.719,75.082,36.674,75.082z"/>
			<path id="Shape_103_" fill="#11083A" d="M32.949,75.082c-0.049,0-0.094-0.016-0.131-0.042l-0.615-0.494l0.26-0.209l0.486,0.39
				l0.484-0.39l0.26,0.209l-0.615,0.494C33.043,75.066,32.996,75.082,32.949,75.082z"/>
			<path id="Shape_104_" fill="#5DBF8F" d="M46.27,50.826c0-0.184-0.146-0.33-0.328-0.33c-0.182,0-0.328,0.146-0.328,0.33
				c0,0.181,0.146,0.328,0.328,0.328C46.124,51.154,46.27,51.007,46.27,50.826"/>
			<path id="Shape_105_" fill="#12103B" d="M45.525,73.176c0-0.182-0.148-0.328-0.328-0.328c-0.182,0-0.328,0.146-0.328,0.328
				s0.146,0.329,0.328,0.329C45.377,73.505,45.525,73.357,45.525,73.176"/>
			<path id="Shape_106_" fill="#12103B" d="M45.527,63.49c0-0.182-0.148-0.329-0.33-0.329s-0.328,0.147-0.328,0.329
				c0,0.183,0.146,0.328,0.328,0.328S45.527,63.673,45.527,63.49"/>
			<path id="Shape_107_" fill="#12103B" d="M43.291,67.961c0-0.182-0.146-0.329-0.328-0.329s-0.33,0.147-0.33,0.329
				s0.148,0.328,0.33,0.328S43.291,68.143,43.291,67.961"/>
			<path id="Shape_108_" fill="#12103B" d="M47.018,59.021c0-0.182-0.147-0.33-0.33-0.33c-0.182,0-0.328,0.148-0.328,0.33
				c0,0.183,0.146,0.33,0.328,0.33C46.87,59.352,47.018,59.203,47.018,59.021"/>
			<path id="Shape_109_" fill="#12103B" d="M24.752,63.49c0-0.182,0.148-0.329,0.329-0.329c0.182,0,0.329,0.147,0.329,0.329
				c0,0.183-0.147,0.328-0.329,0.328C24.901,63.818,24.752,63.673,24.752,63.49"/>
			<path id="Shape_110_" fill="#12103B" d="M26.243,67.961c0-0.182,0.147-0.329,0.329-0.329c0.182,0,0.329,0.147,0.329,0.329
				s-0.147,0.328-0.329,0.328C26.39,68.289,26.243,68.143,26.243,67.961"/>
			<path id="Shape_111_" fill="#12103B" d="M22.518,59.021c0-0.182,0.148-0.33,0.329-0.33c0.182,0,0.33,0.148,0.33,0.33
				c0,0.183-0.148,0.33-0.33,0.33C22.666,59.352,22.518,59.203,22.518,59.021"/>
			<path id="Shape_112_" fill="#12103B" d="M24.666,73.176c0-0.182-0.147-0.328-0.329-0.328s-0.328,0.146-0.328,0.328
				s0.146,0.329,0.328,0.329S24.666,73.357,24.666,73.176"/>
			<path id="Shape_113_" fill="#5DBF8F" d="M45.525,49.336c0-0.184-0.146-0.33-0.328-0.33s-0.328,0.146-0.328,0.33
				c0,0.182,0.146,0.329,0.328,0.329S45.525,49.518,45.525,49.336"/>
			<path id="Shape_114_" fill="#5DBF8F" d="M45.525,47.845c0-0.181-0.146-0.327-0.328-0.327s-0.328,0.146-0.328,0.327
				c0,0.183,0.146,0.33,0.328,0.33S45.525,48.027,45.525,47.845"/>
		</g>
	</g>
</g>
</svg>
