<svg id="Layer_1" data-name="Layer 1" xmlns="http://www.w3.org/2000/svg" viewBox="0 0 54.3913 85.8638"><title>c3po</title><path d="M72.7119,50.19l-1.23-3.624a2.2394,2.2394,0,0,0-1.7676-1.4995l-6.4814-7.228a2.208,2.208,0,0,0-.6211-.8516A8.6952,8.6952,0,0,0,57.8633,35.2c-.7139-.6245-1.9824-1.1113-4.1992-1.1113a2.0932,2.0932,0,0,0-.26.018h-.1172a2.2632,2.2632,0,0,0,.8721-.6958,17.0738,17.0738,0,0,0,2.1553-4.5087,2.2441,2.2441,0,0,0,1.247-1.6539l.5469-3.2358a2.2322,2.2322,0,0,0-.3887-1.6768,1.9941,1.9941,0,0,0-.1445-.1816A11.3081,11.3081,0,0,0,56.67,17.07c-1.8847-4.0342-5.8144-5.7847-7.9883-6.4687a4.3411,4.3411,0,0,1-.8261-.3672,4.41,4.41,0,0,0-4.6275,0,4.3374,4.3374,0,0,1-.8271.3672c-2.1738.684-6.1021,2.434-7.9873,6.4682a11.3131,11.3131,0,0,0-.9063,5.08,2.3549,2.3549,0,0,0-.146.186,2.2343,2.2343,0,0,0-.3882,1.6812l.5455,3.2241a2.2388,2.2388,0,0,0,1.25,1.6621,17.0661,17.0661,0,0,0,2.1578,4.5118,2.2513,2.2513,0,0,0,.8691.6918h-.1172a2.1058,2.1058,0,0,0-.26-.018c-2.2232,0-3.4917.4912-4.2046,1.1284a8.6659,8.6659,0,0,0-4.5542,1.77,2.2359,2.2359,0,0,0-.6172.8482l-6.4854,7.2329A2.2542,2.2542,0,0,0,19.791,46.564L18.56,50.1958a2.2346,2.2346,0,0,0,.2368,1.9263l4.8144,7.5273c.0035.0694.0093.1387.0191.209l.3208,2.3535a2.2353,2.2353,0,0,0,.4814,1.1113l.149,1.47a2.2361,2.2361,0,0,0,1.4707,1.8847v.8555a6.5834,6.5834,0,0,0,6.5756,6.5762h.9942v4.9424a2.2227,2.2227,0,0,0,.4764,1.3664l.939,9.8781a3.0748,3.0748,0,0,0-.8466,2.1051,3.24,3.24,0,0,0,1.356,2.5781,2.2594,2.2594,0,0,0,1.3652.4629h5.8906a2.27,2.27,0,0,0,1.3736-.4688,3.2353,3.2353,0,0,0,1.3476-2.5722,3.1027,3.1027,0,0,0-.9627-2.2334l.9329-9.8158a2.2477,2.2477,0,0,0,.1528-.2572,2.2627,2.2627,0,0,0,.1289.216l.937,9.8573a3.1024,3.1024,0,0,0-.9623,2.2331,3.2352,3.2352,0,0,0,1.3477,2.5722,2.2611,2.2611,0,0,0,1.373.4688h5.8906a2.2612,2.2612,0,0,0,1.3731-.4688,3.2353,3.2353,0,0,0,1.3476-2.5722,3.0749,3.0749,0,0,0-.8456-2.104l.9429-9.9207a2.2256,2.2256,0,0,0,.4721-1.3621V74.1094h1.1992a6.5838,6.5838,0,0,0,6.5762-6.5762V66.4307a2.2589,2.2589,0,0,0,1.0615-1.6465l.18-1.459a2.2359,2.2359,0,0,0,.5049-1.1l.373-2.3555c.0029-.0166.0059-.0342.0078-.0508L72.48,52.1167A2.2294,2.2294,0,0,0,72.7119,50.19ZM32.6274,51.9023a6.5384,6.5384,0,0,0-4.3,1.625l-.1425-.2353.706-2.5249,4.0513-3.9995v4.9658c0,.0566.0019.1133.0063.1689Zm26.2232,0h-.6641c.0039-.0556.0059-.1118.0059-.1689V46.9971l3.4785,3.5175.54,2.3208A6.5165,6.5165,0,0,0,58.8506,51.9023Z" transform="translate(-18.4415 -9.5786)" fill="#fff"/><g id="Shape"><polygon points="37.182 48.49 27.195 51.148 17.018 48.49 17.018 42.155 37.182 42.155 37.182 48.49 37.182 48.49" fill="#231f20"/><path d="M45.6366,61.0547a.3229.3229,0,0,1-.0829-.0107L35.3769,58.3861a.3281.3281,0,0,1-.2453-.3175V51.7332a.3281.3281,0,0,1,.3282-.3282H55.6232a.3281.3281,0,0,1,.3282.3282v6.3354a.3283.3283,0,0,1-.2438.3172L45.721,61.0437A.3265.3265,0,0,1,45.6366,61.0547Zm-9.8487-3.24,9.8479,2.572,9.6591-2.5707V52.0615H35.7879Zm19.8353.2536h0Z" transform="translate(-18.4415 -9.5786)" fill="#231f20"/><path d="M36.9981,57.5526a.3281.3281,0,0,1-.3282-.3282V54.56l-.8372-1.0965a.3278.3278,0,0,1-.0673-.1991v-2.756a.3282.3282,0,1,1,.6564,0v2.645L37.259,54.25a.3278.3278,0,0,1,.0673.1991v2.7757A.3281.3281,0,0,1,36.9981,57.5526Z" transform="translate(-18.4415 -9.5786)" fill="#8e2abe"/><path d="M37.66,57.7272a.3281.3281,0,0,1-.3282-.3282V50.5081a.3282.3282,0,1,1,.6564,0V57.399A.3281.3281,0,0,1,37.66,57.7272Z" transform="translate(-18.4415 -9.5786)" fill="#eff4ee"/><path d="M38.5305,57.9567a.3282.3282,0,0,1-.3267-.3011,12.5673,12.5673,0,0,1,.0186-3.005,26.02,26.02,0,0,0-.1048-4.118.3282.3282,0,0,1,.6545-.0491,24.4033,24.4033,0,0,1,.0673,4.3915,12.68,12.68,0,0,0,.0186,2.7263.3282.3282,0,0,1-.3.3542Z" transform="translate(-18.4415 -9.5786)" fill="#25e899"/><path d="M39.5124,58.2154a.3283.3283,0,0,1-.3279-.3187l-.1967-6.75a.3284.3284,0,0,1,.3186-.3376.3325.3325,0,0,1,.3376.3186l.1967,6.75a.3284.3284,0,0,1-.3186.3376Z" transform="translate(-18.4415 -9.5786)" fill="#ffce08"/><path d="M40.32,58.4283a.3281.3281,0,0,1-.3282-.3282V55.5367a.3286.3286,0,0,1,.0619-.1918l.4952-.6878V53.4323a.3282.3282,0,1,1,.6564,0v1.3306a.3286.3286,0,0,1-.0619.1918l-.4952.6878V58.1A.3282.3282,0,0,1,40.32,58.4283Z" transform="translate(-18.4415 -9.5786)" fill="#f9006c"/><path d="M43.3174,59.2184a.3286.3286,0,0,1-.3087-.44,2.8405,2.8405,0,0,0-.1771-1.9l-.0082-.0236a8.8621,8.8621,0,0,1-.1952-2.06.3282.3282,0,0,1,.3282-.3265h.0016a.3283.3283,0,0,1,.3266.33,8.3769,8.3769,0,0,0,.1588,1.8411l.0082.0235a3.4244,3.4244,0,0,1,.1747,2.3383A.3285.3285,0,0,1,43.3174,59.2184Z" transform="translate(-18.4415 -9.5786)" fill="#8e2abe"/><path d="M44.2042,59.452a.3281.3281,0,0,1-.3282-.3282V55.18a.3282.3282,0,1,1,.6564,0v3.9441A.3281.3281,0,0,1,44.2042,59.452Z" transform="translate(-18.4415 -9.5786)" fill="#0fce7c"/><path d="M54.9894,57.3312a.3281.3281,0,0,1-.3282-.3282V50.5081a.3282.3282,0,0,1,.6564,0V57.003A.3281.3281,0,0,1,54.9894,57.3312Z" transform="translate(-18.4415 -9.5786)" fill="#eff4ee"/><path d="M54.0855,57.48a.3049.3049,0,0,1-.04-.0025.3282.3282,0,0,1-.2859-.3656,8.4139,8.4139,0,0,0,.0513-2.2369,24.3652,24.3652,0,0,1,.0671-4.3915.3282.3282,0,0,1,.6545.0491,25.9863,25.9863,0,0,0-.1046,4.1181,8.5855,8.5855,0,0,1-.0168,2.5409A.3282.3282,0,0,1,54.0855,57.48Z" transform="translate(-18.4415 -9.5786)" fill="#25e899"/><path d="M50.7633,58.4283a.3281.3281,0,0,1-.3282-.3282V55.6426l-.495-.6879a.3274.3274,0,0,1-.0619-.1917V53.4324a.3282.3282,0,0,1,.6564,0v1.2248l.495.6879a.3274.3274,0,0,1,.0619.1917V58.1A.3281.3281,0,0,1,50.7633,58.4283Z" transform="translate(-18.4415 -9.5786)" fill="#15003e"/><path d="M49.6739,58.7153a.3282.3282,0,0,1-.328-.32l-.1021-4.3188a.3282.3282,0,1,1,.6562-.0156l.1021,4.3188a.3281.3281,0,0,1-.32.3359Z" transform="translate(-18.4415 -9.5786)" fill="#f9006c"/><path d="M48.95,58.906a.3281.3281,0,0,1-.3282-.3282V54.5123a.3282.3282,0,0,1,.6564,0v4.0655A.3281.3281,0,0,1,48.95,58.906Z" transform="translate(-18.4415 -9.5786)" fill="#0fce7c"/><path d="M47.7657,59.2184a.3284.3284,0,0,1-.3088-.217,3.4218,3.4218,0,0,1,.1745-2.3375L47.64,56.64a8.3683,8.3683,0,0,0,.1587-1.8411.3282.3282,0,0,1,.3265-.33h.0012a.3282.3282,0,0,1,.3287.3265,8.8661,8.8661,0,0,1-.195,2.06l-.0085.0244a2.8383,2.8383,0,0,0-.1769,1.8991.3283.3283,0,0,1-.3088.44Z" transform="translate(-18.4415 -9.5786)" fill="#3e00ff"/><path d="M46.7338,59.452a.3281.3281,0,0,1-.3282-.3282V55.18a.3282.3282,0,1,1,.6564,0v3.9441A.3281.3281,0,0,1,46.7338,59.452Z" transform="translate(-18.4415 -9.5786)" fill="#ffce08"/></g><g id="Shape-2" data-name="Shape"><path d="M55.9454,37.4346l-2.2811-1.0815H37.4185l-2.2294,1.0815V51.7334H39.093a6.73,6.73,0,0,0,12.8968,0h3.9556Zm-15.2364-4.06H50.41v2.9789H40.709Z" transform="translate(-18.4415 -9.5786)" fill="#ffce08"/><path d="M45.5414,56.7848a7.0191,7.0191,0,0,1-6.63-4.8048H35.1891a.2466.2466,0,0,1-.2466-.2466V37.4346a.2467.2467,0,0,1,.139-.2219l2.2294-1.0815a.2473.2473,0,0,1,.1076-.0247h3.0439V33.3742a.2466.2466,0,0,1,.2466-.2466H50.41a.2466.2466,0,0,1,.2466.2466v2.7323h3.0081a.248.248,0,0,1,.1057.0237l2.2812,1.0815a.2467.2467,0,0,1,.1409.2229V51.7334a.2466.2466,0,0,1-.2466.2466H52.1712A7.02,7.02,0,0,1,45.5414,56.7848Zm-10.1057-5.298H39.093a.2466.2466,0,0,1,.2363.1762,6.483,6.483,0,0,0,12.4243,0,.2466.2466,0,0,1,.2363-.1762h3.709V37.5906l-2.09-.9909H37.4752l-2.04.9894Zm5.52-15.38h9.2075V33.6209H40.9556Z" transform="translate(-18.4415 -9.5786)" fill="#15003e"/><path d="M38.72,32.06c-1.7406-2.315-4.2233-9.8606-2.2706-14.04a10.6093,10.6093,0,0,1,6.6265-5.2761c1.2622-.3973,1.5471-.9195,2.4659-.9195s1.2036.5222,2.4659.9195a10.61,10.61,0,0,1,6.6265,5.2761c1.9527,4.1789-.53,11.7245-2.2706,14.04Z" transform="translate(-18.4415 -9.5786)" fill="#ddb40a"/><path d="M52.3634,32.3069H38.72a.2464.2464,0,0,1-.1971-.0984c-1.6908-2.2486-4.3119-9.98-2.297-14.2922,1.561-3.3405,4.9154-4.8215,6.7759-5.407a6.2735,6.2735,0,0,0,1.17-.5117,2.4471,2.4471,0,0,1,2.739,0,6.2669,6.2669,0,0,0,1.17.5117c1.86.5855,5.215,2.0664,6.7758,5.407,2.0149,4.312-.6062,12.0435-2.2969,14.2922A.2457.2457,0,0,1,52.3634,32.3069Zm-13.5185-.4931H52.2382c1.6375-2.2949,4.0809-9.6041,2.1723-13.6886-1.481-3.1695-4.6938-4.5841-6.4771-5.1452a6.8022,6.8022,0,0,1-1.255-.5473,1.9709,1.9709,0,0,0-2.2736,0,6.7954,6.7954,0,0,1-1.255.5473c-1.7833.5611-4.9962,1.9757-6.4772,5.1452C34.7639,22.21,37.2074,29.519,38.8449,31.8138Z" transform="translate(-18.4415 -9.5786)" fill="#15003e"/><path d="M45.5415,35.4982A7.111,7.111,0,0,1,40.36,32.9665a15.3529,15.3529,0,0,1-3.66-8.2514c-.2895-2.1849-.7129-5.3362,1.2561-7.8915a9.56,9.56,0,0,1,7.5862-3.4322,9.56,9.56,0,0,1,7.5862,3.4322c1.9691,2.5554,1.5457,5.7068,1.2561,7.8915a15.3533,15.3533,0,0,1-3.66,8.2514A7.1113,7.1113,0,0,1,45.5415,35.4982Z" transform="translate(-18.4415 -9.5786)" fill="#ffce08"/><path d="M45.5414,35.7448a7.38,7.38,0,0,1-5.3766-2.6273,15.6823,15.6823,0,0,1-3.71-8.37c-.2887-2.1782-.7215-5.4445,1.3052-8.0745a9.7743,9.7743,0,0,1,7.7815-3.5282A9.774,9.774,0,0,1,53.323,16.673c2.0268,2.63,1.5939,5.8966,1.3075,8.058a15.698,15.698,0,0,1-3.7123,8.3866A7.3809,7.3809,0,0,1,45.5414,35.7448Zm0-22.107a9.28,9.28,0,0,0-7.3909,3.3362c-1.9015,2.4676-1.5013,5.4872-1.2092,7.692a15.0834,15.0834,0,0,0,3.6132,8.1494,6.8454,6.8454,0,0,0,4.9869,2.4363,6.8453,6.8453,0,0,0,4.987-2.4363,15.0652,15.0652,0,0,0,3.6109-8.1327c.2943-2.2214.6945-5.241-1.2069-7.7087A9.28,9.28,0,0,0,45.5414,13.6378Z" transform="translate(-18.4415 -9.5786)" fill="#15003e"/><path d="M55.347,27.119a.2543.2543,0,0,1-.0415-.0034l-1.263-.2136a.2467.2467,0,0,1-.202-.2843l.546-3.23a.2467.2467,0,0,1,.2843-.202l1.2631.2136a.2467.2467,0,0,1,.202.2843l-.5462,3.23A.2465.2465,0,0,1,55.347,27.119Zm-.979-.6622.7767.1313.4639-2.7435-.7768-.1313Zm-18.6337.6618a.2465.2465,0,0,1-.2428-.2054l-.5461-3.23a.2467.2467,0,0,1,.202-.2843l1.2631-.2136a.2467.2467,0,0,1,.2843.202l.546,3.23a.2467.2467,0,0,1-.202.2843l-1.263.2136A.2543.2543,0,0,1,35.7343,27.1186Zm-.2615-3.2744.4639,2.7435.7767-.1313L36.25,23.7129Z" transform="translate(-18.4415 -9.5786)" fill="#15003e"/><polygon points="37.504 51.69 27.195 54.387 16.748 51.69 16.748 46.508 27.195 49.262 37.504 46.508 37.504 51.69" fill="#ddb40a"/><path d="M45.6366,64.2118a.2465.2465,0,0,1-.0616-.0078L35.1275,61.5073a.2465.2465,0,0,1-.1849-.2388V56.0872a.2466.2466,0,0,1,.3094-.2385l10.3842,2.7369,10.2456-2.7367a.2465.2465,0,0,1,.31.2382v5.1813a.2466.2466,0,0,1-.1842.2386L45.699,64.2038A.249.249,0,0,1,45.6366,64.2118ZM35.4357,61.0775l10.2005,2.633,10.0627-2.6323v-4.67L45.7,59.0791a.2488.2488,0,0,1-.1265,0L35.4357,56.4072Zm20.51.191h0Z" transform="translate(-18.4415 -9.5786)" fill="#15003e"/><path d="M51.1931,36.335c.0012-.0168.0026-.0337.0026-.0508a.7861.7861,0,0,0-.786-.786H40.7249a.7861.7861,0,0,0-.786.786c0,.0171.0016.0339.0026.0508Zm-13.7746,0s7.6788,2.682,7.6788,4.3743v.8844a.2842.2842,0,0,1-.1522.267L34.7356,44.4915a.1437.1437,0,0,1-.1458-.1487V37.1314S34.6143,36.335,37.4185,36.335Zm16.2459,0s-7.6788,2.682-7.6788,4.3743V41.62a.2461.2461,0,0,0,.1558.2415L56.34,44.49a.13.13,0,0,0,.1525-.1417V37.1313S56.4688,36.335,53.6644,36.335Z" transform="translate(-18.4415 -9.5786)" fill="#ffce08"/><path d="M34.7357,44.7381a.3856.3856,0,0,1-.3924-.3953V37.1314c.0076-.25.2513-1.043,3.0753-1.043a.2475.2475,0,0,1,.0813.0138c1.31.4575,7.844,2.83,7.844,4.6072v.8844a.5322.5322,0,0,1-.3014.4936.2434.2434,0,0,1-.0358.0122L34.7973,44.73A.2464.2464,0,0,1,34.7357,44.7381Zm.1008-.3953h0Zm2.54-7.7612c-2.2548.0066-2.54.5518-2.54.5574v7.0719l10.0108-2.58a.3022.3022,0,0,0,.0035-.0376v-.8844C44.8507,39.6089,40.2838,37.6006,37.3768,36.5816Zm18.9817,8.156a.3879.3879,0,0,1-.0546-.0038l-.025-.0051L46.08,42.1a.4922.4922,0,0,1-.3408-.48v-.9108c0-1.7774,6.5341-4.15,7.844-4.6072a.2475.2475,0,0,1,.0813-.0138c2.8242,0,3.0677.7925,3.075,1.0355v7.2242a.3711.3711,0,0,1-.3809.3895Zm-10.13-3.1082,10.0177,2.5815V37.1577c-.0307-.0626-.3505-.57-2.54-.5761-2.907,1.0192-7.4739,3.0276-7.4739,4.1277Zm4.9644-5.0479H39.9414a.2466.2466,0,0,1-.2462-.2325c-.002-.0292-.003-.0469-.003-.0648a1.0339,1.0339,0,0,1,1.0326-1.0326H50.41a1.0338,1.0338,0,0,1,1.0326,1.0326c0,.0208-.0013.0415-.0028.062A.2526.2526,0,0,1,51.1931,36.5815Zm-10.9708-.4931h10.69a.54.54,0,0,0-.5027-.3436H40.7248A.54.54,0,0,0,40.2223,36.0884Z" transform="translate(-18.4415 -9.5786)" fill="#15003e"/><path d="M47.275,66.896a.2466.2466,0,0,1-.2074-.38l1.6751-2.6117a.2466.2466,0,0,1,.1386-.1036l7.9536-2.32a.2466.2466,0,0,1,.1381.4735l-7.8649,2.2942-1.6252,2.5339A.2469.2469,0,0,1,47.275,66.896Z" transform="translate(-18.4415 -9.5786)" fill="#15003e"/><path d="M55.9454,62.878,49.6741,64.86l-.0512,2.4659,5.7821,2.3693ZM48.949,67.0845l-1.7134,1.16.5416,4.5932h1.1717V67.0845Zm.6662.967,5.3742,2.1275v2.6592H49.5719Zm4.3265,22.64-2.0551-1.2329v-9.791h3.1028Zm-2.8678-1.2329-2.0551,1.2329L47.9711,79.6678h3.1028Z" transform="translate(-18.4415 -9.5786)" fill="#ffce08"/><path d="M53.9417,90.9384a.2482.2482,0,0,1-.1269-.035L51.76,89.67a.2469.2469,0,0,1-.12-.2115V79.6679a.2467.2467,0,0,1,.2466-.2466h3.1028a.2467.2467,0,0,1,.2455.27L54.1872,90.7151a.2466.2466,0,0,1-.2455.2233Zm-1.8085-1.6192,1.6.96.985-10.3648H52.1332Zm-3.1144,1.6192a.2466.2466,0,0,1-.2455-.2233L47.7256,79.6912a.2467.2467,0,0,1,.2455-.27h3.1028a.2467.2467,0,0,1,.2466.2466v9.7909a.2468.2468,0,0,1-.12.2115l-2.0551,1.2331A.2482.2482,0,0,1,49.0188,90.9384Zm-.7766-11.024.985,10.3648,1.6-.96V79.9144Zm2.8317,9.5443h0Zm3.9155-16.3739H49.5719a.2469.2469,0,0,1-.2466-.2487l.0434-4.7869a.2466.2466,0,0,1,.3374-.227L55.08,69.95a.2466.2466,0,0,1,.1558.2293v2.6594A.2467.2467,0,0,1,54.9894,73.0848Zm-5.1687-.4931h4.9221V70.3464L49.8586,68.413Zm-.8717.4931H47.7772a.2467.2467,0,0,1-.2449-.2177l-.5415-4.5933a.2465.2465,0,0,1,.1066-.233l1.7133-1.16a.2465.2465,0,0,1,.3848.2041v5.7537A.2465.2465,0,0,1,48.949,73.0848Zm-.9525-.4931h.706V67.5494l-1.2043.8157Zm7.4085-2.65a.2469.2469,0,0,1-.0935-.0184l-5.7821-2.3693a.2469.2469,0,0,1-.1531-.2333l.0512-2.4659a.2466.2466,0,0,1,.1722-.23l6.2714-1.9822a.2467.2467,0,0,1,.32.2546l-.5405,6.8174a.2466.2466,0,0,1-.2458.2271Zm-5.5321-2.78,5.3129,2.177.4848-6.1156-5.7537,1.8186Z" transform="translate(-18.4415 -9.5786)" fill="#15003e"/><path d="M48.4711,93.1956h5.89a1.039,1.039,0,0,0,.4748-.7947c0-.8636-1.5313-1.5639-3.42-1.5639s-3.42.7-3.42,1.5639A1.0387,1.0387,0,0,0,48.4711,93.1956Z" transform="translate(-18.4415 -9.5786)" fill="#ddb40a"/><path d="M54.3612,93.4422h-5.89a.247.247,0,0,1-.1507-.0515,1.2721,1.2721,0,0,1-.5707-.99c0-1.0154,1.6105-1.8107,3.6665-1.8107s3.6664.7953,3.6664,1.8107a1.2718,1.2718,0,0,1-.5705.99A.2475.2475,0,0,1,54.3612,93.4422Zm-5.8028-.4932h5.7154a.7744.7744,0,0,0,.3155-.5481c0-.6231-1.3032-1.3175-3.1732-1.3175s-3.1733.6944-3.1733,1.3175A.7746.7746,0,0,0,48.5584,92.949Z" transform="translate(-18.4415 -9.5786)" fill="#15003e"/><path d="M43.9981,66.896a.2465.2465,0,0,1-.2078-.1135L42.165,64.2486,34.3,61.9544a.2466.2466,0,1,1,.1381-.4735l7.9537,2.32a.2471.2471,0,0,1,.1386.1036l1.6752,2.6117a.2467.2467,0,0,1-.2075.38Z" transform="translate(-18.4415 -9.5786)" fill="#15003e"/><path d="M42.3241,67.0845l1.7132,1.16-.5416,4.5932H42.3241Zm-.623,5.7537L41.599,64.86,35.3275,62.878l.956,7.3009v2.6592h5.4176Zm-4.37,17.8535,2.0551-1.2329v-9.791H36.2835Zm2.8678-1.2329,2.0551,1.2329,1.0477-11.0239H40.199Z" transform="translate(-18.4415 -9.5786)" fill="#ffce08"/><path d="M42.2542,90.9384a.2482.2482,0,0,1-.1269-.035L40.0722,89.67a.2469.2469,0,0,1-.12-.2115V79.6679a.2467.2467,0,0,1,.2466-.2466h3.1027a.2467.2467,0,0,1,.2455.27L42.5,90.7151a.2466.2466,0,0,1-.2455.2233Zm-1.8085-1.6192,1.6.96.9849-10.3648h-2.585Zm-3.1145,1.6192a.2466.2466,0,0,1-.2455-.2233L36.038,79.6911a.2467.2467,0,0,1,.2455-.27h3.1027a.2467.2467,0,0,1,.2466.2466v9.7909a.2468.2468,0,0,1-.12.2115L37.458,90.9033A.2467.2467,0,0,1,37.3312,90.9384Zm-.7765-11.024L37.54,90.2792l1.6-.96V79.9144Zm6.9409-6.83H42.324a.2467.2467,0,0,1-.2466-.2466V67.0845a.2465.2465,0,0,1,.3848-.2041l1.7132,1.16a.2466.2466,0,0,1,.1066.233L43.74,72.8672A.2463.2463,0,0,1,43.4956,73.0848Zm-.925-.4931h.7058l.4984-4.2266-1.2041-.8157v5.0423Zm-.87.4931H36.2836a.2467.2467,0,0,1-.2466-.2466V70.1949L35.083,62.91a.2468.2468,0,0,1,.3189-.2672l6.2715,1.9822a.2467.2467,0,0,1,.1722.2319l.1021,7.978a.2467.2467,0,0,1-.2466.25Zm-5.171-.4931h4.9212l-.0967-7.55L35.6222,63.23l.9059,6.917a.247.247,0,0,1,.002.0321Z" transform="translate(-18.4415 -9.5786)" fill="#15003e"/><path d="M42.8021,93.1956h-5.89a1.039,1.039,0,0,1-.4746-.7947c0-.8636,1.5312-1.5639,3.42-1.5639s3.42.7,3.42,1.5639A1.0394,1.0394,0,0,1,42.8021,93.1956ZM34.17,37.4165v6.324l-.6558.3278L30.1134,38.7A6.6454,6.6454,0,0,1,34.17,37.4165Z" transform="translate(-18.4415 -9.5786)" fill="#ddb40a"/><path d="M42.8021,93.4422h-5.89a.2466.2466,0,0,1-.1507-.0515,1.2724,1.2724,0,0,1-.5705-.99c0-1.0154,1.6105-1.8107,3.6665-1.8107s3.6665.7953,3.6665,1.8107a1.2725,1.2725,0,0,1-.5706.99A.2471.2471,0,0,1,42.8021,93.4422Zm-5.8029-.4932h5.7154a.7746.7746,0,0,0,.3157-.5481c0-.6231-1.3033-1.3175-3.1733-1.3175s-3.1733.6944-3.1733,1.3175A.7744.7744,0,0,0,36.9992,92.949ZM33.5147,44.3148a.2463.2463,0,0,1-.2084-.1146l-3.4011-5.3681a.2467.2467,0,0,1,.049-.32A6.842,6.842,0,0,1,34.1705,37.17a.2466.2466,0,0,1,.2466.2466V43.74a.2468.2468,0,0,1-.1363.2206l-.6559.3278A.2452.2452,0,0,1,33.5147,44.3148Zm-3.07-5.5531,3.1593,4.9863.32-.16V37.6673A6.634,6.634,0,0,0,30.4443,38.7617Z" transform="translate(-18.4415 -9.5786)" fill="#15003e"/><path d="M29.8676,39.1647l-7.3461,8.1928,2.6891,3.8859,7.4832-7.3878Zm-7.9493,8.12,6.27,10.3465-2.2538,1.4808L20.689,50.9112Z" transform="translate(-18.4415 -9.5786)" fill="#ffce08"/><path d="M25.8,59.4053l.0809-.0522a.2463.2463,0,0,1-.1539-.1078l-5.2452-8.201a.2467.2467,0,0,1-.0259-.2121l1.2294-3.6263a.2466.2466,0,0,1,.4444-.0486l.15.2479a.2467.2467,0,0,1,.0584-.2122L29.684,39a.2464.2464,0,0,1,.3947.0374l2.8262,4.6909a.2468.2468,0,0,1-.0379.3028l-7.4832,7.3878a.2467.2467,0,0,1-.3761-.0352l-2.5524-3.6883,5.9436,9.8083a.2461.2461,0,0,1,.0232.2052S25.72,59.4564,25.8,59.4053Zm-4.8391-8.527,5.0468,7.8909L27.854,57.556l-5.8721-9.69Zm1.8745-3.501,2.4113,3.4844,7.1361-7.0452-2.5539-4.2389Z" transform="translate(-18.4415 -9.5786)" fill="#15003e"/><path d="M57.1025,37.4165v6.324l.6558.3278L61.16,38.7A6.6454,6.6454,0,0,0,57.1025,37.4165Z" transform="translate(-18.4415 -9.5786)" fill="#ddb40a"/><path d="M57.7582,44.3148a.2452.2452,0,0,1-.11-.026l-.6558-.3278a.2468.2468,0,0,1-.1363-.2206v-6.324a.2466.2466,0,0,1,.2466-.2466,6.8427,6.8427,0,0,1,4.2163,1.3421.2466.2466,0,0,1,.049.32L57.9666,44.2A.2466.2466,0,0,1,57.7582,44.3148Zm-.4091-.7268.32.16,3.1593-4.9863a6.6336,6.6336,0,0,0-3.48-1.0944Z" transform="translate(-18.4415 -9.5786)" fill="#15003e"/><path d="M61.4055,39.1647l7.346,8.1928L66.8343,49.932l-6.9354-8.3371Zm-1.68,2.8958-1.27,2.0078,7.4168,7.499.6556-1.27Zm9.6293,5.2245-6.27,10.3465,2.2538,1.4808,5.2451-8.2011Z" transform="translate(-18.4415 -9.5786)" fill="#ffce08"/><path d="M62.874,57.5037l5.9887-9.8827L67.032,50.0794a.2464.2464,0,0,1-.1911.0991.2354.2354,0,0,1-.1116-.0234.2466.2466,0,0,1,.0174.255l-.6556,1.27a.2465.2465,0,0,1-.3944.06L58.28,44.2417a.2466.2466,0,0,1-.0331-.3052l1.27-2.0078a.2464.2464,0,0,1,.1928-.1142.222.222,0,0,1,.053.0023l-.0533-.0642a.2465.2465,0,0,1-.02-.2876l1.5065-2.43A.2465.2465,0,0,1,61.5891,39l7.346,8.1928a.2462.2462,0,0,1,.0583.2125l.15-.2482a.2466.2466,0,0,1,.4444.0486l1.2293,3.6263a.2468.2468,0,0,1-.0259.2121l-5.2451,8.201a.2461.2461,0,0,1-.1538.1077S62.8351,57.5678,62.874,57.5037Zm.5451.0523,1.8465,1.2132,5.0467-7.8909-1.0212-3.0127ZM58.7684,44.0343l7.04,7.1182.4253-.824L59.7518,42.48Zm1.4337-2.46,6.6215,7.96,1.61-2.1616-6.9916-7.7975Z" transform="translate(-18.4415 -9.5786)" fill="#15003e"/><path d="M42.5471,73.4668V73.95H41.1246v-.4835h-1.947V73.95h-1.791v-.4835H35.8679v5.5845h1.5187v-.5561h1.791v.5561h1.947v-.5561h1.4225v.5561h1.1217V73.4668Zm6.1787-.0362v.4835h1.4225v-.4835h1.947v.4835h1.7911v-.4835h1.5185v5.5845H53.8864V78.459H52.0953v.5561h-1.947V78.459H48.7258v.5561H47.6041V73.4306Z" transform="translate(-18.4415 -9.5786)" fill="#ddb40a"/><path d="M43.6688,79.298H42.5471a.2467.2467,0,0,1-.2466-.2466v-.31h-.9294v.31a.2467.2467,0,0,1-.2466.2466h-1.947a.2467.2467,0,0,1-.2466-.2466v-.31H37.6331v.31a.2467.2467,0,0,1-.2466.2466H35.868a.2467.2467,0,0,1-.2466-.2466V73.4669a.2467.2467,0,0,1,.2466-.2466h1.5187a.2467.2467,0,0,1,.2466.2466v.2368h1.2978v-.2368a.2467.2467,0,0,1,.2466-.2466h1.947a.2467.2467,0,0,1,.2466.2466v.2368h.9294v-.2368a.2467.2467,0,0,1,.2466-.2466H43.669a.2467.2467,0,0,1,.2466.2466v5.5845A.247.247,0,0,1,43.6688,79.298Zm-.8751-.4932h.6285V73.7134h-.6285V73.95a.2467.2467,0,0,1-.2466.2466H41.1246a.2467.2467,0,0,1-.2466-.2466v-.2367H39.4242V73.95a.2467.2467,0,0,1-.2466.2466h-1.791A.2467.2467,0,0,1,37.14,73.95v-.2367H36.1145v5.0914H37.14v-.31a.2467.2467,0,0,1,.2466-.2466h1.791a.2467.2467,0,0,1,.2466.2466v.31H40.878v-.31a.2467.2467,0,0,1,.2466-.2466h1.4225a.2467.2467,0,0,1,.2466.2466Zm12.6113.4569H53.8864a.2467.2467,0,0,1-.2466-.2466v-.31H52.3419v.31a.2467.2467,0,0,1-.2466.2466H50.1482a.2467.2467,0,0,1-.2466-.2466v-.31h-.9294v.31a.2467.2467,0,0,1-.2466.2466H47.6039a.2467.2467,0,0,1-.2466-.2466V73.4306a.2467.2467,0,0,1,.2466-.2466h1.1217a.2467.2467,0,0,1,.2466.2466v.237h.9294v-.237a.2467.2467,0,0,1,.2466-.2466h1.9471a.2467.2467,0,0,1,.2466.2466v.237H53.64v-.237a.2467.2467,0,0,1,.2466-.2466H55.405a.2467.2467,0,0,1,.2466.2466v5.5845A.2467.2467,0,0,1,55.405,79.2617Zm-1.272-.4932h1.0254V73.6771H54.133v.237a.2467.2467,0,0,1-.2466.2466H52.0953a.2467.2467,0,0,1-.2466-.2466v-.237H50.3948v.237a.2467.2467,0,0,1-.2466.2466H48.7257a.2467.2467,0,0,1-.2466-.2466v-.237h-.6285v5.0914h.6285v-.31a.2467.2467,0,0,1,.2466-.2466h1.4225a.2467.2467,0,0,1,.2466.2466v.31h1.4539v-.31a.2467.2467,0,0,1,.2466-.2466h1.7911a.2467.2467,0,0,1,.2466.2466Z" transform="translate(-18.4415 -9.5786)" fill="#15003e"/></g><path id="Shape-3" data-name="Shape" d="M64.6665,54.5686l-1.1613-4.9968.6393-.1485L65.3058,54.42Zm-38.6487-.9517-.6323-.1767,1.0694-3.8259.6323.1767Z" transform="translate(-18.4415 -9.5786)" fill="#15003e"/><g id="Shape-4" data-name="Shape"><path d="M54.63,23.429l1.2631.2135-.5461,3.23-1.263-.2135ZM36.9976,26.6584l-1.263.2135-.5461-3.23,1.2631-.2135Z" transform="translate(-18.4415 -9.5786)" fill="#ddb40a"/><path d="M55.347,27.119a.2543.2543,0,0,1-.0415-.0034l-1.263-.2136a.2467.2467,0,0,1-.202-.2843l.546-3.23a.2467.2467,0,0,1,.2843-.202l1.2631.2136a.2467.2467,0,0,1,.202.2843l-.5462,3.23A.2465.2465,0,0,1,55.347,27.119Zm-.979-.6622.7767.1313.4639-2.7435-.7768-.1313Zm-18.6337.6618a.2465.2465,0,0,1-.2428-.2054l-.5461-3.23a.2467.2467,0,0,1,.202-.2843l1.2631-.2136a.2467.2467,0,0,1,.2843.202l.546,3.23a.2467.2467,0,0,1-.202.2843l-1.263.2136A.2543.2543,0,0,1,35.7343,27.1186Zm-.2615-3.2744.4639,2.7435.7767-.1313L36.25,23.7129Z" transform="translate(-18.4415 -9.5786)" fill="#15003e"/></g><g id="Shape-5" data-name="Shape" opacity="0.2"><path d="M45.5415,28.3086a4.87,4.87,0,0,1-1.2685.9415l2.5333-.0019A4.8658,4.8658,0,0,1,45.5415,28.3086Z" transform="translate(-18.4415 -9.5786)" fill="#231f20"/></g><path id="Shape-6" data-name="Shape" d="M46.8188,29.4405a.2465.2465,0,0,1-.1123-.0272,6.7331,6.7331,0,0,1-1.1649-.7795,6.7347,6.7347,0,0,1-1.165.7795.2466.2466,0,0,1-.225-.4388,6.4087,6.4087,0,0,0,1.2235-.8477.2466.2466,0,0,1,.3331,0,6.4061,6.4061,0,0,0,1.2234.8477.2466.2466,0,0,1-.1128.466Z" transform="translate(-18.4415 -9.5786)" fill="#15003e"/><g id="Shape-7" data-name="Shape"><polygon points="25.366 21.424 28.834 21.424 28.834 22.972 25.366 22.972 25.366 21.424" fill="#ddb40a"/><path d="M47.2751,32.7968H43.8077a.2466.2466,0,0,1-.2466-.2466V31.0029a.2466.2466,0,0,1,.2466-.2466h3.4674a.2466.2466,0,0,1,.2466.2466V32.55A.2466.2466,0,0,1,47.2751,32.7968Zm-3.2207-.4932h2.9742V31.25H44.0544Z" transform="translate(-18.4415 -9.5786)" fill="#15003e"/></g><path id="Shape-8" data-name="Shape" d="M54.5654,20.9738H53.2833a.2469.2469,0,0,1-.1744-.0722,5.2629,5.2629,0,0,0-4.0458-1.68,3.7936,3.7936,0,0,0-2.766,1.1932c-.2918.2667-.5026.4594-.7558.4594s-.464-.1926-.7556-.4594a3.7938,3.7938,0,0,0-2.766-1.1932,5.2631,5.2631,0,0,0-4.0459,1.68.2465.2465,0,0,1-.1744.0722h-1.282a.2466.2466,0,0,1,0-.4932h1.18a5.6941,5.6941,0,0,1,4.3217-1.752,4.281,4.281,0,0,1,3.0987,1.3224,1.7291,1.7291,0,0,0,.4244.33,1.7881,1.7881,0,0,0,.4217-.33,4.2806,4.2806,0,0,1,3.0987-1.3224,5.6934,5.6934,0,0,1,4.3216,1.752h1.1806a.2466.2466,0,0,1,0,.4932Z" transform="translate(-18.4415 -9.5786)" fill="#15003e"/><circle id="Oval" cx="27.1" cy="3.0059" r="1" fill="#ffce08"/><path id="Shape-9" data-name="Shape" d="M45.5414,13.2752a.6908.6908,0,1,1,.6908-.6907A.6914.6914,0,0,1,45.5414,13.2752Zm0-.8883a.1976.1976,0,1,0,.1976.1976A.1978.1978,0,0,0,45.5414,12.3869Z" transform="translate(-18.4415 -9.5786)" fill="#15003e"/><path id="Shape-10" data-name="Shape" d="M47.766,28.1925a.2576.2576,0,0,1-.0337-.0022,5.0232,5.0232,0,0,1-2.191-1.1275A5.02,5.02,0,0,1,43.35,28.19a.2466.2466,0,1,1-.0667-.4887,4.9875,4.9875,0,0,0,2.091-1.1462.2466.2466,0,0,1,.3331,0,4.9882,4.9882,0,0,0,2.0911,1.1462.2466.2466,0,0,1-.0329.4909Z" transform="translate(-18.4415 -9.5786)" fill="#15003e"/><circle id="Oval-2" data-name="Oval" cx="27.1001" cy="40.3755" r="5.7198" fill="#ddb40a"/><path id="Shape-11" data-name="Shape" d="M45.5416,55.9205a5.9665,5.9665,0,1,1,5.9663-5.9664A5.9733,5.9733,0,0,1,45.5416,55.9205Zm0-11.44a5.4733,5.4733,0,1,0,5.4732,5.4733A5.4795,5.4795,0,0,0,45.5416,44.4808Z" transform="translate(-18.4415 -9.5786)" fill="#15003e"/><circle id="Oval-3" data-name="Oval" cx="27.1001" cy="40.3755" r="4.8618" fill="#ddb40a"/><path id="Shape-12" data-name="Shape" d="M45.5416,55.0625A5.1085,5.1085,0,1,1,50.65,49.954,5.1143,5.1143,0,0,1,45.5416,55.0625Zm0-9.7237a4.6153,4.6153,0,1,0,4.6153,4.6153A4.6205,4.6205,0,0,0,45.5416,45.3388Z" transform="translate(-18.4415 -9.5786)" fill="#15003e"/><circle id="Oval-4" data-name="Oval" cx="27.1001" cy="40.3755" r="4.1325" fill="#ffce08"/><path id="Shape-13" data-name="Shape" d="M45.5416,54.3331a4.3791,4.3791,0,1,1,4.3791-4.3791A4.3841,4.3841,0,0,1,45.5416,54.3331Zm0-8.265a3.8859,3.8859,0,1,0,3.8859,3.8859A3.89,3.89,0,0,0,45.5416,46.0681Z" transform="translate(-18.4415 -9.5786)" fill="#15003e"/><ellipse id="Oval-5" data-name="Oval" cx="27.1001" cy="40.3755" rx="3.1172" ry="3.1816" fill="#ddb40a"/><path id="Shape-14" data-name="Shape" d="M45.5416,53.3822a3.4287,3.4287,0,1,1,3.3637-3.4281A3.4,3.4,0,0,1,45.5416,53.3822Zm0-6.3631a2.9357,2.9357,0,1,0,2.8706,2.935A2.9066,2.9066,0,0,0,45.5416,47.0191Z" transform="translate(-18.4415 -9.5786)" fill="#15003e"/><circle id="Oval-6" data-name="Oval" cx="27.1001" cy="40.3755" r="2.4083" fill="#ffce08"/><path id="Shape-15" data-name="Shape" d="M45.5416,52.6089a2.6549,2.6549,0,1,1,2.6549-2.6549A2.6579,2.6579,0,0,1,45.5416,52.6089Zm0-4.8166a2.1617,2.1617,0,1,0,2.1617,2.1617A2.1641,2.1641,0,0,0,45.5416,47.7923Z" transform="translate(-18.4415 -9.5786)" fill="#15003e"/><circle id="Oval-7" data-name="Oval" cx="27.1" cy="40.3755" r="1.2894" fill="#ddb40a"/><path id="Shape-16" data-name="Shape" d="M45.5414,51.49a1.536,1.536,0,1,1,1.536-1.536A1.5377,1.5377,0,0,1,45.5414,51.49Zm0-2.5788a1.0428,1.0428,0,1,0,1.0428,1.0428A1.0439,1.0439,0,0,0,45.5414,48.9112Z" transform="translate(-18.4415 -9.5786)" fill="#15003e"/><path id="Shape-17" data-name="Shape" d="M37.3866,81.5347h-.949a.2466.2466,0,0,1,0-.4932h.949a.2466.2466,0,0,1,0,.4932Zm0-.6885H36.3721a.2466.2466,0,0,1,0-.4932h1.0145a.2466.2466,0,0,1,0,.4932ZM36.2837,70.4255a.2466.2466,0,0,1-.0912-.4757l5.3561-2.1274a.2466.2466,0,0,1,.1821.4583l-5.3561,2.1275A.2488.2488,0,0,1,36.2837,70.4255ZM45.5673,60.05a.2472.2472,0,0,1-.0678-.01l-9.8212-2.8117a.2466.2466,0,0,1,.1357-.4741l9.7547,2.7927,9.5454-2.62a.2466.2466,0,0,1,.1306.4756l-9.6121,2.6382A.25.25,0,0,1,45.5673,60.05ZM65.721,58.7611a.2453.2453,0,0,1-.1381-.0424l-2.2483-1.5233a.2466.2466,0,0,1,.2767-.4083L65.86,58.31a.2466.2466,0,0,1-.1386.4507Zm.3613-.5649a.2461.2461,0,0,1-.1387-.0428l-1.1244-.7665-.0091-.0062-1.1241-.7663a.2465.2465,0,0,1,.2778-.4074l.92.6275,1.5806-2.43a.2466.2466,0,0,1,.4134.2688l-1.5864,2.4392.93.6336a.2465.2465,0,0,1-.1391.45ZM26.7714,55.54a.2535.2535,0,0,1-.0431-.0037l-1.1472-.2019a.2462.2462,0,0,1-.1564-.0974l-1.3055-1.7884a.2465.2465,0,0,1,.0283-.3232l.7879-.7574a.2466.2466,0,0,1,.3418.3555l-.6327.6081,1.12,1.5343,1.0493.1847a.2466.2466,0,0,1-.0424.4894ZM21.536,52.4824a.2467.2467,0,0,1-.2256-.3462l.5723-1.2967a.2466.2466,0,1,1,.4513.1991l-.5723,1.2967A.2468.2468,0,0,1,21.536,52.4824Zm-.41-.6411a.2469.2469,0,0,1-.2267-.3434l.5588-1.3112a.2466.2466,0,0,1,.4536.1934l-.5588,1.3112A.2466.2466,0,0,1,21.126,51.8413Zm3.1923-1.6407a.2466.2466,0,0,1-.1892-.4046l8.1179-9.7223a.2466.2466,0,0,1,.3786.316L24.5077,50.112A.246.246,0,0,1,24.3183,50.2006Zm31.6272-1.2892H52.1413a.2467.2467,0,0,1-.2416-.1971,6.48,6.48,0,0,0-12.7219-.0027.2466.2466,0,0,1-.2421.2l-3.7466,0v-.4932h3.5463a6.9726,6.9726,0,0,1,13.6042,0h3.6059a.2466.2466,0,0,1,0,.4932Z" transform="translate(-18.4415 -9.5786)" fill="#15003e"/><g id="Shape-18" data-name="Shape"><path d="M67.0976,54.555a.4259.4259,0,0,1-.4259.4259h0a.4261.4261,0,1,1,.426-.4259Z" transform="translate(-18.4415 -9.5786)" fill="#ffce08"/><path d="M66.6717,55.2274a.6726.6726,0,1,1,.6725-.6725h0A.6732.6732,0,0,1,66.6717,55.2274Zm0-.8521a.1795.1795,0,1,0,.18.18A.18.18,0,0,0,66.6714,54.3753Z" transform="translate(-18.4415 -9.5786)" fill="#15003e"/></g><path id="Shape-19" data-name="Shape" d="M54.9894,72.2605H53.5406a.2466.2466,0,0,1,0-.4932h1.4488a.2466.2466,0,0,1,0,.4932Zm0-.6233H53.5406a.2466.2466,0,0,1,0-.4932h1.4488a.2466.2466,0,0,1,0,.4932Zm0-.691H53.5406a.2466.2466,0,0,1,0-.4932h1.4488a.2466.2466,0,0,1,0,.4932Zm-18.903-2.0268a.2466.2466,0,0,1-.17-.4253l.9719-.9241-.2019-2.2633-1.0122.1636a.2467.2467,0,1,1-.0786-.487l1.2736-.2058a.25.25,0,0,1,.1907.0488.2467.2467,0,0,1,.0942.1728l.236,2.6457a.2469.2469,0,0,1-.0756.2006l-1.0581,1.0062A.2463.2463,0,0,1,36.0864,68.9194Zm.6367-27.4386a.7392.7392,0,0,1-.7383-.7384v-2.26a.7384.7384,0,0,1,1.4767,0v2.26A.7393.7393,0,0,1,36.7231,41.4808Zm0-3.2439a.2455.2455,0,0,0-.2452.2452v2.26a.2453.2453,0,1,0,.4905,0v-2.26A.2455.2455,0,0,0,36.7231,38.2369Z" transform="translate(-18.4415 -9.5786)" fill="#15003e"/><circle id="Oval-8" data-name="Oval" cx="18.2817" cy="28.9035" r="1" fill="#25e899"/><path id="Shape-20" data-name="Shape" d="M36.7232,39.22a.7383.7383,0,1,1,.7383-.7383A.7391.7391,0,0,1,36.7232,39.22Zm0-.9835a.2452.2452,0,1,0,.2452.2452A.2455.2455,0,0,0,36.7232,38.2369Z" transform="translate(-18.4415 -9.5786)" fill="#15003e"/><path id="Shape-21" data-name="Shape" d="M52.6442,66.4218l-.0112,0a.2468.2468,0,0,1-.2354-.2574L52.5,63.8781a.2466.2466,0,1,1,.4928.022l-.1023,2.2861A.247.247,0,0,1,52.6442,66.4218Z" transform="translate(-18.4415 -9.5786)" fill="#15003e"/><circle id="Oval-9" data-name="Oval" cx="34.2026" cy="56.5966" r="1" fill="#15003e"/><g id="Shape-22" data-name="Shape"><path d="M50.7722,16.1814a.69.69,0,1,1-.69-.69" transform="translate(-18.4415 -9.5786)" fill="#ddb40a"/><path d="M50.0825,17.1177a.9363.9363,0,0,1,0-1.8726h0a.2466.2466,0,0,1,0,.4932.4432.4432,0,1,0,.4432.4432.2466.2466,0,0,1,.4932,0A.9375.9375,0,0,1,50.0825,17.1177Z" transform="translate(-18.4415 -9.5786)" fill="#15003e"/></g><path id="Shape-23" data-name="Shape" d="M64.6059,50.638,62.722,48.7332,62.89,48.56a1.345,1.345,0,1,1,1.891,1.9123ZM63.437,48.7548l1.1555,1.1684a.8517.8517,0,0,0-.738-1.2781A.9371.9371,0,0,0,63.437,48.7548Z" transform="translate(-18.4415 -9.5786)" fill="#15003e"/><path id="Shape-24" data-name="Shape" d="M48.8059,88.7a.2465.2465,0,0,1-.1868-.4075l.7382-.8577v-.9788h-.7646a.2466.2466,0,0,1,0-.4932h1.0112a.2467.2467,0,0,1,.2466.2466V87.526a.2471.2471,0,0,1-.06.1609l-.798.9271A.2456.2456,0,0,1,48.8059,88.7Zm5.7121-3.826a.2456.2456,0,0,1-.1421-.0453l-.7874-.5564a.2464.2464,0,0,1-.1043-.2013V82.315a.2467.2467,0,0,1,.2466-.2466h1.0071a.2466.2466,0,0,1,0,.4932h-.7606V83.943l.6831.4829a.2465.2465,0,0,1-.1424.4478ZM45.5673,60.7648a.2472.2472,0,0,1-.0678-.01l-9.8212-2.8117a.2466.2466,0,0,1,.1357-.4741l9.7547,2.7927,9.5454-2.62a.2466.2466,0,0,1,.1306.4756l-9.6121,2.6383A.25.25,0,0,1,45.5673,60.7648ZM55.9455,46.7722H54.7019a.2466.2466,0,0,1,0-.4932h1.2436a.2466.2466,0,1,1,0,.4932Zm10.7262-.2788a.2465.2465,0,0,1-.1615-.06l-1.3321-1.1547a.2466.2466,0,0,1-.0089-.3644l.7429-.7113a.2466.2466,0,0,1,.341.3562l-.5474.5241,1.0447.9056.8673-.1069a.2466.2466,0,0,1,.06.4895l-.9761.12A.2366.2366,0,0,1,66.6717,46.4934Zm-10.7262-.302H54.7019a.2466.2466,0,0,1,0-.4932h1.2436a.2466.2466,0,0,1,0,.4932Zm0-.5828H54.7019a.2466.2466,0,0,1,0-.4932h1.2436a.2466.2466,0,0,1,0,.4932Z" transform="translate(-18.4415 -9.5786)" fill="#15003e"/><path id="Shape-25" data-name="Shape" d="M54.6342,26.9839a.25.25,0,0,1-.0469-.0045.2466.2466,0,0,1-.1956-.2888l.2626-1.3655-.3354-.0582a.2466.2466,0,0,1,.0841-.4859l.3443.06.2605-1.355a.2466.2466,0,0,1,.4844.0932l-.2589,1.3461L55.6651,25a.2466.2466,0,1,1-.0841.4859l-.4408-.0764-.2642,1.3743A.2468.2468,0,0,1,54.6342,26.9839Zm-18.192,0a.2467.2467,0,0,1-.2419-.2006L35.9391,25.41l-.4373.0759A.2466.2466,0,1,1,35.4177,25l.4293-.0745-.2561-1.3471a.2465.2465,0,0,1,.4843-.0921l.2577,1.3549.347-.06a.2466.2466,0,1,1,.0841.4859l-.339.0589.26,1.3654a.2463.2463,0,0,1-.1962.2882A.2411.2411,0,0,1,36.4422,26.9839Z" transform="translate(-18.4415 -9.5786)" fill="#15003e"/><path id="Shape-26" data-name="Shape" d="M42.545,78.7418a.2467.2467,0,0,1-.2466-.2466V73.95a.2466.2466,0,0,1,.4932,0v4.545A.2467.2467,0,0,1,42.545,78.7418Zm-1.4182,0a.2467.2467,0,0,1-.2466-.2466V73.95a.2466.2466,0,1,1,.4932,0v4.545A.2466.2466,0,0,1,41.1268,78.7418Zm-1.9512,0a.2467.2467,0,0,1-.2466-.2466V73.95a.2466.2466,0,1,1,.4932,0v4.545A.2467.2467,0,0,1,39.1756,78.7418Zm-1.7869,0a.2467.2467,0,0,1-.2466-.2466V73.95a.2466.2466,0,0,1,.4932,0v4.545A.2467.2467,0,0,1,37.3887,78.7418Zm16.4955-.0363a.2467.2467,0,0,1-.2466-.2466V73.9141a.2466.2466,0,0,1,.4932,0v4.5448A.2467.2467,0,0,1,53.8842,78.7055Zm-1.7867,0a.2467.2467,0,0,1-.2466-.2466V73.9141a.2466.2466,0,0,1,.4932,0v4.5448A.2467.2467,0,0,1,52.0975,78.7055Zm-1.9514,0a.2467.2467,0,0,1-.2466-.2466V73.9141a.2466.2466,0,0,1,.4932,0v4.5448A.2467.2467,0,0,1,50.1461,78.7055Zm-1.4181,0a.2467.2467,0,0,1-.2466-.2466V73.9141a.2466.2466,0,0,1,.4932,0v4.5448A.2467.2467,0,0,1,48.728,78.7055Z" transform="translate(-18.4415 -9.5786)" fill="#15003e"/><circle id="Oval-10" data-name="Oval" cx="23.0695" cy="14.0909" r="3.2799" fill="#0fce7c"/><path id="Shape-27" data-name="Shape" d="M41.511,27.196A3.5265,3.5265,0,1,1,45.0375,23.67,3.53,3.53,0,0,1,41.511,27.196Zm0-6.56A3.0334,3.0334,0,1,0,44.5444,23.67,3.0368,3.0368,0,0,0,41.511,20.6362Z" transform="translate(-18.4415 -9.5786)" fill="#15003e"/><path id="Shape-28" data-name="Shape" d="M42.8751,22.2312a.7011.7011,0,1,1-.7011-.7011.7011.7011,0,0,1,.7011.7011m.5009,1.048a.2835.2835,0,1,1-.2835-.2835.2835.2835,0,0,1,.2835.2835" transform="translate(-18.4415 -9.5786)" fill="#fff"/><circle id="Oval-11" data-name="Oval" cx="31.1304" cy="14.0909" r="3.2799" fill="#0fce7c"/><path id="Shape-29" data-name="Shape" d="M49.5719,27.196A3.5265,3.5265,0,1,1,53.0983,23.67,3.5305,3.5305,0,0,1,49.5719,27.196Zm0-6.56A3.0334,3.0334,0,1,0,52.6052,23.67,3.0368,3.0368,0,0,0,49.5719,20.6362Z" transform="translate(-18.4415 -9.5786)" fill="#15003e"/><path id="Shape-30" data-name="Shape" d="M51.2227,22.2312a.7011.7011,0,1,1-.7011-.7011.7011.7011,0,0,1,.7011.7011m.5009,1.048a.2835.2835,0,1,1-.2835-.2835.2835.2835,0,0,1,.2835.2835" transform="translate(-18.4415 -9.5786)" fill="#fff"/><path id="Shape-31" data-name="Shape" d="M41.9443,89.165a.323.323,0,1,1-.3132-.3132A.3229.3229,0,0,1,41.9443,89.165Zm.1451-.9469a.323.323,0,1,1-.3132-.3132A.3229.3229,0,0,1,42.0894,88.2181Z" transform="translate(-18.4415 -9.5786)" fill="#15003e"/><path id="Shape-32" data-name="Shape" d="M55.5133,37.7817a.3653.3653,0,1,1-.3653-.3653A.3653.3653,0,0,1,55.5133,37.7817Zm0,1.0177a.3653.3653,0,1,1-.3653-.3653A.3653.3653,0,0,1,55.5133,38.7994Zm0,1.0342a.3653.3653,0,1,1-.3653-.3653A.3653.3653,0,0,1,55.5133,39.8336Z" transform="translate(-18.4415 -9.5786)" fill="#25e899"/><path id="Shape-33" data-name="Shape" d="M64.294,49.932a.6.6,0,1,0-.8438-.8532Z" transform="translate(-18.4415 -9.5786)" fill="#15003e"/><circle id="Oval-12" data-name="Oval" cx="41.351" cy="29.395" r="1" fill="#15003e"/><path id="Shape-34" data-name="Shape" d="M32.8227,40.2318a.3864.3864,0,1,1-.3865-.3866h0A.3868.3868,0,0,1,32.8227,40.2318Zm10.9851-8.865h3.4673v.6244H43.8078Z" transform="translate(-18.4415 -9.5786)" fill="#15003e"/><path id="Shape-35" data-name="Shape" d="M36.4589,60.6322a.3653.3653,0,1,1-.3653-.3653A.3653.3653,0,0,1,36.4589,60.6322Zm1.0507.2511a.3654.3654,0,1,1-.358-.358A.3653.3653,0,0,1,37.51,60.8833Z" transform="translate(-18.4415 -9.5786)" fill="#25e899"/><rect x="10.11" y="44.8238" width="34.3749" height="17.2067" rx="4.0761" ry="4.0761" fill="#fff" stroke="#15003e" stroke-miterlimit="10"/><path d="M31.3,59.34V56.4033h.8369c.0982,0,.1831.001.2549.0039s.15.0088.2344.0176a1.26,1.26,0,0,1,.2168.0391,1.5181,1.5181,0,0,1,.184.0674.5118.5118,0,0,1,.1578.1044.7374.7374,0,0,1,.1147.1465.6357.6357,0,0,1,.0757.2A1.2511,1.2511,0,0,1,33.4,57.24a.9472.9472,0,0,1-.0757.3994.5819.5819,0,0,1-.228.2569,1.079,1.079,0,0,1-.355.1357,2.4517,2.4517,0,0,1-.4809.041h-.4478V59.34Zm.5122-1.7041h.44a1.6414,1.6414,0,0,0,.25-.0166.6775.6775,0,0,0,.1885-.0566.2826.2826,0,0,0,.1279-.1211.4168.4168,0,0,0,.0425-.1973.5762.5762,0,0,0-.0112-.1171.5181.5181,0,0,0-.0273-.0909.1881.1881,0,0,0-.0513-.07c-.0235-.02-.0444-.0361-.0625-.0488a.2491.2491,0,0,0-.085-.0322c-.0381-.0088-.07-.0157-.0947-.02a.8046.8046,0,0,0-.1138-.01c-.0512-.002-.0913-.0039-.1211-.0039s-.0752-.002-.1372-.002h-.3447Z" transform="translate(-18.4415 -9.5786)" fill="#342ea3" stroke="#342ea3" stroke-miterlimit="10" stroke-width="0.25"/><path d="M33.92,59.34V56.4033h1.0586a2.08,2.08,0,0,1,.4185.0362.9924.9924,0,0,1,.32.124.552.552,0,0,1,.2158.25.9819.9819,0,0,1,.0728.4.6955.6955,0,0,1-.1475.4384.741.741,0,0,1-.4438.2579.8744.8744,0,0,1,.39.46l.397.97H35.646l-.3364-.873a.6922.6922,0,0,0-.18-.293.4684.4684,0,0,0-.2925-.0761h-.4053V59.34Zm.5064-1.6757h.49q.5486,0,.5488-.4258a.3625.3625,0,0,0-.1152-.3135.67.67,0,0,0-.3789-.082h-.5444Z" transform="translate(-18.4415 -9.5786)" fill="#342ea3" stroke="#342ea3" stroke-miterlimit="10" stroke-width="0.25"/><path d="M36.6587,59.34V56.4033h.5122V59.34Z" transform="translate(-18.4415 -9.5786)" fill="#342ea3" stroke="#342ea3" stroke-miterlimit="10" stroke-width="0.25"/><path d="M39.2021,59.3838a1.5427,1.5427,0,0,1-.5527-.1,1.4682,1.4682,0,0,1-.4678-.2852,1.31,1.31,0,0,1-.3276-.4765,1.6639,1.6639,0,0,1-.1221-.6485,1.7953,1.7953,0,0,1,.0816-.5517,1.36,1.36,0,0,1,.2207-.43,1.4569,1.4569,0,0,1,.3227-.3018,1.36,1.36,0,0,1,.3872-.1836,1.5048,1.5048,0,0,1,.4175-.0586,1.5354,1.5354,0,0,1,.98.3174l-.2.3565a1.27,1.27,0,0,0-.7383-.2315.8681.8681,0,0,0-.356.0742.9309.9309,0,0,0-.2973.21.9789.9789,0,0,0-.2061.3408,1.2861,1.2861,0,0,0-.0761.4512,1.1016,1.1016,0,0,0,.2739.7812.9072.9072,0,0,0,.6938.294,1.2679,1.2679,0,0,0,.8111-.2959l.1714.4053A1.6077,1.6077,0,0,1,39.2021,59.3838Z" transform="translate(-18.4415 -9.5786)" fill="#342ea3" stroke="#342ea3" stroke-miterlimit="10" stroke-width="0.25"/><path d="M40.7974,59.34V56.4033h1.8535v.4395H41.31v.7851h1.2685v.4414H41.3154V58.9H42.709V59.34Z" transform="translate(-18.4415 -9.5786)" fill="#342ea3" stroke="#342ea3" stroke-miterlimit="10" stroke-width="0.25"/><path d="M44.5283,59.34V56.4033h.8369c.0982,0,.1831.001.2549.0039s.15.0088.2344.0176a1.2582,1.2582,0,0,1,.2168.0391,1.5194,1.5194,0,0,1,.1841.0674.5088.5088,0,0,1,.1572.1044.701.701,0,0,1,.1152.1465.6235.6235,0,0,1,.0752.2,1.2174,1.2174,0,0,1,.0244.2578.9537.9537,0,0,1-.0752.3994.5824.5824,0,0,1-.2285.2569,1.08,1.08,0,0,1-.3545.1357,2.4517,2.4517,0,0,1-.4809.041h-.4478V59.34Zm.5122-1.7041H45.48a1.6438,1.6438,0,0,0,.2505-.0166.6779.6779,0,0,0,.1884-.0566.2823.2823,0,0,0,.128-.1211.418.418,0,0,0,.0425-.1973.5759.5759,0,0,0-.0113-.1171.5181.5181,0,0,0-.0273-.0909.1881.1881,0,0,0-.0513-.07c-.0234-.02-.0444-.0361-.0625-.0488a.2493.2493,0,0,0-.0849-.0322c-.0381-.0088-.07-.0157-.0948-.02a.8043.8043,0,0,0-.1137-.01c-.0513-.002-.0914-.0039-.1211-.0039s-.0752-.002-.1372-.002h-.3448Z" transform="translate(-18.4415 -9.5786)" fill="#342ea3" stroke="#342ea3" stroke-miterlimit="10" stroke-width="0.25"/><path d="M48.459,59.3857a1.427,1.427,0,0,1-1.084-.414,1.5431,1.5431,0,0,1-.396-1.1143,1.51,1.51,0,0,1,.398-1.0947,1.4369,1.4369,0,0,1,1.0878-.4141,1.3975,1.3975,0,0,1,1.0616.4131,1.5186,1.5186,0,0,1,.3945,1.0957,1.56,1.56,0,0,1-.39,1.1153A1.4,1.4,0,0,1,48.459,59.3857Zm-.0127-.4375a.8327.8327,0,0,0,.6836-.2832,1.2345,1.2345,0,0,0,.2344-.8076,1.1981,1.1981,0,0,0-.2344-.789.8247.8247,0,0,0-.6748-.2823.845.845,0,0,0-.6846.2823,1.1778,1.1778,0,0,0-.2392.789,1.2465,1.2465,0,0,0,.2314.8086A.8337.8337,0,0,0,48.4463,58.9482Z" transform="translate(-18.4415 -9.5786)" fill="#342ea3" stroke="#342ea3" stroke-miterlimit="10" stroke-width="0.25"/><path d="M51.3916,59.3857a1.9368,1.9368,0,0,1-.583-.0878,1.1089,1.1089,0,0,1-.4424-.2461l.2188-.3672a1.2258,1.2258,0,0,0,.372.1875,1.2939,1.2939,0,0,0,.4024.0761.6565.6565,0,0,0,.4023-.1.3653.3653,0,0,0,.13-.3067.5235.5235,0,0,0-.0127-.13.2609.2609,0,0,0-.0537-.1025.4.4,0,0,0-.126-.1,1.7471,1.7471,0,0,0-.2256-.0957c-.04-.0127-.1084-.0352-.2041-.0664s-.167-.0547-.2109-.07a1.2955,1.2955,0,0,1-.5264-.3243.7354.7354,0,0,1-.1631-.5048.7189.7189,0,0,1,.1358-.4414.7921.7921,0,0,1,.3623-.2706,1.4344,1.4344,0,0,1,.5156-.0869,1.8938,1.8938,0,0,1,.6113.0772,1.1456,1.1456,0,0,1,.4112.2617l-.2617.3389a.9566.9566,0,0,0-.6875-.2354.815.815,0,0,0-.3907.082.2721.2721,0,0,0-.15.252.5291.5291,0,0,0,.0147.1367.2543.2543,0,0,0,.06.1045.4243.4243,0,0,0,.13.0947,1.856,1.856,0,0,0,.2256.0938c.0342.0127.1035.0351.211.07s.1865.0615.2392.0811a1.157,1.157,0,0,1,.5.3291.8369.8369,0,0,1,.1406.5166.8257.8257,0,0,1-.0859.3857.6651.6651,0,0,1-.2363.2607,1.14,1.14,0,0,1-.3311.1416A1.5553,1.5553,0,0,1,51.3916,59.3857Z" transform="translate(-18.4415 -9.5786)" fill="#342ea3" stroke="#342ea3" stroke-miterlimit="10" stroke-width="0.25"/><path d="M53.5957,59.34v-2.497H52.69v-.4395h2.3369v.4395h-.9189V59.34Z" transform="translate(-18.4415 -9.5786)" fill="#342ea3" stroke="#342ea3" stroke-miterlimit="10" stroke-width="0.25"/><path d="M56.3066,59.3857a1.9372,1.9372,0,0,1-.583-.0878,1.1078,1.1078,0,0,1-.4423-.2461l.2187-.3672a1.2264,1.2264,0,0,0,.3721.1875,1.2928,1.2928,0,0,0,.4023.0761.6569.6569,0,0,0,.4024-.1.3656.3656,0,0,0,.13-.3067.5235.5235,0,0,0-.0127-.13.26.26,0,0,0-.0537-.1025.4011.4011,0,0,0-.1259-.1,1.7594,1.7594,0,0,0-.2256-.0957c-.04-.0127-.1084-.0352-.2041-.0664s-.167-.0547-.211-.07a1.2951,1.2951,0,0,1-.5263-.3243.7349.7349,0,0,1-.1631-.5048.7189.7189,0,0,1,.1357-.4414.7926.7926,0,0,1,.3623-.2706,1.4346,1.4346,0,0,1,.5157-.0869,1.8943,1.8943,0,0,1,.6113.0772,1.1453,1.1453,0,0,1,.4111.2617l-.2617.3389a.9563.9563,0,0,0-.6875-.2354.8146.8146,0,0,0-.3906.082.2721.2721,0,0,0-.15.252.534.534,0,0,0,.0146.1367.2543.2543,0,0,0,.06.1045.4248.4248,0,0,0,.13.0947,1.8425,1.8425,0,0,0,.2256.0938c.0341.0127.1035.0351.2109.07s.1865.0615.2393.0811a1.1583,1.1583,0,0,1,.5.3291.8375.8375,0,0,1,.1406.5166.8245.8245,0,0,1-.086.3857.6643.6643,0,0,1-.2363.2607,1.1393,1.1393,0,0,1-.331.1416A1.5561,1.5561,0,0,1,56.3066,59.3857Z" transform="translate(-18.4415 -9.5786)" fill="#342ea3" stroke="#342ea3" stroke-miterlimit="10" stroke-width="0.25"/><path d="M39.3965,64.3418a1.4956,1.4956,0,0,1-1.1143-.3945,1.459,1.459,0,0,1-.39-1.0713,1.8323,1.8323,0,0,1,.0635-.4854,1.48,1.48,0,0,1,.5073-.7744,1.383,1.383,0,0,1,.4365-.2285,1.772,1.772,0,0,1,.5493-.083,2.2459,2.2459,0,0,1,.3784.0293,1.2293,1.2293,0,0,1,.2916.084,1.8156,1.8156,0,0,1,.1792.09,1.4476,1.4476,0,0,1,.1293.09l-.206.3584a1.2817,1.2817,0,0,0-.7705-.209,1.0544,1.0544,0,0,0-.4556.0947.8414.8414,0,0,0-.3227.2539,1.1882,1.1882,0,0,0-.1836.3525,1.3177,1.3177,0,0,0-.0625.4053,1.3644,1.3644,0,0,0,.0625.4238.9627.9627,0,0,0,.1836.3321.7993.7993,0,0,0,.3115.2177,1.1521,1.1521,0,0,0,.437.0772,1.768,1.768,0,0,0,.502-.0762v-.6943h-.6856v-.4375h1.2061v1.4219A2.5431,2.5431,0,0,1,39.3965,64.3418Z" transform="translate(-18.4415 -9.5786)" fill="#342ea3" stroke="#342ea3" stroke-miterlimit="10" stroke-width="0.25"/><path d="M42.4766,64.3418a1.43,1.43,0,0,1-1.0845-.4141,1.5444,1.5444,0,0,1-.396-1.1142,1.5107,1.5107,0,0,1,.3984-1.0947,1.4366,1.4366,0,0,1,1.0879-.4141,1.4,1.4,0,0,1,1.062.4131,1.5182,1.5182,0,0,1,.3941,1.0957,1.5614,1.5614,0,0,1-.3892,1.1152A1.4031,1.4031,0,0,1,42.4766,64.3418Zm-.0122-.4375a.8333.8333,0,0,0,.6835-.2832,1.2369,1.2369,0,0,0,.2339-.8076,1.2,1.2,0,0,0-.2339-.7891.8264.8264,0,0,0-.6757-.2822.8463.8463,0,0,0-.6846.2822,1.1827,1.1827,0,0,0-.2388.7891,1.2436,1.2436,0,0,0,.232.8086A.832.832,0,0,0,42.4644,63.9043Z" transform="translate(-18.4415 -9.5786)" fill="#342ea3" stroke="#342ea3" stroke-miterlimit="10" stroke-width="0.25"/><path d="M47.0586,64.3418a1.43,1.43,0,0,1-1.0845-.4141,1.5448,1.5448,0,0,1-.396-1.1142,1.51,1.51,0,0,1,.3985-1.0947,1.4355,1.4355,0,0,1,1.0879-.4141,1.3936,1.3936,0,0,1,1.06.4131,1.5142,1.5142,0,0,1,.3945,1.0957,1.5594,1.5594,0,0,1-.3886,1.1152A1.403,1.403,0,0,1,47.0586,64.3418Zm-.0137-.4375a.83.83,0,0,0,.6836-.2832,1.2341,1.2341,0,0,0,.2344-.8076,1.1976,1.1976,0,0,0-.2344-.7891.8225.8225,0,0,0-.6738-.2822.8466.8466,0,0,0-.6851.2822,1.1826,1.1826,0,0,0-.2383.7891,1.2407,1.2407,0,0,0,.2315.8086A.8316.8316,0,0,0,47.0449,63.9043Z" transform="translate(-18.4415 -9.5786)" fill="#342ea3" stroke="#342ea3" stroke-miterlimit="10" stroke-width="0.25"/><path d="M49.1162,64.2959V61.3594h.543q1.3989,2.0287,1.49,2.1621V61.3594h.4883v2.9365h-.5449q-1.3536-1.9541-1.502-2.166v2.166Z" transform="translate(-18.4415 -9.5786)" fill="#342ea3" stroke="#342ea3" stroke-miterlimit="10" stroke-width="0.25"/><path d="M33.0859,69.7305l1.3013-3.4141h.4434L33.52,69.7305Z" transform="translate(-18.4415 -9.5786)" fill="#342ea3" stroke="#342ea3" stroke-miterlimit="10" stroke-width="0.25"/><path d="M34.9556,69.2529V67.708q0-.1215-.01-.2519c-.0063-.0879-.0132-.1543-.02-.2022l-.01-.07h.5323v.2725a1.0683,1.0683,0,0,1,.2451-.2432.4807.4807,0,0,1,.2754-.082.8476.8476,0,0,1,.2055.03V67.6a.7871.7871,0,0,0-.25-.0449.4514.4514,0,0,0-.3388.1348.5415.5415,0,0,0-.1314.3916v1.1718Z" transform="translate(-18.4415 -9.5786)" fill="#342ea3" stroke="#342ea3" stroke-miterlimit="10" stroke-width="0.25"/><path d="M36.0386,69.7305,37.34,66.3164h.4434l-1.311,3.4141Z" transform="translate(-18.4415 -9.5786)" fill="#342ea3" stroke="#342ea3" stroke-miterlimit="10" stroke-width="0.25"/><path d="M38.9248,69.2988a1.1178,1.1178,0,0,1-.8237-.2978,1.0492,1.0492,0,0,1-.3018-.78,1.1832,1.1832,0,0,1,.0728-.4141,1.1112,1.1112,0,0,1,.2046-.3466.9409.9409,0,0,1,.3349-.24,1.1154,1.1154,0,0,1,.4488-.0888,1.0117,1.0117,0,0,1,.4292.0849.7113.7113,0,0,1,.2905.2373,1.0756,1.0756,0,0,1,.1582.3418,1.5806,1.5806,0,0,1,.0517.419.2911.2911,0,0,1-.01.0888H38.3276a.5874.5874,0,0,0,.1846.4483.69.69,0,0,0,.459.1445,1.1265,1.1265,0,0,0,.6533-.2217l.1353.3633a1.4883,1.4883,0,0,1-.3946.1983A1.4239,1.4239,0,0,1,38.9248,69.2988Zm-.5908-1.3281h1.0283a.564.564,0,0,0-.1631-.3369.4421.4421,0,0,0-.31-.1172.5431.5431,0,0,0-.3614.1211A.5862.5862,0,0,0,38.334,67.9707Z" transform="translate(-18.4415 -9.5786)" fill="#342ea3" stroke="#342ea3" stroke-miterlimit="10" stroke-width="0.25"/><path d="M41.502,69.251H41.3q-.1209,0-.2095-.0059a1.2381,1.2381,0,0,1-.1826-.0263.6525.6525,0,0,1-.1592-.0538.5449.5449,0,0,1-.1264-.09.4278.4278,0,0,1-.0967-.1357.8785.8785,0,0,1-.0576-.1905,1.3681,1.3681,0,0,1-.021-.2549v-.9755h-.4317v-.335h.4517v-.4844l.478-.1465v.6309h.54v.335h-.54v1.0058a.6811.6811,0,0,0,.0151.1572.2789.2789,0,0,0,.0455.0987.1819.1819,0,0,0,.102.0576.9162.9162,0,0,0,.1563.0234c.0566.0039.1357.0069.2378.0069Z" transform="translate(-18.4415 -9.5786)" fill="#342ea3" stroke="#342ea3" stroke-miterlimit="10" stroke-width="0.25"/><path d="M41.9258,69.2529V66.3145h.5v1.1376a.5441.5441,0,0,1,.2622-.2324.844.844,0,0,1,.3569-.0888.9136.9136,0,0,1,.2613.0351.675.675,0,0,1,.1987.09.62.62,0,0,1,.1411.1386.7682.7682,0,0,1,.0947.1651,1.05,1.05,0,0,1,.0557.1845,1.6033,1.6033,0,0,1,.0283.1836c.0044.0557.0068.1133.0068.1739v1.1513h-.5V68.085a.7435.7435,0,0,0-.0908-.42.3105.3105,0,0,0-.2724-.1279.5657.5657,0,0,0-.3741.1416.42.42,0,0,0-.1684.3281v1.2461Z" transform="translate(-18.4415 -9.5786)" fill="#342ea3" stroke="#342ea3" stroke-miterlimit="10" stroke-width="0.25"/><path d="M45.582,69.251H45.38q-.1209,0-.2095-.0059a1.2362,1.2362,0,0,1-.1826-.0263.6525.6525,0,0,1-.1592-.0538.5475.5475,0,0,1-.1265-.09.4291.4291,0,0,1-.0966-.1357.8783.8783,0,0,1-.0577-.1905,1.3766,1.3766,0,0,1-.021-.2549v-.9755h-.4316v-.335h.4517v-.4844l.478-.1465v.6309h.5405v.335h-.5405v1.0058a.6811.6811,0,0,0,.0151.1572.2806.2806,0,0,0,.0454.0987.1822.1822,0,0,0,.1021.0576.9165.9165,0,0,0,.1562.0234c.0567.0039.1358.0069.2378.0069Z" transform="translate(-18.4415 -9.5786)" fill="#342ea3" stroke="#342ea3" stroke-miterlimit="10" stroke-width="0.25"/><path d="M46.042,69.2529V67.708q0-.1215-.01-.2519c-.0063-.0879-.0131-.1543-.02-.2022l-.01-.07h.5317v.2725a1.08,1.08,0,0,1,.2451-.2432.4848.4848,0,0,1,.2749-.082.8555.8555,0,0,1,.2061.03V67.6a.7881.7881,0,0,0-.25-.0449.45.45,0,0,0-.3384.1348.5439.5439,0,0,0-.1318.3916v1.1718Z" transform="translate(-18.4415 -9.5786)" fill="#342ea3" stroke="#342ea3" stroke-miterlimit="10" stroke-width="0.25"/><path d="M48.5244,69.2988a1.084,1.084,0,0,1-.4521-.09.8622.8622,0,0,1-.32-.2422,1.0976,1.0976,0,0,1-.1836-.3369,1.2061,1.2061,0,0,1-.0625-.39,1.2964,1.2964,0,0,1,.0644-.41,1.17,1.17,0,0,1,.1885-.3526.8765.8765,0,0,1,.3281-.2529,1.0938,1.0938,0,0,1,.4619-.0937.6727.6727,0,0,1,.5762.2724v-.22h.49v2.0693h-.5019v-.2822A.6861.6861,0,0,1,48.5244,69.2988Zm.0625-.4033a.4857.4857,0,0,0,.4229-.1846.8276.8276,0,0,0,.1318-.4921.8006.8006,0,0,0-.1406-.5.5007.5007,0,0,0-.4239-.1817.5169.5169,0,0,0-.4267.1826.9.9,0,0,0,0,.99A.5239.5239,0,0,0,48.5869,68.8955Z" transform="translate(-18.4415 -9.5786)" fill="#342ea3" stroke="#342ea3" stroke-miterlimit="10" stroke-width="0.25"/><path d="M51.0537,69.2988a.8771.8771,0,0,1-.6728-.2939,1.1015,1.1015,0,0,1-.2715-.7764,1.353,1.353,0,0,1,.0625-.416,1.1364,1.1364,0,0,1,.1806-.3486.8321.8321,0,0,1,.31-.2432,1.0033,1.0033,0,0,1,.43-.09.7011.7011,0,0,1,.3623.0879.586.586,0,0,1,.2061.1826V66.3145h.4961V68.7c0,.0078.0058.1924.0185.5527h-.5127l-.0039-.2646a.33.33,0,0,1-.06.0957.6991.6991,0,0,1-.1123.1.5942.5942,0,0,1-.1836.083A.9072.9072,0,0,1,51.0537,69.2988Zm.1026-.4033a.5013.5013,0,0,0,.24-.0547.4222.4222,0,0,0,.1621-.1533.7917.7917,0,0,0,.0889-.2148,1.0391,1.0391,0,0,0,.0293-.252.8481.8481,0,0,0-.1319-.4932.444.444,0,0,0-.3926-.19.4618.4618,0,0,0-.2959.0947.5159.5159,0,0,0-.1709.2412,1.0365,1.0365,0,0,0-.0517.3389,1.09,1.09,0,0,0,.0293.2588.7588.7588,0,0,0,.0889.2168.4111.4111,0,0,0,.163.1533A.503.503,0,0,0,51.1563,68.8955Z" transform="translate(-18.4415 -9.5786)" fill="#342ea3" stroke="#342ea3" stroke-miterlimit="10" stroke-width="0.25"/><path d="M53.79,69.2988a1.1182,1.1182,0,0,1-.8232-.2978,1.0492,1.0492,0,0,1-.3018-.78,1.1967,1.1967,0,0,1,.0723-.4141,1.1221,1.1221,0,0,1,.2051-.3466.9365.9365,0,0,1,.3349-.24,1.113,1.113,0,0,1,.4483-.0888,1.0141,1.0141,0,0,1,.43.0849.7162.7162,0,0,1,.291.2373,1.0756,1.0756,0,0,1,.1582.3418,1.5985,1.5985,0,0,1,.0508.419.2934.2934,0,0,1-.01.0888H53.1934a.5839.5839,0,0,0,.1845.4483.6894.6894,0,0,0,.459.1445,1.1286,1.1286,0,0,0,.6533-.2217l.1348.3633a1.4889,1.4889,0,0,1-.3936.1983A1.4282,1.4282,0,0,1,53.79,69.2988Zm-.5908-1.3281h1.0293a.5653.5653,0,0,0-.164-.3369.439.439,0,0,0-.3106-.1172.5411.5411,0,0,0-.36.1211A.5815.5815,0,0,0,53.1992,67.9707Z" transform="translate(-18.4415 -9.5786)" fill="#342ea3" stroke="#342ea3" stroke-miterlimit="10" stroke-width="0.25"/><path d="M55.2061,69.2529V67.708c0-.081-.004-.165-.0108-.2519s-.0137-.1543-.02-.2022l-.0108-.07h.5323v.2725a1.0783,1.0783,0,0,1,.2451-.2432.4852.4852,0,0,1,.2754-.082.8548.8548,0,0,1,.206.03V67.6a.7871.7871,0,0,0-.25-.0449.4507.4507,0,0,0-.3388.1348.5392.5392,0,0,0-.1309.3916v1.1718Z" transform="translate(-18.4415 -9.5786)" fill="#342ea3" stroke="#342ea3" stroke-miterlimit="10" stroke-width="0.25"/><polygon points="7.653 52.274 8.888 52.665 9.946 52.158 11.291 51.606 11.8 50.04 10.152 48.031 7.332 49.915 7.653 52.274" fill="#ffce08"/><path d="M28.3165,57.6152l.2236-.1492a.2462.2462,0,0,1,.3275.0486l1.6479,2.009a.2467.2467,0,0,1,.0438.2327l-.51,1.5653a.2463.2463,0,0,1-.1407.1516l-1.3314.5469-1.0582.5074a.2474.2474,0,0,1-.1812.0126l-1.2352-.3916a.2468.2468,0,0,1-.17-.2019l-.3214-2.3586a.2462.2462,0,0,1,.1074-.2383l.08-.0536Zm1.732,2.1168L28.628,58l-2.507,1.6738.28,2.0514.9935.315.9828-.4709,1.2389-.5091Z" transform="translate(-18.4415 -9.5786)" fill="#15003e"/><g id="Shape-36" data-name="Shape"><polygon points="9.157 52.555 9.8 52.4 10.446 55.079 9.804 55.234 9.157 52.555" fill="#ffce08"/><path d="M28.1165,65.0227a.2458.2458,0,0,1-.1111-.1526l-.6462-2.6787a.2465.2465,0,0,1,.1819-.2975l.6421-.1549a.2465.2465,0,0,1,.2975.1819L29.1268,64.6a.2465.2465,0,0,1-.1817.2975l-.6421.155a.2516.2516,0,0,1-.0543.0069A.2466.2466,0,0,1,28.1165,65.0227Zm-.0573-2.7464-.1627.0393.5305,2.1993.1627-.0394Z" transform="translate(-18.4415 -9.5786)" fill="#15003e"/><path d="M27.89,64.0413l-.1982-.8217a.164.164,0,0,1,.1211-.1979l.6421-.1549a.164.164,0,0,1,.1979.1211l.1983.8219a.1641.1641,0,0,1-.1212.1979l-.6421.1547a.1547.1547,0,0,1-.0361.0046A.1642.1642,0,0,1,27.89,64.0413Zm.4824-.8169-.323.0779.1212.5027.323-.0779Z" transform="translate(-18.4415 -9.5786)" fill="#15003e"/><polygon points="10.244 52.43 10.862 52.197 11.836 54.774 11.218 55.008 10.244 52.43" fill="#ffce08"/><path d="M29.4293,64.6738l-.9744-2.5777a.2468.2468,0,0,1,.1434-.3179l.6179-.2337a.2467.2467,0,0,1,.3179.1436l.9744,2.5776a.2467.2467,0,0,1-.1436.318l-.6178.2335a.2466.2466,0,0,1-.3178-.1434ZM29.16,62.0931l-.1567.0592.8,2.1163L29.96,64.21Z" transform="translate(-18.4415 -9.5786)" fill="#15003e"/><path d="M29.2989,63.9643a.1635.1635,0,0,1-.086-.0916l-.299-.7907a.164.164,0,0,1,.0954-.2114l.6178-.2336a.1634.1634,0,0,1,.2114.0955l.2989.7906a.1638.1638,0,0,1-.0954.2114l-.6177.2337a.1637.1637,0,0,1-.1254-.0039Zm.2907-.9623-.3108.1175.1829.4837.3108-.1175Z" transform="translate(-18.4415 -9.5786)" fill="#15003e"/><polygon points="11.073 51.814 11.633 51.464 13.092 53.802 12.532 54.151 11.073 51.814" fill="#ffce08"/><path d="M30.9177,63.97a.2474.2474,0,0,1-.1536-.11l-1.4592-2.3374a.2464.2464,0,0,1,.0785-.34l.56-.35a.2463.2463,0,0,1,.34.0786l1.4594,2.3374a.2464.2464,0,0,1-.0785.34l-.5605.35a.2454.2454,0,0,1-.1862.0311Zm-.9219-2.5878-.1421.0888L31.0518,63.39l.1422-.0889Z" transform="translate(-18.4415 -9.5786)" fill="#15003e"/><path d="M30.3909,63.11l-.4479-.717a.164.164,0,0,1,.0523-.2263l.56-.35a.1642.1642,0,0,1,.2261.0524l.4478.7171a.1642.1642,0,0,1-.0524.2261l-.56.35a.164.164,0,0,1-.226-.0522Zm.1994-.928-.282.1762.274.4386.282-.176Z" transform="translate(-18.4415 -9.5786)" fill="#15003e"/><polygon points="12.066 50.495 11.771 51.086 13.176 51.802 13.47 51.211 12.066 50.495" fill="#ffce08"/><path d="M31.5049,61.6,30.1,60.8841a.2465.2465,0,0,1-.1086-.33l.2947-.5912a.2467.2467,0,0,1,.3326-.11l1.4047.7161a.2466.2466,0,0,1,.1089.33l-.2947.5914a.2468.2468,0,0,1-.3329.11Zm-.8882-1.1944-.0746.15.9653.4922.0746-.15Z" transform="translate(-18.4415 -9.5786)" fill="#15003e"/><path d="M30.7987,61.1561a.1642.1642,0,0,1-.0738-.22l.2946-.5913a.1642.1642,0,1,1,.2939.1465l-.2946.5911a.1641.1641,0,0,1-.22.0738Z" transform="translate(-18.4415 -9.5786)" fill="#15003e"/><polygon points="8.097 52.242 8.754 52.176 9.032 54.917 8.374 54.984 8.097 52.242" fill="#ffce08"/><path d="M26.57,64.5874l-.2777-2.7414a.2467.2467,0,0,1,.2205-.27l.6572-.0668a.2467.2467,0,0,1,.27.2205l.2777,2.7416a.2466.2466,0,0,1-.22.27l-.6572.0665-.0215.0012A.2468.2468,0,0,1,26.57,64.5874Zm.4045-2.5627-.1665.0168.228,2.2508.1665-.0168Z" transform="translate(-18.4415 -9.5786)" fill="#15003e"/><path d="M26.6288,63.8659a.164.164,0,0,1-.0595-.1105l-.0857-.8412a.1639.1639,0,0,1,.1465-.18l.6571-.0671a.1641.1641,0,0,1,.18.1465l.0857.8413a.1639.1639,0,0,1-.1466.18l-.6571.0671-.0142.0008A.1647.1647,0,0,1,26.6288,63.8659Zm.5285-.8556-.3306.0338.0525.5146.3306-.0336Z" transform="translate(-18.4415 -9.5786)" fill="#15003e"/></g><path d="M27.153,62.4672l-.2284-1.5162a.2466.2466,0,1,1,.4876-.0735l.2284,1.5163a.2463.2463,0,0,1-.2071.2805.252.252,0,0,1-.0334.0027A.2466.2466,0,0,1,27.153,62.4672Z" transform="translate(-18.4415 -9.5786)" fill="#15003e"/><path d="M28.1983,62.1856l-.4347-1.3414a.2466.2466,0,0,1,.4691-.152l.4348,1.3414a.2466.2466,0,0,1-.1586.3106.244.244,0,0,1-.0724.012A.247.247,0,0,1,28.1983,62.1856Z" transform="translate(-18.4415 -9.5786)" fill="#15003e"/><path d="M29.3588,61.7484l-.7116-1.2273a.2466.2466,0,1,1,.4267-.2472l.7115,1.2272a.2465.2465,0,1,1-.4266.2473Z" transform="translate(-18.4415 -9.5786)" fill="#15003e"/><path d="M30.0392,60.9655l-.9472-1.1119a.2466.2466,0,0,1,.3755-.32l.9471,1.112a.2466.2466,0,1,1-.3754.32Z" transform="translate(-18.4415 -9.5786)" fill="#15003e"/><polygon points="46.969 49.885 44.19 47.94 42.499 49.913 42.974 51.489 44.306 52.07 45.353 52.601 46.597 52.236 46.969 49.885" fill="#ffce08"/><path d="M65.3892,59.2653l.0788.0553a.2464.2464,0,0,1,.1022.2406l-.3727,2.3511a.2469.2469,0,0,1-.1742.1981L63.78,62.475a.2468.2468,0,0,1-.1808-.0166l-1.0469-.53-1.3192-.5758a.2463.2463,0,0,1-.1373-.1547L60.62,59.6217a.2468.2468,0,0,1,.0488-.2318L62.36,57.4174a.2461.2461,0,0,1,.3285-.0415l.22.154Zm-3.8544,1.6808,1.2275.536.9724.4922,1-.2933.3242-2.0448-2.47-1.7281-1.4579,1.7Z" transform="translate(-18.4415 -9.5786)" fill="#15003e"/><g id="Shape-37" data-name="Shape"><polygon points="44.382 55.148 43.743 54.979 44.448 52.316 45.086 52.484 44.382 55.148" fill="#ffce08"/><path d="M62.8144,64.9734a.2441.2441,0,0,1-.0541-.0081l-.6386-.1689a.2465.2465,0,0,1-.1752-.3014l.7043-2.6639a.2467.2467,0,0,1,.3014-.1755l.6386.1689a.2464.2464,0,0,1,.1753.3014l-.7043,2.664a.2471.2471,0,0,1-.2474.1835Zm-.3282-.5907.1618.0429.5783-2.1872-.1618-.0428Z" transform="translate(-18.4415 -9.5786)" fill="#15003e"/><path d="M63.03,64.086a.1677.1677,0,0,1-.0361-.0054l-.6385-.1687a.1642.1642,0,0,1-.1168-.2005l.2161-.8174a.1638.1638,0,0,1,.2005-.1167l.6386.1688a.164.164,0,0,1,.1167.2l-.2161.8172A.164.164,0,0,1,63.03,64.086Zm-.4321-.45.3212.0849.1322-.5-.3213-.0849Z" transform="translate(-18.4415 -9.5786)" fill="#15003e"/><polygon points="42.972 54.892 42.36 54.645 43.39 52.089 44.003 52.336 42.972 54.892" fill="#ffce08"/><path d="M61.4048,64.7168a.2477.2477,0,0,1-.0832-.0177l-.6126-.247a.2466.2466,0,0,1-.1366-.321l1.03-2.5558a.2469.2469,0,0,1,.321-.1366l.6126.2471a.2468.2468,0,0,1,.1365.321l-1.03,2.5558A.2466.2466,0,0,1,61.4048,64.7168Zm-.2827-.63.1553.0625.846-2.0984-.1554-.0626Z" transform="translate(-18.4415 -9.5786)" fill="#15003e"/><path d="M61.7182,63.8691a.1619.1619,0,0,1-.0554-.0119L61.05,63.61a.1639.1639,0,0,1-.0908-.2135l.3161-.7839a.1634.1634,0,0,1,.2134-.0908l.6125.247a.1638.1638,0,0,1,.0908.2134l-.3162.784a.1631.1631,0,0,1-.0879.09A.1649.1649,0,0,1,61.7182,63.8691Zm-.393-.5018.3082.1242.1934-.48-.3082-.1242Z" transform="translate(-18.4415 -9.5786)" fill="#15003e"/><polygon points="41.678 54.007 41.125 53.645 42.635 51.34 43.188 51.702 41.678 54.007" fill="#ffce08"/><path d="M60.1105,63.8319a.2458.2458,0,0,1-.1262-.04l-.5528-.3622a.2463.2463,0,0,1-.071-.3414l1.51-2.3051a.2464.2464,0,0,1,.3413-.0711l.5527.3622a.2464.2464,0,0,1,.0711.3413l-1.51,2.305a.2468.2468,0,0,1-.156.1064A.2416.2416,0,0,1,60.1105,63.8319Zm-.2024-.68.14.0919,1.24-1.8925-.14-.0918Z" transform="translate(-18.4415 -9.5786)" fill="#15003e"/><path d="M60.5719,63.0518a.1635.1635,0,0,1-.0838-.0267l-.5526-.3621a.1642.1642,0,0,1-.0474-.2271l.4633-.7072a.1642.1642,0,0,1,.2272-.0475l.5527.3622a.164.164,0,0,1,.0473.2273l-.4634.7071A.164.164,0,0,1,60.5719,63.0518Zm-.3193-.5734.278.1821.2836-.4326-.2782-.1822Z" transform="translate(-18.4415 -9.5786)" fill="#15003e"/><polygon points="40.804 51.046 41.086 51.644 42.506 50.959 42.224 50.361 40.804 51.046" fill="#ffce08"/><path d="M59.518,61.4689a.2464.2464,0,0,1-.2141-.1411l-.2817-.5977a.2467.2467,0,0,1,.116-.3273l1.42-.6852a.2467.2467,0,0,1,.33.1169l.2817.5974a.2466.2466,0,0,1-.1158.3273l-1.42.6854A.2468.2468,0,0,1,59.518,61.4689Zm.0546-.7282.0713.1515.9758-.4709-.0713-.1514Z" transform="translate(-18.4415 -9.5786)" fill="#15003e"/><path d="M60.2742,61.0314a.164.164,0,0,1-.1426-.0941L59.85,60.34a.1642.1642,0,1,1,.297-.14l.2816.5976a.1642.1642,0,0,1-.1544.2339Z" transform="translate(-18.4415 -9.5786)" fill="#15003e"/><polygon points="45.816 54.93 45.161 54.849 45.498 52.114 46.154 52.195 45.816 54.93" fill="#ffce08"/><path d="M64.249,64.7548l-.0215-.0017-.6556-.0808a.2468.2468,0,0,1-.2145-.275l.3374-2.7349a.2468.2468,0,0,1,.275-.2146l.6555.0811a.2469.2469,0,0,1,.2147.275l-.3374,2.7347A.247.247,0,0,1,64.249,64.7548Zm-.372-.5419.1661.02.277-2.2453-.166-.0205Z" transform="translate(-18.4415 -9.5786)" fill="#15003e"/><path d="M64.3529,63.8505l-.0141-.0011-.6555-.0814a.1638.1638,0,0,1-.1426-.183l.104-.8391a.1639.1639,0,0,1,.0619-.1093.1656.1656,0,0,1,.1212-.0334l.6555.0815a.1638.1638,0,0,1,.1425.183l-.104.839a.1638.1638,0,0,1-.1689.1438Zm-.4665-.388.33.0409L64.28,62.99l-.33-.0411Z" transform="translate(-18.4415 -9.5786)" fill="#15003e"/></g><path d="M63.7147,62.6105a.2506.2506,0,0,1-.0333-.0034.2465.2465,0,0,1-.201-.285l.2614-1.5109a.2466.2466,0,0,1,.486.0841l-.2614,1.5109A.2466.2466,0,0,1,63.7147,62.6105Z" transform="translate(-18.4415 -9.5786)" fill="#15003e"/><path d="M62.6856,62.2672a.2466.2466,0,0,1-.2239-.3275l.4639-1.3316a.2466.2466,0,1,1,.4657.1621l-.4639,1.3316A.2469.2469,0,0,1,62.6856,62.2672Z" transform="translate(-18.4415 -9.5786)" fill="#15003e"/><path d="M61.557,61.7577a.2467.2467,0,0,1-.2014-.3748l.7381-1.2114a.2466.2466,0,1,1,.4212.2565l-.7382,1.2114A.2467.2467,0,0,1,61.557,61.7577Z" transform="translate(-18.4415 -9.5786)" fill="#15003e"/><path d="M60.92,60.9243a.2465.2465,0,0,1-.1751-.41l.9711-1.0911a.2466.2466,0,0,1,.3684.328l-.9712,1.091A.2454.2454,0,0,1,60.92,60.9243Z" transform="translate(-18.4415 -9.5786)" fill="#15003e"/><polygon points="41.576 57.488 41.856 58.039 41.644 58.94 41.139 58.527 41.227 57.866 41.576 57.488" fill="#fff"/><path d="M59.2715,65.244" transform="translate(-18.4415 -9.5786)" fill="#fff" stroke="#25e899" stroke-linecap="round" stroke-miterlimit="10" stroke-width="11"/><path d="M59.2715,66.7772" transform="translate(-18.4415 -9.5786)" fill="#fff" stroke="#25e899" stroke-linecap="round" stroke-miterlimit="10" stroke-width="11"/><path d="M59.2715,66.8825a.1053.1053,0,0,1-.1052-.1053v-.83a.1053.1053,0,1,1,.2105,0v.83A.1053.1053,0,0,1,59.2715,66.8825Z" transform="translate(-18.4415 -9.5786)" fill="#15003e"/><line x1="40.6735" y1="57.1986" x2="40.9989" y2="57.1986" fill="#fff"/><path d="M59.44,66.8825H59.115a.1053.1053,0,0,1,0-.2106H59.44a.1053.1053,0,0,1,0,.2106Z" transform="translate(-18.4415 -9.5786)" fill="#15003e"/><path d="M60.0176,67.067l.3459-.326a1.4627,1.4627,0,1,0-1.0343,2.497c.3012,0,.566.11.7986-.0461l.2895.04-.0083-.47-.829-.6565h0l.1782-.8394.2594-.1991" transform="translate(-18.4415 -9.5786)" fill="#fff"/><path d="M59.3292,69.3815A1.6063,1.6063,0,1,1,60.465,66.64l.1046.1045-.4535.4274-.1969-.2089.2323-.219a1.3192,1.3192,0,1,0-.8223,2.3509" transform="translate(-18.4415 -9.5786)" fill="#15003e"/><path d="M60.1355,68.5564l-.2062-.2a.8355.8355,0,0,0-.018-1.1807l-.1075-.1045.1153-.1088.0983.1041.0939-.0967a1.1226,1.1226,0,0,1,.0242,1.5864Z" transform="translate(-18.4415 -9.5786)" fill="#0fce7c"/><path d="M60.0324,68.4565" transform="translate(-18.4415 -9.5786)" fill="#15003e"/><circle cx="40.8877" cy="58.1966" r="0.3303" fill="#eff4ee"/><path d="M59.3292,68.249a.4738.4738,0,1,1,.4738-.4737A.4743.4743,0,0,1,59.3292,68.249Zm0-.66a.1867.1867,0,1,0,.1867.1868A.187.187,0,0,0,59.3292,67.5885Z" transform="translate(-18.4415 -9.5786)" fill="#15003e"/><line x1="41.922" y1="57.1623" x2="41.0873" y2="57.9336" fill="#15003e"/><rect x="59.378" y="66.983" width="1.1364" height="0.2871" transform="translate(-48.0787 48.9256) rotate(-42.7364)" fill="#15003e"/><polyline points="41.044 58.488 41.644 58.94 41.968 59.183 41.968 59.803 41.317 59.772" fill="#fff"/><polygon points="42.111 59.803 40.862 59.803 40.862 59.516 41.824 59.516 41.824 59.255 40.957 58.603 41.13 58.373 42.111 59.112 42.111 59.803" fill="#15003e"/><path d="M60.0455,68.4671" transform="translate(-18.4415 -9.5786)" fill="#15003e"/><path d="M59.7582,69.9229" transform="translate(-18.4415 -9.5786)" fill="#15003e"/><path d="M58.6462,69.9229" transform="translate(-18.4415 -9.5786)" fill="#15003e"/><rect x="60.6881" y="65.9451" width="0.1627" height="0.1627" transform="translate(-47.3303 52.7306) rotate(-45)" fill="#25e899"/><rect x="60.1759" y="65.4329" width="0.0778" height="0.0778" transform="translate(-47.1006 52.1759) rotate(-45)" fill="#25e899"/><circle cx="42.3168" cy="55.4102" r="0.0829" fill="#25e899"/><path d="M58.7732,67.1723a.1053.1053,0,0,1-.1052-.1053V65.9475a.1053.1053,0,1,1,.2105,0V67.067A.1053.1053,0,0,1,58.7732,67.1723Z" transform="translate(-18.4415 -9.5786)" fill="#15003e"/></svg>