<svg xmlns="http://www.w3.org/2000/svg" xmlns:xlink="http://www.w3.org/1999/xlink" viewBox="0 0 1096.33231 1910.33048"><defs><style>.cls-1,.cls-10,.cls-11,.cls-12,.cls-14,.cls-17,.cls-24,.cls-26,.cls-3,.cls-4,.cls-5,.cls-7,.cls-8,.cls-9{fill:none;}.cls-1,.cls-14,.cls-17,.cls-3,.cls-4,.cls-41,.cls-42,.cls-43,.cls-44,.cls-45,.cls-5,.cls-7{stroke:#fff;}.cls-1,.cls-11,.cls-13,.cls-14,.cls-20,.cls-24,.cls-25,.cls-26,.cls-27,.cls-28,.cls-29,.cls-42,.cls-46,.cls-5,.cls-9{stroke-linecap:round;}.cls-1,.cls-10,.cls-12,.cls-13,.cls-14,.cls-24,.cls-27,.cls-28,.cls-29,.cls-4,.cls-41,.cls-42,.cls-43,.cls-44,.cls-45,.cls-46,.cls-7,.cls-9{stroke-miterlimit:10;}.cls-1,.cls-3,.cls-4,.cls-5,.cls-7{stroke-width:100px;}.cls-12,.cls-2,.cls-32,.cls-33,.cls-34,.cls-7{opacity:0.4;}.cls-11,.cls-15,.cls-17,.cls-20,.cls-21,.cls-22,.cls-25,.cls-26,.cls-3,.cls-35,.cls-36,.cls-5,.cls-8{stroke-linejoin:round;}.cls-25,.cls-30,.cls-31,.cls-34,.cls-41,.cls-42,.cls-46,.cls-6{fill:#fff;}.cls-10,.cls-11,.cls-12,.cls-8,.cls-9{stroke:#000;stroke-width:50px;}.cls-13{fill:#fbc115;}.cls-13,.cls-15,.cls-20,.cls-21,.cls-22,.cls-24,.cls-25,.cls-26,.cls-27,.cls-28,.cls-29,.cls-35,.cls-36{stroke:#15003e;}.cls-13,.cls-14,.cls-15,.cls-17,.cls-20,.cls-21,.cls-22,.cls-24,.cls-25,.cls-26,.cls-27,.cls-28,.cls-29,.cls-35,.cls-36{stroke-width:6px;}.cls-15,.cls-20{fill:#f06c00;}.cls-16,.cls-22,.cls-29,.cls-43{fill:#15003e;}.cls-18,.cls-27{fill:#25e899;}.cls-19,.cls-28,.cls-45{fill:#eff4ee;}.cls-21{fill:#f07100;}.cls-23,.cls-44{fill:#0fce7c;}.cls-30{opacity:0.2;}.cls-31{opacity:0.5;}.cls-32{fill:url(#linear-gradient);}.cls-33{fill:url(#linear-gradient-2);}.cls-35{fill:#fb1b26;}.cls-36{fill:#45bdd5;}.cls-37,.cls-39{font-size:106.97483px;font-family:Muli-Medium, Muli;}.cls-38{letter-spacing:-0.077em;}.cls-39{letter-spacing:-0.07699em;}.cls-40{letter-spacing:0em;}.cls-41,.cls-42,.cls-43,.cls-44,.cls-45{stroke-width:10px;}.cls-46{stroke:#25e899;stroke-width:11px;}</style><linearGradient id="linear-gradient" x1="1132.99748" y1="1523.75568" x2="1132.99748" y2="1506.12296" gradientUnits="userSpaceOnUse"><stop offset="0" stop-color="#fff"/><stop offset="0.5" stop-color="#fff" stop-opacity="0.5"/><stop offset="1" stop-color="#fff"/></linearGradient><linearGradient id="linear-gradient-2" x1="859.35131" y1="1523.75568" x2="859.35131" y2="1506.12296" xlink:href="#linear-gradient"/></defs><title>Lego-BUIDL</title><g id="Charachter_copy_2" data-name="Charachter copy 2"><path class="cls-1" d="M821.918,443.46707H800.82129a31.12746,31.12746,0,0,1-31.03669-31.03337V333.61357a31.12746,31.12746,0,0,1,31.03669-31.03338H809.768" transform="translate(-450.55665 -56.67015)"/><g class="cls-2"><path class="cls-1" d="M801.5,431.85214h-9.27271c-7.50285,0-13.64168-11.584-13.64168-25.7392V340.73921C778.58562,326.584,784.72445,315,792.22729,315h3.93237" transform="translate(-450.55665 -56.67015)"/></g><path class="cls-1" d="M1157.5703,443.46707H1178.667a31.12746,31.12746,0,0,0,31.03669-31.03337V333.61357a31.12746,31.12746,0,0,0-31.03669-31.03338h-8.94667" transform="translate(-450.55665 -56.67015)"/><g class="cls-2"><path class="cls-1" d="M1178.81472,431.85214h9.27271c7.50285,0,13.64168-11.584,13.64168-25.7392V340.73921c0-14.15518-6.13883-25.73921-13.64168-25.73921h-3.93237" transform="translate(-450.55665 -56.67015)"/></g><rect class="cls-1" x="460.96751" y="105.45914" width="153.56299" height="106.53745" rx="29.15699" ry="29.15699"/><rect class="cls-1" x="355.54089" y="178.45449" width="371.47275" height="363.06017" rx="53.24173" ry="53.24173"/><path class="cls-3" d="M1195.80078,1136.0801h-399.237a32.22989,32.22989,0,0,1-32.16864-34.216L790.4154,680.41035A32.22989,32.22989,0,0,1,822.584,650.16654h347.19644a32.22989,32.22989,0,0,1,32.16863,30.24382l26.02029,421.45379A32.22989,32.22989,0,0,1,1195.80078,1136.0801Z" transform="translate(-450.55665 -56.67015)"/><path class="cls-4" d="M1142.09826,1070.71847h-291.832a23.55922,23.55922,0,0,1-23.51444-25.011L845.772,737.63561a23.55922,23.55922,0,0,1,23.51444-22.10745h253.79167a23.55922,23.55922,0,0,1,23.51444,22.10745l19.02016,308.07187A23.55922,23.55922,0,0,1,1142.09826,1070.71847Z" transform="translate(-450.55665 -56.67015)"/><path class="cls-3" d="M844.674,1003.12553h302.39667" transform="translate(-450.55665 -56.67015)"/><path class="cls-3" d="M849.39939,876.7697h292.94582" transform="translate(-450.55665 -56.67015)"/><path class="cls-3" d="M862.74461,742.70914H1129" transform="translate(-450.55665 -56.67015)"/><path class="cls-4" d="M1030.757,1007.69833a36.86673,36.86673,0,1,0-36.868,36.86806,36.8669,36.8669,0,0,0,36.868-36.86806" transform="translate(-450.55665 -56.67015)"/><path class="cls-4" d="M814.90779,1121.30967a23.22168,23.22168,0,1,0-23.22335,23.22337,23.22237,23.22237,0,0,0,23.22335-23.22337" transform="translate(-450.55665 -56.67015)"/><path class="cls-4" d="M1222.88725,1121.30967a23.22168,23.22168,0,1,0-23.22335,23.22337,23.22237,23.22237,0,0,0,23.22335-23.22337" transform="translate(-450.55665 -56.67015)"/><path class="cls-4" d="M1197.07952,1105.49455a14.41334,14.41334,0,1,0-14.41334,14.41335,14.41369,14.41369,0,0,0,14.41334-14.41335" transform="translate(-450.55665 -56.67015)"/><path class="cls-4" d="M820.51089,1105.49455a14.41334,14.41334,0,1,0-14.41334,14.41335,14.41369,14.41369,0,0,0,14.41334-14.41335" transform="translate(-450.55665 -56.67015)"/><path class="cls-3" d="M1127.07064,1497.30671h81.98349V1188.4486c0-28.59478-36.70688-51.77729-81.98349-51.77729s-81.98349,23.18251-81.98349,51.77729v257.08084C1045.08715,1474.12423,1081.794,1497.30671,1127.07064,1497.30671Z" transform="translate(-450.55665 -56.67015)"/><path class="cls-5" d="M1083.76492,1548.17679h98.44645c19.67154,0,35.61792-11.38668,35.61792-25.43337,0-14.05-15.94638-25.43671-35.61792-25.43671h-98.44645c-19.67155,0-35.61793,11.38668-35.61793,25.43671C1048.147,1536.7901,1064.09337,1548.17679,1083.76492,1548.17679Z" transform="translate(-450.55665 -56.67015)"/><rect class="cls-5" x="603.26886" y="1491.50704" width="161.05561" height="110.45346"/><rect class="cls-5" x="594.5305" y="1601.95715" width="177.8001" height="69.09678"/><rect class="cls-5" x="318.52943" y="1601.95715" width="177.8001" height="69.09678"/><path class="cls-3" d="M1196.763,1382.776H1060.05173" transform="translate(-450.55665 -56.67015)"/><path class="cls-3" d="M1196.763,1248.18717H1060.05173" transform="translate(-450.55665 -56.67015)"/><path class="cls-3" d="M865.26881,1497.30671H783.28532V1188.4486c0-28.59478,36.70688-51.77729,81.98349-51.77729s81.98349,23.18251,81.98349,51.77729v257.08084C947.2523,1474.12423,910.54542,1497.30671,865.26881,1497.30671Z" transform="translate(-450.55665 -56.67015)"/><path class="cls-5" d="M908.57453,1548.17679H810.12808c-19.67155,0-35.61792-11.38668-35.61792-25.43337,0-14.05,15.94638-25.43671,35.61792-25.43671h98.44645c19.67155,0,35.61793,11.38668,35.61793,25.43671C944.19246,1536.7901,928.24608,1548.17679,908.57453,1548.17679Z" transform="translate(-450.55665 -56.67015)"/><rect class="cls-5" x="326.90168" y="1491.50704" width="161.05561" height="110.45346"/><path class="cls-3" d="M795.57641,1382.776H932.28772" transform="translate(-450.55665 -56.67015)"/><path class="cls-3" d="M795.57641,1248.18717H932.28772" transform="translate(-450.55665 -56.67015)"/><path class="cls-4" d="M841.40536,472.2725h270.85429l22.95253,8.75854-17.26145,61.80977H858.4505Z" transform="translate(-450.55665 -56.67015)"/><path class="cls-4" d="M940.62347,472.272a115.6872,115.6872,0,0,1-42.7814-179.50227c21.21373-25.70257,154.65069-27.00877,175.83914-3.08993a115.68154,115.68154,0,0,1-40.12687,182.58658" transform="translate(-450.55665 -56.67015)"/><path class="cls-1" d="M933.31446,472.2673a121.00274,121.00274,0,0,1-49.07923-173.9376" transform="translate(-450.55665 -56.67015)"/><path class="cls-1" d="M1083.72257,291.96966a120.987,120.987,0,0,1-43.464,179.67925" transform="translate(-450.55665 -56.67015)"/><path class="cls-1" d="M805.99774,356.09826v-194.507" transform="translate(-450.55665 -56.67015)"/><path class="cls-1" d="M1177.763,356.09722V106.67015" transform="translate(-450.55665 -56.67015)"/><path class="cls-1" d="M867.37478,304c31.34479-18.94429,74.6456-30.661,122.47364-30.661,45.22658,0,86.40288,10.476,117.25083,27.63188" transform="translate(-450.55665 -56.67015)"/><path class="cls-1" d="M841.40536,472.26181h293.80682" transform="translate(-450.55665 -56.67015)"/><path class="cls-1" d="M863.80683,554.94643H1112.8107" transform="translate(-450.55665 -56.67015)"/><path class="cls-1" d="M1092.3785,518.79c-14.85973,0-14.85973-22.4722-29.72226-22.4722-14.85973,0-14.85973,22.4722-29.71945,22.4722-14.86534,0-14.86534-22.4722-29.73069-22.4722-14.871,0-14.871,22.4722-29.73911,22.4722-14.86534,0-14.86534-22.4722-29.73068-22.4722-14.87658,0-14.87658,22.4722-29.75035,22.4722-14.87658,0-14.87658-22.4722-29.75316-22.4722" transform="translate(-450.55665 -56.67015)"/><path class="cls-5" d="M1307.48,1105.42371l51.244-6.07936a49.19816,49.19816,0,0,0,43.06157-54.65036l-43.07905-363.12081a49.19887,49.19887,0,0,0-54.65364-43.06123l-51.244,6.07936A49.19816,49.19816,0,0,0,1209.751,699.2446L1252.83,1062.36541A49.19745,49.19745,0,0,0,1307.48,1105.42371Z" transform="translate(-450.55665 -56.67015)"/><path class="cls-5" d="M1356.02272,791.09743l-118.03356,14.003" transform="translate(-450.55665 -56.67015)"/><path class="cls-5" d="M1364.47708,862.36071l-118.03356,14.003" transform="translate(-450.55665 -56.67015)"/><path class="cls-1" d="M1297.63985,768.10563l-13.20638-111.31886" transform="translate(-450.55665 -56.67015)"/><path class="cls-1" d="M1349.39239,1000.77278l-9.186-77.43009a19.7577,19.7577,0,0,0-21.94741-17.29221l-16.65847,1.97629a19.75827,19.75827,0,0,0-17.29481,21.94774l9.186,77.43009" transform="translate(-450.55665 -56.67015)"/><path class="cls-4" d="M1293.4928,1007.40579a28.14635,28.14635,0,1,1,31.26626,24.63447,28.14686,28.14686,0,0,1-31.26626-24.63447" transform="translate(-450.55665 -56.67015)"/><circle class="cls-1" cx="1321.44272" cy="1004.09077" r="28.14635" transform="translate(-559.64579 106.00055) rotate(-6.7657)"/><path class="cls-1" d="M1429.46087,1213.22912a77.91934,77.91934,0,0,1,.15643,16.2404,5.44807,5.44807,0,0,1-4.82665,4.85316l-20.73081,2.37752a5.48494,5.48494,0,0,1-6.00962-6.43987,46.8,46.8,0,1,0-89.099,10.27639,5.46886,5.46886,0,0,1-4.4179,7.57773l-20.7317,2.37763a5.44909,5.44909,0,0,1-5.80093-3.63574,78.03249,78.03249,0,0,1,67.38-102.51818C1387.19378,1140.76607,1424.70876,1171.53364,1429.46087,1213.22912Z" transform="translate(-450.55665 -56.67015)"/><path class="cls-1" d="M1429.46087,1213.22912a77.91934,77.91934,0,0,1,.15643,16.2404,5.44807,5.44807,0,0,1-4.82665,4.85316l-20.73081,2.37752a5.48494,5.48494,0,0,1-6.00962-6.43987,46.8,46.8,0,1,0-89.099,10.27639,5.46886,5.46886,0,0,1-4.4179,7.57773l-20.7317,2.37763a5.44909,5.44909,0,0,1-5.80093-3.63574,78.03249,78.03249,0,0,1,67.38-102.51818C1387.19378,1140.76607,1424.70876,1171.53364,1429.46087,1213.22912Z" transform="translate(-450.55665 -56.67015)"/><path class="cls-1" d="M1364.4876,1145.07829a135.4631,135.4631,0,0,0-43.7382,5.01614l-5.15766-44.97223,43.73821-5.01614Z" transform="translate(-450.55665 -56.67015)"/><path class="cls-1" d="M702.84317,776.31781,715.983,662.187" transform="translate(-450.55665 -56.67015)"/><path class="cls-1" d="M662.98226,1122.524,677.5291,996.1718" transform="translate(-450.55665 -56.67015)"/><path class="cls-5" d="M693.00057,1087.42948l-51.26473-5.90207a49.19816,49.19816,0,0,1-43.25035-54.50108l41.82273-363.26765a49.19887,49.19887,0,0,1,54.50436-43.25l51.26473,5.90207a49.19816,49.19816,0,0,1,43.24666,54.504l-41.82273,363.26765A49.19745,49.19745,0,0,1,693.00057,1087.42948Z" transform="translate(-450.55665 -56.67015)"/><path class="cls-4" d="M713.17725,968.55108a32.25243,32.25243,0,1,0-35.72811,28.35079,32.25081,32.25081,0,0,0,35.72811-28.35079" transform="translate(-450.55665 -56.67015)"/><circle class="cls-1" cx="681.13704" cy="964.86569" r="32.2511" transform="translate(-805.85785 1474.50752) rotate(-83.4325)"/><path class="cls-5" d="M642.33438,769.35128l121.01515,13.93238" transform="translate(-450.55665 -56.67015)"/><path class="cls-5" d="M633.92264,842.41471l121.01515,13.93238" transform="translate(-450.55665 -56.67015)"/><path class="cls-1" d="M725.04645,1254.453a77.91932,77.91932,0,0,1-4.02775,15.73379,5.44807,5.44807,0,0,1-5.91292,3.44777l-20.64452-3.0369a5.48494,5.48494,0,0,1-4.15018-7.76939A46.8,46.8,0,1,0,601.568,1249.832a5.46886,5.46886,0,0,1-6.219,6.18577l-20.64541-3.037a5.44909,5.44909,0,0,1-4.67006-5.006,78.03249,78.03249,0,0,1,91.4907-81.72817C702.8485,1173.554,731.18326,1212.9387,725.04645,1254.453Z" transform="translate(-450.55665 -56.67015)"/><path class="cls-1" d="M722.04645,1254.453a77.91932,77.91932,0,0,1-4.02775,15.73379,5.44807,5.44807,0,0,1-5.91292,3.44777l-20.64452-3.0369a5.48494,5.48494,0,0,1-4.15018-7.76939A46.8,46.8,0,1,0,598.568,1249.832a5.46886,5.46886,0,0,1-6.219,6.18577l-20.64541-3.037a5.44909,5.44909,0,0,1-4.67006-5.006,78.03249,78.03249,0,0,1,91.4907-81.72817C699.8485,1173.554,728.18326,1212.9387,722.04645,1254.453Z" transform="translate(-450.55665 -56.67015)"/><path class="cls-1" d="M676.79729,1171.87831a135.46311,135.46311,0,0,0-43.55615-6.4073l6.58808-44.785,43.55616,6.4073Z" transform="translate(-450.55665 -56.67015)"/><path class="cls-6" d="M1157.63464,539.50745a173.635,173.635,0,0,1-12.8689-12.235c-3.90942-4.07837-7.47766-8.15674-10.894-12.235a265.41089,265.41089,0,0,1-32.18652-48.94006c-2.13965-4.07837-3.98413-8.15674-5.89417-12.23511-1.73523-4.07837-3.5636-8.15662-5.07837-12.235a259.48373,259.48373,0,0,1-13.80676-48.94006,272.301,272.301,0,0,1-4.26477-48.94006,277.55143,277.55143,0,0,1,4.42981-48.94006c.36914-2.03918.7843-4.07837,1.184-6.11755.45117-2.03918.85449-4.07837,1.34509-6.11755l.72192-3.05872c.01489-.059.03027-.13818.04492-.18042l.03662.24573.0824.49048.20386.976q.22229.97192.51795,1.92334l.31311.94275.2749.96155c.19568.63757.41235,1.2688.67053,1.88635.243.62207.5553,1.21692.807,1.82764q.3772.91754.82507,1.80469a36.10689,36.10689,0,0,0,9.48279,11.82117,22.00317,22.00317,0,0,0,2.89514,2.11279,24.96262,24.96262,0,0,0,2.98889,1.78674,31.1485,31.1485,0,0,0,6.3042,2.4375c.53125.14929,1.09094.23376,1.61206.37012q.78332.20361,1.58374.34009a12.15336,12.15336,0,0,0,1.62622.16748c.53528.05139,1.06006.11365,1.59424.13416a29.86918,29.86918,0,0,0,6.21558-.40271,18.3793,18.3793,0,0,0,2.92-.766,15.3908,15.3908,0,0,0,2.68726-1.01282c.43872-.23352.82739-.35632,1.23328-.58508q.60114-.33179,1.173-.72229.28528-.195.56177-.4043c.02954-.0343.12891-.07117.10046-.10437l-.19116-.09656-.38232-.193-1.52942-.77209a271.38409,271.38409,0,0,1-24.47-14.12537,268.90374,268.90374,0,0,1-24.47009-17.95081c-4.07837-3.40369-8.15674-6.95264-12.235-10.84338a173.28594,173.28594,0,0,1-12.23511-12.792v-9.99988c16.31335-1.10181,32.62671-1.75989,48.94019-2.44189l24.47-.8197,1.52942-.05041c.46191-.02734,1.11255-.01379,1.74536-.00061,1.25525.03809,2.51843.02234,3.77185.15112l3.75806.5022c1.23926.2478,2.46936.55945,3.70349.85291a43.85263,43.85263,0,0,1,31.0592,31.11462l.49536,1.87219c.16174.62488.23511,1.267.35266,1.90125l.31091,1.911.14893.95691.06763.96277c.08337,1.2627.17285,2.62073.219,3.81018l.04395,3.05872.17566,12.23511c.16357,16.31335.17932,32.62671.27612,48.94006l-.26257,48.94006-.35364,24.47-.1864,12.23511-.2926,12.235c-.73254,32.62671-1.82031,65.25342-3.90173,97.88013Z" transform="translate(-450.55665 -56.67015)"/><path class="cls-7" d="M1051.25,1523.75568c-.54663-7.18924,3.47917-13.13068,10.6875-17.63272h142.25c7.87817,5.42731,11.27083,11.21038,10.5,17.63272Z" transform="translate(-450.55665 -56.67015)"/><path class="cls-7" d="M777.60382,1523.75568c-.54663-7.18924,3.47917-13.13068,10.6875-17.63272h142.25c7.87817,5.42731,11.27083,11.21038,10.5,17.63272Z" transform="translate(-450.55665 -56.67015)"/><rect class="cls-1" x="427.38168" y="541.32985" width="234.06519" height="49.74462"/><rect class="cls-3" x="244.24815" y="1670.99044" width="584.52957" height="189.34004"/><g id="Reflect_copy_2" data-name="Reflect copy 2"><path class="cls-6" d="M1071,664.10278a203.11087,203.11087,0,0,1,15.78381-12.869c5.26123-3.9093,10.52246-7.47754,15.78369-10.89392a354.32193,354.32193,0,0,1,31.56763-18.03076c2.63061-1.3584,5.26123-2.57458,7.89185-3.8689,1.31531-.6532,2.63061-1.25281,3.94592-1.84546l.98657-.44861a1.05221,1.05221,0,0,1,.301-.11047l.61951-.099,1.244-.19006q2.49481-.36932,5.0376-.6521a85.67411,85.67411,0,0,1,10.34717-.37085q2.61273.12158,5.25684.34448l2.64587.24817c.87805.11426,1.756.24854,2.637.3855a85.95018,85.95018,0,0,1,20.92957,5.86047,94.16,94.16,0,0,1,36.47778,27.33093,100.07464,100.07464,0,0,1,20.29846,44.48145,432.87792,432.87792,0,0,1,28.96863,124.22388c3.54346,41.9408,1.73462,84.34814-7.27991,127.38367-.54871,2.68848-1.09985,5.37708-1.76868,8.076l-1.92651,8.08972-2.152,8.10938c-.68958,2.70068-1.56458,5.4176-2.33777,8.12561-3.23657,10.84454-6.96545,21.732-11.33057,32.67493a357.19189,357.19189,0,0,1-15.14172,33.00714c-2.934,5.537-6.01257,11.08655-9.43164,16.66577a203.14709,203.14709,0,0,1-11.373,16.835l-9.96216.86841-2.11853-15.659-1.93567-15.67487-3.856-31.35113-3.56311-31.37671c-1.194-10.45831-2.23791-20.92975-3.36414-31.394l-1.6604-15.69885-1.56189-15.70752-3.09131-31.41785-5.75781-62.87256-5.22095-62.91943L1174.5,731.8833l-1.18494-15.74036-1.0791-15.74951a25.16192,25.16192,0,0,0-3.41333-10.95483,26.28388,26.28388,0,0,0-19.5221-12.361l-1.52808-.12048c-.276-.0177-.46375-.0553-.813-.05969l-.98657-.02539-3.94592-.10156-7.89185-.21667-31.56763-1.1261-15.78369-.56958L1071,674.10278Z" transform="translate(-450.55665 -56.67015)"/></g></g><g id="Layer_11_copy" data-name="Layer 11 copy"><polygon class="cls-3" points="317.908 1379.008 53.185 1384.218 50 1222.408 142.749 1220.582 317.908 1379.008"/><polygon class="cls-3" points="1046.332 1364.385 767.468 1369.874 966.112 1204.09 1043.147 1202.574 1046.332 1364.385"/></g><g id="Layer_11" data-name="Layer 11"><polygon class="cls-8" points="317.908 1379.008 53.185 1384.218 50 1222.408 142.749 1220.582 317.908 1379.008"/><polygon class="cls-8" points="1046.332 1364.385 767.468 1369.874 966.112 1204.09 1043.147 1202.574 1046.332 1364.385"/></g><g id="Lego_copy" data-name="Lego copy"><g id="Charachter_copy" data-name="Charachter copy"><path class="cls-9" d="M821.918,443.46707H800.82129a31.12746,31.12746,0,0,1-31.03669-31.03337V333.61357a31.12746,31.12746,0,0,1,31.03669-31.03338H809.768" transform="translate(-450.55665 -56.67015)"/><g class="cls-2"><path class="cls-9" d="M801.5,431.85214h-9.27271c-7.50285,0-13.64168-11.584-13.64168-25.7392V340.73921C778.58562,326.584,784.72445,315,792.22729,315h3.93237" transform="translate(-450.55665 -56.67015)"/></g><path class="cls-9" d="M1157.5703,443.46707H1178.667a31.12746,31.12746,0,0,0,31.03669-31.03337V333.61357a31.12746,31.12746,0,0,0-31.03669-31.03338h-8.94667" transform="translate(-450.55665 -56.67015)"/><g class="cls-2"><path class="cls-9" d="M1178.81472,431.85214h9.27271c7.50285,0,13.64168-11.584,13.64168-25.7392V340.73921c0-14.15518-6.13883-25.73921-13.64168-25.73921h-3.93237" transform="translate(-450.55665 -56.67015)"/></g><rect class="cls-9" x="460.96751" y="105.45914" width="153.56299" height="106.53745" rx="29.15699" ry="29.15699"/><rect class="cls-9" x="355.54089" y="178.45449" width="371.47275" height="363.06017" rx="53.24173" ry="53.24173"/><path class="cls-8" d="M1195.80078,1136.0801h-399.237a32.22989,32.22989,0,0,1-32.16864-34.216L790.4154,680.41035A32.22989,32.22989,0,0,1,822.584,650.16654h347.19644a32.22989,32.22989,0,0,1,32.16863,30.24382l26.02029,421.45379A32.22989,32.22989,0,0,1,1195.80078,1136.0801Z" transform="translate(-450.55665 -56.67015)"/><path class="cls-10" d="M1142.09826,1070.71847h-291.832a23.55922,23.55922,0,0,1-23.51444-25.011L845.772,737.63561a23.55922,23.55922,0,0,1,23.51444-22.10745h253.79167a23.55922,23.55922,0,0,1,23.51444,22.10745l19.02016,308.07187A23.55922,23.55922,0,0,1,1142.09826,1070.71847Z" transform="translate(-450.55665 -56.67015)"/><path class="cls-8" d="M844.674,1003.12553h302.39667" transform="translate(-450.55665 -56.67015)"/><path class="cls-8" d="M849.39939,876.7697h292.94582" transform="translate(-450.55665 -56.67015)"/><path class="cls-8" d="M862.74461,742.70914H1129" transform="translate(-450.55665 -56.67015)"/><path class="cls-10" d="M1030.757,1007.69833a36.86673,36.86673,0,1,0-36.868,36.86806,36.8669,36.8669,0,0,0,36.868-36.86806" transform="translate(-450.55665 -56.67015)"/><path class="cls-10" d="M814.90779,1121.30967a23.22168,23.22168,0,1,0-23.22335,23.22337,23.22237,23.22237,0,0,0,23.22335-23.22337" transform="translate(-450.55665 -56.67015)"/><path class="cls-10" d="M1222.88725,1121.30967a23.22168,23.22168,0,1,0-23.22335,23.22337,23.22237,23.22237,0,0,0,23.22335-23.22337" transform="translate(-450.55665 -56.67015)"/><path class="cls-10" d="M1197.07952,1105.49455a14.41334,14.41334,0,1,0-14.41334,14.41335,14.41369,14.41369,0,0,0,14.41334-14.41335" transform="translate(-450.55665 -56.67015)"/><path class="cls-10" d="M820.51089,1105.49455a14.41334,14.41334,0,1,0-14.41334,14.41335,14.41369,14.41369,0,0,0,14.41334-14.41335" transform="translate(-450.55665 -56.67015)"/><path class="cls-8" d="M1127.07064,1497.30671h81.98349V1188.4486c0-28.59478-36.70688-51.77729-81.98349-51.77729s-81.98349,23.18251-81.98349,51.77729v257.08084C1045.08715,1474.12423,1081.794,1497.30671,1127.07064,1497.30671Z" transform="translate(-450.55665 -56.67015)"/><path class="cls-11" d="M1083.76492,1548.17679h98.44645c19.67154,0,35.61792-11.38668,35.61792-25.43337,0-14.05-15.94638-25.43671-35.61792-25.43671h-98.44645c-19.67155,0-35.61793,11.38668-35.61793,25.43671C1048.147,1536.7901,1064.09337,1548.17679,1083.76492,1548.17679Z" transform="translate(-450.55665 -56.67015)"/><rect class="cls-11" x="603.26886" y="1491.50704" width="161.05561" height="110.45346"/><rect class="cls-11" x="594.5305" y="1601.95715" width="177.8001" height="69.09678"/><rect class="cls-11" x="318.52943" y="1601.95715" width="177.8001" height="69.09678"/><path class="cls-8" d="M1196.763,1382.776H1060.05173" transform="translate(-450.55665 -56.67015)"/><path class="cls-8" d="M1196.763,1248.18717H1060.05173" transform="translate(-450.55665 -56.67015)"/><path class="cls-8" d="M865.26881,1497.30671H783.28532V1188.4486c0-28.59478,36.70688-51.77729,81.98349-51.77729s81.98349,23.18251,81.98349,51.77729v257.08084C947.2523,1474.12423,910.54542,1497.30671,865.26881,1497.30671Z" transform="translate(-450.55665 -56.67015)"/><path class="cls-11" d="M908.57453,1548.17679H810.12808c-19.67155,0-35.61792-11.38668-35.61792-25.43337,0-14.05,15.94638-25.43671,35.61792-25.43671h98.44645c19.67155,0,35.61793,11.38668,35.61793,25.43671C944.19246,1536.7901,928.24608,1548.17679,908.57453,1548.17679Z" transform="translate(-450.55665 -56.67015)"/><rect class="cls-11" x="326.90168" y="1491.50704" width="161.05561" height="110.45346"/><path class="cls-8" d="M795.57641,1382.776H932.28772" transform="translate(-450.55665 -56.67015)"/><path class="cls-8" d="M795.57641,1248.18717H932.28772" transform="translate(-450.55665 -56.67015)"/><path class="cls-10" d="M841.40536,472.2725h270.85429l22.95253,8.75854-17.26145,61.80977H858.4505Z" transform="translate(-450.55665 -56.67015)"/><path class="cls-10" d="M940.62347,472.272a115.6872,115.6872,0,0,1-42.7814-179.50227c21.21373-25.70257,154.65069-27.00877,175.83914-3.08993a115.68154,115.68154,0,0,1-40.12687,182.58658" transform="translate(-450.55665 -56.67015)"/><path class="cls-9" d="M933.31446,472.2673a121.00274,121.00274,0,0,1-49.07923-173.9376" transform="translate(-450.55665 -56.67015)"/><path class="cls-9" d="M1083.72257,291.96966a120.987,120.987,0,0,1-43.464,179.67925" transform="translate(-450.55665 -56.67015)"/><path class="cls-9" d="M805.99774,356.09826v-194.507" transform="translate(-450.55665 -56.67015)"/><path class="cls-9" d="M1177.763,356.09722V106.67015" transform="translate(-450.55665 -56.67015)"/><path class="cls-9" d="M867.37478,304c31.34479-18.94429,74.6456-30.661,122.47364-30.661,45.22658,0,86.40288,10.476,117.25083,27.63188" transform="translate(-450.55665 -56.67015)"/><path class="cls-9" d="M841.40536,472.26181h293.80682" transform="translate(-450.55665 -56.67015)"/><path class="cls-9" d="M863.80683,554.94643H1112.8107" transform="translate(-450.55665 -56.67015)"/><path class="cls-9" d="M1092.3785,518.79c-14.85973,0-14.85973-22.4722-29.72226-22.4722-14.85973,0-14.85973,22.4722-29.71945,22.4722-14.86534,0-14.86534-22.4722-29.73069-22.4722-14.871,0-14.871,22.4722-29.73911,22.4722-14.86534,0-14.86534-22.4722-29.73068-22.4722-14.87658,0-14.87658,22.4722-29.75035,22.4722-14.87658,0-14.87658-22.4722-29.75316-22.4722" transform="translate(-450.55665 -56.67015)"/><path class="cls-11" d="M1307.48,1105.42371l51.244-6.07936a49.19816,49.19816,0,0,0,43.06157-54.65036l-43.07905-363.12081a49.19887,49.19887,0,0,0-54.65364-43.06123l-51.244,6.07936A49.19816,49.19816,0,0,0,1209.751,699.2446L1252.83,1062.36541A49.19745,49.19745,0,0,0,1307.48,1105.42371Z" transform="translate(-450.55665 -56.67015)"/><path class="cls-11" d="M1356.02272,791.09743l-118.03356,14.003" transform="translate(-450.55665 -56.67015)"/><path class="cls-11" d="M1364.47708,862.36071l-118.03356,14.003" transform="translate(-450.55665 -56.67015)"/><path class="cls-9" d="M1297.63985,768.10563l-13.20638-111.31886" transform="translate(-450.55665 -56.67015)"/><path class="cls-9" d="M1349.39239,1000.77278l-9.186-77.43009a19.7577,19.7577,0,0,0-21.94741-17.29221l-16.65847,1.97629a19.75827,19.75827,0,0,0-17.29481,21.94774l9.186,77.43009" transform="translate(-450.55665 -56.67015)"/><path class="cls-10" d="M1293.4928,1007.40579a28.14635,28.14635,0,1,1,31.26626,24.63447,28.14686,28.14686,0,0,1-31.26626-24.63447" transform="translate(-450.55665 -56.67015)"/><circle class="cls-9" cx="1321.44272" cy="1004.09077" r="28.14635" transform="translate(-559.64579 106.00055) rotate(-6.7657)"/><path class="cls-9" d="M1429.46087,1213.22912a77.91934,77.91934,0,0,1,.15643,16.2404,5.44807,5.44807,0,0,1-4.82665,4.85316l-20.73081,2.37752a5.48494,5.48494,0,0,1-6.00962-6.43987,46.8,46.8,0,1,0-89.099,10.27639,5.46886,5.46886,0,0,1-4.4179,7.57773l-20.7317,2.37763a5.44909,5.44909,0,0,1-5.80093-3.63574,78.03249,78.03249,0,0,1,67.38-102.51818C1387.19378,1140.76607,1424.70876,1171.53364,1429.46087,1213.22912Z" transform="translate(-450.55665 -56.67015)"/><path class="cls-9" d="M1429.46087,1213.22912a77.91934,77.91934,0,0,1,.15643,16.2404,5.44807,5.44807,0,0,1-4.82665,4.85316l-20.73081,2.37752a5.48494,5.48494,0,0,1-6.00962-6.43987,46.8,46.8,0,1,0-89.099,10.27639,5.46886,5.46886,0,0,1-4.4179,7.57773l-20.7317,2.37763a5.44909,5.44909,0,0,1-5.80093-3.63574,78.03249,78.03249,0,0,1,67.38-102.51818C1387.19378,1140.76607,1424.70876,1171.53364,1429.46087,1213.22912Z" transform="translate(-450.55665 -56.67015)"/><path class="cls-9" d="M1364.4876,1145.07829a135.4631,135.4631,0,0,0-43.7382,5.01614l-5.15766-44.97223,43.73821-5.01614Z" transform="translate(-450.55665 -56.67015)"/><path class="cls-9" d="M702.84317,776.31781,715.983,662.187" transform="translate(-450.55665 -56.67015)"/><path class="cls-9" d="M662.98226,1122.524,677.5291,996.1718" transform="translate(-450.55665 -56.67015)"/><path class="cls-11" d="M693.00057,1087.42948l-51.26473-5.90207a49.19816,49.19816,0,0,1-43.25035-54.50108l41.82273-363.26765a49.19887,49.19887,0,0,1,54.50436-43.25l51.26473,5.90207a49.19816,49.19816,0,0,1,43.24666,54.504l-41.82273,363.26765A49.19745,49.19745,0,0,1,693.00057,1087.42948Z" transform="translate(-450.55665 -56.67015)"/><path class="cls-10" d="M713.17725,968.55108a32.25243,32.25243,0,1,0-35.72811,28.35079,32.25081,32.25081,0,0,0,35.72811-28.35079" transform="translate(-450.55665 -56.67015)"/><circle class="cls-9" cx="681.13704" cy="964.86569" r="32.2511" transform="translate(-805.85785 1474.50752) rotate(-83.4325)"/><path class="cls-11" d="M642.33438,769.35128l121.01515,13.93238" transform="translate(-450.55665 -56.67015)"/><path class="cls-11" d="M633.92264,842.41471l121.01515,13.93238" transform="translate(-450.55665 -56.67015)"/><path class="cls-9" d="M725.04645,1254.453a77.91932,77.91932,0,0,1-4.02775,15.73379,5.44807,5.44807,0,0,1-5.91292,3.44777l-20.64452-3.0369a5.48494,5.48494,0,0,1-4.15018-7.76939A46.8,46.8,0,1,0,601.568,1249.832a5.46886,5.46886,0,0,1-6.219,6.18577l-20.64541-3.037a5.44909,5.44909,0,0,1-4.67006-5.006,78.03249,78.03249,0,0,1,91.4907-81.72817C702.8485,1173.554,731.18326,1212.9387,725.04645,1254.453Z" transform="translate(-450.55665 -56.67015)"/><path class="cls-9" d="M722.04645,1254.453a77.91932,77.91932,0,0,1-4.02775,15.73379,5.44807,5.44807,0,0,1-5.91292,3.44777l-20.64452-3.0369a5.48494,5.48494,0,0,1-4.15018-7.76939A46.8,46.8,0,1,0,598.568,1249.832a5.46886,5.46886,0,0,1-6.219,6.18577l-20.64541-3.037a5.44909,5.44909,0,0,1-4.67006-5.006,78.03249,78.03249,0,0,1,91.4907-81.72817C699.8485,1173.554,728.18326,1212.9387,722.04645,1254.453Z" transform="translate(-450.55665 -56.67015)"/><path class="cls-9" d="M676.79729,1171.87831a135.46311,135.46311,0,0,0-43.55615-6.4073l6.58808-44.785,43.55616,6.4073Z" transform="translate(-450.55665 -56.67015)"/><path d="M1160.13464,539.50745a200.28381,200.28381,0,0,1-11.8468-24.47q-5.07477-12.23511-9.05-24.47009c-2.65869-8.15662-4.9939-16.31335-7.07788-24.47-1.06982-4.07837-1.99207-8.15674-2.947-12.23511-.86768-4.07837-1.78186-8.15662-2.53931-12.235a477.49761,477.49761,0,0,1-6.8855-48.94006q-2.20569-24.47-2.147-48.94006.03149-24.47,2.23425-48.94006l.57031-6.11755.69067-6.11755.34534-3.05872.02124-.18579.01257.02734a.31215.31215,0,0,0,.03064.05432,1.10268,1.10268,0,0,0,.08642.106,1.398,1.398,0,0,0,.228.19714l.14111.08887a1.01545,1.01545,0,0,0,.0835.10205,1.25476,1.25476,0,0,0,.22168.186c.075.0603.208.10242.26794.16113a1.07682,1.07682,0,0,0,.21448.16321,3.24928,3.24928,0,0,0,2.23962.36243,1.75277,1.75277,0,0,0,.53174-.16834,2.14286,2.14286,0,0,0,.47351-.24475,3.47806,3.47806,0,0,0,.84216-.77832,4.20079,4.20079,0,0,0,.86023-2.38733,7.29341,7.29341,0,0,0-.02271-.75623l-.16821-.73718c-.08032-.25024-.19751-.44312-.32251-.74866l-.101-.22144c-.01709-.01855.00073-.03931-.04529-.05652l-.19116-.04822-.38232-.09656-1.52942-.386c-8.15662-2.08313-16.31335-4.41321-24.47-7.06274s-16.31348-5.64-24.47009-9.01147a201.96383,201.96383,0,0,1-24.47009-11.78162v-4.99988l12.23511-.37537,12.235-.28357,24.47009-.55945,24.47-.35413c1.93713-.058,4.31873.01038,6.57031.17725l3.38635.47473c1.11511.23315,2.22058.52441,3.33118.79224A40.36147,40.36147,0,0,1,1160.2655,256.757a39.83675,39.83675,0,0,1,5.71362,12.51855l.434,1.67639c.14282.5592.19861,1.13574.3,1.70337l.26672,1.71045.13.85583.05115.86255c.0625,1.13965.13709,2.326.174,3.4292l.014,3.05872.05652,12.23511.2262,48.94006-.2218,48.94006-.11377,24.47-.06653,12.23511-.172,12.235-.69751,48.94006-.563,24.47009-.28479,12.235-.37768,12.235Z" transform="translate(-450.55665 -56.67015)"/><path class="cls-12" d="M1051.25,1523.75568c-.54663-7.18924,3.47917-13.13068,10.6875-17.63272h142.25c7.87817,5.42731,11.27083,11.21038,10.5,17.63272Z" transform="translate(-450.55665 -56.67015)"/><path class="cls-12" d="M777.60382,1523.75568c-.54663-7.18924,3.47917-13.13068,10.6875-17.63272h142.25c7.87817,5.42731,11.27083,11.21038,10.5,17.63272Z" transform="translate(-450.55665 -56.67015)"/><rect class="cls-9" x="427.38168" y="541.32985" width="234.06519" height="49.74462"/><rect class="cls-8" x="244.24815" y="1670.99044" width="584.52957" height="189.34004"/><g id="Reflect_copy" data-name="Reflect copy"><path d="M1071,666.60278a296.09952,296.09952,0,0,1,31.5675-11.8468q15.78387-5.07477,31.56763-9.05c2.63061-.6792,5.26123-1.28735,7.89185-1.93445,1.31531-.32666,2.63061-.62646,3.94592-.92273l.98657-.22437a2.36623,2.36623,0,0,1,.2738-.05432l.43286-.04382.86841-.0835q1.74005-.16168,3.50427-.28a65.64352,65.64352,0,0,1,7.12793.07324q1.78638.1745,3.58838.39954l1.80286.23779,1.7865.34827q1.78857.36493,3.5846.78271c1.1886.29785,2.3584.67407,3.53772,1.04272a61.606,61.606,0,0,1,6.93664,2.70947,64.42392,64.42392,0,0,1,23.866,19.09631,67.008,67.008,0,0,1,12.65979,29.64478c5.02295,20.68689,9.03589,41.462,12.34216,62.29858q4.93872,31.25684,7.62158,62.71021,2.71,31.45093,3.25684,63.09058c.34631,21.09473-.05078,42.25415-1.41089,63.49756-.66077,10.62-1.54321,21.2594-2.7218,31.9245-1.1615,10.6637-2.569,21.34882-4.29468,32.06165s-3.79114,21.45532-6.23621,32.23083a298.90834,298.90834,0,0,1-8.99561,32.47144l-4.9812.4342-1.74451-15.69159-1.6532-15.69952-3.29871-31.39972-6.1759-62.83618-1.54089-15.70923-1.44312-15.7179-2.854-31.43848-5.70789-62.877-5.26172-62.91589-2.62793-31.45813-1.30444-15.73-1.19934-15.73914a29.59244,29.59244,0,0,0-4.19971-12.90771,30.32662,30.32662,0,0,0-9.75378-9.63977,30.6493,30.6493,0,0,0-13.13379-4.33105c-2.20618-.18262-4.97437-.16882-7.5835-.202l-7.89185-.09558-31.56763-.563-15.78369-.28479L1071,671.60278Z" transform="translate(-450.55665 -56.67015)"/></g></g></g><g id="Lego"><g id="Charachter"><path class="cls-13" d="M821.918,443.46707H800.82129a31.12746,31.12746,0,0,1-31.03669-31.03337V333.61357a31.12746,31.12746,0,0,1,31.03669-31.03338H809.768" transform="translate(-450.55665 -56.67015)"/><g class="cls-2"><path class="cls-14" d="M801.5,431.85214h-9.27271c-7.50285,0-13.64168-11.584-13.64168-25.7392V340.73921C778.58562,326.584,784.72445,315,792.22729,315h3.93237" transform="translate(-450.55665 -56.67015)"/></g><path class="cls-13" d="M1157.5703,443.46707H1178.667a31.12746,31.12746,0,0,0,31.03669-31.03337V333.61357a31.12746,31.12746,0,0,0-31.03669-31.03338h-8.94667" transform="translate(-450.55665 -56.67015)"/><g class="cls-2"><path class="cls-14" d="M1178.81472,431.85214h9.27271c7.50285,0,13.64168-11.584,13.64168-25.7392V340.73921c0-14.15518-6.13883-25.73921-13.64168-25.73921h-3.93237" transform="translate(-450.55665 -56.67015)"/></g><rect class="cls-13" x="460.96751" y="105.45914" width="153.56299" height="106.53745" rx="29.15699" ry="29.15699"/><rect class="cls-13" x="355.54089" y="178.45449" width="371.47275" height="363.06017" rx="53.24173" ry="53.24173"/><path class="cls-15" d="M1195.80078,1136.0801h-399.237a32.22989,32.22989,0,0,1-32.16864-34.216L790.4154,680.41035A32.22989,32.22989,0,0,1,822.584,650.16654h347.19644a32.22989,32.22989,0,0,1,32.16863,30.24382l26.02029,421.45379A32.22989,32.22989,0,0,1,1195.80078,1136.0801Z" transform="translate(-450.55665 -56.67015)"/><path class="cls-16" d="M1142.09826,1070.71847h-291.832a23.55922,23.55922,0,0,1-23.51444-25.011L845.772,737.63561a23.55922,23.55922,0,0,1,23.51444-22.10745h253.79167a23.55922,23.55922,0,0,1,23.51444,22.10745l19.02016,308.07187A23.55922,23.55922,0,0,1,1142.09826,1070.71847Z" transform="translate(-450.55665 -56.67015)"/><path class="cls-17" d="M844.674,1003.12553h302.39667" transform="translate(-450.55665 -56.67015)"/><path class="cls-17" d="M849.39939,876.7697h292.94582" transform="translate(-450.55665 -56.67015)"/><path class="cls-17" d="M862.74461,742.70914H1129" transform="translate(-450.55665 -56.67015)"/><path class="cls-18" d="M1030.757,1007.69833a36.86673,36.86673,0,1,0-36.868,36.86806,36.8669,36.8669,0,0,0,36.868-36.86806" transform="translate(-450.55665 -56.67015)"/><path class="cls-16" d="M814.90779,1121.30967a23.22168,23.22168,0,1,0-23.22335,23.22337,23.22237,23.22237,0,0,0,23.22335-23.22337" transform="translate(-450.55665 -56.67015)"/><path class="cls-16" d="M1222.88725,1121.30967a23.22168,23.22168,0,1,0-23.22335,23.22337,23.22237,23.22237,0,0,0,23.22335-23.22337" transform="translate(-450.55665 -56.67015)"/><path class="cls-19" d="M1197.07952,1105.49455a14.41334,14.41334,0,1,0-14.41334,14.41335,14.41369,14.41369,0,0,0,14.41334-14.41335" transform="translate(-450.55665 -56.67015)"/><path class="cls-19" d="M820.51089,1105.49455a14.41334,14.41334,0,1,0-14.41334,14.41335,14.41369,14.41369,0,0,0,14.41334-14.41335" transform="translate(-450.55665 -56.67015)"/><path class="cls-15" d="M1127.07064,1497.30671h81.98349V1188.4486c0-28.59478-36.70688-51.77729-81.98349-51.77729s-81.98349,23.18251-81.98349,51.77729v257.08084C1045.08715,1474.12423,1081.794,1497.30671,1127.07064,1497.30671Z" transform="translate(-450.55665 -56.67015)"/><path class="cls-20" d="M1083.76492,1548.17679h98.44645c19.67154,0,35.61792-11.38668,35.61792-25.43337,0-14.05-15.94638-25.43671-35.61792-25.43671h-98.44645c-19.67155,0-35.61793,11.38668-35.61793,25.43671C1048.147,1536.7901,1064.09337,1548.17679,1083.76492,1548.17679Z" transform="translate(-450.55665 -56.67015)"/><rect class="cls-20" x="603.26886" y="1491.50704" width="161.05561" height="110.45346"/><rect class="cls-20" x="594.5305" y="1601.95715" width="177.8001" height="69.09678"/><rect class="cls-20" x="318.52943" y="1601.95715" width="177.8001" height="69.09678"/><path class="cls-21" d="M1196.763,1382.776H1060.05173" transform="translate(-450.55665 -56.67015)"/><path class="cls-22" d="M1196.763,1248.18717H1060.05173" transform="translate(-450.55665 -56.67015)"/><path class="cls-15" d="M865.26881,1497.30671H783.28532V1188.4486c0-28.59478,36.70688-51.77729,81.98349-51.77729s81.98349,23.18251,81.98349,51.77729v257.08084C947.2523,1474.12423,910.54542,1497.30671,865.26881,1497.30671Z" transform="translate(-450.55665 -56.67015)"/><path class="cls-20" d="M908.57453,1548.17679H810.12808c-19.67155,0-35.61792-11.38668-35.61792-25.43337,0-14.05,15.94638-25.43671,35.61792-25.43671h98.44645c19.67155,0,35.61793,11.38668,35.61793,25.43671C944.19246,1536.7901,928.24608,1548.17679,908.57453,1548.17679Z" transform="translate(-450.55665 -56.67015)"/><rect class="cls-20" x="326.90168" y="1491.50704" width="161.05561" height="110.45346"/><path class="cls-21" d="M795.57641,1382.776H932.28772" transform="translate(-450.55665 -56.67015)"/><path class="cls-22" d="M795.57641,1248.18717H932.28772" transform="translate(-450.55665 -56.67015)"/><path class="cls-18" d="M841.40536,472.2725h270.85429l22.95253,8.75854-17.26145,61.80977H858.4505Z" transform="translate(-450.55665 -56.67015)"/><path class="cls-23" d="M940.62347,472.272a115.6872,115.6872,0,0,1-42.7814-179.50227c21.21373-25.70257,154.65069-27.00877,175.83914-3.08993a115.68154,115.68154,0,0,1-40.12687,182.58658" transform="translate(-450.55665 -56.67015)"/><path class="cls-24" d="M933.31446,472.2673a121.00274,121.00274,0,0,1-49.07923-173.9376" transform="translate(-450.55665 -56.67015)"/><path class="cls-24" d="M1083.72257,291.96966a120.987,120.987,0,0,1-43.464,179.67925" transform="translate(-450.55665 -56.67015)"/><path class="cls-24" d="M805.99774,356.09826v-194.507" transform="translate(-450.55665 -56.67015)"/><path class="cls-24" d="M1177.763,356.09722V106.67015" transform="translate(-450.55665 -56.67015)"/><path class="cls-24" d="M867.37478,304c31.34479-18.94429,74.6456-30.661,122.47364-30.661,45.22658,0,86.40288,10.476,117.25083,27.63188" transform="translate(-450.55665 -56.67015)"/><path class="cls-24" d="M841.40536,472.26181h293.80682" transform="translate(-450.55665 -56.67015)"/><path class="cls-24" d="M863.80683,554.94643H1112.8107" transform="translate(-450.55665 -56.67015)"/><path class="cls-24" d="M1092.3785,518.79c-14.85973,0-14.85973-22.4722-29.72226-22.4722-14.85973,0-14.85973,22.4722-29.71945,22.4722-14.86534,0-14.86534-22.4722-29.73069-22.4722-14.871,0-14.871,22.4722-29.73911,22.4722-14.86534,0-14.86534-22.4722-29.73068-22.4722-14.87658,0-14.87658,22.4722-29.75035,22.4722-14.87658,0-14.87658-22.4722-29.75316-22.4722" transform="translate(-450.55665 -56.67015)"/><path class="cls-25" d="M1307.48,1105.42371l51.244-6.07936a49.19816,49.19816,0,0,0,43.06157-54.65036l-43.07905-363.12081a49.19887,49.19887,0,0,0-54.65364-43.06123l-51.244,6.07936A49.19816,49.19816,0,0,0,1209.751,699.2446L1252.83,1062.36541A49.19745,49.19745,0,0,0,1307.48,1105.42371Z" transform="translate(-450.55665 -56.67015)"/><path class="cls-26" d="M1356.02272,791.09743l-118.03356,14.003" transform="translate(-450.55665 -56.67015)"/><path class="cls-26" d="M1364.47708,862.36071l-118.03356,14.003" transform="translate(-450.55665 -56.67015)"/><path class="cls-27" d="M1297.63985,768.10563l-13.20638-111.31886" transform="translate(-450.55665 -56.67015)"/><path class="cls-28" d="M1349.39239,1000.77278l-9.186-77.43009a19.7577,19.7577,0,0,0-21.94741-17.29221l-16.65847,1.97629a19.75827,19.75827,0,0,0-17.29481,21.94774l9.186,77.43009" transform="translate(-450.55665 -56.67015)"/><path class="cls-18" d="M1293.4928,1007.40579a28.14635,28.14635,0,1,1,31.26626,24.63447,28.14686,28.14686,0,0,1-31.26626-24.63447" transform="translate(-450.55665 -56.67015)"/><circle class="cls-24" cx="1321.44272" cy="1004.09077" r="28.14635" transform="translate(-559.64579 106.00055) rotate(-6.7657)"/><path class="cls-24" d="M1429.46087,1213.22912a77.91934,77.91934,0,0,1,.15643,16.2404,5.44807,5.44807,0,0,1-4.82665,4.85316l-20.73081,2.37752a5.48494,5.48494,0,0,1-6.00962-6.43987,46.8,46.8,0,1,0-89.099,10.27639,5.46886,5.46886,0,0,1-4.4179,7.57773l-20.7317,2.37763a5.44909,5.44909,0,0,1-5.80093-3.63574,78.03249,78.03249,0,0,1,67.38-102.51818C1387.19378,1140.76607,1424.70876,1171.53364,1429.46087,1213.22912Z" transform="translate(-450.55665 -56.67015)"/><path class="cls-13" d="M1429.46087,1213.22912a77.91934,77.91934,0,0,1,.15643,16.2404,5.44807,5.44807,0,0,1-4.82665,4.85316l-20.73081,2.37752a5.48494,5.48494,0,0,1-6.00962-6.43987,46.8,46.8,0,1,0-89.099,10.27639,5.46886,5.46886,0,0,1-4.4179,7.57773l-20.7317,2.37763a5.44909,5.44909,0,0,1-5.80093-3.63574,78.03249,78.03249,0,0,1,67.38-102.51818C1387.19378,1140.76607,1424.70876,1171.53364,1429.46087,1213.22912Z" transform="translate(-450.55665 -56.67015)"/><path class="cls-13" d="M1364.4876,1145.07829a135.4631,135.4631,0,0,0-43.7382,5.01614l-5.15766-44.97223,43.73821-5.01614Z" transform="translate(-450.55665 -56.67015)"/><path class="cls-27" d="M702.84317,776.31781,715.983,662.187" transform="translate(-450.55665 -56.67015)"/><path class="cls-29" d="M662.98226,1122.524,677.5291,996.1718" transform="translate(-450.55665 -56.67015)"/><path class="cls-25" d="M693.00057,1087.42948l-51.26473-5.90207a49.19816,49.19816,0,0,1-43.25035-54.50108l41.82273-363.26765a49.19887,49.19887,0,0,1,54.50436-43.25l51.26473,5.90207a49.19816,49.19816,0,0,1,43.24666,54.504l-41.82273,363.26765A49.19745,49.19745,0,0,1,693.00057,1087.42948Z" transform="translate(-450.55665 -56.67015)"/><path class="cls-18" d="M713.17725,968.55108a32.25243,32.25243,0,1,0-35.72811,28.35079,32.25081,32.25081,0,0,0,35.72811-28.35079" transform="translate(-450.55665 -56.67015)"/><circle class="cls-24" cx="681.13704" cy="964.86569" r="32.2511" transform="translate(-805.85785 1474.50752) rotate(-83.4325)"/><path class="cls-26" d="M642.33438,769.35128l121.01515,13.93238" transform="translate(-450.55665 -56.67015)"/><path class="cls-26" d="M633.92264,842.41471l121.01515,13.93238" transform="translate(-450.55665 -56.67015)"/><path class="cls-24" d="M725.04645,1254.453a77.91932,77.91932,0,0,1-4.02775,15.73379,5.44807,5.44807,0,0,1-5.91292,3.44777l-20.64452-3.0369a5.48494,5.48494,0,0,1-4.15018-7.76939A46.8,46.8,0,1,0,601.568,1249.832a5.46886,5.46886,0,0,1-6.219,6.18577l-20.64541-3.037a5.44909,5.44909,0,0,1-4.67006-5.006,78.03249,78.03249,0,0,1,91.4907-81.72817C702.8485,1173.554,731.18326,1212.9387,725.04645,1254.453Z" transform="translate(-450.55665 -56.67015)"/><path class="cls-13" d="M722.04645,1254.453a77.91932,77.91932,0,0,1-4.02775,15.73379,5.44807,5.44807,0,0,1-5.91292,3.44777l-20.64452-3.0369a5.48494,5.48494,0,0,1-4.15018-7.76939A46.8,46.8,0,1,0,598.568,1249.832a5.46886,5.46886,0,0,1-6.219,6.18577l-20.64541-3.037a5.44909,5.44909,0,0,1-4.67006-5.006,78.03249,78.03249,0,0,1,91.4907-81.72817C699.8485,1173.554,728.18326,1212.9387,722.04645,1254.453Z" transform="translate(-450.55665 -56.67015)"/><path class="cls-13" d="M676.79729,1171.87831a135.46311,135.46311,0,0,0-43.55615-6.4073l6.58808-44.785,43.55616,6.4073Z" transform="translate(-450.55665 -56.67015)"/><path class="cls-6" d="M1162.23464,539.50749c-2.83093-32.62671-4.31018-65.25342-5.3064-97.88013l-.39795-12.23511-.25354-12.235-.481-24.47009c-.19495-16.31335-.24646-32.62671-.35718-48.94006.13184-16.31335.1532-32.62671.37561-48.94006l.23889-12.235.05969-3.05872-.06445-2.53918-.01123-.62842-.085-.61975-.16138-1.24219c-.063-.41248-.07715-.83582-.17493-1.2417l-.2887-1.2196a30.07881,30.07881,0,0,0-10.6925-16.8075,30.48137,30.48137,0,0,0-9.0459-4.90088c-.83289-.23584-1.66016-.50769-2.50073-.734l-2.57043-.491c-1.75256-.188-3.38171-.4071-5.54358-.46277l-24.47009-1.11475c-16.31336-.92761-32.62671-1.82251-48.94006-3.32092v-.8l48.94006-.09961,24.47009-.04993c2.025-.03308,4.11157.06189,6.17114.22815l3.07288.46277c1.01013.22461,2.00977.50244,3.01514.7522a35.93535,35.93535,0,0,1,24.86426,25.59229l.39026,1.50793c.12952.50281.17334,1.02319.26392,1.53394l.23791,1.53955.11841.7699.04138.77747.1532,3.108.00623,3.05872.0249,12.235.09973,48.94006-.3988,195.76038Z" transform="translate(-450.55665 -56.67015)"/><rect class="cls-30" x="408.78262" y="181.32985" width="39.92844" height="357.33333"/><polygon class="cls-31" points="401.076 538.651 383.443 532.08 383.443 187.33 401.076 181.318 401.076 538.651"/><path class="cls-32" d="M1051.25,1523.75568c-.54663-7.18924,3.47917-13.13068,10.6875-17.63272h142.25c7.87817,5.42731,11.27083,11.21038,10.5,17.63272Z" transform="translate(-450.55665 -56.67015)"/><path class="cls-33" d="M777.60382,1523.75568c-.54663-7.18924,3.47917-13.13068,10.6875-17.63272h142.25c7.87817,5.42731,11.27083,11.21038,10.5,17.63272Z" transform="translate(-450.55665 -56.67015)"/><polygon class="cls-34" points="378 528.08 369.187 519.83 369.352 200.08 378.172 191.83 378 528.08"/><polygon class="cls-30" points="519.311 175.497 496.358 175.497 496.275 108.461 519.227 108.461 519.311 175.497"/><path class="cls-31" d="M942.40181,232.16667H932.266l0-65.749a29.49392,29.49392,0,0,1,10.13586-1.277Z" transform="translate(-450.55665 -56.67015)"/><path class="cls-34" d="M929.13234,232.16667l-5.06746-.07272.097-61.15633a27.55175,27.55175,0,0,1,5.07275-3.26575Z" transform="translate(-450.55665 -56.67015)"/><path class="cls-6" d="M1057.45,224a152.61823,152.61823,0,0,1-3.97974-24.597l-.29846-3.07458-.21851-3.07458c-.02356-.56006-.10339-.89539-.15466-1.32043-.06811-.4054-.0791-.81409-.152-1.2146l-.262-1.18945-.12756-.59143-.19226-.57483a20.208,20.208,0,0,0-4.71643-8.2229,21.26444,21.26444,0,0,0-1.69873-1.67554l-.94727-.72717a8.22548,8.22548,0,0,0-.97266-.69263,20.98876,20.98876,0,0,0-4.2467-2.22107,22.11537,22.11537,0,0,0-4.72766-1.16992l-.61511-.08606a5.83386,5.83386,0,0,0-.68127-.0741c-.51245-.03857-1.0249-.06091-1.53735-.11719l-3.07458-.29663a154.308,154.308,0,0,1-24.597-3.96448v-.6001l12.29852-.14587,12.29852-.05286,3.07458-.01257c1.0238-.00684,2.045-.02026,3.09924.04919a24.08839,24.08839,0,0,1,16.71411,7.69666,25.08288,25.08288,0,0,1,3.6615,5.10364,26.66643,26.66643,0,0,1,1.27905,2.87329l.53259,1.48047.38623,1.525.19214.76245.121.77661.23047,1.55505c.06946,1.03931.13037,2.10168.13684,3.12744l-.02527,6.14917-.05273,12.29858L1058.05,224Z" transform="translate(-450.55665 -56.67015)"/><rect class="cls-13" x="427.38168" y="541.32985" width="234.06519" height="49.74462"/><rect class="cls-35" x="244.24815" y="1670.99044" width="584.52957" height="189.34004"/><g id="Reflect"><path class="cls-6" d="M1071,668.70276c21.045-1.51025,42.09009-2.40381,63.13513-3.33887l7.89185-.28931c2.65527-.079,5.13354-.2428,8.22546-.135a39.20637,39.20637,0,0,1,17.05859,4.83655,38.604,38.604,0,0,1,13.2489,12.18372,39.44505,39.44505,0,0,1,6.229,17.165l1.76709,15.68958,1.62329,15.70215,3.22034,31.40649c2.02173,20.94861,3.90063,41.90967,5.8385,62.8656,1.69629,20.97693,3.50256,41.94434,5.10852,62.9292l2.26526,31.48981,1.1106,15.74683.97669,15.75848c2.65893,42.01788,4.84741,84.07684,5.69922,126.25226l-.79687.06946-22.32788-251.55182-10.76795-125.81042a33.34836,33.34836,0,0,0-4.908-14.5509,33.67294,33.67294,0,0,0-25.7229-15.36694c-2.57007-.17712-5.22034-.12671-7.8479-.139l-7.89185-.01257L1071,669.50269Z" transform="translate(-450.55665 -56.67015)"/></g></g></g><g id="Layer_4" data-name="Layer 4"><rect class="cls-36" x="502.10068" y="1274.14603" width="499.63828" height="161.84217" transform="translate(-477.07674 -41.6111) rotate(-1.12757)"/><path class="cls-36" d="M603.18507,1223.5744h72.99147a16.5,16.5,0,0,1,16.5,16.5v35.40511a0,0,0,0,1,0,0H586.68507a0,0,0,0,1,0,0V1240.0744A16.5,16.5,0,0,1,603.18507,1223.5744Z" transform="translate(-475.0216 -43.84023) rotate(-1.12757)"/><path class="cls-36" d="M823.42324,1219.2396h72.99147a16.5,16.5,0,0,1,16.5,16.5v35.40511a0,0,0,0,1,0,0H806.92324a0,0,0,0,1,0,0V1235.7396A16.5,16.5,0,0,1,823.42324,1219.2396Z" transform="translate(-474.89366 -39.50711) rotate(-1.12757)"/><polygon class="cls-30" points="183.452 1216.388 163.837 1216.774 162.831 1169.955 182.446 1169.569 183.452 1216.388"/><polygon class="cls-31" points="159.967 1216.85 151.305 1217.021 150.384 1170.253 159.046 1170.056 159.967 1216.85"/><path class="cls-34" d="M599.18347,1273.74374l-4.3317.0332-.79575-44.63414a11.85958,11.85958,0,0,1,4.29735-2.00819Z" transform="translate(-450.55665 -56.67015)"/><polygon class="cls-30" points="403.94 1212.048 384.325 1212.434 383.319 1165.615 402.934 1165.229 403.94 1212.048"/><polygon class="cls-31" points="380.455 1212.511 371.793 1212.681 370.872 1165.914 379.534 1165.716 380.455 1212.511"/><path class="cls-34" d="M819.67141,1269.404l-4.3317.0332-.79575-44.63414a11.8596,11.8596,0,0,1,4.29735-2.00819Z" transform="translate(-450.55665 -56.67015)"/><rect class="cls-36" x="995.70664" y="1264.14461" width="499.63828" height="161.84217" transform="translate(-476.78435 -31.89961) rotate(-1.12757)"/><path class="cls-36" d="M1096.791,1213.573h72.99147a16.5,16.5,0,0,1,16.5,16.5v35.40511a0,0,0,0,1,0,0H1080.291a0,0,0,0,1,0,0V1230.073a16.5,16.5,0,0,1,16.5-16.5Z" transform="translate(-474.72921 -34.12874) rotate(-1.12757)"/><path class="cls-36" d="M1317.0292,1209.23819h72.99147a16.5,16.5,0,0,1,16.5,16.5v35.40511a0,0,0,0,1,0,0H1300.5292a0,0,0,0,1,0,0v-35.40511A16.5,16.5,0,0,1,1317.0292,1209.23819Z" transform="translate(-474.60126 -29.79562) rotate(-1.12757)"/><polygon class="cls-30" points="677.058 1206.387 657.443 1206.773 656.437 1159.953 676.052 1159.567 677.058 1206.387"/><polygon class="cls-31" points="653.573 1206.849 644.911 1207.019 643.99 1160.252 652.652 1160.055 653.573 1206.849"/><path class="cls-34" d="M1092.78944,1263.74233l-4.3317.0332-.79575-44.63414a11.8596,11.8596,0,0,1,4.29735-2.00819Z" transform="translate(-450.55665 -56.67015)"/><polygon class="cls-30" points="897.546 1202.047 877.931 1202.433 876.925 1155.614 896.54 1155.228 897.546 1202.047"/><polygon class="cls-31" points="874.061 1202.509 865.399 1202.68 864.478 1155.912 873.14 1155.715 874.061 1202.509"/><path class="cls-34" d="M1313.27737,1259.40261l-4.3317.0332-.79575-44.63414a11.85961,11.85961,0,0,1,4.29735-2.00819Z" transform="translate(-450.55665 -56.67015)"/><rect class="cls-36" x="748.656" y="1105.86294" width="499.63828" height="161.84217" transform="translate(-473.71744 -36.79185) rotate(-1.12757)"/><path class="cls-36" d="M849.74039,1055.29131h72.99147a16.5,16.5,0,0,1,16.5,16.5v35.40511a0,0,0,0,1,0,0H833.24039a0,0,0,0,1,0,0v-35.40511A16.5,16.5,0,0,1,849.74039,1055.29131Z" transform="translate(-471.6623 -39.02098) rotate(-1.12757)"/><path class="cls-36" d="M1069.97856,1050.95651H1142.97a16.5,16.5,0,0,1,16.5,16.5v35.40511a0,0,0,0,1,0,0H1053.47856a0,0,0,0,1,0,0v-35.40511A16.5,16.5,0,0,1,1069.97856,1050.95651Z" transform="translate(-471.53435 -34.68786) rotate(-1.12757)"/><polygon class="cls-30" points="430.008 1048.105 410.393 1048.491 409.386 1001.672 429.001 1001.286 430.008 1048.105"/><polygon class="cls-31" points="406.522 1048.567 397.86 1048.738 396.939 1001.97 405.601 1001.773 406.522 1048.567"/><path class="cls-34" d="M845.7388,1105.46065l-4.3317.0332-.79575-44.63414a11.8596,11.8596,0,0,1,4.29735-2.00819Z" transform="translate(-450.55665 -56.67015)"/><polygon class="cls-30" points="650.496 1043.765 630.88 1044.151 629.874 997.332 649.489 996.946 650.496 1043.765"/><polygon class="cls-31" points="627.01 1044.228 618.348 1044.398 617.427 997.63 626.089 997.433 627.01 1044.228"/><path class="cls-34" d="M1066.22673,1101.12094l-4.3317.0332-.79575-44.63414a11.85959,11.85959,0,0,1,4.29735-2.00819Z" transform="translate(-450.55665 -56.67015)"/><text class="cls-37" transform="translate(375.44284 1174.96838) rotate(-1.12765)">BUIDL</text><text class="cls-37" transform="translate(169.08181 1341.0614) rotate(-1.12765)"><tspan class="cls-38">Y</tspan><tspan x="57.23193" y="0">our</tspan></text><text class="cls-39" transform="translate(665.68887 1331.28705) rotate(-1.12765)">T<tspan class="cls-40" x="56.58887" y="0">ribe</tspan></text></g><g id="Layer_13" data-name="Layer 13"><g id="Logo_Slogan" data-name="Logo &amp; Slogan"><polygon class="cls-41" points="1009.977 1293.66 1015.778 1305.088 1011.376 1323.779 1000.894 1315.215 1002.731 1301.506 1009.977 1293.66"/><path class="cls-42" d="M1445.0487,1344.31572" transform="translate(-450.55665 -56.67015)"/><path class="cls-43" d="M1445.04859,1346.50055a2.18514,2.18514,0,0,1-2.18491-2.18491v-17.22089a2.18491,2.18491,0,1,1,4.36982,0v17.22089A2.18514,2.18514,0,0,1,1445.04859,1346.50055Z" transform="translate(-450.55665 -56.67015)"/><line class="cls-41" x1="991.24356" y1="1287.64557" x2="997.99691" y2="1287.64557"/><path class="cls-43" d="M1448.55368,1346.50055h-6.75335a2.18491,2.18491,0,0,1,0-4.36982h6.75335a2.18491,2.18491,0,0,1,0,4.36982Z" transform="translate(-450.55665 -56.67015)"/><path class="cls-41" d="M1460.53374,1350.33006l7.17941-6.76679a30.3589,30.3589,0,1,0-21.467,51.82588c6.2497,0,11.74616,2.28149,16.5742-.95592l6.00852.8314-.17187-9.75443-17.2061-13.62541h0l3.69909-17.422,5.38372-4.1327" transform="translate(-450.55665 -56.67015)"/><path class="cls-43" d="M1446.24618,1398.36846a33.33828,33.33828,0,1,1,23.57389-56.91158l2.16978,2.16978-9.41233,8.87153-4.08739-4.33645,4.82294-4.54517a27.38091,27.38091,0,1,0-17.06688,48.79305" transform="translate(-450.55665 -56.67015)"/><path class="cls-44" d="M1462.9802,1381.243l-4.27981-4.14636a17.34068,17.34068,0,0,0-.3732-24.50612l-2.23224-2.16823,2.394-2.25939,2.03943,2.16124,1.95059-2.008a23.29971,23.29971,0,0,1,.50122,32.92686Z" transform="translate(-450.55665 -56.67015)"/><path class="cls-43" d="M1460.84011,1379.16972" transform="translate(-450.55665 -56.67015)"/><circle class="cls-45" cx="995.68952" cy="1308.3601" r="6.85452"/><path class="cls-43" d="M1446.24618,1374.864a9.83383,9.83383,0,1,1,9.834-9.83364A9.84508,9.84508,0,0,1,1446.24618,1374.864Zm0-13.70882a3.875,3.875,0,1,0,3.87519,3.87519A3.87955,3.87955,0,0,0,1446.24618,1361.15519Z" transform="translate(-450.55665 -56.67015)"/><line class="cls-43" x1="1017.1565" y1="1286.89312" x2="999.83229" y2="1302.90002"/><rect class="cls-43" x="1447.2577" y="1348.58722" width="23.58678" height="5.95901" transform="translate(-980.36357 1292.34279) rotate(-42.73638)"/><polyline class="cls-41" points="998.924 1314.405 1011.376 1323.779 1018.1 1328.84 1018.1 1341.698 1004.593 1341.048"/><polygon class="cls-43" points="1021.08 1341.698 995.148 1341.698 995.148 1335.74 1015.121 1335.74 1015.121 1330.326 997.132 1316.785 1000.716 1312.024 1021.08 1327.353 1021.08 1341.698"/><path class="cls-43" d="M1461.11217,1379.38989" transform="translate(-450.55665 -56.67015)"/><path class="cls-43" d="M1434.70636,1352.51487a2.18514,2.18514,0,0,1-2.18491-2.18491v-23.23521a2.18491,2.18491,0,1,1,4.36982,0V1350.33A2.18514,2.18514,0,0,1,1434.70636,1352.51487Z" transform="translate(-450.55665 -56.67015)"/></g><g id="Logo_Slogan-2" data-name="Logo &amp; Slogan"><polygon class="cls-6" points="1009.977 1293.66 1015.778 1305.088 1011.376 1323.779 1000.894 1315.215 1002.731 1301.506 1009.977 1293.66"/><path class="cls-46" d="M1445.0487,1344.31572" transform="translate(-450.55665 -56.67015)"/><path class="cls-16" d="M1445.04859,1346.50055a2.18514,2.18514,0,0,1-2.18491-2.18491v-17.22089a2.18491,2.18491,0,1,1,4.36982,0v17.22089A2.18514,2.18514,0,0,1,1445.04859,1346.50055Z" transform="translate(-450.55665 -56.67015)"/><line class="cls-6" x1="991.24356" y1="1287.64557" x2="997.99691" y2="1287.64557"/><path class="cls-16" d="M1448.55368,1346.50055h-6.75335a2.18491,2.18491,0,0,1,0-4.36982h6.75335a2.18491,2.18491,0,0,1,0,4.36982Z" transform="translate(-450.55665 -56.67015)"/><path class="cls-6" d="M1460.53374,1350.33006l7.17941-6.76679a30.3589,30.3589,0,1,0-21.467,51.82588c6.2497,0,11.74616,2.28149,16.5742-.95592l6.00852.8314-.17187-9.75443-17.2061-13.62541h0l3.69909-17.422,5.38372-4.1327" transform="translate(-450.55665 -56.67015)"/><path class="cls-16" d="M1446.24618,1398.36846a33.33828,33.33828,0,1,1,23.57389-56.91158l2.16978,2.16978-9.41233,8.87153-4.08739-4.33645,4.82294-4.54517a27.38091,27.38091,0,1,0-17.06688,48.79305" transform="translate(-450.55665 -56.67015)"/><path class="cls-23" d="M1462.9802,1381.243l-4.27981-4.14636a17.34068,17.34068,0,0,0-.3732-24.50612l-2.23224-2.16823,2.394-2.25939,2.03943,2.16124,1.95059-2.008a23.29971,23.29971,0,0,1,.50122,32.92686Z" transform="translate(-450.55665 -56.67015)"/><path class="cls-16" d="M1460.84011,1379.16972" transform="translate(-450.55665 -56.67015)"/><circle class="cls-19" cx="995.68952" cy="1308.3601" r="6.85452"/><path class="cls-16" d="M1446.24618,1374.864a9.83383,9.83383,0,1,1,9.834-9.83364A9.84508,9.84508,0,0,1,1446.24618,1374.864Zm0-13.70882a3.875,3.875,0,1,0,3.87519,3.87519A3.87955,3.87955,0,0,0,1446.24618,1361.15519Z" transform="translate(-450.55665 -56.67015)"/><line class="cls-16" x1="1017.1565" y1="1286.89312" x2="999.83229" y2="1302.90002"/><rect class="cls-16" x="1447.2577" y="1348.58722" width="23.58678" height="5.95901" transform="translate(-980.36357 1292.34279) rotate(-42.73638)"/><polyline class="cls-6" points="998.924 1314.405 1011.376 1323.779 1018.1 1328.84 1018.1 1341.698 1004.593 1341.048"/><polygon class="cls-16" points="1021.08 1341.698 995.148 1341.698 995.148 1335.74 1015.121 1335.74 1015.121 1330.326 997.132 1316.785 1000.716 1312.024 1021.08 1327.353 1021.08 1341.698"/><path class="cls-16" d="M1461.11217,1379.38989" transform="translate(-450.55665 -56.67015)"/><path class="cls-16" d="M1434.70636,1352.51487a2.18514,2.18514,0,0,1-2.18491-2.18491v-23.23521a2.18491,2.18491,0,1,1,4.36982,0V1350.33A2.18514,2.18514,0,0,1,1434.70636,1352.51487Z" transform="translate(-450.55665 -56.67015)"/></g></g></svg>