<svg xmlns="http://www.w3.org/2000/svg" xmlns:xlink="http://www.w3.org/1999/xlink" viewBox="0 0 1468.37003 1751.20425"><defs><style>.cls-1,.cls-17,.cls-19,.cls-41,.cls-42,.cls-46,.cls-56,.cls-57,.cls-61{fill:#fff;}.cls-1,.cls-10,.cls-11,.cls-12,.cls-13,.cls-14,.cls-15,.cls-16,.cls-17,.cls-18,.cls-19,.cls-2,.cls-20,.cls-3,.cls-36,.cls-38,.cls-39,.cls-4,.cls-40,.cls-43,.cls-5,.cls-56,.cls-57,.cls-58,.cls-59,.cls-6,.cls-60,.cls-7,.cls-8,.cls-9{stroke:#fff;}.cls-1,.cls-13,.cls-14,.cls-15,.cls-16,.cls-17,.cls-18,.cls-19,.cls-2,.cls-21,.cls-22,.cls-3,.cls-33,.cls-34,.cls-35,.cls-39,.cls-41,.cls-44,.cls-45,.cls-5,.cls-53,.cls-54,.cls-55,.cls-56,.cls-57,.cls-58,.cls-59,.cls-6,.cls-60,.cls-61,.cls-8{stroke-miterlimit:10;}.cls-1{stroke-width:100px;}.cls-12,.cls-2,.cls-21,.cls-27,.cls-31,.cls-36,.cls-58,.cls-8{fill:#15003e;}.cls-10,.cls-11,.cls-14,.cls-15,.cls-17,.cls-2,.cls-21,.cls-22,.cls-29,.cls-3,.cls-30,.cls-33,.cls-34,.cls-35,.cls-38,.cls-39,.cls-40,.cls-41,.cls-53,.cls-54,.cls-57,.cls-61{stroke-linecap:round;}.cls-10,.cls-11,.cls-12,.cls-13,.cls-14,.cls-15,.cls-16,.cls-17,.cls-18,.cls-19,.cls-2,.cls-20,.cls-3,.cls-4,.cls-5,.cls-6,.cls-7,.cls-8,.cls-9{stroke-width:80px;}.cls-13,.cls-22,.cls-23,.cls-3,.cls-32,.cls-39,.cls-4{fill:#25e899;}.cls-10,.cls-11,.cls-12,.cls-20,.cls-23,.cls-26,.cls-28,.cls-29,.cls-30,.cls-31,.cls-36,.cls-38,.cls-4,.cls-40,.cls-43,.cls-7,.cls-9{stroke-linejoin:round;}.cls-24,.cls-28,.cls-5,.cls-9{fill:#122d6a;}.cls-11,.cls-14,.cls-25,.cls-26,.cls-30,.cls-33,.cls-40,.cls-45,.cls-53,.cls-6,.cls-7{fill:#9e0c0c;}.cls-10,.cls-15,.cls-20,.cls-29,.cls-34,.cls-35,.cls-38,.cls-43,.cls-44,.cls-54,.cls-55{fill:none;}.cls-16,.cls-37,.cls-60{fill:#eff4ee;}.cls-21,.cls-22,.cls-23,.cls-26,.cls-28,.cls-29,.cls-30,.cls-31,.cls-33,.cls-35,.cls-41,.cls-53,.cls-54{stroke:#15003e;}.cls-21,.cls-22,.cls-23,.cls-26,.cls-28,.cls-29,.cls-30,.cls-31,.cls-33,.cls-34,.cls-35,.cls-36,.cls-38,.cls-39,.cls-40,.cls-41,.cls-43,.cls-45{stroke-width:30px;}.cls-34,.cls-61{stroke:#25e899;}.cls-44,.cls-55{stroke-width:5px;}.cls-44{stroke:url(#radial-gradient);}.cls-45{stroke:#000;}.cls-46{font-size:96.42125px;font-family:Muli-Medium, Muli;}.cls-47{letter-spacing:-0.07699em;}.cls-48{letter-spacing:-0.00001em;}.cls-49{letter-spacing:0.006em;}.cls-50{letter-spacing:0.00001em;}.cls-51{letter-spacing:-0.00898em;}.cls-52{letter-spacing:-0.00001em;}.cls-53,.cls-54{stroke-width:20px;}.cls-55{stroke:url(#radial-gradient-2);}.cls-56,.cls-57,.cls-58,.cls-59,.cls-60{stroke-width:10px;}.cls-59,.cls-62{fill:#0fce7c;}.cls-61{stroke-width:11px;}</style><radialGradient id="radial-gradient" cx="1105.49048" cy="974.12892" r="703.48094" gradientUnits="userSpaceOnUse"><stop offset="0" stop-color="#fff"/><stop offset="1" stop-color="#858585"/></radialGradient><radialGradient id="radial-gradient-2" cx="455.54765" cy="1027.76853" r="44.62189" xlink:href="#radial-gradient"/></defs><title>Spiderman_Ultility_Token</title><g id="Layer_11" data-name="Layer 11"><ellipse class="cls-1" cx="555.79952" cy="1082.25441" rx="457.67896" ry="275.69307"/></g><g id="Regulus_copy" data-name="Regulus copy"><path class="cls-2" d="M1575.2628,1802.61654V131.41229" transform="translate(-361.1966 -91.41229)"/><path class="cls-3" d="M747.41087,1112.13733l135.7141,39.932" transform="translate(-361.1966 -91.41229)"/><path class="cls-2" d="M401.1966,1010.26584,523.21138,1046.167" transform="translate(-361.1966 -91.41229)"/><path class="cls-4" d="M919.92822,1040.66876,1367.32154,930.407" transform="translate(-361.1966 -91.41229)"/><rect class="cls-5" x="1329.74752" y="856.0335" width="144.34335" height="73.76344" transform="translate(-525.13139 1358.97611) rotate(-52.09069)"/><rect class="cls-5" x="809.76202" y="1032.84685" width="144.34335" height="73.76344" transform="translate(-860.09125 854.06113) rotate(-45.35429)"/><path class="cls-6" d="M919.92788,1040.66739l21.02627,64.40651,59.07376,48.953,39.744-5.89509,145.57688-21.18439,143.18387-46.37018,40.51075-45.9112,6.70728-70.05713-18.12928-31.81275Z" transform="translate(-361.1966 -91.41229)"/><path class="cls-7" d="M1297.82444,1093.50676l-240.56851,59.289a106.50722,106.50722,0,0,1-128.89881-77.92614L892.42474,929.072,1339.81807,818.8102l35.93239,145.79767A106.50509,106.50509,0,0,1,1297.82444,1093.50676Z" transform="translate(-361.1966 -91.41229)"/><path class="cls-8" d="M996.51623,1144.88091a23.22168,23.22168,0,1,0-16.99144,28.10587,23.22237,23.22237,0,0,0,16.99144-28.10587" transform="translate(-361.1966 -91.41229)"/><path class="cls-8" d="M1392.64276,1047.254a23.22168,23.22168,0,1,0-16.99144,28.10586,23.22237,23.22237,0,0,0,16.99144-28.10586" transform="translate(-361.1966 -91.41229)"/><path class="cls-9" d="M1219.91959,1359.62495l-21.37442,31.47111L1010.8158,1263.59478a38.04336,38.04336,0,1,1,42.74885-62.94223l156.25824,106.12685A38.04432,38.04432,0,0,1,1219.91959,1359.62495Z" transform="translate(-361.1966 -91.41229)"/><path class="cls-10" d="M1076.94393,1162.03533l209.45282,142.25533" transform="translate(-361.1966 -91.41229)"/><path class="cls-9" d="M1375.93779,1350.72583l-10.945,69.43943a25.435,25.435,0,0,1-50.24971-7.92033l10.945-69.43943a25.435,25.435,0,0,1,50.24971,7.92033Z" transform="translate(-361.1966 -91.41229)"/><path class="cls-11" d="M1547.95557,1306.06242l1.71817,175.63171a34.04839,34.04839,0,1,1-68.09352.66614l-1.71817-175.6317a34.04839,34.04839,0,1,1,68.09352-.66614Z" transform="translate(-361.1966 -91.41229)"/><rect class="cls-11" x="1370.3442" y="1369.32279" width="110.45346" height="67.56331" transform="translate(-374.85402 -77.39976) rotate(-0.56049)"/><path class="cls-10" d="M1275.58478,1431.82158l18.86532-119.68908" transform="translate(-361.1966 -91.41229)"/><rect class="cls-12" x="1549.34262" y="1415.1137" width="23.9367" height="65.21" transform="translate(-375.28396 -76.06977) rotate(-0.56049)"/><rect class="cls-12" x="1548.37429" y="1316.13054" width="23.9367" height="65.21" transform="translate(-374.31572 -76.08398) rotate(-0.56049)"/><circle class="cls-9" cx="1252.06112" cy="1364.67182" r="28.47002" transform="translate(-941.51394 1542.28632) rotate(-55.81659)"/><path class="cls-10" d="M1320.00477,1378.87832l-35.19883-5.548" transform="translate(-361.1966 -91.41229)"/><path class="cls-10" d="M970.48939,1207.1484l26.09391-38.42,47.23552-9.02721" transform="translate(-361.1966 -91.41229)"/><path class="cls-10" d="M1329.30683,1168.38339l60.58764,245.83776" transform="translate(-361.1966 -91.41229)"/><path class="cls-11" d="M1429.05349,1714.74974l170.53728-42.02956a34.04839,34.04839,0,1,0-16.29512-66.11838l-170.53728,42.02956a34.04839,34.04839,0,1,0,16.29512,66.11838Z" transform="translate(-361.1966 -91.41229)"/><rect class="cls-11" x="1458.81831" y="1516.8516" width="67.56331" height="110.45346" transform="translate(-694.02077 311.43052) rotate(-13.84485)"/><rect class="cls-12" x="1536.97062" y="1680.47547" width="65.21" height="23.9367" transform="translate(-720.58711 333.34725) rotate(-13.84485)"/><rect class="cls-12" x="1440.85662" y="1704.16312" width="65.21" height="23.9367" transform="translate(-729.04779 311.03598) rotate(-13.84485)"/><path class="cls-10" d="M1408.60888,1084.245l-45.09405,11.1136-24.87867,41.15228" transform="translate(-361.1966 -91.41229)"/><path class="cls-11" d="M430.6521,1045.83408l14.56612-49.5049a49.19816,49.19816,0,0,1,61.08386-33.3125l350.7973,103.21715a49.19887,49.19887,0,0,1,33.31162,61.087l-14.56612,49.5049a49.19816,49.19816,0,0,1-61.08613,33.30836L463.96145,1106.917A49.19745,49.19745,0,0,1,430.6521,1045.83408Z" transform="translate(-361.1966 -91.41229)"/><path class="cls-13" d="M512.00038,1084.27a39.715,39.715,0,1,0-26.88852-49.30833A39.713,39.713,0,0,0,512.00038,1084.27" transform="translate(-361.1966 -91.41229)"/><path class="cls-11" d="M1775.15757,544.70824l-36.48909-36.48909a49.19816,49.19816,0,0,0-69.577-.00233L1410.52569,766.7826a49.19887,49.19887,0,0,0,0,69.57938l36.48909,36.48909a49.19816,49.19816,0,0,0,69.577-.00239L1775.15755,614.2829A49.19745,49.19745,0,0,0,1775.15757,544.70824Z" transform="translate(-361.1966 -91.41229)"/><path class="cls-13" d="M1739.02532,594.58123a35.52,35.52,0,1,1,0-50.23292,35.52066,35.52066,0,0,1,0,50.23292" transform="translate(-361.1966 -91.41229)"/><rect class="cls-14" x="936.462" y="802.99127" width="327.84342" height="73.72672" transform="translate(-530.19928 196.30257) rotate(-13.84485)"/><path class="cls-15" d="M960.62547,798.38332l248.2843-61.1906" transform="translate(-361.1966 -91.41229)"/><path class="cls-14" d="M805.97174,500.90653C778.961,391.30907,845.9098,280.56784,955.50715,253.55716s220.34175,39.9374,247.35245,149.53486l-1.456,204.7678L902.41313,681.54713Z" transform="translate(-361.1966 -91.41229)"/><path class="cls-6" d="M862.73556,605.07729l312.07233-76.9114,28.93246,3.57383-2.33685,76.11739L902.41308,681.54443Z" transform="translate(-361.1966 -91.41229)"/><path class="cls-14" d="M1201.40083,607.86186l11.27713,45.75758a43.53127,43.53127,0,0,1-31.84889,52.68186L966.36934,759.1557A43.52843,43.52843,0,0,1,913.69075,727.306l-11.27713-45.75758" transform="translate(-361.1966 -91.41229)"/><path class="cls-15" d="M805.26354,498.03447l-46.54427-188.856" transform="translate(-361.1966 -91.41229)"/><path class="cls-15" d="M1202.15285,400.21854,1142.46654,158.038" transform="translate(-361.1966 -91.41229)"/><path class="cls-14" d="M841.628,579.05537l-20.48376,5.0483a31.12746,31.12746,0,0,1-37.56107-22.70489l-18.86115-76.53018a31.12746,31.12746,0,0,1,22.7089-37.55866l8.68675-2.14088" transform="translate(-361.1966 -91.41229)"/><path class="cls-14" d="M1208.30854,488.68558l20.48376-5.0483a31.12746,31.12746,0,0,0,22.7089-37.55865L1232.64,369.54844a31.12746,31.12746,0,0,0-37.56108-22.7049l-8.68675,2.14088" transform="translate(-361.1966 -91.41229)"/><path class="cls-9" d="M1464.88044,1371.11742l36.93809-9.10353-54.30378-220.34063a38.04336,38.04336,0,1,0-73.87618,18.20706l45.20024,183.40252A38.04432,38.04432,0,0,0,1464.88044,1371.11742Z" transform="translate(-361.1966 -91.41229)"/><path class="cls-9" d="M1443.93175,1527.19314l68.2544-16.82155a25.435,25.435,0,0,0-12.17288-49.39216l-68.2544,16.82155a25.435,25.435,0,0,0,12.17288,49.39216Z" transform="translate(-361.1966 -91.41229)"/><path class="cls-10" d="M1516.18445,1420.2948l-117.64651,28.99443" transform="translate(-361.1966 -91.41229)"/><circle class="cls-9" cx="1458.44737" cy="1403.01525" r="28.47002" transform="translate(-654.55728 298.34628) rotate(-13.84485)"/><path class="cls-10" d="M1467.21429,1469.061l-8.52684-34.59814" transform="translate(-361.1966 -91.41229)"/><path class="cls-12" d="M1128.9339,1343.81239l42.747-62.93947" transform="translate(-361.1966 -91.41229)"/><path class="cls-12" d="M1047.12844,1288.25209l42.747-62.93947" transform="translate(-361.1966 -91.41229)"/><path class="cls-12" d="M1481.68282,1280.30693l-73.87295,18.20627" transform="translate(-361.1966 -91.41229)"/><path class="cls-12" d="M1458.01926,1184.2907l-73.87295,18.20627" transform="translate(-361.1966 -91.41229)"/><path class="cls-16" d="M1363.80036,1038.074a14.41334,14.41334,0,1,0-10.54557,17.44363,14.41369,14.41369,0,0,0,10.54557-17.44363" transform="translate(-361.1966 -91.41229)"/><path class="cls-16" d="M998.17208,1128.18448a14.41334,14.41334,0,1,0-10.54557,17.44363,14.41369,14.41369,0,0,0,10.54557-17.44363" transform="translate(-361.1966 -91.41229)"/><path class="cls-10" d="M768.58185,1040.18578l-42.34063,143.90031" transform="translate(-361.1966 -91.41229)"/><path class="cls-10" d="M681.70141,1014.62244l-42.34063,143.90031" transform="translate(-361.1966 -91.41229)"/><path class="cls-10" d="M1475.76988,701.53653,1581.836,807.60261" transform="translate(-361.1966 -91.41229)"/><path class="cls-10" d="M1539.80774,637.49867l106.06608,106.06608" transform="translate(-361.1966 -91.41229)"/><path class="cls-3" d="M1528.80191,754.56823,1428.76971,854.60042" transform="translate(-361.1966 -91.41229)"/><path class="cls-11" d="M1688.7921,544.35036l-69.57942,69.57942a24.93374,24.93374,0,0,0,0,35.2611l14.96946,14.96946a24.93446,24.93446,0,0,0,35.26345.00234l69.57942-69.57942" transform="translate(-361.1966 -91.41229)"/><circle class="cls-17" cx="523.20646" cy="1046.16994" r="39.71669" transform="translate(-989.30322 1161.38469) rotate(-73.60423)"/><circle class="cls-17" cx="1713.91009" cy="569.46451" r="35.52006" transform="translate(-261.87618 1287.29745) rotate(-45)"/><path class="cls-18" d="M1244.18785,966.83126a104.67785,104.67785,0,1,0-76.59059,126.68995,104.67834,104.67834,0,0,0,76.59059-126.68995" transform="translate(-361.1966 -91.41229)"/><path class="cls-19" d="M1079.5659,948.82972l7.52307,38.85851a.44012.44012,0,0,0,.75278.21778l19.783-21.04667a.44012.44012,0,0,1,.54137-.07936l17.40554,10.0873a.44011.44011,0,0,0,.437.0025l9.82189-5.54286a.44012.44012,0,0,1,.64364.278l12.93055,52.46645a.4297.4297,0,0,1-.32524.5352c-1.99565.40824-10.34694,1.49512-13.35655-8.06307-1.25356-3.98117-1.01028-10.7606-.95537-11.966a.41069.41069,0,0,0-.137-.32489l-5.414-5.14414a.44012.44012,0,0,0-.57586-.02639l-4.71874,3.72514a.44012.44012,0,0,0-.15879.25878l-4.96267,24.70939a.44012.44012,0,0,0,.014.2259l5.35948,16.07005a.44012.44012,0,0,1-.78275.38481l-12.18213-18.119a.44011.44011,0,0,1-.05011-.39112l7.941-22.65951a.3757.3757,0,0,0,.02442-.12485c.01778-.78874.19-9.20718-.56313-9.02158-.756.18633-15.46162,28.878-16.72861,31.35241a.40425.40425,0,0,0-.00275.36126l8.91942,20.2933a.44012.44012,0,0,1-.76381.429l-17.983-25.76367a.44011.44011,0,0,1-.00278-.49978l20.54372-30.14164a.44012.44012,0,0,0,.06365-.35319l-1.1035-4.47752a.44012.44012,0,0,0-.78274-.15426l-20.28214,27.77016a.44012.44012,0,0,1-.71562-.00669L1058.14076,967.964l26.62473,31.57494a.44012.44012,0,0,0,.6279.04609l19.29032-17.04619a.44012.44012,0,0,0,.13475-.21993l.96611-3.74755-21.067,16.8531a.44012.44012,0,0,1-.713-.30167Z" transform="translate(-361.1966 -91.41229)"/><path class="cls-19" d="M1176.28193,924.99369l11.39538,37.90417a.44012.44012,0,0,1-.56537.54264l-27.29743-9.44352a.44011.44011,0,0,0-.51625.1813l-10.72481,17.02013a.44012.44012,0,0,1-.38578.20528l-11.27273-.344a.44012.44012,0,0,0-.44075.54523l12.93055,52.46645a.4297.4297,0,0,0,.5367.32277c1.95681-.56586,9.85674-3.48415,8.08015-13.34622-.74-4.10775-4.10569-9.99773-4.71445-11.03958a.41068.41068,0,0,1-.02966-.35135l2.40357-7.07081a.44011.44011,0,0,1,.49765-.291l5.90935,1.10581a.44011.44011,0,0,1,.26086.15536l15.87636,19.57354a.44011.44011,0,0,1,.09259.20654l2.72178,16.72012a.44012.44012,0,0,0,.87192-.023l2.36741-21.70478a.44012.44012,0,0,0-.13738-.36962l-17.561-16.37444a.37572.37572,0,0,1-.07964-.0992c-.38226-.69015-4.44664-8.06447-3.69353-8.25008.756-.18633,27.11,18.38607,29.38173,19.98834a.40425.40425,0,0,1,.17031.31861l1.532,22.114a.44012.44012,0,0,0,.87568.02494l3.9516-31.16953a.44011.44011,0,0,0-.22978-.44383l-32.1973-17.14341a.44012.44012,0,0,1-.22048-.28316l-1.1035-4.47752a.44012.44012,0,0,1,.62142-.50032l30.86369,15.16508a.44012.44012,0,0,0,.63056-.33846l7.06146-54.50934-8.90325,40.33094a.44012.44012,0,0,1-.53457.33258l-25.00221-6.13013a.44011.44011,0,0,1-.22151-.13213l-2.59689-2.86944,26.48565,5.13358a.44012.44012,0,0,0,.4912-.59846Z" transform="translate(-361.1966 -91.41229)"/><circle class="cls-20" cx="1142.55664" cy="991.87576" r="104.68152" transform="translate(-565.35172 210.81092) rotate(-13.84485)"/></g><g id="Spiderman"><path class="cls-21" d="M1575.2628,1802.61654V131.41229" transform="translate(-361.1966 -91.41229)"/><path class="cls-22" d="M747.41087,1112.13733l135.7141,39.932" transform="translate(-361.1966 -91.41229)"/><path class="cls-21" d="M401.1966,1010.26584,523.21138,1046.167" transform="translate(-361.1966 -91.41229)"/><path class="cls-23" d="M919.92822,1040.66876,1367.32154,930.407" transform="translate(-361.1966 -91.41229)"/><rect class="cls-24" x="1329.74752" y="856.0335" width="144.34335" height="73.76344" transform="translate(-525.13139 1358.97611) rotate(-52.09069)"/><rect class="cls-24" x="809.76202" y="1032.84685" width="144.34335" height="73.76344" transform="translate(-860.09125 854.06113) rotate(-45.35429)"/><path class="cls-25" d="M919.92788,1040.66739l21.02627,64.40651,59.07376,48.953,39.744-5.89509,145.57688-21.18439,143.18387-46.37018,40.51075-45.9112,6.70728-70.05713-18.12928-31.81275Z" transform="translate(-361.1966 -91.41229)"/><path class="cls-26" d="M1297.82444,1093.50676l-240.56851,59.289a106.50722,106.50722,0,0,1-128.89881-77.92614L892.42474,929.072,1339.81807,818.8102l35.93239,145.79767A106.50509,106.50509,0,0,1,1297.82444,1093.50676Z" transform="translate(-361.1966 -91.41229)"/><path class="cls-27" d="M996.51623,1144.88091a23.22168,23.22168,0,1,0-16.99144,28.10587,23.22237,23.22237,0,0,0,16.99144-28.10587" transform="translate(-361.1966 -91.41229)"/><path class="cls-27" d="M1392.64276,1047.254a23.22168,23.22168,0,1,0-16.99144,28.10586,23.22237,23.22237,0,0,0,16.99144-28.10586" transform="translate(-361.1966 -91.41229)"/><path class="cls-28" d="M1219.91959,1359.62495l-21.37442,31.47111L1010.8158,1263.59478a38.04336,38.04336,0,1,1,42.74885-62.94223l156.25824,106.12685A38.04432,38.04432,0,0,1,1219.91959,1359.62495Z" transform="translate(-361.1966 -91.41229)"/><path class="cls-29" d="M1076.94393,1162.03533l209.45282,142.25533" transform="translate(-361.1966 -91.41229)"/><path class="cls-28" d="M1375.93779,1350.72583l-10.945,69.43943a25.435,25.435,0,0,1-50.24971-7.92033l10.945-69.43943a25.435,25.435,0,0,1,50.24971,7.92033Z" transform="translate(-361.1966 -91.41229)"/><path class="cls-30" d="M1547.95557,1306.06242l1.71817,175.63171a34.04839,34.04839,0,1,1-68.09352.66614l-1.71817-175.6317a34.04839,34.04839,0,1,1,68.09352-.66614Z" transform="translate(-361.1966 -91.41229)"/><rect class="cls-30" x="1370.3442" y="1369.32279" width="110.45346" height="67.56331" transform="translate(-374.85402 -77.39976) rotate(-0.56049)"/><path class="cls-29" d="M1275.58478,1431.82158l18.86532-119.68908" transform="translate(-361.1966 -91.41229)"/><rect class="cls-31" x="1549.34262" y="1415.1137" width="23.9367" height="65.21" transform="translate(-375.28396 -76.06977) rotate(-0.56049)"/><rect class="cls-31" x="1548.37429" y="1316.13054" width="23.9367" height="65.21" transform="translate(-374.31572 -76.08398) rotate(-0.56049)"/><circle class="cls-28" cx="1252.06112" cy="1364.67182" r="28.47002" transform="translate(-941.51394 1542.28632) rotate(-55.81659)"/><path class="cls-29" d="M1320.00477,1378.87832l-35.19883-5.548" transform="translate(-361.1966 -91.41229)"/><path class="cls-29" d="M970.48939,1207.1484l26.09391-38.42,47.23552-9.02721" transform="translate(-361.1966 -91.41229)"/><path class="cls-29" d="M1329.30683,1168.38339l60.58764,245.83776" transform="translate(-361.1966 -91.41229)"/><path class="cls-30" d="M1429.05349,1714.74974l170.53728-42.02956a34.04839,34.04839,0,1,0-16.29512-66.11838l-170.53728,42.02956a34.04839,34.04839,0,1,0,16.29512,66.11838Z" transform="translate(-361.1966 -91.41229)"/><rect class="cls-30" x="1458.81831" y="1516.8516" width="67.56331" height="110.45346" transform="translate(-694.02077 311.43052) rotate(-13.84485)"/><rect class="cls-31" x="1536.97062" y="1680.47547" width="65.21" height="23.9367" transform="translate(-720.58711 333.34725) rotate(-13.84485)"/><rect class="cls-31" x="1440.85662" y="1704.16312" width="65.21" height="23.9367" transform="translate(-729.04779 311.03598) rotate(-13.84485)"/><path class="cls-29" d="M1408.60888,1084.245l-45.09405,11.1136-24.87867,41.15228" transform="translate(-361.1966 -91.41229)"/><path class="cls-30" d="M430.6521,1045.83408l14.56612-49.5049a49.19816,49.19816,0,0,1,61.08386-33.3125l350.7973,103.21715a49.19887,49.19887,0,0,1,33.31162,61.087l-14.56612,49.5049a49.19816,49.19816,0,0,1-61.08613,33.30836L463.96145,1106.917A49.19745,49.19745,0,0,1,430.6521,1045.83408Z" transform="translate(-361.1966 -91.41229)"/><path class="cls-32" d="M512.00038,1084.27a39.715,39.715,0,1,0-26.88852-49.30833A39.713,39.713,0,0,0,512.00038,1084.27" transform="translate(-361.1966 -91.41229)"/><path class="cls-30" d="M1775.15757,544.70824l-36.48909-36.48909a49.19816,49.19816,0,0,0-69.577-.00233L1410.52569,766.7826a49.19887,49.19887,0,0,0,0,69.57938l36.48909,36.48909a49.19816,49.19816,0,0,0,69.577-.00239L1775.15755,614.2829A49.19745,49.19745,0,0,0,1775.15757,544.70824Z" transform="translate(-361.1966 -91.41229)"/><path class="cls-32" d="M1739.02532,594.58123a35.52,35.52,0,1,1,0-50.23292,35.52066,35.52066,0,0,1,0,50.23292" transform="translate(-361.1966 -91.41229)"/><rect class="cls-33" x="936.462" y="802.99127" width="327.84342" height="73.72672" transform="translate(-530.19928 196.30257) rotate(-13.84485)"/><path class="cls-34" d="M960.62547,798.38332l248.2843-61.1906" transform="translate(-361.1966 -91.41229)"/><path class="cls-33" d="M805.97174,500.90653C778.961,391.30907,845.9098,280.56784,955.50715,253.55716s220.34175,39.9374,247.35245,149.53486l-1.456,204.7678L902.41313,681.54713Z" transform="translate(-361.1966 -91.41229)"/><path class="cls-25" d="M862.73556,605.07729l312.07233-76.9114,28.93246,3.57383-2.33685,76.11739L902.41308,681.54443Z" transform="translate(-361.1966 -91.41229)"/><path class="cls-33" d="M1201.40083,607.86186l11.27713,45.75758a43.53127,43.53127,0,0,1-31.84889,52.68186L966.36934,759.1557A43.52843,43.52843,0,0,1,913.69075,727.306l-11.27713-45.75758" transform="translate(-361.1966 -91.41229)"/><path class="cls-35" d="M805.26354,498.03447l-46.54427-188.856" transform="translate(-361.1966 -91.41229)"/><path class="cls-35" d="M1202.15285,400.21854,1142.46654,158.038" transform="translate(-361.1966 -91.41229)"/><path class="cls-33" d="M841.628,579.05537l-20.48376,5.0483a31.12746,31.12746,0,0,1-37.56107-22.70489l-18.86115-76.53018a31.12746,31.12746,0,0,1,22.7089-37.55866l8.68675-2.14088" transform="translate(-361.1966 -91.41229)"/><path class="cls-33" d="M1208.30854,488.68558l20.48376-5.0483a31.12746,31.12746,0,0,0,22.7089-37.55865L1232.64,369.54844a31.12746,31.12746,0,0,0-37.56108-22.7049l-8.68675,2.14088" transform="translate(-361.1966 -91.41229)"/><path class="cls-28" d="M1464.88044,1371.11742l36.93809-9.10353-54.30378-220.34063a38.04336,38.04336,0,1,0-73.87618,18.20706l45.20024,183.40252A38.04432,38.04432,0,0,0,1464.88044,1371.11742Z" transform="translate(-361.1966 -91.41229)"/><path class="cls-28" d="M1443.93175,1527.19314l68.2544-16.82155a25.435,25.435,0,0,0-12.17288-49.39216l-68.2544,16.82155a25.435,25.435,0,0,0,12.17288,49.39216Z" transform="translate(-361.1966 -91.41229)"/><path class="cls-29" d="M1516.18445,1420.2948l-117.64651,28.99443" transform="translate(-361.1966 -91.41229)"/><circle class="cls-28" cx="1458.44737" cy="1403.01525" r="28.47002" transform="translate(-654.55728 298.34628) rotate(-13.84485)"/><path class="cls-29" d="M1467.21429,1469.061l-8.52684-34.59814" transform="translate(-361.1966 -91.41229)"/><path class="cls-36" d="M1128.9339,1343.81239l42.747-62.93947" transform="translate(-361.1966 -91.41229)"/><path class="cls-36" d="M1047.12844,1288.25209l42.747-62.93947" transform="translate(-361.1966 -91.41229)"/><path class="cls-36" d="M1481.68282,1280.30693l-73.87295,18.20627" transform="translate(-361.1966 -91.41229)"/><path class="cls-36" d="M1458.01926,1184.2907l-73.87295,18.20627" transform="translate(-361.1966 -91.41229)"/><path class="cls-37" d="M1363.80036,1038.074a14.41334,14.41334,0,1,0-10.54557,17.44363,14.41369,14.41369,0,0,0,10.54557-17.44363" transform="translate(-361.1966 -91.41229)"/><path class="cls-37" d="M998.17208,1128.18448a14.41334,14.41334,0,1,0-10.54557,17.44363,14.41369,14.41369,0,0,0,10.54557-17.44363" transform="translate(-361.1966 -91.41229)"/><path class="cls-38" d="M768.58185,1040.18578l-42.34063,143.90031" transform="translate(-361.1966 -91.41229)"/><path class="cls-38" d="M681.70141,1014.62244l-42.34063,143.90031" transform="translate(-361.1966 -91.41229)"/><path class="cls-38" d="M1475.76988,701.53653,1581.836,807.60261" transform="translate(-361.1966 -91.41229)"/><path class="cls-38" d="M1539.80774,637.49867l106.06608,106.06608" transform="translate(-361.1966 -91.41229)"/><path class="cls-39" d="M1528.80191,754.56823,1428.76971,854.60042" transform="translate(-361.1966 -91.41229)"/><path class="cls-40" d="M1688.7921,544.35036l-69.57942,69.57942a24.93374,24.93374,0,0,0,0,35.2611l14.96946,14.96946a24.93446,24.93446,0,0,0,35.26345.00234l69.57942-69.57942" transform="translate(-361.1966 -91.41229)"/><circle class="cls-41" cx="523.20646" cy="1046.16994" r="39.71669" transform="translate(-989.30322 1161.38469) rotate(-73.60423)"/><circle class="cls-41" cx="1713.91009" cy="569.46451" r="35.52006" transform="translate(-261.87618 1287.29745) rotate(-45)"/><path d="M1244.18785,966.83126a104.67785,104.67785,0,1,0-76.59059,126.68995,104.67834,104.67834,0,0,0,76.59059-126.68995" transform="translate(-361.1966 -91.41229)"/><path class="cls-42" d="M1079.5659,948.82972l7.52307,38.85851a.44012.44012,0,0,0,.75278.21778l19.783-21.04667a.44012.44012,0,0,1,.54137-.07936l17.40554,10.0873a.44011.44011,0,0,0,.437.0025l9.82189-5.54286a.44012.44012,0,0,1,.64364.278l12.93055,52.46645a.4297.4297,0,0,1-.32524.5352c-1.99565.40824-10.34694,1.49512-13.35655-8.06307-1.25356-3.98117-1.01028-10.7606-.95537-11.966a.41069.41069,0,0,0-.137-.32489l-5.414-5.14414a.44012.44012,0,0,0-.57586-.02639l-4.71874,3.72514a.44012.44012,0,0,0-.15879.25878l-4.96267,24.70939a.44012.44012,0,0,0,.014.2259l5.35948,16.07005a.44012.44012,0,0,1-.78275.38481l-12.18213-18.119a.44011.44011,0,0,1-.05011-.39112l7.941-22.65951a.3757.3757,0,0,0,.02442-.12485c.01778-.78874.19-9.20718-.56313-9.02158-.756.18633-15.46162,28.878-16.72861,31.35241a.40425.40425,0,0,0-.00275.36126l8.91942,20.2933a.44012.44012,0,0,1-.76381.429l-17.983-25.76367a.44011.44011,0,0,1-.00278-.49978l20.54372-30.14164a.44012.44012,0,0,0,.06365-.35319l-1.1035-4.47752a.44012.44012,0,0,0-.78274-.15426l-20.28214,27.77016a.44012.44012,0,0,1-.71562-.00669L1058.14076,967.964l26.62473,31.57494a.44012.44012,0,0,0,.6279.04609l19.29032-17.04619a.44012.44012,0,0,0,.13475-.21993l.96611-3.74755-21.067,16.8531a.44012.44012,0,0,1-.713-.30167Z" transform="translate(-361.1966 -91.41229)"/><path class="cls-42" d="M1176.28193,924.99369l11.39538,37.90417a.44012.44012,0,0,1-.56537.54264l-27.29743-9.44352a.44011.44011,0,0,0-.51625.1813l-10.72481,17.02013a.44012.44012,0,0,1-.38578.20528l-11.27273-.344a.44012.44012,0,0,0-.44075.54523l12.93055,52.46645a.4297.4297,0,0,0,.5367.32277c1.95681-.56586,9.85674-3.48415,8.08015-13.34622-.74-4.10775-4.10569-9.99773-4.71445-11.03958a.41068.41068,0,0,1-.02966-.35135l2.40357-7.07081a.44011.44011,0,0,1,.49765-.291l5.90935,1.10581a.44011.44011,0,0,1,.26086.15536l15.87636,19.57354a.44011.44011,0,0,1,.09259.20654l2.72178,16.72012a.44012.44012,0,0,0,.87192-.023l2.36741-21.70478a.44012.44012,0,0,0-.13738-.36962l-17.561-16.37444a.37572.37572,0,0,1-.07964-.0992c-.38226-.69015-4.44664-8.06447-3.69353-8.25008.756-.18633,27.11,18.38607,29.38173,19.98834a.40425.40425,0,0,1,.17031.31861l1.532,22.114a.44012.44012,0,0,0,.87568.02494l3.9516-31.16953a.44011.44011,0,0,0-.22978-.44383l-32.1973-17.14341a.44012.44012,0,0,1-.22048-.28316l-1.1035-4.47752a.44012.44012,0,0,1,.62142-.50032l30.86369,15.16508a.44012.44012,0,0,0,.63056-.33846l7.06146-54.50934-8.90325,40.33094a.44012.44012,0,0,1-.53457.33258l-25.00221-6.13013a.44011.44011,0,0,1-.22151-.13213l-2.59689-2.86944,26.48565,5.13358a.44012.44012,0,0,0,.4912-.59846Z" transform="translate(-361.1966 -91.41229)"/><circle class="cls-43" cx="1142.55664" cy="991.87576" r="104.68152" transform="translate(-565.35172 210.81092) rotate(-13.84485)"/></g><g id="Layer_10" data-name="Layer 10"><path d="M972.1458,578.10483l102.42-25.2418,14.622-3.60365c3.74716-.9235,2.16-6.71112-1.595-5.78567l-102.42,25.2418-14.622,3.60365c-3.74716.9235-2.16,6.71112,1.595,5.78567Z" transform="translate(-361.1966 -91.41229)"/><path class="cls-42" d="M977.05232,576.90284a137.28061,137.28061,0,0,1-100.263-194.67041c8.57176-17.81888,58.25168-14.47446,102.63827-26.0853s83.47988-38.17694,99.08229-27.40588a137.2739,137.2739,0,0,1,5.61373,221.7666" transform="translate(-361.1966 -91.41229)"/><path d="M977.05231,576.90283a123.235,123.235,0,0,1-45.82922-8.91479,133.26356,133.26356,0,0,1-41.13177-25.64746,143.40694,143.40694,0,0,1-30.481-39.56921c-.48981-.93823-1.04938-1.85022-1.48053-2.81506l-1.31879-2.89014-2.61237-5.81921c-.21069-.48865-.44153-.97156-.63525-1.46631l-.54352-1.49658-1.08386-3.00122-2.15356-6.03308a150.30984,150.30984,0,0,1-3.578-77.06177,153.28518,153.28518,0,0,1,7.74829-25.15723l1.27551-3.047.64166-1.52344c.02295-.10327.43506-.90747.71332-1.43518q.4585-.86975.94824-1.72485c.32672-.5658.66107-1.14209,1.00824-1.68091q.52707-.76209,1.07983-1.51111.55234-.74854,1.128-1.4801c.384-.49072.77692-.98083,1.15668-1.37512q1.15375-1.25409,2.37384-2.45325c.41608-.42273.79413-.7395,1.18439-1.0752l1.18-.99158a46.10031,46.10031,0,0,1,4.6543-3.35034c.768-.49609,1.45258-.86279,2.19061-1.28979.70959-.39124,1.49536-.85937,2.15424-1.167a71.77619,71.77619,0,0,1,7.87225-3.38989,114.07158,114.07158,0,0,1,13.7226-3.97961c4.29712-.98682,8.37378-1.75366,12.34937-2.45081,3.97473-.70557,7.86151-1.31567,11.65533-1.87317l11.20636-1.66394c14.67792-2.15112,28.57233-4.37329,41.33948-7.79163q9.6-2.55231,19.5072-6.13306c6.61908-2.3042,13.34155-4.92212,20.25769-7.63477,6.95831-2.68066,14.04858-5.553,21.80969-8.28748,3.88709-1.36133,7.92493-2.71021,12.38757-3.9447a84.78054,84.78054,0,0,1,15.3623-2.94031l2.33411-.16785c.74487-.06165,1.687-.04834,2.52075-.0614l1.28833.00024.64355.00549.70984.038q1.42987.08588,2.85571.21594a40.29661,40.29661,0,0,1,13.29,3.72632,35.17982,35.17982,0,0,1,3.50525,1.96912l.85547.54639.42322.27856c.15979.10522.27917.187.3031.21008l.65674.50366,2.62122,2.01855c.8678.67981,1.75293,1.33508,2.60205,2.03735l2.52808,2.12878a153.34193,153.34193,0,0,1,18.57263,18.66638,148.56464,148.56464,0,0,1,25.96863,45.0636,145.50558,145.50558,0,0,1,.32617,99.48743c-.35413.96936-.651,1.95276-1.05286,2.90405l-1.21912,2.84375-2.454,5.64355c-.38354.94543-.903,1.839-1.36792,2.75024l-1.42664,2.71509c-.964,1.79956-1.86694,3.61768-2.91882,5.35864a137.20744,137.20744,0,0,1-14.08667,19.61633,123.07428,123.07428,0,0,1-36.46667,29.173,160.05443,160.05443,0,0,0,24.85144-36.8761c1.68848-3.18274,2.89331-6.61609,4.30969-9.87659.32605-.83081.72583-1.62012.9895-2.47876l.84863-2.53748,1.68921-5.03186c.304-.82373.46216-1.709.7-2.55664l.67737-2.552.67908-2.53723c.2157-.84717.48572-1.67285.61975-2.54468l.99866-5.13452.50733-2.54517c.16516-.84741.22546-1.72168.34375-2.57776a132.91539,132.91539,0,0,0-.43115-40.50952c-.13721-.82129-.19568-1.64734-.3938-2.46057l-.55542-2.438-1.06421-4.85388c-.09155-.40259-.15967-.80835-.26953-1.20752l-.36011-1.192-.71362-2.3783-1.39856-4.73645a128.59881,128.59881,0,0,0-7.5791-18.04138,121.374,121.374,0,0,0-22.53589-30.88086,123.76745,123.76745,0,0,0-14.40332-12.26514l-1.90662-1.38623c-.63892-.45654-1.31128-.86816-1.96277-1.30579L1065.8,348.30554l-.48962-.32532c-.06946-.04944-.05017-.02966.00671.0177l.11841.09912.24622.18726c.31384.246.75562.418,1.03479.59814a10.4234,10.4234,0,0,0,2.39038.91394c.00818.0304.01953.046.03125.04688,0,0,.01111-.00256.00378-.00024l-.0636.02124-.1261.03162c-.10791.02832-.11243-.00342-.3053.04724q-.24207.05438-.48352.09033a53.72608,53.72608,0,0,0-6.73193,1.82935c-2.77258.90955-5.851,2.084-9.0282,3.36951-6.36609,2.57251-13.20251,5.51892-20.22229,8.52148-7.06177,2.97083-14.35236,5.96155-21.92981,8.77576-7.57678,2.77551-15.44641,5.3678-23.62561,7.563-8.21259,2.1554-16.327,3.79663-24.29089,5.13794-7.95776,1.28345-15.78473,2.35022-23.39,3.234-7.611.87415-15.02539,1.71692-21.991,2.5885-3.482.44421-6.84955.92627-9.93762,1.48718-3.08136.56445-5.95367,1.15967-8.14539,1.8009-1.12927.30884-1.96985.62769-2.61.85474a3.30278,3.30278,0,0,0-.35162.14429c-.0824.03711-.25153.079-.27661.09277.005.011-.19824.03577.02014-.11255a.58969.58969,0,0,0,.076-.10706.29888.29888,0,0,1,.11865-.14783,2.01078,2.01078,0,0,0,.37506-.45068,1.62815,1.62815,0,0,1,.23834-.30249,3.48438,3.48438,0,0,0,.476-.75391c.093-.1427.207-.30054.29486-.46a4.47418,4.47418,0,0,0,.24475-.49756c.04987-.11548.2016-.5238.04688-.18884l-.531,1.05151-1.06995,2.10291a122.54888,122.54888,0,0,0-12.66583,55.406,127.05681,127.05681,0,0,0,6.43188,38.78772,132.83509,132.83509,0,0,0,18.4649,36.08252c.50354.70276.96326,1.44946,1.50507,2.12195l1.63416,2.01746,3.27252,4.0835c.52441.70959,1.14886,1.314,1.73389,1.96411l1.78259,1.93018c1.20825,1.26892,2.3468,2.63794,3.59576,3.8844l3.83838,3.66821,1.93268,1.8512c.63379.63647,1.3548,1.14978,2.03033,1.7334,2.77216,2.22668,5.43335,4.71106,8.4118,6.73926A159.74431,159.74431,0,0,0,977.05231,576.90283Z" transform="translate(-361.1966 -91.41229)"/></g><g id="Layer_4" data-name="Layer 4"><g id="Layer_3" data-name="Layer 3"><path class="cls-44" d="M1292.36191,949.74828l-44.65015,154.13711L1091.9,1142.28578,980.73845,1026.54906l44.65015-154.13711,155.81173-38.40039Zm7.936,143.12041,13.01175-44.90834,32.24849-111.321-92.61324-96.4195-47.329-49.28639-9.17-9.54293L987.43991,832.90084l-3.39344,11.7226-19.29808,66.6235-19.46972,67.18077L927.546,1039.66l111.41718,116.009.00971-.00239m-185.777,49.91537-12.23164-12.845-46.83294,11.33122m686.53526-316.814,4.58912-17.1332,46.54177-12.47336m-99.1788.8061,8.655-32.31478L1607.97408,781.471M881.591,1157.29339l-23.06954-24.22705-22.87357,5.53869-144.86575,35.05413m-105.86259-31.14857,286.56889-69.35013M1401.209,779.75269l284.79433-76.311m-205.92364-6.2084,289.77943-77.6474M471.15207,1109.0361l291.58538-70.56347M428.72386,1057.004l217.82855-52.71714m919.165-392.6912,216.48074-58.004m-153.421-5.05581,118.4616-31.742m-355.40033,852.856.66089,67.55677m124.68013,93.45274-65.5972,16.16668m-7.27634-177.68946.66089,67.55677m84.76837,144.91162-65.5972,16.16668M463.75735,1101.48354l-1.10594-.03151m1027.57366,180.48118,2.20132,225.01923m116.27268,103.361-216.70572,53.40794m133.85065-389.227,2.33993,239.18855m97.15322,129.2879-232.91083,57.40175M916.25927,923.19727l-13.6596,47.169m351.65037-191.21295L1242.4601,766.878m135.81029,212.22725-22.28172,76.91651m.21375-170.72106-54.77808-57.0288M939.94207,841.4347,935.626,856.35086m463.66671-72.1929,41.98093,41.98093,43.982,43.982,13.96536,13.96536M875.2799,1076.11063l-16.75841,56.95571L840.96425,1192.737l-5.57485,18.94686m407.59791-249.76553,124.53605-30.69238m-442.22092,108.987,114.71923-28.273M1196.446,781.3905l-32.11549,108.072M987.43991,832.90084l81.36761,84.66062m46.81137,175.4908L1091.9,1142.28578m155.81173-38.40039-34.89957-34.38244m-34.4421-663.41882L1127.94949,580.1414,952.00118,623.50452,826.47345,492.81038,876.894,318.7531,1052.84236,275.39ZM993.41295,247.88522l-74.10269,18.26289m-118.586,168.45084,22.15172-76.4828.00732-.0121m359.19-7.25257-69.28229-72.12667-.0121-.00732M796.9505,447.62028l-15.6372,53.98015-.72874,2.51752,55.056,57.32077,5.9602,6.2143.0145.017,33.09551,34.45136,64.14381,66.781,2.806-.69156,218.57965-53.86978.44664-.11008,24.5563-84.77923,17.14365-59.15086-.00239-.00971,1.96789-6.80872,19.90654-68.70971-1.35833-1.4161-35.31426-36.76773m64.24238,91.001-7.85665,27.1282M905.34853,693.46375l20.26866,21.10294,5.05864-1.24672,262.95194-64.80549.22819-.78748,9.38772-32.408m-415.362-44.14918.0145.017.00239.00971.0145.017.0121.00732,7.42253,7.71807.0145.017M922.69842,746.1013l.79618-.19622,289.14809-71.26164M1058.95906,254.99707l-5.19128,21.35259.00239.00971-14.05862,57.71079M963.29333,579.38359l-.23606.96451-10.47091,43.01534-10.92573,44.8474-.94676,3.88956.00239.00971L930.67582,713.32l-7.76836,31.91617-.209.86516m-3.65293-383.9919-42.29354-42.85447-14.22272-14.4154m375.0142,84.61994-14.64285,3.89716-21.10738,5.62426-7.25592,1.94274-16.81791,4.47441-42.04969,11.20784M874.81693,476.68165l-47.32714,12.61148-15.00942,3.9978-7.78994,2.07435-23.37714,6.23515-11.70313,3.12116M1093.64,548.1655l32.61,32.39788,33.99029,33.77767,2.95645,2.9276.00239.00971,30.65683,30.44863,19.95518,19.831M560.99332,979.11424,441.7985,1007.964l-.00716.007" transform="translate(-361.1966 -91.41229)"/></g><ellipse class="cls-45" cx="555.79952" cy="1082.25441" rx="457.67896" ry="275.69307"/><g id="Layer_5" data-name="Layer 5"><text class="cls-46" transform="translate(164.23211 1060.55784)"><tspan class="cls-47">Y<tspan class="cls-48" x="51.58594" y="0">our utili</tspan><tspan class="cls-49" x="385.00537" y="0">t</tspan><tspan class="cls-50" x="420.00537" y="0">y to</tspan><tspan class="cls-51" x="587.00488" y="0">k</tspan><tspan class="cls-52" x="636.56641" y="0">en </tspan></tspan><tspan x="120.47803" y="115.70508">is a securi</tspan><tspan class="cls-49" x="564.39453" y="115.70508">t</tspan><tspan x="599.39453" y="115.70508">y</tspan></text></g></g><g id="Layer_6" data-name="Layer 6"><path class="cls-53" d="M482.4727,1101.95722l-83.95-51.32576a24.93517,24.93517,0,0,1-8.268-34.28291l11.041-18.05894a24.9373,24.9373,0,0,1,34.28292-8.26794l83.95,51.32576" transform="translate(-361.1966 -91.41229)"/><path class="cls-32" d="M519.52941,1041.34932a35.52,35.52,0,1,0,11.777,48.83287,35.52066,35.52066,0,0,0-11.777-48.83287" transform="translate(-361.1966 -91.41229)"/><circle class="cls-54" cx="500.9992" cy="1071.65206" r="35.52002" transform="matrix(0.52162, -0.85318, 0.85318, 0.52162, -1035.83847, 848.68594)"/><path class="cls-55" d="M510.93,1055.4034l-109.07637-2.7385m-1.68831-52.53124,54.17871,1.36249" transform="translate(-361.1966 -91.41229)"/></g><g id="Layer_12" data-name="Layer 12"><g id="Logo_Slogan" data-name="Logo &amp; Slogan"><polygon class="cls-56" points="573.337 1246.918 579.138 1258.346 574.737 1277.036 564.254 1268.472 566.091 1254.763 573.337 1246.918"/><path class="cls-57" d="M919.0487,1332.31572" transform="translate(-361.1966 -91.41229)"/><path class="cls-58" d="M919.04859,1334.50055a2.18514,2.18514,0,0,1-2.18491-2.18491v-17.22089a2.18491,2.18491,0,1,1,4.36982,0v17.22089A2.18514,2.18514,0,0,1,919.04859,1334.50055Z" transform="translate(-361.1966 -91.41229)"/><line class="cls-56" x1="554.6036" y1="1240.90343" x2="561.35696" y2="1240.90343"/><path class="cls-58" d="M922.55368,1334.50055h-6.75335a2.18491,2.18491,0,0,1,0-4.36982h6.75335a2.18491,2.18491,0,0,1,0,4.36982Z" transform="translate(-361.1966 -91.41229)"/><path class="cls-56" d="M934.53373,1338.33006l7.17941-6.76679a30.3589,30.3589,0,1,0-21.467,51.82588c6.2497,0,11.74616,2.28149,16.5742-.95592l6.00852.8314-.17187-9.75443-17.2061-13.62541h0l3.69909-17.422,5.38372-4.1327" transform="translate(-361.1966 -91.41229)"/><path class="cls-58" d="M920.24618,1386.36846a33.33828,33.33828,0,1,1,23.57389-56.91158l2.16978,2.16978-9.41233,8.87153-4.08739-4.33645,4.82294-4.54517a27.38091,27.38091,0,1,0-17.06688,48.79305" transform="translate(-361.1966 -91.41229)"/><path class="cls-59" d="M936.9802,1369.243l-4.27981-4.14636a17.34068,17.34068,0,0,0-.3732-24.50612l-2.23224-2.16823,2.394-2.25939,2.03943,2.16124,1.95059-2.008a23.29971,23.29971,0,0,1,.50123,32.92686Z" transform="translate(-361.1966 -91.41229)"/><path class="cls-58" d="M934.84011,1367.16972" transform="translate(-361.1966 -91.41229)"/><circle class="cls-60" cx="559.04956" cy="1261.61796" r="6.85452"/><path class="cls-58" d="M920.24618,1362.864a9.83383,9.83383,0,1,1,9.834-9.83364A9.84508,9.84508,0,0,1,920.24618,1362.864Zm0-13.70882a3.875,3.875,0,1,0,3.87519,3.87519A3.87955,3.87955,0,0,0,920.24618,1349.15519Z" transform="translate(-361.1966 -91.41229)"/><line class="cls-58" x1="580.51654" y1="1240.15098" x2="563.19233" y2="1256.15788"/><rect class="cls-58" x="921.2577" y="1336.58722" width="23.58678" height="5.95901" transform="translate(-1022.52149 897.45711) rotate(-42.73638)"/><polyline class="cls-56" points="562.284 1267.662 574.737 1277.036 581.46 1282.098 581.46 1294.956 567.953 1294.306"/><polygon class="cls-58" points="584.44 1294.956 558.508 1294.956 558.508 1288.997 578.481 1288.997 578.481 1283.584 560.492 1270.043 564.076 1265.282 584.44 1280.611 584.44 1294.956"/><path class="cls-58" d="M935.11217,1367.38989" transform="translate(-361.1966 -91.41229)"/><path class="cls-58" d="M908.70636,1340.51487a2.18514,2.18514,0,0,1-2.18491-2.18491v-23.23521a2.18491,2.18491,0,1,1,4.36982,0V1338.33A2.18514,2.18514,0,0,1,908.70636,1340.51487Z" transform="translate(-361.1966 -91.41229)"/></g><g id="Logo_Slogan-2" data-name="Logo &amp; Slogan"><polygon class="cls-42" points="573.337 1246.918 579.138 1258.346 574.737 1277.036 564.254 1268.472 566.091 1254.763 573.337 1246.918"/><path class="cls-61" d="M919.0487,1332.31572" transform="translate(-361.1966 -91.41229)"/><path class="cls-27" d="M919.04859,1334.50055a2.18514,2.18514,0,0,1-2.18491-2.18491v-17.22089a2.18491,2.18491,0,1,1,4.36982,0v17.22089A2.18514,2.18514,0,0,1,919.04859,1334.50055Z" transform="translate(-361.1966 -91.41229)"/><line class="cls-42" x1="554.6036" y1="1240.90343" x2="561.35696" y2="1240.90343"/><path class="cls-27" d="M922.55368,1334.50055h-6.75335a2.18491,2.18491,0,0,1,0-4.36982h6.75335a2.18491,2.18491,0,0,1,0,4.36982Z" transform="translate(-361.1966 -91.41229)"/><path class="cls-42" d="M934.53373,1338.33006l7.17941-6.76679a30.3589,30.3589,0,1,0-21.467,51.82588c6.2497,0,11.74616,2.28149,16.5742-.95592l6.00852.8314-.17187-9.75443-17.2061-13.62541h0l3.69909-17.422,5.38372-4.1327" transform="translate(-361.1966 -91.41229)"/><path class="cls-27" d="M920.24618,1386.36846a33.33828,33.33828,0,1,1,23.57389-56.91158l2.16978,2.16978-9.41233,8.87153-4.08739-4.33645,4.82294-4.54517a27.38091,27.38091,0,1,0-17.06688,48.79305" transform="translate(-361.1966 -91.41229)"/><path class="cls-62" d="M936.9802,1369.243l-4.27981-4.14636a17.34068,17.34068,0,0,0-.3732-24.50612l-2.23224-2.16823,2.394-2.25939,2.03943,2.16124,1.95059-2.008a23.29971,23.29971,0,0,1,.50123,32.92686Z" transform="translate(-361.1966 -91.41229)"/><path class="cls-27" d="M934.84011,1367.16972" transform="translate(-361.1966 -91.41229)"/><circle class="cls-37" cx="559.04956" cy="1261.61796" r="6.85452"/><path class="cls-27" d="M920.24618,1362.864a9.83383,9.83383,0,1,1,9.834-9.83364A9.84508,9.84508,0,0,1,920.24618,1362.864Zm0-13.70882a3.875,3.875,0,1,0,3.87519,3.87519A3.87955,3.87955,0,0,0,920.24618,1349.15519Z" transform="translate(-361.1966 -91.41229)"/><line class="cls-27" x1="580.51654" y1="1240.15098" x2="563.19233" y2="1256.15788"/><rect class="cls-27" x="921.2577" y="1336.58722" width="23.58678" height="5.95901" transform="translate(-1022.52149 897.45711) rotate(-42.73638)"/><polyline class="cls-42" points="562.284 1267.662 574.737 1277.036 581.46 1282.098 581.46 1294.956 567.953 1294.306"/><polygon class="cls-27" points="584.44 1294.956 558.508 1294.956 558.508 1288.997 578.481 1288.997 578.481 1283.584 560.492 1270.043 564.076 1265.282 584.44 1280.611 584.44 1294.956"/><path class="cls-27" d="M935.11217,1367.38989" transform="translate(-361.1966 -91.41229)"/><path class="cls-27" d="M908.70636,1340.51487a2.18514,2.18514,0,0,1-2.18491-2.18491v-23.23521a2.18491,2.18491,0,1,1,4.36982,0V1338.33A2.18514,2.18514,0,0,1,908.70636,1340.51487Z" transform="translate(-361.1966 -91.41229)"/></g></g></svg>