<?xml version="1.0" encoding="utf-8"?>
<!-- Generator: Adobe Illustrator 16.0.0, SVG Export Plug-In . SVG Version: 6.00 Build 0)  -->
<!DOCTYPE svg PUBLIC "-//W3C//DTD SVG 1.1//EN" "http://www.w3.org/Graphics/SVG/1.1/DTD/svg11.dtd">
<svg version="1.1" id="Layer_1" xmlns="http://www.w3.org/2000/svg" xmlns:xlink="http://www.w3.org/1999/xlink" x="0px" y="0px"
	 width="93px" height="107px" viewBox="0 0 93 107" enable-background="new 0 0 93 107" xml:space="preserve">
<path fill="#15003E" stroke="#47C48B" stroke-miterlimit="10" d="M70.604,60.019c0-17.269-13.999-31.268-31.268-31.268
	S8.068,42.75,8.068,60.019c0,9.835,4.544,18.604,11.644,24.336l-0.865,4.352c-0.03,0.159,0.041,0.32,0.18,0.403l1.624,0.991
	c1.668,1.018,3.417,1.875,5.214,2.603l-0.095,0.771c-0.025,0.195,0.103,0.379,0.297,0.423l14.632,3.33
	c0.028,0.006,0.058,0.008,0.085,0.008c0.034,0,0.07-0.002,0.104-0.014l11.768-3.329c0.184-0.051,0.3-0.229,0.276-0.418l-0.095-0.78
	c1.788-0.726,3.528-1.58,5.189-2.592l1.621-0.991c0.141-0.082,0.209-0.242,0.179-0.402l-0.864-4.355
	C66.061,78.621,70.604,69.853,70.604,60.019z"/>
<title>v</title>
<desc>Created with Sketch.</desc>
<g id="Layer_63_1_">
</g>
<g id="Layer_2_1_" transform="translate(10.000000, 12.000000)">
</g>
<g>
	<path id="Shape_1_" fill="#CBC9D1" d="M69.143,60.018c0-16.524-13.396-29.923-29.922-29.923c-16.526,0-29.923,13.397-29.923,29.923
		c0,16.526,13.397,29.924,29.923,29.924C55.744,89.941,69.143,76.544,69.143,60.018"/>
	<rect id="Rectangle-path" x="31.833" y="52.673" fill="#15003E" width="14.191" height="12.685"/>
	<path id="Shape_2_" fill="#362B59" d="M46.378,65.709H31.481V52.321h14.897V65.709z M32.186,65.004h13.488V53.025H32.186V65.004z"
		/>
	<path id="Shape_3_" fill="#362B59" d="M52.098,65.705L39.22,62.352l-12.88,3.354c-0.652,0.169-1.151,0.697-1.283,1.361
		l-4.234,21.307l1.486,0.906c10.384,6.332,23.435,6.332,33.819,0l1.485-0.906L53.38,67.066
		C53.248,66.402,52.751,65.874,52.098,65.705"/>
</g>
<g id="Shape_4_" transform="translate(22.000000, 42.000000)">
	<polygon fill="#362B59" points="5.158,50.707 6.695,38.27 17.229,23.921 27.793,38.27 29.305,50.707 18.541,53.754 	"/>
	<path fill="#15003E" d="M18.541,54.105c-0.026,0-0.053-0.002-0.078-0.008L5.08,51.052c-0.177-0.04-0.294-0.208-0.271-0.387
		l1.538-12.438c0.008-0.06,0.03-0.117,0.066-0.166l10.534-14.347c0.067-0.091,0.172-0.144,0.284-0.146
		c0.113,0,0.219,0.055,0.284,0.145l10.563,14.348c0.035,0.049,0.061,0.106,0.064,0.166l1.51,12.438
		c0.021,0.173-0.084,0.336-0.252,0.383l-10.763,3.045C18.605,54.104,18.572,54.105,18.541,54.105z M5.547,50.436l12.985,2.955
		l10.384-2.938l-1.461-12.047L17.23,24.518L7.033,38.402L5.547,50.436z"/>
	<path fill="#15003E" d="M23.543,22.77c0,0.731-2.827,1.322-6.314,1.322c-3.486,0-6.312-0.591-6.312-1.322
		c0-0.729,2.826-1.324,6.312-1.324C20.716,21.445,23.543,22.038,23.543,22.77"/>
</g>
<g id="Shape_5_" transform="translate(14.000000, 25.000000)">
	<path fill="#15003E" d="M25.221,69.381C25.22,69.381,25.22,69.381,25.221,69.381c-6.034-0.001-11.945-1.66-17.095-4.801
		L6.64,63.674c-0.126-0.076-0.191-0.224-0.163-0.369l4.235-21.308c0.157-0.789,0.761-1.431,1.541-1.634L25.13,37.01
		c0.06-0.016,0.12-0.016,0.178,0l12.877,3.354c0.778,0.202,1.383,0.845,1.541,1.634l4.232,21.309
		c0.027,0.146-0.036,0.293-0.164,0.368l-1.482,0.906C37.161,67.721,31.252,69.381,25.221,69.381z M7.217,63.2l1.276,0.778
		c5.039,3.07,10.823,4.694,16.726,4.694h0.002c5.9,0,11.683-1.623,16.724-4.694l1.275-0.778l-4.188-21.065
		c-0.104-0.525-0.51-0.953-1.026-1.09l-12.79-3.33l-12.789,3.33c-0.52,0.137-0.922,0.564-1.027,1.09L7.217,63.2z"/>
	<polygon fill="#25E899" points="20.082,34.646 29.541,34.646 30.342,34.952 29.739,37.109 20.677,37.109 	"/>
	<path fill="#EFF4EE" d="M28.459,39.779h-6.501c-0.707,0-1.28-0.575-1.28-1.281v-1.389h9.062v1.389
		C29.739,39.204,29.166,39.779,28.459,39.779"/>
	<path fill="#15003E" d="M28.459,40.073h-6.501c-0.868,0-1.574-0.708-1.574-1.575v-1.682h9.65v1.682
		C30.033,39.365,29.326,40.073,28.459,40.073z M20.971,37.405v1.093c0,0.543,0.442,0.986,0.986,0.986h6.501
		c0.542,0,0.986-0.443,0.986-0.986v-1.093H20.971z"/>
	<path fill="#0FCE7C" d="M23.548,34.646c-1.424-0.625-2.417-2.047-2.417-3.699c0-0.979,0.347-1.87,0.922-2.569
		c0.741-0.898,5.401-0.943,6.14-0.108c0.632,0.714,1.016,1.651,1.016,2.678c0,1.651-0.994,3.075-2.417,3.698"/>
	<path fill="#15003E" d="M23.292,34.939c-0.043,0-0.088-0.01-0.129-0.028c-1.569-0.765-2.542-2.32-2.542-4.063
		c0-0.867,0.245-1.709,0.709-2.434c0.088-0.137,0.271-0.178,0.407-0.09c0.137,0.087,0.177,0.27,0.09,0.407
		c-0.405,0.63-0.618,1.363-0.618,2.117c0,1.517,0.848,2.869,2.212,3.533c0.146,0.07,0.208,0.247,0.136,0.393
		C23.505,34.88,23.4,34.939,23.292,34.939"/>
	<path fill="#15003E" d="M27.027,34.919c-0.11,0-0.213-0.06-0.264-0.163c-0.074-0.145-0.016-0.322,0.13-0.395
		c1.339-0.672,2.172-2.02,2.172-3.514c0-0.846-0.262-1.646-0.759-2.326c-0.097-0.131-0.069-0.314,0.063-0.41
		c0.132-0.097,0.315-0.069,0.411,0.063c0.571,0.777,0.874,1.702,0.874,2.673c0,1.721-0.957,3.269-2.497,4.041
		C27.115,34.909,27.069,34.919,27.027,34.919"/>
	<path fill="#15003E" d="M29.968,37.405h-9.52l-1.549-6.099V31.27c0-3.479,2.831-6.309,6.309-6.309c3.479,0,6.308,2.829,6.308,6.309
		v0.037l-0.008,0.035L29.968,37.405z M20.906,36.816h8.605l1.416-5.582c-0.019-3.137-2.578-5.686-5.72-5.686
		s-5.699,2.546-5.72,5.686L20.906,36.816z"/>
	<path fill="#15003E" d="M19.663,34.049h-0.621c-0.666,0-1.208-0.542-1.208-1.207v-2.32c0-0.664,0.542-1.207,1.208-1.207h0.264
		c0.162,0,0.293,0.131,0.293,0.295c0,0.162-0.131,0.293-0.293,0.293h-0.264c-0.341,0-0.619,0.277-0.619,0.619v2.32
		c0,0.342,0.278,0.618,0.619,0.618h0.621c0.162,0,0.294,0.132,0.294,0.294C19.957,33.917,19.824,34.049,19.663,34.049"/>
	<path fill="#15003E" d="M31.396,34.049h-0.619c-0.163,0-0.296-0.132-0.296-0.295c0-0.162,0.133-0.294,0.296-0.294h0.619
		c0.342,0,0.62-0.276,0.62-0.618v-2.32c0-0.342-0.277-0.619-0.62-0.619h-0.263c-0.163,0-0.293-0.131-0.293-0.293
		c0-0.164,0.13-0.295,0.293-0.295h0.263c0.667,0,1.208,0.543,1.208,1.207v2.32C32.604,33.507,32.062,34.049,31.396,34.049"/>
	<path fill="#15003E" d="M19.258,30.559c-0.074,0-0.147-0.026-0.205-0.082c-0.116-0.115-0.119-0.302-0.006-0.418
		c1.671-1.709,3.893-2.651,6.256-2.651c2.226,0,4.354,0.85,5.989,2.392c0.118,0.111,0.124,0.299,0.013,0.416
		c-0.113,0.117-0.298,0.123-0.417,0.014c-1.526-1.438-3.51-2.231-5.585-2.231c-2.204,0-4.275,0.88-5.834,2.476
		C19.411,30.529,19.335,30.559,19.258,30.559"/>
	<path fill="#15003E" d="M30.342,34.939h-10.26c-0.163,0-0.295-0.131-0.295-0.293c0-0.164,0.132-0.295,0.295-0.295h10.26
		c0.163,0,0.293,0.131,0.293,0.295C30.636,34.809,30.505,34.939,30.342,34.939"/>
	<path fill="#FFFFFF" d="M27.319,29.607c0,0.584-0.472,1.055-1.054,1.055s-1.054-0.471-1.054-1.055c0-0.582,0.472-1.052,1.054-1.052
		S27.319,29.025,27.319,29.607"/>
	<path fill="#FFFFFF" d="M28.072,31.184c0,0.235-0.191,0.426-0.425,0.426c-0.235,0-0.426-0.188-0.426-0.426
		c0-0.233,0.191-0.426,0.426-0.426C27.88,30.758,28.072,30.948,28.072,31.184"/>
	<path fill="#15003E" d="M28.846,36.564c-0.418,0-0.627-0.314-0.765-0.523c-0.13-0.198-0.185-0.26-0.273-0.26
		c-0.086,0-0.143,0.062-0.273,0.26c-0.138,0.209-0.346,0.523-0.765,0.523c-0.418,0-0.625-0.314-0.764-0.523
		c-0.132-0.198-0.187-0.26-0.274-0.26s-0.143,0.062-0.273,0.26c-0.139,0.209-0.347,0.523-0.764,0.523
		c-0.419,0-0.626-0.314-0.766-0.523c-0.131-0.198-0.187-0.26-0.272-0.26c-0.088,0-0.144,0.062-0.275,0.26
		c-0.138,0.209-0.347,0.523-0.764,0.523c-0.418,0-0.628-0.314-0.766-0.523c-0.131-0.198-0.186-0.26-0.274-0.26
		c-0.162,0-0.294-0.133-0.294-0.297c0-0.16,0.132-0.293,0.294-0.293c0.418,0,0.627,0.313,0.766,0.522
		c0.131,0.199,0.186,0.263,0.274,0.263c0.087,0,0.142-0.062,0.273-0.263c0.137-0.209,0.348-0.522,0.766-0.522
		c0.417,0,0.625,0.313,0.764,0.522c0.132,0.199,0.187,0.263,0.274,0.263c0.087,0,0.142-0.062,0.273-0.263
		c0.139-0.209,0.347-0.522,0.764-0.522c0.418,0,0.627,0.313,0.765,0.522c0.132,0.199,0.185,0.263,0.273,0.263
		s0.143-0.062,0.274-0.263c0.138-0.209,0.347-0.522,0.764-0.522c0.419,0,0.626,0.313,0.764,0.522
		c0.132,0.199,0.187,0.263,0.274,0.263c0.162,0,0.295,0.131,0.295,0.295C29.141,36.434,29.008,36.564,28.846,36.564"/>
	<polygon fill="#232133" points="33.445,25.667 25.082,25.108 16.72,25.667 15.464,40.261 19.417,41.668 19.616,28.566 
		20.215,29.959 29.949,29.959 30.548,28.566 30.749,41.668 34.7,40.261 	"/>
</g>
<path id="Shape_6_" fill="#15003E" d="M51.266,52.437c0,2.344-5.611,4.245-12.528,4.245c-6.919,0-12.528-1.898-12.528-4.245
	s5.608-4.245,12.528-4.245C45.655,48.192,51.266,50.092,51.266,52.437"/>
<path fill="#15003E" d="M44.749,67.021c-0.072,0-0.141-0.021-0.202-0.062c-0.093-0.064-0.149-0.171-0.151-0.285L44.22,55.186
	c-0.066,0.078-0.165,0.127-0.271,0.127h-9.733c-0.106,0-0.206-0.049-0.271-0.127l-0.176,11.487
	c-0.001,0.114-0.057,0.222-0.151,0.285c-0.093,0.063-0.212,0.08-0.319,0.042l-3.952-1.408c-0.151-0.053-0.248-0.201-0.234-0.361
	l1.255-14.595c0.015-0.174,0.154-0.311,0.328-0.321l8.364-0.559c0.015,0,0.031,0,0.047,0l8.364,0.559
	c0.172,0.011,0.312,0.147,0.326,0.321l1.256,14.595c0.014,0.16-0.082,0.311-0.232,0.361L44.866,67
	C44.827,67.016,44.788,67.021,44.749,67.021z M44.548,53.213c0.022,0,0.045,0.001,0.069,0.006c0.163,0.032,0.282,0.174,0.284,0.34
	l0.193,12.611l3.233-1.15l-1.208-14.021l-8.037-0.535l-8.038,0.535L29.837,65.02l3.234,1.15l0.192-12.611
	c0.002-0.166,0.121-0.309,0.284-0.34c0.165-0.032,0.326,0.055,0.392,0.207l0.507,1.182h9.27l0.508-1.182
	C44.281,53.294,44.41,53.213,44.548,53.213z"/>
<path fill="#362B59" d="M53.807,50.152c0,1.939-6.531,3.512-14.586,3.512c-8.056,0-14.586-1.572-14.586-3.512
	s6.53-3.511,14.586-3.511C47.275,46.641,53.807,48.213,53.807,50.152"/>
<path fill="#15003E" d="M39.219,54.018c-7.241,0-14.938-1.354-14.938-3.865c0-2.51,7.697-3.864,14.938-3.864
	c7.242,0,14.938,1.354,14.938,3.864C54.157,52.663,46.461,54.018,39.219,54.018z M39.219,46.995c-3.869,0-7.502,0.361-10.231,1.018
	c-2.951,0.708-4.003,1.571-4.003,2.139c0,0.569,1.052,1.43,4.003,2.14c2.729,0.657,6.362,1.02,10.231,1.02
	c3.869,0,7.502-0.363,10.231-1.02c2.95-0.71,4.002-1.571,4.002-2.14c0-0.568-1.052-1.431-4.002-2.139
	C46.721,47.356,43.088,46.995,39.219,46.995z"/>
<path fill="#362B59" d="M46.006,48.777l-0.983-6.348c0-0.812-2.599-1.469-5.804-1.469c-3.205,0-5.804,0.657-5.804,1.469
	l-0.984,6.348c-0.011,0.04-0.019,0.08-0.019,0.122c0,0.953,3.048,1.724,6.807,1.724c3.759,0,6.806-0.771,6.806-1.724
	C46.025,48.856,46.017,48.817,46.006,48.777"/>
<path fill="#15003E" d="M39.219,50.976c-3.448,0-7.159-0.65-7.159-2.077c0-0.062,0.008-0.125,0.026-0.195l0.977-6.306
	c0.058-1.416,4.042-1.791,6.156-1.791c2.114,0,6.099,0.375,6.155,1.791l0.978,6.307c0.018,0.068,0.026,0.132,0.026,0.193
	C46.378,50.325,42.666,50.976,39.219,50.976z M39.219,41.312c-3.597,0-5.452,0.783-5.452,1.117l-0.004,0.054l-0.987,6.369
	l-0.005,0.019c-0.006,0.021-0.007,0.028-0.007,0.029c0,0.464,2.278,1.371,6.455,1.371c4.177,0,6.455-0.907,6.455-1.372
	c0,0-0.001-0.007-0.008-0.028l-0.008-0.04l-0.988-6.375v-0.027C44.67,42.095,42.815,41.312,39.219,41.312z"/>
<path fill="#362B59" d="M45.023,42.429c0,0.812-2.599,1.47-5.804,1.47c-3.205,0-5.804-0.658-5.804-1.47s2.598-1.469,5.804-1.469
	C42.425,40.96,45.023,41.617,45.023,42.429"/>
<path fill="#15003E" d="M39.219,44.252c-2.129,0-6.156-0.381-6.156-1.823c0-1.442,4.027-1.822,6.156-1.822
	c2.13,0,6.157,0.38,6.157,1.822C45.376,43.871,41.349,44.252,39.219,44.252z M39.219,41.312c-3.597,0-5.452,0.783-5.452,1.117
	c0,0.334,1.855,1.117,5.452,1.117c3.596,0,5.451-0.783,5.451-1.117C44.67,42.095,42.815,41.312,39.219,41.312z"/>
<polygon fill="#362B59" points="50.529,86.339 45.586,84.639 46.169,79.588 49.793,80.27 "/>
<path fill="#15003E" d="M50.529,86.689c-0.038,0-0.077-0.004-0.115-0.019l-4.942-1.7c-0.157-0.056-0.254-0.211-0.235-0.373
	l0.583-5.053c0.011-0.097,0.062-0.186,0.142-0.24c0.078-0.061,0.177-0.082,0.272-0.063l3.624,0.681
	c0.152,0.03,0.269,0.152,0.285,0.305l0.732,6.03c0.007,0.026,0.01,0.054,0.01,0.082c0,0.195-0.158,0.353-0.353,0.353h-0.003V86.689z
	 M45.969,84.396l4.142,1.426l-0.637-5.254l-2.999-0.564L45.969,84.396z"/>
<polygon fill="#362B59" points="27.958,86.339 32.903,84.639 32.319,79.588 28.695,80.27 "/>
<path fill="#15003E" d="M27.958,86.689c-0.079,0-0.158-0.024-0.222-0.076c-0.093-0.076-0.142-0.196-0.127-0.316l0.737-6.07
	c0.018-0.15,0.132-0.272,0.285-0.305l3.623-0.681c0.097-0.019,0.195,0.005,0.274,0.063c0.079,0.057,0.13,0.146,0.142,0.24
	l0.583,5.053c0.018,0.162-0.079,0.317-0.236,0.373l-4.943,1.7C28.036,86.686,27.998,86.689,27.958,86.689z M29.014,80.568
	l-0.637,5.254l4.144-1.426l-0.508-4.395L29.014,80.568z"/>
<path fill="#117248" d="M37.037,73.986c-0.51-0.469-1.272-0.606-1.936-0.291c-0.663,0.32-1.032,1.002-0.985,1.69
	c0.511,0.47,1.273,0.607,1.935,0.289C36.714,75.357,37.083,74.677,37.037,73.986"/>
<path fill="#054F38" d="M35.299,76.202c-0.528,0-1.032-0.197-1.421-0.556l-0.104-0.097l-0.01-0.141
	c-0.058-0.861,0.408-1.659,1.186-2.031c0.285-0.139,0.589-0.207,0.903-0.207c0.528,0,1.034,0.195,1.422,0.556l0.104,0.096
	l0.009,0.141c0.058,0.861-0.406,1.658-1.184,2.032C35.917,76.132,35.613,76.202,35.299,76.202z M34.465,75.221
	c0.241,0.178,0.532,0.276,0.834,0.276c0.209,0,0.41-0.048,0.6-0.14c0.472-0.227,0.77-0.688,0.788-1.203
	c-0.405-0.303-0.968-0.362-1.434-0.139C34.782,74.24,34.483,74.705,34.465,75.221z"/>
<path fill="#15003E" d="M36.322,73.312c2.693,1.578,9.888,10.373,12.515,11.687"/>
<path fill="#C61443" d="M36.845,69.982c-0.296-1.078-0.472-2.393-1.295-2.275c-0.823,0.115-0.911,0.923-1.559,1.02
	c-0.646,0.094-0.813,0.201-0.707,0.652c0.104,0.452,1.073,3.186,1.86,2.854C35.928,71.896,37.142,71.062,36.845,69.982"/>
<path fill="#AA0F38" d="M35.006,72.611c-1.17,0-2.059-3.121-2.065-3.152c-0.044-0.184-0.083-0.455,0.073-0.684
	c0.185-0.271,0.543-0.344,0.926-0.4c0.168-0.023,0.281-0.141,0.464-0.345c0.237-0.265,0.532-0.593,1.096-0.673
	c0.05-0.006,0.101-0.01,0.149-0.01c0.897,0,1.169,1.088,1.409,2.049c0.042,0.166,0.083,0.332,0.127,0.494
	c0.337,1.228-0.814,2.201-1.904,2.664C35.192,72.593,35.1,72.611,35.006,72.611z M33.606,69.172
	c0.001,0.021,0.004,0.062,0.021,0.127c0.04,0.178,0.269,0.867,0.586,1.523c0.486,1,0.771,1.078,0.792,1.085
	c0.622-0.267,1.733-0.986,1.5-1.83c-0.044-0.166-0.088-0.337-0.13-0.509c-0.168-0.676-0.378-1.518-0.725-1.518
	c-0.016,0-0.033,0.001-0.05,0.004c-0.311,0.045-0.469,0.221-0.671,0.444c-0.213,0.239-0.456,0.508-0.885,0.571
	C33.757,69.115,33.648,69.15,33.606,69.172z"/>
<path fill="#C61443" d="M33.604,73.629c-0.976,0.102-2.455,0.08-2.892-0.301c-0.438-0.383,0.316-0.494,0.008-1.239
	c-0.308-0.745,0.035-1.088,0.481-1.271c0.448-0.188,0.928-0.974,1.283-1.299c0.354-0.326,1.275,0.143,1.527,0.603
	C34.263,70.58,33.604,73.629,33.604,73.629"/>
<path fill="#AA0F38" d="M32.577,74.032c-1.056,0-1.762-0.146-2.096-0.439c-0.431-0.373-0.218-0.748-0.128-0.905
	c0.083-0.148,0.134-0.237,0.041-0.463c-0.183-0.438-0.193-0.824-0.031-1.143c0.129-0.254,0.366-0.451,0.703-0.592
	c0.207-0.086,0.497-0.438,0.729-0.723c0.158-0.194,0.306-0.375,0.451-0.51c0.144-0.133,0.338-0.199,0.562-0.199
	c0.544,0,1.25,0.416,1.512,0.893c0.276,0.501-0.116,2.564-0.372,3.751l-0.054,0.251l-0.255,0.025
	C33.302,74.016,32.934,74.032,32.577,74.032z M30.948,73.066c0.146,0.119,0.658,0.261,1.628,0.261c0.245,0,0.497-0.009,0.736-0.026
	c0.267-1.283,0.48-2.73,0.385-3.017c-0.14-0.246-0.61-0.521-0.89-0.521c-0.055,0-0.081,0.01-0.085,0.016
	c-0.107,0.098-0.24,0.262-0.382,0.435c-0.312,0.382-0.633,0.774-1.004,0.929c-0.179,0.073-0.294,0.162-0.346,0.263
	c-0.062,0.122-0.044,0.31,0.055,0.552c0.224,0.54,0.027,0.891-0.079,1.077C30.96,73.042,30.955,73.055,30.948,73.066z"/>
<path fill="#C61443" d="M34.42,69.479c-0.878-0.32-1.095-0.266-1.202,0.44c-0.107,0.705-0.706,0.804-0.706,0.804
	s-0.931,0.312-0.524,0.719c0.406,0.408,0.27,1.178,0.909,1.414c0.64,0.234,1.647,0.478,2.349-0.406
	C35.946,71.564,36.13,70.105,34.42,69.479"/>
<path fill="#AA0F38" d="M33.951,73.425c-0.353,0-0.738-0.08-1.178-0.241c-0.534-0.194-0.689-0.666-0.803-1.01
	c-0.064-0.193-0.125-0.375-0.232-0.482c-0.233-0.23-0.219-0.469-0.19-0.59c0.101-0.431,0.678-0.652,0.852-0.713l0.055-0.014
	c0.053-0.011,0.351-0.093,0.413-0.51c0.042-0.277,0.143-0.928,0.814-0.928c0.205,0,0.453,0.061,0.859,0.209
	c1.006,0.369,1.368,0.98,1.494,1.433c0.188,0.667-0.004,1.446-0.514,2.089C35.121,73.169,34.593,73.425,33.951,73.425z
	 M32.277,71.234c0.197,0.219,0.285,0.481,0.363,0.718c0.106,0.321,0.171,0.493,0.379,0.569c0.359,0.134,0.664,0.196,0.932,0.196
	c0.423,0,0.756-0.159,1.019-0.489c0.363-0.457,0.511-1.019,0.387-1.459c-0.12-0.426-0.475-0.748-1.058-0.961
	c-0.195-0.07-0.471-0.166-0.617-0.166c-0.014,0-0.022,0.002-0.029,0.002c-0.014,0.02-0.052,0.094-0.087,0.325
	c-0.111,0.729-0.642,1.025-0.963,1.093C32.484,71.107,32.351,71.18,32.277,71.234z"/>
<path fill="#C61443" d="M36.918,72.501c-0.987,1.004-2.271,0.267-2.693,0.382C33.804,73,34.858,71.061,34.85,70.78
	c-0.032-1.205,0.648-2.177,1.753-1.581C37.073,69.451,38.111,71.289,36.918,72.501"/>
<path fill="#AA0F38" d="M35.607,73.389c-0.335,0-0.645-0.061-0.894-0.105c-0.151-0.03-0.294-0.059-0.376-0.059
	c-0.008,0-0.016,0-0.022,0c-0.04,0.012-0.083,0.018-0.123,0.018h-0.001c-0.14,0-0.269-0.067-0.344-0.186
	c-0.175-0.267-0.043-0.632,0.379-1.611c0.105-0.241,0.247-0.569,0.271-0.676c-0.015-0.707,0.189-1.328,0.558-1.709
	c0.436-0.449,1.07-0.519,1.715-0.172c0.391,0.211,0.896,0.998,1.022,1.836c0.119,0.789-0.096,1.49-0.623,2.024
	C36.752,73.174,36.226,73.389,35.607,73.389z M34.545,72.534c0.094,0.013,0.194,0.03,0.303,0.054
	c0.23,0.045,0.493,0.096,0.759,0.096c0.435,0,0.772-0.137,1.06-0.43c0.37-0.375,0.514-0.854,0.428-1.424
	c-0.102-0.686-0.514-1.242-0.659-1.322c-0.362-0.193-0.652-0.186-0.875,0.044c-0.238,0.244-0.374,0.701-0.359,1.22
	c0.005,0.166-0.081,0.381-0.327,0.953C34.78,71.941,34.632,72.288,34.545,72.534z"/>
<path fill="#C61443" d="M36.452,72.92c-0.842,0.782-2.603,1.811-3.708,1.35c-1.105-0.463-1.346-0.83-0.812-1.246
	c0.534-0.416,0.565-1.108,1.299-1.062C33.964,72.006,37.542,71.908,36.452,72.92"/>
<path fill="#AA0F38" d="M33.365,74.734c-0.276,0-0.531-0.047-0.757-0.143c-0.854-0.355-1.241-0.678-1.295-1.072
	c-0.037-0.276,0.099-0.537,0.402-0.775c0.149-0.116,0.254-0.271,0.366-0.436c0.223-0.33,0.499-0.744,1.172-0.701
	c0.1,0.008,0.269,0.011,0.464,0.015c1.985,0.044,3.034,0.172,3.255,0.752c0.07,0.185,0.078,0.472-0.279,0.804
	C35.884,73.927,34.499,74.734,33.365,74.734z M32.017,73.434c0.028,0.045,0.171,0.223,0.863,0.51c0.14,0.06,0.303,0.089,0.485,0.089
	c0.892,0,2.133-0.706,2.847-1.369c0.023-0.021,0.042-0.039,0.054-0.058c-0.269-0.15-1.13-0.246-2.563-0.276
	c-0.212-0.005-0.38-0.011-0.495-0.017c-0.25-0.017-0.332,0.08-0.544,0.395c-0.13,0.189-0.278,0.409-0.515,0.596
	C32.061,73.368,32.028,73.413,32.017,73.434z"/>
<path fill="#117248" d="M40.691,77.419c-0.331-0.608-1.006-0.985-1.737-0.899c-0.73,0.084-1.301,0.609-1.48,1.277
	c0.33,0.61,1.006,0.988,1.737,0.902C39.94,78.614,40.511,78.089,40.691,77.419"/>
<path fill="#054F38" d="M39.005,79.064c-0.768,0-1.474-0.422-1.841-1.1l-0.067-0.124l0.037-0.137
	c0.225-0.833,0.924-1.438,1.78-1.538c0.082-0.01,0.165-0.016,0.247-0.016c0.768,0,1.474,0.423,1.841,1.099l0.067,0.124l-0.036,0.137
	c-0.226,0.835-0.923,1.438-1.781,1.538C39.17,79.061,39.086,79.064,39.005,79.064z M37.857,77.753
	c0.259,0.377,0.686,0.604,1.147,0.604c0.055,0,0.109-0.002,0.165-0.008c0.52-0.062,0.953-0.402,1.136-0.886
	c-0.289-0.422-0.794-0.657-1.311-0.597C38.476,76.93,38.042,77.271,37.857,77.753z"/>
<polygon fill="#15003E" points="40.524,81.244 39.688,82.425 40.656,83.932 42.142,84.37 42.972,83.979 "/>
<path fill="#117248" d="M38.561,74.865c0.843-0.076,1.594-0.651,1.853-1.512c0.257-0.86-0.057-1.754-0.72-2.281
	c-0.843,0.076-1.595,0.652-1.851,1.513C37.585,73.445,37.897,74.339,38.561,74.865"/>
<path fill="#054F38" d="M38.452,75.229l-0.109-0.086c-0.802-0.637-1.13-1.68-0.837-2.658c0.293-0.978,1.14-1.67,2.158-1.762
	l0.141-0.012l0.109,0.087c0.802,0.636,1.131,1.679,0.837,2.657c-0.292,0.979-1.14,1.67-2.158,1.761L38.452,75.229z M39.584,71.441
	c-0.666,0.115-1.208,0.591-1.405,1.244c-0.195,0.653-0.002,1.351,0.493,1.809c0.665-0.111,1.208-0.588,1.403-1.241
	C40.271,72.6,40.079,71.902,39.584,71.441z"/>
<g>
	
		<rect x="23.136" y="65.631" transform="matrix(0.9999 -0.0167 0.0167 0.9999 -1.2507 0.6635)" fill="#15003E" width="32.025" height="19.351"/>
	
		<rect x="23.136" y="65.631" transform="matrix(0.9997 -0.0249 0.0249 0.9997 -1.864 0.9987)" fill="none" stroke="#0FCE7C" stroke-miterlimit="10" width="32.025" height="19.353"/>
	<g>
		<path id="Shape_19_" fill="#FFFFFF" d="M51.176,79.023c-0.089,0-0.16-0.069-0.16-0.156l-0.022-1.254
			c-0.002-0.088,0.065-0.16,0.155-0.162c0.088-0.003,0.158,0.068,0.16,0.156l0.024,1.254C51.335,78.951,51.264,79.021,51.176,79.023
			"/>
		<path id="Shape_18_" fill="#FFFFFF" d="M51.331,82.798c-1.341,0.024-2.446-1.043-2.472-2.382c-0.023-1.34,1.045-2.448,2.386-2.473
			c0.647-0.012,1.264,0.23,1.729,0.681l0.16,0.153l-0.675,0.658l-0.303-0.311l0.345-0.337c-0.357-0.272-0.794-0.42-1.252-0.412
			c-1.1,0.021-1.977,0.931-1.956,2.028c0.021,1.099,0.931,1.979,2.026,1.959"/>
		<path id="Shape_17_" fill="#48B978" d="M52.527,81.531l-0.319-0.299c0.228-0.239,0.349-0.553,0.341-0.885
			c-0.006-0.344-0.148-0.662-0.396-0.897l-0.166-0.155l0.17-0.169l0.152,0.156l0.14-0.149c0.34,0.317,0.526,0.744,0.534,1.208
			C52.992,80.785,52.83,81.207,52.527,81.531"/>
		<path id="Shape_9_" fill="#FFFFFF" d="M51.283,80.09c-0.155,0.003-0.279,0.133-0.277,0.289c0.002,0.155,0.131,0.281,0.286,0.277
			c0.156-0.002,0.278-0.133,0.278-0.289C51.566,80.21,51.438,80.089,51.283,80.09 M51.301,81.089
			c-0.396,0.009-0.723-0.309-0.729-0.705c-0.008-0.395,0.308-0.723,0.701-0.728c0.396-0.008,0.724,0.309,0.731,0.703
			C52.009,80.756,51.697,81.08,51.301,81.089"/>
		<path id="Shape_10_" fill="#190B3C" d="M52.822,78.782l-1.241,1.188"/>
		<polygon id="Shape_11_" fill="#FFFFFF" points="52.672,78.626 52.975,78.938 51.73,80.124 51.432,79.812 		"/>
		<polygon id="Shape_12_" fill="#FFFFFF" points="53.18,82.766 51.292,82.799 51.283,82.365 52.736,82.338 52.729,81.945 
			51.4,80.982 51.658,80.63 53.161,81.72 		"/>
		<polygon id="Shape_13_" fill="#62C08C" points="53.243,77.693 53.413,77.518 53.592,77.688 53.421,77.865 		"/>
		<polygon id="Shape_14_" fill="#62C08C" points="52.48,76.869 52.562,76.783 52.646,76.865 52.564,76.951 		"/>
		<path id="Shape_15_" fill="#62C08C" d="M53.498,76.121c-0.001-0.071-0.061-0.125-0.128-0.125
			c-0.069,0.003-0.124,0.061-0.122,0.127c0.001,0.07,0.059,0.126,0.126,0.124C53.443,76.246,53.499,76.189,53.498,76.121"/>
		<path id="Shape_16_" fill="#FFFFFF" d="M50.432,79.477c-0.086,0.002-0.162-0.068-0.162-0.158l-0.031-1.689
			c-0.002-0.089,0.07-0.162,0.156-0.164c0.09-0.002,0.16,0.07,0.164,0.158l0.029,1.691C50.588,79.402,50.52,79.475,50.432,79.477"/>
	</g>
	<g>
		<path fill="#0FCE7C" d="M25.59,76.218l-0.779-4.307l2.093-0.379c0.448-0.083,0.825-0.046,1.13,0.106
			c0.302,0.153,0.487,0.401,0.547,0.743c0.044,0.233,0.016,0.451-0.085,0.65c-0.099,0.198-0.262,0.354-0.49,0.467l-0.01-0.047
			c0.296,0.016,0.533,0.106,0.719,0.262c0.186,0.159,0.303,0.378,0.354,0.654c0.066,0.354-0.021,0.667-0.259,0.933
			c-0.238,0.266-0.593,0.441-1.07,0.528L25.59,76.218z M26.225,73.396l0.793-0.144c0.208-0.037,0.356-0.099,0.441-0.179
			c0.085-0.083,0.113-0.193,0.088-0.336c-0.026-0.148-0.095-0.248-0.207-0.297c-0.11-0.049-0.269-0.056-0.474-0.019l-0.792,0.144
			L26.225,73.396z M26.54,75.159l0.909-0.164c0.218-0.04,0.369-0.103,0.451-0.188c0.083-0.087,0.108-0.207,0.08-0.369
			c-0.031-0.16-0.099-0.27-0.203-0.322c-0.106-0.055-0.271-0.061-0.491-0.022l-0.906,0.165L26.54,75.159z"/>
		<path fill="#0FCE7C" d="M31.74,75.161c-0.63,0.114-1.132,0.042-1.516-0.216c-0.378-0.26-0.624-0.694-0.735-1.309l-0.451-2.49
			l1.107-0.2l0.459,2.534c0.055,0.306,0.166,0.53,0.336,0.672c0.166,0.145,0.379,0.191,0.644,0.145
			c0.254-0.046,0.434-0.165,0.541-0.357c0.106-0.192,0.132-0.441,0.077-0.746l-0.461-2.535l1.12-0.204l0.452,2.494
			c0.111,0.604,0.029,1.096-0.24,1.479C32.802,74.805,32.357,75.05,31.74,75.161z"/>
		<path fill="#0FCE7C" d="M34.385,74.626l-0.779-4.308l1.137-0.203l0.78,4.305L34.385,74.626z"/>
		<path fill="#0FCE7C" d="M36.297,74.28l-0.78-4.308l1.76-0.317c0.483-0.089,0.908-0.076,1.282,0.03
			c0.374,0.108,0.681,0.311,0.924,0.598c0.241,0.287,0.401,0.654,0.482,1.103c0.082,0.45,0.061,0.854-0.063,1.209
			c-0.123,0.356-0.34,0.651-0.65,0.884c-0.312,0.233-0.711,0.395-1.194,0.481L36.297,74.28z M37.271,73.167l0.543-0.099
			c0.421-0.075,0.715-0.235,0.885-0.48c0.169-0.246,0.218-0.578,0.143-0.997c-0.15-0.827-0.642-1.165-1.478-1.015l-0.544,0.099
			L37.271,73.167z"/>
		<path fill="#0FCE7C" d="M41.021,73.426l-0.779-4.309l1.139-0.204l0.612,3.386l1.821-0.329l0.167,0.921L41.021,73.426z"/>
		<path fill="#EFF4EE" d="M27.261,80.407l-0.251-1.398l0.251,0.425l-1.867-1.898l0.925-0.165l1.144,1.241l-0.21,0.039l0.649-1.567
			l0.934-0.17l-1.086,2.433l0.083-0.482l0.252,1.396L27.261,80.407z"/>
		<path fill="#EFF4EE" d="M30.703,79.823c-0.32,0.059-0.609,0.043-0.867-0.046c-0.259-0.088-0.471-0.24-0.642-0.455
			c-0.169-0.215-0.284-0.486-0.343-0.812c-0.058-0.322-0.045-0.613,0.04-0.877c0.085-0.262,0.231-0.479,0.44-0.648
			s0.475-0.287,0.794-0.346c0.32-0.058,0.608-0.043,0.863,0.045c0.255,0.086,0.467,0.239,0.637,0.453
			c0.17,0.217,0.285,0.485,0.341,0.809c0.06,0.326,0.047,0.621-0.035,0.883c-0.084,0.262-0.23,0.479-0.437,0.65
			C31.287,79.652,31.023,79.768,30.703,79.823z M30.59,79.2c0.226-0.041,0.394-0.156,0.5-0.343c0.106-0.188,0.128-0.443,0.071-0.766
			c-0.058-0.32-0.169-0.549-0.334-0.686c-0.164-0.139-0.36-0.186-0.587-0.146c-0.227,0.041-0.393,0.152-0.496,0.337
			c-0.106,0.187-0.13,0.439-0.071,0.762c0.06,0.324,0.17,0.559,0.333,0.695C30.168,79.193,30.363,79.243,30.59,79.2z"/>
		<path fill="#EFF4EE" d="M34.103,79.209c-0.453,0.082-0.817,0.03-1.092-0.156c-0.273-0.187-0.451-0.5-0.531-0.941l-0.325-1.799
			l0.798-0.144l0.332,1.827c0.04,0.222,0.122,0.383,0.242,0.486c0.122,0.102,0.275,0.137,0.465,0.104
			c0.183-0.033,0.313-0.119,0.391-0.257c0.077-0.14,0.096-0.319,0.056-0.541l-0.332-1.827l0.808-0.146l0.326,1.797
			c0.079,0.438,0.02,0.793-0.175,1.065C34.869,78.952,34.549,79.129,34.103,79.209z"/>
		<path fill="#EFF4EE" d="M36.013,78.823l-0.562-3.108l1.444-0.262c0.379-0.068,0.677-0.038,0.893,0.092
			c0.218,0.13,0.352,0.342,0.407,0.641c0.05,0.277-0.007,0.522-0.172,0.729c-0.165,0.21-0.423,0.346-0.771,0.408l0.361-0.146
			c0.105-0.019,0.207-0.004,0.309,0.046c0.1,0.049,0.187,0.133,0.259,0.254l0.534,0.856l-0.868,0.158l-0.588-0.964
			c-0.038-0.059-0.09-0.096-0.156-0.111c-0.065-0.014-0.134-0.018-0.204-0.003l-0.297,0.054l0.219,1.209L36.013,78.823z
			 M36.481,76.857l0.516-0.094c0.176-0.029,0.298-0.08,0.367-0.148c0.067-0.067,0.092-0.158,0.069-0.271
			c-0.021-0.119-0.076-0.197-0.161-0.238c-0.086-0.039-0.219-0.039-0.396-0.008l-0.516,0.094L36.481,76.857z"/>
		<path fill="#EFF4EE" d="M41.093,77.902l-0.442-2.442l-0.925,0.167l-0.121-0.664l2.68-0.484l0.119,0.664l-0.925,0.168l0.444,2.443
			L41.093,77.902z"/>
		<path fill="#EFF4EE" d="M43.18,77.525l-0.562-3.106l1.444-0.262c0.378-0.067,0.675-0.038,0.894,0.091
			c0.217,0.128,0.352,0.342,0.405,0.639c0.05,0.279-0.006,0.523-0.171,0.732c-0.166,0.209-0.423,0.345-0.771,0.408l0.362-0.148
			c0.104-0.018,0.208-0.005,0.308,0.047c0.099,0.049,0.186,0.133,0.26,0.252l0.534,0.859l-0.871,0.154l-0.588-0.959
			c-0.038-0.061-0.089-0.1-0.156-0.112c-0.065-0.017-0.132-0.017-0.203-0.005l-0.296,0.056l0.219,1.207L43.18,77.525z
			 M43.649,75.562l0.514-0.095c0.179-0.032,0.301-0.079,0.369-0.149c0.067-0.066,0.09-0.157,0.069-0.271
			c-0.022-0.117-0.075-0.197-0.162-0.236c-0.086-0.037-0.22-0.041-0.397-0.01l-0.514,0.094L43.649,75.562z"/>
		<path fill="#EFF4EE" d="M46.294,76.962l-0.562-3.106l0.821-0.147l0.562,3.106L46.294,76.962z"/>
		<path fill="#EFF4EE" d="M47.675,76.712l-0.563-3.106l1.512-0.271c0.324-0.059,0.594-0.032,0.814,0.076
			c0.219,0.109,0.352,0.29,0.396,0.538c0.03,0.168,0.011,0.325-0.06,0.468c-0.071,0.145-0.19,0.257-0.356,0.338l-0.005-0.034
			c0.213,0.013,0.385,0.075,0.52,0.19c0.135,0.111,0.217,0.271,0.254,0.471c0.047,0.256-0.018,0.48-0.188,0.672
			c-0.17,0.191-0.429,0.32-0.771,0.381L47.675,76.712z M48.13,74.68l0.573-0.104c0.15-0.025,0.259-0.07,0.318-0.13
			c0.062-0.06,0.082-0.139,0.064-0.239c-0.021-0.108-0.068-0.179-0.148-0.216c-0.082-0.036-0.194-0.038-0.342-0.012l-0.574,0.104
			L48.13,74.68z M48.359,75.948l0.654-0.119c0.158-0.028,0.268-0.073,0.325-0.136c0.062-0.062,0.078-0.148,0.06-0.269
			c-0.023-0.112-0.07-0.192-0.146-0.229c-0.078-0.038-0.195-0.045-0.355-0.018L48.243,75.3L48.359,75.948z"/>
		<path fill="#EFF4EE" d="M50.736,76.159l-0.562-3.108l2.22-0.4l0.114,0.629l-1.42,0.258l0.104,0.584l1.328-0.241l0.112,0.63
			l-1.323,0.24l0.114,0.636l1.418-0.258l0.115,0.629L50.736,76.159z"/>
	</g>
</g>
<polygon fill="#15003E" points="43.313,82.67 39.688,85.148 41.501,88.255 45.484,90.212 47.67,86.695 45.178,82.887 "/>
<path fill="#15003E" d="M45.484,90.564c-0.052,0-0.105-0.013-0.155-0.037l-3.983-1.957c-0.062-0.03-0.112-0.079-0.147-0.139
	l-1.814-3.105c-0.093-0.158-0.047-0.362,0.106-0.467l3.625-2.48c0.069-0.048,0.155-0.068,0.24-0.061l1.863,0.219
	c0.104,0.013,0.196,0.068,0.254,0.156l2.494,3.808c0.073,0.116,0.075,0.265,0.004,0.38l-2.187,3.518
	C45.718,90.505,45.603,90.564,45.484,90.564z M41.752,87.984l3.602,1.771l1.899-3.056l-2.28-3.481l-1.568-0.183l-3.247,2.22
	L41.752,87.984z"/>
<path fill="#15003E" d="M42.142,89.723c-0.034,0-0.067-0.004-0.1-0.015l-1.487-0.438c-0.082-0.022-0.15-0.076-0.198-0.146
	l-0.965-1.509c-0.077-0.12-0.074-0.275,0.009-0.395l0.834-1.181c0.062-0.089,0.162-0.142,0.268-0.147
	c0.108-0.006,0.212,0.035,0.282,0.115l2.45,2.733c0.074,0.082,0.105,0.194,0.083,0.304c-0.022,0.107-0.094,0.201-0.194,0.248
	l-0.831,0.396C42.246,89.711,42.192,89.723,42.142,89.723z M40.881,88.631l1.231,0.363l0.282-0.133l-1.838-2.053l-0.442,0.625
	L40.881,88.631z"/>
<g id="Shape_8_" transform="translate(26.000000, 47.000000)">
	<polygon fill="#15003E" points="8.891,35.67 12.517,38.148 10.704,41.255 6.721,43.212 4.536,39.695 7.027,35.887 	"/>
	<path fill="#15003E" d="M6.722,43.564c-0.119,0-0.234-0.062-0.3-0.166L4.236,39.88c-0.072-0.116-0.07-0.264,0.004-0.38l2.494-3.809
		c0.057-0.088,0.15-0.145,0.254-0.155l1.862-0.22c0.084-0.008,0.17,0.014,0.241,0.062l3.625,2.479c0.154,0.104,0.2,0.31,0.106,0.468
		L11.01,41.43c-0.036,0.062-0.086,0.108-0.148,0.139l-3.983,1.959C6.827,43.555,6.773,43.564,6.722,43.564z M4.954,39.699
		l1.897,3.056l3.602-1.771l1.593-2.729L8.8,36.035l-1.569,0.183L4.954,39.699z"/>
	<polygon fill="#15003E" points="11.681,39.244 12.517,40.425 11.55,41.932 10.063,42.37 9.233,41.979 	"/>
	<path fill="#15003E" d="M10.063,42.723c-0.051,0-0.103-0.012-0.15-0.033l-0.831-0.396c-0.101-0.047-0.171-0.14-0.195-0.248
		c-0.022-0.108,0.009-0.222,0.083-0.304l2.449-2.733c0.071-0.079,0.174-0.12,0.282-0.116c0.107,0.008,0.205,0.062,0.268,0.148
		l0.834,1.18c0.083,0.118,0.086,0.273,0.009,0.396l-0.966,1.509c-0.046,0.068-0.115,0.123-0.197,0.146l-1.487,0.438
		C10.131,42.719,10.098,42.723,10.063,42.723z M9.81,41.861l0.283,0.133l1.232-0.363l0.766-1.195l-0.442-0.627L9.81,41.861z"/>
</g>
</svg>
