<?xml version="1.0" encoding="UTF-8"?>
<svg width="209px" height="155px" viewBox="0 0 209 155" version="1.1" xmlns="http://www.w3.org/2000/svg" xmlns:xlink="http://www.w3.org/1999/xlink">
    <!-- Generator: Sketch 55.2 (78181) - https://sketchapp.com -->
    <title>Group 2</title>
    <desc>Created with Sketch.</desc>
    <g id="Page-1" stroke="none" stroke-width="1" fill="none" fill-rule="evenodd">
        <g id="Group-2" transform="translate(-32.000000, -32.000000)">
            <g id="narwhal">
                <path d="M177.202719,73.6212747 C172.718006,65.2226892 161.320534,63.6317699 154.594171,70.3804729 C140.003695,85.0189294 125.426624,99.6709839 110.814975,114.288461 C106.90499,118.199999 100.84496,112.136663 104.753389,108.226875 C119.248969,93.7254666 133.710749,79.1902579 148.185155,64.6676758 C155.17107,57.6584504 153.290148,45.9177044 144.503101,41.3826265 C133.942518,35.9321831 121.958187,32.8542388 109.249425,32.8595764 C66.7178773,32.8774695 32.2248253,67.3707154 32.2069087,109.902069 C32.2069087,109.926361 32.2069087,109.950459 32.2069087,109.974557 C32.2092526,112.719586 35.5808508,114.054828 37.5227193,112.112959 L55.8886191,93.7470592 C59.7993806,89.8362978 65.8594114,95.8994393 61.9502052,99.8086453 L41.553587,120.205069 C36.7146637,125.043993 35.2342482,132.30879 37.786547,138.65306 C41.6708093,148.308101 47.4506671,156.993763 54.6717589,164.244795 C61.3953602,170.996198 72.2858399,171.114246 79.0291083,164.370977 C85.0922953,158.30779 91.1556767,152.244409 97.2188637,146.181222 C101.129625,142.270461 107.189656,148.333602 103.280256,152.242808 C98.0684342,157.454824 92.8564189,162.666645 87.6445976,167.87866 C81.9624741,173.560784 84.7197074,183.359915 92.5630625,185.085062 C99.815295,186.680057 107.451387,187.252282 115.314577,186.639141 C153.684841,183.647295 184.32667,151.971049 186.138913,113.528015 C186.8211,99.059235 183.50462,85.4225443 177.202719,73.6212747 Z" id="Shape" fill="#192C63" fill-rule="nonzero" opacity="0.4" transform="translate(109.216874, 109.869736) rotate(45.000000) translate(-109.216874, -109.869736) "></path>
                <g id="narwhalbot" transform="translate(43.000000, 35.000000)">
                    <path d="M27.7551429,111.744609 L19.8265714,111.744609 C18.9192465,111.744609 18.1837143,112.479364 18.1837143,113.385729 C18.1837143,114.292095 18.9192465,115.02685 19.8265714,115.02685 L27.7551429,115.02685 C28.6624677,115.02685 29.398,114.292095 29.398,113.385729 C29.398,112.479364 28.6624677,111.744609 27.7551429,111.744609 Z M27.2265714,111.744609 C27.2265714,111.744609 32.3694286,103.282135 39.9408571,99.5717759 L24.6551429,81.8762156 C24.6551429,81.8762156 20.2265714,95.6619133 21.0837143,111.744609 L27.2265714,111.744609 Z M25.6551429,78.5936892 L42.3694286,98.4298414 C42.3694286,98.4298414 48.2354286,95.3793552 54.5434286,92.5900211 L39.564,56.8193023 C35.1302857,61.0422622 29.512,68.0174524 25.6551429,78.5936892 Z" id="Shape" stroke="#15003E" stroke-width="1.0" fill="#EFF4EE" fill-rule="nonzero" stroke-linejoin="round"></path>
                    <path d="M20.45,115.02685 C20.45,116.870042 21.9457143,118.36389 23.7905714,118.36389 C25.6357143,118.36389 27.1311429,116.870042 27.1314286,115.02685 L20.45,115.02685 Z" id="Shape" stroke="#15003E" stroke-width="1.0" fill="#15003E" fill-rule="nonzero" stroke-linejoin="round"></path>
                    <path d="M19.0837143,118.36389 L28.2265714,118.36389" id="Shape" stroke="#15003E" stroke-width="1.0" stroke-linecap="round" stroke-linejoin="round"></path>
                    <path d="M91.0837143,83.2316385 C96.0122857,82.4230655 108.607429,77.7137632 113.402,72.6408457 L91.1808571,72.6408457 L91.0837143,83.2316385 Z" id="Shape" fill="#15003E" fill-rule="nonzero"></path>
                    <path d="M93.1162857,72.6408457 L115.763714,72.6408457 L115.747143,72.6248626 C118.921714,69.5840803 121.083714,65.4795666 121.083714,59.8623679 C121.083714,35.2800951 93.798,36.7708034 93.798,36.7708034 L93.5551429,49.5395772 L95.2362857,49.6214905 L95.2265714,56.8193023 L93.416,56.867537 L93.1162857,72.6408457 Z M48.5122857,49.5395772 C48.5122857,49.5395772 66.5122857,36.760814 91.0837143,36.7707915 L91.0837143,82.5894609 C91.0837143,82.5894609 77.452,83.4491226 63.2265714,89.296649 L48.5122857,49.5395772 Z" id="Shape" stroke="#15003E" stroke-width="1.0" fill="#EFF4EE" fill-rule="nonzero" stroke-linecap="round" stroke-linejoin="round"></path>
                    <path d="M60.9222857,90.077537 L46.438,51.1963953 M58.7437143,90.9654545 L44.018,53.1748732 M56.4634286,91.8259725 L41.9408571,55.3325899" id="Shape" stroke="#25E899" stroke-width="1.0" stroke-linecap="round" stroke-linejoin="round"></path>
                    <ellipse id="Oval" stroke="#15003E" stroke-width="1.0" fill="#15003E" fill-rule="nonzero" stroke-linecap="round" stroke-linejoin="round" cx="80.162" cy="74.3458985" rx="5.14285714" ry="5.13742072"></ellipse>
                    <ellipse id="Oval" stroke="#15003E" stroke-width="1.0" stroke-linecap="round" stroke-linejoin="round" cx="79.7122857" cy="73.4128858" rx="8.27285714" ry="8.26411205"></ellipse>
                    <path d="M78.3048571,74.3458985 L82.4477143,73.4126004 C82.4477143,73.4126004 87.6382857,89.3300423 72.9874286,101.192632 C67.0191429,105.646205 61.2097143,96.4179704 68.3048571,92.0414588 C68.3048571,92.0414588 79.3048571,85.4769767 78.3048571,74.3458985 Z" id="Shape" stroke="#15003E" stroke-width="1.0" fill="#EFF4EE" fill-rule="nonzero" stroke-linecap="round" stroke-linejoin="round"></path>
                    <path d="M76.5968571,83.0541121 L82.8277143,84.1055708 M74.3025714,86.6166279 L80.5774286,91.6073467 M80.162,73.9277696 C80.162,73.9277696 81.1082857,78.9661522 79.7122857,83.5798414" id="Shape" stroke="#15003E" stroke-width="1.0" stroke-linecap="round" stroke-linejoin="round"></path>
                    <ellipse id="Oval" stroke="#15003E" stroke-width="1.0" fill="#FFCE08" fill-rule="nonzero" stroke-linecap="round" stroke-linejoin="round" cx="70.1842857" cy="96.1799366" rx="1.87914286" ry="1.87715645"></ellipse>
                    <path d="M69.036,94.6960782 C69.036,94.6960782 72.3525714,92.6599471 74.3025714,90.5170719 L76.3891429,92.3556977 C76.3891429,92.3556977 73.8428571,96.0868922 71.1125714,97.8104968" id="Shape" stroke="#15003E" stroke-width="1.0" stroke-linecap="round" stroke-linejoin="round"></path>
                    <polyline id="Shape" fill="#15003E" fill-rule="nonzero" points="32.678 86.9282981 48.34 77.7765539 54.5434286 92.5900211 42.3694286 98.4298414 32.7725714 87.0404651"></polyline>
                    <ellipse id="Oval" stroke="#15003E" stroke-width="1.0" fill="#25E899" fill-rule="nonzero" stroke-linecap="round" stroke-linejoin="round" cx="40.3771429" cy="82.4561734" rx="3.75" ry="3.74603594"></ellipse>
                    <ellipse id="Oval" stroke="#15003E" stroke-width="1.0" fill="#0FCE7C" fill-rule="nonzero" stroke-linecap="round" stroke-linejoin="round" cx="94.1354286" cy="60.885" rx="6.19457143" ry="6.18802326"></ellipse>
                    <ellipse id="Oval" fill="#FFFFFF" fill-rule="nonzero" cx="96.4237143" cy="58.6664905" rx="1.19714286" ry="1.19587738"></ellipse>
                    <ellipse id="Oval" fill="#0FCE7C" fill-rule="nonzero" cx="53.2422857" cy="50.83963" rx="1.30142857" ry="1.30005285"></ellipse>
                    <ellipse id="Oval" fill="#0FCE7C" fill-rule="nonzero" cx="56.3694286" cy="49.5013319" rx="1.30142857" ry="1.30005285"></ellipse>
                    <ellipse id="Oval" stroke="#15003E" stroke-width="1.0" fill="#FFCE08" fill-rule="nonzero" stroke-linecap="round" stroke-linejoin="round" cx="29.9902857" cy="95.2686152" rx="2.12085714" ry="2.11861522"></ellipse>
                    <path d="M28.6528571,97.1454863 C28.6528571,97.1454863 26.7028571,100.427727 25.6551429,105.338816" id="Shape" stroke="#15003E" stroke-width="1.0" fill="#F1F2F2" fill-rule="nonzero" stroke-linecap="round" stroke-linejoin="round"></path>
                    <path d="M21.0188571,104.840772 L30.4571429,107.386364 M21.0188571,107.872135 L28.8251429,109.433626 M19.7477143,120.406586 L27.2768571,120.406586 M19.1551429,122.761237 L27.8694286,122.761237" id="Shape" stroke="#15003E" stroke-width="1.0" stroke-linecap="round" stroke-linejoin="round"></path>
                    <path d="M19.7077143,122.761237 C19.3472088,123.352456 19.1560747,124.031183 19.1551429,124.723446 C19.1551429,126.949947 21.106,128.754894 23.5122857,128.754894 C25.9185714,128.754894 27.8694286,126.949947 27.8694286,124.723446 C27.8694286,124.010772 27.6677143,123.342051 27.3168571,122.761237 L19.7077143,122.761237 Z" id="Shape" stroke="#15003E" stroke-width="1.0" fill="#EFF4EE" fill-rule="nonzero" stroke-linecap="round" stroke-linejoin="round"></path>
                    <path d="M27.8694286,124.47371 C27.8694286,124.47371 45.5837143,117.837875 49.1551429,122.190412 C52.7265714,126.542949 47.4825714,134.535634 41.9408571,131.68037 C34.3694286,127.779641 26.1091429,127.960592 26.1091429,127.960592 C26.1091429,127.960592 28.2265714,126.923404 27.8694286,124.47371 Z M19.0605714,125.045106 C19.0605714,125.045106 13.1314286,127.399186 6.08371429,125.758066 C-1.08828571,124.087833 -1.42828571,132.956163 2.65514286,134.43945 C7.89314286,136.342294 22.3337143,128.604482 22.3337143,128.604482 C22.3337143,128.604482 19.1551429,128.041364 19.0605714,125.045106 Z M111.906,46.5613002 C109.990857,47.7548943 109.406571,50.2728013 110.601143,52.1856342 C111.795714,54.0984672 114.316286,54.6821353 116.231429,53.4891121 L141.690857,35.8252326 C141.690857,35.8252326 142.419429,35.4841649 141.845143,34.6110888 C141.444857,34.0023044 140.439714,32.4776321 140.113714,32.0064165 C139.656571,31.3439746 138.713143,31.7184355 138.713143,31.7184355 L111.906,46.5613002 Z" id="Shape" stroke="#15003E" stroke-width="1.0" fill="#EFF4EE" fill-rule="nonzero" stroke-linecap="round" stroke-linejoin="round"></path>
                    <g id="Group" transform="translate(140.571429, 25.687104)">
                        <path d="M0.036,7.06737844 L2.16742857,5.6514482 M6.98514286,2.45112051 L10.2565714,0.277991543" id="Shape" stroke="#15003E"></path>
                        <polyline id="Shape" stroke="#25E899" points="2.16742857 5.6514482 3.41657143 4.82146934 5.49628571 4.98244186 5.85514286 3.20146934 7.75828571 1.93709302"></polyline>
                    </g>
                    <path d="M141.673143,34.1230338 L144.226,32.4271142 M116.055143,53.5924313 L114.56,51.2894397 M117.556857,52.5695137 L116.055143,50.3378753 M119.121429,42.5663848 L124.274286,43.3452748 L129.702857,40.2534038 L128.235714,37.5200106 M85.1011429,37.1401268 L85.7474286,49.6252008" id="Shape" stroke="#15003E" stroke-width="1.0" stroke-linecap="round" stroke-linejoin="round"></path>
                    <ellipse id="Oval" fill="#15003E" fill-rule="nonzero" cx="85.7571429" cy="50.2762262" rx="1.11685714" ry="1.11567653"></ellipse>
                    <path d="M66.9714286,87.5821776 L62.7217143,75.5586152" id="Shape" stroke="#15003E" stroke-width="1.0" stroke-linecap="round" stroke-linejoin="round"></path>
                    <ellipse id="Oval" fill="#15003E" fill-rule="nonzero" cx="62.6311429" cy="75.3028858" rx="1.11685714" ry="1.11567653"></ellipse>
                    <path d="M93.5551429,49.5395772 C93.5551429,49.5395772 97.3514286,49.4080021 100.649714,51.2035307" id="Shape" stroke="#15003E" stroke-width="1.0" stroke-linecap="round"></path>
                    <g id="Group" stroke-linecap="round" stroke-linejoin="round" transform="translate(154.857143, 9.418605)" stroke="#F09BB0" stroke-width="1.0">
                        <polygon id="Shape" points="17.212 13.970074 22.9311429 0.813424947 8.59228571 0.0550845666 9.48742857 9.12348837"></polygon>
                        <path d="M5.86371429,2.18939746 L0.0928571429,14.9307717 L14.0828571,15.4567865 L6.73371429,10.8259725 L5.86371429,2.18939746 Z M22.9311429,0.813424947 L9.48742857,9.12348837 L22.9311429,0.813424947 Z M6.73371429,10.8259725 L0.0928571429,14.9307717 L6.73371429,10.8259725 Z M8.59228571,0.0550845666 L16.2094286,4.96845666 L17.212,13.970074 L8.59228571,0.0550845666 Z" id="Shape"></path>
                    </g>
                    <g id="Group" stroke-linecap="round" transform="translate(155.428571, 37.674419)" stroke="#F9EA78" stroke-width="1.0">
                        <path d="M3.36657143,0.0328224101 L2.31685714,5.48391121 M0.132571429,2.23734672 L5.55142857,3.27938689" id="Shape"></path>
                    </g>
                    <g id="Group" stroke-linecap="round" transform="translate(173.142857, 0.000000)" stroke="#F9EA78" stroke-width="1.0">
                        <path d="M2.74742857,0.161828753 L3.04142857,5.70539112 M0.138857143,3.07902748 L5.64971429,2.78904863" id="Shape"></path>
                    </g>
                    <ellipse id="Oval" fill="#F9EA78" fill-rule="nonzero" cx="196.556857" cy="15.1548203" rx="1.20514286" ry="1.16961945"></ellipse>
                    <ellipse id="Oval" fill="#F9EA78" fill-rule="nonzero" cx="144.788" cy="11.6080021" rx="1.20514286" ry="1.16961945"></ellipse>
                    <ellipse id="Oval" fill="#F09BB0" fill-rule="nonzero" cx="136.845143" cy="25.9648097" rx="1" ry="1"></ellipse>
                    <ellipse id="Oval" fill="#F09BB0" fill-rule="nonzero" cx="180.861143" cy="23.6826533" rx="1" ry="1"></ellipse>
                    <ellipse id="Oval" fill="#F09BB0" fill-rule="nonzero" cx="157.058857" cy="33.4563108" rx="1" ry="1"></ellipse>
                </g>
            </g>
            <g id="Group" transform="translate(159.000000, 142.000000)" fill-rule="nonzero">
                <path d="M2.6,17.2 L4.2,16.3 L4.3,16.4 C4.5,16.7 4.6,17 4.6,17.2 C4.6,17.4 4.6,17.7 4.6,18 C4.5,18.6 4.1,19.1 3.6,19.4 C3.1,19.7 2.5,19.8 1.9,19.6 C1.3,19.4 0.8,19.1 0.5,18.5 C0.2,18 0.1,17.4 0.3,16.8 C0.5,16.2 0.8,15.7 1.4,15.4 C1.7,15.2 2,15.1 2.3,15.1 C2.6,15.1 3,15.1 3.4,15.3 L3.2,15.9 C2.7,15.7 2.2,15.7 1.7,15.9 C1.3,16.1 1,16.5 0.9,16.9 C0.8,17.3 0.8,17.7 1.1,18.2 C1.3,18.6 1.7,18.9 2.2,19 C2.6,19.1 3,19 3.3,18.8 C3.6,18.6 3.8,18.4 3.9,18.1 C4,17.8 4,17.5 3.9,17.2 L3,17.7 L2.6,17.2 Z" id="Path" fill="#FFFFFF"></path>
                <rect id="Rectangle" fill="#FFFFFF" transform="translate(6.534075, 15.000940) rotate(-29.946709) translate(-6.534075, -15.000940) " x="6.18407099" y="12.8009148" width="1" height="4.40005036"></rect>
                <polygon id="Path" fill="#FFFFFF" points="9.3 11.6 11.2 14.9 10.6 15.2 8.7 12 7.9 12.5 7.6 11.9 9.9 10.6 10.2 11.1"></polygon>
                <path d="M14.5,8.2 L14.9,8.9 C14.4,8.8 14,8.9 13.6,9.1 C13.2,9.3 13,9.7 12.9,10.1 C12.8,10.5 12.9,11 13.1,11.4 C13.3,11.8 13.7,12.1 14.1,12.2 C14.5,12.3 14.9,12.3 15.3,12 C15.5,11.9 15.7,11.8 15.8,11.6 C15.9,11.5 15.9,11.4 16,11.3 C16.1,11.2 16.1,11.1 16.2,10.9 L16.6,11.6 C16.4,12 16.1,12.3 15.7,12.5 C15.2,12.8 14.6,12.9 14,12.7 C13.4,12.5 12.9,12.2 12.6,11.7 C12.3,11.2 12.2,10.7 12.3,10.1 C12.4,9.4 12.8,8.9 13.4,8.5 C13.7,8.3 14,8.2 14.5,8.2" id="Path" fill="#FFFFFF"></path>
                <path d="M17.2,8 C16.9,7.5 16.8,6.9 17,6.3 C17.2,5.7 17.5,5.2 18.1,4.9 C18.6,4.6 19.2,4.5 19.8,4.7 C20.4,4.9 20.9,5.2 21.2,5.8 C21.5,6.3 21.6,6.9 21.4,7.5 C21.2,8.1 20.9,8.6 20.3,8.9 C19.8,9.2 19.3,9.3 18.7,9.2 C18.1,9 17.6,8.7 17.2,8 M17.8,7.7 C18,8.1 18.4,8.4 18.8,8.5 C19.2,8.6 19.6,8.6 20,8.3 C20.4,8.1 20.7,7.7 20.8,7.3 C20.9,6.9 20.9,6.4 20.6,6 C20.4,5.6 20,5.3 19.6,5.2 C19.2,5.1 18.8,5.1 18.4,5.4 C18,5.6 17.8,6 17.6,6.4 C17.5,6.9 17.6,7.3 17.8,7.7" id="Shape" fill="#25E899"></path>
                <rect id="Rectangle" fill="#FFFFFF" transform="translate(23.567915, 5.277365) rotate(-29.967323) translate(-23.567915, -5.277365) " x="23.2179192" y="3.07739147" width="1" height="4.39994707"></rect>
                <polygon id="Path" fill="#FFFFFF" points="27.1 5.7 24.8 1.7 29.2 3 27.7 0.3 28.3 0 30.6 4 26.2 2.7 27.7 5.4"></polygon>
            </g>
        </g>
    </g>
</svg>