<svg id="Layer_1" data-name="Layer 1" xmlns="http://www.w3.org/2000/svg" viewBox="0 0 4998.69 4758.08"><defs><style>.cls-1{fill:#2d1a61;}.cls-2{fill:#263b6e;stroke-width:0.2px;}.cls-2,.cls-3,.cls-4,.cls-5,.cls-6,.cls-7{stroke:#fff;}.cls-11,.cls-12,.cls-13,.cls-2,.cls-3,.cls-4,.cls-5,.cls-6,.cls-7,.cls-9{stroke-miterlimit:10;}.cls-3{fill:#1f5d7a;stroke-width:0.39px;}.cls-4{fill:#187e87;stroke-width:0.59px;}.cls-5{fill:#109f93;stroke-width:0.79px;}.cls-6{fill:#09c19f;stroke-width:0.98px;}.cls-13,.cls-7,.cls-8{fill:#02e2ac;}.cls-7{stroke-width:1.18px;}.cls-11,.cls-12,.cls-9{fill:none;}.cls-9{stroke:#2d1a61;stroke-width:11.15px;}.cls-10{fill:#0b023d;}.cls-11{stroke:#00b949;}.cls-11,.cls-12,.cls-13{stroke-width:40px;}.cls-12,.cls-13{stroke:#0b0035;}</style></defs><title>DESAIN SHWAG FINAL</title><g id="_1" data-name="1"><rect class="cls-1" x="67.24" y="1443.88" width="65.01" height="343.64"/><rect class="cls-1" x="206.75" y="1443.83" width="65.01" height="343.64"/><rect class="cls-1" x="457.17" y="1846.01" width="65.01" height="343.64"/><rect class="cls-1" x="596.67" y="1845.97" width="65.01" height="343.64"/><rect class="cls-1" x="835.8" y="1445.92" width="65.01" height="343.64"/><rect class="cls-1" x="975.3" y="1445.87" width="65.01" height="343.64"/><rect class="cls-1" x="1222.33" y="1066.17" width="65.01" height="343.64"/><rect class="cls-1" x="1361.83" y="1066.12" width="65.01" height="343.64"/><rect class="cls-1" x="835.8" y="679.64" width="65.01" height="343.64"/><rect class="cls-1" x="975.3" y="679.59" width="65.01" height="343.64"/><rect class="cls-1" x="456.05" y="2612.29" width="65.01" height="343.64"/><rect class="cls-1" x="595.55" y="2612.25" width="65.01" height="343.64"/><rect class="cls-1" x="449.27" y="3378.57" width="65.01" height="343.64"/><rect class="cls-1" x="588.77" y="3378.53" width="65.01" height="343.64"/><rect class="cls-1" x="835.8" y="2225.76" width="65.01" height="343.64"/><rect class="cls-1" x="975.3" y="2225.72" width="65.01" height="343.64"/><rect class="cls-1" x="842.58" y="2998.82" width="65.01" height="343.64"/><rect class="cls-1" x="982.08" y="2998.78" width="65.01" height="343.64"/><rect class="cls-1" x="842.58" y="3765.1" width="65.01" height="343.64"/><rect class="cls-1" x="982.08" y="3765.06" width="65.01" height="343.64"/><rect class="cls-1" x="1611" y="3765.1" width="65.01" height="343.64"/><rect class="cls-1" x="1750.5" y="3765.06" width="65.01" height="343.64"/><rect class="cls-1" x="1222.13" y="1845.92" width="65.01" height="343.64"/><rect class="cls-1" x="1361.63" y="1845.87" width="65.01" height="343.64"/><rect class="cls-1" x="1222.13" y="2612.2" width="65.01" height="343.64"/><rect class="cls-1" x="1361.63" y="2612.15" width="65.01" height="343.64"/><rect class="cls-1" x="1222.13" y="3378.48" width="65.01" height="343.64"/><rect class="cls-1" x="1361.63" y="3378.43" width="65.01" height="343.64"/><rect class="cls-1" x="1222.13" y="4158.32" width="65.01" height="343.64"/><rect class="cls-1" x="1361.63" y="4158.27" width="65.01" height="343.64"/><rect class="cls-1" x="2002.58" y="4158.45" width="65.01" height="343.64"/><rect class="cls-1" x="2142.08" y="4158.4" width="65.01" height="343.64"/><rect class="cls-1" x="1609.27" y="1459.51" width="65.01" height="343.64"/><rect class="cls-1" x="1748.77" y="1459.47" width="65.01" height="343.64"/><rect class="cls-1" x="1602.49" y="679.67" width="65.01" height="343.64"/><rect class="cls-1" x="1741.99" y="679.62" width="65.01" height="343.64"/><rect class="cls-1" x="1995.8" y="1059.42" width="65.01" height="343.64"/><rect class="cls-1" x="2135.3" y="1059.37" width="65.01" height="343.64"/><rect class="cls-1" x="1989.02" y="3371.82" width="65.01" height="343.64"/><rect class="cls-1" x="2128.52" y="3371.78" width="65.01" height="343.64"/><rect class="cls-1" x="2375.55" y="3765.13" width="65.01" height="343.64"/><rect class="cls-1" x="2515.05" y="3765.09" width="65.01" height="343.64"/><rect class="cls-1" x="2382.33" y="666.11" width="65.01" height="343.64"/><rect class="cls-1" x="2521.83" y="666.06" width="65.01" height="343.64"/><rect class="cls-1" x="1609.36" y="2978.45" width="65.01" height="343.64"/><rect class="cls-1" x="1748.87" y="2978.4" width="65.01" height="343.64"/></g><g id="_2" data-name="2"><rect class="cls-1" x="146.2" y="2050.52" width="65.01" height="343.64" transform="translate(-2046.92 2250.92) rotate(-90)"/><rect class="cls-1" x="146.15" y="1911.02" width="65.01" height="343.64" transform="translate(-1907.47 2111.37) rotate(-90)"/><rect class="cls-1" x="142.65" y="2825.18" width="65.01" height="343.64" transform="translate(-2825.13 3022.03) rotate(-90)"/><rect class="cls-1" x="142.6" y="2685.68" width="65.01" height="343.64" transform="translate(-2685.68 2882.48) rotate(-90)"/><rect class="cls-1" x="529.18" y="3211.71" width="65.01" height="343.64" transform="translate(-2825.13 3795.09) rotate(-90)"/><rect class="cls-1" x="529.14" y="3072.21" width="65.01" height="343.64" transform="translate(-2685.68 3655.54) rotate(-90)"/><rect class="cls-1" x="529.43" y="3978.78" width="65.01" height="343.64" transform="translate(-3591.95 4562.41) rotate(-90)"/><rect class="cls-1" x="529.39" y="3839.28" width="65.01" height="343.64" transform="translate(-3452.5 4422.86) rotate(-90)"/><rect class="cls-1" x="529.18" y="2445.43" width="65.01" height="343.64" transform="translate(-2058.85 3028.81) rotate(-90)"/><rect class="cls-1" x="529.14" y="2305.93" width="65.01" height="343.64" transform="translate(-1919.4 2889.26) rotate(-90)"/><rect class="cls-1" x="529.18" y="1672.37" width="65.01" height="343.64" transform="translate(-1285.79 2255.75) rotate(-90)"/><rect class="cls-1" x="529.14" y="1532.87" width="65.01" height="343.64" transform="translate(-1146.34 2116.2) rotate(-90)"/><rect class="cls-1" x="908.93" y="2058.9" width="65.01" height="343.64" transform="translate(-1292.57 3022.03) rotate(-90)"/><rect class="cls-1" x="908.88" y="1919.4" width="65.01" height="343.64" transform="translate(-1153.12 2882.48) rotate(-90)"/><rect class="cls-1" x="908.93" y="1285.84" width="65.01" height="343.64" transform="translate(-519.51 2248.97) rotate(-90)"/><rect class="cls-1" x="908.88" y="1146.34" width="65.01" height="343.64" transform="translate(-380.06 2109.42) rotate(-90)"/><rect class="cls-1" x="908.93" y="2825.18" width="65.01" height="343.64" transform="translate(-2058.85 3788.31) rotate(-90)"/><rect class="cls-1" x="908.88" y="2685.68" width="65.01" height="343.64" transform="translate(-1919.4 3648.76) rotate(-90)"/><rect class="cls-1" x="908.93" y="3605.02" width="65.01" height="343.64" transform="translate(-2838.7 4568.15) rotate(-90)"/><rect class="cls-1" x="908.88" y="3465.52" width="65.01" height="343.64" transform="translate(-2699.24 4428.6) rotate(-90)"/><rect class="cls-1" x="1295.46" y="3984.77" width="65.01" height="343.64" transform="translate(-2831.91 5334.43) rotate(-90)"/><rect class="cls-1" x="1295.41" y="3845.27" width="65.01" height="343.64" transform="translate(-2692.46 5194.88) rotate(-90)"/><rect class="cls-1" x="1295.46" y="3218.49" width="65.01" height="343.64" transform="translate(-2065.63 4568.15) rotate(-90)"/><rect class="cls-1" x="1295.41" y="3078.99" width="65.01" height="343.64" transform="translate(-1926.18 4428.6) rotate(-90)"/><rect class="cls-1" x="1295.46" y="2438.65" width="65.01" height="343.64" transform="translate(-1285.79 3788.31) rotate(-90)"/><rect class="cls-1" x="1295.41" y="2299.15" width="65.01" height="343.64" transform="translate(-1146.34 3648.76) rotate(-90)"/><rect class="cls-1" x="1295.46" y="1672.37" width="65.01" height="343.64" transform="translate(-519.51 3022.03) rotate(-90)"/><rect class="cls-1" x="1295.41" y="1532.87" width="65.01" height="343.64" transform="translate(-380.06 2882.48) rotate(-90)"/><rect class="cls-1" x="529.18" y="899.31" width="65.01" height="343.64" transform="translate(-512.73 1482.69) rotate(-90)"/><rect class="cls-1" x="529.14" y="759.81" width="65.01" height="343.64" transform="translate(-373.28 1343.14) rotate(-90)"/><rect class="cls-1" x="1295.46" y="899.28" width="65.01" height="343.64" transform="translate(253.58 2248.94) rotate(-90)"/><rect class="cls-1" x="1295.41" y="759.78" width="65.01" height="343.64" transform="translate(393.03 2109.39) rotate(-90)"/><rect class="cls-1" x="1681.99" y="505.97" width="65.01" height="343.64" transform="translate(1033.42 2242.16) rotate(-90)"/><rect class="cls-1" x="1681.95" y="366.46" width="65.01" height="343.64" transform="translate(1172.88 2102.61) rotate(-90)"/><rect class="cls-1" x="1681.99" y="1292.59" width="65.01" height="343.64" transform="translate(246.8 3028.78) rotate(-90)"/><rect class="cls-1" x="1681.95" y="1153.09" width="65.01" height="343.64" transform="translate(386.25 2889.23) rotate(-90)"/><rect class="cls-1" x="2068.52" y="892.5" width="65.01" height="343.64" transform="translate(1033.42 3015.22) rotate(-90)"/><rect class="cls-1" x="2068.48" y="752.99" width="65.01" height="343.64" transform="translate(1172.88 2875.67) rotate(-90)"/><rect class="cls-1" x="2455.59" y="1288.89" width="65.01" height="343.64" transform="translate(1024.1 3798.68) rotate(-90)"/><rect class="cls-1" x="2455.54" y="1149.39" width="65.01" height="343.64" transform="translate(1163.55 3659.13) rotate(-90)"/><rect class="cls-1" x="1681.99" y="3598.21" width="65.01" height="343.64" transform="translate(-2058.82 5334.4) rotate(-90)"/><rect class="cls-1" x="1681.95" y="3458.71" width="65.01" height="343.64" transform="translate(-1919.37 5194.85) rotate(-90)"/><rect class="cls-1" x="2068.52" y="3977.96" width="65.01" height="343.64" transform="translate(-2052.04 6100.68) rotate(-90)"/><rect class="cls-1" x="2068.48" y="3838.46" width="65.01" height="343.64" transform="translate(-1912.59 5961.13) rotate(-90)"/><rect class="cls-1" x="1681.99" y="4371.27" width="65.01" height="343.64" transform="translate(-2831.88 6107.46) rotate(-90)"/><rect class="cls-1" x="1681.95" y="4231.77" width="65.01" height="343.64" transform="translate(-2692.43 5967.91) rotate(-90)"/></g><path class="cls-1" d="M2596.1,150.13c1266.72,36.08,2286.47,997.09,2396.09,2145.18C5116.43,3596.5,4044.4,4853.13,2596.1,4908.21Z" transform="translate(-3.29 -150.13)"/><path class="cls-2" d="M2595.1,318.41C3768.79,358.77,4711.22,1250.31,4813.91,2315c116.56,1208.37-873.73,2377-2217.81,2437V787" transform="translate(-3.29 -150.13)"/><path class="cls-3" d="M2594.11,486.69c1080.66,44.64,1945.76,866.71,2041.52,1848C4744.52,3450.27,3836,4531,2596.1,4595.87v-3172" transform="translate(-3.29 -150.13)"/><path class="cls-4" d="M2593.12,655c987.62,48.9,1775.4,801.51,1864.24,1699.46,101.2,1022.71-725.62,2015.48-1861.26,2085.26v-2379" transform="translate(-3.29 -150.13)"/><path class="cls-5" d="M2592.12,823.26c894.59,53.18,1605.06,736.32,1687,1550.89,93.53,929.89-651.56,1834.7-1683,1909.39v-1586" transform="translate(-3.29 -150.13)"/><path class="cls-6" d="M2591.13,991.55c801.55,57.45,1434.7,671.12,1509.67,1402.3,85.85,837.07-577.49,1653.93-1504.7,1733.52v-793" transform="translate(-3.29 -150.13)"/><path class="cls-7" d="M2590.14,1159.83c708.52,61.73,1264.34,605.93,1332.38,1253.73C4000.7,3157.8,3419.09,3886.7,2596.1,3971.2" transform="translate(-3.29 -150.13)"/><path class="cls-8" d="M2554.69,3769.93v-486L1953.42,2949.4V2610.34H1512.64v535.72Z" transform="translate(-3.29 -150.13)"/><path class="cls-8" d="M2551.22,1362.59v486L1950,2183.12v339.06H1509.17V1986.47Z" transform="translate(-3.29 -150.13)"/><path class="cls-1" d="M2635,1362.59v486l601.27,334.54v339.06H3677V1986.47Z" transform="translate(-3.29 -150.13)"/><path class="cls-1" d="M2640.32,3769.93v-486l601.27-334.54V2610.34h440.78v535.72Z" transform="translate(-3.29 -150.13)"/><polygon class="cls-9" points="2595.09 3019.87 2072.77 2715.57 2070.49 2111.09 2590.53 1810.9 3112.84 2115.2 3115.12 2719.69 2595.09 3019.87"/><rect class="cls-10" x="2616.41" y="2042.61" width="30.58" height="226.02" rx="15.29"/><g id="pacman"><path class="cls-11" d="M2764.65,2447.64c19.81-5.39,69.38,51,69,111.09s-50.59,116.92-70.07,111.11c-4.39-1.3-7.18-5.79-9-10.59-17-20.53-30.51-37-39.81-48.3-37.87-46.22-36.51-45.36-37.86-46.27-3.42-2.33-10.66-6.85-10.6-13,.06-6.39,8.08-10.79,13.62-14.37,1.27-.82-.24.11,36-38,34.82-36.6,33.21-34.31,37.1-39.14C2761,2450.4,2761.51,2448.5,2764.65,2447.64Z" transform="translate(-3.29 -150.13)"/><path id="mouth" class="cls-12" d="M2528.18,2832.67c-87.4-32.47-186.84-136.06-181.39-266.87,5.87-141,130.89-253.21,261.71-261.86,115.79-7.66,199,62.38,216.08,77.43-23.17,26.06-71.52,78.84-71.52,78.84l-86.73,91.51,80.64,98.56s12.79,15.16,74.85,87.53q.29,10.23.43,20.65c.38,29.22-.21,57.52-1.58,84.84a869.56,869.56,0,0,1-106.36,8C2651.4,2852.14,2583.1,2853.07,2528.18,2832.67Z" transform="translate(-3.29 -150.13)"/><ellipse class="cls-13" cx="2637.03" cy="2413.77" rx="67.71" ry="62.65"/></g><rect class="cls-10" x="2527.55" y="2043.96" width="30.58" height="226.02" rx="15.29"/><path class="cls-7" d="M1744.27,1221" transform="translate(-3.29 -150.13)"/></svg>