<?xml version="1.0" encoding="utf-8"?>
<!-- Generator: Adobe Illustrator 23.0.3, SVG Export Plug-In . SVG Version: 6.00 Build 0)  -->
<svg version="1.1" id="Layer_1_1_" xmlns="http://www.w3.org/2000/svg" xmlns:xlink="http://www.w3.org/1999/xlink" x="0px" y="0px"
	 viewBox="0 0 350 350" style="enable-background:new 0 0 350 350;" xml:space="preserve">
<style type="text/css">
	.st0{fill:none;}
	.st1{fill:none;stroke:#24E998;stroke-width:1.5;stroke-linecap:square;}
	.st2{fill:#0FCE7D;}
	.st3{fill:#FFFFFF;stroke:#13003D;stroke-width:2;stroke-miterlimit:10;}
	.st4{stroke:#13003D;stroke-width:2;stroke-miterlimit:10;}
	.st5{fill:#FFCE08;stroke:#13003D;stroke-width:2;stroke-miterlimit:10;}
	.st6{fill:#FA036A;stroke:#13003D;stroke-width:2;stroke-miterlimit:10;}
	.st7{fill:#8E28BF;stroke:#13003D;stroke-width:2;stroke-miterlimit:10;}
	.st8{fill:#3D01FF;stroke:#13003D;stroke-width:2;stroke-miterlimit:10;}
	.st9{fill:#13003D;stroke:#13003D;stroke-width:2;stroke-miterlimit:10;}
	.st10{fill:url(#Waves_Smooth_Color);stroke:#13003D;stroke-width:2;stroke-miterlimit:10;}
	.st11{fill:none;stroke:#13003D;stroke-width:2;stroke-miterlimit:10;}
	.st12{fill:#24E998;stroke:#13003D;stroke-width:2;stroke-miterlimit:10;}
	.st13{fill:#24E998;stroke:#24E998;stroke-width:3;stroke-miterlimit:10;}
	.st14{fill:none;stroke:#13003D;stroke-width:3;stroke-miterlimit:10;}
	.st15{fill:#0FCE7D;stroke:#13003D;stroke-width:2;stroke-miterlimit:10;}
	.st16{fill:#FFFFFF;stroke:#24E998;stroke-width:3;stroke-miterlimit:10;}
	.st17{fill:#FFFFFF;stroke:#13003D;stroke-width:3;stroke-miterlimit:10;}
	.st18{fill:none;stroke:#FFCE08;stroke-width:3;stroke-linecap:round;stroke-miterlimit:10;}
	.st19{fill:#FFCE08;stroke:#13003D;stroke-width:2;stroke-linecap:round;stroke-miterlimit:10;}
	.st20{fill:#FFCE08;stroke:#FFCE08;stroke-width:3;stroke-linecap:round;stroke-miterlimit:10;}
	.st21{fill:#3D01FF;stroke:#3D01FF;stroke-width:3;stroke-linecap:round;stroke-miterlimit:10;}
	.st22{fill:#8E28BF;stroke:#8E28BF;stroke-width:3;stroke-linecap:round;stroke-miterlimit:10;}
	.st23{fill:#FA036A;stroke:#FA036A;stroke-width:3;stroke-linecap:round;stroke-miterlimit:10;}
	.st24{fill:#24E998;stroke:#24E998;stroke-width:3;stroke-linecap:round;stroke-miterlimit:10;}
</style>
<pattern  width="109.1" height="103.2" patternUnits="userSpaceOnUse" id="Waves_Smooth_Color" viewBox="109.9 -114.8 109.1 103.2" style="overflow:visible;">
	<g>
		<rect x="109.9" y="-114.8" class="st0" width="109.1" height="103.2"/>
		<g>
			<path class="st1" d="M328.1-6.7c-6.2,0-10.8-1.3-13.6-2.1c-2.8-0.8-7.5-2.1-13.6-2.1c-6.2,0-10.8,1.3-13.6,2.1
				c-2.8,0.8-7.5,2.1-13.6,2.1c-6.2,0-10.8-1.3-13.6-2.1c-2.8-0.8-7.5-2.1-13.6-2.1c-6.2,0-10.8,1.3-13.6,2.1
				c-2.8,0.8-7.5,2.1-13.6,2.1"/>
			<path class="st1" d="M328.1-19.6c-6.2,0-10.8-1.3-13.6-2.1c-2.8-0.8-7.5-2.1-13.6-2.1c-6.2,0-10.8,1.3-13.6,2.1
				c-2.8,0.8-7.5,2.1-13.6,2.1c-6.2,0-10.8-1.3-13.6-2.1c-2.8-0.8-7.5-2.1-13.6-2.1c-6.2,0-10.8,1.3-13.6,2.1
				c-2.8,0.8-7.5,2.1-13.6,2.1"/>
			<path class="st1" d="M328.1-15.3c-6.2,0-10.8-1.3-13.6-2.1c-2.8-0.8-7.5-2.1-13.6-2.1c-6.2,0-10.8,1.3-13.6,2.1
				c-2.8,0.8-7.5,2.1-13.6,2.1c-6.2,0-10.8-1.3-13.6-2.1c-2.8-0.8-7.5-2.1-13.6-2.1c-6.2,0-10.8,1.3-13.6,2.1
				c-2.8,0.8-7.5,2.1-13.6,2.1"/>
			<path class="st1" d="M328.1-11c-6.2,0-10.8-1.3-13.6-2.1c-2.8-0.8-7.5-2.1-13.6-2.1c-6.2,0-10.8,1.3-13.6,2.1
				c-2.8,0.8-7.5,2.1-13.6,2.1c-6.2,0-10.8-1.3-13.6-2.1c-2.8-0.8-7.5-2.1-13.6-2.1c-6.2,0-10.8,1.3-13.6,2.1
				c-2.8,0.8-7.5,2.1-13.6,2.1"/>
		</g>
		<g>
			<rect x="109.9" y="-25.8" class="st2" width="109.1" height="25.8"/>
			<path class="st1" d="M219-6.7c-6.2,0-10.8-1.3-13.6-2.1c-2.8-0.8-7.5-2.1-13.6-2.1c-6.2,0-10.8,1.3-13.6,2.1
				c-2.8,0.8-7.5,2.1-13.6,2.1c-6.2,0-10.8-1.3-13.6-2.1c-2.8-0.8-7.5-2.1-13.6-2.1c-6.2,0-10.8,1.3-13.6,2.1
				c-2.8,0.8-7.5,2.1-13.6,2.1"/>
			<path class="st1" d="M219-19.6c-6.2,0-10.8-1.3-13.6-2.1c-2.8-0.8-7.5-2.1-13.6-2.1c-6.2,0-10.8,1.3-13.6,2.1
				c-2.8,0.8-7.5,2.1-13.6,2.1c-6.2,0-10.8-1.3-13.6-2.1c-2.8-0.8-7.5-2.1-13.6-2.1c-6.2,0-10.8,1.3-13.6,2.1
				c-2.8,0.8-7.5,2.1-13.6,2.1"/>
			<path class="st1" d="M219-15.3c-6.2,0-10.8-1.3-13.6-2.1c-2.8-0.8-7.5-2.1-13.6-2.1c-6.2,0-10.8,1.3-13.6,2.1
				c-2.8,0.8-7.5,2.1-13.6,2.1c-6.2,0-10.8-1.3-13.6-2.1c-2.8-0.8-7.5-2.1-13.6-2.1c-6.2,0-10.8,1.3-13.6,2.1
				c-2.8,0.8-7.5,2.1-13.6,2.1"/>
			<path class="st1" d="M219-11c-6.2,0-10.8-1.3-13.6-2.1c-2.8-0.8-7.5-2.1-13.6-2.1c-6.2,0-10.8,1.3-13.6,2.1
				c-2.8,0.8-7.5,2.1-13.6,2.1c-6.2,0-10.8-1.3-13.6-2.1c-2.8-0.8-7.5-2.1-13.6-2.1c-6.2,0-10.8,1.3-13.6,2.1
				c-2.8,0.8-7.5,2.1-13.6,2.1"/>
		</g>
		<g>
			<path class="st1" d="M109.9-6.7c-6.2,0-10.8-1.3-13.6-2.1C93.4-9.7,88.8-11,82.6-11C76.4-11,71.8-9.7,69-8.8
				C66.1-8,61.5-6.7,55.3-6.7c-6.2,0-10.8-1.3-13.6-2.1C38.9-9.7,34.2-11,28-11c-6.2,0-10.8,1.3-13.6,2.1C11.6-8,6.9-6.7,0.8-6.7"/>
			<path class="st1" d="M109.9-19.6c-6.2,0-10.8-1.3-13.6-2.1c-2.8-0.8-7.5-2.1-13.6-2.1c-6.2,0-10.8,1.3-13.6,2.1
				c-2.8,0.8-7.5,2.1-13.6,2.1c-6.2,0-10.8-1.3-13.6-2.1c-2.8-0.8-7.5-2.1-13.6-2.1c-6.2,0-10.8,1.3-13.6,2.1
				c-2.8,0.8-7.5,2.1-13.6,2.1"/>
			<path class="st1" d="M109.9-15.3c-6.2,0-10.8-1.3-13.6-2.1c-2.8-0.8-7.5-2.1-13.6-2.1c-6.2,0-10.8,1.3-13.6,2.1
				c-2.8,0.8-7.5,2.1-13.6,2.1c-6.2,0-10.8-1.3-13.6-2.1c-2.8-0.8-7.5-2.1-13.6-2.1c-6.2,0-10.8,1.3-13.6,2.1
				c-2.8,0.8-7.5,2.1-13.6,2.1"/>
			<path class="st1" d="M109.9-11c-6.2,0-10.8-1.3-13.6-2.1c-2.8-0.8-7.5-2.1-13.6-2.1c-6.2,0-10.8,1.3-13.6,2.1
				c-2.8,0.8-7.5,2.1-13.6,2.1c-6.2,0-10.8-1.3-13.6-2.1c-2.8-0.8-7.5-2.1-13.6-2.1c-6.2,0-10.8,1.3-13.6,2.1
				C11.6-12.3,6.9-11,0.8-11"/>
		</g>
		<g>
			<path class="st1" d="M328.1-32.5c-6.2,0-10.8-1.3-13.6-2.1c-2.8-0.8-7.5-2.1-13.6-2.1c-6.2,0-10.8,1.3-13.6,2.1
				c-2.8,0.8-7.5,2.1-13.6,2.1c-6.2,0-10.8-1.3-13.6-2.1c-2.8-0.8-7.5-2.1-13.6-2.1c-6.2,0-10.8,1.3-13.6,2.1
				c-2.8,0.8-7.5,2.1-13.6,2.1"/>
			<path class="st1" d="M328.1-28.2c-6.2,0-10.8-1.3-13.6-2.1c-2.8-0.8-7.5-2.1-13.6-2.1c-6.2,0-10.8,1.3-13.6,2.1
				c-2.8,0.8-7.5,2.1-13.6,2.1c-6.2,0-10.8-1.3-13.6-2.1c-2.8-0.8-7.5-2.1-13.6-2.1c-6.2,0-10.8,1.3-13.6,2.1
				c-2.8,0.8-7.5,2.1-13.6,2.1"/>
			<path class="st1" d="M328.1-23.9c-6.2,0-10.8-1.3-13.6-2.1c-2.8-0.8-7.5-2.1-13.6-2.1c-6.2,0-10.8,1.3-13.6,2.1
				s-7.5,2.1-13.6,2.1c-6.2,0-10.8-1.3-13.6-2.1c-2.8-0.8-7.5-2.1-13.6-2.1c-6.2,0-10.8,1.3-13.6,2.1c-2.8,0.8-7.5,2.1-13.6,2.1"/>
			<path class="st1" d="M328.1-45.4c-6.2,0-10.8-1.3-13.6-2.1c-2.8-0.8-7.5-2.1-13.6-2.1c-6.2,0-10.8,1.3-13.6,2.1
				c-2.8,0.8-7.5,2.1-13.6,2.1c-6.2,0-10.8-1.3-13.6-2.1c-2.8-0.8-7.5-2.1-13.6-2.1c-6.2,0-10.8,1.3-13.6,2.1
				c-2.8,0.8-7.5,2.1-13.6,2.1"/>
			<path class="st1" d="M328.1-41.1c-6.2,0-10.8-1.3-13.6-2.1c-2.8-0.8-7.5-2.1-13.6-2.1c-6.2,0-10.8,1.3-13.6,2.1
				c-2.8,0.8-7.5,2.1-13.6,2.1c-6.2,0-10.8-1.3-13.6-2.1c-2.8-0.8-7.5-2.1-13.6-2.1c-6.2,0-10.8,1.3-13.6,2.1
				c-2.8,0.8-7.5,2.1-13.6,2.1"/>
			<path class="st1" d="M328.1-36.8c-6.2,0-10.8-1.3-13.6-2.1c-2.8-0.8-7.5-2.1-13.6-2.1c-6.2,0-10.8,1.3-13.6,2.1
				c-2.8,0.8-7.5,2.1-13.6,2.1c-6.2,0-10.8-1.3-13.6-2.1c-2.8-0.8-7.5-2.1-13.6-2.1c-6.2,0-10.8,1.3-13.6,2.1
				c-2.8,0.8-7.5,2.1-13.6,2.1"/>
		</g>
		<g>
			<rect x="109.9" y="-51.6" class="st2" width="109.1" height="25.8"/>
			<path class="st1" d="M219-32.5c-6.2,0-10.8-1.3-13.6-2.1c-2.8-0.8-7.5-2.1-13.6-2.1c-6.2,0-10.8,1.3-13.6,2.1
				c-2.8,0.8-7.5,2.1-13.6,2.1c-6.2,0-10.8-1.3-13.6-2.1c-2.8-0.8-7.5-2.1-13.6-2.1c-6.2,0-10.8,1.3-13.6,2.1
				c-2.8,0.8-7.5,2.1-13.6,2.1"/>
			<path class="st1" d="M219-28.2c-6.2,0-10.8-1.3-13.6-2.1c-2.8-0.8-7.5-2.1-13.6-2.1c-6.2,0-10.8,1.3-13.6,2.1
				c-2.8,0.8-7.5,2.1-13.6,2.1c-6.2,0-10.8-1.3-13.6-2.1c-2.8-0.8-7.5-2.1-13.6-2.1c-6.2,0-10.8,1.3-13.6,2.1
				c-2.8,0.8-7.5,2.1-13.6,2.1"/>
			<path class="st1" d="M219-23.9c-6.2,0-10.8-1.3-13.6-2.1c-2.8-0.8-7.5-2.1-13.6-2.1c-6.2,0-10.8,1.3-13.6,2.1s-7.5,2.1-13.6,2.1
				c-6.2,0-10.8-1.3-13.6-2.1c-2.8-0.8-7.5-2.1-13.6-2.1c-6.2,0-10.8,1.3-13.6,2.1c-2.8,0.8-7.5,2.1-13.6,2.1"/>
			<path class="st1" d="M219-45.4c-6.2,0-10.8-1.3-13.6-2.1c-2.8-0.8-7.5-2.1-13.6-2.1c-6.2,0-10.8,1.3-13.6,2.1
				c-2.8,0.8-7.5,2.1-13.6,2.1c-6.2,0-10.8-1.3-13.6-2.1c-2.8-0.8-7.5-2.1-13.6-2.1c-6.2,0-10.8,1.3-13.6,2.1
				c-2.8,0.8-7.5,2.1-13.6,2.1"/>
			<path class="st1" d="M219-41.1c-6.2,0-10.8-1.3-13.6-2.1c-2.8-0.8-7.5-2.1-13.6-2.1c-6.2,0-10.8,1.3-13.6,2.1
				c-2.8,0.8-7.5,2.1-13.6,2.1c-6.2,0-10.8-1.3-13.6-2.1c-2.8-0.8-7.5-2.1-13.6-2.1c-6.2,0-10.8,1.3-13.6,2.1
				c-2.8,0.8-7.5,2.1-13.6,2.1"/>
			<path class="st1" d="M219-36.8c-6.2,0-10.8-1.3-13.6-2.1c-2.8-0.8-7.5-2.1-13.6-2.1c-6.2,0-10.8,1.3-13.6,2.1
				c-2.8,0.8-7.5,2.1-13.6,2.1c-6.2,0-10.8-1.3-13.6-2.1c-2.8-0.8-7.5-2.1-13.6-2.1c-6.2,0-10.8,1.3-13.6,2.1
				c-2.8,0.8-7.5,2.1-13.6,2.1"/>
		</g>
		<g>
			<path class="st1" d="M109.9-32.5c-6.2,0-10.8-1.3-13.6-2.1c-2.8-0.8-7.5-2.1-13.6-2.1c-6.2,0-10.8,1.3-13.6,2.1
				c-2.8,0.8-7.5,2.1-13.6,2.1c-6.2,0-10.8-1.3-13.6-2.1c-2.8-0.8-7.5-2.1-13.6-2.1c-6.2,0-10.8,1.3-13.6,2.1
				c-2.8,0.8-7.5,2.1-13.6,2.1"/>
			<path class="st1" d="M109.9-28.2c-6.2,0-10.8-1.3-13.6-2.1c-2.8-0.8-7.5-2.1-13.6-2.1c-6.2,0-10.8,1.3-13.6,2.1
				c-2.8,0.8-7.5,2.1-13.6,2.1c-6.2,0-10.8-1.3-13.6-2.1c-2.8-0.8-7.5-2.1-13.6-2.1c-6.2,0-10.8,1.3-13.6,2.1
				c-2.8,0.8-7.5,2.1-13.6,2.1"/>
			<path class="st1" d="M109.9-23.9c-6.2,0-10.8-1.3-13.6-2.1c-2.8-0.8-7.5-2.1-13.6-2.1c-6.2,0-10.8,1.3-13.6,2.1
				c-2.8,0.8-7.5,2.1-13.6,2.1c-6.2,0-10.8-1.3-13.6-2.1c-2.8-0.8-7.5-2.1-13.6-2.1c-6.2,0-10.8,1.3-13.6,2.1
				c-2.8,0.8-7.5,2.1-13.6,2.1"/>
			<path class="st1" d="M109.9-45.4c-6.2,0-10.8-1.3-13.6-2.1c-2.8-0.8-7.5-2.1-13.6-2.1c-6.2,0-10.8,1.3-13.6,2.1
				c-2.8,0.8-7.5,2.1-13.6,2.1c-6.2,0-10.8-1.3-13.6-2.1c-2.8-0.8-7.5-2.1-13.6-2.1c-6.2,0-10.8,1.3-13.6,2.1
				c-2.8,0.8-7.5,2.1-13.6,2.1"/>
			<path class="st1" d="M109.9-41.1c-6.2,0-10.8-1.3-13.6-2.1c-2.8-0.8-7.5-2.1-13.6-2.1c-6.2,0-10.8,1.3-13.6,2.1
				c-2.8,0.8-7.5,2.1-13.6,2.1c-6.2,0-10.8-1.3-13.6-2.1c-2.8-0.8-7.5-2.1-13.6-2.1c-6.2,0-10.8,1.3-13.6,2.1
				c-2.8,0.8-7.5,2.1-13.6,2.1"/>
			<path class="st1" d="M109.9-36.8c-6.2,0-10.8-1.3-13.6-2.1c-2.8-0.8-7.5-2.1-13.6-2.1c-6.2,0-10.8,1.3-13.6,2.1
				c-2.8,0.8-7.5,2.1-13.6,2.1c-6.2,0-10.8-1.3-13.6-2.1c-2.8-0.8-7.5-2.1-13.6-2.1c-6.2,0-10.8,1.3-13.6,2.1
				c-2.8,0.8-7.5,2.1-13.6,2.1"/>
		</g>
		<g>
			<path class="st1" d="M328.1-58.3c-6.2,0-10.8-1.3-13.6-2.1c-2.8-0.8-7.5-2.1-13.6-2.1c-6.2,0-10.8,1.3-13.6,2.1
				c-2.8,0.8-7.5,2.1-13.6,2.1c-6.2,0-10.8-1.3-13.6-2.1c-2.8-0.8-7.5-2.1-13.6-2.1c-6.2,0-10.8,1.3-13.6,2.1
				c-2.8,0.8-7.5,2.1-13.6,2.1"/>
			<path class="st1" d="M328.1-54c-6.2,0-10.8-1.3-13.6-2.1c-2.8-0.8-7.5-2.1-13.6-2.1c-6.2,0-10.8,1.3-13.6,2.1
				c-2.8,0.8-7.5,2.1-13.6,2.1c-6.2,0-10.8-1.3-13.6-2.1c-2.8-0.8-7.5-2.1-13.6-2.1c-6.2,0-10.8,1.3-13.6,2.1
				c-2.8,0.8-7.5,2.1-13.6,2.1"/>
			<path class="st1" d="M328.1-49.7c-6.2,0-10.8-1.3-13.6-2.1c-2.8-0.8-7.5-2.1-13.6-2.1c-6.2,0-10.8,1.3-13.6,2.1
				s-7.5,2.1-13.6,2.1c-6.2,0-10.8-1.3-13.6-2.1c-2.8-0.8-7.5-2.1-13.6-2.1c-6.2,0-10.8,1.3-13.6,2.1c-2.8,0.8-7.5,2.1-13.6,2.1"/>
			<path class="st1" d="M328.1-71.2c-6.2,0-10.8-1.3-13.6-2.1c-2.8-0.8-7.5-2.1-13.6-2.1c-6.2,0-10.8,1.3-13.6,2.1
				c-2.8,0.8-7.5,2.1-13.6,2.1c-6.2,0-10.8-1.3-13.6-2.1c-2.8-0.8-7.5-2.1-13.6-2.1c-6.2,0-10.8,1.3-13.6,2.1
				c-2.8,0.8-7.5,2.1-13.6,2.1"/>
			<path class="st1" d="M328.1-66.9c-6.2,0-10.8-1.3-13.6-2.1c-2.8-0.8-7.5-2.1-13.6-2.1c-6.2,0-10.8,1.3-13.6,2.1
				c-2.8,0.8-7.5,2.1-13.6,2.1c-6.2,0-10.8-1.3-13.6-2.1c-2.8-0.8-7.5-2.1-13.6-2.1c-6.2,0-10.8,1.3-13.6,2.1
				c-2.8,0.8-7.5,2.1-13.6,2.1"/>
			<path class="st1" d="M328.1-62.6c-6.2,0-10.8-1.3-13.6-2.1c-2.8-0.8-7.5-2.1-13.6-2.1c-6.2,0-10.8,1.3-13.6,2.1
				c-2.8,0.8-7.5,2.1-13.6,2.1c-6.2,0-10.8-1.3-13.6-2.1c-2.8-0.8-7.5-2.1-13.6-2.1c-6.2,0-10.8,1.3-13.6,2.1
				c-2.8,0.8-7.5,2.1-13.6,2.1"/>
		</g>
		<g>
			<rect x="109.9" y="-77.4" class="st2" width="109.1" height="25.8"/>
			<path class="st1" d="M219-58.3c-6.2,0-10.8-1.3-13.6-2.1c-2.8-0.8-7.5-2.1-13.6-2.1c-6.2,0-10.8,1.3-13.6,2.1
				c-2.8,0.8-7.5,2.1-13.6,2.1c-6.2,0-10.8-1.3-13.6-2.1c-2.8-0.8-7.5-2.1-13.6-2.1c-6.2,0-10.8,1.3-13.6,2.1
				c-2.8,0.8-7.5,2.1-13.6,2.1"/>
			<path class="st1" d="M219-54c-6.2,0-10.8-1.3-13.6-2.1c-2.8-0.8-7.5-2.1-13.6-2.1c-6.2,0-10.8,1.3-13.6,2.1
				c-2.8,0.8-7.5,2.1-13.6,2.1c-6.2,0-10.8-1.3-13.6-2.1c-2.8-0.8-7.5-2.1-13.6-2.1c-6.2,0-10.8,1.3-13.6,2.1
				c-2.8,0.8-7.5,2.1-13.6,2.1"/>
			<path class="st1" d="M219-49.7c-6.2,0-10.8-1.3-13.6-2.1c-2.8-0.8-7.5-2.1-13.6-2.1c-6.2,0-10.8,1.3-13.6,2.1s-7.5,2.1-13.6,2.1
				c-6.2,0-10.8-1.3-13.6-2.1c-2.8-0.8-7.5-2.1-13.6-2.1c-6.2,0-10.8,1.3-13.6,2.1c-2.8,0.8-7.5,2.1-13.6,2.1"/>
			<path class="st1" d="M219-71.2c-6.2,0-10.8-1.3-13.6-2.1c-2.8-0.8-7.5-2.1-13.6-2.1c-6.2,0-10.8,1.3-13.6,2.1
				c-2.8,0.8-7.5,2.1-13.6,2.1c-6.2,0-10.8-1.3-13.6-2.1c-2.8-0.8-7.5-2.1-13.6-2.1c-6.2,0-10.8,1.3-13.6,2.1
				c-2.8,0.8-7.5,2.1-13.6,2.1"/>
			<path class="st1" d="M219-66.9c-6.2,0-10.8-1.3-13.6-2.1c-2.8-0.8-7.5-2.1-13.6-2.1c-6.2,0-10.8,1.3-13.6,2.1
				c-2.8,0.8-7.5,2.1-13.6,2.1c-6.2,0-10.8-1.3-13.6-2.1c-2.8-0.8-7.5-2.1-13.6-2.1c-6.2,0-10.8,1.3-13.6,2.1
				c-2.8,0.8-7.5,2.1-13.6,2.1"/>
			<path class="st1" d="M219-62.6c-6.2,0-10.8-1.3-13.6-2.1c-2.8-0.8-7.5-2.1-13.6-2.1c-6.2,0-10.8,1.3-13.6,2.1
				c-2.8,0.8-7.5,2.1-13.6,2.1c-6.2,0-10.8-1.3-13.6-2.1c-2.8-0.8-7.5-2.1-13.6-2.1c-6.2,0-10.8,1.3-13.6,2.1
				c-2.8,0.8-7.5,2.1-13.6,2.1"/>
		</g>
		<g>
			<path class="st1" d="M109.9-58.3c-6.2,0-10.8-1.3-13.6-2.1c-2.8-0.8-7.5-2.1-13.6-2.1c-6.2,0-10.8,1.3-13.6,2.1
				c-2.8,0.8-7.5,2.1-13.6,2.1c-6.2,0-10.8-1.3-13.6-2.1c-2.8-0.8-7.5-2.1-13.6-2.1c-6.2,0-10.8,1.3-13.6,2.1
				c-2.8,0.8-7.5,2.1-13.6,2.1"/>
			<path class="st1" d="M109.9-54c-6.2,0-10.8-1.3-13.6-2.1c-2.8-0.8-7.5-2.1-13.6-2.1c-6.2,0-10.8,1.3-13.6,2.1
				c-2.8,0.8-7.5,2.1-13.6,2.1c-6.2,0-10.8-1.3-13.6-2.1c-2.8-0.8-7.5-2.1-13.6-2.1c-6.2,0-10.8,1.3-13.6,2.1
				C11.6-55.3,6.9-54,0.8-54"/>
			<path class="st1" d="M109.9-49.7c-6.2,0-10.8-1.3-13.6-2.1c-2.8-0.8-7.5-2.1-13.6-2.1c-6.2,0-10.8,1.3-13.6,2.1
				c-2.8,0.8-7.5,2.1-13.6,2.1c-6.2,0-10.8-1.3-13.6-2.1C38.9-52.7,34.2-54,28-54c-6.2,0-10.8,1.3-13.6,2.1
				c-2.8,0.8-7.5,2.1-13.6,2.1"/>
			<path class="st1" d="M109.9-71.2c-6.2,0-10.8-1.3-13.6-2.1c-2.8-0.8-7.5-2.1-13.6-2.1c-6.2,0-10.8,1.3-13.6,2.1
				c-2.8,0.8-7.5,2.1-13.6,2.1c-6.2,0-10.8-1.3-13.6-2.1c-2.8-0.8-7.5-2.1-13.6-2.1c-6.2,0-10.8,1.3-13.6,2.1
				c-2.8,0.8-7.5,2.1-13.6,2.1"/>
			<path class="st1" d="M109.9-66.9c-6.2,0-10.8-1.3-13.6-2.1c-2.8-0.8-7.5-2.1-13.6-2.1c-6.2,0-10.8,1.3-13.6,2.1
				c-2.8,0.8-7.5,2.1-13.6,2.1c-6.2,0-10.8-1.3-13.6-2.1c-2.8-0.8-7.5-2.1-13.6-2.1c-6.2,0-10.8,1.3-13.6,2.1
				c-2.8,0.8-7.5,2.1-13.6,2.1"/>
			<path class="st1" d="M109.9-62.6c-6.2,0-10.8-1.3-13.6-2.1c-2.8-0.8-7.5-2.1-13.6-2.1c-6.2,0-10.8,1.3-13.6,2.1
				c-2.8,0.8-7.5,2.1-13.6,2.1c-6.2,0-10.8-1.3-13.6-2.1c-2.8-0.8-7.5-2.1-13.6-2.1c-6.2,0-10.8,1.3-13.6,2.1
				c-2.8,0.8-7.5,2.1-13.6,2.1"/>
		</g>
		<g>
			<path class="st1" d="M328.1-84.1c-6.2,0-10.8-1.3-13.6-2.1c-2.8-0.8-7.5-2.1-13.6-2.1c-6.2,0-10.8,1.3-13.6,2.1
				c-2.8,0.8-7.5,2.1-13.6,2.1c-6.2,0-10.8-1.3-13.6-2.1c-2.8-0.8-7.5-2.1-13.6-2.1c-6.2,0-10.8,1.3-13.6,2.1
				c-2.8,0.8-7.5,2.1-13.6,2.1"/>
			<path class="st1" d="M328.1-79.8c-6.2,0-10.8-1.3-13.6-2.1c-2.8-0.8-7.5-2.1-13.6-2.1c-6.2,0-10.8,1.3-13.6,2.1
				c-2.8,0.8-7.5,2.1-13.6,2.1c-6.2,0-10.8-1.3-13.6-2.1c-2.8-0.8-7.5-2.1-13.6-2.1c-6.2,0-10.8,1.3-13.6,2.1
				c-2.8,0.8-7.5,2.1-13.6,2.1"/>
			<path class="st1" d="M328.1-75.5c-6.2,0-10.8-1.3-13.6-2.1c-2.8-0.8-7.5-2.1-13.6-2.1c-6.2,0-10.8,1.3-13.6,2.1
				c-2.8,0.8-7.5,2.1-13.6,2.1c-6.2,0-10.8-1.3-13.6-2.1c-2.8-0.8-7.5-2.1-13.6-2.1c-6.2,0-10.8,1.3-13.6,2.1
				c-2.8,0.8-7.5,2.1-13.6,2.1"/>
			<path class="st1" d="M328.1-97c-6.2,0-10.8-1.3-13.6-2.1c-2.8-0.8-7.5-2.1-13.6-2.1c-6.2,0-10.8,1.3-13.6,2.1
				c-2.8,0.8-7.5,2.1-13.6,2.1c-6.2,0-10.8-1.3-13.6-2.1c-2.8-0.8-7.5-2.1-13.6-2.1c-6.2,0-10.8,1.3-13.6,2.1
				c-2.8,0.8-7.5,2.1-13.6,2.1"/>
			<path class="st1" d="M328.1-92.7c-6.2,0-10.8-1.3-13.6-2.1c-2.8-0.8-7.5-2.1-13.6-2.1c-6.2,0-10.8,1.3-13.6,2.1
				c-2.8,0.8-7.5,2.1-13.6,2.1c-6.2,0-10.8-1.3-13.6-2.1c-2.8-0.8-7.5-2.1-13.6-2.1c-6.2,0-10.8,1.3-13.6,2.1
				c-2.8,0.8-7.5,2.1-13.6,2.1"/>
			<path class="st1" d="M328.1-88.4c-6.2,0-10.8-1.3-13.6-2.1c-2.8-0.8-7.5-2.1-13.6-2.1c-6.2,0-10.8,1.3-13.6,2.1
				c-2.8,0.8-7.5,2.1-13.6,2.1c-6.2,0-10.8-1.3-13.6-2.1c-2.8-0.8-7.5-2.1-13.6-2.1c-6.2,0-10.8,1.3-13.6,2.1
				c-2.8,0.8-7.5,2.1-13.6,2.1"/>
		</g>
		<g>
			<rect x="109.9" y="-103.2" class="st2" width="109.1" height="25.8"/>
			<path class="st1" d="M219-84.1c-6.2,0-10.8-1.3-13.6-2.1c-2.8-0.8-7.5-2.1-13.6-2.1c-6.2,0-10.8,1.3-13.6,2.1
				c-2.8,0.8-7.5,2.1-13.6,2.1c-6.2,0-10.8-1.3-13.6-2.1c-2.8-0.8-7.5-2.1-13.6-2.1c-6.2,0-10.8,1.3-13.6,2.1
				c-2.8,0.8-7.5,2.1-13.6,2.1"/>
			<path class="st1" d="M219-79.8c-6.2,0-10.8-1.3-13.6-2.1c-2.8-0.8-7.5-2.1-13.6-2.1c-6.2,0-10.8,1.3-13.6,2.1
				c-2.8,0.8-7.5,2.1-13.6,2.1c-6.2,0-10.8-1.3-13.6-2.1c-2.8-0.8-7.5-2.1-13.6-2.1c-6.2,0-10.8,1.3-13.6,2.1
				c-2.8,0.8-7.5,2.1-13.6,2.1"/>
			<path class="st1" d="M219-75.5c-6.2,0-10.8-1.3-13.6-2.1c-2.8-0.8-7.5-2.1-13.6-2.1c-6.2,0-10.8,1.3-13.6,2.1
				c-2.8,0.8-7.5,2.1-13.6,2.1c-6.2,0-10.8-1.3-13.6-2.1c-2.8-0.8-7.5-2.1-13.6-2.1c-6.2,0-10.8,1.3-13.6,2.1
				c-2.8,0.8-7.5,2.1-13.6,2.1"/>
			<path class="st1" d="M219-97c-6.2,0-10.8-1.3-13.6-2.1c-2.8-0.8-7.5-2.1-13.6-2.1c-6.2,0-10.8,1.3-13.6,2.1
				c-2.8,0.8-7.5,2.1-13.6,2.1c-6.2,0-10.8-1.3-13.6-2.1c-2.8-0.8-7.5-2.1-13.6-2.1c-6.2,0-10.8,1.3-13.6,2.1
				c-2.8,0.8-7.5,2.1-13.6,2.1"/>
			<path class="st1" d="M219-92.7c-6.2,0-10.8-1.3-13.6-2.1c-2.8-0.8-7.5-2.1-13.6-2.1c-6.2,0-10.8,1.3-13.6,2.1
				c-2.8,0.8-7.5,2.1-13.6,2.1c-6.2,0-10.8-1.3-13.6-2.1c-2.8-0.8-7.5-2.1-13.6-2.1c-6.2,0-10.8,1.3-13.6,2.1
				c-2.8,0.8-7.5,2.1-13.6,2.1"/>
			<path class="st1" d="M219-88.4c-6.2,0-10.8-1.3-13.6-2.1c-2.8-0.8-7.5-2.1-13.6-2.1c-6.2,0-10.8,1.3-13.6,2.1
				c-2.8,0.8-7.5,2.1-13.6,2.1c-6.2,0-10.8-1.3-13.6-2.1c-2.8-0.8-7.5-2.1-13.6-2.1c-6.2,0-10.8,1.3-13.6,2.1
				c-2.8,0.8-7.5,2.1-13.6,2.1"/>
		</g>
		<g>
			<path class="st1" d="M109.9-84.1c-6.2,0-10.8-1.3-13.6-2.1c-2.8-0.8-7.5-2.1-13.6-2.1c-6.2,0-10.8,1.3-13.6,2.1
				c-2.8,0.8-7.5,2.1-13.6,2.1c-6.2,0-10.8-1.3-13.6-2.1c-2.8-0.8-7.5-2.1-13.6-2.1c-6.2,0-10.8,1.3-13.6,2.1
				c-2.8,0.8-7.5,2.1-13.6,2.1"/>
			<path class="st1" d="M109.9-79.8c-6.2,0-10.8-1.3-13.6-2.1c-2.8-0.8-7.5-2.1-13.6-2.1c-6.2,0-10.8,1.3-13.6,2.1
				c-2.8,0.8-7.5,2.1-13.6,2.1c-6.2,0-10.8-1.3-13.6-2.1c-2.8-0.8-7.5-2.1-13.6-2.1c-6.2,0-10.8,1.3-13.6,2.1
				c-2.8,0.8-7.5,2.1-13.6,2.1"/>
			<path class="st1" d="M109.9-75.5c-6.2,0-10.8-1.3-13.6-2.1c-2.8-0.8-7.5-2.1-13.6-2.1c-6.2,0-10.8,1.3-13.6,2.1
				c-2.8,0.8-7.5,2.1-13.6,2.1c-6.2,0-10.8-1.3-13.6-2.1c-2.8-0.8-7.5-2.1-13.6-2.1c-6.2,0-10.8,1.3-13.6,2.1
				c-2.8,0.8-7.5,2.1-13.6,2.1"/>
			<path class="st1" d="M109.9-97c-6.2,0-10.8-1.3-13.6-2.1c-2.8-0.8-7.5-2.1-13.6-2.1c-6.2,0-10.8,1.3-13.6,2.1
				c-2.8,0.8-7.5,2.1-13.6,2.1c-6.2,0-10.8-1.3-13.6-2.1c-2.8-0.8-7.5-2.1-13.6-2.1c-6.2,0-10.8,1.3-13.6,2.1
				C11.6-98.3,6.9-97,0.8-97"/>
			<path class="st1" d="M109.9-92.7c-6.2,0-10.8-1.3-13.6-2.1c-2.8-0.8-7.5-2.1-13.6-2.1c-6.2,0-10.8,1.3-13.6,2.1
				c-2.8,0.8-7.5,2.1-13.6,2.1c-6.2,0-10.8-1.3-13.6-2.1C38.9-95.7,34.2-97,28-97c-6.2,0-10.8,1.3-13.6,2.1
				c-2.8,0.8-7.5,2.1-13.6,2.1"/>
			<path class="st1" d="M109.9-88.4c-6.2,0-10.8-1.3-13.6-2.1c-2.8-0.8-7.5-2.1-13.6-2.1c-6.2,0-10.8,1.3-13.6,2.1
				c-2.8,0.8-7.5,2.1-13.6,2.1c-6.2,0-10.8-1.3-13.6-2.1c-2.8-0.8-7.5-2.1-13.6-2.1c-6.2,0-10.8,1.3-13.6,2.1
				c-2.8,0.8-7.5,2.1-13.6,2.1"/>
		</g>
		<g>
			<path class="st1" d="M328.1-109.9c-6.2,0-10.8-1.3-13.6-2.1c-2.8-0.8-7.5-2.1-13.6-2.1c-6.2,0-10.8,1.3-13.6,2.1
				c-2.8,0.8-7.5,2.1-13.6,2.1c-6.2,0-10.8-1.3-13.6-2.1c-2.8-0.8-7.5-2.1-13.6-2.1c-6.2,0-10.8,1.3-13.6,2.1
				c-2.8,0.8-7.5,2.1-13.6,2.1"/>
			<path class="st1" d="M328.1-105.6c-6.2,0-10.8-1.3-13.6-2.1c-2.8-0.8-7.5-2.1-13.6-2.1c-6.2,0-10.8,1.3-13.6,2.1
				c-2.8,0.8-7.5,2.1-13.6,2.1c-6.2,0-10.8-1.3-13.6-2.1c-2.8-0.8-7.5-2.1-13.6-2.1c-6.2,0-10.8,1.3-13.6,2.1
				c-2.8,0.8-7.5,2.1-13.6,2.1"/>
			<path class="st1" d="M328.1-101.3c-6.2,0-10.8-1.3-13.6-2.1c-2.8-0.8-7.5-2.1-13.6-2.1c-6.2,0-10.8,1.3-13.6,2.1
				c-2.8,0.8-7.5,2.1-13.6,2.1c-6.2,0-10.8-1.3-13.6-2.1c-2.8-0.8-7.5-2.1-13.6-2.1c-6.2,0-10.8,1.3-13.6,2.1
				c-2.8,0.8-7.5,2.1-13.6,2.1"/>
			<path class="st1" d="M328.1-114.2c-6.2,0-10.8-1.3-13.6-2.1c-2.8-0.8-7.5-2.1-13.6-2.1c-6.2,0-10.8,1.3-13.6,2.1
				c-2.8,0.8-7.5,2.1-13.6,2.1c-6.2,0-10.8-1.3-13.6-2.1c-2.8-0.8-7.5-2.1-13.6-2.1c-6.2,0-10.8,1.3-13.6,2.1
				c-2.8,0.8-7.5,2.1-13.6,2.1"/>
		</g>
		<g>
			<rect x="109.9" y="-129" class="st2" width="109.1" height="25.8"/>
			<path class="st1" d="M219-109.9c-6.2,0-10.8-1.3-13.6-2.1c-2.8-0.8-7.5-2.1-13.6-2.1c-6.2,0-10.8,1.3-13.6,2.1
				c-2.8,0.8-7.5,2.1-13.6,2.1c-6.2,0-10.8-1.3-13.6-2.1c-2.8-0.8-7.5-2.1-13.6-2.1c-6.2,0-10.8,1.3-13.6,2.1
				c-2.8,0.8-7.5,2.1-13.6,2.1"/>
			<path class="st1" d="M219-105.6c-6.2,0-10.8-1.3-13.6-2.1c-2.8-0.8-7.5-2.1-13.6-2.1c-6.2,0-10.8,1.3-13.6,2.1
				c-2.8,0.8-7.5,2.1-13.6,2.1c-6.2,0-10.8-1.3-13.6-2.1c-2.8-0.8-7.5-2.1-13.6-2.1c-6.2,0-10.8,1.3-13.6,2.1
				c-2.8,0.8-7.5,2.1-13.6,2.1"/>
			<path class="st1" d="M219-101.3c-6.2,0-10.8-1.3-13.6-2.1c-2.8-0.8-7.5-2.1-13.6-2.1c-6.2,0-10.8,1.3-13.6,2.1
				c-2.8,0.8-7.5,2.1-13.6,2.1c-6.2,0-10.8-1.3-13.6-2.1c-2.8-0.8-7.5-2.1-13.6-2.1c-6.2,0-10.8,1.3-13.6,2.1
				c-2.8,0.8-7.5,2.1-13.6,2.1"/>
			<path class="st1" d="M219-114.2c-6.2,0-10.8-1.3-13.6-2.1c-2.8-0.8-7.5-2.1-13.6-2.1c-6.2,0-10.8,1.3-13.6,2.1
				c-2.8,0.8-7.5,2.1-13.6,2.1c-6.2,0-10.8-1.3-13.6-2.1c-2.8-0.8-7.5-2.1-13.6-2.1c-6.2,0-10.8,1.3-13.6,2.1
				c-2.8,0.8-7.5,2.1-13.6,2.1"/>
		</g>
		<g>
			<path class="st1" d="M109.9-109.9c-6.2,0-10.8-1.3-13.6-2.1c-2.8-0.8-7.5-2.1-13.6-2.1c-6.2,0-10.8,1.3-13.6,2.1
				c-2.8,0.8-7.5,2.1-13.6,2.1c-6.2,0-10.8-1.3-13.6-2.1c-2.8-0.8-7.5-2.1-13.6-2.1c-6.2,0-10.8,1.3-13.6,2.1
				c-2.8,0.8-7.5,2.1-13.6,2.1"/>
			<path class="st1" d="M109.9-105.6c-6.2,0-10.8-1.3-13.6-2.1c-2.8-0.8-7.5-2.1-13.6-2.1c-6.2,0-10.8,1.3-13.6,2.1
				c-2.8,0.8-7.5,2.1-13.6,2.1c-6.2,0-10.8-1.3-13.6-2.1c-2.8-0.8-7.5-2.1-13.6-2.1c-6.2,0-10.8,1.3-13.6,2.1
				c-2.8,0.8-7.5,2.1-13.6,2.1"/>
			<path class="st1" d="M109.9-101.3c-6.2,0-10.8-1.3-13.6-2.1c-2.8-0.8-7.5-2.1-13.6-2.1c-6.2,0-10.8,1.3-13.6,2.1
				c-2.8,0.8-7.5,2.1-13.6,2.1c-6.2,0-10.8-1.3-13.6-2.1c-2.8-0.8-7.5-2.1-13.6-2.1c-6.2,0-10.8,1.3-13.6,2.1
				c-2.8,0.8-7.5,2.1-13.6,2.1"/>
			<path class="st1" d="M109.9-114.2c-6.2,0-10.8-1.3-13.6-2.1c-2.8-0.8-7.5-2.1-13.6-2.1c-6.2,0-10.8,1.3-13.6,2.1
				c-2.8,0.8-7.5,2.1-13.6,2.1c-6.2,0-10.8-1.3-13.6-2.1c-2.8-0.8-7.5-2.1-13.6-2.1c-6.2,0-10.8,1.3-13.6,2.1
				c-2.8,0.8-7.5,2.1-13.6,2.1"/>
		</g>
	</g>
</pattern>
<rect id="Backdrop_x5F_1_3_" class="st3" width="350" height="350"/>
<rect id="Backdrop_x5F_2" class="st4" width="350" height="350"/>
<rect id="Backdrop_x5F_3" class="st5" width="350" height="350"/>
<rect id="Backdrop_x5F_4" class="st6" width="350" height="350"/>
<rect id="Backdrop_x5F_5" class="st7" width="350" height="350"/>
<rect id="Backdrop_x5F_5_1_" class="st8" width="350" height="350"/>
<rect id="Backdrop_x5F_6" class="st9" width="350" height="350"/>
<rect id="Backdrop_x5F_7" class="st10" width="350" height="350"/>
<g id="Chasis">
	<g>
		<path class="st3" d="M239.5,316.7c0.7,4.4,4.6,7.6,9,7.5c4.2-0.1,7.9-3.3,8.6-7.5v-28.2c-1.1-4.1-4.8-7-9-6.9
			c-4,0.1-7.6,2.9-8.6,6.9v19.2v26.1h49.6l-6.6-26.1h-43"/>
		<path class="st11" d="M257.1,307.5v8.9h14.5v-8.7"/>
		<path class="st11" d="M257.1,299.2v8.3"/>
		<polygon class="st3" points="282.9,250.7 282.9,144.8 257.1,144.8 257.1,299.2 278.6,299.2 277.2,290.2 277.2,272.1 		"/>
		<line class="st3" x1="270" y1="255.9" x2="260.7" y2="255.9"/>
		<line class="st3" x1="270" y1="260.9" x2="260.7" y2="260.9"/>
		<line class="st3" x1="260.7" y1="264.6" x2="270" y2="264.6"/>
		<line class="st3" x1="270" y1="269.5" x2="260.7" y2="269.5"/>
		<line class="st3" x1="257.1" y1="281.6" x2="277.2" y2="281.6"/>
		<circle class="st3" cx="275.2" cy="281.6" r="8.2"/>
		<path class="st3" d="M282.9,250.7h-25.8v-39.4h25.8V183h-25.8v-34.5h-12.6c0,0-0.3,42.6,0,42.6s12.6,0,12.6,0"/>
	</g>
	<g>
		<path class="st3" d="M112.4,316.7c-0.7,4.4-4.6,7.6-9,7.5c-4.2-0.1-7.9-3.3-8.6-7.5v-28.2c1.1-4.1,4.8-7,9-6.9
			c4,0.1,7.6,2.9,8.6,6.9v19.2v26.1H62.8l6.6-26.1h43"/>
		<polygon class="st3" points="69,144.8 69,250.7 74.7,272.1 74.7,290.2 73.4,299.2 94.8,299.2 94.8,144.8 		"/>
		<path class="st3" d="M88.4,303"/>
		<path class="st11" d="M80.3,307.8v8.7h14.5V303"/>
		<line class="st3" x1="81.9" y1="255.9" x2="91.3" y2="255.9"/>
		<line class="st3" x1="81.9" y1="260.9" x2="91.3" y2="260.9"/>
		<line class="st3" x1="91.3" y1="264.6" x2="81.9" y2="264.6"/>
		<line class="st3" x1="81.9" y1="269.5" x2="91.3" y2="269.5"/>
		<line class="st3" x1="94.8" y1="281.6" x2="74.7" y2="281.6"/>
		<circle class="st3" cx="76.7" cy="281.6" r="8.2"/>
		<path class="st3" d="M69,250.7h25.8v-39.4H69V183h25.8v-34.5h12.6c0,0,0.3,42.6,0,42.6c-0.3,0-12.6,0-12.6,0"/>
	</g>
	<polyline class="st3" points="116.1,269.5 126,295.7 226,295.7 236.9,269.5 	"/>
	<polyline class="st11" points="128.8,269.5 140.3,295.7 163.9,295.7 163.9,269.5 187.3,269.5 187.3,295 	"/>
	<path class="st3" d="M191.4,308.1"/>
	<polyline class="st3" points="166.7,295.6 166.7,328.7 183.7,328.7 183.7,295.6 	"/>
	<polygon class="st3" points="154.2,316.4 197.3,316.4 202.1,342.1 149.7,342.1 	"/>
	<line class="st3" x1="221.6" y1="269.5" x2="209.4" y2="295.7"/>
	<polygon class="st3" points="107.4,191.1 107.4,269.5 244.1,269.5 244.1,144.8 107.5,144.8 	"/>
</g>
<g id="Head_x5F_4">
	<polyline class="st3" points="107.5,131.8 97.9,131.8 119.4,39 235.1,39 258.4,131.8 245,131.8 	"/>
	<circle class="st12" cx="176.6" cy="75.8" r="19.5"/>
	<path class="st13" d="M86.6,39"/>
	<rect x="107.5" y="131.8" class="st3" width="137.4" height="11.2"/>
	<path class="st14" d="M106.5,124.1c5.9,0,5.9-7.8,11.7-7.8c5.9,0,5.9,7.8,11.7,7.8c5.9,0,5.9-7.8,11.8-7.8c5.9,0,5.9,7.8,11.8,7.8
		c5.9,0,5.9-7.8,11.8-7.8c5.9,0,5.9,7.8,11.7,7.8s5.9-7.8,11.7-7.8c5.9,0,5.9,7.8,11.7,7.8c5.9,0,5.9-7.8,11.8-7.8
		c5.9,0,5.9,7.8,11.8,7.8c5.9,0,5.9-7.8,11.8-7.8c5.9,0,5.9,7.8,11.8,7.8"/>
	<line class="st11" x1="103.1" y1="109.2" x2="252.7" y2="109.2"/>
	<circle class="st12" cx="176.6" cy="75.8" r="6.5"/>
	<circle class="st12" cx="202.5" cy="53.1" r="6.5"/>
	<circle class="st12" cx="209.8" cy="74.2" r="6.5"/>
	<circle class="st12" cx="202.5" cy="95.3" r="6.5"/>
	<g>
		<g>
			<g>
				<circle class="st12" cx="149.8" cy="53.1" r="6.5"/>
				<circle class="st12" cx="142.5" cy="74.2" r="6.5"/>
				<circle class="st12" cx="149.8" cy="95.3" r="6.5"/>
			</g>
		</g>
		<g>
			<g>
				<circle class="st12" cx="202.5" cy="53.1" r="6.5"/>
				<circle class="st12" cx="209.8" cy="74.2" r="6.5"/>
				<circle class="st12" cx="202.5" cy="95.3" r="6.5"/>
			</g>
		</g>
	</g>
</g>
<g id="Head_x5F_3_1_">
	<polygon class="st3" points="107.5,144.8 244.1,144.8 244.1,131.3 207.8,34.6 142.2,34.6 107.4,131.3 	"/>
	<path class="st13" d="M107.5,64.8"/>
	<path class="st14" d="M120.8,137.3c4.5,0,4.5-6,9-6c4.5,0,4.5,6,9,6c4.5,0,4.5-6,9-6c4.5,0,4.5,6,9,6c4.5,0,4.5-6,9-6
		c4.5,0,4.5,6,9,6c4.5,0,4.5-6,9-6c4.5,0,4.5,6,9,6c4.5,0,4.5-6,9-6c4.5,0,4.5,6,9,6c4.5,0,4.5-6,9-6c4.5,0,4.5,6,9,6"/>
	<path class="st11" d="M205.3,76.3c9.7,1.8,9.8,2.1,20.5,6.2"/>
	<path class="st11" d="M125,82.5c0,0,3.5-3.7,23.7-7"/>
	<g>
		<g>
			<path class="st15" d="M148.7,123.9c-23.2-25,0-48.4,0-48.4c14.9-2.5,34.3-3.4,56.6,0.8l-3.2-0.8c0,0,23.2,23.4,0,48.4H148.7z"/>
		</g>
	</g>
	<circle class="st15" cx="223.8" cy="112.4" r="6.4"/>
	<path class="st11" d="M148.7,123.9h53.4H148.7z"/>
	<line class="st11" x1="110.1" y1="123.9" x2="241.2" y2="123.9"/>
	<g>
		<g>
			<path class="st11" d="M209.2,34.6l-11.9,16.3L209.2,34.6z"/>
		</g>
		<g>
			<path class="st11" d="M198.2,50.9l-11.9-16.3L198.2,50.9z"/>
		</g>
		<g>
			<path class="st11" d="M187.2,34.6l-11.9,16.3L187.2,34.6z"/>
		</g>
		<g>
			<path class="st11" d="M176.2,50.9l-11.9-16.3L176.2,50.9z"/>
		</g>
		<g>
			<path class="st11" d="M165.2,34.6l-11.9,16.3L165.2,34.6z"/>
		</g>
		<g>
			<path class="st11" d="M154.2,50.9l-11.9-16.3L154.2,50.9z"/>
		</g>
	</g>
	<line class="st11" x1="136.8" y1="50.9" x2="213.9" y2="50.9"/>
</g>
<g id="Head_x5F_2_1_">
	<polyline class="st3" points="123.5,136.2 116.1,136.2 132.6,64.8 221.6,64.8 239.5,136.2 229.2,136.2 	"/>
	<circle class="st12" cx="151.2" cy="93.1" r="15"/>
	<path class="st13" d="M107.4,64.8"/>
	<rect x="123.5" y="136.2" class="st3" width="105.7" height="8.6"/>
	<g>
		<g>
			<line class="st11" x1="214.4" y1="136.2" x2="214.4" y2="144.8"/>
		</g>
		<g>
			<line class="st11" x1="199.4" y1="136.2" x2="199.4" y2="144.8"/>
		</g>
		<g>
			<line class="st11" x1="184.4" y1="136.2" x2="184.4" y2="144.8"/>
		</g>
		<g>
			<line class="st11" x1="169.4" y1="136.2" x2="169.4" y2="144.8"/>
		</g>
		<g>
			<line class="st11" x1="154.4" y1="136.2" x2="154.4" y2="144.8"/>
		</g>
		<g>
			<line class="st11" x1="139.4" y1="136.2" x2="139.4" y2="144.8"/>
		</g>
	</g>
	<path class="st14" d="M122.8,130.3c4.5,0,4.5-6,9-6c4.5,0,4.5,6,9,6c4.5,0,4.5-6,9-6c4.5,0,4.5,6,9,6c4.5,0,4.5-6,9-6
		c4.5,0,4.5,6,9,6s4.5-6,9-6c4.5,0,4.5,6,9,6c4.5,0,4.5-6,9-6c4.5,0,4.5,6,9,6c4.5,0,4.5-6,9-6c4.5,0,4.5,6,9,6"/>
	<line class="st11" x1="120.1" y1="118.8" x2="235.2" y2="118.8"/>
	<line class="st14" x1="213" y1="64.8" x2="213" y2="23.3"/>
	<line class="st14" x1="142.2" y1="64.8" x2="142.2" y2="49.8"/>
	<rect x="208.4" y="72.1" class="st14" width="10.3" height="40.3"/>
	<g>
		<g>
			<line class="st14" x1="208.4" y1="100.7" x2="218.6" y2="100.7"/>
		</g>
		<g>
			<line class="st14" x1="208.4" y1="91.7" x2="218.6" y2="91.7"/>
		</g>
		<g>
			<line class="st14" x1="208.4" y1="82.7" x2="218.6" y2="82.7"/>
		</g>
	</g>
	<circle class="st12" cx="151.2" cy="93.1" r="5"/>
	<circle class="st12" cx="171.2" cy="75.6" r="5"/>
	<circle class="st12" cx="176.8" cy="91.9" r="5"/>
	<circle class="st12" cx="171.2" cy="108.1" r="5"/>
</g>
<g id="Head_x5F_1">
	<path class="st16" d="M107.4,64.8"/>
	<line class="st3" x1="244.1" y1="98.6" x2="244.1" y2="38.1"/>
	<polyline class="st3" points="107.4,102.4 107.4,144.8 244.1,144.8 244.1,98.6 	"/>
	<line class="st3" x1="107.4" y1="64.8" x2="107.4" y2="102.4"/>
	<path class="st17" d="M120.8,137.3c4.5,0,4.5-6,9-6c4.5,0,4.5,6,9,6c4.5,0,4.5-6,9-6c4.5,0,4.5,6,9,6c4.5,0,4.5-6,9-6
		c4.5,0,4.5,6,9,6s4.5-6,9-6c4.5,0,4.5,6,9,6c4.5,0,4.5-6,9-6c4.5,0,4.5,6,9,6c4.5,0,4.5-6,9-6c4.5,0,4.5,6,9,6"/>
	<path class="st3" d="M244.4,109.6C239,76,209.8,51.1,175.9,51.2c-33.9,0-63.1,24.9-68.5,58.4h33.4"/>
	<polyline class="st3" points="169.4,51.2 169.4,73.3 181.3,73.3 181.3,51.4 	"/>
	<path class="st3" d="M205.2,76.3c9.7,1.8,20,4.7,30.7,8.7"/>
	<path class="st3" d="M116.4,85c0,0,12-6.2,32.3-9.5"/>
	<g>
		<g>
			<path class="st12" d="M148.6,123.9c-23.2-25,0-48.4,0-48.4c14.9-2.5,34.3-3.4,56.6,0.8l-3.2-0.8c0,0,23.2,23.4,0,48.4H148.6z"/>
		</g>
	</g>
	<polyline class="st3" points="107.4,123.9 148.6,123.9 202.1,123.9 244.1,123.9 244.1,107.8 236,107.8 236,123.9 	"/>
	<line class="st3" x1="124.6" y1="109.6" x2="124.6" y2="123.9"/>
	<circle class="st12" cx="223.8" cy="112.4" r="6.4"/>
	<path class="st3" d="M148.6,123.9h53.4H148.6z"/>
</g>
<g id="Accents_x5F_5">
	<line class="st18" x1="79.1" y1="299.2" x2="79.1" y2="306.7"/>
	<path class="st19" d="M270,225.2"/>
	<line class="st19" x1="269.6" y1="171.8" x2="269.6" y2="225.2"/>
	<circle class="st19" cx="269.6" cy="231.6" r="6.3"/>
	<circle class="st19" cx="269.6" cy="164.7" r="6.2"/>
	<polygon class="st19" points="293.9,185.1 282.5,185.1 283,226.9 288.7,226.9 286.1,211.4 	"/>
	<line class="st18" x1="250.3" y1="289.8" x2="250.3" y2="316.4"/>
	<line class="st18" x1="246.3" y1="289.8" x2="246.3" y2="316.4"/>
	<line class="st20" x1="272.5" y1="299.2" x2="272.5" y2="306.7"/>
	<line class="st19" x1="81.9" y1="171.8" x2="81.9" y2="225.2"/>
	<circle class="st19" cx="81.9" cy="231.6" r="6.3"/>
	<circle class="st19" cx="81.9" cy="164.7" r="6.2"/>
	<polygon class="st19" points="57.6,185.1 69,185.1 68.5,226.9 62.8,226.9 65.5,211.4 	"/>
	<line class="st18" x1="101.2" y1="289.8" x2="101.2" y2="316.4"/>
	<line class="st18" x1="105.3" y1="289.8" x2="105.3" y2="316.4"/>
	<rect x="142.2" y="186.8" class="st19" width="65.6" height="10.7"/>
	<rect x="158" y="188.5" class="st19" width="20" height="5.5"/>
	<rect x="142.2" y="168.9" class="st19" width="65.6" height="11.4"/>
	<rect x="142.2" y="151.8" class="st19" width="65.6" height="11.9"/>
	<rect x="166.7" y="204.7" class="st19" width="17" height="33.2"/>
	<line class="st19" x1="166.7" y1="214.9" x2="183.7" y2="214.9"/>
	<line class="st19" x1="166.7" y1="225.2" x2="183.7" y2="225.3"/>
	<line class="st18" x1="175.8" y1="293.8" x2="175.8" y2="312.1"/>
	<rect x="112.4" y="245.7" class="st19" width="22.2" height="17.9"/>
	<circle class="st19" cx="175.8" cy="251.7" r="9.5"/>
	<circle class="st19" cx="221.6" cy="249.7" r="10.3"/>
	<rect x="94.2" y="147.8" class="st19" width="13.3" height="44.4"/>
	<rect x="244.2" y="147.8" class="st19" width="13.3" height="44.4"/>
</g>
<g id="Accents_x5F_4">
	<path class="st8" d="M270,225.2"/>
	<line class="st8" x1="269.6" y1="171.8" x2="269.6" y2="225.2"/>
	<circle class="st8" cx="269.6" cy="231.6" r="6.3"/>
	<circle class="st8" cx="269.6" cy="164.7" r="6.2"/>
	<polygon class="st8" points="293.9,185.1 282.5,185.1 283,226.9 288.7,226.9 286.1,211.4 	"/>
	<line class="st21" x1="250.3" y1="289.8" x2="250.3" y2="316.4"/>
	<line class="st21" x1="246.3" y1="289.8" x2="246.3" y2="316.4"/>
	<line class="st21" x1="272.5" y1="299.2" x2="272.5" y2="306.7"/>
	<line class="st8" x1="81.9" y1="171.8" x2="81.9" y2="225.2"/>
	<circle class="st8" cx="81.9" cy="231.6" r="6.3"/>
	<circle class="st8" cx="81.9" cy="164.7" r="6.2"/>
	<polygon class="st8" points="57.6,185.1 69,185.1 68.5,226.9 62.8,226.9 65.5,211.4 	"/>
	<line class="st21" x1="101.2" y1="289.8" x2="101.2" y2="316.4"/>
	<line class="st21" x1="105.3" y1="289.8" x2="105.3" y2="316.4"/>
	<line class="st21" x1="79.1" y1="299.2" x2="79.1" y2="306.7"/>
	<rect x="142.2" y="186.8" class="st8" width="65.6" height="10.7"/>
	<rect x="158" y="188.5" class="st8" width="20" height="5.5"/>
	<rect x="142.2" y="168.9" class="st8" width="65.6" height="11.4"/>
	<rect x="142.2" y="151.8" class="st8" width="65.6" height="11.9"/>
	<rect x="166.7" y="204.7" class="st8" width="17" height="33.2"/>
	<line class="st8" x1="166.7" y1="214.9" x2="183.7" y2="214.9"/>
	<line class="st8" x1="166.7" y1="225.2" x2="183.7" y2="225.3"/>
	<line class="st21" x1="175.8" y1="293.8" x2="175.8" y2="312.1"/>
	<rect x="112.4" y="245.7" class="st8" width="22.2" height="17.9"/>
	<circle class="st8" cx="175.8" cy="251.7" r="9.5"/>
	<circle class="st8" cx="221.6" cy="249.7" r="10.3"/>
	<rect x="244.2" y="147.8" class="st8" width="13.3" height="44.4"/>
	<rect x="94.2" y="147.8" class="st8" width="13.3" height="44.4"/>
</g>
<g id="Accents_x5F_3">
	<path class="st7" d="M270,225.2"/>
	<line class="st7" x1="269.6" y1="171.8" x2="269.6" y2="225.2"/>
	<circle class="st7" cx="269.6" cy="231.6" r="6.3"/>
	<circle class="st7" cx="269.6" cy="164.7" r="6.2"/>
	<polygon class="st7" points="293.9,185.1 282.5,185.1 283,226.9 288.7,226.9 286.1,211.4 	"/>
	<line class="st22" x1="250.3" y1="289.8" x2="250.3" y2="316.4"/>
	<line class="st22" x1="246.3" y1="289.8" x2="246.3" y2="316.4"/>
	<line class="st22" x1="272.5" y1="299.2" x2="272.5" y2="306.7"/>
	<line class="st7" x1="81.9" y1="171.8" x2="81.9" y2="225.2"/>
	<circle class="st7" cx="81.9" cy="231.6" r="6.3"/>
	<circle class="st7" cx="81.9" cy="164.7" r="6.2"/>
	<polygon class="st7" points="57.6,185.1 69,185.1 68.5,226.9 62.8,226.9 65.5,211.4 	"/>
	<line class="st22" x1="101.2" y1="289.8" x2="101.2" y2="316.4"/>
	<line class="st22" x1="105.3" y1="289.8" x2="105.3" y2="316.4"/>
	<line class="st22" x1="79.1" y1="299.2" x2="79.1" y2="306.7"/>
	<rect x="142.2" y="186.8" class="st7" width="65.6" height="10.7"/>
	<rect x="158" y="188.5" class="st7" width="20" height="5.5"/>
	<rect x="142.2" y="168.9" class="st7" width="65.6" height="11.4"/>
	<rect x="142.2" y="151.8" class="st7" width="65.6" height="11.9"/>
	<rect x="166.7" y="204.7" class="st7" width="17" height="33.2"/>
	<line class="st7" x1="166.7" y1="214.9" x2="183.7" y2="214.9"/>
	<line class="st7" x1="166.7" y1="225.2" x2="183.7" y2="225.3"/>
	<line class="st22" x1="175.8" y1="293.8" x2="175.8" y2="312.1"/>
	<rect x="112.4" y="245.7" class="st7" width="22.2" height="17.9"/>
	<circle class="st7" cx="175.8" cy="251.7" r="9.5"/>
	<circle class="st7" cx="221.6" cy="249.7" r="10.3"/>
	<rect x="244.2" y="147.8" class="st7" width="13.3" height="44.4"/>
	<rect x="94.2" y="147.8" class="st7" width="13.3" height="44.4"/>
</g>
<g id="Accents_x5F_2">
	<path class="st6" d="M270,225.2"/>
	<line class="st6" x1="269.6" y1="171.8" x2="269.6" y2="225.2"/>
	<circle class="st6" cx="269.6" cy="231.6" r="6.3"/>
	<circle class="st6" cx="269.6" cy="164.7" r="6.2"/>
	<polygon class="st6" points="293.9,185.1 282.5,185.1 283,226.9 288.7,226.9 286.1,211.4 	"/>
	<line class="st23" x1="250.3" y1="289.8" x2="250.3" y2="316.4"/>
	<line class="st23" x1="246.3" y1="289.8" x2="246.3" y2="316.4"/>
	<line class="st23" x1="272.5" y1="299.2" x2="272.5" y2="306.7"/>
	<line class="st6" x1="81.9" y1="171.8" x2="81.9" y2="225.2"/>
	<circle class="st6" cx="81.9" cy="231.6" r="6.3"/>
	<circle class="st6" cx="81.9" cy="164.7" r="6.2"/>
	<polygon class="st6" points="57.6,185.1 69,185.1 68.5,226.9 62.8,226.9 65.5,211.4 	"/>
	<line class="st23" x1="101.2" y1="289.8" x2="101.2" y2="316.4"/>
	<line class="st23" x1="105.3" y1="289.8" x2="105.3" y2="316.4"/>
	<line class="st23" x1="79.1" y1="299.2" x2="79.1" y2="306.7"/>
	<rect x="142.2" y="186.8" class="st6" width="65.6" height="10.7"/>
	<rect x="158" y="188.5" class="st6" width="20" height="5.5"/>
	<rect x="142.2" y="168.9" class="st6" width="65.6" height="11.4"/>
	<rect x="142.2" y="151.8" class="st6" width="65.6" height="11.9"/>
	<rect x="166.7" y="204.7" class="st6" width="17" height="33.2"/>
	<line class="st6" x1="166.7" y1="214.9" x2="183.7" y2="214.9"/>
	<line class="st6" x1="166.7" y1="225.2" x2="183.7" y2="225.3"/>
	<line class="st23" x1="175.8" y1="293.8" x2="175.8" y2="312.1"/>
	<rect x="112.4" y="245.7" class="st6" width="22.2" height="17.9"/>
	<circle class="st6" cx="175.8" cy="251.7" r="9.5"/>
	<circle class="st6" cx="221.6" cy="249.7" r="10.3"/>
	<rect x="94.2" y="147.8" class="st6" width="13.3" height="44.4"/>
	<rect x="244.2" y="147.8" class="st6" width="13.3" height="44.4"/>
</g>
<g id="Accents_x5F_1">
	<path class="st12" d="M270,225.2"/>
	<line class="st12" x1="269.6" y1="171.8" x2="269.6" y2="225.2"/>
	<circle class="st12" cx="269.6" cy="231.6" r="6.3"/>
	<circle class="st12" cx="269.6" cy="164.7" r="6.2"/>
	<polygon class="st12" points="293.9,185.1 282.5,185.1 283,226.9 288.7,226.9 286.1,211.4 	"/>
	<line class="st24" x1="250.3" y1="289.8" x2="250.3" y2="316.4"/>
	<line class="st24" x1="246.3" y1="289.8" x2="246.3" y2="316.4"/>
	<line class="st24" x1="272.5" y1="299.2" x2="272.5" y2="306.7"/>
	<line class="st12" x1="81.9" y1="171.8" x2="81.9" y2="225.2"/>
	<circle class="st12" cx="81.9" cy="231.6" r="6.3"/>
	<circle class="st12" cx="81.9" cy="164.7" r="6.2"/>
	<polygon class="st12" points="57.6,185.1 69,185.1 68.5,226.9 62.8,226.9 65.5,211.4 	"/>
	<line class="st24" x1="101.2" y1="289.8" x2="101.2" y2="316.4"/>
	<line class="st24" x1="105.3" y1="289.8" x2="105.3" y2="316.4"/>
	<line class="st24" x1="79.1" y1="299.2" x2="79.1" y2="306.7"/>
	<rect x="142.2" y="186.8" class="st12" width="65.6" height="10.7"/>
	<rect x="158" y="188.5" class="st12" width="20" height="5.5"/>
	<rect x="142.2" y="168.9" class="st12" width="65.6" height="11.4"/>
	<rect x="142.2" y="151.8" class="st12" width="65.6" height="11.9"/>
	<rect x="166.7" y="204.7" class="st12" width="17" height="33.2"/>
	<line class="st12" x1="166.7" y1="214.9" x2="183.7" y2="214.9"/>
	<line class="st12" x1="166.7" y1="225.2" x2="183.7" y2="225.3"/>
	<line class="st24" x1="175.8" y1="293.8" x2="175.8" y2="312.1"/>
	<rect x="112.4" y="245.7" class="st12" width="22.2" height="17.9"/>
	<circle class="st12" cx="175.8" cy="251.7" r="9.5"/>
	<circle class="st12" cx="221.6" cy="249.7" r="10.3"/>
	<rect x="244.2" y="147.8" class="st12" width="13.3" height="44.4"/>
	<rect x="94.2" y="147.8" class="st12" width="13.3" height="44.4"/>
</g>
</svg>
