<svg xmlns="http://www.w3.org/2000/svg" viewBox="0 0 12.19 11.21"><defs><style>.cls-1{fill:#fff;}.cls-1,.cls-2{stroke:#231f20;stroke-miterlimit:10;}.cls-2{fill:#726658;stroke-width:0.5px;}</style></defs><g id="Layer_1" data-name="Layer 1"><path class="cls-1" d="M180.72,168.28c3-.56,5.66-2.45,5.6-4.05,0-1.32-1.93-1.27-4.54-4.4-.43-.52-.77-1-1.06-1.39-.29.4-.63.87-1.06,1.39-2.6,3.13-4.48,3.08-4.53,4.4C175.07,165.83,177.73,167.72,180.72,168.28Z" transform="translate(-174.63 -157.58)"/><path class="cls-2" d="M180.72,166.17c.39-.15.93-.38,1.71-.66,1.11-.41,1.43-.46,1.53-.77.18-.57-.64-1.32-1.28-1.91s-1.31-1.4-2-2.11c-.64.71-1.45,1.64-1.95,2.11s-1.46,1.34-1.28,1.91c.09.31.41.36,1.53.77C179.79,165.79,180.33,166,180.72,166.17Z" transform="translate(-174.63 -157.58)"/></g></svg>