<svg id="Layer_1" data-name="Layer 1" xmlns="http://www.w3.org/2000/svg" viewBox="0 0 350 350">
  <defs>
    <style>
      .cls-1 {
        fill: #fff;
      }

      .cls-1, .cls-2 {
        stroke: #231f20;
        stroke-miterlimit: 10;
      }

      .cls-2 {
        fill: #736759;
        stroke-width: 0.5px;
      }
    </style>
  </defs>
  <g id="Nose_1">
    <path class="cls-1" d="M174.5,192.88c3-.56,5.66-2.45,5.6-4,0-1.32-1.93-1.27-4.54-4.4-.43-.52-.77-1-1.06-1.39-.29.4-.63.87-1.06,1.39-2.6,3.13-4.48,3.08-4.53,4.4C168.85,190.43,171.51,192.32,174.5,192.88Z"/>
    <path class="cls-2" d="M174.5,190.77c.39-.15.93-.38,1.71-.66,1.11-.41,1.43-.46,1.53-.77.18-.57-.64-1.32-1.28-1.91s-1.31-1.4-2-2.11c-.64.71-1.45,1.64-2,2.11s-1.46,1.34-1.28,1.91c.09.31.41.36,1.53.77C173.57,190.39,174.11,190.6,174.5,190.77Z"/>
  </g>
</svg>
