<?xml version="1.0" encoding="UTF-8"?>
<svg width="1217px" height="1889px" viewBox="0 0 1217 1889" version="1.1" xmlns="http://www.w3.org/2000/svg" xmlns:xlink="http://www.w3.org/1999/xlink">
    <!-- Generator: Sketch 51.3 (57544) - http://www.bohemiancoding.com/sketch -->
    <title>heart</title>
    <desc>Created with Sketch.</desc>
    <defs></defs>
    <g id="Page-1" stroke="none" stroke-width="1" fill="none" fill-rule="evenodd">
        <g id="heart">
            <path d="M342,945 L877,945 L342,945 Z" id="Fill-1" fill="#25E899"></path>
            <polygon id="Fill-2" fill="#15003E" points="342 956 877 956 877 933 342 933"></polygon>
            <polygon id="Fill-3" fill="#15003E" points="342 946 347.805415 1024.44321 400.804989 1096.03666 447.248313 1100.43289 617.25023 1117 791.552024 1104.50404 849.977726 1064.00536 877 986.897277 865.40465 946"></polygon>
            <g id="Group-108">
                <path d="M353.061765,823.318737 L353.061765,986.002805 C353.061765,1047.76619 403.339284,1098.01181 465.137123,1098.01181 L752.870242,1098.01181 C814.66808,1098.01181 864.9456,1047.76619 864.9456,986.002805 L864.9456,823.318737 L353.061765,823.318737 Z M752.870242,1121.22531 L465.137123,1121.22531 C390.533769,1121.22531 329.835316,1060.56456 329.835316,986.002805 L329.835316,811.711987 C329.835316,805.301193 335.034169,800.105238 341.44854,800.105238 L876.558824,800.105238 C882.977066,800.105238 888.172049,805.301193 888.172049,811.711987 L888.172049,986.002805 C888.172049,1060.56456 827.477467,1121.22531 752.870242,1121.22531 Z" id="Fill-4" fill="#15003E"></path>
                <path d="M661.280999,951.960209 C661.280999,921.469279 636.544831,896.746902 606.036891,896.746902 C575.52895,896.746902 550.792782,921.469279 550.792782,951.960209 C550.792782,982.455009 575.52895,1007.17352 606.036891,1007.17352 C636.544831,1007.17352 661.280999,982.455009 661.280999,951.960209" id="Fill-6" fill="#25E899"></path>
                <path d="M606.038826,908.355586 C581.980096,908.355586 562.407942,927.916828 562.407942,951.962144 C562.407942,976.003591 581.980096,995.568701 606.038826,995.568701 C630.097556,995.568701 649.66971,976.003591 649.66971,951.962144 C649.66971,927.916828 630.097556,908.355586 606.038826,908.355586 M606.038826,1018.7822 C569.174581,1018.7822 539.181493,988.805835 539.181493,951.962144 C539.181493,915.114583 569.174581,885.142087 606.038826,885.142087 C642.903072,885.142087 672.896159,915.114583 672.896159,951.962144 C672.896159,988.805835 642.903072,1018.7822 606.038826,1018.7822" id="Fill-8" fill="#15003E"></path>
                <path d="M398.849225,1083.82836 C398.849225,1068.94077 386.775342,1056.87362 371.879447,1056.87362 C356.987422,1056.87362 344.909668,1068.94077 344.909668,1083.82836 C344.909668,1098.71595 356.987422,1110.7831 371.879447,1110.7831 C386.775342,1110.7831 398.849225,1098.71595 398.849225,1083.82836" id="Fill-10" fill="#15003E"></path>
                <path d="M872.644006,1083.82836 C872.644006,1068.94077 860.570124,1056.87362 845.674228,1056.87362 C830.782203,1056.87362 818.70445,1068.94077 818.70445,1083.82836 C818.70445,1098.71595 830.782203,1110.7831 845.674228,1110.7831 C860.570124,1110.7831 872.644006,1098.71595 872.644006,1083.82836" id="Fill-12" fill="#15003E"></path>
                <path d="M653.523752,1137.29021 C653.523752,1112.71872 633.591588,1092.79767 609.006392,1092.79767 C584.417325,1092.79767 564.489032,1112.71872 564.489032,1137.29021 C564.489032,1161.86556 584.417325,1181.78275 609.006392,1181.78275 C633.591588,1181.78275 653.523752,1161.86556 653.523752,1137.29021" id="Fill-14" fill="#EFF4EE"></path>
                <path d="M842.6695,1065.46996 C842.6695,1056.23099 835.175099,1048.74464 825.934843,1048.74464 C816.686846,1048.74464 809.196316,1056.23099 809.196316,1065.46996 C809.196316,1074.7128 816.686846,1082.19916 825.934843,1082.19916 C835.175099,1082.19916 842.6695,1074.7128 842.6695,1065.46996" id="Fill-16" fill="#EFF4EE"></path>
                <path d="M405.35534,1065.46996 C405.35534,1056.23099 397.860939,1048.74464 388.616813,1048.74464 C379.372686,1048.74464 371.882156,1056.23099 371.882156,1065.46996 C371.882156,1074.7128 379.372686,1082.19916 388.616813,1082.19916 C397.860939,1082.19916 405.35534,1074.7128 405.35534,1065.46996" id="Fill-18" fill="#EFF4EE"></path>
                <path d="M328.610508,1456.19261 L361.173989,1456.19261 C379.131905,1456.19261 393.741342,1441.59132 393.741342,1423.64342 L393.741342,1204.40353 C393.741342,1186.45562 379.131905,1171.85433 361.173989,1171.85433 C343.216073,1171.85433 328.610508,1186.45562 328.610508,1204.40353 L328.610508,1456.19261 Z M361.173989,1479.40611 L316.997284,1479.40611 C310.582913,1479.40611 305.384059,1474.21016 305.384059,1467.79936 L305.384059,1204.40353 C305.384059,1173.65725 330.410558,1148.64083 361.173989,1148.64083 C391.937421,1148.64083 416.96779,1173.65725 416.96779,1204.40353 L416.96779,1423.64342 C416.96779,1454.3897 391.937421,1479.40611 361.173989,1479.40611 Z" id="Fill-20" fill="#15003E"></path>
                <path d="M457.709304,1507.14972 C451.294933,1507.14972 446.09608,1501.95377 446.09608,1495.54297 L446.09608,1201.67169 C446.09608,1195.26089 451.294933,1190.06494 457.709304,1190.06494 C464.123675,1190.06494 469.322529,1195.26089 469.322529,1201.67169 L469.322529,1495.54297 C469.322529,1501.95377 464.123675,1507.14972 457.709304,1507.14972" id="Fill-22" fill="#15003E"></path>
                <path d="M346.533197,1590.4297 C336.650343,1590.4297 328.610121,1598.46544 328.610121,1608.34665 C328.610121,1618.22786 336.650343,1626.2636 346.533197,1626.2636 L428.170294,1626.2636 C438.057019,1626.2636 446.097241,1618.22786 446.097241,1608.34665 C446.097241,1598.46544 438.057019,1590.4297 428.170294,1590.4297 L346.533197,1590.4297 Z M428.170294,1649.4771 L346.533197,1649.4771 C323.844828,1649.4771 305.383672,1631.02624 305.383672,1608.34665 C305.383672,1585.66706 323.844828,1567.2162 346.533197,1567.2162 L428.170294,1567.2162 C450.862534,1567.2162 469.32369,1585.66706 469.32369,1608.34665 C469.32369,1631.02624 450.862534,1649.4771 428.170294,1649.4771 Z" id="Fill-24" fill="#15003E"></path>
                <path d="M293.097655,1777.6752 C277.694648,1777.6752 265.16785,1790.19501 265.16785,1805.58943 C265.16785,1820.97611 277.694648,1833.49979 293.097655,1833.49979 L497.072329,1833.49979 C512.475335,1833.49979 525.002133,1820.97611 525.002133,1805.58943 C525.002133,1790.19501 512.475335,1777.6752 497.072329,1777.6752 L293.097655,1777.6752 Z M497.072329,1856.71329 L293.097655,1856.71329 C264.889133,1856.71329 241.941401,1833.77835 241.941401,1805.58943 C241.941401,1777.39663 264.889133,1754.4617 293.097655,1754.4617 L497.072329,1754.4617 C525.280851,1754.4617 548.228582,1777.39663 548.228582,1805.58943 C548.228582,1833.77835 525.280851,1856.71329 497.072329,1856.71329 Z" id="Fill-26" fill="#15003E"></path>
                <polygon id="Clip-29" points="0 1888.67248 1216.8414 1888.67248 1216.8414 0.633498163 0 0.633498163"></polygon>
                <path d="M358.14797,1754.46363 L413.388208,1754.46363 L413.388208,1649.47671 L358.14797,1649.47671 L358.14797,1754.46363 Z M424.997561,1777.67713 L346.534746,1777.67713 C340.116504,1777.67713 334.921521,1772.48118 334.921521,1766.07038 L334.921521,1637.86996 C334.921521,1631.45917 340.116504,1626.26322 346.534746,1626.26322 L424.997561,1626.26322 C431.411932,1626.26322 436.610785,1631.45917 436.610785,1637.86996 L436.610785,1766.07038 C436.610785,1772.48118 431.411932,1777.67713 424.997561,1777.67713 Z" id="Fill-28" fill="#15003E"></path>
                <path d="M457.709304,1549.07292 L316.995735,1549.07292 C310.581364,1549.07292 305.382511,1543.87696 305.382511,1537.46617 C305.382511,1531.05537 310.581364,1525.85942 316.995735,1525.85942 L457.709304,1525.85942 C464.123675,1525.85942 469.322529,1531.05537 469.322529,1537.46617 C469.322529,1543.87696 464.123675,1549.07292 457.709304,1549.07292" id="Fill-30" fill="#15003E"></path>
                <polygon id="Fill-31" fill="#15003E" points="294.553953 1872.89117 370.279918 1872.89117 370.279918 1845.10461 294.553953 1845.10461"></polygon>
                <path d="M306.167178,1861.28442 L358.670565,1861.28442 L358.670565,1856.71136 L306.167178,1856.71136 L306.167178,1861.28442 Z M370.279918,1884.49791 L294.553953,1884.49791 C288.139582,1884.49791 282.940729,1879.30196 282.940729,1872.89117 L282.940729,1845.10461 C282.940729,1838.69381 288.139582,1833.49786 294.553953,1833.49786 L370.279918,1833.49786 C376.698161,1833.49786 381.893143,1838.69381 381.893143,1845.10461 L381.893143,1872.89117 C381.893143,1879.30196 376.698161,1884.49791 370.279918,1884.49791 Z" id="Fill-32" fill="#15003E"></path>
                <polygon id="Fill-33" fill="#15003E" points="409.517133 1872.89117 485.246969 1872.89117 485.246969 1845.10461 409.517133 1845.10461"></polygon>
                <path d="M421.126486,1861.28442 L473.629874,1861.28442 L473.629874,1856.71136 L421.126486,1856.71136 L421.126486,1861.28442 Z M485.246969,1884.49791 L409.513262,1884.49791 C403.098891,1884.49791 397.900037,1879.30196 397.900037,1872.89117 L397.900037,1845.10461 C397.900037,1838.69381 403.098891,1833.49786 409.513262,1833.49786 L485.246969,1833.49786 C491.66134,1833.49786 496.860194,1838.69381 496.860194,1845.10461 L496.860194,1872.89117 C496.860194,1879.30196 491.66134,1884.49791 485.246969,1884.49791 Z" id="Fill-34" fill="#15003E"></path>
                <path d="M316.997284,1370.12818 L405.354566,1370.12818" id="Fill-35" fill="#15003E"></path>
                <polygon id="Fill-36" fill="#15003E" points="316.998445 1381.73609 405.355727 1381.73609 405.355727 1358.52259 316.998445 1358.52259"></polygon>
                <path d="M316.997284,1255.34903 L405.354566,1255.34903" id="Fill-37" fill="#15003E"></path>
                <polygon id="Fill-38" fill="#15003E" points="316.998445 1266.95694 405.355727 1266.95694 405.355727 1243.74344 316.998445 1243.74344"></polygon>
                <path d="M377.297403,1480.51688 C365.467398,1480.51688 355.843906,1490.13113 355.843906,1501.95454 C355.843906,1513.77795 365.467398,1523.39608 377.297403,1523.39608 C389.127408,1523.39608 398.750899,1513.77795 398.750899,1501.95454 C398.750899,1490.13113 389.127408,1480.51688 377.297403,1480.51688 M377.297403,1546.60958 C352.661883,1546.60958 332.617457,1526.57633 332.617457,1501.95454 C332.617457,1477.33663 352.661883,1457.30338 377.297403,1457.30338 C401.932923,1457.30338 421.977348,1477.33663 421.977348,1501.95454 C421.977348,1526.57633 401.932923,1546.60958 377.297403,1546.60958" id="Fill-39" fill="#15003E"></path>
                <path d="M385.765379,1590.4297 C379.351008,1590.4297 374.152155,1585.23374 374.152155,1578.82295 L374.152155,1537.4681 C374.152155,1531.05344 379.351008,1525.86135 385.765379,1525.86135 C392.17975,1525.86135 397.378603,1531.05344 397.378603,1537.4681 L397.378603,1578.82295 C397.378603,1585.23374 392.17975,1590.4297 385.765379,1590.4297" id="Fill-40" fill="#15003E"></path>
                <path d="M438.334962,1179.95043 C435.361977,1179.95043 432.392862,1178.81683 430.124412,1176.54965 L394.038253,1140.48361 L344.910443,1140.48361 C338.496072,1140.48361 333.297218,1135.28766 333.297218,1128.87686 C333.297218,1122.46607 338.496072,1117.27011 344.910443,1117.27011 L398.849999,1117.27011 C401.931375,1117.27011 404.881134,1118.49269 407.060549,1120.67089 L446.545512,1160.13771 C451.082411,1164.67208 451.082411,1172.01915 446.545512,1176.54965 C444.277062,1178.81683 441.307947,1179.95043 438.334962,1179.95043" id="Fill-41" fill="#15003E"></path>
                <path d="M864.100157,1172.9268 C846.142241,1172.9268 831.532805,1187.52809 831.532805,1205.47599 L831.532805,1424.71588 C831.532805,1442.66378 846.142241,1457.26507 864.100157,1457.26507 L896.663638,1457.26507 L896.663638,1205.47599 C896.663638,1187.52809 882.058073,1172.9268 864.100157,1172.9268 M908.276863,1480.47857 L864.100157,1480.47857 C833.336726,1480.47857 808.306356,1455.46216 808.306356,1424.71588 L808.306356,1205.47599 C808.306356,1174.72971 833.336726,1149.7133 864.100157,1149.7133 C894.863589,1149.7133 919.890087,1174.72971 919.890087,1205.47599 L919.890087,1468.87182 C919.890087,1475.28262 914.691234,1480.47857 908.276863,1480.47857" id="Fill-42" fill="#15003E"></path>
                <path d="M767.565229,1508.22257 C761.150858,1508.22257 755.952005,1503.02662 755.952005,1496.61582 L755.952005,1202.74454 C755.952005,1196.33374 761.150858,1191.13779 767.565229,1191.13779 C773.9796,1191.13779 779.178453,1196.33374 779.178453,1202.74454 L779.178453,1496.61582 C779.178453,1503.02662 773.9796,1508.22257 767.565229,1508.22257" id="Fill-43" fill="#15003E"></path>
                <path d="M797.105014,1591.50255 C787.218289,1591.50255 779.178066,1599.53829 779.178066,1609.4195 C779.178066,1619.30071 787.218289,1627.33645 797.105014,1627.33645 L878.74211,1627.33645 C888.624964,1627.33645 896.665187,1619.30071 896.665187,1609.4195 C896.665187,1599.53829 888.624964,1591.50255 878.74211,1591.50255 L797.105014,1591.50255 Z M878.74211,1650.54995 L797.105014,1650.54995 C774.412773,1650.54995 755.951618,1632.09909 755.951618,1609.4195 C755.951618,1586.73991 774.412773,1568.28905 797.105014,1568.28905 L878.74211,1568.28905 C901.43048,1568.28905 919.891636,1586.73991 919.891636,1609.4195 C919.891636,1632.09909 901.43048,1650.54995 878.74211,1650.54995 Z" id="Fill-44" fill="#15003E"></path>
                <path d="M728.200656,1778.74843 C712.79765,1778.74843 700.270852,1791.26825 700.270852,1806.66267 C700.270852,1822.04935 712.79765,1834.57303 728.200656,1834.57303 L932.17533,1834.57303 C947.578337,1834.57303 960.105135,1822.04935 960.105135,1806.66267 C960.105135,1791.26825 947.578337,1778.74843 932.17533,1778.74843 L728.200656,1778.74843 Z M932.17533,1857.78653 L728.200656,1857.78653 C699.992134,1857.78653 677.044403,1834.85159 677.044403,1806.66267 C677.044403,1778.46987 699.992134,1755.53493 728.200656,1755.53493 L932.17533,1755.53493 C960.383852,1755.53493 983.331584,1778.46987 983.331584,1806.66267 C983.331584,1834.85159 960.383852,1857.78653 932.17533,1857.78653 Z" id="Fill-45" fill="#15003E"></path>
                <path d="M811.888261,1755.53532 L867.128499,1755.53532 L867.128499,1650.5484 L811.888261,1650.5484 L811.888261,1755.53532 Z M878.741723,1778.74882 L800.275037,1778.74882 C793.860666,1778.74882 788.661813,1773.55287 788.661813,1767.14207 L788.661813,1638.94165 C788.661813,1632.53086 793.860666,1627.33491 800.275037,1627.33491 L878.741723,1627.33491 C885.156094,1627.33491 890.354948,1632.53086 890.354948,1638.94165 L890.354948,1767.14207 C890.354948,1773.55287 885.156094,1778.74882 878.741723,1778.74882 Z" id="Fill-46" fill="#15003E"></path>
                <path d="M908.27725,1550.14615 L767.563681,1550.14615 C761.14931,1550.14615 755.950456,1544.9502 755.950456,1538.5394 C755.950456,1532.12861 761.14931,1526.93265 767.563681,1526.93265 L908.27725,1526.93265 C914.691621,1526.93265 919.890474,1532.12861 919.890474,1538.5394 C919.890474,1544.9502 914.691621,1550.14615 908.27725,1550.14615" id="Fill-47" fill="#15003E"></path>
                <polygon id="Fill-48" fill="#15003E" points="854.992679 1873.96285 930.718645 1873.96285 930.718645 1846.1763 854.992679 1846.1763"></polygon>
                <path d="M866.605904,1862.35611 L919.109291,1862.35611 L919.109291,1857.78305 L866.605904,1857.78305 L866.605904,1862.35611 Z M930.722516,1885.5696 L854.992679,1885.5696 C848.578308,1885.5696 843.379455,1880.37365 843.379455,1873.96285 L843.379455,1846.18017 C843.379455,1839.7655 848.578308,1834.57342 854.992679,1834.57342 L930.722516,1834.57342 C937.136887,1834.57342 942.33574,1839.7655 942.33574,1846.18017 L942.33574,1873.96285 C942.33574,1880.37365 937.136887,1885.5696 930.722516,1885.5696 Z" id="Fill-49" fill="#15003E"></path>
                <polygon id="Fill-50" fill="#15003E" points="740.033371 1873.96285 815.759336 1873.96285 815.759336 1846.1763 740.033371 1846.1763"></polygon>
                <path d="M751.646595,1862.35611 L804.149983,1862.35611 L804.149983,1857.78305 L751.646595,1857.78305 L751.646595,1862.35611 Z M815.759336,1885.5696 L740.033371,1885.5696 C733.619,1885.5696 728.420146,1880.37365 728.420146,1873.96285 L728.420146,1846.18017 C728.420146,1839.7655 733.619,1834.57342 740.033371,1834.57342 L815.759336,1834.57342 C822.177578,1834.57342 827.372561,1839.7655 827.372561,1846.18017 L827.372561,1873.96285 C827.372561,1880.37365 822.177578,1885.5696 815.759336,1885.5696 Z" id="Fill-51" fill="#15003E"></path>
                <path d="M908.27725,1371.20103 L819.919967,1371.20103" id="Fill-52" fill="#15003E"></path>
                <polygon id="Fill-53" fill="#15003E" points="819.920742 1382.80778 908.278024 1382.80778 908.278024 1359.59428 819.920742 1359.59428"></polygon>
                <path d="M908.27725,1256.42188 L819.919967,1256.42188" id="Fill-54" fill="#15003E"></path>
                <polygon id="Fill-55" fill="#15003E" points="819.920742 1268.02863 908.278024 1268.02863 908.278024 1244.81513 819.920742 1244.81513"></polygon>
                <path d="M847.97713,1481.58973 C836.147126,1481.58973 826.523634,1491.20398 826.523634,1503.02739 C826.523634,1514.8508 836.147126,1524.46893 847.97713,1524.46893 C859.807135,1524.46893 869.430627,1514.8508 869.430627,1503.02739 C869.430627,1491.20398 859.807135,1481.58973 847.97713,1481.58973 M847.97713,1547.68243 C823.34161,1547.68243 803.297185,1527.64918 803.297185,1503.02739 C803.297185,1478.40948 823.34161,1458.37623 847.97713,1458.37623 C872.612651,1458.37623 892.657076,1478.40948 892.657076,1503.02739 C892.657076,1527.64918 872.612651,1547.68243 847.97713,1547.68243" id="Fill-56" fill="#15003E"></path>
                <path d="M839.509154,1591.50255 C833.094783,1591.50255 827.89593,1586.30659 827.89593,1579.8958 L827.89593,1538.54095 C827.89593,1532.12629 833.094783,1526.9342 839.509154,1526.9342 C845.923525,1526.9342 851.122379,1532.12629 851.122379,1538.54095 L851.122379,1579.8958 C851.122379,1586.30659 845.923525,1591.50255 839.509154,1591.50255" id="Fill-57" fill="#15003E"></path>
                <path d="M786.939571,1181.02366 C783.966586,1181.02366 780.997472,1179.89007 778.729022,1177.62289 C774.192122,1173.09239 774.192122,1165.74144 778.729022,1161.21094 L818.217856,1121.74413 C820.397271,1119.56593 823.34703,1118.34335 826.428405,1118.34335 L880.364091,1118.34335 C886.778462,1118.34335 891.977315,1123.5393 891.977315,1129.9501 C891.977315,1136.36089 886.778462,1141.55685 880.364091,1141.55685 L831.23628,1141.55685 L795.150121,1177.62289 C792.881671,1179.89007 789.912557,1181.02366 786.939571,1181.02366" id="Fill-58" fill="#15003E"></path>
                <polygon id="Fill-59" fill="#15003E" points="180.004979 1024.04702 347.634131 1024.04702 347.634131 938.431769 180.004979 938.431769"></polygon>
                <polygon id="Fill-60" fill="#15003E" points="879.964983 1024.04702 1047.59026 1024.04702 1047.59026 938.431769 879.964983 938.431769"></polygon>
                <path d="M1205.2274,1877.06573 L11.6124502,1877.06573" id="Fill-61" fill="#15003E"></path>
                <path d="M1205.2274,1888.67248 L11.6124502,1888.67248 C5.19807925,1888.67248 -0.000774214961,1883.47652 -0.000774214961,1877.06573 C-0.000774214961,1870.65493 5.19807925,1865.45898 11.6124502,1865.45898 L1205.2274,1865.45898 C1211.64177,1865.45898 1216.84062,1870.65493 1216.84062,1877.06573 C1216.84062,1883.47652 1211.64177,1888.67248 1205.2274,1888.67248" id="Fill-62" fill="#15003E"></path>
                <path d="M421.978123,800.106398 L779.483494,800.106398 L779.483494,737.751072 L421.978123,737.751072 L421.978123,800.106398 Z M398.747803,823.319897 L802.706072,823.319897 L802.706072,714.537573 L398.747803,714.537573 L398.747803,823.319897 Z" id="Fill-63" fill="#15003E"></path>
                <path d="M751.634982,694.979426 L454.665478,694.979426 C448.251107,694.979426 443.052254,689.783471 443.052254,683.372677 C443.052254,676.961882 448.251107,671.765927 454.665478,671.765927 L751.634982,671.765927 C758.049353,671.765927 763.248206,676.961882 763.248206,683.372677 C763.248206,689.783471 758.049353,694.979426 751.634982,694.979426" id="Fill-64" fill="#25E899"></path>
                <polygon id="Fill-65" fill="#25E899" points="398.006105 438.338721 771.270622 438.338721 802.901174 450.405871 779.105677 535.537509 421.495787 535.537509"></polygon>
                <path d="M728.556021,640.761591 L472.046991,640.761591 C444.1288,640.761591 421.498496,618.140037 421.498496,590.233542 L421.498496,535.53867 L779.108387,535.53867 L779.108387,590.233542 C779.108387,618.140037 756.478084,640.761591 728.556021,640.761591" id="Fill-66" fill="#EFF4EE"></path>
                <path d="M433.110559,547.144646 L433.110559,590.236637 C433.110559,611.697517 450.58072,629.154068 472.049701,629.154068 L728.55486,629.154068 C750.023841,629.154068 767.494001,611.697517 767.494001,590.236637 L767.494001,547.144646 L433.110559,547.144646 Z M728.55486,652.367567 L472.049701,652.367567 C437.771334,652.367567 409.884111,624.495893 409.884111,590.236637 L409.884111,523.931147 L790.72045,523.931147 L790.72045,590.236637 C790.72045,624.495893 762.833227,652.367567 728.55486,652.367567 Z" id="Fill-67" fill="#15003E"></path>
                <path d="M534.74137,438.338721 C478.599172,413.697592 439.392927,357.640861 439.392927,292.430274 C439.392927,253.942293 453.050079,218.642299 475.788772,191.111089 C505.015387,155.706634 688.906925,153.907588 718.106442,186.851412 C743.020679,214.95909 758.141097,251.926587 758.141097,292.430274 C758.141097,357.636992 718.942594,413.689854 662.808138,438.334852" id="Fill-68" fill="#0FCE7C"></path>
                <path d="M524.663027,449.941988 C522.959754,449.941988 521.225513,449.562834 519.588048,448.765838 C457.677949,418.661798 419.21882,357.238881 419.21882,288.465021 C419.21882,254.317964 428.911992,221.130399 447.253144,192.504286 C450.710014,187.107147 457.890858,185.524761 463.294878,188.99131 C468.695028,192.446252 470.270555,199.626961 466.813685,205.0241 C450.872599,229.90897 442.445269,258.759481 442.445269,288.465021 C442.445269,348.282339 475.895227,401.708206 529.749619,427.896902 C535.521392,430.697998 537.921458,437.642703 535.111058,443.411257 C533.105841,447.539391 528.967662,449.941988 524.663027,449.941988" id="Fill-69" fill="#15003E"></path>
                <path d="M672.051103,449.0916 C667.792921,449.0916 663.697324,446.743168 661.657268,442.680806 C658.78493,436.947071 661.107575,429.975284 666.840637,427.100679 C719.707905,400.63729 752.546233,347.509329 752.546233,288.461926 C752.546233,255.243409 742.183366,223.572459 722.580243,196.873066 C718.78659,191.708063 719.901459,184.442238 725.073215,180.646831 C730.233358,176.855293 737.507107,177.965672 741.308503,183.142282 C763.853643,213.846003 775.772682,250.267983 775.772682,288.461926 C775.772682,356.353672 738.018089,417.428388 677.246086,447.861285 C675.573782,448.693102 673.800829,449.0916 672.051103,449.0916" id="Fill-70" fill="#15003E"></path>
                <path d="M430.528553,523.931147 L770.076008,523.931147 L826.040137,303.747241 C825.265922,179.999948 724.300549,79.5667452 600.30228,79.5667452 C476.307883,79.5667452 375.34251,179.999948 374.568295,303.747241 L430.528553,523.931147 Z M788.138443,547.144646 L412.466118,547.144646 L351.337975,306.629584 L351.337975,305.17874 C351.337975,167.975356 463.026226,56.3532463 600.30228,56.3532463 C737.582206,56.3532463 849.270457,167.975356 849.270457,305.17874 L849.270457,306.629584 L848.910447,308.034001 L788.138443,547.144646 Z" id="Fill-71" fill="#15003E"></path>
                <path d="M362.9512,313.354535 C356.536829,313.354535 351.337975,308.15858 351.337975,301.747785 L351.337975,75.9810334 C351.337975,69.5702388 356.536829,64.374284 362.9512,64.374284 C369.365571,64.374284 374.564424,69.5702388 374.564424,75.9810334 L374.564424,301.747785 C374.564424,308.15858 369.365571,313.354535 362.9512,313.354535" id="Fill-72" fill="#15003E"></path>
                <path d="M837.656845,313.354535 C831.242474,313.354535 826.043621,308.15858 826.043621,301.747785 L826.043621,12.2406345 C826.043621,5.82983988 831.242474,0.633885054 837.656845,0.633885054 C844.071216,0.633885054 849.270069,5.82983988 849.270069,12.2406345 L849.270069,301.747785 C849.270069,308.15858 844.071216,313.354535 837.656845,313.354535" id="Fill-73" fill="#15003E"></path>
                <path d="M381.440614,414.754967 L356.936711,414.754967 C330.659855,414.754967 309.279909,393.39081 309.279909,367.124736 L309.279909,275.648075 C309.279909,249.38587 330.659855,228.017844 356.936711,228.017844 L367.326676,228.017844 C373.744918,228.017844 378.9399,233.213799 378.9399,239.624593 C378.9399,246.039257 373.744918,251.231343 367.326676,251.231343 L356.936711,251.231343 C343.46537,251.231343 332.506358,262.184245 332.506358,275.648075 L332.506358,367.124736 C332.506358,380.588565 343.46537,391.541468 356.936711,391.541468 L381.440614,391.541468 C387.854985,391.541468 393.053839,396.737423 393.053839,403.148217 C393.053839,409.559012 387.854985,414.754967 381.440614,414.754967" id="Fill-74" fill="#15003E"></path>
                <path d="M844.517938,414.754967 L820.017906,414.754967 C813.603535,414.754967 808.404681,409.559012 808.404681,403.148217 C808.404681,396.737423 813.603535,391.541468 820.017906,391.541468 L844.517938,391.541468 C857.985407,391.541468 868.948291,380.588565 868.948291,367.124736 L868.948291,275.648075 C868.948291,262.184245 857.985407,251.231343 844.517938,251.231343 L834.127973,251.231343 C827.713602,251.231343 822.514749,246.039257 822.514749,239.624593 C822.514749,233.213799 827.713602,228.017844 834.127973,228.017844 L844.517938,228.017844 C870.794794,228.017844 892.17474,249.38587 892.17474,275.648075 L892.17474,367.124736 C892.17474,393.39081 870.794794,414.754967 844.517938,414.754967" id="Fill-75" fill="#15003E"></path>
                <path d="M365.502625,277.106269 C362.576093,277.106269 359.645689,276.007497 357.388852,273.802215 C352.801629,269.325878 352.712594,261.978806 357.195299,257.390271 C423.123574,189.90863 510.795676,152.739949 604.065352,152.739949 C691.907782,152.739949 775.844297,186.240897 840.413825,247.056395 C845.082341,251.455353 845.29525,258.802426 840.90158,263.468339 C836.496297,268.122645 829.148997,268.350911 824.480481,263.955822 C764.238814,207.206555 685.961811,175.953448 604.065352,175.953448 C517.105528,175.953448 435.332944,210.634415 373.809952,273.608769 C371.537631,275.937857 368.518192,277.106269 365.502625,277.106269" id="Fill-76" fill="#15003E"></path>
                <path d="M802.9004,449.930381 L398.00533,449.930381 C391.59096,449.930381 386.392106,444.734427 386.392106,438.323632 C386.392106,431.912837 391.59096,426.716883 398.00533,426.716883 L802.9004,426.716883 C809.314771,426.716883 814.513624,431.912837 814.513624,438.323632 C814.513624,444.734427 809.314771,449.930381 802.9004,449.930381" id="Fill-77" fill="#15003E"></path>
                <path d="M683.603939,239.626141 C683.603939,262.576554 664.98794,281.178304 642.028596,281.178304 C619.06538,281.178304 600.453252,262.576554 600.453252,239.626141 C600.453252,216.675729 619.06538,198.073978 642.028596,198.073978 C664.98794,198.073978 683.603939,216.675729 683.603939,239.626141" id="Fill-78" fill="#FFFFFF"></path>
                <path d="M713.313664,301.747785 C713.313664,311.025447 705.788295,318.55049 696.501586,318.55049 C687.218749,318.55049 679.689508,311.025447 679.689508,301.747785 C679.689508,292.470124 687.218749,284.945081 696.501586,284.945081 C705.788295,284.945081 713.313664,292.470124 713.313664,301.747785" id="Fill-79" fill="#FFFFFF"></path>
                <path d="M743.873864,514.017048 C727.390828,514.017048 719.157051,501.570744 713.710449,493.33769 C708.52708,485.507003 706.363149,483.065717 702.914022,483.065717 C699.468765,483.065717 697.304834,485.503134 692.121465,493.333821 C686.674863,501.570744 678.441087,514.017048 661.954179,514.017048 C645.471143,514.017048 637.233495,501.570744 631.786893,493.33769 C626.599653,485.507003 624.435722,483.065717 620.986594,483.065717 C617.529725,483.065717 615.365794,485.507003 610.178554,493.33769 C604.72808,501.574613 596.490433,514.017048 580.003525,514.017048 C563.516618,514.017048 555.282842,501.570744 549.832368,493.33769 C544.645128,485.507003 542.481197,483.065717 539.03207,483.065717 C535.571329,483.065717 533.407398,485.507003 528.216287,493.341559 C522.761942,501.574613 514.520424,514.017048 498.029645,514.017048 C481.542738,514.017048 473.301219,501.574613 467.846875,493.341559 C462.659635,485.507003 460.491833,483.065717 457.031092,483.065717 C450.616721,483.065717 445.417868,477.869762 445.417868,471.458967 C445.417868,465.048173 450.616721,459.852218 457.031092,459.852218 C473.521871,459.852218 481.763389,472.294653 487.217733,480.531576 C492.404974,488.362263 494.576647,490.803549 498.029645,490.803549 C501.490386,490.803549 503.654317,488.362263 508.845428,480.527707 C514.299773,472.294653 522.541291,459.852218 539.03207,459.852218 C555.518977,459.852218 563.752753,472.298522 569.203227,480.531576 C574.390467,488.362263 576.554398,490.803549 580.003525,490.803549 C583.456524,490.803549 585.620455,488.362263 590.807695,480.531576 C596.258169,472.298522 604.495816,459.852218 620.986594,459.852218 C637.473502,459.852218 645.711149,472.298522 651.157751,480.535445 C656.341121,488.366132 658.505051,490.803549 661.954179,490.803549 C665.403307,490.803549 667.567238,488.362263 672.750607,480.531576 C678.197209,472.298522 686.430985,459.852218 702.914022,459.852218 C719.400929,459.852218 727.634705,472.298522 733.081308,480.535445 C738.264677,488.366132 740.428608,490.803549 743.873864,490.803549 C750.288235,490.803549 755.487089,495.999504 755.487089,502.410299 C755.487089,508.821094 750.288235,514.017048 743.873864,514.017048" id="Fill-80" fill="#15003E"></path>
                <path d="M756.900805,1381.81811 L745.8605,1378.30126 C727.952908,1372.59074 633.293515,1341.56203 527.930601,1291.17713 C367.308094,1215.16453 266.071746,1134.5131 235.196053,1057.97046 C195.703348,960.04431 243.290471,848.267444 341.271245,808.796759 C401.052253,784.701147 468.265725,791.994054 521.15622,828.261277 C525.360208,830.706433 529.873881,831.159096 533.876572,829.53802 C537.82894,827.944026 540.832894,824.411705 542.15293,819.799957 C555.090062,757.019049 598.461584,705.183306 658.246464,681.10317 C756.254336,641.64796 868.070331,689.200812 907.563037,787.115351 C938.434858,863.657994 921.452453,991.920313 858.458453,1158.04385 C825.898842,1244.95906 787.726174,1320.63506 767.217219,1361.29351 L756.900805,1381.81811 Z M774.545164,1404.05664 L775.354219,1402.58645 C795.735428,1365.46033 847.75106,1266.53214 890.228364,1149.97716 C949.962919,986.101463 964.483321,857.185297 932.214041,777.187711 C887.239894,665.670062 759.858306,611.501363 648.309415,656.46591 C592.031729,679.130023 547.278233,724.972814 525.518922,782.221171 L520.312326,795.913267 L507.061637,789.65336 C470.569015,772.417337 430.32145,765.666078 391.014556,769.546601 C370.648832,771.558437 350.538598,776.413928 331.334196,784.151761 C219.758207,829.100832 165.574773,956.388184 210.54892,1067.89809 C242.794973,1147.87247 342.645477,1230.65954 499.288519,1307.30665 C610.717407,1361.83902 716.955184,1397.12354 757.45824,1409.76329 L759.029896,1410.25851 C761.913847,1411.11741 765.506204,1411.06325 767.995305,1410.0612 C771.084423,1408.81541 772.861247,1407.18659 774.545164,1404.05664 Z" id="Fill-81" fill="#15003E"></path>
                <path d="M756.900805,1381.81811 L745.8605,1378.30126 C727.952908,1372.59074 633.293515,1341.56203 527.930601,1291.17713 C367.308094,1215.16453 266.071746,1134.5131 235.196053,1057.97046 C195.703348,960.04431 243.290471,848.267444 341.271245,808.796759 C401.052253,784.701147 468.265725,791.994054 521.15622,828.261277 C525.360208,830.706433 529.873881,831.159096 533.876572,829.53802 C537.82894,827.944026 540.832894,824.411705 542.15293,819.799957 C555.090062,757.019049 598.461584,705.183306 658.246464,681.10317 C756.254336,641.64796 868.070331,689.200812 907.563037,787.115351 C938.434858,863.657994 921.452453,991.920313 858.458453,1158.04385 C825.898842,1244.95906 787.726174,1320.63506 767.217219,1361.29351 L756.900805,1381.81811 Z" id="Fill-82" fill="#F9006C"></path>
                <path d="M385.047295,902.99056 C392.189428,900.112086 395.286288,892.842392 392.402337,885.700372 C389.526128,878.56609 382.248508,875.467088 375.114117,878.349431 C345.155869,890.412712 321.728124,913.359256 309.127776,942.952598 C296.527427,972.54594 296.240968,1005.32727 308.31485,1035.26108 C309.708437,1038.72763 312.213022,1041.37396 315.356335,1042.71261 C318.503519,1044.05125 322.138458,1044.01643 325.610812,1042.61976 C332.749074,1039.74515 335.845934,1032.47159 332.965854,1025.33344 C323.524303,1001.92262 323.721728,976.349085 333.523289,953.329032 C343.328721,930.30511 361.627292,912.422978 385.047295,902.99056" id="Fill-83" fill="#15003E"></path>
                <path d="M568.681406,1345.42979 L453.818874,1252.62609" id="Fill-84" fill="#15003E"></path>
                <path d="M568.673664,1357.03654 C566.111012,1357.03654 563.529005,1356.19311 561.380559,1354.45597 L446.518027,1261.65227 C441.528212,1257.62086 440.753997,1250.31248 444.787657,1245.32931 C448.817446,1240.34228 456.129906,1239.56463 461.119721,1243.59991 L575.982253,1336.40361 C580.972068,1340.43502 581.746283,1347.7434 577.712623,1352.72656 C575.417076,1355.56248 572.060854,1357.03654 568.673664,1357.03654" id="Fill-85" fill="#15003E"></path>
                <path d="M552.932325,1294.19682 L515.259025,1340.77471 C495.419767,1365.30364 459.445868,1369.11065 434.907125,1349.28246 L104.665734,1082.45489 C80.1269903,1062.6267 76.3178527,1026.67672 96.1571111,1002.15166 L133.830411,955.573777 C153.669669,931.048716 189.643568,927.237833 214.182311,947.062161 L544.423703,1213.88972 C568.962446,1233.71792 572.771583,1269.67176 552.932325,1294.19682" id="Fill-86" fill="#FFFFFF"></path>
                <path d="M178.307512,945.99434 C165.021983,945.99434 151.848716,951.762895 142.863951,962.866685 L105.18678,1009.44457 C89.4044082,1028.95552 92.447073,1057.65514 111.965032,1073.42871 L442.206424,1340.25627 C451.659589,1347.89738 463.516691,1351.37554 475.621542,1350.12201 C487.710908,1348.8414 498.580886,1342.92969 506.226259,1333.47793 L543.899559,1286.90005 C551.544932,1277.44828 555.048255,1265.58619 553.7708,1253.50356 C552.489474,1241.41706 546.578343,1230.55702 537.121307,1222.91591 L206.883786,956.088343 C198.475812,949.298395 188.360693,945.99434 178.307512,945.99434 M470.693663,1373.59473 C455.027424,1373.59473 439.957329,1368.29044 427.60473,1358.30864 L97.3672091,1091.48108 C83.082943,1079.94397 74.1562445,1063.53976 72.2207071,1045.28621 C70.2890408,1027.03653 75.5808001,1009.12345 87.1243451,994.854886 L124.801516,948.277001 C148.635724,918.811333 192.007246,914.222798 221.48161,938.035979 L551.723001,1204.86354 C566.003396,1216.40452 574.933966,1232.80873 576.869503,1251.06227 C578.80117,1269.30808 573.50941,1287.22117 561.961994,1301.4936 L524.288694,1348.07148 C512.745149,1362.34392 496.327921,1371.27338 478.068061,1373.20397 C475.602186,1373.46318 473.140183,1373.59473 470.693663,1373.59473" id="Fill-87" fill="#15003E"></path>
                <path d="M482.814386,1216.7771 C463.006096,1200.77139 433.965293,1203.84718 417.950656,1223.64442 C401.93602,1243.44554 405.013524,1272.47015 424.825685,1288.47199 C444.630104,1304.47769 473.670907,1301.40191 489.681672,1281.60466 C505.70018,1261.80741 502.622676,1232.7828 482.814386,1216.7771" id="Fill-88" fill="#25E899"></path>
                <path d="M453.883521,1218.12967 C452.65639,1218.12967 451.421518,1218.19931 450.182774,1218.32698 C441.016068,1219.29808 432.778421,1223.77829 426.983422,1230.94352 C421.188423,1238.10488 418.528995,1247.09625 419.500635,1256.25784 C420.472274,1265.4233 424.954979,1273.65636 432.12421,1279.44813 C439.289569,1285.23989 448.274334,1287.86689 457.452652,1286.92287 C466.619357,1285.95177 474.857004,1281.47157 480.652003,1274.31021 C486.447002,1267.1411 489.106431,1258.15361 488.134791,1248.99202 C487.167022,1239.82655 482.680447,1231.5935 475.515087,1225.80173 C469.313625,1220.79148 461.745674,1218.12967 453.883521,1218.12967 M453.705452,1310.33369 C440.555411,1310.33369 427.893125,1305.88056 417.522515,1297.50049 C405.529926,1287.80885 398.027783,1274.03164 396.405802,1258.703 C394.779951,1243.37435 399.223945,1228.33587 408.920987,1216.34997 C418.61803,1204.3602 432.399056,1196.8661 447.736254,1195.24503 C463.077324,1193.62395 478.12032,1198.0616 490.11291,1207.74937 C502.109371,1217.441 509.611514,1231.21821 511.229623,1246.54686 C512.855475,1261.87551 508.411481,1276.91399 498.714438,1288.90376 C489.017396,1300.88966 475.23637,1308.38375 459.899171,1310.00483 C457.828146,1310.22536 455.757121,1310.33369 453.705452,1310.33369" id="Fill-89" fill="#15003E"></path>
                <path d="M187.98907,1161.39162 C185.426419,1161.39162 182.844412,1160.5482 180.695965,1158.81105 C175.70615,1154.77964 174.931935,1147.47126 178.965595,1142.4881 L288.482172,1007.09536 C292.511961,1002.1122 299.828293,1001.33068 304.814237,1005.36596 C309.804052,1009.39737 310.578267,1016.70575 306.544607,1021.68892 L197.02803,1157.08165 C194.732483,1159.91756 191.376261,1161.39162 187.98907,1161.39162" id="Fill-90" fill="#15003E"></path>
                <path d="M269.780623,1227.47697 C267.217971,1227.47697 264.635964,1226.63355 262.487518,1224.8964 C257.497702,1220.86499 256.723487,1213.55661 260.757147,1208.57345 L370.273725,1073.18071 C374.303514,1068.19368 381.619845,1067.41216 386.605789,1071.45131 C391.595605,1075.48272 392.36982,1082.7911 388.33616,1087.77427 L278.819582,1223.167 C276.524035,1226.00291 273.167813,1227.47697 269.780623,1227.47697" id="Fill-91" fill="#15003E"></path>
                <path d="M654.113317,1467.47437 L565.248924,1395.67115 C552.81116,1385.62357 550.879494,1367.40098 560.936546,1354.97015 L576.389877,1335.86157 C586.446929,1323.43461 604.675821,1321.50402 617.113584,1331.5516 L705.977977,1403.35482" id="Fill-92" fill="#EFF4EE"></path>
                <path d="M654.105962,1479.08112 C651.54331,1479.08112 648.961304,1478.2377 646.812857,1476.50055 L557.948464,1404.69733 C540.551854,1390.64156 537.842101,1365.05641 551.905716,1347.67337 L567.359047,1328.56866 C581.426533,1311.18562 607.014337,1308.46577 624.414818,1322.52542 L713.279212,1394.32864 C718.269027,1398.36005 719.043242,1405.66456 715.009582,1410.6516 C710.975922,1415.63089 703.663462,1416.41241 698.681388,1412.381 L609.816995,1340.57778 C602.376789,1334.56548 591.433261,1335.73003 585.421482,1343.15835 L569.968151,1362.26693 C563.952501,1369.70298 565.113823,1380.63654 572.550158,1386.64497 L661.414551,1458.44819 C666.404367,1462.4796 667.178582,1469.78798 663.144922,1474.77115 C660.849374,1477.60706 657.493152,1479.08112 654.105962,1479.08112" id="Fill-93" fill="#15003E"></path>
                <path d="M705.979526,1403.35405 C688.265487,1389.03905 662.290575,1391.78985 647.97147,1409.49788 C633.644622,1427.20205 636.396956,1453.15861 654.114865,1467.4736 C671.832775,1481.78859 697.803816,1479.03779 712.126793,1461.33363 C726.445898,1443.6256 723.693564,1417.66904 705.979526,1403.35405" id="Fill-94" fill="#25E899"></path>
                <path d="M680.103326,1405.79108 C679.050394,1405.79108 677.989719,1405.84911 676.925174,1405.95744 C669.055279,1406.79313 661.975083,1410.63883 657.000752,1416.79427 C652.02255,1422.94972 649.742486,1430.66821 650.574768,1438.53372 C651.41092,1446.40309 655.258768,1453.4716 661.417648,1458.44703 C674.118645,1468.719 692.823678,1466.73812 703.093639,1454.03646 C713.367472,1441.33868 711.385482,1422.64794 698.676743,1412.37984 C693.354015,1408.07761 686.854481,1405.79108 680.103326,1405.79108 M679.998807,1488.22608 C668.323646,1488.22608 656.578805,1484.38811 646.812083,1476.49939 C635.829844,1467.6241 628.966428,1455.0153 627.476064,1440.97887 C625.989571,1426.94631 630.061942,1413.17297 638.938317,1402.19685 C647.814691,1391.22461 660.434395,1384.36115 674.478655,1382.87548 C688.515172,1381.36661 702.296198,1385.45218 713.282308,1394.32748 C735.947451,1412.64293 739.477872,1445.97751 721.156075,1468.63002 C710.727399,1481.52512 695.42504,1488.22608 679.998807,1488.22608" id="Fill-95" fill="#15003E"></path>
                <path d="M242.755101,1082.09044 L114.994148,978.860012" id="Fill-96" fill="#25E899"></path>
                <path d="M242.747359,1093.69719 C240.184707,1093.69719 237.602701,1092.85377 235.454254,1091.11662 L107.693301,987.886194 C102.703486,983.854783 101.929271,976.550269 105.962931,971.567104 C109.99272,966.580071 117.309051,965.794681 122.294995,969.83383 L250.055948,1073.06426 C255.045764,1077.09567 255.819979,1084.40405 251.786319,1089.38722 C249.490771,1092.22313 246.134549,1093.69719 242.747359,1093.69719" id="Fill-97" fill="#15003E"></path>
                <path d="M575.489852,1169.85139 L602.866093,1223.13024 C617.285847,1251.18376 651.722928,1262.24886 679.792092,1247.83714 L1057.54318,1053.93866 C1085.61235,1039.53081 1096.68362,1005.11293 1082.26387,977.059418 L1054.88763,923.7767 C1040.46787,895.723187 1006.03079,884.661955 977.961629,899.0698 L600.210536,1092.96829 C572.141372,1107.38 561.070099,1141.79788 575.489852,1169.85139" id="Fill-98" fill="#FFFFFF"></path>
                <path d="M1003.98454,904.37331 C996.98951,904.37331 989.901572,905.986649 983.262679,909.395164 L605.511586,1103.29365 C594.699674,1108.84555 586.694291,1118.2741 582.974188,1129.84216 C579.254085,1141.41408 580.264436,1153.73658 585.823299,1164.54634 L585.823299,1164.55021 L613.19954,1217.83292 C624.673406,1240.14496 652.16965,1248.98157 674.486397,1237.51023 L1052.24136,1043.61175 C1063.05714,1038.06372 1071.05866,1028.63517 1074.77876,1017.06711 C1078.49886,1005.49905 1077.48851,993.172681 1071.93352,982.362929 L1044.55341,929.080211 C1036.49383,913.399493 1020.5179,904.37331 1003.98454,904.37331 M653.764533,1265.78814 C646.69208,1265.78814 639.584786,1264.6855 632.655562,1262.46087 C615.17766,1256.84708 600.928233,1244.76058 592.535743,1228.43762 L565.159502,1175.15104 C556.770883,1158.83195 555.241808,1140.21472 560.858738,1122.74269 C566.475667,1105.27067 578.568905,1091.02919 594.90097,1082.64137 L972.655934,888.742888 C1006.36525,871.437224 1047.89414,884.777248 1065.2172,918.475511 L1092.59732,971.758229 C1100.98593,988.081187 1102.51114,1006.69454 1096.89421,1024.16657 C1091.27728,1041.6386 1079.18404,1055.88008 1062.84811,1064.26402 L685.097013,1258.16251 C675.237385,1263.22692 664.537734,1265.78814 653.764533,1265.78814" id="Fill-99" fill="#15003E"></path>
                <path d="M962.238097,1114.47753 C958.018626,1114.47753 953.953997,1112.17552 951.894585,1108.16733 L872.313029,953.298467 C869.382626,947.595685 871.63172,940.600684 877.337684,937.671914 C883.051391,934.747013 890.046423,936.990985 892.972956,942.697636 L972.558383,1097.56649 C975.488786,1103.26928 973.239692,1110.26428 967.529856,1113.19305 C965.834326,1114.06355 964.022663,1114.47753 962.238097,1114.47753" id="Fill-100" fill="#15003E"></path>
                <path d="M868.67809,1162.49891 C864.458619,1162.49891 860.39399,1160.1969 858.334578,1156.1887 L778.756893,1001.31985 C775.82649,995.617063 778.075584,988.622062 783.781549,985.693292 C789.495255,982.77226 796.486416,985.012363 799.41682,990.719015 L878.998376,1145.58787 C881.928779,1151.29065 879.679685,1158.28566 873.969849,1161.21443 C872.274319,1162.08493 870.462656,1162.49891 868.67809,1162.49891" id="Fill-101" fill="#15003E"></path>
                <path d="M922.434932,1025.43171 L1068.57575,950.417285" id="Fill-102" fill="#25E899"></path>
                <path d="M922.446158,1037.04233 C918.226686,1037.04233 914.162058,1034.74032 912.102646,1030.73212 C909.172242,1025.03321 911.421337,1018.03434 917.131172,1015.10557 L1063.27199,940.091147 C1068.98182,937.170115 1075.97686,939.417956 1078.90726,945.11687 C1081.83766,950.819653 1079.58857,957.814654 1073.87873,960.743423 L927.737917,1035.75784 C926.042386,1036.62835 924.230723,1037.04233 922.446158,1037.04233" id="Fill-103" fill="#15003E"></path>
                <path d="M670.849135,1200.91609 L772.499688,1148.73988 C786.725888,1141.43536 792.335075,1123.99042 785.030357,1109.77215 L773.800369,1087.91664 C766.49178,1073.69837 749.033233,1068.09231 734.807033,1075.39683 L633.16035,1127.56917" id="Fill-104" fill="#EFF4EE"></path>
                <path d="M670.85649,1212.52632 C666.640889,1212.52632 662.576261,1210.22431 660.516849,1206.21611 C657.586445,1200.5172 659.83554,1193.51833 665.545375,1190.58956 L767.195929,1138.41335 C775.70068,1134.04535 779.064644,1123.57606 774.698072,1115.07605 L763.468083,1093.21667 C759.09764,1084.71666 748.626383,1081.34684 740.11776,1085.72258 L638.463336,1137.89492 C632.749629,1140.81982 625.762339,1138.57585 622.828065,1132.8692 C619.897661,1127.17028 622.146756,1120.17141 627.856591,1117.24264 L729.503273,1065.0703 C749.396727,1054.85636 773.904501,1062.72574 784.131881,1082.61197 L795.361869,1104.47135 C805.577635,1124.35758 797.703869,1148.84782 777.806545,1159.06563 L676.15212,1211.24184 C674.456589,1212.11234 672.644926,1212.52632 670.85649,1212.52632" id="Fill-105" fill="#15003E"></path>
                <path d="M633.158802,1127.56878 C653.423879,1117.16913 678.287792,1125.15458 688.697112,1145.40835 C699.106432,1165.66213 691.116534,1190.51605 670.847586,1200.9157 C650.586381,1211.31535 625.718596,1203.3299 615.313147,1183.07999 C604.903827,1162.82235 612.897596,1137.96843 633.158802,1127.56878" id="Fill-106" fill="#25E899"></path>
                <path d="M638.466433,1137.89492 C623.926676,1145.35806 618.17813,1163.24793 625.641562,1177.77958 C629.257146,1184.81327 635.400541,1190.02083 642.937524,1192.44277 C650.482249,1194.86858 658.506987,1194.207 665.54073,1190.58956 C672.586086,1186.97986 677.796553,1180.83989 680.219846,1173.30324 C682.643138,1165.77433 681.981185,1157.7502 678.369472,1150.71264 C674.750017,1143.67121 668.606621,1138.46365 661.069638,1136.04171 C653.540398,1133.62363 645.507918,1134.27361 638.462562,1137.89492 L638.466433,1137.89492 Z M652.065518,1217.10325 C646.622787,1217.10325 641.160701,1216.25595 635.830231,1214.54589 C622.389859,1210.22431 611.434717,1200.93504 604.981636,1188.38428 C591.665138,1162.46641 601.927358,1130.55558 627.851946,1117.24264 L627.855817,1117.24264 C640.405841,1110.79703 654.721076,1109.62088 668.180803,1113.94633 C681.617304,1118.26404 692.576316,1127.5533 699.029398,1140.10794 C705.478609,1152.65483 706.651544,1166.97369 702.331425,1180.40657 C698.015176,1193.84332 688.712984,1204.79235 676.151346,1211.24184 C668.571781,1215.13397 660.345747,1217.10325 652.065518,1217.10325 Z" id="Fill-107" fill="#15003E"></path>
            </g>
        </g>
    </g>
</svg>