<?xml version="1.0" encoding="utf-8"?>
<!-- Generator: Adobe Illustrator 16.0.0, SVG Export Plug-In . SVG Version: 6.00 Build 0)  -->
<!DOCTYPE svg PUBLIC "-//W3C//DTD SVG 1.1//EN" "http://www.w3.org/Graphics/SVG/1.1/DTD/svg11.dtd">
<svg version="1.1" id="Layer_1" xmlns="http://www.w3.org/2000/svg" xmlns:xlink="http://www.w3.org/1999/xlink" x="0px" y="0px"
	 width="392px" height="456.669px" viewBox="0 0 392 456.669" enable-background="new 0 0 392 456.669" xml:space="preserve">
<g>
	<g>
		<polygon fill="#8E8E8E" points="195.607,451.381 2,339.599 2,116.04 195.607,4.258 389.218,116.04 389.218,339.599 		"/>
	</g>
</g>
<g enable-background="new    ">
	<g>
		<path fill="#FFFFFF" d="M195.604,39.638L32.393,133.732v188.184L195.604,416l163.222-94.084V133.732L195.604,39.638z
			 M352.216,318.124L195.604,408.42L38.984,318.124V137.56l156.619-90.295l156.612,90.295V318.124z"/>
	</g>
</g>
<g>
	<g>
		<path fill="#FFFFFF" d="M108.084,213.416c8.325,17.513,30.078,18.851,45.29,9.687c8.173-4.923,14.24-12.895,19.287-20.815
			c2.362-3.705,4.488-7.546,6.31-11.543c1.346-2.955,3.591-10.555,7.208-11.333c2.364-0.508,1.361-4.123-0.996-3.615
			c-5.523,1.188-7.962,9.788-9.96,14.176c-3.77,8.275-9.074,16.233-15.278,22.864c-12.89,13.775-39.02,18.89-48.622-1.313
			C110.284,209.34,107.052,211.244,108.084,213.416L108.084,213.416z"/>
	</g>
</g>
<g>
	<g>
		<path fill="#FFFFFF" d="M168.562,223.269c-0.06-7.084,4.59-15.95,11.17-19.066c2.185-1.034,0.28-4.268-1.893-3.238
			c-7.719,3.655-13.097,14.009-13.027,22.305C164.832,225.686,168.582,225.688,168.562,223.269L168.562,223.269z"/>
	</g>
</g>
<g>
	<g>
		<path fill="#FFFFFF" d="M162.335,236.703c1.788,3.524,5.043,8.408,9.689,6.416c4.467-1.914,6.807-7.645,8.502-11.822
			c1.743-4.298,2.858-8.818,4.857-13.005c1.29-2.7,2.755-5.319,4.303-7.88c0.861-1.427,1.789-2.826,2.818-4.139
			c0.3-0.373,0.616-0.732,0.949-1.078c1.291-1.399,0.34,0.085-0.025-0.756c0.96,2.214,4.189,0.302,3.238-1.893
			c-3.569-8.229-14.262,13.268-15.237,15.376c-1.913,4.136-2.935,8.628-4.711,12.83c-1.108,2.621-2.419,5.268-4.271,7.447
			c-3.084,3.63-5.413-0.509-6.874-3.39C164.479,232.653,161.244,234.552,162.335,236.703L162.335,236.703z"/>
	</g>
</g>
<g>
	<g>
		<path fill="#FFFFFF" d="M181.441,237.709c-0.863-9.59,7.193-22.655,17.621-23.563c1.959-0.17,2.726-3.318,0.498-3.683
			c-0.124-0.021-0.247-0.041-0.372-0.061c-2.364-0.388-3.379,3.226-0.996,3.615c0.123,0.021,0.248,0.041,0.371,0.062
			c0.167-1.228,0.333-2.456,0.499-3.684c-12.37,1.077-22.434,15.515-21.371,27.313C177.906,240.098,181.658,240.118,181.441,237.709
			L181.441,237.709z"/>
	</g>
</g>
<g>
	<g>
		<path fill="#FFFFFF" d="M181.366,239.126c9.28-2.771,16.095-13.963,14.188-23.512c-0.473-2.371-4.087-1.364-3.615,0.996
			c1.5,7.517-4.362,16.747-11.57,18.9C178.058,236.201,179.043,239.82,181.366,239.126L181.366,239.126z"/>
	</g>
</g>
<g>
	<g>
		<path fill="#FFFFFF" d="M185.138,242.899c8.879-2.077,14.975-9.704,16.078-18.591c0.297-2.396-3.456-2.367-3.75,0
			c-0.901,7.259-6.199,13.308-13.324,14.976C181.787,239.835,182.786,243.45,185.138,242.899L185.138,242.899z"/>
	</g>
</g>
<g>
	<g>
		<path fill="#FFFFFF" d="M184.484,226.495c-1.194,0.965-2.324,2.195-2.052,3.839c0.254,1.531,1.999,1.935,3.272,1.639
			c2.001-0.466,4.709-3.34,3.214-5.451c-0.974-1.376-2.739-1.758-4.334-1.826c-0.76-0.032-1.474,0.087-2.17,0.385
			c-1.064,0.455-1.516,1.999-0.838,2.945c0.943,1.316,2.777,1.722,4.256,2.124c1.176,0.321,2.373-0.586,2.373-1.808
			c0-0.174,0-0.347,0-0.521c0-0.909-0.59-1.487-1.377-1.808c-0.018-0.008-0.036-0.016-0.054-0.022
			c0.275,0.161,0.552,0.321,0.827,0.482c-0.125-0.113-0.221-0.252-0.348-0.362c-0.315-0.273-0.51-0.349-0.892-0.509
			c-0.166-0.022-0.332-0.045-0.498-0.067c-0.62,0.087-0.665,0.09-0.132,0.01c-0.637-0.084-1.42,0.256-1.966,0.538
			c-0.671,0.349-1.265,1.002-1.446,1.745c-0.271,1.109,0.318,2.08,1.242,2.653c0.869,0.539,2.06,0.19,2.565-0.673
			c0.526-0.899,0.194-2.027-0.673-2.565c0.722,0.448,0.623,1.527,0.156,2.108c0.136-0.131,0.087-0.101-0.145,0.089
			c0.092-0.068,0.195-0.12,0.296-0.173c-0.271,0.106-0.312,0.126-0.124,0.058c0.135-0.048,0.523-0.107-0.084-0.026
			c0.276-0.036,0.52,0.027,0.808-0.081c-0.332,0-0.664,0-0.997,0c0.021,0.009,0.043,0.019,0.064,0.027
			c-0.276-0.161-0.552-0.321-0.828-0.482c0.412,0.355,0.685,0.645,1.23,0.866c-0.459-0.603-0.918-1.205-1.377-1.808
			c0,0.174,0,0.347,0,0.521c0.791-0.603,1.582-1.205,2.373-1.808c-0.501-0.137-1-0.282-1.493-0.447
			c-0.186-0.062-0.369-0.13-0.552-0.2c-0.361-0.139,0.417,0.184,0.092,0.04c-0.074-0.032-0.147-0.068-0.221-0.104
			c-0.097-0.049-0.19-0.104-0.281-0.163c-0.229-0.146,0.413,0.339,0.225,0.176c-0.12-0.105-0.234-0.332,0.198,0.271
			c0.312,0.435,0.234,1.158-0.022,1.688c-0.137,0.284-0.338,0.406-0.583,0.583c0.026-0.019,0.056-0.032,0.084-0.046
			c-0.637,0.307-0.416,0.163-0.221,0.115c0.172-0.041,0.553-0.07-0.204,0.02c0.222-0.026,0.445-0.028,0.668-0.023
			s1.121,0.121,0.33,0.007c0.256,0.036,0.508,0.091,0.756,0.16c0.107,0.029,0.213,0.064,0.317,0.103
			c0.392,0.14-0.466-0.22-0.104-0.041c0.085,0.042,0.166,0.092,0.244,0.145c0.226,0.15-0.414-0.34-0.216-0.164
			c0.036,0.032,0.068,0.068,0.1,0.105c-0.237-0.273-0.249-0.302-0.332-0.555c-0.055-0.165-0.029-0.492,0.003-0.638
			c-0.009,0.033-0.02,0.065-0.031,0.098c0.198-0.566,0.053-0.163-0.025-0.026c-0.066,0.115-0.144,0.224-0.222,0.332
			c0.288-0.401,0.04-0.075-0.034,0.004c-0.057,0.058-0.115,0.113-0.175,0.167c-0.307,0.282,0.347-0.243,0.019-0.011
			c-0.146,0.104-0.791,0.39-0.184,0.146c-0.135,0.054-0.275,0.089-0.417,0.115c0.587-0.109,0.381-0.044,0.207-0.048
			c0.47,0.01,0.232,0.007,0.657,0.189c0.319,0.137,0.678,0.741,0.702,1.247c0.021,0.47-0.089,0.462-0.013,0.23
			c-0.174,0.528-0.113,0.273-0.018,0.118c0.107-0.155,0.08-0.125-0.081,0.091c0.09-0.113,0.191-0.218,0.291-0.322
			c0.26-0.272,0.552-0.513,0.844-0.748c0.796-0.644,0.665-1.987,0-2.652C186.356,225.716,185.279,225.854,184.484,226.495
			L184.484,226.495z"/>
	</g>
</g>
<g>
	<g>
		<path fill="#FFFFFF" d="M185.551,225.687c-2.19,0.177-4.252,1.833-4.351,4.139c-0.055,1.294,0.882,2.273,2.033,2.67
			c1.193,0.411,2.65,0.001,3.758-0.476c1.98-0.853,2.813-3.28,1.846-5.161c-1.209-2.353-4.256-1.879-6.184-0.916
			c-0.914,0.456-1.163,1.728-0.673,2.565c0.542,0.924,1.651,1.129,2.565,0.673c0.035-0.018,0.578-0.255,0.186-0.098
			c0.188-0.075,0.384-0.133,0.579-0.185c0.111-0.029,0.572-0.09,0.025-0.025c0.155-0.019,0.312-0.016,0.468-0.009
			c-0.537-0.024-0.25-0.039-0.09-0.001c0.472,0.11-0.273-0.152-0.018-0.018c0.138,0.074,0.338,0.284-0.104-0.094
			c0.338,0.29-0.191-0.308-0.034-0.069c0.085,0.129,0.168,0.411-0.052-0.162c0.063,0.164,0.086,0.555,0.016-0.108
			c0.009,0.081,0.005,0.163,0.001,0.245c0.028-0.614,0.044-0.279-0.013-0.086c-0.098,0.33,0.211-0.438,0.05-0.124
			c-0.072,0.141-0.356,0.452,0.023,0.004c-0.064,0.076-0.14,0.144-0.214,0.211c0.417-0.379,0.077-0.067-0.063,0.015
			c-0.104,0.061-0.469,0.193,0.013,0.008c-0.164,0.063-0.336,0.104-0.507,0.143c-0.146,0.033-0.298,0.052-0.446,0.077
			c0.464-0.081-0.098-0.019-0.207-0.021c0.492,0.014,0.236,0.04,0.07-0.004c0.301,0.141,0.367,0.169,0.202,0.083
			c0.264,0.223,0.328,0.272,0.194,0.148c0.266,0.252,0.176,0.169,0.299,0.515c-0.094-0.264,0.011,0.564,0.029,0.121
			c-0.023,0.563-0.055,0.353-0.002,0.168c0.08-0.288-0.236,0.452-0.002,0.021c0.048-0.089,0.105-0.171,0.164-0.253
			c-0.334,0.475-0.052,0.089,0.055-0.017c0.089-0.088,0.395-0.309-0.042,0.015c0.12-0.089,0.251-0.161,0.383-0.231
			c0.359-0.188-0.415,0.148-0.027,0.021c0.499-0.163-0.259-0.008,0.068-0.034c1.019-0.082,1.875-0.791,1.875-1.875
			C187.426,226.602,186.571,225.604,185.551,225.687L185.551,225.687z"/>
	</g>
</g>
<g>
	<g>
		<path fill="#FFFFFF" d="M155.444,236.018c-0.539,4.107,1.528,7.387,5.279,8.963c0.945,0.397,2.063-0.42,2.307-1.31
			c0.298-1.081-0.367-1.91-1.309-2.306c-2.277-0.957-2.824-3.081-2.527-5.348c0.133-1.016-0.954-1.875-1.875-1.875
			C156.196,234.143,155.577,235.004,155.444,236.018L155.444,236.018z"/>
	</g>
</g>
<g>
	<g>
		<path fill="#FFFFFF" d="M145.597,272.553c1.766-7.394,3.972-14.803,6.967-21.799c0.94-2.197-2.289-4.109-3.238-1.893
			c-3.128,7.307-5.5,14.969-7.344,22.695C141.42,273.907,145.036,274.904,145.597,272.553L145.597,272.553z"/>
	</g>
</g>
<g>
	<g>
		<path fill="#FFFFFF" d="M124.068,284.935c1.218-9.812,5.229-18.996,9.921-27.606c2.285-4.193,4.883-8.211,7.611-12.125
			c1.148-1.646,3.143-3.553,3.82-5.482c0.6-1.708-1.97-3.305-3.135-1.824c-0.114,0.146-0.229,0.292-0.344,0.438
			c-1.477,1.879,1.158,4.552,2.652,2.652c0.114-0.146,0.229-0.292,0.344-0.438c-1.045-0.608-2.09-1.217-3.134-1.824
			c-0.79,2.25-3.788,5.064-5.173,7.099c-2.735,4.022-5.18,8.234-7.447,12.535c-4.379,8.306-7.706,17.229-8.866,26.576
			C120.021,287.33,123.774,287.302,124.068,284.935L124.068,284.935z"/>
	</g>
</g>
<g>
	<g>
		<path fill="#FFFFFF" d="M136.088,226.626c-5.193,5.888-6.367,16.12,1.291,20.508c2.102,1.204,3.99-2.036,1.893-3.238
			c-5.447-3.121-4.131-10.538-0.531-14.617C140.333,227.472,137.69,224.81,136.088,226.626L136.088,226.626z"/>
	</g>
</g>
<g>
	<g>
		<path fill="#FFFFFF" d="M108.508,213.405c4.551,3.532,10.175,4.656,15.833,4.859c3.98,0.143,13.219-0.471,15.343-4.718
			c1.078-2.156-2.156-4.056-3.238-1.893c-1.418,2.836-9.59,2.854-12.104,2.86c-4.445,0.012-9.595-0.977-13.181-3.762
			C109.274,209.29,106.6,211.924,108.508,213.405L108.508,213.405z"/>
	</g>
</g>
<g>
	<g>
		<path fill="#FFFFFF" d="M113.489,185.952c-2.71,14.418,6.95,25.681,19.914,30.537c2.27,0.851,3.24-2.775,0.998-3.615
			c-10.909-4.087-19.602-13.663-17.295-25.926C117.55,184.586,113.937,183.577,113.489,185.952L113.489,185.952z"/>
	</g>
</g>
<g>
	<g>
		<path fill="#FFFFFF" d="M113.679,186.355c3.402,6.084,10.768,8.998,17.491,9.125c2.42,0.046,2.415-3.704,0-3.75
			c-5.418-0.103-11.501-2.348-14.253-7.268C115.736,182.353,112.497,184.243,113.679,186.355L113.679,186.355z"/>
	</g>
</g>
<g>
	<g>
		<path fill="#FFFFFF" d="M129.466,192.848c-0.82-4.294-1.133-8.585,0.26-12.794c0.761-2.302-2.861-3.281-3.617-0.996
			c-1.6,4.84-1.201,9.854-0.26,14.786C126.303,196.218,129.917,195.21,129.466,192.848L129.466,192.848z"/>
	</g>
</g>
<g>
	<g>
		<path fill="#FFFFFF" d="M83.626,135.617c6.195,11.533,16.21,20.327,25.734,29.058c10.525,9.646,21.66,18.352,32.582,27.525
			c1.839,1.544,4.506-1.095,2.652-2.652c-10.109-8.489-20.595-16.381-30.266-25.39c-9.979-9.297-20.91-18.231-27.465-30.434
			C85.72,131.594,82.481,133.487,83.626,135.617L83.626,135.617z"/>
	</g>
</g>
<g>
	<g>
		<path fill="#FFFFFF" d="M85.245,135.766c10.934,0.165,21.32,9.776,29.781,15.777c12.837,9.104,26.42,17.103,38.495,27.257
			c0.442-1.067,0.884-2.134,1.326-3.201c-0.13,0-0.261,0-0.391,0c-2.418,0-2.418,3.75,0,3.75c0.13,0,0.261,0,0.391,0
			c1.533,0,2.62-2.112,1.326-3.201c-12.608-10.601-26.779-18.994-40.185-28.502c-8.881-6.299-19.248-15.456-30.744-15.63
			C82.825,131.979,82.829,135.729,85.245,135.766L85.245,135.766z"/>
	</g>
</g>
<g>
	<g>
		<path fill="#FFFFFF" d="M150.092,204.368c-3.085-4.268-5.091-8.493-2.458-13.501c1.91-3.636,5.24-6.631,7.867-9.748
			c4.553-5.398,9.295-12.592,5.909-19.684c-1.042-2.182-4.274-0.277-3.238,1.893c4.116,8.621-8.83,18.351-13.18,24.671
			c-4.248,6.173-2.211,12.629,1.861,18.262C148.256,208.2,151.512,206.332,150.092,204.368L150.092,204.368z"/>
	</g>
</g>
<g>
	<g>
		<path fill="#FFFFFF" d="M158.855,162.798c6.946,6.835-1.802,22.403,7.291,27.435c1.551,0.857,3.686-0.945,2.565-2.565
			c-0.049-0.07-0.098-0.142-0.146-0.212c-1.365-1.975-4.617-0.103-3.238,1.893c0.049,0.07,0.098,0.142,0.146,0.212
			c0.855-0.855,1.711-1.71,2.565-2.565c-4.077-2.256-2.069-11.891-2.047-15.554c0.026-4.384-1.354-8.214-4.484-11.295
			C159.783,158.449,157.13,161.1,158.855,162.798L158.855,162.798z"/>
	</g>
</g>
<g>
	<g>
		<path fill="#FFFFFF" d="M139.612,164.441c2.309-6.791,7.823-13.803,4.104-21.089c-1.1-2.154-4.335-0.257-3.238,1.893
			c2.929,5.739-2.649,12.809-4.481,18.2C135.217,165.741,138.839,166.719,139.612,164.441L139.612,164.441z"/>
	</g>
</g>
<g>
	<g>
		<path fill="#FFFFFF" d="M140.892,144.356c6.786,3.845,5.198,15.274,2.06,21.112c-1.145,2.129,2.093,4.023,3.238,1.893
			c4.128-7.68,5.352-21.282-3.405-26.243C140.677,139.925,138.788,143.165,140.892,144.356L140.892,144.356z"/>
	</g>
</g>
<g>
	<g>
		<path fill="#FFFFFF" d="M146.769,168.604c2.224-8.364,9.507-13.902,13.843-21.121c4.375-7.284,4.675-17.627,0.019-24.816
			c-1.31-2.021-4.557-0.144-3.238,1.893c11.233,17.345-10.303,28.242-14.24,43.049C142.53,169.948,146.147,170.939,146.769,168.604
			L146.769,168.604z"/>
	</g>
</g>
<g>
	<g>
		<path fill="#FFFFFF" d="M158.382,125.421c11.598,4.611,15.885,22.343,9.938,32.893c-1.188,2.109,2.051,3.999,3.238,1.893
			c7.27-12.899,1.757-32.86-12.179-38.4C157.13,120.911,156.163,124.539,158.382,125.421L158.382,125.421z"/>
	</g>
</g>
<g>
	<g>
		<path fill="#FFFFFF" d="M174.479,141.024c2.486-9.217,11.703-9.152,19.613-10.187c7.104-0.929,15.502-3.596,18.576-10.701
			c0.949-2.195-2.28-4.106-3.238-1.893c-6.978,16.126-33.4,2.634-38.568,21.784C170.231,142.366,173.85,143.357,174.479,141.024
			L174.479,141.024z"/>
	</g>
</g>
<g>
	<g>
		<path fill="#FFFFFF" d="M209.241,119.167c2.45,7.914-5.502,17.021-12.871,18.901c-2.342,0.597-1.348,4.214,0.998,3.615
			c9.323-2.378,18.546-13.64,15.49-23.513C212.146,115.868,208.524,116.851,209.241,119.167L209.241,119.167z"/>
	</g>
</g>
<g>
	<g>
		<path fill="#FFFFFF" d="M209.264,133.559c8.281-6.23,17.014,1.593,25.695,2.84c6.193,0.89,13.067,0.356,17.356-4.694
			c1.555-1.832-1.085-4.498-2.652-2.652c-5.747,6.771-16.287,3.665-23.265,0.868c-6.647-2.664-12.894-4.214-19.027,0.4
			C205.464,131.755,207.329,135.014,209.264,133.559L209.264,133.559z"/>
	</g>
</g>
<g>
	<g>
		<path fill="#FFFFFF" d="M249.181,129.88c-3.336,8.166-11.027,15.174-20.308,13.975c-2.394-0.31-2.364,3.444,0,3.75
			c11.015,1.423,20.015-7.161,23.925-16.729C253.712,128.637,250.083,127.672,249.181,129.88L249.181,129.88z"/>
	</g>
</g>
<g>
	<g>
		<path fill="#FFFFFF" d="M243.74,143.446c9.126-4.547,17.019,2.77,25.745,4.872c5.962,1.437,12.974,1.631,17.307-3.345
			c1.58-1.815-1.062-4.479-2.652-2.652c-5.988,6.878-17.554,1.372-24.147-1.626c-6.253-2.844-11.855-3.62-18.145-0.487
			C239.683,141.287,241.583,144.521,243.74,143.446L243.74,143.446z"/>
	</g>
</g>
<g>
	<g>
		<path fill="#FFFFFF" d="M284.111,142.737c-0.63,8.801-6.155,9.232-13.525,9.892c-5.25,0.469-10.251,1.857-13.409,6.335
			c-1.397,1.981,1.856,3.852,3.238,1.893c4.041-5.729,12.681-4.148,18.717-5.498c6.208-1.388,8.316-6.849,8.729-12.621
			C288.034,140.323,284.282,140.34,284.111,142.737L284.111,142.737z"/>
	</g>
</g>
<g>
	<g>
		<path fill="#FFFFFF" d="M274.56,156.384c10.677,2.405,19.252,23.326,32.147,14.902c2.016-1.316,0.139-4.565-1.893-3.238
			c-6.274,4.099-12.613-2.734-16.684-6.852c-3.624-3.666-7.397-7.263-12.575-8.428C273.201,152.238,272.2,155.854,274.56,156.384
			L274.56,156.384z"/>
	</g>
</g>
<g>
	<g>
		<path fill="#FFFFFF" d="M278.687,178.017c-1.524-6.156,7.958-3.772,11.447-3.282c5.034,0.707,8.708,1.052,13.321-1.366
			c2.143-1.123,0.247-4.359-1.893-3.238c-5.992,3.142-12.745,0.167-19.191,0.133c-5.555-0.029-8.664,3.244-7.3,8.75
			C275.652,181.359,279.269,180.364,278.687,178.017L278.687,178.017z"/>
	</g>
</g>
<g>
	<g>
		<path fill="#FFFFFF" d="M274.94,176.931c2.848,8.737,12.273,5.422,18.622,2.871c8.375-3.364,23.461-7.287,28.272,3.562
			c0.979,2.207,4.209,0.297,3.238-1.893c-3.895-8.781-14.881-9.508-23.216-8.474c-5.258,0.652-20.678,10.986-23.3,2.938
			C277.812,173.646,274.189,174.625,274.94,176.931L274.94,176.931z"/>
	</g>
</g>
<g>
	<g>
		<path fill="#FFFFFF" d="M324.741,183.09c-2.311-6.119-6.889-5.385-10.683-0.933c-4.046,4.747-10.116,21.919-18.551,14.806
			c-1.837-1.548-4.503,1.091-2.652,2.652c6.165,5.197,12.386,2.464,16.321-3.436c1.992-2.985,3.789-6.095,5.813-9.06
			c1.421-2.08,4.521-7.31,6.136-3.034C321.972,186.326,325.598,185.355,324.741,183.09L324.741,183.09z"/>
	</g>
</g>
<g>
	<g>
		<path fill="#FFFFFF" d="M292.122,220.521c6.79,1.586,13.041-1.208,18.151-5.597c3.974-3.411,9.315-11.124,7.442-16.743
			c-0.76-2.282-4.383-1.305-3.615,0.996c1.482,4.449-3.636,10.397-6.479,13.096c-3.806,3.612-9.288,5.851-14.502,4.633
			C290.767,216.356,289.769,219.972,292.122,220.521L292.122,220.521z"/>
	</g>
</g>
<g>
	<g>
		<path fill="#FFFFFF" d="M315.103,197.224c-3.687,3.958-9.813,4.95-14.38,1.918c-2.021-1.342-3.896,1.907-1.893,3.238
			c5.907,3.921,14.155,2.615,18.925-2.504C319.4,198.108,316.755,195.451,315.103,197.224L315.103,197.224z"/>
	</g>
</g>
<g>
	<g>
		<path fill="#FFFFFF" d="M187.165,299.375c1.384-11.217,6.183-21.434,14.665-29.002c7.433-6.631,17.593-8.92,26.269-13.427
			c6.985-3.628,12.067-9.204,13.454-17.095c1.999-11.379-3.372-21.988-10.063-30.756c-1.446-1.896-4.706-0.031-3.238,1.893
			c7.009,9.185,12.667,20.632,8.532,32.301c-2.968,8.373-13.239,11.874-20.655,14.944c-8.822,3.653-16.52,7.88-22.605,15.441
			c-5.917,7.353-8.966,16.436-10.108,25.7C183.119,301.771,186.873,301.743,187.165,299.375L187.165,299.375z"/>
	</g>
</g>
<g>
	<g>
		<path fill="#FFFFFF" d="M240.766,224.093c-0.212-3.856-0.759-7.664-1.628-11.427c-0.545-2.356-4.16-1.357-3.617,0.996
			c0.796,3.443,1.302,6.902,1.495,10.431C237.147,226.497,240.898,226.51,240.766,224.093L240.766,224.093z"/>
	</g>
</g>
<g>
	<g>
		<path fill="#FFFFFF" d="M192.828,282.26c15.028-6.731,17.265,13.889,17.308,24.088c0.082,19.474-10.365,39.127-26.139,50.387
			c-1.95,1.392-0.08,4.646,1.893,3.238c17.833-12.729,28.596-34.393,27.95-56.296c-0.396-13.469-5.81-32.312-22.904-24.655
			C188.731,280.009,190.641,283.239,192.828,282.26L192.828,282.26z"/>
	</g>
</g>
<g>
	<g>
		<path fill="#FFFFFF" d="M185.637,360.229c12.921-1.582,25.213-5.201,37.052-10.586c10.396-4.727,20.506-10.634,27.611-19.764
			c6.029-7.747,8.77-17.222,10.05-26.818c1.27-9.513,2.792-21.547-2.146-30.304c-1.188-2.106-4.428-0.217-3.238,1.893
			c4.362,7.736,2.829,18.784,1.794,27.215c-1.167,9.515-3.934,18.712-9.887,26.36c-6.273,8.061-15.49,13.062-24.505,17.441
			c-11.538,5.606-24.005,9.255-36.73,10.813C183.269,356.769,183.24,360.521,185.637,360.229L185.637,360.229z"/>
	</g>
</g>
<g>
	<g>
		<path fill="#FFFFFF" d="M254.965,274.129c4.934,6.746,6.313,14.969,6.716,23.146c0.188,3.828,0.029,7.672-0.218,11.493
			c-0.272,4.202-0.209,9.387-1.988,13.253c-1.003,2.181,2.228,4.087,3.238,1.893c3.31-7.191,2.88-17.414,2.765-25.163
			c-0.139-9.191-1.74-18.946-7.274-26.514C256.791,270.306,253.535,272.174,254.965,274.129L254.965,274.129z"/>
	</g>
</g>
<g>
	<g>
		<path fill="#FFFFFF" d="M262.768,324.64c10.121-11.94,19.525-24.73,21.47-40.689c0.889-7.29-0.619-14.877-2.487-21.901
			c-1.726-6.493-4.305-13.422-9.096-18.294c-1.698-1.726-4.349,0.927-2.652,2.652c8.308,8.445,11.158,24.584,10.619,35.97
			c-0.725,15.303-11.033,28.437-20.506,39.61C258.562,323.82,261.201,326.486,262.768,324.64L262.768,324.64z"/>
	</g>
</g>
<g>
	<g>
		<path fill="#FFFFFF" d="M276.995,257.649c3.787,8.385,8.82,16.312,9.111,25.768c0.074,2.412,3.824,2.42,3.75,0
			c-0.313-10.185-5.542-18.624-9.623-27.66C279.239,253.556,276.008,255.464,276.995,257.649L276.995,257.649z"/>
	</g>
</g>
<g>
	<g>
		<path fill="#FFFFFF" d="M289.601,285.404c6.354-11.749,15.177-23.703,16.559-37.386c1.252-12.404-5.062-25.342-14.597-33.232
			c-1.849-1.528-4.517,1.108-2.652,2.652c9.104,7.533,15.07,19.796,13.339,31.634c-1.836,12.545-9.991,23.539-15.887,34.439
			C285.212,285.639,288.45,287.532,289.601,285.404L289.601,285.404z"/>
	</g>
</g>
<g>
	<g>
		<path fill="#FFFFFF" d="M209.901,167.963c16.143-2.847,32.771,6.354,45.576,15.206c14.279,9.872,26.44,22.215,35.742,36.839
			c1.294,2.033,4.54,0.154,3.238-1.893c-10.027-15.765-23.165-28.559-38.523-39.177c-13.269-9.173-30.5-17.507-47.031-14.591
			C206.525,164.767,207.536,168.38,209.901,167.963L209.901,167.963z"/>
	</g>
</g>
<g>
	<g>
		<path fill="#FFFFFF" d="M187.126,138.292c1.58,9.671-4.037,18.775-4.051,28.427c-0.01,7.32,3.945,14.027,10.506,17.188
			c2.168,1.044,4.07-2.189,1.893-3.238c-17.315-8.339-2.486-29.639-4.732-43.372C190.353,134.913,186.739,135.928,187.126,138.292
			L187.126,138.292z"/>
	</g>
</g>
<g>
	<g>
		<path fill="#FFFFFF" d="M188.768,138.893c10.938,5.862,19.886,22.119,16.312,34.44c-0.676,2.327,2.943,3.314,3.615,0.996
			c4.041-13.928-5.621-32.021-18.034-38.675C188.529,134.513,186.636,137.75,188.768,138.893L188.768,138.893z"/>
	</g>
</g>
<g>
	<g>
		<path fill="#FFFFFF" d="M187.646,140.374c1.372,10.166-0.432,29.778,11.009,34.945c2.186,0.987,4.094-2.244,1.893-3.238
			c-5.663-2.558-6.628-10.034-7.458-15.485c-0.869-5.706-1.056-11.498-1.828-17.218C190.938,136.99,187.326,138.011,187.646,140.374
			L187.646,140.374z"/>
	</g>
</g>
<g>
	<g>
		<path fill="#FFFFFF" d="M141.802,330.267c4.182,2.201,9.095,1.245,10.934-3.4c0.603-1.52,0.492-3.551-0.518-4.874
			c-1.487-1.948-3.789-2.184-6.064-1.788c-2.38,0.412-1.368,4.025,0.996,3.615c0.621-0.107,1.117-0.085,1.554,0.031
			c0.255,0.067,0.383,0.175,0.457,0.286c0.247,0.367,0.247,1.076,0.01,1.618c-0.402,0.917-1.029,1.521-1.791,1.802
			c-1.187,0.437-2.473,0.109-3.685-0.528C141.557,325.903,139.661,329.14,141.802,330.267L141.802,330.267z"/>
	</g>
</g>
<g>
	<g>
		<path fill="#FFFFFF" d="M152.151,324.412c2.861-2.007,4.981-5.377,5.477-8.851c0.552-3.865-1.836-6.58-5.772-6.353
			c-2.403,0.139-2.417,3.89,0,3.75c4.83-0.279,0.302,6.883-1.597,8.215C148.295,322.551,150.166,325.804,152.151,324.412
			L152.151,324.412z"/>
	</g>
</g>
<g>
	<g>
		<path fill="#FFFFFF" d="M156.727,312.811c2.8-3.843,3.172-8.662-0.553-12.029c-1.789-1.616-4.45,1.027-2.652,2.652
			c2.535,2.291,1.796,4.973-0.033,7.484C152.062,312.876,155.317,314.744,156.727,312.811L156.727,312.811z"/>
	</g>
</g>
<g>
	<g>
		<path fill="#FFFFFF" d="M152.434,328.032c3.135-5.139,4.112-11.339,5.633-17.077c1.107-4.18,4.544-14.93,11.089-11.85
			c7.701,3.625-0.848,26.771-9.046,12.724c-1.218-2.087-4.46-0.2-3.238,1.893c3.468,5.942,10.737,8.989,15.509,2.679
			c3.609-4.773,4.318-11.996,1.693-17.364c-2.876-5.883-10.209-4.301-14.229-0.687c-7.336,6.599-5.715,19.701-10.649,27.79
			C147.933,328.21,151.177,330.093,152.434,328.032L152.434,328.032z"/>
	</g>
</g>
<g>
	<g>
		<path fill="#FFFFFF" d="M153.883,301.066c0.162,1.505,1.075,2.762,1.98,3.928c0.968,1.245,3.396,0.239,3.201-1.326
			c-0.11-0.888-0.282-1.711-0.831-2.442c-0.42-0.562-0.957-0.962-1.409-1.485c0.183,0.442,0.366,0.885,0.549,1.326
			c0-0.13,0-0.261,0-0.391c-0.625,0.625-1.25,1.25-1.875,1.875c0.948-0.115,1.772-0.555,2.605-1.004
			c0.799-0.432,1.585-0.88,2.136-1.616c-1.08-0.631-2.158-1.262-3.238-1.893c-0.119,0.185-0.736,0.677-1.037,0.979
			c-0.674,0.678-0.971,1.505-1.04,2.439c-0.124,1.67,2.112,2.432,3.201,1.326c0.304-0.31,0.604-0.622,0.915-0.925
			c0.229-0.224,0.47-0.434,0.716-0.638c-0.068,0.078-0.02,0.052,0.146-0.078c-0.656,0.078-0.823,0.114-0.502,0.107
			c-0.315-1.165-0.631-2.329-0.946-3.494c-0.91,0.404-1.785,1.027-2.107,2.01c-0.283,0.86,0.204,1.626,0.861,2.117
			c0.994,0.743,2.107-0.029,2.868-0.661c0.786-0.655,0.673-1.979,0-2.652c-0.772-0.771-1.867-0.652-2.652,0
			c-0.021,0.096,0.065,0.064,0.259-0.094c0.48,0.063,0.963,0.126,1.444,0.188c-0.009-0.006-0.018-0.013-0.026-0.02
			c0.287,0.706,0.574,1.412,0.862,2.118c-0.031,0.29-0.152,0.499-0.365,0.627c0.229-0.168,0.492-0.281,0.749-0.396
			c1.774-0.788,0.799-3.494-0.946-3.494c-1.609,0-2.888,1.575-3.928,2.631c1.067,0.442,2.134,0.885,3.201,1.326
			c-0.006,0.08-0.001,0.147-0.058,0.212c0.138-0.158,0.307-0.294,0.464-0.432c0.449-0.394,0.831-0.801,1.159-1.307
			c0.557-0.858,0.178-2.067-0.673-2.565c-0.957-0.561-1.955-0.145-2.565,0.673c0.1-0.192,0.24-0.345,0.424-0.457
			c-0.122,0.089-0.252,0.167-0.379,0.246c-0.272,0.171-0.555,0.327-0.836,0.481c-0.285,0.157-0.575,0.305-0.868,0.447
			c-0.213,0.097-0.208,0.098,0.016,0.005c-0.177,0.074-0.526,0.121,0.141,0.04c-1.015,0.123-1.875,0.76-1.875,1.875
			c0,0.939,0.33,1.567,1.015,2.178c0.396,0.354,0.629,0.434,0.677,0.814c1.067-0.441,2.134-0.884,3.201-1.326
			c0.098,0.117,0.07,0.074-0.083-0.129c-0.143-0.203-0.274-0.414-0.406-0.624c-0.13-0.208-0.246-0.423-0.36-0.64
			c-0.192-0.365-0.055-0.084-0.033,0.117c-0.109-1.016-0.771-1.875-1.875-1.875C154.819,299.191,153.772,300.048,153.883,301.066
			L153.883,301.066z"/>
	</g>
</g>
<g>
	<g>
		<path fill="#FFFFFF" d="M131.915,331.567c10.312,4.593,15.48-8.71,18.625-16.082c1.867-4.378,3.923-7.911,7.131-11.461
			c3.516-3.89,10.864-10.964,12.932-2.33c0.563,2.352,4.179,1.354,3.615-0.996c-3.182-13.291-14.993-4.186-20.49,2.131
			c-3.353,3.852-5.248,8.032-7.25,12.688c-1.932,4.492-6.031,15.77-12.67,12.812C131.619,327.354,129.71,330.585,131.915,331.567
			L131.915,331.567z"/>
	</g>
</g>
<g>
	<g>
		<path fill="#FFFFFF" d="M117.195,313.556c0.751,11.935,14.906,15.723,23.106,7.961c1.759-1.666-0.897-4.313-2.652-2.652
			c-5.722,5.416-16.157,3.376-16.704-5.309C120.794,311.154,117.043,311.14,117.195,313.556L117.195,313.556z"/>
	</g>
</g>
<g>
	<g>
		<path fill="#FFFFFF" d="M126.761,324.722c0.855,2.856,2.709,5.323,5.284,6.846c2.087,1.233,3.972-2.009,1.893-3.238
			c-1.74-1.029-2.982-2.671-3.562-4.604C129.685,321.415,126.064,322.399,126.761,324.722L126.761,324.722z"/>
	</g>
</g>
<g>
	<g>
		<path fill="#FFFFFF" d="M149.441,317.494c1.905-4.055,3.623-8.184,5.944-12.027c1.3-2.152,2.916-4.148,4.924-5.679
			c0.829-0.632,1.787-1.106,2.753-1.484c0.587-0.203,1.187-0.359,1.8-0.468c1.742,0.313,1.985-0.258,0.729-1.713
			c0.295,2.367,4.048,2.396,3.75,0c-0.698-5.609-10.651,0.088-12.725,1.87c-5.175,4.449-7.599,11.616-10.414,17.608
			C145.182,317.776,148.413,319.682,149.441,317.494L149.441,317.494z"/>
	</g>
</g>
<g>
	<g>
		<path fill="#FFFFFF" d="M159.589,292.906c3.659-5.968,14.657-7.521,15.63,1.265c0.263,2.376,4.016,2.401,3.75,0
			c-1.374-12.418-16.826-12.602-22.618-3.157C155.083,293.081,158.327,294.964,159.589,292.906L159.589,292.906z"/>
	</g>
</g>
<g>
	<g>
		<path fill="#FFFFFF" d="M160.207,313.01c-0.325-0.374-0.67-0.729-1.006-1.094c-0.173-0.188-0.343-0.378-0.505-0.575
			c0.365,0.444,0.172,0.226,0.095,0.11c-0.023-0.035-0.045-0.072-0.063-0.109c0.141,0.242,0.213,0.505,0.217,0.787
			c-0.085,0.314-0.17,0.631-0.256,0.945c-0.086,0.112-0.174,0.225-0.26,0.336c-0.276,0.161-0.552,0.321-0.828,0.482
			c-0.271,0.068-0.541,0.066-0.811-0.004c0.055,0.012,0.108,0.026,0.16,0.044c0.978,0.301,2.042-0.347,2.307-1.31
			c0.277-1.007-0.333-2.006-1.309-2.306c-0.859-0.265-2.065-0.074-2.485,0.84c-0.355,0.771-0.347,1.538,0.132,2.249
			c0.557,0.828,1.309,1.506,1.96,2.256c0.671,0.771,1.968,0.684,2.652,0C160.967,314.901,160.876,313.781,160.207,313.01
			L160.207,313.01z"/>
	</g>
</g>
<g>
	<g>
		<path fill="#FFFFFF" d="M156.552,314.965c0.046,0.229,0.059,0.264,0.039,0.103c0.012,0.138,0.019,0.274,0.021,0.413
			c0.009,0.277,0.002,0.557,0.006,0.834c0.007,0.594,0.117,1.176,0.249,1.75c1.142-0.481,2.284-0.963,3.427-1.444
			c-0.019-0.036-0.037-0.071-0.055-0.107c0.085,0.315,0.17,0.631,0.256,0.946c-0.178-1.411-0.5-2.587-1.929-3.16
			c-0.393-0.158-0.993-0.104-1.378,0.049c-0.203,0.08-0.404,0.164-0.601,0.261c-0.031,0.016-0.063,0.031-0.095,0.046
			c0.494-0.233,1.146-0.356,1.643,0.015c-0.821-0.612-2.092-0.135-2.565,0.673c-0.561,0.956-0.145,1.955,0.673,2.565
			c0.725,0.541,1.625,0.231,2.338-0.109c-0.362,0.143-0.459,0.185-0.287,0.126c0.182-0.045,0.07-0.031-0.335,0.041
			c-0.401-0.001-0.755-0.146-1.06-0.438c-0.202-0.289-0.252-0.348-0.148-0.175c-0.271-0.479-0.032,0.022,0.005,0.209
			c-0.029-0.27-0.011-0.137,0.056,0.396c0.068,0.191,0.15,0.377,0.244,0.556c0.379,0.743,1.343,1.075,2.117,0.862
			c1.017-0.28,1.539-1.312,1.311-2.307c-0.034-0.146-0.068-0.291-0.104-0.436c0.056,0.226-0.014-0.434-0.015-0.526
			c-0.009-0.723-0.024-1.43-0.198-2.138c-0.243-0.993-1.342-1.575-2.307-1.31C156.855,312.936,156.309,313.974,156.552,314.965
			L156.552,314.965z"/>
	</g>
</g>
<g>
	<g>
		<path fill="#FFFFFF" d="M157.781,315.342c-2.344,5.281-2.12,12.047,4.431,13.823c7.185,1.948,12.7-5.015,14.348-11.078
			c0.636-2.337-2.982-3.327-3.615-0.996c-1.146,4.214-3.918,8.518-8.756,8.574c-4.814,0.056-4.572-5.27-3.169-8.431
			C161.991,315.045,158.761,313.135,157.781,315.342L157.781,315.342z"/>
	</g>
</g>
<g>
	<g>
		<path fill="#FFFFFF" d="M170.61,327.202c6.975,2.904,12.465-1.717,14.917-8.162c3.625-9.528,1.69-17.304-2.391-26.336
			c-0.994-2.201-4.226-0.293-3.238,1.893c3.051,6.752,4.875,12.236,3.251,19.535c-1.277,5.745-4.798,12.263-11.541,9.455
			C169.376,322.657,168.412,326.287,170.61,327.202L170.61,327.202z"/>
	</g>
</g>
<g>
	<g>
		<path fill="#FFFFFF" d="M134.885,296.679c3.094,5.443,9.207,4.013,12.513-0.392c3.709-4.942,2.498-11.176-3.631-13.16
			c-2.307-0.748-3.287,2.874-0.996,3.615c3.611,1.17,3.646,4.253,1.793,7.096c-1.605,2.459-4.691,4.026-6.44,0.948
			C136.929,292.685,133.688,294.573,134.885,296.679L134.885,296.679z"/>
	</g>
</g>
<g>
	<g>
		<path fill="#FFFFFF" d="M143.977,296.217c-1.196-2.38-0.092-4.958,2.522-5.572c2.354-0.553,1.355-4.168-0.996-3.615
			c-5.084,1.193-7,6.636-4.765,11.08C141.825,300.271,145.06,298.371,143.977,296.217L143.977,296.217z"/>
	</g>
</g>
<g>
	<g>
		<path fill="#FFFFFF" d="M144.323,289.12c0.122-0.317-0.172,0.029-0.369,0.177c-0.573,0.43-1.012,0.85-1.422,1.443
			c-0.426,0.617-0.537,1.46-0.527,2.187c0.004,0.309,0.057,1.321,0.586,1.807c0.45,0.411,1.211,0.74,1.824,0.481
			c0.98-0.411,1.462-1.207,2.023-2.067c0.4-0.613,1.113-1.481,1.066-2.256c-0.117-1.919-2.419-2.484-3.494-0.946
			c0.494-0.707-0.196,0.192-0.323,0.347c-0.324,0.394-0.644,0.791-0.964,1.188c-0.51,0.632-1.002,1.296-1.562,1.886
			c0.884,0.885,1.769,1.768,2.652,2.652c1.353-1.491,2.478-2.939,3.285-4.803c0.672-1.55-0.827-3.724-2.565-2.565
			c-1.287,0.857-2.273,1.889-2.695,3.408c-0.333,1.202-0.05,2.456-0.185,3.675c-0.112,1.018,0.938,1.875,1.875,1.875
			c1.106,0,1.763-0.859,1.875-1.875c0.167-1.51-0.432-2.876,1.022-3.845c-0.855-0.855-1.71-1.71-2.565-2.565
			c-0.69,1.592-1.546,2.773-2.699,4.043c-1.618,1.782,0.979,4.415,2.652,2.652c1.207-1.272,2.429-2.741,3.434-4.18
			c-1.164-0.315-2.329-0.631-3.493-0.946v0.003c0.085-0.314,0.17-0.631,0.256-0.945c-0.214,0.39-0.464,0.764-0.703,1.139
			c-0.172,0.27-0.35,0.537-0.53,0.801c-0.332,0.482,0.093-0.033-0.153,0.179c0.276-0.16,0.552-0.321,0.828-0.482
			c-0.012,0.005-0.022,0.01-0.033,0.015c0.607,0.16,1.216,0.321,1.824,0.481c-0.006-0.005-0.012-0.01-0.018-0.016
			c0.184,0.442,0.366,0.884,0.549,1.326c-0.002,1.039-0.042-0.627-0.005-0.786c-0.048,0.206,0.37-0.29,0.248-0.198
			c0.883-0.662,1.517-1.24,1.921-2.291c0.369-0.954-0.397-2.056-1.309-2.306C145.569,287.519,144.69,288.167,144.323,289.12
			L144.323,289.12z"/>
	</g>
</g>
<g>
	<g>
		<path fill="#FFFFFF" d="M140.276,303.875c-6.963,0.461-7.725-6.016-6.338-11.431c0.654-2.556,1.97-4.933,3.862-6.766
			c2.516-2.437,8.643-5.076,11.135-1.359c1.339,1.997,4.589,0.122,3.238-1.893c-2.849-4.248-8.054-4.387-12.431-2.355
			c-4.418,2.05-7.121,5.291-8.896,9.762c-3.127,7.871-0.633,18.458,9.43,17.792C142.677,307.467,142.692,303.715,140.276,303.875
			L140.276,303.875z"/>
	</g>
</g>
<g>
	<g>
		<path fill="#FFFFFF" d="M127.975,289.192c-1.715-3.308-4.531-5.925-8.331-4.063c-3.564,1.746-5.346,6.854-6.382,10.349
			c-1.325,4.471-1.35,8.653,0.539,12.911c2.484,5.6,7.145,6.23,11.02,1.549c1.528-1.849-1.108-4.517-2.652-2.652
			c-1.831,2.214-3.153,2.774-4.707,0.06c-0.666-1.165-1.237-2.495-1.406-3.84c-0.325-2.594,0.304-5.278,1.036-7.747
			c0.672-2.268,1.699-4.57,3.248-6.378c1.984-2.316,3.317-0.38,4.397,1.704C125.85,293.232,129.085,291.336,127.975,289.192
			L127.975,289.192z"/>
	</g>
</g>
<g>
	<g>
		<path fill="#FFFFFF" d="M121.178,296.018c0.19-0.174,0.356-0.369,0.499-0.586c0.123-0.28,0.546-0.713,0.234-0.624
			c-0.77-0.437-1.538-0.873-2.307-1.31c0.679,1.823,0.862,3.678,0.813,5.612c-0.016,0.646-0.521,3.722-0.696,3.724
			c-2.416,0.031-2.419,3.781,0,3.75c5.843-0.075,4.771-10.674,3.499-14.082c-0.354-0.948-1.259-1.611-2.307-1.31
			c-0.704,0.202-1.14,0.448-1.694,0.921c-0.385,0.328-0.389,0.946-0.693,1.252C116.817,295.08,119.469,297.731,121.178,296.018
			L121.178,296.018z"/>
	</g>
</g>
<g>
	<g>
		<path fill="#FFFFFF" d="M133.476,185.468c7.668,3.752,19.456,1.174,22.66-7.366c0.851-2.269-2.775-3.239-3.617-0.996
			c-2.297,6.125-11.813,7.735-17.15,5.124C133.205,181.171,131.304,184.404,133.476,185.468L133.476,185.468z"/>
	</g>
</g>
<g>
	<g>
		<path fill="#FFFFFF" d="M127.548,179.021c7.044,2.162,18.472,1.784,18.897-7.792c0.107-2.419-3.643-2.408-3.75,0
			c-0.296,6.641-9.803,5.511-14.149,4.177C126.228,174.694,125.243,178.314,127.548,179.021L127.548,179.021z"/>
	</g>
</g>
<g>
	<g>
		<path fill="#FFFFFF" d="M121.823,173.557c6.061,1.84,13.92,0.16,18.088-4.774c1.549-1.835-1.09-4.502-2.652-2.652
			c-3.351,3.969-9.554,5.294-14.438,3.812C120.501,169.236,119.517,172.856,121.823,173.557L121.823,173.557z"/>
	</g>
</g>
<g>
	<g>
		<path fill="#FFFFFF" d="M112.01,166.863c6.598,2.911,14.999,1.551,17.585-5.935c0.792-2.292-2.831-3.268-3.615-0.996
			c-1.727,4.997-7.796,5.582-12.077,3.692C111.712,162.658,109.802,165.889,112.01,166.863L112.01,166.863z"/>
	</g>
</g>
<g>
	<g>
		<path fill="#FFFFFF" d="M104.521,159.637c6.005,1.959,12.415-0.504,16.039-5.545c1.414-1.968-1.84-3.837-3.238-1.893
			c-2.671,3.716-7.488,5.229-11.803,3.822C103.212,155.27,102.232,158.891,104.521,159.637L104.521,159.637z"/>
	</g>
</g>
<g>
	<g>
		<path fill="#FFFFFF" d="M98.276,152.221c4.832,0.94,10.143,0.636,13.664-3.214c1.628-1.78-1.017-4.44-2.652-2.652
			c-2.584,2.826-6.476,2.939-10.014,2.251C96.911,148.146,95.904,151.76,98.276,152.221L98.276,152.221z"/>
	</g>
</g>
<g>
	<g>
		<path fill="#FFFFFF" d="M91.382,145.455c3.779,0.664,7.354,0.03,10.551-2.14c1.988-1.35,0.114-4.601-1.893-3.238
			c-2.333,1.583-4.859,2.255-7.662,1.763C90.014,141.424,89.003,145.037,91.382,145.455L91.382,145.455z"/>
	</g>
</g>
<g>
	<g>
		<path fill="#FFFFFF" d="M129.695,311.984c-0.058,0-0.116,0-0.174,0c-1.022,0-1.875,0.853-1.875,1.875s0.853,1.875,1.875,1.875
			c0.058,0,0.116,0,0.174,0c1.022,0,1.875-0.853,1.875-1.875S130.718,311.984,129.695,311.984L129.695,311.984z"/>
	</g>
</g>
<g>
	<g>
		<path fill="#FFFFFF" d="M157.97,309.403c2.418,0,2.418-3.75,0-3.75S155.552,309.403,157.97,309.403L157.97,309.403z"/>
	</g>
</g>
<g>
	<g>
		<path fill="#FFFFFF" d="M159.932,311.952c-0.036-2.961,4.719-4.05,6.892-4.867c2.915-1.099,5.893-2.243,7.771-4.854
			c0.399-0.556,0.282-1.327,0-1.893c-0.029-0.058-0.058-0.116-0.087-0.174c-1.082-2.163-4.316-0.264-3.238,1.893
			c0.029,0.058,0.059,0.116,0.087,0.174c0-0.631,0-1.262,0-1.893c-3.663,5.094-15.277,3.266-15.174,11.614
			C156.212,314.368,159.962,314.371,159.932,311.952L159.932,311.952z"/>
	</g>
</g>
<g>
	<g>
		<path fill="#FFFFFF" d="M159.626,303.163c1.146,0.733,2.041,1.662,2.709,2.884c1.16,2.122,4.398,0.229,3.238-1.893
			c-0.957-1.751-2.383-3.158-4.055-4.229c-0.861-0.552-2.064-0.182-2.565,0.673C158.421,301.507,158.767,302.613,159.626,303.163
			L159.626,303.163z"/>
	</g>
</g>
<g>
	<g>
		<path fill="#FFFFFF" d="M160.499,309.154c0.407,1.628,1.109,3.25,2.097,4.611c0.599,0.825,1.618,1.228,2.565,0.673
			c0.816-0.479,1.274-1.736,0.673-2.565c-0.816-1.125-1.382-2.369-1.72-3.715C163.527,305.813,159.911,306.809,160.499,309.154
			L160.499,309.154z"/>
	</g>
</g>
<g>
	<g>
		<path fill="#FFFFFF" d="M164.012,316.541c1.421-2.221,4.04-2.813,6.47-2.087c2.322,0.695,3.308-2.925,0.996-3.615
			c-4.077-1.22-8.391,0.193-10.704,3.81C159.466,316.691,162.713,318.57,164.012,316.541L164.012,316.541z"/>
	</g>
</g>
<g>
	<g>
		<path fill="#FFFFFF" d="M147.548,322.337c3.115-8.178,4.627-17.008,12.01-22.586c3.279-2.478,7.573-3.873,11.057-0.969
			c4.444,3.705,2.162,10.357-0.733,14.131c-1.473,1.919,1.788,3.783,3.238,1.893c3.059-3.985,5.063-10.001,2.761-14.854
			c-2.004-4.221-6.103-7.346-10.981-6.504c-13.731,2.371-16.801,16.955-20.966,27.894
			C143.07,323.604,146.696,324.574,147.548,322.337L147.548,322.337z"/>
	</g>
</g>
<g>
	<g>
		<path fill="#FFFFFF" d="M198.186,279.68c5.522-12.596,20.034-17.155,31.07-23.612c2.085-1.22,0.199-4.462-1.893-3.238
			c-11.618,6.798-26.597,11.688-32.416,24.958C193.986,279.979,197.216,281.89,198.186,279.68L198.186,279.68z"/>
	</g>
</g>
<g>
	<g>
		<path fill="#FFFFFF" d="M196.854,271.716c-1.267,1.652-2.395,3.422-3.469,5.204c-1.252,2.076,1.992,3.961,3.238,1.893
			c1.074-1.782,2.202-3.552,3.469-5.204c0.623-0.813,0.126-2.098-0.673-2.565C198.455,270.478,197.476,270.906,196.854,271.716
			L196.854,271.716z"/>
	</g>
</g>
<g>
	<path fill="#FFFFFF" d="M48.168,110.58l-4.648,2.674l0.308,3.334l-1.765,1.016l-1.266-14.632l11.822,8.559l-1.794,1.031
		L48.168,110.58z M46.614,109.425l-3.734-2.767l0.437,4.663L46.614,109.425z"/>
	<path fill="#FFFFFF" d="M50.59,103.579l4.043,2.88l-0.675-5.649l4.558,3.416l-0.477-4.931l1.771-1.02l0.65,9.428l-4.443-3.313
		l0.609,5.518l-7.816-5.305L50.59,103.579z"/>
	<path fill="#FFFFFF" d="M69.304,97.869l-4.909,2.824c0.366,0.539,0.807,0.881,1.321,1.028c0.513,0.142,1.022,0.066,1.528-0.225
		c0.394-0.227,0.666-0.508,0.816-0.844c0.145-0.333,0.233-0.846,0.266-1.538l1.766-0.024c-0.004,0.472-0.049,0.898-0.135,1.281
		c-0.086,0.382-0.213,0.73-0.383,1.044c-0.17,0.312-0.385,0.593-0.646,0.845c-0.262,0.25-0.57,0.478-0.927,0.683
		c-1.022,0.589-2.031,0.732-3.028,0.431c-0.999-0.305-1.813-1.002-2.441-2.096c-0.623-1.084-0.827-2.133-0.613-3.147
		c0.225-1.009,0.837-1.802,1.836-2.376c1.008-0.58,1.99-0.717,2.944-0.412c0.948,0.304,1.749,1.02,2.398,2.15L69.304,97.869z
		 M66.935,97.51c-0.706-0.717-1.48-0.833-2.325-0.347c-0.191,0.11-0.355,0.242-0.49,0.398s-0.24,0.329-0.315,0.519
		s-0.117,0.39-0.126,0.602c-0.01,0.211,0.016,0.431,0.078,0.657L66.935,97.51z"/>
	<path fill="#FFFFFF" d="M73.502,91.954l-0.908,1.449c-0.449-0.304-0.826-0.369-1.131-0.193c-0.146,0.084-0.242,0.204-0.289,0.359
		c-0.049,0.154-0.029,0.309,0.057,0.457c0.152,0.264,0.606,0.349,1.363,0.256c1.048-0.121,1.805-0.114,2.27,0.023
		c0.467,0.137,0.848,0.465,1.145,0.98c0.381,0.661,0.455,1.354,0.223,2.08c-0.23,0.693-0.682,1.234-1.352,1.621
		c-1.148,0.66-2.284,0.568-3.407-0.278l0.99-1.402c0.376,0.22,0.64,0.347,0.789,0.379c0.294,0.067,0.576,0.024,0.844-0.129
		c0.534-0.308,0.661-0.704,0.38-1.192c-0.162-0.281-0.52-0.426-1.071-0.433c-0.206,0.013-0.41,0.026-0.612,0.044
		c-0.202,0.017-0.408,0.032-0.619,0.047c-0.588,0.039-1.041,0-1.358-0.117c-0.403-0.148-0.735-0.447-0.994-0.897
		c-0.343-0.596-0.422-1.204-0.237-1.829c0.193-0.629,0.588-1.115,1.184-1.457C71.643,91.217,72.555,91.294,73.502,91.954z"/>
	<path fill="#FFFFFF" d="M76.313,93.276c-0.57-0.99-0.699-2.034-0.391-3.136s0.972-1.945,1.989-2.53
		c1.022-0.588,2.09-0.737,3.204-0.449c1.105,0.294,1.951,0.949,2.537,1.967c0.59,1.027,0.731,2.092,0.422,3.193
		c-0.315,1.099-0.992,1.946-2.028,2.543c-1.026,0.59-2.089,0.732-3.188,0.429C77.766,94.999,76.916,94.325,76.313,93.276z
		 M77.945,92.374c0.395,0.684,0.889,1.12,1.483,1.309c0.608,0.188,1.218,0.104,1.833-0.249c0.618-0.356,0.998-0.84,1.139-1.452
		c0.142-0.61,0.021-1.25-0.362-1.916c-0.383-0.666-0.874-1.091-1.474-1.276c-0.607-0.188-1.218-0.104-1.832,0.249
		c-0.605,0.348-0.979,0.831-1.122,1.45S77.579,91.735,77.945,92.374z"/>
	<path fill="#FFFFFF" d="M83.352,84.733l1.582-0.911l0.364,0.633c0.122-0.493,0.258-0.858,0.409-1.095
		c0.161-0.25,0.416-0.475,0.764-0.674c0.773-0.445,1.579-0.459,2.418-0.043c0.107-0.961,0.587-1.686,1.436-2.174
		c1.543-0.888,2.852-0.396,3.928,1.475l2.436,4.234l-1.589,0.914l-2.188-3.805c-0.378-0.656-0.725-1.075-1.04-1.256
		c-0.323-0.183-0.673-0.165-1.048,0.051c-0.436,0.251-0.66,0.598-0.67,1.041c-0.011,0.442,0.193,1.027,0.611,1.754l2.035,3.537
		l-1.59,0.915l-2.177-3.784c-0.701-1.219-1.403-1.626-2.106-1.222c-0.445,0.257-0.675,0.609-0.688,1.06
		c-0.012,0.451,0.188,1.034,0.602,1.752l2.035,3.537l-1.583,0.91L83.352,84.733z"/>
	<path fill="#FFFFFF" d="M103.168,78.388l-4.909,2.824c0.366,0.539,0.807,0.881,1.321,1.028c0.513,0.142,1.021,0.067,1.529-0.225
		c0.393-0.227,0.664-0.508,0.814-0.844c0.146-0.333,0.234-0.846,0.267-1.538l1.765-0.023c-0.004,0.471-0.048,0.896-0.134,1.28
		c-0.085,0.382-0.213,0.73-0.382,1.044c-0.17,0.313-0.386,0.594-0.646,0.845c-0.262,0.25-0.571,0.478-0.928,0.683
		c-1.021,0.588-2.031,0.732-3.027,0.432c-1-0.306-1.813-1.004-2.442-2.096c-0.624-1.084-0.827-2.133-0.612-3.148
		c0.225-1.009,0.836-1.802,1.834-2.376c1.009-0.58,1.99-0.717,2.945-0.413c0.949,0.305,1.748,1.021,2.398,2.151L103.168,78.388z
		 M100.799,78.028c-0.705-0.717-1.48-0.833-2.324-0.348c-0.192,0.111-0.356,0.243-0.491,0.399s-0.24,0.329-0.315,0.519
		c-0.074,0.189-0.117,0.39-0.127,0.602c-0.009,0.211,0.018,0.431,0.079,0.656L100.799,78.028z"/>
	<path fill="#FFFFFF" d="M110.503,72.361l2.537,4.41l-1.639,0.942l-6.247-10.859l1.856-1.068c0.909-0.523,1.634-0.854,2.171-0.994
		c0.541-0.145,1.092-0.143,1.65,0.004c0.974,0.251,1.729,0.841,2.262,1.77c0.572,0.993,0.692,1.973,0.361,2.938
		c-0.332,0.965-1.063,1.771-2.192,2.421L110.503,72.361z M109.629,70.843l0.612-0.353c1.505-0.865,1.925-1.878,1.259-3.036
		c-0.645-1.119-1.744-1.233-3.295-0.341l-0.542,0.312L109.629,70.843z"/>
	<path fill="#FFFFFF" d="M119.986,63.657l1.59-0.914l3.94,6.851l-1.589,0.914l-0.412-0.717c-0.302,0.984-0.828,1.692-1.578,2.124
		c-0.947,0.545-1.927,0.652-2.939,0.324c-1.016-0.346-1.824-1.041-2.426-2.086c-0.592-1.027-0.776-2.061-0.557-3.098
		c0.221-1.038,0.793-1.822,1.717-2.354c0.797-0.459,1.701-0.542,2.711-0.25L119.986,63.657z M118.189,69.223
		c0.377,0.656,0.861,1.09,1.45,1.3c0.601,0.209,1.176,0.156,1.724-0.159c0.587-0.337,0.945-0.811,1.073-1.422
		c0.12-0.626-0.003-1.259-0.373-1.901c-0.369-0.642-0.854-1.068-1.456-1.277c-0.596-0.2-1.182-0.135-1.758,0.197
		c-0.545,0.313-0.881,0.781-1.009,1.404C117.721,67.988,117.836,68.608,118.189,69.223z"/>
	<path fill="#FFFFFF" d="M123.574,61.594l1.582-0.91l0.352,0.612c0.115-0.472,0.254-0.829,0.414-1.07
		c0.162-0.25,0.4-0.465,0.715-0.646c0.417-0.24,0.932-0.355,1.543-0.345l0.109,1.865c-0.426-0.043-0.78,0.018-1.066,0.183
		c-0.862,0.496-0.918,1.396-0.169,2.699l2.044,3.552l-1.583,0.91L123.574,61.594z"/>
	<path fill="#FFFFFF" d="M131.442,59.032l3.091,5.374l-1.582,0.911l-3.092-5.375l-0.675,0.389l-0.85-1.477l0.675-0.389l-1.443-2.51
		l1.582-0.911l1.444,2.511l1.23-0.708l0.85,1.477L131.442,59.032z"/>
	<path fill="#FFFFFF" d="M131.021,53.519c-0.158-0.275-0.195-0.574-0.11-0.892c0.086-0.316,0.269-0.558,0.551-0.72
		c0.286-0.164,0.588-0.203,0.905-0.117c0.314,0.081,0.555,0.264,0.72,0.551c0.165,0.285,0.203,0.588,0.118,0.905
		c-0.081,0.314-0.265,0.554-0.551,0.718c-0.285,0.165-0.588,0.205-0.905,0.119C131.432,53.998,131.189,53.81,131.021,53.519z
		 M134.482,55.318l3.94,6.851l-1.583,0.91l-3.94-6.85L134.482,55.318z"/>
	<path fill="#FFFFFF" d="M141.987,51.394l1.21,2.104c-0.615-0.232-1.111-0.35-1.492-0.349c-0.379-0.007-0.758,0.099-1.138,0.317
		c-0.596,0.343-0.97,0.835-1.124,1.479c-0.153,0.644-0.05,1.28,0.312,1.908c0.37,0.643,0.862,1.061,1.479,1.255
		c0.623,0.191,1.23,0.115,1.826-0.227c0.381-0.219,0.668-0.493,0.864-0.824c0.19-0.322,0.343-0.821,0.458-1.5l1.201,2.089
		c-0.451,0.702-0.997,1.239-1.64,1.608c-1.06,0.609-2.143,0.777-3.249,0.502c-1.109-0.279-1.957-0.929-2.546-1.952
		c-0.589-1.022-0.724-2.093-0.406-3.211c0.317-1.119,1.002-1.979,2.052-2.584C140.471,51.621,141.201,51.416,141.987,51.394z"/>
	<path fill="#FFFFFF" d="M141.473,47.505c-0.158-0.275-0.195-0.573-0.109-0.891c0.085-0.316,0.269-0.557,0.551-0.719
		c0.285-0.164,0.588-0.203,0.904-0.118c0.315,0.081,0.555,0.265,0.72,0.55c0.165,0.287,0.204,0.589,0.118,0.906
		c-0.081,0.314-0.265,0.554-0.551,0.719c-0.285,0.164-0.588,0.204-0.904,0.119C141.883,47.985,141.641,47.796,141.473,47.505z
		 M144.934,49.306l3.941,6.852l-1.583,0.91l-3.94-6.851L144.934,49.306z"/>
	<path fill="#FFFFFF" d="M154.605,57.821l-1.582,0.91l-6.086-10.578l1.582-0.91l0.43,0.746c0.265-0.982,0.793-1.702,1.586-2.158
		c0.942-0.542,1.918-0.642,2.926-0.298c1.016,0.333,1.826,1.025,2.43,2.074c0.592,1.027,0.775,2.06,0.557,3.098
		c-0.219,1.03-0.793,1.813-1.721,2.348c-0.803,0.461-1.705,0.552-2.707,0.274L154.605,57.821z M154.277,48.546
		c-0.377-0.656-0.863-1.088-1.457-1.296c-0.602-0.21-1.176-0.156-1.725,0.159c-0.582,0.334-0.937,0.807-1.066,1.418
		c-0.128,0.61-0.004,1.244,0.374,1.9c0.37,0.643,0.854,1.068,1.456,1.279c0.591,0.202,1.177,0.137,1.758-0.198
		c0.549-0.315,0.883-0.782,1.002-1.4C154.747,49.786,154.634,49.165,154.277,48.546z"/>
	<path fill="#FFFFFF" d="M160.624,40.28l1.589-0.915l3.941,6.851l-1.59,0.914l-0.412-0.717c-0.301,0.984-0.827,1.692-1.578,2.125
		c-0.946,0.544-1.926,0.652-2.938,0.323c-1.017-0.346-1.825-1.04-2.427-2.086c-0.591-1.026-0.775-2.06-0.556-3.098
		s0.792-1.822,1.717-2.354c0.797-0.458,1.7-0.542,2.711-0.249L160.624,40.28z M158.826,45.845c0.378,0.656,0.861,1.09,1.45,1.3
		c0.601,0.21,1.177,0.157,1.725-0.159c0.587-0.337,0.944-0.811,1.073-1.422c0.12-0.625-0.004-1.258-0.373-1.9
		c-0.369-0.642-0.855-1.068-1.456-1.277c-0.596-0.201-1.183-0.135-1.759,0.196c-0.544,0.313-0.88,0.782-1.008,1.404
		C158.357,44.61,158.473,45.23,158.826,45.845z"/>
	<path fill="#FFFFFF" d="M164.211,38.216l1.589-0.914l0.364,0.633c0.238-0.866,0.704-1.499,1.398-1.898
		c0.797-0.459,1.562-0.565,2.296-0.32c0.63,0.206,1.224,0.792,1.778,1.758l2.416,4.198l-1.59,0.915l-2.201-3.826
		c-0.389-0.676-0.751-1.088-1.086-1.237c-0.334-0.158-0.742-0.099-1.226,0.18c-0.525,0.302-0.799,0.69-0.819,1.163
		c-0.018,0.468,0.217,1.127,0.709,1.98l1.9,3.306l-1.588,0.915L164.211,38.216z"/>
	<path fill="#FFFFFF" d="M174.59,34.21l3.092,5.375l-1.582,0.91l-3.092-5.374l-0.675,0.388l-0.85-1.477l0.675-0.388l-1.444-2.511
		l1.583-0.91l1.443,2.51l1.231-0.708l0.85,1.477L174.59,34.21z"/>
</g>
<g>
	<path fill="#FFFFFF" d="M206.683,423.561l-3.487,2.055l1.232,2.09l3.385-1.995l0.729,1.234l-3.387,1.995l1.713,2.907l3.487-2.055
		l0.727,1.233l-4.8,2.829l-5.125-8.699l4.8-2.828L206.683,423.561z"/>
	<path fill="#FFFFFF" d="M211.334,425.077l2.536,4.305l-1.268,0.747l-2.536-4.305l-0.541,0.319l-0.697-1.184l0.541-0.318
		l-1.185-2.011l1.268-0.747l1.185,2.011l0.986-0.581l0.697,1.184L211.334,425.077z"/>
	<path fill="#FFFFFF" d="M210.111,418.778l1.268-0.746l2.643,4.484c0.211-0.672,0.589-1.168,1.134-1.489
		c0.62-0.365,1.233-0.456,1.843-0.272c0.521,0.162,1.008,0.627,1.459,1.394l1.981,3.363l-1.267,0.747l-1.912-3.245
		c-0.26-0.439-0.525-0.711-0.797-0.817c-0.272-0.105-0.582-0.056-0.927,0.148c-0.442,0.261-0.673,0.581-0.692,0.961
		c-0.014,0.383,0.18,0.912,0.578,1.588l1.563,2.653l-1.268,0.747L210.111,418.778z"/>
	<path fill="#FFFFFF" d="M221.982,424.603l-3.68-10.431l6.969,5l-0.891-8.582l7.156,8.382l-1.347,0.794l-3.933-4.757l0.755,7.168
		l-5.835-4.182l2.162,5.807L221.982,424.603z"/>
	<path fill="#FFFFFF" d="M233.948,410.158l1.272-0.75l3.234,5.487l-1.273,0.75l-0.338-0.574c-0.234,0.795-0.652,1.37-1.254,1.725
		c-0.759,0.447-1.547,0.543-2.365,0.286c-0.822-0.27-1.479-0.823-1.973-1.661c-0.485-0.822-0.644-1.652-0.475-2.49
		c0.168-0.839,0.623-1.476,1.363-1.912c0.639-0.376,1.366-0.45,2.184-0.224L233.948,410.158z M232.547,414.657
		c0.311,0.527,0.703,0.872,1.18,1.037c0.485,0.163,0.949,0.115,1.389-0.144c0.469-0.276,0.754-0.661,0.852-1.155
		c0.094-0.504-0.014-1.014-0.316-1.527c-0.303-0.516-0.697-0.854-1.184-1.02c-0.482-0.155-0.953-0.098-1.416,0.175
		c-0.436,0.257-0.703,0.637-0.801,1.14C232.158,413.667,232.257,414.165,232.547,414.657z"/>
	<path fill="#FFFFFF" d="M245.285,410.696c0.153,0.26,0.279,0.492,0.378,0.7c0.1,0.206,0.179,0.394,0.237,0.562
		c0.152,0.467,0.186,0.925,0.098,1.377c-0.159,0.863-0.674,1.551-1.541,2.062c-0.732,0.432-1.451,0.589-2.156,0.474
		c-0.727-0.117-1.34-0.514-1.838-1.187l1.273-0.75c0.207,0.241,0.412,0.403,0.61,0.481c0.464,0.188,0.948,0.134,1.452-0.163
		c0.928-0.547,1.055-1.39,0.385-2.526l-0.451-0.768c-0.2,0.812-0.629,1.41-1.287,1.798c-0.746,0.44-1.518,0.531-2.313,0.271
		c-0.804-0.265-1.448-0.809-1.933-1.632c-0.472-0.8-0.648-1.611-0.531-2.434c0.131-0.877,0.59-1.549,1.379-2.014
		c0.691-0.406,1.418-0.487,2.18-0.242l-0.366-0.621l1.269-0.746L245.285,410.696z M242.535,408.812
		c-0.314-0.534-0.709-0.877-1.182-1.027c-0.482-0.156-0.949-0.102-1.398,0.164c-0.481,0.283-0.756,0.685-0.823,1.205
		c-0.063,0.468,0.054,0.955,0.353,1.462c0.295,0.499,0.662,0.835,1.102,1.007c0.48,0.187,0.962,0.138,1.447-0.147
		c0.484-0.286,0.763-0.688,0.836-1.207C242.941,409.796,242.83,409.31,242.535,408.812z"/>
	<path fill="#FFFFFF" d="M242.192,402.227c-0.13-0.221-0.163-0.461-0.097-0.717c0.066-0.257,0.213-0.45,0.438-0.583
		c0.23-0.136,0.473-0.17,0.729-0.104c0.255,0.063,0.449,0.209,0.584,0.438c0.135,0.229,0.17,0.474,0.104,0.729
		c-0.063,0.254-0.209,0.449-0.438,0.584c-0.229,0.136-0.473,0.169-0.729,0.104C242.526,402.61,242.33,402.46,242.192,402.227z
		 M244.996,403.648l3.232,5.487l-1.268,0.747l-3.232-5.487L244.996,403.648z"/>
	<path fill="#FFFFFF" d="M251.012,400.423l0.992,1.686c-0.497-0.184-0.899-0.272-1.206-0.27c-0.304-0.002-0.609,0.087-0.913,0.266
		c-0.478,0.281-0.775,0.681-0.894,1.201s-0.029,1.032,0.267,1.535c0.304,0.515,0.705,0.848,1.203,0.999
		c0.502,0.149,0.992,0.083,1.47-0.198c0.304-0.179,0.534-0.402,0.689-0.672c0.151-0.26,0.269-0.664,0.356-1.212l0.986,1.674
		c-0.357,0.569-0.795,1.006-1.309,1.309c-0.85,0.501-1.72,0.646-2.614,0.433c-0.896-0.215-1.585-0.732-2.067-1.551
		c-0.482-0.819-0.602-1.682-0.354-2.584c0.246-0.905,0.789-1.605,1.631-2.102C249.791,400.618,250.378,400.447,251.012,400.423z"/>
	<path fill="#FFFFFF" d="M250.563,397.294c-0.13-0.221-0.163-0.461-0.097-0.718c0.067-0.256,0.213-0.45,0.438-0.583
		c0.229-0.135,0.472-0.17,0.728-0.104c0.256,0.063,0.45,0.209,0.585,0.438s0.169,0.473,0.103,0.729
		c-0.063,0.254-0.208,0.449-0.438,0.584c-0.229,0.135-0.472,0.169-0.729,0.103C250.898,397.678,250.701,397.526,250.563,397.294z
		 M253.367,398.716l3.233,5.487l-1.268,0.747l-3.233-5.487L253.367,398.716z"/>
	<path fill="#FFFFFF" d="M259.018,395.386l1.273-0.75l3.233,5.488l-1.272,0.75l-0.339-0.574c-0.235,0.795-0.653,1.369-1.253,1.724
		c-0.76,0.447-1.548,0.543-2.367,0.286c-0.821-0.27-1.479-0.822-1.973-1.66c-0.484-0.822-0.643-1.653-0.474-2.491
		c0.169-0.839,0.623-1.476,1.362-1.911c0.639-0.377,1.367-0.451,2.185-0.225L259.018,395.386z M257.617,399.886
		c0.31,0.526,0.701,0.871,1.179,1.036c0.485,0.163,0.948,0.115,1.388-0.144c0.47-0.276,0.755-0.661,0.854-1.154
		c0.092-0.505-0.014-1.015-0.316-1.528c-0.304-0.516-0.698-0.854-1.186-1.019c-0.48-0.156-0.953-0.098-1.414,0.174
		c-0.436,0.258-0.703,0.637-0.801,1.14C257.227,398.896,257.326,399.394,257.617,399.886z"/>
	<path fill="#FFFFFF" d="M261.891,393.693l1.273-0.75l0.299,0.507c0.185-0.7,0.555-1.215,1.109-1.543
		c0.639-0.376,1.256-0.468,1.849-0.275c0.51,0.16,0.992,0.627,1.448,1.4l1.981,3.363l-1.272,0.75l-1.807-3.065
		c-0.318-0.54-0.613-0.868-0.885-0.987c-0.271-0.125-0.6-0.072-0.986,0.156c-0.422,0.248-0.637,0.563-0.65,0.943
		c-0.012,0.377,0.186,0.907,0.588,1.591l1.56,2.647l-1.272,0.75L261.891,393.693z"/>
	<path fill="#FFFFFF" d="M271.957,389.022l-0.719,1.175c-0.364-0.241-0.669-0.289-0.913-0.146c-0.116,0.068-0.193,0.166-0.23,0.291
		c-0.036,0.126-0.021,0.249,0.05,0.369c0.125,0.21,0.492,0.275,1.102,0.193c0.842-0.106,1.452-0.105,1.83,0
		c0.375,0.107,0.686,0.367,0.93,0.78c0.312,0.529,0.377,1.088,0.197,1.675c-0.181,0.563-0.539,1-1.076,1.316
		c-0.92,0.543-1.836,0.479-2.748-0.193l0.785-1.14c0.307,0.175,0.519,0.274,0.641,0.3c0.237,0.052,0.463,0.015,0.678-0.111
		c0.428-0.253,0.527-0.574,0.297-0.965c-0.133-0.226-0.422-0.339-0.868-0.338c-0.165,0.01-0.329,0.023-0.492,0.039
		s-0.329,0.029-0.498,0.043c-0.475,0.036-0.839,0.01-1.096-0.082c-0.327-0.117-0.597-0.355-0.809-0.717
		c-0.281-0.477-0.351-0.966-0.208-1.471c0.15-0.509,0.465-0.904,0.941-1.186C270.453,388.443,271.188,388.498,271.957,389.022z"/>
	<path fill="#FFFFFF" d="M281.513,378.435l0.917,1.556c-1.133-0.188-2.105-0.043-2.916,0.435c-0.895,0.527-1.458,1.291-1.691,2.295
		c-0.24,1.002-0.088,1.964,0.457,2.888c0.537,0.913,1.299,1.501,2.285,1.767c0.985,0.264,1.925,0.133,2.818-0.395
		c0.463-0.271,0.811-0.578,1.045-0.92c0.136-0.181,0.264-0.393,0.381-0.635c0.119-0.24,0.232-0.514,0.34-0.821l0.933,1.584
		c-0.501,0.866-1.165,1.543-1.991,2.029c-1.243,0.732-2.56,0.925-3.949,0.575c-1.392-0.359-2.451-1.157-3.179-2.393
		c-0.653-1.108-0.868-2.312-0.647-3.61c0.274-1.595,1.128-2.813,2.559-3.656C279.654,378.673,280.534,378.439,281.513,378.435z"/>
	<path fill="#FFFFFF" d="M285.879,383.202c-0.468-0.793-0.581-1.635-0.342-2.523c0.239-0.891,0.767-1.576,1.582-2.057
		c0.818-0.482,1.679-0.611,2.579-0.388c0.893,0.228,1.579,0.749,2.06,1.563c0.484,0.822,0.607,1.68,0.367,2.568
		c-0.245,0.889-0.783,1.578-1.613,2.066c-0.822,0.484-1.677,0.609-2.564,0.373C287.064,384.578,286.374,384.044,285.879,383.202z
		 M287.188,382.461c0.323,0.549,0.725,0.896,1.206,1.043c0.491,0.146,0.981,0.073,1.474-0.216c0.496-0.293,0.799-0.686,0.906-1.181
		c0.109-0.493,0.006-1.007-0.308-1.54s-0.714-0.873-1.198-1.017c-0.492-0.146-0.982-0.073-1.475,0.216
		c-0.484,0.286-0.782,0.679-0.893,1.179C286.791,381.445,286.887,381.95,287.188,382.461z"/>
	<path fill="#FFFFFF" d="M292.746,375.512l1.855,3.149c0.536,0.909,1.162,1.152,1.88,0.729s0.808-1.088,0.272-1.997l-1.855-3.149
		l1.268-0.747l1.873,3.178c0.258,0.439,0.428,0.85,0.506,1.233c0.063,0.349,0.033,0.713-0.092,1.095
		c-0.209,0.625-0.644,1.13-1.305,1.52c-0.658,0.387-1.309,0.522-1.957,0.402c-0.398-0.074-0.734-0.222-1.012-0.443
		c-0.256-0.193-0.532-0.542-0.828-1.045l-1.873-3.178L292.746,375.512z"/>
	<path fill="#FFFFFF" d="M297.766,372.554l1.273-0.75l0.299,0.507c0.185-0.7,0.555-1.215,1.109-1.542
		c0.639-0.377,1.256-0.469,1.85-0.276c0.509,0.16,0.992,0.627,1.447,1.4l1.982,3.363l-1.273,0.75l-1.807-3.065
		c-0.317-0.54-0.613-0.868-0.885-0.987c-0.271-0.124-0.6-0.071-0.986,0.156c-0.421,0.248-0.637,0.563-0.65,0.944
		c-0.012,0.376,0.186,0.906,0.588,1.59l1.56,2.647l-1.272,0.75L297.766,372.554z"/>
	<path fill="#FFFFFF" d="M308.502,366.546l0.993,1.686c-0.497-0.183-0.899-0.272-1.206-0.27c-0.305-0.002-0.609,0.087-0.914,0.267
		c-0.477,0.28-0.775,0.681-0.893,1.201c-0.119,0.52-0.029,1.032,0.267,1.534c0.304,0.516,0.704,0.849,1.202,0.999
		c0.503,0.149,0.993,0.083,1.471-0.197c0.304-0.18,0.534-0.403,0.689-0.672c0.15-0.261,0.269-0.664,0.355-1.213l0.986,1.674
		c-0.357,0.57-0.794,1.006-1.309,1.31c-0.849,0.5-1.719,0.645-2.613,0.433c-0.896-0.216-1.586-0.733-2.068-1.552
		c-0.482-0.819-0.601-1.681-0.354-2.584c0.246-0.904,0.789-1.605,1.631-2.101C307.281,366.741,307.869,366.57,308.502,366.546z"/>
	<path fill="#FFFFFF" d="M308.055,363.417c-0.131-0.221-0.162-0.461-0.096-0.717c0.066-0.257,0.213-0.451,0.438-0.584
		c0.229-0.135,0.472-0.17,0.729-0.104c0.254,0.063,0.449,0.209,0.584,0.438c0.135,0.229,0.17,0.473,0.103,0.729
		c-0.063,0.254-0.208,0.449-0.437,0.584c-0.23,0.135-0.473,0.169-0.729,0.104S308.191,363.65,308.055,363.417z M310.858,364.839
		l3.233,5.487l-1.268,0.747l-3.233-5.487L310.858,364.839z"/>
	<path fill="#FFFFFF" d="M311.359,359.118l5.605,9.516l-1.268,0.746l-5.605-9.515L311.359,359.118z"/>
	<path fill="#FFFFFF" d="M320.232,362.959c-0.467-0.793-0.581-1.634-0.342-2.524c0.24-0.89,0.768-1.575,1.582-2.055
		c0.818-0.482,1.679-0.612,2.579-0.389c0.894,0.228,1.579,0.749,2.06,1.563c0.484,0.822,0.607,1.68,0.367,2.568
		c-0.245,0.889-0.783,1.577-1.613,2.066c-0.822,0.485-1.677,0.609-2.564,0.374C321.418,364.335,320.729,363.801,320.232,362.959z
		 M321.541,362.218c0.323,0.549,0.725,0.896,1.207,1.043c0.49,0.146,0.98,0.074,1.473-0.217c0.496-0.291,0.799-0.684,0.907-1.18
		c0.108-0.493,0.006-1.007-0.308-1.539c-0.314-0.534-0.715-0.874-1.199-1.018c-0.491-0.146-0.982-0.073-1.475,0.217
		c-0.484,0.285-0.781,0.678-0.892,1.178S321.24,361.707,321.541,362.218z"/>
	<path fill="#FFFFFF" d="M327.842,356.425l2.537,4.305l-1.273,0.75l-2.537-4.305l-0.45,0.266l-0.697-1.183l0.45-0.266l-1.247-2.118
		c-0.407-0.691-0.575-1.249-0.503-1.677c0.097-0.593,0.459-1.075,1.091-1.447c0.226-0.132,0.547-0.233,0.967-0.305l0.763,1.296
		l-0.168,0.009c-0.357,0.023-0.623,0.087-0.8,0.19c-0.226,0.133-0.329,0.303-0.313,0.512c0.014,0.204,0.154,0.531,0.42,0.981
		l1.064,1.809l1.381-0.813l0.697,1.183L327.842,356.425z"/>
	<path fill="#FFFFFF" d="M335.525,352.938l2.081,3.531l-1.313,0.774l-5.125-8.698l1.488-0.877c0.729-0.43,1.309-0.703,1.74-0.821
		c0.435-0.118,0.879-0.122,1.33-0.009c0.787,0.193,1.4,0.663,1.838,1.407c0.469,0.796,0.574,1.584,0.314,2.362
		c-0.258,0.781-0.84,1.438-1.745,1.971L335.525,352.938z M334.809,351.722l0.49-0.289c1.205-0.711,1.535-1.529,0.988-2.457
		c-0.529-0.898-1.416-0.98-2.658-0.248l-0.434,0.256L334.809,351.722z"/>
	<path fill="#FFFFFF" d="M339.049,348.228l1.268-0.747l0.289,0.49c0.09-0.381,0.197-0.67,0.324-0.866
		c0.129-0.203,0.318-0.378,0.57-0.526c0.334-0.196,0.748-0.293,1.24-0.29l0.104,1.502c-0.342-0.03-0.627,0.021-0.856,0.156
		c-0.69,0.407-0.729,1.133-0.114,2.177l1.677,2.845l-1.268,0.747L339.049,348.228z"/>
	<path fill="#FFFFFF" d="M347.409,343.302l1.272-0.75l3.234,5.486l-1.273,0.751l-0.338-0.574c-0.234,0.795-0.652,1.37-1.254,1.724
		c-0.759,0.447-1.547,0.543-2.365,0.287c-0.822-0.27-1.48-0.823-1.974-1.661c-0.485-0.822-0.643-1.653-0.474-2.491
		c0.168-0.838,0.623-1.476,1.363-1.912c0.638-0.376,1.366-0.449,2.184-0.223L347.409,343.302z M346.008,347.801
		c0.311,0.526,0.703,0.871,1.18,1.036c0.485,0.164,0.949,0.115,1.388-0.143c0.47-0.277,0.755-0.662,0.853-1.155
		c0.094-0.505-0.014-1.015-0.316-1.528c-0.303-0.516-0.697-0.854-1.184-1.019c-0.482-0.156-0.953-0.098-1.416,0.175
		c-0.436,0.257-0.703,0.637-0.801,1.139C345.619,346.811,345.718,347.309,346.008,347.801z"/>
	<path fill="#FFFFFF" d="M358.746,343.839c0.153,0.26,0.279,0.492,0.378,0.7c0.1,0.206,0.179,0.395,0.237,0.563
		c0.152,0.466,0.186,0.925,0.098,1.376c-0.159,0.863-0.674,1.551-1.541,2.062c-0.732,0.432-1.451,0.59-2.156,0.474
		c-0.728-0.117-1.34-0.513-1.838-1.186l1.273-0.751c0.207,0.241,0.411,0.403,0.61,0.482c0.464,0.187,0.948,0.133,1.452-0.164
		c0.928-0.546,1.055-1.389,0.385-2.526l-0.451-0.767c-0.2,0.812-0.629,1.409-1.287,1.797c-0.746,0.44-1.519,0.532-2.314,0.271
		c-0.803-0.265-1.447-0.809-1.932-1.632c-0.472-0.8-0.648-1.611-0.531-2.434c0.131-0.877,0.59-1.548,1.379-2.013
		c0.691-0.407,1.418-0.488,2.18-0.243l-0.366-0.62l1.269-0.747L358.746,343.839z M355.996,341.954
		c-0.314-0.534-0.709-0.877-1.182-1.027c-0.482-0.156-0.949-0.102-1.398,0.164c-0.481,0.283-0.756,0.685-0.823,1.206
		c-0.063,0.468,0.054,0.954,0.353,1.462c0.295,0.498,0.662,0.835,1.102,1.006c0.48,0.187,0.962,0.139,1.447-0.147
		c0.484-0.285,0.763-0.688,0.836-1.206C356.402,342.938,356.29,342.452,355.996,341.954z"/>
	<path fill="#FFFFFF" d="M358.457,336.792l1.855,3.149c0.535,0.909,1.162,1.151,1.879,0.729c0.718-0.423,0.809-1.089,0.273-1.998
		l-1.856-3.149l1.269-0.747l1.872,3.178c0.259,0.439,0.428,0.851,0.507,1.234c0.063,0.348,0.032,0.713-0.092,1.095
		c-0.209,0.624-0.645,1.13-1.305,1.519c-0.658,0.388-1.31,0.523-1.957,0.403c-0.398-0.074-0.735-0.222-1.013-0.444
		c-0.255-0.192-0.532-0.541-0.828-1.045l-1.872-3.178L358.457,336.792z"/>
	<path fill="#FFFFFF" d="M370.266,333.932l-3.932,2.317c0.299,0.431,0.656,0.703,1.072,0.816c0.414,0.11,0.824,0.047,1.23-0.192
		c0.314-0.187,0.531-0.415,0.65-0.688c0.114-0.27,0.182-0.683,0.201-1.241l1.423-0.034c0,0.379-0.032,0.723-0.099,1.032
		c-0.064,0.311-0.164,0.592-0.299,0.846c-0.134,0.252-0.305,0.481-0.514,0.686s-0.456,0.39-0.742,0.558
		c-0.818,0.482-1.63,0.606-2.436,0.374c-0.808-0.237-1.47-0.795-1.985-1.67c-0.511-0.867-0.685-1.711-0.521-2.531
		c0.172-0.815,0.658-1.459,1.459-1.93c0.807-0.477,1.598-0.595,2.371-0.356c0.766,0.236,1.416,0.806,1.949,1.712L370.266,333.932z
		 M368.354,333.662c-0.575-0.572-1.2-0.658-1.876-0.26c-0.154,0.091-0.284,0.199-0.392,0.325c-0.109,0.126-0.191,0.267-0.251,0.42
		c-0.059,0.153-0.091,0.315-0.097,0.486c-0.006,0.17,0.018,0.346,0.069,0.529L368.354,333.662z"/>
</g>
</svg>
