<svg xmlns="http://www.w3.org/2000/svg" viewBox="0 0 330.78 263"><defs><style>.cls-1,.cls-2{fill:#7c4906;}.cls-1,.cls-10,.cls-11,.cls-12,.cls-13,.cls-2,.cls-3,.cls-4,.cls-6,.cls-8{stroke:#15003e;}.cls-1,.cls-10,.cls-11{stroke-linejoin:round;}.cls-1,.cls-10,.cls-11,.cls-2,.cls-3,.cls-4,.cls-6,.cls-8{stroke-width:3px;}.cls-12,.cls-13,.cls-2,.cls-3,.cls-4,.cls-6,.cls-8,.cls-9{stroke-miterlimit:10;}.cls-3{fill:#231f20;}.cls-11,.cls-13,.cls-4,.cls-7{fill:#fff;}.cls-10,.cls-11,.cls-12,.cls-13,.cls-4,.cls-6,.cls-9{stroke-linecap:round;}.cls-5{fill:#0ece7c;}.cls-10,.cls-6,.cls-9{fill:none;}.cls-12,.cls-8{fill:#25e899;}.cls-9{stroke:#25e899;}.cls-12,.cls-13,.cls-9{stroke-width:6px;}</style></defs><title>Asset 3</title><g id="Layer_2" data-name="Layer 2"><g id="Layer_1-2" data-name="Layer 1"><path class="cls-1" d="M200.81,160.85l-66,.83-66-.83S6,171.52,1.5,261.5H268.05C263.55,171.52,200.81,160.85,200.81,160.85Z"/><rect id="right_arm" data-name="right arm" class="cls-2" x="194.88" y="174.67" width="118" height="37.11" transform="translate(507.75 386.45) rotate(-180)"/><path class="cls-2" d="M232.69,178.39c-9.5-48-18-38.2-19-95.2-1-56.16-35.06-82.19-78-81.68C92.8,1,58.72,27,57.74,83.19c-1,57-9.5,47.18-19,95.2s46.6,39.48,46.6,39.48l48.46.54v0l1.92,0,1.91,0v0l48.46-.54S242.19,226.4,232.69,178.39Z"/><path class="cls-3" d="M216,163.46c-7.73-39.06-14.64-31.08-15.45-77.44-.81-45.68-28.52-66.86-63.43-66.44C102.18,19.16,74.46,40.34,73.66,86c-.82,46.36-7.73,38.38-15.46,77.44s37.91,32.11,37.91,32.11l39.42.44v0l1.56,0,1.56,0v0l39.42-.44S223.7,202.52,216,163.46Z"/><path class="cls-4" d="M74.29,89.89a61.32,61.32,0,1,1,122.63,0L181.8,149.43H89.42Z"/><path class="cls-4" d="M168.74,176.63H102.47a13.06,13.06,0,0,1-13-13.06V149.43H181.8v14.14A13.06,13.06,0,0,1,168.74,176.63Z"/><path class="cls-5" d="M118.67,124.31A41.19,41.19,0,0,1,103.44,60.4c7.55-9.15,55.06-9.61,62.6-1.1a41.19,41.19,0,0,1-14.29,65"/><path class="cls-6" d="M116.07,124.3A43.07,43.07,0,0,1,98.6,62.38"/><path class="cls-6" d="M169.61,60.12a43.07,43.07,0,0,1-15.47,64"/><path class="cls-6" d="M75,79.63a85.69,85.69,0,0,1,120.63-2.58"/><line class="cls-5" x1="83.35" y1="124.3" x2="187.94" y2="124.3"/><circle class="cls-7" cx="146.38" cy="72.94" r="10.74"/><circle class="cls-7" cx="160.46" cy="89" r="4.34"/><polygon class="cls-8" points="83.35 124.31 187.94 124.3 181.8 149.43 89.42 149.43 83.35 124.31"/><path class="cls-6" d="M172.69,139.87c-5.29,0-5.29-8-10.58-8s-5.29,8-10.58,8-5.29-8-10.58-8-5.29,8-10.59,8-5.29-8-10.58-8-5.3,8-10.59,8-5.3-8-10.59-8"/><line class="cls-9" x1="97.98" y1="187.64" x2="174.7" y2="187.64"/><g id="right_hand" data-name="right hand"><line class="cls-10" x1="291.52" y1="226" x2="280.04" y2="182.49"/><rect class="cls-11" x="237.01" y="141.57" width="45" height="139.22" rx="14.76" transform="translate(121.52 515.97) rotate(-104.78)"/><line class="cls-10" x1="265.25" y1="232.93" x2="253.77" y2="189.42"/><line class="cls-12" x1="285.78" y1="204.24" x2="326.81" y2="193.42"/><path class="cls-13" d="M150.65,246.61l28.54-7.53a7.48,7.48,0,0,0,5.33-9.14l-1.62-6.14a7.48,7.48,0,0,0-9.14-5.32L145.21,226"/><circle class="cls-12" cx="147.93" cy="236.31" r="10.66"/><circle class="cls-12" cx="215.18" cy="222.59" r="11.91"/></g></g></g></svg>