<?xml version="1.0" encoding="utf-8"?>
<!-- Generator: Adobe Illustrator 23.0.1, SVG Export Plug-In . SVG Version: 6.00 Build 0)  -->
<svg version="1.1" id="Layer_1" xmlns="http://www.w3.org/2000/svg" xmlns:xlink="http://www.w3.org/1999/xlink" x="0px" y="0px"
	 viewBox="0 0 78.8227 73.5104" style="enable-background:new 0 0 78.8227 73.5104;" xml:space="preserve">
<style type="text/css">
	.Drop_x0020_Shadow{fill:none;}
	.Round_x0020_Corners_x0020_2_x0020_pt{fill:#FFFFFF;stroke:#000000;stroke-miterlimit:10;}
	.Live_x0020_Reflect_x0020_X{fill:none;}
	.Bevel_x0020_Soft{fill:url(#SVGID_1_);}
	.Dusk{fill:#FFFFFF;}
	.Foliage_GS{fill:#FFDD00;}
	.Pompadour_GS{fill-rule:evenodd;clip-rule:evenodd;fill:#44ADE2;}
	.st0{fill:#FFFFFF;}
	.st1{fill:#48BA78;}
	.st2{fill-rule:evenodd;clip-rule:evenodd;fill:#48BA78;}
	.st3{fill-rule:evenodd;clip-rule:evenodd;fill:#1A0C3D;}
	.st4{fill:#1A0C3D;}
	.st5{fill:#180E3C;}
</style>
<linearGradient id="SVGID_1_" gradientUnits="userSpaceOnUse" x1="-458.4311" y1="-123.3203" x2="-457.724" y2="-122.6132">
	<stop  offset="0" style="stop-color:#DEDFE3"/>
	<stop  offset="0.1738" style="stop-color:#D8D9DD"/>
	<stop  offset="0.352" style="stop-color:#C9CACD"/>
	<stop  offset="0.5323" style="stop-color:#B4B5B8"/>
	<stop  offset="0.7139" style="stop-color:#989A9C"/>
	<stop  offset="0.8949" style="stop-color:#797C7E"/>
	<stop  offset="1" style="stop-color:#656B6C"/>
</linearGradient>
<path class="st0" d="M55.9143,35.3902v4.67c0,5.74-4.66,10.4-10.4,10.4h-16.08l-14.28,9.12l1.64-9.67
	c-3.81-1.35-6.23-5.06-6.23-9.85v-4.67c0-5.73,4.66-10.4,10.39-10.4h24.56C51.2543,24.9902,55.9143,29.6602,55.9143,35.3902z"/>
<path class="st0" d="M62.9543,30.8102c0.02,0.09,0.02,0.19,0.02,0.29c-0.04,0.86-0.77,1.53-1.64,1.5c-0.64-0.03-1.18-0.45-1.39-1.01
	c-0.02-0.09-0.05-0.18-0.08-0.27c-1.4301-5.1299-4.82-8.49-9.57-9.48c-0.78-0.11-1.36-0.8-1.33-1.61c0.04-0.87,0.77-1.54,1.64-1.5
	c0.083,0.0052,0.1584,0.0308,0.2386,0.0467l0.0013-0.0067c0.07,0.02,0.15,0.03,0.22,0.05c5.77,1.25,10.03,5.44,11.76,11.57
	c0.05,0.14,0.09,0.27,0.13,0.41V30.8102z"/>
<path class="st0" d="M69.1243,31.5902c0.03,0.11,0.04,0.24,0.04,0.36c-0.01,0.87-0.72,1.56-1.59,1.5501
	c-0.87-0.01-1.56-0.72-1.55-1.59c0-0.03,0-0.06,0.01-0.08c-0.41-8.51-6.83-15.42-15.31-16.47v-0.01c-0.74-0.13-1.28-0.78-1.27-1.55
	c0.01-0.87,0.72-1.56,1.59-1.55c0.17,0,0.33,0.03,0.48,0.09C61.2743,13.7402,68.6144,21.7502,69.1243,31.5902z"/>
<g>
	<g>
		<path class="st1" d="M44.521,27.6944H22.0493c-4.1679,0-7.5466,3.3788-7.5466,7.5466v2.6954c0-4.1679,3.3788-6.3246,7.5466-6.3246
			H44.521c4.1679,0,7.5467,2.1567,7.5467,6.3246V35.241C52.0677,31.0732,48.6889,27.6944,44.521,27.6944z"/>
	</g>
</g>
<g>
	<path class="st4" d="M45.5143,24.9902h-24.56c-5.73,0-10.39,4.67-10.39,10.4v4.67c0,4.79,2.42,8.5,6.23,9.85l-1.64,9.67l14.28-9.12
		h16.08c5.74,0,10.4-4.66,10.4-10.4v-4.67C55.9143,29.6602,51.2543,24.9902,45.5143,24.9902z M51.6144,40.0602
		c0,3.37-2.7401,6.1-6.1,6.1h-17.33l-7.17,4.58l0.74-4.38l-2.28-0.23c-3.41-0.35-4.61-3.4901-4.61-6.07v-4.67
		c0-3.36,2.73-6.1,6.09-6.1h24.56c3.36,0,6.1,2.74,6.1,6.1V40.0602z"/>
</g>
<g>
	<g>
		<g>
			<g>
				<path class="st4" d="M62.9743,31.1002c-0.04,0.86-0.77,1.53-1.64,1.5c-0.64-0.03-1.18-0.45-1.39-1.01
					c-0.02-0.09-0.05-0.18-0.08-0.27c-0.02-0.12-0.03-0.24-0.03-0.36c0.04-0.86,0.77-1.54,1.64-1.5c0.61,0.03,1.13,0.4,1.35,0.93
					c0.05,0.14,0.09,0.27,0.13,0.41v0.01C62.9743,30.9002,62.9743,31.0002,62.9743,31.1002z"/>
			</g>
		</g>
	</g>
	<g>
		<g>
			<g>
				<path class="st4" d="M52.1044,20.3602c-0.04,0.87-0.77,1.54-1.63,1.5c-0.06,0-0.12-0.01-0.18-0.02
					c-0.78-0.11-1.36-0.8-1.33-1.61c0.04-0.87,0.77-1.54,1.64-1.5c0.083,0.0052,0.1584,0.0308,0.2386,0.0467l0.0013-0.0067
					c0.07,0.02,0.15,0.03,0.22,0.05C51.7043,19.0402,52.1343,19.6602,52.1044,20.3602z"/>
			</g>
		</g>
	</g>
	<g>
		<g>
			<g>
				<path class="st4" d="M52.5943,13.8402c-0.01,0.87-0.73,1.56-1.59,1.55c-0.1,0-0.19-0.0099-0.28-0.04
					c-0.74-0.13-1.28-0.78-1.27-1.55c0.01-0.87,0.72-1.56,1.59-1.55c0.17,0,0.33,0.03,0.48,0.09
					C52.1543,12.5502,52.6044,13.1402,52.5943,13.8402z"/>
			</g>
		</g>
	</g>
	<g>
		<g>
			<g>
				<path class="st4" d="M69.1643,31.9502c-0.01,0.87-0.72,1.56-1.59,1.5501c-0.87-0.01-1.56-0.72-1.55-1.59
					c0-0.03,0-0.06,0.01-0.08c0.05-0.83,0.74-1.48,1.58-1.47c0.74,0.01,1.36,0.53,1.5099,1.23
					C69.1543,31.7002,69.1643,31.8302,69.1643,31.9502z"/>
			</g>
		</g>
	</g>
	<g>
		<g>
			<path class="st4" d="M69.1443,31.8702l-3.1,0.12c0-0.05,0-0.11-0.01-0.16c-0.41-8.51-6.83-15.42-15.31-16.47v-0.01l0.38-3.07
				c0.14,0.02,0.28,0.04,0.42,0.06c9.75,1.4,17.09,9.41,17.6,19.25C69.1343,31.6802,69.1443,31.7802,69.1443,31.8702z"/>
		</g>
	</g>
	<g>
		<g>
			<path class="st4" d="M62.9543,30.8002v0.01l-3.01,0.78c-0.02-0.09-0.05-0.18-0.08-0.27c-1.4301-5.1299-4.82-8.49-9.57-9.48
				c-0.02-0.01-0.05-0.02-0.07-0.02l0.62-3.05c0.07,0.02,0.15,0.03,0.22,0.05c5.77,1.25,10.03,5.44,11.76,11.57
				C62.8743,30.5302,62.9143,30.6602,62.9543,30.8002z"/>
		</g>
	</g>
</g>
<g>
	<g>
		<path class="st4" d="M19.5687,36.7588c8.8994,0,17.7987,0,26.6981,0c1.9479,0,1.9511-3.0272,0-3.0272
			c-8.8994,0-17.7987,0-26.6981,0C17.6209,33.7316,17.6176,36.7588,19.5687,36.7588L19.5687,36.7588z"/>
	</g>
</g>
<g>
	<g>
		<path class="st4" d="M19.5687,42.182c8.8994,0,8.0554,0,16.9548,0c1.9479,0,1.9511-3.0272,0-3.0272c-8.8994,0-8.0554,0-16.9548,0
			C17.6209,39.1547,17.6176,42.182,19.5687,42.182L19.5687,42.182z"/>
	</g>
</g>
<g>
	<circle class="st4" cx="41.087" cy="40.6684" r="1.5136"/>
</g>
</svg>
