<?xml version="1.0" encoding="utf-8"?>
<!-- Generator: Adobe Illustrator 23.0.1, SVG Export Plug-In . SVG Version: 6.00 Build 0)  -->
<svg version="1.1" id="Layer_1" xmlns="http://www.w3.org/2000/svg" xmlns:xlink="http://www.w3.org/1999/xlink" x="0px" y="0px"
	 viewBox="0 0 78.8227 73.5104" style="enable-background:new 0 0 78.8227 73.5104;" xml:space="preserve">
<style type="text/css">
	.Drop_x0020_Shadow{fill:none;}
	.Round_x0020_Corners_x0020_2_x0020_pt{fill:#FFFFFF;stroke:#000000;stroke-miterlimit:10;}
	.Live_x0020_Reflect_x0020_X{fill:none;}
	.Bevel_x0020_Soft{fill:url(#SVGID_1_);}
	.Dusk{fill:#FFFFFF;}
	.Foliage_GS{fill:#FFDD00;}
	.Pompadour_GS{fill-rule:evenodd;clip-rule:evenodd;fill:#44ADE2;}
	.st0{fill:#FFFFFF;}
	.st1{fill:#48BA78;}
	.st2{fill-rule:evenodd;clip-rule:evenodd;fill:#48BA78;}
	.st3{fill-rule:evenodd;clip-rule:evenodd;fill:#1A0C3D;}
	.st4{fill:#1A0C3D;}
	.st5{fill:#180E3C;}
</style>
<linearGradient id="SVGID_1_" gradientUnits="userSpaceOnUse" x1="-55.6734" y1="-123.3203" x2="-54.9663" y2="-122.6132">
	<stop  offset="0" style="stop-color:#DEDFE3"/>
	<stop  offset="0.1738" style="stop-color:#D8D9DD"/>
	<stop  offset="0.352" style="stop-color:#C9CACD"/>
	<stop  offset="0.5323" style="stop-color:#B4B5B8"/>
	<stop  offset="0.7139" style="stop-color:#989A9C"/>
	<stop  offset="0.8949" style="stop-color:#797C7E"/>
	<stop  offset="1" style="stop-color:#656B6C"/>
</linearGradient>
<path class="st0" d="M63.5294,20.5815c0.89,0.72,1.4,1.78,1.4,2.92v26.16c0,1.15-0.51,2.21-1.4,2.92c-0.67,0.54-1.49,0.82-2.33,0.82
	c-0.27,0-0.55-0.03-0.82-0.09l-5.5-1.23c-2.2,4.06-6.43,6.61-11.13,6.61c-6.75,0-12.28-5.29-12.66-11.95l-3.51-0.79
	c-0.69,2.48-2.97,4.31-5.68,4.31h-0.76c-3.26,0-5.91-2.65-5.91-5.91v-15.38c0-3.26,2.65-5.91,5.91-5.91h0.76
	c2.66,0,4.91,1.7599,5.64,4.17l32.84-7.37C61.4894,19.6115,62.6393,19.8715,63.5294,20.5815z"/>
<g>
	<g>
		<polygon class="st1" points="56.8424,24.2805 56.8424,49.4096 61.6671,50.4879 61.6671,22.6965 		"/>
	</g>
</g>
<g>
	<g>
		<g>
			<path class="st4" d="M64.9294,23.5015v26.16c0,1.15-0.51,2.21-1.4,2.92c-0.67,0.54-1.49,0.82-2.33,0.82
				c-0.27,0-0.55-0.03-0.82-0.09l-5.5-1.23l-4.37-0.99l-15.05-3.37l-4.37-0.98l-3.51-0.79l-1.11-0.25v-4.33l1.34,0.3l29.03,6.51
				l3.86,0.87v-24.94l-3.86,0.87l-29.03,6.52l-1.34,0.3v-4.33l1.07-0.24l32.84-7.37c1.11-0.25,2.26,0.01,3.15,0.72
				C64.4194,21.3015,64.9294,22.3615,64.9294,23.5015z"/>
		</g>
	</g>
</g>
<g>
	<g>
		<path class="st4" d="M55.4894,50.8115c-0.1801,0.44-0.38,0.86-0.61,1.27c-2.2,4.06-6.43,6.61-11.13,6.61
			c-6.75,0-12.28-5.29-12.66-11.95c-0.02-0.24-0.03-0.49-0.03-0.74h4.23c0,0.59,0.06,1.16,0.17,1.72c0.8,3.84,4.21,6.74,8.29,6.74
			c2.71,0,5.19-1.27,6.76-3.37c0.43-0.57,0.79-1.2,1.07-1.88L55.4894,50.8115z"/>
	</g>
</g>
<g>
	<g>
		<g>
			<g>
				<path class="st4" d="M63.1417,28.0785c-0.0008-0.032-0.0167-0.0539-0.0473-0.0725c-0.0833,0.1963-0.2138,0.3622-0.3126,0.5477
					c-0.1443,0.2711-0.3242,0.523-0.4842,0.786c-0.3194,0.5252-0.6355,1.0524-0.953,1.5787l-0.1165,0.193v4.001
					c0.5843-0.2661,1.1684-0.5327,1.7544-0.7951c0.0985-0.0441,0.1354-0.0893,0.1352-0.2004
					c-0.0038-1.9699-0.0028-3.9397-0.0016-5.9096C63.1162,28.1642,63.0952,28.1137,63.1417,28.0785z"/>
			</g>
		</g>
	</g>
	<g>
		<g>
			<g>
				<path class="st4" d="M63.1153,44.7448c-0.0012-1.3481-0.0009-2.6962-0.0008-4.0442c-0.0156-0.0294-0.046-0.0393-0.0721-0.0547
					c-0.3116-0.1843-0.6232-0.3686-0.9348-0.5528c-0.2927-0.1731-0.5855-0.3459-0.8793-0.5168v2.7131
					c0.1741,0.2457,0.348,0.4914,0.5226,0.7366c0.1426,0.2004,0.2937,0.396,0.434,0.5969c0.1469,0.2104,0.2957,0.4207,0.4398,0.6337
					c0.136,0.201,0.279,0.3974,0.4218,0.5938c0.0198,0.0272,0.041,0.1068,0.0941,0.0232
					C63.094,44.8383,63.1153,44.7877,63.1153,44.7448z"/>
			</g>
		</g>
	</g>
</g>
<g>
	<g>
		<path class="st5" d="M27.5394,27.2315c-0.73-2.41-2.98-4.17-5.64-4.17h-0.76c-3.26,0-5.91,2.65-5.91,5.91v15.38
			c0,3.26,2.65,5.91,5.91,5.91h0.76c2.71,0,4.99-1.83,5.68-4.31c0.15-0.5099,0.23-1.05,0.23-1.6v-15.38
			C27.8093,28.3715,27.7194,27.7815,27.5394,27.2315z M23.5893,44.3515c0,0.93-0.76,1.68-1.69,1.68h-0.76
			c-0.93,0-1.69-0.75-1.69-1.68v-15.38c0-0.93,0.76-1.68,1.69-1.68h0.76c0.93,0,1.69,0.75,1.69,1.68V44.3515z"/>
	</g>
</g>
</svg>
