<?xml version="1.0" encoding="utf-8"?>
<!-- Generator: Adobe Illustrator 22.1.0, SVG Export Plug-In . SVG Version: 6.00 Build 0)  -->
<svg version="1.1" id="Ebene_1" xmlns="http://www.w3.org/2000/svg" xmlns:xlink="http://www.w3.org/1999/xlink" x="0px" y="0px"
	 viewBox="0 0 2000 2000" enable-background="new 0 0 2000 2000" xml:space="preserve">
<rect fill="#EFF4EE" width="2000" height="2000"/>
<g>
	
		<line fill="none" stroke="#1D173A" stroke-width="12" stroke-miterlimit="10" x1="1024.331" y1="296.43" x2="1024.331" y2="398.291"/>
	
		<line fill="none" stroke="#1D173A" stroke-width="12" stroke-miterlimit="10" x1="975.669" y1="297.724" x2="975.669" y2="397.003"/>
</g>
<line fill="none" stroke="#1D173A" stroke-width="12" stroke-miterlimit="10" x1="832.635" y1="569.634" x2="678" y2="569.634"/>
<polyline fill="none" stroke="#1D173A" stroke-width="12" stroke-miterlimit="10" points="1282.977,631.901 1282.977,561.001 
	1322,561.001 "/>
<line fill="none" stroke="#4EB377" stroke-width="12" stroke-miterlimit="10" x1="555.667" y1="1457" x2="555.667" y2="1497.162"/>
<line fill="none" stroke="#4EB377" stroke-width="12" stroke-miterlimit="10" x1="1445.332" y1="1457" x2="1445.332" y2="1497.162"/>
<rect x="678" y="735.343" fill="none" stroke="#1D173A" stroke-width="12" stroke-linejoin="round" stroke-miterlimit="10" width="644" height="585.196"/>
<rect x="851.234" y="771.223" fill="#1E193A" stroke="#1D173A" stroke-width="12" stroke-linejoin="round" stroke-miterlimit="10" width="297.531" height="43.34"/>
<rect x="851.234" y="851.223" fill="#1E193A" stroke="#1D173A" stroke-width="12" stroke-linejoin="round" stroke-miterlimit="10" width="297.531" height="43.34"/>
<rect x="963.077" y="851.223" fill="#FFCE16" stroke="#1D173A" stroke-width="12" stroke-linejoin="round" stroke-miterlimit="10" width="136.542" height="43.34"/>
<rect x="851.234" y="931.223" fill="#1E193A" stroke="#1D173A" stroke-width="12" stroke-linejoin="round" stroke-miterlimit="10" width="297.531" height="43.34"/>
<rect x="911.598" y="931.223" fill="#FFCE16" stroke="#1D173A" stroke-width="12" stroke-linejoin="round" stroke-miterlimit="10" width="107.801" height="43.34"/>
<rect x="963.077" y="1442.727" fill="none" stroke="#1D173A" stroke-width="12" stroke-linejoin="round" stroke-miterlimit="10" width="73.847" height="153.773"/>
<polygon fill="none" stroke="#1D173A" stroke-width="12" stroke-linejoin="round" stroke-miterlimit="10" points="
	1057.816,1320.539 942.184,1320.539 948.184,1442.727 1051.816,1442.727 "/>
<polygon fill="none" stroke="#1D173A" stroke-width="12" stroke-linejoin="round" stroke-miterlimit="10" points="1216,1320.539 
	784,1320.539 837.96,1442.727 1162.066,1442.727 "/>
<polygon fill="none" stroke="#1D173A" stroke-width="12" stroke-linejoin="round" stroke-miterlimit="10" points="
	1282.977,1320.539 717.023,1320.539 768,1442.727 1232,1442.727 "/>
<polygon fill="none" stroke="#1D173A" stroke-width="12" stroke-linejoin="round" stroke-miterlimit="10" points="1123,1658 
	877,1658 899.158,1535 1100.842,1535 "/>
<rect x="957.809" y="1015.027" fill="none" stroke="#1D173A" stroke-width="12" stroke-linejoin="round" stroke-miterlimit="10" width="84.383" height="146.598"/>
<rect x="705" y="1212.518" fill="#1E193A" stroke="#1D173A" stroke-width="12" stroke-linejoin="round" stroke-miterlimit="10" width="108.006" height="73.299"/>
<rect x="734.006" y="1212.518" fill="#4FB377" stroke="#1D173A" stroke-width="12" stroke-linejoin="round" stroke-miterlimit="10" width="49.994" height="73.299"/>
<rect x="957.809" y="1063.691" fill="none" stroke="#1D173A" stroke-width="12" stroke-linejoin="round" stroke-miterlimit="10" width="84.383" height="48.459"/>
<g>
	<path fill="none" stroke="#1D173A" stroke-width="12" stroke-linecap="round" stroke-miterlimit="10" d="M1276.121,696.623
		c-19.722,0-19.722-26-39.444-26c-19.721,0-19.721,26-39.442,26c-19.722,0-19.722-26-39.443-26c-19.722,0-19.722,26-39.444,26
		c-19.723,0-19.723-26-39.446-26c-19.723,0-19.723,26-39.447,26c-19.723,0-19.723-26-39.445-26c-19.72,0-19.72,26-39.441,26
		c-19.723,0-19.723-26-39.446-26c-19.723,0-19.723,26-39.446,26c-19.724,0-19.724-26-39.448-26c-19.723,0-19.723,26-39.447,26
		c-19.726,0-19.726-26-39.452-26s-19.726,26-39.452,26"/>
</g>
<path fill="#4EB377" d="M1172.04,529.67c0,38.29-12.51,73.65-33.66,102.23H861.62c-21.15-28.58-33.66-63.94-33.66-102.23
	c0-48.08,19.72-91.55,51.52-122.76c38.57-6.58,78.94-10.07,120.52-10.07s81.95,3.49,120.52,10.07
	C1152.32,438.12,1172.04,481.59,1172.04,529.67z"/>
<ellipse transform="matrix(0.9132 -0.4074 0.4074 0.9132 -104.0092 475.567)" fill="#FFFFFF" cx="1064.559" cy="481.982" rx="34.746" ry="34.746"/>
<circle fill="#FFFFFF" cx="1110.084" cy="533.928" r="14.049"/>
<path fill="none" stroke="#1D173A" stroke-width="12" stroke-linejoin="round" stroke-miterlimit="10" d="M827.96,529.67
	c0,38.29,12.51,73.65,33.66,102.23H678v-13.47c0-59.76,16.28-115.72,44.65-163.69c47.05-21.77,99.97-38.16,156.83-47.83
	C847.68,438.12,827.96,481.59,827.96,529.67z"/>
<path fill="none" stroke="#1D173A" stroke-width="12" stroke-linejoin="round" stroke-miterlimit="10" d="M1322,618.43v13.47
	h-183.62c21.15-28.58,33.66-63.94,33.66-102.23c0-48.08-19.72-91.55-51.52-122.76c56.86,9.67,109.78,26.06,156.83,47.83
	C1305.72,502.71,1322,558.67,1322,618.43z"/>
<rect x="678" y="631.9" fill="none" stroke="#1D173A" stroke-width="12" stroke-linejoin="round" stroke-miterlimit="10" width="644" height="103.44"/>
<line fill="none" stroke="#1D173A" stroke-width="12" stroke-linejoin="round" stroke-miterlimit="10" x1="1322" y1="225.742" x2="1322" y2="631.9"/>
<line fill="none" stroke="#1D173A" stroke-width="12" stroke-linejoin="round" stroke-miterlimit="10" x1="678" y1="631.9" x2="678" y2="351.026"/>
<line fill="none" stroke="#1D173A" stroke-width="12" stroke-linejoin="round" stroke-miterlimit="10" x1="769.498" y1="631.9" x2="769.498" y2="569.634"/>
<path fill="none" stroke="#1D173A" stroke-width="12" stroke-linejoin="round" stroke-miterlimit="10" d="M1277.35,454.74
	c-47.05-21.77-99.97-38.16-156.83-47.83c-38.57-6.58-78.94-10.07-120.52-10.07s-81.95,3.49-120.52,10.07
	c-56.86,9.67-109.78,26.06-156.83,47.83c56.04-94.76,159.27-158.31,277.35-158.31c88.92,0,169.42,36.04,227.69,94.31
	C1246.8,409.85,1263.51,431.34,1277.35,454.74z"/>
<path fill="none" stroke="#1D173A" stroke-width="12" stroke-linejoin="round" stroke-miterlimit="10" d="M900.381,1472.222
	L900.381,1472.222c0,15.246,12.359,27.605,27.605,27.605h144.027c15.246,0,27.605-12.359,27.605-27.605l0,0
	c0-15.246-12.359-27.605-27.605-27.605H927.987C912.741,1444.616,900.381,1456.976,900.381,1472.222z"/>
<circle fill="none" stroke="#1D173A" stroke-width="12" stroke-linejoin="round" stroke-miterlimit="10" cx="1000" cy="1237.348" r="42.191"/>
<circle fill="#FFCE16" stroke="#1D173A" stroke-width="12" stroke-linejoin="round" stroke-miterlimit="10" cx="1218.26" cy="1222.444" r="16.561"/>
<rect x="502.623" y="735.343" fill="none" stroke="#1D173A" stroke-width="12" stroke-linejoin="round" stroke-miterlimit="10" width="118.752" height="496.905"/>
<rect x="472" y="1619" fill="#1E193A" stroke="#1D173A" stroke-width="12" stroke-linejoin="round" stroke-miterlimit="10" width="233" height="22.641"/>
<rect x="1295.999" y="1619" fill="#1E193A" stroke="#1D173A" stroke-width="12" stroke-linejoin="round" stroke-miterlimit="10" width="233" height="22.641"/>
<polygon fill="#1E193A" stroke="#1D173A" stroke-width="12" stroke-linejoin="round" stroke-miterlimit="10" points="1123.5,1660 
	876.5,1660 883.5,1682.641 1116.5,1682.641 "/>
<rect x="555.667" y="1497.162" fill="none" stroke="#1D173A" stroke-width="12" stroke-linejoin="round" stroke-miterlimit="10" width="65.708" height="42.968"/>
<rect x="621.375" y="760.835" transform="matrix(-1 -1.224647e-16 1.224647e-16 -1 1299.3745 1710.8361)" fill="#1E193A" stroke="#1D173A" stroke-width="12" stroke-linejoin="round" stroke-miterlimit="10" width="56.625" height="189.166"/>
<polygon fill="none" stroke="#1D173A" stroke-width="12" stroke-linejoin="round" stroke-miterlimit="10" points="621.375,1232.248 
	502.623,1232.248 538,1375.324 621.375,1375.324 "/>
<polygon fill="none" stroke="#1D173A" stroke-width="12" stroke-linejoin="round" stroke-miterlimit="10" points="621.375,1457 
	525,1457 538,1375.324 621.375,1375.324 "/>
<polygon fill="none" stroke="#1D173A" stroke-width="12" stroke-linejoin="round" stroke-miterlimit="10" points="705,1619 
	472,1619 503.429,1497.162 705,1497.162 "/>
<rect x="502.623" y="915.27" fill="none" stroke="#1D173A" stroke-width="12" stroke-linejoin="round" stroke-miterlimit="10" width="118.752" height="130.92"/>
<path fill="none" stroke="#1D173A" stroke-width="12" stroke-linejoin="round" stroke-miterlimit="10" d="M663.187,1574.562
	L663.187,1574.562c23.093,0,41.813-18.72,41.813-41.813v-115.612c0-23.093-18.72-41.813-41.813-41.813h0
	c-23.092,0-41.813,18.72-41.813,41.813v115.612C621.375,1555.842,640.095,1574.562,663.187,1574.562z"/>
<circle fill="none" stroke="#1D173A" stroke-width="12" stroke-linejoin="round" stroke-miterlimit="10" cx="539.263" cy="1375.324" r="39.583"/>
<line fill="none" stroke="#4EB377" stroke-width="12" stroke-miterlimit="10" x1="561.999" y1="851.366" x2="561.999" y2="1112.149"/>
<line fill="none" stroke="#4EB377" stroke-width="12" stroke-linecap="round" stroke-miterlimit="10" x1="1000" y1="1431.952" x2="1000" y2="1509.262"/>
<circle fill="#FFCE12" stroke="#1D173A" stroke-width="12" stroke-linejoin="round" stroke-miterlimit="10" cx="561.999" cy="824.297" r="27.07"/>
<circle fill="#FFCE12" stroke="#1D173A" stroke-width="12" stroke-linejoin="round" stroke-miterlimit="10" cx="561.999" cy="1139.219" r="27.07"/>
<rect x="1379.624" y="735.343" transform="matrix(-1 -4.489576e-11 4.489576e-11 -1 2878 1967.5905)" fill="none" stroke="#1D173A" stroke-width="12" stroke-linejoin="round" stroke-miterlimit="10" width="118.752" height="496.905"/>
<rect x="1379.624" y="1497.162" transform="matrix(-1 -4.490198e-11 4.490198e-11 -1 2824.9561 3037.2922)" fill="none" stroke="#1D173A" stroke-width="12" stroke-linejoin="round" stroke-miterlimit="10" width="65.708" height="42.968"/>
<rect x="1322.999" y="760.835" fill="#1E193A" stroke="#1D173A" stroke-width="12" stroke-linejoin="round" stroke-miterlimit="10" width="56.625" height="189.166"/>
<polygon fill="none" stroke="#1D173A" stroke-width="12" stroke-linejoin="round" stroke-miterlimit="10" points="
	1379.624,1232.248 1498.376,1232.248 1462.999,1375.324 1379.624,1375.324 "/>
<polygon fill="none" stroke="#1D173A" stroke-width="12" stroke-linejoin="round" stroke-miterlimit="10" points="1379.624,1457 
	1475.999,1457 1462.999,1375.324 1379.624,1375.324 "/>
<polygon fill="#1E193A" stroke="#1D173A" stroke-width="12" stroke-linejoin="round" stroke-miterlimit="10" points="
	1498.376,929.29 1541,929.29 1512.572,1044.261 1498.376,1044.261 "/>
<circle fill="none" stroke="#1D173A" stroke-width="12" stroke-linejoin="round" stroke-miterlimit="10" cx="1461.735" cy="1375.324" r="39.583"/>
<polygon fill="#1E193A" stroke="#1D173A" stroke-width="12" stroke-linejoin="round" stroke-miterlimit="10" points="
	1498.376,1110.41 1523.018,1110.41 1512.572,1044.778 1498.376,1044.778 "/>
<polygon fill="#1E193A" stroke="#1D173A" stroke-width="12" stroke-linejoin="round" stroke-miterlimit="10" points="
	502.623,929.29 459.999,929.29 488.426,1044.261 502.623,1044.261 "/>
<polygon fill="#1E193A" stroke="#1D173A" stroke-width="12" stroke-linejoin="round" stroke-miterlimit="10" points="
	502.623,1110.41 477.98,1110.41 488.426,1044.778 502.623,1044.778 "/>
<polygon fill="none" stroke="#1D173A" stroke-width="12" stroke-linejoin="round" stroke-miterlimit="10" points="1295.999,1619 
	1528.999,1619 1497.569,1497.162 1295.999,1497.162 "/>
<rect x="1379.624" y="915.27" transform="matrix(-1 -4.489576e-11 4.489576e-11 -1 2878 1961.4603)" fill="none" stroke="#1D173A" stroke-width="12" stroke-linejoin="round" stroke-miterlimit="10" width="118.752" height="130.92"/>
<path fill="none" stroke="#1D173A" stroke-width="12" stroke-linejoin="round" stroke-miterlimit="10" d="M1337.811,1574.562
	L1337.811,1574.562c-23.093,0-41.813-18.72-41.813-41.813v-115.612c0-23.093,18.72-41.813,41.813-41.813h0
	c23.093,0,41.813,18.72,41.813,41.813v115.612C1379.624,1555.842,1360.904,1574.562,1337.811,1574.562z"/>
<line fill="none" stroke="#4EB377" stroke-width="12" stroke-miterlimit="10" x1="1439" y1="851.366" x2="1439" y2="1112.149"/>
<circle fill="#FFCE12" stroke="#1D173A" stroke-width="12" stroke-linejoin="round" stroke-miterlimit="10" cx="1439" cy="824.297" r="27.07"/>
<circle fill="#FFCE12" stroke="#1D173A" stroke-width="12" stroke-linejoin="round" stroke-miterlimit="10" cx="1439" cy="1139.219" r="27.07"/>
<g>
	
		<line fill="none" stroke="#1D173A" stroke-width="12" stroke-linecap="round" stroke-linejoin="round" stroke-miterlimit="10" x1="652.187" y1="1416.162" x2="652.187" y2="1497.162"/>
	
		<line fill="none" stroke="#4FB377" stroke-width="12" stroke-linecap="round" stroke-linejoin="round" stroke-miterlimit="10" x1="652.187" y1="1535" x2="652.187" y2="1497.162"/>
	
		<line fill="none" stroke="#1D173A" stroke-width="12" stroke-linecap="round" stroke-linejoin="round" stroke-miterlimit="10" x1="672.187" y1="1416.162" x2="672.187" y2="1497.162"/>
	
		<line fill="none" stroke="#4FB377" stroke-width="12" stroke-linecap="round" stroke-linejoin="round" stroke-miterlimit="10" x1="672.187" y1="1535" x2="672.187" y2="1497.162"/>
</g>
<g>
	
		<line fill="none" stroke="#1D173A" stroke-width="12" stroke-linecap="round" stroke-linejoin="round" stroke-miterlimit="10" x1="1327.811" y1="1416.162" x2="1327.811" y2="1497.162"/>
	
		<line fill="none" stroke="#4FB377" stroke-width="12" stroke-linecap="round" stroke-linejoin="round" stroke-miterlimit="10" x1="1327.811" y1="1535" x2="1327.811" y2="1497.162"/>
	
		<line fill="none" stroke="#1D173A" stroke-width="12" stroke-linecap="round" stroke-linejoin="round" stroke-miterlimit="10" x1="1347.811" y1="1416.162" x2="1347.811" y2="1497.162"/>
	
		<line fill="none" stroke="#4FB377" stroke-width="12" stroke-linecap="round" stroke-linejoin="round" stroke-miterlimit="10" x1="1347.811" y1="1535" x2="1347.811" y2="1497.162"/>
</g>
<g>
	
		<line fill="none" stroke="#1D173A" stroke-width="12" stroke-linecap="round" stroke-linejoin="round" stroke-miterlimit="10" x1="779.543" y1="1161.625" x2="846.469" y2="1161.625"/>
	
		<line fill="none" stroke="#1D173A" stroke-width="12" stroke-linecap="round" stroke-linejoin="round" stroke-miterlimit="10" x1="779.543" y1="1121.625" x2="846.469" y2="1121.625"/>
	
		<line fill="none" stroke="#1D173A" stroke-width="12" stroke-linecap="round" stroke-linejoin="round" stroke-miterlimit="10" x1="779.543" y1="1081.625" x2="846.469" y2="1081.625"/>
	
		<line fill="none" stroke="#1D173A" stroke-width="12" stroke-linecap="round" stroke-linejoin="round" stroke-miterlimit="10" x1="779.543" y1="1041.625" x2="846.469" y2="1041.625"/>
</g>
<g>
	
		<line fill="none" stroke="#1D173A" stroke-width="12" stroke-linecap="round" stroke-linejoin="round" stroke-miterlimit="10" x1="565.667" y1="1317.769" x2="600.116" y2="1317.769"/>
	
		<line fill="none" stroke="#1D173A" stroke-width="12" stroke-linecap="round" stroke-linejoin="round" stroke-miterlimit="10" x1="565.667" y1="1297.179" x2="600.116" y2="1297.179"/>
	
		<line fill="none" stroke="#1D173A" stroke-width="12" stroke-linecap="round" stroke-linejoin="round" stroke-miterlimit="10" x1="565.667" y1="1276.59" x2="600.116" y2="1276.59"/>
	
		<line fill="none" stroke="#1D173A" stroke-width="12" stroke-linecap="round" stroke-linejoin="round" stroke-miterlimit="10" x1="565.667" y1="1256" x2="600.116" y2="1256"/>
</g>
<g>
	
		<line fill="none" stroke="#1D173A" stroke-width="12" stroke-linecap="round" stroke-linejoin="round" stroke-miterlimit="10" x1="1400.274" y1="1317.769" x2="1434.723" y2="1317.769"/>
	
		<line fill="none" stroke="#1D173A" stroke-width="12" stroke-linecap="round" stroke-linejoin="round" stroke-miterlimit="10" x1="1400.274" y1="1297.179" x2="1434.723" y2="1297.179"/>
	
		<line fill="none" stroke="#1D173A" stroke-width="12" stroke-linecap="round" stroke-linejoin="round" stroke-miterlimit="10" x1="1400.274" y1="1276.59" x2="1434.723" y2="1276.59"/>
	
		<line fill="none" stroke="#1D173A" stroke-width="12" stroke-linecap="round" stroke-linejoin="round" stroke-miterlimit="10" x1="1400.274" y1="1256" x2="1434.723" y2="1256"/>
</g>
<polygon fill="none" stroke="#1D173A" stroke-width="12" stroke-linejoin="round" stroke-miterlimit="10" points="1237.394,1176.25 
	1199.126,1176.25 1172.066,1203.31 1172.066,1241.578 1199.126,1268.638 1237.394,1268.638 1264.454,1241.578 1264.454,1203.31 "/>
<circle fill="#4FB377" stroke="#1D173A" stroke-width="12" stroke-linecap="round" stroke-miterlimit="10" cx="1226.508" cy="580.046" r="27.07"/>
<line fill="none" stroke="#1D173A" stroke-width="12" stroke-linecap="round" stroke-linejoin="round" stroke-miterlimit="10" x1="300.285" y1="1641.641" x2="879.947" y2="1641.641"/>
<line fill="none" stroke="#1D173A" stroke-width="12" stroke-linecap="round" stroke-linejoin="round" stroke-miterlimit="10" x1="1122.099" y1="1641.641" x2="1701.761" y2="1641.641"/>
<g>
</g>
<g>
</g>
<g>
</g>
<g>
</g>
<g>
</g>
<g>
</g>
</svg>
