<svg xmlns="http://www.w3.org/2000/svg" viewBox="0 0 113.83 80.04"><defs><style>.cls-1,.cls-2{fill:#8dc740;stroke:#183f1d;stroke-miterlimit:10;}.cls-1{stroke-width:2px;}.cls-2{stroke-width:1.5px;}</style></defs><g id="Layer_1" data-name="Layer 1"><path class="cls-1" d="M180.72,93.22a49.21,49.21,0,0,1,4.21-12.79c1.38-2.82,6-12.11,16.34-15.83,2.28-.82,8.47-3,15.15-.43,1.87.74,7,2.77,9.11,8.26.24.65,2.36,6.57-1.27,11.69s-10,5.11-11.25,5.07c-7.68-.26-12.29-7-12.76-7.74C193.88,71.77,199,57,205.61,48.71c3.68-4.63,8.5-7.49,18.13-13.22C228,33,235.41,28.55,236.5,29.87s-4.2,7.31-11.23,15.32C217,54.67,210.1,60.65,207.91,68.68c-.51,1.86-1.21,5.43.51,8.6.44.81,1.47,2.71,3.32,2.89a4,4,0,0,0,4.08-3.32,4.22,4.22,0,0,0-2.64-3.74c-4.52-1.84-14.84,5.31-17,14.46-2,8.55,4.21,14.1,1,17.88-2.68,3.18-10.05,2.9-13.78-.51a9,9,0,0,1-2.68-5,9,9,0,0,1-2.67,5c-3.74,3.41-11.11,3.69-13.79.51-3.18-3.78,3.05-9.33,1-17.88-2.17-9.15-12.5-16.3-17-14.46a4.22,4.22,0,0,0-2.64,3.74,4,4,0,0,0,4.09,3.32c1.84-.18,2.88-2.08,3.32-2.89,1.71-3.17,1-6.74.51-8.6-2.19-8-9-14-17.36-23.49-7-8-12.28-14-11.24-15.32s8.54,3.11,12.77,5.62c9.63,5.73,14.45,8.59,18.13,13.22,6.59,8.3,11.72,23.06,5.36,32.74-.48.72-5.08,7.48-12.77,7.74-1.22,0-7.59.09-11.24-5.07s-1.52-11-1.27-11.69c2.07-5.49,7.23-7.52,9.11-8.26,6.67-2.62,12.87-.39,15.15.43,10.35,3.72,14.95,13,16.34,15.83A48.93,48.93,0,0,1,180.72,93.22Z" transform="translate(-123.81 -28.63)"/><path class="cls-2" d="M203.82,82a3.35,3.35,0,0,1,1.36-2.39,3.31,3.31,0,0,1,2.39-.51" transform="translate(-123.81 -28.63)"/><path class="cls-2" d="M157.62,82a3.17,3.17,0,0,0-3.74-2.9" transform="translate(-123.81 -28.63)"/><path class="cls-2" d="M207.4,86a2.48,2.48,0,0,1,.51-3.06,2.4,2.4,0,0,1,2.38-.34" transform="translate(-123.81 -28.63)"/><path class="cls-2" d="M154.05,86a2.48,2.48,0,0,0-.51-3.06,2.42,2.42,0,0,0-2.39-.34" transform="translate(-123.81 -28.63)"/><path class="cls-2" d="M184.08,101.87a6.9,6.9,0,0,1,4.76-2.72,7,7,0,0,1,5.62,2.21" transform="translate(-123.81 -28.63)"/><path class="cls-2" d="M177.37,101.87a6.93,6.93,0,0,0-4.77-2.72,7,7,0,0,0-5.62,2.21" transform="translate(-123.81 -28.63)"/><path class="cls-2" d="M184.2,92.14a6,6,0,0,1,5.06-1.54,6,6,0,0,1,4.24,3.71" transform="translate(-123.81 -28.63)"/><path class="cls-2" d="M177.24,92.14A5.62,5.62,0,0,0,168,94.31" transform="translate(-123.81 -28.63)"/><path class="cls-2" d="M187.14,84.08a4.78,4.78,0,0,1,5.21.53A5,5,0,0,1,194,88.77" transform="translate(-123.81 -28.63)"/><path class="cls-2" d="M174.31,84.08a4.8,4.8,0,0,0-5.22.53,5,5,0,0,0-1.63,4.16" transform="translate(-123.81 -28.63)"/><path class="cls-2" d="M191.08,80.49a20.14,20.14,0,0,1,2.81-4.34,19.56,19.56,0,0,1,2-2.1" transform="translate(-123.81 -28.63)"/><path class="cls-2" d="M170.37,80.49a20.94,20.94,0,0,0-2.81-4.34,20.57,20.57,0,0,0-2-2.1" transform="translate(-123.81 -28.63)"/><path class="cls-2" d="M210.09,68.75a7.45,7.45,0,0,1,5.48-.72,8,8,0,0,1,4.34,3.38,9.27,9.27,0,0,1,1.94,6.15A8.73,8.73,0,0,1,220.79,81a7.75,7.75,0,0,1-2.74,3.22c-2.62,1.56-5.56.29-6,.08" transform="translate(-123.81 -28.63)"/><path class="cls-2" d="M151.36,68.75a7.47,7.47,0,0,0-5.49-.72,8,8,0,0,0-4.34,3.38,9.32,9.32,0,0,0-1.94,6.15A8.71,8.71,0,0,0,140.66,81a7.6,7.6,0,0,0,2.74,3.22c2.62,1.56,5.56.29,6,.08" transform="translate(-123.81 -28.63)"/></g></svg>