<?xml version="1.0" encoding="UTF-8" standalone="no"?><!DOCTYPE svg PUBLIC "-//W3C//DTD SVG 1.1//EN" "http://www.w3.org/Graphics/SVG/1.1/DTD/svg11.dtd"><svg width="100%" height="100%" viewBox="0 0 262 377" version="1.1" xmlns="http://www.w3.org/2000/svg" xmlns:xlink="http://www.w3.org/1999/xlink" xml:space="preserve" xmlns:serif="http://www.serif.com/" style="fill-rule:evenodd;clip-rule:evenodd;stroke-linecap:round;stroke-miterlimit:10;"><rect id="Reward" x="0" y="0" width="261.324" height="376.071" style="fill:none;"/><clipPath id="_clip1"><rect x="0" y="0" width="261.324" height="376.071"/></clipPath><g clip-path="url(#_clip1)"><g id="Reward1" serif:id="Reward"><rect x="49.617" y="1.97" width="4.083" height="371.263" style="fill:#26e899;"/><path d="M92.901,25.632l0,-23.662l-4.083,0l0,23.242c0.499,0.025 1.01,0.104 1.525,0.207c0.873,0.019 1.731,0.086 2.558,0.213" style="fill:#26e899;fill-rule:nonzero;"/><path d="M92.194,50.927c-1.019,0.082 -2.184,0.086 -3.376,-0.016l0,322.322l4.083,0l0,-322.379c-0.229,0.03 -0.465,0.053 -0.707,0.073" style="fill:#26e899;fill-rule:nonzero;"/><path d="M128.02,47.591l0,325.642l4.083,0l0,-325.313c-1.404,0.009 -2.775,-0.075 -4.083,-0.329" style="fill:#26e899;fill-rule:nonzero;"/><path d="M132.103,25.844l0,-23.874l-4.083,0l0,23.884c1.36,-0.01 2.722,-0.007 4.083,-0.01" style="fill:#26e899;fill-rule:nonzero;"/><path d="M167.222,49.058l0,324.175l4.083,0l0,-323.737c-1.375,-0.028 -2.754,-0.185 -4.083,-0.438" style="fill:#26e899;fill-rule:nonzero;"/><path d="M167.982,25.295c1.057,-0.217 2.214,-0.298 3.323,-0.149l0,-23.176l-4.083,0l0,23.349c0.237,-0.011 0.477,-0.011 0.715,-0.014c0.015,-0.004 0.029,-0.007 0.045,-0.01" style="fill:#26e899;fill-rule:nonzero;"/><rect x="206.424" y="1.97" width="4.083" height="371.263" style="fill:#26e899;"/><rect x="10.416" y="1.97" width="4.082" height="371.263" style="fill:#26e899;"/><rect x="245.626" y="1.97" width="4.083" height="371.263" style="fill:#26e899;"/><path d="M9.444,4.47c-2.14,0 -3.88,1.977 -3.88,4.405l0,357.452c0,2.429 1.74,4.406 3.88,4.406l242.415,0c2.139,0 3.879,-1.977 3.879,-4.406l0,-357.452c0,-2.428 -1.74,-4.405 -3.879,-4.405l-242.415,0Zm242.415,371.263l-242.415,0c-4.896,0 -8.88,-4.219 -8.88,-9.406l0,-357.452c0,-5.186 3.984,-9.405 8.88,-9.405l242.415,0c4.896,0 8.879,4.219 8.879,9.405l0,357.452c0,5.187 -3.983,9.406 -8.879,9.406" style="fill:#15003e;fill-rule:nonzero;"/><path d="M64.295,42.119l2.589,0c1.892,0 3.282,-0.371 4.169,-1.114c0.935,-0.803 1.402,-1.822 1.402,-3.056c0,-1.197 -0.449,-2.204 -1.348,-3.019c-0.875,-0.802 -2.438,-1.205 -4.691,-1.205l-2.121,0l0,8.394Zm0,-11.898l1.312,0c1.558,0 2.699,-0.344 3.424,-1.034c0.725,-0.688 1.087,-1.704 1.087,-3.047c0,-1.305 -0.371,-2.296 -1.114,-2.974c-0.743,-0.677 -1.821,-1.015 -3.235,-1.015l-1.474,0l0,8.07Zm-4.187,15.835l0,-27.751l4.169,0c1.858,0 3.337,0.143 4.44,0.431c1.114,0.287 2.055,0.773 2.821,1.455c0.779,0.708 1.397,1.588 1.852,2.643c0.468,1.066 0.701,2.144 0.701,3.235c0,1.989 -0.761,3.673 -2.283,5.051c1.474,0.503 2.636,1.384 3.487,2.642c0.862,1.246 1.294,2.696 1.294,4.349c0,2.169 -0.767,4.002 -2.301,5.5c-0.923,0.923 -1.959,1.564 -3.109,1.923c-1.258,0.348 -2.834,0.522 -4.727,0.522l-6.344,0Z" style="fill:#15003e;fill-rule:nonzero;"/><path d="M84.408,37.248c0,1.749 0.468,3.133 1.402,4.151c0.958,1.032 2.222,1.546 3.792,1.546c1.582,0 2.846,-0.509 3.792,-1.527c0.948,-1.019 1.42,-2.379 1.42,-4.08c0,-1.701 -0.472,-3.062 -1.42,-4.08c-0.958,-1.031 -2.222,-1.546 -3.792,-1.546c-1.546,0 -2.798,0.515 -3.757,1.546c-0.958,1.03 -1.437,2.36 -1.437,3.99m-4.134,-0.072c0,-2.529 0.905,-4.679 2.714,-6.452c1.81,-1.774 4.014,-2.661 6.614,-2.661c2.613,0 4.829,0.893 6.651,2.678c1.797,1.785 2.696,3.979 2.696,6.578c0,2.624 -0.905,4.824 -2.715,6.597c-1.821,1.761 -4.055,2.642 -6.704,2.642c-2.624,0 -4.822,-0.899 -6.596,-2.696c-1.773,-1.773 -2.66,-4.002 -2.66,-6.686" style="fill:#15003e;fill-rule:nonzero;"/><path d="M107.271,28.549l0,10.047c0,2.899 1.144,4.349 3.433,4.349c2.288,0 3.432,-1.45 3.432,-4.349l0,-10.047l4.044,0l0,10.137c0,1.402 -0.174,2.612 -0.52,3.631c-0.336,0.91 -0.917,1.731 -1.744,2.461c-1.366,1.187 -3.104,1.78 -5.212,1.78c-2.097,0 -3.829,-0.593 -5.195,-1.78c-0.839,-0.73 -1.431,-1.551 -1.779,-2.461c-0.336,-0.815 -0.504,-2.026 -0.504,-3.631l0,-10.137l4.045,0Z" style="fill:#15003e;fill-rule:nonzero;"/><path d="M123.284,28.549l4.062,0l0,1.617c1.415,-1.401 3.008,-2.102 4.782,-2.102c2.036,0 3.624,0.64 4.762,1.922c0.983,1.091 1.474,2.871 1.474,5.338l0,10.731l-4.061,0l0,-9.777c0,-1.726 -0.241,-2.918 -0.72,-3.578c-0.467,-0.671 -1.318,-1.005 -2.552,-1.005c-1.342,0 -2.295,0.443 -2.857,1.329c-0.552,0.875 -0.828,2.403 -0.828,4.584l0,8.447l-4.062,0l0,-17.506Z" style="fill:#15003e;fill-rule:nonzero;"/><path d="M147.638,32.324l0,13.731l-4.044,0l0,-13.731l-1.726,0l0,-3.774l1.726,0l0,-6.417l4.044,0l0,6.417l3.146,0l0,3.774l-3.146,0Z" style="fill:#15003e;fill-rule:nonzero;"/><path d="M157.579,46.055l-4.045,0l0,-17.506l4.045,0l0,17.506Zm-4.655,-24.785c0,-0.707 0.257,-1.318 0.772,-1.834c0.516,-0.515 1.133,-0.773 1.852,-0.773c0.73,0 1.353,0.258 1.869,0.773c0.515,0.504 0.772,1.121 0.772,1.851c0,0.732 -0.257,1.355 -0.772,1.87c-0.503,0.515 -1.12,0.773 -1.852,0.773c-0.73,0 -1.353,-0.258 -1.869,-0.773c-0.515,-0.515 -0.772,-1.144 -0.772,-1.887" style="fill:#15003e;fill-rule:nonzero;"/><path d="M174.491,34.948c-0.563,-2.157 -1.923,-3.235 -4.08,-3.235c-0.491,0 -0.952,0.075 -1.384,0.224c-0.432,0.151 -0.824,0.365 -1.178,0.648c-0.353,0.281 -0.655,0.62 -0.907,1.014c-0.252,0.396 -0.443,0.845 -0.575,1.349l8.124,0Zm4.152,3.307l-12.546,0c0.108,1.438 0.576,2.583 1.403,3.433c0.826,0.839 1.887,1.258 3.18,1.258c1.007,0 1.84,-0.239 2.499,-0.719c0.647,-0.479 1.384,-1.366 2.21,-2.66l3.415,1.905c-0.527,0.899 -1.084,1.669 -1.67,2.31c-0.588,0.641 -1.217,1.168 -1.888,1.581c-0.671,0.414 -1.396,0.716 -2.175,0.908c-0.779,0.192 -1.624,0.287 -2.534,0.287c-2.612,0 -4.709,-0.838 -6.291,-2.515c-1.581,-1.69 -2.372,-3.931 -2.372,-6.723c0,-2.768 0.766,-5.008 2.301,-6.722c1.545,-1.689 3.594,-2.534 6.146,-2.534c2.576,0 4.613,0.821 6.111,2.462c1.486,1.63 2.229,3.889 2.229,6.776l-0.018,0.953Z" style="fill:#15003e;fill-rule:nonzero;"/><path d="M193.238,31.533l-3.344,1.779c-0.527,-1.078 -1.179,-1.617 -1.959,-1.617c-0.371,0 -0.689,0.122 -0.952,0.368c-0.264,0.245 -0.395,0.561 -0.395,0.944c0,0.671 0.778,1.336 2.336,1.995c2.145,0.923 3.588,1.773 4.332,2.552c0.743,0.779 1.114,1.828 1.114,3.145c0,1.689 -0.623,3.104 -1.869,4.242c-1.21,1.078 -2.672,1.617 -4.386,1.617c-2.936,0 -5.015,-1.431 -6.236,-4.295l3.451,-1.599c0.478,0.839 0.845,1.372 1.096,1.599c0.491,0.456 1.078,0.683 1.761,0.683c1.366,0 2.049,-0.623 2.049,-1.869c0,-0.719 -0.527,-1.39 -1.582,-2.013c-0.407,-0.204 -0.814,-0.401 -1.222,-0.594c-0.407,-0.191 -0.821,-0.388 -1.24,-0.592c-1.175,-0.575 -2.001,-1.151 -2.48,-1.726c-0.612,-0.73 -0.917,-1.672 -0.917,-2.822c0,-1.522 0.521,-2.779 1.564,-3.775c1.067,-0.994 2.36,-1.491 3.882,-1.491c2.24,0 3.906,1.156 4.997,3.469" style="fill:#15003e;fill-rule:nonzero;"/></g><g id="Layer-2" serif:id="Layer 2"><rect x="25.932" y="65.789" width="209.801" height="279.13" style="fill:#15003e;"/><rect x="29.225" y="68.391" width="198.449" height="269.499" style="fill:#fff;"/><path d="M63,85.627l-1.097,6.92l0.701,0c1.007,0 1.852,-0.084 2.535,-0.252c0.791,-0.215 1.438,-0.563 1.941,-1.042c0.575,-0.516 0.935,-1.234 1.078,-2.157c0.048,-0.455 0.072,-0.689 0.072,-0.7c0,-1.08 -0.419,-1.816 -1.257,-2.211c-0.827,-0.371 -1.918,-0.558 -3.272,-0.558l-0.701,0Zm5.41,10.856l6.92,11.377l-8.987,0l-5.105,-10.675l-0.071,0l-1.708,10.675l-7.207,0l4.386,-27.751l10.784,0c1.641,0 3.115,0.247 4.421,0.737c1.294,0.468 2.283,1.228 2.966,2.283c0.718,1.019 1.078,2.295 1.078,3.828c0,0.659 -0.048,1.223 -0.144,1.69c-0.227,1.293 -0.659,2.498 -1.294,3.613c-0.623,1.078 -1.456,1.995 -2.498,2.75c-1.031,0.766 -2.211,1.258 -3.541,1.473" style="fill:#15003e;fill-rule:nonzero;"/><path d="M84.461,95.675l7.782,0c-0.036,-0.887 -0.372,-1.612 -1.007,-2.175c-0.623,-0.54 -1.395,-0.809 -2.318,-0.809c-0.982,0 -1.888,0.257 -2.714,0.773c-0.791,0.527 -1.372,1.264 -1.743,2.211m13.516,3.163l-0.108,0.701l-14.092,0c-0.059,0.276 -0.089,0.617 -0.089,1.025c0,1.053 0.299,1.847 0.898,2.381c0.6,0.533 1.504,0.799 2.715,0.799c1.461,0 2.617,-0.581 3.469,-1.743l6.434,0c-0.552,1.414 -1.385,2.607 -2.499,3.577c-1.162,1.006 -2.426,1.743 -3.792,2.21c-1.39,0.468 -2.84,0.701 -4.349,0.701c-1.786,0 -3.427,-0.317 -4.925,-0.952c-1.487,-0.647 -2.607,-1.57 -3.362,-2.768c-0.778,-1.234 -1.168,-2.707 -1.168,-4.421c0,-0.755 0.048,-1.39 0.144,-1.905c0.252,-1.535 0.73,-2.936 1.438,-4.206c0.707,-1.294 1.587,-2.361 2.642,-3.2c1.103,-0.898 2.307,-1.563 3.613,-1.995c1.329,-0.455 2.78,-0.682 4.349,-0.682c1.894,0 3.499,0.329 4.817,0.988c1.294,0.611 2.301,1.546 3.02,2.804c0.683,1.174 1.024,2.642 1.024,4.403c0,0.468 -0.059,1.228 -0.179,2.283" style="fill:#15003e;fill-rule:nonzero;"/><path d="M107.251,88.97l3.092,10.245l6.362,-10.245l3.973,0l3.127,10.245l6.381,-10.245l7.386,0l-12.833,18.891l-4.349,0l-3.02,-10.335l-6.326,10.335l-4.35,0l-6.883,-18.891l7.44,0Z" style="fill:#15003e;fill-rule:nonzero;"/><path d="M148.302,94.164c-0.935,0 -1.737,0.198 -2.408,0.594c-0.707,0.371 -1.285,0.889 -1.735,1.554c-0.449,0.665 -0.728,1.375 -0.836,2.13c-0.047,0.528 -0.072,0.809 -0.072,0.845c0,0.982 0.318,1.791 0.953,2.427c0.635,0.635 1.546,0.952 2.732,0.952c1.318,0 2.432,-0.401 3.344,-1.204c0.921,-0.779 1.473,-1.785 1.653,-3.02c0.048,-0.455 0.071,-0.713 0.071,-0.773c0,-1.042 -0.317,-1.881 -0.952,-2.516c-0.683,-0.659 -1.6,-0.989 -2.75,-0.989m11.593,-5.194l-2.984,18.89l-6.704,0l0.342,-2.102l-0.09,0c-0.683,0.886 -1.588,1.563 -2.714,2.03c-1.103,0.468 -2.247,0.701 -3.433,0.701c-1.606,0 -3.014,-0.371 -4.224,-1.114c-1.234,-0.707 -2.181,-1.698 -2.84,-2.975c-0.659,-1.276 -0.988,-2.686 -0.988,-4.232c0,-0.732 0.048,-1.318 0.144,-1.762c0.252,-1.797 0.917,-3.469 1.995,-5.014c1.03,-1.499 2.354,-2.726 3.971,-3.685c1.546,-0.898 3.236,-1.348 5.07,-1.348c1.126,0 2.186,0.204 3.18,0.611c0.935,0.431 1.696,1.048 2.284,1.851l0.287,-1.851l6.704,0Z" style="fill:#15003e;fill-rule:nonzero;"/><path d="M171.056,88.97l-0.485,3.092l0.072,0c1.569,-2.229 3.78,-3.343 6.632,-3.343l1.276,0l-0.988,6.435c-0.72,-0.408 -1.643,-0.612 -2.769,-0.612c-1.714,0 -2.989,0.491 -3.828,1.474c-0.803,0.947 -1.366,2.354 -1.689,4.224l-1.204,7.621l-6.705,0l2.984,-18.891l6.704,0Z" style="fill:#15003e;fill-rule:nonzero;"/><path d="M190.342,94.164c-0.923,0 -1.72,0.198 -2.391,0.594c-0.718,0.371 -1.294,0.886 -1.725,1.546c-0.444,0.623 -0.732,1.336 -0.863,2.138c-0.048,0.528 -0.072,0.809 -0.072,0.845c0,0.635 0.15,1.222 0.449,1.762c0.24,0.467 0.66,0.862 1.258,1.185c0.54,0.288 1.198,0.432 1.978,0.432c1.318,0 2.438,-0.401 3.361,-1.204c0.899,-0.755 1.449,-1.762 1.653,-3.02c0.048,-0.503 0.073,-0.76 0.073,-0.773c0,-1.018 -0.319,-1.857 -0.953,-2.516c-0.683,-0.659 -1.606,-0.989 -2.768,-0.989m1.905,13.696l0.341,-2.102l-0.071,0c-0.707,0.886 -1.618,1.563 -2.733,2.03c-1.089,0.468 -2.228,0.701 -3.415,0.701c-1.617,0 -3.044,-0.371 -4.277,-1.114c-1.271,-0.731 -2.199,-1.726 -2.786,-2.983c-0.671,-1.283 -1.007,-2.691 -1.007,-4.224c0,-0.695 0.048,-1.282 0.145,-1.762c0.262,-1.797 0.927,-3.469 1.995,-5.014c1.03,-1.499 2.354,-2.726 3.971,-3.685c1.546,-0.898 3.242,-1.348 5.087,-1.348c1.09,0 2.145,0.204 3.163,0.611c0.935,0.431 1.696,1.048 2.283,1.851l2.139,-13.515l6.686,0l-4.817,30.554l-6.704,0Z" style="fill:#15003e;fill-rule:nonzero;"/><path d="M59.555,119.303l-5.436,0l0,3.748l5.244,0l0,2.213l-5.244,0l0,7.425l-2.353,0l0,-15.599l7.789,0l0,2.213Z" style="fill:#15003e;fill-rule:nonzero;"/><path d="M63.707,127.739c0,0.983 0.263,1.762 0.788,2.334c0.539,0.579 1.25,0.868 2.132,0.868c0.889,0 1.6,-0.286 2.132,-0.858c0.532,-0.573 0.798,-1.337 0.798,-2.293c0,-0.956 -0.266,-1.721 -0.798,-2.294c-0.539,-0.579 -1.249,-0.868 -2.132,-0.868c-0.869,0 -1.572,0.289 -2.111,0.868c-0.539,0.58 -0.809,1.327 -0.809,2.243m-2.323,-0.04c0,-1.421 0.509,-2.63 1.525,-3.627c1.017,-0.997 2.256,-1.495 3.718,-1.495c1.469,0 2.714,0.502 3.738,1.505c1.01,1.004 1.515,2.236 1.515,3.697c0,1.476 -0.508,2.711 -1.526,3.708c-1.023,0.99 -2.279,1.485 -3.767,1.485c-1.476,0 -2.711,-0.505 -3.708,-1.515c-0.997,-0.997 -1.495,-2.249 -1.495,-3.758" style="fill:#15003e;fill-rule:nonzero;"/><path d="M74.285,122.849l2.273,0l0,0.879c0.417,-0.438 0.788,-0.737 1.112,-0.9c0.329,-0.167 0.719,-0.251 1.172,-0.251c0.598,0 1.225,0.195 1.879,0.585l-1.041,2.082c-0.431,-0.31 -0.852,-0.465 -1.263,-0.465c-1.239,0 -1.859,0.936 -1.859,2.808l0,5.102l-2.273,0l0,-9.84Z" style="fill:#15003e;fill-rule:nonzero;"/><path d="M96.065,123.274l0,3.021c-0.519,-0.633 -0.983,-1.068 -1.394,-1.304c-0.404,-0.242 -0.878,-0.363 -1.424,-0.363c-0.856,0 -1.566,0.299 -2.132,0.898c-0.566,0.6 -0.849,1.351 -0.849,2.253c0,0.923 0.274,1.681 0.819,2.273c0.552,0.593 1.256,0.889 2.111,0.889c0.546,0 1.027,-0.117 1.445,-0.354c0.404,-0.228 0.879,-0.672 1.424,-1.333l0,3c-0.923,0.479 -1.845,0.718 -2.768,0.718c-1.522,0 -2.794,-0.492 -3.818,-1.475c-1.024,-0.99 -1.536,-2.219 -1.536,-3.688c0,-1.468 0.518,-2.707 1.556,-3.718c1.037,-1.009 2.31,-1.514 3.819,-1.514c0.97,0 1.886,0.232 2.747,0.697" style="fill:#15003e;fill-rule:nonzero;"/><path d="M100.126,127.739c0,0.983 0.263,1.762 0.788,2.334c0.539,0.579 1.25,0.868 2.132,0.868c0.889,0 1.6,-0.286 2.132,-0.858c0.532,-0.573 0.798,-1.337 0.798,-2.293c0,-0.956 -0.266,-1.721 -0.798,-2.294c-0.539,-0.579 -1.249,-0.868 -2.132,-0.868c-0.869,0 -1.572,0.289 -2.111,0.868c-0.539,0.58 -0.809,1.327 -0.809,2.243m-2.323,-0.04c0,-1.421 0.509,-2.63 1.525,-3.627c1.017,-0.997 2.256,-1.495 3.718,-1.495c1.469,0 2.714,0.502 3.738,1.505c1.01,1.004 1.515,2.236 1.515,3.697c0,1.476 -0.508,2.711 -1.526,3.708c-1.023,0.99 -2.279,1.485 -3.767,1.485c-1.476,0 -2.711,-0.505 -3.708,-1.515c-0.997,-0.997 -1.495,-2.249 -1.495,-3.758" style="fill:#15003e;fill-rule:nonzero;"/><path d="M112.562,127.739c0,0.943 0.253,1.711 0.758,2.304c0.518,0.599 1.172,0.898 1.96,0.898c0.842,0 1.522,-0.289 2.041,-0.868c0.518,-0.6 0.777,-1.36 0.777,-2.283c0,-0.923 -0.259,-1.684 -0.777,-2.283c-0.519,-0.586 -1.193,-0.879 -2.021,-0.879c-0.781,0 -1.434,0.296 -1.96,0.888c-0.518,0.6 -0.778,1.341 -0.778,2.223m5.396,-12.113l2.283,0l0,17.063l-2.283,0l0,-1.03c-0.897,0.875 -1.911,1.313 -3.042,1.313c-1.347,0 -2.464,-0.492 -3.354,-1.475c-0.882,-1.003 -1.323,-2.256 -1.323,-3.758c0,-1.468 0.441,-2.694 1.323,-3.678c0.876,-0.989 1.977,-1.484 3.304,-1.484c1.151,0 2.182,0.472 3.092,1.414l0,-8.365Z" style="fill:#15003e;fill-rule:nonzero;"/><path d="M125.383,132.689l-2.273,0l0,-9.84l2.273,0l0,9.84Zm-2.617,-13.932c0,-0.396 0.144,-0.74 0.434,-1.03c0.29,-0.289 0.637,-0.435 1.041,-0.435c0.41,0 0.761,0.146 1.05,0.435c0.29,0.283 0.435,0.63 0.435,1.041c0,0.41 -0.145,0.761 -0.435,1.051c-0.282,0.289 -0.629,0.433 -1.04,0.433c-0.411,0 -0.761,-0.144 -1.051,-0.433c-0.29,-0.29 -0.434,-0.644 -0.434,-1.062" style="fill:#15003e;fill-rule:nonzero;"/><path d="M128.261,122.849l2.283,0l0,0.909c0.795,-0.788 1.691,-1.181 2.688,-1.181c1.144,0 2.037,0.36 2.676,1.081c0.552,0.612 0.829,1.612 0.829,3l0,6.031l-2.284,0l0,-5.496c0,-0.97 -0.134,-1.64 -0.403,-2.01c-0.263,-0.377 -0.741,-0.566 -1.435,-0.566c-0.754,0 -1.29,0.25 -1.606,0.748c-0.31,0.491 -0.465,1.35 -0.465,2.576l0,4.748l-2.283,0l0,-9.84Z" style="fill:#15003e;fill-rule:nonzero;"/><path d="M146.941,127.789c0,-0.956 -0.256,-1.721 -0.768,-2.294c-0.518,-0.586 -1.181,-0.879 -1.99,-0.879c-0.862,0 -1.542,0.32 -2.04,0.96c-0.452,0.572 -0.678,1.314 -0.678,2.223c0,0.895 0.226,1.63 0.678,2.202c0.491,0.627 1.172,0.939 2.04,0.939c0.869,0 1.556,-0.316 2.062,-0.949c0.464,-0.572 0.696,-1.306 0.696,-2.202m2.183,4.667c0,0.465 -0.016,0.874 -0.046,1.228c-0.031,0.353 -0.073,0.665 -0.126,0.934c-0.162,0.74 -0.479,1.377 -0.949,1.909c-0.89,1.024 -2.113,1.535 -3.668,1.535c-1.313,0 -2.394,-0.353 -3.243,-1.06c-0.876,-0.728 -1.38,-1.734 -1.515,-3.021l2.283,0c0.087,0.486 0.232,0.859 0.435,1.121c0.47,0.614 1.158,0.92 2.06,0.92c1.663,0 2.495,-1.02 2.495,-3.061l0,-1.374c-0.902,0.923 -1.943,1.385 -3.121,1.385c-1.341,0 -2.438,-0.486 -3.294,-1.455c-0.862,-0.984 -1.293,-2.213 -1.293,-3.688c0,-1.435 0.401,-2.653 1.202,-3.657c0.863,-1.064 2,-1.596 3.415,-1.596c1.24,0 2.27,0.461 3.091,1.384l0,-1.111l2.274,0l0,9.607Z" style="fill:#15003e;fill-rule:nonzero;"/><path d="M160.407,124.849c0,1.725 0.579,3.143 1.738,4.254c1.152,1.111 2.482,1.666 3.991,1.666c1.636,0 3.016,-0.566 4.141,-1.696c1.125,-1.146 1.688,-2.539 1.688,-4.183c0,-1.664 -0.556,-3.058 -1.667,-4.183c-1.105,-1.131 -2.472,-1.697 -4.102,-1.697c-1.623,0 -2.994,0.566 -4.111,1.697c-1.118,1.119 -1.678,2.499 -1.678,4.142m-2.374,-0.03c0,-2.196 0.805,-4.081 2.415,-5.657c1.603,-1.577 3.528,-2.365 5.778,-2.365c2.223,0 4.128,0.795 5.718,2.385c1.597,1.59 2.395,3.499 2.395,5.728c0,2.243 -0.802,4.145 -2.405,5.708c-1.61,1.569 -3.552,2.354 -5.829,2.354c-2.013,0 -3.822,-0.697 -5.425,-2.092c-1.764,-1.542 -2.647,-3.562 -2.647,-6.061" style="fill:#15003e;fill-rule:nonzero;"/><path d="M186.119,119.414l-1.909,1.131c-0.358,-0.619 -0.697,-1.024 -1.021,-1.212c-0.337,-0.216 -0.771,-0.323 -1.303,-0.323c-0.654,0 -1.196,0.185 -1.626,0.555c-0.432,0.364 -0.647,0.822 -0.647,1.374c0,0.761 0.566,1.374 1.697,1.839l1.556,0.636c1.266,0.513 2.192,1.137 2.778,1.874c0.586,0.738 0.879,1.642 0.879,2.713c0,1.434 -0.478,2.62 -1.434,3.556c-0.964,0.943 -2.159,1.415 -3.587,1.415c-1.354,0 -2.472,-0.402 -3.354,-1.203c-0.869,-0.801 -1.411,-1.929 -1.627,-3.384l2.385,-0.526c0.108,0.916 0.296,1.549 0.566,1.9c0.485,0.674 1.192,1.009 2.121,1.009c0.734,0 1.343,-0.245 1.829,-0.737c0.484,-0.491 0.727,-1.114 0.727,-1.869c0,-0.303 -0.043,-0.58 -0.127,-0.833c-0.084,-0.253 -0.215,-0.485 -0.393,-0.697c-0.179,-0.212 -0.409,-0.41 -0.693,-0.596c-0.282,-0.185 -0.619,-0.362 -1.009,-0.53l-1.506,-0.627c-2.135,-0.903 -3.202,-2.222 -3.202,-3.96c0,-1.172 0.448,-2.151 1.343,-2.94c0.896,-0.794 2.011,-1.192 3.344,-1.192c1.798,0 3.202,0.876 4.213,2.627" style="fill:#15003e;fill-rule:nonzero;"/><path d="M198.18,119.414l-1.909,1.131c-0.358,-0.619 -0.697,-1.024 -1.021,-1.212c-0.337,-0.216 -0.771,-0.323 -1.303,-0.323c-0.654,0 -1.196,0.185 -1.626,0.555c-0.432,0.364 -0.647,0.822 -0.647,1.374c0,0.761 0.566,1.374 1.697,1.839l1.556,0.636c1.266,0.513 2.192,1.137 2.778,1.874c0.586,0.738 0.879,1.642 0.879,2.713c0,1.434 -0.478,2.62 -1.434,3.556c-0.964,0.943 -2.159,1.415 -3.587,1.415c-1.354,0 -2.472,-0.402 -3.354,-1.203c-0.869,-0.801 -1.411,-1.929 -1.627,-3.384l2.385,-0.526c0.108,0.916 0.296,1.549 0.566,1.9c0.485,0.674 1.192,1.009 2.121,1.009c0.734,0 1.343,-0.245 1.829,-0.737c0.484,-0.491 0.727,-1.114 0.727,-1.869c0,-0.303 -0.043,-0.58 -0.127,-0.833c-0.084,-0.253 -0.215,-0.485 -0.393,-0.697c-0.179,-0.212 -0.409,-0.41 -0.693,-0.596c-0.282,-0.185 -0.619,-0.362 -1.009,-0.53l-1.506,-0.627c-2.135,-0.903 -3.202,-2.222 -3.202,-3.96c0,-1.172 0.448,-2.151 1.343,-2.94c0.896,-0.794 2.011,-1.192 3.344,-1.192c1.798,0 3.202,0.876 4.213,2.627" style="fill:#15003e;fill-rule:nonzero;"/><path d="M48.311,293.284l3.34,8.573l3.488,-9.196l3.34,9.196l3.547,-8.573l2.101,0l-5.731,13.641l-3.298,-9.088l-3.439,9.095l-5.45,-13.648l2.102,0Z" style="fill:#15003e;fill-rule:nonzero;"/><path d="M66.894,302.039c0,0.775 0.208,1.406 0.623,1.894c0.427,0.493 0.964,0.739 1.611,0.739c0.693,0 1.252,-0.237 1.679,-0.714c0.426,-0.493 0.64,-1.119 0.64,-1.878c0,-0.758 -0.214,-1.384 -0.64,-1.877c-0.427,-0.481 -0.98,-0.723 -1.662,-0.723c-0.643,0 -1.18,0.245 -1.611,0.731c-0.427,0.493 -0.64,1.102 -0.64,1.828m4.437,-4.021l1.876,0l0,8.091l-1.876,0l0,-0.847c-0.771,0.72 -1.599,1.08 -2.485,1.08c-1.118,0 -2.043,-0.405 -2.774,-1.213c-0.726,-0.825 -1.088,-1.855 -1.088,-3.09c0,-1.213 0.362,-2.224 1.088,-3.032c0.725,-0.809 1.634,-1.213 2.724,-1.213c0.942,0 1.786,0.388 2.535,1.163l0,-0.939Z" style="fill:#15003e;fill-rule:nonzero;"/><path d="M75.567,298.019l1.877,0l0,0.747c0.653,-0.647 1.391,-0.972 2.21,-0.972c0.941,0 1.675,0.297 2.201,0.889c0.454,0.504 0.682,1.327 0.682,2.468l0,4.959l-1.878,0l0,-4.519c0,-0.798 -0.111,-1.348 -0.332,-1.653c-0.216,-0.311 -0.61,-0.466 -1.18,-0.466c-0.62,0 -1.06,0.205 -1.32,0.615c-0.255,0.405 -0.383,1.111 -0.383,2.119l0,3.904l-1.877,0l0,-8.091Z" style="fill:#15003e;fill-rule:nonzero;"/><path d="M86.822,299.763l0,6.347l-1.869,0l0,-6.347l-0.797,0l0,-1.744l0.797,0l0,-2.966l1.869,0l0,2.966l1.454,0l0,1.744l-1.454,0Z" style="fill:#15003e;fill-rule:nonzero;"/><path d="M94.997,300.976c-0.261,-0.997 -0.889,-1.495 -1.886,-1.495c-0.226,0 -0.44,0.034 -0.639,0.103c-0.2,0.07 -0.381,0.169 -0.544,0.299c-0.163,0.131 -0.303,0.287 -0.42,0.47c-0.116,0.183 -0.204,0.391 -0.266,0.623l3.755,0Zm1.919,1.528l-5.798,0c0.05,0.665 0.266,1.194 0.648,1.587c0.381,0.388 0.872,0.581 1.47,0.581c0.465,0 0.85,-0.11 1.155,-0.332c0.298,-0.221 0.639,-0.631 1.021,-1.229l1.579,0.881c-0.244,0.415 -0.502,0.771 -0.772,1.067c-0.272,0.296 -0.563,0.54 -0.873,0.731c-0.31,0.191 -0.645,0.331 -1.005,0.419c-0.361,0.089 -0.75,0.133 -1.171,0.133c-1.208,0 -2.177,-0.387 -2.908,-1.163c-0.731,-0.78 -1.096,-1.816 -1.096,-3.106c0,-1.28 0.353,-2.315 1.062,-3.108c0.715,-0.78 1.663,-1.171 2.842,-1.171c1.191,0 2.132,0.38 2.824,1.138c0.687,0.754 1.031,1.798 1.031,3.132l-0.009,0.44Z" style="fill:#15003e;fill-rule:nonzero;"/><path d="M100.488,302.039c0,0.775 0.208,1.406 0.623,1.894c0.427,0.493 0.964,0.739 1.611,0.739c0.693,0 1.252,-0.237 1.679,-0.714c0.426,-0.493 0.64,-1.119 0.64,-1.878c0,-0.758 -0.214,-1.384 -0.64,-1.877c-0.427,-0.481 -0.98,-0.723 -1.662,-0.723c-0.643,0 -1.18,0.245 -1.611,0.731c-0.427,0.493 -0.64,1.102 -0.64,1.828m4.437,-9.96l1.876,0l0,14.03l-1.876,0l0,-0.847c-0.738,0.72 -1.571,1.08 -2.501,1.08c-1.108,0 -2.027,-0.405 -2.758,-1.213c-0.726,-0.825 -1.088,-1.855 -1.088,-3.09c0,-1.207 0.362,-2.215 1.088,-3.023c0.719,-0.815 1.625,-1.222 2.717,-1.222c0.946,0 1.793,0.388 2.542,1.163l0,-6.878Z" style="fill:#15003e;fill-rule:nonzero;"/><path d="M109.452,305.179c0,-0.31 0.113,-0.578 0.34,-0.806c0.227,-0.226 0.499,-0.34 0.814,-0.34c0.316,0 0.587,0.114 0.815,0.34c0.226,0.228 0.34,0.499 0.34,0.815c0,0.321 -0.114,0.595 -0.34,0.822c-0.222,0.222 -0.493,0.332 -0.815,0.332c-0.327,0 -0.6,-0.11 -0.822,-0.332c-0.222,-0.222 -0.332,-0.498 -0.332,-0.831m0,-6.247c0,-0.304 0.113,-0.57 0.34,-0.797c0.227,-0.227 0.499,-0.341 0.814,-0.341c0.316,0 0.587,0.114 0.815,0.341c0.226,0.227 0.34,0.498 0.34,0.814c0,0.321 -0.114,0.595 -0.34,0.823c-0.222,0.22 -0.493,0.332 -0.815,0.332c-0.321,0 -0.595,-0.113 -0.822,-0.341c-0.222,-0.222 -0.332,-0.498 -0.332,-0.831" style="fill:#15003e;fill-rule:nonzero;"/><path d="M121.954,299.107l0.723,0c1.777,0 2.666,-0.684 2.666,-2.052c0,-1.323 -0.916,-1.985 -2.749,-1.985l-0.64,0l0,4.037Zm0,1.794l0,5.209l-1.936,0l0,-12.826l2.193,0c1.074,0 1.886,0.075 2.434,0.224c0.554,0.15 1.041,0.432 1.462,0.847c0.737,0.721 1.105,1.629 1.105,2.726c0,1.173 -0.393,2.104 -1.18,2.791c-0.786,0.686 -1.847,1.029 -3.182,1.029l-0.896,0Z" style="fill:#15003e;fill-rule:nonzero;"/><path d="M130.717,298.019l0,4.644c0,1.339 0.528,2.009 1.587,2.009c1.058,0 1.586,-0.67 1.586,-2.009l0,-4.644l1.869,0l0,4.685c0,0.648 -0.08,1.208 -0.24,1.678c-0.156,0.421 -0.424,0.8 -0.807,1.138c-0.631,0.548 -1.433,0.822 -2.408,0.822c-0.97,0 -1.77,-0.274 -2.401,-0.822c-0.388,-0.338 -0.662,-0.717 -0.823,-1.138c-0.155,-0.377 -0.232,-0.936 -0.232,-1.678l0,-4.685l1.869,0Z" style="fill:#15003e;fill-rule:nonzero;"/><rect x="138.119" y="292.08" width="1.869" height="14.03" style="fill:#15003e;"/><rect x="142.356" y="292.08" width="1.869" height="14.03" style="fill:#15003e;"/><path d="M154.134,299.173l0.614,0c1.833,0 2.75,-0.7 2.75,-2.102c0,-1.312 -0.891,-1.968 -2.675,-1.968l-0.689,0l0,4.07Zm2.409,1.471l3.971,5.466l-2.368,0l-3.663,-5.25l-0.349,0l0,5.25l-1.936,0l0,-12.827l2.268,0c1.694,0 2.918,0.319 3.672,0.955c0.83,0.709 1.246,1.646 1.246,2.809c0,0.908 -0.261,1.689 -0.781,2.342c-0.521,0.654 -1.207,1.072 -2.06,1.255" style="fill:#15003e;fill-rule:nonzero;"/><path d="M167.534,300.976c-0.261,-0.997 -0.889,-1.495 -1.886,-1.495c-0.226,0 -0.44,0.034 -0.639,0.103c-0.2,0.07 -0.381,0.169 -0.544,0.299c-0.163,0.131 -0.303,0.287 -0.42,0.47c-0.116,0.183 -0.204,0.391 -0.266,0.623l3.755,0Zm1.919,1.528l-5.798,0c0.05,0.665 0.266,1.194 0.648,1.587c0.381,0.388 0.872,0.581 1.47,0.581c0.465,0 0.85,-0.11 1.155,-0.332c0.298,-0.221 0.639,-0.631 1.021,-1.229l1.579,0.881c-0.244,0.415 -0.502,0.771 -0.772,1.067c-0.272,0.296 -0.563,0.54 -0.873,0.731c-0.31,0.191 -0.645,0.331 -1.005,0.419c-0.361,0.089 -0.75,0.133 -1.171,0.133c-1.208,0 -2.177,-0.387 -2.908,-1.163c-0.731,-0.78 -1.096,-1.816 -1.096,-3.106c0,-1.28 0.353,-2.315 1.062,-3.108c0.715,-0.78 1.663,-1.171 2.842,-1.171c1.191,0 2.132,0.38 2.824,1.138c0.687,0.754 1.031,1.798 1.031,3.132l-0.009,0.44Z" style="fill:#15003e;fill-rule:nonzero;"/><path d="M173.025,302.023c0,0.78 0.211,1.415 0.632,1.902c0.42,0.498 0.955,0.747 1.602,0.747c0.687,0 1.244,-0.237 1.67,-0.713c0.432,-0.483 0.649,-1.108 0.649,-1.878c0,-0.758 -0.214,-1.384 -0.64,-1.877c-0.427,-0.482 -0.98,-0.723 -1.662,-0.723c-0.643,0 -1.18,0.244 -1.611,0.73c-0.427,0.494 -0.64,1.097 -0.64,1.812m4.437,8.489l0,-5.307c-0.743,0.758 -1.59,1.137 -2.542,1.137c-1.092,0 -1.998,-0.401 -2.717,-1.204c-0.726,-0.808 -1.088,-1.819 -1.088,-3.032c0,-1.229 0.362,-2.257 1.088,-3.082c0.731,-0.819 1.647,-1.23 2.75,-1.23c0.935,0 1.771,0.369 2.509,1.105l0,-0.88l1.876,0l0,12.493l-1.876,0Z" style="fill:#15003e;fill-rule:nonzero;"/><path d="M183.566,298.019l0,4.644c0,1.339 0.528,2.009 1.587,2.009c1.058,0 1.586,-0.67 1.586,-2.009l0,-4.644l1.869,0l0,4.685c0,0.648 -0.08,1.208 -0.24,1.678c-0.156,0.421 -0.424,0.8 -0.807,1.138c-0.631,0.548 -1.433,0.822 -2.408,0.822c-0.97,0 -1.77,-0.274 -2.401,-0.822c-0.388,-0.338 -0.662,-0.717 -0.823,-1.138c-0.155,-0.377 -0.232,-0.936 -0.232,-1.678l0,-4.685l1.869,0Z" style="fill:#15003e;fill-rule:nonzero;"/><path d="M196.418,300.976c-0.261,-0.997 -0.889,-1.495 -1.886,-1.495c-0.226,0 -0.44,0.034 -0.639,0.103c-0.2,0.07 -0.381,0.169 -0.544,0.299c-0.163,0.131 -0.303,0.287 -0.42,0.47c-0.116,0.183 -0.204,0.391 -0.266,0.623l3.755,0Zm1.919,1.528l-5.798,0c0.05,0.665 0.266,1.194 0.648,1.587c0.381,0.388 0.872,0.581 1.47,0.581c0.465,0 0.85,-0.11 1.155,-0.332c0.298,-0.221 0.639,-0.631 1.021,-1.229l1.579,0.881c-0.244,0.415 -0.502,0.771 -0.772,1.067c-0.272,0.296 -0.563,0.54 -0.873,0.731c-0.31,0.191 -0.645,0.331 -1.005,0.419c-0.361,0.089 -0.75,0.133 -1.171,0.133c-1.208,0 -2.177,-0.387 -2.908,-1.163c-0.731,-0.78 -1.096,-1.816 -1.096,-3.106c0,-1.28 0.353,-2.315 1.062,-3.108c0.715,-0.78 1.663,-1.171 2.842,-1.171c1.191,0 2.132,0.38 2.824,1.138c0.687,0.754 1.031,1.798 1.031,3.132l-0.009,0.44Z" style="fill:#15003e;fill-rule:nonzero;"/><path d="M205.082,299.398l-1.546,0.822c-0.243,-0.498 -0.545,-0.748 -0.905,-0.748c-0.172,0 -0.319,0.058 -0.441,0.171c-0.122,0.113 -0.182,0.259 -0.182,0.436c0,0.31 0.36,0.618 1.08,0.923c0.991,0.425 1.658,0.819 2.002,1.178c0.344,0.361 0.514,0.845 0.514,1.454c0,0.782 -0.287,1.435 -0.863,1.961c-0.559,0.498 -1.235,0.747 -2.027,0.747c-1.357,0 -2.318,-0.661 -2.883,-1.985l1.596,-0.739c0.22,0.387 0.39,0.634 0.507,0.739c0.226,0.211 0.498,0.315 0.813,0.315c0.632,0 0.947,-0.287 0.947,-0.863c0,-0.333 -0.244,-0.642 -0.731,-0.931c-0.188,-0.093 -0.376,-0.185 -0.565,-0.274c-0.188,-0.088 -0.379,-0.18 -0.573,-0.273c-0.543,-0.267 -0.925,-0.533 -1.146,-0.798c-0.283,-0.338 -0.424,-0.773 -0.424,-1.305c0,-0.703 0.241,-1.284 0.723,-1.744c0.493,-0.46 1.09,-0.69 1.794,-0.69c1.036,0 1.805,0.535 2.31,1.604" style="fill:#15003e;fill-rule:nonzero;"/><path d="M209.21,299.763l0,6.347l-1.869,0l0,-6.347l-0.797,0l0,-1.744l0.797,0l0,-2.966l1.869,0l0,2.966l1.454,0l0,1.744l-1.454,0Z" style="fill:#15003e;fill-rule:nonzero;"/><path d="M84.958,315.518l-5.142,0l0,3.082l4.993,0l0,1.819l-4.993,0l0,4.287l5.142,0l0,1.819l-7.077,0l0,-12.826l7.077,0l0,1.819Z" style="fill:#15003e;fill-rule:nonzero;"/><path d="M89.069,320.178l0,6.347l-1.869,0l0,-6.347l-0.797,0l0,-1.744l0.797,0l0,-2.966l1.869,0l0,2.966l1.454,0l0,1.744l-1.454,0Z" style="fill:#15003e;fill-rule:nonzero;"/><path d="M91.795,312.495l1.869,0l0,6.612c0.664,-0.598 1.399,-0.897 2.201,-0.897c0.914,0 1.645,0.297 2.194,0.889c0.465,0.515 0.697,1.337 0.697,2.467l0,4.959l-1.869,0l0,-4.785c0,-0.647 -0.114,-1.117 -0.345,-1.408c-0.229,-0.29 -0.6,-0.436 -1.108,-0.436c-0.655,0 -1.114,0.203 -1.379,0.607c-0.261,0.41 -0.391,1.113 -0.391,2.109l0,3.913l-1.869,0l0,-14.03Z" style="fill:#15003e;fill-rule:nonzero;"/><path d="M106.573,321.391c-0.261,-0.997 -0.889,-1.495 -1.886,-1.495c-0.226,0 -0.44,0.034 -0.639,0.103c-0.2,0.07 -0.381,0.169 -0.544,0.299c-0.163,0.131 -0.303,0.287 -0.42,0.47c-0.116,0.183 -0.204,0.391 -0.266,0.623l3.755,0Zm1.919,1.528l-5.798,0c0.05,0.665 0.266,1.194 0.648,1.587c0.381,0.388 0.872,0.581 1.47,0.581c0.465,0 0.85,-0.11 1.155,-0.332c0.298,-0.221 0.639,-0.631 1.021,-1.229l1.579,0.881c-0.244,0.415 -0.502,0.771 -0.772,1.067c-0.272,0.296 -0.563,0.54 -0.873,0.731c-0.31,0.191 -0.645,0.331 -1.005,0.419c-0.361,0.089 -0.75,0.133 -1.171,0.133c-1.208,0 -2.177,-0.387 -2.908,-1.163c-0.731,-0.78 -1.096,-1.816 -1.096,-3.106c0,-1.28 0.353,-2.315 1.062,-3.108c0.715,-0.78 1.663,-1.171 2.842,-1.171c1.191,0 2.132,0.38 2.824,1.138c0.687,0.754 1.031,1.798 1.031,3.132l-0.009,0.44Z" style="fill:#15003e;fill-rule:nonzero;"/><path d="M110.535,318.434l1.869,0l0,0.723c0.343,-0.361 0.648,-0.607 0.914,-0.74c0.271,-0.138 0.592,-0.208 0.963,-0.208c0.493,0 1.008,0.162 1.545,0.482l-0.855,1.712c-0.355,-0.255 -0.701,-0.383 -1.039,-0.383c-1.018,0 -1.528,0.77 -1.528,2.31l0,4.195l-1.869,0l0,-8.091Z" style="fill:#15003e;fill-rule:nonzero;"/><path d="M124.441,319.588l0.614,0c1.833,0 2.75,-0.7 2.75,-2.102c0,-1.312 -0.891,-1.968 -2.675,-1.968l-0.689,0l0,4.07Zm2.409,1.471l3.971,5.466l-2.368,0l-3.663,-5.25l-0.349,0l0,5.25l-1.936,0l0,-12.827l2.268,0c1.694,0 2.918,0.319 3.672,0.955c0.83,0.709 1.246,1.646 1.246,2.809c0,0.908 -0.261,1.689 -0.781,2.342c-0.521,0.654 -1.207,1.072 -2.06,1.255" style="fill:#15003e;fill-rule:nonzero;"/><path d="M137.84,321.391c-0.261,-0.997 -0.889,-1.495 -1.886,-1.495c-0.226,0 -0.44,0.034 -0.639,0.103c-0.2,0.07 -0.381,0.169 -0.544,0.299c-0.163,0.131 -0.303,0.287 -0.42,0.47c-0.116,0.183 -0.204,0.391 -0.266,0.623l3.755,0Zm1.919,1.528l-5.798,0c0.05,0.665 0.266,1.194 0.648,1.587c0.381,0.388 0.872,0.581 1.47,0.581c0.465,0 0.85,-0.11 1.155,-0.332c0.298,-0.221 0.639,-0.631 1.021,-1.229l1.579,0.881c-0.244,0.415 -0.502,0.771 -0.772,1.067c-0.272,0.296 -0.563,0.54 -0.873,0.731c-0.31,0.191 -0.645,0.331 -1.005,0.419c-0.361,0.089 -0.75,0.133 -1.171,0.133c-1.208,0 -2.177,-0.387 -2.908,-1.163c-0.731,-0.78 -1.096,-1.816 -1.096,-3.106c0,-1.28 0.353,-2.315 1.062,-3.108c0.715,-0.78 1.663,-1.171 2.842,-1.171c1.191,0 2.132,0.38 2.824,1.138c0.687,0.754 1.031,1.798 1.031,3.132l-0.009,0.44Z" style="fill:#15003e;fill-rule:nonzero;"/><path d="M142.816,318.434l2.118,4.618l2.284,-5.357l2.301,5.357l2.094,-4.618l2.094,0l-4.238,8.697l-2.251,-5.209l-2.276,5.209l-4.228,-8.697l2.102,0Z" style="fill:#15003e;fill-rule:nonzero;"/><path d="M156.498,322.454c0,0.775 0.208,1.406 0.623,1.894c0.427,0.493 0.964,0.739 1.611,0.739c0.693,0 1.252,-0.237 1.679,-0.714c0.426,-0.493 0.64,-1.119 0.64,-1.878c0,-0.758 -0.214,-1.384 -0.64,-1.877c-0.427,-0.481 -0.98,-0.723 -1.662,-0.723c-0.643,0 -1.18,0.245 -1.611,0.731c-0.427,0.493 -0.64,1.102 -0.64,1.828m4.437,-4.021l1.876,0l0,8.091l-1.876,0l0,-0.847c-0.771,0.72 -1.599,1.08 -2.485,1.08c-1.118,0 -2.043,-0.405 -2.774,-1.213c-0.726,-0.825 -1.088,-1.855 -1.088,-3.09c0,-1.213 0.362,-2.224 1.088,-3.032c0.725,-0.809 1.634,-1.213 2.724,-1.213c0.942,0 1.786,0.388 2.535,1.163l0,-0.939Z" style="fill:#15003e;fill-rule:nonzero;"/><path d="M165.17,318.434l1.869,0l0,0.723c0.343,-0.361 0.648,-0.607 0.914,-0.74c0.271,-0.138 0.592,-0.208 0.963,-0.208c0.493,0 1.008,0.162 1.545,0.482l-0.855,1.712c-0.355,-0.255 -0.701,-0.383 -1.039,-0.383c-1.018,0 -1.528,0.77 -1.528,2.31l0,4.195l-1.869,0l0,-8.091Z" style="fill:#15003e;fill-rule:nonzero;"/><path d="M173.062,322.454c0,0.775 0.208,1.406 0.623,1.894c0.427,0.493 0.964,0.739 1.611,0.739c0.693,0 1.252,-0.237 1.679,-0.714c0.426,-0.493 0.64,-1.119 0.64,-1.878c0,-0.758 -0.214,-1.384 -0.64,-1.877c-0.427,-0.481 -0.98,-0.723 -1.662,-0.723c-0.643,0 -1.18,0.245 -1.611,0.731c-0.427,0.493 -0.64,1.102 -0.64,1.828m4.437,-9.96l1.876,0l0,14.03l-1.876,0l0,-0.847c-0.738,0.72 -1.571,1.08 -2.501,1.08c-1.108,0 -2.027,-0.405 -2.758,-1.213c-0.726,-0.825 -1.088,-1.855 -1.088,-3.09c0,-1.207 0.362,-2.215 1.088,-3.023c0.719,-0.815 1.625,-1.222 2.717,-1.222c0.946,0 1.793,0.388 2.542,1.163l0,-6.878Z" style="fill:#15003e;fill-rule:nonzero;"/><path d="M39.907,75.862c0,1.88 -1.524,3.403 -3.402,3.403c-1.88,0 -3.404,-1.523 -3.404,-3.403c0,-1.879 1.524,-3.402 3.404,-3.402c1.878,0 3.402,1.523 3.402,3.402" style="fill:#15003e;fill-rule:nonzero;"/><path d="M223.982,75.862c0,1.88 -1.523,3.403 -3.403,3.403c-1.878,0 -3.402,-1.523 -3.402,-3.403c0,-1.879 1.524,-3.402 3.402,-3.402c1.88,0 3.403,1.523 3.403,3.402" style="fill:#15003e;fill-rule:nonzero;"/><path d="M39.907,330.536c0,1.88 -1.524,3.403 -3.402,3.403c-1.88,0 -3.404,-1.523 -3.404,-3.403c0,-1.879 1.524,-3.402 3.404,-3.402c1.878,0 3.402,1.523 3.402,3.402" style="fill:#15003e;fill-rule:nonzero;"/><path d="M223.982,330.536c0,1.88 -1.523,3.403 -3.403,3.403c-1.878,0 -3.402,-1.523 -3.402,-3.403c0,-1.879 1.524,-3.402 3.402,-3.402c1.88,0 3.403,1.523 3.403,3.402" style="fill:#15003e;fill-rule:nonzero;"/><g id="Robot"><path d="M112.428,216.399l0,10.598" style="fill:none;stroke:#3e00ff;stroke-width:1.65px;"/><path d="M135.864,216.399l0,10.598" style="fill:none;stroke:#3e00ff;stroke-width:1.65px;"/><path d="M108.843,213.75l0,2.88c0,4.451 1.768,8.72 4.915,11.867l10.571,10.571l10.479,-10.479c3.148,-3.147 4.916,-7.416 4.916,-11.867l0,-3.919" style="fill:none;stroke:#25e899;stroke-width:1.65px;"/><path d="M126.672,218.619l-5.695,0c-9.696,0 -17.556,-7.86 -17.556,-17.556l0,-21.135c0,-9.695 7.86,-17.555 17.556,-17.555l5.695,0c9.695,0 17.555,7.86 17.555,17.555l0,21.135c0,9.696 -7.86,17.556 -17.555,17.556Z" style="fill:#eff4ee;fill-rule:nonzero;stroke:#3e00ff;stroke-width:1.65px;stroke-linecap:butt;"/><path d="M107.833,186.36l6.065,0" style="fill:#eff4ee;fill-rule:nonzero;stroke:#3e00ff;stroke-width:1.65px;"/><path d="M113.175,181.489c0,-1.475 -1.196,-2.671 -2.671,-2.671c-1.475,0 -2.671,1.196 -2.671,2.671c0,1.476 1.196,2.671 2.671,2.671c1.475,0 2.671,-1.195 2.671,-2.671" style="fill:#3e00ff;fill-rule:nonzero;"/><path d="M111.29,179.561l0.743,-0.743l0.744,0.743l-0.744,0.744l-0.743,-0.744Z" style="fill:#eff4ee;"/><path d="M126.82,186.36l6.066,0" style="fill:#eff4ee;fill-rule:nonzero;stroke:#3e00ff;stroke-width:1.65px;"/><path d="M132.163,181.489c0,-1.475 -1.196,-2.671 -2.672,-2.671c-1.475,0 -2.671,1.196 -2.671,2.671c0,1.476 1.196,2.671 2.671,2.671c1.476,0 2.672,-1.195 2.672,-2.671" style="fill:#3e00ff;fill-rule:nonzero;"/><path d="M130.277,179.561l0.744,-0.743l0.743,0.743l-0.743,0.744l-0.744,-0.744Z" style="fill:#eff4ee;"/><path d="M114.588,175.469l-7.858,0l0,-2.895l4.963,0c1.599,0 2.895,1.296 2.895,2.895" style="fill:#3e00ff;fill-rule:nonzero;"/><path d="M133.782,175.469l-7.858,0l0,-2.895l4.963,0c1.599,0 2.895,1.296 2.895,2.895" style="fill:#3e00ff;fill-rule:nonzero;"/><path d="M119.413,193.391c-1.599,0 -2.895,-1.296 -2.895,-2.895c0,-1.599 1.296,-2.895 2.895,-2.895l0,-5.032" style="fill:#eff4ee;fill-rule:nonzero;stroke:#3e00ff;stroke-width:1.65px;stroke-linejoin:round;"/><path d="M141.954,171.285l-4.793,4.793l0,12.922c0,2.197 1.781,3.977 3.977,3.977l1.26,0l0.034,-3.848l1.795,-2.034c0,0 -0.043,-14.251 -2.273,-15.81" style="fill:#3e00ff;fill-rule:nonzero;"/><path d="M141.01,170.92l-25.424,0c-2.807,0 -5.082,-2.275 -5.082,-5.082l5.333,-2.7l6.792,-0.765l9.534,0.877l6.831,4.176l2.016,3.494Z" style="fill:#3e00ff;fill-rule:nonzero;"/><path d="M114.433,196.545c0,-1.971 -1.597,-3.568 -3.567,-3.568c-1.971,0 -3.568,1.597 -3.568,3.568c0,1.97 1.597,3.567 3.568,3.567c1.97,0 3.567,-1.597 3.567,-3.567" style="fill:#ebefea;fill-rule:nonzero;"/><path d="M133.059,196.545c0,-1.971 -1.597,-3.568 -3.568,-3.568c-1.97,0 -3.567,1.597 -3.567,3.568c0,1.97 1.597,3.567 3.567,3.567c1.971,0 3.568,-1.597 3.568,-3.567" style="fill:#ebefea;fill-rule:nonzero;"/><path d="M112.428,202.076c0,0 6.985,5.33 15.808,0" style="fill:#eff4ee;fill-rule:nonzero;stroke:#3e00ff;stroke-width:1.65px;"/><path d="M114.569,203.26c0,0 5.303,-3.41 10.082,0" style="fill:none;stroke:#3e00ff;stroke-width:1.65px;"/><path d="M99.561,281.114l-13.234,0l0,-36.07c0,-9.079 5.637,-16.841 13.602,-19.977l0,-1.485l0,-44.413c0,-11.509 9.33,-20.84 20.84,-20.84l5.743,0c11.509,0 20.84,9.331 20.84,20.84l0,44.413l0.001,0.804c9.015,2.543 15.623,10.829 15.623,20.658l0,36.07l-38.691,0" style="fill:none;stroke:#25e899;stroke-width:1.65px;"/><path d="M106.868,232.129c0,-1.066 -0.864,-1.93 -1.93,-1.93c-1.066,0 -1.93,0.864 -1.93,1.93c0,1.066 0.864,1.93 1.93,1.93c1.066,0 1.93,-0.864 1.93,-1.93" style="fill:#ffce08;fill-rule:nonzero;"/><path d="M104.938,232.129l0,12.774" style="fill:none;stroke:#25e899;stroke-width:1.65px;"/><path d="M146.157,232.129c0,-1.066 -0.864,-1.93 -1.93,-1.93c-1.066,0 -1.93,0.864 -1.93,1.93c0,1.066 0.864,1.93 1.93,1.93c1.066,0 1.93,-0.864 1.93,-1.93" style="fill:#ffce08;fill-rule:nonzero;"/><path d="M144.227,232.129l0,16.543" style="fill:none;stroke:#25e899;stroke-width:1.65px;"/><path d="M144.227,251.567l0,4.204" style="fill:none;stroke:#ffce08;stroke-width:1.65px;"/><path d="M104.938,247.362l0,4.205" style="fill:none;stroke:#ffce08;stroke-width:1.65px;"/><path d="M105.972,281.114l11.304,0" style="fill:none;stroke:#25e899;stroke-width:1.65px;"/><path d="M157.152,146.973c0,-3.714 -3.015,-6.729 -6.729,-6.729c-3.714,0 -6.73,3.015 -6.73,6.729c0,3.714 3.016,6.73 6.73,6.73c3.714,0 6.729,-3.016 6.729,-6.73Z" style="fill:none;stroke:#25e899;stroke-width:1.65px;"/><path d="M148.701,171.285l-9.558,-12.089l-12.323,-3.86l-11.665,1.103l-9.443,5.934l-7.278,10.903l-1.304,10.488l6.445,24.969l40.275,-0.914l6.573,-24.958l-1.722,-11.576Z" style="fill:#eff4ee;fill-rule:nonzero;"/><path d="M101.066,198.061l41.904,0l3.551,1.355l-2.671,9.562l-40.147,0l-2.637,-10.917Z" style="fill:#25e899;fill-rule:nonzero;"/><path d="M138.175,220.798l-28.797,0c-3.134,0 -5.675,-2.541 -5.675,-5.675l0,-6.145l40.147,0l0,6.145c0,3.134 -2.541,5.675 -5.675,5.675" style="fill:#eff4ee;fill-rule:nonzero;"/><path d="M105.007,210.282l0,4.841c0,2.41 1.961,4.371 4.371,4.371l28.797,0c2.41,0 4.371,-1.961 4.371,-4.371l0,-4.841l-37.539,0Zm33.168,11.82l-28.797,0c-3.848,0 -6.979,-3.131 -6.979,-6.979l0,-7.448l42.755,0l0,7.448c0,3.848 -3.131,6.979 -6.979,6.979" style="fill:#15003e;fill-rule:nonzero;"/><path d="M116.416,198.061c-6.302,-2.768 -10.704,-9.065 -10.704,-16.39c0,-4.323 1.533,-8.288 4.086,-11.381c3.281,-3.977 23.926,-4.179 27.204,-0.478c2.796,3.157 4.494,7.31 4.494,11.859c0,7.324 -4.401,13.62 -10.702,16.389" style="fill:#0fce7c;fill-rule:nonzero;"/><path d="M115.284,199.364c-0.191,0 -0.385,-0.043 -0.569,-0.132c-6.951,-3.382 -11.269,-10.282 -11.269,-18.007c0,-3.835 1.089,-7.562 3.148,-10.779c0.388,-0.606 1.194,-0.784 1.802,-0.394c0.606,0.388 0.782,1.194 0.394,1.801c-1.79,2.795 -2.736,6.036 -2.736,9.372c0,6.719 3.756,12.721 9.802,15.663c0.647,0.314 0.917,1.094 0.601,1.742c-0.225,0.464 -0.69,0.734 -1.173,0.734" style="fill:#15003e;fill-rule:nonzero;"/><path d="M131.831,199.268c-0.478,0 -0.937,-0.264 -1.166,-0.72c-0.323,-0.644 -0.062,-1.427 0.581,-1.75c5.935,-2.973 9.622,-8.94 9.622,-15.573c0,-3.732 -1.164,-7.289 -3.364,-10.288c-0.426,-0.58 -0.301,-1.396 0.279,-1.822c0.58,-0.425 1.396,-0.302 1.823,0.279c2.531,3.45 3.869,7.54 3.869,11.831c0,7.626 -4.238,14.487 -11.061,17.905c-0.187,0.094 -0.386,0.138 -0.583,0.138" style="fill:#15003e;fill-rule:nonzero;"/><path d="M104.717,207.675l38.119,0l6.283,-24.733c-0.088,-13.9 -11.423,-25.182 -25.343,-25.182c-13.919,0 -25.254,11.281 -25.342,25.18c0,0.001 0.001,0.003 0.001,0.004l6.282,24.731Zm40.147,2.607l-42.175,0l-6.863,-27.016l0,-0.163c0,-15.412 12.539,-27.95 27.95,-27.95c15.412,0 27.95,12.538 27.95,27.95l0,0.163l-0.04,0.158l-6.822,26.858Z" style="fill:#15003e;fill-rule:nonzero;"/><path d="M97.014,184.016c-0.685,-0.059 -1.187,-0.678 -1.187,-1.366l0,-25.236c0,-0.681 0.497,-1.289 1.175,-1.354c0.778,-0.074 1.432,0.536 1.432,1.298l0,25.36c0,0.758 -0.647,1.365 -1.42,1.298" style="fill:#15003e;fill-rule:nonzero;"/><path d="M150.423,184.021c-0.721,0 -1.304,-0.583 -1.304,-1.304l0,-32.519c0,-0.72 0.583,-1.304 1.304,-1.304c0.72,0 1.304,0.584 1.304,1.304l0,32.519c0,0.721 -0.584,1.304 -1.304,1.304" style="fill:#15003e;fill-rule:nonzero;"/><path d="M99.206,195.412l-2.751,0c-2.95,0 -5.35,-2.401 -5.35,-5.35l0,-10.276c0,-2.95 2.4,-5.35 5.35,-5.35l1.166,0c0.721,0 1.304,0.583 1.304,1.304c0,0.72 -0.583,1.303 -1.304,1.303l-1.166,0c-1.512,0 -2.742,1.231 -2.742,2.743l0,10.276c0,1.512 1.23,2.742 2.742,2.742l2.751,0c0.72,0 1.303,0.584 1.303,1.304c0,0.72 -0.583,1.304 -1.303,1.304" style="fill:#15003e;fill-rule:nonzero;"/><path d="M151.193,195.412l-2.751,0c-0.72,0 -1.304,-0.584 -1.304,-1.304c0,-0.72 0.584,-1.304 1.304,-1.304l2.751,0c1.512,0 2.743,-1.23 2.743,-2.742l0,-10.276c0,-1.512 -1.231,-2.743 -2.743,-2.743l-1.166,0c-0.721,0 -1.304,-0.583 -1.304,-1.303c0,-0.721 0.583,-1.304 1.304,-1.304l1.166,0c2.95,0 5.35,2.4 5.35,5.35l0,10.276c0,2.949 -2.4,5.35 -5.35,5.35" style="fill:#15003e;fill-rule:nonzero;"/><path d="M97.417,179.95c-0.329,0 -0.658,-0.124 -0.911,-0.371c-0.515,-0.503 -0.525,-1.329 -0.022,-1.844c7.4,-7.58 17.243,-11.755 27.715,-11.755c9.861,0 19.285,3.763 26.534,10.594c0.523,0.494 0.548,1.319 0.054,1.844c-0.494,0.523 -1.32,0.548 -1.843,0.054c-6.763,-6.374 -15.551,-9.885 -24.745,-9.885c-9.763,0 -18.944,3.896 -25.85,10.97c-0.255,0.261 -0.593,0.393 -0.932,0.393" style="fill:#15003e;fill-rule:nonzero;"/><path d="M146.521,199.363l-45.455,0c-0.72,0 -1.304,-0.584 -1.304,-1.304c0,-0.72 0.584,-1.304 1.304,-1.304l45.455,0c0.72,0 1.303,0.584 1.303,1.304c0,0.72 -0.583,1.304 -1.303,1.304" style="fill:#15003e;fill-rule:nonzero;"/><path d="M133.128,175.739c0,2.578 -2.089,4.668 -4.667,4.668c-2.578,0 -4.668,-2.09 -4.668,-4.668c0,-2.577 2.09,-4.667 4.668,-4.667c2.578,0 4.667,2.09 4.667,4.667" style="fill:#fff;fill-rule:nonzero;"/><path d="M136.463,182.718c0,1.042 -0.844,1.887 -1.887,1.887c-1.042,0 -1.887,-0.845 -1.887,-1.887c0,-1.043 0.845,-1.888 1.887,-1.888c1.043,0 1.887,0.845 1.887,1.888" style="fill:#fff;fill-rule:nonzero;"/><path d="M133.273,204.445l4.717,0" style="fill:none;stroke:#15003e;stroke-width:1.65px;"/><path d="M108.843,204.445l12.364,0l2.617,-2.809l2.573,2.809l3.281,0" style="fill:none;stroke:#15003e;stroke-width:1.65px;"/><path d="M97.13,152.212l0,-5.239" style="fill:none;stroke:#25e899;stroke-width:1.65px;"/><path d="M94.258,153.297l-3.704,-3.705" style="fill:none;stroke:#25e899;stroke-width:1.65px;"/><path d="M99.989,153.297l3.705,-3.705" style="fill:none;stroke:#25e899;stroke-width:1.65px;"/></g></g></g></svg>