<?xml version="1.0" encoding="utf-8"?>
<!-- Generator: Adobe Illustrator 23.0.1, SVG Export Plug-In . SVG Version: 6.00 Build 0)  -->
<svg version="1.1" id="Layer_1" xmlns="http://www.w3.org/2000/svg" xmlns:xlink="http://www.w3.org/1999/xlink" x="0px" y="0px"
	 viewBox="0 0 72 72" style="enable-background:new 0 0 72 72;" xml:space="preserve">
<g>
	<path d="M29.3,19.5c-0.2,0-0.4,0-0.7,0c-0.7,2.2-1.4,4.4-2.1,6.7c-2.1,0-4.3,0-6.4,0c-0.2,0.4-0.4,0.8-0.6,1.2c2.5,0,5,0,7.5,0
		C27.8,24.7,28.5,22.1,29.3,19.5z"/>
	<path d="M68.2,55.7c-0.2-0.4-0.4-0.8-0.6-1.2c-4.5,0-9,0-13.4,0c0.7,2.6,1.5,5.2,2.2,7.9c0.6,0,1.2,0,1.7,0
		c-0.7-2.2-1.4-4.4-2.1-6.7C60.2,55.7,64.2,55.7,68.2,55.7z"/>
	<path d="M53.1,53.4C53.1,53.4,53.1,53.4,53.1,53.4c4.6,0,9.3,0,13.9,0c-1.8-3.5-3.5-7-5.3-10.5c-2,0-3.9,0-5.9,0
		c-0.5-1.3-1-2.5-1.5-3.8c1.8,0,3.6,0,5.4,0c-1.8-3.5-3.5-7-5.3-10.5c-2.6,0-5.2,0-7.7,0c-0.1,0-0.3,0-0.4,0c-0.1,0-0.3,0-0.4,0
		c-0.8-3-1.6-6-2.4-9c-1.9,0-3.9,0-5.8,0c0,1,0.1,2,0.1,3.1c-0.8,0-1.6,0-2.3,0c0-1,0.1-2,0.1-3.1c-1.9,0-3.9,0-5.8,0
		c-0.8,3-1.6,6-2.4,9c-0.1,0-0.3,0-0.4,0c-0.1,0-0.3,0-0.4,0c-2.6,0-5.2,0-7.7,0c-4.6,9.1-9.1,18.1-13.7,27.2c4,0,8.1,0,12.1,0
		c-0.7,2.2-1.4,4.4-2.1,6.7c0.6,0,1.2,0,1.7,0c0.7-2.6,1.5-5.2,2.2-7.9c-4.5,0-9,0-13.4,0c0.2-0.4,0.4-0.8,0.6-1.2
		c4.6,0,9.3,0,13.9,0c0,0,0,0,0,0c0.2,0,0.5,0,0.7,0c-0.8,3-1.6,6-2.3,9c5.1,0,10.2,0,15.3,0c0-1,0.1-2,0.1-3.1c1.8,0,3.5,0,5.3,0
		c0,1,0.1,2,0.1,3.1c5.1,0,10.2,0,15.3,0c-0.8-3-1.6-6-2.3-9C52.6,53.4,52.9,53.4,53.1,53.4z M17.6,42.8c-2,0-3.9,0-5.9,0
		c0.6-1.3,1.3-2.5,1.9-3.8c1.8,0,3.6,0,5.4,0C18.6,40.3,18.1,41.6,17.6,42.8z M23.2,42.8c-1.1,0-2.1,0-3.2,0
		c0.4-1.3,0.9-2.5,1.3-3.8c1,0,2,0,2.9,0C23.9,40.3,23.6,41.6,23.2,42.8z M35.4,27.8c0.9,0,1.8,0,2.8,0c0.1,1.8,0.1,3.5,0.2,5.3
		c-1.1,0-2.1,0-3.2,0C35.2,31.3,35.3,29.6,35.4,27.8z M34.9,38.3c1.2,0,2.4,0,3.6,0c0.1,1.8,0.1,3.5,0.2,5.3c-1.3,0-2.7,0-4,0
		C34.8,41.8,34.9,40.1,34.9,38.3z M34.3,54.1c0.1-1.8,0.1-3.5,0.2-5.3c1.5,0,3,0,4.4,0c0.1,1.8,0.1,3.5,0.2,5.3
		C37.5,54.1,35.9,54.1,34.3,54.1z M49.2,39c1,0,2,0,2.9,0c0.4,1.3,0.9,2.5,1.3,3.8c-1.1,0-2.1,0-3.2,0C49.9,41.6,49.6,40.3,49.2,39z
		"/>
	<path d="M19,28.5L19,28.5c0.1-0.3,0.3-0.6,0.4-0.8C19.2,28,19.1,28.2,19,28.5z"/>
	<path d="M53.9,27.3c-0.2-0.4-0.4-0.8-0.6-1.2c-2.1,0-4.3,0-6.4,0c-0.7-2.2-1.4-4.4-2.1-6.7c-0.2,0-0.4,0-0.7,0
		c0.7,2.6,1.5,5.2,2.2,7.9C48.9,27.3,51.4,27.3,53.9,27.3z"/>
</g>
</svg>
