<?xml version="1.0" encoding="utf-8"?>
<!-- Generator: Adobe Illustrator 23.0.1, SVG Export Plug-In . SVG Version: 6.00 Build 0)  -->
<svg version="1.1" id="Layer_1" xmlns="http://www.w3.org/2000/svg" xmlns:xlink="http://www.w3.org/1999/xlink" x="0px" y="0px"
	 viewBox="0 0 72 72" style="enable-background:new 0 0 72 72;" xml:space="preserve">
<g>
	<path d="M25.1,10.4c-0.2,0-0.5,0-0.7,0C24.9,26.1,20.6,45.9,2,61.6c0.7,0,1.4,0,2.1,0C21.6,45.9,25.6,26.1,25.1,10.4z"/>
	<path d="M47.7,10.4c-0.2,0-0.5,0-0.7,0c-0.5,15.7,3.5,35.5,21,51.2c0.7,0,1.4,0,2.1,0C51.4,45.9,47.1,26.1,47.7,10.4z"/>
	<path d="M46.2,10.4c-3,0-6,0-9.1,0c0,1.1,0,2.3,0,3.4c-0.8,0-1.5,0-2.3,0c0-1.2,0-2.3,0-3.4c-3,0-6,0-9.1,0
		c0.5,15.7-3.3,35.5-19.6,51.2c8.8,0,17.7,0,26.5,0c0.1-1.1,0.3-2.3,0.4-3.4c2,0,4,0,6,0c0.1,1.2,0.2,2.3,0.4,3.4
		c8.8,0,17.7,0,26.5,0C49.5,45.9,45.7,26.1,46.2,10.4z M34.8,20c0.8,0,1.6,0,2.4,0c0,2.1,0.1,4.2,0.1,6.3c-0.8,0-1.7,0-2.5,0
		C34.8,24.1,34.8,22,34.8,20z M34.6,32.7c1,0,1.9,0,2.9,0c0.1,2.2,0.1,4.3,0.2,6.5c-1.1,0-2.2,0-3.4,0
		C34.4,37.1,34.5,34.9,34.6,32.7z M33.5,52c0.2-2.1,0.3-4.2,0.4-6.3c1.3,0,2.7,0,4,0c0.1,2.1,0.3,4.3,0.4,6.3
		C36.8,52,35.2,52,33.5,52z"/>
</g>
</svg>
