<?xml version="1.0" encoding="utf-8"?>
<!-- Generator: Adobe Illustrator 23.0.1, SVG Export Plug-In . SVG Version: 6.00 Build 0)  -->
<svg version="1.1" id="Layer_1" xmlns="http://www.w3.org/2000/svg" xmlns:xlink="http://www.w3.org/1999/xlink" x="0px" y="0px"
	 viewBox="0 0 72 72" style="enable-background:new 0 0 72 72;" xml:space="preserve">
<g>
	<path d="M40.5,8.3c-2.6,0-5.3,0-7.9,0c-3.1,1.3-5.5,2.6-7.3,4c-0.9,0-1.8,0-2.7,0c1.9-1.3,4.4-2.6,7.6-4c-2.6,0-5.3,0-7.9,0
		c-48.7,18.5,33.8,37-15,55.4c7,0,14,0,20.9,0c3.2-1.3,5.7-2.6,7.6-4c2,0,4,0,6.1,0c-1.8,1.3-4.2,2.6-7.3,4c7,0,14,0,20.9,0
		C94.2,45.2,1.7,26.8,40.5,8.3z M19.1,25.8c-1.5-2.3-2.3-4.5-1.9-6.8c1.1,0,2.1,0,3.2,0c-0.3,2.3,0.7,4.5,2.4,6.8
		C21.5,25.8,20.3,25.8,19.1,25.8z M33,39.4c-2.5-2.3-5.2-4.5-7.7-6.8c1.4,0,2.8,0,4.1,0c2.6,2.3,5.5,4.5,8.2,6.8
		C36.1,39.4,34.6,39.4,33,39.4z M46.7,53c-1.9,0-3.7,0-5.6,0c0.4-2.3-0.4-4.5-1.9-6.8c1.7,0,3.4,0,5.1,0C46,48.4,47,50.7,46.7,53z"
		/>
	<path d="M21.5,8.3c-0.3,0-0.5,0-0.8,0c-49.6,18.5,32.2,37-17.4,55.4c0.7,0,1.3,0,2,0C54.5,45.2-27.7,26.8,21.5,8.3z"/>
	<path d="M42,8.3c-0.3,0-0.5,0-0.8,0c-38.4,18.5,54.5,37,16.2,55.4c0.7,0,1.3,0,2,0C97.4,45.2,4,26.8,42,8.3z"/>
</g>
</svg>
