<svg xmlns="http://www.w3.org/2000/svg" viewBox="0 0 69.82 68.59"><defs><style>.cls-1{fill:#fff;stroke:#fff;stroke-miterlimit:10;stroke-width:2px;}</style></defs><g id="Layer_2" data-name="Layer 2"><circle class="cls-1" cx="63.52" cy="2.91" r="1.91"/><circle class="cls-1" cx="8.39" cy="23.96" r="1.91"/><circle class="cls-1" cx="36.69" cy="24.84" r="1.91"/><circle class="cls-1" cx="38.58" cy="5.51" r="1.91"/><circle class="cls-1" cx="13.38" cy="65.68" r="1.91"/><circle class="cls-1" cx="61.61" cy="51.18" r="1.91"/><circle class="cls-1" cx="35.58" cy="47.74" r="1.91"/><circle class="cls-1" cx="20.01" cy="24.84" r="1.91"/><circle class="cls-1" cx="66.91" cy="26.75" r="1.91"/><circle class="cls-1" cx="52.92" cy="65.29" r="1.91"/><circle class="cls-1" cx="20.69" cy="51.18" r="1.91"/><circle class="cls-1" cx="39.86" cy="37.17" r="0.86"/><circle class="cls-1" cx="54.1" cy="42.62" r="0.86"/><circle class="cls-1" cx="9.16" cy="50" r="0.86"/><circle class="cls-1" cx="29.87" cy="64.61" r="0.86"/><circle class="cls-1" cx="28.72" cy="43.49" r="0.86"/><circle class="cls-1" cx="53.2" cy="15.85" r="0.86"/><circle class="cls-1" cx="15.93" cy="36.66" r="0.86"/><circle class="cls-1" cx="29.59" cy="17.57" r="0.86"/><circle class="cls-1" cx="17.93" cy="5.51" r="0.86"/><circle class="cls-1" cx="1.86" cy="14.7" r="0.86"/><circle class="cls-1" cx="56.66" cy="29.78" r="0.86"/></g></svg>