<?xml version="1.0" encoding="UTF-8"?>
<svg width="217px" height="217px" viewBox="0 0 217 217" version="1.1" xmlns="http://www.w3.org/2000/svg" xmlns:xlink="http://www.w3.org/1999/xlink">
    <!-- Generator: Sketch 51.3 (57544) - http://www.bohemiancoding.com/sketch -->
    <title>Group 2</title>
    <desc>Created with Sketch.</desc>
    <defs></defs>
    <g id="Page-1" stroke="none" stroke-width="1" fill="none" fill-rule="evenodd">
        <g id="Group-2" fill-rule="nonzero">
            <g id="35">
                <g id="Group">
                    <circle id="Oval" fill="#FFFFFF" cx="108.129" cy="108.373" r="108.124"></circle>
                    <path d="M108.381,203.043 C56.136,203.043 13.631,160.538 13.631,108.293 C13.631,56.048 56.136,13.543 108.381,13.543 C160.626,13.543 203.131,56.048 203.131,108.293 C203.131,160.538 160.626,203.043 108.381,203.043 Z M108.381,14.543 C56.687,14.543 14.631,56.599 14.631,108.293 C14.631,159.987 56.687,202.043 108.381,202.043 C160.075,202.043 202.131,159.987 202.131,108.293 C202.131,56.599 160.076,14.543 108.381,14.543 Z" id="Shape" fill="#FFFFFF"></path>
                    <g transform="translate(9.000000, 9.000000)" id="Shape">
                        <path d="M99.129,191.543 C48.307,191.543 6.959,150.196 6.959,99.374 C6.959,48.552 48.307,7.205 99.129,7.205 C149.951,7.205 191.298,48.552 191.298,99.374 C191.298,150.196 149.951,191.543 99.129,191.543 Z M99.129,8.204 C48.858,8.204 7.959,49.102 7.959,99.373 C7.959,149.644 48.857,190.542 99.129,190.542 C149.4,190.542 190.298,149.644 190.298,99.373 C190.298,49.102 149.4,8.204 99.129,8.204 Z" fill="#FFFFFF"></path>
                        <path d="M99.129,0.538 C44.631,0.538 0.294,44.875 0.294,99.373 C0.294,153.87 44.632,198.208 99.129,198.208 C153.626,198.208 197.964,153.87 197.964,99.373 C197.965,44.875 153.627,0.538 99.129,0.538 Z" fill="#000000"></path>
                    </g>
                </g>
                <path d="M108.423,202.834 C56.178,202.834 13.673,160.329 13.673,108.084 C13.673,55.839 56.178,13.334 108.423,13.334 C160.668,13.334 203.173,55.839 203.173,108.084 C203.173,160.329 160.668,202.834 108.423,202.834 Z M108.423,14.334 C56.729,14.334 14.673,56.39 14.673,108.084 C14.673,159.778 56.729,201.834 108.423,201.834 C160.117,201.834 202.173,159.778 202.173,108.084 C202.173,56.39 160.117,14.334 108.423,14.334 Z" id="Shape" fill="#FFFFFF"></path>
                <g id="Group" transform="translate(44.000000, 49.000000)" fill="#FFFFFF">
                    <path d="M40.548,116.757 C18.019,107.782 2.044,85.775 2.044,60.084 C2.044,54.196 2.885,48.502 4.45,43.113 L2.846,41.509 C1.029,47.384 0.044,53.62 0.044,60.084 C0.044,86.897 16.891,109.83 40.548,118.909 L40.548,116.757 Z" id="Shape"></path>
                    <path d="M87.215,118.227 C95.243,114.875 102.445,109.928 108.394,103.753 L105.58,103.753 C100.529,108.674 94.067,112.718 87.215,115.664 L87.215,118.227 Z" id="Shape"></path>
                    <path d="M38.798,1.972 C35.286,3.446 31.924,5.209 28.767,7.265 C29.249,7.747 29.731,8.229 30.214,8.712 C32.933,6.968 35.809,5.452 38.799,4.151 L38.799,1.972 L38.798,1.972 Z" id="Shape"></path>
                    <path d="M84.492,0.861 C84.543,1.632 84.657,2.391 84.86,3.132 C107.752,11.93 124.048,34.133 124.048,60.085 C124.048,65.862 123.198,71.451 121.782,76.504 L123.858,76.504 C125.275,71.266 126.048,65.765 126.048,60.085 C126.048,32.874 108.701,9.654 84.492,0.861 Z" id="Shape"></path>
                </g>
                <g id="Group" transform="translate(39.000000, 49.000000)" fill="#FFFFFF">
                    <path d="M17.829,12.077 C17.169,12.077 16.633,11.552 16.633,10.904 L16.633,1.66 C16.633,1.012 17.169,0.487 17.829,0.487 C18.489,0.487 19.025,1.012 19.025,1.66 L19.025,10.904 C19.025,11.552 18.49,12.077 17.829,12.077 Z" id="Shape"></path>
                    <path d="M16.051,10.905 L19.748,10.905" id="Shape"></path>
                    <path d="M19.748,12.077 L16.051,12.077 C15.391,12.077 14.855,11.552 14.855,10.904 C14.855,10.256 15.391,9.731 16.051,9.731 L19.748,9.731 C20.408,9.731 20.944,10.256 20.944,10.904 C20.944,11.552 20.408,12.077 19.748,12.077 Z" id="Shape"></path>
                    <path d="M18.485,39.92 C8.422,39.92 0.235,31.892 0.235,22.024 C0.235,12.156 8.422,4.128 18.485,4.128 C23.36,4.128 27.943,5.99 31.389,9.37 L32.577,10.535 L27.425,15.297 L25.188,12.969 L27.828,10.529 C25.183,8.453 21.923,7.327 18.486,7.327 C10.222,7.327 3.498,13.92 3.498,22.024 C3.498,30.128 10.221,36.721 18.486,36.721" id="Shape"></path>
                    <path d="M27.645,30.727 L25.302,28.501 C27.027,26.755 27.977,24.455 27.977,22.024 C27.977,19.486 26.954,17.115 25.098,15.346 L23.876,14.182 L25.186,12.969 L26.302,14.129 L27.37,13.051 C29.865,15.427 31.238,18.613 31.238,22.023 C31.239,25.291 29.963,28.381 27.645,30.727 Z" id="Shape"></path>
                    <path d="M18.485,27.303 C15.517,27.303 13.102,24.935 13.102,22.024 C13.102,19.113 15.517,16.745 18.485,16.745 C21.453,16.745 23.868,19.113 23.868,22.024 C23.868,24.935 21.453,27.303 18.485,27.303 Z M18.485,19.944 C17.315,19.944 16.364,20.877 16.364,22.024 C16.364,23.171 17.316,24.104 18.485,24.104 C19.655,24.104 20.606,23.171 20.606,22.024 C20.606,20.877 19.655,19.944 18.485,19.944 Z" id="Shape"></path>
                    <path d="M30.236,10.501 L20.753,19.093" id="Shape"></path>
                    <polygon id="Shape" points="21.86 20.268 19.646 17.918 29.129 9.326 31.343 11.676"></polygon>
                    <polygon id="Shape" points="32.384 39.92 18.189 39.92 18.189 36.721 29.122 36.721 29.122 33.815 19.274 26.547 21.236 23.991 32.384 32.219"></polygon>
                    <path d="M12.168,15.306 C11.508,15.306 10.972,14.781 10.972,14.133 L10.972,1.661 C10.972,1.013 11.508,0.488 12.168,0.488 C12.828,0.488 13.364,1.013 13.364,1.661 L13.364,14.133 C13.364,14.781 12.828,15.306 12.168,15.306 Z" id="Shape"></path>
                </g>
                <path d="M91.673,172.001 C91.673,165.334 91.673,158.668 91.673,152.001 C91.673,150.714 89.673,150.712 89.673,152.001 C89.673,158.668 89.673,165.334 89.673,172.001 C89.673,173.288 91.673,173.29 91.673,172.001 Z" id="Shape" fill="#FFFFFF"></path>
                <path d="M90.148,158.667 C66.127,150.874 51.185,127.603 53.81,102.517 C53.944,101.238 51.943,101.248 51.81,102.517 C49.091,128.511 64.803,152.545 89.617,160.595 C90.844,160.994 91.37,159.064 90.148,158.667 Z" id="Shape" fill="#FFFFFF"></path>
                <path d="M53.673,96.751 C58.756,96.751 63.84,96.751 68.923,96.751 C70.21,96.751 70.212,94.751 68.923,94.751 C63.84,94.751 58.756,94.751 53.673,94.751 C52.386,94.751 52.384,96.751 53.673,96.751 Z" id="Shape" fill="#FFFFFF"></path>
                <path d="M77.511,63.698 C94.507,53.807 119.341,53.072 135.554,64.717 C144.859,71.4 151.834,79.851 155.487,90.772 C158.877,100.907 159.995,112.14 157.585,122.61 C157.297,123.863 159.224,124.397 159.514,123.142 C162.104,111.892 160.847,99.722 156.956,88.911 C153.174,78.404 146.487,70.445 137.615,63.765 C120.684,51.016 94.546,51.471 76.504,61.972 C75.39,62.618 76.395,64.347 77.511,63.698 Z" id="Shape" fill="#FFFFFF"></path>
                <path d="M69.547,146.041 C74.6,140.988 79.652,135.936 84.705,130.883 C84.234,130.412 83.762,129.94 83.291,129.469 C82.516,130.244 81.741,131.019 80.967,131.793 C80.056,132.704 81.47,134.119 82.381,133.207 C83.156,132.432 83.931,131.657 84.705,130.883 C85.616,129.972 84.202,128.557 83.291,129.469 C78.238,134.522 73.186,139.574 68.133,144.627 C67.221,145.538 68.635,146.953 69.547,146.041 Z" id="Shape" fill="#FFFFFF"></path>
                <path d="M76.34,138.834 C76.34,133.056 76.34,127.278 76.34,121.501 C76.34,120.214 74.34,120.212 74.34,121.501 C74.34,127.279 74.34,133.057 74.34,138.834 C74.34,140.121 76.34,140.123 76.34,138.834 Z" id="Shape" fill="#FFFFFF"></path>
                <path d="M74.84,125.001 C68.554,125.001 62.269,125.001 55.983,125.001 C54.696,125.001 54.694,127.001 55.983,127.001 C56.158,127.001 56.332,127.001 56.507,127.001 C57.794,127.001 57.796,125.001 56.507,125.001 C56.332,125.001 56.158,125.001 55.983,125.001 C54.696,125.001 54.694,127.001 55.983,127.001 C62.269,127.001 68.554,127.001 74.84,127.001 C76.126,127.001 76.129,125.001 74.84,125.001 Z" id="Shape" fill="#FFFFFF"></path>
                <path d="M80.84,131.001 C85.994,131.001 91.148,131.001 96.302,131.001 C97.589,131.001 97.591,129.001 96.302,129.001 C96.037,129.001 95.772,129.001 95.507,129.001 C94.22,129.001 94.218,131.001 95.507,131.001 C95.772,131.001 96.037,131.001 96.302,131.001 C97.589,131.001 97.591,129.001 96.302,129.001 C91.148,129.001 85.994,129.001 80.84,129.001 C79.553,129.001 79.55,131.001 80.84,131.001 Z" id="Shape" fill="#FFFFFF"></path>
                <path d="M88.506,131.668 C88.506,135.279 88.506,138.89 88.506,142.501 C88.506,143.788 90.506,143.79 90.506,142.501 C90.506,138.89 90.506,135.279 90.506,131.668 C90.506,130.381 88.506,130.379 88.506,131.668 Z" id="Shape" fill="#FFFFFF"></path>
                <path d="M88.506,138.168 C86.784,138.168 85.062,138.168 83.339,138.168 C82.052,138.168 82.05,140.168 83.339,140.168 C85.061,140.168 86.783,140.168 88.506,140.168 C89.793,140.168 89.795,138.168 88.506,138.168 Z" id="Shape" fill="#FFFFFF"></path>
                <path d="M95.173,129.168 C95.173,124.574 95.173,119.979 95.173,115.385 C95.173,114.098 93.173,114.096 93.173,115.385 C93.173,115.535 93.173,115.685 93.173,115.835 C93.173,117.122 95.173,117.124 95.173,115.835 C95.173,115.685 95.173,115.535 95.173,115.385 C95.173,114.098 93.173,114.096 93.173,115.385 C93.173,119.979 93.173,124.574 93.173,129.168 C93.173,130.455 95.173,130.457 95.173,129.168 Z" id="Shape" fill="#FFFFFF"></path>
                <path d="M93.34,117.668 C88.84,117.668 84.34,117.668 79.84,117.668 C78.553,117.668 78.551,119.668 79.84,119.668 C84.34,119.668 88.84,119.668 93.34,119.668 C94.626,119.668 94.629,117.668 93.34,117.668 Z" id="Shape" fill="#FFFFFF"></path>
                <path d="M83.006,60.168 C83.006,81.057 83.006,101.946 83.006,122.835 C83.006,124.122 85.006,124.124 85.006,122.835 C85.006,101.946 85.006,81.057 85.006,60.168 C85.006,58.881 83.006,58.879 83.006,60.168 Z" id="Shape" fill="#FFFFFF"></path>
                <path d="M83.006,109.834 C73.006,109.834 63.006,109.834 53.006,109.834 C51.719,109.834 51.717,111.834 53.006,111.834 C63.006,111.834 73.006,111.834 83.006,111.834 C84.293,111.834 84.295,109.834 83.006,109.834 Z" id="Shape" fill="#FFFFFF"></path>
                <path d="M158.673,102.834 C133.729,102.834 108.784,102.834 83.84,102.834 C82.553,102.834 82.551,104.834 83.84,104.834 C108.784,104.834 133.729,104.834 158.673,104.834 C159.96,104.834 159.962,102.834 158.673,102.834 Z" id="Shape" fill="#FFFFFF"></path>
                <path d="M100.84,104.668 C100.84,137.001 100.84,169.335 100.84,201.668 C100.84,202.955 102.84,202.957 102.84,201.668 C102.84,169.335 102.84,137.001 102.84,104.668 C102.84,103.381 100.84,103.379 100.84,104.668 Z" id="Shape" fill="#FFFFFF"></path>
                <path d="M103.173,113.501 C105.006,113.501 106.84,113.501 108.673,113.501 C109.96,113.501 109.962,111.501 108.673,111.501 C106.84,111.501 105.006,111.501 103.173,111.501 C101.886,111.501 101.884,113.501 103.173,113.501 Z" id="Shape" fill="#FFFFFF"></path>
                <path d="M109.34,104.834 C109.34,137.167 109.34,169.501 109.34,201.834 C109.34,203.121 111.34,203.123 111.34,201.834 C111.34,169.501 111.34,137.167 111.34,104.834 C111.34,103.547 109.34,103.545 109.34,104.834 Z" id="Shape" fill="#FFFFFF"></path>
                <path d="M118.506,104.668 C118.506,136.89 118.506,169.112 118.506,201.335 C118.506,202.622 120.506,202.624 120.506,201.335 C120.506,169.113 120.506,136.891 120.506,104.668 C120.506,103.381 118.506,103.379 118.506,104.668 Z" id="Shape" fill="#FFFFFF"></path>
                <path d="M111.006,123.668 C113.506,123.668 116.006,123.668 118.506,123.668 C119.793,123.668 119.795,121.668 118.506,121.668 C116.006,121.668 113.506,121.668 111.006,121.668 C109.719,121.668 109.717,123.668 111.006,123.668 Z" id="Shape" fill="#FFFFFF"></path>
                <path d="M131.673,103.168 C131.673,95.835 131.673,88.501 131.673,81.168 C131.673,79.881 129.673,79.879 129.673,81.168 C129.673,88.501 129.673,95.835 129.673,103.168 C129.673,104.455 131.673,104.457 131.673,103.168 Z" id="Shape" fill="#FFFFFF"></path>
                <path d="M131.34,87.001 C138.729,87.001 146.118,87.001 153.507,87.001 C154.794,87.001 154.796,85.001 153.507,85.001 C146.118,85.001 138.729,85.001 131.34,85.001 C130.053,85.001 130.05,87.001 131.34,87.001 Z" id="Shape" fill="#FFFFFF"></path>
                <path d="M85.006,74.668 C93.851,74.668 102.697,74.668 111.542,74.668 C112.829,74.668 112.831,72.668 111.542,72.668 C111.252,72.668 110.962,72.668 110.672,72.668 C109.385,72.668 109.383,74.668 110.672,74.668 C110.962,74.668 111.252,74.668 111.542,74.668 C112.829,74.668 112.831,72.668 111.542,72.668 C102.697,72.668 93.851,72.668 85.006,72.668 C83.719,72.668 83.717,74.668 85.006,74.668 Z" id="Shape" fill="#FFFFFF"></path>
                <path d="M101.84,56.001 C101.84,61.445 101.84,66.89 101.84,72.334 C101.84,73.621 103.84,73.623 103.84,72.334 C103.84,66.89 103.84,61.445 103.84,56.001 C103.84,54.714 101.84,54.712 101.84,56.001 Z" id="Shape" fill="#FFFFFF"></path>
                <path d="M113.173,103.834 C113.173,88.056 113.173,72.278 113.173,56.501 C113.173,55.214 111.173,55.212 111.173,56.501 C111.173,72.279 111.173,88.057 111.173,103.834 C111.173,105.121 113.173,105.123 113.173,103.834 Z" id="Shape" fill="#FFFFFF"></path>
                <path d="M113.006,97.668 C118.492,97.668 123.978,97.668 129.464,97.668 C129.464,97.001 129.464,96.335 129.464,95.668 C129.2,95.668 128.936,95.668 128.672,95.668 C127.385,95.668 127.383,97.668 128.672,97.668 C128.936,97.668 129.2,97.668 129.464,97.668 C130.751,97.668 130.753,95.668 129.464,95.668 C123.978,95.668 118.492,95.668 113.006,95.668 C111.719,95.668 111.717,97.668 113.006,97.668 Z" id="Shape" fill="#FFFFFF"></path>
                <path d="M135.799,65.461 C131.521,69.739 127.243,74.017 122.966,78.294 C122.055,79.205 123.469,80.62 124.38,79.708 C128.658,75.43 132.936,71.152 137.213,66.875 C138.125,65.963 136.711,64.549 135.799,65.461 Z" id="Shape" fill="#FFFFFF"></path>
                <path d="M120.506,83.001 C120.506,82.945 120.506,82.89 120.506,82.834 C120.506,81.547 118.506,81.545 118.506,82.834 C118.506,82.89 118.506,82.945 118.506,83.001 C118.506,84.288 120.506,84.29 120.506,83.001 Z" id="Shape" fill="#FFFFFF"></path>
                <path d="M159.173,115.668 C151.562,115.668 143.951,115.668 136.34,115.668 C135.053,115.668 135.051,117.668 136.34,117.668 C143.951,117.668 151.562,117.668 159.173,117.668 C160.46,117.668 160.462,115.668 159.173,115.668 Z" id="Shape" fill="#FFFFFF"></path>
                <path d="M130.84,116.501 C130.84,116.39 130.84,116.279 130.84,116.168 C130.84,114.881 128.84,114.879 128.84,116.168 C128.84,116.279 128.84,116.39 128.84,116.501 C128.84,117.788 130.84,117.79 130.84,116.501 Z" id="Shape" fill="#FFFFFF"></path>
                <path d="M88.673,57.668 C88.673,44.224 88.673,30.779 88.673,17.335 C88.673,16.048 86.673,16.046 86.673,17.335 C86.673,30.779 86.673,44.224 86.673,57.668 C86.673,58.955 88.673,58.957 88.673,57.668 Z" id="Shape" fill="#FFFFFF"></path>
                <path d="M98.506,55.668 C98.506,47.724 98.506,39.779 98.506,31.835 C98.506,30.548 96.506,30.546 96.506,31.835 C96.506,39.779 96.506,47.724 96.506,55.668 C96.506,56.955 98.506,56.957 98.506,55.668 Z" id="Shape" fill="#FFFFFF"></path>
                <path d="M97.006,37.668 C94.284,37.668 91.562,37.668 88.839,37.668 C87.552,37.668 87.55,39.668 88.839,39.668 C91.561,39.668 94.283,39.668 97.006,39.668 C98.293,39.668 98.295,37.668 97.006,37.668 Z" id="Shape" fill="#FFFFFF"></path>
                <path d="M98.84,46.168 C104.84,46.168 110.84,46.168 116.84,46.168 C118.127,46.168 118.129,44.168 116.84,44.168 C110.84,44.168 104.84,44.168 98.84,44.168 C97.553,44.168 97.55,46.168 98.84,46.168 Z" id="Shape" fill="#FFFFFF"></path>
                <path d="M119.173,56.168 C119.173,42.39 119.173,28.612 119.173,14.835 C119.173,13.548 117.173,13.546 117.173,14.835 C117.173,28.613 117.173,42.391 117.173,56.168 C117.173,57.455 119.173,57.457 119.173,56.168 Z" id="Shape" fill="#FFFFFF"></path>
                <path d="M124.173,16.168 C124.173,30.168 124.173,44.168 124.173,58.168 C124.173,59.455 126.173,59.457 126.173,58.168 C126.173,57.506 126.173,56.843 126.173,56.181 C126.173,54.894 124.173,54.892 124.173,56.181 C124.173,56.843 124.173,57.506 124.173,58.168 C124.173,59.455 126.173,59.457 126.173,58.168 C126.173,44.168 126.173,30.168 126.173,16.168 C126.173,14.881 124.173,14.879 124.173,16.168 Z" id="Shape" fill="#FFFFFF"></path>
                <path d="M105.173,44.251 C105.173,34.418 105.173,24.584 105.173,14.751 C105.173,13.464 103.173,13.462 103.173,14.751 C103.173,24.584 103.173,34.418 103.173,44.251 C103.173,45.538 105.173,45.54 105.173,44.251 Z" id="Shape" fill="#FFFFFF"></path>
                <path d="M117.673,27.001 C113.395,27.001 109.117,27.001 104.84,27.001 C103.553,27.001 103.551,29.001 104.84,29.001 C109.118,29.001 113.396,29.001 117.673,29.001 C118.96,29.001 118.962,27.001 117.673,27.001 Z" id="Shape" fill="#FFFFFF"></path>
                <path d="M104.34,34.168 C108.659,34.168 112.979,34.168 117.298,34.168 C118.585,34.168 118.587,32.168 117.298,32.168 C117.09,32.168 116.881,32.168 116.673,32.168 C115.386,32.168 115.384,34.168 116.673,34.168 C116.881,34.168 117.09,34.168 117.298,34.168 C117.298,33.501 117.298,32.835 117.298,32.168 C112.979,32.168 108.659,32.168 104.34,32.168 C103.053,32.168 103.05,34.168 104.34,34.168 Z" id="Shape" fill="#FFFFFF"></path>
                <path d="M97.713,180.041 C99.213,178.541 100.713,177.041 102.213,175.541 C103.124,174.63 101.71,173.215 100.799,174.127 C99.299,175.627 97.799,177.127 96.299,178.627 C95.388,179.538 96.802,180.953 97.713,180.041 Z" id="Shape" fill="#FFFFFF"></path>
                <path d="M100.799,176.208 C102.077,177.486 103.355,178.764 104.632,180.041 C105.543,180.952 106.958,179.538 106.046,178.627 C104.768,177.349 103.49,176.071 102.213,174.794 C101.302,173.883 99.887,175.296 100.799,176.208 Z" id="Shape" fill="#FFFFFF"></path>
                <path d="M107.547,161.375 C108.658,160.264 109.769,159.153 110.88,158.042 C111.791,157.131 110.377,155.716 109.466,156.628 C108.355,157.739 107.244,158.85 106.133,159.961 C105.221,160.872 106.635,162.286 107.547,161.375 Z" id="Shape" fill="#FFFFFF"></path>
                <path d="M109.799,158.875 C110.632,159.708 111.466,160.542 112.299,161.375 C113.21,162.286 114.625,160.872 113.713,159.961 C112.88,159.128 112.046,158.294 111.213,157.461 C110.302,156.549 108.887,157.963 109.799,158.875 Z" id="Shape" fill="#FFFFFF"></path>
                <path d="M116.88,193.208 C118.047,192.041 119.213,190.875 120.38,189.708 C121.291,188.797 119.877,187.382 118.966,188.294 C117.799,189.461 116.633,190.627 115.466,191.794 C114.554,192.705 115.968,194.12 116.88,193.208 Z" id="Shape" fill="#FFFFFF"></path>
                <path d="M118.966,190.208 C120.188,191.43 121.41,192.652 122.633,193.875 C123.544,194.786 124.959,193.372 124.047,192.461 C122.825,191.239 121.603,190.017 120.38,188.794 C119.469,187.883 118.054,189.296 118.966,190.208 Z" id="Shape" fill="#FFFFFF"></path>
                <path d="M84.88,30.208 C85.713,29.375 86.547,28.541 87.38,27.708 C88.291,26.797 86.877,25.382 85.966,26.294 C85.133,27.127 84.299,27.961 83.466,28.794 C82.554,29.705 83.968,31.12 84.88,30.208 Z" id="Shape" fill="#FFFFFF"></path>
                <path d="M86.966,27.208 C87.855,28.097 88.744,28.986 89.633,29.875 C90.544,30.786 91.959,29.372 91.047,28.461 C90.158,27.572 89.269,26.683 88.38,25.794 C87.469,24.883 86.054,26.296 86.966,27.208 Z" id="Shape" fill="#FFFFFF"></path>
                <path d="M123.213,44.208 C124.046,43.375 124.88,42.541 125.713,41.708 C126.624,40.797 125.21,39.382 124.299,40.294 C123.466,41.127 122.632,41.961 121.799,42.794 C120.888,43.705 122.302,45.12 123.213,44.208 Z" id="Shape" fill="#FFFFFF"></path>
                <path d="M125.299,43.208 C125.91,43.819 126.521,44.43 127.132,45.041 C128.043,45.952 129.458,44.538 128.546,43.627 C127.935,43.016 127.324,42.405 126.713,41.794 C125.802,40.883 124.387,42.296 125.299,43.208 Z" id="Shape" fill="#FFFFFF"></path>
                <g id="Group" transform="translate(135.000000, 127.000000)" fill="#FFFFFF">
                    <path d="M21.342,13.473 L21.342,10.928 C22.604,10.928 23.452,10.787 23.887,10.506 C24.662,10.011 25.051,9.219 25.051,8.128 C25.051,7.284 24.77,6.598 24.207,6.069 C23.652,5.532 22.932,5.263 22.046,5.263 C21.219,5.263 20.579,5.464 20.127,5.864 C19.692,6.273 19.368,6.964 19.155,7.936 L16.188,7.936 C16.495,6.078 17.126,4.715 18.081,3.85 C19.036,2.985 20.37,2.552 22.084,2.552 C23.814,2.552 25.226,3.063 26.316,4.087 C27.408,5.102 27.953,6.41 27.953,8.013 C27.953,9.821 27.237,11.227 25.805,12.233 C27.443,13.196 28.261,14.76 28.261,16.926 C28.261,18.699 27.663,20.149 26.47,21.274 C25.277,22.399 23.746,22.962 21.879,22.962 C19.501,22.962 17.736,22.088 16.585,20.34 C16.107,19.607 15.805,18.592 15.677,17.297 L18.555,17.297 C18.708,18.252 19.081,18.983 19.673,19.49 C20.266,19.997 21.039,20.251 21.994,20.251 C22.958,20.251 23.755,19.931 24.386,19.292 C25.017,18.636 25.332,17.805 25.332,16.798 C25.332,15.468 24.858,14.522 23.912,13.959 C23.358,13.635 22.501,13.473 21.342,13.473 Z" id="Shape"></path>
                    <path d="M44.501,5.685 L38.414,5.685 L37.442,8.959 C37.587,8.942 37.725,8.929 37.857,8.92 C37.99,8.912 38.111,8.907 38.222,8.907 C40.14,8.907 41.713,9.555 42.941,10.851 C44.176,12.139 44.795,13.788 44.795,15.8 C44.795,17.881 44.096,19.594 42.698,20.941 C41.3,22.288 39.539,22.962 37.417,22.962 C34.799,22.962 32.736,21.734 31.228,19.279 L33.478,17.374 C34.101,18.431 34.727,19.177 35.358,19.612 C35.989,20.038 36.76,20.252 37.673,20.252 C38.866,20.252 39.867,19.834 40.678,18.999 C41.488,18.138 41.893,17.094 41.893,15.866 C41.893,14.605 41.492,13.573 40.691,12.771 C39.889,11.944 38.888,11.531 37.686,11.531 C36.347,11.531 35.192,12.115 34.22,13.283 L33.236,13.283 L36.343,2.899 L44.501,2.899 L44.501,5.685 Z" id="Shape"></path>
                    <path d="M8.11,0.097 L8.11,2.604 C9.116,2.766 9.938,3.098 10.578,3.601 C11.218,4.104 11.827,4.876 12.406,5.916 L9.913,7.31 C9.163,5.946 8.183,5.264 6.972,5.264 C6.222,5.264 5.599,5.486 5.105,5.929 C4.611,6.372 4.364,6.927 4.364,7.592 C4.364,8.197 4.564,8.7 4.965,9.101 C5.358,9.493 6.15,9.958 7.344,10.495 C8.375,10.964 9.228,11.405 9.902,11.818 C10.575,12.232 11.083,12.63 11.423,13.014 C12.387,14.054 12.868,15.312 12.868,16.786 C12.868,18.236 12.433,19.515 11.563,20.622 C10.702,21.722 9.551,22.463 8.111,22.847 L8.111,25.494 L5.873,25.494 L5.873,22.924 C4.202,22.651 2.928,22.076 2.05,21.198 C1.171,20.32 0.524,18.964 0.106,17.131 L2.919,16.543 C3.303,17.839 3.772,18.764 4.325,19.318 C4.905,19.846 5.677,20.11 6.64,20.11 C7.578,20.11 8.362,19.808 8.993,19.202 C9.615,18.605 9.927,17.834 9.927,16.888 C9.927,16.044 9.667,15.366 9.147,14.854 C8.883,14.607 8.493,14.328 7.977,14.017 C7.461,13.706 6.802,13.367 6.001,13 C4.347,12.258 3.26,11.576 2.74,10.954 C1.913,10.025 1.499,8.912 1.499,7.616 C1.499,7.002 1.598,6.431 1.794,5.903 C1.989,5.374 2.274,4.895 2.644,4.464 C3.015,4.034 3.473,3.661 4.019,3.345 C4.565,3.029 5.183,2.782 5.873,2.603 L5.873,0.096 L8.11,0.096 L8.11,0.097 Z" id="Shape"></path>
                </g>
                <g id="Group" transform="translate(27.000000, 80.000000)">
                    <g transform="translate(0.000000, 11.000000)" id="Shape">
                        <path d="M17.038,34.708 C12.491,34.708 8.386,32.983 5.166,29.72 C1.966,26.467 0.28,22.348 0.28,17.801 C0.28,13.169 2.002,9.006 5.259,5.763 C8.498,2.524 12.666,0.806 17.3,0.806 C19.825,0.806 22.237,1.336 24.468,2.382 L24.583,2.437 C26.653,3.455 28.62,5.018 30.428,7.084 L34.798,12.075 L33.008,13.789 L33.008,18 C33.008,20.133 32.733,22.111 32.191,23.88 L32.161,23.976 C31.536,25.913 30.5,27.714 29.081,29.328 C25.948,32.856 21.791,34.708 17.038,34.708 Z" fill="#000000"></path>
                        <path d="M18.1,17.363 L26.071,17.363 L26.071,18 C26.071,19.449 25.9,20.732 25.559,21.848 C25.226,22.881 24.663,23.847 23.872,24.747 C22.081,26.763 19.803,27.77 17.038,27.77 C14.339,27.77 12.028,26.796 10.104,24.847 C8.18,22.89 7.218,20.541 7.218,17.801 C7.218,15.002 8.197,12.628 10.154,10.679 C12.111,8.722 14.493,7.743 17.3,7.743 C18.807,7.743 20.215,8.05 21.523,8.663 C22.772,9.277 24.001,10.274 25.209,11.653 L23.135,13.639 C21.552,11.532 19.624,10.478 17.351,10.478 C15.31,10.478 13.599,11.182 12.216,12.59 C10.833,13.973 10.142,15.705 10.142,17.787 C10.142,19.936 10.912,21.706 12.454,23.097 C13.895,24.388 15.457,25.033 17.139,25.033 C18.572,25.033 19.858,24.551 21,23.587 C22.141,22.615 22.778,21.452 22.911,20.098 L18.1,20.098 L18.1,17.363 Z" fill="#FFFFFF"></path>
                    </g>
                    <g transform="translate(29.000000, 12.000000)">
                        <rect id="Rectangle-path" fill="#000000" x="0.447" y="0.18" width="16.787" height="33.165"></rect>
                        <polygon id="Shape" fill="#FFFFFF" points="10.296 7.118 10.296 26.408 7.385 26.408 7.385 7.118"></polygon>
                    </g>
                    <g transform="translate(41.000000, 12.000000)" id="Shape">
                        <polygon fill="#000000" points="21.843 33.346 5.057 33.346 5.057 16.792 0.622 16.792 0.622 0.18 26.266 0.18 26.266 16.792 21.843 16.792"></polygon>
                        <polygon fill="#FFFFFF" points="14.906 9.854 14.906 26.408 11.995 26.408 11.995 9.854 7.56 9.854 7.56 7.118 19.329 7.118 19.329 9.854"></polygon>
                    </g>
                    <g transform="translate(60.000000, 11.000000)" id="Shape">
                        <path d="M17.901,34.695 C13.332,34.695 9.206,33.005 5.967,29.808 C2.703,26.545 0.993,22.421 0.993,17.85 C0.993,13.778 2.402,9.958 5.066,6.802 C8.397,2.875 12.909,0.805 18.125,0.805 C21.087,0.805 23.947,1.593 26.627,3.146 L30.085,5.151 L30.085,30.381 L26.571,32.375 C23.857,33.915 20.94,34.695 17.901,34.695 Z M17.875,18.083 C17.89,18.084 17.909,18.085 17.93,18.085 C17.942,18.077 17.956,18.069 17.971,18.059 C18.074,17.991 18.23,17.881 18.442,17.713 C18.14,17.494 17.968,17.433 17.923,17.42 C17.856,17.491 17.836,17.519 17.831,17.527 C17.832,17.527 17.805,17.609 17.805,17.814 C17.805,17.93 17.815,17.998 17.82,18.027 C17.826,18.032 17.841,18.05 17.864,18.073 C17.868,18.076 17.871,18.079 17.875,18.083 Z" fill="#000000"></path>
                        <path d="M23.148,9.148 L23.148,12.59 C21.466,11.182 19.725,10.478 17.926,10.478 C15.944,10.478 14.274,11.19 12.916,12.615 C11.55,14.031 10.867,15.763 10.867,17.812 C10.867,19.836 11.55,21.543 12.916,22.934 C14.282,24.325 15.956,25.02 17.938,25.02 C18.963,25.02 19.833,24.854 20.549,24.52 C20.949,24.354 21.363,24.129 21.792,23.846 C22.221,23.563 22.673,23.221 23.147,22.821 L23.147,26.338 C21.481,27.284 19.732,27.756 17.9,27.756 C15.143,27.756 12.79,26.794 10.841,24.87 C8.9,22.93 7.93,20.589 7.93,17.849 C7.93,15.392 8.742,13.201 10.366,11.277 C12.365,8.92 14.951,7.741 18.124,7.741 C19.858,7.743 21.532,8.212 23.148,9.148 Z" fill="#FFFFFF"></path>
                    </g>
                    <g transform="translate(87.000000, 8.000000)" id="Shape">
                        <path d="M17.11,34.621 C12.967,34.621 9.072,33.138 5.847,30.331 C2.142,27.093 0.19,22.695 0.19,17.601 C0.19,13.028 1.943,8.894 5.26,5.647 C8.519,2.442 12.672,0.743 17.26,0.743 C21.837,0.743 25.979,2.465 29.237,5.724 C32.499,8.972 34.23,13.121 34.23,17.713 C34.23,22.348 32.478,26.507 29.162,29.74 C25.887,32.933 21.719,34.621 17.11,34.621 Z M17.017,17.882 C17.085,17.947 17.131,17.986 17.161,18.009 C17.235,18.008 17.281,18.004 17.308,18.001 C17.315,17.993 17.331,17.978 17.351,17.958 C17.381,17.928 17.399,17.9 17.406,17.89 C17.404,17.888 17.418,17.822 17.418,17.683 C17.418,17.543 17.405,17.464 17.399,17.431 C17.393,17.426 17.38,17.412 17.362,17.393 C17.348,17.38 17.337,17.368 17.328,17.359 C17.27,17.354 17.153,17.355 17.103,17.36 C17.094,17.369 17.082,17.379 17.069,17.393 C17.041,17.42 17.023,17.44 17.01,17.454 C17.005,17.487 17,17.545 17,17.633 C17.001,17.755 17.009,17.835 17.017,17.882 Z" fill="#000000"></path>
                        <path d="M7.127,17.601 C7.127,14.886 8.122,12.554 10.113,10.605 C12.095,8.656 14.477,7.682 17.259,7.682 C20.008,7.682 22.364,8.665 24.33,10.631 C26.304,12.597 27.291,14.958 27.291,17.715 C27.291,20.489 26.3,22.842 24.317,24.774 C22.326,26.715 19.923,27.685 17.108,27.685 C14.617,27.685 12.381,26.823 10.399,25.099 C8.218,23.191 7.127,20.692 7.127,17.601 Z M10.063,17.633 C10.063,19.763 10.779,21.515 12.212,22.888 C13.636,24.261 15.281,24.947 17.147,24.947 C19.171,24.947 20.878,24.248 22.269,22.85 C23.66,21.436 24.356,19.713 24.356,17.682 C24.356,15.627 23.669,13.904 22.294,12.514 C20.928,11.116 19.237,10.417 17.222,10.417 C15.215,10.417 13.52,11.116 12.137,12.514 C10.754,13.897 10.063,15.602 10.063,17.633 Z" fill="#FFFFFF"></path>
                    </g>
                    <g transform="translate(115.000000, 12.000000)">
                        <rect id="Rectangle-path" fill="#000000" x="0.928" y="0.18" width="16.787" height="33.165"></rect>
                        <polygon id="Shape" fill="#FFFFFF" points="10.777 7.118 10.777 26.408 7.866 26.408 7.866 7.118"></polygon>
                    </g>
                    <g transform="translate(130.000000, 0.000000)" id="Shape">
                        <polygon fill="#000000" points="30.981 56.848 16.913 42.168 16.913 45.346 0.126 45.346 0.126 0.509 14.195 15.226 14.195 12.18 30.981 12.18"></polygon>
                        <polygon fill="#FFFFFF" points="7.064 38.408 7.064 17.806 21.132 32.523 21.132 19.117 24.043 19.117 24.043 39.582 9.975 24.902 9.975 38.408 7.064 38.408"></polygon>
                    </g>
                </g>
            </g>
            <g id="Group" transform="translate(133.000000, 25.000000)" fill="#FFFFFF">
                <path d="M4.86,1.194 L3.322,5.367 C3.949,5.064 4.55,5.018 5.124,5.23 C5.787,5.474 6.247,5.924 6.505,6.58 C6.764,7.232 6.76,7.925 6.488,8.658 C6.21,9.414 5.758,9.957 5.133,10.287 C4.511,10.616 3.865,10.655 3.194,10.408 C2.626,10.199 2.199,9.794 1.914,9.192 L1.725,9.706 L0.59,9.288 L3.728,0.776 L4.86,1.194 Z M5.31,8.281 C5.484,7.811 5.498,7.381 5.351,6.991 C5.204,6.593 4.936,6.323 4.546,6.179 C4.128,6.025 3.735,6.047 3.365,6.242 C3,6.435 2.732,6.763 2.561,7.227 C2.384,7.705 2.373,8.133 2.523,8.513 C2.67,8.899 2.952,9.169 3.368,9.323 C3.763,9.468 4.141,9.442 4.509,9.245 C4.879,9.046 5.148,8.724 5.31,8.281 Z" id="Shape"></path>
                <path d="M7.505,9.06 C7.826,8.376 8.345,7.91 9.06,7.661 C9.775,7.411 10.484,7.452 11.187,7.783 C11.894,8.116 12.378,8.639 12.645,9.353 C12.903,10.064 12.867,10.772 12.537,11.475 C12.203,12.184 11.678,12.664 10.963,12.913 C10.246,13.158 9.53,13.112 8.815,12.774 C8.105,12.44 7.625,11.917 7.374,11.206 C7.119,10.501 7.162,9.785 7.505,9.06 Z M8.612,9.605 C8.39,10.078 8.34,10.512 8.464,10.906 C8.593,11.307 8.868,11.607 9.293,11.806 C9.72,12.008 10.127,12.031 10.512,11.876 C10.898,11.721 11.2,11.414 11.415,10.953 C11.632,10.493 11.678,10.065 11.551,9.67 C11.423,9.269 11.147,8.969 10.723,8.769 C10.305,8.572 9.901,8.552 9.51,8.708 C9.12,8.866 8.821,9.165 8.612,9.605 Z" id="Shape"></path>
                <path d="M16.063,10.448 L14.564,13.048 C14.13,13.799 14.209,14.345 14.801,14.687 C15.393,15.029 15.905,14.825 16.339,14.075 L17.841,11.475 L18.887,12.079 L17.372,14.703 C17.163,15.065 16.936,15.352 16.695,15.564 C16.471,15.75 16.199,15.875 15.876,15.941 C15.345,16.044 14.807,15.938 14.261,15.623 C13.719,15.31 13.359,14.897 13.183,14.386 C13.076,14.071 13.044,13.77 13.091,13.483 C13.125,13.222 13.263,12.884 13.502,12.468 L15.017,9.845 L16.063,10.448 Z" id="Shape"></path>
                <path d="M20.407,13.038 L21.406,13.726 L21.133,14.124 C21.718,14.019 22.23,14.117 22.665,14.418 C23.167,14.763 23.447,15.19 23.511,15.698 C23.568,16.134 23.386,16.655 22.968,17.261 L21.147,19.901 L20.148,19.212 L21.807,16.807 C22.099,16.382 22.243,16.048 22.237,15.805 C22.236,15.561 22.084,15.334 21.78,15.124 C21.451,14.897 21.14,14.844 20.851,14.966 C20.567,15.088 20.24,15.417 19.871,15.953 L18.437,18.031 L17.438,17.342 L20.407,13.038 Z" id="Shape"></path>
                <polygon id="Shape" points="25.742 18.294 23.214 21.526 22.263 20.781 24.79 17.549 24.384 17.232 25.079 16.343 25.484 16.661 26.667 15.15 27.618 15.895 26.436 17.405 27.177 17.984 26.483 18.873"></polygon>
                <polygon id="Shape" points="26.394 22.902 27.451 18.153 28.502 19.081 27.71 22.395 30.82 21.129 31.843 22.032 23.37 25.326 22.335 24.412"></polygon>
                <polygon id="Shape" points="35.51 25.829 34.211 28.791 37.304 27.85 38.205 28.866 32.219 30.544 34.613 24.816"></polygon>
                <path d="M36.67,31.056 C37.274,30.602 37.949,30.431 38.699,30.544 C39.447,30.657 40.055,31.024 40.522,31.645 C40.992,32.269 41.177,32.958 41.079,33.714 C40.975,34.464 40.614,35.072 39.993,35.54 C39.367,36.012 38.68,36.191 37.931,36.078 C37.183,35.96 36.571,35.585 36.094,34.953 C35.622,34.326 35.442,33.64 35.551,32.893 C35.657,32.15 36.029,31.538 36.67,31.056 Z M37.397,32.055 C36.979,32.37 36.733,32.73 36.658,33.137 C36.585,33.55 36.689,33.946 36.971,34.32 C37.255,34.698 37.604,34.908 38.018,34.951 C38.431,34.994 38.84,34.862 39.247,34.556 C39.654,34.25 39.893,33.892 39.966,33.484 C40.039,33.07 39.935,32.675 39.653,32.3 C39.375,31.932 39.026,31.725 38.608,31.681 C38.189,31.638 37.785,31.763 37.397,32.055 Z" id="Shape"></path>
                <path d="M43.595,36.274 L41.054,37.875 C40.322,38.337 40.138,38.858 40.502,39.437 C40.867,40.016 41.416,40.074 42.148,39.611 L44.689,38.01 L45.334,39.031 L42.771,40.647 C42.417,40.871 42.083,41.019 41.771,41.094 C41.486,41.154 41.186,41.138 40.871,41.046 C40.352,40.89 39.926,40.545 39.59,40.012 C39.255,39.481 39.13,38.949 39.212,38.415 C39.264,38.086 39.376,37.806 39.551,37.573 C39.703,37.358 39.983,37.123 40.388,36.867 L42.951,35.252 L43.595,36.274 Z" id="Shape"></path>
                <path d="M47.918,44.265 L46.501,45.019 C46.668,44.618 46.756,44.291 46.764,44.04 C46.777,43.79 46.715,43.536 46.579,43.28 C46.365,42.879 46.048,42.62 45.624,42.504 C45.202,42.388 44.78,42.443 44.355,42.669 C43.922,42.899 43.634,43.216 43.492,43.62 C43.352,44.028 43.389,44.432 43.602,44.834 C43.738,45.09 43.913,45.287 44.128,45.424 C44.336,45.556 44.664,45.669 45.11,45.759 L43.701,46.508 C43.246,46.195 42.904,45.821 42.674,45.388 C42.294,44.674 42.206,43.953 42.412,43.228 C42.622,42.5 43.07,41.953 43.761,41.586 C44.449,41.22 45.16,41.153 45.894,41.388 C46.628,41.623 47.182,42.095 47.559,42.803 C47.801,43.256 47.921,43.744 47.918,44.265 Z" id="Shape"></path>
                <path d="M52.253,43.886 L52.739,44.993 L48.826,46.715 C49.352,46.953 49.72,47.309 49.93,47.784 C50.166,48.325 50.182,48.834 49.975,49.313 C49.79,49.723 49.366,50.075 48.696,50.369 L45.761,51.661 L45.275,50.555 L48.107,49.309 C48.489,49.14 48.738,48.95 48.85,48.738 C48.962,48.527 48.952,48.27 48.82,47.968 C48.649,47.581 48.41,47.363 48.101,47.31 C47.79,47.263 47.34,47.369 46.75,47.629 L44.436,48.648 L43.949,47.541 L52.253,43.886 Z" id="Shape"></path>
                <path d="M50.028,56.657 L48.796,53.117 C48.4,53.289 48.124,53.533 47.964,53.85 C47.809,54.165 47.795,54.506 47.922,54.871 C48.02,55.155 48.17,55.367 48.37,55.506 C48.568,55.641 48.891,55.762 49.338,55.868 L49.136,57.019 C48.831,56.958 48.559,56.876 48.321,56.774 C48.083,56.672 47.872,56.546 47.689,56.398 C47.506,56.249 47.35,56.074 47.218,55.873 C47.087,55.672 46.978,55.443 46.888,55.186 C46.632,54.449 46.662,53.774 46.98,53.163 C47.302,52.551 47.857,52.107 48.645,51.833 C49.425,51.561 50.133,51.557 50.767,51.821 C51.396,52.092 51.836,52.587 52.086,53.307 C52.34,54.034 52.308,54.69 51.992,55.274 C51.678,55.854 51.112,56.285 50.299,56.569 L50.028,56.657 Z M50.554,55.161 C51.107,54.79 51.277,54.3 51.066,53.691 C51.018,53.552 50.952,53.43 50.867,53.323 C50.782,53.216 50.682,53.126 50.569,53.054 C50.454,52.982 50.329,52.93 50.192,52.898 C50.056,52.866 49.911,52.856 49.755,52.868 L50.554,55.161 Z" id="Shape"></path>
                <path d="M53.185,57.178 L53.504,58.343 L53.053,58.467 C53.337,58.619 53.542,58.767 53.671,58.91 C53.804,59.056 53.902,59.243 53.966,59.475 C54.05,59.783 54.037,60.131 53.93,60.521 L52.717,60.28 C52.815,60.015 52.835,59.777 52.778,59.567 C52.602,58.931 52.036,58.746 51.075,59.009 L48.461,59.727 L48.141,58.562 L53.185,57.178 Z" id="Shape"></path>
            </g>
            <g id="Group" transform="translate(28.000000, 124.000000)" fill="#FFFFFF">
                <path d="M46.321,62.294 L48.106,58.22 C47.463,58.486 46.859,58.495 46.299,58.25 C45.653,57.966 45.221,57.49 45.003,56.82 C44.783,56.152 44.829,55.461 45.144,54.747 C45.466,54.009 45.951,53.494 46.595,53.201 C47.235,52.911 47.883,52.909 48.537,53.196 C49.092,53.44 49.494,53.869 49.743,54.487 L49.963,53.986 L51.07,54.471 L47.428,62.78 L46.321,62.294 Z M46.296,55.192 C46.094,55.651 46.055,56.08 46.178,56.478 C46.301,56.883 46.553,57.169 46.933,57.336 C47.339,57.514 47.733,57.517 48.115,57.343 C48.49,57.172 48.778,56.86 48.976,56.407 C49.181,55.941 49.219,55.514 49.092,55.127 C48.968,54.732 48.702,54.446 48.296,54.268 C47.912,54.1 47.531,54.103 47.153,54.278 C46.772,54.455 46.485,54.76 46.296,55.192 Z" id="Shape"></path>
                <path d="M44.151,54.283 C43.788,54.946 43.244,55.382 42.516,55.587 C41.787,55.793 41.08,55.71 40.399,55.337 C39.714,54.963 39.261,54.412 39.038,53.682 C38.824,52.957 38.902,52.253 39.273,51.571 C39.649,50.883 40.203,50.436 40.931,50.23 C41.66,50.029 42.372,50.119 43.068,50.498 C43.756,50.874 44.204,51.425 44.411,52.15 C44.623,52.868 44.534,53.579 44.151,54.283 Z M43.076,53.672 C43.327,53.214 43.403,52.784 43.304,52.383 C43.2,51.975 42.942,51.659 42.531,51.434 C42.116,51.207 41.712,51.16 41.318,51.291 C40.923,51.422 40.606,51.711 40.361,52.158 C40.117,52.604 40.047,53.028 40.149,53.431 C40.253,53.839 40.51,54.155 40.922,54.38 C41.327,54.601 41.729,54.646 42.129,54.513 C42.527,54.38 42.843,54.099 43.076,53.672 Z" id="Shape"></path>
                <path d="M35.691,52.385 L37.345,49.88 C37.823,49.156 37.776,48.607 37.205,48.23 C36.634,47.854 36.111,48.027 35.633,48.75 L33.978,51.256 L32.97,50.591 L34.638,48.062 C34.869,47.712 35.112,47.439 35.367,47.242 C35.6,47.07 35.881,46.961 36.207,46.915 C36.743,46.844 37.273,46.982 37.799,47.329 C38.322,47.674 38.656,48.107 38.802,48.627 C38.891,48.948 38.904,49.251 38.84,49.535 C38.79,49.793 38.633,50.122 38.369,50.523 L36.7,53.051 L35.691,52.385 Z" id="Shape"></path>
                <path d="M31.509,49.54 L30.552,48.792 L30.85,48.412 C30.259,48.482 29.755,48.353 29.337,48.027 C28.858,47.652 28.602,47.209 28.57,46.698 C28.539,46.26 28.751,45.751 29.205,45.17 L31.181,42.644 L32.137,43.392 L30.338,45.694 C30.02,46.1 29.858,46.425 29.849,46.669 C29.835,46.913 29.974,47.148 30.265,47.375 C30.58,47.623 30.887,47.694 31.182,47.588 C31.473,47.484 31.819,47.175 32.221,46.661 L33.775,44.672 L34.732,45.42 L31.509,49.54 Z" id="Shape"></path>
                <polygon id="Shape" points="26.498 43.974 29.214 40.899 30.12 41.699 27.403 44.774 27.79 45.116 27.043 45.961 26.657 45.619 25.386 47.057 24.481 46.256 25.751 44.819 25.045 44.197 25.793 43.351"></polygon>
                <polygon id="Shape" points="26.124 39.335 24.786 44.012 23.792 43.023 24.781 39.762 21.6 40.84 20.633 39.878 29.287 37.096 30.265 38.071"></polygon>
                <polygon id="Shape" points="17.197 35.868 18.671 32.989 15.528 33.743 14.689 32.675 20.765 31.359 18.032 36.933"></polygon>
                <path d="M16.353,30.582 C15.723,30.999 15.038,31.129 14.297,30.972 C13.557,30.814 12.971,30.411 12.542,29.764 C12.11,29.114 11.967,28.414 12.111,27.665 C12.258,26.923 12.656,26.337 13.303,25.907 C13.957,25.474 14.653,25.335 15.394,25.493 C16.134,25.656 16.722,26.067 17.159,26.726 C17.593,27.38 17.732,28.076 17.578,28.814 C17.429,29.549 17.021,30.138 16.353,30.582 Z M15.688,29.54 C16.124,29.251 16.39,28.906 16.49,28.505 C16.589,28.095 16.507,27.696 16.249,27.305 C15.987,26.911 15.652,26.68 15.241,26.613 C14.831,26.546 14.415,26.652 13.991,26.933 C13.567,27.214 13.307,27.557 13.21,27.96 C13.112,28.369 13.192,28.77 13.451,29.16 C13.707,29.545 14.042,29.771 14.456,29.84 C14.871,29.909 15.281,29.809 15.688,29.54 Z" id="Shape"></path>
                <path d="M9.754,24.958 L12.385,23.512 C13.144,23.095 13.359,22.586 13.03,21.986 C12.7,21.386 12.155,21.296 11.396,21.714 L8.765,23.16 L8.182,22.101 L10.837,20.641 C11.204,20.44 11.547,20.311 11.863,20.255 C12.15,20.212 12.448,20.245 12.758,20.357 C13.266,20.544 13.672,20.913 13.974,21.465 C14.276,22.014 14.37,22.553 14.257,23.081 C14.186,23.407 14.056,23.68 13.867,23.902 C13.703,24.108 13.409,24.325 12.99,24.557 L10.335,26.016 L9.754,24.958 Z" id="Shape"></path>
                <path d="M5.916,16.723 L7.375,16.055 C7.184,16.446 7.078,16.767 7.054,17.017 C7.026,17.266 7.073,17.522 7.193,17.786 C7.382,18.2 7.684,18.477 8.099,18.618 C8.514,18.759 8.939,18.729 9.376,18.53 C9.822,18.326 10.128,18.027 10.294,17.632 C10.458,17.234 10.445,16.829 10.256,16.415 C10.135,16.151 9.972,15.945 9.765,15.795 C9.566,15.65 9.245,15.518 8.806,15.401 L10.257,14.738 C10.693,15.078 11.012,15.471 11.216,15.918 C11.552,16.653 11.597,17.377 11.347,18.09 C11.095,18.804 10.614,19.324 9.904,19.648 C9.194,19.972 8.48,19.995 7.762,19.717 C7.045,19.439 6.518,18.935 6.184,18.206 C5.972,17.737 5.882,17.243 5.916,16.723 Z" id="Shape"></path>
                <path d="M1.567,16.842 L1.147,15.709 L5.156,14.224 C4.645,13.955 4.299,13.578 4.118,13.091 C3.913,12.537 3.929,12.027 4.164,11.562 C4.372,11.165 4.818,10.838 5.503,10.584 L8.51,9.471 L8.929,10.604 L6.028,11.679 C5.634,11.825 5.377,11.999 5.252,12.204 C5.126,12.408 5.122,12.665 5.235,12.974 C5.382,13.37 5.608,13.604 5.913,13.674 C6.22,13.74 6.675,13.661 7.28,13.437 L9.653,12.558 L10.072,13.692 L1.567,16.842 Z" id="Shape"></path>
                <path d="M4.55,4.225 L5.569,7.833 C5.974,7.685 6.264,7.458 6.442,7.15 C6.617,6.844 6.65,6.505 6.546,6.133 C6.465,5.843 6.328,5.623 6.136,5.473 C5.946,5.326 5.631,5.186 5.192,5.053 L5.463,3.916 C5.765,3.995 6.031,4.093 6.263,4.209 C6.495,4.326 6.698,4.464 6.872,4.624 C7.045,4.783 7.191,4.967 7.31,5.175 C7.428,5.383 7.524,5.619 7.599,5.881 C7.81,6.632 7.739,7.303 7.386,7.895 C7.028,8.487 6.448,8.896 5.645,9.123 C4.849,9.348 4.143,9.309 3.525,9.007 C2.914,8.7 2.504,8.178 2.296,7.445 C2.088,6.704 2.158,6.051 2.508,5.488 C2.856,4.928 3.446,4.531 4.275,4.297 L4.55,4.225 Z M3.936,5.688 C3.362,6.025 3.163,6.503 3.338,7.124 C3.378,7.266 3.436,7.393 3.514,7.504 C3.593,7.616 3.687,7.712 3.796,7.79 C3.906,7.869 4.027,7.929 4.162,7.969 C4.297,8.009 4.441,8.028 4.596,8.025 L3.936,5.688 Z" id="Shape"></path>
                <path d="M1.431,3.518 L1.182,2.336 L1.64,2.239 C1.367,2.07 1.169,1.91 1.05,1.76 C0.926,1.607 0.838,1.413 0.789,1.178 C0.723,0.866 0.756,0.519 0.888,0.136 L2.085,0.449 C1.971,0.707 1.937,0.943 1.982,1.157 C2.118,1.802 2.672,2.021 3.647,1.815 L6.301,1.255 L6.55,2.438 L1.431,3.518 Z" id="Shape"></path>
            </g>
        </g>
    </g>
</svg>