<svg id="Layer_1" data-name="Layer 1" xmlns="http://www.w3.org/2000/svg" viewBox="0 0 350 350">
  <defs>
    <style>
      .cls-1, .cls-2 {
        fill: #231f20;
      }

      .cls-2 {
        stroke: #fff;
        stroke-miterlimit: 10;
      }

      .cls-3 {
        fill: #fff;
      }
    </style>
  </defs>
  <g id="Eyes_1">
    <path class="cls-1" d="M189.38,161.05a19.34,19.34,0,0,1-2.39-8.76,18.55,18.55,0,0,1,.09-2.58.13.13,0,0,0-.25,0,19.48,19.48,0,0,0,1.23,9.1,17.42,17.42,0,0,0,1.1,2.36.13.13,0,0,0,.18,0,.13.13,0,0,0,0-.12Z"/>
    <path class="cls-1" d="M190.93,159.05a20.87,20.87,0,0,1-1.22-6c0-.16-.26-.16-.25,0a20.94,20.94,0,0,0,1.23,6.06C190.75,159.26,191,159.2,190.93,159.05Z"/>
    <path class="cls-1" d="M195.21,161.17a19.92,19.92,0,0,0,2.42-8.83,19.22,19.22,0,0,0-.09-2.63c0-.16-.27-.16-.25,0a19.85,19.85,0,0,1-1.2,9,20.24,20.24,0,0,1-1.1,2.36.13.13,0,0,0,.09.16.16.16,0,0,0,.13,0Z"/>
    <path class="cls-1" d="M193.68,159.11a21.63,21.63,0,0,0,1.23-6.06.13.13,0,0,0-.25,0,21.22,21.22,0,0,1-1.23,6C193.38,159.2,193.62,159.26,193.68,159.11Z"/>
    <path class="cls-2" d="M192.24,157.7l-11.52,19.52H203.9Z"/>
    <path class="cls-3" d="M197.5,170.25c-.21.85-2.35.58-2.59,1.3s1.6,1.73,1.28,2.45a.53.53,0,0,1-.23.24c-.8.4-2.23-1.79-2.86-1.48s.12,2.54-.68,2.91a.34.34,0,0,1-.2,0c-.66,0-.54-2.13-1.39-2.38s-1.94,1.21-2.27,1,1.16-2.8.51-3.39c-.37-.34-1.28.1-2.13-.45-.1-.07-.16-.12-.16-.18,0-.45,2.23-.6,2.43-1.47s-1.28-1.54-1-2.12a.42.42,0,0,1,.24-.21c.78-.35,1.89,1.53,2.57,1.27s.35-2.6.95-2.71h.17c.91.34.53,2.84,1.15,3s1.64-2.15,2.37-1.9a.66.66,0,0,1,.17.12c.57.65-1.15,2.36-.67,3.07s2.11,0,2.33.62A.37.37,0,0,1,197.5,170.25Z"/>
    <circle class="cls-1" cx="192.14" cy="170.38" r="2.47"/>
    <circle class="cls-3" cx="190.64" cy="168.42" r="0.96"/>
    <path class="cls-1" d="M161.29,161.17a19.92,19.92,0,0,0,2.42-8.83,19.22,19.22,0,0,0-.09-2.63c0-.16-.27-.16-.25,0a19.85,19.85,0,0,1-1.2,9,20.24,20.24,0,0,1-1.1,2.36c-.08.14.14.26.22.12Z"/>
    <path class="cls-1" d="M159.75,159.11a21.64,21.64,0,0,0,1.24-6.06.13.13,0,0,0-.25,0,21.58,21.58,0,0,1-1.23,6c0,.15.19.21.24.06Z"/>
    <path class="cls-1" d="M155.5,161.05a19.6,19.6,0,0,1-2.39-8.76,18.55,18.55,0,0,1,.1-2.58.13.13,0,0,0-.25,0,19.6,19.6,0,0,0,1.22,9.1,18.79,18.79,0,0,0,1.11,2.36c.07.14.29,0,.21-.12Z"/>
    <path class="cls-1" d="M157,159.05a20.88,20.88,0,0,1-1.23-6c0-.16-.26-.16-.25,0a21.3,21.3,0,0,0,1.24,6.06c.06.15.3.09.24-.06Z"/>
    <path class="cls-2" d="M158.2,157.7l11.53,19.52H146.5Q152.38,167.47,158.2,157.7Z"/>
    <path class="cls-3" d="M153,170.25c.22.85,2.36.58,2.59,1.3s-1.6,1.73-1.27,2.45a.45.45,0,0,0,.23.24c.8.4,2.23-1.79,2.86-1.48s-.13,2.54.67,2.91a.37.37,0,0,0,.21,0c.66,0,.54-2.13,1.38-2.38s1.94,1.21,2.28,1-1.17-2.8-.51-3.39c.37-.34,1.28.1,2.13-.45.1-.07.15-.12.16-.18,0-.45-2.24-.6-2.43-1.47s1.28-1.54,1-2.12a.52.52,0,0,0-.23-.21c-.78-.35-1.89,1.53-2.57,1.27s-.35-2.6-1-2.71h-.18c-.9.34-.53,2.84-1.15,3s-1.64-2.15-2.36-1.9a.3.3,0,0,0-.17.12c-.57.65,1.15,2.36.67,3.07s-2.11,0-2.34.62A.42.42,0,0,0,153,170.25Z"/>
    <circle class="cls-1" cx="158.3" cy="170.38" r="2.47"/>
    <circle class="cls-3" cx="159.8" cy="168.42" r="0.96"/>
  </g>
</svg>
