<?xml version="1.0" encoding="utf-8"?>
<!-- Generator: Adobe Illustrator 23.0.2, SVG Export Plug-In . SVG Version: 6.00 Build 0)  -->
<svg version="1.1" id="Layer_1" xmlns="http://www.w3.org/2000/svg" xmlns:xlink="http://www.w3.org/1999/xlink" x="0px" y="0px"
	 viewBox="0 0 5597.6 7468.7" style="enable-background:new 0 0 5597.6 7468.7;" xml:space="preserve">
<style type="text/css">
	.st0{fill-rule:evenodd;clip-rule:evenodd;fill:#FFFEC5;}
	.st1{fill-rule:evenodd;clip-rule:evenodd;fill:#FFFFFF;stroke:#15003E;stroke-width:39.6;}
	.st2{fill-rule:evenodd;clip-rule:evenodd;fill:#15003E;}
	.st3{enable-background:new    ;}
	.st4{fill:#15003E;}
	.st5{fill-rule:evenodd;clip-rule:evenodd;fill:#FFFFFF;}
	.st6{fill-rule:evenodd;clip-rule:evenodd;fill:#FFFEC5;stroke:#15003E;stroke-width:33;}
	.st7{fill-rule:evenodd;clip-rule:evenodd;fill:#15003E;stroke:#979797;}
	.st8{fill-rule:evenodd;clip-rule:evenodd;fill:#0FCE7C;}
	.st9{fill-rule:evenodd;clip-rule:evenodd;fill:#15003E;stroke:#15003E;stroke-width:29.04;}
	.st10{opacity:0.8959;}
	.st11{fill:#FFFFFF;}
	.st12{fill:none;stroke:#15003E;stroke-width:19.8;}
	.st13{fill:#237EDE;stroke:#FFFEC5;stroke-width:31.68;}
	.st14{fill:#237EDE;stroke:#FFFEC5;stroke-width:26.4;}
	.st15{fill:#FFFEC5;}
	.st16{fill:#0FCE7C;}
	.st17{fill-rule:evenodd;clip-rule:evenodd;fill:#237EDE;}
	.st18{opacity:0.2404;fill-rule:evenodd;clip-rule:evenodd;fill:#15003E;enable-background:new    ;}
	.st19{fill:none;stroke:#15003E;stroke-width:15;}
</style>
<title>Group 22</title>
<desc>Created with Sketch.</desc>
<image style="display:none;overflow:visible;" width="766" height="768" xlink:href="5DBA9685D801FACD.png"  transform="matrix(12.0242 0 0 12.0246 -1966.1455 -933.6442)">
</image>
<g id="vector">
	<g id="Artboard-Copy-2" transform="translate(-3073.000000, -2210.000000)">
		<g id="Group-22" transform="translate(1450.000000, 2157.000000)">
			<g id="Group-15">
				<g id="Group-13">
					<g id="Group-12">
						<g id="Group-16-Copy" transform="translate(0.000000, 693.000000)">
							<path id="Rectangle" class="st0" d="M2693.9,917.7h3174.4c29.2,0,52.8,23.6,52.8,52.8v3299.4c0,29.2-23.6,52.8-52.8,52.8
								l-3173.4,0c-29.2,0-52.8-23.6-52.8-52.8l-1-3299.4C2641.1,941.3,2664.7,917.6,2693.9,917.7
								C2693.9,917.6,2693.9,917.6,2693.9,917.7L2693.9,917.7z"/>
							<path class="st1" d="M5132,2849.6c-0.1,0-0.1,0-0.1,0.1c-22.9,11.2-32.4,38.9-21.2,61.8l530.1,1083
								c11.2,22.9,38.8,32.4,61.7,21.2l878.7-427.1c0.1,0,0.1,0,0.1-0.1c22.9-11.2,32.4-38.9,21.2-61.8l-530.1-1083
								c-11.2-22.9-38.8-32.4-61.7-21.2L5132,2849.6z"/>
							<path class="st1" d="M5165.5,2840.7L5165.5,2840.7l-18.6,6.8c-24,8.7-36.3,35.2-27.6,59.2l406.1,1115.7c0,0,0,0,0,0
								c8.7,24,35.2,36.3,59.2,27.6l904.7-329.3c24-8.7,36.3-35.2,27.6-59.2l-406.1-1115.7c0,0,0,0,0,0c-8.7-24-35.2-36.3-59.2-27.6
								L5165.5,2840.7z"/>
							
								<g id="Group-7" transform="translate(5182.495648, 2607.681084) rotate(2.000000) translate(-5182.495648, -2607.681084) translate(4742.495648, 2225.981084)">
								<g id="Group-6" transform="translate(0.706998, 0.632682)">
									<g id="Group" transform="translate(0.574891, 0.000955)">
										<path class="st2" d="M760.7,1165.6l298.7-120.7c5.7-2.3,12.3,0.5,14.6,6.2l0,0c2.3,5.7-0.5,12.3-6.2,14.6c0,0,0,0,0,0
											l-298.7,120.7c-5.7,2.3-12.3-0.5-14.6-6.2l0,0C752.2,1174.4,754.9,1167.9,760.7,1165.6
											C760.7,1165.6,760.7,1165.6,760.7,1165.6z"/>
										<path class="st2" d="M1127,1016.4l298.7-120.7c5.7-2.3,12.3,0.5,14.6,6.2l0,0c2.3,5.7-0.5,12.3-6.2,14.6c0,0,0,0,0,0
											l-298.7,120.7c-5.7,2.3-12.3-0.5-14.6-6.2l0,0C1118.5,1025.3,1121.3,1018.7,1127,1016.4
											C1127,1016.4,1127,1016.4,1127,1016.4z"/>
										<path class="st2" d="M790.7,1243.4l298.7-120.7c5.7-2.3,12.3,0.5,14.6,6.2l0,0c2.3,5.7-0.5,12.3-6.2,14.6c0,0,0,0,0,0
											l-298.7,120.7c-5.7,2.3-12.3-0.5-14.6-6.2l0,0C782.2,1252.3,785,1245.8,790.7,1243.4
											C790.7,1243.4,790.7,1243.4,790.7,1243.4z"/>
										<path class="st2" d="M1157,1094.3l298.7-120.7c5.7-2.3,12.3,0.5,14.6,6.2l0,0c2.3,5.7-0.5,12.3-6.2,14.6c0,0,0,0,0,0
											l-298.7,120.7c-5.7,2.3-12.3-0.5-14.6-6.2l0,0C1148.5,1103.1,1151.3,1096.6,1157,1094.3
											C1157,1094.3,1157,1094.3,1157,1094.3z"/>
										<path class="st2" d="M821.4,1319l298.7-120.7c5.7-2.3,12.3,0.5,14.6,6.2l0,0c2.3,5.7-0.5,12.3-6.2,14.6c0,0,0,0,0,0
											l-298.7,120.7c-5.7,2.3-12.3-0.5-14.6-6.2l0,0C812.9,1327.8,815.6,1321.3,821.4,1319C821.4,1319,821.4,1319,821.4,1319z"
											/>
										<path class="st2" d="M1187.7,1169.8l298.7-120.7c5.7-2.3,12.3,0.5,14.6,6.2l0,0c2.3,5.7-0.5,12.3-6.2,14.6c0,0,0,0,0,0
											l-298.7,120.7c-5.7,2.3-12.3-0.5-14.6-6.2l0,0C1179.2,1178.6,1182,1172.1,1187.7,1169.8
											C1187.7,1169.8,1187.7,1169.8,1187.7,1169.8z"/>
										<path class="st2" d="M852.1,1399.2l298.7-120.7c5.7-2.3,12.3,0.5,14.6,6.2l0,0c2.3,5.7-0.5,12.3-6.2,14.6c0,0,0,0,0,0
											L860.5,1420c-5.7,2.3-12.3-0.5-14.6-6.2l0,0C843.6,1408,846.3,1401.5,852.1,1399.2
											C852.1,1399.2,852.1,1399.2,852.1,1399.2z"/>
										<path class="st2" d="M1218.4,1250l298.7-120.7c5.7-2.3,12.3,0.5,14.6,6.2l0,0c2.3,5.7-0.5,12.3-6.2,14.6c0,0,0,0,0,0
											l-298.7,120.7c-5.7,2.3-12.3-0.5-14.6-6.2l0,0C1209.9,1258.9,1212.7,1252.3,1218.4,1250
											C1218.4,1250,1218.4,1250,1218.4,1250z"/>
									</g>
									<path class="st2" d="M883.4,1474.7l298.7-120.7c5.7-2.3,12.3,0.5,14.6,6.2l0,0c2.3,5.7-0.5,12.3-6.2,14.6c0,0,0,0,0,0
										l-298.7,120.7c-5.7,2.3-12.3-0.5-14.6-6.2l0,0C874.9,1483.5,877.7,1477,883.4,1474.7
										C883.4,1474.7,883.4,1474.7,883.4,1474.7z"/>
									<path class="st2" d="M1249.7,1325.5l298.7-120.7c5.7-2.3,12.3,0.5,14.6,6.2l0,0c2.3,5.7-0.5,12.3-6.2,14.6c0,0,0,0,0,0
										l-298.7,120.7c-5.7,2.3-12.3-0.5-14.6-6.2l0,0C1241.2,1334.4,1244,1327.8,1249.7,1325.5
										C1249.7,1325.5,1249.7,1325.5,1249.7,1325.5z"/>
									<path class="st2" d="M913.4,1552.6l298.7-120.7c5.7-2.3,12.3,0.5,14.6,6.2l0,0c2.3,5.7-0.5,12.3-6.2,14.6c0,0,0,0,0,0
										l-298.7,120.7c-5.7,2.3-12.3-0.5-14.6-6.2l0,0C904.9,1561.4,907.7,1554.9,913.4,1552.6
										C913.4,1552.6,913.4,1552.6,913.4,1552.6z"/>
									<path class="st2" d="M1279.8,1403.4l298.7-120.7c5.7-2.3,12.3,0.5,14.6,6.2l0,0c2.3,5.7-0.5,12.3-6.2,14.6c0,0,0,0,0,0
										l-298.7,120.7c-5.7,2.3-12.3-0.5-14.6-6.2l0,0C1271.3,1412.2,1274,1405.7,1279.8,1403.4
										C1279.8,1403.4,1279.8,1403.4,1279.8,1403.4z"/>
									<path class="st2" d="M944.1,1628.1l298.7-120.7c5.7-2.3,12.3,0.5,14.6,6.2l0,0c2.3,5.7-0.5,12.3-6.2,14.6c0,0,0,0,0,0
										l-298.7,120.7c-5.7,2.3-12.3-0.5-14.6-6.2l0,0C935.6,1636.9,938.4,1630.4,944.1,1628.1
										C944.1,1628.1,944.1,1628.1,944.1,1628.1z"/>
									<path class="st2" d="M1310.4,1478.9l298.7-120.7c5.7-2.3,12.3,0.5,14.6,6.2l0,0c2.3,5.7-0.5,12.3-6.2,14.6c0,0,0,0,0,0
										l-298.7,120.7c-5.7,2.3-12.3-0.5-14.6-6.2l0,0C1301.9,1487.7,1304.7,1481.2,1310.4,1478.9
										C1310.4,1478.9,1310.4,1478.9,1310.4,1478.9z"/>
								</g>
								<g transform="translate(123.823790, 308.760473)">
								</g>
							</g>
							<g class="st3">
								<path class="st4" d="M5248.5,2956.2l44.8-16.3l5.5,15l-2.1,0.8c-2.7-5.1-6-8-10-8.7c-2.2-0.4-5.2,0.1-9,1.3l14.3,39.2
									c1,2.7,2.1,4.4,3.4,4.9c1.3,0.5,3.4,0.3,6.5-0.8l0.7,1.9l-26.5,9.7l-0.7-1.9c2.9-1.1,4.7-2.2,5.3-3.5c0.6-1.3,0.4-3.2-0.5-6
									l-14.3-39.2c-3.6,1.4-6.2,3-7.7,4.8c-2.9,3.2-3.5,7.6-2.1,13.1l-2.1,0.8L5248.5,2956.2z"/>
								<path class="st4" d="M5315,2986.8c2.1-0.8,3.5-1.6,4.3-2.4c1.2-1.3,1.4-3.1,0.6-5.3l-13.1-36c-0.8-2.2-2-3.4-3.7-3.6
									c-1-0.1-2.7,0.1-5,0.9l-0.7-1.9l26-9.5l0.7,1.9c-2.3,0.9-3.8,1.8-4.5,2.5c-1.2,1.3-1.4,3-0.6,5.2l13.1,36
									c0.8,2.1,1.8,3.3,3.3,3.5c1.4,0.3,3.3,0,5.6-0.9l0.7,1.9l-26,9.5L5315,2986.8z"/>
								<path class="st4" d="M5343.8,2976.3c2.8-1.1,4.5-2.2,5-3.5c0.5-1.3,0.4-2.9-0.3-4.9l-12.9-35.4c-0.7-2-1.7-3.2-2.9-3.5
									c-1.2-0.3-3.1-0.1-5.6,0.6l-0.7-1.9l18.8-6.8l27.2,29.1l0.6-0.2l2-39.7l18.8-6.8l0.7,1.9c-2.5,1.1-4,2.2-4.7,3.3
									c-0.7,1.1-0.5,3,0.6,5.9l12,32.9c1,2.7,2.1,4.4,3.3,4.9c1.2,0.5,3.1,0.4,5.7-0.5l0.7,1.9l-24.7,9l-0.7-1.9
									c2.2-0.9,3.7-1.8,4.6-2.9c0.9-1.1,0.9-2.7,0.1-5l-13.2-36.4l-0.5,0.2l-2.3,50.4l-2,0.7l-34-36.2l-0.3,0.1l12.2,33.7
									c0.9,2.5,2,4.1,3.4,4.9c1.3,0.8,3.6,0.7,6.8-0.3l0.7,1.9l-17.4,6.3L5343.8,2976.3z"/>
								<path class="st4" d="M5432.8,2943.9c2-0.8,3.3-1.6,4-2.4c1.2-1.3,1.4-3.1,0.6-5.2l-13.1-36c-0.8-2.2-2-3.4-3.7-3.6
									c-1-0.2-2.6,0.1-4.8,0.8l-0.7-1.9l23-8.4c4.4-1.6,8.3-2.4,11.6-2.5c6.2-0.1,10.3,2.4,12.1,7.5c1.1,3.1,0.9,5.9-0.7,8.5
									c-1.6,2.6-3.6,4.6-6,6.1l0.3,0.7c3-0.5,5.7-0.4,8.2,0.1c4.9,1,8.1,3.7,9.7,8.2c1.5,4.1,0.8,8.1-2.1,12.1
									c-2.9,3.9-7.5,7.1-13.8,9.4l-23.9,8.7L5432.8,2943.9z M5450.3,2905.8c1-2.1,0.8-5-0.5-8.9c-1-2.8-2.4-5-4.2-6.6
									c-1.7-1.6-4.1-1.8-7-0.7c-1.6,0.6-2.5,1.2-2.9,2s-0.4,1.8,0.1,3.1l6.1,16.7C5446.4,2909.7,5449.2,2907.8,5450.3,2905.8z
									 M5451,2934.9c1,0.8,2.4,1,4.1,0.3c3.5-1.3,5.6-3.1,6.4-5.6c0.7-2.4,0.4-5.4-0.8-8.9c-1.9-5.3-4.8-8.2-8.5-8.8
									c-2.3-0.4-5.4,0.2-9.4,1.8l6.8,18.6C5449.9,2933.5,5450.5,2934.4,5451,2934.9z"/>
								<path class="st4" d="M5483.1,2927.8l-0.7-1.9c2.1-0.8,3.5-1.7,4.2-2.5c1.1-1.3,1.3-3,0.5-5.1l-13.1-36
									c-0.8-2.2-2-3.4-3.7-3.6c-1-0.2-2.6,0.1-4.8,0.8l-0.7-1.9l42.9-15.6l5.5,15l-1.8,0.7c-2.7-4.5-5.5-7.2-8.4-8.1
									c-2.9-0.9-7.4-0.3-13.3,1.9c-2.3,0.8-3.6,1.6-4.1,2.3c-0.4,0.7-0.4,1.7,0.1,3.2l6.3,17.2c4.3-1.5,6.8-3.3,7.8-5.4
									c0.9-2.1,1-5.5,0.3-10l1.9-0.7l9.2,25.1l-1.9,0.7c-2.1-4-4.2-6.6-6.5-7.8c-2.3-1.1-5.5-0.9-9.8,0.6l6.6,18
									c0.6,1.6,1.4,2.5,2.4,2.8c1,0.3,2.8,0,5.3-1c4.7-1.7,8.3-4.1,10.6-7c2.3-2.9,3.7-7.4,4.2-13.3l2.1-0.8l2.6,16.6
									L5483.1,2927.8z"/>
								<path class="st4" d="M5532.1,2907.8c2.5-1,4-2.1,4.6-3.3c0.6-1.2,0.4-3.1-0.6-5.9l-12-32.9c-1-2.9-2.3-4.5-3.7-5
									c-0.9-0.3-2.7-0.1-5.3,0.6l-0.7-1.9l23.9-8.7c5-1.8,9.2-2.8,12.6-2.8c6.7-0.1,11.1,2.6,13.1,8.1c1.5,4,1.1,7.8-1.2,11.3
									c-1.8,2.6-3.9,4.6-6.4,6.1l23.5,15.4c0.6,0.4,1.2,0.7,1.7,0.7c0.5,0,1.1-0.1,1.8-0.3l0.6,1.8l-15.5,5.7l-25.8-16.9l0,0
									l5.3,14.6c1,2.6,2,4.2,3.2,4.8c1.2,0.6,3.1,0.5,5.8-0.4l0.7,1.9l-25.1,9.2L5532.1,2907.8z M5551.7,2871.4
									c1.6-2.1,1.6-5.4-0.1-10.1c-1-2.9-2.3-5-3.7-6.4c-2.4-2.3-5.4-2.8-9.1-1.5c-2,0.7-3.2,1.4-3.6,2.2c-0.4,0.7-0.4,1.7,0,2.8
									l6.9,18.9C5546.9,2875.4,5550.1,2873.5,5551.7,2871.4z"/>
								<path class="st4" d="M5585.8,2888.2c2.7-1.1,4.3-2.3,4.8-3.5s0.3-2.9-0.4-4.8l-12.8-35.2c-3.2-1.7-5.2-2.7-5.8-3
									c-0.7-0.3-1.5-0.3-2.5-0.1l-0.7-1.9l15.8-5.7l36.9,21.8l0.4-0.1l-8-21.9c-0.9-2.5-2-4.2-3.3-4.9c-1.3-0.7-3.4-0.7-6.2,0.1
									l-0.7-1.9l16-5.8l0.7,1.9c-2.2,1.2-3.6,2.3-4.1,3.3c-0.6,0.9-0.4,2.5,0.4,4.8l16,43.9l-2.1,0.8l-47.2-27.9l-0.5,0.2
									l10.6,29.2c0.8,2.3,1.7,3.8,2.7,4.5c1.6,1.2,3.9,1.3,7,0.3l0.7,1.9l-16.9,6.1L5585.8,2888.2z"/>
								<path class="st4" d="M5640.3,2870.6l-0.7-1.9c2.1-0.8,3.5-1.7,4.2-2.5c1.1-1.3,1.3-3,0.5-5.1l-13.1-36
									c-0.8-2.2-2-3.4-3.7-3.6c-1-0.2-2.6,0.1-4.8,0.8l-0.7-1.9l42.9-15.6l5.5,15l-1.8,0.7c-2.7-4.5-5.5-7.2-8.4-8.1
									c-2.9-0.9-7.4-0.3-13.3,1.9c-2.3,0.8-3.6,1.6-4.1,2.3c-0.4,0.7-0.4,1.7,0.1,3.2l6.3,17.2c4.3-1.5,6.8-3.3,7.8-5.4
									s1-5.5,0.3-10l1.9-0.7l9.2,25.1l-1.9,0.7c-2.1-4-4.2-6.6-6.5-7.8c-2.3-1.1-5.5-0.9-9.8,0.6l6.6,18c0.6,1.6,1.4,2.5,2.4,2.8
									c1,0.3,2.8,0,5.3-1c4.7-1.7,8.3-4.1,10.6-7c2.3-2.9,3.7-7.4,4.2-13.3l2.1-0.8l2.6,16.6L5640.3,2870.6z"/>
								<path class="st4" d="M5689.2,2850.6c2.5-1,4-2.1,4.6-3.3c0.6-1.2,0.4-3.1-0.6-5.9l-12-32.9c-1-2.9-2.3-4.5-3.7-5
									c-0.9-0.3-2.7-0.1-5.3,0.6l-0.7-1.9l23.9-8.7c5-1.8,9.2-2.7,12.6-2.8c6.7-0.1,11.1,2.6,13.1,8.1c1.5,4,1.1,7.8-1.2,11.3
									c-1.8,2.6-3.9,4.6-6.4,6.1l23.5,15.4c0.6,0.4,1.2,0.7,1.7,0.7c0.5,0,1.1-0.1,1.8-0.3l0.6,1.8l-15.5,5.7l-25.8-16.9l0,0
									l5.3,14.6c1,2.6,2,4.2,3.2,4.8c1.2,0.6,3.1,0.5,5.8-0.4l0.7,1.9l-25.1,9.2L5689.2,2850.6z M5708.9,2814.2
									c1.6-2.1,1.6-5.4-0.1-10.1c-1-2.9-2.3-5-3.7-6.4c-2.4-2.3-5.4-2.8-9.1-1.5c-2,0.7-3.2,1.4-3.6,2.2s-0.4,1.7,0,2.8l6.9,18.9
									C5704,2818.2,5707.3,2816.3,5708.9,2814.2z"/>
								<path class="st4" d="M5738.7,2815l2.1-0.8c3.2,5.1,6.6,8.5,10.2,10c3.6,1.6,7,1.7,10.5,0.5c3.3-1.2,5.4-2.9,6.1-5.2
									c0.8-2.2,0.8-4.3,0.1-6.2c-0.8-2.2-2.2-3.8-4.2-4.7c-1.3-0.6-3.7-1.1-7.2-1.5l-5.6-0.7c-5.6-0.7-9.7-1.8-12.5-3.4
									c-2.8-1.6-4.8-4.1-6-7.6c-1.3-3.6-1.3-7.5,0.1-11.6c1.4-4.1,4.8-7.1,10.1-9c2.7-1,5.4-1.5,8.3-1.6c2.8-0.1,4.4-0.2,4.8-0.3
									c0.8-0.3,1.3-0.7,1.4-1.3c0.1-0.6,0.2-1.3,0.1-2.1l2.2-0.8l5.9,16.2l-2.1,0.8c-2.3-3.4-5.2-6-8.7-7.8
									c-3.4-1.8-6.9-2.1-10.4-0.8c-2.5,0.9-4.2,2.3-5.1,4.2c-0.9,1.9-1,3.8-0.3,5.8c0.9,2.4,2.2,3.9,3.9,4.5
									c1.8,0.7,5.3,1.4,10.8,2l6.5,0.8c2.9,0.3,5.4,1,7.4,2c3.7,1.8,6.3,4.7,7.8,8.8c1.4,3.8,1.2,7.8-0.5,12.2
									c-1.7,4.4-5.8,7.8-12.2,10.1c-1.5,0.5-3,0.9-4.6,1.2c-1.6,0.3-3.3,0.4-5,0.3l-1.6,0c-0.4,0-0.7,0.1-1.1,0.1
									c-0.3,0.1-0.6,0.1-0.8,0.2c-0.8,0.3-1.2,0.7-1.3,1.2c-0.1,0.6-0.1,1.3-0.1,2.2l-2.1,0.8L5738.7,2815z"/>
								<path class="st4" d="M5779.4,2795.8l17-6.2l3.1,8.6l-17,6.2L5779.4,2795.8z"/>
								<path class="st4" d="M5809.3,2806.9c2-0.8,3.4-1.6,4.1-2.4c1.2-1.3,1.4-3.1,0.6-5.2l-13.1-36c-0.8-2.2-2-3.4-3.7-3.6
									c-1-0.2-2.6,0.1-4.8,0.8l-0.7-1.9l26-9.5l0.7,1.9c-3,1.2-4.9,2.4-5.6,3.5c-0.7,1.1-0.6,3.1,0.5,6.1l12.8,35.2
									c0.6,1.6,1.4,2.6,2.5,2.8c1.1,0.2,2.8-0.1,5.3-1c4.5-1.6,7.9-4,10.2-7.1c2.3-3.1,3.5-7.9,3.7-14.4l2.2-0.8l3.1,18
									l-43.1,15.7L5809.3,2806.9z"/>
								<path class="st4" d="M5859.5,2790.8l-0.7-1.9c2.1-0.8,3.5-1.7,4.2-2.5c1.1-1.3,1.3-3,0.5-5.1l-13.1-36
									c-0.8-2.2-2-3.4-3.7-3.6c-1-0.2-2.6,0.1-4.8,0.8l-0.7-1.9l42.9-15.6l5.5,15l-1.8,0.7c-2.7-4.5-5.5-7.2-8.4-8.1
									c-2.9-0.9-7.4-0.3-13.3,1.9c-2.3,0.8-3.6,1.6-4.1,2.3s-0.4,1.7,0.1,3.2l6.3,17.2c4.3-1.5,6.8-3.3,7.8-5.4
									c0.9-2.1,1-5.5,0.3-10l1.9-0.7l9.2,25.1l-1.9,0.7c-2.1-4-4.2-6.6-6.5-7.8c-2.3-1.1-5.5-0.9-9.8,0.6l6.6,18
									c0.6,1.6,1.4,2.5,2.4,2.8c1,0.3,2.8,0,5.3-1c4.7-1.7,8.3-4.1,10.6-7c2.3-2.9,3.7-7.4,4.2-13.3l2.1-0.8l2.6,16.6
									L5859.5,2790.8z"/>
								<path class="st4" d="M5909.1,2772.7l-0.7-1.9c2.1-0.8,3.5-1.7,4.2-2.5c1.1-1.3,1.3-3,0.5-5.1l-13.1-36
									c-0.8-2.2-2-3.4-3.7-3.6c-1-0.2-2.6,0.1-4.8,0.8l-0.7-1.9l42.9-15.6l5.5,15l-1.8,0.7c-2.7-4.5-5.5-7.2-8.4-8.1
									s-7.4-0.3-13.3,1.9c-2.3,0.8-3.6,1.6-4.1,2.3c-0.4,0.7-0.4,1.7,0.1,3.2l6.3,17.2c4.3-1.5,6.8-3.3,7.8-5.4
									c0.9-2.1,1-5.5,0.3-10l1.9-0.7l9.2,25.1l-1.9,0.7c-2.1-4-4.2-6.6-6.5-7.8c-2.3-1.1-5.5-0.9-9.8,0.6l6.6,18
									c0.6,1.6,1.4,2.5,2.4,2.8c1,0.3,2.8,0,5.3-1c4.7-1.7,8.3-4.1,10.6-7c2.3-2.9,3.7-7.4,4.2-13.3l2.1-0.8l2.6,16.6
									L5909.1,2772.7z"/>
							</g>
							<g class="st3">
								<path class="st4" d="M5306.2,3097.4c2.1-0.8,3.5-1.6,4.3-2.4c1.2-1.3,1.4-3.1,0.6-5.3l-13.1-36c-0.8-2.2-2-3.4-3.7-3.6
									c-1-0.1-2.7,0.1-5,0.9l-0.7-1.9l26-9.5l0.7,1.9c-2.3,0.9-3.8,1.8-4.5,2.5c-1.2,1.3-1.4,3-0.6,5.2l13.1,36
									c0.8,2.1,1.8,3.3,3.3,3.5c1.4,0.3,3.3,0,5.6-0.9l0.7,1.9l-26,9.5L5306.2,3097.4z"/>
								<path class="st4" d="M5335.2,3086.8c2.7-1.1,4.3-2.3,4.8-3.5c0.4-1.3,0.3-2.9-0.4-4.8l-12.8-35.2c-3.2-1.7-5.2-2.7-5.8-3
									s-1.5-0.3-2.5-0.1l-0.7-1.9l15.8-5.7l36.9,21.8l0.4-0.1l-8-21.9c-0.9-2.5-2-4.2-3.3-4.9c-1.3-0.7-3.4-0.7-6.2,0.1l-0.7-1.9
									l16-5.8l0.7,1.9c-2.2,1.2-3.6,2.3-4.1,3.3c-0.6,0.9-0.4,2.5,0.4,4.8l16,43.9l-2.1,0.8l-47.2-27.9l-0.5,0.2l10.6,29.2
									c0.8,2.3,1.7,3.8,2.7,4.5c1.6,1.2,3.9,1.3,7,0.3l0.7,1.9l-16.9,6.1L5335.2,3086.8z"/>
								<path class="st4" d="M5396.3,3009.8l0.7,1.8c-2.6,1.1-4.3,2-4.9,2.6s-0.8,1.5-0.4,2.7c0.1,0.4,0.3,0.7,0.5,1
									c0.2,0.3,0.4,0.6,0.7,0.9l21.8,23.2l-0.1,0l0.6-28.8c0-0.6,0-1.3,0-1.9c-0.1-1.1-0.2-1.9-0.4-2.5c-0.5-1.4-1.3-2.1-2.2-2.2
									c-1,0-2.8,0.3-5.4,1.1l-0.7-1.8l15.8-5.8l0.7,1.8c-1.7,0.9-2.9,1.9-3.5,3.1c-0.6,1.2-0.9,3-1,5.5l-1,49.9l-2,0.7l-35.4-37.6
									c-1.4-1.5-2.7-2.5-3.8-3c-1.1-0.5-2.5-0.5-4.3,0l-0.7-1.8L5396.3,3009.8z"/>
								<path class="st4" d="M5443.3,3049.6l-0.7-1.9c2.1-0.8,3.5-1.7,4.2-2.5c1.1-1.3,1.3-3,0.5-5.1l-13.1-36
									c-0.8-2.2-2-3.4-3.7-3.6c-1-0.2-2.6,0.1-4.8,0.8l-0.7-1.9l42.9-15.6l5.5,15l-1.8,0.7c-2.7-4.5-5.5-7.2-8.4-8.1
									c-2.9-0.9-7.4-0.3-13.3,1.9c-2.3,0.8-3.6,1.6-4.1,2.3c-0.4,0.7-0.4,1.7,0.1,3.2l6.3,17.2c4.3-1.5,6.8-3.3,7.8-5.4
									c0.9-2.1,1-5.5,0.3-10l1.9-0.7l9.2,25.1l-1.9,0.7c-2.1-4-4.2-6.6-6.5-7.8c-2.3-1.1-5.5-0.9-9.8,0.6l6.6,18
									c0.6,1.6,1.4,2.5,2.4,2.8c1,0.3,2.8,0,5.3-1c4.7-1.7,8.3-4.1,10.6-7c2.3-2.9,3.7-7.4,4.2-13.3l2.1-0.8l2.6,16.6
									L5443.3,3049.6z"/>
								<path class="st4" d="M5492.3,3029.6c2.7-1.1,4.3-2.3,4.8-3.5c0.4-1.3,0.3-2.9-0.4-4.8l-12.8-35.2c-3.2-1.7-5.2-2.7-5.8-3
									c-0.7-0.3-1.5-0.3-2.5-0.1l-0.7-1.9l15.8-5.7l36.9,21.8l0.4-0.1l-8-21.9c-0.9-2.5-2-4.2-3.3-4.9c-1.3-0.7-3.4-0.7-6.2,0.1
									l-0.7-1.9l16-5.8l0.7,1.9c-2.2,1.2-3.6,2.3-4.1,3.3c-0.6,0.9-0.4,2.5,0.4,4.8l16,43.9l-2.1,0.8l-47.2-27.9l-0.5,0.2
									l10.6,29.2c0.8,2.3,1.7,3.8,2.7,4.5c1.6,1.2,3.9,1.3,7,0.3l0.7,1.9l-16.9,6.1L5492.3,3029.6z"/>
								<path class="st4" d="M5529.2,2961.4l44.8-16.3l5.5,15l-2.1,0.8c-2.7-5.1-6-8-10-8.7c-2.2-0.4-5.2,0.1-9,1.3l14.3,39.2
									c1,2.7,2.1,4.4,3.4,4.9c1.3,0.5,3.4,0.3,6.5-0.8l0.7,1.9l-26.5,9.7l-0.7-1.9c2.9-1.1,4.7-2.2,5.3-3.5c0.6-1.3,0.4-3.2-0.5-6
									l-14.3-39.2c-3.6,1.4-6.2,3-7.7,4.8c-2.9,3.2-3.5,7.6-2.1,13.1l-2.1,0.8L5529.2,2961.4z"/>
								<path class="st4" d="M5596.4,2993.9l-0.7-1.9c2.1-0.8,3.5-1.7,4.2-2.5c1.1-1.3,1.3-3,0.5-5.1l-13.1-36
									c-0.8-2.2-2-3.4-3.7-3.6c-1-0.2-2.6,0.1-4.8,0.8l-0.7-1.9l42.9-15.6l5.5,15l-1.8,0.7c-2.7-4.5-5.5-7.2-8.4-8.1
									c-2.9-0.9-7.4-0.3-13.3,1.9c-2.3,0.8-3.6,1.6-4.1,2.3c-0.4,0.7-0.4,1.7,0.1,3.2l6.3,17.2c4.3-1.5,6.8-3.3,7.8-5.4
									c0.9-2.1,1-5.5,0.3-10l1.9-0.7l9.2,25.1l-1.9,0.7c-2.1-4-4.2-6.6-6.5-7.8c-2.3-1.1-5.5-0.9-9.8,0.6l6.6,18
									c0.6,1.6,1.4,2.5,2.4,2.8c1,0.3,2.8,0,5.3-1c4.7-1.7,8.3-4.1,10.6-7c2.3-2.9,3.7-7.4,4.2-13.3l2.1-0.8l2.6,16.6
									L5596.4,2993.9z"/>
								<path class="st4" d="M5645.1,2974c1.8-0.8,3.1-1.6,3.7-2.3c1.2-1.3,1.4-2.9,0.7-4.9l-13.4-36.7c-0.7-1.9-1.9-3-3.5-3.2
									c-1-0.1-2.4,0.1-4.5,0.6l-0.7-1.9l22.7-8.3c9.2-3.3,17.1-3.4,23.7-0.3c6,2.9,10.4,8,13.1,15.6c2.5,6.7,2.3,13.2-0.4,19.5
									c-3.1,7.1-8.8,12.1-17.3,15.2l-23.5,8.6L5645.1,2974z M5663.6,2965.4c0.7,0.5,1.9,0.5,3.5-0.1c4.4-1.6,7.5-4.5,9.2-8.6
									c1.7-4.1,0.9-10.6-2.3-19.5c-1.9-5.3-4.3-9.5-7.2-12.7c-4.7-5.2-10-6.7-15.8-4.6c-1.9,0.7-3,1.6-3.3,2.6
									c-0.2,0.7,0,1.8,0.5,3.3l13.3,36.6C5662.2,2963.9,5662.9,2964.9,5663.6,2965.4z"/>
							</g>
							<g class="st3">
								<path class="st4" d="M5408.1,3127.9l2.2,6.1c-5.8,2.7-9.6,5.1-11.4,7c-1.8,1.9-2,4.9-0.5,9c0.4,1.1,1,2.2,1.7,3.6
									c0.8,1.3,1.7,2.7,2.7,4l62,75.8l0.5-0.2l1.9-83c0-0.5-2.5-3.7-7.5-9.8c-5-6.1-8.3-9.8-9.9-11c-2.9-2.2-5.7-3.6-8.4-4
									c-2.7-0.4-7,0.2-12.9,2l-2.2-6.1l77.5-28.2l2.2,6.1c-6.9,3.2-11.4,5.7-13.4,7.5c-2,1.8-2.4,4.5-1.2,7.9
									c0.3,0.8,1.1,2.3,2.5,4.4c1.4,2.1,3.4,5,6.2,8.5l57.6,69.6l-1,0.4l-2.7-91.5c0-1.6-0.2-3.3-0.5-5.1
									c-0.3-1.8-0.8-3.7-1.5-5.7c-1.7-4.6-4.5-7.1-8.6-7.3c-2.5-0.2-6.7,0.6-12.7,2.4l-2.2-6.1l45.4-16.5l2.2,6.1
									c-3.6,2-6.2,4-7.8,6.1c-2.7,3.8-4,9.2-3.8,16.1l4.9,167.9l-6.5,2.4l-84.1-101.3l-1.7,0.6l-3,133l-6.9,2.5l-107-130.7
									c-4.6-5.6-8.4-8.9-11.3-9.8c-2.9-0.9-6.8-0.8-11.8,0.3l-2.2-6.1L5408.1,3127.9z"/>
								<path class="st4" d="M5656.2,3037.6l2.2,6.1c-5.8,2.7-9.6,5.1-11.4,7c-1.8,1.9-2,4.9-0.5,9c0.4,1.1,1,2.2,1.7,3.6
									c0.8,1.3,1.7,2.7,2.7,4l62,75.8l0.5-0.2l1.9-83c0-0.5-2.5-3.7-7.5-9.8c-5-6.1-8.3-9.8-9.9-11c-2.9-2.2-5.7-3.6-8.4-4
									c-2.7-0.4-7,0.2-12.9,2l-2.2-6.1l77.5-28.2l2.2,6.1c-6.9,3.2-11.4,5.7-13.4,7.5c-2,1.8-2.4,4.5-1.2,7.9
									c0.3,0.8,1.1,2.3,2.5,4.4c1.4,2.1,3.4,5,6.2,8.5l57.6,69.6l-1,0.4l-2.7-91.5c0-1.6-0.2-3.3-0.5-5.1
									c-0.3-1.8-0.8-3.7-1.5-5.7c-1.7-4.6-4.5-7-8.6-7.3c-2.5-0.2-6.7,0.6-12.7,2.4l-2.2-6.1l45.4-16.5l2.2,6.1
									c-3.6,2-6.2,4-7.8,6.1c-2.7,3.8-4,9.2-3.8,16.1l4.9,167.9l-6.5,2.4l-84.1-101.3l-1.7,0.6l-3,133l-6.9,2.5l-107-130.7
									c-4.6-5.6-8.4-8.9-11.3-9.8c-2.9-0.9-6.8-0.8-11.8,0.3l-2.2-6.1L5656.2,3037.6z"/>
								<path class="st4" d="M5904.2,2947.3l2.2,6.1c-5.8,2.7-9.6,5.1-11.4,7c-1.8,1.9-2,4.9-0.5,9c0.4,1.1,1,2.2,1.7,3.6
									c0.8,1.3,1.7,2.7,2.7,4l62,75.8l0.5-0.2l1.9-83c0-0.5-2.5-3.7-7.5-9.8c-5-6.1-8.3-9.8-9.9-11c-2.9-2.2-5.7-3.6-8.4-4
									c-2.7-0.4-7,0.2-12.9,2l-2.2-6.1l77.5-28.2l2.2,6.1c-6.9,3.2-11.4,5.6-13.4,7.5c-2,1.8-2.4,4.5-1.2,7.9
									c0.3,0.8,1.1,2.3,2.5,4.4c1.4,2.1,3.4,5,6.2,8.5l57.6,69.6l-1,0.4l-2.7-91.5c0-1.6-0.2-3.3-0.5-5.1
									c-0.3-1.8-0.8-3.7-1.5-5.7c-1.7-4.6-4.5-7-8.6-7.3c-2.5-0.2-6.7,0.6-12.7,2.4l-2.2-6.1l45.4-16.5l2.2,6.1
									c-3.6,2-6.2,4-7.8,6.1c-2.7,3.8-4,9.2-3.8,16.1l4.9,167.9l-6.5,2.4l-84.1-101.3l-1.7,0.6l-3,133l-6.9,2.5l-107-130.7
									c-4.6-5.6-8.4-8.9-11.3-9.8c-2.9-0.9-6.8-0.8-11.8,0.3l-2.2-6.1L5904.2,2947.3z"/>
							</g>
							<path id="Path-2" class="st5" d="M3806.1,3033l768.8-2.3l77.3-264.3l-54.5-218.4c-240.5-51.1-381.9-71.6-424.3-61.7
								c-63.5,15-344.3,46.9-381.6,79.5c-37.3,32.6-40.2,17.3-50.5,59.6c-6.9,28.2-6.9,64.3,0,108.5l0,91.3
								c20.5,68.5,33.2,109.9,38.2,124.3C3784.5,2963.9,3793.4,2991.8,3806.1,3033z"/>
							
								<g id="Group-21" transform="translate(1865.740000, 2126.720000) rotate(-4.000000) translate(-1865.740000, -2126.720000) translate(1643.240000, 1791.220000)">
								<g id="Group-20">
									<path class="st6" d="M722.2,981.5l306.4,0c29.2,0,52.8,23.6,52.8,52.8l0,532.4c0,29.2-23.6,52.8-52.8,52.8l-306.4,0
										c-29.2,0-52.8-23.6-52.8-52.8l0-532.4C669.4,1005.1,693.1,981.5,722.2,981.5z"/>
									<path class="st2" d="M731.7,1046.8l295,0c5.5,0,10,4.5,10,10l0,299c0,5.5-4.5,10-10,10l-295,0c-5.5,0-10-4.5-10-10l0-299
										C721.7,1051.2,726.1,1046.8,731.7,1046.8z"/>
									
										<rect x="758.7" y="1080.8" transform="matrix(-1 2.999258e-06 -2.999258e-06 -1 1763.3488 2392.498)" class="st0" width="246" height="231"/>
									<g id="Group-8" transform="translate(66.760000, 452.780000)">
										<circle id="Oval" class="st2" cx="871.9" cy="1012" r="21"/>
										<circle class="st2" cx="928.9" cy="986" r="21"/>
										<path class="st2" d="M681.9,965h25c1.7,0,3,1.3,3,3l0,77c0,1.7-1.3,3-3,3h-25c-1.7,0-3-1.3-3-3l0-77
											C678.9,966.3,680.3,965,681.9,965z"/>
										<path class="st2" d="M735.9,994v25c0,1.7-1.3,3-3,3h-77c-1.7,0-3-1.3-3-3l0-25c0-1.7,1.3-3,3-3h77
											C734.6,991,735.9,992.3,735.9,994z"/>
									</g>
									<path class="st7" d="M831.7,1549.3h34c3.6,0,6.5,2.9,6.5,6.5v2c0,3.6-2.9,6.5-6.5,6.5h-34c-3.6,0-6.5-2.9-6.5-6.5v-2
										C825.2,1552.2,828.1,1549.3,831.7,1549.3z"/>
									<path class="st7" d="M900.7,1549.3h34c3.6,0,6.5,2.9,6.5,6.5v2c0,3.6-2.9,6.5-6.5,6.5h-34c-3.6,0-6.5-2.9-6.5-6.5v-2
										C894.2,1552.2,897.1,1549.3,900.7,1549.3z"/>
								</g>
								<g id="Group-19" transform="translate(160.760000, 143.780000)">
									<g id="Group-18">
										
											<rect x="652.9" y="1041" transform="matrix(-1 2.999258e-06 -2.999258e-06 -1 1330.8284 2106.9387)" class="st2" width="25" height="25"/>
										
											<rect x="670.9" y="1016" transform="matrix(-1 2.999258e-06 -2.999258e-06 -1 1366.8282 2056.9387)" class="st2" width="25" height="25"/>
										
											<rect x="690.9" y="990" transform="matrix(-1 2.999258e-06 -2.999258e-06 -1 1406.8281 2004.9385)" class="st2" width="25" height="25"/>
										
											<rect x="707.9" y="965" transform="matrix(-1 2.999258e-06 -2.999258e-06 -1 1440.828 1954.9385)" class="st2" width="25" height="25"/>
										
											<rect x="727.9" y="990" transform="matrix(-1 2.999258e-06 -2.999258e-06 -1 1480.8281 2004.9384)" class="st2" width="25" height="25"/>
										
											<rect x="744.9" y="1016" transform="matrix(-1 2.999258e-06 -2.999258e-06 -1 1514.8282 2056.9382)" class="st2" width="25" height="25"/>
										
											<rect x="761.9" y="1041" transform="matrix(-1 2.999258e-06 -2.999258e-06 -1 1548.8284 2106.9382)" class="st2" width="25" height="25"/>
									</g>
									
										<g transform="translate(67.000000, 130.500000) scale(1, -1) translate(-67.000000, -130.500000) translate(0.000000, 80.000000)">
										
											<rect x="652.9" y="-864" transform="matrix(-1 2.999258e-06 -2.999258e-06 -1 1330.8225 -1752.9426)" class="st2" width="25" height="-25"/>
										
											<rect x="690.9" y="-876" transform="matrix(-1 2.999258e-06 -2.999258e-06 -1 1406.8225 -1776.9427)" class="st2" width="25" height="-25"/>
										
											<rect x="727.9" y="-876" transform="matrix(-1 2.999258e-06 -2.999258e-06 -1 1480.8225 -1776.9429)" class="st2" width="25" height="-25"/>
										
											<rect x="707.9" y="-885" transform="matrix(-1 2.999258e-06 -2.999258e-06 -1 1440.8225 -1794.9427)" class="st2" width="25" height="-25"/>
										
											<rect x="707.9" y="-885" transform="matrix(-1 2.999258e-06 -2.999258e-06 -1 1440.8225 -1794.9427)" class="st2" width="25" height="-25"/>
										
											<rect x="670.9" y="-889" transform="matrix(-1 2.999258e-06 -2.999258e-06 -1 1366.8225 -1802.9427)" class="st2" width="25" height="-25"/>
										
											<rect x="690.9" y="-915" transform="matrix(-1 2.999258e-06 -2.999258e-06 -1 1406.8224 -1854.9427)" class="st2" width="25" height="-25"/>
										
											<rect x="707.9" y="-940" transform="matrix(-1 2.999258e-06 -2.999258e-06 -1 1440.8224 -1904.9429)" class="st2" width="25" height="-25"/>
										
											<rect x="727.9" y="-915" transform="matrix(-1 2.999258e-06 -2.999258e-06 -1 1480.8224 -1854.9429)" class="st2" width="25" height="-25"/>
										
											<rect x="744.9" y="-889" transform="matrix(-1 2.999258e-06 -2.999258e-06 -1 1514.8225 -1802.9429)" class="st2" width="25" height="-25"/>
										
											<rect x="761.9" y="-864" transform="matrix(-1 2.999258e-06 -2.999258e-06 -1 1548.8225 -1752.9429)" class="st2" width="25" height="-25"/>
									</g>
								</g>
							</g>
							<path id="Path-3" class="st5" d="M3659.9,2673.8l-14.8,243.1l61.5,54l48.1-6.8c-5.3-73.5-8-110.2-8-110.2
								c0,0-24-124.8-24-135.1c0-6.8,0-46.9,0-120.2c-37.3,31.8-56,47.7-56,47.7S3664.4,2655.6,3659.9,2673.8z"/>
							<path class="st5" d="M4716.6,2673.8l14.8,243.1l-61.5,54l-48.1-6.8c5.3-73.5,8-110.2,8-110.2c0,0,24-124.8,24-135.1
								c0-6.8,0-46.9,0-120.2c37.3,31.8,56,47.7,56,47.7S4712.1,2655.6,4716.6,2673.8z"/>
							<g id="heart-copy" transform="translate(1610.400000, 1267.180000)">
								
									<rect x="2071.8" y="2492.4" transform="matrix(-0.9903 0.1392 -0.1392 -0.9903 5532.2734 4841.8662)" class="st5" width="1050.2" height="243.9"/>
								
									<rect x="2221.1" y="2326.5" transform="matrix(-0.9903 0.1392 -0.1392 -0.9903 5474.0776 4412.9688)" class="st5" width="723.3" height="142.7"/>
								<path id="Fill-1" class="st8" d="M2072.1,2744.5h1035.5H2072.1z"/>
								<polygon id="Fill-2" class="st2" points="2072.1,2764.9 3107.6,2764.9 3107.6,2721.2 2072.1,2721.2 								"/>
								<polygon id="Fill-3" class="st2" points="2072.1,2746 2083.3,2897.8 2185.9,3036.4 2275.8,3044.9 2604.9,3077 
									2942.2,3052.8 3055.3,2974.4 3107.6,2825.1 3085.2,2746 								"/>
								<g id="Group-108">
									<path id="Fill-4" class="st2" d="M2094.2,2508.7v314.6c0,119.4,97.3,216.6,216.8,216.6h556.6
										c119.6,0,216.8-97.2,216.8-216.6v-314.6H2094.2z M2867.6,3084.8H2311c-144.3,0-261.8-117.3-261.8-261.5v-337.1
										c0-12.4,10.1-22.4,22.5-22.4h1035.2c12.4,0,22.5,10,22.5,22.4v337.1C3129.4,2967.5,3012,3084.8,2867.6,3084.8
										L2867.6,3084.8z"/>
									<path id="Fill-6" class="st8" d="M2690.4,2757.5c0-59-47.9-106.8-106.9-106.8c-59,0-106.9,47.8-106.9,106.8
										c0,59,47.9,106.8,106.9,106.8C2642.6,2864.2,2690.4,2816.4,2690.4,2757.5"/>
									<path id="Fill-8" class="st2" d="M2583.6,2673.1c-46.5,0-84.4,37.8-84.4,84.3c0,46.5,37.9,84.3,84.4,84.3
										s84.4-37.8,84.4-84.3C2668,2711,2630.1,2673.1,2583.6,2673.1 M2583.6,2886.7c-71.3,0-129.3-58-129.3-129.2
										c0-71.3,58-129.2,129.3-129.2s129.3,58,129.3,129.2C2712.9,2828.7,2654.9,2886.7,2583.6,2886.7"/>
									<path id="Fill-10" class="st2" d="M2182.8,3012.5c0-28.8-23.4-52.1-52.2-52.1c-28.8,0-52.2,23.3-52.2,52.1
										s23.4,52.1,52.2,52.1C2159.4,3064.6,2182.8,3041.3,2182.8,3012.5"/>
									<path id="Fill-12" class="st2" d="M3099.3,3012.5c0-28.8-23.4-52.1-52.2-52.1c-28.8,0-52.2,23.3-52.2,52.1
										s23.4,52.1,52.2,52.1C3076,3064.6,3099.3,3041.3,3099.3,3012.5"/>
									<path id="Fill-16" class="st5" d="M3041.4,2977c0-17.9-14.5-32.3-32.4-32.3c-17.9,0-32.4,14.5-32.4,32.3
										c0,17.9,14.5,32.4,32.4,32.4C3026.9,3009.3,3041.4,2994.8,3041.4,2977"/>
									<path id="Fill-18" class="st5" d="M2195.3,2977c0-17.9-14.5-32.3-32.4-32.3c-17.9,0-32.4,14.5-32.4,32.3
										c0,17.9,14.5,32.4,32.4,32.4C2180.8,3009.3,2195.3,2994.8,2195.3,2977"/>
									<path id="Fill-35" class="st2" d="M2024.4,3566.1h170.9"/>
									<path id="Fill-37" class="st2" d="M2024.4,3344.2h170.9"/>
									<path id="Fill-52" class="st2" d="M3168.3,3568.2h-170.9"/>
									<path id="Fill-54" class="st2" d="M3168.3,3346.3h-170.9"/>
									<path id="Path-6" class="st5" d="M1086.2,1846.8l97.1-51c40.3,29.2,60.4,45,60.4,47.4c0,3.6,35.9,53.6,42.8,74.4
										c6.8,20.7,14.1,59.8,4.6,65.6c-9.5,5.8-32.1,32.1-51,32.1c-19,0-37,9.5-49.1,0s-74.1-70.7-74.1-80.9
										c0-10.2-19-49.6-24.8-54.7C1088.1,1876.2,1086.2,1865.3,1086.2,1846.8z"/>
									<polygon id="Fill-59" class="st2" points="1759.4,2896.9 2083.7,2896.9 2083.7,2731.3 1759.4,2731.3 									"/>
									<polygon id="Fill-60" class="st2" points="3113.5,2896.9 3437.8,2896.9 3437.8,2731.3 3113.5,2731.3 									"/>
									<path id="Fill-63" class="st2" d="M2227.5,2463.8h691.6v-120.6h-691.6V2463.8z M2182.6,2508.7H2964v-210.4h-781.5V2508.7z"
										/>
									<path id="Fill-64" class="st8" d="M2865.2,2260.5h-574.5c-12.4,0-22.5-10-22.5-22.4s10.1-22.4,22.5-22.4h574.5
										c12.4,0,22.5,10,22.5,22.4S2877.7,2260.5,2865.2,2260.5"/>
									<polygon id="Fill-65" class="st8" points="2181.1,1764.2 2903.2,1764.2 2964.4,1787.5 2918.4,1952.1 2226.6,1952.1 
																			"/>
									<path id="Fill-66" class="st5" d="M2324.4,2155.6c-54,0-97.8-43.7-97.8-97.7v-105.8h691.8v105.8c0,54-43.8,97.7-97.8,97.7
										H2324.4z"/>
									<path id="Fill-67" class="st2" d="M2249,1974.6v83.3c0,41.5,33.8,75.3,75.3,75.3h496.2c41.5,0,75.3-33.8,75.3-75.3v-83.3
										H2249z M2820.6,2178.1h-496.2c-66.3,0-120.3-53.9-120.3-120.2v-128.2h736.8v128.2
										C2940.9,2124.2,2886.9,2178.1,2820.6,2178.1L2820.6,2178.1z"/>
									<path id="Fill-68" class="st8" d="M2445.6,1764.2c-108.6-47.7-184.5-156.1-184.5-282.2c0-74.4,26.4-142.7,70.4-195.9
										c56.5-68.5,412.3-71.9,468.8-8.2c48.2,54.4,77.5,125.8,77.5,204.2c0,126.1-75.8,234.5-184.4,282.2"/>
									<path id="Fill-69" class="st2" d="M2426.2,1786.6c-3.3,0-6.7-0.7-9.8-2.3c-119.8-58.2-194.2-177-194.2-310
										c0-66,18.8-130.2,54.2-185.6c6.7-10.4,20.6-13.5,31-6.8c10.4,6.7,13.5,20.6,6.8,31c-30.8,48.1-47.1,103.9-47.1,161.4
										c0,115.7,64.7,219,168.9,269.6c11.2,5.4,15.8,18.8,10.4,30C2442.5,1781.9,2434.5,1786.6,2426.2,1786.6"/>
									<path id="Fill-70" class="st2" d="M2711.3,1785c-8.2,0-16.2-4.5-20.1-12.4c-5.6-11.1-1.1-24.6,10-30.1
										c102.3-51.2,165.8-153.9,165.8-268.1c0-64.2-20-125.5-58-177.1c-7.3-10-5.2-24,4.8-31.4c10-7.3,24.1-5.2,31.4,4.8
										c43.6,59.4,66.7,129.8,66.7,203.7c0,131.3-73,249.4-190.6,308.3C2718.1,1784.2,2714.7,1785,2711.3,1785"/>
									<path id="Fill-71" class="st2" d="M2244,1929.7h656.9l108.3-425.8c-1.5-239.3-196.8-433.5-436.7-433.5
										c-239.9,0-435.2,194.2-436.7,433.5L2244,1929.7z M2935.9,1974.6h-726.8l-118.3-465.1v-2.8c0-265.3,216.1-481.2,481.6-481.2
										c265.6,0,481.6,215.9,481.6,481.2v2.8l-0.7,2.7L2935.9,1974.6z"/>
									<path id="Fill-72" class="st2" d="M2113.3,1522.4c-12.4,0-22.5-10-22.5-22.4v-436.6c0-12.4,10.1-22.4,22.5-22.4
										s22.5,10,22.5,22.4V1500C2135.8,1512.4,2125.7,1522.4,2113.3,1522.4"/>
									<path id="Fill-73" class="st2" d="M3031.7,1522.4c-12.4,0-22.5-10-22.5-22.4V940.1c0-12.4,10.1-22.4,22.5-22.4
										c12.4,0,22.5,10,22.5,22.4V1500C3054.1,1512.4,3044.1,1522.4,3031.7,1522.4"/>
									<path id="Fill-74" class="st2" d="M2149.1,1718.5h-47.4c-50.8,0-92.2-41.3-92.2-92.1v-176.9c0-50.8,41.4-92.1,92.2-92.1
										h20.1c12.4,0,22.5,10,22.5,22.4c0,12.4-10.1,22.4-22.5,22.4h-20.1c-26.1,0-47.3,21.2-47.3,47.2v176.9
										c0,26,21.2,47.2,47.3,47.2h47.4c12.4,0,22.5,10,22.5,22.4C2171.5,1708.5,2161.5,1718.5,2149.1,1718.5"/>
									<path id="Fill-75" class="st2" d="M3044.9,1718.5h-47.4c-12.4,0-22.5-10-22.5-22.4c0-12.4,10.1-22.4,22.5-22.4h47.4
										c26.1,0,47.3-21.2,47.3-47.2v-176.9c0-26-21.2-47.2-47.3-47.2h-20.1c-12.4,0-22.5-10-22.5-22.4c0-12.4,10.1-22.4,22.5-22.4
										h20.1c50.8,0,92.2,41.3,92.2,92.1v176.9C3137.1,1677.2,3095.8,1718.5,3044.9,1718.5"/>
									<path id="Fill-76" class="st2" d="M2118.2,1452.3c-5.7,0-11.3-2.1-15.7-6.4c-8.9-8.7-9-22.9-0.4-31.7
										c127.5-130.5,297.2-202.4,477.6-202.4c169.9,0,332.3,64.8,457.2,182.4c9,8.5,9.4,22.7,0.9,31.7c-8.5,9-22.7,9.4-31.8,0.9
										c-116.5-109.7-268-170.2-426.4-170.2c-168.2,0-326.4,67.1-445.4,188.9C2129.9,1450.1,2124.1,1452.3,2118.2,1452.3"/>
									<path id="Fill-77" class="st2" d="M2964.4,1786.6h-783.3c-12.4,0-22.5-10-22.5-22.4c0-12.4,10.1-22.4,22.5-22.4h783.3
										c12.4,0,22.5,10,22.5,22.4C2986.9,1776.5,2976.8,1786.6,2964.4,1786.6"/>
									<path id="Fill-78" class="st5" d="M2733.6,1379.9c0,44.4-36,80.4-80.4,80.4c-44.4,0-80.4-36-80.4-80.4
										c0-44.4,36-80.4,80.4-80.4C2697.6,1299.5,2733.6,1335.5,2733.6,1379.9"/>
									<path id="Fill-79" class="st5" d="M2791.1,1500c0,17.9-14.6,32.5-32.5,32.5c-18,0-32.5-14.6-32.5-32.5s14.6-32.5,32.5-32.5
										C2776.6,1467.5,2791.1,1482.1,2791.1,1500"/>
									<path id="Fill-80" class="st2" d="M2850.2,1910.5c-31.9,0-47.8-24.1-58.4-40c-10-15.1-14.2-19.9-20.9-19.9
										c-6.7,0-10.9,4.7-20.9,19.9c-10.5,15.9-26.5,40-58.4,40c-31.9,0-47.8-24.1-58.4-40c-10-15.1-14.2-19.9-20.9-19.9
										c-6.7,0-10.9,4.7-20.9,19.9c-10.5,15.9-26.5,40-58.4,40s-47.8-24.1-58.4-40c-10-15.1-14.2-19.9-20.9-19.9
										c-6.7,0-10.9,4.7-20.9,19.9c-10.6,15.9-26.5,40-58.4,40c-31.9,0-47.8-24.1-58.4-40c-10-15.2-14.2-19.9-20.9-19.9
										c-12.4,0-22.5-10-22.5-22.4c0-12.4,10.1-22.4,22.5-22.4c31.9,0,47.8,24.1,58.4,40c10,15.1,14.2,19.9,20.9,19.9
										c6.7,0,10.9-4.7,20.9-19.9c10.6-15.9,26.5-40,58.4-40c31.9,0,47.8,24.1,58.4,40c10,15.1,14.2,19.9,20.9,19.9
										c6.7,0,10.9-4.7,20.9-19.9c10.5-15.9,26.5-40,58.4-40c31.9,0,47.8,24.1,58.4,40c10,15.1,14.2,19.9,20.9,19.9
										s10.9-4.7,20.9-19.9c10.5-15.9,26.5-40,58.4-40c31.9,0,47.8,24.1,58.4,40c10,15.1,14.2,19.9,20.9,19.9
										c12.4,0,22.5,10,22.5,22.4C2872.7,1900.5,2862.6,1910.5,2850.2,1910.5"/>
									<path id="Fill-84" class="st2" d="M2511.3,3518.4l-222.2-179.5"/>
									
										<g id="Group-2" transform="translate(842.649002, 1408.154998) rotate(-16.000000) translate(-842.649002, -1408.154998) translate(196.509002, 605.594998)">
										<path id="Fill-85" class="st2" d="M897.9,1463.1c4.2,2.6,7.6,6.7,9.3,11.7l93.3,269.9c4.1,11.7-2.2,24.5-13.9,28.5
											c-11.7,4-24.5-2.2-28.6-13.9l-93.3-269.9c-4.1-11.7,2.2-24.5,13.9-28.5C885.3,1458.6,892.3,1459.6,897.9,1463.1"/>
										<path id="Fill-86" class="st5" d="M968.8,1544.5c57.7-19.9,120.6,10.7,140.5,68.4l268.3,776
											c19.9,57.7-10.7,120.5-68.4,140.4l-109.6,37.8c-57.7,19.9-120.6-10.7-140.6-68.4l-268.3-776
											c-19.9-57.7,10.7-120.5,68.4-140.4L968.8,1544.5z"/>
										<path id="Fill-87" class="st2" d="M1117,2537.3c21.8,13.6,49.3,17.7,75.4,8.7l109.5-37.8c45.9-15.8,70.3-66,54.5-111.9
											l-268.4-776.2c-7.7-22.2-23.6-40.1-44.7-50.4c-21.1-10.3-45-11.7-67.3-4.1l-109.5,37.8c-22.2,7.7-40.1,23.5-50.4,44.7
											c-10.3,21.1-11.7,45-4,67.2l268.3,776.2C1087.3,2511.2,1100.5,2527,1117,2537.3 M1075.5,1536.3c25.7,16.1,45,40.2,55,69.2
											l268.3,776.2c11.6,33.6,9.4,69.6-6.1,101.5c-15.5,31.9-42.6,55.9-76.1,67.4l-109.5,37.8c-69.3,23.9-145.2-13-169.1-82.3
											L769.7,1730c-11.6-33.6-9.4-69.6,6.1-101.5c15.5-31.9,42.6-55.9,76.1-67.4l109.5-37.8c33.6-11.6,69.7-9.4,101.6,6.2
											C1067.3,1531.5,1071.5,1533.8,1075.5,1536.3"/>
										<path id="Fill-88" class="st8" d="M894.9,1781.1c16.1,46.5,66.9,71.3,113.5,55.2c46.6-16.1,71.3-66.8,55.2-113.4
											c-16.1-46.5-66.9-71.3-113.4-55.2C903.6,1683.8,878.9,1734.6,894.9,1781.1"/>
										<path id="Fill-89" class="st2" d="M943.8,1808.6c2,1.3,4.1,2.4,6.3,3.5c16,7.8,34.1,8.9,51,3.1
											c16.8-5.8,30.4-17.8,38.2-33.8c7.8-16,8.9-34.1,3.1-51c-5.8-16.8-17.9-30.4-33.9-38.2c-16-7.8-34.1-8.9-51-3.1
											c-16.9,5.8-30.4,17.8-38.2,33.9c-7.8,16-8.9,34.1-3.1,51C921.2,1788.4,930.9,1800.5,943.8,1808.6 M1038.6,1657.5
											c21.6,13.5,37.8,33.8,46.2,58.1c9.7,28.2,7.9,58.5-5.1,85.3c-13,26.8-35.7,46.9-63.9,56.6c-28.2,9.7-58.5,7.9-85.3-5.2
											c-26.8-13.1-47-35.8-56.7-64c-9.7-28.2-7.9-58.5,5.1-85.3c13-26.8,35.7-46.9,63.9-56.6c28.2-9.7,58.5-7.9,85.3,5.2
											C1031.7,1653.5,1035.2,1655.4,1038.6,1657.5"/>
										<path id="Fill-90" class="st2" d="M1321.9,2174.1c4.2,2.6,7.6,6.7,9.3,11.7c4.1,11.7-2.2,24.5-13.9,28.5l-318.5,109.8
											c-11.7,4-24.5-2.2-28.6-13.9c-4.1-11.7,2.2-24.5,13.9-28.5l318.5-109.8C1309.3,2169.6,1316.3,2170.6,1321.9,2174.1"/>
										<path id="Fill-91" class="st2" d="M1255.4,1981.9c4.2,2.6,7.6,6.7,9.3,11.7c4.1,11.7-2.2,24.5-13.9,28.5L932.4,2132
											c-11.7,4-24.5-2.2-28.6-13.9c-4.1-11.7,2.2-24.5,13.9-28.5l318.5-109.8C1242.8,1977.4,1249.9,1978.4,1255.4,1981.9"/>
										<path id="Fill-93" class="st2" d="M882.8,1175.4c4.2,2.6,7.6,6.7,9.3,11.7l72.2,208.8c14.1,40.9-7.7,85.6-48.5,99.7
											l-44.9,15.5c-40.9,14.1-85.7-7.7-99.8-48.6l-72.2-208.8c-4.1-11.7,2.2-24.5,13.9-28.5c11.7-4,24.5,2.2,28.6,13.9
											l72.2,208.8c6,17.5,25.2,26.8,42.7,20.8l44.9-15.5c17.5-6,26.8-25.2,20.8-42.6l-72.2-208.8c-4.1-11.7,2.2-24.5,13.9-28.5
											C870.3,1170.9,877.3,1171.9,882.8,1175.4"/>
										<path id="Fill-94" class="st8" d="M720.1,1246.4c14.4,41.6,59.8,63.7,101.5,49.4c41.7-14.4,63.7-59.7,49.4-101.4
											s-59.8-63.7-101.5-49.4C727.8,1159.4,705.7,1204.8,720.1,1246.4"/>
										<path id="Fill-95" class="st2" d="M765.1,1269c1.7,1.1,3.5,2.1,5.4,3c13.8,6.7,29.3,7.6,43.8,2.7
											c14.5-5,26.1-15.3,32.8-29.1c6.7-13.8,7.6-29.3,2.6-43.8c-10.3-29.9-43-45.8-72.9-35.5c-29.9,10.3-45.8,43-35.4,72.8
											C745.7,1251.6,754,1262,765.1,1269 M849.7,1133.9c19.2,12,34.5,30.3,42.4,53.3c8.9,25.8,7.3,53.5-4.7,78.1
											c-11.9,24.5-32.7,43-58.5,51.9c-25.8,8.9-53.5,7.2-78.1-4.7c-24.6-11.9-43-32.7-51.9-58.6c-18.4-53.3,10-111.6,63.2-129.9
											C792.4,1113.4,824.4,1118.1,849.7,1133.9"/>
										<path id="Fill-97" class="st2" d="M1162.6,2229c4.2,2.6,7.6,6.7,9.3,11.7l103.8,300.2c4.1,11.7-2.2,24.5-13.9,28.5
											c-11.7,4-24.5-2.2-28.6-13.9l-103.8-300.2c-4.1-11.7,2.2-24.5,13.9-28.5C1150.1,2224.5,1157.1,2225.5,1162.6,2229"/>
									</g>
									<path id="Fill-96" class="st8" d="M1880.8,3009.1l-247.2-199.6"/>
									
										<g id="Group-5" transform="translate(2930.925628, 1545.370988) rotate(15.000000) translate(-2930.925628, -1545.370988) translate(2321.085628, 901.870988)">
										<path id="Fill-98" class="st5" d="M1678.9,837.1l-114.5-17.7c-60.3-9.3-116.8,32-126.1,92.3l-126.1,811.4
											c-9.4,60.3,31.9,116.7,92.2,126.1l114.5,17.7c60.3,9.3,116.8-32,126.1-92.3l126.1-811.4
											C1780.4,902.9,1739.2,846.5,1678.9,837.1"/>
										<g id="Group-4" transform="translate(0.000000, 0.000000)">
											<g id="Group-3" transform="translate(0.000000, 0.000000)">
												<path id="Fill-99" class="st2" d="M1607,1809.4c8-10.9,13.5-23.9,15.7-38.1l126.2-811.6c3.6-23.2-2-46.5-15.9-65.5
													c-13.9-19-34.3-31.4-57.5-35l0,0L1561,841.5c-48-7.4-93,25.6-100.5,73.6l-126.2,811.6c-3.6,23.2,2,46.5,15.9,65.4
													s34.3,31.4,57.5,35l114.5,17.7C1555.9,1850,1588.2,1835.3,1607,1809.4 M1439.8,850.5c8-11.1,17.8-20.9,29.2-29.3
													c28.7-21,63.8-29.5,98.9-24.1l114.5,17.7c35.1,5.4,65.9,24.2,86.9,52.8c20.9,28.7,29.5,63.8,24,98.9l-126.2,811.6
													c-11.3,72.4-79.4,122.3-151.8,111.1l-114.5-17.7c-35.1-5.4-65.9-24.2-86.9-52.8c-20.9-28.7-29.5-63.8-24-98.9
													l126.2-811.6C1419.4,887,1427.6,867.3,1439.8,850.5"/>
												<path id="Fill-100" class="st2" d="M1325.7,1505.2c4.8-6.6,13-10.3,21.6-9l332.9,51.5c12.3,1.9,20.6,13.4,18.7,25.6
													c-1.9,12.3-13.4,20.7-25.6,18.7l-332.9-51.5c-12.3-1.9-20.6-13.4-18.7-25.6C1322.3,1511.3,1323.7,1508,1325.7,1505.2"/>
												<path id="Fill-101" class="st2" d="M1357,1304.2c4.8-6.6,13-10.3,21.6-9l332.9,51.5c12.3,1.9,20.6,13.4,18.7,25.6
													c-1.9,12.3-13.4,20.7-25.6,18.7l-332.9-51.5c-12.3-1.9-20.6-13.4-18.7-25.6C1353.5,1310.3,1355,1307,1357,1304.2"/>
												<path id="Fill-103" class="st2" d="M1492.2,1530.9c4.8-6.6,13-10.3,21.6-9c12.3,1.9,20.6,13.4,18.7,25.6l-48.8,313.9
													c-1.9,12.3-13.4,20.6-25.6,18.7c-12.3-1.9-20.6-13.4-18.7-25.6l48.8-313.9C1488.8,1537,1490.2,1533.7,1492.2,1530.9"/>
												<path id="Fill-105" class="st2" d="M1503.6,937.8c4.8-6.6,13-10.3,21.6-9c12.3,1.9,20.6,13.4,18.7,25.6l-33.9,218.3
													c-2.8,18.3,9.7,35.4,28,38.3l47,7.3c18.3,2.8,35.5-9.7,38.3-28l33.9-218.4c1.9-12.3,13.4-20.6,25.6-18.7
													c12.3,1.9,20.6,13.4,18.7,25.6l-33.9,218.3c-6.6,42.7-46.8,72.1-89.6,65.5l-47-7.3c-42.7-6.6-72.1-46.8-65.5-89.5
													l33.9-218.4C1500.2,943.9,1501.6,940.6,1503.6,937.8"/>
												<path id="Fill-106" class="st8" d="M1679.5,975.4c-6.8,43.5-47.5,73.4-91.1,66.6c-43.5-6.7-73.3-47.5-66.6-91
													c6.8-43.5,47.5-73.4,91.1-66.6C1656.4,891.2,1686.2,931.9,1679.5,975.4"/>
												<path id="Fill-107" class="st2" d="M1657.3,972c4.9-31.2-16.6-60.6-47.8-65.4c-15.1-2.3-30.2,1.4-42.6,10.4
													c-12.4,9.1-20.5,22.4-22.8,37.5c-2.4,15.1,1.3,30.3,10.4,42.6c9,12.4,22.3,20.4,37.4,22.8c15.1,2.3,30.3-1.4,42.6-10.4
													C1646.8,1000.4,1654.9,987.1,1657.3,972L1657.3,972z M1517.9,903.2c6.2-8.5,13.7-16.1,22.5-22.5
													c22-16.1,49-22.7,76-18.5c55.7,8.6,93.9,61,85.3,116.7l0,0c-4.2,27-18.6,50.7-40.7,66.9c-22,16.1-49,22.7-76,18.5
													c-27-4.2-50.7-18.6-66.8-40.6c-16.1-22-22.7-49-18.5-76C1502.2,931.3,1508.4,916.2,1517.9,903.2L1517.9,903.2z"/>
											</g>
										</g>
									</g>
									<path id="Fill-102" class="st8" d="M3195.7,2899.5l282.7-145.1"/>
								</g>
							</g>
							<g id="Group-10" transform="translate(2911.920000, 1222.300000)">
								<path class="st9" d="M1275.8,1232.1c261.9,0,463.2,175.8,461.8,172.1c0-104.2-17.5-280.5-77.3-363.3
									c-85.1-117.9-237.7-123.8-391.6-123.8c-167.1,0-318.9,12.5-398.5,147.1c-45.2,76.4-59.3,248.5-59.3,340
									C814.4,1409.5,1013.9,1232.1,1275.8,1232.1z"/>
								<path class="st9" d="M1268.2,1332.9c306.8,0,566.7,120.5,565,119.5c0-26.5-36.4-148.8-106.5-169.9
									c-99.7-30-278.5-31.5-458.7-31.5c-195.7,0-373.6,3.2-466.9,37.4c-52.9,19.5-82.6,140.7-82.6,164
									C722.7,1453.8,961.4,1332.9,1268.2,1332.9z"/>
								<g id="Group-9" transform="translate(351.361465, 69.632320)" class="st10">
									<g class="st3">
										<path class="st11" d="M763.3,971.5l-10.5,36.7h-16.6l-18.6-65.3h16.6l11.2,44.8h0.4l11.9-44.8h11.2l11.9,44.8h0.4
											l11.2-44.8h16.5l-18.6,65.3h-16.5L763.3,971.5z"/>
										<path class="st11" d="M864.7,1008.2h-16l-4.8-13.1H819l-4.8,13.1h-16l26.4-65.3h13.8L864.7,1008.2z M831.5,963.1h-0.2
											l-7.3,19h14.7L831.5,963.1z"/>
										<path class="st11" d="M870.9,942.9l13.6,20.9l13.6-20.9h17.9l-24.1,36v29.3h-14.9v-29.3l-24.1-36H870.9z"/>
										<path class="st11" d="M933.3,1008.2h-14.9v-65.3h14.9l26,40.5h0.2v-40.5h14.9v65.3h-14.9l-26-40.5h-0.2V1008.2z"/>
										<path class="st11" d="M1021.2,955.9h-22.5v13h21.5V982h-21.5v13.1h22.5v13.1h-37.4v-65.3h37.4V955.9z"/>
										<path class="st11" d="M1046.3,950c0,8.6-6.3,15.7-12,20.5l-3.7-2.9c0,0,4.4-4.1,5.5-10.1c-3.5-0.9-6.2-3.7-6.2-7.4
											c0-4.6,3.6-8.3,8.2-8.3C1042.5,941.7,1046.3,945.4,1046.3,950z"/>
										<path class="st11" d="M1097.2,947.8l-6,11.9c0,0-6.5-4.5-13.2-4.5c-5.1,0-7.8,2.3-7.8,5.9c0,3.6,6.2,6.3,13.6,9.4
											c7.3,3.1,15.3,9.3,15.3,17.8c0,15.6-11.9,21.1-24.6,21.1c-15.3,0-24.5-8.6-24.5-8.6l7.4-12.5c0,0,8.7,7.4,16,7.4
											c3.2,0,9.4-0.3,9.4-6.4c0-4.8-7-6.9-14.7-10.8c-7.8-3.9-12.4-10-12.4-16.8c0-12.2,10.8-20,21.3-20
											C1088.8,941.7,1097.2,947.8,1097.2,947.8z"/>
									</g>
									<g class="st3">
										<path class="st11" d="M806.4,1071l-10.5,36.7h-16.6l-18.6-65.3h16.6l11.2,44.8h0.4l11.9-44.8h11.2l11.9,44.8h0.4
											l11.2-44.8H852l-18.6,65.3h-16.5L806.4,1071z"/>
										<path class="st11" d="M883,1041.1c18.1,0,32.9,14.7,32.9,33.8c0,19.1-14.1,33.9-32.9,33.9c-19.3,0-32.9-14.8-32.9-33.9
											C850.1,1055.9,865,1041.1,883,1041.1z M883,1094.4c11.9,0,16.8-9.7,16.8-19.5c0-9.7-5.2-19.5-16.8-19.5
											c-11.5,0-16.9,9.7-16.9,19.5C866.1,1084.7,870.8,1094.4,883,1094.4z"/>
										<path class="st11" d="M945.8,1042.3c12.1,0,21.3,6.6,21.3,19.4c0,9.8-5.4,16.4-13.4,18.9l22.5,27h-18.9l-20-25.8v25.8
											h-14.9v-65.3H945.8z M939.1,1071.3c5.6,0,12.4-0.4,12.4-8.6c0-8.2-6.7-8.6-12.4-8.6h-1.7v17.1H939.1z"/>
										<path class="st11" d="M994.1,1094.6h22.5v13.1h-37.4v-65.3h14.9V1094.6z"/>
										<path class="st11" d="M1042.8,1042.3c17.9,0,32.9,13.6,32.9,32.6c0,19.1-15,32.7-32.9,32.7h-18.9v-65.3H1042.8z
											 M1041.1,1094.3c11,0,18.5-8.4,18.6-19.3c0-10.9-7.5-19.4-18.6-19.4h-2.3v38.7H1041.1z"/>
									</g>
								</g>
							</g>
							<path id="Path-31" class="st12" d="M4669.4,4164.3c95.4-194.6,139.6-313.4,132.6-356.5c-10.5-64.6,148.8-661.7-54.4-1017.7"
								/>
							<path id="Path-32" class="st12" d="M4806.7,3806.5c-672.6-28.2-1070.4-148.9-1193.4-362.1c-123-213.2-123-426.5,0-639.8"/>
							<path class="st2" d="M3605.5,2763.7h18.5c3.6,0,6.6,3,6.6,6.6v58.1c0,3.6-3,6.6-6.6,6.6h-18.5c-3.6,0-6.6-3-6.6-6.6v-58.1
								C3598.9,2766.7,3601.8,2763.7,3605.5,2763.7z"/>
							<path class="st2" d="M4740.7,2763.7h18.5c3.6,0,6.6,3,6.6,6.6v58.1c0,3.6-3,6.6-6.6,6.6h-18.5c-3.6,0-6.6-3-6.6-6.6v-58.1
								C4734.1,2766.7,4737,2763.7,4740.7,2763.7z"/>
							<g id="Group-11" transform="translate(3531.760000, 2706.980000)">
								
									<image style="overflow:visible;enable-background:new    ;" width="1530" height="1707" xlink:href="5DBA9685D801FACF.png"  transform="matrix(0.3601 9.648407e-02 -9.648407e-02 0.3601 918.796 961.1325)">
								</image>
							</g>
						</g>
						<g transform="translate(2151.000000, 0.000000)">
							
								<g id="blockbuster-video" transform="translate(1385.592776, 902.213838) rotate(2.000000) translate(-1385.592776, -902.213838) translate(29.592776, 47.213838)">
								<path id="Path" class="st13" d="M3181,909.7c0.1,0,0.1,0,0.2,0.1l2.5-0.1l0-0.1L3181,909.7z M3186.6,904.8L3186.6,904.8
									l-11.6-0.9c0,0,0,0.1,0,0.1c0,0,0,0.1,0,0.1L3186.6,904.8z M3193.7,934.5l7.5-8.3l-7.4,6.8
									C3193.7,933.5,3193.7,934,3193.7,934.5z M3210.8,932.7l0.1-0.6l-0.6-1.3l-15.1,0.4l0.1,1.9L3210.8,932.7z M3206.2,973.6
									c0,0.1,0,0.2,0,0.3c0,0.3,0.1,0.5,0.1,0.6c0-0.1,0-0.2,0-0.4c0-0.2,0-0.5,0-0.8c0-0.1,0-0.1,0-0.2
									C3206.2,973.3,3206.2,973.5,3206.2,973.6z M3209.4,987.7c0.2,0.2,0.3,0.5,0.5,0.7l6.7-4.9c-0.6,0.1-1.2,0.2-1.8,0.3
									l-5.7,3.4C3209.2,987.4,3209.3,987.5,3209.4,987.7z M3216.9,996.9c0.1,0.1,0.1,0.1,0.2,0.2l10.8-11.5l-11.1,11.3
									C3216.8,996.8,3216.8,996.8,3216.9,996.9z M3224.5,1003.9C3224.6,1003.9,3224.6,1003.9,3224.5,1003.9c0,0-0.1-0.1-0.1-0.2
									l0,0C3224.5,1003.8,3224.5,1003.8,3224.5,1003.9z M3232,995.5l3-3.6l-3.2,3.6L3232,995.5z M3231.8,995.5l-7.4,8.2
									c-0.1-0.2-0.3-0.3-0.5-0.6c-1.4-1.9-2.4-4.5-2.3-7.9L3231.8,995.5z M3440.9,2075l-0.2-1.3l-0.9,0.4l0.1,1.5L3440.9,2075z
									 M3440,2075.6l0.3,4.3c-1.6,0.1-3.2-0.7-4-2L3440,2075.6z M3442.6,2074l0.3-0.2L3442.6,2074L3442.6,2074z M3445.5,2085.7
									c0-0.1-0.1-0.2-0.1-0.3c-0.4-2.4-0.4-2.5,0.2-6.5c-0.5,0.5-1,1-1.4,1.6l1.4,5.8C3445.6,2086.1,3445.5,2085.9,3445.5,2085.7z
									 M3438.2,2100.2c0,0.4,0.1,0.7,0.2,1.1l1.7,0.4l4.6-0.9l-3.1-1.3l-3.3,0.1C3438.2,2099.8,3438.2,2100,3438.2,2100.2z
									 M3444.7,2100.7l1.6-0.3l0.8,1.3L3444.7,2100.7z M3446.3,2100.4l0.9-0.2l-0.5-1l-1.1,0L3446.3,2100.4z M3445.6,2099.2
									l-4,0.2l-2.4-1c0.6-1.1,1.3-2.1,2.2-2.9c0.4-0.4,0.8-0.7,1.1-1c0.1,0,0.1-0.1,0.1-0.1L3445.6,2099.2z M3438.2,2100.6
									c0,0,0,0.1,0,0.1c0-0.1,0.1-0.2,0.1-0.3c0.2-0.7,0.6-1.4,0.9-2l-0.2-0.1c-0.3,0.7-0.5,1.4-0.8,2.1
									C3438.2,2100.5,3438.2,2100.5,3438.2,2100.6z M3448.1,2103.3l0.6,0.1l-0.6-1.3l-1-0.4L3448.1,2103.3z M3442.6,2094.4
									C3442.6,2094.4,3442.6,2094.4,3442.6,2094.4L3442.6,2094.4z M3413.9,2149.8c0,0.1,0,0.1,0,0.2
									C3413.9,2149.9,3413.9,2149.8,3413.9,2149.8c0.1-0.2,0.1-0.4,0.2-0.7L3413.9,2149.8z M3206.5,908.4c1.5,2.2,3.3,4.3,5.3,6.1
									l0.5,0.5c0.2,0,0.7,0.1,0.9,0.1l13.3,1.8l0.4,11.9c1.7,2.1,3,4.4,3.8,7c3.6,7.1,6,13.4,6.6,18.8c0.5,4.1,0.5,8.1,0,12.3
									c0,0.1,0,0.1,0,0.2c0,0.1,0,0.1,0,0.3c0,0.1,0.1,1.3,0.2,1.6c0.1,0.6,0.1,1.1,0.2,1.5c0.1,0.6,0.1,1.1,0.1,1.5
									c0,0.1,0,0.3,0,0.4c0,0.2,0,0.5,0.1,0.7c0.3,0.3,0.5,0.5,0.8,0.8l0.1,0.1l0.1,0.1c2,1.9,4,3.8,6.1,5.6l0.2,0.2l0.2,0.2
									c1.7,1.5,3,2.9,4.2,4.6c2.3,3.2,3.7,6.9,3.6,11.3l-0.3,11.7l-11.2,3.2c-0.2,0-0.3,0.1-0.4,0.1c-0.2,0.1-0.4,0.1-0.7,0.2
									c-0.5,0.1-1.1,0.3-1.7,0.4c-1.2,0.3-2.9,0.6-5.8,1.1c-5.6,1-15.6,2.8-40.7,7.2c6.7-1.2-75.3,13.2-112.2,19.7
									c-64.4,11.3-136.2,23.9-221.9,39l-1847.7,324.4l184,1038.9L3437,2048.5l0.7-0.1c10.2-0.8,20,4.1,25.4,12.8l0.5,0.8l0.2,0.4
									c0.2,0.2,0.4,0.5,0.8,0.9c0.1,0.1,0.3,0.3,0.5,0.5c0.3,0.3,0.4,0.5,0.6,0.6c0.6,0.7,1.1,1.2,1.6,1.8
									c0.2,0.2,0.5,0.5,0.7,0.8c0,0,0,0,0,0c-0.2-0.2,2.5,2.6,3,3.2c0.5,0.5,0.8,0.9,1.1,1.1c0.2,0.2,0.3,0.3,0.5,0.5
									c0.1,0.2,0.1,0.2,0.4,0.5c0.2,0.2,0.2,0.2,0.7,0.9c0.4,0.5,0.4,0.5,1.2,2c0.6,1.1,0.6,1.2,1.3,3.5l0,0
									c0.8,3.3,1,6.7,0.5,10.1l-0.9,6.4l-5.1,3.9c-0.3,0.3-0.6,0.5-0.9,0.7c0,2.7-0.3,5.4-0.8,8.1l-0.3,1.5l-0.3,0.6
									c-0.1,0.3-0.2,0.6-0.3,1c-1.7,4.8-4.7,7.8-8.9,10.4l-0.7,0.4l-0.7,0.3c-0.5,0.3-1.1,0.5-1.8,0.8c-0.2,0.1-1.1,0.5-1.3,0.6
									c-0.3,0.1-0.5,0.2-0.6,0.3c-0.1,0-0.1,0.1-0.2,0.1c-0.4,0.2-0.7,0.3-1,0.6c-2.1,1.4-5,4.7-8.2,9c-0.8,1.2-1,1.8-1.4,3.2l0,0
									c0.1,0.5,0.3,1.2,0.6,2.4c1.7,6.8,2.3,10.8,1.2,16.2c-0.4,3.1-1.5,5.7-3.1,8.4c0.2,0.7,0.4,1.2,0.6,1.9l5.6,17.1l-17.7,3.4
									c-5.1,1-9,1.7-16.4,3c-0.1,0-0.1,0-0.2,0c-3.4,0.6-4.7,0.8-6.6,1.2l-402.4,70.7L1404,2542.4
									c-183.1,32.2-297.1,52.2-359.1,63.1c-43.8,7.7-55.1,9.7-63.6,11.1c0,0,0,0,0,0c0,0,0,0,0,0l-15.6,2.7l-80.1-451l11.3-5
									c19.5-8.7,37.7-20.2,53.8-34.1c16.1-13.9,30.2-30,41.6-47.9c22.7-35.6,34.6-76.9,34.3-119.1c-0.1-44.1-13.8-89.4-38.6-125.4
									c-12.6-18.5-28-34.9-45.6-48.7c-17.3-13.5-36.5-24.2-57-31.9l0,0c-20.2-7.6-41.4-12-62.7-13.2l-12.5-0.7l-77.9-438.9
									l2430-426.6l0.8-0.1c6.8-0.5,11.5-0.6,16.7,0.1c7.1,0.9,13.6,3.1,19.8,7l4.4,2.7l1.9,4.8c0.9,2.1,1.2,4.2,1.2,6.3
									c0,0.8,0,1.5-0.1,2.6c0,0.5-0.3,2.8-0.3,2.9c0,0.3-0.1,0.7-0.1,1c-0.1,0.7-0.1,1.3-0.1,1.8l0,0.1l0,0.1
									C3206.5,906.9,3206.5,907.7,3206.5,908.4z"/>
								<path class="st14" d="M3440.8,2014.3c0.9,2.5,1.5,5.1,1.8,7.8l0.1,0.9l-0.8,33.2l-2252.3,396L1003,1399.1l2256.1-396.3
									l3.8,10.3c4.5,12.1,9.9,24.2,14.7,33.1l0.1,0.1c3.4,6.4,7.5,12.5,12.1,18.1l0.1,0.1c3,3.7,6.3,7.2,9.8,10.4
									c2.5,2.3,5.3,4.4,8.2,6.3l4.2,2.7l1.4,4.8c2.2,7.4,4.6,14.8,7.4,22.1c2.5,6.8,5.5,13.5,8.8,20c4.4,8.5,9.1,16.9,14.1,25
									l1.2,2l0.5,2.3c2,10.2,4.3,20.3,6.8,30.3c1.6,6.3,2.9,10.1,4.3,13.9l0,0.1c0.7,2.1,1.6,4.1,2.5,6c4.4,8.9,6,17.7,5.3,27.9
									c-0.2,4.1-0.8,7.8-2.3,13.1c-0.7,2.4-1.5,5-2.7,9c-0.1,0.3-0.1,0.3-0.2,0.7c0,0.2-1.1,3.4-1.4,4.3c-0.5,1.5-0.9,2.7-1.2,3.7
									l0,0.1l0,0.1c-0.8,2.3-1.3,4.8-1.7,7.2l0,0.2c0,0.2,0,0.4,0,0.6c0.5,0.9,1.1,2,1.3,2.5c1.9,3.5,3.2,6.4,4.2,9.6
									c0.6,1.8,1,3.6,1.2,5.3c0,0.1,0,0.3,0.1,0.5c0,0.2,0.1,0.9,0.1,1c0.1,0.4,0.1,0.8,0.2,1.2c0.6,4.7,0.5,8.7-0.5,14.3l0,0.2
									c-0.3,1.7-0.8,3.7-1.4,6.2c-0.1,0.3-0.2,0.7-0.3,1.1c-0.2,0.7-0.8,3.2-0.7,2.9c-0.3,1.1-0.4,1.8-0.6,2.5
									c-0.4,1.5-0.6,2.4-0.7,3.2c1.4,11.9,2.9,23.8,4.5,35.6c0.9,6.8,1.4,10,1.9,12.4l0,0.2c0.8,1.7,1.7,3.5,3,6
									c2.1,4,4.4,8,8.3,14c4.9,7.7,12,18.2,18.9,28l3.7,5.2l-1.8,6.1c-0.9,3-1.5,6-2,10.2c-0.6,4.6-1.1,10.5-1.3,15.5
									c-0.2,4.3-0.1,8.2,0.2,11.8c0.2,2.5,0.4,4.5,0.8,6.4c0.2,0.9,0.4,1.7,0.7,2.5c4.4,2.8,7.8,7.1,8.6,12.6
									c0,0.3,0.2,0.9,0.2,1.2c0.5,3,0.4,5.6-0.3,9.7c-0.2,1.4-0.6,3.1-1.1,5.5c-0.2,0.9-0.4,1.8-0.7,3.1c-0.1,0.3-0.2,0.8-0.4,1.6
									c-0.1,0.6-0.3,1.1-0.4,1.6l0,0.1c-1,4.2-1.7,7.9-2.3,10.9c-0.5,2.9-0.8,5.1-0.8,5.7l0,0.3l0,0.3c-0.1,4,0.2,6.2,1.3,8.6
									l1.8,4.2l-1.2,4.4c-1,3.9-2.1,7.6-3.7,12.7c-1.3,4.3-2.5,8-6.2,19.8c-2.1,6.7-4.5,14.2-7,22.1l7.5,29.3c0.7,1,1.3,2.1,2,3.2
									c7.3,11.4,8.2,23,4.2,36.2c1.7,25.7,3.3,52.3,4.1,69.7c0.7,14.5,1,22.6,1,29.2c0,3.7-0.1,5.6-0.2,7.1c0,0.2-0.1,0.7-0.1,0.9
									c0,0.5-0.1,1-0.2,1.5l-0.1,0.7l-0.2,0.7c-0.2,0.5-1.2,3.3-1.5,4.3c-0.7,2.1-1.3,4.4-2.5,9.4c-1.3,5.4-3.6,14.9-4.9,20.9
									c-0.3,1.5-0.6,2.7-0.8,3.5c0.3,0.3,0.6,0.8,1.5,1.8c0,0.1,0,0.1,0.1,0.1c1,1.2,1.7,2,2.3,2.8c1.6,2,2.8,4.1,3.8,6.4
									c2.7,6.4,2.6,13.2,0.5,20.3c-1.1,3.8-2.7,7.6-4.9,11.6c0.6,9.7,1.1,19.6,1.4,27.3c0.4,9.1,0.5,14.1,0.4,18.8
									c0,3.7-0.1,7.1-0.3,10.5c11.8,22.3,23.3,44.7,34.6,67.3C3436.5,2003.4,3439.2,2009.4,3440.8,2014.3z"/>
								<polygon class="st15" points="3440.7,2065 3430.4,2043.9 1200.9,2435.8 1019,1408.4 3251.8,1016.1 3238.8,996.3 
									993.5,1390.6 1183,2461.1 								"/>
							</g>
							<g class="st3">
								<path class="st15" d="M1411.4,1740.1l44.4,25.3l11.8,83.7l-41.1,52l-125.9,17.7l-43.9-312.4l125.9-17.7l46.5,33.5l11.6,82.4
									L1411.4,1740.1z M1336.8,1655.1l9.3,66.2l29.6-4.2l-9.3-66.2L1336.8,1655.1z M1354.4,1780.1l9.8,69.7l29.6-4.2l-9.8-69.7
									L1354.4,1780.1z"/>
								<path class="st15" d="M1574.2,1820.3l64.9-9.1l8.3,58.8l-136.8,19.2l-43.9-312.4l71.9-10.1L1574.2,1820.3z"/>
								<path class="st15" d="M1834,1797.6l-39.8,51.8l-80.2,11.3l-53.9-38.6l-31.2-221.8l41.1-52l77.1-10.8l55.6,38.4L1834,1797.6z
									 M1702.8,1603.6l27.4,194.8l30.1-4.2l-27.4-194.8L1702.8,1603.6z"/>
								<path class="st15" d="M2019,1621.4l-70.2,9.9l-8.6-61l-30.9,4.3l27.4,194.8l30.9-4.3l-10.5-74.5l70.2-9.9l12.4,88l-41.1,52
									l-74.1,10.4l-57.8-38.1l-31.2-221.8l40.7-51.9l78.4-11l53.9,38.6L2019,1621.4z"/>
								<path class="st15" d="M2123.2,1620.5l0.9-0.1l28.3-139.9l73.6-10.3l-41.8,154.7l95.3,156.3l-78,11l-71-126l-0.9,0.1
									l18.7,133.3l-71.9,10.1l-43.9-312.4l71.9-10.1L2123.2,1620.5z"/>
								<path class="st15" d="M2437.2,1562.6l-70.2,9.9l-8.6-61l-30.9,4.3l27.4,194.8l30.9-4.3l-10.5-74.5l70.2-9.9l12.4,88
									l-41.1,52l-74.1,10.4l-57.8-38.1l-31.2-221.8l40.7-51.9l78.4-11l53.9,38.6L2437.2,1562.6z"/>
								<path class="st15" d="M2668.2,1726.6l-71.9,10.1l-17.8-126.8l-30.1,4.2l17.8,126.8l-71.9,10.1l-43.9-312.4l71.9-10.1
									l17.8,126.8l30.1-4.2l-17.8-126.8l71.9-10.1L2668.2,1726.6z"/>
								<path class="st15" d="M2874.8,1697.5l-70.6,9.9l-14.2-56.7l-41.8,5.9l2,58.4l-70.2,9.9l0.1-318.6l104.1-14.6L2874.8,1697.5z
									 M2744.7,1464.8l-7,1l7.4,131.4l31.4-4.4L2744.7,1464.8z"/>
								<path class="st15" d="M2961,1685.4l-71.9,10.1l-43.9-312.4l71.9-10.1L2961,1685.4z"/>
								<path class="st15" d="M3174.1,1655.5l-59.7,8.4l-68-145.5l-0.9,0.1l21.4,152.1l-67.5,9.5l-43.9-312.4l60.1-8.5l67.3,143.8
									l0.9-0.1l-21.1-150.3l67.5-9.5L3174.1,1655.5z"/>
							</g>
							<g class="st3">
								<path class="st15" d="M2410.2,2039.8l-32.3,4.5l-0.1,73l-28.2,4l-0.2-73l-26.9,3.8l-0.1,73l-27.9,3.9l-0.2-73l-31.7,4.5
									l-4.2-30.1l36.1-5.1l0.2-28.8l-31.4,4.4l-4.2-30.1l35.2-4.9l0.1-68.5l27.6-3.9l0.3,68.5l27.3-3.8l-0.3-68.5l28.5-4
									l-0.1,68.5l28.5-4l4.2,30.1l-32.6,4.6l0.2,28.7l28.2-4L2410.2,2039.8z M2322.2,1992.7l0.2,28.7l26.9-3.8l0.2-28.8
									L2322.2,1992.7z"/>
								<path class="st15" d="M2539.2,1976.1l32.3,18.4l8.6,60.8l-29.9,37.8l-91.6,12.9l-31.9-227.2l91.6-12.9l33.8,24.3l8.4,59.9
									L2539.2,1976.1z M2485,1914.2l6.8,48.2l21.5-3l-6.8-48.2L2485,1914.2z M2497.8,2005.2l7.1,50.7l21.5-3l-7.1-50.7
									L2497.8,2005.2z"/>
								<path class="st15" d="M2732.8,2033.9l-29.3,37.7l-58.6,8.2l-39.5-28.1l-27.3-194.3l52.3-7.3l25.9,184.4l22.8-3.2
									l-25.9-184.4l52.3-7.3L2732.8,2033.9z"/>
								<path class="st15" d="M2817,2055.6l-52.3,7.3l-31.9-227.2l52.3-7.3L2817,2055.6z"/>
								<path class="st15" d="M2968,2000.8l-29.3,37.7l-92.5,13l-31.9-227.2l90.6-12.7l40.4,27.9L2968,2000.8z M2872.5,1859.8
									l19.9,141.7l21.9-3.1l-19.9-141.7L2872.5,1859.8z"/>
								<path class="st15" d="M3044.2,1980.1l47.2-6.6l6,42.8l-99.5,14L2966,1803l52.3-7.3L3044.2,1980.1z"/>
							</g>
						</g>
						<g id="GitcoinLogo.min-2" transform="translate(2623.000000, 4630.000000)">
							<g id="GitcoinLogo.min">
								<g id="Logotype" transform="translate(396.000000, 223.000000)">
									<path id="Shape" class="st11" d="M811.5,1025.6h68v5.4c0,12.3-1.5,23.2-4.4,32.7c-3,9.1-7.9,17.5-14.4,24.7
										c-15.3,17.1-34.7,25.7-58.3,25.7c-23,0-42.7-8.3-59.1-24.9c-16.4-16.6-24.6-36.6-24.6-59.9c0-23.8,8.3-44,25-60.6
										c16.7-16.6,37-25,61-25c12.4-0.1,24.7,2.6,36,7.8c10.7,5.2,21.1,13.7,31.4,25.4l-17.7,16.9c-13.5-17.9-30-26.9-49.4-26.9
										c-17.4,0-32,6-43.8,17.9c-11.8,11.8-17.7,26.5-17.7,44.2c0,18.3,6.6,33.3,19.7,45.2c12.3,11,25.6,16.5,40,16.5
										c12.1,0,23.8-4.3,32.9-12.3c9.7-8.3,15.2-18.2,16.3-29.7h-41V1025.6z"/>
									<polygon class="st11" points="967.4,946.9 992.3,946.9 992.3,1111 967.4,1111 									"/>
									<path class="st11" d="M1133.9,970.2V1111h-24.8V970.2h-37.8v-23.3h100.4v23.3H1133.9z M1366.3,955.7V985
										c-14.4-12-29.2-17.9-44.6-17.9c-16.9,0-31.1,6-42.7,18.2c-11.6,12-17.5,26.8-17.5,44.2c0,17.2,5.8,31.7,17.5,43.6
										s25.9,17.7,42.8,17.7c8.7,0,16.2-1.4,22.3-4.2c3.7-1.6,7.3-3.5,10.6-5.7c4-2.7,7.9-5.6,11.6-8.7v29.9
										c-13.6,7.9-29,12-44.8,12.1c-23.5,0-43.6-8.2-60.2-24.5c-16.5-16.5-24.8-36.4-24.8-59.7c0-20.9,6.9-39.5,20.8-55.9
										c17.1-20.1,39.1-30.1,66.2-30.1C1338.3,943.7,1352.5,947.7,1366.3,955.7z"/>
									<path class="st16" d="M1485,1002.3c0,18.1,6.1,33,18.3,44.7c12.1,11.7,26.2,17.5,42.1,17.5c17.3,0,31.8-5.9,43.7-17.8
										c11.9-12,17.8-26.7,17.8-43.9c0-17.5-5.9-32.1-17.6-44c-11.6-11.9-26.1-17.8-43.3-17.8c-17.1,0-31.6,5.9-43.4,17.8
										C1490.9,970.6,1485,985.1,1485,1002.3 M1460,1002.1c0-23.1,8.5-42.9,25.5-59.5c16.9-16.6,37.2-24.9,61-24.9
										c23.4,0,43.6,8.4,60.3,25.1c16.8,16.7,25.3,36.8,25.3,60.3c0,23.6-8.4,43.6-25.3,60c-17,16.5-37.5,24.8-61.5,24.8
										c-21.2,0-40.3-7.3-57.2-22C1469.3,1049.6,1460,1028.4,1460,1002.1"/>
									<polygon class="st11" points="1705.1,946.9 1729.9,946.9 1729.9,1111 1705.1,1111 									"/>
									<polygon class="st11" points="1826.2,1111 1826.2,935.8 1946.2,1060.9 1946.2,946.9 1971.1,946.9 1971.1,1121 
										1851.1,996.1 1851.1,1111 									"/>
								</g>
								<g id="Helmet">
									<polygon class="st11" points="939,1123.7 965.8,1176.3 945.5,1262.4 897.1,1223 905.6,1159.8 									"/>
									<path class="st4" d="M867.6,1106c-5.6,0-10.1-4.5-10.1-10.1v-79.3c0.2-5.4,4.7-9.6,10.1-9.6c5.4,0,9.8,4.2,10.1,9.6v79.3
										C877.7,1101.5,873.1,1106,867.6,1106"/>
									<path class="st4" d="M883.8,1106h-31.2c-5.4-0.2-9.6-4.7-9.6-10.1c0-5.4,4.3-9.8,9.6-10.1h31.2c5.4,0.2,9.6,4.7,9.6,10.1
										C893.4,1101.4,889.1,1105.8,883.8,1106"/>
									<path class="st11" d="M939,1123.7l33.1-31.2c-44.8-44.7-114.1-53.9-169-22.2c-54.9,31.6-81.6,96.2-65.2,157.3
										c16.4,61.1,71.9,103.6,135.3,103.6c28.8,0,54.2,10.5,76.4-4.4l27.7,3.8l-0.8-44.9l-79.4-62.7l17.1-80.3L939,1123.7"/>
									<path class="st4" d="M873.1,1344.9c-84.8,0-153.8-68.9-153.8-153.6c0-84.6,69-153.6,153.8-153.6c40.8-0.1,80,16.1,108.7,45
										l10,10l-43.4,40.9l-18.9-20l22.2-20.9c-22.3-17.9-50.1-27.6-78.7-27.5c-69.7,0.1-126.2,56.5-126.3,126.1
										c0.1,69.6,56.6,126,126.3,126.1"/>
									<path class="st16" d="M950.3,1266.1l-19.7-19.1c14.5-14.9,22.6-34.8,22.5-55.6c0-21.8-8.6-42.1-24.3-57.3l-10.3-10l11-10.4
										l9.4,10l9-9.2c20.9,20.1,32.7,47.9,32.6,77C980.6,1219.2,969.8,1246,950.3,1266.1"/>
									<path class="st11" d="M841.5,1191.4c0-17.4,14.2-31.6,31.6-31.6c17.5,0,31.6,14.1,31.6,31.6s-14.2,31.6-31.6,31.6
										C855.6,1223,841.5,1208.8,841.5,1191.4"/>
									<path class="st4" d="M873.1,1173.5c-9.6,0.3-17.3,8.2-17.3,17.9s7.7,17.5,17.3,17.9c9.6-0.3,17.3-8.2,17.3-17.9
										S882.8,1173.8,873.1,1173.5 M873.1,1236.7c-25,0-45.3-20.3-45.4-45.3c0-25,20.3-45.3,45.4-45.3c25,0,45.3,20.3,45.4,45.3
										C918.4,1216.4,898.2,1236.6,873.1,1236.7 M972.1,1092.5l-79.9,73.7"/>
									<polygon class="st4" points="962.8,1082.4 981.5,1102.6 901.5,1176.3 882.9,1156.2 									"/>
									<polyline class="st11" points="888,1219.2 945.5,1262.4 976.5,1285.7 976.5,1344.9 914.2,1341.9 									"/>
									<polygon class="st4" points="990.2,1344.9 870.6,1344.9 870.6,1317.5 962.7,1317.5 962.7,1292.6 879.8,1230.2 
										896.3,1208.3 990.2,1278.9 									"/>
									<path class="st16" d="M1000,1024.2l11-11l11,11l-11,11L1000,1024.2z M952.6,971.2l5.3-5.3l5.3,5.3l-5.3,5.2L952.6,971.2z"
										/>
									<path class="st16" d="M1017.9,925c0-4.4-3.6-7.9-7.9-7.9s-7.9,3.5-7.9,7.9s3.6,7.9,7.9,7.9S1017.9,929.4,1017.9,925"/>
									<path class="st4" d="M819.9,1133.7c-5.6,0-10.1-4.5-10.1-10.1v-107c0.2-5.4,4.7-9.6,10.1-9.6c5.4,0,9.8,4.2,10.1,9.6v107
										C829.9,1129.2,825.4,1133.7,819.9,1133.7"/>
								</g>
							</g>
						</g>
						<g id="ethereal" transform="translate(2880.000000, 5264.000000)">
							<path class="st11" d="M1014.1,917.1l-147.8,29.6l-147.8-29.6l29.7,147.5l-29.7,147.5l147.8-29.6l147.8,29.6l-29.7-147.5
								L1014.1,917.1z M979.4,1039.6l-13.6-67.4l34-33.9L979.4,1039.6z M891.4,951.7l101.5-20.4l-34,33.9L891.4,951.7L891.4,951.7z
								 M753.4,1089.5l13.6,67.4l-34,33.9L753.4,1089.5L753.4,1089.5z M739.9,1197.8l34-33.9l67.5,13.6L739.9,1197.8z M776.6,1154.3
								L733,938.3l85.5,85.4l14.8,73.2l73.3,14.8l86.3,86.1L776.6,1154.3z M829.3,1027.6l61,12.2l12.3,60.9l-61-12.2L829.3,1027.6z
								 M913.5,1104.7l-14.8-73.2l-73.3-14.8l-85.5-85.4l216.3,43.5l43.6,215.9L913.5,1104.7z M1110.2,1011.3
								c0-30.8,23.3-53.1,52.3-53.1s54.8,17.7,50.8,57.8h-92.8c2.1,24.2,20.7,38.1,42,38.1c13.6,0,29.4-5.5,37.1-15.6l7.2,5.9
								c-10,13.1-27.9,19.8-44.3,19.8C1133.5,1064.3,1110.2,1044.1,1110.2,1011.3z M1204.1,1007.2c-0.1-25.4-16.8-39.5-41.7-39.5
								c-21.3,0-39.6,14.3-42,39.5H1204.1L1204.1,1007.2z M1259,928.9v29.4h35v8.6h-35v64.3c0,14,3,23.7,18.9,23.7
								c5.5-0.3,10.9-1.6,15.8-4.1l3.5,8.3c-6.5,3.1-13,5.2-19.4,5.2c-21.9,0-29-13-29-33v-64.3H1227v-8.6h21.9v-28.2L1259,928.9
								L1259,928.9z M1327.4,917.1V979c8.3-14.8,22.8-20.4,37.1-20.6c28.8,0,43.1,18.6,43.1,45.4v60.5h-10v-60.5
								c0-21.2-10-35.5-33.1-35.5c-21.7,0-36.6,16.7-36.6,38.1v57.8h-10.2V917.1H1327.4L1327.4,917.1z M1428.4,1011.3
								c0-30.8,23.3-53.1,52.3-53.1c29,0,54.8,17.7,50.8,57.8h-92.8c2.1,24.2,20.7,38.1,42,38.1c13.6,0,29.4-5.5,37.1-15.6l7.2,5.9
								c-10,13.1-27.9,19.8-44.5,19.8C1451.8,1064.3,1428.4,1044.1,1428.4,1011.3L1428.4,1011.3z M1522.4,1007.2
								c-0.1-25.4-16.8-39.5-41.7-39.5c-21.3,0-39.6,14.3-42,39.5H1522.4L1522.4,1007.2z M1567.8,958.2l0.4,19.9
								c6.5-14,21-19.3,34.1-19.3c7.8-0.1,15.5,1.9,22.2,6l-4.6,8.3c-5.3-3.2-11.4-4.9-17.6-4.7c-18.9,0.1-34.1,15.5-34,34.4v61.5
								h-10.2V958.2H1567.8z M1633.9,1011.3c0-30.8,23.3-53.1,52.3-53.1s54.8,17.7,50.8,57.8h-92.8c2.2,24.3,20.8,38.2,42.1,38.2
								c13.6,0,29.4-5.5,37.1-15.6l7.2,5.9c-10,13-28.1,19.8-44.5,19.8C1657.3,1064.3,1633.9,1044.1,1633.9,1011.3z M1728.1,1007.2
								c-0.3-25.4-17-39.5-41.7-39.5c-21.3,0-39.6,14.3-42,39.5H1728.1L1728.1,1007.2z M1862.7,958.2v105.9h-10.2v-23.6
								c-8.9,14.8-24.8,23.7-42.1,23.5c-28.8,0-52.3-21.7-52.3-53.1c0-31.4,23.5-52.5,52.3-52.5c16.7,0,33.5,7.7,42.1,23.7v-23.9
								H1862.7L1862.7,958.2z M1768.3,1011c0,25.8,18.8,43.1,42.1,43.1c57.3,0,57.3-86,0-86C1787,968.3,1768.3,985.2,1768.3,1011z
								 M1900.6,917.1v147.2h-10.2V917.1H1900.6z M1145.2,1212.1c-14.9,0-25.6-3.5-35-13.1l10-9.9c7.2,7.2,15.2,9.4,25.3,9.4
								c13,0,20.4-5.6,20.4-15.2c0-4.3-1.3-8-3.8-10.3c-2.5-2.4-5-3.4-10.8-4.1l-11.7-1.6c-8.1-1.2-14.5-3.8-18.8-8
								c-4.9-4.6-7.2-10.8-7.2-18.9c0-17.3,12.6-29.1,33.1-29.1c13.1,0,22.3,3.4,30.7,11.2l-9.6,9.4c-6.1-5.8-13.1-7.7-21.6-7.7
								c-11.7,0-18,6.6-18,15.3c-0.1,3.4,1.2,6.8,3.7,9.1c3.3,2.5,7.1,4.1,11.1,4.6l11.2,1.6c9.2,1.3,14.3,3.5,18.5,7.4
								c5.5,4.7,8.1,11.8,8.1,20.2C1180.8,1201.3,1165.9,1212.1,1145.2,1212.1L1145.2,1212.1z M1290.4,1212.1
								c-20.1,0-35.5-13.7-35.5-34.1v-66.4h15.1v65.6c0,13.1,8.1,21.4,20.4,21.4c12.3,0,20.7-8.1,20.7-21.4v-65.6h15.1v66.4
								C1326,1198.4,1310.7,1212.1,1290.4,1212.1z M1478.4,1212.1v-67.7l-22.8,48.2h-11.1l-23.3-48.2v67.7h-15.1v-100.4h15.1
								l29,61.5l28.4-61.5h15.1v100.4H1478.4L1478.4,1212.1z M1646.9,1212.1v-67.7l-22.8,48.2h-11.1l-23.3-48.2v67.7h-15.1v-100.4
								h15.1l29,61.5l28.4-61.5h15.1v100.4H1646.9L1646.9,1212.1z M1743.4,1212.1v-100.4h15.1v100.4H1743.4z M1873.3,1125.1v87
								h-15.1v-87h-27.3v-13.4h69.7v13.4H1873.3z"/>
						</g>
					</g>
				</g>
			</g>
			<g id="Group-17" transform="translate(2060.000000, 936.000000)">
				<circle class="st17" cx="2929.6" cy="3091.1" r="57"/>
				<circle class="st17" cx="2054.6" cy="1715.1" r="57"/>
				<circle class="st17" cx="775.6" cy="1267.1" r="57"/>
				<circle class="st17" cx="832.6" cy="3786.1" r="57"/>
				<circle class="st17" cx="3486.6" cy="2088.1" r="57"/>
				<g id="Group-14" transform="translate(232.352947, 1030.048414)">
					<polygon id="Path-33" class="st2" points="878.4,924 771.4,1188.9 947.3,1088.4 					"/>
					<polygon class="st18" points="918.4,934 811.4,1198.9 987.3,1098.4 					"/>
				</g>
				
					<g transform="translate(476.848207, 2080.848207) rotate(-53.000000) translate(-476.848207, -2080.848207) translate(369.848207, 1973.848207)">
					<polygon class="st2" points="-178.7,1131.1 -259.9,1332.1 -126.4,1255.8 					"/>
					<polygon class="st18" points="-148.3,1138.7 -229.5,1339.7 -96,1263.4 					"/>
				</g>
				
					<g transform="translate(2912.000000, 801.000000) scale(-1, 1) translate(-2912.000000, -801.000000) translate(2793.000000, 671.000000)">
					<polygon class="st2" points="-582.4,922.5 -668.9,1167.7 -526.7,1074.6 					"/>
					<polygon class="st18" points="-550.1,931.8 -636.6,1176.9 -494.4,1083.9 					"/>
				</g>
				
					<g transform="translate(2372.765981, 1087.563009) rotate(-277.000000) translate(-2372.765981, -1087.563009) translate(2278.765981, 993.563009)">
					<polygon class="st2" points="1104.3,-596.9 1033,-420.3 1150.3,-487.3 					"/>
					<polygon class="st18" points="1131,-590.2 1059.7,-413.6 1176.9,-480.7 					"/>
				</g>
				
					<g transform="translate(2849.500000, 3049.500000) rotate(-154.000000) translate(-2849.500000, -3049.500000) translate(2793.000000, 2993.000000)">
					<polygon class="st2" points="-983.9,-506.4 -1026.8,-400.3 -956.3,-440.6 					"/>
					<polygon class="st18" points="-967.9,-502.4 -1010.7,-396.3 -940.3,-436.6 					"/>
				</g>
				<g transform="translate(232.352947, 1030.048414)">
					<polygon class="st2" points="878.4,924 771.4,1188.9 947.3,1088.4 					"/>
					<polygon class="st18" points="918.4,934 811.4,1198.9 987.3,1098.4 					"/>
				</g>
				<g id="Group-16" transform="translate(710.000000, 886.000000)">
					<polyline id="Path-34" class="st19" points="719.1,952.6 767.7,971.6 784,917.3 822.5,928.2 					"/>
					<polyline class="st19" points="739.2,987.8 787.7,1006.8 804.1,952.5 842.6,963.4 					"/>
					<polyline class="st19" points="739.2,987.8 787.7,1006.8 804.1,952.5 842.6,963.4 					"/>
				</g>
				
					<g transform="translate(447.000000, 1628.000000) rotate(26.000000) translate(-447.000000, -1628.000000) translate(385.000000, 1583.000000)">
					<polyline class="st19" points="1048.4,544.8 1096.9,563.8 1113.3,509.5 1151.8,520.3 					"/>
					<polyline class="st19" points="1068.4,579.9 1117,599 1133.4,544.7 1171.9,555.5 					"/>
					<polyline class="st19" points="1068.4,579.9 1117,599 1133.4,544.7 1171.9,555.5 					"/>
				</g>
				
					<g transform="translate(2466.000000, 1440.000000) scale(-1, 1) translate(-2466.000000, -1440.000000) translate(2404.000000, 1395.000000)">
					<polyline class="st19" points="-718.2,952.6 -669.6,971.6 -653.3,917.3 -614.8,928.2 					"/>
					<polyline class="st19" points="-698.1,987.8 -649.5,1006.8 -633.2,952.5 -594.7,963.4 					"/>
				</g>
				
					<g transform="translate(2342.000000, 656.000000) scale(-1, -1) translate(-2342.000000, -656.000000) translate(2280.000000, 611.000000)">
					<polyline class="st19" points="-718.2,-881.6 -669.6,-862.5 -653.3,-916.8 -614.8,-906 					"/>
					<polyline class="st19" points="-698.1,-846.4 -649.5,-827.3 -633.2,-881.6 -594.7,-870.8 					"/>
				</g>
				
					<g transform="translate(2964.425349, 71.017159) scale(-1, -1) rotate(-32.000000) translate(-2964.425349, -71.017159) translate(2902.425349, 26.017159)">
					<polyline class="st19" points="-123,-1123 -74.4,-1104 -58.1,-1158.3 -19.6,-1147.5 					"/>
					<polyline class="st19" points="-102.9,-1087.8 -54.4,-1068.8 -38,-1123.1 0.5,-1112.3 					"/>
				</g>
				
					<g transform="translate(103.848276, 896.803232) rotate(47.000000) translate(-103.848276, -896.803232) translate(18.348276, 835.303232)">
					<polyline class="st19" points="1160.8,148.6 1228,174.9 1250.6,99.9 1303.8,114.8 					"/>
					<polyline class="st19" points="1188.8,196.6 1256,222.9 1278.6,147.9 1331.8,162.8 					"/>
				</g>
				
					<g transform="translate(1797.000000, 803.000000) scale(1, -1) translate(-1797.000000, -803.000000) translate(1735.000000, 758.000000)">
					<polyline class="st19" points="719.1,-881.6 767.7,-862.5 784,-916.8 822.5,-906 					"/>
					<polyline class="st19" points="739.2,-846.4 787.7,-827.3 804.1,-881.6 842.6,-870.8 					"/>
				</g>
			</g>
			<g class="st3">
				<path class="st11" d="M3636,5320.9c-3.7-2-6.9-4.8-9.4-8.4l-4,9.6h-7.4v-106.4h13.1v1.1c-0.6,0.6-1,1.3-1.2,2.1
					c-0.2,0.7-0.2,2-0.2,3.8v37.4c2.3-3.9,5.5-7.1,9.5-9.4c4-2.3,8.1-3.5,12.2-3.5c9.2,0,16.5,3.2,21.9,9.6s8.2,15.7,8.2,28
					c0,8.3-1.4,15.4-4.3,21.4c-2.9,5.9-6.7,10.3-11.4,13.3c-4.7,2.9-9.7,4.4-14.9,4.4C3643.8,5323.8,3639.8,5322.8,3636,5320.9z
					 M3661.2,5306.8c3.8-4.5,5.8-11.7,5.8-21.4c0-9.4-1.8-16.5-5.4-21.2c-3.6-4.7-8.4-7.1-14.5-7.1c-6,0-10.8,2.7-14.6,8
					c-3.7,5.3-5.6,12.2-5.6,20.6c0,18.6,6.6,27.8,19.8,27.8C3652.5,5313.6,3657.3,5311.3,3661.2,5306.8z"/>
				<path class="st11" d="M3758.5,5255.5c5.5,5.4,8.2,14.7,8.2,27.7v38.9h-12.5v-11.2c-4.5,8.6-12.8,13-25,13
					c-8.1,0-14.5-1.8-19-5.5c-4.6-3.7-6.9-8.6-6.9-14.6c0-5.1,1.7-9.6,5-13.4c3.3-3.8,7.8-6.8,13.4-8.9c5.6-2.1,11.8-3.1,18.5-3.1
					c6.1,0,11.6,0.3,16.5,1c-0.6-8.2-2.8-14-6.5-17.4c-3.7-3.4-9.1-5-16.4-5c-3.6,0-7.1,0.7-10.5,2.1c-3.4,1.4-6.4,3.4-9.2,6.1
					l-5.6-7.4c6.8-6.8,15.5-10.2,26.1-10.2C3745,5247.4,3753,5250.1,3758.5,5255.5z M3749.2,5308.1c4.6-4.6,7.1-11.3,7.5-20.1
					c-4.8-0.7-10-1.1-15.5-1.1c-8.1,0-14.5,1.3-19.2,4c-4.7,2.7-7,6.7-7,12.2c0,8,5.2,12,15.5,12
					C3738.3,5315,3744.6,5312.7,3749.2,5308.1z"/>
				<path class="st11" d="M3850.8,5304.5l6.7,7.8c-7.1,7.7-15.9,11.5-26.4,11.5c-7,0-13.3-1.7-18.9-5c-5.5-3.3-9.9-7.9-13-13.7
					c-3.1-5.8-4.7-12.3-4.7-19.6c0-7.3,1.6-13.8,4.7-19.5c3.1-5.8,7.5-10.3,13-13.6c5.5-3.3,11.8-5,18.7-5c5.9,0,11.2,1.2,16,3.6
					c4.8,2.4,8.7,5.7,11.7,10l-7.2,7l-0.2,0.2c-3.1-4.1-6.3-6.9-9.5-8.6c-3.3-1.7-7.3-2.5-12.1-2.5c-4.2,0-8,1.1-11.6,3.4
					c-3.6,2.3-6.4,5.5-8.6,9.7c-2.1,4.2-3.2,9-3.2,14.4s1.1,10.3,3.3,14.7c2.2,4.4,5.2,7.8,9.1,10.2c3.9,2.5,8.2,3.7,13,3.7
					C3839.1,5313.4,3845.4,5310.4,3850.8,5304.5z M3850.9,5268.6l-0.6,0.6l-0.8-0.8C3849.5,5267.8,3850,5267.9,3850.9,5268.6z
					 M3851.6,5269.1c-0.3-0.2-0.5-0.4-0.7-0.5l0.3-0.3C3851.8,5269.1,3851.9,5269.3,3851.6,5269.1z"/>
				<path class="st11" d="M3907.2,5285.4l-9.6,9v27.7H3886v-106.4h13.1v1.1c-0.6,0.6-1,1.3-1.2,2.1c-0.2,0.7-0.2,2-0.2,3.8v59.8
					l36.6-33.9c2.7,0.5,5.5,0.8,8.5,0.8h4.2l-30.7,29l35.8,43.7l-14.9,0.6L3907.2,5285.4z"/>
				<path class="st11" d="M4126.3,5315.4c-7,5.2-14.8,7.8-23.2,7.8c-8.1,0-13.8-2.5-17.2-7.4c-3.4-4.9-5-12.9-5-24
					c0-1.8,0.1-5,0.3-9.4l1.4-24h-16.2v-9.4h16.8l1.1-19.5l12.8-2.1l1.6-0.2l0.2,1c-0.7,1.1-1.3,2-1.7,2.7c-0.4,0.7-0.6,1.9-0.7,3.5
					l-1.8,14.6h24.3v9.4h-25l-1.4,24.8c-0.2,4.3-0.3,7.1-0.3,8.5c0,8.5,1,14.3,3,17.4c2,3,5.1,4.6,9.5,4.6c3.2,0,6.1-0.6,8.8-1.8
					c2.7-1.2,5.7-3,9.1-5.6L4126.3,5315.4z"/>
				<path class="st11" d="M4167.7,5318.6c-5.1-3.2-9.1-7.7-12-13.4c-2.9-5.8-4.3-12.3-4.3-19.7c0-7.4,1.4-13.9,4.3-19.7
					c2.9-5.8,6.9-10.3,12-13.5c5.1-3.3,10.9-4.9,17.4-4.9c6.5,0,12.3,1.6,17.4,4.9c5.1,3.3,9.1,7.8,12,13.5
					c2.9,5.8,4.3,12.3,4.3,19.7c0,7.4-1.4,13.9-4.3,19.7c-2.9,5.8-6.9,10.2-12,13.4c-5.1,3.2-10.9,4.8-17.4,4.8
					C4178.6,5323.4,4172.8,5321.8,4167.7,5318.6z M4196.3,5310.1c3.3-2.5,5.8-5.8,7.7-10.2c1.9-4.3,2.8-9.2,2.8-14.6
					c0-8.3-2-15.1-6.1-20.4c-4.1-5.3-9.2-7.9-15.5-7.9c-6.3,0-11.5,2.6-15.5,7.9c-4.1,5.3-6.1,12.1-6.1,20.4
					c0,5.4,0.9,10.3,2.8,14.6c1.9,4.3,4.4,7.7,7.7,10.2c3.3,2.5,7,3.7,11.1,3.7S4193,5312.5,4196.3,5310.1z"/>
				<path class="st11" d="M4396,5315.4c-7,5.2-14.8,7.8-23.2,7.8c-8.1,0-13.8-2.5-17.2-7.4c-3.4-4.9-5-12.9-5-24
					c0-1.8,0.1-5,0.3-9.4l1.4-24h-16.2v-9.4h16.8l1.1-19.5l12.8-2.1l1.6-0.2l0.2,1c-0.7,1.1-1.3,2-1.7,2.7c-0.4,0.7-0.6,1.9-0.7,3.5
					l-1.8,14.6h24.3v9.4h-25l-1.4,24.8c-0.2,4.3-0.3,7.1-0.3,8.5c0,8.5,1,14.3,3,17.4c2,3,5.1,4.6,9.5,4.6c3.2,0,6.1-0.6,8.8-1.8
					c2.7-1.2,5.7-3,9.1-5.6L4396,5315.4z"/>
				<path class="st11" d="M4426.6,5215.7h12.6v1.1c-0.6,0.6-1,1.3-1.2,2.1c-0.2,0.7-0.2,2-0.2,3.8v39.2c2.9-4.5,6.5-8.1,10.8-10.7
					c4.3-2.7,8.7-4,13.2-4c6.9,0,12.4,2.5,16.3,7.4c3.9,4.9,5.9,12.6,5.9,23.2v44.3h-11.2v-44c0-7.3-1.2-12.5-3.7-15.8
					c-2.5-3.3-5.7-5-9.8-5c-3.4,0-6.8,0.9-10.1,2.8c-3.3,1.9-6.1,4.5-8.2,8c-2.2,3.5-3.3,7.4-3.3,11.9v42.1h-11.2V5215.7z"/>
				<path class="st11" d="M4522.4,5313.8c-6.5-6.6-9.7-15.9-9.7-28c0-8,1.5-14.9,4.5-20.7c3-5.8,7-10.2,12.1-13.3
					c5.1-3,10.7-4.6,17-4.6c8.9,0,16,2.9,21.5,8.8c5.5,5.9,8.2,14.5,8.2,25.9c0,1.2-0.1,2.9-0.3,5.3h-52c0.4,9,2.9,15.7,7.5,20.3
					c4.6,4.6,10.4,6.9,17.4,6.9c7.7,0,14-2.7,18.9-8.2l6.4,6.2c-6.2,7.5-14.7,11.2-25.6,11.2
					C4537.5,5323.7,4528.8,5320.4,4522.4,5313.8z M4564.4,5278.2c0-6.8-1.7-12.2-5.2-16.2c-3.5-4-8-6-13.7-6c-5.3,0-10,1.9-13.9,5.6
					c-3.9,3.7-6.4,9.3-7.4,16.6H4564.4z"/>
				<path class="st11" d="M4740.4,5227.1c4.6,3.6,8.2,8.6,10.7,15c2.5,6.4,3.8,13.7,3.8,21.9c0,19.6-2.9,34.4-8.8,44.4
					c-5.9,10-14.2,15.1-25,15.3c-9.6,0-17.5-3-23.8-9.1l6.9-7.8l0.2-0.2l0.2,0.2c2.2,2.7,4.5,4.6,6.9,5.7c2.3,1.1,5.3,1.7,8.8,1.7
					c7.3,0,12.9-3.5,16.8-10.6c3.9-7,6.3-15.8,7-26.4c-2.7,2.3-5.6,4.1-8.7,5.4c-3.1,1.2-6.7,1.8-10.8,1.8c-5.4,0-10.4-1.3-14.8-3.8
					c-4.4-2.6-7.9-6.1-10.4-10.6c-2.5-4.5-3.8-9.7-3.8-15.6c0-6.1,1.3-11.6,3.8-16.6c2.6-5,6-8.9,10.4-11.7
					c4.4-2.8,9.2-4.2,14.4-4.2C4730.4,5221.8,4735.8,5223.5,4740.4,5227.1z M4704.7,5306.2l-0.3,0.3
					C4703.7,5305.8,4703.8,5305.7,4704.7,5306.2z M4704.7,5306.2l0.6-0.8l0.8,0.8C4706.1,5307,4705.6,5307,4704.7,5306.2z
					 M4736,5272.6c3-1.3,5.8-3.4,8.2-6.4c-0.4-11.7-2.2-20.5-5.4-26.2c-3.1-5.7-7.9-8.6-14.2-8.6c-5.5,0-10,2-13.3,6.1
					c-3.3,4.1-5,9.5-5,16.5c0,6.2,1.8,11.1,5.3,14.9c3.5,3.7,7.8,5.6,13,5.6C4729.2,5274.6,4732.9,5273.9,4736,5272.6z"/>
				<path class="st11" d="M4837.4,5235.4c5.4,9.1,8.1,21.5,8.1,37.4c0,16.3-2.7,28.9-8,37.8c-5.3,8.9-13,13.3-22.9,13.3
					s-17.5-4.4-22.9-13.3c-5.3-8.9-8-21.4-8-37.8c0-15.9,2.7-28.4,8.1-37.4c5.4-9.1,13-13.6,22.8-13.6
					C4824.4,5221.8,4832,5226.3,4837.4,5235.4z M4800.4,5242.6c-3.4,7.4-5.1,17.5-5.1,30.2c0,6.9,0.5,13.1,1.4,18.4l33.9-43.8
					c-1.6-5.1-3.8-9-6.5-11.8c-2.7-2.7-5.9-4.1-9.5-4.1C4808.5,5231.5,4803.8,5235.2,4800.4,5242.6z M4828.8,5303.4
					c3.4-7.1,5.1-17.3,5.1-30.6c0-6.2-0.4-11.5-1.1-16l-33.9,43.2c3.4,9.4,8.6,14.1,15.7,14.1
					C4820.7,5314.1,4825.4,5310.5,4828.8,5303.4z"/>
			</g>
			<g class="st3">
				<path class="st11" d="M4930.4,5288.1c3.8,3.3,5.7,7.5,5.7,12.7c0,6.6-2.6,12.1-7.8,16.4c-5.2,4.3-12.7,6.5-22.5,6.5
					c-12.4,0-22.7-3.8-31-11.5l6.4-10.9l0.2-0.2l0.2,0.2c3.3,4.3,6.7,7.5,10.2,9.6c3.5,2.1,8.3,3.2,14.4,3.2c5.8,0,10.3-1,13.6-3.1
					c3.3-2.1,5-4.9,5-8.6c0-3.1-1.3-5.7-4-7.7c-2.7-2-7.5-4.2-14.4-6.4c-18.3-5.2-27.5-12.8-27.5-22.7c0-5.7,2.3-10.1,7-13.4
					c4.6-3.3,11.3-5,19.9-5c6.6,0,12.2,0.9,16.7,2.8c4.5,1.9,8.7,4.8,12.4,8.7l-6.6,8l-0.2,0.2c-2.2-3.4-5.4-6.1-9.5-8.1
					c-4.1-2-8.3-3-12.6-3c-4.6,0-8.3,0.8-11.3,2.4c-2.9,1.6-4.4,3.8-4.4,6.7c0,2.7,1.5,5.1,4.5,7.4c3,2.2,8.4,4.5,16.2,6.7
					C4920.1,5281.8,4926.6,5284.8,4930.4,5288.1z M4881,5300.3c0.1,0,0.3,0.1,0.6,0.3l-0.3,0.5
					C4881,5300.6,4880.9,5300.3,4881,5300.3z M4883.1,5300.6c0,0.4-0.5,0.4-1.4,0l0.5-0.8l1,0.6V5300.6z M4927.6,5267.4l-0.5,0.6
					l-0.8-0.8C4926.3,5266.7,4926.7,5266.7,4927.6,5267.4z M4928.4,5267.7c-0.1,0.1-0.2,0.1-0.4,0c-0.2-0.1-0.4-0.2-0.5-0.3l0.5-0.5
					C4928.4,5267.3,4928.5,5267.6,4928.4,5267.7z"/>
			</g>
		</g>
	</g>
</g>
</svg>
