<?xml version="1.0" encoding="utf-8"?>
<!-- Generator: Adobe Illustrator 23.0.3, SVG Export Plug-In . SVG Version: 6.00 Build 0)  -->
<svg version="1.1" id="Layer_1" xmlns="http://www.w3.org/2000/svg" xmlns:xlink="http://www.w3.org/1999/xlink" x="0px" y="0px"
	 viewBox="0 0 110.88 110.88" style="enable-background:new 0 0 110.88 110.88;" xml:space="preserve">
<style type="text/css">
	.st0{fill:#F9006C;}
	.st1{fill:#FFFFFF;}
	.st2{fill:#15003E;}
	.st3{fill:#0FCE7C;}
	.st4{fill:#25E899;}
	.st5{fill:#FFCE08;}
	.st6{fill:#C6C6C6;}
	.st7{fill:#575560;}
	.st8{fill:#D6AF0D;}
	.st9{clip-path:url(#SVGID_2_);}
	.st10{fill:#8E2ABE;}
	.st11{fill:#FFFFFF;stroke:#15003E;stroke-width:0.4312;stroke-linecap:round;stroke-miterlimit:10;}
</style>
<polygon class="st0" points="6.92,28.07 6.92,82.81 54.32,110.17 101.72,82.81 101.72,28.07 54.32,0.71 "/>
<polygon class="st1" points="15.67,33.12 15.67,77.76 54.32,100.07 92.97,77.76 92.97,33.12 54.32,10.81 "/>
<g>
	<g>
		<path class="st0" d="M52.17,83.34h-1.11v-2.25h0.99c0.65,0,1.18,0.53,1.18,1.18l0,0C53.24,82.86,52.76,83.34,52.17,83.34z"/>
		<path class="st2" d="M52.71,83.56h-1.88v-2.7h1.82c0.44,0,0.8,0.36,0.8,0.8v1.15C53.46,83.23,53.13,83.56,52.71,83.56z
			 M51.28,83.11h1.43c0.17,0,0.3-0.14,0.3-0.3v-1.15c0-0.2-0.16-0.36-0.36-0.36h-1.38V83.11z"/>
	</g>
	<g>
		<path class="st0" d="M57.13,83.34h-1.05c-0.62,0-1.13-0.5-1.13-1.13l0,0c0-0.62,0.5-1.13,1.13-1.13h1.05V83.34z"/>
		<path class="st2" d="M57.35,83.56h-1.82c-0.44,0-0.8-0.36-0.8-0.8v-1.1c0-0.44,0.36-0.8,0.8-0.8h1.82V83.56z M55.53,81.31
			c-0.2,0-0.36,0.16-0.36,0.36v1.1c0,0.2,0.16,0.36,0.36,0.36h1.38v-1.81H55.53z"/>
	</g>
	<g>
		<path class="st0" d="M42.27,78.38h-1.05c-0.62,0-1.13-0.5-1.13-1.13l0,0c0-0.62,0.5-1.13,1.13-1.13h1.05V78.38z"/>
		<path class="st2" d="M42.49,78.61h-1.82c-0.44,0-0.8-0.36-0.8-0.8v-1.1c0-0.44,0.36-0.8,0.8-0.8h1.82V78.61z M40.67,76.35
			c-0.2,0-0.36,0.16-0.36,0.36v1.1c0,0.2,0.16,0.36,0.36,0.36h1.38v-1.81H40.67z"/>
	</g>
	<g>
		<path class="st0" d="M66.38,76.13h1.05c0.62,0,1.13,0.5,1.13,1.13l0,0c0,0.62-0.5,1.13-1.13,1.13h-1.05V76.13z"/>
		<path class="st2" d="M67.98,78.61h-1.82v-2.7h1.82c0.44,0,0.8,0.36,0.8,0.8v1.1C68.78,78.25,68.42,78.61,67.98,78.61z M66.6,78.16
			h1.38c0.2,0,0.36-0.16,0.36-0.36v-1.1c0-0.2-0.16-0.36-0.36-0.36H66.6V78.16z"/>
	</g>
	<g>
		<path class="st1" d="M64.59,83.29L64.59,83.29l0-12.07h0c1.53,0,2.76,1.24,2.76,2.76v6.54C67.36,82.05,66.12,83.29,64.59,83.29z"
			/>
		<path class="st2" d="M66.11,83.55h-1.78V70.96h1.78c0.83,0,1.51,0.68,1.51,1.51v9.57C67.62,82.88,66.94,83.55,66.11,83.55z
			 M64.86,83.03h1.25c0.54,0,0.99-0.44,0.99-0.99v-9.57c0-0.54-0.44-0.99-0.99-0.99h-1.25V83.03z"/>
	</g>
	<g>
		<path class="st1" d="M44.09,83.29L44.09,83.29l0-12.07h0c-1.53,0-2.76,1.24-2.76,2.76v6.54C41.32,82.05,42.56,83.29,44.09,83.29z"
			/>
		<path class="st2" d="M44.35,83.55h-1.78c-0.83,0-1.51-0.68-1.51-1.51v-9.57c0-0.83,0.68-1.51,1.51-1.51h1.78V83.55z M42.57,71.49
			c-0.54,0-0.99,0.44-0.99,0.99v9.57c0,0.54,0.44,0.99,0.99,0.99h1.25V71.49H42.57z"/>
	</g>
	<g>
		<path class="st2" d="M62.25,88.08L62.25,88.08c-1.66,0-3.01-1.35-3.01-3.01V69.44c0-1.66,1.35-3.01,3.01-3.01h0
			c1.66,0,3.01,1.35,3.01,3.01v15.64C65.26,86.74,63.91,88.08,62.25,88.08z"/>
		<path class="st2" d="M64.1,88.31h-3.7c-0.76,0-1.38-0.62-1.38-1.38V67.59c0-0.76,0.62-1.38,1.38-1.38h3.7
			c0.76,0,1.38,0.62,1.38,1.38v19.34C65.48,87.69,64.86,88.31,64.1,88.31z M60.4,66.65c-0.52,0-0.93,0.42-0.93,0.93v19.34
			c0,0.52,0.42,0.93,0.93,0.93h3.7c0.52,0,0.93-0.42,0.93-0.93V67.59c0-0.52-0.42-0.93-0.93-0.93H60.4z"/>
	</g>
	<g>
		<g>
			<path class="st2" d="M62.3,50.04c-1.26,0-2.28,1.03-2.28,2.31c0,1,0.63,1.85,1.5,2.17c0.1,0.26,0.27,0.77,0.26,1.23
				c0,0.3,0.24,0.53,0.53,0.53h1.88v-2.66c0.24-0.37,0.38-0.81,0.38-1.28C64.58,51.08,63.56,50.04,62.3,50.04z"/>
			<path class="st2" d="M64.43,56.51h-2.1c-0.2,0-0.39-0.08-0.54-0.22c-0.14-0.14-0.22-0.33-0.22-0.54c0-0.38-0.12-0.8-0.22-1.06
				c-0.93-0.39-1.55-1.32-1.55-2.34c0-1.4,1.12-2.53,2.5-2.53c1.38,0,2.5,1.14,2.5,2.53c0,0.48-0.13,0.94-0.38,1.34V56.51z
				 M62.3,50.27c-1.13,0-2.06,0.94-2.06,2.09c0,0.87,0.54,1.66,1.36,1.96l0.09,0.04l0.04,0.09c0.11,0.28,0.28,0.81,0.28,1.31
				c0,0.08,0.03,0.16,0.09,0.22c0.06,0.06,0.14,0.09,0.22,0.09h1.66v-2.5l0.04-0.06c0.23-0.34,0.34-0.74,0.34-1.16
				C64.36,51.2,63.44,50.27,62.3,50.27z"/>
		</g>
		<g>
			<rect x="62.48" y="56.52" class="st2" width="1.55" height="1.15"/>
			<path class="st2" d="M64.25,57.89h-1.99v-1.59h1.99V57.89z M62.71,57.44h1.1v-0.7h-1.1V57.44z"/>
		</g>
	</g>
	<g>
		<g>
			<path class="st2" d="M46.01,50.04c1.26,0,2.28,1.03,2.28,2.31c0,1-0.63,1.85-1.5,2.17c-0.1,0.26-0.27,0.77-0.26,1.23
				c0,0.3-0.24,0.53-0.53,0.53h-1.88v-2.66c-0.24-0.37-0.38-0.81-0.38-1.28C43.73,51.08,44.75,50.04,46.01,50.04z"/>
			<path class="st2" d="M45.99,56.51h-2.1V53.7c-0.25-0.4-0.38-0.87-0.38-1.34c0-1.4,1.12-2.53,2.5-2.53s2.5,1.14,2.5,2.53
				c0,1.02-0.62,1.95-1.55,2.34c-0.09,0.26-0.22,0.68-0.22,1.06c0,0.2-0.08,0.39-0.22,0.54C46.38,56.43,46.19,56.51,45.99,56.51z
				 M44.33,56.06h1.66c0.08,0,0.16-0.03,0.22-0.09c0.06-0.06,0.09-0.14,0.09-0.22c0-0.5,0.17-1.03,0.28-1.31l0.04-0.09l0.09-0.04
				c0.81-0.3,1.36-1.09,1.36-1.96c0-1.15-0.92-2.09-2.06-2.09c-1.13,0-2.06,0.94-2.06,2.09c0,0.41,0.12,0.81,0.34,1.16l0.04,0.06
				V56.06z"/>
		</g>
		<g>
			<rect x="44.28" y="56.52" class="st2" width="1.55" height="1.15"/>
			<path class="st2" d="M46.05,57.89h-1.99v-1.59h1.99V57.89z M44.5,57.44h1.1v-0.7h-1.1V57.44z"/>
		</g>
	</g>
	<g>
		<path class="st2" d="M54.06,68.35c-0.12,0-0.22-0.1-0.22-0.22v-6.87c0-0.12,0.1-0.22,0.22-0.22s0.22,0.1,0.22,0.22v6.87
			C54.28,68.25,54.18,68.35,54.06,68.35z"/>
	</g>
	<g>
		<circle class="st3" cx="62.36" cy="52.32" r="0.99"/>
		<path class="st2" d="M62.36,53.54c-0.67,0-1.22-0.55-1.22-1.22s0.55-1.22,1.22-1.22s1.22,0.55,1.22,1.22S63.03,53.54,62.36,53.54z
			 M62.36,51.55c-0.42,0-0.77,0.35-0.77,0.77s0.35,0.77,0.77,0.77s0.77-0.35,0.77-0.77S62.78,51.55,62.36,51.55z"/>
	</g>
	<g>
		<circle class="st3" cx="45.71" cy="52.32" r="0.99"/>
		<path class="st2" d="M45.71,53.54c-0.67,0-1.22-0.55-1.22-1.22s0.55-1.22,1.22-1.22s1.22,0.55,1.22,1.22S46.38,53.54,45.71,53.54z
			 M45.71,51.55c-0.42,0-0.77,0.35-0.77,0.77s0.35,0.77,0.77,0.77c0.42,0,0.77-0.35,0.77-0.77S46.13,51.55,45.71,51.55z"/>
	</g>
	<g>
		<path class="st0" d="M54.06,50.04H47.4c-0.97,0-1.66,0.93-1.38,1.85l3.26,10.87c0.18,0.61,0.74,1.03,1.38,1.03h3.4h3.4
			c0.64,0,1.2-0.42,1.38-1.03L62.1,51.9c0.28-0.92-0.41-1.85-1.38-1.85H54.06z"/>
		<path class="st2" d="M57.46,64.02h-6.79c-0.74,0-1.38-0.48-1.59-1.19l-3.26-10.87c-0.15-0.51-0.06-1.04,0.26-1.47
			c0.32-0.43,0.8-0.67,1.33-0.67h13.31c0.53,0,1.02,0.24,1.33,0.67c0.32,0.43,0.41,0.96,0.26,1.47l-3.26,10.87
			C58.84,63.54,58.2,64.02,57.46,64.02z M47.4,50.27c-0.39,0-0.75,0.18-0.98,0.49c-0.23,0.31-0.3,0.7-0.19,1.08L49.5,62.7
			c0.16,0.52,0.62,0.87,1.17,0.87h6.79c0.54,0,1.01-0.35,1.17-0.87l3.26-10.87c0.11-0.37,0.04-0.76-0.19-1.08
			c-0.23-0.31-0.59-0.49-0.98-0.49H47.4z"/>
	</g>
	<g>
		<path class="st4" d="M59.37,49.06H48.75c-0.14,0-0.25-0.11-0.25-0.25s0.11-0.25,0.25-0.25h10.62c0.14,0,0.25,0.11,0.25,0.25
			S59.51,49.06,59.37,49.06z"/>
	</g>
	<g>
		<g>
			<ellipse class="st1" cx="54.06" cy="58.65" rx="2.28" ry="2.31"/>
			<path class="st2" d="M54.06,61.18c-1.38,0-2.5-1.14-2.5-2.53s1.12-2.53,2.5-2.53s2.5,1.14,2.5,2.53S55.44,61.18,54.06,61.18z
				 M54.06,56.56c-1.13,0-2.06,0.94-2.06,2.09c0,1.15,0.92,2.09,2.06,2.09c1.13,0,2.06-0.94,2.06-2.09
				C56.11,57.5,55.19,56.56,54.06,56.56z"/>
		</g>
		<g>
			<circle class="st3" cx="54.11" cy="58.62" r="0.99"/>
			<path class="st2" d="M54.11,59.83c-0.67,0-1.22-0.55-1.22-1.22s0.55-1.22,1.22-1.22c0.67,0,1.22,0.55,1.22,1.22
				S54.78,59.83,54.11,59.83z M54.11,57.85c-0.42,0-0.77,0.35-0.77,0.77s0.35,0.77,0.77,0.77c0.42,0,0.77-0.35,0.77-0.77
				S54.54,57.85,54.11,57.85z"/>
		</g>
	</g>
	<g>
		<path class="st4" d="M64.19,58.58h-1.95c-0.14,0-0.25-0.11-0.25-0.25s0.11-0.25,0.25-0.25h1.95c0.14,0,0.25,0.11,0.25,0.25
			S64.33,58.58,64.19,58.58z"/>
	</g>
	<g>
		<path class="st2" d="M45.95,88.08L45.95,88.08c-1.66,0-3.01-1.35-3.01-3.01V69.44c0-1.66,1.35-3.01,3.01-3.01h0
			c1.66,0,3.01,1.35,3.01,3.01v15.64C48.96,86.74,47.61,88.08,45.95,88.08z"/>
		<path class="st2" d="M47.8,88.31h-3.7c-0.76,0-1.38-0.62-1.38-1.38V67.59c0-0.76,0.62-1.38,1.38-1.38h3.7
			c0.76,0,1.38,0.62,1.38,1.38v19.34C49.18,87.69,48.56,88.31,47.8,88.31z M44.1,66.65c-0.52,0-0.93,0.42-0.93,0.93v19.34
			c0,0.52,0.42,0.93,0.93,0.93h3.7c0.52,0,0.93-0.42,0.93-0.93V67.59c0-0.52-0.42-0.93-0.93-0.93H44.1z"/>
	</g>
	<g>
		<g>
			<path class="st1" d="M62.24,59.12l2.36,0.06c0.33,0.01,0.61,0.26,0.66,0.59c0.16,1.1,0.47,3.49,0.34,4.46
				c-0.1,0.79-0.38,1.78-0.57,2.42c-0.11,0.36-0.49,0.57-0.86,0.45l-3.25-1.01c-0.28-0.09-0.47-0.34-0.48-0.63
				c-0.02-1.02,0.05-3.49,1.16-5.93C61.71,59.27,61.97,59.11,62.24,59.12z"/>
			<path class="st2" d="M64.38,67.35c-0.09,0-0.18-0.01-0.27-0.04l-3.25-1.01c-0.37-0.12-0.63-0.45-0.64-0.84
				c-0.02-0.98,0.05-3.53,1.18-6.03c0.15-0.33,0.49-0.55,0.85-0.54h0l2.36,0.06c0.44,0.01,0.81,0.34,0.87,0.78
				c0.18,1.27,0.47,3.55,0.34,4.52c-0.11,0.79-0.37,1.77-0.58,2.46c-0.07,0.23-0.23,0.42-0.44,0.54
				C64.67,67.32,64.52,67.35,64.38,67.35z M62.22,59.34c-0.18,0-0.35,0.11-0.42,0.27c-1.09,2.42-1.16,4.88-1.14,5.83
				c0,0.2,0.13,0.37,0.32,0.43l3.25,1.01c0.12,0.04,0.24,0.02,0.35-0.03c0.11-0.06,0.19-0.16,0.23-0.27
				c0.2-0.67,0.47-1.62,0.57-2.39c0.13-0.95-0.19-3.39-0.34-4.4c-0.03-0.22-0.22-0.39-0.44-0.39l-2.37-0.06h0
				C62.23,59.34,62.23,59.34,62.22,59.34z"/>
		</g>
		<g>
			<circle class="st3" cx="63.78" cy="65.22" r="0.86"/>
			<path class="st2" d="M63.78,66.31c-0.6,0-1.08-0.49-1.08-1.08c0-0.6,0.49-1.08,1.08-1.08c0.6,0,1.08,0.49,1.08,1.08
				C64.86,65.82,64.38,66.31,63.78,66.31z M63.78,64.59c-0.35,0-0.64,0.29-0.64,0.64s0.29,0.64,0.64,0.64
				c0.35,0,0.64-0.29,0.64-0.64S64.13,64.59,63.78,64.59z"/>
		</g>
		<g>
			<line class="st3" x1="65.4" y1="61.81" x2="61.13" y2="61.12"/>
			<path class="st2" d="M65.4,62.03c-0.01,0-0.02,0-0.04,0l-4.28-0.69c-0.12-0.02-0.2-0.13-0.18-0.26c0.02-0.12,0.13-0.2,0.26-0.18
				l4.28,0.69c0.12,0.02,0.2,0.13,0.18,0.26C65.61,61.95,65.51,62.03,65.4,62.03z"/>
		</g>
	</g>
	<g>
		<path class="st4" d="M45.98,58.58h-1.95c-0.14,0-0.25-0.11-0.25-0.25s0.11-0.25,0.25-0.25h1.95c0.14,0,0.25,0.11,0.25,0.25
			S46.12,58.58,45.98,58.58z"/>
	</g>
	<g>
		<g>
			<path class="st0" d="M58.67,87.07h-0.14c-1.33,0-2.42-1.09-2.42-2.42V70.28c0-1.33,1.09-2.42,2.42-2.42h0
				c1.41,0,2.56,1.15,2.56,2.56v14.23C61.09,85.98,60,87.07,58.67,87.07z"/>
			<path class="st2" d="M60,87.29h-2.8c-0.73,0-1.32-0.59-1.32-1.32V68.95c0-0.73,0.59-1.32,1.32-1.32h2.73
				c0.76,0,1.38,0.62,1.38,1.38v16.96C61.31,86.7,60.72,87.29,60,87.29z M57.2,68.08c-0.48,0-0.87,0.39-0.87,0.87v17.02
				c0,0.48,0.39,0.87,0.87,0.87H60c0.48,0,0.87-0.39,0.87-0.87V69.02c0-0.52-0.42-0.93-0.93-0.93H57.2z"/>
		</g>
		<g>
			<path class="st0" d="M49.52,87.13L49.52,87.13c-1.37,0-2.49-1.12-2.49-2.49V70.41c0-1.37,1.12-2.49,2.49-2.49h0
				c1.37,0,2.49,1.12,2.49,2.49v14.23C52.01,86.01,50.89,87.13,49.52,87.13z"/>
			<path class="st2" d="M50.92,87.35h-2.8c-0.73,0-1.32-0.59-1.32-1.32V69.01c0-0.73,0.59-1.32,1.32-1.32h2.8
				c0.73,0,1.32,0.59,1.32,1.32v17.02C52.24,86.76,51.64,87.35,50.92,87.35z M48.12,68.14c-0.48,0-0.87,0.39-0.87,0.87v17.02
				c0,0.48,0.39,0.87,0.87,0.87h2.8c0.48,0,0.87-0.39,0.87-0.87V69.01c0-0.48-0.39-0.87-0.87-0.87H48.12z"/>
		</g>
		<g>
			<path class="st0" d="M55.72,71.26H52.4c-1.31,0-2.38-1.07-2.38-2.38v0c0-1.31,1.07-2.38,2.38-2.38h3.32
				c1.31,0,2.38,1.07,2.38,2.38v0C58.1,70.2,57.03,71.26,55.72,71.26z"/>
			<path class="st2" d="M57.09,71.49h-6.07c-0.68,0-1.23-0.55-1.23-1.23v-2.75c0-0.68,0.55-1.23,1.23-1.23h6.07
				c0.68,0,1.23,0.55,1.23,1.23v2.75C58.32,70.94,57.77,71.49,57.09,71.49z M51.02,66.73c-0.43,0-0.78,0.35-0.78,0.78v2.75
				c0,0.43,0.35,0.78,0.78,0.78h6.07c0.43,0,0.78-0.35,0.78-0.78v-2.75c0-0.43-0.35-0.78-0.78-0.78H51.02z"/>
		</g>
	</g>
	<g>
		<path class="st1" d="M44.25,65.59l-1.98,1.4c-0.28,0.2-0.4,0.56-0.3,0.88l1.5,4.8c0.1,0.32,0.38,0.54,0.71,0.56l3.41,0.18
			c0.2,0.01,0.41-0.06,0.56-0.19l1.7-1.48c0.54-0.47,0.23-1.36-0.48-1.39l-2.12-0.1c-0.34-0.02-0.63-0.25-0.72-0.57l-1.06-3.66
			C45.31,65.49,44.69,65.27,44.25,65.59z"/>
		<path class="st2" d="M47.63,73.63c-0.02,0-0.04,0-0.06,0l-3.41-0.18c-0.42-0.02-0.79-0.31-0.91-0.71l-1.5-4.8
			c-0.13-0.42,0.02-0.88,0.38-1.13l1.98-1.4c0.27-0.19,0.61-0.24,0.92-0.13c0.31,0.11,0.55,0.36,0.64,0.67l1.06,3.66
			c0.07,0.23,0.28,0.4,0.52,0.41l2.12,0.1c0.42,0.02,0.77,0.28,0.91,0.68c0.14,0.4,0.03,0.82-0.29,1.1l-1.7,1.48
			C48.11,73.54,47.87,73.63,47.63,73.63z M44.7,65.66c-0.12,0-0.23,0.04-0.33,0.11l-1.98,1.4c-0.2,0.14-0.29,0.4-0.22,0.64l1.5,4.8
			c0.07,0.23,0.28,0.39,0.52,0.4l3.41,0.18c0.15,0.01,0.29-0.04,0.41-0.14l1.7-1.48c0.22-0.19,0.23-0.44,0.17-0.62
			c-0.06-0.18-0.23-0.37-0.51-0.38l-2.12-0.1c-0.43-0.02-0.8-0.31-0.92-0.73l-1.06-3.66c-0.05-0.18-0.18-0.32-0.36-0.38
			C44.83,65.67,44.76,65.66,44.7,65.66z M44.25,65.59L44.25,65.59L44.25,65.59z"/>
	</g>
	<g>
		<path class="st1" d="M42.63,66.93l1.16,3.77c0.22,0.73,0.85,1.26,1.6,1.38l1.82,0.27"/>
		<path class="st2" d="M47.22,72.57c-0.01,0-0.02,0-0.03,0l-1.82-0.27c-0.83-0.12-1.53-0.72-1.78-1.53L42.43,67
			c-0.04-0.12,0.03-0.24,0.14-0.27c0.12-0.04,0.24,0.03,0.27,0.14L44,70.64c0.2,0.64,0.76,1.13,1.42,1.23l1.82,0.27
			c0.12,0.02,0.2,0.13,0.18,0.25C47.42,72.5,47.32,72.57,47.22,72.57z"/>
	</g>
	<g>
		<g>
			<path class="st1" d="M45.8,59.12l-2.36,0.06c-0.33,0.01-0.61,0.26-0.66,0.59c-0.16,1.1-0.47,3.49-0.34,4.46
				c0.1,0.79,0.38,1.78,0.57,2.42c0.11,0.36,0.49,0.57,0.86,0.45l3.25-1.01c0.28-0.09,0.47-0.34,0.48-0.63
				c0.02-1.02-0.05-3.49-1.16-5.93C46.33,59.27,46.08,59.11,45.8,59.12z"/>
			<path class="st2" d="M43.67,67.35c-0.15,0-0.29-0.04-0.42-0.11c-0.21-0.11-0.37-0.31-0.44-0.54c-0.21-0.68-0.48-1.66-0.58-2.46
				c-0.13-0.97,0.16-3.25,0.34-4.52c0.06-0.44,0.43-0.77,0.87-0.78l2.36-0.06c0.37-0.01,0.7,0.2,0.85,0.54
				c1.13,2.5,1.2,5.05,1.18,6.03c-0.01,0.39-0.27,0.73-0.64,0.84l-3.25,1.01C43.85,67.34,43.76,67.35,43.67,67.35z M45.81,59.34
				l-2.36,0.06c-0.23,0.01-0.41,0.17-0.44,0.39c-0.14,1-0.46,3.44-0.34,4.4c0.1,0.76,0.36,1.72,0.57,2.39
				c0.04,0.12,0.12,0.22,0.23,0.27c0.11,0.06,0.23,0.07,0.35,0.03l3.25-1.01c0.19-0.06,0.32-0.23,0.32-0.43
				c0.02-0.95-0.04-3.42-1.14-5.83C46.17,59.45,45.99,59.34,45.81,59.34L45.81,59.34z"/>
		</g>
		<g>
			<circle class="st3" cx="44.27" cy="65.22" r="0.86"/>
			<path class="st2" d="M44.27,66.31c-0.6,0-1.08-0.49-1.08-1.08c0-0.6,0.49-1.08,1.08-1.08s1.08,0.49,1.08,1.08
				C45.35,65.82,44.86,66.31,44.27,66.31z M44.27,64.59c-0.35,0-0.64,0.29-0.64,0.64s0.29,0.64,0.64,0.64
				c0.35,0,0.64-0.29,0.64-0.64S44.62,64.59,44.27,64.59z"/>
		</g>
		<g>
			<line class="st3" x1="42.64" y1="61.81" x2="46.92" y2="61.12"/>
			<path class="st2" d="M42.64,62.03c-0.11,0-0.2-0.08-0.22-0.19c-0.02-0.12,0.06-0.24,0.18-0.26l4.28-0.69
				c0.12-0.02,0.24,0.06,0.26,0.18c0.02,0.12-0.06,0.24-0.18,0.26l-4.28,0.69C42.67,62.03,42.65,62.03,42.64,62.03z"/>
		</g>
	</g>
	<g>
		<path class="st4" d="M58.34,65.36h-8.56c-0.14,0-0.25-0.11-0.25-0.25c0-0.14,0.11-0.25,0.25-0.25h8.56c0.14,0,0.25,0.11,0.25,0.25
			C58.59,65.25,58.48,65.36,58.34,65.36z"/>
	</g>
	<g>
		<g>
			<path class="st0" d="M47.36,43.07l0.84,3.42c0.17,0.7,0.8,1.19,1.52,1.19l8.54,0.03c0.73,0,1.37-0.5,1.53-1.22l0.86-3.78
				c0.23-1-0.55-1.94-1.58-1.91l-10.24,0.32C47.83,41.16,47.12,42.1,47.36,43.07z"/>
			<path class="st2" d="M58.26,47.94C58.26,47.94,58.26,47.94,58.26,47.94l-8.55-0.03c-0.82,0-1.54-0.56-1.73-1.36l-0.84-3.42
				c-0.13-0.53-0.02-1.08,0.31-1.51c0.33-0.43,0.83-0.69,1.37-0.71l10.24-0.32c0.56-0.02,1.08,0.22,1.44,0.65
				c0.36,0.43,0.49,0.99,0.36,1.53l-0.86,3.78C59.82,47.36,59.1,47.94,58.26,47.94z M59.12,41.03c-0.01,0-0.03,0-0.04,0l-10.24,0.32
				c-0.41,0.01-0.78,0.21-1.03,0.53c-0.25,0.32-0.33,0.74-0.23,1.13l0.84,3.42c0.15,0.6,0.68,1.02,1.3,1.02l8.54,0.03
				c0,0,0,0,0.01,0c0.63,0,1.17-0.43,1.31-1.05l0.86-3.78c0.09-0.41-0.01-0.83-0.27-1.15C59.9,41.2,59.52,41.03,59.12,41.03z"/>
		</g>
		<g>
			<path class="st0" d="M45.44,30.85l-1.3,0.02c-1.14,0.01-2.05,0.95-2.04,2.09l0.04,3.66c0.01,1.14,0.95,2.05,2.09,2.04l1.72-0.02"
				/>
			<path class="st2" d="M44.21,38.88c-1.25,0-2.27-1.01-2.29-2.26l-0.04-3.66c-0.01-0.61,0.22-1.19,0.65-1.63
				c0.43-0.44,1-0.68,1.61-0.69l1.3-0.02c0,0,0,0,0,0c0.12,0,0.22,0.1,0.22,0.22c0,0.12-0.1,0.22-0.22,0.23l-1.3,0.02
				c-0.49,0.01-0.95,0.2-1.3,0.55c-0.34,0.35-0.53,0.82-0.52,1.31l0.04,3.66c0.01,1.01,0.84,1.82,1.84,1.82c0.01,0,0.01,0,0.02,0
				l1.72-0.02c0,0,0,0,0,0c0.12,0,0.22,0.1,0.22,0.22c0,0.12-0.1,0.22-0.22,0.23l-1.72,0.02C44.22,38.88,44.21,38.88,44.21,38.88z"
				/>
		</g>
		<g>
			<path class="st0" d="M61.09,30.67l2.79-0.03c1.14-0.01,2.08,0.9,2.09,2.04l0.04,3.66c0.01,1.14-0.9,2.08-2.04,2.09l-1.72,0.02"/>
			<path class="st2" d="M62.25,38.67c-0.12,0-0.22-0.1-0.22-0.22c0-0.12,0.1-0.22,0.22-0.23l1.73-0.02
				c1.02-0.01,1.83-0.85,1.82-1.86l-0.04-3.66c-0.01-1.01-0.84-1.82-1.84-1.82c-0.01,0-0.01,0-0.02,0l-2.79,0.03
				c-0.12,0-0.22-0.1-0.23-0.22c0-0.12,0.1-0.22,0.22-0.23l2.79-0.03c0.01,0,0.02,0,0.03,0c1.25,0,2.27,1.01,2.29,2.26l0.04,3.66
				c0.01,1.26-1,2.3-2.26,2.31L62.25,38.67C62.25,38.67,62.25,38.67,62.25,38.67z"/>
		</g>
		<g>
			<path class="st2" d="M63.9,34.97c-0.16,0-0.3-0.13-0.3-0.3l-0.16-13.79c0-0.17,0.13-0.3,0.3-0.3c0.16,0,0.3,0.13,0.3,0.3
				l0.16,13.79C64.2,34.83,64.07,34.96,63.9,34.97C63.9,34.97,63.9,34.97,63.9,34.97z"/>
		</g>
		<g>
			<path class="st2" d="M43.7,35.23c-0.16,0-0.3-0.13-0.3-0.3l-0.12-10.25c0-0.17,0.13-0.3,0.3-0.3c0,0,0,0,0,0
				c0.16,0,0.3,0.13,0.3,0.3L44,34.92C44.01,35.09,43.87,35.22,43.7,35.23C43.7,35.23,43.7,35.23,43.7,35.23z"/>
		</g>
		<g>
			<path class="st0" d="M54.88,27.6c-3.54,0.1-10.46,2.06-10.89,6.41c-0.23,2.34,1.69,4.17,2.79,6.15
				c2.53,4.56,10.82,5.4,14.22,0.48c1.83-2.64,3.66-4.53,2.07-7.81c-1.15-2.38-3.53-4.04-5.97-4.9
				C56.36,27.67,55.62,27.58,54.88,27.6z"/>
			<path class="st2" d="M54.14,44.2c-0.17,0-0.34,0-0.51-0.01c-3.1-0.15-5.81-1.65-7.06-3.92c-0.29-0.52-0.65-1.05-1-1.57
				c-0.98-1.44-1.99-2.92-1.81-4.71c0.44-4.47,7.46-6.51,11.11-6.61l0,0c0.83-0.02,1.58,0.09,2.29,0.34
				c2.82,0.99,5.04,2.82,6.1,5.01c1.47,3.04,0.1,4.96-1.49,7.19c-0.2,0.28-0.4,0.56-0.6,0.85C59.67,42.94,57.07,44.2,54.14,44.2z
				 M54.88,27.83c-3.52,0.1-10.26,2.02-10.68,6.21c-0.16,1.63,0.8,3.04,1.74,4.42c0.35,0.52,0.72,1.06,1.02,1.6
				c1.18,2.13,3.74,3.54,6.69,3.69c2.98,0.15,5.65-1.06,7.15-3.22c0.2-0.29,0.4-0.58,0.6-0.85c1.57-2.2,2.81-3.94,1.45-6.74
				c-1.01-2.09-3.14-3.83-5.85-4.79C56.35,27.91,55.65,27.8,54.88,27.83L54.88,27.83z"/>
		</g>
		<g>
			
				<ellipse transform="matrix(0.9999 -0.0116 0.0116 0.9999 -0.4203 0.6333)" class="st4" cx="54.2" cy="36.42" rx="7.58" ry="6.12"/>
			<path class="st2" d="M54.16,42.77c-4.25,0-7.72-2.79-7.76-6.25c-0.02-1.7,0.78-3.31,2.25-4.53c1.46-1.2,3.4-1.88,5.48-1.91
				c2.07-0.03,4.03,0.61,5.52,1.78c1.5,1.18,2.33,2.77,2.35,4.47v0c0.02,1.7-0.78,3.31-2.25,4.53c-1.46,1.2-3.4,1.88-5.48,1.91
				C54.24,42.77,54.2,42.77,54.16,42.77z M54.24,30.53c-0.04,0-0.07,0-0.11,0c-1.97,0.02-3.82,0.66-5.2,1.8
				c-1.36,1.13-2.11,2.61-2.09,4.18c0.04,3.22,3.31,5.81,7.31,5.81c0.04,0,0.07,0,0.11,0c1.97-0.02,3.82-0.66,5.2-1.8
				c1.36-1.13,2.11-2.61,2.09-4.18v0c-0.02-1.57-0.79-3.03-2.18-4.13C57.99,31.12,56.18,30.53,54.24,30.53z"/>
		</g>
		<g>
			<circle class="st1" cx="56.96" cy="34.88" r="1.84"/>
		</g>
		<g>
			<circle class="st1" cx="51" cy="27.8" r="2.94"/>
			<path class="st2" d="M51,30.96c-0.83,0-1.61-0.32-2.21-0.9c-0.6-0.59-0.94-1.38-0.95-2.23c-0.01-0.84,0.31-1.64,0.9-2.25
				c0.59-0.6,1.38-0.94,2.23-0.95c0.84-0.01,1.64,0.31,2.25,0.9c0.6,0.59,0.94,1.38,0.95,2.23l0,0c0.02,1.74-1.38,3.18-3.13,3.2
				C51.02,30.96,51.01,30.96,51,30.96z M51,25.08c-0.01,0-0.02,0-0.03,0c-0.73,0.01-1.4,0.3-1.91,0.82
				c-0.51,0.52-0.78,1.2-0.77,1.93c0.01,0.73,0.3,1.4,0.82,1.91c0.51,0.5,1.18,0.77,1.9,0.77c0.01,0,0.02,0,0.03,0
				c1.5-0.02,2.7-1.25,2.69-2.75l0,0c-0.01-0.73-0.3-1.4-0.82-1.91C52.39,25.36,51.71,25.08,51,25.08z"/>
		</g>
		<g>
			<circle class="st1" cx="57.07" cy="27.79" r="2.94"/>
			<path class="st2" d="M57.07,30.96c-0.83,0-1.61-0.32-2.21-0.9c-0.6-0.59-0.94-1.38-0.95-2.23c-0.02-1.74,1.38-3.18,3.13-3.2
				c0.01,0,0.02,0,0.04,0c1.73,0,3.14,1.39,3.16,3.13c0.01,0.84-0.31,1.64-0.9,2.25c-0.59,0.6-1.38,0.94-2.23,0.95
				C57.09,30.96,57.08,30.96,57.07,30.96z M57.07,25.08c-0.01,0-0.02,0-0.03,0c-1.5,0.02-2.7,1.25-2.69,2.75
				c0.01,0.73,0.3,1.4,0.82,1.91c0.51,0.5,1.18,0.77,1.9,0.77c0.01,0,0.02,0,0.03,0c0.73-0.01,1.4-0.3,1.91-0.82
				c0.51-0.52,0.78-1.2,0.77-1.93C59.77,26.27,58.55,25.08,57.07,25.08z"/>
		</g>
		<g>
			<circle class="st2" cx="51.25" cy="27.77" r="0.98"/>
		</g>
		<g>
			<circle class="st2" cx="56.6" cy="27.71" r="0.98"/>
		</g>
		<g>
			
				<ellipse transform="matrix(0.9999 -0.0116 0.0116 0.9999 -0.3638 0.6298)" class="st5" cx="53.93" cy="31.58" rx="3.25" ry="4.32"/>
			<path class="st2" d="M53.95,36.12c-1.9,0-3.47-2.01-3.5-4.5c-0.01-1.2,0.33-2.34,0.96-3.2c0.65-0.88,1.52-1.37,2.46-1.38
				c1.91-0.02,3.5,2,3.53,4.5v0c0.03,2.51-1.51,4.56-3.42,4.58C53.97,36.12,53.96,36.12,53.95,36.12z M53.91,27.48
				c-0.01,0-0.02,0-0.03,0c-0.8,0.01-1.55,0.44-2.11,1.2c-0.58,0.78-0.89,1.83-0.87,2.93c0.03,2.25,1.39,4.06,3.05,4.06
				c0.01,0,0.02,0,0.03,0c1.67-0.02,3.01-1.87,2.98-4.13v0C56.94,29.29,55.57,27.48,53.91,27.48z"/>
		</g>
		<g>
			<circle class="st1" cx="58.78" cy="37.63" r="0.83"/>
		</g>
	</g>
	<g>
		<path class="st3" d="M49,50.22l1.89,5.33c0.14,0.39,0.62,0.53,0.94,0.27c0.42-0.34,1.14-0.69,2.16-0.69
			c1.06,0,1.71,0.38,2.15,0.73c0.32,0.26,0.8,0.13,0.94-0.26l2.03-5.47L49,50.22z"/>
		<path class="st2" d="M56.51,56.21c-0.18,0-0.36-0.06-0.52-0.18c-0.37-0.29-0.98-0.68-2.01-0.68c-1.11,0-1.78,0.45-2.02,0.64
			c-0.21,0.17-0.47,0.22-0.73,0.15c-0.26-0.07-0.47-0.27-0.56-0.52L48.69,50l10.75-0.09l-2.15,5.77c-0.09,0.25-0.29,0.43-0.55,0.51
			C56.66,56.2,56.59,56.21,56.51,56.21z M53.99,54.9c1.17,0,1.87,0.45,2.29,0.78c0.1,0.08,0.22,0.1,0.34,0.07
			c0.12-0.03,0.21-0.12,0.25-0.23l1.92-5.16l-9.47,0.08l1.78,5.03c0.04,0.12,0.14,0.21,0.26,0.24c0.12,0.03,0.24,0.01,0.33-0.07
			C52.03,55.36,52.78,54.9,53.99,54.9z"/>
	</g>
	<g>
		<g>
			<path class="st1" d="M59.65,72.64L59.65,72.64c-0.56-0.29-0.79-0.98-0.5-1.54l1.66-3.27c0.29-0.56,0.98-0.79,1.54-0.5l0,0
				c0.56,0.29,0.79,0.98,0.5,1.54l-1.66,3.27C60.9,72.7,60.21,72.93,59.65,72.64z"/>
			<path class="st2" d="M60.16,72.99c-0.21,0-0.42-0.05-0.62-0.15c-0.67-0.34-0.94-1.17-0.6-1.84l1.66-3.27
				c0.17-0.33,0.45-0.57,0.79-0.68c0.35-0.11,0.72-0.09,1.04,0.08c0.33,0.17,0.57,0.45,0.68,0.79c0.11,0.35,0.09,0.72-0.08,1.04
				l-1.66,3.27C61.14,72.71,60.66,72.99,60.16,72.99z M61.82,67.42c-0.1,0-0.19,0.02-0.29,0.05c-0.23,0.08-0.42,0.24-0.54,0.46
				l-1.66,3.27c-0.11,0.22-0.13,0.47-0.05,0.7c0.08,0.23,0.24,0.42,0.46,0.54c0.45,0.23,1.01,0.05,1.24-0.41l1.66-3.27
				c0.11-0.22,0.13-0.47,0.05-0.7c-0.08-0.23-0.24-0.42-0.46-0.54C62.1,67.46,61.96,67.42,61.82,67.42z"/>
		</g>
		<g>
			<g>
				<circle class="st3" cx="60" cy="71.69" r="0.99"/>
				<path class="st2" d="M60,72.91c-0.18,0-0.37-0.04-0.55-0.13c-0.29-0.15-0.51-0.4-0.61-0.71c-0.1-0.31-0.08-0.64,0.07-0.93
					c0.3-0.6,1.04-0.84,1.63-0.54c0.29,0.15,0.51,0.4,0.61,0.71c0.1,0.31,0.08,0.64-0.07,0.93C60.87,72.66,60.44,72.91,60,72.91z
					 M60,70.92c-0.28,0-0.55,0.15-0.69,0.42c-0.09,0.18-0.11,0.39-0.04,0.59c0.06,0.2,0.2,0.35,0.38,0.45
					c0.38,0.19,0.84,0.04,1.03-0.34c0.09-0.18,0.11-0.39,0.04-0.59c-0.06-0.2-0.2-0.35-0.38-0.45C60.24,70.95,60.12,70.92,60,70.92z
					"/>
			</g>
		</g>
	</g>
	<g>
		<circle class="st1" cx="62.46" cy="67.29" r="1.37"/>
		<path class="st2" d="M62.46,68.89c-0.88,0-1.6-0.72-1.6-1.6c0-0.88,0.72-1.6,1.6-1.6c0.88,0,1.6,0.72,1.6,1.6
			C64.05,68.17,63.34,68.89,62.46,68.89z M62.46,66.14c-0.64,0-1.15,0.52-1.15,1.15s0.52,1.15,1.15,1.15c0.64,0,1.15-0.52,1.15-1.15
			S63.09,66.14,62.46,66.14z"/>
	</g>
</g>
<path class="st2" d="M63.34,99.75l1.62-0.93l0.07,0.13c0.17,0.29,0.29,0.58,0.35,0.84c0.05,0.25,0.05,0.51,0,0.79
	c-0.13,0.62-0.47,1.09-1.03,1.41c-0.55,0.32-1.13,0.39-1.75,0.22c-0.62-0.17-1.09-0.54-1.41-1.09c-0.33-0.57-0.41-1.17-0.24-1.79
	c0.17-0.63,0.54-1.1,1.11-1.43c0.31-0.18,0.63-0.28,0.97-0.31c0.33-0.02,0.69,0.04,1.1,0.18l-0.19,0.65
	c-0.57-0.24-1.08-0.23-1.55,0.03c-0.41,0.24-0.68,0.58-0.8,1.03c-0.12,0.44-0.06,0.88,0.19,1.3c0.25,0.44,0.62,0.71,1.09,0.81
	c0.44,0.09,0.84,0.04,1.18-0.15c0.29-0.17,0.5-0.42,0.61-0.75c0.12-0.33,0.11-0.64-0.02-0.93l-0.98,0.56L63.34,99.75z"/>
<path class="st2" d="M66.62,95.36l2.26,3.92l-0.59,0.34l-2.26-3.92L66.62,95.36z"/>
<path class="st2" d="M70.37,93.94l1.94,3.36l-0.59,0.34l-1.94-3.36l-0.9,0.52l-0.32-0.56l2.39-1.38l0.32,0.56L70.37,93.94z"/>
<path class="st2" d="M75.75,90.38l0.4,0.7c-0.51-0.09-0.94-0.03-1.31,0.18c-0.4,0.23-0.66,0.57-0.77,1.02
	c-0.11,0.45-0.05,0.88,0.19,1.3c0.24,0.41,0.58,0.68,1.02,0.8s0.86,0.07,1.26-0.16c0.21-0.12,0.37-0.26,0.47-0.41
	c0.06-0.08,0.12-0.17,0.17-0.28s0.11-0.23,0.16-0.37l0.41,0.71c-0.23,0.39-0.53,0.69-0.9,0.9c-0.56,0.32-1.15,0.4-1.77,0.24
	c-0.62-0.17-1.09-0.53-1.41-1.09c-0.29-0.5-0.38-1.04-0.27-1.62c0.13-0.71,0.52-1.26,1.16-1.63C74.92,90.48,75.32,90.38,75.75,90.38
	z"/>
<path class="st4" d="M77.99,90.13c-0.32-0.55-0.39-1.14-0.21-1.77c0.17-0.63,0.54-1.1,1.11-1.43c0.56-0.32,1.15-0.4,1.78-0.23
	c0.63,0.17,1.11,0.53,1.43,1.09c0.32,0.56,0.4,1.16,0.22,1.78c-0.18,0.63-0.55,1.11-1.12,1.44c-0.51,0.29-1.06,0.38-1.67,0.26
	C78.87,91.14,78.35,90.76,77.99,90.13z M78.59,89.8c0.25,0.43,0.6,0.71,1.05,0.82c0.45,0.11,0.86,0.06,1.24-0.16
	c0.41-0.24,0.68-0.58,0.8-1.03c0.12-0.45,0.06-0.88-0.18-1.3c-0.24-0.42-0.58-0.69-1.02-0.81c-0.44-0.12-0.87-0.07-1.28,0.17
	c-0.41,0.23-0.67,0.58-0.79,1.02C78.29,88.96,78.35,89.38,78.59,89.8z"/>
<path class="st2" d="M84.4,85.12l2.26,3.92l-0.59,0.34l-2.26-3.92L84.4,85.12z"/>
<path class="st2" d="M89,87.69l-2.41-4.19l4.58,1.34l-1.57-2.72l0.59-0.34l2.4,4.16l-4.58-1.34l1.58,2.74L89,87.69z"/>
</svg>
