<svg xmlns="http://www.w3.org/2000/svg" viewBox="0 0 100 100"><defs><style>.cls-1{fill:#c4e9f5;}.cls-2{fill:#56bad3;}.cls-3{fill:#98daf3;}.cls-4{fill:#ffd686;}.cls-5{fill:#ffeec7;}.cls-6{fill:#fec14f;}.cls-7{fill:#809158;}.cls-8{fill:#95ac65;}.cls-9{fill:#abc36e;}.cls-10{fill:#c0db75;}.cls-11{fill:#cade77;}.cls-12,.cls-29,.cls-40,.cls-42,.cls-49{fill:#fff;}.cls-13,.cls-15,.cls-16,.cls-17,.cls-21,.cls-22,.cls-23,.cls-25,.cls-27{fill:none;}.cls-14{fill:#010101;}.cls-15,.cls-16{stroke:#010101;}.cls-15,.cls-16,.cls-21,.cls-22,.cls-23{stroke-linecap:round;}.cls-15,.cls-16,.cls-21{stroke-linejoin:round;}.cls-16{stroke-width:1.5px;}.cls-17,.cls-25,.cls-27,.cls-28{stroke:#231f20;stroke-miterlimit:10;}.cls-18{fill:#231f20;}.cls-19{fill:#eff4ee;}.cls-20{fill:#fdfefe;}.cls-21,.cls-22,.cls-23{stroke:#1a0c3d;}.cls-22{stroke-miterlimit:1.67;}.cls-23{stroke-miterlimit:1.67;}.cls-24{fill:#d5c228;}.cls-25{stroke-width:0.75px;}.cls-26{fill:#3a3a3a;}.cls-27,.cls-28{stroke-width:0.5px;}.cls-28{fill:#93d3f4;}.cls-29{font-size:2.18px;}.cls-29,.cls-32,.cls-40,.cls-42,.cls-49{font-family:Acre-Medium, Acre;font-weight:500;}.cls-30{letter-spacing:-0.01em;}.cls-31{letter-spacing:-0.03em;}.cls-32{font-size:1.25px;fill:#020202;}.cls-33{letter-spacing:-0.01em;}.cls-34{letter-spacing:-0.03em;}.cls-35{letter-spacing:-0.01em;}.cls-36{letter-spacing:-0.01em;}.cls-37{letter-spacing:0em;}.cls-38{letter-spacing:-0.03em;}.cls-39{letter-spacing:-0.02em;}.cls-40{font-size:0.75px;}.cls-41{fill:#24b34b;}.cls-42{font-size:7.47px;letter-spacing:-0.01em;}.cls-43{letter-spacing:0em;}.cls-44{fill:#fdeb01;}.cls-45{fill:#ed2024;}.cls-46{fill:#cb2027;}.cls-47{fill:#791214;}.cls-48{fill:#471111;}.cls-49{font-size:1.56px;}.cls-50{letter-spacing:-0.01em;}.cls-51{fill:#32b44a;}.cls-52{fill:#48ba78;}</style></defs><g id="Layer_9" data-name="Layer 9"><path class="cls-1" d="M88.94,45.23H50.4c-32.14-9-38.11-14.41-37.8-17.62.26-2.72,5-2.87,16.61-9.58C42.64,10.32,43.84,6.26,50.4,6c3-.1,5.73.67,18.08,8.17,8.28,5,15.18,9.61,20.46,13.25Z"/></g><g id="Layer_5" data-name="Layer 5"><polyline class="cls-2" points="77.31 77.47 73.65 65.91 83.84 45.45 88.94 45.45 88.94 74.44"/><polyline class="cls-3" points="74.1 45.23 86.1 45.23 86.1 75.37 46.52 92.38 13.9 74.53 13.9 45.23"/><path class="cls-4" d="M33.21,87.36l.67-2.17L50.29,81.8,62.6,85.19l0,5.15a61.8,61.8,0,0,1-12.36,1.27,61.26,61.26,0,0,1-11.36-1.07"/><polygon class="cls-4" points="66.7 85.19 62.6 85.19 56.01 73.64 64.72 78.74 66.7 85.19"/><polygon class="cls-5" points="61.11 78.74 62.6 85.19 33.88 85.19 35.87 78.74 48.49 75.34 61.11 78.74"/><polygon class="cls-6" points="62.73 72.28 64.72 78.74 61.11 78.74 54.52 67.19 62.73 72.28"/><polygon class="cls-4" points="59.62 72.28 61.11 78.74 35.87 78.74 37.85 72.28 48.74 68.89 59.62 72.28"/><polygon class="cls-4" points="60.74 65.83 62.73 72.28 59.62 72.28 55.46 69.06 58.13 65.83 60.74 65.83"/><polygon class="cls-5" points="58.13 65.83 59.62 72.28 37.85 72.28 39.84 65.83 58.13 65.83"/><path class="cls-7" d="M67.09,37.13a9.74,9.74,0,0,0-7.63-4.42H54.37L66.74,45.44h5.1Z"/><path class="cls-8" d="M66.74,45.44H41.8V32.71H54.37A9.73,9.73,0,0,1,62,37.13Z"/><path class="cls-9" d="M48.94,37.14,46,32a9.72,9.72,0,0,0-7.62-4.42H33.31L48.59,45.45h5.1Z"/><path class="cls-10" d="M40.93,32l7.66,13.42H11.65V27.61H33.31A9.73,9.73,0,0,1,40.93,32Z"/><polygon class="cls-9" points="81.21 20.82 88.94 39.5 81.21 39.5 79.51 33.13 81.21 20.82"/><polygon class="cls-11" points="81.21 20.82 81.21 39.5 73.48 39.5 81.21 20.82"/><path class="cls-12" d="M11.65,49.54l54.14,1-54.14,1a1,1,0,0,1,0-2Z"/><path class="cls-12" d="M46.91,55.54a37.72,37.72,0,0,1,5.25-.68,40,40,0,0,1,5.25,0c1.76.12,3.51.45,5.26.5a35.48,35.48,0,0,0,5.25-.22c1.75-.2,3.5-.34,5.26-.4s3.5-.14,5.25-.12a66.8,66.8,0,0,1,10.51,1,.1.1,0,0,1,.08.12.11.11,0,0,1-.08.08,68,68,0,0,1-10.51,1c-1.75,0-3.5,0-5.25-.12s-3.51-.2-5.26-.39A35.49,35.49,0,0,0,62.67,56c-1.75.06-3.5.38-5.26.51a40,40,0,0,1-5.25-.06,36.25,36.25,0,0,1-5.25-.67.1.1,0,0,1-.08-.12A.11.11,0,0,1,46.91,55.54Z"/><path class="cls-12" d="M37.85,55.64a42.06,42.06,0,0,1-6.8.5,42,42,0,0,1-6.8-.5,39.84,39.84,0,0,1,6.8-.5A39.91,39.91,0,0,1,37.85,55.64Z"/><path class="cls-12" d="M65.16,65.83l24.45-1a1,1,0,0,1,.08,2h-.08Z"/><path class="cls-12" d="M13.9,72.81l20.83,1-20.83,1a1,1,0,0,1-1-1,1,1,0,0,1,1-1Z"/><line class="cls-13" x1="84.22" y1="76.58" x2="50.29" y2="95.9"/><line class="cls-13" x1="50.29" y1="95.9" x2="11.65" y2="73.81"/></g><g id="Layer_7" data-name="Layer 7"><path class="cls-14" d="M35.87,45.45l53.07-1a1,1,0,0,1,0,2h0Z"/><path class="cls-14" d="M11.65,44.45l16.63,1-16.63,1a1,1,0,0,1-1.06-.94,1,1,0,0,1,.94-1.06A.24.24,0,0,1,11.65,44.45Z"/><path class="cls-14" d="M17,27.61q5.64-.45,11.3-.61c1.88-.07,3.76-.09,5.65-.14l2.83,0a20.7,20.7,0,0,1,2.91.13,8.77,8.77,0,0,1,5.37,2.73,17.2,17.2,0,0,1,1.67,2.42c.5.81,1,1.63,1.43,2.46a109.93,109.93,0,0,1,5,10.18l-6-9.58-1.53-2.35A17.18,17.18,0,0,0,44,30.65a7.44,7.44,0,0,0-4.54-2.2,52.75,52.75,0,0,0-5.54-.17c-1.88,0-3.76-.05-5.64-.11Q22.65,28,17,27.61Z"/><line class="cls-15" x1="79.51" y1="25.25" x2="73.48" y2="39.5"/><line class="cls-15" x1="73.48" y1="39.5" x2="86.33" y2="39.5"/><path class="cls-16" d="M81.6,39.88v5.56"/><path class="cls-16" d="M80.77,39.88v5.56"/><path class="cls-14" d="M46.32,32.71a66.25,66.25,0,0,1,8-.67c1.33-.05,2.66,0,4,0a14.63,14.63,0,0,1,4.13.5A7.57,7.57,0,0,1,66,35a15.76,15.76,0,0,1,1.12,1.73c.34.57.67,1.14,1,1.72,1.33,2.3,2.61,4.62,3.76,7-1.68-2.07-3.24-4.21-4.74-6.39-.39-.54-.76-1.08-1.13-1.63a15.09,15.09,0,0,0-1.11-1.55A6.22,6.22,0,0,0,61.93,34a14.17,14.17,0,0,0-3.72-.51l-4-.23C51.62,33.07,49,32.93,46.32,32.71Z"/><line class="cls-17" x1="84.22" y1="28.1" x2="86.33" y2="33.19"/></g><g id="Layer_6" data-name="Layer 6"><path class="cls-18" d="M39.84,65.83c3.48-.21,7-.22,10.45-.25s7,0,10.46.25c-3.49.21-7,.22-10.46.25S43.32,66,39.84,65.83Z"/><path class="cls-18" d="M35.87,78.74c2.4-.09,4.8-.16,7.21-.19l7.21-.06,7.21.06c2.41,0,4.81.1,7.22.19-2.41.09-4.81.16-7.22.19L50.29,79l-7.21-.06C40.67,78.9,38.27,78.83,35.87,78.74Z"/><path class="cls-18" d="M35.87,78.74c2.4-.09,4.8-.16,7.21-.19l7.21-.06,7.21.06c2.41,0,4.81.1,7.22.19-2.41.09-4.81.16-7.22.19L50.29,79l-7.21-.06C40.67,78.9,38.27,78.83,35.87,78.74Z"/><path class="cls-18" d="M39.19,85.19c3.7-.2,7.4-.22,11.1-.25s7.4,0,11.11.25c-3.71.21-7.41.22-11.11.25S42.89,85.4,39.19,85.19Z"/><path class="cls-18" d="M37.85,72.28c4.15-.2,8.3-.22,12.44-.25s8.29,0,12.44.25c-4.15.21-8.29.23-12.44.25S42,72.49,37.85,72.28Z"/><path class="cls-18" d="M34.32,82.48l5.52-16.65L35,82.7a.37.37,0,0,1-.46.26.37.37,0,0,1-.26-.46Z"/><path class="cls-18" d="M65.54,82.7,60.75,65.83l5.51,16.65A.38.38,0,0,1,66,83a.38.38,0,0,1-.47-.24Z"/></g><g id="Layer_3" data-name="Layer 3"><path class="cls-19" d="M46.82,48l4.63,5.56A3.62,3.62,0,0,1,46.82,48Z"/><path class="cls-19" d="M51.45,53.54,43.77,60a2.54,2.54,0,0,1-3.58-.31L38.8,58a2.54,2.54,0,0,1,.32-3.57L46.82,48a3.62,3.62,0,0,0,4.63,5.56Z"/><polygon class="cls-20" points="30.85 56.09 40.65 67.8 33.58 73.72 28.68 67.85 23.78 61.99 30.85 56.09"/><path class="cls-20" d="M51.45,53.54A3.62,3.62,0,0,0,46.82,48l-7.7,6.43A2.54,2.54,0,0,0,38.8,58l1.39,1.66a2.54,2.54,0,0,0,3.58.31Zm4.12-4.74A5,5,0,0,1,55,55.85L40.65,67.8l-9.8-11.71,14.3-12a5,5,0,0,1,7.05.63Z"/><path class="cls-20" d="M26.37,79.75a5,5,0,0,1-7.07-.63l-1.68-2,11.06-9.24,4.9,5.86Z"/><path class="cls-20" d="M28.68,67.85,17.62,77.09l-1.69-2A5,5,0,0,1,16.57,68l7.21-6Z"/><path class="cls-21" d="M40.65,67.8,55,55.85a5,5,0,0,0,.62-7.05l-3.37-4a5,5,0,0,0-7.05-.63l-14.3,12L23.78,62l-7.21,6a5,5,0,0,0-.64,7.06l1.69,2,1.68,2a5,5,0,0,0,7.07.63l7.21-6Z"/><polyline class="cls-21" points="23.78 61.99 28.68 67.85 33.58 73.72"/><polyline class="cls-21" points="30.85 56.08 30.85 56.09 40.65 67.8"/><line class="cls-22" x1="28.68" y1="67.85" x2="17.62" y2="77.09"/><path class="cls-23" d="M46.82,48l-7.7,6.43A2.54,2.54,0,0,0,38.8,58l1.39,1.66a2.54,2.54,0,0,0,3.58.31l7.68-6.41"/><path class="cls-22" d="M51.45,53.54a3.62,3.62,0,1,0-5.09-.47A3.62,3.62,0,0,0,51.45,53.54Z"/></g><g id="Layer_1" data-name="Layer 1"><path class="cls-24" d="M92.33,25.73V74.26l-42,24.27-42-24.27V25.73l42-24.27Zm-6,45.07V29.19l-36-20.8-36,20.8V70.8l36,20.81Z"/><polygon class="cls-25" points="50.29 98.53 8.26 74.26 8.26 25.73 50.29 1.46 92.33 25.73 92.33 74.26 50.29 98.53"/><polygon class="cls-25" points="14.26 70.8 14.26 29.19 50.29 8.39 86.33 29.19 86.33 70.8 50.29 91.61 14.26 70.8"/></g><g id="Layer_8" data-name="Layer 8"><path class="cls-26" d="M39.52,66.57a3.09,3.09,0,0,0,3.07,3.09H57.41a3.09,3.09,0,0,0,3.07-3.09V32.06A3.09,3.09,0,0,0,57.41,29H42.59a3.09,3.09,0,0,0-3.07,3.08Zm4.15,4.66a5.49,5.49,0,0,1-5.49-5.48V32.89a5.49,5.49,0,0,1,5.49-5.49H56.33a5.49,5.49,0,0,1,5.49,5.49V65.75a5.49,5.49,0,0,1-5.49,5.48Z"/><path class="cls-27" d="M56.33,71.23H43.67a5.49,5.49,0,0,1-5.49-5.48V32.89a5.49,5.49,0,0,1,5.49-5.49H56.33a5.49,5.49,0,0,1,5.49,5.49V65.75A5.49,5.49,0,0,1,56.33,71.23Z"/><path class="cls-27" d="M39.52,66.57V32.06A3.09,3.09,0,0,1,42.59,29H57.41a3.09,3.09,0,0,1,3.07,3.08V66.57a3.09,3.09,0,0,1-3.07,3.09H42.59A3.09,3.09,0,0,1,39.52,66.57Z"/><rect class="cls-18" x="39.42" y="28.72" width="21.1" height="40.94" rx="2"/><rect class="cls-28" x="39.47" y="33.63" width="21" height="2.73"/><text class="cls-29" transform="translate(44.46 40.31)">Air <tspan class="cls-30" x="3.45" y="0">Q</tspan><tspan x="5.26" y="0">ualit</tspan><tspan class="cls-31" x="9.66" y="0">y</tspan></text><text class="cls-32" transform="translate(42.45 35.36)">Air <tspan class="cls-33" x="1.97" y="0">Q</tspan><tspan x="3.01" y="0">ualit</tspan><tspan class="cls-34" x="5.52" y="0">y</tspan><tspan x="6.13" y="0" xml:space="preserve"> I</tspan><tspan class="cls-35" x="6.87" y="0">n</tspan><tspan x="7.58" y="0">d</tspan><tspan class="cls-36" x="8.35" y="0">e</tspan><tspan class="cls-37" x="9.03" y="0">x </tspan><tspan class="cls-38" x="10.09" y="0">R</tspan><tspan x="10.75" y="0">epor</tspan><tspan class="cls-39" x="13.37" y="0">t</tspan><tspan x="13.72" y="0">er</tspan></text><text class="cls-40" transform="translate(39.99 33.35)">10:00 AM</text><polygon class="cls-41" points="56.25 54.46 49.95 58.03 43.7 54.37 43.75 47.13 50.05 43.55 56.3 47.21 56.25 54.46"/><text class="cls-42" transform="translate(45.89 52.46)">2<tspan class="cls-43" x="3.97" y="0">5</tspan></text><rect class="cls-41" x="42.6" y="62.03" width="2.55" height="1.45"/><rect class="cls-44" x="45.09" y="62.03" width="2.55" height="1.45"/><rect class="cls-45" x="47.58" y="62.03" width="2.55" height="1.45"/><rect class="cls-46" x="50.07" y="62.03" width="2.55" height="1.45"/><rect class="cls-47" x="52.56" y="62.03" width="2.55" height="1.45"/><rect class="cls-48" x="55.05" y="62.03" width="2.55" height="1.45"/><text class="cls-49" transform="translate(48.03 55.67)"><tspan class="cls-50">G</tspan><tspan x="1.16" y="0">ood</tspan></text><rect class="cls-12" x="56.97" y="32.78" width="0.23" height="0.55" rx="0.07"/><rect class="cls-12" x="57.24" y="32.6" width="0.23" height="0.74" rx="0.07"/><rect class="cls-12" x="57.79" y="32.2" width="0.23" height="1.14" rx="0.07"/><rect class="cls-12" x="57.52" y="32.36" width="0.23" height="0.97" rx="0.07"/><rect class="cls-12" x="58.94" y="32.76" width="1.22" height="0.57"/><rect class="cls-12" x="58.76" y="32.9" width="0.17" height="0.28"/><rect class="cls-51" x="59.28" y="32.84" width="0.78" height="0.41"/><path id="Shape" class="cls-12" d="M60.88,88.73,62,88.09l.06.1a2.18,2.18,0,0,1,.23.59,1.28,1.28,0,0,1,0,.55,1.43,1.43,0,0,1-.74,1,1.64,1.64,0,0,1-2.21-.65,1.63,1.63,0,0,1-.15-1.26,1.57,1.57,0,0,1,.79-1,1.73,1.73,0,0,1,.68-.21,2,2,0,0,1,.77.13l-.14.46a1.12,1.12,0,0,0-1.08,0,1.15,1.15,0,0,0-.57.71,1.13,1.13,0,0,0,.12.91,1.19,1.19,0,0,0,1.59.48,1,1,0,0,0,.44-.51.88.88,0,0,0,0-.66l-.69.39Z"/><rect id="Rectangle-path" class="cls-12" x="63.51" y="85.62" width="0.48" height="3.18" transform="translate(-34.45 42.19) rotate(-29.2)"/><polygon id="Shape-2" data-name="Shape" class="cls-12" points="65.79 84.76 67.12 87.14 66.7 87.38 65.37 85 64.73 85.35 64.51 84.96 66.2 84.01 66.42 84.41 65.79 84.76"/><path id="Shape-3" data-name="Shape" class="cls-12" d="M69.57,82.33l.27.49a1.4,1.4,0,0,0-.92.12,1.11,1.11,0,0,0-.54.71,1.13,1.13,0,0,0,.12.91,1.16,1.16,0,0,0,.7.57,1.11,1.11,0,0,0,.89-.1,1.08,1.08,0,0,0,.34-.28,1.76,1.76,0,0,0,.12-.2,2.17,2.17,0,0,0,.12-.26l.28.51a1.73,1.73,0,0,1-.64.62,1.57,1.57,0,0,1-1.25.16,1.66,1.66,0,0,1-1.16-1.92,1.62,1.62,0,0,1,.83-1.13,1.58,1.58,0,0,1,.84-.2"/><path id="Shape-4" data-name="Shape" class="cls-52" d="M72,82a1.11,1.11,0,0,0,.73.58,1.1,1.1,0,0,0,.87-.1,1.18,1.18,0,0,0,.46-1.62,1.18,1.18,0,0,0-.72-.58,1.12,1.12,0,0,0-.89.11A1.16,1.16,0,0,0,72,82m-.43.23A1.53,1.53,0,0,1,71.45,81a1.62,1.62,0,0,1,.79-1,1.58,1.58,0,0,1,1.26-.14,1.63,1.63,0,0,1,1.13,2,1.66,1.66,0,0,1-.8,1,1.68,1.68,0,0,1-1.17.17,1.57,1.57,0,0,1-1.08-.82"/><rect id="Rectangle-path-2" data-name="Rectangle-path" class="cls-12" x="75.94" y="78.67" width="0.48" height="3.18" transform="translate(-29.48 47.37) rotate(-29.2)"/><polygon id="Shape-5" data-name="Shape" class="cls-12" points="78.78 80.62 77.13 77.66 80.33 78.65 79.25 76.72 79.67 76.49 81.32 79.43 78.12 78.45 79.2 80.39 78.78 80.62"/></g></svg>