<svg id="eeek1zwhwfk51" xmlns="http://www.w3.org/2000/svg" xmlns:xlink="http://www.w3.org/1999/xlink" viewBox="0 0 594 685.980000" shape-rendering="geometricPrecision" text-rendering="geometricPrecision"><style><![CDATA[#eeek1zwhwfk510_tr {animation: eeek1zwhwfk510_tr__tr 6000ms linear infinite normal forwards}@keyframes eeek1zwhwfk510_tr__tr { 0% {transform: translate(137.636974px,351.243143px) rotate(0deg)} 100% {transform: translate(137.636974px,351.243143px) rotate(-358.166663deg)} }#eeek1zwhwfk527_tr {animation: eeek1zwhwfk527_tr__tr 6000ms linear infinite normal forwards}@keyframes eeek1zwhwfk527_tr__tr { 0% {transform: translate(456.596619px,350.578343px) rotate(0deg)} 100% {transform: translate(456.596619px,350.578343px) rotate(-359.066630deg)} }#eeek1zwhwfk543_tr {animation: eeek1zwhwfk543_tr__tr 6000ms linear infinite normal forwards}@keyframes eeek1zwhwfk543_tr__tr { 0% {transform: translate(296.900000px,267.990000px) rotate(0deg)} 100% {transform: translate(296.900000px,267.990000px) rotate(-357.518091deg)} }]]></style><defs><linearGradient id="eeek1zwhwfk58-fill" x1="299" y1="624.700000" x2="299" y2="519.180000" spreadMethod="pad" gradientUnits="userSpaceOnUse"><stop id="eeek1zwhwfk58-fill-0" offset="0%" stop-color="rgb(109,190,69)"/><stop id="eeek1zwhwfk58-fill-1" offset="100%" stop-color="rgb(178,210,54)"/></linearGradient><linearGradient id="eeek1zwhwfk558-fill" x1="300.970000" y1="612.500000" x2="300.970000" y2="553.820000" spreadMethod="pad" gradientUnits="userSpaceOnUse"><stop id="eeek1zwhwfk558-fill-0" offset="0%" stop-color="rgb(2,140,69)"/><stop id="eeek1zwhwfk558-fill-1" offset="100%" stop-color="rgb(77,183,72)"/></linearGradient></defs><path id="eeek1zwhwfk52" d="M53,202.140000C103.304476,114.959644,196.307356,61.248867,296.960000,61.248867C397.612644,61.248867,490.615524,114.959644,540.920000,202.140000L540.920000,483.830000C532.920000,495.050000,447.920000,609.240000,296.710000,609.110000C145.840000,609,61.110000,495.120000,53,483.830000Z" transform="matrix(1 0 0 1 -0.03999999910593 0)" fill="rgb(109,207,246)" stroke="none" stroke-width="1"/><g id="eeek1zwhwfk53"><path id="eeek1zwhwfk54" d="M130,199.050000C130.788715,199.054720,131.575337,199.131708,132.350000,199.280000C133.584667,194.170962,137.797750,190.323304,142.997546,189.555977C148.197342,188.788650,153.342229,191.255365,156,195.790000C158.297319,194.306212,161.111785,193.854358,163.758116,194.544457C166.404446,195.234556,168.639836,197.003291,169.920000,199.420000C174.627505,198.284803,179.568314,199.956940,182.618853,203.717722C185.669393,207.478504,186.286248,212.657994,184.204292,217.030034C182.122337,221.402075,177.712445,224.187840,172.870000,224.190000C171.036838,224.192254,169.226239,223.785724,167.570000,223C163.615358,228.229215,156.358134,229.642736,150.730000,226.280000C147.973628,228.928343,144.184684,230.217889,140.385028,229.800854C136.585372,229.383818,133.166330,227.303152,131.050000,224.120000C130.683617,224.140386,130.316383,224.140386,129.950000,224.120000C125.462744,224.120000,121.316349,221.726078,119.072721,217.840000C116.829093,213.953923,116.829093,209.166078,119.072721,205.280000C121.316349,201.393922,125.462744,199,129.950000,199Z" transform="matrix(1 0 0 1 -0.03999999910593 0)" fill="rgb(167,220,234)" stroke="none" stroke-width="1"/><path id="eeek1zwhwfk55" d="M539,230.610000C533.186354,228.596580,526.760465,230.975919,523.660000,236.290000C522.078741,235.283437,520.244436,234.745976,518.370000,234.740000C514.758638,234.744668,511.442498,236.735120,509.740000,239.920000C508.757392,239.683800,507.750594,239.562985,506.740000,239.560000C499.797781,239.560000,494.170000,245.187781,494.170000,252.130000C494.170000,259.072219,499.797781,264.700000,506.740000,264.700000C508.576241,264.701065,510.389837,264.294628,512.050000,263.510000C515.998511,268.741928,523.255781,270.156298,528.880000,266.790000C531.277611,269.101984,534.479264,270.392684,537.810000,270.390000C538.194121,270.390222,538.577987,270.370194,538.960000,270.330000L538.960000,230.610000Z" transform="matrix(1 0 0 1 -0.03999999910593 0)" fill="rgb(167,220,234)" stroke="none" stroke-width="1"/><path id="eeek1zwhwfk56" d="M361.760000,158.240000C362.920507,158.244545,364.078344,158.351628,365.220000,158.560000C367.014753,151.049017,373.200623,145.386823,380.840660,144.261734C388.480698,143.136645,396.036224,146.775250,399.920000,153.450000C403.286498,151.274425,407.411534,150.611635,411.290111,151.623107C415.168688,152.634579,418.444700,155.227446,420.320000,158.770000C428.179644,156.839596,436.378243,160.268533,440.523299,167.219718C444.668355,174.170903,443.787638,183.013921,438.353002,189.011020C432.918365,195.008118,424.204515,196.752666,416.880000,193.310000C411.098982,200.979019,400.470872,203.064990,392.220000,198.150000C388.188424,202.040540,382.636479,203.938398,377.066955,203.329865C371.497432,202.721332,366.486313,199.669341,363.390000,195C362.855399,195.059616,362.317914,195.089662,361.780000,195.090000C351.612438,195.090000,343.370000,186.847562,343.370000,176.680000C343.370000,166.512438,351.612438,158.270000,361.780000,158.270000Z" transform="matrix(1 0 0 1 -0.03999999910593 0)" fill="rgb(167,220,234)" stroke="none" stroke-width="1"/><path id="eeek1zwhwfk57" d="M99,279.080000C97.536592,279.080202,96.078837,279.261581,94.660000,279.620000C92.169173,274.938703,87.302704,272.009596,82,272C79.253242,272.013231,76.566333,272.803702,74.250000,274.280000C70.864698,268.474041,64.650820,264.902584,57.930000,264.900000C56.925167,264.899052,55.921902,264.979313,54.930000,265.140000L54.930000,324.200000C59.287307,323.870931,63.393269,322.031913,66.540000,319C74.787805,323.913719,85.412517,321.827569,91.190000,314.160000C98.019145,317.340220,106.097025,316.036351,111.578769,310.869002C117.060514,305.701653,118.838667,297.714764,116.066871,290.709897C113.295076,283.705029,106.533307,279.097350,99,279.080000Z" transform="matrix(1 0 0 1 -0.03999999910593 0)" fill="rgb(167,220,234)" stroke="none" stroke-width="1"/></g><path id="eeek1zwhwfk58" d="M105.560000,519.180000L492.430000,519.180000L492.430000,562.560000C469.120000,579.240000,398.430000,625.300000,297.010000,624.690000C198.010000,624.100000,129.080000,579.390000,105.560000,562.560000Z" transform="matrix(1 0 0 1 -0.03999999910593 0)" fill="url(#eeek1zwhwfk58-fill)" stroke="none" stroke-width="1"/><polygon id="eeek1zwhwfk59" points="145.640000,545.970000 129.350000,545.970000 133.580000,354.600000 141.440000,354.600000 145.640000,545.970000" fill="rgb(213,213,213)" stroke="none" stroke-width="1"/><g id="eeek1zwhwfk510_tr" transform="translate(137.636974,351.243143) rotate(0)"><g id="eeek1zwhwfk510" transform="translate(-137.611116,-351.239014)"><polygon id="eeek1zwhwfk511" display="none" points="141.440000,354.600000 137.510000,354.600000 137.510000,545.970000 145.640000,545.970000 141.440000,354.600000" fill="rgb(230,231,232)" stroke="none" stroke-width="1"/><polygon id="eeek1zwhwfk512" points="137.510000,270.390000 147.890000,335.330000 137.510000,350.910000 127.110000,335.330000 137.510000,270.390000" fill="rgb(230,231,232)" stroke="none" stroke-width="1"/><polygon id="eeek1zwhwfk513" points="210.480000,384.950000 147.230000,366.920000 137.510000,350.910000 156.030000,348.080000 210.480000,384.950000" fill="rgb(230,231,232)" stroke="none" stroke-width="1"/><polygon id="eeek1zwhwfk514" points="64.520000,384.950000 127.770000,366.920000 137.510000,350.910000 118.990000,348.080000 64.520000,384.950000" fill="rgb(230,231,232)" stroke="none" stroke-width="1"/><polygon id="eeek1zwhwfk515" points="137.510000,350.910000 147.890000,335.330000 137.510000,270.390000 137.510000,350.910000" fill="rgb(230,231,232)" stroke="none" stroke-width="1"/><polygon id="eeek1zwhwfk516" points="137.510000,350.910000 64.520000,384.950000 127.770000,366.920000 137.510000,350.910000" fill="rgb(230,231,232)" stroke="none" stroke-width="1"/><polygon id="eeek1zwhwfk517" points="147.230000,366.920000 210.480000,384.950000 137.510000,350.910000 147.230000,366.920000" fill="rgb(230,231,232)" stroke="none" stroke-width="1"/></g></g><circle id="eeek1zwhwfk518" r="8.850000" transform="matrix(1 0 0 1 137.50999999999999 350.91000000000003)" fill="rgb(21,0,62)" stroke="none" stroke-width="1"/><circle id="eeek1zwhwfk519" r="4.770000" transform="matrix(1 0 0 1 137.50999999999999 350.91000000000003)" fill="rgb(37,232,153)" stroke="none" stroke-width="1"/><polygon id="eeek1zwhwfk520" points="132.150000,419.040000 131.900000,430.590000 137.510000,430.590000 137.510000,419.040000 132.150000,419.040000" fill="rgb(15,206,124)" stroke="none" stroke-width="1"/><path id="eeek1zwhwfk521" d="M143.140000,430.590000L143.030000,425.670000Z" transform="matrix(1 0 0 1 -0.03999999910593 0)" fill="rgb(188,190,192)" stroke="none" stroke-width="1"/><polygon id="eeek1zwhwfk522" points="142.990000,425.670000 142.850000,419.040000 137.510000,419.040000 137.510000,430.590000 143.100000,430.590000 142.990000,425.670000" fill="rgb(15,206,124)" stroke="none" stroke-width="1"/><polygon id="eeek1zwhwfk523" points="131.130000,465.800000 130.870000,477.350000 137.510000,477.350000 137.510000,465.800000 131.130000,465.800000" fill="rgb(15,206,124)" stroke="none" stroke-width="1"/><path id="eeek1zwhwfk524" d="M144.170000,477.350000L144.020000,470.610000Z" transform="matrix(1 0 0 1 -0.03999999910593 0)" fill="rgb(188,190,192)" stroke="none" stroke-width="1"/><polygon id="eeek1zwhwfk525" points="143.980000,470.610000 143.890000,465.800000 137.510000,465.800000 137.510000,477.350000 144.130000,477.350000 143.980000,470.610000" fill="rgb(15,206,124)" stroke="none" stroke-width="1"/><polygon id="eeek1zwhwfk526" points="464.640000,545.970000 448.360000,545.970000 452.560000,354.600000 460.420000,354.600000 464.640000,545.970000" fill="rgb(213,213,213)" stroke="none" stroke-width="1"/><g id="eeek1zwhwfk527_tr" transform="translate(456.596619,350.578343) rotate(0)"><g id="eeek1zwhwfk527" transform="translate(-456.531503,-350.627475)"><polygon id="eeek1zwhwfk528" points="456.490000,270.390000 466.890000,335.330000 456.490000,350.910000 446.110000,335.330000 456.490000,270.390000" fill="rgb(230,231,232)" stroke="none" stroke-width="1"/><polygon id="eeek1zwhwfk529" points="529.480000,384.950000 466.240000,366.920000 456.490000,350.910000 475.010000,348.080000 529.480000,384.950000" fill="rgb(230,231,232)" stroke="none" stroke-width="1"/><polygon id="eeek1zwhwfk530" points="383.520000,384.950000 446.770000,366.920000 456.490000,350.910000 437.980000,348.080000 383.520000,384.950000" fill="rgb(230,231,232)" stroke="none" stroke-width="1"/><polygon id="eeek1zwhwfk531" points="456.490000,350.910000 466.890000,335.330000 456.490000,270.390000 456.490000,350.910000" fill="rgb(230,231,232)" stroke="none" stroke-width="1"/><polygon id="eeek1zwhwfk532" points="456.490000,350.910000 383.520000,384.950000 446.770000,366.920000 456.490000,350.910000" fill="rgb(230,231,232)" stroke="none" stroke-width="1"/><polygon id="eeek1zwhwfk533" points="466.240000,366.920000 529.480000,384.950000 456.490000,350.910000 466.240000,366.920000" fill="rgb(230,231,232)" stroke="none" stroke-width="1"/></g></g><circle id="eeek1zwhwfk534" r="8.850000" transform="matrix(1 0 0 1 456.49000000000001 350.91000000000003)" fill="rgb(21,0,62)" stroke="none" stroke-width="1"/><circle id="eeek1zwhwfk535" r="4.770000" transform="matrix(1 0 0 1 456.49000000000001 350.91000000000003)" fill="rgb(37,232,153)" stroke="none" stroke-width="1"/><polygon id="eeek1zwhwfk536" points="451.150000,419.040000 450.900000,430.590000 456.490000,430.590000 456.490000,419.040000 451.150000,419.040000" fill="rgb(15,206,124)" stroke="none" stroke-width="1"/><path id="eeek1zwhwfk537" d="M462.140000,430.590000L462.030000,425.670000Z" transform="matrix(1 0 0 1 -0.03999999910593 0)" fill="rgb(188,190,192)" stroke="none" stroke-width="1"/><polygon id="eeek1zwhwfk538" points="461.990000,425.670000 461.850000,419.040000 456.490000,419.040000 456.490000,430.590000 462.100000,430.590000 461.990000,425.670000" fill="rgb(15,206,124)" stroke="none" stroke-width="1"/><polygon id="eeek1zwhwfk539" points="450.110000,465.800000 449.880000,477.350000 456.490000,477.350000 456.490000,465.800000 450.110000,465.800000" fill="rgb(15,206,124)" stroke="none" stroke-width="1"/><path id="eeek1zwhwfk540" d="M463.170000,477.350000L463.020000,470.610000Z" transform="matrix(1 0 0 1 -0.03999999910593 0)" fill="rgb(188,190,192)" stroke="none" stroke-width="1"/><polygon id="eeek1zwhwfk541" points="462.980000,470.610000 462.870000,465.800000 456.490000,465.800000 456.490000,477.350000 463.130000,477.350000 462.980000,470.610000" fill="rgb(15,206,124)" stroke="none" stroke-width="1"/><polygon id="eeek1zwhwfk542" points="309.960000,580.540000 283.870000,580.540000 290.600000,273.910000 303.200000,273.910000 309.960000,580.540000" fill="rgb(213,213,213)" stroke="none" stroke-width="1"/><g id="eeek1zwhwfk543_tr" transform="translate(296.900000,267.990000) rotate(0)"><g id="eeek1zwhwfk543" transform="translate(-296.900000,-267.990000)"><polygon id="eeek1zwhwfk544" points="296.900000,138.970000 313.570000,243.040000 296.900000,267.990000 280.260000,243.040000 296.900000,138.970000" fill="rgb(230,231,232)" stroke="none" stroke-width="1"/><polygon id="eeek1zwhwfk545" points="413.860000,322.530000 312.510000,293.650000 296.900000,267.990000 326.570000,263.450000 413.860000,322.530000" fill="rgb(230,231,232)" stroke="none" stroke-width="1"/><polygon id="eeek1zwhwfk546" points="179.970000,322.530000 281.320000,293.650000 296.900000,267.990000 267.230000,263.450000 179.970000,322.530000" fill="rgb(230,231,232)" stroke="none" stroke-width="1"/><polygon id="eeek1zwhwfk547" points="296.900000,267.990000 313.570000,243.040000 296.900000,138.970000 296.900000,267.990000" fill="rgb(230,231,232)" stroke="none" stroke-width="1"/><polygon id="eeek1zwhwfk548" points="296.900000,267.990000 179.970000,322.530000 281.320000,293.650000 296.900000,267.990000" fill="rgb(230,231,232)" stroke="none" stroke-width="1"/><polygon id="eeek1zwhwfk549" points="312.510000,293.650000 413.860000,322.530000 296.900000,267.990000 312.510000,293.650000" fill="rgb(230,231,232)" stroke="none" stroke-width="1"/></g></g><circle id="eeek1zwhwfk550" r="14.180000" transform="matrix(1 0 0 1 296.89999999999998 267.99000000000001)" fill="rgb(21,0,62)" stroke="none" stroke-width="1"/><circle id="eeek1zwhwfk551" r="7.640000" transform="matrix(1 0 0 1 296.89999999999998 267.99000000000001)" fill="rgb(37,232,153)" stroke="none" stroke-width="1"/><polygon id="eeek1zwhwfk552" points="288.350000,377.150000 287.940000,395.670000 296.900000,395.670000 296.900000,377.150000 288.350000,377.150000" fill="rgb(15,206,124)" stroke="none" stroke-width="1"/><path id="eeek1zwhwfk553" d="M305.930000,395.670000L305.760000,387.790000Z" transform="matrix(1 0 0 1 -0.03999999910593 0)" fill="rgb(188,190,192)" stroke="none" stroke-width="1"/><polygon id="eeek1zwhwfk554" points="305.720000,387.790000 305.480000,377.150000 296.900000,377.150000 296.900000,395.670000 305.890000,395.670000 305.720000,387.790000" fill="rgb(15,206,124)" stroke="none" stroke-width="1"/><polygon id="eeek1zwhwfk555" points="286.680000,452.080000 286.300000,470.590000 296.900000,470.590000 296.900000,452.080000 286.680000,452.080000" fill="rgb(15,206,124)" stroke="none" stroke-width="1"/><path id="eeek1zwhwfk556" d="M307.570000,470.590000L307.340000,459.780000Z" transform="matrix(1 0 0 1 -0.03999999910593 0)" fill="rgb(188,190,192)" stroke="none" stroke-width="1"/><polygon id="eeek1zwhwfk557" points="307.300000,459.780000 307.120000,452.080000 296.900000,452.080000 296.900000,470.590000 307.530000,470.590000 307.300000,459.780000" fill="rgb(15,206,124)" stroke="none" stroke-width="1"/><path id="eeek1zwhwfk558" d="M153.440000,553.820000L448.500000,553.820000L448.500000,594.820000C398.920790,606.927803,348.034821,612.859461,297,612.480000C248.623898,612.229391,200.444357,606.302183,153.450000,594.820000Z" transform="matrix(1 0 0 1 -0.03999999910593 0)" fill="url(#eeek1zwhwfk558-fill)" stroke="none" stroke-width="1"/><g id="eeek1zwhwfk559"><g id="eeek1zwhwfk560"><path id="eeek1zwhwfk561" d="M297,0L0,171.490000L0,514.490000L297,686L594,514.490000L594,171.490000ZM542.800000,484.890000L297.070000,626.800000L51.260000,484.890000L51.260000,201.140000L297.070000,59.140000L542.800000,201.140000Z" transform="matrix(1 0 0 1 -0.03999999910593 0)" fill="rgb(250,219,165)" stroke="none" stroke-width="1"/><path id="eeek1zwhwfk562" d="M297,0L0,171.490000L0,514.490000L297,686L594,514.490000L594,171.490000ZM542.800000,484.890000L297.070000,626.800000L51.260000,484.890000L51.260000,201.140000L297.070000,59.140000L542.800000,201.140000Z" transform="matrix(1 0 0 1 -0.03999999910593 0)" fill="rgb(21,0,62)" stroke="none" stroke-width="1"/><path id="eeek1zwhwfk563" d="M297,59.140000L51.190000,201.070000L51.190000,484.870000L297,626.780000L542.720000,484.870000L542.720000,201.070000ZM530.350000,477.750000L297,612.480000L63.590000,477.750000L63.590000,208.250000L297,73.480000L530.350000,208.250000Z" transform="matrix(1 0 0 1 -0.03999999910593 0)" fill="rgb(86,127,168)" stroke="none" stroke-width="1"/><path id="eeek1zwhwfk564" style="isolation:isolate" d="M297,61.250000L53,202.140000L53,483.830000L297,624.690000L540.930000,483.830000L540.930000,202.140000Z" transform="matrix(1 0 0 1 -0.03999999910593 0)" opacity="0.25" fill="none" stroke="rgb(0,0,0)" stroke-width="20" stroke-miterlimit="10"/><path id="eeek1zwhwfk565" d="M380.660000,612.600000L389.610000,607.460000L390.030000,608.180000C390.890757,609.636480,391.537387,611.209273,391.950000,612.850000C392.250097,614.287842,392.250097,615.772158,391.950000,617.210000C391.309744,620.547108,389.201773,623.418942,386.210000,625.030000C383.288123,626.761300,379.777896,627.199626,376.520000,626.240000C369.611871,624.304254,365.549035,617.168648,367.410000,610.240000C368.280245,606.859475,370.509757,603.989341,373.570000,602.310000C375.203139,601.358741,377.026934,600.781548,378.910000,600.620000C380.980691,600.530391,383.047484,600.870884,384.980000,601.620000L383.930000,605.210000C381.229917,603.852960,378.033938,603.916580,375.390000,605.380000C373.181512,606.577401,371.580337,608.650577,370.980000,611.090000C370.304046,613.521787,370.666101,616.124965,371.980000,618.280000C373.218603,620.587555,375.415642,622.228011,377.980000,622.760000C380.194032,623.302948,382.531169,622.996087,384.530000,621.900000C386.123857,620.987182,387.332054,619.526686,387.930000,617.790000C388.577690,616.120545,388.541764,614.263160,387.830000,612.620000L382.410000,615.750000Z" transform="matrix(1 0 0 1 -0.03999999910593 0)" fill="rgb(255,255,255)" stroke="none" stroke-width="1"/><rect id="eeek1zwhwfk566" width="3.766670" height="25.033300" rx="0" ry="0" transform="matrix(0.86646139621735 -0.49924406409264 0.49924406409264 0.86646139621735 395.20832488745452 590.37834756523364)" fill="rgb(255,255,255)" stroke="none" stroke-width="1"/><polygon id="eeek1zwhwfk567" points="418.900000,580.820000 429.630000,599.440000 426.360000,601.310000 415.660000,582.710000 410.660000,585.560000 408.890000,582.490000 422.100000,574.880000 423.880000,577.960000 418.900000,580.820000" fill="rgb(255,255,255)" stroke="none" stroke-width="1"/><path id="eeek1zwhwfk568" d="M448.500000,561.270000L450.720000,565.140000C448.265565,564.577105,445.689954,564.932853,443.480000,566.140000C441.328976,567.331236,439.781664,569.376157,439.220000,571.770000C438.599624,574.212087,438.981276,576.800840,440.280000,578.960000C441.464728,581.142364,443.492418,582.743553,445.890000,583.390000C448.249559,584.072572,450.786945,583.739087,452.890000,582.470000C453.909231,581.912586,454.796102,581.141691,455.490000,580.210000C455.873768,579.727672,456.208741,579.208463,456.490000,578.660000C456.810000,578.010000,457.100000,577.340000,457.360000,576.660000L459.620000,580.660000C458.422204,582.737497,456.697497,584.462204,454.620000,585.660000C451.670058,587.407565,448.137440,587.883873,444.830000,586.980000C441.505202,586.143409,438.672540,583.972787,437,580.980000C434.667447,576.898908,434.692620,571.882663,437.066016,567.825188C439.439412,563.767712,443.799464,561.287128,448.500000,561.320000" transform="matrix(1 0 0 1 -0.03999999910593 0)" fill="rgb(255,255,255)" stroke="none" stroke-width="1"/><path id="eeek1zwhwfk569" d="M464.410000,560.290000C462.673387,557.327784,462.256335,553.773779,463.260000,550.490000C464.140114,547.119788,466.362783,544.257424,469.410000,542.570000C475.654863,539.036036,483.580305,541.174435,487.200000,547.370000C488.960250,550.347929,489.398783,553.925056,488.410000,557.240000C486.515153,563.911781,479.792750,567.990592,473,566.590000C469.328269,565.915578,466.169202,563.593276,464.430000,560.290000M467.730000,558.420000C468.950835,560.681810,471.066677,562.325851,473.560000,562.950000C478.485631,564.235597,483.527438,561.313133,484.860000,556.400000C486.094405,551.362414,483.160349,546.242112,478.190000,544.760000C475.814047,544.049114,473.248031,544.379861,471.130000,545.670000C468.972265,546.895277,467.399487,548.938558,466.767165,551.337994C466.134843,553.737430,466.496359,556.290454,467.770000,558.420000" transform="matrix(1 0 0 1 -0.03999999910593 0)" fill="rgb(172,46,24)" stroke="none" stroke-width="1"/><rect id="eeek1zwhwfk570" width="3.783330" height="25.033300" rx="0" ry="0" transform="matrix(0.86628711223602 -0.49954646825790 0.49954646825790 0.86628711223602 492.39231653332706 534.37788008391851)" fill="rgb(255,255,255)" stroke="none" stroke-width="1"/><polygon id="eeek1zwhwfk571" points="520.900000,546.900000 507.570000,523.750000 532.910000,531.180000 524.250000,516.100000 527.500000,514.230000 540.760000,537.260000 515.420000,529.830000 524.180000,545.030000 520.900000,546.900000" fill="rgb(255,255,255)" stroke="none" stroke-width="1"/></g></g></svg>