<svg id="Layer_1" data-name="Layer 1" xmlns="http://www.w3.org/2000/svg" xmlns:xlink="http://www.w3.org/1999/xlink" viewBox="0 0 594 685.98"><defs><style>.cls-1{mask:url(#mask);}.cls-2,.cls-4{mix-blend-mode:multiply;}.cls-2{fill:url(#linear-gradient);}.cls-3{mask:url(#mask-2);}.cls-4{fill:url(#linear-gradient-2);}.cls-5{fill:url(#linear-gradient-3);}.cls-6{opacity:0.5;}.cls-7{fill:#fff;}.cls-8{fill:#15003e;}.cls-9{fill:url(#linear-gradient-4);}.cls-10{mask:url(#mask-3);}.cls-11,.cls-13{opacity:0.4;}.cls-11{fill:url(#linear-gradient-5);}.cls-12{mask:url(#mask-4);}.cls-13{fill:url(#linear-gradient-6);}.cls-14{fill:#fadba5;}.cls-15{fill:url(#linear-gradient-7);}.cls-16{fill:url(#Sky_19);}.cls-17{fill:none;stroke:#000;stroke-miterlimit:10;stroke-width:20px;opacity:0.25;isolation:isolate;}.cls-18{fill:#ac2e18;}.cls-19{fill:#8e2abe;}.cls-20{fill:#ffce08;}.cls-21{fill:#0fce7c;}.cls-22{fill:#f9006c;}.cls-23{filter:url(#luminosity-noclip-4);}.cls-24{filter:url(#luminosity-noclip-3);}.cls-25{filter:url(#luminosity-noclip-2);}.cls-26{filter:url(#luminosity-noclip);}</style><filter id="luminosity-noclip" x="59.57" y="-8534" width="238.49" height="32766" filterUnits="userSpaceOnUse" color-interpolation-filters="sRGB"><feFlood flood-color="#fff" result="bg"/><feBlend in="SourceGraphic" in2="bg"/></filter><mask id="mask" x="59.57" y="-8534" width="238.49" height="32766" maskUnits="userSpaceOnUse"><g class="cls-26"/></mask><linearGradient id="linear-gradient" x1="295.94" y1="253.83" x2="534.43" y2="253.83" gradientTransform="matrix(-1, 0, 0, 1, 594, 0)" gradientUnits="userSpaceOnUse"><stop offset="0" stop-color="#fff"/><stop offset="1"/></linearGradient><filter id="luminosity-noclip-2" x="300.7" y="-8534" width="234.69" height="32766" filterUnits="userSpaceOnUse" color-interpolation-filters="sRGB"><feFlood flood-color="#fff" result="bg"/><feBlend in="SourceGraphic" in2="bg"/></filter><mask id="mask-2" x="300.7" y="-8534" width="234.69" height="32766" maskUnits="userSpaceOnUse"><g class="cls-25"/></mask><linearGradient id="linear-gradient-2" x1="249.97" y1="447.62" x2="459.24" y2="447.62" gradientTransform="matrix(1.12, 0, 0, -1, 20.94, 702)" xlink:href="#linear-gradient"/><linearGradient id="linear-gradient-3" x1="299.6" y1="612.5" x2="299.6" y2="73.48" gradientUnits="userSpaceOnUse"><stop offset="0" stop-color="#ffffba"/><stop offset="0.23" stop-color="#cd7e91"/><stop offset="0.35" stop-color="#9f6884"/><stop offset="0.51" stop-color="#684d74"/><stop offset="0.65" stop-color="#403a69"/><stop offset="0.76" stop-color="#282e62"/><stop offset="0.83" stop-color="#1f2a5f"/></linearGradient><linearGradient id="linear-gradient-4" x1="298" y1="548.57" x2="298" y2="615.29" gradientUnits="userSpaceOnUse"><stop offset="0" stop-color="#8e2abe"/><stop offset="0" stop-color="#692bbe"/><stop offset="0.2" stop-color="#9232c0"/><stop offset="0.37" stop-color="#9c44c6"/><stop offset="0.48" stop-color="#a64dcb"/><stop offset="0.66" stop-color="#bf66da"/><stop offset="0.89" stop-color="#e98ef2"/><stop offset="1" stop-color="#ffa4ff"/></linearGradient><filter id="luminosity-noclip-3" x="59.57" y="206.13" width="238.49" height="95.4" filterUnits="userSpaceOnUse" color-interpolation-filters="sRGB"><feFlood flood-color="#fff" result="bg"/><feBlend in="SourceGraphic" in2="bg"/></filter><mask id="mask-3" x="59.53" y="206.13" width="238.49" height="95.4" maskUnits="userSpaceOnUse"><g class="cls-24"><g transform="translate(-0.04)"><g class="cls-1"><polygon class="cls-2" points="298.06 250.47 59.57 206.13 59.57 301.53 298.06 257.18 298.06 250.47"/></g></g></g></mask><linearGradient id="linear-gradient-5" x1="295.94" y1="253.83" x2="534.43" y2="253.83" gradientTransform="matrix(-1, 0, 0, 1, 593.96, 0)" gradientUnits="userSpaceOnUse"><stop offset="0" stop-color="#fcee21"/><stop offset="1" stop-color="#fff"/></linearGradient><filter id="luminosity-noclip-4" x="300.7" y="206.1" width="234.69" height="95.4" filterUnits="userSpaceOnUse" color-interpolation-filters="sRGB"><feFlood flood-color="#fff" result="bg"/><feBlend in="SourceGraphic" in2="bg"/></filter><mask id="mask-4" x="300.66" y="206.1" width="234.69" height="95.4" maskUnits="userSpaceOnUse"><g class="cls-23"><g transform="translate(-0.04)"><g class="cls-3"><polygon class="cls-4" points="300.7 257.42 535.39 301.5 535.28 206.1 300.7 250.71 300.7 257.42"/></g></g></g></mask><linearGradient id="linear-gradient-6" x1="249.97" y1="447.62" x2="459.24" y2="447.62" gradientTransform="matrix(1.12, 0, 0, -1, 20.9, 702)" xlink:href="#linear-gradient-5"/><linearGradient id="linear-gradient-7" x1="297.04" x2="297.04" y2="685.98" gradientUnits="userSpaceOnUse"><stop offset="0.15" stop-color="#0d091c"/><stop offset="0.5" stop-color="#724492"/><stop offset="0.86" stop-color="#d654a9"/><stop offset="0.97" stop-color="#e4959e"/></linearGradient><linearGradient id="Sky_19" x1="296.95" y1="59.14" x2="296.95" y2="626.78" gradientUnits="userSpaceOnUse"><stop offset="0.03" stop-color="#31093f"/><stop offset="0.29" stop-color="#6b3e8e"/><stop offset="0.48" stop-color="#ab70b4"/><stop offset="0.65" stop-color="#caa2cf"/><stop offset="0.69" stop-color="#cc9fc9"/><stop offset="0.73" stop-color="#d196b9"/><stop offset="0.76" stop-color="#d68da9"/><stop offset="0.88" stop-color="#e4b39e"/><stop offset="1" stop-color="#f8cf6c"/></linearGradient></defs><title>2</title><g id="sky"><path class="cls-5" d="M541.52,491.48C532.82,503.1,446.67,614,297,612.48,150.06,611,66.76,502.31,57.68,490Q58,343.51,58.3,197c8-11.22,91.09-123.08,238.69-123.49C449.51,73.06,534,192,540.93,202.14Q541.23,346.81,541.52,491.48Z" transform="translate(-0.04)"/></g><g id="star" class="cls-6"><path class="cls-7" d="M77.14,297.56a1.28,1.28,0,0,0,.22-1.38c-.2-.46-.62-.6-.94-.31a1.29,1.29,0,0,0-.22,1.37C76.4,297.71,76.82,297.85,77.14,297.56Z" transform="translate(-0.04)"/><path class="cls-7" d="M101.65,218.88a1.29,1.29,0,0,0,.21-1.37c-.2-.47-.62-.61-.94-.32a1.3,1.3,0,0,0-.22,1.38C100.9,219,101.33,219.17,101.65,218.88Z" transform="translate(-0.04)"/><path class="cls-7" d="M62.57,142.9a1.3,1.3,0,0,0-.22,1.38c.21.46.63.61.95.31a1.29,1.29,0,0,0,.22-1.37C63.31,142.75,62.89,142.61,62.57,142.9Z" transform="translate(-0.04)"/><path class="cls-7" d="M253.1,230.69a1.26,1.26,0,0,0,.22-1.37c-.2-.47-.62-.61-.94-.32a1.3,1.3,0,0,0-.22,1.38C252.36,230.85,252.78,231,253.1,230.69Z" transform="translate(-0.04)"/><path class="cls-7" d="M253.1,154.46a1.28,1.28,0,0,0,.22-1.38c-.2-.46-.62-.61-.94-.31a1.28,1.28,0,0,0-.22,1.37C252.36,154.61,252.78,154.75,253.1,154.46Z" transform="translate(-0.04)"/><path class="cls-7" d="M308.57,201.29a2.07,2.07,0,0,0-.35,2.21c.32.76,1,1,1.52.51a2.05,2.05,0,0,0,.35-2.21C309.77,201,309.09,200.82,308.57,201.29Z" transform="translate(-0.04)"/><path class="cls-7" d="M202,260.36a1.3,1.3,0,0,0-.21,1.38c.2.46.62.6.94.31a1.29,1.29,0,0,0,.22-1.37C202.76,260.21,202.33,260.07,202,260.36Z" transform="translate(-0.04)"/><path class="cls-7" d="M479.09,331.29a1.28,1.28,0,0,0-.22,1.37c.2.47.63.61.95.32a1.3,1.3,0,0,0,.21-1.38C479.83,331.13,479.41,331,479.09,331.29Z" transform="translate(-0.04)"/><path class="cls-7" d="M539.75,270.84a1.29,1.29,0,0,0-.22,1.37c.2.47.63.61,1,.32a1.29,1.29,0,0,0,.22-1.37C540.49,270.69,540.07,270.55,539.75,270.84Z" transform="translate(-0.04)"/><path class="cls-7" d="M439,253a1.29,1.29,0,0,0-.21,1.37c.2.47.62.61.94.32a1.3,1.3,0,0,0,.22-1.38C439.77,252.88,439.34,252.74,439,253Z" transform="translate(-0.04)"/><path class="cls-7" d="M172.91,215.84a1.28,1.28,0,0,0,.22-1.38c-.2-.47-.62-.61-.94-.31a1.28,1.28,0,0,0-.22,1.37C172.17,216,172.59,216.13,172.91,215.84Z" transform="translate(-0.04)"/><path class="cls-7" d="M289.6,295.87a1.29,1.29,0,0,0-.22,1.37c.21.47.63.61.95.32a1.3,1.3,0,0,0,.22-1.38C290.34,295.72,289.92,295.58,289.6,295.87Z" transform="translate(-0.04)"/><path class="cls-7" d="M371.88,392a1.27,1.27,0,0,0-.21,1.37c.2.47.62.61.94.32a1.3,1.3,0,0,0,.22-1.38C372.63,391.8,372.2,391.66,371.88,392Z" transform="translate(-0.04)"/><path class="cls-7" d="M366,283.21c-.2-.47-.62-.61-.94-.32a1.28,1.28,0,0,0-.22,1.38c.2.47.62.61.94.31A1.28,1.28,0,0,0,366,283.21Z" transform="translate(-0.04)"/><path class="cls-7" d="M334.25,343.1a1.28,1.28,0,0,0-.21,1.38c.2.46.62.61.94.31a1.28,1.28,0,0,0,.22-1.37C335,343,334.57,342.81,334.25,343.1Z" transform="translate(-0.04)"/><path class="cls-7" d="M443.84,407.53a1.3,1.3,0,0,0-.22,1.38c.2.46.62.6.95.31a1.29,1.29,0,0,0,.21-1.37C444.58,407.38,444.16,407.24,443.84,407.53Z" transform="translate(-0.04)"/><path class="cls-7" d="M381.44,181.56a1.28,1.28,0,0,0-.21,1.38c.2.47.62.61.94.31a1.28,1.28,0,0,0,.22-1.37C382.19,181.41,381.76,181.27,381.44,181.56Z" transform="translate(-0.04)"/><path class="cls-7" d="M505.56,138a1.27,1.27,0,0,0-.22,1.37c.2.47.62.61.94.32a1.3,1.3,0,0,0,.22-1.38C506.3,137.86,505.88,137.72,505.56,138Z" transform="translate(-0.04)"/><path class="cls-7" d="M413.07,334a1.28,1.28,0,0,0,.22-1.37c-.21-.47-.63-.61-1-.32a1.3,1.3,0,0,0-.22,1.38C412.33,334.13,412.75,334.27,413.07,334Z" transform="translate(-0.04)"/><path class="cls-7" d="M496,212.63a2.1,2.1,0,0,0-.35,2.22c.33.75,1,1,1.53.5a2.09,2.09,0,0,0,.35-2.21C497.15,212.39,496.47,212.16,496,212.63Z" transform="translate(-0.04)"/><path class="cls-7" d="M521.91,325.47a1.56,1.56,0,0,0-.26,1.67c.24.57.75.74,1.14.38a1.54,1.54,0,0,0,.26-1.66C522.81,325.29,522.3,325.12,521.91,325.47Z" transform="translate(-0.04)"/><path class="cls-7" d="M380.53,326.68a1.58,1.58,0,0,0-.26,1.67c.24.57.76.74,1.15.38a1.56,1.56,0,0,0,.26-1.66C381.44,326.5,380.92,326.33,380.53,326.68Z" transform="translate(-0.04)"/><path class="cls-7" d="M485.45,269.45a1.59,1.59,0,0,0-.26,1.67c.25.56.76.74,1.15.38a1.57,1.57,0,0,0,.26-1.67C486.36,269.27,485.84,269.1,485.45,269.45Z" transform="translate(-0.04)"/><path class="cls-7" d="M279.19,198.31a1.58,1.58,0,0,0-.27,1.67c.25.56.76.74,1.15.38a1.55,1.55,0,0,0,.26-1.67C280.09,198.13,279.58,198,279.19,198.31Z" transform="translate(-0.04)"/><path class="cls-7" d="M326.6,139.15a2.5,2.5,0,0,0-.42,2.69c.39.91,1.21,1.18,1.84.61a2.49,2.49,0,0,0,.42-2.68C328.05,138.85,327.23,138.58,326.6,139.15Z" transform="translate(-0.04)"/><path class="cls-7" d="M392.34,231.36a2.53,2.53,0,0,0-.42,2.68c.39.92,1.22,1.19,1.85.62a2.54,2.54,0,0,0,.42-2.69C393.8,231.06,393,230.79,392.34,231.36Z" transform="translate(-0.04)"/><path class="cls-7" d="M446.5,366.3a2.54,2.54,0,0,0-.42,2.69c.39.91,1.22,1.18,1.85.61a2.53,2.53,0,0,0,.42-2.68C448,366,447.13,365.73,446.5,366.3Z" transform="translate(-0.04)"/><path class="cls-7" d="M449.18,170.13a2.53,2.53,0,0,0-.42,2.68c.39.91,1.22,1.19,1.85.62a2.54,2.54,0,0,0,.42-2.69C450.64,169.83,449.81,169.55,449.18,170.13Z" transform="translate(-0.04)"/><path class="cls-7" d="M57.52,217.58a2.5,2.5,0,0,0-.42,2.69c.39.91,1.22,1.19,1.84.61a2.51,2.51,0,0,0,.43-2.68C59,217.29,58.15,217,57.52,217.58Z" transform="translate(-0.04)"/><path class="cls-7" d="M536.6,409.43a1.56,1.56,0,0,0,.27-1.66c-.25-.57-.76-.74-1.15-.39a1.57,1.57,0,0,0-.26,1.67C535.7,409.62,536.22,409.79,536.6,409.43Z" transform="translate(-0.04)"/><path class="cls-7" d="M539.91,172.69c-.39-.91-1.22-1.19-1.85-.62a2.55,2.55,0,0,0-.42,2.69c.39.91,1.22,1.19,1.85.62A2.55,2.55,0,0,0,539.91,172.69Z" transform="translate(-0.04)"/><path class="cls-7" d="M231.18,317.87c-.24-.57-.75-.74-1.14-.38a1.57,1.57,0,0,0-.27,1.67c.25.56.76.73,1.15.38A1.55,1.55,0,0,0,231.18,317.87Z" transform="translate(-0.04)"/><path class="cls-7" d="M325.26,296a2.5,2.5,0,0,0-.42,2.69c.39.91,1.22,1.19,1.84.61a2.51,2.51,0,0,0,.43-2.68C326.71,295.68,325.89,295.4,325.26,296Z" transform="translate(-0.04)"/><path class="cls-7" d="M135.39,248.21a1.55,1.55,0,0,0-.26,1.67c.24.57.75.74,1.14.38a1.54,1.54,0,0,0,.26-1.66C136.29,248,135.78,247.86,135.39,248.21Z" transform="translate(-0.04)"/><path class="cls-7" d="M120.75,152.59a1.56,1.56,0,0,0-.27,1.66c.25.57.76.74,1.15.39a1.57,1.57,0,0,0,.26-1.67C121.65,152.4,121.13,152.23,120.75,152.59Z" transform="translate(-0.04)"/><path class="cls-7" d="M202.33,232.71a2.53,2.53,0,0,0,.42-2.68c-.39-.92-1.22-1.19-1.84-.62a2.52,2.52,0,0,0-.43,2.69C200.88,233,201.7,233.28,202.33,232.71Z" transform="translate(-0.04)"/><path class="cls-7" d="M208.05,150.94a1.58,1.58,0,0,0,.26-1.66c-.25-.57-.76-.74-1.15-.39a1.57,1.57,0,0,0-.26,1.67C207.14,151.13,207.66,151.3,208.05,150.94Z" transform="translate(-0.04)"/><path class="cls-7" d="M101.47,318.74c-.39-.91-1.22-1.19-1.85-.62a2.54,2.54,0,0,0-.42,2.69c.39.91,1.22,1.19,1.85.61A2.53,2.53,0,0,0,101.47,318.74Z" transform="translate(-0.04)"/></g><path class="cls-8" d="M438.76,548.57H154.56a2.12,2.12,0,0,1,0-4.17h284.2a2.12,2.12,0,0,1,0,4.17Z" transform="translate(-0.04)"/><rect class="cls-9" x="180.04" y="548.57" width="235.91" height="66.72"/><g id="uplight"><g class="cls-10"><polygon class="cls-11" points="298.02 250.47 59.53 206.13 59.53 301.53 298.02 257.18 298.02 250.47"/></g><g class="cls-12"><polygon class="cls-13" points="300.66 257.42 535.35 301.5 535.24 206.1 300.66 250.71 300.66 257.42"/></g></g><g id="Layer_6" data-name="Layer 6"><g id="Frame"><path class="cls-14" d="M297,0,0,171.49v343L297,686,594,514.49v-343ZM542.8,484.89,297.07,626.8,51.26,484.89V201.14l245.81-142,245.73,142Z" transform="translate(-0.04)"/><path class="cls-15" d="M297,0,0,171.49v343L297,686,594,514.49v-343ZM542.8,484.89,297.07,626.8,51.26,484.89V201.14l245.81-142,245.73,142Z" transform="translate(-0.04)"/><path class="cls-16" d="M297,59.14,51.19,201.07v283.8L297,626.78,542.72,484.87V201.07ZM530.35,477.75,297,612.48,63.59,477.75V208.25L297,73.48,530.35,208.25Z" transform="translate(-0.04)"/><path id="_Compound_Path_" data-name=" Compound Path " class="cls-17" d="M297,61.25,53,202.14V483.83L297,624.69,540.93,483.83V202.14Z" transform="translate(-0.04)"/><path class="cls-7" d="M380.66,612.6l8.95-5.14.42.72a17.63,17.63,0,0,1,1.92,4.67,10.67,10.67,0,0,1,0,4.36,11.3,11.3,0,0,1-5.74,7.82,12.23,12.23,0,0,1-9.69,1.21,13.09,13.09,0,0,1-9.11-16,12.64,12.64,0,0,1,6.16-7.93,12.78,12.78,0,0,1,5.34-1.69,15,15,0,0,1,6.07,1l-1.05,3.59a9.15,9.15,0,0,0-8.54.17,8.92,8.92,0,0,0-4.41,5.71,9.12,9.12,0,0,0,1,7.19,8.85,8.85,0,0,0,6,4.48,9.11,9.11,0,0,0,6.55-.86,7.58,7.58,0,0,0,3.4-4.11,6.81,6.81,0,0,0-.1-5.17l-5.42,3.13Z" transform="translate(-0.04)"/><rect class="cls-7" x="401.25" y="587.77" width="3.77" height="25.03" transform="translate(-245.9 281.42) rotate(-29.95)"/><polygon class="cls-7" points="418.9 580.82 429.63 599.44 426.36 601.31 415.66 582.71 410.66 585.56 408.89 582.49 422.1 574.88 423.88 577.96 418.9 580.82"/><path class="cls-7" d="M448.5,561.27l2.22,3.87a10.3,10.3,0,0,0-7.24,1,8.71,8.71,0,0,0-4.26,5.63,9.44,9.44,0,0,0,1.06,7.19,9.07,9.07,0,0,0,5.61,4.43,8.81,8.81,0,0,0,7-.92,8.07,8.07,0,0,0,2.6-2.26,9.32,9.32,0,0,0,1-1.55c.32-.65.61-1.32.87-2l2.26,4a13.63,13.63,0,0,1-5,5,12.66,12.66,0,0,1-9.79,1.32,12.45,12.45,0,0,1-7.83-6,13.14,13.14,0,0,1,11.5-19.66" transform="translate(-0.04)"/><path class="cls-18" d="M464.41,560.29a12.28,12.28,0,0,1-1.15-9.8,12.73,12.73,0,0,1,6.15-7.92,13.12,13.12,0,0,1,17.79,4.8,12.42,12.42,0,0,1,1.21,9.87A13.24,13.24,0,0,1,473,566.59a12.17,12.17,0,0,1-8.57-6.3m3.3-1.87a9.15,9.15,0,0,0,5.83,4.53,9.28,9.28,0,0,0,11.3-6.55,9.73,9.73,0,0,0-6.67-11.64,8.75,8.75,0,0,0-7.06.91,9.22,9.22,0,0,0-3.36,12.75" transform="translate(-0.04)"/><rect class="cls-7" x="498.43" y="531.76" width="3.79" height="25.03" transform="translate(-205.03 322.71) rotate(-29.97)"/><polygon class="cls-7" points="520.9 546.9 507.57 523.75 532.91 531.18 524.25 516.1 527.5 514.23 540.76 537.26 515.42 529.83 524.18 545.03 520.9 546.9"/></g></g><rect class="cls-19" x="274.79" y="288.34" width="49.24" height="43.32"/><polygon class="cls-19" points="329.89 339.52 334.46 512.63 265.79 512.63 270.36 339.52 329.89 339.52"/><g id="light3"><path class="cls-20" d="M308.51,360.5v8.73H291.83V360.5a8.33,8.33,0,0,1,8.34-8.34,8.36,8.36,0,0,1,8.34,8.34Z" transform="translate(-0.04)"/><path class="cls-20" d="M308.51,399.93v8.74H291.83v-8.74a8.34,8.34,0,0,1,16.68,0Z" transform="translate(-0.04)"/><path class="cls-20" d="M308.51,439v8.73H291.83V439a8.34,8.34,0,0,1,16.68,0Z" transform="translate(-0.04)"/></g><path class="cls-19" d="M311.81,226.63a1.37,1.37,0,0,1-1.37,1.37H290.37a1.37,1.37,0,0,1-1.37-1.37,11.39,11.39,0,0,1,11.38-11.38h.06A11.38,11.38,0,0,1,311.81,226.63Z" transform="translate(-0.04)"/><rect class="cls-19" x="284.49" y="235.65" width="31.27" height="42.79"/><rect class="cls-19" x="232.09" y="514.59" width="134.82" height="30.81"/><g id="light2"><path class="cls-20" d="M308.14,250.52v17.07H292.19V250.52a8,8,0,1,1,15.95,0Z" transform="translate(-0.04)"/></g><rect class="cls-21" x="276.86" y="230.33" width="45.11" height="4.03" rx="1.99"/><path class="cls-21" d="M337.48,283.56v.09a3.25,3.25,0,0,1-3.24,3.24H267.16a3.24,3.24,0,0,1-3.24-3.24v-.09a3.24,3.24,0,0,1,3.24-3.25h67.08A3.25,3.25,0,0,1,337.48,283.56Z" transform="translate(-0.04)"/><path class="cls-21" d="M347.36,335.43v.12a4.15,4.15,0,0,1-4.14,4.14h-85.8a4.15,4.15,0,0,1-4.14-4.14v-.12a4.14,4.14,0,0,1,4.14-4.15h85.8A4.14,4.14,0,0,1,347.36,335.43Z" transform="translate(-0.04)"/><path class="cls-8" d="M370.65,513.74v34.61h-141V511.64H263.6q2.25-84.88,4.48-169.77H256.64a6.32,6.32,0,0,1-6.32-6.32v-.11a6.32,6.32,0,0,1,6.32-6.32h2V315.89a2.12,2.12,0,0,1,2.11-2.11h12.3V289.34h-7.18a5.57,5.57,0,0,1-5.56-5.56v-.36a5.57,5.57,0,0,1,5.56-5.56H282V238.1h-1a5.32,5.32,0,0,1-5.31-5.32v-.87A5.31,5.31,0,0,1,281,226.6h4.41a14.72,14.72,0,0,1,12.66-14v-4.4a2.11,2.11,0,1,1,4.22,0v4.41a14.77,14.77,0,0,1,12.66,14h4.4a5.32,5.32,0,0,1,5.32,5.31v.87a5.33,5.33,0,0,1-5.32,5.32h-1v39.76h16.11a5.58,5.58,0,0,1,5.57,5.56v.36a5.58,5.58,0,0,1-5.57,5.56h-7.18v24.44h12.3a2.12,2.12,0,0,1,2.12,2.11v13.22h2a6.32,6.32,0,0,1,6.31,6.32v.11a6.32,6.32,0,0,1-6.31,6.32H332.25q2.25,84.89,4.49,169.77l30.76-.06,3.15.07Zm-4.22,30.39V515.86H233.9v28.27ZM345.8,335.54v-.11a2.11,2.11,0,0,0-2.1-2.1H256.64a2.1,2.1,0,0,0-2.1,2.1v.11a2.1,2.1,0,0,0,2.1,2.1H343.7A2.11,2.11,0,0,0,345.8,335.54Zm-8.32-6.43V318h-10.2v11.1Zm-1.67-45.33v-.36a1.33,1.33,0,0,0-1.35-1.33H265.87a1.33,1.33,0,0,0-1.34,1.33v.36a1.33,1.33,0,0,0,1.34,1.33h68.59A1.33,1.33,0,0,0,335.81,283.78Zm-3.3,227.85q-2.24-84.88-4.48-169.77H272.3q-2.24,84.89-4.48,169.77l18.49.47q.13-20.24.26-40.47a2.1,2.1,0,0,1,2.1-2.11h23a2.1,2.1,0,0,1,2.11,2.11q0,20,.07,39.94Q323.17,511.62,332.51,511.63Zm-9.45-182.52V318h-12.9v11.1Zm0-15.33V289.34H277.28v24.44Zm-2.63-81v-.87a1.09,1.09,0,0,0-1.09-1.09H281a1.09,1.09,0,0,0-1.09,1.09v.87a1.09,1.09,0,0,0,1.09,1.09h38.35A1.09,1.09,0,0,0,320.43,232.78Zm-6.3,45.08V238.1H286.21v39.76l4,0q0-13.67,0-27.31a10,10,0,0,1,19.22-3.85,10.26,10.26,0,0,1,.76,3.85c.06,2.86.13,13.19.07,27.29h3.9ZM289.62,226.6h21.09a10.54,10.54,0,0,0-10.51-9.95h-.06a10.54,10.54,0,0,0-10.52,9.95Zm19.93,285V473.75H290.79v37.88c3.27,0,6.54,0,9.81-.06C303.58,511.6,306.57,511.61,309.55,511.63Zm-1.13-233.77v-8.25h-6.14v8.25Zm-2.48,51.25V318H294.39v11.1Zm0-63.77V250.57a5.78,5.78,0,1,0-11.55,0v14.77Zm-7.88,12.52v-8.25h-6.14v8.25Zm-7.88,51.25V318h-12.9v11.1Zm-17.13,0V318H262.86v11.1Z" transform="translate(-0.04)"/><path class="cls-22" d="M309.55,473.75v37.88c-3,0-6,0-8.95-.06-3.27,0-6.54,0-9.81.06V473.75Z" transform="translate(-0.04)"/><path class="cls-8" d="M291.21,371.87h17.92a2,2,0,0,0,2-2v-9.38a11,11,0,0,0-11-11,11,11,0,0,0-11,11v9.38A2,2,0,0,0,291.21,371.87Zm2-11.38a7,7,0,0,1,7-7,7,7,0,0,1,7,7v7.38H293.21Z" transform="translate(-0.04)"/><path class="cls-8" d="M291.21,411.3h17.92a2,2,0,0,0,2-2v-9.38a11,11,0,1,0-21.92,0v9.38A2,2,0,0,0,291.21,411.3Zm2-11.38a7,7,0,0,1,7-7,7,7,0,0,1,7,7v7.38H293.21Z" transform="translate(-0.04)"/><path class="cls-8" d="M291.21,450.73h17.92a2,2,0,0,0,2-2v-9.38a11,11,0,1,0-21.92,0v9.38A2,2,0,0,0,291.21,450.73Zm2-11.38a7,7,0,0,1,7-7,7,7,0,0,1,7,7v7.38H293.21Z" transform="translate(-0.04)"/><g id="light1"><path class="cls-20" d="M300.7,297.17a6.39,6.39,0,1,1-6.39,6.38A6.38,6.38,0,0,1,300.7,297.17Z" transform="translate(-0.04)"/></g><path class="cls-8" d="M300.7,313.78a9.76,9.76,0,1,1,9.76-9.76A9.77,9.77,0,0,1,300.7,313.78Zm0-14.25a4.5,4.5,0,1,0,4.49,4.49A4.49,4.49,0,0,0,300.7,299.53Z" transform="translate(-0.04)"/></svg>