<?xml version="1.0" encoding="utf-8"?>
<!-- Generator: Adobe Illustrator 22.1.0, SVG Export Plug-In . SVG Version: 6.00 Build 0)  -->
<svg version="1.1" id="Layer_1" xmlns="http://www.w3.org/2000/svg" xmlns:xlink="http://www.w3.org/1999/xlink" x="0px" y="0px"
	 viewBox="0 0 521.8 601.2" style="enable-background:new 0 0 521.8 601.2;" xml:space="preserve">
<style type="text/css">
	.st0{fill:url(#SVGID_1_);}
	.st1{fill:url(#SVGID_2_);}
	.st2{fill:none;stroke:#21211B;stroke-width:20;stroke-miterlimit:10;}
	.st3{fill:none;stroke:url(#SVGID_3_);stroke-width:2;stroke-linecap:round;stroke-miterlimit:10;}
	.st4{fill:none;stroke:url(#SVGID_4_);stroke-width:2;stroke-linecap:round;stroke-miterlimit:10;}
	.st5{fill:none;stroke:url(#SVGID_5_);stroke-width:2;stroke-linecap:round;stroke-miterlimit:10;}
	.st6{fill:none;stroke:url(#SVGID_6_);stroke-width:2;stroke-linecap:round;stroke-miterlimit:10;}
	.st7{fill:none;stroke:url(#SVGID_7_);stroke-width:2;stroke-linecap:round;stroke-miterlimit:10;}
	.st8{fill:none;stroke:url(#SVGID_8_);stroke-width:2;stroke-linecap:round;stroke-miterlimit:10;}
	.st9{fill:none;stroke:url(#SVGID_9_);stroke-width:2;stroke-linecap:round;stroke-miterlimit:10;}
	.st10{fill:none;stroke:url(#SVGID_10_);stroke-width:2;stroke-linecap:round;stroke-miterlimit:10;}
	.st11{fill:none;stroke:url(#SVGID_11_);stroke-width:2;stroke-linecap:round;stroke-miterlimit:10;}
	.st12{fill:none;stroke:url(#SVGID_12_);stroke-width:2;stroke-linecap:round;stroke-miterlimit:10;}
	.st13{fill:none;stroke:url(#SVGID_13_);stroke-width:2;stroke-linecap:round;stroke-miterlimit:10;}
	.st14{fill:none;stroke:url(#SVGID_14_);stroke-width:2;stroke-linecap:round;stroke-miterlimit:10;}
	.st15{fill:none;stroke:url(#SVGID_15_);stroke-width:2;stroke-linecap:round;stroke-miterlimit:10;}
	.st16{fill:none;stroke:url(#SVGID_16_);stroke-width:2;stroke-linecap:round;stroke-miterlimit:10;}
	.st17{fill:none;stroke:url(#SVGID_17_);stroke-width:2;stroke-linecap:round;stroke-miterlimit:10;}
	.st18{fill:none;stroke:url(#SVGID_18_);stroke-width:2;stroke-linecap:round;stroke-miterlimit:10;}
	.st19{fill:none;stroke:url(#SVGID_19_);stroke-width:2;stroke-linecap:round;stroke-miterlimit:10;}
	.st20{fill:none;stroke:url(#SVGID_20_);stroke-width:2;stroke-linecap:round;stroke-miterlimit:10;}
	.st21{fill:none;stroke:url(#SVGID_21_);stroke-width:2;stroke-linecap:round;stroke-miterlimit:10;}
	.st22{fill:none;stroke:url(#SVGID_22_);stroke-width:2;stroke-linecap:round;stroke-miterlimit:10;}
	.st23{fill:none;stroke:url(#SVGID_23_);stroke-width:2;stroke-linecap:round;stroke-miterlimit:10;}
	.st24{fill:none;stroke:url(#SVGID_24_);stroke-width:2;stroke-linecap:round;stroke-miterlimit:10;}
	.st25{fill:none;stroke:url(#SVGID_25_);stroke-width:2;stroke-linecap:round;stroke-miterlimit:10;}
	.st26{fill:none;stroke:url(#SVGID_26_);stroke-width:2;stroke-linecap:round;stroke-miterlimit:10;}
	.st27{fill:none;stroke:url(#SVGID_27_);stroke-width:2;stroke-linecap:round;stroke-miterlimit:10;}
	.st28{fill:none;stroke:url(#SVGID_28_);stroke-width:2;stroke-linecap:round;stroke-miterlimit:10;}
	.st29{fill:none;stroke:url(#SVGID_29_);stroke-width:2;stroke-linecap:round;stroke-miterlimit:10;}
	.st30{fill:none;stroke:url(#SVGID_30_);stroke-width:2;stroke-linecap:round;stroke-miterlimit:10;}
	.st31{fill:none;stroke:url(#SVGID_31_);stroke-width:2;stroke-linecap:round;stroke-miterlimit:10;}
	.st32{fill:none;stroke:url(#SVGID_32_);stroke-width:2;stroke-linecap:round;stroke-miterlimit:10;}
	.st33{fill:none;stroke:url(#SVGID_33_);stroke-width:2;stroke-linecap:round;stroke-miterlimit:10;}
	.st34{fill:none;stroke:url(#SVGID_34_);stroke-width:2;stroke-linecap:round;stroke-miterlimit:10;}
	.st35{fill:none;stroke:url(#SVGID_35_);stroke-width:2;stroke-linecap:round;stroke-miterlimit:10;}
	.st36{fill:none;stroke:url(#SVGID_36_);stroke-width:2;stroke-linecap:round;stroke-miterlimit:10;}
	.st37{fill:none;stroke:url(#SVGID_37_);stroke-width:2;stroke-linecap:round;stroke-miterlimit:10;}
	.st38{fill:none;stroke:url(#SVGID_38_);stroke-width:2;stroke-linecap:round;stroke-miterlimit:10;}
	.st39{fill:none;stroke:url(#SVGID_39_);stroke-width:2;stroke-linecap:round;stroke-miterlimit:10;}
	.st40{fill:none;stroke:url(#SVGID_40_);stroke-width:2;stroke-linecap:round;stroke-miterlimit:10;}
	.st41{fill:none;stroke:url(#SVGID_41_);stroke-width:2;stroke-linecap:round;stroke-miterlimit:10;}
	.st42{fill:none;stroke:url(#SVGID_42_);stroke-width:2;stroke-linecap:round;stroke-miterlimit:10;}
	.st43{fill:none;stroke:url(#SVGID_43_);stroke-width:2;stroke-linecap:round;stroke-miterlimit:10;}
	.st44{fill:none;stroke:url(#SVGID_44_);stroke-width:2;stroke-linecap:round;stroke-miterlimit:10;}
	.st45{fill:none;stroke:url(#SVGID_45_);stroke-width:2;stroke-linecap:round;stroke-miterlimit:10;}
	.st46{fill:none;stroke:url(#SVGID_46_);stroke-width:2;stroke-linecap:round;stroke-miterlimit:10;}
	.st47{fill:none;stroke:url(#SVGID_47_);stroke-width:2;stroke-linecap:round;stroke-miterlimit:10;}
	.st48{fill:none;stroke:url(#SVGID_48_);stroke-width:2;stroke-linecap:round;stroke-miterlimit:10;}
	.st49{fill:none;stroke:url(#SVGID_49_);stroke-width:2;stroke-linecap:round;stroke-miterlimit:10;}
	.st50{fill:none;stroke:url(#SVGID_50_);stroke-width:2;stroke-linecap:round;stroke-miterlimit:10;}
	.st51{opacity:0.5;fill:url(#SVGID_51_);enable-background:new    ;}
	.st52{fill:url(#SVGID_52_);}
	.st53{fill:#2E2E26;}
	.st54{clip-path:url(#SVGID_54_);}
	.st55{fill:#FFFFFF;}
	.st56{fill:#181743;}
	.st57{fill:#12C77C;}
	.st58{fill:none;}
	.st59{fill:#F7F6F8;}
	.st60{fill:#303028;}
	.st61{fill:#21211B;}
	.st62{fill:url(#SVGID_55_);}
	.st63{fill:url(#SVGID_56_);}
	.st64{fill:none;stroke:#47473B;stroke-width:6;stroke-miterlimit:10;}
</style>
<g>
	<g>
		<g>
			
				<radialGradient id="SVGID_1_" cx="289.4891" cy="403.4044" r="525.278" gradientTransform="matrix(1 0 0 -1 0 600)" gradientUnits="userSpaceOnUse">
				<stop  offset="0" style="stop-color:#3B3B30"/>
				<stop  offset="0.4949" style="stop-color:#3F4534"/>
				<stop  offset="1" style="stop-color:#848F73"/>
			</radialGradient>
			<polygon class="st0" points="520.7,150 520.7,450 456,487.4 430.6,502 383.8,529 383.8,529 310.4,571.4 293.2,581.3 293.2,581.3 
				260.9,600 241.9,589 227.2,580.5 180.8,553.8 126.2,522.2 92.7,502.9 72.4,491.1 14.6,457.8 1.1,450 1.1,150 260.9,0 			"/>
			
				<radialGradient id="SVGID_2_" cx="292.3984" cy="207.8693" r="603.7791" gradientTransform="matrix(1 0 0 -1 0 600)" gradientUnits="userSpaceOnUse">
				<stop  offset="0.2127" style="stop-color:#FFFFD1"/>
				<stop  offset="0.2979" style="stop-color:#F9F9CC"/>
				<stop  offset="0.4153" style="stop-color:#E7E7BD"/>
				<stop  offset="0.5516" style="stop-color:#CACAA5"/>
				<stop  offset="0.702" style="stop-color:#A1A184"/>
				<stop  offset="0.8619" style="stop-color:#6D6D59"/>
				<stop  offset="1" style="stop-color:#3B3B30"/>
			</radialGradient>
			<path class="st1" d="M520.7,150v127c-8.4,2.6-16.3,5.7-24.1,9.5c-6.1,3-12,6.3-17.9,10c-9.7,6.1-19.2,13.1-28.9,21
				c-0.4,0.3-0.9,0.7-1.3,1.1c-22.5,18.5-44.7,38.4-71.9,49.8c-9.4,3.9-19.8,6.9-30.5,8.8c-21,3.6-43.4,2.9-62.7-3.9
				c-2.2-0.8-4.3-1.6-6.4-2.5c-17.5-7.7-28.9-21.6-40.4-36.2c-4-5.1-7.9-10-12.1-14.5c-9.3-10.1-19.5-18.5-33.6-23.6
				c-0.4-0.1-0.7-0.3-1.1-0.4c-27-9.4-58.3-6-86.4-5.6c-20.1,0.3-40.2,0.9-60.3,1.5c-14,0.4-28,0.7-42,0.9V150L260.9,0L520.7,150z"
				/>
		</g>
		<path class="st2" d="M191.5,220.1"/>
		<g>
			
				<linearGradient id="SVGID_3_" gradientUnits="userSpaceOnUse" x1="125.1569" y1="69.9048" x2="182.8122" y2="69.9048" gradientTransform="matrix(1 0 0 -1 0 600)">
				<stop  offset="0" style="stop-color:#DDE85A"/>
				<stop  offset="0.4692" style="stop-color:#C9E4B9"/>
				<stop  offset="1" style="stop-color:#90FC72"/>
			</linearGradient>
			<path class="st3" d="M180.8,553.8c-0.5-14.3-0.7-28.7,0.8-42.7c-9-0.9-18-1.9-26.8-2.8c-8.9-0.9-17.8-1.8-26.8-2.6
				c-0.9,5.5-1.4,11-1.9,16.5L180.8,553.8z"/>
			
				<linearGradient id="SVGID_4_" gradientUnits="userSpaceOnUse" x1="179.4823" y1="53.7123" x2="242.1225" y2="53.7123" gradientTransform="matrix(1 0 0 -1 0 600)">
				<stop  offset="0" style="stop-color:#DDE85A"/>
				<stop  offset="0.4692" style="stop-color:#C9E4B9"/>
				<stop  offset="1" style="stop-color:#90FC72"/>
			</linearGradient>
			<path class="st4" d="M180.8,553.8l46.3,26.7c4.6,0.4,9.2,0.7,13.9,1c-2.4-22.1-3.4-44.3-1.4-65.6c-19.4-0.9-38.9-2.8-57.9-4.8
				C180.1,525.1,180.4,539.5,180.8,553.8z"/>
			
				<linearGradient id="SVGID_5_" gradientUnits="userSpaceOnUse" x1="0.1" y1="235.7376" x2="65.0622" y2="235.7376" gradientTransform="matrix(1 0 0 -1 0 600)">
				<stop  offset="0" style="stop-color:#DDE85A"/>
				<stop  offset="0.4692" style="stop-color:#C9E4B9"/>
				<stop  offset="1" style="stop-color:#90FC72"/>
			</linearGradient>
			<path class="st5" d="M1.1,381.4c3.7,1.5,7.4,3,11.2,4.4c18.9-10.8,37.1-21.9,50.8-37c-9.8-1.7-19.5-3.9-29.3-6.1
				c-9.5,6.9-20.6,12-32.7,16.1V381.4z"/>
			
				<linearGradient id="SVGID_6_" gradientUnits="userSpaceOnUse" x1="237.5566" y1="52.2315" x2="311.6272" y2="52.2315" gradientTransform="matrix(1 0 0 -1 0 600)">
				<stop  offset="0" style="stop-color:#DDE85A"/>
				<stop  offset="0.4692" style="stop-color:#C9E4B9"/>
				<stop  offset="1" style="stop-color:#90FC72"/>
			</linearGradient>
			<path class="st6" d="M241,581.5c17.5,1,35.1,1.2,52.2-0.1l17.2-9.9c-1.7-19.4-1.9-38.8,0.1-58.1c-23.2,3.4-47,3.7-70.9,2.6
				C237.6,537.2,238.7,559.4,241,581.5z"/>
			
				<linearGradient id="SVGID_7_" gradientUnits="userSpaceOnUse" x1="147.0087" y1="158.3438" x2="220.64" y2="158.3438" gradientTransform="matrix(1 0 0 -1 0 600)">
				<stop  offset="0" style="stop-color:#DDE85A"/>
				<stop  offset="0.4692" style="stop-color:#C9E4B9"/>
				<stop  offset="1" style="stop-color:#90FC72"/>
			</linearGradient>
			<path class="st7" d="M172.1,460.1c8,1.9,16,3.7,24.2,5.4c6.4-10.5,14.5-19.8,22.7-29.6c-6.5-2.7-13-5.7-19.4-8.9
				s-12.8-6.2-19.2-9.1c-11.1,12.1-22.4,23.8-31.7,36.9C156.5,456.5,164.3,458.3,172.1,460.1z"/>
			
				<linearGradient id="SVGID_8_" gradientUnits="userSpaceOnUse" x1="217.2845" y1="173.877" x2="279.1189" y2="173.877" gradientTransform="matrix(1 0 0 -1 0 600)">
				<stop  offset="0" style="stop-color:#DDE85A"/>
				<stop  offset="0.4692" style="stop-color:#C9E4B9"/>
				<stop  offset="1" style="stop-color:#90FC72"/>
			</linearGradient>
			<path class="st8" d="M218.9,435.9c14.9,6.2,30.2,11.1,45.8,14.3l0,0c6.2-8.8,10.4-17.8,13.2-27.2c-13.5-4.7-26.4-11.6-38.7-20.5
				c-4.5,11.4-10.9,22.2-19.9,32.9C219.2,435.6,219.1,435.7,218.9,435.9z"/>
			
				<linearGradient id="SVGID_9_" gradientUnits="userSpaceOnUse" x1="178.6569" y1="193.3262" x2="240.4142" y2="193.3262" gradientTransform="matrix(1 0 0 -1 0 600)">
				<stop  offset="0" style="stop-color:#DDE85A"/>
				<stop  offset="0.4692" style="stop-color:#C9E4B9"/>
				<stop  offset="1" style="stop-color:#90FC72"/>
			</linearGradient>
			<path class="st9" d="M218.9,435.9c0.1-0.2,0.3-0.3,0.4-0.5c9-10.7,15.4-21.5,19.9-32.9c-4.8-3.5-9.5-7.3-14.1-11.4
				c-5.3-4.7-10.4-9.2-15.8-13.4c-6.7,13.2-15.5,25.5-26.8,37.9c-0.7,0.8-1.4,1.6-2.1,2.3c6.4,2.8,12.8,5.9,19.2,9.1
				C205.9,430.2,212.4,433.2,218.9,435.9z"/>
			
				<linearGradient id="SVGID_10_" gradientUnits="userSpaceOnUse" x1="93.3065" y1="170.9354" x2="182.0822" y2="170.9354" gradientTransform="matrix(1 0 0 -1 0 600)">
				<stop  offset="0" style="stop-color:#DDE85A"/>
				<stop  offset="0.4692" style="stop-color:#C9E4B9"/>
				<stop  offset="1" style="stop-color:#90FC72"/>
			</linearGradient>
			<path class="st10" d="M148.7,454.9c9.3-13.2,20.6-24.8,31.7-36.9c-14.6-6.4-29.5-11.7-45.5-14.8c-13.7,14-27.9,27.8-39.7,43.4
				C113.2,448.1,131,451.2,148.7,454.9z"/>
			
				<linearGradient id="SVGID_11_" gradientUnits="userSpaceOnUse" x1="24.3647" y1="177.6135" x2="137.0165" y2="177.6135" gradientTransform="matrix(1 0 0 -1 0 600)">
				<stop  offset="0" style="stop-color:#DDE85A"/>
				<stop  offset="0.4692" style="stop-color:#C9E4B9"/>
				<stop  offset="1" style="stop-color:#90FC72"/>
			</linearGradient>
			<path class="st11" d="M26.3,441.9c22.3,2.9,44.6,2.7,67.9,4.6c0.3,0,0.7,0.1,1,0.1c11.8-15.6,26-29.3,39.7-43.4
				c-0.8-0.1-1.5-0.3-2.3-0.4c-20.6-3.6-41.4-3.2-62.1-4.6C55.4,412.2,39.5,426.1,26.3,441.9z"/>
			
				<linearGradient id="SVGID_12_" gradientUnits="userSpaceOnUse" x1="0.1" y1="186.1181" x2="72.8798" y2="186.1181" gradientTransform="matrix(1 0 0 -1 0 600)">
				<stop  offset="0" style="stop-color:#DDE85A"/>
				<stop  offset="0.4692" style="stop-color:#C9E4B9"/>
				<stop  offset="1" style="stop-color:#90FC72"/>
			</linearGradient>
			<path class="st12" d="M1.1,437.1c8.4,2.2,16.8,3.7,25.2,4.8c13.2-15.9,29.2-29.7,44.2-43.7c-11.2-0.7-22.3-2-33.4-4.6
				c-8.5-2-16.7-4.7-24.8-7.7c-3.7,2.1-7.4,4.3-11.2,6.4L1.1,437.1L1.1,437.1z"/>
			
				<linearGradient id="SVGID_13_" gradientUnits="userSpaceOnUse" x1="0.1" y1="276.6444" x2="190.866" y2="276.6444" gradientTransform="matrix(1 0 0 -1 0 600)">
				<stop  offset="0" style="stop-color:#DDE85A"/>
				<stop  offset="0.4692" style="stop-color:#C9E4B9"/>
				<stop  offset="1" style="stop-color:#90FC72"/>
			</linearGradient>
			<path class="st13" d="M37,292.5c-4.9,22.9-18.5,36-35.9,43.7v1.2c9.4,0.9,18.8,2.3,28.2,4.3c1.5,0.3,3,0.6,4.5,1
				c15.4-11.2,26.4-27,29.8-51.1c-3.3,24.1-14.3,39.9-29.8,51.1c9.8,2.1,19.5,4.3,29.3,6.1c13-14.4,22-32.7,23.4-58.1
				c-1.4,25.4-10.4,43.6-23.4,58.1c7.2,1.3,14.4,2.3,21.8,2.8c8.2,0.6,16.5,0.7,24.8,0.6c10.9-18.1,17.5-38.1,18.6-62.1
				c-1.1,24.1-7.7,44.1-18.6,62.1c20.6-0.1,41.2-0.7,61.2,5c10.3-18.2,16.8-38,18.9-61.3c-27-9.4-58.3-6.1-86.4-5.6
				c-34.1,0.5-68.2,1.9-102.3,2.4v43.4C18.5,328.4,32.1,315.4,37,292.5z"/>
			
				<linearGradient id="SVGID_14_" gradientUnits="userSpaceOnUse" x1="222.8154" y1="15.0144" x2="243.113" y2="15.0144" gradientTransform="matrix(1 0 0 -1 0 600)">
				<stop  offset="0" style="stop-color:#DDE85A"/>
				<stop  offset="0.4692" style="stop-color:#C9E4B9"/>
				<stop  offset="1" style="stop-color:#90FC72"/>
			</linearGradient>
			<path class="st14" d="M241,581.5c-4.6-0.3-9.3-0.6-13.9-1l14.8,8.5C241.6,586.5,241.3,584,241,581.5z"/>
			
				<linearGradient id="SVGID_15_" gradientUnits="userSpaceOnUse" x1="239.864" y1="9.4357" x2="297.4878" y2="9.4357" gradientTransform="matrix(1 0 0 -1 0 600)">
				<stop  offset="0" style="stop-color:#DDE85A"/>
				<stop  offset="0.4692" style="stop-color:#C9E4B9"/>
				<stop  offset="1" style="stop-color:#90FC72"/>
			</linearGradient>
			<path class="st15" d="M260.9,600l32.3-18.7c-17.2,1.3-34.7,1.2-52.2,0.1c0.3,2.5,0.6,5,0.9,7.6L260.9,600z"/>
			
				<linearGradient id="SVGID_16_" gradientUnits="userSpaceOnUse" x1="451.7583" y1="211.32" x2="521.8495" y2="211.32" gradientTransform="matrix(1 0 0 -1 0 600)">
				<stop  offset="0" style="stop-color:#DDE85A"/>
				<stop  offset="0.4692" style="stop-color:#C9E4B9"/>
				<stop  offset="1" style="stop-color:#90FC72"/>
			</linearGradient>
			<path class="st16" d="M520.5,381.7c-2.4-6.7-5.5-13-8.8-19.8c-20.6,9.1-39.8,20.9-58.9,33.1c0.5,6.7,1,13.4,1.4,20.1
				C475.8,402.8,497.6,390.9,520.5,381.7z"/>
			
				<linearGradient id="SVGID_17_" gradientUnits="userSpaceOnUse" x1="238.5129" y1="105.395" x2="320.9281" y2="105.395" gradientTransform="matrix(1 0 0 -1 0 600)">
				<stop  offset="0" style="stop-color:#DDE85A"/>
				<stop  offset="0.4692" style="stop-color:#C9E4B9"/>
				<stop  offset="1" style="stop-color:#90FC72"/>
			</linearGradient>
			<path class="st17" d="M310.5,513.3c0.7-7.4,1.8-14.8,3.2-22.2c1.3-6.6,3.2-12.5,5.6-18.1c-22.9,3.5-46.3,3.3-69.7,1
				c-2.8,5.6-5,11.6-6.5,18.3c-1.7,7.7-2.8,15.6-3.5,23.6C263.4,517,287.3,516.7,310.5,513.3z"/>
			
				<linearGradient id="SVGID_18_" gradientUnits="userSpaceOnUse" x1="0.1" y1="212.9632" x2="14.6242" y2="212.9632" gradientTransform="matrix(1 0 0 -1 0 600)">
				<stop  offset="0" style="stop-color:#DDE85A"/>
				<stop  offset="0.4692" style="stop-color:#C9E4B9"/>
				<stop  offset="1" style="stop-color:#90FC72"/>
			</linearGradient>
			<path class="st18" d="M12.3,385.9c-3.8-1.4-7.5-2.9-11.2-4.4v10.8C4.8,390.1,8.6,388,12.3,385.9z"/>
			
				<linearGradient id="SVGID_19_" gradientUnits="userSpaceOnUse" x1="453.0617" y1="181.501" x2="521.7061" y2="181.501" gradientTransform="matrix(1 0 0 -1 0 600)">
				<stop  offset="0" style="stop-color:#DDE85A"/>
				<stop  offset="0.4692" style="stop-color:#C9E4B9"/>
				<stop  offset="1" style="stop-color:#90FC72"/>
			</linearGradient>
			<path class="st19" d="M454.1,415.1c0.4,6.2,0.7,12.5,0.9,18.7c0.3,6.8,0.1,13.9,0,21.1c21.6-11.4,43.2-22.5,65.6-31.3v-41.4
				c-0.1-0.2-0.1-0.3-0.2-0.5C497.6,390.9,475.8,402.8,454.1,415.1z"/>
			
				<linearGradient id="SVGID_20_" gradientUnits="userSpaceOnUse" x1="495.5739" y1="292.9148" x2="521.7" y2="292.9148" gradientTransform="matrix(1 0 0 -1 0 600)">
				<stop  offset="0" style="stop-color:#DDE85A"/>
				<stop  offset="0.4692" style="stop-color:#C9E4B9"/>
				<stop  offset="1" style="stop-color:#90FC72"/>
			</linearGradient>
			<path class="st20" d="M502.1,337.1c6.1-2.8,12.2-5.2,18.6-7.3V277c-8.4,2.5-16.3,5.7-24.1,9.5C497.3,303.5,498,320.7,502.1,337.1
				z"/>
			
				<linearGradient id="SVGID_21_" gradientUnits="userSpaceOnUse" x1="88.5579" y1="87.2558" x2="129.26" y2="87.2558" gradientTransform="matrix(1 0 0 -1 0 600)">
				<stop  offset="0" style="stop-color:#DDE85A"/>
				<stop  offset="0.4692" style="stop-color:#C9E4B9"/>
				<stop  offset="1" style="stop-color:#90FC72"/>
			</linearGradient>
			<path class="st21" d="M128.1,505.7c-11.8-1.1-23.5-2-35.3-2.8l33.5,19.3C126.6,516.7,127.2,511.2,128.1,505.7z"/>
			
				<linearGradient id="SVGID_22_" gradientUnits="userSpaceOnUse" x1="194.5961" y1="145.1204" x2="266.3951" y2="145.1204" gradientTransform="matrix(1 0 0 -1 0 600)">
				<stop  offset="0" style="stop-color:#DDE85A"/>
				<stop  offset="0.4692" style="stop-color:#C9E4B9"/>
				<stop  offset="1" style="stop-color:#90FC72"/>
			</linearGradient>
			<path class="st22" d="M264.7,450.2c-15.5-3.2-30.8-8.1-45.8-14.3c-8.2,9.8-16.2,19.1-22.7,29.6c17.5,3.6,35.4,6.7,53.4,8.5
				C253.7,465.8,259,458.3,264.7,450.2z"/>
			
				<linearGradient id="SVGID_23_" gradientUnits="userSpaceOnUse" x1="13.1911" y1="133.2704" x2="97.0261" y2="133.2704" gradientTransform="matrix(1 0 0 -1 0 600)">
				<stop  offset="0" style="stop-color:#DDE85A"/>
				<stop  offset="0.4692" style="stop-color:#C9E4B9"/>
				<stop  offset="1" style="stop-color:#90FC72"/>
			</linearGradient>
			<path class="st23" d="M72.4,491.1c1.5-5.8,3.5-11.5,6.1-17.1c4.5-9.9,10.3-18.9,16.7-27.4c-0.3,0-0.7-0.1-1-0.1
				c-23.3-1.9-45.6-1.7-67.9-4.6c-4.2,5.1-8.1,10.3-11.7,15.9L72.4,491.1z"/>
			
				<linearGradient id="SVGID_24_" gradientUnits="userSpaceOnUse" x1="338.8275" y1="242.719" x2="503.2712" y2="242.719" gradientTransform="matrix(1 0 0 -1 0 600)">
				<stop  offset="0" style="stop-color:#DDE85A"/>
				<stop  offset="0.4692" style="stop-color:#C9E4B9"/>
				<stop  offset="1" style="stop-color:#90FC72"/>
			</linearGradient>
			<path class="st24" d="M371.8,419.7c9.5-3.8,18.4-8.5,27.1-13.7c2.5-17,3-34.2,3.5-51.5c-0.5,17.3-1,34.5-3.5,51.5
				c18.2-11,34.9-24.4,51.9-37.1c-1.2-16.7-2.2-33.5-2.3-50.4c0.1,16.9,1.1,33.7,2.3,50.4c2.3-1.7,4.6-3.4,6.9-5.1
				c14.7-10.7,29.2-19.7,44.4-26.7c-4.1-16.4-4.8-33.6-5.5-50.7c-16.2,7.8-31.3,18.3-46.8,31c-23,18.9-45.4,39.3-73.2,50.9
				c-9.4,3.9-19.8,6.9-30.5,8.8c-0.6,17.7-1.4,35-5.9,51.4C350.6,426.9,361.1,424,371.8,419.7z"/>
			
				<linearGradient id="SVGID_25_" gradientUnits="userSpaceOnUse" x1="276.6722" y1="198.5559" x2="347.0413" y2="198.5559" gradientTransform="matrix(1 0 0 -1 0 600)">
				<stop  offset="0" style="stop-color:#DDE85A"/>
				<stop  offset="0.4692" style="stop-color:#C9E4B9"/>
				<stop  offset="1" style="stop-color:#90FC72"/>
			</linearGradient>
			<path class="st25" d="M340.1,428.5c4.5-16.5,5.3-33.8,5.9-51.4c-21,3.6-43.4,2.9-62.7-3.9c0,17.6-0.8,34.1-5.4,49.8
				C297.6,429.8,318.6,431.9,340.1,428.5z"/>
			
				<linearGradient id="SVGID_26_" gradientUnits="userSpaceOnUse" x1="71.2387" y1="123.8293" x2="150.41" y2="123.8293" gradientTransform="matrix(1 0 0 -1 0 600)">
				<stop  offset="0" style="stop-color:#DDE85A"/>
				<stop  offset="0.4692" style="stop-color:#C9E4B9"/>
				<stop  offset="1" style="stop-color:#90FC72"/>
			</linearGradient>
			<path class="st26" d="M72.4,491.1l20.4,11.8c11.8,0.8,23.6,1.7,35.3,2.8c1.3-8.1,3.2-16,6.1-23.8c3.7-9.9,8.7-18.8,14.6-27
				c-17.7-3.7-35.4-6.8-53.5-8.3c-6.5,8.5-12.2,17.5-16.7,27.4C75.8,479.7,73.9,485.4,72.4,491.1z"/>
			
				<linearGradient id="SVGID_27_" gradientUnits="userSpaceOnUse" x1="180.5976" y1="109.3388" x2="251.143" y2="109.3388" gradientTransform="matrix(1 0 0 -1 0 600)">
				<stop  offset="0" style="stop-color:#DDE85A"/>
				<stop  offset="0.4692" style="stop-color:#C9E4B9"/>
				<stop  offset="1" style="stop-color:#90FC72"/>
			</linearGradient>
			<path class="st27" d="M181.7,511.1c19.1,2,38.5,3.9,57.9,4.8c0.7-8,1.9-15.9,3.5-23.6c1.5-6.8,3.7-12.7,6.5-18.3
				c-17.9-1.8-35.8-4.9-53.4-8.5c-4,6.6-7.4,13.6-9.8,21.4C184,494.7,182.6,502.8,181.7,511.1z"/>
			
				<linearGradient id="SVGID_28_" gradientUnits="userSpaceOnUse" x1="126.9537" y1="117.0037" x2="197.8867" y2="117.0037" gradientTransform="matrix(1 0 0 -1 0 600)">
				<stop  offset="0" style="stop-color:#DDE85A"/>
				<stop  offset="0.4692" style="stop-color:#C9E4B9"/>
				<stop  offset="1" style="stop-color:#90FC72"/>
			</linearGradient>
			<path class="st28" d="M128.1,505.7c8.9,0.8,17.9,1.7,26.8,2.6c8.8,0.9,17.8,1.8,26.8,2.8c0.9-8.2,2.4-16.3,4.8-24.2
				c2.4-7.8,5.8-14.8,9.8-21.4c-8.1-1.7-16.2-3.5-24.2-5.4c-7.8-1.8-15.6-3.6-23.4-5.2c-5.8,8.3-10.9,17.1-14.6,27
				C131.2,489.7,129.3,497.7,128.1,505.7z"/>
			
				<linearGradient id="SVGID_29_" gradientUnits="userSpaceOnUse" x1="0.1" y1="152.5233" x2="28.1905" y2="152.5233" gradientTransform="matrix(1 0 0 -1 0 600)">
				<stop  offset="0" style="stop-color:#DDE85A"/>
				<stop  offset="0.4692" style="stop-color:#C9E4B9"/>
				<stop  offset="1" style="stop-color:#90FC72"/>
			</linearGradient>
			<path class="st29" d="M14.6,457.8c3.5-5.5,7.4-10.8,11.7-15.9c-8.4-1.1-16.7-2.6-25.2-4.8V450L14.6,457.8z"/>
			
				<linearGradient id="SVGID_30_" gradientUnits="userSpaceOnUse" x1="9.9552" y1="226.4759" x2="111.4737" y2="226.4759" gradientTransform="matrix(1 0 0 -1 0 600)">
				<stop  offset="0" style="stop-color:#DDE85A"/>
				<stop  offset="0.4692" style="stop-color:#C9E4B9"/>
				<stop  offset="1" style="stop-color:#90FC72"/>
			</linearGradient>
			<path class="st30" d="M12.3,385.9c8.1,3,16.3,5.7,24.8,7.7c11.1,2.7,22.2,3.9,33.4,4.6c1.5-1.4,3.1-2.9,4.6-4.3
				c14-13.3,25.7-26.8,34.7-41.6c-8.3,0-16.5,0-24.8-0.6c-7.4-0.5-14.7-1.6-21.8-2.8C49.4,364,31.2,375,12.3,385.9z"/>
			
				<linearGradient id="SVGID_31_" gradientUnits="userSpaceOnUse" x1="9.240723e-02" y1="251.6973" x2="36.1406" y2="251.6973" gradientTransform="matrix(1 0 0 -1 0 600)">
				<stop  offset="0" style="stop-color:#DDE85A"/>
				<stop  offset="0.4692" style="stop-color:#C9E4B9"/>
				<stop  offset="1" style="stop-color:#90FC72"/>
			</linearGradient>
			<path class="st31" d="M33.7,342.7c-1.5-0.3-3-0.7-4.5-1c-9.4-2-18.8-3.4-28.2-4.3v21.5C13.1,354.7,24.3,349.6,33.7,342.7z"/>
			
				<linearGradient id="SVGID_32_" gradientUnits="userSpaceOnUse" x1="262.9899" y1="161.535" x2="341.5697" y2="161.535" gradientTransform="matrix(1 0 0 -1 0 600)">
				<stop  offset="0" style="stop-color:#DDE85A"/>
				<stop  offset="0.4692" style="stop-color:#C9E4B9"/>
				<stop  offset="1" style="stop-color:#90FC72"/>
			</linearGradient>
			<path class="st32" d="M264.7,450.2c21.5,4.4,43.5,5.5,65.5,2.2c0.1-0.1,0.1-0.2,0.2-0.3c4.5-7.6,7.6-15.5,9.8-23.6
				c-21.6,3.4-42.5,1.3-62.3-5.6C275.1,432.3,271,441.4,264.7,450.2L264.7,450.2z"/>
			
				<linearGradient id="SVGID_33_" gradientUnits="userSpaceOnUse" x1="208.0483" y1="229.033" x2="284.3062" y2="229.033" gradientTransform="matrix(1 0 0 -1 0 600)">
				<stop  offset="0" style="stop-color:#DDE85A"/>
				<stop  offset="0.4692" style="stop-color:#C9E4B9"/>
				<stop  offset="1" style="stop-color:#90FC72"/>
			</linearGradient>
			<path class="st33" d="M225.1,391.1c4.6,4.1,9.3,7.9,14.1,11.4c6.4-16.1,8.9-33.3,9.4-53c-0.5,19.7-3,36.9-9.4,53
				c12.2,8.9,25.2,15.8,38.7,20.5c4.6-15.6,5.4-32.1,5.4-49.8c-2.2-0.8-4.3-1.6-6.4-2.5c-17.5-7.7-28.9-21.6-40.4-36.2
				c-4-5.1-7.9-10-12.1-14.5c-1.6,21.9-6.5,40.5-15.2,57.8C214.7,381.9,219.8,386.4,225.1,391.1z"/>
			
				<linearGradient id="SVGID_34_" gradientUnits="userSpaceOnUse" x1="132.8382" y1="212.2708" x2="210.5741" y2="212.2708" gradientTransform="matrix(1 0 0 -1 0 600)">
				<stop  offset="0" style="stop-color:#DDE85A"/>
				<stop  offset="0.4692" style="stop-color:#C9E4B9"/>
				<stop  offset="1" style="stop-color:#90FC72"/>
			</linearGradient>
			<path class="st34" d="M134.9,403.2c16,3,30.9,8.3,45.5,14.8c0.7-0.8,1.4-1.5,2.1-2.3c11.3-12.4,20.2-24.7,26.8-37.9
				c-10.7-8.4-22.1-15.4-35.9-19.7c-0.8-0.3-1.7-0.5-2.5-0.7c-8.4,14.9-19.4,28.7-32.5,42.3C137.2,400.8,136,402,134.9,403.2z"/>
			
				<linearGradient id="SVGID_35_" gradientUnits="userSpaceOnUse" x1="169.3824" y1="263.2052" x2="225.5289" y2="263.2052" gradientTransform="matrix(1 0 0 -1 0 600)">
				<stop  offset="0" style="stop-color:#DDE85A"/>
				<stop  offset="0.4692" style="stop-color:#C9E4B9"/>
				<stop  offset="1" style="stop-color:#90FC72"/>
			</linearGradient>
			<path class="st35" d="M209.3,377.7c8.7-17.2,13.6-35.9,15.2-57.8c-9.3-10.1-19.5-18.5-33.6-23.6c-0.4-0.1-0.7-0.2-1.1-0.4
				c-2.1,23.3-8.6,43.1-18.9,61.3c0.8,0.2,1.7,0.5,2.5,0.7C187.2,362.3,198.6,369.3,209.3,377.7z"/>
			
				<linearGradient id="SVGID_36_" gradientUnits="userSpaceOnUse" x1="68.0663" y1="222.3066" x2="172.398" y2="222.3066" gradientTransform="matrix(1 0 0 -1 0 600)">
				<stop  offset="0" style="stop-color:#DDE85A"/>
				<stop  offset="0.4692" style="stop-color:#C9E4B9"/>
				<stop  offset="1" style="stop-color:#90FC72"/>
			</linearGradient>
			<path class="st36" d="M75,393.9c-1.5,1.4-3,2.9-4.6,4.3c20.7,1.4,41.5,1,62.1,4.6c0.8,0.1,1.5,0.3,2.3,0.4
				c1.2-1.2,2.4-2.4,3.6-3.7c13.1-13.6,24.1-27.4,32.5-42.3c-20.1-5.7-40.6-5.1-61.2-5C100.8,367.1,89,380.6,75,393.9z"/>
			
				<linearGradient id="SVGID_37_" gradientUnits="userSpaceOnUse" x1="248.0633" y1="137.1128" x2="332.1376" y2="137.1128" gradientTransform="matrix(1 0 0 -1 0 600)">
				<stop  offset="0" style="stop-color:#DDE85A"/>
				<stop  offset="0.4692" style="stop-color:#C9E4B9"/>
				<stop  offset="1" style="stop-color:#90FC72"/>
			</linearGradient>
			<path class="st37" d="M319.3,473c3-7,6.7-13.5,10.9-20.6c-22,3.4-44,2.2-65.5-2.2c-5.7,8.1-11,15.5-15.1,23.8
				C272.9,476.3,296.4,476.5,319.3,473z"/>
			
				<linearGradient id="SVGID_38_" gradientUnits="userSpaceOnUse" x1="453.9778" y1="144.4181" x2="521.7" y2="144.4181" gradientTransform="matrix(1 0 0 -1 0 600)">
				<stop  offset="0" style="stop-color:#DDE85A"/>
				<stop  offset="0.4692" style="stop-color:#C9E4B9"/>
				<stop  offset="1" style="stop-color:#90FC72"/>
			</linearGradient>
			<path class="st38" d="M456,487.4l64.7-37.4v-26.4c-22.4,8.8-44.1,19.9-65.6,31.3C454.9,465.7,454.8,476.7,456,487.4z"/>
			
				<linearGradient id="SVGID_39_" gradientUnits="userSpaceOnUse" x1="382.3911" y1="146.8965" x2="456.2154" y2="146.8965" gradientTransform="matrix(1 0 0 -1 0 600)">
				<stop  offset="0" style="stop-color:#DDE85A"/>
				<stop  offset="0.4692" style="stop-color:#C9E4B9"/>
				<stop  offset="1" style="stop-color:#90FC72"/>
			</linearGradient>
			<path class="st39" d="M385.4,468.3c-0.8,7.8-1.4,15.4-1.9,22.8c24.4-10.7,47.9-23.6,71.6-36.1c0.1-7.2,0.2-14.3,0-21.1
				c-0.2-6.3-0.6-12.5-0.9-18.7c-21.7,12.3-43.2,24.9-65.8,35.5C387,456.4,386,462.2,385.4,468.3z"/>
			
				<linearGradient id="SVGID_40_" gradientUnits="userSpaceOnUse" x1="328.2397" y1="171.1839" x2="400.1683" y2="171.1839" gradientTransform="matrix(1 0 0 -1 0 600)">
				<stop  offset="0" style="stop-color:#DDE85A"/>
				<stop  offset="0.4692" style="stop-color:#C9E4B9"/>
				<stop  offset="1" style="stop-color:#90FC72"/>
			</linearGradient>
			<path class="st40" d="M330.2,452.4c10-1.5,20-4,30-7.5c11.6-4,22.7-9,33.4-14.5c0.1-0.3,0.2-0.7,0.3-1c2.3-7.7,3.9-15.5,5-23.4
				c-8.7,5.2-17.6,9.9-27.1,13.7c-10.7,4.3-21.2,7.2-31.6,8.8c-2.2,8.1-5.3,16-9.8,23.6C330.3,452.2,330.2,452.3,330.2,452.4z"/>
			
				<linearGradient id="SVGID_41_" gradientUnits="userSpaceOnUse" x1="386.8788" y1="177.1855" x2="455.1353" y2="177.1855" gradientTransform="matrix(1 0 0 -1 0 600)">
				<stop  offset="0" style="stop-color:#DDE85A"/>
				<stop  offset="0.4692" style="stop-color:#C9E4B9"/>
				<stop  offset="1" style="stop-color:#90FC72"/>
			</linearGradient>
			<path class="st41" d="M388.3,450.6c22.6-10.6,44.2-23.2,65.8-35.5c-0.4-6.7-0.9-13.4-1.4-20.1c-19.3,12.3-38.6,24.9-59.2,35.5
				C391.6,437.2,389.8,443.9,388.3,450.6z"/>
			
				<linearGradient id="SVGID_42_" gradientUnits="userSpaceOnUse" x1="519.25" y1="217.3923" x2="521.7076" y2="217.3923" gradientTransform="matrix(1 0 0 -1 0 600)">
				<stop  offset="0" style="stop-color:#DDE85A"/>
				<stop  offset="0.4692" style="stop-color:#C9E4B9"/>
				<stop  offset="1" style="stop-color:#90FC72"/>
			</linearGradient>
			<path class="st42" d="M520.7,382.2v-0.6c-0.1,0-0.1,0-0.2,0.1C520.6,381.9,520.6,382.1,520.7,382.2z"/>
			
				<linearGradient id="SVGID_43_" gradientUnits="userSpaceOnUse" x1="391.9345" y1="200.3434" x2="453.7831" y2="200.3434" gradientTransform="matrix(1 0 0 -1 0 600)">
				<stop  offset="0" style="stop-color:#DDE85A"/>
				<stop  offset="0.4692" style="stop-color:#C9E4B9"/>
				<stop  offset="1" style="stop-color:#90FC72"/>
			</linearGradient>
			<path class="st43" d="M393.5,430.4c20.6-10.6,39.9-23.2,59.2-35.5c-0.6-8.7-1.3-17.4-1.9-26.1c-17,12.7-33.8,26.1-51.9,37.1
				c-1.2,7.9-2.8,15.7-5,23.4C393.7,429.8,393.6,430.1,393.5,430.4z"/>
			
				<linearGradient id="SVGID_44_" gradientUnits="userSpaceOnUse" x1="382.0075" y1="108.0565" x2="457.061" y2="108.0565" gradientTransform="matrix(1 0 0 -1 0 600)">
				<stop  offset="0" style="stop-color:#DDE85A"/>
				<stop  offset="0.4692" style="stop-color:#C9E4B9"/>
				<stop  offset="1" style="stop-color:#90FC72"/>
			</linearGradient>
			<path class="st44" d="M383.8,529l72.2-41.7c-1.1-10.7-1-21.7-0.9-32.4c-23.6,12.5-47.2,25.4-71.6,36.1
				C382.8,504.1,382.8,516.7,383.8,529z"/>
			
				<linearGradient id="SVGID_45_" gradientUnits="userSpaceOnUse" x1="309.3668" y1="118.2932" x2="389.6936" y2="118.2932" gradientTransform="matrix(1 0 0 -1 0 600)">
				<stop  offset="0" style="stop-color:#DDE85A"/>
				<stop  offset="0.4692" style="stop-color:#C9E4B9"/>
				<stop  offset="1" style="stop-color:#90FC72"/>
			</linearGradient>
			<path class="st45" d="M319.3,473c-2.4,5.6-4.3,11.5-5.6,18.1c-1.4,7.4-2.4,14.8-3.2,22.2c10.8-1.6,21.4-3.8,31.8-6.9
				c14.1-4.2,27.8-9.4,41.2-15.3c0.4-7.5,1-15.1,1.9-22.8c0.6-6.1,1.7-11.9,2.9-17.6c-12.9,6.1-26.1,11.4-39.9,15.7
				C338.8,469.3,329.1,471.5,319.3,473z"/>
			
				<linearGradient id="SVGID_46_" gradientUnits="userSpaceOnUse" x1="317.6632" y1="148.5377" x2="395.2176" y2="148.5377" gradientTransform="matrix(1 0 0 -1 0 600)">
				<stop  offset="0" style="stop-color:#DDE85A"/>
				<stop  offset="0.4692" style="stop-color:#C9E4B9"/>
				<stop  offset="1" style="stop-color:#90FC72"/>
			</linearGradient>
			<path class="st46" d="M348.4,466.4c13.8-4.3,27-9.7,39.9-15.7c1.5-6.7,3.3-13.4,5.3-20.2c-10.7,5.5-21.8,10.5-33.4,14.5
				c-10,3.5-20,5.9-30,7.5c-4.2,7.1-7.9,13.6-10.9,20.6C329.1,471.5,338.8,469.3,348.4,466.4z"/>
			
				<linearGradient id="SVGID_47_" gradientUnits="userSpaceOnUse" x1="510.3332" y1="230.3385" x2="521.7153" y2="230.3385" gradientTransform="matrix(1 0 0 -1 0 600)">
				<stop  offset="0" style="stop-color:#DDE85A"/>
				<stop  offset="0.4692" style="stop-color:#C9E4B9"/>
				<stop  offset="1" style="stop-color:#90FC72"/>
			</linearGradient>
			<path class="st47" d="M520.5,381.7c0.1,0,0.1,0,0.2-0.1v-23.5c-3,1.2-6,2.5-9,3.8C515.1,368.7,518.1,375,520.5,381.7z"/>
			
				<linearGradient id="SVGID_48_" gradientUnits="userSpaceOnUse" x1="308.1" y1="68.7597" x2="384.848" y2="68.7597" gradientTransform="matrix(1 0 0 -1 0 600)">
				<stop  offset="0" style="stop-color:#DDE85A"/>
				<stop  offset="0.4692" style="stop-color:#C9E4B9"/>
				<stop  offset="1" style="stop-color:#90FC72"/>
			</linearGradient>
			<path class="st48" d="M310.5,513.3c-1.9,19.3-1.8,38.7-0.1,58.1l73.4-42.4c-1-12.3-1-24.9-0.3-38c-13.4,5.9-27.1,11.2-41.2,15.3
				C331.9,509.5,321.3,511.7,310.5,513.3z"/>
			
				<linearGradient id="SVGID_49_" gradientUnits="userSpaceOnUse" x1="500.961" y1="254.1907" x2="521.7076" y2="254.1907" gradientTransform="matrix(1 0 0 -1 0 600)">
				<stop  offset="0" style="stop-color:#DDE85A"/>
				<stop  offset="0.4692" style="stop-color:#C9E4B9"/>
				<stop  offset="1" style="stop-color:#90FC72"/>
			</linearGradient>
			<path class="st49" d="M511.7,361.9c3-1.3,6-2.6,9-3.8v-28.3c-6.3,2.1-12.5,4.5-18.6,7.3c1.8,7.2,4.2,14.2,7.6,20.9
				C510.4,359.4,511.1,360.6,511.7,361.9z"/>
			
				<linearGradient id="SVGID_50_" gradientUnits="userSpaceOnUse" x1="449.7647" y1="233.7298" x2="513.0308" y2="233.7298" gradientTransform="matrix(1 0 0 -1 0 600)">
				<stop  offset="0" style="stop-color:#DDE85A"/>
				<stop  offset="0.4692" style="stop-color:#C9E4B9"/>
				<stop  offset="1" style="stop-color:#90FC72"/>
			</linearGradient>
			<path class="st50" d="M450.8,368.9c0.6,8.7,1.3,17.4,1.9,26.1c19.2-12.2,38.4-24,58.9-33.1c-0.6-1.3-1.3-2.5-1.9-3.8
				c-3.4-6.8-5.8-13.8-7.6-20.9c-15.2,6.9-29.8,15.9-44.4,26.7C455.4,365.5,453.1,367.2,450.8,368.9z"/>
		</g>
		
			<linearGradient id="SVGID_51_" gradientUnits="userSpaceOnUse" x1="254.53" y1="-61.4208" x2="271.53" y2="712.5792" gradientTransform="matrix(1 0 0 -1 0 600)">
			<stop  offset="0" style="stop-color:#3B3B30"/>
			<stop  offset="1" style="stop-color:#44D45A"/>
		</linearGradient>
		<path class="st51" d="M520.7,277v173l-64.8,37.4L430.6,502l-46.8,27l0,0l-73.4,42.3l-17.2,9.9l0,0L260.9,600l-19-11l-14.7-8.5
			l-46.3-26.7l-54.6-31.5L92.8,503l-20.4-11.8l-57.8-33.3l-13.5-7.8V292.8c34.1-0.5,68.2-1.9,102.3-2.4c28.2-0.5,59.5-3.8,86.4,5.6
			c0.4,0.1,0.7,0.3,1.1,0.4c14.1,5.2,24.3,13.5,33.6,23.6c4.1,4.5,8.1,9.4,12.1,14.5c11.5,14.6,22.9,28.5,40.4,36.2
			c2.1,0.9,4.2,1.8,6.4,2.5c19.3,6.8,41.7,7.6,62.7,3.9c10.8-1.9,21.1-4.9,30.5-8.8c27.3-11.4,49.4-31.3,71.9-49.8
			c0.4-0.4,0.9-0.7,1.3-1.1c15.5-12.7,30.7-23.2,46.8-31C504.4,282.7,512.3,279.5,520.7,277z"/>
		<g>
			
				<radialGradient id="SVGID_52_" cx="265.2667" cy="273.5687" r="293.0558" gradientTransform="matrix(1 0 0 -1 0 600)" gradientUnits="userSpaceOnUse">
				<stop  offset="0" style="stop-color:#3B3B30"/>
				<stop  offset="1" style="stop-color:#44D45A"/>
			</radialGradient>
			<path class="st52" d="M101.6,420.9l164.7-285l164.7,285H101.6z M361.6,380.9l-95.3-165l-95.3,165H361.6z"/>
			<g>
				<polygon class="st53" points="379.4,386.4 154.5,386.3 266.9,191.8 				"/>
				<g>
					<g>
						<defs>
							<polygon id="SVGID_53_" points="396.3,381.6 266.3,156.6 136.3,381.6 							"/>
						</defs>
						<clipPath id="SVGID_54_">
							<use xlink:href="#SVGID_53_"  style="overflow:visible;"/>
						</clipPath>
						<g class="st54">
							<g>
								<g>
									<path class="st55" d="M164.5,374H154c-14.8,0-26.7-12-26.7-26.7V316c0-14.5,11.8-26.3,26.3-26.3h2.8l0.7,7.3l0.2,1.8
										l1.4,14.2l-2.3-13.6v5c0,22.5,2.5,44.9,7.6,66.8l0.5,2.1V374z"/>
								</g>
								<g>
									<path class="st55" d="M390.5,316v31.2c0,14.8-12,26.7-26.7,26.7h-10.4l1.4-6.1c4.3-18.5,6.5-37.5,6.5-56.6v-7l-0.1-4.2
										l-2.1,13l1.4-14.2l0.2-1.8l0,0l0.4-4.2l0,0l0.3-3.1h2.8C378.7,289.7,390.5,301.5,390.5,316z"/>
								</g>
								<g>
									<path class="st56" d="M163.7,376.5h-8.9c-16.1,0-29.2-13.1-29.2-29.2V316c0-15.9,12.9-28.8,28.8-28.8h2.8v5h-2.8
										c-13.1,0-23.8,10.7-23.8,23.8v31.2c0,13.4,10.9,24.2,24.2,24.2h8.9V376.5z"/>
								</g>
								<g>
									<path class="st56" d="M367,376.5h-8.9v-5h8.9c13.4,0,24.2-10.9,24.2-24.2V316c0-13.1-10.7-23.8-23.8-23.8h-2.8v-5h2.8
										c15.9,0,28.8,12.9,28.8,28.8v31.2C396.2,363.3,383.1,376.5,367,376.5z"/>
								</g>
							</g>
							<g>
								<g>
									<polygon class="st57" points="360.1,383.1 348.4,433.3 175,433.3 163.5,383.1 									"/>
								</g>
								<g>
									<path class="st55" d="M347.6,433.3V458c0,14.1-11.4,25.5-25.5,25.5H199.7c-14.1,0-25.5-11.4-25.5-25.5v-24.7H347.6z"/>
								</g>
								<g>
									<path class="st55" d="M166,383.1l8.3,50.2l-14.6-63.7l-0.5-2.1c-5-21.9-7.6-44.3-7.6-66.8v-5l2.3,13.6l-1.4-14.2
										c14-13.3,30.6-24,48.8-31.5c-12.2,14-19.7,32.3-19.7,52.3c0,28.3,14.8,53.2,37.2,67.2L166,383.1L166,383.1z"/>
								</g>
								<g>
									<path class="st55" d="M370.2,300.5v7c0,19.1-2.2,38-6.5,56.6l-1.4,6.1l-14.7,63.2l8.3-50.2h-52.7
										c22.3-14,37.2-38.9,37.2-67.2c0-20-7.4-38.3-19.7-52.3c18.2,7.4,34.7,18.2,48.8,31.5l-1.4,14.2l2.1-13L370.2,300.5z"/>
								</g>
								<g>
									<path class="st55" d="M369.1,294.2c-0.2-0.2-0.4-0.4-0.6-0.6c-14-13.3-30.6-24-48.8-31.5c-18.4-7.5-38.6-11.7-59.7-11.7
										s-41.3,4.1-59.7,11.7c-18.2,7.4-34.7,18.2-48.8,31.5c-0.2,0.2-0.4,0.4-0.6,0.6c0.1-0.8,0.3-1.6,0.5-2.4
										c10.5-50.4,55.1-88.3,108.7-88.3s98.2,37.9,108.7,88.3l0,0C368.8,292.6,369,293.4,369.1,294.2z"/>
								</g>
								<g>
									<path class="st57" d="M339.5,315.8c0,28.3-14.8,53.2-37.2,67.2h-84.4c-22.3-14-37.2-38.9-37.2-67.2
										c0-20,7.4-38.3,19.7-52.3c18.4-7.5,38.6-11.7,59.7-11.7c21.1,0,41.3,4.1,59.7,11.7C332.1,277.5,339.5,295.8,339.5,315.8z"
										/>
								</g>
								<g>
									<path class="st56" d="M303,386.4h-85.9l-0.6-0.4c-24-15.1-38.3-41-38.3-69.3c0-19.9,7.2-39,20.3-54l0.4-0.4l0.5-0.2
										c19.3-7.9,39.7-11.9,60.7-11.9s41.4,4,60.7,11.9l0.5,0.2l0.4,0.4c13.1,14.9,20.3,34.1,20.3,54c0,28.3-14.3,54.2-38.3,69.3
										L303,386.4z M218.6,381.4h83c22.2-14.2,35.4-38.4,35.4-64.7c0-18.5-6.6-36.3-18.7-50.2c-18.5-7.5-38.1-11.3-58.2-11.3
										s-39.7,3.8-58.2,11.3c-12,13.9-18.7,31.8-18.7,50.2C183.2,343,196.4,367.1,218.6,381.4z"/>
								</g>
								<g>
									<path class="st56" d="M369.2,298.9c-0.6,0-1.3-0.2-1.7-0.7c-14.2-13.6-30.5-24.2-48.6-31.6c-18.6-7.6-38.4-11.5-58.8-11.5
										s-40.1,3.9-58.8,11.5c-18.1,7.4-34.5,18-48.6,31.6c-0.8,0.8-2,0.9-2.9,0.4c-1-0.5-1.5-1.6-1.3-2.7
										c9.9-53.8,56.8-92.8,111.6-92.8s101.7,39,111.6,92.8c0.2,1.1-0.3,2.1-1.3,2.7C370,298.8,369.6,298.9,369.2,298.9z
										 M260.1,250.2c21,0,41.4,4,60.7,11.9c16.2,6.6,31.1,15.8,44.3,27.2c-12.3-47.4-55.2-81.1-105-81.1s-92.7,33.7-105,81.1
										c13.2-11.5,28.1-20.6,44.3-27.2C218.7,254.2,239.1,250.2,260.1,250.2z"/>
								</g>
								<g>
									<path class="st56" d="M303,386.4h-85.9l-0.6-0.4c-24-15.1-38.3-41-38.3-69.3c0-19.9,7.2-39,20.3-54l0.4-0.4l0.5-0.2
										c19.3-7.9,39.7-11.9,60.7-11.9s41.4,4,60.7,11.9l0.5,0.2l0.4,0.4c13.1,14.9,20.3,34.1,20.3,54c0,28.3-14.3,54.2-38.3,69.3
										L303,386.4z M218.6,381.4h83c22.2-14.2,35.4-38.4,35.4-64.7c0-18.5-6.6-36.3-18.7-50.2c-18.5-7.5-38.1-11.3-58.2-11.3
										s-39.7,3.8-58.2,11.3c-12,13.9-18.7,31.8-18.7,50.2C183.2,343,196.4,367.1,218.6,381.4z"/>
								</g>
								<g>
									<path class="st56" d="M321.2,486.8H198.9c-15.4,0-28-12.6-28-28v-27.2h178.3v27.2C349.3,474.3,336.7,486.8,321.2,486.8z
										 M175.9,436.6v22.2c0,12.7,10.3,23,23,23h122.3c12.7,0,23-10.3,23-23v-22.2H175.9z"/>
								</g>
								<g>
									<rect x="302.3" y="381.4" class="st56" width="55.8" height="5"/>
								</g>
								<g>
									<rect x="163.7" y="381.4" class="st56" width="54.2" height="5"/>
								</g>
								<g>
									<path class="st56" d="M171,434.7l-15.1-65.9c-5.1-22.1-7.6-44.7-7.6-67.4v-5h5v5c0,22.3,2.5,44.6,7.5,66.3l15.1,65.8
										L171,434.7z"/>
								</g>
								<g>
									<path class="st56" d="M349.2,434.7l-4.9-1.1l16.2-69.3c4.3-18.3,6.4-37.2,6.4-56v-11.8h5v11.8c0,19.2-2.2,38.4-6.6,57.2
										L349.2,434.7z"/>
								</g>
								<g>
									<path class="st56" d="M150.7,298.9c-1.4,0-2.5-1.1-2.5-2.5v-90.7c0-1.4,1.1-2.5,2.5-2.5s2.5,1.1,2.5,2.5v90.7
										C153.2,297.8,152.1,298.9,150.7,298.9z"/>
								</g>
								<g>
									<path class="st56" d="M369.4,303.8c-1.4,0-2.5-1.1-2.5-2.4L363.7,175c0-1.4,1.1-2.5,2.4-2.6c1.4-0.1,2.5,1.1,2.6,2.4
										l3.2,126.4C372,302.6,370.9,303.7,369.4,303.8C369.5,303.8,369.5,303.8,369.4,303.8z"/>
								</g>
								<g>
									<path class="st56" d="M330.6,420.4c-0.5,0-1-0.2-1.5-0.5l-18.8-13.4c-1.4-1-3.4-1-4.8,0.1l-11.7,8.8
										c-3.2,2.4-7.7,2.4-10.9,0l-11.6-8.7c-1.4-1.1-3.4-1.1-4.9,0l-11.7,8.8c-3.1,2.3-7.4,2.4-10.6,0.2l-13.4-9.3
										c-1.4-1-3.2-1-4.6,0l-13.1,9c-3.5,2.4-8.1,2.1-11.2-0.7l-12.3-11.1c-1-0.9-1.1-2.5-0.2-3.5s2.5-1.1,3.5-0.2l12.3,11.1
										c1.4,1.3,3.5,1.4,5,0.3l13.1-9c3.1-2.1,7.2-2.1,10.3,0l13.4,9.3c1.4,1,3.3,1,4.7-0.1l11.7-8.8c3.2-2.4,7.7-2.4,10.9,0
										l11.6,8.7c1.4,1.1,3.4,1.1,4.9,0l11.7-8.8c3.2-2.4,7.5-2.4,10.7-0.1l18.8,13.4c1.1,0.8,1.4,2.4,0.6,3.5
										C332.1,420,331.3,420.4,330.6,420.4z"/>
								</g>
								<g>
									<polyline class="st58" points="319.2,481.1 322.2,595.9 322.2,596 322.3,603.2 322.3,603.2 									"/>
								</g>
								<g>
									<path class="st59" d="M301.4,287.5c0,10.3-8.3,18.7-18.6,18.7s-20.3-8.4-20.3-18.7c0-10.3,9.9-18.7,20.3-18.7
										C293.1,268.8,301.4,277.2,301.4,287.5z"/>
								</g>
								<g>
									<path class="st59" d="M317.6,319.7c0,4.1-4.6,7.5-8.7,7.5s-7.5-3.3-7.5-7.5s3.3-8.7,7.5-8.7S317.6,315.6,317.6,319.7z"/>
								</g>
							</g>
						</g>
					</g>
				</g>
				<g>
					<path class="st60" d="M413.6,411.6H118.9l147.3-255L413.6,411.6z M153.6,391.6h225.3l-112.7-195L153.6,391.6z"/>
				</g>
				<path class="st2" d="M396.5,401"/>
				<g>
					<path class="st61" d="M391.3,411.4"/>
					<path class="st61" d="M265.5,154.5"/>
					<polyline class="st61" points="379.4,390.9 266.5,196.1 254.7,175.7 					"/>
				</g>
				<g>
					
						<radialGradient id="SVGID_55_" cx="254.9" cy="306.45" r="127.4629" gradientTransform="matrix(1 0 0 -1 0 600)" gradientUnits="userSpaceOnUse">
						<stop  offset="0" style="stop-color:#3B3B30"/>
						<stop  offset="0.4949" style="stop-color:#3F4534"/>
						<stop  offset="1" style="stop-color:#848F73"/>
					</radialGradient>
					<polyline class="st62" points="391.3,411.4 118.5,411.3 254.7,175.7 266.5,196.1 154,390.8 379.4,390.9 					"/>
				</g>
			</g>
		</g>
		
			<radialGradient id="SVGID_56_" cx="260.95" cy="300" r="280.6439" gradientTransform="matrix(1 0 0 -1 0 600)" gradientUnits="userSpaceOnUse">
			<stop  offset="0" style="stop-color:#33362C"/>
			<stop  offset="1" style="stop-color:#282B23"/>
		</radialGradient>
		<path class="st63" d="M260.9,0L1.1,150v300l13.5,7.8l57.8,33.3l20.4,11.8l33.5,19.3l54.6,31.5l46.3,26.7l14.7,8.6l19,11l32.3-18.7
			l0,0l17.2-9.9l73.4-42.3l0,0l46.8-27l25.4-14.6l64.8-37.4V150L260.9,0z M478.7,425.8L260.9,551.5L43.1,425.8V174.3L260.9,48.5
			l217.8,125.8V425.8z"/>
	</g>
	<polygon class="st64" points="478.7,425.8 260.9,551.5 43.1,425.8 43.1,174.3 260.9,48.5 478.7,174.3 	"/>
</g>
</svg>
