<?xml version="1.0" encoding="UTF-8"?>
<svg width="93px" height="107px" viewBox="0 0 93 107" version="1.1" xmlns="http://www.w3.org/2000/svg" xmlns:xlink="http://www.w3.org/1999/xlink">
    <!-- Generator: Sketch 51.3 (57544) - http://www.bohemiancoding.com/sketch -->
    <title>bender</title>
    <desc>Created with Sketch.</desc>
    <defs></defs>
    <g id="Page-1" stroke="none" stroke-width="1" fill="none" fill-rule="evenodd">
        <g id="bender" transform="translate(0.000000, -1.000000)">
            <path d="M92.0771,27.5371 L92.0771,80.6777 L92.0664,80.6875 L92.0469,80.6973 L91.6367,80.9375 L91.2666,81.1484 L90.6465,81.498 L86.4971,83.8877 L86.4863,83.8984 L86.3564,83.9775 L86.2969,84.0078 L85.7471,84.3281 L84.9463,84.7773 L84.8467,84.8379 L84.3672,85.1172 L83.2363,85.7676 L82.3867,86.2578 L81.6465,86.6875 L81.4072,86.8184 L81.2764,86.8672 L81.167,86.9375 L80.167,87.5078 L80.1367,87.5273 L78.1367,88.6777 L77.627,88.9678 L77.4863,89.0479 L77.457,89.0684 L77.3164,89.1484 L77.3066,89.1582 L76.2666,89.748 L76.2266,89.7773 L76.1572,89.8184 L74.9971,90.4883 L74.5469,90.748 L74.5371,90.7578 L74.5264,90.7676 L74.5166,90.7676 L74.0967,91.0078 L72.9766,91.6582 L72.1064,92.1777 L70.9268,92.8477 L70.8467,92.8984 L70.7266,92.9678 L70.6865,92.998 L70.6465,93.0176 L70.627,93.0273 L70.5264,93.0879 L70.2363,93.2578 L70.207,93.2676 L70.0469,93.3574 L70.0469,93.3672 L69.6465,93.5977 L69.377,93.7578 L69.2666,93.8184 L69.0869,93.9082 L69.0664,93.9277 L69.0264,93.9473 L68.3369,94.3379 L68.2764,94.3779 L68.0371,94.5176 L68.0166,94.5273 L67.7266,94.6973 L67.5771,94.7773 L67.3564,94.9082 L67.1172,95.0479 L67.1064,95.0479 L66.6865,95.2979 L66.3965,95.4678 L66.3672,95.4883 L66.0664,95.6582 L64.707,96.4473 L64.207,96.7383 L63.957,96.8779 L63.2568,97.2773 L63.2266,97.2979 L63.2168,97.2979 L62.9072,97.4775 L62.8564,97.5078 L62.6172,97.6582 L61.7764,98.1377 L61.1465,98.498 L61.0869,98.5273 L60.5869,98.8184 C60.5771,98.8281 60.5771,98.8281 60.5771,98.8184 L60.0469,99.1279 L59.7568,99.2979 L58.9971,99.7383 L58.9463,99.7676 L58.8965,99.7979 L58.8672,99.8076 C58.8672,99.8184 58.8564,99.8184 58.8564,99.8184 L58.8369,99.8379 L58.5869,99.9775 L57.5869,100.5576 L57.417,100.6582 L57.377,100.6777 L56.9971,100.8984 L55.5771,101.7178 L55.2168,101.9277 L55.127,101.9775 L54.8867,102.1172 L54.0869,102.5781 L53.8271,102.7275 L53.5469,102.8877 L53.5371,102.8984 L53.3369,103.0176 L53.1064,103.1484 L52.7568,103.3477 L51.9268,103.8281 L51.917,103.8379 L51.8271,103.8877 L50.5068,104.6484 L50.4863,104.6582 L49.6963,105.1172 L49.0869,105.4678 L49.0771,105.4678 L47.667,106.2773 L47.6465,106.2979 L47.3965,106.4375 L46.8369,106.7578 L46.8271,106.7578 L46.6963,106.8379 L46.5068,106.9473 L46.2363,107.1074 L46.2266,107.1074 L46.0264,107.2275 L45.9668,107.1973 L44.8271,106.5371 L44.8066,106.5273 L44.6064,106.4082 L43.7568,105.918 L43.7266,105.9082 L43.3965,105.7178 L43.3867,105.707 L41.9863,104.8984 L41.9766,104.8877 L41.957,104.8779 L40.5869,104.0879 L40.5566,104.0684 L40.5469,104.0684 L39.7168,103.5879 L39.6572,103.5479 L39.3164,103.3574 L39.1367,103.248 L39.1172,103.2383 L38.457,102.8574 L38.417,102.8281 L38.3271,102.7773 L38.2266,102.7178 L38.0967,102.6484 L37.8271,102.4883 L37.707,102.418 L37.6963,102.418 L36.9766,101.998 L36.7363,101.8672 L36.3467,101.6377 L36.2969,101.6074 L36.2666,101.5879 L34.8672,100.7773 L34.8564,100.7773 L34.7471,100.707 L34.377,100.4883 L34.3672,100.4883 L34.0967,100.3281 L33.4766,99.9678 L33.4463,99.957 L33.3867,99.918 L33.3467,99.8984 L32.0566,99.1484 L31.667,98.918 L30.9863,98.5273 L30.4072,98.1973 L30.2969,98.1377 L29.2969,97.5576 L27.5771,96.5576 C27.5664,96.5479 27.5566,96.5371 27.5469,96.5371 L26.2266,95.7773 L22.3066,93.5176 L22.1465,93.4277 L21.5771,93.0977 L21.1064,92.8281 L20.667,92.5684 L20.3672,92.3984 L19.9863,92.1777 L18.9971,91.5977 L18.957,91.5781 L16.2168,89.9883 L16.1172,89.9277 L15.9365,89.8281 L15.2666,89.4473 L14.4463,88.9775 L14.3564,88.9277 L13.8564,88.6377 L13.8467,88.6279 L13.7666,88.5781 L13.7568,88.5781 L13.6367,88.5078 L13.627,88.5078 L13.3164,88.3281 L12.5869,87.9082 C12.5771,87.8984 12.5771,87.8984 12.5664,87.8984 L10.707,86.8184 L9.6865,86.2275 L7.5771,84.998 L7.4863,84.9473 L7.2871,84.8281 C7.2871,84.8281 7.2764,84.8281 7.2666,84.8184 L6.9863,84.6582 L6.457,84.3574 L5.6367,83.8779 L5.5771,83.8379 L5.5664,83.8379 C5.5664,83.8379 5.5664,83.8379 5.5566,83.8379 L5.0664,83.5479 L4.3672,83.1484 L3.6865,82.7578 L2.4668,82.0479 L2.3672,81.9883 L2.3564,81.9883 L2.0264,81.7979 L1.6172,81.5576 L1.6064,81.5576 L1.1768,81.3076 L0.1865,80.7383 L0.1064,80.6973 L0.0771,80.6777 L0.0771,27.5371 L0.8564,27.0879 L2.4463,26.168 L2.8066,25.957 L6.1865,24.0078 L7.2471,23.3984 L13.0264,20.0576 L13.0371,20.0576 L13.9463,19.5371 L14.9971,18.918 L16.8164,17.8672 L16.8271,17.8672 L17.6963,17.3574 L21.3271,15.2773 L21.9668,14.8984 L22.9072,14.3574 L23.0771,14.2676 L24.7363,13.3184 L25.5166,12.8672 L25.8965,12.6484 L26.3369,12.3877 L27.0068,11.998 L27.4365,11.7383 L27.957,11.4375 L28.457,11.1582 L29.0469,10.8184 L30.2363,10.1377 L30.9268,9.7275 L31.6768,9.2979 L32.3271,8.9277 L32.3369,8.9277 L32.3867,8.8984 L32.8164,8.6484 L38.1064,5.5977 L38.2168,5.5371 L38.2969,5.4883 L38.5664,5.3281 L44.0869,2.1377 L44.6367,1.8184 L46.0771,0.9883 L46.5869,1.2871 L47.6768,1.918 L50.5371,3.5684 L53.627,5.3574 L56.2266,6.8574 L56.4463,6.9883 L61.1367,9.6875 L62.1172,10.2578 L67.2471,13.2178 L68.1572,13.7383 L69.1963,14.3477 L71.4971,15.6582 L72.3672,16.1582 L73.0566,16.5576 L73.8867,17.0371 L74.377,17.3184 L74.957,17.6582 L75.2568,17.8281 L76.0566,18.2871 L76.1465,18.3477 L77.957,19.3877 L80.1172,20.6279 L81.2363,21.2773 L81.7363,21.5684 L81.7764,21.5977 L81.7764,21.6074 L82.0371,21.748 L82.6963,22.1377 L84.1572,22.9775 L86.0967,24.0977 L86.877,24.5371 L87.3164,24.7871 L87.8066,25.0684 L89.2568,25.9082 L89.4268,26.0078 L90.2764,26.498 L92.0771,27.5371 Z" id="Shape" fill="#FFFFFF" fill-rule="nonzero"></path>
            <path d="M59.8333,86.0417 L31.5,86.0417 C24.9,86.0417 19.5,80.6417 19.5,74.0417 L19.5,32.0417 C19.5,25.4417 24.9,20.0417 31.5,20.0417 L59.8333,20.0417 C66.4333,20.0417 71.8333,25.4417 71.8333,32.0417 L71.8333,74.0417 C71.8333,80.6417 66.4333,86.0417 59.8333,86.0417 Z" id="Shape" fill="#FFCD2D" fill-rule="nonzero" opacity="0.36"></path>
            <g id="Group" transform="translate(17.000000, 10.000000)">
                <g transform="translate(10.000000, 32.000000)" fill="#E8EEE6" fill-rule="nonzero" id="Shape">
                    <path d="M8.3666,3.4356 C8.6475,3.5018 8.4237,3.4503 8.3448,3.4076 C8.2573,3.3603 8.1739,3.306 8.0915,3.2506 C7.9378,3.1473 7.7893,3.0366 7.6314,2.9397 C7.3174,2.7471 6.9785,2.6032 6.6351,2.4725 C6.2227,2.3155 5.805,2.1739 5.3891,2.0265 C5.3847,2.025 5.3811,2.0237 5.3772,2.0223 C5.369,2.0188 5.36,2.0151 5.3495,2.0107 C5.2708,1.978 5.1916,1.9468 5.1135,1.9126 C4.9362,1.8349 4.7628,1.7489 4.5945,1.6533 C4.4545,1.5738 4.3224,1.4601 4.1779,1.3915 C4.2196,1.4113 4.2478,1.4249 4.2672,1.4343 C4.2345,1.4173 4.1855,1.3903 4.1581,1.3687 C4.072,1.3012 3.9879,1.2312 3.9059,1.1588 C3.7829,1.0502 3.6649,0.936 3.5519,0.817 C3.5028,0.7653 3.4189,0.7003 3.3867,0.6346 C3.4928,0.7624 3.5055,0.7765 3.4247,0.6768 C3.3908,0.6339 3.3575,0.5905 3.3249,0.5465 C2.958,0.0599 2.2552,-0.191 1.7113,0.1914 C1.6804,0.2132 1.6503,0.2366 1.6213,0.2616 C1.3489,0.2167 1.0152,0.2707 0.792,0.4276 C0.3206,0.759 0.0266,1.5317 0.4369,2.0412 C0.9893,2.7272 1.6271,3.2363 2.4235,3.6172 C2.5298,3.6681 2.6366,3.7184 2.7391,3.7767 C2.7552,3.7861 2.7713,3.7956 2.7875,3.805 C2.8228,3.8407 2.9557,3.9428 2.9675,3.9533 C3.0291,4.0084 3.0889,4.0655 3.1494,4.1218 C3.4824,4.4321 3.8459,4.7038 4.2351,4.9406 C4.8906,5.3394 5.6009,5.674 6.2992,5.9904 C7.0888,6.3481 7.9137,6.6607 8.7721,6.8006 C9.5646,6.9298 10.16,6.4117 10.2053,5.627 C10.2684,4.5281 9.3769,3.6738 8.3666,3.4356 Z"></path>
                    <path d="M4.2671,1.4344 C4.3021,1.4526 4.3174,1.4589 4.2671,1.4344 Z"></path>
                </g>
                <path d="M34.4104,23.6448 C34.4192,23.4259 34.3366,23.2022 34.2003,23.0131 C34.35,22.6325 34.4266,22.2276 34.3805,21.8076 C34.2922,21.0037 33.8451,20.2494 33.1015,19.8904 C32.6356,19.6655 32.1575,19.6598 31.66,19.7527 C31.5083,19.781 31.3618,19.8236 31.214,19.8674 C31.1465,19.8874 31.0776,19.904 31.0106,19.9253 C31.0051,19.9265 31.0011,19.9274 30.9961,19.9285 C30.9938,19.9287 30.9921,19.9289 30.9896,19.9292 C30.9708,19.9296 30.9521,19.93 30.9333,19.9305 C30.9222,19.9286 30.9095,19.9264 30.8936,19.9239 C30.8675,19.9179 30.8413,19.9119 30.8152,19.9059 C30.6568,19.8675 30.503,19.8129 30.3482,19.7625 C29.9934,19.6471 29.635,19.5771 29.2591,19.5797 C28.9354,19.5819 28.6237,19.7462 28.4093,19.9921 C28.2247,19.5591 27.7586,19.2298 27.2885,19.2655 C26.6553,19.3136 26.2798,19.7349 26.1786,20.3072 C25.568,20.1731 24.9691,20.5087 24.6652,21.0428 C24.3297,21.6324 24.2833,22.3364 24.2821,22.9987 C24.2809,23.6214 24.2851,24.2441 24.2867,24.8668 C24.2903,26.2879 24.2938,27.7091 24.2974,29.1302 C24.2989,29.7412 24.8845,30.3089 25.5011,30.262 C25.7436,30.2436 25.9636,30.1617 26.1439,30.0319 C26.3197,30.2588 26.5729,30.4135 26.9131,30.4475 C27.2759,30.4837 27.5879,30.3591 27.8191,30.1335 C28.0886,30.4079 28.5159,30.5406 28.8781,30.4799 C29.2436,30.4186 29.5966,30.16 29.7624,29.8167 C29.9979,30.0616 30.3385,30.1965 30.6846,30.1752 C30.7393,30.4336 31.0241,30.7385 31.2515,30.8463 C31.4881,30.9585 31.7277,30.9987 31.9871,30.9552 C32.4041,30.8852 32.6968,30.6289 32.8481,30.2821 C32.9735,30.3242 33.1063,30.3431 33.2411,30.3328 C33.8834,30.284 34.3796,29.7832 34.3729,29.1291 C34.3541,27.3008 34.3371,25.472 34.4104,23.6448 Z" id="Shape" fill="#E8EEE6" fill-rule="nonzero"></path>
                <path d="M34.4975,13.2488 C34.3583,12.7219 34.0047,12.2086 33.7507,11.7286 C33.5108,11.2752 33.2984,10.7856 33.016,10.3572 C32.8287,10.0731 32.5581,9.8174 32.2429,9.683 C31.9171,9.5441 31.6341,9.5146 31.2903,9.4769 C31.5007,9.4997 31.1787,9.4607 31.1029,9.4485 C30.9836,9.4293 30.865,9.4062 30.7472,9.3794 C30.648,9.3568 30.5496,9.3307 30.4517,9.3027 C30.4763,9.2449 30.4953,9.1842 30.508,9.1202 C30.518,9.0198 30.5281,8.9193 30.5381,8.8189 C30.5301,8.6047 30.469,8.4069 30.3547,8.2256 L30.1598,7.9938 C30.0088,7.8568 29.8341,7.7646 29.6357,7.7172 C29.6108,7.7091 29.5859,7.701 29.5609,7.693 C29.4076,7.651 29.2557,7.6496 29.1051,7.6888 C28.9465,7.7014 28.8002,7.7539 28.6663,7.8463 C28.5318,7.9257 28.4258,8.0314 28.3485,8.1633 C28.2513,8.2795 28.1878,8.4135 28.1579,8.5652 C28.1479,8.6656 28.1378,8.7661 28.1278,8.8665 C28.1326,8.9955 28.157,9.1184 28.2004,9.2354 C27.7071,9.3891 27.2052,9.5278 26.719,9.7024 C26.0701,9.9353 25.6022,10.3114 25.2501,10.9053 C24.6494,11.9184 24.1268,13.1874 24.2899,14.3853 C24.3335,14.7055 24.4214,14.9844 24.6682,15.2104 C24.8752,15.4 25.2089,15.5387 25.4936,15.5171 C25.8698,15.4885 26.2744,15.2602 26.4858,14.9251 C27.3935,15.0472 28.2993,15.0782 29.2148,15.0572 C29.6949,15.0462 30.1708,15.0487 30.6502,15.0742 C30.6644,15.075 30.6738,15.0754 30.6808,15.0756 C30.713,15.0818 30.7448,15.0889 30.7738,15.0934 C30.8858,15.1108 30.9971,15.1318 31.1075,15.1574 C31.2177,15.1829 31.3247,15.2209 31.4344,15.2475 C31.4363,15.248 31.4374,15.2482 31.4392,15.2487 C31.5047,15.2775 31.5852,15.3139 31.5908,15.3165 C31.7546,15.3928 31.9351,15.4319 32.1153,15.4352 C32.1161,15.4365 32.1169,15.438 32.1178,15.4393 C32.2691,15.6761 32.5559,15.8948 32.8368,15.9477 C33.1381,16.0045 33.473,15.9761 33.7314,15.7944 C33.9971,15.6076 34.1284,15.3774 34.2398,15.0754 C34.4663,14.4608 34.6743,13.918 34.4975,13.2488 Z" id="Shape" fill="#E8EEE6" fill-rule="nonzero"></path>
                <path d="M43.7607,38.6928 C43.7151,38.6553 43.53,38.5331 43.5244,38.4723 C43.6305,38.6026 43.6449,38.6167 43.5676,38.5149 C43.5525,38.4925 43.5374,38.4702 43.5224,38.4478 C43.4943,38.4043 43.4681,38.3596 43.4435,38.314 C43.3904,38.192 43.336,38.0704 43.278,37.9507 C43.042,37.4634 42.6304,37.126 42.1901,36.8318 C41.4689,36.3499 40.6556,36.0059 39.8357,35.7291 C39.8243,35.352 39.8075,34.9749 39.7851,34.5981 C39.7489,33.9892 39.2226,33.4176 38.5814,33.4663 C37.965,33.5131 37.4108,34.0176 37.4496,34.67 C37.5387,36.1682 37.5405,37.6695 37.4551,39.168 C37.4203,39.7791 38.0678,40.3447 38.6588,40.2998 C39.2498,40.2549 39.6422,39.8704 39.7577,39.3389 C39.7678,39.3419 39.7779,39.3449 39.7879,39.348 C39.8109,39.3576 39.8368,39.3684 39.8482,39.374 C39.8925,39.3955 39.9358,39.4185 39.9786,39.4428 C40.0106,39.461 40.0416,39.4812 40.0731,39.5004 C40.2272,39.628 40.3807,39.7537 40.528,39.8899 C40.881,40.2161 41.2279,40.5405 41.6347,40.8012 C42.3999,41.2916 43.2694,40.9625 43.8324,40.3435 C44.24,39.8951 44.2509,39.0961 43.7607,38.6928 Z" id="Shape" fill="#E8EEE6" fill-rule="nonzero"></path>
                <path d="M13.2257,32.2986 L11.2611,34.636 C10.253,33.7402 9.3477,32.7733 8.5404,31.7866 C7.6859,30.7422 6.9402,29.6749 6.2974,28.6439 C3.9789,24.929 2.9842,21.6849 2.9842,21.6849 C2.8728,21.6402 2.7729,21.5671 2.6954,21.4692 L0.9038,19.1989 C0.6021,18.8161 0.779,18.2499 1.2438,18.1072 L1.0842,18.1544 L0.4131,15.897 L1.5689,15.5535 L2.24,17.8104 L2.2877,17.7965 L1.381,14.7472 L2.7152,14.3505 L3.6219,17.3998 L4.4675,17.1483 L3.8864,15.1932 L5.0417,14.8497 L5.6233,16.8048 L5.2674,16.9107 C5.7272,16.774 6.1831,17.1344 6.1572,17.6131 L6.0016,20.462 C5.9857,20.7563 5.7859,21.0093 5.5035,21.0933 C5.5035,21.0933 5.9658,22.2158 6.8457,23.8448 C7.3344,24.749 7.9513,25.8089 8.69,26.9199 C9.303,27.8431 10,28.8015 10.776,29.7346 C11.5206,30.6303 12.3384,31.5028 13.2257,32.2986 Z" id="Shape" fill="#E8EEE6" fill-rule="nonzero"></path>
                <path d="M24.2059,5.1689 C24.2059,4.6579 24.62,4.2438 25.131,4.2438 C25.642,4.2438 26.0561,4.6579 26.0561,5.1689 C26.0561,5.4706 25.9119,5.7386 25.6882,5.9071 C25.5331,6.0244 25.3402,6.094 25.1309,6.094 C24.6199,6.0941 24.2059,5.68 24.2059,5.1689 Z" id="Shape" fill="#E8EEE6" fill-rule="nonzero"></path>
                <path d="M30.4814,1.6643 C30.4814,1.1533 30.8955,0.7392 31.4065,0.7392 C31.9175,0.7392 32.3316,1.1533 32.3316,1.6643 C32.3316,2.1753 31.9175,2.5894 31.4065,2.5894 C31.3772,2.5894 31.3483,2.5879 31.32,2.5849 C30.8492,2.5417 30.4814,2.146 30.4814,1.6643 Z" id="Shape" fill="#E8EEE6" fill-rule="nonzero"></path>
                <rect id="Rectangle-path" fill="#E8EEE6" fill-rule="nonzero" x="25.5456" y="23.9512" width="7.6962" height="3.262"></rect>
                <path d="M22.6683,17.6946 C22.6683,16.8018 23.0302,15.9935 23.6153,15.4079 C24.2004,14.8228 25.0092,14.4609 25.902,14.4609 L32.8854,14.4609 C33.4004,14.4609 33.8876,14.5812 34.3196,14.7955 C35.3859,15.3244 36.1191,16.424 36.1191,17.6946 C36.1191,18.5874 35.7572,19.3962 35.1721,19.9813 C34.587,20.5669 33.7782,20.9288 32.8854,20.9288 L25.902,20.9288 C24.1159,20.9288 22.6683,19.4807 22.6683,17.6946 Z" id="Shape" fill="#E8EEE6" fill-rule="nonzero"></path>
                <path d="M42.312,80.3178 L42.312,81.6724 C42.312,82.7924 39.6192,83.7081 36.297,83.7081 C32.9753,83.7081 30.2825,82.6642 30.2825,81.6724 L30.2825,80.2556 C30.2825,80.2556 30.6285,81.5774 33.7155,82.07 C31.8563,81.721 30.5822,81.0301 30.5822,80.3634 C30.5822,79.9359 30.6359,79.5203 30.7368,79.1216 C31.2135,77.243 32.7476,75.7482 34.7181,75.2183 L34.3512,72.4937 L33.8819,69.006 L33.3957,65.3965 L32.9036,61.7398 L32.4234,58.1735 L32.0734,55.5741 L26.56,55.5741 L26.21,58.1735 L25.73,61.7399 L25.2379,65.3966 L24.7517,69.0061 L24.2824,72.4938 L23.9155,75.2184 C26.3041,75.8607 28.0514,77.9207 28.0514,80.3635 C28.0514,81.2916 25.5803,82.2674 22.4997,82.3012 C27.8257,82.2619 28.3372,80.3053 28.3372,80.3053 L28.3372,81.7221 C28.3372,82.7138 25.6498,83.7578 22.3346,83.7578 C19.0194,83.7578 16.332,82.8421 16.332,81.7221 L16.332,80.3675 C16.332,80.3675 16.8669,82.26 22.1576,82.3013 C19.0825,82.2695 16.6178,81.41 16.6178,80.3636 C16.6178,77.8522 18.4651,75.745 20.9571,75.1683 L22.2759,65.0019 L22.7427,61.4028 L23.208,57.8152 L23.557,55.1258 C22.9262,54.7057 22.4813,54.0227 22.3843,53.2209 L20.8154,40.1942 C20.1378,40.2489 19.5324,39.7592 19.4493,39.0782 L18.9487,34.9631 C18.8637,34.2662 19.3593,33.6318 20.0558,33.5448 C20.0737,33.4866 20.1025,33.4329 20.1398,33.3862 C20.1403,33.3857 20.1408,33.3847 20.1413,33.3837 C20.1865,33.3106 20.9277,32.1275 22.0114,31.1164 C22.0566,31.0741 22.1019,31.0324 22.1481,30.9916 C22.7819,30.4199 23.4734,29.9273 23.9347,29.6186 C24.2573,29.4029 24.4676,29.2771 24.4676,29.2771 L34.3193,29.2771 C34.3193,29.2771 34.5524,29.4168 34.9049,29.6539 C35.2668,29.8975 35.7535,30.2445 36.2416,30.6486 C36.4216,30.7972 36.6015,30.9543 36.7755,31.1164 C37.8592,32.1275 38.6004,33.3106 38.6456,33.3837 C38.6461,33.3847 38.6466,33.3857 38.6471,33.3862 C38.7247,33.4831 38.7649,33.6094 38.7485,33.7436 L36.4026,53.2208 C36.2987,54.0813 35.7936,54.8056 35.0877,55.2142 L35.4252,57.8151 L35.8905,61.4027 L36.3573,65.0018 L37.6761,75.1682 C40.1681,75.7449 42.0154,77.8521 42.0154,80.3635 C42.0154,80.8969 41.3756,81.3811 40.3411,81.7325 C42.0734,81.1599 42.312,80.3178 42.312,80.3178 Z" id="Shape" fill="#E8EEE6" fill-rule="nonzero"></path>
                <path d="M51.4106,60.5622 L51.5841,60.5622 L51.5841,62.917 L50.3781,62.917 L50.3781,60.5622 L50.3284,60.5622 L50.3284,63.7437 L48.9365,63.7437 L48.9365,60.5622 L48.0546,60.5622 L48.0546,62.6018 L46.8486,62.6018 L46.8486,60.5622 L47.22,60.5622 C46.7408,60.5622 46.4057,60.087 46.5673,59.6351 L47.5282,56.9487 C47.6276,56.6713 47.8906,56.4859 48.1859,56.4859 C48.1859,56.4859 48.0626,55.2779 47.6828,53.4655 C47.4725,52.4594 47.1832,51.2678 46.792,49.9922 C46.4674,48.9324 46.0727,47.8154 45.5945,46.6999 C45.1357,45.6286 44.6003,44.5593 43.9769,43.5443 C43.3406,42.5083 42.6123,41.5285 41.7797,40.6606 L43.9357,38.5031 C44.9399,39.549 45.7959,40.6859 46.5261,41.8636 C47.2375,43.0099 47.8295,44.1945 48.3222,45.3707 C48.8437,46.615 49.2538,47.8503 49.5764,49.022 C50.7401,53.2434 50.769,56.6367 50.769,56.6367 C50.863,56.7108 50.938,56.8092 50.9848,56.9255 L52.0551,59.6124 C52.2358,60.0676 51.9008,60.5622 51.4106,60.5622 Z" id="Shape" fill="#E8EEE6" fill-rule="nonzero"></path>
                <path d="M31.0376,9.0948 L30.4411,9.0948 C30.4411,8.5173 29.9712,8.0474 29.3937,8.0474 C28.8162,8.0474 28.3463,8.5172 28.3463,9.0948 L27.7498,9.0948 C27.7498,8.1884 28.4873,7.4509 29.3937,7.4509 C30.3001,7.4509 31.0376,8.1884 31.0376,9.0948 Z" id="Shape" fill="#11083A" fill-rule="nonzero"></path>
                <path d="M16.618,79.4201 L7.8495,79.4201 C7.6848,79.4201 7.5512,79.2866 7.5512,79.1218 C7.5512,78.957 7.6847,78.8235 7.8495,78.8235 L16.618,78.8235 C16.7827,78.8235 16.9163,78.957 16.9163,79.1218 C16.9163,79.2866 16.7827,79.4201 16.618,79.4201 Z" id="Shape" fill="#11083A" fill-rule="nonzero"></path>
                <path d="M50.7843,79.4201 L42.0158,79.4201 C41.8511,79.4201 41.7175,79.2866 41.7175,79.1218 C41.7175,78.957 41.8511,78.8235 42.0158,78.8235 L50.7843,78.8235 C50.949,78.8235 51.0826,78.957 51.0826,79.1218 C51.0826,79.2866 50.9491,79.4201 50.7843,79.4201 Z" id="Shape" fill="#11083A" fill-rule="nonzero"></path>
                <path d="M30.7372,79.4201 L28.0515,79.4201 C27.8868,79.4201 27.7532,79.2866 27.7532,79.1218 C27.7532,78.957 27.8867,78.8235 28.0515,78.8235 L30.7372,78.8235 C30.9019,78.8235 31.0355,78.957 31.0355,79.1218 C31.0355,79.2866 30.9019,79.4201 30.7372,79.4201 Z" id="Shape" fill="#11083A" fill-rule="nonzero"></path>
                <path d="M25.7936,15.2316 C25.3124,15.9325 25.0315,16.7806 25.0315,17.6948 C25.0315,18.609 25.3124,19.457 25.7936,20.158 L25.729,20.158 C24.3689,20.158 23.2663,19.0549 23.2663,17.6948 C23.2663,17.0148 23.5417,16.3988 23.9876,15.9529 C24.4335,15.5075 25.0489,15.2316 25.729,15.2316 L25.7936,15.2316 Z" id="Shape" fill="#11083A" fill-rule="nonzero"></path>
                <path d="M35.521,17.6948 C35.521,18.3748 35.2456,18.9908 34.7997,19.4367 C34.3538,19.8821 33.7384,20.158 33.0583,20.158 L32.9937,20.158 C33.4749,19.4571 33.7558,18.609 33.7558,17.6948 C33.7558,16.7806 33.4749,15.9326 32.9937,15.2316 L33.0583,15.2316 C34.4185,15.2316 35.521,16.3347 35.521,17.6948 Z" id="Shape" fill="#11083A" fill-rule="nonzero"></path>
                <path d="M32.8854,21.227 L25.902,21.227 C23.9545,21.227 22.3701,19.6424 22.3701,17.6946 C22.3701,16.7516 22.7374,15.8646 23.4044,15.1971 C24.0715,14.53 24.9585,14.1626 25.9021,14.1626 L32.8855,14.1626 C33.436,14.1626 33.9631,14.2856 34.4522,14.5282 C35.6644,15.1295 36.4175,16.3428 36.4175,17.6946 C36.4175,18.6381 36.0502,19.5251 35.3832,20.1922 C34.7162,20.8595 33.8292,21.227 32.8854,21.227 Z M25.902,14.7592 C25.1177,14.7592 24.3806,15.0645 23.8262,15.6188 C23.2719,16.1736 22.9666,16.9108 22.9666,17.6946 C22.9666,19.3135 24.2834,20.6305 25.902,20.6305 L32.8854,20.6305 C33.6698,20.6305 34.407,20.3251 34.9611,19.7705 C35.5155,19.2161 35.8208,18.4788 35.8208,17.6946 C35.8208,16.5711 35.1948,15.5625 34.187,15.0626 C33.781,14.8612 33.3431,14.7591 32.8854,14.7591 L25.902,14.7591 L25.902,14.7592 Z" id="Shape" fill="#11083A" fill-rule="nonzero"></path>
                <path d="M33.7558,17.6948 C33.7558,18.609 33.4749,19.457 32.9937,20.158 L25.7936,20.158 C25.3124,19.4571 25.0315,18.609 25.0315,17.6948 C25.0315,16.7806 25.3124,15.9326 25.7936,15.2316 L32.9937,15.2316 C33.4749,15.9325 33.7558,16.7806 33.7558,17.6948 Z" id="Shape" fill="#48B980" fill-rule="nonzero"></path>
                <circle id="Oval" fill="#FFFFFF" fill-rule="nonzero" cx="30.6749" cy="17.1634" r="1.1818"></circle>
                <circle id="Oval" fill="#FFFFFF" fill-rule="nonzero" cx="32.2232" cy="18.9302" r="1"></circle>
                <polygon id="Shape" fill="#11083A" fill-rule="nonzero" points="34.6178 29.5755 24.1696 29.5755 24.1696 20.6608 24.7661 20.6608 24.7661 28.979 34.0213 28.979 34.0213 20.6275 34.6178 20.6275"></polygon>
                <path d="M34.6176,14.7956 L34.0211,14.7956 L34.0211,13.8714 C34.0211,11.3198 31.9452,9.244 29.3937,9.244 C26.8421,9.244 24.7663,11.3199 24.7663,13.8714 L24.7663,14.7659 L24.1698,14.7659 L24.1698,13.8714 C24.1698,10.9909 26.5132,8.6474 29.3938,8.6474 C32.2743,8.6474 34.6178,10.9908 34.6178,13.8714 L34.6178,14.7956 L34.6176,14.7956 Z" id="Shape" fill="#11083A" fill-rule="nonzero"></path>
                <g transform="translate(25.000000, 23.000000)" fill-rule="nonzero">
                    <rect id="Rectangle-path" fill="#FFCC2C" x="0.5456" y="0.9512" width="7.6962" height="3.262"></rect>
                    <path d="M8.2418,4.5115 L0.5456,4.5115 C0.3809,4.5115 0.2473,4.378 0.2473,4.2132 L0.2473,0.9512 C0.2473,0.7865 0.3808,0.6529 0.5456,0.6529 L8.2418,0.6529 C8.4065,0.6529 8.5401,0.7865 8.5401,0.9512 L8.5401,4.2132 C8.5401,4.3779 8.4065,4.5115 8.2418,4.5115 Z M0.8438,3.9149 L7.9435,3.9149 L7.9435,1.2494 L0.8438,1.2494 L0.8438,3.9149 Z" id="Shape" fill="#11083A"></path>
                </g>
                <path d="M33.2416,26.4029 C32.8103,26.4029 32.6001,26.0986 32.4466,25.8765 C32.3026,25.6681 32.2452,25.6075 32.1424,25.6075 C32.0395,25.6075 31.9821,25.6681 31.8381,25.8765 C31.6846,26.0986 31.4743,26.4029 31.0431,26.4029 C30.6118,26.4029 30.4016,26.0987 30.2481,25.8765 C30.1041,25.6681 30.0466,25.6075 29.9438,25.6075 C29.841,25.6075 29.7835,25.6681 29.6395,25.8765 C29.486,26.0986 29.2757,26.4029 28.8445,26.4029 C28.4132,26.4029 28.203,26.0987 28.0495,25.8765 C27.9055,25.6681 27.848,25.6075 27.7451,25.6075 C27.6422,25.6075 27.5848,25.6681 27.4407,25.8765 C27.2871,26.0986 27.0769,26.4029 26.6456,26.4029 C26.2143,26.4029 26.004,26.0987 25.8505,25.8765 C25.7064,25.6681 25.649,25.6075 25.5461,25.6075 C25.3814,25.6075 25.2478,25.474 25.2478,25.3092 C25.2478,25.1444 25.3813,25.0109 25.5461,25.0109 C25.9774,25.0109 26.1877,25.3151 26.3412,25.5373 C26.4853,25.7457 26.5427,25.8063 26.6456,25.8063 C26.7485,25.8063 26.8059,25.7457 26.95,25.5373 C27.1035,25.3152 27.3138,25.0109 27.7451,25.0109 C28.1764,25.0109 28.3867,25.3151 28.5402,25.5373 C28.6842,25.7457 28.7417,25.8063 28.8445,25.8063 C28.9474,25.8063 29.0048,25.7457 29.1488,25.5373 C29.3023,25.3152 29.5126,25.0109 29.9438,25.0109 C30.375,25.0109 30.5853,25.3151 30.7388,25.5373 C30.8828,25.7457 30.9403,25.8063 31.0431,25.8063 C31.146,25.8063 31.2034,25.7457 31.3474,25.5373 C31.5009,25.3152 31.7112,25.0109 32.1424,25.0109 C32.5736,25.0109 32.7839,25.3151 32.9374,25.5373 C33.0814,25.7457 33.1388,25.8063 33.2416,25.8063 C33.4063,25.8063 33.5399,25.9398 33.5399,26.1046 C33.5399,26.2694 33.4063,26.4029 33.2416,26.4029 Z" id="Shape" fill="#11083A" fill-rule="nonzero"></path>
                <path d="M33.7483,55.8725 L25.039,55.8725 C24.4499,55.8725 23.8803,55.7001 23.3915,55.3739 C22.6678,54.892 22.1927,54.1203 22.0883,53.2567 L19.7424,33.7794 C19.7292,33.6714 19.7387,33.5632 19.7706,33.4581 C19.7961,33.375 19.8346,33.298 19.8855,33.2281 L19.8882,33.2226 L19.9095,33.1962 C20.0586,33.0118 20.2798,32.906 20.5163,32.906 L38.271,32.906 C38.5075,32.906 38.7287,33.0118 38.8778,33.1962 L38.9017,33.228 C39.0182,33.3876 39.0689,33.5822 39.0448,33.7797 L36.699,53.2566 C36.5876,54.1788 36.0413,55.0072 35.2374,55.4724 C34.7873,55.7341 34.2722,55.8725 33.7483,55.8725 Z M20.3633,33.5858 C20.3536,33.6004 20.3462,33.616 20.3411,33.6324 C20.3338,33.6565 20.3315,33.682 20.3346,33.7075 L22.6805,53.1852 C22.764,53.8753 23.1437,54.4922 23.7223,54.8775 C24.1129,55.1382 24.5681,55.2759 25.0389,55.2759 L33.7482,55.2759 C34.1669,55.2759 34.5783,55.1654 34.9381,54.9564 C35.581,54.5842 36.0177,53.9222 36.1067,53.1852 L38.4526,33.7076 C38.459,33.6553 38.4431,33.615 38.425,33.5873 L38.4043,33.5684 L38.3964,33.5525 C38.3713,33.5288 38.3302,33.5026 38.2709,33.5026 L20.5163,33.5026 C20.4573,33.5026 20.4163,33.5285 20.3912,33.5521 L20.3845,33.5659 L20.3633,33.5858 Z" id="Shape" fill="#11083A" fill-rule="nonzero"></path>
                <g transform="translate(19.000000, 29.000000)" fill="#11083A" fill-rule="nonzero" id="Shape">
                    <path d="M1.3406,4.607 L1.1409,4.3873 L0.8412,4.3873 L0.8913,4.2621 L0.8733,4.2531 L0.8878,4.2268 C0.9199,4.1749 1.6873,2.9441 2.8081,1.8984 C2.8553,1.8543 2.9026,1.8106 2.951,1.768 C3.5919,1.19 4.2936,0.6889 4.769,0.3708 C5.0942,0.1533 5.3058,0.0265 5.3147,0.0212 L5.6209,0.5331 C5.6189,0.5343 5.4122,0.6583 5.1007,0.8666 C4.6417,1.1738 3.9649,1.6568 3.348,2.2132 C3.3014,2.2543 3.2583,2.2941 3.2151,2.3345 C2.1972,3.2842 1.488,4.3926 1.4026,4.5285 L1.3843,4.566 L1.3406,4.607 Z"></path>
                    <path d="M19.4467,4.607 L19.4044,4.5685 L19.385,4.5291 C19.3013,4.3957 18.5915,3.2855 17.5723,2.3346 C17.4081,2.1817 17.233,2.0282 17.0519,1.8787 C16.554,1.4665 16.0629,1.1198 15.7385,0.9014 C15.3979,0.6722 15.1684,0.5344 15.1661,0.533 L15.4727,0.0213 C15.4825,0.0272 15.7167,0.1678 16.0716,0.4065 C16.4072,0.6324 16.9156,0.9914 17.432,1.4189 C17.6219,1.5757 17.806,1.737 17.979,1.8982 C19.0277,2.8767 19.767,4.0171 19.8842,4.2024 L19.9456,4.2669 L19.9461,4.3872 L19.6464,4.3872 L19.6478,4.3872 L19.6379,4.3966 L19.4467,4.607 Z M19.6403,4.3873 L19.6463,4.3873 L19.6403,4.3873 Z M19.3496,4.3873 L19.6387,4.3873 L19.3496,4.3873 Z"></path>
                </g>
                <path d="M20.7104,40.4967 C19.922,40.4967 19.2506,39.9114 19.1534,39.1143 L18.6528,34.9992 C18.5485,34.1441 19.1569,33.3613 20.0105,33.2501 L20.029,33.2465 L20.06,33.2463 L20.06,33.5446 L20.1154,33.8375 L20.0928,33.8397 L20.093,33.841 C19.5605,33.9075 19.1801,34.3948 19.245,34.9272 L19.7456,39.0424 C19.8091,39.5639 20.2688,39.9392 20.7916,39.8971 L20.7989,39.8966 C20.8106,39.8959 20.8226,39.8944 20.8343,39.8931 L20.9022,40.4857 C20.8804,40.4882 20.8581,40.4906 20.8362,40.4919 C20.794,40.4951 20.752,40.4967 20.7104,40.4967 Z" id="Shape" fill="#11083A" fill-rule="nonzero"></path>
                <g transform="translate(0.000000, 13.000000)" fill="#11083A" fill-rule="nonzero">
                    <path d="M3.2439,9.0327 C3.1177,9.0327 2.9917,9.009 2.8737,8.9618 C2.7119,8.8968 2.5696,8.7906 2.4617,8.6543 L0.6698,6.3836 C0.467,6.1263 0.4043,5.7863 0.5019,5.4738 C0.5994,5.1616 0.8441,4.918 1.1564,4.8221 L5.1825,3.6248 C5.491,3.533 5.8261,3.5973 6.0789,3.7967 C6.3319,3.9962 6.4726,4.3074 6.4552,4.6292 L6.4552,4.6294 L6.2996,7.4783 C6.2769,7.8973 5.9912,8.2594 5.5887,8.3792 L3.5276,8.9917 C3.4352,9.0191 3.3395,9.0327 3.2439,9.0327 Z M2.4117,5.0708 L1.329,5.393 C1.2055,5.4309 1.1106,5.5254 1.0713,5.6515 C1.0318,5.7779 1.0562,5.9101 1.1381,6.0141 L2.9296,8.2843 C2.9729,8.3389 3.0304,8.3819 3.0955,8.408 C3.1783,8.4411 3.2717,8.4453 3.3578,8.4197 L5.4187,7.8073 C5.5802,7.7593 5.6949,7.614 5.704,7.4458 L5.8596,4.5969 C5.8666,4.4667 5.8119,4.3456 5.7095,4.2649 C5.6074,4.1843 5.4771,4.1594 5.3525,4.1965 L2.4117,5.0708 Z" id="Shape"></path>
                    <path d="M2.087,5.1674 L1.0103,1.5464 L2.9163,0.9797 L3.993,4.6008 L2.087,5.1674 Z M1.752,1.9481 L2.4887,4.4256 L3.2512,4.1989 L2.5145,1.7214 L1.752,1.9481 Z" id="Shape"></path>
                    <path d="M0.8833,5.5249 L0.0423,2.6961 L1.7698,2.1827 L2.5383,4.767 L2.5383,5.0334 L0.8833,5.5249 Z M0.7841,3.098 L1.2853,4.7837 L1.8694,4.61 L1.3682,2.9244 L0.7841,3.098 Z" id="Shape"></path>
                    <path d="M4.2667,4.5191 L3.5156,1.9922 L5.2426,1.4787 L5.9943,4.0056 L4.2667,4.5191 Z M4.2574,2.394 L4.6686,3.7774 L5.2525,3.6039 L4.841,2.2205 L4.2574,2.394 Z" id="Shape"></path>
                    <path d="M18.8337,22.8955 C17.8842,22.6277 16.9328,22.2241 16.0061,21.6959 C15.0022,21.1247 13.9998,20.3929 13.0267,19.5208 C12.1857,18.7664 11.3513,17.8932 10.5467,16.9253 C9.8256,16.0582 9.1173,15.1025 8.4417,14.085 C7.7901,13.1049 7.1649,12.0625 6.5835,10.9867 C5.7062,9.3626 5.247,8.2534 5.2279,8.207 L5.7795,7.9798 C5.7841,7.9909 6.2472,9.109 7.1083,10.7032 C7.681,11.763 8.2968,12.7898 8.9385,13.7549 C9.6025,14.7548 10.2978,15.6932 11.0054,16.544 C11.7915,17.4897 12.6056,18.3418 13.4249,19.0768 C14.3663,19.9205 15.3341,20.6273 16.3012,21.1776 C17.1861,21.682 18.0926,22.0668 18.9956,22.3215 L18.8337,22.8955 Z" id="Shape"></path>
                    <path d="M19.3585,26.2683 C16.3602,25.5697 13.5692,24.0863 11.0631,21.859 C10.1049,21.0076 9.1786,20.0375 8.3097,18.9755 C7.5108,17.9991 6.7487,16.9313 6.0445,15.8017 C3.7322,12.0967 2.7093,8.8051 2.6993,8.7723 L3.2696,8.5974 C3.2795,8.6295 4.2819,11.8508 6.5507,15.486 C7.2416,16.5941 7.9887,17.641 8.7715,18.5978 C9.6205,19.6354 10.5248,20.5826 11.4595,21.4131 C13.8905,23.5735 16.5937,25.0116 19.4941,25.6873 L19.3585,26.2683 Z" id="Shape"></path>
                    <rect id="Rectangle-path" transform="translate(15.606119, 22.875101) rotate(-61.569246) translate(-15.606119, -22.875101) " x="14.0812574" y="22.3750968" width="3.04972374" height="1"></rect>
                    <polygon id="Shape" points="11.4895 21.8279 11.0329 21.4441 13.0097 19.0929 13.2301 19.3024 13.454 19.4905"></polygon>
                    <rect id="Rectangle-path" transform="translate(9.793540, 17.910718) rotate(-42.548108) translate(-9.793540, -17.910718) " x="8.27631027" y="17.4107244" width="3.03445953" height="1"></rect>
                    <rect id="Rectangle-path" transform="translate(7.609868, 14.947640) rotate(-35.775462) translate(-7.609868, -14.947640) " x="6.1354942" y="14.4476487" width="2.94874817" height="1"></rect>
                    <rect id="Rectangle-path" transform="translate(5.710245, 11.631689) rotate(-26.224268) translate(-5.710245, -11.631689) " x="4.34300124" y="11.1316726" width="2.73448753" height="1"></rect>
                </g>
                <g transform="translate(37.000000, 33.000000)" fill="#11083A" fill-rule="nonzero">
                    <path d="M1.1637,7.497 C1.1006,7.497 1.0369,7.4932 0.9727,7.4854 L1.0447,6.8932 C1.5787,6.9584 2.0663,6.5764 2.1313,6.0422 L2.6318,1.927 C2.6968,1.3928 2.315,0.9054 1.7808,0.8404 L1.8528,0.2482 C2.7135,0.3529 3.3285,1.1383 3.2239,1.999 L2.7234,6.1142 C2.6266,6.9108 1.9467,7.497 1.1637,7.497 Z" id="Shape"></path>
                    <path d="M14.4106,27.8605 L10.22,27.8605 C9.898,27.8605 9.5951,27.7033 9.4096,27.4399 C9.224,27.1764 9.178,26.838 9.2865,26.5346 L10.2474,23.8482 C10.3891,23.453 10.7662,23.1876 11.1859,23.1876 L13.3359,23.1876 C13.5598,23.1876 13.7794,23.2641 13.9543,23.4029 C14.0898,23.5097 14.1963,23.6521 14.2614,23.8141 L15.332,26.5018 C15.4537,26.808 15.4159,27.1534 15.231,27.4258 C15.0462,27.698 14.7396,27.8605 14.4106,27.8605 Z M11.1859,23.7842 C11.0173,23.7842 10.8658,23.8908 10.809,24.0494 L9.8481,26.7356 C9.8042,26.8583 9.8221,26.9899 9.8972,27.0964 C9.9723,27.2029 10.0899,27.264 10.22,27.264 L14.4107,27.264 C14.5437,27.264 14.6628,27.2009 14.7375,27.0908 C14.8124,26.9805 14.827,26.8463 14.7778,26.7224 L13.7076,24.0358 C13.6816,23.9712 13.6389,23.9139 13.5843,23.8709 C13.5136,23.8148 13.4257,23.7842 13.3359,23.7842 L11.1859,23.7842 Z" id="Shape"></path>
                    <path d="M13.6267,31.042 L11.6383,31.042 L11.6383,27.264 L13.6267,27.264 L13.6267,31.042 Z M12.2348,30.4455 L13.0302,30.4455 L13.0302,27.8605 L12.2348,27.8605 L12.2348,30.4455 Z" id="Shape"></path>
                    <path d="M14.8824,30.2153 L13.0799,30.2153 L13.0799,27.264 L14.8824,27.264 L14.8824,30.2153 Z M13.6764,29.6188 L14.2858,29.6188 L14.2858,27.8605 L13.6764,27.8605 L13.6764,29.6188 Z" id="Shape"></path>
                    <path d="M11.3529,29.9002 L9.5504,29.9002 L9.5504,27.264 L11.3529,27.264 L11.3529,29.9002 Z M10.1469,29.3036 L10.7563,29.3036 L10.7563,27.8605 L10.1469,27.8605 L10.1469,29.3036 Z" id="Shape"></path>
                    <path d="M10.8892,23.5163 C10.888,23.5043 10.7625,22.3004 10.3909,20.5267 C10.145,19.3504 9.8476,18.1907 9.5068,17.0797 C9.1548,15.9306 8.7556,14.833 8.3203,13.8174 C7.836,12.6866 7.2984,11.6379 6.7227,10.7003 C6.0616,9.6239 5.3354,8.6706 4.5644,7.867 C3.8584,7.1302 3.0991,6.503 2.3077,6.0027 L2.6265,5.4985 C3.4588,6.0246 4.2557,6.6826 4.995,7.4542 C5.7953,8.2884 6.5476,9.2755 7.231,10.3882 C7.822,11.3505 8.3729,12.4252 8.8686,13.5825 C9.3123,14.6177 9.7189,15.7356 10.0771,16.905 C10.4231,18.0333 10.7251,19.2107 10.9747,20.4046 C11.3533,22.2114 11.4774,23.4058 11.4825,23.4558 L10.8892,23.5163 Z" id="Shape"></path>
                    <path d="M13.4706,23.6392 C13.4703,23.6056 13.4275,20.2321 12.2888,16.1012 C11.9413,14.8391 11.5235,13.6227 11.047,12.486 C10.5291,11.2495 9.9321,10.0837 9.2726,9.0209 C8.514,7.7975 7.6554,6.6835 6.7205,5.7097 C5.5488,4.4877 4.2263,3.4531 2.7897,2.6345 L3.085,2.1162 C4.5715,2.9632 5.9395,4.0333 7.1509,5.2967 C8.1145,6.3004 8.9989,7.4476 9.7795,8.7064 C10.4555,9.7959 11.0671,10.99 11.5971,12.2555 C12.0833,13.4156 12.5095,14.6562 12.8638,15.9427 C14.0245,20.153 14.0668,23.5998 14.0671,23.6341 L13.4706,23.6392 Z" id="Shape"></path>
                    <rect id="Rectangle-path" transform="translate(6.005921, 6.723155) rotate(-45.020256) translate(-6.005921, -6.723155) " x="4.48077738" y="6.22312395" width="3.05028661" height="1"></rect>
                    <rect id="Rectangle-path" transform="translate(8.362275, 9.873643) rotate(-33.394494) translate(-8.362275, -9.873643) " x="6.83537603" y="9.37364379" width="3.05379721" height="1"></rect>
                    <rect id="Rectangle-path" transform="translate(10.043680, 13.219242) rotate(-25.983375) translate(-10.043680, -13.219242) " x="8.5264662" y="12.7192542" width="3.03442842" height="1"></rect>
                    <rect id="Rectangle-path" transform="translate(11.251628, 16.696828) rotate(-19.214065) translate(-11.251628, -16.696828) " x="9.77722105" y="16.1968259" width="2.94881371" height="1"></rect>
                    <rect id="Rectangle-path" transform="translate(12.067865, 20.432147) rotate(-9.671430) translate(-12.067865, -20.432147) " x="10.700648" y="19.9321403" width="2.73443505" height="1"></rect>
                </g>
                <path d="M33.9722,52.9872 L25.1501,52.9872 C24.4978,52.9872 23.9579,52.4977 23.8942,51.8485 L22.6185,38.8467 C22.5918,38.5738 22.682,38.3008 22.8662,38.0976 C23.0504,37.8944 23.3133,37.7779 23.5875,37.7779 L35.2177,37.7779 C35.4875,37.7779 35.7475,37.8913 35.9311,38.0889 C36.1147,38.2865 36.2086,38.5542 36.1887,38.8232 L35.2307,51.818 C35.1824,52.4736 34.6296,52.9872 33.9722,52.9872 Z M23.5875,38.3745 C23.4797,38.3745 23.3805,38.4185 23.3081,38.4983 C23.2357,38.5781 23.2016,38.6812 23.2122,38.7884 L24.4879,51.7902 C24.5214,52.1325 24.8062,52.3906 25.1501,52.3906 L33.9722,52.3906 C34.3189,52.3906 34.6103,52.1198 34.6358,51.7742 L35.5938,38.7793 C35.6016,38.6736 35.5661,38.5725 35.494,38.4949 C35.4219,38.4172 35.3237,38.3745 35.2177,38.3745 L23.5875,38.3745 Z" id="Shape" fill="#11083A" fill-rule="nonzero"></path>
                <g transform="translate(16.000000, 55.000000)" fill="#11083A" fill-rule="nonzero">
                    <path d="M6.3347,27.6005 C6.2733,27.6005 6.2129,27.6005 6.1526,27.5994 C4.635,27.5837 3.2079,27.3689 2.1363,26.9944 C0.9479,26.5791 0.3197,26.0151 0.3197,25.3635 C0.3197,22.7562 2.1991,20.5003 4.89,19.8776 L5.3102,19.7804 L5.2484,20.2412 C5.2409,20.2995 5.2578,20.3579 5.2964,20.4042 C5.3348,20.4504 5.389,20.4776 5.4489,20.4809 L7.3665,20.5853 C7.4766,20.5908 7.5754,20.5102 7.5901,20.4007 L7.6652,19.8423 L7.993,19.9305 C9.2216,20.2608 10.3286,20.97 11.1103,21.9272 C11.9212,22.9202 12.3498,24.1086 12.3498,25.3636 C12.3498,25.9599 11.7045,26.5226 10.5327,26.9482 C9.4209,27.3519 7.9898,27.5833 6.5031,27.5996 C6.4494,27.6005 6.3923,27.6005 6.3347,27.6005 Z M6.3347,27.004 C6.3885,27.0043 6.4418,27.004 6.4941,27.003 C9.7574,26.9672 11.7532,25.9212 11.7532,25.3635 C11.7532,23.2277 10.2896,21.3127 8.1552,20.6018 C8.0505,20.9541 7.711,21.2014 7.3342,21.1809 L5.4167,21.0765 C5.1928,21.0646 4.9816,20.9586 4.8378,20.7858 C4.7774,20.7133 4.7308,20.6313 4.6991,20.5441 C2.4555,21.2026 0.9161,23.1413 0.9161,25.3635 C0.9161,25.7167 1.459,26.1259 2.333,26.4313 C3.3448,26.7849 4.7043,26.9879 6.1608,27.003 C6.2199,27.0041 6.2763,27.0042 6.3347,27.004 Z" id="Shape"></path>
                    <path d="M12.3373,25.3054 L12.3373,26.7222 C12.3373,27.7139 9.6499,28.7579 6.3347,28.7579 C3.0195,28.7579 0.3321,27.8422 0.3321,26.7222 L0.3321,25.3676 C0.3321,25.3676 0.867,27.2601 6.1577,27.3014 C6.2164,27.3024 6.275,27.3024 6.3347,27.3024 C6.3904,27.3024 6.4456,27.3024 6.4997,27.3014 C11.8258,27.262 12.3373,25.3054 12.3373,25.3054 Z" id="Shape"></path>
                    <rect id="Rectangle-path" transform="translate(9.443623, 10.423963) rotate(-82.328500) translate(-9.443623, -10.423963) " x="-0.467579547" y="9.92393741" width="19.8224055" height="1"></rect>
                    <rect id="Rectangle-path" transform="translate(6.458281, 10.174590) rotate(-82.611326) translate(-6.458281, -10.174590) " x="-3.64695373" y="9.67458873" width="20.2104692" height="1"></rect>
                    <rect id="Rectangle-path" transform="translate(8.735531, 2.789407) rotate(-83.194771) translate(-8.735531, -2.789407) " x="8.23550839" y="1.2775878" width="1" height="3.02363794"></rect>
                    <rect id="Rectangle-path" transform="translate(8.260135, 6.372193) rotate(-83.563634) translate(-8.260135, -6.372193) " x="7.76013335" y="4.86898823" width="1" height="3.00640917"></rect>
                    <rect id="Rectangle-path" transform="translate(7.778791, 9.997051) rotate(-82.408764) translate(-7.778791, -9.997051) " x="7.27880935" y="8.50300478" width="1" height="2.9880922"></rect>
                    <rect id="Rectangle-path" transform="translate(7.310794, 13.627191) rotate(-83.130830) translate(-7.310794, -13.627191) " x="6.81080536" y="12.1546734" width="1" height="2.94503521"></rect>
                    <rect id="Rectangle-path" transform="translate(6.863997, 17.092246) rotate(-82.021424) translate(-6.863997, -17.092246) " x="6.36400681" y="15.6336758" width="1" height="2.91714097"></rect>
                </g>
                <g transform="translate(30.000000, 55.000000)" fill="#11083A" fill-rule="nonzero">
                    <path d="M6.299,27.6005 C5.3843,27.6005 4.4965,27.5206 3.6603,27.3632 C2.0281,27.0568 0.2839,26.3706 0.2839,25.3635 C0.2839,24.9202 0.3389,24.4778 0.4476,24.0485 C0.95,22.0687 2.5567,20.4908 4.6406,19.9304 L4.9684,19.8422 L5.0435,20.4003 C5.0582,20.5101 5.1559,20.5904 5.2672,20.5852 L7.1844,20.4808 C7.2446,20.4776 7.2988,20.4504 7.3372,20.4041 C7.3758,20.3578 7.3927,20.2994 7.385,20.2398 L7.3234,19.7803 L7.7436,19.8775 C10.4345,20.5001 12.3139,22.756 12.3139,25.3634 C12.3139,26.0267 11.665,26.5977 10.4374,27.0148 C10.4205,27.0208 10.401,27.0272 10.3805,27.0337 C9.2801,27.3988 7.8291,27.6005 6.299,27.6005 Z M4.4785,20.6018 C2.758,21.1737 1.4497,22.5256 1.0259,24.1952 C0.9294,24.5765 0.8805,24.9697 0.8805,25.3636 C0.8805,25.7252 1.7771,26.4029 3.7706,26.777 C4.5706,26.9277 5.4212,27.0041 6.299,27.0041 C7.767,27.0041 9.1513,26.8132 10.1969,26.4665 C10.2152,26.4607 10.2286,26.4563 10.2424,26.4514 C11.1535,26.1418 11.7175,25.7254 11.7175,25.3637 C11.7175,23.1415 10.1781,21.2027 7.9345,20.5443 C7.9028,20.6316 7.8562,20.7136 7.7959,20.786 C7.6521,20.9588 7.441,21.0647 7.2167,21.0767 L5.2997,21.1811 C4.9219,21.2014 4.5833,20.9542 4.4785,20.6018 Z" id="Shape"></path>
                    <rect id="Rectangle-path" transform="translate(3.596447, 10.374240) rotate(-7.665822) translate(-3.596447, -10.374240) " x="3.0964282" y="0.463169245" width="1" height="19.822141"></rect>
                    <polygon id="Shape" points="7.3807 20.2066 4.7808 0.1639 5.3725 0.0877 5.7214 2.7768 7.9723 20.1299"></polygon>
                    <rect id="Rectangle-path" transform="translate(3.952454, 3.197063) rotate(-6.805229) translate(-3.952454, -3.197063) " x="2.44068483" y="2.69704009" width="3.02353794" height="1"></rect>
                    <rect id="Rectangle-path" transform="translate(4.416639, 6.775193) rotate(-6.436366) translate(-4.416639, -6.775193) " x="2.91343452" y="6.27519188" width="3.00640917" height="1"></rect>
                    <rect id="Rectangle-path" transform="translate(4.904796, 10.394558) rotate(-7.596915) translate(-4.904796, -10.394558) " x="3.41073052" y="9.89456967" width="2.98813169" height="1"></rect>
                    <rect id="Rectangle-path" transform="translate(5.364243, 14.029973) rotate(-6.869170) translate(-5.364243, -14.029973) " x="3.89172552" y="13.5299837" width="2.94503521" height="1"></rect>
                    <rect id="Rectangle-path" transform="translate(5.820438, 17.491173) rotate(-7.978576) translate(-5.820438, -17.491173) " x="4.36186739" y="16.9911829" width="2.91714097" height="1"></rect>
                    <path d="M12.312,25.3178 L12.312,26.6724 C12.312,27.7924 9.6192,28.7081 6.297,28.7081 C2.9753,28.7081 0.2825,27.6642 0.2825,26.6724 L0.2825,25.2556 C0.2825,25.2556 0.6285,26.5774 3.7155,27.07 C4.4224,27.1828 5.2734,27.2524 6.297,27.2524 C8.1224,27.2524 9.3995,27.0367 10.2908,26.7493 C10.3082,26.7438 10.3246,26.7384 10.3415,26.7324 C12.0734,26.1599 12.312,25.3178 12.312,25.3178 Z" id="Shape"></path>
                </g>
                <rect id="Rectangle-path" fill="#11083A" fill-rule="nonzero" transform="translate(31.242526, 5.739265) rotate(-84.899465) translate(-31.242526, -5.739265) " x="27.8523135" y="5.23928484" width="6.78042609" height="1"></rect>
                <rect id="Rectangle-path" fill="#11083A" fill-rule="nonzero" transform="translate(26.957242, 7.281850) rotate(-36.513508) translate(-26.957242, -7.281850) " x="26.4572519" y="5.17904364" width="1" height="4.20561313"></rect>
                <path d="M25.131,6.3923 C24.4564,6.3923 23.9076,5.8435 23.9076,5.1689 C23.9076,4.4943 24.4564,3.9455 25.131,3.9455 C25.8056,3.9455 26.3544,4.4943 26.3544,5.1689 C26.3544,5.5564 26.177,5.9123 25.8677,6.1453 C25.6543,6.3068 25.3993,6.3923 25.131,6.3923 Z M25.131,4.5421 C24.7854,4.5421 24.5041,4.8233 24.5041,5.1689 C24.5041,5.5145 24.7853,5.7957 25.131,5.7957 C25.2684,5.7957 25.3989,5.752 25.5083,5.6692 C25.667,5.5496 25.7578,5.3674 25.7578,5.1689 C25.7578,4.8233 25.4766,4.5421 25.131,4.5421 Z" id="Shape" fill="#11083A" fill-rule="nonzero"></path>
                <path d="M31.4065,2.8877 C31.3668,2.8877 31.3272,2.8856 31.2888,2.8816 C30.6601,2.8239 30.1831,2.3004 30.1831,1.6643 C30.1831,0.9897 30.7319,0.4409 31.4065,0.4409 C32.081,0.4409 32.6299,0.9897 32.6299,1.6643 C32.6298,2.3389 32.081,2.8877 31.4065,2.8877 Z M31.4065,1.0375 C31.0609,1.0375 30.7796,1.3187 30.7796,1.6643 C30.7796,1.9901 31.0236,2.2582 31.3472,2.2879 C31.3689,2.2902 31.3875,2.2911 31.4064,2.2911 C31.752,2.2911 32.0332,2.0099 32.0332,1.6643 C32.0332,1.3187 31.7521,1.0375 31.4065,1.0375 Z" id="Shape" fill="#11083A" fill-rule="nonzero"></path>
                <g transform="translate(21.000000, 29.000000)" fill="#FFCC2E" fill-rule="nonzero" id="Shape">
                    <path d="M1.7961,2.541 C1.6662,2.541 1.5358,2.5207 1.4086,2.4797 C1.1234,2.3878 0.8796,2.1964 0.7223,1.9407 L1.2303,1.628 C1.3132,1.7627 1.4415,1.8635 1.5916,1.9118 C1.7599,1.966 1.9394,1.9515 2.0969,1.8708 C2.2543,1.7901 2.3708,1.6529 2.4251,1.4845 L2.6091,0.9147 C2.6283,0.8548 2.639,0.7925 2.6408,0.7302 C2.6436,0.6332 2.6254,0.5387 2.5866,0.4493 L3.1338,0.2119 C3.2066,0.3797 3.2424,0.5649 3.2371,0.7472 C3.2338,0.8656 3.2136,0.9834 3.177,1.0973 L2.9929,1.6676 C2.8898,1.9875 2.6683,2.2483 2.3691,2.4017 C2.1887,2.4942 1.9931,2.541 1.7961,2.541 Z"></path>
                    <path d="M2.7371,4.9137 C2.2889,4.9137 1.8544,4.6741 1.627,4.2528 L1.3429,3.7262 C1.0132,3.1153 1.242,2.35 1.8529,2.0203 C2.1489,1.8606 2.4893,1.8257 2.8115,1.922 C3.1337,2.0183 3.3991,2.2344 3.5589,2.5303 L3.8431,3.0569 C4.0028,3.3528 4.0377,3.6933 3.9414,4.0155 C3.8451,4.3377 3.629,4.6031 3.3331,4.7628 C3.1433,4.8652 2.9388,4.9137 2.7371,4.9137 Z M2.4499,2.4655 C2.3415,2.4655 2.2342,2.4924 2.1361,2.5453 C1.8147,2.7188 1.6943,3.1215 1.8678,3.4429 L2.1519,3.9695 C2.3254,4.2909 2.7281,4.4113 3.0496,4.2378 C3.2053,4.1538 3.319,4.0141 3.3697,3.8446 C3.4204,3.6751 3.402,3.4959 3.3179,3.3402 L3.0337,2.8136 C2.9497,2.6579 2.81,2.5442 2.6405,2.4935 C2.5777,2.4748 2.5136,2.4655 2.4499,2.4655 Z"></path>
                    <path d="M4.7504,6.5304 C4.5251,6.5304 4.2973,6.4701 4.0919,6.3435 L3.5825,6.0296 C2.9915,5.6653 2.807,4.8882 3.1713,4.2972 C3.5354,3.7063 4.3126,3.5217 4.9036,3.8859 L5.413,4.1998 C6.004,4.564 6.1885,5.3412 5.8243,5.9322 C5.5867,6.3178 5.1732,6.5304 4.7504,6.5304 Z M4.2443,4.2951 C4.193,4.2951 4.1413,4.3011 4.0901,4.3133 C3.9179,4.3542 3.772,4.4596 3.6792,4.6103 C3.4875,4.9213 3.5846,5.3302 3.8956,5.5219 L4.4049,5.8358 C4.7159,6.0275 5.1248,5.9304 5.3165,5.6194 C5.5081,5.3084 5.411,4.8995 5.1001,4.7078 L4.5907,4.3939 C4.4849,4.3286 4.3656,4.2951 4.2443,4.2951 Z"></path>
                    <path d="M7.3763,7.0999 C7.364,7.0999 7.3516,7.0997 7.3393,7.0994 L6.7412,7.0822 C6.405,7.0726 6.0927,6.9326 5.8618,6.6881 C5.6309,6.4436 5.5091,6.1238 5.5188,5.7876 C5.5387,5.0937 6.1207,4.5453 6.8134,4.5652 L7.4115,4.5824 C7.7477,4.592 8.0599,4.732 8.2908,4.9766 C8.5217,5.2211 8.6435,5.5409 8.6338,5.8771 C8.6242,6.2133 8.4842,6.5255 8.2397,6.7564 C8.0042,6.9786 7.6988,7.0999 7.3763,7.0999 Z M6.777,5.1612 C6.4204,5.1612 6.1253,5.4459 6.115,5.8047 C6.1099,5.9816 6.174,6.1499 6.2955,6.2785 C6.417,6.4072 6.5813,6.4808 6.7582,6.4859 L7.3563,6.5031 C7.5345,6.5086 7.7015,6.4441 7.8302,6.3226 C7.9588,6.2011 8.0325,6.0368 8.0376,5.8599 C8.0426,5.683 7.9786,5.5147 7.8571,5.3861 C7.7356,5.2575 7.5713,5.1838 7.3945,5.1787 L6.7964,5.1615 C6.7898,5.1612 6.7834,5.1612 6.777,5.1612 Z"></path>
                    <path d="M9.3632,7.0697 C9.1089,7.0697 8.861,6.9926 8.6477,6.8445 C8.3715,6.6527 8.1865,6.3648 8.1268,6.0338 C8.0035,5.3506 8.4591,4.6945 9.1423,4.5713 L9.7312,4.4651 C10.0619,4.4054 10.3965,4.4782 10.6727,4.67 C10.9489,4.8618 11.1339,5.1497 11.1936,5.4807 C11.3169,6.1639 10.8613,6.82 10.1781,6.9432 L9.5892,7.0494 C9.5139,7.063 9.4383,7.0697 9.3632,7.0697 Z M9.9561,5.0415 C9.9166,5.0415 9.8768,5.045 9.8372,5.0522 L9.2483,5.1584 C8.8888,5.2232 8.6491,5.5685 8.7139,5.9279 C8.7453,6.1021 8.8427,6.2535 8.988,6.3545 C9.1333,6.4554 9.3092,6.4937 9.4834,6.4623 L10.0723,6.3561 C10.4318,6.2913 10.6715,5.946 10.6067,5.5865 C10.5753,5.4124 10.4779,5.2609 10.3326,5.1599 C10.2204,5.0821 10.0899,5.0415 9.9561,5.0415 Z"></path>
                    <path d="M11.7075,6.0146 C11.2593,6.0146 10.8248,5.775 10.5975,5.3537 C10.2678,4.7428 10.4966,3.9775 11.1075,3.6478 L11.6341,3.3636 C12.2451,3.034 13.0103,3.2627 13.34,3.8736 C13.6697,4.4845 13.4409,5.2498 12.83,5.5795 L12.3034,5.8637 C12.1137,5.9661 11.9092,6.0146 11.7075,6.0146 Z M12.2308,3.8093 C12.1246,3.8093 12.0171,3.8348 11.9173,3.8887 L11.3907,4.1729 C11.0693,4.3464 10.9489,4.7491 11.1224,5.0705 C11.2959,5.3919 11.6984,5.5124 12.02,5.3388 L12.5466,5.0546 C12.8681,4.8811 12.9885,4.4784 12.815,4.157 C12.6954,3.9353 12.4667,3.8093 12.2308,3.8093 Z"></path>
                    <path d="M13.6029,4.3505 C13.3278,4.3505 13.0617,4.2608 12.8397,4.0906 C12.2887,3.6684 12.1839,2.8765 12.6061,2.3255 L12.97,1.8506 C13.3923,1.2996 14.1842,1.1949 14.7352,1.6171 C15.0022,1.8217 15.1734,2.1179 15.2175,2.4513 C15.2616,2.7847 15.1732,3.1153 14.9687,3.3822 L14.6048,3.8571 C14.4002,4.124 14.104,4.2953 13.7706,4.3394 C13.7146,4.3469 13.6586,4.3505 13.6029,4.3505 Z M13.9703,1.9542 C13.771,1.9542 13.5739,2.0435 13.4437,2.2135 L13.0798,2.6884 C12.8576,2.9784 12.9127,3.395 13.2027,3.6172 C13.3432,3.7248 13.517,3.7713 13.6925,3.7482 C13.8679,3.725 14.0238,3.6348 14.1314,3.4944 L14.4953,3.0195 C14.603,2.879 14.6495,2.7051 14.6263,2.5297 C14.6031,2.3543 14.5129,2.1984 14.3725,2.0908 C14.2525,1.9987 14.1109,1.9542 13.9703,1.9542 Z"></path>
                    <path d="M14.862,2.0268 C14.8149,2.0268 14.7676,2.0242 14.7201,2.0189 C14.0739,1.9464 13.5823,1.3814 13.601,0.7326 C13.6021,0.6931 13.6055,0.6571 13.6083,0.6301 L13.6447,0.3012 L14.2376,0.3669 L14.2014,0.6936 C14.1996,0.7108 14.1978,0.7303 14.1972,0.7498 C14.1874,1.0909 14.4462,1.388 14.7864,1.4261 C14.9622,1.4456 15.1353,1.3954 15.2735,1.2845 L15.647,1.7496 C15.4215,1.9307 15.147,2.0268 14.862,2.0268 Z"></path>
                </g>
                <g transform="translate(26.000000, 41.000000)">
                    <g id="Shape_7_" transform="translate(3.000000, 2.000000)" fill="#11083A" fill-rule="nonzero">
                        <path d="M1.1488,0.6773 L0.4581,0.6773 C0.3347,0.6773 0.2346,0.5772 0.2346,0.4538 C0.2346,0.3304 0.3347,0.2303 0.4581,0.2303 L1.1488,0.2303 C1.2722,0.2303 1.3723,0.3304 1.3723,0.4538 C1.3722,0.5773 1.2721,0.6773 1.1488,0.6773 Z" id="Shape"></path>
                    </g>
                    <g id="Shape_8_" transform="translate(0.000000, 1.000000)" fill="#FFFFFF" fill-rule="nonzero">
                        <path d="M5.374,2.069 L6.1083,1.377 C5.5464,0.8151 4.7702,0.4676 3.9128,0.4676 C2.198,0.4676 0.8079,1.8577 0.8079,3.5725 C0.8079,5.2873 2.198,6.6774 3.9128,6.6774 C4.552,6.6774 5.1141,6.9107 5.6078,6.5796 L6.2223,6.6646 L6.2047,5.667 L4.445,4.2735 L4.8233,2.4917 L5.374,2.069 Z" id="Shape"></path>
                    </g>
                    <g id="Shape_10_" transform="translate(4.000000, 2.000000)" fill="#48B980" fill-rule="nonzero">
                        <path d="M1.6242,4.2305 L1.1865,3.8065 C1.5088,3.4739 1.6863,3.0356 1.6863,2.5724 C1.6863,2.0889 1.4953,1.6371 1.1484,1.3002 L0.9201,1.0784 L1.1649,0.8473 L1.3735,1.0683 L1.573,0.863 C2.0391,1.3157 2.2957,1.9228 2.2957,2.5724 C2.2957,3.1948 2.0572,3.7836 1.6242,4.2305 Z" id="Shape"></path>
                    </g>
                    <g id="Shape_11_" transform="translate(3.000000, 3.000000)" fill="#E8EEE6" fill-rule="nonzero">
                        <path d="M0.2118,1.5724 C0.2118,1.1852 0.5256,0.8714 0.9128,0.8714 C1.3,0.8714 1.6139,1.1852 1.6139,1.5724 C1.6139,1.9595 1.3,2.2734 0.9128,2.2734 C0.5256,2.2735 0.2118,1.9596 0.2118,1.5724 Z" id="Shape"></path>
                    </g>
                    <g id="Shape_13_" transform="translate(4.000000, 2.000000)">
                        <path d="M2.1082,0.3769 L0.3364,2.014" id="Shape"></path>
                    </g>
                    <g id="Shape_15_" transform="translate(4.000000, 5.000000)" fill="#FFFFFF" fill-rule="nonzero">
                        <polygon id="Shape" points="0.2435 0.1906 1.5171 1.1493 2.2048 1.6669 2.2048 2.982 0.8234 2.9155"></polygon>
                    </g>
                    <path d="M5.3354,5.6308 L4.721,5.1685 C4.8448,5.0015 4.9183,4.7957 4.9183,4.5725 C4.9183,4.3752 4.8606,4.1912 4.7617,4.0361 L5.3324,3.5087 L5.576,3.2835 L5.583,3.291 L5.7863,3.0996 L6.3122,2.604 L6.3152,2.601 L6.5459,2.3838 L6.3237,2.1616 C5.7038,1.5417 4.8866,1.1907 4.0136,1.1654 L4.0136,0.6926 C4.0136,0.5693 3.9137,0.4694 3.7904,0.4694 C3.6671,0.4694 3.5667,0.5693 3.5667,0.6926 L3.5667,1.1803 C3.3569,1.2017 3.1531,1.2429 2.9563,1.3006 L2.9563,0.6926 C2.9563,0.5693 2.8559,0.4694 2.7326,0.4694 C2.6093,0.4694 2.5094,0.5693 2.5094,0.6926 L2.5094,1.4666 C1.3278,2.0025 0.5031,3.1926 0.5031,4.5725 C0.5031,6.4342 2.0029,7.9508 3.8576,7.9807 L3.8576,7.9822 L6.5097,7.9822 L6.5097,6.5147 L5.8227,5.9977 L5.3354,5.6308 Z M5.9001,7.3726 L3.9127,7.3726 C3.1407,7.3726 2.4408,7.0584 1.9337,6.5514 C1.4267,6.0443 1.1125,5.3444 1.1125,4.5724 C1.1125,3.0284 2.3687,1.7722 3.9127,1.7722 C4.554,1.7722 5.1619,1.9865 5.6556,2.3802 L4.291,3.6414 C4.1742,3.5937 4.0464,3.5668 3.9127,3.5668 C3.3584,3.5668 2.9071,4.0177 2.9071,4.5724 C2.9071,5.1271 3.3585,5.5781 3.9127,5.5781 C4.0116,5.5781 4.1066,5.5632 4.1966,5.5368 L4.3403,5.6452 L5.9002,6.8189 L5.9002,7.3726 L5.9001,7.3726 Z M4.3089,4.5724 C4.3089,4.7911 4.1314,4.9686 3.9127,4.9686 C3.6945,4.9686 3.5165,4.7911 3.5165,4.5724 C3.5165,4.3537 3.6945,4.1762 3.9127,4.1762 C4.1314,4.1762 4.3089,4.3537 4.3089,4.5724 Z" id="Shape" fill="#11083A" fill-rule="nonzero"></path>
                </g>
            </g>
        </g>
    </g>
</svg>