<?xml version="1.0" standalone="no"?><!-- Generator: Gravit.io --><svg xmlns="http://www.w3.org/2000/svg" xmlns:xlink="http://www.w3.org/1999/xlink" style="isolation:isolate" viewBox="0 0 1200 1200" width="1200px" height="1200px"><defs><clipPath id="_clipPath_LlurvrxifpjcBIeM2tECyMOJ3AYtjN8V"><rect width="1200" height="1200"/></clipPath></defs><g clip-path="url(#_clipPath_LlurvrxifpjcBIeM2tECyMOJ3AYtjN8V)"><polygon points="1144,879.73,605.763,1160,67.525,879.73,67.525,319.19,605.763,38.92,1144,319.19" fill="rgb(235,235,235)" vector-effect="non-scaling-stroke" stroke-width="40" stroke="rgb(21,0,62)" stroke-linejoin="miter" stroke-linecap="square" stroke-miterlimit="3"/><g opacity="0.4"><ellipse vector-effect="non-scaling-stroke" cx="596.5707319999385" cy="569" rx="272.4292680000615" ry="263" fill="rgb(236,217,1)" stroke-width="40" stroke="rgb(236,217,1)" stroke-linejoin="miter" stroke-linecap="round" stroke-miterlimit="3"/></g><line x1="378" y1="995.271" x2="833" y2="995.271" vector-effect="non-scaling-stroke" stroke-width="4" stroke="rgb(21,0,62)" stroke-linejoin="miter" stroke-linecap="square" stroke-miterlimit="3"/><g><path d="M 698.138 642.282 L 670.06 610.99 C 665.645 606.069 666.055 598.489 670.976 594.074 L 874.946 411.056 C 879.867 406.641 887.447 407.051 891.862 411.972 L 919.94 443.265 C 924.355 448.185 923.945 455.765 919.024 460.18 L 715.054 643.198 C 710.133 647.613 702.553 647.203 698.138 642.282 Z" style="stroke:none;fill:#ECD901;stroke-miterlimit:10;"/><path d="M 698.138 642.282 L 670.06 610.99 C 665.645 606.069 666.055 598.489 670.976 594.074 L 874.946 411.056 C 879.867 406.641 887.447 407.051 891.862 411.972 L 919.94 443.265 C 924.355 448.185 923.945 455.765 919.024 460.18 L 715.054 643.198 C 710.133 647.613 702.553 647.203 698.138 642.282 Z" style="fill:none;stroke:#15003E;stroke-width:6;stroke-linecap:square;stroke-miterlimit:2;"/><line x1="846.143" y1="524.231" x2="803.401" y2="476.596" vector-effect="non-scaling-stroke" stroke-width="6" stroke="rgb(21,0,62)" stroke-linejoin="miter" stroke-linecap="square" stroke-miterlimit="3"/><line x1="786.599" y1="577.658" x2="743.857" y2="530.023" vector-effect="non-scaling-stroke" stroke-width="6" stroke="rgb(21,0,62)" stroke-linejoin="miter" stroke-linecap="square" stroke-miterlimit="3"/><line x1="684.843" y1="625.968" x2="764.484" y2="554.509" vector-effect="non-scaling-stroke" stroke-width="6" stroke="rgb(21,0,62)" stroke-linejoin="miter" stroke-linecap="square" stroke-miterlimit="3"/><g><path d="M 853.139 481.176 L 845.477 472.637 C 842.431 469.242 842.714 464.013 846.109 460.967 L 875.488 434.606 C 878.883 431.56 884.112 431.843 887.158 435.238 L 894.82 443.777 C 897.866 447.171 897.582 452.4 894.188 455.446 L 864.809 481.808 C 861.414 484.854 856.185 484.571 853.139 481.176 Z" style="stroke:none;fill:#ECD901;stroke-linecap:square;stroke-miterlimit:2;"/><path d="M 853.139 481.176 L 845.477 472.637 C 842.431 469.242 842.714 464.013 846.109 460.967 L 875.488 434.606 C 878.883 431.56 884.112 431.843 887.158 435.238 L 894.82 443.777 C 897.866 447.171 897.582 452.4 894.188 455.446 L 864.809 481.808 C 861.414 484.854 856.185 484.571 853.139 481.176 Z" style="fill:none;stroke:#15003E;stroke-width:6;stroke-linecap:square;stroke-miterlimit:2;"/><path d=" M 894.012 455.604 C 888.466 460.58 879.774 459.951 874.614 454.2 C 869.454 448.449 869.767 439.74 875.312 434.764 C 880.858 429.788 889.55 430.417 894.71 436.168 C 899.871 441.919 899.558 450.628 894.012 455.604 Z " fill="rgb(37,232,153)" vector-effect="non-scaling-stroke" stroke-width="6" stroke="rgb(21,0,62)" stroke-linejoin="miter" stroke-linecap="square" stroke-miterlimit="3"/></g></g><g><path d="M 546.977 592.285 L 530.493 630.962 C 527.901 637.044 520.858 639.877 514.777 637.285 L 262.676 529.838 C 256.594 527.246 253.761 520.204 256.353 514.122 L 272.837 475.446 C 275.429 469.364 282.472 466.531 288.553 469.123 L 540.654 576.569 C 546.736 579.161 549.569 586.203 546.977 592.285 Z" style="stroke:none;fill:#ECD901;stroke-linecap:square;stroke-miterlimit:2;"/><path d="M 546.977 592.285 L 530.493 630.962 C 527.901 637.044 520.858 639.877 514.777 637.285 L 262.676 529.838 C 256.594 527.246 253.761 520.204 256.353 514.122 L 272.837 475.446 C 275.429 469.364 282.472 466.531 288.553 469.123 L 540.654 576.569 C 546.736 579.161 549.569 586.203 546.977 592.285 Z" style="fill:none;stroke:#15003E;stroke-width:6;stroke-linecap:square;stroke-miterlimit:2;"/><line x1="377.414" y1="508.083" x2="352.321" y2="566.958" vector-effect="non-scaling-stroke" stroke-width="6" stroke="rgb(21,0,62)" stroke-linejoin="miter" stroke-linecap="square" stroke-miterlimit="3"/><line x1="451.009" y1="539.449" x2="425.916" y2="598.325" vector-effect="non-scaling-stroke" stroke-width="6" stroke="rgb(21,0,62)" stroke-linejoin="miter" stroke-linecap="square" stroke-miterlimit="3"/><line x1="537.815" y1="611.231" x2="439.382" y2="569.279" vector-effect="non-scaling-stroke" stroke-width="6" stroke="rgb(21,0,62)" stroke-linejoin="miter" stroke-linecap="square" stroke-miterlimit="3"/><line x1="285.754" y1="503.802" x2="240.677" y2="484.59" vector-effect="non-scaling-stroke" stroke-width="6" stroke="rgb(21,0,62)" stroke-linejoin="miter" stroke-linecap="square" stroke-miterlimit="3"/><path d="M 247.526 481.273 L 243.028 491.827 C 241.239 496.023 236.381 497.977 232.185 496.189 L 195.874 480.713 C 191.678 478.925 189.723 474.066 191.512 469.871 L 196.009 459.317 C 197.798 455.121 202.656 453.167 206.852 454.955 L 243.164 470.431 C 247.359 472.219 249.314 477.078 247.526 481.273 Z" style="stroke:none;fill:#E32F2F;stroke-linecap:square;stroke-miterlimit:2;"/><path d="M 247.526 481.273 L 243.028 491.827 C 241.239 496.023 236.381 497.977 232.185 496.189 L 195.874 480.713 C 191.678 478.925 189.723 474.066 191.512 469.871 L 196.009 459.317 C 197.798 455.121 202.656 453.167 206.852 454.955 L 243.164 470.431 C 247.359 472.219 249.314 477.078 247.526 481.273 Z" style="fill:none;stroke:#15003E;stroke-width:6;stroke-linecap:square;stroke-miterlimit:2;"/><path d="M 247.526 481.273 L 243.028 491.827 C 241.239 496.023 236.381 497.977 232.185 496.189 L 195.874 480.713 C 191.678 478.925 189.723 474.066 191.512 469.871 L 196.009 459.317 C 197.798 455.121 202.656 453.167 206.852 454.955 L 243.164 470.431 C 247.359 472.219 249.314 477.078 247.526 481.273 Z" style="stroke:none;fill:#ECD901;stroke-linecap:square;stroke-miterlimit:2;"/><path d="M 247.526 481.273 L 243.028 491.827 C 241.239 496.023 236.381 497.977 232.185 496.189 L 195.874 480.713 C 191.678 478.925 189.723 474.066 191.512 469.871 L 196.009 459.317 C 197.798 455.121 202.656 453.167 206.852 454.955 L 243.164 470.431 C 247.359 472.219 249.314 477.078 247.526 481.273 Z" style="fill:none;stroke:#15003E;stroke-width:6;stroke-linecap:square;stroke-miterlimit:2;"/><path d=" M 207.069 455.047 C 213.923 457.969 217.029 466.111 213.999 473.22 C 210.969 480.328 202.945 483.727 196.091 480.806 C 189.237 477.884 186.131 469.742 189.161 462.633 C 192.19 455.525 200.215 452.126 207.069 455.047 Z " fill="rgb(37,232,153)" vector-effect="non-scaling-stroke" stroke-width="6" stroke="rgb(21,0,62)" stroke-linejoin="miter" stroke-linecap="square" stroke-miterlimit="3"/><path d=" M 297.222 493.471 C 304.077 496.393 307.182 504.535 304.152 511.643 C 301.123 518.751 293.098 522.151 286.244 519.229 C 279.39 516.308 276.285 508.165 279.314 501.057 C 282.344 493.949 290.368 490.55 297.222 493.471 Z " fill="rgb(37,232,153)" vector-effect="non-scaling-stroke" stroke-width="6" stroke="rgb(21,0,62)" stroke-linejoin="miter" stroke-linecap="square" stroke-miterlimit="3"/></g><ellipse vector-effect="non-scaling-stroke" cx="447.4390714459765" cy="579.0488459787065" rx="2.499999999999943" ry="2.5741289022473666" fill="rgb(37,232,153)"/><ellipse vector-effect="non-scaling-stroke" cx="771.9390714459757" cy="579.4747170764591" rx="2.4999999999998863" ry="2.5741289022473666" fill="rgb(37,232,153)"/><ellipse vector-effect="non-scaling-stroke" cx="544.5" cy="750.5" rx="11.5" ry="10.5" fill="rgb(21,0,62)"/><ellipse vector-effect="non-scaling-stroke" cx="666.5000000000001" cy="750.5000000000002" rx="11.5" ry="10.5" fill="rgb(21,0,62)"/><path d=" M 830.212 701.21 C 844.222 730.816 836.162 746.718 806.001 748.884 L 624 748.884 C 613.333 724 600.667 724 589.334 749.409 L 383 749.935 C 358.411 752.978 352.466 724.32 370.665 701.21 L 471.79 527.127 L 543.877 396.8 L 599.749 396.8 L 653.479 396.8 L 728.783 526.507 L 830.212 701.21 Z " fill="rgb(236,217,1)" vector-effect="non-scaling-stroke" stroke-width="6" stroke="rgb(21,0,62)" stroke-linejoin="miter" stroke-linecap="square" stroke-miterlimit="3"/><path d=" M 620.258 539.023 C 608.731 549.366 590.665 548.058 579.94 536.105 C 569.214 524.151 569.864 506.05 581.391 495.707 C 592.917 485.365 610.983 486.673 621.709 498.626 C 632.434 510.579 631.784 528.681 620.258 539.023 Z " fill="rgb(37,232,153)" vector-effect="non-scaling-stroke" stroke-width="6" stroke="rgb(21,0,62)" stroke-linejoin="miter" stroke-linecap="square" stroke-miterlimit="3"/><g><g><g><path d="M 672.074 782.473 L 672.074 782.473 C 680.845 781.442 688.848 788.118 689.936 797.372 L 704.662 922.627 L 684.857 924.955 C 678.247 925.732 672.25 920.997 671.473 914.387 L 658.155 801.108 C 657.067 791.854 663.304 783.504 672.074 782.473 Z" style="stroke:none;fill:#FF5100;stroke-linecap:square;stroke-miterlimit:2;"/><path d="M 672.074 782.473 L 672.074 782.473 C 680.845 781.442 688.848 788.118 689.936 797.372 L 704.662 922.627 L 684.857 924.955 C 678.247 925.732 672.25 920.997 671.473 914.387 L 658.155 801.108 C 657.067 791.854 663.304 783.504 672.074 782.473 Z" style="fill:none;stroke:#15003E;stroke-width:6;stroke-linecap:square;stroke-miterlimit:2;"/><g><path d=" M 667 888.95 C 677.521 894.593 685.599 893.5 694.667 887.505 C 697.33 885.744 700.079 883.56 703 881" fill="none" vector-effect="non-scaling-stroke" stroke-width="8" stroke="rgb(119,15,119)" stroke-linejoin="miter" stroke-linecap="round" stroke-miterlimit="3"/><path d=" M 667 888.95 C 677.521 894.593 685.599 893.5 694.667 887.505 C 697.33 885.744 700.079 883.56 703 881" fill="none" vector-effect="non-scaling-stroke" stroke-width="8" stroke="rgb(119,15,119)" stroke-linejoin="miter" stroke-linecap="round" stroke-miterlimit="3"/><path d=" M 667 888.95 C 677.521 894.593 685.599 893.5 694.667 887.505 C 697.33 885.744 700.079 883.56 703 881" fill="none" vector-effect="non-scaling-stroke" stroke-width="8" stroke="rgb(119,15,119)" stroke-linejoin="miter" stroke-linecap="round" stroke-miterlimit="3"/><path d=" M 659.4 829.128 C 669.921 834.771 677.999 833.678 687.066 827.683 C 689.73 825.922 692.479 823.739 695.4 821.178" fill="none" vector-effect="non-scaling-stroke" stroke-width="8" stroke="rgb(119,15,119)" stroke-linejoin="miter" stroke-linecap="round" stroke-miterlimit="3"/><path d=" M 659.4 829.128 C 669.921 834.771 677.999 833.678 687.066 827.683 C 689.73 825.922 692.479 823.739 695.4 821.178" fill="none" vector-effect="non-scaling-stroke" stroke-width="8" stroke="rgb(119,15,119)" stroke-linejoin="miter" stroke-linecap="round" stroke-miterlimit="3"/><path d=" M 662.4 860.128 C 672.921 865.771 680.999 864.678 690.066 858.683 C 692.73 856.922 695.479 854.739 698.4 852.178" fill="none" vector-effect="non-scaling-stroke" stroke-width="8" stroke="rgb(119,15,119)" stroke-linejoin="miter" stroke-linecap="round" stroke-miterlimit="3"/><path d=" M 662.4 860.128 C 672.921 865.771 680.999 864.678 690.066 858.683 C 692.73 856.922 695.479 854.739 698.4 852.178" fill="none" vector-effect="non-scaling-stroke" stroke-width="8" stroke="rgb(119,15,119)" stroke-linejoin="miter" stroke-linecap="round" stroke-miterlimit="3"/></g><path d=" M 677.684 770.234 L 654.841 772.92 L 641.812 790.562" fill="none" vector-effect="non-scaling-stroke" stroke-width="6" stroke="rgb(21,0,62)" stroke-linejoin="miter" stroke-linecap="round" stroke-miterlimit="3"/><line x1="640" y1="800.844" x2="655.062" y2="928.961" vector-effect="non-scaling-stroke" stroke-width="6" stroke="rgb(21,0,62)" stroke-linejoin="miter" stroke-linecap="round" stroke-miterlimit="3"/><path d=" M 698.332 941.836 C 697.655 936.081 692.099 931.996 685.933 932.721 C 679.766 933.446 675.309 938.708 675.986 944.463 C 676.662 950.219 682.218 954.303 688.385 953.578 C 694.551 952.853 699.008 947.592 698.332 941.836 Z " fill="rgb(235,235,235)" vector-effect="non-scaling-stroke" stroke-width="6" stroke="rgb(21,0,62)" stroke-linejoin="miter" stroke-linecap="square" stroke-miterlimit="3"/></g><g><path d="M 786.21 972.543 L 726.319 942.063 C 718.408 938.036 708.716 941.191 704.69 949.102 L 700.249 957.827 C 696.223 965.738 699.377 975.43 707.288 979.457 L 767.179 1009.937 C 775.09 1013.964 784.782 1010.809 788.809 1002.898 L 793.249 994.173 C 797.275 986.262 794.121 976.57 786.21 972.543 Z" style="stroke:none;fill:#FF5100;stroke-linecap:square;stroke-miterlimit:2;"/><path d="M 786.21 972.543 L 726.319 942.063 C 718.408 938.036 708.716 941.191 704.69 949.102 L 700.249 957.827 C 696.223 965.738 699.377 975.43 707.288 979.457 L 767.179 1009.937 C 775.09 1013.964 784.782 1010.809 788.809 1002.898 L 793.249 994.173 C 797.275 986.262 794.121 976.57 786.21 972.543 Z" style="fill:none;stroke:#15003E;stroke-width:6;stroke-linecap:round;stroke-miterlimit:2;"/><g><line x1="741.289" y1="994.91" x2="727.345" y2="993.661" vector-effect="non-scaling-stroke" stroke-width="6" stroke="rgb(21,0,62)" stroke-linejoin="miter" stroke-linecap="square" stroke-miterlimit="3"/></g></g><g><path d="M 763.24 1041.456 L 724.253 963.846 C 719.827 955.036 709.081 951.477 700.271 955.903 L 694.704 958.699 C 685.894 963.125 682.334 973.871 686.76 982.681 L 725.747 1060.291 C 730.173 1069.101 740.919 1072.661 749.729 1068.235 L 755.296 1065.438 C 764.106 1061.013 767.666 1050.267 763.24 1041.456 Z" style="stroke:none;fill:#FF5100;stroke-linecap:round;stroke-miterlimit:2;"/><path d="M 763.24 1041.456 L 724.253 963.846 C 719.827 955.036 709.081 951.477 700.271 955.903 L 694.704 958.699 C 685.894 963.125 682.334 973.871 686.76 982.681 L 725.747 1060.291 C 730.173 1069.101 740.919 1072.661 749.729 1068.235 L 755.296 1065.438 C 764.106 1061.013 767.666 1050.267 763.24 1041.456 Z" style="fill:none;stroke:#15003E;stroke-width:6;stroke-linecap:round;stroke-miterlimit:2;"/></g><g><path d="M 691.916 1030.023 L 702.955 982.476 C 704.723 974.857 699.973 967.234 692.354 965.465 L 679.094 962.387 C 671.475 960.618 663.852 965.368 662.084 972.988 L 651.045 1020.535 C 649.277 1028.155 654.027 1035.777 661.646 1037.546 L 674.906 1040.624 C 682.525 1042.393 690.148 1037.643 691.916 1030.023 Z" style="stroke:none;fill:#FF5100;stroke-linecap:round;stroke-miterlimit:2;"/><path d="M 691.916 1030.023 L 702.955 982.476 C 704.723 974.857 699.973 967.234 692.354 965.465 L 679.094 962.387 C 671.475 960.618 663.852 965.368 662.084 972.988 L 651.045 1020.535 C 649.277 1028.155 654.027 1035.777 661.646 1037.546 L 674.906 1040.624 C 682.525 1042.393 690.148 1037.643 691.916 1030.023 Z" style="fill:none;stroke:#15003E;stroke-width:6;stroke-linecap:round;stroke-miterlimit:2;"/></g></g><g><g><path d="M 549.139 782.473 L 549.139 782.473 C 540.369 781.442 532.365 788.118 531.277 797.372 L 516.552 922.627 L 536.356 924.955 C 542.966 925.732 548.964 920.997 549.741 914.387 L 563.059 801.108 C 564.147 791.854 557.909 783.504 549.139 782.473 Z" style="stroke:none;fill:#FF5100;stroke-linecap:round;stroke-miterlimit:2;"/><path d="M 549.139 782.473 L 549.139 782.473 C 540.369 781.442 532.365 788.118 531.277 797.372 L 516.552 922.627 L 536.356 924.955 C 542.966 925.732 548.964 920.997 549.741 914.387 L 563.059 801.108 C 564.147 791.854 557.909 783.504 549.139 782.473 Z" style="fill:none;stroke:#15003E;stroke-width:6;stroke-linecap:square;stroke-miterlimit:2;"/><g><path d=" M 519.431 889.271 C 528.528 897.003 536.654 897.635 546.781 893.684 C 549.756 892.524 552.903 890.968 556.298 889.081" fill="none" vector-effect="non-scaling-stroke" stroke-width="8" stroke="rgb(119,15,119)" stroke-linejoin="miter" stroke-linecap="round" stroke-miterlimit="3"/><path d=" M 519.431 889.271 C 528.528 897.003 536.654 897.635 546.781 893.684 C 549.756 892.524 552.903 890.968 556.298 889.081" fill="none" vector-effect="non-scaling-stroke" stroke-width="8" stroke="rgb(119,15,119)" stroke-linejoin="miter" stroke-linecap="round" stroke-miterlimit="3"/><path d=" M 519.431 889.271 C 528.528 897.003 536.654 897.635 546.781 893.684 C 549.756 892.524 552.903 890.968 556.298 889.081" fill="none" vector-effect="non-scaling-stroke" stroke-width="8" stroke="rgb(119,15,119)" stroke-linejoin="miter" stroke-linecap="round" stroke-miterlimit="3"/><path d=" M 524.599 829.19 C 533.696 836.922 541.823 837.555 551.949 833.604 C 554.924 832.443 558.071 830.888 561.466 829" fill="none" vector-effect="non-scaling-stroke" stroke-width="8" stroke="rgb(119,15,119)" stroke-linejoin="miter" stroke-linecap="round" stroke-miterlimit="3"/><path d=" M 524.599 829.19 C 533.696 836.922 541.823 837.555 551.949 833.604 C 554.924 832.443 558.071 830.888 561.466 829" fill="none" vector-effect="non-scaling-stroke" stroke-width="8" stroke="rgb(119,15,119)" stroke-linejoin="miter" stroke-linecap="round" stroke-miterlimit="3"/><path d=" M 521.003 860.127 C 530.1 867.859 538.227 868.491 548.354 864.54 C 551.328 863.38 554.475 861.824 557.87 859.937" fill="none" vector-effect="non-scaling-stroke" stroke-width="8" stroke="rgb(119,15,119)" stroke-linejoin="miter" stroke-linecap="round" stroke-miterlimit="3"/><path d=" M 521.003 860.127 C 530.1 867.859 538.227 868.491 548.354 864.54 C 551.328 863.38 554.475 861.824 557.87 859.937" fill="none" vector-effect="non-scaling-stroke" stroke-width="8" stroke="rgb(119,15,119)" stroke-linejoin="miter" stroke-linecap="round" stroke-miterlimit="3"/></g><path d=" M 543.53 770.234 L 566.373 772.92 L 579.402 790.562" fill="none" vector-effect="non-scaling-stroke" stroke-width="6" stroke="rgb(21,0,62)" stroke-linejoin="miter" stroke-linecap="round" stroke-miterlimit="3"/><line x1="581.214" y1="800.844" x2="566.151" y2="928.961" vector-effect="non-scaling-stroke" stroke-width="6" stroke="rgb(21,0,62)" stroke-linejoin="miter" stroke-linecap="round" stroke-miterlimit="3"/><path d=" M 522.882 941.836 C 523.558 936.081 529.114 931.996 535.281 932.721 C 541.447 933.446 545.905 938.708 545.228 944.463 C 544.551 950.219 538.995 954.303 532.829 953.578 C 526.662 952.853 522.205 947.592 522.882 941.836 Z " fill="rgb(235,235,235)" vector-effect="non-scaling-stroke" stroke-width="6" stroke="rgb(21,0,62)" stroke-linejoin="miter" stroke-linecap="square" stroke-miterlimit="3"/></g><g><path d="M 435.648 952.18 L 502.58 946.18 C 511.422 945.388 519.244 951.923 520.036 960.764 L 520.91 970.515 C 521.703 979.356 515.168 987.178 506.326 987.971 L 439.394 993.97 C 430.552 994.763 422.73 988.228 421.938 979.386 L 421.064 969.635 C 420.271 960.794 426.806 952.972 435.648 952.18 Z" style="stroke:none;fill:#FF5100;stroke-linecap:square;stroke-miterlimit:2;"/><path d="M 435.648 952.18 L 502.58 946.18 C 511.422 945.388 519.244 951.923 520.036 960.764 L 520.91 970.515 C 521.703 979.356 515.168 987.178 506.326 987.971 L 439.394 993.97 C 430.552 994.763 422.73 988.228 421.938 979.386 L 421.064 969.635 C 420.271 960.794 426.806 952.972 435.648 952.18 Z" style="fill:none;stroke:#15003E;stroke-width:6;stroke-linecap:round;stroke-miterlimit:2;"/><g><line x1="453.032" y1="997.321" x2="466.976" y2="996.071" vector-effect="non-scaling-stroke" stroke-width="6" stroke="rgb(21,0,62)" stroke-linejoin="miter" stroke-linecap="square" stroke-miterlimit="3"/><line x1="479.924" y1="994.91" x2="493.868" y2="993.661" vector-effect="non-scaling-stroke" stroke-width="6" stroke="rgb(21,0,62)" stroke-linejoin="miter" stroke-linecap="square" stroke-miterlimit="3"/></g></g><g><path d="M 419.159 977.969 L 502.015 951.926 C 511.421 948.969 521.457 954.205 524.414 963.611 L 526.282 969.554 C 529.238 978.96 524.002 988.996 514.596 991.953 L 431.741 1017.996 C 422.335 1020.953 412.299 1015.717 409.342 1006.311 L 407.474 1000.368 C 404.518 990.962 409.754 980.926 419.159 977.969 Z" style="stroke:none;fill:#FF5100;stroke-linecap:round;stroke-miterlimit:2;"/><path d="M 419.159 977.969 L 502.015 951.926 C 511.421 948.969 521.457 954.205 524.414 963.611 L 526.282 969.554 C 529.238 978.96 524.002 988.996 514.596 991.953 L 431.741 1017.996 C 422.335 1020.953 412.299 1015.717 409.342 1006.311 L 407.474 1000.368 C 404.518 990.962 409.754 980.926 419.159 977.969 Z" style="fill:none;stroke:#15003E;stroke-width:6;stroke-linecap:round;stroke-miterlimit:2;"/></g><g><path d="M 462.639 1001.383 L 518.305 963.737 C 525.658 958.764 535.666 960.696 540.639 968.049 L 546.123 976.159 C 551.096 983.512 549.163 993.52 541.81 998.493 L 486.144 1036.139 C 478.791 1041.112 468.784 1039.18 463.811 1031.827 L 458.326 1023.717 C 453.353 1016.364 455.286 1006.356 462.639 1001.383 Z" style="stroke:none;fill:#FF5100;stroke-linecap:round;stroke-miterlimit:2;"/><path d="M 462.639 1001.383 L 518.305 963.737 C 525.658 958.764 535.666 960.696 540.639 968.049 L 546.123 976.159 C 551.096 983.512 549.163 993.52 541.81 998.493 L 486.144 1036.139 C 478.791 1041.112 468.784 1039.18 463.811 1031.827 L 458.326 1023.717 C 453.353 1016.364 455.286 1006.356 462.639 1001.383 Z" style="fill:none;stroke:#15003E;stroke-width:6;stroke-linecap:round;stroke-miterlimit:2;"/></g></g></g><g/><rect x="544.5" y="376" width="110.5" height="14" transform="matrix(1,0,0,1,0,0)" fill="rgb(21,0,62)"/><image xlink:href="data:," x="0" y="0" width="0" height="0" style=""/><g><polygon points="658.869,374.29,537.632,373.699,477.525,268.409,538.656,163.71,659.893,164.301,720,269.591" fill="rgb(236,217,1)" vector-effect="non-scaling-stroke" stroke-width="6" stroke="rgb(21,0,62)" stroke-linejoin="miter" stroke-linecap="square" stroke-miterlimit="3"/><ellipse vector-effect="non-scaling-stroke" cx="553.7060690220535" cy="259" rx="20.706069022053498" ry="20.5" fill="rgb(37,232,153)" stroke-width="1" stroke="rgb(21,0,62)" stroke-linejoin="miter" stroke-linecap="butt" stroke-miterlimit="3"/><path d=" M 533 262 C 532.875 262.25 532.879 251.811 535.772 247.401 C 538.665 242.991 543.249 239.667 548.838 238.476 C 555.366 237.086 561.83 238.913 566.547 242.879 C 569.906 245.702 572.207 252.099 572.068 252 C 565.534 247.359 536.621 254.757 533 262 Z " fill="rgb(21,0,62)" vector-effect="non-scaling-stroke" stroke-width="1" stroke="rgb(21,0,62)" stroke-linejoin="miter" stroke-linecap="butt" stroke-miterlimit="3"/><path d=" M 539 294 L 530 303.715 L 523 310 L 517 314 L 505 322 L 496 327 L 486 333 L 476 339 L 471.79 343 L 469 348 L 469 352 L 473 355 L 478 359 L 483 360 L 489 360 L 496 360 L 505 357 L 517 353 L 530 348 L 568 333 L 568 339 L 570 348 L 570 360 L 570 371 L 571 384 L 575 395 L 580 399 C 585.492 403.361 592.085 400.571 599.749 395 L 603 384 L 605.763 376 L 608 366 L 612 353 L 621 336 L 633 317 L 635 310 L 646 299 L 648 284 L 624 254 L 612 251 L 612 259 L 605.763 266 L 596.63 273 L 584 273 L 580 273 L 575 266 L 570 266 L 539 294 Z " fill="rgb(236,217,1)" vector-effect="non-scaling-stroke" stroke-width="5" stroke="rgb(21,0,62)" stroke-linejoin="miter" stroke-linecap="square" stroke-miterlimit="3"/><clipPath id="_clipPath_X1Jb4JJd8IMevXM8BCH2F6Zzw1mBEfk2"><path d=" M 539 294 L 530 303.715 L 523 310 L 517 314 L 505 322 L 496 327 L 486 333 L 476 339 L 471.79 343 L 469 348 L 469 352 L 473 355 L 478 359 L 483 360 L 489 360 L 496 360 L 505 357 L 517 353 L 530 348 L 568 333 L 568 339 L 570 348 L 570 360 L 570 371 L 571 384 L 575 395 L 580 399 C 585.492 403.361 592.085 400.571 599.749 395 L 603 384 L 605.763 376 L 608 366 L 612 353 L 621 336 L 633 317 L 635 310 L 646 299 L 648 284 L 624 254 L 612 251 L 612 259 L 605.763 266 L 596.63 273 L 584 273 L 580 273 L 575 266 L 570 266 L 539 294 Z " fill="rgb(236,217,1)" vector-effect="non-scaling-stroke" stroke-width="5" stroke="rgb(21,0,62)" stroke-linejoin="miter" stroke-linecap="square" stroke-miterlimit="3"/></clipPath><g clip-path="url(#_clipPath_X1Jb4JJd8IMevXM8BCH2F6Zzw1mBEfk2)"><path d=" M 571 331 L 580 327 L 594 319.19 L 608 310 L 610.642 308.155 L 615 303.715 L 620 299 L 624 291 L 620 286 L 629 297 L 624 291" fill="rgb(236,217,1)" vector-effect="non-scaling-stroke" stroke-width="4" stroke="rgb(21,0,62)" stroke-linejoin="miter" stroke-linecap="square" stroke-miterlimit="3"/><path d=" M 575 330 L 575 339 L 577 352 L 577 362 L 577 376 Q 577.667 380.333 580 381 Q 581.333 381 584 381 L 589.334 381 L 593 376 L 596.63 366 L 599.251 357 L 603 339 L 608 319.19 L 612 308 L 603 314 L 596.63 317 L 584 324 L 575 330 Z " fill="rgb(238,58,67)" vector-effect="non-scaling-stroke" stroke-width="3" stroke="rgb(21,0,62)" stroke-linejoin="miter" stroke-linecap="square" stroke-miterlimit="3"/><path d=" M 581.735 325.213 L 584.386 341.118 L 584.794 351.11 L 587.036 357.023 L 589.952 354.902 L 591.917 345.815 L 595.214 336.673 L 598.474 327.532 L 600.652 316.624 L 581.735 325.213 Z " fill="rgb(37,232,153)" vector-effect="non-scaling-stroke" stroke-width="2" stroke="rgb(21,0,62)" stroke-linejoin="miter" stroke-linecap="square" stroke-miterlimit="3"/></g><path d=" M 539 294 L 530 303.715 L 523 310 L 517 314 L 505 322 L 496 327 L 486 333 L 476 339 L 471.79 343 L 469 348 L 469 352 L 473 355 L 478 359 L 483 360 L 489 360 L 496 360 L 505 357 L 517 353 L 530 348 L 568 333 L 568 339 L 570 348 L 570 360 L 570 371 L 571 384 L 575 395 L 580 399 C 585.492 403.361 592.085 400.571 599.749 395 L 603 384 L 605.763 376 L 608 366 L 612 353 L 621 336 L 633 317 L 635 310 L 646 299 L 648 284 L 624 254 L 612 251 L 612 259 L 605.763 266 L 596.63 273 L 584 273 L 580 273 L 575 266 L 570 266 L 539 294 Z " fill="transparent" vector-effect="non-scaling-stroke" stroke-width="5" stroke="rgb(21,0,62)" stroke-linejoin="miter" stroke-linecap="square" stroke-miterlimit="3"/><path d=" M 576 288 L 620 277 L 631 299 L 631 327 L 661 314 L 664.542 259 L 617 188 L 564 217.45 L 576 288 Z " fill="rgb(236,217,1)"/><ellipse vector-effect="non-scaling-stroke" cx="586.7060690220534" cy="253.4999999999999" rx="20.706069022053498" ry="20.5" fill="rgb(37,232,153)" stroke-width="1" stroke="rgb(21,0,62)" stroke-linejoin="miter" stroke-linecap="butt" stroke-miterlimit="3"/><path d=" M 566 253.5 C 565.875 253.688 568.32 242.718 572.068 239.007 C 575.816 235.296 580.992 233 586.706 233 C 593.381 233 599.322 236.134 603.11 240.995 C 605.807 244.456 607.438 252.063 607.412 252 C 604.577 245.012 570.988 246.019 566 253.5 Z " fill="rgb(21,0,62)" vector-effect="non-scaling-stroke" stroke-width="1" stroke="rgb(21,0,62)" stroke-linejoin="miter" stroke-linecap="butt" stroke-miterlimit="3"/><ellipse vector-effect="non-scaling-stroke" cx="587.3335203584513" cy="258" rx="7.428048999953944" ry="7.0334579651244695" fill="rgb(235,235,235)"/><ellipse vector-effect="non-scaling-stroke" cx="556.9999999999999" cy="262.96654203487554" rx="7.428048999953944" ry="7.0334579651244695" fill="rgb(235,235,235)"/></g></g></svg>