<?xml version="1.0" standalone="no"?><!-- Generator: Gravit.io --><svg xmlns="http://www.w3.org/2000/svg" xmlns:xlink="http://www.w3.org/1999/xlink" style="isolation:isolate" viewBox="0 0 1200 1200" width="1200px" height="1200px"><defs><clipPath id="_clipPath_vOF9yXOxLPNBE8D3JhpP67arb49Flkju"><rect width="1200" height="1200"/></clipPath></defs><g clip-path="url(#_clipPath_vOF9yXOxLPNBE8D3JhpP67arb49Flkju)"><polygon points="1144,879.73,605.763,1160,67.525,879.73,67.525,319.19,605.763,38.92,1144,319.19" fill="rgb(235,235,235)" vector-effect="non-scaling-stroke" stroke-width="40" stroke="rgb(21,0,62)" stroke-linejoin="miter" stroke-linecap="square" stroke-miterlimit="3"/><g opacity="0.4"><ellipse vector-effect="non-scaling-stroke" cx="596.5707319999385" cy="569" rx="272.4292680000615" ry="263" fill="rgb(236,217,1)" stroke-width="40" stroke="rgb(236,217,1)" stroke-linejoin="miter" stroke-linecap="round" stroke-miterlimit="3"/></g><line x1="378" y1="995.271" x2="833" y2="995.271" vector-effect="non-scaling-stroke" stroke-width="4" stroke="rgb(21,0,62)" stroke-linejoin="miter" stroke-linecap="square" stroke-miterlimit="3"/><g><path d="M 698.138 642.282 L 670.06 610.99 C 665.645 606.069 666.055 598.489 670.976 594.074 L 874.946 411.056 C 879.867 406.641 887.447 407.051 891.862 411.972 L 919.94 443.265 C 924.355 448.185 923.945 455.765 919.024 460.18 L 715.054 643.198 C 710.133 647.613 702.553 647.203 698.138 642.282 Z" style="stroke:none;fill:#ECD901;stroke-miterlimit:10;"/><path d="M 698.138 642.282 L 670.06 610.99 C 665.645 606.069 666.055 598.489 670.976 594.074 L 874.946 411.056 C 879.867 406.641 887.447 407.051 891.862 411.972 L 919.94 443.265 C 924.355 448.185 923.945 455.765 919.024 460.18 L 715.054 643.198 C 710.133 647.613 702.553 647.203 698.138 642.282 Z" style="fill:none;stroke:#15003E;stroke-width:6;stroke-linecap:square;stroke-miterlimit:2;"/><line x1="846.143" y1="524.231" x2="803.401" y2="476.596" vector-effect="non-scaling-stroke" stroke-width="6" stroke="rgb(21,0,62)" stroke-linejoin="miter" stroke-linecap="square" stroke-miterlimit="3"/><line x1="786.599" y1="577.658" x2="743.857" y2="530.023" vector-effect="non-scaling-stroke" stroke-width="6" stroke="rgb(21,0,62)" stroke-linejoin="miter" stroke-linecap="square" stroke-miterlimit="3"/><line x1="684.843" y1="625.968" x2="764.484" y2="554.509" vector-effect="non-scaling-stroke" stroke-width="6" stroke="rgb(21,0,62)" stroke-linejoin="miter" stroke-linecap="square" stroke-miterlimit="3"/><g><path d="M 853.139 481.176 L 845.477 472.637 C 842.431 469.242 842.714 464.013 846.109 460.967 L 875.488 434.606 C 878.883 431.56 884.112 431.843 887.158 435.238 L 894.82 443.777 C 897.866 447.171 897.582 452.4 894.188 455.446 L 864.809 481.808 C 861.414 484.854 856.185 484.571 853.139 481.176 Z" style="stroke:none;fill:#ECD901;stroke-linecap:square;stroke-miterlimit:2;"/><path d="M 853.139 481.176 L 845.477 472.637 C 842.431 469.242 842.714 464.013 846.109 460.967 L 875.488 434.606 C 878.883 431.56 884.112 431.843 887.158 435.238 L 894.82 443.777 C 897.866 447.171 897.582 452.4 894.188 455.446 L 864.809 481.808 C 861.414 484.854 856.185 484.571 853.139 481.176 Z" style="fill:none;stroke:#15003E;stroke-width:6;stroke-linecap:square;stroke-miterlimit:2;"/><path d=" M 894.012 455.604 C 888.466 460.58 879.774 459.951 874.614 454.2 C 869.454 448.449 869.767 439.74 875.312 434.764 C 880.858 429.788 889.55 430.417 894.71 436.168 C 899.871 441.919 899.558 450.628 894.012 455.604 Z " fill="rgb(37,232,153)" vector-effect="non-scaling-stroke" stroke-width="6" stroke="rgb(21,0,62)" stroke-linejoin="miter" stroke-linecap="square" stroke-miterlimit="3"/></g></g><g><path d="M 546.977 592.285 L 530.493 630.962 C 527.901 637.044 520.858 639.877 514.777 637.285 L 262.676 529.838 C 256.594 527.246 253.761 520.204 256.353 514.122 L 272.837 475.446 C 275.429 469.364 282.472 466.531 288.553 469.123 L 540.654 576.569 C 546.736 579.161 549.569 586.203 546.977 592.285 Z" style="stroke:none;fill:#ECD901;stroke-linecap:square;stroke-miterlimit:2;"/><path d="M 546.977 592.285 L 530.493 630.962 C 527.901 637.044 520.858 639.877 514.777 637.285 L 262.676 529.838 C 256.594 527.246 253.761 520.204 256.353 514.122 L 272.837 475.446 C 275.429 469.364 282.472 466.531 288.553 469.123 L 540.654 576.569 C 546.736 579.161 549.569 586.203 546.977 592.285 Z" style="fill:none;stroke:#15003E;stroke-width:6;stroke-linecap:square;stroke-miterlimit:2;"/><line x1="377.414" y1="508.083" x2="352.321" y2="566.958" vector-effect="non-scaling-stroke" stroke-width="6" stroke="rgb(21,0,62)" stroke-linejoin="miter" stroke-linecap="square" stroke-miterlimit="3"/><line x1="451.009" y1="539.449" x2="425.916" y2="598.325" vector-effect="non-scaling-stroke" stroke-width="6" stroke="rgb(21,0,62)" stroke-linejoin="miter" stroke-linecap="square" stroke-miterlimit="3"/><line x1="537.815" y1="611.231" x2="439.382" y2="569.279" vector-effect="non-scaling-stroke" stroke-width="6" stroke="rgb(21,0,62)" stroke-linejoin="miter" stroke-linecap="square" stroke-miterlimit="3"/><line x1="285.754" y1="503.802" x2="240.677" y2="484.59" vector-effect="non-scaling-stroke" stroke-width="6" stroke="rgb(21,0,62)" stroke-linejoin="miter" stroke-linecap="square" stroke-miterlimit="3"/><path d="M 247.526 481.273 L 243.028 491.827 C 241.239 496.023 236.381 497.977 232.185 496.189 L 195.874 480.713 C 191.678 478.925 189.723 474.066 191.512 469.871 L 196.009 459.317 C 197.798 455.121 202.656 453.167 206.852 454.955 L 243.164 470.431 C 247.359 472.219 249.314 477.078 247.526 481.273 Z" style="stroke:none;fill:#E32F2F;stroke-linecap:square;stroke-miterlimit:2;"/><path d="M 247.526 481.273 L 243.028 491.827 C 241.239 496.023 236.381 497.977 232.185 496.189 L 195.874 480.713 C 191.678 478.925 189.723 474.066 191.512 469.871 L 196.009 459.317 C 197.798 455.121 202.656 453.167 206.852 454.955 L 243.164 470.431 C 247.359 472.219 249.314 477.078 247.526 481.273 Z" style="fill:none;stroke:#15003E;stroke-width:6;stroke-linecap:square;stroke-miterlimit:2;"/><path d="M 247.526 481.273 L 243.028 491.827 C 241.239 496.023 236.381 497.977 232.185 496.189 L 195.874 480.713 C 191.678 478.925 189.723 474.066 191.512 469.871 L 196.009 459.317 C 197.798 455.121 202.656 453.167 206.852 454.955 L 243.164 470.431 C 247.359 472.219 249.314 477.078 247.526 481.273 Z" style="stroke:none;fill:#ECD901;stroke-linecap:square;stroke-miterlimit:2;"/><path d="M 247.526 481.273 L 243.028 491.827 C 241.239 496.023 236.381 497.977 232.185 496.189 L 195.874 480.713 C 191.678 478.925 189.723 474.066 191.512 469.871 L 196.009 459.317 C 197.798 455.121 202.656 453.167 206.852 454.955 L 243.164 470.431 C 247.359 472.219 249.314 477.078 247.526 481.273 Z" style="fill:none;stroke:#15003E;stroke-width:6;stroke-linecap:square;stroke-miterlimit:2;"/><path d=" M 207.069 455.047 C 213.923 457.969 217.029 466.111 213.999 473.22 C 210.969 480.328 202.945 483.727 196.091 480.806 C 189.237 477.884 186.131 469.742 189.161 462.633 C 192.19 455.525 200.215 452.126 207.069 455.047 Z " fill="rgb(37,232,153)" vector-effect="non-scaling-stroke" stroke-width="6" stroke="rgb(21,0,62)" stroke-linejoin="miter" stroke-linecap="square" stroke-miterlimit="3"/><path d=" M 297.222 493.471 C 304.077 496.393 307.182 504.535 304.152 511.643 C 301.123 518.751 293.098 522.151 286.244 519.229 C 279.39 516.308 276.285 508.165 279.314 501.057 C 282.344 493.949 290.368 490.55 297.222 493.471 Z " fill="rgb(37,232,153)" vector-effect="non-scaling-stroke" stroke-width="6" stroke="rgb(21,0,62)" stroke-linejoin="miter" stroke-linecap="square" stroke-miterlimit="3"/></g><ellipse vector-effect="non-scaling-stroke" cx="447.4390714459765" cy="579.0488459787065" rx="2.499999999999943" ry="2.5741289022473666" fill="rgb(37,232,153)"/><ellipse vector-effect="non-scaling-stroke" cx="771.9390714459757" cy="579.4747170764591" rx="2.4999999999998863" ry="2.5741289022473666" fill="rgb(37,232,153)"/><ellipse vector-effect="non-scaling-stroke" cx="544.5" cy="750.5" rx="11.5" ry="10.5" fill="rgb(21,0,62)"/><ellipse vector-effect="non-scaling-stroke" cx="666.5000000000001" cy="750.5000000000002" rx="11.5" ry="10.5" fill="rgb(21,0,62)"/><path d=" M 830.212 701.21 C 844.222 730.816 836.162 746.718 806.001 748.884 L 624 748.884 C 613.333 724 600.667 724 589.334 749.409 L 383 749.935 C 358.411 752.978 352.466 724.32 370.665 701.21 L 471.79 527.127 L 543.877 396.8 L 599.749 396.8 L 653.479 396.8 L 728.783 526.507 L 830.212 701.21 Z " fill="rgb(236,217,1)" vector-effect="non-scaling-stroke" stroke-width="6" stroke="rgb(21,0,62)" stroke-linejoin="miter" stroke-linecap="square" stroke-miterlimit="3"/><path d=" M 620.258 539.023 C 608.731 549.366 590.665 548.058 579.94 536.105 C 569.214 524.151 569.864 506.05 581.391 495.707 C 592.917 485.365 610.983 486.673 621.709 498.626 C 632.434 510.579 631.784 528.681 620.258 539.023 Z " fill="rgb(37,232,153)" vector-effect="non-scaling-stroke" stroke-width="6" stroke="rgb(21,0,62)" stroke-linejoin="miter" stroke-linecap="square" stroke-miterlimit="3"/><g><g><g><path d="M 672.074 782.473 L 672.074 782.473 C 680.845 781.442 688.848 788.118 689.936 797.372 L 704.662 922.627 L 684.857 924.955 C 678.247 925.732 672.25 920.997 671.473 914.387 L 658.155 801.108 C 657.067 791.854 663.304 783.504 672.074 782.473 Z" style="stroke:none;fill:#FF5100;stroke-linecap:square;stroke-miterlimit:2;"/><path d="M 672.074 782.473 L 672.074 782.473 C 680.845 781.442 688.848 788.118 689.936 797.372 L 704.662 922.627 L 684.857 924.955 C 678.247 925.732 672.25 920.997 671.473 914.387 L 658.155 801.108 C 657.067 791.854 663.304 783.504 672.074 782.473 Z" style="fill:none;stroke:#15003E;stroke-width:6;stroke-linecap:square;stroke-miterlimit:2;"/><g><path d=" M 667 888.95 C 677.521 894.593 685.599 893.5 694.667 887.505 C 697.33 885.744 700.079 883.56 703 881" fill="none" vector-effect="non-scaling-stroke" stroke-width="8" stroke="rgb(119,15,119)" stroke-linejoin="miter" stroke-linecap="round" stroke-miterlimit="3"/><path d=" M 667 888.95 C 677.521 894.593 685.599 893.5 694.667 887.505 C 697.33 885.744 700.079 883.56 703 881" fill="none" vector-effect="non-scaling-stroke" stroke-width="8" stroke="rgb(119,15,119)" stroke-linejoin="miter" stroke-linecap="round" stroke-miterlimit="3"/><path d=" M 667 888.95 C 677.521 894.593 685.599 893.5 694.667 887.505 C 697.33 885.744 700.079 883.56 703 881" fill="none" vector-effect="non-scaling-stroke" stroke-width="8" stroke="rgb(119,15,119)" stroke-linejoin="miter" stroke-linecap="round" stroke-miterlimit="3"/><path d=" M 659.4 829.128 C 669.921 834.771 677.999 833.678 687.066 827.683 C 689.73 825.922 692.479 823.739 695.4 821.178" fill="none" vector-effect="non-scaling-stroke" stroke-width="8" stroke="rgb(119,15,119)" stroke-linejoin="miter" stroke-linecap="round" stroke-miterlimit="3"/><path d=" M 659.4 829.128 C 669.921 834.771 677.999 833.678 687.066 827.683 C 689.73 825.922 692.479 823.739 695.4 821.178" fill="none" vector-effect="non-scaling-stroke" stroke-width="8" stroke="rgb(119,15,119)" stroke-linejoin="miter" stroke-linecap="round" stroke-miterlimit="3"/><path d=" M 662.4 860.128 C 672.921 865.771 680.999 864.678 690.066 858.683 C 692.73 856.922 695.479 854.739 698.4 852.178" fill="none" vector-effect="non-scaling-stroke" stroke-width="8" stroke="rgb(119,15,119)" stroke-linejoin="miter" stroke-linecap="round" stroke-miterlimit="3"/><path d=" M 662.4 860.128 C 672.921 865.771 680.999 864.678 690.066 858.683 C 692.73 856.922 695.479 854.739 698.4 852.178" fill="none" vector-effect="non-scaling-stroke" stroke-width="8" stroke="rgb(119,15,119)" stroke-linejoin="miter" stroke-linecap="round" stroke-miterlimit="3"/></g><path d=" M 677.684 770.234 L 654.841 772.92 L 641.812 790.562" fill="none" vector-effect="non-scaling-stroke" stroke-width="6" stroke="rgb(21,0,62)" stroke-linejoin="miter" stroke-linecap="round" stroke-miterlimit="3"/><line x1="640" y1="800.844" x2="655.062" y2="928.961" vector-effect="non-scaling-stroke" stroke-width="6" stroke="rgb(21,0,62)" stroke-linejoin="miter" stroke-linecap="round" stroke-miterlimit="3"/><path d=" M 698.332 941.836 C 697.655 936.081 692.099 931.996 685.933 932.721 C 679.766 933.446 675.309 938.708 675.986 944.463 C 676.662 950.219 682.218 954.303 688.385 953.578 C 694.551 952.853 699.008 947.592 698.332 941.836 Z " fill="rgb(235,235,235)" vector-effect="non-scaling-stroke" stroke-width="6" stroke="rgb(21,0,62)" stroke-linejoin="miter" stroke-linecap="square" stroke-miterlimit="3"/></g><g><path d="M 786.21 972.543 L 726.319 942.063 C 718.408 938.036 708.716 941.191 704.69 949.102 L 700.249 957.827 C 696.223 965.738 699.377 975.43 707.288 979.457 L 767.179 1009.937 C 775.09 1013.964 784.782 1010.809 788.809 1002.898 L 793.249 994.173 C 797.275 986.262 794.121 976.57 786.21 972.543 Z" style="stroke:none;fill:#FF5100;stroke-linecap:square;stroke-miterlimit:2;"/><path d="M 786.21 972.543 L 726.319 942.063 C 718.408 938.036 708.716 941.191 704.69 949.102 L 700.249 957.827 C 696.223 965.738 699.377 975.43 707.288 979.457 L 767.179 1009.937 C 775.09 1013.964 784.782 1010.809 788.809 1002.898 L 793.249 994.173 C 797.275 986.262 794.121 976.57 786.21 972.543 Z" style="fill:none;stroke:#15003E;stroke-width:6;stroke-linecap:round;stroke-miterlimit:2;"/><g><line x1="741.289" y1="994.91" x2="727.345" y2="993.661" vector-effect="non-scaling-stroke" stroke-width="6" stroke="rgb(21,0,62)" stroke-linejoin="miter" stroke-linecap="square" stroke-miterlimit="3"/></g></g><g><path d="M 763.24 1041.456 L 724.253 963.846 C 719.827 955.036 709.081 951.477 700.271 955.903 L 694.704 958.699 C 685.894 963.125 682.334 973.871 686.76 982.681 L 725.747 1060.291 C 730.173 1069.101 740.919 1072.661 749.729 1068.235 L 755.296 1065.438 C 764.106 1061.013 767.666 1050.267 763.24 1041.456 Z" style="stroke:none;fill:#FF5100;stroke-linecap:round;stroke-miterlimit:2;"/><path d="M 763.24 1041.456 L 724.253 963.846 C 719.827 955.036 709.081 951.477 700.271 955.903 L 694.704 958.699 C 685.894 963.125 682.334 973.871 686.76 982.681 L 725.747 1060.291 C 730.173 1069.101 740.919 1072.661 749.729 1068.235 L 755.296 1065.438 C 764.106 1061.013 767.666 1050.267 763.24 1041.456 Z" style="fill:none;stroke:#15003E;stroke-width:6;stroke-linecap:round;stroke-miterlimit:2;"/></g><g><path d="M 691.916 1030.023 L 702.955 982.476 C 704.723 974.857 699.973 967.234 692.354 965.465 L 679.094 962.387 C 671.475 960.618 663.852 965.368 662.084 972.988 L 651.045 1020.535 C 649.277 1028.155 654.027 1035.777 661.646 1037.546 L 674.906 1040.624 C 682.525 1042.393 690.148 1037.643 691.916 1030.023 Z" style="stroke:none;fill:#FF5100;stroke-linecap:round;stroke-miterlimit:2;"/><path d="M 691.916 1030.023 L 702.955 982.476 C 704.723 974.857 699.973 967.234 692.354 965.465 L 679.094 962.387 C 671.475 960.618 663.852 965.368 662.084 972.988 L 651.045 1020.535 C 649.277 1028.155 654.027 1035.777 661.646 1037.546 L 674.906 1040.624 C 682.525 1042.393 690.148 1037.643 691.916 1030.023 Z" style="fill:none;stroke:#15003E;stroke-width:6;stroke-linecap:round;stroke-miterlimit:2;"/></g></g><g><g><path d="M 549.139 782.473 L 549.139 782.473 C 540.369 781.442 532.365 788.118 531.277 797.372 L 516.552 922.627 L 536.356 924.955 C 542.966 925.732 548.964 920.997 549.741 914.387 L 563.059 801.108 C 564.147 791.854 557.909 783.504 549.139 782.473 Z" style="stroke:none;fill:#FF5100;stroke-linecap:round;stroke-miterlimit:2;"/><path d="M 549.139 782.473 L 549.139 782.473 C 540.369 781.442 532.365 788.118 531.277 797.372 L 516.552 922.627 L 536.356 924.955 C 542.966 925.732 548.964 920.997 549.741 914.387 L 563.059 801.108 C 564.147 791.854 557.909 783.504 549.139 782.473 Z" style="fill:none;stroke:#15003E;stroke-width:6;stroke-linecap:square;stroke-miterlimit:2;"/><g><path d=" M 519.431 889.271 C 528.528 897.003 536.654 897.635 546.781 893.684 C 549.756 892.524 552.903 890.968 556.298 889.081" fill="none" vector-effect="non-scaling-stroke" stroke-width="8" stroke="rgb(119,15,119)" stroke-linejoin="miter" stroke-linecap="round" stroke-miterlimit="3"/><path d=" M 519.431 889.271 C 528.528 897.003 536.654 897.635 546.781 893.684 C 549.756 892.524 552.903 890.968 556.298 889.081" fill="none" vector-effect="non-scaling-stroke" stroke-width="8" stroke="rgb(119,15,119)" stroke-linejoin="miter" stroke-linecap="round" stroke-miterlimit="3"/><path d=" M 519.431 889.271 C 528.528 897.003 536.654 897.635 546.781 893.684 C 549.756 892.524 552.903 890.968 556.298 889.081" fill="none" vector-effect="non-scaling-stroke" stroke-width="8" stroke="rgb(119,15,119)" stroke-linejoin="miter" stroke-linecap="round" stroke-miterlimit="3"/><path d=" M 524.599 829.19 C 533.696 836.922 541.823 837.555 551.949 833.604 C 554.924 832.443 558.071 830.888 561.466 829" fill="none" vector-effect="non-scaling-stroke" stroke-width="8" stroke="rgb(119,15,119)" stroke-linejoin="miter" stroke-linecap="round" stroke-miterlimit="3"/><path d=" M 524.599 829.19 C 533.696 836.922 541.823 837.555 551.949 833.604 C 554.924 832.443 558.071 830.888 561.466 829" fill="none" vector-effect="non-scaling-stroke" stroke-width="8" stroke="rgb(119,15,119)" stroke-linejoin="miter" stroke-linecap="round" stroke-miterlimit="3"/><path d=" M 521.003 860.127 C 530.1 867.859 538.227 868.491 548.354 864.54 C 551.328 863.38 554.475 861.824 557.87 859.937" fill="none" vector-effect="non-scaling-stroke" stroke-width="8" stroke="rgb(119,15,119)" stroke-linejoin="miter" stroke-linecap="round" stroke-miterlimit="3"/><path d=" M 521.003 860.127 C 530.1 867.859 538.227 868.491 548.354 864.54 C 551.328 863.38 554.475 861.824 557.87 859.937" fill="none" vector-effect="non-scaling-stroke" stroke-width="8" stroke="rgb(119,15,119)" stroke-linejoin="miter" stroke-linecap="round" stroke-miterlimit="3"/></g><path d=" M 543.53 770.234 L 566.373 772.92 L 579.402 790.562" fill="none" vector-effect="non-scaling-stroke" stroke-width="6" stroke="rgb(21,0,62)" stroke-linejoin="miter" stroke-linecap="round" stroke-miterlimit="3"/><line x1="581.214" y1="800.844" x2="566.151" y2="928.961" vector-effect="non-scaling-stroke" stroke-width="6" stroke="rgb(21,0,62)" stroke-linejoin="miter" stroke-linecap="round" stroke-miterlimit="3"/><path d=" M 522.882 941.836 C 523.558 936.081 529.114 931.996 535.281 932.721 C 541.447 933.446 545.905 938.708 545.228 944.463 C 544.551 950.219 538.995 954.303 532.829 953.578 C 526.662 952.853 522.205 947.592 522.882 941.836 Z " fill="rgb(235,235,235)" vector-effect="non-scaling-stroke" stroke-width="6" stroke="rgb(21,0,62)" stroke-linejoin="miter" stroke-linecap="square" stroke-miterlimit="3"/></g><g><path d="M 435.648 952.18 L 502.58 946.18 C 511.422 945.388 519.244 951.923 520.036 960.764 L 520.91 970.515 C 521.703 979.356 515.168 987.178 506.326 987.971 L 439.394 993.97 C 430.552 994.763 422.73 988.228 421.938 979.386 L 421.064 969.635 C 420.271 960.794 426.806 952.972 435.648 952.18 Z" style="stroke:none;fill:#FF5100;stroke-linecap:square;stroke-miterlimit:2;"/><path d="M 435.648 952.18 L 502.58 946.18 C 511.422 945.388 519.244 951.923 520.036 960.764 L 520.91 970.515 C 521.703 979.356 515.168 987.178 506.326 987.971 L 439.394 993.97 C 430.552 994.763 422.73 988.228 421.938 979.386 L 421.064 969.635 C 420.271 960.794 426.806 952.972 435.648 952.18 Z" style="fill:none;stroke:#15003E;stroke-width:6;stroke-linecap:round;stroke-miterlimit:2;"/><g><line x1="453.032" y1="997.321" x2="466.976" y2="996.071" vector-effect="non-scaling-stroke" stroke-width="6" stroke="rgb(21,0,62)" stroke-linejoin="miter" stroke-linecap="square" stroke-miterlimit="3"/><line x1="479.924" y1="994.91" x2="493.868" y2="993.661" vector-effect="non-scaling-stroke" stroke-width="6" stroke="rgb(21,0,62)" stroke-linejoin="miter" stroke-linecap="square" stroke-miterlimit="3"/></g></g><g><path d="M 419.159 977.969 L 502.015 951.926 C 511.421 948.969 521.457 954.205 524.414 963.611 L 526.282 969.554 C 529.238 978.96 524.002 988.996 514.596 991.953 L 431.741 1017.996 C 422.335 1020.953 412.299 1015.717 409.342 1006.311 L 407.474 1000.368 C 404.518 990.962 409.754 980.926 419.159 977.969 Z" style="stroke:none;fill:#FF5100;stroke-linecap:round;stroke-miterlimit:2;"/><path d="M 419.159 977.969 L 502.015 951.926 C 511.421 948.969 521.457 954.205 524.414 963.611 L 526.282 969.554 C 529.238 978.96 524.002 988.996 514.596 991.953 L 431.741 1017.996 C 422.335 1020.953 412.299 1015.717 409.342 1006.311 L 407.474 1000.368 C 404.518 990.962 409.754 980.926 419.159 977.969 Z" style="fill:none;stroke:#15003E;stroke-width:6;stroke-linecap:round;stroke-miterlimit:2;"/></g><g><path d="M 462.639 1001.383 L 518.305 963.737 C 525.658 958.764 535.666 960.696 540.639 968.049 L 546.123 976.159 C 551.096 983.512 549.163 993.52 541.81 998.493 L 486.144 1036.139 C 478.791 1041.112 468.784 1039.18 463.811 1031.827 L 458.326 1023.717 C 453.353 1016.364 455.286 1006.356 462.639 1001.383 Z" style="stroke:none;fill:#FF5100;stroke-linecap:round;stroke-miterlimit:2;"/><path d="M 462.639 1001.383 L 518.305 963.737 C 525.658 958.764 535.666 960.696 540.639 968.049 L 546.123 976.159 C 551.096 983.512 549.163 993.52 541.81 998.493 L 486.144 1036.139 C 478.791 1041.112 468.784 1039.18 463.811 1031.827 L 458.326 1023.717 C 453.353 1016.364 455.286 1006.356 462.639 1001.383 Z" style="fill:none;stroke:#15003E;stroke-width:6;stroke-linecap:round;stroke-miterlimit:2;"/></g></g></g><g/><rect x="544.5" y="376" width="110.5" height="14" transform="matrix(1,0,0,1,0,0)" fill="rgb(21,0,62)"/><g><path d=" M 542.5 119.359 C 560.558 122.459 578.349 128.183 594 137.859 L 594 137.859 L 597.5 143.359 Q 606.253 132.612 626.5 133.359 Q 641.385 139.975 651 151.859 L 652 153.859 C 646.449 163.986 631.174 156.836 625.307 151.303 C 622.98 149.109 622.53 146.015 619.577 144.22 C 616.733 142.49 610.624 140.944 607.594 142.828 C 602.063 146.268 597.696 155.869 604.465 159.957 C 608.04 162.115 612.411 162.53 616.5 162.359 L 616.5 162.359 L 619.5 158.359 Q 622.167 155.526 628.5 156.359 Q 636.85 158.509 641 164.859 Q 641.75 170.109 648.5 169.359 Q 649.75 165.109 656.5 166.359 Q 664.059 171.801 665.5 183.359 Q 677.517 182.842 683 188.859 L 684 193.859 L 682 197.859 L 692 206.859 L 693.5 216.359 C 695.61 216.935 699.106 217.682 700.5 215.359 L 700.5 215.359 L 703 216.859 C 705.233 218.813 705.32 222.14 705 224.859 L 705 224.859 L 703 230.859 L 710 236.859 C 713.998 240.795 715.605 246.403 716 251.859 L 716 251.859 L 713.5 257.359 L 710 259.859 L 713 269.859 C 710.164 271.885 709.753 275.652 710 278.859 L 710 278.859 L 712 288.859 C 710.855 295.057 708.232 301.062 703.5 305.359 L 703.5 305.359 L 702 305.859 L 700 310.859 L 703 316.859 L 696.5 324.359 L 687 328.859 C 687.635 335.967 686.096 343.853 678.5 346.359 L 678.5 346.359 L 677 346.859 L 676.5 348.359 L 658 358.859 C 658.96 367.865 647.595 370.715 640.5 370.359 L 640.5 370.359 L 632.5 367.359 Q 625.581 374.94 613 376.859 Q 610.793 393.653 599.5 401.359 Q 594 407.859 580.5 406.359 L 573 399.859 Q 568.25 390.609 569.5 375.359 Q 558.068 376.791 553 371.859 L 550.5 366.359 L 543.5 364.359 C 542.44 358.082 535.656 355.726 530.516 358.625 C 527.233 360.476 525.222 361.494 521.641 362.75 C 516.443 364.573 510.99 365.606 505.516 366.125 C 492.621 367.347 470.049 366.2 472 347.859 L 472 347.859 L 475.5 342.359 L 506 323.859 C 501.653 321.532 500.73 316.413 501 311.859 L 501 311.859 L 504 307.859 C 497.289 300.288 495.758 289.62 496 279.859 L 496 279.859 L 498 271.859 C 491.203 268.959 489.614 261.582 490 254.859 L 490 254.859 L 499 248.859 Q 496.969 232.328 504 224.859 Q 507.156 208.516 517.5 199.359 L 532 191.859 C 529.939 189.062 530.378 185.047 531 181.859 L 531 181.859 L 533.5 178.359 L 537.5 177.359 L 547.5 180.359 C 549.641 164.418 568.053 163.533 581 163.859 L 581 163.859 L 582 157.859 C 577.498 150.164 566.852 148.861 559.219 151.828 C 551.934 154.66 545.079 158.281 539.023 163.258 C 537.176 164.776 535.044 166.206 534.198 168.432 C 533.655 169.862 533.245 170.809 532.226 171.96 C 529.941 174.539 519.319 178.63 518.742 172.742 C 518.18 167.006 523.094 160.068 526.285 155.894 C 542.761 134.338 575.633 140.079 594.5 155.359 L 594.5 155.359 L 595 152.859 L 588.5 141.359 L 569.5 142.359 C 558.809 141.33 538.849 133.451 542.5 119.359 L 542.5 119.359 Z " fill="rgb(21,0,62)"/><path d=" M 548.5 127.359 C 560.061 128.718 571.578 131.569 582 136.859 L 582 136.859 L 581.5 138.359 C 578.096 140.728 573.306 140.136 569.5 139.359 L 569.5 139.359 L 569.5 138.359 L 580 137.859 C 570.968 132.667 560.771 129.789 550.5 128.359 L 550.5 128.359 L 550 129.859 L 560 135.859 L 558.5 136.359 L 548 128.859 L 548.5 127.359 Z " fill="rgb(91,64,145)"/><path d=" M 550.5 128.359 C 560.771 129.789 570.968 132.667 580 137.859 L 580 137.859 L 567.5 138.359 C 561.061 137.07 554.809 134.426 550 129.859 L 550 129.859 L 550.5 128.359 Z " fill="rgb(233,214,4)"/><line x1="545.5" y1="130.359" x2="549.5" y2="135.359"/><line x1="632.5" y1="135.359" x2="637.5" y2="141.359"/><path d=" M 617.5 137.359 C 623.142 136.576 630.273 136.93 633 142.859 L 633 142.859 L 638.5 149.359 L 645 153.859 L 643.5 156.359 L 642 155.859 L 644 154.859 L 632 145.859 L 629.5 141.359 C 627.485 138.538 623.698 138.088 620.5 138.359 C 619.765 138.422 616.493 139.122 617.5 137.359 L 617.5 137.359 Z " fill="rgb(91,64,145)"/><path d=" M 616.5 138.359 C 621.592 137.741 627.943 138.041 631 142.859 L 631 142.859 L 632.5 146.359 L 644 154.859 L 641.5 155.359 C 632.14 151.808 623.359 146.681 616 139.859 L 616 139.859 L 616.5 138.359 Z " fill="rgb(233,214,4)"/><path d=" M 584.5 141.359 C 587.335 140.99 590.427 141.613 591 144.859 L 591 144.859 L 587.5 142.359 C 586.739 142.502 583.516 143.081 584.5 141.359 L 584.5 141.359 Z " fill="rgb(188,193,185)"/><path d=" M 618.5 141.359 C 624.771 147.63 632.621 152.066 641 154.859 L 641 154.859 L 638.5 155.359 C 630.927 152.203 623.849 147.648 618.5 141.359 L 618.5 141.359 Z " fill="rgb(173,125,49)"/><line x1="638.5" y1="141.359" x2="643.5" y2="147.359"/><path d=" M 572.5 142.359 L 582 142.859 L 572.5 143.359 L 572.5 142.359 Z " fill="rgb(188,193,185)"/><path d=" M 608.5 142.359 L 610 142.859 L 604.5 147.359 L 608.5 142.359 Z  M 611.5 142.359 C 616.414 143.342 621.037 145.712 624 149.859 L 624 149.859 L 620.5 147.359 C 618.025 147.089 610.779 146.466 611.5 142.359 L 611.5 142.359 Z " fill-rule="evenodd" fill="rgb(21,0,62)"/><line x1="608.5" y1="143.359" x2="604.5" y2="148.359"/><path d=" M 550.5 146.359 L 557 146.859 C 544.815 151.225 533.503 157.996 524.5 167.359 L 524.5 167.359 L 524 165.859 C 528.054 154.625 539.142 148.125 550.5 146.359 L 550.5 146.359 Z " fill="rgb(233,214,4)"/><path d=" M 557.5 146.359 L 558 147.859 C 545.129 152.007 533.071 158.722 523.5 168.359 L 523.5 168.359 L 523 164.859 L 533.5 152.359 L 544.5 147.359 L 544.5 148.359 C 537.48 150.082 531.091 153.824 527 159.859 L 527 159.859 L 524 166.859 L 527.5 164.359 C 536.246 156.51 546.548 150.555 557.5 146.359 L 557.5 146.359 Z " fill="rgb(173,125,49)"/><path d=" M 619.5 157.359 L 615.5 162.359 L 614 161.859 L 619.5 157.359 Z " fill="rgb(188,193,185)"/><line x1="636.5" y1="159.359" x2="645.5" y2="169.359"/><path d=" M 588.5 160.359 C 598.788 160.62 609.68 163.124 617 170.859 L 617 170.859 L 615.5 170.359 C 608.193 163.749 598.084 161.605 588.5 161.359 L 588.5 161.359 L 587 163.859 L 595 174.859 C 594.385 176.213 593.383 176.948 592.5 175.359 L 592.5 175.359 L 587 173.859 L 589.5 173.359 L 592.5 174.359 L 590 170.859 C 586.379 169.364 585.705 165.355 586 161.859 L 586 161.859 L 588.5 160.359 Z " fill="rgb(173,125,49)"/><path d=" M 588.5 161.359 C 602.283 162.062 616.555 166.192 625.5 177.359 L 625.5 177.359 L 626 175.859 L 622 165.859 L 623.5 163.359 L 626.5 162.359 C 631.691 163.893 636.503 166.675 640 170.859 L 640 170.859 L 640.5 172.359 L 642 172.859 L 649.5 182.359 L 653.5 172.359 L 658 175.859 L 660.5 190.359 Q 672.821 188.038 678 192.859 Q 677.75 197.609 674.5 199.359 L 666.5 198.359 L 665.5 200.359 C 677.05 200.341 690.428 206.434 689 219.859 L 689 219.859 L 685.5 224.359 L 699.5 222.359 L 701 225.859 L 696.5 231.359 L 693 231.859 C 698.486 233.342 703.542 236.278 707 240.859 L 707 240.859 L 711 248.859 L 710 250.859 L 711 253.859 C 708.665 257.595 702.913 256.307 699.5 255.359 L 699.5 255.359 L 696.5 254.359 L 698.5 257.359 L 703 259.859 C 706.265 262.576 707.647 266.749 708 270.859 L 708 270.859 L 701 282.859 L 702.5 283.359 Q 704.75 278.109 707 281.859 Q 706.672 302.532 692.5 309.359 L 689 311.859 L 689.5 313.359 Q 696.393 312.467 699 315.859 Q 692.261 324.12 679 325.859 L 679.5 327.359 L 683 329.859 C 682.565 345.746 660.802 352.848 648 354.859 L 648 354.859 L 648.5 356.359 C 651.118 356.098 653.636 356.945 654 359.859 L 654 359.859 L 651.5 363.359 L 639.5 364.359 L 630.5 358.359 L 625.5 366.359 L 615.5 368.359 L 615 365.859 C 626.315 352.492 635.456 337.375 642.5 321.359 L 642.5 321.359 L 644 321.859 L 647.5 326.359 L 648 324.859 C 643.619 319.709 643.357 312.249 644 305.859 L 644 305.859 L 645.5 303.359 L 654.5 307.359 L 659 305.859 C 651.534 304.577 644.45 301.178 640 294.859 L 640 294.859 L 637 289.859 C 638.436 286.701 642.67 288.416 645.206 288.566 C 648.198 288.742 651.47 288.73 654 286.859 L 654 286.859 L 653.5 285.359 L 642.5 286.359 C 636.188 285.416 630.309 282.493 627 276.859 L 627 276.859 L 624.5 269.359 L 623 269.859 C 622.838 275.991 624.511 282.531 630.5 285.359 L 630.5 285.359 L 634 286.859 Q 634.925 298.435 642 303.859 Q 640.639 327.998 627 339.859 Q 614.153 354.513 608 375.859 Q 606 390.359 596.5 397.359 Q 591.923 402.282 581.5 401.359 L 577 397.859 C 573.65 393.782 574.142 387.695 575 382.859 L 575 382.859 L 574 351.859 C 577.925 348.795 576.57 342.389 575.5 338.359 L 575.5 338.359 L 578.5 337.359 L 580 339.859 C 576.421 342.484 577.964 348.376 579 351.859 L 579 351.859 L 578 386.859 C 579.296 389.267 581.9 390.223 584.5 390.359 L 584.5 390.359 L 587.5 389.359 C 591.289 388.859 594.924 387.2 597 383.859 L 597 383.859 L 609.5 345.359 C 610.994 333.627 615.069 321.936 623.5 313.359 L 623.5 313.359 L 631 306.859 L 631.5 305.359 L 634.5 307.359 L 634 305.859 L 630.5 300.359 L 628 300.859 L 629 305.859 Q 571.683 346.042 489.5 361.359 Q 481.086 360.273 477 354.859 L 476 347.859 C 501.244 336.132 524.99 321.151 546 302.859 L 546 302.859 L 546.5 301.359 C 556.718 290.372 568.579 280.973 581.5 273.359 L 581.5 273.359 L 584.5 277.359 C 589.736 284.934 600.371 284.136 607.781 280.765 C 619.781 275.306 625.422 262.836 618.516 250.719 C 616.63 247.41 613.545 244.166 610.123 242.361 C 605.53 239.937 600.577 239.728 595.5 240.359 L 595.5 240.359 L 584 245.859 L 579.5 252.359 C 574.103 246.219 565.089 245.647 557.5 246.359 L 557.5 246.359 L 546 252.859 C 538.05 259.345 539.025 275.961 546.5 282.359 L 546.5 282.359 L 557 286.859 L 548.5 296.359 C 538.647 307.211 526.651 315.931 513.5 322.359 L 513.5 322.359 L 506 313.859 L 509.5 311.359 L 512.5 312.359 L 513 310.859 L 509 307.859 C 502.073 300.022 500.643 288.927 501 278.859 L 501 278.859 L 502.5 276.359 L 505.5 280.359 L 506 277.859 L 494 257.859 L 496 256.859 L 496.5 255.359 L 507.5 258.359 L 508 256.859 C 500.433 245.489 503.98 228.611 514.5 220.359 L 514.5 220.359 L 523 214.859 L 520.5 214.359 L 513.5 216.359 Q 510.75 215.109 513 213.859 Q 514.625 206.984 520.5 204.359 Q 526.649 197.508 541 198.859 Q 536.513 194.346 536 185.859 L 540.5 185.359 C 544.481 189.521 551.531 188.473 556.5 187.359 L 556.5 187.359 L 560 184.859 L 559.5 183.359 Q 554.5 183.859 554 179.859 Q 553.25 176.109 555.5 175.359 Q 562.757 170.617 575.5 171.359 Q 586.181 172.179 593.5 176.359 Q 597.75 173.609 591 170.859 L 587 162.859 L 588.5 161.359 Z " fill="rgb(233,214,4)" vector-effect="non-scaling-stroke" stroke-width="1" stroke="rgb(0,0,0)" stroke-linejoin="miter" stroke-linecap="square" stroke-miterlimit="3"/><path d=" M 627.5 162.359 C 634.162 164.221 640.157 168.021 644 173.859 L 644 173.859 L 647 177.859 L 642 173.859 L 641.5 172.359 L 640 171.859 L 638.5 169.359 L 630.5 164.359 C 629.466 164.29 626.777 164.047 627.5 162.359 L 627.5 162.359 Z  M 567.5 170.359 C 572.331 169.945 577.428 170.07 582 171.859 L 582 171.859 L 576.5 172.359 C 574.523 169.393 570.254 170.833 567.5 171.359 C 563.564 172.111 556.381 172.945 554 176.859 C 552.664 179.056 554.777 182.415 557 182.859 L 557 182.859 L 553 179.859 L 553.5 175.359 L 567.5 170.359 Z  M 623.5 170.359 L 626 176.859 L 624.5 177.359 L 618 171.859 L 620.5 173.359 L 623.5 175.359 L 624 173.859 L 623.5 170.359 Z  M 653.5 171.359 L 657 172.859 L 658 174.859 L 654.5 172.359 L 653 172.859 L 650.5 179.359 L 650 176.859 L 653.5 171.359 Z  M 658.5 177.359 C 660.403 179.685 660.367 183.044 660 185.859 L 660 185.859 L 659 185.859 L 658.5 177.359 Z " fill-rule="evenodd" fill="rgb(21,0,62)"/><path d=" M 664.5 179.359 L 666.5 182.359 L 670 182.859 L 666.5 183.359 C 664.529 182.748 663.379 181.344 664.5 179.359 L 664.5 179.359 Z  M 530.5 180.359 L 531 189.859 L 530 189.859 L 530.5 180.359 Z " fill-rule="evenodd" fill="rgb(188,193,185)"/><path d=" M 536.5 183.359 L 540 184.859 L 536 185.859 L 537 190.859 L 536 190.859 L 535 184.859 L 536.5 183.359 Z  M 558.5 183.359 L 560 183.859 L 558.5 186.359 L 552.5 187.359 L 552.5 186.359 C 554.668 186.702 557.498 186.79 559 184.859 L 559 184.859 L 558.5 183.359 Z  M 541.5 185.359 L 550 186.859 L 543.5 187.359 L 541.5 185.359 Z  M 660.5 189.359 C 665.19 188.483 670.545 187.948 675.057 189.928 C 679.593 191.918 680.376 196.734 675.5 199.359 L 675.5 199.359 L 677 196.859 L 678 192.859 C 673.094 189.001 666.472 188.59 660.5 189.359 L 660.5 189.359 Z " fill-rule="evenodd" fill="rgb(21,0,62)"/><path d=" M 683.5 194.359 L 684 195.859 L 683 197.859 L 684.5 200.359 L 682 196.859 L 683.5 194.359 Z " fill="rgb(114,121,111)"/><line x1="518.5" y1="197.359" x2="512.5" y2="204.359"/><path d=" M 527.5 199.359 L 529 199.859 C 523.067 202.045 517.758 205.735 514 210.859 L 514 210.859 L 512.5 214.359 L 512 212.859 L 518.5 204.359 L 527.5 199.359 Z " fill="rgb(21,0,62)"/><line x1="686.5" y1="200.359" x2="691.5" y2="206.359"/><line x1="687.5" y1="200.359" x2="691.5" y2="205.359"/><path d=" M 675.5 201.359 C 680.091 202.47 684.305 204.904 687 208.859 L 687 208.859 L 689 213.859 L 688 213.859 C 688.235 210.033 687.079 206.699 683.22 205.515 C 681.137 204.876 674.694 205.043 675.5 201.359 L 675.5 201.359 Z  M 520.5 214.359 L 523 214.859 L 519.5 217.359 L 517 215.859 L 518.5 215.359 L 520 215.859 L 520.5 214.359 Z  M 517.5 217.359 L 515.5 220.359 L 514 220.859 L 506.5 231.359 L 506 229.859 L 514.5 219.359 L 517.5 217.359 Z  M 688.5 220.359 L 689.5 222.359 L 694 222.859 L 689.5 223.359 L 687.5 222.359 L 687.5 224.359 L 685 223.859 L 688.5 220.359 Z  M 699.5 220.359 C 702.088 220.957 702.35 223.645 702 225.859 L 702 225.859 L 699.5 230.359 L 697.5 231.359 L 700 227.859 L 701 223.859 C 699.841 221.708 697.14 221.58 695 221.859 L 695 221.859 L 699.5 220.359 Z " fill-rule="evenodd" fill="rgb(21,0,62)"/><path d=" M 506.5 221.359 L 504 224.859 L 502.5 227.359 L 503 225.859 L 506.5 221.359 Z " fill="rgb(114,121,111)"/><path d=" M 662.5 232.359 L 665.5 233.359 L 667.5 232.359 L 668.5 234.359 L 673 237.859 L 672 239.859 L 674 239.859 L 672.5 242.359 L 668.5 235.359 L 661 233.859 L 662.5 232.359 Z  M 695.5 232.359 C 705.603 235.209 713.253 243.101 712 253.859 L 712 253.859 L 710 254.859 L 711 251.859 L 710 249.859 L 710 247.859 C 709.07 244.013 706.552 237.981 702.5 236.359 C 700.621 235.608 694.715 235.948 695.5 232.359 L 695.5 232.359 Z " fill-rule="evenodd" fill="rgb(21,0,62)"/><path d=" M 670.5 236.359 C 672.907 237.656 673.863 240.259 674 242.859 L 674 242.859 L 673 242.859 L 670.5 236.359 Z " fill="rgb(53,57,28)"/><path d=" M 592.5 241.359 L 596 242.859 L 591.5 244.359 L 589.5 243.359 L 590.5 245.359 L 592 245.859 L 589.5 246.359 L 588 243.859 L 590.5 242.359 L 592.5 243.359 L 592.5 241.359 Z " fill="rgb(173,125,49)"/><path d=" M 596.5 242.359 C 602.868 242.222 609.882 243.54 614 248.859 L 614 248.859 L 616 252.859 L 612.5 250.359 C 606.634 244.694 597.676 244.171 590 244.859 L 590 244.859 L 596.5 242.359 Z " fill="rgb(224,145,181)"/><path d=" M 606.5 243.359 L 612.5 246.359 L 611.5 243.359 C 615.482 245.139 618.011 248.675 619 252.859 L 619 252.859 L 617.5 255.359 L 612 250.859 L 616 252.859 L 612.5 247.359 C 610.602 247.051 605.83 246.291 606.5 243.359 L 606.5 243.359 Z  M 586.5 244.359 L 581 250.859 L 579.5 253.359 L 576.5 254.359 L 577 252.859 L 575.5 250.359 L 569 247.859 L 571.5 247.359 L 579.5 252.359 L 584.5 245.359 L 586.5 244.359 Z  M 557.5 246.359 L 568 246.859 L 566 247.859 L 565.5 249.359 L 561.5 250.359 L 561.5 249.359 L 563 248.859 L 558.5 248.359 L 555.5 249.359 L 554.5 247.359 L 557.5 246.359 Z  M 678.5 246.359 L 681.5 247.359 L 683.5 246.359 L 683.5 247.359 L 682 247.859 L 684.5 249.359 C 685.383 247.771 686.385 248.506 687 249.859 L 687 249.859 L 685.5 252.359 L 683.5 249.359 C 681.569 249.301 678.522 248.886 678.5 246.359 L 678.5 246.359 Z " fill-rule="evenodd" fill="rgb(21,0,62)"/><path d=" M 680.5 246.359 L 685 247.859 L 687 252.859 L 686 252.859 Q 686.5 248.859 683.5 248.359 Q 679.75 248.109 680.5 246.359 Z " fill="rgb(53,57,28)"/><path d=" M 592.5 247.359 C 600.733 247.064 609.925 248.688 615 255.859 L 615 255.859 L 619 264.859 L 617.5 267.359 L 611.5 256.359 C 607.026 250.086 598.489 249.598 591.5 250.359 L 591.5 250.359 L 582.5 253.359 L 583 251.859 L 583.5 250.359 L 592.5 247.359 Z " fill="rgb(224,145,181)"/><path d=" M 552.5 248.359 C 554.297 249.258 554.297 250.461 552.5 251.359 L 552.5 251.359 L 550.5 252.359 L 548.5 252.359 L 547 252.859 L 549 253.859 L 543.5 262.359 L 542 259.859 L 548.5 250.359 L 550.5 249.359 L 552.5 250.359 L 552.5 248.359 Z " fill="rgb(173,125,49)"/><path d=" M 553.5 248.359 L 555 248.859 L 547.5 253.359 L 547.5 252.359 L 553.5 248.359 Z " fill="rgb(53,57,28)"/><path d=" M 558.5 248.359 L 563 248.859 C 556.632 250.749 550.867 254.386 547 259.859 L 547 259.859 L 543.5 266.359 L 543 262.859 L 549.5 252.359 L 558.5 248.359 Z " fill="rgb(224,145,181)"/><path d=" M 494.5 249.359 L 496 249.859 L 490 253.859 L 489.5 255.359 L 489 253.859 L 494.5 249.359 Z " fill="rgb(188,193,185)"/><path d=" M 563.5 251.359 C 567.44 250.527 572.749 249.832 576 252.859 L 576 252.859 L 575.5 254.359 Q 573.5 251.359 566.5 253.359 Q 557.116 255.475 552 261.859 Q 547.332 267.691 546.5 277.359 Q 544 276.359 545 271.859 L 545 269.859 C 546.264 263.987 549.325 258.605 554.5 255.359 L 554.5 255.359 L 563.5 251.359 Z " fill="rgb(224,145,181)"/><path d=" M 594.5 252.359 C 600.681 252.833 606.997 254.892 611 259.859 L 611 259.859 L 616 270.859 L 610.5 277.359 C 606.363 281.353 599.777 281.147 594.5 280.359 L 594.5 280.359 L 584 273.859 C 580.399 270.218 579.756 264.732 580 259.859 L 580 259.859 L 581.5 256.359 L 594.5 252.359 Z " fill="rgb(37,232,153)"/><path d=" M 696.5 254.359 L 703 255.859 L 700 256.859 L 706 261.859 L 708 267.859 L 707 267.859 C 706.637 264.879 705.364 260.911 702.5 259.359 C 700.024 258.018 697.387 257.464 696.5 254.359 L 696.5 254.359 Z  M 494.5 255.359 L 496 255.859 L 495.5 257.359 L 494 257.859 L 505 275.859 L 504.5 277.359 L 506 277.859 L 505.5 280.359 L 502.5 276.359 C 499.876 279.28 499.984 283.728 500.5 287.359 L 500.5 287.359 L 500 278.859 L 501.5 275.359 L 503.5 276.359 L 504 274.859 L 493 257.859 L 494.5 255.359 Z  M 500.5 255.359 L 506.5 257.359 L 508 256.859 L 507.5 258.359 C 505.771 258.366 499.686 258.53 500.5 255.359 L 500.5 255.359 Z  M 551.5 255.359 L 547.5 260.359 L 551.5 255.359 Z " fill-rule="evenodd" fill="rgb(21,0,62)"/><path d=" M 568.5 255.359 C 572.03 254.86 576.512 254.825 579 257.859 L 579 257.859 L 578 265.859 L 580 270.859 L 566.5 281.359 C 565.222 285.238 561.075 285.789 557.5 285.359 L 557.5 285.359 L 550 280.859 C 548.855 272.732 549.585 262.645 558.5 259.359 L 558.5 259.359 L 568.5 255.359 Z " fill="rgb(37,232,153)"/><path d=" M 595.5 257.359 C 598.991 256.857 603.433 257.084 605 260.859 L 605 260.859 L 606 264.859 L 602.5 271.359 L 595.5 272.359 L 591 268.859 L 590 263.859 L 593.5 258.359 L 595.5 257.359 Z " fill="rgb(53,57,28)"/><line x1="557.5" y1="259.359" x2="552.5" y2="265.359"/><path d=" M 564.5 260.359 C 567.93 260.404 571.44 261.553 573 264.859 L 573 264.859 L 574 267.859 C 573.863 270.459 572.907 273.063 570.5 274.359 L 570.5 274.359 L 562.5 275.359 C 559.194 273.8 558.045 270.289 558 266.859 L 558 266.859 L 561.5 261.359 L 564.5 260.359 Z " fill="rgb(53,57,28)"/><path d=" M 541.5 262.359 L 543.5 266.359 L 545.5 263.359 L 545 264.859 L 543.5 267.359 L 542 267.859 L 541.5 271.359 L 541.5 262.359 Z  M 515.5 263.359 L 516 266.859 L 515 270.859 C 516.589 271.742 515.853 272.744 514.5 273.359 L 514.5 273.359 L 514 266.859 L 515.5 263.359 Z " fill-rule="evenodd" fill="rgb(21,0,62)"/><path d=" M 494.5 267.359 C 497.761 268.414 498.319 271.862 498 274.859 L 498 274.859 L 497 274.859 C 497.189 272.377 497.211 268.586 494.5 267.359 L 494.5 267.359 Z " fill="rgb(114,121,111)"/><path d=" M 580.5 268.359 C 583.363 277.208 592.105 281.841 601 281.859 L 601 281.859 L 594.5 282.359 L 584 275.859 L 581.5 272.359 L 580 271.859 L 580.5 268.359 Z " fill="rgb(53,57,28)"/><path d=" M 623.5 269.359 L 625 269.859 L 624 274.859 L 625 274.859 L 625.5 273.359 L 633 282.859 L 626 276.859 L 625.5 275.359 L 625 277.859 L 630.5 284.359 L 634 285.859 L 632.5 286.359 L 625 279.859 C 622.611 276.874 622.61 272.905 623.5 269.359 L 623.5 269.359 Z " fill="rgb(21,0,62)"/><path d=" M 549.5 271.359 L 550 279.859 L 549 279.859 L 549.5 271.359 Z " fill="rgb(224,145,181)"/><path d=" M 579.5 271.359 L 581.5 272.359 C 582.383 270.771 583.385 271.506 584 272.859 L 584 272.859 L 584 274.859 L 585 276.859 L 583 275.859 L 581.5 273.359 C 577.141 273.107 573.246 274.72 572.5 279.359 L 572.5 279.359 L 574.5 274.359 L 576.5 275.359 L 577.5 272.359 L 579 272.859 L 579.5 271.359 Z  M 707.5 271.359 L 708 273.859 L 704.5 278.359 L 706 275.859 L 707.5 271.359 Z " fill-rule="evenodd" fill="rgb(21,0,62)"/><path d=" M 515.5 272.359 L 518.5 277.359 L 520 277.859 L 518.5 280.359 C 515.717 278.504 514 275.646 515.5 272.359 L 515.5 272.359 Z " fill="rgb(53,57,28)"/><path d=" M 617.5 272.359 L 616.5 274.359 L 613 275.859 L 610.5 279.359 L 605.5 281.359 L 605 279.859 L 612 276.859 L 614.5 273.359 L 617.5 272.359 Z  M 516.5 273.359 L 516 274.859 L 516.5 276.359 C 517.147 275.195 519.301 275.24 519 276.859 C 518.599 279.018 515.442 276.5 515 275.859 L 515 275.859 L 516.5 273.359 Z  M 543.5 276.359 L 549 282.859 L 547.5 282.359 L 546 281.859 C 543.671 280.806 542.229 278.865 543.5 276.359 L 543.5 276.359 Z  M 587.5 276.359 L 589.5 280.359 L 594 281.859 L 591.5 282.359 L 587 278.859 L 587.5 276.359 Z  M 520.5 277.359 L 521 278.859 C 517.379 280.355 516.705 284.364 517 287.859 L 517 287.859 L 522.5 295.359 L 525 296.859 L 522.5 297.359 L 519 294.859 C 515.651 291.929 515.52 286.938 516 282.859 L 516 282.859 L 518 281.859 L 517 278.859 L 518 278.859 L 518.5 280.359 L 520.5 277.359 Z  M 570.5 277.359 Q 572.6 280.359 567.5 283.359 Q 565.4 280.359 570.5 277.359 Z " fill-rule="evenodd" fill="rgb(21,0,62)"/><path d=" M 495.5 279.359 L 496 287.859 L 495 287.859 L 495.5 279.359 Z " fill="rgb(188,193,185)"/><path d=" M 705.5 279.359 L 708 280.859 C 707.739 292.715 703.747 304.752 692.5 310.359 L 692.5 310.359 L 690 311.859 L 694 312.859 L 689.5 313.359 L 689 311.859 L 701 300.859 Q 708.412 295.771 707 281.859 Q 704.75 278.109 702.5 283.359 L 701 282.859 L 702.5 280.359 C 703.66 282.293 704.863 280.847 705.5 279.359 L 705.5 279.359 Z  M 595.5 280.359 C 598.25 279.854 601.916 279.556 604 281.859 L 604 281.859 L 601.5 282.359 C 600.219 282.473 594.601 283.093 595.5 280.359 L 595.5 280.359 Z  M 552.5 282.359 L 552.5 284.359 L 554.5 283.359 L 553.5 285.359 L 550 283.859 L 552.5 282.359 Z  M 564.5 282.359 C 568.909 285.446 563.449 288.213 560.5 289.359 L 560.5 289.359 L 559 288.859 L 564 284.859 C 562.411 283.977 563.147 282.974 564.5 282.359 L 564.5 282.359 Z  M 634.5 283.359 L 642 285.859 L 639.5 286.359 C 637.994 286.218 633.781 285.841 634.5 283.359 L 634.5 283.359 Z  M 557.5 286.359 L 558 287.859 L 538.5 306.359 L 547.5 296.359 L 557 287.859 L 557.5 286.359 Z  M 557.5 290.359 L 547.5 301.359 L 557.5 290.359 Z  M 637.5 290.359 L 644 298.859 L 639 294.859 L 637.5 290.359 Z  M 637.5 295.359 L 643 301.859 L 642 301.859 L 637.5 295.359 Z " fill-rule="evenodd" fill="rgb(21,0,62)"/><path d=" M 709.5 296.359 L 709 297.859 L 704.5 304.359 L 706 301.859 L 709.5 296.359 Z " fill="rgb(114,121,111)"/><path d=" M 499.5 300.359 L 503 308.859 L 501 309.859 L 502 306.859 C 499.591 305.414 498.179 303.089 499.5 300.359 L 499.5 300.359 Z " fill="rgb(188,193,185)"/><path d=" M 505.5 302.359 L 510 308.859 L 508 307.859 L 505.5 302.359 Z  M 544.5 302.359 L 546 302.859 L 533.5 313.359 L 536.5 309.359 L 544.5 302.359 Z  M 644.5 303.359 L 645 304.859 L 643.5 313.359 L 643 305.859 L 644.5 303.359 Z  M 629.5 304.359 L 631 306.859 L 624 312.859 C 623.088 309.895 626.351 307.629 628.5 306.359 L 628.5 306.359 L 630 306.859 L 629.5 304.359 Z  M 536.5 306.359 L 532.5 311.359 L 536.5 306.359 Z  M 508.5 310.359 L 511.5 311.359 L 513 310.859 L 512.5 312.359 L 508.5 311.359 L 506 314.859 L 512.5 322.359 L 505 313.859 L 506.5 311.359 L 508.5 310.359 Z  M 622.5 311.359 C 624.375 314.194 621.2 316.594 619 317.859 L 619 317.859 L 618.5 319.359 L 618 317.859 L 619 315.859 L 617.5 316.359 L 612.5 319.359 L 613.5 317.359 L 622.5 311.359 Z  M 695.5 313.359 C 697.494 313.11 699.621 313.587 700 315.859 L 700 315.859 L 698.5 318.359 L 690.5 322.359 L 691.5 320.359 C 692.795 320.254 699.952 318.331 699 315.859 C 698.658 314.972 694.612 315.833 695.5 313.359 L 695.5 313.359 Z " fill-rule="evenodd" fill="rgb(21,0,62)"/><path d=" M 501.5 315.359 L 506 323.859 L 504 324.859 L 505 322.859 C 501.953 321.323 499.945 318.722 501.5 315.359 L 501.5 315.359 Z " fill="rgb(114,121,111)"/><path d=" M 640.5 316.359 L 641 318.859 L 638.5 323.359 L 638 321.859 L 640.5 316.359 Z " fill="rgb(173,125,49)"/><path d=" M 702.5 317.359 L 703 318.859 L 697 323.859 L 702.5 317.359 Z " fill="rgb(114,121,111)"/><path d=" M 520.5 318.359 C 521.914 319.847 520.939 321.367 519.5 322.359 L 519.5 322.359 L 517.5 323.359 L 515 321.859 L 517.5 320.359 L 519.5 321.359 L 520.5 318.359 Z  M 645.5 319.359 L 646 320.859 L 645 322.859 L 647 322.859 L 646.5 324.359 L 648 324.859 L 647.5 326.359 L 643.5 321.359 L 641.5 322.359 L 642.5 320.359 L 644.5 321.359 L 645.5 319.359 Z " fill-rule="evenodd" fill="rgb(21,0,62)"/><path d=" M 702.5 319.359 L 697.5 325.359 L 694.5 326.359 L 694.5 325.359 C 697.961 324.607 700.958 322.615 702.5 319.359 L 702.5 319.359 Z " fill="rgb(188,193,185)"/><path d=" M 606.5 321.359 L 605.5 323.359 L 596.5 327.359 L 596.5 326.359 L 606.5 321.359 Z  M 612.5 321.359 L 614 321.859 L 600.5 363.359 C 599.554 371.322 596.958 379.313 591.5 385.359 L 591.5 385.359 L 583.5 387.359 L 580 384.859 C 579.76 368.82 580.569 352.727 583 336.859 L 583 336.859 L 582.5 335.359 L 585 335.859 L 586 339.859 C 581.638 343.252 583.248 351.883 585.778 355.581 C 587.794 358.527 587.307 362.07 586.5 365.359 L 586.5 365.359 L 589.5 366.359 Q 597.566 360.425 599 347.859 Q 600.236 332.095 608.5 323.359 L 612.5 321.359 Z  M 515.5 323.359 L 514.5 325.359 L 490.5 338.359 L 491.5 336.359 L 515.5 323.359 Z  M 680.5 324.359 L 682 324.859 L 680 325.859 C 683.888 326.637 684.489 330.438 684 333.859 L 684 333.859 L 676.5 343.359 L 662.5 351.359 L 662.5 350.359 C 671.072 347.508 684.081 340.399 683 329.859 L 683 329.859 L 679 326.859 L 680.5 324.359 Z  M 639.5 326.359 L 639 327.859 C 637.55 332.821 634.745 337.327 630.5 340.359 L 630.5 340.359 L 633 336.859 L 639.5 326.359 Z " fill-rule="evenodd" fill="rgb(21,0,62)"/><path d=" M 690.5 326.359 L 692 326.859 L 688 328.859 L 687.5 333.359 L 687 328.859 L 690.5 326.359 Z " fill="rgb(114,121,111)"/><path d=" M 599.5 327.359 L 602 327.859 L 600.5 335.359 L 600 332.859 L 601 328.859 L 599.5 328.359 L 597.5 329.359 L 597.5 328.359 L 599.5 327.359 Z " fill="rgb(173,125,49)"/><path d=" M 599.5 328.359 L 601 328.859 C 599.845 340.696 596.599 352.644 589.5 362.359 L 589.5 362.359 L 588 361.859 L 588.5 333.359 L 599.5 328.359 Z " fill="rgb(224,145,181)"/><path d=" M 587.5 334.359 L 588.5 362.359 L 591.5 360.359 L 589.5 363.359 L 587 361.859 L 587.5 334.359 Z " fill="rgb(173,125,49)"/><path d=" M 686.5 335.359 L 687 336.859 L 676.5 349.359 L 673.5 351.359 L 675.5 348.359 L 677 347.859 L 677.5 346.359 L 683 341.859 L 686.5 335.359 Z " fill="rgb(114,121,111)"/><path d=" M 577.5 336.359 L 580 336.859 L 579.5 339.359 L 578.5 337.359 L 575 338.859 L 574.5 351.359 L 574 338.859 L 577.5 336.359 Z  M 570.5 339.359 L 573 340.859 L 572.5 348.359 L 571.5 340.359 L 568.5 341.359 L 568.5 340.359 L 570.5 339.359 Z  M 610.5 339.359 L 611 341.859 L 608.5 348.359 L 608 345.859 L 610.5 339.359 Z " fill-rule="evenodd" fill="rgb(173,125,49)"/><path d=" M 476.5 340.359 L 473 344.859 L 472.5 346.359 L 472 344.859 L 476.5 340.359 Z " fill="rgb(188,193,185)"/><path d=" M 484.5 340.359 L 483.5 342.359 L 476.5 347.359 L 479.5 343.359 L 484.5 340.359 Z " fill="rgb(21,0,62)"/><path d=" M 570.5 340.359 L 572 340.859 L 573 367.859 C 569.457 371.065 563.74 370.274 559.5 369.359 L 559.5 369.359 L 557 367.859 L 560 363.859 C 553.195 362.588 546.522 360.114 541 355.859 L 541 355.859 L 540 352.859 L 570.5 340.359 Z " fill="rgb(233,214,4)"/><path d=" M 579.5 340.359 L 580 354.859 L 579 354.859 L 579.5 340.359 Z  M 626.5 341.359 L 624 344.859 L 618.5 353.359 L 619 351.859 L 626.5 341.359 Z  M 629.5 341.359 L 628 343.859 L 615.5 365.359 L 615 363.859 C 618.543 355.62 623.367 347.922 629.5 341.359 L 629.5 341.359 Z  M 475.5 348.359 C 475.176 356.047 481.88 360.414 489 360.859 L 489 360.859 L 485.5 361.359 L 476 354.859 L 475.5 348.359 Z  M 536.5 349.359 L 539 349.859 L 522.5 355.359 L 522.5 354.359 L 536.5 349.359 Z  M 595.5 350.359 L 596 352.859 L 592.5 359.359 L 592 357.859 L 595.5 350.359 Z  M 539.5 351.359 L 541 351.859 L 540 353.859 L 541.5 356.359 L 555 361.859 L 551.5 362.359 C 546.764 360.984 542.331 358.541 539 354.859 L 539 354.859 L 539.5 351.359 Z " fill-rule="evenodd" fill="rgb(173,125,49)"/><path d=" M 579.5 340.359 L 580 354.859 L 579 354.859 L 579.5 340.359 Z  M 626.5 341.359 L 624 344.859 L 618.5 353.359 L 619 351.859 L 626.5 341.359 Z  M 629.5 341.359 L 628 343.859 L 615.5 365.359 L 615 363.859 C 618.552 355.598 623.351 347.939 629.5 341.359 L 629.5 341.359 L 629.5 341.359 Z  M 475.5 348.359 C 475.179 355.978 482.082 360.426 489 360.859 L 489 360.859 L 489 360.859 L 485.5 361.359 L 476 354.859 L 475.5 348.359 Z  M 536.5 349.359 L 539 349.859 L 522.5 355.359 L 522.5 354.359 L 536.5 349.359 Z  M 595.5 350.359 L 596 352.859 L 592.5 359.359 L 592 357.859 L 595.5 350.359 Z  M 539.5 351.359 L 541 351.859 L 540 353.859 L 541.5 356.359 L 555 361.859 L 551.5 362.359 C 546.748 360.98 542.342 358.553 539 354.859 L 539 354.859 L 539 354.859 L 539.5 351.359 Z  M 617.5 354.359 L 617 355.859 L 614.5 361.359 L 614 359.859 L 617.5 354.359 Z " fill-rule="evenodd" fill="rgb(21,0,62)"/><path d=" M 472.5 355.359 L 476.5 361.359 L 479 362.859 L 477.5 362.359 L 474 359.859 L 472.5 355.359 Z " fill="rgb(188,193,185)"/><path d=" M 512.5 357.359 L 515 357.859 C 511.389 361.128 506.148 361.636 501.5 361.359 L 501.5 361.359 L 501.5 360.359 C 505.299 360.659 509.719 360.304 512.5 357.359 L 512.5 357.359 Z " fill="rgb(21,0,62)"/><path d=" M 659.5 357.359 L 659 358.859 C 659.319 361.856 658.761 365.305 655.5 366.359 L 655.5 366.359 L 657 363.859 L 659.5 357.359 Z " fill="rgb(114,121,111)"/><path d=" M 630.5 358.359 L 639 363.859 L 637.5 363.359 L 631.5 359.359 L 626.5 366.359 L 628 363.859 L 630.5 358.359 Z  M 604.5 359.359 L 605 360.859 L 600.5 372.359 L 600 370.859 L 604.5 359.359 Z " fill-rule="evenodd" fill="rgb(173,125,49)"/><path d=" M 538.5 360.359 L 547 365.859 L 545.5 366.359 C 542.591 365.244 539.648 363.41 538.5 360.359 L 538.5 360.359 Z  M 478.5 361.359 L 485 364.859 L 483.5 365.359 C 481.429 364.832 478.854 363.766 478.5 361.359 L 478.5 361.359 Z " fill-rule="evenodd" fill="rgb(114,121,111)"/><path d=" M 491.5 361.359 L 500 361.859 L 491.5 362.359 L 491.5 361.359 Z  M 557.5 362.359 L 560 363.859 L 557 367.859 L 559 368.859 L 557.5 369.359 L 556 366.859 L 558.5 363.359 L 557.5 362.359 Z  M 613.5 362.359 L 614 363.859 L 611.5 369.359 L 611 367.859 L 613.5 362.359 Z  M 648.5 363.359 L 651 363.859 C 648.051 366.039 643.936 365.871 640.5 365.359 L 640.5 365.359 L 640.5 364.359 C 642.88 365.026 646.86 365.936 648.5 363.359 L 648.5 363.359 Z  M 573.5 364.359 C 578.211 374.453 572.438 384.709 575.246 394.738 C 575.758 396.567 576.96 398.259 578.5 399.359 L 578.5 399.359 L 581 400.859 L 579.5 400.359 L 576 397.859 Q 569.724 388.135 573.5 368.359 Q 570 372.359 560.5 370.359 L 560.5 369.359 C 564.44 370.192 569.749 370.886 573 367.859 L 573 367.859 L 573.5 364.359 Z  M 578.5 364.359 L 579 378.859 L 578 378.859 L 578.5 364.359 Z " fill-rule="evenodd" fill="rgb(21,0,62)"/><path d=" M 491.5 366.359 L 500 366.859 L 491.5 367.359 L 491.5 366.359 Z  M 548.5 366.359 L 552 367.859 L 553 370.859 L 551 369.859 L 550.5 367.359 C 549.797 367.477 547.584 367.733 548.5 366.359 L 548.5 366.359 Z " fill-rule="evenodd" fill="rgb(114,121,111)"/><path d=" M 551.5 370.359 L 558 374.859 L 556.5 375.359 L 551.5 370.359 Z " fill="rgb(188,193,185)"/><path d=" M 610.5 370.359 L 611 371.859 L 607.5 380.359 L 607 378.859 L 610.5 370.359 Z  M 599.5 373.359 L 600 375.859 L 597.5 381.359 L 597 379.859 L 599.5 373.359 Z  M 606.5 381.359 L 607 382.859 C 605.399 388.303 602.631 393.42 598.5 397.359 L 598.5 397.359 L 594.5 399.359 L 595.5 397.359 L 602 391.859 L 606.5 381.359 Z " fill-rule="evenodd" fill="rgb(21,0,62)"/><path d=" M 570.5 383.359 L 571 393.859 L 570 393.859 L 570.5 383.359 Z " fill="rgb(114,121,111)"/><path d=" M 610.5 387.359 L 611 388.859 C 608.965 394.339 605.414 399.14 600.5 402.359 L 600.5 402.359 L 607 394.859 L 610.5 387.359 Z " fill="rgb(188,193,185)"/><path d=" M 606.5 394.359 L 599.5 402.359 L 593.5 405.359 L 593.5 404.359 C 598.762 402.432 603.388 399.056 606.5 394.359 L 606.5 394.359 Z  M 572.5 398.359 L 578 404.859 L 576.5 404.359 L 574 402.859 L 572.5 398.359 Z " fill-rule="evenodd" fill="rgb(114,121,111)"/><path d=" M 591.5 399.359 L 593 399.859 C 590.318 402.593 586.06 402.741 582.5 402.359 L 582.5 402.359 L 582.5 401.359 C 585.516 401.756 589.243 401.757 591.5 399.359 L 591.5 399.359 Z " fill="rgb(173,125,49)"/></g><image xlink:href="data:," x="0" y="0" width="0" height="0" style=""/></g></svg>