<svg xmlns="http://www.w3.org/2000/svg" viewBox="0 0 1039.23 1200"><defs><style>.a{fill:#14003d}.b{fill:#fff}.c{fill:none;stroke:#14003d;stroke-miterlimit:10;stroke-width:7.68px}</style></defs><path class="a" d="M0 300v600l519.62 300 519.61-300V300L519.62 0 0 300z"/><path class="b" d="M40 876.91V323.09l479.62-276.9 479.61 276.9v553.82l-479.61 276.9L40 876.91z"/><path class="b" d="M40 876.91V323.09l479.62-276.9 479.61 276.9v553.82l-479.61 276.9L40 876.91z"/><path class="a" d="M999.24 322.09v487.58Q987 809 974.62 809a455.43 455.43 0 00-106 12.45A455.55 455.55 0 00549 862.3 452.62 452.62 0 00375.62 828a460.2 460.2 0 00-51.05 2.84A452.07 452.07 0 00115.62 780 457.44 457.44 0 0040 786.27V322.09l479.62-276.9z"/><path class="b" d="M455.81 293.58c6.23-29.29 52.46-30.78 61.66-30.78h2.3c.57 0 56.75-1.75 63.66 30.75 3 14.3-.85 25.68-11.58 33.83-10.42 7.9-27.37 12.68-48 13.6-1.38.06-2.77.11-4.18.13s-2.81-.07-4.19-.13c-20.67-.92-37.62-5.7-48-13.6-10.82-8.12-14.71-19.5-11.67-33.8zm8.76 41.26c.22.16.45.3.68.45l.71.47c.28.19.57.37.86.55l.7.43.93.54c.22.13.45.27.68.39l1 .55.62.34 1.31.66c.12 0 .24.12.36.18l1.7.79.52.22 1.21.53.68.27 1.08.44.75.28 1 .38.78.28 1 .35.8.26 1 .33.82.25 1 .29c.28.09.56.16.84.24l1 .28.85.22 1 .25.86.21 1 .23.86.2 1 .21.87.18 1 .2.86.16 1 .19.85.14 1 .17.86.14 1 .15.85.12 1 .14.84.11 1 .12.82.1 1 .11.81.08 1 .1.8.07 1 .09.78.06 1 .08.74.05 1 .06.72.05 1 .05h11.31l1-.05.72-.05 1-.06.74-.05 1-.08.78-.06 1-.09.8-.07 1-.1.81-.09 1-.1.83-.1 1-.12.84-.11 1-.14.86-.12 1-.15.86-.14 1-.16.87-.16 1-.18.87-.16 1-.2.87-.18 1-.21.87-.2 1-.23.87-.21 1-.25.87-.22 1-.28c.29-.08.57-.15.85-.24l1-.29.84-.26 1-.32.82-.26 1-.35.8-.28 1-.38.77-.28 1.06-.43.69-.28 1.18-.51.55-.24 1.7-.79.36-.18 1.31-.66.61-.33 1-.56c.23-.12.45-.26.67-.38l.94-.55.69-.43.88-.55.69-.46.69-.46c19.22 8.27 35.12 20.2 47.26 35.47a120 120 0 0117 29.1c13.46 32.64 12.85 52.81 12.2 74.18-.81 26.8-1.73 57.19 25.48 116.36 12.19 26.51 14.6 59.63 8.16 92.31 0 .15 0 .29-.05.43a189 189 0 01-29.07 69.51c-30.78 44.83-79.07 69.52-136 69.52a176.23 176.23 0 01-56-8.78c-33.11-11.06-61-32.33-81.2-62.49-32.66-48.83-40.8-114.81-19.8-160.48 27.21-59.17 26.29-89.56 25.48-116.36-.65-21.37-1.26-41.54 12.2-74.18a120 120 0 0117-29.1c11.95-15.33 27.85-27.22 47.07-35.49zM348.05 699.2V704.45c0 .42 0 .84-.07 1.21v.48c0 .3-.05.6-.08.9v.09c0 .49-.08 1-.14 1.51s-.1 1-.16 1.46c0 .28-.06.56-.1.83l-.12.89c-.05.38-.1.75-.16 1.12l-.05.33c0 .25-.08.5-.14.8v.12c0 .23-.07.46-.11.64s0 .19-.05.29v.19l-.06.29v.17c-.08.44-.17.87-.27 1.33s-.17.81-.25 1.16l-.07.29c-.11.48-.22 1-.34 1.42 0 .09-.05.19-.07.28l-.2.77c-.2.73-.41 1.47-.63 2.18v.1c0 .1-.06.2-.1.3l-.09.32-.63 1.89-.29.83-.17.44c-.14.4-.29.79-.43 1.16l-.28.69c0 .14-.1.27-.16.4l-.07.16c-.22.54-.45 1.08-.69 1.61l-.12.28-.27.58a6.5 6.5 0 01-.22.46l-.12.26V732.8c-.13.26-.25.52-.39.79l-.09.17-.69 1.34a62.84 62.84 0 01-11.41 15.23l-4.48 4a71.85 71.85 0 01-8.77 6.11 19.4 19.4 0 01-19.28.19h-.07c-.35-.19-.7-.4-1-.62l-.21-.14-.36-.24-.2-.15h-.07l-.25-.18-.27-.21-.25-.2-.09-.07-.16-.14-.13-.11-.26-.22-.18-.17-.73-.18-.13-.12-.33-.32-.1-.11-.28-.28-.18-.19v-.16l-1-.95-.07-.1-.19-.24-.06-.09-.41-.55-.36-.55c-.25-.38-.49-.78-.72-1.21-.12-.21-.23-.42-.34-.65-13.54-27-20.4-60.68-20.4-100.11a357.05 357.05 0 017.87-74.38c1.82-5.16 41.42-116 101.9-176.48a194.8 194.8 0 0123.29-19.87 132 132 0 00-7.28 14.92c-14.09 34.16-13.45 55.13-12.78 77.34.82 27.23 1.67 55.39-24.78 112.92-12.73 27.68-15.32 62.37-8.69 96.56h-.07a116.73 116.73 0 011.16 15.82zm155 238.5c-10.23 1.14-71.49 2.93-82.62-4.72-9.36-6.44-22.33-33.36-33.05-68.59-8.73-28.68-10.89-67.75-5.89-102a3.65 3.65 0 01.24.31l1 1.35c.62.81 1.25 1.62 1.88 2.42.39.5.79 1 1.19 1.48.6.74 1.21 1.48 1.82 2.21l1.27 1.49q.9 1.06 1.83 2.1l1.3 1.46c.63.69 1.27 1.38 1.91 2.06l1.3 1.38c.68.71 1.38 1.41 2.07 2.11l1.21 1.21c.85.84 1.72 1.67 2.59 2.49l.76.73q1.69 1.57 3.42 3.09l1 .89c.83.71 1.65 1.42 2.49 2.12l1.38 1.12 2.22 1.78 1.51 1.16c.73.55 1.45 1.1 2.19 1.64l1.56 1.14c.74.53 1.48 1.06 2.23 1.57.52.37 1.05.73 1.58 1.09l2.34 1.55 1.52 1c.87.55 1.75 1.09 2.63 1.62l1.31.8q2 1.19 4 2.32c24.13 13.46 51.59 20.59 81.67 21.25v97.9c-.32 1.64-2.79 9.46-11.84 10.47zm147.25-73.31c-10.72 35.23-23.7 62.15-33 68.59-11.14 7.65-72.4 5.85-82.62 4.72-9-1-11.52-8.81-11.94-10.44v-97.88c30.24-.44 57.88-7.39 82.17-20.7 1.34-.74 2.66-1.49 4-2.26.43-.25.85-.51 1.27-.77.89-.52 1.76-1 2.64-1.59l1.48-.95c.79-.51 1.58-1 2.36-1.53l1.54-1 2.24-1.55 1.53-1.1c.74-.53 1.47-1.07 2.2-1.62l1.47-1.12c.76-.57 1.5-1.16 2.24-1.76l1.35-1.07c.85-.69 1.69-1.4 2.52-2.11l1-.82c1.15-1 2.28-2 3.4-3l.86-.8c.84-.77 1.66-1.54 2.48-2.33l1.25-1.23c.68-.67 1.35-1.34 2-2 .45-.45.89-.91 1.33-1.38.63-.65 1.25-1.31 1.87-2l1.33-1.46 1.8-2c.43-.5.87-1 1.29-1.49.6-.7 1.2-1.41 1.79-2.12l1.22-1.48 1.86-2.34 1.05-1.34.21-.26c4.61 33.71 2.35 72.11-6.19 100.19zm101.08-112c-.11.23-.23.46-.34.66-.23.42-.47.82-.71 1.2-.12.2-.25.39-.38.58l-.41.55-.06.09-.22.29-1.19 1.37-.34.35-.07.07-.33.32-.32.29-.32.29-.26.21-.12.1-.44.35-.22.17-.25.18-.92.63c-.33.21-.67.41-1 .61a19.41 19.41 0 01-19.34-.16 71.77 71.77 0 01-8.72-6.07h-.06l-4.43-4a62.79 62.79 0 01-12.1-16.53c-.28-.56-.56-1.13-.86-1.78-.07-.15-.15-.3-.22-.46l-.19-.44-.3-.66-.49-1.16-.18-.46-.15-.35c0-.12-.09-.23-.12-.32-.15-.39-.3-.78-.44-1.16l-1.15-3.15a1.42 1.42 0 00-.07-.22 2.17 2.17 0 00-.07-.24c-.06-.22-.13-.45-.2-.67v-.09c-.16-.57-.32-1.13-.48-1.72l-.2-.75c-.14-.57-.28-1.14-.41-1.71l-.06-.24c-.09-.4-.17-.81-.27-1.24s-.18-.86-.26-1.3v-.14c0-.14-.06-.28-.08-.42l-.06-.33q-.07-.35-.12-.69v-.1c-.06-.38-.13-.76-.19-1.14l-.18-1.23v-.28c-.07-.45-.12-.89-.18-1.38s-.11-.94-.16-1.48-.1-1-.13-1.45V707c0-.3 0-.6-.08-.9v-.42l-.23-1.68v-1.24-1.93-1.63a116.73 116.73 0 011.14-15.89h-.08c.88-4.6 1.61-9.24 2.16-13.91 3.6-30.28-.25-59.62-10.84-82.64-26.45-57.53-25.6-85.69-24.78-112.92.68-22.21 1.31-43.18-12.78-77.34a130.36 130.36 0 00-7.28-14.92A194.8 194.8 0 01662 401.43c.94.94 1.88 1.9 2.82 2.87 1.86 1.93 3.71 3.92 5.54 5.94s3.63 4.1 5.42 6.2q1.59 1.88 3.15 3.8t3.28 4.08c40.45 51.17 68.74 119.55 78.24 144.31 2 5.2 3.17 8.49 3.45 9.28a317.76 317.76 0 015.55 34.09c0 .4.09.81.13 1.21q.42 3.8.79 7.88a2.45 2.45 0 000 .27q.27 3 .49 6.21c.13 1.86.25 3.77.36 5.71l.09 1.69c.07 1.44.13 2.89.19 4.36a342 342 0 01.26 13c.02 39.39-6.84 73.07-20.38 100.07z"/><path class="c" d="M658.75 753.62c-28.06 40.87-74.18 71.19-139.13 71.19-65.91 0-112.41-31.21-140.35-73-34.56-51.64-40.73-119.42-20.12-164.25 48.37-105.18 6.69-115.39 37.62-190.4a123.56 123.56 0 0117.53-30c14.89-18.72 33.42-30.3 50.77-37.45 12.63 9.58 32.5 14.11 54.55 14.52 22-.41 41.91-4.94 54.54-14.52 17.35 7.15 35.88 18.73 50.77 37.45a123.56 123.56 0 0117.53 30c30.93 75-10.75 85.22 37.62 190.4 20.85 45.36 14.29 114.2-21.33 166.06z"/><path class="c" d="M350.71 682a119.44 119.44 0 011.18 16.42v5.47c0 .44-.05.88-.08 1.32s-.07 1-.12 1.44-.09 1.05-.14 1.57-.11 1-.17 1.54-.12 1-.19 1.46v.34l-.18 1.21v.3c-.05.31-.1.6-.16.9s-.09.57-.14.86c0 .11 0 .23-.06.33s-.07.35-.1.52c-.09.47-.19 1-.29 1.42s-.18.87-.28 1.3v.1a.31.31 0 010 .13c-.13.61-.28 1.22-.43 1.82l-.21.78c-.21.78-.43 1.56-.66 2.32 0 .17-.1.34-.16.5s0 .13-.05.19l-.3.92c-.11.35-.23.69-.34 1v.06c-.1.32-.22.65-.33 1l-.17.44c-.15.41-.3.82-.46 1.22-.08.21-.17.44-.26.65s-.17.45-.27.66c-.24.6-.5 1.19-.76 1.78l-.1.21-.27.61-.36.75c-.2.44-.42.88-.64 1.31A66.51 66.51 0 01331 752.44c-1.51 1.48-3 2.85-4.6 4.13h-.06a75.47 75.47 0 01-9.29 6.48 23.1 23.1 0 01-23.17.19c-.46-.25-.9-.52-1.34-.8l-.12-.08-.55-.37s-.1-.07-.15-.11l-.12-.09q-.28-.2-.57-.42l-.43-.34-.22-.19-.14-.11-.39-.34c-.16-.14-.33-.28-.48-.43l-.11-.1c-.16-.15-.32-.31-.47-.47l-.47-.48-.1-.1-.15-.17-.4-.44a1 1 0 01-.13-.17c-.14-.15-.26-.3-.39-.46-.17-.21-.34-.42-.49-.63l-.49-.68c-.16-.23-.32-.46-.47-.7-.29-.45-.58-.93-.84-1.41-.15-.26-.29-.53-.43-.81-16.19-32.31-20.79-69.73-20.79-101.82a356.34 356.34 0 018-75.47s39.91-115.15 102.87-178.11a199.5 199.5 0 0139.79-30.79 199.5 199.5 0 00-39.79 30.79c-63 63-102.88 178.12-102.88 178.12a356.34 356.34 0 00-8 75.47c0 32.09 4.6 69.51 20.79 101.82.14.28.28.55.43.81q.39.72.84 1.41c.15.24.31.47.47.7s.32.45.49.68.31.42.49.63a5.9 5.9 0 00.39.46 1 1 0 00.13.17l.4.44.15.17.1.1c.15.17.31.33.47.48s.31.32.47.47l.11.1c.15.15.32.29.48.43l.39.34.14.11.22.19.43.34q.29.23.57.42l.12.09c.05 0 .11.07.15.11l.55.37.12.08c.44.28.88.55 1.34.8 9.94 19.49 28.42 33.73 37.23 29.66 10-4.6 5.38-15.35 5.38-15.35l-10.15-21h.06l4.6-4.13 9.36 13.49A10 10 0 00357.09 755l-13.19-20.16c.22-.43.44-.87.64-1.31l.36-.75.27-.61.1-.21c.26-.59.52-1.18.76-1.78q.15-.33.27-.66c.09-.21.18-.44.26-.65.16-.4.31-.81.46-1.22l.17-.44c.11-.31.23-.64.33-1v-.06c.11-.34.23-.68.34-1l.3-.92c0-.06 0-.12.05-.19s.11-.33.16-.5c.23-.76.45-1.54.66-2.32l.21-.78c.15-.6.3-1.2.43-1.82a.31.31 0 000-.13v-.1c.1-.43.19-.86.28-1.3s.2-1 .29-1.42c0-.17.06-.35.1-.52s0-.22.06-.33c.05-.29.1-.57.14-.86s.11-.59.16-.9v-.3l.18-1.21v-.34c.07-.48.14-1 .19-1.46s.12-1 .17-1.54.11-1 .14-1.57.08-1 .12-1.44.05-.88.08-1.32v-.45-1-2.33-1.69M624.93 367.15a199.5 199.5 0 0139.79 30.79c63 63 102.88 178.12 102.88 178.12a355.92 355.92 0 018 75.47c0 32.09-4.61 69.51-20.8 101.82-.14.27-.28.54-.43.81-.26.48-.55 1-.84 1.41-.15.24-.31.47-.47.7l-.49.68c-.15.21-.32.42-.49.63a5.58 5.58 0 01-.39.46 1 1 0 01-.13.17l-.22.25a1.62 1.62 0 01-.18.19 3.08 3.08 0 01-.25.27c-.14.16-.31.32-.47.48s-.31.32-.47.47l-.46.42-.13.11c-.12.12-.26.22-.39.34l-.21.18-.58.46q-.28.23-.57.42c-.09.07-.19.13-.27.2l-.35.23-.23.16-.09.06c-.44.28-.88.55-1.33.8a23.12 23.12 0 01-23.18-.19 75.47 75.47 0 01-9.29-6.48h-.06a72.59 72.59 0 01-4.6-4.13 66.51 66.51 0 01-12.88-17.6c-.3-.6-.6-1.2-.88-1.82-.1-.21-.2-.41-.29-.63s-.1-.2-.14-.3c-.13-.28-.26-.56-.38-.85s-.3-.71-.44-1.06-.19-.44-.27-.66l-.13-.31-.13-.34c-.16-.4-.31-.81-.46-1.22l-.35-1c-.06-.16-.11-.33-.18-.5-.11-.34-.23-.68-.34-1l-.3-.92a.5.5 0 000-.13c0-.08 0-.16-.08-.25-.07-.27-.16-.54-.24-.82-.18-.6-.35-1.2-.51-1.81l-.21-.78c-.15-.6-.29-1.21-.43-1.82a1.55 1.55 0 01-.06-.23c-.1-.43-.19-.86-.28-1.3s-.2-1-.28-1.42c-.07-.29-.11-.57-.17-.85s-.1-.57-.14-.86-.14-.8-.2-1.2-.15-1-.22-1.5v-.06c-.07-.48-.13-1-.19-1.46s-.12-1-.17-1.54-.1-1-.14-1.57-.08-1-.12-1.44-.07-1.18-.1-1.77v-.98-2.33-1.69"/><path class="c" d="M688.52 682a121 121 0 00-1.18 16.42V703.42c0 .59.06 1.19.1 1.77s.07 1 .12 1.44.09 1.05.14 1.57.11 1 .17 1.54.12 1 .19 1.46v.06c.07.51.14 1 .22 1.5s.13.81.2 1.2.09.57.14.86.1.56.17.85c.08.47.18 1 .28 1.42s.18.87.28 1.3a1.55 1.55 0 00.06.23c.14.62.28 1.22.43 1.82.07.27.14.52.21.78.16.61.33 1.21.51 1.81.08.28.17.55.24.82 0 .09.06.17.08.25a.5.5 0 010 .13l.3.92c.11.35.23.69.34 1 .07.17.12.34.18.5l.35 1c.15.41.3.82.46 1.22l.13.34.13.31q.12.33.27.66c.14.35.3.71.44 1.06s.25.57.38.85c0 .1.09.2.14.3s.19.42.29.63c.28.62.58 1.22.88 1.82L682.14 755a10 10 0 1016.71 10.93l9.36-13.49 4.6 4.13h.06l-10.15 21s-4.6 10.75 5.38 15.35c8.81 4.07 27.29-10.17 37.24-29.66.45-.25.89-.52 1.33-.8l.09-.06.23-.16.35-.23c.08-.07.18-.13.27-.2s.38-.27.57-.42l.58-.46.21-.18c.13-.12.27-.22.39-.34l.13-.11.46-.42c.16-.15.32-.31.47-.47s.32-.31.47-.48a3.08 3.08 0 00.25-.27 1.62 1.62 0 00.18-.19l.22-.25a1 1 0 00.13-.17 4.31 4.31 0 00.39-.46c.18-.21.34-.42.49-.63s.34-.45.49-.68.32-.46.47-.7q.45-.69.84-1.41c.15-.27.29-.54.43-.81 16.19-32.31 20.8-69.73 20.8-101.82a355.92 355.92 0 00-8-75.47s-39.9-115.17-102.86-178.13a199.5 199.5 0 00-39.79-30.79M654 864.74c-8.46 27.8-22.26 62.19-34.55 70.63-13.16 9-78.31 6.14-85.22 5.38-13-1.45-15.35-13.82-15.35-13.82s-2.38 12.37-15.36 13.82c-6.91.76-72.05 3.67-85.22-5.38-12.28-8.44-26.09-42.83-34.55-70.63-9.82-32.29-11.31-76.77-4.45-112.91 27.94 41.77 74.44 73 140.35 73 65 0 111.07-30.32 139.13-71.19 6.46 35.79 4.86 79.36-4.78 111.1zM518.85 926.93V824.81M518.85 926.93V824.81M587.18 292c-7.68-36.09-67.56-33.78-67.56-33.78h-2.15c-10.75 0-58.61 1.81-65.42 33.81-3.59 16.9 1.91 29.25 13 37.69 12.63 9.58 32.5 14.11 54.55 14.52 22-.41 41.91-4.94 54.54-14.52 11.13-8.46 16.63-20.81 13.04-37.72z"/><path d="M551.09 286.62a9.2 9.2 0 00-9 7.08c-7.49.4-15 .6-22.52.6s-15-.21-22.53-.61a9.22 9.22 0 10-1.55 7.62c8 .44 16.07.67 24.08.67s16.07-.23 24.07-.67a9.21 9.21 0 107.4-14.69z" fill="#25e899"/><path class="b" d="M328.75 789.6c-4.84 2.24-17.47-5.55-27.16-19.5a27 27 0 0016.67-3.56c2-1.2 4-2.5 5.92-3.87l8.06 16.65c.42 1.02 2.76 7.41-3.49 10.28zM353.11 757.24a6.14 6.14 0 11-10.28 6.76l-7.62-11a69.64 69.64 0 008.16-10.63zM694.93 763.88l-.06.08a6.14 6.14 0 11-10.28-6.72l9.74-14.89a69.94 69.94 0 008.16 10.65zM708.94 789.6c-6.08-2.8-4-9-3.48-10.29l8.06-16.65a80.03 80.03 0 005.91 3.87 26.84 26.84 0 0013.69 3.74 27.11 27.11 0 003-.18c-9.7 13.96-22.34 21.75-27.18 19.51z"/><path fill="none" d="M572.76 427.72l-2.34-36.23 27.35-.02 2.34 36.23-27.35.02z"/><path d="M588.26 428.48c-8.94 0-16.71-7.54-17.31-16.81a15.87 15.87 0 018-15.1l-.32-4a1.74 1.74 0 01.42-1.3 1.65 1.65 0 011.21-.56 1.86 1.86 0 011.84 1.69l.22 2.83c.49-.13 1-.23 1.5-.31l-.15-2.38a1.78 1.78 0 01.46-1.31 1.61 1.61 0 011.21-.52 1.84 1.84 0 011.8 1.73l.15 2.35a17 17 0 0110.88 5.06l1.26 1.25-3 3.15a13.27 13.27 0 012.77 7.3 12 12 0 01-1.69 7.11l2.79 2.17.6 7.64h-12.64zm-9-27.88a12.51 12.51 0 00-4.86 11c.47 7.37 6.62 13.36 13.7 13.36h9l-.18-2.31-7.65-6a4.74 4.74 0 01-1.82.37 5.5 5.5 0 01-5.32-5.15 5 5 0 011.31-3.76 4.66 4.66 0 013.44-1.48 5 5 0 012 .4l5.53-5.86a13.22 13.22 0 00-8.14-2.87 11.93 11.93 0 00-3.7.59l.45 5.61a1.74 1.74 0 01-.43 1.3 1.62 1.62 0 01-1 .53h-.21a1.82 1.82 0 01-1.79-1.69zm15.44 15.85a8.7 8.7 0 001-4.8 9.55 9.55 0 00-1.7-4.86l-2.49 2.63a5.52 5.52 0 01.69 2.34 5.07 5.07 0 01-.43 2.44z" opacity=".25" fill="#14003d"/><path class="b" d="M976.62 516a5 5 0 11-5-5 5 5 0 015 5zm-142 162a7 7 0 107 7 7 7 0 00-7-7zm-19-192a6 6 0 106 6 6 6 0 00-6-6zm111 128a7 7 0 107 7 7 7 0 00-7-7zm-99-26a4 4 0 104 4 4 4 0 00-4-4zm99-245a10 10 0 1010 10 10 10 0 00-10-10zm-44 105a8 8 0 108 8 8 8 0 00-8-8zm-131-95a5 5 0 105 5 5 5 0 00-5-5zm-146-30a5 5 0 105 5 5 5 0 00-5-5zm-137 167a7 7 0 107 7 7 7 0 00-7-7zm-19-192a6 6 0 106 6 6 6 0 00-6-6zm111 128a7 7 0 107 7 7 7 0 00-7-7zm-99-26a4 4 0 104 4 4 4 0 00-4-4zm99-245a10 10 0 1010 10 10 10 0 00-10-10zm-44 105a8 8 0 108 8 8 8 0 00-8-8zm-131-95a5 5 0 105 5 5 5 0 00-5-5zm-47 333a5 5 0 105 5 5 5 0 00-5-5zm-137 167a7 7 0 107 7 7 7 0 00-7-7zm-19-192a6 6 0 106 6 6 6 0 00-6-6zm111 128a7 7 0 107 7 7 7 0 00-7-7zm-99-26a4 4 0 104 4 4 4 0 00-4-4zm99-245a10 10 0 1010 10 10 10 0 00-10-10zm-44 105a8 8 0 108 8 8 8 0 00-8-8zm-131-95a5 5 0 105 5 5 5 0 00-5-5z"/></svg>