<svg id="gitcoin_bot" xmlns="http://www.w3.org/2000/svg" xmlns:xlink="http://www.w3.org/1999/xlink" viewBox="0 0 86.61 100.01"><defs><style>.cls-1,.cls-20{fill:none;}.cls-2{fill:#190b3c;}.cls-23,.cls-3,.cls-32{fill:#62c08c;}.cls-4{fill:#80479b;}.cls-11,.cls-12,.cls-5{fill:#48b978;}.cls-12,.cls-6{opacity:0.8;}.cls-7{opacity:0.95;}.cls-8{opacity:0.6;}.cls-28,.cls-9{fill:#fff;}.cls-10{fill:#f1f2f2;}.cls-11{opacity:0.6;}.cls-13,.cls-16,.cls-17,.cls-18,.cls-20,.cls-23,.cls-27,.cls-32{stroke:#190b3c;}.cls-13,.cls-14,.cls-16,.cls-17,.cls-18,.cls-20,.cls-23,.cls-27,.cls-28,.cls-32{stroke-miterlimit:10;}.cls-13{stroke-width:0.93px;fill:url(#radial-gradient);}.cls-14,.cls-24{fill:#ed166d;}.cls-14{stroke:#ed166d;stroke-width:0.47px;}.cls-15{opacity:0.9;}.cls-16,.cls-19{fill:#e6e7e8;}.cls-16,.cls-17,.cls-18,.cls-20,.cls-23{stroke-width:0.7px;}.cls-17{fill:#d3d5d6;}.cls-18,.cls-22{fill:#bcbec0;}.cls-21{clip-path:url(#clip-path);}.cls-25{fill:#ffce0b;}.cls-26{clip-path:url(#clip-path-2);}.cls-27{fill:#4a53a4;}.cls-27,.cls-32{stroke-width:1.4px;}.cls-28{font-size:2.79px;stroke:#f1f2f2;stroke-width:0.23px;font-family:MyriadPro-Regular, Myriad Pro;letter-spacing:0.4em;}.cls-29{letter-spacing:0.37em;}.cls-30{letter-spacing:0.38em;}.cls-31{clip-path:url(#clip-path-3);}.cls-33{clip-path:url(#clip-path-4);}.cls-34{clip-path:url(#clip-path-5);}</style><radialGradient id="radial-gradient" cx="71.76" cy="44.2" r="23.76" gradientTransform="translate(0.9 0) scale(0.87 0.87)" gradientUnits="userSpaceOnUse"><stop offset="0" stop-color="#190b3c"/><stop offset="0.17" stop-color="#1a0d3f"/><stop offset="0.28" stop-color="#1f1348"/><stop offset="0.38" stop-color="#261e57"/><stop offset="0.47" stop-color="#302d6d"/><stop offset="0.55" stop-color="#3d4089"/><stop offset="0.61" stop-color="#4a53a4"/></radialGradient><clipPath id="clip-path" transform="translate(0 0)"><path class="cls-1" d="M30.69,51.2H25.9A17.82,17.82,0,0,0,8.09,69l22.6,19.35A17.81,17.81,0,0,0,48.51,70.55V69A17.82,17.82,0,0,0,30.69,51.2Z"/></clipPath><clipPath id="clip-path-2" transform="translate(0 0)"><path class="cls-1" d="M44.06,38.6c0,8.87-7.86,9.73-17.2,9.73-6,0-9.94-7.1-9.94-10.65,0-10.4,8.66-13.37,10.85-13.34C36.47,24.47,44.06,30.07,44.06,38.6Z"/></clipPath><clipPath id="clip-path-3" transform="translate(0 0)"><polygon class="cls-1" points="43.3 0 43.33 7.95 79.73 28.97 86.6 25 43.3 0"/></clipPath><clipPath id="clip-path-4" transform="translate(0 0)"><polygon class="cls-1" points="43.3 100 43.27 92.05 6.87 71.03 0 75 43.3 100"/></clipPath><clipPath id="clip-path-5" transform="translate(0 0)"><circle class="cls-1" cx="13.08" cy="65.07" r="7.29"/></clipPath></defs><polygon id="clip_hexagon" class="cls-2" points="41.45 2.13 0.37 25.98 0.37 73.69 41.45 97.54 82.77 73.69 82.77 25.98 41.45 2.13"/><circle class="cls-3" cx="63.04" cy="34.55" r="8.31"/><path class="cls-4" d="M80.88,24.89,53.36,9c-.59,0-1.18,0-1.78,0A34.94,34.94,0,1,0,82.77,59.62V28.17C82.19,27,81.56,26,80.88,24.89Zm-13-1a15.83,15.83,0,0,1,7.15,9.2,12.67,12.67,0,0,1,.16,2A12.19,12.19,0,1,1,67.9,23.85ZM49,35a14,14,0,0,0,25.78,7.7,15.77,15.77,0,1,1-16.31-21A14.07,14.07,0,0,0,49,35Zm2.6,36.82A28,28,0,0,1,42,17.62,26.72,26.72,0,1,0,74.52,59.85,27.93,27.93,0,0,1,51.58,71.84Zm5.07-10.71a21.14,21.14,0,1,1,0-42.27c.61,0,1.21,0,1.8.07A18.57,18.57,0,1,0,77.54,43.24,21.18,21.18,0,0,1,56.65,61.13Z" transform="translate(0 0)"/><path class="cls-4" d="M6,51.49A44.56,44.56,0,0,1,49.89,7L41.45,2.13,1.64,25.25c-.45.82-.87,1.67-1.27,2.52V72.43c.28.59.58,1.18.88,1.77L25.08,88A44.51,44.51,0,0,1,6,51.49Z" transform="translate(0 0)"/><path class="cls-4" d="M41.45,97.54l5.13-3A44.32,44.32,0,0,1,29.1,90.37Z" transform="translate(0 0)"/><polygon class="cls-3" points="82.77 27.08 63.89 33.7 77.07 22.69 73.34 20.54 63.35 33.34 68.28 17.62 64.35 15.35 62.71 33.33 56.55 10.84 47.57 5.66 62.16 33.66 32.71 7.21 23.71 12.43 61.88 34.25 2.67 24.65 0.37 25.98 0.37 38.09 61.96 34.89 0.47 61.65 9.32 73.51 62.37 35.38 26.56 88.89 39.01 96.12 62.99 35.58 62.06 85.64 72.33 79.72 63.61 35.41 82.77 66.46 82.77 54.41 64.04 34.93 82.77 43.9 82.77 38.73 64.15 34.29 82.77 31.96 82.77 27.08"/><path class="cls-2" d="M82.77,73.69V68.94a123.74,123.74,0,0,0-19.3-8.82,113.84,113.84,0,0,0-40.3-6.44,129.76,129.76,0,0,0-22.8,2v18L41.45,97.54Z" transform="translate(0 0)"/><g id="cyberpunk_line"><path class="cls-5" d="M44.13,55c-7.09-.9-14.34-.27-21.4.63A90.34,90.34,0,0,0,1.82,60.8c-.69.27-.39,1.39.31,1.12a90.58,90.58,0,0,1,21.09-5.23c6.9-.86,14-1.44,20.91-.57.74.1.74-1.07,0-1.16Z" transform="translate(0 0)"/><g class="cls-6"><path class="cls-5" d="M61.18,60.48A31,31,0,0,1,80,74.74a.58.58,0,0,0,1-.58,32.1,32.1,0,0,0-19.51-14.8.58.58,0,0,0-.31,1.12Z" transform="translate(0 0)"/></g><path class="cls-5" d="M48.56,58.92a.59.59,0,0,0,0-1.17.59.59,0,0,0,0,1.17Z" transform="translate(0 0)"/><path class="cls-5" d="M46.69,57.29A38.7,38.7,0,0,0,27.07,62c-.66.36-.07,1.37.59,1a37.47,37.47,0,0,1,19-4.58.58.58,0,0,0,0-1.16Z" transform="translate(0 0)"/><path class="cls-5" d="M41,64.82A81.09,81.09,0,0,1,17.89,75.94a.58.58,0,0,0,.31,1.12A82.32,82.32,0,0,0,41.63,65.83c.61-.43,0-1.44-.59-1Z" transform="translate(0 0)"/><g class="cls-7"><path class="cls-5" d="M57.58,62.8A23.49,23.49,0,0,1,67.85,73.07c.34.67,1.34.08,1-.59A24.59,24.59,0,0,0,58.17,61.79c-.67-.34-1.26.66-.59,1Z" transform="translate(0 0)"/></g><g class="cls-6"><path class="cls-5" d="M53.5,65.27A23.86,23.86,0,0,1,59.41,85.2c-.12.73,1,1,1.12.31a25.16,25.16,0,0,0-6.2-21.07c-.51-.55-1.33.28-.83.83Z" transform="translate(0 0)"/></g><path class="cls-5" d="M51.35,58.68a13.24,13.24,0,0,0-8.1,4.13c-.5.56.32,1.38.83.83a11.86,11.86,0,0,1,7.27-3.79.6.6,0,0,0,.58-.58.59.59,0,0,0-.58-.59Z" transform="translate(0 0)"/><path class="cls-5" d="M55.62,59.83A20.56,20.56,0,0,1,64,64.57c.55.51,1.37-.31.83-.82a21.81,21.81,0,0,0-8.88-5,.58.58,0,0,0-.31,1.12Z" transform="translate(0 0)"/><g class="cls-6"><path class="cls-5" d="M49.16,62.37a9.11,9.11,0,0,1-5.09,5.71.59.59,0,0,0-.21.8.62.62,0,0,0,.8.21,10.25,10.25,0,0,0,5.63-6.41.59.59,0,0,0-1.13-.31Z" transform="translate(0 0)"/></g><path class="cls-5" d="M52.52,57.05a9.19,9.19,0,0,0-4.72,1,.58.58,0,0,0,.58,1,8.25,8.25,0,0,1,4.14-.85.59.59,0,0,0,.58-.58.6.6,0,0,0-.58-.59Z" transform="translate(0 0)"/><g class="cls-6"><path class="cls-5" d="M35.51,56.82a20.21,20.21,0,0,0-12.4,3.57c-.61.43,0,1.44.59,1A19.06,19.06,0,0,1,35.51,58c.75,0,.75-1.13,0-1.17Z" transform="translate(0 0)"/></g><g class="cls-6"><path class="cls-5" d="M67,64.72A12.28,12.28,0,0,1,73,70a.59.59,0,0,0,1-.59,13.4,13.4,0,0,0-6.64-5.85.58.58,0,0,0-.71.4.6.6,0,0,0,.4.72Z" transform="translate(0 0)"/></g><g class="cls-6"><path class="cls-5" d="M74.72,65.19a10.88,10.88,0,0,1,5.1,3.57.57.57,0,0,0,.82,0,.58.58,0,0,0,0-.82A12,12,0,0,0,75,64.06c-.71-.24-1,.89-.31,1.13Z" transform="translate(0 0)"/></g><g class="cls-8"><path class="cls-5" d="M51,70.21a27.42,27.42,0,0,1-9.14,23.35c-.57.5.26,1.32.82.82a28.48,28.48,0,0,0,9.49-24.17c-.08-.73-1.24-.74-1.17,0Z" transform="translate(0 0)"/></g><g class="cls-8"><path class="cls-5" d="M23.81,64.12a60.7,60.7,0,0,1-22.3,6.21c-.74.06-.75,1.22,0,1.16A62.26,62.26,0,0,0,24.4,65.13c.67-.34.08-1.34-.59-1Z" transform="translate(0 0)"/></g></g><g id="highlight"><path class="cls-9" d="M48.82,56.56A32.84,32.84,0,0,1,55.16,58c.54.17.77-.67.24-.85a34.51,34.51,0,0,0-6.58-1.44.44.44,0,0,0-.44.43.46.46,0,0,0,.44.44Z" transform="translate(0 0)"/><path class="cls-9" d="M1,56.32a52.8,52.8,0,0,1,10.47-1.53c.56,0,.56-.92,0-.88A54.29,54.29,0,0,0,.74,55.48a.44.44,0,0,0,.23.84Z" transform="translate(0 0)"/><path class="cls-9" d="M57.19,58.73c.66.14,1.32.3,2,.49a.44.44,0,0,0,.54-.3.45.45,0,0,0-.3-.54c-.65-.19-1.3-.36-2-.49a.45.45,0,0,0-.54.31.43.43,0,0,0,.3.53Z" transform="translate(0 0)"/><path class="cls-9" d="M60.69,59.64l.58.16a.37.37,0,0,0,.18,0,.33.33,0,0,0,.16-.05.43.43,0,0,0,.12-.11.37.37,0,0,0,.08-.15.44.44,0,0,0,0-.34.5.5,0,0,0-.27-.2l-.57-.16a.56.56,0,0,0-.34,0,.34.34,0,0,0-.12.12.28.28,0,0,0-.08.15.42.42,0,0,0,0,.33.4.4,0,0,0,.26.2Z" transform="translate(0 0)"/><path class="cls-9" d="M64.19,60.81a4.18,4.18,0,0,1,.58.16.33.33,0,0,0,.17,0,.3.3,0,0,0,.16,0,.45.45,0,0,0,.13-.11.35.35,0,0,0,.07-.15.45.45,0,0,0,0-.34.52.52,0,0,0-.26-.2c-.19-.06-.39-.11-.58-.15a.44.44,0,0,0-.34,0,.32.32,0,0,0-.12.11.36.36,0,0,0-.08.15.45.45,0,0,0,0,.34.47.47,0,0,0,.26.2Z" transform="translate(0 0)"/><path class="cls-10" d="M73.37,64.47A26.35,26.35,0,0,1,77.66,67a11.09,11.09,0,0,1,3.19,3.75c.35.66,1.35.08,1-.59a12,12,0,0,0-3.38-4A27.14,27.14,0,0,0,74,63.46c-.67-.34-1.26.67-.59,1Z" transform="translate(0 0)"/></g><path class="cls-11" d="M56.18,89c-.36,0-.7,0-1.06,0A39.73,39.73,0,0,1,15.81,54.76l-.93.06A40.66,40.66,0,0,0,54.53,90Z" transform="translate(0 0)"/><path class="cls-12" d="M60,78.81a32.81,32.81,0,0,0,22.69-9.1l-.82-.51A31.94,31.94,0,0,1,29.24,54.59H29l-.77,0A33,33,0,0,0,60,78.81Z" transform="translate(0 0)"/><path class="cls-5" d="M59.78,69.14a24.11,24.11,0,0,0,13.77-4.31l-1-.45A23.21,23.21,0,0,1,39,55.31l-1.09-.11A24.2,24.2,0,0,0,59.78,69.14Z" transform="translate(0 0)"/><path class="cls-11" d="M2.86,56.14l-.92.16a50.76,50.76,0,0,0,8.28,23.11l1.9,1.1A49.79,49.79,0,0,1,2.86,56.14Z" transform="translate(0 0)"/><circle class="cls-13" cx="63.04" cy="38.28" r="9.46"/><g id="gem"><polygon class="cls-14" points="63.22 38.2 61.77 35.54 63.22 32.61 64.67 35.54 63.22 38.2"/><g class="cls-15"><path class="cls-10" d="M62.67,34l-.21.93a.59.59,0,0,0,.06.45.6.6,0,0,0,.34.27.64.64,0,0,0,.45-.06.56.56,0,0,0,.27-.35l.21-.93a.59.59,0,0,0-.41-.72.62.62,0,0,0-.44.06.56.56,0,0,0-.27.35Z" transform="translate(0 0)"/></g></g><circle id="left_arm" data-name="left arm" class="cls-16" cx="39.4" cy="58.32" r="6.06"/><path class="cls-16" d="M66.8,70.8c-3.64,1.29-2.63,5-2.91,7.69a8.6,8.6,0,0,0,1.85,6.22l8-4.6A9.65,9.65,0,0,0,74,77.82C74,74.43,70.44,69.51,66.8,70.8Z" transform="translate(0 0)"/><polygon id="clip_hexagon-2" data-name="clip_hexagon" class="cls-1" points="43.53 2.13 2.45 25.98 2.45 73.69 43.53 97.54 84.84 73.69 84.84 25.98 43.53 2.13"/><path class="cls-17" d="M34.76,73.17,21.65,71.91a11,11,0,0,0-11.11,6.48l27.4,15.9a11,11,0,0,0,6.73-9.11h0A11,11,0,0,0,34.76,73.17Z" transform="translate(0 0)"/><path class="cls-17" d="M35.14,69.13H21.6a11,11,0,0,0-10.88,9.36L32.54,91.16h2.6a11,11,0,1,0,0-22Z" transform="translate(0 0)"/><path class="cls-17" d="M30.93,51.43H26.14A17.82,17.82,0,0,0,8.32,69.25V70.4A12,12,0,0,1,15,81L28.12,88.6h2.81A17.81,17.81,0,0,0,48.74,70.78V69.25A17.81,17.81,0,0,0,30.93,51.43Z" transform="translate(0 0)"/><path class="cls-18" d="M21.29,76.62c-2.65,0-5,1.67-6.47,4.25l13.3,7.73h1.13a12.34,12.34,0,0,0,.08-1.5C29.33,81.31,25.73,76.62,21.29,76.62Z" transform="translate(0 0)"/><path class="cls-18" d="M42.37,81.22a11.84,11.84,0,0,1-6.28,2.86c-1.51.14-1.91-.23-2.4-1a.51.51,0,0,1-.06-.29,1.91,1.91,0,0,1,1.68-1.94,11.13,11.13,0,0,0,5.1-2.15,1.78,1.78,0,0,1,2.45-.17.79.79,0,0,1,.23.25C43.49,79.61,43.5,80.2,42.37,81.22Z" transform="translate(0 0)"/><path class="cls-19" d="M42.37,81a10.45,10.45,0,0,1-4,2.2,1.67,1.67,0,0,1-2.12-.87.62.62,0,0,1-.06-.26,1.64,1.64,0,0,1,1.39-1.74,6.19,6.19,0,0,0,3-1.55,1.59,1.59,0,0,1,2.12-.19.84.84,0,0,1,.21.21A1.49,1.49,0,0,1,42.37,81Z" transform="translate(0 0)"/><path class="cls-20" d="M42.37,81.22a11.84,11.84,0,0,1-6.28,2.86c-1.51.14-1.91-.23-2.4-1a.51.51,0,0,1-.06-.29,1.91,1.91,0,0,1,1.68-1.94,11.13,11.13,0,0,0,5.1-2.15,1.78,1.78,0,0,1,2.45-.17.79.79,0,0,1,.23.25C43.49,79.61,43.5,80.2,42.37,81.22Z" transform="translate(0 0)"/><g class="cls-21"><path class="cls-20" d="M22.93,56.82c-.19.59,1.8,1.55,3.79,4,4.23,5.12,7.58,14.67,7.35,17,0,.08-.09.29,0,.47.48.93,4.73.15,8-1.86,4-2.48,7.26-4.43,7.26-9.94,0-4.28-4.8-9.38-7.71-12.42A12.69,12.69,0,0,0,39,51.93a.62.62,0,0,0-.45-.23c-.48,0-.81,1-.89,1.16-.6,1.58-3.08,3.18-4.46,3.73-.81.32-1.24.28-8.91,0C23.7,56.57,23,56.55,22.93,56.82Z" transform="translate(0 0)"/></g><path class="cls-22" d="M17.5,76.9a7.84,7.84,0,0,1,8.6.74A10.48,10.48,0,0,1,29,81.32a15.86,15.86,0,0,1,1.18,5.35c.19,1.78,3.47.85,4.58.62,2.86-.62,6.22-2.05,8.18-4.31.49-.56-.33-1.39-.82-.82A13.09,13.09,0,0,1,37.83,85a15.63,15.63,0,0,1-4.53,1.33,11,11,0,0,1-1.81.13s-.36,0-.41,0c.33.34.16-.87.15-1a14,14,0,0,0-1.13-4.41,10.88,10.88,0,0,0-5.55-5.66,9.06,9.06,0,0,0-7.64.5c-.67.34-.08,1.35.59,1Z" transform="translate(0 0)"/><path class="cls-10" d="M39.41,56.39a14.48,14.48,0,0,1,5.2,6,14,14,0,0,1,1.28,8.77c-.13.73,1,1,1.12.31A15.3,15.3,0,0,0,45.73,62,15.53,15.53,0,0,0,40,55.39a.58.58,0,0,0-.58,1Z" transform="translate(0 0)"/><path class="cls-17" d="M42.67,41.14c0,9-1.87,17.9-16.28,17.9-11,0-16.21-3.27-16.21-17.9a16.25,16.25,0,0,1,32.49,0Z" transform="translate(0 0)"/><path class="cls-23" d="M44.36,38.65c0,9.13-8.09,10-17.7,10-6.17,0-10.23-7.31-10.23-11C16.43,27,25.33,24,27.59,24,36.55,24.11,44.36,29.87,44.36,38.65Z" transform="translate(0 0)"/><path class="cls-16" d="M18,49.18l-2.94-8.26a2.34,2.34,0,0,0-3-1.43L11,39.87a2.34,2.34,0,0,0-1.34,1.22,2.35,2.35,0,0,0-1.38,3l2.49,7a2.33,2.33,0,0,0,3,1.42h0a2.34,2.34,0,0,0,1.73.06l1.07-.38A2.34,2.34,0,0,0,18,49.18Z" transform="translate(0 0)"/><rect class="cls-16" x="11.52" y="24.68" width="2.1" height="17.7" rx="1.05"/><path class="cls-18" d="M32,54.1a11.76,11.76,0,0,1-6.9,0c-1.43-.49-1.65-1-1.77-1.93a.57.57,0,0,1,.07-.29,1.92,1.92,0,0,1,2.33-1.08,11.14,11.14,0,0,0,5.53.14,1.76,1.76,0,0,1,2.3.85.68.68,0,0,1,.11.32C33.65,53.09,33.42,53.64,32,54.1Z" transform="translate(0 0)"/><path class="cls-19" d="M32.06,53.92a10.4,10.4,0,0,1-4.55.37c-1.27-.29-1.44-.84-1.57-1.66a.53.53,0,0,1,0-.26,1.64,1.64,0,0,1,2-1,6.25,6.25,0,0,0,3.36-.19,1.59,1.59,0,0,1,2,.7.53.53,0,0,1,.1.28C33.48,53,33.33,53.64,32.06,53.92Z" transform="translate(0 0)"/><path class="cls-20" d="M32,54.1a11.76,11.76,0,0,1-6.9,0c-1.43-.49-1.65-1-1.77-1.93a.57.57,0,0,1,.07-.29,1.92,1.92,0,0,1,2.33-1.08,11.14,11.14,0,0,0,5.53.14,1.76,1.76,0,0,1,2.3.85.68.68,0,0,1,.11.32C33.65,53.09,33.42,53.64,32,54.1Z" transform="translate(0 0)"/><circle class="cls-24" cx="27.98" cy="52.93" r="0.76"/><circle class="cls-25" cx="30.08" cy="52.93" r="0.76"/><circle class="cls-5" cx="31.94" cy="52.23" r="0.76"/><path class="cls-10" d="M31.18,29.35l.32,0,.17,0c.24,0-.29,0,0,0s.75.12,1.12.21a10.22,10.22,0,0,1,2.67,1A7.17,7.17,0,0,1,38,32.8a6.12,6.12,0,0,1,.43.69c.07.13.13.26.19.39a.77.77,0,0,1,.07.16c0-.11,0-.1,0,0A10.77,10.77,0,0,1,39,35.13a1.18,1.18,0,0,0,1.43.82,1.19,1.19,0,0,0,.81-1.44c-.94-4.66-5.71-7.11-10.09-7.49a1.17,1.17,0,0,0,0,2.33Z" transform="translate(0 0)"/><path class="cls-10" d="M39.49,40.34l-.23,1.39a.84.84,0,0,0,0,.47.76.76,0,0,0,.14.43.8.8,0,0,0,.3.33.92.92,0,0,0,.39.21,1.23,1.23,0,0,0,.9-.12l.23-.18a1.1,1.1,0,0,0,.3-.52L41.74,41a.94.94,0,0,0,0-.47,1,1,0,0,0-.14-.43.8.8,0,0,0-.3-.33.9.9,0,0,0-.4-.21,1.2,1.2,0,0,0-.89.12l-.24.18a1.29,1.29,0,0,0-.3.52Z" transform="translate(0 0)"/><g class="cls-26"><path class="cls-5" d="M28.29,25.37c.29,1.87-1.43,3.34-2.81,7.12-1.21,3.31-.37,5.44,2.32,7.69,3.78,3.15,8.48,5.62,11.58,4.66a2,2,0,0,1,1.59,0c1.32.72,1.34,3.64.9,5C40.36,54.37,27.51,58,18.79,52.53c-7.85-5-11.52-16.78-7-23.53a13.71,13.71,0,0,1,12.45-5.66C24.45,23.37,28.06,23.89,28.29,25.37Z" transform="translate(0 0)"/></g><path class="cls-23" d="M69.81,81.64c-1.92.09-2.13-2.64-2-4s-1.54-4.51.22-5.13,4,1.84,4.21,3.76S71.74,81.56,69.81,81.64Z" transform="translate(0 0)"/><path class="cls-10" d="M68.81,74.27a3.27,3.27,0,0,1,.75.42l-.12-.09a1.93,1.93,0,0,1,.35.35l-.09-.12a2.64,2.64,0,0,1,.29.49l-.06-.14a2.85,2.85,0,0,1,.14.5.63.63,0,0,0,.27.35.64.64,0,0,0,.45.06.59.59,0,0,0,.35-.27.69.69,0,0,0,.06-.45,2.87,2.87,0,0,0-.63-1.3,3.16,3.16,0,0,0-1.17-.81A.7.7,0,0,0,69,73.2a.63.63,0,0,0-.35.27.58.58,0,0,0,.21.8Z" transform="translate(0 0)"/><path class="cls-22" d="M71.05,81.48a2.44,2.44,0,0,1-2.26.21A2.13,2.13,0,0,1,68,81c-.06-.09-.11-.18-.16-.27a1.38,1.38,0,0,1-.1-.24c0-.1-.07-.21-.1-.31l0-.16s0-.19,0-.11a.59.59,0,0,0-.58-.58.58.58,0,0,0-.58.58,3.62,3.62,0,0,0,1.73,2.8,2.87,2.87,0,0,0,1.65.35,5,5,0,0,0,1.79-.55.58.58,0,0,0-.59-1Z" transform="translate(0 0)"/><g id="outline"><path class="cls-27" d="M43.3.81.7,25.41V74.6L43.3,99.2,85.91,74.6V25.41ZM80.41,71.43,43.3,92.85,6.2,71.43V28.58L43.3,7.16,80.41,28.58Z" transform="translate(0 0)"/><text class="cls-28" transform="matrix(0.87, -0.5, 0.5, 0.87, 57.74, 88.85)">GI<tspan class="cls-29" x="4.71" y="0">T</tspan><tspan class="cls-30" x="7.14" y="0">C</tspan><tspan x="9.82" y="0">OIN</tspan></text><text class="cls-28" transform="matrix(0.87, -0.5, 0.5, 0.87, 16.52, 20.61)">GI<tspan class="cls-29" x="4.71" y="0">T</tspan><tspan class="cls-30" x="7.14" y="0">C</tspan><tspan x="9.82" y="0">OIN</tspan></text><polygon class="cls-2" points="0.01 24.99 6.88 28.99 6.89 71.02 0.01 74.98 0.01 24.99"/><polygon class="cls-2" points="86.54 24.99 79.67 28.99 79.67 71.02 86.54 74.98 86.54 24.99"/><g class="cls-31"><path class="cls-32" d="M43.3.81.7,25.41V74.6L43.3,99.2,85.91,74.6V25.41ZM80.41,71.43,43.3,92.85,6.2,71.43V28.58L43.3,7.16,80.41,28.58Z" transform="translate(0 0)"/></g><g class="cls-33"><path class="cls-32" d="M43.3.81.7,25.41V74.6L43.3,99.2,85.91,74.6V25.41ZM80.41,71.43,43.3,92.85,6.2,71.43V28.58L43.3,7.16,80.41,28.58Z" transform="translate(0 0)"/></g></g><circle id="antenna" class="cls-16" cx="12.45" cy="24.45" r="2.1"/><circle class="cls-16" cx="13.08" cy="65.07" r="7.29"/><g class="cls-34"><rect class="cls-20" x="10.9" y="70.14" width="54.47" height="7.25" rx="3.62" transform="translate(25.03 -8.23) rotate(18.25)"/></g><path class="cls-22" d="M9.93,59.13a6.63,6.63,0,0,0,3.55,12.49c.75,0,.75-1.21,0-1.16a5.48,5.48,0,0,1-3-10.33c.66-.35.08-1.36-.58-1Z" transform="translate(0 0)"/><rect class="cls-16" x="13.43" y="65.69" width="34.29" height="4.43" rx="2.21" transform="translate(6.7 -2.63) rotate(5.54)"/><rect class="cls-16" x="30.35" y="61.48" width="6.99" height="13.23" rx="3.49" transform="translate(-37.2 95.21) rotate(-84.46)"/><rect class="cls-16" x="42.02" y="55.21" width="27.76" height="2.45" rx="1.23" transform="translate(133.98 41.8) rotate(124.11)"/><circle class="cls-16" cx="63.4" cy="44.81" r="2.79"/><path class="cls-3" d="M63.21,43.93a1.07,1.07,0,0,1-.52-.14l-4.22-2.43a1,1,0,0,1-.44-.48l-.11-.25a1,1,0,0,1-.09-.42V35.84a1.06,1.06,0,0,1,2.11,0v3.6a.58.58,0,0,0,.29.51l2.9,1.66a.47.47,0,0,0,.29.08.6.6,0,0,0,.29-.08L66.56,40a.6.6,0,0,0,.29-.51V35.84a1,1,0,1,1,2.1,0v4.39a1,1,0,0,1-.07.38l-.09.23a1,1,0,0,1-.45.53l-4.2,2.42a1.07,1.07,0,0,1-.52.14Z" transform="translate(0 0)"/><path class="cls-20" d="M63.21,43.93a1.07,1.07,0,0,1-.52-.14l-4.22-2.43a1,1,0,0,1-.44-.48l-.11-.25a1,1,0,0,1-.09-.42V35.84a1.06,1.06,0,0,1,2.11,0v3.6a.58.58,0,0,0,.29.51l2.9,1.66a.47.47,0,0,0,.29.08.6.6,0,0,0,.29-.08L66.56,40a.6.6,0,0,0,.29-.51V35.84a1,1,0,1,1,2.1,0v4.39a1,1,0,0,1-.07.38l-.09.23a1,1,0,0,1-.45.53l-4.2,2.42a1.07,1.07,0,0,1-.52.14Z" transform="translate(0 0)"/><circle class="cls-16" cx="32.71" cy="68" r="3.49"/><circle class="cls-16" cx="35.04" cy="68.23" r="3.49"/><circle class="cls-16" cx="37.37" cy="68.47" r="3.49"/><rect class="cls-16" x="35.67" y="66.77" width="12" height="4.43" rx="2.21" transform="translate(6.86 -3.7) rotate(5.54)"/><circle class="cls-16" cx="45.23" cy="69.26" r="4.26"/><path class="cls-22" d="M41.8,69.8a3.81,3.81,0,0,0,4.91,3,.59.59,0,0,0-.31-1.13,2.79,2.79,0,0,1-.39.1h-.07l-.16,0h-.4a2.6,2.6,0,0,1-.87-.2,2.42,2.42,0,0,1-.39-.21l-.21-.14c.07,0-.07-.07-.09-.08a3.57,3.57,0,0,1-.27-.28s-.13-.17-.06-.07l-.1-.15a2.75,2.75,0,0,1-.17-.29.61.61,0,0,1-.07-.14s-.08-.17,0-.08,0-.06,0-.08a.56.56,0,0,1,0-.12l-.06-.2-.06-.25a.58.58,0,0,0-.71-.41.6.6,0,0,0-.41.72Z" transform="translate(0 0)"/><path class="cls-22" d="M15.11,68.13l11.18.93c.75.06.74-1.1,0-1.16L15.11,67c-.75-.06-.74,1.11,0,1.17Z" transform="translate(0 0)"/><path class="cls-22" d="M37.47,70.23l1.17.09.24,0H39a.59.59,0,0,1-.29-.07l-.12-.92h0l.26-.15c.24,0,.17,0,.08,0h-.15a.7.7,0,0,0-.61.16.52.52,0,0,0-.17.48.61.61,0,0,0,.28.43c.14.11.41.09.59.11l1.2.1a.58.58,0,0,0,.58-.58.6.6,0,0,0-.58-.59l-1.17-.1-.24,0h-.08a.57.57,0,0,1,.29.07l.12.92h0l-.26.15c-.24,0-.16,0-.07,0h.15a.71.71,0,0,0,.61-.16.55.55,0,0,0,.16-.49.62.62,0,0,0-.28-.42c-.14-.11-.41-.09-.59-.11l-1.2-.1a.59.59,0,0,0-.58.58.6.6,0,0,0,.58.59Z" transform="translate(0 0)"/></svg>