<svg id="Layer_1" data-name="Layer 1" xmlns="http://www.w3.org/2000/svg" viewBox="0 0 110.85 128"><defs><style><![CDATA[#ungu{will-change:transform;animation-delay:0;animation:flicker 3s infinite}@keyframes flicker{0%{opacity:1}100%{opacity:.1}}#hijau{will-change:transform;;animation-delay:1s;animation:flicker1 4s infinite}@keyframes flicker1{0%{opacity:1}100%{opacity:.1}}#pink{will-change:transform;;animation-delay:2s;animation:flicker2 5s infinite}@keyframes flicker2{0%{opacity:1}100%{opacity:.1}}.cls-1,.cls-26{fill:#f73786;}.cls-2{fill:#fff;}.cls-3{opacity:0.13;}.cls-4{fill:#6a43b3;}.cls-5{fill:#f766a8;}.cls-6{fill:#fcbbf0;}.cls-12,.cls-22,.cls-23,.cls-7{fill:none;}.cls-7{stroke:#053e42;stroke-width:0.5px;}.cls-10,.cls-11,.cls-12,.cls-13,.cls-14,.cls-20,.cls-22,.cls-23,.cls-24,.cls-25,.cls-26,.cls-27,.cls-28,.cls-29,.cls-30,.cls-31,.cls-33,.cls-35,.cls-7{stroke-miterlimit:10;}.cls-14,.cls-8{fill:#12c990;}.cls-9{fill:#9760ff;}.cls-10,.cls-16{fill:#262626;}.cls-10,.cls-27,.cls-30{stroke:#c1c1c1;}.cls-10,.cls-24,.cls-27,.cls-30{stroke-width:0.05px;}.cls-11,.cls-20{fill:#ededed;}.cls-11,.cls-12,.cls-13,.cls-14,.cls-25,.cls-26,.cls-28,.cls-29,.cls-33,.cls-35{stroke:#282828;}.cls-11,.cls-13,.cls-14,.cls-20,.cls-22,.cls-23,.cls-25,.cls-26,.cls-28,.cls-29,.cls-31,.cls-33,.cls-35{stroke-width:0.1px;}.cls-12{stroke-width:0.25px;}.cls-13{fill:#23e2ab;}.cls-15{fill:#282828;}.cls-17{fill:#f9f9f9;}.cls-18{fill:#272828;}.cls-19,.cls-33{fill:#2b2b2b;}.cls-20,.cls-22,.cls-31{stroke:#2b2b2b;}.cls-21{fill:#3d3d3d;}.cls-23{stroke:#b7b7b7;}.cls-24{fill:#e5e5e5;stroke:#00150a;}.cls-25{fill:#f7f7f7;}.cls-27{fill:#353535;}.cls-28,.cls-31{fill:#f7f5f5;}.cls-29{fill:#f2f2f2;}.cls-30{fill:#303030;}.cls-32{fill:#e8e6e8;}.cls-34{fill:#f42c87;}.cls-35{fill:#f21479;}]]></style></defs><title>bot_edition_robot_learning_to_love</title><g id="layout"><g id="Layer_63" data-name="Layer 63"><polygon class="cls-1" points="110.85 32 110.85 96 55.43 128 11.08 102.4 10.88 102.28 0 96 0 32 55.43 0 110.85 32"/></g><g id="Layer_63-2" data-name="Layer 63-2"><polygon class="cls-2" points="101.42 37.42 101.42 90.56 55.41 117.12 9.39 90.56 9.39 37.42 55.41 10.86 101.42 37.42"/></g><g id="gitcoin"><path class="cls-2" d="M16.83,24.74l.94-.55a.37.37,0,0,1,.25,0,.28.28,0,0,1,.2.15.3.3,0,0,1,0,.26.3.3,0,0,1-.14.2l-.9.52a.34.34,0,0,0-.16.26L16.85,27a.62.62,0,0,0,.09.4L17.85,29a.34.34,0,0,0,.21.16.37.37,0,0,0,.25,0l1.15-.67a.3.3,0,0,0,.15-.2.28.28,0,0,0,0-.25l-.36-.62-.58.35a.37.37,0,0,1-.25,0,.28.28,0,0,1-.2-.15.32.32,0,0,1,0-.25.29.29,0,0,1,.16-.2l1.15-.67.69,1.18a1,1,0,0,1,.1.75.91.91,0,0,1-.46.59l-1.15.68a1,1,0,0,1-.76.1,1,1,0,0,1-.6-.46l-.91-1.57a1.37,1.37,0,0,1-.19-.84l.23-1.55a.75.75,0,0,1,.13-.36A.86.86,0,0,1,16.83,24.74Z"/><path class="cls-2" d="M19.64,23.11l2.3-1.33a.27.27,0,0,1,.25,0,.3.3,0,0,1,.2.15.35.35,0,0,1,0,.25.28.28,0,0,1-.15.2l-.86.5,1.95,3.35.86-.5a.29.29,0,0,1,.24,0,.32.32,0,0,1,.2.16.32.32,0,0,1,0,.25.38.38,0,0,1-.15.2l-2.3,1.33a.28.28,0,0,1-.25,0,.3.3,0,0,1-.2-.15.28.28,0,0,1,0-.25.3.3,0,0,1,.15-.2l.87-.5-1.94-3.35-.87.5a.31.31,0,0,1-.45-.12.32.32,0,0,1,0-.25A.3.3,0,0,1,19.64,23.11Z"/><path class="cls-2" d="M24,21.62l-.45-.76,2.87-1.67.45.78a.32.32,0,0,1-.12.44.34.34,0,0,1-.26,0,.3.3,0,0,1-.2-.15l-.12-.21-.57.34,2.1,3.63a.32.32,0,0,1,0,.25.38.38,0,0,1-.15.2.34.34,0,0,1-.26,0,.3.3,0,0,1-.2-.15L25,20.76l-.57.33.11.2a.32.32,0,0,1,0,.25.32.32,0,0,1-.16.2.29.29,0,0,1-.24,0A.32.32,0,0,1,24,21.62Z"/><path class="cls-2" d="M31.56,21.44l1-.6a.36.36,0,0,1,.25,0A.32.32,0,0,1,33,21a.36.36,0,0,1,0,.25.32.32,0,0,1-.16.2L31.85,22a1,1,0,0,1-.49.11.91.91,0,0,1-.47-.11l-1.39-.89a1.4,1.4,0,0,1-.46-.48,1.27,1.27,0,0,1-.19-.62l-.07-1.64a1,1,0,0,1,.12-.48.79.79,0,0,1,.3-.36l1.12-.65a.34.34,0,0,1,.45.12.32.32,0,0,1,0,.25.28.28,0,0,1-.15.2l-1.08.63a.3.3,0,0,0-.13.29l.05,1.54a.94.94,0,0,0,.12.37.9.9,0,0,0,.28.3l1.28.81A.33.33,0,0,0,31.56,21.44Z"/><path class="cls-2" d="M34.25,15.19l1.36.91a1.45,1.45,0,0,1,.65,1.13l.11,1.62a.81.81,0,0,1-.44.81.88.88,0,0,1-.47.11.85.85,0,0,1-.45-.13l-1.36-.9a1.65,1.65,0,0,1-.45-.49,1.41,1.41,0,0,1-.2-.64L32.89,16a.82.82,0,0,1,.44-.81A.8.8,0,0,1,34.25,15.19Zm-.71.79.11,1.53a1.17,1.17,0,0,0,.12.4,1,1,0,0,0,.29.31l1.31.86a.19.19,0,0,0,.23,0,.21.21,0,0,0,.11-.21l-.1-1.56a.92.92,0,0,0-.41-.71l-1.29-.85a.23.23,0,0,0-.25,0A.27.27,0,0,0,33.54,16Z"/><path class="cls-2" d="M36.36,13.41l2.3-1.34a.33.33,0,0,1,.24,0,.35.35,0,0,1,.2.15.34.34,0,0,1,0,.26.3.3,0,0,1-.15.2l-.86.5,1.94,3.35.86-.5a.32.32,0,0,1,.25,0,.32.32,0,0,1,.2.16.28.28,0,0,1,0,.25.29.29,0,0,1-.15.19L39,17.9a.29.29,0,0,1-.24,0,.28.28,0,0,1-.2-.15.32.32,0,0,1,0-.25.35.35,0,0,1,.16-.2l.87-.51-1.95-3.34-.87.5a.28.28,0,0,1-.25,0,.3.3,0,0,1-.2-.15.31.31,0,0,1,0-.25A.28.28,0,0,1,36.36,13.41Z"/><path class="cls-2" d="M43.29,9.77,45.73,14l-.77.45-3.55-2.6L43.27,15a.28.28,0,0,1,0,.25.3.3,0,0,1-.15.2.31.31,0,0,1-.25,0,.3.3,0,0,1-.2-.15l-2.44-4.21.75-.43,3.55,2.59-1.85-3.19a.39.39,0,0,1,0-.26.32.32,0,0,1,.16-.2.27.27,0,0,1,.25,0A.33.33,0,0,1,43.29,9.77Z"/></g><g id="Layer_63-3" data-name="Layer 63-3" class="cls-3"><path class="cls-4" d="M55.42,10.86l-46,26.57V90.56l46,26.57,46-26.57V37.43ZM99.72,89.5,55.54,115,11.36,89.5v-51L55.54,13,99.72,38.49Z"/></g><g id="Bbingkai"><path class="cls-5" d="M2.24,41H1.42v.82h.82Z"/><path class="cls-5" d="M7.93,40.75H6.74V42H7.93Z"/><path class="cls-5" d="M2.24,47H1.42v.82h.82Z"/><path class="cls-5" d="M5.16,62.7H4v1.2h1.2Z"/><path class="cls-5" d="M2.39,66.75H1.16V68h1.2Z"/><path class="cls-5" d="M2.08,33.09H1.56v.52h.52Z"/><path class="cls-5" d="M2.16,35h-.6v.6h.6Z"/><path class="cls-5" d="M5.16,34.73H3.94v1.18H5.16Z"/><path class="cls-5" d="M2.38,36.73H1.16v1.19H2.38Z"/><path class="cls-5" d="M2.16,39h-.6v.6h.6Z"/><path class="cls-5" d="M5.16,38.66H3.94v1.19H5.16Z"/><path class="cls-5" d="M7.66,39h-.6v.6h.6Z"/><path class="cls-5" d="M2.23,42.82H1.41v.82h.82Z"/><path class="cls-5" d="M5.16,42.68H3.94v1.18H5.16Z"/><path class="cls-5" d="M7.73,42.82H6.91v.82h.82Z"/><path class="cls-5" d="M2.38,44.61H1.16V45.8H2.38Z"/><path class="cls-5" d="M4.91,44.9H4.24v.67h.67Z"/><path class="cls-5" d="M5.16,46.61H3.94V47.8H5.16Z"/><path class="cls-5" d="M7.88,46.61H6.69V47.8H7.88Z"/><path class="cls-5" d="M2.38,48.62H1.16v1.19H2.38Z"/><path class="cls-5" d="M7.66,48.92h-.6v.59h.6Z"/><path class="cls-5" d="M5.16,50.55H3.94v1.19H5.16Z"/><path class="cls-5" d="M7.88,50.55H6.69v1.19H7.88Z"/><path class="cls-5" d="M2.38,52.56H1.16v1.19H2.38Z"/><path class="cls-5" d="M7.88,52.56H6.69v1.19H7.88Z"/><path class="cls-5" d="M2.38,54.56H1.16v1.19H2.38Z"/><path class="cls-5" d="M5.16,54.56H3.94v1.19H5.16Z"/><path class="cls-5" d="M2.38,56.49H1.16v1.19H2.38Z"/><path class="cls-5" d="M5.16,56.49H3.94v1.19H5.16Z"/><path class="cls-5" d="M7.88,56.49H6.69v1.19H7.88Z"/><path class="cls-5" d="M2.08,58.87H1.56v.52h.52Z"/><path class="cls-5" d="M2.38,60.51H1.16V61.7H2.38Z"/><path class="cls-5" d="M7.88,60.51H6.69V61.7H7.88Z"/><path class="cls-5" d="M2.16,62.81h-.6v.59h.6Z"/><path class="cls-5" d="M7.66,62.81h-.6v.59h.6Z"/><path class="cls-5" d="M2.38,64.44H1.16v1.19H2.38Z"/><path class="cls-5" d="M7.88,64.44H6.69v1.19H7.88Z"/><path class="cls-5" d="M5.16,66.45H3.94v1.19H5.16Z"/><path class="cls-5" d="M7.88,66.45H6.69v1.19H7.88Z"/><path class="cls-5" d="M2,68.83H1.64v.37H2Z"/><path class="cls-5" d="M7.88,68.38H6.69v1.19H7.88Z"/><path class="cls-5" d="M5.16,36.78H4V38h1.2Z"/><path class="cls-5" d="M7.93,36.78H6.74V38H7.93Z"/><path class="cls-5" d="M4.94,41H4.26v.67h.68Z"/><path class="cls-5" d="M7.93,44.72H6.74v1.2H7.93Z"/><path class="cls-5" d="M5.16,48.77H4V50h1.2Z"/><path class="cls-5" d="M2.16,51.09h-.6v.6h.6Z"/><path class="cls-5" d="M4.94,53H4.26v.68h.68Z"/><path class="cls-5" d="M7.71,55.06H7.16v.6h.6Z"/><path class="cls-5" d="M4.94,59H4.26v.67h.68Z"/><path class="cls-5" d="M7.93,58.73H6.74v1.2H7.93Z"/><path class="cls-5" d="M5.16,60.76H4V62h1.2Z"/><path class="cls-5" d="M5.16,64.73H4v1.2h1.2Z"/><path class="cls-5" d="M5.16,68.7H4v1.2h1.2Z"/><path class="cls-5" d="M5.31,79H4.16v1.25H5.31Z"/><path class="cls-5" d="M2.54,83.07H1.34v1.21h1.2Z"/><path class="cls-5" d="M2.53,70.89H1.34v1.18H2.53Z"/><path class="cls-5" d="M5.28,70.89H4.09v1.18H5.28Z"/><path class="cls-5" d="M2.53,72.82H1.34V74H2.53Z"/><path class="cls-5" d="M5.28,72.82H4.09V74H5.28Z"/><path class="cls-5" d="M8,72.82H6.84V74H8Z"/><path class="cls-5" d="M2.23,75.2H1.71v.52h.52Z"/><path class="cls-5" d="M2.53,76.83H1.34V78H2.53Z"/><path class="cls-5" d="M8,76.83H6.84V78H8Z"/><path class="cls-5" d="M2.31,79.13h-.6v.6h.6Z"/><path class="cls-5" d="M7.81,79.13h-.6v.6h.6Z"/><path class="cls-5" d="M2.53,80.77H1.34V82H2.53Z"/><path class="cls-5" d="M8,80.77H6.84V82H8Z"/><path class="cls-5" d="M5.28,82.77H4.09V84H5.28Z"/><path class="cls-5" d="M8,82.77H6.84V84H8Z"/><path class="cls-5" d="M2.16,85.15H1.79v.37h.37Z"/><path class="cls-5" d="M8,84.71H6.84v1.18H8Z"/><path class="cls-5" d="M7.86,71.39h-.6V72h.6Z"/><path class="cls-5" d="M5.09,75.28H4.41V76h.68Z"/><path class="cls-5" d="M8.09,75.06H6.89v1.22h1.2Z"/><path class="cls-5" d="M5.31,77.08H4.16v1.2H5.31Z"/><path class="cls-5" d="M5.31,81.05H4.16v1.23H5.31Z"/><path class="cls-5" d="M5.31,85H4.16v1.2H5.31Z"/><path class="cls-5" d="M2.7,87H1.51v1.19H2.7Z"/><path class="cls-5" d="M5.45,87H4.26v1.19H5.45Z"/><path class="cls-5" d="M2.7,88.88H1.51v1.19H2.7Z"/><path class="cls-5" d="M5.45,88.88H4.26v1.19H5.45Z"/><path class="cls-5" d="M8.16,88.88H7v1.19H8.16Z"/><path class="cls-5" d="M2.4,91.28H1.88v.52H2.4Z"/><path class="cls-5" d="M2.7,92.89H1.51v1.19H2.7Z"/><path class="cls-5" d="M8,87.45h-.6v.6H8Z"/><path class="cls-5" d="M5.26,91.34H4.58V92h.68Z"/><path class="cls-5" d="M8.25,91.12H7.06v1.16H8.25Z"/><path class="cls-5" d="M5.48,93.14H4.28v1.2h1.2Z"/><path class="cls-5" d="M108.85,87h.83v-.83h-.83Z"/><path class="cls-5" d="M103.16,87.18h1.2V86h-1.2Z"/><path class="cls-5" d="M108.85,81h.83v-.82h-.83Z"/><path class="cls-5" d="M105.93,65.28h1.23v-1.2H106Z"/><path class="cls-5" d="M108.7,61.19h1.2V60h-1.2Z"/><path class="cls-5" d="M109,94.84h.52v-.56H109Z"/><path class="cls-5" d="M108.93,92.91h.6v-.63h-.6Z"/><path class="cls-5" d="M106,93.21h1.2V92H106Z"/><path class="cls-5" d="M108.71,91.2h1.19V90h-1.19Z"/><path class="cls-5" d="M108.93,88.9h.6v-.62h-.6Z"/><path class="cls-5" d="M106,89.28h1.2v-1.2H106Z"/><path class="cls-5" d="M103.44,88.9H104v-.62h-.59Z"/><path class="cls-5" d="M108.86,85.11h.82v-.83h-.82Z"/><path class="cls-5" d="M106,85.28h1.2V84.07H106Z"/><path class="cls-5" d="M103.36,85.11h.8v-.83h-.82Z"/><path class="cls-5" d="M108.71,83.33h1.19V82.14h-1.19Z"/><path class="cls-5" d="M106.16,83h.66v-.67h-.66Z"/><path class="cls-5" d="M106,81.28h1.2V80.13H106Z"/><path class="cls-5" d="M103.21,81.28h1.19V80.13h-1.19Z"/><path class="cls-5" d="M108.71,79.28h1.19V78.13h-1.19Z"/><path class="cls-5" d="M103.44,79H104v-.6h-.59Z"/><path class="cls-5" d="M106,77.38h1.2V76.19H106Z"/><path class="cls-5" d="M103.21,77.38h1.19V76.19h-1.19Z"/><path class="cls-5" d="M108.71,75.38h1.19V74.19h-1.19Z"/><path class="cls-5" d="M103.21,75.38h1.19V74.19h-1.19Z"/><path class="cls-5" d="M108.71,73.37h1.19V72.18h-1.19Z"/><path class="cls-5" d="M106,73.37h1.2V72.18H106Z"/><path class="cls-5" d="M108.71,71.44h1.19V70.28h-1.19Z"/><path class="cls-5" d="M106,71.44h1.2V70.28H106Z"/><path class="cls-5" d="M103.21,71.44h1.19V70.28h-1.19Z"/><path class="cls-5" d="M109,69.06h.52v-.52H109Z"/><path class="cls-5" d="M108.71,67.43h1.19V66.28h-1.19Z"/><path class="cls-5" d="M103.21,67.43h1.19V66.28h-1.19Z"/><path class="cls-5" d="M108.93,65.12h.6v-.59h-.6Z"/><path class="cls-5" d="M103.44,65.12H104v-.59h-.59Z"/><path class="cls-5" d="M108.71,63.49h1.19V62.28h-1.19Z"/><path class="cls-5" d="M103.21,63.49h1.19V62.28h-1.19Z"/><path class="cls-5" d="M106,61.48h1.2v-1.2H106Z"/><path class="cls-5" d="M103.21,61.48h1.19v-1.2h-1.19Z"/><path class="cls-5" d="M109.08,59.11h.37v-.37h-.37Z"/><path class="cls-5" d="M103.21,59.55h1.19V58.36h-1.19Z"/><path class="cls-5" d="M105.93,91.15h1.23V90H106Z"/><path class="cls-5" d="M103.16,91.15h1.2V90h-1.2Z"/><path class="cls-5" d="M106.16,87h.68v-.68h-.68Z"/><path class="cls-5" d="M103.16,83.21h1.2V82h-1.2Z"/><path class="cls-5" d="M105.93,79.17h1.23V78H106Z"/><path class="cls-5" d="M108.93,76.84h.6v-.56h-.6Z"/><path class="cls-5" d="M106.16,75h.68v-.69h-.68Z"/><path class="cls-5" d="M103.38,72.87h.6v-.59h-.6Z"/><path class="cls-5" d="M106.16,69h.68v-.7h-.68Z"/><path class="cls-5" d="M103.16,69.2h1.2V68h-1.2Z"/><path class="cls-5" d="M105.93,67.18h1.23V66H106Z"/><path class="cls-5" d="M105.93,63.21h1.23V62H106Z"/><path class="cls-5" d="M105.93,59.28h1.23v-1.2H106Z"/><path class="cls-5" d="M105.78,48.91H107v-1.2h-1.2Z"/><path class="cls-5" d="M108.55,44.86h1.2v-1.2h-1.2Z"/><path class="cls-5" d="M108.56,57.05h1.19V55.86h-1.19Z"/><path class="cls-5" d="M105.81,57.05H107V55.86h-1.19Z"/><path class="cls-5" d="M108.56,55.12h1.19V53.93h-1.19Z"/><path class="cls-5" d="M105.81,55.12H107V53.93h-1.19Z"/><path class="cls-5" d="M103.06,55.12h1.19V53.93h-1.19Z"/><path class="cls-5" d="M108.86,52.74h.52v-.52h-.52Z"/><path class="cls-5" d="M108.56,51.1h1.19V49.92h-1.19Z"/><path class="cls-5" d="M103.06,51.1h1.19V49.92h-1.19Z"/><path class="cls-5" d="M108.78,48.8h.6v-.59h-.6Z"/><path class="cls-5" d="M103.29,48.8h.59v-.59h-.59Z"/><path class="cls-5" d="M108.56,47.17h1.19V46h-1.19Z"/><path class="cls-5" d="M103.06,47.17h1.19V46h-1.19Z"/><path class="cls-5" d="M105.81,45.16H107V44h-1.19Z"/><path class="cls-5" d="M103.06,45.16h1.19V44h-1.19Z"/><path class="cls-5" d="M108.93,42.78h.37v-.37h-.37Z"/><path class="cls-5" d="M103.06,43.28h1.19V42h-1.19Z"/><path class="cls-5" d="M103.23,56.55h.6V56h-.6Z"/><path class="cls-5" d="M106,52.65h.68V52H106Z"/><path class="cls-5" d="M103,52.88h1.2v-1.2H103Z"/><path class="cls-5" d="M105.78,50.86H107v-1.2h-1.2Z"/><path class="cls-5" d="M105.78,46.88H107V45.69h-1.2Z"/><path class="cls-5" d="M105.78,42.91H107v-1.2h-1.2Z"/><path class="cls-5" d="M108.39,41h1.19V39.8h-1.19Z"/><path class="cls-5" d="M105.64,41h1.19V39.8h-1.19Z"/><path class="cls-5" d="M108.39,39.06h1.19V37.87h-1.19Z"/><path class="cls-5" d="M105.64,39.06h1.19V37.87h-1.19Z"/><path class="cls-5" d="M102.89,39.06h1.19V37.87h-1.19Z"/><path class="cls-5" d="M108.69,36.68h.52v-.52h-.52Z"/><path class="cls-5" d="M108.39,35h1.19V33.85h-1.19Z"/><path class="cls-5" d="M103.06,40.49h.6v-.6h-.6Z"/><path class="cls-5" d="M105.83,36.59h.68v-.67h-.68Z"/><path class="cls-5" d="M101.76,29.12l.41-.72-.72-.4-.41.71Z"/><path class="cls-5" d="M99.16,34.18l.59-1-1-.59-.59,1Z"/><path class="cls-5" d="M96.55,26.16l.41-.72L96.24,25l-.41.72Z"/><path class="cls-5" d="M81.43,20.91l.59-1-1-.59-.59,1Z"/><path class="cls-5" d="M79.29,16.5l.59-1-1-.59-.6,1Z"/><path class="cls-5" d="M108.69,32.88l.26-.45-.45-.26-.26.46Z"/><path class="cls-5" d="M107,32l.29-.51-.52-.3-.29.52Z"/><path class="cls-5" d="M105.38,31.34l.59-1-1-.59-.59,1Z"/><path class="cls-5" d="M103.49,30l.29-.52-.51-.29-.3.51Z"/><path class="cls-5" d="M102.34,32.78l.59-1-1-.59-.59,1Z"/><path class="cls-5" d="M100.77,34.79l.29-.52-.51-.29-.3.51Z"/><path class="cls-5" d="M100.16,28.2l.4-.71-.71-.41-.4.71Z"/><path class="cls-5" d="M98.86,30.79l.58-1-1-.59-.59,1Z"/><path class="cls-5" d="M97.44,33l.4-.71-.68-.41-.4.71Z"/><path class="cls-5" d="M98.54,27.45l.58-1-1-.58-.59,1Z"/><path class="cls-5" d="M97,29.49l.33-.58-.58-.33-.33.58Z"/><path class="cls-5" d="M95.43,28.84l.59-1-1-.59-.59,1Z"/><path class="cls-5" d="M94.07,31.28l.59-1-1-.59-.59,1Z"/><path class="cls-5" d="M95.05,25.46l.59-1-1-.59-.58,1Z"/><path class="cls-5" d="M92.16,29.9l.3-.52-.52-.29-.29.52Z"/><path class="cls-5" d="M92,26.9l.59-1-1-.58-.59,1Z"/><path class="cls-5" d="M90.65,29.28l.59-1-1-.59-.59,1Z"/><path class="cls-5" d="M91.63,23.51l.58-1-1-.59-.59,1Z"/><path class="cls-5" d="M88.91,28.28l.59-1-1-.59-.59,1Z"/><path class="cls-5" d="M89.88,22.52l.59-1-1-.59-.59,1Z"/><path class="cls-5" d="M88.52,24.91l.59-1-1-.59-.59,1Z"/><path class="cls-5" d="M88.16,21.57l.59-1-1-.58-.59,1Z"/><path class="cls-5" d="M86.84,24l.59-1-1-.58-.59,1Z"/><path class="cls-5" d="M85.49,26.35l.58-1-1-.59-.59,1Z"/><path class="cls-5" d="M86.28,20.13l.26-.45-.45-.26-.26.46Z"/><path class="cls-5" d="M84.72,19.58l.58-1-1-.59-.59,1Z"/><path class="cls-5" d="M82,24.36l.59-1-1-.59-.58,1Z"/><path class="cls-5" d="M82.83,18.28l.29-.52-.52-.29-.29.52Z"/><path class="cls-5" d="M80.16,23l.29-.52-.52-.29-.29.51Z"/><path class="cls-5" d="M81.29,17.64l.59-1-1-.59-.59,1Z"/><path class="cls-5" d="M78.58,22.41l.58-1-1-.59-.59,1Z"/><path class="cls-5" d="M78.16,19l.59-1-1-.59-.59,1Z"/><path class="cls-5" d="M76.83,21.42l.59-1-1-.59-.59,1Z"/><path class="cls-5" d="M77.67,15.15l.18-.33-.32-.18-.18.32Z"/><path class="cls-5" d="M75.16,20.47l.59-1-1-.58-.59,1Z"/><path class="cls-5" d="M104.28,33.8l.59-1-1-.6-.59,1Z"/><path class="cls-5" d="M102.49,36.1l.59-1-1-.59-.59,1Z"/><path class="cls-5" d="M100.43,31.46l.33-.58-.59-.34-.33.59Z"/><path class="cls-5" d="M95.69,32.22l.59-1-1-.59-.59,1Z"/><path class="cls-5" d="M93.54,27.81l.6-1-1-.59-.59,1Z"/><path class="cls-5" d="M93,24.05l.29-.52-.52-.25-.29.52Z"/><path class="cls-5" d="M90,25.54l.33-.59-.58-.33-.34.58Z"/><path class="cls-5" d="M86.81,26.91l.3-.52-.52-.3-.3.52Z"/><path class="cls-5" d="M84.8,22.57l.33-.58-.58-.34-.34.59Z"/><path class="cls-5" d="M83.51,25.28l.59-1-1-.6-.59,1Z"/><path class="cls-5" d="M83.16,21.88l.6-1-1-.6-.6,1Z"/><path class="cls-5" d="M79.67,19.91l.6-1-1-.59-.59,1Z"/><path class="cls-5" d="M76.22,18l.59-1-1-.59-.59,1Z"/><path class="cls-5" d="M67.16,13l.59-1-1-.59-.59,1Z"/><path class="cls-5" d="M65,8.56l.6-1-1-.59L64,8Z"/><path class="cls-5" d="M75.62,14.58l.59-1-1-.59-.59,1Z"/><path class="cls-5" d="M74.26,17l.59-1-1-.59-.59,1Z"/><path class="cls-5" d="M73.94,13.63l.59-1-1-.58-.59,1Z"/><path class="cls-5" d="M72.58,16l.59-1-1-.59-.59,1Z"/><path class="cls-5" d="M71.22,18.4l.59-1-1-.59-.59,1Z"/><path class="cls-5" d="M72,12.19l.26-.45-.45-.26-.26.45Z"/><path class="cls-5" d="M70.46,11.64l.58-1-1-.59-.59,1Z"/><path class="cls-5" d="M67.74,16.42l.58-1-1-.59-.59,1Z"/><path class="cls-5" d="M68.56,10.28l.3-.52-.52-.29-.29.52Z"/><path class="cls-5" d="M65.84,15.09l.3-.52-.52-.29-.29.51Z"/><path class="cls-5" d="M67,9.69l.59-1-1-.59L66,9.1Z"/><path class="cls-5" d="M64.31,14.47l.59-1-1-.59-.59,1Z"/><path class="cls-5" d="M63.93,11.09l.59-1-1-.59-.58,1Z"/><path class="cls-5" d="M62.57,13.48l.59-1-1-.59-.59,1Z"/><path class="cls-5" d="M63.41,7.2l.18-.32-.32-.18L63.08,7Z"/><path class="cls-5" d="M60.89,12.53l.59-1-1-.59-.59,1Z"/><path class="cls-5" d="M72.55,19l.3-.52-.52-.3-.3.52Z"/><path class="cls-5" d="M70.54,14.63l.33-.59-.59-.33L70,14.3Z"/><path class="cls-5" d="M69.25,17.35l.59-1.07-1-.59-.59,1Z"/><path class="cls-5" d="M68.86,13.94l.59-1-1-.59-.59,1Z"/><path class="cls-5" d="M65.41,12,66,11l-1-.59-.59,1Z"/><path class="cls-5" d="M62,10l.59-1-1-.6L61,9.46Z"/><path class="cls-5" d="M61.58,6.78l.59-1-1-.59-.59,1Z"/><path class="cls-5" d="M60.22,9.17l.59-1-1-.59-.59,1Z"/><path class="cls-5" d="M59.9,5.83l.59-1-1-.59-.58,1Z"/><path class="cls-5" d="M58.54,8.22l.59-1-1-.59-.58,1Z"/><path class="cls-5" d="M57.16,10.61l.59-1-1-.58-.58,1Z"/><path class="cls-5" d="M58,4.4l.26-.46-.46-.25-.25.45Z"/><path class="cls-5" d="M56.41,3.85l.59-1-1-.59-.59,1Z"/><path class="cls-5" d="M58.51,11.17l.29-.52-.52-.3-.29.52Z"/><path class="cls-5" d="M56.49,6.83l.34-.55-.59-.34-.33.59Z"/><path class="cls-5" d="M106.16,34.42l.33-.58-.58-.33-.33.58Z"/><path class="cls-5" d="M103.76,36.65l.2-.36-.36-.21-.2.36Z"/><path class="cls-5" d="M10.22,99.5l-.41.71.71.42.41-.71Z"/><path class="cls-5" d="M12.9,94.47l-.61,1,1,.6.6-1Z"/><path class="cls-5" d="M15.4,102.53l-.42.71.71.41.42-.71Z"/><path class="cls-5" d="M30.45,107.94l-.6,1,1,.6.61-1Z"/><path class="cls-5" d="M32.55,112.38l-.61,1,1,.61.6-1Z"/><path class="cls-5" d="M3.33,95.66l-.26.45.45.26.26-.45Z"/><path class="cls-5" d="M5,96.57l-.3.51.51.3.3-.51Z"/><path class="cls-5" d="M6.28,93.85l-.6,1,1,.6.6-1Z"/><path class="cls-5" d="M6.63,97.28l-.6,1,1,.6.6-1Z"/><path class="cls-5" d="M8.5,98.59l-.3.52.52.3.3-.52Z"/><path class="cls-5" d="M9.68,95.84l-.6,1,1,.6.6-1Z"/><path class="cls-5" d="M11.28,93.85l-.3.51.51.3.3-.51Z"/><path class="cls-5" d="M11.81,100.44l-.41.71.7.41.42-.71Z"/><path class="cls-5" d="M13.16,97.86l-.6,1,1,.6.6-1Z"/><path class="cls-5" d="M14.58,95.69l-.41.71.71.41.41-.7Z"/><path class="cls-5" d="M13.43,101.21l-.6,1,1,.6.6-1Z"/><path class="cls-5" d="M15,99.18l-.34.58.58.34.33-.58Z"/><path class="cls-5" d="M16.54,99.85l-.6,1,1,.6.6-1Z"/><path class="cls-5" d="M17.93,97.48l-.6,1,1,.6.6-1Z"/><path class="cls-5" d="M16.89,103.28l-.6,1,1,.6.6-1Z"/><path class="cls-5" d="M19.81,98.83l-.3.52.51.3.3-.52Z"/><path class="cls-5" d="M19.94,101.84l-.6,1,1,.6.6-1Z"/><path class="cls-5" d="M21.33,99.46l-.6,1,1,.6.6-1Z"/><path class="cls-5" d="M20.29,105.22l-.6,1,1,.6.6-1Z"/><path class="cls-5" d="M23.06,100.48l-.6,1,1,.6.6-1Z"/><path class="cls-5" d="M22,106.28l-.6,1,1,.6.6-1Z"/><path class="cls-5" d="M23.41,103.86l-.6,1,1,.6.6-1Z"/><path class="cls-5" d="M23.69,107.21l-.6,1,1,.6.6-1Z"/><path class="cls-5" d="M25.08,104.84l-.6,1,1,.6.6-1Z"/><path class="cls-5" d="M26.46,102.46l-.6,1,1,.6.6-1Z"/><path class="cls-5" d="M25.59,108.67l-.26.45.45.26.26-.45Z"/><path class="cls-5" d="M27.16,109.28l-.6,1,1,.6.6-1Z"/><path class="cls-5" d="M29.93,104.49l-.6,1,1,.6.6-1Z"/><path class="cls-5" d="M29,110.59l-.3.51.51.3.3-.51Z"/><path class="cls-5" d="M31.8,105.84l-.3.52.52.3.3-.52Z"/><path class="cls-5" d="M30.55,111.22l-.6,1,1,.6.6-1Z"/><path class="cls-5" d="M33.33,106.48l-.6,1,1,.6.6-1Z"/><path class="cls-5" d="M33.67,109.86l-.6,1,1,.6.6-1Z"/><path class="cls-5" d="M35.06,107.49l-.6,1,1,.6.6-1Z"/><path class="cls-5" d="M34.16,113.75l-.19.33.32.18.19-.32Z"/><path class="cls-5" d="M36.73,108.46l-.6,1,1,.6.6-1Z"/><path class="cls-5" d="M8.07,94.86l-.6,1,1,.6.61-1Z"/><path class="cls-5" d="M9.47,92.47l-.6,1,1,.61.61-1Z"/><path class="cls-5" d="M11.58,97.17l-.34.59.58.34.34-.59Z"/><path class="cls-5" d="M16.33,96.48l-.61,1,1,.61.6-1Z"/><path class="cls-5" d="M18.42,100.91l-.6,1,1,.6.61-1Z"/><path class="cls-5" d="M18.92,104.67l-.31.52.52.3.3-.52Z"/><path class="cls-5" d="M21.93,103.22l-.34.58.58.34.34-.58Z"/><path class="cls-5" d="M25.16,101.89l-.3.51.52.31.3-.52Z"/><path class="cls-5" d="M27.16,106.28l-.34.58.58.34.34-.58Z"/><path class="cls-5" d="M28.42,103.55l-.6,1,1,.6.61-1Z"/><path class="cls-5" d="M28.77,107l-.6,1,1,.61.61-1Z"/><path class="cls-5" d="M32.16,109l-.61,1,1,.6.6-1Z"/><path class="cls-5" d="M35.63,111,35,112l1,.61.6-1Z"/><path class="cls-5" d="M44.62,116.05l-.6,1,1,.61.61-1Z"/><path class="cls-5" d="M46.72,120.48l-.61,1,1,.6.6-1Z"/><path class="cls-5" d="M36.16,114.34l-.6,1,1,.6.6-1Z"/><path class="cls-5" d="M37.58,112l-.6,1,1,.6.6-1Z"/><path class="cls-5" d="M37.86,115.28l-.6,1,1,.6.6-1Z"/><path class="cls-5" d="M39.24,112.94l-.6,1,1,.6.6-1Z"/><path class="cls-5" d="M40.63,110.57l-.6,1,1,.6.6-1Z"/><path class="cls-5" d="M39.76,116.77l-.26.45.45.26.26-.44Z"/><path class="cls-5" d="M41.32,117.34l-.6,1,1,.6.6-1Z"/><path class="cls-5" d="M44.1,112.59l-.6,1,1,.6.6-1Z"/><path class="cls-5" d="M43.16,118.7l-.3.51.51.3.3-.51Z"/><path class="cls-5" d="M46,114l-.3.51.51.3.3-.51Z"/><path class="cls-5" d="M44.72,119.33l-.6,1,1,.6.6-1Z"/><path class="cls-5" d="M47.5,114.58l-.6,1,1,.6.6-1Z"/><path class="cls-5" d="M47.84,118l-.6,1,1,.6.6-1Z"/><path class="cls-5" d="M49.23,115.59l-.6,1,1,.6.6-1Z"/><path class="cls-5" d="M48.32,121.86l-.19.32.32.19.19-.32Z"/><path class="cls-5" d="M50.89,116.57l-.6,1,1,.6.6-1Z"/><path class="cls-5" d="M39.31,110l-.3.52.51.3.31-.51Z"/><path class="cls-5" d="M41.27,114.35l-.34.58.59.34.34-.58Z"/><path class="cls-5" d="M42.59,111.65l-.6,1,1,.6.61-1Z"/><path class="cls-5" d="M42.94,115.07l-.6,1,1,.6.61-1Z"/><path class="cls-5" d="M46.37,117.07l-.61,1,1,.61.6-1Z"/><path class="cls-5" d="M49.8,119.07l-.61,1,1,.6.6-1Z"/><path class="cls-5" d="M50.16,122.28l-.6,1,1,.6.6-1Z"/><path class="cls-5" d="M51.53,119.93l-.6,1,1,.6.6-1Z"/><path class="cls-5" d="M51.81,123.28l-.6,1,1,.6.6-1Z"/><path class="cls-5" d="M53.16,120.9l-.6,1,1,.6.6-1Z"/><path class="cls-5" d="M54.58,118.53l-.6,1,1,.59.6-1Z"/><path class="cls-5" d="M53.71,124.73l-.26.45.45.26.26-.45Z"/><path class="cls-5" d="M55.27,125.28l-.6,1,1,.6.6-1Z"/><path class="cls-5" d="M53.26,118l-.3.52.52.3.3-.52Z"/><path class="cls-5" d="M55.23,122.28l-.34.58.58.34.34-.58Z"/></g><path class="cls-6" d="M89.34,61.39c-1,6.81-4.85,11-11.93,18.71-8.54,9.32-14.47,15.8-22.3,15.52-5.84-.21-10.72-5.24-20.46-15.3C26.23,71.64,22,67.3,20.89,61.39a71.5,71.5,0,0,1-1.06-7.26,13.28,13.28,0,0,1,.11-2s.08-.51.19-1c.21-.85.71-3,1.95-3.93.62-.48,1-.31,5.3-.27s4.17,0,4.44,0a5,5,0,0,0,2.15,0c.78-.18,1.7-.63,1.65-.89s-2.5-.25-7-.12c-3.58.1-5.37.15-5.76-.52-1-1.72,3.42-7.82,9.68-9.73a15.65,15.65,0,0,1,11.07.84c6.55,3.24,7.27,10.29,10.44,10s2.83-7.46,8.64-11.29c4.74-3.12,10.48-1.94,11.18-1.78C84,35.69,91.1,49.79,89.34,61.39Z"/><g id="trees"><line class="cls-7" x1="55.24" y1="73.39" x2="55.24" y2="87.14"/><line class="cls-7" x1="56.74" y1="73.44" x2="56.74" y2="93.47"/><line class="cls-7" x1="53.59" y1="72.41" x2="53.59" y2="88.55"/><line class="cls-7" x1="58.41" y1="58.37" x2="58.41" y2="87.57"/><line class="cls-7" x1="59.67" y1="56.26" x2="59.67" y2="68.62"/><line class="cls-7" x1="59.93" y1="73.39" x2="59.93" y2="88.27"/><line class="cls-7" x1="57.72" y1="41.94" x2="57.72" y2="58.37"/><line class="cls-7" x1="55.52" y1="45.03" x2="55.52" y2="65.25"/><line class="cls-7" x1="53.87" y1="32.54" x2="53.87" y2="41.66"/><line class="cls-7" x1="55.93" y1="23.97" x2="55.93" y2="31.28"/><line class="cls-7" x1="64.48" y1="27.78" x2="68.7" y2="32.05"/><line class="cls-7" x1="62.28" y1="38.57" x2="70" y2="30.72"/><line class="cls-7" x1="72.76" y1="30.87" x2="67.86" y2="35.85"/><line class="cls-7" x1="60.63" y1="30.3" x2="55.86" y2="35.13"/><line class="cls-7" x1="54.83" y1="30.58" x2="57.66" y2="33.46"/><line class="cls-7" x1="64.48" y1="32.26" x2="58.56" y2="32.26"/><line class="cls-7" x1="72.22" y1="35.92" x2="72.22" y2="43.9"/><line class="cls-7" x1="74.71" y1="31.13" x2="74.71" y2="37.59"/><line class="cls-7" x1="72.76" y1="37.74" x2="77.88" y2="37.74"/><line class="cls-7" x1="84.51" y1="38.86" x2="80.77" y2="38.86"/><line class="cls-7" x1="81.32" y1="41.53" x2="74" y2="41.53"/><line class="cls-7" x1="79.8" y1="44.34" x2="66.43" y2="44.34"/><line class="cls-7" x1="66.97" y1="40.96" x2="57.72" y2="50.37"/><line class="cls-7" x1="62.15" y1="36.33" x2="62.15" y2="42.09"/><line class="cls-7" x1="64.21" y1="40.12" x2="60.97" y2="43.42"/><line class="cls-7" x1="60.91" y1="46.99" x2="60.91" y2="41.81"/><line class="cls-7" x1="65.19" y1="43.36" x2="68.63" y2="46.86"/><line class="cls-7" x1="59.93" y1="48.41" x2="62.21" y2="50.71"/><line class="cls-7" x1="66.15" y1="49.1" x2="60.48" y2="49.1"/><line class="cls-7" x1="86.99" y1="46.16" x2="79.26" y2="46.16"/><line class="cls-7" x1="76.5" y1="49.52" x2="79.52" y2="46.45"/><line class="cls-7" x1="73.19" y1="49.39" x2="79.67" y2="49.39"/><line class="cls-7" x1="78.01" y1="54.58" x2="73.04" y2="49.52"/><line class="cls-7" x1="81.32" y1="51.21" x2="73.6" y2="59.07"/><line class="cls-7" x1="84.91" y1="54.15" x2="78.84" y2="54.15"/><line class="cls-7" x1="72.08" y1="39.55" x2="74" y2="41.53"/><line class="cls-7" x1="80.77" y1="38.86" x2="78.43" y2="41.25"/><line class="cls-7" x1="66.15" y1="34.5" x2="68.48" y2="36.9"/><line class="cls-7" x1="67.52" y1="49.95" x2="58.83" y2="58.79"/><line class="cls-7" x1="67.67" y1="54.3" x2="63.52" y2="54.3"/><line class="cls-7" x1="74.98" y1="51.49" x2="66.15" y2="51.49"/><line class="cls-7" x1="81.19" y1="59.07" x2="69.87" y2="59.07"/><line class="cls-7" x1="61.59" y1="61.31" x2="61.59" y2="73.67"/><line class="cls-7" x1="69.32" y1="57.67" x2="61.87" y2="65.25"/><line class="cls-7" x1="71.8" y1="57.11" x2="68.48" y2="60.48"/><line class="cls-7" x1="69.32" y1="63.7" x2="61.59" y2="71.56"/><line class="cls-7" x1="77.19" y1="66.09" x2="67.39" y2="66.09"/><line class="cls-7" x1="69.73" y1="66.51" x2="69.73" y2="70.99"/><line class="cls-7" x1="72.08" y1="66.51" x2="76.01" y2="70.51"/><line class="cls-7" x1="82.02" y1="68.47" x2="74.28" y2="68.47"/><line class="cls-7" x1="87.95" y1="71.14" x2="80.77" y2="71.14"/><line class="cls-7" x1="78.43" y1="68.34" x2="81.19" y2="71.14"/><line class="cls-7" x1="81.6" y1="73.95" x2="75.67" y2="73.95"/><line class="cls-7" x1="79.52" y1="70.01" x2="75.87" y2="73.73"/><line class="cls-7" x1="70" y1="73.67" x2="59.93" y2="73.67"/><line class="cls-7" x1="64.48" y1="76.48" x2="64.48" y2="73.95"/><line class="cls-7" x1="73.47" y1="75.21" x2="64.35" y2="75.21"/><line class="cls-7" x1="67.52" y1="59.77" x2="69.19" y2="61.46"/><line class="cls-7" x1="75.25" y1="59.22" x2="80.29" y2="64.33"/><line class="cls-7" x1="86.99" y1="61.46" x2="77.6" y2="61.46"/><line class="cls-7" x1="84.23" y1="61.59" x2="84.23" y2="65.25"/><line class="cls-7" x1="89.19" y1="65.11" x2="84.23" y2="65.11"/><line class="cls-7" x1="57.59" y1="35.22" x2="54" y2="35.22"/><line class="cls-7" x1="61.45" y1="68.9" x2="58.56" y2="68.9"/><line class="cls-7" x1="58.56" y1="64.12" x2="56.63" y2="64.12"/><line class="cls-7" x1="59.39" y1="58.5" x2="57.59" y2="58.5"/><line class="cls-7" x1="47.37" y1="36.05" x2="54.62" y2="43.42"/><line class="cls-7" x1="53.87" y1="32.54" x2="53.87" y2="42.79"/><line class="cls-7" x1="51.52" y1="24.41" x2="51.52" y2="29.87"/><line class="cls-7" x1="53.59" y1="29.74" x2="49.72" y2="29.74"/><line class="cls-7" x1="49.72" y1="27.91" x2="49.72" y2="33.67"/><line class="cls-7" x1="46.96" y1="30.87" x2="53.72" y2="37.74"/><line class="cls-7" x1="47.11" y1="26.93" x2="41.16" y2="32.96"/><line class="cls-7" x1="42.83" y1="32.96" x2="40.07" y2="32.96"/><line class="cls-7" x1="39.79" y1="30.43" x2="39.79" y2="36.05"/><line class="cls-7" x1="41.57" y1="36.05" x2="37.03" y2="36.05"/><line class="cls-7" x1="37.03" y1="34.09" x2="37.03" y2="39.42"/><line class="cls-7" x1="33.16" y1="39.29" x2="43.64" y2="39.29"/><line class="cls-7" x1="43.64" y1="36.48" x2="43.79" y2="41.81"/><line class="cls-7" x1="50" y1="41.38" x2="43.64" y2="41.38"/><line class="cls-7" x1="55.52" y1="47.28" x2="49.59" y2="41.25"/><line class="cls-7" x1="40.75" y1="39.14" x2="37.85" y2="42.09"/><line class="cls-7" x1="28.2" y1="42.09" x2="37.85" y2="42.09"/><line class="cls-7" x1="30.53" y1="44.47" x2="40.61" y2="44.47"/><line class="cls-7" x1="37.99" y1="47.43" x2="40.75" y2="44.62"/><line class="cls-7" x1="47.92" y1="57.96" x2="36.67" y2="46.51"/><line class="cls-7" x1="50" y1="44.62" x2="42.4" y2="52.34"/><line class="cls-7" x1="42.83" y1="46.58" x2="45.72" y2="49.52"/><line class="cls-7" x1="47.52" y1="47.14" x2="50.13" y2="49.8"/><line class="cls-7" x1="49.87" y1="54.15" x2="49.87" y2="64.55"/><line class="cls-7" x1="53.17" y1="54.43" x2="50.13" y2="57.52"/><line class="cls-7" x1="46.4" y1="58.37" x2="49.72" y2="58.37"/><line class="cls-7" x1="53.59" y1="55.7" x2="53.59" y2="58.5"/><line class="cls-7" x1="42.27" y1="57.52" x2="54.41" y2="69.88"/><line class="cls-7" x1="52.35" y1="58.65" x2="55.52" y2="58.65"/><line class="cls-7" x1="54.41" y1="64.4" x2="54.41" y2="72.41"/><line class="cls-7" x1="55.65" y1="66.64" x2="55.65" y2="72.12"/><line class="cls-7" x1="53.17" y1="72.54" x2="56.35" y2="72.27"/><line class="cls-7" x1="50.83" y1="66.64" x2="39.92" y2="66.64"/><line class="cls-7" x1="48.61" y1="66.64" x2="48.61" y2="72.82"/><line class="cls-7" x1="51.52" y1="72.27" x2="51.52" y2="74.52"/><line class="cls-7" x1="49.87" y1="74.52" x2="53.31" y2="74.52"/><line class="cls-7" x1="46.68" y1="72.97" x2="51.65" y2="72.97"/><line class="cls-7" x1="44.33" y1="67.49" x2="39.37" y2="72.54"/><line class="cls-7" x1="45.31" y1="76.76" x2="48.97" y2="73.04"/><line class="cls-7" x1="38.68" y1="76.89" x2="45.31" y2="76.89"/><line class="cls-7" x1="40.48" y1="71.71" x2="45.16" y2="76.48"/><line class="cls-7" x1="44.61" y1="63.29" x2="47.52" y2="63.29"/><line class="cls-7" x1="43.79" y1="59.63" x2="34.81" y2="59.63"/><line class="cls-7" x1="37.31" y1="55.85" x2="37.31" y2="59.48"/><line class="cls-7" x1="41.16" y1="59.77" x2="33.78" y2="67.29"/><line class="cls-7" x1="25.99" y1="62.16" x2="38.68" y2="62.16"/><line class="cls-7" x1="27.08" y1="65.38" x2="35.51" y2="65.38"/><line class="cls-7" x1="22.95" y1="67.92" x2="30.96" y2="67.92"/><line class="cls-7" x1="32.2" y1="69.6" x2="30.4" y2="67.77"/><line class="cls-7" x1="41.03" y1="70.01" x2="25.99" y2="70.01"/><line class="cls-7" x1="35.51" y1="73.8" x2="35.51" y2="69.88"/><line class="cls-7" x1="30.12" y1="73.54" x2="35.51" y2="73.54"/><line class="cls-7" x1="39.24" y1="49.67" x2="35.23" y2="53.74"/><line class="cls-7" x1="27.08" y1="52.06" x2="36.75" y2="52.06"/><line class="cls-7" x1="27.23" y1="50.08" x2="31.77" y2="50.08"/><line class="cls-7" x1="33.72" y1="51.91" x2="30.96" y2="49.1"/><line class="cls-7" x1="22.95" y1="54.72" x2="31.36" y2="54.72"/><line class="cls-7" x1="29.44" y1="57.24" x2="37.44" y2="57.24"/><line class="cls-7" x1="31.36" y1="54.72" x2="31.36" y2="57.24"/><line class="cls-7" x1="22.68" y1="57.96" x2="25.71" y2="57.96"/><line class="cls-7" x1="29.84" y1="62.16" x2="25.78" y2="58.02"/><line class="cls-7" x1="56.48" y1="86.16" x2="49.72" y2="93.03"/><line class="cls-7" x1="63.8" y1="93.32" x2="56.63" y2="86.03"/><line class="cls-7" x1="59.93" y1="86.86" x2="59.93" y2="89.38"/><line class="cls-7" x1="63.8" y1="93.32" x2="49.31" y2="93.32"/><line class="cls-7" x1="62.15" y1="92.2" x2="56.63" y2="92.2"/><line class="cls-7" x1="61.04" y1="90.51" x2="56.63" y2="90.51"/><line class="cls-7" x1="53.17" y1="89.38" x2="56.48" y2="89.38"/><line class="cls-7" x1="51.52" y1="91.21" x2="56.76" y2="91.21"/><line class="cls-7" x1="42.4" y1="28.47" x2="43.99" y2="30.09"/><g id="pink"><path class="cls-1" d="M47.57,35.27s0-.22.15-.37a.4.4,0,0,1,.45-.14c.26.09.4.5.37.81a1.2,1.2,0,0,1-.36.64c-.2.24-.35.42-.57.43s-.43-.18-.6-.35a1.16,1.16,0,0,1-.4-.72s0-.53.23-.73a.39.39,0,0,1,.51,0C47.5,35,47.5,35.27,47.57,35.27Z"/><path class="cls-1" d="M64.37,31.68s0-.22.15-.38a.4.4,0,0,1,.45-.13c.27.09.4.5.37.8a1.11,1.11,0,0,1-.35.65c-.21.24-.35.41-.58.43s-.43-.18-.6-.35a1.19,1.19,0,0,1-.4-.73s0-.52.23-.73a.41.41,0,0,1,.51,0C64.3,31.41,64.3,31.68,64.37,31.68Z"/><path class="cls-1" d="M74.71,30.73c.05,0,0-.22.15-.38a.4.4,0,0,1,.45-.13.8.8,0,0,1,.37.8,1.1,1.1,0,0,1-.36.65c-.2.24-.35.41-.57.43s-.43-.18-.6-.36a1.14,1.14,0,0,1-.4-.72c0-.05,0-.52.23-.73a.41.41,0,0,1,.51,0C74.64,30.46,74.64,30.73,74.71,30.73Z"/><path class="cls-1" d="M55.52,44.22c.06,0,0-.22.15-.38a.4.4,0,0,1,.45-.13c.27.09.4.5.37.8a1.11,1.11,0,0,1-.35.65c-.2.24-.35.41-.57.43s-.44-.18-.61-.35a1.18,1.18,0,0,1-.39-.73.87.87,0,0,1,.22-.73.42.42,0,0,1,.51,0C55.46,44,55.46,44.22,55.52,44.22Z"/><path class="cls-1" d="M46.86,26.76s0-.21.15-.37a.4.4,0,0,1,.45-.13c.27.09.4.5.37.8a1.14,1.14,0,0,1-.35.65c-.21.24-.35.41-.58.43s-.43-.18-.6-.36a1.18,1.18,0,0,1-.4-.72s0-.52.23-.73a.41.41,0,0,1,.51,0C46.79,26.5,46.79,26.77,46.86,26.76Z"/><path class="cls-1" d="M32.86,38.57c.07,0,.09-.11.19-.2a.5.5,0,0,1,.45-.14.8.8,0,0,1,.37.81,1.11,1.11,0,0,1-.35.64c-.21.24-.35.42-.58.43s-.43-.17-.6-.35a1.21,1.21,0,0,1-.4-.72s0-.53.23-.73a.45.45,0,0,1,.51,0C32.79,38.42,32.79,38.57,32.86,38.57Z"/><path class="cls-1" d="M42.63,46.51c.06,0,.08-.1.18-.2a.53.53,0,0,1,.45-.14.8.8,0,0,1,.37.81,1.14,1.14,0,0,1-.35.65c-.2.23-.35.41-.57.43a.86.86,0,0,1-.61-.36,1.13,1.13,0,0,1-.39-.72.87.87,0,0,1,.22-.73.45.45,0,0,1,.51,0C42.55,46.37,42.55,46.51,42.63,46.51Z"/><path class="cls-1" d="M30.64,67.39c.07,0,.09-.1.19-.2a.52.52,0,0,1,.45-.14.8.8,0,0,1,.37.81,1.14,1.14,0,0,1-.35.65c-.21.23-.35.41-.58.43a.84.84,0,0,1-.6-.36,1.14,1.14,0,0,1-.4-.72s0-.52.23-.73a.45.45,0,0,1,.51,0C30.57,67.25,30.57,67.39,30.64,67.39Z"/><path class="cls-1" d="M68.48,46.55c.06,0,.08-.11.19-.21a.49.49,0,0,1,.45-.13c.26.09.39.5.36.8a1.11,1.11,0,0,1-.35.65c-.2.24-.35.41-.57.43s-.44-.18-.6-.35a1.19,1.19,0,0,1-.4-.73.85.85,0,0,1,.22-.72.45.45,0,0,1,.52,0C68.41,46.4,68.4,46.54,68.48,46.55Z"/><path class="cls-1" d="M86.55,45.5c.06,0,.09-.11.19-.21a.49.49,0,0,1,.45-.13.8.8,0,0,1,.37.8,1.19,1.19,0,0,1-.36.65c-.2.24-.35.41-.57.43s-.44-.18-.6-.35a1.19,1.19,0,0,1-.4-.73.89.89,0,0,1,.23-.73.45.45,0,0,1,.51,0C86.48,45.35,86.48,45.49,86.55,45.5Z"/><path class="cls-1" d="M87.44,70.6c.07,0,.09-.11.19-.21a.49.49,0,0,1,.45-.13c.27.09.4.5.37.8a1.11,1.11,0,0,1-.35.65c-.21.24-.35.41-.58.43s-.43-.18-.6-.35a1.24,1.24,0,0,1-.4-.73s0-.52.23-.72a.44.44,0,0,1,.51,0C87.37,70.45,87.37,70.59,87.44,70.6Z"/><path class="cls-1" d="M69.14,63.16c.06,0,.08-.11.19-.21a.49.49,0,0,1,.45-.13c.26.09.39.5.37.81a1.2,1.2,0,0,1-.36.64c-.2.24-.35.41-.57.43s-.44-.18-.6-.35a1.16,1.16,0,0,1-.4-.72.84.84,0,0,1,.23-.73.42.42,0,0,1,.51,0C69.07,63,69.07,63.15,69.14,63.16Z"/></g><g id="hijau"><path class="cls-8" d="M43.66,35.27c.06,0,0-.22.16-.37a.39.39,0,0,1,.44-.14c.27.09.4.5.37.81a1.11,1.11,0,0,1-.35.64c-.2.24-.35.42-.57.43s-.44-.18-.61-.35a1.15,1.15,0,0,1-.39-.72s-.05-.53.22-.73a.39.39,0,0,1,.51,0C43.6,35,43.6,35.27,43.66,35.27Z"/><path class="cls-8" d="M80.76,38.51c.06,0,0-.22.16-.37a.4.4,0,0,1,.45-.14.82.82,0,0,1,.37.81,1.2,1.2,0,0,1-.36.64c-.2.24-.35.42-.57.43a.78.78,0,0,1-.6-.35,1.16,1.16,0,0,1-.4-.72.85.85,0,0,1,.23-.73.39.39,0,0,1,.51,0C80.7,38.25,80.7,38.52,80.76,38.51Z"/><path class="cls-8" d="M62.12,35.74c.05,0,0-.22.15-.37a.4.4,0,0,1,.45-.14.8.8,0,0,1,.37.81,1.09,1.09,0,0,1-.35.64c-.2.24-.35.42-.57.44a.86.86,0,0,1-.61-.36,1.18,1.18,0,0,1-.4-.72s0-.53.23-.73a.39.39,0,0,1,.51,0C62.06,35.48,62.06,35.75,62.12,35.74Z"/><path class="cls-8" d="M50.23,49.43c.05,0,0-.22.15-.37a.4.4,0,0,1,.45-.14.82.82,0,0,1,.37.81,1.16,1.16,0,0,1-.36.64c-.2.24-.35.42-.57.43s-.43-.17-.6-.35a1.14,1.14,0,0,1-.4-.72s0-.53.23-.73A.39.39,0,0,1,50,49C50.16,49.17,50.16,49.44,50.23,49.43Z"/><path class="cls-8" d="M56,23.79c.06,0,0-.22.16-.38a.4.4,0,0,1,.45-.13.8.8,0,0,1,.37.8,1.19,1.19,0,0,1-.36.65c-.2.24-.35.41-.57.43s-.44-.18-.6-.35a1.19,1.19,0,0,1-.4-.73.83.83,0,0,1,.23-.72.41.41,0,0,1,.51,0C55.91,23.52,55.91,23.79,56,23.79Z"/><path class="cls-8" d="M39.76,30.3c.05,0,0-.21.15-.37a.42.42,0,0,1,.45-.14.82.82,0,0,1,.37.81,1.22,1.22,0,0,1-.36.65c-.2.24-.35.41-.57.43s-.43-.18-.6-.36a1.14,1.14,0,0,1-.4-.72c0-.05,0-.52.23-.73a.41.41,0,0,1,.51,0C39.69,30,39.69,30.31,39.76,30.3Z"/><path class="cls-8" d="M28,41.55c.07,0,.09-.11.19-.2a.5.5,0,0,1,.45-.14c.27.09.4.5.37.81a1.11,1.11,0,0,1-.35.64c-.21.24-.35.42-.58.43s-.43-.17-.6-.35a1.16,1.16,0,0,1-.4-.72c0-.05,0-.53.23-.73a.44.44,0,0,1,.51,0C27.91,41.4,27.91,41.54,28,41.55Z"/><path class="cls-8" d="M31.28,54.26c.07,0,.09-.11.19-.2a.5.5,0,0,1,.45-.14c.26.09.4.5.37.81a1.11,1.11,0,0,1-.35.64c-.21.24-.36.42-.58.43s-.43-.17-.6-.35a1.16,1.16,0,0,1-.4-.72s0-.53.23-.73a.45.45,0,0,1,.51,0C31.21,54.11,31.21,54.26,31.28,54.26Z"/><path class="cls-8" d="M40.12,66.17c.06,0,.09-.1.19-.2a.5.5,0,0,1,.45-.14.82.82,0,0,1,.37.81,1.16,1.16,0,0,1-.36.64c-.2.24-.35.42-.57.43a.78.78,0,0,1-.6-.35,1.16,1.16,0,0,1-.4-.72.85.85,0,0,1,.23-.73.45.45,0,0,1,.51,0C40.05,66,40.05,66.17,40.12,66.17Z"/><path class="cls-8" d="M30.3,73c.07,0,.09-.11.19-.2a.48.48,0,0,1,.45-.14c.27.09.4.5.37.81a1.11,1.11,0,0,1-.35.64c-.2.24-.35.41-.58.43s-.43-.18-.6-.35a1.21,1.21,0,0,1-.4-.72s0-.53.23-.73a.44.44,0,0,1,.51,0C30.23,72.86,30.23,73,30.3,73Z"/><path class="cls-8" d="M85,53.52c.07,0,.09-.11.19-.21a.5.5,0,0,1,.45-.13c.27.09.4.5.37.8a1.11,1.11,0,0,1-.35.65c-.2.24-.35.41-.58.43s-.43-.18-.6-.35a1.24,1.24,0,0,1-.4-.73s0-.52.23-.72a.44.44,0,0,1,.51,0C84.92,53.37,84.92,53.51,85,53.52Z"/><path class="cls-8" d="M72.93,74.67c.06,0,.08-.1.18-.2a.53.53,0,0,1,.45-.14.8.8,0,0,1,.37.81,1.09,1.09,0,0,1-.35.64c-.2.24-.35.42-.57.44a.86.86,0,0,1-.61-.36,1.13,1.13,0,0,1-.39-.72s-.05-.53.22-.73a.45.45,0,0,1,.51,0C72.85,74.53,72.85,74.67,72.93,74.67Z"/><path class="cls-8" d="M61.59,61.31c.07,0,.09-.1.19-.2a.5.5,0,0,1,.45-.14.8.8,0,0,1,.37.81,1.09,1.09,0,0,1-.35.64c-.21.24-.35.42-.58.43s-.43-.17-.6-.35a1.16,1.16,0,0,1-.4-.72c0-.05,0-.53.23-.73a.45.45,0,0,1,.51,0C61.52,61.16,61.52,61.31,61.59,61.31Z"/></g><g id="ungu"><path class="cls-9" d="M46.82,30.3c.06,0,0-.21.16-.37a.42.42,0,0,1,.45-.14.83.83,0,0,1,.37.81,1.22,1.22,0,0,1-.36.65c-.2.24-.35.41-.57.43s-.44-.18-.6-.36a1.14,1.14,0,0,1-.4-.72.85.85,0,0,1,.23-.73.41.41,0,0,1,.51,0C46.76,30,46.76,30.31,46.82,30.3Z"/><path class="cls-9" d="M64.61,27.37c.06,0,0-.22.16-.37a.4.4,0,0,1,.45-.14c.26.09.4.5.37.81a1.2,1.2,0,0,1-.36.64c-.2.24-.35.42-.57.43s-.43-.18-.6-.35a1.16,1.16,0,0,1-.4-.72.88.88,0,0,1,.23-.73.39.39,0,0,1,.51,0C64.55,27.11,64.55,27.37,64.61,27.37Z"/><path class="cls-9" d="M49.81,53.78c.06,0,0-.22.16-.37a.4.4,0,0,1,.45-.14.82.82,0,0,1,.37.81,1.2,1.2,0,0,1-.36.64c-.2.24-.35.42-.57.43a.78.78,0,0,1-.6-.35,1.16,1.16,0,0,1-.4-.72.85.85,0,0,1,.23-.73.39.39,0,0,1,.51,0C49.75,53.52,49.75,53.79,49.81,53.78Z"/><path class="cls-9" d="M30.26,43.91c.07,0,.09-.1.19-.2a.53.53,0,0,1,.45-.14.8.8,0,0,1,.37.81,1.09,1.09,0,0,1-.35.64c-.2.24-.35.42-.57.44a.86.86,0,0,1-.61-.36,1.18,1.18,0,0,1-.4-.72c0-.05,0-.53.23-.73a.45.45,0,0,1,.51,0C30.19,43.76,30.19,43.91,30.26,43.91Z"/><path class="cls-9" d="M36.28,51.45c.06,0,.08-.11.18-.2a.48.48,0,0,1,.45-.14c.27.09.4.5.37.81a1.11,1.11,0,0,1-.35.64c-.2.24-.35.42-.57.43s-.44-.18-.61-.35a1.21,1.21,0,0,1-.4-.72c0-.05,0-.53.23-.73a.44.44,0,0,1,.51,0C36.2,51.3,36.2,51.44,36.28,51.45Z"/><path class="cls-9" d="M38.71,76.3c.06,0,.08-.11.19-.2a.45.45,0,0,1,.44-.14c.27.09.4.5.37.81a1.11,1.11,0,0,1-.35.64c-.2.24-.35.42-.57.43s-.44-.18-.61-.35a1.2,1.2,0,0,1-.39-.72s0-.53.22-.73a.44.44,0,0,1,.51,0C38.63,76.15,38.63,76.29,38.71,76.3Z"/><path class="cls-9" d="M67.6,53.91c.07,0,.09-.1.19-.2a.52.52,0,0,1,.45-.14.8.8,0,0,1,.37.81,1.14,1.14,0,0,1-.35.65c-.21.23-.35.41-.58.43a.84.84,0,0,1-.6-.36,1.14,1.14,0,0,1-.4-.72c0-.05,0-.52.23-.73a.45.45,0,0,1,.51,0C67.53,53.77,67.53,53.91,67.6,53.91Z"/><path class="cls-9" d="M86.62,61c.06,0,.08-.1.19-.2a.5.5,0,0,1,.45-.14.83.83,0,0,1,.37.81,1.16,1.16,0,0,1-.36.64c-.2.24-.35.42-.57.43a.78.78,0,0,1-.6-.35,1.16,1.16,0,0,1-.4-.72.85.85,0,0,1,.23-.73.45.45,0,0,1,.51,0C86.55,60.88,86.55,61,86.62,61Z"/><path class="cls-9" d="M72.27,65.84c.07,0,.09-.1.19-.2a.5.5,0,0,1,.45-.14.8.8,0,0,1,.37.81,1.09,1.09,0,0,1-.35.64c-.21.24-.35.42-.58.43s-.43-.17-.6-.35a1.18,1.18,0,0,1-.4-.72s0-.53.23-.73a.45.45,0,0,1,.51,0C72.2,65.69,72.2,65.84,72.27,65.84Z"/></g></g><g id="robot"><g id="male"><g id="Rob"><g id="leher"><rect class="cls-10" x="52.43" y="75.39" width="2.8" height="0.66" rx="0.24" transform="translate(-31.52 39.03) rotate(-31.33)"/><rect class="cls-10" x="52.75" y="75.94" width="2.8" height="0.66" rx="0.24" transform="translate(-31.76 39.27) rotate(-31.33)"/><rect class="cls-10" x="53.09" y="76.48" width="2.8" height="0.66" rx="0.24" transform="translate(-31.99 39.53) rotate(-31.33)"/><rect class="cls-10" x="53.55" y="76.95" width="2.8" height="0.66" rx="0.24" transform="translate(-32.17 39.84) rotate(-31.33)"/><rect class="cls-10" x="53.99" y="77.43" width="2.8" height="0.66" rx="0.24" transform="translate(-32.35 40.13) rotate(-31.33)"/><rect class="cls-10" x="54.42" y="77.86" width="2.8" height="0.66" rx="0.24" transform="translate(-32.52 40.42) rotate(-31.33)"/></g><g id="leher-2" data-name="leher"><rect class="cls-10" x="54.79" y="78.34" width="2.8" height="0.66" rx="0.24" transform="translate(-32.71 40.69) rotate(-31.33)"/><rect class="cls-10" x="55.26" y="78.82" width="2.8" height="0.66" rx="0.24" transform="translate(-32.89 41) rotate(-31.33)"/><rect class="cls-10" x="55.62" y="79.32" width="2.8" height="0.66" rx="0.24" transform="translate(-32.18 39.18) rotate(-30)"/><rect class="cls-10" x="55.98" y="79.85" width="2.8" height="0.66" rx="0.24" transform="translate(-33.32 41.53) rotate(-31.33)"/></g><g id="leher-3" data-name="leher"><rect class="cls-10" x="28.56" y="76.42" width="2.8" height="0.66" rx="0.24"/><rect class="cls-10" x="28.55" y="77.06" width="2.8" height="0.66" rx="0.24"/><rect class="cls-10" x="28.56" y="77.69" width="2.8" height="0.66" rx="0.24"/><rect class="cls-10" x="28.56" y="78.33" width="2.8" height="0.66" rx="0.24"/><rect class="cls-10" x="28.55" y="78.97" width="2.8" height="0.66" rx="0.24"/><rect class="cls-10" x="28.56" y="79.6" width="2.8" height="0.66" rx="0.24"/></g><g id="leher-4" data-name="leher"><rect class="cls-10" x="28.51" y="78.92" width="2.8" height="0.66" rx="0.24"/><rect class="cls-10" x="28.51" y="80.18" width="2.8" height="0.66" rx="0.24"/><rect class="cls-10" x="28.51" y="80.83" width="2.8" height="0.66" rx="0.24"/><rect class="cls-10" x="28.5" y="81.46" width="2.8" height="0.66" rx="0.24"/><rect class="cls-10" x="28.51" y="82.1" width="2.8" height="0.66" rx="0.24"/></g><g id="telinga"><rect class="cls-11" x="31.31" y="62.1" width="2.25" height="3.52" rx="0.74"/><rect class="cls-11" x="50.61" y="62.05" width="2.25" height="3.52" rx="0.74"/><path class="cls-12" d="M50.7,64.78a1.13,1.13,0,0,0,1,.7,1.15,1.15,0,0,0,1.06-.7"/><path class="cls-12" d="M31.41,64.83a1.13,1.13,0,0,0,1,.7,1.15,1.15,0,0,0,1.07-.7"/></g><g id="telinga-2" data-name="telinga"><path class="cls-11" d="M31,76h.54a.85.85,0,0,0,.85-.85V73.38a.85.85,0,0,0-.85-.86l-.83.06a2.85,2.85,0,0,0-1.32.6,3,3,0,0,0-1,1.84l0,1Z"/><rect class="cls-13" x="28.35" y="76" width="3.97" height="0.55"/></g><g id="telinga-3" data-name="telinga"><path class="cls-11" d="M52.91,76h-.54a.85.85,0,0,1-.85-.85V73.38a.85.85,0,0,1,.85-.86l.83.06a2.85,2.85,0,0,1,1.32.6,3,3,0,0,1,1,1.84l0,1Z"/><rect class="cls-14" x="51.6" y="76" width="3.97" height="0.55" transform="translate(107.17 152.55) rotate(-180)"/></g><path class="cls-11" d="M51.3,65.25c0,4.46-18.35,4.46-18.35,0s4.11-8.07,9.17-8.07S51.3,60.79,51.3,65.25Z"/><rect class="cls-15" x="36.03" y="60.64" width="11.82" height="4.1" rx="1.46"/><circle class="cls-8" cx="45.44" cy="62.68" r="1.62"/><circle class="cls-8" cx="38.49" cy="62.68" r="1.62"/><circle class="cls-16" cx="38.97" cy="62.9" r="1.1"/><circle class="cls-16" cx="45.92" cy="62.9" r="1.1"/><ellipse class="cls-17" cx="39.34" cy="63.2" rx="0.37" ry="0.29"/><ellipse class="cls-17" cx="46.28" cy="63.2" rx="0.37" ry="0.29"/><path class="cls-18" d="M44,67.15a16.08,16.08,0,0,1-2,.13,15.57,15.57,0,0,1-2-.13c-.29,0-.52-.16-.52-.35s.23-.35.52-.35a14.65,14.65,0,0,0,1.93.13,13.93,13.93,0,0,0,2.1-.13c.29,0,.52.16.52.35S44.32,67.15,44,67.15Z"/><path class="cls-11" d="M49.7,85.87l-15.4-.08a1.34,1.34,0,0,1-1.25-.92,27.87,27.87,0,0,1-1.35-8.09,28.77,28.77,0,0,1,.14-3.31,1.33,1.33,0,0,1,1.32-1.2H50.93a1.34,1.34,0,0,1,1.32,1.27c0,1.07.06,2.22,0,3.43A36.2,36.2,0,0,1,51,84.9,1.31,1.31,0,0,1,49.7,85.87Z"/><g id="leher-5" data-name="leher"><rect class="cls-10" x="38.77" y="68.66" width="6.75" height="0.66" rx="0.24"/><rect class="cls-10" x="38.74" y="69.29" width="6.75" height="0.66" rx="0.24"/><rect class="cls-10" x="38.76" y="69.93" width="6.75" height="0.66" rx="0.24"/><rect class="cls-10" x="38.77" y="70.57" width="6.75" height="0.66" rx="0.24"/><rect class="cls-10" x="38.74" y="71.21" width="6.75" height="0.66" rx="0.24"/><rect class="cls-10" x="38.76" y="71.84" width="6.75" height="0.66" rx="0.24"/></g><rect class="cls-19" x="34.78" y="81.59" width="13.98" height="2.53" rx="0.57"/><rect class="cls-8" x="35.74" y="81.84" width="0.66" height="1.96"/><rect class="cls-8" x="36.9" y="81.84" width="0.66" height="1.96"/><rect class="cls-8" x="38.05" y="81.84" width="0.66" height="1.96"/><rect class="cls-8" x="39.21" y="81.84" width="0.66" height="1.96"/><rect class="cls-8" x="40.37" y="81.84" width="0.66" height="1.96"/><rect class="cls-8" x="41.53" y="81.84" width="0.66" height="1.96"/><rect class="cls-8" x="42.69" y="81.84" width="0.66" height="1.96"/><rect class="cls-8" x="43.85" y="81.84" width="0.66" height="1.96"/><rect class="cls-8" x="45" y="81.84" width="0.66" height="1.96"/><rect class="cls-8" x="46.16" y="81.84" width="0.66" height="1.96"/><rect class="cls-8" x="47.32" y="81.84" width="0.66" height="1.96"/><path class="cls-19" d="M43,81.51H40.33a9.35,9.35,0,0,0-1.17-2.24c-1-1.49-1.91-1.77-2.57-2.81a5.5,5.5,0,0,1-.48-4.12H47.34a5.56,5.56,0,0,1-.44,4c-.61,1-1.4,1.35-2.52,2.84A11.12,11.12,0,0,0,43,81.51Z"/><path class="cls-8" d="M42.51,81.43H40.87a11.86,11.86,0,0,0-.72-2C39.5,78,39,77.77,38.56,76.83a7.18,7.18,0,0,1-.3-3.76,2.18,2.18,0,0,1,1.64-.4c.88.2,1.12,1.11,1.76,1.06S42.3,73,43,72.67a2.52,2.52,0,0,1,2.2.4,6,6,0,0,1-.27,3.62c-.37,1-.86,1.23-1.55,2.59A13,13,0,0,0,42.51,81.43Z"/><ellipse class="cls-20" cx="31.7" cy="83.89" rx="0.46" ry="0.48"/><ellipse class="cls-20" cx="30.37" cy="85.31" rx="0.6" ry="0.36" transform="translate(-8.19 3.38) rotate(-5.61)"/><ellipse class="cls-20" cx="29.2" cy="85.14" rx="0.6" ry="0.36" transform="translate(-8.18 3.26) rotate(-5.61)"/><ellipse class="cls-20" cx="28.57" cy="84.59" rx="0.6" ry="0.37" transform="translate(-16.05 7.25) rotate(-11.32)"/><ellipse class="cls-20" cx="29.94" cy="83.92" rx="1.65" ry="1.3"/><ellipse class="cls-20" cx="56.52" cy="81.83" rx="0.46" ry="0.48" transform="matrix(0.95, -0.31, 0.31, 0.95, -22.31, 21.2)"/><ellipse class="cls-20" cx="58.21" cy="82.79" rx="0.6" ry="0.36" transform="translate(-16.17 14.16) rotate(-12.19)"/><ellipse class="cls-20" cx="59.28" cy="82.26" rx="0.6" ry="0.36" transform="translate(-16.04 14.38) rotate(-12.19)"/><ellipse class="cls-20" cx="59.71" cy="81.54" rx="0.6" ry="0.37" transform="translate(-8.82 7.26) rotate(-6.48)"/><ellipse class="cls-20" cx="58.2" cy="81.32" rx="1.65" ry="1.3" transform="translate(-22.07 21.69) rotate(-17.8)"/><path class="cls-20" d="M49.06,86.8l-14-.08-.15-.91H49.32Z"/><rect class="cls-10" x="35" y="86.52" width="14.09" height="0.66" rx="0.24"/><rect class="cls-10" x="35.26" y="87.17" width="13.58" height="0.66" rx="0.24"/><rect class="cls-10" x="35.5" y="87.83" width="13.07" height="0.66" rx="0.24"/><rect class="cls-10" x="35.77" y="88.51" width="12.52" height="0.66" rx="0.24"/><rect class="cls-10" x="35.99" y="89.19" width="12.04" height="0.66" rx="0.24"/><rect class="cls-10" x="36.22" y="89.89" width="11.51" height="0.66" rx="0.24"/><rect class="cls-10" x="36.42" y="90.53" width="11.09" height="0.66" rx="0.24"/><rect class="cls-10" x="36.62" y="91.19" width="10.67" height="0.66" rx="0.24"/><rect class="cls-10" x="36.84" y="91.88" width="10.22" height="0.66" rx="0.24"/><rect class="cls-10" x="37.02" y="92.56" width="9.83" height="0.66" rx="0.24"/><rect class="cls-10" x="37.13" y="93.22" width="9.52" height="0.66" rx="0.24"/><rect class="cls-10" x="37.31" y="93.86" width="9.18" height="0.66" rx="0.24"/><rect class="cls-10" x="37.47" y="94.52" width="8.83" height="0.66" rx="0.24"/><rect class="cls-10" x="37.65" y="95.2" width="8.46" height="0.66" rx="0.24"/><rect class="cls-10" x="37.8" y="95.88" width="8.14" height="0.66" rx="0.24"/><rect class="cls-21" x="38.13" y="98.87" width="2.72" height="0.94" rx="0.34"/><rect class="cls-21" x="43.3" y="98.87" width="2.72" height="0.94" rx="0.34"/><rect class="cls-20" x="35.85" y="96.56" width="12.04" height="2.75" rx="0.7"/><rect class="cls-19" x="33.26" y="51.35" width="0.2" height="11.06"/><rect class="cls-20" x="32.95" y="49.88" width="0.78" height="1.47" rx="0.16"/><path class="cls-22" d="M29.05,84.36a1.31,1.31,0,0,0,.49.34,1.42,1.42,0,0,0,1.13,0"/><path class="cls-22" d="M28.67,83.75a1,1,0,0,0,.12.33l0,0"/><path class="cls-22" d="M59.38,81a1,1,0,0,0-.26-.39,1.33,1.33,0,0,0-.88-.29"/><path class="cls-22" d="M59.49,81.52a.8.8,0,0,0,0-.27v0"/></g><line class="cls-23" x1="35.15" y1="66.47" x2="36.33" y2="65.29"/><line class="cls-23" x1="35.1" y1="65.96" x2="35.83" y2="65.23"/><line class="cls-23" x1="35.33" y1="85.27" x2="36.14" y2="84.46"/><line class="cls-23" x1="35.3" y1="84.92" x2="35.79" y2="84.42"/><line class="cls-23" x1="46.84" y1="85.27" x2="47.65" y2="84.46"/><line class="cls-23" x1="46.81" y1="84.92" x2="47.31" y2="84.42"/><line class="cls-23" x1="49.11" y1="74.44" x2="50.3" y2="73.26"/><line class="cls-23" x1="49.07" y1="73.93" x2="49.8" y2="73.2"/><line class="cls-23" x1="33.43" y1="74.84" x2="34.61" y2="73.65"/><line class="cls-23" x1="33.38" y1="74.33" x2="34.11" y2="73.6"/><line class="cls-23" x1="43.85" y1="98.26" x2="44.85" y2="97.25"/><line class="cls-23" x1="43.83" y1="97.84" x2="44.44" y2="97.22"/><line class="cls-23" x1="41.56" y1="98.34" x2="42.56" y2="97.33"/><line class="cls-23" x1="41.54" y1="97.92" x2="42.15" y2="97.3"/><line class="cls-23" x1="39.27" y1="98.42" x2="40.27" y2="97.42"/><line class="cls-23" x1="39.25" y1="98" x2="39.86" y2="97.38"/><line class="cls-23" x1="47.97" y1="66.46" x2="49.16" y2="65.28"/><line class="cls-23" x1="47.93" y1="65.95" x2="48.66" y2="65.22"/><path class="cls-23" d="M38.21,58.29a13.83,13.83,0,0,1,1.88-.38,15.06,15.06,0,0,1,2.31-.14"/><line class="cls-23" x1="44" y1="57.86" x2="43.29" y2="57.77"/><path class="cls-23" d="M41,58.45a4.28,4.28,0,0,1,.62-.16,4.23,4.23,0,0,1,1.45,0"/><path class="cls-22" d="M33.7,77.41A1.24,1.24,0,0,1,34,77a1.56,1.56,0,0,1,1-.36"/><path class="cls-22" d="M33.57,78.07a1.07,1.07,0,0,1,0-.32.11.11,0,0,0,0,0"/></g><g id="female"><g id="female-2" data-name="female"><path class="cls-24" d="M61.46,81.06"/><g id="Rob-2" data-name="Rob"><rect class="cls-19" x="73.25" y="57.11" width="0.15" height="4.62" transform="translate(146.65 118.84) rotate(-180)"/><rect class="cls-20" x="73.04" y="56.5" width="0.59" height="0.61" rx="0.21" transform="translate(146.67 113.61) rotate(180)"/><rect class="cls-19" x="66" y="57.11" width="0.15" height="4.62" transform="translate(132.15 118.84) rotate(-180)"/><rect class="cls-20" x="65.79" y="56.5" width="0.59" height="0.61" rx="0.21" transform="translate(132.17 113.61) rotate(-180)"/><ellipse class="cls-25" cx="69.74" cy="62.83" rx="3.76" ry="2.95"/><circle class="cls-26" cx="69.79" cy="63.29" r="2.43" transform="translate(-16.23 101.71) rotate(-66.27)"/><rect class="cls-25" x="60.2" y="61.71" width="19.18" height="7.03" rx="2.51"/><g id="leher-6" data-name="leher"><rect class="cls-27" x="77.17" y="75.66" width="1.4" height="0.58" rx="0.21" transform="translate(155.74 151.9) rotate(-180)"/><rect class="cls-27" x="77.18" y="76.22" width="1.4" height="0.58" rx="0.21" transform="translate(155.76 153.01) rotate(-180)"/><rect class="cls-27" x="77.18" y="76.77" width="1.4" height="0.58" rx="0.21" transform="translate(155.75 154.12) rotate(-180)"/><rect class="cls-27" x="77.17" y="77.33" width="1.4" height="0.58" rx="0.21" transform="translate(155.74 155.25) rotate(-180)"/><rect class="cls-27" x="77.18" y="77.89" width="1.4" height="0.58" rx="0.21" transform="translate(155.76 156.36) rotate(-180)"/><rect class="cls-27" x="77.18" y="78.44" width="1.4" height="0.58" rx="0.21" transform="translate(155.75 157.47) rotate(-180)"/></g><g id="leher-7" data-name="leher"><rect class="cls-27" x="77.2" y="77.85" width="1.4" height="0.58" rx="0.21" transform="translate(155.79 156.27) rotate(180)"/><rect class="cls-27" x="77.2" y="78.96" width="1.4" height="0.58" rx="0.21" transform="translate(155.8 158.49) rotate(180)"/><rect class="cls-27" x="77.2" y="79.52" width="1.4" height="0.58" rx="0.21" transform="translate(155.79 159.62) rotate(180)"/><rect class="cls-27" x="77.2" y="80.08" width="1.4" height="0.58" rx="0.21" transform="translate(155.8 160.73) rotate(180)"/><rect class="cls-27" x="77.2" y="80.63" width="1.4" height="0.58" rx="0.21" transform="translate(155.8 161.84) rotate(-180)"/></g><rect class="cls-26" x="65.92" y="72.6" width="7.08" height="2.09"/><g id="telinga-4" data-name="telinga"><path class="cls-28" d="M77.42,75.34h-.3c-.27,0-.48-.33-.48-.73V73.05c0-.4.21-.73.48-.73l.47.05a1.42,1.42,0,0,1,.73.51,3.16,3.16,0,0,1,.57,1.58l0,.84Z"/><rect class="cls-29" x="76.69" y="75.3" width="2.22" height="0.47" transform="translate(155.6 151.08) rotate(-180)"/></g><g id="leher-8" data-name="leher"><rect class="cls-30" x="60.47" y="75.21" width="1.4" height="0.58" rx="0.21" transform="translate(35.21 -18.14) rotate(23.52)"/><rect class="cls-30" x="60.25" y="75.72" width="1.4" height="0.58" rx="0.21" transform="translate(35.4 -18.01) rotate(23.52)"/><rect class="cls-30" x="60.03" y="76.23" width="1.4" height="0.58" rx="0.21" transform="translate(35.58 -17.88) rotate(23.52)"/><rect class="cls-30" x="59.81" y="76.74" width="1.4" height="0.58" rx="0.21" transform="translate(35.77 -17.75) rotate(23.52)"/><rect class="cls-30" x="59.58" y="77.25" width="1.4" height="0.58" rx="0.21" transform="translate(35.95 -17.61) rotate(23.52)"/><rect class="cls-30" x="59.36" y="77.76" width="1.4" height="0.58" rx="0.21" transform="translate(36.14 -17.48) rotate(23.52)"/></g><g id="leher-9" data-name="leher"><rect class="cls-30" x="59.58" y="77.2" width="1.4" height="0.58" rx="0.21" transform="translate(35.94 -17.62) rotate(23.52)"/><rect class="cls-30" x="59.13" y="78.22" width="1.4" height="0.58" rx="0.21" transform="translate(36.3 -17.36) rotate(23.52)"/><rect class="cls-30" x="58.91" y="78.74" width="1.4" height="0.58" rx="0.21" transform="translate(36.49 -17.22) rotate(23.52)"/><rect class="cls-30" x="58.68" y="79.25" width="1.4" height="0.58" rx="0.21" transform="translate(36.68 -17.09) rotate(23.52)"/><rect class="cls-30" x="58.47" y="79.76" width="1.4" height="0.58" rx="0.21" transform="translate(36.86 -16.96) rotate(23.52)"/></g><g id="telinga-5" data-name="telinga"><path class="cls-28" d="M61.83,75.12l.27.12c.25.11.57-.11.74-.48l.62-1.43c.16-.37.09-.76-.15-.86l-.45-.14a1.41,1.41,0,0,0-.88.18,3.12,3.12,0,0,0-1.15,1.21l-.35.77Z"/><rect class="cls-11" x="60.29" y="74.92" width="2.22" height="0.47" transform="translate(35.09 -18.26) rotate(23.52)"/></g><ellipse class="cls-31" cx="59.75" cy="81.65" rx="0.42" ry="0.31" transform="translate(-38.96 103.85) rotate(-66.48)"/><ellipse class="cls-31" cx="58.42" cy="82.43" rx="0.32" ry="0.42" transform="translate(-34.68 121.67) rotate(-77.53)"/><ellipse class="cls-31" cx="57.74" cy="81.97" rx="0.32" ry="0.42" transform="translate(-34.76 120.65) rotate(-77.53)"/><ellipse class="cls-31" cx="57.54" cy="81.36" rx="0.32" ry="0.42" transform="translate(-25.17 136.93) rotate(-88.62)"/><ellipse class="cls-31" cx="58.64" cy="81.19" rx="1.14" ry="1.13" transform="translate(-39.21 102.55) rotate(-66.48)"/><path class="cls-22" d="M57.85,81.43a.92.92,0,0,0,.21.33,1.06,1.06,0,0,0,.73.28"/><path class="cls-22" d="M57.76,81a.78.78,0,0,0,0,.23v0"/><path class="cls-1" d="M68.37,67a5.59,5.59,0,0,0,1.33.14A6.07,6.07,0,0,0,71,67a.36.36,0,0,0,.34-.37.35.35,0,0,0-.34-.37,7.23,7.23,0,0,1-1.27.14,6.6,6.6,0,0,1-1.38-.14.36.36,0,0,0-.34.37A.35.35,0,0,0,68.37,67Z"/><path class="cls-28" d="M63.86,79.46l11.88,0c.45,0,1.41-7.12.89-7.12-.83-.07-2-.07-2-.07l-1.8.07s-.1,1.51-.13,1.71a.28.28,0,0,1-.13.19,1.16,1.16,0,0,1-.47.12H67.06a.9.9,0,0,1-.35-.1.24.24,0,0,1,0-.19h0l-.09-1.75c-.4,0-1,0-1.78,0s-1.59,0-1.88,0S63.4,79.47,63.86,79.46Z"/><g id="leher-10" data-name="leher"><rect class="cls-27" x="67.86" y="68.82" width="4.02" height="0.8" rx="0.29" transform="translate(139.74 138.44) rotate(180)"/><rect class="cls-27" x="67.88" y="69.59" width="4.02" height="0.8" rx="0.29" transform="translate(139.78 139.97) rotate(-180)"/><rect class="cls-27" x="67.87" y="70.35" width="4.02" height="0.8" rx="0.29" transform="translate(139.75 141.5) rotate(-180)"/><rect class="cls-27" x="67.86" y="71.13" width="4.02" height="0.8" rx="0.29" transform="translate(139.74 143.06) rotate(180)"/><rect class="cls-27" x="67.88" y="71.9" width="4.02" height="0.8" rx="0.29" transform="translate(139.78 144.6) rotate(-180)"/><rect class="cls-27" x="67.87" y="72.66" width="4.02" height="0.8" rx="0.29" transform="translate(139.75 146.13) rotate(180)"/></g><g id="leher-11" data-name="leher"><rect class="cls-27" x="67.72" y="77.82" width="4.02" height="0.8" rx="0.29" transform="translate(139.46 156.44) rotate(180)"/><rect class="cls-27" x="67.74" y="78.59" width="4.02" height="0.8" rx="0.29" transform="translate(139.5 157.97) rotate(-180)"/><rect class="cls-27" x="67.73" y="79.35" width="4.02" height="0.8" rx="0.29" transform="translate(139.48 159.51) rotate(-180)"/><rect class="cls-27" x="67.72" y="80.13" width="4.02" height="0.8" rx="0.29" transform="translate(139.46 161.07) rotate(180)"/><rect class="cls-27" x="67.74" y="80.9" width="4.02" height="0.8" rx="0.29" transform="translate(139.5 162.6) rotate(-180)"/><rect class="cls-27" x="67.73" y="81.67" width="4.02" height="0.8" rx="0.29" transform="translate(139.48 164.13) rotate(-180)"/></g><ellipse class="cls-31" cx="76.72" cy="82.16" rx="0.31" ry="0.42"/><ellipse class="cls-31" cx="77.63" cy="83.41" rx="0.32" ry="0.42" transform="translate(-19.11 143.61) rotate(-78.95)"/><ellipse class="cls-31" cx="78.43" cy="83.25" rx="0.32" ry="0.42" transform="translate(-18.31 144.27) rotate(-78.95)"/><ellipse class="cls-31" cx="78.86" cy="82.77" rx="0.32" ry="0.42" transform="translate(-27.53 124.61) rotate(-67.85)"/><ellipse class="cls-31" cx="77.93" cy="82.18" rx="1.13" ry="1.14"/><path class="cls-20" d="M65.15,83.31l9.19-.09.1-1.11H65Z"/><rect class="cls-27" x="65.12" y="82.98" width="9.27" height="0.8" rx="0.29" transform="translate(139.51 166.75) rotate(-180)"/><rect class="cls-27" x="65.29" y="83.76" width="8.93" height="0.8" rx="0.29" transform="translate(139.51 168.31) rotate(-180)"/><rect class="cls-27" x="65.47" y="84.56" width="8.59" height="0.8" rx="0.29" transform="translate(139.54 169.92) rotate(180)"/><rect class="cls-27" x="65.65" y="85.38" width="8.23" height="0.8" rx="0.29" transform="translate(139.54 171.56) rotate(180)"/><rect class="cls-27" x="65.82" y="86.21" width="7.92" height="0.8" rx="0.29" transform="translate(139.56 173.21) rotate(-180)"/><rect class="cls-27" x="66.02" y="87.05" width="7.57" height="0.8" rx="0.29" transform="translate(139.62 174.89) rotate(-180)"/><rect class="cls-27" x="66.16" y="87.83" width="7.29" height="0.8" rx="0.29" transform="translate(139.62 176.45) rotate(-180)"/><rect class="cls-27" x="66.31" y="88.63" width="7.02" height="0.8" rx="0.29" transform="translate(139.64 178.06) rotate(-180)"/><rect class="cls-27" x="66.46" y="89.45" width="6.72" height="0.8" rx="0.29" transform="translate(139.64 179.7) rotate(-180)"/><rect class="cls-27" x="66.59" y="90.28" width="6.47" height="0.8" rx="0.29" transform="translate(139.66 181.35) rotate(-180)"/><rect class="cls-27" x="66.73" y="91.07" width="6.26" height="0.8" rx="0.29" transform="translate(139.72 182.94) rotate(180)"/><rect class="cls-27" x="66.84" y="91.85" width="6.03" height="0.8" rx="0.29" transform="translate(139.72 184.5) rotate(-180)"/><rect class="cls-27" x="66.96" y="92.65" width="5.81" height="0.8" rx="0.29" transform="translate(139.73 186.11) rotate(-180)"/><rect class="cls-27" x="67.09" y="93.48" width="5.56" height="0.8" rx="0.29" transform="translate(139.73 187.75) rotate(-180)"/><rect class="cls-27" x="67.2" y="94.3" width="5.35" height="0.8" rx="0.29" transform="translate(139.75 189.4) rotate(-180)"/><path class="cls-22" d="M78.56,82.71a1,1,0,0,1-.34.22,1,1,0,0,1-.77,0"/><path class="cls-22" d="M78.82,82.32a.5.5,0,0,1-.09.21v0"/><rect class="cls-1" x="71.17" y="63.17" width="4.16" height="2.48" rx="0.8"/><rect class="cls-19" x="71.44" y="63.38" width="3.52" height="1.94" rx="0.53"/><rect class="cls-1" x="71.58" y="63.61" width="1.68" height="1.13" rx="0.37"/><path class="cls-32" d="M73.46,64.71h0a.11.11,0,0,1,0-.11l.12-.16a0,0,0,0,1,.07,0h0a.08.08,0,0,1,0,.11l-.11.17A0,0,0,0,1,73.46,64.71Z"/><ellipse class="cls-32" cx="71.93" cy="64.08" rx="0.15" ry="0.23"/><rect class="cls-1" x="64.44" y="63.05" width="4.22" height="2.52" rx="0.8"/><rect class="cls-19" x="64.71" y="63.27" width="3.57" height="1.97" rx="0.53"/><rect class="cls-1" x="64.85" y="63.5" width="1.7" height="1.15" rx="0.37"/><path class="cls-32" d="M66.75,64.61h0a.11.11,0,0,1,0-.11l.12-.17a0,0,0,0,1,.07,0h0a.11.11,0,0,1,0,.11l-.11.17A0,0,0,0,1,66.75,64.61Z"/><ellipse class="cls-32" cx="65.2" cy="63.98" rx="0.15" ry="0.23"/><path class="cls-33" d="M67,79.35c0-1.11.23-2,.51-2h4.31c.28,0,.51.91.51,2Z"/><path class="cls-34" d="M68.76,78.51a.71.71,0,0,1-.15.3c-.11.14-.22.28-.37.28s-.17-.08-.29-.2a.8.8,0,0,1-.24-.38c0-.07,0-.24.06-.32a.27.27,0,0,1,.26,0c.13,0,.15.18.22.17s0-.08.12-.15a.3.3,0,0,1,.32-.06C68.82,78.21,68.77,78.47,68.76,78.51Z"/><path class="cls-34" d="M70.17,78.51a.86.86,0,0,1-.16.3c-.11.14-.22.28-.37.28s-.17-.08-.29-.2a.72.72,0,0,1-.23-.38c0-.07-.05-.24,0-.32a.27.27,0,0,1,.26,0c.13,0,.16.18.22.17s0-.08.12-.15a.3.3,0,0,1,.32-.06C70.23,78.21,70.17,78.47,70.17,78.51Z"/><path class="cls-34" d="M71.57,78.51a.72.72,0,0,1-.16.3c-.11.14-.22.28-.37.28s-.17-.08-.29-.2a.72.72,0,0,1-.23-.38c0-.07,0-.24.06-.32a.25.25,0,0,1,.25,0c.13,0,.16.18.23.17s0-.08.11-.15a.3.3,0,0,1,.32-.06C71.63,78.21,71.57,78.47,71.57,78.51Z"/></g><rect class="cls-21" x="66.18" y="97.64" width="2.72" height="0.94" rx="0.34"/><rect class="cls-21" x="71.35" y="97.64" width="2.72" height="0.94" rx="0.34"/><rect class="cls-31" x="63.99" y="95.07" width="12.04" height="2.75" rx="0.7"/></g><line class="cls-23" x1="62.54" y1="67.28" x2="63.43" y2="66.39"/><line class="cls-23" x1="62.5" y1="66.89" x2="63.05" y2="66.34"/><line class="cls-23" x1="76.55" y1="67.28" x2="77.44" y2="66.39"/><line class="cls-23" x1="76.51" y1="66.89" x2="77.06" y2="66.34"/><line class="cls-23" x1="75.15" y1="74.28" x2="76.04" y2="73.39"/><line class="cls-23" x1="75.11" y1="73.89" x2="75.66" y2="73.34"/><line class="cls-23" x1="63.94" y1="74.28" x2="64.83" y2="73.39"/><line class="cls-23" x1="63.9" y1="73.89" x2="64.45" y2="73.34"/><line class="cls-23" x1="65.34" y1="78.49" x2="66.23" y2="77.59"/><line class="cls-23" x1="65.3" y1="78.1" x2="65.85" y2="77.55"/><line class="cls-23" x1="73.75" y1="78.49" x2="74.64" y2="77.59"/><line class="cls-23" x1="73.71" y1="78.1" x2="74.26" y2="77.55"/><line class="cls-23" x1="73.75" y1="96.7" x2="74.64" y2="95.81"/><line class="cls-23" x1="73.71" y1="96.31" x2="74.26" y2="95.76"/><line class="cls-23" x1="65.34" y1="96.7" x2="66.23" y2="95.81"/><line class="cls-23" x1="65.3" y1="96.31" x2="65.85" y2="95.76"/><circle class="cls-35" cx="67.26" cy="73.2" r="0.2"/><circle class="cls-35" cx="72.34" cy="73.09" r="0.2"/><circle class="cls-35" cx="69.16" cy="75.79" r="0.2"/><circle class="cls-35" cx="70.57" cy="75.79" r="0.2"/></g></g></g></svg>