<svg xmlns="http://www.w3.org/2000/svg" xmlns:xlink="http://www.w3.org/1999/xlink" viewBox="0 0 110.85 128"><defs><style>.cls-1{fill:url(#linear-gradient);}.cls-2{fill:url(#linear-gradient-2);}.cls-3{fill:url(#linear-gradient-3);}.cls-4{fill:url(#linear-gradient-4);}.cls-5{fill:url(#linear-gradient-5);}.cls-6{fill:url(#linear-gradient-6);}.cls-7{isolation:isolate;}.cls-31,.cls-8{fill:#f73786;}.cls-9{fill:#f7d5e8;}.cls-26,.cls-42,.cls-48,.cls-9{stroke:#303030;}.cls-25,.cls-26,.cls-28,.cls-29,.cls-30,.cls-31,.cls-37,.cls-39,.cls-40,.cls-42,.cls-48,.cls-50,.cls-51,.cls-9{stroke-miterlimit:10;}.cls-25,.cls-26,.cls-48,.cls-9{stroke-width:0.15px;}.cls-10,.cls-50,.cls-51{fill:#fff;}.cls-11{opacity:0.13;}.cls-12{fill:#6a43b3;}.cls-13{clip-path:url(#clip-path);}.cls-14{mix-blend-mode:soft-light;}.cls-15{fill:#fcfdfe;}.cls-16{clip-path:url(#clip-path-2);}.cls-17{clip-path:url(#clip-path-3);}.cls-18{clip-path:url(#clip-path-4);}.cls-19{clip-path:url(#clip-path-5);}.cls-20{clip-path:url(#clip-path-6);}.cls-21{fill:#9760ff;}.cls-22{fill:#279df4;}.cls-23{fill:#f42a86;}.cls-24{fill:#f72662;}.cls-25{fill:#f978ad;stroke:#e9008a;}.cls-26,.cls-30,.cls-39,.cls-40,.cls-42{fill:none;}.cls-27{fill:#f766a8;}.cls-28,.cls-33{fill:#262626;}.cls-28{stroke:#c1c1c1;}.cls-28,.cls-50,.cls-51{stroke-width:0.05px;}.cls-29,.cls-37{fill:#ededed;}.cls-29,.cls-30,.cls-31{stroke:#282828;}.cls-29,.cls-31,.cls-37,.cls-39,.cls-40,.cls-42{stroke-width:0.1px;}.cls-30{stroke-width:0.25px;}.cls-32{fill:#282828;}.cls-34{fill:#f9f9f9;}.cls-35{fill:#272828;}.cls-36{fill:#2b2b2b;}.cls-37,.cls-39{stroke:#2b2b2b;}.cls-38{fill:#3d3d3d;}.cls-40{stroke:#b7b7b7;}.cls-41{fill:#11bc92;}.cls-43{fill:#1cd1a1;}.cls-44{fill:#9f82f9;}.cls-45{fill:#f579a6;}.cls-46{fill:#f98cb9;}.cls-47{fill:#fc158e;}.cls-48{fill:#726691;}.cls-49{opacity:0.28;}.cls-50{stroke:#00b949;}.cls-51{stroke:#0b0035;}.cls-52{fill:#ea247e;}.cls-53{fill:#dd197b;}</style><linearGradient id="linear-gradient" x1="46.54" y1="85.34" x2="44.44" y2="100.12" gradientUnits="userSpaceOnUse"><stop offset="0.01" stop-color="#f7d5e8"/><stop offset="0.06" stop-color="#f7b7d5"/><stop offset="0.13" stop-color="#f795c0"/><stop offset="0.21" stop-color="#f777ae"/><stop offset="0.29" stop-color="#f7609f"/><stop offset="0.39" stop-color="#f74d94"/><stop offset="0.51" stop-color="#f7418c"/><stop offset="0.66" stop-color="#f73987"/><stop offset="1" stop-color="#f73786"/></linearGradient><linearGradient id="linear-gradient-2" x1="40.68" y1="90.8" x2="48.54" y2="103.74" gradientUnits="userSpaceOnUse"><stop offset="0" stop-color="#e38ddd"/><stop offset="1" stop-color="#9571f6"/></linearGradient><linearGradient id="linear-gradient-3" x1="38.9" y1="68.29" x2="34.38" y2="100.13" xlink:href="#linear-gradient"/><linearGradient id="linear-gradient-4" x1="26.28" y1="80.07" x2="43.21" y2="107.94" xlink:href="#linear-gradient-2"/><linearGradient id="linear-gradient-5" x1="33.74" y1="75.33" x2="30.21" y2="100.21" xlink:href="#linear-gradient"/><linearGradient id="linear-gradient-6" x1="23.74" y1="84.4" x2="37.12" y2="106.43" xlink:href="#linear-gradient-2"/><clipPath id="clip-path"><path class="cls-1" d="M45,98.92c-.12.3-.36.71-.6,1.18H49.7c-.81-1.49-1.87-3-1-5.94.38-1.36,1.58-3.84.73-5.25-1-1.61-2.26-.67-2.81-2-.86-2-2.84-3.18-4.58-1.87s-1.13,5,1.93,8.71C45.82,96.71,45.67,97.38,45,98.92Z"/></clipPath><clipPath id="clip-path-2"><path class="cls-2" d="M44.11,93c0,2.42,1.2,1.62,2.28,1.86,1.25,1.81,1.36,3.48-.5,4.92l-2.07-.31c-.77,0-1.67-.27-1.62-1.29s.33-1.9-1-2.46S39.36,94.14,39.89,93s-.75-2.92.2-3.75C41.76,87.76,44.08,90.5,44.11,93Z"/></clipPath><clipPath id="clip-path-3"><path class="cls-3" d="M35.62,97.56c-.27.64-.77,1.52-1.3,2.54H45.7c-1.74-3.21-4-6.52-2.24-12.79.83-3,3.4-8.28,1.58-11.33C43,72.51,40.16,74.54,39,71.8c-1.85-4.3-6.11-6.86-9.87-4s-2.42,10.76,4.16,18.76C37.34,92.79,37,94.23,35.62,97.56Z"/></clipPath><clipPath id="clip-path-4"><path class="cls-4" d="M33.67,84.86c.06,5.23,2.58,3.5,4.9,4,2.69,3.88,2.94,7.48-1.07,10.59L33,98.81c-1.66-.08-3.6-.59-3.49-2.79.13-2.5.71-4.08-2.1-5.31s-4-3.46-2.88-6S23,78.43,25,76.64C28.59,73.51,33.6,79.42,33.67,84.86Z"/></clipPath><clipPath id="clip-path-5"><path class="cls-5" d="M31.16,98.19c-.22.5-.63,1.19-1.07,2h9.3c-1.42-2.51-3.28-5.1-1.83-10,.68-2.3,2.78-6.47,1.29-8.85-1.69-2.72-4-1.13-5-3.27-1.51-3.36-5-5.36-8.07-3.16s-2,8.41,3.4,14.66C32.56,94.46,32.3,95.59,31.16,98.19Z"/></clipPath><clipPath id="clip-path-6"><path class="cls-6" d="M29.56,88.26c.05,4.09,2.11,2.74,4,3.15,2.19,3,2.4,5.85-.88,8.28l-3.64-.53c-1.36-.06-2.95-.45-2.86-2.18.1-1.94.59-3.18-1.72-4.14s-3.28-2.7-2.35-4.69-1.32-4.91.36-6.31C25.41,79.4,29.51,84,29.56,88.26Z"/></clipPath></defs><title>bot_2_edition_robot_learning_to_love</title><g class="cls-7"><g id="Layer_1" data-name="Layer 1"><g id="layout"><g id="Layer_63" data-name="Layer 63"><polygon class="cls-8" points="110.85 32 110.85 96 55.43 128 11.08 102.4 10.88 102.28 0 96 0 32 55.43 0 110.85 32"/></g><g id="Layer_63-2" data-name="Layer 63-2"><polygon class="cls-9" points="101.42 37.42 101.42 90.56 55.41 117.12 9.39 90.56 9.39 37.42 55.41 10.86 101.42 37.42"/></g><g id="gitcoin"><path class="cls-10" d="M16.83,24.74l.94-.55a.37.37,0,0,1,.25,0,.28.28,0,0,1,.2.15.3.3,0,0,1,0,.26.3.3,0,0,1-.14.2l-.9.52a.34.34,0,0,0-.16.26L16.85,27a.62.62,0,0,0,.09.4L17.85,29a.34.34,0,0,0,.21.16.37.37,0,0,0,.25,0l1.15-.67a.3.3,0,0,0,.15-.2.28.28,0,0,0,0-.25l-.36-.62-.58.35a.37.37,0,0,1-.25,0,.28.28,0,0,1-.2-.15.32.32,0,0,1,0-.25.29.29,0,0,1,.16-.2l1.15-.67.69,1.18a1,1,0,0,1,.1.75.91.91,0,0,1-.46.59l-1.15.68a1,1,0,0,1-.76.1,1,1,0,0,1-.6-.46l-.91-1.57a1.37,1.37,0,0,1-.19-.84l.23-1.55a.75.75,0,0,1,.13-.36A.86.86,0,0,1,16.83,24.74Z"/><path class="cls-10" d="M19.64,23.11l2.3-1.33a.27.27,0,0,1,.25,0,.3.3,0,0,1,.2.15.35.35,0,0,1,0,.25.28.28,0,0,1-.15.2l-.86.5,1.95,3.35.86-.5a.29.29,0,0,1,.24,0,.32.32,0,0,1,.2.16.32.32,0,0,1,0,.25.38.38,0,0,1-.15.2l-2.3,1.33a.28.28,0,0,1-.25,0,.3.3,0,0,1-.2-.15.28.28,0,0,1,0-.25.3.3,0,0,1,.15-.2l.87-.5-1.94-3.35-.87.5a.31.31,0,0,1-.45-.12.32.32,0,0,1,0-.25A.3.3,0,0,1,19.64,23.11Z"/><path class="cls-10" d="M24,21.62l-.45-.76,2.87-1.67.45.78a.32.32,0,0,1-.12.44.34.34,0,0,1-.26,0,.3.3,0,0,1-.2-.15l-.12-.21-.57.34,2.1,3.63a.32.32,0,0,1,0,.25.38.38,0,0,1-.15.2.34.34,0,0,1-.26,0,.3.3,0,0,1-.2-.15L25,20.76l-.57.33.11.2a.32.32,0,0,1,0,.25.32.32,0,0,1-.16.2.29.29,0,0,1-.24,0A.32.32,0,0,1,24,21.62Z"/><path class="cls-10" d="M31.56,21.44l1-.6a.36.36,0,0,1,.25,0A.32.32,0,0,1,33,21a.36.36,0,0,1,0,.25.32.32,0,0,1-.16.2L31.85,22a1,1,0,0,1-.49.11.91.91,0,0,1-.47-.11l-1.39-.89a1.4,1.4,0,0,1-.46-.48,1.27,1.27,0,0,1-.19-.62l-.07-1.64a1,1,0,0,1,.12-.48.79.79,0,0,1,.3-.36l1.12-.65a.34.34,0,0,1,.45.12.32.32,0,0,1,0,.25.28.28,0,0,1-.15.2l-1.08.63a.3.3,0,0,0-.13.29l.05,1.54a.94.94,0,0,0,.12.37.9.9,0,0,0,.28.3l1.28.81A.33.33,0,0,0,31.56,21.44Z"/><path class="cls-10" d="M34.25,15.19l1.36.91a1.45,1.45,0,0,1,.65,1.13l.11,1.62a.81.81,0,0,1-.44.81.88.88,0,0,1-.47.11.85.85,0,0,1-.45-.13l-1.36-.9a1.65,1.65,0,0,1-.45-.49,1.41,1.41,0,0,1-.2-.64L32.89,16a.82.82,0,0,1,.44-.81A.8.8,0,0,1,34.25,15.19Zm-.71.79.11,1.53a1.17,1.17,0,0,0,.12.4,1,1,0,0,0,.29.31l1.31.86a.19.19,0,0,0,.23,0,.21.21,0,0,0,.11-.21l-.1-1.56a.92.92,0,0,0-.41-.71l-1.29-.85a.23.23,0,0,0-.25,0A.27.27,0,0,0,33.54,16Z"/><path class="cls-10" d="M36.36,13.41l2.3-1.34a.33.33,0,0,1,.24,0,.35.35,0,0,1,.2.15.34.34,0,0,1,0,.26.3.3,0,0,1-.15.2l-.86.5,1.94,3.35.86-.5a.32.32,0,0,1,.25,0,.32.32,0,0,1,.2.16.28.28,0,0,1,0,.25.29.29,0,0,1-.15.19L39,17.9a.29.29,0,0,1-.24,0,.28.28,0,0,1-.2-.15.32.32,0,0,1,0-.25.35.35,0,0,1,.16-.2l.87-.51-1.95-3.34-.87.5a.28.28,0,0,1-.25,0,.3.3,0,0,1-.2-.15.31.31,0,0,1,0-.25A.28.28,0,0,1,36.36,13.41Z"/><path class="cls-10" d="M43.29,9.77,45.73,14l-.77.45-3.55-2.6L43.27,15a.28.28,0,0,1,0,.25.3.3,0,0,1-.15.2.31.31,0,0,1-.25,0,.3.3,0,0,1-.2-.15l-2.44-4.21.75-.43,3.55,2.59-1.85-3.19a.39.39,0,0,1,0-.26.32.32,0,0,1,.16-.2.27.27,0,0,1,.25,0A.33.33,0,0,1,43.29,9.77Z"/></g><path class="cls-8" d="M99.7,73.29c-.29.23-.72.56-1.26.94a23.67,23.67,0,0,1-13.61,3.9C73,77.72,59.23,67.44,59.23,52.52c0-13.25,10.83-22.83,20.38-25.07a2.44,2.44,0,0,1,1.17,0l.54.35.57.36c.72.45,2.21,1.38,3,1.86,2.67,1.57,5.75,3.21,5.75,3.21,2.07,1.11,5.08,2.79,9,5.24v9.38c0,6,0,8.9,0,13.76,0,2.79,0,5.06,0,6.46Z"/><g id="Layer_63-3" data-name="Layer 63-3" class="cls-11"><path class="cls-12" d="M55.42,10.86l-46,26.57V90.56l46,26.57,46-26.57V37.43ZM99.72,89.5,55.54,115,11.36,89.5v-51L55.54,13,80.15,27.2,99.72,38.49Z"/></g><path class="cls-1" d="M45,98.92c-.12.3-.36.71-.6,1.18H49.7c-.81-1.49-1.87-3-1-5.94.38-1.36,1.58-3.84.73-5.25-1-1.61-2.26-.67-2.81-2-.86-2-2.84-3.18-4.58-1.87s-1.13,5,1.93,8.71C45.82,96.71,45.67,97.38,45,98.92Z"/><g class="cls-13"><g class="cls-14"><path class="cls-15" d="M47.15,99.8c-.07-.69-.16-1.33-.26-2l0-.23c-.07-.32-.12-.64-.18-1a14.77,14.77,0,0,0-.46-2l0-.13A.8.8,0,0,0,46,94h0a30.71,30.71,0,0,0-5-10.62l0,0a30.39,30.39,0,0,1,5,10.63.93.93,0,0,1,.17.46.5.5,0,0,0,0,.12,14.59,14.59,0,0,1,.46,2.06c.06.31.11.63.18,1l0,.22c.1.69.19,1.33.26,2Z"/><path class="cls-15" d="M46.63,96.48a12.13,12.13,0,0,1,.92-5.58,25.87,25.87,0,0,1,1.34-3l0,0a23.46,23.46,0,0,0-1.34,3,12.07,12.07,0,0,0-.92,5.56Z"/><path class="cls-15" d="M44.32,89a22.45,22.45,0,0,1-.41-4.58v-.23h0v.23a22.32,22.32,0,0,0,.41,4.57Z"/><path class="cls-15" d="M45.43,91.86c-.86-1.53-4.39-2.49-4.42-2.5v0s3.57,1,4.44,2.51Z"/></g></g><path class="cls-2" d="M44.11,93c0,2.42,1.2,1.62,2.28,1.86,1.25,1.81,1.36,3.48-.5,4.92l-2.07-.31c-.77,0-1.67-.27-1.62-1.29s.33-1.9-1-2.46S39.36,94.14,39.89,93s-.75-2.92.2-3.75C41.76,87.76,44.08,90.5,44.11,93Z"/><g class="cls-16"><g class="cls-14"><path class="cls-15" d="M44.63,97.37a15.63,15.63,0,0,1-2.23-3.13A15.07,15.07,0,0,1,41,90.68a14.33,14.33,0,0,1-.38-2.14h0A14.17,14.17,0,0,0,41,90.67a15.24,15.24,0,0,0,1.4,3.56,16.23,16.23,0,0,0,2.22,3.12Z"/><path class="cls-15" d="M42.4,98.7l0,0a5.49,5.49,0,0,1,1.35-.45,6.53,6.53,0,0,1,.72-.1v0a6.06,6.06,0,0,0-.71.1A5.69,5.69,0,0,0,42.4,98.7Z"/><path class="cls-15" d="M42.8,94.94c-1.07-1-3.34-.94-3.37-.94v0s2.32-.1,3.39.94Z"/><path class="cls-15" d="M41.48,92.23a5.8,5.8,0,0,1,.93-3.57h0a5.86,5.86,0,0,0-.93,3.56Z"/></g></g><path class="cls-3" d="M35.62,97.56c-.27.64-.77,1.52-1.3,2.54H45.7c-1.74-3.21-4-6.52-2.24-12.79.83-3,3.4-8.28,1.58-11.33C43,72.51,40.16,74.54,39,71.8c-1.85-4.3-6.11-6.86-9.87-4s-2.42,10.76,4.16,18.76C37.34,92.79,37,94.23,35.62,97.56Z"/><g class="cls-17"><g class="cls-14"><path class="cls-15" d="M40.2,99.44c-.13-1.47-.33-2.86-.54-4.32l-.07-.49q-.21-1-.39-2.07a32.89,32.89,0,0,0-1-4.43c0-.09,0-.18-.05-.27a2,2,0,0,0-.33-1h0A66,66,0,0,0,27.08,64l.05,0a66,66,0,0,1,10.74,22.9,1.88,1.88,0,0,1,.35,1,2,2,0,0,0,0,.26,33.07,33.07,0,0,1,1,4.44c.12.67.24,1.37.39,2.07l.07.49c.21,1.47.4,2.85.54,4.33Z"/><path class="cls-15" d="M39.09,92.3c-.63-3.81.73-8.64,2-12A53.09,53.09,0,0,1,44,73.8l0,0a56.28,56.28,0,0,0-2.88,6.47c-1.24,3.38-2.6,8.19-2,12Z"/><path class="cls-15" d="M34.12,76.07a47.89,47.89,0,0,1-.89-9.86,4.66,4.66,0,0,0,0-.49h.07v.5a48.75,48.75,0,0,0,.9,9.85Z"/><path class="cls-15" d="M36.51,82.33C34.64,79,27.06,77,27,77l0-.07c.07,0,7.69,2.09,9.57,5.4Z"/></g></g><path class="cls-4" d="M33.67,84.86c.06,5.23,2.58,3.5,4.9,4,2.69,3.88,2.94,7.48-1.07,10.59L33,98.81c-1.66-.08-3.6-.59-3.49-2.79.13-2.5.71-4.08-2.1-5.31s-4-3.46-2.88-6S23,78.43,25,76.64C28.59,73.51,33.6,79.42,33.67,84.86Z"/><g class="cls-18"><g class="cls-14"><path class="cls-15" d="M34.78,94.21A33.91,33.91,0,0,1,30,87.48a32.88,32.88,0,0,1-3-7.68,30.59,30.59,0,0,1-.81-4.6h.07a31.5,31.5,0,0,0,.8,4.59,33.25,33.25,0,0,0,3,7.67,34.09,34.09,0,0,0,4.79,6.72Z"/><path class="cls-15" d="M30,97.08l0-.06a11.83,11.83,0,0,1,2.91-1,14.2,14.2,0,0,1,1.54-.21v.07a10.53,10.53,0,0,0-1.54.21A11.67,11.67,0,0,0,30,97.08Z"/><path class="cls-15" d="M30.85,89c-2.31-2.23-7.22-2-7.27-2v-.07c.05,0,5-.21,7.31,2Z"/><path class="cls-15" d="M28,83.15c-.69-3.56,2-7.67,2-7.71l0,0s-2.68,4.13-2,7.66Z"/></g></g><path class="cls-5" d="M31.16,98.19c-.22.5-.63,1.19-1.07,2h9.3c-1.42-2.51-3.28-5.1-1.83-10,.68-2.3,2.78-6.47,1.29-8.85-1.69-2.72-4-1.13-5-3.27-1.51-3.36-5-5.36-8.07-3.16s-2,8.41,3.4,14.66C32.56,94.46,32.3,95.59,31.16,98.19Z"/><g class="cls-19"><g class="cls-14"><path class="cls-15" d="M34.9,99.66c-.11-1.15-.27-2.23-.44-3.38l-.06-.38c-.12-.55-.22-1.09-.32-1.61a24.62,24.62,0,0,0-.82-3.47,1.55,1.55,0,0,0,0-.21,1.46,1.46,0,0,0-.27-.75h0A50.47,50.47,0,0,0,24.17,72l0,0A50.6,50.6,0,0,1,33,89.83a1.53,1.53,0,0,1,.29.77c0,.08,0,.14,0,.21a24.62,24.62,0,0,1,.82,3.47c.1.52.2,1.06.32,1.61l.06.38c.17,1.15.33,2.23.44,3.39Z"/><path class="cls-15" d="M34,94.08c-.51-3,.6-6.75,1.62-9.39A41.41,41.41,0,0,1,38,79.62l.05,0a39.17,39.17,0,0,0-2.36,5.06c-1,2.63-2.13,6.39-1.62,9.36Z"/><path class="cls-15" d="M29.93,81.4a35.78,35.78,0,0,1-.73-7.71,2.77,2.77,0,0,0,0-.38h.06v.39a36.37,36.37,0,0,0,.73,7.7Z"/><path class="cls-15" d="M31.89,86.29c-1.53-2.57-7.74-4.18-7.8-4.19v0c.07,0,6.29,1.63,7.83,4.22Z"/></g></g><path class="cls-6" d="M29.56,88.26c.05,4.09,2.11,2.74,4,3.15,2.19,3,2.4,5.85-.88,8.28l-3.64-.53c-1.36-.06-2.95-.45-2.86-2.18.1-1.94.59-3.18-1.72-4.14s-3.28-2.7-2.35-4.69-1.32-4.91.36-6.31C25.41,79.4,29.51,84,29.56,88.26Z"/><g class="cls-20"><g class="cls-14"><path class="cls-15" d="M30.46,95.57a26.76,26.76,0,0,1-3.92-5.26,24.34,24.34,0,0,1-3.13-9.59h.06a22.41,22.41,0,0,0,.66,3.59,24.81,24.81,0,0,0,2.46,6,26.94,26.94,0,0,0,3.91,5.25Z"/><path class="cls-15" d="M26.54,97.82l0,0a10.79,10.79,0,0,1,3.64-.93v0a10.59,10.59,0,0,0-3.62.93Z"/><path class="cls-15" d="M27.25,91.48c-1.88-1.74-5.89-1.59-5.93-1.58v-.06s4.08-.16,6,1.6Z"/><path class="cls-15" d="M24.93,86.93c-.57-2.78,1.61-6,1.63-6l.05,0s-2.19,3.22-1.63,6Z"/></g></g><path class="cls-21" d="M69.51,85.37a1.15,1.15,0,0,1-.39.69,1.07,1.07,0,0,1-.66.43,1.09,1.09,0,0,1-.75-.35,1.12,1.12,0,0,1-.45-.61.57.57,0,0,1,.15-.58.64.64,0,0,1,.63,0c.16.08.19.21.29.2s.09-.15.23-.26a.67.67,0,0,1,.67-.07A.62.62,0,0,1,69.51,85.37Z"/><path class="cls-21" d="M74.72,85.75a1.06,1.06,0,0,1-.55.55,1.09,1.09,0,0,1-.76.24c-.28-.06-.44-.28-.62-.55a1.07,1.07,0,0,1-.27-.7c0-.08,0-.42.3-.52a.66.66,0,0,1,.62.13c.13.12.12.26.22.28s.13-.12.29-.19a.64.64,0,0,1,.67.12A.6.6,0,0,1,74.72,85.75Z"/><path class="cls-22" d="M71.7,84.8a1.06,1.06,0,0,1-.47.62,1.11,1.11,0,0,1-.72.35,1.1,1.1,0,0,1-.69-.46,1.07,1.07,0,0,1-.37-.65.6.6,0,0,1,.23-.57.67.67,0,0,1,.63,0c.14.1.16.24.25.24s.12-.14.27-.23a.67.67,0,0,1,.68,0A.62.62,0,0,1,71.7,84.8Z"/><path class="cls-23" d="M71,85.39a1.08,1.08,0,0,1-.43.65.82.82,0,0,1-1.41,0,1.09,1.09,0,0,1-.41-.63c0-.09,0-.42.19-.57a.64.64,0,0,1,.63,0c.15.09.17.23.27.22s.11-.14.25-.24a.66.66,0,0,1,.68,0A.62.62,0,0,1,71,85.39Z"/><path class="cls-24" d="M73.16,85.07a1.13,1.13,0,0,1-.24.75c-.17.26-.3.48-.56.56a1.1,1.1,0,0,1-.8-.2,1.11,1.11,0,0,1-.57-.5c0-.08-.17-.39,0-.6a.62.62,0,0,1,.6-.17c.18,0,.23.17.33.14s.06-.17.17-.3a.64.64,0,0,1,.65-.2C73.09,84.63,73.15,85,73.16,85.07Z"/><path class="cls-25" d="M74.22,94.69H67.37a7.52,7.52,0,0,1-1-.89A6.89,6.89,0,0,1,65.28,92l-.51-3.61a2.6,2.6,0,0,1,2.6-2.6h6.85a2.6,2.6,0,0,1,2.6,2.6L76.31,92a6.53,6.53,0,0,1-1,1.65A6.9,6.9,0,0,1,74.22,94.69Z"/><path class="cls-26" d="M67.37,85.82C67.06,83,69,81,70.48,81s3.48,2,3.17,4.82"/><path class="cls-23" d="M74,89.61a3.22,3.22,0,0,1-1.28,1.93,3.15,3.15,0,0,1-2.06,1.15,3.22,3.22,0,0,1-2.12-1.21,3.18,3.18,0,0,1-1.21-1.87,1.73,1.73,0,0,1,.56-1.7,1.9,1.9,0,0,1,1.86,0c.46.28.52.68.81.67s.33-.43.74-.73a2,2,0,0,1,2-.06A1.85,1.85,0,0,1,74,89.61Z"/><g id="Bbingkai"><path class="cls-27" d="M2.24,41H1.42v.82h.82Z"/><path class="cls-27" d="M7.93,40.75H6.74V42H7.93Z"/><path class="cls-27" d="M2.24,47H1.42v.82h.82Z"/><path class="cls-27" d="M5.16,62.7H4v1.2h1.2Z"/><path class="cls-27" d="M2.39,66.75H1.16V68h1.2Z"/><path class="cls-27" d="M2.08,33.09H1.56v.52h.52Z"/><path class="cls-27" d="M2.16,35h-.6v.6h.6Z"/><path class="cls-27" d="M5.16,34.73H3.94v1.18H5.16Z"/><path class="cls-27" d="M2.38,36.73H1.16v1.19H2.38Z"/><path class="cls-27" d="M2.16,39h-.6v.6h.6Z"/><path class="cls-27" d="M5.16,38.66H3.94v1.19H5.16Z"/><path class="cls-27" d="M7.66,39h-.6v.6h.6Z"/><path class="cls-27" d="M2.23,42.82H1.41v.82h.82Z"/><path class="cls-27" d="M5.16,42.68H3.94v1.18H5.16Z"/><path class="cls-27" d="M7.73,42.82H6.91v.82h.82Z"/><path class="cls-27" d="M2.38,44.61H1.16V45.8H2.38Z"/><path class="cls-27" d="M4.91,44.9H4.24v.67h.67Z"/><path class="cls-27" d="M5.16,46.61H3.94V47.8H5.16Z"/><path class="cls-27" d="M7.88,46.61H6.69V47.8H7.88Z"/><path class="cls-27" d="M2.38,48.62H1.16v1.19H2.38Z"/><path class="cls-27" d="M7.66,48.92h-.6v.59h.6Z"/><path class="cls-27" d="M5.16,50.55H3.94v1.19H5.16Z"/><path class="cls-27" d="M7.88,50.55H6.69v1.19H7.88Z"/><path class="cls-27" d="M2.38,52.56H1.16v1.19H2.38Z"/><path class="cls-27" d="M7.88,52.56H6.69v1.19H7.88Z"/><path class="cls-27" d="M2.38,54.56H1.16v1.19H2.38Z"/><path class="cls-27" d="M5.16,54.56H3.94v1.19H5.16Z"/><path class="cls-27" d="M2.38,56.49H1.16v1.19H2.38Z"/><path class="cls-27" d="M5.16,56.49H3.94v1.19H5.16Z"/><path class="cls-27" d="M7.88,56.49H6.69v1.19H7.88Z"/><path class="cls-27" d="M2.08,58.87H1.56v.52h.52Z"/><path class="cls-27" d="M2.38,60.51H1.16V61.7H2.38Z"/><path class="cls-27" d="M7.88,60.51H6.69V61.7H7.88Z"/><path class="cls-27" d="M2.16,62.81h-.6v.59h.6Z"/><path class="cls-27" d="M7.66,62.81h-.6v.59h.6Z"/><path class="cls-27" d="M2.38,64.44H1.16v1.19H2.38Z"/><path class="cls-27" d="M7.88,64.44H6.69v1.19H7.88Z"/><path class="cls-27" d="M5.16,66.45H3.94v1.19H5.16Z"/><path class="cls-27" d="M7.88,66.45H6.69v1.19H7.88Z"/><path class="cls-27" d="M2,68.83H1.64v.37H2Z"/><path class="cls-27" d="M7.88,68.38H6.69v1.19H7.88Z"/><path class="cls-27" d="M5.16,36.78H4V38h1.2Z"/><path class="cls-27" d="M7.93,36.78H6.74V38H7.93Z"/><path class="cls-27" d="M4.94,41H4.26v.67h.68Z"/><path class="cls-27" d="M7.93,44.72H6.74v1.2H7.93Z"/><path class="cls-27" d="M5.16,48.77H4V50h1.2Z"/><path class="cls-27" d="M2.16,51.09h-.6v.6h.6Z"/><path class="cls-27" d="M4.94,53H4.26v.68h.68Z"/><path class="cls-27" d="M7.71,55.06H7.16v.6h.6Z"/><path class="cls-27" d="M4.94,59H4.26v.67h.68Z"/><path class="cls-27" d="M7.93,58.73H6.74v1.2H7.93Z"/><path class="cls-27" d="M5.16,60.76H4V62h1.2Z"/><path class="cls-27" d="M5.16,64.73H4v1.2h1.2Z"/><path class="cls-27" d="M5.16,68.7H4v1.2h1.2Z"/><path class="cls-27" d="M5.31,79H4.16v1.25H5.31Z"/><path class="cls-27" d="M2.54,83.07H1.34v1.21h1.2Z"/><path class="cls-27" d="M2.53,70.89H1.34v1.18H2.53Z"/><path class="cls-27" d="M5.28,70.89H4.09v1.18H5.28Z"/><path class="cls-27" d="M2.53,72.82H1.34V74H2.53Z"/><path class="cls-27" d="M5.28,72.82H4.09V74H5.28Z"/><path class="cls-27" d="M8,72.82H6.84V74H8Z"/><path class="cls-27" d="M2.23,75.2H1.71v.52h.52Z"/><path class="cls-27" d="M2.53,76.83H1.34V78H2.53Z"/><path class="cls-27" d="M8,76.83H6.84V78H8Z"/><path class="cls-27" d="M2.31,79.13h-.6v.6h.6Z"/><path class="cls-27" d="M7.81,79.13h-.6v.6h.6Z"/><path class="cls-27" d="M2.53,80.77H1.34V82H2.53Z"/><path class="cls-27" d="M8,80.77H6.84V82H8Z"/><path class="cls-27" d="M5.28,82.77H4.09V84H5.28Z"/><path class="cls-27" d="M8,82.77H6.84V84H8Z"/><path class="cls-27" d="M2.16,85.15H1.79v.37h.37Z"/><path class="cls-27" d="M8,84.71H6.84v1.18H8Z"/><path class="cls-27" d="M7.86,71.39h-.6V72h.6Z"/><path class="cls-27" d="M5.09,75.28H4.41V76h.68Z"/><path class="cls-27" d="M8.09,75.06H6.89v1.22h1.2Z"/><path class="cls-27" d="M5.31,77.08H4.16v1.2H5.31Z"/><path class="cls-27" d="M5.31,81.05H4.16v1.23H5.31Z"/><path class="cls-27" d="M5.31,85H4.16v1.2H5.31Z"/><path class="cls-27" d="M2.7,87H1.51v1.19H2.7Z"/><path class="cls-27" d="M5.45,87H4.26v1.19H5.45Z"/><path class="cls-27" d="M2.7,88.88H1.51v1.19H2.7Z"/><path class="cls-27" d="M5.45,88.88H4.26v1.19H5.45Z"/><path class="cls-27" d="M8.16,88.88H7v1.19H8.16Z"/><path class="cls-27" d="M2.4,91.28H1.88v.52H2.4Z"/><path class="cls-27" d="M2.7,92.89H1.51v1.19H2.7Z"/><path class="cls-27" d="M8,87.45h-.6v.6H8Z"/><path class="cls-27" d="M5.26,91.34H4.58V92h.68Z"/><path class="cls-27" d="M8.25,91.12H7.06v1.16H8.25Z"/><path class="cls-27" d="M5.48,93.14H4.28v1.2h1.2Z"/><path class="cls-27" d="M108.85,87h.83v-.83h-.83Z"/><path class="cls-27" d="M103.16,87.18h1.2V86h-1.2Z"/><path class="cls-27" d="M108.85,81h.83v-.82h-.83Z"/><path class="cls-27" d="M105.93,65.28h1.23v-1.2H106Z"/><path class="cls-27" d="M108.7,61.19h1.2V60h-1.2Z"/><path class="cls-27" d="M109,94.84h.52v-.56H109Z"/><path class="cls-27" d="M108.93,92.91h.6v-.63h-.6Z"/><path class="cls-27" d="M106,93.21h1.2V92H106Z"/><path class="cls-27" d="M108.71,91.2h1.19V90h-1.19Z"/><path class="cls-27" d="M108.93,88.9h.6v-.62h-.6Z"/><path class="cls-27" d="M106,89.28h1.2v-1.2H106Z"/><path class="cls-27" d="M103.44,88.9H104v-.62h-.59Z"/><path class="cls-27" d="M108.86,85.11h.82v-.83h-.82Z"/><path class="cls-27" d="M106,85.28h1.2V84.07H106Z"/><path class="cls-27" d="M103.36,85.11h.8v-.83h-.82Z"/><path class="cls-27" d="M108.71,83.33h1.19V82.14h-1.19Z"/><path class="cls-27" d="M106.16,83h.66v-.67h-.66Z"/><path class="cls-27" d="M106,81.28h1.2V80.13H106Z"/><path class="cls-27" d="M103.21,81.28h1.19V80.13h-1.19Z"/><path class="cls-27" d="M108.71,79.28h1.19V78.13h-1.19Z"/><path class="cls-27" d="M103.44,79H104v-.6h-.59Z"/><path class="cls-27" d="M106,77.38h1.2V76.19H106Z"/><path class="cls-27" d="M103.21,77.38h1.19V76.19h-1.19Z"/><path class="cls-27" d="M108.71,75.38h1.19V74.19h-1.19Z"/><path class="cls-27" d="M103.21,75.38h1.19V74.19h-1.19Z"/><path class="cls-27" d="M108.71,73.37h1.19V72.18h-1.19Z"/><path class="cls-27" d="M106,73.37h1.2V72.18H106Z"/><path class="cls-27" d="M108.71,71.44h1.19V70.28h-1.19Z"/><path class="cls-27" d="M106,71.44h1.2V70.28H106Z"/><path class="cls-27" d="M103.21,71.44h1.19V70.28h-1.19Z"/><path class="cls-27" d="M109,69.06h.52v-.52H109Z"/><path class="cls-27" d="M108.71,67.43h1.19V66.28h-1.19Z"/><path class="cls-27" d="M103.21,67.43h1.19V66.28h-1.19Z"/><path class="cls-27" d="M108.93,65.12h.6v-.59h-.6Z"/><path class="cls-27" d="M103.44,65.12H104v-.59h-.59Z"/><path class="cls-27" d="M108.71,63.49h1.19V62.28h-1.19Z"/><path class="cls-27" d="M103.21,63.49h1.19V62.28h-1.19Z"/><path class="cls-27" d="M106,61.48h1.2v-1.2H106Z"/><path class="cls-27" d="M103.21,61.48h1.19v-1.2h-1.19Z"/><path class="cls-27" d="M109.08,59.11h.37v-.37h-.37Z"/><path class="cls-27" d="M103.21,59.55h1.19V58.36h-1.19Z"/><path class="cls-27" d="M105.93,91.15h1.23V90H106Z"/><path class="cls-27" d="M103.16,91.15h1.2V90h-1.2Z"/><path class="cls-27" d="M106.16,87h.68v-.68h-.68Z"/><path class="cls-27" d="M103.16,83.21h1.2V82h-1.2Z"/><path class="cls-27" d="M105.93,79.17h1.23V78H106Z"/><path class="cls-27" d="M108.93,76.84h.6v-.56h-.6Z"/><path class="cls-27" d="M106.16,75h.68v-.69h-.68Z"/><path class="cls-27" d="M103.38,72.87h.6v-.59h-.6Z"/><path class="cls-27" d="M106.16,69h.68v-.7h-.68Z"/><path class="cls-27" d="M103.16,69.2h1.2V68h-1.2Z"/><path class="cls-27" d="M105.93,67.18h1.23V66H106Z"/><path class="cls-27" d="M105.93,63.21h1.23V62H106Z"/><path class="cls-27" d="M105.93,59.28h1.23v-1.2H106Z"/><path class="cls-27" d="M105.78,48.91H107v-1.2h-1.2Z"/><path class="cls-27" d="M108.55,44.86h1.2v-1.2h-1.2Z"/><path class="cls-27" d="M108.56,57.05h1.19V55.86h-1.19Z"/><path class="cls-27" d="M105.81,57.05H107V55.86h-1.19Z"/><path class="cls-27" d="M108.56,55.12h1.19V53.93h-1.19Z"/><path class="cls-27" d="M105.81,55.12H107V53.93h-1.19Z"/><path class="cls-27" d="M103.06,55.12h1.19V53.93h-1.19Z"/><path class="cls-27" d="M108.86,52.74h.52v-.52h-.52Z"/><path class="cls-27" d="M108.56,51.1h1.19V49.92h-1.19Z"/><path class="cls-27" d="M103.06,51.1h1.19V49.92h-1.19Z"/><path class="cls-27" d="M108.78,48.8h.6v-.59h-.6Z"/><path class="cls-27" d="M103.29,48.8h.59v-.59h-.59Z"/><path class="cls-27" d="M108.56,47.17h1.19V46h-1.19Z"/><path class="cls-27" d="M103.06,47.17h1.19V46h-1.19Z"/><path class="cls-27" d="M105.81,45.16H107V44h-1.19Z"/><path class="cls-27" d="M103.06,45.16h1.19V44h-1.19Z"/><path class="cls-27" d="M108.93,42.78h.37v-.37h-.37Z"/><path class="cls-27" d="M103.06,43.28h1.19V42h-1.19Z"/><path class="cls-27" d="M103.23,56.55h.6V56h-.6Z"/><path class="cls-27" d="M106,52.65h.68V52H106Z"/><path class="cls-27" d="M103,52.88h1.2v-1.2H103Z"/><path class="cls-27" d="M105.78,50.86H107v-1.2h-1.2Z"/><path class="cls-27" d="M105.78,46.88H107V45.69h-1.2Z"/><path class="cls-27" d="M105.78,42.91H107v-1.2h-1.2Z"/><path class="cls-27" d="M108.39,41h1.19V39.8h-1.19Z"/><path class="cls-27" d="M105.64,41h1.19V39.8h-1.19Z"/><path class="cls-27" d="M108.39,39.06h1.19V37.87h-1.19Z"/><path class="cls-27" d="M105.64,39.06h1.19V37.87h-1.19Z"/><path class="cls-27" d="M102.89,39.06h1.19V37.87h-1.19Z"/><path class="cls-27" d="M108.69,36.68h.52v-.52h-.52Z"/><path class="cls-27" d="M108.39,35h1.19V33.85h-1.19Z"/><path class="cls-27" d="M103.06,40.49h.6v-.6h-.6Z"/><path class="cls-27" d="M105.83,36.59h.68v-.67h-.68Z"/><path class="cls-27" d="M101.76,29.12l.41-.72-.72-.4-.41.71Z"/><path class="cls-27" d="M99.16,34.18l.59-1-1-.59-.59,1Z"/><path class="cls-27" d="M96.55,26.16l.41-.72L96.24,25l-.41.72Z"/><path class="cls-27" d="M81.43,20.91l.59-1-1-.59-.59,1Z"/><path class="cls-27" d="M79.29,16.5l.59-1-1-.59-.6,1Z"/><path class="cls-27" d="M108.69,32.88l.26-.45-.45-.26-.26.46Z"/><path class="cls-27" d="M107,32l.29-.51-.52-.3-.29.52Z"/><path class="cls-27" d="M105.38,31.34l.59-1-1-.59-.59,1Z"/><path class="cls-27" d="M103.49,30l.29-.52-.51-.29-.3.51Z"/><path class="cls-27" d="M102.34,32.78l.59-1-1-.59-.59,1Z"/><path class="cls-27" d="M100.77,34.79l.29-.52-.51-.29-.3.51Z"/><path class="cls-27" d="M100.16,28.2l.4-.71-.71-.41-.4.71Z"/><path class="cls-27" d="M98.86,30.79l.58-1-1-.59-.59,1Z"/><path class="cls-27" d="M97.44,33l.4-.71-.68-.41-.4.71Z"/><path class="cls-27" d="M98.54,27.45l.58-1-1-.58-.59,1Z"/><path class="cls-27" d="M97,29.49l.33-.58-.58-.33-.33.58Z"/><path class="cls-27" d="M95.43,28.84l.59-1-1-.59-.59,1Z"/><path class="cls-27" d="M94.07,31.28l.59-1-1-.59-.59,1Z"/><path class="cls-27" d="M95.05,25.46l.59-1-1-.59-.58,1Z"/><path class="cls-27" d="M92.16,29.9l.3-.52-.52-.29-.29.52Z"/><path class="cls-27" d="M92,26.9l.59-1-1-.58-.59,1Z"/><path class="cls-27" d="M90.65,29.28l.59-1-1-.59-.59,1Z"/><path class="cls-27" d="M91.63,23.51l.58-1-1-.59-.59,1Z"/><path class="cls-27" d="M88.91,28.28l.59-1-1-.59-.59,1Z"/><path class="cls-27" d="M89.88,22.52l.59-1-1-.59-.59,1Z"/><path class="cls-27" d="M88.52,24.91l.59-1-1-.59-.59,1Z"/><path class="cls-27" d="M88.16,21.57l.59-1-1-.58-.59,1Z"/><path class="cls-27" d="M86.84,24l.59-1-1-.58-.59,1Z"/><path class="cls-27" d="M85.49,26.35l.58-1-1-.59-.59,1Z"/><path class="cls-27" d="M86.28,20.13l.26-.45-.45-.26-.26.46Z"/><path class="cls-27" d="M84.72,19.58l.58-1-1-.59-.59,1Z"/><path class="cls-27" d="M82,24.36l.59-1-1-.59-.58,1Z"/><path class="cls-27" d="M82.83,18.28l.29-.52-.52-.29-.29.52Z"/><path class="cls-27" d="M80.16,23l.29-.52-.52-.29-.29.51Z"/><path class="cls-27" d="M81.29,17.64l.59-1-1-.59-.59,1Z"/><path class="cls-27" d="M78.58,22.41l.58-1-1-.59-.59,1Z"/><path class="cls-27" d="M78.16,19l.59-1-1-.59-.59,1Z"/><path class="cls-27" d="M76.83,21.42l.59-1-1-.59-.59,1Z"/><path class="cls-27" d="M77.67,15.15l.18-.33-.32-.18-.18.32Z"/><path class="cls-27" d="M75.16,20.47l.59-1-1-.58-.59,1Z"/><path class="cls-27" d="M104.28,33.8l.59-1-1-.6-.59,1Z"/><path class="cls-27" d="M102.49,36.1l.59-1-1-.59-.59,1Z"/><path class="cls-27" d="M100.43,31.46l.33-.58-.59-.34-.33.59Z"/><path class="cls-27" d="M95.69,32.22l.59-1-1-.59-.59,1Z"/><path class="cls-27" d="M93.54,27.81l.6-1-1-.59-.59,1Z"/><path class="cls-27" d="M93,24.05l.29-.52-.52-.25-.29.52Z"/><path class="cls-27" d="M90,25.54l.33-.59-.58-.33-.34.58Z"/><path class="cls-27" d="M86.81,26.91l.3-.52-.52-.3-.3.52Z"/><path class="cls-27" d="M84.8,22.57l.33-.58-.58-.34-.34.59Z"/><path class="cls-27" d="M83.51,25.28l.59-1-1-.6-.59,1Z"/><path class="cls-27" d="M83.16,21.88l.6-1-1-.6-.6,1Z"/><path class="cls-27" d="M79.67,19.91l.6-1-1-.59-.59,1Z"/><path class="cls-27" d="M76.22,18l.59-1-1-.59-.59,1Z"/><path class="cls-27" d="M67.16,13l.59-1-1-.59-.59,1Z"/><path class="cls-27" d="M65,8.56l.6-1-1-.59L64,8Z"/><path class="cls-27" d="M75.62,14.58l.59-1-1-.59-.59,1Z"/><path class="cls-27" d="M74.26,17l.59-1-1-.59-.59,1Z"/><path class="cls-27" d="M73.94,13.63l.59-1-1-.58-.59,1Z"/><path class="cls-27" d="M72.58,16l.59-1-1-.59-.59,1Z"/><path class="cls-27" d="M71.22,18.4l.59-1-1-.59-.59,1Z"/><path class="cls-27" d="M72,12.19l.26-.45-.45-.26-.26.45Z"/><path class="cls-27" d="M70.46,11.64l.58-1-1-.59-.59,1Z"/><path class="cls-27" d="M67.74,16.42l.58-1-1-.59-.59,1Z"/><path class="cls-27" d="M68.56,10.28l.3-.52-.52-.29-.29.52Z"/><path class="cls-27" d="M65.84,15.09l.3-.52-.52-.29-.29.51Z"/><path class="cls-27" d="M67,9.69l.59-1-1-.59L66,9.1Z"/><path class="cls-27" d="M64.31,14.47l.59-1-1-.59-.59,1Z"/><path class="cls-27" d="M63.93,11.09l.59-1-1-.59-.58,1Z"/><path class="cls-27" d="M62.57,13.48l.59-1-1-.59-.59,1Z"/><path class="cls-27" d="M63.41,7.2l.18-.32-.32-.18L63.08,7Z"/><path class="cls-27" d="M60.89,12.53l.59-1-1-.59-.59,1Z"/><path class="cls-27" d="M72.55,19l.3-.52-.52-.3-.3.52Z"/><path class="cls-27" d="M70.54,14.63l.33-.59-.59-.33L70,14.3Z"/><path class="cls-27" d="M69.25,17.35l.59-1.07-1-.59-.59,1Z"/><path class="cls-27" d="M68.86,13.94l.59-1-1-.59-.59,1Z"/><path class="cls-27" d="M65.41,12,66,11l-1-.59-.59,1Z"/><path class="cls-27" d="M62,10l.59-1-1-.6L61,9.46Z"/><path class="cls-27" d="M61.58,6.78l.59-1-1-.59-.59,1Z"/><path class="cls-27" d="M60.22,9.17l.59-1-1-.59-.59,1Z"/><path class="cls-27" d="M59.9,5.83l.59-1-1-.59-.58,1Z"/><path class="cls-27" d="M58.54,8.22l.59-1-1-.59-.58,1Z"/><path class="cls-27" d="M57.16,10.61l.59-1-1-.58-.58,1Z"/><path class="cls-27" d="M58,4.4l.26-.46-.46-.25-.25.45Z"/><path class="cls-27" d="M56.41,3.85l.59-1-1-.59-.59,1Z"/><path class="cls-27" d="M58.51,11.17l.29-.52-.52-.3-.29.52Z"/><path class="cls-27" d="M56.49,6.83l.34-.55-.59-.34-.33.59Z"/><path class="cls-27" d="M106.16,34.42l.33-.58-.58-.33-.33.58Z"/><path class="cls-27" d="M103.76,36.65l.2-.36-.36-.21-.2.36Z"/><path class="cls-27" d="M10.22,99.5l-.41.71.71.42.41-.71Z"/><path class="cls-27" d="M12.9,94.47l-.61,1,1,.6.6-1Z"/><path class="cls-27" d="M15.4,102.53l-.42.71.71.41.42-.71Z"/><path class="cls-27" d="M30.45,107.94l-.6,1,1,.6.61-1Z"/><path class="cls-27" d="M32.55,112.38l-.61,1,1,.61.6-1Z"/><path class="cls-27" d="M3.33,95.66l-.26.45.45.26.26-.45Z"/><path class="cls-27" d="M5,96.57l-.3.51.51.3.3-.51Z"/><path class="cls-27" d="M6.28,93.85l-.6,1,1,.6.6-1Z"/><path class="cls-27" d="M6.63,97.28l-.6,1,1,.6.6-1Z"/><path class="cls-27" d="M8.5,98.59l-.3.52.52.3.3-.52Z"/><path class="cls-27" d="M9.68,95.84l-.6,1,1,.6.6-1Z"/><path class="cls-27" d="M11.28,93.85l-.3.51.51.3.3-.51Z"/><path class="cls-27" d="M11.81,100.44l-.41.71.7.41.42-.71Z"/><path class="cls-27" d="M13.16,97.86l-.6,1,1,.6.6-1Z"/><path class="cls-27" d="M14.58,95.69l-.41.71.71.41.41-.7Z"/><path class="cls-27" d="M13.43,101.21l-.6,1,1,.6.6-1Z"/><path class="cls-27" d="M15,99.18l-.34.58.58.34.33-.58Z"/><path class="cls-27" d="M16.54,99.85l-.6,1,1,.6.6-1Z"/><path class="cls-27" d="M17.93,97.48l-.6,1,1,.6.6-1Z"/><path class="cls-27" d="M16.89,103.28l-.6,1,1,.6.6-1Z"/><path class="cls-27" d="M19.81,98.83l-.3.52.51.3.3-.52Z"/><path class="cls-27" d="M19.94,101.84l-.6,1,1,.6.6-1Z"/><path class="cls-27" d="M21.33,99.46l-.6,1,1,.6.6-1Z"/><path class="cls-27" d="M20.29,105.22l-.6,1,1,.6.6-1Z"/><path class="cls-27" d="M23.06,100.48l-.6,1,1,.6.6-1Z"/><path class="cls-27" d="M22,106.28l-.6,1,1,.6.6-1Z"/><path class="cls-27" d="M23.41,103.86l-.6,1,1,.6.6-1Z"/><path class="cls-27" d="M23.69,107.21l-.6,1,1,.6.6-1Z"/><path class="cls-27" d="M25.08,104.84l-.6,1,1,.6.6-1Z"/><path class="cls-27" d="M26.46,102.46l-.6,1,1,.6.6-1Z"/><path class="cls-27" d="M25.59,108.67l-.26.45.45.26.26-.45Z"/><path class="cls-27" d="M27.16,109.28l-.6,1,1,.6.6-1Z"/><path class="cls-27" d="M29.93,104.49l-.6,1,1,.6.6-1Z"/><path class="cls-27" d="M29,110.59l-.3.51.51.3.3-.51Z"/><path class="cls-27" d="M31.8,105.84l-.3.52.52.3.3-.52Z"/><path class="cls-27" d="M30.55,111.22l-.6,1,1,.6.6-1Z"/><path class="cls-27" d="M33.33,106.48l-.6,1,1,.6.6-1Z"/><path class="cls-27" d="M33.67,109.86l-.6,1,1,.6.6-1Z"/><path class="cls-27" d="M35.06,107.49l-.6,1,1,.6.6-1Z"/><path class="cls-27" d="M34.16,113.75l-.19.33.32.18.19-.32Z"/><path class="cls-27" d="M36.73,108.46l-.6,1,1,.6.6-1Z"/><path class="cls-27" d="M8.07,94.86l-.6,1,1,.6.61-1Z"/><path class="cls-27" d="M9.47,92.47l-.6,1,1,.61.61-1Z"/><path class="cls-27" d="M11.58,97.17l-.34.59.58.34.34-.59Z"/><path class="cls-27" d="M16.33,96.48l-.61,1,1,.61.6-1Z"/><path class="cls-27" d="M18.42,100.91l-.6,1,1,.6.61-1Z"/><path class="cls-27" d="M18.92,104.67l-.31.52.52.3.3-.52Z"/><path class="cls-27" d="M21.93,103.22l-.34.58.58.34.34-.58Z"/><path class="cls-27" d="M25.16,101.89l-.3.51.52.31.3-.52Z"/><path class="cls-27" d="M27.16,106.28l-.34.58.58.34.34-.58Z"/><path class="cls-27" d="M28.42,103.55l-.6,1,1,.6.61-1Z"/><path class="cls-27" d="M28.77,107l-.6,1,1,.61.61-1Z"/><path class="cls-27" d="M32.16,109l-.61,1,1,.6.6-1Z"/><path class="cls-27" d="M35.63,111,35,112l1,.61.6-1Z"/><path class="cls-27" d="M44.62,116.05l-.6,1,1,.61.61-1Z"/><path class="cls-27" d="M46.72,120.48l-.61,1,1,.6.6-1Z"/><path class="cls-27" d="M36.16,114.34l-.6,1,1,.6.6-1Z"/><path class="cls-27" d="M37.58,112l-.6,1,1,.6.6-1Z"/><path class="cls-27" d="M37.86,115.28l-.6,1,1,.6.6-1Z"/><path class="cls-27" d="M39.24,112.94l-.6,1,1,.6.6-1Z"/><path class="cls-27" d="M40.63,110.57l-.6,1,1,.6.6-1Z"/><path class="cls-27" d="M39.76,116.77l-.26.45.45.26.26-.44Z"/><path class="cls-27" d="M41.32,117.34l-.6,1,1,.6.6-1Z"/><path class="cls-27" d="M44.1,112.59l-.6,1,1,.6.6-1Z"/><path class="cls-27" d="M43.16,118.7l-.3.51.51.3.3-.51Z"/><path class="cls-27" d="M46,114l-.3.51.51.3.3-.51Z"/><path class="cls-27" d="M44.72,119.33l-.6,1,1,.6.6-1Z"/><path class="cls-27" d="M47.5,114.58l-.6,1,1,.6.6-1Z"/><path class="cls-27" d="M47.84,118l-.6,1,1,.6.6-1Z"/><path class="cls-27" d="M49.23,115.59l-.6,1,1,.6.6-1Z"/><path class="cls-27" d="M48.32,121.86l-.19.32.32.19.19-.32Z"/><path class="cls-27" d="M50.89,116.57l-.6,1,1,.6.6-1Z"/><path class="cls-27" d="M39.31,110l-.3.52.51.3.31-.51Z"/><path class="cls-27" d="M41.27,114.35l-.34.58.59.34.34-.58Z"/><path class="cls-27" d="M42.59,111.65l-.6,1,1,.6.61-1Z"/><path class="cls-27" d="M42.94,115.07l-.6,1,1,.6.61-1Z"/><path class="cls-27" d="M46.37,117.07l-.61,1,1,.61.6-1Z"/><path class="cls-27" d="M49.8,119.07l-.61,1,1,.6.6-1Z"/><path class="cls-27" d="M50.16,122.28l-.6,1,1,.6.6-1Z"/><path class="cls-27" d="M51.53,119.93l-.6,1,1,.6.6-1Z"/><path class="cls-27" d="M51.81,123.28l-.6,1,1,.6.6-1Z"/><path class="cls-27" d="M53.16,120.9l-.6,1,1,.6.6-1Z"/><path class="cls-27" d="M54.58,118.53l-.6,1,1,.59.6-1Z"/><path class="cls-27" d="M53.71,124.73l-.26.45.45.26.26-.45Z"/><path class="cls-27" d="M55.27,125.28l-.6,1,1,.6.6-1Z"/><path class="cls-27" d="M53.26,118l-.3.52.52.3.3-.52Z"/><path class="cls-27" d="M55.23,122.28l-.34.58.58.34.34-.58Z"/></g><g id="robot"><g id="male"><g id="Rob"><g id="leher"><rect class="cls-28" x="64.26" y="75.06" width="2.8" height="0.66" rx="0.24" transform="translate(-29.62 45.13) rotate(-31.33)"/><rect class="cls-28" x="64.58" y="75.6" width="2.8" height="0.66" rx="0.24" transform="translate(-29.86 45.38) rotate(-31.33)"/><rect class="cls-28" x="64.92" y="76.14" width="2.8" height="0.66" rx="0.24" transform="translate(-30.09 45.63) rotate(-31.33)"/><rect class="cls-28" x="65.38" y="76.61" width="2.8" height="0.66" rx="0.24" transform="translate(-30.27 45.94) rotate(-31.33)"/><rect class="cls-28" x="65.82" y="77.09" width="2.8" height="0.66" rx="0.24" transform="translate(-30.45 46.24) rotate(-31.33)"/><rect class="cls-28" x="66.25" y="77.53" width="2.8" height="0.66" rx="0.24" transform="translate(-30.62 46.53) rotate(-31.33)"/></g><g id="leher-2" data-name="leher"><rect class="cls-28" x="66.63" y="78.01" width="2.8" height="0.66" rx="0.24" transform="translate(-30.81 46.79) rotate(-31.33)"/><rect class="cls-28" x="67.09" y="78.48" width="2.8" height="0.66" rx="0.24" transform="translate(-30.99 47.1) rotate(-31.33)"/><rect class="cls-28" x="67.46" y="78.98" width="2.8" height="0.66" rx="0.24" transform="translate(-30.43 45.05) rotate(-30)"/><rect class="cls-28" x="67.82" y="79.52" width="2.8" height="0.66" rx="0.24" transform="translate(-31.42 47.63) rotate(-31.33)"/></g><g id="leher-3" data-name="leher"><rect class="cls-28" x="40.27" y="71.59" width="2.8" height="0.66" rx="0.24"/><rect class="cls-28" x="40.25" y="70.96" width="2.8" height="0.66" rx="0.24"/><rect class="cls-28" x="40.26" y="70.32" width="2.8" height="0.66" rx="0.24"/><rect class="cls-28" x="40.27" y="69.68" width="2.8" height="0.66" rx="0.24"/><rect class="cls-28" x="40.25" y="69.05" width="2.8" height="0.66" rx="0.24"/><rect class="cls-28" x="40.26" y="68.41" width="2.8" height="0.66" rx="0.24"/></g><g id="leher-4" data-name="leher"><rect class="cls-28" x="40.22" y="69.09" width="2.8" height="0.66" rx="0.24"/><rect class="cls-28" x="40.21" y="67.83" width="2.8" height="0.66" rx="0.24"/><rect class="cls-28" x="40.22" y="67.18" width="2.8" height="0.66" rx="0.24"/><rect class="cls-28" x="40.21" y="66.55" width="2.8" height="0.66" rx="0.24"/><rect class="cls-28" x="40.21" y="65.92" width="2.8" height="0.66" rx="0.24"/></g><g id="telinga"><rect class="cls-29" x="43.14" y="61.76" width="2.25" height="3.52" rx="0.74"/><rect class="cls-29" x="62.44" y="61.71" width="2.25" height="3.52" rx="0.74"/><path class="cls-30" d="M62.53,64.44a1.11,1.11,0,0,0,2.07,0"/><path class="cls-30" d="M43.24,64.5a1.12,1.12,0,0,0,2.07,0"/></g><g id="telinga-2" data-name="telinga"><path class="cls-29" d="M42.71,72.63h.54a.86.86,0,0,1,.86.86V75.3a.86.86,0,0,1-.86.85l-.83-.06a2.84,2.84,0,0,1-1.31-.59,3,3,0,0,1-1-1.84l0-1Z"/><rect class="cls-31" x="40.06" y="72.12" width="3.97" height="0.55"/></g><g id="telinga-3" data-name="telinga"><path class="cls-29" d="M64.74,75.71h-.53a.86.86,0,0,1-.86-.86V73a.86.86,0,0,1,.86-.86l.82.07a2.81,2.81,0,0,1,1.32.59,3,3,0,0,1,1,1.84l0,1Z"/><rect class="cls-31" x="63.43" y="75.66" width="3.97" height="0.55" transform="translate(130.83 151.87) rotate(-180)"/></g><path class="cls-29" d="M63.13,64.91c0,4.46-18.35,4.46-18.35,0s4.11-8.07,9.18-8.07S63.13,60.45,63.13,64.91Z"/><rect class="cls-32" x="47.86" y="60.3" width="11.82" height="4.1" rx="1.46"/><circle class="cls-8" cx="57.28" cy="62.34" r="1.62"/><circle class="cls-8" cx="50.33" cy="62.34" r="1.62"/><circle class="cls-33" cx="50.8" cy="62.56" r="1.1"/><circle class="cls-33" cx="57.75" cy="62.56" r="1.1"/><ellipse class="cls-34" cx="51.17" cy="62.86" rx="0.37" ry="0.29"/><ellipse class="cls-34" cx="58.12" cy="62.86" rx="0.37" ry="0.29"/><path class="cls-35" d="M55.86,66.81a13,13,0,0,1-2,.13,15.57,15.57,0,0,1-2-.13c-.29,0-.52-.16-.52-.35s.23-.35.52-.35a16.38,16.38,0,0,0,1.93.14,15.21,15.21,0,0,0,2.1-.14c.29,0,.52.16.52.35S56.15,66.81,55.86,66.81Z"/><path class="cls-29" d="M61.53,85.54l-15.4-.09a1.33,1.33,0,0,1-1.25-.92,28.15,28.15,0,0,1-1.35-8.09,28.77,28.77,0,0,1,.14-3.31A1.33,1.33,0,0,1,45,71.94H62.76a1.33,1.33,0,0,1,1.32,1.26c0,1.07.06,2.22,0,3.44a35.61,35.61,0,0,1-1.28,7.92A1.33,1.33,0,0,1,61.53,85.54Z"/><g id="leher-5" data-name="leher"><rect class="cls-28" x="50.6" y="68.32" width="6.75" height="0.66" rx="0.24"/><rect class="cls-28" x="50.58" y="68.96" width="6.75" height="0.66" rx="0.24"/><rect class="cls-28" x="50.59" y="69.59" width="6.75" height="0.66" rx="0.24"/><rect class="cls-28" x="50.6" y="70.23" width="6.75" height="0.66" rx="0.24"/><rect class="cls-28" x="50.58" y="70.87" width="6.75" height="0.66" rx="0.24"/><rect class="cls-28" x="50.59" y="71.5" width="6.75" height="0.66" rx="0.24"/></g><rect class="cls-36" x="46.61" y="81.25" width="13.98" height="2.53" rx="0.57"/><rect class="cls-8" x="47.57" y="81.5" width="0.66" height="1.96"/><rect class="cls-8" x="48.73" y="81.5" width="0.66" height="1.96"/><rect class="cls-8" x="49.89" y="81.5" width="0.66" height="1.96"/><rect class="cls-8" x="51.04" y="81.5" width="0.66" height="1.96"/><rect class="cls-8" x="52.2" y="81.5" width="0.66" height="1.96"/><rect class="cls-8" x="53.36" y="81.5" width="0.66" height="1.96"/><rect class="cls-8" x="54.52" y="81.5" width="0.66" height="1.96"/><rect class="cls-8" x="55.68" y="81.5" width="0.66" height="1.96"/><rect class="cls-8" x="56.83" y="81.5" width="0.66" height="1.96"/><rect class="cls-8" x="57.99" y="81.5" width="0.66" height="1.96"/><rect class="cls-8" x="59.15" y="81.5" width="0.66" height="1.96"/><path class="cls-36" d="M54.84,81.17H52.16A9.14,9.14,0,0,0,51,78.94c-1.05-1.5-1.91-1.78-2.56-2.82A5.44,5.44,0,0,1,47.94,72H59.17a5.55,5.55,0,0,1-.44,4c-.61,1-1.4,1.35-2.52,2.84A11.37,11.37,0,0,0,54.84,81.17Z"/><path class="cls-8" d="M54.34,81.09H52.7a11.06,11.06,0,0,0-.72-2c-.65-1.35-1.19-1.62-1.59-2.56a7.08,7.08,0,0,1-.29-3.76,2.14,2.14,0,0,1,1.63-.4c.88.2,1.12,1.11,1.76,1.06s.64-.76,1.32-1.06a2.52,2.52,0,0,1,2.2.4,6.08,6.08,0,0,1-.27,3.63c-.37,1-.86,1.22-1.55,2.58A13,13,0,0,0,54.34,81.09Z"/><ellipse class="cls-37" cx="43.4" cy="64.78" rx="0.46" ry="0.48"/><ellipse class="cls-37" cx="42.08" cy="63.36" rx="0.36" ry="0.6" transform="translate(-25.09 99.05) rotate(-84.39)"/><ellipse class="cls-37" cx="40.9" cy="63.53" rx="0.36" ry="0.6" transform="translate(-26.32 98.03) rotate(-84.39)"/><ellipse class="cls-37" cx="40.28" cy="64.08" rx="0.37" ry="0.6" transform="translate(-30.47 91) rotate(-78.68)"/><ellipse class="cls-37" cx="41.64" cy="64.76" rx="1.65" ry="1.3"/><ellipse class="cls-37" cx="68.35" cy="81.5" rx="0.46" ry="0.48" transform="translate(-21.64 24.8) rotate(-17.8)"/><ellipse class="cls-37" cx="70.04" cy="82.45" rx="0.6" ry="0.36" transform="translate(-15.84 16.66) rotate(-12.19)"/><ellipse class="cls-37" cx="71.11" cy="81.92" rx="0.6" ry="0.36" transform="translate(-15.7 16.87) rotate(-12.19)"/><ellipse class="cls-37" cx="71.54" cy="81.21" rx="0.6" ry="0.37" transform="translate(-8.71 8.6) rotate(-6.48)"/><ellipse class="cls-37" cx="70.03" cy="80.98" rx="1.65" ry="1.3" transform="translate(-21.4 25.29) rotate(-17.8)"/><path class="cls-37" d="M60.89,86.46l-14-.07-.15-.92H61.15Z"/><rect class="cls-28" x="46.83" y="86.19" width="14.09" height="0.66" rx="0.24"/><rect class="cls-28" x="47.09" y="86.83" width="13.58" height="0.66" rx="0.24"/><rect class="cls-28" x="47.33" y="87.49" width="13.07" height="0.66" rx="0.24"/><rect class="cls-28" x="47.61" y="88.17" width="12.52" height="0.66" rx="0.24"/><rect class="cls-28" x="47.83" y="88.85" width="12.04" height="0.66" rx="0.24"/><rect class="cls-28" x="48.05" y="89.55" width="11.51" height="0.66" rx="0.24"/><rect class="cls-28" x="48.26" y="90.19" width="11.09" height="0.66" rx="0.24"/><rect class="cls-28" x="48.45" y="90.86" width="10.67" height="0.66" rx="0.24"/><rect class="cls-28" x="48.68" y="91.54" width="10.22" height="0.66" rx="0.24"/><rect class="cls-28" x="48.86" y="92.22" width="9.83" height="0.66" rx="0.24"/><rect class="cls-28" x="48.96" y="92.88" width="9.52" height="0.66" rx="0.24"/><rect class="cls-28" x="49.14" y="93.52" width="9.18" height="0.66" rx="0.24"/><rect class="cls-28" x="49.3" y="94.18" width="8.83" height="0.66" rx="0.24"/><rect class="cls-28" x="49.48" y="94.87" width="8.46" height="0.66" rx="0.24"/><rect class="cls-28" x="49.63" y="95.55" width="8.14" height="0.66" rx="0.24"/><rect class="cls-38" x="49.96" y="98.54" width="2.72" height="0.94" rx="0.34"/><rect class="cls-38" x="55.13" y="98.54" width="2.72" height="0.94" rx="0.34"/><rect class="cls-37" x="47.68" y="96.22" width="12.04" height="2.75" rx="0.7"/><rect class="cls-36" x="45.09" y="51.01" width="0.2" height="11.06"/><rect class="cls-37" x="44.78" y="49.55" width="0.78" height="1.47" rx="0.16"/><path class="cls-39" d="M40.63,65.2a1.23,1.23,0,0,0,.49.34,1.52,1.52,0,0,0,1.13,0"/><path class="cls-39" d="M40.24,64.59a1,1,0,0,0,.13.32l0,0"/><path class="cls-39" d="M71.21,80.64a1,1,0,0,0-.26-.38,1.29,1.29,0,0,0-.87-.3"/><path class="cls-39" d="M71.32,81.18a1.07,1.07,0,0,0,0-.27v0"/></g><line class="cls-40" x1="46.98" y1="66.13" x2="48.16" y2="64.95"/><line class="cls-40" x1="46.93" y1="65.62" x2="47.66" y2="64.89"/><line class="cls-40" x1="47.16" y1="84.93" x2="47.97" y2="84.12"/><line class="cls-40" x1="47.13" y1="84.58" x2="47.63" y2="84.08"/><line class="cls-40" x1="58.67" y1="84.93" x2="59.48" y2="84.12"/><line class="cls-40" x1="58.64" y1="84.58" x2="59.14" y2="84.08"/><line class="cls-40" x1="60.94" y1="74.11" x2="62.13" y2="72.92"/><line class="cls-40" x1="60.9" y1="73.59" x2="61.63" y2="72.86"/><line class="cls-40" x1="45.26" y1="74.5" x2="46.44" y2="73.32"/><line class="cls-40" x1="45.21" y1="73.99" x2="45.94" y2="73.26"/><line class="cls-40" x1="55.68" y1="97.92" x2="56.68" y2="96.92"/><line class="cls-40" x1="55.66" y1="97.5" x2="56.28" y2="96.88"/><line class="cls-40" x1="53.39" y1="98" x2="54.39" y2="97"/><line class="cls-40" x1="53.37" y1="97.58" x2="53.98" y2="96.96"/><line class="cls-40" x1="51.1" y1="98.08" x2="52.1" y2="97.08"/><line class="cls-40" x1="51.08" y1="97.66" x2="51.69" y2="97.04"/><line class="cls-40" x1="59.8" y1="66.12" x2="60.99" y2="64.94"/><line class="cls-40" x1="59.76" y1="65.61" x2="60.49" y2="64.88"/><path class="cls-40" d="M50,58a14.79,14.79,0,0,1,4.19-.51"/><line class="cls-40" x1="55.83" y1="57.52" x2="55.12" y2="57.44"/><path class="cls-40" d="M52.85,58.11a4.11,4.11,0,0,1,.63-.16,4.18,4.18,0,0,1,1.44,0"/><path class="cls-39" d="M45.53,77.07a1.24,1.24,0,0,1,.32-.46,1.5,1.5,0,0,1,1.06-.35"/><path class="cls-39" d="M45.4,77.73a1.06,1.06,0,0,1,0-.32.09.09,0,0,0,0,0"/></g></g><g id="hijau"><path class="cls-41" d="M53.72,45.17c-.58,1.62-2,2.42-3.42,3.2-1.65.91-3,1.67-4.63,1.31S43,48,41.93,46.38c-.86-1.23-1.77-2.52-1.63-4.2,0-.51.2-2.48,1.86-3.07a4,4,0,0,1,3.76.86c.79.74.74,1.55,1.33,1.66s.84-.69,1.81-1.08a4.18,4.18,0,0,1,4.08.79C54.6,42.7,53.87,44.75,53.72,45.17Z"/><path class="cls-42" d="M45.4,49.55A31.33,31.33,0,0,0,41.16,63.9l.58-3.1"/><path class="cls-43" d="M53.06,43.64A2.75,2.75,0,0,0,52.85,42a1,1,0,0,0-.31-.35,2.24,2.24,0,0,0-2-.08c-.28.15-.15.56.22.63a2.89,2.89,0,0,0,.72,0c.24,0,.53,0,.62.16a3.31,3.31,0,0,1,.52,2.42A2.65,2.65,0,0,0,53.06,43.64Z"/></g><g id="ungu"><g id="balon"><path class="cls-21" d="M39.05,43.83c.22,1.81-.7,3.24-1.6,4.62-1.05,1.62-1.93,3-3.54,3.37s-3.15-.47-4.85-1.47c-1.33-.79-2.73-1.62-3.37-3.29-.2-.51-1-2.47.26-3.79a3.79,3.79,0,0,1,3.75-.88c1,.34,1.38,1.14,1.95,1s.44-1,1.12-1.86a4,4,0,0,1,4-1.1C38.71,41.06,39,43.35,39.05,43.83Z"/><path class="cls-42" d="M34.28,51.67A14.09,14.09,0,0,1,41.16,63.9l.58-3.1"/></g><path class="cls-44" d="M26.25,45.35a2.75,2.75,0,0,1,.21-1.69,1,1,0,0,1,.31-.36,2.21,2.21,0,0,1,2-.07c.28.15.15.55-.22.63a3.47,3.47,0,0,1-.72,0c-.24,0-.53,0-.62.15a3.33,3.33,0,0,0-.52,2.43A2.7,2.7,0,0,1,26.25,45.35Z"/></g><g id="pink"><path class="cls-42" d="M39.93,46.1c-.75,2,.68,4.11,1.27,6.16,1.13,3.89-.75,7.84-.06,11.75l0-4"/><path class="cls-45" d="M46.43,40.23c-.21,1.76-1.44,2.89-2.64,4-1.41,1.29-2.58,2.36-4.23,2.37s-3-1.15-4.38-2.49a6.69,6.69,0,0,1-2.5-3.86c-.07-.53-.34-2.55,1.15-3.52a3.91,3.91,0,0,1,3.85,0c.94.56,1.07,1.39,1.67,1.37s.67-.88,1.53-1.5A4.07,4.07,0,0,1,45,36.5C46.75,37.54,46.49,39.77,46.43,40.23Z"/><path class="cls-46" d="M45.17,39.08a2.71,2.71,0,0,0-.2-1.7,1.24,1.24,0,0,0-.31-.35,2.23,2.23,0,0,0-2-.07c-.28.15-.14.55.22.63a3.47,3.47,0,0,0,.72,0,.88.88,0,0,1,.63.15,3.32,3.32,0,0,1,.52,2.42A2.46,2.46,0,0,0,45.17,39.08Z"/></g><line class="cls-26" x1="46.27" y1="99.95" x2="68.11" y2="99.93"/><line class="cls-26" x1="42.93" y1="100.93" x2="62.2" y2="100.93"/><line class="cls-26" x1="47.93" y1="101.93" x2="67.2" y2="101.93"/><path class="cls-47" d="M72,85.82a1.11,1.11,0,0,1-.47.63,1.15,1.15,0,0,1-.72.34,1.1,1.1,0,0,1-.69-.46,1,1,0,0,1-.36-.65.57.57,0,0,1,.22-.56.64.64,0,0,1,.63,0c.14.1.16.24.26.24s.11-.13.26-.23a.67.67,0,0,1,.68,0A.62.62,0,0,1,72,85.82Z"/><line class="cls-26" x1="41.93" y1="102.93" x2="61.2" y2="102.93"/><path class="cls-48" d="M144,106"/><g id="pacman" class="cls-49"><circle class="cls-50" cx="71.24" cy="90.45" r="0.67" transform="translate(-7.56 6.51) rotate(-4.97)"/><path id="mouth" class="cls-51" d="M70.93,91.83a1.46,1.46,0,0,1-1.59-1.2,1.48,1.48,0,0,1,1.29-1.54,1.74,1.74,0,0,1,1.21.32l-.35.46-.43.54c.2.21.36.38.48.49l.45.44h0v.11c0,.15,0,.29,0,.29h0l-.35,0C71.43,91.8,71.18,91.81,70.93,91.83Z"/><ellipse class="cls-51" cx="70.87" cy="90.51" rx="0.37" ry="0.34" transform="translate(-7.57 6.47) rotate(-4.97)"/></g></g><path class="cls-48" d="M-80.62-26"/><ellipse class="cls-52" cx="68.01" cy="38.26" rx="4.65" ry="1.44" transform="translate(-3.41 69.71) rotate(-53.13)"/><ellipse class="cls-53" cx="66.81" cy="42.17" rx="3.2" ry="1.02" transform="translate(-7.01 70.31) rotate(-53.13)"/><ellipse class="cls-52" cx="76.81" cy="32.17" rx="3.2" ry="1.02" transform="translate(-6.27 37.84) rotate(-26.63)"/><ellipse class="cls-52" cx="75.61" cy="35.35" rx="1.6" ry="0.51" transform="translate(-7.82 37.64) rotate(-26.63)"/><circle class="cls-52" cx="78.65" cy="53.68" r="5.77"/><circle class="cls-53" cx="83.08" cy="57.11" r="2.34"/><circle class="cls-52" cx="87.08" cy="49.18" r="3.42"/><circle class="cls-52" cx="92.18" cy="52.08" r="1.52"/></g></g></svg>