<svg id="gitcoin_bot" xmlns="http://www.w3.org/2000/svg" xmlns:xlink="http://www.w3.org/1999/xlink" viewBox="0 0 307.56 395.56"><defs><style>.cls-1,.cls-10,.cls-26,.cls-39,.cls-5,.cls-8,.cls-9{fill:none;}.cls-2{clip-path:url(#clip-path);}.cls-3{fill:#190b3c;}.cls-4{fill:#81469b;}.cls-11,.cls-20,.cls-21,.cls-24,.cls-26,.cls-27,.cls-29,.cls-34,.cls-39,.cls-4{stroke:#190b3c;}.cls-10,.cls-11,.cls-18,.cls-20,.cls-21,.cls-24,.cls-26,.cls-27,.cls-29,.cls-34,.cls-35,.cls-39,.cls-4,.cls-5,.cls-8,.cls-9{stroke-miterlimit:10;}.cls-20,.cls-24,.cls-26,.cls-27,.cls-29,.cls-4{stroke-width:0.81px;}.cls-5{stroke:#81469b;stroke-width:9.41px;}.cls-29,.cls-6{fill:#62c08c;}.cls-7{clip-path:url(#clip-path-2);}.cls-10,.cls-8,.cls-9{stroke:#48b978;}.cls-10,.cls-11,.cls-8,.cls-9{stroke-width:1.08px;}.cls-15,.cls-8{opacity:0.6;}.cls-13,.cls-9{opacity:0.8;}.cls-11{fill:url(#radial-gradient);}.cls-12{fill:#48b978;}.cls-14{opacity:0.95;}.cls-16,.cls-35{fill:#fff;}.cls-17{fill:#f1f2f2;}.cls-18,.cls-30{fill:#ed166d;}.cls-18{stroke:#ed166d;}.cls-18,.cls-21{stroke-width:0.54px;}.cls-19{opacity:0.9;}.cls-20,.cls-21,.cls-25{fill:#e6e7e8;}.cls-22{fill:#d1d3d4;}.cls-23,.cls-24{fill:#bcbec0;}.cls-27{fill:#d3d5d6;}.cls-28{clip-path:url(#clip-path-4);}.cls-31{fill:#ffce0b;}.cls-32{clip-path:url(#clip-path-5);}.cls-33{clip-path:url(#clip-path-6);}.cls-34{fill:#4a53a4;}.cls-34,.cls-39{stroke-width:1.61px;}.cls-35{font-size:3.23px;stroke:#f1f2f2;stroke-width:0.27px;font-family:MyriadPro-Regular, Myriad Pro;letter-spacing:0.4em;}.cls-36{letter-spacing:0.37em;}.cls-37{letter-spacing:0.38em;}.cls-38{clip-path:url(#clip-path-7);}.cls-40{clip-path:url(#clip-path-8);}</style><clipPath id="clip-path" transform="translate(117.5 36.64)"><polygon id="clip_hexagon" class="cls-1" points="52.08 2.46 4.64 30.01 4.64 85.1 52.08 112.64 99.79 85.1 99.79 30.01 52.08 2.46"/></clipPath><clipPath id="clip-path-2" transform="translate(117.5 36.64)"><path class="cls-1" d="M179.43,210.46c0,73-62,148.46-148.46,148.46A148.47,148.47,0,1,1,31,62c1.18,0,3.51-.05,6.78,0A136.33,136.33,0,0,1,87.14,73s3,1.31,6,2.73C107.56,82.76,179.45,131.88,179.43,210.46Z"/></clipPath><radialGradient id="radial-gradient" cx="194.51" cy="80.85" r="23.76" gradientUnits="userSpaceOnUse"><stop offset="0" stop-color="#190b3c"/><stop offset="0.17" stop-color="#1a0d3f"/><stop offset="0.28" stop-color="#1f1348"/><stop offset="0.38" stop-color="#261e57"/><stop offset="0.47" stop-color="#302d6d"/><stop offset="0.55" stop-color="#3d4089"/><stop offset="0.61" stop-color="#4a53a4"/></radialGradient><clipPath id="clip-path-4" transform="translate(117.5 36.64)"><path class="cls-1" d="M39.26,59.13H33.73A20.57,20.57,0,0,0,13.16,79.7V81a13.85,13.85,0,0,1,7.72,12.42,13.76,13.76,0,0,1-.49,3.66A20.45,20.45,0,0,0,33.73,102h5.53A20.57,20.57,0,0,0,59.83,81.47V79.7A20.57,20.57,0,0,0,39.26,59.13Z"/></clipPath><clipPath id="clip-path-5" transform="translate(117.5 36.64)"><path class="cls-1" d="M54.7,44.58c0,10.24-9.08,11.24-19.86,11.24-6.92,0-11.48-8.2-11.48-12.3,0-12,10-15.44,12.52-15.41C45.93,28.26,54.7,34.72,54.7,44.58Z"/></clipPath><clipPath id="clip-path-6" transform="translate(117.5 36.64)"><circle class="cls-1" cx="18.92" cy="75.15" r="8.41"/></clipPath><clipPath id="clip-path-7" transform="translate(117.5 36.64)"><polygon class="cls-1" points="49.82 0 49.85 9.19 91.88 33.46 99.82 28.87 49.82 0"/></clipPath><clipPath id="clip-path-8" transform="translate(117.5 36.64)"><polygon class="cls-1" points="49.81 115.48 49.78 106.3 7.75 82.03 -0.18 86.62 49.81 115.48"/></clipPath></defs><g id="main"><g id="background"><g class="cls-2"><g id="background-2" data-name="background"><circle class="cls-3" cx="159.09" cy="170.58" r="148.47"/><path class="cls-4" d="M63.78,10.35a40.35,40.35,0,1,0,40.34,40.34A40.38,40.38,0,0,0,63.78,10.35ZM77,26.37a14,14,0,0,1,5.63,1.18,18.31,18.31,0,0,1,8.26,10.61,14.32,14.32,0,0,1,.18,2.28A14.07,14.07,0,1,1,77,26.37ZM60.77,40.44a16.22,16.22,0,0,0,29.78,8.9A18.21,18.21,0,1,1,71.71,25.11,16.23,16.23,0,0,0,60.77,40.44Zm8.86-18.66c.7,0,1.39,0,2.08.09a21.44,21.44,0,1,0,22,28.07A24.41,24.41,0,1,1,69.63,21.78ZM63.78,83a32.28,32.28,0,0,1-11-62.61,30.85,30.85,0,1,0,37.5,48.76A32.27,32.27,0,0,1,63.78,83Z" transform="translate(117.5 36.64)"/><circle class="cls-5" cx="177.21" cy="94.5" r="56.12"/><polygon class="cls-6" points="272.62 66.63 266.68 50.6 195.49 75.56 254.92 25.93 241.26 15.65 194.87 75.14 218.03 1.25 200.98 0 194.12 75.13 173.66 0.45 158.63 8.61 193.49 75.52 135.89 23.77 127.67 38.75 193.16 76.19 116.73 63.8 117.92 80.85 193.26 76.94 122.26 107.84 132.47 121.54 193.73 77.51 150.67 141.86 166.67 147.87 194.45 77.73 193.01 155.15 209.72 151.56 195.16 77.53 235.82 143.44 247.94 131.38 195.66 76.98 265.5 110.44 269.17 93.74 195.78 76.24 272.62 66.63"/><path class="cls-3" d="M179.43,210.46A148.47,148.47,0,1,1,31,62a131.6,131.6,0,0,1,46.54,7.44C129.66,87.9,179.43,142.51,179.43,210.46Z" transform="translate(117.5 36.64)"/><circle class="cls-6" cx="194.51" cy="76.54" r="9.6"/><g class="cls-7"><circle class="cls-8" cx="185.36" cy="92.68" r="46.36"/><circle class="cls-9" cx="191.01" cy="88.65" r="37.47"/><circle class="cls-10" cx="190.74" cy="87.57" r="27.38"/><circle class="cls-8" cx="182.59" cy="94.77" r="58.4"/></g><circle class="cls-11" cx="194.51" cy="80.85" r="10.93"/></g></g></g><g id="cyberpunk_line"><path class="cls-12" d="M55.17,63.47c-8.22-1-16.63-.3-24.82.74a104.43,104.43,0,0,0-24,6c-.8.3-.45,1.6.36,1.29a104.23,104.23,0,0,1,24.17-6c8-1,16.27-1.7,24.33-.68.86.11.85-1.23,0-1.34Z" transform="translate(117.5 36.64)"/><g class="cls-13"><path class="cls-12" d="M74.87,69.85A35.66,35.66,0,0,1,96.58,86.32a.67.67,0,0,0,1.16-.68A37.05,37.05,0,0,0,75.22,68.55a.67.67,0,0,0-.35,1.3Z" transform="translate(117.5 36.64)"/></g><path class="cls-12" d="M60.28,68a.67.67,0,0,0,0-1.34.67.67,0,0,0,0,1.34Z" transform="translate(117.5 36.64)"/><path class="cls-12" d="M58.13,66.16a44.58,44.58,0,0,0-22.66,5.47c-.76.41-.08,1.58.68,1.16a43.32,43.32,0,0,1,22-5.29.67.67,0,0,0,0-1.34Z" transform="translate(117.5 36.64)"/><path class="cls-12" d="M51.61,74.86A93.74,93.74,0,0,1,24.87,87.7a.67.67,0,0,0,.36,1.3A95.27,95.27,0,0,0,52.29,76c.7-.49,0-1.66-.68-1.16Z" transform="translate(117.5 36.64)"/><g class="cls-14"><path class="cls-12" d="M70.7,72.52A27.19,27.19,0,0,1,82.56,84.38c.4.78,1.56.1,1.17-.68A28.42,28.42,0,0,0,71.38,71.36c-.77-.4-1.45.76-.68,1.16Z" transform="translate(117.5 36.64)"/></g><g class="cls-13"><path class="cls-12" d="M66,75.38a27.52,27.52,0,0,1,6.82,23c-.14.85,1.16,1.21,1.3.36A29,29,0,0,0,67,74.42c-.59-.64-1.54.32-1,1Z" transform="translate(117.5 36.64)"/></g><path class="cls-12" d="M63.51,67.77a15.13,15.13,0,0,0-9.35,4.77c-.58.64.37,1.59,1,.95a13.71,13.71,0,0,1,8.4-4.37.7.7,0,0,0,.67-.68.68.68,0,0,0-.67-.67Z" transform="translate(117.5 36.64)"/><path class="cls-12" d="M68.44,69.09a23.8,23.8,0,0,1,9.66,5.48c.63.59,1.58-.36,1-.95A25.21,25.21,0,0,0,68.8,67.8a.67.67,0,0,0-.36,1.29Z" transform="translate(117.5 36.64)"/><g class="cls-13"><path class="cls-12" d="M61,72a10.46,10.46,0,0,1-5.88,6.59.67.67,0,0,0,.68,1.16,11.79,11.79,0,0,0,6.5-7.39A.67.67,0,0,0,61,72Z" transform="translate(117.5 36.64)"/></g><path class="cls-12" d="M64.86,65.89a10.62,10.62,0,0,0-5.45,1.17.67.67,0,0,0-.24.92.69.69,0,0,0,.92.24,9.47,9.47,0,0,1,4.77-1,.67.67,0,0,0,0-1.34Z" transform="translate(117.5 36.64)"/><g class="cls-13"><path class="cls-12" d="M45.22,65.62A23.26,23.26,0,0,0,30.9,69.75c-.71.49,0,1.65.68,1.16A22,22,0,0,1,45.22,67c.87,0,.87-1.31,0-1.35Z" transform="translate(117.5 36.64)"/></g><g class="cls-13"><path class="cls-12" d="M81.62,74.74a14.23,14.23,0,0,1,6.86,6.15.67.67,0,0,0,1.16-.68A15.56,15.56,0,0,0,82,73.44a.69.69,0,0,0-.83.47.7.7,0,0,0,.47.83Z" transform="translate(117.5 36.64)"/></g><g class="cls-13"><path class="cls-12" d="M90.5,75.28a12.65,12.65,0,0,1,5.89,4.13.68.68,0,0,0,1,0,.7.7,0,0,0,0-1A13.92,13.92,0,0,0,90.86,74c-.83-.27-1.18,1-.36,1.3Z" transform="translate(117.5 36.64)"/></g><g class="cls-15"><path class="cls-12" d="M63.11,81.09a31.66,31.66,0,0,1-10.56,27c-.65.58.3,1.53,1,1a32.9,32.9,0,0,0,11-27.91c-.08-.86-1.43-.87-1.34,0Z" transform="translate(117.5 36.64)"/></g><g class="cls-15"><path class="cls-12" d="M31.7,74.05A69.91,69.91,0,0,1,6,81.22c-.85.07-.86,1.41,0,1.35a71.93,71.93,0,0,0,26.43-7.36c.78-.39.1-1.55-.68-1.16Z" transform="translate(117.5 36.64)"/></g></g><g id="highlight"><path class="cls-16" d="M60.59,65.32A37.71,37.71,0,0,1,67.92,67c.61.2.88-.77.26-1a40.18,40.18,0,0,0-7.59-1.67.52.52,0,0,0-.51.5.53.53,0,0,0,.51.51Z" transform="translate(117.5 36.64)"/><path class="cls-16" d="M2.33,65.21a60.1,60.1,0,0,1,12.1-1.77c.64-.06.64-1.07,0-1A62.07,62.07,0,0,0,2.06,64.24a.5.5,0,0,0,.27,1Z" transform="translate(117.5 36.64)"/><path class="cls-16" d="M70.26,67.83c.76.15,1.52.34,2.26.56a.51.51,0,0,0,.62-.35.52.52,0,0,0-.35-.62c-.74-.22-1.5-.41-2.26-.56a.5.5,0,1,0-.27,1Z" transform="translate(117.5 36.64)"/><path class="cls-16" d="M74.3,68.88c.22.05.45.11.67.18a.34.34,0,0,0,.2,0,.33.33,0,0,0,.19-.06.35.35,0,0,0,.14-.13.46.46,0,0,0,.09-.17.5.5,0,0,0-.35-.62c-.22-.07-.45-.13-.67-.18a.53.53,0,0,0-.39,0,.29.29,0,0,0-.14.13.28.28,0,0,0-.09.17.49.49,0,0,0,0,.39.5.5,0,0,0,.3.23Z" transform="translate(117.5 36.64)"/><path class="cls-16" d="M78.33,70.22l.67.19a.46.46,0,0,0,.2,0,.6.6,0,0,0,.19-.06.44.44,0,0,0,.14-.13.32.32,0,0,0,.09-.17.48.48,0,0,0-.05-.39.55.55,0,0,0-.3-.24c-.22-.07-.44-.13-.67-.18a.53.53,0,0,0-.39,0,.44.44,0,0,0-.14.13.56.56,0,0,0-.09.17A.53.53,0,0,0,78,70a.46.46,0,0,0,.3.23Z" transform="translate(117.5 36.64)"/><path class="cls-17" d="M88.94,74.45a31.48,31.48,0,0,1,5,2.91,12.83,12.83,0,0,1,3.69,4.33c.4.77,1.56.09,1.16-.68a13.73,13.73,0,0,0-3.9-4.6,31.33,31.33,0,0,0-5.22-3.12c-.77-.39-1.45.77-.68,1.16Z" transform="translate(117.5 36.64)"/></g><g id="gem"><polygon class="cls-18" points="194.71 80.76 193.03 77.68 194.71 74.31 196.38 77.68 194.71 80.76"/><g class="cls-19"><path class="cls-17" d="M76.58,39.23l-.24,1.08a.73.73,0,0,0,.06.52.74.74,0,0,0,.41.31.7.7,0,0,0,.51-.07.68.68,0,0,0,.31-.4l.25-1.08a.72.72,0,0,0-.07-.52.69.69,0,0,0-.4-.31.68.68,0,0,0-.52.07.69.69,0,0,0-.31.4Z" transform="translate(117.5 36.64)"/></g></g><g id="bot_and_ufo"><g class="cls-2"><g id="bot"><circle id="left_arm" data-name="left arm" class="cls-20" cx="166.81" cy="103.99" r="6.99"/><rect id="bag" class="cls-21" x="124.88" y="94.36" width="36.62" height="61.04" rx="14.38"/><path class="cls-22" d="M10.8,120.89a1.62,1.62,0,0,1-1.62-1.61V82.43a1.62,1.62,0,0,1,3.23,0v36.85A1.62,1.62,0,0,1,10.8,120.89Z" transform="translate(117.5 36.64)"/><path class="cls-23" d="M10.69,82.43v36.85a.51.51,0,0,0,1,0V82.43a.51.51,0,0,0-1,0Z" transform="translate(117.5 36.64)"/><path class="cls-24" d="M10.32,68.24A13.64,13.64,0,0,0,8.69,76c.23,1.73.75,2.09,1.78,2.44a.69.69,0,0,0,.35,0,2.21,2.21,0,0,0,1.75-2.39,13,13,0,0,1,1.12-6.29,2,2,0,0,0-.43-2.8.75.75,0,0,0-.33-.2C11.85,66.57,11.18,66.71,10.32,68.24Z" transform="translate(117.5 36.64)"/><path class="cls-25" d="M10.54,68.18c-.9,2-1.51,3.56-1.47,5.06A1.92,1.92,0,0,0,10.6,75.4a.51.51,0,0,0,.3,0,1.9,1.9,0,0,0,1.61-2,7.27,7.27,0,0,1,1-3.76,1.85,1.85,0,0,0-.32-2.44,1,1,0,0,0-.29-.18A1.71,1.71,0,0,0,10.54,68.18Z" transform="translate(117.5 36.64)"/><path class="cls-26" d="M10.32,68.24A13.64,13.64,0,0,0,8.69,76c.23,1.73.75,2.09,1.78,2.44a.69.69,0,0,0,.35,0,2.21,2.21,0,0,0,1.75-2.39,13,13,0,0,1,1.12-6.29,2,2,0,0,0-.43-2.8.75.75,0,0,0-.33-.2C11.85,66.57,11.18,66.71,10.32,68.24Z" transform="translate(117.5 36.64)"/><rect id="bag-2" data-name="bag" class="cls-23" x="132.2" y="94.62" width="28.76" height="60.52" rx="14.38"/><g id="body"><rect class="cls-27" x="14.85" y="83.71" width="40.65" height="25.43" rx="12.72" transform="translate(126.88 33.72) rotate(5.49)"/><rect class="cls-27" x="133.54" y="116.48" width="41.08" height="25.43" rx="12.72"/><path class="cls-27" d="M39.53,59.4H34A20.57,20.57,0,0,0,13.43,80V81.3a13.88,13.88,0,0,1,7.72,12.43,13.76,13.76,0,0,1-.49,3.66A20.45,20.45,0,0,0,34,102.31h5.53A20.57,20.57,0,0,0,60.1,81.74V80A20.57,20.57,0,0,0,39.53,59.4Z" transform="translate(117.5 36.64)"/><path class="cls-24" d="M52.75,93.79a13.76,13.76,0,0,1-7.26,3.31c-1.74.16-2.2-.27-2.77-1.2a.58.58,0,0,1-.07-.34,2.19,2.19,0,0,1,1.94-2.23,12.88,12.88,0,0,0,5.89-2.49,2.06,2.06,0,0,1,2.83-.19.78.78,0,0,1,.26.28C54,91.93,54,92.62,52.75,93.79Z" transform="translate(117.5 36.64)"/><path class="cls-25" d="M52.75,93.56a12.17,12.17,0,0,1-4.61,2.55,1.94,1.94,0,0,1-2.45-1,.63.63,0,0,1-.07-.3,1.88,1.88,0,0,1,1.6-2A7.24,7.24,0,0,0,50.68,91a1.83,1.83,0,0,1,2.44-.22.75.75,0,0,1,.25.25A1.71,1.71,0,0,1,52.75,93.56Z" transform="translate(117.5 36.64)"/><path class="cls-26" d="M52.75,93.79a13.76,13.76,0,0,1-7.26,3.31c-1.74.16-2.2-.27-2.77-1.2a.58.58,0,0,1-.07-.34,2.19,2.19,0,0,1,1.94-2.23,12.88,12.88,0,0,0,5.89-2.49,2.06,2.06,0,0,1,2.83-.19.78.78,0,0,1,.26.28C54,91.93,54,92.62,52.75,93.79Z" transform="translate(117.5 36.64)"/><g class="cls-28"><path class="cls-26" d="M30.29,65.62c-.22.68,2.08,1.79,4.38,4.57,4.89,5.92,8.75,17,8.49,19.64,0,.09-.1.33,0,.53.55,1.08,5.47.18,9.27-2.15,4.67-2.86,8.39-5.11,8.39-11.46,0-5-5.54-10.84-8.9-14.36A14.76,14.76,0,0,0,48.83,60a.76.76,0,0,0-.52-.27c-.56,0-.94,1.12-1,1.35-.69,1.82-3.55,3.67-5.15,4.3-.94.37-1.43.32-10.29,0C31.19,65.33,30.4,65.31,30.29,65.62Z" transform="translate(117.5 36.64)"/></g><path class="cls-23" d="M24,88.81a9,9,0,0,1,9.68.67,13.25,13.25,0,0,1,4.88,10c0,1.07.12,1.6,1.26,1.71a13.79,13.79,0,0,0,4.09-.42A18.48,18.48,0,0,0,49,99a15.38,15.38,0,0,0,4.36-3.12c.57-.65-.38-1.61-1-1a14.83,14.83,0,0,1-4.77,3.26,18.32,18.32,0,0,1-5.33,1.59,11.43,11.43,0,0,1-2.1.16,1.53,1.53,0,0,1-.43,0c-.21,0-.14,0,.19.06,0-.27,0-.54,0-.82a16.1,16.1,0,0,0-1.25-5.29,12.64,12.64,0,0,0-6.31-6.66,10.39,10.39,0,0,0-9,.51c-.78.39-.1,1.55.68,1.16Z" transform="translate(117.5 36.64)"/><path class="cls-24" d="M28.4,88.48c-4,0-7.43,3.32-8.73,8a17.81,17.81,0,0,0,13.08,5.87H37.6a16.23,16.23,0,0,0,.09-1.72C37.69,93.9,33.53,88.48,28.4,88.48Z" transform="translate(117.5 36.64)"/><path class="cls-17" d="M49.32,65.13a16.59,16.59,0,0,1,6,6.87,16.16,16.16,0,0,1,1.48,10.12c-.15.84,1.14,1.21,1.3.35A17.65,17.65,0,0,0,56.63,71.6,18.13,18.13,0,0,0,50,64a.68.68,0,0,0-.68,1.17Z" transform="translate(117.5 36.64)"/></g><g id="head"><path class="cls-27" d="M53.09,47.52c0,10.36-2.16,20.66-18.8,20.66-12.68,0-18.71-3.77-18.71-20.66a18.76,18.76,0,1,1,37.51,0Z" transform="translate(117.5 36.64)"/><path class="cls-29" d="M55,44.64C55,55.18,45.7,56.21,34.6,56.21c-7.12,0-11.81-8.44-11.81-12.66,0-12.37,10.28-15.89,12.88-15.85C46,27.85,55,34.5,55,44.64Z" transform="translate(117.5 36.64)"/><path class="cls-20" d="M24.62,56.8l-3.38-9.55a2.71,2.71,0,0,0-3.46-1.64l-1.24.44A2.72,2.72,0,0,0,15,47.45a2.71,2.71,0,0,0-1.59,3.43L16.27,59a2.71,2.71,0,0,0,3.46,1.64h0a2.68,2.68,0,0,0,2,.07L23,60.25A2.7,2.7,0,0,0,24.62,56.8Z" transform="translate(117.5 36.64)"/><rect class="cls-20" x="134.61" y="65.15" width="2.42" height="20.44" rx="1.21"/><path class="cls-24" d="M40.74,62.48a13.65,13.65,0,0,1-8,0c-1.65-.56-1.89-1.14-2-2.22A.63.63,0,0,1,30.8,60a2.21,2.21,0,0,1,2.69-1.24,12.93,12.93,0,0,0,6.39.15,2,2,0,0,1,2.66,1,.78.78,0,0,1,.13.37C42.68,61.31,42.4,61.94,40.74,62.48Z" transform="translate(117.5 36.64)"/><path class="cls-25" d="M40.83,62.27a12.13,12.13,0,0,1-5.24.43c-1.47-.34-1.67-1-1.82-1.92a.58.58,0,0,1,.06-.3,1.89,1.89,0,0,1,2.28-1.18A7.37,7.37,0,0,0,40,59.09a1.83,1.83,0,0,1,2.32.8.82.82,0,0,1,.12.32C42.48,61.19,42.31,62,40.83,62.27Z" transform="translate(117.5 36.64)"/><path class="cls-26" d="M40.74,62.48a13.65,13.65,0,0,1-8,0c-1.65-.56-1.89-1.14-2-2.22A.63.63,0,0,1,30.8,60a2.21,2.21,0,0,1,2.69-1.24,12.93,12.93,0,0,0,6.39.15,2,2,0,0,1,2.66,1,.78.78,0,0,1,.13.37C42.68,61.31,42.4,61.94,40.74,62.48Z" transform="translate(117.5 36.64)"/><circle class="cls-30" cx="153.62" cy="97.77" r="0.87"/><circle class="cls-31" cx="156.04" cy="97.77" r="0.87"/><circle class="cls-12" cx="158.2" cy="96.96" r="0.87"/><path class="cls-17" d="M39.82,33.9l.37,0,.2,0c.28,0-.34-.06,0,0s.87.15,1.3.25a11.64,11.64,0,0,1,3.08,1.13,8.36,8.36,0,0,1,3,2.55,8.24,8.24,0,0,1,.5.8l.22.44c0,.06.05.13.08.19-.05-.12-.05-.11,0,0a8.77,8.77,0,0,1,.35,1.24,1.36,1.36,0,0,0,1.66.93,1.37,1.37,0,0,0,.94-1.65c-1.09-5.38-6.6-8.22-11.66-8.65a1.35,1.35,0,0,0-1.34,1.34,1.38,1.38,0,0,0,1.34,1.35Z" transform="translate(117.5 36.64)"/><path class="cls-17" d="M49.42,46.58l-.27,1.62a1,1,0,0,0,0,.53,1,1,0,0,0,.16.5,1,1,0,0,0,.34.38,1,1,0,0,0,.46.24,1.4,1.4,0,0,0,1-.13l.27-.21a1.29,1.29,0,0,0,.34-.6L52,47.3a1,1,0,0,0,0-.54,1,1,0,0,0-.16-.5,1,1,0,0,0-.35-.37,1,1,0,0,0-.46-.24,1.32,1.32,0,0,0-1,.13l-.27.21a1.33,1.33,0,0,0-.35.59Z" transform="translate(117.5 36.64)"/><g class="cls-32"><path class="cls-12" d="M36.49,29.31c.33,2.15-1.66,3.84-3.26,8.22-1.39,3.81-.42,6.28,2.69,8.87,4.36,3.64,9.79,6.49,13.37,5.38a2.37,2.37,0,0,1,1.83,0c1.53.83,1.56,4.21,1.05,5.75C50.43,62.79,35.59,67,25.51,60.67c-9.06-5.72-13.3-19.39-8.1-27.18A15.84,15.84,0,0,1,31.78,27C32.06,27,36.22,27.59,36.49,29.31Z" transform="translate(117.5 36.64)"/></g></g><g id="right_arm" data-name="right arm"><circle class="cls-20" cx="136.42" cy="111.79" r="8.41"/><rect class="cls-20" x="19.32" y="75.87" width="39.6" height="5.11" rx="2.56" transform="translate(125.25 33.23) rotate(5.54)"/><g class="cls-33"><rect class="cls-26" x="16.41" y="81" width="62.9" height="8.37" rx="4.18" transform="translate(146.59 25.94) rotate(18.25)"/></g><rect class="cls-20" x="38.87" y="71" width="8.07" height="15.28" rx="4.03" transform="translate(77.98 150.39) rotate(-84.46)"/><rect class="cls-20" x="51.34" y="64.76" width="32.06" height="2.83" rx="1.42" transform="translate(277.52 84.53) rotate(124.35)"/><circle class="cls-20" cx="193.98" cy="88.39" r="3.23"/><path class="cls-6" d="M76.71,50.7a1.28,1.28,0,0,1-.6-.16l-4.87-2.8a1.23,1.23,0,0,1-.51-.57l-.12-.28a1.17,1.17,0,0,1-.11-.49v-5a1.22,1.22,0,0,1,2.43,0v4.16a.67.67,0,0,0,.34.58L76.61,48a.69.69,0,0,0,.34.09.67.67,0,0,0,.34-.09l3.29-1.9a.68.68,0,0,0,.34-.59V41.36a1.21,1.21,0,0,1,2.42,0v5.07a1.06,1.06,0,0,1-.08.43l-.1.27a1.22,1.22,0,0,1-.53.61l-4.84,2.8a1.16,1.16,0,0,1-.61.16Z" transform="translate(117.5 36.64)"/><path class="cls-26" d="M76.71,50.7a1.28,1.28,0,0,1-.6-.16l-4.87-2.8a1.23,1.23,0,0,1-.51-.57l-.12-.28a1.17,1.17,0,0,1-.11-.49v-5a1.22,1.22,0,0,1,2.43,0v4.16a.67.67,0,0,0,.34.58L76.61,48a.69.69,0,0,0,.34.09.67.67,0,0,0,.34-.09l3.29-1.9a.68.68,0,0,0,.34-.59V41.36a1.21,1.21,0,0,1,2.42,0v5.07a1.06,1.06,0,0,1-.08.43l-.1.27a1.22,1.22,0,0,1-.53.61l-4.84,2.8a1.16,1.16,0,0,1-.61.16Z" transform="translate(117.5 36.64)"/><circle class="cls-20" cx="159.09" cy="115.17" r="4.03"/><circle class="cls-20" cx="161.78" cy="115.44" r="4.03"/><circle class="cls-20" cx="164.47" cy="115.71" r="4.03"/><rect class="cls-20" x="45.01" y="77.11" width="13.85" height="5.11" rx="2.56" transform="translate(125.43 32) rotate(5.54)"/><circle class="cls-20" cx="173.54" cy="116.63" r="4.92"/><path class="cls-23" d="M52.09,80.61A4.38,4.38,0,0,0,57.75,84a.67.67,0,1,0-.35-1.29l-.45.11s-.26,0-.08,0h-.18a3.73,3.73,0,0,1-.47,0,3.06,3.06,0,0,1-1-.22,4.09,4.09,0,0,1-.46-.25,1.88,1.88,0,0,1-.23-.16l-.11-.09a3.34,3.34,0,0,1-.32-.33L54,81.76l-.12-.17c-.07-.11-.14-.22-.2-.33l-.08-.16s-.09-.2,0-.1l0-.09,0-.13a2.17,2.17,0,0,1-.07-.24c0-.1-.05-.19-.07-.29a.67.67,0,0,0-.82-.47.68.68,0,0,0-.47.83Z" transform="translate(117.5 36.64)"/><path class="cls-23" d="M21.27,78.68l12.91,1.07c.86.08.85-1.27,0-1.34L21.27,77.33c-.87-.07-.86,1.28,0,1.35Z" transform="translate(117.5 36.64)"/><path class="cls-23" d="M47.09,81.1l1.35.11.28,0h.08a.78.78,0,0,1-.33-.09l-.13-1.06h0l.29-.17c.28-.05.2,0,.09,0h-.17a.86.86,0,0,0-.71.18.63.63,0,0,0-.18.57.69.69,0,0,0,.32.49,1.48,1.48,0,0,0,.67.12l1.39.12a.68.68,0,0,0,.68-.67A.71.71,0,0,0,50,80l-1.35-.11-.28,0h-.08a.57.57,0,0,1,.33.09l.13,1h0l-.29.18c-.28,0-.2,0-.09,0l.17,0a.9.9,0,0,0,.71-.19.62.62,0,0,0,.18-.56.67.67,0,0,0-.32-.49,1.36,1.36,0,0,0-.67-.13l-1.39-.12a.68.68,0,1,0,0,1.35Z" transform="translate(117.5 36.64)"/><path class="cls-23" d="M15.28,68.28a7.66,7.66,0,0,0,4.1,14.43c.86,0,.87-1.39,0-1.34A6.32,6.32,0,0,1,16,69.44c.76-.41.08-1.57-.68-1.16Z" transform="translate(117.5 36.64)"/></g></g><g id="ufo"><path class="cls-20" d="M80.61,99.41c-3.92-.6-5.33-5.64-5-8.76s-.84-7.39,3.36-8.88,8.36,4.19,8.33,8.1S84.53,100,80.61,99.41Z" transform="translate(117.5 36.64)"/><path class="cls-29" d="M82.44,94.29c-2.23.1-2.47-3.06-2.26-4.68s-1.78-5.22.25-5.93S85,85.8,85.29,88,84.67,94.18,82.44,94.29Z" transform="translate(117.5 36.64)"/><path class="cls-17" d="M81.28,85.77a4,4,0,0,1,.86.48l-.13-.1a2.52,2.52,0,0,1,.4.4l-.11-.13a2.12,2.12,0,0,1,.33.56l-.06-.16a3.86,3.86,0,0,1,.17.58.68.68,0,0,0,.82.47.67.67,0,0,0,.41-.31A.77.77,0,0,0,84,87a3.28,3.28,0,0,0-.72-1.5A3.56,3.56,0,0,0,82,84.61a.7.7,0,0,0-.51-.07.68.68,0,0,0-.47.83.65.65,0,0,0,.31.4Z" transform="translate(117.5 36.64)"/><path class="cls-23" d="M83.86,94.1a2.83,2.83,0,0,1-2.61.24,2.5,2.5,0,0,1-.86-.82,1.92,1.92,0,0,1-.18-.31,3,3,0,0,1-.13-.28c0-.12-.07-.24-.1-.36a1.16,1.16,0,0,1,0-.18,1.13,1.13,0,0,1,0-.13.7.7,0,0,0-.68-.67.68.68,0,0,0-.67.67,4.2,4.2,0,0,0,2,3.24,3.34,3.34,0,0,0,1.91.4,5.56,5.56,0,0,0,2.06-.64.68.68,0,0,0,.24-.92.7.7,0,0,0-.92-.24Z" transform="translate(117.5 36.64)"/></g></g></g></g><g id="outline"><path class="cls-34" d="M49.82.94.62,29.34V86.15l49.2,28.41L99,86.15V29.34ZM92.67,82.49,49.82,107.23,7,82.49V33L49.82,8.27,92.67,33Z" transform="translate(117.5 36.64)"/><text class="cls-35" transform="matrix(0.87, -0.5, 0.5, 0.87, 183.96, 139.22)">GI<tspan class="cls-36" x="5.44" y="0">T</tspan><tspan class="cls-37" x="8.25" y="0">C</tspan><tspan x="11.34" y="0">OIN</tspan></text><text class="cls-35" transform="matrix(0.87, -0.5, 0.5, 0.87, 136.36, 60.42)">GI<tspan class="cls-36" x="5.44" y="0">T</tspan><tspan class="cls-37" x="8.25" y="0">C</tspan><tspan x="11.34" y="0">OIN</tspan></text><polygon class="cls-3" points="117.33 65.51 125.26 70.13 125.26 118.66 117.33 123.24 117.33 65.51"/><polygon class="cls-3" points="217.25 65.51 209.31 70.13 209.31 118.66 217.25 123.24 217.25 65.51"/><g class="cls-38"><polygon class="cls-6" points="152.99 36.61 150.68 27.97 233.16 75.59 224.57 77.94 152.99 36.61"/><polygon class="cls-39" points="152.99 36.61 150.68 27.97 233.16 75.59 224.57 77.94 152.99 36.61"/></g><g class="cls-40"><polygon class="cls-6" points="101.47 113.18 110.06 110.83 181.64 152.16 183.95 160.8 101.47 113.18"/><polygon class="cls-39" points="101.47 113.18 110.06 110.83 181.64 152.16 183.95 160.8 101.47 113.18"/></g></g><circle id="antenna" class="cls-20" cx="135.69" cy="64.88" r="2.42"/></svg>