<?xml version="1.0" encoding="utf-8"?>
<!-- Generator: Adobe Illustrator 25.0.0, SVG Export Plug-In . SVG Version: 6.00 Build 0)  -->
<svg version="1.1" id="Layer_1" xmlns="http://www.w3.org/2000/svg" xmlns:xlink="http://www.w3.org/1999/xlink" x="0px" y="0px"
	 viewBox="0 0 400.1 400" style="enable-background:new 0 0 400.1 400;" xml:space="preserve">
<style type="text/css">
	.st0{clip-path:url(#SVGID_2_);}
	.st1{fill:#190B3C;}
	.st2{fill:#81469B;stroke:#190B3C;stroke-width:3;stroke-miterlimit:10;}
	.st3{fill:none;stroke:#81469B;stroke-width:35;stroke-miterlimit:10;}
	.st4{fill:#62C08C;}
	.st5{clip-path:url(#SVGID_4_);}
	.st6{opacity:0.6;fill:none;stroke:#48B978;stroke-width:4;stroke-miterlimit:10;enable-background:new    ;}
	.st7{opacity:0.8;fill:none;stroke:#48B978;stroke-width:4;stroke-miterlimit:10;enable-background:new    ;}
	.st8{fill:none;stroke:#48B978;stroke-width:4;stroke-miterlimit:10;}
	.st9{fill:url(#SVGID_5_);stroke:#190B3C;stroke-width:4;stroke-miterlimit:10;}
	.st10{fill:#48B978;}
	.st11{opacity:0.8;}
	.st12{opacity:0.95;}
	.st13{opacity:0.6;}
	.st14{fill:#FFFFFF;}
	.st15{fill:#F1F2F2;}
	.st16{fill:#ED166D;stroke:#ED166D;stroke-width:2;stroke-miterlimit:10;}
	.st17{opacity:0.9;}
	.st18{fill:#E6E7E8;stroke:#190B3C;stroke-width:3;stroke-miterlimit:10;}
	.st19{fill:#62C08C;stroke:#190B3C;stroke-width:3;stroke-miterlimit:10;}
	.st20{fill:#BCBEC0;}
	.st21{fill:#E6E7E8;stroke:#190B3C;stroke-width:2;stroke-miterlimit:10;}
	.st22{fill:#D1D3D4;}
	.st23{fill:#BCBEC0;stroke:#190B3C;stroke-width:3;stroke-miterlimit:10;}
	.st24{fill:#E6E7E8;}
	.st25{fill:none;stroke:#190B3C;stroke-width:3;stroke-miterlimit:10;}
	.st26{fill:#D3D5D6;stroke:#190B3C;stroke-width:3;stroke-miterlimit:10;}
	.st27{clip-path:url(#SVGID_7_);}
	.st28{fill:#ED166D;}
	.st29{fill:#FFCE0B;}
	.st30{clip-path:url(#SVGID_9_);}
	.st31{clip-path:url(#SVGID_11_);}
	.st32{fill:#4A53A4;stroke:#190B3C;stroke-width:6;stroke-miterlimit:10;}
	.st33{font-family:'ArialMT';}
	.st34{font-size:11.6363px;}
	.st35{letter-spacing:4.7;}
	.st36{fill:none;stroke:#F1F2F2;stroke-miterlimit:10;}
	.st37{letter-spacing:3.7;}
	.st38{clip-path:url(#SVGID_13_);}
	.st39{fill:none;stroke:#190B3C;stroke-width:6;stroke-miterlimit:10;}
	.st40{clip-path:url(#SVGID_15_);}
</style>
<g id="Layer_2_1_">
	<g id="gitcoin_bot">
		<g id="main">
			<g>
				<defs>
					<polygon id="SVGID_1_" points="199.2,8.5 8.4,103.9 8.4,294.7 199.2,390.2 390,294.7 390,103.9 					"/>
				</defs>
				<clipPath id="SVGID_2_">
					<use xlink:href="#SVGID_1_"  style="overflow:visible;"/>
				</clipPath>
				<g class="st0">
					<g id="background">
						<ellipse class="st1" cx="157.2" cy="463.9" rx="593.9" ry="514.3"/>
						<path class="st2" d="M246,14.6c-89,0-161.4,72.2-161.4,161s72.4,161,161.4,161s161.4-72.2,161.4-161S335,14.6,246,14.6z
							 M298.9,78.3c7.7,0,15.4,1.6,22.5,4.7c16,9.4,27.8,24.5,33,42.2c5,30.5-15.8,59.3-46.4,64.2c-30.7,5-59.6-15.7-64.6-46.2
							c-5-30.5,15.8-59.3,46.4-64.2C292.8,78.6,295.8,78.3,298.9,78.3z M234,134.3c0,35.6,29,64.5,64.9,64.5
							c21.9,0,42.3-10.9,54.2-29.1c-13.5,37.7-55.1,57.4-93,44c-37.9-13.4-57.7-54.8-44.3-92.5c9.5-26.6,33.7-45.3,62-47.9
							C251.6,82.2,234,106.7,234,134.3L234,134.3z M269.4,60.1c2.8,0,5.6,0.1,8.3,0.4c-47.2,3.7-82.5,44.7-78.8,91.7
							c3.7,46.9,45,82,92.2,78.3c34.5-2.7,63.9-25.7,74.7-58.4c-8.3,53-58.2,89.2-111.5,81s-89.8-57.9-81.5-110.8
							C180.3,95,221.3,60.1,269.4,60.1z M246,303.5c-71.3,0-129.1-57.4-129.1-128.3c0-54,34-102.2,85-120.7
							c-57.1,37-73.2,113-36,169.8S279.6,297,336.7,260c5.4-3.5,10.5-7.4,15.2-11.6C327.8,282.9,288.2,303.4,246,303.5L246,303.5z"
							/>
						<ellipse class="st3" cx="229.7" cy="200.4" rx="224.5" ry="194.4"/>
						<polygon class="st4" points="611.4,103.9 587.6,48.3 302.8,134.8 540.6,-37.1 485.9,-72.7 300.3,133.4 393,-122.6 
							324.8,-126.9 297.4,133.3 215.5,-125.4 155.4,-97.1 294.8,134.7 64.4,-44.6 31.5,7.3 293.5,137 -12.2,94.1 -7.5,153.1 
							293.9,139.6 9.9,246.6 50.8,294 295.8,141.5 123.5,364.4 187.5,385.3 298.7,142.3 292.9,410.5 359.8,398 301.5,141.6 
							464.2,369.9 512.6,328.1 303.5,139.7 582.9,255.6 597.6,197.8 304,137.2 						"/>
						<path class="st1" d="M708.6,729c0,284-265.9,514.3-593.9,514.3S-479.1,1013-479.1,729s265.9-514.3,593.9-514.3
							c20,0,94.9-2.2,186.1,25.8C509.5,304.5,708.6,493.6,708.6,729z"/>
						<ellipse class="st4" cx="298.9" cy="138.2" rx="38.4" ry="38"/>
						<g>
							<defs>
								<path id="SVGID_3_" d="M708.6,729c-0.1,252.7-248.1,514.3-593.9,514.3c-328,0-593.9-230.2-593.9-514.3
									s265.9-514.3,593.9-514.3c4.7,0,14.1-0.2,27.1,0.2c68,1.8,135,14.7,197.6,37.9c0,0,12.2,4.5,23.8,9.4
									C421.1,286.6,708.7,456.8,708.6,729z"/>
							</defs>
							<clipPath id="SVGID_4_">
								<use xlink:href="#SVGID_3_"  style="overflow:visible;"/>
							</clipPath>
							<g class="st5">
								<ellipse class="st6" cx="262.3" cy="194.1" rx="185.5" ry="160.6"/>
								<ellipse class="st7" cx="284.9" cy="180.1" rx="149.9" ry="129.8"/>
								<ellipse class="st8" cx="283.9" cy="176.4" rx="109.5" ry="94.8"/>
								<ellipse class="st6" cx="251.2" cy="201.3" rx="233.6" ry="202.3"/>
							</g>
						</g>
						
							<radialGradient id="SVGID_5_" cx="290.946" cy="1319.4742" r="88.33" gradientTransform="matrix(1.0758 0 0 -1.0709 -14.1 1566.1289)" gradientUnits="userSpaceOnUse">
							<stop  offset="0" style="stop-color:#190B3C"/>
							<stop  offset="0.17" style="stop-color:#1A0D3F"/>
							<stop  offset="0.28" style="stop-color:#1F1348"/>
							<stop  offset="0.38" style="stop-color:#261E57"/>
							<stop  offset="0.47" style="stop-color:#302D6D"/>
							<stop  offset="0.55" style="stop-color:#3D4089"/>
							<stop  offset="0.61" style="stop-color:#4A53A4"/>
						</radialGradient>
						<ellipse class="st9" cx="298.9" cy="153.1" rx="43.7" ry="43.5"/>
					</g>
					<g id="cyberpunk_line">
						<path class="st10" d="M211.6,219.9c-24.6-2.8-49.8-1.8-74.4,0.2c-28.1,2.2-55.9,5.9-83.2,12.4c-12.8,3.1-25.4,6.7-37.8,10.8
							c-1.4,0.4-2.2,1.6-1.9,2.9c0.4,1.2,1.9,2,3.3,1.6c23.3-7.8,47.3-13.7,71.9-17.6c14.3-2.3,28.7-3.8,43.2-5.1
							c13.3-1.1,26.7-2,40.1-2.2c13-0.3,26,0.2,38.8,1.6c1.5,0,2.7-1,2.7-2.3C214.2,220.9,213,219.9,211.6,219.9L211.6,219.9z"/>
						<g class="st11">
							<path class="st10" d="M290.3,241.9c11.3,2.6,22.2,6.4,32.5,11.2c15,7,28.4,16.4,39.5,27.5c5.6,5.7,10.6,11.9,14.9,18.4
								c1.7,2.6,6.4,0.3,4.6-2.3c-8.5-12.9-19.7-24.4-32.9-33.9c-12-8.6-25.5-15.4-39.9-20.4c-5.6-1.9-11.4-3.6-17.2-4.9
								C288.4,236.7,287,241.2,290.3,241.9L290.3,241.9z"/>
						</g>
						<path class="st10" d="M232,235.7c3.5,0,3.5-4.7,0-4.7S228.5,235.7,232,235.7z"/>
						<path class="st10" d="M223.4,229.2c-26-0.7-51.9,3.7-75.8,12.7c-5.1,1.9-10,4-14.8,6.3c-3,1.4-0.3,5.5,2.7,4
							c20.6-9.8,43.4-15.9,66.8-17.8c7-0.5,14.1-0.7,21.1-0.5C226.9,233.9,226.9,229.3,223.4,229.2L223.4,229.2z"/>
						<path class="st10" d="M197.3,259.3c-25.9,15.7-54.1,28.4-83.8,37.8c-7.7,2.4-15.4,4.6-23.2,6.6c-3.3,0.8-1.9,5.3,1.4,4.5
							c14.7-3.8,29.2-8.3,43.3-13.6c15.4-5.8,30.3-12.4,44.7-19.9c6.9-3.6,13.7-7.4,20.3-11.4c1.3-0.7,1.7-2.1,1-3.2
							C200.2,259,198.6,258.6,197.3,259.3L197.3,259.3z"/>
						<g class="st12">
							<path class="st10" d="M273.7,251.2c20.6,8.9,37.2,23.3,47.4,41.1c1.6,2.7,6.2,0.3,4.6-2.4c-9-15.3-22.5-28.3-39.2-37.6
								c-3.3-1.9-6.7-3.5-10.2-5.1C273.3,245.8,270.6,249.8,273.7,251.2L273.7,251.2z"/>
						</g>
						<g class="st11">
							<path class="st10" d="M254.8,261.1c8.2,7.7,14.8,16.5,19.7,26.1c6.2,12.3,9.3,25.6,9.1,39c0,2.8-0.2,5.6-0.5,8.4
								c-0.3,2.4-0.5,3.8-1,6.2c-0.3,1.2,0.5,2.5,1.9,2.9c1.4,0.3,2.9-0.4,3.3-1.6c2.1-10.8,2.2-21.7,0.3-32.5
								c-2.5-13.9-8.4-27.1-17.4-38.9c-3.5-4.5-7.3-8.8-11.6-12.8C256.3,255.6,252.5,258.9,254.8,261.1L254.8,261.1z"/>
						</g>
						<path class="st10" d="M244.9,234.8c-14.3,1.5-27.6,7.3-37.4,16.5c-2.3,2.2,1.5,5.5,3.8,3.3c8.8-8.3,20.7-13.7,33.6-15.2
							c1.5,0,2.7-1.1,2.7-2.3C247.6,235.8,246.4,234.8,244.9,234.8z"/>
						<path class="st10" d="M264.6,239.3c14.4,3.6,27.7,10.1,38.6,19c2.5,2,6.3-1.2,3.8-3.3c-11.6-9.4-25.7-16.3-41-20.2
							C262.7,234,261.3,238.5,264.6,239.3z"/>
						<g class="st11">
							<path class="st10" d="M234.8,249.5c-3.6,10.2-12.2,18.6-23.5,22.8c-1.3,0.7-1.7,2.1-1,3.2c0.8,1.1,2.4,1.4,3.7,0.8
								c12.6-4.8,22.1-14.2,26-25.6C241,247.8,235.8,246.6,234.8,249.5L234.8,249.5z"/>
						</g>
						<path class="st10" d="M250.3,228.2c-7.6-0.3-15.1,1.1-21.8,4.1c-1.3,0.6-1.8,2-1.2,3.1c0.7,1.1,2.3,1.6,3.6,1
							c0.1,0,0.2-0.1,0.3-0.1c5.9-2.6,12.5-3.7,19.1-3.4c1.5,0,2.7-1,2.7-2.3C253,229.3,251.8,228.3,250.3,228.2z"/>
						<g class="st11">
							<path class="st10" d="M171.8,227.3c-16.4-0.7-32.8,2.5-47.3,9c-3.5,1.6-6.8,3.3-10,5.3c-1.3,0.7-1.7,2.1-1,3.2
								c0.8,1.1,2.4,1.5,3.7,0.8c12.9-7.9,28.1-12.6,43.9-13.6c3.6-0.2,7.2-0.2,10.8-0.1C175.2,232.1,175.2,227.5,171.8,227.3
								L171.8,227.3z"/>
						</g>
						<g class="st11">
							<path class="st10" d="M317.4,258.9c0.6,0.2,1.9,0.7,2.8,1.1c1.2,0.5,2.5,1.1,3.7,1.7c2.8,1.4,5.5,3,8,4.8
								c5.2,3.8,9.6,8.5,12.9,13.6c1.7,2.6,6.3,0.3,4.6-2.4c-6.9-10.6-17.7-18.8-30.7-23.4c-1.4-0.3-2.9,0.4-3.3,1.6
								C315.1,257.2,315.9,258.5,317.4,258.9L317.4,258.9z"/>
						</g>
						<g class="st11">
							<path class="st10" d="M352.9,260.7c9.3,2.7,17.5,7.7,23.6,14.3c1.1,0.9,2.8,0.9,3.8,0c1-0.9,1-2.4,0-3.3
								c-6.7-7.2-15.7-12.6-25.9-15.5C351,255.3,349.6,259.8,352.9,260.7z"/>
						</g>
						<g class="st13">
							<path class="st10" d="M243.3,280.8c1.9,14.9,0.2,29.9-5,44.1c-5.1,14-13.5,27-24.6,38.1c-3.9,4-8.2,7.7-12.7,11.1
								c-1.1,0.9-1.1,2.4-0.1,3.3c1,0.9,2.7,0.9,3.8,0.1c0,0,0,0,0.1-0.1c9.8-7.4,18.3-16.1,25.2-25.7c15.2-21.2,21.7-46.2,18.7-71
								c0-1.3-1.2-2.3-2.7-2.3C244.6,278.5,243.4,279.6,243.3,280.8L243.3,280.8z"/>
						</g>
						<g class="st13">
							<path class="st10" d="M117.7,256.5c-25.5,11.1-52.9,18.7-81.1,22.6c-7.3,1-14.6,1.7-21.9,2.2c-1.5,0-2.7,1.1-2.7,2.3
								c0,1.3,1.2,2.3,2.7,2.3c29.5-2,58.5-7.9,85.9-17.7c6.7-2.4,13.3-5,19.8-7.8C123.5,259.1,120.8,255.1,117.7,256.5L117.7,256.5
								z"/>
						</g>
					</g>
					<g id="highlight">
						<path class="st14" d="M233.3,226.2c10,1,19.8,2.9,29.3,5.7c2.5,0.7,3.5-2.7,1.1-3.4c-9.9-2.8-20.1-4.7-30.4-5.8
							c-1.1,0-2,0.8-2,1.7C231.3,225.4,232.2,226.2,233.3,226.2z"/>
						<path class="st14" d="M0.2,225.9c4.1-1.1,8.2-2,12.4-2.7c4.3-0.6,8.7-1,13.1-1.5c5.9-0.6,11.7-1.2,17.6-1.6l5.3-0.4
							c2.6-0.2,2.6-3.7,0-3.5c-11.7,0.8-23.4,1.9-35.1,3.3c-4.9,0.7-9.7,1.7-14.4,3C-3.4,223.1-2.3,226.5,0.2,225.9z"/>
						<path class="st14" d="M271.9,234.9c3,0.5,6.1,1.2,9,1.9c1.1,0.3,2.2-0.3,2.5-1.2c0.3-0.9-0.3-1.9-1.4-2.1l0,0
							c-3-0.8-6-1.4-9.1-2c-1.1-0.2-2.2,0.4-2.4,1.3C270.3,233.8,270.9,234.7,271.9,234.9L271.9,234.9z"/>
						<path class="st14" d="M288.1,238.6c0.9,0.2,1.8,0.4,2.7,0.6c0.3,0.1,0.5,0.1,0.8,0c0.3,0,0.5-0.1,0.7-0.2
							c0.2-0.1,0.4-0.3,0.6-0.4c0.2-0.2,0.3-0.4,0.4-0.6c0.1-0.5,0.1-0.9-0.2-1.3c-0.3-0.4-0.7-0.7-1.2-0.8
							c-0.9-0.3-1.8-0.5-2.7-0.6c-0.5-0.1-1.1-0.1-1.6,0.2c-0.2,0.1-0.4,0.3-0.6,0.5c-0.2,0.2-0.3,0.4-0.4,0.6
							c-0.1,0.5-0.1,0.9,0.2,1.4C287.1,238.1,287.6,238.4,288.1,238.6L288.1,238.6z"/>
						<path class="st14" d="M304.2,243.2c0.9,0.2,1.8,0.4,2.7,0.6c0.3,0.1,0.5,0.1,0.8,0c0.3,0,0.5-0.1,0.7-0.2
							c0.2-0.1,0.4-0.3,0.6-0.4c0.2-0.2,0.3-0.4,0.4-0.6c0.1-0.5,0.1-0.9-0.2-1.3c-0.3-0.4-0.7-0.7-1.2-0.8
							c-0.9-0.2-1.8-0.5-2.7-0.6c-0.5-0.1-1.1-0.1-1.6,0.2c-0.2,0.1-0.4,0.3-0.6,0.5c-0.2,0.2-0.3,0.4-0.4,0.6
							c-0.1,0.5-0.1,0.9,0.2,1.4C303.3,242.8,303.7,243.1,304.2,243.2L304.2,243.2z"/>
						<path class="st15" d="M352,259.7c6.9,3,13.5,6,19.7,10c6.2,4,11.3,9.1,14.9,15.1c1.6,2.7,6.2,0.3,4.6-2.4
							c-3.9-6.4-9.4-11.9-16-16.2c-6.4-4.2-13.3-7.4-20.4-10.5C351.7,254.4,348.9,258.4,352,259.7L352,259.7z"/>
					</g>
					<g id="gem">
						<polygon class="st16" points="299.7,152.8 293,142.1 299.7,130.4 306.4,142.1 						"/>
						<g class="st17">
							<path class="st15" d="M297.2,135.9l-1,3.7c-0.2,0.6-0.1,1.2,0.3,1.8c0.7,1.1,2.4,1.5,3.6,0.8c0,0,0,0,0,0
								c0.6-0.3,1-0.8,1.2-1.4l1-3.7c0.2-0.6,0.1-1.2-0.3-1.8c-0.4-0.5-0.9-0.9-1.6-1.1c-0.7-0.2-1.4-0.1-2.1,0.2
								C297.8,134.8,297.4,135.3,297.2,135.9L297.2,135.9z"/>
						</g>
					</g>
					<g id="ufo">
						<path class="st18" d="M313.3,344.3c-15.7-2.1-21.3-19.6-20.1-30.3c1.3-10.8-3.3-25.6,13.5-30.7c16.8-5.1,33.4,14.5,33.4,28.1
							C340,324.8,329,346.4,313.3,344.3z"/>
						<path class="st19" d="M320.6,326.6c-8.9,0.4-9.9-10.6-9-16.2c0.9-5.6-7.1-18.1,1-20.5c8.1-2.4,18.4,7.4,19.4,15.1
							C333.1,312.6,329.5,326.2,320.6,326.6z"/>
						<path class="st15" d="M316,297.1c1.2,0.4,2.4,1,3.5,1.7l-0.5-0.4c0.6,0.4,1.1,0.9,1.6,1.4l-0.4-0.5c0.5,0.6,1,1.3,1.3,2
							l-0.3-0.5c0.3,0.6,0.5,1.3,0.7,2c0.2,0.6,0.6,1.1,1.2,1.4c0.6,0.3,1.4,0.4,2.1,0.2c0.7-0.2,1.2-0.6,1.6-1.1
							c0.3-0.6,0.4-1.2,0.3-1.8c-0.4-1.9-1.4-3.7-2.9-5.2c-1.5-1.4-3.3-2.5-5.4-3.2c-0.6-0.3-1.4-0.4-2.1-0.2
							c-0.7,0.2-1.2,0.5-1.6,1.1c-0.4,0.5-0.5,1.2-0.3,1.8C314.9,296.3,315.4,296.8,316,297.1L316,297.1z"/>
						<path class="st20" d="M326.3,325.9c-3.4,1.4-7.1,2.4-10.4,0.8c-1.4-0.7-2.6-1.6-3.5-2.8c-0.3-0.4-0.5-0.7-0.7-1.1
							c-0.2-0.3-0.4-0.6-0.5-0.9c-0.2-0.4-0.3-0.8-0.4-1.2c-0.1-0.2-0.1-0.4-0.2-0.6c0-0.1-0.1-0.7-0.1-0.4c0-1.3-1.2-2.3-2.7-2.3
							c-1.5,0-2.7,1-2.7,2.3c0.6,4.5,3.3,8.9,8,11.2c2.3,1.1,5,1.6,7.6,1.4c2.9-0.3,5.7-1,8.3-2.2c1.3-0.7,1.7-2.1,1-3.2
							C329.2,325.7,327.6,325.4,326.3,325.9L326.3,325.9z"/>
					</g>
				</g>
				<g id="bot" class="st0">
					<circle id="left_arm" class="st18" cx="189" cy="235.7" r="26"/>
					<path id="bag" class="st21" d="M86.5,199.9h29.2c29.5,0,53.5,23.9,53.5,53.5v120c0,29.5-23.9,53.5-53.5,53.5H86.5
						C57,426.9,33,402.9,33,373.4v-120C33,223.9,57,199.9,86.5,199.9z"/>
					<path class="st22" d="M45.7,434.8c-3.3,0-6-2.7-6-6v-137c0-3.3,2.7-6,6-6s6,2.7,6,6v137C51.7,432.1,49.1,434.8,45.7,434.8
						L45.7,434.8z"/>
					<path class="st20" d="M45.4,291.8V412c0,5.5-0.2,11.1,0,16.6v0.2c0.1,1,1,1.8,2,1.7c0.9-0.1,1.7-0.8,1.7-1.7V308.6
						c0-5.5,0.2-11.1,0-16.6c0-0.1,0-0.2,0-0.2c-0.1-1-1-1.8-2-1.7C46.2,290.1,45.4,290.8,45.4,291.8z"/>
					<path class="st23" d="M44,239c-4.6,8.2-7.2,19.8-6,29c0.8,6.4,2.8,7.8,6.6,9.1c0.4,0.1,0.9,0.1,1.3,0c3.4-1,6.5-3.1,6.5-8.9
						c0-8.3,0.3-15.8,4.2-23.4c2.7-5.3,1-7.8-1.6-10.4c-0.4-0.3-0.8-0.6-1.3-0.7C49.6,232.8,47.1,233.3,44,239z"/>
					<path class="st24" d="M44.8,238.8c-3.4,7.6-5.6,13.2-5.5,18.8s2.3,6.8,5.7,8c0.4,0.1,0.8,0.1,1.1,0c3-0.7,5.9-2.5,6-7.5
						c0.1-7.2,1.4-9,3.7-14c2.1-4.6,1-6.7-1.2-9c-0.3-0.3-0.7-0.5-1.1-0.7C49.9,233.6,47.1,233.7,44.8,238.8z"/>
					<path class="st25" d="M44,239c-4.6,8.2-7.2,19.8-6,29c0.8,6.4,2.8,7.8,6.6,9.1c0.4,0.1,0.9,0.1,1.3,0c3.4-1,6.5-3.1,6.5-8.9
						c0-8.3,0.3-15.8,4.2-23.4c2.7-5.3,1-7.8-1.6-10.4c-0.4-0.3-0.8-0.6-1.3-0.7C49.6,232.8,47.1,233.3,44,239z"/>
					<path id="bag-2" class="st20" d="M113.7,200.9L113.7,200.9c29.5,0,53.5,23.9,53.5,53.5v118.1c0,29.5-23.9,53.5-53.5,53.5l0,0
						c-29.5,0-53.5-23.9-53.5-53.5V254.3C60.3,224.8,84.2,200.9,113.7,200.9z"/>
					<g id="body">
						<path class="st26" d="M112.7,294.1l56.3,5.4c26,2.5,45,25.6,42.5,51.6l0,0c-2.5,26-25.6,45-51.6,42.5l-56.3-5.4
							c-26-2.5-45-25.6-42.5-51.6l0,0C63.6,310.6,86.7,291.6,112.7,294.1z"/>
						<path class="st26" d="M112.5,282.1h58.2c26.1,0,47.3,21.2,47.3,47.3v0c0,26.1-21.2,47.3-47.3,47.3h-58.2
							c-26.1,0-47.3-21.2-47.3-47.3v0C65.2,303.3,86.4,282.1,112.5,282.1z"/>
						<path class="st26" d="M152.6,206.2H132c-42.2,0-76.5,34.2-76.5,76.5v5c22.1,10.9,33.4,36,26.9,59.8
							c13.8,11.8,31.4,18.3,49.6,18.3h20.6c42.2,0,76.5-34.2,76.5-76.5l0,0v-6.6C229.1,240.4,194.8,206.2,152.6,206.2z"/>
						<path class="st23" d="M201.7,334c-7,6.3-17.7,11.4-27,12.3c-6.5,0.6-8.2-1-10.3-4.4c-0.2-0.4-0.3-0.8-0.3-1.3
							c0.2-3.5,1.6-7.1,7.2-8.3c8.1-1.8,15.4-3.8,21.9-9.2c4.5-3.8,7.4-2.6,10.5-0.7c0.4,0.3,0.8,0.6,1,1.1
							C206.5,327.1,206.5,329.7,201.7,334z"/>
						<path class="st24" d="M201.7,333.2c-6.6,4.9-11.7,8.4-17.1,9.5s-7.1-0.7-9.1-3.8c-0.2-0.3-0.3-0.7-0.3-1.1
							c0.1-3.1,1.1-6.3,6-7.5c7-1.7,8.5-3.4,12.9-6.7c4.1-3.1,6.3-2.5,9.1-0.8c0.4,0.2,0.7,0.5,0.9,0.9
							C205.6,327,206.2,329.8,201.7,333.2z"/>
						<path class="st25" d="M201.7,334c-7,6.3-17.7,11.4-27,12.3c-6.5,0.6-8.2-1-10.3-4.4c-0.2-0.4-0.3-0.8-0.3-1.3
							c0.2-3.5,1.6-7.1,7.2-8.3c8.1-1.8,15.4-3.8,21.9-9.2c4.5-3.8,7.4-2.6,10.5-0.7c0.4,0.3,0.8,0.6,1,1.1
							C206.5,327.1,206.5,329.7,201.7,334z"/>
						<g>
							<defs>
								<path id="SVGID_6_" d="M151.6,205.2H131c-42.2,0-76.5,34.2-76.5,76.5v5c22.1,10.9,33.4,36,26.9,59.8
									c13.8,11.8,31.4,18.3,49.6,18.3h20.6c42.2,0,76.5-34.2,76.5-76.5l0,0v-6.6C228.1,239.4,193.8,205.2,151.6,205.2z"/>
							</defs>
							<clipPath id="SVGID_7_">
								<use xlink:href="#SVGID_6_"  style="overflow:visible;"/>
							</clipPath>
							<g class="st27">
								<path class="st25" d="M118.2,229.3c-0.8,2.5,7.7,6.7,16.3,17c18.2,22,32.5,63,31.6,73c-0.2,0.6-0.2,1.4,0,2
									c2,4,20.3,0.7,34.4-8c17.4-10.6,31.2-19,31.2-42.6c0-18.4-20.6-40.3-33.1-53.4c-3.4-3.5-7.3-6.5-11.5-9
									c-0.5-0.6-1.2-0.9-1.9-1c-2.1,0.1-3.5,4.1-3.8,5c-2.6,6.8-13.2,13.7-19.1,16c-3.5,1.4-5.3,1.2-38.3,0
									C121.6,228.2,118.6,228.1,118.2,229.3z"/>
							</g>
						</g>
						<path class="st20" d="M94.9,315.5c1.4-0.7,2.8-1.3,3.8-1.8c2.1-0.8,4.3-1.5,6.6-1.9c5.7-1.1,11.6-0.6,17,1.4
							c8,3,14.9,9.5,19.4,16.9c2.6,4.4,4.6,9.2,5.8,14.2c0.7,2.7,1.1,5.4,1.4,8.2c0.1,1.5,0.2,3,0.2,4.5c0,1.2-0.1,2.3,0.8,3.2
							c1.8,1.9,5.5,1.4,7.8,1.3c4.7-0.3,9.3-1,13.9-2.2c6.1-1.5,11.9-3.8,17.2-6.9c5.2-3.1,11-6.1,15-10.9c0.9-1,0.9-2.5,0-3.5
							c-1-1-2.6-1-3.5,0c-3.3,4-8,6.5-12.3,9.1c-4.8,2.9-9.9,5.2-15.3,6.7c-4.4,1.3-9,2.2-13.6,2.6c-1.6,0.2-3.2,0.2-4.8,0.1
							l-0.9-0.1c-0.3,0,0.6,0.2,0.2,0c-0.1,0-0.2-0.1-0.4-0.1c-0.1,0-0.3-0.1-0.5-0.1c0.4,0,0.6,0.3,0.3,0.1
							c0.3,0.2,0.5,0.4,0.7,0.7c0.2,0.3,0.2,1.7,0.3,0.7c0-0.4,0-0.7,0-1c0-0.8,0-1.5-0.1-2.3c-0.1-1.5-0.2-3-0.4-4.4
							c-0.4-2.9-0.9-5.8-1.7-8.6c-1.4-5.1-3.5-10-6.3-14.5c-4.9-8.1-12.3-14.5-21-18.2c-10.7-4.4-22.2-2.7-32.3,2.4
							C89.5,312.6,92,316.9,94.9,315.5L94.9,315.5z"/>
						<path class="st23" d="M111.2,314.3c-14.9,0-27.6,12.3-32.5,29.6c12.5,13.5,29.7,21.8,48.6,21.8h18c0.2-2.1,0.4-4.3,0.4-6.4
							C145.7,334.4,130.3,314.3,111.2,314.3z"/>
						<path class="st15" d="M189,227.4c1.2,0.7,2.3,1.5,3.4,2.3c0.6,0.4,0.7,0.6,1.5,1.2s1.6,1.4,2.4,2.1c3.7,3.4,6.9,7.1,9.8,11.2
							c8.8,12.1,12.8,27,11.4,41.8c-0.1,0.5-0.1,1-0.2,1.6l-0.1,0.6c0,0.2,0,0.1,0-0.1c0,0.1,0,0.3-0.1,0.4
							c-0.1,0.7-0.2,1.5-0.4,2.2c-0.3,1.3,0.4,2.7,1.8,3.1c1.3,0.4,2.7-0.4,3.1-1.7c1.8-9.7,1.4-19.7-1.2-29.2
							c-3.5-12.2-10.2-23.2-19.3-32c-2.9-2.9-6.1-5.4-9.6-7.6C188.7,221.5,186.2,225.8,189,227.4L189,227.4z"/>
					</g>
					<g id="head">
						<path class="st26" d="M203,162c0,38.5-8,76.8-69.9,76.8c-47.2,0-69.6-14-69.6-76.8c-0.5-38.5,30.4-70.1,68.9-70.6
							c38.5-0.5,70.1,30.4,70.6,68.9C203,160.9,203,161.4,203,162L203,162z"/>
						<path class="st19" d="M210.2,151.3c0,39.2-34.7,43-76,43c-26.5,0-43.9-31.4-43.9-47.1c0-46,38.2-59.1,47.9-58.9
							C176.7,88.9,210.2,113.6,210.2,151.3z"/>
						<path class="st18" d="M97.1,196.5L84.6,161c-1.9-5.2-7.6-8-12.8-6.1l-4.6,1.6c-2.5,0.9-4.6,2.8-5.8,5.2
							c-5.1,1.9-7.8,7.6-5.9,12.8l10.7,30.1c1.9,5.2,7.6,8,12.8,6.1l0,0c2.3,1,5,1.1,7.4,0.3l4.7-1.7
							C96.3,207.5,99,201.7,97.1,196.5z"/>
						<path class="st18" d="M73.7,91.3L73.7,91.3c2.5,0,4.5,2,4.5,4.5v67c0,2.5-2,4.5-4.5,4.5l0,0c-2.5,0-4.5-2-4.5-4.5v-67
							C69.2,93.3,71.3,91.3,73.7,91.3z"/>
						<path class="st23" d="M157.1,217.6c-8.9,2.9-20.8,3.2-29.7,0.1c-6.1-2.1-7.1-4.3-7.6-8.3c0-0.4,0.1-0.9,0.3-1.2
							c1.6-3.1,4.3-5.8,10-4.6c8.1,1.7,15.6,2.9,23.8,0.6c5.7-1.6,7.8,0.6,9.9,3.6c0.3,0.4,0.4,0.9,0.5,1.4
							C164.3,213.3,163.3,215.6,157.1,217.6z"/>
						<path class="st24" d="M157.4,216.8c-8.1,1.8-14.1,2.9-19.5,1.6s-6.2-3.6-6.8-7.1c0-0.4,0-0.8,0.2-1.1c1.3-2.8,3.6-5.3,8.5-4.4
							c7.1,1.3,9.1,0.4,14.4-0.8c5-1.1,6.7,0.4,8.6,3c0.2,0.4,0.4,0.8,0.4,1.2C163.5,212.8,162.9,215.6,157.4,216.8z"/>
						<path class="st25" d="M157.1,217.6c-8.9,2.9-20.8,3.2-29.7,0.1c-6.1-2.1-7.1-4.3-7.6-8.3c0-0.4,0.1-0.9,0.3-1.2
							c1.6-3.1,4.3-5.8,10-4.6c8.1,1.7,15.6,2.9,23.8,0.6c5.7-1.6,7.8,0.6,9.9,3.6c0.3,0.4,0.4,0.9,0.5,1.4
							C164.3,213.3,163.3,215.6,157.1,217.6z"/>
						<circle class="st28" cx="139.9" cy="212.6" r="3.2"/>
						<circle class="st29" cx="148.9" cy="212.6" r="3.2"/>
						<circle class="st10" cx="156.9" cy="209.6" r="3.2"/>
						<path class="st15" d="M153.7,111.3c0.7,0.1,1.5,0.1,2.2,0.2s-1.4-0.2-0.5-0.1l0.8,0.1c0.6,0.1,1.2,0.2,1.8,0.3
							c3.1,0.6,6.1,1.4,9,2.5l1.3,0.5c0.2,0.1,0.9,0.3-0.2-0.1c0.2,0.1,0.4,0.2,0.6,0.3c0.9,0.4,1.8,0.8,2.6,1.2
							c1.7,0.9,3.4,1.9,5,3l0.6,0.4c0.6,0.4-0.6-0.5-0.1-0.1c0.4,0.3,0.7,0.6,1.1,0.9c0.9,0.8,1.8,1.6,2.7,2.5
							c0.4,0.4,0.7,0.8,1.1,1.2c0.2,0.2,1.2,1.5,0.6,0.7c0.6,0.8,1.2,1.7,1.8,2.6c0.6,0.9,1.1,1.9,1.5,2.8c0.1,0.2,0.2,0.4,0.3,0.6
							c0.4,0.8-0.3-0.7-0.1-0.2c0.2,0.4,0.3,0.8,0.5,1.2c0.5,1.3,0.8,2.6,1.1,4c0.7,2.7,3.5,4.2,6.1,3.5c0,0,0,0,0,0
							c2.6-0.8,4.2-3.5,3.5-6.1c-3.4-16.9-19.2-27.6-35.2-31c-2.7-0.6-5.4-1-8.1-1.2c-2.6-0.2-5.1,2.5-5,5c0.1,2.7,2.3,4.9,5,5
							L153.7,111.3z"/>
						<path class="st15" d="M189.3,158.5c-0.3,2-0.7,4-1,6c-0.3,1.3-0.1,2.7,0.5,3.9c0.7,1.1,1.8,1.9,3,2.3c1.3,0.4,2.7,0.2,3.9-0.5
							l1-0.8c0.6-0.6,1.1-1.4,1.3-2.2c0.3-2,0.7-4,1-6c0.3-1.3,0.1-2.7-0.5-3.9c-0.7-1.1-1.8-1.9-3-2.3c-1.3-0.3-2.7-0.2-3.9,0.5
							l-1,0.8C190,156.9,189.6,157.7,189.3,158.5L189.3,158.5z"/>
						<g>
							<defs>
								<path id="SVGID_8_" d="M209,151.1c0,38.1-33.7,41.8-73.8,41.8c-25.7,0-42.7-30.5-42.7-45.7c0-44.7,37.2-57.4,46.6-57.3
									C176.4,90.4,209,114.4,209,151.1z"/>
							</defs>
							<clipPath id="SVGID_9_">
								<use xlink:href="#SVGID_8_"  style="overflow:visible;"/>
							</clipPath>
							<g class="st30">
								<path class="st10" d="M141.3,94.3c1.2,8-6.2,14.3-12.1,30.6c-5.2,14.2-1.6,23.4,10,33c16.2,13.5,36.4,24.1,49.7,20
									c1.2-0.4,4.2-1.4,6.8,0c5.7,3.1,5.8,15.7,3.9,21.4c-6.5,19.6-61.6,35.3-99.1,11.7C66.8,189.6,51,138.8,70.3,109.8
									c11-16.4,33.9-27,53.4-24.3C124.8,85.7,140.3,87.9,141.3,94.3z"/>
							</g>
						</g>
					</g>
					<g id="right_arm">
						<circle class="st18" cx="76" cy="264.7" r="31.3"/>
						<path class="st18" d="M88.1,261.2l127.7,12.4c5.2,0.5,9,5.2,8.5,10.4l0,0c-0.5,5.2-5.2,9-10.4,8.5L86.3,280.1
							c-5.2-0.5-9-5.2-8.5-10.4l0,0C78.3,264.5,82.9,260.7,88.1,261.2z"/>
						<g>
							<defs>
								<circle id="SVGID_10_" cx="76" cy="264.7" r="31.3"/>
							</defs>
							<clipPath id="SVGID_11_">
								<use xlink:href="#SVGID_10_"  style="overflow:visible;"/>
							</clipPath>
							<g class="st31">
								<path class="st25" d="M92.2,255.5L284.7,319c8.2,2.7,12.6,11.5,9.9,19.7l0,0c-2.7,8.2-11.5,12.6-19.7,9.9L82.4,285.1
									c-8.2-2.7-12.6-11.5-9.9-19.7l0,0C75.2,257.3,84,252.8,92.2,255.5z"/>
							</g>
						</g>
						<path class="st18" d="M136.8,275L136.8,275c0.8-8.2,8.1-14.3,16.4-13.5l26.7,2.6c8.2,0.8,14.3,8.1,13.5,16.4l0,0
							c-0.8,8.2-8.1,14.3-16.4,13.5l-26.7-2.6C142.1,290.5,136,283.2,136.8,275z"/>
						<path class="st18" d="M297.8,190.3l-68.2,84.6c-1.8,2.3-5.1,2.6-7.4,0.8h0c-2.3-1.8-2.6-5.1-0.8-7.4l68.2-84.6
							c1.8-2.3,5.1-2.6,7.4-0.8h0C299.3,184.7,299.6,188,297.8,190.3z"/>
						<circle class="st18" cx="299" cy="177.7" r="12"/>
						<path class="st4" d="M298.8,173.8c-0.8,0-1.6-0.2-2.2-0.6l-18.1-10.4c-0.8-0.5-1.5-1.2-1.9-2.1l-0.5-1
							c-0.3-0.6-0.4-1.2-0.4-1.8v-18.8c-0.2-2.5,1.6-4.7,4.1-4.9s4.7,1.6,4.9,4.1c0,0.3,0,0.6,0,0.8v15.4c0,0.9,0.5,1.7,1.3,2.2
							l12.4,7.1c0.4,0.2,0.8,0.3,1.2,0.3c0.4,0,0.9-0.1,1.3-0.3l12.2-7.1c0.8-0.5,1.2-1.3,1.2-2.2v-15.5c-0.2-2.5,1.6-4.7,4.1-4.9
							c2.5-0.2,4.7,1.6,4.9,4.1c0,0.3,0,0.6,0,0.8v18.8c0,0.6-0.1,1.1-0.3,1.6l-0.4,1c-0.4,1-1.1,1.8-2,2.3l-18,10.4
							c-0.7,0.4-1.5,0.6-2.2,0.6L298.8,173.8z"/>
						<path class="st25" d="M298.8,173.8c-0.8,0-1.6-0.2-2.2-0.6l-18.1-10.4c-0.8-0.5-1.5-1.2-1.9-2.1l-0.5-1
							c-0.3-0.6-0.4-1.2-0.4-1.8v-18.8c-0.2-2.5,1.6-4.7,4.1-4.9s4.7,1.6,4.9,4.1c0,0.3,0,0.6,0,0.8v15.4c0,0.9,0.5,1.7,1.3,2.2
							l12.4,7.1c0.4,0.2,0.8,0.3,1.2,0.3c0.4,0,0.9-0.1,1.3-0.3l12.2-7.1c0.8-0.5,1.2-1.3,1.2-2.2v-15.5c-0.2-2.5,1.6-4.7,4.1-4.9
							c2.5-0.2,4.7,1.6,4.9,4.1c0,0.3,0,0.6,0,0.8v18.8c0,0.6-0.1,1.1-0.3,1.6l-0.4,1c-0.4,1-1.1,1.8-2,2.3l-18,10.4
							c-0.7,0.4-1.5,0.6-2.2,0.6L298.8,173.8z"/>
						<circle class="st18" cx="160.2" cy="277.3" r="15"/>
						<circle class="st18" cx="170.2" cy="278.3" r="15"/>
						<circle class="st18" cx="180.2" cy="279.3" r="15"/>
						<path class="st18" d="M183.4,270.5l32.4,3.1c5.2,0.5,9,5.2,8.5,10.4l0,0c-0.5,5.2-5.2,9-10.4,8.5l-32.4-3.1
							c-5.2-0.5-9-5.2-8.5-10.4l0,0C173.6,273.8,178.2,270,183.4,270.5z"/>
						<circle class="st18" cx="214" cy="282.7" r="18.3"/>
						<path class="st20" d="M199.3,285c1.5,8.9,10,14.8,18.9,13.3c0.7-0.1,1.5-0.3,2.2-0.5c1.3-0.4,2.1-1.8,1.7-3.1
							c-0.4-1.3-1.7-2.1-3.1-1.7c-0.5,0.2-1.1,0.3-1.7,0.4c-0.1,0-0.9,0.1-0.3,0.1l-0.7,0.1c-0.6,0-1.2,0-1.8,0
							c-1.3,0-2.5-0.3-3.7-0.8c-0.6-0.3-1.2-0.6-1.7-0.9c-0.3-0.2-0.6-0.4-0.9-0.6c0.3,0.2-0.3-0.3-0.4-0.4
							c-0.4-0.4-0.8-0.8-1.2-1.2c-0.1-0.1-0.6-0.7-0.2-0.3c-0.2-0.2-0.3-0.4-0.4-0.6c-0.3-0.4-0.5-0.8-0.7-1.2l-0.3-0.6
							c0-0.1-0.3-0.7-0.2-0.4s-0.1-0.3-0.1-0.3s-0.1-0.3-0.2-0.5c-0.1-0.3-0.2-0.6-0.3-0.9c-0.1-0.4-0.2-0.7-0.2-1.1
							c-0.4-1.3-1.7-2.1-3.1-1.7C199.7,282.3,198.9,283.6,199.3,285L199.3,285z"/>
						<path class="st20" d="M84.7,277.8l48,4c1.4,0,2.5-1.1,2.5-2.5c0-1.4-1.1-2.5-2.5-2.5l-48-4c-1.4,0-2.5,1.1-2.5,2.5
							C82.2,276.7,83.3,277.8,84.7,277.8z"/>
						<path class="st20" d="M180.7,286.8l5,0.4l1,0.1h0.2h0.1c-0.4,0-0.9-0.1-1.2-0.3l-0.5-3.9l0,0l1.1-0.6c1-0.2,0.7-0.1,0.3-0.1
							H186c-0.9-0.2-1.9,0.1-2.6,0.7c-0.6,0.5-0.8,1.3-0.7,2.1c0.1,0.8,0.5,1.4,1.2,1.8c0.8,0.4,1.6,0.5,2.5,0.5l5.2,0.4
							c1.4,0,2.5-1.1,2.5-2.5c0-1.4-1.1-2.5-2.5-2.5l-5-0.4l-1-0.1h-0.2h-0.1c0.4,0,0.9,0.1,1.2,0.3l0.5,3.9l0,0l-1.1,0.6
							c-1,0.2-0.7,0.1-0.3,0.1h0.6c0.9,0.2,1.9-0.1,2.6-0.7c0.6-0.5,0.8-1.3,0.7-2.1c-0.1-0.8-0.5-1.4-1.2-1.8
							c-0.8-0.3-1.6-0.5-2.5-0.5l-5.2-0.4c-1.4,0-2.5,1.1-2.5,2.5C178.2,285.7,179.3,286.8,180.7,286.8L180.7,286.8z"/>
						<path class="st20" d="M62.4,239.2c-13.9,7.3-19.3,24.5-12,38.5c2.7,5.2,6.9,9.4,12.1,12.1c4.7,2.4,9.9,3.5,15.2,3.1
							c3.2-0.2,3.2-5.2,0-5c-12.9,1.1-24.3-8.5-25.4-21.4c-0.8-9.5,4.2-18.6,12.7-22.9C67.8,242,65.2,237.7,62.4,239.2L62.4,239.2z"
							/>
					</g>
				</g>
			</g>
		</g>
		<g id="outline">
			<path class="st32" d="M199.8,3.2L3,101.6v196.8l196.8,98.4l196.8-98.4V101.6L199.8,3.2z M371.2,285.7l-171.4,85.7L28.4,285.7
				V114.3l171.4-85.7l171.4,85.7V285.7z"/>
			<text transform="matrix(0.9608 -0.4804 0.5547 0.832 266.3693 355.2639)" class="st14 st33 st34 st35">GI</text>
			<text transform="matrix(0.9608 -0.4804 0.5547 0.832 266.3693 355.2639)" class="st36 st33 st34 st35">GI</text>
			<text transform="matrix(0.9608 -0.4804 0.5547 0.832 285.2083 345.8453)" class="st14 st33 st34 st37">T</text>
			<text transform="matrix(0.9608 -0.4804 0.5547 0.832 285.2083 345.8453)" class="st36 st33 st34 st37">T</text>
			<text transform="matrix(0.9608 -0.4804 0.5547 0.832 294.9356 340.9821)" class="st14 st33 st34 st37">C</text>
			<text transform="matrix(0.9608 -0.4804 0.5547 0.832 294.9356 340.9821)" class="st36 st33 st34 st37">C</text>
			<text transform="matrix(0.9608 -0.4804 0.5547 0.832 305.6594 335.6208)" class="st14 st33 st34 st35">OIN</text>
			<text transform="matrix(0.9608 -0.4804 0.5547 0.832 305.6594 335.6208)" class="st36 st33 st34 st35">OIN</text>
			<text transform="matrix(0.9608 -0.4804 0.5547 0.832 75.9439 82.2994)" class="st14 st33 st34 st35">GI</text>
			<text transform="matrix(0.9608 -0.4804 0.5547 0.832 75.9439 82.2994)" class="st36 st33 st34 st35">GI</text>
			<text transform="matrix(0.9608 -0.4804 0.5547 0.832 94.7829 72.8808)" class="st14 st33 st34 st37">T</text>
			<text transform="matrix(0.9608 -0.4804 0.5547 0.832 94.7829 72.8808)" class="st36 st33 st34 st37">T</text>
			<text transform="matrix(0.9608 -0.4804 0.5547 0.832 104.5102 68.0176)" class="st14 st33 st34 st37">C</text>
			<text transform="matrix(0.9608 -0.4804 0.5547 0.832 104.5102 68.0176)" class="st36 st33 st34 st37">C</text>
			<text transform="matrix(0.9608 -0.4804 0.5547 0.832 115.2342 62.6562)" class="st14 st33 st34 st35">OIN</text>
			<text transform="matrix(0.9608 -0.4804 0.5547 0.832 115.2342 62.6562)" class="st36 st33 st34 st35">OIN</text>
			<polygon class="st1" points="-0.1,100 31.6,116 31.6,284.1 -0.1,299.9 			"/>
			<polygon class="st1" points="399.5,100 367.8,116 367.8,284.1 399.5,299.9 			"/>
			<g>
				<defs>
					<polygon id="SVGID_12_" points="199.8,0 200,31.8 368.1,115.9 399.8,100 					"/>
				</defs>
				<clipPath id="SVGID_13_">
					<use xlink:href="#SVGID_12_"  style="overflow:visible;"/>
				</clipPath>
				<g class="st38">
					<polygon class="st4" points="142.5,-0.1 133.3,-30 463.2,134.9 428.9,143 					"/>
					<polygon class="st39" points="142.5,-0.1 133.3,-30 463.2,134.9 428.9,143 					"/>
				</g>
			</g>
			<g>
				<defs>
					<polygon id="SVGID_14_" points="199.8,400 199.7,368.2 31.5,284.1 -0.2,300 					"/>
				</defs>
				<clipPath id="SVGID_15_">
					<use xlink:href="#SVGID_14_"  style="overflow:visible;"/>
				</clipPath>
				<g class="st40">
					<polygon class="st4" points="-63.6,265.1 -29.2,257 257.1,400.1 266.3,430 					"/>
					<polygon class="st39" points="-63.6,265.1 -29.2,257 257.1,400.1 266.3,430 					"/>
				</g>
			</g>
		</g>
		<ellipse id="antenna" class="st18" cx="73.3" cy="90.3" rx="9.7" ry="8.4"/>
	</g>
</g>
</svg>
