<svg id="Layer_1" data-name="Layer 1" xmlns="http://www.w3.org/2000/svg" viewBox="0 0 450 450"><defs><style>.cls-1{fill:#287eb6;}.cls-10,.cls-2{fill:#15003e;}.cls-16,.cls-3{fill:#fff;}.cls-4{opacity:0.07;}.cls-5{fill:#606060;}.cls-12,.cls-6,.cls-9{fill:#193c72;}.cls-17,.cls-6,.cls-7{stroke:#000;}.cls-11,.cls-12,.cls-13,.cls-6,.cls-7{stroke-miterlimit:10;}.cls-12,.cls-15,.cls-16,.cls-17,.cls-18,.cls-6{stroke-width:4px;}.cls-7,.cls-8{fill:#bd1522;}.cls-11,.cls-13,.cls-7{stroke-width:3px;}.cls-10{opacity:0.14;isolation:isolate;}.cls-11,.cls-17{fill:#be1624;}.cls-11,.cls-12,.cls-13,.cls-14,.cls-15,.cls-16,.cls-18{stroke:#15003e;}.cls-13{fill:#eebc8b;}.cls-14{fill:#3eb977;stroke-width:3.24px;}.cls-15{fill:#ffce08;}.cls-15,.cls-16,.cls-17,.cls-18{stroke-linecap:round;}.cls-18{fill:none;}.cls-19{fill:#0fce7c;}.cls-20{fill:#eff4ee;}.cls-21{fill:#e6e7e8;}</style></defs><title>packArtboard 1</title><polygon id="Path" class="cls-1" points="419.43 112.54 419.43 337.54 224.9 450 69.36 360 68.61 359.67 30.37 337.54 30.37 112.54 224.9 0 419.43 112.54"/><path id="Path-2" data-name="Path" class="cls-2" d="M271.82,403.75l5.51-3.17.25.41a8.83,8.83,0,0,1,1.17,2.84,7,7,0,0,1,0,2.67,6.79,6.79,0,0,1-3.51,4.76,7.31,7.31,0,0,1-5.92.75,7.76,7.76,0,0,1-4.76-3.67,8.15,8.15,0,0,1-.84-6.1,7.86,7.86,0,0,1,3.76-4.84,7.44,7.44,0,0,1,3.25-1,10.92,10.92,0,0,1,3.76.59l-.67,2.17a5.78,5.78,0,0,0-5.26.08,5.34,5.34,0,0,0-2.67,3.51,5.61,5.61,0,0,0,.67,4.42,5.38,5.38,0,0,0,3.67,2.76,5.45,5.45,0,0,0,4-.51,4.73,4.73,0,0,0,2.09-2.5,3.81,3.81,0,0,0-.08-3.17l-3.34,1.92Z"/><polygon id="Rectangle" class="cls-2" points="280.75 390.22 282.76 389.05 290.44 402.33 288.43 403.5 280.75 390.22"/><polygon id="Path-3" data-name="Path" class="cls-2" points="295.28 384.3 301.79 395.73 299.79 396.9 293.28 385.46 290.19 387.22 289.1 385.38 297.2 380.7 298.29 382.54 295.28 384.3"/><path id="Path-4" data-name="Path" class="cls-2" d="M313.31,372.36l1.34,2.33a6.48,6.48,0,0,0-4.43.59,5.13,5.13,0,0,0-2.58,3.42,6.08,6.08,0,0,0,4.09,7.18,5.13,5.13,0,0,0,4.26-.58,4.48,4.48,0,0,0,1.58-1.42,3.62,3.62,0,0,0,.59-.92,11.14,11.14,0,0,0,.5-1.25l1.42,2.42a8.21,8.21,0,0,1-9.1,3.92,7.49,7.49,0,0,1-4.76-3.67,7.82,7.82,0,0,1-.92-5.51,7.64,7.64,0,0,1,3.92-5.51,9,9,0,0,1,4.09-1"/><path id="Shape" class="cls-3" d="M323.92,373.44a7.48,7.48,0,0,1-.75-6,7.94,7.94,0,0,1,9.76-5.59,7.75,7.75,0,0,1,4.85,3.67,7.9,7.9,0,0,1-3.09,10.85,8.22,8.22,0,0,1-5.68.92,7.36,7.36,0,0,1-5.09-3.84m2-1.17a5.19,5.19,0,0,0,3.59,2.76,5.82,5.82,0,0,0,4.26-.5,5.42,5.42,0,0,0,2.67-3.51,6,6,0,0,0-4-7.18,5.35,5.35,0,0,0-4.34.58,5.83,5.83,0,0,0-2.17,7.85"/><polygon id="Rectangle-2" data-name="Rectangle" class="cls-2" points="340.28 355.91 342.28 354.74 349.88 368.01 347.88 369.18 340.28 355.91"/><polygon id="Path-5" data-name="Path" class="cls-2" points="357.73 363.51 349.55 349.31 365.08 353.9 359.73 344.64 361.74 343.55 369.83 357.66 354.31 353.07 359.73 362.42 357.73 363.51"/><polygon id="Path-6" data-name="Path" class="cls-3" points="386.95 131.08 386.95 317.67 225.32 411.1 63.77 317.67 63.77 131.08 225.32 37.65 386.95 131.08"/><g class="cls-4"><path class="cls-5" d="M282.05,266.83,247.54,296.4h34.51Z"/><path class="cls-5" d="M283.11,73.19c0,1.13-.06,2.26-.06,3.38q0,22.28,0,44.53a2.22,2.22,0,0,0,1.29,2.19c31.07,18.21,51.14,44.83,58.09,80.12,8.62,43.85-3.59,81.85-35.88,112.93-15.72,15.13-34.68,24.59-56,29.09a115.56,115.56,0,0,1-40.88,1.22A117,117,0,0,1,172,334.46l-.8-.45,8.21-17c4.4,1.9,8.63,4,13,5.57a97.6,97.6,0,0,0,47.9,5.13c40.5-5.61,74-36.4,83.3-77.31a101.32,101.32,0,0,0-36.49-102.35c-1.51-1.19-3.09-2.29-4.92-3.64v95.16a9,9,0,0,1-.88-.64q-16-15.1-31.93-30.24a2.87,2.87,0,0,1-.63-1.9q0-34.38,0-68.76v-1.41l-.27-.06q-20.44,48.58-41,97.3h41.2V218.17l38.75,36.44-40,30.69V269.15c-.58,0-1-.09-1.44-.09q-25.86,0-51.7,0a1.85,1.85,0,0,0-1.95,1.39q-17.29,39.18-34.62,78.36a1.88,1.88,0,0,1-2.08,1.34c-13.93-.32-27.87-.58-41.8-.86-.3,0-.6,0-1.11-.07Q167.11,238.27,221.42,127.3c-3.11.32-6,.52-8.78.93a96.31,96.31,0,0,0-47.15,20.18c-20,15.92-32.45,36.52-36.93,61.7-4.18,23.46-.44,45.75,10.85,66.76a2.3,2.3,0,0,1,.19,1.8c-3.06,6.08-6.19,12.12-9.31,18.17-.08.15-.19.29-.42.64-1.25-1.9-2.46-3.66-3.6-5.48a119.49,119.49,0,0,1-17.15-47.28c-.45-3.17-.62-6.37-.93-9.56,0-.48-.15-1-.22-1.44V222.35c.07-.49.19-1,.22-1.45a117.77,117.77,0,0,1,3.87-24.25c13.88-52,61.16-89.35,115.89-88.53a1.79,1.79,0,0,0,2-1.16c5.3-10.9,10.66-21.76,16-32.64a10.8,10.8,0,0,0,.4-1.13Z"/><path class="cls-5" d="M282.05,266.83V296.4H247.54Z"/></g><path id="Mask" class="cls-6" d="M189.69,226.7h69.38a7.89,7.89,0,0,1,7.86,7.86v85.1a7.89,7.89,0,0,1-7.86,7.86H189.69a7.89,7.89,0,0,1-7.86-7.86v-85.1A7.82,7.82,0,0,1,189.69,226.7Z"/><path class="cls-7" d="M224.38,286.05a63,63,0,0,1,63,63c0,34.78-27.7,41.63-63,63-31.64-19.77-63-28.2-63-63A63,63,0,0,1,224.38,286.05Z"/><circle class="cls-3" cx="224.38" cy="349.04" r="44.81"/><circle class="cls-8" cx="224.38" cy="349.04" r="30.17"/><circle class="cls-9" cx="224.38" cy="349.04" r="24.96"/><path class="cls-10" d="M214.16,261.39H199.32a6.59,6.59,0,0,1-6.58-6.59V240a6.59,6.59,0,0,1,6.58-6.58h14.84a6.58,6.58,0,0,1,6.58,6.58V254.8A6.58,6.58,0,0,1,214.16,261.39Z"/><path class="cls-10" d="M248.55,261.39H233.71a6.59,6.59,0,0,1-6.58-6.59V240a6.59,6.59,0,0,1,6.58-6.58h14.84a6.59,6.59,0,0,1,6.59,6.58V254.8A6.59,6.59,0,0,1,248.55,261.39Z"/><path class="cls-10" d="M220.55,281.82h-5.8a2.6,2.6,0,0,1-2.56-2.55v-5.8a2.6,2.6,0,0,1,2.56-2.55h5.8a2.6,2.6,0,0,1,2.55,2.55v5.8A2.59,2.59,0,0,1,220.55,281.82Z"/><path class="cls-10" d="M234,281.82h-5.8a2.59,2.59,0,0,1-2.55-2.55v-5.8a2.6,2.6,0,0,1,2.55-2.55H234a2.6,2.6,0,0,1,2.55,2.55v5.8A2.59,2.59,0,0,1,234,281.82Z"/><path d="M240.89,221.88H208.56a1.54,1.54,0,0,1-1.57-1.57h0a1.55,1.55,0,0,1,1.57-1.57h32.33a1.55,1.55,0,0,1,1.57,1.57h0A1.61,1.61,0,0,1,240.89,221.88Z"/><path class="cls-6" d="M152.22,249.69h15.72a4.83,4.83,0,0,0,4.82-4.81V229.16a4.83,4.83,0,0,0-4.82-4.82H152.22a4.83,4.83,0,0,0-4.82,4.82v15.72A4.83,4.83,0,0,0,152.22,249.69Z"/><rect class="cls-11" x="260.16" y="154.54" width="13.3" height="17.56" rx="6.65" ry="6.65"/><rect class="cls-11" x="177.76" y="154.54" width="13.3" height="17.56" rx="6.65" ry="6.65"/><path class="cls-6" d="M281.72,248.24h15.72a4.84,4.84,0,0,0,4.82-4.82V227.7a4.84,4.84,0,0,0-4.82-4.82H281.72a4.84,4.84,0,0,0-4.82,4.82v15.72A4.84,4.84,0,0,0,281.72,248.24Z"/><polygon class="cls-3" points="223.91 335.1 228.11 343.65 237.45 344.96 230.61 351.67 232.32 361 223.91 356.54 215.49 361 217.07 351.67 210.23 344.96 219.7 343.65 223.91 335.1"/><ellipse class="cls-12" cx="225.75" cy="161.45" rx="42.06" ry="52.47"/><path class="cls-13" d="M267.81,162.83c0,4.09-5,14.92-10.95,25.62-6.79,12.18-17.29,23.8-31.11,23.8-25.94,0-41.71-42.05-41.71-48.93,12.34,4,2.41-.2,41.71,14.84C242.66,172.36,252.32,169,267.81,162.83Z"/><path class="cls-2" d="M232.73,194.57H219.47a1.56,1.56,0,0,1-1.58-1.58h0a1.56,1.56,0,0,1,1.58-1.57h13.26A1.55,1.55,0,0,1,234.3,193h0A1.55,1.55,0,0,1,232.73,194.57Z"/><path class="cls-10" d="M240,114l-16.31,53.06L236,173l30-12.09S267.81,129,240,114Z"/><circle class="cls-14" cx="226.05" cy="168.13" r="14.44"/><circle class="cls-3" cx="232.04" cy="162.83" r="2.85"/><circle class="cls-3" cx="234.98" cy="167.27" r="1.26"/><path class="cls-3" d="M229.19,143h-6.87l-1.09,3.24h-5.69l7.07-19.36h6.19l7.08,19.36h-5.7Zm-1.37-4-2.07-6.29L223.59,139Z"/><g id="Group-5-Copy"><path id="Rectangle-3" data-name="Rectangle" class="cls-6" d="M157.16,211.93,149,204.42a4.87,4.87,0,0,1-.26-6.72l20.85-22.54a4.87,4.87,0,0,1,6.72-.26l8.12,7.51a4.85,4.85,0,0,1,.26,6.72l-20.84,22.54A4.78,4.78,0,0,1,157.16,211.93Z"/><path id="Line" class="cls-15" d="M162.22,205.27l-7-6.45"/><circle id="Oval" class="cls-16" cx="172.37" cy="187.35" r="4.72"/><path id="Rectangle-4" data-name="Rectangle" class="cls-17" d="M188.81,176.74l-6.61-6.59c-.35-.35-.13-1.12.5-1.74l12.2-12.26c.63-.62,1.4-.82,1.67-.54l6.62,6.59c.34.36.12,1.12-.51,1.74l-12.2,12.26C189.92,176.89,189.15,177.09,188.81,176.74Z"/><path id="Rectangle-5" data-name="Rectangle" class="cls-2" d="M176,183h0a1.56,1.56,0,0,1,0-2.23l7.22-7.23a1.55,1.55,0,0,1,2.22,0h0a1.54,1.54,0,0,1,0,2.22L178.26,183A1.61,1.61,0,0,1,176,183Z"/></g><g id="Group-5-Copy-2" data-name="Group-5-Copy"><path id="Rectangle-6" data-name="Rectangle" class="cls-6" d="M289.78,257.26l9.21,6.12A4.7,4.7,0,0,1,300.3,270l-17,25.6a4.7,4.7,0,0,1-6.57,1.32l-9.21-6.12a4.7,4.7,0,0,1-1.31-6.57l17-25.61A4.73,4.73,0,0,1,289.78,257.26Z"/><path id="Line-2" data-name="Line" class="cls-15" d="M285.92,264.62l7.88,5.25"/><circle id="Oval-2" data-name="Oval" class="cls-16" cx="278.72" cy="283.93" r="4.72"/><path id="Combined-Shape" class="cls-18" d="M251,310.91a7.21,7.21,0,0,1,1-2.2c2.56-3.8,7.93-4.64,12.1-1.92s5.52,8.1,3,11.9a5.76,5.76,0,0,1-1.66,1.78Z"/><path id="Rectangle-7" data-name="Rectangle" class="cls-17" d="M261.46,294.25l14.44,9.56a1.63,1.63,0,0,1,.47,2.19l-9.55,14.44a1.64,1.64,0,0,1-2.2.47l-14.44-9.55a1.65,1.65,0,0,1-.47-2.2l9.56-14.44A1.68,1.68,0,0,1,261.46,294.25Z"/><path id="Rectangle-8" data-name="Rectangle" class="cls-2" d="M276.13,287.93h0a1.64,1.64,0,0,1,.47,2.19l-5.68,8.5a1.65,1.65,0,0,1-2.2.47h0a1.65,1.65,0,0,1-.47-2.2l5.68-8.5A1.49,1.49,0,0,1,276.13,287.93Z"/></g><path class="cls-3" d="M231.46,256.15l2.17,4.28-1.64,7-3.93-3.21.69-5.13Z"/><path class="cls-2" d="M225.66,254.72a.82.82,0,0,1-.81-.82v-6.45a.82.82,0,0,1,1.63,0h0v6.45a.82.82,0,0,1-.82.82"/><path class="cls-2" d="M227,254.72h-2.53a.82.82,0,0,1,0-1.64H227a.82.82,0,0,1,0,1.64"/><path class="cls-3" d="M231.46,256.15l2.69-2.53a11.36,11.36,0,1,0-8,19.4c2.34,0,4.4.85,6.21-.36l2.25.31-.07-3.65-6.44-5.1,1.39-6.52,2-1.55"/><path class="cls-2" d="M226.11,274.14a12.49,12.49,0,1,1,8.83-21.31l.81.81L232.23,257l-1.53-1.62,1.8-1.7a10.26,10.26,0,0,0-16.64,8,10.26,10.26,0,0,0,10.25,10.25"/><path class="cls-19" d="M232.38,267.72l-1.61-1.55a6.5,6.5,0,0,0-.13-9.17l-.84-.81.9-.85.76.81.73-.75a8.73,8.73,0,0,1,.19,12.32"/><path class="cls-20" d="M223.55,261.66a2.57,2.57,0,1,1,2.56,2.56,2.57,2.57,0,0,1-2.56-2.56"/><path class="cls-2" d="M226.11,260.2a1.46,1.46,0,1,0,1.45,1.46,1.46,1.46,0,0,0-1.45-1.46m0,5.14a3.69,3.69,0,1,1,3.68-3.68,3.68,3.68,0,0,1-3.68,3.68m8-11.72-6.49,6"/><path class="cls-2" d="M228.42,260.43l-1.51-1.64,6.48-6,1.52,1.64Z"/><path class="cls-3" d="M227.32,263.92l4.67,3.51,2.51,1.89v4.82l-5.05-.25"/><path class="cls-2" d="M235.62,274.14h-9.71v-2.23h7.48v-2l-6.74-5.07L228,263l7.63,5.74Z"/><path class="cls-2" d="M221.79,257a.82.82,0,0,1-.82-.82v-8.7a.82.82,0,0,1,1.64,0v8.7a.82.82,0,0,1-.82.82"/><path id="Shape-2" data-name="Shape" class="cls-21" d="M225.55,37.84l-162,93.51V320.78L225.21,415l162-97V131.35Zm155.7,276.6-155.7,93.09L70.68,316.86V134.77L226,45.52,381.25,135.1Z"/></svg>