<?xml version="1.0" encoding="utf-8"?>
<!-- Generator: Adobe Illustrator 24.1.3, SVG Export Plug-In . SVG Version: 6.00 Build 0)  -->
<svg version="1.1" xmlns="http://www.w3.org/2000/svg" xmlns:xlink="http://www.w3.org/1999/xlink" x="0px" y="0px"
	 viewBox="0 0 2652.3 3069" style="enable-background:new 0 0 2652.3 3069;" xml:space="preserve">
<style type="text/css">
	.st0{fill:#F9F9F9;}
	.st1{fill:#FFFFFF;stroke:#15003E;stroke-width:18;stroke-miterlimit:10;}
	.st2{fill:#FFFFFF;stroke:#15003E;stroke-width:19;stroke-miterlimit:10;}
	.st3{fill:#FFFFFF;stroke:#15003E;stroke-width:17;stroke-miterlimit:10;}
	.st4{fill:#15003E;}
	.st5{fill:#25E899;}
	.st6{fill:#EFF4EE;}
	.st7{fill:#15003E;stroke:#15003E;stroke-width:9;stroke-miterlimit:10;}
	.st8{fill:#FFFFFF;stroke:#15003E;stroke-width:25;stroke-miterlimit:10;}
	.st9{fill:#FFFFFF;}
	.st10{fill:#0FCE7C;}
	.st11{fill:none;stroke:#878787;stroke-width:30;stroke-miterlimit:10;}
	.st12{fill:none;stroke:#565656;stroke-width:51;stroke-miterlimit:10;}
	.st13{fill:#878787;stroke:#878787;stroke-width:30;stroke-miterlimit:10;}
	.st14{fill:none;stroke:#150800;stroke-width:30;stroke-miterlimit:10;}
	.st15{fill:none;stroke:#15003E;stroke-width:19;stroke-miterlimit:10;}
	.st16{fill:none;stroke:#C1C1C1;stroke-width:17;stroke-miterlimit:10;}
	.st17{fill:#565656;}
	.st18{fill:#C1C1C1;}
	.st19{fill:none;}
	.st20{fill:none;stroke:#241549;stroke-width:19;stroke-miterlimit:10;}
	.st21{fill:#D8AC30;}
	.st22{fill:#FFCE08;}
	.st23{fill:#FFC21A;}
	.st24{fill:#2B2B2B;}
	.st25{fill:#BC8B00;}
</style>
<g id="Слой_10">
	<g>
		<g>
			<polygon class="st0" points="2436.6,909.8 2436.6,2192.2 2066.7,2405.8 1998.8,2445 1650,2646.4 1571.2,2691.9 1429.9,2773.5 
				1407.3,2786.5 1383.5,2800.3 1326.3,2833.3 1265.2,2798.1 1240.8,2784 1217.9,2770.7 1081.3,2691.9 1002.4,2646.4 796.7,2527.6 
				751.2,2501.3 727.1,2487.4 681.7,2461.2 669.3,2454.1 612.1,2421 590.5,2408.6 215.7,2192.2 215.7,909.8 1326.3,268.7 			"/>
		</g>
	</g>
</g>
<g id="Слой_12">
	<g id="Слой_8">
		<path class="st1" d="M913.7,1425.8l-128.8,223.1l-143.1-82.6l127.9-221.5c21.4-37.1,68.8-49.8,105.8-28.4l10.5,6
			C922.2,1343.3,934.6,1389.6,913.7,1425.8z"/>
		<rect x="818.7" y="1341.8" class="st2" width="642.1" height="259.9"/>
		<path class="st3" d="M511.1,1745.8l16.2-0.6c0.3,17-11,31.8-25.5,31.8h-33.3c-14.6,0-26.4-11.8-26.4-26.4v-79.2
			c0-14.6,11.8-26.4,26.4-26.4h33.3c14.6,0,26.4,11.8,26.4,26.4v28h-18.4l0,0c-9.6,1.2-17,12.4-17,24c0,12.3,8.5,22.3,19,22.3"/>
		<g>
			
				<rect x="1002" y="1457" transform="matrix(0.9968 -7.979905e-02 7.979905e-02 0.9968 -117.4495 95.506)" class="st4" width="268.4" height="120.4"/>
		</g>
		<path class="st2" d="M1523.8,1384.6l-236.7,212.3l-133.8-149.1l235.3-211c41.6-37.3,105.5-33.8,142.8,7.8l0,0
			C1568,1285.2,1564.6,1348,1523.8,1384.6z"/>
		<g>
			
				<rect x="526.1" y="1600.8" transform="matrix(0.9968 -7.979904e-02 7.979904e-02 0.9968 -129.2755 55.4149)" class="st4" width="205.3" height="88.7"/>
		</g>
	</g>
	<g id="Слой_5">
		<path class="st5" d="M1282.1,2351.5h-279.5c-71.2,0-129-57.7-129-129v-156.4h525.2v168.7
			C1398.8,2299.2,1346.5,2351.5,1282.1,2351.5z"/>
		<g>
			<path class="st6" d="M1015.7,2481.2l-20,65.6l0,0.1l-0.1,0.3l-16.2,53.2l-0.2,0.6l-8.3,27.2L910.8,2825l-12-6.9l-14.9-8.6l-3-1.8
				L857,2794l-30.7-17.7l-23.7-13.7l-21.8-12.6l-29-16.8l-15-8.6l60.1-196.9l8.3-27.2l0.1-0.5l16.3-53.4l6.8-22.4
				c10.5-34.5,47-53.9,81.5-43.4l62.3,19C1006.8,2410.3,1026.2,2446.7,1015.7,2481.2z"/>
		</g>
		<g>
			<path class="st4" d="M978.6,2384.8l-62.3-19c-42.4-12.9-87.5,11-100.4,53.5l-6.2,20.4l-16.3,53.5l-0.2,0.5l-8.3,27.2l-60.1,196.9
				l12,6.9l15,8.6l60.1-196.9l8.3-27.2l0.2-0.5l16.3-53.5l8.3-27.1c8.1-26.4,36.1-41.4,62.6-33.3l62.4,19
				c26.4,8.1,41.4,36.1,33.3,62.6l-19.4,63.5l0,0.1l-2.2,7.2l-14.1,46.3l-0.2,0.6l-8.3,27.2l-60.1,196.9l12,6.9l15,8.6l60.1-196.9
				l8.3-27.2l0.2-0.6l16.3-53.4l21.5-70.3C1045,2442.8,1021,2397.8,978.6,2384.8z"/>
		</g>
		<g>
			<path class="st4" d="M893.4,2552.4c-32-9.8-50-43.7-40.3-75.7c9.7-32,43.7-50,75.7-40.3c32,9.7,50,43.7,40.3,75.7
				C959.3,2544.1,925.4,2562.2,893.4,2552.4z M919.9,2465.5c-16-4.9-33,4.2-37.8,20.1c-4.9,16,4.2,33,20.1,37.8
				c16,4.9,33-4.2,37.8-20.1C945,2487.3,935.9,2470.3,919.9,2465.5z"/>
		</g>
		<g>
			<polygon class="st4" points="965.3,2542.8 964,2547.2 952.5,2584.9 952.3,2585.4 944,2612.6 883.9,2809.6 880.9,2807.8 857,2794 
				917.1,2597.1 925.4,2569.9 925.5,2569.3 932.3,2547.2 936.3,2533.9 			"/>
		</g>
		<g>
			<polyline class="st5" points="872.1,1496.6 766.2,1502.7 839.8,1568.2 876.1,1566.2 			"/>
		</g>
		<g>
			<path class="st4" d="M871.5,1485.1l1.3,23l-78.2,4.5l49.3,43.9l31.6-1.8l1.3,23l-36.4,2.1c-3.1,0.2-6-0.9-8.3-2.9l-73.5-65.5
				c-3.5-3.1-4.8-8-3.2-12.4c1.5-4.4,5.5-7.4,10.2-7.7L871.5,1485.1z"/>
		</g>
		<g>
			<path class="st4" d="M932.9,1483.9l5.6,97c0.9,15.1-10.7,28.1-25.8,28.9l-18.9,1.1c-15.1,0.9-28.1-10.7-28.9-25.8l-5.6-97
				c-0.9-15.1,10.7-28.1,25.8-28.9l18.9-1.1C919,1457.2,932,1468.8,932.9,1483.9z M887.7,1583.8c0.1,2.4,2.2,4.3,4.7,4.1l18.9-1.1
				c2.4-0.1,4.3-2.2,4.2-4.7l-5.6-97c-0.1-2.4-2.2-4.3-4.7-4.1l-18.9,1.1c-2.4,0.1-4.3,2.2-4.1,4.7L887.7,1583.8z"/>
		</g>
		<g>
			<path class="st4" d="M1032.5,1475.9l5.7,98.9l-122.8,7.1l-5.7-98.9L1032.5,1475.9z M1013.9,1553.1l-3-53l-76.8,4.4l3,53
				L1013.9,1553.1z"/>
		</g>
		<g>
			<path class="st4" d="M1073.8,2473.3l-31.2,100.7l-16.5,53.3l-0.2,0.6l-8.4,27.2l-60.8,196.4l-9.5-5.5l-10.3-5.9l60.8-196.4
				l8.4-27.1l0.2-0.6l16.5-53.3l29.7-95.9c1.8-5.9,8.1-9.2,13.9-7.4C1072.3,2461.2,1075.6,2467.4,1073.8,2473.3z"/>
		</g>
		<g>
			<path class="st6" d="M1706.1,2846.4l-5.6,3.2l-6.1,3.5l-15.3,8.8l-50.9,29.4l-33.2,19.2l-6.2,3.6l-15.2,8.8l-1.5,0.9l-12.4,7.2
				c-12.8-7.4-23.8-18.4-31.4-32.4l-74.5-138.8l-13-24.3l-0.6-1.1l-25.9-48.3l-121-225.6c-15.8-29.4-4.7-66.1,24.7-81.9l53.2-28.5
				c29.4-15.8,66.1-4.7,81.9,24.7l118.3,220.6l26,48.4l0.6,1.1l13,24.3l14.5,27l11.9,22.2L1706.1,2846.4z"/>
		</g>
		<g>
			<path class="st4" d="M1650.1,2711.2l-11.9-22.2l-14.7-27.4l-13-24.3l-0.6-1.1l-26-48.4l-116.1-216.5
				c-19.4-36.2-64.7-49.8-100.9-30.4l-53.2,28.5c-36.2,19.4-49.8,64.6-30.4,100.8l119.3,222.3l25.9,48.3l0.6,1.1l13,24.3l76.3,142.2
				c6.7,12.5,15.8,22.9,26.4,31l4.6-2.7l3.6-2.1l6.7-3.9l12.4-7.2c-11.9-6.1-22.2-15.8-28.9-28.5l-18.5-34.5v0l-33.6-62.6v0
				l-24.6-45.8l-13-24.3l-0.6-1.1l-25.9-48.3l-118.8-221.5c-12.1-22.6-3.6-50.8,19-62.9l53.2-28.5c22.6-12.1,50.8-3.6,62.9,19
				l116.5,217.3l26,48.4l0.6,1.1l13,24.3l14.3,26.6l11.9,22.2l69,128.6l6.1-3.5l5.6-3.2l12.6-7.3L1650.1,2711.2z"/>
		</g>
		<g>
			<path class="st4" d="M1418,2514.9c-27.3,14.6-61.4,4.3-76-22.9c-14.6-27.3-4.3-61.4,22.9-76c27.3-14.6,61.4-4.3,76,22.9
				C1455.6,2466.2,1445.3,2500.3,1418,2514.9z M1378.2,2440.7c-13.6,7.3-18.8,24.4-11.5,38c7.3,13.6,24.4,18.8,38,11.5
				c13.6-7.3,18.8-24.4,11.5-38C1408.9,2438.5,1391.8,2433.4,1378.2,2440.7z"/>
		</g>
		<g>
			
				<rect x="1507.9" y="2664.9" transform="matrix(0.8812 -0.4727 0.4727 0.8812 -1076.9149 1069.2781)" class="st4" width="162.6" height="25.2"/>
		</g>
		<g>
			
				<rect x="1529.6" y="2705.4" transform="matrix(0.8812 -0.4727 0.4727 0.8812 -1093.4854 1084.3647)" class="st4" width="162.6" height="25.2"/>
		</g>
		<g>
			
				<rect x="1481.7" y="2481.3" transform="matrix(0.8812 -0.4727 0.4727 0.8812 -1079.6689 1023.0192)" class="st4" width="28.1" height="357"/>
		</g>
		<g>
			<path class="st4" d="M1280.4,1511.8l-41.9-44.6c-6.5-6.9-6.2-17.8,0.8-24.3c6.9-6.5,17.8-6.2,24.3,0.8l41.9,44.6
				c6.5,6.9,6.2,17.8-0.8,24.3C1297.7,1519.1,1286.9,1518.7,1280.4,1511.8z"/>
		</g>
		<g>
			<path class="st4" d="M1324.1,1470.7l-41.9-44.6c-6.5-6.9-6.2-17.8,0.8-24.3c6.9-6.5,17.8-6.2,24.3,0.8l41.9,44.6
				c6.5,6.9,6.2,17.8-0.8,24.3C1341.5,1478,1330.6,1477.7,1324.1,1470.7z"/>
		</g>
		<g>
			<path class="st4" d="M1367.8,1429.7l-41.9-44.6c-6.5-6.9-6.2-17.8,0.8-24.3c6.9-6.5,17.8-6.2,24.3,0.8l41.9,44.6
				c6.5,6.9,6.2,17.8-0.8,24.3C1385.2,1437,1374.3,1436.6,1367.8,1429.7z"/>
		</g>
		<g>
			<path class="st4" d="M1470.8,2877.4c-6,3.2-13.5,0.9-16.7-5.1l-211.2-396c-3.2-6-0.9-13.5,5.1-16.7c6-3.2,13.5-0.9,16.7,5.1
				l211.2,396C1479.1,2866.7,1476.8,2874.2,1470.8,2877.4z"/>
		</g>
		<g>
			<path class="st7" d="M1237.7,2450.6c-3.9,0-5.4-3.7-7.1-7.3c-11.6-23.9-35.3-46-77.2-46c-41.8,0-67.3,23.9-77.2,46
				c-1.7,3.7-3.2,7.3-7.1,7.3s-7.9-3.4-7.1-7.3c6.8-33.1,40.2-60.7,91.4-60.7c51.3,0,83.5,27.9,91.4,60.7
				C1245.8,2447.2,1241.6,2450.6,1237.7,2450.6z"/>
		</g>
		<g>
			<path class="st4" d="M1275.1,2363.9H997.3c-72,0-130.7-58.6-130.7-130.7v-168.4c0-6.2,5-11.2,11.2-11.2h516.8
				c6.2,0,11.2,5,11.2,11.2v168.4C1405.8,2305.3,1347.2,2363.9,1275.1,2363.9z M889,2076.1v157.2c0,59.7,48.6,108.2,108.2,108.2
				h277.9c59.7,0,108.2-48.6,108.2-108.2v-157.2H889z"/>
		</g>
		<rect x="849.2" y="1601.7" class="st8" width="581.5" height="244.3"/>
		<g>
			<path class="st4" d="M1484.7,1360.4c-28,15-63,4.5-78-23.5c-15-28-4.5-63,23.5-78c28-15,63-4.5,78,23.5
				C1523.2,1310.4,1512.7,1345.4,1484.7,1360.4z M1443.8,1284.2c-14,7.5-19.3,25-11.8,39c7.5,14,25,19.3,39,11.8
				c14-7.5,19.3-25,11.8-39C1475.3,1282,1457.8,1276.7,1443.8,1284.2z"/>
		</g>
	</g>
	<g id="Слой_3_1_">
		<polygon class="st9" points="933.1,1049.2 921.2,1013 862.6,1004.3 858.7,864.3 903,844.8 952,755.4 1035.1,693.4 1125.3,668.1 
			1208.4,676.8 1262.8,698.1 1306.5,731.4 1349.4,787.5 1373.2,828.7 1379.6,844.8 1415.7,849.3 1427.5,870.6 1430.7,925 
			1430.7,966.4 1422,1003.5 1397.1,1016.2 1358.8,1021.6 1349.4,1049.2 		"/>
		<g>
			<path class="st6" d="M1063.2,1137.8c0-10.3-8.3-18.6-18.6-18.6c-10.3,0-18.6,8.3-18.6,18.6c0,10.3,8.3,18.6,18.6,18.6
				C1054.9,1156.4,1063.2,1148.1,1063.2,1137.8L1063.2,1137.8z"/>
		</g>
		<g>
			<path class="st6" d="M1262.8,1137.8c0-10.3-8.3-18.6-18.6-18.6c-10.2,0-18.6,8.3-18.6,18.6c0,10.3,8.3,18.6,18.6,18.6
				C1254.4,1156.4,1262.8,1148.1,1262.8,1137.8L1262.8,1137.8z"/>
		</g>
		<g>
			<polygon class="st5" points="933.1,1049.2 1316.9,1049.2 1349.4,1061.6 1325,1149.2 957.3,1149.2 			"/>
		</g>
		<g>
			<path class="st6" d="M1273,1257.4h-263.7c-28.7,0-52-23.3-52-52v-56.3H1325v56.3C1325,1234.2,1301.7,1257.4,1273,1257.4
				L1273,1257.4z"/>
		</g>
		<g>
			<path class="st4" d="M1273,1269.4h-263.7c-35.2,0-63.9-28.7-63.9-63.9v-68.2h391.6v68.2C1336.9,1240.7,1308.2,1269.4,1273,1269.4
				z M969.2,1161.1v44.3c0,22.1,18,40,40,40H1273c22.1,0,40-18,40-40v-44.3H969.2z"/>
		</g>
		<g>
			<path class="st10" d="M1095.3,1049.2c-57.7-25.3-98-83-98-150.1c0-39.6,14-75.9,37.4-104.2c30.1-36.4,219.1-38.3,249.1-4.4
				c25.6,28.9,41.2,66.9,41.2,108.6c0,67.1-40.3,124.7-98,150.1L1095.3,1049.2z"/>
		</g>
		<g>
			<path class="st4" d="M1092.9,1061.1c-1.8,0-3.5-0.4-5.2-1.2c-63.7-31-103.2-94.2-103.2-164.9c0-35.1,10-69.3,28.8-98.7
				c3.6-5.6,10.9-7.2,16.5-3.6c5.6,3.6,7.2,10.9,3.6,16.5c-16.4,25.6-25,55.3-25,85.8c0,61.5,34.4,116.5,89.8,143.4
				c5.9,2.9,8.4,10,5.5,16C1101.6,1058.6,1097.3,1061.1,1092.9,1061.1z"/>
		</g>
		<g>
			<path class="st4" d="M1238.7,1059.8c-4.4,0-8.6-2.4-10.7-6.6c-3-5.9-0.6-13.1,5.3-16c54.4-27.2,88.1-81.9,88.1-142.6
				c0-34.2-9.8-59.4-30-86.9c-3.9-5.3-7.9-7.3-2.6-11.2c5.3-3.9,11.3,0.2,15.2,5.5c23.2,31.6,41.3,53.3,41.3,92.6
				c0,69.8-38.8,132.7-101.3,164C1242.4,1059.4,1240.5,1059.8,1238.7,1059.8z"/>
		</g>
		<g>
			<path class="st4" d="M1334.3,1161.1H948l-62.9-247.4v-1.5c0-141.1,114.8-256,256-256c141.1,0,256,114.8,256,256v1.5l-0.4,1.4
				L1334.3,1161.1z M966.6,1137.2h349.1l57.5-226.5c-0.8-127.3-104.6-230.6-232.1-230.6c-127.5,0-231.3,103.3-232.1,230.6
				L966.6,1137.2z"/>
		</g>
		<g>
			<path class="st4" d="M897.1,920.6c-6.6,0-11.9-5.3-11.9-11.9V676.4c0-6.6,5.3-11.9,11.9-11.9c6.6,0,11.9,5.3,11.9,11.9v232.3
				C909,915.3,903.7,920.6,897.1,920.6z"/>
		</g>
		<g>
			<path class="st4" d="M1385.2,920.6c-6.6,0-11.9-5.3-11.9-11.9V610.8c0-6.6,5.3-11.9,11.9-11.9c6.6,0,11.9,5.3,11.9,11.9v297.8
				C1397.1,915.3,1391.8,920.6,1385.2,920.6z"/>
		</g>
		<g>
			<path class="st4" d="M916.1,1024.9h-25.2c-27,0-49-22-49-49v-94.1c0-27,22-49,49-49h10.7c6.6,0,11.9,5.3,11.9,11.9
				s-5.3,11.9-11.9,11.9h-10.7c-13.8,0-25.1,11.3-25.1,25.1v94.1c0,13.8,11.3,25.1,25.1,25.1h25.2c6.6,0,11.9,5.3,11.9,11.9
				C928,1019.6,922.7,1024.9,916.1,1024.9z"/>
		</g>
		<g>
			<path class="st4" d="M1392.2,1024.9H1367c-6.6,0-11.9-5.3-11.9-11.9c0-6.6,5.3-11.9,11.9-11.9h25.2c13.9,0,25.1-11.3,25.1-25.1
				v-94.1c0-13.8-11.3-25.1-25.1-25.1h-10.7c-6.6,0-11.9-5.3-11.9-11.9s5.3-11.9,11.9-11.9h10.7c27,0,49,22,49,49v94.1
				C1441.2,1002.9,1419.3,1024.9,1392.2,1024.9z"/>
		</g>
		<g>
			<path class="st4" d="M899.7,883.3c-3,0-6-1.1-8.3-3.4c-4.7-4.6-4.8-12.2-0.2-16.9c67.8-69.4,157.9-107.7,253.8-107.7
				c90.3,0,176.6,34.5,243,97c4.8,4.5,5,12.1,0.5,16.9c-4.5,4.8-12.1,5-16.9,0.5c-61.9-58.4-142.4-90.5-226.6-90.5
				c-89.4,0-173.5,35.7-236.7,100.5C905.9,882.1,902.8,883.3,899.7,883.3z"/>
		</g>
		<g>
			<path class="st4" d="M1349.4,1061.1H933.1c-6.6,0-11.9-5.3-11.9-11.9c0-6.6,5.3-11.9,11.9-11.9h416.3c6.6,0,11.9,5.3,11.9,11.9
				C1361.4,1055.8,1356,1061.1,1349.4,1061.1z"/>
		</g>
		<g>
			<path class="st9" d="M1246.6,844.8c0,23.6-19.1,42.8-42.8,42.8c-23.6,0-42.7-19.1-42.7-42.8c0-23.6,19.1-42.7,42.7-42.7
				C1227.5,802,1246.6,821.1,1246.6,844.8L1246.6,844.8z"/>
		</g>
		<g>
			<path class="st9" d="M1274.6,907.7c0,9.5-7.7,17.3-17.3,17.3c-9.5,0-17.3-7.7-17.3-17.3c0-9.5,7.7-17.3,17.3-17.3
				C1266.9,890.4,1274.6,898.2,1274.6,907.7L1274.6,907.7z"/>
		</g>
		<g>
			<path class="st4" d="M1301.1,1127c-17,0-25.5-12.8-31.1-21.3c-5.3-8.1-7.6-10.6-11.1-10.6c-3.5,0-5.8,2.5-11.1,10.6
				c-5.6,8.5-14.1,21.3-31.1,21.3c-17,0-25.5-12.8-31.1-21.3c-5.3-8.1-7.6-10.6-11.1-10.6c-3.6,0-5.8,2.5-11.1,10.6
				c-5.6,8.5-14.1,21.3-31.1,21.3c-17,0-25.5-12.8-31.1-21.3c-5.3-8.1-7.6-10.6-11.1-10.6c-3.6,0-5.8,2.5-11.1,10.6
				c-5.6,8.5-14.1,21.3-31.1,21.3c-17,0-25.5-12.8-31.1-21.3c-5.3-8.1-7.6-10.6-11.1-10.6c-6.6,0-12-5.3-12-11.9
				c0-6.6,5.4-11.9,12-11.9c17,0,25.5,12.8,31.1,21.3c5.3,8.1,7.6,10.6,11.1,10.6c3.6,0,5.8-2.5,11.1-10.6
				c5.6-8.5,14.1-21.3,31.1-21.3c17,0,25.4,12.8,31.1,21.3c5.3,8.1,7.6,10.6,11.1,10.6c3.6,0,5.8-2.5,11.1-10.6
				c5.6-8.5,14.1-21.3,31.1-21.3s25.5,12.8,31.1,21.3c5.3,8.1,7.6,10.6,11.1,10.6c3.5,0,5.8-2.5,11.1-10.6
				c5.6-8.5,14.1-21.3,31.1-21.3c17,0,25.4,12.8,31,21.3c5.3,8.1,7.6,10.6,11.1,10.6c6.6,0,12,5.3,12,11.9S1307.7,1127,1301.1,1127z
				"/>
		</g>
		<g>
			<path class="st5" d="M1279.8,1315.9H999.7c-6.4,0-11.7-5.2-11.7-11.7c0-6.4,5.2-11.7,11.7-11.7h280.1c6.4,0,11.7,5.2,11.7,11.7
				C1291.5,1310.7,1286.3,1315.9,1279.8,1315.9z"/>
		</g>
	</g>
</g>
<g id="Слой_4">
	<line class="st11" x1="465" y1="1661" x2="969.2" y2="1723.9"/>
	<ellipse class="st12" cx="770.7" cy="1681.2" rx="334.1" ry="65.2"/>
	<line class="st13" x1="997.2" y1="1638.5" x2="613" y2="1738.7"/>
	<line class="st14" x1="748.7" y1="1694.3" x2="748.7" y2="1794"/>
	<g>
		<ellipse class="st15" cx="1301.7" cy="1926.7" rx="271.8" ry="336.5"/>
		<ellipse class="st15" cx="1293.4" cy="1928.6" rx="270.7" ry="335.2"/>
		<ellipse class="st15" cx="1285" cy="1930.5" rx="269.6" ry="333.9"/>
		<ellipse class="st15" cx="1276.6" cy="1932.3" rx="268.5" ry="332.6"/>
		<ellipse class="st15" cx="1268.3" cy="1934.2" rx="267.4" ry="331.4"/>
		<ellipse class="st15" cx="1259.9" cy="1936.1" rx="266.3" ry="330.1"/>
		<ellipse class="st15" cx="1251.5" cy="1937.9" rx="265.2" ry="328.8"/>
		<ellipse class="st15" cx="1243.1" cy="1939.8" rx="264.1" ry="327.6"/>
		<ellipse class="st15" cx="1234.8" cy="1941.7" rx="262.9" ry="326.3"/>
		<ellipse class="st15" cx="1226.4" cy="1943.6" rx="261.8" ry="325"/>
		<ellipse class="st15" cx="1218" cy="1945.4" rx="260.7" ry="323.7"/>
		<ellipse class="st15" cx="1209.7" cy="1947.3" rx="259.6" ry="322.5"/>
		<ellipse class="st15" cx="1201.3" cy="1949.2" rx="258.5" ry="321.2"/>
		<ellipse class="st15" cx="1192.9" cy="1951.1" rx="257.4" ry="319.9"/>
		<ellipse class="st15" cx="1184.6" cy="1952.9" rx="256.3" ry="318.6"/>
		<ellipse class="st15" cx="1176.2" cy="1954.8" rx="255.2" ry="317.4"/>
		<ellipse class="st15" cx="1167.8" cy="1956.7" rx="254.1" ry="316.1"/>
		<ellipse class="st15" cx="1159.5" cy="1958.5" rx="253" ry="314.8"/>
		<ellipse class="st15" cx="1151.1" cy="1960.4" rx="251.9" ry="313.5"/>
		<ellipse class="st15" cx="1142.7" cy="1962.3" rx="250.8" ry="312.3"/>
		<ellipse class="st15" cx="1134.4" cy="1964.2" rx="249.7" ry="311"/>
		<ellipse class="st15" cx="1126" cy="1966" rx="248.6" ry="309.7"/>
		<ellipse class="st15" cx="1117.6" cy="1967.9" rx="247.5" ry="308.5"/>
		<ellipse class="st15" cx="1109.2" cy="1969.8" rx="246.4" ry="307.2"/>
		<ellipse class="st15" cx="1100.9" cy="1971.7" rx="245.3" ry="305.9"/>
		<ellipse class="st15" cx="1092.5" cy="1973.5" rx="244.2" ry="304.6"/>
		<ellipse class="st15" cx="1084.1" cy="1975.4" rx="243.1" ry="303.4"/>
		<ellipse class="st15" cx="1075.8" cy="1977.3" rx="242" ry="302.1"/>
		<ellipse class="st15" cx="1067.4" cy="1979.1" rx="240.9" ry="300.8"/>
		<ellipse class="st15" cx="1059" cy="1981" rx="239.8" ry="299.5"/>
		<ellipse class="st15" cx="1050.7" cy="1982.9" rx="238.7" ry="298.3"/>
		<ellipse class="st15" cx="1042.3" cy="1984.8" rx="237.6" ry="297"/>
		<ellipse class="st15" cx="1033.9" cy="1986.6" rx="236.5" ry="295.7"/>
		<ellipse class="st15" cx="1025.6" cy="1988.5" rx="235.3" ry="294.5"/>
		<ellipse class="st15" cx="1017.2" cy="1990.4" rx="234.2" ry="293.2"/>
		<ellipse class="st15" cx="1008.8" cy="1992.2" rx="233.1" ry="291.9"/>
		<ellipse class="st15" cx="1000.5" cy="1994.1" rx="232" ry="290.6"/>
		<ellipse class="st15" cx="992.1" cy="1996" rx="230.9" ry="289.4"/>
		<ellipse class="st15" cx="983.7" cy="1997.9" rx="229.8" ry="288.1"/>
		<ellipse class="st15" cx="975.3" cy="1999.7" rx="228.7" ry="286.8"/>
		<ellipse class="st15" cx="967" cy="2001.6" rx="227.6" ry="285.5"/>
		<ellipse class="st15" cx="958.6" cy="2003.5" rx="226.5" ry="284.3"/>
		<ellipse class="st15" cx="950.2" cy="2005.4" rx="225.4" ry="283"/>
		<ellipse class="st15" cx="941.9" cy="2007.2" rx="224.3" ry="281.7"/>
		<ellipse class="st15" cx="933.5" cy="2009.1" rx="223.2" ry="280.5"/>
		<ellipse class="st15" cx="925.1" cy="2011" rx="222.1" ry="279.2"/>
		<ellipse class="st15" cx="916.8" cy="2012.8" rx="221" ry="277.9"/>
		<ellipse class="st15" cx="908.4" cy="2014.7" rx="219.9" ry="276.6"/>
		<ellipse class="st15" cx="900" cy="2016.6" rx="218.8" ry="275.4"/>
		<ellipse class="st15" cx="891.7" cy="2018.5" rx="217.7" ry="274.1"/>
		<ellipse class="st15" cx="883.3" cy="2020.3" rx="216.6" ry="272.8"/>
		<ellipse class="st15" cx="874.9" cy="2022.2" rx="215.5" ry="271.5"/>
		<ellipse class="st15" cx="866.6" cy="2024.1" rx="214.4" ry="270.3"/>
		<ellipse class="st15" cx="858.2" cy="2026" rx="213.3" ry="269"/>
		<ellipse class="st15" cx="849.8" cy="2027.8" rx="212.2" ry="267.7"/>
		<ellipse class="st15" cx="841.4" cy="2029.7" rx="211.1" ry="266.4"/>
		<ellipse class="st15" cx="833.1" cy="2031.6" rx="210" ry="265.2"/>
		<ellipse class="st15" cx="824.7" cy="2033.4" rx="208.9" ry="263.9"/>
		<ellipse class="st15" cx="816.3" cy="2035.3" rx="207.7" ry="262.6"/>
		<ellipse class="st15" cx="808" cy="2037.2" rx="206.6" ry="261.4"/>
		<ellipse class="st15" cx="799.6" cy="2039.1" rx="205.5" ry="260.1"/>
		<ellipse class="st15" cx="791.2" cy="2040.9" rx="204.4" ry="258.8"/>
		<ellipse class="st15" cx="782.9" cy="2042.8" rx="203.3" ry="257.5"/>
		<ellipse class="st15" cx="774.5" cy="2044.7" rx="202.2" ry="256.3"/>
		<ellipse class="st15" cx="766.1" cy="2046.6" rx="201.1" ry="255"/>
		<ellipse class="st15" cx="757.8" cy="2048.4" rx="200" ry="253.7"/>
		<ellipse class="st15" cx="749.4" cy="2050.3" rx="198.9" ry="252.4"/>
		<ellipse class="st15" cx="741" cy="2052.2" rx="197.8" ry="251.2"/>
		<ellipse class="st15" cx="732.7" cy="2054" rx="196.7" ry="249.9"/>
		<ellipse class="st15" cx="724.3" cy="2055.9" rx="195.6" ry="248.6"/>
		<ellipse class="st15" cx="715.9" cy="2057.8" rx="194.5" ry="247.4"/>
		<ellipse class="st15" cx="707.5" cy="2059.7" rx="193.4" ry="246.1"/>
		<ellipse class="st15" cx="699.2" cy="2061.5" rx="192.3" ry="244.8"/>
		<ellipse class="st15" cx="690.8" cy="2063.4" rx="191.2" ry="243.5"/>
		<ellipse class="st15" cx="682.4" cy="2065.3" rx="190.1" ry="242.3"/>
		<ellipse class="st15" cx="674.1" cy="2067.1" rx="189" ry="241"/>
		<ellipse class="st15" cx="665.7" cy="2069" rx="187.9" ry="239.7"/>
		<ellipse class="st15" cx="657.3" cy="2070.9" rx="186.8" ry="238.4"/>
		<ellipse class="st15" cx="649" cy="2072.8" rx="185.7" ry="237.2"/>
		<ellipse class="st15" cx="640.6" cy="2074.6" rx="184.6" ry="235.9"/>
		<ellipse class="st15" cx="632.2" cy="2076.5" rx="183.5" ry="234.6"/>
		<ellipse class="st15" cx="623.9" cy="2078.4" rx="182.4" ry="233.4"/>
		<ellipse class="st15" cx="615.5" cy="2080.3" rx="181.3" ry="232.1"/>
		<ellipse class="st15" cx="607.1" cy="2082.1" rx="180.1" ry="230.8"/>
		<ellipse class="st15" cx="598.8" cy="2084" rx="179" ry="229.5"/>
		<ellipse class="st15" cx="590.4" cy="2085.9" rx="177.9" ry="228.3"/>
		<ellipse class="st15" cx="582" cy="2087.7" rx="176.8" ry="227"/>
		<ellipse class="st15" cx="573.6" cy="2089.6" rx="175.7" ry="225.7"/>
		<ellipse class="st15" cx="565.3" cy="2091.5" rx="174.6" ry="224.4"/>
		<ellipse class="st15" cx="556.9" cy="2093.4" rx="173.5" ry="223.2"/>
		<ellipse class="st15" cx="548.5" cy="2095.2" rx="172.4" ry="221.9"/>
		<ellipse class="st15" cx="540.2" cy="2097.1" rx="171.3" ry="220.6"/>
		<ellipse class="st15" cx="531.8" cy="2099" rx="170.2" ry="219.3"/>
		<ellipse class="st15" cx="523.4" cy="2100.9" rx="169.1" ry="218.1"/>
		<ellipse class="st15" cx="515.1" cy="2102.7" rx="168" ry="216.8"/>
		<ellipse class="st15" cx="506.7" cy="2104.6" rx="166.9" ry="215.5"/>
		<ellipse class="st15" cx="498.3" cy="2106.5" rx="165.8" ry="214.3"/>
		<ellipse class="st15" cx="490" cy="2108.3" rx="164.7" ry="213"/>
		<ellipse class="st15" cx="481.6" cy="2110.2" rx="163.6" ry="211.7"/>
		<ellipse class="st15" cx="473.2" cy="2112.1" rx="162.5" ry="210.4"/>
		<ellipse class="st15" cx="464.9" cy="2114" rx="161.4" ry="209.2"/>
		<ellipse class="st15" cx="456.5" cy="2115.8" rx="160.3" ry="207.9"/>
		<ellipse class="st15" cx="448.1" cy="2117.7" rx="159.2" ry="206.6"/>
		<ellipse class="st15" cx="439.7" cy="2119.6" rx="158.1" ry="205.3"/>
		<ellipse class="st15" cx="431.4" cy="2121.5" rx="157" ry="204.1"/>
		<ellipse class="st15" cx="423" cy="2123.3" rx="155.9" ry="202.8"/>
		<ellipse class="st15" cx="414.6" cy="2125.2" rx="154.8" ry="201.5"/>
		<ellipse class="st15" cx="406.3" cy="2127.1" rx="153.7" ry="200.3"/>
		<ellipse class="st15" cx="397.9" cy="2128.9" rx="152.5" ry="199"/>
		<ellipse class="st15" cx="389.5" cy="2130.8" rx="151.4" ry="197.7"/>
		<ellipse class="st15" cx="381.2" cy="2132.7" rx="150.3" ry="196.4"/>
		<ellipse class="st15" cx="372.8" cy="2134.6" rx="149.2" ry="195.2"/>
		<ellipse class="st15" cx="364.4" cy="2136.4" rx="148.1" ry="193.9"/>
		<ellipse class="st15" cx="356.1" cy="2138.3" rx="147" ry="192.6"/>
		<ellipse class="st15" cx="347.7" cy="2140.2" rx="145.9" ry="191.3"/>
		<ellipse class="st15" cx="339.3" cy="2142" rx="144.8" ry="190.1"/>
		<ellipse class="st15" cx="331" cy="2143.9" rx="143.7" ry="188.8"/>
		<ellipse class="st15" cx="322.6" cy="2145.8" rx="142.6" ry="187.5"/>
		<ellipse class="st15" cx="314.2" cy="2147.7" rx="141.5" ry="186.3"/>
		<ellipse class="st15" cx="305.8" cy="2149.5" rx="140.4" ry="185"/>
		<ellipse class="st15" cx="297.5" cy="2151.4" rx="139.3" ry="183.7"/>
		<ellipse class="st15" cx="289.1" cy="2153.3" rx="138.2" ry="182.4"/>
		<ellipse class="st15" cx="280.7" cy="2155.2" rx="137.1" ry="181.2"/>
		<ellipse class="st15" cx="272.4" cy="2157" rx="136" ry="179.9"/>
		<ellipse class="st15" cx="264" cy="2158.9" rx="134.9" ry="178.6"/>
	</g>
	<ellipse cx="1309.4" cy="1922.1" rx="249.8" ry="306.2"/>
	<path class="st16" d="M630.3,1621.7c0,0,113.6-19.2,248.8-8.5"/>
	
		<rect x="906.4" y="1616.8" transform="matrix(0.9923 0.1238 -0.1238 0.9923 209.8321 -106.3084)" class="st17" width="107.9" height="37"/>
	
		<ellipse transform="matrix(0.9676 -0.2524 0.2524 0.9676 -388.8465 211.7334)" class="st18" cx="631" cy="1621.7" rx="6.2" ry="8.6"/>
	
		<ellipse transform="matrix(6.298182e-02 -0.998 0.998 6.298182e-02 -787.1476 2387.8396)" class="st18" cx="878.1" cy="1613.1" rx="8.6" ry="6.2"/>
	<ellipse class="st15" cx="1317.3" cy="1917.6" rx="271.8" ry="336.5"/>
	<line class="st19" x1="279.6" y1="2149.8" x2="1317.3" y2="1917.6"/>
	<ellipse class="st20" cx="1313.7" cy="1921.6" rx="275.4" ry="340.4"/>
</g>
<g id="Слой_6">
	<g id="Слой_7">
		<ellipse class="st21" cx="1600.8" cy="1728.3" rx="41.6" ry="56.1"/>
		<rect x="1600.8" y="1672.2" class="st21" width="14.2" height="112.3"/>
		<ellipse class="st22" cx="1615.1" cy="1728.3" rx="41.6" ry="56.1"/>
		
			<ellipse transform="matrix(0.3102 -0.9507 0.9507 0.3102 -469.8333 2986.0647)" class="st21" cx="1822.8" cy="1816.8" rx="56.1" ry="47.2"/>
		
			<rect x="1807.1" y="1758.2" transform="matrix(-0.9507 -0.3102 0.3102 -0.9507 2977.8872 4102.1997)" class="st21" width="16.2" height="112.3"/>
		
			<ellipse transform="matrix(0.3102 -0.9507 0.9507 0.3102 -475.6672 2967.9919)" class="st22" cx="1807.5" cy="1811.8" rx="56.1" ry="47.2"/>
		
			<ellipse transform="matrix(0.1113 -0.9938 0.9938 0.1113 -341.4198 3656.0061)" class="st21" cx="1873.5" cy="2018.9" rx="63.2" ry="33.3"/>
		
			<rect x="1862.2" y="1955.1" transform="matrix(-0.9938 -0.1113 0.1113 -0.9938 3499.4194 4231.9805)" class="st21" width="11.4" height="126.4"/>
		
			<ellipse transform="matrix(0.1113 -0.9938 0.9938 0.1113 -350.2278 3643.6167)" class="st22" cx="1862.2" cy="2017.6" rx="63.2" ry="33.3"/>
		
			<ellipse transform="matrix(0.1113 -0.9938 0.9938 0.1113 27.6511 3736.9846)" class="st21" cx="2103.4" cy="1853" rx="55.8" ry="65.9"/>
		
			<rect x="2080.8" y="1796" transform="matrix(-0.9938 -0.1113 0.1113 -0.9938 3965.0623 3924.9841)" class="st21" width="22.6" height="111.5"/>
		
			<ellipse transform="matrix(0.1113 -0.9938 0.9938 0.1113 10.1942 3712.4299)" class="st22" cx="2080.9" cy="1850.5" rx="55.8" ry="65.9"/>
		
			<ellipse transform="matrix(0.9664 -0.2571 0.2571 0.9664 -461.1136 472.0559)" class="st21" cx="1574.6" cy="1999.3" rx="38.9" ry="47.2"/>
		
			<rect x="1564.4" y="1952.6" transform="matrix(-0.2571 -0.9664 0.9664 -0.2571 52.2508 4023.1392)" class="st21" width="16.2" height="77.7"/>
		
			<ellipse transform="matrix(0.9664 -0.2571 0.2571 0.9664 -457.2358 470.4617)" class="st22" cx="1570.4" cy="1983.7" rx="38.9" ry="47.2"/>
		
			<ellipse transform="matrix(0.1113 -0.9938 0.9938 0.1113 -547.8536 3081.9197)" class="st21" cx="1449.3" cy="1847.3" rx="37.2" ry="33.3"/>
		
			<rect x="1438" y="1809.4" transform="matrix(-0.9938 -0.1113 0.1113 -0.9938 2672.7363 3842.5815)" class="st21" width="11.4" height="74.4"/>
		
			<ellipse transform="matrix(0.1113 -0.9938 0.9938 0.1113 -556.6616 3069.5303)" class="st22" cx="1438" cy="1846" rx="37.2" ry="33.3"/>
		
			<ellipse transform="matrix(0.3102 -0.9507 0.9507 0.3102 -226.1615 2917.387)" class="st21" cx="1897.3" cy="1614.5" rx="56.1" ry="47.2"/>
		
			<rect x="1881.6" y="1555.9" transform="matrix(-0.9507 -0.3102 0.3102 -0.9507 3185.9761 3730.7786)" class="st21" width="16.2" height="112.3"/>
		
			<ellipse transform="matrix(0.3102 -0.9507 0.9507 0.3102 -231.9953 2899.314)" class="st22" cx="1882" cy="1609.5" rx="56.1" ry="47.2"/>
		
			<ellipse transform="matrix(0.8467 -0.5321 0.5321 0.8467 -534.6771 1391.6603)" class="st21" cx="2147.5" cy="1623.6" rx="65" ry="67.8"/>
		<polygon class="st21" points="2142.5,1557.2 2165,1560.2 2152.5,1693.1 2130.1,1690.1 		"/>
		
			<ellipse transform="matrix(0.8467 -0.5321 0.5321 0.8467 -536.3987 1385.6852)" class="st22" cx="2136.3" cy="1623.6" rx="65" ry="67.8"/>
		
			<ellipse transform="matrix(0.9716 -0.2365 0.2365 0.9716 -351.2114 521.2017)" class="st23" cx="1996.9" cy="1724.5" rx="29.2" ry="38.9"/>
		
			<ellipse transform="matrix(0.3497 -0.9368 0.9368 0.3497 -507.8732 3374.0156)" class="st21" cx="2176.6" cy="2052.9" rx="85.2" ry="77.8"/>
		
			<rect x="2161.5" y="1976.4" transform="matrix(0.3497 -0.9368 0.9368 0.3497 -509.366 3374.3899)" class="st21" width="29.2" height="155.5"/>
		
			<ellipse transform="matrix(0.3497 -0.9368 0.9368 0.3497 -493.2209 3370.2827)" class="st22" cx="2181.2" cy="2040.4" rx="85.2" ry="77.8"/>
		
			<ellipse transform="matrix(0.5039 -0.8637 0.8637 0.5039 -985.6656 2540.4333)" class="st21" cx="1718.8" cy="2128.3" rx="65.1" ry="33.3"/>
		
			<rect x="1709.2" y="2060.7" transform="matrix(-0.8637 -0.5039 0.5039 -0.8637 2125.9114 4822.3379)" class="st21" width="11.4" height="126.2"/>
		
			<ellipse transform="matrix(0.5039 -0.8637 0.8637 0.5039 -980.2784 2529.9651)" class="st22" cx="1712.4" cy="2118.4" rx="59.7" ry="32.4"/>
		
			<ellipse transform="matrix(0.3537 -0.9354 0.9354 0.3537 -1119.9829 2540.1775)" class="st21" cx="1278.1" cy="2080.5" rx="27" ry="23.7"/>
		
			<ellipse transform="matrix(0.3537 -0.9354 0.9354 0.3537 -696.045 2886.9172)" class="st21" cx="1740.9" cy="1947.1" rx="28.6" ry="18.6"/>
		
			<ellipse transform="matrix(0.1238 -0.9923 0.9923 0.1238 -339.6626 3796.9419)" class="st21" cx="1980.2" cy="2090.8" rx="39.9" ry="31.6"/>
		
			<ellipse transform="matrix(0.1238 -0.9923 0.9923 0.1238 -781.6833 3083.2429)" class="st21" cx="1355.1" cy="1984.3" rx="15.6" ry="20.3"/>
		<circle class="st21" cx="1262.8" cy="1732.8" r="15.6"/>
		<circle class="st21" cx="1170.4" cy="2096.1" r="15.6"/>
		
			<ellipse transform="matrix(0.1238 -0.9923 0.9923 0.1238 -596.2593 3169.6685)" class="st21" cx="1496.7" cy="1922.5" rx="19.9" ry="15.6"/>
		
			<ellipse transform="matrix(0.3537 -0.9354 0.9354 0.3537 -931.5305 2288.3972)" class="st21" cx="1190.1" cy="1818.2" rx="28.6" ry="21"/>
		
			<ellipse transform="matrix(0.3537 -0.9354 0.9354 0.3537 -729.9415 2409.1763)" class="st21" cx="1378.3" cy="1732.8" rx="28.6" ry="21"/>
		
			<ellipse transform="matrix(0.3537 -0.9354 0.9354 0.3537 -891.8829 2423.9988)" class="st21" cx="1308" cy="1857.4" rx="28.6" ry="33.8"/>
		
			<ellipse transform="matrix(0.5259 -0.8505 0.8505 0.5259 -1144.8438 2224.6802)" class="st21" cx="1423.2" cy="2139.3" rx="30.2" ry="24.5"/>
		
			<rect x="1415.9" y="2107.1" transform="matrix(-0.8505 -0.5259 0.5259 -0.8505 1504.4065 4700.166)" class="st21" width="8.4" height="58.5"/>
		
			<ellipse transform="matrix(0.5259 -0.8505 0.8505 0.5259 -1142.0961 2217.2451)" class="st22" cx="1417.9" cy="2133.1" rx="27.7" ry="23.8"/>
		
			<ellipse transform="matrix(0.1827 -0.9832 0.9832 0.1827 141.694 3774.1028)" class="st21" cx="2340.8" cy="1801.8" rx="85.2" ry="83.4"/>
		
			<rect x="2325.9" y="1719.7" transform="matrix(0.1827 -0.9832 0.9832 0.1827 140.1759 3774.9294)" class="st21" width="29.2" height="166.9"/>
		
			<ellipse transform="matrix(0.1827 -0.9832 0.9832 0.1827 156.4899 3765.8291)" class="st22" cx="2343.2" cy="1788.8" rx="85.2" ry="83.4"/>
		
			<ellipse transform="matrix(0.3102 -0.9507 0.9507 0.3102 -1063.6244 2505.7266)" class="st21" cx="1194.9" cy="1985.8" rx="33.2" ry="29.7"/>
		
			<rect x="1185" y="1951" transform="matrix(-0.9507 -0.3102 0.3102 -0.9507 1705.9001 4239.813)" class="st21" width="10.2" height="66.5"/>
		
			<ellipse transform="matrix(0.3102 -0.9507 0.9507 0.3102 -1067.2909 2494.3679)" class="st22" cx="1185.3" cy="1982.7" rx="33.2" ry="29.7"/>
		<circle class="st22" cx="1867.9" cy="2204.1" r="38.4"/>
		
			<ellipse transform="matrix(0.9705 -0.2411 0.2411 0.9705 -494.0313 556.4783)" class="st21" cx="2027" cy="2297" rx="77.8" ry="85.2"/>
		
			<rect x="2012.7" y="2220.6" transform="matrix(-0.2411 -0.9705 0.9705 -0.2411 285.5327 4819.9453)" class="st21" width="29.2" height="155.5"/>
		
			<ellipse transform="matrix(0.9705 -0.2411 0.2411 0.9705 -489.7844 558.5673)" class="st22" cx="2037.6" cy="2280.7" rx="92" ry="85.2"/>
		
			<ellipse transform="matrix(0.3537 -0.9354 0.9354 0.3537 48.0986 3164.8323)" class="st21" cx="2314.1" cy="1547.6" rx="45.6" ry="36.4"/>
		
			<ellipse transform="matrix(0.1113 -0.9938 0.9938 0.1113 -772.301 3512.4814)" class="st21" cx="1577.9" cy="2188.1" rx="53.8" ry="40.6"/>
		
			<rect x="1570.9" y="2135.2" transform="matrix(-0.9938 -0.1113 0.1113 -0.9938 2902.1543 4540.2026)" class="st21" width="13.9" height="107.7"/>
		
			<ellipse transform="matrix(0.1113 -0.9938 0.9938 0.1113 -790.0739 3492.606)" class="st22" cx="1557.9" cy="2188.1" rx="53.8" ry="40.6"/>
		
			<ellipse transform="matrix(0.6741 -0.7387 0.7387 0.6741 -841.6296 1825.7649)" class="st23" cx="1648.1" cy="1866.6" rx="32.5" ry="23.5"/>
		
			<ellipse transform="matrix(0.1113 -0.9938 0.9938 0.1113 -700.2607 3750.8994)" class="st23" cx="1747.2" cy="2267" rx="28" ry="38.8"/>
		
			<ellipse transform="matrix(0.6741 -0.7387 0.7387 0.6741 -768.2 1662.0417)" class="st21" cx="1499.3" cy="1701.5" rx="29.6" ry="20.9"/>
		
			<ellipse transform="matrix(0.7071 -0.7071 0.7071 0.7071 -647.1489 1701.8844)" class="st23" cx="1730.8" cy="1632.1" rx="29.2" ry="38.9"/>
		
			<ellipse transform="matrix(0.8879 -0.46 0.46 0.8879 -438.0911 1186.0547)" class="st21" cx="2215" cy="1492.1" rx="56.1" ry="37"/>
		
			<rect x="2203.3" y="1428.9" transform="matrix(-0.46 -0.8879 0.8879 -0.46 1909.9213 4131.6348)" class="st21" width="16.2" height="112.3"/>
		
			<ellipse transform="matrix(0.8879 -0.46 0.46 0.8879 -431.934 1180.6877)" class="st22" cx="2207.1" cy="1476.8" rx="56.1" ry="24.9"/>
	</g>
	<g id="Слой_14">
	</g>
</g>
<g id="Слой_13">
	<path class="st3" d="M788.9,1641.3l18.5-0.6c0.3,19.4-12.5,36.2-29.1,36.2h-38c-16.6,0-30.1-13.5-30.1-30.1v-90.3
		c0-16.6,13.5-30.1,30.1-30.1h38c16.6,0,30.1,13.5,30.1,30.1v31.9h-21l0,0c-10.9,1.3-19.4,14.2-19.4,27.3c0,14.1,9.7,25.5,21.6,25.5
		"/>
</g>
<g id="Слой_1">
	<g id="Слой_3">
		<path class="st24" d="M995.7,2546.9l-12-6.9l-67-38.6v45.9h79.6L995.7,2546.9z M731.5,2394.4c0,0,0,0.1,0,0.1
			c0.1,0.3,0.3,0.5,0.4,0.8c0.1,0.2,0.2,0.4,0.3,0.6c0.1,0.3,0.2,0.6,0.3,0.9s0.2,0.5,0.2,0.8c0.1,0.2,0.1,0.5,0.2,0.7
			c0,0.1,0,0.2,0.1,0.2c0,0.2,0.1,0.4,0.1,0.6c0,0.1,0,0.2,0.1,0.3c0,0.2,0.1,0.3,0.1,0.5c0,0.1,0,0.1,0,0.2c0,0.1,0,0.3,0.1,0.4
			v0.4c0,0.2,0.1,0.4,0.1,0.6c0,0.1,0,0.1,0,0.2v24.8H787L731.5,2394.4z M1326.2,268.4l-0.8-0.4L228.5,901.2v1266.5l370.2,213.7
			l21.3,12.3l56.5,32.6l12.2,7l44.9,25.9l23.7,13.7l35.9,20.7l9,5.2l3,1.7l15,8.6l105.3,60.8l26.9,15.6l14.9,8.6l12,6.9l15,8.6
			l11.3,6.5l0.7,0.4l19.8,11.4l57.4,33.1l134.9,77.9l22.6,13.1l24.1,13.9l60.3,34.8l0.6-0.3l55.9-32.3l12.9-7.5l10.6-6.1l10.8-6.2
			l11.5-6.7l1-0.6l11.7-6.8l12.6-7.3l48.1-27.8l24.3-14l41.8-24.2l18.5-10.7l11.7-6.7l12.6-7.3l35-20.2l344.5-198.9l67.1-38.7
			l365.3-211V901.2L1326.2,268.4z M2366.8,2136L1957,2372.5l-77.8,44.9l-180.8,104.4l-44,25.4l-70.4,40.7l-12.6,7.3l-3.8,2.2
			l-7.8,4.5l-25.1,14.5l-35.3,20.4h0l-3.6,2.1l-20.7,12l-18.2,10.5l-29.9,17.2l-12.6,7.3l-11.7,6.7l-12.5,7.2l-21.4,12.3l-5.6,3.2
			l-31.7,18.3l-6.1,3.5l-6.6-3.8l-33.5-19.3l-91.3-52.7l-38.9-22.5l-38.9-22.5l-43.4-25l-30.2-17.4l-19.8-11.4l-12.2-7l-14.3-8.3
			l-0.2-0.1h0.2l-0.6-0.3l-12-6.9l-67-38.6v0.1l-80.1-46.2l-15-8.6l-12-6.9l-7.3-4.2l-15.3-8.8l-0.2-0.1h0.2l-55.5-32.1
			c0,0,0,0.1,0,0.1l0,0l-22.2-12.8l-0.1-0.1L283.7,2136V933.3l1041.7-601.5l1041.4,601.5V2136z M731.5,2394.4c0,0,0,0.1,0,0.1
			l55.3,32h0.2L731.5,2394.4z M995.7,2546.9l-12-6.9l-67-38.6v0.1l67,38.6L995.7,2546.9l0.4,0.3h0.2L995.7,2546.9z"/>
		<path class="st25" d="M1326.9,3.8L1.2,769.2v1530.7l454.5,262.4l45.5,26.3l140.3,81l58.6,33.8l24.7,14.3l12,6.9l15,8.6l29,16.8
			l21.8,12.6l23.7,13.7L857,2794l23.9,13.8l3,1.8l14.9,8.6l12,6.9l15,8.6l0.4,0.2l10.7,6.2l10.3,5.9l9.5,5.5l12.9,7.4l56.4,32.5
			l22.1,12.8l17.3,10l5.1,2.9l21,12.1l13.3,7.7l16.2,9.3l24.9,14.4l27.6,15.9l153.6,88.7l141.3-81.6l28.8-16.6l25.6-14.8l22-12.6
			l4.6-2.7l3.6-2.1l6.7-3.9l12.4-7.2l1.5-0.9l15.2-8.8l6.2-3.6l33.2-19.2l50.9-29.4l15.3-8.8l6.1-3.5l5.6-3.2l12.6-7.3l2.3-1.3
			l108.7-62.8l45.5-26.3l90.5-52.3l74.2-42.8l1.1-0.6l9.4-5.4l52.5-30.3l73.1-42.2l476.7-275.3V769.2L1326.9,3.8z M1326.9,268
			l1096.7,633.3v1266.5h-0.1l-375.9,217.1l-75.4,43.6l-348.8,201.4l-12.9,7.5l-12.6,7.3l-11.7,6.8l-41.6,24l-18.8,10.8l-24.3,14
			l-48.1,27.8l-12.6,7.3l-11.7,6.8l-12.3,7.1l-0.3,0.1l-21.4,12.3l-2.1,1.2l-25.7,14.8l-40.4,23.3l-1.1-0.6l-42.5-24.6l-26.6-15.3
			l-24.3-14.1l-123.2-71.1l-78.8-45.5l-4.3-2.5l-19.8-11.4l-12-6.9l-15-8.6l-12-6.9l-14.9-8.6l-26.9-15.5l-105.3-60.7l-15-8.6
			l-8.3-4.8l-3.7-2.1l-41.8-24.2l-24-13.9l-30.3-17.5l-15.2-8.8l-63.6-36.7L230,2167.8V901.2l1096.2-632.8L1326.9,268z"/>
		<g>
			<path d="M1565,2795.2l48.2-27.7l2.2,3.8c5.1,8.8,8.5,17.2,10.3,25.1c1.5,7.4,1.5,15.2-0.2,23.5c-3.8,18.4-14.1,32.4-30.8,42
				c-16.3,9.4-33.7,11.5-52.1,6.5c-18.5-5.1-32.4-16-42-32.6c-9.7-16.9-12.1-34.7-7-53.3s16-32.8,33-42.6c9.1-5.2,18.7-8.3,28.7-9.1
				c9.7-0.7,20.6,1.1,32.7,5.2l-5.7,19.3c-16.9-7.2-32.2-6.9-45.9,1c-12.4,7.1-20.3,17.3-23.7,30.7c-3.5,13.1-1.7,26,5.6,38.6
				c7.5,13,18.3,21,32.4,24.1c13.2,2.8,24.9,1.2,35.1-4.6c8.6-5,14.7-12.3,18.3-22.1c3.5-9.9,3.3-19.1-0.5-27.8l-29.1,16.7
				L1565,2795.2z"/>
			
				<rect x="1675.6" y="2661.8" transform="matrix(0.8665 -0.4992 0.4992 0.8665 -1137.2897 1205.8866)" width="20.3" height="134.6"/>
			<polygon points="1770.9,2624.3 1828.5,2724.4 1811,2734.5 1753.4,2634.5 1726.5,2649.9 1717,2633.4 1788.1,2592.4 1797.6,2609 
							"/>
			<path d="M1929.8,2519.2l12,20.8c-15.1-2.7-28.1-0.9-38.9,5.4c-12,6.9-19.6,17.1-22.9,30.3c-3.3,13.3-1.4,26.2,5.7,38.6
				c7,12.2,17.1,20.2,30.2,23.9c13.1,3.6,25.6,2,37.7-4.9c6.1-3.6,10.9-7.6,14-12.1c1.8-2.4,3.6-5.2,5.2-8.4s3.2-6.9,4.6-10.9
				l12.2,21.3c-6.8,11.5-15.8,20.5-26.8,26.9c-16.7,9.6-34.2,11.9-52.7,7.1c-18.5-5-32.5-15.8-42.1-32.3
				c-8.5-14.9-11.2-30.9-8.1-48.2c3.8-21.2,15.4-37.3,34.6-48.4C1904.9,2522.1,1916.7,2519.1,1929.8,2519.2L1929.8,2519.2z"/>
			<path class="st9" d="M2137.4,2444.5c-9.6-16.6-23.8-27.4-42.6-32.5c-14.3-3.8-28.1-3.4-41.2,1.3h0c-4,1.4-7.9,3.3-11.8,5.5
				c-4,2.3-7.7,4.9-11,7.7c-10.7,9-18,20.6-22,34.9c-5.2,18.6-3.1,36.2,6.3,52.6c10.7,18.7,26,30,45.8,33.9c18,3.5,34.5,1,49.6-7.7
				c17.1-9.8,28.2-24.1,33.5-42.7C2149.3,2479,2147,2461.2,2137.4,2444.5z M2124.9,2493.1c-3.6,13.3-11.5,23.5-23.7,30.5
				c-11.3,6.5-23.6,8-37,4.7c-13.4-3.3-23.9-11.4-31.3-24.3c-7-12.3-8.8-25-5.2-38.1c3.5-13.3,11.3-23.4,23.4-30.4
				c12.2-7.1,24.9-8.7,38-5c13.1,3.6,23.2,11.7,30.4,24.1C2126.6,2466.8,2128.4,2479.7,2124.9,2493.1z"/>
			
				<rect x="2198.4" y="2360.8" transform="matrix(0.8663 -0.4995 0.4995 0.8663 -917.6002 1427.7816)" width="20.3" height="134.6"/>
			<polygon points="2319.3,2442 2247.6,2317.4 2383.9,2357.5 2337.2,2276.4 2354.8,2266.3 2426.1,2390.1 2289.9,2350.2 
				2336.9,2431.9 			"/>
		</g>
	</g>
</g>
</svg>
