<svg id="Layer_1" data-name="Layer 1" xmlns="http://www.w3.org/2000/svg" xmlns:xlink="http://www.w3.org/1999/xlink" viewBox="0 0 110.85 128"><defs><style>.cls-1,.cls-15{fill:#fff;}.cls-1,.cls-17{fill-rule:evenodd;}.cls-2,.cls-23{fill:none;}.cls-3{fill:#0e206d;}.cls-4{fill:#215d94;}.cls-5{fill:url(#Gradiente_sem_nome_35);}.cls-6{fill:#00123c;}.cls-7{fill:url(#Nueva_muestra_de_motivo_1);}.cls-8{opacity:0.31;fill:url(#Nueva_muestra_de_motivo_2);}.cls-9{fill:#247a87;}.cls-10{fill:#0b1621;}.cls-11{fill:#d4d4e8;}.cls-12{fill:#23e697;}.cls-13,.cls-17{fill:#0f2947;}.cls-14{fill:#16cc7c;}.cls-16{mask:url(#mask);}.cls-18{fill:#061014;}.cls-19{fill:#060e14;}.cls-20{fill:#28607c;}.cls-21{fill:#060d14;}.cls-22{fill:#74b7d1;}.cls-23{stroke:#51c4f2;stroke-miterlimit:10;stroke-width:0.25px;}.cls-24{fill:#e8f1f7;}.cls-25{fill:#25e899;}</style><linearGradient id="Gradiente_sem_nome_35" y1="64" x2="110.85" y2="64" gradientUnits="userSpaceOnUse"><stop offset="0" stop-color="#00123c"/><stop offset="0.1104" stop-color="#052451"/><stop offset="0.2478" stop-color="#0a3364"/><stop offset="0.3893" stop-color="#0d3d6f"/><stop offset="0.5401" stop-color="#0e4073"/><stop offset="1" stop-color="#001736"/></linearGradient><pattern id="Nueva_muestra_de_motivo_1" data-name="Nueva muestra de motivo 1" width="15" height="22" patternUnits="userSpaceOnUse" viewBox="0 0 15 22"><rect class="cls-2" width="15" height="22"/><path class="cls-3" d="M5.11,6.9645V6.485H3.67v.4795h-.96v7.1963h.96V14.64H5.11v-.4795h.959V6.9645Zm0,4.0777h-.48v.9594h.48v1.6792H3.67V10.0827H4.15v-.96H3.67V7.444H5.11Zm-.96-.9595v.9595h.48v-.9595Z"/><path class="cls-3" d="M12.45,13.6808V6.485h-.9589v.959h-.96v.96h.96v5.2768h-.96v.96H13.29v-.96Z"/><path class="cls-3" d="M12.63,17.652v-.4794H11.191v.4794h-.96v7.1963h.96v.48H12.63v-.48h.959V17.652Zm0,4.0777h-.48v.9595h.48v1.6792H11.191V20.77H11.67v-.9595H11.191V18.1315H12.63Zm-.96-.96v.96H12.15v-.96Z"/><path class="cls-3" d="M4.9292,24.3684V17.1726H3.97v.9589H3.01v.96h.96v5.2769H3.01v.9594H5.7691v-.9594Z"/><path class="cls-3" d="M12.63-4.348v-.4794H11.191v.4794h-.96V2.8483h.96v.4795H12.63V2.8483h.959V-4.348Zm0,4.0777h-.48v.96h.48V2.3684H11.191V-1.23H11.67v-.9595H11.191V-3.8685H12.63ZM11.67-1.23v.96H12.15V-1.23Z"/><path class="cls-3" d="M4.9292,2.3684V-4.8274H3.97v.9589H3.01v.96h.96V2.3684H3.01v.9594H5.7691V2.3684Z"/></pattern><pattern id="Nueva_muestra_de_motivo_2" data-name="Nueva muestra de motivo 2" x="0.004" y="0.0038" width="15" height="22" patternUnits="userSpaceOnUse" viewBox="0 0 15 22"><rect class="cls-2" width="15" height="22"/><path class="cls-4" d="M5.11,6.9645V6.485H3.67v.4795h-.96v7.1963h.96V14.64H5.11v-.4795h.959V6.9645Zm0,4.0777h-.48v.9594h.48v1.6792H3.67V10.0827H4.15v-.96H3.67V7.444H5.11Zm-.96-.9595v.9595h.48v-.9595Z"/><path class="cls-4" d="M12.45,13.6808V6.485h-.9589v.959h-.96v.96h.96v5.2768h-.96v.96H13.29v-.96Z"/><path class="cls-4" d="M12.63,17.652v-.4794H11.191v.4794h-.96v7.1963h.96v.48H12.63v-.48h.959V17.652Zm0,4.0777h-.48v.9595h.48v1.6792H11.191V20.77H11.67v-.9595H11.191V18.1315H12.63Zm-.96-.96v.96H12.15v-.96Z"/><path class="cls-4" d="M4.9292,24.3684V17.1726H3.97v.9589H3.01v.96h.96v5.2769H3.01v.9594H5.7691v-.9594Z"/><path class="cls-4" d="M12.63-4.348v-.4794H11.191v.4794h-.96V2.8483h.96v.4795H12.63V2.8483h.959V-4.348Zm0,4.0777h-.48v.96h.48V2.3684H11.191V-1.23H11.67v-.9595H11.191V-3.8685H12.63ZM11.67-1.23v.96H12.15V-1.23Z"/><path class="cls-4" d="M4.9292,2.3684V-4.8274H3.97v.9589H3.01v.96h.96V2.3684H3.01v.9594H5.7691V2.3684Z"/></pattern><mask id="mask" x="-134.8033" y="-123.9234" width="475.9092" height="264.311" maskUnits="userSpaceOnUse"><g transform="translate(0.004 0.0038)"><g id="a"><path class="cls-1" d="M-134.8074,140.3838H341.1018v-264.311H-134.8074Z"/></g></g></mask></defs><title>kudos2</title><polygon class="cls-5" points="110.85 32 110.85 96 55.43 128 11.08 102.4 10.88 102.28 0 96 0 32 55.43 0 110.85 32"/><polygon class="cls-6" points="99.607 38.925 99.607 89.591 55.44 114.925 25.441 97.425 20.107 94.425 11.607 89.758 11.774 38.758 55.607 13.258 99.607 38.925"/><g id="background"><path class="cls-7" d="M19.403,31.9242l.12-.07.04-.03.39-.22,1.06-.62.07-.04.19-.1.33-.19,1.64-.95.41-.24.54-.31h.01l1.1-.64.4-.23,2.08-1.21.76-.44.42-.24.65-.37.01-.01.06-.04h.01l.02-.01.33-.19.29-.17,1.77-1.02,1.21-.7,1.62-.94.68-.39.47-.27.65-.37.33-.2.61-.34.89-.52,2.34-1.35.31-.18,1.81-1.04.02-.02,3.08-1.77a.01.01,0,0,1,.01-.01l1.55-.9.11-.06.18-.1a.0308.0308,0,0,1,.02-.01l.35-.21.66-.38h13.18l.03.02c0,.01,0,.01.01.01l5.24,3.03,1.87,1.08.06.04c.01-.01.01,0,.02.01l3.05,1.77h.01l.82.47.6.34.03.02.12.07.15.09.7.4.43.25.75.43,1.69.98.62.35.66.39,1.6.92.31.18.28.16.23.14.19.1.4.24.03.02.14.07.24.14.38.22.41.24,1.96,1.13.43.25.11.06h.01l.13.09h.01l.99.57.51.29.4.24.42.24.74.43.36.2.36.22h.01l.15.09,1.13.65.31.17.21.13.13.07.06.04.63.36,1.24.71.89.52.39.23.46.26,1,.58.36.21.3.17,2.21,1.28.45.25.06.04.14.08h.01l.12.08.56.32.3.17.6.35.19.11v53.13l-.09.05-.5.29-.3.17-.5.29v.01h-.02l-.06.04-.07.04-.16.09-.09.05-.01.01-.12.07-1.49.86-.54.31-.58.34-.67.38-1.02.59-.86.5-.32.18-.48.28-.81.47-.5.29-.15.08-.09.05-.08.05-.29.17-.07.04-.12.07-1.29.74v.01l-.54.3-.1.06-.52.31-.17.09-.13.08-1.49.86-.43.24-.02.02-.16.09-.17.1-.59.34-1.31.76-.88.5-.1.06-.32.19-.17.09-.09.05v.01l-.02.01-.33.19-.67.38-.82.48-1.19.69-2.6,1.5-.17.1-.45.26-.82.47-.45.26-.81.47-2.01,1.16-1.27.73-.56.33-1.46.84a.055.055,0,0,0-.05.03c-.01.01-.03.02-.04.03l-1.38.79-1.39.8-.92.53-3.69,2.13-1.6.93a.0349.0349,0,0,0-.02.01l-3.55,2.05-.92.53h-.01l-.34.2-.72-.42-.95-.55h-.01l-3.68-2.12c-.01-.01-.02-.02-.03-.02l-1.76-1.02h-.01l-3.48-2.01-1.14-.66-1.43-.83-3.93-2.27c0-.01,0-.01-.01-.01l-1.9-1.09-.04-.02-.37-.21v-.01l-.78-.45-.45-.26-.83-.47-3.03-1.75h-.01l-1.25-.73-.85-.5-.77-.44-.03-.02-.05-.03-.12-.06-.06-.04h-.01l-.34-.2h-.01l-.34-.21-.91-.52-1.32-.76-.57-.33-.14-.08-.16-.09-.1-.06-.41-.24-1.36-.79-.07-.04h-.01l-.05-.03-.09-.05-.07-.04-.14-.08-.35-.2-.35-.21-.26-.15-.32-.18-1.31-.76-.34-.19-.09-.06-.11-.06-.14-.08-.52-.3-.8-.46-.44-.26-.02-.01-.13-.08-.17-.09-.83-.48-1.05-.61-.6-.35-.6-.34-.55-.32-1.56-.9-.28-.16-.03-.02-.13-.08-.14-.08-.48-.27-.3-.17-.32-.19v-53.13l.53-.3v-.01l.32-.18.58-.33.13-.08.14-.08.06-.04.4-.23,2.33-1.34.64-.37.97-.56.25-.15.22-.13.15-.08.24-.14.89-.51,1.24-.72" transform="translate(0.004 0.0038)"/><circle class="cls-8" cx="56.8746" cy="68.1215" r="38.7126"/></g><g id="bot"><path class="cls-9" d="M49.1671,79.934a11.0478,11.0478,0,0,1,.6109,4.3148,14.8519,14.8519,0,0,0,12.1064,0,18.8749,18.8749,0,0,1,0-4.1007Z" transform="translate(0.004 0.0038)"/><path class="cls-10" d="M80.6742,90.4646c-2.0837-1.697-18.79-6.2158-18.79-6.2158h0a31.3441,31.3441,0,0,1-12.3288,0h0s-16.7061,4.5188-18.79,6.2158-2.996,8.79-2.996,8.79l27.756,7.5962h.3884L84.603,98.2543S82.7579,92.1615,80.6742,90.4646Z" transform="translate(0.004 0.0038)"/><polygon points="35.441 83.466 40.815 78.466 69.19 78.591 75.815 82.966 56.94 90.841 35.441 83.466"/><path class="cls-11" d="M76.2423,59.7567a10.2582,10.2582,0,0,1,.166,4.8709A7.219,7.219,0,0,1,74.85,68.8864c-1.0815,1.0964-3.2525,1.2044-3.9562-.1654a2.3543,2.3543,0,0,1-1.2066,2.9167,6.8463,6.8463,0,0,1-3.4137.5271l-9.9989-.1784-15.1288-.27a2.1579,2.1579,0,0,1-1.7962-.6091c-.2674-.3757-.2656-.8863-.501-1.2828-.4466-.7525-1.49-.7954-2.3132-1.0913a4.4906,4.4906,0,0,1-2.5715-2.9843A13.281,13.281,0,0,1,33.5771,61.7c.0114-1.532.1318-3.2928,1.3569-4.2128A21.0318,21.0318,0,0,1,36.9992,56.48c1.3122-.776,1.9081-2.319,2.6456-3.6532A15.88,15.88,0,0,1,45.04,47.21a18.2061,18.2061,0,0,1,24.7695,4.95c.8346,1.182,1.4788,3.9935,2.4842,4.8161.5116.4185,1.54.2574,2.1855.6235A4.1716,4.1716,0,0,1,76.2423,59.7567Z" transform="translate(0.004 0.0038)"/><polygon id="Shape" class="cls-12" points="40.034 71.976 67.728 71.976 70.077 72.874 68.312 79.193 41.777 79.193 40.034 71.976"/><path id="Shape-2" data-name="Shape" class="cls-11" d="M64.5573,87.0017H45.5218A3.7517,3.7517,0,0,1,41.7725,83.25V79.189H68.3081V83.25a3.753,3.753,0,0,1-3.7508,3.7522" transform="translate(0.004 0.0038)"/><path id="Shape-3" data-name="Shape" class="cls-13" d="M64.5573,87.8628H45.5218A4.62,4.62,0,0,1,40.91,83.25V78.3236H69.1691V83.25A4.62,4.62,0,0,1,64.5573,87.8628ZM42.635,80.05v3.2a2.8917,2.8917,0,0,0,2.8868,2.8883H64.5573A2.892,2.892,0,0,0,67.4456,83.25v-3.2Z" transform="translate(0.004 0.0038)"/><path id="Shape-4" data-name="Shape" class="cls-13" d="M68.9774,80.05H41.1031L36.568,62.1941V62.085a18.4723,18.4723,0,0,1,36.9445,0v.1091l-.0266.1046ZM42.4448,78.3236H67.6357L71.789,61.9773a16.7491,16.7491,0,0,0-33.4975,0Z" transform="translate(0.004 0.0038)"/><path id="Shape-5" data-name="Shape" class="cls-13" d="M38.8,70.2235H36.9809a3.54,3.54,0,0,1-3.5327-3.5385V59.8942a3.5387,3.5387,0,0,1,3.5327-3.5371h.7725a.8611.8611,0,0,1,0,1.7221h-.7725a1.8156,1.8156,0,0,0-1.8107,1.815V66.685a1.8122,1.8122,0,0,0,1.8107,1.812H38.8a.8633.8633,0,1,1,0,1.7265" transform="translate(0.004 0.0038)"/><path id="Shape-6" data-name="Shape" class="cls-13" d="M73.1586,70.2235H71.3407a.8633.8633,0,0,1,0-1.7265h1.8179a1.8151,1.8151,0,0,0,1.815-1.812V59.8942a1.8185,1.8185,0,0,0-1.815-1.815h-.77a.8611.8611,0,0,1,0-1.7221h.77a3.5428,3.5428,0,0,1,3.5385,3.5371V66.685a3.5442,3.5442,0,0,1-3.5385,3.5385" transform="translate(0.004 0.0038)"/><path id="Shape-7" data-name="Shape" class="cls-14" d="M50.1763,71.9721A11.8351,11.8351,0,0,1,45.799,53.6163c2.17-2.6274,15.8168-2.7614,17.98-.314a11.8266,11.8266,0,0,1-4.1017,18.67" transform="translate(0.004 0.0038)"/><path id="Shape-8" data-name="Shape" class="cls-13" d="M49.4259,72.8331a.8673.8673,0,0,1-.376-.0884,13.2377,13.2377,0,0,1-5.3682-19.0222.8611.8611,0,0,1,1.4522.9259,11.5148,11.5148,0,0,0,4.6709,16.5482.8616.8616,0,0,1-.3789,1.6365" transform="translate(0.004 0.0038)"/><path id="Shape-9" data-name="Shape" class="cls-13" d="M60.3641,72.7712a.8621.8621,0,0,1-.3862-1.6337,11.5122,11.5122,0,0,0,4.1355-17.0922.8617.8617,0,1,1,1.389-1.02A13.2386,13.2386,0,0,1,60.7474,72.68a.87.87,0,0,1-.3833.0914" transform="translate(0.004 0.0038)"/><path id="Shape-10" data-name="Shape" class="cls-15" d="M59.972,61.3059a3.0851,3.0851,0,1,1-3.0858-3.0844,3.0863,3.0863,0,0,1,3.0858,3.0844" transform="translate(0.004 0.0038)"/><path id="Shape-11" data-name="Shape" class="cls-15" d="M62.1762,65.9177a1.2488,1.2488,0,1,1-1.2489-1.2489,1.246,1.246,0,0,1,1.2489,1.2489" transform="translate(0.004 0.0038)"/><path id="Shape-12" data-name="Shape" class="cls-13" d="M70.0962,72.8331H40.8675a.8621.8621,0,0,1,0-1.7235H70.0962a.8621.8621,0,0,1,0,1.7235" transform="translate(0.004 0.0038)"/><path id="Shape-13" data-name="Shape" class="cls-13" d="M37.6177,60.0018a.8526.8526,0,0,1-.6-.2449.8618.8618,0,0,1-.0163-1.2192A25.4727,25.4727,0,0,1,72.855,57.77a.8626.8626,0,0,1-1.1811,1.2576,23.7425,23.7425,0,0,0-33.44.7152.8587.8587,0,0,1-.6163.26" transform="translate(0.004 0.0038)"/><path id="Shape-14" data-name="Shape" class="cls-12" d="M66.2675,91.0253H44.2332a.8618.8618,0,1,1,0-1.7235H66.2675a.8618.8618,0,1,1,0,1.7235" transform="translate(0.004 0.0038)"/><g class="cls-16"><path class="cls-17" d="M62.6543,77.3545a1.8619,1.8619,0,0,1-1.5419-1.0553c-.2654-.4-.3755-.5258-.55-.5258-.1779,0-.2885.1267-.5528.5258a1.6537,1.6537,0,0,1-3.0833,0c-.2648-.4-.376-.5258-.5522-.5258s-.2874.1267-.5522.5258a1.6545,1.6545,0,0,1-3.0844,0c-.2648-.4-.3744-.5258-.5506-.5258-.1778,0-.2873.1267-.5532.5258a1.6546,1.6546,0,0,1-3.0845,0c-.2659-.4-.3771-.5258-.5527-.5258a.5929.5929,0,1,1,0-1.1858,1.86,1.86,0,0,1,1.5414,1.057c.2642.3992.376.5241.5544.5241.175,0,.2857-.1249.55-.5241a1.6541,1.6541,0,0,1,3.0855.0011c.2654.398.3749.523.5511.523s.2885-.1249.5522-.5241a1.6529,1.6529,0,0,1,3.0839.0011c.2648.398.376.523.5527.523s.2874-.1249.55-.523a1.6535,1.6535,0,0,1,3.0845-.0005c.2654.3986.3744.5235.5516.5235A.5929.5929,0,0,1,62.69,77.354c-.012,0-.0239,0-.0359,0" transform="translate(0.004 0.0038)"/></g><path class="cls-18" d="M30.7288,59.35c5.3071.63,34.3669,3.6957,51.88-2.4039,1.6287-.5673,1.6438-3.15.0178-4.0191-1.7124-.9148-4.8321-1.772-10.4078-2.2081,0,0-50.5446,1.133-43.4352,7.73A3.4554,3.4554,0,0,0,30.7288,59.35Z" transform="translate(0.004 0.0038)"/><path class="cls-19" d="M62.3729,36.2408c-8.197,3.0694-14.4614.7827-20.1068.5912-3.9129-.1327-4.777,9.23-4.9388,14.9893,9.28,2.6425,19.0493,1.1769,28.2918-.9248,2.7344-.6294,5.4881-1.2562,8.2326-1.9256C72.9963,41.4363,69.3325,33.6347,62.3729,36.2408Z" transform="translate(0.004 0.0038)"/><path class="cls-20" d="M37.3273,51.8213c-.0293,1.04-.0357,1.9632-.033,2.6911a1.9869,1.9869,0,0,0,1.71,1.9572c24.1018,3.4426,35.0405-3.5647,35.0405-3.5647a30.2806,30.2806,0,0,0-.1932-3.934c-2.7445.6694-5.4982,1.2962-8.2326,1.9256C56.3766,52.9982,46.6075,54.4638,37.3273,51.8213Z" transform="translate(0.004 0.0038)"/><path class="cls-21" d="M49.85,83.7472a.1792.1792,0,0,0-.1506-.2049c-1.6365-.2571-13.54-2.0552-14.042-.0527C35.1174,85.64,43.778,90.369,43.778,90.369s-6.2454,3.2756-5.1413,3.5884S59.174,107.61,59.174,107.61,49.1307,88.2617,49.85,83.7472Z" transform="translate(0.004 0.0038)"/><path class="cls-19" d="M61.7631,83.49S75.32,81.339,75.86,83.49s-8.1211,6.8794-8.1211,6.8794,6.2454,3.2756,5.1413,3.5884S52.3427,107.61,52.3427,107.61,62.7913,87.6513,61.7631,83.49Z" transform="translate(0.004 0.0038)"/><path class="cls-22" d="M87.983,95.8841v2.7l-.62.36-.43.24-.02.02-.16.09-.17.1-.59.34-1.31.76-.88.5-.1.06-.32.19-.17.09-.09.05v.01l-.02.01-.33.19-.67.38-.82.48-1.19.69-2.6,1.5-.17.1-.45.26-.82.47-.45.26-.81.47-2.01,1.16-1.27.73-.56.33-1.46.84a.055.055,0,0,0-.05.03c-.01.01-.03.02-.04.03l-1.38.79-1.39.8-.92.53-3.69,2.13-1.6.93a.0349.0349,0,0,0-.02.01l-3.55,2.05-.92.53h-.01l-.34.2-.72-.42-.95-.55h-.01l-3.68-2.12c-.01-.01-.02-.02-.03-.02l-1.76-1.02h-.01l-3.48-2.01-1.14-.66-1.43-.83-3.93-2.27c0-.01,0-.01-.01-.01l-1.9-1.09-.04-.02-.37-.21v-.01l-.78-.45-.45-.26-.83-.47-3.03-1.75h-.01l-1.25-.73-.85-.5-.77-.44-.03-.02-.05-.03-.12-.06-.06-.04h-.01l-.34-.2h-.01l-.34-.21-.91-.52-1.32-.76-.39-.23v-3.5a2.5138,2.5138,0,0,1,2.52-2.51h58.38A2.5053,2.5053,0,0,1,87.983,95.8841Z" transform="translate(0.004 0.0038)"/><path class="cls-20" d="M87.983,97.4341v1.15l-.62.36-.43.24-.02.02-.16.09-.17.1-.59.34-1.31.76-.88.5-.1.06-.32.19-.17.09-.09.05v.01l-.02.01-.33.19-.67.38-.82.48-1.19.69-2.6,1.5-.17.1-.45.26-.82.47-.45.26-.81.47-2.01,1.16-1.27.73-.56.33-1.46.84a.055.055,0,0,0-.05.03c-.01.01-.03.02-.04.03l-1.38.79-1.39.8-.92.53-3.69,2.13-1.6.93a.0349.0349,0,0,0-.02.01l-3.55,2.05-.92.53h-.01l-.34.2-.72-.42-.95-.55h-.01l-3.68-2.12c-.01-.01-.02-.02-.03-.02l-1.76-1.02h-.01l-3.48-2.01-1.14-.66-1.43-.83-3.93-2.27c0-.01,0-.01-.01-.01l-1.9-1.09-.04-.02-.37-.21v-.01l-.78-.45-.45-.26-.83-.47-3.03-1.75h-.01l-1.25-.73-.85-.5-.77-.44-.03-.02-.05-.03-.12-.06-.06-.04h-.01l-.34-.2h-.01l-.34-.21-.91-.52-1.32-.76-.39-.23v-1.95a1.7717,1.7717,0,0,1,.01-.23,2.5209,2.5209,0,0,1,2.51-2.28h58.38a2.518,2.518,0,0,1,2.51,2.51Z" transform="translate(0.004 0.0038)"/><path class="cls-23" d="M57.5243,102.0345a3.762,3.762,0,0,1,1.1638,2.7267" transform="translate(0.004 0.0038)"/><path class="cls-23" d="M56.1977,101.2111a3.7625,3.7625,0,0,1,.9486.506" transform="translate(0.004 0.0038)"/><path class="cls-23" d="M55.9359,101.1273q.1329.0372.2618.0838" transform="translate(0.004 0.0038)"/><path class="cls-23" d="M55.6052,101.0507q.168.031.3307.0766" transform="translate(0.004 0.0038)"/><path class="cls-23" d="M54.4925,101.0111q.1512-.0168.3059-.0216" transform="translate(0.004 0.0038)"/><path class="cls-23" d="M54.9147,108.5346" transform="translate(0.004 0.0038)"/><path class="cls-23" d="M54.9147,107.9057" transform="translate(0.004 0.0038)"/><path class="cls-23" d="M54.5168,101.6416a3.1428,3.1428,0,0,0-2.7466,3.12" transform="translate(0.004 0.0038)"/><path class="cls-23" d="M54.9147,101.6167a3.1663,3.1663,0,0,0-.3979.0249" transform="translate(0.004 0.0038)"/><path class="cls-23" d="M57.4614,102.9151a3.1425,3.1425,0,0,0-1.9629-1.2444" transform="translate(0.004 0.0038)"/><path class="cls-23" d="M58.0532,104.5659a3.1265,3.1265,0,0,0-.2681-1.0915" transform="translate(0.004 0.0038)"/><path class="cls-23" d="M58.0556,104.6092l-.0024-.0433" transform="translate(0.004 0.0038)"/><path class="cls-23" d="M58.0592,104.7612c0-.051-.0013-.1017-.0036-.152" transform="translate(0.004 0.0038)"/><path class="cls-23" d="M52.3991,104.7612a2.5156,2.5156,0,1,1,5.0312,0" transform="translate(0.004 0.0038)"/><path class="cls-23" d="M54.9147,107.2768" transform="translate(0.004 0.0038)"/><path class="cls-23" d="M54.9147,106.6479" transform="translate(0.004 0.0038)"/><path class="cls-23" d="M53.028,104.7612" transform="translate(0.004 0.0038)"/><path class="cls-23" d="M56.8014,104.7612a1.8856,1.8856,0,0,0-1.8867-1.8867" transform="translate(0.004 0.0038)"/><path class="cls-23" d="M53.6569,104.7612a1.2578,1.2578,0,1,1,2.5156,0" transform="translate(0.004 0.0038)"/><path class="cls-23" d="M54.9147,106.019" transform="translate(0.004 0.0038)"/><path class="cls-23" d="M54.9147,105.39" transform="translate(0.004 0.0038)"/><path class="cls-23" d="M55.5436,104.7612a.6291.6291,0,0,0-1.0459-.471" transform="translate(0.004 0.0038)"/><path class="cls-23" d="M58.4718,106.4791a6.9421,6.9421,0,0,0,.2145-1.7179" transform="translate(0.004 0.0038)"/><path class="cls-23" d="M56.8162,108.5154q-.0855.1147-.1759.2253" transform="translate(0.004 0.0038)"/><path class="cls-23" d="M57.11,108.085q-.0258.0413-.0521.0821" transform="translate(0.004 0.0038)"/><path class="cls-23" d="M57.5014,107.3526a6.2783,6.2783,0,0,1-.3916.7324" transform="translate(0.004 0.0038)"/><path class="cls-23" d="M57.8372,106.4187a6.2648,6.2648,0,0,1-.2072.6282" transform="translate(0.004 0.0038)"/><path class="cls-23" d="M58.0453,105.1558a6.2909,6.2909,0,0,1-.2081,1.2629" transform="translate(0.004 0.0038)"/><path class="cls-23" d="M58.0571,104.8264q-.0017.1657-.0118.3294" transform="translate(0.004 0.0038)"/><path class="cls-23" d="M58.0574,104.7612l0,.0652" transform="translate(0.004 0.0038)"/><path class="cls-23" d="M57.4285,104.7612" transform="translate(0.004 0.0038)"/><path class="cls-23" d="M55.6088,108.9209a5.6456,5.6456,0,0,0,1.75-3.2654" transform="translate(0.004 0.0038)"/><path class="cls-23" d="M56.8,104.7612a5.0236,5.0236,0,0,1-2.16,4.1336" transform="translate(0.004 0.0038)"/><path class="cls-23" d="M55.1816,107.5433a4.3847,4.3847,0,0,0,.9891-2.7821" transform="translate(0.004 0.0038)"/><path class="cls-23" d="M55.1661,107.5623l.0155-.019" transform="translate(0.004 0.0038)"/><path class="cls-23" d="M53.906,108.6115a4.4137,4.4137,0,0,0,1.0434-.8055" transform="translate(0.004 0.0038)"/><path class="cls-23" d="M54.3856,107.4807a3.7766,3.7766,0,0,1-1.1254.7481" transform="translate(0.004 0.0038)"/><path class="cls-23" d="M55.5418,104.7612a3.7584,3.7584,0,0,1-.7414,2.2481" transform="translate(0.004 0.0038)"/><path class="cls-23" d="M54.8241,105.5072a3.1558,3.1558,0,0,0,.0888-.746" transform="translate(0.004 0.0038)"/><path class="cls-23" d="M52.7877,107.7372a3.1477,3.1477,0,0,0,2.0364-2.23" transform="translate(0.004 0.0038)"/><path class="cls-23" d="M54.284,104.7612a2.5148,2.5148,0,0,1-1.9412,2.45" transform="translate(0.004 0.0038)"/><path class="cls-23" d="M52.0134,106.6322a1.8859,1.8859,0,0,0,1.6417-1.871" transform="translate(0.004 0.0038)"/><path class="cls-23" d="M53.0262,104.7612a1.2571,1.2571,0,0,1-1.1884,1.2559" transform="translate(0.004 0.0038)"/><path class="cls-23" d="M51.7684,105.39a.6286.6286,0,0,0,.6289-.6289" transform="translate(0.004 0.0038)"/></g><path class="cls-24" d="M101.4529,49.2641a8.0032,8.0032,0,0,1-1-1.42,5.0833,5.0833,0,0,1-.23-.47,5.6461,5.6461,0,0,1-.34-1.03v4.92a.2656.2656,0,0,1,.06.05,1.52,1.52,0,0,1,.18.18,7.8881,7.8881,0,0,1,.53.8,1.1434,1.1434,0,0,1,.17.14,1.6852,1.6852,0,0,1,.22.24c.06.08.12.16.17.24.06.1.13.2.19.3a.5622.5622,0,0,0,.08.13.43.43,0,0,1,0-.16c.01.01.02.02.02.03,0-.01,0-.02.01-.02a.0752.0752,0,0,1,.01-.05.0914.0914,0,0,1,.03-.07l.01-.01.03-.03v-3.62A1.9225,1.9225,0,0,1,101.4529,49.2641Zm.04,13.99a.6344.6344,0,0,0-.25-.24,5.4958,5.4958,0,0,1-.91-.73,5.3519,5.3519,0,0,1-.4-.42.27.27,0,0,1-.05-.06v3.05a6.7871,6.7871,0,0,1,1.32-1.18,1.0212,1.0212,0,0,0,.28-.25.1655.1655,0,0,0,.02-.1A.17.17,0,0,0,101.4929,63.2541Zm-2.16-26.01c-.22.19-.32.5-.75.66l.45.26a2.2,2.2,0,0,0,.17-.25,4.5509,4.5509,0,0,0,.27-.48c.01-.12.02-.23.03-.35C99.4529,37.1341,99.3929,37.1941,99.3329,37.2442Zm-4.98-2.54c-.02.01-.04.01-.06.03-.01-.01-.03,0-.04.01a.137.137,0,0,0-.04.03.2683.2683,0,0,1-.05.06,1.7776,1.7776,0,0,0-.16.22.0993.0993,0,0,0-.04.05c-.01.02-.03.03-.04.05a.1425.1425,0,0,0-.03.04l.15.09.02.01h.01l.21.13a1.2985,1.2985,0,0,0,.04-.19.8776.8776,0,0,0,.02-.16v-.09c-.01-.05-.01-.1-.02-.15A.2762.2762,0,0,1,94.353,34.7041Zm-3.38-3.24-1.13-.65-.15-.09h-.01l-.36-.22-.36-.2-.74-.43a3.5154,3.5154,0,0,0-.55.17c-.16.06-.32.13-.48.2-.33.16-.64.34-.95.53l.08.05.16.09.17.1.16.09h.01l.03.03.82.47.08.04.31.18.28.17.25.14.33.19.45.26.89.51.05.04c.05-.1.09-.19.14-.29.05-.09.1-.17.15-.26a4.4263,4.4263,0,0,1,.39-.57,2.5451,2.5451,0,0,1,.29-.38Zm-.68,65.61a1.0409,1.0409,0,0,1-.25-.4c-.05-.12-.08-.24-.13-.36l-.03-.09v-.02c-.02-.05-.03-.11-.05-.16-.04-.17-.09-.33-.14-.5l-.16.09-.35.21-.28.16-.41.23-.18.11-.33.19-.14.08-.08.05-.34.19-.43.25-.25.14-.28.17-.99.57a1.224,1.224,0,0,0,.28.45,1.2024,1.2024,0,0,1,.31.13h.01a2.0672,2.0672,0,0,1,.4.25c.01.01.03.02.04.03a4.4528,4.4528,0,0,0,.4.36l.02-.02.43-.24.62-.36.87-.5.13-.08.17-.09.52-.31.1-.06.54-.3v-.01C90.3029,97.1742,90.3029,97.1341,90.293,97.0741Zm-7.63,3.68a4.9293,4.9293,0,0,0-.99-.58l-.46.27-.21.12a3.586,3.586,0,0,1,.55.19c.01,0,.02.01.03.01l.06.03a4.1064,4.1064,0,0,0,.84.34.211.211,0,0,0,.1-.04,497582161916.1287,497582161916.1287,0,0,0,.1-.1.4081.4081,0,0,0,.05-.09A.6788.6788,0,0,1,82.663,100.7541Zm-26.57-87.62c-.08-.12-.14-.25-.21-.37l-.42-.75c-.33.5-.6,1.01-.9,1.49a4.6479,4.6479,0,0,1-.3.47h.01l1.43-.83.6.35h.01A3.1552,3.1552,0,0,1,56.093,13.1341Zm-30.67,84.56h-.01l-.71-.43-.12-.06-.01-.01-.15-.08-.26-.15-.07-.05-.32-.19h-.01l-.61-.35-.1-.05-.03-.02-.63-.37-.61-.35-.34-.19-.37-.22-.74-.43-.39-.22-.11-.06a2.61,2.61,0,0,0-.22.25c-.21.25-.4.52-.61.77-.08.18-.16.36-.23.55l.09.06.34.19,1.31.76.32.18.26.15.35.21.35.2.14.08.07.04.09.05.05.03h.01l.07.04,1.36.79.41.24c.16-.13.32-.26.47-.4a1.0053,1.0053,0,0,0,.11-.1,1.9583,1.9583,0,0,0,.15-.14,2.1218,2.1218,0,0,0,.22-.21c.17-.16.34-.33.51-.5Zm-13.98-17.93a.5918.5918,0,0,0-.02.14v.02a.7457.7457,0,0,0,.03.2.437.437,0,0,0,.07.16v-.74A.585.585,0,0,0,11.4429,79.7641Zm-.05-19.08a1.7514,1.7514,0,0,1-.14.23,4.4543,4.4543,0,0,1-.44.63,1.6477,1.6477,0,0,1-.21.25,1.0751,1.0751,0,0,1-.18.19,1.1932,1.1932,0,0,1-.2.19l-.01.01h-.01q-.015.0451-.03.03a1.1183,1.1183,0,0,1-.2.18c-.07.06-.15.11-.22.17-.07.05-.13.1-.18.14v1.3c.05.03.1.07.16.11.11.08.22.16.32.24a3.4321,3.4321,0,0,1,.29.25.01.01,0,0,1,.01.01c.07.06.13.13.19.19a6.1886,6.1886,0,0,1,.98,1.4v-5.76C11.483,60.5241,11.4429,60.6042,11.3929,60.6841Zm90.1,2.57a.6344.6344,0,0,0-.25-.24,5.4958,5.4958,0,0,1-.91-.73,3.9807,3.9807,0,0,1-.4-.42.27.27,0,0,1-.05-.06v3.05a6.7871,6.7871,0,0,1,1.32-1.18,1.0212,1.0212,0,0,0,.28-.25.1655.1655,0,0,0,.02-.1A.17.17,0,0,0,101.4929,63.2541Zm-2.16-26.01c-.22.19-.32.5-.75.66l.45.26a2.2,2.2,0,0,0,.17-.25,4.5509,4.5509,0,0,0,.27-.48c.01-.12.02-.23.03-.35C99.4529,37.1341,99.3929,37.1941,99.3329,37.2442Zm-4.98-2.54c-.02.01-.04.01-.06.03-.01-.01-.03,0-.04.01a.137.137,0,0,0-.04.03.2683.2683,0,0,1-.05.06,1.7776,1.7776,0,0,0-.16.22.0993.0993,0,0,0-.04.05c-.01.02-.03.03-.04.05a.1425.1425,0,0,0-.03.04l.15.09.02.01h.01l.21.13a1.2985,1.2985,0,0,0,.04-.19.8776.8776,0,0,0,.02-.16v-.09c-.01-.05-.01-.1-.02-.15A.2762.2762,0,0,1,94.353,34.7041Zm-3.38-3.24-1.13-.65-.15-.09h-.01l-.36-.22-.36-.2-.74-.43a3.5154,3.5154,0,0,0-.55.17c-.16.06-.32.13-.48.2-.33.16-.64.34-.95.53l.08.05.16.09.17.1.16.09h.01l.03.03.82.47.08.04.31.18.28.17.25.14.33.19.45.26.89.51.05.04c.05-.1.09-.19.14-.29.05-.09.1-.17.15-.26a4.4263,4.4263,0,0,1,.39-.57,2.5451,2.5451,0,0,1,.29-.38Zm-.68,65.61a1.0409,1.0409,0,0,1-.25-.4c-.05-.12-.08-.24-.13-.36l-.03-.09v-.02c-.02-.05-.03-.11-.05-.16-.04-.17-.09-.33-.14-.5l-.16.09-.35.21-.28.16-.41.23-.18.11-.33.19-.14.08-.08.05-.34.19-.43.25-.25.14-.28.17-.99.57a1.224,1.224,0,0,0,.28.45,1.2024,1.2024,0,0,1,.31.13h.01a2.0672,2.0672,0,0,1,.4.25c.01.01.03.02.04.03a4.4528,4.4528,0,0,0,.4.36l.02-.02.43-.24.62-.36.87-.5.13-.08.17-.09.52-.31.1-.06.54-.3v-.01C90.3029,97.1742,90.3029,97.1341,90.293,97.0741Zm-7.63,3.68a4.9293,4.9293,0,0,0-.99-.58l-.46.27-.21.12a3.586,3.586,0,0,1,.55.19c.01,0,.02.01.03.01l.06.03a4.1064,4.1064,0,0,0,.84.34.211.211,0,0,0,.1-.04,497582161916.1287,497582161916.1287,0,0,0,.1-.1.4081.4081,0,0,0,.05-.09A.6788.6788,0,0,1,82.663,100.7541Zm-26.57-87.62c-.08-.12-.14-.25-.21-.37l-.42-.75c-.33.5-.6,1.01-.9,1.49-.09.16-.19.32-.29.47l1.43-.83.6.35Q56.1981,13.3141,56.093,13.1341Zm-30.67,84.56h-.01l-.71-.43-.12-.06-.01-.01-.15-.08-.26-.15-.07-.05-.32-.19h-.01l-.61-.35-.1-.05-.03-.02-.63-.37-.61-.35-.34-.19-.37-.22-.74-.43-.39-.22-.11-.06a2.61,2.61,0,0,0-.22.25c-.21.25-.4.52-.61.77-.08.18-.16.36-.23.55l.09.06.34.19,1.31.76.32.18.26.15.35.21.35.2.14.08.07.04.09.05.05.03h.01l.07.04,1.36.79.41.24c.16-.13.32-.26.47-.4a1.0053,1.0053,0,0,0,.11-.1,1.9583,1.9583,0,0,0,.15-.14,2.1218,2.1218,0,0,0,.22-.21c.17-.16.34-.33.51-.5Zm-4.4-66.67c0-.01-.01-.03-.01-.04l-1.06.62-.39.22-.04.03c.07.08.15.16.23.24a.38.38,0,0,0,.09.09v.01a.0777.0777,0,0,0,.04.04,2.48,2.48,0,0,1,.29.43,1.0675,1.0675,0,0,1,.14.35.4429.4429,0,0,0,.15.12.3756.3756,0,0,0,.15.09c.05.03.11.05.17.08l.85-.49A3.6379,3.6379,0,0,1,21.0229,31.0241Zm-9.58,48.74a.5918.5918,0,0,0-.02.14v.02a.7457.7457,0,0,0,.03.2.437.437,0,0,0,.07.16v-.74A.585.585,0,0,0,11.4429,79.7641Zm-1.16-17.46a.01.01,0,0,0-.01.01l-.09.06c-.25.16-.46.3-.61.42v1c.15.14.35.3.59.5a6.24,6.24,0,0,1,1.36,1.59v-5.16A7.2042,7.2042,0,0,1,10.283,62.3042Zm91.12-24.82-.6-.35-.3-.17-.56-.32-.12-.08h-.01l-.14-.08-.06-.04-.45-.25-2.21-1.28-.3-.17-.36-.21-1-.58-.46-.26-.39-.23-.89-.52-1.24-.71-.63-.36-.06-.04-.13-.07-.21-.13-.31-.17-1.13-.65-.15-.09h-.01l-.36-.22-.36-.2-.74-.43-.42-.24-.4-.24-.51-.29-.99-.57h-.01l-.13-.09h-.01l-.11-.06-.43-.25-1.96-1.13-.41-.24-.38-.22-.24-.14-.14-.07-.03-.02-.4-.24-.19-.1-.23-.14-.28-.16-.31-.18-1.6-.92-.66-.39-.62-.35-1.69-.98-.75-.43-.43-.25-.7-.4-.15-.09-.12-.07-.03-.02-.6-.34-.82-.47h-.01l-3.05-1.77c-.01-.01-.01-.02-.02-.01l-.06-.04-1.87-1.08-5.24-3.03c-.01,0-.01,0-.01-.01l-.03-.02-1.4-.8-2.81-1.62h-.01l-1.13-.66-.79-.46-.46-.26-.8.46-.87.51h-.01l-1.11.64-2.88,1.66-.91.53-.66.38-.35.21a.0308.0308,0,0,0-.02.01l-.18.1-.11.06-1.55.9a.01.01,0,0,0-.01.01l-3.08,1.77-.02.02-1.81,1.04-.31.18-2.34,1.35-.89.52-.61.34-.33.2-.65.37-.47.27-.68.39-1.62.94-1.21.7-1.77,1.02-.29.17-.33.19-.02.01h-.01l-.06.04-.01.01-.65.37-.42.24-.76.44-2.08,1.21-.4.23-1.1.64h-.01l-.54.31-.41.24-1.64.95-.33.19-.19.1-.07.04-1.06.62-.39.22-.04.03-.12.07-.14.07-.6.35-1.24.72-.89.51-.24.14-.15.08-.22.13-.25.15-.97.56-.64.37-2.33,1.34-.4.23-.06.04-.14.08-.13.08-.58.33-.32.18v.01l-.53.3v53.13l.32.19.3.17.48.27.14.08.13.08.03.02.28.16,1.56.9.55.32.6.34.6.35,1.05.61.83.48.17.09.13.08.02.01.44.26.8.46.52.3.14.08.11.06.09.06.34.19,1.31.76.32.18.26.15.35.21.35.2.14.08.07.04.09.05.05.03h.01l.07.04,1.36.79.41.24.1.06.16.09.14.08.18.1.39.23,1.32.76.91.52.34.21h.01l.34.2h.01l.06.04.12.06.05.03.03.02.77.44.85.5,1.25.73h.01l3.03,1.75.83.47.45.26.78.45v.01l.37.21.04.02,1.9,1.09c.01,0,.01,0,.01.01l3.93,2.27,1.43.83,1.14.66,3.48,2.01h.01l1.76,1.02c.01,0,.02.01.03.02l3.68,2.12h.01l.95.55.72.42.34-.2h.01l.92-.53,3.55-2.05a.0349.0349,0,0,1,.02-.01l1.6-.93,3.69-2.13.92-.53,1.39-.8,1.38-.79c.01-.01.03-.02.04-.03a.055.055,0,0,1,.05-.03l1.46-.84.56-.33,1.27-.73,2.01-1.16.81-.47.45-.26.82-.47.45-.26.17-.1,2.6-1.5,1.19-.69.82-.48.67-.38.33-.19.02-.01v-.01l.09-.05.17-.09.32-.19.1-.06.88-.5,1.31-.76.59-.34.17-.1.16-.09.02-.02.43-.24.62-.36.87-.5.13-.08.17-.09.52-.31.1-.06.54-.3v-.01l1.29-.74.12-.07.07-.04.29-.17.08-.05.09-.05.15-.08.5-.29.81-.47.48-.28.32-.18.86-.5,1.02-.59.67-.38.58-.34.54-.31,1.49-.86.12-.07.01-.01.09-.05.16-.09.07-.04.06-.04h.02v-.01l.5-.29.3-.17.5-.29.09-.05v-53.13Zm-1.52,27.69v24.49l-.08.05-.14.08-.14.08-.08.05-.42.24-2.36,1.36-.64.37-.94.54-.47.27-.36.21-.95.55-1.21.69-.55.33-.15.08-.15.09-.04.02-.48.27-.86.51-.17.09-.16.09-.35.21-.28.16-.41.23-.18.11-.33.19-.14.08-.08.05-.34.19-.43.25-.25.14-.28.17-.99.57-.38.21-1.37.8-.13.07h-.01l-.74.44-.72.41-.23.13-.2.12-.02.01-.46.27-.21.12-.12.07-.29.17h-.01l-.23.13-1.92,1.11-1.18.68-1.46.85-.64.37-.48.27-.59.34-.33.19-.55.32-1.08.63h-.01l-.79.45-.83.48c-.01.01-.02.02-.03.02l-.25.14-.01.01-4.87,2.81-1.51.86c-.01.01-.03.02-.04.03l-.14.09h-.01l-.09.05a.01.01,0,0,0-.01.01l-.03.02-.47.27c-.01,0-.01,0-.01.01l-.17.09-1.76,1.02-2.78,1.6-1.25.73h-.01l-.8.46-.55.32-1.26-.73h-.01l-.91-.53h-.01l-1.22-.71-2.91-1.68-1.88-1.08c-.01-.01-.01-.01-.02-.01l-.47-.28h-.01l-.15-.09-1.65-.95-.14-.08-4-2.31-2.06-1.19h-.01l-1.25-.72-.53-.31-.35-.2-.51-.3-.55-.32-.43-.24-1.36-.79-1.09-.63-2.2-1.27-.26-.15-.06-.03-.17-.1-.21-.12-.54-.31-.41-.24-.74-.43-.75-.43-.37-.21-1.35-.78-.4-.23-.01-.01-.03-.01h-.01l-.71-.43-.12-.06-.01-.01-.15-.08-.26-.15-.07-.05-.32-.19h-.01l-.61-.35-.1-.05-.03-.02-.63-.37-.61-.35-.34-.19-.37-.22-.74-.43-.39-.22-.11-.06-.17-.1-.13-.08-.57-.32-1.16-.67-.94-.55-.43-.24-.44-.26-.96-.55-.62-.36-2.49-1.44-.4-.23v-51.01l.49-.29,3.2-1.84.61-.36.58-.33.51-.29.12-.07h.01l.1-.07h.02l.01-.01.23-.14.15-.08h.01l.26-.16.78-.45,1.69-.97.49-.29.85-.49.45-.25.32-.19.28-.16.19-.11.02-.02.08-.04.54-.31.48-.28.52-.3.26-.15.4-.23.39-.23.19-.11h.01l.08-.05.03-.01,1.89-1.1.89-.51.91-.52.36-.21.13-.08.82-.47h.01l.42-.25.65-.38,3.71-2.14.19-.11,1.38-.8.22-.12.38-.22.51-.3.31-.17.37-.22,10.68-6.17c.01.01.01,0,.02-.01l2.19-1.26.88-.51.22-.13,1.25-.72h.01l1.43-.83.6.35h.01l1.32.76.97.57.02.01,1.85,1.07a.01.01,0,0,1,.01.01l11.52,6.64h.01l.36.22.03.01.27.16.49.28.23.14.13.07.1.06.22.12,1.43.84h.01l.23.13.32.18h.01l3.44,1.99.28.17.34.19h.01l.04.03h.01l.17.11.23.13.3.17.43.25.94.54.15.09.12.07.85.49,2.03,1.17.37.22.4.23.29.16.08.05.16.09.17.1.16.09h.01l.03.03.82.47.08.04.31.18.28.17.25.14.33.19.45.26.89.51.05.04.03.01.51.29,1.54.9.84.48.41.24.21.12.04.02.15.09.02.01h.01l.21.13.32.18.54.32.33.19.27.15,2.78,1.6.06.04.45.26.74.43.11.06v26.52Zm-88.49-4.49a1.7514,1.7514,0,0,1-.14.23,4.4543,4.4543,0,0,1-.44.63,1.6477,1.6477,0,0,1-.21.25,1.0751,1.0751,0,0,1-.18.19,1.1932,1.1932,0,0,1-.2.19l-.01.01h-.01q-.015.0451-.03.03a1.1183,1.1183,0,0,1-.2.18c-.07.06-.15.11-.22.17-.07.05-.13.1-.18.14v1.3c.05.03.1.07.16.11.11.08.22.16.32.24a3.4321,3.4321,0,0,1,.29.25.01.01,0,0,1,.01.01c.07.06.13.13.19.19a6.1886,6.1886,0,0,1,.98,1.4v-5.76C11.483,60.5241,11.4429,60.6042,11.3929,60.6841Zm.05,19.08a.5918.5918,0,0,0-.02.14v.02a.7457.7457,0,0,0,.03.2.437.437,0,0,0,.07.16v-.74A.585.585,0,0,0,11.4429,79.7641Zm13.98,17.93h-.01l-.71-.43-.12-.06-.01-.01-.15-.08-.26-.15-.07-.05-.32-.19h-.01l-.61-.35-.1-.05-.03-.02-.63-.37-.61-.35-.34-.19-.37-.22-.74-.43-.39-.22-.11-.06a2.61,2.61,0,0,0-.22.25c-.21.25-.4.52-.61.77-.08.18-.16.36-.23.55l.09.06.34.19,1.31.76.32.18.26.15.35.21.35.2.14.08.07.04.09.05.05.03h.01l.07.04,1.36.79.41.24c.16-.13.32-.26.47-.4a1.0053,1.0053,0,0,0,.11-.1,1.9583,1.9583,0,0,0,.15-.14,2.1218,2.1218,0,0,0,.22-.21c.17-.16.34-.33.51-.5Zm-1.77-68.23-.41.24-1.64.95-.33.19-.19.1-.07.04-1.06.62-.39.22-.04.03c.07.08.15.16.23.24a.38.38,0,0,0,.09.09v.01a.0777.0777,0,0,0,.04.04,2.48,2.48,0,0,1,.29.43,1.0675,1.0675,0,0,1,.14.35.4429.4429,0,0,0,.15.12.3756.3756,0,0,0,.15.09c.05.03.11.05.17.08l.85-.49.45-.25.32-.19.28-.16.19-.11.02-.02.08-.04.54-.31.48-.28.52-.3.26-.15.4-.23.39-.23A12.8192,12.8192,0,0,0,23.653,29.4642Zm32.44-16.33c-.08-.12-.14-.25-.21-.37l-.42-.75c-.33.5-.6,1.01-.9,1.49-.09.16-.19.32-.29.47l1.43-.83.6.35Q56.1981,13.3141,56.093,13.1341Zm26.57,87.62a4.9293,4.9293,0,0,0-.99-.58l-.46.27-.21.12a3.586,3.586,0,0,1,.55.19c.01,0,.02.01.03.01l.06.03a4.1064,4.1064,0,0,0,.84.34.211.211,0,0,0,.1-.04,497582161916.1287,497582161916.1287,0,0,0,.1-.1.4081.4081,0,0,0,.05-.09A.6788.6788,0,0,1,82.663,100.7541Zm7.63-3.68a1.0409,1.0409,0,0,1-.25-.4c-.05-.12-.08-.24-.13-.36l-.03-.09v-.02c-.02-.05-.03-.11-.05-.16-.04-.17-.09-.33-.14-.5l-.16.09-.35.21-.28.16-.41.23-.18.11-.33.19-.14.08-.08.05-.34.19-.43.25-.25.14-.28.17-.99.57a1.224,1.224,0,0,0,.28.45,1.2024,1.2024,0,0,1,.31.13h.01a2.0672,2.0672,0,0,1,.4.25c.01.01.03.02.04.03a4.4528,4.4528,0,0,0,.4.36l.02-.02.43-.24.62-.36.87-.5.13-.08.17-.09.52-.31.1-.06.54-.3v-.01C90.3029,97.1742,90.3029,97.1341,90.293,97.0741Zm.68-65.61-1.13-.65-.15-.09h-.01l-.36-.22-.36-.2-.74-.43a3.5154,3.5154,0,0,0-.55.17c-.16.06-.32.13-.48.2-.33.16-.64.34-.95.53l.08.05.16.09.17.1.16.09h.01l.03.03.82.47.08.04.31.18.28.17.25.14.33.19.45.26.89.51.05.04c.05-.1.09-.19.14-.29.05-.09.1-.17.15-.26a4.4263,4.4263,0,0,1,.39-.57,2.5451,2.5451,0,0,1,.29-.38Zm3.38,3.24c-.02.01-.04.01-.06.03-.01-.01-.03,0-.04.01a.137.137,0,0,0-.04.03.2683.2683,0,0,1-.05.06,1.7776,1.7776,0,0,0-.16.22.0993.0993,0,0,0-.04.05c-.01.02-.03.03-.04.05a.1425.1425,0,0,0-.03.04l.15.09.02.01h.01l.21.13a1.2985,1.2985,0,0,0,.04-.19.8776.8776,0,0,0,.02-.16v-.09c-.01-.05-.01-.1-.02-.15A.2762.2762,0,0,1,94.353,34.7041Zm4.98,2.54c-.22.19-.32.5-.75.66l.45.26a2.2,2.2,0,0,0,.17-.25,4.5509,4.5509,0,0,0,.27-.48c.01-.12.02-.23.03-.35C99.4529,37.1341,99.3929,37.1941,99.3329,37.2442Zm.55,19.14v8.78a9.06,9.06,0,0,1,1.44-1.33.8558.8558,0,0,0,.17-.15.4676.4676,0,0,0,.1-.1v-5.37A16.4112,16.4112,0,0,1,99.8829,56.3841Z" transform="translate(0.004 0.0038)"/><path class="cls-15" d="M69.5781,114.4226l1.5654-.8994.0713.1231a3.0348,3.0348,0,0,1,.336.8144,1.89,1.89,0,0,1-.0049.7617,1.9822,1.9822,0,0,1-1,1.3653,2.1314,2.1314,0,0,1-1.6924.21,2.2768,2.2768,0,0,1-.5195-4.1738,2.2306,2.2306,0,0,1,.9335-.2959,2.7481,2.7481,0,0,1,1.0616.17l-.1836.626a1.5923,1.5923,0,0,0-1.4922.0322,1.5584,1.5584,0,0,0-.77.9961,1.5979,1.5979,0,0,0,.1806,1.2549,1.5416,1.5416,0,0,0,1.0528.7813,1.5741,1.5741,0,0,0,1.1416-.15,1.3154,1.3154,0,0,0,.5928-.7188,1.176,1.176,0,0,0-.0176-.9023l-.9463.5439Z" transform="translate(0.004 0.0038)"/><rect class="cls-15" x="73.1728" y="110.0917" width="0.6595" height="4.3716" transform="translate(-46.2309 51.686) rotate(-29.9467)"/><polygon class="cls-15" points="76.272 108.876 78.142 112.128 77.571 112.456 75.7 109.206 74.829 109.707 74.52 109.17 76.83 107.839 77.139 108.377 76.272 108.876"/><path class="cls-15" d="M81.4258,105.4578l.3886.6767a1.8267,1.8267,0,0,0-1.2646.1748,1.5137,1.5137,0,0,0-.7432.9854,1.6333,1.6333,0,0,0,.1856,1.2529,1.594,1.594,0,0,0,.9814.7754,1.5417,1.5417,0,0,0,1.2236-.1582,1.41,1.41,0,0,0,.4551-.3935,1.6719,1.6719,0,0,0,.168-.2725,3.414,3.414,0,0,0,.15-.3555l.3974.6905a2.3783,2.3783,0,0,1-.8711.873,2.1961,2.1961,0,0,1-1.7109.23,2.1723,2.1723,0,0,1-1.3672-1.05,2.2519,2.2519,0,0,1-.2627-1.5664A2.1909,2.1909,0,0,1,80.28,105.75a2.2273,2.2273,0,0,1,1.1456-.292" transform="translate(0.004 0.0038)"/><path class="cls-25" d="M84.1972,105.2879a2.142,2.142,0,0,1-.2041-1.71,2.237,2.237,0,0,1,1.0733-1.3838,2.2874,2.2874,0,0,1,3.1045.8369,2.15,2.15,0,0,1,.2138,1.7227,2.3117,2.3117,0,0,1-2.6972,1.6367,2.1438,2.1438,0,0,1-1.49-1.1025m.5791-.3252a1.6219,1.6219,0,0,0,2.9893-.3545,1.6974,1.6974,0,0,0-1.1641-2.0332,1.5384,1.5384,0,0,0-1.2343.1611,1.5564,1.5564,0,0,0-.7608.9863,1.58,1.58,0,0,0,.17,1.24" transform="translate(0.004 0.0038)"/><rect class="cls-15" x="90.1495" y="100.3125" width="0.6597" height="4.3704" transform="translate(-39.098 58.9016) rotate(-29.9673)"/><polygon class="cls-15" points="94.082 102.955 91.753 98.908 96.181 100.209 94.665 97.575 95.235 97.247 97.55 101.267 93.126 99.973 94.653 102.626 94.082 102.955"/></svg>