<?xml version="1.0" encoding="utf-8"?>
<!-- Generator: Adobe Illustrator 22.0.0, SVG Export Plug-In . SVG Version: 6.00 Build 0)  -->
<svg version="1.1" id="Layer_1" xmlns="http://www.w3.org/2000/svg" xmlns:xlink="http://www.w3.org/1999/xlink" x="0px" y="0px"
	 viewBox="0 0 110.9 128" style="enable-background:new 0 0 110.9 128;" xml:space="preserve">
<style type="text/css">
	.st0{fill:#0FCE7C;}
	.st1{fill:#FFFFFF;}
	.st2{fill:#FFCE08;}
	.st3{fill:#F9006C;}
	.st4{fill:#8E2ABE;}
	.st5{fill:#25E999;}
	.st6{fill:#3E00FF;}
	.st7{fill:#15003E;stroke:#01065B;stroke-width:5.000000e-02;stroke-miterlimit:10;}
	.st8{fill:#F2F2F2;}
	.st9{opacity:0.47;fill:#0C0126;}
	.st10{fill:none;stroke:#0FCE7C;stroke-width:5.000000e-02;stroke-miterlimit:10;}
	.st11{fill:none;stroke:#0FCE7C;stroke-width:0.25;stroke-miterlimit:10;}
	.st12{fill:#FFFFFF;stroke:#01065B;stroke-width:0.5;stroke-linecap:round;stroke-linejoin:round;stroke-miterlimit:10;}
	.st13{fill:#01065B;stroke:#01065B;stroke-width:0.75;stroke-linecap:round;stroke-linejoin:round;stroke-miterlimit:10;}
	.st14{fill:#01065B;}
	.st15{fill:#FFFFFF;stroke:#01065B;stroke-width:0.5;stroke-miterlimit:10;}
	.st16{fill:#01065B;stroke:#01065B;stroke-width:0.25;stroke-miterlimit:10;}
	.st17{fill:none;stroke:#01065B;stroke-width:0.5;stroke-linecap:round;stroke-linejoin:round;stroke-miterlimit:10;}
	.st18{fill:none;stroke:#01065B;stroke-width:5.000000e-02;stroke-linecap:round;stroke-linejoin:round;stroke-miterlimit:10;}
	.st19{fill:#15003E;}
	.st20{fill:none;stroke:#01065B;stroke-width:0.25;stroke-linecap:round;stroke-linejoin:round;stroke-miterlimit:10;}
	.st21{fill:#2034A8;}
	.st22{clip-path:url(#XMLID_5_);fill:#01065B;}
	.st23{opacity:0.13;fill:#0C0126;}
	.st24{fill:#2034A8;stroke:#2E48B7;stroke-width:5.000000e-02;stroke-miterlimit:10;}
	.st25{fill:#FFFFFF;stroke:#2034A8;stroke-width:5.000000e-02;stroke-miterlimit:10;}
	.st26{fill:#FFCE08;stroke:#2034A8;stroke-width:5.000000e-02;stroke-miterlimit:10;}
	.st27{fill:#FFE67B;}
	.st28{fill:#F2F2F2;stroke:#01065B;stroke-width:0.25;stroke-miterlimit:10;}
	.st29{fill:#01065B;stroke:#FFFFFF;stroke-width:5.000000e-02;stroke-miterlimit:10;}
	.st30{fill:#FFFFFF;stroke:#2034A8;stroke-width:5.000000e-02;stroke-linecap:round;stroke-linejoin:round;stroke-miterlimit:10;}
	.st31{fill:#FFCE08;stroke:#01065B;stroke-width:5.000000e-02;stroke-linecap:round;stroke-linejoin:round;stroke-miterlimit:10;}
	.st32{fill:none;stroke:#2034A8;stroke-width:5.000000e-02;stroke-miterlimit:10;}
	.st33{fill:#F2F2F2;stroke:#01065B;stroke-width:5.000000e-02;stroke-miterlimit:10;}
	.st34{fill:#1FB26F;}
	.st35{fill:#1DA064;}
	.st36{fill:none;stroke:#01065B;stroke-width:9.000000e-02;stroke-linecap:round;stroke-linejoin:round;stroke-miterlimit:10;}
	.st37{fill:none;stroke:#01065B;stroke-width:0.25;stroke-miterlimit:10;}
	.st38{clip-path:url(#XMLID_6_);}
	.st39{fill:#BC004D;}
	.st40{fill:#E5E5E5;}
	.st41{fill:#141F82;}
	.st42{fill:#42A86B;}
	.st43{fill:#4DAA73;}
	.st44{fill:#253593;}
	.st45{fill:none;stroke:#0FCE7C;stroke-width:0.15;stroke-linecap:round;stroke-linejoin:round;stroke-miterlimit:10;}
	.st46{fill:#48B978;}
	.st47{fill:#62C08C;}
	.st48{fill:#F2F2F2;stroke:#0FCE7C;stroke-width:0.1;stroke-linecap:round;stroke-linejoin:round;stroke-miterlimit:10;}
	.st49{fill:#F2F2F2;stroke:#0FCE7C;stroke-width:0.1;stroke-miterlimit:10;}
	.st50{fill:none;stroke:#0FCE7C;stroke-width:0.1;stroke-linecap:round;stroke-linejoin:round;stroke-miterlimit:10;}
	.st51{fill:#F2F2F2;stroke:#0FCE7C;stroke-width:5.000000e-02;stroke-linecap:round;stroke-linejoin:round;stroke-miterlimit:10;}
	.st52{enable-background:new    ;}
	.st53{fill:#E6E7E8;}
</style>
<g id="Layer_63_8_">
	<polygon class="st0" points="110.8,32 110.8,96 55.4,128 11.1,102.4 10.9,102.3 0,96 0,32 55.4,0 	"/>
</g>
<g id="Layer_63_7_">
	<polygon class="st1" points="101.5,37.4 101.5,90.5 55.5,117.1 9.5,90.5 9.5,37.4 55.5,10.8 	"/>
	<g>
		<g>
			<g>
				<path class="st2" d="M46.9,19.8C41.3,25.4,35.6,31,30,36.6c-0.7,0.7,0.4,1.7,1,1c5.6-5.6,11.2-11.2,16.9-16.9
					C48.6,20.1,47.6,19.1,46.9,19.8L46.9,19.8z"/>
			</g>
		</g>
		<g>
			<g>
				<path class="st3" d="M20.3,40.5c-5.3,5.3-6.1,6.2-10.8,10.8v-2.1c3.8-3.8,4.9-5,9.8-9.8C19.9,38.8,20.9,39.9,20.3,40.5z"/>
			</g>
		</g>
		<g>
			<g>
				<path class="st3" d="M81,72.3c1.2-1.2,2.4-2.4,3.6-3.6c0.7-0.7-0.4-1.7-1.1-1c-1.2,1.2-2.4,2.4-3.6,3.6
					C79.3,71.9,80.3,73,81,72.3L81,72.3z"/>
			</g>
		</g>
		<g>
			<g>
				<path class="st4" d="M101.4,65.2v2.1c-3,3-11.6,11.6-12.6,12.7c0,0,0,0-0.1,0c-0.7,0.6-1.6-0.4-1.1-1c0,0,0,0,0.1-0.1
					c1.2-1.2,12.4-12.4,13.6-13.6C101.3,65.3,101.4,65.3,101.4,65.2z"/>
			</g>
		</g>
		<g>
			<g>
				<path class="st2" d="M87.4,57.2c1.6-1.6,3.1-3.1,4.7-4.7c0.7-0.7-0.4-1.7-1.1-1c-1.6,1.6-3.1,3.1-4.7,4.7
					C85.7,56.9,86.7,57.9,87.4,57.2L87.4,57.2z"/>
			</g>
		</g>
		<g>
			<g>
				<path class="st5" d="M33.9,51.7C28.3,57.4,22.7,63,17,68.6c-0.7,0.7,0.4,1.7,1,1C23.7,64,29.3,58.4,35,52.8
					C35.6,52.1,34.6,51.1,33.9,51.7L33.9,51.7z"/>
			</g>
		</g>
		<g>
			<g>
				<path class="st6" d="M93,32.8c-2.4,2.4-7.4,7.4-8.7,8.7c-0.7,0.7-1.7-0.4-1.1-1c1.3-1.3,5.9-5.9,8.4-8.4l0.4,0.2L93,32.8z"/>
			</g>
		</g>
		<g>
			<g>
				<path class="st5" d="M14.6,72.4c1,0,1-1.5,0-1.5C13.7,71,13.7,72.4,14.6,72.4L14.6,72.4z"/>
			</g>
		</g>
	</g>
	<g>
		<path class="st7" d="M52.5,39.3c0,0,3-0.6,4.7-0.4c2.6,0.5,6.3,4.4,6.8,5.4c0.8,1.6,3.5,7.5,3.9,8.2c0.3,0.7,0.9,3.1,1.3,3.9
			c0.1,0.1,0.2,0.1,0.3,0.2c0.8,0.5,5,2.8,5.3,3c0.4,0.2,0.5,0.1,0.5,0.4c0,0.1,0,0.3,0,0.4c0,0.3-0.3,0.2-0.6,0.3l-1.1,1
			c-0.1,0-0.1,0.1,0,0.2L76,63L86,73.3l6,22.8c0,0-20.3,11.9-19.6,11.5c0.7-0.4-16.9,9.6-16.9,9.6L19,95.8L27,73
			c-0.4-0.2,0.3-0.6,0.6-1l1.6-1.5c0,0,0.4-0.5,0.4-0.6l1.1-1.7c0.1-0.1,0.4-0.4,0.4-0.5L35,65l2.7-1.5c0.1-0.1,0.2-0.1,0.3-0.1
			l3.5-0.3c0.1,0,0.2,0,0.3-0.1l2.2-1.1c0,0,0.1-0.1,0.1-0.1l0.9-0.7c0.4-0.3,0.4-0.9,0-1.2l-2-1.5c-0.1-0.1-0.2-0.2-0.2-0.3
			l-1.2-2.8c0-0.1,0-0.1-0.1-0.2l-0.8-5.6c0-0.1,0-0.1,0-0.2l1.3-9.2c0-0.3,0.3-0.5,0.6-0.6l2.4-0.5c0.1,0,0.2,0,0.3,0l4.4,0.8
			c0.1,0,0.2,0,0.3,0L52.5,39.3"/>
		<path class="st7" d="M82.5,67"/>
		<path class="st8" d="M67.1,40.8c0.1-2.3-0.2-4.7-0.7-7c-0.2-0.9-0.5-1.8-1-2.5c-0.5-0.6-1.2-1.1-2-1.4c-1.3-0.6-2.6-1.1-3.9-1.9
			c-1.2-0.8-2.3-1.8-2.7-3.2c0,0,1.8-0.2,2.8,0s4.8,1,6.5,3s3.7,4.7,3.8,6.5c0.1,1.8,0.3,5.4,0.1,6.7s-0.5,2.4-0.5,2.4l6.1,16.2
			l-1.5-1.2l-1.3-1c-1.9-5.4-3.8-10.7-5.8-16.1L67.1,40.8z"/>
		<path class="st8" d="M50,39.8c0-0.2,1.1-5.4,2.7-9.6c1.3-3.3,3-5.8,3-5.8l-2.3,0.4c0,0-2,2.3-2.9,5c-0.9,2.7-2.6,7.9-2.6,7.9
			l-0.2,1.8L50,39.8z"/>
		<path class="st8" d="M52,25.2c0,0-4,1-5.5,3.9C44.9,31.9,48.8,26,52,25.2z"/>
		<g>
			<path class="st9" d="M48.6,61.1c-0.4-0.4-0.6,0.1-0.5,0.2c0.4,0.6,0.6,1.1,0.7,1.8l0.1,1c-0.1,1.7,1,3.3,2.5,3.9l4.4,0.7l7.9-1.5
				c0,0,6.4-3.8,6.5-3.9c0.1-0.2,0.2-4.3,0.2-4.3s-5.7-5.4-5.7-5.4c-0.7-0.5-10.4,3.6-10.4,3.6l-2.7,2.4L48.6,61.1z"/>
			<path class="st8" d="M68.3,88.6c0-1,0-2.1-0.4-3.3c-0.3-0.8-0.3-0.9-1.1-0.6c-2.4,0.6-4.9,1.3-7.3,1.8c-1.1,0.2-1.5,0.9-2,1.7
				c-0.2,0.4-0.1,0.4,0.3,0.4c0.9,0,1,0.2,1,1.1c0,1.9,0,3.8,0.2,5.7c0.2,2.2,0.1,4.3,0,6.5c0,0.8,0,0.8,0.8,0.8
				c1.3,0,2.7-0.3,4-0.4c0.7-0.1,1.1-0.4,1.3-1c0.2-0.6,0.4-1.1,0.7-1.7C67.4,96.2,68.3,92.6,68.3,88.6z M57.2,68.4
				c-0.8-0.1-1.5,0.2-1.8,0.9c0,0,0,0,0,0c-0.7,1.4-1,2.7-1.4,4.2c-1.1,4.2-1.6,8.5-1.9,12.9c0,0.7,0,0.7,0.9,0.6
				c0.7-0.1,1.4-0.2,2.1-0.3c1.9-0.4,1.8,0.1,2.1-2.3c0.7-5.5,2.2-10.7,5.9-15.1c0.3-0.3,0.2-0.5-0.2-0.7L57.2,68.4z M57.7,85.7
				c-0.1,0.4,0.2,0.5,0.5,0.4c1.9-0.5,3.7-1,5.6-1.5c0.4-0.1,0.5-0.3,0.6-0.7c0.4-3.2,1.1-6.4,2.1-9.5c0.3-0.9,0.6-1.7,1.1-2.4
				c0.3-0.3,0.1-0.5-0.2-0.6c-1-0.6-2.1-1.2-3.1-1.8c-0.4-0.2-0.6-0.1-0.9,0.2c-0.6,0.7-1.1,1.4-1.6,2.2
				C59.2,76.2,58.3,80.9,57.7,85.7z M41.9,84.4c0,0.4-0.1,0.9,0.5,1.1c1.1,0.4,2.1,0.8,3.2,1.1c0.4,0.1,0.6-0.1,0.6-0.5
				c0.3-1.8,0.7-3.5,1-5.3c0.8-4.1,1.3-8.3,3.1-12.1c0.1-0.1,0.1-0.3-0.1-0.4c-0.5-0.3-1.1-0.6-1.6-0.9c-0.1,0-0.2,0-0.3,0.1
				c-0.6,0.6-1.5,0.7-2.3,0.9c-0.9,0.1-1.3,0.6-1.6,1.5C43,74.5,42.7,79.5,41.9,84.4z M49.7,87.2c0.3,0,0.6,0,0.9,0
				c0.6,0,0.8-0.2,0.8-0.8c0.1-4,0.7-7.9,1.6-11.8c0.4-1.8,0.8-3.6,1.7-5.3c0.1-0.2,0.4-0.4,0.2-0.6c-0.2-0.2-0.5-0.1-0.7-0.1
				c-0.7,0-1.3-0.2-2-0.2c-0.7-0.4-1-0.3-1.3,0.5c-1.1,2.8-1.9,5.8-2.4,8.8c-0.5,2.8-1.1,5.6-1.6,8.3c-0.2,0.9-0.2,0.9,0.7,1
				C48.3,87.1,49,87.2,49.7,87.2z M35.4,93.4c0,0.5,0,0.9,0.1,1.3c0.3,1.2,1,2.3,1.3,3.5c0.4,1.7,1.5,2.5,3.1,2.7c0.1,0,0.1,0,0.2,0
				c0.4,0.1,0.5,0,0.4-0.4c-0.1-1.3,0-2.5-0.1-3.8c0-2.4,0.2-4.9,0.1-7.3c0-1.2-0.2-1.6,1.5-1.5c0.2,0,0.4,0,0.6,0
				c0.1,0,0.2-0.1,0.3-0.2c0-0.3-0.6-1.3-0.9-1.4c-1.4-0.6-2.7-1.1-4.1-1.7c-0.3-0.1-0.5-0.1-0.6,0.3c-0.4,2.1-1,4.2-1.6,6.3
				C35.6,91.9,35.4,92.6,35.4,93.4z M44.1,69c-1.5,0.7-2.9,1.3-4.2,2c-0.2,0.1-0.2,0.2-0.3,0.4c-1.1,3.8-2.2,7.5-2.7,11.4
				c0,0.4,0,0.6,0.4,0.7c1.1,0.4,2.2,0.9,3.2,1.3c0.6,0.3,0.7,0.2,0.8-0.5c0.2-2.5,0.6-4.9,1-7.3C42.7,74.3,43.2,71.7,44.1,69z
				 M65,83.8c-0.1,0.4,0.2,0.4,0.5,0.3c0.8-0.2,1.6-0.4,2.4-0.5c0.5-0.1,0.7-0.3,0.8-0.8c0.3-1.7,0.5-3.3,0.9-5
				c0.3-1.1,0.8-2.1,1.2-3.1c0.3-0.6,0.2-1.1-0.4-1.5c-0.4-0.3-0.8-0.6-1.3-0.9c-0.9-0.6-1-0.5-1.5,0.4c-0.4,0.9-0.7,1.9-1,2.9
				C65.9,78.4,65.3,81.1,65,83.8z M69.6,83.3c0.7-0.1,1.4-0.3,2.1-0.4c1.6-0.2,3.2-0.4,4.8-0.6c0.4,0,0.5-0.2,0.3-0.5
				c-1.1-2.8-2.7-5.2-4.9-7.2c-0.2-0.2-0.3-0.3-0.5,0.1c-1.3,2.6-1.8,5.4-2.2,8.2C69.2,83.1,69.3,83.3,69.6,83.3z M38.8,71.6
				c-0.1,0-0.1-0.1-0.2-0.1c-0.6,0.4-1.4,0.6-1.8,1.4c-0.4,0.9-0.8,1.7-1,2.7c-0.5,2-0.8,3.9-1.1,5.9c-0.1,0.9-0.1,0.9,0.8,1.3
				c0.3,0.1,0.5,0.1,0.6-0.3c0.4-2.6,1-5.1,1.7-7.6C38.2,73.8,38.5,72.7,38.8,71.6z M41.3,97.8C41.3,97.8,41.3,97.8,41.3,97.8
				c0,2.4,0,4.8,0,7.2c0,0.9,0,0.9,0.9,1c1.7,0.1,3.5,0.3,5.2,0.4c2.9,0.2,5.8,0.5,8.7,0.7c0.5,0,0.6-0.1,0.6-0.5
				c0-0.9-0.1-1.8-0.1-2.6c-0.1-4.1,0.1-8.2,0.2-12.4c0-0.3,0-0.5-0.3-0.5c-2-0.1-3.9-0.5-5.8-0.6c-2.8,0-5.6-0.2-8.4-0.5
				c-0.9-0.1-0.9-0.1-0.9,0.8C41.3,93.1,41.3,95.5,41.3,97.8z M58,90.1c-0.3,0.3-0.8,0.5-0.7,1c0.3,1.6,0,3.3,0,4.9
				c-0.1,3.6-0.1,7.2,0,10.8c0,0.3,0.1,0.5,0.4,0.5c0.3,0,0.5-0.1,0.6-0.4c0-0.2,0-0.4,0-0.6c-0.2-2.3-0.1-4.6,0-6.9
				c0.1-3-0.3-6-0.3-8.9C58.1,90.3,58.1,90.3,58,90.1z M36.1,73.6c-0.4,0.3-0.6,0.5-0.8,0.8c-1.4,1.7-2.5,3.7-3.2,5.8
				c-0.5,1.5-0.4,1.2,0.8,1.7c0.1,0.1,0.3,0.1,0.4,0.1c0.6,0.3,0.8,0,0.8-0.5c0.2-1.1,0.4-2.2,0.6-3.4C35,76.6,35.4,75.1,36.1,73.6z
				 M57.6,89.4c-1.5,0-2.9,0-4.2,0c-2.2,0-4.4-0.2-6.6-0.5c-1.7-0.2-3.3-0.2-5-0.3c-0.2,0-0.5,0-0.5,0.3c0,0.3,0.2,0.4,0.5,0.4
				c2.5,0,4.9,0.5,7.3,0.4c2.3,0,4.7,0.2,7,0.6C56.7,90.4,57.1,90.2,57.6,89.4z M60.5,105.3c0.4,0,0.9-0.1,1.4-0.1
				c1.2-0.1,2.1-0.5,2.3-1.8c0,0,0-0.1,0-0.1c0.2-0.4,0-0.5-0.4-0.4c-1.5,0.2-3,0.4-4.5,0.3c-0.3,0-0.5,0.1-0.5,0.5
				C58.8,105.1,59,105.3,60.5,105.3z M37.8,101.7c0.1,0.3-0.2,0.8,0.4,1.1c0.7,0.2,1.3,0.4,2,0.5c0.2,0,0.4,0,0.4-0.3
				c0.2-0.9,0-1.2-0.9-1.5c-0.4-0.1-0.7-0.2-1.1-0.4C37.8,100.7,37.8,100.7,37.8,101.7z M45.9,87.5c0.1,0.5,0.3,0.6,0.7,0.7
				c2.1,0.2,4.2,0.4,6.2,0.5c0.3,0,0.6-0.1,0.7-0.3c0.1-0.1,0.3-0.2,0.2-0.4c-0.1-0.2-0.3-0.1-0.4-0.1c-1.4,0.2-2.9,0.2-4.3,0.1
				C48,87.9,47,87.7,45.9,87.5z M57.7,87.1c-1.1,0.2-2,0.4-2.9,0.6c-0.3,0.1-0.5,0.4-0.6,0.6c-0.2,0.3-0.1,0.4,0.2,0.4
				c0.6,0,1.3,0,1.9,0c0.2,0,0.4-0.1,0.5-0.2C57.1,88.1,57.4,87.6,57.7,87.1z M44.9,88c0.1,0,0.4,0.2,0.5-0.1
				c0.1-0.2-0.1-0.5-0.4-0.6c0,0-0.1,0-0.1-0.1c-0.5-0.2-1-0.3-1.5-0.5c-0.1,0-0.2,0-0.3,0c-0.1,0.1,0,0.2,0,0.3
				C43.4,87.9,44.1,88.1,44.9,88z"/>
			<path class="st10" d="M33.8,103.5"/>
			<path class="st2" d="M58.4,76.1c0.1,0.3,0.1,0.4,0,0.6c-0.8,1.8-0.9,3.7-1.2,5.6c-0.2,0.9-0.3,1.8-0.6,2.7c-0.3,1-0.9,1.3-2,1.3
				c-0.9,0-1.4-0.5-1.7-1.5c-0.2-0.8-0.1-1.6,0-2.4c0.2-1.6,0.5-3.2,0.7-4.8c0-0.2,0-0.6,0.3-0.6c0.3,0,0.2,0.4,0.2,0.7
				c0,1.4-0.3,2.8-0.5,4.2c-0.1,0.9-0.3,1.7-0.1,2.6c0.1,0.8,0.4,1.1,1.1,1.1c1,0,1.3-0.2,1.5-0.9c0.6-2.2,0.8-4.6,1.5-6.8
				C57.8,77.3,57.9,76.6,58.4,76.1z"/>
			<path class="st2" d="M47.6,75.9c0.1,0.2,0.1,0.2,0.1,0.3c-0.8,2.5-0.7,5.1-1.5,7.6c-0.1,0.3-0.2,0.6-0.3,0.9
				c-0.5,1-1.6,1.3-2.5,0.7c-0.3-0.2-0.3-0.5-0.3-0.7c0.1-2.4,0.3-4.7,0.6-7.1c0.1-0.6,0-1.1,0-1.7c0.5,0.2,0.5,0.6,0.5,1
				c0.1,0.9-0.1,1.8-0.2,2.6c-0.1,1.5-0.3,3.1-0.2,4.6c0,0.3-0.2,0.8,0.3,0.9c0.5,0.1,1,0.1,1.3-0.4c0.3-0.4,0.4-0.9,0.6-1.4
				c0.4-1.6,0.5-3.3,0.8-5C46.8,77.4,47,76.6,47.6,75.9z"/>
			<path class="st11" d="M41.3,97.9c0-2.2,0-4.5,0-6.7c0-0.6,0.1-0.9,0.8-0.8c4.4,0.2,8.8,0.5,13.2,0.8c0.6,0,0.8,0.3,0.8,0.8
				c0,0.7,0,1.5,0,2.2c0,3.4,0.1,6.9,0.1,10.3c0,0.6,0,1.3-0.1,1.9c0,0.4-0.2,0.5-0.5,0.5c-2.3-0.2-4.5-0.4-6.8-0.7
				c-2.1-0.2-4.2-0.4-6.4-0.6c-1.1-0.1-1.1-0.2-1.1-1.3C41.4,102.3,41.3,100.1,41.3,97.9C41.3,97.9,41.3,97.9,41.3,97.9z
				 M54.5,106.3c1.1,0.1,1.1,0.1,1.1-1c0.1-3.5-0.1-7-0.1-10.4c0-0.9,0.1-1.8,0.1-2.6c0-0.4-0.1-0.6-0.6-0.6
				c-1.4-0.1-2.8-0.2-4.2-0.2c-2.8-0.2-5.7-0.3-8.5-0.5c-0.4,0-0.6,0-0.6,0.5c0,4.2,0,8.4,0,12.6c0,1.1,0,1.1,1.2,1.2
				c2.9,0.3,5.8,0.5,8.7,0.8L54.5,106.3z"/>
		</g>
		<g>
			<path class="st9" d="M62.2,70.8c0,0,7,2.3,7.9,4.7c0.9,2.5-0.3,5.6,0.7,8.1c1,2.4-1.1,6.1-0.5,7.5c2.3,4.6,0.6,17.3,0.6,17.3
				l4.7-2.7c0,0,4.2-13.2,4.1-13.6c-0.1-0.4,0.4-6.8,0-7.5c-0.4-0.7-4.1-10.4-4.1-10.4l-4.4-5.5L62.2,70.8z"/>
			<path class="st9" d="M49.6,74.6c-0.8,0.6-1.8,0.8-2.8,0.7c-1-0.1-2-0.3-3-0.3c-1,0-2.1,0.3-2.7,1.1c-0.5,0.7-0.6,1.7-0.9,2.6
				c-0.5,1.2-1.6,2.2-2.5,3.1c-1,0.9-2,2-2.2,3.3c-0.2,1.2,0.3,2.3,0.4,3.5c0.1,1.5-0.5,3.1-1.3,4.4c-0.4,0.6-3.2,10.1-3.2,10.1
				l-5.7-3.3c0,0,2.7-5.7,2.5-7.6c-0.2-1.9,0.3-3.7,0.9-5.5c1-2.9,2.1-5.8,3.7-8.4c1.7-2.6,3.9-4.9,6.6-6.2c2.8-1.4,6.1-1.7,8.9-0.6
				c0.7,0.3,1.4,0.7,1.7,1.3C50.4,73.3,50.1,74.1,49.6,74.6z"/>
			<path class="st12" d="M69.9,58.9c0,0,0.3,2.4-1.9,4.8c-2.2,2.5-4.7,3.5-4.8,3.8s-0.5,2.9-0.5,2.9s4.6,1.2,6.9,3.2
				c2.9,2.4,2.5,4.6,2.5,6"/>
			<g>
				<path class="st13" d="M72.1,111.8 M72.8,106.7c0.1-0.6,0.1-1.5,0.1-2.2c0.1-1.3,0.2-2.6,0.2-3.9c0-1.3,0.1-2.6,0.1-3.9
					c0-2.6,0-5.2-0.1-7.8c0-1.3-0.1-2.6-0.2-3.9l0-0.5l0-0.2c0-0.1,0-0.2,0-0.2c0,0,0-0.1,0-0.1l0-0.1l0-0.1l0-0.1l-0.1-0.2
					l-0.1-0.2c-0.2-0.6-0.4-1.2-0.6-1.9c-0.3-1.3-0.6-2.6-0.6-3.9l0-0.2c0-0.1,0-0.2,0-0.2l0-0.5l0.1-0.5l0-0.2c0-0.1,0-0.2,0-0.2
					c0-0.3-0.1-0.6-0.3-0.9c-0.2-0.3-0.4-0.5-0.6-0.7c-0.5-0.4-1-0.8-1.6-1.1c-0.6-0.3-1.1-0.6-1.7-0.9c-0.6-0.3-1.2-0.5-1.8-0.7
					c-0.6-0.2-1.2-0.4-1.8-0.6l0.4-2.4l0,0l0,0c0-0.1,0.1-0.2,0.2-0.3c0,0,0.1-0.1,0.1-0.1c0,0,0.1-0.1,0.1-0.1
					c0.2-0.2,0.3-0.3,0.5-0.5c0.3-0.3,0.7-0.6,1.1-0.9c0.7-0.6,1.4-1.2,2.1-1.9c0.2-0.2,0.3-0.3,0.5-0.5c0,0,0.1-0.1,0.1-0.1
					c0,0,0.1-0.1,0.1-0.1l0.2-0.3c0.2-0.4,0.5-0.8,0.6-1.2c0.2-0.4,0.3-0.9,0.4-1.3c0-0.2,0.1-0.5,0.1-0.7l0-0.2l0-0.2
					c0-0.1,0-0.2,0-0.3l0-0.3l0.2,0.2l3.4,2.3l0,0l0.9,0.4c0.3,0.1,0.6,0.3,0.9,0.4c0.6,0.3,1.2,0.6,1.7,0.9
					c0.6,0.3,1.1,0.7,1.6,1.1l1.6,1.1c0.1,0.1,0.3,0.2,0.4,0.3l0.4,0.3c0.1,0.1,0.3,0.2,0.4,0.3c0.1,0.1,0.3,0.2,0.4,0.3
					c0.5,0.4,1,0.9,1.5,1.3c0.9,0.9,1.7,2,2.4,3.1c0.2,0.3,0.3,0.6,0.5,0.9l0.2,0.4l0.2,0.4c0.1,0.1,0.1,0.3,0.2,0.4l0.2,0.4
					c0.1,0.3,0.3,0.6,0.4,0.9c0.2,0.6,0.5,1.2,0.7,1.8c0.2,0.6,0.4,1.2,0.6,1.9c0.2,0.6,0.3,1.3,0.5,1.9c0.1,0.6,0.3,1.3,0.4,1.9
					c0.1,0.3,0.1,0.6,0.2,1l0.2,1l0.3,1.9l0.6,3.9l0.3,1.9c0.1,0.6,0.2,1.3,0.3,1.9l0.3,1.7l-0.5,0.3c-0.1-0.3-0.1-0.6-0.2-1
					l-0.1-0.5l0-0.2l0-0.2c-0.1-0.6-0.2-1.3-0.3-1.9L90.3,90l-0.6-3.9l-0.3-1.9l-0.2-1c0-0.2-0.1-0.3-0.1-0.5c0-0.2-0.1-0.3-0.1-0.5
					c-0.1-0.6-0.2-1.3-0.4-1.9c-0.1-0.6-0.3-1.3-0.5-1.9c-0.4-1.2-0.8-2.5-1.2-3.7c-0.1-0.3-0.2-0.6-0.4-0.9l-0.2-0.4
					c-0.1-0.1-0.1-0.3-0.2-0.4L86,72.6l-0.2-0.4c-0.1-0.3-0.3-0.6-0.5-0.8c-0.6-1.1-1.4-2.1-2.3-3.1c-0.4-0.5-0.9-0.9-1.4-1.3
					c-0.1-0.1-0.2-0.2-0.4-0.3c-0.1-0.1-0.3-0.2-0.4-0.3l-0.4-0.3c-0.1-0.1-0.3-0.2-0.4-0.3l-1.6-1.2c-0.5-0.4-1.1-0.7-1.6-1.1
					c-0.6-0.3-1.1-0.7-1.7-1c-0.3-0.1-0.6-0.3-0.9-0.4l-0.9-0.4l0,0l0,0L70,59.4l0.2-0.1c0,0.1,0,0.2,0,0.4l0,0.2l0,0.2
					c0,0.2,0,0.5-0.1,0.7c-0.1,0.5-0.2,0.9-0.4,1.4c-0.2,0.4-0.4,0.8-0.7,1.2l-0.2,0.3c0,0-0.1,0.1-0.1,0.1c0,0-0.1,0.1-0.1,0.1
					c-0.1,0.2-0.3,0.4-0.5,0.5c-0.7,0.7-1.4,1.2-2.1,1.8c-0.4,0.3-0.7,0.6-1.1,0.9c-0.2,0.2-0.3,0.3-0.5,0.5c0,0-0.1,0.1-0.1,0.1
					c0,0-0.1,0.1-0.1,0.1c-0.1,0.1-0.1,0.2-0.2,0.3l0,0l-0.5,2.4c0.6,0.2,1.2,0.4,1.9,0.6c0.6,0.2,1.2,0.5,1.8,0.7
					c0.6,0.3,1.2,0.5,1.8,0.8c0.6,0.3,1.1,0.7,1.6,1.1c0.2,0.2,0.5,0.5,0.7,0.7c0.2,0.3,0.3,0.6,0.3,1c0,0.1,0,0.2,0,0.3l0,0.2
					l0,0.5l0,0.5c0,0.1,0,0.2,0,0.2l0,0.2c0,1.3,0.3,2.6,0.6,3.8c0.2,0.6,0.4,1.2,0.6,1.9l0.1,0.2l0.1,0.2l0,0.1l0,0.1l0,0.1
					c0,0,0,0.1,0,0.1c0,0.1,0,0.2,0,0.3l0,0.2l0,0.5c0.1,1.3,0.2,2.6,0.2,3.9c0.1,2.6,0.2,5.2,0.2,7.8c0,1.3,0,2.6,0,3.9
					c0,1.3-0.1,2.6-0.2,3.9c0,0.6-0.1,1.3-0.1,1.9L72.8,106.7z"/>
				<path class="st1" d="M72.9,107.2c0.8-6.9,0.4-18.3,0.1-23c-0.1-1.3-1.9-4.6-1.4-8.6c0.4-2.7-8-5.2-8-5.2l0.4-2.4
					c0.3-0.8,3.6-2.9,4.7-4.5c1.7-2.4,1.3-4.3,1.3-4.3l3.4,2.4l1,0.5c1.5,0.7,2.9,1.5,4.2,2.5l1.7,1.2l0.1,0.1
					c2.5,1.7,4.4,4,5.7,6.7l0,0c1.6,3.3,2.7,6.9,3.3,10.6l1.4,8.9c0.1,0.7,0.2,1.4,0.4,2.1c0.1,0.5,0.2,1.2,0.4,2.1l-19,11.2"/>
			</g>
			<g>
				<path class="st1" d="M72.1,61.6c0,0-1.9,9.7-9.4,8.8"/>
				<path class="st14" d="M72.2,61.6c-0.1,0.6-0.3,1.2-0.4,1.7c-0.2,0.6-0.4,1.1-0.6,1.7c-0.2,0.5-0.5,1.1-0.8,1.6
					c-0.3,0.5-0.7,1-1.1,1.5c-0.2,0.2-0.4,0.5-0.6,0.7c-0.2,0.2-0.4,0.4-0.7,0.6c-0.2,0.2-0.5,0.4-0.8,0.5c-0.1,0.1-0.3,0.1-0.4,0.2
					c-0.1,0.1-0.3,0.1-0.4,0.2c-0.6,0.2-1.2,0.3-1.8,0.4l-0.1,0l-0.1,0c-0.1,0-0.2,0-0.2,0c-0.2,0-0.3,0-0.5,0
					c-0.3,0-0.6-0.1-0.9-0.2l0-0.1c0.3,0,0.6,0,0.9-0.1c0.3,0,0.6-0.1,0.9-0.1c0.6-0.1,1.1-0.3,1.6-0.5c0.3-0.1,0.5-0.2,0.8-0.4
					c0.2-0.1,0.5-0.3,0.7-0.4c0.2-0.2,0.5-0.3,0.7-0.5c0.2-0.2,0.4-0.4,0.6-0.6c0.4-0.4,0.7-0.9,1.1-1.4c0.3-0.5,0.6-1,0.9-1.5
					C71.4,63.8,71.8,62.7,72.2,61.6L72.2,61.6z"/>
			</g>
		</g>
		<path class="st15" d="M47.7,61c0,0-1,1.7,0,4.9c1,3.2,2.8,5.2,2.8,5.4c0,0.3-0.8,2.9-0.8,2.9s-4.4,0-6.1,0c-0.9,0-3.2,0.4-3.7,1.6
			c-2.5,5.7-4.9,6.2-5.1,6.4"/>
		<g>
			<path class="st1" d="M34.5,82.4c1-0.8,3.7-3.4,4.9-7.2c0.8-2.6,9.4-1.3,9.4-1.3l0.6-2.4c0.1-0.9-2-4.1-2.4-6.1
				c-0.5-2.8,0.6-4.4,0.6-4.4L46,60.8c-0.9,0.2-2.8,1.1-3.6,1.4l-1.1,0.4c-0.6,0.3-1.3,0.5-2,0.6h0c-1.7,0.4-3.4,1.1-4.8,2.1h0
				c-2.2,1.5-4.2,3.3-5.8,5.3l-0.8,0.9c-0.2,0.2-0.3,0.4-0.5,0.6h0c-1.3,1.5-2.1,3.5-2.7,5.4l-4.9,14.7l-0.6,4.1l8.9,5.1h0.4
				l0.1-0.9l0.2-3.3l1.2-4.6l0.3-1.9l0.9-2.3l0.2-1.3l1.4-2.8L34.5,82.4z"/>
			<path class="st16" d="M22.9,108.3 M28.1,101.4l0.4-2.3c0.4-2.4,0.8-4.9,1.4-7.2c0.3-1.2,0.7-2.4,1.1-3.5c0.4-1.2,0.9-2.3,1.5-3.4
				c0.3-0.5,0.6-1.1,1-1.6c0.2-0.2,0.4-0.5,0.6-0.7c0.1-0.1,0.2-0.2,0.3-0.3c0.1-0.1,0.2-0.2,0.3-0.3c0.9-0.8,1.7-1.7,2.4-2.7
				c0.7-1,1.3-2.1,1.8-3.2c0.1-0.1,0.1-0.3,0.2-0.4l0.1-0.2l0.1-0.2c0-0.1,0-0.1,0.1-0.2c0-0.1,0.1-0.1,0.1-0.2
				c0.1-0.1,0.2-0.3,0.3-0.4c0.2-0.2,0.5-0.4,0.8-0.5c0.3-0.1,0.6-0.2,0.9-0.3c0.6-0.1,1.2-0.2,1.8-0.2c0.6,0,1.2,0,1.8,0
				c0.6,0,1.2,0.1,1.8,0.1c0.3,0,0.6,0.1,0.9,0.1l0.5,0.1l0.2,0l0.1,0l0.1,0l0,0c0,0,0,0,0,0c0.2-0.8,0.4-1.6,0.6-2.4l0,0
				c0-0.1,0-0.2,0-0.3c0-0.1-0.1-0.2-0.1-0.3c-0.1-0.2-0.2-0.4-0.3-0.6c-0.2-0.4-0.4-0.8-0.6-1.2c-0.4-0.8-0.8-1.7-1.2-2.5
				c-0.1-0.2-0.2-0.4-0.2-0.7c0-0.1-0.1-0.2-0.1-0.3c0-0.1,0-0.2-0.1-0.3c0-0.2-0.1-0.5-0.1-0.7c0-0.2,0-0.5,0-0.7
				c0-0.5,0.1-0.9,0.2-1.4c0.1-0.2,0.1-0.5,0.2-0.7c0-0.1,0.1-0.2,0.1-0.3c0-0.1,0.1-0.1,0.1-0.2c0-0.1,0.1-0.1,0.1-0.2l0.1,0.3
				L45.9,61l0.1,0c-0.3,0.1-0.6,0.2-0.8,0.3c-0.3,0.1-0.6,0.2-0.8,0.3c-0.6,0.2-1.1,0.5-1.7,0.7c-0.1,0-0.1,0.1-0.2,0.1l-0.2,0.1
				l-0.4,0.2l-0.4,0.2c-0.1,0.1-0.3,0.1-0.4,0.2c-0.3,0.1-0.6,0.2-0.9,0.3c-0.2,0-0.3,0.1-0.5,0.1l-0.4,0.1
				c-1.2,0.3-2.3,0.7-3.4,1.3c-0.3,0.1-0.5,0.3-0.8,0.5c-0.1,0.1-0.3,0.2-0.4,0.2l-0.4,0.3c-0.5,0.3-1,0.7-1.5,1.1
				c-0.9,0.8-1.8,1.6-2.7,2.5c-0.4,0.4-0.8,0.9-1.2,1.4l-0.6,0.7c-0.2,0.2-0.4,0.5-0.6,0.7l-0.3,0.3c-0.1,0.1-0.2,0.2-0.3,0.3
				c-0.2,0.2-0.4,0.5-0.5,0.7c-0.2,0.2-0.3,0.5-0.5,0.8c-0.2,0.3-0.3,0.5-0.4,0.8c-0.1,0.3-0.3,0.5-0.4,0.8
				c-0.1,0.3-0.2,0.6-0.3,0.8L24.9,77l-0.1,0.2c0,0.1-0.1,0.3-0.1,0.4l-0.3,0.9l-2.1,7.1c-0.7,2.4-1.4,4.7-2.1,7.1l-1,3.6L18.7,96
				c0.3-1.2,0.7-2.4,1-3.5c1.3-4.7,2.7-9.4,4.1-14.2l0.3-0.9c0-0.1,0.1-0.3,0.1-0.4l0.1-0.2l0.1-0.2c0.2-0.6,0.5-1.2,0.7-1.7
				c0.1-0.3,0.3-0.6,0.5-0.8c0.2-0.3,0.3-0.5,0.5-0.8c0.2-0.3,0.4-0.5,0.6-0.8c0.1-0.1,0.2-0.2,0.3-0.4l0.3-0.3
				c0.2-0.2,0.4-0.5,0.6-0.7l0.6-0.7c0.4-0.5,0.8-0.9,1.2-1.4c0.9-0.9,1.8-1.7,2.7-2.5c0.5-0.4,1-0.8,1.5-1.1l0.4-0.3
				c0.1-0.1,0.3-0.2,0.4-0.3c0.3-0.2,0.5-0.3,0.8-0.5c1.1-0.6,2.3-1,3.5-1.3l0.4-0.1c0.1,0,0.3-0.1,0.4-0.1c0.3-0.1,0.6-0.2,0.9-0.3
				c0.1,0,0.3-0.1,0.4-0.2l0.4-0.2L42,62l0.2-0.1l0.2-0.1c0.6-0.2,1.1-0.5,1.7-0.7c0.3-0.1,0.6-0.2,0.9-0.3c0.3-0.1,0.6-0.2,0.9-0.3
				l0,0l0,0l1.7,0.2l0.3,0l-0.2,0.3c0,0-0.1,0.1-0.1,0.1c0,0-0.1,0.1-0.1,0.1c-0.1,0.1-0.1,0.2-0.1,0.3c-0.1,0.2-0.2,0.4-0.2,0.6
				c-0.1,0.4-0.2,0.9-0.2,1.3c0,0.2,0,0.5,0,0.7c0,0.2,0,0.5,0.1,0.7c0,0.1,0,0.2,0,0.3c0,0.1,0,0.2,0.1,0.3
				c0.1,0.2,0.1,0.4,0.2,0.7c0.3,0.9,0.7,1.7,1.1,2.5c0.2,0.4,0.4,0.8,0.6,1.3c0.1,0.2,0.2,0.4,0.3,0.7c0,0.1,0.1,0.2,0.1,0.3
				c0,0.1,0,0.2,0,0.4l0,0l0,0c-0.2,0.8-0.4,1.6-0.7,2.4c0,0,0,0,0,0l0,0l-0.1,0l-0.1,0l-0.2,0l-0.5-0.1c-0.3,0-0.6-0.1-0.9-0.1
				c-0.6-0.1-1.2-0.1-1.8-0.1c-0.6,0-1.2,0-1.8,0c-0.6,0-1.2,0.1-1.8,0.2c-0.3,0.1-0.6,0.2-0.9,0.3c-0.3,0.1-0.5,0.3-0.8,0.5
				c-0.1,0.1-0.2,0.2-0.3,0.3c0,0.1-0.1,0.1-0.1,0.2c0,0.1,0,0.1-0.1,0.2l-0.1,0.2l-0.1,0.2c0,0.1-0.1,0.3-0.2,0.4
				c-0.4,1.2-1,2.2-1.8,3.2c-0.7,1-1.5,1.9-2.4,2.8c-0.1,0.1-0.2,0.2-0.3,0.3c-0.1,0.1-0.2,0.2-0.3,0.3c-0.2,0.2-0.4,0.4-0.6,0.7
				c-0.4,0.5-0.7,1-1,1.5c-0.6,1.1-1,2.2-1.4,3.4c-0.4,1.2-0.7,2.3-1,3.5c-0.3,1.2-0.5,2.4-0.8,3.6c-0.2,1.2-0.4,2.4-0.6,3.6
				c-0.1,0.7-0.2,1.5-0.3,2.2H28.1z"/>
		</g>
		<g>
			<path class="st1" d="M44.8,62.2c0,0-3.2,9.3,4,11.6"/>
			<path class="st14" d="M44.9,62.2c-0.3,1.1-0.5,2.2-0.6,3.4c0,0.6,0,1.1,0,1.7c0,0.6,0.1,1.1,0.3,1.7c0.1,0.3,0.2,0.5,0.3,0.8
				c0.1,0.3,0.2,0.5,0.3,0.8c0.1,0.2,0.3,0.5,0.4,0.7c0.1,0.1,0.2,0.2,0.2,0.3l0.1,0.2l0.1,0.2c0.4,0.4,0.8,0.8,1.2,1.1
				c0.5,0.3,1,0.6,1.5,0.8l0,0.1c-0.3-0.1-0.6-0.1-0.8-0.2c-0.1,0-0.3-0.1-0.4-0.2c-0.1,0-0.1-0.1-0.2-0.1c-0.1,0-0.1-0.1-0.2-0.1
				L47,73.2c-0.1,0-0.1-0.1-0.2-0.1c-0.1,0-0.1-0.1-0.2-0.1c-0.1,0-0.1-0.1-0.2-0.1c-0.2-0.2-0.5-0.4-0.7-0.6
				c-0.4-0.4-0.8-0.9-1-1.5c-0.2-0.5-0.4-1.1-0.5-1.7c-0.2-1.2-0.3-2.3-0.1-3.5c0.1-0.6,0.2-1.1,0.3-1.7
				C44.5,63.3,44.6,62.7,44.9,62.2L44.9,62.2z"/>
		</g>
		<path class="st17" d="M50.1,39.2c0.1-0.4,0.2-0.9,0.3-1.3c0.4-1.6,0.9-3.2,1.4-4.8c0.5-1.7,1-3.5,1.5-5.2c0.2-0.6,0.4-1.3,0.7-1.8
			c0.5-0.9,1.3-1.2,2.3-1.5c0.5-0.1,0.9,0,1.4,0.1c0.9,0,1.7,0.1,2.6,0.3c1.6,0.3,3.2,0.9,4.6,1.9c1.1,0.8,2,1.7,2.8,2.7
			c1.3,1.8,2,3.7,2.4,5.9c0.1,0.8,0.2,1.7,0.2,2.5c0.1,1.4-0.1,2.8-0.3,4.2c-0.1,0.5-0.2,1-0.3,1.5"/>
		<path class="st18" d="M47.1,61"/>
		<path class="st17" d="M56.6,24.5c-0.2,0-0.4-0.1-0.6-0.1c-1-0.1-2,0.1-2.9,0.6c-0.4,0.2-0.7,0.7-0.9,1.2c-0.8,1.6-1.4,3.3-1.9,5
			c-0.6,1.8-1.1,3.6-1.7,5.4c-0.3,0.9-0.6,1.7-0.9,2.6c0.4,0.1,0.9,0.3,1.4,0.5c0.2,0,0.4,0,0.5,0c0.3-0.1,0.5-0.2,0.8-0.3"/>
		<path class="st17" d="M50.7,39c0-0.2,0.3-1.6,0.3-1.7c0.1-0.2,0.2-0.3,0.3-0.4c0.5-0.3,1-0.5,1.5-0.7c1.1-0.6,2.3-0.7,3.6-0.6
			c1.4,0.1,2.8,0.5,4.2,1c1.3,0.5,2.5,1.3,3.6,2.2c1.2,1,2.4,2,3.6,3.1c0.6,0.6,1.2,1.1,1.7,1.7c0.1,0.1,0.2,0.2,0.3,0.4
			c0.9,2.3,1.8,4.6,2.7,7c0.9,2.4,1.8,4.8,2.7,7.3c0.2,0.5,0.3,1.1,0.5,1.7c-0.2,0.2-0.3,0.4-0.5,0.6c-0.1,0.2-1.2,1.1-1.4,1"/>
		<path class="st17" d="M53,25c-0.5,0.1-0.9,0.1-1.3,0.2c-1.2,0.4-2.2,0.9-3.2,1.7c-1,0.8-1.9,1.9-2.6,3c-1.1,1.8-1.7,3.8-2.1,5.9
			c0,0.2-0.1,0.5-0.1,0.8c0,0.4-0.1,0.7-0.4,1c-0.6,0.6-1.1,1.1-1.7,1.7c-0.1,0.1-0.1,0.2-0.1,0.2"/>
		<path class="st17" d="M47.1,61c-0.1,0-0.2,0-0.3,0c-1.3-0.3-2.7-0.5-4-1c-1-0.4-1.9-0.8-2.7-1.3c-0.8-0.4-1.5-0.9-2.1-1.5
			c-0.5-0.5-1-1-1.4-1.6c0.2-0.8,0.4-1.5,0.6-2.2c0.7-2.5,1.3-5,2-7.4c0.5-1.7,1-3.4,1.5-5.1c0.2-0.6,0.4-1.1,1-1.4
			c0.9-0.5,1.9-0.7,3-0.6l1.1,0.3c1.4,0,2.6,0.5,3.8,1c0.2,0,0.3-0.1,0.5-0.1l0.8-0.8c0.1,0,0.3,0,0.4,0c1-0.3,2-0.6,3-0.9
			c0.8-0.2,1.6-0.3,2.4-0.2c1.1,0.2,2.2,0.6,3.1,1.1c1.3,0.7,2.4,1.6,3.3,2.8c1,1.3,1.9,2.6,2.6,4.1c0.6,1.3,1.2,2.6,1.8,3.9
			c0.7,1.6,1.3,3.2,2,4.8c0.2,0.4,0.3,0.8,0.6,1.1c0.5,0.5,1,0.9,1.5,1.3c0.6,0.4,1.3,0.8,2,1.1c0.7,0.4,1.5,0.8,1.9,1.5"/>
		<path class="st17" d="M57.1,24.7c-0.3,0.1-0.6,0.2-1,0.3c-1.1,0.5-1.9,1.3-2.2,2.4c-0.4,1.1-0.7,2.2-1,3.3
			c-0.3,1.1-0.6,2.1-0.9,3.2c-0.3,0.9-0.5,1.8-0.8,2.7c0,0.1,0,0.2,0,0.3"/>
		<path class="st19" d="M42.2,59.2c1.9,0.8,3.8,1.3,5.7,1.3l-4.4-3.4c0,0-0.3,0.1-0.5,0.1c-0.2,0-0.4-0.1-0.6-0.3
			c-0.2-0.2-0.3-0.6-0.1-0.8c0.1-0.1,0.3-0.2,0.3-0.2l0.7-0.3l0.3-0.1l0.3,0.1l0.2-0.5v-1.1L43.8,53l-0.3-0.5c0,0-1.3-3.7-1.3-3.8
			s0.5-0.2,0.5-0.2l0.5-0.3c0,0,0.4-0.1,0.6-0.6c0.2-0.4,0.6-1.3,0.7-2.3c0,0-1.2-0.6-1.5-1.7c-0.4-1.1-0.1-2.7,0.2-3s1.7-1.5,2-1.4
			c0.3,0.1-1.2-0.5-2,0c-0.8,0.5-1.5,0.7-1.9,1.5c-0.4,0.8-3.8,14.7-3.8,14.7s0.5,0.9,1.6,1.7c0.5,0.4,1.2,0.9,1.7,1.2
			C41.1,58.7,41.7,59,42.2,59.2z"/>
		<path class="st17" d="M48.4,37.3c-1-0.3-2-0.3-3-0.3c-0.4,0-0.8,0.1-1.3,0.2"/>
		<path class="st18" d="M47.6,41.5"/>
		<path class="st20" d="M37.8,55.4c-0.4,0-0.7,0-1.1,0"/>
		<path class="st18" d="M47.9,61.1c-0.3,0-0.5-0.1-0.8-0.1"/>
		<path class="st20" d="M69.9,55.9c-0.2,0.2-0.5,0.5-0.7,0.7"/>
		<g>
			<path class="st21" d="M57.2,54c0,0,0.2,0.1,0.2,0.1c0.1-0.2,0.5-2.1,0.5-2.2c0-0.1,0.4-1.8,1.1-3c0.2-0.3,0-0.4,0-0.4l-1,2.4
				l-0.5,2.2c-0.1,0.2-0.2,0.6-0.4,0.8c0,0,0,0,0,0L57.2,54z"/>
			<path class="st8" d="M58.9,48.4c0,0-1.1,0.6-4.4-0.3c-2.7-0.8-3.7,0.3-3.7,0.3l0.3,0.7c0,0,1.2,0.3,2.6,1.5
				c0.4,0.4,3.3,3.3,3.3,3.3c0.3,0.4,0.5,0.1,0.5-0.1c0,0,0.1-1.5,0.6-2.8c0.4-1,0.9-2.2,0.9-2.2C59,48.5,59.1,48.4,58.9,48.4z"/>
			<polygon class="st21" points="55,48.5 55.1,48.6 53.8,50.5 53.6,50.3 			"/>
			<polygon class="st21" points="55.2,51.6 54.9,51.4 56.5,49 56.6,49 			"/>
			<path class="st19" d="M55,51.5c0.6-0.8,1-1.8,1.5-2.5l0.6,0.3l-1.6,2.7L55,51.5z"/>
			<path class="st19" d="M54,50.7l1.5-2L55,48.5c-0.3,0.6-0.9,1.4-1.3,1.9L54,50.7"/>
			<polygon class="st21" points="53.7,48.2 53.6,48.1 52.7,49.7 53,49.7 53.7,48.5 			"/>
			<path class="st19" d="M52.7,49.7c0.3-0.4,0.7-1.1,0.9-1.6l0.4,0.1l-1,1.6L52.7,49.7z"/>
			<polygon class="st21" points="52.5,48 52.4,48.1 52,49.3 52.2,49.2 52.5,48.1 			"/>
			<path class="st19" d="M52,49.3c0.2-0.4,0.3-0.8,0.4-1.2l0.3,0l-0.5,1.3L52,49.3z"/>
			<path class="st19" d="M56.7,52.9c0.2,0.1,0.5,0,0.5-0.2l0.6-2.8c0-0.1,0-0.2-0.1-0.2c-1-0.7-2-0.8-3.2-1.2
				c-1.8-0.7-3.3-0.1-3.3-0.1s0.9-0.5,2.5-0.2c1.1,0.2,3.1,0.9,3.1,0.9l0.8,0.3c0.2,0.1,0.4,0.3,0.4,0.5c0,0.1-0.1,0.3-0.1,0.4
				c0,0.1-0.5,1.6-0.7,3c0,0.1-0.2,0.2-0.3,0.1c-0.6-0.6-2.1-2.1-3.2-2.9c-1.4-1-2-1.4-2-1.4s2,1.2,2.6,1.7
				C54.6,51,56.7,52.9,56.7,52.9z"/>
		</g>
		<path class="st8" d="M42.4,48.7c0,0,1.3-0.6,2.9-1.1c2.2-0.7,3.1-0.1,3.1-0.1l-0.8,1.6l-3.5,3.6c-0.3,0.3-0.4,0.1-0.5-0.1L42.3,49
			C42.2,48.9,42.3,48.7,42.4,48.7z"/>
		<path class="st21" d="M43.9,53.2c0,0.1,0.1,0.1,0.1,0l3.4-4l-3.2,3.2c-0.1,0.1-0.4,0.3-0.6,0.3c0,0,0,0,0,0L43.9,53.2z"/>
		<polygon class="st21" points="45.1,47.9 45,48.2 46,50 46.1,49.9 		"/>
		<polygon class="st21" points="44.8,50.9 45.1,50.8 43.8,48.4 		"/>
		<path class="st19" d="M45,50.8c-0.5-0.7-0.9-1.7-1.3-2.5l-0.5,0.3l1.4,2.4L45,50.8z"/>
		<path class="st19" d="M46.1,50c-0.4-0.6-0.8-1.3-1-2l-0.4,0.2l1.1,2L46.1,50z"/>
		<polygon class="st21" points="46.3,47.7 46.3,47.7 47,49.3 46.8,49.2 46.1,47.8 		"/>
		<path class="st19" d="M47,49.3c-0.3-0.5-0.5-1.1-0.7-1.6l-0.3,0.1l0.8,1.7L47,49.3z"/>
		<polygon class="st21" points="47.3,47.6 47.4,47.6 47.7,49 47.5,48.9 47.2,47.6 		"/>
		<path class="st19" d="M47.7,49c-0.2-0.5-0.3-0.9-0.3-1.4l-0.3,0l0.4,1.5L47.7,49z"/>
		<path class="st19" d="M42.9,48.9c-0.1,0-0.1,0.1-0.1,0.2l0.9,2.6c0,0.1,0.2,0.2,0.3,0.1l0.6-0.7c0.2-0.2,1.1-0.9,1.6-1.4
			c0.2-0.1,0.3-0.2,0.5-0.3l0.8-0.4c0,0-1.1,0.7-1.6,1c-0.8,0.7-1.6,1.5-1.6,1.5L44,52.1c-0.1,0.1-0.3,0.1-0.4-0.1
			c-0.3-0.8-0.9-2.7-1-2.7c0,0,0-0.1,0-0.2c0-0.2,0.1-0.4,0.3-0.5l0.8-0.3c0,0,1.9-0.6,2.9-0.7c1-0.1,1.7,0,1.7,0s-1.4-0.1-2.5,0.3
			S43.8,48.2,42.9,48.9z"/>
		<g>
			<defs>
				<path id="XMLID_2_" d="M47.7,50.5c0,0.1-4.1,6.6-4.1,6.6l11.2,0.5c0.1,0,0.2-0.1,0.1-0.2l-4.6-6.7L47.7,50.5z"/>
			</defs>
			<use xlink:href="#XMLID_2_"  style="overflow:visible;fill:#F2F2F2;"/>
			<clipPath id="XMLID_5_">
				<use xlink:href="#XMLID_2_"  style="overflow:visible;"/>
			</clipPath>
			<polygon class="st22" points="45.3,54.9 45.1,56.1 46.2,56.1 47,52.9 45.6,54.2 			"/>
			<polygon class="st22" points="47,56.1 48.3,56.1 48.8,50.8 47.6,51.7 			"/>
			<polygon class="st22" points="49.1,56.1 50.1,56.1 50.7,50.6 49.6,50.2 			"/>
			<polygon class="st22" points="50.8,56.2 51.9,56.2 52.3,53.2 51.4,52.1 			"/>
			<polygon class="st22" points="52.5,56.4 53.3,56.2 53.5,54.9 52.8,54.2 			"/>
			
				<use xlink:href="#XMLID_2_"  style="overflow:visible;fill:none;stroke:#2034A8;stroke-width:5.000000e-02;stroke-linecap:round;stroke-linejoin:round;stroke-miterlimit:10;"/>
		</g>
		<path class="st23" d="M47.2,51.5c0,0-0.4,2.4,1.1,2.5c1.5,0.1,2.9-1.3,3.1-1.9c0.2-0.5-1.4-2.3-1.4-2.3L47.2,51.5z"/>
		<polygon class="st24" points="48.6,50.8 47.7,50.4 44.2,56.1 44.2,56.2 		"/>
		<path class="st19" d="M48.3,50.7c0.4,0.3,1,0.4,1.2,0.3c0.1,0,1,0,1.1-0.5c0-0.2-0.3-0.6-0.5-1.1c-0.5-1.1-0.5-1.2-0.9-1.2
			c-0.7-0.1-0.9,0.6-1.1,1C48.1,49.4,47.7,50.2,48.3,50.7z"/>
		<path class="st14" d="M48,50.5c0.4,0.3,1,0.4,1.2,0.3c0.1,0,1,0,1.1-0.5c0-0.2-0.3-0.6-0.5-1.1c-0.5-1.1-0.5-1.2-0.9-1.2
			c-0.7-0.1-0.9,0.6-1.1,1C47.7,49.3,47.3,50,48,50.5z"/>
		<path class="st21" d="M49.3,48.3c0,0-1.1-1-1.4,0.7c0,0.1,0,0.1,0,0.2c-0.1,0.9-0.2,1.2-0.2,1.2S48,48.4,49.3,48.3z"/>
		<path class="st24" d="M48.5,47.6c0,0,1.5-0.5,2.3,0.8c0,0,0.8,1.5,0.5,2.5H51c0,0,0-1.3-0.5-2.1C49.9,48,48.5,47.6,48.5,47.6z"/>
		<g>
			<path class="st25" d="M47.5,49.6l-3.2,4.2c-0.1,0.2-0.2,0.4-0.2,0.6c0,0.3,0.1,0.6,0.2,0.7c0.2,0.1,0.2-0.1,0.2-0.1
				c0.2,0,2.9-4.7,2.9-4.7V49.6"/>
			<path class="st21" d="M44.9,54.4c-0.1,0-0.2,0-0.2,0c-0.1,0-0.2,0-0.2-0.1c-0.1,0-0.1-0.1-0.2-0.2c0,0,0-0.1,0-0.1
				c0,0,0-0.1,0-0.1c0,0,0,0.1,0,0.1c0,0,0,0.1,0,0.1c0,0.1,0.1,0.1,0.2,0.1c0.1,0,0.1,0.1,0.2,0.1C44.8,54.3,44.8,54.3,44.9,54.4z"
				/>
			<path class="st21" d="M44.7,54.8c-0.1,0-0.1,0-0.2,0c-0.1,0-0.1,0-0.2-0.1c-0.1,0-0.1-0.1-0.1-0.2c0-0.1,0-0.1,0-0.2
				c0,0.1,0.1,0.1,0.1,0.2c0,0,0.1,0.1,0.1,0.1C44.4,54.7,44.5,54.8,44.7,54.8z"/>
		</g>
		<path class="st26" d="M54.3,56.6c0.1,0.1,0.2,0.2,0.3,0.2c0.1,0,0.2,0,0.3-0.1l0-0.1c0.1-0.1,0.1-0.3,0-0.4L51,50.8
			c0-0.1-0.1-0.1-0.1-0.2l0-0.3c0,0-0.2-2.1-1.4-2.6c-2.1-0.9-2.2,2.2-2.2,2.2c0,0.2-0.3,0.6-0.3,0.6L44,55.4
			c-0.1,0.1-0.1,0.3,0,0.4c0.1,0.1,0.2,0.3,0.2,0.4c0,0.2,3-5,3.4-5.6c0,0,0.1-0.1,0.1-0.2c0-0.3,0.1-1.2,0.3-1.7
			c0.2-0.5,0.6-0.6,1-0.6c0.1,0,0.3,0.2,0.4,0.3c0,0,0.2,0.4,0.4,1c0.2,0.4,0.3,0.8,0.5,1.3c0.1,0.3,0.4,0.7,0.7,1
			C51.1,51.9,54.3,56.6,54.3,56.6z"/>
		<path class="st27" d="M47.7,48.4c0,0,0.3-0.7,1.1-0.6c0.8,0.1,1.3,0.4,1.8,1.5c0,0,0.3,1,0.4,1.2c0,0.2-0.1-0.6-0.3-1.3
			c-0.3-0.9-0.6-1.1-1-1.4c-0.4-0.2-0.9-0.3-1.4,0.1C47.8,48.1,47.7,48.4,47.7,48.4z"/>
		<polygon class="st24" points="55.2,56.1 55,56.4 51,50.8 51.3,50.8 		"/>
		<path class="st1" d="M50.2,66.5c0.4,0.4,0.9,0.8,1.5,1c-0.2-0.1-0.6-0.1-0.8-0.2c-0.3-0.1-0.5-0.3-0.8-0.4
			c-0.4-0.3-0.8-0.9-1.2-1.3C49.3,65.5,49.8,66.1,50.2,66.5z"/>
		<path class="st21" d="M54.4,62.2c-0.1,0-0.1,0-0.1-0.1c0.1-0.1,0.1-0.2,0.2-0.2c0.3-0.3,0.7-0.5,1.1-0.7c0.9-0.5,1.9-0.9,2.8-1.3
			c0,0,0,0,0,0c0,0,0,0.1,0,0.1c-0.7,0.3-1.4,0.7-2.1,1.1C55.6,61.4,55,61.8,54.4,62.2z M58.8,64.3c-1.1,0.9-2.3,1.4-3.7,1.5
			c-0.1,0-0.1-0.1,0-0.1C56.4,65.5,57.7,65.1,58.8,64.3z M48.8,65.6c2.3,2.2,4.4,2.6,8.1,1.3C51.2,69,49.6,66.6,48.8,65.6z
			 M65.5,62.8c-2.6,2.7-8.2,5.5-8.6,5.1c1.2,0.1,5.9-2.9,8.5-5.2C65.5,62.7,65.6,62.8,65.5,62.8z M62.5,62c-1.7,1.6-5,2-5,2
			c5.6-1.6,5.5-3,7.7-5c2.1-1.9,2-3.5,2-3.5C67.7,57.4,64.3,60.4,62.5,62z"/>
		<path class="st1" d="M65.4,56.1c0.1-0.1,0.4-0.2,0.4-0.1c0,0.1-0.2,0.3-0.2,0.3c-1.4,0.6-2.6,1.4-3.9,2.2
			c-1.2,0.8-2.8,1.9-3.9,2.9c1.1-1,2.4-2.1,3.6-2.9C62.7,57.7,64.1,56.8,65.4,56.1z"/>
		<path class="st21" d="M50.8,63.6c0,0,2.7,1.5,6.3-1.5c3.5-2.9,6-5.1,8.7-6c0.1,0,0.1-0.1,0.1-0.2l0,0c-0.1-0.2-0.3-0.3-0.5-0.3
			c-0.6,0.1-1.9,0.5-3,1.5c-2.8,2.5-4.8,4.3-7,5.2c-2.7,1.1-4.6,1-4.6,1L50.8,63.6z"/>
		<path class="st28" d="M54.8,57.7l-2.3,4.2c0,0-0.7,1.1-1.8,0.6s-7.1-5.3-7.1-5.3L55,57.4L54.8,57.7z"/>
		<path id="XMLID_1_" class="st29" d="M46,58c0,0,5.2-0.5,6.7-0.2c0,0,0.6,0,0.8,0.2c0,0,0.1,0.2-0.2,0.8c-0.3,0.5-0.9,1.8-1.2,2.4
			c-0.1,0.2-0.3,0.3-0.5,0.4c-0.3,0-0.6,0-1-0.2C50,61.1,46,58,46,58z"/>
		<path class="st8" d="M54,58.2l-0.9,0.5l-0.8-0.5l0.8-0.4l-0.2-0.1L52,58l-0.4-0.3l0.1,0h-0.5l-1.2,0.5L49.7,58l0.9-0.3h-0.9
			l-0.4,0.2l-0.7-0.3h-0.2l0.8,0.3l-0.8,0.3l-1.2-0.6v0.1l1,0.5l-0.8,0.4L46,58v0.2l1.2,0.5L46.5,59l0.4,0.1l0.5-0.2l0.6,0.3
			l-0.9,0.4l0.4,0.1l0.8-0.4l0.7,0.3l-0.9,0.5L47.9,60l0.2,0.2l-0.2,0.1l0.3,0l0,0l0.1,0.1l0.8,0.3l-0.3,0.2L49,61l0.4-0.2l0.7,0.3
			l-0.7,0.4h0.4l0.6-0.3l1.8,0.7l0.1-0.2L50.6,61l0.6-0.3l1.3,0.6l0.1-0.1l-1.2-0.6l0.8-0.4l0.8,0.4l0.1-0.1l-0.7-0.3l0.8-0.4
			l0.3,0.1l0-0.2l-0.1-0.1l0.4-0.2l0.1-0.2l-0.5-0.4l0.7-0.4L54,58.2z M52.8,58.8l-0.6,0.3l-1-0.4l0.8-0.5L52.8,58.8z M50.3,59.2
			l0.8-0.4l1,0.4l-0.8,0.4L50.3,59.2z M51.1,59.7l-0.8,0.4l-0.9-0.4l0.8-0.4L51.1,59.7z M50.1,59.1l-0.6-0.3l0.8-0.4l0.6,0.3
			L50.1,59.1z M51.5,57.8l0.4,0.3L51,58.6l-0.6-0.2L51.5,57.8z M49.5,58l0.5,0.2l-0.8,0.4l-0.5-0.2L49.5,58z M47.7,58.8l0.9-0.3
			l0.5,0.2l-0.8,0.4L47.7,58.8z M48.5,59.2l0.8-0.4l0.6,0.3l-0.8,0.4L48.5,59.2z M48.4,60.2l0.8-0.5l0.9,0.4l-0.8,0.4L48.4,60.2z
			 M50.3,60.9l-0.7-0.3l0.7-0.4l0.6,0.3L50.3,60.9z M51.1,60.5l-0.6-0.3l0.8-0.4l0.6,0.3L51.1,60.5z M52,60l-0.6-0.3l0.8-0.4
			l0.6,0.3L52,60z M53.4,59.2L53,59.4l-0.6-0.3l0.6-0.3L53.4,59.2z"/>
		<path class="st1" d="M51.9,61.5c0,0-0.4,0.1-1-0.2c-0.5-0.2-1.2-0.8-2.1-1.4c-0.9-0.7-2.4-1.8-2.4-1.8h-0.2l4.3,3.2
			C50.4,61.2,51.2,61.8,51.9,61.5z"/>
		<path class="st20" d="M46,58c0,0,3.9-0.6,6.4-0.3c0,0,1,0.1,1.2,0.3c0,0-0.1,0.6-0.4,1.2c-0.3,0.5-0.7,1.5-1,2
			c-0.1,0.2-0.3,0.3-0.5,0.4c-0.3,0-0.6,0-1-0.2C50,61.1,46,58,46,58z"/>
		<path class="st30" d="M43.7,55.5l-1.2,0.4l1,1.2l0.7-0.8c0.2-0.2,0.2-0.5,0-0.7l0,0C44,55.5,43.8,55.4,43.7,55.5z"/>
		<path class="st25" d="M43,55.7c-0.3,0-0.7,0.2-0.8,0.5c-0.1,0.4,0.3,0.9,0.7,1c0.4,0.1,0.9-0.3,0.9-0.7
			C43.9,56.1,43.4,55.8,43,55.7z"/>
		<path class="st8" d="M42.6,56c0,0-0.3,0.5-0.1,0.9c0.3,0.4,1,0.1,1,0.1c0,0-0.6,0.1-0.8-0.2C42.4,56.4,42.6,56,42.6,56z"/>
		<path class="st21" d="M43.3,55.6c0.1,0,0.1-0.1,0.2-0.1l0,0l0,0c0.1,0,0.1,0,0.2,0.1c0.1,0,0.1,0.1,0.2,0.1
			c0.1,0.1,0.2,0.2,0.2,0.3c-0.1-0.1-0.1-0.2-0.2-0.3c-0.1-0.1-0.2-0.1-0.3-0.2l0,0C43.4,55.6,43.4,55.6,43.3,55.6z"/>
		<path class="st21" d="M43.2,55.6c0.1,0,0.1-0.1,0.2-0.1l0,0l0,0c0.1,0,0.1,0,0.2,0c0,0,0.1,0.1,0.1,0.1c0.1,0.1,0.1,0.2,0.2,0.3
			c-0.1-0.1-0.1-0.2-0.2-0.2c-0.1-0.1-0.2-0.1-0.2-0.1l0,0C43.3,55.6,43.3,55.6,43.2,55.6z"/>
		<path class="st31" d="M55.8,57.4l0.6-0.5c0.1-0.1,0.2-0.1,0.3-0.2l7.8-3.2c0.3-0.1,0.3-0.5,0-0.6l-0.2-0.1l-6.1,2.4l2.3-2.8
			l2.7-3.4c0-0.1,0-0.1-0.1-0.1l-1,0.7c-0.1,0.1-0.2,0.1-0.3,0.2L57.7,55l-1.3,0.9C56.2,56,56.1,56,55.9,56l-0.5,0L55.8,57.4z"/>
		<g>
			<path class="st25" d="M54.5,56.5c0.3-0.2,0.8-0.6,1-0.6c0.3,0,0.6,0.3,0.6,0.8c0,0.7-0.3,0.6-1.1,0.9L54.5,56.5z"/>
			<path class="st25" d="M54.8,56.5c-0.2,0-0.5,0.1-0.6,0.4c-0.1,0.3,0.2,0.7,0.5,0.8c0.3,0,0.6-0.2,0.7-0.6
				C55.4,56.7,55.1,56.5,54.8,56.5z"/>
			<path class="st8" d="M54.5,56.6c0,0-0.3,0.4-0.1,0.7c0.2,0.3,0.8,0.1,0.8,0.1c0,0-0.4,0.1-0.6-0.2C54.4,57,54.5,56.6,54.5,56.6z"
				/>
			<path class="st21" d="M55.1,56.1c0.1,0,0.2,0,0.3,0.1c0.1,0.1,0.2,0.1,0.3,0.2c0.1,0.1,0.1,0.2,0.1,0.3l0,0c0,0,0,0,0,0l0,0.1
				c0,0.1,0,0.1,0,0.2l0,0c0-0.1,0-0.1,0-0.2l0-0.1l0,0l0,0c0-0.1-0.1-0.2-0.1-0.3c-0.1-0.1-0.1-0.2-0.2-0.2
				C55.3,56.2,55.2,56.2,55.1,56.1L55.1,56.1z"/>
			<path class="st21" d="M55.2,56.1c0.1,0,0.2,0,0.3,0.1c0.1,0.1,0.2,0.1,0.3,0.2c0.1,0.1,0.1,0.2,0.1,0.3l0,0c0,0,0,0,0,0l0,0.1
				c0,0.1,0,0.1,0,0.2l0,0c0-0.1,0-0.1,0-0.2l0-0.1l0,0l0,0c0-0.1-0.1-0.2-0.1-0.3c-0.1-0.1-0.1-0.2-0.2-0.2
				C55.4,56.1,55.3,56.1,55.2,56.1L55.2,56.1z"/>
		</g>
		<path class="st1" d="M42.2,48.8c0,0,1-0.5,1.3-0.7s0.8-1.2,0.9-2.4l0.1-0.4l1.1,0.2c0.8,0.2,1.5,0.1,2.2-0.2l1.6-0.7
			c0,0-0.7,1.4-1.2,1.8c-0.5,0.5-1.9,0.7-2.6,1c-1.4,0.6-3.1,1.4-3.2,1.7C42.4,49.2,42.2,48.8,42.2,48.8z"/>
		<path class="st25" d="M56.9,55.5l-0.8-1.4c0,0-2.4-3.9-4.8-4.8c0,0-0.2-0.4,0.6,0c0.4,0.2,1.8,1.2,3.1,2.5
			c1.4,1.4,2.7,3.2,2.7,3.2L56.9,55.5z"/>
		<path class="st21" d="M56.4,54.7c0-0.1,0-0.2,0.1-0.2c0-0.1,0.1-0.1,0.2-0.2c0.1,0,0.2-0.1,0.2-0.1c0,0,0.1,0,0.1,0
			c0,0,0.1,0,0.1,0c0,0-0.1,0-0.1,0c0,0-0.1,0-0.1,0c-0.1,0-0.1,0-0.2,0.1C56.6,54.5,56.5,54.6,56.4,54.7z"/>
		<path class="st21" d="M56.6,55c0-0.1,0-0.1,0.1-0.2c0-0.1,0.1-0.1,0.2-0.2c0.1,0,0.1-0.1,0.2-0.1c0.1,0,0.2,0,0.2,0
			c-0.1,0-0.1,0-0.2,0c-0.1,0-0.1,0-0.2,0.1C56.8,54.7,56.7,54.8,56.6,55z"/>
		<path class="st32" d="M56.8,55.3c0,0,0.2-0.5,0.8-0.5"/>
		<path class="st33" d="M46.7,45.7c1.3-0.2,2.7-1.2,2.7-1.2l0,0c0,0,0.6-0.5,1.4,0.2c0.9,0.6,0.8,0.6,1.5,1c0.3,0.2,1.5,0.4,2.5,0.5
			c0.8,0.1,1.6,0.1,2.3,0l1-0.2c0.8-0.1,1.6-0.4,2.4-0.7c0,0,0.9-0.4,1.2-0.6c0.2-0.2,0.2-0.4,0.2-0.4L60.9,42c0,0-0.3-0.6-0.5-0.8
			c-0.3-0.3-1.4-1.3-2.6-1.7c-1.2-0.4-2.6-0.4-3.8-0.2c-1.2,0.3-2.3,1.1-2.3,1.1l0.2-0.9c0,0-0.8,0.1-0.9,0.3
			c-0.1,0.3-0.3,0.8-0.3,0.8s-0.4,0-0.7,0.1c-0.3,0.1-0.5,0.3-0.5,0.3c0,0,0.3-0.8,0.3-0.8s-1.2-0.2-2-0.7c-0.1-0.1-0.2-0.1-0.3-0.2
			c-1.2-0.5-2.9-0.3-4,0.7c-0.1,0.1-0.2,0.2-0.3,0.3c-0.7,0.9-0.7,2.3-0.2,3.3C43.7,45.3,45.5,45.8,46.7,45.7z"/>
		<g>
			<path class="st0" d="M49.4,41.3c0.1-0.3,0-0.4-0.1-0.5c-0.7-0.6-3.2-2.1-5.1-0.6c-2.6,2-0.4,4.8,0.6,5.1c0.4,0.1,1.1,0.4,1.8,0.3
				c1.2-0.1,2.2-0.7,2.7-1.1L49.4,41.3z"/>
			<path class="st0" d="M51.9,40.8c0,0,1.3-1.1,3.2-1.3c2.1-0.2,4,0.7,4.6,1.3c0.7,0.7,1.1,1.6,1.1,1.6l0.6,1.2
				c0.1,0.1,0.1,0.2,0.2,0.4c0,0.1,0,0.3-0.3,0.6c-0.4,0.3-1.9,0.8-4.7,1.1c-1.9,0.2-3.1-0.1-3.8-0.3s-1.1-0.8-1.1-1.1
				C51.6,43.9,51.9,40.8,51.9,40.8z"/>
			<path class="st34" d="M55.6,39.5c0,0,0.1,0,0.3,0c0.7,0,2.4,0.2,3.2,0.8c1,0.8,2.1,2.6,2.1,2.6l0.5,1.6
				C61.6,44.6,59.7,40.6,55.6,39.5z"/>
			<circle class="st8" cx="57.1" cy="41.7" r="0.6"/>
			<circle class="st8" cx="57.1" cy="41.7" r="0.6"/>
			<circle class="st1" cx="58.6" cy="42.4" r="0.3"/>
			<ellipse class="st8" cx="45.6" cy="40.9" rx="0.6" ry="0.6"/>
			<ellipse class="st1" cx="44" cy="41.5" rx="0.3" ry="0.3"/>
			<path class="st35" d="M44,44.7c0,0-0.8-0.8-0.9-1.8c-0.1-1,0.2-2.1,0.9-2.5c0,0-0.5,0.8-0.7,1.3C42.8,42.9,43.9,44.7,44,44.7z"/>
			<path class="st14" d="M51.5,41.2c0.1-0.1,0.2-0.2,0.3-0.3c0.1-0.1,0.2-0.2,0.3-0.3c0.2-0.2,0.4-0.3,0.6-0.4
				c0.4-0.3,0.9-0.5,1.4-0.6c0.3-0.1,0.5-0.1,0.8-0.1c0.3,0,0.5-0.1,0.8-0.1c0.5,0,1.1,0,1.6,0.2c0.5,0.1,1,0.3,1.5,0.6
				c0.1,0.1,0.2,0.1,0.3,0.2l0.2,0.1l0,0c0,0,0,0,0,0c0,0,0.1,0,0.1,0.1c0.2,0.2,0.4,0.3,0.6,0.5c0.4,0.4,0.6,0.8,0.9,1.3
				c0.1,0.1,0.1,0.2,0.2,0.4c0,0.1,0.1,0.2,0.1,0.4c0.1,0.2,0.2,0.5,0.3,0.7l0,0c0,0.1,0.1,0.1,0.1,0.2c0,0.1,0,0.2,0,0.2
				c0,0.1,0,0.2-0.1,0.2c0,0-0.1,0.1-0.1,0.1c0,0-0.1,0.1-0.1,0.1c-0.2,0.2-0.5,0.3-0.8,0.4c-0.5,0.2-1.1,0.3-1.7,0.5
				c-0.3,0.1-0.6,0.1-0.8,0.1c-0.3,0-0.6,0.1-0.8,0.1c-0.6,0.1-1.1,0.1-1.7,0.1c-0.6,0-1.1-0.1-1.7-0.2c-0.3,0-0.6-0.1-0.8-0.2
				c-0.1,0-0.3-0.1-0.4-0.1c-0.1-0.1-0.3-0.1-0.4-0.2c-0.2-0.2-0.4-0.4-0.5-0.7c0-0.1-0.1-0.1-0.1-0.2c0,0,0,0,0-0.1l0-0.1l0-0.1
				c0-0.1,0-0.3,0-0.4c0-0.3,0.1-0.6,0.1-0.8l0.1-0.8l-0.1,0.8c0,0.3,0,0.6-0.1,0.8c0,0.1,0,0.3,0,0.4l0,0.1l0,0.1c0,0,0,0,0,0
				c0,0.1,0,0.1,0.1,0.2c0.1,0.2,0.3,0.5,0.5,0.6c0.2,0.2,0.5,0.3,0.8,0.3c0.3,0.1,0.6,0.1,0.8,0.1c0.6,0.1,1.1,0.1,1.7,0.1
				c0.6,0,1.1-0.1,1.7-0.1c0.3,0,0.6-0.1,0.8-0.1c0.3,0,0.6-0.1,0.8-0.1c0.6-0.1,1.1-0.3,1.6-0.5c0.3-0.1,0.5-0.2,0.7-0.4
				c0,0,0.1,0,0.1-0.1c0,0,0,0,0.1-0.1c0,0,0-0.1,0.1-0.2c0-0.1,0-0.1,0-0.2c0-0.1,0-0.1-0.1-0.2l0,0l0,0c-0.1-0.2-0.2-0.5-0.3-0.7
				c-0.1-0.1-0.1-0.3-0.1-0.4c0-0.1-0.1-0.2-0.1-0.4c-0.2-0.5-0.5-0.9-0.8-1.3c-0.2-0.2-0.4-0.4-0.6-0.5c0,0-0.1,0-0.1-0.1l0,0l0,0
				L59,40.4c-0.1-0.1-0.2-0.1-0.3-0.2c-0.1-0.1-0.2-0.1-0.3-0.2C58.2,40,58.1,40,58,39.9c-0.2-0.1-0.5-0.2-0.7-0.2
				c-0.5-0.1-1-0.2-1.5-0.2c-0.3,0-0.5,0-0.8,0c-0.3,0-0.5,0.1-0.8,0.1c-0.5,0.1-1,0.3-1.4,0.6c-0.2,0.1-0.4,0.3-0.7,0.4
				c-0.1,0.1-0.2,0.2-0.3,0.2C51.7,41,51.6,41.1,51.5,41.2z"/>
			<path class="st14" d="M49.2,44.5c-0.4,0.3-0.8,0.6-1.2,0.7c-0.4,0.2-0.9,0.3-1.4,0.4c-0.5,0-0.9,0-1.4-0.1
				c-0.5-0.1-0.9-0.4-1.2-0.7c-0.3-0.3-0.6-0.7-0.8-1.2c-0.2-0.4-0.3-0.9-0.3-1.4c0-0.5,0.1-1,0.4-1.4c0.3-0.4,0.6-0.7,1-0.9l0,0
				c0.2-0.1,0.3-0.2,0.5-0.2c0.2-0.1,0.4-0.1,0.6-0.1c0.2,0,0.4,0,0.6-0.1c0.2,0,0.4,0,0.6,0l0,0l0,0c0.5,0.1,1.1,0.3,1.6,0.5
				c0.2,0.1,0.5,0.3,0.7,0.4c0.1,0,0.1,0.1,0.2,0.1c0.1,0,0.1,0.1,0.2,0.1c0.1,0.1,0.2,0.2,0.3,0.3c-0.1-0.1-0.2-0.2-0.3-0.3
				c-0.1,0-0.1-0.1-0.2-0.1c-0.1,0-0.1-0.1-0.2-0.1c-0.2-0.1-0.5-0.3-0.7-0.4c-0.5-0.2-1-0.4-1.6-0.5l0,0c-0.2,0-0.4,0-0.6,0
				c-0.2,0-0.4,0-0.6,0.1c-0.2,0-0.4,0.1-0.5,0.1c-0.2,0.1-0.3,0.1-0.5,0.2l0,0l0,0c-0.4,0.2-0.8,0.5-1,0.9
				c-0.3,0.4-0.4,0.9-0.4,1.3c0,0.5,0.1,0.9,0.3,1.4c0.2,0.4,0.4,0.8,0.8,1.2c0.3,0.3,0.8,0.5,1.2,0.7c0.5,0.1,0.9,0.2,1.4,0.1
				c0.5,0,0.9-0.2,1.4-0.4C48.5,45.1,48.9,44.8,49.2,44.5z"/>
			<g>
				<g>
					<path class="st8" d="M49.2,44.5c0.9-1.1,2,0,2,0l0.3-3.3c-0.7-0.6-2-0.2-2-0.2s-0.2,1.7-0.2,1.9C49.3,43.1,49.2,44.5,49.2,44.5
						z"/>
					<path class="st36" d="M49.2,44.5c0.9-1.1,2,0,2,0l0.3-3.3c-0.7-0.6-2-0.2-2-0.2s-0.2,1.7-0.2,1.9
						C49.3,43.1,49.2,44.5,49.2,44.5z"/>
				</g>
				<g>
					<path class="st8" d="M49.4,41.7c0,0,0.9-0.8,1.8,0.1"/>
					<path class="st21" d="M49.4,41.7c0.1-0.2,0.2-0.3,0.4-0.4c0.2-0.1,0.3-0.1,0.5-0.1c0.1,0,0.2,0,0.3,0.1c0.1,0,0.2,0.1,0.2,0.1
						c0.1,0.1,0.3,0.3,0.3,0.4l0,0c-0.1-0.1-0.2-0.2-0.4-0.3c-0.1-0.1-0.3-0.1-0.5-0.1c-0.2,0-0.3,0-0.5,0.1
						C49.7,41.6,49.6,41.7,49.4,41.7L49.4,41.7z"/>
				</g>
				<path class="st14" d="M49.4,41.7c0.1-0.1,0.3-0.2,0.4-0.2c0.2,0,0.3-0.1,0.5-0.1c0.1,0,0.2,0,0.2,0c0.1,0,0.2,0,0.2,0.1
					c0.1,0.1,0.3,0.2,0.4,0.3l0,0c-0.1-0.1-0.3-0.1-0.4-0.2c-0.1,0-0.1,0-0.2-0.1c-0.1,0-0.1,0-0.2,0c-0.1,0-0.3,0-0.4,0
					c-0.1,0-0.1,0-0.2,0C49.6,41.7,49.5,41.7,49.4,41.7L49.4,41.7z"/>
				<path class="st18" d="M49.4,41.7c0,0,0.3-0.4,0.7-0.5c0.8,0,0.9,0.2,1.1,0.6l0,0C51.2,41.9,50.5,41.4,49.4,41.7z"/>
				<g>
					<path class="st8" d="M49.3,42.5c0,0,0.9-0.8,1.8,0.1"/>
					<path class="st21" d="M49.3,42.5c0.1-0.2,0.2-0.3,0.4-0.4c0.2-0.1,0.3-0.1,0.5-0.1c0.1,0,0.2,0,0.3,0.1c0.1,0,0.2,0.1,0.2,0.1
						c0.1,0.1,0.3,0.3,0.3,0.4l0,0c-0.1-0.1-0.2-0.2-0.4-0.3c-0.1-0.1-0.3-0.1-0.5-0.1c-0.2,0-0.3,0-0.5,0.1
						C49.6,42.3,49.5,42.4,49.3,42.5L49.3,42.5z"/>
				</g>
				<path class="st14" d="M49.3,42.5c0.1-0.1,0.3-0.2,0.4-0.2c0.2,0,0.3-0.1,0.5-0.1c0.1,0,0.2,0,0.2,0c0.1,0,0.2,0,0.2,0.1
					c0.1,0.1,0.3,0.2,0.4,0.3l0,0c-0.1-0.1-0.3-0.1-0.4-0.2c-0.1,0-0.1,0-0.2-0.1c-0.1,0-0.1,0-0.2,0c-0.1,0-0.3,0-0.4,0
					c-0.1,0-0.1,0-0.2,0C49.5,42.5,49.4,42.5,49.3,42.5L49.3,42.5z"/>
				<path class="st18" d="M49.3,42.5c0,0,0.3-0.4,0.7-0.5c0.8,0,0.9,0.2,1.1,0.6l0,0C51.1,42.6,50.4,42.1,49.3,42.5z"/>
				<g>
					<path class="st8" d="M49.3,43.3c0,0,0.9-0.8,1.8,0.1"/>
					<path class="st21" d="M49.3,43.3c0.1-0.2,0.2-0.3,0.4-0.4c0.2-0.1,0.3-0.1,0.5-0.1c0.1,0,0.2,0,0.3,0.1c0.1,0,0.2,0.1,0.2,0.1
						c0.1,0.1,0.3,0.3,0.3,0.4l0,0c-0.1-0.1-0.2-0.2-0.4-0.3c-0.1-0.1-0.3-0.1-0.5-0.1c-0.2,0-0.3,0-0.5,0.1
						C49.5,43.2,49.4,43.2,49.3,43.3L49.3,43.3z"/>
				</g>
				<path class="st14" d="M49.3,43.3c0.1-0.1,0.3-0.2,0.4-0.2c0.2,0,0.3-0.1,0.5-0.1c0.1,0,0.2,0,0.2,0c0.1,0,0.2,0,0.2,0.1
					c0.1,0.1,0.3,0.2,0.4,0.3l0,0c-0.1-0.1-0.3-0.1-0.4-0.2c-0.1,0-0.1,0-0.2-0.1c-0.1,0-0.1,0-0.2,0c-0.1,0-0.3,0-0.4,0
					c-0.1,0-0.1,0-0.2,0C49.4,43.3,49.3,43.3,49.3,43.3L49.3,43.3z"/>
				<path class="st18" d="M49.3,43.3c0,0,0.3-0.4,0.7-0.5c0.8,0,0.9,0.2,1.1,0.6l0,0C51,43.5,50.3,43,49.3,43.3z"/>
				<g>
					<path class="st21" d="M48.2,45.2c0.3-0.1,1-0.7,1-0.7s0.5-0.5,0.9-0.5c0.4,0.1,0.7,0.1,1.1,0.5c0,0-0.5-0.4-1.1-0.3
						c-0.2,0-0.3,0.1-0.5,0.2C48.6,45,48.2,45.2,48.2,45.2z"/>
					<path class="st14" d="M48.2,45.2c0.1,0,0.2-0.1,0.3-0.2c0.1-0.1,0.2-0.1,0.3-0.2c0.2-0.1,0.3-0.2,0.5-0.4l0,0
						c0.1-0.1,0.3-0.3,0.4-0.4c0.1-0.1,0.2-0.1,0.3-0.1c0,0,0.1,0,0.1,0c0,0,0.1,0,0.1,0c0.2,0,0.4,0.1,0.5,0.1
						c0.2,0.1,0.3,0.2,0.5,0.3l0,0c-0.2-0.2-0.5-0.3-0.7-0.3c-0.1,0-0.3,0-0.4,0c-0.1,0-0.3,0.1-0.4,0.1c-0.1,0-0.1,0.1-0.2,0.1
						l-0.2,0.1l-0.4,0.2L48.6,45l-0.2,0.1L48.2,45.2L48.2,45.2L48.2,45.2C48.2,45.2,48.2,45.2,48.2,45.2z M48.2,45.2
						C48.2,45.2,48.2,45.2,48.2,45.2L48.2,45.2L48.2,45.2l0.2-0.1l0.2-0.1l0.3-0.2l0.3-0.2l0.2-0.1c0.1,0,0.1-0.1,0.2-0.1
						c0.1-0.1,0.3-0.1,0.4-0.1c0.1,0,0.3,0,0.4,0c0.3,0,0.5,0.2,0.8,0.3l0,0c-0.1-0.1-0.1-0.1-0.2-0.2c-0.1-0.1-0.2-0.1-0.2-0.1
						c-0.2-0.1-0.4-0.1-0.5-0.1c-0.1,0-0.2,0-0.3,0c-0.1,0-0.2,0.1-0.3,0.1c-0.2,0.1-0.3,0.2-0.4,0.4l0,0l0,0
						c-0.2,0.1-0.3,0.2-0.5,0.4c-0.1,0.1-0.2,0.1-0.3,0.2C48.4,45.1,48.3,45.1,48.2,45.2z"/>
				</g>
				<path class="st14" d="M49.2,44.5c0,0,0.5-0.3,0.9-0.3c0.4,0,1,0.3,1,0.3l-0.5-0.4c-0.3-0.2-0.7-0.1-1,0.1L49.2,44.5z"/>
			</g>
		</g>
		<path class="st8" d="M59.8,54.2c1.1-1.7,2.3-3.4,3.7-4.8c0,0,0,0,0,0c0.8,0.6,1.4,2,0.1,2.8C62.5,53.1,61.1,53.7,59.8,54.2
			C59.8,54.3,59.8,54.3,59.8,54.2z"/>
		<path class="st8" d="M61.3,46.3c0.2-0.1,0.2,0,0.2,0.1c-0.1,0.3-0.1,0.6-0.2,0.9c-0.6,1.6-1.5,3.1-2.6,4.4
			c-0.4,0.6-0.8,1.2-1.2,1.8c0.2-0.6,0.4-1.3,0.6-2c0.4-1,0.6-2,1-3c0-0.1,0.1-0.2,0.2-0.3c0.6-0.5,1.2-1.1,1.8-1.6
			c0.1-0.1,0.1-0.2,0.1-0.3c0,0,0,0,0,0C61.3,46.3,61.3,46.3,61.3,46.3z"/>
		<path class="st8" d="M44,47.7c0.1,0,0.1,0.1,0.2,0.1c0,0,0,0,0,0.1c-0.3,0.1-0.6,0.2-0.9,0.3c0,0,0,0,0,0c0.9-0.8,0.9-1.8,1.2-2.8
			c0,0,0,0,0,0c0.3,0.1,0.6,0.2,1,0.3c1.1,0.2,2.2,0,3.1-0.6c0.3-0.2,0.6-0.4,0.9-0.5c0,0,0,0,0,0c-0.4,0.6-0.8,1.1-1.3,1.6
			c-0.2,0.3-0.6,0.4-1,0.6c-0.3,0.1-0.6,0.2-0.9,0.3c-0.7,0.3-1.4,0.6-2.3,0.5C44,47.6,44,47.6,44,47.7z M44.3,47.3
			c0,0.1,0,0.1,0,0.1c0.4,0,0.7-0.1,1.1-0.3c0,0,0,0,0,0l0-0.1c0,0,0,0,0,0L44.3,47.3z"/>
		<path class="st8" d="M62,48.1C62.1,48,62.1,48.1,62,48.1c0,0.6-0.1,1.1-0.4,1.5c-1.1,1.4-2.3,2.9-3.4,4.3
			c-0.1,0.1-0.2,0.2-0.3,0.3c-0.1,0-0.1,0-0.2,0.1c0,0,0,0,0,0c0-0.1-0.1-0.2,0-0.2c0.1-0.2,0.2-0.5,0.4-0.7
			c1.2-1.8,2.6-3.5,3.9-5.2C62,48.1,62,48.1,62,48.1z"/>
		<path class="st8" d="M53.1,47.4c0.3,0,0.6-0.1,0.9-0.1c0,0,0,0,0,0c0-0.5-0.5-0.9-1-1c-0.3-0.1-0.6-0.1-0.9-0.1
			c-0.2-0.1-0.4-0.2-0.6-0.3c0,0,0,0,0,0c0,0,0-0.1,0-0.1c0,0,0,0,0,0c0.2,0.1,0.4,0.1,0.6,0.2c0.6,0.2,1.2,0.4,1.7,0.8
			c0.4,0.3,0.8,0.1,1.2,0c0-0.1,0-0.1,0-0.1c-0.2-0.1-0.5-0.1-0.7-0.2c0,0,0,0,0-0.1h4.2c0,0,0,0,0,0c-1.2,0.5-2.4,1-3.8,0.8
			c0,0,0,0,0,0c0.2,0,0.4-0.1,0.7-0.1c0.3,0,0.5,0,0.8,0c0,0,0,0,0,0l0-0.1c-0.1-0.1-0.2-0.1-0.3-0.1c-0.5-0.1-1.1,0-1.5,0.4
			c0,0.1,0,0.1,0,0.2c0.8,0.1,1.6,0.1,2.4,0.2c0,0,0,0,0,0c0,0,0,0.1,0,0.1c0,0,0,0,0,0C55.6,47.6,54.3,47.6,53.1,47.4
			C53.1,47.5,53.1,47.5,53.1,47.4z"/>
		<path class="st8" d="M61.2,46.4"/>
		<path class="st8" d="M61.7,46c0.5-0.4,0.5-0.8,0.2-1.4c0,0,0,0,0,0c-0.1,0.1-0.2,0.2-0.2,0.2l0,0.4l-0.3,0.1
			c-0.1,0-0.2,0.1-0.2,0.3l0,0.1c0,0.2-0.2,0.4-0.4,0.5l-0.1,0c-1.1,0.5-2.1,0.9-3.3,1c-0.1,0-0.2,0-0.2,0.1c0,0,0,0,0,0
			c0,0,0,0.1,0,0.1c0,0,0,0,0,0c0.3,0,0.6,0,0.8,0c1-0.2,2-0.4,3-1L61.7,46z"/>
		<path class="st8" d="M49.6,46.3C49.6,46.3,49.6,46.3,49.6,46.3c0.3,0.1,0.3,0.2,0.3,0.4c-0.1,0.3-0.1,0.6-0.4,0.6
			c-0.2,0-0.3-0.1-0.5-0.1c0,0,0,0,0,0c0-0.1,0.1-0.3,0.1-0.4c0-0.1,0.1-0.2,0.2-0.3c0.4-0.3,0.3-0.7,0.3-1.1c0,0,0,0,0,0
			c-0.4,0.7-1,1.2-1.7,1.6c0,0,0,0,0,0c0.2-0.2,0.5-0.4,0.7-0.6c0.3-0.3,0.5-0.5,0.7-0.8c0.1-0.1,0.3-0.3,0.4-0.4
			c0.2-0.2,0.4-0.3,0.7,0c0.2,0.2,0.1,0.6-0.1,0.8C50,46.1,49.8,46.2,49.6,46.3z"/>
		<path class="st8" d="M52,47.6C52,47.6,52,47.6,52,47.6c-0.2,0-0.6,0.1-0.8-0.1c-0.1-0.1-0.1-0.4,0-0.6c0-0.1,0.1-0.3,0.2-0.3
			c0.2,0,0.4,0,0.2,0.3c0,0.1-0.3,0.2-0.3,0.2c0,0.1,0.1,0.2,0.2,0.2c0.1,0,0.3,0,0.4,0c0,0,0,0,0,0C52,47.4,52,47.6,52,47.6z"/>
		<path class="st8" d="M48.9,46.6c-0.1,0.4-0.4,0.6-0.8,0.7c0,0,0,0,0,0C48.3,47,48.6,46.8,48.9,46.6C48.8,46.6,48.9,46.6,48.9,46.6
			z"/>
		<path class="st8" d="M50.7,45.1c0,0,0.2-0.1,0.2,0.1s-0.3,0.9-0.3,1.7c0,0.7,0.1,0.8,0,0.9c-0.1,0.1-0.3,0-0.3-0.1
			s0.2-1.6,0.3-1.7C50.6,45.7,50.7,45.1,50.7,45.1z"/>
		<path class="st8" d="M56.2,55.1c-0.2-0.2-0.3-0.3-0.5-0.5c-0.3-0.2-0.5-0.5-0.8-0.7c-0.4-0.3-0.4-0.3-0.6,0.2
			c-0.8-1.1-1.7-2.2-2.5-3.3c0,0,0,0,0,0c0.4,0.3,0.8,0.5,1.2,0.8c0,0,0,0,0.1-0.1c-0.2-0.3-0.3-0.5-0.5-0.8c0,0,0,0,0-0.1
			c0.2,0.1,0.5,0.2,0.6,0.4c0.9,1,1.7,2.1,2.5,3.1c0.2,0.3,0.3,0.6,0.5,0.9C56.3,55,56.3,55,56.2,55.1z"/>
		<path class="st21" d="M50.1,67.1c0.1,0,0.2,0,0.2,0c1.3,0.8,2.7,1.1,4.2,1.1c0.4,0,0.7,0,1.1,0.1c-0.5,0-0.9,0.1-1.4,0.1
			c-1.3,0-2.6-0.3-3.7-1.1c0,0-0.1,0-0.1,0C50.2,67.3,50.1,67.2,50.1,67.1z"/>
		<path class="st37" d="M49.5,71.3c0.3,0,0.6,0,0.9,0"/>
		<path class="st14" d="M49.3,73.2c0.1-0.4,0.2-0.8,0.3-1.2c0.1,0.1,0.3-0.1,0.4,0c0.1,0,0.1,0.1,0.1,0.2c0,0.4-0.2,0.9-0.4,1.3
			c0,0,0,0.1-0.1,0.1c0,0-0.1,0-0.1,0c-0.1-0.1-0.2-0.1-0.3-0.2C49.2,73.3,49.3,73.3,49.3,73.2z"/>
		<path class="st14" d="M63.2,68.6c0-0.1,0.1-0.1,0.1-0.2c0.1,0,0.2,0.1,0.3,0.1c-0.1,0.5-0.2,1.1-0.3,1.6c-0.1,0-0.2,0-0.3-0.1
			s-0.1-0.1-0.2-0.2c0-0.1,0-0.1,0-0.2C63,69.4,63.2,69,63.2,68.6z"/>
		<path class="st9" d="M49.8,74.4c0,0,11.1,1,13.2-3.7c0,0,0.1-1.1-0.4-0.7c-4.8,3.7-7.7,3.6-12.6,3.4L49.8,74.4z"/>
		<g>
			<defs>
				<path id="XMLID_3_" d="M49.8,71.9c0,0,11.3-1.4,13.5-3.3V70c0,0-0.5,3-6,3.8c-5.5,0.8-7.6-0.3-7.6-0.3L49.8,71.9z"/>
			</defs>
			<clipPath id="XMLID_6_">
				<use xlink:href="#XMLID_3_"  style="overflow:visible;"/>
			</clipPath>
			<g class="st38">
				<path class="st39" d="M49,72.1l0-0.1l0.9,0.2l0,0.4l0.3,0l0.1-0.4l1,0.1l0,0.4l0.5,0l0-0.3l1.3,0l0,0.4l0.4,0l0-0.4l2-0.3
					l0.2,0.3l0.8-0.3l-0.1-0.4l2-0.7l0.1,0.3l0.8-0.3l0-0.4l2-0.8l0.2,0.3l0.7-0.2l0-0.4l1.7-0.6l0.5,1l-1.6,0.9l-0.2,0l-0.1-0.3
					l-0.8,0.3l0,0.3l-2.1,0.9l-0.2-0.3l-0.7,0.2l0.1,0.5l-2.1,0.6l-0.2-0.3l-0.7,0.1l0.1,0.4l-2.1,0.3L53.5,73l-0.5,0.1l0,0.4
					l-1.2,0.1l0-0.4l-0.5,0l0,0.3l-1,0l-0.1-0.5L49.9,73l0,0.3L49.1,73l0-0.4l-0.3-0.2l0-0.2L49,72.1C48.9,72.2,49,72.1,49,72.1z"/>
				<path class="st3" d="M49,72.3l0-0.1l0.9,0.2l0,0.4l0.3,0l0.1-0.4l1,0.1l0,0.4l0.5,0l0-0.3l1.3,0l0,0.4l0.4,0l0-0.4l2-0.3
					l0.2,0.3l0.8-0.3l-0.1-0.4l2-0.7l0.1,0.3l0.8-0.3l0-0.4l2-0.8l0.2,0.3l0.7-0.2l0-0.4l1.7-0.6l0.5,1l-1.6,0.9l-0.2,0l-0.1-0.3
					l-0.8,0.3l0,0.3L59.4,72l-0.2-0.3l-0.7,0.2l0.1,0.5L56.5,73l-0.2-0.3l-0.7,0.1l0.1,0.4l-2.1,0.3l-0.1-0.3l-0.5,0.1l0,0.4
					l-1.2,0.1l0-0.4l-0.5,0l0,0.3l-1,0l-0.1-0.5l-0.4-0.1l0,0.3l-0.9-0.4l0-0.4l-0.3-0.2l0-0.2L49,72.3C48.9,72.4,49,72.3,49,72.3z"
					/>
				<polygon class="st19" points="62.6,69.7 62.6,70.2 64,69.6 63.8,69.1 				"/>
				<polygon class="st19" points="59.7,70.9 61.1,70.4 61.1,70.9 59.8,71.5 				"/>
				<polygon class="st19" points="58,71.6 58,72.1 56.8,72.4 56.7,72.1 				"/>
				<polygon class="st19" points="55,72.6 55,72.9 53.9,73.2 53.8,72.8 54.4,72.7 				"/>
				
					<rect x="52" y="73" transform="matrix(0.9956 -9.402145e-02 9.402145e-02 0.9956 -6.6486 5.2465)" class="st19" width="0.8" height="0.4"/>
				<polygon class="st19" points="51,72.9 51.1,73.3 50.4,73.3 50.4,73 				"/>
				<polygon class="st19" points="49.7,72.7 49.6,73.1 49.2,72.9 49.2,72.6 				"/>
			</g>
		</g>
		<path class="st37" d="M63.4,67.6c0.2,0.2,0.4,0.3,0.6,0.4"/>
		<g>
			<path class="st40" d="M44.3,97.8c0,0,0.4,3.5,1.9,4.1s4.8,1,5,0.3c0-0.2-0.3-0.6-0.3-0.6l-1.9,0.3l-3.1-0.9L44.3,97.8z"/>
			<path class="st41" d="M48.1,96.1c-0.1,0-0.3-0.1-0.3-0.3v-2c0-0.1,0.1-0.3,0.3-0.3c0.1,0,0.3,0.1,0.3,0.3v2
				C48.4,96,48.3,96.1,48.1,96.1C48.1,96.1,48.1,96.1,48.1,96.1"/>
			<path class="st41" d="M48.3,102.2c-2.2,0-4-1.8-4-3.9c0-2.2,1.8-3.9,4-3.9c1.1,0,2,0.4,2.8,1.1l0.3,0.3l-1.1,1l-0.5-0.5l0.6-0.5
				c-0.6-0.5-1.3-0.7-2-0.7c-1.8,0-3.2,1.4-3.2,3.2c0,1.8,1.5,3.2,3.2,3.2"/>
			<path class="st41" d="M48.3,97.8c-0.3,0-0.5,0.2-0.5,0.5c0,0.3,0.2,0.5,0.5,0.5c0.3,0,0.5-0.2,0.5-0.5
				C48.7,98,48.5,97.8,48.3,97.8 M48.3,99.5c-0.6,0-1.2-0.5-1.2-1.2c0-0.6,0.5-1.2,1.2-1.2c0.6,0,1.2,0.5,1.2,1.2
				C49.4,98.9,48.9,99.5,48.3,99.5"/>
			<path class="st41" d="M48.5,97.4l2.1-1.9l0.5,0.5L49,97.9L48.5,97.4z M51.3,102.2h-3.1v-0.7h2.4v-0.6l-2.1-1.6l0.4-0.6l2.4,1.8
				V102.2z"/>
			<path class="st42" d="M50.3,100.2l-0.5-0.5c0.4-0.4,0.6-0.9,0.6-1.4c0-0.6-0.2-1.1-0.6-1.5l-0.3-0.3l0.3-0.3l0.2,0.3l0.2-0.2
				c0.5,0.5,0.8,1.2,0.8,2C51,99,50.8,99.7,50.3,100.2"/>
			<path class="st43" d="M51.5,94l0.3-0.3l0.3,0.3l-0.3,0.3L51.5,94z M50.6,93l0.1-0.1l0.1,0.1l-0.1,0.1L50.6,93z M51.8,92
				c0.1,0,0.2,0.1,0.2,0.2c0,0.1-0.1,0.2-0.2,0.2c0,0,0,0,0,0c-0.1,0-0.2-0.1-0.2-0.2c0,0,0,0,0,0C51.6,92.1,51.7,92,51.8,92"/>
			<path class="st41" d="M46.9,96.5c-0.1,0-0.2-0.1-0.2-0.2v-2.5c0-0.1,0.1-0.2,0.2-0.2c0.1,0,0.2,0.1,0.2,0.2v2.5
				C47.1,96.4,47,96.5,46.9,96.5"/>
			<polygon class="st41" points="48.1,96.1 47.9,96.1 47.8,95.6 48.3,95.5 48.2,96 			"/>
			<polygon class="st41" points="46.9,96.5 46.6,96.5 46.6,96.2 47,96 			"/>
			<polygon class="st41" points="48.1,93.6 47.8,93.6 47.9,94.1 48.2,94.1 			"/>
			<polygon class="st41" points="46.9,93.6 46.6,93.6 46.6,94 47,94.2 			"/>
			<path class="st44" d="M49,97.7h0.3c0,0,0.4,0.6,0,1.3L49,99c0,0,0.2-0.2,0.2-0.7C49.2,98.1,49,97.7,49,97.7z"/>
			<rect x="51" y="100.5" class="st44" width="0.3" height="1.7"/>
			<polygon class="st43" points="51.6,94.3 51.8,94.3 52.1,94 51.8,93.7 51.6,93.7 			"/>
			<polygon class="st43" points="51.5,92.4 51.8,92.4 51.8,92 51.5,92 			"/>
			<polygon class="st43" points="50.5,93.2 50.7,93.2 50.9,93 50.7,92.9 50.5,92.9 			"/>
			<polyline class="st45" points="45,95.8 45,93.7 42.8,93.7 42.8,90.9 			"/>
			<polyline class="st45" points="47.7,102.2 47.7,103.2 45.7,103.2 45.7,105.4 			"/>
			<polyline class="st45" points="44.1,98.4 43.5,98.4 43.6,99.7 42.7,99.7 42.7,97.2 41.9,97.2 			"/>
			<g>
				<path class="st14" d="M47.9,96.1c-0.1,0-0.3-0.1-0.3-0.3v-2c0-0.1,0.1-0.3,0.3-0.3c0.1,0,0.3,0.1,0.3,0.3v2
					C48.1,96,48,96.1,47.9,96.1C47.9,96.1,47.9,96.1,47.9,96.1"/>
				<path class="st14" d="M48,102.2c-2.2,0-4-1.8-4-3.9c0-2.2,1.8-3.9,4-3.9c1.1,0,2,0.4,2.8,1.1l0.3,0.3l-1.1,1l-0.5-0.5l0.6-0.5
					c-0.6-0.5-1.3-0.7-2-0.7c-1.8,0-3.2,1.4-3.2,3.2c0,1.8,1.5,3.2,3.2,3.2"/>
				<path class="st46" d="M50,100.2l-0.5-0.5c0.4-0.4,0.6-0.9,0.6-1.4c0-0.6-0.2-1.1-0.6-1.5l-0.3-0.3l0.3-0.3l0.2,0.3l0.2-0.2
					c0.5,0.5,0.8,1.2,0.8,2C50.8,99,50.5,99.7,50,100.2"/>
				<path class="st14" d="M48,97.8c-0.3,0-0.5,0.2-0.5,0.5c0,0.3,0.2,0.5,0.5,0.5c0.3,0,0.5-0.2,0.5-0.5C48.5,98,48.3,97.8,48,97.8
					 M48,99.5c-0.6,0-1.2-0.5-1.2-1.2c0-0.6,0.5-1.2,1.2-1.2c0.6,0,1.2,0.5,1.2,1.2C49.2,98.9,48.7,99.5,48,99.5"/>
				<path class="st14" d="M48.3,97.4l2.1-1.9l0.5,0.5l-2.1,1.9L48.3,97.4z M51,102.2h-3.1v-0.7h2.4v-0.6l-2.1-1.6l0.4-0.6l2.4,1.8
					V102.2z"/>
				<path class="st47" d="M51.3,94l0.3-0.3l0.3,0.3l-0.3,0.3L51.3,94z M50.3,93l0.1-0.1l0.1,0.1l-0.1,0.1L50.3,93z M51.5,92
					c0.1,0,0.2,0.1,0.2,0.2c0,0.1-0.1,0.2-0.2,0.2c0,0,0,0,0,0c-0.1,0-0.2-0.1-0.2-0.2c0,0,0,0,0,0C51.3,92.1,51.4,92,51.5,92"/>
				<path class="st14" d="M46.6,96.5c-0.1,0-0.2-0.1-0.2-0.2v-2.5c0-0.1,0.1-0.2,0.2-0.2c0.1,0,0.2,0.1,0.2,0.2v2.5
					C46.8,96.4,46.7,96.5,46.6,96.5"/>
				<path class="st44" d="M51.3,95.8h-0.3c0,0-1-1.3-2.6-1.4c-0.3,0,0.5,0,1.2,0.2C50.7,95,51.3,95.8,51.3,95.8z"/>
			</g>
			<g>
				<rect x="52.8" y="92.9" class="st48" width="1.9" height="1.1"/>
				<polygon class="st48" points="55.1,93.7 54.7,94 54.7,92.9 55.1,92.8 				"/>
				<polygon class="st48" points="52.8,92.9 53.3,92.7 55.1,92.8 54.7,92.9 				"/>
			</g>
			<polygon class="st49" points="54,94 54.1,105.3 53.5,105.3 53.5,94 			"/>
			<polygon class="st49" points="54.2,94 54.3,105.3 53.9,105.3 53.9,94 			"/>
			<g>
				<rect x="52.6" y="97.3" class="st48" width="1.9" height="1.1"/>
				<polygon class="st48" points="54.9,98.2 54.5,98.4 54.5,97.3 54.9,97.2 				"/>
				<polyline class="st50" points="54.2,97.2 54.9,97.2 54.5,97.3 52.6,97.3 53.1,97.1 53.5,97.1 				"/>
			</g>
			<g>
				<rect x="52.6" y="101.6" class="st48" width="1.9" height="1.1"/>
				<polygon class="st48" points="54.9,102.5 54.5,102.7 54.5,101.6 54.9,101.5 				"/>
				<polyline class="st50" points="54.2,101.5 54.9,101.5 54.5,101.6 52.6,101.6 53.1,101.4 53.5,101.4 				"/>
			</g>
			<g>
				<rect x="52.6" y="105" class="st51" width="1.9" height="1.1"/>
				<polygon class="st48" points="54.9,105.8 54.5,106.1 54.5,105 54.9,104.8 				"/>
				<polygon class="st50" points="52.6,105 53.1,104.8 54.9,104.8 54.5,105 				"/>
			</g>
		</g>
		<line class="st32" x1="49.8" y1="72.2" x2="49.7" y2="73.4"/>
		<line class="st32" x1="63.3" y1="68.8" x2="63.3" y2="70.2"/>
	</g>
</g>
<g id="Layer_63_6_" class="st52">
	<path class="st53" d="M55.4,10.9l-46,26.5v53.9l46,26.8l46-26.8l0-53.9L55.4,10.9z M99.7,90.2L55.5,116L11.4,90.2V38.4L55.5,13
		l44.2,25.5L99.7,90.2z"/>
</g>
<g>
	<path class="st19" d="M66.6,117.2l1.6-0.9l0.1,0.1c0.2,0.3,0.3,0.6,0.3,0.8c0,0.2,0,0.5,0,0.8c-0.1,0.6-0.5,1.1-1,1.4
		c-0.5,0.3-1.1,0.4-1.7,0.2c-0.6-0.2-1.1-0.5-1.4-1.1c-0.3-0.5-0.4-1.1-0.2-1.7s0.5-1.1,1.1-1.4c0.3-0.2,0.6-0.3,0.9-0.3
		c0.3,0,0.7,0,1.1,0.2l-0.2,0.6c-0.5-0.2-1-0.2-1.5,0c-0.4,0.2-0.7,0.6-0.8,1c-0.1,0.4-0.1,0.8,0.2,1.3c0.2,0.4,0.6,0.7,1.1,0.8
		c0.4,0.1,0.8,0,1.1-0.2c0.3-0.2,0.5-0.4,0.6-0.7c0.1-0.3,0.1-0.6,0-0.9l-0.9,0.5L66.6,117.2z"/>
	
		<rect x="70.2" y="112.8" transform="matrix(0.8665 -0.4992 0.4992 0.8665 -48.0055 50.572)" class="st19" width="0.7" height="4.4"/>
	<polygon class="st19" points="73.3,111.6 75.2,114.9 74.6,115.2 72.7,112 71.9,112.5 71.6,111.9 73.9,110.6 74.2,111.1 	"/>
	<path class="st19" d="M78.5,108.2l0.4,0.7c-0.5-0.1-0.9,0-1.3,0.2c-0.4,0.2-0.6,0.6-0.7,1c-0.1,0.4,0,0.9,0.2,1.3
		c0.2,0.4,0.6,0.7,1,0.8c0.4,0.1,0.8,0.1,1.2-0.2c0.2-0.1,0.4-0.2,0.5-0.4c0.1-0.1,0.1-0.2,0.2-0.3c0.1-0.1,0.1-0.2,0.2-0.4l0.4,0.7
		c-0.2,0.4-0.5,0.7-0.9,0.9c-0.5,0.3-1.1,0.4-1.7,0.2c-0.6-0.2-1.1-0.5-1.4-1c-0.3-0.5-0.4-1-0.3-1.6c0.1-0.7,0.5-1.2,1.1-1.6
		C77.7,108.3,78,108.2,78.5,108.2"/>
	<path class="st1" d="M81.2,108c-0.3-0.5-0.4-1.1-0.2-1.7c0.2-0.6,0.5-1.1,1.1-1.4c0.5-0.3,1.1-0.4,1.7-0.2c0.6,0.2,1.1,0.5,1.4,1.1
		c0.3,0.5,0.4,1.1,0.2,1.7c-0.2,0.6-0.5,1.1-1.1,1.4c-0.5,0.3-1,0.4-1.6,0.3C82.1,109,81.6,108.7,81.2,108 M81.8,107.7
		c0.2,0.4,0.6,0.7,1,0.8c0.4,0.1,0.8,0.1,1.2-0.2c0.4-0.2,0.7-0.6,0.8-1c0.1-0.4,0.1-0.9-0.2-1.3c-0.2-0.4-0.6-0.7-1-0.8
		c-0.4-0.1-0.8-0.1-1.2,0.2c-0.4,0.2-0.6,0.6-0.8,1C81.5,106.9,81.6,107.3,81.8,107.7"/>
	
		<rect x="87.2" y="103.1" transform="matrix(0.8663 -0.4995 0.4995 0.8663 -40.874 57.7872)" class="st19" width="0.7" height="4.4"/>
	<polygon class="st19" points="91.1,105.7 88.8,101.7 93.2,103 91.7,100.3 92.3,100 94.6,104 90.2,102.7 91.7,105.4 	"/>
</g>
</svg>
