<svg xmlns="http://www.w3.org/2000/svg" viewBox="0 0 1039.23 1200"><defs><style>.a{fill:#fff;}.b,.l{opacity:0.25;}.c,.h,.l{fill:#14003d;}.d{opacity:0.21;}.e{fill:#25e899;}.f,.g,.k{fill:none;}.f,.g,.h{stroke:#14003d;stroke-linejoin:round;stroke-width:8px;}.g{stroke-linecap:round;}.i{fill:#ffce08;}.j{fill:#0fce7b;}</style></defs><title>ED209</title><polygon class="a" points="0 300 0 900 519.62 1200 1039.23 900 1039.23 300 519.62 0 0 300"/><path class="a" d="M695.12,609.6V542.35c1,.48,2,.95,3.1,1.38a3.42,3.42,0,0,0,.6.18l.16.05a4.13,4.13,0,0,0,.78.08,4,4,0,0,0,3-1.37L713,531a59.86,59.86,0,0,0,46.36-7.2l13.6,9.55a4,4,0,0,0,2.3.73,4,4,0,0,0,2.56-.92,78.37,78.37,0,0,0,27.28-47.5,4,4,0,0,0-1.65-3.92l-15.76-11.08a60,60,0,0,0-24-45.82h.05a4,4,0,0,0,3.91-4.87l-3.2-14.4a4,4,0,0,0-2.68-2.94l-94.4-30.4a4,4,0,0,0-3.58.58,3.93,3.93,0,0,0-1.41,1.89,16.68,16.68,0,0,0-13.82-2l-4.61-1.05V262.4a4,4,0,0,0-8,0V369.84l-2.09-.48-1.93-4.73a119.21,119.21,0,0,0-109.82-83.76,3.64,3.64,0,0,0-.74-.07h-3.28a3.67,3.67,0,0,0-.75.07,119.19,119.19,0,0,0-109.2,81.85l-2.71,6.64-3.08.7V293.6a4,4,0,0,0-8,0v78.28l-3.62.82a16.8,16.8,0,0,0-4.78-.7,16.61,16.61,0,0,0-9,2.66,4,4,0,0,0-5-2.47l-94.4,30.4a4,4,0,0,0-2.68,2.94l-3.2,14.4a4,4,0,0,0,1,3.63,4,4,0,0,0,2.9,1.24h.05a60,60,0,0,0-24,45.82L235.81,481.7a4,4,0,0,0-1.65,3.92,78.42,78.42,0,0,0,27.28,47.5A4,4,0,0,0,264,534a4,4,0,0,0,2.3-.73l13.6-9.55a59.64,59.64,0,0,0,31.62,9c.92,0,1.83,0,2.75-.07l.78,0c.71,0,1.42-.1,2.13-.16l.65-.06c.89-.1,1.77-.21,2.65-.34l.62-.1c.69-.12,1.38-.24,2.07-.38l.79-.16c.75-.15,1.5-.33,2.25-.52h.05l10.19,11.71a4,4,0,0,0,3,1.37,4.13,4.13,0,0,0,.78-.08l.16-.05a3.42,3.42,0,0,0,.6-.18l0,0c.75-.31,1.49-.64,2.23-1l.6-.28.44-.2V609.6a4,4,0,0,0,4,4h2l-8.4,11.2a4,4,0,0,0-.8,2.4v65.24L334,731.28h0a5,5,0,0,0-.07.54L329.2,838,309,854.5a4,4,0,0,0-.88,5.19L315,870.91l-47.37,33.84a3.92,3.92,0,0,0-1.25,1.46L255.94,927a4,4,0,0,0,.48,4.32l7.2,8.8a4,4,0,0,0,3.1,1.47h65.6v-.09a3.57,3.57,0,0,0,.8.09h106.4a3.57,3.57,0,0,0,.8-.09v.09h65.6a4,4,0,0,0,3.1-1.47l7.2-8.8a4,4,0,0,0,.48-4.32l-10.4-20.8a3.86,3.86,0,0,0-1.26-1.46l-47.37-33.84,6.86-11.22a4,4,0,0,0-.88-5.19L443.44,838l-4.72-106.21a5,5,0,0,0-.07-.54h0l-7.13-38.84V627.2a4,4,0,0,0-.8-2.4l-8.4-11.2h31.6v15.2a4,4,0,0,0,4,4h122.4a4,4,0,0,0,4-4V613.6h30.4c.14,0,.27,0,.4,0s.26,0,.4,0h3.6l-8.4,11.2a4,4,0,0,0-.8,2.4v65.24l-7.14,38.84h0a5,5,0,0,0-.07.54L598,838,577.79,854.5a4,4,0,0,0-.88,5.19l6.85,11.22-47.37,33.84a3.92,3.92,0,0,0-1.25,1.46L524.74,927a4,4,0,0,0,.48,4.32l7.2,8.8a4,4,0,0,0,3.1,1.47h65.6v-.09a3.57,3.57,0,0,0,.8.09h106.4a3.57,3.57,0,0,0,.8-.09v.09h65.6a4,4,0,0,0,3.1-1.47l7.2-8.8a4,4,0,0,0,.48-4.32l-10.4-20.8a3.86,3.86,0,0,0-1.26-1.46l-47.37-33.84,6.86-11.22a4,4,0,0,0-.88-5.19L712.24,838l-4.72-106.21a5,5,0,0,0-.07-.54h0l-7.13-38.84V627.2a4,4,0,0,0-.8-2.4l-8.4-11.2A4,4,0,0,0,695.12,609.6Z"/><g class="b"><path class="c" d="M727.71,430.4a42.25,42.25,0,0,0-7.07.6l-2.13-9.37a51.4,51.4,0,0,1,18.4,0L734.78,431A42.25,42.25,0,0,0,727.71,430.4Z"/><path class="c" d="M311.52,420.8a52.64,52.64,0,0,1,9.2.83L318.59,431a42,42,0,0,0-14.14,0l-2.13-9.37A52.64,52.64,0,0,1,311.52,420.8Z"/></g><g class="d"><polygon class="c" points="356.31 885.99 363.42 916.04 359.49 934.4 338.82 934.4 356.31 885.99"/><polygon class="c" points="413.15 934.4 409.22 916.04 416.32 885.99 433.82 934.4 413.15 934.4"/><polygon class="c" points="625.12 885.99 632.22 916.04 628.29 934.4 607.62 934.4 625.12 885.99"/><polygon class="c" points="681.95 934.4 678.02 916.04 685.12 885.99 702.62 934.4 681.95 934.4"/></g><path class="e" d="M602.06,400c0,.54,0,1.07,0,1.6h-168c0-.53,0-1.06,0-1.6a83.52,83.52,0,0,1,13.85-46.22,208.07,208.07,0,0,1,140.29,0A83.53,83.53,0,0,1,602.06,400Z"/><path class="f" d="M602.06,400c0,.54,0,1.07,0,1.6h-168c0-.53,0-1.06,0-1.6a83.52,83.52,0,0,1,13.85-46.22,208.07,208.07,0,0,1,140.29,0A83.53,83.53,0,0,1,602.06,400Z"/><path class="f" d="M408.93,374.72A115.23,115.23,0,0,1,521.34,284.8h-3.28a115.22,115.22,0,0,1,112.4,89.92"/><line class="g" x1="398.32" y1="389.6" x2="398.32" y2="293.6"/><line class="g" x1="639.92" y1="372" x2="639.92" y2="262.4"/><polyline class="f" points="386.32 871.2 357.12 871.2 367.52 915.2 386.32 915.2"/><polyline class="f" points="386.32 937.6 362.72 937.6 367.52 915.2 386.32 915.2"/><polyline class="f" points="362.72 937.6 333.12 937.6 357.12 871.2"/><polyline class="f" points="332.32 937.6 266.72 937.6 259.52 928.8 269.92 908 320.32 872 332.32 883.2 344.32 904.8"/><line class="f" x1="320.32" y1="872" x2="350.72" y2="843.2"/><polyline class="f" points="386.32 764 367.52 764 351.52 816 350.72 843.2"/><line class="f" x1="357.12" y1="871.2" x2="350.72" y2="843.2"/><polyline class="f" points="386.32 715.2 361.12 715.2 351.52 816"/><polyline class="f" points="361.12 715.2 337.92 732 333.12 840 311.52 857.6 320.32 872"/><line class="f" x1="333.12" y1="840" x2="350.72" y2="843.2"/><line class="f" x1="361.12" y1="715.2" x2="361.12" y2="676.8"/><polyline class="f" points="345.12 627.2 353.92 676.8 386.12 676.8"/><polyline class="f" points="357.12 611.2 345.12 627.2 345.12 692.8 337.92 732"/><polyline class="f" points="386.32 871.2 415.52 871.2 405.12 915.2 386.32 915.2"/><polyline class="f" points="386.32 937.6 409.92 937.6 405.12 915.2 386.32 915.2"/><polyline class="f" points="409.92 937.6 439.52 937.6 415.52 871.2"/><polyline class="f" points="440.32 937.6 505.92 937.6 513.12 928.8 502.72 908 452.32 872 440.32 883.2 428.32 904.8"/><line class="f" x1="452.32" y1="872" x2="421.92" y2="843.2"/><polyline class="f" points="386.32 764 405.12 764 421.12 816 421.92 843.2"/><line class="f" x1="415.52" y1="871.2" x2="421.92" y2="843.2"/><polyline class="f" points="386.32 715.2 411.52 715.2 421.12 816"/><polyline class="f" points="411.52 715.2 434.72 732 439.52 840 461.12 857.6 452.32 872"/><line class="f" x1="439.52" y1="840" x2="421.92" y2="843.2"/><line class="f" x1="411.52" y1="715.2" x2="411.52" y2="676.8"/><polyline class="f" points="427.52 627.2 418.72 676.8 386.12 676.8"/><polyline class="f" points="415.52 611.2 427.52 627.2 427.52 692.8 434.72 732"/><polygon class="h" points="424.32 523.2 457.92 523.2 457.92 609.6 423.52 609.6 424.32 523.2"/><polygon class="h" points="581.12 523.2 614.72 523.2 614.72 609.6 580.32 609.6 581.12 523.2"/><polygon class="f" points="519.12 628.8 580.32 628.8 580.32 523.2 519.12 523.2 457.92 523.2 457.92 628.8 519.12 628.8"/><polyline class="f" points="655.12 871.2 625.92 871.2 636.32 915.2 655.12 915.2"/><polyline class="f" points="655.12 937.6 631.52 937.6 636.32 915.2 655.12 915.2"/><polyline class="f" points="631.52 937.6 601.92 937.6 625.92 871.2"/><polyline class="f" points="601.12 937.6 535.52 937.6 528.32 928.8 538.72 908 589.12 872 601.12 883.2 613.12 904.8"/><line class="f" x1="589.12" y1="872" x2="619.52" y2="843.2"/><polyline class="f" points="655.12 764 636.32 764 620.32 816 619.52 843.2"/><line class="f" x1="625.92" y1="871.2" x2="619.52" y2="843.2"/><polyline class="f" points="655.12 715.2 629.92 715.2 620.32 816"/><polyline class="f" points="629.92 715.2 606.72 732 601.92 840 580.32 857.6 589.12 872"/><line class="f" x1="601.92" y1="840" x2="619.52" y2="843.2"/><line class="f" x1="629.92" y1="715.2" x2="629.92" y2="676.8"/><polyline class="f" points="613.92 627.2 622.72 676.8 654.92 676.8"/><polyline class="f" points="625.92 611.2 613.92 627.2 613.92 692.8 606.72 732"/><polyline class="f" points="655.12 871.2 684.32 871.2 673.92 915.2 655.12 915.2"/><polyline class="f" points="655.12 937.6 678.72 937.6 673.92 915.2 655.12 915.2"/><polyline class="f" points="678.72 937.6 708.32 937.6 684.32 871.2"/><polyline class="f" points="709.12 937.6 774.72 937.6 781.92 928.8 771.52 908 721.12 872 709.12 883.2 697.12 904.8"/><line class="f" x1="721.12" y1="872" x2="690.72" y2="843.2"/><polyline class="f" points="655.12 764 673.92 764 689.92 816 690.72 843.2"/><line class="f" x1="684.32" y1="871.2" x2="690.72" y2="843.2"/><polyline class="f" points="655.12 715.2 680.32 715.2 689.92 816"/><polyline class="f" points="680.32 715.2 703.52 732 708.32 840 729.92 857.6 721.12 872"/><line class="f" x1="708.32" y1="840" x2="690.72" y2="843.2"/><line class="f" x1="680.32" y1="715.2" x2="680.32" y2="676.8"/><polyline class="f" points="696.32 627.2 687.52 676.8 654.92 676.8"/><polyline class="f" points="684.32 611.2 696.32 627.2 696.32 692.8 703.52 732"/><line class="f" x1="273.8" y1="480.02" x2="272.32" y2="480"/><circle class="c" cx="256.32" cy="508" r="6.4"/><path class="c" d="M698.91,470.4l8.8,6.4a7.2,7.2,0,0,1,7.2,7.2h0a13.64,13.64,0,0,1,23.11-.89l1.69,2.49a7.2,7.2,0,0,1,7.2-7.2l5.6-8.8a7.2,7.2,0,0,1-.37-14.39l-53.23.79a7.2,7.2,0,1,1,0,14.4Z"/><circle class="f" cx="727.71" cy="472.8" r="56"/><path class="f" d="M630.91,472.8a96.61,96.61,0,0,0,1.55,17.29l18-3.75a78.5,78.5,0,0,1,21.84-69l-14.24-11.75A97,97,0,0,0,639,434.06a10.56,10.56,0,0,1-6.24,20A97.42,97.42,0,0,0,630.91,472.8Z"/><circle class="f" cx="727.71" cy="472.8" r="38.4"/><line class="f" x1="742.11" y1="416.8" x2="738.11" y2="434.4"/><line class="f" x1="713.31" y1="416.8" x2="717.31" y2="434.4"/><path class="c" d="M672.51,465.6a15.21,15.21,0,0,0,15.2,15.2,14.37,14.37,0,0,0,2.39-.19,38.67,38.67,0,0,1-.79-7.81,38.15,38.15,0,0,1,5.88-20.42,14.94,14.94,0,0,0-7.48-2A15.21,15.21,0,0,0,672.51,465.6Z"/><path class="c" d="M766.11,472.8a38.48,38.48,0,0,1-.67,7.17,13.6,13.6,0,1,0-4.63-26.66A38.24,38.24,0,0,1,766.11,472.8Z"/><path class="f" d="M759.44,518.94,775.23,530A74.26,74.26,0,0,0,801.12,485l-17.41-12.23v.06A55.92,55.92,0,0,1,759.44,518.94Z"/><line class="f" x1="694.02" y1="454.37" x2="690.91" y2="454.4"/><line class="f" x1="762.91" y1="453.6" x2="760.99" y2="453.62"/><line class="f" x1="690.14" y1="480.78" x2="687.71" y2="480.8"/><path class="i" d="M782.91,510.4a4,4,0,0,0,4-4c0-11.87-4.54-17.73-8.55-22.9-3.57-4.6-6.65-8.57-6.65-17.1a4,4,0,0,0-8,0c0,11.27,4.43,17,8.33,22,3.69,4.75,6.87,8.86,6.87,18A4,4,0,0,0,782.91,510.4Z"/><circle class="j" cx="752.51" cy="462.4" r="4"/><circle class="f" cx="752.51" cy="462.4" r="7.2"/><circle class="j" cx="698.91" cy="463.2" r="4"/><circle class="f" cx="698.91" cy="463.2" r="7.2"/><circle class="j" cx="707.71" cy="484" r="4"/><circle class="f" cx="707.71" cy="484" r="7.2"/><circle class="j" cx="746.91" cy="485.6" r="4"/><circle class="f" cx="746.91" cy="485.6" r="7.2"/><circle class="f" cx="752.51" cy="462.4" r="7.2"/><circle class="f" cx="707.71" cy="484" r="7.2"/><circle class="f" cx="746.91" cy="485.6" r="7.2"/><line class="k" x1="752.51" y1="455.2" x2="752.14" y2="455.21"/><path class="f" d="M667.8,514.15a73,73,0,0,0,32,25.89l11.84-13.6A56.06,56.06,0,0,1,679.3,501Z"/><path class="f" d="M668,530.7a81.85,81.85,0,0,0,12.68,10.72l6.63-8.07a73.08,73.08,0,0,1-12.67-10.73Z"/><path class="f" d="M667.8,514.15a72.21,72.21,0,0,0,6.82,8.47,73.08,73.08,0,0,0,12.67,10.73A72.12,72.12,0,0,0,699.76,540l11.84-13.6A56.09,56.09,0,0,1,679.3,501Z"/><path class="h" d="M672.54,482.41A56,56,0,0,1,685,436.62l-19.73-9.85a77.11,77.11,0,0,0-15.11,44.44Z"/><circle class="f" cx="653.31" cy="388.8" r="12.8"/><circle class="c" cx="653.31" cy="388.8" r="4.8"/><circle class="c" cx="675.71" cy="396" r="3.2"/><polygon class="f" points="666.11 376 760.51 406.4 763.71 420.8 666.11 404 666.11 376"/><path class="f" d="M642.91,396l-18.4,32,14.36,6a10.56,10.56,0,0,1,5.23,14h0a10.56,10.56,0,0,1-14,5.21l-8-3.64"/><path class="f" d="M622.11,449.6l8,3.64a10,10,0,0,0,2.6.8"/><polyline class="f" points="622.11 405.6 615.71 372.8 609.31 356.8 622.11 351.2 630.91 372.8 648.51 376.8"/><polyline class="f" points="417.12 460.8 413.92 408.8 625.12 408.8 621.92 460.8"/><path class="f" d="M627,466.81l-.28.39A131.72,131.72,0,0,1,585.92,504V490.3c-4.06,1.65-8.2,3.16-12.4,4.5a177.76,177.76,0,0,1-106.37.51q-7.15-2.21-14-5V504a131.72,131.72,0,0,1-40.78-36.84l-.28-.39,5.06-6-3.2-52h66.33a202.48,202.48,0,0,0-13,58.4H573.39a202.48,202.48,0,0,0-13-58.4h64.73l-3.2,52Z"/><path class="h" d="M581.12,492.46V523.2H458.72v-31a177.5,177.5,0,0,0,122.4.29Z"/><polyline class="f" points="626.72 467.2 626.7 467.2 573.39 467.2"/><polyline class="f" points="467.25 467.2 412.34 467.2 412.32 467.2"/><line class="f" x1="476.02" y1="420" x2="562.42" y2="420"/><line class="f" x1="471.62" y1="432.27" x2="566.82" y2="432.27"/><line class="f" x1="467.62" y1="444.53" x2="570.82" y2="444.53"/><line class="f" x1="467.62" y1="456.8" x2="570.82" y2="456.8"/><line class="f" x1="467.52" y1="467.2" x2="417.12" y2="449.6"/><line class="f" x1="574.72" y1="467.2" x2="625.12" y2="449.6"/><line class="k" x1="511.52" y1="501.6" x2="511.52" y2="496.61"/><line class="k" x1="483.74" y1="493.02" x2="481.92" y2="496.8"/><line class="k" x1="515.52" y1="477.6" x2="511.52" y2="478.08"/><circle class="c" cx="460.32" cy="480.8" r="2.4"/><circle class="c" cx="578.72" cy="480.8" r="2.4"/><path class="c" d="M340.32,470.4l-8.8,6.4a7.2,7.2,0,0,0-7.2,7.2h0a13.63,13.63,0,0,0-23.1-.89l-1.7,2.49a7.2,7.2,0,0,0-7.2-7.2l-5.6-8.8a7.2,7.2,0,0,0,.37-14.39l53.23.79a7.2,7.2,0,0,0,0,14.4Z"/><circle class="f" cx="311.52" cy="472.8" r="56"/><path class="f" d="M408.32,472.8a97.53,97.53,0,0,1-1.54,17.29l-18-3.75a78.5,78.5,0,0,0-21.84-69l14.24-11.75a97,97,0,0,1,19.11,28.5,10.56,10.56,0,0,0,6.24,20A96.64,96.64,0,0,1,408.32,472.8Z"/><circle class="f" cx="311.52" cy="472.8" r="38.4"/><line class="f" x1="297.12" y1="416.8" x2="301.12" y2="434.4"/><line class="f" x1="325.92" y1="416.8" x2="321.92" y2="434.4"/><path class="c" d="M366.72,465.6a15.21,15.21,0,0,1-15.2,15.2,14.37,14.37,0,0,1-2.39-.19,38.67,38.67,0,0,0,.79-7.81A38.15,38.15,0,0,0,344,452.38a14.94,14.94,0,0,1,7.48-2A15.21,15.21,0,0,1,366.72,465.6Z"/><path class="c" d="M273.12,472.8a38.48,38.48,0,0,0,.67,7.17,13.6,13.6,0,1,1,4.63-26.66A38.34,38.34,0,0,0,273.12,472.8Z"/><path class="f" d="M279.79,518.94,264,530A74.31,74.31,0,0,1,238.11,485l17.41-12.23v.06A55.92,55.92,0,0,0,279.79,518.94Z"/><line class="f" x1="348.32" y1="454.4" x2="345.22" y2="454.37"/><line class="f" x1="278.24" y1="453.62" x2="276.32" y2="453.6"/><line class="f" x1="351.52" y1="480.8" x2="349.1" y2="480.78"/><circle class="j" cx="286.72" cy="462.4" r="4"/><circle class="f" cx="286.72" cy="462.4" r="7.2"/><circle class="j" cx="340.32" cy="463.2" r="4"/><circle class="f" cx="340.32" cy="463.2" r="7.2"/><circle class="j" cx="331.52" cy="484" r="4"/><circle class="f" cx="331.52" cy="484" r="7.2"/><circle class="j" cx="292.32" cy="485.6" r="4"/><circle class="f" cx="292.32" cy="485.6" r="7.2"/><circle class="f" cx="286.72" cy="462.4" r="7.2"/><circle class="f" cx="331.52" cy="484" r="7.2"/><circle class="f" cx="292.32" cy="485.6" r="7.2"/><line class="k" x1="287.09" y1="455.21" x2="286.72" y2="455.2"/><path class="f" d="M371.43,514.15a73,73,0,0,1-32,25.89l-11.84-13.6A56.11,56.11,0,0,0,359.94,501Z"/><path class="f" d="M371.26,530.7a82.8,82.8,0,0,1-12.68,10.72l-6.64-8.07a72.71,72.71,0,0,0,12.67-10.73Z"/><path class="f" d="M371.43,514.15a73,73,0,0,1-32,25.89l-11.84-13.6a55.61,55.61,0,0,0,13.58-6.16A56.26,56.26,0,0,0,359.94,501Z"/><path class="f" d="M349.27,514.16l-.91.82s0,0,0,0h0C348.64,514.73,349,514.45,349.27,514.16Z"/><path class="f" d="M423.92,508V609.6h-75.6v-74l.26-.15c.08-.05.17-.09.25-.15l.33-.2c.44-.26.87-.53,1.3-.81s1-.6,1.41-.91l.07,0c.95-.63,1.88-1.28,2.79-2,.54-.39,1.09-.8,1.61-1.22.35-.26.68-.54,1-.81s.67-.54,1-.82l.88-.75c.88-.76,1.74-1.55,2.58-2.36.31-.28.62-.59.92-.89l.4-.39c.14-.15.28-.3.43-.44.3-.31.61-.62.9-.94a1.85,1.85,0,0,1,.14-.14,72.21,72.21,0,0,0,6.82-8.47L366.07,508Z"/><path class="f" d="M615.52,508V609.6h75.6v-74l-.26-.15c-.08-.05-.17-.09-.25-.15l-.33-.2c-.44-.26-.87-.53-1.3-.81s-1-.6-1.41-.91l-.07,0c-1-.63-1.88-1.28-2.79-2-.54-.39-1.09-.8-1.61-1.22-.35-.26-.68-.54-1-.81s-.67-.54-1-.82l-.88-.75c-.88-.76-1.74-1.55-2.58-2.36-.31-.28-.62-.59-.92-.89l-.4-.39c-.14-.15-.28-.3-.43-.44-.3-.31-.61-.62-.9-.94l-.14-.14a72.21,72.21,0,0,1-6.82-8.47l5.36-6.15Z"/><path class="f" d="M367.52,472.8A55.73,55.73,0,0,1,359.94,501c-.15.25-.29.5-.44.74s-.26.43-.4.64a2.13,2.13,0,0,1-.16.25c-.17.29-.36.59-.55.87-.44.66-.89,1.32-1.34,2l-.89,1.2-.18.23c-.25.34-.51.66-.77,1l-.14.17c-.29.36-.58.71-.88,1.06l-.27.32-.86,1-.16.17-.83.89-.12.12c-.26.28-.53.55-.79.81s-.41.41-.62.61c-.41.41-.84.81-1.27,1.2s-.63.57-.95.84h0l-.05,0-.23.2c-.4.34-.81.69-1.22,1a.27.27,0,0,0-.08.07l-.08,0c-.35.28-.7.56-1.06.83a1.56,1.56,0,0,1-.2.16l-.16.12c-.24.2-.5.38-.74.56l-.47.33s0,0-.09.07l-.65.45-.65.44-.62.42s-.06,0-.09.05c-.23.16-.48.32-.72.46l-.1.06c-.27.18-.55.35-.82.51l-.63.37-.06,0-.21.12-.93.52a.76.76,0,0,1-.18.09,1.56,1.56,0,0,1-.28.16c-.18.09-.34.19-.52.27l-.46.24-.72.36h0l-1.2.57-.22.1-.77.35-.21.09c-.32.15-.64.28-1,.41a3.7,3.7,0,0,1-.4.16l-1.11.44-.23.09-.06,0a2.39,2.39,0,0,1-.32.11l-.52.2-.09,0h0l-.6.2s0,0,0,0l-.18.06-.47.16-.34.11-.94.29a56,56,0,1,1,39.89-53.64Z"/><path class="f" d="M329.58,525.81l.6-.2-.32.11Z"/><path class="f" d="M330.82,525.37a2.39,2.39,0,0,0,.32-.11l-.84.31Z"/><path class="f" d="M337,522.66l.46-.24,0,0Z"/><path class="f" d="M338.46,521.9l.93-.52-.75.42Z"/><path class="f" d="M342.64,519.35l.65-.44-.46.32q-.4.28-.81.54Z"/><path class="f" d="M345.6,517.22c.36-.27.71-.55,1.06-.83a3.68,3.68,0,0,1-.38.31c-.29.24-.58.47-.88.68A1.56,1.56,0,0,0,345.6,517.22Z"/><path class="f" d="M346.82,516.27c.41-.33.82-.68,1.22-1l-.74.63Z"/><path class="f" d="M349.27,514.16l-.91.82s0,0,0,0h0C348.64,514.73,349,514.45,349.27,514.16Z"/><path class="f" d="M330.18,525.61l-.32.11-.28.09Z"/><path class="f" d="M331.14,525.26l-.84.31.52-.2A2.39,2.39,0,0,0,331.14,525.26Z"/><path class="f" d="M342.83,519.23q-.4.28-.81.54l.62-.42Z"/><path class="f" d="M346.28,516.7c-.29.24-.58.47-.88.68a1.56,1.56,0,0,0,.2-.16C345.83,517.06,346.06,516.88,346.28,516.7Z"/><path class="f" d="M348.58,535.47l-.26.15h0Z"/><path class="f" d="M371.26,530.7a82.8,82.8,0,0,1-12.68,10.72l-6.64-8.07c.95-.63,1.88-1.28,2.79-2,.54-.39,1.09-.8,1.61-1.22.35-.26.68-.53,1-.81s.67-.54,1-.82.59-.5.88-.75c.88-.76,1.74-1.55,2.58-2.36.31-.28.62-.59.92-.89l.4-.39c.14-.15.28-.3.43-.44.3-.31.61-.62.9-.94a1.85,1.85,0,0,1,.14-.14Z"/><path class="f" d="M331.14,525.26l-.84.31.52-.2A2.39,2.39,0,0,0,331.14,525.26Z"/><path class="f" d="M337.48,522.42l0,0-.44.22Z"/><path class="f" d="M339.39,521.38l-.75.42-.18.1Z"/><path class="f" d="M343.29,518.91l-.46.32q-.4.28-.81.54l.62-.42Z"/><path class="f" d="M346.66,516.39a3.68,3.68,0,0,1-.38.31c-.29.24-.58.47-.88.68a1.56,1.56,0,0,0,.2-.16C346,517,346.31,516.67,346.66,516.39Z"/><path class="f" d="M348,515.25l-.74.63-.48.39C347.23,515.94,347.64,515.59,348,515.25Z"/><path class="f" d="M349.27,514.16l-.91.82s0,0,0,0h0C348.64,514.73,349,514.45,349.27,514.16Z"/><path class="f" d="M371.43,514.15a72.21,72.21,0,0,1-6.82,8.47,1.85,1.85,0,0,0-.14.14c-.29.32-.6.63-.9.94-.15.14-.29.29-.43.44l-.4.39c-.3.3-.61.61-.92.89-.84.81-1.7,1.6-2.58,2.36l-.88.75c-.33.28-.66.56-1,.82s-.67.55-1,.81c-.52.42-1.07.83-1.61,1.22-.91.69-1.84,1.34-2.79,2l-.07,0c-.46.31-.93.62-1.41.91s-.86.55-1.3.81l-.33.2c-.08.06-.17.1-.25.15l-.26.15h0l-.88.52-1.29.71a71.81,71.81,0,0,1-6.68,3.19l-11.84-13.6.94-.29.34-.11.47-.16.18-.06s0,0,0,0l.28-.09.32-.11h0l.09,0,.84-.31.06,0,.23-.09,1.11-.44a3.7,3.7,0,0,0,.4-.16c.32-.13.64-.26,1-.41l.21-.09.77-.35.22-.1,1.2-.57h0l.72-.36.44-.22,0,0c.18-.08.34-.18.52-.27a1.56,1.56,0,0,0,.28-.16.76.76,0,0,0,.18-.09l.18-.1.75-.42.21-.12.06,0,.63-.37c.27-.16.55-.33.82-.51l.1-.06c.24-.14.49-.3.72-.46,0,0,.05,0,.09-.05q.41-.25.81-.54l.46-.32.65-.45s.07,0,.09-.07l.47-.33c.24-.18.5-.36.74-.56l.16-.12c.3-.21.59-.44.88-.68a3.68,3.68,0,0,0,.38-.31l.08,0a.27.27,0,0,1,.08-.07l.48-.39.74-.63.23-.2.05,0s0,0,0,0l.91-.82c.43-.39.86-.79,1.27-1.2.21-.2.42-.4.62-.61s.53-.53.79-.81l.12-.12.83-.89.16-.17.86-1,.27-.32c.3-.35.59-.7.88-1.06l.14-.17c.26-.33.52-.65.77-1l.18-.23.89-1.2c.45-.64.9-1.3,1.34-2,.19-.28.38-.58.55-.87a2.13,2.13,0,0,0,.16-.25c.14-.21.27-.43.4-.64s.29-.49.44-.74l6.13,7.05Z"/><path class="h" d="M366.7,482.41a56.13,56.13,0,0,0-12.44-45.79L374,426.77a77.11,77.11,0,0,1,15.11,44.44Z"/><circle class="f" cx="385.92" cy="388.8" r="12.8"/><circle class="c" cx="385.92" cy="388.8" r="4.8"/><circle class="c" cx="363.52" cy="396" r="3.2"/><polygon class="f" points="373.12 376 278.72 406.4 275.52 420.8 373.12 404 373.12 376"/><path class="f" d="M396.32,396l18.4,32-14.36,6a10.56,10.56,0,0,0-5.23,14h0a10.56,10.56,0,0,0,14,5.21l8-3.64"/><path class="f" d="M406.5,454a9.88,9.88,0,0,0,2.6-.8l8-3.64"/><polyline class="f" points="390.72 376.8 408.32 372.8 417.12 351.2 429.92 356.8 423.52 372.8 417.12 405.6"/><path class="i" d="M256.32,510.4a4,4,0,0,1-4-4c0-11.87,4.54-17.73,8.55-22.9,3.57-4.6,6.65-8.57,6.65-17.1a4,4,0,0,1,8,0c0,11.27-4.42,17-8.33,22-3.69,4.75-6.87,8.86-6.87,18A4,4,0,0,1,256.32,510.4Z"/><path class="f" d="M602.84,404.8a84,84,0,0,1-168,0Z"/><path class="a" d="M571.32,372a10.8,10.8,0,1,1-10.8-10.8A10.81,10.81,0,0,1,571.32,372Zm3.2,11.6a4.4,4.4,0,1,0,4.4,4.4A4.4,4.4,0,0,0,574.52,383.6Z"/><rect class="l" x="348.42" y="541.6" width="10.4" height="68"/><rect class="l" x="680.42" y="538.4" width="10.4" height="68"/><rect class="l" x="457.22" y="523.2" width="10.4" height="103.2"/><rect class="l" x="571.62" y="525.6" width="10.4" height="103.2"/></svg>