<svg xmlns="http://www.w3.org/2000/svg" xmlns:xlink="http://www.w3.org/1999/xlink" viewBox="0 0 156.98 128"><defs><style>.cls-1,.cls-28,.cls-40,.cls-41{fill:none;}.cls-2{isolation:isolate;}.cls-3{fill:url(#linear-gradient);}.cls-4{fill:url(#linear-gradient-2);}.cls-5{fill:#006;}.cls-6{fill:#25e899;}.cls-7{fill:url(#linear-gradient-3);}.cls-8{fill:url(#linear-gradient-4);}.cls-9{fill:url(#linear-gradient-5);}.cls-10{fill:url(#linear-gradient-6);}.cls-11{fill:url(#linear-gradient-7);}.cls-12{fill:url(#linear-gradient-8);}.cls-13{fill:url(#linear-gradient-9);}.cls-14{fill:url(#linear-gradient-10);}.cls-15{fill:#113556;}.cls-16{opacity:0.27;}.cls-17{fill:#ececec;}.cls-18{fill:#cf9;}.cls-19{fill:#8ce5eb;}.cls-20{clip-path:url(#clip-path);}.cls-21{fill:#fc9;}.cls-22{fill:#a9b583;opacity:0.34;mix-blend-mode:multiply;}.cls-23{fill:#774ba4;}.cls-24,.cls-25,.cls-26,.cls-35{fill:#fff;}.cls-24{opacity:0.72;}.cls-25{opacity:0.94;}.cls-26{opacity:0.39;}.cls-27{fill:#087438;}.cls-28,.cls-40,.cls-41{stroke:#000;stroke-miterlimit:10;}.cls-28,.cls-40{stroke-width:0.5px;}.cls-29{fill:#6bae32;}.cls-30{opacity:0.91;}.cls-31{fill:#ff9e74;}.cls-32{fill:#ffa473;}.cls-33{fill:#644723;}.cls-34{fill:#c14049;}.cls-36{fill:#ff0;}.cls-37{fill:#311b10;}.cls-38{fill:#fff2e7;}.cls-39{fill:#e06a63;}.cls-40{stroke-linecap:round;}.cls-41{stroke-width:5px;}.cls-42{fill:#66f;}.cls-43{fill:#f06;}.cls-44{clip-path:url(#clip-path-2);}.cls-45{fill:#f39;}.cls-46{fill:#e6ed79;}.cls-47{fill:#e8ad96;}</style><linearGradient id="linear-gradient" y1="64" x2="110.85" y2="64" gradientUnits="userSpaceOnUse"><stop offset="0.04" stop-color="#3f6"/><stop offset="0.96" stop-color="#66f"/></linearGradient><linearGradient id="linear-gradient-2" x1="9.41" y1="64" x2="101.43" y2="64" gradientUnits="userSpaceOnUse"><stop offset="0" stop-color="#ff38e3"/><stop offset="0.25" stop-color="#339"/><stop offset="0.72" stop-color="#093"/><stop offset="1" stop-color="#ff9000"/></linearGradient><linearGradient id="linear-gradient-3" x1="98.67" y1="78.82" x2="99.1" y2="78.82" gradientTransform="matrix(1, 0, 0, -1, 0, 128)" gradientUnits="userSpaceOnUse"><stop offset="0" stop-color="#42e8e0"/><stop offset="0.04" stop-color="#3eced1" stop-opacity="0.88"/><stop offset="0.11" stop-color="#38a2b9" stop-opacity="0.67"/><stop offset="0.19" stop-color="#337ba4" stop-opacity="0.49"/><stop offset="0.27" stop-color="#2e5b92" stop-opacity="0.34"/><stop offset="0.36" stop-color="#2a4083" stop-opacity="0.22"/><stop offset="0.45" stop-color="#282c78" stop-opacity="0.12"/><stop offset="0.55" stop-color="#261d70" stop-opacity="0.05"/><stop offset="0.66" stop-color="#24156b" stop-opacity="0.01"/><stop offset="0.82" stop-color="#24126a" stop-opacity="0"/></linearGradient><linearGradient id="linear-gradient-4" x1="95.58" y1="74.94" x2="96.01" y2="74.94" gradientTransform="matrix(1, 0, 0, -1, 0, 128)" gradientUnits="userSpaceOnUse"><stop offset="0" stop-color="#ffc236"/><stop offset="0.99" stop-color="#f20750" stop-opacity="0"/></linearGradient><linearGradient id="linear-gradient-5" x1="93.98" y1="73.32" x2="94.41" y2="73.32" gradientTransform="matrix(1, 0, 0, -1, 0, 128)" gradientUnits="userSpaceOnUse"><stop offset="0" stop-color="#e84089"/><stop offset="1" stop-color="#ffc000" stop-opacity="0"/></linearGradient><linearGradient id="linear-gradient-6" x1="96.82" y1="67.62" x2="97.25" y2="67.62" xlink:href="#linear-gradient-4"/><linearGradient id="linear-gradient-7" x1="92.95" y1="64.36" x2="93.38" y2="64.36" gradientTransform="matrix(1, 0, 0, -1, 0, 128)" gradientUnits="userSpaceOnUse"><stop offset="0" stop-color="#00addc"/><stop offset="1" stop-color="#cbdb2a" stop-opacity="0"/></linearGradient><linearGradient id="linear-gradient-8" x1="89.43" y1="66.31" x2="90.16" y2="66.31" xlink:href="#linear-gradient-3"/><linearGradient id="linear-gradient-9" x1="85.65" y1="70.03" x2="86.72" y2="70.04" xlink:href="#linear-gradient-3"/><linearGradient id="linear-gradient-10" x1="85.02" y1="72.07" x2="85.45" y2="72.07" xlink:href="#linear-gradient-4"/><clipPath id="clip-path" transform="translate(0 0)"><path class="cls-1" d="M79,92.56A30.39,30.39,0,0,0,95.48,86c1.62-1.29,3.29-3.05,3.63-5.16.39-2.38-.55-4.76-1-7.07a36.62,36.62,0,0,1-.25-5c-.16-2.89-.85-6.49-3.07-8.56-2.47.8-6.12.42-8.73-.17a52.77,52.77,0,0,1-10.21-3.67,22.07,22.07,0,0,0-6.63-2.29,18.4,18.4,0,0,0-6.32.72c-6.18,1.51-12.21,3.61-18.48,4.7A58.73,58.73,0,0,1,27.84,60l-.45-.05c-2.37-.3-4.7-.81-7.07-.93-1.69-.08-4.23-1-5.44.71a6.29,6.29,0,0,0-.66,4.48c.5,2.92,2.3,5.62,2.14,8.65-.17,3.24-3.64,5-4.54,7.94-1,3.42,1.22,7.11,4.23,8.74C23.8,93.7,33.13,93.21,42,93.07c9.55-.16,19.1.21,28.65-.07C73.17,92.92,76.09,92.86,79,92.56Z"/></clipPath><clipPath id="clip-path-2" transform="translate(0 0)"><path class="cls-1" d="M84.27,81.62c-2,.95-4,1.08-6.17,1.56-1.49.33-2.07,1.3-.59,2.56a7.8,7.8,0,0,0,4.6,1.21,9.86,9.86,0,0,0,1.82-.15,37.44,37.44,0,0,0-.28,3.78c.05.8.67,1.71,1.45,1.52a.47.47,0,0,0,.19-.08.45.45,0,0,0-.07-.67,1.3,1.3,0,0,0-.73-.21,6.06,6.06,0,0,1,1.28-3c.49-.6,1.09-1.11,1.55-1.74,1.11-1.51,1.25-3.5,1.32-5.37a3.7,3.7,0,0,0-.22-1.73c-.4-.79-.56-.7-1.05-.18A9.51,9.51,0,0,1,84.27,81.62Z"/></clipPath></defs><title>GARDENS4PUBLIC</title><g class="cls-2"><g id="Layer_1" data-name="Layer 1"><g id="Layer_63" data-name="Layer 63"><polygon class="cls-3" points="110.85 32 110.85 96 55.43 128 11.08 102.4 10.88 102.28 0 96 0 32 55.43 0 110.85 32"/></g><g id="Layer_63-3" data-name="Layer 63-3"><path class="cls-4" d="M55.42,10.86l-46,26.57V90.56l46,26.57,46-26.57V37.43ZM99.72,89.5,55.54,115,11.36,89.5v-51L55.54,13,99.72,38.49Z" transform="translate(0 0)"/></g><path class="cls-5" d="M70.51,114.35l1.57-.9.07.12a3,3,0,0,1,.34.81,1.89,1.89,0,0,1,0,.76,2,2,0,0,1-1,1.37,2.13,2.13,0,0,1-1.69.21,2.28,2.28,0,0,1-.52-4.17,2.23,2.23,0,0,1,.93-.3,2.75,2.75,0,0,1,1.06.17l-.18.63a1.59,1.59,0,0,0-1.49,0,1.56,1.56,0,0,0-.77,1,1.6,1.6,0,0,0,.18,1.25,1.54,1.54,0,0,0,1.05.78,1.57,1.57,0,0,0,1.14-.15,1.32,1.32,0,0,0,.59-.72,1.18,1.18,0,0,0,0-.9l-.95.54Z" transform="translate(0 0)"/><rect class="cls-5" x="74.11" y="110.02" width="0.66" height="4.37" transform="translate(-46.07 52.14) rotate(-29.95)"/><polygon class="cls-5" points="77.21 108.81 79.08 112.06 78.51 112.39 76.64 109.14 75.77 109.64 75.46 109.1 77.77 107.77 78.08 108.31 77.21 108.81"/><path class="cls-5" d="M82.36,105.39l.39.68a1.83,1.83,0,0,0-1.26.17,1.51,1.51,0,0,0-.74,1,1.63,1.63,0,0,0,.19,1.25,1.59,1.59,0,0,0,1,.78,1.54,1.54,0,0,0,1.22-.16,1.41,1.41,0,0,0,.46-.39,1.67,1.67,0,0,0,.17-.27,3.41,3.41,0,0,0,.15-.36l.4.69a2.38,2.38,0,0,1-.87.87,2.2,2.2,0,0,1-1.71.23,2.17,2.17,0,0,1-1.37-1.05,2.25,2.25,0,0,1-.26-1.57,2.19,2.19,0,0,1,1.12-1.57,2.23,2.23,0,0,1,1.15-.29" transform="translate(0 0)"/><path class="cls-6" d="M85.13,105.22a2.14,2.14,0,0,1-.2-1.71A2.24,2.24,0,0,1,86,102.12a2.29,2.29,0,0,1,3.1.84,2.15,2.15,0,0,1,.21,1.72,2.31,2.31,0,0,1-2.7,1.64,2.14,2.14,0,0,1-1.49-1.1m.58-.33a1.62,1.62,0,0,0,3-.35,1.7,1.7,0,0,0-1.16-2,1.54,1.54,0,0,0-1.23.16,1.56,1.56,0,0,0-.76,1,1.58,1.58,0,0,0,.17,1.24" transform="translate(0 0)"/><rect class="cls-5" x="91.09" y="100.24" width="0.66" height="4.37" transform="translate(-38.94 59.36) rotate(-29.97)"/><polygon class="cls-5" points="95.02 102.88 92.69 98.84 97.12 100.14 95.6 97.5 96.17 97.18 98.49 101.2 94.06 99.9 95.59 102.56 95.02 102.88"/><circle class="cls-7" cx="98.89" cy="49.19" r="0.22"/><circle class="cls-8" cx="95.8" cy="53.07" r="0.22"/><circle class="cls-9" cx="94.2" cy="54.69" r="0.22"/><circle class="cls-10" cx="97.04" cy="60.39" r="0.22"/><circle class="cls-11" cx="93.17" cy="63.65" r="0.22"/><circle class="cls-12" cx="89.65" cy="61.69" r="0.22"/><circle class="cls-13" cx="85.74" cy="57.97" r="0.22"/><circle class="cls-14" cx="85.24" cy="55.94" r="0.22"/><path class="cls-15" d="M77.05,78.6a.09.09,0,0,1,0-.13h0a.1.1,0,0,1,.14,0h0a.11.11,0,0,1,0,.14h0a.11.11,0,0,1-.08,0h0A.07.07,0,0,1,77.05,78.6Zm.52-.84a.11.11,0,0,1-.06-.09h0s0,0,0,0h0a.11.11,0,0,1,.13-.06h0a.11.11,0,0,1,.06.1h0a.08.08,0,0,1,0,0h0a.1.1,0,0,1-.09.06h0Zm.34-.94a.1.1,0,0,1-.07-.09h0a0,0,0,0,1,0,0h0a.1.1,0,0,1,.12-.07h0a.1.1,0,0,1,.07.09h0v0h0a.1.1,0,0,1-.1.07h0Zm.24-1a.1.1,0,0,1-.08-.1h0v0h0a.1.1,0,0,1,.11-.08h0a.11.11,0,0,1,.09.1h0v0h0a.09.09,0,0,1-.1.08h0Zm.15-1a.1.1,0,0,1-.09-.1h0a.11.11,0,0,1,.11-.09h0a.1.1,0,0,1,.09.1h0a.1.1,0,0,1-.1.09h0Zm.09-1a.12.12,0,0,1-.09-.11h0a.09.09,0,0,1,.08-.09h0a.1.1,0,0,1,.1.1h0a.11.11,0,0,1-.1.1h0Zm0-1a.11.11,0,0,1-.1-.1h0a.1.1,0,0,1,.1-.1h0a.09.09,0,0,1,.1.1h0A.1.1,0,0,1,78.43,72.87Zm-.11-1.1a.1.1,0,0,1,.1-.1h0c.06,0,.1,0,.1.1h0a.1.1,0,0,1-.1.1h0s-.09-.05-.1-.1Zm0-1h0a.09.09,0,0,1,.09-.09h0a.1.1,0,0,1,.11.08h0a.11.11,0,0,1-.09.11h0a.1.1,0,0,1-.1-.1Zm-.1-.88a.09.09,0,0,1,0-.08h0a.13.13,0,0,1,0-.06h0a.09.09,0,0,1,.12,0h0a.08.08,0,0,1,0,.07h0a.14.14,0,0,1,0,.07h0a.12.12,0,0,1-.08,0h0l-.06,0Zm-.8-.61a.12.12,0,0,1,0-.08h0a.15.15,0,0,1,0-.06h0a.12.12,0,0,1,.15,0h0a.11.11,0,0,1,0,.08h0a.07.07,0,0,1,0,.06h0a.07.07,0,0,1-.07,0h0l-.07,0Zm-.79-.61a.07.07,0,0,1,0-.07h0a.1.1,0,0,1,0-.07h0a.1.1,0,0,1,.14,0h0a.09.09,0,0,1,0,.07h0a.18.18,0,0,1,0,.07h0a.11.11,0,0,1-.08,0h0l-.06,0ZM76.12,68a.1.1,0,0,1-.09-.1h0a.11.11,0,0,1,.11-.1h0a.11.11,0,0,1,.09.11h0a.1.1,0,0,1-.1.09h0Zm.07-1a.12.12,0,0,1-.09-.11h0a.1.1,0,0,1,.1-.1h0a.11.11,0,0,1,.1.1h0a.11.11,0,0,1-.1.1h0Zm.07-1a.11.11,0,0,1-.1-.1h0a.1.1,0,0,1,.11-.09h0a.09.09,0,0,1,.09.1h0a.09.09,0,0,1-.09.1h0Zm.06-1a.1.1,0,0,1-.09-.1h0a.1.1,0,0,1,.1-.09h0a.1.1,0,0,1,.1.1h0a.1.1,0,0,1-.1.09h0Z" transform="translate(0 0)"/><path class="cls-15" d="M78.27,78.61a.1.1,0,0,1,0-.13h0a.09.09,0,0,1,.13,0h0a.1.1,0,0,1,0,.14h0a.09.09,0,0,1-.08,0h0Zm.42-.9c-.05,0-.08-.06-.07-.1h0v0h0a.1.1,0,0,1,.13-.06h0a.1.1,0,0,1,.07.09h0s0,0,0,0h0a.09.09,0,0,1-.09.07h0Zm.26-1a.1.1,0,0,1-.08-.09h0v0h0a.1.1,0,0,1,.12-.08h0a.1.1,0,0,1,.08.1h0v0h0a.1.1,0,0,1-.1.08h0s0,0,0,0Zm.18-1a.09.09,0,0,1-.08-.09h0v0h0a.09.09,0,0,1,.09-.08h0a.1.1,0,0,1,.09.1h0a.09.09,0,0,1-.09.08h0Zm.13-1a.1.1,0,0,1-.09-.1h0a.09.09,0,0,1,.09-.09h0a.11.11,0,0,1,.09.1h0a.11.11,0,0,1-.1.09h0Zm.08-1a.09.09,0,0,1-.09-.09h0a.1.1,0,0,1,.1-.1h0a.12.12,0,0,1,.1.11h0a.11.11,0,0,1-.1.09h0Zm-.05-1.1a.09.09,0,0,1,.1-.09h0a.09.09,0,0,1,.09.1h0a.11.11,0,0,1-.1.1h0a.12.12,0,0,1-.1-.11Zm0-1a.1.1,0,0,1,.1-.1h0a.09.09,0,0,1,.1.1h0a.1.1,0,0,1-.1.1h0a.1.1,0,0,1-.1-.1Zm0-1h0a.1.1,0,0,1,.1-.1h0a.09.09,0,0,1,.1.09h0a.11.11,0,0,1-.1.11h0a.11.11,0,0,1-.1-.1Zm0-1a.09.09,0,0,1,.07-.1h0a.1.1,0,0,1,.11.09h0a.11.11,0,0,1-.1.11h0a.1.1,0,0,1-.1-.1h0Zm.57-.76a.1.1,0,0,1,0-.09h0a.09.09,0,0,1,0-.05h0a.1.1,0,0,1,.14,0h0a.09.09,0,0,1,.05.08h0a.08.08,0,0,1,0,.05h0a.1.1,0,0,1-.08.05h-.06Z" transform="translate(0 0)"/><g class="cls-16"><polygon class="cls-15" points="58.63 82.86 59.39 84.3 59.9 85.49 59.67 86.62 58.63 82.86"/></g><path class="cls-15" d="M24.19,86.24a.09.09,0,0,1,0-.13v0h0a.11.11,0,0,1,.14,0h0a.11.11,0,0,1,0,.14h0a.09.09,0,0,1-.08,0h0Zm.33-.37a.09.09,0,0,1,0-.08h0a.07.07,0,0,1,0-.06h0a.1.1,0,0,1,.14,0h0a.11.11,0,0,1,0,.08h0a.14.14,0,0,1,0,.06h0a.11.11,0,0,1-.08,0h0Zm.33-.38s0-.05,0-.07h0a.09.09,0,0,1,0-.07h0a.1.1,0,0,1,.14,0h0a.1.1,0,0,1,0,.07h0s0,.05,0,.07h0l-.07,0h0A.09.09,0,0,1,24.85,85.49ZM25,85s0,0,0,0h0a.12.12,0,0,1,.07-.09h0a.09.09,0,0,1,.12.06h0s0,0,0,0h0a.1.1,0,0,1-.06.09h0A.09.09,0,0,1,25,85Zm-.19-.46s0,0,0,0h0a.13.13,0,0,1,.07-.09h0a.1.1,0,0,1,.13.05h0v0h0a.11.11,0,0,1-.06.1h0A.1.1,0,0,1,24.79,84.59Zm-.19-.46v0h0a.09.09,0,0,1,.06-.09h0a.1.1,0,0,1,.13.05h0s0,0,0,0h0a.1.1,0,0,1-.07.09h0A.13.13,0,0,1,24.6,84.13Zm-.18-.47s0,0,0,0h0a.1.1,0,0,1,.06-.09h0a.1.1,0,0,1,.13.06h0s0,0,0,0h0a.1.1,0,0,1-.06.09h0A.09.09,0,0,1,24.42,83.66Z" transform="translate(0 0)"/><path class="cls-17" d="M58.63,32a.23.23,0,1,0-.22-.22A.23.23,0,0,0,58.63,32Z" transform="translate(0 0)"/><path class="cls-17" d="M59.25,25.7a.08.08,0,1,0-.07-.07A.07.07,0,0,0,59.25,25.7Z" transform="translate(0 0)"/><path class="cls-17" d="M78.38,29.74a.12.12,0,1,0-.11-.11A.12.12,0,0,0,78.38,29.74Z" transform="translate(0 0)"/><path class="cls-17" d="M73.38,36.51a.14.14,0,1,0-.13-.13A.14.14,0,0,0,73.38,36.51Z" transform="translate(0 0)"/><path class="cls-17" d="M58.13,37.28a0,0,0,0,0,0-.06,0,0,0,0,0,0,.06A0,0,0,0,0,58.13,37.28Z" transform="translate(0 0)"/><path class="cls-17" d="M62,29.7a.08.08,0,1,0-.07-.07A.07.07,0,0,0,62,29.7Z" transform="translate(0 0)"/><path class="cls-17" d="M51.5,37.76h0Z" transform="translate(0 0)"/><path class="cls-17" d="M59.58,41.83l-.06.07a.15.15,0,0,0,0,.21l.06.07a.24.24,0,1,0,0-.34Z" transform="translate(0 0)"/><path class="cls-17" d="M51.53,42.78l.06-.06a.13.13,0,0,0,0-.18l-.06-.06C51.09,42,51.09,43.22,51.53,42.78Z" transform="translate(0 0)"/><path class="cls-17" d="M47.18,41.25l.08-1.33a.08.08,0,0,0-.17,0l-.29,1.3a.19.19,0,0,0,.36.09v0Z" transform="translate(0 0)"/><path class="cls-17" d="M40.5,44.63a.13.13,0,1,0-.13-.13A.13.13,0,0,0,40.5,44.63Z" transform="translate(0 0)"/><path class="cls-17" d="M38.88,49a.22.22,0,1,0-.22-.22A.22.22,0,0,0,38.88,49Z" transform="translate(0 0)"/><path class="cls-17" d="M29.63,48h0Z" transform="translate(0 0)"/><path class="cls-17" d="M29.63,48.6a.6.6,0,1,0-.57-.57A.6.6,0,0,0,29.63,48.6Z" transform="translate(0 0)"/><path class="cls-17" d="M29.5,43.28a.16.16,0,1,0-.15-.15A.16.16,0,0,0,29.5,43.28Z" transform="translate(0 0)"/><path class="cls-17" d="M34.5,38.89a0,0,0,0,0,0,0,0,0,0,0,0,0,0,0,0,0,0,0,0,0A0,0,0,0,0,34.5,38.86Z" transform="translate(0 0)"/><path class="cls-17" d="M40.35,40.6l-.06.06a.12.12,0,0,0,0,.17l.06.06C40.77,41.33,40.77,40.17,40.35,40.6Z" transform="translate(0 0)"/><path class="cls-17" d="M40,33.76a.26.26,0,1,0-.25-.25A.26.26,0,0,0,40,33.76Z" transform="translate(0 0)"/><path class="cls-17" d="M48.63,30.24a.24.24,0,1,0-.23-.23A.24.24,0,0,0,48.63,30.24Z" transform="translate(0 0)"/><path class="cls-17" d="M54.13,35.63a.26.26,0,1,0-.25-.25A.26.26,0,0,0,54.13,35.63Z" transform="translate(0 0)"/><path class="cls-17" d="M58.05,37.43l.06-.09a.42.42,0,1,0-.73,0l.06.09a.36.36,0,0,0,.61,0Z" transform="translate(0 0)"/><path class="cls-17" d="M67.38,40a.17.17,0,1,0-.17-.17A.17.17,0,0,0,67.38,40Z" transform="translate(0 0)"/><path class="cls-17" d="M72.39,46.92a.94.94,0,0,1-.19-.67c0-.12-.18-.14-.21,0a1.11,1.11,0,0,0,.1.87c.11.2.43,0,.3-.18Z" transform="translate(0 0)"/><path class="cls-17" d="M77.63,44.68a.31.31,0,1,0-.29-.29A.31.31,0,0,0,77.63,44.68Z" transform="translate(0 0)"/><path class="cls-17" d="M71.63,49.89a.14.14,0,1,0-.14-.14A.14.14,0,0,0,71.63,49.89Z" transform="translate(0 0)"/><path class="cls-17" d="M78.65,39.22a.14.14,0,1,0-.14-.14A.14.14,0,0,0,78.65,39.22Z" transform="translate(0 0)"/><path class="cls-17" d="M84.25,40.85a.23.23,0,1,0-.22-.22A.23.23,0,0,0,84.25,40.85Z" transform="translate(0 0)"/><path class="cls-17" d="M73.88,31.25h0Z" transform="translate(0 0)"/><path class="cls-17" d="M60.65,22.46l0-.12a.12.12,0,0,0-.23,0l0,.12C60.27,22.71,60.73,22.71,60.65,22.46Z" transform="translate(0 0)"/><path class="cls-17" d="M34.38,36.65a0,0,0,0,0,0-.06,0,0,0,0,0,0,.06A0,0,0,0,0,34.38,36.65Z" transform="translate(0 0)"/><path class="cls-17" d="M32.11,42.29l-.07.16a.1.1,0,0,0,.13.13l.16-.07c.26-.11-.11-.48-.22-.22Z" transform="translate(0 0)"/><path class="cls-17" d="M22.63,51.48a.23.23,0,1,0-.22-.22A.23.23,0,0,0,22.63,51.48Z" transform="translate(0 0)"/><path class="cls-17" d="M22.75,55.59a.22.22,0,1,0-.21-.21A.22.22,0,0,0,22.75,55.59Z" transform="translate(0 0)"/><path class="cls-17" d="M17.54,57.35l-.09.06a.11.11,0,0,0,0,.16l0,0,.09.06C17.87,57.86,17.87,57.14,17.54,57.35Z" transform="translate(0 0)"/><path class="cls-17" d="M19.13,46.47a.22.22,0,1,0-.21-.21A.22.22,0,0,0,19.13,46.47Z" transform="translate(0 0)"/><path class="cls-17" d="M15.88,42.76h0Z" transform="translate(0 0)"/><path class="cls-17" d="M24.63,38.37a.25.25,0,1,0-.24-.24A.25.25,0,0,0,24.63,38.37Z" transform="translate(0 0)"/><path class="cls-17" d="M33.88,29.85a.23.23,0,1,0-.22-.22A.23.23,0,0,0,33.88,29.85Z" transform="translate(0 0)"/><path class="cls-17" d="M33.76,36.68l-.09.06a.16.16,0,0,0-.05.22l.05.05.09.06C34.18,37.33,34.18,36.42,33.76,36.68Z" transform="translate(0 0)"/><path class="cls-17" d="M85.88,61.45a.08.08,0,1,0-.07-.08A.07.07,0,0,0,85.88,61.45Z" transform="translate(0 0)"/><path class="cls-17" d="M89.39,46.23a.23.23,0,1,0-.23-.23A.23.23,0,0,0,89.39,46.23Z" transform="translate(0 0)"/><path class="cls-17" d="M84.25,62a0,0,0,0,0,0-.08,0,0,0,0,0,0,.08A0,0,0,0,0,84.25,62Z" transform="translate(0 0)"/><path class="cls-17" d="M66.25,50.08a.33.33,0,1,0-.32-.32A.33.33,0,0,0,66.25,50.08Z" transform="translate(0 0)"/><path class="cls-17" d="M60.05,45.43l.07-.06a.17.17,0,0,0,0-.24l-.07-.06c-.52-.47-.52.83,0,.36Z" transform="translate(0 0)"/><path class="cls-17" d="M45.88,45.8a.18.18,0,1,0-.17-.17A.18.18,0,0,0,45.88,45.8Z" transform="translate(0 0)"/><path class="cls-17" d="M41.88,50.22a.23.23,0,1,0-.22-.22A.23.23,0,0,0,41.88,50.22Z" transform="translate(0 0)"/><path class="cls-17" d="M31.38,53.68a.18.18,0,1,0-.17-.17A.18.18,0,0,0,31.38,53.68Z" transform="translate(0 0)"/><path class="cls-17" d="M18.13,70a.17.17,0,1,0-.17-.17A.17.17,0,0,0,18.13,70Z" transform="translate(0 0)"/><path class="cls-17" d="M13.88,69.07a.19.19,0,1,0-.19-.19A.19.19,0,0,0,13.88,69.07Z" transform="translate(0 0)"/><path class="cls-17" d="M17.38,63.15a.15.15,0,1,0-.15-.15A.15.15,0,0,0,17.38,63.15Z" transform="translate(0 0)"/><path class="cls-17" d="M15.63,58.51a.14.14,0,1,0-.13-.13A.14.14,0,0,0,15.63,58.51Z" transform="translate(0 0)"/><path class="cls-17" d="M15.9,49.36l.11,0a.07.07,0,0,0,0-.14l-.11,0C15.72,49.08,15.72,49.42,15.9,49.36Z" transform="translate(0 0)"/><path class="cls-17" d="M19,50.42a.17.17,0,1,0-.16-.16A.17.17,0,0,0,19,50.42Z" transform="translate(0 0)"/><path class="cls-17" d="M20.88,43.71a.09.09,0,1,0-.08-.08A.09.09,0,0,0,20.88,43.71Z" transform="translate(0 0)"/><path class="cls-17" d="M18.13,40.13h0Z" transform="translate(0 0)"/><path class="cls-17" d="M67.13,32.1a.35.35,0,1,0-.34-.34A.35.35,0,0,0,67.13,32.1Z" transform="translate(0 0)"/><path class="cls-17" d="M71.63,26.93a.18.18,0,1,0-.17-.17A.18.18,0,0,0,71.63,26.93Z" transform="translate(0 0)"/><path class="cls-17" d="M64.88,24.35a.22.22,0,0,0,0-.44h0a.22.22,0,0,0,0,.44Z" transform="translate(0 0)"/><path class="cls-17" d="M52.13,23.89a.27.27,0,1,0-.26-.26A.27.27,0,0,0,52.13,23.89Z" transform="translate(0 0)"/><path class="cls-17" d="M57.88,26.77a.39.39,0,1,0-.38-.38A.39.39,0,0,0,57.88,26.77Z" transform="translate(0 0)"/><path class="cls-17" d="M71.5,29.65a.4.4,0,1,0-.39-.39A.4.4,0,0,0,71.5,29.65Z" transform="translate(0 0)"/><path class="cls-17" d="M87.63,37a.37.37,0,1,0-.35-.35A.37.37,0,0,0,87.63,37Z" transform="translate(0 0)"/><path class="cls-17" d="M93,39.12a.37.37,0,1,0-.35-.35A.37.37,0,0,0,93,39.12Z" transform="translate(0 0)"/><path class="cls-17" d="M98.63,56.57a.07.07,0,1,0-.07-.07A.07.07,0,0,0,98.63,56.57Z" transform="translate(0 0)"/><path class="cls-17" d="M28.94,55l0-.12a.05.05,0,0,0-.1,0l0,.12a.07.07,0,1,0,.14,0Z" transform="translate(0 0)"/><polygon class="cls-18" points="11.25 58.75 11.25 89.5 55.55 115 99.72 89.5 99.67 65.67 96.38 61.25 91.38 59.88 64.13 63.5 50.63 68.88 22.88 64.63 11.25 58.75"/><polygon class="cls-19" points="55.55 12.98 11.37 38.49 11.37 62.5 23.09 54.71 37.34 55.09 56.09 53.67 75 49.34 85.17 53.17 93.34 60.84 97.17 64.84 99.67 65.67 99.67 38.49 55.55 12.98"/><path class="cls-19" d="M95.6,68a37.91,37.91,0,0,1-2.8-9.27c-.52-3.07-.18-6-.29-9-.19-5.37-5.24-10.61-9.56-13.23-7.1-4.31-15.56-5.12-23.58-3.59-4.79.91-9.45,2.5-14.28,3.15-3.65.5-7.35.46-11,.85a22.18,22.18,0,0,0-10.39,3.36c-3.35,2.33-4.71,5.51-4.94,9.41s-1.23,8.07.93,11.57c.75,1.21,1.82,2.19,2.51,3.43,2.06,3.71.1,8.59,1.88,12.44,1.37,3,4.6,4.58,7.75,5.51,4.57,1.34,9.37,1.66,14.13,2A170.82,170.82,0,0,0,67.09,85c3.31-.21,6.48-1,9.81-1.13,2-.08,3.93-.07,5.89-.18a33.49,33.49,0,0,1,4.54.37c7.07.46,10.22-6.07,10.48-12.59A17.19,17.19,0,0,1,95.6,68Z" transform="translate(0 0)"/><path class="cls-18" d="M97.92,71.62A17.78,17.78,0,0,1,95.6,68a33.18,33.18,0,0,1-1.54-4.71c-.44-1.55-.45-2.76-2.17-3a52.56,52.56,0,0,1-7.14-1.51c-2.69-.8-5-2.54-7.61-3.49a20.06,20.06,0,0,0-10.58-.37c-3.51.67-6.91,1.83-10.4,2.56-4.77,1-15.21,2.8-20.87,2.84A62.75,62.75,0,0,1,27.84,60l-.45-.05c-2.37-.3-4.7-.81-7.07-.93-1.69-.08-4.23-1-5.44.71a6.29,6.29,0,0,0-.66,4.48c.5,2.92,2.3,5.62,2.14,8.65-.17,3.24-3.64,5-4.54,7.94-1,3.42,1.22,7.11,4.23,8.74C23.8,93.7,33.13,93.21,42,93.07c9.55-.16,19.1.21,28.65-.07,2.57-.07,5.49-.14,8.43-.44A30.39,30.39,0,0,0,95.48,86c1.62-1.29,3.29-3.05,3.63-5.16.39-2.38-.55-4.76-1-7.07A13.07,13.07,0,0,1,97.92,71.62Z" transform="translate(0 0)"/><g class="cls-20"><path class="cls-21" d="M11.92,86.35a26.17,26.17,0,0,0,7.67-1.48c8.81-2.57,18.52-5.3,27.65-6,8.59-.69,17,.24,24.44-5.13a32.72,32.72,0,0,1,4.63-3.26,31.55,31.55,0,0,1,5.9-1.65A17.57,17.57,0,0,0,87.36,66a10.64,10.64,0,0,0,2.29-1.82,3.54,3.54,0,0,0,1-2.67c-1.75-.71-3.76-.12-5.48.66-3.28,1.48-6.53,1.66-9.83,3s-6.62,3.31-10.17,4.4c-5.29,1.62-10.9,1.9-16.44,2-13.34.31-27.16-.14-39.44,5a7.48,7.48,0,0,0-2.92,1.86C3.9,81.32,7.9,86,11,86.3Q11.46,86.34,11.92,86.35Z" transform="translate(0 0)"/><path class="cls-21" d="M82.11,97.25a31.77,31.77,0,0,0,7.67-1.52c8.81-2.57,18.52-5.3,27.65-6,8.59-.69,17,.24,24.44-5.13a32.72,32.72,0,0,1,4.63-3.26c2.76-1.34,6.08-1.26,8.78-2.71,1.1-.59,2.16-1.93,1.46-3a2.46,2.46,0,0,0-1.6-.84c-7.5-1.6-13,3.53-19.84,5.61-5.29,1.62-10.9,1.9-16.44,2-10.1.23-20.93-.64-30.52,3C84.21,87,80.22,88.92,76,90.13s-8.8,1.73-12.23,4.41a1.45,1.45,0,0,0-.7,1.08c0,.67.85,1,1.52,1.08a43.36,43.36,0,0,0,5.88.37l10.46.19Q81.51,97.28,82.11,97.25Z" transform="translate(0 0)"/><path class="cls-21" d="M70.37,67.55c.88-.42,1.7-1,2.62-1.29a19.52,19.52,0,0,0-4.64-2.15c-5.07-1.62-10.82-1.51-16.26-1.5q-8.93,0-17.85-.63-4.46-.32-8.9-.8c-.85-.09-7.25-1.39-6.25.33a1.93,1.93,0,0,0,1.28.72,85.32,85.32,0,0,0,12.34,2.47c7.74.77,15.62.86,23.41,1.23a36.35,36.35,0,0,1,9.08,1.2c.7.22,2.12.82,3.57,1.23C69.3,68.07,69.83,67.81,70.37,67.55Z" transform="translate(0 0)"/><path class="cls-22" d="M95.58,77.63l.22,0a4.67,4.67,0,0,0,1.84-.22,4.39,4.39,0,0,0,1.81-.84c.6-.53.39-1.12-.31-1.33a4.31,4.31,0,0,0-3.57.91,1.47,1.47,0,0,0-.43.49.67.67,0,0,0,0,.63A.74.74,0,0,0,95.58,77.63Z" transform="translate(0 0)"/><path class="cls-22" d="M27.29,59.59l-3.24.11c-.37,0-1.6-.15-1.77.25s.6.67.91.71l4.09.46c.55.06,4,.28,3.18-1a1.16,1.16,0,0,0-.6-.44,4,4,0,0,0-1.52-.14Z" transform="translate(0 0)"/></g><path d="M28.59,59.61a1.06,1.06,0,0,1,.47.2.08.08,0,0,1,0,.05c0,.05-.07.07-.12.06L28,59.85l-.58,0c-.29,0-.73-.38-.25-.5A3.8,3.8,0,0,1,28.59,59.61Z" transform="translate(0 0)"/><path d="M22.2,59.05a4.5,4.5,0,0,0-.87.57.34.34,0,0,0-.12.16.36.36,0,0,0,0,.17l.08.33a.2.2,0,0,0,.24-.08c0-.08,0-.18.09-.25a.34.34,0,0,1,.17-.09,6,6,0,0,0,1.37-.68.8.8,0,0,0,.24-.22c.18-.28-.09-.47-.34-.4A4.53,4.53,0,0,0,22.2,59.05Z" transform="translate(0 0)"/><path class="cls-23" d="M23.44,59.57a1.9,1.9,0,0,0-.87,1,.36.36,0,0,1,.19.07.12.12,0,0,1,0,.18l-.08,0a1.37,1.37,0,0,1-.53,0A2.91,2.91,0,0,1,23,58.18c1.07-.75,2.71.09,3.8-.63.41-.27.67-.78,1.12-1s1.09.12,1.67.2a.77.77,0,0,1,.26.06A.19.19,0,0,1,30,57a.24.24,0,0,1-.07.08c-.44.38-1.12.15-1.49.53s-.32,1.3-.75,1.8A1.83,1.83,0,0,1,26.3,60C25.36,60,24.34,59.19,23.44,59.57Z" transform="translate(0 0)"/><path class="cls-23" d="M27.87,60.7c.06,0,.11.06.12.1s-.09.1-.17.11c-.33,0-.32,0-.56-.17s-.29-.23-.43-.36a1.23,1.23,0,0,1-.41-.82c0-.66.6-.28.77.2.06.16.08.33.15.49a.74.74,0,0,0,.41.41Z" transform="translate(0 0)"/><path d="M26.77,57.21a1.18,1.18,0,0,0,.53-.1c.3-.14.59-.46.91-.55a.06.06,0,0,0,0-.12.9.9,0,0,0-.34-.14,1.54,1.54,0,0,0-.6.07,1.4,1.4,0,0,1-.51.06c-.18,0-.36-.07-.55-.07a.37.37,0,0,0-.24.07.3.3,0,0,0-.07.33.58.58,0,0,0,.23.26A1.19,1.19,0,0,0,26.77,57.21Z" transform="translate(0 0)"/><path d="M29.92,56.72a.15.15,0,0,0,0,.29A.15.15,0,0,0,29.92,56.72Z" transform="translate(0 0)"/><path class="cls-22" d="M76.22,89c-.39,0-.93-.21-.81-.58a.58.58,0,0,1,.23-.27,17.83,17.83,0,0,1,5.85-2.32,10.61,10.61,0,0,1,2.36-.07,22.92,22.92,0,0,0,4.54-.33,10.7,10.7,0,0,1,2.91-.3c.27,0,.58.12.68.37a.77.77,0,0,1-.15.63c-2.09,3.5-4.6,2.76-8.1,2.86Q80,89.11,76.22,89Z" transform="translate(0 0)"/><path class="cls-22" d="M58.82,91.28c-.39,0-.93-.21-.81-.58a.58.58,0,0,1,.23-.27c2.36-1.74,4.81-2.13,7.62-2.21a2.87,2.87,0,0,1,1.14.12,1,1,0,0,1,.66.86c0,.51-.53.85-1,1.06C64.1,91.4,61.56,91.35,58.82,91.28Z" transform="translate(0 0)"/><path class="cls-22" d="M24.09,92.9c-.39,0-.93-.21-.81-.58a.58.58,0,0,1,.23-.27c2.36-1.74,4.81-2.13,7.62-2.21a2.87,2.87,0,0,1,1.14.12,1,1,0,0,1,.66.86c0,.51-.53.85-1,1.06C29.37,93,26.83,93,24.09,92.9Z" transform="translate(0 0)"/><path class="cls-22" d="M44.27,92.25c-.39,0-.93-.21-.81-.58a.58.58,0,0,1,.23-.27A14.33,14.33,0,0,1,50,89a27.56,27.56,0,0,0,7-1.55,1.12,1.12,0,0,1,.34-.1c.46,0,.77.5.77,1,0,1.22-1.19,2.06-2.26,2.66C52.13,93.06,48.37,92.34,44.27,92.25Z" transform="translate(0 0)"/><path class="cls-22" d="M55.19,74.69c-.28.14-.52.35-.47.67.08.52.88.51,1.25.48a27.73,27.73,0,0,0,10.08-3.28,2.5,2.5,0,0,0,1.38-1.28.52.52,0,0,0,0-.35.6.6,0,0,0-.41-.29,6.69,6.69,0,0,0-3.75.34,27.81,27.81,0,0,1-2.75.65,5.77,5.77,0,0,0-2.13.47,2,2,0,0,0-1,1.08,1.9,1.9,0,0,1-.19.53A1,1,0,0,1,57,74a4.24,4.24,0,0,1-1.18.5A3.15,3.15,0,0,0,55.19,74.69Z" transform="translate(0 0)"/><path class="cls-22" d="M30.4,76.64c1,0,1.73-.38,1.19-1.3s-2.44-.79-3.19-.76c-1.57.06-5.2-.3-6.41.83s0,1.3,1.15,1.41A60.75,60.75,0,0,0,30.4,76.64Z" transform="translate(0 0)"/><path class="cls-22" d="M19.29,62.54c-.56.19-1.26.63-1.05,1.18s.87.49,1.38.39l4.56-.85a4,4,0,0,0,2-.77C27.83,61,24.47,60.9,23.65,61A32.35,32.35,0,0,0,19.29,62.54Z" transform="translate(0 0)"/><path class="cls-22" d="M41.5,61.38c-.14.12-.22.27,0,.39a1.85,1.85,0,0,0,1.68-.18.58.58,0,0,0,.2-.15.23.23,0,0,0,0-.24.28.28,0,0,0-.11-.11,1.24,1.24,0,0,0-.84-.07,2.46,2.46,0,0,0-.62.17A1.42,1.42,0,0,0,41.5,61.38Z" transform="translate(0 0)"/><path class="cls-22" d="M15.8,63.55c-.56.19-1.26.63-1.05,1.18s.87.49,1.38.39l4.56-.85a4,4,0,0,0,2-.77c1.65-1.5-1.71-1.59-2.53-1.45A32.35,32.35,0,0,0,15.8,63.55Z" transform="translate(0 0)"/><path class="cls-24" d="M79.53,42.95a1.24,1.24,0,0,0,.77-.16.8.8,0,0,0,.19-.94,1.65,1.65,0,0,0-.71-.72,3.67,3.67,0,0,0-2.93-.36A2.45,2.45,0,0,0,72,41a6.49,6.49,0,0,0-2.08,0c-.78.12-1.46.68-.66,1.29s2.5.32,3.32.39Q76,42.9,79.53,42.95Z" transform="translate(0 0)"/><path class="cls-25" d="M38.25,32.21a2.26,2.26,0,0,1-1.41-.3,1.46,1.46,0,0,1-.35-1.7,3,3,0,0,1,1.28-1.32,6.69,6.69,0,0,1,5.34-.66,4.46,4.46,0,0,1,8.9.43,11.83,11.83,0,0,1,3.79,0c1.41.21,2.67,1.25,1.21,2.35-1.22.92-4.55.59-6,.7Q44.62,32.13,38.25,32.21Z" transform="translate(0 0)"/><path class="cls-24" d="M54.26,36.16a.59.59,0,0,1-.34-.09c-.27-.22,0-.64.33-.81a2.82,2.82,0,0,1,2.09-.21,2.41,2.41,0,1,1,4.81.32c.05-.42,2.27-.27,2.44.18.38,1-1.47.94-1.92.93C59.19,36.45,56.72,36.32,54.26,36.16Z" transform="translate(0 0)"/><path class="cls-26" d="M38.67,45.86a.72.72,0,0,1-.42-.12c-.33-.27,0-.8.4-1a3.48,3.48,0,0,1,2.58-.26,3,3,0,1,1,5.94.4c.06-.52,2.8-.34,3,.22.47,1.28-1.82,1.16-2.37,1.15C44.77,46.22,41.71,46.06,38.67,45.86Z" transform="translate(0 0)"/><path class="cls-24" d="M65.15,51a1.8,1.8,0,0,1-.88-.23A.62.62,0,0,1,64,50a.82.82,0,0,1,.43-.29,4.69,4.69,0,0,1,2-.27,1.26,1.26,0,0,0,.54,0,1.14,1.14,0,0,0,.44-.37,2.49,2.49,0,0,1,1.27-.93c.53-.11,1.17.26,1.15.79a.87.87,0,0,0,0,.42c.09.19.35.2.56.2a2.6,2.6,0,0,1,1.68.68.49.49,0,0,1,.2.45c-.22.81-2.24.76-2.91.7C68,51.25,66.58,51.14,65.15,51Z" transform="translate(0 0)"/><path class="cls-24" d="M36.13,50.57a1.14,1.14,0,0,0-2.09.67c0-.29-1.33-.11-1.43.17s.6.67.88.68l2.23.09c.34,0,2.76.44,2.22-.59a.82.82,0,0,0-.52-.35,3,3,0,0,0-1.08-.12A1.1,1.1,0,0,0,36.13,50.57Z" transform="translate(0 0)"/><path class="cls-27" d="M21.43,48.68a.87.87,0,0,1,.87-.38,1.13,1.13,0,0,1,.71.81c.5,1.51-.28,3-.28,4.48a1.45,1.45,0,0,0,.35,1.12,3.66,3.66,0,0,0,.46.29,1.87,1.87,0,0,1,.76,1.48c.07,1.26-1.22,2.54-.94,3.68a6.41,6.41,0,0,0,.47,1,2.15,2.15,0,0,1-1.08,2.6A4.82,4.82,0,0,1,19.7,64a3.22,3.22,0,0,1-2.3-1.18,3.19,3.19,0,0,1-.4-1.47c-.1-1.11-1-2.82-.11-3.65.46-.43,1.1-.75,1.25-1.37s-.29-1.3-.39-2a1.9,1.9,0,0,1,1-2c.33-.16.7-.22,1-.4.95-.55,1-1.88,1.37-2.9A1.82,1.82,0,0,1,21.43,48.68Z" transform="translate(0 0)"/><path class="cls-28" d="M20.25,63.18a55.52,55.52,0,0,1,1-10" transform="translate(0 0)"/><path class="cls-28" d="M22.74,56.15l-.43.35" transform="translate(0 0)"/><path class="cls-28" d="M22.54,61.24l-.43.14" transform="translate(0 0)"/><path class="cls-28" d="M22.71,62l-.5.07" transform="translate(0 0)"/><path class="cls-28" d="M21.74,50.19a1.09,1.09,0,0,1-.12.65" transform="translate(0 0)"/><path class="cls-28" d="M22.48,50.27l-.27.51" transform="translate(0 0)"/><path class="cls-29" d="M11.91,59.35A3.26,3.26,0,0,0,12.76,58a2.92,2.92,0,0,0-.31-1.35A3.88,3.88,0,0,1,13,53.22a12.54,12.54,0,0,0,1.44-1.9,8,8,0,0,0,.32-2.57,5.37,5.37,0,0,1,.85-2.4,2.25,2.25,0,0,1,2-1.19A1.87,1.87,0,0,1,19,46.4c.77,2-1.08,4.3-.28,6.33.47,1.19,1.82,2.15,1.75,3.41s-1.35,2.15-1.06,3.29a5.89,5.89,0,0,0,.48,1c1.12,2.37-2.34,4.88-4.88,4.57C12.12,64.61,10.16,61.57,11.91,59.35Z" transform="translate(0 0)"/><path class="cls-28" d="M15.64,63.65c-.66-2.15,0-4.41.46-6.58a38,38,0,0,0,.81-6.45" transform="translate(0 0)"/><path class="cls-28" d="M12.94,61.67l.37.22" transform="translate(0 0)"/><path class="cls-28" d="M13.14,61.17l.37.29" transform="translate(0 0)"/><path class="cls-28" d="M14,55.29l.3.36" transform="translate(0 0)"/><path class="cls-28" d="M14.3,54.57l.3.36" transform="translate(0 0)"/><path class="cls-28" d="M16.95,47.32,17,48" transform="translate(0 0)"/><path class="cls-28" d="M18.47,56.14l-.28.29" transform="translate(0 0)"/><path class="cls-28" d="M17.48,61.31a.51.51,0,0,1,.43-.28C17.79,61.12,17.6,61.21,17.48,61.31Z" transform="translate(0 0)"/><g class="cls-30"><path class="cls-31" d="M76,52a.53.53,0,0,1,.46-.42A.44.44,0,0,1,77,52a.42.42,0,0,1,0,.56.49.49,0,0,1-.15.1.36.36,0,0,1-.4-.06A1.57,1.57,0,0,1,76,52Z" transform="translate(0 0)"/><path d="M74.61,52.9a.85.85,0,0,0,1.21.25l1-.69a.47.47,0,0,0,.11-.66l-.27-.38a.76.76,0,0,0-1.06-.18l-.72.51A.87.87,0,0,0,74.61,52.9Zm.71-1.1.37-.26a.59.59,0,0,1,.82.14l.26.36-.85.6Z" transform="translate(0 0)"/><path class="cls-31" d="M79,50.47a.9.9,0,0,0,.26-.59.88.88,0,0,0-.06-.29,1.94,1.94,0,0,0-.47-.87,13.05,13.05,0,0,1-1.6,1.54c-.46.37-1.11.69-1.16,1.36a.79.79,0,0,0,.38.75,5.61,5.61,0,0,0,.47-.33c.09-.09.06-.18.15-.26a3,3,0,0,1,1.37-.84A2,2,0,0,0,79,50.47Z" transform="translate(0 0)"/><path d="M76,52.22a.46.46,0,0,1-.06.54.45.45,0,0,1-.47,0c-.26-.13-.7-.73-.43-1S75.85,52,76,52.22Z" transform="translate(0 0)"/><path class="cls-28" d="M76.89,51.89a.24.24,0,0,0-.12-.15" transform="translate(0 0)"/><path d="M81.92,40.62a7.72,7.72,0,0,0-.11,1.45.13.13,0,0,0,.14.16,6.63,6.63,0,0,0,1.78,0l.22-1.94a1.65,1.65,0,0,0,0-.69.84.84,0,0,0-.67-.57C82.43,39,82.05,40,81.92,40.62Z" transform="translate(0 0)"/><path class="cls-32" d="M81.49,50.24a1.57,1.57,0,0,0,1.1.84,4.63,4.63,0,0,0,1.43,0l.71-.05a1,1,0,0,0,.6-.18.77.77,0,0,0,.19-.68c0-.24-.12-.48-.13-.72,0-.43.2-.88,0-1.28a1.24,1.24,0,0,0-.41-.47A4,4,0,0,0,83.37,47c-.4-.08-1.42-.22-1.74.1a.71.71,0,0,0-.17.4c-.06.38,0,.77,0,1.15A3.42,3.42,0,0,0,81.49,50.24Z" transform="translate(0 0)"/><path class="cls-32" d="M89.08,51.55H87.56a23.09,23.09,0,0,0,.91,3.25.87.87,0,0,0,.25.37.33.33,0,0,0,.42,0,.47.47,0,0,0,.09-.3,26.24,26.24,0,0,0-.15-3.23Z" transform="translate(0 0)"/><path d="M87,68.52a.57.57,0,0,0-.23-.14.62.62,0,0,0-.53.07,2.15,2.15,0,0,0-.39.42,3.43,3.43,0,0,1-1,.68.6.6,0,0,0-.2.14c-.29.36.32.33.5.29.66-.12,1.32-.27,2-.42.19,0,.26-.1.22-.28A1.5,1.5,0,0,0,87,68.52Z" transform="translate(0 0)"/><path d="M84.46,68.09a9.09,9.09,0,0,0,1.14-1.41.38.38,0,0,0,.09-.31.37.37,0,0,0-.09-.14,3.64,3.64,0,0,0-.32-.3.81.81,0,0,0-.29-.18c-.47-.13-.62.53-.66.86a3.25,3.25,0,0,1-.08.63l-.22.68a.65.65,0,0,0,0,.34.12.12,0,0,0,0,.07.11.11,0,0,0,.08,0,.39.39,0,0,0,.22-.13Z" transform="translate(0 0)"/><path class="cls-32" d="M86,68.54v0a1.2,1.2,0,0,1-.17.25,1.65,1.65,0,0,0-.12.15,1.38,1.38,0,0,0,.58-.1,2.49,2.49,0,0,0,.65-.3,1.35,1.35,0,0,0,0-.22l.16-2.87.1-1.83c0-.87-.49-1.57-.42-2.42a24.89,24.89,0,0,0-.58-8.45c-.4-1.23-1.4-1.86-2.23-.53a6.82,6.82,0,0,0-.59,5.07c.34,1.85,1,3.62,1.31,5.47.26,1.33.47,2.67.83,4,.09.31.19.62.29.93S86.13,68.28,86,68.54Z" transform="translate(0 0)"/><path class="cls-32" d="M85,65.82a20.59,20.59,0,0,0-1.26-2.7c-.29-.57-.58-1.13-.9-1.68-.13-.23-.29-.43-.43-.66h0c-.55.67-1.12,1.33-1.67,2l.62.67c.19.2.38.39.57.58q.76.72,1.49,1.49l.7.76a1.12,1.12,0,0,1,.23.3,1,1,0,0,1,0,.42s0,0,0,0h0A1.16,1.16,0,0,0,85,65.82Z" transform="translate(0 0)"/><path class="cls-32" d="M89.3,54.56h0c-.05-.22,0-.44-.08-.66-.14-.67-.85-.36-.92.17a1.78,1.78,0,0,0,0,.58.84.84,0,0,1,0,.37,1,1,0,0,0,0,.58c0,.18,0,.37,0,.55s0,.12.1.12.12-.09.12-.17,0-.18.08-.21c.38-.18.27.72.29.84a.48.48,0,0,0,.36.37h.12a.34.34,0,0,0,.18-.11,1.33,1.33,0,0,0,.11-1.66A3.12,3.12,0,0,1,89.3,54.56Z" transform="translate(0 0)"/><path class="cls-23" d="M86.15,47.7c.6-.5,1.17-1,1.73-1.6a9.59,9.59,0,0,0-.67-1.31,2.54,2.54,0,0,0-1-1.06,2.3,2.3,0,0,0-.66-.25,6.33,6.33,0,0,0-.75,0,1.79,1.79,0,0,0-.53,0,.27.27,0,0,0-.16.09.39.39,0,0,0,0,.27.6.6,0,0,1,0,.32.52.52,0,0,1-.2.23,1,1,0,0,1-.31.05,2.72,2.72,0,0,1-.72,0A2,2,0,0,1,82,44c-.14-.1-.36-.45-.54-.46a.18.18,0,0,0-.09,0,2.18,2.18,0,0,0-.26,3.72.27.27,0,0,1,.08.09.32.32,0,0,1,0,.13,2.27,2.27,0,0,0,.08.5c0,.2.08.41.11.62h4.17l0-.11c0-.19.06-.37.09-.55a3.15,3.15,0,0,1,.17-.64A.71.71,0,0,1,86.15,47.7Z" transform="translate(0 0)"/><g id="_Group_" data-name="&lt;Group&gt;"><g id="_Group_2" data-name="&lt;Group&gt;"><polygon id="_Path_" data-name="&lt;Path&gt;" class="cls-33" points="86.64 69.42 86.64 69.42 86.64 69.42 86.64 69.42"/><circle id="_Path_2" data-name="&lt;Path&gt;" class="cls-33" cx="86.64" cy="69.42" transform="translate(-3.86 5.13) rotate(-3.31)"/></g></g><path class="cls-34" d="M84.31,52.92A3.8,3.8,0,0,0,83.83,50H81.45l-.15.24a32.94,32.94,0,0,0-2.73,7.6,4.37,4.37,0,0,0-.16,2.26,4.58,4.58,0,0,0,1,1.61,16.72,16.72,0,0,0,3.91,3.79l1.28-1a11.46,11.46,0,0,0-1.12-2.45A24.59,24.59,0,0,0,82,59.59a.44.44,0,0,1,0-.6A26.39,26.39,0,0,0,84,54.29,8.68,8.68,0,0,0,84.31,52.92Z" transform="translate(0 0)"/><path class="cls-32" d="M78.33,45.32v0" transform="translate(0 0)"/><path class="cls-32" d="M85.52,61.25l0,.07" transform="translate(0 0)"/><path class="cls-32" d="M85,43.51l-.13,0a.81.81,0,0,1-.7-.46,1.65,1.65,0,0,1-.07-.37,1.71,1.71,0,0,1,0-.21,2.7,2.7,0,0,1,0-.45c0-.1,0-.19.06-.29a2.12,2.12,0,0,0-.71-2.11,1.37,1.37,0,0,0-.44-.24c-.38-.12-.79.24-1,.57A1.74,1.74,0,0,0,82,41.24a1.24,1.24,0,0,0,.26.5.77.77,0,0,0,.28.21,1,1,0,0,1,0,.44,1.08,1.08,0,0,1-.52,1c-.1,0-.22,0-.32.1h0a1.5,1.5,0,0,0,.4.56,1.67,1.67,0,0,0,1.22.4,3.32,3.32,0,0,0,.57-.09c.41-.1,1-.35,1.11-.82Z" transform="translate(0 0)"/><path d="M82.31,39.39a2.11,2.11,0,0,1,.51-.37,2.22,2.22,0,0,1,1.59,0,1.64,1.64,0,0,1,.92,1.11q.33.91.62,1.84c0,.07,0,.15,0,.2a.19.19,0,0,1-.11,0c-.5.07-1.35,0-1.74.33,0-.29,0-.6,0-.89a4.49,4.49,0,0,0-.11-1,1.31,1.31,0,0,0-.36-.87,1.19,1.19,0,0,0-.37-.19,1.12,1.12,0,0,0-.66-.07,1.32,1.32,0,0,0-.55.39s0-.05,0-.09A.94.94,0,0,1,82.31,39.39Z" transform="translate(0 0)"/><path class="cls-34" d="M87.25,59.83a52.8,52.8,0,0,0-.36-6,8.7,8.7,0,0,0-.72-2.69A5,5,0,0,0,85.37,50H83.56a8.83,8.83,0,0,0-.72,4.18,27.08,27.08,0,0,0,.89,5.42l1.69,7.21,1.9-.36c0-1.4,0-2.79,0-4.19Z" transform="translate(0 0)"/><path class="cls-34" d="M81.32,49.55l0,.06q-.69,1.81-1.22,3.67a29.25,29.25,0,0,0,6.4.71c.25.19.31,1,.48,1.24a22.7,22.7,0,0,0-1.56-5.7Z" transform="translate(0 0)"/><path class="cls-35" d="M83,41.38c.06.34-.62.4-.68,0" transform="translate(0 0)"/><path class="cls-36" d="M88.95,49a12.63,12.63,0,0,0-.56-2.79,4.77,4.77,0,0,0-2.58-3,7.81,7.81,0,0,0-1.71-.41,14.49,14.49,0,0,1,.1,2.11c.07,3,.14,6,.19,9a5.19,5.19,0,0,0,2.49-.36,26.53,26.53,0,0,0-.2-4.9c.26,1.18.74,3.06,1,4.24a7.8,7.8,0,0,1,1.68-.4C89.36,51.55,89.05,49.91,88.95,49Z" transform="translate(0 0)"/><path class="cls-32" d="M84.13,40.39a.39.39,0,0,1,.41.4.48.48,0,0,1-.44.44.32.32,0,0,1-.33-.38C83.79,40.62,83.89,40.4,84.13,40.39Z" transform="translate(0 0)"/><path d="M84,40.67a.13.13,0,0,1,.16,0,.19.19,0,0,1,.05.18.23.23,0,0,1-.13.15" transform="translate(0 0)"/><path d="M83.23,42l-.1,0-.28,0a.87.87,0,0,1-.34,0,.94.94,0,0,1,0,.38A5,5,0,0,0,83.23,42Z" transform="translate(0 0)"/><path class="cls-28" d="M85.33,62a.84.84,0,0,1-.16.55" transform="translate(0 0)"/><path class="cls-28" d="M79.57,61.16a2.19,2.19,0,0,0,.49.09" transform="translate(0 0)"/><path class="cls-28" d="M88.58,49.13a1.08,1.08,0,0,1-.05.56" transform="translate(0 0)"/><path class="cls-28" d="M80.45,48.85a1.19,1.19,0,0,1-.42.38" transform="translate(0 0)"/><path class="cls-28" d="M81.22,47.45a10.39,10.39,0,0,1,0-1.28" transform="translate(0 0)"/><path class="cls-28" d="M83.23,57.18Q83,55.58,82.92,54" transform="translate(0 0)"/><path class="cls-23" d="M57.32,68.49a1.27,1.27,0,0,0-.38.33,1,1,0,0,1-.36.29,2.65,2.65,0,0,0-.54.2.29.29,0,0,0-.14.32c.06.13.23.14.38.14l.64,0,.16,0a2.71,2.71,0,0,0,1-.62.52.52,0,0,0,.19-.25c.06-.23-.19-.41-.41-.52A.59.59,0,0,0,57.32,68.49Z" transform="translate(0 0)"/><path class="cls-37" d="M56.37,63.88a.52.52,0,0,1,.05-.19,3.23,3.23,0,0,1,.58-.91c.08,0,.11.14.12.23a8.15,8.15,0,0,1,.09.88" transform="translate(0 0)"/><path class="cls-34" d="M62.54,67a4.14,4.14,0,0,0,.29,1.48c.07.16.19.28.25.44a2.58,2.58,0,0,1,.09.81,1,1,0,0,1-.11.58c0,.07-.77.62-.49.62l.73,0a.28.28,0,0,0,.13,0,.28.28,0,0,0,.09-.12l.23-.48a.24.24,0,0,0,.1.18.65.65,0,0,0,.21-.38l.07.15c.07,0,.12-.08.14-.15a2.86,2.86,0,0,0-.05-1.53,21.42,21.42,0,0,0-.78-2.15c-.1-.07-.21,0-.32,0a.84.84,0,0,0-.29.21C62.67,66.78,62.54,66.78,62.54,67Z" transform="translate(0 0)"/><path class="cls-34" d="M56.81,67.47a6.37,6.37,0,0,1,.54,1.64,1.21,1.21,0,0,1,0,.49,1.34,1.34,0,0,1-.19.4l-.48.77a.8.8,0,0,0,.85,0,2.24,2.24,0,0,0,.66-.6,4.63,4.63,0,0,0,.94-1.54,1.77,1.77,0,0,0-.3-1.71" transform="translate(0 0)"/><path class="cls-34" d="M56.37,66a2.8,2.8,0,0,0-.1,1.32A9.42,9.42,0,0,0,57.45,70c0,.11.11.22.22.25a.33.33,0,0,0,.2,0,1.55,1.55,0,0,0,.84-.79.74.74,0,0,0,0,.66.43.43,0,0,0,.59,0,1.38,1.38,0,0,0,.37-.56.91.91,0,0,0,0,.38.28.28,0,0,0,.26.22.36.36,0,0,0,.2-.11,2,2,0,0,0,.43-.55.9.9,0,0,0-.09.37.29.29,0,0,0,.21.28.32.32,0,0,0,.18,0,1,1,0,0,0,.52-.58.47.47,0,0,0,0,.45.36.36,0,0,0,.51.07,1.15,1.15,0,0,0,.34-.49.42.42,0,0,0,.23.59.61.61,0,0,0,.62-.25,2,2,0,0,0,.3-.67,6.81,6.81,0,0,0,.24-2.45c0-.1.16-.39.08-.44a.28.28,0,0,0-.15,0c-.78,0-1.56.08-2.33.07a4,4,0,0,1-2.24-.58A4.41,4.41,0,0,0,57.81,65a1.23,1.23,0,0,0-1.24.55A1.76,1.76,0,0,0,56.37,66Z" transform="translate(0 0)"/><path class="cls-34" d="M63.24,65.29s.06.06.08.1a1.7,1.7,0,0,1,.07.4.31.31,0,0,1,.1-.12.11.11,0,0,1,.14,0,.15.15,0,0,1,0,.1,1.85,1.85,0,0,1-.05.33.38.38,0,0,1,.15-.09.1.1,0,0,1,.08,0,.1.1,0,0,1,0,.07c.13.45-.3,1.18-.81.8a.41.41,0,0,1-.12-.48c.07-.33.13-.66.19-1C63.14,65.36,63.18,65.28,63.24,65.29Z" transform="translate(0 0)"/><path class="cls-34" d="M58.58,64.22a1.09,1.09,0,0,0-.36-.37,4.7,4.7,0,0,0-1-.47c-.59-.21-.81.25-1.15.65a.79.79,0,0,1-.2.18.9.9,0,0,1-.52,0c-.17.4-.26.82-.19.88.75.57,1.78,1.66,2.63,1.2a1.68,1.68,0,0,0,.63-.8A1.43,1.43,0,0,0,58.58,64.22Z" transform="translate(0 0)"/><path d="M58.8,65.65l0,0h0l0,0-.13-.16a3.34,3.34,0,0,1-2.38.73c0,.1,0,.21,0,.31a2.81,2.81,0,0,0,2.59-.79Z" transform="translate(0 0)"/><path class="cls-38" d="M57.06,64.76a1.75,1.75,0,0,1,.82,1.88.42.42,0,0,1-.12.23.18.18,0,0,1-.24,0,.27.27,0,0,1,0-.12l-.14-.6a1.69,1.69,0,0,1-.11.5c0,.1-.13.21-.22.16a.2.2,0,0,1-.08-.13L56.72,66a1.53,1.53,0,0,1-.19.71s-.06.09-.11.1-.14-.1-.16-.19a6,6,0,0,0-.3-1.51c-.07-.16-.08-.35-.2-.48s-.15-.14-.12-.22.13-.08.21-.07a3,3,0,0,1,1.15.39Z" transform="translate(0 0)"/><path class="cls-38" d="M56.83,65.71l0,0a9.94,9.94,0,0,0-1.12-1.42c-.17,0-.34,0-.51,0a4.12,4.12,0,0,0-.46.81,1.39,1.39,0,0,0,.37.59,3.08,3.08,0,0,0,1.31.75C56.56,66.17,56.7,65.94,56.83,65.71Z" transform="translate(0 0)"/><path class="cls-38" d="M55.71,64.14a1,1,0,0,0-.94.52l0,0c.07.1.31.08.42.15s.37.37.56.31.31-.53.28-.7a.39.39,0,0,0-.24-.31Z" transform="translate(0 0)"/><path class="cls-37" d="M55.65,65.14a.31.31,0,0,1-.11-.25.89.89,0,0,1,0-.15s0,0,0,0h0l-.09,0a.35.35,0,0,1-.25.06.31.31,0,0,1-.18-.11l0,0a1.09,1.09,0,0,0,0,.47.47.47,0,0,0,.38.36.67.67,0,0,0,.51-.3S55.67,65.16,55.65,65.14Z" transform="translate(0 0)"/><path class="cls-37" d="M55.5,64.51h0c0-.15.21-.21.33-.15s.26.27.2.38-.14.08-.21.08-.22,0-.25,0l0,0A.64.64,0,0,1,55.5,64.51Z" transform="translate(0 0)"/><path class="cls-39" d="M54.72,65.51a.25.25,0,0,0,.27.15c.09,0,.11-.09.16-.15a.4.4,0,0,1,.22-.13.83.83,0,0,0,.37-.18A.76.76,0,0,1,55.6,65a.25.25,0,0,1,0-.19,1.56,1.56,0,0,1-.39,0,.5.5,0,0,0-.29.11A.45.45,0,0,0,54.72,65.51Z" transform="translate(0 0)"/><path class="cls-34" d="M58.06,64.16a9.2,9.2,0,0,0,1.17-.53,2,2,0,0,1-.57,1.12.36.36,0,0,1-.28.11.43.43,0,0,1-.24-.18c-.06-.07-.12-.17-.05-.24" transform="translate(0 0)"/><path class="cls-37" d="M57.22,64.31a.11.11,0,0,0,0,.22A.11.11,0,0,0,57.22,64.31Z" transform="translate(0 0)"/><path class="cls-37" d="M56.25,63.91a.11.11,0,0,0,0,.22A.11.11,0,0,0,56.25,63.91Z" transform="translate(0 0)"/><path class="cls-40" d="M59.69,69.56l.08-.28" transform="translate(0 0)"/><path class="cls-40" d="M60.57,69.49a1.16,1.16,0,0,0,0-.45" transform="translate(0 0)"/><path class="cls-40" d="M61.35,69.55l.1-.33" transform="translate(0 0)"/><path class="cls-40" d="M63.76,70.27a1.44,1.44,0,0,0-.57-.73" transform="translate(0 0)"/><path class="cls-40" d="M57.28,69.42a1,1,0,0,1,.23,1" transform="translate(0 0)"/><path class="cls-40" d="M57.8,70.26a1.72,1.72,0,0,0,.15-.51" transform="translate(0 0)"/><path class="cls-40" d="M64,70.14v-.5" transform="translate(0 0)"/><path class="cls-40" d="M58.7,69.59a3.12,3.12,0,0,0,0-.53" transform="translate(0 0)"/><path class="cls-40" d="M58.85,64.13a.8.8,0,0,0-.3.35" transform="translate(0 0)"/><path class="cls-40" d="M63.54,66.67a2.42,2.42,0,0,1,.21.68" transform="translate(0 0)"/><circle class="cls-28" cx="58.94" cy="65.56" r="0.22"/><path d="M81.82,40.26a.08.08,0,0,0,0,0s.05,0,.09,0l1.33,0a1.21,1.21,0,0,1,.37,0l0-.56a.71.71,0,0,0-.92-.77A1.59,1.59,0,0,0,81.82,40.26Z" transform="translate(0 0)"/><path class="cls-36" d="M81.58,43.29c-1.67.3-1.9,2.89-2.17,4.2a1.46,1.46,0,0,1-.52.94q-.71.71-1.47,1.37a16.37,16.37,0,0,1,.85,1.5A19.29,19.29,0,0,1,79.84,50a4.55,4.55,0,0,0,1.28-1.61,24.23,24.23,0,0,0,.72-3.94C81.94,44,82.43,43.14,81.58,43.29Z" transform="translate(0 0)"/><path class="cls-28" d="M86.73,48.7q-.23-1.23-.57-2.44" transform="translate(0 0)"/><path class="cls-36" d="M82.39,43.32l0-.29a.67.67,0,0,1-.42.2,2.6,2.6,0,0,0-.47.08c-.11.5-.13,1-.22,1.55S81,46,80.91,46.57q-.64,3.28-1.46,6.52l.29.17a4.58,4.58,0,0,0,.73.24,3.71,3.71,0,0,0,1.27.24v0q.46-3,.66-5.94C82.42,46.29,82.4,44.8,82.39,43.32Z" transform="translate(0 0)"/><path class="cls-28" d="M80.29,49.68A19.13,19.13,0,0,0,80.67,47a1.54,1.54,0,0,1,.09-.42" transform="translate(0 0)"/><path class="cls-31" d="M77.3,51.8q-.12.23-.27.45c0,.05-.08.11-.15.1s-.09-.11-.08-.18.14-.22.12-.3a.06.06,0,0,0,0,0h0a0,0,0,0,1,0-.05.11.11,0,0,1,0,0c.08-.12,0-.29,0-.43s.27-.28.39-.11A.59.59,0,0,1,77.3,51.8Z" transform="translate(0 0)"/><path class="cls-28" d="M77.37,51.39a.65.65,0,0,0-.1-.26" transform="translate(0 0)"/><path class="cls-28" d="M59.16,65.55A38.81,38.81,0,0,0,68,61.1a19.22,19.22,0,0,0,6.92-8.23" transform="translate(0 0)"/></g><path class="cls-27" d="M62,85.25c.05-.37.15-.79.19-1.33a1.9,1.9,0,0,0-.29-1.45,1.26,1.26,0,0,0-1.78.15,2.9,2.9,0,0,0-.59,1.88,1.4,1.4,0,0,1-.1.6c-.33.64-1.47.42-1.82,1s.4,1.42.07,2c-.48.91-1.28.87-.6,2a2.69,2.69,0,0,0,2.09,1.18,4.35,4.35,0,0,0,3.67-2.51,1.65,1.65,0,0,0-.2-1.83A1.81,1.81,0,0,1,62,85.25Z" transform="translate(0 0)"/><circle class="cls-41" cx="52.07" cy="72.37" r="2.04"/><path class="cls-31" d="M51.61,69.65a2,2,0,0,1,.42.65.89.89,0,0,1-.27.91,1,1,0,0,1-.94.16.64.64,0,0,1-.41-.39.39.39,0,0,1,.23-.48,8.08,8.08,0,0,1-.84-1.66,1.27,1.27,0,0,1-.1-.47.48.48,0,0,1,.22-.41.49.49,0,0,1,.43,0C51,68.26,51.19,69.13,51.61,69.65Z" transform="translate(0 0)"/><path class="cls-42" d="M49.86,61.37c.07.57.14,1.15.21,1.73a21.18,21.18,0,0,0,1.3,5.66l-1.84.62c-.34.11-1.12-2-1.09-2.41a26.21,26.21,0,0,0,.36-3.18,22.38,22.38,0,0,0-.37-3.59c-.11-.59-.23-1.18-.37-1.77s-.48-.92-.55-1.45a.94.94,0,0,1,.22-.78.72.72,0,0,1,.91-.06,1.37,1.37,0,0,1,.41.78A34.74,34.74,0,0,1,49.86,61.37Z" transform="translate(0 0)"/><path class="cls-42" d="M47.09,51.09a10.61,10.61,0,0,1,.11,1.22,7.44,7.44,0,0,0-.09,2.16,6,6,0,0,1,.14.73,1.52,1.52,0,0,1-1,1.28.86.86,0,0,1-.54.06,1.15,1.15,0,0,1-.63-.56,7.13,7.13,0,0,1-.87-2.77,5.57,5.57,0,0,1-.06-1.65A2.27,2.27,0,0,1,45,50.12a1.24,1.24,0,0,1,1.77,0C47.08,50.48,47.06,50.61,47.09,51.09Z" transform="translate(0 0)"/><path class="cls-39" d="M91.64,81.31a1.87,1.87,0,0,0-.77-.24,4.62,4.62,0,0,1-.75-.13,1.46,1.46,0,0,1-.52-.3,1,1,0,0,0,.85.83c.27,0,.6-.09.84,0s.23.24.35.37.22.15.3.07a.23.23,0,0,0,.05-.2A1,1,0,0,0,91.64,81.31Z" transform="translate(0 0)"/><path d="M79.66,85.95a2.51,2.51,0,0,1-.22.95,9.75,9.75,0,0,1-.84,1.61,2.13,2.13,0,0,1-.79.81c-.23.11-.5.15-.73.29s-.42.55-.57.89-.3.48.08.64a.91.91,0,0,1,.36.23.31.31,0,0,1,0,.39.46.46,0,0,1-.44.06c-.26-.05-.48-.13-.73-.2a7.05,7.05,0,0,1,0-1.31c.1-.44.26-.86.34-1.31a14.07,14.07,0,0,1,.28-2.78,2.31,2.31,0,0,1,.8-1,2,2,0,0,1,1.42-.29,1.19,1.19,0,0,1,.83.46A1,1,0,0,1,79.66,85.95Z" transform="translate(0 0)"/><path d="M89,78.67c0-.22.08-.57.37-.55a1,1,0,0,1,.19.05.85.85,0,0,0,.48-.07l.68-.24a.26.26,0,0,0,.12-.06.25.25,0,0,0,0-.14,3,3,0,0,0,0-.57,10.49,10.49,0,0,1-2-.1.28.28,0,0,0-.16,0,.28.28,0,0,0-.1.1,2.27,2.27,0,0,0-.51,1.52" transform="translate(0 0)"/><path d="M87.64,86.54c.32.61-.36,1.87-.57,2.47a.25.25,0,0,0,0,.17.28.28,0,0,0,.07.09,1,1,0,0,1,.25.45.25.25,0,0,1,0,.2c-.07.11-.24.08-.36,0-1.12-.47,0-1.4-.72-2a3.42,3.42,0,0,0-.63-.24,1.13,1.13,0,0,1-.41-1.45c.22-.52.57-.91,1.07-.8a3.38,3.38,0,0,1,1.27,1Z" transform="translate(0 0)"/><path class="cls-43" d="M78.79,83.12a11.94,11.94,0,0,0-3.91.69c-.72.35-1.36,1-2.17,1.13a6,6,0,0,1-1.45-.16c-.51-.07-1.46-.46-1.94-.29s-.81,1.53-.25,1.2a1.3,1.3,0,0,0,.31-.35.21.21,0,0,1,.11-.08.22.22,0,0,1,.11,0,6.37,6.37,0,0,1,2.33,1,2.93,2.93,0,0,0,1.92.91,7.72,7.72,0,0,0,2.07-.26,23.31,23.31,0,0,1,2.58-.55,6.78,6.78,0,0,1,2.07.48,6.91,6.91,0,0,0,1.53.08,9.86,9.86,0,0,0,1.82-.15,37.44,37.44,0,0,0-.28,3.78c.05.8.67,1.71,1.45,1.52a.47.47,0,0,0,.19-.08.45.45,0,0,0-.07-.67,1.3,1.3,0,0,0-.73-.21,6.06,6.06,0,0,1,1.28-3c.49-.6,1.09-1.11,1.55-1.74,1.11-1.51,1.25-3.5,1.32-5.37a3.7,3.7,0,0,0-.22-1.73c-.4-.79-.56-.7-1.05-.18a9.51,9.51,0,0,1-3.09,2.47A17.24,17.24,0,0,1,78.79,83.12Z" transform="translate(0 0)"/><g class="cls-44"><path class="cls-35" d="M86.12,83.54c-.31.78.19,1.71-.1,2.5a3.85,3.85,0,0,1-.63.91,4,4,0,0,0-.79,2,1.17,1.17,0,0,0,.25,1,.9.9,0,0,0,.91.13,2.34,2.34,0,0,0,.78-.55,13.41,13.41,0,0,0,3-4.18,5.74,5.74,0,0,0,.58-3.67c-.12-.49-.48-1.22-1.09-1.19s-.51.37-.69.73C87.82,82.22,86.53,82.52,86.12,83.54Z" transform="translate(0 0)"/></g><path class="cls-45" d="M90.71,81.81h.11a1,1,0,0,0,.37,0,.3.3,0,0,0,.2-.28.06.06,0,0,0,0,0h0A1.74,1.74,0,0,1,90,81a.39.39,0,0,1-.11-.24.09.09,0,0,1,0-.06s.09,0,.13,0a2.93,2.93,0,0,0,1.08.32,4.41,4.41,0,0,0,.52,0,.31.31,0,0,0,.31-.27c.1-.77-.58-.86-1.08-1.22a5.74,5.74,0,0,1-.83-1,1.82,1.82,0,0,0-2.89,0,4.14,4.14,0,0,0-.51,1.77,1.17,1.17,0,0,0,.26,1,1.27,1.27,0,0,0,.6.26l.56.11a11.48,11.48,0,0,0,1.45.14,4.76,4.76,0,0,0,.58,0Z" transform="translate(0 0)"/><path class="cls-35" d="M91.65,81.06h-.07c-.5-.34-.66-1-1-1.43a2.33,2.33,0,0,0-.48-.47L90,79a12.31,12.31,0,0,0-1-.88.63.63,0,0,1-.16-.2,1.05,1.05,0,0,1,.82.26c.43.35.75.87,1.28,1s.77.11,1,.54a1.25,1.25,0,0,1,0,1.12A.28.28,0,0,1,91.65,81.06Z" transform="translate(0 0)"/><path d="M92,80.49h0s0,0,0,0c.11-.23.23-.47.07-.7s-.81-.46-.66,0a.24.24,0,0,0,.18.15l.08,0c.07,0,0,.15,0,.23A.42.42,0,0,0,92,80.49Z" transform="translate(0 0)"/><path d="M89.19,79.1a.17.17,0,0,0,0,.33A.17.17,0,0,0,89.19,79.1Z" transform="translate(0 0)"/><path class="cls-45" d="M74.78,82.88a4.74,4.74,0,0,1-.22-.93,1.11,1.11,0,0,1,.29-1,1.15,1.15,0,0,1,.42-.18,1.8,1.8,0,0,1,.87-.06.8.8,0,0,1,.62.56.37.37,0,0,1,0,.22.55.55,0,0,1-.33.25,2.58,2.58,0,0,0-.72.39.67.67,0,0,0-.14,1c.19.3,1.1,1.15.36,1.11C75.39,84.23,75,83.54,74.78,82.88Z" transform="translate(0 0)"/><path class="cls-35" d="M39.91,84.7a17.72,17.72,0,0,0,.45,2.53,1.21,1.21,0,0,0,.29.71.67.67,0,0,0,.88-.05,8.61,8.61,0,0,0,0-1c.11-.88.72-2.37.44-3.23a1,1,0,0,0-1.93.12A2.66,2.66,0,0,0,39.91,84.7Z" transform="translate(0 0)"/><path class="cls-23" d="M40.49,88.25l.1.11c.59.19,1.17.43,1.77.58.3.07,1.07,0,.65-.5a1.15,1.15,0,0,0-.28-.22,3.24,3.24,0,0,1-1.1-1.08l-1.39.15C40.11,87.3,40.44,88.19,40.49,88.25Z" transform="translate(0 0)"/><path class="cls-35" d="M51.74,82.23c.32.39-.19,2.45-.24,3a2.1,2.1,0,0,0,0,.25c0,.58.17,1.44-.07,1.82s-.49.13-.76.13a.24.24,0,0,1-.11,0,.31.31,0,0,1-.12-.19A9.86,9.86,0,0,1,50,83.71a2,2,0,0,1,.27-1.17C50.51,82.23,51.48,81.91,51.74,82.23Z" transform="translate(0 0)"/><path class="cls-46" d="M44,68.78a4.06,4.06,0,0,1,0-3.22c1.15-2.44,3.75-.47,4.68,1.17a44.62,44.62,0,0,1,2.87,6.12,10,10,0,0,1,.63,2.2,11.16,11.16,0,0,1,0,2.17c-.16,2.6-.48,8.41-.47,8.3.21-.24-1.6.48-1.72.42-.48-.27-.53-2.3-.59-2.77q-.32-2.61-.71-5.22a10.78,10.78,0,0,0-.53-2.34,10.6,10.6,0,0,0-1.28-2.2A21.81,21.81,0,0,1,44,68.78Z" transform="translate(0 0)"/><path class="cls-46" d="M42,85.78c.32-1.61,3.19-13.94,3.43-15.57a15.37,15.37,0,0,0,.05-1.73c.08-1.4,0-5.07-1.5-5.61a1.67,1.67,0,0,0-1.37.22,3.61,3.61,0,0,0-1.46,1.65A15,15,0,0,0,40,71.55c0,2.61,0,5.24-.24,7.84,0,.55-.16,6.33.14,6.39A9.12,9.12,0,0,0,42,85.78Z" transform="translate(0 0)"/><path class="cls-42" d="M49.38,61.83c-.12,1.48,0,3-.13,4.48a1.42,1.42,0,0,1-.26.81,1.32,1.32,0,0,1-.86.35,44.52,44.52,0,0,1-4.72-.13,5.55,5.55,0,0,1-2-.14c-1.83-.66-.93-3.3-.8-4.68.17-1.71.43-3.24.67-4.94.14-1-.14-1.35.66-1.89A4.6,4.6,0,0,1,44,55.23l.41.08a4.84,4.84,0,0,0,1.21-.07l.58-.07c.15,0,.29-.05.44-.07a2.34,2.34,0,0,1,1.1.19,2.1,2.1,0,0,1,1.17,1.43,9.61,9.61,0,0,1,.51,4.45C49.43,61.38,49.4,61.6,49.38,61.83Z" transform="translate(0 0)"/><path class="cls-31" d="M40.65,57.08a5,5,0,0,0-2.11,2,7.69,7.69,0,0,0-1.41,2.74,4.39,4.39,0,0,0,.06,1.58q.06.31.14.62a9.66,9.66,0,0,0,2.86,4.71c.17.15.48.52.73.5s.56-.38.68-.57a.77.77,0,0,0,.1-.77c-.08-.16-.21-.28-.29-.44l-.25-.54q-.28-.57-.53-1.15c-.41-1-.71-1.95-1.11-2.91l1.18-1.23a14.51,14.51,0,0,0,1.1-1.24,3.18,3.18,0,0,0,.41-.67,3,3,0,0,0,.2-.81,2.58,2.58,0,0,0-.06-1.07,1.25,1.25,0,0,0-.67-.8,1.28,1.28,0,0,0-.84,0Z" transform="translate(0 0)"/><path class="cls-42" d="M43.45,59.65a3.62,3.62,0,0,0,1-3.14c-.53-2.37-3.61-.37-4.59.48-2.14,1.87-4.12,5.26-2.6,8a17.87,17.87,0,0,0,1.91,2.79,22.11,22.11,0,0,1,1.73-1.69L40,64.32c-.62-1.29-.15-1.44.86-2.19A9.81,9.81,0,0,0,43,60.26Z" transform="translate(0 0)"/><path class="cls-31" d="M46.86,52.61h0c-.15.18-.35.28-.37.55a9.28,9.28,0,0,0,0,1.27.83.83,0,0,0,.14.5c.11.14.29.14.46.16l-.17.24a9.09,9.09,0,0,1-.92.31,2.78,2.78,0,0,1-1.29-.1l-.66-.18c-.15-.09-.28-.14-.34-.12a1.46,1.46,0,0,0,.34-.16c.5-.33.47-.91.44-1.44a6,6,0,0,1,0-2.73C45,50,46.4,49.45,47,50.49a2,2,0,0,1,.17,1.34A1.72,1.72,0,0,1,46.86,52.61Z" transform="translate(0 0)"/><path class="cls-47" d="M41.54,71.51v-.06" transform="translate(0 0)"/><path class="cls-23" d="M50.62,88l.06,0c.65.26,1.34.5,2,.7l.23.07a.33.33,0,0,0,.44-.2.3.3,0,0,0,0-.17.79.79,0,0,0-.21-.32c-.48-.5-1-.68-1.4-1.28a.16.16,0,0,0-.07-.07h-.08L50.4,87a2.93,2.93,0,0,0,.06.79.36.36,0,0,0,.07.17A.28.28,0,0,0,50.62,88Z" transform="translate(0 0)"/><path d="M46.06,52.93h.13l.39,0s0,0,0,.06a.2.2,0,0,0,0,.06,1.48,1.48,0,0,0,0,.16q0,.21,0,.43a1.47,1.47,0,0,0-.12-.19l-.16-.19a1.55,1.55,0,0,0-.37-.31h.24Z" transform="translate(0 0)"/><path class="cls-46" d="M40.34,69.85q-.12-.3-.23-.61a2.55,2.55,0,0,0,1-.66,5.08,5.08,0,0,0,.53-.74l.28-.44s.05.06.09.09a2.83,2.83,0,0,0,.47.24A3.8,3.8,0,0,1,40.34,69.85Z" transform="translate(0 0)"/><path class="cls-31" d="M44.66,52.2l.07,0c.2,0,.42-.25.48-.41s.1-.08.06-.27a.39.39,0,0,0-.51-.25.55.55,0,0,0-.39.47A.56.56,0,0,0,44.66,52.2Z" transform="translate(0 0)"/><path d="M44.89,51.63c-.06-.07-.2,0-.23.07a.41.41,0,0,0,0,.28" transform="translate(0 0)"/><path class="cls-28" d="M39.3,62.58a.79.79,0,0,1,.31.51" transform="translate(0 0)"/><path class="cls-28" d="M42,77.18l.35.67" transform="translate(0 0)"/><path class="cls-28" d="M86,79.64a.44.44,0,0,0,0,.87A.44.44,0,0,0,86,79.64Z" transform="translate(0 0)"/><path class="cls-28" d="M46.36,52A.3.3,0,0,0,47,52" transform="translate(0 0)"/><path d="M87.5,77.83c-.09-.15-.21-.31-.38-.34a.88.88,0,0,0-.39.1,3.23,3.23,0,0,1-1.33,0s-.09,0-.1,0a.08.08,0,0,0,0,0,1.52,1.52,0,0,0,.29.56,1.91,1.91,0,0,0,1.47.46.46.46,0,0,1,.19,0,1.68,1.68,0,0,1,.17.12.35.35,0,0,0,.48-.23C87.94,78.36,87.61,78,87.5,77.83Z" transform="translate(0 0)"/><path d="M86.32,79.95l0,0a10.51,10.51,0,0,0,2.33,1.66c0,.1,0,.2,0,.29a1.73,1.73,0,0,0,0,.37,11.05,11.05,0,0,1-2.76-1.91.29.29,0,0,1-.07-.1A2.35,2.35,0,0,1,86.32,79.95Z" transform="translate(0 0)"/><path class="cls-42" d="M44.69,52.49a13.11,13.11,0,0,0,.94,3.67c-.09-.28-1.11-.26-1.32-.26s-1,.09-1.21-.25a.66.66,0,0,1,0-.5,4.9,4.9,0,0,0-.23-2.38,5.42,5.42,0,0,1-.31-1c-.26-2,3.14-2.92,4.32-1.58.27.3.19.07.19.47-.07-.16.08.31,0,.16-.55-.9-1.79-.32-2.16.42a2.54,2.54,0,0,0-.21,1.22Z" transform="translate(0 0)"/><path d="M47.14,50a3.25,3.25,0,0,0-.71.15c-.14,0-.28,0-.42.08a1.18,1.18,0,0,0-.72.58c.62-.31.92,0,1.53.06C47.63,51,48,50,47.14,50Z" transform="translate(0 0)"/><path class="cls-42" d="M47,54.49l.47,1.1A11.36,11.36,0,0,1,45.2,58a9.29,9.29,0,0,1-1.07-1.28,3.11,3.11,0,0,1-.55-1.56,1,1,0,0,1,.18-.68c.4-.46.56.13.87.32C46.46,56,46.57,55,47,54.49Z" transform="translate(0 0)"/><path class="cls-28" d="M46.58,55.8a11.24,11.24,0,0,1,.16,2.59" transform="translate(0 0)"/><path class="cls-28" d="M45.65,55.76a10.41,10.41,0,0,0-.07,2.62" transform="translate(0 0)"/><path d="M46.24,55.79l0-.06a.27.27,0,0,1,.1-.1l.07,0,.1,0h.11a.3.3,0,0,1,.16.12l0,.06a.27.27,0,0,1,0,.14l0,.06a.27.27,0,0,1-.1.1l-.07,0-.1,0h-.11a.3.3,0,0,1-.16-.12l0-.06A.27.27,0,0,1,46.24,55.79Z" transform="translate(0 0)"/><path d="M45.41,55.72a.27.27,0,0,1,.07-.12l.05,0a.27.27,0,0,1,.13,0h.07l.1,0a.27.27,0,0,1,.16.24v.07a.27.27,0,0,1-.07.12l-.05,0a.27.27,0,0,1-.13,0h-.07l-.1,0a.27.27,0,0,1-.16-.24Z" transform="translate(0 0)"/><path class="cls-28" d="M45.3,71.13a8.91,8.91,0,0,0,.44-2.55" transform="translate(0 0)"/><path class="cls-28" d="M51.21,75.27a2.12,2.12,0,0,1,.26.63" transform="translate(0 0)"/><path class="cls-28" d="M48.35,58.87a18.41,18.41,0,0,0,.35,3.76,10.24,10.24,0,0,1,.37,4.08" transform="translate(0 0)"/><path class="cls-28" d="M45.3,63.25A2.53,2.53,0,0,1,43.39,65" transform="translate(0 0)"/><path class="cls-28" d="M47.39,63.33a1.94,1.94,0,0,0,1,1.52" transform="translate(0 0)"/><path class="cls-28" d="M40.55,62.29a27.86,27.86,0,0,0,2.66-3.64" transform="translate(0 0)"/><path class="cls-28" d="M41.64,67.84a4.09,4.09,0,0,1-1.31,1.35" transform="translate(0 0)"/><path class="cls-29" d="M20.68,91.07c-1.21-1.89.53-3,1.37-4.64a7.92,7.92,0,0,0,.56-2.21,3.27,3.27,0,0,1,1.06-2A2.13,2.13,0,0,1,26.13,82a1.86,1.86,0,0,1,.53,1.64,12.73,12.73,0,0,1-.43,2.44c-.19.76,0,.94.79,1.45.49.31,1,.76.87,1.26s-.6.65-.79,1c-.34.67.35,1.42.22,2.14-.21,1.18-2.34,1.48-3.52,1.37A4.42,4.42,0,0,1,20.68,91.07Z" transform="translate(0 0)"/><path class="cls-28" d="M23.88,92.67q.08-3.44.43-6.87" transform="translate(0 0)"/><path class="cls-28" d="M22,89.72a.69.69,0,0,0,.51.39" transform="translate(0 0)"/><path class="cls-28" d="M22.35,89.11l.3.25" transform="translate(0 0)"/><path class="cls-28" d="M24.59,83.72v.56" transform="translate(0 0)"/><path class="cls-28" d="M25.86,88.61l-.37.31" transform="translate(0 0)"/><path class="cls-28" d="M25.93,89.16l-.3.18" transform="translate(0 0)"/><path class="cls-28" d="M26.16,91.15l-.52.12" transform="translate(0 0)"/><path class="cls-28" d="M59.83,90.73a10.1,10.1,0,0,1,.84-3.47,9.59,9.59,0,0,0,.38-3.55" transform="translate(0 0)"/><path class="cls-28" d="M58.32,89.37l.45.23" transform="translate(0 0)"/><path class="cls-28" d="M58.56,87.55l.3.3" transform="translate(0 0)"/><path class="cls-28" d="M58.7,87l.38.15" transform="translate(0 0)"/><path class="cls-27" d="M69.31,61.87q-.09-.17-.17-.35a2.38,2.38,0,0,1,.64-2.86,1.36,1.36,0,0,0,.43-.36c.19-.3,0-.69-.1-1-.64-2.14,1.34-2,2.18-3.26a2.89,2.89,0,0,0,.2-1.59c0-.9.76-3.17,2-2.89s1.19,2.2,1.24,3.18a16.13,16.13,0,0,1,0,2.27A3.9,3.9,0,0,0,76,57.27c.35.62,1,1,1.39,1.62a3,3,0,0,1,.13,3,5.36,5.36,0,0,1-4.34,2.39A4.45,4.45,0,0,1,69.31,61.87Z" transform="translate(0 0)"/><path class="cls-28" d="M73.15,63.31c-.3-2.57.6-5.11,1-7.66.16-1,.25-2,.33-3.08" transform="translate(0 0)"/><path class="cls-28" d="M71.47,57.19l.23.38" transform="translate(0 0)"/><path class="cls-28" d="M71.77,56.59a1,1,0,0,0,.36.47" transform="translate(0 0)"/><path class="cls-28" d="M70.94,60l.38.23" transform="translate(0 0)"/><path class="cls-28" d="M74.41,51v.45" transform="translate(0 0)"/><path class="cls-28" d="M76,59.84l-.53.23" transform="translate(0 0)"/><path class="cls-28" d="M76,60.61l-.76.22" transform="translate(0 0)"/><path class="cls-29" d="M94.51,71.57c.6-.47.46-1.75.54-2.44a3.29,3.29,0,0,1,.63-1.76,1.21,1.21,0,0,1,2.26.54l.37,1.94a.91.91,0,0,0,.42.72A2.52,2.52,0,0,1,100,72.26c.34,2.3-2,5.15-4.38,4.35-1.51-.5-3.45-3.23-1.88-4.54a2.07,2.07,0,0,1,.26-.18A4.82,4.82,0,0,0,94.51,71.57Z" transform="translate(0 0)"/><path class="cls-28" d="M96.55,69.73,96.33,76" transform="translate(0 0)"/><path class="cls-28" d="M94.79,74.17l-.62-.56Z" transform="translate(0 0)"/><path class="cls-28" d="M94.42,73l.61.58" transform="translate(0 0)"/><path class="cls-28" d="M97.73,73.17l.74-.07" transform="translate(0 0)"/><path class="cls-28" d="M97.8,73.88l.41,0" transform="translate(0 0)"/><path class="cls-28" d="M97.43,71.54l.4-.19" transform="translate(0 0)"/><path class="cls-28" d="M96.41,68.14a2.17,2.17,0,0,0,.1.57" transform="translate(0 0)"/></g></g></svg>