<svg xmlns="http://www.w3.org/2000/svg" xmlns:xlink="http://www.w3.org/1999/xlink" viewBox="0 0 1289.94 1289.94"><defs><style>.cls-1,.cls-2,.cls-4{fill:#fff;}.cls-1,.cls-10,.cls-6,.cls-7,.cls-9{fill-rule:evenodd;}.cls-2{stroke:#15003e;stroke-width:16px;}.cls-176,.cls-177,.cls-178,.cls-179,.cls-180,.cls-181,.cls-182,.cls-183,.cls-184,.cls-185,.cls-2{stroke-miterlimit:10;}.cls-3{fill:#f9006c;opacity:0.06;}.cls-5{fill:#ffce08;}.cls-6{fill:#25e899;}.cls-14,.cls-7{fill:#eff4ee;}.cls-8{mask:url(#mask);}.cls-12,.cls-9{fill:#15003e;}.cls-10{fill:#0fce7c;}.cls-11{fill:#d8d2b5;}.cls-13{fill:#8e2abe;}.cls-15{fill:#bd313a;}.cls-16{fill:#f5dda1;}.cls-17{opacity:0.14;}.cls-18{opacity:0.18;}.cls-19{fill:#f3bfb9;}.cls-20{fill:#513939;}.cls-21{fill:#ebcbc8;}.cls-22{fill:#f1a79d;}.cls-23{fill:#f3bfb8;}.cls-24{fill:#f3beb8;}.cls-25{fill:#efc9c4;}.cls-26{fill:#f1c8c4;}.cls-27{fill:#eececc;}.cls-28{fill:#6a5052;}.cls-29{fill:#e9ceca;}.cls-30{fill:#e9cecb;}.cls-31{fill:#ebcdc8;}.cls-32{fill:#e5c4be;}.cls-33{fill:#6e5458;}.cls-34{fill:#f0d1ce;}.cls-35{fill:#efc1bb;}.cls-36{fill:#f0c0ba;}.cls-37{fill:#f5c1bf;}.cls-38{fill:#eec3be;}.cls-39{fill:#f3c3bd;}.cls-40{fill:#eab9b5;}.cls-41{fill:#f2bbb5;}.cls-42{fill:#6e575b;}.cls-43{fill:#e9cbc8;}.cls-44{fill:#eed0d0;}.cls-45{fill:#ecc1bd;}.cls-46{fill:#eecac7;}.cls-47{fill:#553736;}.cls-48{fill:#f3cfcd;}.cls-49{fill:#4b4140;}.cls-50{fill:#f3d1d2;}.cls-51{fill:#d6cdd0;}.cls-52{fill:#dd7d71;}.cls-53{fill:#f1a79c;}.cls-54{fill:#f9b8b0;}.cls-55{fill:#462f2e;}.cls-56{fill:#cfa29c;}.cls-57{fill:#eec2bd;}.cls-58{fill:#f2d0cb;}.cls-59{fill:#f2cdca;}.cls-60{fill:#e5bec0;}.cls-61{fill:#f5bfb9;}.cls-62{fill:#f1a69e;}.cls-63{fill:#efa69d;}.cls-64{fill:#e7c7c4;}.cls-65{fill:#dd7f73;}.cls-66{fill:#f7bcb8;}.cls-67{fill:#f0a59c;}.cls-68{fill:#dc7c72;}.cls-69{fill:#f0c2bf;}.cls-70{fill:#f3bfba;}.cls-71{fill:#f2bfb8;}.cls-72{fill:#edd2d4;}.cls-73{fill:#df8378;}.cls-74{fill:#fab7b0;}.cls-75{fill:#f0a399;}.cls-76{fill:#f0ada2;}.cls-77{fill:#e08178;}.cls-78{fill:#f1a79e;}.cls-79{fill:#e19088;}.cls-80{fill:#f1c5c2;}.cls-81{fill:#f2c7c3;}.cls-82{fill:#da7c73;}.cls-83{fill:#f2a8a0;}.cls-84{fill:#df8075;}.cls-85{fill:#f3a69d;}.cls-86{fill:#f3d5d4;}.cls-87{fill:#f3a69c;}.cls-88{fill:#f0bab6;}.cls-89{fill:#dd8376;}.cls-90{fill:#f2a598;}.cls-91{fill:#ebcac7;}.cls-92{fill:#63413f;}.cls-93{fill:#b4968e;}.cls-94{fill:#4e3b3d;}.cls-95{fill:#f0c0bb;}.cls-96{fill:#f3c0bb;}.cls-97{fill:#6d5456;}.cls-98{fill:#4e3637;}.cls-99{fill:#efcfcd;}.cls-100{fill:#eccfce;}.cls-101{fill:#d8b0aa;}.cls-102{fill:#f6c7c2;}.cls-103{fill:#d2c3bf;}.cls-104{fill:#f4bfb8;}.cls-105{fill:#f0c8c4;}.cls-106{fill:#efc4be;}.cls-107{fill:#f3c5bf;}.cls-108{fill:#eec2bf;}.cls-109{fill:#f7cac5;}.cls-110{fill:#ead1ce;}.cls-111{fill:#f0c7c4;}.cls-112{fill:#eec4c1;}.cls-113{fill:#d16f61;}.cls-114{fill:#f1a89e;}.cls-115{fill:#f7bbb2;}.cls-116{fill:#da9c94;}.cls-117{fill:#dc8074;}.cls-118{fill:#d57467;}.cls-119{fill:#f6ccc8;}.cls-120{fill:#d7746a;}.cls-121{fill:#eaa7a0;}.cls-122{fill:#dc9d97;}.cls-123{fill:#db7e70;}.cls-124{fill:#dd7d72;}.cls-125{fill:#db7e72;}.cls-126{fill:#d77667;}.cls-127{fill:#543b36;}.cls-128{fill:#f4a69f;}.cls-129{fill:#eea098;}.cls-130{fill:#4f393a;}.cls-131{fill:#edc8c5;}.cls-132{fill:#f4c0ba;}.cls-133{fill:#f4d0c8;}.cls-134{fill:#e39f99;}.cls-135{fill:#dc7d70;}.cls-136{fill:#eba59f;}.cls-137{fill:#d77a73;}.cls-138{fill:#eda69e;}.cls-139{fill:#f4b9b4;}.cls-140{fill:#dd8074;}.cls-141{fill:#f1c9c5;}.cls-142{fill:#f1a69c;}.cls-143{fill:#f3a49b;}.cls-144{fill:#f2c5c5;}.cls-145{fill:#ebccca;}.cls-146{fill:#ebd3d1;}.cls-147{fill:#dd9a90;}.cls-148{fill:#e1958b;}.cls-149{fill:#f2c2bd;}.cls-150{fill:#f2aea5;}.cls-151{fill:#f4bcb4;}.cls-152{fill:#f0aaa0;}.cls-153{fill:#f3aea6;}.cls-154{fill:#f1aba2;}.cls-155{fill:#e5958c;}.cls-156{fill:#f8bbb3;}.cls-157{fill:#dc7f73;}.cls-158{fill:#f7bdb8;}.cls-159{fill:#d67b71;}.cls-160{fill:#cd7267;}.cls-161{fill:#d77569;}.cls-162{fill:#df7b77;}.cls-163{fill:#dc7d79;}.cls-164{fill:#de8171;}.cls-165{fill:#cf7361;}.cls-166{fill:#6a4646;}.cls-167{fill:#dc7d72;}.cls-168{fill:#eea59c;}.cls-169{fill:#f3d1cf;}.cls-170{fill:#fde2dd;}.cls-171{fill:#dd7c72;}.cls-172{fill:#d67a6d;}.cls-173{fill:#e07d74;}.cls-174{fill:#e08071;}.cls-175{fill:#db7a6c;}.cls-176,.cls-177,.cls-178,.cls-179,.cls-180,.cls-181,.cls-182,.cls-183,.cls-184,.cls-185{stroke:#d67a6d;}.cls-176{fill:url(#linear-gradient);}.cls-177{fill:url(#linear-gradient-2);}.cls-178{fill:url(#linear-gradient-3);}.cls-179{fill:url(#linear-gradient-4);}.cls-180{fill:url(#linear-gradient-5);}.cls-181{fill:url(#linear-gradient-6);}.cls-182{fill:url(#linear-gradient-7);}.cls-183{fill:url(#linear-gradient-8);}.cls-184{fill:url(#linear-gradient-9);}.cls-185{fill:url(#linear-gradient-10);}</style><mask id="mask" x="417.7" y="196.13" width="375.13" height="508.47" maskUnits="userSpaceOnUse"><g id="a"><path class="cls-1" d="M417.7,196.13h296v97.29h-296Z"/></g></mask><linearGradient id="linear-gradient" x1="1009.27" y1="534.73" x2="1130.04" y2="534.73" gradientUnits="userSpaceOnUse"><stop offset="0" stop-color="#f4bfb8"/><stop offset="1" stop-color="#dc7d72"/></linearGradient><linearGradient id="linear-gradient-2" x1="1069.46" y1="564.85" x2="1129.86" y2="564.85" xlink:href="#linear-gradient"/><linearGradient id="linear-gradient-3" x1="977.93" y1="465.95" x2="1030.68" y2="465.95" xlink:href="#linear-gradient"/><linearGradient id="linear-gradient-4" x1="1074.77" y1="473.74" x2="1227.6" y2="473.74" xlink:href="#linear-gradient"/><linearGradient id="linear-gradient-5" x1="1030.1" y1="479.08" x2="1084.27" y2="479.08" xlink:href="#linear-gradient"/><linearGradient id="linear-gradient-6" x1="1127" y1="602.05" x2="1204.63" y2="602.05" xlink:href="#linear-gradient"/><linearGradient id="linear-gradient-7" x1="1128.6" y1="505.07" x2="1246.43" y2="505.07" xlink:href="#linear-gradient"/><linearGradient id="linear-gradient-8" x1="1079.1" y1="481.32" x2="1130.93" y2="481.32" xlink:href="#linear-gradient"/><linearGradient id="linear-gradient-9" x1="1008.6" y1="482.82" x2="1079.27" y2="482.82" xlink:href="#linear-gradient"/><linearGradient id="linear-gradient-10" x1="976.93" y1="471.58" x2="1027.97" y2="471.58" xlink:href="#linear-gradient"/></defs><title>Asset 2</title><g id="Layer_2" data-name="Layer 2"><g id="Layer_1-2" data-name="Layer 1"><polygon class="cls-2" points="908.81 8 381.13 8 8 381.13 8 908.81 381.13 1281.94 908.81 1281.94 1281.94 908.81 1281.94 381.13 908.81 8"/><ellipse class="cls-3" cx="639.56" cy="639.28" rx="503.81" ry="562.05"/><path class="cls-4" d="M829.38,402c0,138.15-63.76,211.4-180.77,211.4s-185.87-53.84-185.87-192S522.42,197.7,639.42,197.7,829.38,263.81,829.38,402Z"/><path class="cls-5" d="M518.71,228.67a202.36,202.36,0,0,0-41.65,26.17l-53.27,8c-1.5.22-3,.59-4.49.7-6.27.43-10.51-2.68-11.29-8.2s2.84-10.08,9.28-11.11q19.89-3.19,39.79-6.33,29.52-4.65,59.05-9.28A13.2,13.2,0,0,1,518.71,228.67Z"/><path class="cls-5" d="M783.6,254.46a207,207,0,0,0-41.29-25.76c17.94,2.7,35.88,5.37,53.81,8.12,15.39,2.36,30.76,4.87,46.15,7.18,7.52,1.13,11.42,5,10.78,11.07-.66,6.27-5.79,9.44-13.64,8.23-16.45-2.53-32.9-5.14-49.35-7.72C788.08,254.22,785.52,256.17,783.6,254.46Z"/><path class="cls-6" d="M485.57,537.94H779.46l24.91,9.5-18.74,67.07H504.07Z"/><path class="cls-7" d="M745.83,697.4h-202a39.8,39.8,0,0,1-39.8-39.8V614.51H785.64V657.6a39.8,39.8,0,0,1-39.81,39.8"/><g class="cls-8"><path class="cls-9" d="M511.27,621.71V657.6a32.65,32.65,0,0,0,32.6,32.61h202a32.65,32.65,0,0,0,32.61-32.61V621.7H511.27ZM745.83,704.6h-202a47.05,47.05,0,0,1-47-47V607.31h296V657.6a47,47,0,0,1-47,47Z"/></g><path class="cls-10" d="M593.23,537.94a125.53,125.53,0,0,1-46.42-194.77c23-27.89,167.81-29.31,190.8-3.35a125.52,125.52,0,0,1-43.54,198.11"/><path class="cls-9" d="M585.3,545.13a7.17,7.17,0,0,1-3.15-.73A138.48,138.48,0,0,1,526,345.32a7.18,7.18,0,0,1,9.92-2.19h0a7.2,7.2,0,0,1,2.18,9.94h0a124.09,124.09,0,0,0,50.34,178.38,7.2,7.2,0,0,1,3.33,9.61h0a7.19,7.19,0,0,1-6.47,4m116.05-.67a7.2,7.2,0,0,1-3.23-13.64A124.07,124.07,0,0,0,742.7,346.56,7.2,7.2,0,0,1,754.3,338,138.48,138.48,0,0,1,704.56,543.7a7.24,7.24,0,0,1-3.21.76"/><path class="cls-9" d="M509.67,607.31H780l44.5-175.17c-.48-98.67-80.9-178.79-179.69-178.79s-179.2,80.12-179.68,178.79Zm281.56,14.4H498.47L450.78,433.93V433C450.78,326,537.84,239,644.85,239S838.93,326,838.93,433v.9l-.22.88Z"/><path class="cls-9" d="M458,437.53a7.19,7.19,0,0,1-7.19-7.2V252.48a7.2,7.2,0,1,1,14.39,0V430.33a7.2,7.2,0,0,1-7.2,7.2m373.77,0a7.2,7.2,0,0,1-7.2-7.2V202.26a7.2,7.2,0,1,1,14.39,0V430.33a7.2,7.2,0,0,1-7.19,7.2"/><path class="cls-9" d="M472.53,517.41H453.24a35.62,35.62,0,0,1-35.58-35.57V409.77a35.61,35.61,0,0,1,35.58-35.57h8.18a7.2,7.2,0,1,1,0,14.39h-8.18a21.2,21.2,0,0,0-21.18,21.18v72.07A21.2,21.2,0,0,0,453.24,503h19.29a7.2,7.2,0,1,1,0,14.39m364.61,0H817.85a7.2,7.2,0,1,1,0-14.39h19.29a21.2,21.2,0,0,0,21.18-21.18V409.77a21.2,21.2,0,0,0-21.18-21.18H829a7.2,7.2,0,1,1,0-14.39h8.18a35.61,35.61,0,0,1,35.57,35.57v72.07a35.61,35.61,0,0,1-35.57,35.57"/><path class="cls-9" d="M460,409a7.19,7.19,0,0,1-5.15-12.22c51.54-52.79,120.08-81.86,193-81.86,68.67,0,134.29,26.2,184.76,73.78a7.2,7.2,0,0,1-9.87,10.47c-47.79-45.05-109.91-69.85-174.88-69.85-69,0-133.88,27.53-182.69,77.51A7.18,7.18,0,0,1,460,409M804.37,545.12H485.57a7.2,7.2,0,1,1,0-14.39h318.8a7.2,7.2,0,1,1,0,14.39"/><path class="cls-1" d="M710.44,381.39a32.74,32.74,0,1,1-32.74-32.73,32.74,32.74,0,0,1,32.74,32.73m23.39,48.94a13.24,13.24,0,1,1-13.22-13.22,13.23,13.23,0,0,1,13.22,13.22"/><path class="cls-9" d="M757.9,593c-11.42,0-17.33-7-21.65-12.16-4-4.75-6.1-7-10.61-7s-6.63,2.28-10.62,7C710.71,586,704.8,593,693.39,593s-17.33-7-21.64-12.16c-4-4.75-6.11-7-10.62-7s-6.63,2.28-10.62,7C646.19,586,640.28,593,628.86,593s-17.32-7-21.64-12.17c-4-4.75-6.1-7-10.61-7s-6.64,2.28-10.64,7C581.66,586,575.75,593,564.33,593s-17.34-7-21.65-12.17c-4-4.75-6.12-7-10.63-7a7.2,7.2,0,1,1,0-14.39c11.42,0,17.33,7,21.65,12.16,4,4.75,6.11,7,10.63,7s6.63-2.28,10.63-7c4.32-5.13,10.23-12.16,21.65-12.16s17.32,7,21.64,12.16c4,4.75,6.1,7,10.61,7s6.64-2.28,10.63-7c4.31-5.13,10.22-12.16,21.64-12.16s17.33,7,21.64,12.16c4,4.75,6.11,7,10.62,7s6.62-2.28,10.61-7c4.31-5.13,10.22-12.16,21.64-12.16s17.32,7,21.64,12.16c4,4.75,6.1,7,10.61,7a7.2,7.2,0,1,1,0,14.39"/><path class="cls-5" d="M553.41,196.18c-5.52,4.76-8.8,10.87-10.72,17.8q-40.35-6.39-80.71-12.79c-13.88-2.19-27.76-4.38-41.65-6.48-9.36-1.42-13.06-4.92-12.16-11.8.86-6.59,5.57-8.89,15.22-7.37q42.28,6.63,84.58,13.3C523.12,191.24,538.26,193.73,553.41,196.18Z"/><path class="cls-5" d="M718.28,214c-1.91-7-5.2-13.07-10.83-17.75q45.84-7.29,91.67-14.58,18.92-3,37.84-5.94c1.5-.23,3-.52,4.5-.62,6.71-.45,10.71,2.28,11.52,7.77.84,5.75-2.37,10.16-9,11.36-9.16,1.66-18.4,2.82-27.6,4.27Q767.33,206.19,718.28,214Z"/><path class="cls-11" d="M783.6,254.46c2.23,0,4.52-.44,6.47,1.12-1.28.39-2.9-.22-3.78,1.32A3.86,3.86,0,0,1,783.6,254.46Z"/><path class="cls-12" d="M809.73,256.9c41.67,37.52,68.61,84.83,90.08,135.74a483.88,483.88,0,0,1,28.92,92c1.25,6.15,2,12.39,3,18.6,2.76,18.13-4.93,31.47-19.19,41.79-3.78,1.57-7.44,3.41-11.14,5.14-4,1.89-6.36.74-7.51-3.81-2.42-9.58-4.69-10.21-12.4-3.68A50.6,50.6,0,0,0,870,555.77c-2.11,3.65-4.23,4.45-7.34.87a58.76,58.76,0,0,0-12-10.83c-3-2-3.65-5.19-4.5-8.33a671.72,671.72,0,0,0-7-73.72C834.22,431.07,827,399,813.66,368.52c-13.87-31.66-37.17-50.24-71.67-55-33-4.52-62.15,4.82-89,23.29-8.17,5.62-8.1,5.62-16.32-.18-22.62-16-47.74-25-75.5-24.22-22.48.64-44,6.1-61.4,21.54-11.91,10.54-19.35,24.33-25.62,38.77-13.72,31.56-19.8,65-24.71,98.8-3,20.38-4.45,40.91-5.89,61.45-1.3,9.47-.1,19-.7,28.44-.2,3.23.2,7.74-5.63,5.61-17.71-4.06-35.47-8-51.55-16.95C372.22,542.61,360.5,533.44,358,517c-1.58-10.41.44-20.84,2.57-31a515.89,515.89,0,0,1,56.54-149.2c17.43-30.72,38.35-58.69,65.14-82a9.79,9.79,0,0,1,3.53-4.56c11.76-8.87,23.5-17.77,38.11-21.61,5.7-1.77,11.28-4.17,17.11-5.14,6.09-1,7.7-4.12,6.88-9.55-.1-8.15,3-14.34,10.72-17.8,26.32-14.46,54.81-17.41,84.2-16.36,13.17.46,26.34-.41,39.53,1.23,17.17,2.14,33.4,6.78,48.54,15.15,7,2.87,11.05,9.56,10.83,17.75-.79,5.85,1.69,8.68,7.61,9.76,5.59,1,11,3.28,16.43,5,16.14,4.24,28.9,14.22,41.54,24.44A11.26,11.26,0,0,1,809.73,256.9Z"/><path class="cls-13" d="M910,729.94c12.5,23.17,25.91,45.85,37.09,69.74C961.31,830,974,860.82,981,893.82c6.46,30.61.75,57.19-22.15,79.55-24.68,24.11-54,41-84.66,55.94a504.92,504.92,0,0,1-49.67,21c-4.4-1.39-3.31-5.22-3.35-8.22-.21-13.21,0-26.42-.11-39.63,0-8.7-.5-9.14-8.52-6.36A605.39,605.39,0,0,1,694,1023.94a17.45,17.45,0,0,1-3.76.52c-7.91-.72-13.89,1.44-16.4,9.87-.71,2.37-3.46,3.58-5.06,5.41.84,2.42,3.16,2.75,4.6,4.11,3.49,3.28,5.35,7.06,2.63,11.5s-7,4.7-11.44,2.94a63.22,63.22,0,0,1-21.05-13.48c-4.14-4.09-7-4.36-11.4-.3a85.94,85.94,0,0,1-19.59,13.09c-4.83,2.46-10.12,3.39-13.64-1.89s-.85-9.74,4-12.79c3.46-2.18,3.05-4,.37-6.43a18.16,18.16,0,0,1-4.24-6.29c-1.65-3.63-4.42-5.08-8.37-5.48-40.37-4-79.64-13-118-26-3.33-1.13-6.94-1.88-9-5.26a14.51,14.51,0,0,1,1.93-13.6c3-2,5.88-.55,8.7.44A554.46,554.46,0,0,0,586,1006.46c6.61.87,11.87.91,15.92-6.33s13.08-9.41,20.76-3.85c10.84,7.84,19.31,7.25,30.12,0,8.78-5.9,16.18-3,21.92,6.16,2.94,4.69,6.64,4.76,11.07,4.27,35.94-4,71.05-11.86,105.59-22.42,7.78-2.37,15.38-5.21,23-8,3.58-1.29,6.48-3.07,6.52-7.38.14-14,.35-27.92-.13-41.87a8.65,8.65,0,0,0-1.73-5c-2.44-3.08-.93-5.66,1.05-8.19a492.6,492.6,0,0,0,49.76-78.23c15.62-30.28,29-61.5,34-95.64.6-4.1.07-8.76,3.63-12.06C909.09,727.67,909.41,729,910,729.94Z"/><path class="cls-14" d="M467.16,994.15c41.36,14.34,83.61,24.78,127.31,28.72,2.8.25,5.27.48,6.79,3.62,4.35,9,4.47,9,10.78,13.75-2.44,1.42-4.79,2.85-7.2,4.18-3.7,2-6.09,4.93-4,9.16,2.2,4.51,6.2,4.72,10.31,2.73,8.17-4,16.11-8.5,22.23-15.22,4.12-4.52,6.41-4,10.22.2,5.79,6.37,13.29,10.66,20.94,14.5,4.08,2,8.4,3.18,11-2s-.55-7.9-4.81-10c-2-1-3.92-2.22-6.52-3.71,6.21-3.21,10.49-7.52,11.62-14.42.47-2.88,3.46-2.51,5.59-2.7,46-4.16,90.5-14.69,133.89-30.2,5-1.78,6.43-.9,6.31,4.56-.32,15.06-.18,30.14,0,45.21,0,2.55-1.34,5.62,1.71,7.56-23.74,9.35-48.2,16.33-73.06,22a566.35,566.35,0,0,1-89.6,12.82c-45.65,2.87-90.13-3.73-134.39-13.62-1-.22-65.52-25.69-66.51-25.77"/><path class="cls-13" d="M808.38,648.55c10.43,6.69,18.09,16.41,26.81,24.92A448.63,448.63,0,0,0,899.39,725c2.66,1.78,5.79,3.15,6.61,6.75-3.63,17-5.86,34.32-11.77,50.82A478.61,478.61,0,0,1,828.6,905.18c-3.26,4.43-6.62,8.77-10,13.11-1.21,1.57-.83,2.72.68,3.73-1.23,3.5-4.55,3.68-7.36,4.36-43.17,10.5-86.23,21.42-130.43,27.08-28.66,3.67-57.08,1.83-85.49-2.11-2.47-.34-5-.68-7.1-2.23-3.3-3.11-1-6,.53-8.76,9.92-17.76,20.89-34.88,31.57-52.17,30.62-49.55,62.51-98.26,97.49-144.87C735.69,720.45,753.42,698,774,678c8.87-8.58,18-16.77,28.93-22.65C805.91,653.79,807.16,651.28,808.38,648.55Z"/><path class="cls-13" d="M739,627.45a8.85,8.85,0,0,1,8.21-2.55c7.64,1.4,15.31,2.61,23,3.89l17.13,5.93c7.5,3.91,15.07,7.72,21.12,13.83,1,3.18.64,5.71-2.7,7.5-20.49,11-35.59,28.05-50.73,45.13-22.58,25.5-42.6,52.94-62.15,80.74C658.1,831.28,626.42,882.6,594.93,934c-2.59,4.23-4.55,8.84-6.81,13.27l-1.52-.08c-2.9-1.71-6.32.28-9.23-1.3l-17.92-3.23c-4.61-3.28-3.23-8.22-2.86-12.43,2.15-24.34,8.9-47.53,19.2-69.59,8.13-17.42,16.31-34.87,26.82-51.06,1.14-1.76,1.83-3.57.64-5.59,11.64-18.28,23.68-36.3,35.36-54.55,6.41-7.36,11.62-15.65,17.7-23.27,19.66-26.34,39.8-52.29,61.72-76.8C725,642,730.21,633.07,739,627.45Z"/><path class="cls-13" d="M639.42,749.7c-4.46,12-13.64,21.18-19.65,32.28-3.29,6.08-7.55,11.62-11.22,17.5-1.34,2.14-2.23,4.55-5.3,4.54a989.24,989.24,0,0,0-61.39-84.24c-19.91-24.34-39.82-49-68-64.87-6.45-3.63,1.77-5.33.92-8.18-.05-3,2.61-3.9,4.4-5.47,4.46-2.62,8.19-6.87,14.06-6.44,12.85-5.33,26.31-8.16,40.06-9.85,3.06-.38,6.06-.71,8.15,2.28,9.27,6,15.39,15.09,22.51,23.19q37.57,43,70.92,89.43C637,742.76,640.27,745.36,639.42,749.7Z"/><path class="cls-15" d="M577.37,945.92c3.12.13,6.45-1.23,9.23,1.3C583.43,947.42,580.26,947.69,577.37,945.92Z"/><path class="cls-13" d="M500.71,981.82,497,980.7c-7.78-2.37-15.38-5.22-23-8-3.58-1.3-6.48-3.07-6.52-7.38-.14-14-.35-27.92.13-41.88a8.64,8.64,0,0,1,1.73-5c2.43-3.09.93-5.66-1.05-8.19a492.6,492.6,0,0,1-49.76-78.23c-15.62-30.28-29-61.51-34-95.65-.6-4.09-.07-8.76-3.63-12.05-1.59-.31-1.91,1-2.51,2-12.5,23.17-25.91,45.86-37.09,69.74-14.21,30.35-26.92,61.14-33.89,94.15-6.47,30.6-.75,57.18,22.15,79.55,24.68,24.11,54,41,84.66,55.94a507.27,507.27,0,0,0,49.67,21c4.4-1.38,3.31-5.21,3.35-8.21.21-13.21.05-26.42.11-39.64,0-8.69.5-9.14,8.52-6.35q10.94,3.8,22,7.13C498.65,993.72,499.68,987.77,500.71,981.82Z"/><path class="cls-13" d="M475.46,645c-10.43,6.69-18.09,16.41-26.8,24.91a449.48,449.48,0,0,1-64.21,51.56c-2.65,1.77-5.78,3.15-6.61,6.74,3.64,17,5.86,34.32,11.77,50.82a478.4,478.4,0,0,0,65.64,122.6c3.25,4.42,6.62,8.76,10,13.11,1.21,1.57.83,2.72-.68,3.72,1.23,3.5,4.56,3.69,7.36,4.37,43.17,10.49,86.24,21.42,130.43,27.08,28.66,3.67,57.08,1.83,85.49-2.11,2.48-.35,5-.69,7.1-2.23,3.3-3.12,1-6-.53-8.77-9.91-17.75-20.88-34.88-31.57-52.16-30.62-49.55-62.5-98.27-97.49-144.87-17.17-22.87-34.91-45.32-55.53-65.3-8.86-8.59-18-16.77-28.93-22.66C477.93,650.2,476.68,647.7,475.46,645Z"/><rect class="cls-14" x="461.42" y="1002.92" width="11.94" height="41.77"/><path class="cls-16" d="M468.71,1047.75l-3.33-6.41"/><path class="cls-14" d="M471.33,1049l-9.91-13.18v10.26Z"/><path class="cls-17" d="M910.68,729.17c12.5,23.17,25.91,45.85,37.09,69.74,14.21,30.34,26.92,61.14,33.89,94.14,6.46,30.61.75,57.19-22.15,79.55-24.68,24.11-54,41-84.67,55.94a504.74,504.74,0,0,1-49.66,21c-4.4-1.38-3.31-5.22-3.36-8.22-.2-13.21,0-26.42-.1-39.63,0-8.7-.51-9.14-8.52-6.36a605.56,605.56,0,0,1-118.49,27.8,17.54,17.54,0,0,1-3.77.52c-7.9-.72-13.88,1.44-16.39,9.88-.71,2.36-3.46,3.57-5.06,5.4.84,2.42,3.16,2.75,4.6,4.11,3.49,3.28,5.35,7.06,2.63,11.5s-7.05,4.71-11.44,2.94A63.26,63.26,0,0,1,644.22,1044c-4.13-4.09-7-4.36-11.39-.3a86.16,86.16,0,0,1-19.59,13.09c-4.84,2.47-10.12,3.39-13.64-1.89s-.85-9.74,4-12.78c3.46-2.19,3-4.05.37-6.44a18.21,18.21,0,0,1-4.24-6.28c-1.65-3.64-4.42-5.09-8.38-5.48-40.36-4-79.64-13-118-26-3.33-1.13-7-1.88-9-5.26a14.49,14.49,0,0,1,1.93-13.6c3-2,5.87-.55,8.7.44a554.46,554.46,0,0,0,111.75,26.12c6.6.87,11.86.92,15.91-6.33s13.09-9.41,20.77-3.85c10.83,7.84,19.31,7.25,30.12,0,8.77-5.9,16.17-3,21.91,6.16,2.94,4.69,6.65,4.76,11.08,4.27,35.94-4,71-11.86,105.59-22.41,7.77-2.38,15.38-5.22,23-8,3.59-1.29,6.49-3.07,6.53-7.38.14-14,.34-27.92-.13-41.87a8.67,8.67,0,0,0-1.73-5c-2.44-3.08-.93-5.66,1-8.19a493.31,493.31,0,0,0,49.76-78.23c15.62-30.27,29-61.5,34-95.64.6-4.1.07-8.76,3.63-12.06C909.76,726.9,910.08,728.21,910.68,729.17Z"/><path class="cls-18" d="M640.09,748.93c-4.47,12-13.65,21.18-19.65,32.28-3.29,6.08-7.56,11.62-11.23,17.5-1.33,2.14-2.22,4.55-5.3,4.54A988.54,988.54,0,0,0,542.53,719c-19.92-24.34-39.82-49-68-64.87-6.45-3.63,1.77-5.33.92-8.17-.05-3.05,2.6-3.91,4.39-5.48,4.47-2.62,8.2-6.87,14.06-6.44,12.86-5.32,26.32-8.15,40.07-9.85,3.06-.38,6-.71,8.15,2.28,9.27,6,15.38,15.09,22.51,23.19q37.58,43,70.92,89.44C637.66,742,640.93,744.6,640.09,748.93Z"/><path class="cls-17" d="M501.38,981.05l-3.72-1.12c-7.78-2.37-15.38-5.22-23-8-3.58-1.3-6.48-3.07-6.52-7.38-.14-14-.35-27.92.12-41.88a8.65,8.65,0,0,1,1.74-5c2.43-3.08.93-5.66-1.05-8.19a492.65,492.65,0,0,1-49.77-78.23c-15.61-30.28-29-61.51-34-95.65-.6-4.09-.07-8.75-3.64-12-1.58-.31-1.9,1-2.5,2-12.5,23.17-25.91,45.86-37.09,69.74-14.21,30.35-26.92,61.14-33.89,94.15-6.47,30.6-.75,57.18,22.14,79.55,24.68,24.11,54,41,84.67,55.94a504.84,504.84,0,0,0,49.67,21c4.39-1.38,3.3-5.21,3.35-8.21.21-13.21,0-26.42.1-39.63,0-8.7.51-9.15,8.52-6.36q11,3.8,22,7.13C499.32,993,500.35,987,501.38,981.05Z"/><path class="cls-14" d="M461.46,1045.55s0-104,.13-116.14c0-2.38-.86-5,1.23-7,18.13.06,52.66,9.71,52.66,9.71s30.25,6.34,45.43,9.23c5.93,1.09,11.83,2.41,17.77,3.51a59.24,59.24,0,0,1,9.21,1.66l5.79,1.33s47.2,7.32,73,5.39c52.18-3.9,102.36-18.3,153.07-29.84.45-.1.82-.54,1.22-.83,3,1.07,2.16,3.65,2.17,5.78.05,14.32-.09,28.64.1,43,.05,4-1,5.91-5.18,7.43a570,570,0,0,1-135.22,31.43c-3.48.37-5.11.22-6.52-3.6-3.52-9.55-11.14-12.23-20.62-8.12-5.83,2.53-10.32,9.54-15.53,9.74s-9.71-7.12-15.59-9.65c-9.65-4.14-17.25-1.75-20.78,7.77-1.62,4.38-3.81,4.11-7.35,3.73a524,524,0,0,1-120-27.24c-1.88-.66.9-.18-5.77-1.65"/><path class="cls-17" d="M739.62,626.68a8.87,8.87,0,0,1,8.22-2.55c7.64,1.4,15.3,2.61,23,3.89L787.92,634c7.5,3.91,15.07,7.72,21.13,13.84,1,3.17.64,5.7-2.7,7.5-20.49,11-35.59,28-50.73,45.13C733,725.91,713,753.35,693.47,781.15c-34.7,49.36-66.38,100.68-97.87,152.11-2.59,4.23-4.55,8.84-6.81,13.27l-1.52-.08c-2.9-1.71-6.32.28-9.23-1.3l-17.93-3.23c-4.6-3.28-3.22-8.21-2.85-12.42,2.15-24.35,8.9-47.54,19.19-69.6,8.14-17.42,16.32-34.86,26.82-51.06,1.14-1.75,1.84-3.57.64-5.59C615.56,785,627.59,767,639.28,748.7c6.41-7.36,11.62-15.65,17.7-23.27,19.65-26.34,39.79-52.29,61.72-76.8C725.63,641.27,730.87,632.3,739.62,626.68Z"/><path class="cls-19" d="M270.46,350.11c-3.17-1.78-3.81-5.29-5.54-8.06-7.35-4.77-9.94-13.24-6.58-21.48.46-.49.93-1,1.42-1.43,1.88-1,3.85-.5,5.8-.36,5.73.89,5.41,4.67,4.24,8.86,1.15,1.9.88,3.79.51,5.89-.6,3.3,4.56,8.12,7.14,6.37,4-2.72,8.9-3.18,12.69-6,2.34-1.75,4.95-3.5,1.22-6.67-1.36-1.15-1.35-3.28-1-5.15,1.61-3.89,4.71-7,5.65-11.27a3.34,3.34,0,0,1,1.7-.92c5.26,1.27,5.76,5.4,5.16,9.59a64.09,64.09,0,0,0-.41,8.74l.36,3.81c-.58,3.36-.46,7-3.34,9.52a13.28,13.28,0,0,1-2.55,1.22c-4.37,3.91-10.43,3-15.33,5.39-1.62.56-3.51,0-5,1.24C274.66,350.45,272.69,351.41,270.46,350.11Z"/><path class="cls-20" d="M221.68,414.2,242,392.15c1.37-4.08,4.7-4.49,8.19-4,2.22.28,4.33,1.33,6.64.83,2.53-.46,3.78-2.19,4.45-4.5.09-.6.22-1.17.36-1.75.77-3.61,4.15-6.29,3.59-10.35a8.28,8.28,0,0,1,3.37-6.1,3.28,3.28,0,0,1,2.9-.37c3.5,2.94.54,7.47,2.66,10.75a8.6,8.6,0,0,1-.83,4.63c-.48,1.15-1.9,1.61-2.13,2.94-3.13,5.1-7.95,8.59-12.1,12.72-2.89,3.28-6,6.08-10.79,6-4.43-.05-5.55,4.14-8,6.56-5.09,1.21-4.92,8.39-10.39,9.2C226.57,418.29,222.69,418.87,221.68,414.2Z"/><path class="cls-21" d="M231.39,488.83c-.54,9.58-6.82,16.29-12.15,23.32a6.89,6.89,0,0,1-8.22,1.52c-2.72-1.49-5.67-1.12-8.37-2.12.1-.32.19-.64.29-1a5.15,5.15,0,0,1,2.43-1.64c7.27,0,14-1,18.15-8.19,1.14-2,.69-3.32.32-5a5.14,5.14,0,0,1,1-2.54c.71-4.42-.17-8-4.8-9.88-1-.41-2.08-1.13-1.76-2.53a2.88,2.88,0,0,1,2.46-2c1.75-.41,3.54-.51,5.3-1,4.09-1.26,7.48-2.51,7.05-8.12-.3-4,5.65-6.85,3.06-11.78-.61-2.72-3-3.82-4.87-5.41-6.87-5.93-7.23-8.17-2.32-16a17.29,17.29,0,0,0,1.47-3,38.84,38.84,0,0,1,1.74-3.77,3.77,3.77,0,0,1,2.48-1.78,2.42,2.42,0,0,1,2,2.08c-1.34,3.72-2.79,7.41-4,11.18-1.76,5.48,4.07,7.29,6.06,10.82,3.87,6.86,4.84,11.72-.57,18.34-3.23,3.95-3,10.79-10.77,10.67C229,484.06,230.18,486.45,231.39,488.83Z"/><path class="cls-22" d="M307,388.06l-1.9.43c-3.5-.48-6.85-1.3-10.56-.68a13.86,13.86,0,0,1-14.83-6.63,4.15,4.15,0,0,0-3.75-2.31c-3-3,0-4.46,1.55-6.31,8.27-3.73,8.27-3.73,6.81-12a3.3,3.3,0,0,1,2.2-1.93c5.51-.82,10.7.51,16,2,8.9,2.48,10.53,8.08,4,14.8a16.63,16.63,0,0,1-2.09,1.74c-3.44,1.33-4.45-.3-3.13-3.17,1.17-2.56,1.31-4.3-1.48-5.49-2.54-1.08-5.28-2.37-7.42.47-1.58,2.1-3.86,4.17-3.08,7.21.38,1.48,2.1,1.56,3.42,1.8,3.63.66,6.86,2.36,10.23,3.76a10.77,10.77,0,0,1,1.76,1C306.53,384.07,307.64,385.7,307,388.06Z"/><path class="cls-23" d="M239.11,408.9c2.44-5.2,5.91-8.85,12.28-8.34,3.23.26,5.05-2.68,7.75-3.66-4.54,6.41,2.57,7.33,5.15,8.89,3.19,1.92,4.14,3.7,3.67,6.93,3.65,4.77,1.28,8.74-1.69,12.63-1.61.75-3.75.24-4.93,2a4.33,4.33,0,0,1-3.28-1.75c-1.18-1.68-.54-2.95.89-4,1.42-3.05,5.75-6.13,1.76-9.44-3.5-2.91-8.44-3-13-2.46-2.23.26-.82,2.17-.95,3.31-.54,4.63-2.3,7.4-7.54,5.37,1.32-2.65-3.31-3.53-1.86-6.22A20.41,20.41,0,0,1,239.11,408.9Z"/><path class="cls-24" d="M276.66,377.77c1.72-1.6,2.84-1.6,4,.79,3.39,6.7,8.88,10,14.88,7.62,4.36-1.69,6.79-.24,9.53,2.31-2,1.37-2.56,5.46-6.4,3.51-5.43.76-11.06,3.7-16-1.41-.53-4.45-5.57-5.48-7-9.24C275.23,379.94,276.51,379,276.66,377.77Z"/><path class="cls-25" d="M238.57,412.13c-1.82,2.15,2.91,3.57.64,5.77a4.2,4.2,0,0,1-.36,2.68c-.36.82-.77,1.62-1.07,2.45,1.69,5.4,5.67,8,10.95,8.93.59,0,1.19,0,1.79.06,3.45.51,5-2.64,7.62-3.87a3.15,3.15,0,0,1,2.69.46,4.47,4.47,0,0,1,1.18,1.48l.09,1c-3.37,4.44-8.54,5.45-13.45,6.56-2.54.58-5.58,0-6.51-3.27-.81-2.88-3.5-3.15-5.48-4.42l-2.2-1.77a6.66,6.66,0,0,1-4.57-1.06,3.85,3.85,0,0,1-1.12-1.55,3.92,3.92,0,0,1,1.62-4.23c3.08-1,3.15-3.93,4.11-6.3C235.24,413.2,235.36,410.46,238.57,412.13Z"/><path class="cls-26" d="M307,388.06l-3.43-4.52c.67-2.83,4.59-.14,5.21-3.08,2.73-3.21,2.46-7.06,2.07-10.79-.25-2.47-.34-4.47,2.68-5a2.4,2.4,0,0,1,1.81,2C320,378.88,318.33,383.12,307,388.06Z"/><path class="cls-27" d="M302.44,328.22c-1.61-2.11-2.9-4-1.56-7.05,2-4.41.69-8.23-3.43-10.95.18-3.31.18-3.31,4.67-1.47,2.45,1.58,4,5.6,8,2.85.52,4.24-3.12,7.35-3.14,11.45C307.21,326.3,304.5,327,302.44,328.22Z"/><path class="cls-28" d="M307,323.05c-2.34-4.75,0-8.22,3.14-11.45l7-8.12c4.93-1.36,3.38,2,3.16,4.35-1.52,3.71-5.68,4.45-8.13,7.12a14.46,14.46,0,0,1,3.21-2.24c.92-.43,2.15-1.36,2.61.39.35,1.31-1,1.78-1.81,2.51C312,316.72,311.06,321.8,307,323.05Z"/><path class="cls-29" d="M282.84,389.74c4.82,4.05,10.71.63,15.88,2.26-2.48,1.55-4.87,3.29-7.47,4.59-2.31,1.15-5.05,1.47-7-.54-3.76-3.88-7.22-8.05-10.8-12.1C277.68,384.12,281,385.68,282.84,389.74Z"/><path class="cls-30" d="M315.36,366.67l-2.18-1.7c-3.62,0-5.55-3.18-8.46-4.49-2.3-1.62-4-4.17-7.14-4.51a10.37,10.37,0,0,1-1.84-.29c-1.69-.68-3.67-1-4.38-3.05,7.07-3.14,11.16-2.43,14.89,3.31,2.35,3.63,7.29,2.39,9.51,5.83C315.62,363.41,315.49,365,315.36,366.67Z"/><path class="cls-31" d="M265.3,424.77c2.94-3.56,4.27-7.48,2.66-12,6.87,7,4.88,13.22-5.86,18.32l-.06-.15C261.57,428,264.49,427,265.3,424.77Z"/><path class="cls-32" d="M282.84,389.74,273.46,384l-2.22.23a2.84,2.84,0,0,1,1-3c1.22-.31,2.17-2.81,3.73-.47,2.49,2,4.95,4,7.45,6C285.31,388.18,284,388.93,282.84,389.74Z"/><path class="cls-33" d="M316.19,315.61c0-.74,1.93-2.16-.07-2.05-1.67.1-3.25,1.8-5.38,2.09l8.69-8.79c2.79,1.6,4,3.42.84,5.87-.29.36-.59.71-.89,1.07Z"/><path class="cls-34" d="M302.57,338.89c-1,1.08-1.75,2.63-3.67,2.23l3.9-9.09C304.13,334.36,302.89,336.61,302.57,338.89Z"/><path class="cls-35" d="M320.27,312.73c2.47-2.35-.29-4-.84-5.87.11-1.71,1.17-4.06-2.28-3.38,1.29-2.81-.26-5.34-.83-8a6.58,6.58,0,0,1,2.54-5.17c4-3.63,2.06-5.38-1.94-6.58-.87-.24-1.75-.45-2.61-.73-12.8-4.14-12.95-12.56-7.65-23.18,2-4,4.9-5.93,9.85-5.16,3.88.59,8-.25,12-.46,1.5,1,2.55,2.48,4.06,3.45,2.83,4-.2,9.51,3.47,13.28.61,4.51-4.39,7.8-2.69,12.53.95,1.22,1.87,2.44,1,4.09-5.28,3.4-11.88,5.91-9.76,14.34a15.31,15.31,0,0,1,.2,1.79,17.76,17.76,0,0,0,.6,5.08,8.56,8.56,0,0,0,1,1.25c.86.69,1.84,1.2,2.71,1.86a10,10,0,0,0,2.11,1.41c3.37,1.19,7.46.34,10.08,3.6a1.25,1.25,0,0,1-1.06,1.3c-6.33,2.59-12.14,3.37-15.71-4.26C323.57,312,321.65,313.23,320.27,312.73Z"/><path class="cls-36" d="M230.88,421.74c-.48,1.33-1,2.66-1.45,4-1.77,2-3.7,2.91-6.05.87-.6-5.3-2.23-6.3-6.51-3.9a31.27,31.27,0,0,0-3.78,2.83c-5.07,4-5.08,4.7-.44,9.05a4.38,4.38,0,0,1,1.14,2.4c.3,2.61-.92,5.29.47,7.84C215,448,218,451.53,213,454c-2.11-.33-3.68-1.63-5.3-2.85-1.3-1-2.58-2.12-3.88-3.16-.76-.56-1.52-1.14-2.31-1.64-2.68-1-3.67,1-4.44,2.81-.85,2,1.08,2.61,2.26,3.5,1.6,1.2,3.34,2.28,3.62,4.53-.45,2-1.9,2.7-3.66,3.09-3.86.57-6.67-1.3-9.13-4-4.77-4.7-4.6-9.84-1.36-15.25,5.86.15,11.13-4.41,12.28-10.62,1.35-7.24,3.7-13.4,12.8-13.47,2.72,0,4.23-4.4,7.77-2.74,2,3.3,6.14,1.75,8.78,3.68C231.51,419.06,232.76,420.23,230.88,421.74Z"/><path class="cls-37" d="M346,265c1.47-8.16,8.51-8,14.18-8.65,7.4-.89,17.13,7.62,19.25,14.77,1.78,6-2.36,9.14-5.06,13.09-1.23.49-2.42.66-3.39-.52-2.27-2.17-.53-5.3-1.86-7.7a5.35,5.35,0,0,1-.83-1.63c1.89-8.62,1.78-8.67-7.62-8.75-3.22,0-6.31,0-9.12,1.82,3.31,7,3,7.78-5.17,14a2.59,2.59,0,0,1-2.76-.26c-1.38-1.95-.95-4.25-1.37-6.37C341.36,270.39,345.26,268.39,346,265Z"/><path class="cls-38" d="M188.45,398.24c5.76-1.16,11.4-.43,14.05,5.15,2.87,6,2.8,12.58-1.61,18.32a6.92,6.92,0,0,1-7.21,2.69c-2.19-.39-4.34-1.55-6.66-.67-2.52.09-4.7-1.24-7.1-1.73-5.66-3.24-4.24-8.73-4.37-13.74a6.06,6.06,0,0,1,3.81-4.21c3.2-.39,3.93,1.76,3.78,4.15-.34,5.21,2.63,7.57,7,8.92a7.32,7.32,0,0,1,1.75-.1c3-1.14,7.31-1.19,6.21-6-1-4.44-3.64-7-8.84-5.38-3.11.95-6.06-.85-9-1.65-1.15-.36-1.21-1.22-1-2.2.94-2.89,4.78-2.25,5.95-4.88a2.14,2.14,0,0,1,1.64-.61A2.19,2.19,0,0,1,188.45,398.24Z"/><path class="cls-39" d="M257.77,390.32c-1.74,0-3.39,1.92-5.13.63-4-2.95-7.31-1.29-10.6,1.2l-10.51-8.44c-1.08-4.43-2.76-8.71-3.37-13.27h0c.09-1.59,1.06-2.74,1.93-3.95,2.46-1.79,4.8-1.13,7.1.33,6,3.63,3.56,8.23,1.18,12.93,3.47-.38,6.26,1.35,9.33,1.66,1.65.55,3.54.89,3.35,3.56,1.37-2.9,2.63-5.9,5.29-7.9a6.65,6.65,0,0,1,1.78-.86c2.32-.25,4.75-.88,6.22,1.78-.35,2.1-3.11,3.59-1.55,6.17v0A10.5,10.5,0,0,1,257.77,390.32Z"/><path class="cls-40" d="M269.52,366.88c-1.71,1.61-3,3.39-2.73,5.94a2.75,2.75,0,0,1-.85,1.47c-2.15-.09-3.45-2-5.41-2.51-1.36-.65-2.81-1.17-3.56-2.63-.25-.89-.46-2,.25-2.52,3-2.12-1.16-1.43-.9-2.43a5.85,5.85,0,0,1-.74-1.14,5.07,5.07,0,0,1,.26-5.1c2.14-3.66-2.33.42-2.31-1.84,0-.84-2.92-1.69-3.88-3.32,1.09-4.65,5.14-3.33,8.18-4,2.69,3.26,6.91,3.08,10.37,4.61C272,357.55,273.3,362,269.52,366.88Z"/><path class="cls-41" d="M260.33,319.3l-.72.94a1,1,0,0,1-1.05-.37c-.18-.32-.24-.53-.16-.63,1.06-5.2,2.8-10,7.35-13.32a2.93,2.93,0,0,1,1.58-2.46c3.58-1.6,6.57-5.47,11.23-2.91a6.14,6.14,0,0,1,2.75,2.7c.93,3-2.8,3.6-3,6-2.11,3.92-6.32,6.07-8.41,10a4.86,4.86,0,0,1-3.54.11C264.36,318.84,262.34,319.48,260.33,319.3Z"/><path class="cls-42" d="M180.37,421.45c3.16-2,4.74.62,6.65,2.28-.84,5.92-4.42,12.12,1.81,17.3.77,4.68-3.39,10.22,2.44,14,.55.58.49,1.09-.19,1.51-2.17.24-3.85-.91-5.56-2-1.35-1.17-1.33-2.81-1.49-4.39-.15-3.2-1.89-5.64-3.87-8C175,435.25,178.58,428.36,180.37,421.45Z"/><path class="cls-43" d="M257.83,348.76c-2,2.88-5.94,1.58-8.3,3.73l-.93.22c-4.5-1-8,.66-10.81,4.08s-5.48,6.61-8.31,9.85a2.23,2.23,0,0,1-1.9-1.95c.4-10.5,8.35-18.1,18.09-17,3.19.35,5.61-3.32,8.94-1.41-.54,2.16,1.13,1.41,2.09,1.59Z"/><path class="cls-44" d="M258.4,319.24l1.21,1c-2.06,6.45-1.47,12.49,2.72,18,.93,1.22,1.73,2.54,2.59,3.81-8.13.15-13.88-9.54-10.33-17.45.85-1.88,3.53-3.43.95-5.86A2.43,2.43,0,0,1,258.4,319.24Z"/><path class="cls-45" d="M281.2,304.23l-3.2-2.58c1.34-3.85,4.22-2,6.66-1.78a10.65,10.65,0,0,1,.87-.91c6.06-1.64,8.57,3.58,12.33,6.38l4.26,3.41c-1.36,1.1-4.18-2.4-4.67,1.47l0,0a8.85,8.85,0,0,1-2-.14,9.61,9.61,0,0,1-1.77-.85c-2.38-1.87-4.92-3.12-8.11-2.89C283.82,306.49,281.76,306.73,281.2,304.23Z"/><path class="cls-46" d="M371.45,283.59l2.88.58c-5.14,5.81-10,12-19.14,10.87a11.22,11.22,0,0,0-4.54-5.23c4.06-2.58,8.91-.62,13.11-2.33,2.92-.13,4.37-2.87,6.79-3.86Z"/><path class="cls-47" d="M269.52,366.88c2.27-4.76-.74-9-1.32-13.51.76-1.08,1.51-2.17,2.26-3.26,2-.65,4.4-.45,6-2.22,3.4,2.87-1.65,5.46-.25,8.28.21,3.6-1.91,6.42-3.14,9.54a2.19,2.19,0,0,1-1.58.92Z"/><path class="cls-48" d="M284.66,299.87,278,301.65c-4.29-3.2-6.38,4.27-10.44,2.15,0-2.61,3.11-3.56,3.24-6.1C276.17,293.63,280.53,296,284.66,299.87Z"/><path class="cls-49" d="M332.55,257.69c-3.49,1.36-4.11-.65-4.06-3.45,1-2.74,2-5.51,3.07-8.22.51-1.24,1.25-2.68,2.91-2.14s1.24,2.08.88,3.4Q333.94,252.49,332.55,257.69Z"/><path class="cls-50" d="M228.16,370.44c3.06,3.93,4.64,8.24,3.37,13.27C226,380.41,225,375.94,228.16,370.44Z"/><path class="cls-27" d="M297.86,305.34c-1,.45-2.78,1-2.92,0-.87-5.69-5.86-4.92-9.41-6.4C292.33,295.88,294.66,301.46,297.86,305.34Z"/><path class="cls-51" d="M270.8,297.7c.45,2.84-2.11,4.09-3.24,6.1l-1.81,2.12C265.51,302,268.89,300.3,270.8,297.7Z"/><path class="cls-50" d="M227.58,364.69l2.07,1.69c.49-.12.81,0,1,.26s.18.5.09.61c-.85,1.06-1.7,2.12-2.54,3.19C228,368.52,227.77,366.61,227.58,364.69Z"/><path class="cls-40" d="M256.7,347.84c-1.36.45-3,2.16-4,1s1.44-1.52,1.91-2.58Z"/><path class="cls-52" d="M266.22,318.66l3,.35c1.2-.39,2.37-.67,3,.86,1.11,1.94,3.65,1.37,5.21,3.22-1.37-2.3-5-1-5.26-4.18.88-1.76,2.71-2.27,4.22-3.16,8-4.72,11.75-2.51,12,7-.14,9-3.46,13.21-11.23,13.66-3.41.19-7.19.28-6.37-5.21a3.31,3.31,0,0,0-2.69-4.1c-1.06.14-2.84-.67-1.86-1.17,6.49-3.33,2.18-4.67-.91-6.35C265.23,318.91,265.51,318.6,266.22,318.66Z"/><path class="cls-53" d="M268.15,327.13c2.59-1,4.49-1.13,3.91,2.63-1.05,6.8,3.52,5.59,7.26,4.76,6-1.34,8.72-5.21,7.74-11.42a1.54,1.54,0,0,1,.76-1.42,3.39,3.39,0,0,1,3.2.95c.58,3.86,2.53,6.58,6.74,6.76-4.56,7.46-13.08,7.24-18.46,12.39-1.95,1.87-6.11-.15-8.86-2.84-2.07-2-4.56-3-1.71-6.17C270.44,330.86,268.93,329,268.15,327.13Z"/><path class="cls-34" d="M297,341.44c-1.16,4.65-4.88,6.79-8.69,8.84-3.57.62-6.74,4.38-10.77,1.38a4,4,0,0,1,3.49-3.55c.9-1.15-.83-4.54,1-3.66C288.11,347.35,292,342.24,297,341.44Z"/><path class="cls-54" d="M291,322.63a2.7,2.7,0,0,1-2.93-.67c1.15-5.23,3.42-9.71,8.21-12.57l1.12.85C297.58,315.56,294,318.91,291,322.63Z"/><path class="cls-55" d="M281,348.11l-3,4.32a3,3,0,0,1-2.77,3.08c-1.46-2.85,2.26-4.84,1.28-7.62C278.15,344.6,279.55,347.06,281,348.11Z"/><path class="cls-56" d="M266.22,318.66l-.84.95a4.8,4.8,0,0,1-5.05-.32A7.28,7.28,0,0,1,266.22,318.66Z"/><path class="cls-57" d="M276,380.74l-3.73.47c.58-1.23-.5-2.91,1-3.89-1.79-7.79,2.94-13.18,7-18.83a10.25,10.25,0,0,1,1-1.72,45.86,45.86,0,0,1,6-5.19,11.37,11.37,0,0,1,1.9-.61l2.13,1.66,5.19,2.49c-2.05,4.8-6.85,2.74-10.27,4.1l-1.7,2.09c.91,5.14-.19,9.3-5.58,11.35-.46,1.85-4,2.3-2.34,5.11A2.82,2.82,0,0,1,276,380.74Z"/><path class="cls-58" d="M281.39,358.74c.46,3-1.95,4.11-3.56,5.86-3.26,3.56-2.95,8.5-4.51,12.72-4.18-3-.1-7.31-1.8-10.69a9.11,9.11,0,0,1,.68-.95C274,361.63,276.59,358.75,281.39,358.74Z"/><path class="cls-59" d="M230.88,421.74l-.42-3.86c4.2-1.72,2.76-8.88,8.65-9a2.82,2.82,0,0,1-.54,3.23c-3.54,1-3.14,4.25-3.59,6.85S234,423.46,230.88,421.74Z"/><path class="cls-60" d="M265.53,374.06l1.26-1.24c2.26,5.05-4.2,7-4,11.34-2.66-2.64.11-4.16,1.24-6C263.92,376.56,263.59,374.89,265.53,374.06Z"/><path class="cls-60" d="M257.77,390.32l5-6.18C262.57,387.38,261.06,389.58,257.77,390.32Z"/><path class="cls-61" d="M236.84,458.08c1.42,2,2.79,3.69.66,6.36s-2.65,5.89-3.13,9.43c-.86,6.4-7.77,4-11.7,6.13-.77.42-2.17-.32-3.56.89,1.61,2.3,6,.95,6.47,4.43.39,2.64,2.46,5.2.49,8-3.48-.19-7.44.72-7.09-5.21.17-3-2.64-4-5.32-3.43-2.21.42-4.33,1.1-6.58.48-2.75-.71-4.73,4.34-7.88,1-3.66-3.87-3.34-5.25,2.34-9.07,2.83-.65,3.46-2.6,3.05-5.17,1.07-4.87-4.3-9.37-.83-14.37a4.51,4.51,0,0,1,3.37,1.45c1,2.49,4,2,5.62,3.53-.18,10.78-.15,10.78,11.36,10,3.14-.22,5.44-1.13,4.52-4.95-1.5-6.23,2-8.67,7.31-9.79Z"/><path class="cls-62" d="M207.5,483.69c2.05,1.12,3.6-.31,5.41-.88,3.84-1.2,8.65,1.49,8,3.83-1.73,5.93,3.64,4.47,5.2,6.67l-1.74,2.05c-1.33,1.45.49,6.46-4.39,3.88-.26-1.77-2.94-2.24-2.38-4.44,1.37-2.1-1.6-3.29-1.14-5.19-.67-1.5-2-1.39-3.28-1.22-4.92,1-5.32,4.83-4.09,8.19,1.5,4.08,4.47-.1,6.79.23,1.63.2,3.14.62,4.08,2.14.31,4.68-2.57,7.32-8.65,8.13-3.41.45-6-1.36-8.85-2.65-5-2.26-1.94-5.07-.68-7.65,1.45-3-2.2-4.87-1.41-7.64C202.63,487.2,203.46,483.34,207.5,483.69Z"/><path class="cls-61" d="M200.46,490.32c2.87,1.5,5.66,4.13,3,6.83-5.43,5.5.38,6.46,2.94,7.87,4.28,2.36,12-1.55,13.49-6.2l0,0c1.53.34,3.25,1.07,2.21-1.86-1-2.72.49-2.48,2.25-1.58,2.21,3.94-2.88,13.76-8.06,14.33-3.49.38-7.08,2.14-10.7.49-3.22,0-4.92-2.48-6.93-4.41A14.27,14.27,0,0,1,195.37,491C196.87,489.23,198.46,488.09,200.46,490.32Z"/><path class="cls-61" d="M214,453.75c.41-3.06,1.2-6.21-1.89-8.5.2-2.06,1.35-3.7,3.35-3.47,5.77.68,8.44-3.17,11.33-7,1.31-1.73,2.76-3.93,5.37-1.52-7.44,9.52-4.52,16.47,5.31,21.86,2,1.08.57,2.15-.58,3h-.11c-1.33-.11-3.1,0-3.84-.79-5.45-5.92-11.91-4.17-18.37-2.77Z"/><path class="cls-63" d="M232.11,433.26c-3.29-1-3.34,2.1-4.63,3.64-3.2,3.84-5.6,9.09-12.31,6.24-1.36-.57-2.26,1.1-3.11,2.11-.19-2.71-.5-5.43,1-7.92a1.22,1.22,0,0,1,.87-1.42c3.29.52,6.67,1.33,8.77-2.44a26.54,26.54,0,0,0,1.74-3.19c.81-1.38,1.76-2.55,3.58-2.45a27.94,27.94,0,0,1,4.72,2.48A2.63,2.63,0,0,1,232.11,433.26Z"/><path class="cls-64" d="M198.08,504.19l7.49,6-2.68,1.24c-3.83-5.9-9.09-3.29-14.07-2.34a1.45,1.45,0,0,1-1.27-1.28,6,6,0,0,1,1-2.85,13.87,13.87,0,0,1,3.37-3.67C195.27,499.45,196.51,502.16,198.08,504.19Z"/><path class="cls-36" d="M232.76,430.31c-1.87.6-3.94,1.68-4.12-1.74a1.69,1.69,0,0,1,1.61-1.79c1.81-.81,3,.39,4.21,1.37Z"/><path class="cls-65" d="M302.36,382.71c-4.41-.55-8.06-3.82-12.76-3.49a2.39,2.39,0,0,1-2.76-2.37c.12-4.78,2.73-9.09,6.33-11,4.2-2.21,8.52,1.08,11.76,4.15,1.55,1.46-.27,2.6-1.61,3.6s-3.29,2.65.47,3.14a2,2,0,0,1,2.26,1.18,2.24,2.24,0,0,1-.42,1.73C304.58,380.72,303,381.22,302.36,382.71Z"/><path class="cls-66" d="M306,378.39l-2.16-1.63c-.07-2.22,2.22-2.55,3.23-3.95,3.5-4.87,2-9.11-3.85-10.32-5.62-1.16-11.26-2.19-16.89-3.27,2.29-4.21,7.44-1.24,10.27-4.1,2.8-.26,4.62,1.61,6.06,3.44s1.32-.72,2.06-.43l8.51,6.84c-2.82,2.7.19,5.7-.45,8.57s.82,6.52-3.58,7.51l-.71-.44A9.1,9.1,0,0,1,306,378.39Z"/><path class="cls-66" d="M279,372.66c3.93-2.77,3.47-7.69,5.58-11.35,2.7,1.8,3,3.92,1.82,7C285,372,282.46,372.91,279,372.66Z"/><path class="cls-24" d="M302.36,382.71c-2.43-3.86.23-3.5,2.72-3.28,1.54,0,3.11-.08,4,1.53l0,.09c.07,2.26,1.13,5.89-3.08,2.13-.4-.36-1.64.22-2.48.36Z"/><path class="cls-67" d="M261,430l-2.14-1.6c-2.24.15-4.17,1.61-6.47,1.57-7.74.83-11.12-4.8-14.82-10,.55-.72,1.11-1.43,1.66-2.14,5,.8,7.16-2.18,5.9-6.26-1-3.29.56-3.17,2.41-3.62,4.85-1.21,9.55.4,13.85,1.92,3.81,1.35,4,5.47,1.59,8.48-1.08,1.35-1.49,2.94-2.58,4.17-3.35-.38-2.75-2.93-2.93-5.16s-1.76-3.2-3.74-3.19c-2.8,0-3.77,2.44-4.54,4.48-1,2.72,1.39,2.94,3.1,3.19,2.33.35,4.07,1.9,6.18,2.63l3.21,2.55C263.63,428.57,262.74,429.4,261,430Z"/><path class="cls-68" d="M258.45,424.54c-2.62.85-4.83-1.24-7.24-1.08-3,.2-6.18-1.42-4.91-3.59,1.66-2.83,2.12-8.35,6.81-7.76,2.88.36,9.25.33,5.63,7.07-.74,1.38.61,2.49,1.64,3.41C259.61,423.12,257.84,422.66,258.45,424.54Z"/><path class="cls-69" d="M261,430a2.61,2.61,0,0,0,.68-2.94c.07-2.57,2.23-1.86,3.64-2.32.52,2.9-2,4.18-3.26,6.12C261.67,430.62,261.32,430.33,261,430Z"/><path class="cls-70" d="M333.85,286.74c2.87.66,6.22-.5,8.46,2.68.49.7.86-1,1.22-1.71a1.75,1.75,0,0,1,1.48.12,1.56,1.56,0,0,1,.57,1.34c1.05,4.62,8.59,5.81,6.41,12.14,0,7.25-4.85,11.73-9.37,16.38-.52.54-1.19,0-1.6-.59l-12-2.69c1.08-4,2.36-7.07,7.29-3.36,2.51,1.88,4.91.58,5.58-2.4.54-2.42,1.14-4.81,1.76-7.2a2.79,2.79,0,0,0-2.12-3.67,18.85,18.85,0,0,1-7.62-3.82c-3-2.35-4.8.38-5.89,3.14-.94,2.38-.52,5.63-4.08,6.32C321.36,295.83,321.35,291.14,333.85,286.74Z"/><path class="cls-71" d="M345.58,289.17l-.92-.77a16.93,16.93,0,0,1,.56-4.65c-.84-.82-1.66-1.63-1.37-3l2-.23c2.44-.52,4.37.55,6.27,1.9,2.44,1.73,5.08,2.93,8.21,2.37a7.11,7.11,0,0,1,3.83,3.47c-4.27,2.57-8.84,2.44-13.5,1.52Z"/><path class="cls-72" d="M341,317.1c5.36-4.08,8.36-9.8,11-15.79,1.66,8.91-4.69,18-11.8,16.91Z"/><path class="cls-73" d="M230.25,426.78c-.54.6-1.07,1.2-1.61,1.79-1.82,0-2.61,1.34-3.49,2.57-1.37.47-2.53-.46-3.9-.62.14,2.08,2.69,1.94,3.18,3.59-2.88,3.64-5.83,6.89-10.41,2.12-4-6.6-1.91-12.07,5-13.47,3-.61,4.92.13,4.59,3.67,2.08,1,3.81-.85,5.78-.7Z"/><path class="cls-69" d="M249.66,433.28c-6.85-.14-13.54-5.51-13.86-11.12,2.46-.73,4.88-1.5,5.61,2.24C242.3,429.05,249,428.34,249.66,433.28Z"/><path class="cls-74" d="M249.66,433.28c-3.21-3.28-8.13-4.81-9.63-9.91-.52-1.76-2.86-.56-4.23-1.21l1.74-2.12c1.33.21,3.81.37,3.83.66.44,7.79,6.95,6.82,11.72,8.32-.26,2.13-1.82,3.21-3.42,4.26Z"/><path class="cls-69" d="M249.67,433.28a4.46,4.46,0,0,1,3.42-4.26,5.6,5.6,0,0,1,5.75-.59C256.42,431.25,254.71,435.43,249.67,433.28Z"/><path class="cls-57" d="M304.67,358.13c-.78.61,1.22,3.42-1.29,2.26s-4.58-3.47-6.83-5.27C300.73,352.12,302,357.13,304.67,358.13Z"/><path class="cls-75" d="M324,303.42c2.43-2,1.61-5.06,2.48-7.58s2.1-4.2,5-4.75c2.77-.52,4.47,0,5.07,2.82.5,2.39,2.52,1.35,3.87,1.74s3.31,0,3.89.72c3.92,5.24-.82,10.14-1.46,15.13-.29,2.19-5,4.05-8.64.16-2.95-3.21-3.2,2.13-5.15,2.75-.07-.6-.13-1.2-.19-1.8-.72-2.19-2.5-1.68-4.1-1.62-.34-.27-.68-.54-1-.83,1.29-2.21.08-4.5.22-6.74Z"/><path class="cls-76" d="M317.56,278.77c-5.75-.77-10.72-11.38-7.53-16.08.13-.19.37-.53.42-.5,4.73,2.2,8.85-2.42,13.25-1.34s6,5.6,7.25,9.17c.94,2.77-.51,6.5-5.28,4.93-.68-1.93-.61-4.06-1.47-5.95-1-2.3-2.86-2.74-5.1-2-2.49.82-3,2.46-2,4.81S319.51,276.3,317.56,278.77Z"/><path class="cls-77" d="M317.56,278.77c.27-1.63-.36-3-.94-4.53-.94-2.45-4.86-5-1.31-7.52,2.26-1.63,5.87-3.91,8.61-1.46s4.2,5.92,1.75,9.69C323.46,277.28,320.21,277.38,317.56,278.77Z"/><path class="cls-70" d="M324.76,311c1-.8,1.58-2.54,3.17-1.89s1.16,2.18.93,3.51Z"/><path class="cls-70" d="M324,303.42c1.23,2.29,2.25,4.57-.22,6.74C323.65,307.91,322.51,305.62,324,303.42Z"/><path class="cls-78" d="M223.65,426.43c-1.41-4.07-4.64-2.8-6.44-1.26s-6.06,2.56-4.22,6.59c.68,1.48,1.45,2.79,1,4.47l-.94,1.1a18.4,18.4,0,0,0-2.24-2.34c-1.55-1.16-3.24-2.16-4.87-3.22,2.59-1.59,1.52-5.87,4.83-6.8s4.47-5.22,8.31-5.31c2,0,4.33-.16,5.69,1.41C226.48,423,224.89,424.81,223.65,426.43Z"/><path class="cls-79" d="M202.64,456.84c-1.67-1.12-3.21-2.61-5-3.29-2.71-1-4.17-3.8-2.61-4.94,2.12-1.56,2.1-7.89,7.22-4.23.62,2.13-1.8,3.39-1.59,5.5,2.8.22,1.84-3.15,3.68-3.75l4.3,3.37c-.22,3.58,3.18,3.47,5,4.93.75.5,1.59.92,1.85,1.9a2.38,2.38,0,0,1-.78,1.59c-3.65,1.56-6.71-2.18-10.31-1.16A9.4,9.4,0,0,1,202.64,456.84Z"/><path class="cls-80" d="M204.11,470.45c-4.11-2.61-.49-8.77-5.11-11.14l3.64-2.47c.3-.29.6-.58.91-.85,1,.53,1.18,1.13.16,1.84,0,4.92,3.1,9.31,2.51,14.34A1.8,1.8,0,0,1,204.11,470.45Z"/><path class="cls-81" d="M209.72,447c-5.35-1.64-7.55-4-7.62-8.18,0-1.11-.25-2.34,1.33-2.58a1.85,1.85,0,0,1,2.32,1.82C205.75,441.08,207.8,443.26,209.72,447Z"/><path class="cls-82" d="M204.29,446.13c.61,2.6.54,5.31-2,6.53s-3.5-1.78-5.32-2.81l5.28-5.47Z"/><path class="cls-61" d="M213.09,454.78c-1.71-.56-3.47-1-5.13-1.71-4.8-2-.36-2.51.63-3.57l5.36,4.25v0C214.17,454.54,213.88,454.88,213.09,454.78Z"/><path class="cls-83" d="M360.94,285.68c-3.67,2.19-6.85,0-9.52-1.78-1.81-1.25-3.79-2.13-5.58-3.35a15.49,15.49,0,0,1,4.38-4.15c2.67-1.61,2.58-4.24,1.09-6.46-2.53-3.76-2.63-3.51,1-5.1,4.68-2,9.66-1.15,14.42-1.25,3.79-.07,5.72,3.22,4.24,7.24-.52,1.42-2.05,2.46-1.47,4.27-3,2.07-4.21.37-3.81-2.29.66-4.5-2.72-2.63-4.25-2.74-3.8-.27-4,3-4.42,5.61s1.27,2.74,3.34,2.94c3.84.37,6.94-1.44,10.24-2.77,1.82,2.41-.7,5.3.84,7.74h-.08C367.93,284.44,365,287.85,360.94,285.68Z"/><path class="cls-84" d="M370.61,275.85c-2.26,6.39-8.35,3.47-12.59,4.91-1.56.54-4.67-1.92-3.34-3.78,2.05-2.86-.89-8.91,5.27-8.85,2.86,0,5.91-.14,8.25,1.19,2.08,1.83-5.78,5.1,1.31,5.78C369.86,275.36,370.23,275.61,370.61,275.85Z"/><path class="cls-85" d="M180.16,403.94c4.15-1.21,8.28.83,12.87-.81,3.35-1.21,6,4,7.07,7.69.9,3,.42,5.11-3.52,6.35-2.29.71-3.77,3.28-6.09.32a4.94,4.94,0,0,1,2.8-4.29c1.23-.6,1.71-1.36.86-2.58a3,3,0,0,0-3.48-1.39c-1.23.33-2,1.11-1.67,2.44.45,1.95,1.58,3.73,1.48,5.82-.46.74-.6,2.92-1.82,1.44-2.34-2.85-8.11-2.75-7.3-8.28.35-2.38,1.33-4.84-1.19-6.69Z"/><path class="cls-86" d="M180,402c-.34-3.95,2.78-3.89,5.27-4.56.93,1.21,2.5,2.71-.58,2.9C182.88,400.48,181.24,400.53,180,402Z"/><path class="cls-87" d="M249.53,352.49c7.42.71,7.56,6.41,8.13,11.83-.08,1.82-1.17,2.25-2.75,2a4,4,0,0,1-1.48-1.28c-.65-2.09-1-4.18-.18-5.12-.2.35-1.61.45-2.94.82-7,2-7.81,3.61-5.73,10.61,1.24,4.19,3.13,3.87,5.6,1.07,1.45-1.36,3.35-1.52,5.16-2,1.84,0,3.72-.19,5.44.77,1.93,3.24-.61,4.35-2.7,5.67-.3.34-.59.68-.88,1-3,1.66-4.78,5.79-9.18,4.91-3.43,2.29-6.35-4.12-10.36-.66-.48.41-.8-4.46.36-6.07,2.41-3.35,2.06-5.6-1.33-7.64-4.37-5.11-3.85-8.95,2.11-12.51a21.85,21.85,0,0,1,10.72-3.49Z"/><path class="cls-40" d="M249.52,352.49c-2.13,2.21-5,3-7.73,4.12-7.06,2.84-8.25,5.52-5.1,11.88-1.77-1.53-3.63-2.55-6-1.24l-1-.87c1-5.42,9.88-15,14.55-16.06C246.69,349.76,247.9,351.42,249.52,352.49Z"/><path class="cls-88" d="M258.08,376.92c-.66-2.34,3.54-2.62,2.23-5.24,0-.79.32-1.1,1.1-.92a4.24,4.24,0,0,1,4.12,3.3l-1.5,4.09Z"/><path class="cls-88" d="M248,382.86c3.74-.36,5.23-4.93,9.18-4.91-6.55,8.47-6.55,8.47-9.14,9.05C245.79,385.64,253.36,384.2,248,382.86Z"/><path class="cls-88" d="M256.65,383.33a4.69,4.69,0,0,1,0-1.83,1.52,1.52,0,0,1,2.2-.8c.24.12.24,1.17,0,1.6C258.47,383,257.91,383.82,256.65,383.33Z"/><path class="cls-89" d="M254.81,365.6a3.12,3.12,0,0,0,2.85-1.28c.85-.06,2-.48,2.48-.08.88.79-.22,1.51-.82,1.82a3.6,3.6,0,0,0-2,3.1l-.91.45C253.32,369.27,253,367.87,254.81,365.6Z"/><path class="cls-89" d="M261.41,370.76l-1.1.92-4.82-.31a1.85,1.85,0,0,1,1.56-2.15l.25-.06Z"/><path class="cls-90" d="M296.3,309.39A51.78,51.78,0,0,1,288.09,322l-1,1.13c-.15-9-2.05-10-10-5.19-1.54.93-3.68.18-4.89,1.87h0l-3-.75c0-5.79,5.94-6.81,8.57-10.5,3.78-1.75,7.55-2.55,11.19.31,2.2,1.73,4.2-.34,6.31-.27C295.63,308.82,296,309.1,296.3,309.39Z"/><path class="cls-54" d="M295.29,308.55c-2.37,3-4.61,4.69-8,.79-2.63-3-6.48,1.23-9.53-.83-3.25-4.93,3.61-1.78,3.41-4.28C286,305.36,291.78,303.25,295.29,308.55Z"/><path class="cls-91" d="M172.08,444.77c5,.5,8.21,5.55,13.5,5.3.07,1.3.13,2.59.2,3.88a3.76,3.76,0,0,1,.07,3.93c-1.55,2-3.48,3.66-5.18.53C178.09,453.66,174.24,449.76,172.08,444.77Z"/><path class="cls-92" d="M185.23,456.92c.18-1,.37-2,.55-3,2.29-.66,3.38,1.29,4.92,2.27.69,2.33-.41,3.92-2.16,5.24-1,2.19-2.58,1.89-4.29.94C182.13,460.14,185.41,458.84,185.23,456.92Z"/><path class="cls-93" d="M345.22,283.75c.76,1.66.89,3.25-.56,4.65-.38-.22-.76-.45-1.12-.69C343,285.93,344.09,284.82,345.22,283.75Z"/><path class="cls-37" d="M360.94,285.68c3.6-.1,6.6-3.18,10.43-2.08-2.39,1.59-2.51,6.68-7.22,4.69C362.82,287.74,360.63,288.24,360.94,285.68Z"/><path class="cls-94" d="M146.13,545c-7,3.27-13.9,7-21.4,9.18-2.91-3.23,1.1-2.61,2.06-4.15-5.46,3.2-10,7.41-15.41,10.16-3,1.56-7.39,4.48-8.44-2.4a7.85,7.85,0,0,1,1.59-2.74,60.15,60.15,0,0,1,20.94-12.55c15.85-5.85,28.56-14.91,34.4-31.58a6.69,6.69,0,0,1,1.55-2.23,5,5,0,0,1,1.92-1.09c2.59.3,5.3.25,7.2,2.54C167,525,158.33,536.21,146.13,545Z"/><path class="cls-94" d="M23.59,608.58c-1.67,7.59-3.79,15.09-4.31,22.89,3.79,2.14,2.32-1.64,3.61-2.91-1.93,6-5.06,11.38-6.57,17.24-.85,3.32-2.76,8.19,4.19,7.72a7.8,7.8,0,0,0,2.32-2.15,60.12,60.12,0,0,0,7.69-23.16c2.27-16.75,8.34-31.13,23.34-40.46a6.66,6.66,0,0,0,1.84-2,4.73,4.73,0,0,0,.64-2.11c-.85-2.46-1.39-5.12-4-6.47C38.58,583.85,29.5,594.76,23.59,608.58Z"/><path class="cls-94" d="M28,612.12c-1.66,7.59-3.78,15.09-4.31,22.9,3.8,2.13,2.32-1.65,3.61-2.92-1.93,6-5,11.38-6.56,17.25-.86,3.31-2.76,8.18,4.18,7.72a7.84,7.84,0,0,0,2.32-2.16,60,60,0,0,0,7.69-23.16c2.27-16.74,8.34-31.12,23.34-40.45a6.7,6.7,0,0,0,1.84-2,4.72,4.72,0,0,0,.64-2.1c-.85-2.46-1.39-5.13-4-6.48C43,587.39,33.92,598.31,28,612.12Z"/><path class="cls-95" d="M74.52,592.62l-5.14-2.08c-2.23-.83-4.83-.72-6.59-2.69-1-1.38-1.2-3.33-3.12-3.94-1.31-.47-2.71-.23-4.06-.45a2.45,2.45,0,0,1-1.14-1.15c-.14-.84-.11-1.68-.17-2.52-.78-1.62-1.07-4.15-3.8-1.95a7.42,7.42,0,0,1-1.22,1.28,3,3,0,0,1-3.46.1c-2.58-3.21.18-9.48-6.59-10.54a18.53,18.53,0,0,0-6.5-.27c0-3.53-3.38-1.29-4.66-2.67-2.85-3.68-4.08-7.4-.29-11.24,1.5-1.53.94-3.28.61-5a3.69,3.69,0,0,1,.5-1.77c3.24-1.44,4.23-4.41,5.1-7.48A9.26,9.26,0,0,1,37.48,537c3.68-.75,5.46-4.15,8.36-6a3.22,3.22,0,0,1,1.78-.67,23.08,23.08,0,0,1,12.92,8.85c1.27,1.74,3.15,3.62.14,5.53-2.6.26-4.27-1.62-5.73-3.12-4.24-4.38-7.79-3.82-12.07.14-4.43,4.09-4.48,7.16.84,10.28,2.12,1.24,4.64,1.82,6.24,3.92a4.85,4.85,0,0,1,.85,3.92c-1.42,2.74-3.62,2.9-6.18,1.88-6-1.34-6-1.34-8.7-5.05.54,3.73.87,3.94,7.4,4.78a16.29,16.29,0,0,1,10.14,7.44c.52.34,1,.72,1.5,1.09,3.5,2.47,4.07,8.1,9.35,8.64a4.44,4.44,0,0,1,1.36,1.23c1,2.93,2.79,5.08,6.06,5.62a5.77,5.77,0,0,1,1.75.56,8.47,8.47,0,0,1,2.38,2.9C76.42,590.52,77,592.14,74.52,592.62Z"/><path class="cls-96" d="M99,577.56a3,3,0,0,1-.57.92c-3.15,4.91-8,8-12.58,11.22l0,0c-1.27,0-2.56.27-3.79-.29a6.06,6.06,0,0,1-2.81-3.68c-.84-3.3.52-5.15,3.75-5.75a3,3,0,0,1-.5-2.25c.94-1.47,2.46-1.88,4-2.43,4.46-1.61,5.33-5.87,1.81-9.23-1.79-1.71-4.07-2.84-6-4.5-4.83-4.21-6.18-4-10,1.22-3.67,5-7.54,5.32-14,1.27-.13-6.19,7-7.47,8.49-12.54a13.54,13.54,0,0,1,8.42-4.63A9.91,9.91,0,0,1,82,549.29c5,3.15,8.83,7.47,12.27,12.18a8.45,8.45,0,0,1,4.52,1.58C104.06,567.82,99.3,572.71,99,577.56Z"/><path class="cls-97" d="M97.57,564l-4-1.56c-2.65-3.25.06-5,2.19-6.27,3-1.73,6.06-1.89,8,1.79,1.87,5.34,4.69,1.88,7.1.67,5.92-3,10.32-8.93,17.83-9.1.34,3.16-5.3.94-4,4.68-2.59,2.74-6.79,3.39-8.83,6.83-2.2.32-2.12,2.6-3.24,3.86-4.17,4.69-7.53,4.88-12.17.32A3.48,3.48,0,0,0,97.57,564Z"/><path class="cls-98" d="M97.57,564c.77-.32,2.12-1.06,2.22-.91,5.32,7.44,9.5,3.53,13.72-1.21.49-.55,1.58-.57,2.39-.84a.65.65,0,0,1-.62.79,42.71,42.71,0,0,1-9.11,11.39c-1.78,2.46-4.72,3-7.18,4.38-3.29-2-1-4.16-.08-6.22C100.2,568.54,100.92,565.9,97.57,564Z"/><path class="cls-99" d="M85.84,589.7c0-1.1.07-2.2.11-3.29,6.46,1,6.62-7.95,12.47-7.93C97.08,587.64,93,591.28,85.84,589.7Z"/><path class="cls-100" d="M61.64,591.3l-5.39-4.24c-1.77-1.26-2.31-2.58-.23-4.06a2.43,2.43,0,0,1,3.72-.27c3.12,0,1.61,3.49,3.42,4.47,1.62,2,5.4-.12,6.22,3.34-2,2-4.86,2-7.34,2.88C61.26,592.84,61.58,592.05,61.64,591.3Z"/><path class="cls-94" d="M106.17,573.18l9.11-11.39C113.31,566.44,110.72,570.59,106.17,573.18Z"/><path class="cls-99" d="M74.52,592.62c1.11-1.39.82-2.6-.47-3.68,1.56-2.48,3.38-1.27,5.18-.37a2.89,2.89,0,0,1,.82,1.78C78.61,592.08,77.1,593.66,74.52,592.62Z"/><path class="cls-101" d="M80.05,590.35l-1-1a3.09,3.09,0,0,1-.1-3.34,2,2,0,0,1,1.54-.67l2.35,3.6A1.8,1.8,0,0,1,81.1,591Z"/><path class="cls-99" d="M81.1,591l1.73-2.1a2.72,2.72,0,0,1,3,.75C84.5,591,83,591.78,81.1,591Z"/><path class="cls-102" d="M177.53,512.25c-3.44-.76-3.8-3.39-3.81-6.25.19-1.32,1.1-1.19,2-1,2.82,1.81,5.39-.24,8.07-.55a8.11,8.11,0,0,1,2.78-.18c1.21.27,2.47.45,2.9,1.9l-1.68,2.17c-.53,3.76-3.61,1.8-5.53,2.46C180.76,511.4,178.72,510.46,177.53,512.25Z"/><path class="cls-103" d="M182.3,510.77l5.53-2.46c.34.25.67.51,1,.77C187.56,513.18,185.06,512.48,182.3,510.77Z"/><path class="cls-104" d="M163.63,508.14l-1.17.76c-1.12-.07-1.76-1.94-3.2-.83-4.59-.08-9.16-.21-12.75-3.72-1.95-2.5-4.65-4.36-6.14-7.25-1.65-2.14-1.9-4.84-2.87-7.56-1.61,4.13,3.7,6.9,1.64,10.8a5.22,5.22,0,0,1-1.28,1.41c-1.41.79-3.46,1.68-4.33.38-3.58-5.35-9.42-9.9-7.25-17.65a20,20,0,0,1,1.64-5.9c2-4.08,5.78-5.31,8.77-2.11,3.22,3.44,5.85,3.92,9,.64s-.19-5.21-1.68-7.51a4.94,4.94,0,0,1-.93-2.52,3.09,3.09,0,0,1,1.8-2.16c4,.35,4,5.17,7.07,5.8-5.1-2.15-2.29-6.87-2.68-10.82-3.38-5.95-2.41-9.75,5-16.15,2-1.74,3.95-4.69,7.52-3.71,2.48,3.61,7.43,1.87,10.26,4.73,4.67,3.06,7.51,7.53,9.6,12.54,1.74,4.18,2.39-.08,3.55-.39.53,1.76-1.92,3.16-.62,5,1,2.23,3,.61,4.46,1.19,1.48,1.58,3.54,1.92,5.48,2.51a2.2,2.2,0,0,1,.69,1.66c-1,3.16-2.67,5.25-6.41,4.49s-5.41,1.39-5.33,4.45c.07,3.23,3.43,3.9,5.81,4.92,1.49.64,2.71-.68,2.78-2.16.16-3.42,2.56-5.78,3.7-8.72a4.15,4.15,0,0,1,3.19-2.17l3.19,2.54a1,1,0,0,1-.08,1.23c-.23,1.17,1.08.31,1.26,1,.66,1.87.59,3.52-1.34,4.63-.4.77-.6,1.87-1.23,2.26-1.75,1.08-6.7,1.59-.23,3.3.31.09.09,2.15.11,3.3,2.7-.11,3.32-5.08,6.84-2.65-3.32,1.17-4.95,4.14-7,6.63a4.15,4.15,0,0,0-4.71,1.48c-1.58,1.94-3.71,1.87-5.9,1.66-2-.3-3.5-1-3.1-3.37,0-.41-.05-.69-.22-.76a1.41,1.41,0,0,1,.06,1.16c-1.84,1.84-3.79,1.87-5.85.53-.14-5.81-8.13-8.13-6.59-14.8.25-1.07-1.17-1.19-2-.89-2.31.83-5,.13-7,1.95-2.12,2.69,2,2.65,2,4.4a6.25,6.25,0,0,1,1,3.66,2.27,2.27,0,0,1-1.43,1.19,16.53,16.53,0,0,1-3.93-.8c-8.09-1.69-11.74.14-13.79,7.75-.91,3.4,1,6.07,4.69,6.79,2,.4,4-.29,5.88-1.06a12.11,12.11,0,0,1,5.91.54,3.65,3.65,0,0,1,1.82,2.44C167.2,504.88,166.52,507.17,163.63,508.14Z"/><path class="cls-105" d="M103.82,557.92q-8.14-4.67-10.24,4.48c-.82.81-2.42,1.55-2.45.12-.15-6.55-6-8-9.59-11.51-.51-5-4.35-4-7.54-4.21-10.4-6.13-12.28-11.92-7-21.33-2.79-2.1-5-4.6-5.76-8.15a4,4,0,0,1,2.16.12,17.58,17.58,0,0,1,6.6,5.31c2.78,3.72.35,8.41,2.3,12.28,2.09,4.61,6.25,5,10.17,4.08,5.9-1.44,7.08-1.22,7.33,5.09.15,3.62,1.37,5.27,4.66,6.37,2.79.93,5.24,1.12,6.11-1.94.67-2.37,2.78-4.88-1.22-7.54-3.59-2.39-7.41-5.32-9.61-9.48.52-2.6,3.43-3.89,3.61-6.68,3.62-5.68,6.8-3.11,9.92.52-1.53,4.71-1.34,8.89,3.12,12.18,1.82,1.35,2.43,3.62,2.71,5.88,1.72,5.1-2.59,8.41-3.77,12.65C104.85,556.74,104.33,557.33,103.82,557.92Z"/><path class="cls-106" d="M73,482.83c2.35-5.15,7.38-8.21,11.78-9.9,5-1.94,4.81-3.49,3.48-7.55-1.28-3.87-.69-7.67,4.26-9,1.88,2.21,1.81,4.83,1.44,7.44-.46,3.3,1.14,4.39,4.14,4.12,3.81-1,7.85-3.47,7-7.13S99.57,457.3,95.9,458c-1.32-.07-2.64-.16-3.35-1.55,5.65-7.2,13.85-7.11,17.9.6a6.44,6.44,0,0,0,5,3.78c1.64.19,3.3.9,2.81,2.69-.65,2.32-3.23,1.63-5,2.22-4.17,1.5-5.64,5.57-8.07,8.67-2.62,3.35-5,6.87-8.72,9.14a2.68,2.68,0,0,1-1.91-.09c-6.64-6.74-6.64-6.74-16.72,1.44a4.23,4.23,0,0,1-3.88-.27A2.54,2.54,0,0,1,73,482.83Z"/><path class="cls-107" d="M112.85,464c1.42-.93,3.49,1,4.49-.92.17-.34-1.22-1.48-1.89-2.25,9.31-.12,18.06,5.19,27.6,2.86a1.72,1.72,0,0,1,2.07,1.63l-1.71,2.13c-1.8-1.33-2.47-.47-2.65,1.36-3.15-.67-2.67,3.11-4.68,3.84-2.89,1-5.17,3.32-8.17,4.14-2.7-2-5.82-3.37-8.19-5.81-.27-.86-.06-2-1.41-2.21a5.82,5.82,0,0,1-1.56-.29,8.29,8.29,0,0,1-2.21-1.33A4.09,4.09,0,0,1,112.85,464Z"/><path class="cls-108" d="M73,482.83l1.16,1c4,2.59,3.87,5.63,1,9a13.5,13.5,0,0,0,.21,6.91,4.69,4.69,0,0,1-.15,1.86,10.87,10.87,0,0,1-3.42,4.54,9.48,9.48,0,0,1-2.53,1.25c-2.14.54-3.42,2.61-5.58,3.12a1.26,1.26,0,0,1-1.28-1.06c.14-.66,0-1.63.45-1.95,5.54-4.36,4.91-10.05,3.93-16.07C66.08,486.86,70.46,485.37,73,482.83Z"/><path class="cls-109" d="M145.12,465.27l-2.07-1.63a6.75,6.75,0,0,0,6.22-3.74c2.76,3.86.28,9.31,4.36,12.79C149.35,471.51,147.44,468.18,145.12,465.27Z"/><path class="cls-110" d="M32.79,541.9c-.58-7,4.77-8.23,9.66-9.9l1-.88c.37,3.39,0,3.79-5.23,6.29-1.14,1.41-2.29,2.82-3.43,4.24C34.1,541.71,33.5,542.27,32.79,541.9Z"/><path class="cls-111" d="M62.44,509.46l1,.82c4.22,3.21,2.32,5.65-1,7.91l-1.16-.87C58,514.17,60.4,511.84,62.44,509.46Z"/><path class="cls-112" d="M38.2,537.41c1-2.75,5.69-2.37,5.23-6.29l2.66-1.28c.46-.13.78-.06.94.21s.21.47.13.57C44,532.66,44,538.87,38.2,537.41Z"/><path class="cls-113" d="M272.2,319.77c2.23,1.71,7-.59,7.31,5.92-2.3-3.37-6.69-1.67-7.3-5.93Z"/><path class="cls-113" d="M276.33,329.12a3.66,3.66,0,0,1,.45-1.45c.64-.78,1.54-.78,1.94.21.16.4-.26,1.21-.65,1.6S276.94,330.09,276.33,329.12Z"/><path class="cls-113" d="M275.73,326.21c-1-.08-1.65.05-2.06-.24s-.28-1-.41-1.46c.61,0,1.3-.28,1.78-.06S275.43,325.39,275.73,326.21Z"/><path class="cls-58" d="M282.14,357.68c-.06-4.26,3.08-5,6.27-5.7C287.05,354.69,284.27,355.83,282.14,357.68Z"/><path class="cls-114" d="M213.09,454.78c.3-.32.59-.66.87-1,9-6.17,16-1.43,22.78,4.29-4.74,2.46-9.83,4.72-5.58,11.56a2.43,2.43,0,0,1-.2,1.91c-1.14,2.37-15.38,4.52-18.54,2.4-4.33-2.91-2.25-6.51-.34-9.92.18-.32,0-.87-.07-1.32a1.65,1.65,0,0,1,1-1.44c2.57-.32,3.18,1,2.66,3.24-.57,2.4.65,3.35,2.81,3.46s4.64,0,5.66-2.59c.74-1.85,1.61-3.84.55-5.81-.65-1.22-2-.73-3.06-.58-2.57.37-4.94.23-6.42-2.36Z"/><path class="cls-115" d="M203.71,457.83c-.05-.61-.11-1.23-.16-1.84,4.26-3.75,7.12,1.68,10.81,1.64,1.5,2.13,1.26,2.56-1.91,3.51-2,.34-3.77-.32-5.62-.78Z"/><path class="cls-116" d="M206.83,460.36a4.37,4.37,0,0,1,4.79.28c.85-.12,1.26.24,1.24,1.1-.27.33-.56.65-.85,1C210.18,462.15,207.62,463.23,206.83,460.36Z"/><path class="cls-117" d="M215.9,497.53c-2.48,1.1-4.42,4.81-7.66,2.34s-1-6-1-9c0-4.51,3.81-3.42,6.45-4C214.86,490.36,212.86,494.47,215.9,497.53Z"/><path class="cls-118" d="M215.9,497.53c-6.84-2.28-3-6.76-2.19-10.63,1.65-.27,3.36-.71,4.11,1.5a5.15,5.15,0,0,0,.65,5.83c.47,1.53.93,3,1.4,4.57l0,0Z"/><path class="cls-117" d="M218.47,494.23c-2.58-1.68-2.93-3.61-.65-5.83C218,490.34,218.25,492.29,218.47,494.23Z"/><path class="cls-119" d="M190,492.45l5.77-.65a46.63,46.63,0,0,0,2.33,12.39c-2.24.39-2.61-3.26-5.1-2.35-1.95-.56-1.43-2.46-2.07-3.73C190.78,496.19,187.64,494.76,190,492.45Z"/><path class="cls-120" d="M224.43,434.11c-6,1.3-5-3.5-7.4-7.21,4.44.5,5.95,3,8.12,4.24A2.54,2.54,0,0,1,224.43,434.11Z"/><path class="cls-121" d="M192.54,498c.15,1.28.3,2.56.44,3.85l-3.47,4.3-3-.92c.39-4,.28-7.53-5.49-6.18-1,.24-1.16-1-1.37-1.87.85-5.24,4-5.78,7.75-3.23C189.17,495.12,191.69,495.59,192.54,498Z"/><path class="cls-122" d="M309.12,381l-4-1.53c.29-.34.59-.69.87-1C308.14,377.86,309.14,378.77,309.12,381Z"/><path class="cls-123" d="M338.49,299.21c4.29,2,3,5.72.83,8.7-3.41,4.7-6.64-.73-8.85-1.76-3.44-1.6-.46-6.48.76-8.71C333,294.21,335.82,297.37,338.49,299.21Z"/><path class="cls-124" d="M212.86,461.74l-1.24-1.1c1.27-.68,3.57-.42,2.74-3,.28-.34.57-.68.87-1,1.73.4,3.59,1.39,5.18,1.06,2.46-.51,5.81-3.31,6.57.65.69,3.53.65,8.56-3.24,10.77-3.06,1.74-7.05,1.28-10.28-.7-1.61-1-.48-2.41.37-3.42C215.23,463.32,215.12,462.24,212.86,461.74Z"/><path class="cls-80" d="M195,466.9l-1.18-1.16a2.91,2.91,0,0,1-3.21-2.64c5.68-3.15,6.11,2.42,8.34,5-.89,1.12-1.79,2.23-2.68,3.34a1.9,1.9,0,0,1-1.23-.81,4.29,4.29,0,0,1,0-2.25A9.27,9.27,0,0,0,195,466.9Z"/><path class="cls-61" d="M190.64,463.1l3.21,2.64c-3.44,3-3.93-.45-5.12-2.36-.16-.7.11-1.07.85-1.05C189.92,462.6,190.28,462.86,190.64,463.1Z"/><path class="cls-80" d="M189.58,462.33l-.85,1.05c-1.54,0-4.16,3.06-4.12-1.44l3.93-.48Z"/><path class="cls-125" d="M190.48,417.49c-2.24-2.32-4.68-4.83-3.79-8.24.56-2.12,3.31-2,5.31-2.2,4-.39,4,3.22,4.8,5.44,1.46,4.12-2.15.88-3,1.77l-3.27,3.22Z"/><path class="cls-89" d="M250.84,372.8c.44,3.94-2.47,3.84-4.91,3.78-2.59-.06-3-2-3.2-4.31-.9-10.9-1-10.89,12.14-14.21-.34,2.25-.67,4.42-1,6.59C250.55,366.51,247.37,368.43,250.84,372.8Z"/><path class="cls-126" d="M250.84,372.8c-3.26-.5-3.11-.49-3-4,.18-4.18.88-7.23,6-4.16.32.31.64.63.95,1-.66,2.08.21,3.21,2.25,3.62l-1.57,2.15C254.33,373.11,252.35,372.18,250.84,372.8Z"/><path class="cls-127" d="M163.63,508.14l3.21-6a2.76,2.76,0,0,1,2.21-1.19c2.08.16,3.4.93,2.71,3.34-.69,1.65-1.39,3.29-2.08,4.94C167.15,511.77,165.47,509.49,163.63,508.14Z"/><path class="cls-78" d="M58.69,564.39C65,565.11,71.5,567,72.84,557c.21-1.57,6.39-.41,9.38,1.69,1.81,1.26,2.42,3.67,5,4.44,5.57,1.68,5.59,6.29,4.92,10.89-.64,4.35-4.68,1.72-6.84,3.06a16.39,16.39,0,0,1-2.5,1.08c-2.41-1-2-2.65-.91-4.25.94-1.34,3.41-2,1.86-4.29-1.28-1.91-3-3.76-5.25-4-3.72-.34-6.57,2.16-8.21,4.94s1.71,3.52,3.47,4.72a11,11,0,0,1,4.39,6.59,5.59,5.59,0,0,1-.18,2.84c-1.32,2-3.31,1.37-5.15,1.34h0c-3.77-.37-5.64-3.15-7.52-5.91l-1.08-.88c-5.51-2.66-4.63-9-7.49-13.14A2.31,2.31,0,0,1,58.69,564.39Z"/><path class="cls-128" d="M49.11,556.6c-2.42-1.15-5-2.12-7.26-3.49-6-3.53-6-9.13-.06-12.33,10-5.44,11.08-5.22,18.65,3.88.1.33.2.66.31,1-.28,2.84-.7,5.56-4.67,4.89a9.18,9.18,0,0,1-1.66-2.84c-1.06-2.16-1.81-4.8-5-4.47-1.8.18-3.61.91-4.29,2.73-1,2.84,2.16,3.49,3.1,5.34C49,553,51.05,554.47,49.11,556.6Z"/><path class="cls-129" d="M46.69,579.3c-3.35,5-7.24,6-12.12,1.94-.67-.57-2.12-.2-3.21-.27,1.78-4.15-2.82-9,1.37-12.87,1.71-1.56,2.94-4.15,5.88-1.12,2.36,2.43,8.86.37,7.45,7.11C45.72,575.71,46.45,577.56,46.69,579.3Z"/><path class="cls-130" d="M41.68,601.31,43.81,598c1.86-3.73,4.79-6.81,5.92-11,.59-2.17,2.16-4.49,5.14-4.6A2.18,2.18,0,0,1,56,583c.08,1.35.15,2.71.23,4.06-.15,3.13-1.92,5.18-4,7.4-4,4.3-7.53,9.08-11.25,13.66a1.76,1.76,0,0,1-1.45-1C38.47,604.54,41.21,603.34,41.68,601.31Z"/><path class="cls-131" d="M58.69,564.39,57,566.49a4,4,0,0,1-3.44,4.26l-1.06-.82c.07-3.42-.92-6.69-1.41-10a4.45,4.45,0,0,1,1.42-2.53c4.11-1.12,5.94-5.31,9.57-7.08l1,0a8.45,8.45,0,0,0,5,2.4C65.82,557.26,60.29,559.25,58.69,564.39Z"/><path class="cls-112" d="M47.19,530.62c4.05-2.14,7.06,2.37,10.88,1.7,2.25,5.82,9.93,10.11,5,17.93h-.17c-3.84-.49-1.79-3.64-2.5-5.54v0c0-7.66-6.63-9.11-11.42-12.31A14.21,14.21,0,0,1,47.19,530.62Z"/><path class="cls-132" d="M53.56,570.75,57,566.49c1.6,1.35,5,.85,3.69,5-.94,2.91,2.63,5,3.49,7.84-3.53.18-6.72-.1-7.29-4.65C56.65,572.73,54.85,571.92,53.56,570.75Z"/><path class="cls-133" d="M44.6,560.1l-1.71,2.08c-9.08.36-9.93-.67-8-11.26C37.32,555.61,38.69,560.71,44.6,560.1Z"/><path class="cls-112" d="M29.64,548.06l-6.41-5.12c1.92-3.06,3.19,1.32,4.92.42,1.51-.61,3.54.45,4.64-1.46l2-.25C35.59,545.8,33.43,547.59,29.64,548.06Z"/><path class="cls-134" d="M51.43,560.29c-.37-.23-.73-.47-1.08-.71-.41-1-.82-2-1.24-3l-1.59-4.54.64-.46c.48-.24,1-.47,1.42-.73,1.18-.75,2.06-1.88,3.29-2.56a2.68,2.68,0,0,1,1.74-.14,1.79,1.79,0,0,1,.77,1.5c2.59,3.77.27,6.17-2.37,8.49Z"/><path class="cls-132" d="M65.26,580.22c3.58.6,5.08,3.85,7.52,5.91C67.7,587,65.72,585.42,65.26,580.22Z"/><path class="cls-132" d="M72.77,586.12c1.19-1.76,3.16-.9,4.73-1.39a1.64,1.64,0,0,1,2,1.71l-.48,2.9-5-.4Z"/><path class="cls-131" d="M56.45,580.22c-2-1.82-3.88-3.79-6.92-2.19-.58-1.85.51-3.89,1.78-3.75C54.43,574.64,55.76,577.33,56.45,580.22Z"/><path class="cls-132" d="M63.16,587.2c-4.79,1.3-1.12-3.87-3.42-4.47C63.42,582.27,63.46,584.61,63.16,587.2Z"/><path class="cls-135" d="M77.23,582.81c-1.72-3.06-3-6-7.19-7.25-4.05-1.18-3.62-5.92.27-8.14,8-4.57,12.3-4,15.63,2.24,1.12,2.11,3.16,4.74-1.94,4.72-3.09,0-2.13,2.1-1.25,3.82l2.86,2.6C82.74,581.14,79.71,580.84,77.23,582.81Z"/><path class="cls-136" d="M77.23,582.81c2-3.92,5.2-3,8.38-2,.4.72,1.31,1.74,1.1,2.11-.76,1.32-1.84.57-2.71-.09-3.93-3-3.77-.32-3.52,2.51l-1,1.11-2-1.71Z"/><path class="cls-61" d="M171.76,504.25c-.56-1.47-1.2-2.85-3.17-2.6,1.59-4,5.6-5.94,7.86-9.37a7,7,0,0,1,2-1.85,2.72,2.72,0,0,1,2.61.1,8.56,8.56,0,0,0,5.72-.65h.05a3.58,3.58,0,0,0,3.18,2.58c-.46,2.45,3,3.08,2.56,5.54-1.59-.72-3.43-1.13-4.73-2.2-4.28-3.52-6.54-2-7.84,2.73-.23.18-.47.35-.69.54-3.06,1.21-.3,5.44-3.44,6.62l-2.12.32Z"/><path class="cls-137" d="M180,498.52c2.75-.54,5.42-3.82,8.29-.22,2.45,3.07-1.09,4.63-1.74,6.92l-1.89.33c-3.51-1-9.29-.56-4.67-7Z"/><path class="cls-121" d="M180,498.54c-2.19,4.83,2.78,4.9,4.67,7-1.74,1.57-4.25.6-6.2,2.12s-2.52-.27-2.59-2c.17-1.46.61-2.77.19-4.42C175.36,498.6,175.73,498.5,180,498.54Z"/><path class="cls-138" d="M127.8,475.86c3.36-.09,4-5.86,8.3-4l.76.56a10.89,10.89,0,0,1,1.47,1.41c1.23,1.34,2.64,3.21,4.46,1.47,1.64-1.57-.73-2.68-1.34-4a14,14,0,0,1-.86-1.84c0-.32,0-.64,0-1,0-.85.07-1.7.1-2.56l2.7,1.4a27.62,27.62,0,0,1,2.65,2.15c2.44,2.53,5,6.74,1.8,8.41-2.56,1.35-7.14,8.92-11.29.32-1.83-3.82-6-2.82-7.55,1.36a47.1,47.1,0,0,0-1.24,5.05c-1.26,2.75-2.08,5.77-4.63,7.75-5.26,1.86-10.61,3.95-12.7-4.11a2.47,2.47,0,0,0-1.3-1.51c-4.31-1.86-6.85-4.92-4.58-9.5,2.41-4.87,4.52-10.56,11.48-10.82l2.14,1.7c.48,2.83-1.64,4.47-2.94,6.5-1,1.59-3.11,2.87-1.69,5.26,5,5.58,5,5.58,10.14-.84C125,477.94,126.72,477.31,127.8,475.86Z"/><path class="cls-139" d="M121.78,492.14l6-7.45c1,4.05-2.29,10,5,11.38,1.21.23,1.43,1.53,1.08,2.77-1.21,4.38,2.24,1.7,3.51,2.31-.77,3.13-.09,6.74-3,9.14-3.26-.33-4.13,3.1-6.51,4.17a8.39,8.39,0,0,1-5,.6,7,7,0,0,1-2.65-1.37c-4.56-6.6-4.66-9.21.18-15.47C121.9,496.24,122.61,494.47,121.78,492.14Z"/><path class="cls-78" d="M159.65,499.74c-2.94,4.6-7.18,3.22-9.73.64-2.06-2.09-7.92-5.67-1-9.53a4,4,0,0,0,1.3-1.54c4.49-7.93,7.83-8.55,16.74-3.11,5.44,3.14,1.9,6.9.71,10.5-2.27.86-3.78-.41-5.24-1.83a5.72,5.72,0,0,1-.92-1.72c.14-2.16,0-4.2-2.85-4.34s-4.07,1.94-4.79,4c-1,3.07,1.94,2.91,3.58,3.78A3.65,3.65,0,0,1,159.65,499.74Z"/><path class="cls-140" d="M195.34,471a2.86,2.86,0,0,0,1,.47c.27,3.48-2.05,6.32-2.93,9.46-1.34,4.78-4.59,2.93-8.07,0-4.65-3.9-5.54-6.11-1.06-10.17,1.48-1.34,2.48-3.46,5.38-.73,2.53,2.39,3.45-2.19,5.41-3.14a3.76,3.76,0,0,0,.68.44C196.89,468.69,193.58,469.58,195.34,471Z"/><path class="cls-141" d="M181,490.53l-1.91.26c-1.05-.6-2.28-.89-3.1-1.89-1.18-1.44-1.38-4.32-4.43-3-1.41.42-2.88,1.19-3.85-.72a2.83,2.83,0,0,1-1.2-2.89c2.9-3.63-3.47-2.79-2.62-5.43,1.35-2.12,10.48-4.68,12.28-3.5,1.29.84.81,1.71.46,2.86-1.08,3.59-.31,4.67,3.62,7.83C182.38,485.71,180.1,488.42,181,490.53Z"/><path class="cls-142" d="M169.74,449.89c8.58,7.67,8.52,8.19,4.63,21.1-3.34-3.72-7.13-4.36-11.31-1.83-.34-1.93.68-3.22,2-4.38,7.65-2.24,2.34-7.72,2.89-11.74C168.16,451.77,168.35,450.49,169.74,449.89Z"/><path class="cls-143" d="M166.47,464.88l-3.41,4.28c-8.52,2.57-7-6-9.85-9.4-2.53-3.07,1-6.49,3-8.76,1.53-1.7,4.12.21,5.94,1.59a1.25,1.25,0,0,1,1.27,1.07C157.46,458.73,158.05,461,166.47,464.88Z"/><path class="cls-144" d="M167.74,485.16l3.62-.14c2.87.32,2.11,4.42,5,4.74,1.34.69,1,1.95,1,3.09a21.75,21.75,0,0,1-8.78,8.8l-1.75.45-2.24-2c-2.3-4.08,3.28-2,3.32-4.25-3.1-3,2.64-6.8-1-9.7C167.21,485.85,167.48,485.51,167.74,485.16Z"/><path class="cls-145" d="M133.54,510.33c3.71-2.05.17-7.12,3.83-9.18l1-1.13c2-.69.41-4.07,3.14-4.23.79,3.58,5.48,4.33,5.92,8.15-.58.59-1.29.07-1.92.22-3.15-2.26-4.84-1.58-7.05,1.89-4,6.33-8.22,13.31-17.75,11.54-1.27-2.72-1.12-2.9,2.56-3.21l3.84-.43C130,514.08,130.68,510.25,133.54,510.33Z"/><path class="cls-146" d="M145.52,504.16l1.92-.22c3.91,2.7,8.72,1.89,13,3.31C153.47,512.06,151,511.56,145.52,504.16Z"/><path class="cls-147" d="M167.92,495.9c1.48,3.44-4.63.94-3.32,4.25a4.38,4.38,0,0,1-4.95-.41l-3.15-2.58a1.51,1.51,0,0,1,.82-1.4c2.11.05,3.64-1.29,5.33-2.25C164.34,494.45,165.56,496.45,167.92,495.9Z"/><path class="cls-148" d="M163.22,453.49q-.53-.44-1-.9c-.1-1.74-.19-3.48-.29-5.21,1.33,5,6.29-1.47,7.83,2.51-.21,1-.41,2-.62,3A5.22,5.22,0,0,1,163.22,453.49Z"/><path class="cls-61" d="M186.75,489.88c-1.06-1.29-3.35-1.71-2.89-4.49,2.62.58,2.68,2.6,2.94,4.48Z"/><path class="cls-61" d="M201.35,471.72a12.54,12.54,0,0,1,1,1c-1,.67-1.75,3.35-3.25,1.36C198.08,472.73,200.5,472.48,201.35,471.72Z"/><path class="cls-149" d="M103.22,526.46c-2.9-1.46-5.73-7-8.78-.16-1.44,2.56-4.36,2.07-4.46.24-.3-5.65-4.76-5.86-8.19-7.57a5.86,5.86,0,0,1-1.52-1.15c-.45-3.39-2.17-6.66-1.09-10.23a8.82,8.82,0,0,1,2.5-4.17,6.43,6.43,0,0,1,3.77-1.34c5-.17,10.24.66,8.23-7.76-.86-3.59,2.81-6.36,6.38-7.87a4.86,4.86,0,0,1,2-.13c6.08,4.82.57,9.63,0,14.43.67,4.68,4.59.05,6.16,2.13,1.11.84,1.73,1.85,1.12,3.27-2.25,1.57-3.55,4.09-5.77,5.71-4.86,3.54-4.77,5.19.16,8.81,2.29,1.68,5.53,2.49,5.94,6a3.08,3.08,0,0,1-.66,1.87C106.37,529.8,103.65,531.25,103.22,526.46Z"/><path class="cls-150" d="M90.31,531.69c5.87.18,6.25,7.61,12.24,8.79,3.76.74-.07,5.95-.07,9.13,0,2.32-3.82,4.71-5.44,3.74-3.45-2.06-11.34-.52-8.61-8.89.59-1.82-.09-4.52-1.76-5.48-2-1.16-3.09.84-3.75,2.69-.18.5-.85.82-1.3,1.22-2.29-3.38-5.94-2.33-9.13-3-1.92-.39-.69-2.82-1.36-4.18,1-3.85-.63-8.45,3.38-11.39,1.22-1.09,2.42-2.25,4.26-2.05a1.84,1.84,0,0,1,1,1.48,23.83,23.83,0,0,1-.38,3.36c-.49,4.06-.1,7,5.26,4.78a11.5,11.5,0,0,1,4.7-.49Z"/><path class="cls-151" d="M79.43,523.05c-1.85-.14-2.65,1.3-3.66,2.42-2.2.58-4.37,1-5.93-1.29l-7.4-6c1.13-2.54,2.92-5,1-7.91,1.7-1.58,2.35-4.43,5.35-4.47.47,2,.16,4.08.15,6.1,0,7.88.65,8.4,8.44,5.63a10.27,10.27,0,0,1,3.35-.41l1.06.83C84.45,521.25,83,522.66,79.43,523.05Z"/><path class="cls-152" d="M79.43,523.05c1.92-1.17,3-2.74,2.36-5.09,3.6,1.74,10.43-.59,8.95,7.63-.37,2,2.26,1.18,3.7.71,1,3.6-3.07,3.35-4.13,5.39l-.35-.05c-3.53-2.73-4.92-8.11-10.44-8.36Z"/><path class="cls-111" d="M69.84,524.18l5.93,1.29c-4.8,1.95-.52,8-4.64,10.26C68,532.17,70.79,528,69.84,524.18Z"/><path class="cls-104" d="M108.75,506.25a2.81,2.81,0,0,0-1.27-2.77,2.4,2.4,0,0,1,.48-1.81,3.25,3.25,0,0,1,1.71-.79c1.29-.36,5.13-.18,2.5-2.11-4.6-3.37-7-8.14-10.42-12.18l-.91,1.07c-5.46-.51-5.46-.51-5.33-4.27,4.54-5.49,9.38-10.75,13-16.94a4.5,4.5,0,0,1,4.34-2.5l3.2,2.55c-4.5,1.84-6.89,5.95-9.16,9.68-1.56,2.58-3.86,7.06,2.57,8.12,1.33.22,3.53,2,3.45,2.93-.78,8.71,5.68,3.8,8.87,4.91,3.83,1,5.44,2.48,1.39,5.58-5.58,4.26-6.6,9.27-2,15a2.31,2.31,0,0,1-1.27,2.29c-2.39-.05-3.46-2.33-5.39-3.16C112.75,509.79,110.1,508.69,108.75,506.25Z"/><path class="cls-78" d="M95.51,483.39c-.06,3.72,3.77,2.58,5.33,4.27-3.94,1.92-7.21,4.68-5.66,9.42,1.93,5.88-1.59,6.58-5.63,6.73-2.45.09-4.92-.75-7.3.48-4.14,1.75-6.83.88-7.24-4.05h0c-1.2-2.46,1.2-5.32-.88-7.68l-1-1.62c4.25-1.77,2.45-4.46,1.07-7.08l3,.55c.53-.05.86.09,1,.42s.19.53.1.63c2.6,2.32,2.66,5.53,2.82,8.61.13,2.51,1,3.76,3.68,3.59,3.5-.21,4.51-2.63,5-5.42.59-3.14-1.56-3.21-3.77-3.12-3.34.14-6.33-.45-7.82-4,5.68-6.51,9.21-7.08,16.24-2.63C94.79,482.83,95.15,483.11,95.51,483.39Z"/><path class="cls-153" d="M95.54,457.07c2.37-1.77,5.14-2.22,7.54-.72,2.16,1.34,6.43,3.77,5.07,5.34-2.69,3.11-4.35,8.67-10.27,7.81a2.24,2.24,0,0,1,.54-1.74c5-3.87,2.75-6.22-1.7-8.11A3.45,3.45,0,0,1,95.54,457.07Z"/><path class="cls-104" d="M78.2,485.29l-1-.88c1.84-2,3.4-4.28,5.55-5.75,5.57-3.81,8.6-2.67,11.75,3.87-5.81-1.39-11.34-1.2-16.23,2.76Z"/><path class="cls-154" d="M95.54,457.07l2.16,1.79a12.68,12.68,0,0,0,1,9.54l-.87,1.1c-3.9.5-6.89.31-5.56-5.16.61-2.52.18-5.29.22-7.95h0Z"/><path class="cls-155" d="M111.79,480.59c-3,.06-2.13-1.56-1.12-2.9,2.44-3.22,5-6.34,7.52-9.49h0a2,2,0,0,1,2.22,1.74c2.43,6.33,4.36-.8,6.11-.44,3.31,1.91-3.79,4.93,1.28,6.36.58,2.19-.33,3.25-2.53,3.33a5.76,5.76,0,0,1-1.22-.49C119.3,475.09,115.18,475.43,111.79,480.59Z"/><path class="cls-138" d="M136.1,471.9c1.12-1.63,0-6.24,4.51-3.34l0,.32c-.06,3-.43,5.63-4.45,3.34Z"/><path class="cls-138" d="M120.41,469.94l-2.22-1.74c.85-.66,2.28-2,2.46-1.85C122,467.5,121,468.75,120.41,469.94Z"/><path class="cls-152" d="M80.73,517.13c-1.83,1.17-3.64,2.39-5.5,3.5-2.2,1.31-4.28.91-6.2-.64-1.75-1.4-3.71-2.59-2.09-5.47,1.49-2.64-1.41-6.34,1.85-8.71l1.93-.15c2.46-.24,4.68.15,6.13,2.44,0,2.8-2.8,2.36-4.12,3.63A2.56,2.56,0,0,0,71.65,514a1.5,1.5,0,0,0,1.27,1.3,2.06,2.06,0,0,0,2.53-1.59,36.84,36.84,0,0,1,1.48-5c1.14-1.78,2.39-2,3.78-.28C78.71,511.31,83.49,514.21,80.73,517.13Z"/><path class="cls-156" d="M80.71,508.39a4.42,4.42,0,0,0-3.8.41h0l-6.18-3.14L75,500.24c1.57,2.86,3.84,4.47,7.24,4.05C81.74,505.65,81.22,507,80.71,508.39Z"/><path class="cls-156" d="M74.13,492.56c6.2,1.89-.22,5.21.88,7.68C71.56,498,73.56,495.22,74.13,492.56Z"/><path class="cls-61" d="M195.34,471c-.19.39-.27,1-.58,1.15-.8.49-1.4-.22-1.17-.78a36.44,36.44,0,0,1,2.12-4C196.62,468.66,195.81,469.8,195.34,471Z"/><path class="cls-112" d="M119.43,514.81l1.72-2.12,2.13,1.69c-1.11.86-3.42.77-2.56,3.21.11,1.28.23,2.56.34,3.84-2.93,4-6.12,7.58-11.87,6.37l0-.42c-1.7-6.72,5-7.72,7.76-11.45A3.86,3.86,0,0,1,119.43,514.81Z"/><path class="cls-157" d="M55.06,549.34l-1.06-1c-1.19-.7-2.42-2.41-3.37.29a4.67,4.67,0,0,1-3,3.22l-.13.25c-1.5-2.37-7-2.22-4.88-6.68a7.71,7.71,0,0,1,7.88-4.17c4.12.76,6,4.32,5.56,8.69a.69.69,0,0,1-.83-.11C55.06,549.56,55,549.41,55.06,549.34Z"/><path class="cls-158" d="M55.06,549.34a7.17,7.17,0,0,1,1,.56c4,.35,2.59-3.73,4.35-5.2.84,1.85,1.67,3.69,2.5,5.54-3,3.06-4.36,8.09-9.91,7.92-.49-1-1-1.94-1.45-2.91C56.66,555.59,54,551.37,55.06,549.34Z"/><path class="cls-159" d="M34.69,570.66c3.86-3.61,3.65,3.1,7,1.86,1-.39,1.79,3.54.66,5.19-1.73,2.54-5.06,1.71-6.7.6C32.57,576.26,35.91,572.93,34.69,570.66Z"/><path class="cls-160" d="M47.65,551.81a21.39,21.39,0,0,0,1.8-4.09c.35-1.67,0-4.11,2.39-3.76,1.73.26,2.16,2.5,2.16,4.34h0c-2.75.33-2.7,4-5.34,4.46Z"/><path class="cls-157" d="M48.66,552.76c2.45-.68,1.13-5.88,5.34-4.46C52.26,549.84,51.71,552.8,48.66,552.76Z"/><path class="cls-161" d="M111.79,480.59c.52-3.51,3.12-8.1,5.15-7.62,2.85.67,6.92,2.35,8.33,6.22a5.62,5.62,0,0,0-.44.53C118.8,488.35,118.8,488.35,111.79,480.59Z"/><path class="cls-162" d="M136.21,472.22c3,.94,3.23-1.87,4.45-3.34.82.74,1.93,1.33,2.39,2.24.83,1.69,4.46,1.71,3.11,4.33-.68,1.31-2.78,2-4.38,2.67-2.71,1.11-3.38-1.28-4.34-2.94A21.44,21.44,0,0,1,136.21,472.22Z"/><path class="cls-163" d="M122.08,500.5c2.65-1.63,5.22-4.06,7.53-1.66,1.63,1.68,2.75,5.28,1.16,7.35a5.47,5.47,0,0,1-7.21,1.34C120.75,505.67,121.64,502.91,122.08,500.5Z"/><path class="cls-112" d="M133.54,510.33c-2,1.51-2.42,5.71-6.42,3.62C129.62,513.39,128.62,506.6,133.54,510.33Z"/><path class="cls-164" d="M157.3,496.12a9.92,9.92,0,0,0-.8,1c-2.72,1-5.54.75-5.32-2.63.23-3.61,2.7-7.12,6.24-7.81,2.18-.42,6,.24,6.73,3.93.1.49-1.53,1.32-2.36,2C159.5,492.78,159,495.28,157.3,496.12Z"/><path class="cls-165" d="M157.3,496.12c0-2.35,1.59-4,2.53-6l2,2.52.87.87C161.76,496.21,161.11,499.41,157.3,496.12Z"/><path class="cls-166" d="M176.76,489.08a1.79,1.79,0,0,0-.53,1.08c-5.55,2-3.51-3.17-4.87-5.14.33-1.23-.3-3.78,2.39-1.88C175.77,484.56,177.59,486.18,176.76,489.08Z"/><path class="cls-167" d="M163.22,453.49a9.64,9.64,0,0,1,5.9-.62c.51,1.62.41,3.26,1.39,4.93,2.48,4.21,1.77,7.27-4,7.08-2.76-.71-6.58,2.43-7.93-3.32C157.38,456.62,156.51,453.26,163.22,453.49Z"/><path class="cls-168" d="M117.68,517c-2.6,3.68-7.85,5.18-8.54,10.43-.84-3.63-4.53-4.78-6.93-5.64-3.83-1.38-3.58-3.92-4-6.62-.57-3.41,1.4-4.16,4.24-4.07,3.38.11,1.31-7,6.33-4.81a7.23,7.23,0,0,1,6.4,5.15C118.85,512,117,515,117.68,517Z"/><path class="cls-169" d="M101.75,486.59c1.2-.33,2.54-.15,2.86,1,1.16,4.22,3.91,6.72,7.76,8.53,2.35,1.1,4.21,3.4,2.56,5.94s-3.9.67-5.71-.62c.3-3.5-2.36-1.74-3.61-1.78-1.52,0-2.71,1.53-4.31,1.77l-.92-.08C100.05,496.35,106.16,492,101.75,486.59Z"/><path class="cls-170" d="M86.65,510.7c2.29-.91,4.91-2,7.29-1.15,1.51.57.53,2.93-.27,4.12-1.68,2.5-4,.82-6,.47S86.28,512.3,86.65,510.7Z"/><path class="cls-169" d="M108.32,502.24l-.84,1.24c-2.33-.84-7.12,6.51-7.1-2.14l.18,0C103.06,502.33,106.15,498.36,108.32,502.24Z"/><path class="cls-171" d="M79.52,523.28c7.93-2.76,8.42,3.76,10.44,8.36-2.31,2.82-6.37,1.18-9,3.65-1,1-3.31-.86-3.19-2.46C78,529.62,76.29,525.94,79.52,523.28Z"/><path class="cls-172" d="M92.25,548.71c-2.47-3,.14-5.1,1-6.82,1.22-2.32,3.74-.81,5.19.39,2.45,2,1.35,4.77.07,6.76C96.23,552.64,94.45,547.52,92.25,548.71Z"/><path class="cls-139" d="M117.68,517c-.84-1.85-1.68-3.71-2.53-5.56,3-.81,3.28,1.74,4.28,3.41Z"/><path class="cls-68" d="M78.22,485.29a8.81,8.81,0,0,0,8.23,2.18c2.79-.69,6.23-.42,5.52,2.52-.75,3.11.8,8.24-4.52,9.33-6.66,1.37-9.67-1.06-8.57-8.53.34-2.32-1.3-3.64-.68-5.5Z"/><path class="cls-173" d="M98.75,468.4c-5.37-2.62-4.51-5.94-1-9.54,1.64,2.1,6.35-.77,6.3,3.43A6,6,0,0,1,98.75,468.4Z"/><path class="cls-174" d="M76.91,508.8c-1,2.85,4.46,8-3,8.55-1.93.15-4.82.88-4.73-2,.06-2.22-.19-5.75,3.74-6.12,1.32-.12,2.64-.29,4-.44Z"/><path class="cls-175" d="M106.54,520.74c-1.85-2.6-5.76-4.11-3.13-6.56,1.73-1.62,4.92-4.93,8.14-1.83,2.67,2.57.92,4.75-1.19,7C108.81,521,107.94,522.93,106.54,520.74Z"/><polygon class="cls-176" points="1069.6 567.82 1130.04 501.63 1009.27 507.32 1069.6 567.82"/><polygon class="cls-177" points="1127 628.05 1129.86 501.63 1069.46 567.68 1127 628.05"/><polygon class="cls-178" points="977.93 480.74 1029.35 460.16 1030.68 454.99 1027.52 451.16 977.93 480.74"/><polygon class="cls-179" points="1083.43 499.66 1132.6 460.99 1222.43 455.32 1227.6 447.82 1128.6 451.66 1074.77 490.16 1083.43 499.66"/><path class="cls-180" d="M1030.1,459.68l49.83,43.48,4.34-4.5s-53.58-43.93-53.58-43.66S1030.1,459.68,1030.1,459.68Z"/><polyline class="cls-181" points="1127 628.05 1204.63 626.61 1128.32 576.04 1127.42 628.05"/><polygon class="cls-182" points="1128.6 558.82 1246.43 451.32 1131.77 458.16 1128.6 558.82"/><polygon class="cls-183" points="1130.93 459.49 1129.85 500.99 1079.1 503.16 1130.93 459.49"/><polygon class="cls-184" points="1008.6 506.16 1079.27 503.16 1029.43 459.49 1008.6 506.16"/><polygon class="cls-185" points="976.93 480.66 1018.56 482.51 1027.97 460.66 976.93 480.66"/></g></g></svg>