<svg id="eg51yv0co871" xmlns="http://www.w3.org/2000/svg" xmlns:xlink="http://www.w3.org/1999/xlink" viewBox="0 0 594 686" shape-rendering="geometricPrecision" text-rendering="geometricPrecision"><style><![CDATA[#eg51yv0co8772_to {animation: eg51yv0co8772_to__to 6000ms linear infinite normal forwards}@keyframes eg51yv0co8772_to__to { 0% {transform: translate(-147.785156px,-61.276953px)} 23.333333% {transform: translate(-7.550000px,-4.492188px)} 40% {transform: translate(-7.550000px,-4.492188px)} 83.333333% {transform: translate(272.114844px,118.281473px)} 100% {transform: translate(272.114844px,118.281473px)} }#eg51yv0co87107_to {animation: eg51yv0co87107_to__to 6000ms linear infinite normal forwards}@keyframes eg51yv0co87107_to__to { 0% {transform: translate(-31.899219px,8.107031px)} 16.666667% {transform: translate(-31.899219px,8.107031px)} 61.666667% {transform: translate(-263.743203px,105.031517px)} 78.333333% {transform: translate(-263.743203px,105.031517px)} 100% {transform: translate(-418.305859px,169.647841px)} }]]></style><defs><linearGradient id="eg51yv0co87157-fill" x1="568.650400" y1="514.470000" x2="568.650400" y2="171.490000" spreadMethod="pad" gradientUnits="userSpaceOnUse"><stop id="eg51yv0co87157-fill-0" offset="0%" stop-color="rgb(0,0,0)"/><stop id="eg51yv0co87157-fill-1" offset="47.800000%" stop-color="rgb(23,23,23)"/><stop id="eg51yv0co87157-fill-2" offset="100%" stop-color="rgb(0,0,0)"/></linearGradient><linearGradient id="eg51yv0co87164-fill" x1="25.409581" y1="514.480000" x2="25.409581" y2="171.500000" spreadMethod="pad" gradientUnits="userSpaceOnUse"><stop id="eg51yv0co87164-fill-0" offset="0%" stop-color="rgb(0,0,0)"/><stop id="eg51yv0co87164-fill-1" offset="47.800000%" stop-color="rgb(23,23,23)"/><stop id="eg51yv0co87164-fill-2" offset="100%" stop-color="rgb(0,0,0)"/></linearGradient><linearGradient id="eg51yv0co87171-fill" x1="310.534909" y1="662.615038" x2="12.862562" y2="492.222572" spreadMethod="pad" gradientUnits="userSpaceOnUse"><stop id="eg51yv0co87171-fill-0" offset="0%" stop-color="rgb(0,0,0)"/><stop id="eg51yv0co87171-fill-1" offset="47.800000%" stop-color="rgb(23,23,23)"/><stop id="eg51yv0co87171-fill-2" offset="100%" stop-color="rgb(0,0,0)"/></linearGradient><linearGradient id="eg51yv0co87178-fill" x1="284.000985" y1="663.096988" x2="581.673331" y2="492.704522" spreadMethod="pad" gradientUnits="userSpaceOnUse"><stop id="eg51yv0co87178-fill-0" offset="0%" stop-color="rgb(0,0,0)"/><stop id="eg51yv0co87178-fill-1" offset="47.800000%" stop-color="rgb(23,23,23)"/><stop id="eg51yv0co87178-fill-2" offset="100%" stop-color="rgb(0,0,0)"/></linearGradient><linearGradient id="eg51yv0co87185-fill" x1="310.435316" y1="22.834171" x2="12.763056" y2="193.226587" spreadMethod="pad" gradientUnits="userSpaceOnUse"><stop id="eg51yv0co87185-fill-0" offset="0%" stop-color="rgb(0,0,0)"/><stop id="eg51yv0co87185-fill-1" offset="47.800000%" stop-color="rgb(23,23,23)"/><stop id="eg51yv0co87185-fill-2" offset="100%" stop-color="rgb(0,0,0)"/></linearGradient><linearGradient id="eg51yv0co87192-fill" x1="284.457523" y1="22.845276" x2="582.129870" y2="193.237742" spreadMethod="pad" gradientUnits="userSpaceOnUse"><stop id="eg51yv0co87192-fill-0" offset="0%" stop-color="rgb(0,0,0)"/><stop id="eg51yv0co87192-fill-1" offset="47.800000%" stop-color="rgb(23,23,23)"/><stop id="eg51yv0co87192-fill-2" offset="100%" stop-color="rgb(0,0,0)"/></linearGradient></defs><g id="eg51yv0co872"><path id="eg51yv0co873" d="M51.300000,201.100000C57.500000,191.700000,141.600000,68.800000,296.800000,68.700000C452.300000,68.600000,536.700000,191.800000,542.800000,201.100000C542.800000,295.700000,542.800000,390.300000,542.800000,484.900000C492.800000,574.800000,397.600000,630.500000,295,629.700000C193.800000,629,100.500000,573.500000,51.300000,484.900000C51.300000,390.300000,51.300000,295.700000,51.300000,201.100000Z" fill="rgb(211,230,205)" stroke="none" stroke-width="1"/></g><g id="eg51yv0co874"><g id="eg51yv0co875" opacity="0.49"><polygon id="eg51yv0co876" points="373,176.500000 371.900000,231.100000 374.800000,229.900000 376.300000,175" fill="rgb(90,116,107)" stroke="none" stroke-width="1"/><polygon id="eg51yv0co877" points="373,176.500000 369.900000,174.900000 368.900000,228.900000 371.900000,231.100000" fill="rgb(90,116,107)" stroke="none" stroke-width="1"/><polygon id="eg51yv0co878" points="374.900000,179.400000 312.200000,166.800000 312,162.400000 374.800000,174.900000" fill="rgb(90,116,107)" stroke="none" stroke-width="1"/><polygon id="eg51yv0co879" points="374.900000,179.400000 436.700000,162.700000 436.500000,158.300000 374.800000,174.900000" fill="rgb(90,116,107)" stroke="none" stroke-width="1"/><polygon id="eg51yv0co8710" points="300.200000,148.400000 299.200000,200.700000 302,199.600000 303.400000,146.900000" fill="rgb(90,116,107)" stroke="none" stroke-width="1"/><polygon id="eg51yv0co8711" points="300.200000,148.400000 297.300000,146.800000 296.400000,198.600000 299.200000,200.700000" fill="rgb(90,116,107)" stroke="none" stroke-width="1"/><polygon id="eg51yv0co8712" points="302.100000,151.100000 241.900000,139 241.800000,134.800000 301.900000,146.900000" fill="rgb(90,116,107)" stroke="none" stroke-width="1"/><polygon id="eg51yv0co8713" points="241.800000,134.800000 312,162.400000 374.800000,174.900000 301.900000,146.900000" fill="rgb(90,116,107)" stroke="none" stroke-width="1"/><polygon id="eg51yv0co8714" points="301.900000,146.900000 361.200000,130.900000 436.500000,158.300000 374.800000,174.900000" fill="rgb(90,116,107)" stroke="none" stroke-width="1"/><polygon id="eg51yv0co8715" points="241.900000,139 312.200000,166.800000 312,162.400000 241.800000,134.800000" fill="rgb(90,116,107)" stroke="none" stroke-width="1"/></g><polygon id="eg51yv0co8716" points="357.100000,215.400000 344.700000,220.200000 229.900000,172.600000 274.400000,159.800000 390.100000,202.700000" fill="rgb(90,114,105)" stroke="none" stroke-width="1"/><polygon id="eg51yv0co8717" points="344.100000,152.400000 345.500000,206.900000 348.500000,205.600000 347.300000,150.700000" fill="rgb(249,0,108)" stroke="none" stroke-width="1"/><polygon id="eg51yv0co8718" points="344.100000,152.400000 341,150.800000 342.500000,204.900000 345.500000,206.900000" fill="rgb(168,5,91)" stroke="none" stroke-width="1"/><polygon id="eg51yv0co8719" points="346.100000,155.100000 282.900000,145.500000 282.500000,141.100000 345.800000,150.700000" fill="rgb(238,169,132)" stroke="none" stroke-width="1"/><polygon id="eg51yv0co8720" points="346.100000,155.100000 407.100000,135.600000 406.700000,131.200000 345.800000,150.700000" fill="rgb(238,169,132)" stroke="none" stroke-width="1"/><polygon id="eg51yv0co8721" points="270.100000,127.600000 271.500000,180 274.300000,178.700000 273.200000,126" fill="rgb(249,0,108)" stroke="none" stroke-width="1"/><polygon id="eg51yv0co8722" points="270.100000,127.600000 267.100000,126.200000 268.600000,178 271.500000,180" fill="rgb(168,5,91)" stroke="none" stroke-width="1"/><polygon id="eg51yv0co8723" points="272.100000,130.300000 211.400000,121.100000 211.100000,116.900000 271.700000,126.100000" fill="rgb(238,169,132)" stroke="none" stroke-width="1"/><polygon id="eg51yv0co8724" points="211.100000,116.900000 282.500000,141.100000 345.800000,150.700000 271.700000,126.100000" fill="rgb(253,238,232)" stroke="none" stroke-width="1"/><polygon id="eg51yv0co8725" points="271.700000,126.100000 330.200000,107.400000 406.700000,131.200000 345.800000,150.700000" fill="rgb(253,238,232)" stroke="none" stroke-width="1"/><polygon id="eg51yv0co8726" points="211.400000,121.100000 282.900000,145.500000 282.500000,141.100000 211.100000,116.900000" fill="rgb(238,169,132)" stroke="none" stroke-width="1"/><path id="eg51yv0co8727" d="M102.800000,167.500000C246.800000,228,390.800000,288.500000,534.800000,348.900000C534.800000,336.900000,534.800000,324.900000,534.800000,312.900000C390.800000,253.800000,246.900000,194.600000,103,135.500000C102.900000,146.100000,102.800000,156.800000,102.800000,167.500000Z" fill="rgb(51,80,160)" stroke="none" stroke-width="1"/><polygon id="eg51yv0co8728" points="390.100000,202.700000 390.100000,206.400000 344.600000,224.200000 344.700000,220.200000" fill="rgb(73,28,22)" stroke="none" stroke-width="1"/><polygon id="eg51yv0co8729" points="344.700000,220.200000 344.600000,224.200000 229.900000,176.100000 229.900000,172.600000" fill="rgb(90,114,105)" stroke="rgb(73,28,22)" stroke-width="1" stroke-miterlimit="10"/><polygon id="eg51yv0co8730" points="346.700000,234.100000 227.400000,186.300000 228.700000,173.800000 346.500000,221.400000" fill="rgb(90,114,105)" stroke="rgb(73,28,22)" stroke-width="1" stroke-miterlimit="10"/><polygon id="eg51yv0co8731" points="344.600000,224.200000 390.100000,206.400000 397.700000,209.100000 351.900000,227.200000" fill="rgb(90,114,105)" stroke="none" stroke-width="1"/><polygon id="eg51yv0co8732" points="351.900000,227.200000 351.900000,230.900000 397.800000,212.500000 397.700000,209.100000" fill="rgb(73,28,22)" stroke="none" stroke-width="1"/><polygon id="eg51yv0co8733" points="352,230.900000 397.800000,212.500000 405.400000,215.200000 359.200000,233.900000" fill="rgb(90,114,105)" stroke="none" stroke-width="1"/><polygon id="eg51yv0co8734" points="359.400000,237.500000 405.400000,218.400000 412.900000,221.100000 366.700000,240.500000" fill="rgb(90,114,105)" stroke="none" stroke-width="1"/><polygon id="eg51yv0co8735" points="359.200000,233.900000 359.300000,237.600000 405.400000,218.400000 405.400000,215.100000" fill="rgb(73,28,22)" stroke="none" stroke-width="1"/><polygon id="eg51yv0co8736" points="366.500000,240.500000 366.500000,242.100000 412.900000,222.300000 412.900000,221.100000" fill="rgb(73,28,22)" stroke="none" stroke-width="1"/><polygon id="eg51yv0co8737" points="347.500000,235.100000 368.900000,243.800000 368.900000,242.200000 361.100000,239 361.100000,235 353.300000,231.800000 353.200000,227.700000 345.400000,224.500000 345.400000,234.200000" fill="rgb(90,114,105)" stroke="rgb(73,28,22)" stroke-width="1" stroke-miterlimit="10"/></g><g id="eg51yv0co8738"><g id="eg51yv0co8739" opacity="0.49"><polygon id="eg51yv0co8740" points="212.500000,452.800000 214,507.700000 217,508.900000 215.900000,454.300000" fill="rgb(90,116,107)" stroke="none" stroke-width="1"/><polygon id="eg51yv0co8741" points="217,508.900000 219.900000,506.700000 218.900000,452.700000 215.900000,454.300000" fill="rgb(90,116,107)" stroke="none" stroke-width="1"/><polygon id="eg51yv0co8742" points="214.100000,452.800000 276.800000,440.200000 276.700000,444.600000 213.900000,457.200000" fill="rgb(90,116,107)" stroke="none" stroke-width="1"/><polygon id="eg51yv0co8743" points="214.100000,452.800000 152.300000,436.100000 152.100000,440.500000 213.900000,457.200000" fill="rgb(90,116,107)" stroke="none" stroke-width="1"/><polygon id="eg51yv0co8744" points="285.400000,424.700000 286.800000,477.400000 289.700000,478.500000 288.600000,426.200000" fill="rgb(90,116,107)" stroke="none" stroke-width="1"/><polygon id="eg51yv0co8745" points="289.700000,478.500000 292.500000,476.400000 291.500000,424.600000 288.600000,426.200000" fill="rgb(90,116,107)" stroke="none" stroke-width="1"/><polygon id="eg51yv0co8746" points="286.900000,424.700000 347.100000,412.600000 346.900000,416.800000 286.700000,428.900000" fill="rgb(90,116,107)" stroke="none" stroke-width="1"/><polygon id="eg51yv0co8747" points="286.900000,424.700000 214.100000,452.800000 276.800000,440.200000 347.100000,412.600000" fill="rgb(90,116,107)" stroke="none" stroke-width="1"/><polygon id="eg51yv0co8748" points="214.100000,452.800000 152.300000,436.100000 227.600000,408.700000 286.900000,424.700000" fill="rgb(90,116,107)" stroke="none" stroke-width="1"/><polygon id="eg51yv0co8749" points="347.100000,412.600000 276.800000,440.200000 276.700000,444.600000 346.900000,416.800000" fill="rgb(90,116,107)" stroke="none" stroke-width="1"/></g><polygon id="eg51yv0co8750" points="198.700000,480.500000 314.400000,437.600000 359,450.400000 244.100000,498 231.700000,493.200000" fill="rgb(90,114,105)" stroke="none" stroke-width="1"/><polygon id="eg51yv0co8751" points="241.500000,428.500000 240.400000,483.400000 243.300000,484.700000 244.800000,430.200000" fill="rgb(239,6,140)" stroke="none" stroke-width="1"/><polygon id="eg51yv0co8752" points="243.300000,484.700000 246.300000,482.700000 247.900000,428.600000 244.800000,430.200000" fill="rgb(168,5,91)" stroke="none" stroke-width="1"/><polygon id="eg51yv0co8753" points="243,428.500000 306.300000,418.900000 305.900000,423.300000 242.700000,432.900000" fill="rgb(238,169,132)" stroke="none" stroke-width="1"/><polygon id="eg51yv0co8754" points="243,428.500000 182.100000,409 181.800000,413.400000 242.700000,432.900000" fill="rgb(238,169,132)" stroke="none" stroke-width="1"/><polygon id="eg51yv0co8755" points="315.600000,403.800000 314.500000,456.500000 317.300000,457.800000 318.800000,405.400000" fill="rgb(239,6,140)" stroke="none" stroke-width="1"/><polygon id="eg51yv0co8756" points="317.300000,457.800000 320.200000,455.800000 321.700000,404 318.800000,405.400000" fill="rgb(168,5,91)" stroke="none" stroke-width="1"/><polygon id="eg51yv0co8757" points="317.100000,403.900000 377.800000,394.700000 377.400000,398.900000 316.800000,408.100000" fill="rgb(238,169,132)" stroke="none" stroke-width="1"/><polygon id="eg51yv0co8758" points="317.100000,403.900000 243,428.500000 306.300000,418.900000 377.800000,394.700000" fill="rgb(253,238,232)" stroke="none" stroke-width="1"/><polygon id="eg51yv0co8759" points="243,428.500000 182.100000,409 258.700000,385.200000 317.100000,403.900000" fill="rgb(253,238,232)" stroke="none" stroke-width="1"/><polygon id="eg51yv0co8760" points="377.800000,394.700000 306.300000,418.900000 305.900000,423.300000 377.400000,398.900000" fill="rgb(238,169,132)" stroke="none" stroke-width="1"/><path id="eg51yv0co8761" d="M536.200000,391.400000C398.700000,448.200000,261.200000,505.100000,123.700000,561.900000C130.200000,571.100000,136.600000,580.200000,143.100000,589.400000C274.100000,534.400000,405.200000,479.500000,536.200000,424.500000C536.200000,413.500000,536.200000,402.400000,536.200000,391.400000Z" fill="rgb(51,80,160)" stroke="none" stroke-width="1"/><polygon id="eg51yv0co8762" points="244.100000,498 244.200000,502 198.700000,484.200000 198.700000,480.500000" fill="rgb(73,28,22)" stroke="none" stroke-width="1"/><polygon id="eg51yv0co8763" points="359,450.400000 358.900000,453.900000 244.200000,502 244.100000,498" fill="rgb(90,114,105)" stroke="rgb(73,28,22)" stroke-width="1" stroke-miterlimit="10"/><polygon id="eg51yv0co8764" points="242.300000,499.200000 360.100000,451.600000 361.400000,464.100000 242.200000,511.900000" fill="rgb(90,114,105)" stroke="rgb(73,28,22)" stroke-width="1" stroke-miterlimit="10"/><polygon id="eg51yv0co8765" points="237,505 191.100000,486.900000 198.700000,484.200000 244.200000,502" fill="rgb(90,114,105)" stroke="none" stroke-width="1"/><polygon id="eg51yv0co8766" points="191.100000,486.900000 191.100000,490.300000 236.900000,508.700000 237,505" fill="rgb(73,28,22)" stroke="none" stroke-width="1"/><polygon id="eg51yv0co8767" points="229.600000,511.700000 183.500000,493 191.100000,490.300000 236.900000,508.700000" fill="rgb(90,114,105)" stroke="none" stroke-width="1"/><polygon id="eg51yv0co8768" points="222.100000,518.300000 176,498.900000 183.400000,496.200000 229.400000,515.300000" fill="rgb(90,114,105)" stroke="none" stroke-width="1"/><polygon id="eg51yv0co8769" points="183.500000,492.900000 183.400000,496.200000 229.600000,515.400000 229.600000,511.700000" fill="rgb(73,28,22)" stroke="none" stroke-width="1"/><polygon id="eg51yv0co8770" points="176,498.900000 175.900000,500.100000 222.300000,519.900000 222.300000,518.300000" fill="rgb(73,28,22)" stroke="none" stroke-width="1"/><polygon id="eg51yv0co8771" points="243.500000,512 243.500000,502.300000 235.700000,505.500000 235.600000,509.600000 227.800000,512.800000 227.800000,516.800000 220,520 220,521.700000 241.300000,512.900000" fill="rgb(90,114,105)" stroke="rgb(73,28,22)" stroke-width="1" stroke-miterlimit="10"/></g><g id="eg51yv0co8772_to" transform="translate(-147.785156,-61.276953)"><g id="eg51yv0co8772" transform="translate(0,0)"><g id="eg51yv0co8773"><path id="eg51yv0co8774" d="M297.500000,238C296.400000,235.800000,294.500000,234.500000,293.200000,235.200000C293.100000,235.300000,291,236.800000,290.800000,236.900000L292.700000,238.200000L293.500000,237.400000C294.200000,237.900000,294.800000,238.700000,295.300000,239.700000C295.400000,239.800000,295.400000,240,295.500000,240.100000C296.300000,242,296.200000,243.900000,295.200000,244.700000L297.200000,243.200000C297.300000,243.100000,297.500000,243,297.600000,242.900000L297.600000,242.900000L297.600000,242.900000C298.400000,242,298.500000,240,297.500000,238Z" fill="rgb(32,48,53)" stroke="none" stroke-width="1"/><path id="eg51yv0co8775" d="M295.500000,240.100000C295.400000,240,295.400000,239.800000,295.300000,239.700000C294.500000,238.100000,293.300000,237,292.200000,236.700000C291.800000,236.600000,291.400000,236.600000,291,236.800000C289.700000,237.400000,289.500000,239.800000,290.600000,242C291.700000,244.200000,293.600000,245.500000,294.900000,244.800000C294.900000,244.800000,295,244.700000,295,244.700000C295,244.700000,295,244.700000,295,244.700000C295,244.700000,295.100000,244.700000,295.100000,244.600000C296.100000,243.900000,296.300000,242,295.500000,240.100000Z" fill="rgb(39,57,65)" stroke="none" stroke-width="1"/><path id="eg51yv0co8776" d="M294.100000,240.300000C294.100000,240.200000,294,240.100000,294,240.100000C293.600000,239.300000,293,238.700000,292.400000,238.600000C292.200000,238.500000,292,238.600000,291.800000,238.700000C291.100000,239,291,240.200000,291.600000,241.400000C292.200000,242.600000,293.200000,243.200000,293.900000,242.900000C293.900000,242.900000,293.900000,242.900000,294,242.900000C294,242.900000,294,242.900000,294,242.900000C294,242.900000,294,242.900000,294,242.900000C294.500000,242.300000,294.500000,241.300000,294.100000,240.300000Z" fill="rgb(32,48,53)" stroke="none" stroke-width="1"/><path id="eg51yv0co8777" d="M294.100000,240.100000C294.100000,240.100000,294.100000,240,294,240C293.800000,239.500000,293.400000,239.200000,293.100000,239.100000C293,239.100000,292.900000,239.100000,292.700000,239.100000C292.300000,239.300000,292.300000,240,292.600000,240.600000C292.900000,241.200000,293.500000,241.600000,293.900000,241.400000C293.900000,241.400000,293.900000,241.400000,293.900000,241.400000C293.900000,241.400000,293.900000,241.400000,293.900000,241.400000C293.900000,241.400000,293.900000,241.400000,293.900000,241.400000C294.300000,241.300000,294.300000,240.700000,294.100000,240.100000Z" fill="rgb(21,32,35)" stroke="none" stroke-width="1"/></g><g id="eg51yv0co8778"><path id="eg51yv0co8779" d="M243.500000,214C242.400000,211.800000,240.500000,210.500000,239.200000,211.200000C239.100000,211.300000,237,212.800000,236.800000,212.900000L238.700000,214.200000L239.500000,213.400000C240.200000,213.900000,240.800000,214.700000,241.300000,215.700000C241.400000,215.800000,241.400000,216,241.500000,216.100000C242.300000,218,242.200000,219.900000,241.200000,220.700000L243.200000,219.200000C243.300000,219.100000,243.500000,219,243.600000,218.900000L243.600000,218.900000L243.600000,218.900000C244.500000,218,244.500000,215.900000,243.500000,214Z" fill="rgb(32,48,53)" stroke="none" stroke-width="1"/><path id="eg51yv0co8780" d="M241.500000,216C241.400000,215.900000,241.400000,215.700000,241.300000,215.600000C240.500000,214,239.300000,212.900000,238.200000,212.600000C237.800000,212.500000,237.400000,212.500000,237,212.700000C235.700000,213.300000,235.500000,215.700000,236.600000,217.900000C237.700000,220.100000,239.600000,221.400000,240.900000,220.700000C240.900000,220.700000,241,220.600000,241,220.600000C241,220.600000,241,220.600000,241,220.600000C241,220.600000,241.100000,220.600000,241.100000,220.500000C242.100000,219.800000,242.300000,217.900000,241.500000,216Z" fill="rgb(39,57,65)" stroke="none" stroke-width="1"/><path id="eg51yv0co8781" d="M240.100000,216.300000C240.100000,216.200000,240,216.100000,240,216.100000C239.600000,215.300000,239,214.700000,238.400000,214.600000C238.200000,214.500000,238,214.600000,237.800000,214.700000C237.100000,215,237,216.200000,237.600000,217.400000C238.200000,218.500000,239.200000,219.200000,239.900000,218.900000C239.900000,218.900000,239.900000,218.900000,240,218.900000C240,218.900000,240,218.900000,240,218.900000C240,218.900000,240,218.900000,240,218.900000C240.500000,218.200000,240.500000,217.200000,240.100000,216.300000Z" fill="rgb(32,48,53)" stroke="none" stroke-width="1"/><path id="eg51yv0co8782" d="M240.100000,216.100000C240.100000,216.100000,240.100000,216,240,216C239.800000,215.500000,239.400000,215.200000,239.100000,215.100000C239,215.100000,238.900000,215.100000,238.700000,215.100000C238.300000,215.300000,238.300000,216,238.600000,216.600000C238.900000,217.200000,239.500000,217.600000,239.900000,217.400000C239.900000,217.400000,239.900000,217.400000,239.900000,217.400000C239.900000,217.400000,239.900000,217.400000,239.900000,217.400000C239.900000,217.400000,239.900000,217.400000,239.900000,217.400000C240.300000,217.200000,240.300000,216.700000,240.100000,216.100000Z" fill="rgb(21,32,35)" stroke="none" stroke-width="1"/></g><path id="eg51yv0co8783" d="M313.100000,208.200000L249,180C248.100000,179.600000,247,179.700000,246.100000,180.300000L229,193.100000L231.400000,212.800000L235.500000,214.600000C235.500000,213.600000,235.900000,212.800000,236.600000,212.400000C237,212.200000,237.400000,212.200000,237.800000,212.300000C238.900000,212.600000,240.100000,213.700000,240.900000,215.300000C241,215.400000,241,215.600000,241.100000,215.700000C241.300000,216.200000,241.500000,216.800000,241.600000,217.300000L243.100000,218C243.200000,217.200000,243.600000,216.600000,244.200000,216.300000C244.600000,216.100000,245,216.100000,245.400000,216.200000C246.500000,216.500000,247.700000,217.600000,248.500000,219.200000C248.600000,219.300000,248.600000,219.500000,248.700000,219.600000C248.900000,220,249,220.300000,249.100000,220.700000L289.500000,238.500000C289.600000,237.600000,290,236.800000,290.700000,236.500000C291.100000,236.300000,291.600000,236.300000,292.100000,236.400000C293.300000,236.700000,294.700000,237.900000,295.600000,239.700000C295.700000,239.900000,295.800000,240,295.800000,240.200000C296,240.600000,296.100000,241.100000,296.200000,241.500000L301.500000,243.900000L320.200000,230.200000C321.200000,214.300000,313.100000,208.200000,313.100000,208.200000Z" fill="rgb(62,0,255)" stroke="none" stroke-width="1"/><g id="eg51yv0co8784"><path id="eg51yv0co8785" d="M250.800000,217.400000C249.700000,215.200000,247.800000,213.900000,246.500000,214.600000C246.400000,214.700000,244.300000,216.200000,244.100000,216.300000L246,217.600000L246.800000,216.800000C247.500000,217.300000,248.100000,218.100000,248.600000,219.100000C248.700000,219.200000,248.700000,219.400000,248.800000,219.500000C249.600000,221.400000,249.500000,223.300000,248.500000,224.100000L250.500000,222.600000C250.600000,222.500000,250.800000,222.400000,250.900000,222.300000L250.900000,222.300000L250.900000,222.300000C251.700000,221.400000,251.700000,219.400000,250.800000,217.400000Z" fill="rgb(32,48,53)" stroke="none" stroke-width="1"/><path id="eg51yv0co8786" d="M248.700000,219.500000C248.600000,219.400000,248.600000,219.200000,248.500000,219.100000C247.700000,217.500000,246.500000,216.400000,245.400000,216.100000C245,216,244.600000,216,244.200000,216.200000C242.900000,216.800000,242.700000,219.200000,243.800000,221.400000C244.900000,223.600000,246.800000,224.900000,248.100000,224.200000C248.100000,224.200000,248.200000,224.100000,248.200000,224.100000C248.200000,224.100000,248.200000,224.100000,248.200000,224.100000C248.200000,224.100000,248.300000,224.100000,248.300000,224C249.400000,223.300000,249.500000,221.400000,248.700000,219.500000Z" fill="rgb(39,57,65)" stroke="none" stroke-width="1"/><path id="eg51yv0co8787" d="M247.400000,219.700000C247.400000,219.600000,247.300000,219.500000,247.300000,219.500000C246.900000,218.700000,246.300000,218.100000,245.700000,218C245.500000,217.900000,245.300000,218,245.100000,218.100000C244.400000,218.400000,244.300000,219.600000,244.900000,220.800000C245.500000,221.900000,246.500000,222.600000,247.200000,222.300000C247.200000,222.300000,247.200000,222.300000,247.300000,222.300000C247.300000,222.300000,247.300000,222.300000,247.300000,222.300000C247.300000,222.300000,247.300000,222.300000,247.300000,222.300000C247.700000,221.700000,247.800000,220.700000,247.400000,219.700000Z" fill="rgb(32,48,53)" stroke="none" stroke-width="1"/><path id="eg51yv0co8788" d="M247.400000,219.500000C247.400000,219.500000,247.400000,219.400000,247.300000,219.400000C247.100000,218.900000,246.700000,218.600000,246.400000,218.500000C246.300000,218.500000,246.200000,218.500000,246,218.500000C245.600000,218.700000,245.600000,219.400000,245.900000,220C246.200000,220.600000,246.800000,221,247.200000,220.800000C247.200000,220.800000,247.200000,220.800000,247.200000,220.800000C247.200000,220.800000,247.200000,220.800000,247.200000,220.800000C247.200000,220.800000,247.200000,220.800000,247.200000,220.800000C247.600000,220.700000,247.600000,220.100000,247.400000,219.500000Z" fill="rgb(21,32,35)" stroke="none" stroke-width="1"/></g><path id="eg51yv0co8789" d="M244.200000,216.200000C244.600000,216,245,216,245.400000,216.100000C246.500000,216.400000,247.700000,217.500000,248.500000,219.100000C248.600000,219.200000,248.600000,219.400000,248.700000,219.500000C248.900000,219.900000,249,220.300000,249.100000,220.600000L263.300000,226.900000C262.400000,224.700000,261.200000,222.700000,259.400000,221.100000C255.900000,218.100000,250.700000,217.300000,248,213.600000C246.200000,211.200000,246,208,245.200000,205.100000C244.600000,203,243.800000,200.900000,242.700000,199L229.100000,193L229,193.100000L231.400000,212.800000L235.500000,214.600000C235.500000,213.600000,235.900000,212.800000,236.600000,212.400000C237,212.200000,237.400000,212.200000,237.800000,212.300000C238.900000,212.600000,240.100000,213.700000,240.900000,215.300000C241,215.400000,241,215.600000,241.100000,215.700000C241.300000,216.200000,241.500000,216.800000,241.600000,217.300000L243.100000,218C243.300000,217.200000,243.600000,216.500000,244.200000,216.200000Z" fill="rgb(15,206,124)" stroke="none" stroke-width="1"/><g id="eg51yv0co8790"><g id="eg51yv0co8791"><g id="eg51yv0co8792"><g id="eg51yv0co8793"><path id="eg51yv0co8794" d="M274,214.500000C274,214.500000,276,229.700000,276.200000,232.500000L288.500000,237.900000L286.300000,219.800000L274,214.500000Z" fill="rgb(61,92,102)" stroke="none" stroke-width="1"/><path id="eg51yv0co8795" d="M274,214.500000C274,214.500000,276,229.700000,276.200000,232.500000L288.500000,237.900000L286.300000,219.800000L274,214.500000Z" fill="none" stroke="rgb(21,0,62)" stroke-width="2" stroke-miterlimit="10"/><path id="eg51yv0co8796" d="M313.100000,208.200000L294.900000,220.300000C294.300000,220.700000,293.600000,220.900000,292.900000,220.900000C295.200000,224.500000,301.200000,234.800000,301.500000,243.700000L320.200000,230C321.200000,214.300000,313.100000,208.200000,313.100000,208.200000Z" fill="rgb(21,0,62)" stroke="none" stroke-width="1"/><path id="eg51yv0co8797" d="M299.700000,234.700000C300.700000,237.700000,301.400000,240.800000,301.500000,243.700000L320.200000,230C320.400000,226.700000,320.200000,223.800000,319.700000,221.300000L299.700000,234.700000Z" fill="rgb(220,231,253)" stroke="none" stroke-width="1"/><g id="eg51yv0co8798"><path id="eg51yv0co8799" d="M313.100000,208.200000L249.800000,180.200000C248.400000,179.600000,246.700000,179.800000,245.500000,180.700000L229,193L291.500000,220.600000C292.600000,221.100000,293.900000,221,295,220.300000L313.100000,208.200000Z" fill="rgb(220,231,253)" stroke="none" stroke-width="1"/></g></g></g></g><path id="eg51yv0co87100" d="M318.800000,219.700000C318.300000,218,316.300000,212,313.700000,209.900000C313.500000,209.700000,313.200000,209.700000,313,209.900000L295.600000,221.300000C295.300000,221.500000,295.200000,221.900000,295.400000,222.200000C296.500000,223.900000,299.900000,229,300.900000,231.600000C301,232,301.500000,232.100000,301.900000,231.900000L318.600000,220.500000C318.700000,220.200000,318.800000,219.900000,318.800000,219.700000Z" fill="rgb(61,92,102)" stroke="none" stroke-width="1"/><path id="eg51yv0co87101" d="M279.400000,216.900000C279.400000,216.900000,281.600000,235,281.600000,235.100000" fill="none" stroke="rgb(21,0,62)" stroke-width="2" stroke-miterlimit="10"/><path id="eg51yv0co87102" d="M292.400000,223.100000C292.300000,222.400000,291.900000,221.900000,291.200000,221.600000L287.700000,220.300000L288.700000,228.300000L293.300000,230.100000L292.400000,223.100000Z" fill="rgb(21,0,62)" stroke="none" stroke-width="1"/></g><g id="eg51yv0co87103"><path id="eg51yv0co87104" d="M304.400000,236.300000C304,234.800000,302.400000,234,301,234.600000L301.600000,236.300000C301.800000,236.900000,301.900000,237.400000,302,238L302.300000,240.400000C302.300000,240.800000,302.700000,240.900000,303,240.700000L305,239.400000C305.200000,239.300000,305.200000,239.100000,305.200000,238.900000L304.400000,236.300000Z" fill="rgb(37,232,153)" stroke="none" stroke-width="1"/><path id="eg51yv0co87105" d="M301,234.700000L301.600000,236.400000C301.800000,237,301.900000,237.500000,302,238.100000L302.300000,240.500000C302.300000,240.900000,302.700000,241,303,240.800000L303.100000,240.700000C302.800000,239.700000,302.800000,238.700000,302.600000,237.600000C302.400000,236.600000,301.900000,235.400000,301,234.700000Z" fill="rgb(15,206,124)" stroke="none" stroke-width="1"/></g><path id="eg51yv0co87106" d="M319.800000,223.500000L320,229.600000L317.900000,230.900000C318,230.900000,316.500000,226,319.800000,223.500000Z" fill="rgb(15,206,124)" stroke="none" stroke-width="1"/></g></g><g id="eg51yv0co87107_to" transform="translate(-31.899219,8.107031)"><g id="eg51yv0co87107" transform="translate(0,0)"><g id="eg51yv0co87108"><path id="eg51yv0co87109" d="M557.600000,410.800000C558.700000,408.600000,560.600000,407.300000,561.900000,408C562,408.100000,564.100000,409.600000,564.300000,409.700000L562.400000,411L561.600000,410.200000C560.900000,410.700000,560.300000,411.500000,559.800000,412.500000C559.700000,412.600000,559.700000,412.800000,559.600000,412.900000C558.800000,414.800000,558.900000,416.700000,559.900000,417.500000L557.900000,416C557.800000,415.900000,557.600000,415.800000,557.500000,415.700000L557.500000,415.700000L557.500000,415.700000C556.700000,414.800000,556.600000,412.800000,557.600000,410.800000Z" fill="rgb(32,48,53)" stroke="none" stroke-width="1"/><path id="eg51yv0co87110" d="M559.600000,412.900000C559.700000,412.800000,559.700000,412.600000,559.800000,412.500000C560.600000,410.900000,561.800000,409.800000,562.900000,409.500000C563.300000,409.400000,563.700000,409.400000,564.100000,409.600000C565.400000,410.200000,565.600000,412.600000,564.500000,414.800000C563.400000,417,561.500000,418.300000,560.200000,417.600000C560.200000,417.600000,560.100000,417.500000,560.100000,417.500000C560.100000,417.500000,560.100000,417.500000,560.100000,417.500000C560.100000,417.500000,560,417.500000,560,417.400000C559,416.700000,558.800000,414.800000,559.600000,412.900000Z" fill="rgb(39,57,65)" stroke="none" stroke-width="1"/><path id="eg51yv0co87111" d="M561,413.100000C561,413,561.100000,412.900000,561.100000,412.900000C561.500000,412.100000,562.100000,411.500000,562.700000,411.400000C562.900000,411.300000,563.100000,411.400000,563.300000,411.500000C564,411.800000,564.100000,413,563.500000,414.200000C562.900000,415.400000,561.900000,416,561.200000,415.700000C561.200000,415.700000,561.200000,415.700000,561.100000,415.700000C561.100000,415.700000,561.100000,415.700000,561.100000,415.700000C561.100000,415.700000,561.100000,415.700000,561.100000,415.700000C560.600000,415.100000,560.600000,414.100000,561,413.100000Z" fill="rgb(32,48,53)" stroke="none" stroke-width="1"/><path id="eg51yv0co87112" d="M561,412.900000C561,412.900000,561,412.800000,561.100000,412.800000C561.300000,412.300000,561.700000,412,562,411.900000C562.100000,411.900000,562.200000,411.900000,562.400000,411.900000C562.800000,412.100000,562.800000,412.800000,562.500000,413.400000C562.200000,414,561.600000,414.400000,561.200000,414.200000C561.200000,414.200000,561.200000,414.200000,561.200000,414.200000C561.200000,414.200000,561.200000,414.200000,561.200000,414.200000C561.200000,414.200000,561.200000,414.200000,561.200000,414.200000C560.800000,414,560.800000,413.500000,561,412.900000Z" fill="rgb(21,32,35)" stroke="none" stroke-width="1"/></g><g id="eg51yv0co87113"><path id="eg51yv0co87114" d="M611.600000,386.800000C612.700000,384.600000,614.600000,383.300000,615.900000,384C616,384.100000,618.100000,385.600000,618.300000,385.700000L616.400000,387L615.600000,386.200000C614.900000,386.700000,614.300000,387.500000,613.800000,388.500000C613.700000,388.600000,613.700000,388.800000,613.600000,388.900000C612.800000,390.800000,612.900000,392.700000,613.900000,393.500000L611.900000,392C611.800000,391.900000,611.600000,391.800000,611.500000,391.700000L611.500000,391.700000L611.500000,391.700000C610.700000,390.800000,610.600000,388.700000,611.600000,386.800000Z" fill="rgb(32,48,53)" stroke="none" stroke-width="1"/><path id="eg51yv0co87115" d="M613.600000,388.800000C613.700000,388.700000,613.700000,388.500000,613.800000,388.400000C614.600000,386.800000,615.800000,385.700000,616.900000,385.400000C617.300000,385.300000,617.700000,385.300000,618.100000,385.500000C619.400000,386.100000,619.600000,388.500000,618.500000,390.700000C617.400000,392.900000,615.500000,394.200000,614.200000,393.500000C614.200000,393.500000,614.100000,393.400000,614.100000,393.400000C614.100000,393.400000,614.100000,393.400000,614.100000,393.400000C614.100000,393.400000,614,393.400000,614,393.300000C613,392.600000,612.800000,390.700000,613.600000,388.800000Z" fill="rgb(39,57,65)" stroke="none" stroke-width="1"/><path id="eg51yv0co87116" d="M615,389C615,388.900000,615.100000,388.800000,615.100000,388.800000C615.500000,388,616.100000,387.400000,616.700000,387.300000C616.900000,387.200000,617.100000,387.300000,617.300000,387.400000C618,387.700000,618.100000,388.900000,617.500000,390.100000C616.900000,391.300000,615.900000,391.900000,615.200000,391.600000C615.200000,391.600000,615.200000,391.600000,615.100000,391.600000C615.100000,391.600000,615.100000,391.600000,615.100000,391.600000C615.100000,391.600000,615.100000,391.600000,615.100000,391.600000C614.600000,391,614.600000,390,615,389Z" fill="rgb(32,48,53)" stroke="none" stroke-width="1"/><path id="eg51yv0co87117" d="M615,388.900000C615,388.900000,615,388.800000,615.100000,388.800000C615.300000,388.300000,615.700000,388,616,387.900000C616.100000,387.900000,616.200000,387.900000,616.400000,387.900000C616.800000,388.100000,616.800000,388.800000,616.500000,389.400000C616.200000,390,615.600000,390.400000,615.200000,390.200000C615.200000,390.200000,615.200000,390.200000,615.200000,390.200000C615.200000,390.200000,615.200000,390.200000,615.200000,390.200000C615.200000,390.200000,615.200000,390.200000,615.200000,390.200000C614.800000,390,614.800000,389.400000,615,388.900000Z" fill="rgb(21,32,35)" stroke="none" stroke-width="1"/></g><path id="eg51yv0co87118" d="M542,381L606.100000,352.800000C607,352.400000,608.100000,352.500000,609,353.100000L626.200000,365.800000L623.800000,385.500000L619.700000,387.300000C619.700000,386.300000,619.300000,385.500000,618.600000,385.100000C618.200000,384.900000,617.800000,384.900000,617.400000,385C616.300000,385.300000,615.100000,386.400000,614.300000,388C614.200000,388.100000,614.200000,388.300000,614.100000,388.400000C613.900000,388.900000,613.700000,389.500000,613.600000,390L612.100000,390.700000C612,389.900000,611.600000,389.300000,611,389C610.600000,388.800000,610.200000,388.800000,609.800000,388.900000C608.700000,389.200000,607.500000,390.300000,606.700000,391.900000C606.600000,392,606.600000,392.200000,606.500000,392.300000C606.300000,392.700000,606.200000,393,606.100000,393.400000L565.700000,411.200000C565.600000,410.300000,565.200000,409.500000,564.500000,409.200000C564.100000,409,563.600000,409,563.100000,409.100000C561.900000,409.400000,560.500000,410.600000,559.600000,412.400000C559.500000,412.600000,559.400000,412.700000,559.400000,412.900000C559.200000,413.300000,559.100000,413.800000,559,414.200000L553.700000,416.600000L535,402.900000C533.900000,387.100000,542,381,542,381Z" fill="rgb(62,0,255)" stroke="none" stroke-width="1"/><g id="eg51yv0co87119"><path id="eg51yv0co87120" d="M604.300000,390.200000C605.400000,388,607.300000,386.700000,608.600000,387.400000C608.700000,387.500000,610.800000,389,611,389.100000L609.100000,390.400000L608.300000,389.600000C607.600000,390.100000,607,390.900000,606.500000,391.900000C606.400000,392,606.400000,392.200000,606.300000,392.300000C605.500000,394.200000,605.600000,396.100000,606.600000,396.900000L604.600000,395.400000C604.500000,395.300000,604.300000,395.200000,604.200000,395.100000L604.200000,395.100000L604.200000,395.100000C603.400000,394.200000,603.400000,392.200000,604.300000,390.200000Z" fill="rgb(32,48,53)" stroke="none" stroke-width="1"/><path id="eg51yv0co87121" d="M606.400000,392.300000C606.500000,392.200000,606.500000,392,606.600000,391.900000C607.400000,390.300000,608.600000,389.200000,609.700000,388.900000C610.100000,388.800000,610.500000,388.800000,610.900000,389C612.200000,389.600000,612.400000,392,611.300000,394.200000C610.200000,396.400000,608.300000,397.700000,607,397C607,397,606.900000,396.900000,606.900000,396.900000C606.900000,396.900000,606.900000,396.900000,606.900000,396.900000C606.900000,396.900000,606.800000,396.900000,606.800000,396.800000C605.700000,396.100000,605.600000,394.200000,606.400000,392.300000Z" fill="rgb(39,57,65)" stroke="none" stroke-width="1"/><path id="eg51yv0co87122" d="M607.700000,392.500000C607.700000,392.400000,607.800000,392.300000,607.800000,392.300000C608.200000,391.500000,608.800000,390.900000,609.400000,390.800000C609.600000,390.700000,609.800000,390.800000,610,390.900000C610.700000,391.200000,610.800000,392.400000,610.200000,393.600000C609.600000,394.800000,608.600000,395.400000,607.900000,395.100000C607.900000,395.100000,607.900000,395.100000,607.800000,395.100000C607.800000,395.100000,607.800000,395.100000,607.800000,395.100000C607.800000,395.100000,607.800000,395.100000,607.800000,395.100000C607.400000,394.500000,607.300000,393.500000,607.700000,392.500000Z" fill="rgb(32,48,53)" stroke="none" stroke-width="1"/><path id="eg51yv0co87123" d="M607.700000,392.300000C607.700000,392.300000,607.700000,392.200000,607.800000,392.200000C608,391.700000,608.400000,391.400000,608.700000,391.300000C608.800000,391.300000,608.900000,391.300000,609.100000,391.300000C609.500000,391.500000,609.500000,392.200000,609.200000,392.800000C608.900000,393.400000,608.300000,393.800000,607.900000,393.600000C607.900000,393.600000,607.900000,393.600000,607.900000,393.600000C607.900000,393.600000,607.900000,393.600000,607.900000,393.600000C607.900000,393.600000,607.900000,393.600000,607.900000,393.600000C607.500000,393.400000,607.500000,392.900000,607.700000,392.300000Z" fill="rgb(21,32,35)" stroke="none" stroke-width="1"/></g><path id="eg51yv0co87124" d="M610.900000,389C610.500000,388.800000,610.100000,388.800000,609.700000,388.900000C608.600000,389.200000,607.400000,390.300000,606.600000,391.900000C606.500000,392,606.500000,392.200000,606.400000,392.300000C606.200000,392.700000,606.100000,393.100000,606,393.400000L591.800000,399.700000C592.700000,397.500000,593.900000,395.500000,595.700000,393.900000C599.200000,390.900000,604.400000,390.100000,607.100000,386.400000C608.900000,384,609.100000,380.800000,609.900000,377.900000C610.500000,375.800000,611.300000,373.700000,612.400000,371.800000L626,365.800000L626.100000,365.900000L623.700000,385.600000L619.600000,387.400000C619.600000,386.400000,619.200000,385.600000,618.500000,385.200000C618.100000,385,617.700000,385,617.300000,385.100000C616.200000,385.400000,615,386.500000,614.200000,388.100000C614.100000,388.200000,614.100000,388.400000,614,388.500000C613.800000,389,613.600000,389.600000,613.500000,390.100000L612,390.800000C611.900000,389.900000,611.500000,389.300000,610.900000,389Z" fill="rgb(15,206,124)" stroke="none" stroke-width="1"/><g id="eg51yv0co87125"><g id="eg51yv0co87126"><g id="eg51yv0co87127"><g id="eg51yv0co87128"><path id="eg51yv0co87129" d="M581.100000,387.300000C581.100000,387.300000,579.100000,402.500000,578.900000,405.300000L566.600000,410.700000L568.800000,392.600000L581.100000,387.300000Z" fill="rgb(61,92,102)" stroke="none" stroke-width="1"/><path id="eg51yv0co87130" d="M581.100000,387.300000C581.100000,387.300000,579.100000,402.500000,578.900000,405.300000L566.600000,410.700000L568.800000,392.600000L581.100000,387.300000Z" fill="none" stroke="rgb(21,0,62)" stroke-width="2" stroke-miterlimit="10"/><path id="eg51yv0co87131" d="M542,381L560.200000,393.100000C560.800000,393.500000,561.500000,393.700000,562.200000,393.700000C559.900000,397.300000,553.900000,407.600000,553.600000,416.500000L534.900000,402.800000C533.900000,387.100000,542,381,542,381Z" fill="rgb(21,0,62)" stroke="none" stroke-width="1"/><path id="eg51yv0co87132" d="M555.400000,407.500000C554.400000,410.500000,553.700000,413.600000,553.600000,416.500000L534.900000,402.800000C534.700000,399.500000,534.900000,396.600000,535.400000,394.100000L555.400000,407.500000Z" fill="rgb(220,231,253)" stroke="none" stroke-width="1"/><g id="eg51yv0co87133"><path id="eg51yv0co87134" d="M542,381L605.300000,353C606.700000,352.400000,608.400000,352.600000,609.600000,353.500000L626.100000,365.700000L563.600000,393.300000C562.500000,393.800000,561.200000,393.700000,560.100000,393L542,381Z" fill="rgb(220,231,253)" stroke="none" stroke-width="1"/></g></g></g></g><path id="eg51yv0co87135" d="M536.300000,392.500000C536.800000,390.800000,538.800000,384.800000,541.400000,382.700000C541.600000,382.500000,541.900000,382.500000,542.100000,382.700000L559.500000,394.100000C559.800000,394.300000,559.900000,394.700000,559.700000,395C558.600000,396.700000,555.200000,401.800000,554.200000,404.400000C554.100000,404.800000,553.600000,404.900000,553.200000,404.700000L536.500000,393.300000C536.400000,393,536.300000,392.700000,536.300000,392.500000Z" fill="rgb(61,92,102)" stroke="none" stroke-width="1"/><path id="eg51yv0co87136" d="M575.700000,389.700000C575.700000,389.700000,573.500000,407.800000,573.500000,407.900000" fill="none" stroke="rgb(21,0,62)" stroke-width="2" stroke-miterlimit="10"/><path id="eg51yv0co87137" d="M562.700000,395.900000C562.800000,395.200000,563.200000,394.700000,563.900000,394.400000L567.400000,393.100000L566.400000,401.100000L561.800000,402.900000L562.700000,395.900000Z" fill="rgb(21,0,62)" stroke="none" stroke-width="1"/></g><g id="eg51yv0co87138"><path id="eg51yv0co87139" d="M550.700000,409.100000C551.100000,407.600000,552.700000,406.800000,554.100000,407.400000L553.500000,409.100000C553.300000,409.700000,553.200000,410.200000,553.100000,410.800000L552.800000,413.200000C552.800000,413.600000,552.400000,413.700000,552.100000,413.500000L550.100000,412.200000C549.900000,412.100000,549.900000,411.900000,549.900000,411.700000L550.700000,409.100000Z" fill="rgb(37,232,153)" stroke="none" stroke-width="1"/><path id="eg51yv0co87140" d="M554.100000,407.500000L553.500000,409.200000C553.300000,409.800000,553.200000,410.300000,553.100000,410.900000L552.800000,413.300000C552.800000,413.700000,552.400000,413.800000,552.100000,413.600000L552,413.500000C552.300000,412.500000,552.300000,411.500000,552.500000,410.400000C552.800000,409.400000,553.200000,408.200000,554.100000,407.500000Z" fill="rgb(15,206,124)" stroke="none" stroke-width="1"/></g><path id="eg51yv0co87141" d="M535.300000,396.300000L535.100000,402.400000L537.200000,403.700000C537.100000,403.700000,538.600000,398.800000,535.300000,396.300000Z" fill="rgb(15,206,124)" stroke="none" stroke-width="1"/></g></g><g id="eg51yv0co87142"><g id="eg51yv0co87143"><path id="eg51yv0co87144" d="M297,0L0,171.500000L0,514.500000L297,686L594,514.500000L594,171.500000L297,0ZM542.800000,484.900000L297.100000,626.800000L51.300000,484.900000L51.300000,201.100000L297.100000,59.100000L542.800000,201.100000L542.800000,484.900000Z" fill="rgb(250,219,165)" stroke="none" stroke-width="1"/><path id="eg51yv0co87145" d="M297,0L0,171.500000L0,514.500000L297,686L594,514.500000L594,171.500000L297,0ZM542.800000,484.900000L297.100000,626.800000L51.300000,484.900000L51.300000,201.100000L297.100000,59.100000L542.800000,201.100000L542.800000,484.900000Z" fill="rgb(63,26,1)" stroke="none" stroke-width="1"/><path id="eg51yv0co87146" d="M297,59.100000L51.200000,201.100000L51.200000,484.900000L297,626.800000L542.700000,484.900000L542.700000,201.100000L297,59.100000ZM530.300000,477.800000L297,612.500000L63.600000,477.800000L63.600000,208.300000L297,73.500000L530.400000,208.300000L530.400000,477.800000Z" fill="rgb(17,17,17)" stroke="none" stroke-width="1"/><path id="eg51yv0co87147" d="M297,61.300000L53,202.100000L53,483.800000L297,624.700000L540.900000,483.800000L540.900000,202.100000L297,61.300000Z" opacity="0.25" fill="none" stroke="rgb(0,0,0)" stroke-width="20" stroke-miterlimit="10"/><path id="eg51yv0co87148" d="M380.700000,612.600000L389.700000,607.500000L390.100000,608.200000C391,609.700000,391.600000,611.200000,392,612.900000C392.300000,614.300000,392.300000,615.800000,392,617.300000C391.400000,620.600000,389.200000,623.500000,386.300000,625.100000C383.400000,626.800000,379.900000,627.300000,376.600000,626.300000C369.700000,624.400000,365.600000,617.200000,367.500000,610.300000C368.400000,606.900000,370.600000,604,373.700000,602.400000C375.300000,601.400000,377.200000,600.900000,379,600.700000C381.100000,600.600000,383.100000,601,385.100000,601.700000L384.100000,605.300000C381.400000,603.900000,378.200000,604,375.600000,605.500000C373.400000,606.700000,371.800000,608.800000,371.200000,611.200000C370.500000,613.600000,370.900000,616.200000,372.200000,618.400000C373.400000,620.700000,375.600000,622.300000,378.200000,622.900000C380.400000,623.400000,382.800000,623.100000,384.700000,622C386.300000,621.100000,387.500000,619.600000,388.100000,617.900000C388.700000,616.200000,388.700000,614.400000,388,612.700000L382.600000,615.800000L380.700000,612.600000Z" fill="rgb(255,255,255)" stroke="none" stroke-width="1"/><rect id="eg51yv0co87149" width="3.800000" height="25" rx="0" ry="0" transform="matrix(0.86650002002716 -0.49919998645782 0.49919998645782 0.86650002002716 395.21335890293108 590.47329170703881)" fill="rgb(255,255,255)" stroke="none" stroke-width="1"/><polygon id="eg51yv0co87150" points="418.900000,580.800000 429.700000,599.400000 426.400000,601.300000 415.700000,582.700000 410.700000,585.600000 408.900000,582.500000 422.100000,574.900000 423.900000,578" fill="rgb(255,255,255)" stroke="none" stroke-width="1"/><path id="eg51yv0co87151" d="M448.500000,561.300000L450.700000,565.200000C448.200000,564.600000,445.700000,565,443.500000,566.200000C441.300000,567.400000,439.800000,569.400000,439.200000,571.800000C438.600000,574.200000,439,576.800000,440.300000,579C441.500000,581.200000,443.500000,582.800000,445.900000,583.400000C448.300000,584.100000,450.800000,583.700000,452.900000,582.500000C453.900000,581.900000,454.800000,581.200000,455.500000,580.200000C455.900000,579.700000,456.200000,579.200000,456.500000,578.700000C456.800000,578,457.100000,577.400000,457.400000,576.700000L459.700000,580.700000C458.500000,582.800000,456.800000,584.500000,454.700000,585.700000C451.700000,587.400000,448.200000,587.900000,444.900000,587C441.600000,586.200000,438.700000,584,437.100000,581C435.500000,578.300000,435,575.100000,435.600000,572C436.600000,565.700000,442.100000,561.200000,448.500000,561.300000" fill="rgb(255,255,255)" stroke="none" stroke-width="1"/><path id="eg51yv0co87152" d="M464.400000,560.300000C462.700000,557.300000,462.200000,553.800000,463.300000,550.500000C464.200000,547.100000,466.400000,544.300000,469.400000,542.600000C475.600000,539.100000,483.600000,541.200000,487.200000,547.400000C489,550.400000,489.400000,554,488.400000,557.300000C486.500000,564,479.800000,568.100000,472.900000,566.600000C469.300000,565.900000,466.100000,563.600000,464.400000,560.300000M467.700000,558.400000C468.900000,560.700000,471,562.300000,473.500000,562.900000C478.400000,564.200000,483.500000,561.300000,484.800000,556.400000C486,551.400000,483.100000,546.200000,478.100000,544.800000C475.700000,544.100000,473.200000,544.400000,471,545.700000C468.800000,546.900000,467.300000,549,466.600000,551.400000C466.100000,553.700000,466.400000,556.300000,467.700000,558.400000" fill="rgb(172,46,24)" stroke="none" stroke-width="1"/><rect id="eg51yv0co87153" width="3.800000" height="25" rx="0" ry="0" transform="matrix(0.86629998683929 -0.49950000643730 0.49950000643730 0.86629998683929 492.40911000370977 534.45971851348884)" fill="rgb(255,255,255)" stroke="none" stroke-width="1"/><polygon id="eg51yv0co87154" points="520.900000,546.900000 507.600000,523.800000 533,531.200000 524.300000,516.100000 527.500000,514.200000 540.800000,537.300000 515.500000,529.800000 524.200000,545" fill="rgb(255,255,255)" stroke="none" stroke-width="1"/></g></g><g id="eg51yv0co87155"><g id="eg51yv0co87156"><path id="eg51yv0co87157" d="M594,514.500000C577.100000,504.600000,560.200000,494.700000,543.300000,484.900000L543.300000,200.600000C560.200000,190.900000,577.100000,181.200000,594,171.500000C594,285.800000,594,400.100000,594,514.500000Z" fill="url(#eg51yv0co87157-fill)" stroke="none" stroke-width="1"/><path id="eg51yv0co87158" d="M546.300000,486.600000C545.700000,486.300000,545.100000,485.900000,544.500000,485.600000C544.500000,390.400000,544.600000,295.100000,544.600000,199.900000C545.200000,199.600000,545.800000,199.200000,546.400000,198.900000C546.400000,294.700000,546.300000,390.700000,546.300000,486.600000Z" fill="rgb(255,255,255)" stroke="none" stroke-width="1"/><path id="eg51yv0co87159" d="M590.500000,512.400000C591.100000,512.800000,591.800000,513.200000,592.400000,513.600000C592.400000,399.900000,592.400000,286.100000,592.400000,172.400000C591.800000,172.700000,591.200000,173.100000,590.600000,173.400000C590.600000,286.400000,590.500000,399.400000,590.500000,512.400000Z" fill="rgb(255,255,255)" stroke="none" stroke-width="1"/><g id="eg51yv0co87160"><path id="eg51yv0co87161" d="M565.600000,187.800000C566.200000,187.400000,566.800000,187.100000,567.400000,186.700000C567.400000,290.800000,567.400000,394.900000,567.400000,498.900000C566.800000,498.500000,566.100000,498.200000,565.500000,497.800000C565.600000,394.500000,565.600000,291.100000,565.600000,187.800000Z" fill="rgb(251,176,59)" stroke="none" stroke-width="1"/><path id="eg51yv0co87162" d="M569.600000,185.500000C570.300000,185.100000,570.900000,184.700000,571.600000,184.400000C571.600000,290.100000,571.600000,395.700000,571.600000,501.400000C571,501,570.300000,500.700000,569.700000,500.300000C569.700000,395.300000,569.600000,290.400000,569.600000,185.500000Z" fill="rgb(251,176,59)" stroke="none" stroke-width="1"/></g></g><g id="eg51yv0co87163"><path id="eg51yv0co87164" d="M0,514.500000C16.900000,504.600000,33.800000,494.700000,50.700000,484.900000L50.700000,200.600000C33.900000,190.900000,17,181.200000,0,171.500000C0,285.800000,0,400.200000,0,514.500000Z" fill="url(#eg51yv0co87164-fill)" stroke="none" stroke-width="1"/><path id="eg51yv0co87165" d="M47.800000,486.600000C48.400000,486.300000,49,485.900000,49.600000,485.600000C49.600000,390.400000,49.500000,295.100000,49.500000,199.900000C48.900000,199.600000,48.300000,199.200000,47.700000,198.900000C47.700000,294.700000,47.700000,390.700000,47.800000,486.600000Z" fill="rgb(255,255,255)" stroke="none" stroke-width="1"/><path id="eg51yv0co87166" d="M3.600000,512.400000C3,512.800000,2.300000,513.200000,1.700000,513.600000C1.700000,399.900000,1.700000,286.100000,1.700000,172.400000C2.300000,172.700000,2.900000,173.100000,3.500000,173.400000C3.500000,286.400000,3.500000,399.400000,3.600000,512.400000Z" fill="rgb(255,255,255)" stroke="none" stroke-width="1"/><g id="eg51yv0co87167"><path id="eg51yv0co87168" d="M28.400000,187.800000C27.800000,187.400000,27.200000,187.100000,26.600000,186.700000C26.600000,290.800000,26.600000,394.900000,26.600000,498.900000C27.200000,498.500000,27.900000,498.200000,28.500000,497.800000C28.400000,394.500000,28.400000,291.200000,28.400000,187.800000Z" fill="rgb(251,176,59)" stroke="none" stroke-width="1"/><path id="eg51yv0co87169" d="M24.500000,185.500000C23.800000,185.100000,23.200000,184.700000,22.500000,184.400000C22.500000,290.100000,22.500000,395.700000,22.500000,501.400000C23.100000,501,23.800000,500.700000,24.400000,500.300000C24.400000,395.300000,24.400000,290.400000,24.500000,185.500000Z" fill="rgb(251,176,59)" stroke="none" stroke-width="1"/></g></g><g id="eg51yv0co87170"><path id="eg51yv0co87171" d="M297.900000,684.600000C297.700000,665,297.600000,645.400000,297.400000,625.800000L50.700000,484.600000C33.900000,494.500000,17.100000,504.300000,0.200000,514.200000C99.500000,571,198.700000,627.800000,297.900000,684.600000Z" fill="url(#eg51yv0co87171-fill)" stroke="none" stroke-width="1"/><path id="eg51yv0co87172" d="M297.400000,629.300000C297.400000,628.600000,297.400000,627.900000,297.400000,627.200000C214.700000,579.900000,132,532.600000,49.400000,485.300000C48.800000,485.600000,48.200000,486,47.600000,486.300000C130.900000,534.100000,214.200000,581.700000,297.400000,629.300000Z" fill="rgb(255,255,255)" stroke="none" stroke-width="1"/><path id="eg51yv0co87173" d="M297.900000,680.500000C297.900000,681.200000,298,682,298,682.700000C199.300000,626.200000,100.600000,569.700000,1.900000,513.200000C2.500000,512.900000,3.100000,512.500000,3.700000,512.200000C101.700000,568.300000,199.800000,624.400000,297.900000,680.500000Z" fill="rgb(255,255,255)" stroke="none" stroke-width="1"/><g id="eg51yv0co87174"><path id="eg51yv0co87175" d="M28.500000,497.700000C27.900000,498.100000,27.300000,498.400000,26.700000,498.800000C117,550.500000,207.300000,602.200000,297.700000,653.900000C297.700000,653.200000,297.700000,652.400000,297.700000,651.700000C207.900000,600.400000,118.200000,549,28.500000,497.700000Z" fill="rgb(251,176,59)" stroke="none" stroke-width="1"/><path id="eg51yv0co87176" d="M24.600000,500C23.900000,500.400000,23.300000,500.800000,22.600000,501.200000C114.300000,553.700000,206,606.200000,297.700000,658.700000C297.700000,658,297.700000,657.200000,297.700000,656.500000C206.600000,604.300000,115.600000,552.100000,24.600000,500Z" fill="rgb(251,176,59)" stroke="none" stroke-width="1"/></g></g><g id="eg51yv0co87177"><path id="eg51yv0co87178" d="M296.600000,685.100000C296.800000,665.500000,296.900000,645.900000,297.100000,626.300000L543.800000,485.100000C560.600000,495,577.400000,504.800000,594.300000,514.700000C495,571.500000,395.800000,628.300000,296.600000,685.100000Z" fill="url(#eg51yv0co87178-fill)" stroke="none" stroke-width="1"/><path id="eg51yv0co87179" d="M297.100000,629.800000C297.100000,629.100000,297.100000,628.400000,297.100000,627.700000C379.800000,580.400000,462.500000,533.100000,545.100000,485.800000C545.700000,486.100000,546.300000,486.500000,546.900000,486.800000C463.600000,534.600000,380.400000,582.200000,297.100000,629.800000Z" fill="rgb(255,255,255)" stroke="none" stroke-width="1"/><path id="eg51yv0co87180" d="M296.600000,681C296.600000,681.700000,296.500000,682.500000,296.500000,683.200000C395.200000,626.700000,493.900000,570.200000,592.600000,513.700000C592,513.400000,591.400000,513,590.800000,512.700000C492.800000,568.800000,394.700000,624.900000,296.600000,681Z" fill="rgb(255,255,255)" stroke="none" stroke-width="1"/><g id="eg51yv0co87181"><path id="eg51yv0co87182" d="M566,498.200000C566.600000,498.600000,567.200000,498.900000,567.800000,499.300000C477.500000,551,387.200000,602.700000,296.800000,654.400000C296.800000,653.700000,296.800000,652.900000,296.800000,652.200000C386.600000,600.900000,476.300000,549.500000,566,498.200000Z" fill="rgb(251,176,59)" stroke="none" stroke-width="1"/><path id="eg51yv0co87183" d="M570,500.500000C570.700000,500.900000,571.300000,501.300000,572,501.700000C480.300000,554.200000,388.600000,606.700000,296.900000,659.200000C296.900000,658.500000,296.900000,657.700000,296.900000,657C387.900000,604.800000,478.900000,552.600000,570,500.500000Z" fill="rgb(251,176,59)" stroke="none" stroke-width="1"/></g></g><g id="eg51yv0co87184"><path id="eg51yv0co87185" d="M297.800000,0.800000C297.600000,20.400000,297.500000,40,297.300000,59.600000L50.600000,200.800000C33.800000,190.900000,17,181.100000,0.100000,171.200000C99.400000,114.400000,198.600000,57.600000,297.800000,0.800000Z" fill="url(#eg51yv0co87185-fill)" stroke="none" stroke-width="1"/><path id="eg51yv0co87186" d="M297.400000,56.100000C297.400000,56.800000,297.400000,57.500000,297.400000,58.200000C214.700000,105.400000,132,152.700000,49.300000,200C48.700000,199.700000,48.100000,199.300000,47.500000,199C130.800000,151.300000,214.100000,103.700000,297.400000,56.100000Z" fill="rgb(255,255,255)" stroke="none" stroke-width="1"/><path id="eg51yv0co87187" d="M297.800000,4.900000C297.800000,4.200000,297.900000,3.400000,297.900000,2.700000C199.200000,59.200000,100.500000,115.700000,1.800000,172.200000C2.400000,172.500000,3,172.900000,3.600000,173.200000C101.700000,117.100000,199.700000,61,297.800000,4.900000Z" fill="rgb(255,255,255)" stroke="none" stroke-width="1"/><g id="eg51yv0co87188"><path id="eg51yv0co87189" d="M28.400000,187.800000C27.800000,187.400000,27.200000,187.100000,26.600000,186.700000C116.900000,135,207.200000,83.300000,297.600000,31.600000C297.600000,32.300000,297.600000,33.100000,297.600000,33.800000C207.800000,85.100000,118.100000,136.400000,28.400000,187.800000Z" fill="rgb(251,176,59)" stroke="none" stroke-width="1"/><path id="eg51yv0co87190" d="M24.500000,185.500000C23.800000,185.100000,23.200000,184.700000,22.500000,184.300000C114.200000,131.800000,205.900000,79.300000,297.600000,26.800000C297.600000,27.500000,297.600000,28.300000,297.600000,29C206.600000,81.200000,115.500000,133.300000,24.500000,185.500000Z" fill="rgb(251,176,59)" stroke="none" stroke-width="1"/></g></g><g id="eg51yv0co87191"><path id="eg51yv0co87192" d="M297,0.800000C297.200000,20.400000,297.300000,40,297.500000,59.600000L544.200000,200.800000C561,190.900000,577.800000,181.100000,594.700000,171.200000C495.500000,114.400000,396.300000,57.600000,297,0.800000Z" fill="url(#eg51yv0co87192-fill)" stroke="none" stroke-width="1"/><path id="eg51yv0co87193" d="M297.500000,56.100000C297.500000,56.800000,297.500000,57.500000,297.500000,58.200000C380.200000,105.500000,462.900000,152.800000,545.500000,200.100000C546.100000,199.800000,546.700000,199.400000,547.300000,199.100000C464.100000,151.300000,380.800000,103.700000,297.500000,56.100000Z" fill="rgb(255,255,255)" stroke="none" stroke-width="1"/><path id="eg51yv0co87194" d="M297.100000,4.900000C297.100000,4.200000,297,3.400000,297,2.700000C395.700000,59.200000,494.400000,115.700000,593.100000,172.200000C592.500000,172.500000,591.900000,172.900000,591.300000,173.200000C493.200000,117.100000,395.200000,61,297.100000,4.900000Z" fill="rgb(255,255,255)" stroke="none" stroke-width="1"/><g id="eg51yv0co87195"><path id="eg51yv0co87196" d="M566.500000,187.800000C567.100000,187.400000,567.700000,187.100000,568.300000,186.700000C478,135,387.700000,83.300000,297.300000,31.500000C297.300000,32.200000,297.300000,33,297.300000,33.700000C387,85.100000,476.800000,136.400000,566.500000,187.800000Z" fill="rgb(251,176,59)" stroke="none" stroke-width="1"/><path id="eg51yv0co87197" d="M570.400000,185.500000C571.100000,185.100000,571.700000,184.700000,572.400000,184.300000C480.700000,131.800000,389,79.300000,297.300000,26.800000C297.300000,27.500000,297.300000,28.300000,297.300000,29C388.300000,81.200000,479.400000,133.300000,570.400000,185.500000Z" fill="rgb(251,176,59)" stroke="none" stroke-width="1"/></g></g></g></svg>