<svg xmlns="http://www.w3.org/2000/svg" viewBox="0 0 1200 1200"><defs><style>.cls-1,.cls-10{fill:#fbc115;}.cls-1{opacity:0.21;}.cls-1,.cls-11{isolation:isolate;}.cls-2{fill:#ffce08;}.cls-3{fill:#fff;}.cls-4{fill:#00fce7;}.cls-5{fill:#25e899;}.cls-6{fill:#0fce7c;}.cls-7{fill:#15003e;}.cls-8{fill:#1a0c3d;stroke-linecap:round;}.cls-8,.cls-9{stroke:#15003e;stroke-miterlimit:10;stroke-width:12px;}.cls-9{fill:none;}.cls-11{opacity:0.13;}</style></defs><title>Halo_inspired</title><g id="Layer_2" data-name="Layer 2"><polygon class="cls-1" points="1010 580.37 1010 883 612 1099 224 875 223.82 580.37 341.67 580.37 341.67 482.11 472.7 482.11 472.7 580.37 545.78 580.37 545.78 482.11 676.66 482.11 676.66 580.37 757.23 580.37 757.23 482.11 888.25 482.11 888.25 580.37 1010 580.37"/><path class="cls-2" d="M477.53,695.78c5.55,15.88,11.75,31.81,18.44,47.35,8.15,19,23.33,54.21,49.38,94.65a569.44,569.44,0,0,0,69.19,87.11A570.91,570.91,0,0,0,685.85,838c26.83-40.31,42.46-75.47,50.86-94.35,6.89-15.49,13.28-31.37,19-47.21a4.23,4.23,0,0,1,1.57-2,68.49,68.49,0,0,1-6.61-15.13c-2.8-9.41-2.88-17.78-3-31.64-.08-9,.25-16.54.52-22.64.37-8.52.75-17.32-1-18.25a2.59,2.59,0,0,0-1.56,0l.68,72.74a4.25,4.25,0,0,1-4.21,4.29h0a4.25,4.25,0,0,1-4.25-4.21l-.07-6.68-8.06-3a36.74,36.74,0,0,1-1.16,15.46c-2.42,8.1-7.42,14.3-19.12,23.69a210.55,210.55,0,0,1-34.78,22.78,251,251,0,0,1-56.93,19.84,4.88,4.88,0,0,1-.92.1,3.84,3.84,0,0,1-.76-.08,3.74,3.74,0,0,1-.75.08,4.38,4.38,0,0,1-.94-.11,248.18,248.18,0,0,1-56.94-20.18,209.73,209.73,0,0,1-34.78-23.18c-11.69-9.54-16.68-15.83-19.1-24a37.69,37.69,0,0,1-1.35-13.8l-6.55,2.42-.07,6.68a4.25,4.25,0,0,1-8.5-.08l.68-72.74a2.59,2.59,0,0,0-1.56,0c-1.8.93-1.42,9.73-1,18.25.27,6.1.6,13.69.52,22.64-.13,13.86-.21,22.23-3,31.64a69,69,0,0,1-6.32,14.64A4.33,4.33,0,0,1,477.53,695.78Z"/><path class="cls-3" d="M527.92,701.68a199.66,199.66,0,0,0,33.22,22.16A239.14,239.14,0,0,0,616,743.29a242,242,0,0,0,54.84-19.13A200.25,200.25,0,0,0,704,702.38c10.3-8.27,14.41-13.19,16.3-19.49a28.47,28.47,0,0,0,.88-11.76l-1,.55a51.9,51.9,0,0,1-1.86,5.78c-5.42,14-15.7,21.9-19.08,24.5C689,709.84,679,712.47,672.94,714a76,76,0,0,1-20.1,3.08,58.43,58.43,0,0,1-10.05-.88,62.15,62.15,0,0,1-26.18-11.41,62.15,62.15,0,0,1-26.18,11.41,58.43,58.43,0,0,1-10,.88,76.09,76.09,0,0,1-20.1-3.08c-6-1.57-16.08-4.2-26.31-12.08-3.38-2.6-13.66-10.51-19.08-24.5a52.58,52.58,0,0,1-1.86-5.78l-2.39-1.29a29.35,29.35,0,0,0,1,11.42C513.49,688.25,517.61,693.26,527.92,701.68Z"/><path class="cls-4" d="M692.93,842.71A580.23,580.23,0,0,1,617.47,934h0a3.68,3.68,0,0,1-.38.31c-.1.07-.18.16-.28.22a4.5,4.5,0,0,1-.43.23l-.3.15a3.28,3.28,0,0,1-.51.15l-.27.08a4.14,4.14,0,0,1-1.62,0,2.46,2.46,0,0,1-.29-.09,3.28,3.28,0,0,1-.51-.15,3,3,0,0,1-.31-.16,3,3,0,0,1-.43-.24,3.76,3.76,0,0,1-.31-.25,3.37,3.37,0,0,1-.36-.3h0a578.42,578.42,0,0,1-73.25-91.54c-26.43-41-41.79-76.72-50-95.89-6.26-14.55-12.1-29.44-17.39-44.33-1.89,2.54-3.8,4.86-5.61,7a4.2,4.2,0,0,1,1.75,2.2,724,724,0,0,0,31.25,76.16c14.53,30.35,31,64.76,61.68,103.41a434.41,434.41,0,0,0,56.41,58.67,438.15,438.15,0,0,0,56.69-59.37c30.82-39.11,47.37-73.92,62-104.64a733.53,733.53,0,0,0,31.4-77.06,4.62,4.62,0,0,1,.45-.92c-1.36-1.65-2.77-3.4-4.16-5.27-5.5,15-11.59,30.06-18.12,44.74C736,766.22,720.15,801.8,692.93,842.71Z"/><path class="cls-5" d="M349,806c25.32-13,41.81-27.85,55.07-39.76,6.54-5.88,19-20.45,42.36-48.08h0q5.18-6.12,11.06-13.12c6.14-7.28,13.1-15.53,16.89-28.22,2.37-7.93,2.52-14.71,2.66-29.29.06-7.37-.16-13.84-.38-19.29a167,167,0,0,1-19,15c-5.8,3.92-15.57,9.64-44.09,22.36-6.53,2.91-9.5,4.16-13.25,5.74-3.37,1.42-7.56,3.18-15.74,6.74-37.36,16.27-42.79,19.94-46.38,22.37a114.4,114.4,0,0,0-25.19,22c-19.47,23.14-23.57,48.52-25.12,58.08a132.85,132.85,0,0,0,.13,43q5.73-.19,11.41-.88C314.62,820.73,331.3,815.16,349,806Z"/><path class="cls-3" d="M326.55,843.83a287.58,287.58,0,0,0,30.72-4.19c15-2.79,22.55-4.19,32.46-6.35,8.93-1.95,17.92-4.08,26.71-6.33l28.75-8.23a105.36,105.36,0,0,0,0-15.62l0-.17.28-70.38c-18.83,22.24-29.5,34.5-35.66,40-13.62,12.23-30.56,27.45-56.86,41-18.62,9.59-36.26,15.46-52.43,17.44-1.13.14-2.25.26-3.38.37l.58,5.11a4.94,4.94,0,0,1,.49.3,39.64,39.64,0,0,0,14.08,6.41C317.44,844.41,321.62,844.21,326.55,843.83Z"/><path class="cls-3" d="M608.64,692.93h.18v-19l-8.15-19.64a198.49,198.49,0,0,1-27.83-22.15c-9-8.6-24.1-23-34-43.06a129.18,129.18,0,0,1-9.09-23.83l-2.37,10.56v16.72l8,4,.48,1.93c1,3.91,2.13,7.82,3.48,11.64,8.45,23.92,22.21,39.16,32.25,50.28A218.39,218.39,0,0,0,608.64,692.93Z"/><path class="cls-2" d="M683.33,644.92A213.18,213.18,0,0,1,666.17,666a225.29,225.29,0,0,1-39.3,34.66l-.59.41a52.64,52.64,0,0,0,17.18,6.63,5.64,5.64,0,0,1,.65-.33c5.48-2.12,33.18-13.85,40.89-35.83,1.71-4.88,4.57-13,1.4-21.23A21.62,21.62,0,0,0,683.33,644.92Z"/><path class="cls-2" d="M588.39,708c.19,0,.37-.06.57-.09a52.78,52.78,0,0,0,17.41-6.44H606l-1.09-.75A226.63,226.63,0,0,1,565.29,666a211.16,211.16,0,0,1-18-22.06,21.46,21.46,0,0,0-4.31,6.65c-3.29,8.1-.31,16.18,1.47,21,8.06,21.91,37.08,33.62,42.82,35.74A4.27,4.27,0,0,1,588.39,708Z"/><path class="cls-3" d="M651.74,641A135.09,135.09,0,0,1,629,656.57l-6,16.88v19.48h.12a217,217,0,0,0,36.73-32.59c10-11.12,23.61-26.35,32-50.28,1.34-3.81,2.5-7.73,3.46-11.65l.46-1.92,8-4V576l-5.3-15.57A137.43,137.43,0,0,1,651.74,641Z"/><path class="cls-3" d="M534.63,543.28l0,.14c.87,12.32,4.19,26.46,11.83,41.88C555.7,604,570.1,617.77,578.71,626a189.19,189.19,0,0,0,27.7,21.89l1.11.72,8.22,19.84,6.32-17.81,1.47-.78a126.81,126.81,0,0,0,22.72-15.36A132.41,132.41,0,0,0,679,592.54a134.49,134.49,0,0,0,13.39-58.77c0-13.46,0-26.18-6.51-40.09-13.1-28.14-41.94-37.95-50.46-40.28a84.14,84.14,0,0,0-21.91-2.9,74.84,74.84,0,0,0-42.95,13.13c-10.93,7.51-25.5,22-32.85,48.18a93,93,0,0,0-3.14,31.46Z"/><path class="cls-3" d="M372.55,870.17l.15,0,60.69-13.61a75.3,75.3,0,0,0,5.2-10l-22.29,6.44c-19.73,4.12-40.16,8.07-62.46,12.06-7.18,1.29-15.45,2.77-25,2.77a88.67,88.67,0,0,1-19.18-2.09c-3-.67-6-1.5-9-2.47l.67,5.92a128.5,128.5,0,0,0,21.07,4.47A131.42,131.42,0,0,0,372.55,870.17Z"/><path class="cls-3" d="M352.34,856.63c22.16-4,42.46-7.88,62.06-12l27.67-8a85.58,85.58,0,0,0,2-8.75l-25.46,7.28c-8.9,2.28-18,4.44-27.06,6.41-10,2.19-17.61,3.6-32.72,6.41a294,294,0,0,1-31.61,4.3c-2.3.18-4.52.33-6.79.33a43.82,43.82,0,0,1-10.08-1.13,46.89,46.89,0,0,1-11.45-4.29l.75,6.61a85.9,85.9,0,0,0,11.86,3.56C327.93,861,341.47,858.58,352.34,856.63Z"/><path class="cls-3" d="M902.68,869.18c-9.54,0-17.8-1.48-25-2.76-22.3-4-42.73-7.94-62.46-12.07l-.31-.08-24.06-6.95A79.18,79.18,0,0,0,796,857.48l.44.07,62.56,14a131.44,131.44,0,0,0,50.1,3.44,130,130,0,0,0,22.08-4.78l.68-6a92.33,92.33,0,0,1-10,2.8A88.07,88.07,0,0,1,902.68,869.18Z"/><path class="cls-5" d="M920.2,722.45a114.4,114.4,0,0,0-25.19-22c-3.59-2.43-9-6.1-46.38-22.37-8.18-3.56-12.37-5.32-15.74-6.74-3.75-1.58-6.72-2.83-13.25-5.74-28.52-12.72-38.29-18.44-44.09-22.36a166.05,166.05,0,0,1-19-15c-.23,5.45-.45,11.92-.39,19.29.14,14.58.3,21.36,2.66,29.29,3.79,12.69,10.75,20.94,16.89,28.22,30.57,36.26,45.91,54.46,53.43,61.21C842.39,778.18,858.88,793,884.2,806c17.72,9.13,34.4,14.7,49.58,16.57q5.67.69,11.41.88a132.85,132.85,0,0,0,.13-43C943.78,771,939.67,745.59,920.2,722.45Z"/><path class="cls-3" d="M911.11,854c-2.27,0-4.49-.14-6.78-.32a293.59,293.59,0,0,1-31.62-4.31c-15.1-2.8-22.68-4.21-32.72-6.4-9-2-18.15-4.13-27.06-6.41l-.12,0-27.23-7.8a86.81,86.81,0,0,0,1.93,8.73l29.62,8.56c19.61,4.1,39.91,8,62.06,12,10.88,2,24.41,4.37,40.84.74a82.54,82.54,0,0,0,12.88-4l.77-6.77a47.49,47.49,0,0,1-12.48,4.86A43.86,43.86,0,0,1,911.11,854Z"/><path class="cls-3" d="M880.31,813.59c-26.3-13.54-43.24-28.76-56.86-41-6.53-5.88-18.16-19.33-39.21-44.24l.29,75.37,0,.16a108.17,108.17,0,0,0,0,15.73l30.61,8.76c8.8,2.24,17.79,4.37,26.72,6.33,9.9,2.16,17.44,3.56,32.45,6.34a284.92,284.92,0,0,0,30.73,4.2c4.92.38,9.1.58,14.3-.62a39.4,39.4,0,0,0,14.07-6.4,4.14,4.14,0,0,1,1.52-.68l.7-6.21c-.94-.1-1.89-.19-2.84-.31C916.57,829.05,898.93,823.18,880.31,813.59Z"/><path class="cls-3" d="M370.89,888c18.15-1.36,30.13-2.26,42.39-10.1a54.53,54.53,0,0,0,12.51-11l-51.15,11.47a141.93,141.93,0,0,1-36,4.71A137.71,137.71,0,0,1,321.39,882a140.17,140.17,0,0,1-19-3.76l1.63,14.36a4.07,4.07,0,0,0,1.67,2.83c19.81-3.09,39.58-5.43,58.77-7Z"/><path class="cls-4" d="M634.51,944.59q-7.07,6.63-14.42,13a4.24,4.24,0,0,1-2.77,1,4.67,4.67,0,0,1-1.06-.14,4.83,4.83,0,0,1-1.07.14,4.27,4.27,0,0,1-2.76-1q-6.75-5.76-13.25-11.79c-10.55,6.2-21.44,12-32.43,17.34q-8.7,4.2-17.63,8.07l129.93.28A210,210,0,0,1,649,955C644,951.79,639.18,948.27,634.51,944.59Z"/><path class="cls-3" d="M892.93,884.53a141.41,141.41,0,0,1-36-4.71l-53.6-12a55.78,55.78,0,0,0,13.28,12c12.32,7.94,24.36,8.86,42.6,10.23l6.43.5c19.33,1.56,39.26,3.94,59.23,7.08a4,4,0,0,0,3.62-3.56l1.66-14.65a137.47,137.47,0,0,1-37.19,5.12Z"/><path class="cls-6" d="M592.73,939.7a439.13,439.13,0,0,1-39.55-43.47c-31.27-39.4-48.69-75.78-62.69-105-1.81-3.79-3.58-7.61-5.34-11.44-2.78,14.47-6,28.93-9.64,43.14a737.94,737.94,0,0,1-30.64,93.34,4.25,4.25,0,1,1-7.88-3.19,727.8,727.8,0,0,0,30.28-92.26c4.61-18,8.56-36.45,11.76-54.79-7.13-16.48-13.67-33.24-19.54-50.1L454,722.46l-.31,80.18c1.19,16.1-.46,39-14,59.85l-.11.17c-1.15,1.77-2.38,3.53-3.7,5.26a67.37,67.37,0,0,1-18,17.17c-14.06,9-27.6,10-46.33,11.41q-3.07.22-6.36.49c-15.21,1.21-30.79,2.94-46.46,5.15a12.56,12.56,0,0,1,1.89,7.5l-2.08,30.7a12.51,12.51,0,0,1-2.12,6.17l-12,17.83a4,4,0,0,0,3.35,6.31l131.58.29.21-.09,20.86-7.25a7.12,7.12,0,0,0,4.15-9.65L456,935a7.13,7.13,0,0,0-10.44-3l-12.21,8.14a4.25,4.25,0,1,1-4.72-7.07l12.21-8.14a15.63,15.63,0,0,1,22.91,6.59l8.52,18.93A15.61,15.61,0,0,1,464.72,971l62,.13a2.94,2.94,0,0,1,.51-.23c12.09-4.61,24.13-9.8,35.79-15.44C573.09,950.6,583.05,945.31,592.73,939.7ZM429.58,944a4.25,4.25,0,0,1,5.43,2.57l3.55,9.92a4.25,4.25,0,0,1-2.58,5.43,4.18,4.18,0,0,1-1.43.25,4.25,4.25,0,0,1-4-2.82L427,949.38A4.25,4.25,0,0,1,429.58,944Z"/><path class="cls-6" d="M914,941.76l-2.08-30.71a12.52,12.52,0,0,1,1.38-6.57c-16.32-2.36-32.55-4.19-48.36-5.46l-6.4-.5C839.71,897.1,826.1,896.07,812,887a67.9,67.9,0,0,1-18.08-17.39C776.78,847,774.72,821.17,776,803.43l-.31-82.86a4.06,4.06,0,0,1,.41-1.83L773,715.08c-5.91,16.95-12.48,33.79-19.65,50.35,3.22,18.53,7.21,37.16,11.87,55.37a727.8,727.8,0,0,0,30.28,92.26,4.25,4.25,0,1,1-7.88,3.19A737.94,737.94,0,0,1,757,822.91c-3.68-14.39-6.94-29-9.75-43.69q-2.29,5-4.67,10c-14.06,29.58-31.56,66.39-63,106.25a444.63,444.63,0,0,1-38.9,43.15c4.19,3.26,8.53,6.38,12.94,9.28a203.82,203.82,0,0,0,47.19,22.9,4.55,4.55,0,0,1,1.25.67l70.34.16-.11,0a15.63,15.63,0,0,1-9.12-21.17l8.52-18.93a15.64,15.64,0,0,1,22.92-6.59l12.2,8.14a4.25,4.25,0,0,1-4.71,7.07L789.93,932a7.14,7.14,0,0,0-10.45,3L771,954a7.13,7.13,0,0,0,4.16,9.65L796,970.85a4.36,4.36,0,0,1,1.46.87l127.28.28h0a4.05,4.05,0,0,0,3.36-6.31l-12-17.77A12.57,12.57,0,0,1,914,941.76Zm-110,7.92-2.84,6.37a4.25,4.25,0,1,1-7.76-3.45l2.83-6.38a4.25,4.25,0,0,1,7.77,3.46Z"/><path class="cls-7" d="M957.78,823.28c-1.32.09-2.65.15-4,.19a140.94,140.94,0,0,0-.09-44.3c-1.65-10.19-6-37.26-27-62.2a124.36,124.36,0,0,0-26.94-23.52c-5.1-3.44-12.58-7.8-47.74-23.11-8.23-3.58-12.45-5.36-15.84-6.78-3.71-1.57-6.64-2.8-13.09-5.67-31.68-14.13-39.46-19.4-42.79-21.64A157.69,157.69,0,0,1,757.05,617l-.08.08c.18-9.52-.69-15.15-5.94-17.86-3.14-1.63-7-1.42-11.5.61L737,600.94l.59,62.8-12.23-4.51L712.76,666l-.42,1.91a44.38,44.38,0,0,1-1.93,6.45c-4.57,11.77-13.12,18.36-16.34,20.84-8.87,6.82-17.54,9.09-23.28,10.59-2.36.61-5,1.31-8,1.86,11.31-6.72,24.75-17.6,30.27-33.32,2-5.59,5.61-16,1.31-27.11a30.38,30.38,0,0,0-6.16-9.75,130.82,130.82,0,0,0,11.7-24.63c1.2-3.44,2.28-7,3.2-10.51l9.17-4.55V574.63l-11.5-33.79c.12-2.52.17-4.89.17-7.08,0-13.8,0-28.06-7.31-43.66-14.64-31.46-46.5-42.32-55.91-44.9-11.89-3.26-42.69-8.67-71.92,11.42-12.09,8.31-28.19,24.23-36.23,52.89a101.36,101.36,0,0,0-3.5,33.26l-7.19,32.09v22.95l9.25,4.56c.93,3.53,2,7.06,3.23,10.51a130,130,0,0,0,11.27,23.78,30.27,30.27,0,0,0-7.47,10.75c-4.52,11.15-.69,21.56,1.37,27.15,5.52,15,18.62,25.56,30.09,32.3-1.48-.34-2.87-.71-4.16-1-5.74-1.5-14.41-3.77-23.28-10.59-3.22-2.48-11.77-9.07-16.33-20.84a43.92,43.92,0,0,1-1.94-6.45l-.41-1.91-12.62-6.8-12.23,4.51.59-62.8-2.52-1.14c-4.49-2-8.36-2.24-11.5-.61-5.25,2.71-6.12,8.34-5.94,17.86l-.08-.08a157.8,157.8,0,0,1-23.26,19.28c-3.32,2.24-11.11,7.51-42.79,21.64-6.45,2.87-9.38,4.1-13.09,5.67-3.39,1.42-7.61,3.2-15.84,6.78C346,685.65,338.55,690,333.45,693.45A124.36,124.36,0,0,0,306.51,717c-21,24.94-25.35,52-27,62.2a141.54,141.54,0,0,0-.09,44.3c-1.32,0-2.65-.1-4-.19a4.25,4.25,0,1,0-.55,8.48c3,.2,5.92.29,8.89.29,1.61,0,3.22,0,4.83-.09l2.87,25.29v0l4.13,36.32a12.54,12.54,0,0,0,12.47,11.14,4,4,0,0,1,4,4.32L310,939.77a4.07,4.07,0,0,1-.69,2l-12,17.83a12.55,12.55,0,0,0,10.38,19.56l617,1.35h0a12.55,12.55,0,0,0,10.41-19.56l-12-17.77a3.92,3.92,0,0,1-.68-2l-2.09-30.7a4.07,4.07,0,0,1,4-4.33h.34c.12,0,.25,0,.37,0A12.55,12.55,0,0,0,936.91,895l7.16-63.09c1.79.07,3.58.12,5.37.12,3,0,5.94-.09,8.89-.29a4.25,4.25,0,1,0-.55-8.48ZM685,671.55c-7.71,22-35.41,33.71-40.89,35.83a5.64,5.64,0,0,0-.65.33,52.64,52.64,0,0,1-17.18-6.63l.59-.41A225.29,225.29,0,0,0,666.17,666a213.18,213.18,0,0,0,17.16-21.09,21.62,21.62,0,0,1,3.07,5.4C689.57,658.52,686.71,666.67,685,671.55Zm13.44-111.08,5.3,15.57v16.49l-8,4-.46,1.92c-1,3.92-2.12,7.84-3.46,11.65-8.39,23.93-22,39.16-32,50.28a217,217,0,0,1-36.73,32.59H623V673.45l6-16.88A135.09,135.09,0,0,0,651.74,641a137.43,137.43,0,0,0,46.7-80.49ZM537.73,511.81c7.35-26.21,21.92-40.67,32.85-48.18a74.84,74.84,0,0,1,42.95-13.13,84.14,84.14,0,0,1,21.91,2.9c8.52,2.33,37.36,12.14,50.46,40.28,6.47,13.91,6.49,26.63,6.51,40.09A134.49,134.49,0,0,1,679,592.54a132.41,132.41,0,0,1-32.77,41.94,126.81,126.81,0,0,1-22.72,15.36l-1.47.78-6.32,17.81-8.22-19.84-1.11-.72A189.19,189.19,0,0,1,578.71,626c-8.61-8.21-23-22-32.28-40.68-7.64-15.42-11-29.56-11.83-41.88l0-.14h0A93,93,0,0,1,537.73,511.81Zm1.62,98.24c-1.35-3.82-2.52-7.73-3.48-11.64l-.48-1.93-8-4V575.8l2.37-10.56a129.18,129.18,0,0,0,9.09,23.83c9.93,20.07,25,34.46,34,43.06a198.49,198.49,0,0,0,27.83,22.15l8.15,19.64v19h-.18a218.39,218.39,0,0,1-37-32.6C561.56,649.21,547.8,634,539.35,610.05Zm5.13,61.57c-1.78-4.83-4.76-12.91-1.47-21a21.46,21.46,0,0,1,4.31-6.65,211.16,211.16,0,0,0,18,22.06,226.63,226.63,0,0,0,39.61,34.66l1.09.75h.38A52.78,52.78,0,0,1,589,707.87c-.2,0-.38,0-.57.09a4.27,4.27,0,0,0-1.09-.6C581.56,705.24,552.54,693.53,544.48,671.62Zm-33.84-1.23,2.39,1.29a52.58,52.58,0,0,0,1.86,5.78c5.42,14,15.7,21.9,19.08,24.5,10.23,7.88,20.3,10.51,26.31,12.08a76.09,76.09,0,0,0,20.1,3.08,58.43,58.43,0,0,0,10-.88,62.15,62.15,0,0,0,26.18-11.41,62.15,62.15,0,0,0,26.18,11.41,58.43,58.43,0,0,0,10.05.88,76,76,0,0,0,20.1-3.08c6-1.57,16.08-4.2,26.31-12.08,3.38-2.6,13.66-10.51,19.08-24.5a51.9,51.9,0,0,0,1.86-5.78l1-.55a28.47,28.47,0,0,1-.88,11.76c-1.89,6.3-6,11.22-16.3,19.49a200.25,200.25,0,0,1-33.22,21.78A242,242,0,0,1,616,743.29a239.14,239.14,0,0,1-54.82-19.45,199.66,199.66,0,0,1-33.22-22.16c-10.31-8.42-14.43-13.43-16.32-19.87A29.35,29.35,0,0,1,510.64,670.39Zm-28.09,8.88c2.8-9.41,2.88-17.78,3-31.64.08-9-.25-16.54-.52-22.64-.37-8.52-.75-17.32,1-18.25a2.59,2.59,0,0,1,1.56,0L487,679.43a4.25,4.25,0,0,0,8.5.08l.07-6.68,6.55-2.42a37.69,37.69,0,0,0,1.35,13.8c2.42,8.22,7.41,14.51,19.1,24a209.73,209.73,0,0,0,34.78,23.18,248.18,248.18,0,0,0,56.94,20.18,4.38,4.38,0,0,0,.94.11,3.74,3.74,0,0,0,.75-.08,3.84,3.84,0,0,0,.76.08,4.88,4.88,0,0,0,.92-.1,251,251,0,0,0,56.93-19.84A210.55,210.55,0,0,0,709.34,709c11.7-9.39,16.7-15.59,19.12-23.69a36.74,36.74,0,0,0,1.16-15.46l8.06,3,.07,6.68a4.25,4.25,0,0,0,4.25,4.21h0a4.25,4.25,0,0,0,4.21-4.29l-.68-72.74a2.59,2.59,0,0,1,1.56,0c1.8.93,1.42,9.73,1,18.25-.27,6.1-.6,13.69-.52,22.64.13,13.86.21,22.23,3,31.64a68.49,68.49,0,0,0,6.61,15.13,4.23,4.23,0,0,0-1.57,2c-5.72,15.84-12.11,31.72-19,47.21-8.4,18.88-24,54-50.86,94.35a570.91,570.91,0,0,1-71.31,86.89,569.44,569.44,0,0,1-69.19-87.11c-26.05-40.44-41.23-75.7-49.38-94.65-6.69-15.54-12.89-31.47-18.44-47.35a4.33,4.33,0,0,0-1.3-1.87A69,69,0,0,0,482.55,679.27ZM762.6,702.36c1.39,1.87,2.8,3.62,4.16,5.27a4.62,4.62,0,0,0-.45.92,733.53,733.53,0,0,1-31.4,77.06c-14.6,30.72-31.15,65.53-62,104.64a438.15,438.15,0,0,1-56.69,59.37A434.41,434.41,0,0,1,559.84,891c-30.68-38.65-47.15-73.06-61.68-103.41a724,724,0,0,1-31.25-76.16,4.2,4.2,0,0,0-1.75-2.2c1.81-2.16,3.72-4.48,5.61-7,5.29,14.89,11.13,29.78,17.39,44.33,8.25,19.17,23.61,54.86,50,95.89a578.42,578.42,0,0,0,73.25,91.54h0a3.37,3.37,0,0,0,.36.3,3.76,3.76,0,0,0,.31.25,3,3,0,0,0,.43.24,3,3,0,0,0,.31.16,3.28,3.28,0,0,0,.51.15,2.46,2.46,0,0,0,.29.09,4.14,4.14,0,0,0,1.62,0l.27-.08a3.28,3.28,0,0,0,.51-.15l.3-.15a4.5,4.5,0,0,0,.43-.23c.1-.06.18-.15.28-.22a3.68,3.68,0,0,0,.38-.31h0a580.23,580.23,0,0,0,75.46-91.26c27.22-40.91,43.05-76.49,51.55-95.61C751,732.42,757.1,717.38,762.6,702.36ZM288,823.48a132.85,132.85,0,0,1-.13-43c1.55-9.56,5.65-34.94,25.12-58.08a114.4,114.4,0,0,1,25.19-22c3.59-2.43,9-6.1,46.38-22.37,8.18-3.56,12.37-5.32,15.74-6.74,3.75-1.58,6.72-2.83,13.25-5.74,28.52-12.72,38.29-18.44,44.09-22.36a167,167,0,0,0,19-15c.22,5.45.44,11.92.38,19.29-.14,14.58-.29,21.36-2.66,29.29-3.79,12.69-10.75,20.94-16.89,28.22q-5.89,7-11.06,13.12h0c-23.32,27.63-35.82,42.2-42.36,48.08C390.83,778.18,374.34,793,349,806c-17.72,9.13-34.4,14.7-49.58,16.57Q293.77,823.29,288,823.48Zm9.65,13-.58-5.11c1.13-.11,2.25-.23,3.38-.37,16.17-2,33.81-7.85,52.43-17.44,26.3-13.54,43.24-28.76,56.86-41,6.16-5.54,16.83-17.8,35.66-40l-.28,70.38,0,.17a105.36,105.36,0,0,1,0,15.62L416.44,827c-8.79,2.25-17.78,4.38-26.71,6.33-9.91,2.16-17.44,3.56-32.46,6.35a287.58,287.58,0,0,1-30.72,4.19c-4.93.38-9.11.58-14.3-.61a39.64,39.64,0,0,1-14.08-6.41A4.94,4.94,0,0,0,297.68,836.51Zm1.21,10.7a46.89,46.89,0,0,0,11.45,4.29,43.82,43.82,0,0,0,10.08,1.13c2.27,0,4.49-.15,6.79-.33a294,294,0,0,0,31.61-4.3c15.11-2.81,22.69-4.22,32.72-6.41,9-2,18.16-4.13,27.06-6.41l25.46-7.28a85.58,85.58,0,0,1-2,8.75l-27.67,8c-19.6,4.1-39.9,8-62.06,12-10.87,2-24.41,4.37-40.84.75a85.9,85.9,0,0,1-11.86-3.56Zm1.82,16c3,1,5.94,1.8,9,2.47a88.67,88.67,0,0,0,19.18,2.09c9.54,0,17.81-1.48,25-2.77,22.3-4,42.73-7.94,62.46-12.06l22.29-6.44a75.3,75.3,0,0,1-5.2,10L372.7,870.13l-.15,0a131.42,131.42,0,0,1-50.1,3.43,128.5,128.5,0,0,1-21.07-4.47Zm5,32.26a4.07,4.07,0,0,1-1.67-2.83l-1.63-14.36a140.17,140.17,0,0,0,19,3.76,137.71,137.71,0,0,0,17.21,1.08,141.93,141.93,0,0,0,36-4.71l51.15-11.47a54.53,54.53,0,0,1-12.51,11C401,885.76,389,886.66,370.89,888l-6.4.49C345.3,890,325.53,892.38,305.72,895.47Zm221,75.66-62-.13a15.61,15.61,0,0,0,7.57-20.54l-8.52-18.93a15.63,15.63,0,0,0-22.91-6.59l-12.21,8.14a4.25,4.25,0,1,0,4.72,7.07L445.58,932A7.13,7.13,0,0,1,456,935L464.54,954a7.12,7.12,0,0,1-4.15,9.65l-20.86,7.25-.21.09-131.58-.29a4,4,0,0,1-3.35-6.31l12-17.83a12.51,12.51,0,0,0,2.12-6.17l2.08-30.7a12.56,12.56,0,0,0-1.89-7.5c15.67-2.21,31.25-3.94,46.46-5.15q3.29-.27,6.36-.49c18.73-1.41,32.27-2.42,46.33-11.41a67.37,67.37,0,0,0,18-17.17c1.32-1.73,2.55-3.49,3.7-5.26l.11-.17c13.52-20.9,15.17-43.75,14-59.85l.31-80.18,5.52-6.55c5.87,16.86,12.41,33.62,19.54,50.1-3.2,18.34-7.15,36.77-11.76,54.79A727.8,727.8,0,0,1,437,913.06a4.25,4.25,0,1,0,7.88,3.19,737.94,737.94,0,0,0,30.64-93.34c3.63-14.21,6.86-28.67,9.64-43.14,1.76,3.83,3.53,7.65,5.34,11.44,14,29.24,31.42,65.62,62.69,105a439.13,439.13,0,0,0,39.55,43.47c-9.68,5.61-19.64,10.9-29.68,15.76-11.66,5.64-23.7,10.83-35.79,15.44A2.94,2.94,0,0,0,526.75,971.13Zm22.37,0q8.91-3.85,17.63-8.07c11-5.32,21.88-11.14,32.43-17.34q6.51,6,13.25,11.79a4.27,4.27,0,0,0,2.76,1,4.83,4.83,0,0,0,1.07-.14,4.67,4.67,0,0,0,1.06.14,4.24,4.24,0,0,0,2.77-1q7.35-6.33,14.42-13c4.67,3.68,9.53,7.2,14.48,10.45a210,210,0,0,0,30.06,16.42Zm379-5.49a4.05,4.05,0,0,1-3.36,6.31h0l-127.28-.28a4.36,4.36,0,0,0-1.46-.87l-20.85-7.25A7.13,7.13,0,0,1,771,954L779.48,935a7.14,7.14,0,0,1,10.45-3l12.21,8.14a4.25,4.25,0,0,0,4.71-7.07l-12.2-8.14a15.64,15.64,0,0,0-22.92,6.59l-8.52,18.93a15.63,15.63,0,0,0,9.12,21.17l.11,0-70.34-.16a4.55,4.55,0,0,0-1.25-.67,203.82,203.82,0,0,1-47.19-22.9c-4.41-2.9-8.75-6-12.94-9.28a444.63,444.63,0,0,0,38.9-43.15c31.41-39.86,48.91-76.67,63-106.25q2.37-5,4.67-10c2.81,14.66,6.07,29.3,9.75,43.69a737.94,737.94,0,0,0,30.64,93.34,4.25,4.25,0,1,0,7.88-3.19,727.8,727.8,0,0,1-30.28-92.26c-4.66-18.21-8.65-36.84-11.87-55.37,7.17-16.56,13.74-33.4,19.65-50.35l3.09,3.66a4.06,4.06,0,0,0-.41,1.83l.31,82.86c-1.3,17.74.76,43.55,17.87,66.13A67.9,67.9,0,0,0,812,887c14.13,9.12,27.74,10.15,46.56,11.57l6.4.5c15.81,1.27,32,3.1,48.36,5.46a12.52,12.52,0,0,0-1.38,6.57L914,941.76a12.57,12.57,0,0,0,2.12,6.16Zm.38-71.63a4,4,0,0,1-3.62,3.56c-20-3.14-39.9-5.52-59.23-7.08l-6.43-.5c-18.24-1.37-30.28-2.29-42.6-10.23a55.78,55.78,0,0,1-13.28-12l53.6,12a141.41,141.41,0,0,0,36,4.71,137.47,137.47,0,0,0,37.19-5.12Zm2.7-23.82A130,130,0,0,1,909.08,875a131.44,131.44,0,0,1-50.1-3.44l-62.56-14-.44-.07a79.18,79.18,0,0,1-5.11-10.16l24.06,6.95.31.08c19.73,4.13,40.16,8.08,62.46,12.07,7.18,1.28,15.44,2.76,25,2.76a88.07,88.07,0,0,0,19.19-2.09,92.33,92.33,0,0,0,10-2.8Zm1.75-15.41a82.54,82.54,0,0,1-12.88,4c-16.43,3.63-30,1.21-40.84-.74-22.15-4-42.45-7.89-62.06-12l-29.62-8.56a86.81,86.81,0,0,1-1.93-8.73l27.23,7.8.12,0c8.91,2.28,18,4.43,27.06,6.41,10,2.19,17.62,3.6,32.72,6.4a293.59,293.59,0,0,0,31.62,4.31c2.29.18,4.51.32,6.78.32a43.86,43.86,0,0,0,10.09-1.12,47.49,47.49,0,0,0,12.48-4.86Zm2-17.28a4.14,4.14,0,0,0-1.52.68,39.4,39.4,0,0,1-14.07,6.4c-5.2,1.2-9.38,1-14.3.62a284.92,284.92,0,0,1-30.73-4.2c-15-2.78-22.55-4.18-32.45-6.34-8.93-2-17.92-4.09-26.72-6.33l-30.61-8.76a108.17,108.17,0,0,1,0-15.73l0-.16-.29-75.37c21,24.91,32.68,38.36,39.21,44.24,13.62,12.23,30.56,27.45,56.86,41,18.62,9.59,36.26,15.46,52.43,17.44,1,.12,1.9.21,2.84.31Zm10.31-14.07q-5.73-.19-11.41-.88c-15.18-1.87-31.86-7.44-49.58-16.57-25.32-13-41.81-27.85-55.06-39.76-7.52-6.75-22.86-24.95-53.43-61.21-6.14-7.28-13.1-15.53-16.89-28.22-2.36-7.93-2.52-14.71-2.66-29.29-.06-7.37.16-13.84.39-19.29a166.05,166.05,0,0,0,19,15c5.8,3.92,15.57,9.64,44.09,22.36,6.53,2.91,9.5,4.16,13.25,5.74,3.37,1.42,7.56,3.18,15.74,6.74C886,694.4,891.42,698.07,895,700.5a114.4,114.4,0,0,1,25.19,22c19.47,23.14,23.58,48.52,25.12,58.08A132.85,132.85,0,0,1,945.19,823.48Z"/><path class="cls-7" d="M801.81,944.07a4.25,4.25,0,0,0-5.61,2.15l-2.83,6.38a4.24,4.24,0,0,0,2.16,5.61,4.23,4.23,0,0,0,5.6-2.16l2.84-6.37A4.25,4.25,0,0,0,801.81,944.07Z"/><path class="cls-7" d="M430.55,959.3a4.25,4.25,0,0,0,4,2.82,4.18,4.18,0,0,0,1.43-.25,4.25,4.25,0,0,0,2.58-5.43L435,946.52a4.25,4.25,0,1,0-8,2.86Z"/><line class="cls-8" x1="698.49" y1="547.96" x2="698.43" y2="448.55"/><line class="cls-8" x1="528.82" y1="547.96" x2="528.76" y2="448.55"/><path class="cls-9" d="M528.76,503.92h-8.27a9.59,9.59,0,0,0-9.6,9.59v27.25a9.6,9.6,0,0,0,9.6,9.6h13"/><path class="cls-9" d="M699,503.92h8.27a9.59,9.59,0,0,1,9.59,9.59v27.25a9.6,9.6,0,0,1-9.59,9.6h-13"/><path class="cls-7" d="M667.72,603.27h-104a4.57,4.57,0,0,1,0-9.13h104a4.57,4.57,0,0,1,0,9.13Z"/><path class="cls-7" d="M658,591.14c-5.55,0-8.23-4-10-6.73-1.23-1.87-1.84-2.65-2.4-2.65s-1.17.78-2.4,2.65c-1.77,2.68-4.46,6.73-10,6.73s-8.24-4-10-6.73c-1.23-1.87-1.84-2.65-2.4-2.65s-1.11.69-2.4,2.65c-1.78,2.68-4.46,6.73-10,6.73s-8.24-4-10-6.74c-1.24-1.86-1.84-2.64-2.41-2.64s-1.11.69-2.41,2.65c-1.77,2.68-4.45,6.73-10,6.73s-8.24-4-10-6.73c-1.29-2-1.85-2.65-2.41-2.65a4.57,4.57,0,0,1,0-9.13c5.56,0,8.24,4.06,10,6.74,1.29,2,1.85,2.65,2.41,2.65s1.11-.69,2.41-2.65c1.77-2.68,4.46-6.74,10-6.74s8.24,4.06,10,6.74c1.29,2,1.85,2.65,2.4,2.65s1.11-.69,2.41-2.65c1.77-2.68,4.46-6.74,10-6.74s8.24,4.06,10,6.74c1.23,1.87,1.84,2.65,2.4,2.65s1.16-.78,2.4-2.65c1.77-2.68,4.46-6.74,10-6.74s8.24,4.06,10,6.74c1.24,1.87,1.85,2.65,2.41,2.65a4.56,4.56,0,1,1,0,9.12Z"/><path class="cls-6" d="M592.3,563.71A53.33,53.33,0,0,1,572.58,481c9.78-11.84,71.26-12.44,81-1.42a53.32,53.32,0,0,1-18.49,84.13"/><path class="cls-7" d="M588.92,568.74a4.91,4.91,0,0,1-2.19-.51,60.8,60.8,0,0,1-24.66-87.38,5,5,0,1,1,8.49,5.41,51.21,51.21,0,0,0-2.87,5.12,50.73,50.73,0,0,0,23.44,67.8,5,5,0,0,1-2.21,9.56Z"/><path class="cls-7" d="M558.55,491.2a5,5,0,0,1-2.61-9.34c15.85-9.58,36.82-14.85,59-14.85,20.92,0,41,4.74,56.47,13.36a5,5,0,0,1-4.89,8.8c-14-7.8-32.35-12.1-51.58-12.1-20.41,0-39.53,4.76-53.83,13.4A5,5,0,0,1,558.55,491.2Z"/><path class="cls-7" d="M682,568.74H546.58a5,5,0,1,1,0-10.07H682a5,5,0,1,1,0,10.07Z"/><path class="cls-7" d="M639.14,568.17a5,5,0,0,0,2.2-.51,60.79,60.79,0,0,0,28.09-81.25,61.26,61.26,0,0,0-3.44-6.13,5,5,0,1,0-8.48,5.42,52.11,52.11,0,0,1,2.86,5.11,50.73,50.73,0,0,1-23.44,67.8,5,5,0,0,0,2.21,9.56Z"/><path class="cls-3" d="M622.34,522c-12.6,0-19-6.39-19-19,0-11.73,7.18-18.19,18.82-19.1,9.42-.73,20,9.87,19.26,19.25C640.52,514.84,634.07,522,622.34,522Z"/><path class="cls-3" d="M655.09,531.74a7.81,7.81,0,0,1-8.42,8c-5.07-.14-8.16-3.56-8-9s3.44-7.59,8.64-7.39C652.13,523.45,655.24,526.79,655.09,531.74Z"/><path class="cls-10" d="M609.58,3,91.22,302.25v598.5L193,959.48l1.87,1.12L609.58,1200l518.26-299.25V302.25Zm435.31,848.7-9.63,5.52-8.42,4.86-24.78,14.31-.56.37h-.09l-33.58,19.36-17.67,10.19-28.52,16.46-14.59,8.42-27.78,16-10.38,6.08-3.55,2L830,975.7l-2.24,1.22-1.22.74-.47.28-.18.1-4,2.24-3,1.69-2,1.21-5.15,2.9-3.27,2L805,990l-4.95,2.9-2.34,1.31-.1.09-4.3,2.52h-.09l-4.3,2.53-11.79,6.83-7.48,4.3-5.89,3.36-2,1.13-2.15,1.31h-.1l-3.64,2.05-21.79,12.53L730,1033.3l-6.26,3.65-6.18,3.56-6.92,4-22.91,13.18-36,20.76-2.25,1.31-4.67,2.71-6.45,3.74-.85.47-16.92,9.63-2.9,1.69-.28.18-1.31.75-1.78,1-.18.09-.19-.1-.1.06-1.31-.75-12-6.92-8-4.58-.28-.1-8.51-5-1.59-.94-.47-.28-5.7-3.27-1.59-.94-31.42-18.14-.38-.28-19.35-11.13L511.68,1041h0l-3.58-2.09-17.42-10.12-29.87-17.15-4.05-2.36-.73-.4-.3-.2-1.19-.69-2.89-1.68-1.69-.94-8.32-4.77-12.44-7.29L421,988.6l-17.86-10.38-.37-.18L401,977.1l-1-.65-1.4-.75-.65-.38-6.45-3.74-50.32-29-31.6-18.23-12.16-7-4.3-2.44-14.87-8.6-17.58-10.19-5-2.9-6.45-3.65-40.4-23.38-1.4-.75-7-4-16.08-9.35-.66-.37V354.94l14.4-8.32,39.56-22.82,27.87-16.08,9.35-5.43,22.26-12.81h.09l26.33-15.15,3.78-2.19.57-.34.09-.09,1.91-1.08,6.87-4,3.83-2.19h0l1-.58,3.29-1.9,1.2-.67,11.15-6.39h0l7.25-4.17,6.83-4,1.4-.77.63-.37,2.18-1.29,2.8-1.59,3.93-2.33,2.34-1.41h.09l.94-.46,4.95-2.9,2.51-1.45,4.5-2.62.51-.27,4.64-2.68,32.92-19,4.29-2.53,4.87-2.81,7.12-4.06,20.35-11.75.3-.18.84-.48,136.26-78.68,4.4-2.53.05,0,.13-.07,9.91,5.8,60.69,35.07,24.32,14,14,8.09,33.28,19.19,2.18,1.24,9.75,5.63,33,19,49.58,28.56,1,.57,8.14,4.67,14.22,8.23L887.22,264l7.48,4.3.84.56,16.93,9.73L947.81,299l.23.18,10.81,6.23,8.42,4.86L972,313l4.58,2.62,1,.56,7.2,4.21,6.73,3.93,5,2.81,48.35,27.86Z"/><path class="cls-11" d="M621.35,1095.63h.09l5.24-3,17.49-10.1,4.67-2.71,1.69-.94.37-.18,3.37-2L676.34,1064l3.74-2.16,4-2.33.09-.1,3.65-2,9.16-5.33,11.69-6.74,1.31-.75,4.68-2.71L718,1040l3.74-2.15.09-.09.19-.1,32.73-19,.56-.28,5.89-3.37,21.79-12.53,5.33-3.08.38-.28,3.93-2.25,4.39-2.52a.09.09,0,0,0,.09-.1L799.4,993l3.09-1.77,1.87-1.12,6-3.56.66-.37h.09l2.25-1.31,3-1.68.47-.29,1.4-.84,1.31-.75,9.44-5.42.38-.19.18-.18,1.69-.84,7.29-4.21v-.1l.56-.37.47-.19.47-.28.28-.09,3.83-2.25.75-.46.66-.38L846,966l11.79-6.73,8.13-4.86,14.4-8.33h.1l.18-.18,4.21-2.43,11.51-6.64.37-.28,9.82-5.62,7.67-4.39,28.33-16.27,1-.66.94-.37.28-.09L947,908l4.4-2.53,1.31-.74,4.39-2.53,13.84-8,1.5-.84,18.05-10.38,1.87-1.12,29.36-16.93,8.23-4.77,1.21-.65,3.09-1.78,10.19-5.8.1-.09V354.81l-26.37-15.25L1000,329.09l-4.12-2.34-7.29-4.12-18-10.38-.18-.09-5.05-2.9-8.61-5-3.74-2.15-2.43-1.49-2.43-1.31v-.1l-.15-.1-57-32.86-16-9.16-6.73-3.93-4.21-2.43-4.58-2.72-.47-.18-3.92-2.34-3.84-2.25-.26-.14-20.5-11.68-9.73-5.71-52.34-30.19-11.93-6.87-10.35-6L723.27,169.5l-104.16-60-4.9-2.87-13.34,7.69L544.11,147.1l-2.53,1.5-1.77,1-53.5,30.86-.46.28h-.1l-12.25,7-1.14.66-6.15,3.66L452,200.18l-2.25,1.3-14,8.1-6,3.55-4.12,2.43-3.55,2.06-7.3,4.2-15.52,8.89-1.08.57-5,2.89-10.27,6-9.47,5.45-.35.21-.28.16-8.23,4.74-7.2,4.17h-.05l-4.63,2.67-5.33,3.08h-.09l-1.14.64-4.49,2.57-.92.53-.1.06-.08.08-5.42,3.18-5.2,2.94-2,1.17h0l-.28.18-4.06,2.34-5.39,3.14-19.35,11.12-1.41.85-7.67,4.48-21.22,12.25-16.37,9.45-5.42,3.09L244.39,320h-.09l-7.2,4.3L184.17,354.8V851.74l.28.19.74.38.85.46,31.88,18.43L248.78,889l.19.1,2.43,1.4a.31.31,0,0,0,.19.09l2.71,1.59.19.1.37.18,6.74,4,12.43,7.2,9.54,5.51,17.4,10.1c.09,0,.09,0,.18.1l9.73,5.61H311l2,1.12.09.09,4.67,2.72.85.46,7.66,4.4L345.76,945l23.47,13.65,16,9.26,3.46,2.06,1.41.75.46.28,12.16,6.92.37.28.75.37.75.47,3.27,1.87.85.47,2.24,1.4,2.43,1.4,2.15,1.22,3.65,2.06,3.46,2L434,996l20.85,12.06.28.19.54.36.59.34.44.26,1.33.72,8.7,5,6.45,3.65,5.71,3.27,11.73,6.82,3.51,2,.85.47,4.11,2.43,5.8,3.37,3.15,1.83,3.6,2.09h.08l5,2.81,14.12,8.13,29.65,17.21,41.89,24.13,9.63,5.61,2,1.11,4.39-2.56Zm-39.46-34.18-11.5-6.64-5.7-3.27-16.93-9.82-6.73-3.83-6.46-3.74-49.18-28.34-7.2-4.21-.47-.28L461,991.69l-19.27-11-8.41-4.87-5.43-3.18-2.33-1.4-4-2.34-2-1.12-16.36-9.44-2.9-1.69-1.78-1-14-8.13L352.5,929,315.94,907.9l-2.81-1.59-13.65-7.85-4-2.34-28-16.09-45.91-26.56-8.42-4.77-3.65-2.15-2.15-1.21-6.26-3.65V365l36.56-21.13,27.87-16.09,8.7-5.05h.09l.56-.37,29.93-17.3h.09l12.72-7.39h.09l16.74-9.63,11.69-6.73,4-2.34h.1l7.1-4.12,4.3-2.52h.1l27.86-16.09c.1-.09.1-.09.19-.09l7.3-4.21,3.27-1.87,1.87-1.12L405,247.4l1.59-.94,2.53-1.4.37-.19,75.09-43.39L609.76,129.2l4.4-2.53,5,2.9,157.39,90.8,65.27,37.69.47.28,3,1.68,1,.57,4.12,2.43,3.27,1.87,11.5,6.64L883.29,282l65.65,37.78,13.19,7.58,5.14,3,.38.28,7.2,4.11,1.77,1,5,2.9,5,2.9L1027.4,365V841.69h0l-4.86,2.81-3,1.68-5.43,3.18-71,41-10.1,5.8-17.68,10.19-15.9,9.16L870.3,932.31l-12,6.92-6.74,3.83-27.4,15.81-.65.46-1.5.85-1.68,1-5.33,3L806.71,969l-2.06,1.21-.47.28-7.57,4.4-.85.46-36.56,21-.75.46-7.39,4.21-.74.47-8.51,5-20.11,11.6-14.4,8.32-15.71,9.08-10.29,5.89-27.77,16.08L642,1064.07l-.56.38h-.18l-7,4.11-2.62,1.4-17.48,10.1Z"/><path class="cls-7" d="M740.8,1077.13l14.64-8.41.66,1.15a27.93,27.93,0,0,1,3.14,7.62,17.62,17.62,0,0,1,0,7.12,18.55,18.55,0,0,1-9.35,12.77,20,20,0,0,1-15.83,2,21.3,21.3,0,0,1-4.86-39,20.93,20.93,0,0,1,8.73-2.77,25.76,25.76,0,0,1,9.93,1.59L746.1,1065q-7.7-3.3-14,.31a14.57,14.57,0,0,0-7.21,9.31,15,15,0,0,0,1.69,11.74,14.44,14.44,0,0,0,9.85,7.3,14.7,14.7,0,0,0,10.67-1.4,12.34,12.34,0,0,0,5.55-6.73,11,11,0,0,0-.17-8.43l-8.85,5.08Z"/><rect class="cls-7" x="774.4" y="1036.62" width="6.17" height="40.88" transform="translate(-423.88 529.24) rotate(-29.95)"/><polygon class="cls-7" points="803.35 1025.22 820.84 1055.63 815.51 1058.7 798.01 1028.31 789.87 1032.99 786.97 1027.97 808.58 1015.53 811.46 1020.55 803.35 1025.22"/><path class="cls-7" d="M851.59,993.3l3.64,6.32q-6.88-1.22-11.83,1.64a14.15,14.15,0,0,0-6.95,9.21,15.27,15.27,0,0,0,1.74,11.72,14.86,14.86,0,0,0,9.17,7.25,14.43,14.43,0,0,0,11.45-1.48,13.25,13.25,0,0,0,4.25-3.68,15,15,0,0,0,1.57-2.55,30.42,30.42,0,0,0,1.41-3.32l3.72,6.46a22.38,22.38,0,0,1-8.15,8.16,21,21,0,0,1-28.79-7.66,21.08,21.08,0,0,1-2.45-14.65A20.46,20.46,0,0,1,840.88,996a20.78,20.78,0,0,1,10.71-2.73"/><path class="cls-3" d="M877.51,991.71a20,20,0,0,1-1.91-16,20.93,20.93,0,0,1,10-13,21.4,21.4,0,0,1,29,7.83,20.11,20.11,0,0,1,2,16.11A21.63,21.63,0,0,1,891.45,1002q-9-1.78-13.94-10.31m5.41-3a14.8,14.8,0,0,0,9.51,7.37,15.11,15.11,0,0,0,18.45-10.69,15.88,15.88,0,0,0-10.89-19,14.38,14.38,0,0,0-11.54,1.5,14.53,14.53,0,0,0-7.11,9.23,14.8,14.8,0,0,0,1.58,11.6"/><rect class="cls-7" x="933.19" y="945.18" width="6.17" height="40.87" transform="translate(-357.16 596.77) rotate(-29.97)"/><polygon class="cls-7" points="969.91 969.85 948.13 932.01 989.54 944.17 975.36 919.54 980.7 916.47 1002.34 954.07 960.97 941.97 975.25 966.77 969.91 969.85"/></g></svg>