<svg id="Layer_2" data-name="Layer 2" xmlns="http://www.w3.org/2000/svg" viewBox="0 0 1200 1200"><defs><style>.cls-1{fill:#3e00ff;opacity:0.75;}.cls-2{fill:#ffce08;}.cls-3{fill:#fff;}.cls-4{fill:#00fce7;}.cls-5{fill:#25e899;}.cls-6{fill:#0fce7c;}.cls-7{fill:#15003e;}.cls-8{fill:#1a0c3d;stroke-linecap:round;}.cls-8,.cls-9{stroke:#15003e;stroke-miterlimit:10;stroke-width:12px;}.cls-9{fill:none;}.cls-10{fill:#fbc115;}.cls-11{opacity:0.13;isolation:isolate;}</style></defs><title>Van Dart</title><path class="cls-1" d="M1069.6,336.15v528.7l-.1.1-10.85,6.17-3.28,1.89-1.3.7-8.75,5.07-31.24,18-2,1.19-19.2,11-1.59.89-14.73,8.56-4.68,2.68-1.39.8-4.67,2.69-2.39,1.29-.3.1-1,.4-1.09.69L930.9,944.44l-8.15,4.68-10.45,6-.4.3-12.24,7.06L895.19,965l-.2.2h-.1l-15.32,8.85-8.66,5.18-12.54,7.16-.49.3-.7.4-.8.49L852.31,990l-.3.1-.5.3-.5.2-.6.4v.1l-7.76,4.47-1.79.9-.2.2-.39.2-10,5.77-1.39.79-1.5.9-.49.3-3.19,1.79-2.39,1.39h-.1l-.69.4L814.1,1012l-2,1.19-3.28,1.89-2.49,1.4a.1.1,0,0,1-.1.1l-4.68,2.68-4.17,2.39-.4.3-5.67,3.28-23.18,13.33-6.27,3.58-.6.3-34.82,20.2-.2.1-.1.1-4,2.29-3.48,2-5,2.88-1.39.8L699.88,1078l-9.75,5.67-3.88,2.19-.09.1-4.28,2.49-4,2.29-23.48,13.53-3.58,2.09-.4.19-1.79,1-5,2.89-18.6,10.74-5.57,3.18h-.1l-3.19,1.89-4.77,2.79-1.4-.8-12.73-7.36-8.46-4.87-.3-.1-9-5.28-1.69-1-.5-.3-6.07-3.48-1.69-1-33.43-19.3-.4-.3-20.59-11.84-47.26-27.46-6.07-3.48-6.86-3.88-9.26-5.37-2.19-1.19-.89-.6-.3-.2-22.19-12.83L408,1011.3l-3.68-2.09-3.89-2.19-2.28-1.29-2.59-1.49-2.39-1.49-.89-.5-3.49-2-.79-.5-.8-.4-.4-.3-12.93-7.36-.5-.3-1.49-.79-3.68-2.19-17-9.85-25-14.53L305.4,952.1l-8.16-4.67-.89-.5-5-2.89-.1-.09-2.09-1.2h-.1l-10.34-6c-.1-.1-.1-.1-.2-.1L260,925.94l-10.15-5.87-13.23-7.66-7.16-4.28-.4-.2-.2-.1L226,906.14a.31.31,0,0,1-.2-.1l-2.59-1.49-.2-.1-32.83-18.91-33.93-19.6-.89-.49-.8-.4-.3-.2V336.15l56.32-32.43,7.66-4.58h.1l2.48-1.39,5.77-3.29,17.41-10,22.59-13,8.16-4.77,1.49-.9,20.59-11.84,9.76-5.67,10-5.87,4.18-2.39,4.48-2.58,2.49-1.4h.1l5.67-3.28,32.13-18.51L381.41,205l1.69-.9,16.52-9.45,7.76-4.47,3.78-2.19,4.38-2.59L426.48,179l5.18-3L454.34,163l6.87-4.07,13.92-8h.1l.5-.3,56.91-32.83,1.89-1.1,2.69-1.59,60.39-34.92L611.94,72l10.54,6.17,64.57,37.31,25.87,14.92,39.3,22.69,13.33,7.66,66.06,38.1L842,204.92l22.88,13,8.66,5,15.12,8.75,13.63,7.86,8,4.58.9.6,18,10.34,37.6,21.69.4.3v.1l2.59,1.39,2.59,1.6,4,2.28,9.16,5.28,5.37,3.08.2.1,19.1,11.05,7.76,4.37,4.38,2.49,19.3,11.14Z"/><path class="cls-2" d="M453.22,659.48c6.37,18.24,13.5,36.54,21.18,54.39,9.37,21.76,26.8,62.26,56.72,108.7a654.11,654.11,0,0,0,79.46,100.06,656.08,656.08,0,0,0,81.91-99.8c30.82-46.3,48.78-86.68,58.42-108.37,7.92-17.78,15.25-36,21.82-54.22a4.78,4.78,0,0,1,1.81-2.34A78.39,78.39,0,0,1,767,640.52c-3.23-10.81-3.32-20.42-3.46-36.34-.09-10.28.28-19,.59-26,.42-9.78.86-19.89-1.2-21a3,3,0,0,0-1.8-.05l.78,83.54a4.88,4.88,0,0,1-4.83,4.93h0a4.88,4.88,0,0,1-4.88-4.84l-.07-7.67-9.26-3.41a42.26,42.26,0,0,1-1.34,17.76c-2.78,9.3-8.52,16.42-22,27.2a241.79,241.79,0,0,1-40,26.17,287.77,287.77,0,0,1-65.38,22.78,4.85,4.85,0,0,1-1.06.12,5.12,5.12,0,0,1-.87-.08,4.8,4.8,0,0,1-1.94,0,285,285,0,0,1-65.4-23.18,242.2,242.2,0,0,1-39.95-26.62c-13.42-11-19.16-18.19-21.94-27.63a43.25,43.25,0,0,1-1.55-15.84l-7.52,2.77-.07,7.67a4.89,4.89,0,0,1-9.77-.09l.78-83.54a3,3,0,0,0-1.79.05c-2.07,1.07-1.63,11.18-1.2,21,.3,7,.68,15.73.59,26-.15,15.92-.24,25.53-3.46,36.34a79.16,79.16,0,0,1-7.26,16.82A4.77,4.77,0,0,1,453.22,659.48Z"/><path class="cls-3" d="M511.1,666.26a230.59,230.59,0,0,0,38.15,25.45,275.06,275.06,0,0,0,63,22.34,277.54,277.54,0,0,0,63-22,229.77,229.77,0,0,0,38.16-25c11.83-9.5,16.56-15.14,18.72-22.39a32.85,32.85,0,0,0,1-13.5l-1.17.63a58.33,58.33,0,0,1-2.13,6.64c-6.23,16.07-18,25.16-21.91,28.14-11.76,9-23.32,12.07-30.22,13.88C672,682,664.15,684,654.58,684A66.27,66.27,0,0,1,643,683,71.35,71.35,0,0,1,613,669.88,71.44,71.44,0,0,1,582.89,683a66.16,66.16,0,0,1-11.53,1c-9.58,0-17.39-2-23.09-3.53-6.91-1.81-18.47-4.83-30.22-13.88-3.88-3-15.69-12.07-21.92-28.14A60.4,60.4,0,0,1,494,631.8l-2.74-1.47a33.68,33.68,0,0,0,1.09,13.11C494.52,650.83,499.25,656.59,511.1,666.26Z"/><path class="cls-4" d="M700.62,828.24A667.35,667.35,0,0,1,614,933.06h0a3.83,3.83,0,0,1-.44.36,3.76,3.76,0,0,1-.31.25c-.16.1-.34.18-.5.26l-.34.18a5.72,5.72,0,0,1-.59.17,2.8,2.8,0,0,1-.31.09,4.78,4.78,0,0,1-.92.09,5.09,5.09,0,0,1-.95-.09c-.11,0-.21-.07-.33-.1a4.3,4.3,0,0,1-.58-.18,3.13,3.13,0,0,1-.36-.19c-.16-.08-.33-.16-.49-.26s-.24-.2-.36-.3-.28-.21-.41-.33h0a664.39,664.39,0,0,1-84.13-105.14c-30.35-47.13-48-88.11-57.48-110.13-7.19-16.72-13.9-33.82-20-50.92-2.17,2.92-4.36,5.58-6.44,8.06a4.83,4.83,0,0,1,2,2.53,834,834,0,0,0,35.9,87.47c16.69,34.87,35.61,74.38,70.84,118.77A498.28,498.28,0,0,0,612.55,951a503,503,0,0,0,65.11-68.19c35.4-44.92,54.41-84.9,71.18-120.18a844.73,844.73,0,0,0,36.07-88.51,5,5,0,0,1,.52-1.06c-1.57-1.9-3.18-3.91-4.79-6.05-6.32,17.25-13.3,34.52-20.8,51.39C750.07,740.39,731.89,781.25,700.62,828.24Z"/><path class="cls-5" d="M305.62,786.12c29.09-15,48-32,63.25-45.67,7.52-6.76,21.87-23.5,48.65-55.23h0l12.71-15.06c7.05-8.37,15-17.85,19.39-32.43,2.72-9.1,2.9-16.88,3.05-33.63.08-8.47-.18-15.9-.44-22.16a189,189,0,0,1-21.82,17.26c-6.66,4.5-17.89,11.08-50.64,25.69-7.5,3.34-10.91,4.77-15.23,6.59-3.87,1.63-8.68,3.65-18.08,7.74-42.9,18.68-49.14,22.9-53.26,25.69-6.7,4.52-17.9,12.09-28.94,25.21-22.35,26.58-27.07,55.73-28.85,66.71a152.64,152.64,0,0,0,.15,49.33c4.39-.15,8.77-.48,13.11-1C266.11,803,285.27,796.59,305.62,786.12Z"/><path class="cls-3" d="M279.81,829.52a326.83,326.83,0,0,0,35.29-4.81c17.25-3.2,25.9-4.81,37.28-7.29,10.26-2.24,20.58-4.69,30.68-7.27l33-9.45a119,119,0,0,0,0-18v-.19l.31-80.83c-21.62,25.54-33.88,39.62-41,46-15.63,14-35.09,31.53-65.3,47.09-21.38,11-41.64,17.75-60.22,20-1.29.16-2.59.29-3.88.41l.66,5.88a4.08,4.08,0,0,1,.57.34,45.36,45.36,0,0,0,16.17,7.36C269.35,830.19,274.15,830,279.81,829.52Z"/><path class="cls-3" d="M603.81,656.21H604V634.38l-9.36-22.57a228.17,228.17,0,0,1-32-25.43C552.34,576.5,535,560,523.61,536.92a148.57,148.57,0,0,1-10.44-27.37l-2.72,12.13v19.21l9.24,4.54.54,2.21c1.1,4.49,2.45,9,4,13.37,9.72,27.48,25.52,45,37,57.75A250.67,250.67,0,0,0,603.81,656.21Z"/><path class="cls-2" d="M689.6,601.07a245.85,245.85,0,0,1-19.71,24.22,259.11,259.11,0,0,1-45.14,39.81l-.68.47a61,61,0,0,0,19.73,7.62,4.15,4.15,0,0,1,.76-.38c6.28-2.44,38.1-15.91,47-41.16,2-5.6,5.26-15,1.61-24.38A24.3,24.3,0,0,0,689.6,601.07Z"/><path class="cls-2" d="M580.55,673.47l.66-.1a60.61,60.61,0,0,0,20-7.4h-.43l-1.25-.86A260.42,260.42,0,0,1,554,625.3,241.47,241.47,0,0,1,533.38,600a24.75,24.75,0,0,0-5,7.64c-3.78,9.3-.36,18.59,1.69,24.14,9.26,25.16,42.59,38.6,49.18,41A4.89,4.89,0,0,1,580.55,673.47Z"/><path class="cls-3" d="M653.32,596.52a155.81,155.81,0,0,1-26.16,17.93l-6.87,19.38v22.38h.14a249.37,249.37,0,0,0,42.19-37.43C674.06,606,689.74,588.51,699.38,561c1.53-4.37,2.86-8.87,4-13.37l.54-2.21L713,540.9V522L707,504.06a157.81,157.81,0,0,1-53.64,92.46Z"/><path class="cls-3" d="M518.81,484.33l0,.16c1,14.15,4.81,30.39,13.58,48.1,10.64,21.5,27.19,37.29,37.07,46.72a217.09,217.09,0,0,0,31.82,25.14l1.27.83L612,628.07l7.25-20.46,1.69-.89A146.12,146.12,0,0,0,647,589.07a152,152,0,0,0,37.64-48.17A154.5,154.5,0,0,0,700,473.4c0-15.46,0-30.06-7.48-46-15-32.32-48.17-43.59-58-46.27a96.49,96.49,0,0,0-25.16-3.33,86,86,0,0,0-49.33,15.08c-12.55,8.63-29.29,25.24-37.73,55.34a106.54,106.54,0,0,0-3.61,36.14Z"/><path class="cls-3" d="M332.65,859.77l.17,0,69.71-15.62a87.13,87.13,0,0,0,6-11.52L382.9,840c-22.66,4.74-46.13,9.28-71.74,13.86-8.25,1.48-17.75,3.18-28.7,3.18a101.51,101.51,0,0,1-22-2.4q-5.21-1.15-10.29-2.83l.77,6.8a149.11,149.11,0,0,0,24.2,5.13A151,151,0,0,0,332.65,859.77Z"/><path class="cls-3" d="M309.44,844.23c25.45-4.55,48.77-9.06,71.28-13.77l31.78-9.18a98.27,98.27,0,0,0,2.28-10l-29.24,8.36c-10.23,2.62-20.68,5.1-31.08,7.37-11.52,2.51-20.23,4.13-37.58,7.35a338.23,338.23,0,0,1-36.31,5c-2.63.2-5.18.37-7.79.37a50,50,0,0,1-11.58-1.3,53.44,53.44,0,0,1-13.15-4.92l.86,7.58a95.11,95.11,0,0,0,13.62,4.09C281.4,849.25,297,846.47,309.44,844.23Z"/><path class="cls-3" d="M941.54,858.64c-11,0-20.45-1.69-28.7-3.17-25.61-4.58-49.08-9.12-71.74-13.86l-.35-.09-27.63-8A89,89,0,0,0,819,845.2a4.21,4.21,0,0,1,.49.09l71.87,16.11a149.12,149.12,0,0,0,82.9-1.54L975,853a107.84,107.84,0,0,1-11.46,3.22A101.46,101.46,0,0,1,941.54,858.64Z"/><path class="cls-5" d="M961.66,690.11c-11-13.12-22.24-20.69-28.93-25.21-4.13-2.79-10.37-7-53.27-25.69-9.4-4.09-14.21-6.11-18.08-7.74-4.31-1.82-7.72-3.25-15.22-6.59-32.76-14.61-44-21.19-50.64-25.69a189.92,189.92,0,0,1-21.83-17.26c-.26,6.26-.51,13.69-.44,22.16.16,16.75.34,24.53,3,33.63,4.36,14.58,12.35,24.06,19.4,32.43,35.11,41.64,52.74,62.54,61.37,70.3,15.21,13.67,34.15,30.69,63.24,45.67,20.36,10.47,39.52,16.88,57,19,4.33.53,8.71.86,13.1,1a152.36,152.36,0,0,0,.15-49.33C988.74,745.84,984,716.69,961.66,690.11Z"/><path class="cls-3" d="M951.22,841.26c-2.61,0-5.16-.17-7.79-.37a338.91,338.91,0,0,1-36.32-4.95c-17.34-3.22-26.05-4.84-37.57-7.36-10.4-2.27-20.86-4.74-31.09-7.36l-.13,0-31.28-9c.55,3.29,1.29,6.65,2.21,10l34,9.83c22.51,4.71,45.83,9.21,71.28,13.77,12.49,2.23,28,5,46.91.85a96.74,96.74,0,0,0,14.79-4.55l.88-7.77A54.49,54.49,0,0,1,962.8,840,50.15,50.15,0,0,1,951.22,841.26Z"/><path class="cls-3" d="M915.84,794.8c-30.2-15.56-49.66-33-65.3-47.09-7.51-6.75-20.86-22.2-45-50.81l.33,86.57v.19a121.71,121.71,0,0,0,0,18.06l35.16,10.06c10.1,2.58,20.42,5,30.68,7.27,11.37,2.48,20,4.09,37.28,7.29a329.45,329.45,0,0,0,35.29,4.81c5.65.44,10.45.67,16.42-.7a45.53,45.53,0,0,0,16.17-7.36,4.94,4.94,0,0,1,1.74-.78l.81-7.13c-1.09-.11-2.18-.22-3.26-.35C957.49,812.55,937.22,805.8,915.84,794.8Z"/><path class="cls-3" d="M330.74,880.28c20.84-1.56,34.61-2.59,48.7-11.6a62.88,62.88,0,0,0,14.36-12.61l-58.75,13.17a162.78,162.78,0,0,1-41.39,5.41,158,158,0,0,1-41.56-5.56l1.88,16.5a4.59,4.59,0,0,0,1.92,3.24c22.75-3.54,45.45-6.23,67.49-8Z"/><path class="cls-4" d="M633.52,945.26q-8.12,7.61-16.56,14.88a4.86,4.86,0,0,1-3.18,1.18,4.73,4.73,0,0,0-2.44,0,4.9,4.9,0,0,1-3.17-1.17q-7.75-6.61-15.22-13.53c-12.12,7.11-24.63,13.8-37.25,19.91-6.66,3.22-13.43,6.31-20.25,9.27l149.23.32a241.2,241.2,0,0,1-34.53-18.86C644.47,953.52,638.89,949.48,633.52,945.26Z"/><path class="cls-3" d="M930.34,876.27a162.77,162.77,0,0,1-41.39-5.4l-61.56-13.8a64.2,64.2,0,0,0,15.25,13.78c14.15,9.12,28,10.17,48.93,11.76,2.38.18,4.83.36,7.39.57,22.2,1.78,45.09,4.52,68,8.12a4.63,4.63,0,0,0,4.15-4.08l1.92-16.83a157,157,0,0,1-42.72,5.88Z"/><path class="cls-6" d="M585.54,939.64a506.65,506.65,0,0,1-45.43-49.93c-35.91-45.25-55.92-87-72-120.62Q465,762.55,462,755.94c-3.2,16.63-6.91,33.24-11.08,49.56a847,847,0,0,1-35.19,107.2,4.88,4.88,0,1,1-9-3.66,836.42,836.42,0,0,0,34.78-106c5.29-20.7,9.83-41.87,13.51-62.94-8.19-18.93-15.71-38.18-22.44-57.54l-6.35,7.52-.36,92.09c1.37,18.5-.52,44.74-16.05,68.75a1.27,1.27,0,0,1-.13.19c-1.32,2-2.72,4.05-4.25,6.05a77.3,77.3,0,0,1-20.68,19.71c-16.15,10.33-31.7,11.5-53.21,13.11l-7.31.56C306.7,892,288.81,894,270.81,896.5a14.37,14.37,0,0,1,2.17,8.61l-2.39,35.27a14.38,14.38,0,0,1-2.43,7.08l-13.8,20.48a4.65,4.65,0,0,0,3.85,7.25l151.13.33.24-.1,23.95-8.33A8.18,8.18,0,0,0,438.31,956l-9.79-21.75a8.19,8.19,0,0,0-12-3.45l-14,9.35a4.88,4.88,0,1,1-5.41-8.13l14-9.34a17.94,17.94,0,0,1,26.32,7.56L447.21,952a17.93,17.93,0,0,1-8.69,23.58l71.24.16a6.11,6.11,0,0,1,.58-.27c13.89-5.29,27.72-11.26,41.11-17.73C563,952.16,574.42,946.08,585.54,939.64Zm-187.39,4.88a4.87,4.87,0,0,1,6.24,3l4.07,11.39a4.88,4.88,0,0,1-2.95,6.24,4.79,4.79,0,0,1-1.65.29,4.88,4.88,0,0,1-4.59-3.24l-4.07-11.39A4.87,4.87,0,0,1,398.15,944.52Z"/><path class="cls-6" d="M954.53,942l-2.39-35.26a14.42,14.42,0,0,1,1.58-7.56c-18.75-2.7-37.38-4.81-55.55-6.27l-7.34-.57c-21.62-1.63-37.25-2.82-53.48-13.29a78,78,0,0,1-20.77-20c-19.64-25.93-22-55.58-20.52-76L795.7,688a4.94,4.94,0,0,1,.47-2.11l-3.54-4.2c-6.79,19.46-14.34,38.81-22.57,57.83,3.7,21.29,8.28,42.68,13.62,63.6a836.47,836.47,0,0,0,34.79,106,4.89,4.89,0,1,1-9.06,3.66,847.47,847.47,0,0,1-35.19-107.2c-4.22-16.53-8-33.35-11.19-50.18-1.77,3.86-3.55,7.71-5.37,11.53-16.15,34-36.25,76.25-72.33,122a509.2,509.2,0,0,1-44.67,49.56c4.81,3.75,9.79,7.33,14.86,10.66a233.93,233.93,0,0,0,54.2,26.3,4.83,4.83,0,0,1,1.43.78l80.79.18-.12-.05A17.94,17.94,0,0,1,781.35,952l9.78-21.75a17.94,17.94,0,0,1,26.32-7.56l14,9.34a4.89,4.89,0,0,1-5.42,8.13l-14-9.35a8.18,8.18,0,0,0-12,3.45L790.25,956A8.19,8.19,0,0,0,795,967.09l24,8.33a4.72,4.72,0,0,1,1.68,1l146.19.32h0a4.66,4.66,0,0,0,3.86-7.25L957,949.09A14.41,14.41,0,0,1,954.53,942Zm-126.37,9.1-3.26,7.32a4.87,4.87,0,0,1-4.46,2.9,5,5,0,0,1-2-.42,4.9,4.9,0,0,1-2.48-6.45l3.26-7.32a4.88,4.88,0,1,1,8.92,4Z"/><path class="cls-7" d="M1004.82,805.92c-1.52.1-3.05.17-4.57.22a162.28,162.28,0,0,0-.1-50.88c-1.89-11.7-6.93-42.8-31-71.44a142.53,142.53,0,0,0-30.94-27c-5.85-4-14.45-9-54.83-26.55-9.45-4.11-14.3-6.15-18.19-7.79-4.26-1.79-7.63-3.21-15-6.51-36.39-16.23-45.33-22.28-49.15-24.86A180,180,0,0,1,774.27,569l-.09.09c.2-10.92-.79-17.4-6.82-20.51-3.62-1.87-8.06-1.63-13.21.7l-2.89,1.31.67,72.13-14-5.17-14.5,7.8-.47,2.2a50.86,50.86,0,0,1-2.22,7.4c-5.25,13.53-15.07,21.09-18.77,23.94-10.18,7.83-20.14,10.44-26.73,12.16-2.72.71-5.8,1.51-9.23,2.14,13-7.72,28.42-20.21,34.76-38.27,2.25-6.42,6.44-18.36,1.5-31.14a34.72,34.72,0,0,0-7.07-11.19,149.44,149.44,0,0,0,13.43-28.3c1.39-4,2.62-8,3.68-12.07L722.81,547V520.33l-13.22-38.81c.14-2.89.2-5.61.2-8.13,0-15.84,0-32.22-8.39-50.15-16.82-36.12-53.41-48.6-64.23-51.57-13.65-3.74-49-9.95-82.6,13.13-13.88,9.54-32.37,27.82-41.6,60.74a116.09,116.09,0,0,0-4,38.2l-8.25,36.86V547l10.62,5.23c1.06,4.06,2.31,8.12,3.71,12.08A149,149,0,0,0,528,591.58a34.93,34.93,0,0,0-8.58,12.34c-5.19,12.81-.79,24.77,1.57,31.19,6.34,17.22,21.4,29.36,34.56,37.1-1.7-.4-3.29-.81-4.77-1.2-6.59-1.72-16.55-4.33-26.74-12.16-3.69-2.85-13.52-10.41-18.76-23.94a48.5,48.5,0,0,1-2.22-7.4l-.48-2.2-14.5-7.8-14,5.17.68-72.13-2.9-1.31c-5.15-2.33-9.59-2.57-13.2-.7-6,3.11-7,9.59-6.82,20.51l-.1-.09A179.94,179.94,0,0,1,425,591.1c-3.82,2.58-12.76,8.63-49.15,24.86-7.4,3.3-10.77,4.72-15,6.51-3.9,1.64-8.74,3.68-18.19,7.79-40.39,17.59-49,22.59-54.84,26.55a142.76,142.76,0,0,0-30.94,27c-24.09,28.65-29.12,59.74-31,71.44a162.28,162.28,0,0,0-.09,50.88c-1.53,0-3.05-.12-4.58-.22a4.89,4.89,0,0,0-.63,9.75q5.1.33,10.21.33c1.85,0,3.7,0,5.54-.11l3.3,29.05v0l4.74,41.72a14.4,14.4,0,0,0,14.32,12.79,4.65,4.65,0,0,1,4.64,5l-2.39,35.27a4.69,4.69,0,0,1-.79,2.28l-13.8,20.48A14.41,14.41,0,0,0,258.19,985l708.63,1.55h0A14.41,14.41,0,0,0,978.8,964l-13.74-20.4a4.7,4.7,0,0,1-.79-2.29l-2.39-35.26a4.65,4.65,0,0,1,4.64-5h.38c.15,0,.29,0,.43,0a14.4,14.4,0,0,0,13.52-12.75l8.23-72.46c2,.08,4.11.14,6.17.14,3.4,0,6.81-.11,10.2-.33a4.89,4.89,0,0,0-.63-9.75ZM691.51,631.65c-8.85,25.25-40.67,38.72-47,41.16a4.15,4.15,0,0,0-.76.38,61,61,0,0,1-19.73-7.62l.68-.47a259.11,259.11,0,0,0,45.14-39.81,245.85,245.85,0,0,0,19.71-24.22,24.3,24.3,0,0,1,3.52,6.2C696.77,616.68,693.48,626.05,691.51,631.65ZM707,504.06,713,522V540.9l-9.16,4.54-.54,2.21c-1.1,4.5-2.43,9-4,13.37-9.64,27.49-25.32,45-36.76,57.76a249.37,249.37,0,0,1-42.19,37.43h-.14V633.83l6.87-19.38a155.81,155.81,0,0,0,26.16-17.93A157.81,157.81,0,0,0,707,504.06ZM522.37,448.18c8.44-30.1,25.18-46.71,37.73-55.34a86,86,0,0,1,49.33-15.08,96.49,96.49,0,0,1,25.16,3.33c9.79,2.68,42.91,14,58,46.27,7.43,16,7.45,30.58,7.48,46a154.5,154.5,0,0,1-15.38,67.5A152,152,0,0,1,647,589.07a146.12,146.12,0,0,1-26.1,17.65l-1.69.89L612,628.07l-9.45-22.79-1.27-.83a217.09,217.09,0,0,1-31.82-25.14c-9.88-9.43-26.43-25.22-37.07-46.72-8.77-17.71-12.59-34-13.58-48.1l0-.16h0A106.54,106.54,0,0,1,522.37,448.18ZM524.22,561c-1.54-4.38-2.89-8.88-4-13.37l-.54-2.21-9.24-4.54V521.68l2.72-12.13a148.57,148.57,0,0,0,10.44,27.37C535,560,552.34,576.5,562.69,586.38a228.17,228.17,0,0,0,32,25.43L604,634.38v21.83h-.21a250.67,250.67,0,0,1-42.54-37.45C549.74,606,533.94,588.49,524.22,561Zm5.9,70.73c-2-5.55-5.47-14.84-1.69-24.14a24.75,24.75,0,0,1,5-7.64A241.47,241.47,0,0,0,554,625.3a260.42,260.42,0,0,0,45.5,39.81l1.25.86h.43a60.61,60.61,0,0,1-20,7.4l-.66.1a4.89,4.89,0,0,0-1.25-.69C572.71,670.34,539.38,656.9,530.12,631.74Zm-38.86-1.41L494,631.8a60.4,60.4,0,0,0,2.13,6.64c6.23,16.07,18,25.16,21.92,28.14,11.75,9,23.31,12.07,30.22,13.88C554,682,561.78,684,571.36,684a66.16,66.16,0,0,0,11.53-1A71.44,71.44,0,0,0,613,669.88,71.35,71.35,0,0,0,643,683a66.27,66.27,0,0,0,11.54,1c9.57,0,17.39-2,23.09-3.53,6.9-1.81,18.46-4.83,30.22-13.88,3.88-3,15.68-12.07,21.91-28.14a58.33,58.33,0,0,0,2.13-6.64l1.17-.63a32.85,32.85,0,0,1-1,13.5c-2.16,7.25-6.89,12.89-18.72,22.39a229.77,229.77,0,0,1-38.16,25,277.54,277.54,0,0,1-63,22,275.06,275.06,0,0,1-63-22.34,230.59,230.59,0,0,1-38.15-25.45c-11.85-9.67-16.58-15.43-18.75-22.82A33.68,33.68,0,0,1,491.26,630.33ZM459,640.52c3.22-10.81,3.31-20.42,3.46-36.34.09-10.28-.29-19-.59-26-.43-9.78-.87-19.89,1.2-21a3,3,0,0,1,1.79-.05l-.78,83.54a4.89,4.89,0,0,0,9.77.09l.07-7.67,7.52-2.77A43.25,43.25,0,0,0,483,646.19c2.78,9.44,8.52,16.67,21.94,27.63a242.2,242.2,0,0,0,39.95,26.62,285,285,0,0,0,65.4,23.18,4.8,4.8,0,0,0,1.94,0,5.12,5.12,0,0,0,.87.08,4.85,4.85,0,0,0,1.06-.12,287.77,287.77,0,0,0,65.38-22.78,241.79,241.79,0,0,0,40-26.17c13.44-10.78,19.18-17.9,22-27.2a42.26,42.26,0,0,0,1.34-17.76l9.26,3.41.07,7.67a4.88,4.88,0,0,0,4.88,4.84h0a4.88,4.88,0,0,0,4.83-4.93l-.78-83.54a3,3,0,0,1,1.8.05c2.06,1.07,1.62,11.18,1.2,21-.31,7-.68,15.73-.59,26,.14,15.92.23,25.53,3.46,36.34a78.39,78.39,0,0,0,7.59,17.38,4.78,4.78,0,0,0-1.81,2.34c-6.57,18.2-13.9,36.44-21.82,54.22-9.64,21.69-27.6,62.07-58.42,108.37a656.08,656.08,0,0,1-81.91,99.8,654.11,654.11,0,0,1-79.46-100.06c-29.92-46.44-47.35-86.94-56.72-108.7-7.68-17.85-14.81-36.15-21.18-54.39a4.77,4.77,0,0,0-1.49-2.14A79.16,79.16,0,0,0,459,640.52ZM780.64,667c1.61,2.14,3.22,4.15,4.79,6.05a5,5,0,0,0-.52,1.06,844.73,844.73,0,0,1-36.07,88.51c-16.77,35.28-35.78,75.26-71.18,120.18A503,503,0,0,1,612.55,951a498.28,498.28,0,0,1-64.79-67.39c-35.23-44.39-54.15-83.9-70.84-118.77A834,834,0,0,1,441,677.4a4.83,4.83,0,0,0-2-2.53c2.08-2.48,4.27-5.14,6.44-8.06,6.07,17.1,12.78,34.2,20,50.92,9.48,22,27.13,63,57.48,110.13A664.39,664.39,0,0,0,607,933h0c.13.12.27.22.41.33s.23.21.36.3.33.18.49.26a3.13,3.13,0,0,0,.36.19,4.3,4.3,0,0,0,.58.18c.12,0,.22.08.33.1a5.09,5.09,0,0,0,.95.09,4.78,4.78,0,0,0,.92-.09,2.8,2.8,0,0,0,.31-.09,5.72,5.72,0,0,0,.59-.17l.34-.18c.16-.08.34-.16.5-.26a3.76,3.76,0,0,0,.31-.25,3.83,3.83,0,0,0,.44-.36h0a667.35,667.35,0,0,0,86.66-104.82c31.27-47,49.45-87.85,59.22-109.81C767.34,701.56,774.32,684.29,780.64,667ZM235.57,806.15a152.64,152.64,0,0,1-.15-49.33c1.78-11,6.5-40.13,28.85-66.71,11-13.12,22.24-20.69,28.94-25.21,4.12-2.79,10.36-7,53.26-25.69,9.4-4.09,14.21-6.11,18.08-7.74,4.32-1.82,7.73-3.25,15.23-6.59,32.75-14.61,44-21.19,50.64-25.69a189,189,0,0,0,21.82-17.26c.26,6.26.52,13.69.44,22.16-.15,16.75-.33,24.53-3.05,33.63-4.35,14.58-12.34,24.06-19.39,32.43l-12.71,15.06h0c-26.78,31.73-41.13,48.47-48.65,55.23-15.22,13.67-34.16,30.69-63.25,45.67-20.35,10.47-39.51,16.88-56.94,19C244.34,805.67,240,806,235.57,806.15Zm11.08,15-.66-5.88c1.29-.12,2.59-.25,3.88-.41,18.58-2.28,38.84-9,60.22-20,30.21-15.56,49.67-33,65.3-47.09,7.08-6.36,19.34-20.44,41-46L416,782.56v.19a119,119,0,0,1,0,18l-33,9.45c-10.1,2.58-20.42,5-30.68,7.27-11.38,2.48-20,4.09-37.28,7.29a326.83,326.83,0,0,1-35.29,4.81c-5.66.45-10.46.67-16.42-.7a45.36,45.36,0,0,1-16.17-7.36A4.08,4.08,0,0,0,246.65,821.12Zm1.4,12.29a53.44,53.44,0,0,0,13.15,4.92,50,50,0,0,0,11.58,1.3c2.61,0,5.16-.17,7.79-.37a338.23,338.23,0,0,0,36.31-5c17.35-3.22,26.06-4.84,37.58-7.35,10.4-2.27,20.85-4.75,31.08-7.37l29.24-8.36a98.27,98.27,0,0,1-2.28,10l-31.78,9.18c-22.51,4.71-45.83,9.22-71.28,13.77-12.49,2.24-28,5-46.91.85A95.11,95.11,0,0,1,248.91,841Zm2.09,18.38q5.09,1.66,10.29,2.83a101.51,101.51,0,0,0,22,2.4c11,0,20.45-1.7,28.7-3.18,25.61-4.58,49.08-9.12,71.74-13.86l25.6-7.39a87.13,87.13,0,0,1-6,11.52l-69.71,15.62-.17,0a151,151,0,0,1-57.54,4,149.11,149.11,0,0,1-24.2-5.13Zm5.76,37a4.59,4.59,0,0,1-1.92-3.24l-1.88-16.5a158,158,0,0,0,41.56,5.56,162.78,162.78,0,0,0,41.39-5.41l58.75-13.17a62.88,62.88,0,0,1-14.36,12.61c-14.09,9-27.86,10-48.7,11.6l-7.35.57C301.35,882.6,278.65,885.29,255.9,888.83Zm253.86,86.91-71.24-.16A17.93,17.93,0,0,0,447.21,952l-9.78-21.75a17.94,17.94,0,0,0-26.32-7.56l-14,9.34a4.88,4.88,0,1,0,5.41,8.13l14-9.35a8.19,8.19,0,0,1,12,3.45L438.31,956a8.18,8.18,0,0,1-4.78,11.08l-23.95,8.33-.24.1-151.13-.33a4.65,4.65,0,0,1-3.85-7.25l13.8-20.48a14.38,14.38,0,0,0,2.43-7.08L273,905.11a14.37,14.37,0,0,0-2.17-8.61c18-2.54,35.89-4.53,53.36-5.92l7.31-.56c21.51-1.61,37.06-2.78,53.21-13.11a77.3,77.3,0,0,0,20.68-19.71c1.53-2,2.93-4,4.25-6.05a1.27,1.27,0,0,0,.13-.19c15.53-24,17.42-50.25,16.05-68.75l.36-92.09,6.35-7.52c6.73,19.36,14.25,38.61,22.44,57.54-3.68,21.07-8.22,42.24-13.51,62.94a836.42,836.42,0,0,1-34.78,106,4.88,4.88,0,1,0,9,3.66A847,847,0,0,0,450.9,805.5c4.17-16.32,7.88-32.93,11.08-49.56q3,6.62,6.14,13.15c16.07,33.58,36.08,75.37,72,120.62a506.65,506.65,0,0,0,45.43,49.93c-11.12,6.44-22.56,12.52-34.09,18.1-13.39,6.47-27.22,12.44-41.11,17.73A6.11,6.11,0,0,0,509.76,975.74Zm25.69.06c6.82-3,13.59-6,20.25-9.27,12.62-6.11,25.13-12.8,37.25-19.91q7.47,6.9,15.22,13.53a4.9,4.9,0,0,0,3.17,1.17,4.73,4.73,0,0,1,2.44,0,4.86,4.86,0,0,0,3.18-1.18q8.46-7.27,16.56-14.88c5.37,4.22,11,8.26,16.63,12a241.2,241.2,0,0,0,34.53,18.86Zm435.26-6.31a4.66,4.66,0,0,1-3.86,7.25h0l-146.19-.32a4.72,4.72,0,0,0-1.68-1l-24-8.33A8.19,8.19,0,0,1,790.25,956L800,934.26a8.18,8.18,0,0,1,12-3.45l14,9.35a4.89,4.89,0,0,0,5.42-8.13l-14-9.34a17.94,17.94,0,0,0-26.32,7.56L781.35,952a17.94,17.94,0,0,0,10.47,24.31l.12.05-80.79-.18a4.83,4.83,0,0,0-1.43-.78,233.93,233.93,0,0,1-54.2-26.3c-5.07-3.33-10-6.91-14.86-10.66a509.2,509.2,0,0,0,44.67-49.56c36.08-45.78,56.18-88.06,72.33-122,1.82-3.82,3.6-7.67,5.37-11.53,3.22,16.83,7,33.65,11.19,50.18a847.47,847.47,0,0,0,35.19,107.2,4.89,4.89,0,0,0,9.06-3.66,836.47,836.47,0,0,1-34.79-106c-5.34-20.92-9.92-42.31-13.62-63.6,8.23-19,15.78-38.37,22.57-57.83l3.54,4.2a4.94,4.94,0,0,0-.47,2.11l.36,95.16c-1.49,20.37.88,50,20.52,76a78,78,0,0,0,20.77,20c16.23,10.47,31.86,11.66,53.48,13.29l7.34.57c18.17,1.46,36.8,3.57,55.55,6.27a14.42,14.42,0,0,0-1.58,7.56L954.53,942a14.41,14.41,0,0,0,2.43,7.09Zm.43-82.27A4.63,4.63,0,0,1,967,891.3c-22.94-3.6-45.83-6.34-68-8.12-2.56-.21-5-.39-7.39-.57-20.94-1.59-34.78-2.64-48.93-11.76a64.2,64.2,0,0,1-15.25-13.78L889,870.87a162.77,162.77,0,0,0,41.39,5.4,157,157,0,0,0,42.72-5.88Zm3.11-27.36a149.12,149.12,0,0,1-82.9,1.54l-71.87-16.11a4.21,4.21,0,0,0-.49-.09,89,89,0,0,1-5.87-11.66l27.63,8,.35.09c22.66,4.74,46.13,9.28,71.74,13.86,8.25,1.48,17.74,3.17,28.7,3.17a101.46,101.46,0,0,0,22-2.39A107.84,107.84,0,0,0,975,853Zm2-17.7a96.74,96.74,0,0,1-14.79,4.55c-18.88,4.17-34.42,1.38-46.91-.85-25.45-4.56-48.77-9.06-71.28-13.77l-34-9.83c-.92-3.38-1.66-6.74-2.21-10l31.28,9,.13,0c10.23,2.62,20.69,5.09,31.09,7.36,11.52,2.52,20.23,4.14,37.57,7.36a338.91,338.91,0,0,0,36.32,4.95c2.63.2,5.18.37,7.79.37A50.15,50.15,0,0,0,962.8,840a54.49,54.49,0,0,0,14.34-5.57Zm2.26-19.85a4.94,4.94,0,0,0-1.74.78,45.53,45.53,0,0,1-16.17,7.36c-6,1.37-10.77,1.14-16.42.7a329.45,329.45,0,0,1-35.29-4.81c-17.25-3.2-25.91-4.81-37.28-7.29-10.26-2.25-20.58-4.69-30.68-7.27l-35.16-10.06a121.71,121.71,0,0,1,0-18.06v-.19l-.33-86.57c24.18,28.61,37.53,44.06,45,50.81,15.64,14,35.1,31.53,65.3,47.09,21.38,11,41.65,17.75,60.23,20,1.08.13,2.17.24,3.26.35Zm11.84-16.16c-4.39-.15-8.77-.48-13.1-1-17.43-2.14-36.59-8.55-57-19-29.09-15-48-32-63.24-45.67-8.63-7.76-26.26-28.66-61.37-70.3-7.05-8.37-15-17.85-19.4-32.43-2.71-9.1-2.89-16.88-3-33.63-.07-8.47.18-15.9.44-22.16a189.92,189.92,0,0,0,21.83,17.26c6.66,4.5,17.88,11.08,50.64,25.69,7.5,3.34,10.91,4.77,15.22,6.59,3.87,1.63,8.68,3.65,18.08,7.74,42.9,18.69,49.14,22.9,53.27,25.69,6.69,4.52,17.89,12.09,28.93,25.21,22.36,26.58,27.08,55.73,28.85,66.71A152.36,152.36,0,0,1,990.36,806.15Z"/><path class="cls-7" d="M825.68,944.65a4.89,4.89,0,0,0-6.44,2.48L816,954.45a4.9,4.9,0,0,0,2.48,6.45,5,5,0,0,0,2,.42,4.87,4.87,0,0,0,4.46-2.9l3.26-7.32A4.9,4.9,0,0,0,825.68,944.65Z"/><path class="cls-7" d="M399.27,962.15a4.88,4.88,0,0,0,4.59,3.24,4.79,4.79,0,0,0,1.65-.29,4.88,4.88,0,0,0,2.95-6.24l-4.07-11.39a4.88,4.88,0,1,0-9.19,3.29Z"/><line class="cls-8" x1="707.02" y1="489.7" x2="706.94" y2="375.52"/><line class="cls-8" x1="512.13" y1="489.7" x2="512.06" y2="375.52"/><path class="cls-9" d="M512.06,439.12h-9.5a11,11,0,0,0-11,11v31.31a11,11,0,0,0,11,11h15"/><path class="cls-9" d="M707.63,439.12h9.5a11,11,0,0,1,11,11v31.31a11,11,0,0,1-11,11h-15"/><path class="cls-7" d="M671.67,553.23H552.22a5.24,5.24,0,0,1,0-10.48H671.67a5.24,5.24,0,0,1,0,10.48Z"/><path class="cls-7" d="M660.5,539.3c-6.38,0-9.46-4.66-11.5-7.74-1.42-2.14-2.12-3-2.76-3s-1.34.9-2.76,3c-2,3.08-5.11,7.74-11.5,7.74s-9.46-4.66-11.5-7.74c-1.42-2.14-2.11-3-2.76-3s-1.27.8-2.76,3c-2,3.08-5.12,7.74-11.5,7.74s-9.47-4.66-11.5-7.74c-1.42-2.14-2.12-3-2.76-3s-1.28.8-2.77,3c-2,3.08-5.12,7.74-11.51,7.74s-9.46-4.66-11.5-7.74c-1.49-2.24-2.13-3-2.77-3a5.24,5.24,0,1,1,0-10.48c6.39,0,9.47,4.66,11.51,7.74,1.48,2.24,2.13,3,2.77,3s1.27-.8,2.76-3c2-3.08,5.12-7.74,11.51-7.74s9.46,4.66,11.5,7.74c1.48,2.24,2.12,3,2.76,3s1.28-.8,2.76-3c2-3.08,5.12-7.74,11.51-7.74s9.46,4.66,11.5,7.74c1.41,2.14,2.11,3,2.76,3s1.33-.9,2.75-3c2-3.08,5.12-7.74,11.5-7.74s9.47,4.66,11.5,7.74c1.42,2.14,2.12,3,2.76,3a5.24,5.24,0,1,1,0,10.48Z"/><path class="cls-6" d="M585,507.79a61.22,61.22,0,0,1-22.64-95c11.23-13.61,81.85-14.3,93.06-1.64a61.24,61.24,0,0,1-21.24,96.64"/><path class="cls-7" d="M581.17,513.57a5.75,5.75,0,0,1-2.53-.59,69.81,69.81,0,0,1-32.26-93.32,68.23,68.23,0,0,1,4-7,5.78,5.78,0,1,1,9.74,6.22,58.26,58.26,0,0,0,23.63,83.75,5.78,5.78,0,0,1-2.53,11Z"/><path class="cls-7" d="M546.28,424.51a5.78,5.78,0,0,1-3-10.73c18.21-11,42.29-17.06,67.81-17.06,24,0,47.06,5.45,64.87,15.35a5.78,5.78,0,0,1-5.62,10.11c-16.12-9-37.16-13.9-59.25-13.9-23.44,0-45.4,5.47-61.83,15.4A5.76,5.76,0,0,1,546.28,424.51Z"/><path class="cls-7" d="M688,513.56H532.53a5.78,5.78,0,0,1,0-11.56H688a5.78,5.78,0,0,1,0,11.56Z"/><path class="cls-7" d="M638.84,512.92a5.75,5.75,0,0,0,2.53-.59A69.83,69.83,0,0,0,669.69,412a5.78,5.78,0,1,0-9.75,6.22,58.25,58.25,0,0,1-23.63,83.74,5.79,5.79,0,0,0,2.53,11Z"/><path class="cls-3" d="M619.55,459.91c-14.47,0-21.81-7.34-21.81-21.8,0-13.48,8.24-20.89,21.62-21.94,10.81-.84,22.95,11.34,22.11,22.11C640.43,451.66,633,459.91,619.55,459.91Z"/><path class="cls-3" d="M657.16,471.07c-.16,5.56-4.09,9.27-9.67,9.13-5.82-.15-9.37-4.08-9.14-10.37s3.95-8.71,9.92-8.49C653.76,461.55,657.33,465.39,657.16,471.07Z"/><path class="cls-10" d="M609.58,3,91.22,302.25v598.5L193,959.48l1.87,1.12L609.58,1200l518.26-299.25V302.25Zm435.31,848.7-9.63,5.52-8.42,4.86-24.78,14.31-.56.37h-.09l-33.58,19.36-17.67,10.19-28.52,16.46-14.59,8.42-27.78,16-10.38,6.08-3.55,2L830,975.7l-2.24,1.22-1.22.74-.47.28-.18.1-4,2.24-3,1.69-2,1.21-5.15,2.9-3.27,2L805,990l-4.95,2.9-2.34,1.31-.1.09-4.3,2.52h-.09l-4.3,2.53-11.79,6.83-7.48,4.3-5.89,3.36-2,1.13-2.15,1.31h-.1l-3.64,2.05-21.79,12.53L730,1033.3l-6.26,3.65-6.18,3.56-6.92,4-22.91,13.18-36,20.76-2.25,1.31-4.67,2.71-6.45,3.74-.85.47-16.92,9.63-2.9,1.69-.28.18-1.31.75-1.78,1-.18.09-.19-.1-.1.06-1.31-.75-12-6.92-8-4.58-.28-.1-8.51-5-1.59-.94-.47-.28-5.7-3.27-1.59-.94-31.42-18.14-.38-.28-19.35-11.13L511.68,1041h0l-3.58-2.09-17.42-10.12-29.87-17.15-4.05-2.36-.73-.4-.3-.2-1.19-.69-2.89-1.68-1.69-.94-8.32-4.77-12.44-7.29L421,988.6l-17.86-10.38-.37-.18L401,977.1l-1-.65-1.4-.75-.65-.38-6.45-3.74-50.32-29-31.6-18.23-12.16-7-4.3-2.44-14.87-8.6-17.58-10.19-5-2.9-6.45-3.65-40.4-23.38-1.4-.75-7-4-16.08-9.35-.66-.37V354.94l14.4-8.32,39.56-22.82,27.87-16.08,9.35-5.43,22.26-12.81h.09l26.33-15.15,3.78-2.19.57-.34.09-.09,1.91-1.08,6.87-4,3.83-2.19h0l1-.58,3.29-1.9,1.2-.67,11.15-6.39h0l7.25-4.17,6.83-4,1.4-.77.63-.37,2.18-1.29,2.8-1.59,3.93-2.33,2.34-1.41h.09l.94-.46,4.95-2.9,2.51-1.45,4.5-2.62.51-.27,4.64-2.68,32.92-19,4.29-2.53,4.87-2.81,7.12-4.06,20.35-11.75.3-.18.84-.48,136.26-78.68,4.4-2.53.05,0,.13-.07,9.91,5.8,60.69,35.07,24.32,14,14,8.09,33.28,19.19,2.18,1.24,9.75,5.63,33,19,49.58,28.56,1,.57,8.14,4.67,14.22,8.23L887.22,264l7.48,4.3.84.56,16.93,9.73L947.81,299l.23.18,10.81,6.23,8.42,4.86L972,313l4.58,2.62,1,.56,7.2,4.21,6.73,3.93,5,2.81,48.35,27.86Z"/><path class="cls-11" d="M621.35,1095.63h.09l5.24-3,17.49-10.1,4.67-2.71,1.69-.94.37-.18,3.37-2L676.34,1064l3.74-2.16,4-2.33.09-.1,3.65-2,9.16-5.33,11.69-6.74,1.31-.75,4.68-2.71L718,1040l3.74-2.15.09-.09.19-.1,32.73-19,.56-.28,5.89-3.37,21.79-12.53,5.33-3.08.38-.28,3.93-2.25,4.39-2.52a.09.09,0,0,0,.09-.1L799.4,993l3.09-1.77,1.87-1.12,6-3.56.66-.37h.09l2.25-1.31,3-1.68.47-.29,1.4-.84,1.31-.75,9.44-5.42.38-.19.18-.18,1.69-.84,7.29-4.21v-.1l.56-.37.47-.19.47-.28.28-.09,3.83-2.25.75-.46.66-.38L846,966l11.79-6.73,8.13-4.86,14.4-8.33h.1l.18-.18,4.21-2.43,11.51-6.64.37-.28,9.82-5.62,7.67-4.39,28.33-16.27,1-.66.94-.37.28-.09L947,908l4.4-2.53,1.31-.74,4.39-2.53,13.84-8,1.5-.84,18.05-10.38,1.87-1.12,29.36-16.93,8.23-4.77,1.21-.65,3.09-1.78,10.19-5.8.1-.09V354.81l-26.37-15.25L1000,329.09l-4.12-2.34-7.29-4.12-18-10.38-.18-.09-5.05-2.9-8.61-5-3.74-2.15-2.43-1.49-2.43-1.31v-.1l-.15-.1-57-32.86-16-9.16-6.73-3.93-4.21-2.43-4.58-2.72-.47-.18-3.92-2.34-3.84-2.25-.26-.14-20.5-11.68-9.73-5.71-52.34-30.19-11.93-6.87-10.35-6L723.27,169.5l-104.16-60-4.9-2.87-13.34,7.69L544.11,147.1l-2.53,1.5-1.77,1-53.5,30.86-.46.28h-.1l-12.25,7-1.14.66-6.15,3.66L452,200.18l-2.25,1.3-14,8.1-6,3.55-4.12,2.43-3.55,2.06-7.3,4.2-15.52,8.89-1.08.57-5,2.89-10.27,6-9.47,5.45-.35.21-.28.16-8.23,4.74-7.2,4.17h-.05l-4.63,2.67-5.33,3.08h-.09l-1.14.64-4.49,2.57-.92.53-.1.06-.08.08-5.42,3.18-5.2,2.94-2,1.17h0l-.28.18-4.06,2.34-5.39,3.14-19.35,11.12-1.41.85-7.67,4.48-21.22,12.25-16.37,9.45-5.42,3.09L244.39,320h-.09l-7.2,4.3L184.17,354.8V851.74l.28.19.74.38.85.46,31.88,18.43L248.78,889l.19.1,2.43,1.4a.31.31,0,0,0,.19.09l2.71,1.59.19.1.37.18,6.74,4,12.43,7.2,9.54,5.51,17.4,10.1c.09,0,.09,0,.18.1l9.73,5.61H311l2,1.12.09.09,4.67,2.72.85.46,7.66,4.4L345.76,945l23.47,13.65,16,9.26,3.46,2.06,1.41.75.46.28,12.16,6.92.37.28.75.37.75.47,3.27,1.87.85.47,2.24,1.4,2.43,1.4,2.15,1.22,3.65,2.06,3.46,2L434,996l20.85,12.06.28.19.54.36.59.34.44.26,1.33.72,8.7,5,6.45,3.65,5.71,3.27,11.73,6.82,3.51,2,.85.47,4.11,2.43,5.8,3.37,3.15,1.83,3.6,2.09h.08l5,2.81,14.12,8.13,29.65,17.21,41.89,24.13,9.63,5.61,2,1.11,4.39-2.56Zm-39.46-34.18-11.5-6.64-5.7-3.27-16.93-9.82-6.73-3.83-6.46-3.74-49.18-28.34-7.2-4.21-.47-.28L461,991.69l-19.27-11-8.41-4.87-5.43-3.18-2.33-1.4-4-2.34-2-1.12-16.36-9.44-2.9-1.69-1.78-1-14-8.13L352.5,929,315.94,907.9l-2.81-1.59-13.65-7.85-4-2.34-28-16.09-45.91-26.56-8.42-4.77-3.65-2.15-2.15-1.21-6.26-3.65V365l36.56-21.13,27.87-16.09,8.7-5.05h.09l.56-.37,29.93-17.3h.09l12.72-7.39h.09l16.74-9.63,11.69-6.73,4-2.34h.1l7.1-4.12,4.3-2.52h.1l27.86-16.09c.1-.09.1-.09.19-.09l7.3-4.21,3.27-1.87,1.87-1.12L405,247.4l1.59-.94,2.53-1.4.37-.19,75.09-43.39L609.76,129.2l4.4-2.53,5,2.9,157.39,90.8,65.27,37.69.47.28,3,1.68,1,.57,4.12,2.43,3.27,1.87,11.5,6.64L883.29,282l65.65,37.78,13.19,7.58,5.14,3,.38.28,7.2,4.11,1.77,1,5,2.9,5,2.9L1027.4,365V841.69h0l-4.86,2.81-3,1.68-5.43,3.18-71,41-10.1,5.8-17.68,10.19-15.9,9.16L870.3,932.31l-12,6.92-6.74,3.83-27.4,15.81-.65.46-1.5.85-1.68,1-5.33,3L806.71,969l-2.06,1.21-.47.28-7.57,4.4-.85.46-36.56,21-.75.46-7.39,4.21-.74.47-8.51,5-20.11,11.6-14.4,8.32-15.71,9.08-10.29,5.89-27.77,16.08L642,1064.07l-.56.38h-.18l-7,4.11-2.62,1.4-17.48,10.1Z"/><path class="cls-7" d="M740.8,1077.13l14.64-8.41.66,1.15a27.93,27.93,0,0,1,3.14,7.62,17.62,17.62,0,0,1,0,7.12,18.55,18.55,0,0,1-9.35,12.77,20,20,0,0,1-15.83,2,21.3,21.3,0,0,1-4.86-39,20.93,20.93,0,0,1,8.73-2.77,25.76,25.76,0,0,1,9.93,1.59L746.1,1065q-7.7-3.3-14,.31a14.57,14.57,0,0,0-7.21,9.31,15,15,0,0,0,1.69,11.74,14.44,14.44,0,0,0,9.85,7.3,14.7,14.7,0,0,0,10.67-1.4,12.34,12.34,0,0,0,5.55-6.73,11,11,0,0,0-.17-8.43l-8.85,5.08Z"/><rect class="cls-7" x="774.4" y="1036.62" width="6.17" height="40.88" transform="translate(-423.88 529.24) rotate(-29.95)"/><polygon class="cls-7" points="803.35 1025.22 820.84 1055.63 815.51 1058.7 798.01 1028.31 789.87 1032.99 786.97 1027.97 808.58 1015.53 811.46 1020.55 803.35 1025.22"/><path class="cls-7" d="M851.59,993.3l3.64,6.32q-6.88-1.22-11.83,1.64a14.15,14.15,0,0,0-6.95,9.21,15.27,15.27,0,0,0,1.74,11.72,14.86,14.86,0,0,0,9.17,7.25,14.43,14.43,0,0,0,11.45-1.48,13.25,13.25,0,0,0,4.25-3.68,15,15,0,0,0,1.57-2.55,30.42,30.42,0,0,0,1.41-3.32l3.72,6.46a22.38,22.38,0,0,1-8.15,8.16,21,21,0,0,1-28.79-7.66,21.08,21.08,0,0,1-2.45-14.65A20.46,20.46,0,0,1,840.88,996a20.78,20.78,0,0,1,10.71-2.73"/><path class="cls-3" d="M877.51,991.71a20,20,0,0,1-1.91-16,20.93,20.93,0,0,1,10-13,21.4,21.4,0,0,1,29,7.83,20.11,20.11,0,0,1,2,16.11A21.63,21.63,0,0,1,891.45,1002q-9-1.78-13.94-10.31m5.41-3a14.8,14.8,0,0,0,9.51,7.37,15.11,15.11,0,0,0,18.45-10.69,15.88,15.88,0,0,0-10.89-19,14.38,14.38,0,0,0-11.54,1.5,14.53,14.53,0,0,0-7.11,9.23,14.8,14.8,0,0,0,1.58,11.6"/><rect class="cls-7" x="933.19" y="945.18" width="6.17" height="40.87" transform="translate(-357.16 596.77) rotate(-29.97)"/><polygon class="cls-7" points="969.91 969.85 948.13 932.01 989.54 944.17 975.36 919.54 980.7 916.47 1002.34 954.07 960.97 941.97 975.25 966.77 969.91 969.85"/></svg>