<?xml version="1.0" encoding="UTF-8"?>
<svg width="93px" height="108px" viewBox="0 0 93 108" version="1.1" xmlns="http://www.w3.org/2000/svg" xmlns:xlink="http://www.w3.org/1999/xlink">
    <!-- Generator: Sketch 51.3 (57544) - http://www.bohemiancoding.com/sketch -->
    <title>heart_bot</title>
    <desc>Created with Sketch.</desc>
    <defs></defs>
    <g id="Page-1" stroke="none" stroke-width="1" fill="none" fill-rule="evenodd">
        <g id="heart_bot" fill-rule="nonzero">
            <path d="M92.0937,27.4892 L92.0937,80.6298 L92.083,80.6396 L92.0635,80.6494 L91.6533,80.8896 L91.2832,81.1005 L90.6631,81.4502 L86.5137,83.8398 L86.5029,83.8505 L86.373,83.9296 L86.3135,83.9599 L85.7637,84.2802 L84.9629,84.7295 L84.8633,84.79 L84.3838,85.0693 L83.2529,85.7197 L82.4033,86.2099 L81.6631,86.6396 L81.4238,86.7705 L81.293,86.8193 L81.1836,86.8896 L80.1836,87.4599 L80.1533,87.4795 L78.1533,88.6298 L77.6435,88.9199 L77.5029,89 L77.4736,89.0205 L77.333,89.1005 L77.3232,89.1103 L76.2832,89.7002 L76.2432,89.7295 L76.1738,89.7705 L75.0137,90.4404 L74.5635,90.7002 L74.5537,90.7099 L74.543,90.7197 L74.5332,90.7197 L74.1133,90.9599 L72.9932,91.6103 L72.123,92.1298 L70.9434,92.7998 L70.8633,92.8505 L70.7432,92.9199 L70.7031,92.9502 L70.6631,92.9697 L70.6435,92.9795 L70.543,93.04 L70.2529,93.2099 L70.2236,93.2197 L70.0635,93.3095 L70.0635,93.3193 L69.6631,93.5498 L69.3935,93.7099 L69.2832,93.7705 L69.1035,93.8603 L69.083,93.8798 L69.043,93.8994 L68.3535,94.29 L68.293,94.33 L68.0537,94.4697 L68.0332,94.4795 L67.7432,94.6494 L67.5937,94.7295 L67.373,94.8603 L67.1338,95 L67.123,95 L66.7031,95.25 L66.4131,95.4199 L66.3838,95.4404 L66.083,95.6103 L64.7236,96.3994 L64.2236,96.6904 L63.9736,96.83 L63.2734,97.2295 L63.2432,97.25 L63.2334,97.25 L62.9238,97.4296 L62.873,97.4599 L62.6338,97.6103 L61.793,98.0898 L61.1631,98.4502 L61.1035,98.4795 L60.6035,98.7705 C60.5937,98.7802 60.5937,98.7802 60.5937,98.7705 L60.0635,99.08 L59.7734,99.25 L59.0137,99.6904 L58.9629,99.7197 L58.9131,99.75 L58.8838,99.7597 C58.8838,99.7705 58.873,99.7705 58.873,99.7705 L58.8535,99.79 L58.6035,99.9296 L57.6035,100.5097 L57.4336,100.6103 L57.3935,100.6298 L57.0137,100.8505 L55.5937,101.6699 L55.2334,101.8798 L55.1435,101.9296 L54.9033,102.0693 L54.1035,102.5302 L53.8437,102.6796 L53.5635,102.8398 L53.5537,102.8505 L53.3535,102.9697 L53.123,103.1005 L52.7734,103.2998 L51.9434,103.7802 L51.9336,103.79 L51.8437,103.8398 L50.5234,104.6005 L50.5029,104.6103 L49.7129,105.0693 L49.1035,105.4199 L49.0937,105.4199 L47.6836,106.2295 L47.6631,106.25 L47.4131,106.3896 L46.8535,106.7099 L46.8437,106.7099 L46.7129,106.79 L46.5234,106.8994 L46.2529,107.0595 L46.2432,107.0595 L46.043,107.1796 L45.9834,107.1494 L44.8437,106.4892 L44.8232,106.4795 L44.623,106.3603 L43.7734,105.8701 L43.7432,105.8603 L43.4131,105.6699 L43.4033,105.6591 L42.0029,104.8505 L41.9932,104.8398 L41.9736,104.83 L40.6035,104.04 L40.5732,104.0205 L40.5635,104.0205 L39.7334,103.54 L39.6738,103.5 L39.333,103.3095 L39.1533,103.2002 L39.1338,103.1904 L38.4736,102.8095 L38.4336,102.7802 L38.3437,102.7295 L38.2432,102.6699 L38.1133,102.6005 L37.8437,102.4404 L37.7236,102.3701 L37.7129,102.3701 L36.9932,101.9502 L36.7529,101.8193 L36.3633,101.5898 L36.3135,101.5595 L36.2832,101.54 L34.8838,100.7295 L34.873,100.7295 L34.7637,100.6591 L34.3935,100.4404 L34.3838,100.4404 L34.1133,100.2802 L33.4932,99.9199 L33.4629,99.9091 L33.4033,99.8701 L33.3633,99.8505 L32.0732,99.1005 L31.6836,98.8701 L31.0029,98.4795 L30.4238,98.1494 L30.3135,98.0898 L29.3135,97.5097 L27.5937,96.5097 C27.583,96.5 27.5732,96.4892 27.5635,96.4892 L26.2432,95.7295 L22.3232,93.4697 L22.1631,93.3798 L21.5937,93.0498 L21.123,92.7802 L20.6836,92.5205 L20.3838,92.3505 L20.0029,92.1298 L19.0137,91.5498 L18.9736,91.5302 L16.2334,89.9404 L16.1338,89.8798 L15.9531,89.7802 L15.2832,89.3994 L14.4629,88.9296 L14.373,88.8798 L13.873,88.5898 L13.8633,88.58 L13.7832,88.5302 L13.7734,88.5302 L13.6533,88.4599 L13.6435,88.4599 L13.333,88.2802 L12.6035,87.8603 C12.5937,87.8505 12.5937,87.8505 12.583,87.8505 L10.7236,86.7705 L9.7031,86.1796 L7.5937,84.9502 L7.5029,84.8994 L7.3037,84.7802 C7.3037,84.7802 7.293,84.7802 7.2832,84.7705 L7.0029,84.6103 L6.4736,84.3095 L5.6533,83.83 L5.5937,83.79 L5.583,83.79 C5.583,83.79 5.583,83.79 5.5732,83.79 L5.083,83.5 L4.3838,83.1005 L3.7031,82.7099 L2.4834,82 L2.3838,81.9404 L2.373,81.9404 L2.043,81.75 L1.6338,81.5097 L1.623,81.5097 L1.1934,81.2597 L0.2031,80.6904 L0.123,80.6494 L0.0937,80.6298 L0.0937,27.4892 L0.873,27.04 L2.4629,26.1201 L2.8232,25.9091 L6.2031,23.9599 L7.2637,23.3505 L13.043,20.0097 L13.0537,20.0097 L13.9629,19.4892 L15.0137,18.8701 L16.833,17.8193 L16.8437,17.8193 L17.7129,17.3095 L21.3437,15.2295 L21.9834,14.8505 L22.9238,14.3095 L23.0937,14.2197 L24.7529,13.2705 L25.5332,12.8193 L25.9131,12.6005 L26.3535,12.3398 L27.0234,11.9502 L27.4531,11.6904 L27.9736,11.3896 L28.4736,11.1103 L29.0635,10.7705 L30.2529,10.0898 L30.9434,9.6796 L31.6934,9.25 L32.3437,8.8798 L32.3535,8.8798 L32.4033,8.8505 L32.833,8.6005 L38.123,5.5498 L38.2334,5.4892 L38.3135,5.4404 L38.583,5.2802 L44.1035,2.0898 L44.6533,1.7705 L46.0937,0.9404 L46.6035,1.2392 L47.6934,1.8701 L50.5537,3.5205 L53.6435,5.3095 L56.2432,6.8095 L56.4629,6.9404 L61.1533,9.6396 L62.1338,10.2099 L67.2637,13.1699 L68.1738,13.6904 L69.2129,14.2998 L71.5137,15.6103 L72.3838,16.1103 L73.0732,16.5097 L73.9033,16.9892 L74.3935,17.2705 L74.9736,17.6103 L75.2734,17.7802 L76.0732,18.2392 L76.1631,18.2998 L77.9736,19.3398 L80.1338,20.58 L81.2529,21.2295 L81.7529,21.5205 L81.793,21.5498 L81.793,21.5595 L82.0537,21.7002 L82.7129,22.0898 L84.1738,22.9296 L86.1133,24.0498 L86.8935,24.4892 L87.333,24.7392 L87.8232,25.0205 L89.2734,25.8603 L89.4434,25.9599 L90.293,26.4502 L92.0937,27.4892 Z" id="Shape" fill="#FFFFFF"></path>
            <circle id="Oval" fill="#F4016B" opacity="0.22" cx="45.7038" cy="52.3483" r="33.9792"></circle>
            <g id="Group" transform="translate(21.000000, 16.000000)">
                <path d="M49.0427,74.9561 C48.6656,75.2308 48.2291,75.1831 47.802,75.1831 C32.6195,75.1834 17.437,75.1865 2.2546,75.1692 C1.7462,75.1686 0.8424,75.4522 0.8337,74.7294 C0.8245,73.9644 1.7282,74.2633 2.241,74.2583 C5.1054,74.2301 7.9703,74.2495 10.835,74.2382 C11.1704,74.2369 11.5405,74.3622 11.8539,74.0889 C11.8067,73.7626 11.4898,73.784 11.3075,73.6518 C10.5355,73.0918 10.1692,72.3652 10.4064,71.4215 C10.6548,70.4331 11.3463,69.9397 12.343,69.855 C13.9983,69.7143 14.009,69.7164 13.9947,68.0069 C13.9855,66.9007 14.205,65.8029 13.1466,64.8784 C12.4502,64.27 12.8897,63.1046 13.7671,62.6363 C14.1631,62.425 14.5857,62.4008 15.0184,62.3999 C15.2318,62.3994 15.5029,62.4024 15.5336,62.1386 C15.5766,61.7684 15.2526,61.7899 15.0136,61.7824 C14.5127,61.7667 14.0109,61.782 13.5099,61.7676 C13.1966,61.7586 12.9276,61.6057 12.8804,61.2917 C12.8358,60.9947 13.1062,60.8125 13.3501,60.8032 C14.3014,60.7666 13.8226,60.0585 13.9477,59.6253 C14.1235,59.0165 13.73,59.0252 13.3236,58.9429 C12.7469,58.8261 12.8236,58.3309 12.8232,57.9055 C12.8212,55.757 12.7853,53.6075 12.8403,51.4604 C12.8624,50.5979 12.6315,50.0229 11.9209,49.4731 C9.545,47.6348 7.2263,45.7218 4.9034,43.8157 C3.2781,42.4821 3.1296,41.101 4.4006,39.4448 C4.8357,38.8778 5.2885,38.3225 5.7606,37.786 C6.2527,37.2268 6.8914,36.8062 7.6337,36.9038 C8.5681,37.0267 8.9058,36.6071 9.2694,35.8263 C10.5432,33.0904 12.6725,31.3633 15.6922,30.8832 C16.3988,30.7708 16.6388,30.4628 16.5287,29.8278 C16.3404,28.7421 16.8307,28.5074 17.8317,28.5625 C19.3668,28.647 20.91,28.585 22.4498,28.5843 C22.876,28.5841 23.331,28.6517 23.5468,28.1397 C24.0397,27.7492 24.5345,27.3564 25.0293,26.9637 C25.2576,26.8288 25.658,26.8173 25.5636,26.4236 C25.4913,26.122 25.1658,26.1777 24.9297,26.1765 C23.3181,26.1683 21.7064,26.1794 20.0948,26.1686 C17.8946,26.1538 16.9873,25.2941 17.03,23.1139 C17.0701,21.0649 16.2809,19.1974 15.9018,17.2415 C15.8144,16.7906 15.4557,16.7777 15.0796,16.7288 C13.5832,16.5339 13.0284,15.8968 13.0127,14.4013 C13.004,13.5777 13.0449,12.7521 13.0028,11.9305 C12.9455,10.8111 13.1469,9.8577 14.3079,9.3714 C14.7389,9.1909 14.6619,8.7923 14.6636,8.4462 C14.6711,6.942 14.654,5.4376 14.6753,3.9337 C14.6813,3.5113 14.4825,2.8273 15.1746,2.8529 C15.8408,2.8776 15.6064,3.554 15.6317,3.98 C15.698,5.097 15.5292,6.2275 15.79,7.6101 C17.9804,4.3135 20.7857,2.4647 24.6054,2.483 C28.4363,2.5014 31.2396,4.3477 33.495,7.4641 C33.495,6.1695 33.4949,4.8749 33.495,3.5803 C33.4951,2.7566 33.4952,1.9328 33.4956,1.1091 C33.4958,0.7311 33.5526,0.3082 33.9994,0.3023 C34.46,0.2963 34.4988,0.7322 34.4995,1.1009 C34.5029,2.8916 34.5008,4.6823 34.5007,6.4731 C34.5007,7.1178 34.5153,7.7628 34.4963,8.4069 C34.4816,8.9057 34.5676,9.2583 35.108,9.5036 C35.8959,9.8613 36.2054,10.5876 36.2054,11.4422 C36.2053,12.445 36.2227,13.4482 36.2014,14.4505 C36.1712,15.873 35.5653,16.5979 34.1635,16.712 C33.4725,16.7683 33.291,17.0684 33.139,17.6716 C32.6325,19.6829 32.0381,21.671 32.1415,23.7828 C32.1647,24.2555 32.0083,24.727 31.6897,25.0767 C31.1995,25.6147 31.3812,25.7977 31.9967,25.9845 C36.0252,27.2068 38.2414,30.1776 38.3896,34.5017 C38.4348,35.8206 38.4348,35.8206 39.6964,35.3809 C40.9888,34.9304 42.196,35.3379 42.9388,36.5314 C43.334,37.1663 43.6754,37.838 43.9999,38.5129 C44.8805,40.344 44.3956,41.7509 42.5673,42.6977 C40.7589,43.6343 38.9527,44.5761 37.127,45.4779 C36.4666,45.8041 36.0956,46.0699 36.8028,46.7461 C37.2349,47.1592 37.2922,47.7676 37.2928,48.3511 C37.2957,51.5744 37.2958,54.7977 37.2928,58.021 C37.2925,58.3717 37.3391,58.7298 36.9423,58.9612 C36.6709,59.1195 35.9921,58.748 36.1624,59.4885 C36.2787,59.9943 35.8591,60.7947 36.8648,60.876 C37.0845,60.8938 37.2635,61.0845 37.226,61.3339 C37.1852,61.605 37.003,61.7867 36.714,61.7947 C36.1772,61.8095 35.6397,61.8001 35.1029,61.8146 C34.9025,61.82 34.6381,61.7789 34.6219,62.0894 C34.6067,62.3791 34.8389,62.4141 35.0565,62.438 C35.376,62.4731 35.7092,62.457 36.0135,62.5437 C37.2208,62.888 37.7355,64.3668 36.8281,65.1566 C36.1509,65.746 36.0458,66.3655 36.0928,67.1347 C36.1081,67.3845 36.0952,67.636 36.0952,67.8867 C36.0952,69.6961 36.095,69.6976 37.8331,69.8909 C38.7842,69.9967 39.4624,70.492 39.714,71.406 C39.9653,72.3191 39.6579,73.0998 38.8669,73.6586 C38.7009,73.7758 38.5262,73.8806 38.3554,73.9911 C38.3597,74.1048 38.3641,74.2185 38.3684,74.3322 C41.8695,74.3322 45.3705,74.3322 48.8716,74.3322 C48.9284,74.54 48.9855,74.7481 49.0427,74.9561 Z M32.6116,53.8689 C31.8379,55.0087 31.5707,56.2632 31.6979,57.6299 C31.754,58.2332 31.7122,58.8465 31.6991,59.4549 C31.6925,59.7628 31.5806,60.0467 31.2262,60.0596 C30.8342,60.0738 30.7855,59.7474 30.7791,59.4582 C30.7632,58.7424 30.7246,58.0223 30.7827,57.3111 C30.857,56.4001 30.5483,55.9002 29.5752,55.9025 C29.9981,57.5431 29.8041,58.3777 28.8754,58.9742 C27.9445,59.5722 26.945,59.346 25.693,58.2865 C24.9559,57.6627 24.1984,57.0627 23.4423,56.4617 C22.6484,55.8307 21.9655,55.1672 22.472,54.0187 C22.5937,53.7426 22.457,53.5231 22.2252,53.3819 C21.9714,53.2273 21.8336,53.4541 21.7053,53.605 C21.2776,54.1081 20.7836,54.5664 20.1266,54.6451 C19.4272,54.7288 19.3733,55.1088 19.3849,55.6667 C19.41,56.8835 19.3896,58.1012 19.3926,59.3185 C19.3935,59.6732 19.2995,60.0263 18.9132,60.033 C18.491,60.0403 18.4745,59.6373 18.455,59.3134 C18.44,59.0636 18.4482,58.8123 18.448,58.5617 C18.4473,57.4518 18.4279,56.3414 18.4545,55.2321 C18.4694,54.6079 18.0849,54.1802 17.6074,54.1835 C17.0673,54.1873 17.2909,54.8212 17.3401,55.1211 C17.5948,56.6724 16.3979,58.2626 17.4709,59.7834 C17.5046,59.8312 17.4918,59.9283 17.4725,59.9942 C17.2812,60.648 17.5897,60.8084 18.1854,60.7917 C18.6159,60.7797 19.3114,60.6301 19.3076,61.2441 C19.3033,61.9397 18.5778,61.7244 18.1094,61.7685 C18.0029,61.7785 17.888,61.7462 17.7885,61.7742 C17.3861,61.8875 16.6647,61.4651 16.6296,62.0898 C16.599,62.6364 17.307,62.3423 17.6825,62.4132 C18.3471,62.5387 18.9177,62.7614 19.2215,63.4269 C19.4875,64.0097 19.4964,64.7109 19.0136,65.0115 C17.8407,65.7417 18.1013,66.8188 18.0961,67.8527 C18.0863,69.8185 18.0933,69.8185 20.031,69.8484 C21.4453,69.8702 22.3016,70.4799 22.4866,71.5967 C22.6597,72.642 22.0572,73.4582 20.7631,73.9448 C20.7209,73.9607 20.7086,74.0562 20.6663,74.1506 C23.5347,74.1506 26.3834,74.1506 29.415,74.1506 C27.9105,73.3283 27.4135,72.5397 27.6852,71.4793 C27.937,70.4965 28.6528,70.037 29.6231,69.883 C30.408,69.7584 31.4846,70.3139 31.9148,69.5982 C32.2816,68.9878 32.0169,67.9977 32.031,67.1755 C32.0328,67.0681 32.0282,66.9606 32.0317,66.8533 C32.0522,66.2355 32.0576,65.6877 31.3585,65.3153 C30.7602,64.9965 30.712,64.321 30.8496,63.6883 C30.9851,63.0655 31.4165,62.711 32.0143,62.5598 C32.2542,62.4991 32.5082,62.4928 32.7562,62.4652 C33.058,62.4315 33.5455,62.5649 33.5413,62.1414 C33.5359,61.6051 33.0045,61.8373 32.6918,61.8111 C32.2293,61.7723 31.7609,61.809 31.2971,61.78 C31.021,61.7627 30.8339,61.5904 30.8213,61.2946 C30.8127,61.0922 30.9453,60.8902 31.1206,60.9188 C32.5022,61.1438 32.7732,60.3299 32.799,59.2171 C32.8032,59.0374 33.0184,58.8586 33.1463,58.6869 C33.2537,58.5427 33.4042,58.386 33.297,58.2122 C32.4772,56.8829 32.9864,55.4067 32.8152,54.0072 C32.9082,53.9005 32.8283,53.8351 32.7477,53.7937 C32.7219,53.7807 32.658,53.8418 32.6116,53.8689 Z M12.46,39.8051 C12.5771,39.3347 12.6911,39.0029 12.739,38.6619 C12.9256,37.3321 13.6656,36.3527 14.7135,35.5971 C15.1249,35.3005 15.7432,34.7933 16.1301,35.3114 C16.6157,35.9617 15.8011,36.1512 15.3911,36.4284 C13.2634,37.867 13.1298,40.367 15.1142,41.9784 C17.5549,43.9603 20.0108,45.9234 22.4579,47.8973 C23.6972,48.8969 24.0424,50.0473 23.3377,51.3939 C22.903,52.2246 23.3384,52.3803 23.9405,52.388 C24.5649,52.396 25.2113,52.3795 25.6608,52.8136 C26.8804,53.9917 28.5003,54.2605 29.981,54.852 C30.565,55.0853 30.8595,54.9052 31.1575,54.3543 C32.1969,52.4329 33.0604,50.4305 33.9562,48.4436 C34.1454,48.024 34.4417,47.5849 34.3014,46.9254 C32.6572,47.7753 31.0483,48.534 29.5109,49.4171 C26.4691,51.1643 24.9409,50.7472 23.4989,47.5935 C22.453,45.306 22.7134,44.0462 24.9873,42.8748 C28.3222,41.1568 31.6629,39.4502 34.9981,37.7327 C37.5973,36.3942 37.7844,35.9948 37.2203,33.084 C37.1931,32.9435 37.1622,32.8035 37.1278,32.6645 C36.2811,29.2397 33.406,26.7362 29.9151,26.672 C26.9872,26.6182 23.7692,28.362 22.5925,31.6626 C22.0003,33.3236 22.0036,33.3248 20.428,32.5888 C20.3307,32.5434 20.2335,32.4977 20.1359,32.453 C16.3334,30.7099 11.6188,32.6118 10.0829,36.5166 C9.8836,37.0233 9.7208,37.56 10.2392,37.9932 C10.9432,38.5817 11.6603,39.1541 12.46,39.8051 Z M24.3824,17.1462 C24.3824,17.1449 24.3824,17.1435 24.3824,17.1422 C25.1667,17.1422 25.9513,17.1301 26.7353,17.1469 C27.1819,17.1564 27.5816,17.0456 27.9475,16.801 C30.2291,15.2762 31.2158,11.9472 30.1967,9.3749 C29.8501,8.5001 29.2812,7.9942 28.3804,7.7407 C26.4636,7.2014 24.4986,6.9486 22.5748,7.3982 C19.0917,8.2123 18.8642,8.1374 18.2927,11.2061 C18.1377,12.0383 18.4155,12.8398 18.6278,13.6151 C19.2327,15.8241 21.0389,17.1451 23.3134,17.1461 C23.6697,17.1463 24.026,17.1462 24.3824,17.1462 Z M19.4405,53.8094 C19.9874,53.8189 20.4174,53.5756 20.7607,53.1891 C21.234,52.6562 21.7009,52.1152 22.1345,51.55 C23.0115,50.4067 22.9287,49.5254 21.7951,48.583 C20.0395,47.1237 18.2389,45.7188 16.4789,44.2646 C16.017,43.883 15.7364,43.8932 15.3624,44.3859 C14.5217,45.4935 13.657,46.587 12.7367,47.6286 C12.2156,48.2183 12.2221,48.5526 12.8624,49.0668 C14.33,50.2454 15.8597,51.3476 17.2082,52.6814 C17.7914,53.2584 18.5489,53.7309 19.4405,53.8094 Z M24.5637,25.1681 C25.9954,25.1681 27.4271,25.17 28.8588,25.1676 C30.7846,25.1644 31.3609,24.514 31.1863,22.6309 C31.1432,22.1658 30.9766,22.0183 30.5304,22.0194 C26.5575,22.0292 22.5845,22.0242 18.6116,22.0272 C18.3708,22.0274 18.1164,21.9889 17.977,22.2897 C17.3774,23.5834 18.3065,25.138 19.7318,25.1613 C21.3421,25.1876 22.9531,25.1673 24.5637,25.1681 Z M32.5445,8.724 C31.9905,6.2954 28.2675,3.1424 24.015,3.3908 C20.579,3.5915 16.9636,6.504 16.53,8.9199 C21.8561,5.5271 27.1612,5.3437 32.5445,8.724 Z M24.6265,18.0452 C22.4109,18.0452 20.1954,18.0399 17.9799,18.0516 C17.6861,18.0532 17.181,17.9086 17.1765,18.3325 C17.1678,19.1525 17.432,19.9636 17.7854,20.6927 C18.0122,21.1606 18.6221,20.9827 19.072,20.9836 C22.464,20.9902 25.856,20.9815 29.2481,20.9801 C31.3593,20.9793 31.326,20.9719 31.899,18.9385 C32.1175,18.163 31.8818,18.023 31.1687,18.0335 C28.9884,18.0655 26.8073,18.0451 24.6265,18.0452 Z M26.8006,49.5283 C26.9329,49.5002 27.1627,49.498 27.3469,49.4051 C29.6083,48.2648 31.8591,47.1034 34.1228,45.9678 C34.5904,45.7332 34.4772,45.4626 34.2985,45.1196 C33.6225,43.8228 32.9183,42.5384 32.3034,41.2128 C31.9697,40.4934 31.6315,40.4954 30.9939,40.8375 C29.0767,41.8661 27.1232,42.8268 25.1859,43.8181 C24.803,44.014 24.4339,44.2368 24.1825,44.601 C23.2104,46.0094 24.4443,47.005 24.8788,48.1323 C25.1873,48.9329 25.7642,49.5147 26.8006,49.5283 Z M16.3978,72.997 C17.6485,72.997 18.8994,72.9817 20.1497,73.0028 C20.8872,73.0153 21.4729,72.788 21.5228,71.9924 C21.577,71.1282 20.9645,70.7892 20.2018,70.7939 C17.6681,70.8095 15.1358,70.9271 12.6001,70.8024 C11.9029,70.7681 11.3049,71.1003 11.3316,71.9313 C11.3577,72.7416 11.9048,73.0038 12.6459,72.9988 C13.8965,72.9904 15.1472,72.9965 16.3978,72.997 Z M33.7265,73.0115 C33.7265,73.0073 33.7265,73.0031 33.7266,72.9989 C35.0114,72.9989 36.2964,72.9846 37.5809,73.0045 C38.3113,73.0158 38.7828,72.698 38.8069,71.9748 C38.8314,71.2392 38.3347,70.8705 37.6356,70.8658 C35.0328,70.8483 32.4298,70.8492 29.8269,70.8636 C29.0863,70.8677 28.5452,71.2224 28.6005,72.0233 C28.6502,72.7431 29.1544,73.0298 29.8719,73.0176 C31.1564,72.9958 32.4416,73.0115 33.7265,73.0115 Z M11.515,47.6779 C11.5794,47.6791 11.7026,47.4373 11.8552,47.251 C12.4432,46.5332 13.0205,45.8067 13.6072,45.0879 C15.2658,43.056 15.2574,43.07 13.0788,41.5164 C12.6936,41.2417 12.5107,41.2764 12.2368,41.6234 C11.2643,42.8555 10.2661,44.0673 9.2793,45.2881 C9.1471,45.4516 8.9841,45.6042 9.059,45.8533 C9.1163,46.0439 11.0788,47.6521 11.515,47.6779 Z M38.1497,43.5558 C38.0821,43.4095 37.9993,43.2123 37.9019,43.0224 C37.4788,42.1977 37.0449,41.3786 36.6271,40.5513 C35.5512,38.4213 35.5601,38.4317 33.4758,39.5611 C32.943,39.8498 32.726,40.1089 33.0889,40.7156 C33.5637,41.5093 33.9345,42.365 34.3571,43.1904 C35.5333,45.4872 35.5907,45.4984 37.793,44.0739 C37.9781,43.9542 38.1761,43.8793 38.1497,43.5558 Z M29.0445,17.1484 C30.1033,17.1484 30.8156,17.0971 31.5168,17.1633 C32.1753,17.2255 32.3955,16.8958 32.5264,16.3497 C32.792,15.2415 33.0917,14.1414 33.3573,13.0332 C33.8233,11.0887 33.022,9.6793 31.1695,9.266 C31.9628,12.1859 31.4276,14.78 29.0445,17.1484 Z M17.7303,9.3974 C16.3941,10.2346 15.3017,10.9466 15.6883,12.5454 C16.0153,13.8977 16.3769,15.2417 16.7299,16.5877 C16.7992,16.8521 16.8122,17.1607 17.2318,17.1505 C18.0277,17.1313 18.8245,17.1449 19.856,17.1449 C17.6442,14.8689 16.9262,12.4166 17.7303,9.3974 Z M7.664,37.7884 C7.0794,37.8517 6.4955,38.1714 6.2076,38.7738 C5.9164,39.3831 6.6316,39.4967 6.9308,39.7697 C7.642,40.4186 8.4123,41.0033 9.1649,41.6061 C10.3243,42.5347 10.3265,42.5319 11.2541,41.3687 C11.3209,41.2849 11.3831,41.1965 11.4569,41.1193 C11.8504,40.7078 11.744,40.4119 11.3053,40.0877 C10.5591,39.5362 9.8595,38.9222 9.1295,38.3483 C8.7327,38.0364 8.2989,37.7888 7.664,37.7884 Z M43.4782,40.0906 C43.5017,38.9154 42.9939,38.5753 41.9912,39.093 C41.0137,39.5976 40.0631,40.1687 39.0487,40.5833 C38.1112,40.9666 38.1181,41.3738 38.5223,42.2353 C38.9967,43.2465 39.4558,43.3806 40.345,42.7932 C40.9932,42.3651 41.7309,42.075 42.4121,41.6936 C43.0321,41.3465 43.4471,40.8391 43.4782,40.0906 Z M40.4609,36.1228 C39.1719,36.5487 37.9455,37.2794 36.7047,37.9748 C36.4882,38.0961 36.5619,38.3573 36.6637,38.5577 C36.8092,38.8437 36.9997,39.1118 37.1094,39.4101 C37.3694,40.1176 37.6989,40.3293 38.4344,39.8839 C39.4702,39.2566 40.5841,38.7586 41.6616,38.1996 C42.5249,37.7517 42.5823,37.3947 41.8995,36.7063 C41.5303,36.3343 41.0644,36.1721 40.4609,36.1228 Z M5.7754,39.9266 C5.2003,39.9069 5.0955,40.1122 4.9648,40.2742 C4.321,41.072 4.4014,42.0945 5.2432,42.8565 C5.9554,43.5011 6.732,44.0749 7.4852,44.6737 C7.7447,44.88 8.031,45.3203 8.3632,44.8952 C8.7861,44.354 9.4411,43.9454 9.5166,43.1798 C9.5336,43.0069 5.6311,39.9231 5.7754,39.9266 Z M36.3289,52.3241 C36.3289,52.1462 36.3535,51.9641 36.3242,51.7912 C36.2431,51.313 36.6573,50.562 35.6332,50.5953 C34.7902,50.6227 33.8332,50.4066 33.7732,51.7006 C33.7436,52.3397 33.7654,52.9811 33.7631,53.6214 C33.7619,53.9501 33.8897,54.1121 34.2483,54.1791 C35.9605,54.4991 36.3289,54.2209 36.329,52.5376 C36.3289,52.4664 36.3289,52.3953 36.3289,52.3241 Z M17.1227,67.8509 C17.1227,67.3497 17.123,66.8484 17.1226,66.3472 C17.1224,66.0828 17.0792,65.8937 16.7524,65.8022 C15.5237,65.4581 14.9786,65.8486 14.9776,67.1216 C14.9772,67.6586 15.0324,68.2026 14.9653,68.7311 C14.852,69.6232 15.1749,69.8898 16.0737,69.875 C16.8887,69.8616 17.2729,69.689 17.132,68.8162 C17.0813,68.5022 17.1239,68.1731 17.1227,67.8509 Z M35.1606,67.8746 C35.1606,67.4469 35.1166,67.0136 35.1703,66.5927 C35.2658,65.8442 34.8447,65.7354 34.278,65.8293 C33.7731,65.9129 32.9531,65.4469 32.9735,66.5365 C32.9902,67.4273 32.9766,68.3186 32.9776,69.2096 C32.9779,69.4996 32.9769,69.7509 33.364,69.8549 C34.6342,70.1958 35.1603,69.8181 35.1606,68.5161 C35.1607,68.3024 35.1607,68.0885 35.1606,67.8746 Z M19.9929,29.5066 C19.4231,29.5066 18.8531,29.5157 18.2836,29.5036 C17.8541,29.4945 17.4984,29.5319 17.4932,30.0995 C17.4888,30.5901 17.7101,30.8213 18.1899,30.8407 C19.0948,30.8772 19.9421,31.1583 20.747,31.5377 C21.2071,31.7546 21.4075,31.6844 21.6404,31.2248 C22.5161,29.4972 22.5343,29.5064 20.6339,29.5064 C20.4203,29.5064 20.2066,29.5064 19.9929,29.5066 Z M26.9801,55.1257 C26.3801,54.6357 25.8338,54.2287 25.3335,53.7714 C24.6721,53.1669 24.1904,53.295 23.6536,53.9739 C23.1203,54.6485 23.2355,55.1113 23.879,55.5847 C24.4487,56.0038 24.9882,56.4639 25.5862,56.942 C25.7985,56.1394 26.2896,55.6303 26.9801,55.1257 Z M13.7933,56.6416 C13.9177,57.1645 13.3845,58.1069 14.6772,58.0467 C15.9238,57.9886 16.297,57.5342 16.393,56.1355 C16.4693,55.0233 15.8533,55.0465 15.0796,55.0652 C13.7938,55.0962 13.7933,55.0744 13.7933,56.6416 Z M36.3535,56.6698 C36.2286,56.1672 36.5982,55.4836 36.0945,55.2598 C35.4622,54.9788 34.6599,55.0209 34.0082,55.24 C33.5043,55.4095 33.7677,56.0658 33.7752,56.4967 C33.7952,57.6514 34.3462,58.072 35.5583,58.0851 C36.8285,58.0988 36.117,57.1383 36.3535,56.6698 Z M35.199,12.9835 C35.2166,12.983 35.2342,12.9824 35.2519,12.9819 C35.2152,12.2725 35.19,11.5622 35.1351,10.8542 C35.1176,10.6287 34.943,10.4376 34.7243,10.4199 C34.4886,10.4009 34.4712,10.6325 34.4968,10.8067 C34.7123,12.2729 34.114,13.6013 33.8064,14.9794 C33.756,15.2051 33.5773,15.4734 33.8403,15.6664 C34.0579,15.8261 34.3252,15.7431 34.5626,15.6801 C35.0064,15.5625 35.182,15.2203 35.1944,14.7982 C35.2122,14.1939 35.199,13.5885 35.199,12.9835 Z M14.7083,10.2942 C14.0617,10.5814 13.9435,10.9648 13.9412,11.4068 C13.9356,12.4793 13.9338,13.5519 13.9438,14.6244 C13.9485,15.1283 14.1324,15.5497 14.6624,15.6884 C15.1412,15.8138 15.5415,15.7993 15.3673,15.0934 C14.9885,13.5589 14.4227,12.056 14.7083,10.2942 Z M33.9507,64.7281 C34.4863,64.7281 35.0219,64.726 35.5574,64.7288 C35.9655,64.7309 36.2686,64.5956 36.2784,64.1348 C36.2864,63.7585 36.0716,63.4933 35.7074,63.4842 C34.57,63.4558 33.4309,63.4503 32.2937,63.4811 C31.9443,63.4906 31.7128,63.7505 31.726,64.1366 C31.7419,64.6007 32.0488,64.7296 32.4511,64.7307 C32.951,64.7319 33.4509,64.7309 33.9507,64.7281 Z M16.0512,64.7042 C16.5867,64.7042 17.1223,64.695 17.6575,64.7071 C18.0828,64.7167 18.3622,64.5352 18.3879,64.1096 C18.4137,63.6811 18.1177,63.417 17.7333,63.4034 C16.6659,63.3655 15.5957,63.3645 14.5282,63.3982 C14.1551,63.4099 13.8393,63.6249 13.8555,64.0798 C13.874,64.5985 14.2118,64.7179 14.6591,64.7074 C15.1229,64.6965 15.5871,64.7049 16.0512,64.7042 Z M13.7583,52.7061 C14.139,53.0519 13.2031,54.1308 14.4768,54.1079 C15.0981,54.0967 15.9819,54.5185 16.3028,53.7918 C16.6683,52.964 15.7316,52.6263 15.2427,52.1548 C15.1918,52.1058 15.1373,52.0566 15.076,52.023 C14.6908,51.8121 14.398,51.1928 13.9546,51.4068 C13.5743,51.5902 13.8676,52.1866 13.7583,52.7061 Z M27.6366,56.0688 C26.9971,56.1334 26.5737,56.5174 26.5834,57.2294 C26.593,57.9312 27.005,58.375 27.7189,58.3713 C28.4803,58.3673 28.8962,57.924 28.8767,57.1491 C28.8579,56.4053 28.4261,56.0718 27.6366,56.0688 Z M36.3299,48.5692 C36.3206,48.047 36.3817,47.3575 35.8772,47.2405 C35.2967,47.1058 35.4485,47.9054 35.1803,48.2323 C35.0732,48.3629 35.0447,48.5551 34.9656,48.7119 C34.5906,49.4558 34.8362,49.6696 35.6348,49.6529 C36.5383,49.6341 36.2792,49.0219 36.3299,48.5692 Z M34.4079,59.084 C33.935,59.1321 33.6252,59.3847 33.6218,59.8976 C33.6188,60.3533 33.8652,60.6479 34.3343,60.6708 C34.8292,60.6949 35.1627,60.4819 35.1909,59.9395 C35.2186,59.4067 34.9163,59.1642 34.4079,59.084 Z M15.7441,59.0381 C15.2529,59.0741 14.94,59.3417 14.9244,59.8273 C14.9089,60.312 15.1922,60.6333 15.696,60.6461 C16.1932,60.6587 16.4957,60.378 16.5168,59.878 C16.5385,59.3679 16.2221,59.1216 15.7441,59.0381 Z" id="Shape" fill="#2D1950"></path>
                <path d="M25.0291,26.9636 C24.5343,27.3563 24.0395,27.7491 23.5466,28.1396 C23.31,27.691 22.8811,27.7945 22.5019,27.7909 C21.3931,27.7804 20.2841,27.7947 19.1754,27.782 C18.8386,27.7781 18.3579,27.8635 18.3875,27.3295 C18.4089,26.944 18.7848,26.9029 19.1341,26.9075 C21.099,26.9332 23.0641,26.9463 25.0291,26.9636 Z" id="Shape" fill="#12C77C"></path>
                <path d="M12.46,39.8051 C11.6603,39.1541 10.9431,38.5817 10.2393,37.9934 C9.721,37.5602 9.8837,37.0235 10.083,36.5168 C11.6189,32.6119 16.3335,30.71 20.136,32.4532 C20.2336,32.4979 20.3308,32.5436 20.4281,32.589 C22.0038,33.325 22.0005,33.3239 22.5926,31.6628 C23.7693,28.3622 26.9873,26.6183 29.9152,26.6722 C33.4061,26.7364 36.2812,29.2399 37.1279,32.6647 C37.1623,32.8037 37.1932,32.9437 37.2204,33.0842 C37.7845,35.995 37.5975,36.3945 34.9982,37.7329 C31.663,39.4503 28.3223,41.157 24.9874,42.875 C22.7135,44.0464 22.4531,45.3062 23.499,47.5937 C24.941,50.7473 26.4692,51.1644 29.511,49.4173 C31.0484,48.5342 32.6573,47.7755 34.3015,46.9256 C34.4417,47.5851 34.1454,48.0243 33.9563,48.4438 C33.0604,50.4307 32.197,52.4331 31.1576,54.3545 C30.8596,54.9054 30.5651,55.0855 29.9811,54.8522 C28.5004,54.2607 26.8805,53.9918 25.6609,52.8138 C25.2114,52.3797 24.565,52.3962 23.9406,52.3882 C23.3384,52.3805 22.9031,52.2248 23.3378,51.3941 C24.0424,50.0474 23.6972,48.8971 22.458,47.8975 C20.0109,45.9235 17.5549,43.9605 15.1143,41.9786 C13.1299,40.3672 13.2635,37.8671 15.3912,36.4286 C15.8012,36.1514 16.6158,35.9618 16.1302,35.3116 C15.7433,34.7935 15.125,35.3007 14.7136,35.5973 C13.6656,36.3528 12.9257,37.3322 12.7391,38.6621 C12.6912,39.0029 12.5771,39.3347 12.46,39.8051 Z" id="Shape" fill="#F4016B"></path>
                <path d="M24.3824,17.1462 C24.0261,17.1462 23.6697,17.1463 23.3134,17.1462 C21.0389,17.1451 19.2326,15.8242 18.6278,13.6152 C18.4155,12.8399 18.1377,12.0384 18.2927,11.2062 C18.8642,8.1375 19.0917,8.2124 22.5748,7.3983 C24.4986,6.9487 26.4636,7.2015 28.3804,7.7408 C29.2813,7.9943 29.8502,8.5001 30.1967,9.375 C31.2158,11.9473 30.2291,15.2763 27.9475,16.8011 C27.5816,17.0456 27.1818,17.1565 26.7353,17.147 C25.9513,17.1303 25.1667,17.1423 24.3824,17.1423 C24.3824,17.1435 24.3824,17.1448 24.3824,17.1462 Z M27.9027,9.7334 C27.9185,8.9194 27.0842,8.1274 26.2107,8.1272 C25.3463,8.127 24.5497,8.9216 24.5611,9.7725 C24.5722,10.6032 25.4155,11.4178 26.2497,11.4036 C27.0866,11.3895 27.8862,10.5815 27.9027,9.7334 Z M29.0588,12.2272 C28.9816,11.8493 28.8004,11.5162 28.3799,11.5507 C28.0185,11.5804 27.6909,11.7869 27.713,12.2394 C27.7313,12.6152 27.9606,12.8253 28.3266,12.8457 C28.7465,12.869 28.9824,12.6389 29.0588,12.2272 Z" id="Shape" fill="#12C77C"></path>
                <path d="M19.4405,53.8094 C18.5489,53.7309 17.7914,53.2583 17.2081,52.6814 C15.8597,51.3476 14.3299,50.2454 12.8623,49.0668 C12.222,48.5526 12.2155,48.2184 12.7366,47.6286 C13.6569,46.5871 14.5216,45.4936 15.3623,44.3859 C15.7362,43.8932 16.0169,43.8829 16.4788,44.2646 C18.2387,45.7187 20.0394,47.1237 21.795,48.583 C22.9287,49.5254 23.0115,50.4067 22.1344,51.55 C21.7008,52.1152 21.2339,52.6562 20.7606,53.1891 C20.4174,53.5756 19.9874,53.819 19.4405,53.8094 Z M16.481,49.9044 C16.46,51.1956 17.4657,52.2236 18.769,52.2433 C19.9586,52.2612 21.0299,51.2175 21.0667,50.0047 C21.1042,48.7678 20.0273,47.6827 18.757,47.6773 C17.521,47.6721 16.501,48.6703 16.481,49.9044 Z" id="Shape" fill="#EFEEF2"></path>
                <path d="M24.5637,25.1677 C22.953,25.1673 21.3421,25.1875 19.7318,25.1612 C18.3064,25.1379 17.3773,23.5834 17.977,22.2896 C18.1164,21.9889 18.3708,22.0273 18.6116,22.0271 C22.5845,22.0241 26.5575,22.0291 30.5304,22.0193 C30.9766,22.0182 31.1432,22.1657 31.1863,22.6308 C31.3609,24.5139 30.7846,25.1643 28.8588,25.1675 C27.4271,25.1701 25.9954,25.1681 24.5637,25.1677 Z" id="Shape" fill="#EFEEF2"></path>
                <path d="M32.5445,8.724 C27.1612,5.3437 21.8561,5.5271 16.5299,8.9199 C16.9635,6.504 20.5789,3.5915 24.0149,3.3908 C28.2675,3.1424 31.9905,6.2954 32.5445,8.724 Z" id="Shape" fill="#EFEEF2"></path>
                <path d="M24.6265,18.0451 C26.8073,18.0451 28.9884,18.0655 31.1687,18.0334 C31.8819,18.0229 32.1176,18.1629 31.899,18.9384 C31.326,20.9718 31.3593,20.9792 29.2481,20.98 C25.8561,20.9813 22.464,20.9901 19.072,20.9835 C18.6221,20.9826 18.0122,21.1605 17.7854,20.6926 C17.4319,19.9635 17.1677,19.1523 17.1765,18.3324 C17.181,17.9085 17.6861,18.0531 17.9799,18.0515 C20.1954,18.0398 22.411,18.0452 24.6265,18.0451 Z M30.6084,20.1987 C30.616,19.6983 30.1072,19.6421 29.8629,19.359 C28.8731,18.2116 28.4439,18.176 27.484,19.2491 C27.0343,19.7518 26.8332,19.5457 26.4882,19.1835 C25.6118,18.2634 25.1152,18.2441 24.2979,19.1824 C23.9145,19.6225 23.6952,19.6464 23.2838,19.2557 C22.2205,18.2457 21.8835,18.2418 20.944,19.2921 C20.5812,19.6976 20.4017,19.7247 20.0755,19.2849 C19.7399,18.8325 19.1838,18.1996 18.7081,18.6596 C18.0719,19.2748 19.071,19.469 19.358,19.8065 C20.2864,20.8981 20.7627,20.9229 21.653,19.8933 C22.0603,19.4223 22.2651,19.472 22.6413,19.8822 C23.5479,20.8705 24.0563,20.888 24.8876,19.9036 C25.2718,19.4486 25.4841,19.4467 25.8834,19.8631 C26.8438,20.8648 27.2371,20.8869 28.1466,19.912 C28.6037,19.422 28.8632,19.4663 29.2158,19.9666 C29.3976,20.2245 29.632,20.4694 29.9641,20.5461 C30.2664,20.6158 30.542,20.5944 30.6084,20.1987 Z" id="Shape" fill="#12C77C"></path>
                <path d="M26.8006,49.5283 C25.7642,49.5148 25.1873,48.9329 24.8787,48.1323 C24.4442,47.005 23.2103,46.0094 24.1824,44.601 C24.4338,44.2368 24.803,44.014 25.1858,43.8181 C27.1231,42.8268 29.0766,41.8661 30.9938,40.8375 C31.6314,40.4954 31.9697,40.4934 32.3033,41.2128 C32.9181,42.5384 33.6224,43.8227 34.2984,45.1196 C34.4772,45.4626 34.5903,45.7332 34.1227,45.9678 C31.859,47.1034 29.6082,48.2649 27.3468,49.4051 C27.1627,49.4979 26.9329,49.5001 26.8006,49.5283 Z M24.5439,46.3701 C24.4674,48.0392 26.178,49.0272 27.8204,48.2278 C29.0384,47.635 30.2352,46.9962 31.4217,46.3421 C32.5721,45.7079 32.7566,44.9043 32.1,43.6415 C31.4378,42.368 30.6825,42.0532 29.5039,42.6159 C28.2816,43.1995 27.0688,43.8051 25.8714,44.438 C25.108,44.8415 24.5889,45.4541 24.5439,46.3701 Z" id="Shape" fill="#EFEEF2"></path>
                <path d="M16.3978,72.9967 C15.1472,72.9965 13.8965,72.9904 12.6459,72.9988 C11.9048,73.0038 11.3576,72.7416 11.3316,71.9313 C11.3049,71.1003 11.9029,70.7681 12.6001,70.8024 C15.1358,70.9271 17.668,70.8094 20.2018,70.7939 C20.9645,70.7892 21.577,71.1283 21.5228,71.9924 C21.4729,72.7879 20.8871,73.0153 20.1497,73.0028 C18.8994,72.9816 17.6485,72.997 16.3978,72.9967 Z" id="Shape" fill="#EFEEF2"></path>
                <path d="M33.7265,73.0115 C32.4416,73.0115 31.1565,72.9959 29.8719,73.0176 C29.1543,73.0298 28.6501,72.743 28.6005,72.0233 C28.5452,71.2223 29.0863,70.8677 29.8269,70.8636 C32.4297,70.8492 35.0328,70.8483 37.6356,70.8658 C38.3347,70.8705 38.8314,71.2392 38.8069,71.9748 C38.7828,72.698 38.3113,73.0158 37.5809,73.0045 C36.2964,72.9846 35.0114,72.9989 33.7266,72.9989 C33.7265,73.003 33.7265,73.0072 33.7265,73.0115 Z" id="Shape" fill="#EFEEF2"></path>
                <path d="M11.515,47.6779 C11.0787,47.6521 9.1163,46.044 9.059,45.8532 C8.9842,45.6041 9.1472,45.4515 9.2793,45.288 C10.2662,44.0672 11.2643,42.8553 12.2368,41.6233 C12.5107,41.2763 12.6936,41.2416 13.0788,41.5163 C15.2575,43.07 15.2658,43.0559 13.6072,45.0878 C13.0205,45.8066 12.4432,46.5331 11.8552,47.2509 C11.7027,47.4373 11.5794,47.679 11.515,47.6779 Z" id="Shape" fill="#EFEEF2"></path>
                <path d="M38.1497,43.5558 C38.1761,43.8793 37.9781,43.9542 37.793,44.0739 C35.5907,45.4984 35.5332,45.4871 34.3571,43.1904 C33.9344,42.365 33.5637,41.5094 33.0889,40.7156 C32.726,40.1089 32.943,39.8498 33.4758,39.5611 C35.5601,38.4318 35.5511,38.4213 36.6271,40.5513 C37.045,41.3786 37.4789,42.1977 37.9019,43.0224 C37.9993,43.2122 38.0821,43.4095 38.1497,43.5558 Z" id="Shape" fill="#F7F6F8"></path>
                <path d="M29.0445,17.1484 C31.4276,14.7799 31.9628,12.1859 31.1695,9.266 C33.022,9.6793 33.8232,11.0886 33.3573,13.0332 C33.0917,14.1414 32.792,15.2415 32.5264,16.3497 C32.3955,16.8959 32.1754,17.2255 31.5168,17.1633 C30.8156,17.0971 30.1033,17.1484 29.0445,17.1484 Z" id="Shape" fill="#EFEEF2"></path>
                <path d="M17.7303,9.3974 C16.9263,12.4166 17.6442,14.869 19.856,17.1449 C18.8245,17.1449 18.0277,17.1313 17.2318,17.1505 C16.8122,17.1606 16.7992,16.8521 16.7299,16.5877 C16.3769,15.2418 16.0153,13.8978 15.6883,12.5454 C15.3017,10.9465 16.3941,10.2345 17.7303,9.3974 Z" id="Shape" fill="#EFEEF2"></path>
                <path d="M7.664,37.7884 C8.2989,37.7887 8.7327,38.0363 9.1295,38.3483 C9.8595,38.9222 10.5592,39.5362 11.3053,40.0877 C11.744,40.4119 11.8505,40.7079 11.4569,41.1193 C11.3831,41.1965 11.3209,41.2849 11.2541,41.3687 C10.3265,42.5319 10.3243,42.5347 9.1649,41.6061 C8.4123,41.0033 7.642,40.4186 6.9308,39.7697 C6.6316,39.4967 5.9164,39.3831 6.2076,38.7738 C6.4954,38.1714 7.0793,37.8517 7.664,37.7884 Z" id="Shape" fill="#EFEEF2"></path>
                <path d="M43.4782,40.0906 C43.4471,40.8392 43.0321,41.3465 42.4121,41.6937 C41.731,42.0751 40.9932,42.3651 40.345,42.7933 C39.4558,43.3807 38.9967,43.2466 38.5223,42.2354 C38.1181,41.3739 38.1111,40.9667 39.0487,40.5834 C40.0631,40.1687 41.0137,39.5977 41.9912,39.0931 C42.9938,38.5753 43.5017,38.9153 43.4782,40.0906 Z" id="Shape" fill="#EFEEF2"></path>
                <path d="M40.4609,36.1228 C41.0645,36.172 41.5303,36.3343 41.8994,36.7063 C42.5823,37.3947 42.5248,37.7517 41.6615,38.1996 C40.584,38.7586 39.4702,39.2566 38.4343,39.8839 C37.6988,40.3293 37.3693,40.1176 37.1093,39.4101 C36.9996,39.1117 36.8091,38.8437 36.6636,38.5577 C36.5617,38.3573 36.4881,38.0962 36.7046,37.9748 C37.9454,37.2795 39.1718,36.5487 40.4609,36.1228 Z" id="Shape" fill="#EFEEF2"></path>
                <path d="M5.7754,39.9266 C5.6311,39.9231 9.5336,43.0069 9.5166,43.1798 C9.4411,43.9454 8.7861,44.354 8.3632,44.8952 C8.031,45.3203 7.7447,44.88 7.4852,44.6737 C6.7321,44.0749 5.9554,43.5011 5.2432,42.8565 C4.4013,42.0945 4.321,41.072 4.9648,40.2742 C5.0955,40.1122 5.2002,39.9069 5.7754,39.9266 Z" id="Shape" fill="#EFEEF2"></path>
                <path d="M36.3289,52.3241 C36.3289,52.3953 36.3289,52.4664 36.3289,52.5376 C36.3288,54.2209 35.9605,54.4991 34.2482,54.1791 C33.8897,54.1121 33.7619,53.9501 33.763,53.6214 C33.7652,52.981 33.7435,52.3396 33.7731,51.7006 C33.8331,50.4066 34.7901,50.6227 35.6331,50.5953 C36.6572,50.562 36.243,51.3129 36.3241,51.7912 C36.3535,51.9641 36.3289,52.1462 36.3289,52.3241 Z" id="Shape" fill="#EFEEF2"></path>
                <path d="M17.1233,67.8509 C17.1239,68.1731 17.0813,68.5022 17.132,68.8162 C17.2729,69.689 16.8887,69.8615 16.0737,69.875 C15.1749,69.8898 14.852,69.6232 14.9653,68.7311 C15.0324,68.2026 14.9772,67.6586 14.9776,67.1216 C14.9786,65.8485 15.5237,65.4581 16.7524,65.8022 C17.0792,65.8937 17.1223,66.0829 17.1226,66.3472 C17.123,66.8484 17.1227,67.3496 17.1233,67.8509 Z" id="Shape" fill="#EFEEF2"></path>
                <path d="M35.1606,67.8746 C35.1606,68.0885 35.1607,68.3023 35.1606,68.5162 C35.1603,69.8182 34.6341,70.1959 33.364,69.855 C32.9768,69.7511 32.9779,69.4998 32.9776,69.2097 C32.9766,68.3186 32.9902,67.4273 32.9735,66.5366 C32.9531,65.447 33.7731,65.913 34.278,65.8294 C34.8447,65.7355 35.2658,65.8443 35.1703,66.5928 C35.1165,67.0136 35.1606,67.4469 35.1606,67.8746 Z" id="Shape" fill="#EFEEF2"></path>
                <path d="M19.9929,29.5065 C20.2066,29.5064 20.4202,29.5064 20.6339,29.5064 C22.5342,29.5064 22.5161,29.4972 21.6404,31.2248 C21.4075,31.6843 21.207,31.7545 20.747,31.5377 C19.9422,31.1583 19.0948,30.8772 18.1899,30.8407 C17.7102,30.8214 17.4888,30.5901 17.4932,30.0995 C17.4983,29.5318 17.854,29.4945 18.2836,29.5036 C18.8532,29.5157 19.4232,29.5066 19.9929,29.5065 Z" id="Shape" fill="#EFEEF2"></path>
                <path d="M26.9801,55.1257 C26.2896,55.6304 25.7985,56.1395 25.5863,56.9419 C24.9883,56.4638 24.4488,56.0037 23.8791,55.5846 C23.2356,55.1112 23.1203,54.6484 23.6537,53.9738 C24.1904,53.2949 24.6722,53.1668 25.3336,53.7713 C25.8338,54.2286 26.3801,54.6357 26.9801,55.1257 Z" id="Shape" fill="#EFEEF2"></path>
                <path d="M13.7933,56.6416 C13.7933,55.0743 13.7938,55.0962 15.0796,55.0652 C15.8534,55.0465 16.4693,55.0233 16.393,56.1355 C16.297,57.5342 15.9238,57.9885 14.6772,58.0467 C13.3844,58.107 13.9177,57.1645 13.7933,56.6416 Z" id="Shape" fill="#EFEEF2"></path>
                <path d="M36.3535,56.6698 C36.117,57.1382 36.8285,58.0988 35.5582,58.0851 C34.346,58.072 33.7951,57.6515 33.7751,56.4967 C33.7676,56.0658 33.5042,55.4094 34.0081,55.24 C34.6599,55.0208 35.4622,54.9787 36.0944,55.2598 C36.5982,55.4837 36.2286,56.1672 36.3535,56.6698 Z" id="Shape" fill="#EFEEF2"></path>
                <path d="M35.199,12.9835 C35.199,13.5885 35.2122,14.1939 35.1945,14.7983 C35.1821,15.2204 35.0065,15.5626 34.5627,15.6802 C34.3253,15.7431 34.058,15.8261 33.8404,15.6665 C33.5774,15.4735 33.7561,15.2052 33.8065,14.9795 C34.114,13.6014 34.7123,12.273 34.4969,10.8068 C34.4713,10.6325 34.4887,10.401 34.7244,10.42 C34.9431,10.4376 35.1177,10.6288 35.1352,10.8543 C35.1901,11.5623 35.2153,12.2726 35.252,12.982 C35.2342,12.9824 35.2166,12.9829 35.199,12.9835 Z" id="Shape" fill="#EFEEF2"></path>
                <path d="M14.7083,10.2942 C14.4227,12.056 14.9885,13.559 15.3672,15.0935 C15.5414,15.7994 15.1411,15.8138 14.6623,15.6885 C14.1323,15.5497 13.9484,15.1284 13.9437,14.6245 C13.9338,13.5521 13.9355,12.4794 13.9411,11.4069 C13.9435,10.9648 14.0617,10.5813 14.7083,10.2942 Z" id="Shape" fill="#EFEEF2"></path>
                <path d="M33.9507,64.7295 C33.4508,64.7309 32.951,64.7319 32.4511,64.7306 C32.0489,64.7296 31.7419,64.6006 31.726,64.1365 C31.7128,63.7504 31.9442,63.4905 32.2937,63.481 C33.4309,63.4502 34.5699,63.4557 35.7074,63.4841 C36.0716,63.4932 36.2865,63.7584 36.2784,64.1347 C36.2686,64.5955 35.9654,64.7308 35.5574,64.7287 C35.0219,64.726 34.4863,64.7281 33.9507,64.7295 Z" id="Shape" fill="#EFEEF2"></path>
                <path d="M16.0512,64.7046 C15.5871,64.705 15.1229,64.6965 14.659,64.7074 C14.2116,64.7179 13.8739,64.5984 13.8554,64.0798 C13.8392,63.6249 14.1551,63.41 14.5281,63.3982 C15.5957,63.3646 16.6659,63.3656 17.7332,63.4034 C18.1176,63.417 18.4136,63.6812 18.3878,64.1096 C18.3622,64.5352 18.0827,64.7167 17.6574,64.7071 C17.1224,64.695 16.5867,64.7042 16.0512,64.7046 Z" id="Shape" fill="#EFEEF2"></path>
                <path d="M13.7583,52.7061 C13.8675,52.1866 13.5742,51.5902 13.9544,51.4068 C14.3979,51.1929 14.6907,51.8121 15.0758,52.023 C15.1371,52.0566 15.1917,52.1057 15.2425,52.1548 C15.7315,52.6262 16.6681,52.964 16.3026,53.7918 C15.9817,54.5186 15.0979,54.0967 14.4766,54.1079 C13.2031,54.1308 14.139,53.052 13.7583,52.7061 Z" id="Shape" fill="#EFEEF2"></path>
                <path d="M27.6366,56.0688 C28.4261,56.0719 28.858,56.4053 28.8767,57.149 C28.8962,57.9238 28.4804,58.3672 27.7189,58.3712 C27.005,58.375 26.5929,57.9311 26.5834,57.2293 C26.5737,56.5173 26.997,56.1334 27.6366,56.0688 Z" id="Shape" fill="#12C77C"></path>
                <path d="M36.3299,48.5692 C36.2792,49.0218 36.5383,49.634 35.6348,49.6529 C34.8362,49.6696 34.5906,49.4558 34.9656,48.7119 C35.0446,48.5551 35.0732,48.3628 35.1803,48.2323 C35.4485,47.9054 35.2968,47.1059 35.8772,47.2405 C36.3817,47.3576 36.3206,48.047 36.3299,48.5692 Z" id="Shape" fill="#EFEEF2"></path>
                <path d="M34.4079,59.084 C34.9163,59.1642 35.2186,59.4067 35.1909,59.9394 C35.1627,60.4818 34.8292,60.6949 34.3343,60.6707 C33.8652,60.6478 33.6188,60.3532 33.6218,59.8975 C33.6252,59.3847 33.935,59.1321 34.4079,59.084 Z" id="Shape" fill="#EFEEF2"></path>
                <path d="M15.7441,59.0381 C16.2221,59.1216 16.5385,59.3678 16.5169,59.878 C16.4957,60.3779 16.1932,60.6587 15.6961,60.6461 C15.1922,60.6333 14.9089,60.312 14.9245,59.8273 C14.94,59.3418 15.2529,59.0741 15.7441,59.0381 Z" id="Shape" fill="#EFEEF2"></path>
                <path d="M32.815,54.0074 C32.7464,53.9632 32.6778,53.9189 32.6104,53.8718 C32.658,53.8418 32.7219,53.7807 32.7475,53.7939 C32.8281,53.8354 32.908,53.9007 32.815,54.0074 Z" id="Shape" fill="#12C77C"></path>
                <path d="M27.9027,9.7334 C27.8862,10.5815 27.0865,11.3895 26.2497,11.4037 C25.4155,11.4178 24.5722,10.6032 24.5611,9.7726 C24.5497,8.9216 25.3464,8.1271 26.2107,8.1273 C27.0842,8.1274 27.9186,8.9194 27.9027,9.7334 Z" id="Shape" fill="#F7F6F8"></path>
                <path d="M29.0588,12.2272 C28.9824,12.6389 28.7465,12.869 28.3266,12.8457 C27.9606,12.8253 27.7313,12.6152 27.713,12.2394 C27.6909,11.787 28.0185,11.5804 28.3799,11.5507 C28.8004,11.5162 28.9816,11.8493 29.0588,12.2272 Z" id="Shape" fill="#EFEEF2"></path>
                <path d="M16.481,49.9044 C16.501,48.6702 17.5211,47.6721 18.7569,47.6773 C20.0273,47.6827 21.1042,48.7678 21.0666,50.0047 C21.0298,51.2175 19.9585,52.2612 18.7689,52.2433 C17.4657,52.2236 16.46,51.1956 16.481,49.9044 Z M20.0968,50.0076 C20.1234,49.3108 19.4404,48.5639 18.7562,48.6088 C17.9712,48.6604 17.5048,49.1151 17.4512,49.9065 C17.3949,50.7377 17.8965,51.1752 18.6486,51.287 C19.3485,51.391 20.0701,50.7068 20.0968,50.0076 Z" id="Shape" fill="#2D1950"></path>
                <path d="M30.6084,20.1987 C30.542,20.5944 30.2664,20.6159 29.964,20.546 C29.6319,20.4693 29.3975,20.2244 29.2157,19.9665 C28.8631,19.4662 28.6036,19.4219 28.1465,19.9119 C27.237,20.8868 26.8436,20.8647 25.8833,19.863 C25.484,19.4465 25.2717,19.4485 24.8875,19.9035 C24.0563,20.8879 23.5478,20.8704 22.6412,19.8821 C22.265,19.472 22.0602,19.4222 21.6529,19.8932 C20.7625,20.9228 20.2863,20.898 19.3579,19.8064 C19.0709,19.4689 18.0718,19.2748 18.708,18.6595 C19.1837,18.1995 19.7399,18.8324 20.0754,19.2848 C20.4016,19.7246 20.5811,19.6975 20.9439,19.292 C21.8834,18.2417 22.2204,18.2455 23.2837,19.2556 C23.6951,19.6464 23.9144,19.6224 24.2978,19.1823 C25.1151,18.244 25.6118,18.2633 26.4881,19.1834 C26.8331,19.5456 27.0342,19.7517 27.4839,19.249 C28.4438,18.1759 28.873,18.2115 29.8628,19.3589 C30.1072,19.6421 30.616,19.6983 30.6084,20.1987 Z" id="Shape" fill="#2D1950"></path>
                <path d="M24.5439,46.3701 C24.5889,45.4541 25.108,44.8415 25.8714,44.438 C27.0688,43.8051 28.2816,43.1995 29.5039,42.6159 C30.6825,42.0532 31.4378,42.368 32.1,43.6415 C32.7566,44.9043 32.5721,45.7079 31.4217,46.3421 C30.2352,46.9962 29.0384,47.635 27.8204,48.2278 C26.178,49.0272 24.4675,48.0392 24.5439,46.3701 Z M30.3282,43.2601 C29.6109,43.632 28.8203,44.0347 28.0386,44.454 C27.9016,44.5275 27.9225,44.6734 27.9746,44.8275 C28.5139,46.4246 28.9033,46.5834 30.4119,45.8026 C30.6334,45.688 30.859,45.5801 31.0743,45.4548 C31.4738,45.2224 31.5987,44.8664 31.423,44.4508 C31.2192,43.9686 31.0593,43.4272 30.3282,43.2601 Z M26.7046,45.3059 C25.8738,45.2943 25.5151,45.7728 25.4772,46.4359 C25.4353,47.1705 25.9482,47.5789 26.6235,47.5837 C27.2983,47.5885 27.7747,47.2017 27.7876,46.4502 C27.8009,45.6833 27.3154,45.3956 26.7046,45.3059 Z" id="Shape" fill="#2D1950"></path>
                <path d="M20.0968,50.0076 C20.0701,50.7068 19.3485,51.391 18.6485,51.287 C17.8965,51.1752 17.3948,50.7377 17.4511,49.9065 C17.5047,49.1151 17.9711,48.6604 18.7561,48.6088 C19.4404,48.5639 20.1234,49.3107 20.0968,50.0076 Z" id="Shape" fill="#12C77C"></path>
                <path d="M30.3282,43.2601 C31.0593,43.4272 31.2192,43.9686 31.4231,44.4508 C31.5988,44.8663 31.4739,45.2224 31.0744,45.4548 C30.859,45.5801 30.6335,45.6879 30.412,45.8026 C28.9034,46.5834 28.514,46.4247 27.9747,44.8275 C27.9227,44.6734 27.9018,44.5275 28.0387,44.454 C28.8203,44.0347 29.6108,43.632 30.3282,43.2601 Z" id="Shape" fill="#EFEEF2"></path>
                <path d="M26.7046,45.3059 C27.3154,45.3956 27.8009,45.6834 27.7877,46.4501 C27.7748,47.2016 27.2984,47.5884 26.6236,47.5836 C25.9482,47.5788 25.4353,47.1705 25.4773,46.4358 C25.5151,45.7728 25.8738,45.2943 26.7046,45.3059 Z" id="Shape" fill="#12C77C"></path>
            </g>
        </g>
    </g>
</svg>