<svg id="Layer_2" data-name="Layer 2" xmlns="http://www.w3.org/2000/svg" xmlns:xlink="http://www.w3.org/1999/xlink" viewBox="0 0 1200 1200"><defs><style>.cls-1{fill:none;}.cls-2{clip-path:url(#clip-path);}.cls-3{fill:#bcecf9;}.cls-12,.cls-3,.cls-4,.cls-5,.cls-6,.cls-7,.cls-8,.cls-9{fill-rule:evenodd;}.cls-4{fill:#8ee4f6;}.cls-15,.cls-5{fill:#04752f;}.cls-6{fill:#dbf1f9;}.cls-7{fill:#15b338;}.cls-8{fill:#9dd014;}.cls-9{fill:#148f37;}.cls-10{fill:#fff;}.cls-11{fill:#c3d9e1;}.cls-12{fill:#dd1c20;}.cls-13{fill:#00a6dc;}.cls-14{fill:#302d2e;}.cls-16{opacity:0.13;isolation:isolate;}.cls-17{fill:#15003e;}</style><clipPath id="clip-path"><polygon class="cls-1" points="164.33 352.23 592.65 101.18 1021.26 352.25 1021.26 854.32 592.67 1100.41 164.33 854.3 164.33 352.23"/></clipPath></defs><title>Bot creative</title><g class="cls-2"><path class="cls-3" d="M577.84,1145.89c311.27,0,565-253.75,565-565s-253.74-565-565-565c-311,0-564.71,253.74-564.71,565s253.75,565,564.71,565Z"/><path class="cls-4" d="M1004.79,950.92c-5.29,5.9-10.58,12.12-16.17,17.72V969l-2.8,2.8c-6.53,6.84-13.06,13.37-19.9,19.9l-3.11-7.77c-134-7.47-360.72-16.17-360.72-16.17L136.58,387.46l142.73-17.73,10-90.18,493.49,500,137.76,106-151.44-352,69.65-8.71L606.13,235.08,717.77,221.4l7.77-70.59,385.59,390.57L1142.85,566v14.92A573.12,573.12,0,0,1,1131.35,695h0a564.45,564.45,0,0,1-126.56,255.92Z"/><path class="cls-5" d="M864.85,866.33a49,49,0,0,0-3.11,16.8c0,26.43,21.77,47.88,48.2,47.88a47.88,47.88,0,0,0,43.54-28,48,48,0,1,0,32-83.65h-1.25c0-1.87.31-3.42.31-5.29a48,48,0,0,0-48.2-47.89,50.3,50.3,0,0,0-13.68,1.87c-6.84-13.68-19-22.7-33-22.7-21.14,0-38.56,21.46-38.56,47.89a57.06,57.06,0,0,0,5.91,25.5A50.11,50.11,0,0,0,854,835.55a48.2,48.2,0,0,0,10.88,30.78Z"/><path class="cls-5" d="M283.67,866.33a42.48,42.48,0,0,1,3.11,16.8A48.07,48.07,0,0,1,195,903a46.8,46.8,0,0,1-32,12.44c-26.44,0-47.89-21.77-47.89-48.2A47.91,47.91,0,0,1,163,819.38h1.55a30.3,30.3,0,0,1-.31-5.29,47.91,47.91,0,0,1,47.89-47.89,50.25,50.25,0,0,1,13.68,1.87c6.84-13.68,19-22.7,33-22.7,21.46,0,38.56,21.46,38.56,47.89a56.92,56.92,0,0,1-5.6,25.5,49.93,49.93,0,0,1,2.8,16.79,48.2,48.2,0,0,1-10.88,30.78Z"/><path class="cls-6" d="M886.62,616.94c-17.72,0-32-15.23-32-34.2,0-17.73,12.75-32.34,28.92-33.9,0-1.24-.31-2.17-.31-3.11,0-14.61,11.2-26.43,25.19-26.43a27.12,27.12,0,0,1,11.19,2.8c5.29-20.83,25.5-36.07,49.76-36.07,27.67,0,50.37,20.52,51,46.33,24.26,2.18,43.23,21.15,43.23,44.16,0,19.59-13.68,36.38-32.65,42.29h-29.86Z"/><path class="cls-7" d="M1048.94,892.77c-101.06,152.37-274.26,253.12-471.1,253.12-196.53,0-369.74-100.75-471.11-253.12Z"/><path class="cls-6" d="M160.53,398.34c-18.35,0-33.59-16.17-33.59-35.76,0-18.66,13.38-33.9,30.48-35.76a10.65,10.65,0,0,1-.31-3.11c0-15.24,11.81-27.68,26.12-27.68A24.79,24.79,0,0,1,195,299.14c5.91-22.08,27.06-38.25,52.25-38.25,29.23,0,52.86,21.77,53.79,48.82,25.19,2.18,45.09,22.08,45.09,46.34,0,20.52-14.3,38.25-34.2,44.15H280.56Z"/><path class="cls-8" d="M219.61,944.7a6.12,6.12,0,0,0,5.91-5.91,5.91,5.91,0,0,0-5.91-5.91,6,6,0,0,0-6.22,5.91,6.18,6.18,0,0,0,6.22,5.91Z"/><path class="cls-8" d="M254.44,990.72a5.91,5.91,0,0,0,5.91-5.91,5.72,5.72,0,0,0-5.91-5.91,5.91,5.91,0,0,0-5.91,5.91,6.12,6.12,0,0,0,5.91,5.91Z"/><path class="cls-9" d="M304.19,948.74a5.72,5.72,0,0,0,5.91-5.91,5.91,5.91,0,0,0-5.91-5.91,6.12,6.12,0,0,0-5.91,5.91,5.91,5.91,0,0,0,5.91,5.91Z"/><path class="cls-8" d="M319.12,1033.94A5.91,5.91,0,0,0,325,1028a6.11,6.11,0,0,0-5.91-5.9,5.9,5.9,0,0,0-5.91,5.9,5.72,5.72,0,0,0,5.91,5.91Z"/><path class="cls-8" d="M373.54,993.52a6.11,6.11,0,0,0,5.9-5.91,6.18,6.18,0,0,0-5.9-6.22,6,6,0,0,0-5.91,6.22,5.91,5.91,0,0,0,5.91,5.91Z"/><path class="cls-9" d="M400.28,1078.1a5.72,5.72,0,0,0,5.91-5.91,5.91,5.91,0,0,0-5.91-5.91,6.12,6.12,0,0,0-5.91,5.91,5.91,5.91,0,0,0,5.91,5.91Z"/><path class="cls-9" d="M444.75,1003.47a5.9,5.9,0,0,0,5.9-5.91,6.11,6.11,0,0,0-5.9-5.91,5.91,5.91,0,0,0-5.91,5.91,5.72,5.72,0,0,0,5.91,5.91Z"/><path class="cls-9" d="M417.69,947.18a6.11,6.11,0,0,0,5.91-5.9,5.91,5.91,0,0,0-5.91-5.91,5.72,5.72,0,0,0-5.91,5.91,5.9,5.9,0,0,0,5.91,5.9Z"/><path class="cls-9" d="M521.55,1002.54a6.12,6.12,0,0,0,5.91-5.91,5.91,5.91,0,0,0-5.91-5.91,5.71,5.71,0,0,0-5.9,5.91,5.9,5.9,0,0,0,5.9,5.91Z"/><path class="cls-8" d="M499.16,953.71a5.71,5.71,0,0,0,5.91-5.9,5.91,5.91,0,0,0-5.91-5.91,6.11,6.11,0,0,0-5.9,5.91,5.89,5.89,0,0,0,5.9,5.9Z"/><path class="cls-9" d="M508.18,1095.2a5.72,5.72,0,0,0,5.91-5.91,5.91,5.91,0,0,0-5.91-5.91,6.12,6.12,0,0,0-5.91,5.91,5.91,5.91,0,0,0,5.91,5.91Z"/><path class="cls-9" d="M670.81,1100.49a6,6,0,0,0,6.22-5.91,6.18,6.18,0,0,0-6.22-5.91,6.11,6.11,0,0,0-5.9,5.91,5.9,5.9,0,0,0,5.9,5.91Z"/><path class="cls-9" d="M609.87,1029.28a5.71,5.71,0,0,0,5.9-5.91,5.9,5.9,0,0,0-5.9-5.91,6.12,6.12,0,0,0-5.91,5.91,5.91,5.91,0,0,0,5.91,5.91Z"/><path class="cls-9" d="M689.16,943.45a5.91,5.91,0,0,0,5.91-5.91,6.11,6.11,0,0,0-5.91-5.9,6.18,6.18,0,0,0-6.22,5.9,6,6,0,0,0,6.22,5.91Z"/><path class="cls-9" d="M736.43,1055.4a5.91,5.91,0,0,0,5.91-5.91,5.72,5.72,0,0,0-5.91-5.91,5.91,5.91,0,0,0-5.91,5.91,6.12,6.12,0,0,0,5.91,5.91Z"/><path class="cls-9" d="M837.18,980.77a5.91,5.91,0,0,0,5.91-5.91,6.12,6.12,0,0,0-5.91-5.91,5.91,5.91,0,0,0-5.91,5.91,5.72,5.72,0,0,0,5.91,5.91Z"/><path class="cls-9" d="M935.44,933.5a6.12,6.12,0,0,0,5.91-5.91,6.18,6.18,0,0,0-5.91-6.22,6,6,0,0,0-5.91,6.22,5.91,5.91,0,0,0,5.91,5.91Z"/><path class="cls-8" d="M602.09,967.71a6.18,6.18,0,0,0,5.91-6.22,6.12,6.12,0,0,0-5.91-5.91,5.91,5.91,0,0,0-5.91,5.91,6,6,0,0,0,5.91,6.22Z"/><path class="cls-8" d="M579.39,1102.66a5.9,5.9,0,0,0,5.91-5.9,5.72,5.72,0,0,0-5.91-5.91,5.91,5.91,0,0,0-5.91,5.91,6.11,6.11,0,0,0,5.91,5.9Z"/><path class="cls-8" d="M701.6,1017.77a5.91,5.91,0,0,0,5.91-5.91,6.11,6.11,0,0,0-5.91-5.9,6.18,6.18,0,0,0-6.22,5.9,6,6,0,0,0,6.22,5.91Z"/><path class="cls-8" d="M773.74,953.4a5.71,5.71,0,0,0,5.91-5.9,5.91,5.91,0,0,0-5.91-5.91,6.12,6.12,0,0,0-5.91,5.91,5.9,5.9,0,0,0,5.91,5.9Z"/><path class="cls-8" d="M821.32,1049.49a6.12,6.12,0,0,0,5.91-5.91,5.91,5.91,0,0,0-5.91-5.91,5.72,5.72,0,0,0-5.91,5.91,5.91,5.91,0,0,0,5.91,5.91Z"/><path class="cls-8" d="M937.62,982.94a6.11,6.11,0,0,0,5.91-5.9,6.18,6.18,0,0,0-5.91-6.22,6,6,0,0,0-5.91,6.22,5.9,5.9,0,0,0,5.91,5.9Z"/><path class="cls-8" d="M880.09,941a5.9,5.9,0,0,0,5.91-5.9,6.12,6.12,0,0,0-5.91-5.91,5.91,5.91,0,0,0-5.91,5.91,5.71,5.71,0,0,0,5.91,5.9Z"/><path class="cls-8" d="M543.94,1050.42a5.91,5.91,0,0,0,5.91-5.91,5.71,5.71,0,0,0-5.91-5.9,5.9,5.9,0,0,0-5.91,5.9,6.12,6.12,0,0,0,5.91,5.91Z"/><path class="cls-8" d="M444.75,1046.38a6.11,6.11,0,0,0,5.9-5.91,5.9,5.9,0,0,0-5.9-5.91,5.72,5.72,0,0,0-5.91,5.91,5.91,5.91,0,0,0,5.91,5.91Z"/><rect class="cls-10" x="447.54" y="376.88" width="260.59" height="514.95"/><rect class="cls-11" x="470.87" y="400.83" width="213.94" height="467.06"/><polygon class="cls-12" points="555.45 435.65 600.23 435.65 600.23 467.68 631.94 467.68 631.94 512.46 600.23 512.46 600.23 544.49 555.45 544.49 555.45 512.46 523.42 512.46 523.42 467.68 555.45 467.68 555.45 435.65"/><rect class="cls-13" x="511.91" y="665.45" width="131.85" height="226.38"/><rect class="cls-11" x="491.39" y="864.78" width="174.45" height="14.3"/><rect class="cls-13" x="491.39" y="879.08" width="174.45" height="14.62"/><rect class="cls-11" x="491.39" y="893.7" width="174.45" height="14.3"/><rect class="cls-11" x="259.72" y="448.71" width="187.82" height="443.12"/><rect class="cls-10" x="259.72" y="479.5" width="187.82" height="65.61"/><rect class="cls-13" x="283.98" y="568.43" width="33.89" height="89.25"/><rect class="cls-13" x="339.02" y="568.43" width="33.89" height="89.25"/><rect class="cls-13" x="394.06" y="568.43" width="33.89" height="89.25"/><rect class="cls-13" x="283.98" y="690.02" width="33.89" height="89.56"/><rect class="cls-13" x="339.02" y="690.02" width="33.89" height="89.56"/><rect class="cls-13" x="394.06" y="690.02" width="33.89" height="89.56"/><rect class="cls-10" x="259.72" y="801.97" width="187.82" height="65.61"/><rect class="cls-11" x="708.44" y="448.71" width="187.82" height="443.12"/><rect class="cls-10" x="708.44" y="479.5" width="187.82" height="65.61"/><rect class="cls-13" x="837.8" y="568.43" width="34.21" height="89.25"/><rect class="cls-13" x="782.76" y="568.43" width="34.21" height="89.25"/><rect class="cls-13" x="727.72" y="568.43" width="34.21" height="89.25"/><rect class="cls-13" x="837.8" y="690.02" width="34.21" height="89.56"/><rect class="cls-13" x="782.76" y="690.02" width="34.21" height="89.56"/><rect class="cls-13" x="727.72" y="690.02" width="34.21" height="89.56"/><rect class="cls-10" x="708.44" y="801.97" width="187.82" height="65.61"/><rect class="cls-14" x="424.84" y="634.36" width="305.67" height="45.09"/><path class="cls-6" d="M616.71,235.4c-14.62,0-26.43-12.75-26.43-28.3,0-14.62,10.26-26.74,23.94-28a8.61,8.61,0,0,1-.31-2.8c0-11.81,9.33-21.45,20.52-21.45a18.84,18.84,0,0,1,9.33,2.17c4.67-17.1,21.15-30.16,41.36-30.16,23,0,41.67,17.41,42.29,38.56,19.9,1.86,35.45,17.41,35.45,36.69,0,16.17-11.2,29.85-27.05,34.83H711.24Z"/></g><path class="cls-15" d="M592.85,5.94,77.7,303.33V898.12l515.15,297.39L1107.9,898.12V303.33Zm427.89,841.63-428,246.8L164.86,847.55V353.91l427.8-246.84,428.08,246.86Z"/><g id="Layer_2-2" data-name="Layer 2-2"><g id="Layer_16" data-name="Layer 16"><path class="cls-16" d="M972.72,326.22l-5-2.79-6.69-3.9-7.16-4.19-1-.55-4.56-2.61-4.74-2.73-8.36-4.83-67.4-38.85L852,256.66l-6.69-3.9-4.18-2.41-4.55-2.7-.47-.19-3.9-2.32-3.82-2.23-49.56-28.53L597.62,110l-5-2.89-4.38,2.51-159,91.83-46.65,27-12.08,6.94-5,2.87-.93.47h-.09l-2.3,1.43-3.9,2.32L355.6,244l-2.51,1.49-1.67.92-13.94,8.09h-.05L320.89,264l-.1.1-5.39,3.16-7.06,4-.09.09-.29.19-30.2,17.38h-.09l-22.12,12.73L246.23,307l-27.75,16-39.32,22.67-14.31,8.27V847.55l.65.36,16,9.3,6.94,4,1.39.74L230,885.15l6.41,3.63,5,2.88,17.47,10.13,14.78,8.55,4.27,2.42L290,919.7l31.45,18.2,50,28.81,6.42,3.72.65.37,1.39.74,1,.65,1.67.93.38.19,17.74,10.31,8.18,4.65,12.36,7.25,8.28,4.74,1.68.93,2.87,1.67,1.77,1,4.46,2.6,33.18,19,.84.47,4.08,2.42,5.77,3.35,6.69,3.89h.09l5,2.8,14,8.08,29.46,17.1,41.64,24,9.57,5.59,2.15,1.2.17-.09,1.77-1,1.31-.74.27-.18,2.88-1.67,16.85-9.58.84-.46,6.42-3.72,4.65-2.7,2.23-1.3,35.77-20.62,22.8-13.11,6.88-4,6.14-3.53,6.22-3.62,4.1-2.42,21.59-12.44,3.62-2h.09l2.14-1.3,2-1.12,5.85-3.34,7.43-4.27,11.72-6.79,4.27-2.51h.09l4.28-2.51.09-.09,2.33-1.3,5-2.88,3.44-2,3.26-2,5.1-2.89,2-1.21,3-1.66,4-2.23.19-.1.47-.28L805,972l2.23-1.21,35.13-20.26,3.53-2,10.32-6,27.59-15.86,14.51-8.36,28.35-16.36,17.56-10.13,33.3-19.27h.09l.55-.38,24.64-14.21,8.36-4.84,9.57-5.48V353.93Zm30.67,511.47-4.83,2.79-3,1.67-5.38,3.16L919.65,886l-10,5.76-17.57,10.08L876.25,911l-29,16.73-11.9,6.88-6.69,3.8-27.23,15.71-.65.46-1.49.84-1.68,1-5.29,3-8.28,4.74-2,1.21-.49.34L774,970l-.84.46L736.82,991.4l-.75.46L728.74,996l-.74.47-8.46,5-20,11.51-14.3,8.18-15.61,9L659.42,1036l-27.58,16-11.43,6.6-.56.38h-.18l-6.94,4.08-2.6,1.4-17.38,10L560.69,1056l-11.43-6.6-5.67-3.25-16.85-9.76-6.7-3.81-6.41-3.72-48.92-28.16-7.16-4.18-.45-.28-16.65-9.57-19.14-11L413,970.91l-5.4-3.16-2.32-1.39-4-2.32-2-1.12L383,953.53l-2.89-1.68-1.76-1-13.94-8.08-31.79-18.3-36.33-21-2.79-1.58-13.59-7.83-4-2.33-27.75-16-45.6-26.4-8.36-4.74-3.63-2.14-2.14-1.21-6.22-3.62V364l36.21-21,27.75-16,8.65-5H255l.56-.37,29.74-17.19h.09L298,297h.1l16.63-9.57,11.62-6.69,4-2.32h.09l7.07-4.08,4.27-2.52h.1l27.7-16c.09-.1.09-.1.18-.1l7.25-4.18,3.25-1.86,1.86-1.12,2.69-1.57,1.59-.94,2.51-1.38.36-.19,74.65-43.12,124.44-71.84,4.38-2.51,4.95,2.88,156.42,90.2,64.87,37.46.46.28,3,1.68,1,.55,4.09,2.42,3.25,1.85,11.43,6.6,18,10.41,65.25,37.55,13.1,7.52,5.11,3,.38.28,7.15,4.09,1.77,1,5,2.89,5,2.87L1003.39,364V837.69Z"/></g></g><path class="cls-17" d="M723.88,1071.46l14.55-8.35.67,1.14a28.46,28.46,0,0,1,3.12,7.57,17.41,17.41,0,0,1-.05,7.08,18.44,18.44,0,0,1-9.29,12.69,19.85,19.85,0,0,1-15.73,2,21.18,21.18,0,0,1-4.83-38.87A20.84,20.84,0,0,1,721,1052a25.76,25.76,0,0,1,9.91,1.57l-1.72,5.82q-7.63-3.27-13.87.3a14.46,14.46,0,0,0-7.16,9.26,14.83,14.83,0,0,0,1.68,11.66,14.28,14.28,0,0,0,9.78,7.26,14.53,14.53,0,0,0,10.61-1.4,12.24,12.24,0,0,0,5.51-6.68,10.92,10.92,0,0,0-.16-8.38l-8.79,5.05Z"/><rect class="cls-17" x="757.31" y="1031.14" width="6.13" height="40.63" transform="translate(-423.4 520.02) rotate(-29.95)"/><polygon class="cls-17" points="786.05 1019.88 803.44 1050.1 798.13 1053.15 780.75 1022.94 772.65 1027.6 769.77 1022.61 791.25 1010.25 794.11 1015.24 786.05 1019.88"/><path class="cls-17" d="M834,988.15l3.62,6.29q-6.84-1.22-11.76,1.62a14.11,14.11,0,0,0-6.94,9.16,15.21,15.21,0,0,0,1.73,11.65,14.81,14.81,0,0,0,9.11,7.2,14.37,14.37,0,0,0,11.38-1.47,13.06,13.06,0,0,0,4.23-3.66,15.64,15.64,0,0,0,1.56-2.53,31.43,31.43,0,0,0,1.4-3.34l3.7,6.41a22,22,0,0,1-8.1,8.11,20.82,20.82,0,0,1-28.57-7.61,20.94,20.94,0,0,1-2.44-14.55,20.34,20.34,0,0,1,10.43-14.56A20.7,20.7,0,0,1,834,988.15"/><path class="cls-10" d="M859.75,979.56a19.87,19.87,0,0,1-1.9-15.85,20.78,20.78,0,0,1,10-12.89,21.25,21.25,0,0,1,28.84,7.77,20,20,0,0,1,2,16,21.48,21.48,0,0,1-25.07,15.2q-9-1.77-13.88-10.25m5.38-3a15.07,15.07,0,0,0,27.76-3.3A15.75,15.75,0,0,0,882,954.4a14.3,14.3,0,0,0-11.47,1.49,14.45,14.45,0,0,0-7.06,9.17,14.66,14.66,0,0,0,1.67,11.49"/><rect class="cls-17" x="915.1" y="933.27" width="6.14" height="40.62" transform="translate(-353.59 586.17) rotate(-29.97)"/><polygon class="cls-17" points="951.58 957.86 929.93 920.24 971.09 932.33 956.99 907.85 962.29 904.81 983.8 942.17 942.7 930.14 956.88 954.79 951.58 957.86"/></svg>