<?xml version="1.0" encoding="utf-8"?>
<!-- Generator: Adobe Illustrator 22.1.0, SVG Export Plug-In . SVG Version: 6.00 Build 0)  -->
<svg version="1.1" id="Layer_1" xmlns="http://www.w3.org/2000/svg" xmlns:xlink="http://www.w3.org/1999/xlink" x="0px" y="0px"
	 viewBox="0 0 1000 1000" style="enable-background:new 0 0 1000 1000;" xml:space="preserve">
<style type="text/css">
	.st0{fill:#181743;}
	.st1{fill:url(#SVGID_1_);}
	.st2{clip-path:url(#SVGID_3_);}
	.st3{fill:#302F59;}
	.st4{fill:#12C77C;}
	.st5{fill:#F7F6F8;}
	.st6{fill:none;stroke:url(#SVGID_4_);stroke-width:4.8147;stroke-miterlimit:10;}
</style>
<g>
	<polygon class="st0" points="240.2,650 240.2,350 500,200 759.8,350 759.8,650 500,800 	"/>
	<linearGradient id="SVGID_1_" gradientUnits="userSpaceOnUse" x1="860.8674" y1="94.0241" x2="155.1412" y2="887.9662">
		<stop  offset="0" style="stop-color:#6FDDAF"/>
		<stop  offset="0.541" style="stop-color:#298C61"/>
		<stop  offset="1" style="stop-color:#12C77C"/>
	</linearGradient>
	<polygon class="st1" points="281.7,374 281.7,626 500,752 718.3,626 718.3,374 500,248 	"/>
	<g>
		<defs>
			<polygon id="SVGID_2_" points="281.7,374 281.7,626 500,752 718.3,626 718.3,374 500,248 			"/>
		</defs>
		<clipPath id="SVGID_3_">
			<use xlink:href="#SVGID_2_"  style="overflow:visible;"/>
		</clipPath>
		<g class="st2">
			<g>
				<path class="st3" d="M624.1,411.3c2.1,1.2,4,2.5,5.7,3.8c3.7,1.9,7.9,2.9,12.3,2.9h0c15.2,0,27.5-12.3,27.5-27.5v-18.3
					c0-15.2-12.3-27.5-27.5-27.5h0c-15.2,0-27.5,12.3-27.5,27.5v18.3C614.6,398.8,618.3,406.2,624.1,411.3z"/>
				<path class="st3" d="M510.1,334L510.1,334c15.2,0,27.5-12.3,27.5-27.5v-18.3c0-15.2-12.3-27.5-27.5-27.5h0
					c-15.2,0-27.5,12.3-27.5,27.5v18.3C482.6,321.7,494.9,334,510.1,334z"/>
				<path class="st3" d="M267.1,492.8L267.1,492.8c15.2,0,27.5-12.3,27.5-27.5V447c0-15.2-12.3-27.5-27.5-27.5h0
					c-15.2,0-27.5,12.3-27.5,27.5v18.3C239.6,480.5,251.9,492.8,267.1,492.8z"/>
				<path class="st3" d="M620.1,334c3,0,5.5-2.5,5.5-5.5v-62.4c0-3-2.5-5.5-5.5-5.5c-3,0-5.5,2.5-5.5,5.5v62.4
					C614.6,331.6,617.1,334,620.1,334z"/>
				<path class="st3" d="M642.1,578.7c15.2,0,27.5-12.3,27.5-27.5v-18.3c0-15.2-12.3-27.5-27.5-27.5h0c-2.5,0-4.8,0.4-7.1,1l6.6,5.8
					l-13.2,3.5c-3.1,0.8-6.3,1.8-9.7,2.9c-2.6,4.2-4.1,9.1-4.1,14.3v18.3C614.6,566.4,626.9,578.7,642.1,578.7L642.1,578.7z"/>
				<path class="st3" d="M466.1,334c3,0,5.5-2.5,5.5-5.5v-62.4c0-3-2.5-5.5-5.5-5.5c-3,0-5.5,2.5-5.5,5.5v62.4
					C460.6,331.6,463,334,466.1,334z"/>
				<path class="st3" d="M620.1,655.3c3,0,5.5-2.5,5.5-5.5v-62.4c0-3-2.5-5.5-5.5-5.5c-3,0-5.5,2.5-5.5,5.5v62.4
					C614.6,652.9,617.1,655.3,620.1,655.3z"/>
				<path class="st3" d="M670.6,452.5c0-15.2-12.3-27.5-27.5-27.5h0c-1.2,0-2.4,0.1-3.5,0.3c2.3,3.7,3.5,7.7,3.5,11.8
					c0,11.6-9.7,22.2-27.5,30.8v3c0,15.2,12.3,27.5,27.5,27.5h0c15.2,0,27.5-12.3,27.5-27.5V452.5z"/>
				<path class="st3" d="M334,334L334,334c15.2,0,27.5-12.3,27.5-27.5v-18.3c0-15.2-12.3-27.5-27.5-27.5h0
					c-15.2,0-27.5,12.3-27.5,27.5v18.3C306.5,321.7,318.8,334,334,334z"/>
				<path class="st3" d="M422.1,334L422.1,334c15.2,0,27.5-12.3,27.5-27.5v-18.3c0-15.2-12.3-27.5-27.5-27.5h0
					c-15.2,0-27.5,12.3-27.5,27.5v18.3C394.5,321.7,406.9,334,422.1,334z"/>
				<path class="st3" d="M268,334c3,0,5.5-2.5,5.5-5.5v-62.4c0-3-2.5-5.5-5.5-5.5c-3,0-5.5,2.5-5.5,5.5v62.4
					C262.5,331.6,265,334,268,334z"/>
				<path class="st3" d="M334,412.5L334,412.5c15.2,0,27.5-12.3,27.5-27.5v-18.3c0-15.2-12.3-27.5-27.5-27.5h0
					c-15.2,0-27.5,12.3-27.5,27.5V385C306.5,400.2,318.8,412.5,334,412.5z"/>
				<path class="st3" d="M246,334c3,0,5.5-2.5,5.5-5.5v-62.4c0-3-2.5-5.5-5.5-5.5c-3,0-5.5,2.5-5.5,5.5v62.4
					C240.5,331.6,243,334,246,334z"/>
				<path class="st3" d="M598.1,344.7c-3,0-5.5,2.5-5.5,5.5v48.4c3.9,1.1,7.5,2.2,11,3.4v-51.8C603.6,347.1,601.2,344.7,598.1,344.7
					z"/>
				<path class="st3" d="M415.6,396.4v-28.2c0-5.9,4.8-10.7,10.7-10.7c5.9,0,10.7,4.8,10.7,10.7V390l7.4-39.3
					c-5-6.9-13.1-11.5-22.3-11.5h0c-15.2,0-27.5,12.3-27.5,27.5V385c0,5.9,1.9,11.4,5.1,15.9C404.6,399.3,409.9,397.8,415.6,396.4z"
					/>
				<path class="st3" d="M375.2,411.7c2.5-1.6,5.3-3.1,8.4-4.5c0-0.1,0-0.1,0-0.2v-62.4c0-3-2.5-5.5-5.5-5.5c-3,0-5.5,2.5-5.5,5.5
					V407C372.5,409,373.6,410.7,375.2,411.7z"/>
				<path class="st3" d="M378,334c3,0,5.5-2.5,5.5-5.5v-62.4c0-3-2.5-5.5-5.5-5.5c-3,0-5.5,2.5-5.5,5.5v62.4
					C372.5,331.6,375,334,378,334z"/>
				<path class="st3" d="M576.1,334L576.1,334c15.2,0,27.5-12.3,27.5-27.5v-18.3c0-15.2-12.3-27.5-27.5-27.5h0
					c-15.2,0-27.5,12.3-27.5,27.5v18.3C548.6,321.7,560.9,334,576.1,334z"/>
				<path class="st3" d="M759.5,390.5v-18.3c0-15.2-12.3-27.5-27.5-27.5h0c-15.2,0-27.5,12.3-27.5,27.5v18.3
					c0,15.2,12.3,27.5,27.5,27.5h0C747.2,418,759.5,405.7,759.5,390.5z"/>
				<path class="st3" d="M730.2,335.9c3,0,5.5-2.5,5.5-5.5V268c0-3-2.5-5.5-5.5-5.5c-3,0-5.5,2.5-5.5,5.5v62.4
					C724.7,333.4,727.1,335.9,730.2,335.9z"/>
				<path class="st3" d="M708.2,335.9c3,0,5.5-2.5,5.5-5.5V268c0-3-2.5-5.5-5.5-5.5c-3,0-5.5,2.5-5.5,5.5v62.4
					C702.7,333.4,705.1,335.9,708.2,335.9z"/>
				<path class="st3" d="M664.1,334L664.1,334c15.2,0,27.5-12.3,27.5-27.5v-18.3c0-15.2-12.3-27.5-27.5-27.5h0
					c-15.2,0-27.5,12.3-27.5,27.5v18.3C636.6,321.7,648.9,334,664.1,334z"/>
				<path class="st3" d="M510.1,655.3L510.1,655.3c15.2,0,27.5-12.3,27.5-27.5v-18.3c0-1.8-0.2-3.5-0.5-5.2
					c-14.7,17.8-28.2,36.6-34.1,50.1C505.2,655,507.6,655.3,510.1,655.3z"/>
				<path class="st3" d="M754,335.9c3,0,5.5-2.5,5.5-5.5V268c0-3-2.5-5.5-5.5-5.5c-3,0-5.5,2.5-5.5,5.5v62.4
					C748.5,333.4,751,335.9,754,335.9z"/>
				<path class="st3" d="M709.1,496.5L709.1,496.5c15.2,0,27.5-12.3,27.5-27.5v-18.3c0-15.2-12.3-27.5-27.5-27.5h0
					c-15.2,0-27.5,12.3-27.5,27.5V469C681.6,484.2,693.9,496.5,709.1,496.5z"/>
				<path class="st3" d="M686.1,418c3,0,5.5-2.5,5.5-5.5v-62.4c0-3-2.5-5.5-5.5-5.5c-3,0-5.5,2.5-5.5,5.5v62.4
					C680.6,415.6,683.1,418,686.1,418z"/>
				<path class="st3" d="M422.1,573.2L422.1,573.2c3.9,0,7.6-0.8,10.9-2.3c-2.7-2.8-5.3-5.3-7.7-7.5l-3.8-3.6l7.8-17.6
					c-5.6-6.5-19.8-13.5-34.4-19c-0.2,1.3-0.3,2.7-0.3,4.1v18.3C394.5,560.9,406.9,573.2,422.1,573.2z"/>
				<path class="st3" d="M496,651.4c-3.1-6.5-7.8-14-13.3-21.9C483.2,638.8,488.4,646.9,496,651.4z"/>
				<path class="st3" d="M595.6,475.6c2.7,1.7,5.7,3.7,8.9,6v-9.1C601.7,473.6,598.7,474.6,595.6,475.6z"/>
				<path class="st3" d="M355.1,419.5L355.1,419.5c-15.2,0-27.5,12.3-27.5,27.5v18.3c0,15.2,12.3,27.5,27.5,27.5h0
					c14.7,0,26.6-11.5,27.4-26C366,458.4,357,448.2,357,437c0-5.7,2.3-11.1,6.8-16.1C361,420,358.1,419.5,355.1,419.5z"/>
				<path class="st3" d="M576.1,578.7c3,0,5.5-2.5,5.5-5.5V534c-4.7,2.7-8.6,5.5-10.9,8.2l7.8,17.6l-3.8,3.6c-1.3,1.2-2.7,2.6-4.1,4
					v5.8C570.6,576.2,573.1,578.7,576.1,578.7z"/>
				<path class="st3" d="M462.4,342.4c1.5-0.5,3.1-0.9,4.6-1.3c-0.3-0.1-0.6-0.1-1-0.1C464.7,341,463.4,341.5,462.4,342.4z"/>
				<path class="st3" d="M393.6,471.8v11.1c3.9-2.8,7.5-5.3,10.7-7.3C400.6,474.4,397,473.1,393.6,471.8z"/>
				<path class="st3" d="M559.6,369.9c-0.1-3.2-0.7-6.2-1.7-9L559.6,369.9z"/>
				<path class="st3" d="M732,666L732,666c-15.2,0-27.5,12.3-27.5,27.5v18.3c0,15.2,12.3,27.5,27.5,27.5h0
					c15.2,0,27.5-12.3,27.5-27.5v-18.3C759.5,678.3,747.2,666,732,666z"/>
				<path class="st3" d="M592.6,528.4v44.8c0,3,2.5,5.5,5.5,5.5c3,0,5.5-2.5,5.5-5.5v-49.4C599.9,525.2,596.1,526.8,592.6,528.4z"/>
				<path class="st3" d="M576.1,582L576.1,582c-15.2,0-27.5,12.3-27.5,27.5v18.3c0,15.2,12.3,27.5,27.5,27.5h0
					c15.2,0,27.5-12.3,27.5-27.5v-18.3C603.6,594.3,591.3,582,576.1,582z"/>
				<path class="st3" d="M460.6,601.2v48.6c0,3,2.5,5.5,5.5,5.5c3,0,5.5-2.5,5.5-5.5v-35.2C468,610.1,464.3,605.6,460.6,601.2z"/>
				<path class="st3" d="M598.1,666c-3,0-5.5,2.5-5.5,5.5v62.4c0,3,2.5,5.5,5.5,5.5c3,0,5.5-2.5,5.5-5.5v-62.4
					C603.6,668.4,601.2,666,598.1,666z"/>
				<path class="st3" d="M576.1,666c-3,0-5.5,2.5-5.5,5.5v62.4c0,3,2.5,5.5,5.5,5.5c3,0,5.5-2.5,5.5-5.5v-62.4
					C581.6,668.4,579.1,666,576.1,666z"/>
				<path class="st3" d="M686.1,666c-3,0-5.5,2.5-5.5,5.5v62.4c0,3,2.5,5.5,5.5,5.5c3,0,5.5-2.5,5.5-5.5v-62.4
					C691.6,668.4,689.2,666,686.1,666z"/>
				<path class="st3" d="M488.1,662.3c-3,0-5.5,2.5-5.5,5.5v62.4c0,3,2.5,5.5,5.5,5.5c3,0,5.5-2.5,5.5-5.5v-62.4
					C493.6,664.8,491.1,662.3,488.1,662.3z"/>
				<path class="st3" d="M532.1,664.1L532.1,664.1c-15.2,0-27.5,12.3-27.5,27.5V710c0,15.2,12.3,27.5,27.5,27.5h0
					c15.2,0,27.5-12.3,27.5-27.5v-18.3C559.6,676.5,547.3,664.1,532.1,664.1z"/>
				<path class="st3" d="M642.1,666L642.1,666c-15.2,0-27.5,12.3-27.5,27.5v18.3c0,15.2,12.3,27.5,27.5,27.5h0
					c15.2,0,27.5-12.3,27.5-27.5v-18.3C669.6,678.3,657.3,666,642.1,666z"/>
				<path class="st3" d="M732,505.3L732,505.3c-15.2,0-27.5,12.3-27.5,27.5v18.3c0,15.2,12.3,27.5,27.5,27.5h0
					c15.2,0,27.5-12.3,27.5-27.5v-18.3C759.5,517.6,747.2,505.3,732,505.3z"/>
				<path class="st3" d="M754.9,423.2c-3,0-5.5,2.5-5.5,5.5V491c0,3,2.5,5.5,5.5,5.5c3,0,5.5-2.5,5.5-5.5v-62.4
					C760.4,425.6,758,423.2,754.9,423.2z"/>
				<path class="st3" d="M754,583.8c-3,0-5.5,2.5-5.5,5.5v62.4c0,3,2.5,5.5,5.5,5.5c3,0,5.5-2.5,5.5-5.5v-62.4
					C759.5,586.3,757,583.8,754,583.8z"/>
				<path class="st3" d="M664.1,582L664.1,582c-15.2,0-27.5,12.3-27.5,27.5v18.3c0,15.2,12.3,27.5,27.5,27.5h0
					c15.2,0,27.5-12.3,27.5-27.5v-18.3C691.6,594.3,679.3,582,664.1,582z"/>
				<path class="st3" d="M735.7,651.7v-62.4c0-3-2.5-5.5-5.5-5.5c-3,0-5.5,2.5-5.5,5.5v62.4c0,3,2.5,5.5,5.5,5.5
					C733.2,657.2,735.7,654.7,735.7,651.7z"/>
				<path class="st3" d="M686.1,505.3c-3,0-5.5,2.5-5.5,5.5v62.4c0,3,2.5,5.5,5.5,5.5c3,0,5.5-2.5,5.5-5.5v-62.4
					C691.6,507.8,689.2,505.3,686.1,505.3z"/>
				<path class="st3" d="M713.7,651.7v-62.4c0-3-2.5-5.5-5.5-5.5c-3,0-5.5,2.5-5.5,5.5v62.4c0,3,2.5,5.5,5.5,5.5
					C711.2,657.2,713.7,654.7,713.7,651.7z"/>
				<path class="st3" d="M273.5,649.8v-62.4c0-3-2.5-5.5-5.5-5.5c-3,0-5.5,2.5-5.5,5.5v62.4c0,3,2.5,5.5,5.5,5.5
					C271,655.3,273.5,652.9,273.5,649.8z"/>
				<path class="st3" d="M268,499.8L268,499.8c-15.2,0-27.5,12.3-27.5,27.5v18.3c0,15.2,12.3,27.5,27.5,27.5h0
					c15.2,0,27.5-12.3,27.5-27.5v-18.3C295.5,512.1,283.2,499.8,268,499.8z"/>
				<path class="st3" d="M290,260.7c-3,0-5.5,2.5-5.5,5.5v62.4c0,3,2.5,5.5,5.5,5.5c3,0,5.5-2.5,5.5-5.5v-62.4
					C295.5,263.1,293.1,260.7,290,260.7z"/>
				<path class="st3" d="M268,339.2L268,339.2c-15.2,0-27.5,12.3-27.5,27.5V385c0,15.2,12.3,27.5,27.5,27.5h0
					c15.2,0,27.5-12.3,27.5-27.5v-18.3C295.5,351.5,283.2,339.2,268,339.2z"/>
				<path class="st3" d="M311.1,492.8c3,0,5.5-2.5,5.5-5.5V425c0-3-2.5-5.5-5.5-5.5c-3,0-5.5,2.5-5.5,5.5v62.4
					C305.6,490.4,308.1,492.8,311.1,492.8z"/>
				<path class="st3" d="M268,660.5L268,660.5c-15.2,0-27.5,12.3-27.5,27.5v18.3c0,15.2,12.3,27.5,27.5,27.5h0
					c15.2,0,27.5-12.3,27.5-27.5V688C295.5,672.8,283.2,660.5,268,660.5z"/>
				<path class="st3" d="M290,582c-3,0-5.5,2.5-5.5,5.5v62.4c0,3,2.5,5.5,5.5,5.5c3,0,5.5-2.5,5.5-5.5v-62.4
					C295.5,584.4,293.1,582,290,582z"/>
				<path class="st3" d="M334,660.5L334,660.5c-15.2,0-27.5,12.3-27.5,27.5v18.3c0,15.2,12.3,27.5,27.5,27.5h0
					c15.2,0,27.5-12.3,27.5-27.5V688C361.5,672.8,349.2,660.5,334,660.5z"/>
				<path class="st3" d="M246,655.3c3,0,5.5-2.5,5.5-5.5v-62.4c0-3-2.5-5.5-5.5-5.5c-3,0-5.5,2.5-5.5,5.5v62.4
					C240.5,652.9,243,655.3,246,655.3z"/>
				<path class="st3" d="M466.1,662.3c-3,0-5.5,2.5-5.5,5.5v62.4c0,3,2.5,5.5,5.5,5.5c3,0,5.5-2.5,5.5-5.5v-62.4
					C471.6,664.8,469.1,662.3,466.1,662.3z"/>
				<path class="st3" d="M422.1,660.5L422.1,660.5c-15.2,0-27.5,12.3-27.5,27.5v18.3c0,15.2,12.3,27.5,27.5,27.5h0
					c15.2,0,27.5-12.3,27.5-27.5V688C449.6,672.8,437.3,660.5,422.1,660.5z"/>
				<path class="st3" d="M372.5,515.9v51.8c0,3,2.5,5.5,5.5,5.5c3,0,5.5-2.5,5.5-5.5v-48.5C379.7,517.9,376,516.8,372.5,515.9z"/>
				<path class="st3" d="M422.1,582L422.1,582c-15.2,0-27.5,12.3-27.5,27.5v18.3c0,15.2,12.3,27.5,27.5,27.5h0
					c15.2,0,27.5-12.3,27.5-27.5v-18.3C449.6,594.3,437.3,582,422.1,582z"/>
				<path class="st3" d="M334,499.8L334,499.8c-15.2,0-27.5,12.3-27.5,27.5v18.3c0,15.2,12.3,27.5,27.5,27.5h0
					c15.2,0,27.5-12.3,27.5-27.5v-18.3C361.5,512.1,349.2,499.8,334,499.8z"/>
				<path class="st3" d="M334,582L334,582c-15.2,0-27.5,12.3-27.5,27.5v18.3c0,15.2,12.3,27.5,27.5,27.5h0
					c15.2,0,27.5-12.3,27.5-27.5v-18.3C361.5,594.3,349.2,582,334,582z"/>
				<path class="st3" d="M378,660.5c-3,0-5.5,2.5-5.5,5.5v62.4c0,3,2.5,5.5,5.5,5.5c3,0,5.5-2.5,5.5-5.5V666
					C383.5,662.9,381.1,660.5,378,660.5z"/>
				<path class="st3" d="M378,582c-3,0-5.5,2.5-5.5,5.5v62.4c0,3,2.5,5.5,5.5,5.5c3,0,5.5-2.5,5.5-5.5v-62.4
					C383.5,584.4,381.1,582,378,582z"/>
			</g>
			<g>
				<path class="st0" d="M573.4,473.3c0,0,20.2,7.3,53.2,36.7c0,0-55,14.7-64.2,33l7.3,16.5c0,0-66,62.4-69.7,88
					c-3.7-25.7-69.7-88-69.7-88l7.3-16.5c-9.2-18.3-64.2-33-64.2-33c33-29.3,53.2-36.7,53.2-36.7H573.4z"/>
				<g>
					<path class="st4" d="M554.6,494.9c0,19.5-10.2,36.6-25.6,46.3h-58.1c-15.4-9.7-25.6-26.8-25.6-46.3c0-13.8,5.1-26.4,13.5-36
						c12.7-5.2,26.6-8,41.1-8c14.5,0,28.4,2.9,41.1,8C549.5,468.5,554.6,481.1,554.6,494.9z"/>
					<path class="st5" d="M528.4,475.4c0,7.1-5.7,12.9-12.8,12.9c-7.1,0-13.9-5.8-13.9-12.9c0-7.1,6.8-12.9,13.9-12.9
						C522.7,462.5,528.4,468.3,528.4,475.4z"/>
					<path class="st5" d="M539.6,497.5c0,2.8-3.2,5.1-6,5.1s-5.1-2.3-5.1-5.1s2.3-6,5.1-6S539.6,494.7,539.6,497.5z"/>
				</g>
				<path class="st0" d="M582.9,405.1c-1.2-0.3-2.4-0.5-3.6-0.8l-1.4-55.9c0-1.8-1.6-3.3-3.4-3.3c-1.8,0-3.3,1.6-3.3,3.4l1.4,54.3
					c-1.4-0.3-2.9-0.6-4.3-0.9c-2.3-0.4-4.5-0.8-6.9-1.2l-2.4-0.4c-0.5-0.1-1-0.1-1.5-0.2l0.2,0.6l3.1,17.2c-8.8,3.5-19,6.2-30.2,8
					c-9.3,1.5-19.4,2.3-29.8,2.3c-0.6,0-1.2,0-1.8,0c-13.3-0.1-25.9-1.5-37.3-4c-7.8-1.7-15-3.9-21.4-6.5c-0.3-0.1-0.6-0.2-0.8-0.3
					l0.8-4.2l0-0.2l2.4-12.7c15.4,5.8,35,9.4,56.3,9.6c0.6,0,1.2,0,1.8,0c21.4,0,41.2-3.4,56.8-9.1l-0.1-0.7l-8-42.8
					c-13.1-7.2-30.9-11.6-50.4-11.6c-18.4,0-35.1,3.9-48,10.3l-8.3,44c-0.2,0-0.3,0-0.5,0.1c-0.6,0.1-1.3,0.2-1.9,0.3
					c-3.5,0.6-7,1.1-10.4,1.8c-0.1,0-0.2,0-0.4,0.1v-32.7c0-1.8-1.5-3.3-3.3-3.3c-1.8,0-3.3,1.5-3.3,3.3v34.1c-1.5,0.3-3,0.6-4.4,1
					c-32.9,7.7-54.2,20-54.2,33.7c0,23.3,60.8,44,135.7,44s135.7-20.7,135.7-44C635.7,424.9,615,412.8,582.9,405.1z"/>
			</g>
		</g>
	</g>
	<linearGradient id="SVGID_4_" gradientUnits="userSpaceOnUse" x1="660.6567" y1="319.2612" x2="339.3433" y2="680.7388">
		<stop  offset="0" style="stop-color:#DCF5EB"/>
		<stop  offset="1" style="stop-color:#12C77C"/>
	</linearGradient>
	<polygon class="st6" points="281.7,374 281.7,626 500,752 718.3,626 718.3,374 500,248 	"/>
</g>
</svg>
