<svg id="Layer_2" data-name="Layer 2" xmlns="http://www.w3.org/2000/svg" xmlns:xlink="http://www.w3.org/1999/xlink" viewBox="0 0 1200 1200"><defs><style>.cls-1{fill:none;}.cls-2,.cls-24{fill:#5e726d;}.cls-2{opacity:0.93;}.cls-3{clip-path:url(#clip-path);}.cls-4{fill:#20a8ae;}.cls-5{fill:#e9e5d8;}.cls-6{fill:#d5785a;}.cls-7{fill:#e29c62;}.cls-8{fill:#96908b;}.cls-9{fill:#acaca4;}.cls-10{fill:#c4c5c4;}.cls-11{fill:#ecb17d;}.cls-12{fill:#71383d;}.cls-13{fill:#19182e;}.cls-14{fill:#6f7176;}.cls-15{fill:#2d2933;}.cls-16{fill:#5e524b;}.cls-17{fill:#b13b3c;}.cls-18{fill:#c99092;}.cls-19{fill:#c73950;}.cls-20{fill:#3e343b;}.cls-21{fill:#31292d;}.cls-22{fill:#fdd1a9;}.cls-23{fill:#f8a53f;}.cls-25{fill:#487c52;}.cls-26{fill:#397b6a;}.cls-27{fill:#1a8f7c;}.cls-28{fill:#4b5f47;}.cls-29{fill:#ced4d2;}.cls-30{fill:#ad5244;}.cls-31{fill:#345952;}.cls-32{fill:#7e7a75;}.cls-33{fill:#4c1829;}.cls-34{opacity:0.13;isolation:isolate;}.cls-35{fill:#fff;}.cls-36{fill:#0fce7c;}.cls-37{font-size:3.24px;font-family:MyriadPro-Regular, Myriad Pro;}.cls-38{fill:#15003e;}.cls-39{fill:#25e899;}</style><clipPath id="clip-path"><polygon class="cls-1" points="789.19 1083 402.53 1084.62 182.26 535.21 1007.78 535.21 789.19 1083"/></clipPath></defs><title>Bot creative</title><polygon class="cls-2" points="164.85 348.36 593.17 97.3 1021.78 348.38 1021.78 850.44 593.19 1096.53 164.85 850.42 164.85 348.36"/><g class="cls-3"><path class="cls-4" d="M436,1064.26S330,845.7,356.85,792.32s-4-25.38-20.05-41.38-8-26.67,6.71-40-14.74,13.33-9.38-5.33,54.93-104,113.89-117.33S426.58,615,421.22,619s48.24-26.67,77.72-34.67-63-4-20.1-13.33,115.23-12,104.51,6.67,37.52,0,37.52,0-21.44,20-57.62,25.33,56.28-30.67,67,20-22.78-25.34,12.06-16,52.26,16,54.94,37.33,32.16,1.33,44.22,2.67S712,645.61,716,619s93.79-33.33,132.65,45.33,37,186.33,30.82,205.32,6.7-26.66,13.4-57.33S910.3,869.6,858,973.59,436,1064.26,436,1064.26Z"/><path class="cls-5" d="M509.71,760.15s7.89,16.35,15.12,7.85,2-15.69,6.57-17,34.83,8.5,53.23-22.23-19.06-66-31.54-64.74-13.15,11.77-13.15,11.77,2-15-2-22.89,13.8,18.31,9.86,2-19.06-24.19-28.92-26.15,9.86-14.39,0-19,14.46-7.19,39.43-20.27-42.72-17-80.83,23.54,11.83,9.81,15.77,6.54-13.8,12.43-21,31.39,8.55,2.62-34.83-10.46-88.72,48.39-68.35,41.19,34.83-23.54,34.83-23.54-7.88,3.93,5.26,9.81,3.29,18.31,3.29,18.31-21-23.54-36.81,2-1.31,34.66,21,40.55-4.59,6.54-5.25,15,8.54-9.16-21.69-18.31-59.8,49-31.55,126.86,25,219.06,94,261.57,42.06,7.84,42.72,10.46,19.72,9.81,19.72,9.81,63.75,20.27,116,7.52,46.34-8.83,59.48-8.83,67-17.66,77.55-25.18,51.26-42.83,51.26-42.83c21.68-20.27,42.72-36.62,53.89-75.85s25-106.59,17.74-153.67.66,30.08,9.2,3.27-.65-83.71-3.28-94.17,11.17,2-3.95-39.89-19.71-68.66-44.69-79.12-17.74,7.85,3.29,51.66S816,656.84,797.56,642.45s-42.06-36-43.37,17S766,734,782.45,737.27s-17.09-20.27-27.6,15,11.17,64.74,20.37,69.31-23.66-5.23-1.32,18.32-5.91-2-14.45-1.31-9.86-82.4-27.61-114.44-76.89-40.54-95.29,7.19-9.2,102.67,32.86,109.21c0,0-35.49,17-17.74,39.23s20.37,15,20.37,15-4.6,7.2-3.29,14.39-.65-26.16-24.31-22.89-33.52,28.77-32.2,41.2-21-43.16-28.26-42.51,13.8-13.73-17.09-30.73-16.43,17-9.2,24.2-13.14-20.93-26.29,22.88S509.71,760.15,509.71,760.15Z"/><path class="cls-6" d="M324.65,819.78a26.27,26.27,0,0,1-16.43,0c-8.87-2.94-1.31-8.5,0-7.84s-7.56-3.27-7.89-6.21,3.95-4.91,3.95-4.91-9.53-2.29-10.19-4.9,4.6-11.12,6.9-10.47l2.3.66s-7.88-2.62-9.86-4.25,1-7.85,7.89-6.22,32.2,8.18,34.18,8.83-13.15-12.1-11.84-23.21,33.19,15.69,37.79,48.06-2.95,32.7,5.92,88.28,5.91,57.22,12.16,82.72,27.6,78.8,33.51,99.73,1.65,14.38-10.51,4.57-32.86-18.63-49-46.43S321.69,968.55,316.11,929s-5.92-63.76.33-78.14S324.65,819.78,324.65,819.78Z"/><path class="cls-7" d="M394.31,690.63s-1.31,21.26-3.94,49-3,18.31,0,50.68.66,60.49,2,87,6.9,80.43,10.19,109.2,14.79,49.38,14.79,77.82,1,40.54,9.52,47.08,68.35,19,90.7,27.79,33.18,7.85,33.18,7.85a217.12,217.12,0,0,1,2-30.08c2.3-18,3.94-36.29-2-59.18s-10.84-99.72-11.49-120.32S531,854.12,524.11,822.4a574.16,574.16,0,0,0-19.39-67.35c-2.3-6.22,2-3.6,9.2-12.1s9.86-8.18,17.75-27.14,11.17-22.23,14.13-32,1-14.06-7.23-27.47-19.39,2.29-21.36,7.2.66-.33-16.43-.66-103.51,3.6-103.51,3.6S390,671,396,683.11A28,28,0,0,0,394.31,690.63Z"/><path class="cls-6" d="M599,812.59s-8.55,2.94-13.8-.65-3.29-3.6,2.95-15,6.91-21.91,3.29-24.2-2.63,6.87-14.78,14.71-18.41,9.49-15.78,32.7,6.9,22.89,14.46,29.76,11.5,7.19,10.52,22.56-7.89,88-10.52,112.8S570.11,1063,568.8,1083s-4.27,38.25-1,43.16,7.89,6.86,6.9,7.52-6.24,6.21-2,7.52-9.2,4.9-3,5.55,25,1.64,41.08-5.55,16.43-9.49,13.14-8.51l-3.28,1s1-4.91-1-8.83,3,0,3.62-19.95,4.92-66.37,1-112.8l-3.94-46.43s-8.55-72.25-8.22-77.81l.33-5.56s24.32,10.46,27.93,6.54,3.29-7.19-3-10.79a140.49,140.49,0,0,0-13.14-6.54s16.1,2.29,15.44-6.21-15.11-9.16-16.75-10.14-1.32-1.63,4.92-2.94,14.13-.33,17.09-7.85-7.56-12.42-18.07-13.08-1.31-9.48,18.07-33-.65-14.71-6.9-9.48S613.49,805.73,599,812.59Z"/><path class="cls-8" d="M625,817.49s.33-105.6-1-110.83S611.19,704,610.53,706s.66,110.19,1.31,111.49S625,817.49,625,817.49Z"/><path class="cls-9" d="M593.11,709.27s-2.62,47.74-1.64,63.43,2.63,43.49,3.62,46.76,21-1,22-1.64-3.61-58.2-3.61-77.81-1.32-35.32-1.32-35.32S596.73,707.31,593.11,709.27Z"/><path class="cls-8" d="M596.07,716.79s-1,47.74,0,50.35l2.63,1-.33-51Z"/><polygon class="cls-10" points="606.91 717.12 607.57 767.8 598.7 768.12 598.37 717.12 606.91 717.12"/><path class="cls-11" d="M670.33,1132.36s-.65-41.85,4.93-72.26S688.41,947,689.06,932.26s-3.61-66-3.61-66-6.24-5.88-2.63-11.44c0,0-10.84-2.62-17.09-7.52s6.58-10.13,12.16-9.81c0,0-13.14-7.85-15.44-13.73s2.3-14.39,7.88-16a119.66,119.66,0,0,1,15.12-3.27c1,0-1.64-8.5-1.64-8.5s48-12.43,54.54-14.72,20-3.59,23.33,32-2,58.86-4.93,79.13-2,127.19-4.92,148.44-4,66.37-4,66.37S726.2,1129.42,670.33,1132.36Z"/><path class="cls-12" d="M760,1095.74s-.66-76.18,1.64-105.28,10.85-73.24,27.28-104S807,846.27,807,846.27s-17.42-1.64-24.32-6.87,6.25-13.4,13.8-16,12.16-2.62,12.16-2.62-10.18,1-16.43-6.21,5.59-10.46,11.83-10.46,7.89.65,7.89.65-16.1-7.19-14.79-12.42,4.93-3.93,4.93-3.93-11.83-9.8-.66-39.23,37.46-19.94,38.12-15.69,2,9.81-8.87,12.75-15.77,6.54-15.12,24.19,17.42,26.16,26.62,29.1,24.32-1,23.33-22.56S845.81,755.7,856,748.83s33.52,11.45,20.7,43.49-13.14,23.54-11.5,43.16-4.93,89.91-8.54,117.7-7.56,54.61-28.59,83.05S760,1095.74,760,1095.74Z"/><path class="cls-13" d="M301,711.23s-19.06-2.61-21.69-24.52,24-43.16,46.67-21.9S327.28,718.75,301,711.23Z"/><path class="cls-14" d="M296.72,713.85S299,723,299,724s5.91,16,10.51,31.72,7.23,23.87,7.23,23.87l12.82,3.27L325,721.7s-.66-11.77-1.64-12.1S297.38,710.91,296.72,713.85Z"/><path class="cls-14" d="M279.3,686.71s31.55-.32,37.79,0,18.41-.65,18.41-.65l.32-5.56s-11.83-1.64-18.07-.65-38.12-1-38.12-1A22,22,0,0,0,279.3,686.71Z"/><path class="cls-14" d="M326.62,805.07s6.57,26.16,8.22,32.37,8.54,6.21,8.21,7.19,2.3,11.45,3.94,17.66,4.28,2,4.93,2S346.34,844,346.34,844a27.46,27.46,0,0,0-1.64-14.06c-3-7.85-8.55-34-8.55-34l-3.61,1.63S334.51,803.43,326.62,805.07Z"/><path class="cls-6" d="M629.59,811.61s-28.26-.65-38.12,10.13,19.39,15.7,34.5,9.82S630.9,811.28,629.59,811.61Z"/><path class="cls-15" d="M700.89,794.28S714,876.35,715,883.54s3,24.2,4.6,26.16,4.93,5.89,5.26,7.19,3,18.31,3,19.62,5.58.33,5.58-1.31S730.14,913,730.14,913s3.61-7.2,3-11.44S723.57,800.17,724.22,794s-3-13.4-2.63-12.42S700.89,794.28,700.89,794.28Z"/><path class="cls-16" d="M663.43,734.45S671,741,671.65,742s38.12,2.61,38.12,2.61S739.34,725,740,724.64s-3-9.16-7.89-9.81-58.3,5.51-61.58,6.16S663.43,734.45,663.43,734.45Z"/><path class="cls-17" d="M716,793l-6.24-48.39s28.09-18.92,30.23-19.94c1.25-.6,3.94,46.1,3.94,52.31S719.62,792.65,716,793Z"/><path class="cls-18" d="M663.43,734.45s1.32,18.63,2.63,28.12,6.25,29.75,6.25,29.75l8.87,2.94L673,742.62Z"/><path class="cls-19" d="M681.18,795.26,716,793l-6.24-48.39L671.65,742s-.33,21.58,1.64,33.35A51.78,51.78,0,0,0,681.18,795.26Z"/><path class="cls-20" d="M672,721.7s-7.89,13.73,6.24,15.36,48.3-4.57,54.22-9.48-.33-12.75-.33-12.75Z"/><path class="cls-11" d="M745.58,780.55s-19.06.33-30.23,10.79S691,811.61,695.64,817.82s19.38,0,39.43-13.73S745.58,780.55,745.58,780.55Z"/><path class="cls-11" d="M701.88,841.69s8.54,2,13.47-2-7.56-13.08-14.78-16S695.31,838.42,701.88,841.69Z"/><path class="cls-11" d="M700.57,844s9.2,1.31,14.78,3.93,3.29,7.51-6.57,8.49-10.19-1.63-17.42-2.28S694.32,842.67,700.57,844Z"/><path class="cls-11" d="M706.48,857.71s9.2,3.93,11.17,10.47-7.88,7.19-16.43,2.61S706.48,857.71,706.48,857.71Z"/><path class="cls-11" d="M654.89,797.55s19.71,7.85,33.19,6.54,16.1-2,12.81-9.81-29.9-12.1-39.1-11.12S644.7,792.32,654.89,797.55Z"/><path class="cls-21" d="M858.29,581.76s-6.24,31.06-5.91,33.67,7.55,10.47,9.53,3-1-35.32-1-38.58S858.62,577.83,858.29,581.76Z"/><path class="cls-22" d="M846.13,643.23l7.23-35.64s7.23,4.9,9.2,4.57l1.65,32.37-4.28,19.29S847.12,653,846.13,643.23Z"/><path class="cls-23" d="M837.59,762.57l8.54-119.34s6.9,12.09,8.22,6.21a133.2,133.2,0,0,0,2-15.37s1.64,13.41,7.89,11.77c0,0-2.63,53.62-5.26,76.51s-8.87,42.5-8.87,44.79S837.59,766.82,837.59,762.57Z"/><path class="cls-24" d="M835.62,776s1.31-14.06,1.31-16.35,4.93-3.27,11.17-1.31,6.9,4.91,6.58,6.22-3.29,12.42-2.63,14.38S834.3,783.49,835.62,776Z"/><path class="cls-25" d="M317.07,976.85s-13.19-1.48-21.58-24.44S318,947.34,317.07,976.85Z"/><path class="cls-25" d="M331.45,1009.06s-17.68-10.44-21.87-22.37S333.55,984,331.45,1009.06Z"/><path class="cls-25" d="M350.63,1024.56S340.14,995,365.91,974.17,394.08,1028.44,350.63,1024.56Z"/><path class="cls-25" d="M362,1037.68s-51.85-41.44-74.62-39.06,6.59,38.17,42,41.75S362,1037.68,362,1037.68Z"/><path class="cls-25" d="M400.38,1085.09s-32.37-18.18-49.15-20.87S372.21,1100.6,400.38,1085.09Z"/><path class="cls-25" d="M416,1038.28s-7.79-17.59-3.9-33.1S425.85,995,425,1007.57,416,1038.28,416,1038.28Z"/><path class="cls-25" d="M424.35,1080s-3.3-24.45,0-38.76,23.07-42.64,26.37-9.24S424.35,1080,424.35,1080Z"/><path class="cls-25" d="M498.67,1132.2s-37.46-41.14-71-45.91-30,25.94-.6,41.44S498.67,1132.2,498.67,1132.2Z"/><path class="cls-25" d="M536.72,1083s-36.26-6.85-51.24-43.83,14.68-40.25,31.46-6.26S536.72,1083,536.72,1083Z"/><path class="cls-25" d="M544.21,1040.07s-26.67-23.85-29.36-55.16,19.48-31.91,31.76,4.77S544.21,1040.07,544.21,1040.07Z"/><path class="cls-25" d="M552.31,1141.15S537,1109,525.64,1098.21s-32.67-14.61-35.07-4.77,21.88,42.64,42.86,48.6S552.31,1141.15,552.31,1141.15Z"/><path class="cls-25" d="M548.71,1121.77s7.79-23.86,36-42.64,39.26,2.39,18.28,23S548.71,1121.77,548.71,1121.77Z"/><path class="cls-25" d="M549.61,1053.78s14.08-36.67,22.77-48.9,27-28.92,28.47-6.26S585.57,1052,549.61,1053.78Z"/><path class="cls-25" d="M548.11,1146.51s8.09,14,53,23.56,68.63-5.07,46.45-12.82S554.4,1144.13,548.11,1146.51Z"/><path class="cls-25" d="M615.54,1141.45s9-31.31,36.26-48.9,33.86,4.47,23.07,18.48S628.72,1135.18,615.54,1141.45Z"/><path class="cls-25" d="M708.14,1127.73s-21.58-33.4-5.4-62.91,35.66-23,32.07,18.18S723.12,1118.49,708.14,1127.73Z"/><path class="cls-25" d="M732.71,1117.3s10.49-21.18,32.36-32.81,56.34-7.15,55.74-5.36-12.59,44.73-55.74,51.88S724.92,1123.86,732.71,1117.3Z"/><path class="cls-25" d="M751.89,1080.62s6.59-28.63-10.19-48.31-11.69,12.23-4.8,31S751.89,1080.62,751.89,1080.62Z"/><path class="cls-25" d="M749.79,1034.7s9.59-30.12,30-45,21,9,8.39,27.44S749.79,1034.7,749.79,1034.7Z"/><path class="cls-25" d="M756.68,1071.08a77.67,77.67,0,0,1,18-28.33c13.49-13.72,36.56-22.66,28.17,1.19S756.68,1071.08,756.68,1071.08Z"/><path class="cls-25" d="M754,1015.32s6.9-19.09-6.59-33.4S735.7,1006.37,754,1015.32Z"/><path class="cls-25" d="M643.11,1031.42s-18.58-51-10.49-89.15,28.47,44.42,19.18,73.35S643.11,1031.42,643.11,1031.42Z"/><path class="cls-25" d="M660.19,997.73s1.5-40,18.58-54.87S697.65,996.83,660.19,997.73Z"/><path class="cls-25" d="M664.38,945.25s-28.47-14.61-23.67-33.1S683,933.92,664.38,945.25Z"/><path class="cls-25" d="M652.7,1045.44s-6.3-12.83,10.78-22.67S669.18,1046.33,652.7,1045.44Z"/><path class="cls-25" d="M834.3,1016.21s-.3-34,24.87-74.84S863.66,998.32,834.3,1016.21Z"/><path class="cls-25" d="M836.39,981.33s-8.39-17.6-9.29-35.79-34.76,2.69-17.08,29.52S837,985.2,836.39,981.33Z"/><path class="cls-25" d="M873.25,888.59a252.47,252.47,0,0,0,1.8,29.22c1.8,13.72,16.18,5.07,12.59-18.18S873.25,888.59,873.25,888.59Z"/><path class="cls-25" d="M870.26,963.73s6.29-20.57,26.37-26.83S890.93,968.8,870.26,963.73Z"/><path class="cls-25" d="M819.91,1057.36s-3.29,3,30-32.5,43.45-20,37.76-5.67S835.2,1043.34,819.91,1057.36Z"/><path class="cls-25" d="M378.54,805.4s-4.6-40.55,31.54-60.82S401.54,797.55,378.54,805.4Z"/><path class="cls-25" d="M369.34,779.24s-21.69,10.46-19.72-34S369.34,779.24,369.34,779.24Z"/><path class="cls-25" d="M380.51,829.59s-3.94-24.84-23.66-37.27S331.88,816.51,380.51,829.59Z"/><path class="cls-25" d="M371.31,768.12S368,749.82,374.6,740,375.91,757.66,371.31,768.12Z"/><path class="cls-5" d="M642.73,585s-5.91,13.08,33.52,13.08,46.66-12.43,27.6-22.89S640.1,571.3,642.73,585Z"/><path class="cls-5" d="M608.56,585.68s-.66,19.62,13.14,11.77S608.56,570.64,608.56,585.68Z"/><path class="cls-15" d="M692.68,724.31s.33,5.56,3.94,7.19,12.49,2,16.1,0,3-8.82,3-8.82Z"/><path class="cls-26" d="M682.16,727.58s15.45,3.27,25.63,0,16.11-6.86,17.42-7.19,3.94,1.31,8.54-.66,5.59-3.59,10.19-5.88,1-10.79,1-10.79,6.58-48.06-.65-64.41-21.69-40.87-56.19-21.58-37.46,42.83-34.18,63.76a80.46,80.46,0,0,0,13.81,34.33s-5.92,0-2.63,5.55S682.16,727.58,682.16,727.58Z"/><path class="cls-27" d="M684.46,647.48s11.5,13.4,19.39,27.46,29.25,13.73,31.87-13.08-18.07-47.73-32.2-44.79S675.59,634.73,684.46,647.48Z"/><path class="cls-28" d="M378.54,805.4s8.15-33.1,43.69-63.75c0,0,8.29,3.54-12.8,34.19S378.54,805.4,378.54,805.4Z"/><path class="cls-25" d="M407.27,1086s-33.27-27.44-28.17-58.74S416.86,1068.09,407.27,1086Z"/><path class="cls-28" d="M369.34,779.24s-11.73-18.46-15.54-30.77-2.32-15.56-2.32-15.56,2.22-7.79,9.19,13.78S369.34,779.24,369.34,779.24Z"/><path class="cls-28" d="M371.31,768.12s4.8-28.38,5.54-30.17c0,0,2.11-.31-.32,12.63S371.31,768.12,371.31,768.12Z"/><path class="cls-28" d="M380.51,829.59s-12.12-17.26-20.68-24.94a140,140,0,0,0-15.76-12.31s5.5-8.62,20,5.58A57.92,57.92,0,0,1,380.51,829.59Z"/><path class="cls-28" d="M317.07,976.85l-21.46-34.57s6.9-3.16,15.3,11.33S317.07,976.85,317.07,976.85Z"/><path class="cls-28" d="M310.06,982.19s21.18,26.4,21.28,26.63,2.37-10.47-6.78-21.17S310.06,982.19,310.06,982.19Z"/><path class="cls-28" d="M280.85,1001.46,362,1037.68a343.8,343.8,0,0,0-39.52-27C300.38,997.9,285.65,995.7,280.85,1001.46Z"/><path class="cls-28" d="M350.63,1024.56l28.08-52.46s9.46,5.54,4.35,27.39S360.61,1026.18,350.63,1024.56Z"/><path class="cls-28" d="M416,1038.28l3.58-42.57s7.6-.13,4.8,17.25S416,1038.28,416,1038.28Z"/><path class="cls-28" d="M424.35,1080a334.23,334.23,0,0,1,10.39-41.47c6.93-21.35,10.12-21.88,10.12-21.88s10.8,6.9,3.47,36.47S424.35,1080,424.35,1080Z"/><path class="cls-28" d="M400.38,1085.09l-53.22-18.82s-2.8-5.57,14.26.67S400.38,1085.09,400.38,1085.09Z"/><path class="cls-28" d="M379.28,1026.88s13.47,19,19.06,33.16,8.93,26,8.93,26,3.54-8.08-1.73-30.59C399.68,1030.33,380.08,1004.73,379.28,1026.88Z"/><path class="cls-28" d="M498.67,1132.2l-94.79-35.33s1-17.34,29.58-9.48S492.33,1124,498.67,1132.2Z"/><path class="cls-28" d="M551.62,1143.45,492,1090.62s2.44-7.06,22.5,0S558.3,1139.22,551.62,1143.45Z"/><path class="cls-28" d="M536.72,1083s-35.16-41.58-44.69-59.13-6.89-12.3-6.89-12.3,10.14-11.9,27.36,12.5S536.72,1083,536.72,1083Z"/><path class="cls-28" d="M543.92,1039.2s-18.65-67.56-22.9-76.43c0,0,11.55-9.47,25.73,24.81S548,1042.83,543.92,1039.2Z"/><path class="cls-28" d="M549.61,1053.78s13.77-7.89,28.65-34.84S597,988.39,597,988.39s12.74,7.47-3.75,39.76S551.66,1055,549.61,1053.78Z"/><path class="cls-28" d="M643.11,1031.42a543.31,543.31,0,0,0-1.16-54.5c-2.14-28.42-4.42-44.43-4.42-44.43s7.37-3.87,14.88,38.29S641.58,1049.64,643.11,1031.42Z"/><path class="cls-28" d="M660.19,997.73l28.15-52.57s6.3,13.88-3,35.36S660.19,997.73,660.19,997.73Z"/><path class="cls-28" d="M664.38,945.25s-6.34-17.69-12.78-26.5-8.18-10.54-8.18-10.54,6.31-6.27,20.52,12.67S664.69,945.33,664.38,945.25Z"/><path class="cls-28" d="M652.7,1045.44s.51-4.63,8.69-14.1,9.92-9.07,9.92-9.07,4,5.34-4.69,16S652.7,1045.44,652.7,1045.44Z"/><path class="cls-28" d="M548.71,1121.77s37.06-26,50.34-36.8,13.81-8,13.81-8,8,12.67-19.71,32.55S548.71,1121.77,548.71,1121.77Z"/><path class="cls-28" d="M615.54,1141.45s24-22.19,43.17-37,20-11.87,20-11.87,6.57,10.27-10.19,24.68S615.54,1141.45,615.54,1141.45Z"/><path class="cls-28" d="M548.11,1146.51c-.21-.48,105.64,21.58,105.64,21.58s-12.87,9.6-50.14,2.53S550.4,1151.76,548.11,1146.51Z"/><path class="cls-28" d="M708.14,1127.73s12.75-53.2,14.83-65,2.08-15.32,2.08-15.32,7.7-1.45,10.2,22.15S733.26,1124.61,708.14,1127.73Z"/><path class="cls-28" d="M751.89,1080.62l-19.35-54.33s6.66-4.14,17.27,18.42S751.89,1080.62,751.89,1080.62Z"/><path class="cls-28" d="M749.79,1034.7l44.76-48s9.58,8.9-9.78,35.41S749.79,1034.7,749.79,1034.7Z"/><path class="cls-28" d="M754,1015.32l-12.7-36.45s4.79-3.73,12.28,12.22S754,1015.32,754,1015.32Z"/><path class="cls-28" d="M732.71,1117.3l88.1-38.17s-3.39,31.32-39.12,46.91S713.62,1132.85,732.71,1117.3Z"/><path class="cls-28" d="M756.68,1071.08l47.79-34.27s1.1,14.51-18,25.93S756.68,1071.08,756.68,1071.08Z"/><path class="cls-28" d="M819.91,1057.36s14.09-14.39,38-32.53,30.81-13.6,30.81-13.6,2.92,11.61-14,20.31S819.91,1057.36,819.91,1057.36Z"/><path class="cls-28" d="M836.39,981.33s-12.78,1.06-17.7-18.17,2.19-23.57,5.1-24.3,3.29,5.62,3.47,11.07S836.39,981.33,836.39,981.33Z"/><path class="cls-28" d="M834.3,1016.21s22.12-58.3,26.68-68.28,7.48-16.87,7.66-16.14,6.92,4.35-9.12,48.06S834.3,1016.21,834.3,1016.21Z"/><path class="cls-28" d="M870.26,963.73s13.14-12,23.71-20.15,10-4.72,10-4.72.91,10.16-14.22,20.32S870.26,963.73,870.26,963.73Z"/><path class="cls-28" d="M873.25,888.59S883,920.18,883.4,922s8.39-7.43,3.65-26.66S873.25,888.59,873.25,888.59Z"/><path class="cls-6" d="M405.64,682.47c.37,1.11,33.9,31.13,44.33,47.82s8.94,23,8.94,23-19,5.56-35,7-3.72,5.19,37.26-5.19c0,0,33.9,2.23,39.12-.37s-29.81.74-33.91-1.11,9.69,4.08,25.71-14.09,33.16-50,33.16-50-106.18-15.57-110.65-15.2S405.64,682.47,405.64,682.47Z"/><path class="cls-13" d="M366.71,652.38s56.52,42.83,78.21,60.81,26,23.22,30.88,25.18,45.35-41.52,52.91-53.29-95.62-92.21-106.47-98.74S350.61,638,366.71,652.38Z"/><path class="cls-29" d="M380.18,647.8s81.49,66.7,88.07,70.63,7.55,7.52,19.38-6.22a269.87,269.87,0,0,1,25.63-25.5s7.89-8.5-2.62-18S427.5,596.8,427.5,596.8s-6.57-6.54-18.73,2.29-29.57,29.75-31.54,34S373.28,642.25,380.18,647.8Z"/><path class="cls-7" d="M394.64,670.36c.11-.72.66-8.5,13.15-15.36s49.94,3.27,34.83,12.42-24.65,9.81-26.29,14.71S392.67,684.1,394.64,670.36Z"/><path class="cls-7" d="M439.33,628.51s3.29-17,15.12-23.87,25.63,3.6,8.21,25.51S436,637,439.33,628.51Z"/><path class="cls-7" d="M456.42,641.59s12.49-20.27,30.56-27.46,22.67,8.82,4.6,23.86S446.56,661.54,456.42,641.59Z"/><path class="cls-7" d="M483.36,659.25s16.11-20.27,26.29-26.49,21,2,4.27,20.6S471.53,678.86,483.36,659.25Z"/><path class="cls-7" d="M508.34,678.54s8.21-20.6,18.4-28.12,20.37,8.17,7.88,28.12S502.42,694.23,508.34,678.54Z"/><path class="cls-30" d="M333.15,785.24c3,1.13,6.31,4,5.24,7.5-.76,2.51-3.18,3.17-5.55,3.06-2.79-.13-5.36-1.2-8-2-3.94-1.15-8-1.91-11.95-3a32.81,32.81,0,0,1-6.24-2.47,25.69,25.69,0,0,0-5.32-2.19.63.63,0,0,0-.33,1.21,29.53,29.53,0,0,1,5.94,2.52,32.21,32.21,0,0,0,6.08,2.26c4.75,1.28,9.56,2.22,14.25,3.75,4.36,1.43,11.81,2.44,12.56-3.9.45-3.86-3.1-6.75-6.34-8-.75-.29-1.08.92-.33,1.2Z"/><path class="cls-30" d="M304.2,802.58a56.19,56.19,0,0,0,12.18,2.93c4.22.57,9.43,1,13.28-1.21a6.48,6.48,0,0,0,3.21-5c.1-.8-1.15-.79-1.25,0-.5,4.12-4.93,5.15-8.42,5.33A46.54,46.54,0,0,1,309.78,803a45.81,45.81,0,0,1-5.24-1.59c-.76-.28-1.08.93-.34,1.21Z"/><path class="cls-30" d="M307.54,813.18a19.08,19.08,0,0,0,4.47,1.15,40.77,40.77,0,0,0,6.24.56,20.71,20.71,0,0,0,6.08-.65,5.51,5.51,0,0,0,3.6-2.53c.95-2-.19-4.17-1.31-5.78-.45-.66-1.54,0-1.08.63.83,1.2,2,3,1.32,4.49-.5,1.19-1.91,1.72-3.05,2-3.53,1-7.53.64-11.11.09a19.45,19.45,0,0,1-4.53-1.08c-.73-.31-1.37.77-.63,1.08Z"/><path class="cls-30" d="M328.71,817.71a8.5,8.5,0,0,1-4.24,1.24.64.64,0,0,0-.62.63.62.62,0,0,0,.62.62,9.65,9.65,0,0,0,4.87-1.42.62.62,0,1,0-.63-1.07Z"/><path class="cls-30" d="M341.36,807.62c2.63,5,5.82,12.37,1.87,17.51-.49.64.6,1.26,1.08.63,4.24-5.51.95-13.39-1.87-18.77-.38-.71-1.46-.08-1.08.63Z"/><path class="cls-30" d="M539.17,668.84c-4.16,7.52-8.06,15.27-15.32,20.31-.66.46,0,1.54.63,1.08a36,36,0,0,0,9.12-9.33,131.33,131.33,0,0,0,6.65-11.43c.39-.7-.69-1.33-1.08-.63Z"/><path class="cls-30" d="M429.91,768.7c2.5.89,5.72-.08,8.2-.6a91.5,91.5,0,0,1,11-1.56c9.54-.86,19.12-1.27,28.69-1.59l16.38-.49c.8,0,.81-1.28,0-1.25-9.47.3-18.94.51-28.41,1-4.74.22-9.48.51-14.22.9a93.72,93.72,0,0,0-11.34,1.3c-1.74.36-3.46.77-5.21,1.06a9.75,9.75,0,0,1-4.71.06c-.76-.27-1.09.94-.34,1.2Z"/><path class="cls-30" d="M581.52,807.79c-3.7,4.9-10.35,5.85-16,6.91-.79.15-.46,1.36.33,1.21,6-1.14,12.78-2.26,16.73-7.49.48-.64-.6-1.26-1.08-.63Z"/><path class="cls-30" d="M580.92,808.47a24.88,24.88,0,0,1-14.19,16.17c-.74.31-.1,1.39.63,1.08a26,26,0,0,0,14.76-16.92.62.62,0,0,0-1.2-.33Z"/><path class="cls-30" d="M597.6,817.88a15.43,15.43,0,0,0-5.83,1.74,38.44,38.44,0,0,0-7.44,4.4c-2.89,2.2-7.89,6.64-5.14,10.68,1.19,1.75,3.44,2.36,5.42,2.66a38.93,38.93,0,0,0,8.7.06c2.82-.24,5.62-.62,8.42-1,3-.42,6-.67,9-1,11.06-1.32,22-3.3,32.9-5.6.79-.17.46-1.37-.33-1.21-9,1.9-18,3.59-27.06,4.85-6.1.85-12.23,1.49-18.34,2.26a80,80,0,0,1-8.32.69,19,19,0,0,1-7.3-.89c-1.71-.68-2.93-2.16-2.48-4.07.49-2.12,2.29-3.86,3.86-5.22a35.71,35.71,0,0,1,7.62-5c1.9-.94,4.17-2.07,6.35-2.11a.63.63,0,0,0,0-1.25Z"/><path class="cls-30" d="M624.57,851.78A191.33,191.33,0,0,0,604,844.69a49,49,0,0,0-9-1.83c-2.16-.18-5-.24-6.79,1.18-5.57,4.36,11,13.1,13.42,14.42,2.28,1.24,4.6,2.41,7,3.46a25.29,25.29,0,0,0,4.68,1.73c.78.17,1.12-1,.33-1.2-3.13-.69-6.18-2.38-9-3.83a77.16,77.16,0,0,1-11.51-7c-1.22-.94-5.92-4.24-4.44-6.29,1.09-1.51,4.14-1.35,5.73-1.26a42.16,42.16,0,0,1,8.7,1.65A187.68,187.68,0,0,1,624.24,853c.74.31,1.07-.9.33-1.2Z"/><path class="cls-30" d="M601.19,835.78a12.69,12.69,0,0,0-4.34,3c-1.07,1.11-2.29,2.86-1.36,4.41a4.6,4.6,0,0,0,3,1.78c.78.19,1.11-1,.33-1.2a6.43,6.43,0,0,1-1.47-.52A2.63,2.63,0,0,1,597,843a3.23,3.23,0,0,1-.31-.29l-.11-.19-.06-.11s0,.08,0,0l-.06-.19s0-.12,0,0v-.11a.74.74,0,0,1,0-.21c0-.14,0,0,0-.1a2.75,2.75,0,0,1,.14-.49,8.27,8.27,0,0,1,3-3.2q.51-.36,1.08-.69l.48-.26.25-.12.08,0c.18-.07-.11,0,.06,0a.66.66,0,0,0,.44-.77.63.63,0,0,0-.77-.43Z"/><path class="cls-30" d="M593,852.86A13.56,13.56,0,0,0,594.11,866c.46.66,1.54,0,1.08-.63a12.31,12.31,0,0,1-1.07-11.9c.35-.72-.72-1.36-1.08-.64Z"/><path class="cls-30" d="M588.17,864.12c4.61,3.45,10.31,4.09,15.86,4.62.8.08.8-1.17,0-1.25-5.35-.51-10.79-1.13-15.22-4.45-.65-.48-1.27.6-.64,1.08Z"/><path class="cls-30" d="M702.13,799.79c-1.76,3-5.59,3.52-8.73,3.64s-6.5-.31-9.76-.49c-.8,0-.8,1.21,0,1.25,3.57.2,7.11.7,10.69.44,3.34-.24,7-1.13,8.88-4.21a.63.63,0,0,0-1.08-.63Z"/><path class="cls-30" d="M715.49,791.29c-6.72,3.63-11.83,9.4-17.52,14.37-2.29,2-4.79,3.72-7.11,5.67-1.55,1.3-3.38,2.83-4.12,4.78-2,5.27,8.25,5.07,10.92,5a46.91,46.91,0,0,0,20-4.93A45.31,45.31,0,0,0,735.11,801c.45-.67-.63-1.3-1.08-.63a45.11,45.11,0,0,1-32.58,19.34c-2.07.21-14.94,1.24-13.59-3,.57-1.77,2.41-3.22,3.78-4.37,2-1.68,4.14-3.15,6.13-4.82,6.07-5.1,11.29-11.3,18.35-15.11.71-.38.08-1.46-.63-1.08Z"/><path class="cls-30" d="M726.63,810.84c6.57,1.62,13.29-1.63,19-4.6.71-.37.08-1.45-.63-1.08-5.36,2.8-11.81,6-18,4.47-.78-.19-1.11,1-.33,1.21Z"/><path class="cls-30" d="M676.13,813.48c1.88,2.64,4.87,4.23,7.77,5.48,3.29,1.43,6.72,2.46,10.12,3.6a68.25,68.25,0,0,1,11.82,4.92c3.2,1.79,6.77,4.19,8.84,7.31.85,1.28,1.18,2.71-.1,3.8s-3.45,1.61-5.19,1.93A58.48,58.48,0,0,1,695,841a46.5,46.5,0,0,1-22.54-7.56c-.67-.45-1.29.64-.63,1.08,10.51,7.06,24.15,9.19,36.57,7.43,2.83-.4,8.67-1.38,8.34-5.36-.2-2.37-2.42-4.3-4.05-5.78a40.07,40.07,0,0,0-12-7.15c-4.08-1.65-8.31-2.88-12.45-4.35-3.82-1.35-8.53-3-11-6.45-.46-.65-1.54,0-1.08.63Z"/><path class="cls-30" d="M663.8,827.09a6.92,6.92,0,0,0,1.24,1.66,6.74,6.74,0,0,0,1.67,1.23.63.63,0,0,0,.85-.22.64.64,0,0,0-.22-.86,5.73,5.73,0,0,1-.79-.48l-.07-.06,0,0-.06,0-.18-.15c-.12-.11-.24-.22-.35-.34s-.22-.22-.32-.34l-.17-.19,0,0,0,0a6.36,6.36,0,0,1-.49-.78.63.63,0,0,0-.85-.23.66.66,0,0,0-.23.86Z"/><path class="cls-30" d="M682.67,856.18c5.4,2,11.49,1.54,17.13,1.41,3.92-.1,7.87.06,11.75-.66,2.78-.51,7.32-1.93,7-5.57-.11-1.51-1.47-2.62-2.63-3.41a27.65,27.65,0,0,0-5.67-2.79c-1.84-.71-3.71-1.27-5.57-1.92-3.49-1.23-7.07-1.59-10.72-2.13-.78-.12-1.12,1.08-.33,1.2a70.73,70.73,0,0,1,8.79,1.48c1.64.46,3.28,1.08,4.9,1.64a47.06,47.06,0,0,1,5.38,2.14c1.48.71,3.33,1.58,4.26,3,.8,1.22,0,2.62-1,3.41a11.33,11.33,0,0,1-4.74,1.74,67,67,0,0,1-10.69.59c-5.77.13-12,.68-17.52-1.34-.76-.28-1.09.93-.34,1.2Z"/><path class="cls-30" d="M700,857.8c3.35.05,7,1.73,9.94,3.18a27.25,27.25,0,0,1,5.22,3.24A7.7,7.7,0,0,1,718,868a3.85,3.85,0,0,1-2.27,4.07c-2.28,1.19-5.26.77-7.68.31s-4.79-1.19-7.18-1.81-4.62-.92-6.92-1.46a22.84,22.84,0,0,1-8.25-3.27c-2.94-2.14-4.38-6.15-2.34-9.4.43-.69-.65-1.32-1.08-.63a7.92,7.92,0,0,0,.54,8.9,13.82,13.82,0,0,0,6.78,4.45,62.82,62.82,0,0,0,8.78,2.15c2.7.54,5.32,1.41,8,2,4.05.91,11.36,1.88,12.81-3.53,1-3.84-3.48-6.92-6.25-8.56a40.32,40.32,0,0,0-7.25-3.34,18.53,18.53,0,0,0-5.73-1.32.63.63,0,0,0,0,1.25Z"/><path class="cls-30" d="M730,868.55c1.12,2.9,1.93,5.92,3.19,8.78s2.92,5.57,5.67,7.06c.71.38,1.34-.7.63-1.08-2.63-1.42-4.17-4.15-5.31-6.81s-1.92-5.55-3-8.29c-.28-.74-1.49-.42-1.2.34Z"/><path class="cls-30" d="M704.12,878.05c3.12.53,6.11,1.61,9.28,1.89.8.07.79-1.18,0-1.25-3-.27-5.95-1.33-8.95-1.84-.79-.14-1.13,1.07-.33,1.2Z"/><path class="cls-31" d="M662.64,696.46a6.6,6.6,0,0,0-.18,1.6,7.22,7.22,0,0,0,.14,1,1.58,1.58,0,0,0,.11.37,5.1,5.1,0,0,0,.41.89c.15.21.31.42.48.62l.14.14a4.61,4.61,0,0,0,1.7,1,2.21,2.21,0,0,0,.46.11,8.15,8.15,0,0,0,1.2.13,1.93,1.93,0,0,0,1-.21,2.05,2.05,0,0,0,.81-.52,2.75,2.75,0,0,0,.73-1.77l-.09-.66a2.48,2.48,0,0,0-.64-1.11,2.59,2.59,0,0,0-1.77-.73,3.71,3.71,0,0,1-.47,0l.66.09a2.42,2.42,0,0,1-.64-.17l.6.26a1.79,1.79,0,0,1-.38-.22l.5.39a2.47,2.47,0,0,1-.28-.28l.4.51a1.37,1.37,0,0,1-.2-.35l.25.6a1.91,1.91,0,0,1-.14-.52l.09.66a3.17,3.17,0,0,1,0-.87l-.09.67c0-.1,0-.2.05-.3a1.89,1.89,0,0,0,0-1,1.85,1.85,0,0,0-.29-.93,2,2,0,0,0-.65-.7,1.89,1.89,0,0,0-.85-.45l-.66-.09a2.57,2.57,0,0,0-1.27.34,2.46,2.46,0,0,0-1.14,1.5Z"/><path class="cls-31" d="M663,688.37c3.22,0,3.22-5,0-5s-3.22,5,0,5Z"/><path class="cls-31" d="M674,673c3.21,0,3.22-5,0-5s-3.23,5,0,5Z"/><path class="cls-31" d="M659.46,665.17a2.26,2.26,0,0,0,.57.4,2.64,2.64,0,0,1,.46.27l-.13-.1a.69.69,0,0,1,.13.11.62.62,0,0,0,.89,0,.6.6,0,0,0,.18-.44.67.67,0,0,0-.18-.44,2.45,2.45,0,0,0-.57-.4,2.64,2.64,0,0,1-.46-.27l.13.1a.69.69,0,0,1-.13-.11.62.62,0,0,0-.89,0,.6.6,0,0,0-.18.44.67.67,0,0,0,.18.44Z"/><path class="cls-31" d="M669,716.82c15.52,5.78,32.09,3.35,47.58-1.16,2.16-.63,4.31-1.3,6.45-2l3.31-1.08a9.85,9.85,0,0,1,2.8-.86.63.63,0,0,0,0-1.25h-.34a.64.64,0,0,0-.61.46c-.29,1-.39,2-.68,3.07a.63.63,0,0,0,1,.6c2.38-2.47,6.26-3.12,9.38-4.21,2.77-1,5.87-2.27,6.89-5.27.26-.76-.95-1.09-1.2-.33-1.05,3.05-5,4.07-7.69,5s-6.12,1.75-8.26,4l1,.61c.3-1,.39-2.06.69-3.07l-.6.46h.34a.63.63,0,0,0,0-1.25c-1.44,0-3.09.89-4.45,1.34-1.92.63-3.83,1.24-5.76,1.83-3.86,1.18-7.74,2.26-11.68,3.14a77.46,77.46,0,0,1-24.22,2,53.38,53.38,0,0,1-13.7-3.16c-.75-.28-1.08.93-.33,1.21Z"/><path class="cls-31" d="M671.8,714.27a4.05,4.05,0,0,0,1.84,1.15,2.57,2.57,0,0,0,2-.37.63.63,0,0,0,.23-.85A.64.64,0,0,0,675,714l-.17.11a1.51,1.51,0,0,1-.18.09s.11,0,0,0l-.11,0-.17,0s-.12,0,0,0,0,0,0,0H674l-.11,0-.17-.05-.09,0s.11,0,0,0a2.37,2.37,0,0,1-.35-.19l-.17-.12s-.13-.09-.07,0,0,0-.05,0l-.37-.34a.62.62,0,0,0-.88.88Z"/><path class="cls-31" d="M678.13,709.74a1.59,1.59,0,0,0,.36,1.19.88.88,0,0,0,.67.25,1.74,1.74,0,0,0,.67-.2,5.41,5.41,0,0,0,.61-.36.67.67,0,0,0,.29-.37.62.62,0,0,0-.07-.48.57.57,0,0,0-.37-.29.62.62,0,0,0-.48.06,4.76,4.76,0,0,1-.69.4l.15-.07a.81.81,0,0,1-.25.08l.16,0h-.11l.17,0-.08,0,.15.06,0,0,.12.1,0,0,.1.12a.41.41,0,0,1,0-.09l.06.15a1.14,1.14,0,0,1-.06-.25l0,.17a2.36,2.36,0,0,1,0-.37.65.65,0,0,0-.18-.44.68.68,0,0,0-.45-.19.63.63,0,0,0-.44.19.65.65,0,0,0-.18.44Z"/><path class="cls-31" d="M677.63,704.52l0,0-.16.21,0,.05c0,.06,0,.12-.07.17v0a1.25,1.25,0,0,0,0,.19s0,.07,0,.1,0,.07,0,.11a.72.72,0,0,0,.17.29.8.8,0,0,0,.32.19h0l.22,0a.52.52,0,0,0,.24,0,.53.53,0,0,0,.2-.13.63.63,0,0,0,.13-.2.42.42,0,0,0,.05-.24l0-.17a.61.61,0,0,0-.16-.28l-.13-.09a.56.56,0,0,0-.31-.09H678l.16,0h0l.15.06h0l.13.1,0,0,.1.13v0l.07.15v0l0,.17v0l0,.17s0,0,0,0l-.06.15.07-.11-.1.13a.27.27,0,0,1,.07-.08.63.63,0,0,0,.13-.2.42.42,0,0,0,.05-.24.43.43,0,0,0-.05-.25.63.63,0,0,0-.13-.2l-.13-.09a.56.56,0,0,0-.31-.09l-.17,0a.67.67,0,0,0-.27.16Z"/><path class="cls-31" d="M692.12,712.07a.63.63,0,0,0,0-1.25.63.63,0,0,0,0,1.25Z"/><path class="cls-31" d="M684.24,724a7.52,7.52,0,0,0,4.08-1.1.65.65,0,0,0,.23-.86.63.63,0,0,0-.86-.22,6.24,6.24,0,0,1-3.45.93.64.64,0,0,0-.63.63.63.63,0,0,0,.63.62Z"/><path class="cls-31" d="M695.89,724.34H696l-.17,0a1,1,0,0,1,.25.07l-.15-.06.37.17a1.66,1.66,0,0,0,.66.18.68.68,0,0,0,.44-.19.6.6,0,0,0,.18-.44.65.65,0,0,0-.18-.44.67.67,0,0,0-.44-.18h-.08l.17,0a1,1,0,0,1-.25-.07l.15.06-.37-.17a1.62,1.62,0,0,0-.65-.18.65.65,0,0,0-.63.63.61.61,0,0,0,.19.44.65.65,0,0,0,.44.18Z"/><path class="cls-31" d="M675,722.3a.63.63,0,0,0,0-1.25.63.63,0,0,0,0,1.25Z"/><path class="cls-31" d="M688.07,726.79a1.07,1.07,0,0,0,0,.25s0,0,0,0v0a1.22,1.22,0,0,0,.07.17,1.18,1.18,0,0,0,.13.18l0,0a1.18,1.18,0,0,0,.18.13,1.21,1.21,0,0,0,.2.09l.09,0,.19,0h0a.43.43,0,0,0,.25,0,.63.63,0,0,0,.2-.13.53.53,0,0,0,.13-.2.64.64,0,0,0,0-.24l0-.17a.67.67,0,0,0-.16-.27l-.13-.1a.59.59,0,0,0-.32-.09h0l.17,0a.23.23,0,0,1-.11,0l.15.07-.08,0,.13.1a.12.12,0,0,1,0-.05l.1.13a.25.25,0,0,1,0-.07l.06.15a.29.29,0,0,1,0-.09l0,.17v-.06a.48.48,0,0,0-.06-.24.39.39,0,0,0-.13-.2.34.34,0,0,0-.2-.13.48.48,0,0,0-.24-.06l-.16,0a.53.53,0,0,0-.28.16l-.1.12a.69.69,0,0,0-.08.32Z"/><path class="cls-31" d="M664.1,653.31c-.17.5-.34,1-.48,1.52a5.78,5.78,0,0,0-.23,1.37.63.63,0,1,0,1.25,0c0-.09,0-.19,0-.29s0,.16,0,0l0-.16c0-.22.09-.44.15-.65.14-.49.3-1,.47-1.47a.64.64,0,0,0-.44-.77.65.65,0,0,0-.77.44Z"/><path class="cls-31" d="M667.35,645.87a4.91,4.91,0,0,0-1.07,1.69,3,3,0,0,0-.12,2,.62.62,0,1,0,1.2-.33,1.33,1.33,0,0,1-.05-.19s0-.06,0-.08,0,.13,0,0a2.41,2.41,0,0,1,0-.38c0-.11,0,0,0,0a.28.28,0,0,0,0-.09c0-.07,0-.14.05-.21a3.1,3.1,0,0,1,.13-.4s0-.11,0,0,0,0,0,0l.09-.19.21-.37.12-.16a.35.35,0,0,1,0-.08c0-.07-.07.09,0,0a3.58,3.58,0,0,1,.26-.29.64.64,0,0,0,0-.89.65.65,0,0,0-.88,0Z"/><path class="cls-31" d="M661.18,647.58a18.74,18.74,0,0,0-2.16,2.85.63.63,0,0,0,.23.86.64.64,0,0,0,.85-.23c.33-.49.66-1,1-1.47l.24-.32c0-.07-.07.08,0,0l.06-.08.14-.17c.16-.19.33-.39.51-.57a.62.62,0,0,0-.88-.88Z"/><path class="cls-31" d="M669.56,640.18v1a.65.65,0,0,0,.18.44.68.68,0,0,0,.45.19.61.61,0,0,0,.44-.19.65.65,0,0,0,.18-.44v-1a.65.65,0,0,0-.18-.44.68.68,0,0,0-.44-.19.64.64,0,0,0-.45.19.65.65,0,0,0-.18.44Z"/><path class="cls-31" d="M672.3,633.36V634a.48.48,0,0,0,.06.24.34.34,0,0,0,.13.2.39.39,0,0,0,.2.13.48.48,0,0,0,.24.06l.16,0a.61.61,0,0,0,.28-.16.65.65,0,0,0,.18-.44v-.68a.39.39,0,0,0,0-.24.46.46,0,0,0-.13-.2.44.44,0,0,0-.2-.13.53.53,0,0,0-.24-.06l-.17,0a.57.57,0,0,0-.27.16.61.61,0,0,0-.19.44Z"/><path class="cls-31" d="M676.6,645.73a3,3,0,0,0,2.15.53.63.63,0,1,0,0-1.25,7.47,7.47,0,0,1-1,0l.16,0a1.82,1.82,0,0,1-.46-.11l.15.06a1,1,0,0,1-.23-.13l.13.1-.07-.06a.62.62,0,1,0-.88.88Z"/><path class="cls-31" d="M676.36,638.08a.63.63,0,0,0,0-1.25.63.63,0,0,0,0,1.25Z"/><path class="cls-31" d="M664.36,669.79h0l-.16,0a.73.73,0,0,1,.24.07l-.15-.07a1.91,1.91,0,0,1,.27.16l-.13-.1.12.11a.39.39,0,0,0,.21.13.48.48,0,0,0,.24.06.53.53,0,0,0,.24-.06.41.41,0,0,0,.2-.13.59.59,0,0,0,.18-.44.67.67,0,0,0-.18-.44,1.93,1.93,0,0,0-.75-.46l-.15,0-.23,0a.39.39,0,0,0-.24.05.53.53,0,0,0-.2.13.44.44,0,0,0-.13.2.42.42,0,0,0,0,.24l0,.17a.57.57,0,0,0,.16.27.61.61,0,0,0,.44.19Z"/><path class="cls-31" d="M658.53,678.31h.35a.52.52,0,0,0,.24,0,.53.53,0,0,0,.2-.13.63.63,0,0,0,.13-.2.42.42,0,0,0,0-.24l0-.17a.61.61,0,0,0-.16-.28l-.13-.09a.56.56,0,0,0-.31-.09h-.35a.53.53,0,0,0-.24.06.47.47,0,0,0-.2.12.57.57,0,0,0-.13.21.47.47,0,0,0-.05.24l0,.16a.71.71,0,0,0,.16.28l.13.1a.68.68,0,0,0,.31.08Z"/><path class="cls-31" d="M706.54,711a5.23,5.23,0,0,0,2.63,1,5.83,5.83,0,0,0,3.14-.68.62.62,0,0,0,.22-.85.63.63,0,0,0-.85-.23,4.59,4.59,0,0,1-2.51.51,4.16,4.16,0,0,1-2-.85.62.62,0,0,0-.85.23.63.63,0,0,0,.22.85Z"/><path class="cls-31" d="M695,701.58c-.19.37-.35.76-.55,1.13-.05.09-.1.18-.16.27l-.09.12c-.06.09.1-.12,0,0l0,0-.2.2,0,0-.06.05-.13.07a.63.63,0,1,0,.63,1.08,2.62,2.62,0,0,0,1-1.09c.22-.38.38-.79.58-1.18a.64.64,0,0,0-.23-.85.63.63,0,0,0-.85.22Z"/><path class="cls-31" d="M706.23,700.19v.07l0-.16a1.09,1.09,0,0,1,0,.17l.06-.15a1.27,1.27,0,0,1-.18.29l.1-.13a3.49,3.49,0,0,1-.45.49.62.62,0,0,0,0,.89.6.6,0,0,0,.44.18.65.65,0,0,0,.44-.18,2.3,2.3,0,0,0,.87-1.47.65.65,0,0,0-.18-.44.62.62,0,0,0-.44-.18.63.63,0,0,0-.45.18.65.65,0,0,0-.18.44Z"/><path class="cls-31" d="M706.41,705.89l-.17.15.13-.1a2.8,2.8,0,0,1-.56.32l.15-.06a3.28,3.28,0,0,1-.68.19l.16,0-.3,0a.62.62,0,0,0-.62.62.63.63,0,0,0,.62.63,3.44,3.44,0,0,0,1.23-.27,3,3,0,0,0,.93-.6.63.63,0,1,0-.89-.88Z"/><path class="cls-31" d="M689.44,696.78v.34a.39.39,0,0,0,0,.24.46.46,0,0,0,.13.2.44.44,0,0,0,.2.13.53.53,0,0,0,.24.06l.17,0a.5.5,0,0,0,.27-.16l.1-.12a.62.62,0,0,0,.09-.32v-.34a.53.53,0,0,0-.06-.24.37.37,0,0,0-.13-.2.46.46,0,0,0-.2-.13.39.39,0,0,0-.24-.05l-.16,0a.61.61,0,0,0-.28.16l-.1.13a.65.65,0,0,0-.08.31Z"/><path class="cls-31" d="M724.05,699.85v.34a.47.47,0,0,0,.05.24.46.46,0,0,0,.13.2.49.49,0,0,0,.2.13.53.53,0,0,0,.24.06l.17,0a.61.61,0,0,0,.28-.16l.09-.12a.62.62,0,0,0,.09-.32v-.34h0a.48.48,0,0,0-.06-.24.41.41,0,0,0-.12-.2.46.46,0,0,0-.21-.13.39.39,0,0,0-.24,0l-.16,0a.61.61,0,0,0-.28.16l-.1.13a.65.65,0,0,0-.08.31Z"/><path class="cls-31" d="M711.75,663.81l.3-.3.05,0a.47.47,0,0,0,.12-.2.53.53,0,0,0,.06-.24.48.48,0,0,0-.06-.24.45.45,0,0,0-.12-.21l-.13-.09a.59.59,0,0,0-.32-.09l-.16,0a.71.71,0,0,0-.28.16l-.3.3,0,0a.66.66,0,0,0-.18.44.42.42,0,0,0,0,.24.44.44,0,0,0,.13.2l.13.1a.65.65,0,0,0,.31.08l.17,0a.63.63,0,0,0,.27-.16Z"/><path class="cls-31" d="M712.83,651.75a9.11,9.11,0,0,1,.8,1.39c0,.05,0,.11.08.17s-.05-.12,0,0l0,.1c0,.13.1.25.14.38.1.3.19.61.27.92a.62.62,0,0,0,1.2-.33,10.31,10.31,0,0,0-.61-1.8,10.48,10.48,0,0,0-.82-1.42.64.64,0,0,0-.86-.23.63.63,0,0,0-.22.86Z"/><path class="cls-31" d="M726.11,655.18c0,.1,0,.2,0,.3l0-.17a4,4,0,0,1-.28,1l.06-.15c-.12.27-.25.54-.38.8a.63.63,0,1,0,1.08.63,5.53,5.53,0,0,0,.77-2.36.63.63,0,0,0-.63-.62.62.62,0,0,0-.62.62Z"/><path class="cls-31" d="M728.54,647.92l-.29-.3,0,0a.46.46,0,0,0-.2-.13.6.6,0,0,0-.48,0,.53.53,0,0,0-.2.13l-.1.13a.58.58,0,0,0-.08.31l0,.17a.53.53,0,0,0,.16.27l.3.3,0,0a.41.41,0,0,0,.2.12.53.53,0,0,0,.24.06.48.48,0,0,0,.24-.06.37.37,0,0,0,.2-.12l.1-.13a.59.59,0,0,0,.09-.32l0-.16a.62.62,0,0,0-.17-.28Z"/><path class="cls-31" d="M716.7,639.4a1.56,1.56,0,0,1-.2.16l.13-.09a9.4,9.4,0,0,1-1.52.85.65.65,0,0,0-.29.38.66.66,0,0,0,.06.48.64.64,0,0,0,.86.22c.33-.16.67-.33,1-.52a4.15,4.15,0,0,0,.84-.6.62.62,0,1,0-.88-.88Z"/><path class="cls-31" d="M697.16,649.63a2.2,2.2,0,0,0-.4.56,2.64,2.64,0,0,1-.27.46l.1-.13a.69.69,0,0,1-.11.13.61.61,0,0,0-.19.44.6.6,0,0,0,.19.44.66.66,0,0,0,.44.19.68.68,0,0,0,.44-.19,2.15,2.15,0,0,0,.4-.55,2.51,2.51,0,0,1,.26-.45l-.1.12.13-.14a.63.63,0,0,0,0-.88.62.62,0,0,0-.89,0Z"/><path class="cls-31" d="M709.94,629.89a.63.63,0,0,0,0-1.25.63.63,0,0,0,0,1.25Z"/><path class="cls-31" d="M711.31,624.44a.63.63,0,0,0,0-1.25.63.63,0,0,0,0,1.25Z"/><path class="cls-31" d="M726.05,630.58a.63.63,0,0,0,0-1.25.63.63,0,0,0,0,1.25Z"/><path class="cls-32" d="M594,775.78c-.63,3-1.28,7,2,8.72a13.89,13.89,0,0,0,4.55,1.08,24.27,24.27,0,0,0,5.18.2,9.78,9.78,0,0,0,4.3-1.21,5.28,5.28,0,0,0,2.31-3.44,20.67,20.67,0,0,0,.32-6.66c-.11-1.2-.69-1.54-1.85-1.61A59.1,59.1,0,0,0,593.88,774c-.78.19-.45,1.39.34,1.21a55.13,55.13,0,0,1,13.32-1.2c1,0,1.94,0,2.9.08a5.66,5.66,0,0,1,.82.06c.24.05.07,0,.12,0a4.63,4.63,0,0,1,.11,1.44,20.32,20.32,0,0,1,0,3.31c-.15,1.47-.38,3.2-1.56,4.21a6.77,6.77,0,0,1-3.55,1.33,24,24,0,0,1-8.1-.52c-1.62-.34-3-1.11-3.45-2.83a11.88,11.88,0,0,1,.36-5c.16-.79-1-1.13-1.2-.34Z"/><path class="cls-32" d="M600.37,773.93c1.32,3.91,0,8.14,1.18,12.09a.63.63,0,0,0,1.21-.33c-1.16-3.94.14-8.16-1.19-12.09-.25-.76-1.46-.43-1.2.33Z"/><path class="cls-32" d="M598.85,790.39a16.63,16.63,0,0,1-.34,2.35c-.18.49.35.86.77.77a17.58,17.58,0,0,1,2.06-.27c.54,0,1.09-.07,1.62-.17a2.2,2.2,0,0,0,1.82-1.79,11.67,11.67,0,0,0,.19-2.57h-1.25v.17l.63-.62a19,19,0,0,0-6.41.86.64.64,0,0,0-.44.77.63.63,0,0,0,.77.43,18.12,18.12,0,0,1,6.08-.81.63.63,0,0,0,.62-.63v-.17a.63.63,0,0,0-1.25,0c0,.4,0,.81,0,1.21,0,.16,0,.32,0,.47l0,.22c0-.12,0,.07,0,.11a2.66,2.66,0,0,1-.18.67c.07-.17,0,.06-.07.11s-.09.14,0,0,0,0-.05.05l-.08.07c-.06.07.12-.06,0,0l-.21.12c.09,0,.1,0,0,0l-.11,0-.28.07-.14,0c-.1,0,.13,0,0,0l-.34,0-.79.06a19.32,19.32,0,0,0-2.39.32l.77.77a4.83,4.83,0,0,0,.25-1.3,7.31,7.31,0,0,1,.08-1c.18-.79-1-1.12-1.2-.34Z"/><path class="cls-32" d="M607.63,797.28c.55,2.69,0,5.5.31,8.22a.64.64,0,0,0,.79.61,5.4,5.4,0,0,0,4.62-4.26,11.9,11.9,0,0,0-1-6.75.64.64,0,0,0-.6-.46,7,7,0,0,0-4.19.75c-.71.39-.08,1.47.63,1.08a5.83,5.83,0,0,1,3.56-.58l-.6-.46a11.16,11.16,0,0,1,1,5.88,4.35,4.35,0,0,1-1.07,2.33,4.74,4.74,0,0,1-2.71,1.26l.79.6c-.32-2.84.22-5.74-.36-8.56-.16-.78-1.37-.45-1.2.34Z"/><path class="cls-32" d="M595.88,798.43c-.08-.18,0,.11,0,.16s.07.24.11.37c.09.35.18.72.25,1.08.21.93.37,1.87.5,2.81a18.57,18.57,0,0,1,.23,5.66,3.43,3.43,0,0,1-.21.75c-.09.17,0,.08-.13.18v0c-.15,0,0,0,.06,0s-.07,0,0,0,.09.09,0,0,.07.11,0,0a3.08,3.08,0,0,1-.35-.76,19.53,19.53,0,0,1-.76-5.64,17.24,17.24,0,0,1,.16-3.13,5.66,5.66,0,0,1,.27-1.15l.16-.29c0-.07,0,0,.07-.07.71-.39.08-1.47-.63-1.08a2.55,2.55,0,0,0-1,1.76,15.26,15.26,0,0,0-.29,3.09,22.44,22.44,0,0,0,.74,6.63,3,3,0,0,0,1.07,1.8,1.3,1.3,0,0,0,1.74-.57,5.32,5.32,0,0,0,.5-2.46,23.05,23.05,0,0,0-.17-3.42c-.14-1.29-.33-2.58-.59-3.86a11.76,11.76,0,0,0-.65-2.41c-.31-.74-1.39-.1-1.07.63Z"/><path class="cls-32" d="M607.24,808.16a15.39,15.39,0,0,1-2,.68c-.9.26-1.8.52-2.68.86-1.34.52-3.48,1.56-3,3.37s3.09,1.25,4.33.92a23.59,23.59,0,0,0,2.58-.85,7.88,7.88,0,0,0,2.62-1.58,3.05,3.05,0,0,0,.91-2.81c-.39-1.14-1.78-1-2.72-.83-.78.19-.45,1.39.33,1.21a2.17,2.17,0,0,1,1-.08s.21.11.14.06a.32.32,0,0,1,.06.18,2.39,2.39,0,0,1-.93,1.65,11.83,11.83,0,0,1-4.32,1.83,6.68,6.68,0,0,1-1.93.28,2,2,0,0,1-.68-.1.56.56,0,0,1-.19-.12c.07.07,0-.07,0-.08s0-.06,0-.09a1.37,1.37,0,0,1,.77-1.06,7.92,7.92,0,0,1,1.86-.88,42.21,42.21,0,0,0,4.54-1.48c.72-.36.09-1.43-.63-1.08Z"/><path class="cls-32" d="M508.9,695.44a37.13,37.13,0,0,0-6.37,4.31,29.79,29.79,0,0,0-5,5.06,6.3,6.3,0,0,0-1.49,4,2.27,2.27,0,0,0,2.37,2.1c2.72.08,4.81-1.64,6.59-3.45a32.65,32.65,0,0,0,5.22-6.66,5.79,5.79,0,0,0,1-3.21c-.12-1.18-1.11-1.69-2.21-1.76-.8,0-.8,1.21,0,1.25a2,2,0,0,1,.49.08.86.86,0,0,1,.29.14.59.59,0,0,1,.2.49,5,5,0,0,1-.79,2.28,30,30,0,0,1-4.44,5.83c-.71.75-1.44,1.5-2.22,2.18a7,7,0,0,1-2.65,1.34c-.75.22-2.29.6-2.57-.47s.5-2.35,1.06-3.19a26.31,26.31,0,0,1,4.81-4.91,36,36,0,0,1,6.38-4.33c.71-.38.08-1.46-.63-1.08Z"/><path class="cls-32" d="M391.32,608.66a4.29,4.29,0,0,0-1.75,2.55.63.63,0,0,0,.61.79,3.45,3.45,0,0,0,1.81-.39,3.19,3.19,0,0,0,1.22-1.76.64.64,0,0,0-.44-.77,4.06,4.06,0,0,0-2.52.24.63.63,0,0,0,.34,1.21,7.7,7.7,0,0,1,1-.3h.05c.07,0,.06,0,0,0h.5c.15,0-.13,0,0,0l.27.07-.44-.77a1.17,1.17,0,0,1-.09.24c-.06.16,0-.08,0,0l0,.09a2.71,2.71,0,0,1-.21.37s-.05.08-.07.09.11-.14,0-.05l-.12.14-.06.05c-.05,0-.13.08,0,0l-.14.1-.15.08.06,0-.08,0-.34.08h-.08c-.1,0,.19,0,0,0l-.2,0h-.41l.6.79c0-.11.06-.23.1-.34s0-.11.05-.16l0-.07c0-.09,0,0,0,0a6,6,0,0,1,.3-.56l.08-.12s.08-.11,0,0,0,0,0,0a2.29,2.29,0,0,1,.21-.23,2.13,2.13,0,0,1,.22-.21l.07-.06s-.11.09,0,0a.71.71,0,0,1,.14-.1.64.64,0,0,0,.22-.86.62.62,0,0,0-.85-.22Z"/><path class="cls-32" d="M412.81,591.84c-.1.1-.21.19-.32.28l.13-.1c-.14.11-.29.21-.44.31a2.39,2.39,0,0,0-.46.38,1.45,1.45,0,0,0-.32.6,1.94,1.94,0,0,0,0,.83.61.61,0,0,0,.28.37l.15.06a.65.65,0,0,0,.34,0,2.66,2.66,0,0,0,1.5-.61,1.5,1.5,0,0,0,.42-1.08c0-.12,0-.24,0-.36a.62.62,0,0,0-.62-.62.63.63,0,0,0-.63.62,3.13,3.13,0,0,1,0,.53l0-.17a.73.73,0,0,1-.06.21l.06-.14a.51.51,0,0,1-.09.16l.09-.12a.57.57,0,0,1-.16.15l.13-.09a1.78,1.78,0,0,1-.3.17l.15-.06a3.53,3.53,0,0,1-.85.21l.77.43,0-.17,0,.16a1.22,1.22,0,0,1,0-.27l0,.17a1.05,1.05,0,0,1,0-.19l-.06.15a.6.6,0,0,1,.09-.15l-.1.12a1.51,1.51,0,0,1,.23-.21l-.13.09a11,11,0,0,0,1-.78.63.63,0,1,0-.89-.88Z"/><path class="cls-32" d="M371.42,634.75a4,4,0,0,0-.65,1.45,2.4,2.4,0,0,0,.4,1.84.64.64,0,0,0,1,.12c1.27-1.28,2.45-3.34,1.86-5.2a.64.64,0,0,0-.77-.43.62.62,0,0,0-.44.76,1.34,1.34,0,0,1,.07.27l0,.12c0,.07,0-.06,0,.05a3.25,3.25,0,0,1,0,.54h0v.06a.51.51,0,0,1,0,.13c0,.1,0,.2-.07.3s-.12.4-.18.55a6.13,6.13,0,0,1-1.35,2l1,.13a1.62,1.62,0,0,1-.27-.58,1,1,0,0,1,0-.43,3,3,0,0,1,.5-1,.65.65,0,0,0-.23-.86.64.64,0,0,0-.85.23Z"/><path class="cls-33" d="M810.83,791a114.28,114.28,0,0,1,11.34,2.1c4.2,1,9,2.31,12.34,5.19,2.26,1.94,3.54,5.87.28,7.55s-7.78,1-11.26.55c-3.91-.49-7.78-1.54-11.71-1.86-.8-.07-.79,1.18,0,1.25,3.76.31,7.47,1.3,11.2,1.79s8.46,1.16,12.1-.51c3.14-1.43,3.71-5.23,1.82-8-2.46-3.55-7.35-5.17-11.28-6.35a100.46,100.46,0,0,0-14.5-3c-.78-.11-1.12,1.1-.33,1.21Z"/><path class="cls-33" d="M834.72,808.17a20,20,0,0,1,7.58,3.59c1.48,1.13,4.08,3.41,3,5.54-.61,1.23-2.16,1.86-3.37,2.27a29.31,29.31,0,0,1-6.76,1.25,119.12,119.12,0,0,1-14.14,0,67.79,67.79,0,0,0-16,.9c-.79.16-.46,1.37.33,1.21,10.55-2.18,21.34.34,32-1.1,2.9-.4,7.77-1,9.16-4.14,1-2.22-.71-4.48-2.27-5.93a20.64,20.64,0,0,0-9.19-4.79c-.78-.18-1.11,1-.33,1.2Z"/><path class="cls-33" d="M833.07,822.52c1.89.36,5.89.49,6.65,2.68a3.24,3.24,0,0,1-.52,2.85c-1.64,2.42-4.94,3.74-7.55,4.75-7.5,2.9-15.61,4.34-23.53,5.55-2.39.37-4.78.66-7.17,1-.8.11-.46,1.31.33,1.2,6-.85,12.82-1.8,19-3.19A76.47,76.47,0,0,0,833,833.61c2.69-1.12,6-2.59,7.5-5.26a4.37,4.37,0,0,0,.33-3.81c-1.08-2.59-5.07-2.78-7.4-3.23-.79-.15-1.13,1.05-.34,1.21Z"/><path class="cls-33" d="M839.25,830.72c9.55,3.15,4.78,14.51.86,20.39-.44.67.64,1.3,1.08.63,2.44-3.66,4.52-8,4.91-12.38a10,10,0,0,0-1.1-5.85,9.41,9.41,0,0,0-5.42-4c-.76-.25-1.09,1-.33,1.21Z"/><path class="cls-33" d="M855,835a68,68,0,0,1-4.53,5.74.62.62,0,0,0,.88.88,66,66,0,0,0,4.53-5.74.64.64,0,0,0,0-.88.62.62,0,0,0-.88,0Z"/></g><path class="cls-7" d="M592.85,5.94,77.7,303.33V898.12l515.15,297.39L1107.9,898.12V303.33Zm427.89,841.63-428,246.8L164.86,847.55V353.91l427.8-246.84,428.08,246.86Z"/><g id="Layer_2-2" data-name="Layer 2-2"><g id="Layer_16" data-name="Layer 16"><path class="cls-34" d="M972.72,326.22l-5-2.79-6.69-3.9-7.16-4.19-1-.55-4.56-2.61-4.74-2.73-8.36-4.83-67.4-38.85L852,256.66l-6.69-3.9-4.18-2.41-4.55-2.7-.47-.19-3.9-2.32-3.82-2.23-49.56-28.53L597.62,110l-5-2.89-4.38,2.51-159,91.83-46.65,27-12.08,6.94-5,2.87-.93.47h-.09l-2.3,1.43-3.9,2.32L355.6,244l-2.51,1.49-1.67.92-13.94,8.09h-.05L320.89,264l-.1.1-5.39,3.16-7.06,4-.09.09-.29.19-30.2,17.38h-.09l-22.12,12.73L246.23,307l-27.75,16-39.32,22.67-14.31,8.27V847.55l.65.36,16,9.3,6.94,4,1.39.74L230,885.15l6.41,3.63,5,2.88,17.47,10.13,14.78,8.55,4.27,2.42L290,919.7l31.45,18.2,50,28.81,6.42,3.72.65.37,1.39.74,1,.65,1.67.93.38.19,17.74,10.31,8.18,4.65,12.36,7.25,8.28,4.74,1.68.93,2.87,1.67,1.77,1,4.46,2.6,33.18,19,.84.47,4.08,2.42,5.77,3.35,6.69,3.89h.09l5,2.8,14,8.08,29.46,17.1,41.64,24,9.57,5.59,2.15,1.2.17-.09,1.77-1,1.31-.74.27-.18,2.88-1.67,16.85-9.58.84-.46,6.42-3.72,4.65-2.7,2.23-1.3,35.77-20.62,22.8-13.11,6.88-4,6.14-3.53,6.22-3.62,4.1-2.42,21.59-12.44,3.62-2h.09l2.14-1.3,2-1.12,5.85-3.34,7.43-4.27,11.72-6.79,4.27-2.51h.09l4.28-2.51.09-.09,2.33-1.3,5-2.88,3.44-2,3.26-2,5.1-2.89,2-1.21,3-1.66,4-2.23.19-.1.47-.28L805,972l2.23-1.21,35.13-20.26,3.53-2,10.32-6,27.59-15.86,14.51-8.36,28.35-16.36,17.56-10.13,33.3-19.27h.09l.55-.38,24.64-14.21,8.36-4.84,9.57-5.48V353.93Zm30.67,511.47-4.83,2.79-3,1.67-5.38,3.16L919.65,886l-10,5.76-17.57,10.08L876.25,911l-29,16.73-11.9,6.88-6.69,3.8-27.23,15.71-.65.46-1.49.84-1.68,1-5.29,3-8.28,4.74-2,1.21-.49.34L774,970l-.84.46L736.82,991.4l-.75.46L728.74,996l-.74.47-8.46,5-20,11.51-14.3,8.18-15.61,9L659.42,1036l-27.58,16-11.43,6.6-.56.38h-.18l-6.94,4.08-2.6,1.4-17.38,10L560.69,1056l-11.43-6.6-5.67-3.25-16.85-9.76-6.7-3.81-6.41-3.72-48.92-28.16-7.16-4.18-.45-.28-16.65-9.57-19.14-11L413,970.91l-5.4-3.16-2.32-1.39-4-2.32-2-1.12L383,953.53l-2.89-1.68-1.76-1-13.94-8.08-31.79-18.3-36.33-21-2.79-1.58-13.59-7.83-4-2.33-27.75-16-45.6-26.4-8.36-4.74-3.63-2.14-2.14-1.21-6.22-3.62V364l36.21-21,27.75-16,8.65-5H255l.56-.37,29.74-17.19h.09L298,297h.1l16.63-9.57,11.62-6.69,4-2.32h.09l7.07-4.08,4.27-2.52h.1l27.7-16c.09-.1.09-.1.18-.1l7.25-4.18,3.25-1.86,1.86-1.12,2.69-1.57,1.59-.94,2.51-1.38.36-.19,74.65-43.12,124.44-71.84,4.38-2.51,4.95,2.88,156.42,90.2,64.87,37.46.46.28,3,1.68,1,.55,4.09,2.42,3.25,1.85,11.43,6.6,18,10.41,65.25,37.55,13.1,7.52,5.11,3,.38.28,7.15,4.09,1.77,1,5,2.89,5,2.87L1003.39,364V837.69Z"/></g></g><path class="cls-35" d="M397.54,461.56h24.19v1.93a40.2,40.2,0,0,1-1.55,11.68,24.79,24.79,0,0,1-5.12,8.8,26.53,26.53,0,0,1-20.75,9.18,28.49,28.49,0,0,1-21-8.88,30.5,30.5,0,0,1,21.84-51.92,29.84,29.84,0,0,1,12.82,2.8,36.89,36.89,0,0,1,11.19,9.08l-6.3,6q-7.2-9.6-17.56-9.6a21,21,0,0,0-15.59,6.41,21.44,21.44,0,0,0-6.29,15.78,20.74,20.74,0,0,0,7,16.11q6.56,5.88,14.22,5.88a17.67,17.67,0,0,0,11.72-4.39,15.63,15.63,0,0,0,5.8-10.59h-14.6Z"/><rect class="cls-35" x="453.04" y="433.49" width="8.84" height="58.55"/><path class="cls-35" d="M512.3,441.8v50.25h-8.84V441.8H490v-8.31h35.72v8.31Z"/><path class="cls-35" d="M595,436.62v10.45q-7.66-6.4-15.85-6.41a20.17,20.17,0,0,0-15.21,6.49,21.82,21.82,0,0,0-6.22,15.77,21.31,21.31,0,0,0,6.22,15.55,20.54,20.54,0,0,0,15.24,6.33,18.73,18.73,0,0,0,7.93-1.51,23.22,23.22,0,0,0,3.77-2.05,44.13,44.13,0,0,0,4.12-3.11v10.68a31.82,31.82,0,0,1-15.93,4.3,29.4,29.4,0,0,1-21.43-8.76A29,29,0,0,1,548.8,463a30.06,30.06,0,0,1,7.39-20q9.1-10.74,23.55-10.74A30.07,30.07,0,0,1,595,436.62"/><path class="cls-36" d="M637.23,453.27a21.7,21.7,0,0,0,37,15.84,22.7,22.7,0,0,0,.07-31.38A20.65,20.65,0,0,0,659,431.37a20.88,20.88,0,0,0-15.44,6.36,21.11,21.11,0,0,0-6.29,15.54m-8.92-.1a28.63,28.63,0,0,1,9.07-21.23,29.81,29.81,0,0,1,21.69-8.88,30.61,30.61,0,0,1,30.45,30.46,28.8,28.8,0,0,1-9,21.42,30.94,30.94,0,0,1-42.25,1q-9.93-8.69-9.94-22.76"/><rect class="cls-35" x="715.55" y="433.49" width="8.84" height="58.55"/><path class="cls-35" d="M758.65,492.05V429.51l42.7,44.68v-40.7h8.84v62.12l-42.71-44.56v41Z"/><text class="cls-37" transform="translate(680.25 530.28)"> </text><path class="cls-38" d="M609.91,292.72l9.53,18.77-7.23,30.7L595,328.13l3-22.52Z"/><path class="cls-35" d="M584.47,286.43a3.59,3.59,0,0,1-3.59-3.59V254.55a3.59,3.59,0,0,1,7.18,0v28.29a3.59,3.59,0,0,1-3.59,3.59"/><path class="cls-38" d="M590.23,286.43H579.14a3.59,3.59,0,0,1,0-7.18h11.09a3.59,3.59,0,1,1,0,7.18"/><path class="cls-38" d="M609.91,292.72l11.79-11.11a49.87,49.87,0,1,0-35.26,85.13c10.26,0,19.29,3.74,27.22-1.57l9.87,1.36-.28-16L595,328.13l6.07-28.62,8.85-6.79"/><path class="cls-35" d="M586.44,371.63a54.76,54.76,0,1,1,38.72-93.48l3.57,3.56-15.46,14.57-6.72-7.12,7.92-7.47a45,45,0,1,0-28,80.15"/><path class="cls-36" d="M613.93,343.5l-7-6.81a28.5,28.5,0,0,0-.62-40.26l-3.66-3.56,3.93-3.71,3.35,3.55,3.2-3.3a38.28,38.28,0,0,1,.83,54.09"/><path class="cls-38" d="M575.18,316.87a11.26,11.26,0,1,1,11.26,11.26,11.26,11.26,0,0,1-11.26-11.26"/><path class="cls-35" d="M586.44,310.5a6.37,6.37,0,1,0,6.36,6.37,6.38,6.38,0,0,0-6.36-6.37m0,22.52a16.16,16.16,0,1,1,16.15-16.15A16.17,16.17,0,0,1,586.44,333"/><path class="cls-38" d="M621.7,281.61,593.24,307.9"/><path class="cls-35" d="M618.38,278,625,285.2l-28.45,26.29-6.65-7.19Z"/><path class="cls-38" d="M591.75,326.8l20.46,15.39,11,8.32v21.12l-22.19-1.07"/><path class="cls-35" d="M628.15,371.63h-42.6v-9.79h32.81V353l-29.55-22.24,5.88-7.82,33.46,25.18Z"/><path class="cls-39" d="M631.62,257.25l3.92-3.92,3.92,3.92-3.92,3.92Z"/><path class="cls-39" d="M614.75,238.34l1.88-1.88,1.88,1.88-1.88,1.87Z"/><path class="cls-39" d="M638,221.87a2.83,2.83,0,1,0-2.83,2.83,2.83,2.83,0,0,0,2.83-2.83"/><path class="cls-35" d="M567.48,296.31a3.59,3.59,0,0,1-3.59-3.59V254.56a3.59,3.59,0,0,1,7.18,0v38.16a3.59,3.59,0,0,1-3.59,3.59"/></svg>