<svg id="Layer_1" data-name="Layer 1" xmlns="http://www.w3.org/2000/svg" viewBox="0 0 110.85 128"><defs><style>.cls-1{fill:#161a2f;}.cls-2{fill:#fff;}.cls-3{fill:#0fce7c;}.cls-4{fill:#d0dcfc;}.cls-5{opacity:0.77;}.cls-6{fill:#95aef0;}.cls-7{fill:#bbccfb;}.cls-8{fill:#e3eafc;}.cls-9{fill:#adbad8;}.cls-10{fill:#dedede;}.cls-11{fill:#b7a9c6;}.cls-12{fill:#15003e;}.cls-13{fill:#b8a9c6;}.cls-14{fill:#421147;}.cls-15{fill:#1c0801;}.cls-16{fill:#e4e8ea;}.cls-17{fill:#25378c;}.cls-18{fill:#2e469c;}.cls-19{fill:#f33040;}.cls-20{fill:#ffe5ab;}.cls-21{fill:#4c3940;}.cls-22{fill:#37282e;}.cls-23{fill:#ef2344;}.cls-24{fill:#ff385a;}.cls-25{fill:#ff6385;}.cls-26{fill:#5a454e;}.cls-27{fill:#665059;}.cls-28{fill:#77676d;}.cls-29{fill:#ad99a1;}.cls-30{fill:#2f3957;}.cls-31{fill:#879fd6;}</style></defs><title>Journalism</title><g id="Layer_63" data-name="Layer 63"><polygon class="cls-1" points="110.85 32 110.85 96 110.57 96.16 110.23 96.36 109.8 96.61 109.29 96.9 108.76 97.21 108.02 97.64 107.28 98.06 106.75 98.37 105.8 98.91 105.47 99.11 104.77 99.51 104.33 99.77 104.2 99.84 102.92 100.58 102.85 100.62 102.24 100.97 101.65 101.31 100.38 102.05 99.1 102.78 97.83 103.52 96.56 104.25 95.28 104.99 94.01 105.72 92.73 106.46 91.46 107.2 90.19 107.93 88.92 108.66 87.64 109.4 86.37 110.14 85.1 110.87 83.82 111.61 82.55 112.34 81.27 113.08 80 113.81 78.73 114.55 77.46 115.28 76.18 116.02 74.91 116.75 73.63 117.49 72.36 118.23 71.09 118.96 69.82 119.69 68.54 120.43 67.27 121.16 65.99 121.9 64.72 122.64 63.45 123.37 62.17 124.11 60.9 124.84 59.63 125.58 58.35 126.31 57.08 127.05 55.8 127.78 55.51 127.95 55.43 128 55.23 127.88 54.2 127.29 53.76 127.04 53.62 126.95 52.92 126.55 52.3 126.19 51.65 125.82 51.03 125.46 50.83 125.35 50.37 125.08 49.37 124.5 49.1 124.34 48.47 123.98 47.9 123.65 47.82 123.61 46.55 122.87 46.43 122.81 45.28 122.14 44.01 121.41 42.73 120.67 41.46 119.93 40.18 119.2 38.91 118.46 37.63 117.73 36.37 117 35.09 116.26 33.82 115.52 32.54 114.79 31.27 114.05 29.99 113.32 28.72 112.58 27.45 111.85 26.18 111.11 24.9 110.38 23.63 109.64 22.35 108.91 21.08 108.17 19.8 107.44 18.54 106.7 17.26 105.97 15.99 105.23 14.71 104.5 13.44 103.76 12.16 103.03 11.08 102.4 10.89 102.29 10.88 102.28 9.62 101.55 8.96 101.17 8.35 100.82 7.5 100.33 7.36 100.25 7.07 100.08 6.04 99.48 5.8 99.35 4.8 98.77 4.57 98.64 4.53 98.61 3.25 97.88 3.11 97.79 2.22 97.28 1.98 97.14 1.64 96.95 0.7 96.41 0.18 96.1 0 96 0 32 0.58 31.67 0.63 31.64 1.55 31.11 1.9 30.9 3.18 30.17 4.45 29.43 5.73 28.69 6.99 27.96 8.27 27.23 9.54 26.49 10.82 25.76 12.09 25.02 13.36 24.29 14.64 23.55 15.91 22.82 17.18 22.08 18.46 21.34 19.73 20.61 21.01 19.87 22.28 19.14 23.55 18.4 24.82 17.67 26.1 16.93 27.37 16.2 28.64 15.46 29.92 14.73 31.19 13.99 32.47 13.26 33.74 12.52 35.01 11.79 36.29 11.05 37.56 10.32 38.84 9.58 40.11 8.84 41.38 8.11 42.66 7.37 43.93 6.64 45.2 5.9 46.48 5.17 47.75 4.44 48.23 4.16 49.02 3.7 50.29 2.96 51.16 2.47 51.57 2.23 52.33 1.79 52.85 1.49 53.68 1.01 53.81 0.94 54.12 0.76 55.28 0.08 55.43 0 77.43 12.7 77.46 12.72 78.74 13.46 80.01 14.19 81.29 14.93 82.56 15.67 83.83 16.4 85.1 17.13 86.38 17.87 87.66 18.61 88.93 19.34 90.2 20.07 91.47 20.81 92.75 21.55 94.02 22.28 95.29 23.02 96.57 23.75 97.84 24.49 99.11 25.22 100.39 25.96 101.66 26.69 102.93 27.43 102.97 27.45 103.31 27.65 104.21 28.17 104.77 28.49 105.48 28.9 105.54 28.94 106.24 29.34 106.75 29.64 108.03 30.37 108.12 30.42 109.17 31.03 109.3 31.11 110.57 31.84 110.85 32"/></g><polygon class="cls-2" points="101.38 37.49 101.38 90.63 100.5 91.14 99.08 91.96 86.13 99.43 84.35 100.46 83.78 100.79 81.75 101.96 80.61 102.62 79.97 102.99 74.13 106.36 70.47 108.47 68.92 109.37 68.63 109.54 64.89 111.69 63.72 112.37 63.33 112.59 61.34 113.74 57.64 115.88 55.37 117.19 53.1 115.88 43.74 110.48 39.74 108.17 37.96 107.14 35.19 105.54 30.38 102.77 30.12 102.62 28.65 101.77 19.5 96.49 11.65 91.96 10.23 91.14 9.35 90.63 9.35 37.49 9.56 37.37 11.56 36.21 12 35.96 15.67 33.84 53.45 12.04 55.37 10.93 57.29 12.04 98.73 35.96 99.8 36.58 101.38 37.49"/><g id="gitcoin"><path class="cls-2" d="M66.6174,117.1774l1.5654-.8994.0713.1231a3.0348,3.0348,0,0,1,.336.8144,1.8934,1.8934,0,0,1-.0049.7617,1.9822,1.9822,0,0,1-1,1.3653,2.1314,2.1314,0,0,1-1.6924.21,2.2768,2.2768,0,0,1-.5195-4.1738,2.2306,2.2306,0,0,1,.9335-.2959,2.7481,2.7481,0,0,1,1.0616.17l-.1836.626a1.5923,1.5923,0,0,0-1.4922.0322,1.5584,1.5584,0,0,0-.77.9961,1.5979,1.5979,0,0,0,.1806,1.2549,1.5416,1.5416,0,0,0,1.0528.7813,1.5741,1.5741,0,0,0,1.1416-.15,1.3154,1.3154,0,0,0,.5928-.7188,1.176,1.176,0,0,0-.0176-.9023l-.9463.5439Z" transform="translate(-0.163 0.1059)"/><rect class="cls-2" x="70.212" y="112.8465" width="0.6595" height="4.3716" transform="translate(-48.1684 50.6779) rotate(-29.9467)"/><polygon class="cls-2" points="73.144 111.732 75.014 114.984 74.444 115.313 72.573 112.063 71.701 112.564 71.392 112.026 73.702 110.696 74.011 111.233 73.144 111.732"/><path class="cls-2" d="M78.4651,108.2126l.3886.6767a1.8267,1.8267,0,0,0-1.2646.1748,1.5137,1.5137,0,0,0-.7432.9854,1.6333,1.6333,0,0,0,.1856,1.2529,1.594,1.594,0,0,0,.9814.7754,1.5417,1.5417,0,0,0,1.2236-.1582,1.41,1.41,0,0,0,.4551-.3935,1.6719,1.6719,0,0,0,.168-.2725,3.414,3.414,0,0,0,.15-.3555l.3974.6905a2.3783,2.3783,0,0,1-.8711.873,2.1961,2.1961,0,0,1-1.7109.23,2.1723,2.1723,0,0,1-1.3672-1.05,2.2519,2.2519,0,0,1-.2627-1.5664,2.1909,2.1909,0,0,1,1.124-1.5713,2.2273,2.2273,0,0,1,1.1456-.292" transform="translate(-0.163 0.1059)"/><path class="cls-3" d="M81.2365,108.0427a2.142,2.142,0,0,1-.2041-1.71,2.237,2.237,0,0,1,1.0733-1.3838,2.2874,2.2874,0,0,1,3.1045.8369,2.15,2.15,0,0,1,.2138,1.7227,2.3117,2.3117,0,0,1-2.6972,1.6367,2.1438,2.1438,0,0,1-1.49-1.1025m.5791-.3252a1.6219,1.6219,0,0,0,2.9893-.3545,1.6974,1.6974,0,0,0-1.1641-2.0332,1.5384,1.5384,0,0,0-1.2343.1611,1.5564,1.5564,0,0,0-.7608.9863,1.58,1.58,0,0,0,.17,1.24" transform="translate(-0.163 0.1059)"/><rect class="cls-2" x="87.1887" y="103.0673" width="0.6597" height="4.3704" transform="translate(-41.0369 57.8931) rotate(-29.9673)"/><polygon class="cls-2" points="90.954 105.812 88.625 101.765 93.053 103.066 91.537 100.432 92.108 100.104 94.422 104.124 89.998 102.83 91.526 105.482 90.954 105.812"/></g><polygon class="cls-4" points="100.04 89.54 55.67 115.21 11.291 89.71 11.12 38.71 14.586 36.66 16.716 35.4 55.67 12.38 95.85 35.4 98.051 36.66 99.879 37.71 99.889 41.12 99.889 41.34 100.04 89.54"/><g class="cls-5"><rect class="cls-6" x="22.0595" y="72.0578" width="6.3968" height="8.2314"/><rect class="cls-6" x="61.3835" y="67.7943" width="11.1509" height="11.1509"/><rect class="cls-6" x="36.5447" y="69.199" width="6.3968" height="8.2314"/><rect class="cls-6" x="48.6478" y="73.654" width="6.3968" height="8.2314"/><rect class="cls-6" x="80.3171" y="69.5383" width="6.3968" height="8.2314"/><rect class="cls-6" x="83.5155" y="73.654" width="8.2314" height="8.2314"/><rect class="cls-6" x="11.4566" y="76.9174" width="87.8868" height="10.8009"/><rect class="cls-6" x="15.6627" y="68.6861" width="6.3968" height="8.2314"/><rect class="cls-7" x="40.5168" y="60.8247" width="9.7435" height="26.8936"/><rect class="cls-6" x="41.8364" y="62.7509" width="1.9372" height="3.8119"/><rect class="cls-6" x="46.7106" y="62.7509" width="1.9372" height="3.8119"/><rect class="cls-6" x="41.8364" y="68.5625" width="1.9372" height="3.8119"/><rect class="cls-6" x="46.7106" y="68.5625" width="1.9372" height="3.8119"/><rect class="cls-6" x="41.8364" y="74.374" width="1.9372" height="3.8119"/><rect class="cls-6" x="46.7106" y="74.374" width="1.9372" height="3.8119"/><rect class="cls-6" x="41.8364" y="80.1856" width="1.9372" height="3.8119"/><rect class="cls-6" x="46.7106" y="80.1856" width="1.9372" height="3.8119"/><rect class="cls-7" x="53.8004" y="54.6088" width="10.5967" height="33.1095"/><rect class="cls-6" x="54.8454" y="56.9637" width="1.4449" height="1.4449"/><rect class="cls-6" x="58.3763" y="56.9637" width="1.4449" height="1.4449"/><rect class="cls-6" x="61.9072" y="56.9637" width="1.4449" height="1.4449"/><rect class="cls-6" x="54.8454" y="59.516" width="1.4449" height="1.4449"/><rect class="cls-6" x="58.3763" y="59.516" width="1.4449" height="1.4449"/><rect class="cls-6" x="61.9072" y="59.516" width="1.4449" height="1.4449"/><rect class="cls-6" x="54.8454" y="62.0683" width="1.4449" height="1.4449"/><rect class="cls-6" x="58.3763" y="62.0683" width="1.4449" height="1.4449"/><rect class="cls-6" x="61.9072" y="62.0683" width="1.4449" height="1.4449"/><rect class="cls-6" x="54.8454" y="64.6205" width="1.4449" height="1.4449"/><rect class="cls-6" x="58.3763" y="64.6205" width="1.4449" height="1.4449"/><rect class="cls-6" x="61.9072" y="64.6205" width="1.4449" height="1.4449"/><rect class="cls-6" x="54.8454" y="67.1728" width="1.4449" height="1.4449"/><rect class="cls-6" x="58.3763" y="67.1728" width="1.4449" height="1.4449"/><rect class="cls-6" x="61.9072" y="67.1728" width="1.4449" height="1.4449"/><rect class="cls-6" x="54.8454" y="69.725" width="1.4449" height="1.4449"/><rect class="cls-6" x="58.3763" y="69.725" width="1.4449" height="1.4449"/><rect class="cls-6" x="61.9072" y="69.725" width="1.4449" height="1.4449"/><rect class="cls-6" x="54.8454" y="72.2773" width="1.4449" height="1.4449"/><rect class="cls-6" x="58.3763" y="72.2773" width="1.4449" height="1.4449"/><rect class="cls-6" x="61.9072" y="72.2773" width="1.4449" height="1.4449"/><rect class="cls-6" x="54.8454" y="74.8296" width="1.4449" height="1.4449"/><rect class="cls-6" x="58.3763" y="74.8296" width="1.4449" height="1.4449"/><rect class="cls-6" x="61.9072" y="74.8296" width="1.4449" height="1.4449"/><rect class="cls-6" x="54.8454" y="77.3818" width="1.4449" height="1.4449"/><rect class="cls-6" x="58.3763" y="77.3818" width="1.4449" height="1.4449"/><rect class="cls-6" x="61.9072" y="77.3818" width="1.4449" height="1.4449"/><rect class="cls-6" x="54.8454" y="79.9341" width="1.4449" height="1.4449"/><rect class="cls-6" x="58.3763" y="79.9341" width="1.4449" height="1.4449"/><rect class="cls-6" x="61.9072" y="79.9341" width="1.4449" height="1.4449"/><rect class="cls-6" x="54.8454" y="82.4863" width="1.4449" height="1.4449"/><rect class="cls-6" x="58.3763" y="82.4863" width="1.4449" height="1.4449"/><rect class="cls-6" x="61.9072" y="82.4863" width="1.4449" height="1.4449"/><rect class="cls-7" x="25.092" y="54.6088" width="13.1065" height="33.1095"/><rect class="cls-6" x="26.4675" y="59.9316" width="0.8845" height="17.1257"/><rect class="cls-6" x="28.8352" y="59.9316" width="0.8845" height="17.1257"/><rect class="cls-6" x="31.203" y="59.9316" width="0.8845" height="17.1257"/><rect class="cls-6" x="33.5707" y="59.9316" width="0.8845" height="17.1257"/><rect class="cls-6" x="35.9384" y="59.9316" width="0.8845" height="17.1257"/><rect class="cls-8" x="25.092" y="56.4407" width="13.1065" height="1.8319"/><rect class="cls-7" x="70.4091" y="58.2996" width="13.1065" height="29.4188"/><rect class="cls-6" x="71.7846" y="63.6223" width="0.8845" height="13.435"/><rect class="cls-6" x="74.1523" y="63.6223" width="0.8845" height="13.435"/><rect class="cls-6" x="76.52" y="63.6223" width="0.8845" height="13.435"/><rect class="cls-6" x="78.8878" y="63.6223" width="0.8845" height="13.435"/><rect class="cls-6" x="81.2555" y="63.6223" width="0.8845" height="13.435"/><rect class="cls-8" x="70.4091" y="60.1314" width="13.1065" height="1.8319"/></g><ellipse class="cls-9" cx="54.6734" cy="103.2327" rx="17.0944" ry="1.0705"/><g id="head"><g id="paint"><polygon class="cls-10" points="63.208 76.228 46.83 76.397 44.41 58.668 66.135 58.668 63.208 76.228"/><polygon class="cls-11" points="46.549 71.782 47.674 75.271 62.139 75.159 63.715 71.444 63.096 76.003 56.285 76.228 47.055 76.341 46.436 74.033 46.549 71.782"/><ellipse class="cls-12" cx="50.9669" cy="68.8554" rx="3.2213" ry="3.1784"/><path class="cls-12" d="M51.13,72.6579A3.9085,3.9085,0,1,1,55.0379,68.75,3.9126,3.9126,0,0,1,51.13,72.6579Zm0-7.3169A3.4085,3.4085,0,1,0,54.5379,68.75,3.4123,3.4123,0,0,0,51.13,65.341Z" transform="translate(-0.163 0.1059)"/><ellipse class="cls-12" cx="59.4091" cy="68.6865" rx="3.2213" ry="3.1784"/><path class="cls-12" d="M59.5721,72.4889A3.9082,3.9082,0,1,1,63.48,68.5807,3.9122,3.9122,0,0,1,59.5721,72.4889Zm0-7.3164A3.4082,3.4082,0,1,0,62.98,68.5807,3.4122,3.4122,0,0,0,59.5721,65.1725Z" transform="translate(-0.163 0.1059)"/><ellipse class="cls-2" cx="59.3677" cy="65.9568" rx="1.1405" ry="0.3799"/><ellipse class="cls-2" cx="50.841" cy="66.1257" rx="1.1405" ry="0.3799"/><polyline class="cls-13" points="66.123 59.618 68.295 61.496 67.914 64.13 65.362 64.887"/><path class="cls-12" d="M71.78,63.0231l-.0137-.0005-3.3721-.1865a.2508.2508,0,0,1-.2363-.2632.2434.2434,0,0,1,.2637-.2358l3.3721.1865a.25.25,0,0,1-.0137.4995Z" transform="translate(-0.163 0.1059)"/><circle class="cls-13" cx="72.5852" cy="63.009" r="0.9286"/><polyline class="cls-11" points="44.472 59.796 42.301 61.673 42.682 64.308 45.233 65.065"/><path class="cls-12" d="M39.1414,63.2008a.25.25,0,0,1-.0137-.4995l3.3716-.1865a.2457.2457,0,0,1,.2632.2359.2493.2493,0,0,1-.2358.2631L39.1551,63.2Z" transform="translate(-0.163 0.1059)"/><circle class="cls-11" cx="38.0103" cy="63.1866" r="0.9286"/><circle class="cls-3" cx="51.0127" cy="68.8662" r="3.5776"/><circle class="cls-3" cx="59.3706" cy="68.6974" r="3.5776"/></g><g id="lights"><polygon class="cls-10" points="67.767 62.439 66.135 61.145 66.304 60.188 67.992 61.651 67.767 62.439"/><ellipse class="cls-10" cx="72.55" cy="62.7463" rx="0.3386" ry="0.0869"/><polygon class="cls-10" points="42.778 62.608 44.41 61.314 44.241 60.357 42.553 61.82 42.778 62.608"/><ellipse class="cls-10" cx="37.9948" cy="62.9151" rx="0.3386" ry="0.0869"/></g><g id="lines"><path class="cls-12" d="M46.7752,76.5436,44.2864,58.3127H66.5926l-.0479.291L63.5828,76.3708ZM44.86,58.8127,47.2108,76.04l15.9482-.165,2.8437-17.062Z" transform="translate(-0.163 0.1059)"/><ellipse class="cls-12" cx="50.9669" cy="68.8554" rx="3.2213" ry="3.1784"/><path class="cls-12" d="M51.13,72.5329A3.7835,3.7835,0,1,1,54.9129,68.75,3.7877,3.7877,0,0,1,51.13,72.5329Zm0-7.3169A3.5335,3.5335,0,1,0,54.6629,68.75,3.5376,3.5376,0,0,0,51.13,65.216Z" transform="translate(-0.163 0.1059)"/><ellipse class="cls-12" cx="59.4091" cy="68.6865" rx="3.2213" ry="3.1784"/><path class="cls-12" d="M59.5721,72.3639a3.7832,3.7832,0,1,1,3.7832-3.7832A3.7876,3.7876,0,0,1,59.5721,72.3639Zm0-7.3164a3.5332,3.5332,0,1,0,3.5332,3.5332A3.5372,3.5372,0,0,0,59.5721,65.0475Z" transform="translate(-0.163 0.1059)"/><ellipse class="cls-2" cx="59.3677" cy="65.9568" rx="1.1405" ry="0.3799"/><ellipse class="cls-2" cx="50.841" cy="66.1257" rx="1.1405" ry="0.3799"/><path class="cls-12" d="M65.5252,65.0309a.25.25,0,0,1-.0713-.49l2.3985-.7114.3388-2.34-2.0683-1.7881a.25.25,0,1,1,.3261-.3779l2.1719,1.8774a.2482.2482,0,0,1,.084.2247L68.324,64.06a.2486.2486,0,0,1-.1757.2041l-2.5518.7569A.2581.2581,0,0,1,65.5252,65.0309Z" transform="translate(-0.163 0.1059)"/><path class="cls-12" d="M71.78,63.0231l-.0137-.0005-3.3721-.1865a.2508.2508,0,0,1-.2363-.2632.2434.2434,0,0,1,.2637-.2358l3.3721.1865a.25.25,0,0,1-.0137.4995Z" transform="translate(-0.163 0.1059)"/><path class="cls-12" d="M72.75,64.0817c-.0224,0-.0439-.0005-.0664-.0019a1.1786,1.1786,0,1,1,.13-2.3536h0a1.1787,1.1787,0,0,1-.0635,2.3555Zm-.0019-1.8574a.6787.6787,0,0,0-.6768.6411.6783.6783,0,1,0,1.3545.0752.6793.6793,0,0,0-.64-.7153Z" transform="translate(-0.163 0.1059)"/><path class="cls-12" d="M45.3963,65.2087a.261.261,0,0,1-.0713-.01l-2.5517-.7568a.2509.2509,0,0,1-.1763-.2041l-.3809-2.6343a.25.25,0,0,1,.084-.2246l2.1714-1.8775a.25.25,0,0,1,.3271.378l-2.0678,1.7881.3384,2.34,2.3984.7114a.25.25,0,0,1-.0713.49Z" transform="translate(-0.163 0.1059)"/><path class="cls-12" d="M39.1414,63.2008a.25.25,0,0,1-.0137-.4995l3.3716-.1865a.2457.2457,0,0,1,.2632.2359.2493.2493,0,0,1-.2358.2631L39.1551,63.2Z" transform="translate(-0.163 0.1059)"/><path class="cls-12" d="M38.1717,64.2594a1.1786,1.1786,0,0,1-.0635-2.3554,1.159,1.159,0,0,1,.8511.2983,1.1785,1.1785,0,0,1-.7212,2.0552C38.2161,64.259,38.1937,64.2594,38.1717,64.2594Zm.0024-1.8574-.0385.001a.6788.6788,0,0,0-.4151,1.1836.6884.6884,0,0,0,.49.1719.6788.6788,0,0,0-.0367-1.3565Z" transform="translate(-0.163 0.1059)"/></g><rect class="cls-12" x="52.1769" y="76.5097" width="5.2623" height="0.2533"/><rect class="cls-12" x="54.2031" y="77.2413" width="1.2101" height="0.197"/></g><g id="body"><rect class="cls-11" x="50.6432" y="76.311" width="8.3017" height="0.9819"/><rect class="cls-11" x="53.8568" y="77.293" width="2.1424" height="1.2943"/><polygon class="cls-10" points="60.819 90.504 49.215 90.415 47.43 78.721 62.248 78.632 60.819 90.504"/><polygon class="cls-11" points="49.237 86.867 50.041 89.109 59.983 89.076 60.786 86.8 60.819 90.504 49.215 90.415 48.735 86.8 49.237 86.867"/><rect class="cls-10" x="49.4828" y="90.3257" width="11.2474" height="1.9638"/><rect class="cls-10" x="49.8398" y="92.3788" width="2.1424" height="5.6237"/><rect class="cls-12" x="49.4828" y="97.9132" width="2.9458" height="1.1604"/><rect class="cls-12" x="47.876" y="99.1183" width="5.8915" height="1.2943"/><rect class="cls-10" x="57.7398" y="92.3788" width="2.1424" height="5.6237"/><rect class="cls-12" x="57.3828" y="97.9132" width="2.9458" height="1.1604"/><rect class="cls-12" x="55.776" y="99.1183" width="5.8915" height="1.2943"/><path class="cls-10" d="M45.4435,90.6A1.0165,1.0165,0,0,0,47.09,89.4222a1.0551,1.0551,0,0,0-.109-.152,1.0159,1.0159,0,0,0-1.7734.5131.9785.9785,0,0,0-.0006.3A1.0063,1.0063,0,0,0,45.4435,90.6Z" transform="translate(-0.163 0.1059)"/><path class="cls-10" d="M47.6279,90.28l.3314.5645.5087-.0592-.2642-1.16L47.1483,89.44a1.02,1.02,0,0,1,.0768.8626Z" transform="translate(-0.163 0.1059)"/><path class="cls-10" d="M45.1947,91.9375l.41-.3071-.1473-.6376.2256-.19a1.0182,1.0182,0,0,1-.2394-.2033,1.0063,1.0063,0,0,1-.2363-.5167l-.618.83Z" transform="translate(-0.163 0.1059)"/><polygon class="cls-10" points="44.213 85.316 48.066 83.017 47.631 80.339 41.707 84.775 41.713 84.784 41.708 84.788 44.749 89.763 46.338 88.792 44.213 85.316"/><path class="cls-14" d="M46.6188,81.3569l.8041,1.6894" transform="translate(-0.163 0.1059)"/><path class="cls-10" d="M45.4949,82.4091l.6695,1.696,1.2051-.7587-.7588-2.3209-1.2759,1.1227.8031,1.7561" transform="translate(-0.163 0.1059)"/><path class="cls-14" d="M43.8685,83.1545a8.1719,8.1719,0,0,1,1.2847,1.5617" transform="translate(-0.163 0.1059)"/><path class="cls-14" d="M44.2787,85.1611a4.8514,4.8514,0,0,1-2.2768-.5751" transform="translate(-0.163 0.1059)"/><path class="cls-14" d="M43.0325,86.3324a6.6029,6.6029,0,0,0,1.8478.0842" transform="translate(-0.163 0.1059)"/><path class="cls-14" d="M43.5423,87.4356l1.9751-.0175" transform="translate(-0.163 0.1059)"/><path class="cls-14" d="M44.3122,88.5672a8.7082,8.7082,0,0,0,2.0087-.1313" transform="translate(-0.163 0.1059)"/><path class="cls-10" d="M64.6442,90.4659a1.0165,1.0165,0,0,1-1.6467-1.1776,1.0481,1.0481,0,0,1,.1091-.152,1.0159,1.0159,0,0,1,1.7734.5131.9848.9848,0,0,1,.0006.3A1.0073,1.0073,0,0,1,64.6442,90.4659Z" transform="translate(-0.163 0.1059)"/><path class="cls-10" d="M62.46,90.1456l-.3314.5645L61.62,90.651l.2641-1.16,1.0555-.1846a1.02,1.02,0,0,0-.0767.8626Z" transform="translate(-0.163 0.1059)"/><path class="cls-10" d="M64.8931,91.8036l-.41-.3071.1474-.6376-.2257-.19a1.0182,1.0182,0,0,0,.2394-.2033,1.0073,1.0073,0,0,0,.2364-.5167l.6179.83Z" transform="translate(-0.163 0.1059)"/><polygon class="cls-10" points="65.549 85.182 61.696 82.883 62.131 80.205 68.055 84.641 68.048 84.65 68.054 84.654 65.012 89.629 63.424 88.658 65.549 85.182"/><path class="cls-14" d="M63.3984,81.1407a11.18,11.18,0,0,0-.9291,1.8763" transform="translate(-0.163 0.1059)"/><path class="cls-14" d="M64.5166,82.0861l-.9788,1.6151" transform="translate(-0.163 0.1059)"/><path class="cls-14" d="M65.6389,82.7858a3.1083,3.1083,0,0,1-.887,1.551" transform="translate(-0.163 0.1059)"/><path class="cls-14" d="M65.7081,85.0247a5.6288,5.6288,0,0,0,1.66-.8261" transform="translate(-0.163 0.1059)"/><path class="cls-14" d="M65.2672,85.8458H67.41" transform="translate(-0.163 0.1059)"/><path class="cls-14" d="M64.78,86.7685l1.6513.447" transform="translate(-0.163 0.1059)"/><path class="cls-14" d="M64.28,87.6862l1.2979.6625" transform="translate(-0.163 0.1059)"/><polygon class="cls-10" points="42.029 84.836 43.19 85.148 44.484 85.327 45.02 86.353 43.948 86.532 42.565 86.487 41.761 84.88 42.029 84.836"/><polygon class="cls-10" points="43.413 87.648 45.644 87.558 46.269 88.496 44.038 88.764 43.413 87.648"/><polygon class="cls-10" points="63.096 81.355 62.203 83.006 62.114 80.194 63.096 81.355"/><polygon class="cls-10" points="64.479 82.203 63.408 83.854 64.702 84.657 65.417 82.917 64.479 82.203"/><polygon class="cls-10" points="65.417 85.148 67.291 84.256 67.871 84.434 67.604 85.639 66.979 85.907 65.238 85.952 65.417 85.148"/><polygon class="cls-10" points="64.569 86.889 66.354 87.469 65.774 88.54 64.033 87.871 64.569 86.889"/><path class="cls-12" d="M61.2039,90.65l-12.041-.0928-1.8613-12.19,15.3916-.0928Zm-11.6113-.5889,11.168.085L62.1287,78.778l-14.2451.085Z" transform="translate(-0.163 0.1059)"/><path class="cls-12" d="M61.1434,92.4333H49.3958V89.9694H61.1434Zm-11.2476-.5H60.6434V90.4694H49.8958Z" transform="translate(-0.163 0.1059)"/><path class="cls-12" d="M52.3953,98.1462H49.7527V92.0231h2.6426Zm-2.1426-.5h1.6426V92.5231H50.2527Z" transform="translate(-0.163 0.1059)"/><path class="cls-12" d="M52.8416,99.2174H49.3958v-1.66h3.4458Zm-2.9458-.5h2.4458v-.66H49.8958Z" transform="translate(-0.163 0.1059)"/><path class="cls-12" d="M54.1805,100.5563H47.7889V98.7624h6.3916Zm-5.8916-.5h5.3916v-.7939H48.2889Z" transform="translate(-0.163 0.1059)"/><path class="cls-12" d="M60.2947,98.1462H57.6531V92.0231h2.6416Zm-2.1416-.5h1.6416V92.5231H58.1531Z" transform="translate(-0.163 0.1059)"/><path class="cls-12" d="M60.741,99.2174H57.2957v-1.66H60.741Zm-2.9453-.5H60.241v-.66H57.7957Z" transform="translate(-0.163 0.1059)"/><path class="cls-12" d="M62.0809,100.5563H55.6893V98.7624h6.3916Zm-5.8916-.5h5.3916v-.7939H56.1893Z" transform="translate(-0.163 0.1059)"/><path class="cls-12" d="M46.2122,91.0778a1.1483,1.1483,0,0,1-.8633-.3955h0a1.1333,1.1333,0,0,1-.2651-.582,1.0822,1.0822,0,0,1,.0005-.337,1.1414,1.1414,0,1,1,2.2.5645,1.1446,1.1446,0,0,1-1.0723.75Zm-.6738-.56a.8884.8884,0,0,0,1.2573.0908.8916.8916,0,0,0,.1865-1.123.9466.9466,0,0,0-.0952-.1338.8831.8831,0,0,0-.64-.3076.8469.8469,0,0,0-.6182.2158.8909.8909,0,0,0-.2978.541.8391.8391,0,0,0-.0005.2618.8813.8813,0,0,0,.2075.455Z" transform="translate(-0.163 0.1059)"/><path class="cls-12" d="M47.8929,90.9782l-.3345-.5693-.5161.0293.0654-.1788a.8894.8894,0,0,0-.0674-.7558l-.1357-.2334,1.4028.2461.3135,1.3769Zm-.1958-.8272.3286.56.2895-.0342L48.1,89.7331l-.7427-.13a1.1352,1.1352,0,0,1,.0337.5644Z" transform="translate(-0.163 0.1059)"/><path class="cls-12" d="M45.158,92.1208l-.7187-1.2159.8491-1.1406.0425.3008a.896.896,0,0,0,.4175.6318l.1474.0909-.2993.2519.1484.6426Zm-.4189-1.2.4922.833.2334-.1748-.1465-.6328.1616-.1348a1.2551,1.2551,0,0,1-.1309-.1289,1.1726,1.1726,0,0,1-.1948-.3193Z" transform="translate(-0.163 0.1059)"/><path class="cls-12" d="M44.8709,89.83l-3.1782-5.1993.1025-.0615,6.0884-4.56.4824,2.9649-3.8174,2.2783,2.1246,3.4746Zm-2.8286-5.1065,2.9116,4.7627,1.3755-.8408-2.1255-3.4785,3.8877-2.3194-.3887-2.3906-5.6645,4.2422.0127.0185Z" transform="translate(-0.163 0.1059)"/><path class="cls-12" d="M46.4893,81.4326l.8041,1.6894c.0829.1742.3416.0222.259-.1515l-.804-1.6893c-.083-.1742-.3417-.0222-.2591.1514Z" transform="translate(-0.163 0.1059)"/><path class="cls-12" d="M45.2053,82.2239l.8031,1.7561c.08.1754.3388.0231.259-.1514l-.8031-1.7561c-.08-.1754-.3388-.0231-.259.1514Z" transform="translate(-0.163 0.1059)"/><path class="cls-12" d="M43.7625,83.2605a8.6869,8.6869,0,0,1,1.2612,1.5314c.1045.1615.3643.0113.259-.1514a9.0264,9.0264,0,0,0-1.3081-1.5921c-.1388-.1343-.3512.0776-.2121.2121Z" transform="translate(-0.163 0.1059)"/><path class="cls-12" d="M44.2787,85.0111a4.9479,4.9479,0,0,1-2.2011-.5546c-.1714-.0882-.3234.17-.1514.259a5.3025,5.3025,0,0,0,2.3525.5956.15.15,0,0,0,0-.3Z" transform="translate(-0.163 0.1059)"/><path class="cls-12" d="M42.9927,86.477a7.4146,7.4146,0,0,0,1.8876.09c.1911-.0155.1928-.3157,0-.3a7.1105,7.1105,0,0,1-1.8079-.0788c-.1888-.0329-.27.2562-.08.2892Z" transform="translate(-0.163 0.1059)"/><path class="cls-12" d="M43.5423,87.5856l1.9751-.0175a.15.15,0,0,0,0-.3l-1.9751.0175a.15.15,0,0,0,0,.3Z" transform="translate(-0.163 0.1059)"/><path class="cls-12" d="M44.3122,88.7172a9.7091,9.7091,0,0,0,2.0486-.1366c.19-.0327.1093-.3219-.08-.2893a9.3214,9.3214,0,0,1-1.9688.1259c-.193-.0078-.1927.2923,0,.3Z" transform="translate(-0.163 0.1059)"/><path class="cls-12" d="M63.8758,90.944a1.142,1.142,0,0,1-.0449-2.2832,1.1394,1.1394,0,0,1,1.1728.97,1.0878,1.0878,0,0,1,0,.3379,1.122,1.122,0,0,1-.2646.5791h0a1.1938,1.1938,0,0,1-.2686.2285A1.1439,1.1439,0,0,1,63.8758,90.944Zm0-2.0342c-.0117,0-.0234,0-.0352.001a.88.88,0,0,0-.64.3076.9586.9586,0,0,0-.0957.1338.8925.8925,0,0,0-.0674.7559.8945.8945,0,0,0,1.3018.4551.8961.8961,0,0,0,.21-.18h0a.8717.8717,0,0,0,.2071-.4522.8508.8508,0,0,0,0-.2627.8916.8916,0,0,0-.8809-.7588Zm.7685,1.5557h0Z" transform="translate(-0.163 0.1059)"/><path class="cls-12" d="M62.1287,90.8356l-.0146-.001-.5088-.0595a.1237.1237,0,0,1-.0879-.0518.129.129,0,0,1-.02-.1l.2636-1.16a.1254.1254,0,0,1,.1006-.0957l1.0557-.1845a.1286.1286,0,0,1,.124.0517.125.125,0,0,1,.0059.1348.8861.8861,0,0,0-.0674.7559.1256.1256,0,0,1-.0166.1171.1786.1786,0,0,1-.1074.0508l-.3272-.0195-.293.5A.1248.1248,0,0,1,62.1287,90.8356Zm-.3564-.293.29.0342.29-.4951a.15.15,0,0,1,.1142-.0615l.23.0137a1.1414,1.1414,0,0,1,.0342-.5645l-.7432.13Z" transform="translate(-0.163 0.1059)"/><path class="cls-12" d="M64.8934,91.9284a.1326.1326,0,0,1-.0752-.0244l-.41-.3067a.1281.1281,0,0,1-.0469-.1289l.1309-.5625-.167-.1406a.1232.1232,0,0,1-.0449-.1045.1266.1266,0,0,1,.06-.0976.8961.8961,0,0,0,.21-.18.8717.8717,0,0,0,.2071-.4522.1268.1268,0,0,1,.0927-.1035.123.123,0,0,1,.1319.0469l.6181.83a.1258.1258,0,0,1,.0069.1376l-.6055,1.0245a.1277.1277,0,0,1-.083.0595Zm-.27-.4834.2325.1748.4921-.833-.415-.5576a1.1161,1.1161,0,0,1-.1943.3183,1.2424,1.2424,0,0,1-.1309.1289l.1026.0869a.125.125,0,0,1,.0419.1241Z" transform="translate(-0.163 0.1059)"/><path class="cls-12" d="M65.1756,89.6481A.123.123,0,0,1,65.11,89.63l-1.5889-.9707a.1221.1221,0,0,1-.0557-.0772.1239.1239,0,0,1,.0147-.0947l2.0586-3.3682-3.7442-2.2344a.1246.1246,0,0,1-.0586-.1279l.4346-2.6777A.1243.1243,0,0,1,62.369,80l5.9238,4.4355a.1244.1244,0,0,1,.0478.1231.1181.1181,0,0,1-.0166.0547l-3.042,4.9755A.125.125,0,0,1,65.1756,89.6481Zm-1.417-1.1367,1.376.84,2.9219-4.78-5.6729-4.2481-.3877,2.3906,3.78,2.2549a.126.126,0,0,1,.042.1729Z" transform="translate(-0.163 0.1059)"/><path class="cls-12" d="M63.2689,81.065a12.3807,12.3807,0,0,0-.9443,1.9121c-.07.18.22.2578.2893.08a11.931,11.931,0,0,1,.914-1.8405.15.15,0,0,0-.259-.1514Z" transform="translate(-0.163 0.1059)"/><path class="cls-12" d="M64.3871,82.01l-.9788,1.6151a.15.15,0,0,0,.259.1514l.9788-1.6151a.15.15,0,0,0-.259-.1514Z" transform="translate(-0.163 0.1059)"/><path class="cls-12" d="M65.4943,82.746a3.1466,3.1466,0,0,1-.8484,1.4847.15.15,0,0,0,.2121.2122,3.4469,3.4469,0,0,0,.9256-1.6172.15.15,0,0,0-.2893-.08Z" transform="translate(-0.163 0.1059)"/><path class="cls-12" d="M65.7479,85.1693a6.2439,6.2439,0,0,0,1.6957-.8412c.1568-.11.0071-.37-.1514-.259a5.974,5.974,0,0,1-1.624.8109c-.1831.0589-.1048.3487.08.2893Z" transform="translate(-0.163 0.1059)"/><path class="cls-12" d="M65.2672,85.9958H67.41a.15.15,0,0,0,0-.3H65.2672a.15.15,0,0,0,0,.3Z" transform="translate(-0.163 0.1059)"/><path class="cls-12" d="M64.74,86.9131l1.6512.447a.15.15,0,0,0,.08-.2892l-1.6513-.447a.15.15,0,0,0-.08.2892Z" transform="translate(-0.163 0.1059)"/><path class="cls-12" d="M64.2042,87.8157l1.2979.6625c.1716.0876.3236-.1712.1514-.259l-1.2979-.6625c-.1716-.0876-.3236.1711-.1514.259Z" transform="translate(-0.163 0.1059)"/><path class="cls-12" d="M59.3582,77.4372H50.5565V75.9548h8.8017Zm-8.3017-.5h7.8017v-.4824H51.0565Z" transform="translate(-0.163 0.1059)"/><path class="cls-12" d="M56.4119,78.7311H53.7693V76.9372h2.6426Zm-2.1426-.5h1.6426v-.7939H54.2693Z" transform="translate(-0.163 0.1059)"/></g><polygon class="cls-15" points="55.147 78.006 54.373 78.882 55.161 79.482 55.928 78.868 55.147 78.006"/><polygon class="cls-15" points="54.893 79.161 54.092 88.003 55.263 89.662 56.298 88.003 55.376 79.128 54.893 79.161"/><polygon class="cls-16" points="54.373 78.882 54.092 79.221 52.815 77.505 53.911 77.04 55.147 78.006 54.373 78.882"/><polygon class="cls-16" points="55.92 78.882 56.201 79.221 57.489 77.49 56.379 77.046 55.147 78.006 55.92 78.882"/><path d="M63.3356,87.6367h.3185a.4324.4324,0,0,1,.4324.4324v5.5267a0,0,0,0,1,0,0H62.9032a0,0,0,0,1,0,0V88.069A.4324.4324,0,0,1,63.3356,87.6367Z" transform="translate(162.7033 139.3865) rotate(151.111)"/><path class="cls-17" d="M59.4935,86.8382a1.7418,1.7418,0,1,0,.6835-2.3665A1.7419,1.7419,0,0,0,59.4935,86.8382Z" transform="translate(-0.163 0.1059)"/><path class="cls-18" d="M59.6754,85.9018a.6117.6117,0,1,0,.24-.8311A.6118.6118,0,0,0,59.6754,85.9018Z" transform="translate(-0.163 0.1059)"/><rect class="cls-19" x="60.5111" y="87.0927" width="3.4835" height="2.2819" transform="translate(159.2235 135.5163) rotate(151.1101)"/><g id="live"><circle class="cls-19" cx="16.0205" cy="27.8795" r="1.853"/><path class="cls-2" d="M18.6942,25.0387l.4438-.2631,1.2358,2.0849,1.1455-.6792.2168.3643-1.59.9424Z" transform="translate(-0.163 0.1059)"/><path class="cls-2" d="M20.8792,23.7433l.4439-.2632,1.4521,2.4493-.4438.2631Z" transform="translate(-0.163 0.1059)"/><path class="cls-2" d="M24.3572,21.6813l.3619,3.0957-.3614.2139-2.5425-1.8027.461-.273,1.9365,1.4082-.3057-2.375Z" transform="translate(-0.163 0.1059)"/><path class="cls-2" d="M24.85,21.3893l1.6372-.9707.208.35-1.2041.7139.4014.6777,1.1323-.6714.208.3516L26.1,22.5114l.4268.7187,1.2041-.7138.208.3515-1.6372.9707Z" transform="translate(-0.163 0.1059)"/></g><polygon class="cls-20" points="17.377 47.579 16.268 47.579 16.651 53.314 17.759 53.314 17.377 47.579"/><path class="cls-21" d="M17.1429,47.0841h-.71l-.05-.77h-2.7v-10.89h-.37v10.89h-.43v-10.89h-.37v10.89h-1.26l-.07.77h-1.67l.01,6.52h8.02Zm-5.55,0,.04-.36h4.37l.02.36Z" transform="translate(-0.163 0.1059)"/><path class="cls-21" d="M95.11,50.688c.0172,0,.0343,0,.0515-.0012.88-.0419,1.8606-1.612,2.6247-4.2A37.401,37.401,0,0,0,99.05,35.8236l-.2247.0029A37.1706,37.1706,0,0,1,97.571,46.423c-.7138,2.4178-1.6637,4.0034-2.42,4.0394a1.0044,1.0044,0,0,1-.7579-.3338c-.8166-.8-2.1437-3.7218-1.857-14.3l-.2245-.0061c-.2143,7.9035.4691,13.0414,1.9243,14.467A1.24,1.24,0,0,0,95.11,50.688Z" transform="translate(-0.163 0.1059)"/><path class="cls-21" d="M82.1339,44.66c1.8473,0,2.9949-3.3853,2.9949-8.8348h-.2246c0,5.311-1.0615,8.61-2.77,8.61-1.7448,0-1.9466-4.914-1.9466-8.61h-.2246C79.9627,41.935,80.6323,44.66,82.1339,44.66Z" transform="translate(-0.163 0.1059)"/><polygon class="cls-20" points="36.768 41.373 32.722 40.18 29.673 44.682 33.572 47.323 36.768 41.373"/><polygon class="cls-21" points="36.657 40.917 32.145 39.586 28.744 44.607 33.093 47.553 36.657 40.917"/><polygon class="cls-21" points="36.678 40.584 36.852 37.391 33.442 37.155 32.417 39.454 36.678 40.584"/><path class="cls-21" d="M30.4172,44.4165s-3.5377-2.8638-2.4146-4.2677,4.6607.6177,4.6607.6177Z" transform="translate(-0.163 0.1059)"/><polygon class="cls-21" points="26.997 38.907 26.492 35.931 25.126 35.931 26.286 39.188 29.917 41.322 30.03 40.985 26.997 38.907"/><path class="cls-21" d="M27.1317,50.688c-.0172,0-.0344,0-.0516-.0012-.8794-.0419-1.8606-1.612-2.6247-4.2a37.4048,37.4048,0,0,1-1.2633-10.663l.2246.0029A37.174,37.174,0,0,0,24.6709,46.423c.7138,2.4178,1.6636,4.0034,2.42,4.0394a1.0046,1.0046,0,0,0,.758-.3338c.8166-.8,2.1437-3.7218,1.857-14.3l.2245-.0061c.2142,7.9035-.4692,13.0414-1.9243,14.467A1.24,1.24,0,0,1,27.1317,50.688Z" transform="translate(-0.163 0.1059)"/><path class="cls-21" d="M40.108,44.66c-1.8473,0-2.9949-3.3853-2.9949-8.8348h.2246c0,5.311,1.0615,8.61,2.77,8.61,1.7448,0,1.9466-4.914,1.9466-8.61h.2246C42.2792,41.935,41.61,44.66,40.108,44.66Z" transform="translate(-0.163 0.1059)"/><rect class="cls-21" x="35.6675" y="39.7838" width="0.3088" height="1.0669" transform="translate(9.9884 -7.008) rotate(13.1981)"/><rect class="cls-21" x="33.5337" y="39.1942" width="0.3088" height="1.0669" transform="translate(9.7995 -6.5375) rotate(13.2007)"/><polygon class="cls-21" points="28.498 44.872 26.997 46.628 29.44 50.25 32.762 47.562 28.498 44.872"/><rect class="cls-21" x="29.5414" y="44.6804" width="0.3532" height="1.2201" transform="translate(32.0903 99.5069) rotate(-149.411)"/><rect class="cls-21" x="31.6685" y="46.0531" width="0.3532" height="1.2201" transform="translate(35.3507 103.1436) rotate(-149.4118)"/><rect class="cls-20" x="30.0063" y="41.6207" width="1.46" height="0.1965" transform="translate(-20.8672 48.075) rotate(-60.5469)"/><rect class="cls-20" x="30.4555" y="41.9015" width="1.46" height="0.1965" transform="translate(-20.884 48.6039) rotate(-60.5414)"/><rect class="cls-20" x="30.9047" y="42.1823" width="1.46" height="0.1965" transform="translate(-20.8999 49.1396) rotate(-60.5434)"/><polygon class="cls-21" points="95.45 35.4 97.64 36.66 10.72 36.66 12.35 35.69 12.35 35.53 12.62 35.53 12.84 35.4 95.45 35.4"/><rect class="cls-22" x="64.53" y="38.2758" width="0.551" height="3.472"/><rect class="cls-22" x="57.0911" y="38.2758" width="0.551" height="3.472"/><path class="cls-23" d="M58.6578,41.227h4.6A3.9928,3.9928,0,0,1,67.251,45.22v0a3.9928,3.9928,0,0,1-3.9928,3.9928H58.6577A3.9928,3.9928,0,0,1,54.6649,45.22v0A3.9929,3.9929,0,0,1,58.6578,41.227Z"/><rect class="cls-24" x="54.9488" y="41.6675" width="12.0184" height="7.0352" rx="3.5176" ry="3.5176"/><path class="cls-25" d="M66.021,41.5745a1.2234,1.2234,0,0,0-.1278-.0128H60.6641L56.2208,48.584a1.2262,1.2262,0,0,0,.1278.0129h5.2292Z" transform="translate(-0.163 0.1059)"/><path class="cls-2" d="M58.4031,46.0212A.7.7,0,0,1,58.35,46.3a.6178.6178,0,0,1-.1459.2095.6247.6247,0,0,1-.2179.131.78.78,0,0,1-.2643.0445.7932.7932,0,0,1-.2687-.0445.5992.5992,0,0,1-.2156-.131.6268.6268,0,0,1-.1438-.2095.6964.6964,0,0,1-.053-.2791V43.919a.6964.6964,0,0,1,.053-.2791.6039.6039,0,0,1,.1438-.2073.64.64,0,0,1,.2156-.1311.7632.7632,0,0,1,.2687-.0466.7508.7508,0,0,1,.2643.0466.6684.6684,0,0,1,.2179.1311.5956.5956,0,0,1,.1459.2073.7.7,0,0,1,.0528.2791Zm-.977-.0042a.2773.2773,0,0,0,.0824.2177.3449.3449,0,0,0,.4272,0,.2773.2773,0,0,0,.0825-.2177V43.9233a.2778.2778,0,0,0-.0825-.2179.3453.3453,0,0,0-.4272,0,.2777.2777,0,0,0-.0824.2179Z" transform="translate(-0.163 0.1059)"/><path class="cls-2" d="M59.194,43.3142l.5626,2.284v-2.284h.3384V46.626h-.3468L59.11,44.19V46.626h-.3384V43.3142Z" transform="translate(-0.163 0.1059)"/><path class="cls-2" d="M62.0956,43.3142l.5752,3.3118h-.3765l-.0761-.4779h-.6175l-.0719.4779h-.3764l.5583-3.3118Zm-.4442,2.5082h.5161l-.2623-1.6581Z" transform="translate(-0.163 0.1059)"/><path class="cls-2" d="M63.3305,43.3142V46.626h-.389V43.3142Z" transform="translate(-0.163 0.1059)"/><path class="cls-2" d="M64.3923,43.3142a.6039.6039,0,0,1,.6555.6556v.461a.66.66,0,0,1-.0592.3088.3565.3565,0,0,1-.1734.1607.3888.3888,0,0,1,.19.165.6253.6253,0,0,1,.0675.3172V46.626h-.3848V45.37a.3225.3225,0,0,0-.0613-.2221.3275.3275,0,0,0-.239-.0655H64.1V46.626H63.72V43.3142ZM64.1,44.7481h.2623a.3224.3224,0,0,0,.239-.07.3312.3312,0,0,0,.0656-.23v-.4315q0-.3342-.3046-.3342H64.1Z" transform="translate(-0.163 0.1059)"/><polygon class="cls-21" points="71.175 35.4 50.741 35.4 49.675 37.713 50.741 40.026 71.175 40.026 72.241 37.713 71.175 35.4"/><polygon class="cls-26" points="67.297 35.4 60.695 35.4 54.619 40.026 61.221 40.026 67.297 35.4"/><polygon class="cls-22" points="71.175 39.198 50.741 39.198 49.675 37.713 50.741 40.026 71.175 40.026 72.241 37.713 71.175 39.198"/><path class="cls-21" d="M99.6329,41.0141v.22a4.74,4.74,0,0,1-3.61-4.68v-.06l.33-.2a2.2838,2.2838,0,0,0,.01.26A4.863,4.863,0,0,0,99.6329,41.0141Z" transform="translate(-0.163 0.1059)"/><path class="cls-21" d="M99.1144,35.2942H95.6129l2.19,1.26,1.82,1.05.01,3.41v.22c.1853.06.3981.0892.5959.1355q.0681-2.3414.0692-4.6854A3.2034,3.2034,0,0,1,99.1144,35.2942Z" transform="translate(-0.163 0.1059)"/><rect class="cls-27" x="25.79" y="90.5095" width="56.1667" height="2.8672"/><polygon class="cls-21" points="79.29 101.46 55.54 115.293 28.04 99.335 27.957 93.043 79.293 93.043 79.29 101.46"/><rect class="cls-28" x="39.165" y="95.585" width="29.5" height="7.25"/><path class="cls-29" d="M48.0633,96.9635v4.9805h-.6714l-2.686-3.49v3.49h-.8394V96.9635h.6714l2.6792,3.4834V96.9635Z" transform="translate(-0.163 0.1059)"/><path class="cls-29" d="M49.1473,96.9635h3.3291v.7139H50.0291v1.3779H52.33v.7129H50.0291V101.23h2.4473v.7139H49.1473Z" transform="translate(-0.163 0.1059)"/><path class="cls-29" d="M60.4432,96.9635l-1.7627,4.9805h-.7344l-1.2519-3.581-1.2657,3.581h-.7343l-1.7559-4.9805h.916l1.2451,3.7149,1.294-3.7149h.6435l1.2666,3.7422,1.2725-3.7422Z" transform="translate(-0.163 0.1059)"/><path class="cls-29" d="M61.657,101.8532a2.484,2.484,0,0,1-.85-.44l.3077-.6582a2.5905,2.5905,0,0,0,.7587.4023,2.7474,2.7474,0,0,0,.8643.13,1.4738,1.4738,0,0,0,.8008-.1826.5739.5739,0,0,0,.2832-.51.4717.4717,0,0,0-.2627-.4307,3.331,3.331,0,0,0-.8633-.2832,3.5713,3.5713,0,0,1-1.3643-.5244,1.1035,1.1035,0,0,1-.4267-.9375,1.3356,1.3356,0,0,1,.2383-.7832,1.5833,1.5833,0,0,1,.6748-.539,2.4585,2.4585,0,0,1,1.0107-.1954,3.1487,3.1487,0,0,1,.9971.1573,2.0748,2.0748,0,0,1,.7724.4375l-.3007.6572a2.2963,2.2963,0,0,0-1.4688-.5313,1.2925,1.2925,0,0,0-.7627.1993.63.63,0,0,0-.2793.542.4941.4941,0,0,0,.2481.4472,2.9478,2.9478,0,0,0,.85.2871,6.0563,6.0563,0,0,1,1.0146.3184,1.5079,1.5079,0,0,1,.6016.44,1.0665,1.0665,0,0,1,.21.6748,1.3081,1.3081,0,0,1-.2383.78,1.5117,1.5117,0,0,1-.6856.5137,2.7962,2.7962,0,0,1-1.0556.1816A3.64,3.64,0,0,1,61.657,101.8532Z" transform="translate(-0.163 0.1059)"/><path class="cls-21" d="M47.8133,97.2135v4.9805h-.6714l-2.686-3.49v3.49h-.8394V97.2135h.6714l2.6792,3.4834V97.2135Z" transform="translate(-0.163 0.1059)"/><path class="cls-21" d="M48.8973,97.2135h3.3291v.7139H49.7786v1.3779H52.08v.7129H49.7786V101.48h2.4478v.7139H48.8973Z" transform="translate(-0.163 0.1059)"/><path class="cls-21" d="M60.1932,97.2135l-1.7627,4.9805h-.7344l-1.2519-3.581-1.2657,3.581h-.7343l-1.7559-4.9805h.916l1.2451,3.7149,1.294-3.7149h.6435l1.2666,3.7422,1.2725-3.7422Z" transform="translate(-0.163 0.1059)"/><path class="cls-21" d="M61.407,102.1032a2.484,2.484,0,0,1-.85-.44l.3077-.6582a2.5905,2.5905,0,0,0,.7587.4023,2.7474,2.7474,0,0,0,.8643.13,1.4738,1.4738,0,0,0,.8008-.1826.5739.5739,0,0,0,.2832-.51.4717.4717,0,0,0-.2627-.4307,3.331,3.331,0,0,0-.8633-.2832,3.5713,3.5713,0,0,1-1.3643-.5244,1.1035,1.1035,0,0,1-.4267-.9375,1.3356,1.3356,0,0,1,.2383-.7832,1.5833,1.5833,0,0,1,.6748-.539,2.4585,2.4585,0,0,1,1.0107-.1954,3.1487,3.1487,0,0,1,.9971.1573,2.0748,2.0748,0,0,1,.7724.4375l-.3007.6572a2.2963,2.2963,0,0,0-1.4688-.5313,1.2925,1.2925,0,0,0-.7627.1993.63.63,0,0,0-.2793.542.4941.4941,0,0,0,.2481.4472,2.9478,2.9478,0,0,0,.85.2871,6.0563,6.0563,0,0,1,1.0146.3184,1.5079,1.5079,0,0,1,.6016.44,1.0665,1.0665,0,0,1,.21.6748,1.3081,1.3081,0,0,1-.2383.78,1.5117,1.5117,0,0,1-.6856.5137,2.7962,2.7962,0,0,1-1.0556.1816A3.64,3.64,0,0,1,61.407,102.1032Z" transform="translate(-0.163 0.1059)"/><path class="cls-30" d="M55.543,10.0741l-42.54,25.22-.22.13-.27.16-1.63.97-1.37.81v9.72l.01,6.52v20.67l.01,6.75v9.5l.86.51h.01l1.41.82.16.09,5.29,3.08.3.18.48.28,2.95,1.72,1.17.68,1.29.75,4.22,2.47,1.14.66.56.33.61.35.12.07.26.15,7.08,4.13,18.1,10.55,8.71-5.08.8-.46,4.35-2.54,1.23-.72,7.44-4.33.31-.18,1.97-1.15.63-.37.93-.54.01-.01,2.77-1.61,1.6-.93,4.17-2.43,10.2-5.96.88-.51h.01l.01-53.89-.14-.08-2.18-1.26-43.7-25.22Zm-44.07,52.16v-.44l-.01-18.18v-5.18l2.58-1.53.69-.41.34-.2.05-.03,40.54-24.05,41.16,23.74,3.03,1.75v22.06l-.01,29.69-2.71,1.58-1.41.82-5.26,3.06-4.17,2.43-2.35,1.37-2.02,1.18-1.85,1.08-1.15.67v.87h-1.5l-.23.14-.02.01-2.66,1.55-1.24.72-4.15,2.42-.08.05-.89.51-.1.06-2.35,1.37-.65.38-3.64,2.12-5.75,3.35-3.31-1.93-1.68-.98-3.28-1.91-1.39-.81-1.78-1.04-.13-.07-2.58-1.5-1.45-.85-2.62-1.53-.97-.56-2.57-1.5-.42-.24-1.68-.98-.94-.55-4.1-2.39-1.61-.94-2.99-1.74-.55-.32-.62-.36-1-.58-1.95-1.14-.78-.45-1.66-.97-1.41-.82-2.71-1.58v-8.1l-.01-6.75v-4.93l-1.22-.21.21-1.25.66-3.92.25-1.44.1-.62Zm0,0v0Zm0,0-.1.62-.25,1.44-.66,3.92-.21,1.25.21-1.25.66-3.92.25-1.44.1-.62v0Zm0,0-.1.62-.25,1.44-.66,3.92-.21,1.25,1.22.21v-7.44Zm-1.22,7.23,1.22.21-1.22-.21Zm68.67,32.18-.54.31-.96.56.96-.56.54-.31Zm0,0-.54.31-.96.56.96-.56.54-.31Zm0,0v0Zm0,0-.54.31-.96.56.96-.56.54-.31v0Zm0,0-.54.31-.96.56h1.5v-.87Zm0,.87h0Zm0,0h0Z" transform="translate(-0.163 0.1059)"/><path class="cls-31" d="M77.99,63.0552a3.31,3.31,0,0,0-.0437-.7334,3.2416,3.2416,0,0,0-.295-.8977,3.322,3.322,0,0,0-.5617-.8.2917.2917,0,0,0-.3295-.0759.2877.2877,0,0,0-.1787.2836.2776.2776,0,0,0,.0753.1788,2.8837,2.8837,0,0,1,.3017.3749,2.6746,2.6746,0,0,1,.4271,1.1106,2.7121,2.7121,0,0,1,.0123.6867,2.6677,2.6677,0,0,1-.5687,1.3893c-.053.0673-.1119.13-.169.1939a.29.29,0,0,0,.1648.4834l.01.005h.071a.3092.3092,0,0,0,.1794-.0941c.07-.08.1426-.1582.2087-.2415a3.2013,3.2013,0,0,0,.5476-1.0339" transform="translate(-0.163 0.1059)"/><path class="cls-31" d="M74.3562,62.9287a.8871.8871,0,0,0,.0346.1087.3472.3472,0,0,0,.3741.1974.35.35,0,1,0-.4035-.3994l-.0052.0164Z" transform="translate(-0.163 0.1059)"/><path class="cls-31" d="M77.0273,62.8847a2.2966,2.2966,0,0,0-.6019-1.5538.5164.5164,0,0,0-.1469-.131.2918.2918,0,0,0-.3652.0858.2888.2888,0,0,0,.0262.3741,1.6775,1.6775,0,0,1,.465.8487,1.7156,1.7156,0,0,1-.39,1.5305c-.0236.0277-.0494.0536-.0743.08a.29.29,0,1,0,.4182.4023,2.2985,2.2985,0,0,0,.5994-1.0632" transform="translate(-0.163 0.1059)"/><path class="cls-31" d="M76.0625,62.9079a1.3708,1.3708,0,0,0-.4356-1.0117.29.29,0,0,0-.495.2273.2756.2756,0,0,0,.0918.1893.7475.7475,0,0,1,.2367.4041.7551.7551,0,0,1-.2265.7385.2879.2879,0,0,0-.0948.2829.29.29,0,0,0,.4808.1507,1.3365,1.3365,0,0,0,.426-.8035C76.0558,63.02,76.0583,62.9543,76.0625,62.9079Z" transform="translate(-0.163 0.1059)"/><path class="cls-31" d="M32.6105,63.5552a3.3159,3.3159,0,0,1,.0437-.7334,3.2449,3.2449,0,0,1,.295-.8977,3.322,3.322,0,0,1,.5617-.8.2917.2917,0,0,1,.33-.0759.2877.2877,0,0,1,.1787.2836.2776.2776,0,0,1-.0753.1788,2.8837,2.8837,0,0,0-.3017.3749,2.6746,2.6746,0,0,0-.4271,1.1106,2.7167,2.7167,0,0,0-.0123.6867,2.667,2.667,0,0,0,.5688,1.3893c.053.0673.1119.13.1689.1939a.29.29,0,0,1-.1648.4834l-.01.005h-.071a.3092.3092,0,0,1-.1795-.0941c-.07-.08-.1426-.1582-.2087-.2415a3.2013,3.2013,0,0,1-.5476-1.0339" transform="translate(-0.163 0.1059)"/><path class="cls-31" d="M36.2446,63.4287a.8871.8871,0,0,1-.0346.1087.3472.3472,0,0,1-.3741.1974.35.35,0,1,1,.4035-.3994l.0052.0164Z" transform="translate(-0.163 0.1059)"/><path class="cls-31" d="M33.5735,63.3847a2.2966,2.2966,0,0,1,.6019-1.5538.5164.5164,0,0,1,.1469-.131.2918.2918,0,0,1,.3652.0858.2889.2889,0,0,1-.0261.3741,1.6769,1.6769,0,0,0-.4651.8487,1.7156,1.7156,0,0,0,.39,1.5305c.0236.0277.0494.0536.0743.08a.29.29,0,1,1-.4182.4023,2.2994,2.2994,0,0,1-.5994-1.0632" transform="translate(-0.163 0.1059)"/><path class="cls-31" d="M34.5383,63.4079a1.3712,1.3712,0,0,1,.4356-1.0117.29.29,0,0,1,.4951.2273.2761.2761,0,0,1-.0919.1893.7475.7475,0,0,0-.2367.4041.7553.7553,0,0,0,.2265.7385.2881.2881,0,0,1,.0949.2829.29.29,0,0,1-.4809.1507,1.3376,1.3376,0,0,1-.426-.8035C34.545,63.52,34.5425,63.4543,34.5383,63.4079Z" transform="translate(-0.163 0.1059)"/></svg>