<svg id="Layer_1" data-name="Layer 1" xmlns="http://www.w3.org/2000/svg" xmlns:xlink="http://www.w3.org/1999/xlink" viewBox="0 0 110.84998 128"><defs><linearGradient id="Stainless_Steel" y1="64" x2="110.84998" y2="64" gradientUnits="userSpaceOnUse"><stop offset="0" stop-color="#e5e2df"/><stop offset="0" stop-color="#d8d4d0"/><stop offset="0" stop-color="#ccc7c2"/><stop offset="0.06819" stop-color="#bdb9b4"/><stop offset="0.14607" stop-color="#a7a3a0"/><stop offset="0.52247" stop-color="#e0e1e2"/><stop offset="0.62461" stop-color="#d3d3d3"/><stop offset="0.81979" stop-color="#b2afac"/><stop offset="0.8764" stop-color="#a7a3a0"/><stop offset="1" stop-color="#d1d3d4"/><stop offset="1" stop-color="#a7a9ac"/></linearGradient><radialGradient id="Copper_Radial" cx="55.79736" cy="63.36352" r="46.77073" gradientTransform="translate(-27.24787 35.4659) rotate(-30) scale(1.02746 1.04236)" gradientUnits="userSpaceOnUse"><stop offset="0" stop-color="#fff2db"/><stop offset="0.30899" stop-color="#d7b189"/><stop offset="0.7508" stop-color="#92562d"/><stop offset="0.7809" stop-color="#8d5027"/><stop offset="1" stop-color="#541513"/></radialGradient><radialGradient id="Steel_Radial" cx="29.82351" cy="86.35999" r="7.68237" gradientUnits="userSpaceOnUse"><stop offset="0" stop-color="#e5e2df"/><stop offset="0" stop-color="#f1efee"/><stop offset="0" stop-color="#fff"/><stop offset="0.12591" stop-color="#f0f0f1"/><stop offset="0.36635" stop-color="#c9cacb"/><stop offset="0.52247" stop-color="#adaeb0"/><stop offset="0.60285" stop-color="#a3a5a7"/><stop offset="0.73816" stop-color="#898d90"/><stop offset="0.91075" stop-color="#5f6769"/><stop offset="1" stop-color="#465053"/></radialGradient><radialGradient id="Steel_Radial-2" cx="81.17506" cy="86.65067" r="7.68237" xlink:href="#Steel_Radial"/><linearGradient id="Cast_Iron" x1="46.67669" y1="38.26658" x2="63.9995" y2="38.26658" gradientUnits="userSpaceOnUse"><stop offset="0.00562" stop-color="#85878d"/><stop offset="0.52809" stop-color="#979899"/><stop offset="1" stop-color="#5d5c62"/></linearGradient></defs><g id="Layer_63" data-name="Layer 63"><polygon points="110.85 32 110.85 96 55.43 128 11.08 102.4 10.88 102.28 0 96 0 32 55.43 0 110.85 32" fill="url(#Stainless_Steel)"/></g><g id="Layer_63-2" data-name="Layer 63"><polygon points="101.439 37.434 101.439 90.566 55.429 117.133 9.411 90.566 9.411 37.434 55.429 10.867 101.439 37.434" fill="#fff"/><polygon points="55.102 12.068 10.612 37.755 10.935 89.687 55.748 115.932 100.238 90.245 99.915 38.313 55.102 12.068" opacity="0.26" fill="url(#Copper_Radial)"/><path d="M52.85815,43.57286a5.99178,5.99178,0,0,1-2.21567-9.29724c1.09858-1.33123,8.00988-1.39939,9.1074-.16019a5.99151,5.99151,0,0,1-2.07819,9.45722" fill="#0fcf7d"/><path d="M58.45349,36.09994a1.56267,1.56267,0,1,1-1.56283-1.56262,1.56268,1.56268,0,0,1,1.56283,1.56262" fill="#fff"/><path d="M59.57,38.43612a.632.632,0,1,1-.63191-.6318.63183.63183,0,0,1,.63191.6318" fill="#fff"/><path d="M60.71875,45.98267c-.77,0-.77-1.1641-1.53969-1.1641s-.76969,1.1641-1.53948,1.1641-.76989-1.1641-1.53969-1.1641c-.77052,0-.77052,1.1641-1.54063,1.1641-.76969,0-.76969-1.1641-1.53969-1.1641-.77074,0-.77074,1.1641-1.54116,1.1641s-.77053-1.1641-1.54095-1.1641" fill="none" stroke="#000" stroke-linecap="round" stroke-miterlimit="10" stroke-width="0.63106"/><line x1="47.71885" y1="43.57264" x2="62.93704" y2="43.57264" fill="none" stroke="#000" stroke-linecap="round" stroke-miterlimit="10" stroke-width="0.63106"/><path d="M46.49743,37.073a12.46475,12.46475,0,0,1,17.55017-.37569" fill="none" stroke="#000" stroke-linecap="round" stroke-miterlimit="10" stroke-width="0.63106"/><path d="M63.58041,42.24961h.92072A1.35827,1.35827,0,0,0,65.85571,40.895V37.45469a1.35846,1.35846,0,0,0-1.35458-1.35447h-.39" fill="none" stroke="#000" stroke-linecap="round" stroke-miterlimit="10" stroke-width="0.63106"/><path d="M47.0962,42.24961h-.92093A1.35859,1.35859,0,0,1,44.82049,40.895V37.45469a1.35877,1.35877,0,0,1,1.35478-1.35447h.39053" fill="none" stroke="#000" stroke-linecap="round" stroke-miterlimit="10" stroke-width="0.63106"/><line x1="64.24355" y1="38.4361" x2="64.24355" y2="27.5489" fill="none" stroke="#000" stroke-linecap="round" stroke-miterlimit="10" stroke-width="0.63106"/><line x1="46.40151" y1="38.4361" x2="46.40151" y2="29.94599" fill="none" stroke="#000" stroke-linecap="round" stroke-miterlimit="10" stroke-width="0.63106"/><path d="M46.40151,38.56526a8.921,8.921,0,1,1,17.842,0L62.04283,47.228H48.60192Z" fill="none" stroke="#000" stroke-linecap="round" stroke-miterlimit="10" stroke-width="0.63106"/><path d="M60.27027,34.23417a6.26694,6.26694,0,0,1-2.25121,9.30649" fill="none" stroke="#000" stroke-linecap="round" stroke-miterlimit="10" stroke-width="0.63106"/><path d="M52.4797,43.57285a6.26721,6.26721,0,0,1-2.54224-9.00937" fill="none" stroke="#000" stroke-linecap="round" stroke-miterlimit="10" stroke-width="0.63106"/><path d="M60.1427,51.18515H50.50194a1.89985,1.89985,0,0,1-1.9-1.90013V47.22828H62.04283V49.285A1.9,1.9,0,0,1,60.1427,51.18515Z" fill="none" stroke="#000" stroke-linecap="round" stroke-miterlimit="10" stroke-width="0.63106"/><path d="M43.68472,62.00536l.25307,2.73494,2.30869,2.49613,2.02325.15327,7.40591.57749,7.59324-.43554,2.54524-1.412,1.17736-2.68839-.50531-1.4259Z" fill="#15003e"/><path d="M61.38742,67.74236H48.85511c-2.97518,0-5.38722-1.93012-5.38722-4.31115V57.35309H66.77464v6.07812C66.77464,65.81224,64.36277,67.74236,61.38742,67.74236Z" fill="none" stroke="#15003e" stroke-linejoin="round" stroke-width="0.90496"/><path d="M57.73605,62.24425a2.466,2.466,0,1,0-2.40615,1.92552,2.20639,2.20639,0,0,0,2.40615-1.92552" fill="#25e899"/><ellipse cx="55.32999" cy="62.24425" rx="2.47528" ry="1.98085" fill="none" stroke="#15003e" stroke-linejoin="round" stroke-width="0.93097"/><path d="M66.8504,66.843a1.20384,1.20384,0,1,0-1.17466.94,1.07713,1.07713,0,0,0,1.17466-.94" fill="#15003e"/><path d="M46.26981,66.843a1.26077,1.26077,0,1,0-1.23021.98448,1.12807,1.12807,0,0,0,1.23021-.98448" fill="#15003e"/><path d="M57.0602,68.70735A1.98728,1.98728,0,1,0,55.12126,70.259a1.77809,1.77809,0,0,0,1.93894-1.55164" fill="#eff4ee"/><path d="M46.65536,66.2028a.74721.74721,0,1,0-.729.58342.66856.66856,0,0,0,.729-.58342" fill="#eff4ee"/><path d="M65.4627,66.2117a.78255.78255,0,1,0-.76352.611.70016.70016,0,0,0,.76352-.611" fill="#eff4ee"/><rect x="36.52872" y="63.36648" width="7.69475" height="2.56492" fill="#15003e"/><rect x="66.45273" y="63.36648" width="7.69475" height="2.56492" fill="#15003e"/><rect x="47.03865" y="54.36886" width="16.58267" height="2.98428" fill="none" stroke="#15003e" stroke-linecap="round" stroke-miterlimit="6.66667" stroke-width="0.90496"/><path d="M48.86286,52.8774H61.79712" fill="none" stroke="#25e899" stroke-linecap="round" stroke-miterlimit="6.66667" stroke-width="0.90496"/><path d="M29.82351,62.71787H35.173a1.35563,1.35563,0,0,1,1.35572,1.35572v1.15076A1.35576,1.35576,0,0,1,35.173,66.58007H29.82351" fill="#eff4ee" stroke="#15003e" stroke-linecap="round" stroke-miterlimit="6.66667" stroke-width="1.08733"/><path d="M30.501,66.58a1.9311,1.9311,0,1,0-1.93111-1.93109A1.93113,1.93113,0,0,0,30.501,66.58" fill="#25e899"/><circle cx="30.50114" cy="64.64894" r="1.9311" fill="none" stroke="#15003e" stroke-linecap="round" stroke-miterlimit="6.66668" stroke-width="1.08733"/><path d="M80.85269,62.71784H75.5032a1.35564,1.35564,0,0,0-1.35572,1.35572v1.15076A1.35575,1.35575,0,0,0,75.5032,66.58h5.34949" fill="#eff4ee" stroke="#15003e" stroke-linecap="round" stroke-miterlimit="6.66667" stroke-width="1.08733"/><path d="M80.17522,66.58a1.9311,1.9311,0,1,1,1.9311-1.9311,1.93113,1.93113,0,0,1-1.9311,1.9311" fill="#25e899"/><circle cx="80.17506" cy="64.64891" r="1.9311" fill="none" stroke="#15003e" stroke-linecap="round" stroke-miterlimit="6.66668" stroke-width="1.08733"/><path d="M55.566,82.98968h1.89565V71.68187a1.89565,1.89565,0,0,0-3.7913,0V81.094A1.8957,1.8957,0,0,0,55.566,82.98968Z" fill="none" stroke="#15003e" stroke-linejoin="round" stroke-width="0.99657"/><path d="M51.4241,71.56466V84.181" fill="none" stroke="#15003e" stroke-linecap="round" stroke-linejoin="round" stroke-width="0.99658"/><path d="M52.69144,90.291h3.50279a1.2674,1.2674,0,0,0,0-2.53479H52.69144a1.2674,1.2674,0,0,0,0,2.53479Z" fill="none" stroke="#15003e" stroke-linecap="round" stroke-linejoin="round" stroke-width="0.99657"/><path d="M49.73525,99.18778h8.75191a1.69659,1.69659,0,1,0,0-3.39317H49.73525a1.69659,1.69659,0,1,0,0,3.39317Z" fill="none" stroke="#15003e" stroke-linecap="round" stroke-linejoin="round" stroke-width="0.99657"/><rect x="52.82756" y="90.29102" width="3.36659" height="5.50375" stroke-width="0.99657" stroke="#15003e" stroke-linecap="round" stroke-linejoin="round" fill="none"/><path d="M57.46172,85.98067H51.42414" fill="none" stroke="#15003e" stroke-linecap="round" stroke-linejoin="round" stroke-width="0.99657"/><rect x="55.17516" y="99.18777" width="3.24933" height="1.19273" fill="#15003e" stroke="#15003e" stroke-linejoin="round" stroke-width="0.99657"/><rect x="50.24262" y="99.18777" width="3.24933" height="1.19273" fill="#15003e" stroke="#15003e" stroke-linejoin="round" stroke-width="0.99657"/><path d="M57.46167,78.79652H53.67053" fill="#15003e" stroke="#15003e" stroke-linejoin="round" stroke-width="0.99657"/><path d="M57.46167,73.869H53.67054" fill="#15003e" stroke="#15003e" stroke-linejoin="round" stroke-width="0.99657"/><circle cx="54.87438" cy="84.45623" r="1.41862" fill="none" stroke="#15003e" stroke-linecap="round" stroke-linejoin="round" stroke-width="0.99658"/><path d="M54.511,87.75612V85.98056" fill="none" stroke="#15003e" stroke-linecap="round" stroke-linejoin="round" stroke-width="0.99658"/><path d="M55.11,83.01268H53.21438V71.70487a1.89566,1.89566,0,0,1,3.79131,0V81.117A1.89571,1.89571,0,0,1,55.11,83.01268Z" fill="none" stroke="#15003e" stroke-linejoin="round" stroke-width="0.99657"/><path d="M59.252,71.58746V84.20377" fill="none" stroke="#15003e" stroke-linecap="round" stroke-linejoin="round" stroke-width="0.99658"/><path d="M57.98477,90.3138H54.482a1.2674,1.2674,0,0,1,0-2.53479h3.50279a1.2674,1.2674,0,0,1,0,2.53479Z" fill="none" stroke="#15003e" stroke-linecap="round" stroke-linejoin="round" stroke-width="0.99657"/><path d="M60.941,99.21079H52.189a1.69659,1.69659,0,1,1,0-3.39318H60.941a1.69659,1.69659,0,1,1,0,3.39318Z" fill="none" stroke="#15003e" stroke-linecap="round" stroke-linejoin="round" stroke-width="0.99657"/><rect x="54.48207" y="90.31363" width="3.36659" height="5.50375" stroke-width="0.99657" stroke="#15003e" stroke-linecap="round" stroke-linejoin="round" fill="none"/><path d="M53.2146,86.00347h6.03758" fill="none" stroke="#15003e" stroke-linecap="round" stroke-linejoin="round" stroke-width="0.99657"/><rect x="52.25156" y="99.21081" width="3.24933" height="1.19273" fill="#15003e" stroke="#15003e" stroke-linejoin="round" stroke-width="0.99657"/><rect x="57.184" y="99.21082" width="3.24933" height="1.19273" fill="#15003e" stroke="#15003e" stroke-linejoin="round" stroke-width="0.99657"/><path d="M53.21461,78.81952h3.79113" fill="#15003e" stroke="#15003e" stroke-linejoin="round" stroke-width="0.99657"/><path d="M53.21461,73.892h3.79114" fill="#15003e" stroke="#15003e" stroke-linejoin="round" stroke-width="0.99657"/><circle cx="55.80183" cy="84.47886" r="1.41862" fill="none" stroke="#15003e" stroke-linecap="round" stroke-linejoin="round" stroke-width="0.99658"/><path d="M56.16514,87.77912V86.00356" fill="none" stroke="#15003e" stroke-linecap="round" stroke-linejoin="round" stroke-width="0.99658"/><path d="M19.21771,84.00317H40.4293C29.82351,94.60887,19.21771,84.00317,19.21771,84.00317Z" stroke="#000" stroke-linecap="round" stroke-miterlimit="10" stroke-width="0.88373" fill="url(#Steel_Radial)"/><polyline points="39.709 83.407 30.362 65.867 28.947 68.529 20.726 84.003 29.912 83.692 30.066 77.421 30.362 65.31" fill="none" stroke="#000" stroke-linecap="round" stroke-linejoin="bevel" stroke-width="0.5"/><path d="M91.78085,84.29385H70.56926C81.17506,94.89955,91.78085,84.29385,91.78085,84.29385Z" stroke="#000" stroke-linecap="round" stroke-miterlimit="10" stroke-width="0.88373" fill="url(#Steel_Radial-2)"/><polyline points="71.29 83.698 80.637 66.157 82.051 68.819 90.272 84.294 81.086 83.983 80.933 77.712 80.637 65.601" fill="none" stroke="#000" stroke-linecap="round" stroke-linejoin="bevel" stroke-width="0.5"/><rect x="46.67669" y="32.9925" width="17.32281" height="10.54816" rx="3.11285" stroke="#231f20" stroke-miterlimit="6.66667" stroke-width="0.93224" fill="url(#Cast_Iron)"/></g><g id="Layer_63-3" data-name="Layer 63" opacity="0.13" style="isolation:isolate"><path d="M55.425,10.865,9.415,37.435v53.13L55.425,117.135l46.01-26.57V37.435ZM99.725,89.505l-44.18,25.5-44.18-25.5V38.495l44.18-25.51,44.18,25.51Z"/></g></svg>