<svg id="Layer_2" data-name="Layer 2" xmlns="http://www.w3.org/2000/svg" viewBox="0 0 1200 1200"><defs><style>.cls-1{fill:#5e726d;}.cls-2{fill:#15003e;}.cls-3{opacity:0.13;isolation:isolate;}.cls-4{fill:#eff4ee;}.cls-5{fill:#25e899;}.cls-6{fill:#0fce7c;}.cls-7{fill:#fff;}.cls-8{fill:#ffce08;}</style></defs><title>Bot creative</title><polygon class="cls-1" points="181.61 352.22 609.43 102.97 1037.54 352.24 1037.54 850.72 609.45 1095.04 181.61 850.7 181.61 352.22"/><path class="cls-2" d="M609.82,5.61,94.67,303V897.79l515.15,297.39,515-297.39V303Zm427.89,841.62L609.65,1094,181.83,847.21V353.58L609.62,106.74,1037.71,353.6Z"/><g id="Layer_2-2" data-name="Layer 2-2"><g id="Layer_16" data-name="Layer 16"><path class="cls-3" d="M989.68,325.88l-5-2.78L978,319.19,970.88,315l-1-.56-4.56-2.6-4.73-2.73-8.36-4.84-67.41-38.84L869,256.33l-6.69-3.91L858.09,250l-4.55-2.69-.47-.19-3.9-2.32-3.82-2.23L795.79,214,614.58,109.63l-5-2.89-4.37,2.51-159,91.83L399.61,228,387.53,235l-5,2.87-.93.47h-.09l-2.3,1.43-3.91,2.31-2.78,1.59-2.51,1.49-1.68.92-13.93,8.09h-.05l-16.55,9.47-.1.1-5.38,3.17-7.07,4-.09.09-.28.19-30.21,17.37h-.09l-22.11,12.74-9.32,5.41-27.76,16-39.31,22.68-14.31,8.27V847.21l.65.37,16,9.3,6.94,4,1.39.75,40.15,23.23,6.42,3.63,5,2.87,17.48,10.13L290.55,910l4.27,2.42,12.09,6.94,31.45,18.2,50,28.81,6.41,3.72.66.36,1.38.75,1,.65,1.67.92.38.19,17.74,10.32,8.18,4.65,12.36,7.25,8.28,4.73,1.67.94,2.88,1.67,1.76,1,4.46,2.6,33.19,19.05.83.47,4.09,2.42,5.77,3.35,6.69,3.89h.09l4.95,2.8,14,8.07,29.46,17.1,41.64,24,9.57,5.58,2.14,1.21.18-.1,1.77-1,1.3-.74.28-.18,2.88-1.68,16.85-9.57.84-.47,6.41-3.71,4.65-2.7,2.23-1.3L682.82,1052l22.8-13.1,6.88-4,6.13-3.52,6.23-3.62,4.09-2.42,21.59-12.44,3.63-2h.09l2.14-1.3,2-1.12,5.85-3.34,7.44-4.27L783.38,994l4.28-2.51h.09L792,989l.09-.09,2.33-1.31,4.95-2.87,3.44-2,3.27-2,5.1-2.88,2-1.21,3-1.67,4-2.23.19-.1.47-.27,1.21-.75,2.23-1.21,35.13-20.26,3.53-2,10.31-6,27.6-15.85,14.5-8.36,28.36-16.37,17.56-10.13,33.3-19.27h.09l.55-.37,24.64-14.22,8.36-4.83,9.57-5.49V353.6Zm30.67,511.48-4.84,2.79-3,1.67-5.38,3.15-70.55,40.71-10,5.76L909,901.52l-15.8,9.11-29,16.74-11.89,6.87-6.69,3.81-27.23,15.7-.66.47-1.48.84-1.68,1-5.29,3L801,963.76,799,965l-.49.35L791,969.69l-.84.46-36.34,20.91-.75.47-7.33,4.18-.75.47-8.45,5-20,11.52-14.29,8.18-15.61,9-10.23,5.86-27.58,16-11.43,6.6-.57.37h-.17l-6.94,4.09-2.6,1.4-17.38,10-32.07-18.49-11.43-6.6-5.67-3.25-16.85-9.77-6.69-3.8-6.41-3.72-48.92-28.16-7.16-4.18-.45-.28-16.65-9.58-19.14-11-8.37-4.84-5.39-3.15-2.32-1.4-4-2.32-2-1.12L400,953.2l-2.89-1.68-1.76-1-13.94-8.08-31.79-18.31-36.33-21-2.8-1.59-13.59-7.83-4-2.33-27.76-16L219.57,849l-8.35-4.74-3.63-2.14-2.14-1.21-6.23-3.62V363.64l36.21-21,27.76-16,8.64-5h.09l.57-.38,29.74-17.18h.09L315,296.7h.1l16.64-9.57,11.62-6.69,4-2.32h.09l7.07-4.09,4.27-2.52h.1l27.7-16c.08-.1.08-.1.17-.1l7.26-4.19,3.25-1.85,1.86-1.12,2.69-1.58,1.59-.93,2.51-1.39.36-.18,74.65-43.12,124.44-71.85,4.37-2.51,5,2.89L771,219.81l64.87,37.46.47.28,3,1.67,1,.56,4.1,2.42,3.25,1.85,11.43,6.6,18,10.41,65.25,37.55,13.1,7.52,5.11,3,.37.27,7.16,4.1,1.76,1,5,2.88,5,2.88,40.49,23.41V837.36Z"/></g></g><path class="cls-2" d="M818.3,916.73H381.44a3.56,3.56,0,0,1,0-7.11H818.3a3.56,3.56,0,0,1,0,7.11Z"/><path class="cls-4" d="M574.33,390.18a6.31,6.31,0,1,0-6.3,6.3,6.3,6.3,0,0,0,6.3-6.3"/><path class="cls-4" d="M642,390.18a6.31,6.31,0,1,0-6.3,6.3,6.3,6.3,0,0,0,6.3-6.3"/><polygon class="cls-5" points="530.18 360.1 660.42 360.1 671.45 364.31 663.15 394.03 538.38 394.03 530.18 360.1"/><path class="cls-4" d="M645.51,430.77H556a17.64,17.64,0,0,1-17.64-17.64V394H663.15v19.1a17.64,17.64,0,0,1-17.64,17.64"/><path class="cls-2" d="M645.51,434.82H556a21.71,21.71,0,0,1-21.69-21.69V390H667.21v23.15A21.72,21.72,0,0,1,645.51,434.82ZM542.43,398.09v15A13.61,13.61,0,0,0,556,426.72h89.49a13.6,13.6,0,0,0,13.59-13.59v-15Z"/><path class="cls-6" d="M577.89,360.1a55.61,55.61,0,0,1-20.57-86.3c10.2-12.36,74.36-13,84.55-1.49a55.63,55.63,0,0,1-19.3,87.79"/><path class="cls-2" d="M574.37,364.15a4,4,0,0,1-1.77-.41,62.23,62.23,0,0,1-25.24-89.46,4.05,4.05,0,0,1,6.83,4.37,54.14,54.14,0,0,0,22,77.81,4,4,0,0,1-1.78,7.69Z"/><path class="cls-2" d="M625.8,363.85a4,4,0,0,1-1.82-7.67,54.13,54.13,0,0,0,19.45-80.37A4.05,4.05,0,1,1,650,271a62.22,62.22,0,0,1-22.35,92.42A4,4,0,0,1,625.8,363.85Z"/><path class="cls-2" d="M666.3,398.09H535.23l-21.33-84v-.5a86.87,86.87,0,1,1,173.73,0v.5l-.12.49ZM541.53,390H660l19.52-76.86a78.76,78.76,0,0,0-157.51,0Z"/><path class="cls-2" d="M518,316.47a4,4,0,0,1-4.05-4.05V233.6a4.05,4.05,0,1,1,8.1,0v78.82A4,4,0,0,1,518,316.47Z"/><path class="cls-2" d="M683.58,316.47a4,4,0,0,1-4.05-4.05V211.35a4.05,4.05,0,1,1,8.1,0V312.42A4,4,0,0,1,683.58,316.47Z"/><path class="cls-2" d="M524.4,351.87h-8.55a16.65,16.65,0,0,1-16.62-16.63V303.31a16.65,16.65,0,0,1,16.62-16.63h3.63a4,4,0,0,1,0,8.1h-3.63a8.54,8.54,0,0,0-8.52,8.53v31.93a8.53,8.53,0,0,0,8.52,8.52h8.55a4.06,4.06,0,0,1,0,8.11Z"/><path class="cls-2" d="M686,351.87h-8.54a4.06,4.06,0,1,1,0-8.11H686a8.54,8.54,0,0,0,8.53-8.52V303.31a8.54,8.54,0,0,0-8.53-8.53h-3.62a4,4,0,0,1,0-8.1H686a16.65,16.65,0,0,1,16.63,16.63v31.93A16.65,16.65,0,0,1,686,351.87Z"/><path class="cls-2" d="M518.84,303.82a4.06,4.06,0,0,1-2.89-6.89,119.76,119.76,0,0,1,168.59-3.6,4,4,0,1,1-5.56,5.89,111.66,111.66,0,0,0-157.24,3.37A4,4,0,0,1,518.84,303.82Z"/><path class="cls-2" d="M671.45,364.15H530.18a4,4,0,1,1,0-8.1H671.45a4.05,4.05,0,1,1,0,8.1Z"/><path class="cls-7" d="M629.83,290.73a14.51,14.51,0,1,1-14.51-14.5,14.51,14.51,0,0,1,14.51,14.5"/><path class="cls-7" d="M640.2,312.42a5.87,5.87,0,1,1-5.87-5.87,5.86,5.86,0,0,1,5.87,5.87"/><path class="cls-2" d="M650.86,386.52c-5.75,0-8.63-4.34-10.53-7.22s-2.56-3.58-3.76-3.58-2,.85-3.77,3.58-4.77,7.22-10.52,7.22-8.63-4.34-10.53-7.22-2.56-3.58-3.77-3.58-2,.85-3.77,3.58-4.77,7.22-10.53,7.22-8.62-4.34-10.53-7.22-2.56-3.58-3.76-3.58-2,.85-3.78,3.58-4.78,7.22-10.53,7.22-8.63-4.34-10.53-7.22-2.57-3.58-3.77-3.58a4.06,4.06,0,0,1,0-8.11c5.75,0,8.63,4.35,10.53,7.22s2.57,3.59,3.77,3.59,2-.85,3.77-3.59,4.78-7.22,10.54-7.22,8.62,4.35,10.52,7.22,2.57,3.59,3.77,3.59,2-.85,3.77-3.59,4.78-7.22,10.53-7.22,8.63,4.35,10.53,7.22,2.56,3.59,3.77,3.59,2-.85,3.76-3.59,4.78-7.22,10.53-7.22,8.62,4.35,10.52,7.22,2.57,3.59,3.77,3.59a4,4,0,0,1,0,8.1Z"/><path class="cls-5" d="M655.84,470.08H541.64a4.06,4.06,0,1,1,0-8.11h114.2a4.06,4.06,0,0,1,0,8.11Z"/><path class="cls-5" d="M649.54,452H552.28a4.05,4.05,0,1,1,0-8.1h97.26a4.05,4.05,0,1,1,0,8.1Z"/><path class="cls-8" d="M819.56,692c0,13.25-5.65,24-12.62,24s-12.62-10.75-12.62-24,5.65-24,12.62-24S819.56,678.72,819.56,692Z"/><path class="cls-8" d="M863.33,612.25c0,13.26-5.65,24-12.62,24s-12.62-10.75-12.62-24,5.65-24,12.62-24S863.33,599,863.33,612.25Z"/><path class="cls-8" d="M653.72,599.63c13.26,0,24,5.65,24,12.62s-10.75,12.62-24,12.62-24-5.65-24-12.62S640.46,599.63,653.72,599.63Z"/><path class="cls-8" d="M865.27,807.18c0,13.26-5.65,24-12.62,24S840,820.44,840,807.18s5.65-24,12.62-24S865.27,793.92,865.27,807.18Z"/><path class="cls-8" d="M517.08,641c0,13.26-5.65,24-12.62,24s-12.62-10.75-12.62-24,5.65-24,12.62-24S517.08,627.72,517.08,641Z"/><path class="cls-8" d="M403.3,648.75c0,13.26-5.65,24-12.62,24s-12.62-10.75-12.62-24,5.65-24,12.62-24S403.3,635.49,403.3,648.75Z"/><polygon class="cls-2" points="394.45 729.61 380.19 729.61 442.53 667.27 505.26 729.61 490.6 729.61 442.53 681.53 394.45 729.61"/><rect class="cls-2" x="380.19" y="737.57" width="124.68" height="10.09"/><rect class="cls-2" x="380.19" y="754.86" width="124.68" height="10.09"/><path class="cls-2" d="M442.53,834.42c-16.24,0-31.42-5.54-42.73-15.59-12.81-11.39-19.59-27.55-19.59-46.72H390.3c0,35.88,27.07,52.22,52.23,52.22s52.22-16.34,52.22-52.22h10.09C504.84,813,473.49,834.42,442.53,834.42Z"/><path class="cls-2" d="M442.53,813.85c-20.75,0-41.74-14.34-41.74-41.74h10.08c0,21.75,16.41,31.65,31.66,31.65s31.65-9.9,31.65-31.65h10.09C484.27,799.51,463.27,813.85,442.53,813.85Z"/><path class="cls-2" d="M442.53,793.15c-10.46,0-21-7.23-21-21h10.09c0,7.56,5.5,10.95,10.95,10.95s10.94-3.39,10.94-10.95h10.09C463.56,785.92,453,793.15,442.53,793.15Z"/><rect class="cls-2" x="437.48" y="524.29" width="10.09" height="150.11"/><path class="cls-8" d="M442.53,529.34a19.8,19.8,0,1,1,19.79-19.8A19.82,19.82,0,0,1,442.53,529.34Zm0-29.51a9.71,9.71,0,1,0,9.7,9.71A9.72,9.72,0,0,0,442.53,499.83Z"/><path class="cls-8" d="M567.2,556.44c-20.31-4-37-10.52-49.68-19.23-30.94-21.32-63.41-14.07-63.74-14l-2.29-9.82c1.5-.35,37.18-8.31,71.76,15.51,11.51,7.94,27,13.87,45.92,17.65Z"/><path class="cls-8" d="M571.34,538.72c-20.87-4-38-10.58-50.93-19.48-30.95-21.32-63.42-14.07-63.74-14l-2.3-9.82c1.51-.35,37.19-8.31,71.76,15.51,11.77,8.11,27.62,14.13,47.12,17.89Z"/><polygon class="cls-2" points="807.41 729.61 821.68 729.61 759.34 667.27 696.6 729.61 711.27 729.61 759.34 681.53 807.41 729.61"/><rect class="cls-2" x="697" y="737.57" width="124.68" height="10.09"/><rect class="cls-2" x="697" y="754.86" width="124.68" height="10.09"/><path class="cls-2" d="M759.34,834.42c16.24,0,31.41-5.54,42.72-15.59,12.82-11.39,19.59-27.55,19.59-46.72H811.56c0,35.88-27.07,52.22-52.22,52.22S707.12,808,707.12,772.11H697C697,813,728.38,834.42,759.34,834.42Z"/><path class="cls-2" d="M759.34,813.85c20.74,0,41.74-14.34,41.74-41.74H791c0,21.75-16.4,31.65-31.65,31.65s-31.65-9.9-31.65-31.65H717.6C717.6,799.51,738.6,813.85,759.34,813.85Z"/><path class="cls-2" d="M759.34,793.15c10.45,0,21-7.23,21-21H770.29c0,7.56-5.5,10.95-10.95,10.95s-11-3.39-11-10.95H738.3C738.3,785.92,748.89,793.15,759.34,793.15Z"/><rect class="cls-2" x="754.3" y="524.29" width="10.09" height="150.11"/><path class="cls-8" d="M739.55,509.54a19.79,19.79,0,1,1,19.79,19.8A19.82,19.82,0,0,1,739.55,509.54Zm10.08,0a9.71,9.71,0,1,0,9.71-9.71A9.73,9.73,0,0,0,749.63,509.54Z"/><path class="cls-8" d="M636.1,556.44c20.31-4,37-10.52,49.68-19.23,31-21.32,63.42-14.07,63.74-14l.79-10.17c-1.5-.35-35.68-8-70.25,15.86-11.52,7.94-27,13.87-45.93,17.65Z"/><path class="cls-8" d="M630.53,538.72c20.87-4,38-10.58,50.93-19.48,30.94-21.32,63.42-14.07,63.74-14l2.29-9.82c-1.5-.35-37.18-8.31-71.75,15.51C664,519,648.11,525.06,628.62,528.82Z"/><path class="cls-8" d="M606,582.17H584.51L566,564.91V519.25H606Zm-17.47-10.08h7.38V529.34H576.11v31.19Z"/><path class="cls-8" d="M617.31,582.17H595.87V519.25H635.8v45.66ZM606,572.09h7.38l12.37-11.56V529.34H606Z"/><rect class="cls-8" x="565.69" y="501.62" width="70.44" height="10.09"/><rect class="cls-8" x="565.69" y="484.18" width="70.44" height="10.09"/><rect class="cls-8" x="585.99" y="591.54" width="10.09" height="238.49"/><rect class="cls-8" x="605.75" y="591.54" width="10.09" height="238.49"/><polygon class="cls-8" points="666.24 866.06 637.18 866.06 637.18 849.73 564.65 849.73 564.65 866.06 535.59 866.06 535.59 855.97 554.56 855.97 554.56 839.64 647.27 839.64 647.27 855.97 666.24 855.97 666.24 866.06"/><polygon class="cls-8" points="725.46 901.61 618.88 901.61 618.88 885.27 582.94 885.27 582.94 901.61 476.37 901.61 476.37 891.52 573.55 891.52 573.55 875.19 628.28 875.19 628.28 891.52 725.46 891.52 725.46 901.61"/><polygon class="cls-8" points="725.46 883.83 618.88 883.83 618.88 867.5 582.94 867.5 582.94 883.83 476.37 883.83 476.37 873.75 573.55 873.75 573.55 857.41 628.28 857.41 628.28 873.75 725.46 873.75 725.46 883.83"/><circle class="cls-2" cx="759.51" cy="509.38" r="9.89"/><circle class="cls-2" cx="442.72" cy="509.54" r="9.89"/></svg>