<svg xmlns="http://www.w3.org/2000/svg" viewBox="0 0 1200 1200"><defs><style>.cls-1,.cls-6{isolation:isolate;}.cls-2{fill:#dbf1f9;}.cls-3{fill:#e83131;}.cls-4{fill:#15003e;}.cls-5{fill:#fff;}.cls-6{opacity:0.13;}.cls-7{fill:#eff4ee;}.cls-8{fill:#25e899;}.cls-9{fill:#0fce7c;}.cls-10{fill:#847e92;mix-blend-mode:multiply;}.cls-11{fill:#271347;}.cls-12{fill:#acdfec;}.cls-13{fill:#2b0070;}.cls-14{fill:#695097;mix-blend-mode:screen;}.cls-15{opacity:0.6;}</style></defs><g class="cls-1"><g id="Layer_2" data-name="Layer 2"><polygon class="cls-2" points="164.19 356.68 599.96 105.25 1036.03 356.69 1036.03 859.5 599.98 1105.95 164.19 859.48 164.19 356.68"/><path class="cls-3" d="M600.32,7.11,85.18,304.5V899.29l515.14,297.39,515-297.39V304.5Zm427.9,841.63L600.16,1095.55,172.33,848.72V355.08l427.8-246.83L1028.22,355.1Z"/><path class="cls-4" d="M722.67,1074.61l14.55-8.35.67,1.14A28.46,28.46,0,0,1,741,1075a17.41,17.41,0,0,1,0,7.08,18.44,18.44,0,0,1-9.29,12.69,19.85,19.85,0,0,1-15.73,2,21.18,21.18,0,0,1-4.83-38.87,20.84,20.84,0,0,1,8.68-2.74,25.76,25.76,0,0,1,9.91,1.57L728,1062.5q-7.63-3.27-13.87.3a14.46,14.46,0,0,0-7.16,9.26,14.87,14.87,0,0,0,1.67,11.66,14.31,14.31,0,0,0,9.79,7.26,14.53,14.53,0,0,0,10.61-1.4,12.18,12.18,0,0,0,5.5-6.68,10.9,10.9,0,0,0-.15-8.39l-8.8,5.06Z"/><rect class="cls-4" x="756.1" y="1034.29" width="6.13" height="40.63" transform="translate(-425.13 519.84) rotate(-29.95)"/><polygon class="cls-4" points="784.84 1023.03 802.23 1053.25 796.92 1056.3 779.54 1026.09 771.44 1030.75 768.56 1025.76 790.03 1013.39 792.9 1018.39 784.84 1023.03"/><path class="cls-4" d="M832.78,991.3l3.61,6.29q-6.84-1.22-11.75,1.62a14.11,14.11,0,0,0-6.94,9.16,15.25,15.25,0,0,0,1.72,11.65,14.86,14.86,0,0,0,9.12,7.2,14.37,14.37,0,0,0,11.38-1.47,13.06,13.06,0,0,0,4.23-3.66,15.64,15.64,0,0,0,1.56-2.53,33.65,33.65,0,0,0,1.4-3.34l3.7,6.41a22.11,22.11,0,0,1-8.1,8.11,20.82,20.82,0,0,1-28.57-7.61,20.89,20.89,0,0,1-2.44-14.55A20.34,20.34,0,0,1,822.13,994a20.7,20.7,0,0,1,10.65-2.72"/><path class="cls-5" d="M858.54,982.71a19.81,19.81,0,0,1-1.9-15.86,20.79,20.79,0,0,1,10-12.88,21.24,21.24,0,0,1,28.84,7.77,20,20,0,0,1,2,16A21.47,21.47,0,0,1,872.38,993q-9-1.77-13.88-10.25m5.38-3a15.07,15.07,0,0,0,27.76-3.3,15.75,15.75,0,0,0-10.82-18.89,15.11,15.11,0,0,0-18.53,10.66A14.62,14.62,0,0,0,864,979.7"/><rect class="cls-4" x="913.88" y="936.42" width="6.14" height="40.62" transform="translate(-355.32 585.99) rotate(-29.97)"/><polygon class="cls-4" points="950.37 961.01 928.72 923.39 969.87 935.48 955.78 911 961.08 907.96 982.59 945.32 941.49 933.29 955.67 957.94 950.37 961.01"/><g id="Layer_16" data-name="Layer 16"><path class="cls-6" d="M980.17,326.39l-5-2.79-6.69-3.9-7.15-4.19-1-.55-4.56-2.61-4.74-2.72-8.36-4.84-67.4-38.85-15.86-9.11-6.69-3.9-4.19-2.41-4.55-2.7-.46-.19-3.91-2.32-3.81-2.23-49.56-28.53L605.09,110.13l-5-2.88-4.37,2.5-159,91.83-46.65,26.95L378,235.47l-5,2.88-.93.46h-.09l-2.3,1.43-3.91,2.32-2.78,1.59-2.51,1.48-1.68.92L345,254.64h0l-16.55,9.48-.1.1-5.38,3.16-7.07,4-.08.09-.29.19L285.24,289h-.09L263,301.74l-9.32,5.41-27.75,16-39.31,22.68-14.32,8.26V847.72l.66.37,16,9.29,6.94,4,1.38.74,40.16,23.24,6.41,3.62,5,2.88L266.29,902l14.78,8.55,4.27,2.42,12.09,6.94,31.45,18.2,50,28.81,6.41,3.72.65.37,1.39.74,1,.66,1.68.92.38.19,17.74,10.32,8.18,4.64,12.36,7.25,8.27,4.74,1.68.93,2.87,1.68,1.77,1,4.46,2.59,33.19,19.05.83.47,4.08,2.42,5.77,3.35,6.69,3.9h.09l5,2.79,14,8.08,29.46,17.1,41.63,24,9.58,5.58,2.14,1.21.18-.1,1.76-1,1.31-.75.28-.18,2.87-1.67,16.86-9.58.84-.46,6.41-3.72,4.65-2.7,2.23-1.29,35.77-20.63,22.8-13.11,6.88-4,6.14-3.53,6.22-3.62,4.1-2.42,21.59-12.44,3.62-2h.09l2.14-1.3,2-1.12,5.84-3.34,7.44-4.27,11.71-6.79,4.28-2.51h.09l4.28-2.51.09-.08,2.33-1.31,4.95-2.88,3.44-2,3.26-2,5.11-2.89,2-1.21,3-1.66,4-2.23.19-.1.46-.28,1.21-.74,2.23-1.21,35.13-20.26,3.53-2,10.32-6,27.6-15.86,14.5-8.36,28.35-16.36,17.56-10.13L985,872.65h.09l.55-.38,24.63-14.21,8.37-4.84,9.57-5.48V354.1Zm30.67,511.48-4.84,2.78-3,1.68-5.38,3.15L927.1,886.19l-10,5.76L899.5,902l-15.8,9.11-29,16.73-11.89,6.88-6.7,3.81-27.22,15.7-.66.46-1.49.84-1.67,1-5.29,3-8.28,4.74-2,1.21-.49.34-7.52,4.38-.84.45-36.34,20.92-.75.46-7.33,4.19-.75.46-8.45,5-20,11.52-14.3,8.17-15.61,9-10.23,5.86-27.58,16-11.42,6.6-.57.38h-.18l-6.94,4.08-2.59,1.4-17.38,10-32.07-18.49-11.43-6.6-5.67-3.25-16.85-9.76-6.69-3.81-6.41-3.72-48.92-28.16L465,996.73l-.46-.28-16.64-9.57-19.14-11-8.37-4.83L415,967.93l-2.32-1.4-4-2.32-2-1.12L390.5,953.7,387.62,952l-1.76-1L371.92,943l-31.79-18.31-36.33-21L301,902.06l-13.59-7.83-4-2.33-27.75-16-45.6-26.4-8.36-4.74-3.62-2.14L196,841.43l-6.22-3.61V364.14l36.21-21,27.75-16,8.65-5h.09l.56-.38,29.74-17.19h.09l12.64-7.34h.1l16.63-9.58,11.62-6.69,4-2.32h.09l7.07-4.08,4.27-2.52h.1L377,256c.09-.1.09-.1.18-.1l7.26-4.18,3.25-1.86,1.85-1.12,2.7-1.57,1.59-.93,2.5-1.39.37-.19,74.64-43.12,124.44-71.84,4.37-2.51,5,2.88,156.4,90.21,64.87,37.45.47.28,3,1.68,1,.55,4.09,2.42,3.26,1.85,11.43,6.61,18,10.4,65.24,37.55,13.1,7.53,5.11,3,.37.28,7.16,4.09,1.77,1,5,2.89,5,2.87,40.49,23.41V837.87Z"/></g><path class="cls-7" d="M576.26,591.06a6.31,6.31,0,1,0-6.3,6.31,6.3,6.3,0,0,0,6.3-6.31"/><path class="cls-7" d="M644,591.06a6.31,6.31,0,1,0-6.31,6.31,6.31,6.31,0,0,0,6.31-6.31"/><polygon class="cls-8" points="532.11 560.99 662.35 560.99 673.38 565.2 665.08 594.92 540.31 594.92 532.11 560.99"/><path class="cls-7" d="M647.44,631.65H558A17.64,17.64,0,0,1,540.31,614V594.92H665.08V614a17.63,17.63,0,0,1-17.64,17.64"/><path class="cls-4" d="M647.44,635.71H558A21.72,21.72,0,0,1,536.26,614V590.87H669.14V614A21.73,21.73,0,0,1,647.44,635.71ZM544.36,599v15A13.6,13.6,0,0,0,558,627.6h89.49A13.6,13.6,0,0,0,661,614V599Z"/><path class="cls-9" d="M579.82,561a55.62,55.62,0,0,1-20.57-86.31c10.2-12.36,74.36-13,84.55-1.49A55.64,55.64,0,0,1,624.5,561"/><path class="cls-4" d="M576.3,565a4,4,0,0,1-1.77-.41,62.26,62.26,0,0,1-25.24-89.46,4.05,4.05,0,0,1,6.83,4.37,54.13,54.13,0,0,0,22,77.8,4.05,4.05,0,0,1-1.78,7.7Z"/><path class="cls-4" d="M627.73,564.74a4,4,0,0,1-1.82-7.67,54.14,54.14,0,0,0,19.45-80.38,4,4,0,0,1,6.53-4.79,62.21,62.21,0,0,1-22.35,92.41A4,4,0,0,1,627.73,564.74Z"/><path class="cls-4" d="M668.23,599H537.16l-21.33-84v-.51a86.87,86.87,0,0,1,173.73,0V515l-.12.49Zm-124.77-8.1H661.93L681.46,514a78.76,78.76,0,0,0-157.52,0Z"/><path class="cls-4" d="M519.88,517.36a4.06,4.06,0,0,1-4-4.05V434.49a4,4,0,1,1,8.1,0v78.82A4.05,4.05,0,0,1,519.88,517.36Z"/><path class="cls-4" d="M685.51,517.36a4.05,4.05,0,0,1-4-4.05V412.24a4,4,0,0,1,8.1,0V513.31A4.05,4.05,0,0,1,685.51,517.36Z"/><path class="cls-4" d="M526.33,552.75h-8.55a16.64,16.64,0,0,1-16.62-16.62V504.19a16.64,16.64,0,0,1,16.62-16.62h3.63a4.05,4.05,0,1,1,0,8.1h-3.63a8.53,8.53,0,0,0-8.52,8.52v31.94a8.53,8.53,0,0,0,8.52,8.52h8.55a4,4,0,0,1,0,8.1Z"/><path class="cls-4" d="M687.9,552.75h-8.54a4.05,4.05,0,1,1,0-8.1h8.54a8.54,8.54,0,0,0,8.53-8.52V504.19a8.54,8.54,0,0,0-8.53-8.52h-3.62a4,4,0,1,1,0-8.1h3.62a16.65,16.65,0,0,1,16.63,16.62v31.94A16.64,16.64,0,0,1,687.9,552.75Z"/><path class="cls-4" d="M520.78,504.7a4,4,0,0,1-2.9-6.88,119.77,119.77,0,0,1,168.59-3.61,4.05,4.05,0,1,1-5.56,5.9,111.66,111.66,0,0,0-157.24,3.37A4,4,0,0,1,520.78,504.7Z"/><path class="cls-4" d="M673.38,565H532.11a4.06,4.06,0,0,1,0-8.11H673.38a4.06,4.06,0,1,1,0,8.11Z"/><path class="cls-5" d="M631.76,491.62a14.51,14.51,0,1,1-14.51-14.51,14.51,14.51,0,0,1,14.51,14.51"/><path class="cls-5" d="M642.13,513.31a5.87,5.87,0,1,1-5.87-5.87,5.87,5.87,0,0,1,5.87,5.87"/><path class="cls-4" d="M652.79,587.41c-5.75,0-8.63-4.35-10.53-7.22s-2.56-3.59-3.76-3.59-2,.85-3.77,3.59-4.77,7.22-10.52,7.22-8.63-4.35-10.53-7.22-2.56-3.59-3.77-3.59-2,.85-3.77,3.59-4.77,7.22-10.53,7.22-8.62-4.35-10.53-7.22-2.56-3.59-3.76-3.59-2,.85-3.78,3.59-4.77,7.22-10.53,7.22-8.63-4.35-10.53-7.22-2.57-3.59-3.77-3.59a4,4,0,1,1,0-8.1c5.75,0,8.63,4.34,10.53,7.22s2.57,3.58,3.77,3.58,2-.85,3.78-3.58,4.78-7.22,10.53-7.22,8.62,4.34,10.52,7.22,2.57,3.58,3.77,3.58,2-.85,3.77-3.58,4.78-7.22,10.53-7.22,8.63,4.34,10.53,7.22,2.57,3.58,3.77,3.58,1.95-.85,3.76-3.58,4.78-7.22,10.53-7.22,8.62,4.34,10.52,7.22,2.57,3.58,3.77,3.58a4.06,4.06,0,0,1,0,8.11Z"/><path class="cls-8" d="M657.77,671H543.57a4,4,0,1,1,0-8.1h114.2a4.05,4.05,0,1,1,0,8.1Z"/><path class="cls-8" d="M651.48,652.84H554.21a4,4,0,1,1,0-8.1h97.27a4.05,4.05,0,0,1,0,8.1Z"/><rect class="cls-10" x="801.95" y="637.45" width="102.47" height="7.98" transform="translate(-126.78 218.31) rotate(-13.58)"/><polygon class="cls-3" points="916.13 519.77 903.69 621.49 889.8 620.52 902.23 518.81 916.13 519.77"/><path class="cls-11" d="M937.88,489.88a22.87,22.87,0,1,1-45.29,6.38l-5.7.8a28.62,28.62,0,1,0,56.69-8Z"/><path class="cls-12" d="M905.27,633.34a12.42,12.42,0,1,1-3.38-17.23A12.42,12.42,0,0,1,905.27,633.34Z"/><rect class="cls-10" x="304.89" y="644.58" width="102.47" height="7.98" transform="translate(549.97 1362.63) rotate(-166.42)"/><polygon class="cls-3" points="283.63 526.9 296.06 628.62 309.95 627.65 297.52 525.93 283.63 526.9"/><path class="cls-11" d="M271.43,497a22.87,22.87,0,0,0,45.3,6.37l5.7.81a28.63,28.63,0,0,1-56.7-8Z"/><path class="cls-12" d="M296.05,643.47a12.42,12.42,0,1,0,3.38-17.23A12.42,12.42,0,0,0,296.05,643.47Z"/><path class="cls-13" d="M400,668.2c-8.44-19.32-4-39.92,10-46l30.57,70C426.62,698.25,408.48,687.52,400,668.2Z"/><path class="cls-13" d="M809.28,661.07c8.45-19.32,4-39.92-9.94-46l-30.57,70C782.7,691.13,800.84,680.4,809.28,661.07Z"/><path class="cls-3" d="M805.68,598.85c-18.95-4.52-18.95-4.52-61.2-9.88-11.69-1.49-97.58,85.41-138.21,85.55C564.51,674.66,477.39,588,462.79,589c-37.27,2.38-37.27,2.38-61.2,9.88,0,36.19,18.46,48.28,18.46,87.5,0,33.76,27.48,31.58,41,52.5,31.87,49.41,75.75,120.64,142.62,120.64s110.74-71.24,142.62-120.64c13.49-20.92,41-18.73,41-52.5C787.22,647.32,805.68,632.62,805.68,598.85Z"/><path class="cls-14" d="M700.58,799.76c-93,0-157.65-103.66-206-191-15.35-11.67-27.2-20.12-31.81-19.82-37.27,2.38-37.27,2.38-61.2,9.88,0,36.19,18.46,48.28,18.46,87.5,0,33.76,27.48,31.58,41,52.5,31.87,49.41,75.75,120.64,142.62,120.64,41.4,0,74-27.33,100.38-59.87C702.87,799.66,701.74,799.76,700.58,799.76Z"/><path class="cls-10" d="M788.24,663.62c0,33.77-27.47,31.58-41,52.5-31.88,49.4-75.76,120.64-142.62,120.64S493.91,765.53,462,716.12c-13.49-20.91-41-18.74-41-52.5,0-30.25-10.95-44.39-16-65.87l-3.51,1.1c0,36.19,18.46,48.28,18.46,87.5,0,33.76,27.48,31.58,41,52.5,31.87,49.41,75.75,120.64,142.62,120.64s110.74-71.24,142.62-120.64c13.49-20.92,41-18.73,41-52.5,0-39,18.46-53.73,18.46-87.5l-1.83-.44C798.67,618.69,788.24,634.28,788.24,663.62Z"/><g class="cls-15"><path class="cls-5" d="M744.48,599.64c8.21-.85,16.09.09,23.89,1.45,7.77,1.54,15.45,3.52,22.79,7.31-8.21.86-16.09-.08-23.89-1.45C759.51,605.39,751.83,603.42,744.48,599.64Z"/></g><path class="cls-5" d="M645.09,688c-11.15-.93-38.54-.68-38.54,29,0-29.72-27.4-30-38.54-29s-24.61,12.32-24.61,29c0,37.15,63.15,53.45,63.15,73.16,0-19.71,63.15-36,63.15-73.16C669.7,700.27,656.23,688.88,645.09,688Z"/><path class="cls-3" d="M630.76,706.9c-7-.58-24.21-.43-24.21,18.24,0-18.67-17.22-18.82-24.22-18.24s-15.46,7.74-15.46,18.24c0,23.34,39.68,33.59,39.68,46,0-12.38,39.68-22.63,39.68-46C646.23,714.64,637.77,707.48,630.76,706.9Z"/></g></g></svg>