<svg xmlns="http://www.w3.org/2000/svg" xmlns:xlink="http://www.w3.org/1999/xlink" viewBox="0 0 1200 1200"><defs><style>.cls-1,.cls-3{isolation:isolate;}.cls-2{fill:#dbf1f9;}.cls-3{opacity:0.13;}.cls-4{fill:#288fa0;}.cls-26,.cls-5{fill:#15003e;}.cls-6{fill:#fff;}.cls-7{fill:#e83131;}.cls-8{fill:url(#Áåçûìÿííûé_ãðàäèåíò_37);}.cls-9{fill:url(#Áåçûìÿííûé_ãðàäèåíò_6);}.cls-10{fill:url(#Áåçûìÿííûé_ãðàäèåíò_6-2);}.cls-11{fill:url(#Áåçûìÿííûé_ãðàäèåíò_6-3);}.cls-12{fill:url(#Áåçûìÿííûé_ãðàäèåíò_12);}.cls-13,.cls-16{mix-blend-mode:screen;}.cls-13{fill:url(#Áåçûìÿííûé_ãðàäèåíò_18);}.cls-14{fill:#eefdff;}.cls-15{fill:url(#Áåçûìÿííûé_ãðàäèåíò_12-2);}.cls-16{fill:url(#Áåçûìÿííûé_ãðàäèåíò_18-2);}.cls-17{fill:url(#Áåçûìÿííûé_ãðàäèåíò_12-3);}.cls-18{fill:url(#Áåçûìÿííûé_ãðàäèåíò_6-4);}.cls-19{fill:url(#Áåçûìÿííûé_ãðàäèåíò_28);}.cls-20{fill:url(#Áåçûìÿííûé_ãðàäèåíò_49);}.cls-21{fill:url(#Áåçûìÿííûé_ãðàäèåíò_6-5);}.cls-22{fill:url(#Áåçûìÿííûé_ãðàäèåíò_38);}.cls-23{fill:url(#Áåçûìÿííûé_ãðàäèåíò_37-2);}.cls-24{fill:#0fce7c;}.cls-25{fill:#eff4ee;}.cls-26{fill-rule:evenodd;}</style><linearGradient id="Áåçûìÿííûé_ãðàäèåíò_37" x1="3960.83" y1="-5456.75" x2="4116.2" y2="-5616.13" gradientTransform="translate(-5273.67 -2628.8) rotate(83.59)" gradientUnits="userSpaceOnUse"><stop offset="0.04" stop-color="#06bed8"/><stop offset="1" stop-color="#defa8e"/></linearGradient><linearGradient id="Áåçûìÿííûé_ãðàäèåíò_6" x1="680.78" y1="398.86" x2="709.72" y2="394.64" gradientUnits="userSpaceOnUse"><stop offset="0.04" stop-color="#06cff1"/><stop offset="1" stop-color="#defa8e"/></linearGradient><linearGradient id="Áåçûìÿííûé_ãðàäèåíò_6-2" x1="672.18" y1="473.72" x2="725.86" y2="413.12" xlink:href="#Áåçûìÿííûé_ãðàäèåíò_6"/><linearGradient id="Áåçûìÿííûé_ãðàäèåíò_6-3" x1="585.42" y1="678.91" x2="816.17" y2="448.16" xlink:href="#Áåçûìÿííûé_ãðàäèåíò_6"/><linearGradient id="Áåçûìÿííûé_ãðàäèåíò_12" x1="699.91" y1="597.07" x2="701.72" y2="515.68" gradientUnits="userSpaceOnUse"><stop offset="0" stop-color="#030d14"/><stop offset="1" stop-color="#0b2f45"/></linearGradient><radialGradient id="Áåçûìÿííûé_ãðàäèåíò_18" cx="652.67" cy="555.76" r="33.83" gradientUnits="userSpaceOnUse"><stop offset="0.13" stop-color="#3280fc"/><stop offset="1"/></radialGradient><linearGradient id="Áåçûìÿííûé_ãðàäèåíò_12-2" x1="632.06" y1="555.76" x2="673.28" y2="555.76" xlink:href="#Áåçûìÿííûé_ãðàäèåíò_12"/><radialGradient id="Áåçûìÿííûé_ãðàäèåíò_18-2" cx="745.01" cy="555.76" r="33.83" xlink:href="#Áåçûìÿííûé_ãðàäèåíò_18"/><linearGradient id="Áåçûìÿííûé_ãðàäèåíò_12-3" x1="724.4" y1="555.76" x2="765.62" y2="555.76" xlink:href="#Áåçûìÿííûé_ãðàäèåíò_12"/><linearGradient id="Áåçûìÿííûé_ãðàäèåíò_6-4" x1="674.43" y1="363.91" x2="712.72" y2="358.33" xlink:href="#Áåçûìÿííûé_ãðàäèåíò_6"/><linearGradient id="Áåçûìÿííûé_ãðàäèåíò_28" x1="699.21" y1="628.68" x2="758.13" y2="569.76" gradientUnits="userSpaceOnUse"><stop offset="0.07" stop-color="#0da9ab"/><stop offset="1" stop-color="#defa8e"/></linearGradient><linearGradient id="Áåçûìÿííûé_ãðàäèåíò_49" x1="643.56" y1="807.49" x2="799.67" y2="625.19" gradientUnits="userSpaceOnUse"><stop offset="0.04" stop-color="#06cff1"/><stop offset="0.04" stop-color="#06cff1"/><stop offset="0.16" stop-color="#37d9db"/><stop offset="0.27" stop-color="#5de0ca"/><stop offset="0.38" stop-color="#78e6bd"/><stop offset="0.47" stop-color="#88e9b6"/><stop offset="0.54" stop-color="#8eeab3"/><stop offset="0.8" stop-color="#b9f39f"/><stop offset="1" stop-color="#defa8e"/></linearGradient><linearGradient id="Áåçûìÿííûé_ãðàäèåíò_6-5" x1="635.29" y1="716.61" x2="729.17" y2="606.97" xlink:href="#Áåçûìÿííûé_ãðàäèåíò_6"/><linearGradient id="Áåçûìÿííûé_ãðàäèåíò_38" x1="-3565.19" y1="459.82" x2="-3436.77" y2="392.9" gradientTransform="matrix(-0.99, -0.15, -0.15, 0.99, -2618.34, -210.87)" gradientUnits="userSpaceOnUse"><stop offset="0.04" stop-color="#06cff1"/><stop offset="0.07" stop-color="#0fd1ed"/><stop offset="0.42" stop-color="#67e2c5"/><stop offset="0.69" stop-color="#a7efa7"/><stop offset="0.9" stop-color="#cff795"/><stop offset="1" stop-color="#defa8e"/></linearGradient><linearGradient id="Áåçûìÿííûé_ãðàäèåíò_37-2" x1="734" y1="771.98" x2="816.84" y2="728.81" gradientTransform="matrix(1, 0, 0, 1, 0, 0)" xlink:href="#Áåçûìÿííûé_ãðàäèåíò_37"/></defs><g class="cls-1"><g id="Layer_2" data-name="Layer 2"><polygon class="cls-2" points="167.79 358.61 603.57 107.18 1039.63 358.63 1039.63 861.43 603.59 1107.88 167.79 861.41 167.79 358.61"/><g id="Layer_2-2" data-name="Layer 2-2"><g id="Layer_16" data-name="Layer 16"><path class="cls-3" d="M983.63,324.18l-5-2.79L972,317.48l-7.16-4.19-1-.55-4.56-2.61-4.74-2.73-8.35-4.84-67.41-38.89-15.86-9.12-6.69-3.91L852,248.23l-4.55-2.7-.46-.19L843.11,243l-3.81-2.23-49.57-28.57L608.53,107.7l-5-2.89-4.37,2.51-159,91.92-46.65,27-12.09,6.95-5,2.88-.93.46h-.09l-2.3,1.43-3.91,2.32-2.78,1.59L364,243.34l-1.68.92-13.94,8.1h-.05l-16.54,9.48-.1.1-5.38,3.17-7.07,4-.09.09-.29.18-30.2,17.4h-.09L266.46,299.5l-9.32,5.42-27.76,16-39.31,22.7-14.32,8.28V846l.66.37,16,9.31,6.94,4,1.38.74,40.16,23.26,6.41,3.63,5,2.88,17.48,10.14,14.78,8.56,4.27,2.42,12.08,7,31.46,18.22,50,28.84,6.41,3.72.65.37,1.39.74,1,.66,1.68.92.37.19,17.75,10.33,8.18,4.65,12.36,7.26,8.28,4.74,1.67.93,2.88,1.68,1.76,1,4.46,2.6,33.19,19.07.83.47,4.09,2.42,5.76,3.35,6.7,3.9h.09l4.95,2.8,14,8.09,29.46,17.11,41.63,24,9.58,5.58,2.14,1.21.18-.1,1.76-1,1.31-.74.28-.18,2.87-1.68,16.86-9.58.84-.47,6.41-3.72,4.65-2.7,2.23-1.3L676.77,1051l22.8-13.12,6.88-4,6.13-3.53,6.23-3.62,4.09-2.42,21.59-12.45,3.63-2h.09l2.14-1.3,2-1.12,5.85-3.34,7.43-4.28L777.33,993l4.27-2.52h.09L786,988l.09-.09,2.32-1.3,5-2.88,3.44-2,3.26-2,5.11-2.89,2-1.21,3-1.67,4-2.23.19-.1.46-.28,1.21-.74,2.23-1.21,35.13-20.28,3.53-2,10.32-6,27.6-15.87,14.5-8.37,28.35-16.38,17.57-10.14L988.46,871h.09l.56-.38,24.63-14.23,8.37-4.84,9.56-5.49V351.92Zm30.67,512-4.84,2.79-3,1.68-5.39,3.15-70.55,40.75-10,5.77L903,900.4l-15.8,9.12-29,16.75-11.89,6.88-6.7,3.81-27.23,15.72-.65.47-1.49.84-1.67,1-5.3,3L795,962.7l-2.05,1.21-.48.35-7.52,4.38-.85.45L747.72,990l-.74.46-7.34,4.19-.74.47-8.46,5-20,11.53-14.29,8.19-15.62,9-10.23,5.87-27.57,16-11.43,6.61-.57.38h-.18l-6.94,4.09-2.59,1.4-17.38,10-32.07-18.51-11.43-6.61-5.67-3.25-16.85-9.77L531,1031.3l-6.41-3.73-48.92-28.18-7.16-4.19-.46-.28-16.64-9.58-19.14-11-8.37-4.84-5.39-3.16-2.32-1.4-4-2.32-2-1.12-16.26-9.4-2.88-1.67-1.77-1-13.93-8.09L343.56,923l-36.33-21-2.8-1.59-13.59-7.84-4-2.33-27.76-16-45.6-26.42-8.36-4.74L201.54,841l-2.15-1.21-6.22-3.62V362l36.21-21,27.76-16,8.64-5h.09l.57-.38,29.73-17.2h.09L308.9,295h.1l16.63-9.58,11.62-6.7,4-2.32h.09l7.06-4.09,4.28-2.52h.1l27.69-16c.09-.1.09-.1.18-.1l7.26-4.19,3.25-1.86,1.85-1.12,2.7-1.57,1.58-.94,2.51-1.39.37-.18,74.64-43.17,124.45-71.91,4.37-2.51,5,2.88L765,218l64.87,37.49.47.28,3,1.68,1,.55,4.09,2.42,3.26,1.86,11.43,6.61,18,10.42,65.24,37.58,13.11,7.53,5.1,3,.38.28,7.16,4.1,1.76,1,5,2.89,4.95,2.87L1014.3,362v474.2Z"/></g></g><path class="cls-4" d="M604.58,4.68,89.43,302.07V896.86l515.15,297.39,515-297.39V302.07ZM1032.47,846.3,604.41,1093.11,176.59,846.28V352.65L604.38,105.81l428.09,246.86Z"/><path class="cls-5" d="M726.92,1072.18l14.55-8.36.67,1.14a28.39,28.39,0,0,1,3.12,7.58,17.36,17.36,0,0,1,0,7.07,18.39,18.39,0,0,1-9.29,12.69,19.81,19.81,0,0,1-15.73,2,21.16,21.16,0,0,1-4.82-38.86,20.77,20.77,0,0,1,8.67-2.75,25.77,25.77,0,0,1,9.91,1.58l-1.71,5.82q-7.65-3.27-13.88.29a14.54,14.54,0,0,0-7.16,9.26,14.89,14.89,0,0,0,1.68,11.67,14.35,14.35,0,0,0,9.78,7.26,14.66,14.66,0,0,0,10.62-1.4,12.27,12.27,0,0,0,5.5-6.68,10.9,10.9,0,0,0-.16-8.39l-8.79,5.06Z"/><rect class="cls-5" x="760.35" y="1031.86" width="6.13" height="40.63" transform="translate(-423.35 521.64) rotate(-29.95)"/><polygon class="cls-5" points="789.09 1020.6 806.48 1050.82 801.18 1053.86 783.79 1023.66 775.69 1028.32 772.82 1023.32 794.29 1010.96 797.15 1015.96 789.09 1020.6"/><path class="cls-5" d="M837,988.87l3.62,6.28q-6.84-1.2-11.76,1.63a14.08,14.08,0,0,0-6.94,9.16,15.18,15.18,0,0,0,1.73,11.64,14.88,14.88,0,0,0,9.12,7.21,14.38,14.38,0,0,0,11.38-1.48,13,13,0,0,0,4.22-3.66,16.34,16.34,0,0,0,1.57-2.52,34.6,34.6,0,0,0,1.39-3.34l3.7,6.41a22,22,0,0,1-8.1,8.11,20.82,20.82,0,0,1-28.57-7.61,20.91,20.91,0,0,1-2.43-14.56,20.32,20.32,0,0,1,10.42-14.56A20.59,20.59,0,0,1,837,988.87"/><path class="cls-6" d="M862.79,980.28a19.9,19.9,0,0,1-1.9-15.86,20.8,20.8,0,0,1,10-12.88,21.25,21.25,0,0,1,28.85,7.77,20,20,0,0,1,2,16,21.49,21.49,0,0,1-25.07,15.21q-9-1.77-13.88-10.25m5.38-3a15.07,15.07,0,0,0,27.76-3.3,15.76,15.76,0,0,0-10.82-18.9,15.14,15.14,0,0,0-18.53,10.67,14.67,14.67,0,0,0,1.67,11.49"/><rect class="cls-5" x="918.14" y="933.99" width="6.14" height="40.62" transform="translate(-353.54 587.79) rotate(-29.97)"/><polygon class="cls-5" points="954.62 958.57 932.97 920.96 974.13 933.05 960.03 908.57 965.34 905.52 986.85 942.88 945.74 930.86 959.92 955.51 954.62 958.57"/><path class="cls-7" d="M395.34,435.85c-9.74-1.16-19.56-2.49-28.81-5.78s-18-8.7-23.73-16.66-8.08-18.72-4.6-27.9,13.4-15.95,23.09-14.39c7,1.13,12.78,6.07,17.64,11.26,3.45-10.48,16.89-16.63,27.4-13.29,8.43,2.69,14.24,11.1,15.42,19.87s-1.66,17.69-6.22,25.27S401.49,429.49,395.34,435.85Z"/><path class="cls-7" d="M467.34,524.43c-9.74-1.16-19.56-2.5-28.81-5.79S420.53,510,414.8,502s-8.08-18.71-4.6-27.89,13.4-15.95,23.09-14.39c7,1.13,12.78,6.07,17.64,11.25,3.45-10.47,16.89-16.63,27.4-13.28,8.43,2.68,14.24,11.1,15.42,19.86s-1.66,17.7-6.22,25.28S473.49,518.06,467.34,524.43Z"/><path class="cls-7" d="M352.62,633.84c-9.75-1.16-19.57-2.5-28.82-5.79s-18-8.7-23.73-16.66-8.08-18.71-4.6-27.89,13.4-16,23.09-14.39c7,1.13,12.78,6.06,17.64,11.25,3.45-10.47,16.89-16.63,27.4-13.28,8.43,2.68,14.24,11.09,15.43,19.86s-1.67,17.7-6.23,25.27S358.76,627.47,352.62,633.84Z"/><path class="cls-8" d="M565.33,669c45.32,12.42,56,8.94,64.11,21.09.92,1.4,5.66,8.53,4.71,17.67a26.19,26.19,0,0,1-7.37,15.39c-15.53,15-58.25-3.35-82.72-23.46-5.34-4.39-19.65-16.15-16.77-24.51,1.19-3.42,4.86-5.12,7.49-6.3C546.42,663.66,558.49,667.12,565.33,669Z"/><rect class="cls-9" x="695.62" y="364.34" width="9.65" height="63.31"/><rect class="cls-10" x="658.24" y="421.01" width="84.41" height="41.6" rx="4.52"/><path class="cls-11" d="M612.33,440.91H788.55a62.92,62.92,0,0,1,62.92,62.92V635.25a35.36,35.36,0,0,1-35.36,35.36H584.78a35.36,35.36,0,0,1-35.36-35.36V503.83A62.92,62.92,0,0,1,612.33,440.91Z"/><path class="cls-12" d="M804,594.39h0a29.16,29.16,0,0,1-12.88,3H609.81a29.16,29.16,0,0,1-12.88-3h0c-9.71-4.8-15.19-14.49-13.82-24.44l.1-.72c4.64-33.67,35.14-59.56,72.53-61.5,15.81-.82,32.41-1.25,49.73-1.15,13.56.08,26.67.48,39.3,1.13,37.53,1.93,68.25,27.72,72.91,61.52l.1.72C819.15,579.9,813.67,589.59,804,594.39Z"/><circle class="cls-13" cx="652.67" cy="555.76" r="34.18"/><circle class="cls-14" cx="652.67" cy="555.76" r="24.53"/><circle class="cls-15" cx="652.67" cy="555.76" r="20.61"/><path class="cls-14" d="M665.87,550.42a7.64,7.64,0,1,1-7.63-7.63A7.64,7.64,0,0,1,665.87,550.42Z"/><circle class="cls-14" cx="649.62" cy="571.56" r="3.05"/><path class="cls-14" d="M642.07,567a1.53,1.53,0,1,1-1.52-1.53A1.52,1.52,0,0,1,642.07,567Z"/><circle class="cls-16" cx="745.01" cy="555.76" r="34.18"/><circle class="cls-14" cx="745.01" cy="555.76" r="24.53"/><circle class="cls-17" cx="745.01" cy="555.76" r="20.61"/><path class="cls-14" d="M758.21,550.42a7.64,7.64,0,1,1-7.63-7.63A7.64,7.64,0,0,1,758.21,550.42Z"/><circle class="cls-14" cx="741.96" cy="571.56" r="3.05"/><path class="cls-14" d="M734.41,567a1.53,1.53,0,1,1-1.52-1.53A1.52,1.52,0,0,1,734.41,567Z"/><path class="cls-18" d="M712.8,360.12a12.36,12.36,0,1,1-12.36-12.36A12.36,12.36,0,0,1,712.8,360.12Z"/><path class="cls-6" d="M709,355.29a3.77,3.77,0,1,1-3.77-3.76A3.77,3.77,0,0,1,709,355.29Z"/><path class="cls-6" d="M806.87,480.54c.16,5.77-4.55,12.67-10,13.26-5,.55-9.09-4.61-13.26-9.94s-13.08-18.75-9.51-22.56C778.87,456.26,806.48,466.92,806.87,480.54Z"/><circle class="cls-6" cx="760.67" cy="454.25" r="4.3"/><path class="cls-6" d="M806.25,560.58c-1.37,1-11-18.6-36.77-35.57-9.07-6-18-10.22-17.49-11.46s10.62,1.08,18.69,4.83C796.4,530.31,807.89,559.43,806.25,560.58Z"/><path class="cls-6" d="M740.21,433.33c-.31,0-.51-1.76-2-4.56a24.17,24.17,0,0,0-1.51-2.41c-2.59-3.56-11.36-3.48-12.05-3.48-13.68.12-22.47-.74-22.46-.66s6.41-.06,11.11-.16c13.25-.27,21.15-1,24.53,2.57a11,11,0,0,1,2.11,3.39C740.89,430.62,740.57,433.27,740.21,433.33Z"/><path class="cls-14" d="M737.37,612a7,7,0,0,1-6.34,6.11l-45.28,4.37a7,7,0,0,1-7.39-4.79,30.45,30.45,0,0,1-1-4.32,1.55,1.55,0,0,1,.3-1.16,1.54,1.54,0,0,1,1-.57l57.12-5.51a1.48,1.48,0,0,1,1.12.36,1.46,1.46,0,0,1,.51,1.06A31.34,31.34,0,0,1,737.37,612Z"/><path class="cls-19" d="M737.37,612a30.23,30.23,0,0,1-58.82,6.24,7,7,0,0,0,7.2,4.24L731,618.15A7,7,0,0,0,737.37,612Z"/><path class="cls-20" d="M808.71,713.73c0,.42,0,.81,0,1.19a27.89,27.89,0,0,1-1.47,7.94c-12.46,38.08-19.93,58.15-30.4,74.4-1.81,2.8-3.71,5.49-5.75,8.14-2.68,3.52-5.61,7-8.87,10.5-7.23,7.87-18.17,11.44-21.7,12.67-12.9,4.55-24.29,3.72-31.87,3.79h-1.32c-7.6-.07-19,.76-31.87-3.79-3.53-1.23-14.49-4.8-21.71-12.67-19.89-21.65-27.54-39.64-45-93a28.27,28.27,0,0,1-1.44-7.45,26.55,26.55,0,0,1,0-3.09c.38-6.39,3-12.64,7.56-18.36a41.88,41.88,0,0,1,32.59-15.23l60.58-.25,59.47-.24a42.94,42.94,0,0,1,33.44,15.27,33.23,33.23,0,0,1,7.38,15.35c.13.76.24,1.54.31,2.3S808.71,712.86,808.71,713.73Z"/><path class="cls-21" d="M708,678.48l-60.58.26A41.85,41.85,0,0,0,614.8,694a32.39,32.39,0,0,0-7.56,18.36c.31-6.55,3-13,7.8-18.82,8.13-9.93,20.6-15.32,33.44-15.26Z"/><path class="cls-22" d="M768.17,767.73c-.88-47-7.24-56.28,2.14-67.46,1.07-1.28,6.57-7.84,15.62-9.51a26.17,26.17,0,0,1,16.84,2.73c18.81,10.65,13.23,56.83.84,86-2.7,6.35-9.94,23.4-18.77,23-3.62-.17-6.29-3.21-8.16-5.4C768.4,787.37,768.31,774.81,768.17,767.73Z"/><path class="cls-23" d="M776.82,797.26c-1.81,2.8-3.71,5.49-5.75,8.14-.66-.67-1.23-1.34-1.76-2-8.28-9.69-8.37-22.24-8.5-29.34-.89-47-7.25-56.26,2.13-67.44a29.6,29.6,0,0,1,7.29-6.3c-9.26,11.14-2.94,20.51-2.06,67.36.13,7.09.24,19.64,8.5,29.36A.54.54,0,0,1,776.82,797.26Z"/><path class="cls-6" d="M803.33,728.6c-.26-5.05-1.21-8.76-3.1-16.19-2.48-9.72-5.59-14.45-3.57-16.33,1.31-1.22,3.9-.39,4.49-.21,8.88,2.84,11.63,19.5,11.24,29.93-.23,6.38-1.79,13.52-4.13,13.83a2.64,2.64,0,0,1-1.94-.57C803.71,736.75,803.53,732.44,803.33,728.6Z"/><path class="cls-6" d="M809.43,746.42a1.85,1.85,0,1,1-1.84-1.85A1.84,1.84,0,0,1,809.43,746.42Z"/><path class="cls-7" d="M479.6,441.44s-3.74-33.87-1.89-34.79S480.46,424.23,479.6,441.44Z"/><path class="cls-7" d="M483.3,458.54a2,2,0,1,1-2-2A2,2,0,0,1,483.3,458.54Z"/><path class="cls-7" d="M456.65,443.71a17.39,17.39,0,0,0-4.12-11.64c-3.36-3.75-7.86-5-9.9-4.74-.39.05-1.71.28-1.8.83-.18,1.15,5.23,1.95,9.27,5C452.36,434.83,455,437.86,456.65,443.71Z"/><path class="cls-7" d="M526.34,410.94c-2.07,1.54-16.53-26.43-52.62-45.61-20.31-10.79-36.87-13.16-36.44-15.12.51-2.3,24.18-3.15,45.64,7.59C515.15,373.92,528.59,409.27,526.34,410.94Z"/><circle class="cls-7" cx="529.05" cy="421.72" r="2.47"/><path class="cls-7" d="M503.92,539.62c2.82,7.91,5.77,12.53,5.09,13s-5.85-4.55-8.86-11.16c-5.27-11.56-2.44-24.08-1.31-24.12C499.78,517.27,499.11,526.08,503.92,539.62Z"/><path class="cls-6" d="M511.49,839.07l4.87,9.59-3.69,15.69-8.8-7.19,1.54-11.5,6.08-6.59Z"/><path class="cls-5" d="M498.5,835.86a1.84,1.84,0,0,1-1.84-1.84V819.57a1.84,1.84,0,0,1,3.67,0V834a1.83,1.83,0,0,1-1.83,1.84"/><path class="cls-5" d="M501.44,835.86h-5.67a1.84,1.84,0,0,1,0-3.67h5.67a1.84,1.84,0,0,1,0,3.67"/><path class="cls-6" d="M511.49,839.07l6-5.68a25.48,25.48,0,1,0-18,43.49c5.25,0,9.86,1.92,13.91-.8l5,.7-.14-8.19-14.44-11.43,3.1-14.62,4.52-3.47"/><path class="cls-5" d="M499.5,879.38a28,28,0,1,1,19.78-47.75l1.83,1.82-7.9,7.44-3.43-3.64,4-3.81a22.76,22.76,0,0,0-14.32-5,23,23,0,0,0,0,46"/><path class="cls-24" d="M513.54,865,510,861.53a14.55,14.55,0,0,0-.31-20.56l-1.87-1.82,2-1.9,1.71,1.82,1.63-1.69a19.55,19.55,0,0,1,.42,27.63"/><path class="cls-25" d="M493.75,851.41a5.75,5.75,0,1,1,5.75,5.75,5.74,5.74,0,0,1-5.75-5.75"/><path class="cls-5" d="M499.5,848.16a3.25,3.25,0,1,0,3.25,3.25,3.25,3.25,0,0,0-3.25-3.25m0,11.5a8.25,8.25,0,1,1,8.25-8.25,8.26,8.26,0,0,1-8.25,8.25"/><path class="cls-5" d="M517.52,833.39,503,846.83"/><path class="cls-26" d="M515.82,831.56l3.39,3.67-14.53,13.43-3.4-3.67,14.54-13.43Z"/><path class="cls-6" d="M502.22,856.48l10.45,7.87,5.64,4.24v10.79L507,878.84"/><path class="cls-5" d="M520.81,879.38H499.05v-5h16.76v-4.54l-15.1-11.36,3-4,17.09,12.87Z"/><path class="cls-5" d="M489.82,840.91a1.85,1.85,0,0,1-1.84-1.84v-19.5a1.84,1.84,0,0,1,3.67,0v19.5a1.84,1.84,0,0,1-1.83,1.84"/><path class="cls-6" d="M891.77,365.92l5.45,10.75-4.14,17.58-9.86-8.06L885,373.3l6.82-7.38Z"/><path class="cls-5" d="M877.2,362.31a2.05,2.05,0,0,1-2.06-2.05v-16.2a2.06,2.06,0,1,1,4.11,0v16.2a2.05,2.05,0,0,1-2,2.05"/><path class="cls-5" d="M880.5,362.31h-6.36a2.06,2.06,0,0,1,0-4.11h6.36a2.06,2.06,0,0,1,0,4.11"/><path class="cls-6" d="M891.77,365.92l6.75-6.37a28.56,28.56,0,1,0-20.19,48.76c5.88,0,11,2.14,15.59-.9l5.65.78-.16-9.18-16.19-12.82,3.48-16.39,5.07-3.88"/><path class="cls-5" d="M878.33,411.11a31.37,31.37,0,1,1,22.17-53.54l2,2L893.69,368l-3.85-4.07,4.54-4.28a25.76,25.76,0,1,0-16,45.9"/><path class="cls-24" d="M894.07,395l-4-3.9a16.31,16.31,0,0,0-.35-23.06l-2.1-2,2.25-2.12,1.92,2L893.6,364a21.92,21.92,0,0,1,.47,31"/><path class="cls-25" d="M871.88,379.75a6.45,6.45,0,1,1,6.45,6.44,6.44,6.44,0,0,1-6.45-6.44"/><path class="cls-5" d="M878.33,376.1a3.65,3.65,0,1,0,3.64,3.65,3.65,3.65,0,0,0-3.64-3.65m0,12.9a9.26,9.26,0,1,1,9.25-9.25,9.26,9.26,0,0,1-9.25,9.25"/><path class="cls-5" d="M898.52,359.55l-16.3,15.06"/><path class="cls-26" d="M896.62,357.49l3.8,4.12-16.29,15.06-3.81-4.12,16.3-15.06Z"/><path class="cls-6" d="M881.37,385.43l11.71,8.82,6.33,4.76v12.1l-12.71-.61"/><path class="cls-5" d="M902.21,411.11H877.82V405.5h18.79v-5.09l-16.93-12.74,3.37-4.48,19.16,14.42Z"/><path class="cls-5" d="M867.47,368a2.05,2.05,0,0,1-2.06-2.05V344.06a2.06,2.06,0,1,1,4.11,0v21.86a2.05,2.05,0,0,1-2,2.05"/></g></g></svg>