<svg xmlns="http://www.w3.org/2000/svg" xmlns:xlink="http://www.w3.org/1999/xlink" viewBox="0 0 86.59736 100">
  <defs>
    <style>
      .a {
        fill: url(#a);
      }

      .b, .d, .h {
        fill: #15003e;
      }

      .aa, .b, .c, .g, .h, .j, .k, .m, .r, .t, .u, .v {
        stroke: #15003e;
      }

      .aa, .b, .f, .i, .j, .k, .m, .t, .u, .v, .w, .x, .z {
        stroke-linecap: round;
      }

      .aa, .b, .f, .j, .m, .t, .u, .w, .x, .z {
        stroke-miterlimit: 10;
      }

      .b, .c, .e, .f, .g, .h, .i, .j, .k, .m, .r, .t, .u, .v, .w, .x, .z {
        stroke-width: 0.28152px;
      }

      .c, .j, .l {
        fill: #25e899;
      }

      .c, .e, .g, .h, .i, .k, .r, .v {
        stroke-linejoin: round;
      }

      .ab, .an, .e, .f, .g, .v {
        fill: #fff;
      }

      .e, .f, .i, .x, .z {
        stroke: #fff;
      }

      .aa, .i, .k, .m, .r, .w, .z {
        fill: none;
      }

      .n {
        fill: url(#b);
      }

      .o {
        fill: url(#c);
      }

      .p {
        fill: url(#d);
      }

      .q {
        fill: url(#e);
      }

      .s, .t, .x {
        fill: #eff4ee;
      }

      .u {
        opacity: 0.1;
      }

      .w {
        stroke: #25e899;
      }

      .y {
        fill: #0fce7c;
      }

      .aa {
        stroke-width: 0.30411px;
      }

      .ab, .ah, .aj {
        opacity: 0.2;
      }

      .ac {
        fill: #16f2ac;
      }

      .ad {
        fill: #f2c616;
      }

      .ae {
        fill: #183042;
      }

      .af {
        fill: #faffcc;
      }

      .ag {
        fill: #303030;
      }

      .ah {
        fill: url(#f);
      }

      .ai {
        fill: url(#g);
      }

      .aj {
        fill: url(#h);
      }

      .ak {
        fill: url(#i);
      }

      .al {
        opacity: 0.5;
      }

      .am {
        fill: url(#j);
      }

      .ao {
        fill: url(#k);
      }

      .ap {
        fill: url(#l);
      }

      .aq {
        fill: url(#m);
      }

      .ar {
        fill: url(#n);
      }

      .as {
        fill: url(#o);
      }

      .at {
        fill: url(#p);
      }

      .au {
        fill: url(#q);
      }

      .av {
        fill: url(#r);
      }

      .aw {
        fill: #27c557;
      }
    </style>
    <radialGradient id="a" cx="50" cy="50" r="38.77846" gradientUnits="userSpaceOnUse">
      <stop offset="0" stop-color="#05014a"/>
      <stop offset="0.30463" stop-color="#050147"/>
      <stop offset="0.53892" stop-color="#04013d"/>
      <stop offset="0.74974" stop-color="#03012d"/>
      <stop offset="0.94569" stop-color="#020016"/>
      <stop offset="1" stop-color="#01000e"/>
    </radialGradient>
    <radialGradient id="b" cx="71.93168" cy="70.69332" r="28.40653" gradientUnits="userSpaceOnUse">
      <stop offset="0" stop-color="#fff"/>
      <stop offset="0.08642" stop-color="#fff" stop-opacity="0.95628"/>
      <stop offset="0.23919" stop-color="#fff" stop-opacity="0.83936"/>
      <stop offset="0.44037" stop-color="#fff" stop-opacity="0.6495"/>
      <stop offset="0.68235" stop-color="#fff" stop-opacity="0.38651"/>
      <stop offset="0.95618" stop-color="#fff" stop-opacity="0.05567"/>
      <stop offset="1" stop-color="#fff" stop-opacity="0"/>
    </radialGradient>
    <radialGradient id="c" cx="72.17096" cy="70.81264" r="21.59381" gradientUnits="userSpaceOnUse">
      <stop offset="0" stop-color="#1687f2"/>
      <stop offset="0.40719" stop-color="#1888f2"/>
      <stop offset="0.55385" stop-color="#1f8cf2"/>
      <stop offset="0.65841" stop-color="#2a93f2"/>
      <stop offset="0.74296" stop-color="#3b9ef2"/>
      <stop offset="0.8154" stop-color="#51abf2"/>
      <stop offset="0.87952" stop-color="#6dbbf2"/>
      <stop offset="0.93756" stop-color="#8dcff2"/>
      <stop offset="0.98913" stop-color="#b1e5f2"/>
      <stop offset="1" stop-color="#baeaf2"/>
    </radialGradient>
    <radialGradient id="d" cx="60.76001" cy="26.81899" r="8.12735" xlink:href="#b"/>
    <radialGradient id="e" cx="55.84782" cy="27.74456" r="13.92681" gradientUnits="userSpaceOnUse">
      <stop offset="0" stop-color="#fff"/>
      <stop offset="1" stop-color="#1b1440"/>
    </radialGradient>
    <linearGradient id="f" x1="63.91897" y1="68.86792" x2="66.401" y2="66.20136" gradientUnits="userSpaceOnUse">
      <stop offset="0"/>
      <stop offset="1" stop-color="#fff"/>
    </linearGradient>
    <linearGradient id="g" x1="63.36595" y1="67.26791" x2="65.84798" y2="64.60135" gradientUnits="userSpaceOnUse">
      <stop offset="0" stop-color="#f9f"/>
      <stop offset="1" stop-color="#fff"/>
    </linearGradient>
    <linearGradient id="h" x1="54.96377" y1="59.93456" x2="56.42917" y2="58.36022" gradientTransform="matrix(0.98179, -0.18998, 0.18998, 0.98179, -10.27054, 11.67169)" xlink:href="#f"/>
    <linearGradient id="i" x1="54.95408" y1="59.38587" x2="56.27258" y2="57.96935" gradientTransform="matrix(0.98179, -0.18998, 0.18998, 0.98179, -10.27054, 11.67169)" xlink:href="#g"/>
    <radialGradient id="j" cx="25.53009" cy="34" r="0.72023" gradientUnits="userSpaceOnUse">
      <stop offset="0" stop-color="#fff"/>
      <stop offset="1" stop-color="#fff" stop-opacity="0"/>
    </radialGradient>
    <radialGradient id="k" cx="35.56422" cy="23.91667" r="0.72023" xlink:href="#j"/>
    <radialGradient id="l" cx="68.00615" cy="31.6343" r="0.72023" xlink:href="#j"/>
    <radialGradient id="m" cx="22.80082" cy="46.99901" r="0.72023" xlink:href="#j"/>
    <radialGradient id="n" cx="19.66178" cy="66.29156" r="0.72023" xlink:href="#j"/>
    <radialGradient id="o" cx="13.87273" cy="58.64646" r="0.72023" xlink:href="#j"/>
    <radialGradient id="p" cx="43.08161" cy="26.02433" r="0.72023" xlink:href="#j"/>
    <radialGradient id="q" cx="14.17369" cy="38.29237" r="0.72023" xlink:href="#j"/>
    <radialGradient id="r" cx="67.70518" cy="43.1425" r="0.72023" xlink:href="#j"/>
  </defs>
  <title>Love the Earth</title>
  <path class="a" d="M85.90182,70.73209,50.00413,91.456,14.09818,70.73209V29.27616L50.00413,8.544,85.90182,29.27616Z" transform="translate(-6.70132)"/>
  <path class="b" d="M84.35321,52.18042l-5.83158-1.26689" transform="translate(-6.70132)"/>
  <path class="c" d="M32.09148,71.68436H53.71129" transform="translate(-6.70132)"/>
  <path class="d" d="M32.09148,71.68429l.23476,3.17023,2.14159,2.8934,1.8768.17767,6.86988.66939,7.04363-.50486,2.361-1.63673,1.09214-3.11628-.46873-1.65284Z" transform="translate(-6.70132)"/>
  <path class="e" d="M48.714,78.33438H37.08878a4.99732,4.99732,0,0,1-4.9973-4.9973V66.29156H53.71129v7.04552A4.99722,4.99722,0,0,1,48.714,78.33438Z" transform="translate(-6.70132)"/>
  <rect class="f" x="41.83751" y="56.87078" width="3.45926" height="15.38241" transform="translate(-36.94168 89.43767) rotate(-74.61369)"/>
  <path class="g" d="M53.20762,92.85709h1.785V82.20937a1.785,1.785,0,1,0-3.57,0V91.0721A1.785,1.785,0,0,0,53.20762,92.85709Z" transform="translate(-6.70132)"/>
  <path class="h" d="M54.99268,84.26882H51.42284" transform="translate(-6.70132)"/>
  <path class="i" d="M53.865,79.15629H51.68585l-1.59544,1.59544" transform="translate(-6.70132)"/>
  <path class="d" d="M53.55293,77.29184a1.08956,1.08956,0,1,0-1.08964,1.08964,1.08959,1.08959,0,0,0,1.08964-1.08964" transform="translate(-6.70132)"/>
  <g>
    <path class="j" d="M65.04967,61.976l-5.846,3.14356" transform="translate(-6.70132)"/>
    <path class="k" d="M77.80723,53.74119l1.14669,2.13248A2.30838,2.30838,0,0,1,78.01417,59L62.9032,67.1256a2.30841,2.30841,0,0,1-3.12645-.93988l-1.14669-2.13248a2.30838,2.30838,0,0,1,.94-3.12631l15.111-8.12556A2.30834,2.30834,0,0,1,77.80723,53.74119Z" transform="translate(-6.70132)"/>
    <path class="l" d="M73.82481,55.14157a1.86343,1.86343,0,1,0,2.52361.75865,1.86334,1.86334,0,0,0-2.52361-.75865" transform="translate(-6.70132)"/>
    <circle class="m" cx="74.70747" cy="56.78263" r="1.86335" transform="translate(-24.68392 42.15306) rotate(-28.26806)"/>
    <path class="k" d="M66.71628,65.07535,63.3831,58.87669" transform="translate(-6.70132)"/>
    <path class="k" d="M70.45875,63.06293l-3.33318-6.19866" transform="translate(-6.70132)"/>
    <rect class="d" x="53.49659" y="65.22337" width="6.77259" height="3.46098" transform="translate(-34.79045 44.63257) rotate(-34.93085)"/>
  </g>
  <path class="n" d="M85.83,46.12V70.69L57.88,86.82l-6.07,3.5c-.44-.43-.85-.89-1.25-1.35A28.15711,28.15711,0,0,1,84.02,45.16C84.64,45.46,85.24,45.77,85.83,46.12Z" transform="translate(-6.70132)"/>
  <path class="o" d="M85.83,54.29v16.4L57.88,86.82a18.51174,18.51174,0,0,1-1.38-1.28A21.45085,21.45085,0,0,1,84.02,52.89,18.6091,18.6091,0,0,1,85.83,54.29Z" transform="translate(-6.70132)"/>
  <circle class="p" cx="60.84782" cy="26.74456" r="8.39451" transform="translate(-12.30691 25.4512) rotate(-22.61203)"/>
  <circle class="q" cx="60.84782" cy="26.74456" r="6.35232" transform="translate(-12.30691 25.4512) rotate(-22.61203)"/>
  <path class="l" d="M45.0133,71.96119a2.23191,2.23191,0,1,0-2.232,2.232,2.23192,2.23192,0,0,0,2.232-2.232" transform="translate(-6.70132)"/>
  <circle class="r" cx="36.08021" cy="71.96113" r="2.23199"/>
  <path class="d" d="M34.41053,77.29184a1.08956,1.08956,0,1,0-1.08964,1.08964,1.08959,1.08959,0,0,0,1.08964-1.08964" transform="translate(-6.70132)"/>
  <path class="s" d="M44.7,79.453a1.7986,1.7986,0,1,0-1.7986,1.7986A1.79866,1.79866,0,0,0,44.7,79.453" transform="translate(-6.70132)"/>
  <path class="s" d="M52.342,76.54979a.67627.67627,0,1,0-.67627.67627.67629.67629,0,0,0,.67627-.67627" transform="translate(-6.70132)"/>
  <path class="s" d="M34.67343,76.54979a.67627.67627,0,1,0-.67627.67627.67629.67629,0,0,0,.67627-.67627" transform="translate(-6.70132)"/>
  <path class="h" d="M31.10365,88.86543h3.56983" transform="translate(-6.70132)"/>
  <path class="h" d="M31.10365,84.22555h3.56983" transform="translate(-6.70132)"/>
  <path class="i" d="M32.23129,79.11282h2.17912L36.006,80.70826" transform="translate(-6.70132)"/>
  <path class="i" d="M49.30755,82.099V93.97885" transform="translate(-6.70132)"/>
  <path class="k" d="M54.99273,95.67348H49.30758" transform="translate(-6.70132)"/>
  <path class="h" d="M54.99268,88.90871H51.42284" transform="translate(-6.70132)"/>
  <circle class="k" cx="45.85509" cy="94.23803" r="1.33581"/>
  <path class="k" d="M52.21427,97.3453V95.67338" transform="translate(-6.70132)"/>
  <rect class="d" x="22.80082" y="71.82333" width="6.77259" height="3.46098"/>
  <path class="f" d="M40.3753,43.69124a9.58959,9.58959,0,0,1,18.25753,5.874l-5.10378,8.14028L39.775,53.28042Z" transform="translate(-6.70132)"/>
  <path class="s" d="M68.125,51.547c.56889-.05127.65362,2.22271.66551,3.06418a.62555.62555,0,0,0,.26886.493,3.38971,3.38971,0,0,1,1.45425,1.75013.62958.62958,0,0,0,.84516.4718A13.6229,13.6229,0,0,1,77.375,56.11a6.45833,6.45833,0,0,0,3.6875-.54751,4.25159,4.25159,0,0,1,2.71532-1.30358c-.94559-.19465-.91242-1.53579,0-1.53734a21.63737,21.63737,0,0,0-9.37132-3.47221A20.55534,20.55534,0,0,0,64.007,50.58024C63.4075,50.97985,66.82159,51.66444,68.125,51.547Z" transform="translate(-6.70132)"/>
  <path class="t" d="M81.76328,57.516l.72236-4.55992a1.17,1.17,0,0,1,1.33869-.97255l.98091.15539a1.17006,1.17006,0,0,1,.97255,1.33869l-.72236,4.55992" transform="translate(-6.70132)"/>
  <path class="u" d="M85.29865,53.68909a1.1701,1.1701,0,0,0-.9726-1.33868l-.9809-.1554a1.16991,1.16991,0,0,0-1.33868.97253l-.72235,4.55975v.00012a1.66659,1.66659,0,0,0,3.29211.52155h0Z" transform="translate(-6.70132)"/>
  <path class="l" d="M85.05536,58.03762a1.6666,1.6666,0,1,0-1.90684,1.38531,1.66663,1.66663,0,0,0,1.90684-1.38531" transform="translate(-6.70132)"/>
  <circle class="m" cx="83.40934" cy="57.77672" r="1.6666" transform="translate(6.59231 131.11876) rotate(-80.99827)"/>
  <path class="v" d="M52.458,76.78634l.30968-2.40134a2.30838,2.30838,0,0,0-1.99409-2.58475L33.75743,69.6058A2.30841,2.30841,0,0,0,31.17266,71.6L30.863,74.00139A2.30838,2.30838,0,0,0,32.85724,76.586l17.01619,2.19445A2.30834,2.30834,0,0,0,52.458,76.78634Z" transform="translate(-6.70132)"/>
  <path class="k" d="M38.05121,70.15947l-.90018,6.9802" transform="translate(-6.70132)"/>
  <path class="k" d="M42.26554,70.703l-.90018,6.9802" transform="translate(-6.70132)"/>
  <path class="j" d="M37.60114,73.6495l-6.58311-.849" transform="translate(-6.70132)"/>
  <path class="t" d="M49.996,73.56774l-4.579-.59052a1.16989,1.16989,0,0,0-1.3099,1.01063l-.127.98514A1.16992,1.16992,0,0,0,44.99062,76.283l4.579.59052" transform="translate(-6.70132)"/>
  <path class="l" d="M49.56972,76.87351a1.6666,1.6666,0,1,1,1.86608-1.43975,1.66663,1.66663,0,0,1-1.86608,1.43975" transform="translate(-6.70132)"/>
  <circle class="m" cx="49.78293" cy="75.22064" r="1.6666" transform="translate(-37.88862 114.97372) rotate(-82.65155)"/>
  <path class="w" d="M39.03958,59.01912l11.25055,4.16882" transform="translate(-6.70132)"/>
  <path class="l" d="M40.075,49.24937l14.35587,4.61871,1.06718.85562-1.9689,2.9817L39.775,53.28031Z" transform="translate(-6.70132)"/>
  <path class="x" d="M50.28187,61.12921l-9.86552-3.174a2.04235,2.04235,0,0,1-1.3186-2.56977l.67722-2.10493L53.5289,57.70553l-.67722,2.10493A2.04249,2.04249,0,0,1,50.28187,61.12921Z" transform="translate(-6.70132)"/>
  <path class="y" d="M55.636,48.39025c-5.01071.5053-10.97112-1.64025-12.25928-3.94418C42.66132,46.56378,52,50.81637,55.636,48.39025Z" transform="translate(-6.70132)"/>
  <path class="k" d="M44.94645,50.81637a6.73716,6.73716,0,0,1,.36475-10.056" transform="translate(-6.70132)"/>
  <path class="k" d="M55.99291,43.825a6.73629,6.73629,0,0,1-5.36765,8.78223" transform="translate(-6.70132)"/>
  <path class="z" d="M40.4178,43.55912l2.7951-8.6877" transform="translate(-6.70132)"/>
  <path class="z" d="M58.67542,49.43309l3.58431-11.14072" transform="translate(-6.70132)"/>
  <path class="f" d="M39.87337,47.69024l-.94229-.30316a1.4605,1.4605,0,0,1-.94031-1.83212l1.13266-3.52052a1.4605,1.4605,0,0,1,1.83222-.94011l.39961.12857" transform="translate(-6.70132)"/>
  <path class="f" d="M56.74131,53.11716l.94229.30316a1.4605,1.4605,0,0,0,1.83222-.94011l1.13266-3.52052a1.4605,1.4605,0,0,0-.94031-1.83212l-.39961-.12857" transform="translate(-6.70132)"/>
  <path class="k" d="M40.96479,42.19585a13.39941,13.39941,0,0,1,18.08275,5.39339" transform="translate(-6.70132)"/>
  <path class="z" d="M40.07516,49.24881l15.5724,5.01011" transform="translate(-6.70132)"/>
  <path class="aa" d="M45.63509,53.37862s-1.88247-.04436-2.2676-1.48675" transform="translate(-6.70132)"/>
  <path class="ab" d="M70.12686,78.94279c-2.4037-1.85852-4.42746-5.27434-5.75266-10.41154a1.08944,1.08944,0,0,1,.25423-1.00687c2.56334-2.6777,4.44031-3.93639,4.63943-2.47344,1.81807,1.80836,3.78631,2.51977,6.28881,3.23526a3.64952,3.64952,0,0,1,2.47867-3.03878.88821.88821,0,0,1,1.07516.42323,4.06565,4.06565,0,0,0,3.74523,2.29215.92659.92659,0,0,1,.64178.26388l2.21257,2.18954Z" transform="translate(-6.70132)"/>
  <path class="ac" d="M69.95834,78.04166c-2.3319-1.68492-4.15566-4.81342-5.44128-9.47076a.9422.9422,0,0,1,.24664-.91282c2.48678-2.42757,4.16813-3.53694,4.3613-2.21065A14.95383,14.95383,0,0,0,75.66666,68.5a3.09489,3.09489,0,0,1,1.96395-2.87443.88847.88847,0,0,1,1.043.38369,3.99086,3.99086,0,0,0,3.63337,2.078.93244.93244,0,0,1,.62261.23923l2.14649,1.985Z" transform="translate(-6.70132)"/>
  <path class="ab" d="M67.12557,80.49194c-2.495-1.68254-4.81826-3.46971-6.018-5.94086a.70476.70476,0,0,0-.34246-.33554c-1.80351-.81006-3.54712-1.23844-5.13049-.6457a.67962.67962,0,0,0-.36631.95285,2.32375,2.32375,0,0,1,.14981,2.09108c-1.3157,1.04726-1.72786,2.915-2.0299,4.88274a21.72669,21.72669,0,0,0,1.96414,2.60763,5.38834,5.38834,0,0,1,2.853-.61393c1.00428-.11559,1.15834.44331,1.31517,1Z" transform="translate(-6.70132)"/>
  <path class="ad" d="M66.71629,80.75173c-2.39079-1.68254-4.61695-3.46971-5.76652-5.94086a.68994.68994,0,0,0-.32815-.33554c-1.72816-.81006-3.39892-1.23844-4.91614-.6457a.69071.69071,0,0,0-.351.95285,2.4133,2.4133,0,0,1,.14355,2.09108c-1.26073,1.04726-1.65567,2.915-1.9451,4.88274A21.672,21.672,0,0,0,55.435,84.36393,4.98311,4.98311,0,0,1,58.16886,83.75c.96232-.11559,1.10994.44331,1.26022,1Z" transform="translate(-6.70132)"/>
  <path class="d" d="M61.33512,73.772c-4.91868,1.22123-9.41122.88288-14.352.2711-.19114-.02367-.18942.27655,0,.3,5.01148.62053,9.45576.95365,14.43176-.28182a.15013.15013,0,0,0-.07975-.28928Z" transform="translate(-6.70132)"/>
  <path class="d" d="M47.17429,72.93a8.0111,8.0111,0,0,1,1.0929.75279c.18623.1584.61735.48249.66312.73457.04775.26294-.46053.63263-.64325.76a5.67768,5.67768,0,0,1-1.07693.55144c-.17564.07315-.09857.36355.07975.28928a5.58882,5.58882,0,0,0,1.28473-.681c.22148-.1703.67874-.54642.69771-.8589.01517-.24982-.37413-.61026-.53445-.771A7.121,7.121,0,0,0,47.32571,72.671a.15011.15011,0,0,0-.15142.259Z" transform="translate(-6.70132)"/>
  <path class="ae" d="M50.00389,0,6.70132,25V75l43.30257,25L93.29868,75V25ZM85.8276,70.68615,50.00389,91.37227,14.1724,70.68615V29.31385L50.00389,8.62768,85.8276,29.31385Z" transform="translate(-6.70132)"/>
  <path class="af" d="M50,8.63,14.17,29.31V70.69L50,91.37l1.81-1.05,6.07-3.5L85.83,70.69V29.31ZM84.02,69.65,56.5,85.54l-5.94,3.43-.56.32L15.98,69.65V30.36L50,10.71,84.02,30.36Z" transform="translate(-6.70132)"/>
  <path class="ag" d="M58.74357,58.978a1.6472,1.6472,0,0,0,1.1865,1.12826c.18112.06757.25932-.2223.07975-.28928a1.33757,1.33757,0,0,1-.977-.91873c-.04256-.18823-.33186-.10857-.28928.07975Z" transform="translate(-6.70132)"/>
  <path class="ag" d="M62.12952,61.47811a1.64747,1.64747,0,0,0,1.41262.83016c.19088.02488.18905-.27536,0-.3a1.34247,1.34247,0,0,1-1.15358-.68157c-.08281-.17428-.34155-.02223-.259.15142Z" transform="translate(-6.70132)"/>
  <path class="ag" d="M59.08043,30.44742a1.39222,1.39222,0,0,0,.97-.22477,1.07568,1.07568,0,0,1-.44359.29668A.64155.64155,0,0,1,59.08043,30.44742Z" transform="translate(-6.70132)"/>
  <path class="ag" d="M58.57309,61.56759a2.17344,2.17344,0,0,0,.69289,1.01523,3.09508,3.09508,0,0,0,1.15055.48011,1.74771,1.74771,0,0,1-1.28743-.30125A1.4642,1.4642,0,0,1,58.57309,61.56759Z" transform="translate(-6.70132)"/>
  <circle class="ag" cx="58.5843" cy="29.7706" r="0.17909" transform="translate(-11.28177 11.64263) rotate(-10.92495)"/>
  <circle class="ag" cx="60.11848" cy="29.47447" r="0.17909" transform="translate(-11.19784 11.92803) rotate(-10.92495)"/>
  <path class="ah" d="M66.52413,68.71694a.75918.75918,0,0,0-.29058-.33053,1.34615,1.34615,0,0,0-1.871-1.91289.76991.76991,0,0,0-.94342-.29618.78058.78058,0,0,0-.41319,1.02363c.14166.33344.86872.73745.92747.87575.20088.47282,1.09244,1.10589,1.15394,1.25066a.78056.78056,0,1,0,1.43682-.61044Z" transform="translate(-6.70132)"/>
  <path class="ai" d="M65.97111,67.11694a.75918.75918,0,0,0-.29058-.33053,1.34615,1.34615,0,0,0-1.871-1.91289.76991.76991,0,0,0-.94342-.29618.78058.78058,0,0,0-.41319,1.02363c.14166.33344.86872.73745.92747.87575.20088.47282,1.09244,1.10589,1.15394,1.25066a.78056.78056,0,1,0,1.43682-.61044Z" transform="translate(-6.70132)"/>
  <path class="aj" d="M56.55543,59.66606a.64317.64317,0,0,0-.24014-.19585.87749.87749,0,0,0-.13824-.85034.80017.80017,0,0,0-1.06043-.25178.63187.63187,0,0,0-.12647.11615.39271.39271,0,0,0-.50618-.08205.4412.4412,0,0,0-.1055.58883c.10588.18046.53409.368.583.44783.17218.281.77962.63961.84071.73469a.52777.52777,0,0,0,.70773.23A.5187.5187,0,0,0,56.55543,59.66606Z" transform="translate(-6.70132)"/>
  <path class="ak" d="M56.29355,59.15184a.5261.5261,0,0,0-.21206-.165.73978.73978,0,0,0-.10076-.74839.72146.72146,0,0,0-.96344-.1931.62772.62772,0,0,0-.11908.1073.36117.36117,0,0,0-.46352-.05841.396.396,0,0,0-.11075.5281c.09312.15714.48126.31012.52405.3793.15031.243.69429.53917.74719.62071a.46555.46555,0,0,0,.63485.17817A.45277.45277,0,0,0,56.29355,59.15184Z" transform="translate(-6.70132)"/>
  <g class="al">
    <circle class="am" cx="25.53009" cy="34" r="0.72023"/>
    <circle class="an" cx="25.53009" cy="34" r="0.30096"/>
  </g>
  <g class="al">
    <circle class="ao" cx="35.56422" cy="23.91667" r="0.72023"/>
    <circle class="an" cx="35.56422" cy="23.91667" r="0.30096"/>
  </g>
  <g class="al">
    <circle class="ap" cx="68.00615" cy="31.6343" r="0.72023"/>
    <circle class="an" cx="68.00615" cy="31.6343" r="0.30096"/>
  </g>
  <g class="al">
    <circle class="aq" cx="22.80082" cy="46.99901" r="0.72023"/>
    <circle class="an" cx="22.80082" cy="46.99901" r="0.30096"/>
  </g>
  <g class="al">
    <circle class="ar" cx="19.66178" cy="66.29156" r="0.72023"/>
    <circle class="an" cx="19.66178" cy="66.29156" r="0.30096"/>
  </g>
  <g class="al">
    <circle class="as" cx="13.87273" cy="58.64646" r="0.72023"/>
    <circle class="an" cx="13.87273" cy="58.64646" r="0.30096"/>
  </g>
  <g class="al">
    <circle class="at" cx="43.08161" cy="26.02433" r="0.72023"/>
    <circle class="an" cx="43.08161" cy="26.02433" r="0.30096"/>
  </g>
  <g class="al">
    <circle class="au" cx="14.17369" cy="38.29237" r="0.72023"/>
    <circle class="an" cx="14.17369" cy="38.29237" r="0.30096"/>
  </g>
  <g class="al">
    <circle class="av" cx="67.70518" cy="43.1425" r="0.72023"/>
    <circle class="an" cx="67.70518" cy="43.1425" r="0.30096"/>
  </g>
  <g>
    <path class="an" d="M62.99879,88.69929l1.20554-.69264.05491.0948a2.33718,2.33718,0,0,1,.25876.62718,1.45548,1.45548,0,0,1-.00377.5866,1.52653,1.52653,0,0,1-.77012,1.05144,1.64144,1.64144,0,0,1-1.30335.16165,1.75342,1.75342,0,0,1-.40007-3.21432,1.71779,1.71779,0,0,1,.71891-.22788,2.11643,2.11643,0,0,1,.81756.13084l-.14139.48209a1.22624,1.22624,0,0,0-1.14917.0248,1.20017,1.20017,0,0,0-.59338.76712,1.23055,1.23055,0,0,0,.13909.96642,1.18719,1.18719,0,0,0,.81078.6017,1.21224,1.21224,0,0,0,.87917-.11582,1.013,1.013,0,0,0,.45652-.55356.90565.90565,0,0,0-.01355-.69488l-.72876.41887Z" transform="translate(-6.70132)"/>
    <rect class="an" x="65.76605" y="85.36357" width="0.5079" height="3.36668" transform="translate(-41.34032 44.57843) rotate(-29.94671)"/>
    <polygon class="an" points="61.449 84.425 62.889 86.929 62.45 87.182 61.009 84.679 60.338 85.065 60.1 84.651 61.879 83.627 62.117 84.04 61.449 84.425"/>
    <path class="an" d="M72.12291,81.79534l.29927.52114a1.40678,1.40678,0,0,0-.97389.13461,1.16574,1.16574,0,0,0-.57235.75887,1.25786,1.25786,0,0,0,.14293.96488,1.22758,1.22758,0,0,0,.75579.59715,1.18727,1.18727,0,0,0,.94232-.12183,1.08623,1.08623,0,0,0,.35048-.303,1.28732,1.28732,0,0,0,.12938-.20986,2.62949,2.62949,0,0,0,.11582-.27378l.306.53176a1.8316,1.8316,0,0,1-.67085.67231,1.69121,1.69121,0,0,1-1.31759.17751,1.673,1.673,0,0,1-1.05291-.80847A1.73426,1.73426,0,0,1,70.375,83.2303a1.68722,1.68722,0,0,1,.86561-1.21008,1.71532,1.71532,0,0,1,.88225-.22487" transform="translate(-6.70132)"/>
    <path class="aw" d="M74.25721,81.6645A1.64961,1.64961,0,0,1,74.1,80.3476a1.72271,1.72271,0,0,1,.82657-1.06569,1.76154,1.76154,0,0,1,2.39083.64451,1.65551,1.65551,0,0,1,.16465,1.32668,1.78026,1.78026,0,0,1-2.07716,1.26045,1.651,1.651,0,0,1-1.14771-.84906m.446-.25044a1.249,1.249,0,0,0,2.30211-.273,1.3072,1.3072,0,0,0-.89649-1.56581,1.18473,1.18473,0,0,0-.95055.12407,1.19862,1.19862,0,0,0-.58591.75956,1.217,1.217,0,0,0,.13084.95517" transform="translate(-6.70132)"/>
    <rect class="an" x="78.84233" y="77.83324" width="0.50804" height="3.36583" transform="translate(-35.84576 50.13959) rotate(-29.96732)"/>
    <polygon class="an" points="75.165 79.865 73.372 76.748 76.782 77.75 75.614 75.722 76.054 75.469 77.836 78.565 74.429 77.569 75.605 79.611 75.165 79.865"/>
  </g>
</svg>
