<svg xmlns:osb="http://www.openswatchbook.org/uri/2009/osb" xmlns="http://www.w3.org/2000/svg" xmlns:xlink="http://www.w3.org/1999/xlink" version="1.1" id="Layer_1" x="0" y="0" viewBox="0 0 110.875 128.042" xml:space="preserve"><defs id="defs134"><linearGradient id="linearGradient2969" osb:paint="solid"><stop offset="0" id="stop2967" stop-color="#fb6572" stop-opacity="1"/></linearGradient><path id="a" d="M.075.128h512.08v167.178H.075z"/></defs><style type="text/css" id="style2">.st1{fill:#fff}.st3{opacity:.29;fill:#f9006c}.st4{fill:#15003e}.st6{fill:#25e899}</style><g id="Layer_63_36_"><path id="polygon4" fill="#f9006c" d="M110.876 32.011v64l-55.42 32-44.35-25.6-.2-.12-10.88-6.28v-64l55.43-32z"/></g><path class="st1" d="M101.965 37.631v53.14l-.01.01-1.09.62-.33.19-.13.07-.88.51-3.14 1.81-.2.12-1.93 1.11-.16.09-1.48.86-.47.27-.14.08-.47.27-.24.13-.03.01-.1.04-.11.07-3.03 1.74-.82.47-1.05.6-.04.03-1.23.71-.45.26-.02.02h-.01l-1.54.89-.87.52-1.26.72-.05.03-.07.04-.08.05-.41.24-.03.01-.05.03-.05.02-.06.04v.01l-.78.45-.18.09-.02.02-.04.02-1.01.58-.14.08-.15.09-.05.03-.32.18-.24.14h-.01l-.07.04-.64.38-.2.12-.33.19-.25.14c0 .01-.01.01-.01.01l-.47.27-.42.24-.04.03-.57.33-2.33 1.34-.63.36-.06.03-3.5 2.03-.02.01-.01.01-.4.23-.35.2-.5.29-.14.08-1.25.72-.98.57-.39.22-.01.01-.43.25-.4.23-2.36 1.36-.36.21-.04.02-.18.1-.5.29-1.87 1.08-.56.32h-.01l-.32.19-.48.28-.14-.08-1.28-.74-.85-.49-.03-.01-.91-.53-.17-.1-.05-.03-.61-.35-.17-.1-3.36-1.94-.04-.03-2.07-1.19-4.75-2.76-.61-.35-.69-.39-.93-.54-.22-.12-.09-.06-.03-.02-2.23-1.29-1.22-.71-.37-.21-.39-.22-.23-.13-.26-.15-.24-.15-.09-.05-.35-.2-.08-.05-.08-.04-.04-.03-1.3-.74-.05-.03-.15-.08-.37-.22-1.71-.99-2.51-1.46-2.09-1.2-.82-.47-.09-.05-.5-.29-.01-.01-.21-.12h-.01l-1.04-.6c-.01-.01-.01-.01-.02-.01l-1.86-1.08-1.02-.59-1.33-.77-.72-.43-.04-.02-.02-.01-.29-.17s-.01 0-.02-.01l-.26-.15-.02-.01-3.3-1.9-3.41-1.97-.09-.05-.08-.04-.03-.02V37.63l5.66-3.26.77-.46h.01l.25-.14.58-.33 1.75-1.01 2.27-1.31.82-.48.15-.09 2.07-1.19.98-.57 1.01-.59.42-.24.45-.26.25-.14h.01l.57-.33 3.23-1.86 1.58-.92.17-.09 1.66-.95.78-.45.38-.22.44-.26 1.1-.65.52-.3 2.28-1.3.69-.41 1.4-.8h.01l.05-.03 5.72-3.3.19-.11.27-.16 6.07-3.51 1.44-.83 1.06.62 6.49 3.75 2.6 1.5 3.95 2.28 1.34.77 6.64 3.83 1.04.61 2.3 1.31.87.5 1.52.88 1.37.79.8.46.09.06 1.81 1.04 3.78 2.18.04.03v.01l.26.14.26.16.4.23.92.53.54.31.02.01 1.92 1.11.78.44.44.25 1.94 1.12 2.82 1.63z" id="path7"/><g id="Layer_2_36_"><g id="Layer_16_36_"><path d="M96.84 34.668l-.53-.3-.72-.42-.77-.45-.11-.06-.49-.28-.51-.29-.9-.52-7.25-4.18-1.71-.98-.72-.42-.45-.26-.49-.29-.05-.02-.42-.25-.41-.24-5.33-3.07-19.5-11.24-.53-.31-.47.27-17.11 9.88-5.02 2.9-1.3.75-.53.31-.1.05h-.01l-.25.15-.42.25-.3.17-.27.16-.18.1-1.5.87h-.01l-1.78 1.02-.01.01-.58.34-.76.43-.01.01-.03.02-3.25 1.87h-.01l-2.38 1.37-1 .58-2.98 1.72-4.23 2.44-1.54.89v53.12l.07.04 1.72 1 .75.43.15.08 4.32 2.5.69.39 4 2.32.46.26 1.3.75 3.38 1.95 5.38 3.1.69.4.07.04.15.08.11.07.18.1.04.02 1.91 1.11.88.5 1.33.78.89.51.18.1.31.18.19.11.48.28 3.57 2.05.09.05.44.26.62.36.72.42H45l.53.3 1.51.87 3.17 1.84 4.48 2.58 1.03.6.23.13.02-.01.19-.11.14-.08.03-.02.31-.18 1.81-1.03.09-.05.69-.4.5-.29.24-.14 3.85-2.22 2.45-1.41.74-.43.66-.38.67-.39.44-.26 2.33-1.34.39-.22h.01l.23-.14.21-.12.63-.36.8-.46 1.26-.73.46-.27h.01l.46-.27.01-.01.25-.14.53-.31.37-.21.35-.21.55-.31.21-.13.32-.18.43-.24.02-.01.05-.03.13-.08.24-.13 3.78-2.18.38-.22 1.11-.65 2.97-1.71 1.56-.9 8.53-4.92h.01l.06-.04 2.65-1.53.9-.52 1.03-.59v-53.12l-5.17-2.98zm3.3 55.03l-.52.3-.32.18-.58.34-7.59 4.38-4.67 2.69-3.12 1.8-1.28.74-.72.41-2.93 1.69-.07.05-.16.09-.18.11-.57.32-.89.51-.22.13-.05.03-.81.47-.09.05-3.91 2.25-.08.05-.79.45-.08.05-.91.53-2.15 1.24-1.54.89-1.68.97-1.1.63-2.97 1.72-1.23.71-.06.04h-.02l-.75.44-.28.15-1.87 1.08-3.45-1.99-1.23-.71-.61-.35-1.81-1.05-.72-.41-.69-.4-5.26-3.03-.77-.45-.05-.03-1.79-1.03-2.06-1.18-.9-.52-.58-.34-.25-.15-.43-.25-.21-.12-1.75-1.01-.31-.18-.19-.11-1.5-.87-3.42-1.97-3.91-2.26-1.76-1.01-3.42-1.97-4.91-2.84-.9-.51-.39-.23-.23-.13-.67-.39v-50.97l3.91-2.26 2.98-1.72.93-.54h.01l.06-.04 3.2-1.85h.01l1.36-.79h.01l1.79-1.03 1.25-.72.43-.25h.01l.76-.44.46-.27h.01l2.98-1.72c.01-.01.01-.01.02-.01l.78-.45.35-.2.2-.12.29-.17.17-.1.27-.15.04-.02 8.03-4.64 13.39-7.73.47-.27.53.31 16.83 9.71 6.98 4.03.05.03.32.18.11.06.44.26.35.2 1.23.71 1.94 1.12 7.02 4.04 1.41.81.55.32.04.03.77.44.19.11.54.31.53.31 4.36 2.51v50.97z" id="path9" opacity=".13"/></g></g><path class="st3" id="rect13" d="M17.076 43.111h50.75v17.5h-50.75z"/><path class="st3" id="rect15" d="M42.742 68.944h50.75v17.5h-50.75z"/><g id="g31"><path class="st4" d="M69.542 115.086l1.566-.9.07.123c.166.286.276.56.337.815.05.241.049.495-.005.762-.124.597-.457 1.051-1 1.365a2.131 2.131 0 0 1-1.692.21 2.197 2.197 0 0 1-1.364-1.059c-.316-.55-.392-1.126-.228-1.73s.52-1.067 1.072-1.385a2.23 2.23 0 0 1 .934-.296c.313-.021.669.036 1.061.17l-.183.626c-.55-.235-1.047-.225-1.493.032-.402.23-.658.562-.77.996-.115.427-.055.846.18 1.255.243.423.593.683 1.053.782.43.09.809.04 1.142-.15.28-.162.477-.401.593-.72.113-.32.108-.619-.018-.902l-.946.544-.309-.538z" id="path17"/><path transform="rotate(-29.946 73.466 112.937)" class="st4" id="rect19" d="M73.134 110.754h.659v4.372h-.659z"/><path class="st4" id="polygon21" d="M76.232 109.535l1.87 3.252-.57.328-1.872-3.25-.87.501-.31-.537 2.31-1.33.309.537z"/><path class="st4" d="M81.39 106.121l.388.677c-.49-.087-.912-.029-1.264.174a1.514 1.514 0 0 0-.743.986c-.109.432-.046.85.185 1.253.228.397.557.656.982.775.425.118.832.066 1.223-.158.2-.116.353-.247.455-.394.06-.078.117-.167.168-.272.052-.104.103-.223.15-.355l.398.69c-.22.375-.511.665-.87.873a2.196 2.196 0 0 1-1.712.23 2.172 2.172 0 0 1-1.367-1.05 2.252 2.252 0 0 1-.263-1.566c.124-.69.501-1.213 1.124-1.571.34-.196.722-.294 1.146-.292" id="path23"/><path class="st1" d="M84.161 105.951a2.142 2.142 0 0 1-.204-1.71 2.237 2.237 0 0 1 1.074-1.384 2.193 2.193 0 0 1 1.721-.22 2.187 2.187 0 0 1 1.383 1.057 2.15 2.15 0 0 1 .214 1.723 2.254 2.254 0 0 1-1.087 1.386c-.49.283-1.026.364-1.61.25-.645-.126-1.141-.495-1.49-1.102m.578-.325c.242.418.58.681 1.017.789.435.108.836.057 1.203-.153.398-.229.653-.559.77-.99a1.604 1.604 0 0 0-.176-1.252 1.596 1.596 0 0 0-.988-.782 1.538 1.538 0 0 0-1.235.161 1.556 1.556 0 0 0-.76.987 1.58 1.58 0 0 0 .17 1.24" id="path25"/><path transform="rotate(-29.969 90.445 103.165)" class="st4" id="rect27" d="M90.117 100.977h.66v4.371h-.66z"/><path class="st4" id="polygon29" d="M94.042 103.614l-2.329-4.047 4.428 1.301-1.516-2.634.57-.328 2.315 4.02-4.424-1.293 1.528 2.652z"/></g><g id="g51"><path class="st1" d="M80.225 53.54c.947 3.315 1.658 9.59-.829 10.063-2.131-.473-2.993-4.025-3.907-6.748-.914-2.724-2.368-11.604 0-11.604 2.605.24 3.789 4.973 4.736 8.288z" id="path49"/></g><style id="style2-9" type="text/css">.st1{fill:#fff}.st6{fill:#11083a}</style><style type="text/css" id="style2217">.st1{fill:#fff}.st6{fill:#11083a}</style><g id="g4392" transform="matrix(.77257 0 0 .77257 -78.377 13.282)"><g transform="matrix(.8 0 0 .8 62.132 -4.183)" id="g1360"><ellipse ry="17.252" rx="15.802" cy="40.748" cx="139.997" id="ellipse1083" fill="#e1e1e1" fill-rule="nonzero" stroke="#979797" stroke-width=".051"/><path d="M136.763 62.867l-.09.068c.031.048.061.088.09.117.181.18.223-.36 0-.185z" id="path1085" fill="#54361f" fill-rule="nonzero" stroke-width=".051"/><path d="M126.078 49.4h25.85l2.19.84-1.647 5.928h-24.766z" id="path1087" fill="#25e899" fill-rule="nonzero" stroke-width=".051"/><path d="M149.081 63.293h-17.813c-1.94 0-3.51-1.554-3.51-3.47v-3.757h24.834v3.757c0 1.916-1.572 3.47-3.51 3.47" id="path1089" fill="#eff4ee" fill-rule="nonzero" stroke="#00004b" stroke-width="1.2" stroke-miterlimit="4" stroke-dasharray="none" stroke-opacity="1"/><g transform="matrix(.0509 0 0 .0509 127.198 55.506)" id="g1096" fill="none" fill-rule="evenodd"><mask fill="#fff" id="b"><use y="0" x="0" xlink:href="#a" width="100%" height="100%" id="use1091"/></mask><path mask="url(#b)" d="M24.98 24.863v61.684c0 30.89 25.309 56.024 56.411 56.024h349.443c31.11 0 56.41-25.134 56.41-56.024V24.86H24.98v.004zm405.854 142.443H81.396c-44.843 0-81.321-36.228-81.321-80.759V.124h512.08v86.423c0 44.535-36.479 80.763-81.321 80.763z" id="path1094" fill="#15003e" fill-rule="nonzero"/></g><path d="M135.535 49.4c-3.89-1.706-6.607-5.585-6.607-10.098a10.965 10.965 0 0 1 2.522-7.011c2.025-2.45 14.767-2.574 16.79-.295a10.97 10.97 0 0 1 2.774 7.306c0 4.513-2.716 8.391-6.605 10.097" id="path1098" fill="#0fce7c" fill-rule="nonzero" stroke-width=".051"/><path d="M134.897 50.061a.63.63 0 0 1-.277-.064c-4.233-2.063-6.863-6.272-6.863-10.984 0-2.34.663-4.613 1.917-6.575a.633.633 0 0 1 .398-.278.632.632 0 0 1 .477.086.635.635 0 0 1 .278.398.637.637 0 0 1-.086.478 10.916 10.916 0 0 0-1.716 5.89c0 4.223 2.356 7.995 6.15 9.843a.634.634 0 0 1 .321.364.635.635 0 0 1-.03.485.633.633 0 0 1-.57.357m10.219-.06a.634.634 0 0 1-.618-.488.635.635 0 0 1 .333-.714 10.89 10.89 0 0 0 6.037-9.786c0-2.346-.73-4.581-2.111-6.465a.633.633 0 1 1 1.022-.751 12.128 12.128 0 0 1 2.356 7.216c0 4.652-2.581 8.836-6.736 10.921a.634.634 0 0 1-.283.068" id="path1100" fill="#15003e" fill-rule="nonzero" stroke-width=".051"/><path d="M128.205 55.463h23.786l3.915-15.395c-.043-8.672-7.117-15.714-15.808-15.714-8.69 0-15.765 7.042-15.807 15.714zm24.77 1.265h-25.754l-4.196-16.503v-.08c0-9.404 7.659-17.056 17.073-17.056 9.415 0 17.074 7.652 17.074 17.057v.079l-.02.077z" id="path1102" fill="#15003e" fill-rule="nonzero" stroke-width=".051"/><path d="M123.658 40.494a.632.632 0 0 1-.633-.632V24.26a.632.632 0 0 1 1.266 0v15.603a.632.632 0 0 1-.633.632m32.881 0a.632.632 0 0 1-.633-.632v-20.01a.632.632 0 0 1 1.266 0v20.01a.632.632 0 0 1-.633.631" id="path1104" fill="#15003e" fill-rule="nonzero" stroke-width=".051"/><path d="M124.998 47.517h-1.696a3.128 3.128 0 0 1-3.127-3.123V38.07a3.128 3.128 0 0 1 3.127-3.122h.72a.632.632 0 1 1 0 1.263h-.72a1.862 1.862 0 0 0-1.862 1.859v6.325c0 1.025.835 1.86 1.862 1.86h1.696a.632.632 0 1 1 0 1.263m32.05 0h-1.696a.632.632 0 1 1 0-1.264h1.696a1.862 1.862 0 0 0 1.861-1.859V38.07a1.862 1.862 0 0 0-1.861-1.86h-.72a.632.632 0 1 1 0-1.262h.72c1.724 0 3.127 1.4 3.127 3.122v6.325a3.128 3.128 0 0 1-3.127 3.123" id="path1106" fill="#15003e" fill-rule="nonzero" stroke-width=".051"/><path d="M123.278 37.716a.636.636 0 0 1 .13-.69c4.532-4.656 10.56-7.22 16.97-7.22 6.039 0 11.809 2.312 16.247 6.507a.636.636 0 0 1 .019.89.632.632 0 0 1-.887.034c-4.203-3.973-9.665-6.16-15.378-6.16-6.068 0-11.773 2.427-16.065 6.836-.08.081-.23.145-.453.191a.633.633 0 0 1-.583-.388zm2.833 12.396a.634.634 0 0 1 0-1.27h28.034a.634.634 0 0 1 0 1.27z" id="path1108" fill="#15003e" fill-rule="nonzero" stroke-width=".051"/><path d="M145.823 35.604c0 1.599-1.276 2.896-2.85 2.896-1.573 0-2.85-1.297-2.85-2.897 0-1.599 1.277-2.896 2.85-2.896 1.574 0 2.85 1.297 2.85 2.896m2.036 4.33c0 .647-.516 1.171-1.152 1.171a1.162 1.162 0 0 1-1.152-1.17c0-.647.516-1.172 1.152-1.172.636 0 1.152.525 1.152 1.171" id="path1110" fill="#fff" fill-rule="nonzero" stroke-width=".051"/><path d="M150.026 54.183c-1.004 0-1.524-.607-1.903-1.05-.35-.41-.537-.608-.933-.608-.397 0-.583.198-.933.608-.38.443-.899 1.05-1.902 1.05-1.004 0-1.523-.607-1.902-1.05-.351-.41-.538-.608-.934-.608-.397 0-.583.198-.934.608-.38.443-.899 1.05-1.903 1.05-1.003 0-1.523-.607-1.902-1.05-.35-.41-.537-.607-.933-.607-.397 0-.584.197-.935.607-.38.443-.899 1.05-1.903 1.05s-1.524-.607-1.903-1.05c-.351-.41-.538-.607-.935-.607a.627.627 0 0 1-.632-.622c0-.343.283-.621.632-.621 1.004 0 1.524.607 1.903 1.05.352.41.538.607.935.607s.584-.197.935-.607c.38-.444.899-1.05 1.903-1.05 1.003 0 1.523.607 1.902 1.05.35.41.537.607.933.607.397 0 .584-.197.935-.607.379-.444.898-1.05 1.902-1.05s1.523.607 1.902 1.05c.351.41.537.607.934.607.396 0 .582-.197.933-.607.379-.443.898-1.05 1.902-1.05 1.003 0 1.523.606 1.902 1.05.35.41.537.607.933.607.35 0 .633.278.633.621a.627.627 0 0 1-.633.622" id="path1112" fill="#15003e" fill-rule="nonzero" stroke-width=".051"/></g><g transform="matrix(.75 0 0 .5 -14.214 -6.197)" id="g3304" fill-opacity="1" stroke-width="0" stroke-miterlimit="4" stroke-dasharray="none" stroke-opacity="1"><g id="g3295" fill="#e52521" stroke="#e52521"><path d="M270.952 41.87c0-12.358-19.184-12.5-20-12.5-.817 0-20 .142-20 12.5 0 .213.043 4.974 3.223 7.076-.407 1.727-.23 3.52.588 5.12a7.524 7.524 0 0 0 4.478 3.78c3.205 1.011 7.145 1.524 11.71 1.524 4.566 0 8.506-.513 11.711-1.523a7.524 7.524 0 0 0 4.479-3.781c.816-1.6.995-3.393.587-5.12 3.18-2.102 3.224-6.863 3.224-7.076zm-20-5.833c5.054 0 9.166 3.738 9.166 8.333 0 1.67-.584 3.264-1.588 4.623-2.212.218-4.78.377-7.578.377-2.81 0-5.389-.16-7.608-.38-.998-1.357-1.56-2.955-1.56-4.62 0-4.595 4.113-8.333 9.168-8.333zm14.704 17.272a5.874 5.874 0 0 1-3.495 2.95c-3.043.958-6.814 1.444-11.21 1.444-4.395 0-8.166-.486-11.209-1.445a5.874 5.874 0 0 1-3.495-2.95 5.796 5.796 0 0 1-.53-3.78c2.044.44 7.792 1.509 15.234 1.509 7.443 0 13.19-1.07 15.236-1.51.254 1.282.072 2.6-.53 3.782z" id="path3168"/><path d="M246.583 47.679a.839.839 0 0 0 1.01-.607l1.18-4.715 1.464 2.441c.301.505 1.128.505 1.43 0l1.464-2.441 1.18 4.715a.832.832 0 1 0 1.615-.404l-1.666-6.667a.833.833 0 0 0-1.523-.226l-1.785 2.976-1.786-2.976a.831.831 0 1 0-1.523.226l-1.666 6.667a.833.833 0 0 0 .606 1.011z" id="path3170"/><path id="path3290" d="M242.501 56.774c-4.222-.891-5.89-2.17-6.53-5.01-.433-1.92-.136-2.04 3.46-1.4 4.537.805 18.569.808 23.02.004 1.793-.325 3.4-.507 3.57-.406.417.247-.058 2.349-.834 3.686-.904 1.56-2.525 2.416-5.886 3.106-3.697.76-13.243.771-16.8.02z" opacity="1" fill-rule="nonzero" stroke-linejoin="round"/></g><path d="M245.73 49.023c-2.24-.13-2.361-.19-2.974-1.474-.86-1.802-.817-4.83.091-6.603 3.192-6.224 12.996-6.224 16.188 0 .902 1.759.952 4.798.11 6.566l-.621 1.301-3.467.246c-3.394.241-4.599.237-9.328-.036zm2.508-3.827l.593-2.383.867 1.328c.477.73 1.036 1.328 1.243 1.328.207 0 .767-.598 1.243-1.328l.867-1.328.593 2.383c.483 1.94.751 2.406 1.44 2.506.7.101.843-.062.838-.96-.007-1.146-1.247-6.263-1.693-6.984-.497-.804-1.395-.427-2.188.916-.435.738-.904 1.34-1.042 1.338-.137-.003-.647-.618-1.132-1.368-1.357-2.093-2.041-1.65-3.019 1.952-.457 1.686-.845 3.552-.863 4.147-.026.903.108 1.061.814.959.688-.1.956-.567 1.439-2.506z" id="path3297" opacity="1" fill="#fff" fill-rule="nonzero" stroke="#000" stroke-linejoin="round"/></g><g id="g4192"><g id="g4166" transform="translate(-2 -8)"><g id="g4443" transform="translate(115.93 22.753)"><g id="g259"><path id="path257" d="M49.335 102.6h-.182c-1.518-.016-2.945-.231-4.017-.606-1.188-.415-1.816-.979-1.816-1.63 0-2.608 1.88-4.864 4.57-5.486l.42-.098-.062.461a.211.211 0 0 0 .048.163.211.211 0 0 0 .153.077l1.918.104a.216.216 0 0 0 .223-.184l.075-.559.328.089a6.085 6.085 0 0 1 3.117 1.996 5.383 5.383 0 0 1 1.24 3.437c0 .596-.645 1.159-1.817 1.584-1.112.404-2.543.635-4.03.652zm0-.596l.16-.001c3.262-.036 5.258-1.082 5.258-1.64 0-2.135-1.463-4.05-3.598-4.761a.816.816 0 0 1-.82.579l-1.918-.105a.812.812 0 0 1-.718-.532c-2.243.659-3.783 2.597-3.783 4.82 0 .353.543.762 1.417 1.067 1.012.354 2.371.557 3.828.572z" class="st6" fill="#11083a"/></g><g id="g263"><path id="path261" d="M55.337 100.305v1.417c0 .992-2.687 2.036-6.002 2.036-3.316 0-6.003-.916-6.003-2.036v-1.354s.535 1.892 5.826 1.933l.177.001h.165c5.326-.04 5.837-1.997 5.837-1.997z" class="st6" fill="#11083a"/></g></g><path id="path4156" d="M161.265 123.927c-1.371-.596-1.526-1.227-.696-2.832.921-1.783 1.582-2.083 4.68-2.131 2.825-.044 2.929-.012 4.014 1.224 1.554 1.77 1.48 3.046-.217 3.755-1.685.704-6.145.695-7.78-.016z" opacity="1" fill="#ccc" fill-opacity="1" fill-rule="nonzero" stroke="#000" stroke-width="0" stroke-linejoin="round" stroke-miterlimit="4" stroke-dasharray="none" stroke-opacity="1"/></g><g id="g4176" transform="translate(-82.45 6)"><g id="g4449" transform="translate(204.167 8.803)"><g id="g297"><path id="path295" d="M63.299 102.6c-.915 0-1.802-.08-2.639-.237-1.632-.306-3.376-.992-3.376-2 0-.443.055-.885.164-1.315.502-1.98 2.109-3.557 4.193-4.118l.327-.088.075.558c.015.11.113.19.224.185l1.917-.104a.21.21 0 0 0 .153-.077.212.212 0 0 0 .048-.164l-.062-.46.42.097c2.691.623 4.57 2.879 4.57 5.486 0 .664-.648 1.235-1.876 1.652a1.811 1.811 0 0 1-.057.019c-1.1.365-2.55.566-4.081.566zm-1.82-6.998c-1.721.572-3.03 1.924-3.453 3.593a4.767 4.767 0 0 0-.146 1.169c0 .361.897 1.039 2.89 1.413.8.15 1.651.227 2.529.227 1.468 0 2.852-.19 3.898-.538l.045-.015c.911-.31 1.475-.726 1.475-1.087 0-2.223-1.539-4.161-3.782-4.82a.81.81 0 0 1-.718.533l-1.917.104a.815.815 0 0 1-.821-.58z" class="st6" fill="#11083a"/></g><g id="g329"><path id="path327" d="M69.312 100.318v1.354c0 1.12-2.693 2.036-6.015 2.036-3.322 0-6.014-1.044-6.014-2.036v-1.416s.345 1.321 3.432 1.814a16.45 16.45 0 0 0 2.582.182c1.825 0 3.103-.215 3.994-.503.017-.006.034-.01.05-.017 1.732-.572 1.971-1.414 1.971-1.414z" class="st6" fill="#11083a"/></g></g><path id="path4168" d="M264.369 110.26c-.739-.225-1.544-.575-1.79-.778-1.256-1.036 1.823-5.352 3.267-4.58.416.224 1.271.233 2.192.026 1.677-.379 2.802.112 3.766 1.641 1.082 1.715 1.107 2.5.103 3.158-1.17.766-5.714 1.087-7.538.533z" opacity="1" fill="#ccc" fill-opacity="1" fill-rule="nonzero" stroke="#000" stroke-width="0" stroke-linejoin="round" stroke-miterlimit="4" stroke-dasharray="none" stroke-opacity="1"/></g></g><g id="g4320"><g id="g4278" transform="matrix(.21667 0 0 .21667 115.92 60.305)"><g transform="matrix(-4.85954 0 0 4.85954 514.61 -259.937)" id="g2424"><path class="st6" d="M78.41 80.86h-4.19a.992.992 0 0 1-.933-1.325l.96-2.687a1 1 0 0 1 .939-.66h2.15a.999.999 0 0 1 .925.626l1.071 2.688a.991.991 0 0 1-.921 1.359zm-3.224-4.076a.401.401 0 0 0-.377.265l-.96 2.687a.39.39 0 0 0 .048.36.39.39 0 0 0 .323.168h4.19a.39.39 0 0 0 .327-.173.39.39 0 0 0 .04-.369l-1.07-2.686a.401.401 0 0 0-.371-.252z" id="path2422" fill="#11083a"/></g><g transform="matrix(-4.85954 0 0 4.85954 514.61 -259.937)" id="g2428"><path class="st6" d="M77.627 84.042h-1.989v-3.778h1.989zm-1.392-.597h.795v-2.584h-.795z" id="path2426" fill="#11083a"/></g><g transform="matrix(-4.85954 0 0 4.85954 514.61 -259.937)" id="g2432"><path class="st6" d="M78.882 83.215H77.08v-2.951h1.802zm-1.206-.596h.61V80.86h-.61z" id="path2430" fill="#11083a"/></g><g transform="matrix(-4.85954 0 0 4.85954 514.61 -259.937)" id="g2436"><path class="st6" d="M75.353 82.9H73.55v-2.636h1.803zm-1.206-.596h.61V80.86h-.61z" id="path2434" fill="#11083a"/></g><path id="path4242" d="M132.505 129.05c0-.492 1.35-4.268 2.999-8.39 2.528-6.32 3.84-7.495 8.364-7.495 4.404 0 5.87 1.21 8.187 6.753 1.552 3.714 2.821 7.49 2.821 8.39 0 .9-5.033 1.636-11.185 1.636-6.153 0-11.186-.402-11.186-.895z" opacity="1" fill="#e6e6e6" fill-opacity="1" fill-rule="nonzero" stroke="#000" stroke-width="0" stroke-linejoin="round" stroke-miterlimit="4" stroke-dasharray="none" stroke-opacity="1"/><path id="path4252" d="M134.314 137.35v-4.027H137v8.056h-2.686z" opacity="1" fill="#e6e6e6" fill-opacity="1" fill-rule="nonzero" stroke="#000" stroke-width="0" stroke-linejoin="round" stroke-miterlimit="4" stroke-dasharray="none" stroke-opacity="1"/><path id="path4254" d="M140.453 139.27v-5.947h3.452v11.893h-3.452z" opacity="1" fill="#e6e6e6" fill-opacity="1" fill-rule="nonzero" stroke="#000" stroke-width="0" stroke-linejoin="round" stroke-miterlimit="4" stroke-dasharray="none" stroke-opacity="1"/><path id="path4256" d="M151.578 136.584v-3.261h2.686v6.522h-2.686z" opacity="1" fill="#e6e6e6" fill-opacity="1" fill-rule="nonzero" stroke="#000" stroke-width="0" stroke-linejoin="round" stroke-miterlimit="4" stroke-dasharray="none" stroke-opacity="1"/></g><g id="g4292" transform="matrix(.21667 0 0 .21667 152.083 61.605)"><g transform="translate(-148.947 -265.932) scale(4.85954)" id="g209"><path class="st6" d="M78.41 80.86h-4.19a.992.992 0 0 1-.933-1.325l.96-2.687a1 1 0 0 1 .939-.66h2.15a.999.999 0 0 1 .925.626l1.071 2.688a.991.991 0 0 1-.921 1.359zm-3.224-4.076a.401.401 0 0 0-.377.265l-.96 2.687a.39.39 0 0 0 .048.36.39.39 0 0 0 .323.168h4.19a.39.39 0 0 0 .327-.173.39.39 0 0 0 .04-.369l-1.07-2.686a.401.401 0 0 0-.371-.252z" id="path207" fill="#11083a"/></g><g transform="translate(-148.947 -265.932) scale(4.85954)" id="g213"><path class="st6" d="M77.627 84.042h-1.989v-3.778h1.989zm-1.392-.597h.795v-2.584h-.795z" id="path211" fill="#11083a"/></g><g transform="translate(-148.947 -265.932) scale(4.85954)" id="g217"><path class="st6" d="M78.882 83.215H77.08v-2.951h1.802zm-1.206-.596h.61V80.86h-.61z" id="path215" fill="#11083a"/></g><g transform="translate(-148.947 -265.932) scale(4.85954)" id="g221"><path class="st6" d="M75.353 82.9H73.55v-2.636h1.803zm-1.206-.596h.61V80.86h-.61z" id="path219" fill="#11083a"/></g><path id="path4248" d="M210.32 123.03c0-.492 1.35-4.267 2.999-8.39 2.529-6.319 3.84-7.494 8.364-7.494 4.405 0 5.871 1.21 8.187 6.753 1.552 3.714 2.822 7.489 2.822 8.389 0 .9-5.034 1.637-11.186 1.637s-11.186-.403-11.186-.895z" opacity="1" fill="#e6e6e6" fill-opacity="1" fill-rule="nonzero" stroke="#000" stroke-width="0" stroke-linejoin="round" stroke-miterlimit="4" stroke-dasharray="none" stroke-opacity="1"/><path id="path4258" d="M211.426 130.445v-3.26h2.686v6.521h-2.686z" opacity="1" fill="#e6e6e6" fill-opacity="1" fill-rule="nonzero" stroke="#000" stroke-width="0" stroke-linejoin="round" stroke-miterlimit="4" stroke-dasharray="none" stroke-opacity="1"/><path id="path4260" d="M228.69 131.213v-4.029h2.685V135.241h-2.685z" opacity="1" fill="#e6e6e6" fill-opacity="1" fill-rule="nonzero" stroke="#000" stroke-width="0" stroke-linejoin="round" stroke-miterlimit="4" stroke-dasharray="none" stroke-opacity="1"/><path id="path4264" d="M221.784 133.323v-6.139H225.237V139.461H221.784z" opacity="1" fill="#e6e6e6" fill-opacity="1" fill-rule="nonzero" stroke="#000" stroke-width="0" stroke-linejoin="round" stroke-miterlimit="4" stroke-dasharray="none" stroke-opacity="1"/></g></g><g id="g3310" fill-opacity="1"><path d="M203.388 85.72s-1.366 1.64-3.901 2.098c-.985.176-2.144.175-3.468-.168l-1.095-3.955-.508-1.836-5.97-21.577v32.652s-3.457 3.651-14.14 3.85a45.968 45.968 0 0 1-1.837 0c-4.444-.082-7.64-.762-9.854-1.53-3.108-1.075-4.287-2.32-4.287-2.32V60.282l-5.97 21.577-.508 1.836-1.094 3.955c-2.176.565-3.908.203-5.143-.352-1.456-.654-2.225-1.578-2.225-1.578.062-1.355.154-2.697.274-4.024a91.22 91.22 0 0 1 .236-2.303c1.88-16.474 7.56-29.637 7.56-29.637 4.16-4.16 10.65-6.5 10.803-6.556l.003-.001h22.249s.453.162 1.197.475c2.095.883 6.5 2.974 9.608 6.082 0 0 5.68 13.162 7.56 29.636.088.76.166 1.529.236 2.302.12 1.326.213 2.67.274 4.026zm0 0" id="path1246" fill="#e52521" stroke-width=".117"/><path d="M191.94 106.812l-1.676-45.558a2.3 2.3 0 0 0-.375-1.191c-2.53-3.775-4.045-8.315-4.382-13.13l-.127-1.799c-.075-1.062-.82-1.86-1.714-1.86h-5.093c-.95 0-1.72.878-1.72 2.01v8.108h-4.93v-8.107c0-1.133-.77-2.01-1.719-2.01h-4.978c-.895 0-1.64.797-1.714 1.86l-.127 1.808c-.337 4.816-1.852 9.351-4.383 13.126-.227.34-.359.754-.374 1.188l-1.677 45.556c-.062 1.693.444 3.32 1.427 4.544.982 1.224 2.306 1.917 3.727 1.917h5.586c2.537 0 4.731-2.277 5.103-5.27l1.613-12.998 1.538 12.964c.358 3.015 2.554 5.304 5.108 5.304h5.734c1.42 0 2.744-.694 3.727-1.918.982-1.224 1.489-2.851 1.427-4.544z" id="path1430" fill="#049cd8" stroke-width=".125"/><circle id="path3029" cx="180.918" cy="47.931" r="1.918" opacity="1" fill="#fbd000" fill-rule="nonzero" stroke="#00004b" stroke-width="0" stroke-linejoin="round" stroke-miterlimit="4" stroke-dasharray="none" stroke-opacity="1"/><circle id="path3051" cx="167.335" cy="47.931" r="1.918" opacity="1" fill="#fbd000" fill-rule="nonzero" stroke="#00004b" stroke-width="0" stroke-linejoin="round" stroke-miterlimit="4" stroke-dasharray="none" stroke-opacity="1"/></g></g><g id="g4742" transform="matrix(.03058 0 0 .03058 14.196 44.128)"><path id="path4573" d="M328.859 295.5h-24.098c-18.027 0-32.846 13.723-34.587 31.292h-27.346c-1.741-17.569-16.56-31.292-34.587-31.292h-24.098a8.142 8.142 0 0 0-8.142 8.142v11.098c0 19.198 15.563 34.76 34.76 34.76H302.241c19.198 0 34.76-15.563 34.76-34.76v-11.098a8.142 8.142 0 0 0-8.142-8.142z" fill="#b2d66c"/><g id="g4579" fill="#8fd650"><path id="path4575" d="M321.597 295.5h-16.836c-18.027 0-32.846 13.723-34.587 31.292h16.835c1.741-17.569 16.561-31.292 34.588-31.292z"/><path id="path4577" d="M192.837 314.74v-11.098a8.142 8.142 0 0 1 8.142-8.142h-16.835a8.142 8.142 0 0 0-8.142 8.142v11.098c0 19.198 15.563 34.76 34.76 34.76h16.835c-19.198 0-34.76-15.562-34.76-34.76z"/></g><path id="rect4581" fill="#f8d46e" d="M241.751 204.61h28v173.78h-28z"/><path id="path4583" d="M255.751 204.61h-14v173.781h14V254.512l.25.003c4.64 0 9.225-.231 13.75-.669V204.61z" fill="#f7c852"/><path id="rect4585" fill="#4ace99" d="M168.001 386h178v118.5h-178z"/><path id="path4587" d="M271.737 423.764h74.264V386h-178v118.5h23c0-44.589 36.147-80.736 80.736-80.736z" fill="#38c689"/><path id="path4589" d="M397.001 53.47V92.5c0 38.94-15.78 74.18-41.3 99.7-25.52 25.52-60.76 41.3-99.7 41.3-77.87 0-141-63.13-141-141V53.47l132.74 87.55c2.51 1.65 5.38 2.48 8.26 2.48s5.75-.83 8.26-2.48z" fill="#fe4583"/><path id="path4591" d="M157.335 92.5V81.392L115.001 53.47V92.5c0 77.87 63.13 141 141 141 7.195 0 14.263-.542 21.168-1.582C209.34 221.706 157.335 163.176 157.335 92.5z" fill="#fc3268"/><path id="path4593" d="M194.001 174.5c0 14.12-5.98 26.83-15.53 35.78-27.59-18.19-48.41-45.81-57.86-78.28h.01c7.18-4.13 15.5-6.5 24.38-6.5 27.06 0 49 21.94 49 49z" fill="#ede6f5"/><path id="path4595" d="M178.471 210.28c7.081-6.636 12.193-15.343 14.365-25.156-14.183-16.108-24.763-35.317-30.493-56.455a48.558 48.558 0 0 0-5.028-1.606l-.284-.069a51.357 51.357 0 0 0-3.197-.683l-.16-.029a52.413 52.413 0 0 0-8.814-.776 48.73 48.73 0 0 0-24.238 6.495h-.01c9.449 32.469 30.269 60.089 57.859 78.279z" fill="#e0d3f2"/><g id="g4607" fill="#ede6f5"><path id="path4597" d="M391.661 131.06c-6.65 23.44-19.2 44.38-35.96 61.14a142.202 142.202 0 0 1-20.98 17.3c-9.08-8.9-14.72-21.29-14.72-35 0-27.06 21.94-49 49-49 8.18 0 15.88 2.01 22.66 5.56z"/><circle id="circle4599" r="23" cy="188.5" cx="257.001"/><path id="path4601" d="M386.301 24.59L353.707 9.245c-1.675-.789-3.584.497-3.484 2.345l1.919 35.531.328 2.805 35.301-22.813z"/><path id="path4603" d="M351.371 47.62l-32.664-15.376c-1.675-.788-3.584.497-3.484 2.345l1.929 35.61 1.772 2.432 33.267-23.261z"/><path id="path4605" d="M283.707 55.245c-1.675-.789-3.584.497-3.485 2.345l1.929 35.69 1.171 1.707 32.258-21.071.871-3.256z"/></g><g id="g4615" fill="#e0d3f2"><path id="path4609" d="M361.02 12.688l-7.314-3.443c-1.675-.789-3.584.497-3.484 2.345l1.919 35.531.328 2.805 10.206-6.595z"/><path id="path4611" d="M326.021 35.688l-7.314-3.443c-1.675-.788-3.584.497-3.484 2.345l1.929 35.61 1.772 2.432 8.767-6.13z"/><path id="path4613" d="M291.021 58.688l-7.314-3.443c-1.675-.789-3.584.497-3.485 2.345l1.929 35.69 1.171 1.707 9.331-6.095z"/></g><g id="g4623" fill="#ede6f5"><path id="path4617" d="M230.106 55.245L196.622 71.01l-2.579 2.578 36.998 22.173.48-1.251.08-.12 1.989-36.8c.101-1.848-1.809-3.134-3.484-2.345z"/><path id="path4619" d="M195.106 32.245L161.622 48.01l-3.961 3.961 37.805 21.791 1.136-2.372.02-.38 1.969-36.42c.1-1.848-1.81-3.134-3.485-2.345z"/><path id="path4621" d="M160.106 9.245L126.342 25.14l-3.303 3.303 36.246 23.286 2.317-3.339.02-.38 1.969-36.42c.1-1.848-1.81-3.134-3.485-2.345z"/></g><g id="g4631" fill="#e0d3f2"><path id="path4625" d="M232.869 70.953l.722-13.363c.1-1.848-1.81-3.134-3.484-2.345L196.622 71.01l-2.579 2.578 14.619 8.761z"/><path id="path4627" d="M172.014 60.125l25.854-12.173.722-13.363c.1-1.848-1.81-3.134-3.484-2.345L161.622 48.01l-3.961 3.961 14.278 8.23z"/><path id="path4629" d="M162.868 24.952l.722-13.363c.1-1.848-1.81-3.134-3.484-2.345L126.342 25.14l-3.303 3.303 13.708 8.807z"/></g><g id="g4639" fill="#fecf54"><path id="polygon4633" d="M352.141 47.12l.05.89-.82-.39z"/><path id="polygon4635" d="M317.151 70.2l.04.81-.74-.35z"/><path id="path4637" d="M409.521 27.24c4.56 6.92 2.65 16.22-4.26 20.78l-141 93a15.014 15.014 0 0 1-8.26 2.48c-2.88 0-5.75-.83-8.26-2.48l-141-93c-6.91-4.56-8.82-13.86-4.26-20.78 4.56-6.92 13.86-8.82 20.78-4.26l3.27 2.16 35.26 23.25 34.96 23.06 34.96 23.06 24.29 16.02 26.15-17.25 34.3-22.62.74.35-.04-.81 34.22-22.58.82.39-.05-.89 34.16-22.53 2.44-1.61c6.92-4.56 16.22-2.65 20.78 4.26z"/></g><path id="path4641" d="M260.9 128.401c2.88 0 5.75-.83 8.26-2.48l141-93a14.96 14.96 0 0 0 1.383-1.041 14.96 14.96 0 0 0-2.021-4.641c-4.56-6.91-13.86-8.82-20.78-4.26l-2.44 1.61-34.16 22.53.05.89-.82-.39L317.151 70.2l.04.81-.74-.35-34.3 22.62-26.15 17.25-24.29-16.02-34.96-23.06-34.96-23.06-35.26-23.25-3.27-2.16c-5.677-3.741-12.951-3.127-17.901 1.032.875 3.527 3.009 6.751 6.279 8.909l141 93a15.02 15.02 0 0 0 8.261 2.48z" fill="#f7c852"/><path id="path4643" d="M365.001 363.05v28.9c0 7.48-6.07 13.55-13.55 13.55H162.551c-7.48 0-13.55-6.07-13.55-13.55v-28.9c0-7.48 6.07-13.55 13.55-13.55h188.9c7.48 0 13.55 6.07 13.55 13.55z" fill="#17c178"/><path id="path4645" d="M196.001 386c-10.493 0-19-8.507-19-19v-17.5h-14.45c-7.483 0-13.55 6.067-13.55 13.55v28.9c0 7.483 6.067 13.55 13.55 13.55H351.451c7.483 0 13.55-6.067 13.55-13.55V386z" fill="#00b764"/><path id="path4647" d="M415.783 23.112c-6.588-9.988-19.828-13.01-30.055-7.081L353.195.714a7.502 7.502 0 0 0-10.684 7.19l1.512 27.97-25.829-12.161a7.5 7.5 0 0 0-10.684 7.19l1.512 27.97-25.829-12.161a7.5 7.5 0 0 0-10.684 7.19l1.919 35.486-18.427 12.159-16.498-10.882 1.988-36.76a7.498 7.498 0 0 0-10.684-7.19l-25.829 12.161 1.512-27.97a7.498 7.498 0 0 0-10.684-7.19l-25.829 12.161 1.512-27.97a7.498 7.498 0 0 0-10.684-7.19L127.134 16.57c-4.966-3.185-10.864-4.299-16.656-3.109a22.351 22.351 0 0 0-14.261 9.654 22.348 22.348 0 0 0-3.259 16.91 22.353 22.353 0 0 0 9.652 14.261l4.889 3.224V92.5c0 74.928 55.784 137.062 128 147.078v58.427c-7.363-6.234-16.877-10.005-27.26-10.005h-32.238a7.5 7.5 0 0 0-7.5 7.5v19.238c0 10.388 3.784 19.897 10.027 27.262H162.55c-11.606 0-21.049 9.443-21.049 21.049v28.901c0 10.915 8.352 19.912 19 20.946V497h-33a7.5 7.5 0 0 0-7.5 7.5 7.5 7.5 0 0 0 7.5 7.5h258a7.5 7.5 0 0 0 7.5-7.5 7.5 7.5 0 0 0-7.5-7.5h-32v-84.104c10.648-1.034 19-10.031 19-20.946v-28.901c0-11.606-9.442-21.049-21.049-21.049h-15.967c6.238-7.365 10.016-16.876 10.016-27.262V295.5a7.5 7.5 0 0 0-7.5-7.5h-32.238c-10.382 0-19.896 3.771-27.262 10.005V287a7.5 7.5 0 0 0-7.5-7.5 7.5 7.5 0 0 0-7.5 7.5v55h-13V240.888c1.826.067 3.658.112 5.5.112 2.515 0 5.015-.064 7.5-.189V257a7.5 7.5 0 0 0 7.5 7.5 7.5 7.5 0 0 0 7.5-7.5v-17.702c71.245-10.875 126-72.562 126-146.798V57.507l4.888-3.224a22.347 22.347 0 0 0 9.653-14.261 22.348 22.348 0 0 0-3.259-16.91zM175.501 497v-84h163v84zm182-133.951v28.901a6.056 6.056 0 0 1-6.049 6.049H162.55a6.056 6.056 0 0 1-6.049-6.049v-28.901A6.056 6.056 0 0 1 162.55 357h188.902a6.056 6.056 0 0 1 6.049 6.049zm-79-32.787c0-15.032 12.23-27.262 27.262-27.262h24.738v11.738c0 15.032-12.229 27.262-27.262 27.262h-24.738zM210.763 342c-15.032 0-27.262-12.229-27.262-27.262V303h24.738c15.032 0 27.262 12.229 27.262 27.262V342zM371.018 25.685l-12.091 7.975-.758-14.025zM336.093 48.72l-12.162 8.022-.763-14.107zm-47.925 16.915l13 6.121-12.233 8.069zm-63.17 15.463l-13.331-8.793 14.167-6.67zm-34.996-23.082l-13.26-8.746 14.092-6.635zm-34.995-23.083l-13.189-8.699 14.016-6.599zm-25.251 100.988a41.494 41.494 0 0 1 15.245-2.92c22.883 0 41.5 18.617 41.5 41.5 0 9.564-3.185 18.554-9.058 25.868-21.856-15.962-38.699-38.389-47.687-64.448zm206.074 63.52c-5.407-7.151-8.329-15.811-8.329-24.94 0-22.883 18.617-41.5 41.5-41.5 4.658 0 9.167.77 13.478 2.259-8.758 25.836-25.225 48.147-46.649 64.181zm68.519-162.434a7.452 7.452 0 0 1-3.219 4.753l-8.315 5.484-.012.008L260.13 134.76c-2.457 1.622-5.801 1.622-8.258 0l-64.854-42.776a7.5 7.5 0 1 0-8.26 12.521l64.854 42.776A22.435 22.435 0 0 0 256.001 151c4.417 0 8.701-1.286 12.389-3.718L389.501 67.4v25.1c0 9.709-1.052 19.176-3.029 28.301-5.628-1.83-11.538-2.801-17.471-2.801-31.154 0-56.5 25.346-56.5 56.5 0 12.131 3.807 23.641 10.831 33.235-19.78 11.602-42.79 18.265-67.331 18.265-23.97 0-46.483-6.354-65.949-17.461 7.347-9.744 11.449-21.721 11.449-34.039 0-31.154-25.346-56.5-56.5-56.5-6.614 0-13.157 1.195-19.33 3.446a133.483 133.483 0 0 1-3.17-28.946V67.4l31.188 20.571a7.501 7.501 0 0 0 8.26-12.521l-51.078-33.69c-.005-.003.005.003 0 0a7.458 7.458 0 0 1-3.218-4.753 7.45 7.45 0 0 1 1.088-5.638 7.451 7.451 0 0 1 4.753-3.218 7.464 7.464 0 0 1 5.636 1.087l132.741 87.553a7.503 7.503 0 0 0 8.26 0l132.741-87.553c3.451-2.277 8.112-1.32 10.39 2.131a7.46 7.46 0 0 1 1.087 5.638z"/><path id="path4649" d="M257.001 219c16.817 0 30.5-13.682 30.5-30.5 0-16.818-13.683-30.5-30.5-30.5s-30.5 13.682-30.5 30.5c0 16.818 13.683 30.5 30.5 30.5zm0-46c8.547 0 15.5 6.953 15.5 15.5s-6.953 15.5-15.5 15.5-15.5-6.953-15.5-15.5 6.953-15.5 15.5-15.5z"/></g><g id="g5047" transform="matrix(.03058 0 0 .03058 80.62 70.103)"><path id="path4878" d="M328.859 295.5h-24.098c-18.027 0-32.846 13.723-34.587 31.292h-27.346c-1.741-17.569-16.56-31.292-34.587-31.292h-24.098a8.142 8.142 0 0 0-8.142 8.142v11.098c0 19.198 15.563 34.76 34.76 34.76H302.241c19.198 0 34.76-15.563 34.76-34.76v-11.098a8.142 8.142 0 0 0-8.142-8.142z" fill="#b2d66c"/><g id="g4884" fill="#8fd650"><path id="path4880" d="M321.597 295.5h-16.836c-18.027 0-32.846 13.723-34.587 31.292h16.835c1.741-17.569 16.561-31.292 34.588-31.292z"/><path id="path4882" d="M192.837 314.74v-11.098a8.142 8.142 0 0 1 8.142-8.142h-16.835a8.142 8.142 0 0 0-8.142 8.142v11.098c0 19.198 15.563 34.76 34.76 34.76h16.835c-19.198 0-34.76-15.562-34.76-34.76z"/></g><path id="rect4886" fill="#f8d46e" d="M241.751 204.61h28v173.78h-28z"/><path id="path4888" d="M255.751 204.61h-14v173.781h14V254.512l.25.003c4.64 0 9.225-.231 13.75-.669V204.61z" fill="#f7c852"/><path id="rect4890" fill="#4ace99" d="M168.001 386h178v118.5h-178z"/><path id="path4892" d="M271.737 423.764h74.264V386h-178v118.5h23c0-44.589 36.147-80.736 80.736-80.736z" fill="#38c689"/><path id="path4894" d="M397.001 53.47V92.5c0 38.94-15.78 74.18-41.3 99.7-25.52 25.52-60.76 41.3-99.7 41.3-77.87 0-141-63.13-141-141V53.47l132.74 87.55c2.51 1.65 5.38 2.48 8.26 2.48s5.75-.83 8.26-2.48z" fill="#fe4583"/><path id="path4896" d="M157.335 92.5V81.392L115.001 53.47V92.5c0 77.87 63.13 141 141 141 7.195 0 14.263-.542 21.168-1.582C209.34 221.706 157.335 163.176 157.335 92.5z" fill="#fc3268"/><path id="path4898" d="M194.001 174.5c0 14.12-5.98 26.83-15.53 35.78-27.59-18.19-48.41-45.81-57.86-78.28h.01c7.18-4.13 15.5-6.5 24.38-6.5 27.06 0 49 21.94 49 49z" fill="#ede6f5"/><path id="path4900" d="M178.471 210.28c7.081-6.636 12.193-15.343 14.365-25.156-14.183-16.108-24.763-35.317-30.493-56.455a48.558 48.558 0 0 0-5.028-1.606l-.284-.069a51.357 51.357 0 0 0-3.197-.683l-.16-.029a52.413 52.413 0 0 0-8.814-.776 48.73 48.73 0 0 0-24.238 6.495h-.01c9.449 32.469 30.269 60.089 57.859 78.279z" fill="#e0d3f2"/><g id="g4912" fill="#ede6f5"><path id="path4902" d="M391.661 131.06c-6.65 23.44-19.2 44.38-35.96 61.14a142.202 142.202 0 0 1-20.98 17.3c-9.08-8.9-14.72-21.29-14.72-35 0-27.06 21.94-49 49-49 8.18 0 15.88 2.01 22.66 5.56z"/><circle id="circle4904" r="23" cy="188.5" cx="257.001"/><path id="path4906" d="M386.301 24.59L353.707 9.245c-1.675-.789-3.584.497-3.484 2.345l1.919 35.531.328 2.805 35.301-22.813z"/><path id="path4908" d="M351.371 47.62l-32.664-15.376c-1.675-.788-3.584.497-3.484 2.345l1.929 35.61 1.772 2.432 33.267-23.261z"/><path id="path4910" d="M283.707 55.245c-1.675-.789-3.584.497-3.485 2.345l1.929 35.69 1.171 1.707 32.258-21.071.871-3.256z"/></g><g id="g4920" fill="#e0d3f2"><path id="path4914" d="M361.02 12.688l-7.314-3.443c-1.675-.789-3.584.497-3.484 2.345l1.919 35.531.328 2.805 10.206-6.595z"/><path id="path4916" d="M326.021 35.688l-7.314-3.443c-1.675-.788-3.584.497-3.484 2.345l1.929 35.61 1.772 2.432 8.767-6.13z"/><path id="path4918" d="M291.021 58.688l-7.314-3.443c-1.675-.789-3.584.497-3.485 2.345l1.929 35.69 1.171 1.707 9.331-6.095z"/></g><g id="g4928" fill="#ede6f5"><path id="path4922" d="M230.106 55.245L196.622 71.01l-2.579 2.578 36.998 22.173.48-1.251.08-.12 1.989-36.8c.101-1.848-1.809-3.134-3.484-2.345z"/><path id="path4924" d="M195.106 32.245L161.622 48.01l-3.961 3.961 37.805 21.791 1.136-2.372.02-.38 1.969-36.42c.1-1.848-1.81-3.134-3.485-2.345z"/><path id="path4926" d="M160.106 9.245L126.342 25.14l-3.303 3.303 36.246 23.286 2.317-3.339.02-.38 1.969-36.42c.1-1.848-1.81-3.134-3.485-2.345z"/></g><g id="g4936" fill="#e0d3f2"><path id="path4930" d="M232.869 70.953l.722-13.363c.1-1.848-1.81-3.134-3.484-2.345L196.622 71.01l-2.579 2.578 14.619 8.761z"/><path id="path4932" d="M172.014 60.125l25.854-12.173.722-13.363c.1-1.848-1.81-3.134-3.484-2.345L161.622 48.01l-3.961 3.961 14.278 8.23z"/><path id="path4934" d="M162.868 24.952l.722-13.363c.1-1.848-1.81-3.134-3.484-2.345L126.342 25.14l-3.303 3.303 13.708 8.807z"/></g><g id="g4944" fill="#fecf54"><path id="polygon4938" d="M352.191 48.01l-.82-.39.77-.5z"/><path id="polygon4940" d="M317.191 71.01l-.74-.35.7-.46z"/><path id="path4942" d="M409.521 27.24c4.56 6.92 2.65 16.22-4.26 20.78l-141 93a15.014 15.014 0 0 1-8.26 2.48c-2.88 0-5.75-.83-8.26-2.48l-141-93c-6.91-4.56-8.82-13.86-4.26-20.78 4.56-6.92 13.86-8.82 20.78-4.26l3.27 2.16 35.26 23.25 34.96 23.06 34.96 23.06 24.29 16.02 26.15-17.25 34.3-22.62.74.35-.04-.81 34.22-22.58.82.39-.05-.89 34.16-22.53 2.44-1.61c6.92-4.56 16.22-2.65 20.78 4.26z"/></g><path id="path4946" d="M260.9 128.401c2.88 0 5.75-.83 8.26-2.48l141-93a14.96 14.96 0 0 0 1.383-1.041 14.96 14.96 0 0 0-2.021-4.641c-4.56-6.91-13.86-8.82-20.78-4.26l-2.44 1.61-34.16 22.53.05.89-.82-.39L317.151 70.2l.04.81-.74-.35-34.3 22.62-26.15 17.25-24.29-16.02-34.96-23.06-34.96-23.06-35.26-23.25-3.27-2.16c-5.677-3.741-12.951-3.127-17.901 1.032.875 3.527 3.009 6.751 6.279 8.909l141 93a15.02 15.02 0 0 0 8.261 2.48z" fill="#f7c852"/><path id="path4948" d="M365.001 363.05v28.9c0 7.48-6.07 13.55-13.55 13.55H162.551c-7.48 0-13.55-6.07-13.55-13.55v-28.9c0-7.48 6.07-13.55 13.55-13.55h188.9c7.48 0 13.55 6.07 13.55 13.55z" fill="#17c178"/><path id="path4950" d="M196.001 386c-10.493 0-19-8.507-19-19v-17.5h-14.45c-7.483 0-13.55 6.067-13.55 13.55v28.9c0 7.483 6.067 13.55 13.55 13.55H351.451c7.483 0 13.55-6.067 13.55-13.55V386z" fill="#00b764"/><path id="path4952" d="M415.783 23.112c-6.588-9.988-19.828-13.01-30.055-7.081L353.195.714a7.502 7.502 0 0 0-10.684 7.19l1.512 27.97-25.829-12.161a7.5 7.5 0 0 0-10.684 7.19l1.512 27.97-25.829-12.161a7.5 7.5 0 0 0-10.684 7.19l1.919 35.486-18.427 12.159-16.498-10.882 1.988-36.76a7.498 7.498 0 0 0-10.684-7.19l-25.829 12.161 1.512-27.97a7.498 7.498 0 0 0-10.684-7.19l-25.829 12.161 1.512-27.97a7.498 7.498 0 0 0-10.684-7.19L127.134 16.57c-4.966-3.185-10.864-4.299-16.656-3.109a22.351 22.351 0 0 0-14.261 9.654 22.348 22.348 0 0 0-3.259 16.91 22.353 22.353 0 0 0 9.652 14.261l4.889 3.224V92.5c0 74.928 55.784 137.062 128 147.078v58.427c-7.363-6.234-16.877-10.005-27.26-10.005h-32.238a7.5 7.5 0 0 0-7.5 7.5v19.238c0 10.388 3.784 19.897 10.027 27.262H162.55c-11.606 0-21.049 9.443-21.049 21.049v28.901c0 10.915 8.352 19.912 19 20.946V497h-33a7.5 7.5 0 0 0-7.5 7.5 7.5 7.5 0 0 0 7.5 7.5h258a7.5 7.5 0 0 0 7.5-7.5 7.5 7.5 0 0 0-7.5-7.5h-32v-84.104c10.648-1.034 19-10.031 19-20.946v-28.901c0-11.606-9.442-21.049-21.049-21.049h-15.967c6.238-7.365 10.016-16.876 10.016-27.262V295.5a7.5 7.5 0 0 0-7.5-7.5h-32.238c-10.382 0-19.896 3.771-27.262 10.005V287a7.5 7.5 0 0 0-7.5-7.5 7.5 7.5 0 0 0-7.5 7.5v55h-13V240.888c1.826.067 3.658.112 5.5.112 2.515 0 5.015-.064 7.5-.189V257a7.5 7.5 0 0 0 7.5 7.5 7.5 7.5 0 0 0 7.5-7.5v-17.702c71.245-10.875 126-72.562 126-146.798V57.507l4.888-3.224a22.347 22.347 0 0 0 9.653-14.261 22.348 22.348 0 0 0-3.259-16.91zM175.501 497v-84h163v84zm182-133.951v28.901a6.056 6.056 0 0 1-6.049 6.049H162.55a6.056 6.056 0 0 1-6.049-6.049v-28.901A6.056 6.056 0 0 1 162.55 357h188.902a6.056 6.056 0 0 1 6.049 6.049zm-79-32.787c0-15.032 12.23-27.262 27.262-27.262h24.738v11.738c0 15.032-12.229 27.262-27.262 27.262h-24.738zM210.763 342c-15.032 0-27.262-12.229-27.262-27.262V303h24.738c15.032 0 27.262 12.229 27.262 27.262V342zM371.018 25.685l-12.091 7.975-.758-14.025zM336.093 48.72l-12.162 8.022-.763-14.107zm-47.925 16.915l13 6.121-12.233 8.069zm-63.17 15.463l-13.331-8.793 14.167-6.67zm-34.996-23.082l-13.26-8.746 14.092-6.635zm-34.995-23.083l-13.189-8.699 14.016-6.599zm-25.251 100.988a41.494 41.494 0 0 1 15.245-2.92c22.883 0 41.5 18.617 41.5 41.5 0 9.564-3.185 18.554-9.058 25.868-21.856-15.962-38.699-38.389-47.687-64.448zm206.074 63.52c-5.407-7.151-8.329-15.811-8.329-24.94 0-22.883 18.617-41.5 41.5-41.5 4.658 0 9.167.77 13.478 2.259-8.758 25.836-25.225 48.147-46.649 64.181zm68.519-162.434a7.452 7.452 0 0 1-3.219 4.753l-8.315 5.484-.012.008L260.13 134.76c-2.457 1.622-5.801 1.622-8.258 0l-64.854-42.776a7.5 7.5 0 1 0-8.26 12.521l64.854 42.776A22.435 22.435 0 0 0 256.001 151c4.417 0 8.701-1.286 12.389-3.718L389.501 67.4v25.1c0 9.709-1.052 19.176-3.029 28.301-5.628-1.83-11.538-2.801-17.471-2.801-31.154 0-56.5 25.346-56.5 56.5 0 12.131 3.807 23.641 10.831 33.235-19.78 11.602-42.79 18.265-67.331 18.265-23.97 0-46.483-6.354-65.949-17.461 7.347-9.744 11.449-21.721 11.449-34.039 0-31.154-25.346-56.5-56.5-56.5-6.614 0-13.157 1.195-19.33 3.446a133.483 133.483 0 0 1-3.17-28.946V67.4l31.188 20.571a7.501 7.501 0 0 0 8.26-12.521l-51.078-33.69c-.005-.003.005.003 0 0a7.458 7.458 0 0 1-3.218-4.753 7.45 7.45 0 0 1 1.088-5.638 7.451 7.451 0 0 1 4.753-3.218 7.464 7.464 0 0 1 5.636 1.087l132.741 87.553a7.503 7.503 0 0 0 8.26 0l132.741-87.553c3.451-2.277 8.112-1.32 10.39 2.131a7.46 7.46 0 0 1 1.087 5.638z"/><path id="path4954" d="M257.001 219c16.817 0 30.5-13.682 30.5-30.5 0-16.818-13.683-30.5-30.5-30.5s-30.5 13.682-30.5 30.5c0 16.818 13.683 30.5 30.5 30.5zm0-46c8.547 0 15.5 6.953 15.5 15.5s-6.953 15.5-15.5 15.5-15.5-6.953-15.5-15.5 6.953-15.5 15.5-15.5z"/></g></svg>