<svg id="Layer_1" data-name="Layer 1" xmlns="http://www.w3.org/2000/svg" xmlns:xlink="http://www.w3.org/1999/xlink" viewBox="0 0 594 685.98"><defs><style>.cls-1{fill:#6bd5ff;}.cls-2{fill:#f7ff7a;}.cls-3{fill:#615300;}.cls-4{fill:#6f5e00;}.cls-5{fill:#9fd700;}.cls-6{fill:#bcbec0;}.cls-7{fill:#fff;}.cls-8{fill:#ff7e57;}.cls-9{fill:#b7deff;}.cls-10{fill:#6d6e71;}.cls-11{fill:#bfbfbf;}.cls-12{fill:#0074af;}.cls-13{fill:#7f47ff;}.cls-14{fill:#97dcff;}.cls-15{fill:#00c772;}.cls-16{fill:#eaeaea;}.cls-17{fill:#231f20;}.cls-18{fill:url(#Neutral_14);}.cls-19{fill:none;stroke:#000;stroke-miterlimit:10;stroke-width:20px;opacity:0.25;isolation:isolate;}</style><linearGradient id="Neutral_14" x1="0.04" y1="342.99" x2="594.04" y2="342.99" gradientUnits="userSpaceOnUse"><stop offset="0.01" stop-color="#c3b69e"/><stop offset="0.1" stop-color="#cccdc1"/><stop offset="0.2" stop-color="#a19782"/><stop offset="0.29" stop-color="#cccdc1"/><stop offset="0.4" stop-color="#fff"/><stop offset="0.6" stop-color="#cccdc1"/><stop offset="0.8" stop-color="#a19782"/><stop offset="0.89" stop-color="#cccdc1"/><stop offset="1" stop-color="#c3b69e"/></linearGradient></defs><title>103</title><path class="cls-1" d="M524.6,175.82c-4.66-.14-9.49-1.26-12.72-3.67A138.63,138.63,0,0,0,491,159.37q-5-2.53-10.21-4.81c-1.11-.5-2.31-.9-3.39-1.46l-2.82-1.16c-15-6.08-30.23-11.73-44.8-18.82-12.25-6-23.89-13.2-36-19.42-26.1-13.39-53.11-26.53-74.27-47.37a26.73,26.73,0,0,1-3.61-4.43c-6.17-.41-12.45-.65-18.87-.65A278,278,0,0,0,265.71,63a18.6,18.6,0,0,1-4.54,5.47,98.65,98.65,0,0,1-25.44,14.92,170.61,170.61,0,0,1-17.32,5.9c-4.65,1.36-9.32,2.66-13.92,4.17-12,8-23.28,17-34.91,25.59-29.73,21.84-64.56,36-96.5,54.16a28.21,28.21,0,0,1-2.58,1.29,243.48,243.48,0,0,0-19.24,26.62l-1.8,288.8H542.8V201.14A239.7,239.7,0,0,0,524.6,175.82Z" transform="translate(-0.04)"/><rect class="cls-2" x="49.9" y="448.25" width="509.1" height="42.95" rx="17.7"/><path d="M541.34,491.68H67.65a18.21,18.21,0,0,1-18.19-18.19V466a18.21,18.21,0,0,1,18.19-18.18H541.34A18.21,18.21,0,0,1,559.52,466v7.54A18.21,18.21,0,0,1,541.34,491.68ZM67.65,448.73A17.25,17.25,0,0,0,50.42,466v7.54a17.25,17.25,0,0,0,17.23,17.23H541.34a17.25,17.25,0,0,0,17.22-17.23V466a17.25,17.25,0,0,0-17.22-17.22Z" transform="translate(-0.04)"/><path class="cls-3" d="M566.22,483.63a12.61,12.61,0,0,1-11.91,8.49H55.24a12.67,12.67,0,0,1-12.62-12.61v8.25a12.62,12.62,0,0,0,12.62,12.61H554.31a12.62,12.62,0,0,0,12.62-12.61v-8.25A12.51,12.51,0,0,1,566.22,483.63Z" transform="translate(-0.04)"/><path d="M554.31,500.85H55.24a13.11,13.11,0,0,1-13.1-13.09v-8.25h1a12.18,12.18,0,0,0,12.14,12.13H554.31a12.18,12.18,0,0,0,12.14-12.13h1v8.25A13.11,13.11,0,0,1,554.31,500.85ZM43.1,484.41v3.35a12.15,12.15,0,0,0,12.14,12.13H554.31a12.15,12.15,0,0,0,12.14-12.13v-3.35a13.1,13.1,0,0,1-12.14,8.19H55.24A13.1,13.1,0,0,1,43.1,484.41Z" transform="translate(-0.04)"/><path class="cls-4" d="M554.31,466.89H55.24a12.62,12.62,0,0,0,0,25.23H554.31a12.62,12.62,0,1,0,0-25.23Z" transform="translate(-0.04)"/><path d="M554.31,492.6H55.24a13.1,13.1,0,1,1,0-26.19H554.31a13.1,13.1,0,0,1,0,26.19ZM55.24,467.37a12.14,12.14,0,0,0,0,24.27H554.31a12.14,12.14,0,1,0,0-24.27Z" transform="translate(-0.04)"/><path class="cls-5" d="M373.17,448.25a176.78,176.78,0,0,0-285.38,0Z" transform="translate(-0.04)"/><path d="M374.12,448.73H86.85l.56-.77a177.2,177.2,0,0,1,286.14,0Zm-285.37-1H372.21a176.28,176.28,0,0,0-283.46,0Z" transform="translate(-0.04)"/><path class="cls-5" d="M523.86,448.25a251.88,251.88,0,0,0-276.77,0Z" transform="translate(-0.04)"/><path d="M525.47,448.73h-280l1.34-.88a252.36,252.36,0,0,1,277.3,0Zm-276.76-1H522.25a251.4,251.4,0,0,0-273.54,0Z" transform="translate(-0.04)"/><path class="cls-6" d="M555.16,478.52a8,8,0,0,1-7.95,8H62.34a8,8,0,0,1-8-8h0a8,8,0,0,1,8-7.95H547.21a8,8,0,0,1,7.95,7.95Z" transform="translate(-0.04)"/><path d="M547.21,487H62.34a8.43,8.43,0,0,1,0-16.86H547.21a8.43,8.43,0,0,1,0,16.86ZM62.34,471.05a7.47,7.47,0,0,0,0,14.94H547.21a7.47,7.47,0,0,0,0-14.94Z" transform="translate(-0.04)"/><path d="M67.12,479H61.35a.48.48,0,1,1,0-1h5.77a.48.48,0,0,1,0,1Z" transform="translate(-0.04)"/><path d="M530.29,479H518.71a.48.48,0,1,1,0-1h11.58a.48.48,0,1,1,0,1Zm-23.16,0H495.55a.48.48,0,0,1,0-1h11.58a.48.48,0,1,1,0,1ZM484,479H472.39a.48.48,0,1,1,0-1H484a.48.48,0,0,1,0,1Zm-23.16,0H449.23a.48.48,0,0,1,0-1h11.58a.48.48,0,1,1,0,1Zm-23.16,0H426.07a.48.48,0,1,1,0-1h11.58a.48.48,0,1,1,0,1Zm-23.16,0H402.91a.48.48,0,0,1,0-1h11.58a.48.48,0,1,1,0,1Zm-23.15,0H379.76a.48.48,0,0,1,0-1h11.58a.48.48,0,1,1,0,1Zm-23.16,0H356.6a.48.48,0,0,1,0-1h11.58a.48.48,0,1,1,0,1ZM345,479H333.44a.48.48,0,0,1,0-1H345a.48.48,0,1,1,0,1Zm-23.16,0H310.28a.48.48,0,1,1,0-1h11.58a.48.48,0,0,1,0,1Zm-23.16,0H287.12a.48.48,0,0,1,0-1H298.7a.48.48,0,1,1,0,1Zm-23.16,0H264a.48.48,0,1,1,0-1h11.58a.48.48,0,0,1,0,1Zm-23.16,0H240.81a.48.48,0,1,1,0-1h11.57a.48.48,0,1,1,0,1Zm-23.15,0H217.65a.48.48,0,0,1,0-1h11.58a.48.48,0,1,1,0,1Zm-23.16,0H194.49a.48.48,0,0,1,0-1h11.58a.48.48,0,1,1,0,1Zm-23.16,0H171.33a.48.48,0,0,1,0-1h11.58a.48.48,0,0,1,0,1Zm-23.16,0H148.17a.48.48,0,0,1,0-1h11.58a.48.48,0,0,1,0,1Zm-23.16,0H125a.48.48,0,1,1,0-1h11.58a.48.48,0,0,1,0,1Zm-23.16,0H101.86a.48.48,0,1,1,0-1h11.57a.48.48,0,1,1,0,1Zm-23.15,0H78.7a.48.48,0,1,1,0-1H90.28a.48.48,0,1,1,0,1Z" transform="translate(-0.04)"/><path d="M547.64,479h-5.77a.48.48,0,1,1,0-1h5.77a.48.48,0,0,1,0,1Z" transform="translate(-0.04)"/><path class="cls-7" d="M325.2,259.07,309.74,289.9l.36,4.42-.76,1.4-.26.47a4.09,4.09,0,0,1,2.36,1.12l.15-.53.65-2.31,1.75-3,13.19-31.87.41-1.57Z" transform="translate(-0.04)"/><path d="M311.68,298.21l-.58-.56a3.63,3.63,0,0,0-2.08-1l-.7-.09,1.29-2.36-.36-4.4,15.6-31.11,3.45-1.48-.66,2.52-13.2,31.94-1.75,3Zm-1.86-2.36a4.53,4.53,0,0,1,1.36.62l.65-2.24,1.75-3,13.15-31.81.15-.56-1.33.56L310.23,290l.36,4.42Z" transform="translate(-0.04)"/><path class="cls-7" d="M304.44,300.26a4.24,4.24,0,0,1,.14-1l-.54.14-2.33.59-3.45,0-34.19,4.52-1.57.43,2.08,1.55,34.43-2,3.64-2.53,1.6,0h.51A4.18,4.18,0,0,1,304.44,300.26Z" transform="translate(-0.04)"/><path d="M264.43,306.94l-3-2.24,2.51-.7,34.26-4.53,3.45,0,3.6-.91-.2.78a3.42,3.42,0,0,0-.13.89,3.59,3.59,0,0,0,.29,1.41l.27.65-2.67.06-3.64,2.52H299Zm-.86-1.84,1.16.86,34.12-2,3.65-2.52,1.6,0a4.79,4.79,0,0,1-.14-1.13c0-.12,0-.24,0-.36l-2.21.56-3.51,0-34.13,4.51Z" transform="translate(-0.04)"/><path class="cls-7" d="M317,306.46l-4-1.9-.83-1.36-.28-.45a4.11,4.11,0,0,1-1.72,1.33v.6l1.62,1.66,1.7,3,21,27.36,1.16,1.14.3-2.58Z" transform="translate(-0.04)"/><path d="M336,338.87,334.12,337l-21.05-27.4-1.71-3-1.71-1.75,0-1.12.31-.13a3.67,3.67,0,0,0,1.52-1.17l.42-.56,1.4,2.29,4,1.89,19.14,29.07Zm-25.37-34.39,1.56,1.62,1.7,3,21,27.3.42.4.17-1.43-18.8-28.55-4-1.89-.84-1.39a4.57,4.57,0,0,1-1.17.84Z" transform="translate(-0.04)"/><path class="cls-7" d="M310.13,304.68v-.6c-.14.06-.29.09-.44.14a3.71,3.71,0,0,1-.58.11h0a3.19,3.19,0,0,1-.53.06,4.2,4.2,0,0,1-1.55-.31v.51l-2.35,94.53h7.82Z" transform="translate(-0.04)"/><path d="M313,399.6h-8.8l2.39-96.22.64.26a3.45,3.45,0,0,0,1.73.23H309a4.64,4.64,0,0,0,.51-.11,1.9,1.9,0,0,0,.38-.12l.65-.26,0,1.21Zm-7.82-1H312l-2.33-93.92-.49.09h-.1a4.16,4.16,0,0,1-1.57-.08Z" transform="translate(-0.04)"/><path class="cls-8" d="M311.44,297.31a4.09,4.09,0,0,0-2.36-1.12,4.2,4.2,0,0,0-.51-.05,4.12,4.12,0,0,0-4,3.11,4.24,4.24,0,0,0-.14,1,4.18,4.18,0,0,0,.32,1.59,4.12,4.12,0,0,0,2.26,2.23,4.2,4.2,0,0,0,1.55.31,3.19,3.19,0,0,0,.53-.06h0a3.71,3.71,0,0,0,.58-.11c.15-.05.3-.08.44-.14a4.12,4.12,0,0,0,1.32-6.77Z" transform="translate(-0.04)"/><path d="M308.57,304.87a4.72,4.72,0,0,1-1.73-.34,4.66,4.66,0,0,1-2.52-2.49,4.53,4.53,0,0,1-.36-1.78,4.39,4.39,0,0,1,.16-1.13,4.61,4.61,0,0,1,4.45-3.48,2.5,2.5,0,0,1,.47.05h.1a4.56,4.56,0,0,1,4,4.55,4.52,4.52,0,0,1-.95,2.78,4.64,4.64,0,0,1-1.92,1.49l-.45.14a4.69,4.69,0,0,1-.69.14h-.1A2.63,2.63,0,0,1,308.57,304.87Zm0-8.25a3.63,3.63,0,0,0-3.52,2.75,3.42,3.42,0,0,0-.13.89,3.59,3.59,0,0,0,.29,1.41,3.73,3.73,0,0,0,2,2,3.45,3.45,0,0,0,1.73.23H309a4.64,4.64,0,0,0,.51-.11,1.9,1.9,0,0,0,.38-.12,3.66,3.66,0,0,0,2.28-3.37,3.63,3.63,0,0,0-3.19-3.6h-.11Z" transform="translate(-0.04)"/><path class="cls-7" d="M314.06,399.7a1.16,1.16,0,0,0-1-.58h-9a1.18,1.18,0,0,0-1,.58,1.16,1.16,0,0,0-.19.61v.47a1.19,1.19,0,0,0,1.19,1.19h9a1.19,1.19,0,0,0,1.19-1.19v-.47A1.08,1.08,0,0,0,314.06,399.7Z" transform="translate(-0.04)"/><path d="M313.07,402.45h-9a1.67,1.67,0,0,1-1.67-1.67v-.47a1.65,1.65,0,0,1,.26-.87,1.67,1.67,0,0,1,1.41-.8h9a1.64,1.64,0,0,1,1.4.8,1.61,1.61,0,0,1,.27.87v.47A1.67,1.67,0,0,1,313.07,402.45Zm-9-2.85a.7.7,0,0,0-.59.35.73.73,0,0,0-.12.36v.47a.71.71,0,0,0,.71.71h9a.71.71,0,0,0,.71-.71v-.47a.66.66,0,0,0-.13-.36.68.68,0,0,0-.58-.35Z" transform="translate(-0.04)"/><path class="cls-7" d="M223.61,294.19l8.73,26.29,2.71,2.3.36,1.23.12.41a3.34,3.34,0,0,1,2-.7l-.22-.38-.94-1.69-.7-2.68-10.6-25.58-.67-1.13Z" transform="translate(-0.04)"/><path d="M235.27,325.23l-.64-2.18-2.71-2.29-8.82-26.58,1.2-3,1.16,2,10.64,25.64.7,2.69,1.52,2.72h-.81a2.85,2.85,0,0,0-1.68.6Zm-2.52-5,2.72,2.3.34,1.17a3.59,3.59,0,0,1,.93-.34l-.85-1.56-.7-2.68L224.6,293.57l-.13-.22-.35.86Z" transform="translate(-0.04)"/><path class="cls-7" d="M235.21,329.37a3.14,3.14,0,0,1-.49-.66l-.23.39-1,1.66-2,1.94-16.85,22-.65,1.13,2.06-.29,18.4-20.7.64-3.5.88-.93.29-.3A3.24,3.24,0,0,1,235.21,329.37Z" transform="translate(-0.04)"/><path d="M213.13,356.43l1.13-2,16.88-22,2-2,1.6-2.68.41.69a3.4,3.4,0,0,0,.42.56,2.73,2.73,0,0,0,.93.61l.65.27-1.55,1.63-.64,3.5-.09.1L216.34,356Zm21.63-26.84-.92,1.51-2,1.94L215.06,355l-.13.23.92-.13L234,334.6l.64-3.51.83-.87a4.48,4.48,0,0,1-.64-.51Z" transform="translate(-0.04)"/><path class="cls-7" d="M245.83,325.78l-3.35,1.2-1.24-.3-.42-.1a3.22,3.22,0,0,1-.22,1.73l.3.29,0,0,1.86,0,2.67.74,27.46,3.6h1.31L273,331.37Z" transform="translate(-0.04)"/><path d="M272.91,333.49h0l-27.46-3.6-2.68-.74-2,0-.72-.69.13-.3a2.88,2.88,0,0,0,.19-1.49l-.1-.69,2.21.53,3.34-1.2,27.43,5.65,2,2.55Zm-31.74-5.32,1.77,0,2.67.73L273,332.53h.29l-.57-.73-26.82-5.52-3.36,1.2-1.18-.28A4,4,0,0,1,241.17,328.17Z" transform="translate(-0.04)"/><path class="cls-7" d="M238.81,330.57v-.48a2.79,2.79,0,0,1-.35.11,3.55,3.55,0,0,1-.47.09h0a3,3,0,0,1-.43,0,3.23,3.23,0,0,1-1.24-.25v.41l-1.88,75.9h6.27Z" transform="translate(-0.04)"/><path d="M241.18,406.88h-7.26l1.93-77.49.64.26a2.7,2.7,0,0,0,1.34.18,4.22,4.22,0,0,0,.48-.09,2.28,2.28,0,0,0,.31-.1l.64-.26,0,1.11Zm-6.27-1h5.29l-1.87-75.2-.29,0a3.67,3.67,0,0,1-.49.05,3.94,3.94,0,0,1-.77-.08Z" transform="translate(-0.04)"/><path class="cls-8" d="M237.51,323.72a3.34,3.34,0,0,0-2,.7,2.6,2.6,0,0,0-.32.26,3.31,3.31,0,0,0-.49,4,3.14,3.14,0,0,0,.49.66,3.24,3.24,0,0,0,1.09.72,3.29,3.29,0,0,0,2.54,0,3.21,3.21,0,0,0,1.06-.7c.1-.11.18-.22.27-.34h0a2.65,2.65,0,0,0,.26-.39c.06-.11.12-.22.17-.33a3.22,3.22,0,0,0,.22-1.73,3.25,3.25,0,0,0-3.31-2.86Z" transform="translate(-0.04)"/><path d="M237.55,330.82h0a3.74,3.74,0,0,1-1.44-.29,3.63,3.63,0,0,1-1.24-.82,3.85,3.85,0,0,1-.56-.75,3.78,3.78,0,0,1,.56-4.62,2.17,2.17,0,0,1,.29-.24,3.84,3.84,0,0,1,2.34-.86h0a3.83,3.83,0,0,1,2.74,1.1,3.85,3.85,0,0,1,.8,4.16,2.31,2.31,0,0,1-.18.35,4.41,4.41,0,0,1-.31.48,3.77,3.77,0,0,1-.31.38,4,4,0,0,1-1.21.81A4,4,0,0,1,237.55,330.82Zm0-6.62a2.87,2.87,0,0,0-1.72.6l-.09.06-.19.16a2.84,2.84,0,0,0-.42,3.45,3.4,3.4,0,0,0,.42.56,2.73,2.73,0,0,0,.93.61,2.8,2.8,0,0,0,1.07.21h0a2.85,2.85,0,0,0,1.11-.22,3.08,3.08,0,0,0,.9-.6l.17-.22a4.52,4.52,0,0,0,.28-.4l.15-.28a2.89,2.89,0,0,0-.6-3.11A2.85,2.85,0,0,0,237.55,324.2Z" transform="translate(-0.04)"/><path class="cls-7" d="M242,406.86a.92.92,0,0,0-.79-.46h-7.23a1,1,0,0,0-1,1v.37a1,1,0,0,0,1,1h7.23a1,1,0,0,0,1-1v-.37A.88.88,0,0,0,242,406.86Z" transform="translate(-0.04)"/><path d="M241.17,409.17h-7.23a1.45,1.45,0,0,1-1.44-1.44v-.37a1.49,1.49,0,0,1,1.44-1.44h7.23a1.4,1.4,0,0,1,1.2.69,1.34,1.34,0,0,1,.23.75v.37A1.44,1.44,0,0,1,241.17,409.17Zm-7.23-2.29a.47.47,0,0,0-.39.24.43.43,0,0,0-.08.24v.37a.48.48,0,0,0,.47.48h7.23a.48.48,0,0,0,.47-.48v-.37a.52.52,0,0,0-.47-.48Z" transform="translate(-0.04)"/><path class="cls-7" d="M147.43,299.06l11.45,22.84-.27,3.27.57,1,.19.34a3.09,3.09,0,0,0-1.75.83l-.11-.38-.48-1.72-1.3-2.2L146,299.47l-.31-1.16Z" transform="translate(-0.04)"/><path d="M157.38,328.29l-.8-2.82-1.26-2.15-9.8-23.66-.57-2.18,2.83,1.21,11.59,23.11-.27,3.26,1,1.88-.7.09a2.48,2.48,0,0,0-1.47.7Zm-11-29.15.05.21,9.75,23.54,1.31,2.26.4,1.42a3.65,3.65,0,0,1,.75-.35l-.52-1,.27-3.28-11.31-22.55Z" transform="translate(-0.04)"/><path class="cls-7" d="M162.8,329.57a3.08,3.08,0,0,0-.1-.75l.4.1,1.73.44,2.55,0,25.33,3.35,1.16.31-1.54,1.16-25.5-1.51-2.7-1.86-1.18,0h-.38A3.06,3.06,0,0,0,162.8,329.57Z" transform="translate(-0.04)"/><path d="M192.48,334.65l-25.82-1.52L164,331.26l-2.13-.05.27-.65a2.4,2.4,0,0,0,.2-1,2.58,2.58,0,0,0-.09-.63l-.19-.78,2.84.72,2.5,0,25.39,3.35,2.17.59ZM167,332.18l25.19,1.49.61-.46-.21-.06-25.26-3.33-2.55,0-1.49-.37a.34.34,0,0,1,0,.1,3.36,3.36,0,0,1-.08.71l1.08,0Z" transform="translate(-0.04)"/><path class="cls-7" d="M153.54,334.16l3-1.4.62-1,.21-.34a3,3,0,0,0,1.27,1v.44l-1.2,1.23-1.26,2.23-15.56,20.26-.85.84-.23-1.91Z" transform="translate(-0.04)"/><path d="M139.35,358.43l-.36-3.05,14.22-21.6,3-1.4,1.11-1.82.43.56a2.53,2.53,0,0,0,1.07.83l.31.13,0,.9-.13.2-1.16,1.18-1.23,2.18L141,356.85Zm.64-2.82.09.76.16-.16L155.75,336l1.3-2.26,1-1.06a3.93,3.93,0,0,1-.68-.47l-.56.92-3,1.41Z" transform="translate(-0.04)"/><path class="cls-7" d="M158.59,332.84v-.44l.33.1a3.15,3.15,0,0,0,.42.09h0c.13,0,.25,0,.39,0a3.09,3.09,0,0,0,1.14-.23v.38l1.74,70h-5.79Z" transform="translate(-0.04)"/><path d="M163.14,403.27h-6.78l1.78-71.57.64.25.23.07a3.13,3.13,0,0,0,.41.09l.33,0a2.45,2.45,0,0,0,1-.19l.65-.26,0,1.08Zm-5.79-1h4.8L160.43,333a3.1,3.1,0,0,1-1.05,0l-.31,0Z" transform="translate(-0.04)"/><path class="cls-8" d="M157.62,327.38a3.09,3.09,0,0,1,1.75-.83c.12,0,.25,0,.38,0a3,3,0,0,1,2.95,2.3,3.07,3.07,0,0,1-2.95,3.81c-.14,0-.26,0-.39,0h0a3.15,3.15,0,0,1-.42-.09l-.33-.1a3,3,0,0,1-1.27-1,3,3,0,0,1-.64-1.84A3.06,3.06,0,0,1,157.62,327.38Z" transform="translate(-0.04)"/><path d="M159.75,333.11a2.21,2.21,0,0,1-.37,0,3.12,3.12,0,0,1-.59-.11l-.37-.11a3.59,3.59,0,0,1-1.48-1.15,3.52,3.52,0,0,1-.73-2.13,3.52,3.52,0,0,1,3.1-3.49,2.69,2.69,0,0,1,.44-.05,3.54,3.54,0,0,1,3.42,2.68,3.48,3.48,0,0,1,.12.86,3.54,3.54,0,0,1-3.54,3.54Zm0-6.11-.25,0a2.57,2.57,0,0,0-.72,4.93l.23.07a3.13,3.13,0,0,0,.41.09l.33,0a2.45,2.45,0,0,0,1-.19,2.53,2.53,0,0,0,1.41-1.39,2.4,2.4,0,0,0,.2-1,2.62,2.62,0,0,0-2.57-2.57Z" transform="translate(-0.04)"/><path class="cls-7" d="M155.68,403.22a.85.85,0,0,1,.73-.43h6.67a.92.92,0,0,1,.88.88V404a.88.88,0,0,1-.88.89h-6.67a.88.88,0,0,1-.87-.89v-.34A.85.85,0,0,1,155.68,403.22Z" transform="translate(-0.04)"/><path d="M163.08,405.38h-6.67a1.37,1.37,0,0,1-1.36-1.37v-.34a1.37,1.37,0,0,1,.22-.71,1.33,1.33,0,0,1,1.14-.65h6.67a1.34,1.34,0,0,1,1.15.65,1.38,1.38,0,0,1,.21.71V404A1.36,1.36,0,0,1,163.08,405.38Zm-6.67-2.11a.39.39,0,0,0-.32.2.31.31,0,0,0-.07.2V404a.4.4,0,0,0,.39.41h6.67a.4.4,0,0,0,.4-.41v-.34a.31.31,0,0,0-.07-.2.4.4,0,0,0-.33-.2Z" transform="translate(-0.04)"/><path class="cls-9" d="M240.57,467.64a1.52,1.52,0,0,1,0,3h18.69v-3Z" transform="translate(-0.04)"/><path d="M259.26,471.15H240.57a.47.47,0,0,1-.48-.48.48.48,0,0,1,.48-.48,1,1,0,0,0,0-2.07.48.48,0,0,1,0-1h18.69a.47.47,0,0,1,.48.48v3A.47.47,0,0,1,259.26,471.15Zm-17-1h16.5v-2.07h-16.5a2,2,0,0,1,.29,1A2,2,0,0,1,242.28,470.19Z" transform="translate(-0.04)"/><path class="cls-9" d="M297.9,469.16a1.52,1.52,0,0,1,1.52-1.52H279.23v3h20.19A1.52,1.52,0,0,1,297.9,469.16Z" transform="translate(-0.04)"/><path d="M299.42,471.15H279.23a.47.47,0,0,1-.48-.48v-3a.47.47,0,0,1,.48-.48h20.19a.48.48,0,0,1,0,1,1,1,0,1,0,0,2.07.49.49,0,0,1,.48.48A.48.48,0,0,1,299.42,471.15Zm-19.71-1h18a1.9,1.9,0,0,1-.29-1,1.94,1.94,0,0,1,.29-1h-18Z" transform="translate(-0.04)"/><rect class="cls-9" x="259.22" y="467.64" width="19.97" height="3.03"/><path d="M279.23,471.15h-20a.48.48,0,0,1-.48-.48v-3a.48.48,0,0,1,.48-.48h20a.48.48,0,0,1,.48.48v3A.48.48,0,0,1,279.23,471.15Zm-19.49-1h19v-2.07h-19Z" transform="translate(-0.04)"/><path class="cls-7" d="M240.57,467.64h-5.29a1.52,1.52,0,1,0,0,3h5.29a1.52,1.52,0,0,0,0-3Z" transform="translate(-0.04)"/><path d="M240.57,471.15h-5.29a2,2,0,1,1,0-4h5.29a2,2,0,1,1,0,4Zm-5.29-3a1,1,0,0,0,0,2.07h5.29a1,1,0,0,0,0-2.07Z" transform="translate(-0.04)"/><path class="cls-7" d="M301.3,467.64h-1.88a1.52,1.52,0,1,0,0,3h1.88a1.52,1.52,0,1,0,0-3Z" transform="translate(-0.04)"/><path d="M301.3,471.15h-1.88a2,2,0,1,1,0-4h1.88a2,2,0,1,1,0,4Zm-1.88-3a1,1,0,1,0,0,2.07h1.88a1,1,0,1,0,0-2.07Z" transform="translate(-0.04)"/><path class="cls-8" d="M279.23,461v6.65H299.9a5.38,5.38,0,0,0-2.47-2.27l-3.2-4.38A16.31,16.31,0,0,0,279.23,461Z" transform="translate(-0.04)"/><path d="M299.9,468.12H279.23a.47.47,0,0,1-.48-.48V461a.49.49,0,0,1,.23-.42,16.43,16.43,0,0,1,7.78-1.89,16.76,16.76,0,0,1,7.69,1.88.55.55,0,0,1,.17.14l3.13,4.29a5.75,5.75,0,0,1,2.58,2.43.47.47,0,0,1,0,.47A.47.47,0,0,1,299.9,468.12Zm-20.19-1H299a5,5,0,0,0-1.76-1.34.65.65,0,0,1-.21-.16l-3.13-4.3a15.85,15.85,0,0,0-7.15-1.72,16.09,16.09,0,0,0-7.05,1.63Z" transform="translate(-0.04)"/><path class="cls-8" d="M279.23,467.64V461H262.05l-2.79-1v7.68Zm-1.52-3h0Z" transform="translate(-0.04)"/><path d="M279.23,468.12h-20a.48.48,0,0,1-.48-.48V460a.49.49,0,0,1,.21-.4.46.46,0,0,1,.44-.05l2.71,1h17.09a.49.49,0,0,1,.48.49v6.65A.48.48,0,0,1,279.23,468.12Zm-19.49-1h19v-5.69h-16.7a.51.51,0,0,1-.17,0l-2.14-.79Zm18-2.07h-2.94a.49.49,0,0,1,0-1h2.94a.49.49,0,0,1,0,1Z" transform="translate(-0.04)"/><path class="cls-8" d="M259.26,467.64V460l-17.18,2.49a10.62,10.62,0,0,0-5.28,3.23v2h22.46Z" transform="translate(-0.04)"/><path d="M259.26,468.12H236.8a.47.47,0,0,1-.48-.48v-2a.46.46,0,0,1,.11-.3A11.06,11.06,0,0,1,242,462l17.21-2.5a.47.47,0,0,1,.55.48v7.68A.47.47,0,0,1,259.26,468.12Zm-22-1h21.5v-6.65l-16.63,2.42a10.14,10.14,0,0,0-4.87,2.93Z" transform="translate(-0.04)"/><path class="cls-10" d="M292.59,470.67a5,5,0,1,1-5-5A5,5,0,0,1,292.59,470.67Z" transform="translate(-0.04)"/><path d="M287.6,476.15a5.48,5.48,0,1,1,5.47-5.48A5.49,5.49,0,0,1,287.6,476.15Zm0-10a4.51,4.51,0,1,0,4.51,4.51A4.52,4.52,0,0,0,287.6,466.16Z" transform="translate(-0.04)"/><path class="cls-7" d="M290.39,470.67a2.79,2.79,0,1,1-2.79-2.79A2.79,2.79,0,0,1,290.39,470.67Z" transform="translate(-0.04)"/><path d="M287.6,473.94a3.27,3.27,0,1,1,3.27-3.27A3.26,3.26,0,0,1,287.6,473.94Zm0-5.57a2.31,2.31,0,1,0,2.3,2.3A2.3,2.3,0,0,0,287.6,468.37Z" transform="translate(-0.04)"/><path class="cls-10" d="M254.12,470.67a5,5,0,1,1-5-5A5,5,0,0,1,254.12,470.67Z" transform="translate(-0.04)"/><path d="M249.13,476.15a5.48,5.48,0,1,1,5.47-5.48A5.48,5.48,0,0,1,249.13,476.15Zm0-10a4.51,4.51,0,1,0,4.51,4.51A4.52,4.52,0,0,0,249.13,466.16Z" transform="translate(-0.04)"/><path class="cls-7" d="M251.92,470.67a2.79,2.79,0,1,1-2.79-2.79A2.79,2.79,0,0,1,251.92,470.67Z" transform="translate(-0.04)"/><path d="M249.13,473.94a3.27,3.27,0,1,1,3.27-3.27A3.27,3.27,0,0,1,249.13,473.94Zm0-5.57a2.31,2.31,0,1,0,2.31,2.3A2.31,2.31,0,0,0,249.13,468.37Z" transform="translate(-0.04)"/><path d="M279.23,461.47H262.05a.51.51,0,0,1-.17,0l-2.78-1a.47.47,0,0,1-.31-.37.48.48,0,0,1,.16-.45l6.9-5.87a.39.39,0,0,1,.14-.08c.12-.05,3.09-1.18,9.08-1.18,1.35,0,2.76.06,4.2.18a.48.48,0,0,1,.44.48V461A.49.49,0,0,1,279.23,461.47Zm-17.09-1h16.61v-6.94c-1.26-.09-2.5-.13-3.68-.13a27.89,27.89,0,0,0-8.66,1.08l-6.21,5.28Z" transform="translate(-0.04)"/><path class="cls-10" d="M291.12,456.73l-.73-1.77a72,72,0,0,0-11.16-1.84h0V461a16.31,16.31,0,0,1,15,0Z" transform="translate(-0.04)"/><path d="M294.23,461.47a.43.43,0,0,1-.22-.06,15.93,15.93,0,0,0-7.25-1.77,15.71,15.71,0,0,0-7.29,1.76.48.48,0,0,1-.72-.41v-7.87a.51.51,0,0,1,.15-.36.46.46,0,0,1,.37-.12,71.55,71.55,0,0,1,11.23,1.86.47.47,0,0,1,.33.28l.71,1.71,3.08,4.21a.48.48,0,0,1,0,.6A.48.48,0,0,1,294.23,461.47Zm-14.52-7.83v6.56a17.13,17.13,0,0,1,7.05-1.52,16.56,16.56,0,0,1,6,1.13l-2-2.8a.31.31,0,0,1-.05-.1l-.64-1.53A71.44,71.44,0,0,0,279.71,453.64Z" transform="translate(-0.04)"/><path d="M181.63,468.68h-18.8a.48.48,0,0,1-.48-.48V456a.48.48,0,0,1,.48-.48h14.61a4.68,4.68,0,0,1,4.67,4.67v8A.48.48,0,0,1,181.63,468.68Zm-18.32-1h17.83v-7.54a3.71,3.71,0,0,0-3.7-3.71H163.31Z" transform="translate(-0.04)"/><polygon class="cls-7" points="103.66 442.26 103.66 446.63 106.79 446.63 106.79 471.81 103.66 471.81 103.66 477.86 158.32 477.86 158.32 442.26 103.66 442.26"/><path d="M158.36,478.34H103.7a.48.48,0,0,1-.48-.48v-6.05a.47.47,0,0,1,.48-.48h2.64V447.11H103.7a.48.48,0,0,1-.48-.48v-4.37a.48.48,0,0,1,.48-.48h54.66a.48.48,0,0,1,.48.48v35.6A.48.48,0,0,1,158.36,478.34Zm-54.18-1h53.7V442.74h-53.7v3.4h2.65a.49.49,0,0,1,.48.49v25.18a.49.49,0,0,1-.48.48h-2.65Z" transform="translate(-0.04)"/><rect class="cls-11" x="103.66" y="446.63" width="3.13" height="25.18"/><path d="M106.83,472.29H103.7a.48.48,0,0,1-.48-.48V446.63a.48.48,0,0,1,.48-.49h3.13a.49.49,0,0,1,.48.49v25.18A.49.49,0,0,1,106.83,472.29Zm-2.65-1h2.16V447.11h-2.16Z" transform="translate(-0.04)"/><rect class="cls-12" x="113.19" y="450.29" width="37.69" height="2.44"/><path d="M150.92,453.21H113.23a.47.47,0,0,1-.48-.48v-2.44a.47.47,0,0,1,.48-.48h37.69a.48.48,0,0,1,.48.48v2.44A.48.48,0,0,1,150.92,453.21Zm-37.21-1h36.73v-1.48H113.71Z" transform="translate(-0.04)"/><rect class="cls-12" x="113.19" y="456.77" width="37.69" height="2.44"/><path d="M150.92,459.7H113.23a.48.48,0,0,1-.48-.48v-2.45a.48.48,0,0,1,.48-.48h37.69a.49.49,0,0,1,.48.48v2.45A.49.49,0,0,1,150.92,459.7Zm-37.21-1h36.73v-1.48H113.71Z" transform="translate(-0.04)"/><rect class="cls-12" x="113.19" y="463.26" width="37.69" height="2.44"/><path d="M150.92,466.18H113.23a.47.47,0,0,1-.48-.48v-2.44a.47.47,0,0,1,.48-.48h37.69a.48.48,0,0,1,.48.48v2.44A.48.48,0,0,1,150.92,466.18Zm-37.21-1h36.73v-1.48H113.71Z" transform="translate(-0.04)"/><polygon class="cls-13" points="162.79 455.99 158.32 455.99 158.32 477.86 162.79 477.86 162.79 468.2 162.79 455.99"/><path d="M162.83,478.34h-4.47a.49.49,0,0,1-.48-.48V456a.48.48,0,0,1,.48-.48h4.47a.47.47,0,0,1,.48.48v21.87A.48.48,0,0,1,162.83,478.34Zm-4-1h3.51V456.47h-3.51Z" transform="translate(-0.04)"/><rect class="cls-13" x="162.79" y="468.2" width="18.79" height="9.65"/><path d="M181.63,478.34h-18.8a.49.49,0,0,1-.48-.48V468.2a.49.49,0,0,1,.48-.48h18.8a.49.49,0,0,1,.48.48v9.66A.49.49,0,0,1,181.63,478.34Zm-18.32-1h17.83v-8.7H163.31Z" transform="translate(-0.04)"/><path d="M166.68,470.89h-2.21a.47.47,0,0,1-.48-.48.48.48,0,0,1,.48-.48h2.21a.49.49,0,0,1,.48.48A.48.48,0,0,1,166.68,470.89Z" transform="translate(-0.04)"/><path class="cls-10" d="M176.56,477.86a6,6,0,1,1-6-6.05A6,6,0,0,1,176.56,477.86Z" transform="translate(-0.04)"/><path d="M170.52,484.39a6.53,6.53,0,1,1,6.53-6.53A6.54,6.54,0,0,1,170.52,484.39Zm0-12.1a5.57,5.57,0,1,0,5.56,5.57A5.58,5.58,0,0,0,170.52,472.29Z" transform="translate(-0.04)"/><path class="cls-7" d="M173.83,477.86a3.32,3.32,0,1,1-3.31-3.32A3.31,3.31,0,0,1,173.83,477.86Z" transform="translate(-0.04)"/><path d="M170.52,481.65a3.8,3.8,0,1,1,3.79-3.79A3.8,3.8,0,0,1,170.52,481.65Zm0-6.63a2.84,2.84,0,1,0,2.83,2.84A2.84,2.84,0,0,0,170.52,475Z" transform="translate(-0.04)"/><path class="cls-10" d="M133.18,477.86a6.05,6.05,0,1,1-6.05-6.05A6.05,6.05,0,0,1,133.18,477.86Z" transform="translate(-0.04)"/><path d="M127.13,484.39a6.53,6.53,0,1,1,6.53-6.53A6.54,6.54,0,0,1,127.13,484.39Zm0-12.1a5.57,5.57,0,1,0,5.57,5.57A5.58,5.58,0,0,0,127.13,472.29Z" transform="translate(-0.04)"/><path class="cls-7" d="M130.44,477.86a3.32,3.32,0,1,1-3.31-3.32A3.31,3.31,0,0,1,130.44,477.86Z" transform="translate(-0.04)"/><path d="M127.13,481.65a3.8,3.8,0,1,1,3.79-3.79A3.8,3.8,0,0,1,127.13,481.65Zm0-6.63a2.84,2.84,0,1,0,2.83,2.84A2.84,2.84,0,0,0,127.13,475Z" transform="translate(-0.04)"/><path class="cls-7" d="M178.05,476.2a1.66,1.66,0,0,0,1.66,1.66h2.93a1.66,1.66,0,0,0,1.66-1.66h0a1.66,1.66,0,0,0-1.66-1.66h-2.93a1.66,1.66,0,0,0-1.66,1.66Z" transform="translate(-0.04)"/><path d="M182.64,478.34h-2.93a2.14,2.14,0,0,1,0-4.28h2.93a2.14,2.14,0,1,1,0,4.28ZM179.71,475a1.18,1.18,0,1,0,0,2.36h2.93a1.18,1.18,0,1,0,0-2.36Z" transform="translate(-0.04)"/><path class="cls-7" d="M100.57,476.2a1.66,1.66,0,0,0,1.66,1.66h2.94a1.66,1.66,0,0,0,1.66-1.66h0a1.66,1.66,0,0,0-1.66-1.66h-2.94a1.66,1.66,0,0,0-1.66,1.66Z" transform="translate(-0.04)"/><path d="M105.17,478.34h-2.94a2.14,2.14,0,0,1,0-4.28h2.94a2.14,2.14,0,1,1,0,4.28ZM102.23,475a1.18,1.18,0,1,0,0,2.36h2.94a1.18,1.18,0,0,0,0-2.36Z" transform="translate(-0.04)"/><rect class="cls-14" x="385.28" y="441.8" width="4.98" height="4.81"/><rect class="cls-14" x="369.63" y="441.8" width="4.98" height="4.81"/><rect class="cls-14" x="393.11" y="441.8" width="4.98" height="4.81"/><rect class="cls-14" x="377.45" y="441.8" width="4.98" height="4.81"/><rect class="cls-14" x="408.76" y="441.8" width="4.98" height="4.81"/><rect class="cls-14" x="400.93" y="441.8" width="4.98" height="4.81"/><rect class="cls-14" x="416.58" y="441.8" width="4.98" height="4.81"/><path class="cls-7" d="M421.44,427a2.91,2.91,0,0,0-5.81,0v2h5.81Z" transform="translate(-0.04)"/><path d="M421.92,429.39h-6.77V427a3.39,3.39,0,1,1,6.77,0Zm-5.81-1H421V427a2.43,2.43,0,0,0-4.85,0Z" transform="translate(-0.04)"/><path class="cls-7" d="M365.64,430.26V448.5h60V430.26Zm9,16.35h-5V441.8h5Zm7.83,0h-5V441.8h5Zm7.82,0h-5V441.8h5Zm7.83,0h-5V441.8h5Zm7.82,0h-5V441.8h5Zm7.83,0h-5V441.8h5Zm7.83,0h-5V441.8h5Z" transform="translate(-0.04)"/><path d="M426.11,449H365.16v-19.2h60.95Zm-60-1h59V430.74h-59Zm56-.93h-5.95v-5.77h5.95Zm-5-1h4v-3.85h-4Zm-2.84,1h-5.94v-5.77h5.94Zm-5-1h4v-3.85h-4Zm-2.85,1h-5.94v-5.77h5.94Zm-5-1h4v-3.85h-4Zm-2.84,1h-5.95v-5.77h5.95Zm-5-1h4v-3.85h-4Zm-2.85,1h-5.94v-5.77h5.94Zm-5-1h4v-3.85h-4Zm-2.84,1H377v-5.77H383Zm-5-1h4v-3.85h-4Zm-2.84,1h-5.94v-5.77h5.94Zm-5-1h4v-3.85h-4Z" transform="translate(-0.04)"/><polygon class="cls-12" points="359.42 457.49 361.44 457.49 361.44 453.08 365.6 453.08 365.6 457.49 425.59 457.49 425.59 449.57 359.42 449.57 359.42 457.49"/><path d="M425.63,458h-60a.48.48,0,0,1-.48-.48v-3.93H362v3.93a.47.47,0,0,1-.48.48h-2a.48.48,0,0,1-.48-.48v-7.92a.48.48,0,0,1,.48-.48h66.17a.47.47,0,0,1,.48.48v7.92A.47.47,0,0,1,425.63,458Zm-59.51-1h59v-7H359.94v7H361v-3.93a.49.49,0,0,1,.48-.48h4.16a.48.48,0,0,1,.48.48Z" transform="translate(-0.04)"/><polygon class="cls-8" points="381.11 391.81 370.69 391.81 370.5 395.88 381.3 395.88 381.11 391.81"/><path d="M381.34,396.37h-10.8a.51.51,0,0,1-.35-.15.49.49,0,0,1-.13-.36l.19-4.07a.48.48,0,0,1,.48-.46h10.42a.48.48,0,0,1,.48.46l.19,4.07a.49.49,0,0,1-.13.36A.51.51,0,0,1,381.34,396.37Zm-10.3-1h9.8l-.15-3.1h-9.5Z" transform="translate(-0.04)"/><polygon class="cls-7" points="381.3 395.88 370.5 395.88 368.95 428.91 382.85 428.91 381.3 395.88"/><path d="M383.39,429.39h-14.9l1.59-34H381.8Zm-13.89-1h12.88l-1.5-32.06H371Z" transform="translate(-0.04)"/><polygon class="cls-7" points="407.29 395.88 396.49 395.88 394.94 428.91 408.83 428.91 407.29 395.88"/><path d="M409.38,429.39h-14.9l1.59-34h11.72Zm-13.9-1h12.89l-1.5-32.06H397Z" transform="translate(-0.04)"/><polygon class="cls-8" points="407.1 391.81 396.68 391.81 396.49 395.88 407.29 395.88 407.1 391.81"/><path d="M407.33,396.37h-10.8a.48.48,0,0,1-.48-.51l.19-4.07a.48.48,0,0,1,.48-.46h10.42a.48.48,0,0,1,.48.46l.19,4.07a.49.49,0,0,1-.13.36A.51.51,0,0,1,407.33,396.37Zm-10.3-1h9.79l-.14-3.1h-9.5Z" transform="translate(-0.04)"/><rect x="370.43" y="443.73" width="3.45" height="0.96" transform="translate(-204.16 383.22) rotate(-44)"/><rect x="378.26" y="443.73" width="3.45" height="0.96" transform="translate(-201.97 388.65) rotate(-44)"/><rect x="386.09" y="443.73" width="3.45" height="0.96" transform="translate(-199.77 394.09) rotate(-44)"/><rect x="393.91" y="443.73" width="3.45" height="0.96" transform="translate(-197.57 399.53) rotate(-44)"/><rect x="401.74" y="443.73" width="3.45" height="0.96" transform="translate(-195.38 404.96) rotate(-44)"/><rect x="409.56" y="443.73" width="3.45" height="0.96" transform="translate(-193.19 410.56) rotate(-44.02)"/><rect x="417.39" y="443.73" width="3.45" height="0.96" transform="translate(-190.99 416.03) rotate(-44.02)"/><path d="M487.78,392.79a.48.48,0,0,1-.48-.48,6.81,6.81,0,0,0-6.8-6.8H451a6.81,6.81,0,0,0-6.81,6.8.48.48,0,0,1-1,0,7.77,7.77,0,0,1,7.77-7.76H480.5a7.77,7.77,0,0,1,7.76,7.76A.47.47,0,0,1,487.78,392.79Z" transform="translate(-0.04)"/><path d="M483.61,400.83a.48.48,0,0,1-.48-.48,5.42,5.42,0,0,0-5.42-5.42h-24a5.43,5.43,0,0,0-5.43,5.42.48.48,0,0,1-.48.48.47.47,0,0,1-.48-.48,6.4,6.4,0,0,1,6.39-6.39h24a6.4,6.4,0,0,1,6.39,6.39A.48.48,0,0,1,483.61,400.83Z" transform="translate(-0.04)"/><path d="M472.21,394.93a.53.53,0,0,1-.29-.1l-13-9.58a.48.48,0,1,1,.57-.77l13,9.58a.48.48,0,0,1,.1.67A.49.49,0,0,1,472.21,394.93Z" transform="translate(-0.04)"/><path d="M459.23,394.93a.48.48,0,0,1-.28-.87l13-9.58a.48.48,0,1,1,.58.77l-13,9.58A.53.53,0,0,1,459.23,394.93Z" transform="translate(-0.04)"/><path d="M472.21,404.51a.53.53,0,0,1-.29-.1l-13-9.58a.47.47,0,0,1-.1-.67.48.48,0,0,1,.67-.1l13,9.58a.48.48,0,0,1,.1.67A.49.49,0,0,1,472.21,404.51Z" transform="translate(-0.04)"/><path d="M459.23,404.51a.48.48,0,0,1-.28-.87l13-9.58a.49.49,0,0,1,.68.1.48.48,0,0,1-.1.67l-13,9.58A.53.53,0,0,1,459.23,404.51Z" transform="translate(-0.04)"/><path d="M472.21,414.09a.46.46,0,0,1-.29-.1l-13-9.58a.47.47,0,0,1-.1-.67.48.48,0,0,1,.67-.1l13,9.58a.48.48,0,0,1,.1.67A.49.49,0,0,1,472.21,414.09Z" transform="translate(-0.04)"/><path d="M459.23,414.09a.48.48,0,0,1-.28-.87l13-9.58a.49.49,0,0,1,.68.1.48.48,0,0,1-.1.67l-13,9.58A.46.46,0,0,1,459.23,414.09Z" transform="translate(-0.04)"/><path d="M472.21,423.67a.46.46,0,0,1-.29-.1L459,414a.47.47,0,0,1-.1-.67.48.48,0,0,1,.67-.1l13,9.58a.48.48,0,0,1,.1.67A.49.49,0,0,1,472.21,423.67Z" transform="translate(-0.04)"/><path d="M459.23,423.67a.48.48,0,0,1-.28-.87l13-9.58a.49.49,0,0,1,.68.1.48.48,0,0,1-.1.67l-13,9.58A.46.46,0,0,1,459.23,423.67Z" transform="translate(-0.04)"/><path d="M456.78,429.2a.47.47,0,0,1-.41-.23.48.48,0,0,1,.15-.66l9-5.53a.48.48,0,1,1,.5.82L457,429.13A.59.59,0,0,1,456.78,429.2Z" transform="translate(-0.04)"/><path d="M453.33,436.94a.48.48,0,0,1-.28-.87l9.14-6.64a.5.5,0,0,1,.68.11.49.49,0,0,1-.11.67l-9.14,6.64A.52.52,0,0,1,453.33,436.94Z" transform="translate(-0.04)"/><path d="M478.11,436.94h-5.9a.47.47,0,0,1-.43-.27l-6.06-12.39-6.06,12.39a.46.46,0,0,1-.43.27h-5.9a.47.47,0,0,1-.4-.22.5.5,0,0,1,0-.46l5.86-13.18V384.86a.47.47,0,0,1,.12-.31l6.48-7.67a.51.51,0,0,1,.74,0l6.49,7.67a.51.51,0,0,1,.11.31v38.22l5.86,13.18a.49.49,0,0,1-.44.68Zm-5.6-1h4.86l-5.6-12.6a.43.43,0,0,1,0-.19V385l-6-7.1-6,7.1v38.15a.43.43,0,0,1,0,.19l-5.6,12.6h4.86l6.36-13a.49.49,0,0,1,.86,0Z" transform="translate(-0.04)"/><path d="M474.67,429.2a.52.52,0,0,1-.25-.07l-8.95-5.53a.48.48,0,1,1,.5-.82l8.95,5.53a.48.48,0,0,1-.25.89Z" transform="translate(-0.04)"/><path d="M478.11,436.94a.47.47,0,0,1-.28-.09l-9.15-6.64a.48.48,0,0,1-.1-.67.49.49,0,0,1,.67-.11l9.14,6.64a.48.48,0,0,1,.11.67A.49.49,0,0,1,478.11,436.94Z" transform="translate(-0.04)"/><path d="M483.61,436.94H447.83a.48.48,0,1,1,0-1h35.78a.48.48,0,1,1,0,1Z" transform="translate(-0.04)"/><path d="M440.85,387.59a.47.47,0,0,1-.48-.48,4.69,4.69,0,0,0-4.69-4.68H414.74a4.69,4.69,0,0,0-4.68,4.68.48.48,0,0,1-.48.48.47.47,0,0,1-.48-.48,5.65,5.65,0,0,1,5.64-5.64h20.94a5.65,5.65,0,0,1,5.65,5.64A.47.47,0,0,1,440.85,387.59Z" transform="translate(-0.04)"/><path d="M437.89,393.29a.48.48,0,0,1-.48-.48,3.71,3.71,0,0,0-3.7-3.71h-17a3.72,3.72,0,0,0-3.71,3.71.47.47,0,0,1-.48.48.48.48,0,0,1-.48-.48,4.68,4.68,0,0,1,4.67-4.67h17a4.68,4.68,0,0,1,4.67,4.67A.48.48,0,0,1,437.89,393.29Z" transform="translate(-0.04)"/><path d="M429.81,389.1a.47.47,0,0,1-.28-.09l-9.2-6.79a.48.48,0,0,1,.57-.77l9.2,6.79a.48.48,0,0,1-.29.86Z" transform="translate(-0.04)"/><path d="M420.61,389.1a.46.46,0,0,1-.38-.19.47.47,0,0,1,.1-.67l9.2-6.79a.47.47,0,0,1,.67.1.48.48,0,0,1-.1.67L420.9,389A.52.52,0,0,1,420.61,389.1Z" transform="translate(-0.04)"/><path d="M429.81,395.89a.47.47,0,0,1-.28-.09l-9.2-6.79a.48.48,0,1,1,.57-.77l9.2,6.79a.48.48,0,0,1-.29.86Z" transform="translate(-0.04)"/><path d="M420.61,395.89a.46.46,0,0,1-.38-.19.47.47,0,0,1,.1-.67l9.2-6.79a.47.47,0,0,1,.67.1.48.48,0,0,1-.1.67l-9.2,6.79A.52.52,0,0,1,420.61,395.89Z" transform="translate(-0.04)"/><path d="M429.81,402.68a.47.47,0,0,1-.28-.09l-9.2-6.79a.48.48,0,0,1,.57-.77l9.2,6.79a.48.48,0,0,1-.29.86Z" transform="translate(-0.04)"/><path d="M420.61,402.68a.46.46,0,0,1-.38-.19.47.47,0,0,1,.1-.67l9.2-6.79a.47.47,0,0,1,.67.1.48.48,0,0,1-.1.67l-9.2,6.79A.52.52,0,0,1,420.61,402.68Z" transform="translate(-0.04)"/><path d="M429.81,409.47a.47.47,0,0,1-.28-.09l-9.2-6.79a.48.48,0,1,1,.57-.77l9.2,6.79a.48.48,0,0,1-.29.86Z" transform="translate(-0.04)"/><path d="M420.61,409.47a.46.46,0,0,1-.38-.19.47.47,0,0,1,.1-.67l9.2-6.79a.47.47,0,0,1,.67.1.48.48,0,0,1-.1.67l-9.2,6.79A.52.52,0,0,1,420.61,409.47Z" transform="translate(-0.04)"/><path d="M418.87,413.39a.48.48,0,0,1-.25-.89l6.34-3.92a.48.48,0,0,1,.51.82l-6.34,3.92A.48.48,0,0,1,418.87,413.39Z" transform="translate(-0.04)"/><path d="M416.43,418.88a.5.5,0,0,1-.39-.2.49.49,0,0,1,.11-.67l6.48-4.7a.48.48,0,0,1,.67.1.49.49,0,0,1-.1.68l-6.48,4.7A.52.52,0,0,1,416.43,418.88Z" transform="translate(-0.04)"/><path d="M434,418.88h-4.18a.47.47,0,0,1-.43-.27l-4.17-8.52-4.16,8.52a.48.48,0,0,1-.44.27h-4.18a.47.47,0,0,1-.4-.22.48.48,0,0,1,0-.45l4.14-9.32V381.83a.47.47,0,0,1,.12-.31l4.6-5.43a.49.49,0,0,1,.73,0l4.6,5.43a.51.51,0,0,1,.11.31v27.06l4.14,9.32a.47.47,0,0,1-.44.67Zm-3.88-1h3.14l-3.88-8.73a.65.65,0,0,1,0-.2V382l-4.12-4.87L421.1,382v27a.46.46,0,0,1-.05.2l-3.88,8.73h3.14l4.47-9.14a.51.51,0,0,1,.87,0Z" transform="translate(-0.04)"/><path d="M431.55,413.39a.47.47,0,0,1-.25-.07L425,409.4a.48.48,0,0,1-.16-.66.5.5,0,0,1,.67-.16l6.34,3.92a.48.48,0,0,1-.26.89Z" transform="translate(-0.04)"/><path d="M434,418.88a.49.49,0,0,1-.28-.09l-6.48-4.7a.5.5,0,0,1-.11-.68.49.49,0,0,1,.68-.1l6.48,4.7a.48.48,0,0,1,.1.67A.47.47,0,0,1,434,418.88Z" transform="translate(-0.04)"/><path d="M437.89,418.88H412.53a.48.48,0,0,1-.48-.48.49.49,0,0,1,.48-.48h25.36a.49.49,0,0,1,.49.48A.48.48,0,0,1,437.89,418.88Z" transform="translate(-0.04)"/><path d="M365.64,392.4a.49.49,0,0,1-.48-.48,4.69,4.69,0,0,0-4.68-4.68h-21a4.69,4.69,0,0,0-4.68,4.68.48.48,0,1,1-1,0,5.65,5.65,0,0,1,5.64-5.65h21a5.65,5.65,0,0,1,5.64,5.65A.48.48,0,0,1,365.64,392.4Z" transform="translate(-0.04)"/><path d="M362.69,398.1a.48.48,0,0,1-.48-.49,3.71,3.71,0,0,0-3.71-3.7h-17a3.7,3.7,0,0,0-3.7,3.7.49.49,0,1,1-1,0,4.67,4.67,0,0,1,4.67-4.66h17a4.67,4.67,0,0,1,4.67,4.66A.49.49,0,0,1,362.69,398.1Z" transform="translate(-0.04)"/><path d="M354.6,393.91a.46.46,0,0,1-.28-.1l-9.2-6.79a.48.48,0,1,1,.57-.77l9.2,6.79a.48.48,0,0,1,.1.67A.47.47,0,0,1,354.6,393.91Z" transform="translate(-0.04)"/><path d="M345.41,393.91a.47.47,0,0,1-.39-.2.48.48,0,0,1,.1-.67l9.2-6.79a.48.48,0,1,1,.57.77l-9.2,6.79A.42.42,0,0,1,345.41,393.91Z" transform="translate(-0.04)"/><path d="M354.6,400.7a.46.46,0,0,1-.28-.1l-9.2-6.79a.48.48,0,1,1,.57-.77l9.2,6.79a.48.48,0,0,1,.1.67A.47.47,0,0,1,354.6,400.7Z" transform="translate(-0.04)"/><path d="M345.41,400.7a.47.47,0,0,1-.39-.2.48.48,0,0,1,.1-.67l9.2-6.79a.48.48,0,0,1,.57.77l-9.2,6.79A.42.42,0,0,1,345.41,400.7Z" transform="translate(-0.04)"/><path d="M354.6,407.49a.46.46,0,0,1-.28-.1l-9.2-6.79a.48.48,0,1,1,.57-.77l9.2,6.79a.48.48,0,0,1,.1.67A.47.47,0,0,1,354.6,407.49Z" transform="translate(-0.04)"/><path d="M345.41,407.49a.47.47,0,0,1-.39-.2.48.48,0,0,1,.1-.67l9.2-6.79a.48.48,0,1,1,.57.77l-9.2,6.79A.42.42,0,0,1,345.41,407.49Z" transform="translate(-0.04)"/><path d="M354.6,414.28a.51.51,0,0,1-.28-.09l-9.2-6.8a.48.48,0,1,1,.57-.77l9.2,6.79a.48.48,0,0,1,.1.67A.47.47,0,0,1,354.6,414.28Z" transform="translate(-0.04)"/><path d="M345.41,414.28a.47.47,0,0,1-.39-.2.48.48,0,0,1,.1-.67l9.2-6.79a.48.48,0,1,1,.57.77l-9.2,6.8A.47.47,0,0,1,345.41,414.28Z" transform="translate(-0.04)"/><path d="M343.67,418.2a.47.47,0,0,1-.41-.23.48.48,0,0,1,.15-.66l6.34-3.92a.49.49,0,0,1,.67.16.5.5,0,0,1-.16.66l-6.34,3.92A.59.59,0,0,1,343.67,418.2Z" transform="translate(-0.04)"/><path d="M341.23,423.69a.48.48,0,0,1-.29-.87l6.48-4.71a.5.5,0,0,1,.68.11.49.49,0,0,1-.11.67l-6.48,4.7A.46.46,0,0,1,341.23,423.69Z" transform="translate(-0.04)"/><path d="M358.79,423.69h-4.18a.49.49,0,0,1-.44-.27L350,414.89l-4.17,8.53a.49.49,0,0,1-.43.27h-4.18a.5.5,0,0,1-.41-.22.47.47,0,0,1,0-.46l4.14-9.31V386.64a.47.47,0,0,1,.11-.31l4.6-5.44a.49.49,0,0,1,.73,0l4.6,5.44a.43.43,0,0,1,.12.31V413.7l4.14,9.31a.49.49,0,0,1-.44.68Zm-3.88-1h3.14L354.17,414a.41.41,0,0,1-.05-.19v-27L350,382l-4.12,4.86v27a.58.58,0,0,1,0,.19L342,422.72h3.14l4.46-9.13a.51.51,0,0,1,.87,0Z" transform="translate(-0.04)"/><path d="M356.35,418.2a.59.59,0,0,1-.26-.07l-6.34-3.92a.48.48,0,0,1-.15-.66.48.48,0,0,1,.66-.16l6.34,3.92a.48.48,0,0,1-.25.89Z" transform="translate(-0.04)"/><path d="M358.79,423.69a.46.46,0,0,1-.29-.1l-6.48-4.7a.48.48,0,0,1,.57-.78l6.48,4.71a.49.49,0,0,1,.11.67A.5.5,0,0,1,358.79,423.69Z" transform="translate(-0.04)"/><path d="M362.69,423.69H337.32a.49.49,0,0,1,0-1h25.37a.49.49,0,0,1,0,1Z" transform="translate(-0.04)"/><path class="cls-7" d="M281.77,325.57l-1.86,15.1.81,1.78-.11.7,0,.23a1.8,1.8,0,0,1,1.15.11l0-.24-.07-1.06.29-1.49.76-15.2-.07-.71Z" transform="translate(-0.04)"/><path d="M282.25,344.27l-.73-.34a1.37,1.37,0,0,0-.85-.08L280,344l.24-1.48-.8-1.78,1.9-15.41,1.69-1.56.15,1.69-.76,15.26-.29,1.5Zm-1.84-3.68.74,1.65v-.08l.29-1.55.71-14.14Z" transform="translate(-0.04)"/><path class="cls-7" d="M279.25,345.76a1.85,1.85,0,0,1-.1-.44l-.2.13-.88.59-1.44.5-13.54,6.94-.59.41,1.09.34,14-5.94,1.14-1.58.66-.26.21-.08A1.86,1.86,0,0,1,279.25,345.76Z" transform="translate(-0.04)"/><path d="M263.62,354.74l-2.2-.68,1.39-1,13.6-7,1.44-.51,1.71-1.14.07.8a1.94,1.94,0,0,0,.07.32,1.33,1.33,0,0,0,.27.46l.48.52-1.4.53-1.13,1.58Zm14.72-8.3-.11.06-1.44.5-12.59,6.45,13.09-5.55Z" transform="translate(-0.04)"/><path class="cls-7" d="M285.36,346.48l-1.94-.19-.55-.45-.18-.14a1.89,1.89,0,0,1-.52.81l.08.21v0l.92.45,1.15,1,12.78,8.26.65.3-.25-1.12Z" transform="translate(-0.04)"/><path d="M298.45,357.61l-1.54-.72-12.84-8.29-1.16-1-1-.51-.28-.73.25-.22a1.4,1.4,0,0,0,.38-.6l.21-.67,1.17.94,1.93.19.11.09,12.29,9.27Zm-15.06-10.84.11.07,1.15,1,11.88,7.68-11.35-8.57Z" transform="translate(-0.04)"/><path class="cls-7" d="M281.65,347.1v-.27a1.06,1.06,0,0,1-.19.06l-.26.05h0a1.6,1.6,0,0,1-.23,0,1.72,1.72,0,0,1-.68-.14v.23l-1,41.7h3.44Z" transform="translate(-0.04)"/><path d="M283.18,389.24h-4.44l1.08-43.11.64.26a1.24,1.24,0,0,0,.63.08l.23,0,.14,0,.64-.26,0,.91Zm-3.45-1h2.46l-1-40.85a2.2,2.2,0,0,1-.44,0Z" transform="translate(-0.04)"/><path class="cls-8" d="M281.72,343.49a1.8,1.8,0,0,0-1.15-.11l-.22.05a1.82,1.82,0,0,0-1.1,2.33,1.86,1.86,0,0,0,.36.61,1.85,1.85,0,0,0,2,.49l.21-.1h0a1.71,1.71,0,0,0,.23-.13l.16-.12a1.89,1.89,0,0,0,.52-.81,1.84,1.84,0,0,0,0-1.16A1.8,1.8,0,0,0,281.72,343.49Z" transform="translate(-0.04)"/><path d="M281,347.45h-.1a2.28,2.28,0,0,1-1.6-.75,2.25,2.25,0,0,1-.47-.77,2.32,2.32,0,0,1-.11-.56,2.29,2.29,0,0,1,1.51-2.38,1.05,1.05,0,0,1,.24-.06,2.11,2.11,0,0,1,1.49.14,2.27,2.27,0,0,1,1.23,2.78,2.35,2.35,0,0,1-.66,1l-.21.16a1.89,1.89,0,0,1-.28.17,1.5,1.5,0,0,1-.27.12A2.19,2.19,0,0,1,281,347.45Zm0-3.63a1.53,1.53,0,0,0-.3,0l-.16,0a1.34,1.34,0,0,0-.88,1.38,1.94,1.94,0,0,0,.07.32,1.31,1.31,0,0,0,1.2.89l.06.49v-.49a1.33,1.33,0,0,0,.45-.07l.12-.06.19-.11.13-.1a1.35,1.35,0,0,0,.37-1.44,1.33,1.33,0,0,0-.7-.77A1.26,1.26,0,0,0,281,343.82Z" transform="translate(-0.04)"/><path class="cls-7" d="M283.38,389a.51.51,0,0,0-.43-.26h-4a.51.51,0,0,0-.43.26.45.45,0,0,0-.09.26v.21a.52.52,0,0,0,.52.53h4a.53.53,0,0,0,.52-.53v-.21A.45.45,0,0,0,283.38,389Z" transform="translate(-0.04)"/><path d="M283,390.5h-4a1,1,0,0,1-1-1v-.21a1,1,0,0,1,.16-.52,1,1,0,0,1,.84-.48h4a1,1,0,0,1,.84.48,1,1,0,0,1,.16.52v.21A1,1,0,0,1,283,390.5Zm-4-1.26,0,.25,4,.05a0,0,0,0,0,0-.05v-.21l-.31,0Z" transform="translate(-0.04)"/><path class="cls-7" d="M116.16,325.14,113.22,349l1.27,2.82-.18,1.1,0,.37a2.87,2.87,0,0,1,1.81.18l0-.38-.11-1.67.45-2.37,1.21-24-.1-1.13Z" transform="translate(-0.04)"/><path d="M116.6,354.26l-.73-.33a2.43,2.43,0,0,0-1.51-.15l-.69.15.32-2-1.27-2.81,3-24.19,2.18-2,.19,2.1-1.21,24.1-.45,2.37Zm-1.71-1.5a3.49,3.49,0,0,1,.65.06l-.09-1.41.46-2.43,1.2-24v-.09l-.48.45L113.71,349l1.28,2.82-.16,1Z" transform="translate(-0.04)"/><path class="cls-7" d="M112.16,357.07a2.82,2.82,0,0,1-.14-.69l-.33.21-1.39.93-2.27.8-21.42,11-.93.65,1.73.53,22.16-9.39,1.8-2.51,1-.4.33-.13A2.79,2.79,0,0,1,112.16,357.07Z" transform="translate(-0.04)"/><path d="M87.44,371l-2.84-.87,1.74-1.22,21.47-11,2.27-.8,2.34-1.56.08.8a2.3,2.3,0,0,0,.11.58,2.41,2.41,0,0,0,.49.81l.47.52-1.89.73-1.8,2.5Zm-.68-1.21.63.19,21.86-9.27,1.81-2.52.92-.35a3.15,3.15,0,0,1-.27-.59.14.14,0,0,1,0-.06l-1.23.81-2.28.79Z" transform="translate(-0.04)"/><path class="cls-7" d="M121.83,358.21l-3.07-.3-.87-.7-.29-.24a2.77,2.77,0,0,1-.82,1.28l.13.34,0,.05,1.45.72,1.83,1.57L140.42,374l1,.48-.4-1.76Z" transform="translate(-0.04)"/><path d="M142.13,375.32l-1.92-.89L120,361.33l-1.83-1.57-1.57-.77-.34-.88.25-.22a2.39,2.39,0,0,0,.69-1.06l.21-.67,1.59,1.29,3.06.3.11.08,19.35,14.6Zm-24.75-17,1.32.66,1.82,1.58,20.24,13.05-.15-.64-19-14.3-3.08-.31-.78-.62A2.9,2.9,0,0,1,117.38,358.33Z" transform="translate(-0.04)"/><path class="cls-7" d="M116,359.19v-.42l-.3.09a2.71,2.71,0,0,1-.41.09h0c-.12,0-.24,0-.37,0a2.81,2.81,0,0,1-1.08-.21v.36l-1.63,65.94h5.45Z" transform="translate(-0.04)"/><path d="M118.09,425.55h-6.44l1.68-67.48.64.25a2.25,2.25,0,0,0,1.14.16l.4-.08a1.37,1.37,0,0,0,.26-.08l.64-.25,0,1Zm-5.45-1h4.46l-1.61-65.2a.57.57,0,0,1-.18,0,2.77,2.77,0,0,1-1,0Z" transform="translate(-0.04)"/><path class="cls-8" d="M116.07,353.49a2.87,2.87,0,0,0-1.81-.18,2,2,0,0,0-.35.08,2.89,2.89,0,0,0-1.89,3,2.82,2.82,0,0,0,.14.69,2.79,2.79,0,0,0,.58,1,2.87,2.87,0,0,0,2,.94,3.17,3.17,0,0,0,1.09-.16l.33-.16h0a3.13,3.13,0,0,0,.36-.22l.25-.19a2.93,2.93,0,0,0,.8-3.11A2.86,2.86,0,0,0,116.07,353.49Z" transform="translate(-0.04)"/><path d="M114.88,359.46h-.15a3.34,3.34,0,0,1-3-2.23,3.13,3.13,0,0,1-.17-.81,3.35,3.35,0,0,1,2.2-3.48l.34-.09a3.63,3.63,0,0,1,.81-.09A3.31,3.31,0,0,1,118,355a3.41,3.41,0,0,1-.94,3.63,2.09,2.09,0,0,1-.28.22,3.78,3.78,0,0,1-.43.26,3.12,3.12,0,0,1-.39.18A3.3,3.3,0,0,1,114.88,359.46Zm0-5.74a2.46,2.46,0,0,0-.53.06l-.3.07a2.38,2.38,0,0,0-1.56,2.48,2.3,2.3,0,0,0,.11.58,2.41,2.41,0,0,0,2.16,1.59h.11a2.45,2.45,0,0,0,.8-.14,1.07,1.07,0,0,0,.22-.1,2.47,2.47,0,0,0,.35-.21,1.28,1.28,0,0,0,.21-.16,2.39,2.39,0,0,0,.69-1.06,2.43,2.43,0,0,0,0-1.53,2.39,2.39,0,0,0-1.26-1.37A2.33,2.33,0,0,0,114.89,353.72Z" transform="translate(-0.04)"/><path class="cls-7" d="M118.7,425.47a.81.81,0,0,0-.69-.4h-6.28a.88.88,0,0,0-.83.83v.33a.83.83,0,0,0,.83.83H118a.83.83,0,0,0,.83-.83v-.33A.81.81,0,0,0,118.7,425.47Z" transform="translate(-0.04)"/><path d="M118,427.54h-6.28a1.31,1.31,0,0,1-1.31-1.31v-.33a1.36,1.36,0,0,1,1.31-1.31H118a1.29,1.29,0,0,1,1.1.63,1.26,1.26,0,0,1,.21.68v.33A1.31,1.31,0,0,1,118,427.54Zm-6.28-2a.33.33,0,0,0-.28.18.32.32,0,0,0-.07.17v.33a.35.35,0,0,0,.35.35H118a.35.35,0,0,0,.35-.35v-.33a.37.37,0,0,0-.06-.17.36.36,0,0,0-.29-.18Z" transform="translate(-0.04)"/><path class="cls-7" d="M197.92,336.26l-1.48,12,.64,1.43-.09.55,0,.19a1.41,1.41,0,0,1,.91.09v-.19l-.05-.85.22-1.19.61-12.11,0-.57Z" transform="translate(-0.04)"/><path d="M198.41,351.32l-.74-.33a.9.9,0,0,0-.61-.06l-.68.14.2-1.29-.64-1.41L197.46,336l1.52-1.4.14,1.55-.61,12.18-.22,1.19Zm-1.48-3.1.44,1,.19-1,.43-8.58Z" transform="translate(-0.04)"/><path class="cls-7" d="M195.9,352.35a1.36,1.36,0,0,1-.07-.35l-.16.11-.7.47-1.15.4L183,358.51l-.47.33.87.27,11.17-4.74.91-1.26.52-.2.17-.07A1.44,1.44,0,0,1,195.9,352.35Z" transform="translate(-0.04)"/><path d="M183.46,359.62l-2-.61,1.27-.89,10.85-5.57,1.15-.4,1.49-1,.07.81a.71.71,0,0,0,.05.23,1.09,1.09,0,0,0,.19.33l.48.52-1.22.47-.9,1.25Zm11.45-6.51-.93.32-7.64,3.92,7.94-3.37Z" transform="translate(-0.04)"/><path class="cls-7" d="M200.78,352.93l-1.55-.16-.44-.35-.14-.12a1.46,1.46,0,0,1-.42.65l.07.17v0l.73.36.92.8,10.19,6.58.52.24-.21-.89Z" transform="translate(-0.04)"/><path d="M211.35,362l-1.41-.65L199.7,354.7l-.92-.79-.85-.42-.27-.68.26-.22a1,1,0,0,0,.27-.43l.22-.67,1,.82,1.54.15.11.08,9.82,7.42Zm-11.82-8.68.74.64,7.21,4.66-6.88-5.2Z" transform="translate(-0.04)"/><path class="cls-7" d="M197.82,353.42v-.21l-.15.05-.2,0h0l-.19,0a1.41,1.41,0,0,1-.54-.11v.18l-.82,33.24h2.75Z" transform="translate(-0.04)"/><path d="M199.14,387.11H195.4l.86-34.61.65.26a.89.89,0,0,0,.36.07h.13l.13,0,.65-.27.12.85Zm-2.75-1h1.76l-.8-32.36h-.16Z" transform="translate(-0.04)"/><path class="cls-8" d="M197.87,350.55a1.41,1.41,0,0,0-.91-.09l-.18,0a1.46,1.46,0,0,0-.95,1.5,1.36,1.36,0,0,0,.07.35,1.44,1.44,0,0,0,.3.49,1.4,1.4,0,0,0,1,.47,1.32,1.32,0,0,0,.55-.08l.17-.08h0a.87.87,0,0,0,.18-.11l.12-.09a1.46,1.46,0,0,0,.42-.65,1.45,1.45,0,0,0,0-.92A1.43,1.43,0,0,0,197.87,350.55Z" transform="translate(-0.04)"/><path d="M197.28,353.8h-.09a1.94,1.94,0,0,1-1.35-.62,2,2,0,0,1-.39-.66,1.85,1.85,0,0,1-.1-.46,1.92,1.92,0,0,1,1.27-2l.2-.06a1.83,1.83,0,0,1,1.25.12,1.93,1.93,0,0,1,.48,3.2l-.17.13-.23.14-.22.1A1.87,1.87,0,0,1,197.28,353.8Zm-.5-3.3.17.45a1,1,0,0,0-.64,1,.71.71,0,0,0,.05.23,1.09,1.09,0,0,0,.19.33,1,1,0,0,0,.68.31l.05.49v-.49a.89.89,0,0,0,.32-.05l.11-.06.11-.06.09-.07a.9.9,0,0,0,.28-.43.94.94,0,0,0,0-.62.94.94,0,0,0-1.12-.61Z" transform="translate(-0.04)"/><path class="cls-7" d="M199.2,386.83a.4.4,0,0,0-.35-.2h-3.16a.4.4,0,0,0-.35.2.44.44,0,0,0-.07.22v.16a.42.42,0,0,0,.42.42h3.16a.42.42,0,0,0,.42-.42v-.16A.44.44,0,0,0,199.2,386.83Z" transform="translate(-0.04)"/><path d="M198.85,388.11h-3.16a.9.9,0,0,1-.9-.9v-.16a.85.85,0,0,1,.14-.47.89.89,0,0,1,.76-.43h3.16a.89.89,0,0,1,.76.43.81.81,0,0,1,.14.47v.16A.9.9,0,0,1,198.85,388.11Zm-3.16-1,.06.1,3-.06v-.1l-.14.06Z" transform="translate(-0.04)"/><circle class="cls-2" cx="134.36" cy="405.91" r="10.58"/><path d="M134.4,417a11.07,11.07,0,1,1,11.06-11.07A11.08,11.08,0,0,1,134.4,417Zm0-21.17a10.1,10.1,0,1,0,10.1,10.1A10.12,10.12,0,0,0,134.4,395.81Z" transform="translate(-0.04)"/><path d="M134.4,426a.49.49,0,0,1-.49-.49V405.91a.49.49,0,0,1,1,0v19.56A.49.49,0,0,1,134.4,426Z" transform="translate(-0.04)"/><path d="M140,409.28h-8.66a.48.48,0,1,1,0-1H140a.48.48,0,1,1,0,1Z" transform="translate(-0.04)"/><path class="cls-2" d="M223.32,375.21a5.29,5.29,0,1,1-5.29-5.29A5.29,5.29,0,0,1,223.32,375.21Z" transform="translate(-0.04)"/><path d="M218,381a5.77,5.77,0,1,1,5.78-5.77A5.78,5.78,0,0,1,218,381Zm0-10.58a4.81,4.81,0,1,0,4.81,4.81A4.82,4.82,0,0,0,218,370.4Z" transform="translate(-0.04)"/><path d="M220.81,377.13h-4.33a.48.48,0,0,1-.48-.48.49.49,0,0,1,.48-.48h4.33a.48.48,0,0,1,.48.48A.47.47,0,0,1,220.81,377.13Z" transform="translate(-0.04)"/><path d="M218,385.47a.48.48,0,0,1-.48-.48v-9.78a.48.48,0,0,1,.48-.48.47.47,0,0,1,.48.48V385A.47.47,0,0,1,218,385.47Z" transform="translate(-0.04)"/><path class="cls-2" d="M256.51,403.83a9.29,9.29,0,1,1-9.28-9.28A9.28,9.28,0,0,1,256.51,403.83Z" transform="translate(-0.04)"/><path d="M247.23,413.6a9.77,9.77,0,1,1,9.76-9.77A9.78,9.78,0,0,1,247.23,413.6Zm0-18.57a8.8,8.8,0,1,0,8.8,8.8A8.82,8.82,0,0,0,247.23,395Z" transform="translate(-0.04)"/><path d="M252.1,406.84h-7.6a.48.48,0,0,1-.48-.48.49.49,0,0,1,.48-.48h7.6a.49.49,0,0,1,.48.48A.48.48,0,0,1,252.1,406.84Z" transform="translate(-0.04)"/><path d="M247.23,421.47a.48.48,0,0,1-.49-.48V403.83a.49.49,0,0,1,1,0V421A.48.48,0,0,1,247.23,421.47Z" transform="translate(-0.04)"/><path class="cls-2" d="M217.51,382.67a6.85,6.85,0,1,1-6.84-6.84A6.85,6.85,0,0,1,217.51,382.67Z" transform="translate(-0.04)"/><path d="M210.67,390a7.33,7.33,0,1,1,7.32-7.33A7.33,7.33,0,0,1,210.67,390Zm0-13.69a6.37,6.37,0,1,0,6.36,6.36A6.37,6.37,0,0,0,210.67,376.31Z" transform="translate(-0.04)"/><path d="M214.26,385h-5.6a.48.48,0,1,1,0-1h5.6a.48.48,0,1,1,0,1Z" transform="translate(-0.04)"/><path d="M210.67,395.81a.48.48,0,0,1-.49-.48V382.67a.49.49,0,0,1,1,0v12.66A.48.48,0,0,1,210.67,395.81Z" transform="translate(-0.04)"/><path class="cls-15" d="M334.89,419.71a7.3,7.3,0,0,1-7.3,7.31h0a7.31,7.31,0,0,1-7.31-7.31l2.09-10.47a5.21,5.21,0,0,1,5.22-5.21h0a5.21,5.21,0,0,1,5.21,5.21Z" transform="translate(-0.04)"/><path d="M327.59,427.5a7.8,7.8,0,0,1-7.79-7.79l2.1-10.56a5.69,5.69,0,0,1,11.38.09l2.08,10.38A7.8,7.8,0,0,1,327.59,427.5Zm0-23a4.74,4.74,0,0,0-4.74,4.73l-2.1,10.56a6.83,6.83,0,0,0,13.66-.09l-2.08-10.37A4.77,4.77,0,0,0,327.59,404.51Z" transform="translate(-0.04)"/><path d="M327.59,437.63a.49.49,0,0,1-.49-.48V417a.49.49,0,0,1,1,0v20.14A.49.49,0,0,1,327.59,437.63Z" transform="translate(-0.04)"/><path d="M330.87,419.68h-4.55a.49.49,0,0,1,0-1h4.55a.49.49,0,0,1,0,1Z" transform="translate(-0.04)"/><path d="M329.77,422.37h-5.38a.48.48,0,0,1-.48-.48.47.47,0,0,1,.48-.48h5.38a.47.47,0,0,1,.48.48A.48.48,0,0,1,329.77,422.37Z" transform="translate(-0.04)"/><path class="cls-15" d="M189.86,409.53a7.3,7.3,0,0,1-7.3,7.3h0a7.3,7.3,0,0,1-7.31-7.3l2.09-10.47a5.22,5.22,0,0,1,5.22-5.22h0a5.22,5.22,0,0,1,5.22,5.22Z" transform="translate(-0.04)"/><path d="M182.56,417.31a7.79,7.79,0,0,1-7.79-7.78l2.1-10.56a5.7,5.7,0,0,1,11.39.09l2.08,10.37A7.81,7.81,0,0,1,182.56,417.31Zm0-23a4.75,4.75,0,0,0-4.74,4.74l-2.1,10.56a6.83,6.83,0,0,0,13.66-.09l-2.08-10.38A4.77,4.77,0,0,0,182.56,394.32Z" transform="translate(-0.04)"/><path d="M182.56,427.45a.48.48,0,0,1-.48-.49V406.82a.48.48,0,0,1,.48-.48.49.49,0,0,1,.48.48V427A.49.49,0,0,1,182.56,427.45Z" transform="translate(-0.04)"/><path d="M185.84,409.49H181.3a.48.48,0,1,1,0-1h4.54a.48.48,0,1,1,0,1Z" transform="translate(-0.04)"/><path d="M184.75,412.19h-5.39a.49.49,0,0,1,0-1h5.39a.49.49,0,0,1,0,1Z" transform="translate(-0.04)"/><path class="cls-15" d="M152.28,417.52a7.3,7.3,0,0,1-7.3,7.31h0a7.31,7.31,0,0,1-7.31-7.31l2.09-10.46a5.22,5.22,0,0,1,5.22-5.22h0a5.22,5.22,0,0,1,5.22,5.22Z" transform="translate(-0.04)"/><path d="M145,425.31a7.79,7.79,0,0,1-7.79-7.79l2.1-10.56a5.7,5.7,0,0,1,11.39.1l2.07,10.37A7.8,7.8,0,0,1,145,425.31Zm0-23a4.74,4.74,0,0,0-4.74,4.74l-2.1,10.56a6.83,6.83,0,0,0,13.66-.1l-2.08-10.37A4.77,4.77,0,0,0,145,402.32Z" transform="translate(-0.04)"/><path d="M145,435.44a.47.47,0,0,1-.48-.48V414.82a.47.47,0,0,1,.48-.48.48.48,0,0,1,.48.48V435A.48.48,0,0,1,145,435.44Z" transform="translate(-0.04)"/><path d="M148.26,417.49h-4.55a.49.49,0,0,1-.48-.48.48.48,0,0,1,.48-.48h4.55a.47.47,0,0,1,.48.48A.48.48,0,0,1,148.26,417.49Z" transform="translate(-0.04)"/><path d="M147.17,420.18h-5.39a.47.47,0,0,1-.48-.48.48.48,0,0,1,.48-.48h5.39a.49.49,0,0,1,.48.48A.48.48,0,0,1,147.17,420.18Z" transform="translate(-0.04)"/><path class="cls-2" d="M463.15,248.73a25.76,25.76,0,1,0,25.76,25.76A25.79,25.79,0,0,0,463.15,248.73Z" transform="translate(-0.04)"/><path d="M461.18,245.77A26.84,26.84,0,1,0,488,272.61,26.87,26.87,0,0,0,461.18,245.77Zm0,52.6a25.77,25.77,0,1,1,25.76-25.76A25.79,25.79,0,0,1,461.18,298.37Z" transform="translate(-0.04)"/><path d="M461.18,238.9a.54.54,0,0,0,.54-.54v-8.77a.54.54,0,0,0-1.08,0v8.77A.54.54,0,0,0,461.18,238.9Z" transform="translate(-0.04)"/><path d="M465.22,239.65a.54.54,0,0,0,.53-.54v-7.22a.54.54,0,1,0-1.07,0v7.22A.54.54,0,0,0,465.22,239.65Z" transform="translate(-0.04)"/><path d="M457.27,239.65a.54.54,0,0,0,.54-.54v-4.22a.54.54,0,0,0-1.08,0v4.22A.54.54,0,0,0,457.27,239.65Z" transform="translate(-0.04)"/><path d="M440.61,245.22a.56.56,0,0,0,.44.22.6.6,0,0,0,.32-.1.55.55,0,0,0,.12-.76l-5.16-7.09a.53.53,0,0,0-.43-.22.51.51,0,0,0-.32.1.57.57,0,0,0-.22.35.6.6,0,0,0,.1.41Z" transform="translate(-0.04)"/><path d="M444.32,243.45a.53.53,0,0,0,.43.22.51.51,0,0,0,.32-.1.57.57,0,0,0,.22-.35.59.59,0,0,0-.1-.41L441,237a.53.53,0,0,0-.44-.22.5.5,0,0,0-.31.1.53.53,0,0,0-.12.75Z" transform="translate(-0.04)"/><path d="M437.89,248.12a.53.53,0,0,0,.44.22.5.5,0,0,0,.31-.1.53.53,0,0,0,.12-.75l-2.47-3.42a.56.56,0,0,0-.44-.22.52.52,0,0,0-.32.11.48.48,0,0,0-.21.35.52.52,0,0,0,.09.4Z" transform="translate(-0.04)"/><path d="M420.11,259.83l8.34,2.7a.45.45,0,0,0,.16,0,.54.54,0,0,0,.17-1.05l-8.34-2.71-.17,0a.54.54,0,0,0-.51.37.58.58,0,0,0,0,.41A.57.57,0,0,0,420.11,259.83Z" transform="translate(-0.04)"/><path d="M430.74,257.9l-6.87-2.22a.45.45,0,0,0-.16,0,.54.54,0,0,0-.17,1l6.86,2.23a.47.47,0,0,0,.17,0,.53.53,0,0,0,.51-.36A.55.55,0,0,0,430.74,257.9Z" transform="translate(-0.04)"/><path d="M428.28,265.46l-4-1.3a.47.47,0,0,0-.17,0,.54.54,0,0,0-.16,1.05l4,1.31.17,0a.54.54,0,0,0,.17-1.05Z" transform="translate(-0.04)"/><path d="M429.12,283a.53.53,0,0,0-.51-.37l-.17,0-8.33,2.71a.54.54,0,0,0-.35.68.53.53,0,0,0,.51.38.47.47,0,0,0,.17,0l8.34-2.71A.53.53,0,0,0,429.12,283Z" transform="translate(-0.04)"/><path d="M428.07,278.58a.45.45,0,0,0-.16,0l-6.86,2.23a.55.55,0,0,0-.32.26.61.61,0,0,0,0,.42.54.54,0,0,0,.51.37.47.47,0,0,0,.17,0l6.86-2.23a.54.54,0,0,0-.17-1.05Z" transform="translate(-0.04)"/><path d="M430.53,286.14l-.17,0-4,1.31a.57.57,0,0,0-.31.26.51.51,0,0,0,0,.42.54.54,0,0,0,.51.37.51.51,0,0,0,.17,0l4-1.3a.54.54,0,0,0-.17-1.05Z" transform="translate(-0.04)"/><path d="M441.05,299.77a.56.56,0,0,0-.44.22l-5.15,7.1a.52.52,0,0,0-.09.4.5.5,0,0,0,.21.35.51.51,0,0,0,.32.1.53.53,0,0,0,.43-.22l5.16-7.09a.55.55,0,0,0-.12-.76A.53.53,0,0,0,441.05,299.77Z" transform="translate(-0.04)"/><path d="M438.76,297.25a.51.51,0,0,0-.22-.35.52.52,0,0,0-.32-.11.51.51,0,0,0-.43.23l-4.24,5.83a.58.58,0,0,0-.1.4.53.53,0,0,0,.22.36.58.58,0,0,0,.32.1.53.53,0,0,0,.43-.22l4.24-5.84A.53.53,0,0,0,438.76,297.25Z" transform="translate(-0.04)"/><path d="M444.65,301.47a.53.53,0,0,0-.43.22l-2.48,3.41a.54.54,0,0,0,.12.75.5.5,0,0,0,.31.1.53.53,0,0,0,.44-.22l2.48-3.41a.56.56,0,0,0,.1-.4.55.55,0,0,0-.22-.35A.51.51,0,0,0,444.65,301.47Z" transform="translate(-0.04)"/><path d="M461.18,306.31a.54.54,0,0,0-.54.54v8.77a.54.54,0,0,0,.54.54.54.54,0,0,0,.54-.54v-8.77A.54.54,0,0,0,461.18,306.31Z" transform="translate(-0.04)"/><path d="M457.15,305.57a.54.54,0,0,0-.54.53v7.22a.54.54,0,0,0,1.07,0V306.1A.53.53,0,0,0,457.15,305.57Z" transform="translate(-0.04)"/><path d="M465.09,305.57a.54.54,0,0,0-.54.53v4.22a.54.54,0,1,0,1.08,0V306.1A.54.54,0,0,0,465.09,305.57Z" transform="translate(-0.04)"/><path d="M481.75,300a.56.56,0,0,0-.44-.22.58.58,0,0,0-.32.1.56.56,0,0,0-.21.36.52.52,0,0,0,.09.4l5.16,7.09a.53.53,0,0,0,.44.22.5.5,0,0,0,.31-.1.57.57,0,0,0,.22-.35.56.56,0,0,0-.1-.4Z" transform="translate(-0.04)"/><path d="M478,301.76a.53.53,0,0,0-.43-.22.51.51,0,0,0-.32.1.57.57,0,0,0-.22.35.56.56,0,0,0,.1.4l4.24,5.84a.53.53,0,0,0,.44.22.5.5,0,0,0,.31-.1.53.53,0,0,0,.22-.35.52.52,0,0,0-.1-.4Z" transform="translate(-0.04)"/><path d="M484.47,297.09a.53.53,0,0,0-.44-.22.57.57,0,0,0-.31.1.54.54,0,0,0-.12.76l2.48,3.4a.54.54,0,0,0,.43.23.56.56,0,0,0,.32-.11.53.53,0,0,0,.21-.35.52.52,0,0,0-.09-.4Z" transform="translate(-0.04)"/><path d="M502.26,285.38l-8.35-2.71-.16,0a.54.54,0,0,0-.17,1.05l8.34,2.71.17,0a.54.54,0,0,0,.17-1.05Z" transform="translate(-0.04)"/><path d="M498.82,288.51,492,286.28a.47.47,0,0,0-.17,0,.54.54,0,0,0-.16,1.05l6.85,2.22.17,0a.54.54,0,0,0,.17-1.05Z" transform="translate(-0.04)"/><path d="M498.42,280l-4-1.31-.17,0a.54.54,0,0,0-.17,1.05l4,1.3a.51.51,0,0,0,.17,0,.54.54,0,0,0,.51-.37.58.58,0,0,0,0-.41A.53.53,0,0,0,498.42,280Z" transform="translate(-0.04)"/><path d="M493.24,262.19a.53.53,0,0,0,.51.37l.17,0,8.33-2.71a.54.54,0,0,0-.16-1.05.51.51,0,0,0-.17,0l-8.34,2.71A.53.53,0,0,0,493.24,262.19Z" transform="translate(-0.04)"/><path d="M501.63,264.11a.61.61,0,0,0,0-.42.54.54,0,0,0-.52-.37.45.45,0,0,0-.16,0l-6.86,2.23a.53.53,0,0,0-.32.27.58.58,0,0,0,0,.41.55.55,0,0,0,.52.37.45.45,0,0,0,.16,0l6.86-2.23A.55.55,0,0,0,501.63,264.11Z" transform="translate(-0.04)"/><path d="M491.83,259.07a.51.51,0,0,0,.17,0l4-1.3a.54.54,0,0,0-.17-1.05.51.51,0,0,0-.17,0l-4,1.3a.52.52,0,0,0-.31.27.49.49,0,0,0,0,.41A.54.54,0,0,0,491.83,259.07Z" transform="translate(-0.04)"/><path d="M481.31,245.44a.56.56,0,0,0,.44-.22l5.15-7.1a.54.54,0,0,0-.12-.75.55.55,0,0,0-.32-.1.56.56,0,0,0-.44.22l-5.15,7.09a.55.55,0,0,0,.12.76A.58.58,0,0,0,481.31,245.44Z" transform="translate(-0.04)"/><path d="M488.37,241.5a.53.53,0,0,0-.43.22l-4.24,5.84a.53.53,0,0,0-.1.4.51.51,0,0,0,.22.35.5.5,0,0,0,.31.1.53.53,0,0,0,.44-.22l4.24-5.83a.59.59,0,0,0,.1-.41.54.54,0,0,0-.54-.45Z" transform="translate(-0.04)"/><path d="M477.71,243.74a.53.53,0,0,0,.43-.22l2.48-3.41a.53.53,0,0,0,.1-.4.55.55,0,0,0-.22-.35.51.51,0,0,0-.32-.1.53.53,0,0,0-.43.22l-2.48,3.41a.56.56,0,0,0-.1.4.55.55,0,0,0,.22.35A.51.51,0,0,0,477.71,243.74Z" transform="translate(-0.04)"/><path class="cls-16" d="M166.68,258a15.08,15.08,0,0,0-2.83.28,21,21,0,0,0-40.54,7.62c0,.63,0,1.28.09,1.94a9.69,9.69,0,0,0-3.58-.68,9.86,9.86,0,1,0,0,19.72h46.86a14.44,14.44,0,0,0,0-28.88Z" transform="translate(-0.04)"/><path class="cls-17" d="M163.88,284.37H117a10.34,10.34,0,1,1,0-20.68,10,10,0,0,1,3,.46c0-.42,0-.84,0-1.25a21.47,21.47,0,0,1,41.32-8.16,15.39,15.39,0,0,1,2.52-.21,14.92,14.92,0,1,1,0,29.84ZM117,264.65a9.38,9.38,0,1,0,0,18.75h46.85a14,14,0,1,0,0-27.91,14.11,14.11,0,0,0-2.73.27l-.39.08-.15-.38A20.5,20.5,0,0,0,121,262.9c0,.62,0,1.26.09,1.9l.07.78-.73-.29A9.37,9.37,0,0,0,117,264.65Z" transform="translate(-0.04)"/><path class="cls-16" d="M511.88,333.4a14.87,14.87,0,0,0-13.65,9.12,10.8,10.8,0,1,0-4.9,20.43h18.55a14.78,14.78,0,1,0,0-29.55Z" transform="translate(-0.04)"/><path class="cls-17" d="M509.09,360.4H490.53a11.29,11.29,0,1,1,4.67-21.55,15.25,15.25,0,1,1,13.89,21.55Zm-18.56-21.61a10.33,10.33,0,0,0,0,20.65h18.56a14.29,14.29,0,1,0-13.21-19.75l-.2.48-.46-.24A10.37,10.37,0,0,0,490.53,338.79Z" transform="translate(-0.04)"/><path class="cls-16" d="M285.18,205.79a24.44,24.44,0,0,0-19.06,9.06,16.12,16.12,0,0,0-5.37-.92,16.46,16.46,0,0,0,0,32.91,16.17,16.17,0,0,0,5.37-.92,24.59,24.59,0,1,0,19.06-40.13Z" transform="translate(-0.04)"/><path class="cls-17" d="M282.39,252.44a25,25,0,0,1-19.22-9,16.93,16.93,0,1,1,0-32.2,25.08,25.08,0,1,1,19.22,41.18Zm-18.9-10.1.21.26a24.13,24.13,0,1,0,0-30.47l-.21.26-.32-.11a15.73,15.73,0,0,0-5.22-.89,16,16,0,1,0,5.22,31.06Z" transform="translate(-0.04)"/><path class="cls-16" d="M431.57,331.07H420.63a19.55,19.55,0,0,0-37.51-7,14.34,14.34,0,1,0-6.33,27.21h54.78a10.11,10.11,0,0,0,0-20.21Z" transform="translate(-0.04)"/><path class="cls-17" d="M428.78,348.74H374a14.83,14.83,0,1,1,6.09-28.34,20.28,20.28,0,0,1,18.21-11.71,19.94,19.94,0,0,1,20,18.88h10.49a10.59,10.59,0,0,1,0,21.17ZM374,320.05a13.86,13.86,0,0,0,0,27.72h54.78a9.62,9.62,0,0,0,0-19.24H417.37l0-.46a19,19,0,0,0-19.05-18.42,19.29,19.29,0,0,0-17.53,11.59l-.2.47-.46-.23A13.81,13.81,0,0,0,374,320.05Z" transform="translate(-0.04)"/><path class="cls-3" d="M297.07,626.8h0q-118.95-63-237.89-125.95H541.59Z" transform="translate(-0.04)"/><g id="Frame"><path class="cls-18" d="M297,0,0,171.49v343L297,686,594,514.49v-343ZM542.8,484.89,297.07,626.8,51.26,484.89V201.14l245.81-142,245.73,142Z" transform="translate(-0.04)"/><path id="_Compound_Path_" data-name=" Compound Path " class="cls-19" d="M297,61.25,53,202.14V483.83L297,624.69,540.93,483.83V202.14Z" transform="translate(-0.04)"/></g></svg>