<svg xmlns="http://www.w3.org/2000/svg" viewBox="0 0 1288.4 1288.4"><defs><style>.cls-1{fill:#fff5cc;stroke:#150a3a;stroke-width:28px;}.cls-1,.cls-14,.cls-20{stroke-miterlimit:10;}.cls-2{fill:#e17b59;}.cls-3{fill:#e7ebef;}.cls-4{fill:#1c1142;}.cls-5{fill:#f8f7f9;}.cls-6{fill:#3eb877;}.cls-7{fill:#ecf2ed;}.cls-8{fill:#fbfbfc;}.cls-9{fill:#5ebc89;}.cls-10{fill:#faf9fa;}.cls-11{fill:#83cda4;}.cls-12{fill:#fbfdfc;}.cls-13{fill:#18113f;}.cls-14,.cls-15{fill:#150a3a;}.cls-14{stroke:#000002;stroke-width:4px;}.cls-16{fill:#070502;}.cls-17{fill:#fccf0e;}.cls-18{fill:#b6aca9;}.cls-19{fill:#1b5583;}.cls-20,.cls-22{fill:#53321b;}.cls-20{stroke:#000;}.cls-21{fill:#0c0723;}</style></defs><title>Asset 1</title><g id="Layer_2" data-name="Layer 2"><g id="Layer_1-2" data-name="Layer 1"><polygon class="cls-1" points="905.24 14 383.16 14 14 383.16 14 905.24 383.16 1274.4 905.24 1274.4 1274.4 905.24 1274.4 383.16 905.24 14"/><ellipse class="cls-2" cx="423.43" cy="244.51" rx="138.23" ry="144.54"/><path class="cls-3" d="M487.47,279.29c1.76-3.52,5.33-4.63,8.47-6.31,2.24-1.21,4.22-.46,6.12.81,8.31,5.41,16.71,3.91,25.14.3,2.31-.57,4.4.2,6.46,1.09,3.92,1.53,6.91,1.67,6.08-4,2.65-2.51-1.63-7.54,3.34-9.2,4.82,5.77,7.66-2.37,11.76-1.68,11.13-14.59,26.71-16.48,43.4-15.21,2.16-1.25,4-.2,5.75.92,1.65,1.49,2.33,3.25,1.46,5.42-4.26,3.63-1.88,6.17,1.54,8.27,3.06,1.87,6.71,2.56,9.83,4.4,6.35,4.11,16.66-.52,20.47,9.21,2.53,4.46,7.31,7.56,6.68,13.9-.6,5.91,2.33,5.2,6.41,2.69,6.59-4,13.79-6.12,21.6-3.58-2.19,2.83-5.05,3.5-9.57,2.54,14.69.89,21.94,12.07,31.76,18.89,8.74,6.06,15.42,14.88,25.27,19.61a9.22,9.22,0,0,1,2.5,1.7,2.72,2.72,0,0,1-.07,2.82c-16.25,4.92-32.76,7.81-49.85,6.55-4.63-.34-9.25,2.26-13.28,2.52-16.56,1.09-32.18,10.65-49.31,5.63-3.77-1.1-6.38,1-8.47,3.33-10,11.19-21.69,9.39-33.57,4.3-5.62-2.41-10.56-4.22-17.26-3.25-11.19,1.61-18.57-8.09-27.77-12.56-2.52,1.72-5.33.82-8,.9-2.89-10.5-11.59-6.67-18.44-7.45-2.4-3-5.07-5.58-9.09-6.52-2.89-.67-5.12-2.32-4.33-5.93.78-1.6,2.38-2.09,3.83-2.77-1.38.16-2.84,0-4.05.83-1.42,1-2.51,2.43-4.24,3a9,9,0,0,1-7.89-.86c-3-4.73-4.55-10-8.86-14.32-4.8-4.79-.46-15.12,5.19-13.51,9.67,2.77,13.52-1.78,17.23-8.84C484.42,281.5,486.63,281,487.47,279.29Z"/><path class="cls-3" d="M682.83,295c11.66-8.83,25.92-9.56,37.71-1.09,3.44,2.47,5.42,3.34,9.31,1,8.89-5.34,18.19-6.23,27.6-.64,2.23,1.32,4.73,3.58,7.79.8,7-6.35,14.06-4,20.6.52,15,10.28,32.62,11.22,49.52,12,20,.87,40.31,2.59,60.34-1.34,2.68-.52,4.74,1.16,8.7,3.7-15.31,5.2-29.59,8.45-43.76,8.57-24.92.21-49.58.63-73.5,8.61a8,8,0,0,1-2.13.34c-18.21.77-36.8-3.22-54.46,4.39-2.84-.91-5.94-.71-8.66-2.11l0,0c-11.55-10.51-25.52-18.05-36.21-29.62C684.24,298.54,681.92,297.7,682.83,295Z"/><path class="cls-3" d="M682.83,295c11.24,10.79,24.09,19.57,36.31,29.13a7.08,7.08,0,0,1,2.72,5.57c-13.8-.81-19.21-13.93-29.39-20.09s-16.71-17.44-31.05-20.15L672,286.31C677.65,286.63,677.4,294.35,682.83,295Z"/><path class="cls-3" d="M513.68,338.35c-3.57-3-7.11-.47-10.66,0a21.65,21.65,0,0,0-6.84,2.15c-9.62,3.56-18.8,3.92-26.87-3.7-1.58-1.48-3.16-3.28-5.54-2.34-10.78,4.23-20.07-.6-29.91-4-10.55-3.67-22.15.84-32.92-2.84-2.74-2.28-6-1-9-1.2-5.46-.42-6.6-2.94-4-7.54l3.91-.26c2.55-1.32,5.29-.7,7.95-.78,3.54-.54-.74,4.15,2.11,3.46,6.94-1.69,13.78-.29,20.66.49,1.34.12-.33-2.09-.75-.71,0,.1-.36,0-1-.27a9.8,9.8,0,0,1-2.76-1.52c-.88-1.51-1-3,.32-4.3,3-.55,6.17-.46,8.61-2.73,9.76-5,16-14.9,26.3-19.16l0,.07c4.16-4.84,10.4-2.48,15.4-4.44a2.29,2.29,0,0,0,1.65.08c3.07-1.13,6.37-1.85,8.48-4.7a9.53,9.53,0,0,1,8.68-4.82c-1.61,3.84-2.62,8.1-5,11.43-2.95,4.17-6.29,9.64-12.72,3.76-2.71-2.48-5.54-1.54-7.11,1.42s-2.26,7.91.72,8.64c8.9,2.18,6.65,8.62,6.91,14.31,2.8,3.49,6.12,5.87,10.87,6.06,3.7.15,7.08,1.36,8.69,5.22,1.09,2.31,2.78,3.06,5.19,2,.42-.1.85-.18,1.27-.26a12.72,12.72,0,0,0,3-.93C510,324.44,513.26,326.14,513.68,338.35Z"/><path class="cls-3" d="M387.91,318.88c-.91,10.73,10.27,3.46,13,8.74-12.34-.29-24.76.65-36.92-2.4a2.8,2.8,0,0,1-.08-4.13C371.86,319.56,379.8,318.34,387.91,318.88Z"/><path class="cls-3" d="M533.66,275.18l-7,.27a35.38,35.38,0,0,1-26,0c-1-1.91-2.95-2.05-4.74-2.49C508.85,267.83,521.54,266.66,533.66,275.18Z"/><path class="cls-3" d="M453.24,293.1c-8,7.45-15.16,16-26.3,19.16C434,303.5,440.92,294.61,453.24,293.1Z"/><path class="cls-3" d="M400.91,318.9l-9.09-.28A81.53,81.53,0,0,1,418.33,315c-.06,1.26-.13,2.52-.19,3.78C412.43,322.23,406.68,321.87,400.91,318.9Z"/><path class="cls-3" d="M468.66,288.73a48.77,48.77,0,0,1-15.41,4.43C456.17,284,463.5,290.12,468.66,288.73Z"/><path class="cls-3" d="M496.18,340.53c1.78-2.31,3.18-5.83,6.84-2.15-1,2.06-2.29,3.79-4.67,4.35Z"/><path class="cls-3" d="M541.53,318c13.47-16.21,31.17-26.57,48.53-37.41C576.74,296.94,559.65,308.21,541.53,318Z"/><path class="cls-3" d="M487.66,334c.57-7.32-4.61-6.85-9.19-6.42-6.8.64-8.9-2.61-8.16-8.74l8.7,0c1.44-1.28,2.88-1.12,4.29.06.37,3.72,2.94,4.55,6,4.27,6.83-.63,7.37,3.64,7,8.71A9.29,9.29,0,0,1,487.66,334Z"/><path class="cls-3" d="M500.68,275.48l26,0C520.88,281.68,506.55,281.7,500.68,275.48Z"/><path class="cls-3" d="M483.3,318.87l-4.29-.05c4.24-8,10.26-3.7,18-3C491.58,320.11,487.2,318.28,483.3,318.87Z"/><path class="cls-3" d="M400.91,318.9l17.23-.13c4,.58,8.31-1,13.13,2.18-11.89,7.92-23.52-1.6-34.75,1.43Z"/><path class="cls-3" d="M457.3,310.15c3,.35,4.46,1.9,4.05,5-.34,2.58-2.07,3.67-4.41,3.57-3.73-.17-7.69,1.24-11.55-1.47.93-4.18,8.24-1.64,7.56-7.07C454.4,309,455.84,308.85,457.3,310.15Z"/><path class="cls-3" d="M461.28,331.05H444.83C454.36,322.16,454.36,322.16,461.28,331.05Z"/><path class="cls-3" d="M457.3,310.15l-4.35,0c-2.5-.66-6.31,1.61-7.15-2.35-.27-1.25,2.28-4.31,3.79-4.49C454.17,302.78,456.23,306.14,457.3,310.15Z"/><path class="cls-3" d="M487.66,334a14.64,14.64,0,0,1,8.67-2.16C494.79,338,491.48,337,487.66,334Z"/><path class="cls-4" d="M326.19,709.71c.3,23.76,15.47,38.7,39,38.56,11.83-.07,15.8-.08,18.49,5.05.5-.46,1-.92,1.48-1.39,2.09-2.09,3.9-4.43,5.84-6.67,1.27-1.47,2.64-3.1,4.15-4.55-5.79-22.52-11.65-45-18.05-67.37-4.29-15-2.47-29.53-.27-44.29a8.8,8.8,0,0,1,2.1-4.91l-19.19-27.06c.05,4.08-1.54,5.26-5,6.2-20,5.39-29.45,18-29.25,38.86Q325.78,675.92,326.19,709.71Zm13.35-34.15q-.19-18-.38-36c-.08-9.51,4.1-16.62,12.43-21.08,7-3.71,8.76-2.78,8.31,5.08-1.58,27.23,2.63,53.56,11.11,79.36,1.87,5.7,3.11,11.61,4.67,17.41,3.81,14.22,3.81,14.22-10.68,14.2-16,0-24.8-8.53-25.09-24.44C339.7,698.55,339.65,687.06,339.54,675.56Z"/><path class="cls-5" d="M339.54,675.56c.11,11.5.16,23,.37,34.48C340.2,726,349,734.46,365,734.48c14.49,0,14.49,0,10.68-14.2-1.56-5.8-2.8-11.71-4.67-17.41-8.48-25.8-12.69-52.13-11.11-79.36.45-7.86-1.36-8.79-8.31-5.08-8.33,4.46-12.51,11.57-12.43,21.08Q339.32,657.54,339.54,675.56Z"/><path class="cls-4" d="M935.18,639.14c.2-20.86-9.22-33.47-29.25-38.86-3.51-.94-5.11-2.12-5-6.2l-19.19,27.06a8.8,8.8,0,0,1,2.1,4.91c2.2,14.76,4,29.34-.27,44.29-6.4,22.34-12.26,44.85-18,67.37,1.51,1.45,2.88,3.08,4.15,4.55,1.94,2.24,3.75,4.58,5.84,6.67.48.47,1,.93,1.47,1.39,2.7-5.13,6.67-5.12,18.5-5.05,23.57.14,38.74-14.8,39-38.56Q934.89,672.92,935.18,639.14ZM920.75,707c-.29,15.91-9.08,24.42-25.09,24.44-14.49,0-14.49,0-10.68-14.2,1.56-5.8,2.8-11.71,4.67-17.41,8.48-25.8,12.69-52.13,11.11-79.36-.45-7.86,1.36-8.79,8.31-5.08,8.33,4.46,12.51,11.57,12.43,21.08q-.16,18-.38,36C921,684.06,921,695.55,920.75,707Z"/><path class="cls-5" d="M921.12,672.56c-.11,11.5-.16,23-.37,34.48-.29,15.91-9.08,24.42-25.09,24.44-14.49,0-14.49,0-10.68-14.2,1.56-5.8,2.8-11.71,4.67-17.41,8.48-25.8,12.69-52.13,11.11-79.36-.45-7.86,1.36-8.79,8.31-5.08,8.33,4.46,12.51,11.57,12.43,21.08Q921.34,654.54,921.12,672.56Z"/><path class="cls-4" d="M870.19,661.92c0-21-9.82-33.67-30.44-38.9-3.61-.91-5.26-2.08-5.24-6.2q.33-79.68.29-159.35c-1.21-.92-8,4.44-14.23,9.84,0,2.6-.07,5.2-.08,7.8q-.15,63.09-.27,126.18c.7,1.48,1.08,3.91-.22,4.13-2.28.39-38.46-62.59-68.61-84l-8-5.23C674,472.41,601.61,470,528.12,509.48c-37,19.89-64.3,49.77-82,87.73l-6.13,13c-2.84-2.29-1.5-5.4-1.51-8.06-.12-23.92,0-47.83-.11-71.75,0-2.79.93-5.82-1.31-8.31-3.89,3.85-7-.79-10.5-1l-.41-.26c0,31.44-.1,62.88.17,94.32,0,5.15-1.38,7.22-6.67,8.4-16.38,3.64-27.79,17-28.14,33.36-.42,19.53,0,39.08.12,58.63l4.81,0c2.54-2.34,8.77-1.88,8.77-1.88s-.07-35.94.12-53.9c.11-11.1,6.36-19.49,15.73-22.6,4.06-1.35,5.53-.4,5.16,3.68,0,.26,0,.53,0,.79-2.63,29.7,2.86,58.34,11.56,86.58l3.93,15.15c.06.27.11.54.17.8l-.1-.55,2.1,8.13-.09.08c.39,1.48.78,3,1.2,4.49l-.93-3.91,14.06,54.22c9.86,36.24,19.25,72.26,17.26,110.6-1.32,25.46,21.64,45.77,47.83,45.85q106.85.31,213.68,0c27.78-.07,49.77-20.93,48.68-48.42-1.25-31.65,3.74-62,12.85-92.09,3.53-11.64,6.18-23.53,9.22-35.32,4.58-17.75,4.58-17.75,22.86-17.83,24.19-.11,39.6-15.35,39.65-39.33Q870.27,696,870.19,661.92Zm-62.25-46c.35.89.54,1.84,1.48,5-5.76-4.11-9.64-7.05-13.69-9.74-34.08-22.61-70.45-37.61-107.47-45.06l49.29-37.7C770.12,549.7,793.34,579.34,807.94,615.9ZM502.82,629.62c3.21-10.28,6.2-20.68,14.62-28.36l0,0L519.1,600a266.8,266.8,0,0,1,134.51-24.56c4.28.31,8.53.77,12.76,1.28l-164,129a148.18,148.18,0,0,1-5.54-31.7l0-10.7.36-5.12A64.11,64.11,0,0,1,502.82,629.62Zm170.37-52A299.41,299.41,0,0,1,725,590.29a28.09,28.09,0,0,1,15.9,12.34c38.08,61.2,14.45,146.59-49.84,179.54a19.49,19.49,0,0,1-9.31,1.86H574.55c-3.26,0-6.38-.24-9.32-1.93Q517.82,754.93,503,707.83ZM450.47,624.32c7.52-26.54,21.91-49.34,41.08-69,63-64.51,155.05-78,234.34-34,2.12,1.18,4.2,2.4,6.26,3.65l-50.66,39.85c-77.84-13.71-158.13,5.8-225.94,58a39.5,39.5,0,0,1-4,2.42c-.22.7-.59,1.41-1.38.81C449.93,625.94,450.35,624.94,450.47,624.32Zm-9,61.35c-2.53-10.16,0-20.49,1-30.71a5.9,5.9,0,0,1,1.74-3.45c14.58-13.57,29.25-27,47.49-35.94l.84-1.05c.15.2.47.51.42.58a7.06,7.06,0,0,1-.88.94c-2.83,12.58-7.46,24.71-8.55,37.69q-2.81,33.25,6.92,61.46L456,742.29C451.06,723.43,446.15,704.58,441.44,685.67Zm23.82,93c-2.94-11.71-6-23.39-9-35.08L491,717q12.6,34.92,44.52,62.07c1.41,1.21,2.87,2.36,4.31,3.53-1,2.64-3.18,1.61-4.8,1.61-20.69.08-41.37-.06-62.06.15C468.52,784.38,466.41,783.2,465.26,778.65ZM772,886.1c-.56,8.68-.1,17.42-.15,26.13-.12,22.95-14.29,37.16-37.6,37.29-30.61.16-61.23,0-91.85,0q-56.79,0-113.59,0c-26.11,0-39.88-13.51-39.93-39,0-8.45.39-16.92-.13-25.34-.37-6.16,1.44-8,7.94-8,44.57.3,89.16.16,133.73.16,44.32,0,88.63.21,132.94-.21C770.91,877.14,772.47,879.43,772,886.1ZM788.46,806c-4.84,16.76-9,33.71-13.09,50.67-1.21,5-3.48,6.62-8.76,6.61q-136.23-.24-272.47,0c-5.34,0-7.5-1.72-8.7-6.69-4.09-17-8.36-33.88-13.06-50.68-1.7-6.11-.88-8,6.12-8,50.78.28,101.57.15,152.35.15,50.25,0,100.5.12,150.75-.13C788.27,797.89,790.55,798.76,788.46,806Zm7.37-28.29c-1.24,5-3.28,6.75-8.63,6.68-23.53-.29-47.07-.12-71.86-.12,57.6-49.63,72-108.33,44-178.76a265.8,265.8,0,0,1,55.76,38.84,8.82,8.82,0,0,1,2.21,4.93c2.42,14.87,4.44,29.56.2,44.69C809.74,721.72,802.81,749.72,795.83,777.69Zm60.28-47.09c-.12,16-9.05,24.73-25.48,24.92-14.87.17-14.87.18-11.11-14.22,1.53-5.87,2.74-11.84,4.6-17.61,8.42-26.12,12.47-52.74,10.55-80.2-.55-7.92,1.3-8.89,8.47-5.21,8.6,4.41,13,11.54,13,21.13q0,18.2,0,36.39C856.13,707.4,856.2,719,856.11,730.6Z"/><path class="cls-4" d="M427.12,610.92c0,4.18-1.63,5.38-5.24,6.31-20.62,5.31-30.41,18.15-30.44,39.56q0,34.68,0,69.35c.05,24.39,15.46,39.89,39.65,40,18.29.08,18.28.08,22.86,18.13l-6.29-81.7c-1.17-4.41-2.33-8.82-3.54-13.21-3.76-13.66-2.59-27-.59-40.37m-38,42.25q0-18.5,0-37c0-9.76,4.38-17,13-21.5,7.17-3.74,9-2.75,8.47,5.31-1.91,27.92,2.13,55,10.55,81.56,1.86,5.87,3.07,11.94,4.6,17.91,3.76,14.64,3.76,14.64-11.11,14.46-16.42-.19-25.36-9-25.48-25.35C405.43,714.84,405.5,703,405.51,691.24Z"/><path class="cls-4" d="M828.93,450h-8.24"/><path class="cls-6" d="M496.83,658.24l.36-5.21c2.17-1.61,2.47-3.93,2.39-6.39-.22-6.77,2-13,4.57-19.07.81-2.48,1.68-5,2.41-7.47,2.58-8.8,8.84-16,10.88-25l0,.06,1.68-1.3a263.09,263.09,0,0,1,134.51-25A285.1,285.1,0,0,1,725,583.94a28.18,28.18,0,0,1,15.9,12.54c38.08,62.25,14.45,149.09-49.84,182.6a19.18,19.18,0,0,1-9.31,1.9q-53.62,0-107.23,0c-3.26,0-6.38-.25-9.32-2-42.17-24.59-65.1-61.13-68.38-109.9A12.26,12.26,0,0,0,496.83,658.24Zm133.72-35.33a34.52,34.52,0,1,0,34.6-34.07A34.69,34.69,0,0,0,630.55,622.91Zm93.94,51.68a14.28,14.28,0,0,0-14.37-13.42c-7.89.09-14.53,7-14,14.57a14.37,14.37,0,0,0,14.76,13C718.37,688.48,724.73,681.87,724.49,674.59Z"/><path class="cls-7" d="M630.46,876c44.32,0,88.63.22,132.94-.21,7.51-.07,9.07,2.26,8.64,9-.56,8.82-.1,17.71-.15,26.58-.12,23.33-14.29,37.79-37.6,37.91-30.61.17-61.23.05-91.85.05q-56.79,0-113.59,0c-26.11,0-39.88-13.75-39.93-39.67,0-8.59.39-17.21-.13-25.77-.37-6.26,1.44-8.13,7.94-8.09C541.3,876.1,585.89,876,630.46,876Z"/><path class="cls-8" d="M450.47,618.55c7.52-27,21.91-50.19,41.08-70.14,63-65.6,155.05-79.34,234.34-34.57,38.77,21.89,65.76,54.65,82,96.14.36.91.56,1.87,1.49,5.13-5.76-4.19-9.64-7.17-13.69-9.91-107.68-72.65-238.09-68.07-340.18,11.9a41.75,41.75,0,0,1-4,2.46A10.22,10.22,0,0,0,450.47,618.55Z"/><path class="cls-9" d="M630.85,795.25c50.25,0,100.5.11,150.75-.14,6.67,0,8.95.84,6.86,8.19-4.84,17-9,34.29-13.09,51.53-1.21,5.11-3.48,6.73-8.76,6.72q-136.23-.24-272.47,0c-5.34,0-7.5-1.76-8.7-6.8-4.09-17.25-8.36-34.46-13.06-51.55-1.71-6.22-.88-8.15,6.12-8.11C529.28,795.38,580.07,795.25,630.85,795.25ZM512.54,808.83c-2.67.51-6.39.68-7.57,4.91-.89,3.17-.12,6.91,2.91,7.52,10,2,13.61,10.49,19,17.33,10.66,13.49,27,13.22,37.54-.49,2.79-3.61,5.14-7.58,8.08-11.06,4.71-5.58,9.36-5.5,14.14,0a65.6,65.6,0,0,1,4.2,5.91c14.48,20.82,30.71,20.93,45.16.33a63.61,63.61,0,0,1,4.3-5.84c5.58-6.28,9.86-6.16,15.17.5,2.5,3.14,4.52,6.68,7,9.81,12,14.81,27.68,14.42,38.9-.9,1.75-2.39,3.28-4.93,5.07-7.27,6.82-9,11.48-8.91,18.15,0,3.37,4.51,6.14,9.5,10.55,13.17,4.24,3.54,8.92,6,14.65,5.49a6.53,6.53,0,0,0,6.27-5.35c.7-3.21-.22-6.72-3.43-7.25-9.33-1.53-12.63-9.29-17.45-15.55-12-15.56-29.07-15.74-39.76,1-11.08,17.33-17.4,16.48-27.89,0-11.12-17.45-28.49-16.62-40.61.31-12.46,17.4-14.09,17.42-26.45.33-12.72-17.58-29.29-17.56-42,.05-12.29,17-14,17.06-26.45-.43C527.41,814.78,521.74,809.83,512.54,808.83Z"/><path class="cls-10" d="M759.34,599.4a265.72,265.72,0,0,1,55.76,39.5,9,9,0,0,1,2.21,5c2.42,15.12,4.44,30.07.2,45.45-7.77,28.24-14.7,56.72-21.68,85.17-1.24,5.06-3.28,6.86-8.63,6.8-23.53-.3-47.07-.13-71.86-.13C772.94,730.73,787.38,671,759.34,599.4Z"/><path class="cls-10" d="M492.05,610.15c-2.85,12.77-7.48,25.11-8.57,38.3q-6.39,77,52.08,127.47c1.41,1.22,2.87,2.39,4.31,3.59-1,2.68-3.18,1.63-4.8,1.63-20.69.08-41.37-.06-62.06.15-4.49,0-6.6-1.16-7.75-5.79-7.8-31.55-16.08-63-23.82-94.55-2.53-10.35,0-20.85,1-31.24a6.06,6.06,0,0,1,1.74-3.51c14.58-13.8,29.25-27.51,47.49-36.55Z"/><path class="cls-5" d="M856.13,691.24c0,11.8.07,23.6,0,35.39C856,743,847.06,751.79,830.63,752c-14.87.18-14.87.18-11.11-14.46,1.53-6,2.74-12,4.6-17.91,8.42-26.57,12.47-53.64,10.55-81.56-.55-8.06,1.3-9,8.47-5.31,8.6,4.48,13,11.74,13,21.5Q856.14,672.74,856.13,691.24Z"/><path class="cls-6" d="M517.44,595.09c-2,9-8.3,16.21-10.88,25-.73,2.51-1.6,5-2.4,7.47-.44-1.21-.89-2.42-1.34-3.63C506,613.48,509,602.91,517.44,595.09Z"/><path class="cls-6" d="M502.82,623.94c.45,1.21.9,2.42,1.34,3.63-2.59,6.11-4.8,12.3-4.58,19.07.08,2.46-.22,4.78-2.39,6.39A66.14,66.14,0,0,1,502.82,623.94Z"/><path class="cls-6" d="M496.83,658.24a12.26,12.26,0,0,1,0,10.89C496.84,665.5,496.84,661.87,496.83,658.24Z"/><path class="cls-11" d="M519.1,593.85l-1.68,1.3Z"/><path class="cls-10" d="M491.65,609.65l.84-1.07c.15.21.47.52.42.59a9.76,9.76,0,0,1-.87,1Z"/><path class="cls-12" d="M630.55,622.91A34.52,34.52,0,1,1,665,658,34.68,34.68,0,0,1,630.55,622.91Z"/><path class="cls-5" d="M724.49,674.59c.24,7.28-6.12,13.89-13.63,14.18a14.37,14.37,0,0,1-14.76-13c-.51-7.58,6.13-14.48,14-14.57A14.28,14.28,0,0,1,724.49,674.59Z"/><path class="cls-13" d="M512.54,808.83c9.2,1,14.87,5.95,19.57,12.58,12.41,17.49,14.16,17.48,26.45.43,12.68-17.61,29.25-17.63,42-.05,12.36,17.09,14,17.07,26.45-.33,12.12-16.93,29.49-17.76,40.61-.31,10.49,16.43,16.81,17.28,27.89,0,10.69-16.7,27.79-16.52,39.76-1,4.82,6.26,8.12,14,17.45,15.55,3.21.53,4.13,4,3.43,7.25a6.53,6.53,0,0,1-6.27,5.35c-5.73.54-10.41-1.95-14.65-5.49-4.41-3.67-7.18-8.66-10.55-13.17-6.67-8.94-11.33-9-18.15,0-1.79,2.34-3.32,4.88-5.07,7.27-11.22,15.32-26.93,15.71-38.9.9-2.53-3.13-4.55-6.67-7-9.81-5.31-6.66-9.59-6.78-15.17-.5a63.61,63.61,0,0,0-4.3,5.84c-14.45,20.6-30.68,20.49-45.16-.33a65.6,65.6,0,0,0-4.2-5.91c-4.78-5.52-9.43-5.6-14.14,0-2.94,3.48-5.29,7.45-8.08,11.06-10.58,13.71-26.88,14-37.54.49-5.4-6.84-9-15.32-19-17.33-3-.61-3.8-4.35-2.91-7.52C506.15,809.51,509.87,809.34,512.54,808.83Z"/><rect class="cls-4" x="820.28" y="334.37" width="14.52" height="193.57" rx="2.97"/><rect class="cls-4" x="425.56" y="413.06" width="14.52" height="153.24" rx="2.97"/><rect class="cls-4" x="393.86" y="701.51" width="11.45" height="9.84"/><path class="cls-5" d="M406.12,691.24c0,11.8-.07,23.6,0,35.39.12,16.33,9.05,25.16,25.48,25.35,14.87.18,14.87.18,11.11-14.46-1.53-6-2.74-12-4.6-17.91C429.71,693,425.66,666,427.58,638.05c.55-8.06-1.3-9-8.47-5.31-8.6,4.48-13,11.74-13,21.5Q406.12,672.74,406.12,691.24Z"/><path class="cls-14" d="M471.89,841.23c-76.52,47-109.16,116.47-127.41,155.53-.13.29-.25.58-.36.88-11,29.5-18.13,54.06-12.88,74.07s12.5,54.93,74.86,67.72a11,11,0,0,1,1.13.29c77.75,24.46,205,16,319,14.57.64.06,47-3.5,106.34-10.78,31.13-3.81,52.77-5.76,70.67-16.52a16.6,16.6,0,0,1,2.44-1.08c25.79-10.28,34.17-33.57,39.86-46.17a11.72,11.72,0,0,0,1.06-4.5c2.3-83.14-141.48-236.44-149.76-238S568.55,781.81,471.89,841.23Z"/><path class="cls-15" d="M626.16,614.68a.43.43,0,0,1,0,0S626.14,614.66,626.16,614.68Z"/><path class="cls-16" d="M626.16,614.68a.43.43,0,0,1,0,0S626.14,614.66,626.16,614.68Z"/><path class="cls-14" d="M913.48,668.44C908.3,552.89,847.25,472,629.63,479.63c-216.21,0-275.52,78.8-283.86,188.81,0,109.89,127.09,199,283.86,199S918.66,784,913.48,668.44Zm-464.1-61.33c2.78,2.44,335.18,6.51,354-8,4.25,0,19.81,58.77,13,82.7-9.14,32.11-16.42,41.9-35.22,45.4-75.91,14.12-243.65,20-321.09-11.48-11-4.47-23.46-24.41-21.69-56,1.35-24.22,9.8-50.69,10-52.59"/><path class="cls-17" d="M523.83,597.42q-73.43,0-146.86-.06c-8.9,0-17.35-9.44-15.32-18.57,5.79-26,16.52-43,44.22-38.1,33.37,5.85,66.52,3,99.83,1.95,37.71-1.21,75.43-2.58,113.15-2.66,63.06-.13,126.07,3.49,189.16,3,19.8-.15,39.5-.55,59-4.43,6.5-1.29,10.45,1,13,6.72,3.9,8.58,8.37,16.93,11.68,25.73,5.35,14.19,2.82,18-12.2,17.73-29.43-.54-58.73,1.92-88.06,3.23C702.27,596,613.09,599.11,523.83,597.42Z"/><path class="cls-17" d="M1138.06,531.05c3.7,2.49,6.09-2,8.16.7s.74,5.67-1,8c-5.19,7-13,10.21-20.7,13.37-28.36,11.64-48.78,7.76-77.9,5-30.62-2.85-61-8.85-91.84-8.63-17.79.12-44.72,1.68-59,14.46-4.33,3.87-6.33,1.47-7.79-2.49-2.55-6.92-.82-13.16,4.61-17.74,20.92-17.62,53.44-29.36,80.92-19.15,36.13,13.43,62.76,10.54,98.81,1.64,20.84-5.15,40.09-14.71,60-22.52,11.62-4.57,13.36-3.36,13.32,9.49C1145.55,520.19,1143,525.86,1138.06,531.05Z"/><path class="cls-17" d="M1072.85,410.36c5.91-6.25,7.83-11.07,8.5-16.57.2-1.66-.17-3.92,2.08-4.49,2.66-.68,3.82,1.56,4.93,3.33,5.6,8.94,6.74,18.14,1.7,27.82-4.86,9.33-12.39,16.15-21,21.51-41.83,25.88-88.36,57.67-149.78,81.1-14,5.33-26.8,12.81-36,25.72-8.93-18.56,3.11-42.27,25-50.36,23.44-8.67,56.27-16.44,78.3-28.53,18.21-10,26.33-21.36,39.91-37.42,12.54-14.82,20.29-31.76,21.4-51.23.39-6.79,3.06-7.69,8.93-6.61C1075.75,378.14,1079.3,384.8,1072.85,410.36Z"/><path class="cls-18" d="M379.32,826.83c-.88,1.94-25.78,73.67-61.47,75.57"/><path class="cls-19" d="M245.37,808c-2.18.18-3.28-.75-3-3,.47-3.23,2.86-4.62,5.55-5.7,2.31-.93,3.41.26,3.41,2.32C251.37,805.48,248.47,806.89,245.37,808Z"/><rect class="cls-20" x="217.61" y="799.99" width="128.98" height="46.04" rx="15.29" transform="translate(517.1 -14.66) rotate(34.59)"/><rect class="cls-21" x="226.25" y="810.51" width="116" height="27.97" rx="10.9" transform="translate(491.77 -22.58) rotate(32.79)"/><path class="cls-21" d="M368.29,951c-2.15-50.64,35-93.27,83.07-95.31"/><path class="cls-18" d="M317.86,902.4c-1.71-40.28,25.8-74.1,61.5-75.61"/><path class="cls-22" d="M241.48,807.1c-2.18.18-3.28-.75-2.95-3,.47-3.22,2.86-4.62,5.56-5.7,2.3-.93,3.4.26,3.4,2.32C247.48,804.58,244.58,806,241.48,807.1Z"/><path class="cls-22" d="M319.82,855.91c-1.56.13-2.34-.54-2.11-2.15.34-2.3,2-3.29,4-4.07,1.65-.66,2.43.19,2.43,1.66C324.1,854.11,322,855.12,319.82,855.91Z"/><path class="cls-22" d="M317.41,842.67c-1.56.13-2.35-.54-2.11-2.15.34-2.3,2-3.3,4-4.07,1.65-.66,2.44.19,2.43,1.66C321.69,840.87,319.62,841.87,317.41,842.67Z"/><path class="cls-22" d="M302.28,845c-1.56.13-2.35-.53-2.11-2.14.34-2.3,2-3.3,4-4.07,1.65-.66,2.44.18,2.43,1.65C306.56,843.21,304.49,844.22,302.28,845Z"/><path class="cls-22" d="M299.05,831.31c-1.56.13-2.34-.53-2.11-2.14.34-2.3,2-3.3,4-4.07,1.65-.66,2.43.18,2.43,1.66C303.33,829.51,301.26,830.52,299.05,831.31Z"/><path class="cls-22" d="M283.46,834c-1.56.13-2.35-.54-2.11-2.15.34-2.3,2-3.3,4-4.07,1.64-.66,2.43.19,2.42,1.66C287.74,832.22,285.67,833.22,283.46,834Z"/><path class="cls-22" d="M283,822.21c-1.56.13-2.35-.53-2.11-2.14.34-2.3,2-3.3,4-4.07,1.65-.66,2.44.18,2.43,1.66C287.24,820.41,285.17,821.42,283,822.21Z"/><path class="cls-22" d="M267,822.89c-1.56.13-2.35-.54-2.11-2.15.34-2.3,2-3.29,4-4.07,1.64-.65,2.43.19,2.42,1.66C271.3,821.09,269.23,822.1,267,822.89Z"/><path class="cls-22" d="M266.61,813.43c-1.56.13-2.34-.54-2.1-2.15.33-2.3,2-3.3,4-4.07,1.65-.66,2.44.19,2.43,1.66C270.9,811.63,268.83,812.63,266.61,813.43Z"/><path class="cls-22" d="M252.88,813c-1.56.13-2.35-.54-2.11-2.15.34-2.3,2-3.3,4-4.07,1.65-.66,2.44.19,2.43,1.66C257.16,811.15,255.09,812.15,252.88,813Z"/><path class="cls-22" d="M253.45,801.86c-1.56.13-2.35-.53-2.11-2.14.34-2.3,2-3.3,4-4.07,1.65-.66,2.44.18,2.43,1.66C257.73,800.06,255.66,801.07,253.45,801.86Z"/><rect class="cls-20" x="331.52" y="858.08" width="75.11" height="46.04" rx="11.05" transform="matrix(0.82, 0.57, -0.57, 0.82, 565.46, -53.77)"/><path class="cls-19" d="M1027.86,816.38c2.18.27,3.31-.63,3.06-2.89-.35-3.24-2.69-4.72-5.34-5.9-2.27-1-3.42.13-3.49,2.2C1022,813.64,1024.8,815.16,1027.86,816.38Z"/><rect class="cls-20" x="926.12" y="807.01" width="128.98" height="46.04" rx="15.29" transform="translate(2272.01 998.12) rotate(147.51)"/><rect class="cls-21" x="930.4" y="817.45" width="116" height="27.97" rx="10.9" transform="translate(2262.69 1042.12) rotate(149.32)"/><path class="cls-21" d="M899.77,954.76c4-50.53-31.56-94.49-79.51-98.29"/><path class="cls-18" d="M952,908.06c3.19-40.19-23.06-75-58.68-77.82"/><path class="cls-22" d="M1031.78,815.63c2.17.26,3.31-.63,3.06-2.9-.36-3.23-2.69-4.72-5.34-5.9-2.27-1-3.42.14-3.49,2.2C1025.88,812.89,1028.72,814.4,1031.78,815.63Z"/><path class="cls-22" d="M951.7,861.52c1.55.19,2.36-.45,2.18-2.06-.25-2.32-1.91-3.37-3.81-4.22-1.62-.72-2.44.1-2.49,1.57C947.49,859.57,949.52,860.65,951.7,861.52Z"/><path class="cls-22" d="M954.6,848.38c1.55.19,2.36-.45,2.18-2.07-.25-2.31-1.91-3.37-3.81-4.21-1.62-.72-2.44.1-2.49,1.57C950.39,846.42,952.42,847.5,954.6,848.38Z"/><path class="cls-22" d="M969.63,851.28c1.56.18,2.36-.45,2.19-2.07-.26-2.31-1.92-3.37-3.82-4.21-1.62-.72-2.43.09-2.49,1.57C965.42,849.32,967.45,850.4,969.63,851.28Z"/><path class="cls-22" d="M973.36,837.7c1.55.19,2.36-.44,2.18-2.06-.25-2.31-1.91-3.37-3.81-4.21-1.62-.72-2.44.09-2.49,1.56C969.15,835.75,971.17,836.83,973.36,837.7Z"/><path class="cls-22" d="M988.84,841c1.56.19,2.36-.45,2.19-2.07-.25-2.31-1.92-3.37-3.82-4.21-1.62-.72-2.43.1-2.48,1.57C984.63,839,986.66,840.11,988.84,841Z"/><path class="cls-22" d="M989.78,829.2c1.55.19,2.36-.45,2.18-2.06-.25-2.31-1.92-3.37-3.81-4.21-1.62-.72-2.44.09-2.49,1.56C985.56,827.25,987.59,828.33,989.78,829.2Z"/><path class="cls-22" d="M1005.68,830.47c1.55.18,2.36-.45,2.19-2.07-.26-2.31-1.92-3.37-3.82-4.21-1.62-.72-2.44.09-2.49,1.57C1001.47,828.51,1003.5,829.59,1005.68,830.47Z"/><path class="cls-22" d="M1006.43,821c1.55.19,2.36-.45,2.18-2.06-.25-2.31-1.91-3.37-3.81-4.21-1.62-.72-2.44.09-2.49,1.56C1002.22,819.07,1004.25,820.15,1006.43,821Z"/><path class="cls-22" d="M1020.18,821.05c1.55.19,2.36-.45,2.18-2.07-.25-2.31-1.92-3.37-3.81-4.21-1.62-.72-2.44.09-2.49,1.57C1016,819.09,1018,820.17,1020.18,821.05Z"/><path class="cls-22" d="M1020,810c1.56.19,2.37-.45,2.19-2.07-.25-2.31-1.92-3.37-3.82-4.21-1.62-.72-2.43.1-2.48,1.57C1015.8,808,1017.83,809.08,1020,810Z"/><rect class="cls-20" x="864" y="861.86" width="75.11" height="46.04" rx="11.05" transform="translate(2137.3 1147.08) rotate(147.51)"/></g></g></svg>