<svg xmlns="http://www.w3.org/2000/svg" xmlns:xlink="http://www.w3.org/1999/xlink" viewBox="0 0 100 100"><defs><style>.cls-1{fill:none;}.cls-2,.cls-28,.cls-3{isolation:isolate;}.cls-3{opacity:0.21;fill:url(#linear-gradient);}.cls-4{fill:#39f;}.cls-18,.cls-5{fill:#fff;}.cls-6{fill:#dde3e6;}.cls-7{fill:#9f6;}.cls-8{fill:#aeeef8;}.cls-9{fill:#9ee6f2;}.cls-10{fill:#008daa;}.cls-11{fill:#00a8c9;}.cls-12{fill:#007b94;}.cls-13,.cls-14{fill:#006786;}.cls-14{opacity:0.44;}.cls-15{clip-path:url(#clip-path);}.cls-16{opacity:0.1;}.cls-17,.cls-18{mix-blend-mode:screen;}.cls-19{fill:url(#linear-gradient-2);}.cls-20{fill:#f4f2f4;}.cls-21{fill:#ededef;}.cls-22{fill:#004152;}.cls-23{fill:#9cc;}.cls-24{fill:#399;}.cls-25{fill:#00556a;}.cls-26{fill:url(#linear-gradient-3);}.cls-27{fill:url(#linear-gradient-4);}.cls-28{fill:#006;opacity:0.13;}</style><linearGradient id="linear-gradient" x1="16.23" y1="64.48" x2="85" y2="64.48" gradientUnits="userSpaceOnUse"><stop offset="0" stop-color="#fc3"/><stop offset="0.69" stop-color="#ff3"/><stop offset="1" stop-color="#cc3"/></linearGradient><clipPath id="clip-path" transform="translate(0)"><polygon class="cls-1" points="19.18 56.51 82.06 56.51 82.06 77.18 19.18 77.18 19.18 56.51"/></clipPath><linearGradient id="linear-gradient-2" x1="48.89" y1="32.54" x2="53.16" y2="32.54" gradientUnits="userSpaceOnUse"><stop offset="0" stop-color="#fc3"/><stop offset="0.66" stop-color="#ff6"/><stop offset="1" stop-color="#cc3"/></linearGradient><linearGradient id="linear-gradient-3" x1="48.89" y1="35.66" x2="53.16" y2="35.66" xlink:href="#linear-gradient-2"/><linearGradient id="linear-gradient-4" x1="48.89" y1="38.29" x2="53.16" y2="38.29" xlink:href="#linear-gradient-2"/></defs><title>OCEAN 4 ALL</title><g class="cls-2"><g id="svg140"><path id="rect2" class="cls-1" d="M0,0H100V100H0Z" transform="translate(0)"/><path id="polygon2053" class="cls-3" d="M16.23,46.09H26.54V37.5H38v8.59h6.39V37.5H55.84v8.59h7V37.5H74.35v8.59H85V72.57L50.19,91.46,16.25,71.87Z" transform="translate(0)"/><path id="path2129" class="cls-4" d="M50,.13,6.81,25.06V74.94l8.48,4.89.16.09L50,99.88,93.19,74.94V25.06ZM86.28,70.85l-.8.46-.7.4-2.07,1.19,0,0h0l-2.8,1.61-1.47.85L76,76.77l-1.22.7-2.32,1.33-.87.51-.3.17-2.95,1.7-.19.1-.1.06,0,0h0l-.33.19-.25.14-.17.1-.43.24-.27.17-.29.16-.41.24-.2.11h0l-.36.21h0l-.36.21-1,.57-.62.36-.49.28-.17.09-.18.11h0l-.3.17-1.82,1L60,86l-.52.3-.51.3-.58.33L56.52,88l-3,1.73-.19.11-.39.23-.54.31-.07,0-1.41.8-.24.14,0,0-.11.06-.15.08h0l-.11-.06-1-.58-.67-.38h0l-.71-.42L47.72,90l0,0-.48-.27-.13-.08-2.62-1.51,0,0-1.61-.93-1-.55-.3-.17-1.45-.84-2.49-1.43-.34-.2-.06,0,0,0-.1-.06-.24-.14-.14-.08-.69-.4-1-.61-.68-.39-1.49-.87h0l-.15-.08-.08-.05-.12-.06-.05,0-.54-.31-4.19-2.42L25,76.9l-1-.58-.36-.2-1.24-.72-1.47-.85-.42-.24L20,74l-3.37-1.95L16.49,72l-.58-.33-1.34-.78-.06,0V29.45l1.2-.69,3.3-1.9,2.32-1.34.78-.45L24,24h0l2.19-1.26.31-.18,0,0h0l.16-.09.57-.33.32-.18.08,0,.27-.16.1-.06.93-.53.6-.35.57-.33.12-.06.05,0,.18-.11.23-.13.33-.19.19-.12h0l.08,0,.41-.24.21-.12.38-.22,0,0,.39-.22,2.74-1.58.36-.21.41-.23.59-.34,1.7-1h0l.07,0L50,9l.37-.21h0l.83.48,5.06,2.92,2,1.17,1.17.67,2.77,1.6.18.1.81.47L66,17.75l4.13,2.38.08,0,.68.39,1.18.69,1.07.62.62.36.07,0,1.41.81,2.95,1.7h0l.9.52.7.4.39.23.38.22.08,0,.6.35.56.33.42.23,4,2.32Z" transform="translate(0)"/><path id="path2133" class="cls-5" d="M60.94,89.64l1.22-.7.05.1a2.33,2.33,0,0,1,.26.63,1.47,1.47,0,0,1,0,.59,1.55,1.55,0,0,1-.78,1.06,1.67,1.67,0,0,1-1.32.17,1.78,1.78,0,0,1-.4-3.25A1.74,1.74,0,0,1,60.7,88a2.15,2.15,0,0,1,.83.13l-.15.48a1.25,1.25,0,0,0-1.17,0,1.21,1.21,0,0,0-.6.78,1.25,1.25,0,0,0,.14,1,1.2,1.2,0,0,0,.82.61,1.22,1.22,0,0,0,.89-.12,1,1,0,0,0,.46-.56.92.92,0,0,0,0-.7l-.74.42Z" transform="translate(0)"/><path id="rect2135" class="cls-5" d="M62.93,86.61l.45-.26,1.7,3-.45.26Z" transform="translate(0)"/><path id="polygon2137" class="cls-5" d="M65,86l-.24-.42,1.8-1,.24.42-.68.39,1.46,2.53-.44.26-1.46-2.53Z" transform="translate(0)"/><path id="path2139" class="cls-6" d="M70.17,82.65l.3.53a1.42,1.42,0,0,0-1,.14,1.18,1.18,0,0,0-.58.77,1.27,1.27,0,0,0,.14,1,1.24,1.24,0,0,0,.76.6,1.2,1.2,0,0,0,1-.12,1.1,1.1,0,0,0,.35-.31,1.25,1.25,0,0,0,.13-.21,2.54,2.54,0,0,0,.12-.28l.31.54A1.87,1.87,0,0,1,71,86a1.75,1.75,0,0,1-2.39-.63h0a1.76,1.76,0,0,1-.2-1.22,1.7,1.7,0,0,1,.88-1.23,1.73,1.73,0,0,1,.89-.23" transform="translate(0)"/><path id="path2141" class="cls-7" d="M72.33,82.52a1.67,1.67,0,0,1-.16-1.33A1.74,1.74,0,0,1,73,80.1a1.78,1.78,0,0,1,2.42.65,1.68,1.68,0,0,1,.17,1.34,1.8,1.8,0,0,1-2.1,1.28,1.68,1.68,0,0,1-1.16-.86m.45-.25a1.23,1.23,0,0,0,.79.61A1.26,1.26,0,0,0,75.11,82a1.32,1.32,0,0,0-.91-1.58,1.2,1.2,0,0,0-1,.13,1.21,1.21,0,0,0-.59.77,1.23,1.23,0,0,0,.13,1" transform="translate(0)"/><path id="rect2143" class="cls-6" d="M76.16,79l.45-.26,1.7,3-.45.26Z" transform="translate(0)"/><path id="polygon2145" class="cls-6" d="M80.93,76.25l1.8,3.13-3.45-1,1.19,2.07L80,80.7l-1.82-3.15,3.45,1L80.49,76.5Z" transform="translate(0)"/><polygon class="cls-8" points="50.46 10.39 15.96 30.3 15.96 41.36 84.81 44.45 84.81 30.3 50.46 10.39"/><polygon class="cls-9" points="16.04 42.53 84.79 45.56 84.79 36.51 16.04 39.63 16.04 42.53"/><polygon class="cls-9" points="71.64 34.11 16.04 36.87 16.04 32.99 71.64 34.11"/><polygon class="cls-8" points="44.14 47.13 84.88 49.89 84.88 46.01 44.14 47.13"/><polygon class="cls-8" points="57.03 49.08 16.04 51.83 16.04 47.95 57.03 49.08"/><polygon class="cls-9" points="16.04 31.26 81.83 28.56 81.83 32.36 16.04 31.69 16.04 31.26"/><polygon class="cls-8" points="44.07 27.63 78.83 29.38 78.83 26.92 44.07 27.63"/><polygon class="cls-9" points="37.83 42.17 84.79 44.35 84.79 40.47 37.83 42.17"/><path class="cls-5" d="M47.38,56.43a2.25,2.25,0,0,1-.6-4.43,4.51,4.51,0,0,1,4.48-5,4.49,4.49,0,0,1,2.86,1,3.92,3.92,0,0,1,3.38-3.16,3.74,3.74,0,0,1,7.27.06,2,2,0,0,1,3,1.52,2.66,2.66,0,0,1,3.06.3A3.38,3.38,0,0,1,76.18,46a3.56,3.56,0,0,1,6-2.1,3.78,3.78,0,0,1,2.9-1.35V56.43H47.38Z" transform="translate(0)"/><path class="cls-5" d="M50.62,56.43a2,2,0,0,0,2.06-1.84,1.89,1.89,0,0,0-1.52-1.78,3.32,3.32,0,0,0,0-.43,3.93,3.93,0,0,0-4.13-3.68,4.43,4.43,0,0,0-2.62.84,3.45,3.45,0,0,0-3.1-2.58,3.54,3.54,0,0,0-6.66.05,2,2,0,0,0-.92-.22A1.75,1.75,0,0,0,32,48.24,2.65,2.65,0,0,0,30.75,48a2.61,2.61,0,0,0-1.59.53,3.17,3.17,0,0,0-2.7-1.41,3.28,3.28,0,0,0-2.22.83A3.16,3.16,0,0,0,21,45.38a3.47,3.47,0,0,0-2.26.81,3.64,3.64,0,0,0-2.66-1.1V56.43H50.62Z" transform="translate(0)"/><g id="_371128936" data-name=" 371128936"><path id="_371186912" data-name=" 371186912" class="cls-5" d="M23.64,35.38c-.11,0-.13,0-.23.09a.94.94,0,0,1-.9-.19.62.62,0,0,0-.22,0l.27-.11c-.18-.12-.55,0-.77-.06l-.13,0,0,0h0s0,0,0-.07a1.63,1.63,0,0,0,.81,0c.45,0,.24.17.63.14l.1-.14s0,0,0,0,0,0,0,0,.12-.08.2-.12c.31-.15.8-.26,1.24-.48-.14.28-.56.42-.74.51s-.31.19-.31.33l.51.15c-.08.13-.29.12-.44.12Z" transform="translate(0)"/><path id="_371186792" data-name=" 371186792" class="cls-5" d="M32.58,28.48c-.11,0-.13,0-.23.09a.94.94,0,0,1-.9-.19.62.62,0,0,0-.22,0l.27-.11c-.18-.12-.55,0-.77-.06l-.13,0,0,0h0s0,0,0-.07a1.63,1.63,0,0,0,.81,0c.45,0,.24.17.63.14l.1-.14s0,0,0,0,0,0,0,0,.12-.08.2-.12c.31-.15.8-.26,1.24-.48-.14.28-.56.42-.74.51s-.31.19-.31.33l.51.15c-.08.13-.29.12-.44.12Z" transform="translate(0)"/><path id="_371129424" data-name=" 371129424" class="cls-5" d="M70.73,36.27c-.11,0-.13,0-.23.09a.94.94,0,0,1-.9-.19.62.62,0,0,0-.22,0l.27-.11c-.18-.12-.55,0-.77-.06l-.13,0,0,0h0s0,0,0-.07a1.63,1.63,0,0,0,.81,0c.45,0,.24.17.63.14l.1-.14s0,0,0,0,0,0,0,0,.12-.08.2-.12c.31-.15.8-.26,1.24-.48-.14.28-.56.42-.74.51s-.31.19-.31.33l.51.15c-.08.13-.29.12-.44.12Z" transform="translate(0)"/><path id="_371129304" data-name=" 371129304" class="cls-5" d="M64.3,29.27c-.11,0-.13,0-.23.09a.94.94,0,0,1-.9-.19.62.62,0,0,0-.22,0l.27-.11c-.18-.12-.55,0-.77-.06l-.13,0,0,0h0s0,0,0-.07a1.63,1.63,0,0,0,.81,0c.45,0,.24.17.63.14l.1-.14s0,0,0,0,0,0,0,0,.12-.08.2-.12c.31-.15.8-.26,1.24-.48-.14.28-.56.42-.74.51s-.31.19-.31.33l.51.15c-.08.13-.29.12-.44.12Z" transform="translate(0)"/><path id="_371129184" data-name=" 371129184" class="cls-5" d="M77.78,27.81c-.11,0-.13,0-.23.09a.94.94,0,0,1-.9-.19.62.62,0,0,0-.22,0l.27-.11c-.18-.12-.55,0-.77-.06l-.13,0,0,0h0s0,0,0-.07a1.63,1.63,0,0,0,.81,0c.45,0,.24.17.63.14l.1-.14s0,0,0,0,0,0,0,0,.12-.08.2-.12c.31-.15.8-.26,1.24-.48-.14.28-.56.42-.74.51s-.31.19-.31.33l.51.15c-.08.13-.29.12-.44.12Z" transform="translate(0)"/><path id="_371129016" data-name=" 371129016" class="cls-5" d="M40.8,35.06c-.11,0-.13,0-.23.09a.94.94,0,0,1-.9-.19.62.62,0,0,0-.22,0l.27-.11c-.18-.12-.55,0-.77-.06l-.13,0,0,0h0s0,0,0-.07a1.63,1.63,0,0,0,.81,0c.45,0,.24.17.63.14l.1-.14s0,0,0,0,0,0,0,0,.12-.08.2-.12c.31-.15.8-.26,1.24-.48-.14.28-.56.42-.74.51s-.31.19-.31.33l.51.15c-.08.13-.29.12-.44.12Z" transform="translate(0)"/></g><polygon class="cls-10" points="15.91 56.39 84.84 56.39 84.84 70.02 15.92 70.02 15.91 70.02 15.91 70.01 15.91 56.39"/><polygon class="cls-11" points="19.18 54.78 82.06 54.78 82.06 56.51 19.18 56.51 19.18 54.78"/><polygon class="cls-12" points="59.7 54.5 42.68 54.5 32.69 69.67 69.69 69.67 59.7 54.5"/><polygon class="cls-13" points="48.38 54.5 46.08 54.5 43.91 57.87 36.32 69.67 41.43 69.67 46.4 58.82 48.38 54.5"/><polygon class="cls-13" points="34.3 69.67 41.66 58.24 42.14 57.5 42.24 57.34 44.07 54.5 43.66 54.5 41.33 57.57 40.82 58.25 40.48 58.69 36.15 64.42 32.69 69.67 34.3 69.67"/><path class="cls-13" d="M56.57,57.34l-.21-2.84H52.51L52,59.91l-1,9.76h6.46Z" transform="translate(0)"/><path class="cls-13" d="M59.7,54.5H59l.31,1.68c.64,3.45,1.49,8.17,2.45,13.48h8Z" transform="translate(0)"/><path class="cls-13" d="M48.38,60.38l.28-.76.25-.67,1.65-4.45h-.1l-1.78,4.33-.25.59-.33.79-3.9,9.45h.74Z" transform="translate(0)"/><path class="cls-13" d="M76.85,69.55a3.06,3.06,0,0,1,.64.34c.13.11.24.24.37.35a2.61,2.61,0,0,0,1.21.48.11.11,0,0,0,0-.12.43.43,0,0,0-.11-.08.74.74,0,0,1-.3-.43,2.61,2.61,0,0,1,0-.45h0l.1,0a1.49,1.49,0,0,0,.43.08l.45,0h0s0-.07,0-.11a2.49,2.49,0,0,1-.13-.64.81.81,0,0,1,.21-.6s0-.06,0-.08a1,1,0,0,0-.66.13,4,4,0,0,0-.51.43,2,2,0,0,1,.27-.87c0-.06.2-.28.09-.3s-.26.18-.34.21c-.27.14-.56.2-.83.35a1.48,1.48,0,0,0-.59.62,1,1,0,0,1-.29.44c-.05,0-.12.09-.09.14Z" transform="translate(0)"/><path class="cls-12" d="M73.11,66.63a2.33,2.33,0,0,1,.49.26c.1.08.18.18.28.27a2,2,0,0,0,.92.37.08.08,0,0,0,0-.09.33.33,0,0,0-.08-.06.56.56,0,0,1-.23-.32,2,2,0,0,1,0-.34h0l.07,0a1.13,1.13,0,0,0,.33.06l.34,0h0s0-.05,0-.08a1.89,1.89,0,0,1-.1-.48.61.61,0,0,1,.16-.45s0,0,0-.06a.77.77,0,0,0-.5.1,3.05,3.05,0,0,0-.39.32,1.52,1.52,0,0,1,.2-.66s.15-.21.07-.23-.2.13-.25.16-.43.16-.63.27a1.12,1.12,0,0,0-.45.47.79.79,0,0,1-.22.34s-.09.06-.07.1Z" transform="translate(0)"/><path class="cls-13" d="M77,63a1.88,1.88,0,0,1,.4.21c.08.07.15.15.23.22a1.6,1.6,0,0,0,.75.3.07.07,0,0,0,0-.08l-.06-.05a.45.45,0,0,1-.18-.26,1.6,1.6,0,0,1,0-.28h0l.06,0a.92.92,0,0,0,.26,0l.27,0h0s0,0,0-.07a1.53,1.53,0,0,1-.08-.39.5.5,0,0,1,.13-.37s0,0,0,0a.63.63,0,0,0-.41.08,2.47,2.47,0,0,0-.32.26,1.23,1.23,0,0,1,.16-.53s.12-.17.06-.18-.16.11-.21.13-.35.13-.51.22a.91.91,0,0,0-.36.38.64.64,0,0,1-.18.27S77,63,77,63Z" transform="translate(0)"/><polygon class="cls-10" points="15.91 70.01 15.93 70.03 50.38 89.9 84.85 70.03 84.78 69.95 16.09 69.71 15.91 70.01"/><path class="cls-13" d="M37.19,64.58a2.33,2.33,0,0,0-.49.26c-.1.08-.18.18-.28.27a2,2,0,0,1-.92.37.08.08,0,0,1,0-.09.33.33,0,0,1,.08-.06.56.56,0,0,0,.23-.32,2,2,0,0,0,0-.34h0l-.07,0a1.13,1.13,0,0,1-.33.06l-.34,0h0s0-.05,0-.08a1.89,1.89,0,0,0,.1-.48.61.61,0,0,0-.16-.45s0,0,0-.06a.77.77,0,0,1,.5.1,3.05,3.05,0,0,1,.39.32,1.52,1.52,0,0,0-.2-.66s-.15-.21-.07-.23.2.13.25.16.43.16.63.27a1.12,1.12,0,0,1,.45.47.79.79,0,0,0,.22.34s.09.06.07.1Z" transform="translate(0)"/><path class="cls-12" d="M28.37,69.45a1.41,1.41,0,0,0-.3.16l-.17.16a1.21,1.21,0,0,1-.56.22,0,0,0,0,1,0-.06l0,0a.34.34,0,0,0,.14-.2,1.2,1.2,0,0,0,0-.21h0l0,0a.69.69,0,0,1-.2,0l-.21,0h0s0,0,0-.05a1.15,1.15,0,0,0,.06-.29.37.37,0,0,0-.1-.28s0,0,0,0a.47.47,0,0,1,.31.06,1.86,1.86,0,0,1,.24.2.93.93,0,0,0-.12-.4s-.09-.13,0-.14.12.08.15.1.26.09.38.16a.68.68,0,0,1,.27.28.48.48,0,0,0,.13.21s.06,0,0,.06Z" transform="translate(0)"/><path class="cls-13" d="M68.71,61l0,0a.74.74,0,0,0,.11.16,1.42,1.42,0,0,1,.25.24.79.79,0,0,1,.08.32,3.93,3.93,0,0,0,.18.74l.2.63s.05.08.08.06a.06.06,0,0,0,0,0,.76.76,0,0,0-.06-.31,6.51,6.51,0,0,1-.3-1.23.74.74,0,0,0-.15-.42,1.42,1.42,0,0,0-.18-.14l-.11-.11,0,0a.42.42,0,0,1,.29-.06,2.41,2.41,0,0,0,.16.28,2,2,0,0,1,.3.74c0,.1,0,.2,0,.3a1.77,1.77,0,0,0,.21.6,1.56,1.56,0,0,0-.08-.6c0-.25,0-.53-.13-.72s-.14-.12-.2-.19a1.08,1.08,0,0,1-.13-.29l0-.09a1.34,1.34,0,0,0,.26,0,6.25,6.25,0,0,0,.32.67c.05.16.07.33.12.49a3.11,3.11,0,0,1,.14.44c0,.1,0,.21,0,.31s.07.19.1.28a.73.73,0,0,1,0,.31s0,.12.06.11l0,0a.37.37,0,0,0,0-.31,1.73,1.73,0,0,1-.1-.54,1.25,1.25,0,0,0,0-.28,3.06,3.06,0,0,0-.17-.37c-.07-.18-.06-.39-.15-.57s-.16-.22-.21-.35a1.2,1.2,0,0,1,0-.18l.05,0a1,1,0,0,0,.19-.12A.82.82,0,0,0,70,61a3.35,3.35,0,0,1,.22.41c.07.18.07.38.14.56a2.64,2.64,0,0,1,.15.36c0,.13,0,.29.1.4a.18.18,0,0,0,0-.19c0-.07-.06-.12-.08-.19s0-.27-.06-.4a2.07,2.07,0,0,1-.13-.27c0-.09,0-.18,0-.27a.71.71,0,0,0-.12-.26,2.77,2.77,0,0,1-.25-.55h0l.11,0a1.41,1.41,0,0,1,.19,0c.07,0,.15,0,.17-.07s0-.13-.09-.19a1.81,1.81,0,0,1-.18-.41,1,1,0,0,0-1.11-.53.77.77,0,0,0-.54.34,1.09,1.09,0,0,0-.1.34l-.08.41a.71.71,0,0,0,0,.27C68.35,60.9,68.55,61.09,68.71,61Z" transform="translate(0)"/><path class="cls-12" d="M31.52,58.64l.05,0a.67.67,0,0,0,0,.17,1.29,1.29,0,0,1,.15.28.72.72,0,0,1,0,.3,3.57,3.57,0,0,0-.06.69v.6s0,.09.05.07a.05.05,0,0,0,0,0,.69.69,0,0,0,0-.29,5.92,5.92,0,0,1,.1-1.15.68.68,0,0,0,0-.41,1.29,1.29,0,0,0-.12-.17l-.06-.13h0a.39.39,0,0,1,.27,0,2.19,2.19,0,0,0,.05.29,1.82,1.82,0,0,1,0,.72c0,.09-.06.17-.08.26a1.61,1.61,0,0,0,0,.57,1.42,1.42,0,0,0,.11-.54c0-.22.18-.45.1-.66s-.09-.15-.11-.23a1,1,0,0,1,0-.28s0-.05,0-.09a1.21,1.21,0,0,0,.22.09,5.68,5.68,0,0,0,.08.67c0,.15,0,.3,0,.46a2.83,2.83,0,0,1,0,.42c0,.09-.05.18-.06.27s0,.18,0,.27a.66.66,0,0,1-.07.28s0,.11,0,.11l0,0a.34.34,0,0,0,.07-.27,1.58,1.58,0,0,1,.07-.5,1.14,1.14,0,0,0,.06-.24,2.78,2.78,0,0,0,0-.37c0-.18.06-.35,0-.53s-.08-.24-.08-.36a1.09,1.09,0,0,1,0-.17h0a.9.9,0,0,0,.2-.05.74.74,0,0,0,0,.32,3,3,0,0,1,.07.42c0,.18-.05.35,0,.52a2.4,2.4,0,0,1,0,.35c0,.12-.08.25,0,.37a.17.17,0,0,0,.08-.15c0-.06,0-.12,0-.18s.07-.24.07-.36a1.88,1.88,0,0,1,0-.27c0-.08.06-.15.07-.23a.64.64,0,0,0,0-.26,2.52,2.52,0,0,1-.06-.55h.1a1.29,1.29,0,0,1,.15.1.13.13,0,0,0,.16,0c0-.05,0-.12,0-.19a1.65,1.65,0,0,1,0-.4.93.93,0,0,0-.8-.78.7.7,0,0,0-.57.13,1,1,0,0,0-.19.26l-.19.33a.65.65,0,0,0-.09.22C31.24,58.46,31.36,58.69,31.52,58.64Z" transform="translate(0)"/><path class="cls-12" d="M75.11,59.35l0,0a.62.62,0,0,1-.07.14,1.13,1.13,0,0,0-.17.22.72.72,0,0,0,0,.27,3.56,3.56,0,0,1-.07.63l-.09.54s0,.07-.06.06a.05.05,0,0,1,0,0,.69.69,0,0,1,0-.26,5.91,5.91,0,0,0,.11-1.05.66.66,0,0,1,.07-.36,1.09,1.09,0,0,1,.13-.13l.07-.1h0a.3.3,0,0,0-.22,0,2.08,2.08,0,0,1-.09.25,1.77,1.77,0,0,0-.16.64c0,.08,0,.16,0,.25a1.59,1.59,0,0,1-.1.51,1.44,1.44,0,0,1,0-.5c0-.21-.07-.44,0-.61s.09-.11.13-.18a1,1,0,0,0,.07-.25l0-.08-.19,0a5.48,5.48,0,0,1-.18.58c0,.14,0,.28,0,.42a2.8,2.8,0,0,0-.06.37c0,.09,0,.17,0,.26s0,.16-.05.24a.67.67,0,0,0,0,.26s0,.1,0,.09l0,0a.34.34,0,0,1,0-.26,1.58,1.58,0,0,0,0-.46,1.15,1.15,0,0,1,0-.23,2.68,2.68,0,0,1,.1-.32c0-.16,0-.33.06-.48s.1-.2.13-.31a1.09,1.09,0,0,0,0-.16h0a.74.74,0,0,1-.16-.09.73.73,0,0,1,0,.29,2.91,2.91,0,0,0-.13.36c0,.16,0,.32-.05.48a2.33,2.33,0,0,0-.08.31c0,.11,0,.24,0,.34a.17.17,0,0,1,0-.16c0-.06,0-.11,0-.16s0-.23,0-.34a1.82,1.82,0,0,0,.07-.23c0-.07,0-.15,0-.22A.62.62,0,0,1,74,59.6a2.44,2.44,0,0,0,.14-.48H74a1,1,0,0,0-.14.05.1.1,0,0,1-.13,0c0-.06,0-.11,0-.16a1.6,1.6,0,0,0,.1-.36.76.76,0,0,1,.78-.53.58.58,0,0,1,.44.23,1,1,0,0,1,.11.27l.1.33a.66.66,0,0,1,0,.22C75.36,59.25,75.23,59.42,75.11,59.35Z" transform="translate(0)"/><path class="cls-13" d="M21.88,65a2.57,2.57,0,0,0,.35-.18h0a.56.56,0,0,0,.14-.15c.12-.19.15-.44.26-.64a1.33,1.33,0,0,1,.37-.43l.32-.22.23-.15.75-.5.3-.19a1.36,1.36,0,0,1,.63-.21c.16,0,.31,0,.47,0h.11a3.36,3.36,0,0,1,.39,0,2.29,2.29,0,0,1,.45.06,1.61,1.61,0,0,0,.3,0,.57.57,0,0,0,.28-.07c.29-.16.35-.58.63-.76a.68.68,0,0,1,.37-.09,1.08,1.08,0,0,1,.5.13l.18.12c.06,0,.24.19.24.27h0c0,.07-.16.18-.2.25a1.29,1.29,0,0,1-.8.54.62.62,0,0,0-.18.07.58.58,0,0,0-.11.1l-.1.11a.52.52,0,0,1,.23,0,.31.31,0,0,1,.13.06.35.35,0,0,1,.1.22,1,1,0,0,1-.3.8,2.67,2.67,0,0,1-.62.47,1.15,1.15,0,0,1,0,.29,2.29,2.29,0,0,1-.22.49,3.37,3.37,0,0,1-.37.58,1.71,1.71,0,0,1-1.49.57c-.11,0-.25-.08-.23-.19s.11-.12.19-.16a1.58,1.58,0,0,0,.65-.73,1.64,1.64,0,0,0,.24-.6,8.12,8.12,0,0,0-1.16.41,3.2,3.2,0,0,1-1,.06.67.67,0,0,1-.43,0l-.11,0a2.6,2.6,0,0,0-.38,0,1,1,0,0,0-.28.08,1.38,1.38,0,0,1-.3.16.66.66,0,0,1-.32,0c-.17,0-.37-.13-.39-.31A.35.35,0,0,1,21.88,65Z" transform="translate(0)"/><path class="cls-14" d="M50,70.09a1.87,1.87,0,0,0,.1.27h0a.41.41,0,0,0,.1.11c.13.1.3.14.44.23a1,1,0,0,1,.28.3c0,.08.09.16.14.25l.09.18.3.58.11.23a1,1,0,0,1,.1.47c0,.11,0,.22-.06.34a.79.79,0,0,0,0,.08,2.44,2.44,0,0,1,0,.29,1.66,1.66,0,0,1-.08.32,1.17,1.17,0,0,0,0,.22.41.41,0,0,0,0,.21c.09.22.39.29.5.51a.49.49,0,0,1,0,.27.78.78,0,0,1-.13.35l-.1.12s-.16.16-.21.15h0c-.05,0-.12-.13-.17-.17a.93.93,0,0,1-.33-.62.45.45,0,0,0,0-.14L51,74.55l-.07-.08a.37.37,0,0,1,0,.16.23.23,0,0,1-.06.09.25.25,0,0,1-.17.05.76.76,0,0,1-.55-.28,1.94,1.94,0,0,1-.29-.49L49.64,74a1.66,1.66,0,0,1-.34-.2,2.45,2.45,0,0,1-.39-.31,1.24,1.24,0,0,1-.3-1.12c0-.08.07-.17.15-.15s.08.09.1.15a1.15,1.15,0,0,0,.48.52,1.19,1.19,0,0,0,.42.22,5.89,5.89,0,0,0-.21-.87,2.32,2.32,0,0,1,0-.72.49.49,0,0,1,0-.31l0-.08a1.89,1.89,0,0,0,0-.28.71.71,0,0,0,0-.2,1,1,0,0,1-.09-.23.48.48,0,0,1,.05-.23c0-.12.13-.26.25-.25A.26.26,0,0,1,50,70.09Z" transform="translate(0)"/><path class="cls-13" d="M43.9,77.77a2.31,2.31,0,0,0-.49.26c-.1.08-.18.18-.28.27a2,2,0,0,1-.92.37.08.08,0,0,1,0-.09.33.33,0,0,1,.08-.06.56.56,0,0,0,.23-.32,2,2,0,0,0,0-.34h0l-.07,0a1.13,1.13,0,0,1-.32.06l-.34,0h0s0-.05,0-.08a1.88,1.88,0,0,0,.1-.48.61.61,0,0,0-.16-.45s0,0,0-.06a.77.77,0,0,1,.5.1,3,3,0,0,1,.39.32,1.51,1.51,0,0,0-.2-.66s-.15-.21-.07-.23.2.13.25.16.43.15.62.27a1.12,1.12,0,0,1,.44.46.79.79,0,0,0,.22.34s.09.06.07.1Z" transform="translate(0)"/><path class="cls-12" d="M34.54,72.69a1.76,1.76,0,0,0-.37.19c-.08.06-.14.14-.21.2a1.5,1.5,0,0,1-.7.28.06.06,0,0,1,0-.07l.06,0A.42.42,0,0,0,33.5,73a1.49,1.49,0,0,0,0-.26h0l-.06,0a.85.85,0,0,1-.25,0l-.26,0h0s0,0,0-.06a1.43,1.43,0,0,0,.08-.36.46.46,0,0,0-.12-.34s0,0,0,0a.58.58,0,0,1,.38.07,2.31,2.31,0,0,1,.29.25,1.15,1.15,0,0,0-.15-.5s-.11-.16-.05-.17.15.1.19.12.32.12.47.2a.85.85,0,0,1,.34.35.6.6,0,0,0,.17.25s.07,0,.05.08Z" transform="translate(0)"/><path class="cls-13" d="M51.38,69.08a1.42,1.42,0,0,0-.3.16l-.17.16a1.21,1.21,0,0,1-.56.22,0,0,0,0,1,0-.06l0,0a.34.34,0,0,0,.14-.2,1.21,1.21,0,0,0,0-.21h0l0,0a.69.69,0,0,1-.2,0l-.21,0h0s0,0,0-.05a1.15,1.15,0,0,0,.06-.29.37.37,0,0,0-.1-.28s0,0,0,0a.47.47,0,0,1,.31.06,1.87,1.87,0,0,1,.24.2.93.93,0,0,0-.12-.4s-.09-.13,0-.14.12.08.16.1.26.09.38.16a.69.69,0,0,1,.27.29.48.48,0,0,0,.14.21s.06,0,0,.06Z" transform="translate(0)"/><path class="cls-12" d="M68.32,74.82a1.07,1.07,0,0,1,.22.12l.13.12a.91.91,0,0,0,.42.17,0,0,0,0,0,0,0l0,0a.26.26,0,0,1-.1-.15.91.91,0,0,1,0-.16h0l0,0a.52.52,0,0,0,.15,0h.17s0,0,0,0a.87.87,0,0,1,0-.22.28.28,0,0,1,.07-.21s0,0,0,0a.36.36,0,0,0-.23,0,1.4,1.4,0,0,0-.18.15.7.7,0,0,1,.09-.3s.07-.1,0-.1-.09.06-.12.07-.2.07-.29.12a.52.52,0,0,0-.2.21.36.36,0,0,1-.1.16s0,0,0,0Z" transform="translate(0)"/><path class="cls-13" d="M37.86,68.42l0,0a.56.56,0,0,1-.08.12,1.07,1.07,0,0,0-.19.18.6.6,0,0,0-.06.24,3,3,0,0,1-.14.56L37.2,70s0,.06-.06,0a0,0,0,0,1,0,0,.57.57,0,0,1,0-.23,4.91,4.91,0,0,0,.23-.93.56.56,0,0,1,.11-.32,1.07,1.07,0,0,1,.14-.1l.08-.08h0a.32.32,0,0,0-.22,0,1.82,1.82,0,0,1-.12.21,1.51,1.51,0,0,0-.23.56c0,.07,0,.15,0,.22a1.34,1.34,0,0,1-.16.45,1.18,1.18,0,0,1,.06-.45c0-.19,0-.4.09-.55s.11-.09.15-.15a.82.82,0,0,0,.1-.22l0-.07h-.19a4.72,4.72,0,0,1-.24.5c0,.12-.05.25-.09.37a2.35,2.35,0,0,0-.1.33c0,.08,0,.16,0,.23s-.06.14-.08.21a.55.55,0,0,0,0,.24s0,.09,0,.08l0,0a.28.28,0,0,1,0-.23,1.31,1.31,0,0,0,.08-.41.94.94,0,0,1,0-.21,2.31,2.31,0,0,1,.13-.28c.06-.14,0-.29.11-.43s.12-.17.16-.26a.91.91,0,0,0,0-.14h0a.75.75,0,0,1-.14-.09.62.62,0,0,1-.08.25,2.53,2.53,0,0,0-.17.31c-.05.14-.05.29-.11.42a2,2,0,0,0-.12.27c0,.1,0,.22-.07.3a.14.14,0,0,1,0-.14s0-.09.06-.14,0-.21,0-.3a1.56,1.56,0,0,0,.1-.2c0-.07,0-.13,0-.2a.53.53,0,0,1,.09-.2,2.09,2.09,0,0,0,.19-.42h0l-.08,0a1.07,1.07,0,0,0-.15,0s-.11,0-.13-.06,0-.1.07-.14a1.37,1.37,0,0,0,.14-.31.78.78,0,0,1,.84-.4.58.58,0,0,1,.41.25.82.82,0,0,1,.08.25l.06.31a.54.54,0,0,1,0,.2C38.13,68.36,38,68.51,37.86,68.42Z" transform="translate(0)"/><path class="cls-12" d="M65.93,66.65h0a.51.51,0,0,1,0,.12,1,1,0,0,0-.11.21.54.54,0,0,0,0,.23,2.69,2.69,0,0,1,0,.52v.45s0,.07,0,.06l0,0a.52.52,0,0,1,0-.22,4.47,4.47,0,0,0-.07-.87.51.51,0,0,1,0-.31,1,1,0,0,1,.09-.13l0-.1h0a.29.29,0,0,0-.2,0,1.66,1.66,0,0,1,0,.22,1.37,1.37,0,0,0,0,.55c0,.07,0,.13.06.2a1.22,1.22,0,0,1,0,.43,1.07,1.07,0,0,1-.08-.41c0-.17-.14-.34-.08-.5s.07-.11.09-.17a.74.74,0,0,0,0-.22s0,0,0-.07l-.16.07a4.29,4.29,0,0,1-.06.5c0,.12,0,.23,0,.35a2.13,2.13,0,0,0,0,.31c0,.07,0,.14,0,.21s0,.14,0,.21a.5.5,0,0,0,.05.21s0,.08,0,.08h0a.26.26,0,0,1,0-.21,1.19,1.19,0,0,0-.05-.38.86.86,0,0,1,0-.18,2.1,2.1,0,0,1,0-.28c0-.13,0-.27,0-.4s.06-.18.06-.27a.82.82,0,0,0,0-.13h0l-.15,0a.56.56,0,0,1,0,.24,2.3,2.3,0,0,0-.05.31c0,.13,0,.26,0,.4a1.81,1.81,0,0,0,0,.27c0,.09.06.19,0,.28a.13.13,0,0,1-.06-.12s0-.09,0-.14-.05-.18,0-.27a1.42,1.42,0,0,0,0-.2c0-.06,0-.11-.06-.17a.48.48,0,0,1,0-.19,1.9,1.9,0,0,0,0-.42h-.07a1,1,0,0,0-.12.07.1.1,0,0,1-.12,0s0-.09,0-.14a1.25,1.25,0,0,0,0-.31.71.71,0,0,1,.6-.59.53.53,0,0,1,.43.1.75.75,0,0,1,.14.2l.14.25a.49.49,0,0,1,.07.17C66.15,66.52,66.06,66.69,65.93,66.65Z" transform="translate(0)"/><path class="cls-12" d="M63.92,73.63a2.33,2.33,0,0,1,.49.26c.1.08.18.18.28.27a2,2,0,0,0,.92.37.08.08,0,0,0,0-.09.33.33,0,0,0-.08-.06.56.56,0,0,1-.23-.32,2,2,0,0,1,0-.34h0l.07,0a1.13,1.13,0,0,0,.33.06l.34,0h0s0-.05,0-.08a1.89,1.89,0,0,1-.1-.48.61.61,0,0,1,.16-.45s0,0,0-.06a.77.77,0,0,0-.5.1,3.05,3.05,0,0,0-.39.32,1.52,1.52,0,0,1,.2-.66s.15-.21.07-.23-.2.13-.25.16-.43.16-.63.27a1.12,1.12,0,0,0-.45.47.79.79,0,0,1-.22.34s-.09.06-.07.1Z" transform="translate(0)"/><path class="cls-13" d="M59.52,68l0,0a.74.74,0,0,0,.11.16,1.42,1.42,0,0,1,.25.24.79.79,0,0,1,.08.32,3.93,3.93,0,0,0,.18.74l.2.63s.05.08.08.06a.06.06,0,0,0,0,0,.76.76,0,0,0-.06-.31,6.51,6.51,0,0,1-.3-1.23.74.74,0,0,0-.15-.42,1.42,1.42,0,0,0-.18-.14l-.11-.11,0,0a.42.42,0,0,1,.29-.06,2.41,2.41,0,0,0,.16.28,2,2,0,0,1,.3.74c0,.1,0,.2,0,.3a1.77,1.77,0,0,0,.21.6,1.56,1.56,0,0,0-.08-.6c0-.25,0-.53-.13-.72s-.14-.12-.2-.19a1.08,1.08,0,0,1-.13-.29l0-.09a1.34,1.34,0,0,0,.26,0,6.25,6.25,0,0,0,.32.67c.05.16.07.33.12.49a3.11,3.11,0,0,1,.14.44c0,.1,0,.21,0,.31s.07.19.1.28a.73.73,0,0,1,0,.31s0,.12.06.11l0,0a.37.37,0,0,0,0-.31,1.73,1.73,0,0,1-.1-.54,1.25,1.25,0,0,0,0-.28,3.06,3.06,0,0,0-.17-.37c-.07-.18-.06-.39-.15-.57s-.16-.22-.21-.35a1.2,1.2,0,0,1,0-.18l.05,0a1,1,0,0,0,.19-.12.82.82,0,0,0,.11.34,3.35,3.35,0,0,1,.22.41c.07.18.07.38.14.56a2.64,2.64,0,0,1,.15.36c0,.13,0,.29.1.4a.18.18,0,0,0,0-.19c0-.07-.06-.12-.08-.19s0-.27-.06-.4a2.07,2.07,0,0,1-.13-.27c0-.09,0-.18,0-.27a.71.71,0,0,0-.12-.26,2.77,2.77,0,0,1-.25-.55h0l.11,0a1.41,1.41,0,0,1,.19,0c.07,0,.15,0,.17-.07s0-.13-.09-.19a1.81,1.81,0,0,1-.18-.41,1,1,0,0,0-1.11-.53.77.77,0,0,0-.54.34,1.09,1.09,0,0,0-.1.34l-.08.41a.71.71,0,0,0,0,.27C59.17,67.9,59.37,68.09,59.52,68Z" transform="translate(0)"/><path class="cls-12" d="M49.46,80.76l.05,0a.67.67,0,0,0,0,.17,1.29,1.29,0,0,1,.15.28.72.72,0,0,1,0,.3,3.57,3.57,0,0,0-.06.69v.6s0,.09.05.07a.05.05,0,0,0,0,0,.69.69,0,0,0,0-.29,5.92,5.92,0,0,1,.1-1.15.68.68,0,0,0,0-.41,1.29,1.29,0,0,0-.12-.17l-.06-.13h0a.39.39,0,0,1,.27,0A2.19,2.19,0,0,0,50,81a1.82,1.82,0,0,1,0,.72c0,.09-.06.17-.08.26a1.61,1.61,0,0,0,0,.57,1.42,1.42,0,0,0,.11-.54c0-.22.18-.45.1-.66s-.09-.15-.11-.23a1,1,0,0,1,0-.28s0-.05,0-.09a1.21,1.21,0,0,0,.22.09,5.68,5.68,0,0,0,.08.67c0,.15,0,.3,0,.46a2.83,2.83,0,0,1,0,.42c0,.09-.05.18-.06.27s0,.18,0,.27a.66.66,0,0,1-.07.28s0,.11,0,.11l0,0a.34.34,0,0,0,.07-.27,1.58,1.58,0,0,1,.07-.5,1.14,1.14,0,0,0,.06-.24,2.78,2.78,0,0,0,0-.37c0-.18.06-.35,0-.53s-.08-.24-.08-.36a1.09,1.09,0,0,1,0-.17h0a.9.9,0,0,0,.2-.05.74.74,0,0,0,0,.32,3,3,0,0,1,.07.42c0,.18-.05.35,0,.52a2.4,2.4,0,0,1,0,.35c0,.12-.08.25,0,.37a.17.17,0,0,0,.08-.15c0-.06,0-.12,0-.18s.07-.24.07-.36a1.88,1.88,0,0,1,0-.27c0-.08.06-.15.07-.23a.64.64,0,0,0,0-.26,2.52,2.52,0,0,1-.06-.55h.1a1.29,1.29,0,0,1,.15.1.13.13,0,0,0,.16,0c0-.05,0-.12,0-.19a1.65,1.65,0,0,1,0-.4.93.93,0,0,0-.8-.78.7.7,0,0,0-.57.13,1,1,0,0,0-.19.26l-.19.33a.65.65,0,0,0-.09.22C49.18,80.59,49.29,80.81,49.46,80.76Z" transform="translate(0)"/><path class="cls-12" d="M65.92,66.35l0,0a.62.62,0,0,1-.07.14,1.13,1.13,0,0,0-.17.22.72.72,0,0,0,0,.27,3.56,3.56,0,0,1-.07.63l-.09.54s0,.07-.06.06a.05.05,0,0,1,0,0,.69.69,0,0,1,0-.26,5.91,5.91,0,0,0,.11-1.05.66.66,0,0,1,.07-.36,1.09,1.09,0,0,1,.13-.13l.07-.1h0a.3.3,0,0,0-.22,0,2.08,2.08,0,0,1-.09.25,1.77,1.77,0,0,0-.16.64c0,.08,0,.16,0,.25a1.59,1.59,0,0,1-.1.51,1.44,1.44,0,0,1,0-.5c0-.21-.07-.44,0-.61s.09-.11.13-.18a1,1,0,0,0,.07-.25l0-.08-.19,0a5.48,5.48,0,0,1-.18.58c0,.14,0,.28,0,.42a2.8,2.8,0,0,0-.06.37c0,.09,0,.17,0,.26s0,.16-.05.24a.67.67,0,0,0,0,.26s0,.1,0,.09l0,0a.34.34,0,0,1,0-.26,1.58,1.58,0,0,0,0-.46,1.15,1.15,0,0,1,0-.23,2.68,2.68,0,0,1,.1-.32c0-.16,0-.33.06-.48s.1-.2.13-.31a1.09,1.09,0,0,0,0-.16h0a.74.74,0,0,1-.16-.09.73.73,0,0,1,0,.29,2.91,2.91,0,0,0-.13.36c0,.16,0,.32-.05.48a2.33,2.33,0,0,0-.08.31c0,.11,0,.24,0,.34a.17.17,0,0,1,0-.16c0-.06,0-.11,0-.16s0-.23,0-.34a1.82,1.82,0,0,0,.07-.23c0-.07,0-.15,0-.22a.62.62,0,0,1,.06-.22,2.44,2.44,0,0,0,.14-.48h-.08a1,1,0,0,0-.14.05.1.1,0,0,1-.13,0c0-.06,0-.11,0-.16a1.6,1.6,0,0,0,.1-.36.76.76,0,0,1,.78-.53.58.58,0,0,1,.44.23,1,1,0,0,1,.11.27l.1.33a.66.66,0,0,1,0,.22C66.18,66.25,66,66.42,65.92,66.35Z" transform="translate(0)"/><path class="cls-13" d="M38.23,75.74l0,0a.56.56,0,0,1-.08.12,1.07,1.07,0,0,0-.19.18.6.6,0,0,0-.06.24,3,3,0,0,1-.14.56l-.15.48s0,.06-.06,0a0,0,0,0,1,0,0,.57.57,0,0,1,0-.23,4.91,4.91,0,0,0,.23-.93.56.56,0,0,1,.11-.32,1.07,1.07,0,0,1,.14-.1l.08-.08h0a.32.32,0,0,0-.22,0,1.82,1.82,0,0,1-.12.21,1.51,1.51,0,0,0-.23.56c0,.07,0,.15,0,.22a1.34,1.34,0,0,1-.16.45,1.18,1.18,0,0,1,.06-.45c0-.19,0-.4.09-.55s.11-.09.15-.15a.82.82,0,0,0,.1-.22l0-.07H37.6a4.72,4.72,0,0,1-.24.5c0,.12-.05.25-.09.37a2.35,2.35,0,0,0-.1.33c0,.08,0,.16,0,.23s-.06.14-.08.21a.55.55,0,0,0,0,.24s0,.09,0,.08l0,0a.28.28,0,0,1,0-.23,1.31,1.31,0,0,0,.08-.41.94.94,0,0,1,0-.21,2.31,2.31,0,0,1,.13-.28c.06-.14,0-.29.11-.43s.12-.17.16-.26a.91.91,0,0,0,0-.14h0a.75.75,0,0,1-.14-.09.62.62,0,0,1-.08.25,2.53,2.53,0,0,0-.17.31c-.05.14-.05.29-.11.42a2,2,0,0,0-.12.27c0,.1,0,.22-.07.3a.14.14,0,0,1,0-.14s0-.09.06-.14,0-.21,0-.3a1.56,1.56,0,0,0,.1-.2c0-.07,0-.13,0-.2a.53.53,0,0,1,.09-.2,2.09,2.09,0,0,0,.19-.42h0l-.08,0a1.07,1.07,0,0,0-.15,0s-.11,0-.13-.06,0-.1.07-.14a1.37,1.37,0,0,0,.14-.31.78.78,0,0,1,.84-.4.58.58,0,0,1,.41.25.82.82,0,0,1,.08.25l.06.31a.54.54,0,0,1,0,.2C38.5,75.67,38.35,75.82,38.23,75.74Z" transform="translate(0)"/><path class="cls-12" d="M56.75,73.65h0a.51.51,0,0,1,0,.12,1,1,0,0,0-.11.21.54.54,0,0,0,0,.23,2.69,2.69,0,0,1,0,.52v.45s0,.07,0,.06l0,0a.52.52,0,0,1,0-.22,4.47,4.47,0,0,0-.07-.87.51.51,0,0,1,0-.31,1,1,0,0,1,.09-.13l0-.1h0a.29.29,0,0,0-.2,0,1.66,1.66,0,0,1,0,.22,1.37,1.37,0,0,0,0,.55c0,.07,0,.13.06.2a1.22,1.22,0,0,1,0,.43,1.07,1.07,0,0,1-.08-.41c0-.17-.14-.34-.08-.5s.07-.11.09-.17a.74.74,0,0,0,0-.22s0,0,0-.07l-.16.07a4.29,4.29,0,0,1-.06.5c0,.12,0,.23,0,.35a2.13,2.13,0,0,0,0,.31c0,.07,0,.14,0,.21s0,.14,0,.21a.5.5,0,0,0,.05.21s0,.08,0,.08h0a.26.26,0,0,1,0-.21,1.19,1.19,0,0,0-.05-.38.86.86,0,0,1,0-.18,2.1,2.1,0,0,1,0-.28c0-.13,0-.27,0-.4s.06-.18.06-.27a.82.82,0,0,0,0-.13h0l-.15,0a.56.56,0,0,1,0,.24,2.3,2.3,0,0,0-.05.31c0,.13,0,.26,0,.4a1.81,1.81,0,0,0,0,.27c0,.09.06.19,0,.28a.13.13,0,0,1-.06-.12s0-.09,0-.14-.05-.18,0-.27a1.42,1.42,0,0,0,0-.2c0-.06,0-.11-.06-.17a.48.48,0,0,1,0-.19,1.9,1.9,0,0,0,0-.42h-.07a1,1,0,0,0-.12.07.1.1,0,0,1-.12,0s0-.09,0-.14a1.25,1.25,0,0,0,0-.31.71.71,0,0,1,.6-.59.53.53,0,0,1,.43.1.75.75,0,0,1,.14.2l.14.25a.49.49,0,0,1,.07.17C57,73.52,56.87,73.69,56.75,73.65Z" transform="translate(0)"/><path class="cls-12" d="M33,67.19l0,0a.47.47,0,0,0,.05.1.85.85,0,0,1,.13.17.54.54,0,0,1,0,.21,2.69,2.69,0,0,0,.05.47l.07.41s0,.06,0,0v0a.52.52,0,0,0,0-.2,4.46,4.46,0,0,1-.08-.79.5.5,0,0,0-.05-.27.82.82,0,0,0-.1-.1l-.06-.08h0a.22.22,0,0,1,.17,0,1.57,1.57,0,0,0,.07.19,1.34,1.34,0,0,1,.12.48c0,.06,0,.12,0,.19a1.2,1.2,0,0,0,.08.39,1.08,1.08,0,0,0,0-.38c0-.16.06-.33,0-.46s-.07-.09-.1-.13a.72.72,0,0,1-.05-.19l0-.06.14,0a4.14,4.14,0,0,0,.13.44c0,.1,0,.21,0,.32a2.11,2.11,0,0,1,0,.28c0,.06,0,.13,0,.19s0,.12,0,.18a.5.5,0,0,1,0,.2s0,.08,0,.07h0a.26.26,0,0,0,0-.19,1.2,1.2,0,0,1,0-.35.87.87,0,0,0,0-.17,2,2,0,0,0-.07-.24c0-.12,0-.25,0-.36s-.08-.15-.1-.23a.82.82,0,0,1,0-.12h0l.12-.07a.55.55,0,0,0,0,.22,2.2,2.2,0,0,1,.1.27c0,.12,0,.24,0,.36a1.76,1.76,0,0,1,.06.24c0,.09,0,.18,0,.26a.13.13,0,0,0,0-.12s0-.08,0-.12,0-.17,0-.26a1.37,1.37,0,0,1-.05-.17c0-.06,0-.11,0-.17a.47.47,0,0,0,0-.17,1.84,1.84,0,0,1-.1-.36h.06l.11,0a.08.08,0,0,0,.1,0s0-.08,0-.12a1.21,1.21,0,0,1-.07-.27.57.57,0,0,0-.59-.4.44.44,0,0,0-.33.18.74.74,0,0,0-.08.2l-.07.25a.5.5,0,0,0,0,.17C32.83,67.11,32.93,67.25,33,67.19Z" transform="translate(0)"/><path class="cls-13" d="M60.84,81a1.94,1.94,0,0,1-.27-.13h0a.42.42,0,0,1-.1-.12c-.09-.14-.12-.33-.19-.48a1,1,0,0,0-.28-.32l-.24-.17-.17-.11L59,79.29l-.22-.14a1,1,0,0,0-.48-.16c-.12,0-.24,0-.35,0h-.09a2.54,2.54,0,0,0-.3,0,1.73,1.73,0,0,0-.34,0L57,79A.43.43,0,0,1,56.8,79c-.22-.12-.26-.44-.47-.57a.51.51,0,0,0-.28-.07.81.81,0,0,0-.38.1l-.14.09s-.18.14-.18.21h0c0,.05.12.14.15.19a1,1,0,0,0,.6.41.47.47,0,0,1,.14.05l.08.07.07.08a.39.39,0,0,0-.17,0,.23.23,0,0,0-.1,0,.26.26,0,0,0-.07.17.79.79,0,0,0,.23.6,2,2,0,0,0,.47.36.87.87,0,0,0,0,.22,1.73,1.73,0,0,0,.17.37,2.55,2.55,0,0,0,.28.44,1.29,1.29,0,0,0,1.13.43c.08,0,.19-.06.17-.14s-.08-.09-.14-.12a1.19,1.19,0,0,1-.49-.55,1.24,1.24,0,0,1-.18-.45,6.13,6.13,0,0,1,.88.31,2.41,2.41,0,0,0,.75,0,.51.51,0,0,0,.32,0l.08,0,.29,0a.74.74,0,0,1,.21.06,1,1,0,0,0,.23.12.5.5,0,0,0,.24,0c.13,0,.28-.1.29-.23A.27.27,0,0,0,60.84,81Z" transform="translate(0)"/><g class="cls-15"><g class="cls-16"><g class="cls-17"><circle class="cls-18" cx="32.05" cy="69.1" r="0.08"/></g><circle class="cls-18" cx="28.78" cy="75.99" r="0.1"/><g class="cls-17"><circle class="cls-18" cx="30.46" cy="74.11" r="0.09"/></g><g class="cls-17"><circle class="cls-18" cx="29.2" cy="81.9" r="0.15"/></g><g class="cls-17"><circle class="cls-18" cx="33.28" cy="73.12" r="0.12"/></g><g class="cls-17"><circle class="cls-18" cx="31.18" cy="74.52" r="0.07"/></g><g class="cls-17"><circle class="cls-18" cx="29.62" cy="73.2" r="0.08"/></g><g class="cls-17"><circle class="cls-18" cx="28.54" cy="79.68" r="0.1"/></g><g class="cls-17"><circle class="cls-18" cx="29.38" cy="81" r="0.12"/></g><g class="cls-17"><circle class="cls-18" cx="34.92" cy="76.73" r="0.18" transform="translate(-44.08 106.16) rotate(-85.96)"/></g><g class="cls-17"><circle class="cls-18" cx="31.97" cy="83.13" r="0.2" transform="translate(-53.18 109.27) rotate(-86.03)"/></g><g class="cls-17"><circle class="cls-18" cx="32.65" cy="81.74" r="0.21" transform="translate(-51.17 108.57) rotate(-85.98)"/></g><g class="cls-17"><circle class="cls-18" cx="33.31" cy="84.69" r="0.17" transform="translate(-53.49 112.02) rotate(-86.01)"/></g><circle class="cls-18" cx="36.26" cy="76.24" r="0.12" transform="translate(-42.4 106.89) rotate(-85.85)"/><g class="cls-17"><circle class="cls-18" cx="32.99" cy="76.81" r="0.07" transform="translate(-45.94 104.35) rotate(-85.99)"/></g><g class="cls-17"><circle class="cls-18" cx="35.71" cy="70.17" r="0.18" transform="matrix(0.07, -1, 1, 0.07, -36.78, 100.89)"/></g><g class="cls-17"><circle class="cls-18" cx="34.07" cy="82.97" r="0.11" transform="translate(-51.01 111.35) rotate(-86.12)"/></g><g class="cls-17"><circle class="cls-18" cx="34.76" cy="73.7" r="0.13" transform="translate(-41.17 103.26) rotate(-86.02)"/></g><g class="cls-17"><circle class="cls-18" cx="35.76" cy="79.93" r="0.19" transform="matrix(0.07, -1, 1, 0.07, -46.48, 110)"/></g><g class="cls-17"><circle class="cls-18" cx="23.69" cy="75.58" r="0.07"/></g><circle class="cls-18" cx="27.09" cy="73.94" r="0.2"/><g class="cls-17"><circle class="cls-18" cx="24.35" cy="75.83" r="0.19"/></g><g class="cls-17"><circle class="cls-18" cx="26.19" cy="68.77" r="0.07"/></g><g class="cls-17"><circle class="cls-18" cx="25.93" cy="77.39" r="0.11"/></g><g class="cls-17"><circle class="cls-18" cx="27.2" cy="83.7" r="0.16"/></g><g class="cls-17"><circle class="cls-18" cx="25.03" cy="72.06" r="0.21"/></g><g class="cls-17"><circle class="cls-18" cx="27.41" cy="70.66" r="0.09"/></g><g class="cls-17"><circle class="cls-18" cx="26.56" cy="79.36" r="0.16"/></g><g class="cls-17"><circle class="cls-18" cx="27.22" cy="80.67" r="0.07"/></g><g class="cls-17"><circle class="cls-18" cx="24.56" cy="81.82" r="0.07"/></g><g class="cls-17"><circle class="cls-18" cx="25.11" cy="80.59" r="0.09"/></g><g class="cls-17"><circle class="cls-18" cx="27.28" cy="73.61" r="0.18"/></g><g class="cls-17"><circle class="cls-18" cx="18.53" cy="70.74" r="0.12"/></g><g class="cls-17"><circle class="cls-18" cx="36.79" cy="58.36" r="0.13" transform="translate(-24.07 90.84) rotate(-85.87)"/></g><g class="cls-17"><circle class="cls-18" cx="20.84" cy="75.42" r="0.18" transform="translate(-55.86 90.89) rotate(-85.95)"/></g><circle class="cls-18" cx="22.64" cy="74.27" r="0.12" transform="translate(-53.02 91.71) rotate(-86.03)"/><g class="cls-17"><circle class="cls-18" cx="19.53" cy="81.08" r="0.11" transform="translate(-62.7 94.99) rotate(-86.06)"/></g><g class="cls-17"><circle class="cls-18" cx="20.34" cy="71.89" r="0.13" transform="translate(-52.82 87.06) rotate(-85.91)"/></g><g class="cls-17"><circle class="cls-18" cx="23.35" cy="70.5" r="0.11" transform="translate(-48.58 88.98) rotate(-86.09)"/></g><g class="cls-17"><circle class="cls-18" cx="22.16" cy="78.7" r="0.19" transform="translate(-57.9 95.31) rotate(-85.99)"/></g><g class="cls-17"><circle class="cls-18" cx="39.35" cy="56.47" r="0.07"/></g><g class="cls-17"><circle class="cls-18" cx="37.74" cy="62.54" r="0.21"/></g><g class="cls-17"><circle class="cls-18" cx="38.42" cy="59.92" r="0.17"/></g><g class="cls-17"><circle class="cls-18" cx="38.13" cy="58.6" r="0.09"/></g><g class="cls-17"><circle class="cls-18" cx="44.54" cy="56.96" r="0.08"/></g><g class="cls-17"><circle class="cls-18" cx="46.36" cy="59.42" r="0.13" transform="matrix(0.07, -1, 1, 0.07, -16.2, 101.45)"/></g><g class="cls-17"><circle class="cls-18" cx="40.24" cy="57.45" r="0.18" transform="translate(-19.88 93.59) rotate(-86)"/></g><g class="cls-17"><circle class="cls-18" cx="39.66" cy="60.9" r="0.21" transform="translate(-23.86 96.21) rotate(-85.99)"/></g><g class="cls-17"><circle class="cls-18" cx="50.28" cy="58.85" r="0.07"/></g><g class="cls-17"><circle class="cls-18" cx="49.91" cy="57.29" r="0.07"/></g><g class="cls-17"><circle class="cls-18" cx="48.73" cy="63.85" r="0.21"/></g><g class="cls-17"><circle class="cls-18" cx="49.33" cy="62.21" r="0.17"/></g><g class="cls-17"><circle class="cls-18" cx="49.07" cy="60.65" r="0.09"/></g><g class="cls-17"><circle class="cls-18" cx="55.95" cy="59.26" r="0.08"/></g><g class="cls-17"><circle class="cls-18" cx="54.66" cy="53.6" r="0.12"/></g><g class="cls-17"><circle class="cls-18" cx="57.63" cy="61.72" r="0.13" transform="translate(-8.03 114.82) rotate(-85.92)"/></g><g class="cls-17"><circle class="cls-18" cx="51.36" cy="60.49" r="0.18" transform="matrix(0.07, -1, 1, 0.07, -12.49, 107.61)"/></g><g class="cls-17"><circle class="cls-18" cx="50.7" cy="63.2" r="0.21" transform="translate(-15.86 109.39) rotate(-86.02)"/></g><g class="cls-17"><circle class="cls-18" cx="50.76" cy="53.76" r="0.11" transform="matrix(0.07, -1, 1, 0.07, -6.57, 100.46)"/></g><g class="cls-17"><circle class="cls-18" cx="61.4" cy="59.75" r="0.07"/></g><g class="cls-17"><circle class="cls-18" cx="61.17" cy="57.62" r="0.07"/></g><g class="cls-17"><circle class="cls-18" cx="59.95" cy="64.26" r="0.21"/></g><g class="cls-17"><circle class="cls-18" cx="60.56" cy="62.38" r="0.17"/></g><g class="cls-17"><circle class="cls-18" cx="61.14" cy="53.85" r="0.21"/></g><g class="cls-17"><circle class="cls-18" cx="60.51" cy="55.4" r="0.09"/></g><g class="cls-17"><circle class="cls-18" cx="60.27" cy="61.8" r="0.09"/></g><g class="cls-17"><circle class="cls-18" cx="66.96" cy="60.41" r="0.08"/></g><g class="cls-17"><circle class="cls-18" cx="64.38" cy="55.32" r="0.12"/></g><g class="cls-17"><circle class="cls-18" cx="71.31" cy="54.34" r="0.08"/></g><g class="cls-17"><circle class="cls-18" cx="70.36" cy="62.62" r="0.13" transform="translate(2.82 128.28) rotate(-85.86)"/></g><g class="cls-17"><circle class="cls-18" cx="61.93" cy="61.15" r="0.18" transform="translate(-3.44 118.6) rotate(-85.95)"/></g><g class="cls-17"><circle class="cls-18" cx="61.72" cy="63.36" r="0.21" transform="translate(-5.83 120.46) rotate(-85.96)"/></g><g class="cls-17"><circle class="cls-18" cx="61.8" cy="56.14" r="0.11" transform="translate(1.52 113.92) rotate(-86.04)"/></g><g class="cls-17"><circle class="cls-18" cx="77.9" cy="59.83" r="0.07"/></g><g class="cls-17"><circle class="cls-18" cx="77.45" cy="57.86" r="0.07"/></g><g class="cls-17"><circle class="cls-18" cx="75.5" cy="64.59" r="0.21"/></g><g class="cls-17"><circle class="cls-18" cx="76.56" cy="62.95" r="0.17"/></g><g class="cls-17"><circle class="cls-18" cx="76.4" cy="55.65" r="0.09"/></g><g class="cls-17"><circle class="cls-18" cx="76.08" cy="62.05" r="0.09"/></g><g class="cls-17"><circle class="cls-18" cx="81.19" cy="81.65" r="0.13"/></g><circle class="cls-18" cx="81.06" cy="71.07" r="0.1"/><g class="cls-17"><circle class="cls-18" cx="81.49" cy="69.43" r="0.09"/></g><g class="cls-17"><circle class="cls-18" cx="81.22" cy="78.21" r="0.15"/></g><g class="cls-17"><circle class="cls-18" cx="81.96" cy="69.92" r="0.07"/></g><g class="cls-17"><circle class="cls-18" cx="80.96" cy="75.75" r="0.1"/></g><g class="cls-17"><circle class="cls-18" cx="81.33" cy="84.36" r="0.19"/></g><g class="cls-17"><circle class="cls-18" cx="81.3" cy="76.65" r="0.12"/></g><circle class="cls-18" cx="82.75" cy="84.03" r="0.09" transform="translate(-7 160.54) rotate(-85.88)"/><g class="cls-17"><circle class="cls-18" cx="81.67" cy="83.62" r="0.11" transform="translate(-7.33 159.39) rotate(-86.09)"/></g><g class="cls-17"><circle class="cls-18" cx="82.51" cy="79.44" r="0.2" transform="translate(-2.58 156.1) rotate(-85.93)"/></g><g class="cls-17"><circle class="cls-18" cx="81.8" cy="82.39" r="0.11" transform="translate(-5.92 158.45) rotate(-86.13)"/></g><g class="cls-17"><circle class="cls-18" cx="74.45" cy="71.65" r="0.07"/></g><g class="cls-17"><circle class="cls-18" cx="74.98" cy="72.22" r="0.19"/></g><g class="cls-17"><circle class="cls-18" cx="77.24" cy="74.35" r="0.11"/></g><g class="cls-17"><circle class="cls-18" cx="78.59" cy="80.18" r="0.16"/></g><g class="cls-17"><circle class="cls-18" cx="78.03" cy="75.67" r="0.16"/></g><g class="cls-17"><circle class="cls-18" cx="77.85" cy="81.41" r="0.07"/></g><g class="cls-17"><circle class="cls-18" cx="78.88" cy="83.38" r="0.08"/></g><g class="cls-17"><circle class="cls-18" cx="78.61" cy="77.63" r="0.07"/></g><g class="cls-17"><circle class="cls-18" cx="75.27" cy="78.86" r="0.07"/></g><g class="cls-17"><circle class="cls-18" cx="75.53" cy="82.15" r="0.13" transform="translate(-11.66 151.79) rotate(-86.02)"/></g><g class="cls-17"><circle class="cls-18" cx="64.88" cy="80.92" r="0.13"/></g><g class="cls-17"><circle class="cls-18" cx="76.11" cy="77.14" r="0.09"/></g><g class="cls-17"><circle class="cls-18" cx="78.3" cy="83.87" r="0.13"/></g><circle class="cls-18" cx="64.86" cy="69.84" r="0.1"/><g class="cls-17"><circle class="cls-18" cx="65.07" cy="77.31" r="0.15"/></g><g class="cls-17"><circle class="cls-18" cx="64.54" cy="74.68" r="0.1"/></g><g class="cls-17"><circle class="cls-18" cx="65.41" cy="83.46" r="0.19"/></g><g class="cls-17"><circle class="cls-18" cx="65.2" cy="76.4" r="0.12"/></g><g class="cls-17"><circle class="cls-18" cx="70.71" cy="71.32" r="0.18" transform="translate(-5.42 136.82) rotate(-85.96)"/></g><circle class="cls-18" cx="67.75" cy="83.05" r="0.09" transform="translate(-19.97 144.63) rotate(-85.86)"/><g class="cls-17"><circle class="cls-18" cx="66.23" cy="82.72" r="0.11" transform="translate(-20.87 143.07) rotate(-86.04)"/></g><g class="cls-17"><circle class="cls-18" cx="67.41" cy="78.54" r="0.2" transform="translate(-15.75 140.16) rotate(-85.9)"/></g><g class="cls-17"><circle class="cls-18" cx="68.02" cy="76.9" r="0.21" transform="translate(-13.44 139.38) rotate(-85.99)"/></g><g class="cls-17"><circle class="cls-18" cx="66.62" cy="81.24" r="0.11" transform="translate(-19.19 141.87) rotate(-85.89)"/></g><g class="cls-17"><circle class="cls-18" cx="68.62" cy="80.1" r="0.17" transform="translate(-16.02 143.02) rotate(-86.04)"/></g><circle class="cls-18" cx="72.63" cy="70.09" r="0.12" transform="translate(-2.48 137.51) rotate(-85.89)"/><g class="cls-17"><circle class="cls-18" cx="68.26" cy="72.14" r="0.07" transform="translate(-8.65 134.98) rotate(-85.84)"/></g><g class="cls-17"><circle class="cls-18" cx="69.15" cy="78.29" r="0.11" transform="translate(-13.65 141.97) rotate(-86.11)"/></g><g class="cls-17"><circle class="cls-18" cx="72.26" cy="75.01" r="0.19" transform="translate(-7.55 141.92) rotate(-86.04)"/></g><g class="cls-17"><circle class="cls-18" cx="71.79" cy="84.52" r="0.14" transform="translate(-17.58 150.18) rotate(-85.96)"/></g><g class="cls-17"><circle class="cls-18" cx="34.05" cy="57.13" r="0.07"/></g><g class="cls-17"><circle class="cls-18" cx="31.62" cy="66.64" r="0.07"/></g><g class="cls-17"><circle class="cls-18" cx="32.33" cy="62.87" r="0.07"/></g><g class="cls-17"><circle class="cls-18" cx="36.45" cy="61.64" r="0.07"/></g><g class="cls-17"><circle class="cls-18" cx="35.18" cy="66.07" r="0.07"/></g><circle class="cls-18" cx="30.67" cy="61.88" r="0.07"/><g class="cls-17"><circle class="cls-18" cx="29.41" cy="65.17" r="0.07"/></g><g class="cls-17"><circle class="cls-18" cx="29.81" cy="56.88" r="0.13"/></g><g class="cls-17"><circle class="cls-18" cx="29.73" cy="66.72" r="0.16"/></g><g class="cls-17"><circle class="cls-18" cx="31.44" cy="54.42" r="0.21"/></g><g class="cls-17"><circle class="cls-18" cx="30.49" cy="55.08" r="0.1"/></g><g class="cls-17"><circle class="cls-18" cx="29.57" cy="60" r="0.07"/></g><g class="cls-17"><circle class="cls-18" cx="30.99" cy="59.09" r="0.2"/></g><g class="cls-17"><circle class="cls-18" cx="30.31" cy="68.45" r="0.11"/></g><g class="cls-17"><circle class="cls-18" cx="34.15" cy="67.87" r="0.19"/></g><g class="cls-17"><circle class="cls-18" cx="35.95" cy="60.98" r="0.14"/></g><g class="cls-17"><circle class="cls-18" cx="34.68" cy="64.02" r="0.11"/></g><g class="cls-17"><circle class="cls-18" cx="35.97" cy="53.43" r="0.17" transform="translate(-19.81 85.64) rotate(-86.05)"/></g><g class="cls-17"><circle class="cls-18" cx="36.08" cy="56.55" r="0.15" transform="translate(-22.83 88.65) rotate(-86.05)"/></g><g class="cls-17"><circle class="cls-18" cx="27.93" cy="58.93" r="0.09" transform="translate(-32.74 82.83) rotate(-86.14)"/></g><g class="cls-17"><circle class="cls-18" cx="27.85" cy="55.57" r="0.13" transform="translate(-29.5 79.52) rotate(-86.05)"/></g><g class="cls-17"><circle class="cls-18" cx="35" cy="54.83" r="0.11" transform="translate(-22.2 85.81) rotate(-85.89)"/></g><circle class="cls-18" cx="32.97" cy="66.48" r="0.17" transform="translate(-35.65 94.71) rotate(-85.99)"/><g class="cls-17"><circle class="cls-18" cx="31.12" cy="68.94" r="0.15" transform="translate(-39.89 94.99) rotate(-85.85)"/></g><g class="cls-17"><circle class="cls-18" cx="32.1" cy="61.39" r="0.13" transform="matrix(0.07, -1, 1, 0.07, -31.42, 89.04)"/></g><g class="cls-17"><circle class="cls-18" cx="34.73" cy="58.28" r="0.16" transform="translate(-25.83 88.84) rotate(-85.98)"/></g><g class="cls-17"><circle class="cls-18" cx="33.2" cy="59.34" r="0.18" transform="matrix(0.07, -1, 1, 0.07, -28.36, 88.22)"/></g><g class="cls-17"><circle class="cls-18" cx="31.7" cy="64.43" r="0.15" transform="translate(-34.75 91.63) rotate(-86.06)"/></g><g class="cls-17"><circle class="cls-18" cx="34.1" cy="63.61" r="0.11" transform="translate(-31.74 93.15) rotate(-85.97)"/></g><g class="cls-17"><circle class="cls-18" cx="29.07" cy="62.79" r="0.18" transform="translate(-35.58 87.43) rotate(-86.02)"/></g><g class="cls-17"><circle class="cls-18" cx="28.3" cy="64.67" r="0.15" transform="translate(-38.15 88.5) rotate(-86.09)"/></g><g class="cls-17"><circle class="cls-18" cx="28.86" cy="69.35" r="0.19" transform="translate(-42.36 93.24) rotate(-85.95)"/></g><g class="cls-17"><circle class="cls-18" cx="21.69" cy="57.04" r="0.07"/></g><g class="cls-17"><circle class="cls-18" cx="18.89" cy="66.4" r="0.07"/></g><g class="cls-17"><circle class="cls-18" cx="19.82" cy="62.46" r="0.07"/></g><g class="cls-17"><circle class="cls-18" cx="24.88" cy="61.56" r="0.07"/></g><g class="cls-17"><circle class="cls-18" cx="23.27" cy="65.58" r="0.07"/></g><g class="cls-17"><circle class="cls-18" cx="18.87" cy="54.17" r="0.21"/></g><circle class="cls-18" cx="26.75" cy="65.74" r="0.19"/><g class="cls-17"><circle class="cls-18" cx="21.95" cy="67.54" r="0.19"/></g><g class="cls-17"><circle class="cls-18" cx="24.06" cy="60.74" r="0.14"/></g><g class="cls-17"><circle class="cls-18" cx="26.59" cy="57.7" r="0.2"/></g><g class="cls-17"><circle class="cls-18" cx="22.5" cy="63.69" r="0.11"/></g><g class="cls-17"><circle class="cls-18" cx="24.51" cy="56.39" r="0.15" transform="translate(-33.45 76.91) rotate(-86.01)"/></g><g class="cls-17"><circle class="cls-18" cx="22.93" cy="54.58" r="0.11" transform="translate(-33.12 73.65) rotate(-86)"/></g><circle class="cls-18" cx="20.26" cy="66.31" r="0.17" transform="translate(-47.3 81.89) rotate(-85.99)"/><g class="cls-17"><circle class="cls-18" cx="19.29" cy="61.23" r="0.14" transform="translate(-43.16 76.11) rotate(-85.92)"/></g><g class="cls-17"><circle class="cls-18" cx="22.58" cy="58.03" r="0.16" transform="translate(-36.86 76.58) rotate(-86.07)"/></g><g class="cls-17"><circle class="cls-18" cx="20.58" cy="59.18" r="0.18" transform="translate(-39.92 75.45) rotate(-85.88)"/></g><g class="cls-17"><circle class="cls-18" cx="19" cy="64.18" r="0.15" transform="translate(-46.36 78.61) rotate(-85.96)"/></g><g class="cls-17"><circle class="cls-18" cx="21.77" cy="63.52" r="0.11" transform="translate(-43.11 80.84) rotate(-86.03)"/></g><g class="cls-17"><circle class="cls-18" cx="26.3" cy="68.28" r="0.16" transform="translate(-43.67 89.7) rotate(-85.95)"/></g><g class="cls-17"><circle class="cls-18" cx="44.67" cy="83.79" r="0.07"/></g><g class="cls-17"><circle class="cls-18" cx="47.44" cy="81.16" r="0.07"/></g><g class="cls-17"><circle class="cls-18" cx="48.04" cy="80.01" r="0.12"/></g><g class="cls-17"><circle class="cls-18" cx="46.72" cy="79.11" r="0.15"/></g><g class="cls-17"><circle class="cls-18" cx="46.88" cy="84.61" r="0.17"/></g><g class="cls-17"><circle class="cls-18" cx="48.36" cy="82.8" r="0.09"/></g><g class="cls-17"><circle class="cls-18" cx="43.06" cy="84.85" r="0.18"/></g><g class="cls-17"><circle class="cls-18" cx="41.08" cy="79.03" r="0.07"/></g><g class="cls-17"><circle class="cls-18" cx="41.59" cy="83.54" r="0.11"/></g><g class="cls-17"><circle class="cls-18" cx="43.19" cy="78.13" r="0.1"/></g><g class="cls-17"><circle class="cls-18" cx="44.35" cy="81.49" r="0.17"/></g><circle class="cls-18" cx="45.83" cy="72.63" r="0.17"/><g class="cls-17"><circle class="cls-18" cx="46.99" cy="75.34" r="0.15"/></g><g class="cls-17"><circle class="cls-18" cx="47.36" cy="70.33" r="0.07"/></g><g class="cls-17"><circle class="cls-18" cx="45.49" cy="68.12" r="0.2"/></g><g class="cls-17"><circle class="cls-18" cx="45.04" cy="76.16" r="0.07"/></g><g class="cls-17"><circle class="cls-18" cx="45.99" cy="76.49" r="0.16"/></g><g class="cls-17"><circle class="cls-18" cx="47.33" cy="73.45" r="0.16"/></g><g class="cls-17"><circle class="cls-18" cx="45.22" cy="73.78" r="0.13"/></g><g class="cls-17"><circle class="cls-18" cx="46.12" cy="70.25" r="0.16"/></g><g class="cls-17"><circle class="cls-18" cx="46.7" cy="66.97" r="0.2"/></g><g class="cls-17"><circle class="cls-18" cx="45.01" cy="65.66" r="0.12"/></g><g class="cls-17"><circle class="cls-18" cx="45.25" cy="69.76" r="0.15"/></g><g class="cls-17"><circle class="cls-18" cx="48.02" cy="67.63" r="0.1"/></g><g class="cls-17"><circle class="cls-18" cx="40.11" cy="55.49" r="0.21"/></g><g class="cls-17"><circle class="cls-18" cx="46.2" cy="84.44" r="0.18" transform="translate(-41.4 124.33) rotate(-85.8)"/></g><g class="cls-17"><circle class="cls-18" cx="45.56" cy="79.77" r="0.16" transform="translate(-37.17 119.68) rotate(-86.02)"/></g><g class="cls-17"><circle class="cls-18" cx="45.88" cy="83.21" r="0.18" transform="matrix(0.07, -1, 1, 0.07, -40.3, 123.24)"/></g><g class="cls-17"><circle class="cls-18" cx="46.59" cy="77.06" r="0.11" transform="translate(-33.53 118.16) rotate(-86)"/></g><g class="cls-17"><circle class="cls-18" cx="45.51" cy="74.85" r="0.07" transform="translate(-32.2 115.26) rotate(-86.17)"/></g><g class="cls-17"><circle class="cls-18" cx="44.91" cy="82.31" r="0.2" transform="translate(-40.35 121.34) rotate(-85.99)"/></g><g class="cls-17"><circle class="cls-18" cx="46.78" cy="80.42" r="0.15" transform="translate(-36.7 121.5) rotate(-86.02)"/></g><g class="cls-17"><circle class="cls-18" cx="42.8" cy="82.06" r="0.08" transform="translate(-42.18 118.75) rotate(-85.81)"/></g><g class="cls-17"><circle class="cls-18" cx="42.53" cy="77.55" r="0.1" transform="translate(-37.86 114.44) rotate(-85.9)"/></g><circle class="cls-18" cx="44.62" cy="67.79" r="0.15" transform="translate(-26.15 107.51) rotate(-85.95)"/><g class="cls-17"><circle class="cls-18" cx="45.8" cy="70.42" r="0.11" transform="translate(-27.64 111.19) rotate(-86)"/></g><g class="cls-17"><circle class="cls-18" cx="45.75" cy="67.22" r="0.18" transform="translate(-24.58 108.01) rotate(-85.88)"/></g><g class="cls-17"><circle class="cls-18" cx="44.25" cy="65.25" r="0.21" transform="translate(-23.94 104.82) rotate(-85.99)"/></g><g class="cls-17"><circle class="cls-18" cx="43.01" cy="71.24" r="0.07" transform="translate(-31.13 109.03) rotate(-85.89)"/></g><g class="cls-17"><circle class="cls-18" cx="44.96" cy="71.15" r="0.11" transform="translate(-29.04 111.27) rotate(-86.18)"/></g><g class="cls-17"><circle class="cls-18" cx="46.14" cy="69.59" r="0.17" transform="translate(-26.6 110.6) rotate(-85.87)"/></g><g class="cls-17"><circle class="cls-18" cx="43.83" cy="68.53" r="0.07" transform="translate(-27.54 107.57) rotate(-86.08)"/></g><g class="cls-17"><circle class="cls-18" cx="44.72" cy="66.81" r="0.2" transform="translate(-25.03 106.77) rotate(-86.01)"/></g><g class="cls-17"><circle class="cls-18" cx="45.59" cy="65" r="0.2" transform="translate(-22.46 105.9) rotate(-85.96)"/></g><g class="cls-17"><circle class="cls-18" cx="43.88" cy="63.28" r="0.1" transform="translate(-22.38 102.52) rotate(-85.9)"/></g><g class="cls-17"><circle class="cls-18" cx="43.59" cy="66.56" r="0.2" transform="translate(-25.92 105.27) rotate(-85.89)"/></g><g class="cls-17"><circle class="cls-18" cx="46.43" cy="66.15" r="0.2" transform="translate(-22.82 107.82) rotate(-85.97)"/></g><circle class="cls-18" cx="40.9" cy="63.77" r="0.12" transform="translate(-25.6 100.07) rotate(-85.95)"/><g class="cls-17"><circle class="cls-18" cx="43.3" cy="64.92" r="0.15" transform="translate(-24.51 103.53) rotate(-85.95)"/></g><g class="cls-17"><circle class="cls-18" cx="41.95" cy="68.61" r="0.15" transform="translate(-29.45 105.62) rotate(-85.95)"/></g><g class="cls-17"><circle class="cls-18" cx="40.72" cy="65.41" r="0.13" transform="translate(-27.39 101.43) rotate(-85.97)"/></g><g class="cls-17"><circle class="cls-18" cx="44.19" cy="64.1" r="0.11" transform="translate(-22.9 103.59) rotate(-85.89)"/></g><g class="cls-17"><circle class="cls-18" cx="40.08" cy="73.37" r="0.13" transform="translate(-35.92 108.19) rotate(-85.97)"/></g><g class="cls-17"><circle class="cls-18" cx="42.3" cy="75.91" r="0.14" transform="translate(-36.47 112.63) rotate(-85.87)"/></g><g class="cls-17"><circle class="cls-18" cx="42.56" cy="71.48" r="0.19" transform="matrix(0.07, -1, 1, 0.07, -31.66, 109.06)"/></g><g class="cls-17"><circle class="cls-18" cx="53.87" cy="56.72" r="0.07"/></g><g class="cls-17"><circle class="cls-18" cx="58.87" cy="84.11" r="0.07"/></g><g class="cls-17"><circle class="cls-18" cx="59.4" cy="82.64" r="0.12"/></g><g class="cls-17"><circle class="cls-18" cx="58.03" cy="81.57" r="0.15"/></g><g class="cls-17"><circle class="cls-18" cx="51.97" cy="80.83" r="0.07"/></g><g class="cls-17"><circle class="cls-18" cx="54.21" cy="80.51" r="0.1"/></g><g class="cls-17"><circle class="cls-18" cx="55.45" cy="83.95" r="0.17"/></g><circle class="cls-18" cx="57.21" cy="76.32" r="0.17"/><g class="cls-17"><circle class="cls-18" cx="58.35" cy="78.45" r="0.15"/></g><g class="cls-17"><circle class="cls-18" cx="58.74" cy="73.29" r="0.07"/></g><g class="cls-17"><circle class="cls-18" cx="56.77" cy="72.3" r="0.2"/></g><g class="cls-17"><circle class="cls-18" cx="56.26" cy="78.37" r="0.07"/></g><g class="cls-17"><circle class="cls-18" cx="57.35" cy="78.95" r="0.16"/></g><g class="cls-17"><circle class="cls-18" cx="58.85" cy="77.22" r="0.16"/></g><g class="cls-17"><circle class="cls-18" cx="56.29" cy="77.8" r="0.13"/></g><g class="cls-17"><circle class="cls-18" cx="57.37" cy="74.19" r="0.16"/></g><g class="cls-17"><circle class="cls-18" cx="58.21" cy="70.83" r="0.2"/></g><g class="cls-17"><circle class="cls-18" cx="56.24" cy="68.86" r="0.12"/></g><g class="cls-17"><circle class="cls-18" cx="56.37" cy="72.88" r="0.15"/></g><g class="cls-17"><circle class="cls-18" cx="59.37" cy="71.4" r="0.1"/></g><g class="cls-17"><circle class="cls-18" cx="53.39" cy="55.73" r="0.07"/></g><g class="cls-17"><circle class="cls-18" cx="50.94" cy="62.13" r="0.21"/></g><g class="cls-17"><circle class="cls-18" cx="52.44" cy="60.16" r="0.17"/></g><g class="cls-17"><circle class="cls-18" cx="53.68" cy="53.52" r="0.21"/></g><g class="cls-17"><circle class="cls-18" cx="52.1" cy="53.68" r="0.09"/></g><g class="cls-17"><circle class="cls-18" cx="56.84" cy="81.98" r="0.16" transform="translate(-29.02 132.78) rotate(-85.87)"/></g><g class="cls-17"><circle class="cls-18" cx="57.98" cy="79.52" r="0.11" transform="translate(-25.51 131.62) rotate(-85.87)"/></g><g class="cls-17"><circle class="cls-18" cx="56.61" cy="77.88" r="0.07" transform="translate(-25.11 128.79) rotate(-85.91)"/></g><g class="cls-17"><circle class="cls-18" cx="55.26" cy="84.93" r="0.2" transform="translate(-33.33 134.12) rotate(-85.99)"/></g><g class="cls-17"><circle class="cls-18" cx="58.27" cy="82.56" r="0.15" transform="translate(-28.25 134.77) rotate(-85.9)"/></g><g class="cls-17"><circle class="cls-18" cx="51.31" cy="58.77" r="0.09"/></g><g class="cls-17"><circle class="cls-18" cx="58.69" cy="57.21" r="0.08"/></g><g class="cls-17"><circle class="cls-18" cx="57.79" cy="54.01" r="0.12"/></g><g class="cls-17"><circle class="cls-18" cx="59.32" cy="59.67" r="0.13" transform="translate(-4.52 114.47) rotate(-85.81)"/></g><g class="cls-17"><circle class="cls-18" cx="53.52" cy="79.6" r="0.1" transform="translate(-29.79 127.15) rotate(-85.8)"/></g><circle class="cls-18" cx="55.74" cy="71.56" r="0.15" transform="translate(-19.49 122.25) rotate(-86.06)"/><g class="cls-17"><circle class="cls-18" cx="57.08" cy="73.86" r="0.11" transform="translate(-20.6 125.62) rotate(-85.98)"/></g><g class="cls-17"><circle class="cls-18" cx="57.13" cy="70.99" r="0.18" transform="translate(-17.69 123) rotate(-85.98)"/></g><g class="cls-17"><circle class="cls-18" cx="55.47" cy="67.3" r="0.21" transform="translate(-15.49 118) rotate(-86.04)"/></g><g class="cls-17"><circle class="cls-18" cx="54.13" cy="75.17" r="0.07" transform="translate(-24.64 123.91) rotate(-85.99)"/></g><g class="cls-17"><circle class="cls-18" cx="56.05" cy="74.76" r="0.11" transform="translate(-22.53 125.32) rotate(-85.89)"/></g><g class="cls-17"><circle class="cls-18" cx="57.56" cy="72.96" r="0.17" transform="translate(-19.31 125.18) rotate(-85.92)"/></g><g class="cls-17"><circle class="cls-18" cx="54.92" cy="71.73" r="0.07" transform="translate(-20.59 121.32) rotate(-85.86)"/></g><g class="cls-17"><circle class="cls-18" cx="55.92" cy="70.58" r="0.2" transform="translate(-18.3 121.57) rotate(-86.1)"/></g><g class="cls-17"><circle class="cls-18" cx="56.82" cy="66.89" r="0.2" transform="translate(-14.02 118.69) rotate(-85.83)"/></g><g class="cls-17"><circle class="cls-18" cx="55.03" cy="64.51" r="0.1" transform="translate(-13.3 114.71) rotate(-85.84)"/></g><g class="cls-17"><circle class="cls-18" cx="54.6" cy="69.02" r="0.2" transform="translate(-18.02 118.73) rotate(-86.04)"/></g><g class="cls-17"><circle class="cls-18" cx="57.82" cy="68.69" r="0.2" transform="translate(-14.76 121.55) rotate(-85.98)"/></g><g class="cls-17"><circle class="cls-18" cx="56.08" cy="57.95" r="0.18" transform="translate(-5.72 109.75) rotate(-85.91)"/></g><g class="cls-17"><circle class="cls-18" cx="55.24" cy="61.06" r="0.21" transform="translate(-9.49 111.96) rotate(-86.05)"/></g><g class="cls-17"><circle class="cls-18" cx="55.32" cy="54.26" r="0.11" transform="translate(-2.82 105.48) rotate(-85.83)"/></g><circle class="cls-18" cx="52.07" cy="64.84" r="0.12" transform="translate(-16.28 112.2) rotate(-85.94)"/><g class="cls-17"><circle class="cls-18" cx="54.34" cy="68.04" r="0.15" transform="translate(-17.33 117.48) rotate(-85.99)"/></g><g class="cls-17"><circle class="cls-18" cx="52.81" cy="72.71" r="0.15" transform="translate(-23.48 120.21) rotate(-85.92)"/></g><g class="cls-17"><circle class="cls-18" cx="51.86" cy="68.2" r="0.13" transform="translate(-19.92 114.98) rotate(-85.84)"/></g><g class="cls-17"><circle class="cls-18" cx="55.34" cy="65.9" r="0.11" transform="translate(-14.34 116.4) rotate(-85.91)"/></g><g class="cls-17"><circle class="cls-18" cx="51.13" cy="76.57" r="0.13" transform="translate(-28.93 122.05) rotate(-85.87)"/></g><g class="cls-17"><circle class="cls-18" cx="53.21" cy="78.62" r="0.14" transform="translate(-28.92 126.24) rotate(-86.02)"/></g><g class="cls-17"><circle class="cls-18" cx="53.55" cy="74.93" r="0.19" transform="matrix(0.07, -1, 1, 0.07, -24.88, 123.2)"/></g><g class="cls-17"><circle class="cls-18" cx="66.57" cy="58.19" r="0.07"/></g><g class="cls-17"><circle class="cls-18" cx="74.5" cy="84.28" r="0.07"/></g><g class="cls-17"><circle class="cls-18" cx="75.37" cy="82.88" r="0.12"/></g><g class="cls-17"><circle class="cls-18" cx="73.55" cy="82.23" r="0.15"/></g><g class="cls-17"><circle class="cls-18" cx="63.67" cy="81.33" r="0.07"/></g><g class="cls-17"><circle class="cls-18" cx="67.39" cy="80.75" r="0.1"/></g><g class="cls-17"><circle class="cls-18" cx="69.26" cy="84.2" r="0.17"/></g><circle class="cls-18" cx="72.13" cy="76.98" r="0.17"/><g class="cls-17"><circle class="cls-18" cx="74.13" cy="78.78" r="0.15"/></g><g class="cls-17"><circle class="cls-18" cx="74.4" cy="75.09" r="0.07"/></g><g class="cls-17"><circle class="cls-18" cx="71.42" cy="72.55" r="0.2"/></g><g class="cls-17"><circle class="cls-18" cx="70.34" cy="79.27" r="0.07"/></g><g class="cls-17"><circle class="cls-18" cx="72.31" cy="79.85" r="0.16"/></g><g class="cls-17"><circle class="cls-18" cx="74.26" cy="77.72" r="0.16"/></g><g class="cls-17"><circle class="cls-18" cx="70.68" cy="78.04" r="0.13"/></g><g class="cls-17"><circle class="cls-18" cx="72.45" cy="74.6" r="0.16"/></g><g class="cls-17"><circle class="cls-18" cx="73.5" cy="71.81" r="0.2"/></g><g class="cls-17"><circle class="cls-18" cx="70.55" cy="69.51" r="0.12"/></g><g class="cls-17"><circle class="cls-18" cx="70.73" cy="73.53" r="0.15"/></g><g class="cls-17"><circle class="cls-18" cx="65.94" cy="56.8" r="0.07"/></g><g class="cls-17"><circle class="cls-18" cx="62.51" cy="62.7" r="0.21"/></g><g class="cls-17"><circle class="cls-18" cx="64.41" cy="60.57" r="0.17"/></g><g class="cls-17"><circle class="cls-18" cx="63.8" cy="55.16" r="0.09"/></g><g class="cls-17"><circle class="cls-18" cx="71.58" cy="82.47" r="0.16" transform="translate(-15.58 148.27) rotate(-86.1)"/></g><g class="cls-17"><circle class="cls-18" cx="73.32" cy="80.26" r="0.11" transform="translate(-11.89 147.76) rotate(-85.98)"/></g><g class="cls-17"><circle class="cls-18" cx="71.23" cy="77.96" r="0.07" transform="matrix(0.07, -1, 1, 0.07, -11.27, 143.89)"/></g><g class="cls-17"><circle class="cls-18" cx="70.31" cy="84.77" r="0.2" transform="translate(-19.21 148.92) rotate(-85.95)"/></g><g class="cls-17"><circle class="cls-18" cx="73.79" cy="83.29" r="0.15" transform="translate(-14.5 151.03) rotate(-85.96)"/></g><g class="cls-17"><circle class="cls-18" cx="62.91" cy="59.59" r="0.09"/></g><g class="cls-17"><circle class="cls-18" cx="74.29" cy="58.44" r="0.08"/></g><g class="cls-17"><circle class="cls-18" cx="72.74" cy="55.81" r="0.12"/></g><g class="cls-17"><circle class="cls-18" cx="76.64" cy="54.99" r="0.08"/></g><g class="cls-17"><circle class="cls-18" cx="75.66" cy="60.24" r="0.13" transform="translate(10.21 131.45) rotate(-85.94)"/></g><g class="cls-17"><circle class="cls-18" cx="66.28" cy="80.34" r="0.1" transform="translate(-18.52 140.81) rotate(-85.97)"/></g><circle class="cls-18" cx="69.52" cy="72.38" r="0.15" transform="translate(-7.61 136.6) rotate(-85.93)"/><g class="cls-17"><circle class="cls-18" cx="72" cy="74.43" r="0.11" transform="translate(-7.13 141.24) rotate(-86.13)"/></g><g class="cls-17"><circle class="cls-18" cx="71.87" cy="72.47" r="0.18" transform="translate(-5.44 139.09) rotate(-85.99)"/></g><g class="cls-17"><circle class="cls-18" cx="68.89" cy="67.46" r="0.21" transform="translate(-3.13 131.57) rotate(-86.07)"/></g><g class="cls-17"><circle class="cls-18" cx="67.25" cy="75.25" r="0.07" transform="translate(-12.9 136.59) rotate(-85.64)"/></g><g class="cls-17"><circle class="cls-18" cx="69.94" cy="75.5" r="0.1" transform="translate(-10.3 139.95) rotate(-85.96)"/></g><g class="cls-17"><circle class="cls-18" cx="72.47" cy="74.02" r="0.17" transform="translate(-6.47 141.11) rotate(-85.96)"/></g><g class="cls-17"><circle class="cls-18" cx="68.1" cy="72.79" r="0.07" transform="translate(-9.44 135.44) rotate(-85.84)"/></g><g class="cls-17"><circle class="cls-18" cx="69.76" cy="70.91" r="0.2" transform="translate(-5.89 135.49) rotate(-85.96)"/></g><g class="cls-17"><circle class="cls-18" cx="68.31" cy="65.08" r="0.1" transform="translate(-1.32 128.76) rotate(-86.06)"/></g><g class="cls-17"><circle class="cls-18" cx="67.57" cy="70.01" r="0.2" transform="translate(-6.95 132.57) rotate(-86.03)"/></g><g class="cls-17"><circle class="cls-18" cx="73.13" cy="69.27" r="0.2" transform="translate(-1.05 137.41) rotate(-86.02)"/></g><g class="cls-17"><circle class="cls-18" cx="70.15" cy="59.51" r="0.18" transform="translate(5.94 125.38) rotate(-86.04)"/></g><g class="cls-17"><circle class="cls-18" cx="71.5" cy="54.91" r="0.13" transform="translate(11.92 122.57) rotate(-86.16)"/></g><g class="cls-17"><circle class="cls-18" cx="68.97" cy="56.06" r="0.11" transform="translate(8.33 121.04) rotate(-86.09)"/></g><circle class="cls-18" cx="63.49" cy="65.49" r="0.12" transform="translate(-6.3 124.23) rotate(-85.98)"/><g class="cls-17"><circle class="cls-18" cx="67.54" cy="68.36" r="0.15" transform="translate(-5.36 130.98) rotate(-86)"/></g><g class="cls-17"><circle class="cls-18" cx="65.09" cy="73.04" r="0.15" transform="translate(-12.25 132.95) rotate(-86.06)"/></g><g class="cls-17"><circle class="cls-18" cx="63.27" cy="69.18" r="0.13" transform="translate(-10.17 127.46) rotate(-85.98)"/></g><g class="cls-17"><circle class="cls-18" cx="69.02" cy="65.99" r="0.11" transform="translate(-1.64 130.22) rotate(-85.99)"/></g><g class="cls-17"><circle class="cls-18" cx="62.69" cy="77.47" r="0.13" transform="translate(-18.89 134.71) rotate(-86.07)"/></g><g class="cls-17"><circle class="cls-18" cx="65.8" cy="79.19" r="0.14" transform="translate(-17.96 139.07) rotate(-85.84)"/></g><g class="cls-17"><circle class="cls-18" cx="66.33" cy="76.08" r="0.19" transform="translate(-14.16 136.97) rotate(-86.02)"/></g><g class="cls-17"><circle class="cls-18" cx="81.99" cy="54.67" r="0.09" transform="matrix(0.07, -1, 1, 0.07, 21.39, 132.37)"/></g><g class="cls-17"><circle class="cls-18" cx="82.54" cy="58.68" r="0.15" transform="translate(18.49 137.14) rotate(-86.18)"/></g><g class="cls-17"><circle class="cls-18" cx="73.84" cy="61.31" r="0.07"/></g><g class="cls-17"><circle class="cls-18" cx="75.03" cy="57.37" r="0.07"/></g><g class="cls-17"><circle class="cls-18" cx="79.48" cy="55.9" r="0.07"/></g><g class="cls-17"><circle class="cls-18" cx="78.53" cy="64.75" r="0.07"/></g><g class="cls-17"><circle class="cls-18" cx="78.96" cy="60.08" r="0.07"/></g><circle class="cls-18" cx="71.21" cy="56.22" r="0.07"/><g class="cls-17"><circle class="cls-18" cx="68.78" cy="59.01" r="0.07"/></g><g class="cls-17"><circle class="cls-18" cx="69.63" cy="61.47" r="0.16"/></g><g class="cls-17"><circle class="cls-18" cx="71.68" cy="67.95" r="0.07"/></g><g class="cls-17"><circle class="cls-18" cx="69.31" cy="54.75" r="0.07"/></g><g class="cls-17"><circle class="cls-18" cx="70.6" cy="63.03" r="0.11"/></g><g class="cls-17"><circle class="cls-18" cx="72.58" cy="65.33" r="0.17"/></g><g class="cls-17"><circle class="cls-18" cx="68.91" cy="67.13" r="0.09"/></g><circle class="cls-18" cx="80.72" cy="60.33" r="0.19"/><g class="cls-17"><circle class="cls-18" cx="78.11" cy="62.29" r="0.19"/></g><g class="cls-17"><circle class="cls-18" cx="79.19" cy="55.24" r="0.14"/></g><g class="cls-17"><circle class="cls-18" cx="79.17" cy="64.34" r="0.18"/></g><g class="cls-17"><circle class="cls-18" cx="78.64" cy="57.78" r="0.11"/></g><g class="cls-17"><circle class="cls-18" cx="80.38" cy="66.23" r="0.11"/></g><g class="cls-17"><circle class="cls-18" cx="65.67" cy="54.09" r="0.09" transform="translate(7.1 115.8) rotate(-85.97)"/></g><circle class="cls-18" cx="76.16" cy="60.82" r="0.17" transform="translate(10.16 132.53) rotate(-85.98)"/><g class="cls-17"><circle class="cls-18" cx="74.69" cy="55.98" r="0.13" transform="translate(13.65 126.59) rotate(-86.01)"/></g><g class="cls-17"><circle class="cls-18" cx="74.05" cy="65.82" r="0.18" transform="translate(3.15 135.02) rotate(-85.93)"/></g><g class="cls-17"><circle class="cls-18" cx="76.37" cy="54.5" r="0.18" transform="translate(16.54 126.77) rotate(-85.89)"/></g><g class="cls-17"><circle class="cls-18" cx="74.24" cy="58.11" r="0.15" transform="matrix(0.07, -1, 1, 0.07, 11.11, 128.13)"/></g><g class="cls-17"><circle class="cls-18" cx="77.95" cy="57.54" r="0.11" transform="translate(15.02 131.2) rotate(-85.92)"/></g><g class="cls-17"><circle class="cls-18" cx="79.75" cy="67.71" r="0.08" transform="translate(6.61 142.51) rotate(-85.98)"/></g><g class="cls-17"><circle class="cls-18" cx="68.41" cy="56.63" r="0.18" transform="translate(7.06 120.85) rotate(-85.93)"/></g><g class="cls-17"><circle class="cls-18" cx="66.54" cy="58.52" r="0.15" transform="translate(3.6 120.9) rotate(-86.08)"/></g><g class="cls-17"><circle class="cls-18" cx="80.4" cy="63.11" r="0.16" transform="translate(11.86 138.95) rotate(-86.02)"/></g><g class="cls-17"><circle class="cls-18" cx="67.68" cy="63.93" r="0.19" transform="translate(-0.82 126.99) rotate(-86)"/></g></g></g><path class="cls-10" d="M16.43,70.32" transform="translate(0)"/><g id="_371204872" data-name=" 371204872"><polygon id="_371128648" data-name=" 371128648" class="cls-19" points="51.02 31.46 48.89 33.61 51.02 33.61 53.16 33.61 51.02 31.46"/><polygon id="_371188200" data-name=" 371188200" class="cls-20" points="49.35 33.61 52.69 33.61 52.69 35.31 49.35 35.31 49.35 33.61"/><polygon id="_371130472" data-name=" 371130472" class="cls-20" points="49.19 38.58 51.02 38.58 52.85 38.58 54 51.46 51.02 51.46 48.04 51.46 49.19 38.58"/><polygon id="_371130304" data-name=" 371130304" class="cls-20" points="48.89 36.02 53.16 36.02 52.85 38 49.19 38 48.89 36.02"/><path id="_371130136" data-name=" 371130136" class="cls-9" d="M49.52,33.8h.84v1.32h-.84Zm1,0h1.08v1.32H50.49Zm1.2,0h.84v1.32h-.84Z" transform="translate(0)"/><polygon id="_371180496" data-name=" 371180496" class="cls-21" points="50.23 38.58 51.02 38.58 51.82 38.58 52.32 51.46 51.02 51.46 49.73 51.46 50.23 38.58"/><polygon id="_371180328" data-name=" 371180328" class="cls-6" points="51.82 38.58 52.85 38.58 54 51.46 52.32 51.46 51.82 38.58"/><polygon id="_371180160" data-name=" 371180160" class="cls-6" points="51.99 36.02 53.16 36.02 52.85 38 51.82 38 51.99 36.02"/><polygon id="_370886088" data-name=" 370886088" class="cls-21" points="49.95 36.02 52.1 36.02 51.82 38 50.23 38 49.95 36.02"/><polygon id="_370885920" data-name=" 370885920" class="cls-22" points="49.48 38.5 49.72 38.5 49.72 39.22 49.48 39.22 49.48 38.5"/><polygon id="_370885752" data-name=" 370885752" class="cls-22" points="50.9 38.5 51.15 38.5 51.15 39.22 50.9 39.22 50.9 38.5"/><polygon id="_370993800" data-name=" 370993800" class="cls-22" points="52.33 38.5 52.57 38.5 52.57 39.22 52.33 39.22 52.33 38.5"/><path id="_370993656" data-name=" 370993656" class="cls-22" d="M51,40.31h0a.33.33,0,0,1,.3.35v.76h-.59v-.76a.33.33,0,0,1,.3-.35Z" transform="translate(0)"/><path id="_370957184" data-name=" 370957184" class="cls-22" d="M51,43.63h0a.33.33,0,0,1,.3.35v.76h-.59V44a.33.33,0,0,1,.3-.35Z" transform="translate(0)"/><path id="_370956968" data-name=" 370956968" class="cls-22" d="M51,47h0a.33.33,0,0,1,.3.35v.76h-.59v-.76A.33.33,0,0,1,51,47Z" transform="translate(0)"/><polygon id="_370956824" data-name=" 370956824" class="cls-23" points="54.39 50.12 54.79 53.67 51.02 53.67 47.26 53.67 47.66 50.12 54.39 50.12"/><polygon id="_185799752" data-name=" 185799752" class="cls-10" points="52.66 53.67 51.02 53.67 49.38 53.67 49.56 50.12 52.49 50.12 52.66 53.67"/><polygon id="_185799584" data-name=" 185799584" class="cls-24" points="54.39 50.12 54.79 53.67 52.66 53.67 52.49 50.12 54.39 50.12"/><polygon id="_185799344" data-name=" 185799344" class="cls-22" points="46.82 53.59 55.23 53.59 55.23 53.97 46.82 53.97 46.82 53.59"/><polygon id="_371037544" data-name=" 371037544" class="cls-25" points="46.52 53.89 55.53 53.89 55.53 54.1 46.52 54.1 46.52 53.89"/><path id="_370982504" data-name=" 370982504" class="cls-22" d="M49,34.85h1V34.7H50v.16h1V34.7h.08v.16h1V34.7h.08v.16h1V34.7h.08v.61h0l-2.38.29-1.81-.29h0V34.7H49v.16ZM50,35v.26h1V35Zm-.08.26V35H49v.26ZM51.06,35v.26h1V35Zm1,0v.26h1V35Z" transform="translate(0)"/><path id="_370977384" data-name=" 370977384" class="cls-22" d="M51,36.7h0a.19.19,0,0,1,.17.2v.43h-.33V36.9A.19.19,0,0,1,51,36.7Z" transform="translate(0)"/><path id="_371182256" data-name=" 371182256" class="cls-22" d="M49.52,36.7h0a.22.22,0,0,1,.19.2l.06.43h-.33l-.06-.43A.16.16,0,0,1,49.52,36.7Z" transform="translate(0)"/><path id="_371182328" data-name=" 371182328" class="cls-22" d="M52.53,36.7h0a.22.22,0,0,0-.19.2l-.06.43h.33l.06-.43A.16.16,0,0,0,52.53,36.7Z" transform="translate(0)"/><polygon id="_371188056" data-name=" 371188056" class="cls-26" points="48.89 36.02 53.16 36.02 53.16 35.31 48.89 35.31 48.89 36.02"/><polygon id="_371187888" data-name=" 371187888" class="cls-27" points="48.89 38.58 53.16 38.58 53.16 38 48.89 38 48.89 38.58"/><polygon id="_371042944" data-name=" 371042944" class="cls-22" points="47.85 54.1 46.62 54.1 46.17 54.1 45.76 54.56 43.64 54.56 42.97 55.3 40.91 55.3 40.33 55.95 39.57 55.95 39.02 56.56 62.15 56.56 60.81 55.3 59.81 55.3 59.2 54.72 56.6 54.72 56.05 54.1 55.84 54.1 54.37 54.1 47.85 54.1"/><polygon id="_371020616" data-name=" 371020616" class="cls-25" points="40.91 55.3 40.33 55.95 49.14 55.3 40.91 55.3"/><polygon id="_371204896" data-name=" 371204896" class="cls-25" points="60.81 55.3 61.3 55.77 54.49 55.53 60.81 55.3"/></g><path id="path2131" class="cls-28" d="M47.69,88.35l-1-.55-.48-.27-1.41-.82-.56-.32-.54-.31-4.1-2.36-.6-.35,0,0-1.39-.8L36,81.62l-.7-.41-.45-.27-.19-.12-.33-.2-.17-.09-1.36-.79-.24-.14-.15-.08-1.17-.68-2.67-1.54-3-1.76-.23-.13-1.14-.65-.33-.2-2.34-1.34L17.63,71l-.7-.4-.3-.18-.18-.1-.52-.3V30.28l3-1.76,2.32-1.34.73-.42h0l0,0,2.5-1.44h0l1.06-.62h0l1.4-.8,1-.56.33-.2h0l.59-.34.36-.21h0l2.32-1.34h0l.61-.35.27-.16.16-.09.23-.13.13-.08.21-.12,0,0,6.26-3.62,10.44-6,.37-.21.42.24,13.13,7.57,5.44,3.14,0,0,.25.14.08,0,.34.2.27.16,1,.55,1.51.87,5.48,3.15,1.1.63.43.25,0,0,.6.34.15.08.42.24.42.24,3.4,2V70l-.41.23-.25.14-.45.27-5.92,3.42-.84.48-1.47.85-1.33.76-2.43,1.4-1,.58-.56.32L67.89,79.8l-.05,0-.13.07-.14.08-.44.25-.69.4-.17.1,0,0-.63.37-.07,0-3,1.75-.06,0-.62.35-.06,0-.71.42-1.68,1-1.2.69-1.31.76-.86.49L53.66,88l-1,.55,0,0h0l-.58.34-.22.12-1.46.84ZM51,91.2h0l.44-.25,1.46-.84.39-.23.14-.08,0,0,.28-.17,1.84-1.06.31-.18.33-.19h0l.3-.17.76-.44,1-.56.11-.06.39-.23.28-.16.31-.18h0l2.73-1.58,0,0,.49-.28,1.82-1,.44-.26,0,0,.33-.19.37-.21h0l.19-.1.26-.15.16-.09.5-.3.06,0h0L67,82l.25-.14,0,0,.12-.07.11-.06.79-.45,0,0,0,0,.14-.07.61-.35h0l0,0,0,0,0,0h0l.32-.19.06,0,.06,0,0,0,1-.56.68-.41,1.2-.69h0l0,0,.35-.2,1-.55,0,0,.82-.47.64-.37,2.36-1.36.08-.06.08,0h0l.19-.1.37-.21.11-.06.37-.21,1.15-.67.13-.07,1.51-.87.16-.09L84.37,72l.69-.4.1-.05.26-.15.85-.48h0V29.43l-2.2-1.27-1.52-.87-.34-.2-.61-.34-1.5-.87h0l-.42-.24L79,25.21,78.64,25l-.2-.12-.2-.11h0L73.47,22l-1.33-.76L71.57,21l-.35-.2-.38-.23,0,0-.33-.2-.32-.19h0l-1.71-1-.81-.48-4.37-2.52-1-.57-.86-.5L59.48,14,50.79,9l-.41-.24-1.11.64-4.73,2.73-.21.13-.15.08-4.46,2.57,0,0h0l-1,.58-.1.06-.51.31-1.19.68-.19.11-1.17.68-.5.3-.34.2-.3.17-.61.35-1.29.74-.09,0-.42.24-.86.5-.79.45,0,0h0l-.69.4-.6.35h0l-.39.22-.44.26h0l-.1.05-.37.21-.08,0h0l-.45.27-.43.25-.17.1,0,0-.34.2-.45.26-1.61.93L24,24l-.64.37-1.77,1-1.37.79-.45.26-.2.11h0l-.6.36-4.42,2.54V70.87l0,0,.06,0,.07,0,2.66,1.54L19.9,74h0l.2.12h0l.23.13h0l0,0,.56.33,1,.6.8.46,1.45.84h0l.81.47h0l.17.09h0l.39.23.07,0,.64.37,1.63.94,2,1.14,1.33.77.29.17.12.06,0,0,1,.58,0,0,.06,0,.06,0,.27.16.07,0,.19.12.2.12.18.1.3.17.29.17.95.55,1.74,1,0,0,0,0,0,0,0,0,.11.06.73.42.54.3.48.27,1,.57.29.17.07,0,.34.2.48.28.26.15.3.17h0l.42.23,1.18.68L45.9,89l3.49,2,.8.47.17.09.37-.21Z" transform="translate(0)"/><polyline class="cls-10" points="16.03 70.02 15.92 70.02 15.92 70.03"/></g></g></svg>