<svg id="Layer_2" data-name="Layer 2" xmlns="http://www.w3.org/2000/svg" viewBox="0 0 1200 1200"><defs><style>.cls-1{fill:#3e00ff;}.cls-2{fill:#7fbbef;}.cls-3{fill:#15003e;}.cls-4{fill:#fff;}.cls-5{opacity:0.13;isolation:isolate;}.cls-6{fill:#8e2abe;}.cls-7{fill:#f9006c;}.cls-8{fill:#ffce08;}.cls-9{fill:#0fce7c;}</style></defs><title>robokop</title><polygon class="cls-1" points="1115.1 305.83 1115.1 900.62 600.05 1198.01 187.88 960.1 186.02 958.99 84.9 900.62 84.9 305.83 600.05 8.44 1115.1 305.83"/><path class="cls-2" d="M1032.31,358.06V851.92l-.09.09-10.13,5.77-3.07,1.77-1.21.64-8.18,4.74-29.18,16.85-1.86,1.12-17.94,10.32-1.49.83-13.74,8L941,904.52l-1.29.74-4.38,2.51L933.11,909l-.27.09-.93.36-1,.66-28.16,16.17-7.62,4.37-9.78,5.61-.38.28-11.43,6.59-4.18,2.42-.18.18h-.1L854.77,954l-8.08,4.84L835,965.51l-.46.28-.65.37-.74.46-3.82,2.23-.28.1-.46.28-.47.18-.55.37v.1l-7.25,4.17-1.67.85-.19.18-.37.18-9.39,5.39-1.29.75-1.4.83-.47.29-3,1.66-2.18,1.29h-.09l-.65.37-6,3.53-1.86,1.12-3.07,1.76-2.32,1.3a.09.09,0,0,1-.1.1L782,996.16l-3.9,2.23-.38.28-5.29,3.06-21.66,12.46-5.88,3.33-.56.28-32.53,18.83-.19.09-.09.09-3.71,2.14-3.25,1.85-4.65,2.7-1.3.74L687,1050.93l-9.11,5.31-3.63,2-.09.09-4,2.33-3.72,2.14-21.93,12.64-3.34,2-.38.18-1.68.93-4.63,2.7-17.39,10-5.21,3h-.08l-3,1.76-4.46,2.6-1.3-.74L591.17,1091l-7.93-4.55-.29-.09-8.45-5-1.58-.93-.47-.28-5.67-3.25-1.57-.93L534,1058l-.36-.28-19.24-11.06L470.23,1021l-5.67-3.25-6.42-3.62-8.64-5-2-1.11-.84-.55-.28-.19-20.73-12-11.35-6.49-3.46-2-3.63-2L405,983.54l-2.4-1.4-2.24-1.4-.84-.45-3.25-1.87-.74-.46-.75-.37-.37-.29-12.08-6.86-.46-.28-1.4-.75-3.4-2.07-15.86-9.2-23.32-13.57-19.43-11.15-7.62-4.36-.84-.46-4.65-2.7-.08-.1-2-1.11h-.09l-9.66-5.58c-.1-.09-.1-.09-.19-.09l-17.31-10-9.47-5.45-12.4-7.19-6.69-4-.38-.19-.19-.09-2.65-1.61a.25.25,0,0,1-.18-.1L241.68,889l-.19-.1-30.67-17.66L179.1,852.94l-.83-.46-.74-.38-.28-.18V358.06l52.59-30.29,7.16-4.28h.09l2.33-1.3,5.39-3.07,16.32-9.34,21.1-12.18,7.62-4.46,1.39-.84,19.24-11.06,9.11-5.29,9.39-5.49,3.89-2.23,4.18-2.41,2.33-1.3h.05l5.31-3.08,30-17.27,14.68-8.56,1.59-.83L406.44,226l7.25-4.19,3.54-2,4.08-2.42,10.22-6,4.84-2.8,21.19-12.08,6.41-3.81,13-7.43h.1l.45-.28,53.21-30.72,1.77-1,2.51-1.49,56.42-32.62,13.38-7.71,9.85,5.76L675,152l24.15,13.94,36.68,21.19,12.45,7.16L810,229.83l9.68,5.67L841,247.66l8.09,4.64,14.12,8.18,12.73,7.34,7.43,4.28.85.55,16.85,9.67,35.09,20.26.36.28V303l2.42,1.31,2.42,1.48,3.72,2.13,8.54,5,5,2.88.18.09,17.84,10.32,7.26,4.09,4.08,2.33,18,10.4Z"/><path class="cls-3" d="M726.47,1077.9l14.55-8.36.67,1.14a28.46,28.46,0,0,1,3.12,7.57,17.41,17.41,0,0,1,0,7.08,18.41,18.41,0,0,1-9.29,12.69,19.81,19.81,0,0,1-15.73,2,21.18,21.18,0,0,1-4.83-38.87,20.84,20.84,0,0,1,8.68-2.74,25.76,25.76,0,0,1,9.91,1.57l-1.72,5.82q-7.63-3.27-13.87.3a14.49,14.49,0,0,0-7.16,9.26,14.83,14.83,0,0,0,1.68,11.66,14.3,14.3,0,0,0,9.78,7.26,14.56,14.56,0,0,0,10.62-1.4,12.23,12.23,0,0,0,5.5-6.68,10.92,10.92,0,0,0-.16-8.38l-8.79,5Z"/><rect class="cls-3" x="759.9" y="1037.57" width="6.13" height="40.63" transform="translate(-426.26 522.18) rotate(-29.95)"/><polygon class="cls-3" points="788.64 1026.31 806.03 1056.53 800.73 1059.58 783.34 1029.37 775.24 1034.03 772.37 1029.04 793.84 1016.68 796.7 1021.67 788.64 1026.31"/><path class="cls-3" d="M836.58,994.58l3.62,6.29q-6.84-1.22-11.76,1.62a14.11,14.11,0,0,0-6.94,9.16,15.21,15.21,0,0,0,1.73,11.65,14.8,14.8,0,0,0,9.12,7.2,14.35,14.35,0,0,0,11.37-1.47,13.06,13.06,0,0,0,4.23-3.66,15.64,15.64,0,0,0,1.56-2.53,31.43,31.43,0,0,0,1.4-3.34l3.7,6.41a22,22,0,0,1-8.1,8.11,20.82,20.82,0,0,1-28.57-7.61,20.94,20.94,0,0,1-2.44-14.55,20.34,20.34,0,0,1,10.43-14.56,20.7,20.7,0,0,1,10.65-2.72"/><path class="cls-4" d="M862.34,993a19.9,19.9,0,0,1-1.9-15.86,20.78,20.78,0,0,1,10-12.89A21.25,21.25,0,0,1,899.26,972a20,20,0,0,1,2,16,21.49,21.49,0,0,1-25.07,15.21q-9-1.79-13.88-10.25m5.38-3a15.07,15.07,0,0,0,27.76-3.3,15.74,15.74,0,0,0-10.82-18.89,14.31,14.31,0,0,0-11.47,1.49,14.45,14.45,0,0,0-7.06,9.17A14.66,14.66,0,0,0,867.76,990"/><rect class="cls-3" x="917.69" y="946.7" width="6.14" height="40.62" transform="translate(-359.95 589.26) rotate(-29.97)"/><polygon class="cls-3" points="954.17 971.29 932.52 933.67 973.68 945.76 959.58 921.28 964.88 918.24 986.39 955.6 945.29 943.57 959.47 968.23 954.17 971.29"/><g id="Layer_2-2" data-name="Layer 2-2"><g id="Layer_16" data-name="Layer 16"><path class="cls-5" d="M992.34,321.43l-5.08-2.84-6.85-4-7.33-4.27-1-.57-4.67-2.66-4.85-2.79L954,299.37l-69.05-39.68-16.24-9.31-6.86-4-4.28-2.46-4.66-2.76-.48-.19-4-2.37-3.91-2.28-50.77-29.15L608.12,100.51l-5.07-2.94-4.48,2.56L435.71,193.94l-47.78,27.53-12.38,7.09-5.07,2.93-1,.48h-.09l-2.36,1.46-4,2.37-2.85,1.62-2.57,1.52-1.71.94-14.28,8.26h-.05l-16.95,9.68-.1.1-5.51,3.23-7.24,4.05-.09.1-.3.19-30.94,17.75h-.09l-22.65,13-9.55,5.53-28.43,16.33-40.27,23.17-14.66,8.45V854l.67.37,16.37,9.5,7.11,4,1.42.76,41.13,23.74,6.57,3.7,5.08,2.94,17.9,10.35,15.14,8.74,4.37,2.47L293,927.72l32.22,18.59,51.22,29.44,6.56,3.79.67.38,1.43.76,1,.67,1.72.94.38.19L406.36,993l8.38,4.75,12.66,7.4,8.48,4.84,1.71,1,3,1.72,1.8,1,4.57,2.65,34,19.46.85.48,4.18,2.47,5.91,3.42,6.86,4h.09l5.08,2.86,14.37,8.25,30.18,17.47,42.65,24.49,9.8,5.71,2.2,1.23.18-.1,1.81-1,1.34-.76.28-.19,2.95-1.71,17.26-9.78.86-.47,6.57-3.8,4.76-2.76,2.29-1.32L678,1063.19l23.36-13.39,7-4,6.29-3.61,6.37-3.69,4.2-2.47,22.11-12.71,3.72-2.09h.09l2.19-1.32,2-1.15,6-3.41,7.62-4.37,12-6.93,4.38-2.56h.09l4.39-2.57.09-.09,2.38-1.33,5.08-2.94,3.52-2,3.34-2,5.23-3,2-1.23,3.05-1.7,4.06-2.28.19-.1.48-.29,1.24-.76,2.28-1.23,36-20.7,3.61-2.09L873,951l28.27-16.2,14.86-8.54,29-16.72,18-10.35,34.11-19.68h.09l.57-.39,25.23-14.52,8.57-4.94,9.8-5.6V349.75Zm31.42,522.51-5,2.85-3,1.71-5.51,3.22L938,893.31l-10.28,5.88-18,10.3-16.19,9.31-29.7,17.09-12.18,7-6.85,3.89-27.9,16-.67.47-1.52.86-1.72,1-5.42,3-8.48,4.84L797,974.31l-.49.35-7.71,4.47-.86.46L750.7,1001l-.76.48-7.51,4.27-.76.48-8.67,5.06L712.53,1023l-14.64,8.36-16,9.2-10.48,6-28.25,16.35-11.7,6.75-.58.38h-.18l-7.11,4.17-2.66,1.43-17.8,10.25L570.29,1067l-11.71-6.74-5.8-3.32-17.27-10-6.85-3.89-6.57-3.79L472,1010.51l-7.33-4.27-.47-.29-17-9.78L427.53,985,419,980l-5.52-3.22-2.38-1.43L407,973l-2-1.14-16.65-9.59-3-1.71-1.81-1-14.27-8.25-32.57-18.7L299.5,911.14l-2.86-1.62-13.92-8-4.06-2.38-28.44-16.32-46.7-27L195,851l-3.72-2.19-2.19-1.23-6.38-3.7V360l37.09-21.48,28.43-16.34,8.86-5.12h.09l.58-.38,30.46-17.56h.09l13-7.51h.1l17-9.78,11.9-6.83,4.06-2.37h.09l7.24-4.18,4.38-2.57h.1l28.37-16.32c.09-.1.09-.1.18-.1l7.43-4.28,3.33-1.89,1.9-1.14,2.76-1.61,1.63-1,2.57-1.42.37-.19,76.46-44.05,127.47-73.4,4.48-2.56,5.07,3,160.22,92.14,66.45,38.27.47.29,3.05,1.71,1,.56,4.2,2.47,3.33,1.9L858.59,265l18.46,10.63L943.89,314l13.42,7.69,5.23,3,.38.28,7.34,4.18,1.8,1,5.14,2.95,5.08,2.94L1023.76,360V843.94Z"/></g></g><rect class="cls-6" x="864.27" y="731.5" width="13.84" height="13.84"/><rect class="cls-6" x="864.27" y="717.66" width="13.84" height="13.84"/><rect class="cls-6" x="864.27" y="703.83" width="13.84" height="13.83"/><rect class="cls-1" x="864.27" y="690" width="13.84" height="13.84"/><rect class="cls-1" x="864.27" y="676.16" width="13.84" height="13.84"/><rect class="cls-1" x="864.27" y="662.33" width="13.84" height="13.83"/><rect class="cls-1" x="864.27" y="648.5" width="13.84" height="13.84"/><rect class="cls-1" x="864.27" y="634.66" width="13.84" height="13.84"/><rect class="cls-1" x="864.27" y="454.83" width="13.84" height="13.84"/><rect class="cls-1" x="864.27" y="441" width="13.84" height="13.84"/><rect class="cls-1" x="864.27" y="427.17" width="13.84" height="13.83"/><rect class="cls-1" x="864.27" y="413.33" width="13.84" height="13.84"/><rect class="cls-6" x="850.45" y="731.5" width="13.83" height="13.84"/><rect class="cls-6" x="850.45" y="717.66" width="13.83" height="13.84"/><rect class="cls-6" x="850.45" y="703.83" width="13.83" height="13.83"/><rect class="cls-1" x="850.45" y="690" width="13.83" height="13.84"/><rect class="cls-1" x="850.45" y="676.16" width="13.83" height="13.84"/><rect class="cls-1" x="850.45" y="662.33" width="13.83" height="13.83"/><rect class="cls-1" x="850.45" y="648.5" width="13.83" height="13.84"/><rect class="cls-1" x="850.45" y="634.66" width="13.83" height="13.84"/><rect class="cls-3" x="850.45" y="620.83" width="13.83" height="13.83"/><rect class="cls-1" x="850.45" y="607" width="13.83" height="13.84"/><rect class="cls-1" x="850.45" y="593.16" width="13.83" height="13.84"/><rect class="cls-1" x="850.45" y="579.33" width="13.83" height="13.83"/><rect class="cls-1" x="850.45" y="565.5" width="13.83" height="13.84"/><rect class="cls-1" x="850.45" y="551.67" width="13.83" height="13.83"/><rect class="cls-1" x="850.45" y="537.83" width="13.83" height="13.84"/><rect class="cls-1" x="850.45" y="524" width="13.83" height="13.84"/><rect class="cls-3" x="850.45" y="510.17" width="13.83" height="13.83"/><rect class="cls-3" x="850.45" y="468.67" width="13.83" height="13.83"/><rect class="cls-1" x="850.45" y="454.83" width="13.83" height="13.84"/><rect class="cls-1" x="850.45" y="441" width="13.83" height="13.84"/><rect class="cls-1" x="850.45" y="427.17" width="13.83" height="13.83"/><rect class="cls-1" x="850.45" y="413.33" width="13.83" height="13.84"/><rect class="cls-1" x="850.45" y="399.51" width="13.83" height="13.83"/><rect class="cls-6" x="836.61" y="717.66" width="13.84" height="13.84"/><rect class="cls-6" x="836.61" y="703.83" width="13.84" height="13.83"/><rect class="cls-1" x="836.61" y="690" width="13.84" height="13.84"/><rect class="cls-1" x="836.61" y="676.16" width="13.84" height="13.84"/><rect class="cls-1" x="836.61" y="662.33" width="13.84" height="13.83"/><rect class="cls-1" x="836.61" y="648.5" width="13.84" height="13.84"/><rect class="cls-1" x="836.61" y="634.66" width="13.84" height="13.84"/><rect class="cls-3" x="836.61" y="620.83" width="13.84" height="13.83"/><rect class="cls-1" x="836.61" y="607" width="13.84" height="13.84"/><rect class="cls-1" x="836.61" y="593.16" width="13.84" height="13.84"/><rect class="cls-1" x="836.61" y="579.33" width="13.84" height="13.83"/><rect class="cls-1" x="836.61" y="565.5" width="13.84" height="13.84"/><rect class="cls-1" x="836.61" y="551.67" width="13.84" height="13.83"/><rect class="cls-1" x="836.61" y="537.83" width="13.84" height="13.84"/><rect class="cls-1" x="836.61" y="524" width="13.84" height="13.84"/><rect class="cls-3" x="836.61" y="510.17" width="13.84" height="13.83"/><rect class="cls-3" x="836.61" y="496.33" width="13.84" height="13.84"/><rect class="cls-3" x="836.61" y="482.5" width="13.84" height="13.84"/><rect class="cls-3" x="836.61" y="468.67" width="13.84" height="13.83"/><rect class="cls-1" x="836.61" y="454.83" width="13.84" height="13.84"/><rect class="cls-1" x="836.61" y="441" width="13.84" height="13.84"/><rect class="cls-1" x="836.61" y="427.17" width="13.84" height="13.83"/><rect class="cls-1" x="836.61" y="413.33" width="13.84" height="13.84"/><rect class="cls-1" x="836.61" y="399.51" width="13.84" height="13.83"/><rect class="cls-1" x="836.61" y="385.67" width="13.84" height="13.84"/><rect class="cls-1" x="836.61" y="371.83" width="13.84" height="13.84"/><rect class="cls-1" x="836.61" y="358.01" width="13.84" height="13.83"/><rect class="cls-6" x="822.77" y="731.5" width="13.84" height="13.84"/><rect class="cls-6" x="822.77" y="717.66" width="13.84" height="13.84"/><rect class="cls-6" x="822.77" y="703.83" width="13.84" height="13.83"/><rect class="cls-1" x="822.77" y="690" width="13.84" height="13.84"/><rect class="cls-1" x="822.77" y="676.16" width="13.84" height="13.84"/><rect class="cls-1" x="822.77" y="662.33" width="13.84" height="13.83"/><rect class="cls-1" x="822.77" y="648.5" width="13.84" height="13.84"/><rect class="cls-1" x="822.77" y="634.66" width="13.84" height="13.84"/><rect class="cls-3" x="822.77" y="620.83" width="13.84" height="13.83"/><rect class="cls-1" x="822.77" y="607" width="13.84" height="13.84"/><rect class="cls-1" x="822.77" y="593.16" width="13.84" height="13.84"/><rect class="cls-1" x="822.77" y="579.33" width="13.84" height="13.83"/><rect class="cls-1" x="822.77" y="565.5" width="13.84" height="13.84"/><rect class="cls-1" x="822.77" y="551.67" width="13.84" height="13.83"/><rect class="cls-1" x="822.77" y="537.83" width="13.84" height="13.84"/><rect class="cls-1" x="822.77" y="524" width="13.84" height="13.84"/><rect class="cls-3" x="822.77" y="510.17" width="13.84" height="13.83"/><rect class="cls-3" x="822.77" y="496.33" width="13.84" height="13.84"/><rect class="cls-3" x="822.77" y="482.5" width="13.84" height="13.84"/><rect class="cls-3" x="822.77" y="468.67" width="13.84" height="13.83"/><rect class="cls-1" x="822.77" y="454.83" width="13.84" height="13.84"/><rect class="cls-1" x="822.77" y="441" width="13.84" height="13.84"/><rect class="cls-1" x="822.77" y="427.17" width="13.84" height="13.83"/><rect class="cls-1" x="822.77" y="413.33" width="13.84" height="13.84"/><rect class="cls-1" x="822.77" y="399.51" width="13.84" height="13.83"/><rect class="cls-1" x="822.77" y="385.67" width="13.84" height="13.84"/><rect class="cls-1" x="822.77" y="371.83" width="13.84" height="13.84"/><rect class="cls-1" x="822.77" y="358.01" width="13.84" height="13.83"/><rect class="cls-6" x="808.95" y="717.66" width="13.83" height="13.84"/><rect class="cls-6" x="808.95" y="703.83" width="13.83" height="13.83"/><rect class="cls-1" x="808.95" y="690" width="13.83" height="13.84"/><rect class="cls-1" x="808.95" y="676.16" width="13.83" height="13.84"/><rect class="cls-1" x="808.95" y="662.33" width="13.83" height="13.83"/><rect class="cls-1" x="808.95" y="648.5" width="13.83" height="13.84"/><rect class="cls-1" x="808.95" y="634.66" width="13.83" height="13.84"/><rect class="cls-3" x="808.95" y="620.83" width="13.83" height="13.83"/><rect class="cls-1" x="808.95" y="607" width="13.83" height="13.84"/><rect class="cls-1" x="808.95" y="593.16" width="13.83" height="13.84"/><rect class="cls-1" x="808.95" y="579.33" width="13.83" height="13.83"/><rect class="cls-1" x="808.95" y="565.5" width="13.83" height="13.84"/><rect class="cls-1" x="808.95" y="551.67" width="13.83" height="13.83"/><rect class="cls-1" x="808.95" y="537.83" width="13.83" height="13.84"/><rect class="cls-1" x="808.95" y="524" width="13.83" height="13.84"/><rect class="cls-3" x="808.95" y="510.17" width="13.83" height="13.83"/><rect class="cls-3" x="808.95" y="496.33" width="13.83" height="13.84"/><rect class="cls-3" x="808.95" y="482.5" width="13.83" height="13.84"/><rect class="cls-3" x="808.95" y="468.67" width="13.83" height="13.83"/><rect class="cls-1" x="808.95" y="454.83" width="13.83" height="13.84"/><rect class="cls-1" x="808.95" y="441" width="13.83" height="13.84"/><rect class="cls-1" x="808.95" y="427.17" width="13.83" height="13.83"/><rect class="cls-1" x="808.95" y="413.33" width="13.83" height="13.84"/><rect class="cls-1" x="808.95" y="399.51" width="13.83" height="13.83"/><rect class="cls-1" x="808.95" y="385.67" width="13.83" height="13.84"/><rect class="cls-1" x="808.95" y="371.83" width="13.83" height="13.84"/><rect class="cls-1" x="808.95" y="358.01" width="13.83" height="13.83"/><rect class="cls-6" x="795.11" y="731.5" width="13.84" height="13.84"/><rect class="cls-6" x="795.11" y="717.66" width="13.84" height="13.84"/><rect class="cls-6" x="795.11" y="703.83" width="13.84" height="13.83"/><rect class="cls-1" x="795.11" y="690" width="13.84" height="13.84"/><rect class="cls-1" x="795.11" y="676.16" width="13.84" height="13.84"/><rect class="cls-1" x="795.11" y="662.33" width="13.84" height="13.83"/><rect class="cls-1" x="795.11" y="648.5" width="13.84" height="13.84"/><rect class="cls-1" x="795.11" y="634.66" width="13.84" height="13.84"/><rect class="cls-3" x="795.11" y="620.83" width="13.84" height="13.83"/><rect class="cls-1" x="795.11" y="607" width="13.84" height="13.84"/><rect class="cls-1" x="795.11" y="593.16" width="13.84" height="13.84"/><rect class="cls-1" x="795.11" y="579.33" width="13.84" height="13.83"/><rect class="cls-1" x="795.11" y="565.5" width="13.84" height="13.84"/><rect class="cls-1" x="795.11" y="551.67" width="13.84" height="13.83"/><rect class="cls-1" x="795.11" y="537.83" width="13.84" height="13.84"/><rect class="cls-1" x="795.11" y="524" width="13.84" height="13.84"/><rect class="cls-3" x="795.11" y="510.17" width="13.84" height="13.83"/><rect class="cls-3" x="795.11" y="496.33" width="13.84" height="13.84"/><rect class="cls-3" x="795.11" y="482.5" width="13.84" height="13.84"/><rect class="cls-3" x="795.11" y="468.67" width="13.84" height="13.83"/><rect class="cls-1" x="795.11" y="454.83" width="13.84" height="13.84"/><rect class="cls-1" x="795.11" y="441" width="13.84" height="13.84"/><rect class="cls-1" x="795.11" y="427.17" width="13.84" height="13.83"/><rect class="cls-1" x="795.11" y="413.33" width="13.84" height="13.84"/><rect class="cls-1" x="795.11" y="399.51" width="13.84" height="13.83"/><rect class="cls-1" x="795.11" y="385.67" width="13.84" height="13.84"/><rect class="cls-1" x="795.11" y="371.83" width="13.84" height="13.84"/><rect class="cls-1" x="795.11" y="358.01" width="13.84" height="13.83"/><rect class="cls-6" x="781.27" y="717.66" width="13.84" height="13.84"/><rect class="cls-6" x="781.27" y="703.83" width="13.84" height="13.83"/><rect class="cls-1" x="781.27" y="690" width="13.84" height="13.84"/><rect class="cls-1" x="781.27" y="676.16" width="13.84" height="13.84"/><rect class="cls-1" x="781.27" y="662.33" width="13.84" height="13.83"/><rect class="cls-1" x="781.27" y="648.5" width="13.84" height="13.84"/><rect class="cls-1" x="781.27" y="634.66" width="13.84" height="13.84"/><rect class="cls-3" x="781.27" y="620.83" width="13.84" height="13.83"/><rect class="cls-1" x="781.27" y="607" width="13.84" height="13.84"/><rect class="cls-1" x="781.27" y="593.16" width="13.84" height="13.84"/><rect class="cls-1" x="781.27" y="579.33" width="13.84" height="13.83"/><rect class="cls-1" x="781.27" y="565.5" width="13.84" height="13.84"/><rect class="cls-1" x="781.27" y="551.67" width="13.84" height="13.83"/><rect class="cls-1" x="781.27" y="537.83" width="13.84" height="13.84"/><rect class="cls-1" x="781.27" y="524" width="13.84" height="13.84"/><rect class="cls-3" x="781.27" y="510.17" width="13.84" height="13.83"/><rect class="cls-3" x="781.27" y="468.67" width="13.84" height="13.83"/><rect class="cls-1" x="781.27" y="454.83" width="13.84" height="13.84"/><rect class="cls-1" x="781.27" y="441" width="13.84" height="13.84"/><rect class="cls-1" x="781.27" y="427.17" width="13.84" height="13.83"/><rect class="cls-1" x="781.27" y="413.33" width="13.84" height="13.84"/><rect class="cls-1" x="781.27" y="399.51" width="13.84" height="13.83"/><rect class="cls-1" x="781.27" y="385.67" width="13.84" height="13.84"/><rect class="cls-1" x="781.27" y="371.83" width="13.84" height="13.84"/><rect class="cls-1" x="781.27" y="358.01" width="13.84" height="13.83"/><rect class="cls-1" x="781.27" y="344.17" width="13.84" height="13.84"/><rect class="cls-3" x="767.45" y="869.82" width="13.83" height="13.84"/><rect class="cls-3" x="767.45" y="856" width="13.83" height="13.83"/><rect class="cls-1" x="767.45" y="842.16" width="13.83" height="13.84"/><rect class="cls-1" x="767.45" y="828.32" width="13.83" height="13.84"/><rect class="cls-1" x="767.45" y="814.5" width="13.83" height="13.83"/><rect class="cls-1" x="767.45" y="800.66" width="13.83" height="13.84"/><rect class="cls-6" x="767.45" y="731.5" width="13.83" height="13.84"/><rect class="cls-6" x="767.45" y="717.66" width="13.83" height="13.84"/><rect class="cls-6" x="767.45" y="703.83" width="13.83" height="13.83"/><rect class="cls-1" x="767.45" y="690" width="13.83" height="13.84"/><rect class="cls-1" x="767.45" y="676.16" width="13.83" height="13.84"/><rect class="cls-1" x="767.45" y="662.33" width="13.83" height="13.83"/><rect class="cls-1" x="767.45" y="648.5" width="13.83" height="13.84"/><rect class="cls-1" x="767.45" y="634.66" width="13.83" height="13.84"/><rect class="cls-1" x="767.45" y="454.83" width="13.83" height="13.84"/><rect class="cls-1" x="767.45" y="441" width="13.83" height="13.84"/><rect class="cls-1" x="767.45" y="427.17" width="13.83" height="13.83"/><rect class="cls-1" x="767.45" y="413.33" width="13.83" height="13.84"/><rect class="cls-1" x="767.45" y="399.51" width="13.83" height="13.83"/><rect class="cls-1" x="767.45" y="385.67" width="13.83" height="13.84"/><rect class="cls-1" x="767.45" y="371.83" width="13.83" height="13.84"/><rect class="cls-1" x="767.45" y="358.01" width="13.83" height="13.83"/><rect class="cls-1" x="767.45" y="344.17" width="13.83" height="13.84"/><rect class="cls-3" x="753.61" y="856" width="13.84" height="13.83"/><rect class="cls-1" x="753.61" y="842.16" width="13.84" height="13.84"/><rect class="cls-1" x="753.61" y="828.32" width="13.84" height="13.84"/><rect class="cls-1" x="753.61" y="814.5" width="13.84" height="13.83"/><rect class="cls-1" x="753.61" y="800.66" width="13.84" height="13.84"/><rect class="cls-1" x="753.61" y="786.82" width="13.84" height="13.84"/><rect class="cls-6" x="753.61" y="731.5" width="13.84" height="13.84"/><rect class="cls-6" x="753.61" y="717.66" width="13.84" height="13.84"/><rect class="cls-6" x="753.61" y="703.83" width="13.84" height="13.83"/><rect class="cls-1" x="753.61" y="690" width="13.84" height="13.84"/><rect class="cls-1" x="753.61" y="676.16" width="13.84" height="13.84"/><rect class="cls-1" x="753.61" y="662.33" width="13.84" height="13.83"/><rect class="cls-1" x="753.61" y="648.5" width="13.84" height="13.84"/><rect class="cls-1" x="753.61" y="634.66" width="13.84" height="13.84"/><rect class="cls-3" x="753.61" y="441" width="13.84" height="13.84"/><rect class="cls-3" x="753.61" y="427.17" width="13.84" height="13.83"/><rect class="cls-3" x="753.61" y="413.33" width="13.84" height="13.84"/><rect class="cls-3" x="753.61" y="399.51" width="13.84" height="13.83"/><rect class="cls-3" x="753.61" y="385.67" width="13.84" height="13.84"/><rect class="cls-3" x="753.61" y="371.83" width="13.84" height="13.84"/><rect class="cls-3" x="753.61" y="358.01" width="13.84" height="13.83"/><rect class="cls-3" x="739.78" y="869.82" width="13.83" height="13.84"/><rect class="cls-3" x="739.78" y="856" width="13.83" height="13.83"/><rect class="cls-1" x="739.78" y="842.16" width="13.83" height="13.84"/><rect class="cls-1" x="739.78" y="828.32" width="13.83" height="13.84"/><rect class="cls-1" x="739.78" y="814.5" width="13.83" height="13.83"/><rect class="cls-1" x="739.78" y="800.66" width="13.83" height="13.84"/><rect class="cls-1" x="739.78" y="786.82" width="13.83" height="13.84"/><rect class="cls-6" x="739.78" y="690" width="13.83" height="13.84"/><rect class="cls-6" x="739.78" y="676.16" width="13.83" height="13.84"/><rect class="cls-6" x="739.78" y="662.33" width="13.83" height="13.83"/><rect class="cls-6" x="739.78" y="648.5" width="13.83" height="13.84"/><rect class="cls-3" x="739.78" y="427.17" width="13.83" height="13.83"/><rect class="cls-3" x="739.78" y="413.33" width="13.83" height="13.84"/><rect class="cls-3" x="739.78" y="399.51" width="13.83" height="13.83"/><rect class="cls-3" x="739.78" y="385.67" width="13.83" height="13.84"/><rect class="cls-3" x="739.78" y="371.83" width="13.83" height="13.84"/><rect class="cls-3" x="725.95" y="869.82" width="13.84" height="13.84"/><rect class="cls-3" x="725.95" y="856" width="13.84" height="13.83"/><rect class="cls-1" x="725.95" y="842.16" width="13.84" height="13.84"/><rect class="cls-1" x="725.95" y="828.32" width="13.84" height="13.84"/><rect class="cls-1" x="725.95" y="814.5" width="13.84" height="13.83"/><rect class="cls-1" x="725.95" y="800.66" width="13.84" height="13.84"/><rect class="cls-1" x="725.95" y="786.82" width="13.84" height="13.84"/><rect class="cls-6" x="725.95" y="773" width="13.84" height="13.83"/><rect class="cls-6" x="725.95" y="759.16" width="13.84" height="13.84"/><rect class="cls-6" x="725.95" y="745.33" width="13.84" height="13.83"/><rect class="cls-6" x="725.95" y="731.5" width="13.84" height="13.84"/><rect class="cls-1" x="725.95" y="468.67" width="13.84" height="13.83"/><rect class="cls-1" x="725.95" y="454.83" width="13.84" height="13.84"/><rect class="cls-3" x="725.95" y="441" width="13.84" height="13.84"/><rect class="cls-3" x="725.95" y="427.17" width="13.84" height="13.83"/><rect class="cls-3" x="725.95" y="413.33" width="13.84" height="13.84"/><rect class="cls-3" x="725.95" y="399.51" width="13.84" height="13.83"/><rect class="cls-3" x="725.95" y="385.67" width="13.84" height="13.84"/><rect class="cls-3" x="725.95" y="371.83" width="13.84" height="13.84"/><rect class="cls-3" x="725.95" y="358.01" width="13.84" height="13.83"/><rect class="cls-3" x="712.11" y="856" width="13.84" height="13.83"/><rect class="cls-1" x="712.11" y="842.16" width="13.84" height="13.84"/><rect class="cls-1" x="712.11" y="828.32" width="13.84" height="13.84"/><rect class="cls-1" x="712.11" y="814.5" width="13.84" height="13.83"/><rect class="cls-1" x="712.11" y="800.66" width="13.84" height="13.84"/><rect class="cls-1" x="712.11" y="786.82" width="13.84" height="13.84"/><rect class="cls-6" x="712.11" y="773" width="13.84" height="13.83"/><rect class="cls-6" x="712.11" y="759.16" width="13.84" height="13.84"/><rect class="cls-6" x="712.11" y="745.33" width="13.84" height="13.83"/><rect class="cls-6" x="712.11" y="731.5" width="13.84" height="13.84"/><rect class="cls-3" x="712.11" y="717.66" width="13.84" height="13.84"/><rect class="cls-6" x="712.11" y="676.16" width="13.84" height="13.84"/><rect class="cls-7" x="712.11" y="496.33" width="13.84" height="13.84"/><rect class="cls-7" x="712.11" y="482.5" width="13.84" height="13.84"/><rect class="cls-7" x="712.11" y="468.67" width="13.84" height="13.83"/><rect class="cls-1" x="712.11" y="454.83" width="13.84" height="13.84"/><rect class="cls-1" x="712.11" y="441" width="13.84" height="13.84"/><rect class="cls-1" x="712.11" y="427.17" width="13.84" height="13.83"/><rect class="cls-1" x="712.11" y="413.33" width="13.84" height="13.84"/><rect class="cls-1" x="712.11" y="399.51" width="13.84" height="13.83"/><rect class="cls-1" x="712.11" y="385.67" width="13.84" height="13.84"/><rect class="cls-1" x="712.11" y="371.83" width="13.84" height="13.84"/><rect class="cls-1" x="712.11" y="358.01" width="13.84" height="13.83"/><rect class="cls-1" x="712.11" y="344.17" width="13.84" height="13.84"/><rect class="cls-1" x="712.11" y="330.33" width="13.84" height="13.84"/><rect class="cls-3" x="698.28" y="869.82" width="13.83" height="13.84"/><rect class="cls-3" x="698.28" y="856" width="13.83" height="13.83"/><rect class="cls-1" x="698.28" y="842.16" width="13.83" height="13.84"/><rect class="cls-1" x="698.28" y="828.32" width="13.83" height="13.84"/><rect class="cls-1" x="698.28" y="814.5" width="13.83" height="13.83"/><rect class="cls-1" x="698.28" y="800.66" width="13.83" height="13.84"/><rect class="cls-1" x="698.28" y="786.82" width="13.83" height="13.84"/><rect class="cls-6" x="698.28" y="773" width="13.83" height="13.83"/><rect class="cls-6" x="698.28" y="759.16" width="13.83" height="13.84"/><rect class="cls-6" x="698.28" y="745.33" width="13.83" height="13.83"/><rect class="cls-6" x="698.28" y="731.5" width="13.83" height="13.84"/><rect class="cls-3" x="698.28" y="717.66" width="13.83" height="13.84"/><rect class="cls-3" x="698.28" y="703.83" width="13.83" height="13.83"/><rect class="cls-3" x="698.28" y="690" width="13.83" height="13.84"/><rect class="cls-6" x="698.28" y="676.16" width="13.83" height="13.84"/><rect class="cls-3" x="698.28" y="662.33" width="13.83" height="13.83"/><rect class="cls-7" x="698.28" y="496.33" width="13.83" height="13.84"/><rect class="cls-1" x="698.28" y="482.5" width="13.83" height="13.84"/><rect class="cls-1" x="698.28" y="468.67" width="13.83" height="13.83"/><rect class="cls-1" x="698.28" y="454.83" width="13.83" height="13.84"/><rect class="cls-1" x="698.28" y="441" width="13.83" height="13.84"/><rect class="cls-1" x="698.28" y="427.17" width="13.83" height="13.83"/><rect class="cls-1" x="698.28" y="413.33" width="13.83" height="13.84"/><rect class="cls-1" x="698.28" y="399.51" width="13.83" height="13.83"/><rect class="cls-1" x="698.28" y="385.67" width="13.83" height="13.84"/><rect class="cls-1" x="698.28" y="371.83" width="13.83" height="13.84"/><rect class="cls-1" x="698.28" y="358.01" width="13.83" height="13.83"/><rect class="cls-1" x="698.28" y="344.17" width="13.83" height="13.84"/><rect class="cls-1" x="698.28" y="330.33" width="13.83" height="13.84"/><rect class="cls-3" x="684.45" y="869.82" width="13.84" height="13.84"/><rect class="cls-3" x="684.45" y="856" width="13.84" height="13.83"/><rect class="cls-1" x="684.45" y="842.16" width="13.84" height="13.84"/><rect class="cls-1" x="684.45" y="828.32" width="13.84" height="13.84"/><rect class="cls-1" x="684.45" y="814.5" width="13.84" height="13.83"/><rect class="cls-1" x="684.45" y="800.66" width="13.84" height="13.84"/><rect class="cls-6" x="684.45" y="786.82" width="13.84" height="13.84"/><rect class="cls-6" x="684.45" y="773" width="13.84" height="13.83"/><rect class="cls-6" x="684.45" y="759.16" width="13.84" height="13.84"/><rect class="cls-6" x="684.45" y="745.33" width="13.84" height="13.83"/><rect class="cls-6" x="684.45" y="731.5" width="13.84" height="13.84"/><rect class="cls-3" x="684.45" y="717.66" width="13.84" height="13.84"/><rect class="cls-3" x="684.45" y="703.83" width="13.84" height="13.83"/><rect class="cls-3" x="684.45" y="690" width="13.84" height="13.84"/><rect class="cls-6" x="684.45" y="676.16" width="13.84" height="13.84"/><rect class="cls-3" x="684.45" y="662.33" width="13.84" height="13.83"/><rect class="cls-3" x="684.45" y="648.5" width="13.84" height="13.84"/><rect class="cls-3" x="684.45" y="634.66" width="13.84" height="13.84"/><rect class="cls-3" x="684.45" y="620.83" width="13.84" height="13.83"/><rect class="cls-1" x="684.45" y="537.83" width="13.84" height="13.84"/><rect class="cls-1" x="684.45" y="524" width="13.84" height="13.84"/><rect class="cls-8" x="684.45" y="510.17" width="13.84" height="13.83"/><rect class="cls-8" x="684.45" y="496.33" width="13.84" height="13.84"/><rect class="cls-1" x="684.45" y="468.67" width="13.84" height="13.83"/><rect class="cls-8" x="684.45" y="454.83" width="13.84" height="13.84"/><rect class="cls-8" x="684.45" y="441" width="13.84" height="13.84"/><rect class="cls-8" x="684.45" y="427.17" width="13.84" height="13.83"/><rect class="cls-6" x="684.45" y="413.33" width="13.84" height="13.84"/><rect class="cls-1" x="684.45" y="399.51" width="13.84" height="13.83"/><rect class="cls-6" x="684.45" y="385.67" width="13.84" height="13.84"/><rect class="cls-4" x="684.45" y="371.83" width="13.84" height="13.84"/><rect class="cls-1" x="684.45" y="358.01" width="13.84" height="13.83"/><rect class="cls-1" x="684.45" y="344.17" width="13.84" height="13.84"/><rect class="cls-1" x="684.45" y="330.33" width="13.84" height="13.84"/><rect class="cls-3" x="670.61" y="856" width="13.84" height="13.83"/><rect class="cls-1" x="670.61" y="842.16" width="13.84" height="13.84"/><rect class="cls-1" x="670.61" y="828.32" width="13.84" height="13.84"/><rect class="cls-1" x="670.61" y="814.5" width="13.84" height="13.83"/><rect class="cls-6" x="670.61" y="800.66" width="13.84" height="13.84"/><rect class="cls-6" x="670.61" y="786.82" width="13.84" height="13.84"/><rect class="cls-6" x="670.61" y="773" width="13.84" height="13.83"/><rect class="cls-6" x="670.61" y="759.16" width="13.84" height="13.84"/><rect class="cls-6" x="670.61" y="745.33" width="13.84" height="13.83"/><rect class="cls-6" x="670.61" y="731.5" width="13.84" height="13.84"/><rect class="cls-3" x="670.61" y="717.66" width="13.84" height="13.84"/><rect class="cls-3" x="670.61" y="703.83" width="13.84" height="13.83"/><rect class="cls-3" x="670.61" y="690" width="13.84" height="13.84"/><rect class="cls-6" x="670.61" y="676.16" width="13.84" height="13.84"/><rect class="cls-3" x="670.61" y="662.33" width="13.84" height="13.83"/><rect class="cls-3" x="670.61" y="648.5" width="13.84" height="13.84"/><rect class="cls-3" x="670.61" y="634.66" width="13.84" height="13.84"/><rect class="cls-3" x="670.61" y="620.83" width="13.84" height="13.83"/><rect class="cls-3" x="670.61" y="607" width="13.84" height="13.84"/><rect class="cls-1" x="670.61" y="537.83" width="13.84" height="13.84"/><rect class="cls-1" x="670.61" y="524" width="13.84" height="13.84"/><rect class="cls-8" x="670.61" y="510.17" width="13.84" height="13.83"/><rect class="cls-8" x="670.61" y="496.33" width="13.84" height="13.84"/><rect class="cls-9" x="670.61" y="482.5" width="13.84" height="13.84"/><rect class="cls-9" x="670.61" y="468.67" width="13.84" height="13.83"/><rect class="cls-8" x="670.61" y="454.83" width="13.84" height="13.84"/><rect class="cls-8" x="670.61" y="441" width="13.84" height="13.84"/><rect class="cls-6" x="670.61" y="413.33" width="13.84" height="13.84"/><rect class="cls-1" x="670.61" y="399.51" width="13.84" height="13.83"/><rect class="cls-6" x="670.61" y="385.67" width="13.84" height="13.84"/><rect class="cls-4" x="670.61" y="371.83" width="13.84" height="13.84"/><rect class="cls-1" x="670.61" y="358.01" width="13.84" height="13.83"/><rect class="cls-1" x="670.61" y="344.17" width="13.84" height="13.84"/><rect class="cls-1" x="670.61" y="330.33" width="13.84" height="13.84"/><rect class="cls-3" x="656.78" y="869.82" width="13.83" height="13.84"/><rect class="cls-3" x="656.78" y="856" width="13.83" height="13.83"/><rect class="cls-1" x="656.78" y="842.16" width="13.83" height="13.84"/><rect class="cls-6" x="656.78" y="828.32" width="13.83" height="13.84"/><rect class="cls-6" x="656.78" y="814.5" width="13.83" height="13.83"/><rect class="cls-6" x="656.78" y="800.66" width="13.83" height="13.84"/><rect class="cls-6" x="656.78" y="786.82" width="13.83" height="13.84"/><rect class="cls-6" x="656.78" y="773" width="13.83" height="13.83"/><rect class="cls-6" x="656.78" y="759.16" width="13.83" height="13.84"/><rect class="cls-6" x="656.78" y="745.33" width="13.83" height="13.83"/><rect class="cls-6" x="656.78" y="731.5" width="13.83" height="13.84"/><rect class="cls-3" x="656.78" y="717.66" width="13.83" height="13.84"/><rect class="cls-3" x="656.78" y="703.83" width="13.83" height="13.83"/><rect class="cls-3" x="656.78" y="690" width="13.83" height="13.84"/><rect class="cls-6" x="656.78" y="676.16" width="13.83" height="13.84"/><rect class="cls-3" x="656.78" y="662.33" width="13.83" height="13.83"/><rect class="cls-3" x="656.78" y="634.66" width="13.83" height="13.84"/><rect class="cls-3" x="656.78" y="620.83" width="13.83" height="13.83"/><rect class="cls-3" x="656.78" y="607" width="13.83" height="13.84"/><rect class="cls-3" x="656.78" y="593.16" width="13.83" height="13.84"/><rect class="cls-1" x="656.78" y="551.67" width="13.83" height="13.83"/><rect class="cls-1" x="656.78" y="537.83" width="13.83" height="13.84"/><rect class="cls-1" x="656.78" y="524" width="13.83" height="13.84"/><rect class="cls-1" x="656.78" y="510.17" width="13.83" height="13.83"/><rect class="cls-1" x="656.78" y="496.33" width="13.83" height="13.84"/><rect class="cls-9" x="656.78" y="482.5" width="13.83" height="13.84"/><rect class="cls-9" x="656.78" y="468.67" width="13.83" height="13.83"/><rect class="cls-8" x="656.78" y="454.83" width="13.83" height="13.84"/><rect class="cls-8" x="656.78" y="441" width="13.83" height="13.84"/><rect class="cls-6" x="656.78" y="413.33" width="13.83" height="13.84"/><rect class="cls-1" x="656.78" y="399.51" width="13.83" height="13.83"/><rect class="cls-6" x="656.78" y="385.67" width="13.83" height="13.84"/><rect class="cls-4" x="656.78" y="371.83" width="13.83" height="13.84"/><rect class="cls-1" x="656.78" y="358.01" width="13.83" height="13.83"/><rect class="cls-1" x="656.78" y="344.17" width="13.83" height="13.84"/><rect class="cls-1" x="656.78" y="330.33" width="13.83" height="13.84"/><rect class="cls-3" x="642.95" y="856" width="13.84" height="13.83"/><rect class="cls-1" x="642.95" y="842.16" width="13.84" height="13.84"/><rect class="cls-1" x="642.95" y="828.32" width="13.84" height="13.84"/><rect class="cls-1" x="642.95" y="814.5" width="13.84" height="13.83"/><rect class="cls-6" x="642.95" y="800.66" width="13.84" height="13.84"/><rect class="cls-6" x="642.95" y="786.82" width="13.84" height="13.84"/><rect class="cls-6" x="642.95" y="773" width="13.84" height="13.83"/><rect class="cls-6" x="642.95" y="759.16" width="13.84" height="13.84"/><rect class="cls-6" x="642.95" y="745.33" width="13.84" height="13.83"/><rect class="cls-6" x="642.95" y="731.5" width="13.84" height="13.84"/><rect class="cls-3" x="642.95" y="717.66" width="13.84" height="13.84"/><rect class="cls-6" x="642.95" y="676.16" width="13.84" height="13.84"/><rect class="cls-3" x="642.95" y="620.83" width="13.84" height="13.83"/><rect class="cls-3" x="642.95" y="607" width="13.84" height="13.84"/><rect class="cls-3" x="642.95" y="593.16" width="13.84" height="13.84"/><rect class="cls-3" x="642.95" y="565.5" width="13.84" height="13.84"/><rect class="cls-1" x="642.95" y="551.67" width="13.84" height="13.83"/><rect class="cls-1" x="642.95" y="537.83" width="13.84" height="13.84"/><rect class="cls-1" x="642.95" y="524" width="13.84" height="13.84"/><rect class="cls-1" x="642.95" y="510.17" width="13.84" height="13.83"/><rect class="cls-1" x="642.95" y="496.33" width="13.84" height="13.84"/><rect class="cls-9" x="642.95" y="482.5" width="13.84" height="13.84"/><rect class="cls-9" x="642.95" y="468.67" width="13.84" height="13.83"/><rect class="cls-8" x="642.95" y="454.83" width="13.84" height="13.84"/><rect class="cls-8" x="642.95" y="441" width="13.84" height="13.84"/><rect class="cls-1" x="642.95" y="413.33" width="13.84" height="13.84"/><rect class="cls-1" x="642.95" y="399.51" width="13.84" height="13.83"/><rect class="cls-1" x="642.95" y="385.67" width="13.84" height="13.84"/><rect class="cls-1" x="642.95" y="371.83" width="13.84" height="13.84"/><rect class="cls-1" x="642.95" y="358.01" width="13.84" height="13.83"/><rect class="cls-1" x="642.95" y="344.17" width="13.84" height="13.84"/><rect class="cls-3" x="642.95" y="330.33" width="13.84" height="13.84"/><rect class="cls-3" x="642.95" y="316.51" width="13.84" height="13.83"/><rect class="cls-3" x="629.11" y="869.82" width="13.84" height="13.84"/><rect class="cls-3" x="629.11" y="856" width="13.84" height="13.83"/><rect class="cls-1" x="629.11" y="842.16" width="13.84" height="13.84"/><rect class="cls-1" x="629.11" y="828.32" width="13.84" height="13.84"/><rect class="cls-1" x="629.11" y="814.5" width="13.84" height="13.83"/><rect class="cls-1" x="629.11" y="800.66" width="13.84" height="13.84"/><rect class="cls-6" x="629.11" y="786.82" width="13.84" height="13.84"/><rect class="cls-6" x="629.11" y="773" width="13.84" height="13.83"/><rect class="cls-6" x="629.11" y="759.16" width="13.84" height="13.84"/><rect class="cls-6" x="629.11" y="745.33" width="13.84" height="13.83"/><rect class="cls-6" x="629.11" y="731.5" width="13.84" height="13.84"/><rect class="cls-3" x="629.11" y="634.66" width="13.84" height="13.84"/><rect class="cls-3" x="629.11" y="620.83" width="13.84" height="13.83"/><rect class="cls-3" x="629.11" y="607" width="13.84" height="13.84"/><rect class="cls-3" x="629.11" y="593.16" width="13.84" height="13.84"/><rect class="cls-3" x="629.11" y="579.33" width="13.84" height="13.83"/><rect class="cls-3" x="629.11" y="565.5" width="13.84" height="13.84"/><rect class="cls-1" x="629.11" y="551.67" width="13.84" height="13.83"/><rect class="cls-1" x="629.11" y="537.83" width="13.84" height="13.84"/><rect class="cls-1" x="629.11" y="524" width="13.84" height="13.84"/><rect class="cls-9" x="629.11" y="510.17" width="13.84" height="13.83"/><rect class="cls-9" x="629.11" y="496.33" width="13.84" height="13.84"/><rect class="cls-9" x="629.11" y="482.5" width="13.84" height="13.84"/><rect class="cls-9" x="629.11" y="468.67" width="13.84" height="13.83"/><rect class="cls-9" x="629.11" y="454.83" width="13.84" height="13.84"/><rect class="cls-9" x="629.11" y="441" width="13.84" height="13.84"/><rect class="cls-6" x="629.11" y="413.33" width="13.84" height="13.84"/><rect class="cls-1" x="629.11" y="399.51" width="13.84" height="13.83"/><rect class="cls-6" x="629.11" y="385.67" width="13.84" height="13.84"/><rect class="cls-6" x="629.11" y="371.83" width="13.84" height="13.84"/><rect class="cls-6" x="629.11" y="358.01" width="13.84" height="13.83"/><rect class="cls-1" x="629.11" y="344.17" width="13.84" height="13.84"/><rect class="cls-3" x="629.11" y="330.33" width="13.84" height="13.84"/><rect class="cls-3" x="629.11" y="316.51" width="13.84" height="13.83"/><rect class="cls-1" x="615.28" y="648.5" width="13.83" height="13.84"/><rect class="cls-1" x="615.28" y="634.66" width="13.83" height="13.84"/><rect class="cls-1" x="615.28" y="620.83" width="13.83" height="13.83"/><rect class="cls-1" x="615.28" y="607" width="13.83" height="13.84"/><rect class="cls-1" x="615.28" y="593.16" width="13.83" height="13.84"/><rect class="cls-1" x="615.28" y="579.33" width="13.83" height="13.83"/><rect class="cls-3" x="615.28" y="565.5" width="13.83" height="13.84"/><rect class="cls-1" x="615.28" y="551.67" width="13.83" height="13.83"/><rect class="cls-1" x="615.28" y="537.83" width="13.83" height="13.84"/><rect class="cls-1" x="615.28" y="524" width="13.83" height="13.84"/><rect class="cls-1" x="615.28" y="510.17" width="13.83" height="13.83"/><rect class="cls-1" x="615.28" y="496.33" width="13.83" height="13.84"/><rect class="cls-9" x="615.28" y="482.5" width="13.83" height="13.84"/><rect class="cls-9" x="615.28" y="468.67" width="13.83" height="13.83"/><rect class="cls-8" x="615.28" y="454.83" width="13.83" height="13.84"/><rect class="cls-8" x="615.28" y="441" width="13.83" height="13.84"/><rect class="cls-1" x="615.28" y="413.33" width="13.83" height="13.84"/><rect class="cls-1" x="615.28" y="399.51" width="13.83" height="13.83"/><rect class="cls-6" x="615.28" y="385.67" width="13.83" height="13.84"/><rect class="cls-6" x="615.28" y="371.83" width="13.83" height="13.84"/><rect class="cls-6" x="615.28" y="358.01" width="13.83" height="13.83"/><rect class="cls-1" x="615.28" y="344.17" width="13.83" height="13.84"/><rect class="cls-3" x="615.28" y="330.33" width="13.83" height="13.84"/><rect class="cls-3" x="615.28" y="316.51" width="13.83" height="13.83"/><rect class="cls-4" x="615.28" y="302.67" width="13.83" height="13.84"/><rect class="cls-7" x="615.28" y="288.83" width="13.83" height="13.84"/><rect class="cls-4" x="615.28" y="275.01" width="13.83" height="13.83"/><rect class="cls-1" x="601.45" y="648.5" width="13.84" height="13.84"/><rect class="cls-1" x="601.45" y="634.66" width="13.84" height="13.84"/><rect class="cls-1" x="601.45" y="620.83" width="13.84" height="13.83"/><rect class="cls-1" x="601.45" y="607" width="13.84" height="13.84"/><rect class="cls-1" x="601.45" y="593.16" width="13.84" height="13.84"/><rect class="cls-1" x="601.45" y="579.33" width="13.84" height="13.83"/><rect class="cls-3" x="601.45" y="565.5" width="13.84" height="13.84"/><rect class="cls-1" x="601.45" y="551.67" width="13.84" height="13.83"/><rect class="cls-1" x="601.45" y="537.83" width="13.84" height="13.84"/><rect class="cls-1" x="601.45" y="524" width="13.84" height="13.84"/><rect class="cls-7" x="601.45" y="510.17" width="13.84" height="13.83"/><rect class="cls-7" x="601.45" y="496.33" width="13.84" height="13.84"/><rect class="cls-7" x="601.45" y="482.5" width="13.84" height="13.84"/><rect class="cls-7" x="601.45" y="468.67" width="13.84" height="13.83"/><rect class="cls-7" x="601.45" y="454.83" width="13.84" height="13.84"/><rect class="cls-7" x="601.45" y="441" width="13.84" height="13.84"/><rect class="cls-6" x="601.45" y="413.33" width="13.84" height="13.84"/><rect class="cls-1" x="601.45" y="399.51" width="13.84" height="13.83"/><rect class="cls-6" x="601.45" y="385.67" width="13.84" height="13.84"/><rect class="cls-8" x="601.45" y="371.83" width="13.84" height="13.84"/><rect class="cls-6" x="601.45" y="358.01" width="13.84" height="13.83"/><rect class="cls-1" x="601.45" y="344.17" width="13.84" height="13.84"/><rect class="cls-3" x="601.45" y="330.33" width="13.84" height="13.84"/><rect class="cls-3" x="601.45" y="316.51" width="13.84" height="13.83"/><rect class="cls-7" x="601.45" y="302.67" width="13.84" height="13.84"/><rect class="cls-7" x="601.45" y="288.83" width="13.84" height="13.84"/><rect class="cls-4" x="601.45" y="275.01" width="13.84" height="13.83"/><rect class="cls-1" x="587.62" y="648.5" width="13.83" height="13.84"/><rect class="cls-1" x="587.62" y="634.66" width="13.83" height="13.84"/><rect class="cls-1" x="587.62" y="620.83" width="13.83" height="13.83"/><rect class="cls-1" x="587.62" y="607" width="13.83" height="13.84"/><rect class="cls-1" x="587.62" y="593.16" width="13.83" height="13.84"/><rect class="cls-1" x="587.62" y="579.33" width="13.83" height="13.83"/><rect class="cls-3" x="587.62" y="565.5" width="13.83" height="13.84"/><rect class="cls-1" x="587.62" y="551.67" width="13.83" height="13.83"/><rect class="cls-1" x="587.62" y="537.83" width="13.83" height="13.84"/><rect class="cls-1" x="587.62" y="524" width="13.83" height="13.84"/><rect class="cls-1" x="587.62" y="510.17" width="13.83" height="13.83"/><rect class="cls-1" x="587.62" y="496.33" width="13.83" height="13.84"/><rect class="cls-9" x="587.62" y="482.5" width="13.83" height="13.84"/><rect class="cls-9" x="587.62" y="468.67" width="13.83" height="13.83"/><rect class="cls-8" x="587.62" y="454.83" width="13.83" height="13.84"/><rect class="cls-8" x="587.62" y="441" width="13.83" height="13.84"/><rect class="cls-1" x="587.62" y="413.33" width="13.83" height="13.84"/><rect class="cls-1" x="587.62" y="399.51" width="13.83" height="13.83"/><rect class="cls-6" x="587.62" y="385.67" width="13.83" height="13.84"/><rect class="cls-8" x="587.62" y="371.83" width="13.83" height="13.84"/><rect class="cls-6" x="587.62" y="358.01" width="13.83" height="13.83"/><rect class="cls-1" x="587.62" y="344.17" width="13.83" height="13.84"/><rect class="cls-3" x="587.62" y="330.33" width="13.83" height="13.84"/><rect class="cls-3" x="587.62" y="316.51" width="13.83" height="13.83"/><rect class="cls-4" x="587.62" y="302.67" width="13.83" height="13.84"/><rect class="cls-7" x="587.62" y="288.83" width="13.83" height="13.84"/><rect class="cls-4" x="587.62" y="275.01" width="13.83" height="13.83"/><rect class="cls-3" x="573.78" y="869.82" width="13.84" height="13.84"/><rect class="cls-3" x="573.78" y="856" width="13.84" height="13.83"/><rect class="cls-1" x="573.78" y="842.16" width="13.84" height="13.84"/><rect class="cls-1" x="573.78" y="828.32" width="13.84" height="13.84"/><rect class="cls-1" x="573.78" y="814.5" width="13.84" height="13.83"/><rect class="cls-1" x="573.78" y="800.66" width="13.84" height="13.84"/><rect class="cls-6" x="573.78" y="786.82" width="13.84" height="13.84"/><rect class="cls-6" x="573.78" y="773" width="13.84" height="13.83"/><rect class="cls-6" x="573.78" y="759.16" width="13.84" height="13.84"/><rect class="cls-6" x="573.78" y="745.33" width="13.84" height="13.83"/><rect class="cls-6" x="573.78" y="731.5" width="13.84" height="13.84"/><rect class="cls-3" x="573.78" y="634.66" width="13.84" height="13.84"/><rect class="cls-3" x="573.78" y="620.83" width="13.84" height="13.83"/><rect class="cls-3" x="573.78" y="607" width="13.84" height="13.84"/><rect class="cls-3" x="573.78" y="593.16" width="13.84" height="13.84"/><rect class="cls-3" x="573.78" y="579.33" width="13.84" height="13.83"/><rect class="cls-3" x="573.78" y="565.5" width="13.84" height="13.84"/><rect class="cls-1" x="573.78" y="551.67" width="13.84" height="13.83"/><rect class="cls-1" x="573.78" y="537.83" width="13.84" height="13.84"/><rect class="cls-1" x="573.78" y="524" width="13.84" height="13.84"/><rect class="cls-9" x="573.78" y="510.17" width="13.84" height="13.83"/><rect class="cls-9" x="573.78" y="496.33" width="13.84" height="13.84"/><rect class="cls-9" x="573.78" y="482.5" width="13.84" height="13.84"/><rect class="cls-9" x="573.78" y="468.67" width="13.84" height="13.83"/><rect class="cls-9" x="573.78" y="454.83" width="13.84" height="13.84"/><rect class="cls-9" x="573.78" y="441" width="13.84" height="13.84"/><rect class="cls-6" x="573.78" y="413.33" width="13.84" height="13.84"/><rect class="cls-1" x="573.78" y="399.51" width="13.84" height="13.83"/><rect class="cls-6" x="573.78" y="385.67" width="13.84" height="13.84"/><rect class="cls-6" x="573.78" y="371.83" width="13.84" height="13.84"/><rect class="cls-6" x="573.78" y="358.01" width="13.84" height="13.83"/><rect class="cls-1" x="573.78" y="344.17" width="13.84" height="13.84"/><rect class="cls-3" x="573.78" y="330.33" width="13.84" height="13.84"/><rect class="cls-3" x="573.78" y="316.51" width="13.84" height="13.83"/><rect class="cls-3" x="559.95" y="856" width="13.84" height="13.83"/><rect class="cls-1" x="559.95" y="842.16" width="13.84" height="13.84"/><rect class="cls-1" x="559.95" y="828.32" width="13.84" height="13.84"/><rect class="cls-1" x="559.95" y="814.5" width="13.84" height="13.83"/><rect class="cls-6" x="559.95" y="800.66" width="13.84" height="13.84"/><rect class="cls-6" x="559.95" y="786.82" width="13.84" height="13.84"/><rect class="cls-6" x="559.95" y="773" width="13.84" height="13.83"/><rect class="cls-6" x="559.95" y="759.16" width="13.84" height="13.84"/><rect class="cls-6" x="559.95" y="745.33" width="13.84" height="13.83"/><rect class="cls-6" x="559.95" y="731.5" width="13.84" height="13.84"/><rect class="cls-3" x="559.95" y="717.66" width="13.84" height="13.84"/><rect class="cls-6" x="559.95" y="676.16" width="13.84" height="13.84"/><rect class="cls-3" x="559.95" y="620.83" width="13.84" height="13.83"/><rect class="cls-3" x="559.95" y="607" width="13.84" height="13.84"/><rect class="cls-3" x="559.95" y="593.16" width="13.84" height="13.84"/><rect class="cls-3" x="559.95" y="565.5" width="13.84" height="13.84"/><rect class="cls-1" x="559.95" y="551.67" width="13.84" height="13.83"/><rect class="cls-1" x="559.95" y="537.83" width="13.84" height="13.84"/><rect class="cls-1" x="559.95" y="524" width="13.84" height="13.84"/><rect class="cls-1" x="559.95" y="510.17" width="13.84" height="13.83"/><rect class="cls-1" x="559.95" y="496.33" width="13.84" height="13.84"/><rect class="cls-1" x="559.95" y="482.5" width="13.84" height="13.84"/><rect class="cls-9" x="559.95" y="468.67" width="13.84" height="13.83"/><rect class="cls-8" x="559.95" y="454.83" width="13.84" height="13.84"/><rect class="cls-8" x="559.95" y="441" width="13.84" height="13.84"/><rect class="cls-1" x="559.95" y="413.33" width="13.84" height="13.84"/><rect class="cls-1" x="559.95" y="399.51" width="13.84" height="13.83"/><rect class="cls-1" x="559.95" y="385.67" width="13.84" height="13.84"/><rect class="cls-1" x="559.95" y="371.83" width="13.84" height="13.84"/><rect class="cls-1" x="559.95" y="358.01" width="13.84" height="13.83"/><rect class="cls-1" x="559.95" y="344.17" width="13.84" height="13.84"/><rect class="cls-3" x="559.95" y="330.33" width="13.84" height="13.84"/><rect class="cls-3" x="559.95" y="316.51" width="13.84" height="13.83"/><rect class="cls-3" x="546.12" y="869.82" width="13.83" height="13.84"/><rect class="cls-3" x="546.12" y="856" width="13.83" height="13.83"/><rect class="cls-1" x="546.12" y="842.16" width="13.83" height="13.84"/><rect class="cls-6" x="546.12" y="828.32" width="13.83" height="13.84"/><rect class="cls-6" x="546.12" y="814.5" width="13.83" height="13.83"/><rect class="cls-6" x="546.12" y="800.66" width="13.83" height="13.84"/><rect class="cls-6" x="546.12" y="786.82" width="13.83" height="13.84"/><rect class="cls-6" x="546.12" y="773" width="13.83" height="13.83"/><rect class="cls-6" x="546.12" y="759.16" width="13.83" height="13.84"/><rect class="cls-6" x="546.12" y="745.33" width="13.83" height="13.83"/><rect class="cls-6" x="546.12" y="731.5" width="13.83" height="13.84"/><rect class="cls-3" x="546.12" y="717.66" width="13.83" height="13.84"/><rect class="cls-3" x="546.12" y="703.83" width="13.83" height="13.83"/><rect class="cls-3" x="546.12" y="690" width="13.83" height="13.84"/><rect class="cls-6" x="546.12" y="676.16" width="13.83" height="13.84"/><rect class="cls-3" x="546.12" y="662.33" width="13.83" height="13.83"/><rect class="cls-3" x="546.12" y="634.66" width="13.83" height="13.84"/><rect class="cls-3" x="546.12" y="620.83" width="13.83" height="13.83"/><rect class="cls-3" x="546.12" y="607" width="13.83" height="13.84"/><rect class="cls-3" x="546.12" y="593.16" width="13.83" height="13.84"/><rect class="cls-1" x="546.12" y="551.67" width="13.83" height="13.83"/><rect class="cls-1" x="546.12" y="537.83" width="13.83" height="13.84"/><rect class="cls-1" x="546.12" y="524" width="13.83" height="13.84"/><rect class="cls-1" x="546.12" y="510.17" width="13.83" height="13.83"/><rect class="cls-1" x="546.12" y="496.33" width="13.83" height="13.84"/><rect class="cls-9" x="546.12" y="482.5" width="13.83" height="13.84"/><rect class="cls-9" x="546.12" y="468.67" width="13.83" height="13.83"/><rect class="cls-8" x="546.12" y="454.83" width="13.83" height="13.84"/><rect class="cls-8" x="546.12" y="441" width="13.83" height="13.84"/><rect class="cls-6" x="546.12" y="413.33" width="13.83" height="13.84"/><rect class="cls-1" x="546.12" y="399.51" width="13.83" height="13.83"/><rect class="cls-6" x="546.12" y="385.67" width="13.83" height="13.84"/><rect class="cls-4" x="546.12" y="371.83" width="13.83" height="13.84"/><rect class="cls-1" x="546.12" y="358.01" width="13.83" height="13.83"/><rect class="cls-1" x="546.12" y="344.17" width="13.83" height="13.84"/><rect class="cls-1" x="546.12" y="330.33" width="13.83" height="13.84"/><rect class="cls-3" x="532.28" y="856" width="13.84" height="13.83"/><rect class="cls-1" x="532.28" y="842.16" width="13.84" height="13.84"/><rect class="cls-1" x="532.28" y="828.32" width="13.84" height="13.84"/><rect class="cls-1" x="532.28" y="814.5" width="13.84" height="13.83"/><rect class="cls-6" x="532.28" y="800.66" width="13.84" height="13.84"/><rect class="cls-6" x="532.28" y="786.82" width="13.84" height="13.84"/><rect class="cls-6" x="532.28" y="773" width="13.84" height="13.83"/><rect class="cls-6" x="532.28" y="759.16" width="13.84" height="13.84"/><rect class="cls-6" x="532.28" y="745.33" width="13.84" height="13.83"/><rect class="cls-6" x="532.28" y="731.5" width="13.84" height="13.84"/><rect class="cls-3" x="532.28" y="717.66" width="13.84" height="13.84"/><rect class="cls-3" x="532.28" y="703.83" width="13.84" height="13.83"/><rect class="cls-3" x="532.28" y="690" width="13.84" height="13.84"/><rect class="cls-6" x="532.28" y="676.16" width="13.84" height="13.84"/><rect class="cls-3" x="532.28" y="662.33" width="13.84" height="13.83"/><rect class="cls-3" x="532.28" y="648.5" width="13.84" height="13.84"/><rect class="cls-3" x="532.28" y="634.66" width="13.84" height="13.84"/><rect class="cls-3" x="532.28" y="620.83" width="13.84" height="13.83"/><rect class="cls-3" x="532.28" y="607" width="13.84" height="13.84"/><rect class="cls-1" x="532.28" y="537.83" width="13.84" height="13.84"/><rect class="cls-1" x="532.28" y="524" width="13.84" height="13.84"/><rect class="cls-8" x="532.28" y="510.17" width="13.84" height="13.83"/><rect class="cls-8" x="532.28" y="496.33" width="13.84" height="13.84"/><rect class="cls-9" x="532.28" y="482.5" width="13.84" height="13.84"/><rect class="cls-9" x="532.28" y="468.67" width="13.84" height="13.83"/><rect class="cls-8" x="532.28" y="454.83" width="13.84" height="13.84"/><rect class="cls-8" x="532.28" y="441" width="13.84" height="13.84"/><rect class="cls-6" x="532.28" y="413.33" width="13.84" height="13.84"/><rect class="cls-1" x="532.28" y="399.51" width="13.84" height="13.83"/><rect class="cls-6" x="532.28" y="385.67" width="13.84" height="13.84"/><rect class="cls-4" x="532.28" y="371.83" width="13.84" height="13.84"/><rect class="cls-1" x="532.28" y="358.01" width="13.84" height="13.83"/><rect class="cls-1" x="532.28" y="344.17" width="13.84" height="13.84"/><rect class="cls-1" x="532.28" y="330.33" width="13.84" height="13.84"/><rect class="cls-3" x="518.45" y="869.82" width="13.84" height="13.84"/><rect class="cls-3" x="518.45" y="856" width="13.84" height="13.83"/><rect class="cls-1" x="518.45" y="842.16" width="13.84" height="13.84"/><rect class="cls-1" x="518.45" y="828.32" width="13.84" height="13.84"/><rect class="cls-1" x="518.45" y="814.5" width="13.84" height="13.83"/><rect class="cls-1" x="518.45" y="800.66" width="13.84" height="13.84"/><rect class="cls-6" x="518.45" y="786.82" width="13.84" height="13.84"/><rect class="cls-6" x="518.45" y="773" width="13.84" height="13.83"/><rect class="cls-6" x="518.45" y="759.16" width="13.84" height="13.84"/><rect class="cls-6" x="518.45" y="745.33" width="13.84" height="13.83"/><rect class="cls-6" x="518.45" y="731.5" width="13.84" height="13.84"/><rect class="cls-3" x="518.45" y="717.66" width="13.84" height="13.84"/><rect class="cls-3" x="518.45" y="703.83" width="13.84" height="13.83"/><rect class="cls-3" x="518.45" y="690" width="13.84" height="13.84"/><rect class="cls-6" x="518.45" y="676.16" width="13.84" height="13.84"/><rect class="cls-3" x="518.45" y="662.33" width="13.84" height="13.83"/><rect class="cls-3" x="518.45" y="648.5" width="13.84" height="13.84"/><rect class="cls-3" x="518.45" y="634.66" width="13.84" height="13.84"/><rect class="cls-3" x="518.45" y="620.83" width="13.84" height="13.83"/><rect class="cls-1" x="518.45" y="537.83" width="13.84" height="13.84"/><rect class="cls-1" x="518.45" y="524" width="13.84" height="13.84"/><rect class="cls-8" x="518.45" y="510.17" width="13.84" height="13.83"/><rect class="cls-8" x="518.45" y="496.33" width="13.84" height="13.84"/><rect class="cls-1" x="518.45" y="482.5" width="13.84" height="13.84"/><rect class="cls-1" x="518.45" y="468.67" width="13.84" height="13.83"/><rect class="cls-8" x="518.45" y="454.83" width="13.84" height="13.84"/><rect class="cls-8" x="518.45" y="441" width="13.84" height="13.84"/><rect class="cls-8" x="518.45" y="427.17" width="13.84" height="13.83"/><rect class="cls-6" x="518.45" y="413.33" width="13.84" height="13.84"/><rect class="cls-1" x="518.45" y="399.51" width="13.84" height="13.83"/><rect class="cls-6" x="518.45" y="385.67" width="13.84" height="13.84"/><rect class="cls-4" x="518.45" y="371.83" width="13.84" height="13.84"/><rect class="cls-1" x="518.45" y="358.01" width="13.84" height="13.83"/><rect class="cls-1" x="518.45" y="344.17" width="13.84" height="13.84"/><rect class="cls-1" x="518.45" y="330.33" width="13.84" height="13.84"/><rect class="cls-3" x="504.62" y="869.82" width="13.83" height="13.84"/><rect class="cls-3" x="504.62" y="856" width="13.83" height="13.83"/><rect class="cls-1" x="504.62" y="842.16" width="13.83" height="13.84"/><rect class="cls-1" x="504.62" y="828.32" width="13.83" height="13.84"/><rect class="cls-1" x="504.62" y="814.5" width="13.83" height="13.83"/><rect class="cls-1" x="504.62" y="800.66" width="13.83" height="13.84"/><rect class="cls-1" x="504.62" y="786.82" width="13.83" height="13.84"/><rect class="cls-6" x="504.62" y="773" width="13.83" height="13.83"/><rect class="cls-6" x="504.62" y="759.16" width="13.83" height="13.84"/><rect class="cls-6" x="504.62" y="745.33" width="13.83" height="13.83"/><rect class="cls-6" x="504.62" y="731.5" width="13.83" height="13.84"/><rect class="cls-3" x="504.62" y="717.66" width="13.83" height="13.84"/><rect class="cls-3" x="504.62" y="703.83" width="13.83" height="13.83"/><rect class="cls-3" x="504.62" y="690" width="13.83" height="13.84"/><rect class="cls-6" x="504.62" y="676.16" width="13.83" height="13.84"/><rect class="cls-3" x="504.62" y="662.33" width="13.83" height="13.83"/><rect class="cls-7" x="504.62" y="496.33" width="13.83" height="13.84"/><rect class="cls-1" x="504.62" y="468.67" width="13.83" height="13.83"/><rect class="cls-1" x="504.62" y="454.83" width="13.83" height="13.84"/><rect class="cls-1" x="504.62" y="441" width="13.83" height="13.84"/><rect class="cls-1" x="504.62" y="427.17" width="13.83" height="13.83"/><rect class="cls-1" x="504.62" y="413.33" width="13.83" height="13.84"/><rect class="cls-1" x="504.62" y="399.51" width="13.83" height="13.83"/><rect class="cls-1" x="504.62" y="385.67" width="13.83" height="13.84"/><rect class="cls-1" x="504.62" y="371.83" width="13.83" height="13.84"/><rect class="cls-1" x="504.62" y="358.01" width="13.83" height="13.83"/><rect class="cls-1" x="504.62" y="344.17" width="13.83" height="13.84"/><rect class="cls-1" x="504.62" y="330.33" width="13.83" height="13.84"/><rect class="cls-3" x="490.78" y="856" width="13.84" height="13.83"/><rect class="cls-1" x="490.78" y="842.16" width="13.84" height="13.84"/><rect class="cls-1" x="490.78" y="828.32" width="13.84" height="13.84"/><rect class="cls-1" x="490.78" y="814.5" width="13.84" height="13.83"/><rect class="cls-1" x="490.78" y="800.66" width="13.84" height="13.84"/><rect class="cls-1" x="490.78" y="786.82" width="13.84" height="13.84"/><rect class="cls-6" x="490.78" y="773" width="13.84" height="13.83"/><rect class="cls-6" x="490.78" y="759.16" width="13.84" height="13.84"/><rect class="cls-6" x="490.78" y="745.33" width="13.84" height="13.83"/><rect class="cls-6" x="490.78" y="731.5" width="13.84" height="13.84"/><rect class="cls-3" x="490.78" y="717.66" width="13.84" height="13.84"/><rect class="cls-6" x="490.78" y="676.16" width="13.84" height="13.84"/><rect class="cls-7" x="490.78" y="496.33" width="13.84" height="13.84"/><rect class="cls-7" x="490.78" y="482.5" width="13.84" height="13.84"/><rect class="cls-7" x="490.78" y="468.67" width="13.84" height="13.83"/><rect class="cls-1" x="490.78" y="454.83" width="13.84" height="13.84"/><rect class="cls-1" x="490.78" y="441" width="13.84" height="13.84"/><rect class="cls-1" x="490.78" y="427.17" width="13.84" height="13.83"/><rect class="cls-1" x="490.78" y="413.33" width="13.84" height="13.84"/><rect class="cls-1" x="490.78" y="399.51" width="13.84" height="13.83"/><rect class="cls-1" x="490.78" y="385.67" width="13.84" height="13.84"/><rect class="cls-1" x="490.78" y="371.83" width="13.84" height="13.84"/><rect class="cls-1" x="490.78" y="358.01" width="13.84" height="13.83"/><rect class="cls-1" x="490.78" y="344.17" width="13.84" height="13.84"/><rect class="cls-1" x="490.78" y="330.33" width="13.84" height="13.84"/><rect class="cls-3" x="476.95" y="869.82" width="13.84" height="13.84"/><rect class="cls-3" x="476.95" y="856" width="13.84" height="13.83"/><rect class="cls-1" x="476.95" y="842.16" width="13.84" height="13.84"/><rect class="cls-1" x="476.95" y="828.32" width="13.84" height="13.84"/><rect class="cls-1" x="476.95" y="814.5" width="13.84" height="13.83"/><rect class="cls-1" x="476.95" y="800.66" width="13.84" height="13.84"/><rect class="cls-1" x="476.95" y="786.82" width="13.84" height="13.84"/><rect class="cls-6" x="476.95" y="773" width="13.84" height="13.83"/><rect class="cls-6" x="476.95" y="759.16" width="13.84" height="13.84"/><rect class="cls-6" x="476.95" y="745.33" width="13.84" height="13.83"/><rect class="cls-6" x="476.95" y="731.5" width="13.84" height="13.84"/><rect class="cls-6" x="476.95" y="690" width="13.84" height="13.84"/><rect class="cls-6" x="476.95" y="676.16" width="13.84" height="13.84"/><rect class="cls-6" x="476.95" y="662.33" width="13.84" height="13.83"/><rect class="cls-6" x="476.95" y="648.5" width="13.84" height="13.84"/><rect class="cls-1" x="476.95" y="468.67" width="13.84" height="13.83"/><rect class="cls-1" x="476.95" y="454.83" width="13.84" height="13.84"/><rect class="cls-3" x="476.95" y="441" width="13.84" height="13.84"/><rect class="cls-3" x="476.95" y="427.17" width="13.84" height="13.83"/><rect class="cls-3" x="476.95" y="413.33" width="13.84" height="13.84"/><rect class="cls-3" x="476.95" y="399.51" width="13.84" height="13.83"/><rect class="cls-3" x="476.95" y="385.67" width="13.84" height="13.84"/><rect class="cls-3" x="476.95" y="371.83" width="13.84" height="13.84"/><rect class="cls-3" x="476.95" y="358.01" width="13.84" height="13.83"/><rect class="cls-3" x="476.95" y="344.17" width="13.84" height="13.84"/><rect class="cls-3" x="463.12" y="869.82" width="13.83" height="13.84"/><rect class="cls-3" x="463.12" y="856" width="13.83" height="13.83"/><rect class="cls-1" x="463.12" y="842.16" width="13.83" height="13.84"/><rect class="cls-1" x="463.12" y="828.32" width="13.83" height="13.84"/><rect class="cls-1" x="463.12" y="814.5" width="13.83" height="13.83"/><rect class="cls-1" x="463.12" y="800.66" width="13.83" height="13.84"/><rect class="cls-1" x="463.12" y="786.82" width="13.83" height="13.84"/><rect class="cls-6" x="463.12" y="690" width="13.83" height="13.84"/><rect class="cls-6" x="463.12" y="676.16" width="13.83" height="13.84"/><rect class="cls-6" x="463.12" y="662.33" width="13.83" height="13.83"/><rect class="cls-6" x="463.12" y="648.5" width="13.83" height="13.84"/><rect class="cls-3" x="463.12" y="427.17" width="13.83" height="13.83"/><rect class="cls-3" x="463.12" y="413.33" width="13.83" height="13.84"/><rect class="cls-3" x="463.12" y="399.51" width="13.83" height="13.83"/><rect class="cls-3" x="463.12" y="385.67" width="13.83" height="13.84"/><rect class="cls-3" x="463.12" y="371.83" width="13.83" height="13.84"/><rect class="cls-3" x="449.28" y="856" width="13.84" height="13.83"/><rect class="cls-1" x="449.28" y="842.16" width="13.84" height="13.84"/><rect class="cls-1" x="449.28" y="828.32" width="13.84" height="13.84"/><rect class="cls-1" x="449.28" y="814.5" width="13.84" height="13.83"/><rect class="cls-1" x="449.28" y="800.66" width="13.84" height="13.84"/><rect class="cls-6" x="449.28" y="731.5" width="13.84" height="13.84"/><rect class="cls-6" x="449.28" y="717.66" width="13.84" height="13.84"/><rect class="cls-6" x="449.28" y="703.83" width="13.84" height="13.83"/><rect class="cls-1" x="449.28" y="690" width="13.84" height="13.84"/><rect class="cls-1" x="449.28" y="676.16" width="13.84" height="13.84"/><rect class="cls-1" x="449.28" y="662.33" width="13.84" height="13.83"/><rect class="cls-1" x="449.28" y="648.5" width="13.84" height="13.84"/><rect class="cls-3" x="449.28" y="441" width="13.84" height="13.84"/><rect class="cls-3" x="449.28" y="427.17" width="13.84" height="13.83"/><rect class="cls-3" x="449.28" y="413.33" width="13.84" height="13.84"/><rect class="cls-3" x="449.28" y="399.51" width="13.84" height="13.83"/><rect class="cls-3" x="449.28" y="385.67" width="13.84" height="13.84"/><rect class="cls-3" x="449.28" y="371.83" width="13.84" height="13.84"/><rect class="cls-3" x="449.28" y="358.01" width="13.84" height="13.83"/><rect class="cls-3" x="435.45" y="869.82" width="13.84" height="13.84"/><rect class="cls-3" x="435.45" y="856" width="13.84" height="13.83"/><rect class="cls-1" x="435.45" y="842.16" width="13.84" height="13.84"/><rect class="cls-1" x="435.45" y="828.32" width="13.84" height="13.84"/><rect class="cls-1" x="435.45" y="814.5" width="13.84" height="13.83"/><rect class="cls-1" x="435.45" y="800.66" width="13.84" height="13.84"/><rect class="cls-6" x="435.45" y="731.5" width="13.84" height="13.84"/><rect class="cls-6" x="435.45" y="717.66" width="13.84" height="13.84"/><rect class="cls-6" x="435.45" y="703.83" width="13.84" height="13.83"/><rect class="cls-1" x="435.45" y="690" width="13.84" height="13.84"/><rect class="cls-1" x="435.45" y="676.16" width="13.84" height="13.84"/><rect class="cls-1" x="435.45" y="662.33" width="13.84" height="13.83"/><rect class="cls-1" x="435.45" y="648.5" width="13.84" height="13.84"/><rect class="cls-1" x="435.45" y="634.66" width="13.84" height="13.84"/><rect class="cls-1" x="435.45" y="454.83" width="13.84" height="13.84"/><rect class="cls-1" x="435.45" y="441" width="13.84" height="13.84"/><rect class="cls-1" x="435.45" y="427.17" width="13.84" height="13.83"/><rect class="cls-1" x="435.45" y="413.33" width="13.84" height="13.84"/><rect class="cls-1" x="435.45" y="399.51" width="13.84" height="13.83"/><rect class="cls-1" x="435.45" y="385.67" width="13.84" height="13.84"/><rect class="cls-1" x="435.45" y="371.83" width="13.84" height="13.84"/><rect class="cls-1" x="435.45" y="358.01" width="13.84" height="13.83"/><rect class="cls-1" x="435.45" y="344.17" width="13.84" height="13.84"/><rect class="cls-6" x="421.62" y="731.5" width="13.83" height="13.84"/><rect class="cls-6" x="421.62" y="717.66" width="13.83" height="13.84"/><rect class="cls-6" x="421.62" y="703.83" width="13.83" height="13.83"/><rect class="cls-1" x="421.62" y="690" width="13.83" height="13.84"/><rect class="cls-1" x="421.62" y="676.16" width="13.83" height="13.84"/><rect class="cls-1" x="421.62" y="662.33" width="13.83" height="13.83"/><rect class="cls-1" x="421.62" y="648.5" width="13.83" height="13.84"/><rect class="cls-1" x="421.62" y="634.66" width="13.83" height="13.84"/><rect class="cls-3" x="421.62" y="620.83" width="13.83" height="13.83"/><rect class="cls-1" x="421.62" y="607" width="13.83" height="13.84"/><rect class="cls-1" x="421.62" y="593.16" width="13.83" height="13.84"/><rect class="cls-1" x="421.62" y="579.33" width="13.83" height="13.83"/><rect class="cls-1" x="421.62" y="565.5" width="13.83" height="13.84"/><rect class="cls-1" x="421.62" y="551.67" width="13.83" height="13.83"/><rect class="cls-1" x="421.62" y="537.83" width="13.83" height="13.84"/><rect class="cls-1" x="421.62" y="524" width="13.83" height="13.84"/><rect class="cls-3" x="421.62" y="510.17" width="13.83" height="13.83"/><rect class="cls-3" x="421.62" y="468.67" width="13.83" height="13.83"/><rect class="cls-1" x="421.62" y="454.83" width="13.83" height="13.84"/><rect class="cls-1" x="421.62" y="441" width="13.83" height="13.84"/><rect class="cls-1" x="421.62" y="427.17" width="13.83" height="13.83"/><rect class="cls-1" x="421.62" y="413.33" width="13.83" height="13.84"/><rect class="cls-1" x="421.62" y="399.51" width="13.83" height="13.83"/><rect class="cls-1" x="421.62" y="385.67" width="13.83" height="13.84"/><rect class="cls-1" x="421.62" y="371.83" width="13.83" height="13.84"/><rect class="cls-1" x="421.62" y="358.01" width="13.83" height="13.83"/><rect class="cls-1" x="421.62" y="344.17" width="13.83" height="13.84"/><rect class="cls-6" x="407.78" y="731.5" width="13.84" height="13.84"/><rect class="cls-6" x="407.78" y="717.66" width="13.84" height="13.84"/><rect class="cls-6" x="407.78" y="703.83" width="13.84" height="13.83"/><rect class="cls-1" x="407.78" y="690" width="13.84" height="13.84"/><rect class="cls-1" x="407.78" y="676.16" width="13.84" height="13.84"/><rect class="cls-1" x="407.78" y="662.33" width="13.84" height="13.83"/><rect class="cls-1" x="407.78" y="648.5" width="13.84" height="13.84"/><rect class="cls-1" x="407.78" y="634.66" width="13.84" height="13.84"/><rect class="cls-3" x="407.78" y="620.83" width="13.84" height="13.83"/><rect class="cls-1" x="407.78" y="607" width="13.84" height="13.84"/><rect class="cls-1" x="407.78" y="593.16" width="13.84" height="13.84"/><rect class="cls-1" x="407.78" y="579.33" width="13.84" height="13.83"/><rect class="cls-1" x="407.78" y="565.5" width="13.84" height="13.84"/><rect class="cls-1" x="407.78" y="551.67" width="13.84" height="13.83"/><rect class="cls-1" x="407.78" y="537.83" width="13.84" height="13.84"/><rect class="cls-1" x="407.78" y="524" width="13.84" height="13.84"/><rect class="cls-3" x="407.78" y="510.17" width="13.84" height="13.83"/><rect class="cls-3" x="407.78" y="496.33" width="13.84" height="13.84"/><rect class="cls-3" x="407.78" y="482.5" width="13.84" height="13.84"/><rect class="cls-3" x="407.78" y="468.67" width="13.84" height="13.83"/><rect class="cls-1" x="407.78" y="454.83" width="13.84" height="13.84"/><rect class="cls-1" x="407.78" y="441" width="13.84" height="13.84"/><rect class="cls-1" x="407.78" y="427.17" width="13.84" height="13.83"/><rect class="cls-1" x="407.78" y="413.33" width="13.84" height="13.84"/><rect class="cls-1" x="407.78" y="399.51" width="13.84" height="13.83"/><rect class="cls-1" x="407.78" y="385.67" width="13.84" height="13.84"/><rect class="cls-1" x="407.78" y="371.83" width="13.84" height="13.84"/><rect class="cls-1" x="407.78" y="358.01" width="13.84" height="13.83"/><rect class="cls-6" x="393.96" y="717.66" width="13.83" height="13.84"/><rect class="cls-6" x="393.96" y="703.83" width="13.83" height="13.83"/><rect class="cls-1" x="393.96" y="690" width="13.83" height="13.84"/><rect class="cls-1" x="393.96" y="676.16" width="13.83" height="13.84"/><rect class="cls-1" x="393.96" y="662.33" width="13.83" height="13.83"/><rect class="cls-1" x="393.96" y="648.5" width="13.83" height="13.84"/><rect class="cls-1" x="393.96" y="634.66" width="13.83" height="13.84"/><rect class="cls-3" x="393.96" y="620.83" width="13.83" height="13.83"/><rect class="cls-1" x="393.96" y="607" width="13.83" height="13.84"/><rect class="cls-1" x="393.96" y="593.16" width="13.83" height="13.84"/><rect class="cls-1" x="393.96" y="579.33" width="13.83" height="13.83"/><rect class="cls-1" x="393.96" y="565.5" width="13.83" height="13.84"/><rect class="cls-1" x="393.96" y="551.67" width="13.83" height="13.83"/><rect class="cls-1" x="393.96" y="537.83" width="13.83" height="13.84"/><rect class="cls-1" x="393.96" y="524" width="13.83" height="13.84"/><rect class="cls-3" x="393.96" y="510.17" width="13.83" height="13.83"/><rect class="cls-3" x="393.96" y="496.33" width="13.83" height="13.84"/><rect class="cls-3" x="393.96" y="482.5" width="13.83" height="13.84"/><rect class="cls-3" x="393.96" y="468.67" width="13.83" height="13.83"/><rect class="cls-1" x="393.96" y="454.83" width="13.83" height="13.84"/><rect class="cls-1" x="393.96" y="441" width="13.83" height="13.84"/><rect class="cls-1" x="393.96" y="427.17" width="13.83" height="13.83"/><rect class="cls-1" x="393.96" y="413.33" width="13.83" height="13.84"/><rect class="cls-1" x="393.96" y="399.51" width="13.83" height="13.83"/><rect class="cls-1" x="393.96" y="385.67" width="13.83" height="13.84"/><rect class="cls-1" x="393.96" y="371.83" width="13.83" height="13.84"/><rect class="cls-1" x="393.96" y="358.01" width="13.83" height="13.83"/><rect class="cls-6" x="380.12" y="731.5" width="13.84" height="13.84"/><rect class="cls-6" x="380.12" y="717.66" width="13.84" height="13.84"/><rect class="cls-6" x="380.12" y="703.83" width="13.84" height="13.83"/><rect class="cls-1" x="380.12" y="690" width="13.84" height="13.84"/><rect class="cls-1" x="380.12" y="676.16" width="13.84" height="13.84"/><rect class="cls-1" x="380.12" y="662.33" width="13.84" height="13.83"/><rect class="cls-1" x="380.12" y="648.5" width="13.84" height="13.84"/><rect class="cls-1" x="380.12" y="634.66" width="13.84" height="13.84"/><rect class="cls-3" x="380.12" y="620.83" width="13.84" height="13.83"/><rect class="cls-1" x="380.12" y="607" width="13.84" height="13.84"/><rect class="cls-1" x="380.12" y="593.16" width="13.84" height="13.84"/><rect class="cls-1" x="380.12" y="579.33" width="13.84" height="13.83"/><rect class="cls-1" x="380.12" y="565.5" width="13.84" height="13.84"/><rect class="cls-1" x="380.12" y="551.67" width="13.84" height="13.83"/><rect class="cls-1" x="380.12" y="537.83" width="13.84" height="13.84"/><rect class="cls-1" x="380.12" y="524" width="13.84" height="13.84"/><rect class="cls-3" x="380.12" y="510.17" width="13.84" height="13.83"/><rect class="cls-3" x="380.12" y="496.33" width="13.84" height="13.84"/><rect class="cls-3" x="380.12" y="482.5" width="13.84" height="13.84"/><rect class="cls-3" x="380.12" y="468.67" width="13.84" height="13.83"/><rect class="cls-1" x="380.12" y="454.83" width="13.84" height="13.84"/><rect class="cls-1" x="380.12" y="441" width="13.84" height="13.84"/><rect class="cls-1" x="380.12" y="427.17" width="13.84" height="13.83"/><rect class="cls-1" x="380.12" y="413.33" width="13.84" height="13.84"/><rect class="cls-1" x="380.12" y="399.51" width="13.84" height="13.83"/><rect class="cls-1" x="380.12" y="385.67" width="13.84" height="13.84"/><rect class="cls-1" x="380.12" y="371.83" width="13.84" height="13.84"/><rect class="cls-1" x="380.12" y="358.01" width="13.84" height="13.83"/><rect class="cls-6" x="366.28" y="717.66" width="13.84" height="13.84"/><rect class="cls-6" x="366.28" y="703.83" width="13.84" height="13.83"/><rect class="cls-1" x="366.28" y="690" width="13.84" height="13.84"/><rect class="cls-1" x="366.28" y="676.16" width="13.84" height="13.84"/><rect class="cls-1" x="366.28" y="662.33" width="13.84" height="13.83"/><rect class="cls-1" x="366.28" y="648.5" width="13.84" height="13.84"/><rect class="cls-1" x="366.28" y="634.66" width="13.84" height="13.84"/><rect class="cls-3" x="366.28" y="620.83" width="13.84" height="13.83"/><rect class="cls-1" x="366.28" y="607" width="13.84" height="13.84"/><rect class="cls-1" x="366.28" y="593.16" width="13.84" height="13.84"/><rect class="cls-1" x="366.28" y="579.33" width="13.84" height="13.83"/><rect class="cls-1" x="366.28" y="565.5" width="13.84" height="13.84"/><rect class="cls-1" x="366.28" y="551.67" width="13.84" height="13.83"/><rect class="cls-1" x="366.28" y="537.83" width="13.84" height="13.84"/><rect class="cls-1" x="366.28" y="524" width="13.84" height="13.84"/><rect class="cls-3" x="366.28" y="510.17" width="13.84" height="13.83"/><rect class="cls-3" x="366.28" y="496.33" width="13.84" height="13.84"/><rect class="cls-3" x="366.28" y="482.5" width="13.84" height="13.84"/><rect class="cls-3" x="366.28" y="468.67" width="13.84" height="13.83"/><rect class="cls-1" x="366.28" y="454.83" width="13.84" height="13.84"/><rect class="cls-1" x="366.28" y="441" width="13.84" height="13.84"/><rect class="cls-1" x="366.28" y="427.17" width="13.84" height="13.83"/><rect class="cls-1" x="366.28" y="413.33" width="13.84" height="13.84"/><rect class="cls-1" x="366.28" y="399.51" width="13.84" height="13.83"/><rect class="cls-1" x="366.28" y="385.67" width="13.84" height="13.84"/><rect class="cls-1" x="366.28" y="371.83" width="13.84" height="13.84"/><rect class="cls-1" x="366.28" y="358.01" width="13.84" height="13.83"/><rect class="cls-6" x="352.46" y="731.5" width="13.83" height="13.84"/><rect class="cls-6" x="352.46" y="717.66" width="13.83" height="13.84"/><rect class="cls-6" x="352.46" y="703.83" width="13.83" height="13.83"/><rect class="cls-1" x="352.46" y="690" width="13.83" height="13.84"/><rect class="cls-1" x="352.46" y="676.16" width="13.83" height="13.84"/><rect class="cls-1" x="352.46" y="662.33" width="13.83" height="13.83"/><rect class="cls-1" x="352.46" y="648.5" width="13.83" height="13.84"/><rect class="cls-1" x="352.46" y="634.66" width="13.83" height="13.84"/><rect class="cls-3" x="352.46" y="620.83" width="13.83" height="13.83"/><rect class="cls-1" x="352.46" y="607" width="13.83" height="13.84"/><rect class="cls-1" x="352.46" y="593.16" width="13.83" height="13.84"/><rect class="cls-1" x="352.46" y="579.33" width="13.83" height="13.83"/><rect class="cls-1" x="352.46" y="565.5" width="13.83" height="13.84"/><rect class="cls-1" x="352.46" y="551.67" width="13.83" height="13.83"/><rect class="cls-1" x="352.46" y="537.83" width="13.83" height="13.84"/><rect class="cls-1" x="352.46" y="524" width="13.83" height="13.84"/><rect class="cls-3" x="352.46" y="510.17" width="13.83" height="13.83"/><rect class="cls-3" x="352.46" y="468.67" width="13.83" height="13.83"/><rect class="cls-1" x="352.46" y="454.83" width="13.83" height="13.84"/><rect class="cls-1" x="352.46" y="441" width="13.83" height="13.84"/><rect class="cls-1" x="352.46" y="427.17" width="13.83" height="13.83"/><rect class="cls-1" x="352.46" y="413.33" width="13.83" height="13.84"/><rect class="cls-1" x="352.46" y="399.51" width="13.83" height="13.83"/><rect class="cls-6" x="338.62" y="731.5" width="13.84" height="13.84"/><rect class="cls-6" x="338.62" y="717.66" width="13.84" height="13.84"/><rect class="cls-6" x="338.62" y="703.83" width="13.84" height="13.83"/><rect class="cls-1" x="338.62" y="690" width="13.84" height="13.84"/><rect class="cls-1" x="338.62" y="676.16" width="13.84" height="13.84"/><rect class="cls-1" x="338.62" y="662.33" width="13.84" height="13.83"/><rect class="cls-1" x="338.62" y="648.5" width="13.84" height="13.84"/><rect class="cls-1" x="338.62" y="634.66" width="13.84" height="13.84"/><rect class="cls-1" x="338.62" y="454.83" width="13.84" height="13.84"/><rect class="cls-1" x="338.62" y="441" width="13.84" height="13.84"/><rect class="cls-1" x="338.62" y="427.17" width="13.84" height="13.83"/><rect class="cls-1" x="338.62" y="413.33" width="13.84" height="13.84"/></svg>