<svg id="Layer_2" data-name="Layer 2" xmlns="http://www.w3.org/2000/svg" viewBox="0 0 1200 1200"><defs><style>.cls-1,.cls-5{fill:#f9006c;}.cls-2{fill:#fff;}.cls-3{fill:#15003e;}.cls-4{opacity:0.13;isolation:isolate;}.cls-5{opacity:0.28;}.cls-6{fill:#eff4ee;}.cls-7{fill:#25e899;}</style></defs><title>pixelated bots</title><polygon class="cls-1" points="1116.12 304.81 1116.12 899.6 601.07 1196.99 188.91 959.07 187.04 957.96 85.93 899.6 85.93 304.81 601.07 7.42 1116.12 304.81"/><path class="cls-2" d="M1023.8,368V861.88l-.09.09-10.13,5.77-3.07,1.76-1.21.65-8.18,4.74-29.18,16.85-1.86,1.12-17.94,10.32-1.48.83-13.75,8-4.4,2.48-1.3.74-4.37,2.51-2.23,1.21-.28.09-.93.36-1,.66-28.17,16.16-7.62,4.37-9.78,5.62-.38.27L865,953.06l-4.18,2.42-.18.19h-.1l-14.31,8.27-8.08,4.84-11.72,6.69-.46.27-.65.38-.74.46-3.82,2.23-.27.1-.47.27-.47.19-.55.37v.1L811.78,984l-1.67.84-.19.19-.37.18-9.38,5.39-1.3.75-1.4.83-.47.29-3,1.66-2.18,1.29h-.09l-.65.37-6,3.53-1.86,1.12-3.07,1.76-2.32,1.3a.1.1,0,0,1-.1.1l-4.36,2.51-3.9,2.23-.38.27-5.29,3.07-21.66,12.46-5.88,3.33-.55.27-32.54,18.84-.19.09-.08.09-3.72,2.14-3.25,1.85-4.65,2.7-1.3.74-11.62,6.69-9.11,5.3-3.63,2-.08.09-4,2.32-3.72,2.15L636,1085.43l-3.34,2-.38.17-1.67.94-4.64,2.69-17.39,10-5.2,3h-.09l-3,1.76-4.46,2.6-1.3-.74L582.66,1101l-7.93-4.55-.29-.09-8.45-5-1.58-.93-.47-.28-5.67-3.25-1.57-.93-31.24-18-.36-.28-19.24-11.06L461.72,1031l-5.67-3.26-6.41-3.61-8.65-5-2-1.11-.84-.55-.28-.19-20.73-12-11.35-6.48-3.46-2-3.62-2-2.15-1.21-2.4-1.4-2.23-1.4-.85-.45-3.25-1.87-.74-.46-.74-.37-.38-.29-12.07-6.87-.47-.27-1.4-.75-3.4-2.07-15.86-9.2-23.32-13.57L310,943.38,302.36,939l-.84-.47-4.64-2.69-.09-.1-2-1.11h-.08l-9.67-5.58c-.1-.09-.1-.09-.19-.09l-17.3-10-9.48-5.46-12.4-7.18-6.69-4-.38-.19-.19-.08-2.65-1.61a.25.25,0,0,1-.18-.1L233.17,899l-.19-.1-30.67-17.65L170.59,862.9l-.83-.46-.74-.38-.28-.18V368l52.59-30.29,7.16-4.29h.09l2.33-1.3,5.39-3.06,16.32-9.35,21.1-12.17,7.62-4.46,1.39-.84L302,291.2l9.11-5.3,9.39-5.48,3.89-2.23,4.19-2.42,2.33-1.3h0l5.31-3.07,30-17.28,14.68-8.55,1.59-.83,15.42-8.83,7.25-4.19,3.54-2,4.08-2.42,10.22-6,4.84-2.8,21.19-12.08,6.41-3.81,13-7.43h.1l.45-.28,53.21-30.72,1.77-1,2.52-1.49L582.93,129l13.38-7.71,9.85,5.76,60.32,34.85,24.15,13.94L727.31,197l12.45,7.16,61.7,35.59,9.68,5.67,21.35,12.15,8.09,4.65,14.12,8.18,12.73,7.34,7.44,4.28.84.55,16.85,9.67,35.09,20.26.37.28v.08l2.41,1.31,2.42,1.49,3.72,2.13,8.54,5,5,2.88.18.09,17.84,10.32,7.26,4.08,4.08,2.33,18,10.41Z"/><path class="cls-3" d="M727.49,1076.87l14.56-8.36.66,1.14a28.07,28.07,0,0,1,3.12,7.58,17.36,17.36,0,0,1-.05,7.07,18.39,18.39,0,0,1-9.29,12.69,19.8,19.8,0,0,1-15.73,2,21.16,21.16,0,0,1-4.82-38.86,20.77,20.77,0,0,1,8.67-2.75,25.74,25.74,0,0,1,9.91,1.58l-1.71,5.82q-7.65-3.27-13.88.29a14.54,14.54,0,0,0-7.16,9.26,14.89,14.89,0,0,0,1.68,11.67,14.35,14.35,0,0,0,9.78,7.26,14.66,14.66,0,0,0,10.62-1.4,12.22,12.22,0,0,0,5.5-6.68,10.9,10.9,0,0,0-.16-8.39l-8.79,5.06Z"/><rect class="cls-3" x="760.93" y="1036.55" width="6.13" height="40.63" transform="translate(-425.61 522.55) rotate(-29.95)"/><polygon class="cls-3" points="789.66 1025.29 807.05 1055.51 801.75 1058.55 784.36 1028.35 776.26 1033.01 773.39 1028.01 794.86 1015.65 797.72 1020.65 789.66 1025.29"/><path class="cls-3" d="M837.6,993.56l3.62,6.28q-6.84-1.2-11.76,1.63a14.08,14.08,0,0,0-6.94,9.16,15.18,15.18,0,0,0,1.73,11.64,14.91,14.91,0,0,0,9.12,7.21,14.38,14.38,0,0,0,11.38-1.48,13,13,0,0,0,4.22-3.66,15.61,15.61,0,0,0,1.57-2.52,34.6,34.6,0,0,0,1.39-3.34l3.7,6.41a22,22,0,0,1-8.1,8.11,20.4,20.4,0,0,1-15.86,2.15,20.17,20.17,0,0,1-12.7-9.76,20.86,20.86,0,0,1-2.44-14.56A20.32,20.32,0,0,1,827,996.27a20.59,20.59,0,0,1,10.65-2.71"/><path class="cls-2" d="M863.36,992a19.9,19.9,0,0,1-1.9-15.86,20.8,20.8,0,0,1,10-12.88A21.25,21.25,0,0,1,900.29,971a20,20,0,0,1,2,16,21.49,21.49,0,0,1-25.07,15.21q-9-1.77-13.88-10.25m5.39-3a15.06,15.06,0,0,0,27.75-3.3,15.76,15.76,0,0,0-10.81-18.9,15.15,15.15,0,0,0-18.54,10.67A14.63,14.63,0,0,0,868.79,989"/><rect class="cls-3" x="918.71" y="945.68" width="6.14" height="40.62" transform="translate(-359.3 589.64) rotate(-29.97)"/><polygon class="cls-3" points="955.19 970.26 933.54 932.64 974.7 944.74 960.6 920.25 965.91 917.21 987.42 954.57 946.31 942.55 960.49 967.2 955.19 970.26"/><g id="Layer_2-2" data-name="Layer 2-2"><g id="Layer_16" data-name="Layer 16"><path class="cls-4" d="M976.16,340.44l-4.95-2.79-6.69-3.9-7.16-4.19-1-.55-4.56-2.61-4.74-2.73-8.35-4.83L871.31,280l-15.86-9.11-6.69-3.9-4.18-2.41-4.55-2.7-.47-.19-3.9-2.32-3.82-2.23L782.28,228.6,601.08,124.18l-5-2.89-4.37,2.51-159,91.83-46.65,27L374,249.52l-5,2.87-.93.47h-.09l-2.3,1.43-3.9,2.32-2.79,1.58-2.51,1.49-1.67.92L341,268.69h-.05l-16.54,9.48-.1.1-5.38,3.16-7.07,4-.09.09-.29.19-30.2,17.38h-.09L259,315.78l-9.32,5.42-27.76,16-39.31,22.68-14.31,8.27V861.77l.65.36,16,9.3,6.94,4,1.39.74,40.15,23.23,6.42,3.63,4.95,2.88L262.29,916l14.78,8.55,4.27,2.42,12.08,6.94,31.45,18.2,50,28.81,6.41,3.72.66.37,1.39.74,1,.65,1.67.93.38.18,17.74,10.32,8.18,4.65,12.36,7.25,8.28,4.74,1.67.93,2.88,1.67,1.76,1,4.46,2.6,33.19,19.05.83.47,4.09,2.42,5.76,3.35,6.7,3.89h.08l5,2.8,14,8.08,29.46,17.1,41.63,24,9.57,5.58,2.14,1.21.18-.1,1.77-1,1.31-.74.27-.18,2.88-1.67,16.85-9.58.84-.46,6.41-3.72,4.65-2.7,2.23-1.3,35.78-20.62,22.8-13.11,6.88-4,6.13-3.53,6.23-3.62,4.09-2.42L737,1027.45l3.63-2h.09l2.14-1.3,2-1.12,5.85-3.34,7.43-4.27,11.72-6.79,4.27-2.51h.09l4.28-2.51.09-.09,2.33-1.3,5-2.88,3.44-2,3.26-2,5.1-2.89,2-1.21,3-1.66,4-2.23.19-.1.47-.28,1.21-.74,2.23-1.21,35.13-20.26,3.53-2,10.31-6,27.6-15.86,14.5-8.36,28.35-16.36L947.71,906,981,886.7h.09l.56-.38,24.63-14.21,8.36-4.84,9.57-5.48V368.15Zm30.67,511.47L1002,854.7l-3,1.67-5.38,3.16-70.55,40.71-10,5.76L895.5,916.08l-15.8,9.11-29,16.73-11.89,6.88-6.69,3.8-27.23,15.7-.66.47-1.48.84-1.68,1-5.29,3-8.28,4.74-2,1.21-.48.34-7.53,4.37-.84.46-36.34,20.91-.74.47-7.34,4.18-.74.47-8.46,5-20,11.51-14.29,8.18-15.62,9-10.23,5.86-27.57,16-11.43,6.6-.57.38h-.17l-6.94,4.08-2.6,1.4-17.38,10-32.06-18.49-11.43-6.6-5.67-3.25-16.85-9.76-6.69-3.81-6.42-3.72L468.18,1015l-7.16-4.18-.46-.28-16.64-9.57-19.14-11-8.37-4.83L411,982l-2.32-1.39-4-2.32-2-1.12-16.25-9.39-2.89-1.68-1.76-1L367.91,957l-31.79-18.3-36.32-21-2.8-1.58-13.59-7.83-4-2.33-27.76-16-45.6-26.4-8.35-4.74-3.63-2.14L192,855.48l-6.23-3.62V378.19l36.21-21,27.76-16,8.64-5h.09l.57-.37,29.73-17.19h.09l12.64-7.35h.1l16.63-9.57L329.82,295l4-2.32h.09l7.07-4.09,4.27-2.51h.1l27.7-16c.09-.1.09-.1.18-.1l7.25-4.18,3.25-1.86,1.86-1.12,2.69-1.57,1.59-.94,2.51-1.38.36-.19,74.64-43.12,124.44-71.85,4.37-2.5,5,2.88,156.41,90.2,64.86,37.46.47.28,3,1.68,1,.55,4.09,2.42,3.25,1.85,11.43,6.6,18,10.41,65.24,37.55L942,340.68l5.1,3,.38.28,7.16,4.09,1.76,1,5,2.88,5,2.88,40.49,23.41V851.91Z"/></g></g><circle class="cls-5" cx="597.62" cy="576.86" r="263.86"/><rect class="cls-6" x="618.86" y="642.25" width="11.89" height="11.89"/><rect class="cls-6" x="642.64" y="654.14" width="11.88" height="11.89"/><rect class="cls-6" x="630.75" y="654.14" width="11.89" height="11.89"/><rect class="cls-6" x="654.52" y="642.25" width="11.89" height="11.89"/><rect class="cls-6" x="630.75" y="630.36" width="11.89" height="11.89"/><rect class="cls-6" x="642.64" y="630.36" width="11.88" height="11.89"/><rect class="cls-6" x="642.64" y="642.25" width="11.88" height="11.89"/><rect class="cls-6" x="630.75" y="642.25" width="11.89" height="11.89"/><rect class="cls-6" x="583.19" y="725.47" width="11.89" height="11.89"/><rect class="cls-6" x="606.97" y="737.36" width="11.89" height="11.89"/><rect class="cls-6" x="595.08" y="737.36" width="11.89" height="11.89"/><rect class="cls-6" x="595.08" y="725.47" width="11.89" height="11.89"/><rect class="cls-6" x="595.08" y="452.03" width="11.89" height="11.89"/><rect class="cls-6" x="595.08" y="440.14" width="11.89" height="11.89"/><rect class="cls-6" x="583.19" y="452.03" width="11.89" height="11.89"/><rect class="cls-6" x="583.19" y="440.14" width="11.89" height="11.89"/><rect class="cls-6" x="571.3" y="440.14" width="11.89" height="11.89"/><rect class="cls-6" x="571.3" y="452.03" width="11.89" height="11.89"/><rect class="cls-6" x="559.41" y="440.14" width="11.89" height="11.89"/><rect class="cls-6" x="559.41" y="452.03" width="11.89" height="11.89"/><rect class="cls-6" x="547.52" y="440.14" width="11.89" height="11.89"/><rect class="cls-6" x="547.52" y="452.03" width="11.89" height="11.89"/><rect class="cls-6" x="535.64" y="452.03" width="11.88" height="11.89"/><rect class="cls-6" x="535.64" y="440.14" width="11.88" height="11.89"/><rect class="cls-6" x="642.64" y="452.03" width="11.88" height="11.89"/><rect class="cls-6" x="642.64" y="440.14" width="11.88" height="11.89"/><rect class="cls-6" x="630.75" y="452.03" width="11.89" height="11.89"/><rect class="cls-6" x="630.75" y="440.14" width="11.89" height="11.89"/><rect class="cls-6" x="618.86" y="452.03" width="11.89" height="11.89"/><rect class="cls-6" x="618.86" y="440.14" width="11.89" height="11.89"/><rect class="cls-6" x="606.97" y="440.14" width="11.89" height="11.89"/><rect class="cls-6" x="606.97" y="452.03" width="11.89" height="11.89"/><rect class="cls-3" x="547.52" y="773.03" width="11.89" height="11.89"/><rect class="cls-3" x="809.08" y="903.81" width="11.89" height="11.88"/><rect class="cls-3" x="797.19" y="903.81" width="11.89" height="11.88"/><rect class="cls-3" x="785.3" y="903.81" width="11.89" height="11.88"/><rect class="cls-3" x="773.41" y="903.81" width="11.89" height="11.88"/><rect class="cls-3" x="773.41" y="606.58" width="11.89" height="11.89"/><rect class="cls-3" x="773.41" y="594.69" width="11.89" height="11.89"/><rect class="cls-3" x="761.52" y="903.81" width="11.89" height="11.88"/><rect class="cls-3" x="761.52" y="618.47" width="11.89" height="11.89"/><rect class="cls-3" x="761.52" y="606.58" width="11.89" height="11.89"/><rect class="cls-3" x="761.52" y="594.69" width="11.89" height="11.89"/><rect class="cls-3" x="761.52" y="582.81" width="11.89" height="11.88"/><rect class="cls-3" x="761.52" y="570.92" width="11.89" height="11.89"/><rect class="cls-3" x="749.64" y="903.81" width="11.88" height="11.88"/><rect class="cls-3" x="749.64" y="618.47" width="11.88" height="11.89"/><rect class="cls-3" x="749.64" y="582.81" width="11.88" height="11.88"/><rect class="cls-3" x="749.64" y="570.92" width="11.88" height="11.89"/><rect class="cls-3" x="749.64" y="559.03" width="11.88" height="11.89"/><rect class="cls-3" x="737.75" y="903.81" width="11.89" height="11.88"/><rect class="cls-3" x="737.75" y="630.36" width="11.89" height="11.89"/><rect class="cls-3" x="737.75" y="618.47" width="11.89" height="11.89"/><rect class="cls-3" x="737.75" y="594.69" width="11.89" height="11.89"/><rect class="cls-3" x="737.75" y="582.81" width="11.89" height="11.88"/><rect class="cls-3" x="737.75" y="559.03" width="11.89" height="11.89"/><rect class="cls-3" x="725.86" y="903.81" width="11.89" height="11.88"/><rect class="cls-3" x="725.86" y="891.92" width="11.89" height="11.89"/><rect class="cls-3" x="725.86" y="880.03" width="11.89" height="11.89"/><rect class="cls-3" x="725.86" y="868.14" width="11.89" height="11.89"/><rect class="cls-3" x="725.86" y="630.36" width="11.89" height="11.89"/><rect class="cls-3" x="725.86" y="594.69" width="11.89" height="11.89"/><rect class="cls-3" x="725.86" y="559.03" width="11.89" height="11.89"/><rect class="cls-3" x="713.97" y="903.81" width="11.89" height="11.88"/><rect class="cls-3" x="713.97" y="891.92" width="11.89" height="11.89"/><rect class="cls-3" x="713.97" y="868.14" width="11.89" height="11.89"/><rect class="cls-3" x="713.97" y="642.25" width="11.89" height="11.89"/><rect class="cls-3" x="713.97" y="630.36" width="11.89" height="11.89"/><rect class="cls-3" x="713.97" y="618.47" width="11.89" height="11.89"/><rect class="cls-3" x="713.97" y="606.58" width="11.89" height="11.89"/><rect class="cls-3" x="713.97" y="594.69" width="11.89" height="11.89"/><rect class="cls-3" x="713.97" y="570.92" width="11.89" height="11.89"/><rect class="cls-3" x="713.97" y="559.03" width="11.89" height="11.89"/><rect class="cls-3" x="713.97" y="547.14" width="11.89" height="11.89"/><rect class="cls-3" x="713.97" y="535.25" width="11.89" height="11.89"/><rect class="cls-3" x="713.97" y="523.36" width="11.89" height="11.89"/><rect class="cls-3" x="713.97" y="511.47" width="11.89" height="11.89"/><rect class="cls-3" x="702.08" y="891.92" width="11.89" height="11.89"/><rect class="cls-3" x="702.08" y="868.14" width="11.89" height="11.89"/><rect class="cls-3" x="702.08" y="820.58" width="11.89" height="11.89"/><rect class="cls-3" x="702.08" y="808.69" width="11.89" height="11.89"/><rect class="cls-3" x="702.08" y="784.92" width="11.89" height="11.89"/><rect class="cls-3" x="702.08" y="761.14" width="11.89" height="11.89"/><rect class="cls-3" x="702.08" y="749.25" width="11.89" height="11.89"/><rect class="cls-3" x="702.08" y="737.36" width="11.89" height="11.89"/><rect class="cls-3" x="702.08" y="725.47" width="11.89" height="11.89"/><rect class="cls-3" x="702.08" y="713.58" width="11.89" height="11.89"/><rect class="cls-3" x="702.08" y="701.69" width="11.89" height="11.89"/><rect class="cls-3" x="702.08" y="666.03" width="11.89" height="11.89"/><rect class="cls-3" x="702.08" y="654.14" width="11.89" height="11.89"/><rect class="cls-3" x="702.08" y="642.25" width="11.89" height="11.89"/><rect class="cls-3" x="702.08" y="606.58" width="11.89" height="11.89"/><rect class="cls-3" x="702.08" y="594.69" width="11.89" height="11.89"/><rect class="cls-3" x="702.08" y="582.81" width="11.89" height="11.88"/><rect class="cls-3" x="702.08" y="570.92" width="11.89" height="11.89"/><rect class="cls-1" x="702.08" y="559.03" width="11.89" height="11.89"/><rect class="cls-1" x="702.08" y="547.14" width="11.89" height="11.89"/><rect class="cls-1" x="702.08" y="535.25" width="11.89" height="11.89"/><rect class="cls-3" x="702.08" y="523.36" width="11.89" height="11.89"/><rect class="cls-3" x="702.08" y="511.47" width="11.89" height="11.89"/><rect class="cls-3" x="702.08" y="499.58" width="11.89" height="11.89"/><rect class="cls-3" x="690.19" y="903.81" width="11.89" height="11.88"/><rect class="cls-3" x="690.19" y="891.92" width="11.89" height="11.89"/><rect class="cls-3" x="690.19" y="868.14" width="11.89" height="11.89"/><rect class="cls-3" x="690.19" y="856.25" width="11.89" height="11.89"/><rect class="cls-3" x="690.19" y="844.36" width="11.89" height="11.89"/><rect class="cls-3" x="690.19" y="832.47" width="11.89" height="11.89"/><rect class="cls-3" x="690.19" y="820.58" width="11.89" height="11.89"/><rect class="cls-3" x="690.19" y="796.81" width="11.89" height="11.88"/><rect class="cls-3" x="690.19" y="784.92" width="11.89" height="11.89"/><rect class="cls-3" x="690.19" y="773.03" width="11.89" height="11.89"/><rect class="cls-3" x="690.19" y="761.14" width="11.89" height="11.89"/><rect class="cls-3" x="690.19" y="725.47" width="11.89" height="11.89"/><rect class="cls-3" x="690.19" y="666.03" width="11.89" height="11.89"/><rect class="cls-3" x="690.19" y="642.25" width="11.89" height="11.89"/><rect class="cls-3" x="690.19" y="582.81" width="11.89" height="11.88"/><rect class="cls-3" x="690.19" y="570.92" width="11.89" height="11.89"/><rect class="cls-1" x="690.19" y="559.03" width="11.89" height="11.89"/><rect class="cls-1" x="690.19" y="547.14" width="11.89" height="11.89"/><rect class="cls-1" x="690.19" y="535.25" width="11.89" height="11.89"/><rect class="cls-1" x="690.19" y="523.36" width="11.89" height="11.89"/><rect class="cls-1" x="690.19" y="511.47" width="11.89" height="11.89"/><rect class="cls-3" x="690.19" y="499.58" width="11.89" height="11.89"/><rect class="cls-3" x="690.19" y="487.69" width="11.89" height="11.89"/><rect class="cls-3" x="690.19" y="380.69" width="11.89" height="11.89"/><rect class="cls-3" x="690.19" y="368.81" width="11.89" height="11.88"/><rect class="cls-3" x="690.19" y="356.92" width="11.89" height="11.89"/><rect class="cls-3" x="690.19" y="345.03" width="11.89" height="11.89"/><rect class="cls-3" x="690.19" y="333.14" width="11.89" height="11.89"/><rect class="cls-3" x="690.19" y="321.25" width="11.89" height="11.89"/><rect class="cls-3" x="678.3" y="891.92" width="11.89" height="11.89"/><rect class="cls-3" x="678.3" y="868.14" width="11.89" height="11.89"/><rect class="cls-3" x="678.3" y="820.58" width="11.89" height="11.89"/><rect class="cls-3" x="678.3" y="796.81" width="11.89" height="11.88"/><rect class="cls-3" x="678.3" y="784.92" width="11.89" height="11.89"/><rect class="cls-3" x="678.3" y="761.14" width="11.89" height="11.89"/><rect class="cls-3" x="678.3" y="725.47" width="11.89" height="11.89"/><rect class="cls-3" x="678.3" y="677.92" width="11.89" height="11.89"/><rect class="cls-1" x="678.3" y="666.03" width="11.89" height="11.89"/><rect class="cls-3" x="678.3" y="654.14" width="11.89" height="11.89"/><rect class="cls-3" x="678.3" y="630.36" width="11.89" height="11.89"/><rect class="cls-3" x="678.3" y="618.47" width="11.89" height="11.89"/><rect class="cls-3" x="678.3" y="582.81" width="11.89" height="11.88"/><rect class="cls-1" x="678.3" y="570.92" width="11.89" height="11.89"/><rect class="cls-1" x="678.3" y="559.03" width="11.89" height="11.89"/><rect class="cls-1" x="678.3" y="547.14" width="11.89" height="11.89"/><rect class="cls-1" x="678.3" y="535.25" width="11.89" height="11.89"/><rect class="cls-1" x="678.3" y="523.36" width="11.89" height="11.89"/><rect class="cls-1" x="678.3" y="511.47" width="11.89" height="11.89"/><rect class="cls-1" x="678.3" y="499.58" width="11.89" height="11.89"/><rect class="cls-3" x="678.3" y="487.69" width="11.89" height="11.89"/><rect class="cls-3" x="678.3" y="475.81" width="11.89" height="11.88"/><rect class="cls-3" x="678.3" y="380.69" width="11.89" height="11.89"/><rect class="cls-3" x="678.3" y="368.81" width="11.89" height="11.88"/><rect class="cls-3" x="678.3" y="356.92" width="11.89" height="11.89"/><rect class="cls-3" x="678.3" y="345.03" width="11.89" height="11.89"/><rect class="cls-3" x="678.3" y="333.14" width="11.89" height="11.89"/><rect class="cls-3" x="678.3" y="321.25" width="11.89" height="11.89"/><rect class="cls-3" x="678.3" y="309.36" width="11.89" height="11.89"/><rect class="cls-3" x="678.3" y="297.47" width="11.89" height="11.89"/><rect class="cls-3" x="678.3" y="285.58" width="11.89" height="11.89"/><rect class="cls-3" x="678.3" y="273.69" width="11.89" height="11.89"/><rect class="cls-3" x="678.3" y="261.81" width="11.89" height="11.88"/><rect class="cls-3" x="678.3" y="249.92" width="11.89" height="11.89"/><rect class="cls-3" x="678.3" y="238.03" width="11.89" height="11.89"/><rect class="cls-3" x="666.41" y="903.81" width="11.89" height="11.88"/><rect class="cls-3" x="666.41" y="891.92" width="11.89" height="11.89"/><rect class="cls-3" x="666.41" y="868.14" width="11.89" height="11.89"/><rect class="cls-3" x="666.41" y="856.25" width="11.89" height="11.89"/><rect class="cls-3" x="666.41" y="844.36" width="11.89" height="11.89"/><rect class="cls-3" x="666.41" y="832.47" width="11.89" height="11.89"/><rect class="cls-3" x="666.41" y="820.58" width="11.89" height="11.89"/><rect class="cls-3" x="666.41" y="796.81" width="11.89" height="11.88"/><rect class="cls-3" x="666.41" y="784.92" width="11.89" height="11.89"/><rect class="cls-3" x="666.41" y="773.03" width="11.89" height="11.89"/><rect class="cls-3" x="666.41" y="749.25" width="11.89" height="11.89"/><rect class="cls-3" x="666.41" y="737.36" width="11.89" height="11.89"/><rect class="cls-3" x="666.41" y="725.47" width="11.89" height="11.89"/><rect class="cls-3" x="666.41" y="713.58" width="11.89" height="11.89"/><rect class="cls-3" x="666.41" y="701.69" width="11.89" height="11.89"/><rect class="cls-3" x="666.41" y="689.81" width="11.89" height="11.88"/><rect class="cls-1" x="666.41" y="677.92" width="11.89" height="11.89"/><rect class="cls-1" x="666.41" y="666.03" width="11.89" height="11.89"/><rect class="cls-3" x="666.41" y="654.14" width="11.89" height="11.89"/><rect class="cls-3" x="666.41" y="618.47" width="11.89" height="11.89"/><rect class="cls-3" x="666.41" y="606.58" width="11.89" height="11.89"/><rect class="cls-3" x="666.41" y="594.69" width="11.89" height="11.89"/><rect class="cls-3" x="666.41" y="582.81" width="11.89" height="11.88"/><rect class="cls-1" x="666.41" y="570.92" width="11.89" height="11.89"/><rect class="cls-1" x="666.41" y="559.03" width="11.89" height="11.89"/><rect class="cls-1" x="666.41" y="547.14" width="11.89" height="11.89"/><rect class="cls-1" x="666.41" y="535.25" width="11.89" height="11.89"/><rect class="cls-1" x="666.41" y="523.36" width="11.89" height="11.89"/><rect class="cls-1" x="666.41" y="511.47" width="11.89" height="11.89"/><rect class="cls-1" x="666.41" y="499.58" width="11.89" height="11.89"/><rect class="cls-3" x="666.41" y="487.69" width="11.89" height="11.89"/><rect class="cls-3" x="666.41" y="475.81" width="11.89" height="11.88"/><rect class="cls-3" x="666.41" y="404.47" width="11.89" height="11.89"/><rect class="cls-3" x="666.41" y="392.58" width="11.89" height="11.89"/><rect class="cls-3" x="666.41" y="380.69" width="11.89" height="11.89"/><rect class="cls-3" x="666.41" y="368.81" width="11.89" height="11.88"/><rect class="cls-3" x="666.41" y="321.25" width="11.89" height="11.89"/><rect class="cls-3" x="666.41" y="309.36" width="11.89" height="11.89"/><rect class="cls-3" x="666.41" y="297.47" width="11.89" height="11.89"/><rect class="cls-3" x="654.52" y="903.81" width="11.89" height="11.88"/><rect class="cls-3" x="654.52" y="891.92" width="11.89" height="11.89"/><rect class="cls-3" x="654.52" y="868.14" width="11.89" height="11.89"/><rect class="cls-3" x="654.52" y="820.58" width="11.89" height="11.89"/><rect class="cls-3" x="654.52" y="808.69" width="11.89" height="11.89"/><rect class="cls-3" x="654.52" y="784.92" width="11.89" height="11.89"/><rect class="cls-3" x="654.52" y="773.03" width="11.89" height="11.89"/><rect class="cls-3" x="654.52" y="761.14" width="11.89" height="11.89"/><rect class="cls-3" x="654.52" y="749.25" width="11.89" height="11.89"/><rect class="cls-3" x="654.52" y="737.36" width="11.89" height="11.89"/><rect class="cls-3" x="654.52" y="725.47" width="11.89" height="11.89"/><rect class="cls-3" x="654.52" y="713.58" width="11.89" height="11.89"/><rect class="cls-1" x="654.52" y="701.69" width="11.89" height="11.89"/><rect class="cls-1" x="654.52" y="689.81" width="11.89" height="11.88"/><rect class="cls-1" x="654.52" y="677.92" width="11.89" height="11.89"/><rect class="cls-3" x="654.52" y="666.03" width="11.89" height="11.89"/><rect class="cls-3" x="654.52" y="594.69" width="11.89" height="11.89"/><rect class="cls-1" x="654.52" y="582.81" width="11.89" height="11.88"/><rect class="cls-1" x="654.52" y="570.92" width="11.89" height="11.89"/><rect class="cls-1" x="654.52" y="559.03" width="11.89" height="11.89"/><rect class="cls-1" x="654.52" y="547.14" width="11.89" height="11.89"/><rect class="cls-1" x="654.52" y="535.25" width="11.89" height="11.89"/><rect class="cls-1" x="654.52" y="523.36" width="11.89" height="11.89"/><rect class="cls-1" x="654.52" y="511.47" width="11.89" height="11.89"/><rect class="cls-1" x="654.52" y="499.58" width="11.89" height="11.89"/><rect class="cls-1" x="654.52" y="487.69" width="11.89" height="11.89"/><rect class="cls-3" x="654.52" y="475.81" width="11.89" height="11.88"/><rect class="cls-3" x="654.52" y="463.92" width="11.89" height="11.89"/><rect class="cls-3" x="654.52" y="452.03" width="11.89" height="11.89"/><rect class="cls-3" x="654.52" y="440.14" width="11.89" height="11.89"/><rect class="cls-3" x="654.52" y="428.25" width="11.89" height="11.89"/><rect class="cls-3" x="654.52" y="416.36" width="11.89" height="11.89"/><rect class="cls-3" x="654.52" y="356.92" width="11.89" height="11.89"/><rect class="cls-3" x="654.52" y="345.03" width="11.89" height="11.89"/><rect class="cls-3" x="654.52" y="333.14" width="11.89" height="11.89"/><rect class="cls-3" x="654.52" y="321.25" width="11.89" height="11.89"/><rect class="cls-3" x="654.52" y="309.36" width="11.89" height="11.89"/><rect class="cls-3" x="654.52" y="297.47" width="11.89" height="11.89"/><rect class="cls-3" x="654.52" y="285.58" width="11.89" height="11.89"/><rect class="cls-3" x="642.64" y="903.81" width="11.88" height="11.88"/><rect class="cls-3" x="642.64" y="891.92" width="11.88" height="11.89"/><rect class="cls-3" x="642.64" y="868.14" width="11.88" height="11.89"/><rect class="cls-3" x="642.64" y="761.14" width="11.88" height="11.89"/><rect class="cls-3" x="642.64" y="749.25" width="11.88" height="11.89"/><rect class="cls-3" x="642.64" y="737.36" width="11.88" height="11.89"/><rect class="cls-1" x="642.64" y="725.47" width="11.88" height="11.89"/><rect class="cls-1" x="642.64" y="713.58" width="11.88" height="11.89"/><rect class="cls-1" x="642.64" y="701.69" width="11.88" height="11.89"/><rect class="cls-1" x="642.64" y="689.81" width="11.88" height="11.88"/><rect class="cls-3" x="642.64" y="677.92" width="11.88" height="11.89"/><rect class="cls-3" x="642.64" y="666.03" width="11.88" height="11.89"/><rect class="cls-3" x="642.64" y="606.58" width="11.88" height="11.89"/><rect class="cls-3" x="642.64" y="594.69" width="11.88" height="11.89"/><rect class="cls-1" x="642.64" y="582.81" width="11.88" height="11.88"/><rect class="cls-1" x="642.64" y="570.92" width="11.88" height="11.89"/><rect class="cls-1" x="642.64" y="559.03" width="11.88" height="11.89"/><rect class="cls-1" x="642.64" y="547.14" width="11.88" height="11.89"/><rect class="cls-1" x="642.64" y="535.25" width="11.88" height="11.89"/><rect class="cls-1" x="642.64" y="523.36" width="11.88" height="11.89"/><rect class="cls-1" x="642.64" y="511.47" width="11.88" height="11.89"/><rect class="cls-1" x="642.64" y="499.58" width="11.88" height="11.89"/><rect class="cls-1" x="642.64" y="487.69" width="11.88" height="11.89"/><rect class="cls-3" x="642.64" y="475.81" width="11.88" height="11.88"/><rect class="cls-3" x="642.64" y="463.92" width="11.88" height="11.89"/><rect class="cls-3" x="642.64" y="416.36" width="11.88" height="11.89"/><rect class="cls-3" x="642.64" y="380.69" width="11.88" height="11.89"/><rect class="cls-3" x="642.64" y="368.81" width="11.88" height="11.88"/><rect class="cls-3" x="642.64" y="356.92" width="11.88" height="11.89"/><rect class="cls-7" x="642.64" y="345.03" width="11.88" height="11.89"/><rect class="cls-7" x="642.64" y="333.14" width="11.88" height="11.89"/><rect class="cls-7" x="642.64" y="321.25" width="11.88" height="11.89"/><rect class="cls-3" x="642.64" y="309.36" width="11.88" height="11.89"/><rect class="cls-3" x="642.64" y="285.58" width="11.88" height="11.89"/><rect class="cls-3" x="642.64" y="273.69" width="11.88" height="11.89"/><rect class="cls-3" x="630.75" y="903.81" width="11.89" height="11.88"/><rect class="cls-3" x="630.75" y="891.92" width="11.89" height="11.89"/><rect class="cls-3" x="630.75" y="880.03" width="11.89" height="11.89"/><rect class="cls-3" x="630.75" y="868.14" width="11.89" height="11.89"/><rect class="cls-3" x="630.75" y="773.03" width="11.89" height="11.89"/><rect class="cls-3" x="630.75" y="761.14" width="11.89" height="11.89"/><rect class="cls-7" x="630.75" y="749.25" width="11.89" height="11.89"/><rect class="cls-3" x="630.75" y="737.36" width="11.89" height="11.89"/><rect class="cls-1" x="630.75" y="725.47" width="11.89" height="11.89"/><rect class="cls-1" x="630.75" y="713.58" width="11.89" height="11.89"/><rect class="cls-1" x="630.75" y="701.69" width="11.89" height="11.89"/><rect class="cls-3" x="630.75" y="689.81" width="11.89" height="11.88"/><rect class="cls-3" x="630.75" y="677.92" width="11.89" height="11.89"/><rect class="cls-3" x="630.75" y="606.58" width="11.89" height="11.89"/><rect class="cls-1" x="630.75" y="594.69" width="11.89" height="11.89"/><rect class="cls-1" x="630.75" y="582.81" width="11.89" height="11.88"/><rect class="cls-1" x="630.75" y="570.92" width="11.89" height="11.89"/><rect class="cls-1" x="630.75" y="559.03" width="11.89" height="11.89"/><rect class="cls-1" x="630.75" y="547.14" width="11.89" height="11.89"/><rect class="cls-1" x="630.75" y="535.25" width="11.89" height="11.89"/><rect class="cls-1" x="630.75" y="523.36" width="11.89" height="11.89"/><rect class="cls-1" x="630.75" y="511.47" width="11.89" height="11.89"/><rect class="cls-1" x="630.75" y="499.58" width="11.89" height="11.89"/><rect class="cls-1" x="630.75" y="487.69" width="11.89" height="11.89"/><rect class="cls-3" x="630.75" y="475.81" width="11.89" height="11.88"/><rect class="cls-3" x="630.75" y="463.92" width="11.89" height="11.89"/><rect class="cls-3" x="630.75" y="392.58" width="11.89" height="11.89"/><rect class="cls-3" x="630.75" y="380.69" width="11.89" height="11.89"/><rect class="cls-7" x="630.75" y="368.81" width="11.89" height="11.88"/><rect class="cls-2" x="630.75" y="356.92" width="11.89" height="11.89"/><rect class="cls-2" x="630.75" y="345.03" width="11.89" height="11.89"/><rect class="cls-7" x="630.75" y="333.14" width="11.89" height="11.89"/><rect class="cls-7" x="630.75" y="321.25" width="11.89" height="11.89"/><rect class="cls-3" x="630.75" y="309.36" width="11.89" height="11.89"/><rect class="cls-3" x="630.75" y="297.47" width="11.89" height="11.89"/><rect class="cls-3" x="630.75" y="273.69" width="11.89" height="11.89"/><rect class="cls-3" x="618.86" y="903.81" width="11.89" height="11.88"/><rect class="cls-3" x="618.86" y="891.92" width="11.89" height="11.89"/><rect class="cls-3" x="618.86" y="880.03" width="11.89" height="11.89"/><rect class="cls-3" x="618.86" y="868.14" width="11.89" height="11.89"/><rect class="cls-3" x="618.86" y="773.03" width="11.89" height="11.89"/><rect class="cls-7" x="618.86" y="761.14" width="11.89" height="11.89"/><rect class="cls-7" x="618.86" y="749.25" width="11.89" height="11.89"/><rect class="cls-3" x="618.86" y="725.47" width="11.89" height="11.89"/><rect class="cls-1" x="618.86" y="713.58" width="11.89" height="11.89"/><rect class="cls-1" x="618.86" y="701.69" width="11.89" height="11.89"/><rect class="cls-3" x="618.86" y="689.81" width="11.89" height="11.88"/><rect class="cls-3" x="618.86" y="677.92" width="11.89" height="11.89"/><rect class="cls-7" x="618.86" y="654.14" width="11.89" height="11.89"/><rect class="cls-3" x="618.86" y="618.47" width="11.89" height="11.89"/><rect class="cls-3" x="618.86" y="606.58" width="11.89" height="11.89"/><rect class="cls-1" x="618.86" y="594.69" width="11.89" height="11.89"/><rect class="cls-1" x="618.86" y="582.81" width="11.89" height="11.88"/><rect class="cls-1" x="618.86" y="570.92" width="11.89" height="11.89"/><rect class="cls-1" x="618.86" y="559.03" width="11.89" height="11.89"/><rect class="cls-1" x="618.86" y="547.14" width="11.89" height="11.89"/><rect class="cls-1" x="618.86" y="535.25" width="11.89" height="11.89"/><rect class="cls-1" x="618.86" y="523.36" width="11.89" height="11.89"/><rect class="cls-1" x="618.86" y="511.47" width="11.89" height="11.89"/><rect class="cls-1" x="618.86" y="499.58" width="11.89" height="11.89"/><rect class="cls-1" x="618.86" y="487.69" width="11.89" height="11.89"/><rect class="cls-3" x="618.86" y="475.81" width="11.89" height="11.88"/><rect class="cls-3" x="618.86" y="463.92" width="11.89" height="11.89"/><rect class="cls-3" x="618.86" y="392.58" width="11.89" height="11.89"/><rect class="cls-7" x="618.86" y="380.69" width="11.89" height="11.89"/><rect class="cls-7" x="618.86" y="368.81" width="11.89" height="11.88"/><rect class="cls-2" x="618.86" y="356.92" width="11.89" height="11.89"/><rect class="cls-2" x="618.86" y="345.03" width="11.89" height="11.89"/><rect class="cls-7" x="618.86" y="333.14" width="11.89" height="11.89"/><rect class="cls-2" x="618.86" y="321.25" width="11.89" height="11.89"/><rect class="cls-7" x="618.86" y="309.36" width="11.89" height="11.89"/><rect class="cls-3" x="618.86" y="297.47" width="11.89" height="11.89"/><rect class="cls-3" x="618.86" y="273.69" width="11.89" height="11.89"/><rect class="cls-3" x="618.86" y="261.81" width="11.89" height="11.88"/><rect class="cls-3" x="606.97" y="903.81" width="11.89" height="11.88"/><rect class="cls-3" x="606.97" y="761.14" width="11.89" height="11.89"/><rect class="cls-3" x="606.97" y="725.47" width="11.89" height="11.89"/><rect class="cls-3" x="606.97" y="713.58" width="11.89" height="11.89"/><rect class="cls-1" x="606.97" y="701.69" width="11.89" height="11.89"/><rect class="cls-3" x="606.97" y="689.81" width="11.89" height="11.88"/><rect class="cls-7" x="606.97" y="654.14" width="11.89" height="11.89"/><rect class="cls-3" x="606.97" y="618.47" width="11.89" height="11.89"/><rect class="cls-1" x="606.97" y="606.58" width="11.89" height="11.89"/><rect class="cls-1" x="606.97" y="594.69" width="11.89" height="11.89"/><rect class="cls-1" x="606.97" y="582.81" width="11.89" height="11.88"/><rect class="cls-1" x="606.97" y="570.92" width="11.89" height="11.89"/><rect class="cls-1" x="606.97" y="559.03" width="11.89" height="11.89"/><rect class="cls-1" x="606.97" y="547.14" width="11.89" height="11.89"/><rect class="cls-1" x="606.97" y="535.25" width="11.89" height="11.89"/><rect class="cls-1" x="606.97" y="523.36" width="11.89" height="11.89"/><rect class="cls-1" x="606.97" y="511.47" width="11.89" height="11.89"/><rect class="cls-1" x="606.97" y="499.58" width="11.89" height="11.89"/><rect class="cls-3" x="606.97" y="487.69" width="11.89" height="11.89"/><rect class="cls-3" x="606.97" y="475.81" width="11.89" height="11.88"/><rect class="cls-3" x="606.97" y="463.92" width="11.89" height="11.89"/><rect class="cls-3" x="606.97" y="392.58" width="11.89" height="11.89"/><rect class="cls-7" x="606.97" y="380.69" width="11.89" height="11.89"/><rect class="cls-7" x="606.97" y="368.81" width="11.89" height="11.88"/><rect class="cls-7" x="606.97" y="356.92" width="11.89" height="11.89"/><rect class="cls-7" x="606.97" y="345.03" width="11.89" height="11.89"/><rect class="cls-2" x="606.97" y="333.14" width="11.89" height="11.89"/><rect class="cls-2" x="606.97" y="321.25" width="11.89" height="11.89"/><rect class="cls-7" x="606.97" y="309.36" width="11.89" height="11.89"/><rect class="cls-3" x="606.97" y="297.47" width="11.89" height="11.89"/><rect class="cls-3" x="606.97" y="273.69" width="11.89" height="11.89"/><rect class="cls-3" x="606.97" y="261.81" width="11.89" height="11.88"/><rect class="cls-3" x="595.08" y="903.81" width="11.89" height="11.88"/><rect class="cls-3" x="595.08" y="749.25" width="11.89" height="11.89"/><rect class="cls-3" x="595.08" y="713.58" width="11.89" height="11.89"/><rect class="cls-1" x="595.08" y="701.69" width="11.89" height="11.89"/><rect class="cls-1" x="595.08" y="689.81" width="11.89" height="11.88"/><rect class="cls-3" x="595.08" y="677.92" width="11.89" height="11.89"/><rect class="cls-3" x="595.08" y="630.36" width="11.89" height="11.89"/><rect class="cls-3" x="595.08" y="618.47" width="11.89" height="11.89"/><rect class="cls-1" x="595.08" y="606.58" width="11.89" height="11.89"/><rect class="cls-1" x="595.08" y="594.69" width="11.89" height="11.89"/><rect class="cls-1" x="595.08" y="582.81" width="11.89" height="11.88"/><rect class="cls-1" x="595.08" y="570.92" width="11.89" height="11.89"/><rect class="cls-1" x="595.08" y="559.03" width="11.89" height="11.89"/><rect class="cls-1" x="595.08" y="547.14" width="11.89" height="11.89"/><rect class="cls-1" x="595.08" y="535.25" width="11.89" height="11.89"/><rect class="cls-1" x="595.08" y="523.36" width="11.89" height="11.89"/><rect class="cls-1" x="595.08" y="511.47" width="11.89" height="11.89"/><rect class="cls-3" x="595.08" y="499.58" width="11.89" height="11.89"/><rect class="cls-3" x="595.08" y="487.69" width="11.89" height="11.89"/><rect class="cls-3" x="595.08" y="475.81" width="11.89" height="11.88"/><rect class="cls-3" x="595.08" y="463.92" width="11.89" height="11.89"/><rect class="cls-3" x="595.08" y="392.58" width="11.89" height="11.89"/><rect class="cls-7" x="595.08" y="380.69" width="11.89" height="11.89"/><rect class="cls-7" x="595.08" y="368.81" width="11.89" height="11.88"/><rect class="cls-7" x="595.08" y="356.92" width="11.89" height="11.89"/><rect class="cls-7" x="595.08" y="345.03" width="11.89" height="11.89"/><rect class="cls-2" x="595.08" y="333.14" width="11.89" height="11.89"/><rect class="cls-2" x="595.08" y="321.25" width="11.89" height="11.89"/><rect class="cls-7" x="595.08" y="309.36" width="11.89" height="11.89"/><rect class="cls-3" x="595.08" y="297.47" width="11.89" height="11.89"/><rect class="cls-3" x="595.08" y="261.81" width="11.89" height="11.88"/><rect class="cls-3" x="583.19" y="903.81" width="11.89" height="11.88"/><rect class="cls-3" x="583.19" y="749.25" width="11.89" height="11.89"/><rect class="cls-3" x="583.19" y="737.36" width="11.89" height="11.89"/><rect class="cls-1" x="583.19" y="701.69" width="11.89" height="11.89"/><rect class="cls-3" x="583.19" y="689.81" width="11.89" height="11.88"/><rect class="cls-3" x="583.19" y="677.92" width="11.89" height="11.89"/><rect class="cls-3" x="583.19" y="666.03" width="11.89" height="11.89"/><rect class="cls-3" x="583.19" y="654.14" width="11.89" height="11.89"/><rect class="cls-3" x="583.19" y="642.25" width="11.89" height="11.89"/><rect class="cls-3" x="583.19" y="630.36" width="11.89" height="11.89"/><rect class="cls-1" x="583.19" y="618.47" width="11.89" height="11.89"/><rect class="cls-1" x="583.19" y="606.58" width="11.89" height="11.89"/><rect class="cls-1" x="583.19" y="594.69" width="11.89" height="11.89"/><rect class="cls-1" x="583.19" y="582.81" width="11.89" height="11.88"/><rect class="cls-1" x="583.19" y="570.92" width="11.89" height="11.89"/><rect class="cls-1" x="583.19" y="559.03" width="11.89" height="11.89"/><rect class="cls-1" x="583.19" y="547.14" width="11.89" height="11.89"/><rect class="cls-1" x="583.19" y="535.25" width="11.89" height="11.89"/><rect class="cls-1" x="583.19" y="523.36" width="11.89" height="11.89"/><rect class="cls-1" x="583.19" y="511.47" width="11.89" height="11.89"/><rect class="cls-3" x="583.19" y="499.58" width="11.89" height="11.89"/><rect class="cls-3" x="583.19" y="487.69" width="11.89" height="11.89"/><rect class="cls-7" x="583.19" y="475.81" width="11.89" height="11.88"/><rect class="cls-3" x="583.19" y="463.92" width="11.89" height="11.89"/><rect class="cls-3" x="583.19" y="392.58" width="11.89" height="11.89"/><rect class="cls-7" x="583.19" y="380.69" width="11.89" height="11.89"/><rect class="cls-7" x="583.19" y="368.81" width="11.89" height="11.88"/><rect class="cls-7" x="583.19" y="356.92" width="11.89" height="11.89"/><rect class="cls-7" x="583.19" y="345.03" width="11.89" height="11.89"/><rect class="cls-7" x="583.19" y="333.14" width="11.89" height="11.89"/><rect class="cls-7" x="583.19" y="321.25" width="11.89" height="11.89"/><rect class="cls-7" x="583.19" y="309.36" width="11.89" height="11.89"/><rect class="cls-3" x="583.19" y="297.47" width="11.89" height="11.89"/><rect class="cls-3" x="583.19" y="261.81" width="11.89" height="11.88"/><rect class="cls-3" x="571.3" y="903.81" width="11.89" height="11.88"/><rect class="cls-3" x="571.3" y="891.92" width="11.89" height="11.89"/><rect class="cls-3" x="571.3" y="880.03" width="11.89" height="11.89"/><rect class="cls-3" x="571.3" y="737.36" width="11.89" height="11.89"/><rect class="cls-3" x="571.3" y="725.47" width="11.89" height="11.89"/><rect class="cls-3" x="571.3" y="701.69" width="11.89" height="11.89"/><rect class="cls-3" x="571.3" y="666.03" width="11.89" height="11.89"/><rect class="cls-1" x="571.3" y="654.14" width="11.89" height="11.89"/><rect class="cls-1" x="571.3" y="642.25" width="11.89" height="11.89"/><rect class="cls-1" x="571.3" y="630.36" width="11.89" height="11.89"/><rect class="cls-1" x="571.3" y="618.47" width="11.89" height="11.89"/><rect class="cls-1" x="571.3" y="606.58" width="11.89" height="11.89"/><rect class="cls-1" x="571.3" y="594.69" width="11.89" height="11.89"/><rect class="cls-1" x="571.3" y="582.81" width="11.89" height="11.88"/><rect class="cls-1" x="571.3" y="570.92" width="11.89" height="11.89"/><rect class="cls-1" x="571.3" y="559.03" width="11.89" height="11.89"/><rect class="cls-1" x="571.3" y="547.14" width="11.89" height="11.89"/><rect class="cls-3" x="571.3" y="535.25" width="11.89" height="11.89"/><rect class="cls-3" x="571.3" y="523.36" width="11.89" height="11.89"/><rect class="cls-3" x="571.3" y="511.47" width="11.89" height="11.89"/><rect class="cls-3" x="571.3" y="499.58" width="11.89" height="11.89"/><rect class="cls-7" x="571.3" y="487.69" width="11.89" height="11.89"/><rect class="cls-3" x="571.3" y="463.92" width="11.89" height="11.89"/><rect class="cls-3" x="571.3" y="392.58" width="11.89" height="11.89"/><rect class="cls-7" x="571.3" y="380.69" width="11.89" height="11.89"/><rect class="cls-7" x="571.3" y="368.81" width="11.89" height="11.88"/><rect class="cls-7" x="571.3" y="356.92" width="11.89" height="11.89"/><rect class="cls-7" x="571.3" y="345.03" width="11.89" height="11.89"/><rect class="cls-7" x="571.3" y="333.14" width="11.89" height="11.89"/><rect class="cls-7" x="571.3" y="321.25" width="11.89" height="11.89"/><rect class="cls-7" x="571.3" y="309.36" width="11.89" height="11.89"/><rect class="cls-3" x="571.3" y="297.47" width="11.89" height="11.89"/><rect class="cls-3" x="571.3" y="273.69" width="11.89" height="11.89"/><rect class="cls-3" x="571.3" y="261.81" width="11.89" height="11.88"/><rect class="cls-3" x="559.41" y="891.92" width="11.89" height="11.89"/><rect class="cls-3" x="559.41" y="868.14" width="11.89" height="11.89"/><rect class="cls-3" x="559.41" y="713.58" width="11.89" height="11.89"/><rect class="cls-3" x="559.41" y="654.14" width="11.89" height="11.89"/><rect class="cls-1" x="559.41" y="642.25" width="11.89" height="11.89"/><rect class="cls-1" x="559.41" y="630.36" width="11.89" height="11.89"/><rect class="cls-1" x="559.41" y="618.47" width="11.89" height="11.89"/><rect class="cls-1" x="559.41" y="606.58" width="11.89" height="11.89"/><rect class="cls-1" x="559.41" y="594.69" width="11.89" height="11.89"/><rect class="cls-1" x="559.41" y="582.81" width="11.89" height="11.88"/><rect class="cls-1" x="559.41" y="570.92" width="11.89" height="11.89"/><rect class="cls-1" x="559.41" y="559.03" width="11.89" height="11.89"/><rect class="cls-1" x="559.41" y="547.14" width="11.89" height="11.89"/><rect class="cls-3" x="559.41" y="535.25" width="11.89" height="11.89"/><rect class="cls-3" x="559.41" y="523.36" width="11.89" height="11.89"/><rect class="cls-7" x="559.41" y="487.69" width="11.89" height="11.89"/><rect class="cls-3" x="559.41" y="463.92" width="11.89" height="11.89"/><rect class="cls-3" x="559.41" y="392.58" width="11.89" height="11.89"/><rect class="cls-7" x="559.41" y="380.69" width="11.89" height="11.89"/><rect class="cls-7" x="559.41" y="368.81" width="11.89" height="11.88"/><rect class="cls-7" x="559.41" y="356.92" width="11.89" height="11.89"/><rect class="cls-7" x="559.41" y="345.03" width="11.89" height="11.89"/><rect class="cls-7" x="559.41" y="333.14" width="11.89" height="11.89"/><rect class="cls-7" x="559.41" y="321.25" width="11.89" height="11.89"/><rect class="cls-7" x="559.41" y="309.36" width="11.89" height="11.89"/><rect class="cls-3" x="559.41" y="297.47" width="11.89" height="11.89"/><rect class="cls-3" x="559.41" y="273.69" width="11.89" height="11.89"/><rect class="cls-3" x="559.41" y="261.81" width="11.89" height="11.88"/><rect class="cls-3" x="547.52" y="903.81" width="11.89" height="11.88"/><rect class="cls-3" x="547.52" y="891.92" width="11.89" height="11.89"/><rect class="cls-3" x="547.52" y="868.14" width="11.89" height="11.89"/><rect class="cls-3" x="547.52" y="820.58" width="11.89" height="11.89"/><rect class="cls-3" x="547.52" y="808.69" width="11.89" height="11.89"/><rect class="cls-3" x="547.52" y="784.92" width="11.89" height="11.89"/><rect class="cls-3" x="547.52" y="761.14" width="11.89" height="11.89"/><rect class="cls-3" x="547.52" y="749.25" width="11.89" height="11.89"/><rect class="cls-3" x="547.52" y="737.36" width="11.89" height="11.89"/><rect class="cls-3" x="547.52" y="725.47" width="11.89" height="11.89"/><rect class="cls-7" x="547.52" y="689.81" width="11.89" height="11.88"/><rect class="cls-7" x="547.52" y="677.92" width="11.89" height="11.89"/><rect class="cls-3" x="547.52" y="654.14" width="11.89" height="11.89"/><rect class="cls-3" x="547.52" y="642.25" width="11.89" height="11.89"/><rect class="cls-1" x="547.52" y="630.36" width="11.89" height="11.89"/><rect class="cls-1" x="547.52" y="618.47" width="11.89" height="11.89"/><rect class="cls-1" x="547.52" y="606.58" width="11.89" height="11.89"/><rect class="cls-1" x="547.52" y="594.69" width="11.89" height="11.89"/><rect class="cls-1" x="547.52" y="582.81" width="11.89" height="11.88"/><rect class="cls-1" x="547.52" y="570.92" width="11.89" height="11.89"/><rect class="cls-1" x="547.52" y="559.03" width="11.89" height="11.89"/><rect class="cls-1" x="547.52" y="547.14" width="11.89" height="11.89"/><rect class="cls-1" x="547.52" y="535.25" width="11.89" height="11.89"/><rect class="cls-3" x="547.52" y="523.36" width="11.89" height="11.89"/><rect class="cls-7" x="547.52" y="487.69" width="11.89" height="11.89"/><rect class="cls-3" x="547.52" y="463.92" width="11.89" height="11.89"/><rect class="cls-3" x="547.52" y="392.58" width="11.89" height="11.89"/><rect class="cls-3" x="547.52" y="380.69" width="11.89" height="11.89"/><rect class="cls-3" x="547.52" y="368.81" width="11.89" height="11.88"/><rect class="cls-7" x="547.52" y="356.92" width="11.89" height="11.89"/><rect class="cls-7" x="547.52" y="345.03" width="11.89" height="11.89"/><rect class="cls-7" x="547.52" y="333.14" width="11.89" height="11.89"/><rect class="cls-7" x="547.52" y="321.25" width="11.89" height="11.89"/><rect class="cls-3" x="547.52" y="309.36" width="11.89" height="11.89"/><rect class="cls-3" x="547.52" y="297.47" width="11.89" height="11.89"/><rect class="cls-3" x="547.52" y="285.58" width="11.89" height="11.89"/><rect class="cls-3" x="547.52" y="273.69" width="11.89" height="11.89"/><rect class="cls-3" x="535.64" y="903.81" width="11.88" height="11.88"/><rect class="cls-3" x="535.64" y="868.14" width="11.88" height="11.89"/><rect class="cls-3" x="535.64" y="820.58" width="11.88" height="11.89"/><rect class="cls-3" x="535.64" y="808.69" width="11.88" height="11.89"/><rect class="cls-3" x="535.64" y="784.92" width="11.88" height="11.89"/><rect class="cls-3" x="535.64" y="725.47" width="11.88" height="11.89"/><rect class="cls-3" x="535.64" y="713.58" width="11.88" height="11.89"/><rect class="cls-7" x="535.64" y="689.81" width="11.88" height="11.88"/><rect class="cls-7" x="535.64" y="677.92" width="11.88" height="11.89"/><rect class="cls-3" x="535.64" y="642.25" width="11.88" height="11.89"/><rect class="cls-1" x="535.64" y="630.36" width="11.88" height="11.89"/><rect class="cls-1" x="535.64" y="618.47" width="11.88" height="11.89"/><rect class="cls-1" x="535.64" y="606.58" width="11.88" height="11.89"/><rect class="cls-1" x="535.64" y="594.69" width="11.88" height="11.89"/><rect class="cls-1" x="535.64" y="582.81" width="11.88" height="11.88"/><rect class="cls-1" x="535.64" y="570.92" width="11.88" height="11.89"/><rect class="cls-1" x="535.64" y="559.03" width="11.88" height="11.89"/><rect class="cls-1" x="535.64" y="547.14" width="11.88" height="11.89"/><rect class="cls-1" x="535.64" y="535.25" width="11.88" height="11.89"/><rect class="cls-3" x="535.64" y="523.36" width="11.88" height="11.89"/><rect class="cls-3" x="535.64" y="511.47" width="11.88" height="11.89"/><rect class="cls-3" x="535.64" y="499.58" width="11.88" height="11.89"/><rect class="cls-7" x="535.64" y="487.69" width="11.88" height="11.89"/><rect class="cls-3" x="535.64" y="463.92" width="11.88" height="11.89"/><rect class="cls-3" x="535.64" y="380.69" width="11.88" height="11.89"/><rect class="cls-3" x="535.64" y="368.81" width="11.88" height="11.88"/><rect class="cls-3" x="535.64" y="356.92" width="11.88" height="11.89"/><rect class="cls-3" x="535.64" y="345.03" width="11.88" height="11.89"/><rect class="cls-3" x="535.64" y="333.14" width="11.88" height="11.89"/><rect class="cls-3" x="535.64" y="321.25" width="11.88" height="11.89"/><rect class="cls-3" x="535.64" y="309.36" width="11.88" height="11.89"/><rect class="cls-3" x="535.64" y="285.58" width="11.88" height="11.89"/><rect class="cls-3" x="535.64" y="273.69" width="11.88" height="11.89"/><rect class="cls-3" x="523.75" y="903.81" width="11.89" height="11.88"/><rect class="cls-3" x="523.75" y="868.14" width="11.89" height="11.89"/><rect class="cls-3" x="523.75" y="856.25" width="11.89" height="11.89"/><rect class="cls-3" x="523.75" y="844.36" width="11.89" height="11.89"/><rect class="cls-3" x="523.75" y="832.47" width="11.89" height="11.89"/><rect class="cls-3" x="523.75" y="808.69" width="11.89" height="11.89"/><rect class="cls-3" x="523.75" y="784.92" width="11.89" height="11.89"/><rect class="cls-3" x="523.75" y="773.03" width="11.89" height="11.89"/><rect class="cls-3" x="523.75" y="761.14" width="11.89" height="11.89"/><rect class="cls-3" x="523.75" y="749.25" width="11.89" height="11.89"/><rect class="cls-3" x="523.75" y="737.36" width="11.89" height="11.89"/><rect class="cls-3" x="523.75" y="725.47" width="11.89" height="11.89"/><rect class="cls-3" x="523.75" y="713.58" width="11.89" height="11.89"/><rect class="cls-3" x="523.75" y="701.69" width="11.89" height="11.89"/><rect class="cls-3" x="523.75" y="642.25" width="11.89" height="11.89"/><rect class="cls-3" x="523.75" y="630.36" width="11.89" height="11.89"/><rect class="cls-1" x="523.75" y="618.47" width="11.89" height="11.89"/><rect class="cls-1" x="523.75" y="606.58" width="11.89" height="11.89"/><rect class="cls-1" x="523.75" y="594.69" width="11.89" height="11.89"/><rect class="cls-1" x="523.75" y="582.81" width="11.89" height="11.88"/><rect class="cls-1" x="523.75" y="570.92" width="11.89" height="11.89"/><rect class="cls-1" x="523.75" y="559.03" width="11.89" height="11.89"/><rect class="cls-1" x="523.75" y="547.14" width="11.89" height="11.89"/><rect class="cls-1" x="523.75" y="535.25" width="11.89" height="11.89"/><rect class="cls-3" x="523.75" y="523.36" width="11.89" height="11.89"/><rect class="cls-3" x="523.75" y="511.47" width="11.89" height="11.89"/><rect class="cls-3" x="523.75" y="499.58" width="11.89" height="11.89"/><rect class="cls-3" x="523.75" y="463.92" width="11.89" height="11.89"/><rect class="cls-3" x="523.75" y="452.03" width="11.89" height="11.89"/><rect class="cls-3" x="523.75" y="440.14" width="11.89" height="11.89"/><rect class="cls-3" x="523.75" y="428.25" width="11.89" height="11.89"/><rect class="cls-3" x="523.75" y="416.36" width="11.89" height="11.89"/><rect class="cls-3" x="523.75" y="404.47" width="11.89" height="11.89"/><rect class="cls-3" x="523.75" y="392.58" width="11.89" height="11.89"/><rect class="cls-3" x="523.75" y="321.25" width="11.89" height="11.89"/><rect class="cls-3" x="523.75" y="309.36" width="11.89" height="11.89"/><rect class="cls-3" x="523.75" y="297.47" width="11.89" height="11.89"/><rect class="cls-3" x="523.75" y="285.58" width="11.89" height="11.89"/><rect class="cls-3" x="511.86" y="903.81" width="11.89" height="11.88"/><rect class="cls-3" x="511.86" y="868.14" width="11.89" height="11.89"/><rect class="cls-3" x="511.86" y="820.58" width="11.89" height="11.89"/><rect class="cls-3" x="511.86" y="796.81" width="11.89" height="11.88"/><rect class="cls-3" x="511.86" y="784.92" width="11.89" height="11.89"/><rect class="cls-3" x="511.86" y="725.47" width="11.89" height="11.89"/><rect class="cls-3" x="511.86" y="701.69" width="11.89" height="11.89"/><rect class="cls-3" x="511.86" y="642.25" width="11.89" height="11.89"/><rect class="cls-3" x="511.86" y="630.36" width="11.89" height="11.89"/><rect class="cls-1" x="511.86" y="618.47" width="11.89" height="11.89"/><rect class="cls-1" x="511.86" y="606.58" width="11.89" height="11.89"/><rect class="cls-1" x="511.86" y="594.69" width="11.89" height="11.89"/><rect class="cls-1" x="511.86" y="582.81" width="11.89" height="11.88"/><rect class="cls-1" x="511.86" y="570.92" width="11.89" height="11.89"/><rect class="cls-3" x="511.86" y="559.03" width="11.89" height="11.89"/><rect class="cls-1" x="511.86" y="547.14" width="11.89" height="11.89"/><rect class="cls-1" x="511.86" y="535.25" width="11.89" height="11.89"/><rect class="cls-3" x="511.86" y="523.36" width="11.89" height="11.89"/><rect class="cls-3" x="511.86" y="511.47" width="11.89" height="11.89"/><rect class="cls-3" x="511.86" y="392.58" width="11.89" height="11.89"/><rect class="cls-3" x="511.86" y="380.69" width="11.89" height="11.89"/><rect class="cls-3" x="511.86" y="368.81" width="11.89" height="11.88"/><rect class="cls-3" x="511.86" y="356.92" width="11.89" height="11.89"/><rect class="cls-3" x="511.86" y="345.03" width="11.89" height="11.89"/><rect class="cls-3" x="511.86" y="333.14" width="11.89" height="11.89"/><rect class="cls-3" x="511.86" y="321.25" width="11.89" height="11.89"/><rect class="cls-3" x="511.86" y="309.36" width="11.89" height="11.89"/><rect class="cls-3" x="511.86" y="297.47" width="11.89" height="11.89"/><rect class="cls-3" x="511.86" y="285.58" width="11.89" height="11.89"/><rect class="cls-3" x="511.86" y="273.69" width="11.89" height="11.89"/><rect class="cls-3" x="511.86" y="261.81" width="11.89" height="11.88"/><rect class="cls-3" x="499.97" y="903.81" width="11.89" height="11.88"/><rect class="cls-3" x="499.97" y="868.14" width="11.89" height="11.89"/><rect class="cls-3" x="499.97" y="856.25" width="11.89" height="11.89"/><rect class="cls-3" x="499.97" y="844.36" width="11.89" height="11.89"/><rect class="cls-3" x="499.97" y="832.47" width="11.89" height="11.89"/><rect class="cls-3" x="499.97" y="820.58" width="11.89" height="11.89"/><rect class="cls-3" x="499.97" y="808.69" width="11.89" height="11.89"/><rect class="cls-3" x="499.97" y="784.92" width="11.89" height="11.89"/><rect class="cls-3" x="499.97" y="773.03" width="11.89" height="11.89"/><rect class="cls-3" x="499.97" y="761.14" width="11.89" height="11.89"/><rect class="cls-3" x="499.97" y="725.47" width="11.89" height="11.89"/><rect class="cls-3" x="499.97" y="701.69" width="11.89" height="11.89"/><rect class="cls-3" x="499.97" y="689.81" width="11.89" height="11.88"/><rect class="cls-3" x="499.97" y="654.14" width="11.89" height="11.89"/><rect class="cls-3" x="499.97" y="642.25" width="11.89" height="11.89"/><rect class="cls-3" x="499.97" y="630.36" width="11.89" height="11.89"/><rect class="cls-3" x="499.97" y="618.47" width="11.89" height="11.89"/><rect class="cls-3" x="499.97" y="606.58" width="11.89" height="11.89"/><rect class="cls-1" x="499.97" y="594.69" width="11.89" height="11.89"/><rect class="cls-1" x="499.97" y="582.81" width="11.89" height="11.88"/><rect class="cls-3" x="499.97" y="570.92" width="11.89" height="11.89"/><rect class="cls-3" x="499.97" y="559.03" width="11.89" height="11.89"/><rect class="cls-1" x="499.97" y="547.14" width="11.89" height="11.89"/><rect class="cls-1" x="499.97" y="535.25" width="11.89" height="11.89"/><rect class="cls-3" x="499.97" y="523.36" width="11.89" height="11.89"/><rect class="cls-3" x="499.97" y="380.69" width="11.89" height="11.89"/><rect class="cls-3" x="499.97" y="321.25" width="11.89" height="11.89"/><rect class="cls-3" x="499.97" y="261.81" width="11.89" height="11.88"/><rect class="cls-3" x="488.08" y="903.81" width="11.89" height="11.88"/><rect class="cls-3" x="488.08" y="868.14" width="11.89" height="11.89"/><rect class="cls-3" x="488.08" y="820.58" width="11.89" height="11.89"/><rect class="cls-3" x="488.08" y="808.69" width="11.89" height="11.89"/><rect class="cls-3" x="488.08" y="784.92" width="11.89" height="11.89"/><rect class="cls-3" x="488.08" y="761.14" width="11.89" height="11.89"/><rect class="cls-3" x="488.08" y="749.25" width="11.89" height="11.89"/><rect class="cls-3" x="488.08" y="737.36" width="11.89" height="11.89"/><rect class="cls-3" x="488.08" y="725.47" width="11.89" height="11.89"/><rect class="cls-3" x="488.08" y="713.58" width="11.89" height="11.89"/><rect class="cls-3" x="488.08" y="701.69" width="11.89" height="11.89"/><rect class="cls-3" x="488.08" y="689.81" width="11.89" height="11.88"/><rect class="cls-3" x="488.08" y="677.92" width="11.89" height="11.89"/><rect class="cls-3" x="488.08" y="666.03" width="11.89" height="11.89"/><rect class="cls-3" x="488.08" y="654.14" width="11.89" height="11.89"/><rect class="cls-3" x="488.08" y="642.25" width="11.89" height="11.89"/><rect class="cls-3" x="488.08" y="606.58" width="11.89" height="11.89"/><rect class="cls-3" x="488.08" y="594.69" width="11.89" height="11.89"/><rect class="cls-3" x="488.08" y="582.81" width="11.89" height="11.88"/><rect class="cls-3" x="488.08" y="570.92" width="11.89" height="11.89"/><rect class="cls-1" x="488.08" y="559.03" width="11.89" height="11.89"/><rect class="cls-1" x="488.08" y="547.14" width="11.89" height="11.89"/><rect class="cls-3" x="488.08" y="535.25" width="11.89" height="11.89"/><rect class="cls-3" x="488.08" y="523.36" width="11.89" height="11.89"/><rect class="cls-3" x="488.08" y="380.69" width="11.89" height="11.89"/><rect class="cls-3" x="488.08" y="368.81" width="11.89" height="11.88"/><rect class="cls-3" x="488.08" y="356.92" width="11.89" height="11.89"/><rect class="cls-3" x="488.08" y="345.03" width="11.89" height="11.89"/><rect class="cls-3" x="488.08" y="333.14" width="11.89" height="11.89"/><rect class="cls-3" x="488.08" y="321.25" width="11.89" height="11.89"/><rect class="cls-3" x="476.19" y="903.81" width="11.89" height="11.88"/><rect class="cls-3" x="476.19" y="891.92" width="11.89" height="11.89"/><rect class="cls-3" x="476.19" y="868.14" width="11.89" height="11.89"/><rect class="cls-3" x="476.19" y="677.92" width="11.89" height="11.89"/><rect class="cls-3" x="476.19" y="666.03" width="11.89" height="11.89"/><rect class="cls-3" x="476.19" y="618.47" width="11.89" height="11.89"/><rect class="cls-3" x="476.19" y="606.58" width="11.89" height="11.89"/><rect class="cls-3" x="476.19" y="594.69" width="11.89" height="11.89"/><rect class="cls-1" x="476.19" y="582.81" width="11.89" height="11.88"/><rect class="cls-1" x="476.19" y="570.92" width="11.89" height="11.89"/><rect class="cls-1" x="476.19" y="559.03" width="11.89" height="11.89"/><rect class="cls-3" x="476.19" y="547.14" width="11.89" height="11.89"/><rect class="cls-3" x="476.19" y="535.25" width="11.89" height="11.89"/><rect class="cls-3" x="476.19" y="523.36" width="11.89" height="11.89"/><rect class="cls-3" x="464.3" y="903.81" width="11.89" height="11.88"/><rect class="cls-3" x="464.3" y="891.92" width="11.89" height="11.89"/><rect class="cls-3" x="464.3" y="880.03" width="11.89" height="11.89"/><rect class="cls-3" x="464.3" y="868.14" width="11.89" height="11.89"/><rect class="cls-3" x="464.3" y="666.03" width="11.89" height="11.89"/><rect class="cls-3" x="464.3" y="630.36" width="11.89" height="11.89"/><rect class="cls-3" x="464.3" y="618.47" width="11.89" height="11.89"/><rect class="cls-3" x="464.3" y="594.69" width="11.89" height="11.89"/><rect class="cls-3" x="464.3" y="582.81" width="11.89" height="11.88"/><rect class="cls-3" x="464.3" y="570.92" width="11.89" height="11.89"/><rect class="cls-3" x="464.3" y="559.03" width="11.89" height="11.89"/><rect class="cls-3" x="464.3" y="547.14" width="11.89" height="11.89"/><rect class="cls-3" x="464.3" y="535.25" width="11.89" height="11.89"/><rect class="cls-3" x="452.41" y="903.81" width="11.89" height="11.88"/><rect class="cls-3" x="452.41" y="654.14" width="11.89" height="11.89"/><rect class="cls-3" x="452.41" y="642.25" width="11.89" height="11.89"/><rect class="cls-3" x="452.41" y="630.36" width="11.89" height="11.89"/><rect class="cls-3" x="452.41" y="618.47" width="11.89" height="11.89"/><rect class="cls-3" x="452.41" y="606.58" width="11.89" height="11.89"/><rect class="cls-3" x="452.41" y="582.81" width="11.89" height="11.88"/><rect class="cls-3" x="452.41" y="570.92" width="11.89" height="11.89"/><rect class="cls-3" x="452.41" y="559.03" width="11.89" height="11.89"/><rect class="cls-3" x="440.52" y="903.81" width="11.89" height="11.88"/><rect class="cls-3" x="440.52" y="654.14" width="11.89" height="11.89"/><rect class="cls-3" x="440.52" y="642.25" width="11.89" height="11.89"/><rect class="cls-3" x="440.52" y="606.58" width="11.89" height="11.89"/><rect class="cls-3" x="440.52" y="594.69" width="11.89" height="11.89"/><rect class="cls-3" x="440.52" y="570.92" width="11.89" height="11.89"/><rect class="cls-3" x="428.64" y="903.81" width="11.88" height="11.88"/><rect class="cls-3" x="428.64" y="642.25" width="11.88" height="11.89"/><rect class="cls-3" x="428.64" y="630.36" width="11.88" height="11.89"/><rect class="cls-3" x="428.64" y="606.58" width="11.88" height="11.89"/><rect class="cls-3" x="428.64" y="594.69" width="11.88" height="11.89"/><rect class="cls-3" x="428.64" y="582.81" width="11.88" height="11.88"/><rect class="cls-3" x="428.64" y="570.92" width="11.88" height="11.89"/><rect class="cls-3" x="416.75" y="903.81" width="11.89" height="11.88"/><rect class="cls-3" x="416.75" y="630.36" width="11.89" height="11.89"/><rect class="cls-3" x="416.75" y="618.47" width="11.89" height="11.89"/><rect class="cls-3" x="416.75" y="594.69" width="11.89" height="11.89"/><rect class="cls-3" x="416.75" y="582.81" width="11.89" height="11.88"/><rect class="cls-3" x="404.86" y="903.81" width="11.89" height="11.88"/><rect class="cls-3" x="404.86" y="618.47" width="11.89" height="11.89"/><rect class="cls-3" x="404.86" y="606.58" width="11.89" height="11.89"/><rect class="cls-3" x="404.86" y="594.69" width="11.89" height="11.89"/><rect class="cls-3" x="392.97" y="903.81" width="11.89" height="11.88"/><rect class="cls-3" x="381.08" y="903.81" width="11.89" height="11.88"/></svg>