<svg xmlns="http://www.w3.org/2000/svg" xmlns:xlink="http://www.w3.org/1999/xlink" viewBox="0 0 86.56 99.95"><defs><style>.cls-1,.cls-3,.cls-80{isolation:isolate;}.cls-2{fill:#232a55;}.cls-3{stroke:#150a3a;stroke-width:0.25px;opacity:0.63;fill:url(#linear-gradient);}.cls-3,.cls-80{stroke-miterlimit:10;}.cls-4{fill:#6f6;}.cls-5{fill:#fff;}.cls-6{fill:url(#linear-gradient-2);}.cls-7{fill:#1c1142;}.cls-8{fill:#83cda4;}.cls-9{fill:#faf9fa;}.cls-10{fill:#150a3a;}.cls-11{fill:#070502;}.cls-12{fill:url(#linear-gradient-3);}.cls-13{fill:url(#linear-gradient-4);}.cls-14{fill:#d9dae6;}.cls-15{fill:#b2b0be;}.cls-16{fill:#d8d7df;}.cls-17{fill:#cdccd4;}.cls-18{fill:#e7e8ec;}.cls-19{fill:#9a999f;}.cls-20{fill:#c8c6d3;}.cls-21{fill:#a09dad;}.cls-22{fill:#d7d6dd;}.cls-23{fill:#8475b5;}.cls-24{fill:#a28fde;}.cls-25{fill:#5e5873;}.cls-26{fill:#6a6482;}.cls-27{fill:#767d92;}.cls-28{fill:#0087fc;}.cls-29{fill:#ff7446;}.cls-30{fill:#483342;}.cls-31{fill:#20211f;opacity:0.53;}.cls-32{fill:#2c0422;}.cls-33{fill:#4185bf;}.cls-34{fill:#dde9f3;}.cls-35,.cls-36{fill:#0065bd;}.cls-35{opacity:0.56;}.cls-37{fill:#001e6e;}.cls-38{fill:#334b8b;}.cls-39{fill:#6678a8;}.cls-40{fill:#ff682b;opacity:0.68;}.cls-40,.cls-64,.cls-70,.cls-74,.cls-78{mix-blend-mode:multiply;}.cls-41{fill:#ff916c;}.cls-42{fill:#0b0080;}.cls-43{fill:#080060;}.cls-44{fill:#6f81a6;}.cls-45{fill:#53617d;}.cls-46{fill:#f2f9ff;}.cls-47{fill:#339ffd;}.cls-48{fill:#fcb500;}.cls-49{fill:#fcc332;}.cls-50{fill:#fc9700;}.cls-51{fill:#f25c12;}.cls-52{fill:#021f6e;}.cls-53{fill:#99c8f2;}.cls-54{fill:#022687;}.cls-55{fill:#8f4800;}.cls-56{fill:#8c9ab8;}.cls-57{fill:#001653;}.cls-58{fill:#7b5119;}.cls-59{fill:#957447;}.cls-60{fill:#fa8e00;}.cls-61{fill:#021753;}.cls-62{fill:#5d70a2;}.cls-63{fill:#bc9166;}.cls-64,.cls-65{fill:#d2b699;}.cls-66{fill:#fcdb86;}.cls-67{fill:#b5450e;opacity:0.6;}.cls-68{fill:#011037;}.cls-69{fill:#8c114d;}.cls-70,.cls-71{fill:#991354;}.cls-70{opacity:0.49;}.cls-72{fill:#5d0b33;}.cls-73{fill:#f7931e;}.cls-74{fill:#bf2604;}.cls-75{fill:#100062;}.cls-76{fill:#0c004a;}.cls-77,.cls-78{fill:#5881a5;}.cls-79{fill:#c9e2f4;}.cls-80{stroke:#000002;opacity:0.13;fill:url(#linear-gradient-5);}</style><linearGradient id="linear-gradient" x1="7.79" y1="50.15" x2="79.62" y2="50.15" gradientUnits="userSpaceOnUse"><stop offset="0" stop-color="#9dabe0"/><stop offset="1" stop-color="#f7f8fc"/></linearGradient><linearGradient id="linear-gradient-2" x1="40.44" y1="22.51" x2="45.57" y2="13.63" gradientUnits="userSpaceOnUse"><stop offset="0" stop-color="#ff6"/><stop offset="0.55" stop-color="#fc6"/><stop offset="1" stop-color="#ff6"/></linearGradient><linearGradient id="linear-gradient-3" x1="9.17" y1="66.64" x2="78.19" y2="66.64" xlink:href="#linear-gradient"/><linearGradient id="linear-gradient-4" x1="12.37" y1="47.71" x2="77.83" y2="47.71" xlink:href="#linear-gradient"/><linearGradient id="linear-gradient-5" x1="7.78" y1="50.08" x2="79.59" y2="50.08" xlink:href="#linear-gradient"/></defs><title>public projects</title><g class="cls-1"><g id="Layer_1" data-name="Layer 1"><g id="Layer_1-2" data-name="Layer 1-2"><g id="Layer_63" data-name="Layer 63"><polygon class="cls-2" points="86.56 24.99 86.56 74.96 43.28 99.95 8.65 79.96 8.5 79.86 0 74.96 0 24.99 43.28 0 86.56 24.99"/></g><path class="cls-3" d="M79.62,29.37v41.5h0l-.85.48-.26.15-.1.05-.69.4-2.44,1.42-.16.09-1.51.87-.12.07-1.21.68-.37.21-.11.07-.37.21-.19.1h-.08l-.09.05L68.7,77.08l-.64.37-.78.5h0l-1,.55-.35.2h0l-1.2.7-.68.41-1,.56h-.12l-.32.19h0l-.61.35-.14.07h0l-.79.45L61,81.5l-.12.07h0l-.56.38-.19.11H60l-.5.3-.16.09-.26.15-.2.11h0l-.34.24-.33.19h0l-.44.26L56,84.4l-.49.28h0l-2.73,1.59h0l-.31.18-.27.16-.39.23-.11.07-1,.56-.76.44-.3.17h0l-.34.2-.31.18L47,89.65l-.28.16h0l-.17.14-.39.23L44.73,91l-.44.25h0l-.25.15-.37.22-.11-.07-1-.58-.66-.38h0l-.71-.41L41.06,90h0l-.48-.27-.13-.08-2.63-1.52h0l-1.62-.93-3.71-2.16L32,84.82l-.54-.3-.73-.42L30.48,84h-.07l-1.74-1-1-.55-.29-.16-.3-.17L26.9,82l-.2-.12-.19-.12h-.07l-.27-.16H26L25,81h0l-.12-.07-.29-.17L23.29,80l-2-1.33-1.63-.94L19,77.34h-.07l-.39-.23h0L18.36,77h0l-.81-.47h0l-1.45-.84-.8-.46-1-.6-.56-.34h0l-.23-.13h0l-.2-.12h0l-2.58-1.48L7.93,71H7.79V29.37l4.42-2.55.6-.36h0l.2-.11.45-.26,1.37-.79,1.77-1,.68-.35.12-.07L19,23l.77-.45.79-.46.33-.19.35-.2.2-.11h0l.44-.26,2.52-1.45,1.23-.72.13-.07L27,18.3l.61-.35.3-.17.34-.2.86-.51.41-.23,1.78-1,.54-.32L33,14.9h0l4.47-2.58.15-.09.21-.12,4.74-2.74,1.12-.65.83.48,5.07,2.93,2,1.17,3.08,1.78,1,.6,5.18,3,.82.48,1.8,1,.68.39,1.19.69,1.07.62.63.36h.07l1.41.81,3,1.7h0l.2.11.2.12.31.18.72.41.42.24h0l1.5.87.61.34.34.2,1.51.87Z"/><path class="cls-4" d="M53.92,89.85l1.22-.7.06.1a2.35,2.35,0,0,1,.26.64,1.47,1.47,0,0,1,0,.59,1.54,1.54,0,0,1-.78,1.07,1.66,1.66,0,0,1-1.32.17A1.78,1.78,0,0,1,53,88.46a1.75,1.75,0,0,1,.73-.23,2.17,2.17,0,0,1,.83.13l-.14.49a1.25,1.25,0,0,0-1.16,0,1.22,1.22,0,0,0-.6.78,1.25,1.25,0,0,0,.14,1,1.2,1.2,0,0,0,.82.61,1.23,1.23,0,0,0,.89-.12,1,1,0,0,0,.46-.56.92.92,0,0,0,0-.7l-.74.42Z"/><rect class="cls-4" x="56.73" y="86.47" width="0.51" height="3.41" transform="translate(-36.41 40.22) rotate(-29.95)"/><polygon class="cls-4" points="59.14 85.52 60.6 88.06 60.16 88.32 58.7 85.78 58.02 86.17 57.78 85.75 59.58 84.71 59.82 85.13 59.14 85.52"/><path class="cls-4" d="M63.17,82.85l.3.53a1.42,1.42,0,0,0-1,.14,1.18,1.18,0,0,0-.58.77,1.27,1.27,0,0,0,.15,1,1.24,1.24,0,0,0,.77.6,1.2,1.2,0,0,0,1-.12,1.09,1.09,0,0,0,.36-.31,1.29,1.29,0,0,0,.13-.21,2.59,2.59,0,0,0,.08-.3l.31.54a1.86,1.86,0,0,1-.68.68,1.75,1.75,0,0,1-2.4-.62h0a1.76,1.76,0,0,1-.21-1.22,1.71,1.71,0,0,1,.88-1.24,1.75,1.75,0,0,1,.89-.23"/><path class="cls-5" d="M65.34,82.72a1.67,1.67,0,0,1-.16-1.34A1.75,1.75,0,0,1,66,80.3a1.79,1.79,0,0,1,2.42.65,1.68,1.68,0,0,1,.17,1.34,1.8,1.8,0,0,1-2.11,1.28,1.67,1.67,0,0,1-1.16-.86m.45-.25a1.27,1.27,0,0,0,2.33-.28,1.33,1.33,0,0,0-.91-1.59,1.2,1.2,0,0,0-1,.13,1.22,1.22,0,0,0-.59.77,1.24,1.24,0,0,0,.13,1"/><rect class="cls-4" x="69.98" y="78.83" width="0.52" height="3.41" transform="translate(-30.84 45.86) rotate(-29.97)"/><polygon class="cls-4" points="73.05 80.9 71.23 77.74 74.69 78.75 73.51 76.7 73.95 76.44 75.76 79.58 72.31 78.57 73.5 80.64 73.05 80.9"/><ellipse class="cls-6" cx="43.01" cy="18.07" rx="4.95" ry="5.18"/><path class="cls-7" d="M52.8,39.89h-.44"/><path class="cls-8" d="M36.2,47.6l-.09.07Z"/><path class="cls-9" d="M34.73,48.44v-.06h0v0Z"/><path class="cls-10" d="M41.93,48.71"/><path class="cls-11" d="M41.93,48.71"/><polygon class="cls-12" points="12 64.92 9.17 64.92 9.17 70.03 43.68 89.95 78.19 70.06 78.17 43.33 77.92 45.08 73.92 53.42 55.58 66.67 41.83 68.08 12 64.92"/></g><path class="cls-13" d="M12.37,67.67V51.89s1.54-10.37,13.17-7.77c0,0,1.28-7.7,10.2-8.22s11.73-2.6,16.19-6.28S64.36,27.53,65.2,35.9C65.87,42.5,75,38.78,77,41.31c4.32,5.42-9,26.21-9,26.21Z"/><path class="cls-14" d="M68,67.52s2.31-3.6,4.69-8.2V51.73h-1.3V50.3H69.06v1.44H67.93V67.52Z"/><path class="cls-5" d="M40.19,42.5a1.87,1.87,0,0,0-1-.31,2.21,2.21,0,0,0-3.49-.81,2.85,2.85,0,0,0-2.6-1.71,2.83,2.83,0,0,0-2,.82l-.23,0a1.49,1.49,0,0,0-1.39,2Z"/><path class="cls-5" d="M76.43,50a1.26,1.26,0,0,0-.68-.21,1.49,1.49,0,0,0-2.35-.54,1.92,1.92,0,0,0-1.75-1.15,1.9,1.9,0,0,0-1.35.55h-.15A1,1,0,0,0,69.22,50Z"/><path class="cls-5" d="M29.18,50.31a1.87,1.87,0,0,0-1-.31,2.21,2.21,0,0,0-3.49-.81,2.85,2.85,0,0,0-2.6-1.71,2.83,2.83,0,0,0-2,.82l-.23,0a1.49,1.49,0,0,0-1.39,2Z"/><path class="cls-5" d="M64.63,34a1.79,1.79,0,0,0-1-.3A2.12,2.12,0,0,0,60.33,33a2.74,2.74,0,0,0-2.49-1.64,2.71,2.71,0,0,0-1.91.79l-.22,0A1.43,1.43,0,0,0,54.37,34Z"/><rect class="cls-15" x="22.11" y="53.76" width="15.63" height="13.65"/><path class="cls-15" d="M57.86,44.12h0v0h0V44H56.54v.13h0l.58.68-.54.64h-.05v.13h1.32v-.13h0l-.55-.64Zm-1.15,0h1l-.5.59Zm1,1.32h-.94l.47-.56Z"/><path class="cls-15" d="M57.86,45.58h0v0h0v-.08H56.54v.13h0l.58.68-.54.64h-.05V47h1.32V46.9h0l-.55-.64Zm-1.15,0h1l-.5.59Zm1,1.32h-.94l.47-.56Z"/><path class="cls-15" d="M57.86,47h0v0h0V46.9H56.54V47h0l.58.68-.54.64h-.05v.13h1.32v-.13h0l-.55-.64Zm-1.15,0h1l-.5.59Zm1,1.32h-.94l.47-.56Z"/><path class="cls-15" d="M57.86,48.49h0v0h0v-.08H56.54v.13h0l.58.68-.54.64h-.05v.13h1.32v-.13h0l-.55-.64Zm-1.15,0h1l-.5.59Zm1,1.32h-.94l.47-.56Z"/><path class="cls-15" d="M57.86,49.95h0v0h0v-.08H56.54v.13h0l.58.68-.54.64h-.05v.13h1.32v-.13h0l-.55-.64Zm-1.15,0h1l-.5.59Zm1,1.32h-.94l.47-.56Z"/><path class="cls-15" d="M57.86,51.4h0v0h0v-.08H56.54v.13h0l.58.68-.54.64h-.05v.13h1.32v-.13h0l-.55-.64Zm-1.15,0h1l-.5.59Zm1,1.32h-.94l.47-.56Z"/><path class="cls-15" d="M57.86,52.86h0v0h0v-.08H56.54v.13h0l.58.68-.54.64h-.05v.13h1.32v-.13h0l-.55-.64Zm-1.15,0h1l-.5.59Zm1,1.32h-.94l.47-.56Z"/><path class="cls-15" d="M57.86,54.32h0v0h0v-.08H56.54v.13h0l.58.68-.54.64h-.05v.13h1.32v-.13h0L57.29,55Zm-1.15,0h1l-.5.59Zm1,1.32h-.94l.47-.56Z"/><path class="cls-15" d="M57.86,55.77h0v0h0v-.08H56.54v.13h0l.58.68-.54.64h-.05v.13h1.32v-.13h0l-.55-.64Zm-1.15,0h1l-.5.59Zm1,1.32h-.94l.47-.56Z"/><path class="cls-15" d="M57.86,57.23h0v0h0V57.1H56.54v.13h0l.58.68-.54.64h-.05v.13h1.32v-.13h0l-.55-.64Zm-1.15,0h1l-.5.59Zm1,1.32h-.94l.47-.56Z"/><path class="cls-15" d="M57.86,58.69h0v0h0v-.08H56.54v.13h0l.58.68-.54.64h-.05v.13h1.32V60h0l-.55-.64Zm-1.15,0h1l-.5.59Zm1,1.32h-.94l.47-.56Z"/><path class="cls-15" d="M57.86,60.14h0v0h0V60H56.54v.13h0l.58.68-.54.64h-.05v.13h1.32v-.13h0l-.55-.64Zm-1.15,0h1l-.5.59Zm1,1.32h-.94l.47-.56Z"/><path class="cls-15" d="M57.86,61.6h0v0h0v-.08H56.54v.13h0l.58.68-.54.64h-.05v.13h1.32v-.13h0l-.55-.64Zm-1.15,0h1l-.5.59Zm1,1.32h-.94l.47-.56Z"/><path class="cls-15" d="M57.86,63.06h0v0h0v-.08H56.54v.13h0l.58.68-.54.64h-.05v.13h1.32v-.13h0l-.55-.64Zm-1.15,0h1l-.5.59Zm1,1.32h-.94l.47-.56Z"/><path class="cls-15" d="M51.87,40.8h.08v-.12a.24.24,0,0,1,.48,0v.12h.08v-.12a.32.32,0,0,0-.63,0Z"/><path class="cls-15" d="M51.94,39.92V38.09a.26.26,0,1,1,.51,0v1.83a.26.26,0,1,1-.51,0ZM52,38.09v1.83a.18.18,0,1,0,.36,0V38.09a.18.18,0,1,0-.36,0Z"/><rect class="cls-15" x="52.1" y="39.85" width="0.16" height="0.66" transform="translate(104.37 80.37) rotate(180)"/><rect class="cls-15" x="51.94" y="36.21" width="0.83" height="2.12" rx="0.37" ry="0.37" transform="translate(104.71 74.55) rotate(180)"/><path class="cls-15" d="M56.51,35.12h1.4V65.6h-1.4Zm1.29.11H56.62V65.49H57.8Z"/><path class="cls-15" d="M57.15,37.52l-.55.64h0v.13h1.32v-.13h-.05l-.54-.64.58-.68h0v-.13H56.54v.08h0v0h0Zm.07-.08-.5-.59h1Zm0,.17.47.56h-.94Z"/><path class="cls-15" d="M57.15,39l-.55.64h0v.13h1.32v-.13h-.05L57.29,39l.58-.68h0v-.13H56.54v.08h0v0h0Zm.07-.08-.5-.59h1Zm0,.17.47.56h-.94Z"/><path class="cls-15" d="M57.15,40.43l-.55.64h0v.13h1.32v-.13h-.05l-.54-.64.58-.68h0v-.13H56.54v.08h0v0h0Zm.07-.08-.5-.59h1Zm0,.17.47.56h-.94Z"/><path class="cls-15" d="M57.15,41.89l-.55.64h0v.13h1.32v-.13h-.05l-.54-.64.58-.68h0v-.13H56.54v.08h0v0h0Zm.07-.08-.5-.59h1Zm0,.17.47.56h-.94Z"/><path class="cls-15" d="M57.15,43.34,56.6,44h0v.13h1.32V44h-.05l-.54-.64.58-.68h0v-.13H56.54v.08h0v0h0Zm.07-.08-.5-.59h1Zm0,.17.47.56h-.94Z"/><path class="cls-15" d="M57.73,31.78h-.39a.11.11,0,0,0-.11.11v3.22a.11.11,0,0,0,.11.11h.39a.11.11,0,0,0,.11-.11V31.89A.11.11,0,0,0,57.73,31.78Zm-.28.11h.17a.11.11,0,0,1,.11.11v.89a.11.11,0,0,1-.11.11h-.17a.11.11,0,0,1-.11-.11V32A.11.11,0,0,1,57.45,31.89Zm0,1.24h.17a.11.11,0,0,1,.11.11v.53a.11.11,0,0,1-.11.11h-.17a.11.11,0,0,1-.11-.11v-.53A.11.11,0,0,1,57.45,33.13Zm.17,2h-.17a.11.11,0,0,1-.11-.11v-.89a.11.11,0,0,1,.11-.11h.17a.11.11,0,0,1,.11.11V35A.11.11,0,0,1,57.62,35.12Z"/><path class="cls-15" d="M48.79,36.4v-1a.29.29,0,0,1,.29-.29h9.26l4.19.91a.29.29,0,0,1,.23.28v.1a.29.29,0,0,1-.29.29H49.08A.29.29,0,0,1,48.79,36.4Zm.29-1.12a.11.11,0,0,0-.11.11v1a.11.11,0,0,0,.11.11H62.46a.11.11,0,0,0,.11-.11v-.1a.11.11,0,0,0-.09-.11l-4.19-.91H49.08Z"/><path class="cls-15" d="M48.79,35.39v1a.29.29,0,0,0,.29.29H62.46a.29.29,0,0,0,.29-.29v-.1a.29.29,0,0,0-.23-.28l-4.19-.91c-.06,0,.53,0-9.26,0A.29.29,0,0,0,48.79,35.39Zm.18.92c0-1,0-.93,0-.95l.28.45C49.31,35.91,49.21,36,49,36.32Zm9.51-1,.31.49c.06.09,0,.13-.36.6l-.31-.49a.09.09,0,0,1,0-.1Zm-.21,1.18h-.63l.26-.36a.09.09,0,0,1,.15,0Zm-7.77-.58c-.06-.09,0-.13.36-.6l.31.49a.09.09,0,0,1,0,.1l-.36.5Zm-.06-.33a.09.09,0,0,1-.15,0l-.2-.31h.58Zm.6-.32h.58l-.23.32a.09.09,0,0,1-.15,0Zm.41.65a.09.09,0,0,1,0-.1l.36-.5.31.49a.09.09,0,0,1,0,.1l-.36.5Zm.55-.65h.58l-.23.32a.09.09,0,0,1-.15,0Zm.41.65c-.06-.09,0-.13.36-.6l.31.49c.06.09,0,.13-.36.6Zm.55-.65h.58l-.23.32a.09.09,0,0,1-.15,0Zm.41.65c-.06-.09,0-.13.36-.6l.31.49a.09.09,0,0,1,0,.1l-.36.5Zm.55-.65h.58l-.23.32a.09.09,0,0,1-.15,0Zm.41.65a.09.09,0,0,1,0-.1l.36-.5.31.49a.09.09,0,0,1,0,.1l-.36.5Zm.55-.65h.58l-.23.32a.09.09,0,0,1-.15,0Zm.41.65a.09.09,0,0,1,0-.1l.36-.5.31.49a.09.09,0,0,1,0,.1l-.36.5Zm.55-.65h.58l-.23.32a.09.09,0,0,1-.15,0Zm.41.65a.09.09,0,0,1,0-.1l.36-.5.31.49c.06.09,0,.13-.36.6Zm.55-.65h.58l-.23.32a.09.09,0,0,1-.15,0Zm1.08.54a.09.09,0,0,1,0,.1l-.36.5-.31-.49a.09.09,0,0,1,0-.1l.36-.5Zm-.52.69h-.63l.26-.36a.09.09,0,0,1,.15,0Zm-1,0h-.63l.26-.36a.09.09,0,0,1,.15,0Zm-1,0h-.63l.26-.36a.09.09,0,0,1,.15,0Zm-1,0h-.63l.26-.36a.09.09,0,0,1,.15,0Zm-1,0h-.63l.26-.36a.09.09,0,0,1,.15,0Zm-1,0h-.63l.26-.36a.09.09,0,0,1,.15,0Zm-1,0H51l.26-.36a.09.09,0,0,1,.15,0Zm-1,0H50l.26-.36a.09.09,0,0,1,.15,0Zm-1.1-.68.36-.5c.27.46.37.51.31.59l-.36.5C49.58,36,49.48,35.92,49.54,35.83Zm-.06-.23a.09.09,0,0,1-.15,0l-.2-.31h.58Zm8.81-.32-.23.32a.09.09,0,0,1-.15,0l-.2-.31Zm.82.18-.1.14a.09.09,0,0,1-.15,0l-.14-.22Zm.47.1.16.25c.06.09,0,.13-.36.6l-.31-.49a.09.09,0,0,1,0-.1l.23-.32Zm.33.07a.09.09,0,0,1-.07,0Zm.77.17a.1.1,0,0,1,0,.12l-.36.5L60,35.93a.09.09,0,0,1,0-.1l.1-.14Zm.9.2-.3.42c-.31-.5-.33-.49-.32-.55Zm.87.51h-.17s0,0-.25-.41l.45.1c.12,0,.08.17.09.2A.11.11,0,0,1,62.46,36.51Zm-1,0,.26-.36a.09.09,0,0,1,.15,0l.22.36Zm-1,0,.26-.36a.09.09,0,0,1,.15,0l.22.36Zm-1,0,.26-.36a.09.09,0,0,1,.15,0l.22.36Zm-1,0,.26-.36a.09.09,0,0,1,.15,0l.22.36Zm-9.51,0h0l.26-.36a.09.09,0,0,1,.15,0l.22.36Z"/><rect class="cls-15" x="61.38" y="36.63" width="0.41" height="3.36" rx="0.18" ry="0.18" transform="translate(123.17 76.61) rotate(180)"/><rect class="cls-15" x="59.59" y="36.99" width="2.72" height="0.71" rx="0.32" ry="0.32" transform="translate(121.9 74.69) rotate(180)"/><rect class="cls-15" x="59.59" y="37.81" width="2.72" height="0.71" rx="0.32" ry="0.32" transform="translate(121.9 76.33) rotate(180)"/><rect class="cls-15" x="59.59" y="38.6" width="2.72" height="0.71" rx="0.32" ry="0.32" transform="translate(121.9 77.91) rotate(180)"/><rect class="cls-15" x="59.59" y="39.46" width="2.72" height="0.71" rx="0.32" ry="0.32" transform="translate(121.9 79.62) rotate(-180)"/><path class="cls-15" d="M62.39,36.17a.09.09,0,0,0,.06-.16l-4.9-4.33-7.62,3.41a.09.09,0,1,0,.07.17l7.52-3.36,4.81,4.25Z"/><rect class="cls-15" x="57.44" y="31.33" width="0.17" height="0.56" rx="0.08" ry="0.08" transform="translate(115.05 63.22) rotate(-180)"/><path class="cls-15" d="M48,36.53h.95v-.81H48a.41.41,0,0,0-.41.41h0A.41.41,0,0,0,48,36.53Z"/><path class="cls-15" d="M48.24,36.31h0a.18.18,0,0,1,.18.18v.62a0,0,0,0,1,0,0h-.41a0,0,0,0,1,0,0V36.5A.18.18,0,0,1,48.24,36.31Z" transform="matrix(-1, 0, 0, -1, 96.52, 73.43)"/><rect class="cls-15" x="50.13" y="35.31" width="0.11" height="4.1" transform="translate(-2.27 71.47) rotate(-69.71)"/><rect class="cls-15" x="51.39" y="40.76" width="1.49" height="0.45" transform="translate(104.28 81.97) rotate(180)"/><path class="cls-15" d="M50.9,41.21h2.45a0,0,0,0,1,0,0v.06a.46.46,0,0,1-.46.46H51.36a.46.46,0,0,1-.46-.46v-.06A0,0,0,0,1,50.9,41.21Z" transform="translate(104.26 82.94) rotate(-180)"/><path class="cls-15" d="M50.88,41.73v1.35h2.5V41.73Zm.34.22a.11.11,0,0,1,.11-.11h1.57a.11.11,0,0,1,.11.11V42a.11.11,0,0,1-.11.11H51.33a.11.11,0,0,1-.11-.11Z"/><path class="cls-16" d="M29.27,67.67H26.46a.12.12,0,0,1-.12-.12V45.76a.12.12,0,0,1,.18-.1l2.81,1.57a.12.12,0,0,1,.06.1V67.56A.12.12,0,0,1,29.27,67.67Z"/><rect class="cls-16" x="30.45" y="49.54" width="3.92" height="18.14" rx="1.74" ry="1.74"/><rect class="cls-16" x="30.89" y="47.46" width="1.92" height="2.08" rx="0.85" ry="0.85"/><path class="cls-16" d="M35.91,49.55h-.32a1.28,1.28,0,0,1-1.28-1.28V45a1.28,1.28,0,0,1,1.28-1.28h.32L37.18,45v3.29A1.28,1.28,0,0,1,35.91,49.55Z"/><path class="cls-16" d="M45.64,38.76H42.5l-.12.12v5.88a.12.12,0,0,1-.12.12h-.85a.12.12,0,0,1-.12-.12v-4.9a.12.12,0,0,0-.12-.12h-2a.12.12,0,0,0-.12.12v27.7a.12.12,0,0,0,.12.12H46a.12.12,0,0,0,.12-.12V39.31a.12.12,0,0,0,0-.08l-.41-.44A.12.12,0,0,0,45.64,38.76Z"/><path class="cls-16" d="M55,52.9v1a.12.12,0,0,1-.12.12H53.76a.12.12,0,0,0-.12.12V67.56a.12.12,0,0,0,.12.12h5.3a.12.12,0,0,0,.12-.12V52.9a.12.12,0,0,0-.12-.12h-4A.12.12,0,0,0,55,52.9Z"/><rect class="cls-5" x="42.39" y="40.06" width="3.78" height="0.63"/><rect class="cls-5" x="42.39" y="41.3" width="3.78" height="0.63"/><rect class="cls-5" x="42.39" y="42.55" width="3.78" height="0.63"/><rect class="cls-5" x="42.39" y="43.8" width="3.78" height="0.63"/><rect class="cls-5" x="42.39" y="45.04" width="3.78" height="0.63"/><rect class="cls-5" x="42.39" y="46.29" width="3.78" height="0.63"/><rect class="cls-5" x="42.39" y="47.53" width="3.78" height="0.63"/><rect class="cls-5" x="42.39" y="48.78" width="3.78" height="0.63"/><rect class="cls-5" x="42.39" y="50.02" width="3.78" height="0.63"/><rect class="cls-5" x="42.39" y="51.27" width="3.78" height="0.63"/><rect class="cls-5" x="42.39" y="52.51" width="3.78" height="0.63"/><rect class="cls-5" x="42.39" y="53.76" width="3.78" height="0.63"/><rect class="cls-5" x="42.39" y="55" width="3.78" height="0.63"/><rect class="cls-5" x="42.39" y="56.25" width="3.78" height="0.63"/><rect class="cls-5" x="42.39" y="57.5" width="3.78" height="0.63"/><rect class="cls-5" x="42.39" y="58.74" width="3.78" height="0.63"/><rect class="cls-5" x="42.39" y="59.99" width="3.78" height="0.63"/><rect class="cls-5" x="42.39" y="61.23" width="3.78" height="0.63"/><rect class="cls-5" x="42.39" y="62.48" width="3.78" height="0.63"/><rect class="cls-5" x="42.39" y="63.72" width="3.78" height="0.63"/><rect class="cls-5" x="42.39" y="64.97" width="3.78" height="0.63"/><rect class="cls-16" x="26.9" y="44.86" width="0.8" height="1.66" rx="0.36" ry="0.36"/><polygon class="cls-14" points="15.81 51.89 15.81 50.45 13.5 50.45 13.5 51.89 12.37 51.89 12.37 67.67 17.11 67.67 17.11 51.89 15.81 51.89"/><polygon class="cls-17" points="40.78 52.39 40.78 49.9 38.62 49.9 38.62 53.12 37.49 53.12 37.49 49.3 34.07 49.3 33.27 49.95 33.27 67.67 41.18 67.67 41.18 53.01 40.78 52.39"/><rect class="cls-18" x="45.44" y="53.07" width="5.35" height="14.6"/><rect class="cls-18" x="46.99" y="51.78" width="2.72" height="1.29"/><path class="cls-18" d="M49.08,51.78H47.59v-1.2h1l.52.52Z"/><path class="cls-18" d="M53.61,51.42v-.49h-.77l-.07-2.55-.07,2.55h-.77v.49a.45.45,0,0,0-.34.41V67.67h2.35V51.83A.45.45,0,0,0,53.61,51.42Z"/><path class="cls-17" d="M45,67.67H41.93V49l.69-.69H44.3L45,49Z"/><rect class="cls-19" x="33.27" y="50.36" width="4.23" height="0.71"/><rect class="cls-19" x="33.27" y="51.43" width="4.23" height="0.71"/><rect class="cls-19" x="33.27" y="52.5" width="4.23" height="0.71"/><rect class="cls-19" x="33.27" y="53.56" width="4.23" height="0.71"/><rect class="cls-19" x="33.27" y="54.63" width="4.23" height="0.71"/><rect class="cls-19" x="33.27" y="55.7" width="4.23" height="0.71"/><rect class="cls-19" x="33.27" y="56.77" width="4.23" height="0.71"/><rect class="cls-19" x="33.27" y="57.84" width="4.23" height="0.71"/><rect class="cls-19" x="33.27" y="58.91" width="4.23" height="0.71"/><rect class="cls-19" x="33.27" y="59.98" width="4.23" height="0.71"/><rect class="cls-19" x="33.27" y="61.05" width="4.23" height="0.71"/><rect class="cls-19" x="33.27" y="62.12" width="4.23" height="0.71"/><rect class="cls-19" x="33.27" y="63.19" width="4.23" height="0.71"/><rect class="cls-19" x="33.27" y="64.25" width="4.23" height="0.71"/><rect class="cls-19" x="33.27" y="65.32" width="4.23" height="0.71"/><rect class="cls-19" x="33.27" y="66.39" width="4.23" height="0.71"/><rect class="cls-15" x="50.34" y="51.34" width="5.66" height="16.39" rx="2.52" ry="2.52" transform="translate(106.34 119.08) rotate(180)"/><rect class="cls-15" x="50.34" y="51.34" width="4.18" height="16.39" rx="1.86" ry="1.86" transform="translate(104.86 119.08) rotate(180)"/><rect class="cls-5" x="50.53" y="52.09" width="4.62" height="0.69" rx="0.31" ry="0.31"/><rect class="cls-5" x="50.53" y="53.14" width="4.62" height="0.69" rx="0.31" ry="0.31"/><rect class="cls-5" x="50.53" y="54.2" width="4.62" height="0.69" rx="0.31" ry="0.31"/><rect class="cls-5" x="50.53" y="55.25" width="4.62" height="0.69" rx="0.31" ry="0.31"/><rect class="cls-5" x="50.53" y="56.3" width="4.62" height="0.69" rx="0.31" ry="0.31"/><rect class="cls-5" x="50.53" y="57.36" width="4.62" height="0.69" rx="0.31" ry="0.31"/><rect class="cls-5" x="50.53" y="58.41" width="4.62" height="0.69" rx="0.31" ry="0.31"/><rect class="cls-5" x="50.53" y="59.46" width="4.62" height="0.69" rx="0.31" ry="0.31"/><rect class="cls-5" x="50.53" y="60.52" width="4.62" height="0.69" rx="0.31" ry="0.31"/><rect class="cls-5" x="50.53" y="61.57" width="4.62" height="0.69" rx="0.31" ry="0.31"/><rect class="cls-5" x="50.53" y="62.62" width="4.62" height="0.69" rx="0.31" ry="0.31"/><rect class="cls-5" x="50.53" y="63.68" width="4.62" height="0.69" rx="0.31" ry="0.31"/><rect class="cls-5" x="50.53" y="64.73" width="4.62" height="0.69" rx="0.31" ry="0.31"/><rect class="cls-5" x="50.53" y="65.78" width="4.62" height="0.69" rx="0.31" ry="0.31"/><rect class="cls-5" x="50.53" y="66.84" width="4.62" height="0.69" rx="0.31" ry="0.31"/><rect class="cls-20" x="16.68" y="49.62" width="8.67" height="18.05" rx="3.86" ry="3.86"/><rect class="cls-5" x="17.11" y="50.46" width="0.78" height="1.61" rx="0.35" ry="0.35"/><rect class="cls-5" x="18.79" y="50.46" width="0.44" height="1.61" rx="0.19" ry="0.19"/><rect class="cls-5" x="20.43" y="50.46" width="0.78" height="1.61" rx="0.35" ry="0.35"/><rect class="cls-5" x="23.78" y="50.46" width="0.78" height="1.61" rx="0.35" ry="0.35"/><rect class="cls-5" x="23.78" y="52.32" width="0.78" height="1.61" rx="0.35" ry="0.35"/><rect class="cls-5" x="23.78" y="54.18" width="0.78" height="1.61" rx="0.35" ry="0.35"/><rect class="cls-5" x="23.78" y="56.04" width="0.78" height="1.61" rx="0.35" ry="0.35"/><rect class="cls-5" x="23.78" y="57.89" width="0.78" height="1.61" rx="0.35" ry="0.35"/><rect class="cls-5" x="23.78" y="59.75" width="0.78" height="1.61" rx="0.35" ry="0.35"/><rect class="cls-5" x="23.78" y="61.61" width="0.78" height="1.61" rx="0.35" ry="0.35"/><rect class="cls-5" x="23.78" y="63.47" width="0.78" height="1.61" rx="0.35" ry="0.35"/><rect class="cls-5" x="23.78" y="65.33" width="0.78" height="1.61" rx="0.35" ry="0.35"/><rect class="cls-5" x="22.11" y="50.46" width="0.44" height="1.61" rx="0.19" ry="0.19"/><rect class="cls-5" x="20.43" y="52.32" width="0.78" height="1.61" rx="0.35" ry="0.35"/><rect class="cls-5" x="22.11" y="52.32" width="0.44" height="1.61" rx="0.19" ry="0.19"/><rect class="cls-5" x="20.43" y="54.18" width="0.78" height="1.61" rx="0.35" ry="0.35"/><rect class="cls-5" x="22.11" y="54.18" width="0.44" height="1.61" rx="0.19" ry="0.19"/><rect class="cls-5" x="20.43" y="56.04" width="0.78" height="1.61" rx="0.35" ry="0.35"/><rect class="cls-5" x="22.11" y="56.04" width="0.44" height="1.61" rx="0.19" ry="0.19"/><rect class="cls-5" x="20.43" y="57.89" width="0.78" height="1.61" rx="0.35" ry="0.35"/><rect class="cls-5" x="22.11" y="57.89" width="0.44" height="1.61" rx="0.19" ry="0.19"/><rect class="cls-5" x="20.43" y="59.75" width="0.78" height="1.61" rx="0.35" ry="0.35"/><rect class="cls-5" x="22.11" y="59.75" width="0.44" height="1.61" rx="0.19" ry="0.19"/><rect class="cls-5" x="20.43" y="61.61" width="0.78" height="1.61" rx="0.35" ry="0.35"/><rect class="cls-5" x="22.11" y="61.61" width="0.44" height="1.61" rx="0.19" ry="0.19"/><rect class="cls-5" x="20.43" y="63.47" width="0.78" height="1.61" rx="0.35" ry="0.35"/><rect class="cls-5" x="22.11" y="63.47" width="0.44" height="1.61" rx="0.19" ry="0.19"/><rect class="cls-5" x="20.43" y="65.33" width="0.78" height="1.61" rx="0.35" ry="0.35"/><rect class="cls-5" x="22.11" y="65.33" width="0.44" height="1.61" rx="0.19" ry="0.19"/><rect class="cls-5" x="17.11" y="52.32" width="0.78" height="1.61" rx="0.35" ry="0.35"/><rect class="cls-5" x="18.79" y="52.32" width="0.44" height="1.61" rx="0.19" ry="0.19"/><rect class="cls-5" x="17.11" y="54.18" width="0.78" height="1.61" rx="0.35" ry="0.35"/><rect class="cls-5" x="18.79" y="54.18" width="0.44" height="1.61" rx="0.19" ry="0.19"/><rect class="cls-5" x="17.11" y="56.04" width="0.78" height="1.61" rx="0.35" ry="0.35"/><rect class="cls-5" x="18.79" y="56.04" width="0.44" height="1.61" rx="0.19" ry="0.19"/><rect class="cls-5" x="17.11" y="57.89" width="0.78" height="1.61" rx="0.35" ry="0.35"/><rect class="cls-5" x="18.79" y="57.89" width="0.44" height="1.61" rx="0.19" ry="0.19"/><rect class="cls-5" x="17.11" y="59.75" width="0.78" height="1.61" rx="0.35" ry="0.35"/><rect class="cls-5" x="18.79" y="59.75" width="0.44" height="1.61" rx="0.19" ry="0.19"/><rect class="cls-5" x="17.11" y="61.61" width="0.78" height="1.61" rx="0.35" ry="0.35"/><rect class="cls-5" x="18.79" y="61.61" width="0.44" height="1.61" rx="0.19" ry="0.19"/><rect class="cls-5" x="17.11" y="63.47" width="0.78" height="1.61" rx="0.35" ry="0.35"/><rect class="cls-5" x="18.79" y="63.47" width="0.44" height="1.61" rx="0.19" ry="0.19"/><rect class="cls-5" x="17.11" y="65.33" width="0.78" height="1.61" rx="0.35" ry="0.35"/><rect class="cls-5" x="18.79" y="65.33" width="0.44" height="1.61" rx="0.19" ry="0.19"/><rect class="cls-21" x="45.55" y="59.62" width="5.54" height="8.12" rx="2.46" ry="2.46" transform="translate(96.64 127.36) rotate(180)"/><path class="cls-19" d="M50.18,67.64V59.72c0-.05-.1-.1-.22-.1h.9c.12,0,.22,0,.22.1v7.92c0,.05-.1.1-.22.1H50C50.08,67.74,50.18,67.69,50.18,67.64Z"/><rect class="cls-5" x="45.73" y="60.21" width="0.89" height="0.47" rx="0.21" ry="0.21" transform="translate(92.34 120.9) rotate(-180)"/><rect class="cls-5" x="48.91" y="60.21" width="0.89" height="0.47" rx="0.21" ry="0.21" transform="translate(98.7 120.9) rotate(180)"/><rect class="cls-5" x="47.85" y="60.21" width="0.89" height="0.47" rx="0.21" ry="0.21" transform="translate(96.58 120.9) rotate(180)"/><rect class="cls-5" x="46.79" y="60.21" width="0.89" height="0.47" rx="0.21" ry="0.21" transform="translate(94.46 120.9) rotate(180)"/><rect class="cls-5" x="45.73" y="61.45" width="0.89" height="0.47" rx="0.21" ry="0.21" transform="translate(92.34 123.37) rotate(-180)"/><rect class="cls-5" x="48.91" y="61.45" width="0.89" height="0.47" rx="0.21" ry="0.21" transform="translate(98.7 123.37) rotate(-180)"/><rect class="cls-5" x="47.85" y="61.45" width="0.89" height="0.47" rx="0.21" ry="0.21" transform="translate(96.58 123.37) rotate(-180)"/><rect class="cls-5" x="46.79" y="61.45" width="0.89" height="0.47" rx="0.21" ry="0.21" transform="translate(94.46 123.37) rotate(-180)"/><rect class="cls-5" x="45.73" y="62.69" width="0.89" height="0.47" rx="0.21" ry="0.21" transform="translate(92.34 125.84) rotate(180)"/><rect class="cls-5" x="48.91" y="62.69" width="0.89" height="0.47" rx="0.21" ry="0.21" transform="translate(98.7 125.84) rotate(180)"/><rect class="cls-5" x="47.85" y="62.69" width="0.89" height="0.47" rx="0.21" ry="0.21" transform="translate(96.58 125.84) rotate(180)"/><rect class="cls-5" x="46.79" y="62.69" width="0.89" height="0.47" rx="0.21" ry="0.21" transform="translate(94.46 125.84) rotate(180)"/><rect class="cls-5" x="45.73" y="63.92" width="0.89" height="0.47" rx="0.21" ry="0.21" transform="translate(92.34 128.32) rotate(-180)"/><rect class="cls-5" x="48.91" y="63.92" width="0.89" height="0.47" rx="0.21" ry="0.21" transform="translate(98.7 128.32) rotate(180)"/><rect class="cls-5" x="47.85" y="63.92" width="0.89" height="0.47" rx="0.21" ry="0.21" transform="translate(96.58 128.32) rotate(-180)"/><rect class="cls-5" x="46.79" y="63.92" width="0.89" height="0.47" rx="0.21" ry="0.21" transform="translate(94.46 128.32) rotate(-180)"/><rect class="cls-5" x="45.73" y="65.16" width="0.89" height="0.47" rx="0.21" ry="0.21" transform="translate(92.34 130.79) rotate(180)"/><rect class="cls-5" x="48.91" y="65.16" width="0.89" height="0.47" rx="0.21" ry="0.21" transform="translate(98.7 130.79) rotate(-180)"/><rect class="cls-5" x="47.85" y="65.16" width="0.89" height="0.47" rx="0.21" ry="0.21" transform="translate(96.58 130.79) rotate(-180)"/><rect class="cls-5" x="46.79" y="65.16" width="0.89" height="0.47" rx="0.21" ry="0.21" transform="translate(94.46 130.79) rotate(180)"/><rect class="cls-5" x="45.73" y="66.39" width="0.89" height="0.47" rx="0.21" ry="0.21" transform="translate(92.34 133.26) rotate(180)"/><rect class="cls-5" x="48.91" y="66.39" width="0.89" height="0.47" rx="0.21" ry="0.21" transform="translate(98.7 133.26) rotate(-180)"/><rect class="cls-5" x="47.85" y="66.39" width="0.89" height="0.47" rx="0.21" ry="0.21" transform="translate(96.58 133.26) rotate(180)"/><rect class="cls-5" x="46.79" y="66.39" width="0.89" height="0.47" rx="0.21" ry="0.21" transform="translate(94.46 133.26) rotate(180)"/><rect class="cls-15" x="55.76" y="45.44" width="10.48" height="22.29" rx="4.66" ry="4.66"/><rect class="cls-19" x="55.76" y="45.44" width="8.67" height="22.29" rx="3.86" ry="3.86"/><rect class="cls-5" x="62.86" y="46.48" width="0.78" height="1.99" rx="0.35" ry="0.35"/><rect class="cls-5" x="62.86" y="48.77" width="0.78" height="1.99" rx="0.35" ry="0.35"/><rect class="cls-5" x="62.86" y="51.07" width="0.78" height="1.99" rx="0.35" ry="0.35"/><rect class="cls-5" x="62.86" y="53.36" width="0.78" height="1.99" rx="0.35" ry="0.35"/><rect class="cls-5" x="62.86" y="55.66" width="0.78" height="1.99" rx="0.35" ry="0.35"/><rect class="cls-5" x="62.86" y="57.95" width="0.78" height="1.99" rx="0.35" ry="0.35"/><rect class="cls-5" x="62.86" y="60.25" width="0.78" height="1.99" rx="0.35" ry="0.35"/><rect class="cls-5" x="62.86" y="62.54" width="0.78" height="1.99" rx="0.35" ry="0.35"/><rect class="cls-5" x="62.86" y="64.84" width="0.78" height="1.99" rx="0.35" ry="0.35"/><rect class="cls-5" x="61.19" y="46.48" width="0.44" height="1.99" rx="0.19" ry="0.19"/><rect class="cls-5" x="59.51" y="48.77" width="0.78" height="1.99" rx="0.35" ry="0.35"/><rect class="cls-5" x="61.19" y="48.77" width="0.44" height="1.99" rx="0.19" ry="0.19"/><rect class="cls-5" x="59.51" y="51.07" width="0.78" height="1.99" rx="0.35" ry="0.35"/><rect class="cls-5" x="61.19" y="51.07" width="0.44" height="1.99" rx="0.19" ry="0.19"/><rect class="cls-5" x="59.51" y="53.36" width="0.78" height="1.99" rx="0.35" ry="0.35"/><rect class="cls-5" x="61.19" y="53.36" width="0.44" height="1.99" rx="0.19" ry="0.19"/><rect class="cls-5" x="59.51" y="55.66" width="0.78" height="1.99" rx="0.35" ry="0.35"/><rect class="cls-5" x="61.19" y="55.66" width="0.44" height="1.99" rx="0.19" ry="0.19"/><rect class="cls-5" x="59.51" y="57.95" width="0.78" height="1.99" rx="0.35" ry="0.35"/><rect class="cls-5" x="61.19" y="57.95" width="0.44" height="1.99" rx="0.19" ry="0.19"/><rect class="cls-5" x="59.51" y="60.25" width="0.78" height="1.99" rx="0.35" ry="0.35"/><rect class="cls-5" x="61.19" y="60.25" width="0.44" height="1.99" rx="0.19" ry="0.19"/><rect class="cls-5" x="59.51" y="62.54" width="0.78" height="1.99" rx="0.35" ry="0.35"/><rect class="cls-5" x="61.19" y="62.54" width="0.44" height="1.99" rx="0.19" ry="0.19"/><rect class="cls-5" x="59.51" y="64.84" width="0.78" height="1.99" rx="0.35" ry="0.35"/><rect class="cls-5" x="61.19" y="64.84" width="0.44" height="1.99" rx="0.19" ry="0.19"/><rect class="cls-5" x="56.18" y="48.77" width="0.78" height="1.99" rx="0.35" ry="0.35"/><rect class="cls-5" x="57.87" y="48.77" width="0.44" height="1.99" rx="0.19" ry="0.19"/><rect class="cls-5" x="56.18" y="51.07" width="0.78" height="1.99" rx="0.35" ry="0.35"/><rect class="cls-5" x="57.87" y="51.07" width="0.44" height="1.99" rx="0.19" ry="0.19"/><rect class="cls-5" x="56.18" y="53.36" width="0.78" height="1.99" rx="0.35" ry="0.35"/><rect class="cls-5" x="57.87" y="53.36" width="0.44" height="1.99" rx="0.19" ry="0.19"/><rect class="cls-5" x="56.18" y="55.66" width="0.78" height="1.99" rx="0.35" ry="0.35"/><rect class="cls-5" x="57.87" y="55.66" width="0.44" height="1.99" rx="0.19" ry="0.19"/><rect class="cls-5" x="56.18" y="57.95" width="0.78" height="1.99" rx="0.35" ry="0.35"/><rect class="cls-5" x="57.87" y="57.95" width="0.44" height="1.99" rx="0.19" ry="0.19"/><rect class="cls-5" x="56.18" y="60.25" width="0.78" height="1.99" rx="0.35" ry="0.35"/><rect class="cls-5" x="57.87" y="60.25" width="0.44" height="1.99" rx="0.19" ry="0.19"/><rect class="cls-5" x="56.18" y="62.54" width="0.78" height="1.99" rx="0.35" ry="0.35"/><rect class="cls-5" x="57.87" y="62.54" width="0.44" height="1.99" rx="0.19" ry="0.19"/><rect class="cls-5" x="56.18" y="64.84" width="0.78" height="1.99" rx="0.35" ry="0.35"/><rect class="cls-5" x="57.87" y="64.84" width="0.44" height="1.99" rx="0.19" ry="0.19"/><rect class="cls-22" x="62.43" y="49.54" width="5.54" height="18.2" rx="2.46" ry="2.46" transform="translate(130.4 117.28) rotate(180)"/><path class="cls-19" d="M67.75,49.54h-1a.22.22,0,0,1,.22.22V67.52a.22.22,0,0,1-.22.22h1a.22.22,0,0,0,.22-.22V49.76A.22.22,0,0,0,67.75,49.54Z"/><rect class="cls-5" x="62.61" y="50.13" width="0.89" height="0.47" rx="0.21" ry="0.21" transform="translate(126.11 100.74) rotate(180)"/><rect class="cls-5" x="65.79" y="50.13" width="0.89" height="0.47" rx="0.21" ry="0.21" transform="translate(132.47 100.74) rotate(-180)"/><rect class="cls-5" x="64.73" y="50.13" width="0.89" height="0.47" rx="0.21" ry="0.21" transform="translate(130.35 100.74) rotate(180)"/><rect class="cls-5" x="63.67" y="50.13" width="0.89" height="0.47" rx="0.21" ry="0.21" transform="translate(128.23 100.74) rotate(180)"/><rect class="cls-5" x="62.61" y="51.37" width="0.89" height="0.47" rx="0.21" ry="0.21" transform="translate(126.11 103.21) rotate(180)"/><rect class="cls-5" x="65.79" y="51.37" width="0.89" height="0.47" rx="0.21" ry="0.21" transform="translate(132.47 103.21) rotate(-180)"/><rect class="cls-5" x="64.73" y="51.37" width="0.89" height="0.47" rx="0.21" ry="0.21" transform="translate(130.35 103.21) rotate(180)"/><rect class="cls-5" x="63.67" y="51.37" width="0.89" height="0.47" rx="0.21" ry="0.21" transform="translate(128.23 103.21) rotate(-180)"/><rect class="cls-5" x="62.61" y="52.61" width="0.89" height="0.47" rx="0.21" ry="0.21" transform="translate(126.11 105.69) rotate(-180)"/><rect class="cls-5" x="65.79" y="52.61" width="0.89" height="0.47" rx="0.21" ry="0.21" transform="translate(132.47 105.69) rotate(-180)"/><rect class="cls-5" x="64.73" y="52.61" width="0.89" height="0.47" rx="0.21" ry="0.21" transform="translate(130.35 105.69) rotate(-180)"/><rect class="cls-5" x="63.67" y="52.61" width="0.89" height="0.47" rx="0.21" ry="0.21" transform="translate(128.23 105.69) rotate(-180)"/><rect class="cls-5" x="62.61" y="53.84" width="0.89" height="0.47" rx="0.21" ry="0.21" transform="translate(126.11 108.16) rotate(180)"/><rect class="cls-5" x="65.79" y="53.84" width="0.89" height="0.47" rx="0.21" ry="0.21" transform="translate(132.47 108.16) rotate(180)"/><rect class="cls-5" x="64.73" y="53.84" width="0.89" height="0.47" rx="0.21" ry="0.21" transform="translate(130.35 108.16) rotate(-180)"/><rect class="cls-5" x="63.67" y="53.84" width="0.89" height="0.47" rx="0.21" ry="0.21" transform="translate(128.23 108.16) rotate(180)"/><rect class="cls-5" x="62.61" y="55.08" width="0.89" height="0.47" rx="0.21" ry="0.21" transform="translate(126.11 110.63) rotate(180)"/><rect class="cls-5" x="65.79" y="55.08" width="0.89" height="0.47" rx="0.21" ry="0.21" transform="translate(132.47 110.63) rotate(-180)"/><rect class="cls-5" x="64.73" y="55.08" width="0.89" height="0.47" rx="0.21" ry="0.21" transform="translate(130.35 110.63) rotate(180)"/><rect class="cls-5" x="63.67" y="55.08" width="0.89" height="0.47" rx="0.21" ry="0.21" transform="translate(128.23 110.63) rotate(180)"/><rect class="cls-5" x="62.61" y="56.32" width="0.89" height="0.47" rx="0.21" ry="0.21" transform="translate(126.11 113.1) rotate(-180)"/><rect class="cls-5" x="65.79" y="56.32" width="0.89" height="0.47" rx="0.21" ry="0.21" transform="translate(132.47 113.1) rotate(180)"/><rect class="cls-5" x="64.73" y="56.32" width="0.89" height="0.47" rx="0.21" ry="0.21" transform="translate(130.35 113.1) rotate(-180)"/><rect class="cls-5" x="63.67" y="56.32" width="0.89" height="0.47" rx="0.21" ry="0.21" transform="translate(128.23 113.1) rotate(-180)"/><rect class="cls-5" x="62.61" y="57.55" width="0.89" height="0.47" rx="0.21" ry="0.21" transform="translate(126.11 115.58) rotate(180)"/><rect class="cls-5" x="65.79" y="57.55" width="0.89" height="0.47" rx="0.21" ry="0.21" transform="translate(132.47 115.58) rotate(180)"/><rect class="cls-5" x="64.73" y="57.55" width="0.89" height="0.47" rx="0.21" ry="0.21" transform="translate(130.35 115.58) rotate(-180)"/><rect class="cls-5" x="63.67" y="57.55" width="0.89" height="0.47" rx="0.21" ry="0.21" transform="translate(128.23 115.58) rotate(-180)"/><rect class="cls-5" x="62.61" y="58.79" width="0.89" height="0.47" rx="0.21" ry="0.21" transform="translate(126.11 118.05) rotate(-180)"/><rect class="cls-5" x="65.79" y="58.79" width="0.89" height="0.47" rx="0.21" ry="0.21" transform="translate(132.47 118.05) rotate(180)"/><rect class="cls-5" x="64.73" y="58.79" width="0.89" height="0.47" rx="0.21" ry="0.21" transform="translate(130.35 118.05) rotate(180)"/><rect class="cls-5" x="63.67" y="58.79" width="0.89" height="0.47" rx="0.21" ry="0.21" transform="translate(128.23 118.05) rotate(-180)"/><rect class="cls-5" x="62.61" y="60.02" width="0.89" height="0.47" rx="0.21" ry="0.21" transform="translate(126.11 120.52) rotate(180)"/><rect class="cls-5" x="65.79" y="60.02" width="0.89" height="0.47" rx="0.21" ry="0.21" transform="translate(132.47 120.52) rotate(180)"/><rect class="cls-5" x="64.73" y="60.02" width="0.89" height="0.47" rx="0.21" ry="0.21" transform="translate(130.35 120.52) rotate(-180)"/><rect class="cls-5" x="63.67" y="60.02" width="0.89" height="0.47" rx="0.21" ry="0.21" transform="translate(128.23 120.52) rotate(-180)"/><rect class="cls-5" x="62.61" y="61.26" width="0.89" height="0.47" rx="0.21" ry="0.21" transform="translate(126.11 122.99) rotate(-180)"/><rect class="cls-5" x="65.79" y="61.26" width="0.89" height="0.47" rx="0.21" ry="0.21" transform="translate(132.47 122.99) rotate(180)"/><rect class="cls-5" x="64.73" y="61.26" width="0.89" height="0.47" rx="0.21" ry="0.21" transform="translate(130.35 122.99) rotate(180)"/><rect class="cls-5" x="63.67" y="61.26" width="0.89" height="0.47" rx="0.21" ry="0.21" transform="translate(128.23 122.99) rotate(-180)"/><rect class="cls-5" x="62.61" y="62.5" width="0.89" height="0.47" rx="0.21" ry="0.21" transform="translate(126.11 125.47) rotate(180)"/><rect class="cls-5" x="65.79" y="62.5" width="0.89" height="0.47" rx="0.21" ry="0.21" transform="translate(132.47 125.47) rotate(-180)"/><rect class="cls-5" x="64.73" y="62.5" width="0.89" height="0.47" rx="0.21" ry="0.21" transform="translate(130.35 125.47) rotate(180)"/><rect class="cls-5" x="63.67" y="62.5" width="0.89" height="0.47" rx="0.21" ry="0.21" transform="translate(128.23 125.47) rotate(180)"/><rect class="cls-5" x="62.61" y="63.73" width="0.89" height="0.47" rx="0.21" ry="0.21" transform="translate(126.11 127.94) rotate(180)"/><rect class="cls-5" x="65.79" y="63.73" width="0.89" height="0.47" rx="0.21" ry="0.21" transform="translate(132.47 127.94) rotate(180)"/><rect class="cls-5" x="64.73" y="63.73" width="0.89" height="0.47" rx="0.21" ry="0.21" transform="translate(130.35 127.94) rotate(180)"/><rect class="cls-5" x="63.67" y="63.73" width="0.89" height="0.47" rx="0.21" ry="0.21" transform="translate(128.23 127.94) rotate(180)"/><rect class="cls-5" x="62.61" y="64.97" width="0.89" height="0.47" rx="0.21" ry="0.21" transform="translate(126.11 130.41) rotate(180)"/><rect class="cls-5" x="65.79" y="64.97" width="0.89" height="0.47" rx="0.21" ry="0.21" transform="translate(132.47 130.41) rotate(-180)"/><rect class="cls-5" x="64.73" y="64.97" width="0.89" height="0.47" rx="0.21" ry="0.21" transform="translate(130.35 130.41) rotate(-180)"/><rect class="cls-5" x="63.67" y="64.97" width="0.89" height="0.47" rx="0.21" ry="0.21" transform="translate(128.23 130.41) rotate(180)"/><rect class="cls-5" x="62.61" y="66.21" width="0.89" height="0.47" rx="0.21" ry="0.21" transform="translate(126.11 132.88) rotate(180)"/><rect class="cls-5" x="65.79" y="66.21" width="0.89" height="0.47" rx="0.21" ry="0.21" transform="translate(132.47 132.88) rotate(-180)"/><rect class="cls-5" x="64.73" y="66.21" width="0.89" height="0.47" rx="0.21" ry="0.21" transform="translate(130.35 132.88) rotate(-180)"/><rect class="cls-5" x="63.67" y="66.21" width="0.89" height="0.47" rx="0.21" ry="0.21" transform="translate(128.23 132.88) rotate(-180)"/><path class="cls-23" d="M17.62,48.18l-.8.83v.61h2.42V48.18Zm1.45,1.17a.11.11,0,0,1-.12.1h-.09a.11.11,0,0,1-.12-.1v-.08a.11.11,0,0,1,.12-.1h.09a.11.11,0,0,1,.12.1Zm0-.41a.11.11,0,0,1-.12.1h-.09a.11.11,0,0,1-.12-.1v-.08a.11.11,0,0,1,.12-.1h.09a.11.11,0,0,1,.12.1Zm0-.39a.15.15,0,0,1-.16.13h-.09a.15.15,0,0,1-.16-.13v-.08a.15.15,0,0,1,.16-.13h.09a.15.15,0,0,1,.16.13Z"/><path class="cls-24" d="M21,47.41l-.67.87v.66h2V47.41Zm.87.84a.09.09,0,0,1-.09.09H20.6a.09.09,0,0,1-.07-.14l0,0a.09.09,0,0,1,.07,0h1.16a.09.09,0,0,1,.09.09Zm.33.37a.1.1,0,0,1-.1.1H22a.1.1,0,0,1-.1-.1v-.08a.1.1,0,0,1,.1-.1h.08a.1.1,0,0,1,.1.1Zm0-.41a.1.1,0,0,1-.1.1H22a.1.1,0,0,1-.1-.1v-.08A.1.1,0,0,1,22,48h.08a.1.1,0,0,1,.1.1Zm0-.4a.1.1,0,0,1-.1.1H22a.1.1,0,0,1-.1-.1v-.08a.1.1,0,0,1,.1-.1h.08a.1.1,0,0,1,.1.1Z"/><path class="cls-24" d="M21.72,47.42h-.06v-.1a.2.2,0,0,0-.39,0v.1H21.2v-.1a.26.26,0,0,1,.52,0Z"/><path class="cls-24" d="M21.45,46.92a.21.21,0,0,1-.21-.21v-1.5a.21.21,0,1,1,.42,0v1.5A.21.21,0,0,1,21.45,46.92Zm0-1.86a.15.15,0,0,0-.15.15v1.5a.15.15,0,1,0,.3,0v-1.5A.15.15,0,0,0,21.45,45.06Z"/><path class="cls-24" d="M21.51,46.88h-.13a.13.13,0,0,1-.13-.13v-.53a.13.13,0,0,1,.13-.13h.13a.13.13,0,0,1,.13.13v.53A.13.13,0,0,1,21.51,46.88Z"/><rect class="cls-24" x="21.39" y="46.65" width="0.13" height="0.54"/><rect class="cls-24" x="20.98" y="43.67" width="0.68" height="1.73" rx="0.3" ry="0.3"/><path class="cls-24" d="M16.1,67.73H15v-25H16.1ZM15,67.64h1V42.86H15Z"/><path class="cls-24" d="M16,44.18h0v0h0v-.06H15v.11h0l.47.55-.44.52h0v.11h1.08v-.11h0l-.45-.53Zm-.94,0h.82l-.41.48Zm.8,1.08h-.77l.38-.46Z"/><path class="cls-24" d="M16,45.37h0v0h0v-.06H15v.11h0l.47.55-.44.52h0v.11h1.08v-.11h0l-.45-.53Zm-.94,0h.82l-.41.48Zm.8,1.08h-.77l.38-.46Z"/><path class="cls-24" d="M16,46.57h0v0h0v-.06H15v.11h0l.47.55-.44.52h0v.11h1.08v-.11h0l-.45-.53Zm-.94,0h.82l-.41.48Zm.8,1.08h-.77l.38-.46Z"/><path class="cls-24" d="M16,47.76h0v0h0v-.06H15v.11h0l.47.55-.44.52h0v.11h1.08v-.11h0l-.45-.53Zm-.94,0h.82l-.41.48Zm.8,1.08h-.77l.38-.46Z"/><path class="cls-24" d="M16,49h0v0h0v-.06H15V49h0l.47.55L15,50h0v.11h1.08V50h0l-.45-.53Zm-.94,0h.82l-.41.48Zm.8,1.08h-.77l.38-.46Z"/><path class="cls-24" d="M16,50.14h0v0h0V50H15v.11h0l.47.55-.44.52h0v.11h1.08v-.11h0l-.45-.53Zm-.94,0h.82l-.41.48Zm.8,1.08h-.77l.38-.46Z"/><path class="cls-24" d="M16,51.34h0v0h0v-.06H15v.11h0l.47.55-.44.52h0v.11h1.08v-.11h0l-.45-.53Zm-.94,0h.82l-.41.48Zm.8,1.08h-.77l.38-.46Z"/><path class="cls-24" d="M16,52.53h0v0h0v-.06H15v.11h0l.47.55-.44.52h0v.11h1.08v-.11h0l-.45-.53Zm-.94,0h.82l-.41.48Zm.8,1.08h-.77l.38-.46Z"/><path class="cls-24" d="M16,53.72h0v0h0v-.06H15v.11h0l.47.55L15,54.8h0v.11h1.08V54.8h0l-.45-.53Zm-.94,0h.82l-.41.48Zm.8,1.08h-.77l.38-.46Z"/><path class="cls-24" d="M16,54.91h0v0h0v-.06H15v.11h0l.47.55L15,56h0v.11h1.08V56h0l-.45-.53Zm-.94,0h.82l-.41.48Zm.8,1.08h-.77l.38-.46Z"/><path class="cls-24" d="M16,56.11h0v0h0V56H15v.11h0l.47.55-.44.52h0v.11h1.08v-.11h0l-.45-.53Zm-.94,0h.82l-.41.48Zm.8,1.08h-.77l.38-.46Z"/><path class="cls-24" d="M16,57.3h0v0h0v-.06H15v.11h0l.47.55-.44.52h0v.11h1.08v-.11h0l-.45-.53Zm-.94,0h.82l-.41.48Zm.8,1.08h-.77l.38-.46Z"/><path class="cls-24" d="M16,58.49h0v0h0v-.06H15v.11h0l.47.55-.44.52h0v.11h1.08v-.11h0L15.58,59Zm-.94,0h.82l-.41.48Zm.8,1.08h-.77l.38-.46Z"/><path class="cls-24" d="M16,59.68h0v0h0v-.06H15v.11h0l.47.55-.44.52h0v.11h1.08v-.11h0l-.45-.53Zm-.94,0h.82l-.41.48Zm.8,1.08h-.77l.38-.46Z"/><path class="cls-24" d="M16,60.88h0v0h0v-.06H15v.11h0l.47.55L15,62h0v.11h1.08V62h0l-.45-.53Zm-.94,0h.82l-.41.48Zm.8,1.08h-.77l.38-.46Z"/><path class="cls-24" d="M16,62.07h0v0h0V62H15v.11h0l.47.55-.44.52h0v.11h1.08v-.11h0l-.45-.53Zm-.94,0h.82l-.41.48Zm.8,1.08h-.77l.38-.46Z"/><path class="cls-24" d="M16,63.26h0v0h0v-.06H15v.11h0l.47.55-.44.52h0v.11h1.08v-.11h0l-.45-.53Zm-.94,0h.82l-.41.48Zm.8,1.08h-.77l.38-.46Z"/><path class="cls-24" d="M16,64.45h0v0h0v-.06H15v.11h0l.47.55-.44.52h0v.11h1.08v-.11h0L15.58,65Zm-.94,0h.82l-.41.48Zm.8,1.08h-.77l.38-.46Z"/><path class="cls-24" d="M16,65.65h0v0h0v-.06H15v.11h0l.47.55-.44.52h0v.11h1.08v-.11h0l-.45-.53Zm-.94,0h.82l-.41.48Zm.8,1.08h-.77l.38-.46Z"/><path class="cls-24" d="M15,40.13v2.64a.09.09,0,0,0,.09.09h.32a.09.09,0,0,0,.09-.09V40.13a.09.09,0,0,0-.09-.09H15.1A.09.09,0,0,0,15,40.13Zm.41.09V41a.09.09,0,0,1-.09.09h-.14A.09.09,0,0,1,15.1,41v-.73a.09.09,0,0,1,.09-.09h.14A.09.09,0,0,1,15.42,40.22Zm0,1v.43a.09.09,0,0,1-.09.09h-.14a.09.09,0,0,1-.09-.09v-.43a.09.09,0,0,1,.09-.09h.14A.09.09,0,0,1,15.42,41.23Zm-.32,1.45V42a.09.09,0,0,1,.09-.09h.14a.09.09,0,0,1,.09.09v.73a.09.09,0,0,1-.09.09h-.14A.09.09,0,0,1,15.1,42.68Z"/><path class="cls-24" d="M22.19,44.06h-11a.24.24,0,0,1-.24-.24v-.08a.24.24,0,0,1,.19-.23l3.43-.75h7.58a.24.24,0,0,1,.24.24v.82A.24.24,0,0,1,22.19,44.06Zm-7.53-1.15h0l-3.43.75a.09.09,0,0,0-.07.09v.08a.09.09,0,0,0,.09.09h11a.09.09,0,0,0,.09-.09V43a.09.09,0,0,0-.09-.09Z"/><path class="cls-24" d="M22.19,42.76c-8,0-7.53,0-7.58,0l-3.43.75a.24.24,0,0,0-.19.23v.08a.24.24,0,0,0,.24.24h11a.24.24,0,0,0,.24-.24V43A.24.24,0,0,0,22.19,42.76Zm-.15.59.23-.37s0,0,0,.78C22.08,43.46,22,43.42,22,43.35Zm-7.26,0a.07.07,0,0,1,0,.08l-.25.4c-.26-.39-.34-.42-.3-.49l.25-.4Zm.06.27a.07.07,0,0,1,.12,0l.21.3h-.52Zm5.93.22-.29-.41a.07.07,0,0,1,0-.08l.25-.4c.26.39.34.42.3.49Zm.11-.93h.47l-.16.26a.07.07,0,0,1-.12,0Zm-.47.26a.07.07,0,0,1-.12,0l-.19-.26h.47Zm-.42.67-.29-.41a.07.07,0,0,1,0-.08l.25-.4.29.41a.07.07,0,0,1,0,.08Zm-.36-.67a.07.07,0,0,1-.12,0l-.19-.26h.47Zm-.42.67c-.26-.39-.34-.42-.3-.49l.25-.4c.26.39.34.42.3.49Zm-.36-.67a.07.07,0,0,1-.12,0l-.19-.26H19Zm-.42.67-.29-.41a.07.07,0,0,1,0-.08l.25-.4c.26.39.34.42.3.49Zm-.36-.67a.07.07,0,0,1-.12,0l-.19-.26h.47Zm-.42.67-.29-.41a.07.07,0,0,1,0-.08l.25-.4.29.41a.07.07,0,0,1,0,.08Zm-.36-.67a.07.07,0,0,1-.12,0L17,42.91h.47Zm-.42.67-.29-.41a.07.07,0,0,1,0-.08l.25-.4.29.41a.07.07,0,0,1,0,.08Zm-.36-.67a.07.07,0,0,1-.12,0l-.19-.26h.47Zm-.42.67c-.26-.39-.34-.42-.3-.49l.25-.4.29.41a.07.07,0,0,1,0,.08Zm-.36-.67a.07.07,0,0,1-.12,0l-.19-.26h.47Zm-.47-.22.29.41a.07.07,0,0,1,0,.08l-.25.4L15,43.43a.07.07,0,0,1,0-.08Zm.36.67a.07.07,0,0,1,.12,0l.21.3h-.52Zm.78,0a.07.07,0,0,1,.12,0l.21.3h-.52Zm.78,0a.07.07,0,0,1,.12,0l.21.3H17Zm.78,0a.07.07,0,0,1,.12,0l.21.3h-.52Zm.78,0a.07.07,0,0,1,.12,0l.21.3h-.52Zm.78,0a.07.07,0,0,1,.12,0l.21.3h-.52Zm.78,0a.07.07,0,0,1,.12,0l.21.3h-.52Zm.78,0a.07.07,0,0,1,.12,0l.21.3H20.9Zm.47.22-.29-.41c-.05-.07,0-.11.25-.49l.29.41C21.86,43.43,21.77,43.46,21.55,43.84Zm.11-.93h.47l-.16.26a.07.07,0,0,1-.12,0Zm-6.55,0-.16.26a.07.07,0,0,1-.12,0l-.19-.26Zm-.83.08-.11.18a.07.07,0,0,1-.12,0L14,43.06Zm-.47.1.19.26a.07.07,0,0,1,0,.08l-.25.4c-.26-.39-.34-.42-.29-.49l.13-.21Zm-.44.09h0Zm-.24.05.08.12a.07.07,0,0,1,0,.08l-.25.4-.29-.41a.08.08,0,0,1,0-.09Zm-.68.15s0,0-.26.45l-.25-.34Zm-1.31.44s0-.14.07-.17l.36-.08c-.2.32-.2.31-.2.33h-.14A.09.09,0,0,1,11.14,43.82Zm.4.09.18-.29a.07.07,0,0,1,.12,0l.21.3Zm.78,0,.18-.29a.07.07,0,0,1,.12,0l.21.3Zm.78,0,.18-.29a.07.07,0,0,1,.12,0l.21.3Zm.78,0,.18-.29a.07.07,0,0,1,.12,0l.21.3Zm7.81,0,.18-.29a.07.07,0,0,1,.12,0l.21.29h-.52Z"/><rect class="cls-24" x="11.78" y="44.01" width="0.33" height="2.75" rx="0.15" ry="0.15"/><rect class="cls-24" x="11.35" y="44.31" width="2.23" height="0.58" rx="0.26" ry="0.26"/><rect class="cls-24" x="11.35" y="44.98" width="2.23" height="0.58" rx="0.26" ry="0.26"/><rect class="cls-24" x="11.35" y="45.62" width="2.23" height="0.58" rx="0.26" ry="0.26"/><path class="cls-24" d="M11.29,43.63a.07.07,0,0,1,0-.13l4-3.55,6.24,2.79a.07.07,0,1,1-.06.14l-6.15-2.75-3.94,3.48Z"/><rect class="cls-24" x="15.2" y="39.67" width="0.14" height="0.46" rx="0.06" ry="0.06"/><path class="cls-15" d="M40.82,50.32h.08V50.2a.24.24,0,0,1,.48,0v.12h.08V50.2a.32.32,0,1,0-.63,0Z"/><path class="cls-15" d="M40.9,49.45V47.61a.26.26,0,1,1,.51,0v1.83a.26.26,0,1,1-.51,0ZM41,47.61v1.83a.18.18,0,1,0,.36,0V47.61a.18.18,0,1,0-.36,0Z"/><path class="cls-15" d="M40.91,49.49v-.65a.16.16,0,0,1,.16-.16h.16a.16.16,0,0,1,.16.16v.65a.16.16,0,0,1-.16.16h-.16A.16.16,0,0,1,40.91,49.49Z"/><rect class="cls-15" x="41.06" y="49.38" width="0.16" height="0.66" transform="translate(82.29 99.41) rotate(180)"/><rect class="cls-15" x="40.9" y="45.74" width="0.83" height="2.12" rx="0.37" ry="0.37" transform="translate(82.63 93.59) rotate(180)"/><path class="cls-15" d="M45.08,50.32h.08V50.2a.24.24,0,0,1,.48,0v.12h.08V50.2a.32.32,0,1,0-.63,0Z"/><path class="cls-15" d="M45.15,49.45V47.61a.26.26,0,1,1,.51,0v1.83a.26.26,0,1,1-.51,0Zm.07-1.83v1.83a.18.18,0,1,0,.36,0V47.61a.18.18,0,1,0-.36,0Z"/><path class="cls-15" d="M45.17,49.49v-.65a.16.16,0,0,1,.16-.16h.16a.16.16,0,0,1,.16.16v.65a.16.16,0,0,1-.16.16h-.16A.16.16,0,0,1,45.17,49.49Z"/><rect class="cls-15" x="45.32" y="49.38" width="0.16" height="0.66" transform="translate(90.79 99.41) rotate(180)"/><rect class="cls-15" x="45.16" y="45.74" width="0.83" height="2.12" rx="0.37" ry="0.37" transform="translate(91.14 93.59) rotate(-180)"/><path class="cls-15" d="M47.63,44.66V68.26h1.52V44.66Zm.23,23.4V44.86h1.06v23.2Z"/><path class="cls-15" d="M48.33,47l-.55.66h0v.14h1.32v-.14H49L48.47,47l.58-.7h0v-.14H47.72v.14h0Zm.07-.09-.5-.61h1Zm0,.17.47.57h-.94Z"/><path class="cls-15" d="M48.33,48.49l-.55.64h0v.13h1.32v-.13H49l-.54-.64.58-.68h0v-.13H47.72v.13h0Zm.07-.08-.5-.59h1Zm0,.17.47.56h-.94Z"/><path class="cls-15" d="M48.33,50l-.55.64h0v.13h1.32v-.13H49L48.47,50l.58-.68h0v-.13H47.72v.13h0Zm.07-.08-.5-.59h1Zm0,.17.47.56h-.94Z"/><path class="cls-15" d="M48.33,51.41l-.55.64h0v.13h1.32V52H49l-.54-.64.58-.68h0V50.6H47.72v.13h0Zm.07-.08-.5-.59h1Zm0,.17.47.56h-.94Z"/><path class="cls-15" d="M48.33,52.86l-.55.64h0v.13h1.32v-.13H49l-.54-.64.58-.68h0v-.13H47.72v.13h0Zm.07-.08-.5-.59h1Zm0,.17.47.56h-.94Z"/><path class="cls-15" d="M48.33,54.32l-.55.64h0v.13h1.32V55H49l-.54-.64.58-.68h0v-.13H47.72v.13h0Zm.07-.08-.5-.59h1Zm0,.17.47.56h-.94Z"/><path class="cls-15" d="M48.33,55.78l-.55.64h0v.13h1.32v-.13H49l-.54-.64L49,55.1h0V55H47.72v.13h0Zm.07-.08-.5-.59h1Zm0,.17.47.56h-.94Z"/><path class="cls-15" d="M48.33,57.23l-.55.64h0V58h1.32v-.13H49l-.54-.64.58-.68h0v-.13H47.72v.13h0Zm.07-.08-.5-.59h1Zm0,.17.47.56h-.94Z"/><path class="cls-15" d="M48.33,58.69l-.55.64h0v.13h1.32v-.13H49l-.54-.64L49,58h0v-.13H47.72V58h0Zm.07-.08L47.9,58h1Zm0,.17.47.56h-.94Z"/><path class="cls-15" d="M48.33,60.15l-.55.64h0v.13h1.32v-.13H49l-.54-.64.58-.68h0v-.13H47.72v.08h0v0h0Zm.07-.08-.5-.59h1Zm0,.17.47.56h-.94Z"/><path class="cls-15" d="M48.33,61.6l-.55.64h0v.13h1.32v-.13H49l-.54-.64.58-.68h0V60.8H47.72v.08h0v0h0Zm.07-.08-.5-.59h1Zm0,.17.47.56h-.94Z"/><path class="cls-15" d="M48.33,63.06l-.55.64h0v.13h1.32V63.7H49l-.54-.64.58-.68h0v-.13H47.72v.08h0v0h0ZM48.4,63l-.5-.59h1Zm0,.17.47.56h-.94Z"/><path class="cls-15" d="M48.33,64.52l-.55.64h0v.13h1.32v-.13H49l-.54-.64.58-.68h0v-.13H47.72v.08h0v0h0Zm.07-.08-.5-.59h1Zm0,.17.47.56h-.94Z"/><path class="cls-15" d="M48.33,66l-.55.64h0v.13h1.32v-.13H49L48.47,66,49,65.3h0v-.13H47.72v.08h0v0h0Zm.07-.08-.5-.59h1Zm0,.17.47.56h-.94Z"/><path class="cls-15" d="M48.33,67.43l-.55.64h0v.13h1.32v-.13H49l-.54-.64.58-.68h0v-.13H47.72v.08h0v0h0Zm.07-.08-.5-.59h1Zm0,.17.47.56h-.94Z"/><path class="cls-15" d="M48.9,41.3h-.39a.11.11,0,0,0-.11.11v3.22a.11.11,0,0,0,.11.11h.39a.11.11,0,0,0,.11-.11V41.41A.11.11,0,0,0,48.9,41.3Zm-.28.11h.17a.11.11,0,0,1,.11.11v.89a.11.11,0,0,1-.11.11h-.17a.11.11,0,0,1-.11-.11v-.89A.11.11,0,0,1,48.62,41.41Zm0,1.24h.17a.11.11,0,0,1,.11.11v.53a.11.11,0,0,1-.11.11h-.17a.11.11,0,0,1-.11-.11v-.53A.11.11,0,0,1,48.62,42.65Zm.17,2h-.17a.11.11,0,0,1-.11-.11v-.89a.11.11,0,0,1,.11-.11h.17a.11.11,0,0,1,.11.11v.89A.11.11,0,0,1,48.79,44.64Z"/><path class="cls-15" d="M40,45.92v-1a.29.29,0,0,1,.29-.29h9.26l4.19.91a.29.29,0,0,1,.23.28v.1a.29.29,0,0,1-.29.29H40.25A.29.29,0,0,1,40,45.92Zm.29-1.12a.11.11,0,0,0-.11.11v1a.11.11,0,0,0,.11.11H53.64a.11.11,0,0,0,.11-.11v-.1a.11.11,0,0,0-.09-.11l-4.19-.91H40.25Z"/><path class="cls-15" d="M40,44.91v1a.29.29,0,0,0,.29.29H53.64a.29.29,0,0,0,.29-.29v-.1a.29.29,0,0,0-.23-.28l-4.19-.91c-.06,0,.53,0-9.26,0A.29.29,0,0,0,40,44.91Zm.18.92c0-1,0-.93,0-.95l.28.45C40.49,45.43,40.38,45.48,40.14,45.84Zm9.51-1,.31.49c.06.09,0,.13-.36.6l-.31-.49a.09.09,0,0,1,0-.1ZM49.45,46h-.63l.26-.36a.09.09,0,0,1,.15,0Zm-7.77-.58c-.06-.09,0-.13.36-.6l.31.49a.09.09,0,0,1,0,.1l-.36.5Zm-.06-.33a.09.09,0,0,1-.15,0l-.2-.31h.58Zm.6-.32h.58l-.23.32a.09.09,0,0,1-.15,0Zm.41.65a.09.09,0,0,1,0-.1l.36-.5.31.49a.09.09,0,0,1,0,.1l-.36.5Zm.55-.65h.58l-.23.32a.09.09,0,0,1-.15,0Zm.41.65c-.06-.09,0-.13.36-.6l.31.49c.06.09,0,.13-.36.6Zm.55-.65h.58l-.23.32a.09.09,0,0,1-.15,0Zm.41.65c-.06-.09,0-.13.36-.6l.31.49a.09.09,0,0,1,0,.1l-.36.5Zm.55-.65h.58l-.23.32a.09.09,0,0,1-.15,0Zm.41.65a.09.09,0,0,1,0-.1l.36-.5.31.49a.09.09,0,0,1,0,.1l-.36.5Zm.55-.65h.58l-.23.32a.09.09,0,0,1-.15,0Zm.41.65a.09.09,0,0,1,0-.1l.36-.5.31.49a.09.09,0,0,1,0,.1l-.36.5Zm.55-.65h.58l-.23.32a.09.09,0,0,1-.15,0Zm.41.65a.09.09,0,0,1,0-.1l.36-.5.31.49c.06.09,0,.13-.36.6Zm.55-.65h.58l-.23.32a.09.09,0,0,1-.15,0Zm1.08.54a.09.09,0,0,1,0,.1l-.36.5-.31-.49a.09.09,0,0,1,0-.1l.36-.5Zm-.52.69h-.63l.26-.36a.09.09,0,0,1,.15,0Zm-1,0h-.63l.26-.36a.09.09,0,0,1,.15,0Zm-1,0H46l.26-.36a.09.09,0,0,1,.15,0Zm-1,0H45l.26-.36a.09.09,0,0,1,.15,0Zm-1,0H44l.26-.36a.09.09,0,0,1,.15,0Zm-1,0h-.63l.26-.36a.09.09,0,0,1,.15,0Zm-1,0h-.63l.26-.36a.09.09,0,0,1,.15,0Zm-1,0h-.63l.26-.36a.09.09,0,0,1,.15,0Zm-1.1-.68.36-.5c.27.46.37.51.31.59l-.36.5C40.76,45.48,40.66,45.44,40.72,45.35Zm-.06-.23a.09.09,0,0,1-.15,0l-.2-.31h.58Zm8.81-.32-.23.32a.09.09,0,0,1-.15,0l-.2-.31Zm.82.18-.1.14a.09.09,0,0,1-.15,0l-.14-.22Zm.47.1.16.25c.06.09,0,.13-.36.6l-.31-.49a.09.09,0,0,1,0-.1l.23-.32Zm.33.07a.09.09,0,0,1-.07,0Zm.77.17a.1.1,0,0,1,0,.12l-.36.5-.31-.49a.09.09,0,0,1,0-.1l.1-.14Zm.9.2-.3.42c-.31-.5-.33-.49-.32-.55Zm.87.51h-.17s0,0-.25-.41l.45.1c.12,0,.08.17.09.2A.11.11,0,0,1,53.64,46Zm-1,0,.26-.36a.09.09,0,0,1,.15,0l.22.36Zm-1,0,.26-.36a.09.09,0,0,1,.15,0l.22.36Zm-1,0,.26-.36a.09.09,0,0,1,.15,0l.22.36Zm-1,0,.26-.36a.09.09,0,0,1,.15,0l.22.36Zm-9.51,0h0l.26-.36a.09.09,0,0,1,.15,0l.22.36Z"/><rect class="cls-15" x="52.56" y="46.15" width="0.41" height="3.36" rx="0.18" ry="0.18" transform="translate(105.52 95.66) rotate(-180)"/><rect class="cls-15" x="50.77" y="46.51" width="2.72" height="0.71" rx="0.32" ry="0.32" transform="translate(104.25 93.74) rotate(-180)"/><rect class="cls-15" x="50.77" y="47.33" width="2.72" height="0.71" rx="0.32" ry="0.32" transform="translate(104.25 95.37) rotate(-180)"/><rect class="cls-15" x="50.77" y="48.12" width="2.72" height="0.71" rx="0.32" ry="0.32" transform="translate(104.25 96.95) rotate(180)"/><rect class="cls-15" x="50.77" y="48.98" width="2.72" height="0.71" rx="0.32" ry="0.32" transform="translate(104.25 98.67) rotate(180)"/><path class="cls-15" d="M53.57,45.69a.09.09,0,0,0,.06-.16l-4.9-4.33L41.1,44.61a.09.09,0,1,0,.07.17l7.52-3.36,4.81,4.25Z"/><rect class="cls-15" x="48.61" y="40.85" width="0.17" height="0.56" rx="0.08" ry="0.08" transform="translate(97.4 82.27) rotate(180)"/><rect class="cls-25" x="38.83" y="50.32" width="7.45" height="1.01" rx="0.45" ry="0.45" transform="translate(85.11 101.64) rotate(180)"/><path class="cls-25" d="M34.56,60.18H36.8a.33.33,0,0,0,.19-.06l2-1.6c.4-.31.81-.62,1.23-.91s.9-.72,1.34-1.1A5.16,5.16,0,0,0,42.2,56c.38-.43.72-.89,1.09-1.33a1.28,1.28,0,0,1,.37-.28.35.35,0,0,1,.47.34c0,.11,0,.22,0,.33q0,2-.08,4,0,1.77-.06,3.53c0,.12,0,.24,0,.37H44c.17,0,.2,0,.2.21s0,.22,0,.33c0,.26,0,.26-.26.28l0,0c0,.16.15.23.26.32a.48.48,0,0,1,.14.58.5.5,0,0,1-.57.23.48.48,0,0,1-.39-.46l.15,0,0,.11a.34.34,0,0,0,.33.23.3.3,0,0,0,.3-.19.31.31,0,0,0-.12-.36L44,64.15a.53.53,0,0,1-.25-.4h-.18c-.14,0-.19-.07-.17-.22a2,2,0,0,0,0-.39c0-.13,0-.2.16-.21h.12l-.14-7.25-.1.13-5.27,7.35a.37.37,0,0,0-.07.33c.09.41.17.83.26,1.26H37.11v.34h-.62v.43H38a1,1,0,0,1,0,2H32.12a1,1,0,1,1,0-2h1.24v-.43h-.6a1.8,1.8,0,0,1,0-.24.28.28,0,0,0-.14-.29l-1.09-.82a.14.14,0,0,1-.05-.19,6.43,6.43,0,0,0,.25-.8c0-.12.07-.17.19-.18l.79,0,1-.05c0-.35,0-.68,0-1,0-.13,0-.26.12-.34s0-.08,0-.12c0-.28,0-.56,0-.83s0-.25-.24-.32v-.18a.37.37,0,0,1,.43.41c0,.32,0,.64,0,1a.47.47,0,0,0,0,.12,1.12,1.12,0,0,1,.08.26c0,.31,0,.62,0,.94l.3-.1V60.18Zm.16,3.41h1.13V60.66H34.72Zm6.92-6.94,0,0-1.5,1.23.07.15c-.15.16-.3.32-.46.48l-2.15,2.08a.16.16,0,0,0,0,.12c0,.25.1.51.16.79Zm-4,6-.4-2.05h-.63v2.05Zm6-7.17a.16.16,0,0,0,0,.09q0,1.29,0,2.58,0,2.2.09,4.39c0,.12,0,.23,0,.35h0L44,55.11h0Zm-10.73,11a.74.74,0,1,0-.73.74A.73.73,0,0,0,32.93,66.51Zm5.66,0a.74.74,0,0,0-.75-.73.74.74,0,1,0,.75.73Zm-2.84,0a.74.74,0,0,0-.75-.73.74.74,0,1,0,.75.73Z"/><circle class="cls-25" cx="32.19" cy="66.51" r="0.6" transform="translate(-0.78 0.39) rotate(-0.68)"/><path class="cls-25" d="M37.84,67.12a.6.6,0,1,0-.6-.61A.6.6,0,0,0,37.84,67.12Z"/><path class="cls-25" d="M35,67.12a.6.6,0,1,0-.6-.61A.6.6,0,0,0,35,67.12Z"/><rect class="cls-26" x="12.71" y="59.89" width="16.12" height="1.09"/><rect class="cls-26" x="12.71" y="59.89" width="0.78" height="6.07"/><rect class="cls-26" x="16.48" y="60.13" width="0.8" height="6.06"/><rect class="cls-26" x="13.1" y="62.31" width="15.52" height="0.85"/><rect class="cls-26" x="27.91" y="60.68" width="0.87" height="4.62"/><rect class="cls-26" x="24.27" y="60.52" width="0.82" height="5.43"/><rect class="cls-26" x="20.06" y="60.68" width="0.81" height="5.28"/><path class="cls-26" d="M17.39,61.34h-1a.07.07,0,0,1-.07-.07h0a.07.07,0,0,1,.07-.07h1a.07.07,0,0,1,.07.07h0A.07.07,0,0,1,17.39,61.34Z"/><rect class="cls-26" x="16.29" y="58.58" width="1.04" height="0.14" rx="0.06" ry="0.06"/><path class="cls-26" d="M17.39,62.21h-1a.07.07,0,0,1-.07-.07h0a.07.07,0,0,1,.07-.07h1a.07.07,0,0,1,.07.07h0A.07.07,0,0,1,17.39,62.21Z"/><path class="cls-26" d="M17.39,63.46h-1a.07.07,0,0,1-.07-.07h0a.07.07,0,0,1,.07-.07h1a.07.07,0,0,1,.07.07h0A.07.07,0,0,1,17.39,63.46Z"/><path class="cls-26" d="M17.39,64.75h-1a.07.07,0,0,1-.07-.07h0a.07.07,0,0,1,.07-.07h1a.07.07,0,0,1,.07.07h0A.07.07,0,0,1,17.39,64.75Z"/><rect class="cls-26" x="12.71" y="58.58" width="0.78" height="1.94"/><rect class="cls-26" x="16.48" y="58.58" width="0.73" height="1.94"/><path class="cls-26" d="M31.25,67.37a1.21,1.21,0,0,1,.41-2v-.52H12.37V67.5h19Z"/><path class="cls-27" d="M67.46,69.56H12.37V67.41H68.45A1.3,1.3,0,0,1,67.46,69.56Z"/><path class="cls-28" d="M62.12,38.83l-.9-.4s-4.68,3.75-5.39,3.95L56.4,44a11.46,11.46,0,0,0,5.15-2.14C63.46,40.15,62.12,38.83,62.12,38.83Z"/><path class="cls-29" d="M62,66.28a.77.77,0,0,1-.47.77c-.55.26-1,.53-1,.83s3.4.19,3.4,0a18.94,18.94,0,0,0-.64-1.79Z"/><path class="cls-29" d="M65.87,66.36v1.08a5.12,5.12,0,0,0,2.4.85s.93,0,.93-.21-.64-.69-1.42-1.07A1.41,1.41,0,0,1,67,65.74l-1.16.2Z"/><path class="cls-30" d="M66.33,50.45C66,48.6,60,49.2,60.07,50.68c0,0,.19,3.63.57,7.63s1.13,8.16,1.13,8.16h1.65s-.91-12.85-.47-13.3a.61.61,0,0,1,.4-.19.66.66,0,0,1,.68.58l1.74,13.06,1.51-.15S66.7,52.3,66.33,50.45Z"/><path class="cls-31" d="M66.33,50.45c-.34-1.71-5.47-1.33-6.18-.09a2.11,2.11,0,0,0,2,1c1.29,0,3.31-.18,4.16-.88Z"/><path class="cls-32" d="M65.92,48.8c-.9,1-5.44,1.76-5.88.22h0c0,.37,0,1.24.12,1.35,1,.81,4.78.41,5.73-.54C66.1,49.6,65.92,48.8,65.92,48.8Z"/><rect class="cls-33" x="61.13" y="49.6" width="2.16" height="1.21" rx="0.54" ry="0.54"/><rect class="cls-34" x="61.28" y="49.83" width="1.81" height="0.78" rx="0.35" ry="0.35"/><path class="cls-31" d="M62.61,60.8c.15,2.43.33,4.28.51,5.67h.3s-.91-12.85-.47-13.3C63,53.17,62.16,53.37,62.61,60.8Z"/><path class="cls-28" d="M61.3,38.39c-.15,0-1.85,9.33-1.4,10.79s5.51.77,6.5-.22.22-4.13.22-5.59,1.36-4.23.91-4.78a3.46,3.46,0,0,0-2.23-.86C64.59,37.72,61.45,38.39,61.3,38.39Z"/><path class="cls-35" d="M64.11,45.63a1.8,1.8,0,0,1,.66.05c.25.09,1.37.79,2.16,1.29a15.07,15.07,0,0,0-.11-1.55c-.51-.27-.92-.48-1-.48l-2-.14-1.77-5.25a.87.87,0,0,0-.8-.52,59.87,59.87,0,0,0-1.43,9.6l4.53.17a.56.56,0,0,0,.57-.72Z"/><path class="cls-36" d="M62.48,38.91a.08.08,0,0,0-.06-.11.1.1,0,0,0-.12.05,31.85,31.85,0,0,0-1.24,4.53c-.6,3.14-.43,5.36.51,6.62l.25,0c-1-1.18-1.17-3.47-.57-6.62A31.67,31.67,0,0,1,62.48,38.91Z"/><path class="cls-37" d="M63.8,67.28s0,.26.15.71a1.91,1.91,0,0,1,0,.86s-4.57-.06-4.75-.21,0-.68,0-.72.64-.17.95-.33a5.56,5.56,0,0,1,1.7-.75c.34,0,.48.31,1.13.38S63.65,67.14,63.8,67.28Z"/><path class="cls-38" d="M59.21,68.63c.18.16,4.75.21,4.75.21a1.91,1.91,0,0,0,0-.61,14.49,14.49,0,0,1-4.79-.33S59,68.47,59.21,68.63Z"/><path class="cls-39" d="M64,68.24a12.46,12.46,0,0,1-4.79-.33,16.71,16.71,0,0,0,4.34.36Z"/><path class="cls-37" d="M65.74,67.24s-.06.26-.2.7a1.91,1.91,0,0,0-.05.85s4.57.21,4.75.07.09-.67,0-.72-.63-.2-.92-.39a5.56,5.56,0,0,0-1.66-.85c-.34,0-.5.28-1.15.31S65.91,67.11,65.74,67.24Z"/><path class="cls-38" d="M70.25,68.86c-.18.14-4.75-.07-4.75-.07a1.91,1.91,0,0,1,0-.61,14.49,14.49,0,0,0,4.8,0S70.44,68.72,70.25,68.86Z"/><path class="cls-39" d="M65.49,68.19a12.46,12.46,0,0,0,4.8,0,16.71,16.71,0,0,1-4.35.1Z"/><polygon class="cls-29" points="61.94 36.37 62.28 39.06 64.38 37.86 63.24 35.88 61.94 36.37"/><path class="cls-40" d="M63.5,36.34l-.26-.46-1.3.48.18,1.49a1.52,1.52,0,0,0,.44-.19A3.14,3.14,0,0,0,63.5,36.34Z"/><path class="cls-41" d="M62.06,33s-.06,0-.44.48A5.44,5.44,0,0,0,61,34.73a3.06,3.06,0,0,0-.27,2c.1.35,1.49.44,2.06.14a2.44,2.44,0,0,0,1.05-1.95C63.84,34.19,62.31,32.9,62.06,33Z"/><path class="cls-42" d="M63,36.36c.09.18.23.23.67.24a1.32,1.32,0,0,0,1.26-1.19,6.3,6.3,0,0,0,.23-1c-.11-1.76-2.12-2-2.63-2.23a.46.46,0,0,0-.52.11.9.9,0,0,1-.76.25c-.12,0-.45,0-.53.16-.25.53-.26,1.09.69,1.09C63.54,33.82,62.81,36,63,36.36Z"/><path class="cls-43" d="M61.42,32.59h-.19a.79.79,0,0,0-.4,0,13.33,13.33,0,0,0,2.09,1.17,13.55,13.55,0,0,0,2.21.88.8.8,0,0,0,0-.21v0a14.79,14.79,0,0,0-2-1.11C62.47,33,61.87,32.74,61.42,32.59Z"/><path class="cls-41" d="M62.72,35.17s0-.6.36-.5.44.75.15.88S62.72,35.17,62.72,35.17Z"/><path class="cls-44" d="M55.16,39.31s.14-.12-.22-.26a1.76,1.76,0,0,0-.72-.1c-.27,0-.68,0-.79.18s.8,4.12.8,4.12h2Z"/><path class="cls-45" d="M54.41,39.11s-.57,0-.64.29a8.1,8.1,0,0,0,.95,1Z"/><path class="cls-36" d="M53.77,39.4a2.48,2.48,0,0,0,1.42-.17l1.88,8.54h-.38Z"/><path class="cls-46" d="M61.68,39.4a.54.54,0,0,0-.61-.38,39.9,39.9,0,0,1-5.9.73c-1.51-.1-1.74-.63-1.74-.63s-.22.3.58,3.63c.6,2.51,1.15,4.29,1.39,5a.54.54,0,0,0,.49.37l7.75.3a.54.54,0,0,0,.54-.69Z"/><path class="cls-5" d="M64.17,47.74,61.68,39.4a.54.54,0,0,0-.61-.38,39.9,39.9,0,0,1-5.9.73c-1.51-.1-1.74-.63-1.74-.63s-.15.21.25,2.17a41.22,41.22,0,0,0,5.85-.73.54.54,0,0,1,.61.38l2.22,7.44,1.28,0A.54.54,0,0,0,64.17,47.74Z"/><path class="cls-28" d="M70,43.73c-.09-.27,0-.24,0-.56s-.48-.49-.55-.71a13.68,13.68,0,0,0-1.91-3.89c-.23-.23-.94,3.68-.94,3.68a13,13,0,0,1,1.1,2.46,10.48,10.48,0,0,1,2.59.22,3.56,3.56,0,0,0,.19-.78C70.47,43.91,70.08,44,70,43.73Z"/><path class="cls-47" d="M67.29,44.22s.08.63.39.68,2.59,1.6,2.93,1.64.12-2,.07-2.26S70.3,44,69.55,44,67.29,43.31,67.29,44.22Z"/><path class="cls-29" d="M70.82,47a2.17,2.17,0,0,0-1.56-2.39c-1.31-.38-3.1-.68-3.55-.81s-1.82-.41-2.27-.57-1,.17-1.39.1-.21.29.12.29.71-.11.71,0-.58.15-1,.06-.42-.09-.42,0,.62.43,1.44.32c0,0,.19,0,.13.1s-1-.11-1.26,0-.1.32.52.37.75,0,.79.11-.92-.08-1,.07,1.27.45,1.52.41.76,0,1.22,0a1.09,1.09,0,0,1,.54.15c1,.61,5,2.88,5.36,2A1.15,1.15,0,0,0,70.82,47Z"/><path class="cls-48" d="M61.52,32.59a2,2,0,0,1,3.68,1.75l-.06.11L61.47,32.7Z"/><path class="cls-49" d="M62.28,33l.05-.12a2,2,0,0,1,2.19-1.11,2.07,2.07,0,0,0-.3-.18,2,2,0,0,0-2.71.95l-.05.12,3.67,1.75,0,0Z"/><ellipse class="cls-50" cx="62.93" cy="33.4" rx="0.16" ry="2.45" transform="translate(5.71 75.84) rotate(-64.52)"/><path class="cls-29" d="M55.53,45.42c-.07-.14-.61.61-.65.58s.73-.73.58-.86-.72.51-.75.46.75-.56.51-.7c-.09-.05-.54.36-.61.35a1.89,1.89,0,0,1,.22-.47c.08-.13-.09-.16-.12-.14a1,1,0,0,0-.28.55A1.34,1.34,0,0,0,55,46.35S55.6,45.56,55.53,45.42Z"/><polygon class="cls-2" points="25.87 37.28 26.09 36.79 27.26 36.79 27.26 37.44 25.87 37.28"/><path class="cls-51" d="M40.12,41.65l0,0c.09-.09,0-.29-.18-.42a3.63,3.63,0,0,0-1.14-.08,3.15,3.15,0,0,0,.43-.83c0-.27,0-.62-.33-.53s0,.25-.26.58-.39.29-.6.5-.11.28-.3.69-1.36.78-1.36.78l-1.18.56s.57,1.81.87,1.66S38,43.37,38,43.37a4.71,4.71,0,0,0,1.81-.1C40,43.15,40,43,40,43a.22.22,0,0,1,0-.24.24.24,0,0,0,0-.29.23.23,0,0,1,0-.22.25.25,0,0,0,0-.28A.22.22,0,0,1,40.12,41.65Z"/><path class="cls-28" d="M32,37.87a2.82,2.82,0,0,1,.81,1.68c.1,1,.22,3.89.6,3.89s3.09-2.15,3.25-1.22.4,1.35.48,1.89-2.69,2.08-4.56,2.18S32,37.87,32,37.87Z"/><path class="cls-36" d="M37,43.45c-1.15.94-4.16,2.11-4.68,2s-.3-7.55-.3-7.55h0c-.25,1.65-1.09,8.5.59,8.42,1.87-.1,4.66-1.5,4.55-2.18A4.79,4.79,0,0,0,37,43.45Z"/><path class="cls-28" d="M23.2,40.43c1.36-3.59,3.14-3.54,3.14-3.54h3.2a12.5,12.5,0,0,1,2.45,1c.33.33.73,11.81.73,12.3S26,51,26,50.71c-.15-1.45-.56-4.71-.62-6.84a3.17,3.17,0,0,0-.68,2A32,32,0,0,0,25.76,50L24.28,51a29,29,0,0,1-2-3.41C21.89,46.46,21.84,44,23.2,40.43Z"/><path class="cls-36" d="M32,42.32a1.63,1.63,0,0,0-1.65-1.44l-2.13,0a13.37,13.37,0,0,0-1.22-4h-.63a1.36,1.36,0,0,0-.45.1,5.1,5.1,0,0,1,.77,1.71,3.55,3.55,0,0,1-.49,3,1.62,1.62,0,0,0-.27.91l0,7.09,0,.21c0,.32.07.6.09.84s4,0,5.84-.26v0a1.89,1.89,0,0,0,.36-.31C32.56,49.68,32.25,44.7,32,42.32Z"/><path class="cls-36" d="M31,37.44c-.49-.21-1.1-.42-1.51-.56h0c.32.22,1.27,1.25,1.66,5.09a.49.49,0,0,0,.48.45h0a.49.49,0,0,0,.48-.55A14.61,14.61,0,0,0,31,37.44Z"/><path class="cls-29" d="M30.64,67a.77.77,0,0,0,.47.77c.55.26,1,.53,1,.83s-3.4.19-3.4,0a18.94,18.94,0,0,1,.64-1.79Z"/><path class="cls-29" d="M26.73,67v1.08a5.12,5.12,0,0,1-2.4.85s-.93,0-.93-.21.64-.69,1.42-1.07a1.41,1.41,0,0,0,.74-1.26l1.16.2Z"/><path class="cls-52" d="M25.79,51.14c.37-1.85,6.83-1.25,6.74.23,0,0-.19,3.63-.57,7.63s-.55,8.19-.55,8.19l-2.23,0s.91-12.85.47-13.3a.61.61,0,0,0-.4-.19.66.66,0,0,0-.68.58L26.83,67.3l-2.38-.24S25.42,53,25.79,51.14Z"/><path class="cls-32" d="M26.69,49.48c.9,1,5.44,1.76,5.88.22h0c0,.37,0,1.24-.12,1.35-1,.81-4.59.89-5.91-.69A4.42,4.42,0,0,1,26.69,49.48Z"/><path class="cls-31" d="M30,61.49c-.15,2.43-.32,4.29-.5,5.67h-.31s.91-12.85.47-13.3C29.64,53.86,30.44,54.06,30,61.49Z"/><path class="cls-37" d="M28.8,68s0,.26-.15.71a1.91,1.91,0,0,0,0,.86s4.57-.06,4.75-.21,0-.68,0-.72-.64-.17-.95-.33a5.56,5.56,0,0,0-1.7-.75c-.34,0-.48.31-1.13.38S29,67.83,28.8,68Z"/><path class="cls-38" d="M33.4,69.31c-.18.16-4.75.21-4.75.21a1.91,1.91,0,0,1,0-.61,14.49,14.49,0,0,0,4.79-.33S33.57,69.16,33.4,69.31Z"/><path class="cls-39" d="M28.61,68.92a12.46,12.46,0,0,0,4.79-.33,16.71,16.71,0,0,1-4.34.36Z"/><path class="cls-37" d="M26.86,67.93s.06.26.2.7a1.91,1.91,0,0,1,.05.85s-4.57.21-4.75.07-.09-.67,0-.72.63-.2.92-.39a5.56,5.56,0,0,1,1.66-.85c.34,0,.5.28,1.15.31S26.7,67.8,26.86,67.93Z"/><path class="cls-38" d="M22.35,69.55c.18.14,4.75-.07,4.75-.07a1.91,1.91,0,0,0,0-.61,14.49,14.49,0,0,1-4.8,0S22.17,69.4,22.35,69.55Z"/><path class="cls-39" d="M27.11,68.87a12.46,12.46,0,0,1-4.8,0,16.71,16.71,0,0,0,4.35.1Z"/><path class="cls-52" d="M32.93,50a4.06,4.06,0,0,1-3.27.85,7.11,7.11,0,0,1-3-1.26l0-7.15a1.63,1.63,0,0,1,1.59-1.63l2.84-.06a1.63,1.63,0,0,1,1.65,1.44C33,44.54,33.33,49.52,32.93,50Z"/><circle class="cls-53" cx="17.7" cy="51.93" r="0.13"/><path class="cls-31" d="M27.31,41.1c0,.31.09.68.11.89a.69.69,0,0,0,.71.57.66.66,0,0,0,.71-.71c0-.33-.1-.75-.16-1.08h-.43A1.62,1.62,0,0,0,27.31,41.1Z"/><path class="cls-31" d="M31.15,41.81a.57.57,0,0,0,.61.39h0c.36,0,.65-.23.61-.48s-.09-.55-.15-.81a2.79,2.79,0,0,0-1.07-.19h-.19C31,41,31.09,41.41,31.15,41.81Z"/><path class="cls-54" d="M30,37c.23.12,1,.92,1.4,4.62a.44.44,0,0,0,.43.4h0a.45.45,0,0,0,.43-.5,13.43,13.43,0,0,0-1-4A12.14,12.14,0,0,0,30,37Z"/><path class="cls-51" d="M28.06,33.8s0,2.48,0,3.11.91,1.37,1.38,1.22a2.88,2.88,0,0,0,1-.69V35.09Z"/><path class="cls-40" d="M30.37,36.07v-1l-1.13-.63-.06,0L29,34.35l-1-.55v.07h0a3.32,3.32,0,0,0,.53,1.49A2.09,2.09,0,0,0,30.37,36.07Z"/><path class="cls-29" d="M28.6,30.81a5.58,5.58,0,0,0-.53,2.39c.11,1,1.83,2.41,2.59,2s.51-1.61.51-1.88.29-1.53,0-2S29.08,30.38,28.6,30.81Z"/><path class="cls-2" d="M30.6,30.12a2.62,2.62,0,0,0-2.66.32c-1,1.16.07,3.15.07,3.15A3.21,3.21,0,0,0,28.58,35a2,2,0,0,0,2.2.5c.62-.39.43-1.62.43-1.62s-.09.29-.34.29-.3-.16-.41-.18a1.42,1.42,0,0,0-.94.18.44.44,0,0,1-.35,0,.85.85,0,0,1-.49-.86l.1-.87a2.64,2.64,0,0,0,.83-.67c.2.64,1.69.5,1.92.19A1.37,1.37,0,0,0,30.6,30.12Z"/><path class="cls-48" d="M31.2,30.44a2.08,2.08,0,0,0-3.89,1.5l.05.12,3.88-1.5Z"/><path class="cls-49" d="M30.39,30.85l0-.12a2.06,2.06,0,0,0-2.15-1.31,2.11,2.11,0,0,1,.32-.16,2.07,2.07,0,0,1,2.68,1.18l0,.12-3.88,1.5S30.39,30.85,30.39,30.85Z"/><ellipse class="cls-50" cx="29.7" cy="31.16" rx="2.51" ry="0.17" transform="translate(-9.25 12.83) rotate(-21.17)"/><path class="cls-29" d="M28.44,32.46s-.19-.33-.42-.23-.07,1.15.21,1.15S28.44,32.46,28.44,32.46Z"/><path class="cls-54" d="M28.67,41.93a14.06,14.06,0,0,0-1.41-5.14H26.09c.4.37,1.17,1.76,1.51,5.26a.55.55,0,0,0,.54.51A.56.56,0,0,0,28.67,41.93Z"/><circle class="cls-53" cx="28.2" cy="41.9" r="0.13"/><circle class="cls-53" cx="31.93" cy="41.59" r="0.13"/><path class="cls-44" d="M31.84,49l-3.16.68a.31.31,0,0,0-.19.5l1.67,2.06a.35.35,0,0,0,.58,0l1.49-2.74A.33.33,0,0,0,31.84,49Z"/><path class="cls-44" d="M25.94,53.22a.19.19,0,0,1-.13-.34l1.64-1.52a.68.68,0,0,1,.61-.17l.57.12a.46.46,0,0,0,.43-.13l.53-.54a.19.19,0,0,1,.28.27l-.53.54a.85.85,0,0,1-.79.23L28,51.57a.3.3,0,0,0-.26.07l-1.64,1.52A.19.19,0,0,1,25.94,53.22Z"/><path class="cls-45" d="M29.86,50.64c0,.1-.06.09-.59.63a.85.85,0,0,1-.79.23l-.57-.12a.3.3,0,0,0-.26.07L26,53a.19.19,0,0,1-.25,0,.19.19,0,0,0,.32.18l1.64-1.52a.3.3,0,0,1,.26-.07l.57.12a.85.85,0,0,0,.79-.23l.53-.54A.19.19,0,0,0,29.86,50.64Z"/><path class="cls-55" d="M27.81,51.61l-1.7,1.95a.5.5,0,1,1-.75-.66l.08-.07,2.07-1.55a.22.22,0,0,1,.3.33Z"/><path class="cls-56" d="M32.13,49a.35.35,0,0,0-.29-.06l-3.16.68a.32.32,0,0,0-.26.32,2.34,2.34,0,0,0,1.58.59A2.09,2.09,0,0,0,32.13,49Z"/><path class="cls-29" d="M25.69,50.07a12.51,12.51,0,0,0,.43,1.21,2.47,2.47,0,0,0,.23.5c.37.44.78.84.69,1.17s-1.13,1.33-1.59,1.15S25,52,24.83,51.71s-.21-.3-.52-.77Z"/><path class="cls-29" d="M16.7,67.67s0,0,0,.11a1.5,1.5,0,0,0,.37,1c.44.46.44,1,0,1.13a7.43,7.43,0,0,1-1.58,0,2.73,2.73,0,0,1-.08-1.61c.17-1.17.27-2.45.27-2.45l1.27-.2Z"/><path class="cls-57" d="M17,68.17a7.24,7.24,0,0,1,.58.9,1.69,1.69,0,0,1,0,1c-.76.6-2.2.06-2.2.06a8.6,8.6,0,0,1-.15-1c-.05-.54,0-1,.15-1s.2.28.59.2A2.28,2.28,0,0,1,17,68.17Z"/><path class="cls-58" d="M15.21,69.42a5.06,5.06,0,0,0,1.06.3,2.77,2.77,0,0,0,1.33-.3,1.29,1.29,0,0,1-.07.65c-.76.6-2.2.06-2.2.06S15.26,69.83,15.21,69.42Z"/><path class="cls-59" d="M15.21,69.42a2.82,2.82,0,0,0,2.39,0,3.34,3.34,0,0,1-.57.24,1.64,1.64,0,0,1-.93.06A4,4,0,0,1,15.21,69.42Z"/><path class="cls-51" d="M29.39,47.8l-.73.29c-.05-.13,1-.35,1.12-.66s-1.18.45-1.27.38,1.43-.51,1.36-.62-1.54.43-1.54.35,1.28-.36,1.17-.5a15.13,15.13,0,0,0-1.8.38c-.21,0,.54-.51.29-.58s-1.22.91-1.29.92a4.76,4.76,0,0,1-2.7-.29,3.56,3.56,0,0,1-1.47-1.68,4,4,0,0,1-.19-2,8.15,8.15,0,0,0-2.23,0c0,.93,1.07,4.63,1.54,4.93,1,.67,2.86.51,4.15.4a8,8,0,0,0,3-.77,2.17,2.17,0,0,0,.65-.41A.06.06,0,0,0,29.39,47.8Z"/><path class="cls-60" d="M21.88,40.67c.56.57,1.12,4,.91,4.84-.36.67-2,.78-2.5,1.1-1.21-.5-.38-2.72-.38-2.72l-.44-4.33A3.73,3.73,0,0,1,21.88,40.67Z"/><path class="cls-29" d="M20.36,66.9a1.32,1.32,0,0,0,.42,1.43,2.22,2.22,0,0,0,.51.31c.74.32,1.7.25,1.83.91s-4.68-.19-4.68-.19.33-1.61.36-1.88,0-1.26,0-1.26l1.86-.13Z"/><path class="cls-57" d="M18.63,68.23s-.06.26-.19.69a1.88,1.88,0,0,0-.05.84s4.51.21,4.7.07.09-.66,0-.71-.62-.2-.91-.38a5.49,5.49,0,0,0-1.64-.84c-.34,0-.5.28-1.14.31S18.79,68.1,18.63,68.23Z"/><path class="cls-58" d="M23.08,69.83c-.18.14-4.7-.07-4.7-.07a1.89,1.89,0,0,1,0-.6,14.32,14.32,0,0,0,4.74,0S23.26,69.69,23.08,69.83Z"/><path class="cls-59" d="M18.38,69.16a12.31,12.31,0,0,0,4.74,0,16.51,16.51,0,0,1-4.3.1Z"/><path class="cls-52" d="M14.89,51.26c-.77,2.83.19,15.53.19,15.53l2.32-.16s.53-12.63.91-13a.23.23,0,0,1,.32,0,.5.5,0,0,1,.19.27c.24.78,1.6,5.32,1.33,6.31s-1.64,6.92-1.64,6.92l1.95.08s2.67-4.45,2.67-7.56-.43-7.23-1.69-8.91C20.85,50,18,49.36,18,49.36S15.14,50.38,14.89,51.26Z"/><path class="cls-61" d="M17.73,52.08a.62.62,0,0,0-.55-.68c-2-.2-2-.27-2.28-.19a15.86,15.86,0,0,0-.31,3.25,1.36,1.36,0,0,0,1.14.93h0a1.36,1.36,0,0,0,1.5-1.2l.12-1.09.26,0Z"/><path class="cls-61" d="M19.08,67.1s1.34-6.22,1.64-7.38c.22-.84-.6-4.07-1.06-5.78a.75.75,0,0,0-1.18-.39h0s2,5.55,1.66,6.64-1.64,6.92-1.64,6.92l1.95.08v0Z"/><path class="cls-61" d="M15.38,50.68a1.28,1.28,0,0,0-.48.59c-.77,2.83.19,15.53.19,15.53l.57,0C15.62,66.3,14.79,54.34,15.38,50.68Z"/><path class="cls-61" d="M21.87,51.47a4.32,4.32,0,0,0-.45-.76,1.24,1.24,0,0,0-.28-.26,8.72,8.72,0,0,1-1.38.53,8.43,8.43,0,0,1-4.69,0,.81.81,0,0,0-.17.3,6.48,6.48,0,0,0-.16.94,7.24,7.24,0,0,0,5,.36C21.16,52.12,21.67,51.85,21.87,51.47Z"/><path class="cls-62" d="M15.08,67.76a5.55,5.55,0,0,0,2.36,0c.31-.13.34-1.3,0-1.37a11.09,11.09,0,0,0-2.36,0C14.74,66.44,14.76,67.65,15.08,67.76Z"/><path class="cls-62" d="M18.61,67.23a5.55,5.55,0,0,0,2.36,0c.31-.13.34-1.3,0-1.37a11.08,11.08,0,0,0-2.36,0C18.27,65.91,18.28,67.13,18.61,67.23Z"/><path class="cls-55" d="M21.68,49.74c-.08.25-.43.67-2,1.17A7,7,0,0,1,15,50.72c-.12-.11-.15,1.16,0,1.3a4,4,0,0,0,2.45.66,7.42,7.42,0,0,0,2.38-.34c.65-.2,1.63-.45,1.94-1.13A5.32,5.32,0,0,0,21.68,49.74Z"/><circle class="cls-53" cx="17.7" cy="51.93" r="0.13"/><path class="cls-63" d="M15.62,55h0a1.23,1.23,0,0,1-1.08-1.35l.22-2,2.44.27-.22,2A1.23,1.23,0,0,1,15.62,55Z"/><rect class="cls-64" x="14.52" y="52.45" width="2.57" height="0.52" transform="translate(5.88 -1.42) rotate(6.3)"/><path class="cls-65" d="M17.31,52.93l-2.92-.32.1-.94a.56.56,0,0,1,.62-.49l1.81.2a.56.56,0,0,1,.49.62Z"/><circle class="cls-53" cx="15.89" cy="52.46" r="0.13" transform="translate(-37.99 62.5) rotate(-83.7)"/><path class="cls-64" d="M15.51,53.9c-.35-.44,0-1.46.18-2.13h0l.15-.52-.73-.08a.56.56,0,0,0-.62.49l-.1.94.25,0-.11,1A1.23,1.23,0,0,0,15.83,55,1.35,1.35,0,0,0,15.51,53.9Z"/><path class="cls-48" d="M17.72,39.45s-1.93-.1-2.72.84-.66,10.15-.34,10.43a7.28,7.28,0,0,0,4.89.35c2.18-.65,2.32-1.53,2.32-1.53s-.29-5.89-.29-7.7S19.82,39,17.72,39.45Z"/><path class="cls-60" d="M16,49.42a9.65,9.65,0,0,1,.21-3.08l.44.1a17.25,17.25,0,0,0,.45-3.78c0-2.21-1.11-2.86-1.11-2.86-.22-.05-.58.16-1.13.74-.64,1.75-.51,9.92-.21,10.17a3.65,3.65,0,0,0,1.24.43A3.26,3.26,0,0,0,16,49.42Z"/><path class="cls-66" d="M17.56,39.47c-.42.39-.45.39,0,.9a4,4,0,0,0,2.08,1c.51-.24,0-1-.3-1.62C19.21,39.55,18,39.09,17.56,39.47Z"/><path class="cls-51" d="M19.43,38a22.8,22.8,0,0,1,0,2.78A3.46,3.46,0,0,1,17.56,40a50.17,50.17,0,0,1,.59-5.14Z"/><path class="cls-67" d="M19.48,39.77a1.34,1.34,0,0,1-.6-.21c-.66-.75-.17-2-.22-2.27a4.9,4.9,0,0,1-.21-1.68l1,2.4S19.47,39,19.48,39.77Z"/><path class="cls-68" d="M11.84,57.59a.29.29,0,0,0,.29-.29V55.62a.38.38,0,0,1,.38-.38h1.68a.29.29,0,0,0,0-.57H12.5a1,1,0,0,0-1,1V57.3A.29.29,0,0,0,11.84,57.59Z"/><rect class="cls-69" x="9.79" y="58.6" width="6.82" height="3.13" rx="1.39" ry="1.39" transform="translate(26.4 120.32) rotate(180)"/><rect class="cls-70" x="9.78" y="59.68" width="5.95" height="0.61"/><path class="cls-71" d="M12.08,56.42a.82.82,0,0,0-.55.21l-1.85,2a.67.67,0,0,0-.18.46v.67a.29.29,0,0,0,.29.29H16.7a.29.29,0,0,0,.29-.29v-1l0-2.35Z"/><path class="cls-72" d="M17,56.42H12.08a.82.82,0,0,0-.55.21l-1.85,2-.05.06,7.36.11,0-2.35Z"/><path class="cls-73" d="M15.18,61.73h3.74a.42.42,0,0,0,.4-.43V58.8a.44.44,0,0,0-.12-.3l-1.82-2a.38.38,0,0,0-.56,0l-1.92,2a.44.44,0,0,0-.12.31V61.3A.42.42,0,0,0,15.18,61.73Z"/><rect class="cls-74" x="16.46" y="58.24" width="1.06" height="1.06" rx="0.47" ry="0.47" transform="translate(33.98 117.54) rotate(-180)"/><rect class="cls-49" x="16.52" y="58.17" width="1.06" height="1.06" rx="0.47" ry="0.47" transform="translate(34.11 117.41) rotate(180)"/><rect class="cls-60" x="13.1" y="59.6" width="0.53" height="1.08" rx="0.24" ry="0.24" transform="translate(26.73 120.27) rotate(180)"/><rect class="cls-60" x="10.61" y="59.6" width="0.53" height="1.08" rx="0.24" ry="0.24" transform="translate(21.76 120.27) rotate(-180)"/><path class="cls-68" d="M17.05,58.91a.29.29,0,0,0,.29-.29v-3a1,1,0,0,0-1-1h-2.2a.29.29,0,1,0,0,.57h2.2a.38.38,0,0,1,.38.38v3A.29.29,0,0,0,17.05,58.91Z"/><path class="cls-51" d="M15.55,49.42c.38,1.16-1,3.68-.42,4.49A1.41,1.41,0,0,1,14.74,56c-.66.42-1.49-.17-1.42-.49l.33-1.57c.08-.39-1.46-3.54-.37-5.45.64-1.13-.31-3.08.19-4.34.45.84,2.58.31,2.46,1.24A14.07,14.07,0,0,0,15.55,49.42Z"/><path class="cls-29" d="M20.49,34.5a7.62,7.62,0,0,1,.28,1.77c0,.8,0,2.18-.58,2.18a1.41,1.41,0,0,1-1.56-1.28c-.19-1.13,0-2.37.56-2.66A1.79,1.79,0,0,1,20.49,34.5Z"/><path class="cls-75" d="M20.32,35.28a.23.23,0,0,0-.3.26c.05.29,0,.6-.23.67-.52.13-.76,0-.85.09s.24.55,0,.64-.38-.75-.59-.75-.26,1.2,0,1.48,0,.64-.39.64,0,.44-.42.58-.85.15-1-.45a1.49,1.49,0,0,1,0-.92,1.51,1.51,0,0,1-.36-1.11,4.48,4.48,0,0,1,.38-.86,8.12,8.12,0,0,0,.31-1c.07-.38,1-.76,1.64-.83s.32-.46.86-.46.61.71.61.71a7.7,7.7,0,0,1,.8-.44c.45.27.08.75.08.75a.55.55,0,0,1,.44.51c.08.48-.24.77-.72.61Z"/><path class="cls-76" d="M20.85,33.55l-.37.09-.51.29a12.61,12.61,0,0,0-1.57.55,17.61,17.61,0,0,0-1.81,1l0,.08s-.11.2-.22.43a13.33,13.33,0,0,0,2.33-.91A7.35,7.35,0,0,0,20.85,33.55Z"/><path class="cls-75" d="M19.2,36.1a7.33,7.33,0,0,0,0,1.74c.14.14.61,0,.8-.23s.7-.11.7,0,.24,1.53,0,1.69-1.53.05-1.63-.18A4.5,4.5,0,0,1,18.84,36Z"/><path class="cls-29" d="M18.69,36.13s-.26-.48-.49-.21-.11,1.39.24,1.39S18.81,36.43,18.69,36.13Z"/><path class="cls-49" d="M16.06,39.83s.66.5.65,2.71a19.08,19.08,0,0,1-.57,3.9,5.43,5.43,0,0,0-3,0,15.38,15.38,0,0,1,.28-3.69C13.75,41.11,15.12,39.45,16.06,39.83Z"/><path class="cls-48" d="M20.18,33.68a2,2,0,0,0-3.68,1.75l.06.11,3.67-1.75Z"/><path class="cls-49" d="M19.42,34.14,19.37,34a2,2,0,0,0-2.19-1.11,2.07,2.07,0,0,1,.3-.18,2,2,0,0,1,2.71.95l.05.12-3.67,1.75S19.42,34.14,19.42,34.14Z"/><ellipse class="cls-50" cx="18.77" cy="34.49" rx="2.45" ry="0.16" transform="translate(-13.01 11.43) rotate(-25.48)"/><rect class="cls-25" x="52.26" y="60.37" width="0.43" height="7.19"/><path class="cls-68" d="M52.21,56.78l-2.76,4.78a.34.34,0,0,0,.29.51h5.52a.34.34,0,0,0,.29-.51l-2.76-4.78A.34.34,0,0,0,52.21,56.78Z"/><path class="cls-48" d="M49.74,61.84a.12.12,0,0,1-.1-.18l2.76-4.78a.12.12,0,0,1,.2,0l2.76,4.78a.12.12,0,0,1-.1.18Z"/><path class="cls-68" d="M53,59.32a.27.27,0,0,1-.28-.27.25.25,0,0,1,.26-.24.26.26,0,0,1,.26.26A.25.25,0,0,1,53,59.32Z"/><path class="cls-68" d="M53.85,61.06a.41.41,0,0,0,0-.07.07.07,0,0,0-.07,0h-.09a0,0,0,0,1,0,0,.28.28,0,0,0-.47,0l-.68-.55.3-.5a.27.27,0,0,0,0-.24.76.76,0,0,0-.24-.33.26.26,0,0,0-.1-.06,3.05,3.05,0,0,0-.59,0,.12.12,0,0,0-.11.08,2.14,2.14,0,0,0-.07.31.44.44,0,0,1,0,.07s0,0,0,0l0,0-.16-.13a0,0,0,0,0-.06.07l.25.2.1.1a.23.23,0,0,0-.13.22c0,.1,0,.2,0,.29a5.08,5.08,0,0,1-.15.85.12.12,0,0,0,.08.1.18.18,0,0,0,.16,0,1.83,1.83,0,0,0,.18-.55,2.85,2.85,0,0,0,0-.54l.3.36s-.24.56-.25.63a.12.12,0,0,0,.21.11,4.9,4.9,0,0,0,.34-.61c0-.08,0-.24,0-.29l.61.49a.33.33,0,0,0-.11.1.15.15,0,0,1-.08.05c-.05,0-.07,0-.09.08s-.07,0-.18.1a.22.22,0,0,0-.11.12c.21,0,1.61,0,1.69,0C54.14,61.2,53.89,61.26,53.85,61.06ZM52.4,59.94s-.11.2-.12.23l-.14-.12Zm-.45-.46h.17l-.22.21Z"/><path class="cls-77" d="M21.66,50.4h-.57v-.47h1A.47.47,0,0,1,21.66,50.4Z"/><path class="cls-77" d="M22.45,49.42H20.62v-.88h.94a.88.88,0,0,1,.88.88Z"/><rect class="cls-78" x="21.09" y="49.93" width="0.4" height="0.47"/><rect class="cls-78" x="20.62" y="48.54" width="0.86" height="0.88"/><path class="cls-77" d="M20.94,53.4h0a.35.35,0,0,1-.35-.35V48.54h.7V53A.35.35,0,0,1,20.94,53.4Z"/><polygon class="cls-55" points="21.35 51.24 20.39 51.63 20.39 51.27 21.37 50.84 21.35 51.24"/><path class="cls-53" d="M18.11,52.77a.17.17,0,0,1-.17-.17.18.18,0,0,1,.15-.2l1-.1a.41.41,0,0,0,.29-.17.49.49,0,0,0,.1-.34v0a.48.48,0,0,0-.15-.32.4.4,0,0,0-.31-.11l-1,.1a.17.17,0,0,1-.18-.17.18.18,0,0,1,.15-.2l1-.1a.71.71,0,0,1,.56.19.86.86,0,0,1,.27.57v0a.88.88,0,0,1-.17.61.74.74,0,0,1-.52.3l-1,.1Z"/><path class="cls-79" d="M19,51.81s-.05,0-.05-.08a.1.1,0,0,1,.07-.1l.82-.13s.07,0,.07.08a.1.1,0,0,1-.07.1l-.82.13Z"/><g id="Layer_2-2" data-name="Layer 2-2"><g id="Layer_16" data-name="Layer 16"><path class="cls-80" d="M75.61,27.06l-.41-.23-.56-.33-.6-.35H74l-.38-.22-.4-.23-.7-.41L66.81,22l-1.34-.76-.56-.33-.35-.2-.38-.23h0l-.33-.2L63.53,20l-4.25-2.37L44.1,8.89l-.41-.24-.41.21L30,16.57,26,18.83l-1,.59-.41.24h-.08l-.2.12L24,20l-.23.13-.21.13-.14.08L22.28,21h0l-1.39.8h0l-.45.27-.59.34h0L17.23,24h0l-1.87,1-.78.45-2.3,1.39L9,28.69l-1.2.7V70.87h.05l1.34.78.59.34.12.07,3.37,2,.54.3,3.09,1.79.36.2,1,.6,2.64,1.52,4.2,2.42.54.31h0l.12.07.09.05.14.08h0l1.49.87.69.39,1,.61.7.4.14.08.24.14.15.09.37.22,2.79,1.6h.07L34,86l.48.28.56.33h0l.41.23,1.18.68L39.15,89l3.5,2,.81.46.18.1h0l.15-.09.11-.07h0l.24-.14,1.41-.8h.07l.54-.31.39-.23.19-.11,3-1.73,2-1.09.58-.34.52-.3.52-.3.34-.2,1.82-1,.3-.17h0l.18-.11.16-.09.49-.28.63-.36,1-.57.36-.21h0l.36-.21h0l.2-.11.41-.24.29-.16.27-.16.43-.24.16-.1.25-.14.34-.19h0l.1-.07.19-.1,3-1.7.3-.17.87-.51,2.32-1.34,1.22-.7L76,73h0l2.07-1.19.7-.41.8-.46V29.38Zm2.58,43-.41.23-.25.14-.45.27-5.93,3.42-3.65,2.1-2.44,1.41-1,.58-.56.32-2.29,1.32h-.05l-.13.07-.14.09-.44.25-.7.4-.17.1h0l-.63.37h-.07L55.8,83h-.07l-.62.35H55l-.71.41-1.68,1-1.2.7-1.31.76-.86.49L47,88l-1,.55h0l-.59.34-.22.12L43.68,90,41,88.4l-1-.55-.48-.27-1.41-.82-.56-.32L37,86.13l-4.11-2.37-.6-.35h0l-1.4-.8-1.61-1-.7-.41L28.13,81l-.2-.12-.34-.2-.16-.09-1.37-.79-.24-.14-.15-.09-1.17-.68L21.83,77.3l-3-1.74-1.37-.79-2.67-1.54L10.91,71l-.7-.4-.3-.18-.18-.1L9.21,70V30.23l3.07-1.76,2.33-1.34.73-.42h0l2.5-1.44h0l1.06-.62h0l1.4-.8,1-.56.34-.2h0l.59-.34.36-.21h0l2.33-1.34h0l.61-.35.27-.16L26,20.6l.23-.13.13-.08.21-.12h0l6.27-3.62,10.46-6,.37-.21.41.24,13.24,7.47,5.45,3.15h0l.25.14h.09l.34.2.27.16,1,.55,1.51.87,5.48,3.16,1.1.63.43.25h0l.6.34.15.09.42.24.41.24,3.4,2V70.06Z"/></g></g></g></g></svg>