<?xml version="1.0" encoding="utf-8"?>
<!-- Generator: Adobe Illustrator 24.1.1, SVG Export Plug-In . SVG Version: 6.00 Build 0)  -->
<svg version="1.1" xmlns="http://www.w3.org/2000/svg" xmlns:xlink="http://www.w3.org/1999/xlink" x="0px" y="0px"
	 viewBox="0 0 680 785.2" style="enable-background:new 0 0 680 785.2;" xml:space="preserve">
<style type="text/css">
	.st0{fill:none;stroke:#1B0929;stroke-miterlimit:10;}
	.st1{fill:#361252;}
	.st2{fill:#1B0929;}
	.st3{fill:#493E52;}
	.st4{clip-path:url(#SVGID_2_);}
	.st5{clip-path:url(#SVGID_4_);}
	.st6{fill:#81DDD6;}
	.st7{fill:#88E5DD;}
	.st8{fill:#FFFFFF;}
	.st9{fill:#60D3B1;}
	.st10{fill:#AC9F18;}
	.st11{fill:#A08C19;}
	.st12{fill:#696C17;}
	.st13{fill:#888218;}
	.st14{fill:#D47835;}
	.st15{fill:#BF6D30;}
	.st16{fill:#C87231;}
	.st17{fill:#4D4D4F;}
	.st18{fill:none;stroke:#4D4D4F;stroke-width:5;stroke-miterlimit:10;}
	.st19{fill:#F7F5F5;stroke:#4D4D4F;stroke-width:5;stroke-miterlimit:10;}
	.st20{fill:#00FFD7;}
	.st21{fill:#262626;}
	.st22{fill:#00E0BD;stroke:#4D4D4F;stroke-width:4;stroke-miterlimit:10;}
	.st23{fill:#132B28;}
	.st24{fill-rule:evenodd;clip-rule:evenodd;fill:#361252;}
	.st25{fill:#0FCE7C;}
</style>
<g id="Layer_2">
	<line class="st0" x1="11601.8" y1="2508.9" x2="11585.2" y2="2334.5"/>
	<g>
		<polygon class="st1" points="0,588.9 0,196.3 340,0 680,196.3 680,588.9 340,785.2 		"/>
		<polygon class="st2" points="13,581.4 13,203.8 340,15 667,203.8 667,581.4 340,770.2 		"/>
		<polygon class="st3" points="45.5,562.6 45.5,222.6 340,52.5 634.5,222.6 634.5,562.6 340,732.7 		"/>
		<g>
			<defs>
				<polygon id="SVGID_1_" points="52,226.3 52,558.9 340,725.2 628,558.9 628,226.3 340,60 				"/>
			</defs>
			<clipPath id="SVGID_2_">
				<use xlink:href="#SVGID_1_"  style="overflow:visible;"/>
			</clipPath>
			<g class="st4">
				<defs>
					<rect id="SVGID_3_" x="-103.5" y="60" width="886.9" height="665.2"/>
				</defs>
				<clipPath id="SVGID_4_">
					<use xlink:href="#SVGID_3_"  style="overflow:visible;"/>
				</clipPath>
				<g class="st5">
					<rect x="-253.5" y="41" class="st6" width="1096.7" height="577.2"/>
					<polygon class="st7" points="839,50.1 -328.1,272.9 -320.4,299.9 976.1,200.5 					"/>
					<polygon class="st7" points="-280.8,284 848.7,469.7 833.3,499.7 -239.3,367.8 					"/>
					<circle class="st8" cx="-52.9" cy="368.3" r="57.3"/>
					<polygon class="st9" points="-174.3,811.5 672.7,619.1 678.7,574.7 60,619.1 -310.7,693.1 					"/>
					<polygon class="st10" points="175.8,612 433.2,574.7 512.7,558 661.1,525.2 792.4,457.6 867,614.6 					"/>
					<polygon class="st11" points="-281.1,685.8 340.6,658.4 -299.2,525.2 					"/>
					<polygon class="st12" points="184.2,691 -221.9,566.2 -229,698.7 					"/>
					<polygon class="st13" points="3.5,702.8 -236.5,641 -248.1,730.5 					"/>
					<path class="st13" d="M-52,735.6c0,0,341.7-26.4,558-92s317.3-90.7,317.3-90.7L834.2,863l-910-29.6L-52,735.6z"/>
					<g>
						<polygon class="st14" points="727.6,641 700,644.7 629.8,59.7 638.9,55.3 						"/>
						<polygon class="st2" points="777.1,634.5 727.6,641 629.8,59.7 649.5,50.1 						"/>
						<polygon class="st2" points="691.1,214.2 688.1,302.3 697.5,320.7 695.6,218.6 						"/>
						<path class="st15" d="M662.7,195.6c1.6,6.3,3.1,12.7,4.6,19c1.5,6.3,2.9,12.7,4.3,19c2.8,12.7,5.4,25.4,7.9,38.2
							c2.5,12.7,4.9,25.5,7.2,38.3l3.4,19.2l3.2,19.2l-11.2-3.1l7.7-9.3l8.9-10.7l2.4,13.8c1.4,7.7,2.7,15.4,3.9,23.1
							c1.3,7.7,2.5,15.4,3.8,23.1c1.2,7.7,2.4,15.5,3.6,23.2c1.1,7.7,2.3,15.5,3.3,23.2c2.2,15.5,4.2,31,6,46.6
							c1.7,15.6,3.5,31.1,4.6,46.8c-4.1-15.2-7.6-30.4-11.2-45.7c-3.5-15.3-6.7-30.6-9.8-45.9c-1.6-7.7-3-15.3-4.5-23
							c-1.4-7.7-2.9-15.4-4.3-23.1c-1.4-7.7-2.8-15.4-4.1-23.1c-1.4-7.7-2.7-15.4-4-23.1l11.3,3.1l-7.8,9.2l-9.2,10.9l-2-14
							l-2.8-19.3L675,312c-1.7-12.9-3.4-25.8-4.9-38.7c-1.5-12.9-3-25.8-4.2-38.8c-0.6-6.5-1.3-12.9-1.8-19.4
							C663.6,208.6,663.1,202.1,662.7,195.6z"/>
					</g>
					<g>
						<polygon class="st2" points="76.1,102.8 91.4,95.4 89.3,92.1 49.3,109.9 11.9,109.9 108.2,49.1 98.9,45.3 -77.7,142.2 
							-68.4,26 -92.5,18.4 -218.1,755.8 -126.4,755.8 -123.5,720 -106.7,674.4 -13.4,646.7 -13.4,643.5 -47.3,651.3 -25.8,634.5 
							-31.4,634.5 -65.2,655.4 -113.8,666.7 -120.4,680.7 -79.7,167.8 -3.3,119.6 49.3,115.7 70.4,105.5 111.3,106 112.3,102.7 
													"/>
						<path class="st15" d="M-91.4,163c-0.9,9.8-1.9,19.5-3,29.3l-1.6,14.6l-1.7,14.6l-1.7,14.6l-1.8,14.6l-3.6,29.2
							c-2.5,19.5-5.1,38.9-7.8,58.3c-2.7,19.4-5.4,38.9-8.3,58.3l-10.8-5.2l15.7-17.2l14.8-16.2l-3.8,21.7
							c-4.6,26.7-9.3,53.4-14.2,80c-4.8,26.7-9.9,53.3-15,79.9c-2.6,13.3-5.2,26.6-7.9,39.9l-8.2,39.8c-5.6,26.5-11.2,53-17.5,79.4
							c3.1-27,6.9-53.8,10.7-80.6l5.9-40.2c2-13.4,4.1-26.8,6.2-40.2c4.3-26.8,8.6-53.5,13.2-80.2c4.5-26.7,9.3-53.4,14-80.1l11,5.5
							l-15.9,17l-14.1,15l3.2-20.2c3.1-19.4,6.3-38.7,9.5-58.1c3.2-19.3,6.6-38.7,10-58l5.3-29l2.7-14.5l2.8-14.5l2.8-14.5l2.9-14.4
							C-95.5,182.2-93.5,172.6-91.4,163z"/>
						<polygon class="st16" points="-79.7,167.8 -128,593.9 -112,574.9 						"/>
					</g>
					<path class="st2" d="M-139,714c44.1,7.1,4.8,19.3,94.3,19.3S84,728.5,96.9,745.7s15.4,45.5,15.4,45.5l-254.2,6.4L-139,714z"/>
					<path class="st2" d="M443.5,780.1c0,0,19.6-70.3,74.7-81.1s78.5,15.1,110.7,5.6c32.2-9.5,29.6-89.3,112-85.4
						c82.4,3.9,51.5,155.7,51.5,155.7L443.5,780.1z"/>
					<g>
						<g>
							<path class="st17" d="M141,540.8l-17.7,12.1c0,0-2.9,4.1,0.9,7.2c3.8,3.1,7.4,0.9,7.4,0.9l15.1-10.6l-15,18.4
								c0,0-0.9,4.1,1.4,6.3c2.3,2.1,5.7,0,5.7,0l20.1-16.7l-2.5-13.5L141,540.8z"/>
							<path class="st17" d="M101.6,566.2c0,0-1.5-5.2,1.5-6.5s13.8-4.4,13.8-4.4s2.9-0.7,3.9,2.8c1.1,3.5-1.3,5.8-1.3,5.8
								l-12.4,4.5C107.2,568.3,103.7,570.3,101.6,566.2z"/>
							<path class="st17" d="M115.5,590.3c0,0-3.6-4.1-1.3-6.5s10.7-9.8,10.7-9.8s2.3-1.8,4.7,0.9c2.4,2.7,1.3,5.8,1.3,5.8l-9.4,9.2
								C121.5,589.9,119.1,593.1,115.5,590.3z"/>
							<path class="st17" d="M172,555.6l-10.6,21c0,0-3.6,7.4,2.9,11.8c6.5,4.4,10.8-4.9,10.8-4.9l9.8-22L172,555.6z"/>
							<line class="st18" x1="117.7" y1="560.1" x2="128.1" y2="555.2"/>
							<line class="st18" x1="127.2" y1="580.2" x2="136.3" y2="571"/>
						</g>
						<g>
							<path class="st17" d="M498.8,406.5c0,0,21.5-2.1,26.3-5.1c4.8-3,5.7-3.8,4.4-8.4c-1.8-6.3-12.5,0.3-15.1,0.5
								c0,0,10.9-5.8,14.1-10.9c2.3-3.8-1.4-7.3-1.4-7.3s-1.4-3.5-9,1.1c-8.8,5.4-23.3,8.8-23.3,8.8L498.8,406.5z"/>
							<path class="st17" d="M497.9,386.6c0,0,6.4-32.4,4.3-38.5c-2.1-6.1-9.1-4.7-11.3-1.3c-2.1,3.4-10.7,31.2-10.7,31.2
								L497.9,386.6z"/>
							<path class="st17" d="M529.2,372.6c0,0-3.6-0.7-2.7-4.5c0.9-3.8,4.6-17.6,12.8-15.2c8.2,2.3-0.3,13.5-0.3,13.5
								S535.3,374.8,529.2,372.6z"/>
							<path class="st17" d="M532.9,391.9c0,0-2.6-1.6-0.9-5.7s7.9-8.7,7.9-8.7s4.7-3.6,8.1-1.6c4.9,3-3.3,12-3.3,12
								S538,396.4,532.9,391.9z"/>
							<line class="st18" x1="534.8" y1="388.9" x2="527.5" y2="395"/>
							<line class="st18" x1="531.1" y1="370" x2="524.2" y2="378.2"/>
						</g>
						<g>
							<path class="st19" d="M324.9,301.1c0,0-0.7,10.7-1.8,19.3c0,0-9.9,10.8-42.5,10.9c-2,0-4,0-6.2-0.1
								c-6.8-0.3-12.8-0.8-18.1-1.5c-24.1-3.3-33.5-10.3-33.5-10.3S211,208.7,274.4,211.6C274.4,211.6,324.5,209.8,324.9,301.1z"/>
							<path class="st19" d="M280.9,336.2c-2.7-0.3-5.7-0.3-9.1,0c-6.5,0.6-11.6,2.5-15.6,5v-11.6c5.3,0.7,11.3,1.3,18.1,1.5
								c2.2,0.1,4.2,0.1,6.2,0.1C280.7,333.1,280.8,334.8,280.9,336.2z"/>
							<path class="st19" d="M299.4,347.1c-28.1-3.4-46.4,4.5-56.6,11.5c0,0,0,0,0,0s2.9-10.7,13.5-17.4c4-2.5,9.1-4.5,15.6-5
								c3.4-0.3,6.4-0.3,9.1,0C292.9,337.5,297.7,344,299.4,347.1z"/>
							<path class="st19" d="M350.1,443.3c0,0-1.7,14.7-44.1,23.7c-38.5,8.1-40.2,7.7-46.6,5.2c-6.4-2.5-17.5-49.1-17.5-49.1
								l-9.2-55.5c0,0,3.2-4.3,10.2-9.1c0,0,0,0,0,0c10.2-7,28.5-14.9,56.6-11.5c2.7,0.3,5.4,0.7,8.3,1.3c0,0,0.1,0.1,0.3,0.4
								c1.9,2.9,14.3,21.9,26,48.6C340,411,345.8,426.7,350.1,443.3z"/>
							<path class="st19" d="M252.9,404.6c-8.2,26.5-20.3,15.8-20.3,15.8c-1.9-0.6-4.2-2.3-6.5-4.7c3.4-5.4,8-14.8,3.9-22.2
								c-5.3-9.6-14.4-7.8-14.4-7.8s-1.3,0.7-3.1,2.4c-0.7-4.9-0.3-9.7,1.7-13.8c7.9-16.1,25.1-7.5,25.1-7.5
								S261.1,378.1,252.9,404.6z"/>
							<path class="st19" d="M226.1,415.6c-5.9-6.2-12.1-17.2-13.6-27.7c1.8-1.7,3.1-2.4,3.1-2.4s9-1.8,14.4,7.8
								C234,400.8,229.5,410.2,226.1,415.6z"/>
							<path class="st19" d="M337.7,379.5c-0.6,5-2.2,11.9-3.5,16.9c-0.1,0.3-0.2,0.6-0.3,1c-11.8-26.7-24.1-45.7-26-48.6
								c1.8-1.4,5.3-2.6,12.3-2.5c9.6,0.2,14.5,9.6,16.5,18.9C337.9,370.7,338.1,376.1,337.7,379.5z"/>
							<path class="st19" d="M355.9,379.3c-0.9,0.5-1.7,1.2-2.6,2c-4.9,4.1-10.3,10.3-12.3,19.1c0,0,0,0,0,0l-6.9-4
								c1.3-5,2.9-11.9,3.5-16.9c0.4-3.4,0.2-8.8-1-14.3C341.7,368.7,348.8,373.7,355.9,379.3z"/>
							<path class="st19" d="M353.4,381.3c-6.2,5.9-12.1,18.7-12.3,19.1C343.1,391.6,348.4,385.4,353.4,381.3z"/>
							<path class="st19" d="M394.6,405.4l-5.3-2.2c0,0-12.9,9.3-13.6,19.3l6.7,4.3c-6.1,5.1-10.7,4.3-10.7,4.3l-31.5-23.6
								c0-2.5,0.3-4.8,0.8-7c0,0,0,0,0,0c2-8.9,7.3-15.1,12.3-19.1c0.9-0.7,1.7-1.4,2.6-2c4-2.8,7.2-4.1,7.2-4.1l30.8,23.5
								C394,398.7,395,401.2,394.6,405.4z"/>
							<path class="st19" d="M499.6,413.5l-72.7,38c0,0-5.4,0.2-12.1-10.8c-1.7-2.9-3.6-6.5-5.4-11c-4-10-5.4-16.4-5.8-20.5
								c-0.4-5,0.8-6.5,0.8-6.5s48-25.7,70.2-30.4c0,0,16.8-1.4,22.6,15.4C502.8,404.6,499.6,413.5,499.6,413.5z"/>
							<path class="st19" d="M414.8,440.7c-5.7,2.1-11.3-0.3-11.3-0.3l-21.1-13.6l-6.7-4.3c0.7-10,13.6-19.3,13.6-19.3l5.3,2.2
								l9,3.8c0.3,4.1,1.8,10.5,5.8,20.5C411.2,434.2,413,437.8,414.8,440.7z"/>
							<path class="st19" d="M226.1,415.6c-0.2,0.3-0.4,0.6-0.6,0.9c-3.5-3.5-9.4-6.7-17.2-8.4c-2.3-0.5-4.4-0.7-6.2-0.7
								c2.5-10.6,7.2-16.6,10.4-19.5c1.8-1.7,3.1-2.4,3.1-2.4s9-1.8,14.4,7.8C234,400.8,229.5,410.2,226.1,415.6z"/>
							<path class="st19" d="M228.5,425.3c-2.2,6.1-13.6,37.8-13.6,37.8s-2.6,7-20.8,1.6c-17.2-5-15.8-9-17.2-13.6l13.6-37.6
								c0,0,2.4-5.9,11.5-6.1c1.8,0,3.8,0.2,6.2,0.7c7.8,1.7,13.8,4.9,17.2,8.4C228.3,419.4,229.5,422.6,228.5,425.3z"/>
							<path class="st19" d="M207.8,463.1l-4,12.3c-3-1.8-6.8-3.6-11.4-5.3c-4.9-1.8-9.1-2.9-12.6-3.5l5.1-13
								C196.3,452.2,207.8,463.1,207.8,463.1z"/>
							<path class="st19" d="M216.6,488.4l-31.7,73c0,0-7.2,9-25.8,2.2c-18.6-6.8-19-19-19-19l23.6-76.7c0,0,4.3-3.4,16.1-1.3
								c3.5,0.6,7.7,1.7,12.6,3.5c4.6,1.7,8.4,3.5,11.4,5.3C214.9,482,216.6,488.4,216.6,488.4z"/>
							<path class="st19" d="M334,452.5l-1.9,29.3c0,0-1.5,4.2-10.1,6.4c-4.1,1-9.8,1.6-17.8,1.1c-16.8-1.1-27.2-4.5-32.2-6.6
								c-2.4-1-3.5-1.7-3.5-1.7v-14.2C304.5,445.9,334,452.5,334,452.5z"/>
							<path class="st19" d="M322,488.1c-0.2,1.1-0.4,2.2-0.6,3.5c-1.5,9.4-4,23.8-5.9,35c-3.2,18-1.3,23.1-16.4,30.6
								c-0.7,0.3-1.3,0.6-2,0.9c-7.2,3-13.6,2.3-18.1,1c2.6-3,5.4-6.7,8.3-11.3c1.7-2.7,3.4-5.6,5.1-8.8c0,0,3-15.2-2-29.1
								c-2.5-6.7-6.8-13.2-14.4-17.4c-1.4-0.8-2.7-1.3-4-1.7v-8.1c5,2.1,15.4,5.5,32.2,6.6C312.1,489.8,317.9,489.2,322,488.1z"/>
							<path class="st19" d="M292.4,538.9c-1.7,3.3-3.4,6.2-5.1,8.8c-2.9,4.6-5.6,8.3-8.3,11.3c-4.4-1.3-7-3.2-7-3.2v-65.1
								c1.3,0.4,2.7,1,4,1.7c7.6,4.2,11.9,10.7,14.4,17.4C295.4,523.8,292.4,538.9,292.4,538.9z"/>
							<path class="st19" d="M292.4,538.9c-1.7,3.3-3.4,6.2-5.1,8.8c-2.9,4.6-5.6,8.3-8.3,11.3c-6.5,7.3-12.2,10-17.2,9.8l2.1-11.7
								c0,0,8.1-39.2-5.9-38.9c-14,0.3-14.8,14.5-14.8,14.5L241,545c-1.4-4.2-2.3-8.1-2.6-10.6c-1.5-13.1,12.7-50,33.6-43.6
								c1.3,0.4,2.7,1,4,1.7c7.6,4.2,11.9,10.7,14.4,17.4C295.4,523.8,292.4,538.9,292.4,538.9z"/>
							<path class="st19" d="M263.9,557.2l-2.1,11.7l-11.2,61c-0.1-0.5-0.3-0.8-0.4-1.2c0,0-6.3-20-20.6-22.1L241,545l2.3-12.2
								c0,0,0.8-14.1,14.8-14.5C272,518,263.9,557.2,263.9,557.2z"/>
							<path class="st19" d="M262,657.4l-14.1,102.1L236,772.3c0,0-1.9-6.1-6.2-12c-3.7-5-9-9.8-16.5-10.6
								c-7.2-0.7-13.8,0.3-18.9,1.6c-6.4,1.6-10.5,3.8-10.5,3.8L202.9,626c0,0,6.7-18.8,23.4-19.6c1.2-0.1,2.3,0,3.3,0.2
								c14.3,2.1,20.6,22.1,20.6,22.1c0.1,0.3,0.3,0.7,0.4,1.2c1.5,5.5,2.6,18.7,2.6,18.7L262,657.4z"/>
							<path class="st19" d="M229.8,760.3l-2.1,11.6c-6-4.3-13.5-7.8-22.9-9.3c-4.1-0.6-7.9-0.7-11.6-0.3l1.1-11.1
								c5.1-1.3,11.7-2.3,18.9-1.6C220.7,750.5,226.1,755.3,229.8,760.3z"/>
							<path class="st19" d="M252.9,808.6l-3.5,5.4H138.8v-5.4c1.1-8.3,12.9-14.8,12.9-14.8s15.1-28.2,41.6-31.4
								c3.6-0.4,7.5-0.4,11.6,0.3c9.4,1.5,16.9,5,22.9,9.3c15.3,11,20.3,27,20.3,27C252.9,801.1,252.9,808.6,252.9,808.6z"/>
							<path class="st19" d="M343.9,540.8c0,0-1.8,5.5-5.6,11.4c-5.1,7.8-13.7,16.4-26.4,13.6c-4.4-1-9.4-3.4-14.8-7.7
								c0.7-0.3,1.3-0.6,2-0.9c15-7.5,13.2-12.6,16.4-30.6c2-11.2,4.4-25.6,5.9-35c3.5,0.8,8.5,2.8,15,7.6
								C350.1,509.4,343.9,540.8,343.9,540.8z"/>
							<path class="st19" d="M338.3,552.2v56.7c-10.8,2.5-15.3,11.4-15.3,11.4c-4.3,8.6-11.6,27.2-11.6,27.2s-0.6,0.4-3.2,0.9
								l3.8-82.7C324.5,568.6,333.2,560,338.3,552.2z"/>
							<path class="st19" d="M361.9,643.1c-1.1,15.3-6.4,18-6.4,18l-7.8,97.9c0,0-3.6-8.6-12.8-11.6c-2-0.7-4.4-1-7-1
								c-10.6,0.2-23.7,11.4-30.2,17.5c-2.5,2.3-3.9,4-3.9,4l-14-11l7-95.9c0,0,7-11,15-11.8c2.9-0.3,4.9-0.6,6.4-0.9
								c2.6-0.5,3.2-0.9,3.2-0.9s7.3-18.6,11.6-27.2c0,0,4.5-8.9,15.3-11.4c1.8-0.4,3.8-0.7,5.9-0.7
								C356.3,608.2,363,627.8,361.9,643.1z"/>
							<path class="st19" d="M334.8,747.5V761c-27.7,2.6-32.8,11.3-32.8,11.3s-2.4,0.6-5.7,2l1.3-10.3c6.4-6.2,19.6-17.3,30.2-17.5
								C330.4,746.5,332.8,746.9,334.8,747.5z"/>
							<path class="st19" d="M398.4,808.8l-1.1,5.1l-134.8-1.6c0,0,0,0,1.9-5.9c1.9-5.9,8.1-10.2,8.1-10.2s0,0,7.3-9.9
								c4.4-6,11.6-9.8,16.6-11.9c3.3-1.4,5.7-2,5.7-2s5.1-8.8,32.8-11.3c2.2-0.2,4.5-0.4,7-0.5c33.8-1.6,47.8,36.5,47.8,36.5
								C397.6,798.1,398.4,808.8,398.4,808.8z"/>
						</g>
						<g>
							<path class="st20" d="M279.4,287.1c5.1,0,4.2,8.3,4.2,8.3s-0.6,5.8-4.2,5.8c-4.5,0-4.5-7-4.5-7S274.8,287.1,279.4,287.1z"/>
							<path class="st21" d="M283.6,295.5c0,0-0.6,5.8-4.2,5.8c-0.2,0-0.4,0-0.5,0c2.2-1.4,2.6-5.3,2.6-5.3s0.9-7.9-3.9-8.3
								c0.5-0.3,1.1-0.5,1.8-0.4C284.6,287.2,283.6,295.5,283.6,295.5z"/>
							<path class="st20" d="M314.8,282.6c5.1,0,4.2,8.3,4.2,8.3s-0.6,5.8-4.2,5.8c-4.5,0-4.5-7-4.5-7S310.1,282.6,314.8,282.6z"/>
							<path class="st21" d="M319,291c0,0-0.6,5.8-4.2,5.8c-0.2,0-0.4,0-0.5,0c2.2-1.4,2.6-5.3,2.6-5.3s0.9-7.9-3.9-8.3
								c0.5-0.3,1.1-0.5,1.8-0.5C319.9,282.7,319,291,319,291z"/>
						</g>
						<path class="st17" d="M234.5,297.4c-1.1-8.4-1.2-17-0.7-25.5c0.2-4.3,0.8-8.5,1.4-12.8c0.7-4.2,1.6-8.4,2.8-12.6
							c1.2-4.1,2.7-8.2,4.7-12.1c1-1.9,2.1-3.8,3.4-5.6l1-1.3c0.3-0.4,0.7-0.9,1.1-1.3c0.7-0.9,1.5-1.6,2.2-2.4
							c6.1-6.2,13.8-10.9,22.2-12.7c-7.8,3.4-14.5,8.5-19.9,14.8c-0.7,0.8-1.3,1.6-1.9,2.4l-0.9,1.2l-0.8,1.3
							c-1.1,1.7-2,3.5-2.9,5.3c-1.8,3.7-3.1,7.6-4.3,11.6c-1.2,4-2.1,8-2.9,12.1c-0.8,4.1-1.4,8.2-2,12.4
							C235.8,280.6,235.1,289,234.5,297.4z"/>
						<path class="st17" d="M247.5,309.5c0,0.1,0.1,0.2,0.1,0.5c0,0.2-0.1,0.7-0.5,0.9c-0.4,0.3-1,0.4-1.5,0.1
							c-0.5-0.3-0.9-0.9-0.9-1.5c0-0.6,0.4-1.3,0.9-1.5c0.5-0.3,1.2-0.2,1.5,0.1c0.4,0.3,0.5,0.7,0.5,0.9
							C247.5,309.3,247.5,309.4,247.5,309.5z M247.5,309.5c0-0.1-0.2-0.2-0.3-0.1c-0.2,0.1-0.3,0.4-0.1,0.7c0.1,0.3,0.6,0.5,0.9,0.3
							c0.4-0.1,0.7-0.5,0.6-0.9c0-0.4-0.3-0.8-0.7-0.9c-0.4-0.1-0.8,0.1-0.9,0.3c-0.2,0.3,0,0.6,0.1,0.7
							C247.3,309.7,247.5,309.6,247.5,309.5z"/>
						<path class="st17" d="M259.9,310.5c0,0.1,0.1,0.2,0.1,0.5c0,0.2-0.1,0.7-0.5,0.9c-0.4,0.3-1,0.4-1.5,0.1
							c-0.5-0.3-0.9-0.9-0.9-1.5c0-0.6,0.4-1.3,0.9-1.5c0.5-0.3,1.2-0.2,1.5,0.1c0.4,0.3,0.5,0.7,0.5,0.9
							C259.9,310.2,259.8,310.4,259.9,310.5z M259.9,310.5c0-0.1-0.2-0.2-0.3-0.1c-0.2,0.1-0.3,0.4-0.1,0.7c0.1,0.3,0.6,0.5,0.9,0.3
							c0.4-0.1,0.7-0.5,0.6-0.9c0-0.4-0.3-0.8-0.7-0.9c-0.4-0.1-0.8,0.1-0.9,0.3c-0.2,0.3,0,0.6,0.1,0.7
							C259.7,310.7,259.9,310.6,259.9,310.5z"/>
						<path class="st17" d="M304.4,388.1c0,0.1,0.1,0.2,0.1,0.5c0,0.2-0.1,0.7-0.5,0.9c-0.4,0.3-1,0.4-1.5,0.1
							c-0.5-0.3-0.9-0.9-0.9-1.5c0-0.6,0.4-1.3,0.9-1.5c0.5-0.3,1.2-0.2,1.5,0.1c0.4,0.3,0.5,0.7,0.5,0.9
							C304.5,387.9,304.4,388,304.4,388.1z M304.4,388.1c0-0.1-0.2-0.2-0.3-0.1c-0.2,0.1-0.3,0.4-0.1,0.7c0.1,0.3,0.6,0.5,0.9,0.3
							c0.4-0.1,0.7-0.5,0.6-0.9c0-0.4-0.3-0.8-0.7-0.9c-0.4-0.1-0.8,0.1-0.9,0.3c-0.2,0.3,0,0.6,0.1,0.7
							C304.3,388.4,304.4,388.3,304.4,388.1z"/>
						<path class="st17" d="M315.9,387.6c0,0.1,0.1,0.2,0.1,0.5c0,0.2-0.1,0.7-0.5,0.9c-0.4,0.3-1,0.4-1.5,0.1
							c-0.5-0.3-0.9-0.9-0.9-1.5c0-0.6,0.4-1.3,0.9-1.5c0.5-0.3,1.2-0.2,1.5,0.1c0.4,0.3,0.5,0.7,0.5,0.9
							C316,387.4,315.9,387.5,315.9,387.6z M315.9,387.6c0-0.1-0.2-0.2-0.3-0.1c-0.2,0.1-0.3,0.4-0.1,0.7c0.1,0.3,0.6,0.5,0.9,0.3
							c0.4-0.1,0.7-0.5,0.6-0.9c0-0.4-0.3-0.8-0.7-0.9c-0.4-0.1-0.8,0.1-0.9,0.3c-0.2,0.3,0,0.6,0.1,0.7
							C315.8,387.8,315.9,387.7,315.9,387.6z"/>
						<path class="st17" d="M420.9,438c0,0.1,0.1,0.2,0.1,0.5c0,0.2-0.1,0.7-0.5,0.9c-0.4,0.3-1,0.4-1.5,0.1
							c-0.5-0.3-0.9-0.9-0.9-1.5c0-0.6,0.4-1.3,0.9-1.5c0.5-0.3,1.2-0.2,1.5,0.1c0.4,0.3,0.5,0.7,0.5,0.9
							C421,437.8,420.9,437.9,420.9,438z M420.9,438c0-0.1-0.2-0.2-0.3-0.1c-0.2,0.1-0.3,0.4-0.1,0.7c0.1,0.3,0.6,0.5,0.9,0.3
							c0.4-0.1,0.7-0.5,0.6-0.9c0-0.4-0.3-0.8-0.7-0.9c-0.4-0.1-0.8,0.1-0.9,0.3c-0.2,0.3,0,0.6,0.1,0.7
							C420.7,438.3,420.9,438.2,420.9,438z"/>
						<path class="st17" d="M496,403.2c0,0.1,0.1,0.2,0.1,0.5c0,0.2-0.1,0.7-0.5,0.9c-0.4,0.3-1,0.4-1.5,0.1
							c-0.5-0.3-0.9-0.9-0.9-1.5c0-0.6,0.4-1.3,0.9-1.5c0.5-0.3,1.2-0.2,1.5,0.1c0.4,0.3,0.5,0.7,0.5,0.9
							C496.1,402.9,496,403.1,496,403.2z M496,403.2c0-0.1-0.2-0.2-0.3-0.1c-0.2,0.1-0.3,0.4-0.1,0.7c0.1,0.3,0.6,0.5,0.9,0.3
							c0.4-0.1,0.7-0.5,0.6-0.9c0-0.4-0.3-0.8-0.7-0.9c-0.4-0.1-0.8,0.1-0.9,0.3c-0.2,0.3,0,0.6,0.1,0.7
							C495.9,403.4,496,403.3,496,403.2z"/>
						<path class="st17" d="M260.3,414.7c0,0.1,0.1,0.2,0.1,0.5c0,0.2-0.1,0.7-0.5,0.9c-0.4,0.3-1,0.4-1.5,0.1
							c-0.5-0.3-0.9-0.9-0.9-1.5c0-0.6,0.4-1.3,0.9-1.5c0.5-0.3,1.2-0.2,1.5,0.1c0.4,0.3,0.5,0.7,0.5,0.9
							C260.4,414.5,260.3,414.6,260.3,414.7z M260.3,414.7c0-0.1-0.2-0.2-0.3-0.1c-0.2,0.1-0.3,0.4-0.1,0.7c0.1,0.3,0.6,0.5,0.9,0.3
							c0.4-0.1,0.7-0.5,0.6-0.9c0-0.4-0.3-0.8-0.7-0.9c-0.4-0.1-0.8,0.1-0.9,0.3c-0.2,0.3,0,0.6,0.1,0.7
							C260.1,415,260.3,414.9,260.3,414.7z"/>
						<path class="st17" d="M262.4,453.5c0,0.1,0.1,0.2,0.1,0.5c0,0.2-0.1,0.7-0.5,0.9c-0.4,0.3-1,0.4-1.5,0.1
							c-0.5-0.3-0.9-0.9-0.9-1.5c0-0.6,0.4-1.3,0.9-1.5c0.5-0.3,1.2-0.2,1.5,0.1c0.4,0.3,0.5,0.7,0.5,0.9
							C262.5,453.3,262.4,453.4,262.4,453.5z M262.4,453.5c0-0.1-0.2-0.2-0.3-0.1c-0.2,0.1-0.3,0.4-0.1,0.7c0.1,0.3,0.6,0.5,0.9,0.3
							c0.4-0.1,0.7-0.5,0.6-0.9c0-0.4-0.3-0.8-0.7-0.9c-0.4-0.1-0.8,0.1-0.9,0.3c-0.2,0.3,0,0.6,0.1,0.7
							C262.2,453.7,262.4,453.6,262.4,453.5z"/>
						<path class="st17" d="M194.6,476.9c0,0.1,0.1,0.2,0.1,0.5c0,0.2-0.1,0.7-0.5,0.9c-0.4,0.3-1,0.4-1.5,0.1
							c-0.5-0.3-0.9-0.9-0.9-1.5c0-0.6,0.4-1.3,0.9-1.5c0.5-0.3,1.2-0.2,1.5,0.1c0.4,0.3,0.5,0.7,0.5,0.9
							C194.7,476.7,194.6,476.8,194.6,476.9z M194.6,476.9c0-0.1-0.2-0.2-0.3-0.1c-0.2,0.1-0.3,0.4-0.1,0.7c0.1,0.3,0.6,0.5,0.9,0.3
							c0.4-0.1,0.7-0.5,0.6-0.9c0-0.4-0.3-0.8-0.7-0.9c-0.4-0.1-0.8,0.1-0.9,0.3c-0.2,0.3,0,0.6,0.1,0.7
							C194.5,477.2,194.6,477.1,194.6,476.9z"/>
						<path class="st17" d="M177.4,562c0,0.1,0.1,0.2,0.1,0.5c0,0.2-0.1,0.7-0.5,0.9c-0.4,0.3-1,0.4-1.5,0.1
							c-0.5-0.3-0.9-0.9-0.9-1.5c0-0.6,0.4-1.3,0.9-1.5c0.5-0.3,1.2-0.2,1.5,0.1c0.4,0.3,0.5,0.7,0.5,0.9
							C177.5,561.8,177.4,561.9,177.4,562z M177.4,562c0-0.1-0.2-0.2-0.3-0.1c-0.2,0.1-0.3,0.4-0.1,0.7c0.1,0.3,0.6,0.5,0.9,0.3
							c0.4-0.1,0.7-0.5,0.6-0.9c0-0.4-0.3-0.8-0.7-0.9c-0.4-0.1-0.8,0.1-0.9,0.3c-0.2,0.3,0,0.6,0.1,0.7
							C177.2,562.2,177.4,562.1,177.4,562z"/>
						<path class="st17" d="M259.4,319.4c0,0.1,0.1,0.2,0.1,0.5c0,0.2-0.1,0.7-0.5,0.9c-0.4,0.3-1,0.4-1.5,0.1
							c-0.5-0.3-0.9-0.9-0.9-1.5c0-0.6,0.4-1.3,0.9-1.5c0.5-0.3,1.2-0.2,1.5,0.1c0.4,0.3,0.5,0.7,0.5,0.9
							C259.5,319.1,259.4,319.3,259.4,319.4z M259.4,319.4c0-0.1-0.2-0.2-0.3-0.1c-0.2,0.1-0.3,0.4-0.1,0.7c0.1,0.3,0.6,0.5,0.9,0.3
							c0.4-0.1,0.7-0.5,0.6-0.9c0-0.4-0.3-0.8-0.7-0.9c-0.4-0.1-0.8,0.1-0.9,0.3c-0.2,0.3,0,0.6,0.1,0.7
							C259.3,319.6,259.4,319.5,259.4,319.4z"/>
						<path class="st17" d="M247.5,319c0,0.1,0.1,0.2,0.1,0.5c0,0.2-0.1,0.7-0.5,0.9c-0.4,0.3-1,0.4-1.5,0.1
							c-0.5-0.3-0.9-0.9-0.9-1.5c0-0.6,0.4-1.3,0.9-1.5c0.5-0.3,1.2-0.2,1.5,0.1c0.4,0.3,0.5,0.7,0.5,0.9
							C247.5,318.7,247.5,318.8,247.5,319z M247.5,319c0-0.1-0.2-0.2-0.3-0.1c-0.2,0.1-0.3,0.4-0.1,0.7c0.1,0.3,0.6,0.5,0.9,0.3
							c0.4-0.1,0.7-0.5,0.6-0.9c0-0.4-0.3-0.8-0.7-0.9c-0.4-0.1-0.8,0.1-0.9,0.3c-0.2,0.3,0,0.6,0.1,0.7
							C247.3,319.2,247.5,319.1,247.5,319z"/>
						<path class="st17" d="M300.1,313.6c-0.9-9.2-1.6-18.4-2.3-27.6c-0.7-9.2-1.4-18.3-2.6-27.3c-1.2-9-3.2-17.8-6.7-26
							c-1.8-4.1-3.9-8.1-6.5-11.7c-1.3-1.8-2.8-3.6-4.3-5.2c-1.6-1.6-3.3-3.2-5.1-4.7c2.1,1,4.1,2.3,6,3.6c1.9,1.4,3.6,3,5.3,4.7
							c3.2,3.5,6,7.4,8.2,11.6c4.4,8.4,6.9,17.8,8.1,27c1.2,9.3,1.6,18.6,1.6,27.8C301.7,295.1,301.2,304.4,300.1,313.6z"/>
						<g>
							<path class="st17" d="M240.7,425.6c4.7-6.9,10.9-12.7,17.8-17.5c3.4-2.5,7.1-4.4,10.9-6.3l2.9-1.3c1-0.4,1.9-0.8,2.9-1.2
								c1.9-0.8,3.9-1.4,5.9-2.2c2-0.6,4-1.2,6.1-1.7c2-0.5,4.1-1,6.1-1.3c4.1-0.7,8.2-1.4,12.4-1.8c8.3-0.8,16.7-0.9,24.9,0.6
								c-8.3,0.2-16.4,1.1-24.5,2.5c-4,0.7-8,1.5-12,2.4c-2,0.4-4,0.9-5.9,1.4c-2,0.5-3.9,1.1-5.8,1.7c-7.7,2.5-15.1,5.7-22.1,9.8
								C253.2,414.9,246.7,419.9,240.7,425.6z"/>
							<path class="st17" d="M289.9,346.3c1.8,1.3,3.2,3,4.7,4.7c1.4,1.7,2.6,3.5,3.8,5.4c2.4,3.7,4.4,7.5,6.3,11.5
								c1.8,4,3.4,8.1,4.6,12.3c1.1,4.2,2,8.7,1.5,13.1c-1.2-4.2-2.8-8.1-4.5-12.1c-1.7-3.9-3.4-7.8-5.2-11.7l-5.4-11.7
								c-0.9-1.9-1.8-3.9-2.7-5.8C292,350.1,291.1,348.1,289.9,346.3z"/>
							<path class="st17" d="M269.1,456.9c-2.4-3.1-4.4-6.6-6.1-10.1c-1.7-3.6-3.1-7.2-4.3-11c-1.2-3.7-2.1-7.6-2.8-11.4
								c-0.7-3.9-1.2-7.8-1.2-11.8c1.6,3.6,2.9,7.3,4.2,11c1.3,3.7,2.5,7.3,3.6,11c1.1,3.7,2.3,7.4,3.4,11.1
								C267,449.3,268.2,453,269.1,456.9z"/>
							<path class="st17" d="M255.2,470.4c0.5-2.1,1.6-4,2.9-5.8c1.3-1.8,2.8-3.4,4.3-4.9c3.2-3,6.8-5.5,10.7-7.6
								c3.8-2.1,7.9-3.8,12-5.2c4.2-1.4,8.4-2.4,12.5-3.4c4.2-1,8.4-1.8,12.7-2.5c4.3-0.7,8.6-1.2,12.9-1.4c4.3-0.2,8.7-0.2,13,0.4
								c4.3,0.6,8.7,1.9,12.2,4.4c-4-1.7-8.2-2.3-12.4-2.4c-4.2-0.1-8.4,0.3-12.6,0.8c-4.2,0.6-8.4,1.2-12.5,2.1
								c-4.2,0.8-8.3,1.7-12.4,2.7c-2.1,0.5-4.1,1-6.2,1.5c-1,0.2-2,0.5-3.1,0.8c-1,0.3-2,0.6-3,0.9c-4,1.2-7.9,2.7-11.8,4.4
								c-3.8,1.8-7.5,3.8-10.8,6.3c-0.9,0.6-1.7,1.3-2.5,1.9c-0.4,0.3-0.8,0.7-1.2,1.1c-0.4,0.4-0.8,0.7-1.1,1.1
								C257.5,466.8,256.1,468.4,255.2,470.4z"/>
						</g>
						<path class="st17" d="M221.6,615.6c1.9,0,3.7,0.4,5.5,1.1c1.7,0.8,3.3,1.9,4.5,3.3c2.5,2.9,3.8,6.6,4.5,10.3
							c0.7,3.8,0.7,7.6,0.4,11.4c0,0.5-0.1,1-0.1,1.4l-0.2,1.4c-0.1,1-0.4,1.9-0.6,2.9c-0.5,1.9-1.2,3.9-2.5,5.6
							c-1.2,1.7-2.8,3.3-4.7,4.3c-1.9,1-3.9,1.6-5.9,1.9c-2,0.4-3.9,0.4-5.9,0.5c-2.1,0.1-4.4-0.4-6.4-1.6c-1.9-1.2-3.4-3.1-4.2-5
							c-0.9-1.9-1.3-3.9-1.6-5.9c-0.2-2-0.3-3.9-0.1-5.8c0.1-1.9,0.3-3.8,0.7-5.7l0-0.1c0.7-2.3,1.6-4.4,2.5-6.5
							c0.9-2.1,2.1-4.1,3.3-6.1c1.2-1.9,2.7-3.7,4.5-5.2C217.1,616.6,219.3,615.6,221.6,615.6z M221.6,615.6c-2.3,0-4.5,1-6.2,2.5
							c-1.7,1.5-3.1,3.4-4.2,5.3c-1.1,2-2,4.1-2.7,6.2c-0.7,2.1-1.3,4.4-1.7,6.5l0-0.1c-0.3,3.6-0.1,7.3,0.6,10.8
							c0.7,3.4,2.2,6.7,4.8,8.1c1.3,0.7,2.8,1,4.4,0.9c0.9-0.1,1.8-0.1,2.7-0.2l1.3-0.1l1.3-0.2c1.7-0.3,3.3-0.7,4.8-1.4
							c1.4-0.7,2.7-1.7,3.7-3c2-2.6,3.1-6.1,3.8-9.6c0.7-3.6,1.1-7.3,0.9-10.9c-0.2-1.8-0.4-3.7-1-5.4c-0.6-1.7-1.4-3.4-2.5-4.9
							c-1.1-1.5-2.6-2.7-4.3-3.5C225.3,616,223.4,615.6,221.6,615.6z"/>
						<path class="st17" d="M216.3,668c3.3-0.5,6.6-1.3,9.7-2.4c3.1-1.1,6-2.5,8.5-4.4c2.5-1.9,4.5-4.3,5.7-7c0.6-1.4,1-2.8,1.3-4.4
							c0.3-1.6,0.6-3.3,0.8-4.9c0.6-3.3,1-6.5,1.3-9.8c0.4-3.3,0.4-6.5,0.1-9.7c-0.3-3.2-1-6.3-2.4-9.2c-1.4-2.9-3.5-5.5-6-7.8
							c3,1.6,5.7,3.9,7.7,6.8c2,2.9,3.2,6.3,3.8,9.8c0.3,1.7,0.5,3.5,0.6,5.2l0.1,2.6l-0.1,2.6c-0.2,3.4-0.6,6.8-1.1,10.2
							c-0.3,1.7-0.6,3.3-0.9,5c-0.4,1.7-0.9,3.6-1.7,5.2c-1.7,3.3-4.3,6.1-7.3,8c-3,1.9-6.4,3.1-9.8,3.8
							C223.1,668.1,219.6,668.3,216.3,668z"/>
						<path class="st17" d="M188.6,716.6c2.6-5.1,6.9-9.6,12.4-12.2c2.7-1.3,5.7-2.1,8.7-2.4c3-0.3,6.1-0.1,9.1,0.7
							c3,0.8,5.8,2.1,8.3,3.7c2.5,1.7,4.8,3.6,6.8,5.8c1,1.1,1.9,2.2,2.8,3.4c0.9,1.2,1.7,2.4,2.4,3.6c1.5,2.5,2.7,5.1,3.6,7.9
							c-3.3-4.7-6.9-9-11-12.7c-2.1-1.8-4.2-3.5-6.6-4.8c-2.3-1.3-4.8-2.4-7.3-3c-5.1-1.3-10.6-1-15.6,0.8
							C197.1,709.1,192.6,712.5,188.6,716.6z"/>
						<path class="st17" d="M252.7,648.1c-0.6,10.4-1.6,20.8-2.8,31.2c-0.5,5.2-1.2,10.3-1.8,15.5l-2,15.5l-2.3,15.5
							c-0.8,5.1-1.6,10.3-2.5,15.4c-1.7,10.3-3.6,20.5-5.8,30.7c0.6-10.4,1.6-20.8,2.8-31.2c0.5-5.2,1.2-10.3,1.8-15.5l2-15.5
							l2.3-15.5c0.8-5.1,1.6-10.3,2.5-15.4C248.6,668.6,250.4,658.3,252.7,648.1z"/>
						<path class="st17" d="M301.3,648.9c0.2,9.9-0.1,19.9-0.5,29.8c-0.2,5-0.4,9.9-0.7,14.9l-0.9,14.8l-1.1,14.8
							c-0.4,4.9-0.8,9.9-1.3,14.8c-1,9.9-2.1,19.7-3.6,29.6c-0.2-9.9,0.1-19.9,0.5-29.8c0.2-5,0.5-9.9,0.7-14.9l0.9-14.8l1.1-14.8
							c0.4-4.9,0.8-9.9,1.3-14.8C298.7,668.6,299.8,658.8,301.3,648.9z"/>
						<path class="st17" d="M349.5,624c-1.7-0.1-3.5,0.1-5.1,0.8c-1.6,0.7-2.9,2-3.7,3.5c-1.6,3.1-1.6,6.6-1.1,10
							c0.3,1.7,0.8,3.3,1.3,4.9c0.5,1.6,1.1,3.2,1.8,4.7c0.7,1.5,1.5,2.8,2.5,3.8c1,1,2.1,1.5,3.5,1.7c0.3,0,0.7,0.1,1,0.1
							c0.4,0,0.7,0,1.1-0.1c0.4-0.1,0.8-0.1,1.1-0.1l0.4-0.1l0.4-0.2c1.1-0.4,2-1.4,2.7-2.8c0.7-1.3,1.3-2.9,1.6-4.5
							c0.4-1.6,0.6-3.3,0.8-5c0.2-1.7,0.2-3.5,0.2-5.2c0-0.8-0.2-1.7-0.4-2.5c-0.2-0.8-0.4-1.7-0.8-2.5c-0.6-1.6-1.5-3.1-2.8-4.3
							c-0.3-0.3-0.7-0.5-1-0.8c-0.4-0.2-0.8-0.4-1.1-0.6c-0.4-0.1-0.8-0.3-1.2-0.4L349.5,624z M349.5,624c1.8,0.1,3.5,0.8,4.8,2
							c1.3,1.2,2.4,2.6,3.2,4.2c0.4,0.8,0.8,1.6,1.1,2.5c0.3,0.8,0.6,1.7,0.7,2.6c0.3,1.8,0.5,3.5,0.6,5.3c0.2,3.6,0.2,7.3-1.3,11
							c-0.4,0.9-0.9,1.9-1.6,2.7c-0.7,0.8-1.6,1.6-2.7,2.1c-0.3,0.1-0.5,0.2-0.8,0.3l-0.8,0.2c-0.5,0.1-1,0.2-1.5,0.3
							c-0.5,0.1-1,0.1-1.5,0.1c-0.5,0-1,0-1.6-0.1c-0.5,0-1.1-0.2-1.6-0.3c-0.5-0.1-1-0.4-1.5-0.6c-0.5-0.2-0.9-0.6-1.4-0.9
							c-0.4-0.3-0.8-0.7-1.2-1.1c-1.4-1.6-2.3-3.4-2.9-5.2c-0.6-1.8-1-3.6-1.3-5.3c-0.3-1.7-0.5-3.6-0.6-5.4c0-1.8,0.1-3.7,0.5-5.4
							c0.4-1.8,1-3.5,2.1-5c1-1.5,2.4-2.7,4.1-3.3C346,624.1,347.8,624,349.5,624z"/>
						<path class="st17" d="M345.7,668.9c-2.5,0.7-5,1.2-7.6,1.4c-2.6,0.2-5.4,0.1-8.1-0.9c-2.7-1-5-3-6.6-5.3
							c-1.6-2.3-2.6-4.9-3.4-7.4l-0.5-1.9l-0.4-1.9c-0.3-1.3-0.5-2.6-0.6-3.9c-0.3-2.6-0.4-5.2-0.3-7.8c0.2-5.2,0.9-10.3,2.4-15.3
							c0.2,5.1,0.3,10.2,0.7,15.2c0.2,2.5,0.5,5,0.9,7.4c0.2,1.2,0.4,2.4,0.7,3.6l0.4,1.8l0.5,1.7c1.3,4.6,3.4,9,7.4,11
							c2,1,4.4,1.6,6.8,1.9C340.6,668.7,343.1,668.8,345.7,668.9z"/>
						<path class="st17" d="M350.6,721.3c-1.4-2.4-2.7-4.8-4.6-6.6c-1.8-1.9-4.1-3.1-6.5-3.8c-2.4-0.7-5-0.8-7.6-0.7l-1,0
							c-0.3,0-0.6,0.1-1,0.1l-1.9,0.2c-1.3,0.2-2.5,0.5-3.8,0.8c-5,1.4-9.9,3.7-14.5,6.4c-4.6,2.8-9,6-13.3,9.6
							c3-4.7,7-8.7,11.5-12.2c4.5-3.4,9.6-6.2,15.2-7.7c0.7-0.2,1.4-0.3,2.1-0.4c0.7-0.1,1.4-0.3,2.1-0.4l2.2-0.2
							c0.4,0,0.7-0.1,1.1-0.1l1.1,0c2.9,0,5.9,0.4,8.7,1.5c0.7,0.3,1.4,0.6,2,1c0.3,0.2,0.7,0.4,1,0.6l0.9,0.7
							c1.2,0.9,2.2,2,3.1,3.2C349.1,715.8,350,718.5,350.6,721.3z"/>
						<path class="st17" d="M169.1,565.9c1.9-7.9,4.2-15.7,6.6-23.5c1.2-3.9,2.5-7.7,3.7-11.6l3.9-11.5l4.1-11.5
							c1.4-3.8,2.8-7.6,4.3-11.4c3-7.6,6-15.1,9.5-22.5c-1.9,7.9-4.2,15.7-6.6,23.5c-1.2,3.9-2.5,7.7-3.7,11.6l-3.9,11.5l-4.1,11.4
							c-1.4,3.8-2.8,7.6-4.3,11.4C175.7,551,172.6,558.5,169.1,565.9z"/>
						<path class="st17" d="M223,414.8c-0.7,4.2-1.8,8.2-3,12.2c-1.2,4-2.6,7.9-4,11.8c-1.5,3.9-3.1,7.7-4.8,11.5
							c-1.8,3.8-3.6,7.5-5.9,11.1c0.7-4.2,1.8-8.2,3-12.2c1.2-4,2.6-7.9,4-11.8c1.5-3.9,3.1-7.7,4.8-11.5
							C218.8,422.1,220.7,418.3,223,414.8z"/>
						<path class="st17" d="M341.1,400.5c3.1,1.1,5.9,2.6,8.7,4.2c2.8,1.6,5.4,3.3,8,5.1c2.6,1.8,5.1,3.8,7.5,5.8
							c2.4,2.1,4.7,4.3,6.9,6.8c-3.1-1.1-5.9-2.6-8.7-4.2c-2.8-1.6-5.4-3.3-8-5.1c-2.6-1.8-5.1-3.8-7.5-5.8
							C345.5,405.1,343.2,403,341.1,400.5z"/>
						<path class="st17" d="M504.4,404.5c-6.8,4.2-13.9,8.1-20.9,11.8c-3.5,1.9-7.1,3.7-10.7,5.5l-10.8,5.3l-10.9,5.1
							c-3.7,1.6-7.3,3.3-11,4.9c-7.3,3.2-14.7,6.3-22.3,9c6.8-4.2,13.9-8.1,20.9-11.8c3.5-1.9,7.1-3.7,10.7-5.5l10.8-5.3l10.9-5.1
							c3.6-1.6,7.3-3.3,11-4.9C489.5,410.3,496.9,407.2,504.4,404.5z"/>
						<path class="st17" d="M238.1,312.1c7.4,0.5,14.8,1.1,22.1,1.3c3.7,0.1,7.3,0.2,11,0.2l2.7,0l2.7-0.1l2.7-0.1l2.7-0.2l2.7-0.1
							c0.9,0,1.8-0.1,2.7-0.2c1.8-0.2,3.6-0.3,5.4-0.5c3.6-0.3,7.2-1,10.8-1.6c7.1-1.4,14.2-3.4,20.9-6.6c-5.9,4.6-13,7.6-20.2,9.6
							c-3.6,1-7.3,1.8-11,2.3c-1.8,0.3-3.7,0.5-5.6,0.7c-1.9,0.2-3.7,0.3-5.6,0.4l-2.8,0.1l-2.8,0c-1.9,0-3.7,0-5.6-0.1
							c-1.9-0.1-3.7-0.2-5.6-0.3c-1.9-0.1-3.7-0.3-5.6-0.5C252.5,315.6,245.2,314.3,238.1,312.1z"/>
						<path class="st17" d="M333.9,453.2l-0.1,1.4c-13.4,8.8-36.1,11.2-65.4,17.5v-4.6C304.4,446.6,333.9,453.2,333.9,453.2z"/>
						<path class="st17" d="M333.5,463.4l-0.7,11.2c-6.9,2.5-33.6,6.9-64.1,2.3v-2.4C300.7,474.4,328.4,469.3,333.5,463.4z"/>
						<path class="st22" d="M230.2,293.8c-1,0-2,0.3-3,0.7c-0.5,0.1-1,0.3-1.5,0.5c-0.5,0.1-1,0.3-1.5,0.5c-0.5,0.1-1,0.3-1.5,0.5
							c-0.5,0.1-1,0.3-1.5,0.5c-0.5,0.1-1,0.3-1.5,0.5c-0.5,0.1-1,0.3-1.5,0.5c-0.5,0.1-1,0.3-1.5,0.5c-0.5,0.1-1,0.3-1.5,0.5
							c-3.4,0.6-6,5.3-6,11c0,6.1,3,11.1,6.7,11.1c0,0,0.1,0,0.1,0c0.5,0.2,0.9,0.2,1.4,0.2c0,0,0.1,0,0.1,0c0.5,0.2,1,0.2,1.5,0.2
							c0,0,0,0,0.1,0c0.5,0.2,1,0.2,1.5,0.2c0,0,0,0,0,0c0.5,0.2,1,0.2,1.5,0.2c0,0,0,0,0,0c0.5,0.2,1,0.2,1.5,0.2
							c0.5,0.1,1,0.2,1.5,0.2c0.5,0.1,1,0.2,1.5,0.2c0.5,0.1,1,0.2,1.5,0.2c0.6,0.2,1.1,0.2,1.7,0.2c5.3,0,9.6-6.6,9.6-14.7
							C239.8,300.4,235.5,293.8,230.2,293.8z"/>
						<ellipse class="st22" cx="216.4" cy="309.6" rx="6.7" ry="11.1"/>
					</g>
					<g>
						<path class="st23" d="M512.7,67c0,0,53.7,100.7,135.8,113.9c0,0-80.2-49.5-91.4-76.7c0,0,30.6,27.8,56.3,33.3
							c0,0-15.4-18-15.8-22.2c0,0,22.5,26,49.6,29.8c0,0-10.9-14.5-10-30.2c0,0,0.6,13.2,20.9,19.6c0,0-17.1-23.1-8-44.5
							c0,0-2.6,0.7,1.9,8.2c0,0,4.5-16.4,11.9-22.1"/>
						<polygon class="st14" points="591.6,780.5 553,783.2 504,5.8 517.1,0.5 						"/>
						<polygon class="st2" points="661.1,775.5 591.6,780.5 517.1,0.5 532.4,-5.8 						"/>
						<polygon class="st2" points="576.8,183.4 565.2,305.7 576.8,332.1 582.7,189.9 						"/>
						<path class="st23" d="M250.5,156.4c0,0,174.4-19.3,240.1-99.1s74.7-90.1,74.7-90.1s-45.7,150-157.4,182.1
							S250.5,156.4,250.5,156.4z"/>
						<path class="st23" d="M382.4,187.9c0,0,104.3-52.8,168-168c0,0-45.7,118.4-100.4,145.8s-70.8,22.2-70.8,22.2"/>
						<path class="st23" d="M284,84.3c0,0,101,23.2,164.1-9.7c63-32.8,30.9-97.8,30.9-97.8s4,78.2-52.8,89.6
							C362.5,79.3,284,84.3,284,84.3z"/>
						<path class="st23" d="M517.6,101.7L497,150.6c0,0,14.2-7.1,19-24.5L517.6,101.7z"/>
						<path class="st15" d="M538.8,155.1c1.5,9,2.8,17.9,4.2,26.9c1.4,9,2.6,17.9,3.8,26.9c2.5,17.9,4.8,35.9,7,53.9
							c2.2,18,4.3,36,6.3,54l2.9,27l2.8,27l-11-3.8l11.5-12.3l9.5-10.1l1.6,13.9c1.2,10.8,2.4,21.7,3.5,32.5
							c1.2,10.8,2.2,21.7,3.4,32.5l3.2,32.5c1,10.9,2,21.7,2.9,32.6c1.9,21.7,3.6,43.5,5.2,65.2c1.4,21.8,2.9,43.5,3.8,65.4
							c-3.9-21.5-7.1-43.1-10.4-64.6c-3.2-21.6-6.2-43.2-9-64.8c-1.4-10.8-2.8-21.6-4.2-32.4l-3.9-32.5c-1.3-10.8-2.5-21.6-3.7-32.5
							c-1.2-10.8-2.4-21.7-3.5-32.5l11.1,3.7L564,375.7l-9.8,10.3l-1.2-14.1l-2.4-27.1l-2.2-27.1c-1.4-18-2.8-36.1-4-54.2
							c-1.2-18.1-2.4-36.1-3.3-54.2c-0.5-9-1-18.1-1.3-27.1C539.4,173.2,539,164.2,538.8,155.1z"/>
					</g>
				</g>
			</g>
		</g>
	</g>
</g>
<g id="ironman">
	
		<image style="overflow:visible;" width="800" height="600" xlink:href="8DE30711.jpg"  transform="matrix(4.2767 0 0 4.2767 5257.1987 2503.4722)">
	</image>
	<g>
		<path id="Shape" class="st1" d="M445.2,692.5l7.5-4.3l0.3,0.6c0.8,1.4,1.3,2.7,1.6,3.9c0.2,1.2,0.2,2.4,0,3.7
			c-0.6,2.9-2.2,5.1-4.8,6.6c-2.5,1.5-5.3,1.8-8.1,1c-2.9-0.8-5.1-2.5-6.6-5.1c-1.5-2.6-1.9-5.4-1.1-8.3c0.8-2.9,2.5-5.1,5.1-6.7
			c1.4-0.8,2.9-1.3,4.5-1.4c1.5-0.1,3.2,0.2,5.1,0.8l-0.9,3c-2.6-1.1-5-1.1-7.2,0.2c-1.9,1.1-3.2,2.7-3.7,4.8
			c-0.6,2.1-0.3,4.1,0.9,6c1.2,2,2.9,3.3,5.1,3.8c2.1,0.4,3.9,0.2,5.5-0.7c1.4-0.8,2.3-1.9,2.9-3.5c0.5-1.5,0.5-3-0.1-4.3l-4.5,2.6
			L445.2,692.5z"/>
		
			<rect id="Rectangle-path" x="462.5" y="671.6" transform="matrix(0.866 -0.5 0.5 0.866 -278.8683 323.4119)" class="st24" width="3.2" height="21"/>
		<polygon id="Shape_1_" class="st1" points="477.3,665.7 486.4,681.3 483.6,682.9 474.6,667.3 470.4,669.7 468.9,667.1 480,660.7 
			481.5,663.3 		"/>
		<path id="Shape_2_" class="st1" d="M502.1,649.3l1.9,3.2c-2.4-0.4-4.4-0.1-6.1,0.9c-1.9,1.1-3.1,2.7-3.6,4.7
			c-0.5,2.1-0.2,4.1,0.9,6c1.1,1.9,2.7,3.1,4.7,3.7c2,0.6,4,0.3,5.9-0.8c1-0.6,1.7-1.2,2.2-1.9c0.3-0.4,0.6-0.8,0.8-1.3
			c0.3-0.5,0.5-1.1,0.7-1.7l1.9,3.3c-1.1,1.8-2.5,3.2-4.2,4.2c-2.6,1.5-5.3,1.9-8.2,1.1c-2.9-0.8-5.1-2.5-6.6-5
			c-1.3-2.3-1.8-4.8-1.3-7.5c0.6-3.3,2.4-5.8,5.4-7.6C498.3,649.7,500.1,649.3,502.1,649.3"/>
		<path id="Shape_3_" class="st25" d="M518.2,646.9c1.2,2,2.8,3.3,4.9,3.8c2.1,0.5,4,0.3,5.8-0.7c1.9-1.1,3.1-2.7,3.7-4.8
			c0.5-2.1,0.3-4.1-0.8-6c-1.1-1.9-2.7-3.2-4.8-3.8c-2.1-0.6-4-0.3-5.9,0.8c-1.9,1.1-3.1,2.7-3.7,4.7
			C516.9,643,517.1,644.9,518.2,646.9 M515.5,648.4c-1.5-2.6-1.8-5.3-1-8.2c0.8-2.9,2.5-5.1,5.2-6.7c2.6-1.5,5.4-1.9,8.3-1.1
			c2.9,0.8,5.2,2.5,6.7,5.1c1.5,2.6,1.9,5.4,1,8.3c-0.8,2.9-2.6,5.1-5.2,6.7c-2.4,1.4-4.9,1.8-7.7,1.2
			C519.5,653.1,517.1,651.3,515.5,648.4"/>
		
			<rect id="Rectangle-path_1_" x="544.1" y="624.5" transform="matrix(0.866 -0.5 0.5 0.866 -244.3737 357.9065)" class="st24" width="3.2" height="21"/>
		<polygon id="Shape_4_" class="st1" points="563,637.1 551.7,617.7 573,623.9 565.7,611.2 568.5,609.7 579.6,629 558.3,622.8 
			565.7,635.5 		"/>
	</g>
</g>
</svg>
