<svg id="Layer_1" data-name="Layer 1" xmlns="http://www.w3.org/2000/svg" viewBox="0 0 110.85 128"><defs><style>.cls-1{fill:#963;}.cls-2{fill:#00dfbf;}.cls-28,.cls-3,.cls-8,.cls-9{fill:#fff;}.cls-4{fill:#ececec;}.cls-5{fill:#e7e7e7;}.cls-6{fill:#fafafa;}.cls-7{opacity:0.07;}.cls-8{opacity:0.6;}.cls-9{opacity:0.7;}.cls-10{opacity:0.1;}.cls-11{fill:#375a64;}.cls-12{fill:#1a2e35;}.cls-13{opacity:0.5;}.cls-14,.cls-28{opacity:0.4;}.cls-15{opacity:0.3;}.cls-16{fill:#2b454e;}.cls-17{opacity:0.2;}.cls-18{opacity:0.05;}.cls-19{opacity:0.35;}.cls-20{opacity:0.25;}.cls-21{opacity:0.45;}.cls-22{opacity:0.15;}.cls-23{fill:#f5f5f5;}.cls-24{fill:#e1e1e1;}.cls-25{fill:#fc6;opacity:0.72;}.cls-26{fill:#ff6;}.cls-27{opacity:0.13;isolation:isolate;}</style></defs><title>rivergoods</title><g id="Layer_63" data-name="Layer 63"><polygon class="cls-1" points="110.85 32 110.85 96 55.43 128 11.08 102.4 10.88 102.28 0 96 0 32 55.43 0 110.85 32"/></g><path class="cls-2" d="M101.95,37.61V90.75h0l-1.09.62-.33.19-.13.07-.88.51L96.37,94l-.2.12-1.93,1.11-.16.09-1.48.86-.47.27-.14.08-.47.27-.24.13h0l-.1,0L91,97l-3,1.74-.82.47-1.05.6,0,0-1.23.71-.45.26,0,0h0l-1.54.89-.87.52-1.26.72-.05,0-.07,0-.08.05-.41.24h0l-.05,0-.05,0-.06,0h0l-.78.45L79,104l0,0,0,0-1,.58-.14.08-.15.09-.05,0-.32.18-.24.14h0l-.07,0-.64.38-.2.12-.33.19-.25.14a0,0,0,0,1,0,0l-.47.27-.42.24,0,0-.57.33-2.33,1.34-.63.36-.06,0-3.5,2h0l-.4.23-.35.2-.5.29-.14.08-1.25.72-1,.57-.39.22h0l-.43.25-.4.23-2.36,1.36-.36.21,0,0-.18.1-.5.29-1.87,1.08-.56.32h0l-.32.19-.48.28-.14-.08-1.28-.74-.85-.49h0l-.91-.53-.17-.1,0,0-.61-.35-.17-.1-3.36-1.94,0,0-2.07-1.19-4.75-2.76-.61-.35-.69-.39-.93-.54-.22-.12-.09-.06,0,0-2.23-1.29-1.22-.71-.37-.21-.39-.22-.23-.13-.26-.15-.24-.15-.09-.05-.35-.2-.08-.05-.08,0,0,0L32,103.5l0,0-.15-.08-.37-.22-1.71-1-2.51-1.46-2.09-1.2L24.32,99,24.23,99l-.5-.29h0l-.21-.12h0l-1-.6h0l-1.86-1.08-1-.59-1.33-.77-.72-.43,0,0h0l-.29-.17h0l-.26-.15h0l-3.3-1.9-3.41-2-.09-.05-.08,0,0,0V37.61l5.66-3.26.77-.46h0l.25-.14.58-.33,1.75-1,2.27-1.31.82-.48.15-.09,2.07-1.19,1-.57,1-.59.42-.24.45-.26.25-.14h0l.57-.33,3.23-1.86,1.58-.92.17-.09,1.66-1,.78-.45.38-.22.44-.26,1.1-.65.52-.3,2.28-1.3.69-.41,1.4-.8h0l0,0L48,15.67l.19-.11.27-.16,6.07-3.51,1.44-.83,1.06.62,6.49,3.75,2.6,1.5L70,19.21l1.34.77L78,23.81l1,.61,2.3,1.31.87.5,1.52.88,1.37.79.8.46.09.06,1.81,1,3.78,2.18,0,0h0l.26.14.26.16.4.23.92.53L94,33h0L96,34.17l.78.44.44.25L99.13,36Z" transform="translate(-0.01 0.01)"/><path class="cls-2" d="M69,115.06l1.57-.9.07.12a3,3,0,0,1,.34.81,1.89,1.89,0,0,1,0,.76,2,2,0,0,1-1,1.37,2.13,2.13,0,0,1-1.69.21,2.28,2.28,0,0,1-.52-4.17,2.23,2.23,0,0,1,.93-.3,2.75,2.75,0,0,1,1.06.17l-.18.63a1.59,1.59,0,0,0-1.49,0,1.56,1.56,0,0,0-.77,1,1.6,1.6,0,0,0,.18,1.25,1.54,1.54,0,0,0,1.05.78,1.57,1.57,0,0,0,1.14-.15,1.32,1.32,0,0,0,.59-.72,1.18,1.18,0,0,0,0-.9l-.95.54Z" transform="translate(-0.01 0.01)"/><rect class="cls-2" x="72.64" y="110.73" width="0.66" height="4.37" transform="matrix(0.87, -0.5, 0.5, 0.87, -46.64, 51.51)"/><polygon class="cls-2" points="75.72 109.52 77.59 112.78 77.02 113.1 75.15 109.85 74.28 110.36 73.97 109.82 76.28 108.49 76.59 109.03 75.72 109.52"/><path class="cls-2" d="M80.89,106.1l.39.68a1.83,1.83,0,0,0-1.26.17,1.51,1.51,0,0,0-.74,1,1.63,1.63,0,0,0,.19,1.25,1.59,1.59,0,0,0,1,.78,1.54,1.54,0,0,0,1.22-.16,1.41,1.41,0,0,0,.46-.39,1.67,1.67,0,0,0,.17-.27,3.41,3.41,0,0,0,.15-.36l.4.69a2.38,2.38,0,0,1-.87.87,2.2,2.2,0,0,1-1.71.23,2.17,2.17,0,0,1-1.37-1,2.25,2.25,0,0,1-.26-1.57,2.19,2.19,0,0,1,1.12-1.57,2.23,2.23,0,0,1,1.15-.29" transform="translate(-0.01 0.01)"/><path class="cls-3" d="M83.66,105.93a2.14,2.14,0,0,1-.2-1.71,2.24,2.24,0,0,1,1.07-1.38,2.29,2.29,0,0,1,3.1.84,2.15,2.15,0,0,1,.21,1.72,2.31,2.31,0,0,1-2.7,1.64,2.14,2.14,0,0,1-1.49-1.1m.58-.33a1.62,1.62,0,0,0,3-.35,1.7,1.7,0,0,0-1.16-2,1.54,1.54,0,0,0-1.23.16,1.56,1.56,0,0,0-.76,1,1.58,1.58,0,0,0,.17,1.24" transform="translate(-0.01 0.01)"/><rect class="cls-2" x="89.62" y="100.95" width="0.66" height="4.37" transform="translate(-39.5 58.73) rotate(-29.97)"/><polygon class="cls-2" points="93.53 103.6 91.2 99.56 95.63 100.86 94.12 98.22 94.69 97.89 97 101.92 92.58 100.62 94.11 103.27 93.53 103.6"/><g id="Clouds"><g id="_Group_" data-name="&lt;Group&gt;"><path id="_Path_" data-name="&lt;Path&gt;" class="cls-4" d="M50.94,27.86l.88.51a1.07,1.07,0,0,1,0-.12V28c0-.45.32-.64.71-.41a1.38,1.38,0,0,1,.42.41c.06-.57.51-.78,1.06-.47a2.35,2.35,0,0,1,1.06,1.84v.38a1,1,0,0,1-.09.44l.73.42a.87.87,0,0,1,.39.68c0,.25-.18.35-.39.23l-4.77-2.75a.87.87,0,0,1-.39-.68C50.54,27.84,50.72,27.73,50.94,27.86Z" transform="translate(-0.01 0.01)"/></g><g id="_Group_2" data-name="&lt;Group&gt;"><path id="_Path_2" data-name="&lt;Path&gt;" class="cls-4" d="M57.37,24.25l.49.19V23.37c0-.85.68-1.05,1.41-.63h0A2.94,2.94,0,0,1,60.59,25v.16a.71.71,0,0,1,.62.1h0a2.12,2.12,0,0,1,1,1.66V27l.68.39a1.39,1.39,0,0,1,.63,1.09c0,.4-.28.56-.63.36l-5.48-3.16a1.39,1.39,0,0,1-.63-1.09C56.74,24.21,57,24,57.37,24.25Z" transform="translate(-0.01 0.01)"/></g></g><g id="Mountains"><path class="cls-5" d="M16.93,68.74V48L24,37.39a.77.77,0,0,1,1.26,0l5.9,8L41,26.17a.77.77,0,0,1,1.36,0l7,12.12,3.15-4a.77.77,0,0,1,1.28.09l5.21,7.47L65.6,29.69a.77.77,0,0,1,1.35,0L75.13,44l3.21-4.82a.77.77,0,0,1,1.29,0L82.83,44l5.08-6.85a.77.77,0,0,1,1.29.07l5.58,9.66V68.74Z" transform="translate(-0.01 0.01)"/><path class="cls-6" d="M52.45,34.25l-1.31,1.67.44.51a.53.53,0,0,0,.82,0l.29-.35a.53.53,0,0,1,.81,0h0a.53.53,0,0,0,.86-.09l.22-.39-.86-1.23A.77.77,0,0,0,52.45,34.25Z" transform="translate(-0.01 0.01)"/><path class="cls-6" d="M65.6,29.69l-2.49,4.54.31.62a.58.58,0,0,0,1,.05L65,34a.58.58,0,0,1,.94-.06h0a.58.58,0,0,0,.92,0l.57-.78a.58.58,0,0,1,.83-.11l1.12.89L67,29.67A.77.77,0,0,0,65.6,29.69Z" transform="translate(-0.01 0.01)"/><path class="cls-6" d="M78.34,39.22,76.9,41.37,78,40.71a.38.38,0,0,1,.5.1l.31.4a.38.38,0,0,0,.57,0l.26-.26a.38.38,0,0,1,.54,0l1.65,1.6h0l-2.25-3.37A.77.77,0,0,0,78.34,39.22Z" transform="translate(-0.01 0.01)"/><path class="cls-6" d="M41,26.17l-1.64,3.22.18.29a.72.72,0,0,0,1.14.1l.48-.54a.72.72,0,0,1,1.06,0l1,1.15a.72.72,0,0,0,1.07,0l.28-.32-2.26-3.92A.77.77,0,0,0,41,26.17Z" transform="translate(-0.01 0.01)"/><path class="cls-6" d="M89.2,37.27a.77.77,0,0,0-1.29-.07l-1.47,2,.68,1.18a.45.45,0,0,0,.74.05l.54-.69a.45.45,0,0,1,.7,0l.19.23a.45.45,0,0,0,.76-.11l.26-.64Z" transform="translate(-0.01 0.01)"/><path class="cls-6" d="M24.67,39.83l.7.4a.68.68,0,0,0,.79-.08l.71-.64-1.58-2.15a.77.77,0,0,0-1.26,0l-1.91,2.87.15.17a.68.68,0,0,0,.95.06l.67-.58A.68.68,0,0,1,24.67,39.83Z" transform="translate(-0.01 0.01)"/><g class="cls-7"><polygon points="25.28 37.38 23.16 43.79 24.24 44.05 22.7 48.5 26.87 43.79 29.56 48.57 31.18 45.39 25.28 37.38"/><polygon points="42.3 26.15 44.26 35.17 41.2 38.71 40.78 49.08 49.3 38.27 42.3 26.15"/><polygon points="53.72 34.36 52.76 37.82 54.3 37.82 51.53 44.89 55.85 41.38 57.81 43.85 58.93 41.83 53.72 34.36"/><polygon points="75.11 44.05 66.94 29.69 68.95 36.93 66.32 40.76 72.8 42.72 70.72 45.07 71.81 46.44 70.13 51.54 75.11 44.05"/><polygon points="79.61 39.23 78.29 43.22 80.07 42.97 80.05 47.79 82.82 44.05 79.61 39.23"/><polygon points="89.19 37.28 91.62 44.54 88.75 47.47 90.99 49.83 88.75 57.1 94.77 46.94 89.19 37.28"/></g></g><g id="Mountains-2" data-name="Mountains"><path class="cls-2" d="M16.93,68.74v-5.9l14.2-24a.63.63,0,0,1,1.09,0l6.11,10.33,3.82-4.89a.63.63,0,0,1,1,0L57,63.22v5.52Z" transform="translate(-0.01 0.01)"/><path class="cls-8" d="M16.93,68.74v-5.9l14.2-24a.63.63,0,0,1,1.09,0l6.11,10.33,3.82-4.89a.63.63,0,0,1,1,0L57,63.22v5.52Z" transform="translate(-0.01 0.01)"/><path class="cls-9" d="M28.07,46.8a.75.75,0,0,0,1,0l1.78-1.85a.75.75,0,0,1,1.1,0l.41.45a.75.75,0,0,0,1.09,0,.75.75,0,0,1,1.15.1l.26.38a.75.75,0,0,0,1.35-.25v0l-4-6.82a.63.63,0,0,0-1.09,0l-4.14,7Z" transform="translate(-0.01 0.01)"/><path class="cls-9" d="M39.78,47.51l1-.42a.48.48,0,0,1,.6.19l.18.3a.48.48,0,0,0,.74.1l.21-.2a.48.48,0,0,1,.75.11l.35.59a.48.48,0,0,0,.86-.07l.13-.33a.48.48,0,0,1,.64-.26.47.47,0,0,0,.3,0l-2.41-3.29a.63.63,0,0,0-1,0l-2.58,3.3A.48.48,0,0,0,39.78,47.51Z" transform="translate(-0.01 0.01)"/><polygon class="cls-10" points="39.53 49.15 42.14 44.26 38.32 49.15 41.41 53.67 39.53 49.15"/></g><g id="Mountains-3" data-name="Mountains"><path class="cls-2" d="M94.76,62.07,83.18,42.46a.56.56,0,0,0-1,0l-5.42,9.16L73.4,47.29a.56.56,0,0,0-.9,0L60.23,64.11v4.62H94.78Z" transform="translate(-0.01 0.01)"/><path class="cls-8" d="M94.76,62.07,83.18,42.46a.56.56,0,0,0-1,0l-5.42,9.16L73.4,47.29a.56.56,0,0,0-.9,0L60.23,64.11v4.62H94.78Z" transform="translate(-0.01 0.01)"/><path class="cls-9" d="M85.89,49.55a.66.66,0,0,1-.92,0l-1.58-1.64a.66.66,0,0,0-1,0l-.36.4a.66.66,0,0,1-1,0,.66.66,0,0,0-1,.09l-.23.34a.66.66,0,0,1-1.19-.22v0l3.57-6a.56.56,0,0,1,1,0l3.67,6.22Z" transform="translate(-0.01 0.01)"/><path class="cls-9" d="M75.51,50.19l-.9-.37a.43.43,0,0,0-.53.17l-.16.26a.43.43,0,0,1-.66.09l-.19-.18a.43.43,0,0,0-.66.09l-.31.52a.43.43,0,0,1-.77-.06l-.12-.29a.43.43,0,0,0-.57-.23.42.42,0,0,1-.27,0l2.13-2.92a.56.56,0,0,1,.9,0l2.28,2.93A.43.43,0,0,1,75.51,50.19Z" transform="translate(-0.01 0.01)"/><polygon class="cls-10" points="75.71 51.64 73.39 47.3 76.78 51.64 74.04 55.65 75.71 51.64"/></g><g id="Shrubbery"><path id="Shrubbery-2" data-name="Shrubbery" class="cls-11" d="M50.65,56.13a6.67,6.67,0,0,1-2.24,1.18c-8.65.86-16.94,3.21-23.62,7.07a29.83,29.83,0,0,0-9.6,8.32,2.6,2.6,0,0,1-.8-.09,1,1,0,0,1-.62-.7.83.83,0,0,1,.28-.68,2.24,2.24,0,0,1,.35-.22c-.75-.08-.86-1-.65-1.36a2.3,2.3,0,0,1,2-1,6.27,6.27,0,0,1-.28-.81,1.61,1.61,0,0,1,.25-1,1.25,1.25,0,0,1,1-.56,2,2,0,0,1,.87.12c-1-2.09,1-3.72,2.84-2.07a1.49,1.49,0,0,1,.07-1.91,1.84,1.84,0,0,1,2.09.11,2.16,2.16,0,0,1,.58-2.89c.85-.56,1.3,0,1.7.79,0-1.54,2.5-2.68,3.13-1,.43-1.51,1.87-3,3-1.22C31,56,33.7,56,34.72,57.39a1.47,1.47,0,0,1,2.82-.8c0-2.1,2.63-3.19,3-.8.13-1.77,2.07-1.23,2.39.14.38-1.12,2.34-1.92,2.63-.46.15-.72,1-1.6,1.8-1.37a1.46,1.46,0,0,1,1,1c.08-1.24,1.41-.79,1.41,0A.7.7,0,0,1,50.65,56.13Z" transform="translate(-0.01 0.01)"/><path id="Shrubbery-3" data-name="Shrubbery" class="cls-11" d="M98.09,71.75c.58.28,1.07,1.06.48,1.65a1.46,1.46,0,0,1-1.27.21l-.2-.06a28.91,28.91,0,0,0-10.17-9.17c-7.36-4.25-16.69-6.68-26.3-7.28h0l-1.17-.16a7.56,7.56,0,0,1-3.49-1,1.51,1.51,0,0,1-.43-.77,1.44,1.44,0,0,1,.16-1,2.41,2.41,0,0,1,2.72-.68c.23.07,1.66,1,1.48,1.3.31-.51,1-1.07,1,0,.47-.32,1.08-.53,1.18.25a4.93,4.93,0,0,1,1-1.29,1.2,1.2,0,0,1,1.6.08,1.37,1.37,0,0,1,.24.62A.55.55,0,0,1,65.6,54c.24.07.31.2.39.42a1.1,1.1,0,0,1,1-.54c.27,0,.45.29.52.53s0,.45,0,.71a.66.66,0,0,1,.59-.22c.24.06.29.29.35.48.11-.35.64-.57,1-.65a1.84,1.84,0,0,1,.88,0,.54.54,0,0,1,.37.29.37.37,0,0,1,0,.38c-.06.08-.26.38-.35.4.64-.13,1.72-.16,1.6.78.56-.81,2.16-.75,2.26.42.91-1.2,2-1.63,2.09.15.86-1.07,1.83,0,1.93.92a1.57,1.57,0,0,1,1.76-.48c.47.18.58.54.76,1,1.15-1.08,2.46-.4,2.76,1,.76-.56,2.79-1,2.68.92a1.63,1.63,0,0,1,2.36-.12A2.57,2.57,0,0,1,88.67,62c.51-.94,2.1-.72,2.77-.06s.32,1.13.26,1.82c.67-.7,2.24-.25,2.67.52a2.14,2.14,0,0,1-.11,1.74c.13-.42.91-.26,1.2-.18a1.87,1.87,0,0,1,1.14.85,2.56,2.56,0,0,1,.31,2.49,2.46,2.46,0,0,1,1.87.83,1,1,0,0,1,.07,1A2,2,0,0,1,98.09,71.75Z" transform="translate(-0.01 0.01)"/></g><path id="Grass" class="cls-2" d="M24.79,98.46c-17.16-9.91-17.16-26,0-35.87s45-9.91,62.13,0,17.16,26,0,35.87S41.95,108.37,24.79,98.46Z" transform="translate(-0.01 0.01)"/><g id="Pine"><g id="_Group_3" data-name="&lt;Group&gt;"><g id="_Group_4" data-name="&lt;Group&gt;"><path id="_Path_3" data-name="&lt;Path&gt;" class="cls-12" d="M73.58,57.63v3.83a.18.18,0,0,1-.11.15.57.57,0,0,1-.51,0,.18.18,0,0,1-.11-.15V57.63Z" transform="translate(-0.01 0.01)"/></g><path id="_Path_4" data-name="&lt;Path&gt;" class="cls-2" d="M70.12,59.13l2.89-7h.4l2.89,7a.37.37,0,0,1-.27.5h0a.37.37,0,0,0-.29.41h0a.37.37,0,0,1-.48.4l-.14,0a.37.37,0,0,0-.44.2l-.14.32a.37.37,0,0,1-.52.17l-.56-.33a.37.37,0,0,0-.38,0l-.56.33a.37.37,0,0,1-.52-.17l-.14-.32a.37.37,0,0,0-.44-.2l-.14,0a.37.37,0,0,1-.47-.4h0a.37.37,0,0,0-.29-.41h0A.37.37,0,0,1,70.12,59.13Z" transform="translate(-0.01 0.01)"/><path id="_Path_5" data-name="&lt;Path&gt;" class="cls-13" d="M70.12,59.13l2.89-7h.4l2.89,7a.37.37,0,0,1-.27.5h0a.37.37,0,0,0-.29.41h0a.37.37,0,0,1-.48.4l-.14,0a.37.37,0,0,0-.44.2l-.14.32a.37.37,0,0,1-.52.17l-.56-.33a.37.37,0,0,0-.38,0l-.56.33a.37.37,0,0,1-.52-.17l-.14-.32a.37.37,0,0,0-.44-.2l-.14,0a.37.37,0,0,1-.47-.4h0a.37.37,0,0,0-.29-.41h0A.37.37,0,0,1,70.12,59.13Z" transform="translate(-0.01 0.01)"/><path class="cls-10" d="M74.37,54.47l-1-2.18H73L71.43,56l-.7,1.68a.22.22,0,0,0,.19.25h0a.28.28,0,0,1,.23.31v.05a.28.28,0,0,0,.38.29l.14-.05a.28.28,0,0,1,.35.15l.18.4a.28.28,0,0,0,.4.13l.48-.32a.28.28,0,0,1,.29,0l.53.32a.28.28,0,0,0,.4-.13l.18-.4a.28.28,0,0,1,.35-.15l.14.05a.28.28,0,0,0,.38-.29v-.05a.28.28,0,0,1,.23-.31.21.21,0,0,0,.17-.15Z" transform="translate(-0.01 0.01)"/><path id="_Path_6" data-name="&lt;Path&gt;" class="cls-2" d="M70.77,57.1,73,51.87h.4l2.3,5.23c.08.17,0,.37-.15.4a.28.28,0,0,0-.23.31v.05a.28.28,0,0,1-.38.29l-.14-.05a.28.28,0,0,0-.35.15l-.18.4a.28.28,0,0,1-.4.13l-.53-.32a.28.28,0,0,0-.29,0l-.48.32a.28.28,0,0,1-.4-.13l-.18-.4a.28.28,0,0,0-.35-.15l-.14.05a.28.28,0,0,1-.38-.29v-.05a.28.28,0,0,0-.23-.31h0C70.73,57.47,70.68,57.27,70.77,57.1Z" transform="translate(-0.01 0.01)"/><path id="_Path_7" data-name="&lt;Path&gt;" class="cls-14" d="M70.77,57.1,73,51.87h.4l2.3,5.23c.08.17,0,.37-.15.4a.28.28,0,0,0-.23.31v.05a.28.28,0,0,1-.38.29l-.14-.05a.28.28,0,0,0-.35.15l-.18.4a.28.28,0,0,1-.4.13l-.53-.32a.28.28,0,0,0-.29,0l-.48.32a.28.28,0,0,1-.4-.13l-.18-.4a.28.28,0,0,0-.35-.15l-.14.05a.28.28,0,0,1-.38-.29v-.05a.28.28,0,0,0-.23-.31h0C70.73,57.47,70.68,57.27,70.77,57.1Z" transform="translate(-0.01 0.01)"/><path class="cls-10" d="M75.08,55.66l-1.67-3.79H73l-1.64,3.82,0,0h0a.25.25,0,0,1,.13.24h0a.25.25,0,0,0,.31.26l.1,0a.25.25,0,0,1,.29.12l.13.25a.25.25,0,0,0,.34.1l.37-.19a.25.25,0,0,1,.23,0l.37.19a.25.25,0,0,0,.34-.1l.13-.25a.25.25,0,0,1,.29-.12l.1,0a.25.25,0,0,0,.31-.26.25.25,0,0,1,.13-.24h0Z" transform="translate(-0.01 0.01)"/><path id="_Path_8" data-name="&lt;Path&gt;" class="cls-2" d="M71.33,55,73,51.5v0a.21.21,0,0,1,.37,0v0L75.1,55a.25.25,0,0,1-.09.35h0a.25.25,0,0,0-.13.24.25.25,0,0,1-.31.26l-.1,0a.25.25,0,0,0-.29.12l-.13.25a.25.25,0,0,1-.34.1l-.37-.19a.25.25,0,0,0-.23,0l-.37.19a.25.25,0,0,1-.34-.1L72.26,56a.25.25,0,0,0-.29-.12l-.1,0a.25.25,0,0,1-.31-.26h0a.25.25,0,0,0-.13-.24h0A.25.25,0,0,1,71.33,55Z" transform="translate(-0.01 0.01)"/><path id="_Path_9" data-name="&lt;Path&gt;" class="cls-15" d="M71.33,55,73,51.5v0a.21.21,0,0,1,.37,0v0L75.1,55a.25.25,0,0,1-.09.35h0a.25.25,0,0,0-.13.24.25.25,0,0,1-.31.26l-.1,0a.25.25,0,0,0-.29.12l-.13.25a.25.25,0,0,1-.34.1l-.37-.19a.25.25,0,0,0-.23,0l-.37.19a.25.25,0,0,1-.34-.1L72.26,56a.25.25,0,0,0-.29-.12l-.1,0a.25.25,0,0,1-.31-.26h0a.25.25,0,0,0-.13-.24h0A.25.25,0,0,1,71.33,55Z" transform="translate(-0.01 0.01)"/></g></g><g id="Pine-2" data-name="Pine"><g id="_Group_5" data-name="&lt;Group&gt;"><path id="_Path_10" data-name="&lt;Path&gt;" class="cls-16" d="M95.59,60.47V71.59a.42.42,0,0,1-.25.34,1.31,1.31,0,0,1-1.19,0,.42.42,0,0,1-.25-.34V60.47Z" transform="translate(-0.01 0.01)"/></g><g id="_Group_6" data-name="&lt;Group&gt;"><path id="_Path_11" data-name="&lt;Path&gt;" class="cls-2" d="M87.59,65.06,94.28,48.7h.93l6.69,16.36a.86.86,0,0,1-.62,1.17l-.11,0a.86.86,0,0,0-.68.95h0a.86.86,0,0,1-1.1.92l-.33-.1a.86.86,0,0,0-1,.46l-.33.73a.86.86,0,0,1-1.22.38l-1.3-.77a.86.86,0,0,0-.87,0L93,69.6a.86.86,0,0,1-1.22-.38l-.33-.73a.86.86,0,0,0-1-.46l-.33.1a.86.86,0,0,1-1.1-.92h0a.86.86,0,0,0-.68-.95l-.11,0A.86.86,0,0,1,87.59,65.06Z" transform="translate(-0.01 0.01)"/><path id="_Path_12" data-name="&lt;Path&gt;" class="cls-15" d="M87.59,65.06,94.28,48.7h.93l6.69,16.36a.86.86,0,0,1-.62,1.17l-.11,0a.86.86,0,0,0-.68.95h0a.86.86,0,0,1-1.1.92l-.33-.1a.86.86,0,0,0-1,.46l-.33.73a.86.86,0,0,1-1.22.38l-1.3-.77a.86.86,0,0,0-.87,0L93,69.6a.86.86,0,0,1-1.22-.38l-.33-.73a.86.86,0,0,0-1-.46l-.33.1a.86.86,0,0,1-1.1-.92h0a.86.86,0,0,0-.68-.95l-.11,0A.86.86,0,0,1,87.59,65.06Z" transform="translate(-0.01 0.01)"/><path class="cls-10" d="M97.44,54.07l-2.22-5h-.93l-3.67,8.56L89,61.66a.52.52,0,0,0,.43.58h0A.65.65,0,0,1,90,63v.12a.65.65,0,0,0,.87.68l.33-.13A.65.65,0,0,1,92,64l.41.92a.65.65,0,0,0,.92.29l1.11-.74a.65.65,0,0,1,.66,0l1.24.74a.65.65,0,0,0,.92-.29l.41-.92a.65.65,0,0,1,.82-.34l.33.13a.65.65,0,0,0,.87-.68V63a.65.65,0,0,1,.54-.71.49.49,0,0,0,.4-.34Z" transform="translate(-0.01 0.01)"/><path id="_Path_13" data-name="&lt;Path&gt;" class="cls-2" d="M89.08,60.36l5.2-12.3h.93l5.33,12.3c.19.39.08.85-.35.92a.65.65,0,0,0-.54.71v.12a.65.65,0,0,1-.87.68l-.33-.13a.65.65,0,0,0-.82.34l-.41.92a.65.65,0,0,1-.92.29l-1.24-.74a.65.65,0,0,0-.66,0l-1.11.74a.65.65,0,0,1-.92-.29L92,63a.65.65,0,0,0-.82-.34l-.33.13a.65.65,0,0,1-.87-.68V62a.65.65,0,0,0-.54-.71h0C89,61.21,88.89,60.75,89.08,60.36Z" transform="translate(-0.01 0.01)"/><path id="_Path_14" data-name="&lt;Path&gt;" class="cls-17" d="M89.08,60.36l5.2-12.3h.93l5.33,12.3c.19.39.08.85-.35.92a.65.65,0,0,0-.54.71v.12a.65.65,0,0,1-.87.68l-.33-.13a.65.65,0,0,0-.82.34l-.41.92a.65.65,0,0,1-.92.29l-1.24-.74a.65.65,0,0,0-.66,0l-1.11.74a.65.65,0,0,1-.92-.29L92,63a.65.65,0,0,0-.82-.34l-.33.13a.65.65,0,0,1-.87-.68V62a.65.65,0,0,0-.54-.71h0C89,61.21,88.89,60.75,89.08,60.36Z" transform="translate(-0.01 0.01)"/><path class="cls-10" d="M99.07,56.83l-3.86-8.77h-.93l-3.8,8.84.1.07,0,0a.58.58,0,0,1,.3.56h0a.58.58,0,0,0,.73.61l.23-.06a.58.58,0,0,1,.66.29l.31.58a.58.58,0,0,0,.78.24l.86-.45a.58.58,0,0,1,.54,0l.86.45a.58.58,0,0,0,.78-.24l.31-.58a.58.58,0,0,1,.66-.29l.23.06a.58.58,0,0,0,.73-.61.58.58,0,0,1,.3-.56l0,0A.58.58,0,0,0,99.07,56.83Z" transform="translate(-0.01 0.01)"/><path id="_Path_15" data-name="&lt;Path&gt;" class="cls-2" d="M90.37,55.4l3.91-8.22,0,0a.5.5,0,0,1,.86,0l0,.05,3.91,8.22a.58.58,0,0,1-.21.81l0,0a.58.58,0,0,0-.3.56.58.58,0,0,1-.73.61l-.23-.06a.58.58,0,0,0-.66.29l-.31.58a.58.58,0,0,1-.78.24L95,58a.58.58,0,0,0-.54,0l-.86.45a.58.58,0,0,1-.78-.24l-.31-.58a.58.58,0,0,0-.66-.29l-.23.06a.58.58,0,0,1-.73-.61h0a.58.58,0,0,0-.3-.56l0,0A.58.58,0,0,1,90.37,55.4Z" transform="translate(-0.01 0.01)"/><path id="_Path_16" data-name="&lt;Path&gt;" class="cls-10" d="M90.37,55.4l3.91-8.22,0,0a.5.5,0,0,1,.86,0l0,.05,3.91,8.22a.58.58,0,0,1-.21.81l0,0a.58.58,0,0,0-.3.56.58.58,0,0,1-.73.61l-.23-.06a.58.58,0,0,0-.66.29l-.31.58a.58.58,0,0,1-.78.24L95,58a.58.58,0,0,0-.54,0l-.86.45a.58.58,0,0,1-.78-.24l-.31-.58a.58.58,0,0,0-.66-.29l-.23.06a.58.58,0,0,1-.73-.61h0a.58.58,0,0,0-.3-.56l0,0A.58.58,0,0,1,90.37,55.4Z" transform="translate(-0.01 0.01)"/></g></g><g id="Tree"><g id="Tree-2" data-name="Tree"><path class="cls-2" d="M40.43,45.66a1.59,1.59,0,0,0-.92-.9c-.68-.26-1.77-.26-2.15.49a7.81,7.81,0,0,0-.26.91c-.15.41-.57.65-.91.9a1.79,1.79,0,0,0-.63,2A6.57,6.57,0,0,1,36,50.08c.07.45-.24.9-.34,1.33a3.44,3.44,0,0,0-.06,1.16A2.49,2.49,0,0,0,37.7,54.4a5,5,0,0,0,3.23-.29,2.14,2.14,0,0,0,1.21-1.19,1.8,1.8,0,0,0-.23-1.48c-.28-.45-.59-.83-.25-1.34a4.51,4.51,0,0,0,.6-.94,1.52,1.52,0,0,0,0-1,1.77,1.77,0,0,0-.65-.76c-.3-.23-.72-.42-.88-.79s-.08-.49-.15-.73A2.41,2.41,0,0,0,40.43,45.66Z" transform="translate(-0.01 0.01)"/><path class="cls-18" d="M40.43,45.66a1.59,1.59,0,0,0-.92-.9c-.68-.26-1.77-.26-2.15.49a7.81,7.81,0,0,0-.26.91c-.15.41-.57.65-.91.9a1.79,1.79,0,0,0-.63,2A6.57,6.57,0,0,1,36,50.08c.07.45-.24.9-.34,1.33a3.44,3.44,0,0,0-.06,1.16A2.49,2.49,0,0,0,37.7,54.4a5,5,0,0,0,3.23-.29,2.14,2.14,0,0,0,1.21-1.19,1.8,1.8,0,0,0-.23-1.48c-.28-.45-.59-.83-.25-1.34a4.51,4.51,0,0,0,.6-.94,1.52,1.52,0,0,0,0-1,1.77,1.77,0,0,0-.65-.76c-.3-.23-.72-.42-.88-.79s-.08-.49-.15-.73A2.41,2.41,0,0,0,40.43,45.66Z" transform="translate(-0.01 0.01)"/><path class="cls-14" d="M40.43,45.66a1.59,1.59,0,0,0-.92-.9c-.68-.26-1.77-.26-2.15.49a7.81,7.81,0,0,0-.26.91c-.15.41-.57.65-.91.9a1.79,1.79,0,0,0-.63,2A6.57,6.57,0,0,1,36,50.08c.07.45-.24.9-.34,1.33a3.44,3.44,0,0,0-.06,1.16A2.49,2.49,0,0,0,37.7,54.4a5,5,0,0,0,3.23-.29,2.14,2.14,0,0,0,1.21-1.19,1.8,1.8,0,0,0-.23-1.48c-.28-.45-.59-.83-.25-1.34a4.51,4.51,0,0,0,.6-.94,1.52,1.52,0,0,0,0-1,1.77,1.77,0,0,0-.65-.76c-.3-.23-.72-.42-.88-.79s-.08-.49-.15-.73A2.41,2.41,0,0,0,40.43,45.66Z" transform="translate(-0.01 0.01)"/><path class="cls-10" d="M41.29,53.91a5,5,0,0,1-3.48,0c-.85-.4-1.94-1.22-1.42-2.26.25-.5.67-1,.6-1.56s-.42-.77-.77-1.1A2.1,2.1,0,0,1,35.54,48a1.69,1.69,0,0,0,0,1.05A6.57,6.57,0,0,1,36,50.08c.07.45-.24.9-.34,1.33a3.44,3.44,0,0,0-.06,1.16A2.49,2.49,0,0,0,37.7,54.4a5,5,0,0,0,3.23-.29Z" transform="translate(-0.01 0.01)"/><path class="cls-10" d="M38.76,44.61a1.78,1.78,0,0,1,.82.38.89.89,0,0,1,.3.77c-.06.26-.28.5-.26.78a.76.76,0,0,0,.38.58,4,4,0,0,0,1.45.26,1.92,1.92,0,0,1-.77-.71c-.1-.24-.08-.49-.15-.73a2.41,2.41,0,0,0-.11-.28,1.59,1.59,0,0,0-.92-.9A2.49,2.49,0,0,0,38.76,44.61Z" transform="translate(-0.01 0.01)"/><path class="cls-10" d="M42,51.68a2.12,2.12,0,0,0-.12-.23c-.28-.45-.59-.83-.25-1.34l.2-.28c-.47.13-1.12.34-1,.93C41,51.14,41.62,51.41,42,51.68Z" transform="translate(-0.01 0.01)"/></g><path id="_Path_17" data-name="&lt;Path&gt;" class="cls-16" d="M37.34,52.35l1.48,2.93V53.93L39,48.2l.22,5.74v.91L40.81,52l-1.62,3.48v3.65a.09.09,0,0,1-.05.08.29.29,0,0,1-.26,0,.09.09,0,0,1-.05-.08V56Z" transform="translate(-0.01 0.01)"/></g><g id="Pine-3" data-name="Pine"><g id="_Group_7" data-name="&lt;Group&gt;"><g id="_Group_8" data-name="&lt;Group&gt;"><path id="_Path_18" data-name="&lt;Path&gt;" class="cls-12" d="M34.14,55.24v6.6A.24.24,0,0,1,34,62a.76.76,0,0,1-.69,0,.24.24,0,0,1-.14-.2v-6.6Z" transform="translate(-0.01 0.01)"/></g><path id="_Path_19" data-name="&lt;Path&gt;" class="cls-2" d="M29.47,57.26l3.9-9.42h.54l3.9,9.42a.5.5,0,0,1-.36.68h-.06a.5.5,0,0,0-.4.55h0a.5.5,0,0,1-.64.54L36.16,59a.5.5,0,0,0-.6.27l-.19.43a.5.5,0,0,1-.71.22l-.76-.45a.5.5,0,0,0-.51,0l-.76.45a.5.5,0,0,1-.71-.22l-.19-.43a.5.5,0,0,0-.6-.27l-.19.06a.5.5,0,0,1-.64-.54h0a.5.5,0,0,0-.4-.55h-.06A.5.5,0,0,1,29.47,57.26Z" transform="translate(-0.01 0.01)"/><path id="_Path_20" data-name="&lt;Path&gt;" class="cls-14" d="M29.47,57.26l3.9-9.42h.54l3.9,9.42a.5.5,0,0,1-.36.68h-.06a.5.5,0,0,0-.4.55h0a.5.5,0,0,1-.64.54L36.16,59a.5.5,0,0,0-.6.27l-.19.43a.5.5,0,0,1-.71.22l-.76-.45a.5.5,0,0,0-.51,0l-.76.45a.5.5,0,0,1-.71-.22l-.19-.43a.5.5,0,0,0-.6-.27l-.19.06a.5.5,0,0,1-.64-.54h0a.5.5,0,0,0-.4-.55h-.06A.5.5,0,0,1,29.47,57.26Z" transform="translate(-0.01 0.01)"/><path class="cls-10" d="M35.21,51,33.92,48h-.54l-2.14,5-.94,2.27a.3.3,0,0,0,.25.34h0a.38.38,0,0,1,.31.42v.07a.38.38,0,0,0,.51.4l.19-.07a.38.38,0,0,1,.48.2l.24.54a.38.38,0,0,0,.54.17l.65-.43a.38.38,0,0,1,.39,0l.72.43a.38.38,0,0,0,.54-.17l.24-.54a.38.38,0,0,1,.48-.2l.19.07a.38.38,0,0,0,.51-.4V56a.38.38,0,0,1,.31-.42.29.29,0,0,0,.24-.2Z" transform="translate(-0.01 0.01)"/><path id="_Path_21" data-name="&lt;Path&gt;" class="cls-2" d="M30.34,54.52l3-7.06h.54L37,54.52c.11.23,0,.5-.2.54a.38.38,0,0,0-.31.42v.07a.38.38,0,0,1-.51.4l-.19-.07a.38.38,0,0,0-.48.2l-.24.54a.38.38,0,0,1-.54.17l-.72-.43a.38.38,0,0,0-.39,0l-.65.43a.38.38,0,0,1-.54-.17L32,56.07a.38.38,0,0,0-.48-.2l-.19.07a.38.38,0,0,1-.51-.4v-.07a.38.38,0,0,0-.31-.42h0C30.3,55,30.23,54.75,30.34,54.52Z" transform="translate(-0.01 0.01)"/><path id="_Path_22" data-name="&lt;Path&gt;" class="cls-15" d="M30.34,54.52l3-7.06h.54L37,54.52c.11.23,0,.5-.2.54a.38.38,0,0,0-.31.42v.07a.38.38,0,0,1-.51.4l-.19-.07a.38.38,0,0,0-.48.2l-.24.54a.38.38,0,0,1-.54.17l-.72-.43a.38.38,0,0,0-.39,0l-.65.43a.38.38,0,0,1-.54-.17L32,56.07a.38.38,0,0,0-.48-.2l-.19.07a.38.38,0,0,1-.51-.4v-.07a.38.38,0,0,0-.31-.42h0C30.3,55,30.23,54.75,30.34,54.52Z" transform="translate(-0.01 0.01)"/><path class="cls-10" d="M36.17,52.57l-2.25-5.11h-.54l-2.21,5.15.06,0h0a.34.34,0,0,1,.17.33h0a.34.34,0,0,0,.43.36l.13,0a.34.34,0,0,1,.39.17l.18.34A.34.34,0,0,0,33,54l.5-.26a.34.34,0,0,1,.31,0l.5.26a.34.34,0,0,0,.46-.14l.18-.34a.34.34,0,0,1,.39-.17l.13,0a.34.34,0,0,0,.43-.36.34.34,0,0,1,.17-.33h0A.34.34,0,0,0,36.17,52.57Z" transform="translate(-0.01 0.01)"/><path id="_Path_23" data-name="&lt;Path&gt;" class="cls-2" d="M31.1,51.75,33.38,47l0,0a.29.29,0,0,1,.5,0l0,0,2.28,4.79a.34.34,0,0,1-.12.47h0a.34.34,0,0,0-.17.33.34.34,0,0,1-.43.36l-.13,0a.34.34,0,0,0-.39.17l-.18.34a.34.34,0,0,1-.46.14l-.5-.26a.34.34,0,0,0-.31,0l-.5.26a.34.34,0,0,1-.46-.14L32.35,53a.34.34,0,0,0-.39-.17l-.13,0a.34.34,0,0,1-.43-.36h0a.34.34,0,0,0-.17-.33h0A.34.34,0,0,1,31.1,51.75Z" transform="translate(-0.01 0.01)"/><path id="_Path_24" data-name="&lt;Path&gt;" class="cls-17" d="M31.1,51.75,33.38,47l0,0a.29.29,0,0,1,.5,0l0,0,2.28,4.79a.34.34,0,0,1-.12.47h0a.34.34,0,0,0-.17.33.34.34,0,0,1-.43.36l-.13,0a.34.34,0,0,0-.39.17l-.18.34a.34.34,0,0,1-.46.14l-.5-.26a.34.34,0,0,0-.31,0l-.5.26a.34.34,0,0,1-.46-.14L32.35,53a.34.34,0,0,0-.39-.17l-.13,0a.34.34,0,0,1-.43-.36h0a.34.34,0,0,0-.17-.33h0A.34.34,0,0,1,31.1,51.75Z" transform="translate(-0.01 0.01)"/></g></g><g id="Tree-3" data-name="Tree"><path id="Bush" class="cls-11" d="M25.39,67.89c.62.1,1.17-.07,1.27-.74a5.94,5.94,0,0,0,0-1.66c0-.2-.1-.43-.29-.48a.37.37,0,0,0-.4.22,1.08,1.08,0,0,0-.07.49c-.1-.22-.24-.47-.48-.47a.44.44,0,0,0-.39.45,1.28,1.28,0,0,0,.2.62.6.6,0,0,0-.48.08.42.42,0,0,0,0,.55,1.23,1.23,0,0,0,.48.35.22.22,0,0,0-.29.14.33.33,0,0,0,.13.33A.72.72,0,0,0,25.39,67.89Z" transform="translate(-0.01 0.01)"/><g id="Tree-4" data-name="Tree"><path class="cls-2" d="M28.8,48.1a2.3,2.3,0,0,0-1.34-1.31c-1-.38-2.56-.38-3.12.71A11.31,11.31,0,0,0,24,48.83c-.22.6-.83.95-1.33,1.3A2.59,2.59,0,0,0,21.73,53a9.52,9.52,0,0,1,.7,1.53c.11.65-.34,1.3-.49,1.92a5,5,0,0,0-.09,1.68c.17,1.46,1.69,2.36,3,2.66a7.19,7.19,0,0,0,4.68-.41,3.09,3.09,0,0,0,1.75-1.72,2.61,2.61,0,0,0-.34-2.14c-.4-.65-.86-1.21-.36-1.94a6.54,6.54,0,0,0,.87-1.36,2.2,2.2,0,0,0,0-1.39,2.57,2.57,0,0,0-.95-1.11c-.43-.33-1-.61-1.27-1.14-.14-.35-.11-.7-.22-1.05A3.49,3.49,0,0,0,28.8,48.1Z" transform="translate(-0.01 0.01)"/><path class="cls-18" d="M28.8,48.1a2.3,2.3,0,0,0-1.34-1.31c-1-.38-2.56-.38-3.12.71A11.31,11.31,0,0,0,24,48.83c-.22.6-.83.95-1.33,1.3A2.59,2.59,0,0,0,21.73,53a9.52,9.52,0,0,1,.7,1.53c.11.65-.34,1.3-.49,1.92a5,5,0,0,0-.09,1.68c.17,1.46,1.69,2.36,3,2.66a7.19,7.19,0,0,0,4.68-.41,3.09,3.09,0,0,0,1.75-1.72,2.61,2.61,0,0,0-.34-2.14c-.4-.65-.86-1.21-.36-1.94a6.54,6.54,0,0,0,.87-1.36,2.2,2.2,0,0,0,0-1.39,2.57,2.57,0,0,0-.95-1.11c-.43-.33-1-.61-1.27-1.14-.14-.35-.11-.7-.22-1.05A3.49,3.49,0,0,0,28.8,48.1Z" transform="translate(-0.01 0.01)"/><path class="cls-14" d="M28.8,48.1a2.3,2.3,0,0,0-1.34-1.31c-1-.38-2.56-.38-3.12.71A11.31,11.31,0,0,0,24,48.83c-.22.6-.83.95-1.33,1.3A2.59,2.59,0,0,0,21.73,53a9.52,9.52,0,0,1,.7,1.53c.11.65-.34,1.3-.49,1.92a5,5,0,0,0-.09,1.68c.17,1.46,1.69,2.36,3,2.66a7.19,7.19,0,0,0,4.68-.41,3.09,3.09,0,0,0,1.75-1.72,2.61,2.61,0,0,0-.34-2.14c-.4-.65-.86-1.21-.36-1.94a6.54,6.54,0,0,0,.87-1.36,2.2,2.2,0,0,0,0-1.39,2.57,2.57,0,0,0-.95-1.11c-.43-.33-1-.61-1.27-1.14-.14-.35-.11-.7-.22-1.05A3.49,3.49,0,0,0,28.8,48.1Z" transform="translate(-0.01 0.01)"/><path class="cls-10" d="M30.05,60.06c-1.69.4-3.34.85-5,.05-1.23-.57-2.8-1.77-2.05-3.28.36-.72,1-1.39.87-2.25s-.6-1.11-1.12-1.59a3,3,0,0,1-1-1.53,2.45,2.45,0,0,0,0,1.52,9.52,9.52,0,0,1,.7,1.53c.11.65-.34,1.3-.49,1.92a5,5,0,0,0-.09,1.68c.17,1.46,1.69,2.36,3,2.66a7.19,7.19,0,0,0,4.68-.41C29.7,60.26,29.88,60.16,30.05,60.06Z" transform="translate(-0.01 0.01)"/><path class="cls-10" d="M26.39,46.58a2.58,2.58,0,0,1,1.19.55A1.28,1.28,0,0,1,28,48.24c-.08.38-.41.72-.37,1.12a1.11,1.11,0,0,0,.56.85,5.84,5.84,0,0,0,2.1.38,2.78,2.78,0,0,1-1.11-1c-.14-.35-.11-.7-.22-1.05a3.48,3.48,0,0,0-.16-.4,2.3,2.3,0,0,0-1.34-1.31A3.61,3.61,0,0,0,26.39,46.58Z" transform="translate(-0.01 0.01)"/><path class="cls-10" d="M31.11,56.82a3.07,3.07,0,0,0-.18-.33c-.4-.65-.86-1.21-.36-1.94l.3-.41c-.68.2-1.62.5-1.39,1.34C29.62,56,30.52,56.44,31.11,56.82Z" transform="translate(-0.01 0.01)"/></g><path id="_Path_25" data-name="&lt;Path&gt;" class="cls-16" d="M24.33,57.8,26.47,62v-2l.22-8.31L27,60.09V61.4l2.35-4.11-2.35,5v5.3a.13.13,0,0,1-.08.11.42.42,0,0,1-.38,0,.13.13,0,0,1-.08-.11V63.12Z" transform="translate(-0.01 0.01)"/><path id="Bush-2" data-name="Bush" class="cls-2" d="M27,68.23,29,67.11a1.55,1.55,0,0,0,.42-.4,1.11,1.11,0,0,0,.24-.5.26.26,0,0,0,0-.19c-.07-.1-.24-.07-.33,0l-.26.26a2.92,2.92,0,0,0,0-.67.3.3,0,0,0-.08-.22.25.25,0,0,0-.27,0,1.15,1.15,0,0,0-.45.72,2.32,2.32,0,0,0,0-.86c-.07-.31-.42-.43-.54-.13a1.72,1.72,0,0,0-.1.49,2,2,0,0,0,0,.65,2,2,0,0,0-.52-.72.31.31,0,0,0-.3-.1c-.12,0-.14.21-.13.34a1.84,1.84,0,0,0,.26.78,1.64,1.64,0,0,0-.66-.26.2.2,0,0,0-.21.07.27.27,0,0,0,0,.27,1.63,1.63,0,0,0,.52.49,1.7,1.7,0,0,0-.64-.07.22.22,0,0,0-.17.07c-.06.08,0,.19.08.26a1.92,1.92,0,0,0,.45.27.66.66,0,0,0-.28,0,.22.22,0,0,0-.13.23.28.28,0,0,0,.21.18A1.36,1.36,0,0,0,27,68.23Z" transform="translate(-0.01 0.01)"/><path id="Bush-3" data-name="Bush" class="cls-14" d="M27,68.23,29,67.11a1.55,1.55,0,0,0,.42-.4,1.11,1.11,0,0,0,.24-.5.26.26,0,0,0,0-.19c-.07-.1-.24-.07-.33,0l-.26.26a2.92,2.92,0,0,0,0-.67.3.3,0,0,0-.08-.22.25.25,0,0,0-.27,0,1.15,1.15,0,0,0-.45.72,2.32,2.32,0,0,0,0-.86c-.07-.31-.42-.43-.54-.13a1.72,1.72,0,0,0-.1.49,2,2,0,0,0,0,.65,2,2,0,0,0-.52-.72.31.31,0,0,0-.3-.1c-.12,0-.14.21-.13.34a1.84,1.84,0,0,0,.26.78,1.64,1.64,0,0,0-.66-.26.2.2,0,0,0-.21.07.27.27,0,0,0,0,.27,1.63,1.63,0,0,0,.52.49,1.7,1.7,0,0,0-.64-.07.22.22,0,0,0-.17.07c-.06.08,0,.19.08.26a1.92,1.92,0,0,0,.45.27.66.66,0,0,0-.28,0,.22.22,0,0,0-.13.23.28.28,0,0,0,.21.18A1.36,1.36,0,0,0,27,68.23Z" transform="translate(-0.01 0.01)"/></g><g id="Pine-4" data-name="Pine"><g id="_Group_9" data-name="&lt;Group&gt;"><path id="_Path_26" data-name="&lt;Path&gt;" class="cls-16" d="M48.12,51.29v4.48a.17.17,0,0,1-.1.14.52.52,0,0,1-.47,0,.17.17,0,0,1-.1-.14V51.29Z" transform="translate(-0.01 0.01)"/></g><g id="_Group_10" data-name="&lt;Group&gt;"><path id="_Path_27" data-name="&lt;Path&gt;" class="cls-2" d="M45,53.09l2.65-6.4H48l2.65,6.4a.34.34,0,0,1-.25.46h0a.34.34,0,0,0-.27.37h0a.34.34,0,0,1-.44.37l-.13,0a.34.34,0,0,0-.41.18l-.13.29a.34.34,0,0,1-.48.15L48,54.58a.34.34,0,0,0-.35,0l-.51.31a.34.34,0,0,1-.48-.15l-.13-.29a.34.34,0,0,0-.41-.18l-.13,0a.34.34,0,0,1-.44-.37h0a.34.34,0,0,0-.27-.37h0A.34.34,0,0,1,45,53.09Z" transform="translate(-0.01 0.01)"/><path id="_Path_28" data-name="&lt;Path&gt;" class="cls-13" d="M45,53.09l2.65-6.4H48l2.65,6.4a.34.34,0,0,1-.25.46h0a.34.34,0,0,0-.27.37h0a.34.34,0,0,1-.44.37l-.13,0a.34.34,0,0,0-.41.18l-.13.29a.34.34,0,0,1-.48.15L48,54.58a.34.34,0,0,0-.35,0l-.51.31a.34.34,0,0,1-.48-.15l-.13-.29a.34.34,0,0,0-.41-.18l-.13,0a.34.34,0,0,1-.44-.37h0a.34.34,0,0,0-.27-.37h0A.34.34,0,0,1,45,53.09Z" transform="translate(-0.01 0.01)"/><path class="cls-10" d="M48.85,48.81l-.88-2H47.6L46.15,50.2l-.64,1.54a.21.21,0,0,0,.17.23h0a.26.26,0,0,1,.21.28v0a.26.26,0,0,0,.35.27l.13,0a.26.26,0,0,1,.33.14l.16.37a.26.26,0,0,0,.37.12l.44-.29a.26.26,0,0,1,.26,0l.49.29a.26.26,0,0,0,.37-.12l.16-.37a.26.26,0,0,1,.33-.14l.13,0a.26.26,0,0,0,.35-.27v0a.26.26,0,0,1,.21-.28.19.19,0,0,0,.16-.13Z" transform="translate(-0.01 0.01)"/><path id="_Path_29" data-name="&lt;Path&gt;" class="cls-2" d="M45.54,51.23l2.06-4.8H48l2.11,4.8c.08.15,0,.34-.14.37a.26.26,0,0,0-.21.28v0a.26.26,0,0,1-.35.27l-.13,0a.26.26,0,0,0-.33.14l-.16.37a.26.26,0,0,1-.37.12l-.49-.29a.26.26,0,0,0-.26,0l-.44.29a.26.26,0,0,1-.37-.12l-.16-.37a.26.26,0,0,0-.33-.14l-.13,0a.26.26,0,0,1-.35-.27v0a.26.26,0,0,0-.21-.28h0C45.51,51.57,45.47,51.38,45.54,51.23Z" transform="translate(-0.01 0.01)"/><path id="_Path_30" data-name="&lt;Path&gt;" class="cls-14" d="M45.54,51.23l2.06-4.8H48l2.11,4.8c.08.15,0,.34-.14.37a.26.26,0,0,0-.21.28v0a.26.26,0,0,1-.35.27l-.13,0a.26.26,0,0,0-.33.14l-.16.37a.26.26,0,0,1-.37.12l-.49-.29a.26.26,0,0,0-.26,0l-.44.29a.26.26,0,0,1-.37-.12l-.16-.37a.26.26,0,0,0-.33-.14l-.13,0a.26.26,0,0,1-.35-.27v0a.26.26,0,0,0-.21-.28h0C45.51,51.57,45.47,51.38,45.54,51.23Z" transform="translate(-0.01 0.01)"/><path class="cls-10" d="M49.5,49.91,48,46.43H47.6l-1.5,3.5,0,0h0a.23.23,0,0,1,.12.22h0a.23.23,0,0,0,.29.24l.09,0a.23.23,0,0,1,.26.11l.12.23a.23.23,0,0,0,.31.1l.34-.18a.23.23,0,0,1,.21,0l.34.18a.23.23,0,0,0,.31-.1l.12-.23a.23.23,0,0,1,.26-.11l.09,0a.23.23,0,0,0,.29-.24.23.23,0,0,1,.12-.22h0Z" transform="translate(-0.01 0.01)"/><path id="_Path_31" data-name="&lt;Path&gt;" class="cls-2" d="M46.06,49.34l1.55-3.26v0a.2.2,0,0,1,.34,0v0l1.55,3.26a.23.23,0,0,1-.08.32h0a.23.23,0,0,0-.12.22.23.23,0,0,1-.29.24l-.09,0a.23.23,0,0,0-.26.11l-.12.23a.23.23,0,0,1-.31.1l-.34-.18a.23.23,0,0,0-.21,0l-.34.18a.23.23,0,0,1-.31-.1l-.12-.23a.23.23,0,0,0-.26-.11l-.09,0a.23.23,0,0,1-.29-.24h0a.23.23,0,0,0-.12-.22h0A.23.23,0,0,1,46.06,49.34Z" transform="translate(-0.01 0.01)"/><path id="_Path_32" data-name="&lt;Path&gt;" class="cls-15" d="M46.06,49.34l1.55-3.26v0a.2.2,0,0,1,.34,0v0l1.55,3.26a.23.23,0,0,1-.08.32h0a.23.23,0,0,0-.12.22.23.23,0,0,1-.29.24l-.09,0a.23.23,0,0,0-.26.11l-.12.23a.23.23,0,0,1-.31.1l-.34-.18a.23.23,0,0,0-.21,0l-.34.18a.23.23,0,0,1-.31-.1l-.12-.23a.23.23,0,0,0-.26-.11l-.09,0a.23.23,0,0,1-.29-.24h0a.23.23,0,0,0-.12-.22h0A.23.23,0,0,1,46.06,49.34Z" transform="translate(-0.01 0.01)"/></g></g><g id="Pine-5" data-name="Pine"><g id="_Group_11" data-name="&lt;Group&gt;"><g id="_Group_12" data-name="&lt;Group&gt;"><path id="_Path_33" data-name="&lt;Path&gt;" class="cls-16" d="M60.21,52.94v5.21a.23.23,0,0,1-.14.19.72.72,0,0,1-.65,0,.23.23,0,0,1-.14-.19V52.94Z" transform="translate(-0.01 0.01)"/></g><path id="_Path_34" data-name="&lt;Path&gt;" class="cls-2" d="M55.79,54.86l3.7-8.92H60l3.7,8.92a.47.47,0,0,1-.34.64h-.06a.47.47,0,0,0-.38.52h0a.47.47,0,0,1-.61.51l-.18-.06a.47.47,0,0,0-.57.26l-.18.41a.47.47,0,0,1-.67.21L60,56.93a.47.47,0,0,0-.48,0l-.72.43a.47.47,0,0,1-.67-.21l-.18-.41a.47.47,0,0,0-.57-.26l-.18.06a.47.47,0,0,1-.61-.51h0a.47.47,0,0,0-.38-.52h-.06A.47.47,0,0,1,55.79,54.86Z" transform="translate(-0.01 0.01)"/><path id="_Path_35" data-name="&lt;Path&gt;" class="cls-14" d="M55.79,54.86l3.7-8.92H60l3.7,8.92a.47.47,0,0,1-.34.64h-.06a.47.47,0,0,0-.38.52h0a.47.47,0,0,1-.61.51l-.18-.06a.47.47,0,0,0-.57.26l-.18.41a.47.47,0,0,1-.67.21L60,56.93a.47.47,0,0,0-.48,0l-.72.43a.47.47,0,0,1-.67-.21l-.18-.41a.47.47,0,0,0-.57-.26l-.18.06a.47.47,0,0,1-.61-.51h0a.47.47,0,0,0-.38-.52h-.06A.47.47,0,0,1,55.79,54.86Z" transform="translate(-0.01 0.01)"/><path class="cls-10" d="M61.23,48.89,60,46.11h-.51l-2,4.72L56.57,53a.29.29,0,0,0,.24.32h0a.36.36,0,0,1,.3.39v.07a.36.36,0,0,0,.48.37l.18-.07a.36.36,0,0,1,.45.19l.23.51a.36.36,0,0,0,.51.16l.61-.41a.36.36,0,0,1,.37,0l.68.41a.36.36,0,0,0,.51-.16l.23-.51a.36.36,0,0,1,.45-.19l.18.07a.36.36,0,0,0,.48-.37V53.7a.36.36,0,0,1,.3-.39.27.27,0,0,0,.22-.19Z" transform="translate(-0.01 0.01)"/><path id="_Path_36" data-name="&lt;Path&gt;" class="cls-2" d="M56.62,52.26l2.87-6.69H60l2.94,6.69c.11.21,0,.47-.19.51a.36.36,0,0,0-.3.39v.07a.36.36,0,0,1-.48.38l-.18-.07a.36.36,0,0,0-.45.19l-.23.51a.36.36,0,0,1-.51.16L59.93,54a.36.36,0,0,0-.37,0l-.61.41a.36.36,0,0,1-.51-.16l-.23-.51a.36.36,0,0,0-.45-.19l-.18.07a.36.36,0,0,1-.48-.37v-.07a.36.36,0,0,0-.3-.39h0C56.57,52.73,56.51,52.48,56.62,52.26Z" transform="translate(-0.01 0.01)"/><path id="_Path_37" data-name="&lt;Path&gt;" class="cls-15" d="M56.62,52.26l2.87-6.69H60l2.94,6.69c.11.21,0,.47-.19.51a.36.36,0,0,0-.3.39v.07a.36.36,0,0,1-.48.38l-.18-.07a.36.36,0,0,0-.45.19l-.23.51a.36.36,0,0,1-.51.16L59.93,54a.36.36,0,0,0-.37,0l-.61.41a.36.36,0,0,1-.51-.16l-.23-.51a.36.36,0,0,0-.45-.19l-.18.07a.36.36,0,0,1-.48-.37v-.07a.36.36,0,0,0-.3-.39h0C56.57,52.73,56.51,52.48,56.62,52.26Z" transform="translate(-0.01 0.01)"/><path class="cls-10" d="M62.13,50.42,60,45.58h-.51l-2.1,4.88.06,0h0a.32.32,0,0,1,.16.31h0a.32.32,0,0,0,.4.34l.12,0a.32.32,0,0,1,.37.16l.17.32a.32.32,0,0,0,.43.13l.47-.25a.32.32,0,0,1,.3,0l.47.25a.32.32,0,0,0,.43-.13l.17-.32a.32.32,0,0,1,.37-.16l.12,0a.32.32,0,0,0,.4-.34A.32.32,0,0,1,62,50.5h0A.32.32,0,0,0,62.13,50.42Z" transform="translate(-0.01 0.01)"/><path id="_Path_38" data-name="&lt;Path&gt;" class="cls-2" d="M57.33,49.63l2.16-4.54,0,0a.27.27,0,0,1,.48,0l0,0,2.16,4.54a.32.32,0,0,1-.12.45h0a.32.32,0,0,0-.16.31.32.32,0,0,1-.4.34l-.12,0a.32.32,0,0,0-.37.16l-.17.32a.32.32,0,0,1-.43.13l-.47-.25a.32.32,0,0,0-.3,0l-.47.25a.32.32,0,0,1-.43-.13l-.17-.32a.32.32,0,0,0-.37-.16l-.12,0a.32.32,0,0,1-.4-.34h0a.32.32,0,0,0-.16-.31h0A.32.32,0,0,1,57.33,49.63Z" transform="translate(-0.01 0.01)"/><path id="_Path_39" data-name="&lt;Path&gt;" class="cls-17" d="M57.33,49.63l2.16-4.54,0,0a.27.27,0,0,1,.48,0l0,0,2.16,4.54a.32.32,0,0,1-.12.45h0a.32.32,0,0,0-.16.31.32.32,0,0,1-.4.34l-.12,0a.32.32,0,0,0-.37.16l-.17.32a.32.32,0,0,1-.43.13l-.47-.25a.32.32,0,0,0-.3,0l-.47.25a.32.32,0,0,1-.43-.13l-.17-.32a.32.32,0,0,0-.37-.16l-.12,0a.32.32,0,0,1-.4-.34h0a.32.32,0,0,0-.16-.31h0A.32.32,0,0,1,57.33,49.63Z" transform="translate(-0.01 0.01)"/></g></g><g id="Pine-6" data-name="Pine"><g id="_Group_13" data-name="&lt;Group&gt;"><g id="_Group_14" data-name="&lt;Group&gt;"><path id="_Path_40" data-name="&lt;Path&gt;" class="cls-16" d="M80,59.69v6.94a.26.26,0,0,1-.15.21.8.8,0,0,1-.73,0,.26.26,0,0,1-.15-.21V59.69Z" transform="translate(-0.01 0.01)"/></g><path id="_Path_41" data-name="&lt;Path&gt;" class="cls-2" d="M75.07,61.83l4.11-9.92h.57l4.11,9.92a.52.52,0,0,1-.38.72h-.07a.52.52,0,0,0-.42.58h0a.52.52,0,0,1-.68.57l-.2-.06a.52.52,0,0,0-.63.28l-.2.45a.52.52,0,0,1-.75.23l-.8-.47a.52.52,0,0,0-.54,0l-.8.47a.52.52,0,0,1-.75-.23l-.2-.45a.52.52,0,0,0-.63-.28l-.2.06a.52.52,0,0,1-.67-.57h0a.52.52,0,0,0-.42-.58h-.07A.52.52,0,0,1,75.07,61.83Z" transform="translate(-0.01 0.01)"/><path id="_Path_42" data-name="&lt;Path&gt;" class="cls-14" d="M75.07,61.83l4.11-9.92h.57l4.11,9.92a.52.52,0,0,1-.38.72h-.07a.52.52,0,0,0-.42.58h0a.52.52,0,0,1-.68.57l-.2-.06a.52.52,0,0,0-.63.28l-.2.45a.52.52,0,0,1-.75.23l-.8-.47a.52.52,0,0,0-.54,0l-.8.47a.52.52,0,0,1-.75-.23l-.2-.45a.52.52,0,0,0-.63-.28l-.2.06a.52.52,0,0,1-.67-.57h0a.52.52,0,0,0-.42-.58h-.07A.52.52,0,0,1,75.07,61.83Z" transform="translate(-0.01 0.01)"/><path class="cls-10" d="M81.12,55.2l-1.36-3.1h-.57l-2.25,5.25-1,2.39a.32.32,0,0,0,.27.36h0a.4.4,0,0,1,.33.44v.08a.4.4,0,0,0,.54.42l.2-.08a.4.4,0,0,1,.5.21l.25.57a.4.4,0,0,0,.57.18l.68-.45a.4.4,0,0,1,.41,0l.76.45a.4.4,0,0,0,.57-.18l.25-.57a.4.4,0,0,1,.5-.21L82,61a.4.4,0,0,0,.54-.42v-.08a.4.4,0,0,1,.33-.44.3.3,0,0,0,.25-.21Z" transform="translate(-0.01 0.01)"/><path id="_Path_43" data-name="&lt;Path&gt;" class="cls-2" d="M76,58.94l3.19-7.43h.57L83,58.94c.12.24.05.52-.21.57a.4.4,0,0,0-.33.44V60a.4.4,0,0,1-.54.42l-.2-.08a.4.4,0,0,0-.5.21l-.25.57a.4.4,0,0,1-.57.18l-.76-.45a.4.4,0,0,0-.41,0l-.68.45a.4.4,0,0,1-.57-.18l-.25-.57a.4.4,0,0,0-.5-.21l-.2.08a.4.4,0,0,1-.54-.42v-.08a.4.4,0,0,0-.33-.44h0C75.94,59.47,75.87,59.18,76,58.94Z" transform="translate(-0.01 0.01)"/><path id="_Path_44" data-name="&lt;Path&gt;" class="cls-15" d="M76,58.94l3.19-7.43h.57L83,58.94c.12.24.05.52-.21.57a.4.4,0,0,0-.33.44V60a.4.4,0,0,1-.54.42l-.2-.08a.4.4,0,0,0-.5.21l-.25.57a.4.4,0,0,1-.57.18l-.76-.45a.4.4,0,0,0-.41,0l-.68.45a.4.4,0,0,1-.57-.18l-.25-.57a.4.4,0,0,0-.5-.21l-.2.08a.4.4,0,0,1-.54-.42v-.08a.4.4,0,0,0-.33-.44h0C75.94,59.47,75.87,59.18,76,58.94Z" transform="translate(-0.01 0.01)"/><path class="cls-10" d="M82.12,56.89l-2.37-5.38h-.57l-2.33,5.42.06,0h0a.36.36,0,0,1,.18.34h0a.36.36,0,0,0,.45.38l.14,0a.36.36,0,0,1,.41.18l.19.35a.36.36,0,0,0,.48.15l.53-.27a.36.36,0,0,1,.33,0l.53.27a.36.36,0,0,0,.48-.15l.19-.35a.36.36,0,0,1,.41-.18l.14,0a.36.36,0,0,0,.45-.38A.36.36,0,0,1,82,57h0A.35.35,0,0,0,82.12,56.89Z" transform="translate(-0.01 0.01)"/><path id="_Path_45" data-name="&lt;Path&gt;" class="cls-2" d="M76.78,56l2.4-5,0,0a.3.3,0,0,1,.53,0l0,0,2.4,5a.36.36,0,0,1-.13.5h0a.36.36,0,0,0-.18.34.36.36,0,0,1-.45.38l-.14,0a.36.36,0,0,0-.41.18l-.19.35a.36.36,0,0,1-.48.15l-.53-.27a.36.36,0,0,0-.33,0l-.53.27a.36.36,0,0,1-.48-.15l-.19-.35a.36.36,0,0,0-.41-.18l-.14,0a.36.36,0,0,1-.45-.38h0a.36.36,0,0,0-.18-.34h0A.36.36,0,0,1,76.78,56Z" transform="translate(-0.01 0.01)"/><path id="_Path_46" data-name="&lt;Path&gt;" class="cls-17" d="M76.78,56l2.4-5,0,0a.3.3,0,0,1,.53,0l0,0,2.4,5a.36.36,0,0,1-.13.5h0a.36.36,0,0,0-.18.34.36.36,0,0,1-.45.38l-.14,0a.36.36,0,0,0-.41.18l-.19.35a.36.36,0,0,1-.48.15l-.53-.27a.36.36,0,0,0-.33,0l-.53.27a.36.36,0,0,1-.48-.15l-.19-.35a.36.36,0,0,0-.41-.18l-.14,0a.36.36,0,0,1-.45-.38h0a.36.36,0,0,0-.18-.34h0A.36.36,0,0,1,76.78,56Z" transform="translate(-0.01 0.01)"/></g></g><g id="Pine-7" data-name="Pine"><g id="_Group_15" data-name="&lt;Group&gt;"><g id="_Group_16" data-name="&lt;Group&gt;"><path id="_Path_47" data-name="&lt;Path&gt;" class="cls-16" d="M18.48,59.76V70.3a.44.44,0,0,1-.26.36,1.39,1.39,0,0,1-1.26,0,.44.44,0,0,1-.26-.36V59.76Z" transform="translate(-0.01 0.01)"/></g><path id="_Path_48" data-name="&lt;Path&gt;" class="cls-2" d="M10,63.45l7.1-17.15h1l7.1,17.15a.91.91,0,0,1-.66,1.24l-.12,0a.91.91,0,0,0-.72,1h0a.91.91,0,0,1-1.17,1l-.35-.11a.91.91,0,0,0-1.09.49l-.35.78a.91.91,0,0,1-1.29.41l-1.38-.82a.91.91,0,0,0-.93,0l-1.38.82a.91.91,0,0,1-1.29-.41l-.35-.78A.91.91,0,0,0,13,66.58l-.35.11a.91.91,0,0,1-1.17-1h0a.91.91,0,0,0-.72-1l-.12,0A.91.91,0,0,1,10,63.45Z" transform="translate(-0.01 0.01)"/><path id="_Path_49" data-name="&lt;Path&gt;" class="cls-15" d="M10,63.45l7.1-17.15h1l7.1,17.15a.91.91,0,0,1-.66,1.24l-.12,0a.91.91,0,0,0-.72,1h0a.91.91,0,0,1-1.17,1l-.35-.11a.91.91,0,0,0-1.09.49l-.35.78a.91.91,0,0,1-1.29.41l-1.38-.82a.91.91,0,0,0-.93,0l-1.38.82a.91.91,0,0,1-1.29-.41l-.35-.78A.91.91,0,0,0,13,66.58l-.35.11a.91.91,0,0,1-1.17-1h0a.91.91,0,0,0-.72-1l-.12,0A.91.91,0,0,1,10,63.45Z" transform="translate(-0.01 0.01)"/><path class="cls-10" d="M20.44,52l-2.36-5.36h-1l-3.9,9.08-1.71,4.14a.55.55,0,0,0,.46.62h0a.69.69,0,0,1,.57.76l0,.13a.69.69,0,0,0,.93.72l.35-.13a.69.69,0,0,1,.87.36l.44,1a.69.69,0,0,0,1,.31l1.18-.78a.69.69,0,0,1,.7,0l1.31.78a.69.69,0,0,0,1-.31l.44-1a.69.69,0,0,1,.87-.36l.35.13a.69.69,0,0,0,.93-.72l0-.13a.69.69,0,0,1,.57-.76.52.52,0,0,0,.43-.36Z" transform="translate(-0.01 0.01)"/><path id="_Path_50" data-name="&lt;Path&gt;" class="cls-2" d="M11.58,58.46l5.52-12.85h1l5.65,12.85c.2.41.09.91-.37,1a.69.69,0,0,0-.57.76l0,.13a.69.69,0,0,1-.93.72l-.35-.13a.69.69,0,0,0-.87.36l-.44,1a.69.69,0,0,1-1,.31l-1.31-.78a.69.69,0,0,0-.7,0l-1.18.78a.69.69,0,0,1-1-.31l-.44-1a.69.69,0,0,0-.87-.36l-.35.13a.69.69,0,0,1-.93-.72l0-.13a.69.69,0,0,0-.57-.76h0C11.49,59.37,11.37,58.87,11.58,58.46Z" transform="translate(-0.01 0.01)"/><path id="_Path_51" data-name="&lt;Path&gt;" class="cls-17" d="M11.58,58.46l5.52-12.85h1l5.65,12.85c.2.41.09.91-.37,1a.69.69,0,0,0-.57.76l0,.13a.69.69,0,0,1-.93.72l-.35-.13a.69.69,0,0,0-.87.36l-.44,1a.69.69,0,0,1-1,.31l-1.31-.78a.69.69,0,0,0-.7,0l-1.18.78a.69.69,0,0,1-1-.31l-.44-1a.69.69,0,0,0-.87-.36l-.35.13a.69.69,0,0,1-.93-.72l0-.13a.69.69,0,0,0-.57-.76h0C11.49,59.37,11.37,58.87,11.58,58.46Z" transform="translate(-0.01 0.01)"/><path class="cls-10" d="M22.18,54.92l-4.1-9.3h-1l-4,9.38.11.08,0,0a.62.62,0,0,1,.31.59h0a.62.62,0,0,0,.77.65l.24-.06a.62.62,0,0,1,.7.31l.33.61a.62.62,0,0,0,.83.26L17.3,57a.62.62,0,0,1,.57,0l.91.47a.62.62,0,0,0,.83-.26l.33-.61a.62.62,0,0,1,.7-.31l.24.06a.62.62,0,0,0,.77-.65.62.62,0,0,1,.31-.59l0,0A.61.61,0,0,0,22.18,54.92Z" transform="translate(-0.01 0.01)"/><path id="_Path_52" data-name="&lt;Path&gt;" class="cls-2" d="M13,53.41l4.15-8.72,0-.05a.53.53,0,0,1,.92,0l0,.05,4.15,8.72a.62.62,0,0,1-.22.86l0,0a.62.62,0,0,0-.31.59.62.62,0,0,1-.77.65l-.24-.06a.62.62,0,0,0-.7.31l-.33.61a.62.62,0,0,1-.83.26l-.91-.47a.62.62,0,0,0-.57,0l-.91.47a.62.62,0,0,1-.83-.26l-.33-.61a.62.62,0,0,0-.7-.31l-.24.06a.62.62,0,0,1-.77-.65h0a.62.62,0,0,0-.31-.59l0,0A.62.62,0,0,1,13,53.41Z" transform="translate(-0.01 0.01)"/><path id="_Path_53" data-name="&lt;Path&gt;" class="cls-10" d="M13,53.41l4.15-8.72,0-.05a.53.53,0,0,1,.92,0l0,.05,4.15,8.72a.62.62,0,0,1-.22.86l0,0a.62.62,0,0,0-.31.59.62.62,0,0,1-.77.65l-.24-.06a.62.62,0,0,0-.7.31l-.33.61a.62.62,0,0,1-.83.26l-.91-.47a.62.62,0,0,0-.57,0l-.91.47a.62.62,0,0,1-.83-.26l-.33-.61a.62.62,0,0,0-.7-.31l-.24.06a.62.62,0,0,1-.77-.65h0a.62.62,0,0,0-.31-.59l0,0A.62.62,0,0,1,13,53.41Z" transform="translate(-0.01 0.01)"/></g></g><g id="Tree-5" data-name="Tree"><path id="Bush-4" data-name="Bush" class="cls-11" d="M67.23,59.19c-.39.06-.73,0-.79-.46a3.7,3.7,0,0,1,0-1c0-.12.06-.27.18-.3a.23.23,0,0,1,.25.14.67.67,0,0,1,0,.3c.06-.14.15-.29.3-.29a.27.27,0,0,1,.25.28.8.8,0,0,1-.13.39.38.38,0,0,1,.3,0,.26.26,0,0,1,0,.34.77.77,0,0,1-.3.22.14.14,0,0,1,.18.09.21.21,0,0,1-.08.21A.45.45,0,0,1,67.23,59.19Z" transform="translate(-0.01 0.01)"/><g id="Tree-6" data-name="Tree"><path class="cls-2" d="M67.91,45.4a1.72,1.72,0,0,0-1-1c-.74-.28-1.91-.28-2.33.53a8.45,8.45,0,0,0-.28,1c-.16.45-.62.71-1,1A1.94,1.94,0,0,0,62.63,49a7.11,7.11,0,0,1,.52,1.14c.08.48-.26,1-.37,1.43a3.73,3.73,0,0,0-.07,1.25,2.69,2.69,0,0,0,2.24,2,5.37,5.37,0,0,0,3.5-.31,2.31,2.31,0,0,0,1.31-1.28,2,2,0,0,0-.25-1.6c-.3-.49-.64-.9-.27-1.45a4.88,4.88,0,0,0,.65-1,1.65,1.65,0,0,0,0-1,1.92,1.92,0,0,0-.71-.83c-.32-.25-.78-.46-.95-.85S68.11,46,68,45.7A2.6,2.6,0,0,0,67.91,45.4Z" transform="translate(-0.01 0.01)"/><path class="cls-18" d="M67.91,45.4a1.72,1.72,0,0,0-1-1c-.74-.28-1.91-.28-2.33.53a8.45,8.45,0,0,0-.28,1c-.16.45-.62.71-1,1A1.94,1.94,0,0,0,62.63,49a7.11,7.11,0,0,1,.52,1.14c.08.48-.26,1-.37,1.43a3.73,3.73,0,0,0-.07,1.25,2.69,2.69,0,0,0,2.24,2,5.37,5.37,0,0,0,3.5-.31,2.31,2.31,0,0,0,1.31-1.28,2,2,0,0,0-.25-1.6c-.3-.49-.64-.9-.27-1.45a4.88,4.88,0,0,0,.65-1,1.65,1.65,0,0,0,0-1,1.92,1.92,0,0,0-.71-.83c-.32-.25-.78-.46-.95-.85S68.11,46,68,45.7A2.6,2.6,0,0,0,67.91,45.4Z" transform="translate(-0.01 0.01)"/><path class="cls-14" d="M67.91,45.4a1.72,1.72,0,0,0-1-1c-.74-.28-1.91-.28-2.33.53a8.45,8.45,0,0,0-.28,1c-.16.45-.62.71-1,1A1.94,1.94,0,0,0,62.63,49a7.11,7.11,0,0,1,.52,1.14c.08.48-.26,1-.37,1.43a3.73,3.73,0,0,0-.07,1.25,2.69,2.69,0,0,0,2.24,2,5.37,5.37,0,0,0,3.5-.31,2.31,2.31,0,0,0,1.31-1.28,2,2,0,0,0-.25-1.6c-.3-.49-.64-.9-.27-1.45a4.88,4.88,0,0,0,.65-1,1.65,1.65,0,0,0,0-1,1.92,1.92,0,0,0-.71-.83c-.32-.25-.78-.46-.95-.85S68.11,46,68,45.7A2.6,2.6,0,0,0,67.91,45.4Z" transform="translate(-0.01 0.01)"/><path class="cls-10" d="M68.84,54.32a5.46,5.46,0,0,1-3.77,0c-.92-.43-2.09-1.32-1.53-2.45.27-.54.73-1,.65-1.68s-.45-.83-.84-1.19a2.27,2.27,0,0,1-.73-1.14,1.83,1.83,0,0,0,0,1.14,7.11,7.11,0,0,1,.52,1.14c.08.48-.26,1-.37,1.43a3.72,3.72,0,0,0-.07,1.25,2.69,2.69,0,0,0,2.24,2,5.37,5.37,0,0,0,3.5-.31Z" transform="translate(-0.01 0.01)"/><path class="cls-10" d="M66.11,44.26a1.92,1.92,0,0,1,.89.41,1,1,0,0,1,.33.83c-.06.28-.3.54-.28.84a.83.83,0,0,0,.42.63,4.36,4.36,0,0,0,1.57.28,2.08,2.08,0,0,1-.83-.77c-.11-.26-.08-.53-.17-.79a2.61,2.61,0,0,0-.12-.3,1.72,1.72,0,0,0-1-1A2.7,2.7,0,0,0,66.11,44.26Z" transform="translate(-0.01 0.01)"/><path class="cls-10" d="M69.63,51.91a2.29,2.29,0,0,0-.13-.24c-.3-.49-.64-.9-.27-1.45l.22-.31c-.51.15-1.21.37-1,1C68.52,51.33,69.19,51.62,69.63,51.91Z" transform="translate(-0.01 0.01)"/></g><path id="_Path_54" data-name="&lt;Path&gt;" class="cls-16" d="M64.57,52.64l1.6,3.17V54.35l.16-6.21.24,6.21v1l1.76-3.07L66.57,56v2.78a.1.1,0,0,1-.06.08.31.31,0,0,1-.28,0,.1.1,0,0,1-.06-.08V56.62Z" transform="translate(-0.01 0.01)"/><path id="Bush-5" data-name="Bush" class="cls-2" d="M66.2,59.4,65,58.7a1,1,0,0,1-.26-.25.69.69,0,0,1-.15-.31.16.16,0,0,1,0-.12c0-.06.15,0,.21,0l.16.16a1.82,1.82,0,0,1,0-.42.19.19,0,0,1,.05-.14.16.16,0,0,1,.17,0,.72.72,0,0,1,.28.45,1.45,1.45,0,0,1,0-.54c0-.19.26-.27.34-.08a1.07,1.07,0,0,1,.06.31,1.25,1.25,0,0,1,0,.4,1.27,1.27,0,0,1,.32-.45.2.2,0,0,1,.19-.07c.08,0,.09.13.08.21a1.15,1.15,0,0,1-.16.49,1,1,0,0,1,.41-.16.12.12,0,0,1,.13,0,.17.17,0,0,1,0,.17,1,1,0,0,1-.33.3,1.06,1.06,0,0,1,.4,0,.14.14,0,0,1,.11,0c0,.05,0,.12,0,.16a1.2,1.2,0,0,1-.28.17.41.41,0,0,1,.17,0,.14.14,0,0,1,.08.14.18.18,0,0,1-.13.11A.85.85,0,0,1,66.2,59.4Z" transform="translate(-0.01 0.01)"/><path id="Bush-6" data-name="Bush" class="cls-14" d="M66.2,59.4,65,58.7a1,1,0,0,1-.26-.25.69.69,0,0,1-.15-.31.16.16,0,0,1,0-.12c0-.06.15,0,.21,0l.16.16a1.82,1.82,0,0,1,0-.42.19.19,0,0,1,.05-.14.16.16,0,0,1,.17,0,.72.72,0,0,1,.28.45,1.45,1.45,0,0,1,0-.54c0-.19.26-.27.34-.08a1.07,1.07,0,0,1,.06.31,1.25,1.25,0,0,1,0,.4,1.27,1.27,0,0,1,.32-.45.2.2,0,0,1,.19-.07c.08,0,.09.13.08.21a1.15,1.15,0,0,1-.16.49,1,1,0,0,1,.41-.16.12.12,0,0,1,.13,0,.17.17,0,0,1,0,.17,1,1,0,0,1-.33.3,1.06,1.06,0,0,1,.4,0,.14.14,0,0,1,.11,0c0,.05,0,.12,0,.16a1.2,1.2,0,0,1-.28.17.41.41,0,0,1,.17,0,.14.14,0,0,1,.08.14.18.18,0,0,1-.13.11A.85.85,0,0,1,66.2,59.4Z" transform="translate(-0.01 0.01)"/></g><g id="Tree-7" data-name="Tree"><path id="Bush-7" data-name="Bush" class="cls-11" d="M88,73.21c-.61.1-1.16-.07-1.25-.73a5.86,5.86,0,0,1,0-1.63c0-.2.1-.43.29-.48a.36.36,0,0,1,.39.22,1.07,1.07,0,0,1,.07.48c.1-.21.24-.46.47-.47a.43.43,0,0,1,.39.44,1.26,1.26,0,0,1-.2.61.59.59,0,0,1,.48.07.42.42,0,0,1,0,.54,1.21,1.21,0,0,1-.48.34.22.22,0,0,1,.29.14.33.33,0,0,1-.12.33A.71.71,0,0,1,88,73.21Z" transform="translate(-0.01 0.01)"/><g id="Tree-8" data-name="Tree"><path class="cls-2" d="M88.65,53.52a2.3,2.3,0,0,0-1.34-1.31c-1-.38-2.56-.38-3.12.71a11.31,11.31,0,0,0-.37,1.32c-.22.6-.83.95-1.33,1.3a2.59,2.59,0,0,0-.92,2.86,9.52,9.52,0,0,1,.7,1.53c.11.65-.34,1.3-.49,1.92a5,5,0,0,0-.09,1.68c.17,1.46,1.69,2.36,3,2.66a7.19,7.19,0,0,0,4.68-.41A3.09,3.09,0,0,0,91.12,64a2.61,2.61,0,0,0-.34-2.14c-.4-.65-.86-1.21-.36-1.94a6.54,6.54,0,0,0,.87-1.36,2.2,2.2,0,0,0,0-1.39,2.57,2.57,0,0,0-.95-1.11c-.43-.33-1-.61-1.27-1.14-.14-.35-.11-.7-.22-1.05A3.48,3.48,0,0,0,88.65,53.52Z" transform="translate(-0.01 0.01)"/><path class="cls-18" d="M88.65,53.52a2.3,2.3,0,0,0-1.34-1.31c-1-.38-2.56-.38-3.12.71a11.31,11.31,0,0,0-.37,1.32c-.22.6-.83.95-1.33,1.3a2.59,2.59,0,0,0-.92,2.86,9.52,9.52,0,0,1,.7,1.53c.11.65-.34,1.3-.49,1.92a5,5,0,0,0-.09,1.68c.17,1.46,1.69,2.36,3,2.66a7.19,7.19,0,0,0,4.68-.41A3.09,3.09,0,0,0,91.12,64a2.61,2.61,0,0,0-.34-2.14c-.4-.65-.86-1.21-.36-1.94a6.54,6.54,0,0,0,.87-1.36,2.2,2.2,0,0,0,0-1.39,2.57,2.57,0,0,0-.95-1.11c-.43-.33-1-.61-1.27-1.14-.14-.35-.11-.7-.22-1.05A3.48,3.48,0,0,0,88.65,53.52Z" transform="translate(-0.01 0.01)"/><path class="cls-14" d="M88.65,53.52a2.3,2.3,0,0,0-1.34-1.31c-1-.38-2.56-.38-3.12.71a11.31,11.31,0,0,0-.37,1.32c-.22.6-.83.95-1.33,1.3a2.59,2.59,0,0,0-.92,2.86,9.52,9.52,0,0,1,.7,1.53c.11.65-.34,1.3-.49,1.92a5,5,0,0,0-.09,1.68c.17,1.46,1.69,2.36,3,2.66a7.19,7.19,0,0,0,4.68-.41A3.09,3.09,0,0,0,91.12,64a2.61,2.61,0,0,0-.34-2.14c-.4-.65-.86-1.21-.36-1.94a6.54,6.54,0,0,0,.87-1.36,2.2,2.2,0,0,0,0-1.39,2.57,2.57,0,0,0-.95-1.11c-.43-.33-1-.61-1.27-1.14-.14-.35-.11-.7-.22-1.05A3.48,3.48,0,0,0,88.65,53.52Z" transform="translate(-0.01 0.01)"/><path class="cls-10" d="M89.9,65.47c-1.69.4-3.34.85-5,.05C83.63,65,82,63.76,82.8,62.25c.36-.72,1-1.39.87-2.25s-.6-1.11-1.12-1.59a3,3,0,0,1-1-1.53,2.45,2.45,0,0,0,0,1.52,9.52,9.52,0,0,1,.7,1.53c.11.65-.34,1.3-.49,1.92a5,5,0,0,0-.09,1.68c.17,1.46,1.69,2.36,3,2.66a7.19,7.19,0,0,0,4.68-.41C89.55,65.68,89.73,65.58,89.9,65.47Z" transform="translate(-0.01 0.01)"/><path class="cls-10" d="M86.23,52a2.58,2.58,0,0,1,1.19.55,1.28,1.28,0,0,1,.44,1.12c-.08.38-.41.72-.37,1.12a1.11,1.11,0,0,0,.56.85,5.84,5.84,0,0,0,2.1.38A2.78,2.78,0,0,1,89,55c-.14-.35-.11-.7-.22-1.05a3.49,3.49,0,0,0-.16-.4,2.3,2.3,0,0,0-1.34-1.31A3.62,3.62,0,0,0,86.23,52Z" transform="translate(-0.01 0.01)"/><path class="cls-10" d="M91,62.24a3.07,3.07,0,0,0-.18-.33c-.4-.65-.86-1.21-.36-1.94l.3-.41c-.68.2-1.62.5-1.39,1.34C89.47,61.46,90.37,61.85,91,62.24Z" transform="translate(-0.01 0.01)"/></g><path id="_Path_55" data-name="&lt;Path&gt;" class="cls-16" d="M84.18,63.22l2.14,4.24v-2l.22-8.31.32,8.31v1.31l2.35-4.11-2.35,5v5.3a.13.13,0,0,1-.08.11.42.42,0,0,1-.38,0,.13.13,0,0,1-.08-.11V68.54Z" transform="translate(-0.01 0.01)"/><path id="Bush-8" data-name="Bush" class="cls-2" d="M86.37,73.54l-1.92-1.11A1.53,1.53,0,0,1,84,72a1.09,1.09,0,0,1-.23-.5.26.26,0,0,1,0-.19c.07-.1.23-.07.32,0l.26.26a2.88,2.88,0,0,1,0-.67.3.3,0,0,1,.08-.22.25.25,0,0,1,.27,0,1.13,1.13,0,0,1,.44.71,2.29,2.29,0,0,1,0-.85c.07-.3.41-.42.53-.13a1.69,1.69,0,0,1,.1.48,2,2,0,0,1,0,.64,2,2,0,0,1,.51-.71.31.31,0,0,1,.3-.1c.12,0,.14.21.13.34a1.82,1.82,0,0,1-.26.77,1.61,1.61,0,0,1,.65-.25.19.19,0,0,1,.2.07.26.26,0,0,1,0,.27,1.61,1.61,0,0,1-.52.48,1.68,1.68,0,0,1,.63-.07.22.22,0,0,1,.17.07c.05.08,0,.19-.08.25A1.89,1.89,0,0,1,87,73a.65.65,0,0,1,.28,0,.22.22,0,0,1,.13.23.28.28,0,0,1-.2.18A1.35,1.35,0,0,1,86.37,73.54Z" transform="translate(-0.01 0.01)"/><path id="Bush-9" data-name="Bush" class="cls-14" d="M86.37,73.54l-1.92-1.11A1.53,1.53,0,0,1,84,72a1.09,1.09,0,0,1-.23-.5.26.26,0,0,1,0-.19c.07-.1.23-.07.32,0l.26.26a2.88,2.88,0,0,1,0-.67.3.3,0,0,1,.08-.22.25.25,0,0,1,.27,0,1.13,1.13,0,0,1,.44.71,2.29,2.29,0,0,1,0-.85c.07-.3.41-.42.53-.13a1.69,1.69,0,0,1,.1.48,2,2,0,0,1,0,.64,2,2,0,0,1,.51-.71.31.31,0,0,1,.3-.1c.12,0,.14.21.13.34a1.82,1.82,0,0,1-.26.77,1.61,1.61,0,0,1,.65-.25.19.19,0,0,1,.2.07.26.26,0,0,1,0,.27,1.61,1.61,0,0,1-.52.48,1.68,1.68,0,0,1,.63-.07.22.22,0,0,1,.17.07c.05.08,0,.19-.08.25A1.89,1.89,0,0,1,87,73a.65.65,0,0,1,.28,0,.22.22,0,0,1,.13.23.28.28,0,0,1-.2.18A1.35,1.35,0,0,1,86.37,73.54Z" transform="translate(-0.01 0.01)"/></g><g id="Bullrush"><path class="cls-2" d="M52.75,74.68h0c0,.21,0,.41-.06.61h0c0,.09,0,.19,0,.28h0l-.14.05h0l0,0h0l0-.1a8.7,8.7,0,0,0,.13-.91h0a8,8,0,0,0,0-1.15c0-.13,0-.26,0-.38a7.61,7.61,0,0,0-.14-.8c0-.09,0-.16-.05-.21s0-.09,0-.09a.33.33,0,0,1,0,.09l.07.21a5.07,5.07,0,0,1,.18.82c0,.12,0,.23,0,.35A7.19,7.19,0,0,1,52.75,74.68Z" transform="translate(-0.01 0.01)"/><path class="cls-15" d="M52.75,74.68h0c0,.21,0,.41-.06.61h0c0,.09,0,.19,0,.28h0l-.14.05h0l0,0h0l0-.1a8.7,8.7,0,0,0,.13-.91h0a8,8,0,0,0,0-1.15c0-.13,0-.26,0-.38a7.61,7.61,0,0,0-.14-.8c0-.09,0-.16-.05-.21s0-.09,0-.09a.33.33,0,0,1,0,.09l.07.21a5.07,5.07,0,0,1,.18.82c0,.12,0,.23,0,.35A7.19,7.19,0,0,1,52.75,74.68Z" transform="translate(-0.01 0.01)"/><path class="cls-2" d="M53.71,72.3v0a5.57,5.57,0,0,1-.1,1l0,.16a7.78,7.78,0,0,1-.7,2l-.14.06h0l-.06,0h0l.06-.1.1-.18a8.26,8.26,0,0,0,.7-1.78l0-.17a7.23,7.23,0,0,0,.15-1v0a2.46,2.46,0,0,1,0-.27A1.64,1.64,0,0,1,53.71,72.3Z" transform="translate(-0.01 0.01)"/><path class="cls-15" d="M53.71,72.3v0a5.57,5.57,0,0,1-.1,1l0,.16a7.78,7.78,0,0,1-.7,2l-.14.06h0l-.06,0h0l.06-.1.1-.18a8.26,8.26,0,0,0,.7-1.78l0-.17a7.23,7.23,0,0,0,.15-1v0a2.46,2.46,0,0,1,0-.27A1.64,1.64,0,0,1,53.71,72.3Z" transform="translate(-0.01 0.01)"/><path class="cls-2" d="M52.32,75.69h0l-.13,0a8.12,8.12,0,0,0-1-1.8,6.83,6.83,0,0,0-.79-.9c-.14-.14-.24-.2-.23-.21a2.33,2.33,0,0,1,.26.2,5.86,5.86,0,0,1,.82.85,7.72,7.72,0,0,1,1,1.71h0Z" transform="translate(-0.01 0.01)"/><path class="cls-15" d="M52.32,75.69h0l-.13,0a8.12,8.12,0,0,0-1-1.8,6.83,6.83,0,0,0-.79-.9c-.14-.14-.24-.2-.23-.21a2.33,2.33,0,0,1,.26.2,5.86,5.86,0,0,1,.82.85,7.72,7.72,0,0,1,1,1.71h0Z" transform="translate(-0.01 0.01)"/><path class="cls-2" d="M52.51,75.62h0l0,0h0l-.15.06h0l0-.1h0a11.33,11.33,0,0,0-.83-2.72l0,0-.15-.3c-.09-.18-.18-.34-.26-.48s-.2-.33-.29-.46h0l-.08-.12-.13-.19c-.08-.1-.12-.15-.11-.16a1,1,0,0,1,.14.15l.15.18.06.08h0a5.57,5.57,0,0,1,.34.49c.09.14.17.28.25.43l.18.34,0,0a10.54,10.54,0,0,1,.89,2.55h0l0,.11Z" transform="translate(-0.01 0.01)"/><path class="cls-17" d="M52.51,75.62h0l0,0h0l-.15.06h0l0-.1h0a11.33,11.33,0,0,0-.83-2.72l0,0-.15-.3c-.09-.18-.18-.34-.26-.48s-.2-.33-.29-.46h0l-.08-.12-.13-.19c-.08-.1-.12-.15-.11-.16a1,1,0,0,1,.14.15l.15.18.06.08h0a5.57,5.57,0,0,1,.34.49c.09.14.17.28.25.43l.18.34,0,0a10.54,10.54,0,0,1,.89,2.55h0l0,.11Z" transform="translate(-0.01 0.01)"/><path class="cls-11" d="M50.72,71.59s-.07.07,0,.23.32.55.42.69.31,0,.24-.15a4.65,4.65,0,0,0-.4-.67c-.1-.13-.16-.16-.23-.13h0s0,0,0,0h0Z" transform="translate(-0.01 0.01)"/><path class="cls-2" d="M53.06,72.94c0,.09,0,.18,0,.27a9.44,9.44,0,0,1-.27,2.09l-.06.24h0l-.06,0h0l-.14.05h0c.06-.2.11-.39.16-.58s.06-.24.08-.36h0a10.37,10.37,0,0,0,.2-1.5c0-.08,0-.16,0-.23s0-.24,0-.35,0-.31,0-.44,0-.37-.06-.52l0-.12c0-.06,0-.11,0-.16a.85.85,0,0,1,0-.21,1,1,0,0,1,.06.22l0,.16,0,.11c0,.18.06.36.09.54s0,.28,0,.43S53.06,72.82,53.06,72.94Z" transform="translate(-0.01 0.01)"/><path class="cls-17" d="M53.06,72.94c0,.09,0,.18,0,.27a9.44,9.44,0,0,1-.27,2.09l-.06.24h0l-.06,0h0l-.14.05h0c.06-.2.11-.39.16-.58s.06-.24.08-.36h0a10.37,10.37,0,0,0,.2-1.5c0-.08,0-.16,0-.23s0-.24,0-.35,0-.31,0-.44,0-.37-.06-.52l0-.12c0-.06,0-.11,0-.16a.85.85,0,0,1,0-.21,1,1,0,0,1,.06.22l0,.16,0,.11c0,.18.06.36.09.54s0,.28,0,.43S53.06,72.82,53.06,72.94Z" transform="translate(-0.01 0.01)"/><path class="cls-11" d="M52.88,71.62s-.08,0-.08.19,0,.56.07.71.25.12.25,0a4.14,4.14,0,0,0-.06-.69c0-.14-.06-.19-.13-.19h0s0,0,0,0h0Z" transform="translate(-0.01 0.01)"/><path class="cls-2" d="M52.7,75.55l-.06,0h0l-.14.05h0l0,0h0c0-.07,0-.14,0-.21h0A11.48,11.48,0,0,0,52.14,73c-.06-.24-.12-.46-.19-.66l-.09-.25a8.07,8.07,0,0,0-.33-.79l-.19-.39,0-.05c-.12-.24-.22-.36-.2-.37a3.2,3.2,0,0,1,.25.37l0,.06c.08.13.15.26.22.4a7.72,7.72,0,0,1,.35.79l.08.2c.09.25.18.5.24.75a10.51,10.51,0,0,1,.32,1.61h0c0,.14,0,.28,0,.42s0,.17,0,.25h0c0,.06,0,.12,0,.18Z" transform="translate(-0.01 0.01)"/><path class="cls-17" d="M52.7,75.55l-.06,0h0l-.14.05h0l0,0h0c0-.07,0-.14,0-.21h0A11.48,11.48,0,0,0,52.14,73c-.06-.24-.12-.46-.19-.66l-.09-.25a8.07,8.07,0,0,0-.33-.79l-.19-.39,0-.05c-.12-.24-.22-.36-.2-.37a3.2,3.2,0,0,1,.25.37l0,.06c.08.13.15.26.22.4a7.72,7.72,0,0,1,.35.79l.08.2c.09.25.18.5.24.75a10.51,10.51,0,0,1,.32,1.61h0c0,.14,0,.28,0,.42s0,.17,0,.25h0c0,.06,0,.12,0,.18Z" transform="translate(-0.01 0.01)"/></g><g id="Bullrush-2" data-name="Bullrush"><path class="cls-2" d="M45.52,64h0c0,.12,0,.23.08.34h0l0,.15h0l.08,0h0l0-.06a5,5,0,0,1-.14-.5h0a4.58,4.58,0,0,1-.09-.65c0-.08,0-.15,0-.22a4.34,4.34,0,0,1,0-.46c0-.05,0-.09,0-.12s0-.05,0-.06a.19.19,0,0,0,0,.06l0,.13a2.9,2.9,0,0,0,0,.47c0,.07,0,.13,0,.2A4.11,4.11,0,0,0,45.52,64Z" transform="translate(-0.01 0.01)"/><path class="cls-15" d="M45.52,64h0c0,.12,0,.23.08.34h0l0,.15h0l.08,0h0l0-.06a5,5,0,0,1-.14-.5h0a4.58,4.58,0,0,1-.09-.65c0-.08,0-.15,0-.22a4.34,4.34,0,0,1,0-.46c0-.05,0-.09,0-.12s0-.05,0-.06a.19.19,0,0,0,0,.06l0,.13a2.9,2.9,0,0,0,0,.47c0,.07,0,.13,0,.2A4.11,4.11,0,0,0,45.52,64Z" transform="translate(-0.01 0.01)"/><path class="cls-2" d="M44.81,62.75v0a3.18,3.18,0,0,0,.13.57l0,.09a4.45,4.45,0,0,0,.53,1.06l.08,0h.06l0-.05-.07-.09a4.72,4.72,0,0,1-.52-1l0-.09a4.13,4.13,0,0,1-.15-.56v0a1.4,1.4,0,0,0,0-.15A.94.94,0,0,0,44.81,62.75Z" transform="translate(-0.01 0.01)"/><path class="cls-15" d="M44.81,62.75v0a3.18,3.18,0,0,0,.13.57l0,.09a4.45,4.45,0,0,0,.53,1.06l.08,0h.06l0-.05-.07-.09a4.72,4.72,0,0,1-.52-1l0-.09a4.13,4.13,0,0,1-.15-.56v0a1.4,1.4,0,0,0,0-.15A.94.94,0,0,0,44.81,62.75Z" transform="translate(-0.01 0.01)"/><path class="cls-2" d="M45.83,64.58h0l.08,0a4.64,4.64,0,0,1,.43-1.09,3.9,3.9,0,0,1,.39-.56c.07-.09.12-.13.12-.14l-.13.13a3.35,3.35,0,0,0-.41.54,4.41,4.41,0,0,0-.47,1h0Z" transform="translate(-0.01 0.01)"/><path class="cls-15" d="M45.83,64.58h0l.08,0a4.64,4.64,0,0,1,.43-1.09,3.9,3.9,0,0,1,.39-.56c.07-.09.12-.13.12-.14l-.13.13a3.35,3.35,0,0,0-.41.54,4.41,4.41,0,0,0-.47,1h0Z" transform="translate(-0.01 0.01)"/><path class="cls-2" d="M45.72,64.55h0l.09,0h0v-.06h0a6.47,6.47,0,0,1,.28-1.6v0l.06-.18c0-.11.08-.2.12-.29l.13-.28h0l0-.07.06-.12c0-.06.06-.09.05-.1l-.07.1-.07.11,0,.05h0a3.18,3.18,0,0,0-.16.3l-.12.26-.08.21v0a6,6,0,0,0-.33,1.51h0v.12Z" transform="translate(-0.01 0.01)"/><path class="cls-17" d="M45.72,64.55h0l.09,0h0v-.06h0a6.47,6.47,0,0,1,.28-1.6v0l.06-.18c0-.11.08-.2.12-.29l.13-.28h0l0-.07.06-.12c0-.06.06-.09.05-.1l-.07.1-.07.11,0,.05h0a3.18,3.18,0,0,0-.16.3l-.12.26-.08.21v0a6,6,0,0,0-.33,1.51h0v.12Z" transform="translate(-0.01 0.01)"/><path class="cls-11" d="M46.46,62.15s0,0,0,.13-.14.33-.19.42-.18,0-.15-.07a2.66,2.66,0,0,1,.18-.41c0-.08.08-.1.12-.09h0s0,0,0,0h0Z" transform="translate(-0.01 0.01)"/><path class="cls-2" d="M45.22,63.07l0,.15a5.39,5.39,0,0,0,.29,1.17l0,.13h.06l.08,0h0l-.13-.32-.07-.2h0a5.93,5.93,0,0,1-.22-.84l0-.13c0-.07,0-.13,0-.2s0-.18,0-.25,0-.21,0-.3v-.07s0-.06,0-.09a.48.48,0,0,0,0-.12.59.59,0,0,0,0,.13v.1s0,0,0,.06,0,.21,0,.31,0,.16,0,.24Z" transform="translate(-0.01 0.01)"/><path class="cls-17" d="M45.22,63.07l0,.15a5.39,5.39,0,0,0,.29,1.17l0,.13h.06l.08,0h0l-.13-.32-.07-.2h0a5.93,5.93,0,0,1-.22-.84l0-.13c0-.07,0-.13,0-.2s0-.18,0-.25,0-.21,0-.3v-.07s0-.06,0-.09a.48.48,0,0,0,0-.12.59.59,0,0,0,0,.13v.1s0,0,0,.06,0,.21,0,.31,0,.16,0,.24Z" transform="translate(-0.01 0.01)"/><path class="cls-11" d="M45.23,62.31s0,0,.06.1,0,.32,0,.41-.13.09-.15,0a2.36,2.36,0,0,1,0-.4c0-.08,0-.11.06-.12h0Z" transform="translate(-0.01 0.01)"/><path class="cls-2" d="M45.6,64.53h0l.08,0h0v-.12h0a6.56,6.56,0,0,1,0-1.4c0-.14,0-.27.06-.39l0-.15A4.61,4.61,0,0,1,46,62l.08-.24v0c.05-.15.1-.22.09-.23a1.82,1.82,0,0,0-.12.23l0,0-.1.24a4.41,4.41,0,0,0-.15.47l0,.12c0,.15-.07.3-.09.44a6,6,0,0,0-.07.93h0c0,.08,0,.16,0,.24s0,.09,0,.14h0s0,.07,0,.1Z" transform="translate(-0.01 0.01)"/><path class="cls-17" d="M45.6,64.53h0l.08,0h0v-.12h0a6.56,6.56,0,0,1,0-1.4c0-.14,0-.27.06-.39l0-.15A4.61,4.61,0,0,1,46,62l.08-.24v0c.05-.15.1-.22.09-.23a1.82,1.82,0,0,0-.12.23l0,0-.1.24a4.41,4.41,0,0,0-.15.47l0,.12c0,.15-.07.3-.09.44a6,6,0,0,0-.07.93h0c0,.08,0,.16,0,.24s0,.09,0,.14h0s0,.07,0,.1Z" transform="translate(-0.01 0.01)"/></g><g id="Bullrush-3" data-name="Bullrush"><path class="cls-2" d="M69.56,68.79h0c0,.21,0,.41.06.61h0c0,.09,0,.19,0,.28h0l.14.05h0l0,0h0l0-.1a8.7,8.7,0,0,1-.13-.91h0a8,8,0,0,1,0-1.15c0-.13,0-.26,0-.38a7.62,7.62,0,0,1,.14-.8c0-.09,0-.16.05-.21s0-.09,0-.09a.33.33,0,0,0,0,.09l-.07.21a5.07,5.07,0,0,0-.18.82c0,.12,0,.23,0,.35A7.19,7.19,0,0,0,69.56,68.79Z" transform="translate(-0.01 0.01)"/><path class="cls-15" d="M69.56,68.79h0c0,.21,0,.41.06.61h0c0,.09,0,.19,0,.28h0l.14.05h0l0,0h0l0-.1a8.7,8.7,0,0,1-.13-.91h0a8,8,0,0,1,0-1.15c0-.13,0-.26,0-.38a7.62,7.62,0,0,1,.14-.8c0-.09,0-.16.05-.21s0-.09,0-.09a.33.33,0,0,0,0,.09l-.07.21a5.07,5.07,0,0,0-.18.82c0,.12,0,.23,0,.35A7.19,7.19,0,0,0,69.56,68.79Z" transform="translate(-0.01 0.01)"/><path class="cls-2" d="M68.6,66.41v0a5.57,5.57,0,0,0,.1,1l0,.16a7.78,7.78,0,0,0,.7,2l.14.06h0l.06,0h0l-.06-.1-.1-.18a8.26,8.26,0,0,1-.7-1.78l0-.17a7.23,7.23,0,0,1-.15-1v0a2.46,2.46,0,0,0,0-.27A1.64,1.64,0,0,0,68.6,66.41Z" transform="translate(-0.01 0.01)"/><path class="cls-15" d="M68.6,66.41v0a5.57,5.57,0,0,0,.1,1l0,.16a7.78,7.78,0,0,0,.7,2l.14.06h0l.06,0h0l-.06-.1-.1-.18a8.26,8.26,0,0,1-.7-1.78l0-.17a7.23,7.23,0,0,1-.15-1v0a2.46,2.46,0,0,0,0-.27A1.64,1.64,0,0,0,68.6,66.41Z" transform="translate(-0.01 0.01)"/><path class="cls-2" d="M70,69.81h0l.13,0a8.12,8.12,0,0,1,1-1.8,6.83,6.83,0,0,1,.79-.9c.14-.14.24-.2.23-.21a2.33,2.33,0,0,0-.26.2,5.86,5.86,0,0,0-.82.85,7.72,7.72,0,0,0-1,1.71h0Z" transform="translate(-0.01 0.01)"/><path class="cls-15" d="M70,69.81h0l.13,0a8.12,8.12,0,0,1,1-1.8,6.83,6.83,0,0,1,.79-.9c.14-.14.24-.2.23-.21a2.33,2.33,0,0,0-.26.2,5.86,5.86,0,0,0-.82.85,7.72,7.72,0,0,0-1,1.71h0Z" transform="translate(-0.01 0.01)"/><path class="cls-2" d="M69.8,69.73h0l0,0h0l.15.06h0l0-.1h0A11.33,11.33,0,0,1,70.86,67l0,0,.15-.3c.09-.18.18-.34.26-.48s.2-.33.29-.46h0l.08-.12.13-.19c.08-.1.12-.15.11-.16a1,1,0,0,0-.14.15l-.15.18-.06.08h0a5.57,5.57,0,0,0-.34.49c-.09.14-.17.28-.25.43l-.18.34,0,0a10.54,10.54,0,0,0-.89,2.55h0l0,.11Z" transform="translate(-0.01 0.01)"/><path class="cls-17" d="M69.8,69.73h0l0,0h0l.15.06h0l0-.1h0A11.33,11.33,0,0,1,70.86,67l0,0,.15-.3c.09-.18.18-.34.26-.48s.2-.33.29-.46h0l.08-.12.13-.19c.08-.1.12-.15.11-.16a1,1,0,0,0-.14.15l-.15.18-.06.08h0a5.57,5.57,0,0,0-.34.49c-.09.14-.17.28-.25.43l-.18.34,0,0a10.54,10.54,0,0,0-.89,2.55h0l0,.11Z" transform="translate(-0.01 0.01)"/><path class="cls-11" d="M71.59,65.7s.07.07,0,.23-.32.55-.42.69-.31,0-.24-.15a4.65,4.65,0,0,1,.4-.67c.1-.13.16-.16.23-.13h0s0,0,0,0h0Z" transform="translate(-0.01 0.01)"/><path class="cls-2" d="M69.25,67c0,.09,0,.18,0,.27a9.44,9.44,0,0,0,.27,2.09l.06.24h0l.06,0h0l.14.05h0c-.06-.2-.11-.39-.16-.58s-.06-.24-.08-.36h0a10.37,10.37,0,0,1-.2-1.5c0-.08,0-.16,0-.23s0-.24,0-.35,0-.31,0-.44,0-.37.06-.52l0-.12c0-.06,0-.11,0-.16a.84.84,0,0,0,0-.21,1,1,0,0,0-.06.22l0,.16,0,.11c0,.18-.06.36-.09.54s0,.28,0,.43S69.25,66.93,69.25,67Z" transform="translate(-0.01 0.01)"/><path class="cls-17" d="M69.25,67c0,.09,0,.18,0,.27a9.44,9.44,0,0,0,.27,2.09l.06.24h0l.06,0h0l.14.05h0c-.06-.2-.11-.39-.16-.58s-.06-.24-.08-.36h0a10.37,10.37,0,0,1-.2-1.5c0-.08,0-.16,0-.23s0-.24,0-.35,0-.31,0-.44,0-.37.06-.52l0-.12c0-.06,0-.11,0-.16a.84.84,0,0,0,0-.21,1,1,0,0,0-.06.22l0,.16,0,.11c0,.18-.06.36-.09.54s0,.28,0,.43S69.25,66.93,69.25,67Z" transform="translate(-0.01 0.01)"/><path class="cls-11" d="M69.43,65.74s.08,0,.08.19,0,.56-.07.71-.25.12-.25,0a4.14,4.14,0,0,1,.06-.69c0-.14.06-.19.13-.19h0s0,0,0,0h0Z" transform="translate(-0.01 0.01)"/><path class="cls-2" d="M69.6,69.66l.06,0h0l.14.05h0l0,0h0c0-.07,0-.14,0-.21h0a11.48,11.48,0,0,1,.32-2.43c.06-.24.12-.46.19-.66l.09-.25a8.07,8.07,0,0,1,.33-.79L71,65l0-.05c.12-.24.22-.36.2-.37a3.2,3.2,0,0,0-.25.37l0,.06c-.08.13-.15.26-.22.4a7.72,7.72,0,0,0-.35.79l-.08.2c-.09.25-.18.5-.24.75a10.51,10.51,0,0,0-.32,1.61h0c0,.14,0,.28,0,.42s0,.17,0,.25h0c0,.06,0,.12,0,.18Z" transform="translate(-0.01 0.01)"/><path class="cls-17" d="M69.6,69.66l.06,0h0l.14.05h0l0,0h0c0-.07,0-.14,0-.21h0a11.48,11.48,0,0,1,.32-2.43c.06-.24.12-.46.19-.66l.09-.25a8.07,8.07,0,0,1,.33-.79L71,65l0-.05c.12-.24.22-.36.2-.37a3.2,3.2,0,0,0-.25.37l0,.06c-.08.13-.15.26-.22.4a7.72,7.72,0,0,0-.35.79l-.08.2c-.09.25-.18.5-.24.75a10.51,10.51,0,0,0-.32,1.61h0c0,.14,0,.28,0,.42s0,.17,0,.25h0c0,.06,0,.12,0,.18Z" transform="translate(-0.01 0.01)"/></g><g id="Rocks"><polygon id="Shadow" class="cls-10" points="71.29 70.55 71.78 70.92 72.14 71.53 72.54 71.48 72.49 71.6 72.85 72.06 73.35 72.23 73.68 72.65 74.39 72.65 74.57 72.43 75.1 72.4 75.95 71.75 75.51 71.17 74.75 70.8 75.45 70.6 75.91 70.18 76.08 69.61 75.28 69.09 74.26 69.03 71.37 69.22 71.29 70.55"/><g id="Rock"><polygon class="cls-12" points="75.16 68.78 75.22 69.4 74.68 69.17 73.98 69.46 73.65 69.81 73.35 70.52 73.03 71.53 72.78 70.62 73.35 69.81 73.9 69.3 74.64 69.1 75.16 68.78"/><polygon class="cls-12" points="74.26 71.05 75.27 70.33 74.93 69.58 74.26 71.05"/><polygon class="cls-16" points="74.12 67.85 75.16 68.78 74.64 69.1 73.9 69.3 73.35 69.81 73.69 69.17 74.22 68.64 74.12 67.85"/><polygon class="cls-16" points="73.35 67.76 72.02 68.48 71.54 69.04 72.35 69.23 73.35 69.81 73.69 69.17 73.27 68.48 73.35 67.76"/><polygon class="cls-16" points="74.68 69.17 73.98 69.46 73.65 69.81 73.35 70.52 73.5 71.22 74.26 71.05 74.93 69.58 74.68 69.17"/><polygon class="cls-16" points="72.02 68.48 71.1 68.96 70.73 69.09 70.65 69.36 71.03 69.71 72.73 70.44 72.91 70.27 72.34 69.66 71.89 69.66 71.54 69.04 72.02 68.48"/><polygon class="cls-12" points="71.54 69.04 71.89 69.66 72.34 69.66 72.35 69.23 71.54 69.04"/><polygon class="cls-12" points="70.84 70.4 71.2 70.52 71.41 70.33 72.21 70.46 71.05 69.99 70.84 70.4"/><polygon class="cls-16" points="72.54 70.55 72.21 70.46 71.85 70.82 72.14 71.28 72.54 70.55"/><polygon class="cls-11" points="75.22 69.4 75.61 70.03 75.27 70.33 74.93 69.58 74.68 69.17 75.22 69.4"/><polygon class="cls-11" points="73.03 71.53 73.5 71.22 73.35 70.52 73.03 71.53"/><polygon class="cls-11" points="73.35 69.81 72.91 70.27 72.34 69.66 72.35 69.23 73.35 69.81"/><polygon class="cls-11" points="73.35 67.76 74.12 67.85 74.22 68.64 73.69 69.17 73.27 68.48 73.35 67.76"/><polygon class="cls-11" points="70.34 69.37 70.12 69.87 70.84 70.4 71.05 69.99 70.34 69.37"/><polygon class="cls-11" points="73.03 71.53 72.14 71.28 72.54 70.55 72.78 70.62 73.03 71.53"/><polygon class="cls-11" points="71.2 70.52 71.85 70.82 72.21 70.46 71.41 70.33 71.2 70.52"/><polygon class="cls-11" points="72.58 68.18 72.08 68.67 71.94 68.96 72.4 69.02 73.35 69.81 72.35 69.23 71.54 69.04 72.02 68.48 72.58 68.18"/><polygon class="cls-11" points="74.12 67.85 74.04 68.59 73.58 68.99 73.69 69.17 74.22 68.64 74.12 67.85"/><polygon class="cls-11" points="72.78 70.62 72.21 70.46 71.05 69.99 70.34 69.37 70.65 68.99 71.1 68.96 70.73 69.09 70.65 69.36 71.03 69.71 72.73 70.44 73.35 69.81 72.78 70.62"/><g class="cls-10"><polygon class="cls-3" points="72.58 68.18 72.08 68.67 71.94 68.96 72.4 69.02 73.35 69.81 72.35 69.23 71.54 69.04 72.02 68.48 72.58 68.18"/><polygon class="cls-3" points="74.12 67.85 74.04 68.59 73.58 68.99 73.69 69.17 74.22 68.64 74.12 67.85"/><polygon class="cls-3" points="72.78 70.62 72.21 70.46 71.05 69.99 70.34 69.37 70.65 68.99 71.1 68.96 70.73 69.09 70.65 69.36 71.03 69.71 72.73 70.44 73.35 69.81 72.78 70.62"/></g></g><g id="Rock-2" data-name="Rock"><polygon class="cls-12" points="75.27 71 75.3 71.34 75 71.21 74.62 71.37 74.44 71.56 74.27 71.96 74.1 72.51 73.96 72.01 74.27 71.56 74.57 71.28 74.98 71.17 75.27 71"/><polygon class="cls-12" points="74.77 72.24 75.33 71.85 75.14 71.44 74.77 72.24"/><polygon class="cls-16" points="74.69 70.48 75.27 71 74.98 71.17 74.57 71.28 74.27 71.56 74.45 71.21 74.75 70.92 74.69 70.48"/><polygon class="cls-16" points="74.27 70.43 73.54 70.83 73.28 71.14 73.72 71.25 74.27 71.56 74.45 71.21 74.22 70.83 74.27 70.43"/><polygon class="cls-16" points="75 71.21 74.62 71.37 74.44 71.56 74.27 71.96 74.35 72.34 74.77 72.24 75.14 71.44 75 71.21"/><polygon class="cls-16" points="73.54 70.83 73.03 71.09 72.83 71.17 72.78 71.32 72.99 71.51 73.93 71.91 74.03 71.81 73.72 71.48 73.47 71.48 73.28 71.14 73.54 70.83"/><polygon class="cls-12" points="73.28 71.14 73.47 71.48 73.72 71.48 73.72 71.25 73.28 71.14"/><polygon class="cls-12" points="72.89 71.89 73.09 71.96 73.2 71.85 73.64 71.92 73 71.66 72.89 71.89"/><polygon class="cls-16" points="73.82 71.97 73.64 71.92 73.44 72.12 73.61 72.37 73.82 71.97"/><polygon class="cls-11" points="75.3 71.34 75.51 71.68 75.33 71.85 75.14 71.44 75 71.21 75.3 71.34"/><polygon class="cls-11" points="74.1 72.51 74.35 72.34 74.27 71.96 74.1 72.51"/><polygon class="cls-11" points="74.27 71.56 74.03 71.81 73.72 71.48 73.72 71.25 74.27 71.56"/><polygon class="cls-11" points="74.27 70.43 74.69 70.48 74.75 70.92 74.45 71.21 74.22 70.83 74.27 70.43"/><polygon class="cls-11" points="72.61 71.32 72.49 71.6 72.89 71.89 73 71.66 72.61 71.32"/><polygon class="cls-11" points="74.1 72.51 73.61 72.37 73.82 71.97 73.96 72.01 74.1 72.51"/><polygon class="cls-11" points="73.09 71.96 73.44 72.12 73.64 71.92 73.2 71.85 73.09 71.96"/><polygon class="cls-11" points="73.84 70.66 73.57 70.94 73.5 71.09 73.75 71.13 74.27 71.56 73.72 71.25 73.28 71.14 73.54 70.83 73.84 70.66"/><polygon class="cls-11" points="74.69 70.48 74.65 70.89 74.39 71.11 74.45 71.21 74.75 70.92 74.69 70.48"/><polygon class="cls-11" points="73.96 72.01 73.64 71.92 73 71.66 72.61 71.32 72.78 71.11 73.03 71.09 72.83 71.17 72.78 71.32 72.99 71.51 73.93 71.91 74.27 71.56 73.96 72.01"/><g class="cls-10"><polygon class="cls-3" points="73.84 70.66 73.57 70.94 73.5 71.09 73.75 71.13 74.27 71.56 73.72 71.25 73.28 71.14 73.54 70.83 73.84 70.66"/><polygon class="cls-3" points="74.69 70.48 74.65 70.89 74.39 71.11 74.45 71.21 74.75 70.92 74.69 70.48"/><polygon class="cls-3" points="73.96 72.01 73.64 71.92 73 71.66 72.61 71.32 72.78 71.11 73.03 71.09 72.83 71.17 72.78 71.32 72.99 71.51 73.93 71.91 74.27 71.56 73.96 72.01"/></g></g></g><g id="Rocks-2" data-name="Rocks"><polygon id="Shadow-2" data-name="Shadow" class="cls-10" points="22.96 81.32 22.52 81.65 22.19 82.21 21.82 82.17 21.87 82.27 21.54 82.7 21.07 82.86 20.77 83.24 20.12 83.24 19.96 83.03 19.47 83.01 18.7 82.42 19.09 81.88 19.8 81.54 19.15 81.36 18.73 80.98 18.57 80.45 19.31 79.97 20.25 79.92 22.9 80.09 22.96 81.32"/><g id="Rock-3" data-name="Rock"><polygon class="cls-2" points="21.07 78.74 22.3 79.4 22.73 79.92 21.99 80.1 21.07 80.62 20.77 80.04 21.16 79.4 21.07 78.74"/><polygon class="cls-15" points="21.07 78.74 22.3 79.4 22.73 79.92 21.99 80.1 21.07 80.62 20.77 80.04 21.16 79.4 21.07 78.74"/><polygon class="cls-2" points="21.07 78.74 20.37 78.83 20.29 79.55 20.77 80.04 21.16 79.4 21.07 78.74"/><polygon class="cls-19" points="21.07 78.74 20.37 78.83 20.29 79.55 20.77 80.04 21.16 79.4 21.07 78.74"/><polygon class="cls-2" points="19.41 79.68 19.37 80.25 19.86 80.04 20.5 80.3 20.8 80.62 21.07 81.28 21.37 82.2 21.6 81.36 21.07 80.62 20.58 80.15 19.89 79.98 19.41 79.68"/><polygon class="cls-2" points="20.25 81.76 19.32 81.1 19.63 80.42 20.25 81.76"/><g class="cls-13"><polygon points="19.41 79.68 19.37 80.25 19.86 80.04 20.5 80.3 20.8 80.62 21.07 81.28 21.37 82.2 21.6 81.36 21.07 80.62 20.58 80.15 19.89 79.98 19.41 79.68"/><polygon points="20.25 81.76 19.32 81.1 19.63 80.42 20.25 81.76"/></g><polygon class="cls-2" points="21.79 79.13 22.25 79.58 22.37 79.84 21.95 79.9 21.07 80.62 21.99 80.1 22.73 79.92 22.3 79.4 21.79 79.13"/><polygon class="cls-2" points="20.37 78.83 20.45 79.5 20.87 79.87 20.77 80.04 20.29 79.55 20.37 78.83"/><polygon class="cls-2" points="21.6 81.36 22.13 81.22 23.19 80.79 23.84 80.22 23.56 79.87 23.14 79.84 23.48 79.96 23.56 80.22 23.21 80.53 21.65 81.2 21.07 80.62 21.6 81.36"/><g class="cls-20"><polygon points="21.79 79.13 22.25 79.58 22.37 79.84 21.95 79.9 21.07 80.62 21.99 80.1 22.73 79.92 22.3 79.4 21.79 79.13"/><polygon points="20.37 78.83 20.45 79.5 20.87 79.87 20.77 80.04 20.29 79.55 20.37 78.83"/><polygon points="21.6 81.36 22.13 81.22 23.19 80.79 23.84 80.22 23.56 79.87 23.14 79.84 23.48 79.96 23.56 80.22 23.21 80.53 21.65 81.2 21.07 80.62 21.6 81.36"/></g><polygon class="cls-2" points="22.3 79.4 23.14 79.84 23.48 79.96 23.56 80.22 23.21 80.53 21.65 81.2 21.49 81.04 22 80.49 22.42 80.49 22.73 79.92 22.3 79.4"/><polygon class="cls-19" points="22.3 79.4 23.14 79.84 23.48 79.96 23.56 80.22 23.21 80.53 21.65 81.2 21.49 81.04 22 80.49 22.42 80.49 22.73 79.92 22.3 79.4"/><polygon class="cls-2" points="20.37 78.83 19.41 79.68 19.89 79.98 20.58 80.15 21.07 80.62 20.77 80.04 20.29 79.55 20.37 78.83"/><polygon class="cls-2" points="19.86 80.04 20.5 80.3 20.8 80.62 21.07 81.28 20.94 81.92 20.25 81.76 19.63 80.42 19.86 80.04"/><polygon class="cls-2" points="22.73 79.92 22.42 80.49 22 80.49 21.99 80.1 22.73 79.92"/><polygon class="cls-2" points="23.38 81.17 23.05 81.28 22.86 81.1 22.13 81.22 23.19 80.79 23.38 81.17"/><g class="cls-21"><polygon points="20.37 78.83 19.41 79.68 19.89 79.98 20.58 80.15 21.07 80.62 20.77 80.04 20.29 79.55 20.37 78.83"/><polygon points="19.86 80.04 20.5 80.3 20.8 80.62 21.07 81.28 20.94 81.92 20.25 81.76 19.63 80.42 19.86 80.04"/><polygon points="22.73 79.92 22.42 80.49 22 80.49 21.99 80.1 22.73 79.92"/><polygon points="23.38 81.17 23.05 81.28 22.86 81.1 22.13 81.22 23.19 80.79 23.38 81.17"/></g><polygon class="cls-2" points="21.82 81.31 22.13 81.22 22.46 81.55 22.18 81.97 21.82 81.31"/><polygon class="cls-19" points="21.82 81.31 22.13 81.22 22.46 81.55 22.18 81.97 21.82 81.31"/><polygon class="cls-2" points="19.37 80.25 19.01 80.82 19.32 81.1 19.63 80.42 19.86 80.04 19.37 80.25"/><polygon class="cls-2" points="21.37 82.2 20.94 81.92 21.07 81.28 21.37 82.2"/><polygon class="cls-2" points="21.07 80.62 21.49 81.04 22 80.49 21.99 80.1 21.07 80.62"/><polygon class="cls-2" points="23.84 80.22 24.04 80.68 23.38 81.17 23.19 80.79 23.84 80.22"/><polygon class="cls-2" points="21.37 82.2 22.18 81.97 21.82 81.31 21.6 81.36 21.37 82.2"/><polygon class="cls-2" points="23.05 81.28 22.46 81.55 22.13 81.22 22.86 81.1 23.05 81.28"/><g class="cls-14"><polygon points="19.37 80.25 19.01 80.82 19.32 81.1 19.63 80.42 19.86 80.04 19.37 80.25"/><polygon points="21.37 82.2 20.94 81.92 21.07 81.28 21.37 82.2"/><polygon points="21.07 80.62 21.49 81.04 22 80.49 21.99 80.1 21.07 80.62"/><polygon points="23.84 80.22 24.04 80.68 23.38 81.17 23.19 80.79 23.84 80.22"/><polygon points="21.37 82.2 22.18 81.97 21.82 81.31 21.6 81.36 21.37 82.2"/><polygon points="23.05 81.28 22.46 81.55 22.13 81.22 22.86 81.1 23.05 81.28"/></g></g><g id="Rock-4" data-name="Rock"><polygon class="cls-2" points="20.23 81.2 20.91 81.57 21.15 81.86 20.74 81.95 20.23 82.24 20.07 81.92 20.28 81.57 20.23 81.2"/><polygon class="cls-15" points="20.23 81.2 20.91 81.57 21.15 81.86 20.74 81.95 20.23 82.24 20.07 81.92 20.28 81.57 20.23 81.2"/><polygon class="cls-2" points="20.23 81.2 19.85 81.25 19.8 81.65 20.07 81.92 20.28 81.57 20.23 81.2"/><polygon class="cls-19" points="20.23 81.2 19.85 81.25 19.8 81.65 20.07 81.92 20.28 81.57 20.23 81.2"/><polygon class="cls-2" points="19.32 81.72 19.29 82.04 19.56 81.92 19.92 82.07 20.08 82.24 20.23 82.6 20.39 83.11 20.52 82.65 20.23 82.24 19.96 81.98 19.58 81.89 19.32 81.72"/><polygon class="cls-2" points="19.77 82.87 19.27 82.51 19.44 82.13 19.77 82.87"/><g class="cls-13"><polygon points="19.32 81.72 19.29 82.04 19.56 81.92 19.92 82.07 20.08 82.24 20.23 82.6 20.39 83.11 20.52 82.65 20.23 82.24 19.96 81.98 19.58 81.89 19.32 81.72"/><polygon points="19.77 82.87 19.27 82.51 19.44 82.13 19.77 82.87"/></g><polygon class="cls-2" points="20.63 81.42 20.88 81.67 20.94 81.81 20.72 81.84 20.23 82.24 20.74 81.95 21.15 81.86 20.91 81.57 20.63 81.42"/><polygon class="cls-2" points="19.85 81.25 19.89 81.63 20.12 81.83 20.07 81.92 19.8 81.65 19.85 81.25"/><polygon class="cls-2" points="20.52 82.65 20.81 82.57 21.4 82.33 21.75 82.02 21.6 81.83 21.37 81.81 21.56 81.88 21.6 82.02 21.41 82.19 20.55 82.56 20.23 82.24 20.52 82.65"/><g class="cls-20"><polygon points="20.63 81.42 20.88 81.67 20.94 81.81 20.72 81.84 20.23 82.24 20.74 81.95 21.15 81.86 20.91 81.57 20.63 81.42"/><polygon points="19.85 81.25 19.89 81.63 20.12 81.83 20.07 81.92 19.8 81.65 19.85 81.25"/><polygon points="20.52 82.65 20.81 82.57 21.4 82.33 21.75 82.02 21.6 81.83 21.37 81.81 21.56 81.88 21.6 82.02 21.41 82.19 20.55 82.56 20.23 82.24 20.52 82.65"/></g><polygon class="cls-2" points="20.91 81.57 21.37 81.81 21.56 81.88 21.6 82.02 21.41 82.19 20.55 82.56 20.46 82.47 20.74 82.17 20.97 82.17 21.15 81.86 20.91 81.57"/><polygon class="cls-19" points="20.91 81.57 21.37 81.81 21.56 81.88 21.6 82.02 21.41 82.19 20.55 82.56 20.46 82.47 20.74 82.17 20.97 82.17 21.15 81.86 20.91 81.57"/><polygon class="cls-2" points="19.85 81.25 19.32 81.72 19.58 81.89 19.96 81.98 20.23 82.24 20.07 81.92 19.8 81.65 19.85 81.25"/><polygon class="cls-2" points="19.56 81.92 19.92 82.07 20.08 82.24 20.23 82.6 20.16 82.95 19.77 82.87 19.44 82.13 19.56 81.92"/><polygon class="cls-2" points="21.15 81.86 20.97 82.17 20.74 82.17 20.74 81.95 21.15 81.86"/><polygon class="cls-2" points="21.5 82.54 21.32 82.6 21.22 82.51 20.81 82.57 21.4 82.33 21.5 82.54"/><g class="cls-21"><polygon points="19.85 81.25 19.32 81.72 19.58 81.89 19.96 81.98 20.23 82.24 20.07 81.92 19.8 81.65 19.85 81.25"/><polygon points="19.56 81.92 19.92 82.07 20.08 82.24 20.23 82.6 20.16 82.95 19.77 82.87 19.44 82.13 19.56 81.92"/><polygon points="21.15 81.86 20.97 82.17 20.74 82.17 20.74 81.95 21.15 81.86"/><polygon points="21.5 82.54 21.32 82.6 21.22 82.51 20.81 82.57 21.4 82.33 21.5 82.54"/></g><polygon class="cls-2" points="20.64 82.62 20.81 82.57 20.99 82.75 20.84 82.98 20.64 82.62"/><polygon class="cls-19" points="20.64 82.62 20.81 82.57 20.99 82.75 20.84 82.98 20.64 82.62"/><polygon class="cls-2" points="19.29 82.04 19.09 82.35 19.27 82.51 19.44 82.13 19.56 81.92 19.29 82.04"/><polygon class="cls-2" points="20.39 83.11 20.16 82.95 20.23 82.6 20.39 83.11"/><polygon class="cls-2" points="20.23 82.24 20.46 82.47 20.74 82.17 20.74 81.95 20.23 82.24"/><polygon class="cls-2" points="21.75 82.02 21.87 82.27 21.5 82.54 21.4 82.33 21.75 82.02"/><polygon class="cls-2" points="20.39 83.11 20.84 82.98 20.64 82.62 20.52 82.65 20.39 83.11"/><polygon class="cls-2" points="21.32 82.6 20.99 82.75 20.81 82.57 21.22 82.51 21.32 82.6"/><g class="cls-14"><polygon points="19.29 82.04 19.09 82.35 19.27 82.51 19.44 82.13 19.56 81.92 19.29 82.04"/><polygon points="20.39 83.11 20.16 82.95 20.23 82.6 20.39 83.11"/><polygon points="20.23 82.24 20.46 82.47 20.74 82.17 20.74 81.95 20.23 82.24"/><polygon points="21.75 82.02 21.87 82.27 21.5 82.54 21.4 82.33 21.75 82.02"/><polygon points="20.39 83.11 20.84 82.98 20.64 82.62 20.52 82.65 20.39 83.11"/><polygon points="21.32 82.6 20.99 82.75 20.81 82.57 21.22 82.51 21.32 82.6"/></g></g></g><path id="Shadow-3" data-name="Shadow" class="cls-22" d="M82,93.12A13.36,13.36,0,0,1,84,92.44a6.48,6.48,0,0,1,2.6-.18c1.13.19,2.28,1,1.43,2.2-.56.82-1.86.88-2.74,1.09a8.78,8.78,0,0,0-1.86.7c-.27.14-.56.25-.82.4a5.67,5.67,0,0,1-2.11.88,4.56,4.56,0,0,1-3.46-1c-.5-.4-.28-.94.15-1.32a5.34,5.34,0,0,1,1.77-.91c.36-.13.72-.24,1.08-.36C80.71,93.69,81.36,93.4,82,93.12Z" transform="translate(-0.01 0.01)"/><path id="Shadow-4" data-name="Shadow" class="cls-22" d="M61.72,96.58l.34.09a13.46,13.46,0,0,1,1.36.34c.43.17.82.44,1.25.64a3.68,3.68,0,0,0,1.6.41,2.81,2.81,0,0,0,2.22-.7c.91-1.21-2.09-1.81-2.66-2A7.39,7.39,0,0,0,63.29,95a5,5,0,0,0-1.27.17c-.37.12-1.38.65-.89,1.17A1.4,1.4,0,0,0,61.72,96.58Z" transform="translate(-0.01 0.01)"/><g id="Deer"><path class="cls-12" d="M84.07,93.17a1.19,1.19,0,0,1,0,.4.68.68,0,0,1-.72.24v-.14l-.14.06a1.73,1.73,0,0,1,.26-.64Z" transform="translate(-0.01 0.01)"/><path class="cls-16" d="M85.05,86.64a2,2,0,0,0,.19,1.72c.38.4.48.59.39.78s-1,1.94-1.15,2.51a8.84,8.84,0,0,0-.38,1.64s-.53.23-.79-.14c0,0,.22.09.87-1.57s.63-2,.51-2.32-.8-.64-1.16-1.5c0,0-.14-1.09.56-1.46S85.15,86.22,85.05,86.64Z" transform="translate(-0.01 0.01)"/><path class="cls-12" d="M79.58,94.87a1.25,1.25,0,0,1,.28.32.72.72,0,0,1-.35.72l-.11-.09-.06.15A1.82,1.82,0,0,1,79,95.3Z" transform="translate(-0.01 0.01)"/><path class="cls-16" d="M80,88.71c-.2.29-.62,1-.89,1.34a7.13,7.13,0,0,0-.57,1.14.71.71,0,0,0,0,.43c.17.75.6,2.76,1.17,3.15a.8.8,0,0,1-.66.8s-.23-1.16-.37-1.75A17.86,17.86,0,0,0,78,91.67c-.18-.41-.14-.54.17-1.08a11.16,11.16,0,0,0,.46-2.44.9.9,0,0,1,.87,0A.71.71,0,0,1,80,88.71Z" transform="translate(-0.01 0.01)"/><path class="cls-16" d="M77.46,81.74c0-.14.1-.36.53-.65a8.37,8.37,0,0,1,1.38-.51c.29-.14.4.07.16.31s-.43.77-.89,1.1a1.63,1.63,0,0,1-1.05.25Z" transform="translate(-0.01 0.01)"/><path class="cls-16" d="M75.37,81.8c0-.14-.09-.36-.5-.67a8.37,8.37,0,0,0-1.36-.57c-.28-.16-.4,0-.17.3s.39.79.84,1.14a1.63,1.63,0,0,0,1,.29Z" transform="translate(-0.01 0.01)"/><path class="cls-23" d="M79.47,76.29S79.6,78,79.6,78l-.81.84-.3,1.29-1.26,1.46-.43-.17,1.39-1.5.34-1.08-.3-.6.17-.8,0,.82.3.32.64-.68Z" transform="translate(-0.01 0.01)"/><polygon class="cls-23" points="75.53 81.54 75.43 80.6 74.47 79.23 74.09 78.55 74.3 77.2 74.89 76.55 74.42 77.28 74.34 78.47 74.57 78.82 75.09 78.44 75.11 77.98 75.2 78.58 74.75 79.03 75.8 80.39 76.02 81.45 75.53 81.54"/><path class="cls-12" d="M87.06,93.67a1.19,1.19,0,0,1,0,.4.68.68,0,0,1-.67.36l0-.13-.13.08a1.73,1.73,0,0,1,.14-.68Z" transform="translate(-0.01 0.01)"/><path class="cls-12" d="M82.12,95.48a1.25,1.25,0,0,1,.08.41.72.72,0,0,1-.66.44l-.05-.14-.12.1a1.82,1.82,0,0,1,.08-.72Z" transform="translate(-0.01 0.01)"/><path class="cls-11" d="M76.44,84.9c.56.68.49,1.35,1,2a8.32,8.32,0,0,0,1.34,1.3,3.54,3.54,0,0,0,2.29.5,23.25,23.25,0,0,1,.31,3.38,15.58,15.58,0,0,1,.15,2.16,5.59,5.59,0,0,1-.19,1.45.6.6,0,0,0,.82-.29c0-.36-.3-2.6-.3-3.17a7,7,0,0,1,.21-1.65c.16-.82.35-2.2.35-2.2,1.42-.47,1.59-1.59,2.12-1.8a1.84,1.84,0,0,0,.59,0c.21,1.71,1.43,2.2,1.57,2.62a11,11,0,0,1,0,2.7,13.31,13.31,0,0,1-.39,1.91.71.71,0,0,0,.82-.15,7.89,7.89,0,0,1-.05-1.45c0-1.11.36-3.15.37-3.52s-.3-.35-.5-1,.45-2,.68-2.8a3.37,3.37,0,0,0,.1-1.44s.32.12.48-.14S87.13,82.28,86.08,82s-2.66.38-3.77,1-1.36.26-2.34.62c-.71.26-1.23,1.15-1.84.48A1.75,1.75,0,0,1,77.69,83a1.62,1.62,0,0,0-.12-1.29,1.86,1.86,0,0,0-2.3,0c-.3.36-.13,1,0,1.53s-.18,1.66.66,1.76A1,1,0,0,0,76.44,84.9Z" transform="translate(-0.01 0.01)"/><path class="cls-24" d="M80.57,86.26A3.84,3.84,0,0,1,78.38,86a3.31,3.31,0,0,1-1.52-1.54,1.58,1.58,0,0,1-.42.45h0c.56.68.49,1.35,1,2a8.32,8.32,0,0,0,1.34,1.3,3,3,0,0,0,1.91.52h0l.38,0a6.05,6.05,0,0,1-.22-1.36C80.86,86.87,81.12,86.19,80.57,86.26Z" transform="translate(-0.01 0.01)"/><path class="cls-16" d="M76.41,84.45l-.54.47v0h0a1,1,0,0,0,.53-.05,2.29,2.29,0,0,1,.16.23,1,1,0,0,0,.55-.84l.16-.62c0,.11-.22.4-.24.51Z" transform="translate(-0.01 0.01)"/><path class="cls-16" d="M84.86,86.66a3.12,3.12,0,0,1,.3-1.49,3.83,3.83,0,0,0,0,1.45Z" transform="translate(-0.01 0.01)"/><path class="cls-4" d="M75.28,83.94a.9.9,0,0,0,.6-.61c.11-.32.22-.33.31,0a.86.86,0,0,0,.68.59c.33.09.19.38,0,.61a1.24,1.24,0,0,1-.46.36h0a1,1,0,0,1-.53.05C75.38,84.89,75.3,84.42,75.28,83.94Z" transform="translate(-0.01 0.01)"/><path class="cls-12" d="M76,84.47c-.17,0-.25-.16-.32-.19a.13.13,0,0,1-.06-.2c.06-.08.2-.05.4,0s.34,0,.4.07a.13.13,0,0,1-.07.19C76.24,84.32,76.15,84.47,76,84.47Z" transform="translate(-0.01 0.01)"/><path class="cls-12" d="M76.87,82.58a.46.46,0,0,1,.43-.07.49.49,0,0,1-.07.39.43.43,0,0,1-.42.08A.42.42,0,0,1,76.87,82.58Z" transform="translate(-0.01 0.01)"/><path class="cls-12" d="M75.65,82.55a.46.46,0,0,0-.42-.09.49.49,0,0,0,.05.39.43.43,0,0,0,.41.1A.42.42,0,0,0,75.65,82.55Z" transform="translate(-0.01 0.01)"/></g><g id="Fawn"><path class="cls-16" d="M70,87.25a1,1,0,0,0,.3-.34,2.26,2.26,0,0,0,.16-.79c0-.15-.09-.23-.21-.17a1.42,1.42,0,0,0-.64.51,1.33,1.33,0,0,0-.13.57Z" transform="translate(-0.01 0.01)"/><path class="cls-12" d="M63.41,95.1a.79.79,0,0,0,0,.27.45.45,0,0,0,.49.14v-.09l.1,0a1.16,1.16,0,0,0-.19-.42Z" transform="translate(-0.01 0.01)"/><path class="cls-16" d="M63.54,91.42a5,5,0,0,1-.12.68c-.12.33-.37.37-.37.51s.14.32.21.73a16.89,16.89,0,0,1,.13,1.87c.07.09.42,0,.53-.09a3.17,3.17,0,0,1-.33-.91,13.62,13.62,0,0,1-.15-1.45,2.7,2.7,0,0,0,1-1C64.64,91.27,63.58,91.11,63.54,91.42Z" transform="translate(-0.01 0.01)"/><path class="cls-12" d="M67.44,96.3a.79.79,0,0,0,0,.27.45.45,0,0,0,.46.21l0-.09.09.05a1.16,1.16,0,0,0-.12-.45Z" transform="translate(-0.01 0.01)"/><path class="cls-16" d="M68.37,91.21a5.2,5.2,0,0,1-.24,1.36,5.81,5.81,0,0,0-.31,1.24,18.59,18.59,0,0,0,0,2.08c.06.27.12.5.12.5a.67.67,0,0,1-.54,0s.06-.66.09-1a11.75,11.75,0,0,0,0-1.56c0-.25-.25-1.19-.25-1.19Z" transform="translate(-0.01 0.01)"/><path class="cls-12" d="M66,96.93a.79.79,0,0,0,0,.27.45.45,0,0,0,.46.21l0-.09.09.05a1.16,1.16,0,0,0-.12-.45Z" transform="translate(-0.01 0.01)"/><path class="cls-12" d="M62,95.57a.79.79,0,0,0,0,.27.45.45,0,0,0,.49.14v-.09l.1,0a1.16,1.16,0,0,0-.19-.42Z" transform="translate(-0.01 0.01)"/><path class="cls-11" d="M62,89.28s-.46,0-.13-.35a2.71,2.71,0,0,1,2.59-.18c1,.46,1.11.63,1.86.53a2.84,2.84,0,0,0,1.1-.23,2,2,0,0,0,.73-.83c.07-.29-.16-.67.28-1.08a1.28,1.28,0,0,1,1.57,0c.33.32.26.83.56,1.09s.42.26.5.45-.18.71-.57.66c-.17,0-.36-.09-.53-.11s-.33,0-.63,0c0,0-.17.54-.33.92s-.51.61-.58.95a1.48,1.48,0,0,1-1.56,1.51s-.33,1.12-.4,1.4a10.76,10.76,0,0,0-.07,2.2c.07.54.13.6.15.79A.59.59,0,0,1,66,97s0-1.11,0-1.69a18.35,18.35,0,0,0-.15-2c0-.28-.08-.89-.08-.89-.4,0-1.66-.93-2.19-1a3.49,3.49,0,0,1-.71,1.06,4.86,4.86,0,0,1-.83.58,5.87,5.87,0,0,0,.15,1c.12.41.31,1.2.4,1.49,0,.12-.41.2-.55.06s-.12-1.39-.18-1.75a6.57,6.57,0,0,0-.23-1c-.06-.22.23-.22.38-.58a2.46,2.46,0,0,0,.1-1.39A2.33,2.33,0,0,1,62,89.28Z" transform="translate(-0.01 0.01)"/><path class="cls-24" d="M67.07,90.62c.23-.24.9-.79,1.15-1a2.18,2.18,0,0,0,.51-.78.87.87,0,0,0,.57.4s-.17.54-.33.92-.51.61-.58.95a1.48,1.48,0,0,1-1.56,1.51C67,91.95,66.59,91.1,67.07,90.62Z" transform="translate(-0.01 0.01)"/><path class="cls-16" d="M63.62,90.59a1.16,1.16,0,0,1,.08.88l-.17,0A1.38,1.38,0,0,0,63.62,90.59Z" transform="translate(-0.01 0.01)"/><path class="cls-16" d="M68.73,88.84a.81.81,0,0,1-.08-.2.58.58,0,0,0,.13.48.9.9,0,0,0,.47.29l.05-.17A1,1,0,0,1,68.73,88.84Z" transform="translate(-0.01 0.01)"/><path class="cls-12" d="M69.45,87.87c-.16-.11-.33.06-.33.06a.25.25,0,0,0,.08.26.37.37,0,0,0,.36,0A.35.35,0,0,0,69.45,87.87Z" transform="translate(-0.01 0.01)"/><path class="cls-12" d="M71,89a.25.25,0,0,1-.13.06c-.12,0-.19-.11-.3-.18a.14.14,0,0,1,0-.23c.06-.06.25,0,.35,0s.18,0,.21,0A.5.5,0,0,1,71,89Z" transform="translate(-0.01 0.01)"/><path class="cls-24" d="M63.25,88.87l-.1,0a.45.45,0,0,0-.22,0s-.08,0-.06.08.14,0,.19,0h.15s.07,0,.08,0S63.29,88.89,63.25,88.87Z" transform="translate(-0.01 0.01)"/><path class="cls-24" d="M63.94,89.05h0a.35.35,0,0,0-.09-.05c-.05,0-.15-.12-.21-.06s.07.14.13.16a.32.32,0,0,0,.16,0S64,89.07,63.94,89.05Z" transform="translate(-0.01 0.01)"/><path class="cls-24" d="M64.52,89.13a.21.21,0,0,0-.17-.11s-.19,0-.13.06.07,0,.1.07l.08.06s.13,0,.13,0A.13.13,0,0,0,64.52,89.13Z" transform="translate(-0.01 0.01)"/><path class="cls-24" d="M65.16,89.33h-.1l-.08,0a.13.13,0,0,0-.1,0s0,.06,0,.08a.26.26,0,0,0,.12.06s.18,0,.19,0a.08.08,0,0,0,0-.05A.08.08,0,0,0,65.16,89.33Z" transform="translate(-0.01 0.01)"/><path class="cls-24" d="M63.37,89.27h0Z" transform="translate(-0.01 0.01)"/><path class="cls-24" d="M63.56,89.28h0v0l-.09,0h-.12a.05.05,0,0,0,0,0v0l0,0h0l0,0h0s0,0,.05,0A.05.05,0,0,0,63.56,89.28Z" transform="translate(-0.01 0.01)"/><path class="cls-24" d="M64.24,89.47l-.06,0-.06,0s-.16-.06-.17,0,.1.1.14.12.1.08.16.06,0-.06,0-.09Z" transform="translate(-0.01 0.01)"/><path class="cls-24" d="M62.65,89.21a.07.07,0,0,0-.07,0l-.09,0,0,0-.07.05-.06.08v.07h0a.1.1,0,0,0,0,.06s.1.08.13,0v-.06l0,0,.07-.08,0,0a.14.14,0,0,0,0-.06A.07.07,0,0,0,62.65,89.21Z" transform="translate(-0.01 0.01)"/><path class="cls-24" d="M63,89.34Z" transform="translate(-0.01 0.01)"/><polygon class="cls-24" points="62.96 89.36 62.96 89.36 62.96 89.36 62.96 89.36"/><path class="cls-24" d="M63,89.37l0,0a.23.23,0,0,0-.18,0,.16.16,0,0,0-.06.1s0,.07,0,.08.08,0,.1-.05a.77.77,0,0,0,.16-.07A.07.07,0,0,0,63,89.37Z" transform="translate(-0.01 0.01)"/><path class="cls-16" d="M68.71,87.21a1,1,0,0,0-.28-.37,2.36,2.36,0,0,0-.78-.34c-.15,0-.25,0-.23.19a1.57,1.57,0,0,0,.39.79,1,1,0,0,0,.53.22A.58.58,0,0,1,68.71,87.21Z" transform="translate(-0.01 0.01)"/></g><circle class="cls-25" cx="51.77" cy="23.17" r="3.66"/><circle id="Sun" class="cls-26" cx="51.77" cy="23.15" r="2.87"/><g id="Layer_2" data-name="Layer 2"><g id="Layer_16" data-name="Layer 16"><path class="cls-27" d="M96.82,34.64l-.53-.3-.72-.42-.77-.45-.11-.06-.49-.28-.51-.29-.9-.52-7.25-4.18-1.71-1-.72-.42-.45-.26-.49-.29-.05,0-.42-.25-.41-.24L76,22.61,56.46,11.37l-.53-.31-.47.27L38.35,21.21l-5,2.9-1.3.75-.53.31-.1,0h0l-.25.15-.42.25-.3.17-.27.16-.18.1-1.5.87h0l-1.78,1h0l-.58.34-.76.43h0l0,0L22,30.62h0L19.65,32l-1,.58-3,1.72-4.23,2.44-1.54.89V90.74l.07,0,1.72,1,.75.43.15.08,4.32,2.5.69.39,4,2.32.46.26,1.3.75,3.38,1.95,5.38,3.1.69.4.07,0,.15.08.11.07.18.1,0,0,1.91,1.11.88.5,1.33.78.89.51.18.1.31.18.19.11.48.28,3.57,2.05.09.05.44.26.62.36L45,111h0l.53.3,1.51.87L50.19,114l4.48,2.58,1,.6.23.13h0l.19-.11.14-.08,0,0,.31-.18,1.81-1,.09-.05.69-.4.5-.29L60,115l3.85-2.22,2.45-1.41.74-.43.66-.38.67-.39.44-.26,2.33-1.34.39-.22h0l.23-.14.21-.12.63-.36.8-.46,1.26-.73.46-.27h0l.46-.27h0l.25-.14.53-.31.37-.21.35-.21.55-.31.21-.13.32-.18.43-.24h0l.05,0,.13-.08L79,104l3.78-2.18.38-.22,1.11-.65,3-1.71,1.56-.9,8.53-4.92h0l.06,0,2.65-1.53.9-.52,1-.59V37.62Zm3.3,55-.52.3-.32.18-.58.34-7.59,4.38-4.67,2.69-3.12,1.8L82,100.1l-.72.41-2.93,1.69-.07.05-.16.09-.18.11-.57.32-.89.51-.22.13-.05,0-.81.47-.09.05-3.91,2.25-.08.05-.79.45-.08.05-.91.53-2.15,1.24-1.54.89-1.68,1-1.1.63-3,1.72-1.23.71-.06,0h0l-.75.44-.28.15-1.87,1.08-3.45-2-1.23-.71-.61-.35-1.81-1.05-.72-.41-.69-.4-5.26-3-.77-.45,0,0-1.79-1-2.06-1.18-.9-.52-.58-.34-.25-.15-.43-.25-.21-.12-1.75-1-.31-.18-.19-.11-1.5-.87L28,99,24,96.75l-1.76-1-3.42-2L14,90.93l-.9-.51-.39-.23-.23-.13-.67-.39v-51l3.91-2.26,3-1.72.93-.54h0l.06,0,3.2-1.85h0l1.36-.79h0l1.79-1,1.25-.72.43-.25h0l.76-.44.46-.27h0l3-1.72h0l.78-.45.35-.2.2-.12.29-.17.17-.1.27-.15,0,0,8-4.64,13.39-7.73.47-.27.53.31,16.83,9.71,7,4,.05,0,.32.18.11.06.44.26.35.2,1.23.71,1.94,1.12,7,4,1.41.81.55.32,0,0,.77.44.19.11.54.31.53.31,4.36,2.51v51Z" transform="translate(-0.01 0.01)"/></g></g><polygon class="cls-2" points="12.24 77.46 11.47 80.52 11.75 89.69 25.82 99.06 55.92 115.18 83.61 100.2 100.11 89.69 97 89.19 72.75 104.82 55.85 104.26 34.13 101.09 15.24 89.5 12.85 82.51 12.24 77.46"/><g id="River"><path class="cls-2" d="M69,69.42C53.38,64.05,40.25,66,44.29,61.84c3-3.11,8.76-5.68,11.2-6.68q-2.39,0-4.76.17c-2.81,1-16.56,5.89-18,9.62-3.08,8,28.52,6.68,20.81,10.24C46.06,78.65,19,81.68,16.69,92a32.09,32.09,0,0,0,8.1,6.44,53.17,53.17,0,0,0,13.92,5.42c-1.2-1.58-7.41-11,10.2-17.13C68.19,80.09,82.42,74.06,69,69.42Z" transform="translate(-0.01 0.01)"/><path class="cls-9" d="M69,69.42C53.38,64.05,40.25,66,44.29,61.84c3-3.11,8.76-5.68,11.2-6.68q-2.39,0-4.76.17c-2.81,1-16.56,5.89-18,9.62-3.08,8,28.52,6.68,20.81,10.24C46.06,78.65,19,81.68,16.69,92a32.09,32.09,0,0,0,8.1,6.44q1.23.71,2.52,1.35a55.55,55.55,0,0,0,11.4,4.08c-1.2-1.58-7.41-11,10.2-17.13C68.19,80.09,82.42,74.06,69,69.42Z" transform="translate(-0.01 0.01)"/><path class="cls-28" d="M38.17,89.63c-.47.21-2,.77-1.58,1.42.31.48.9.35.78,1.15s-1.05,1.18-1.62,1.52c-1.39.82-2.93,1.3-4.37,2-.59.29-2.23,1-1.63,1.87.48.73,1.59.82,1.85,1.8a1.91,1.91,0,0,1-.81,2,58.57,58.57,0,0,0,7.94,2.53c-1.17-1.55-7.15-10.64,9.14-16.74a16.44,16.44,0,0,0-3,.6A39,39,0,0,0,38.17,89.63ZM56.4,79.44c-.28-.22-1.58-.47-1-1a2.8,2.8,0,0,1,1.29-.53c1.2-.3,2.42-.35,3.63-.59,1-.21,2.25-.47,3.26-.76a14.06,14.06,0,0,0,2.93-1.22,1.6,1.6,0,0,0,.91-1.4c-.07-1.59-3.43-1.84-4.48-2-2.47-.46-5-.45-7.46-.68-1.68-.15-3.39-.29-5.09-.36-.46-.1-1-.11-1.39-.18a19.44,19.44,0,0,0-3.12-.23c-1.74,0-3.44,0-5.16-.07.11-.39.71-.57,1.1-.62-.16-.72-3.26-.76-3.93-.82-.88-.08-2.06.22-2.57-.47-.17-.23,0-.46-.36-.67s-1.11.1-1.19-.26,2.08-1.22.75-1.69c0-.53.93-.92,1.47-1.29a2.76,2.76,0,0,0,.41.15,6.61,6.61,0,0,0,1.52.22c2.84.12,5.69-.05,8.53-.05h.68c-.68-.12-1.27-.25-1.77-.39-.84,0-1.69,0-2.53,0-1.68.07-3.34.09-5,0a7.44,7.44,0,0,1-1.55-.2.3.3,0,0,0,.05-.42c-.25-.34-.94.08-1.06-.34s.62-.87.79-1a15.58,15.58,0,0,1,6.28-2.35c.23,0,1.9-.15,2-.38.16-.58-1.09-.28-1.26-.42-.69-.62,2.64-1.3,3-1.38a11,11,0,0,0,2.4-.48c.65-.33,0-.44-.49-.62.28-.49,3.81-.51,2.34-1.36l.1-.1C47,56.65,34.12,61.36,32.73,65c-1.3,3.38,3.59,5.1,9.09,6.22h0c7.52,1.53,16.18,2,11.73,4C46.06,78.65,19,81.68,16.69,92a27.27,27.27,0,0,0,2.81,2.74,12.18,12.18,0,0,1,2.84-1.64c.77-.39,2.76-1.24,2-2.42-.56-.87-2.7-.72-2.72-2,0-1,1.7-1.67,2.42-2a24.32,24.32,0,0,1,5.24-1.38,17.31,17.31,0,0,0,3.51-.8c-.45-.93-2.27-.31-2.62-1s2.47-.94,2.82-1a46.58,46.58,0,0,1,6-.49,41.46,41.46,0,0,0,5.38-.77c.5-.1,2-.25,2.32-.72s-.22-1-.46-1.34-.58-.64.05-1a8.23,8.23,0,0,1,2.66-.65c.92-.18,8.35-.73,7.22-2.54-.41-.65-.87-.6-.08-1.19s.65-.77-.3-1a29.31,29.31,0,0,0-3.08-.66c-.72-.12-2.79.13-3.24-.45.29-.32.84-.29,1.28-.41,1,0,1.95.08,2.92.18,1.57.17,3.53.25,5.11.37a46.46,46.46,0,0,1,5.87.73c.64.15,3.17,1.23,1.73,2.2a12.18,12.18,0,0,1-3.93,1.51,28.69,28.69,0,0,1-3.46.73,19.31,19.31,0,0,0-3.27.61c-.39.12-1.51.45-1.38,1.07.1.46,1.23.83,1.56,1.07s1,1,.8,1.56-1.19,1-1.74,1.24a16.44,16.44,0,0,0-4.41,2.73,2,2,0,0,0-.77,1.24l.55-.19.13-.21a5.48,5.48,0,0,1,1.44-1.36,16,16,0,0,1,2.63-1.34A6.94,6.94,0,0,0,57,81.91a1.16,1.16,0,0,0,.41-.82A1.94,1.94,0,0,0,56.4,79.44ZM66.56,76a20.51,20.51,0,0,1-4.22,1.28c-.81.24-1.66.4-2.48.6a3.29,3.29,0,0,0-1.55.59c-.52.54.76,1,1,1.32a1,1,0,0,1-.05,1.26,4.33,4.33,0,0,1-.91.69,3.2,3.2,0,0,1-.68.44c.72-.28,2.06-.76,2.23-1.61s-.72-1.06-1.14-1.6c-.24-.3-.14-.41.17-.55A7.5,7.5,0,0,1,60.35,78c1.29-.3,2.56-.61,3.84-1a17.22,17.22,0,0,0,2.56-.82c.63-.28,1.88-1.43,1.59-2.39C68.41,74.71,67.18,75.66,66.56,76ZM69,69.42a90.24,90.24,0,0,0-16.75-3.8l-.07,0a3.82,3.82,0,0,1-1.06.14,14.83,14.83,0,0,1-1.65,0c-1.16-.06-2.32-.25-3.49-.24-.55,0-1.11,0-1.66,0s-1.25.2-1.88.24-1.42.11-2.14.11c-.53,0-1.08-.1-1.6-.08.34.42,1.17.32,1.65.35a20.25,20.25,0,0,0,2.39.07,21.14,21.14,0,0,1,4.89-.13,34.9,34.9,0,0,0,5.33.57c.52,0,1,0,1.56,0a3.92,3.92,0,0,1,2.53.39c.44.33-.17.41-.46.53s-.86.46-.39.78a5.76,5.76,0,0,0,2.58.4q2.62.19,5.23.47a13.55,13.55,0,0,1,1.74.23c.34.08.75.24.27.48-.27.13-1.11.25-1.16.65-.1.9,3.43.51,3.86.55s2.53.16,2.1.89c-.21.35-1,.38-.88.89s1.23.35,1.64.4c2.1.3,1.25,2.35.27,3.48l-.18.2C75.5,74.23,75.46,71.66,69,69.42Z" transform="translate(-0.01 0.01)"/></g><polygon class="cls-9" points="16.68 92.04 16.6 92.37 16.5 92.69 16.5 92.85 19.48 94.78 18.38 92.89 16.68 92.04"/><polygon class="cls-2" points="99.78 80.52 100.03 81.76 100.11 84.03 100.11 89.69 88.56 96.44 71.64 106.11 68.7 104.51 69.53 102.54 78.55 100.75 88.56 95.43 93.7 91.47 96.82 86.5 99.78 80.52"/><path class="cls-3" d="M39.09,106.15" transform="translate(-0.01 0.01)"/><polygon class="cls-9" points="38.7 103.9 39.28 104.97 39.82 105.74 40.78 107.07 30.67 101.65 27.95 100.2 30.86 101.28 33.74 102.18 38.7 103.9"/></svg>