<svg xmlns="http://www.w3.org/2000/svg" xmlns:xlink="http://www.w3.org/1999/xlink" viewBox="0 0 110 127.02"><defs><style>.cls-1{fill:none;}.cls-2{isolation:isolate;}.cls-20,.cls-3,.cls-30,.cls-45,.cls-46,.cls-47{fill:#fff;}.cls-4{fill:#3f2a10;}.cls-5{fill:url(#radial-gradient);}.cls-6{fill:#fbb03b;}.cls-7{clip-path:url(#clip-path);}.cls-8{fill:url(#radial-gradient-2);}.cls-47,.cls-9{opacity:0.64;}.cls-12,.cls-13,.cls-14,.cls-15,.cls-16,.cls-17,.cls-18,.cls-19,.cls-22,.cls-24,.cls-26,.cls-42,.cls-43,.cls-44,.cls-9{mix-blend-mode:multiply;}.cls-10,.cls-38{fill:#1a171b;}.cls-11{fill:url(#radial-gradient-3);}.cls-12,.cls-13,.cls-14,.cls-15,.cls-16,.cls-17,.cls-18{opacity:0.74;}.cls-12{fill:url(#radial-gradient-4);}.cls-13{fill:url(#radial-gradient-5);}.cls-14{fill:url(#radial-gradient-6);}.cls-15{fill:url(#radial-gradient-7);}.cls-16{fill:url(#radial-gradient-8);}.cls-17{fill:url(#radial-gradient-9);}.cls-18{fill:url(#radial-gradient-10);}.cls-19,.cls-23,.cls-24,.cls-25{fill:#0c1e0f;}.cls-19,.cls-22{opacity:0.27;}.cls-20{opacity:0.39;}.cls-21{fill:#fcfcfc;}.cls-21,.cls-24{opacity:0.3;}.cls-25,.cls-30{opacity:0.2;mix-blend-mode:overlay;}.cls-26{opacity:0.07;}.cls-27{fill:#3ca659;}.cls-28{fill:#7e4118;}.cls-29{fill:#ea641f;}.cls-31{fill:#636363;}.cls-32{fill:url(#linear-gradient);}.cls-33{fill:url(#linear-gradient-2);}.cls-34{fill:url(#linear-gradient-3);}.cls-35{opacity:0.1;mix-blend-mode:screen;fill:url(#linear-gradient-4);}.cls-36{fill:url(#linear-gradient-5);}.cls-37{fill:url(#linear-gradient-6);}.cls-38{opacity:0.54;}.cls-39{fill:#ac0000;}.cls-40{fill:#fc3;}.cls-41{fill:#ac2e18;}.cls-42{opacity:0.86;}.cls-43{opacity:0.36;}.cls-44{opacity:0.67;}.cls-45{opacity:0.57;}.cls-46{opacity:0.14;}.cls-48{fill:url(#linear-gradient-7);}</style><radialGradient id="radial-gradient" cx="59.84" cy="20.74" r="64.71" gradientUnits="userSpaceOnUse"><stop offset="0" stop-color="#fffac9"/><stop offset="0.24" stop-color="#fff9c6"/><stop offset="0.41" stop-color="#fff6bc"/><stop offset="0.57" stop-color="#fff0ac"/><stop offset="0.72" stop-color="#fee895"/><stop offset="0.86" stop-color="#fede78"/><stop offset="1" stop-color="#fdd154"/><stop offset="1" stop-color="#fdd153"/></radialGradient><clipPath id="clip-path" transform="translate(0.03 6.66)"><rect class="cls-1" x="14.19" y="28.06" width="81.89" height="57.63"/></clipPath><radialGradient id="radial-gradient-2" cx="57.59" cy="27.84" r="53.53" gradientTransform="translate(2.34 5.49) scale(1 0.98)" xlink:href="#radial-gradient"/><radialGradient id="radial-gradient-3" cx="54.14" cy="20.42" r="29.33" gradientTransform="translate(2.37 12.14) scale(1 0.98)" gradientUnits="userSpaceOnUse"><stop offset="0" stop-color="#ffff74"/><stop offset="0.26" stop-color="#fffe71"/><stop offset="0.44" stop-color="#fff968"/><stop offset="0.59" stop-color="#fff259"/><stop offset="0.73" stop-color="#ffe743"/><stop offset="0.86" stop-color="#ffda27"/><stop offset="0.98" stop-color="#ffc905"/><stop offset="1" stop-color="#ffc700"/></radialGradient><radialGradient id="radial-gradient-4" cx="42.58" cy="35.24" r="2.59" gradientTransform="translate(2.34 5.49) scale(1 0.98)" xlink:href="#radial-gradient-3"/><radialGradient id="radial-gradient-5" cx="47.43" cy="33.15" r="1.79" gradientTransform="translate(2.34 5.49) scale(1 0.98)" xlink:href="#radial-gradient-3"/><radialGradient id="radial-gradient-6" cx="46.38" cy="35.52" r="1.21" gradientTransform="translate(2.34 5.49) scale(1 0.98)" xlink:href="#radial-gradient-3"/><radialGradient id="radial-gradient-7" cx="40.92" cy="38.94" r="2.2" gradientTransform="translate(2.34 5.49) scale(1 0.98)" xlink:href="#radial-gradient-3"/><radialGradient id="radial-gradient-8" cx="129.18" cy="39.43" r="1.46" gradientTransform="matrix(0.96, 0.27, -0.28, 0.94, -60.02, -34.11)" xlink:href="#radial-gradient-3"/><radialGradient id="radial-gradient-9" cx="123.88" cy="50.15" r="1.46" gradientTransform="matrix(0.96, 0.27, -0.28, 0.94, -60.02, -34.11)" xlink:href="#radial-gradient-3"/><radialGradient id="radial-gradient-10" cx="188.58" cy="35.35" r="1.46" gradientTransform="matrix(0.83, 0.56, -0.56, 0.81, -79.2, -97.03)" xlink:href="#radial-gradient-3"/><linearGradient id="linear-gradient" x1="56.28" y1="88.71" x2="56.28" y2="60.9" gradientUnits="userSpaceOnUse"><stop offset="0.02" stop-color="#fcfcfc"/><stop offset="0.51" stop-color="#fff"/><stop offset="1" stop-color="#bcc1c1"/></linearGradient><linearGradient id="linear-gradient-2" x1="56.25" y1="88.71" x2="56.25" y2="60.9" xlink:href="#linear-gradient"/><linearGradient id="linear-gradient-3" x1="56.23" y1="88.71" x2="56.23" y2="60.9" xlink:href="#linear-gradient"/><linearGradient id="linear-gradient-4" x1="40.62" y1="67.52" x2="71.02" y2="67.52" xlink:href="#linear-gradient"/><linearGradient id="linear-gradient-5" x1="56.28" y1="111.81" x2="56.28" y2="61.5" xlink:href="#linear-gradient"/><linearGradient id="linear-gradient-6" x1="56.28" y1="109.6" x2="56.28" y2="65.75" xlink:href="#linear-gradient"/><linearGradient id="linear-gradient-7" x1="56.28" y1="108.58" x2="56.28" y2="63.63" xlink:href="#linear-gradient"/></defs><title>roads</title><g class="cls-2"><g id="Layer_8" data-name="Layer 8"><path class="cls-3" d="M32.87,40l-18,1.13.33-.79h.91l.49-.56-.13-1.11L17.87,37l2.69-.47s0,2,.24,2,.16.58.16.58l2-1.61.68-.16.62.91-.22.9a2.42,2.42,0,0,0,.63.14,3.18,3.18,0,0,0,.81-.52l.86-.05.37.51a2.64,2.64,0,0,0,1.25.33l.92-.06a3.84,3.84,0,0,1,.87-.47c.2,0,.71.43.71.43a3.24,3.24,0,0,0,1,.11c.2,0,.88-.17,1.08-.19a4.84,4.84,0,0,1,.7.07Z" transform="translate(0.03 6.66)"/><path class="cls-4" d="M116.75,66.43" transform="translate(0.03 6.66)"/><polygon class="cls-5" points="54.99 13.61 11.77 38.56 11.77 58.96 98.09 63.84 98.09 38.56 54.99 13.61"/><polygon class="cls-6" points="98.09 69.51 98.09 88.17 98.21 88.47 54.99 113.41 11.77 88.47 11.78 68.42 14.22 68.23 98.09 69.51"/><g class="cls-7"><path class="cls-8" d="M14.11,27.8V57.18c1.59.14,2.4.32,3.14-.12s2.4.13,4.4-.41A25.23,25.23,0,0,1,29,56.32a21,21,0,0,0,5.24-.12A8.82,8.82,0,0,1,38.4,56c1.7.39,3.72-.07,5.5.78s3.67.89,5.29,1.74,2.87.17,4.4.35a19,19,0,0,1,2.42.5c1.31,0,2.31-.37,3.63,0s1.46-1.29,3.6-.46a6.58,6.58,0,0,0,3,.32,2.32,2.32,0,0,1,.31-.16c.58-.22,1.56-1.55,2.59-1.07s2.42-1.72,3.59-.1,4.8-1.15,7.22.66,3.86-.51,5.75.23,4.39.66,5.22,1.73a4.84,4.84,0,0,0,2.87,1.7,15.68,15.68,0,0,1,2.84.64v-35Z" transform="translate(0.03 6.66)"/><g class="cls-9"><path class="cls-10" d="M96.34,55.6c-1.31,1-4.65-6-4.65-6l-8.22-4.87a13.65,13.65,0,0,0-5.63,2.74c-2.26,2-4.43,2.15-5.55,1.53s-3.66-4.71-4.61-5.53-17.46-4.51-19-3.23S46,51.1,45.37,51.82s-5.56-3.18-6.6-3.89-6.6-8-9.73-4.1-3.65,2.67-6,4-4.78,1.95-5.65.61a39.33,39.33,0,0,0-3.21-3.72V70.37H97.48V54.76Z" transform="translate(0.03 6.66)"/></g><ellipse class="cls-11" cx="56.39" cy="59.35" rx="18.36" ry="16.55"/><path class="cls-12" d="M47.33,40.45c.22.31-.07.89-.65,1.27s-1.23.45-1.45.14.07-.88.65-1.27S47.11,40.13,47.33,40.45Z" transform="translate(0.03 6.66)"/><path class="cls-13" d="M51.48,38.27c.15.22,0,.61-.45.88s-.85.31-1,.09,0-.61.45-.88S51.33,38.05,51.48,38.27Z" transform="translate(0.03 6.66)"/><path class="cls-14" d="M49.9,40.5c.1.15,0,.41-.3.59s-.57.21-.68.06,0-.41.3-.59S49.8,40.35,49.9,40.5Z" transform="translate(0.03 6.66)"/><path class="cls-15" d="M45.32,44c.19.27-.06.75-.55,1.08s-1,.38-1.23.11.06-.75.55-1.08S45.13,43.74,45.32,44Z" transform="translate(0.03 6.66)"/><path class="cls-16" d="M54.62,38.71c.07.2-.18.47-.55.59s-.73.06-.8-.15.18-.47.55-.59S54.55,38.51,54.62,38.71Z" transform="translate(0.03 6.66)"/><path class="cls-17" d="M46.53,47.37c.07.2-.18.47-.55.59s-.73.06-.8-.15.18-.47.55-.59S46.46,47.17,46.53,47.37Z" transform="translate(0.03 6.66)"/><ellipse class="cls-18" cx="57.51" cy="37.22" rx="0.71" ry="0.39" transform="translate(-4.63 15.1) rotate(-8.07)"/><path class="cls-19" d="M63.9,60.75c-2.55.18-4.84-.89-6.69-1.17s-2.08-.54-3.61-.72-2.78.5-4.4-.35-3.52-.89-5.29-1.74-3.8-.39-5.5-.78a8.82,8.82,0,0,0-4.14.21,21,21,0,0,1-5.24.12,25.23,25.23,0,0,0-7.37.32c-2,.55-3.67,0-4.4.41s-1.55.26-3.14.12v4.4h.19c1.51-.11,1.32-.21,2,0s2.65-.25,3.67,0,6.43-.1,9.41.06,13.42,0,18.34,0,10.93.09,13.5-.14a100.38,100.38,0,0,1,10.08.17c-1.34-.37-2.8-.8-3.48-.95C66.58,60.51,66.45,60.56,63.9,60.75Z" transform="translate(0.03 6.66)"/><path class="cls-19" d="M90.93,60.51c-.83-1.07-3.33-1-5.22-1.73s-3.33,1.59-5.75-.23-6,1-7.22-.66-2.57.58-3.59.1-2,.85-2.59,1.07-2.1,1.48-3.73,1.69a8.68,8.68,0,0,0,1.06,0c2.55-.18,2.68-.24,3.91,0,.69.14,2.15.58,3.48.95,1.36.07,2.61.15,3.6.23,3.7.3,11.23.92,16.3,1,2.12,0,3.95.1,5.45.11v-.17a15.68,15.68,0,0,0-2.84-.64A4.84,4.84,0,0,1,90.93,60.51Z" transform="translate(0.03 6.66)"/><path class="cls-19" d="M63.25,58.9c-2.14-.84-2.28.82-3.6.46s-2.33,0-3.63,0c.32.07.69.14,1.19.22,1.59.24,3.51,1.06,5.63,1.17a9.65,9.65,0,0,0,3.42-1.53A6.58,6.58,0,0,1,63.25,58.9Z" transform="translate(0.03 6.66)"/><path class="cls-20" d="M95.81,38S90,37.15,87,37.79,72.49,40.08,70.8,40.21a33.26,33.26,0,0,1-8.21-.38c-4.43-.64-4.06,0-8.28.45s2.16.18,4.5.44,2.08,1.4,6.64,1.53,5.08.51,8.86,1.4,5,1.53,9.77.51,3.78-.89,7,.51,4.82.51,4.82.51Z" transform="translate(0.03 6.66)"/><path class="cls-20" d="M14.38,43.88s4.69-.64,9.25-1,7.43.68,11.14,1.37A52.63,52.63,0,0,0,47.19,45c5.49-.18,11.42,1.26,13.41,1.06s-17.76.16-21.89.58-2.7.74-8.95.58-7.3,1.83-9.9,2a18.19,18.19,0,0,1-6.22-1.27V44Z" transform="translate(0.03 6.66)"/><path class="cls-3" d="M92.08,34.32c-3.12-.2-6.64-.39-10.21-.5s-4.59.5-2.84.83,2.95.39-.57.56-11.23.39-8.45,1.28,9.7.5,12.42.67,7.32.33,8.28,0,6.9.5,7.51-.46V34.36A56.46,56.46,0,0,1,92.08,34.32Z" transform="translate(0.03 6.66)"/><path class="cls-3" d="M92.79,31.82c-3.12-.2-6.64-.39-10.21-.5s-4.59.5-2.84.83,2.95.39-.57.56S68,33.09,70.73,34s9.7.5,12.42.67,7.32.33,8.28,0,6.9.5,7.51-.46V31.86A56.46,56.46,0,0,1,92.79,31.82Z" transform="translate(0.03 6.66)"/><path class="cls-20" d="M47.92,47.76c2.77,0,8.24.52,8.09,1.11s-8.39.89-5.14,1.41,7,1.15,3.93,1.44A107,107,0,0,1,43,52c-2.8-.15-11.38-.37-9.38-1.15s12.44-1,8.92-1.81S42.78,47.83,47.92,47.76Z" transform="translate(0.03 6.66)"/><path class="cls-21" d="M95.46,44.92c-.6.06-.65.36-1.59-.08s-.88-.5-2-1a2.75,2.75,0,0,0-2.89,0,7.85,7.85,0,0,1-3.4.83c-.54-.14-.74-.42-1.33,0s-.43.28-1.33.89a4.07,4.07,0,0,1-2.33.66,4.44,4.44,0,0,1-2.6-.63,3.29,3.29,0,0,0-2.93,0,6.23,6.23,0,0,0-1.13.7,1.62,1.62,0,0,1-.24.19l-.18.15c-.6.65.21,2.18,2.69,1s5,.34,8-.55,4.28-3.58,7.18-2.36c4.42,1.86,5.35-.39,5.35-.39A3.24,3.24,0,0,1,95.46,44.92Z" transform="translate(0.03 6.66)"/><g class="cls-22"><path class="cls-23" d="M91.42,61.7a5.08,5.08,0,0,0,0,1.32.52.52,0,0,0-.27,0A4.11,4.11,0,0,0,91.2,62C91.14,61.48,91.42,61.7,91.42,61.7Z" transform="translate(0.03 6.66)"/><path class="cls-23" d="M90.06,61.56c-.12.2-.09.78.29.72s.34-.13.57,0a.58.58,0,0,0,.78,0c.3-.26.38-.35.6-.29s.4-.22.18-.91a9.37,9.37,0,0,0-.3-1.08A9.1,9.1,0,0,1,92,58.56a11.84,11.84,0,0,1-.29-1.42c-.07-.75-.29-1.3-.3-1.62s0-1-.21-.67a3.79,3.79,0,0,0-.45,1.36,7.94,7.94,0,0,1-.27,1.45,3.36,3.36,0,0,0-.25,1.49c.07.53-.34,1.25-.24,1.74A2.08,2.08,0,0,1,90.06,61.56Z" transform="translate(0.03 6.66)"/><path class="cls-24" d="M92.41,60.89a.79.79,0,0,1-.43.62c-.85.41-.7-.59-1.18-1.61s.05-1-.09-1.64a6.78,6.78,0,0,1,0-1.57,5.1,5.1,0,0,1-.21,1,3.34,3.34,0,0,0-.25,1.49c.07.53-.34,1.25-.24,1.74a2.08,2.08,0,0,1,.06.68c-.12.2-.09.78.29.72s.34-.13.57,0a.58.58,0,0,0,.78,0c.3-.26.38-.35.6-.29s.4-.22.18-.91Z" transform="translate(0.03 6.66)"/><path class="cls-25" d="M91.19,55.29a2,2,0,0,0-.06,1.19c.15.45-.24.16.11,1.05s-.12.79.14,1.5.53,1.36.5.09a8.82,8.82,0,0,0-.31-2.1,7.52,7.52,0,0,1-.24-1.7C91.39,54.93,91.26,55.08,91.19,55.29Z" transform="translate(0.03 6.66)"/></g><g class="cls-22"><path class="cls-23" d="M93.09,62.18a5,5,0,0,0,0,1.29.5.5,0,0,0-.27,0,4,4,0,0,0,.07-1.07C92.82,62,93.09,62.18,93.09,62.18Z" transform="translate(0.03 6.66)"/><path class="cls-23" d="M93,62.44c.48-.07,1.33.26,1.58-.48.18-.52-.2-.94-.32-1.41s.16-1.08-.12-1.62,0-.86-.17-1.34A5.25,5.25,0,0,1,93.87,56a2.62,2.62,0,0,0-.17-1.27c-.19-.32-.06-.93-.26-1s-.44,1-.48,1.49-.33,1-.33,1.39-.5.95-.55,1.47A14.91,14.91,0,0,0,91.89,60c0,1.17-.15.85-.28,1.59C91.52,62.14,92,62.57,93,62.44Z" transform="translate(0.03 6.66)"/><path class="cls-24" d="M92.6,61.55c-.73,0-.17-2.11.12-3.06s-.15-1.2.07-1.69a6,6,0,0,0,.29-1.92.78.78,0,0,0,0-.31,5.71,5.71,0,0,0-.11.67c0,.52-.33,1-.33,1.39s-.49.95-.55,1.47A14.69,14.69,0,0,0,91.88,60c0,1.17-.15.85-.28,1.59-.09.53.4,1,1.34.83.48-.07,1.33.26,1.58-.48l0-.06a3.22,3.22,0,0,0-.85.15C93,62.33,93.34,61.55,92.6,61.55Z" transform="translate(0.03 6.66)"/><path class="cls-25" d="M93.43,54.29a2.65,2.65,0,0,0,.19.88,11.39,11.39,0,0,1,0,1.77c0,.59-.17,1.31.12,1.82s0,1.39.19,1.77.5,1-.11.52-.79-.77-.56-1.49-.23-1.23-.09-2.33a9.82,9.82,0,0,0,.19-2.16C93.3,54.38,93.39,53.91,93.43,54.29Z" transform="translate(0.03 6.66)"/></g><g class="cls-22"><path class="cls-23" d="M96.61,62.15a5,5,0,0,0,0,1.29.5.5,0,0,0-.27,0,4,4,0,0,0,.07-1.07C96.33,61.93,96.61,62.15,96.61,62.15Z" transform="translate(0.03 6.66)"/><path class="cls-23" d="M96.47,62.41c.48-.07,1.33.26,1.58-.48.18-.52-.2-.94-.32-1.41s.16-1.08-.12-1.62,0-.86-.17-1.34A5.25,5.25,0,0,1,97.38,56a2.62,2.62,0,0,0-.17-1.27c-.19-.32-.06-.93-.26-1s-.44,1-.48,1.49-.33,1-.33,1.39-.5.95-.55,1.47A14.91,14.91,0,0,0,95.4,60c0,1.17-.15.85-.28,1.59C95,62.11,95.53,62.54,96.47,62.41Z" transform="translate(0.03 6.66)"/><path class="cls-24" d="M96.12,61.52c-.73,0-.17-2.11.12-3.06s-.15-1.2.07-1.69a6,6,0,0,0,.29-1.92.78.78,0,0,0,0-.31,5.71,5.71,0,0,0-.11.67c0,.52-.33,1-.33,1.39s-.49.95-.55,1.47A14.69,14.69,0,0,0,95.4,60c0,1.17-.15.85-.28,1.59-.09.53.4,1,1.34.83.48-.07,1.33.26,1.58-.48l0-.06a3.22,3.22,0,0,0-.85.15C96.49,62.3,96.85,61.52,96.12,61.52Z" transform="translate(0.03 6.66)"/><path class="cls-25" d="M96.95,54.26a2.65,2.65,0,0,0,.19.88,11.39,11.39,0,0,1,0,1.77c0,.59-.17,1.31.12,1.82s0,1.39.19,1.77.5,1-.11.52-.79-.77-.56-1.49-.23-1.23-.09-2.33A9.82,9.82,0,0,0,96.87,55C96.81,54.35,96.91,53.88,96.95,54.26Z" transform="translate(0.03 6.66)"/></g><g class="cls-26"><path class="cls-23" d="M95,62.28a3.44,3.44,0,0,0,0,.9.35.35,0,0,0-.19,0,2.79,2.79,0,0,0,0-.74C94.84,62.13,95,62.28,95,62.28Z" transform="translate(0.03 6.66)"/><path class="cls-23" d="M94.94,62.47c.33,0,.92.18,1.1-.34.12-.36-.14-.65-.22-1s.11-.75-.09-1.12,0-.6-.12-.93a3.65,3.65,0,0,1,0-1.07,1.82,1.82,0,0,0-.12-.88c-.13-.22,0-.64-.18-.72s-.3.68-.34,1-.23.7-.23,1-.34.66-.38,1a10.35,10.35,0,0,0-.13,1.35c0,.82-.1.59-.19,1.1S94.28,62.56,94.94,62.47Z" transform="translate(0.03 6.66)"/><path class="cls-24" d="M94.69,61.85c-.51,0-.12-1.47.09-2.13s-.1-.83,0-1.17a4.17,4.17,0,0,0,.2-1.33A.54.54,0,0,0,95,57a4,4,0,0,0-.07.46c0,.36-.23.7-.23,1s-.34.66-.38,1a10.2,10.2,0,0,0-.13,1.35c0,.82-.1.59-.19,1.1s.28.66.93.57c.33,0,.92.18,1.1-.34v0a2.24,2.24,0,0,0-.59.1C94.95,62.39,95.2,61.85,94.69,61.85Z" transform="translate(0.03 6.66)"/><path class="cls-25" d="M95.27,56.81a1.84,1.84,0,0,0,.13.61,7.91,7.91,0,0,1,0,1.23c0,.41-.12.91.08,1.26s0,1,.13,1.23.34.71-.08.36-.55-.54-.39-1-.16-.85-.06-1.62a6.82,6.82,0,0,0,.14-1.5C95.17,56.87,95.24,56.54,95.27,56.81Z" transform="translate(0.03 6.66)"/></g><g class="cls-22"><path class="cls-23" d="M22.32,60.47a4.82,4.82,0,0,0,0,1.26.5.5,0,0,0-.26,0,3.91,3.91,0,0,0,.05-1C22,60.26,22.32,60.47,22.32,60.47Z" transform="translate(0.03 6.66)"/><path class="cls-23" d="M21.69,57.59c0,.18-.3.54-.2.74a1.36,1.36,0,0,1-.15.84,3.75,3.75,0,0,0-.24.84c0,.23-.22.36-.1.62a.5.5,0,0,0,.48.31c.17,0,.31.15.54,0s.14.18.57.11.44,0,.66-.21.25-.34.08-.68a1.23,1.23,0,0,1-.14-.89c.06-.28-.2-.59-.19-1a3.49,3.49,0,0,0-.21-1.14c-.1-.33-.11-.74-.2-1.17s-.1-1.15-.25-.89-.07.45-.22.66a.85.85,0,0,0-.1.63C22,56.52,21.61,56.92,21.69,57.59Z" transform="translate(0.03 6.66)"/><path class="cls-24" d="M23.32,60.09v0c0,.35-.46-.05-.88.18s-.84-.42-.58-.87-.13-1-.07-1.44a7.65,7.65,0,0,1,.35-1.33c.13-.42,0-.56,0-1.06h0l-.05.1a.85.85,0,0,0-.1.63c0,.24-.41.64-.33,1.3,0,.18-.3.54-.2.74a1.36,1.36,0,0,1-.15.84,3.72,3.72,0,0,0-.24.84c0,.23-.22.36-.1.62a.5.5,0,0,0,.48.3c.17,0,.31.15.54,0s.14.18.57.11.44,0,.66-.21S23.49,60.43,23.32,60.09Z" transform="translate(0.03 6.66)"/><path class="cls-25" d="M22.4,55.65a3.59,3.59,0,0,0,0,1.26c.1.34-.24.31,0,.95s-.2.6.1,1.23.54,1,.55.5-.18-1.09-.17-1.66-.27-.81-.32-1.34S22.45,55.36,22.4,55.65Z" transform="translate(0.03 6.66)"/></g><g class="cls-22"><path class="cls-23" d="M30.76,60.75a4.59,4.59,0,0,0,0,1.2.47.47,0,0,0-.25,0,3.75,3.75,0,0,0,.06-1C30.5,60.55,30.76,60.75,30.76,60.75Z" transform="translate(0.03 6.66)"/><path class="cls-23" d="M29.52,60.62c-.1.18-.08.71.26.65s.31-.12.52,0a.52.52,0,0,0,.7,0c.27-.24.35-.32.54-.26s.36-.2.17-.83a8.58,8.58,0,0,0-.27-1,8.3,8.3,0,0,1-.15-1.31A10.74,10.74,0,0,1,31,56.62c-.06-.68-.26-1.18-.27-1.47s0-.89-.19-.61a3.43,3.43,0,0,0-.41,1.23,7.19,7.19,0,0,1-.24,1.31,3,3,0,0,0-.22,1.35c.06.48-.31,1.14-.22,1.57A1.85,1.85,0,0,1,29.52,60.62Z" transform="translate(0.03 6.66)"/><path class="cls-24" d="M31.66,60a.71.71,0,0,1-.39.56c-.77.37-.64-.53-1.07-1.46s0-.9-.08-1.49a6.12,6.12,0,0,1,0-1.43,4.65,4.65,0,0,1-.19.89,3,3,0,0,0-.22,1.35c.06.48-.31,1.14-.22,1.57a1.88,1.88,0,0,1,.05.61c-.1.18-.08.71.26.65s.31-.12.52,0a.52.52,0,0,0,.7,0c.27-.24.35-.32.54-.26s.36-.2.17-.83Z" transform="translate(0.03 6.66)"/><path class="cls-25" d="M30.54,54.94A1.84,1.84,0,0,0,30.49,56c.14.4-.22.15.1,1s-.1.72.13,1.36.48,1.23.45.08a8,8,0,0,0-.28-1.9A6.81,6.81,0,0,1,30.67,55C30.73,54.62,30.61,54.75,30.54,54.94Z" transform="translate(0.03 6.66)"/></g><g class="cls-22"><path class="cls-23" d="M24.39,60.66a3.52,3.52,0,0,0,0,1.07.58.58,0,0,0-.26,0,2.86,2.86,0,0,0,0-.89C24.11,60.49,24.39,60.66,24.39,60.66Z" transform="translate(0.03 6.66)"/><path class="cls-23" d="M24.26,60.88c.46-.07,1.3.17,1.53-.46.16-.44-.22-.77-.36-1.16s.12-.9-.17-1.34-.06-.71-.21-1.11a3.72,3.72,0,0,1-.1-1.28,1.89,1.89,0,0,0-.2-1c-.2-.26-.08-.77-.28-.86s-.4.83-.42,1.26-.29.85-.27,1.16-.45.8-.49,1.24a10.65,10.65,0,0,0-.12,1.62c.07,1-.12.71-.22,1.33C22.86,60.69,23.35,61,24.26,60.88Z" transform="translate(0.03 6.66)"/><path class="cls-24" d="M23.89,60.15c-.71,0-.23-1.75,0-2.55s-.18-1,0-1.41a4.3,4.3,0,0,0,.22-1.61.56.56,0,0,0,0-.26,4.19,4.19,0,0,0-.08.56c0,.43-.29.85-.27,1.16s-.45.8-.49,1.24a10.55,10.55,0,0,0-.13,1.62c.07,1-.12.71-.22,1.33-.07.44.42.78,1.33.64.46-.07,1.3.17,1.53-.46l0,0a3.56,3.56,0,0,0-.82.15C24.28,60.79,24.6,60.13,23.89,60.15Z" transform="translate(0.03 6.66)"/><path class="cls-25" d="M24.47,54.1a1.94,1.94,0,0,0,.21.72c.14.21,0,1,.06,1.47s-.12,1.09.17,1.5,0,1.15.24,1.46.51.83-.09.43-.79-.62-.59-1.22-.26-1-.16-1.93a7,7,0,0,0,.12-1.8C24.34,54.18,24.41,53.79,24.47,54.1Z" transform="translate(0.03 6.66)"/></g><g class="cls-22"><path class="cls-23" d="M69.41,60.83a3.66,3.66,0,0,0,0,1,.37.37,0,0,0-.2,0,3,3,0,0,0,.05-.79C69.21,60.67,69.41,60.83,69.41,60.83Z" transform="translate(0.03 6.66)"/><path class="cls-23" d="M69.31,61c.35,0,1,.19,1.17-.36.13-.38-.15-.69-.24-1s.12-.8-.09-1.2,0-.63-.13-1a3.9,3.9,0,0,1,0-1.14,1.93,1.93,0,0,0-.12-.94c-.14-.24,0-.69-.19-.77s-.33.72-.36,1.11-.24.75-.24,1-.37.7-.41,1.09a11.09,11.09,0,0,0-.14,1.44c0,.87-.11.63-.2,1.17C68.25,60.81,68.61,61.13,69.31,61Z" transform="translate(0.03 6.66)"/><path class="cls-24" d="M69,60.37c-.54,0-.13-1.57.09-2.27s-.11-.89.05-1.25a4.43,4.43,0,0,0,.22-1.42.57.57,0,0,0,0-.23,4.38,4.38,0,0,0-.08.49c0,.38-.24.75-.24,1s-.37.7-.41,1.09a11.06,11.06,0,0,0-.14,1.44c0,.87-.11.63-.2,1.17-.07.39.3.71,1,.61.36,0,1,.19,1.17-.36v0a2.36,2.36,0,0,0-.63.11C69.32,60.95,69.59,60.37,69,60.37Z" transform="translate(0.03 6.66)"/><path class="cls-25" d="M69.66,55a2,2,0,0,0,.14.65,8.39,8.39,0,0,1,0,1.31c0,.44-.12,1,.09,1.34s0,1,.14,1.31.37.76-.08.38-.58-.57-.42-1.11-.17-.91-.07-1.72a7.29,7.29,0,0,0,.14-1.6C69.56,55.06,69.63,54.71,69.66,55Z" transform="translate(0.03 6.66)"/></g><path class="cls-27" d="M95.23,63l-1.17,0-1.34,0-1.74,0-2.06-.05c-.73,0-1.5,0-2.3-.08l-2.45-.14-1.26-.07-1.27-.09-2.53-.19-2.45-.2-2.29-.18-2.05-.14-.91-.05-.82,0-1.34-.07-1.17-.06,1.17,0,1.34.05c.52,0,1.1,0,1.74.08l2.05.13,1.12.07,1.17.09,2.45.19,2.53.18,1.27.09,1.26.07,2.45.15c.79.06,1.56.07,2.29.1l2.06.07,1.74.05,1.34,0Z" transform="translate(0.03 6.66)"/><path class="cls-27" d="M47.75,61.68l-4.91,0-5,0H32c-1,0-2,0-2.93-.07s-1.92,0-2.84,0l-2.66,0c-.84,0-1.64,0-2.38,0a9,9,0,0,1-1.06-.06l-.25,0-.12,0h-.12l-.23,0h-.23c-.6,0-1.12.05-1.55.08a7.81,7.81,0,0,1-1,0l-.26,0-.09,0,.09,0,.26,0a7.76,7.76,0,0,0,1,0c.43,0,.95-.1,1.55-.1h.23l.24,0h.12l.12,0,.24,0a9.65,9.65,0,0,0,1.05.06c.74,0,1.53,0,2.38,0l2.66-.05c.92,0,1.87,0,2.84,0s1.95,0,2.93.06l.74,0h15Z" transform="translate(0.03 6.66)"/><path class="cls-6" d="M96.64,63c-1.5,0-3.33-.09-5.45-.11-5.07,0-12.59-.67-16.3-1-3.07-.25-8.68-.52-12-.48,4,.05,16.73,2.19,19.84,8.21C87,77.87,64.3,81.82,51.57,86.07H96.64Z" transform="translate(0.03 6.66)"/><path class="cls-6" d="M86,77.9c5-1.22-1.78-8.44-2.59-12.32s-27.39-5-32.95-3.89H47.72c-4.92,0-15.35.12-18.34,0s-8.39.2-9.41-.06-3,.22-3.67,0-.49-.12-2,0h-.19v24.1s40.48,0,48.44-.65C74.63,84,81,79.12,86,77.9Z" transform="translate(0.03 6.66)"/><path class="cls-28" d="M14.78,70.23a.6.6,0,0,0-.1-.14L14.63,70,14.56,70l-.07-.05-.07,0-.08,0-.08,0-.08,0h.08a1.14,1.14,0,0,1,.27,0,1.17,1.17,0,0,1,.26.05,1,1,0,0,1,.25.11l.11.08.1.09-.08,0,0-.11-.05-.1-.06-.1L15,69.73l-.08-.09-.09-.08-.09-.07-.09-.07-.14-.1h.3l.13,0a1.21,1.21,0,0,1,.25.1,1,1,0,0,1,.22.16l.09.1.08.1-.1,0a1.3,1.3,0,0,0,0-.14,1.35,1.35,0,0,0,0-.13l0-.06,0-.06a.31.31,0,0,0,0-.06l0,0-.09-.12.14,0,.09,0,.08,0,.07.06.06.07.06.07,0,.08a.58.58,0,0,1,0,.08l0,.08h-.08a2.4,2.4,0,0,0,0-.24s0-.08,0-.12v-.11l0-.18.08.15a1.35,1.35,0,0,1,.1.22,1.54,1.54,0,0,1,.06.23A1.1,1.1,0,0,1,16,70a.77.77,0,0,1,0,.12.8.8,0,0,1,0,.11.81.81,0,0,0,0-.12A.74.74,0,0,0,16,70a1.07,1.07,0,0,0,0-.23,1.58,1.58,0,0,0-.18-.43l.06,0,0,.07v.06s0,.09,0,.13a2.24,2.24,0,0,1,0,.25l0,.11-.05-.1,0-.07,0-.07,0-.07-.05-.06-.06-.06-.06-.05-.07,0-.07,0,0-.08.05.06a.41.41,0,0,1,0,.07l0,.07,0,.07a1.35,1.35,0,0,1,0,.29V70l-.1-.13-.07-.09-.08-.08a1,1,0,0,0-.2-.14,1.06,1.06,0,0,0-.22-.09l-.12,0h-.12l0-.1.1.08.1.08.09.09.08.1.07.1.06.11.05.11a.83.83,0,0,1,0,.12l0,.16-.12-.12-.09-.09L15,70a1,1,0,0,0-.22-.11l-.25-.06h-.26v0l.08,0,.08,0,.07,0,.07.06.06.06.06.07A.62.62,0,0,1,14.78,70.23Z" transform="translate(0.03 6.66)"/><path class="cls-29" d="M80.93,83.48a.21.21,0,0,0,0-.07.41.41,0,0,0,0-.07l0-.06-.05,0-.06,0-.06,0-.14-.05L80.42,83l.15,0h.12l.12,0a.6.6,0,0,1,.21.12l.08.09.07.1.05.1,0,.11h-.1l.22-.35.06-.1,0,.11c0,.11,0,.22.05.34l0,.17c0,.06,0,.11,0,.17l0-.17,0-.16,0-.16,0-.16h.08l-.2.36-.06.1,0-.11,0-.1,0-.09L81,83.31l-.07-.08,0,0,0,0-.09,0-.1,0h-.1V83l.14.07.06,0,.06.05,0,.06,0,.07a.34.34,0,0,1,0,.08A.22.22,0,0,1,80.93,83.48Z" transform="translate(0.03 6.66)"/><path class="cls-28" d="M82.37,77.35a1.16,1.16,0,0,0-.12-.3l-.09-.14-.11-.13L82,76.73l-.06-.05-.13-.1-.14-.08-.07,0-.08,0-.16-.07h.17l.19,0,.18,0,.18.06.17.08.16.09.15.11.13.13.12.14-.09,0a.83.83,0,0,0,0-.11.85.85,0,0,0,0-.11l0-.06,0-.05-.06-.1,0-.05,0,0-.08-.09,0,0,0,0-.09-.08-.13-.11.17,0,.15,0,.14.05.13.07.12.08.05,0,.05,0,.09.11.08.12.07.12H83a2.36,2.36,0,0,1,.15-.31,1.39,1.39,0,0,1,.09-.14l.05-.07.06-.07.11-.12,0,.16a.53.53,0,0,0,0,.08.68.68,0,0,0,0,.08.61.61,0,0,0,0,.09.42.42,0,0,0,0,.08.74.74,0,0,0,0,.08l0,.08a.5.5,0,0,0,0,.08l0,.08h-.05l.25-.27.14-.12a.48.48,0,0,1,.17-.09h0l0,0a.75.75,0,0,0-.11.27.4.4,0,0,0,0,.07.27.27,0,0,0,0,.07v0l0,0,.05.05-.06,0,0,0,0,0a.29.29,0,0,1,0-.07.39.39,0,0,1,0-.08.79.79,0,0,1,.1-.29l0,0a.45.45,0,0,0-.14.09l-.13.12-.23.27,0,0,0,0,0-.08a.46.46,0,0,1,0-.08l0-.09s0-.06,0-.09a.43.43,0,0,1,0-.09.65.65,0,0,1,0-.09.73.73,0,0,1,0-.09.63.63,0,0,1,0-.1l.08,0-.05.06,0,.06-.09.14a2.19,2.19,0,0,0-.14.3l0,.11-.06-.1L83,76.78l-.07-.11-.09-.1,0,0,0,0-.11-.08-.12-.06-.12,0-.12,0,0-.1.1.09,0,0,0,0,.08.1,0,.05,0,.05.06.11,0,.06,0,.06a1,1,0,0,1,0,.12.86.86,0,0,1,0,.13l0,.17-.11-.14L82.6,77l-.12-.12-.14-.11-.15-.09L82,76.55l-.17-.06-.17,0-.17,0v-.06l.08,0,.08,0,.14.09.13.11.06.06.06.06.1.14.08.14A1.1,1.1,0,0,1,82.37,77.35Z" transform="translate(0.03 6.66)"/><path class="cls-29" d="M89.48,67.53a.34.34,0,0,0,0-.12.31.31,0,0,0,0-.06l0-.05-.07-.1-.08-.09L89.17,67l-.1-.07-.21-.12-.22-.13.25.07.31.11a2.08,2.08,0,0,1,.3.15l.14.09.13.11.06.06.05.07a.43.43,0,0,1,0,.07l0,.08-.1,0c0-.27-.09-.53-.14-.8l0-.3.15.26.34.59h-.08l.14-.12.15-.11.08,0,.08,0,0,0h0l.1,0,.1,0-.07.08a.88.88,0,0,0-.16.26.4.4,0,0,0,0,.14.15.15,0,0,0,0,0,.11.11,0,0,0,0,0v0l0,0h0l.12-.08.06,0,.07,0,.14,0h0l-.13,0-.06,0-.06,0-.1.08,0,0,0,0,0,0,0,0v0a.2.2,0,0,1,0,0,.42.42,0,0,1,0-.17,1,1,0,0,1,.16-.29l0,.06-.08,0h0l0,0-.08,0-.07,0-.14.11-.13.12,0,0,0-.06-.34-.59.1,0c0,.26.09.53.13.8l.06.38-.16-.35,0-.07,0-.06,0-.06,0-.06-.11-.1-.13-.09a2.38,2.38,0,0,0-.57-.27l0-.06.22.13.1.08a.7.7,0,0,1,.09.09l.08.1.06.11,0,.06a.27.27,0,0,1,0,.06v.06A.34.34,0,0,1,89.48,67.53Z" transform="translate(0.03 6.66)"/><path class="cls-28" d="M29.6,66a.31.31,0,0,0,0-.11l0,0,0,0-.08-.08-.09-.06-.1-.05-.1,0-.21-.06-.1,0,.09,0,.15,0h.31l.08,0,.07,0,.07,0,.07,0,.06,0,.06.05a1,1,0,0,1,.1.12l0,.06,0,.07-.1,0a.41.41,0,0,0,0-.09.63.63,0,0,0,0-.1.79.79,0,0,0,0-.09.46.46,0,0,0-.06-.08l0,0,0,0-.08-.07-.09-.06-.09-.06-.24-.17.28.07.29.1.27.14.13.09.12.1.1.11.09.12h-.07l.24-.48,0,0a.23.23,0,0,0,0,.11.12.12,0,0,0,0,.05l0,0,.05,0h0l-.06,0,0,0a.15.15,0,0,1,0-.06.26.26,0,0,1,0-.13l0,0-.21.49,0,.06,0-.05-.09-.11-.1-.1-.11-.09L30,65.48l-.26-.13-.28-.09,0-.1.1.06.09.07.08.08,0,0,0,0a.61.61,0,0,1,.06.1,1,1,0,0,1,.05.1.73.73,0,0,1,0,.11.48.48,0,0,1,0,.12v.19l-.1-.17,0-.06,0-.06a.83.83,0,0,0-.08-.11l0,0-.05,0-.06,0-.06,0-.06,0-.07,0-.14,0H29.1l-.14,0v-.06l.22.08.1.06.1.06.09.07.07.09,0,.05a.21.21,0,0,1,0,.05A.32.32,0,0,1,29.6,66Z" transform="translate(0.03 6.66)"/><path class="cls-28" d="M38.42,67.5a2.45,2.45,0,0,0-.3-.26l-.17-.1-.09,0h-.09l-.31,0,.31-.06.14,0h.14a1.35,1.35,0,0,1,.28.05,1.2,1.2,0,0,1,.27.11l.06,0,.06,0,.11.09-.09,0a1,1,0,0,0,0-.19.53.53,0,0,0,0-.09l0,0,0,0-.11-.19.18.12a1.41,1.41,0,0,1,.22.17l.09.11,0,.06,0,.06-.06,0,.17-.12.08-.06.08-.07,0,0v0a.37.37,0,0,1,0,.09.36.36,0,0,1,0,.08.29.29,0,0,1,0,.08l-.05.06a.37.37,0,0,0,0-.07.34.34,0,0,0,0-.08.41.41,0,0,0,0-.16h0l-.07.08-.08.07-.16.14,0,0,0,0,0-.05,0,0-.09-.09a1.38,1.38,0,0,0-.2-.15l.07-.08,0,.05,0,.05a.63.63,0,0,1,0,.11,1,1,0,0,1,0,.22v.11l-.09-.07-.1-.08-.05,0-.06,0a1.19,1.19,0,0,0-.24-.11L38,67.1h-.26V67h.06l.05,0,.1,0,.17.12A1.85,1.85,0,0,1,38.42,67.5Z" transform="translate(0.03 6.66)"/><path class="cls-28" d="M44.21,71.87a1,1,0,0,0-.2-.21l-.12-.08-.13-.07-.07,0-.07,0-.14,0h-.41l.1-.06.17-.08.18,0h.19l.19,0,.09,0,.09,0,.09,0,.08,0,.16.1.14.12-.07.07c0-.05-.07-.1-.1-.16l-.08-.16c0-.05,0-.11-.07-.16L44.14,71l-.1-.25.19.19.26.23.14.11.07,0,.07,0-.08,0a.65.65,0,0,1,0-.11.69.69,0,0,1,0-.11l0-.1a.55.55,0,0,1,0-.1l.06-.09.07-.08,0,0,0,0,.09-.07.15-.11-.08.17,0,.08a.65.65,0,0,0,0,.08.62.62,0,0,0,0,.08.48.48,0,0,0,0,.08.59.59,0,0,0,0,.08v.08a.58.58,0,0,0,0,.08l0,.08H45.1l.08-.11.09-.1.1-.09L45.5,71l.12-.07.12-.06.13,0,.13,0,.09,0-.07.07a1.08,1.08,0,0,0-.13.15l-.05.08,0,.09,0,.09a.89.89,0,0,0,0,.09.33.33,0,0,0,0,.1v0a.35.35,0,0,1,0-.1.82.82,0,0,1,0-.1l0-.09,0-.09.05-.09a1.09,1.09,0,0,1,.12-.16l0,0-.12,0-.12,0-.12.06-.11.07-.1.08-.09.09-.08.09-.07.1-.05.09,0-.09,0-.09a.54.54,0,0,1,0-.09v-.09a.69.69,0,0,1,0-.09A.53.53,0,0,1,45,71a.78.78,0,0,1,0-.09s0-.06,0-.09l0-.09.07.06-.08.06,0,0,0,0L45,71l-.05.08a.49.49,0,0,0,0,.09.45.45,0,0,0,0,.09.54.54,0,0,0,0,.09.64.64,0,0,0,0,.09v.09l-.07,0-.08,0-.08-.05-.14-.11L44.15,71l.09-.05.07.16c0,.05,0,.11.07.16l.08.16.09.14.27.36-.35-.29-.13-.11-.14-.09L44,71.39l-.08,0-.08,0-.17,0h-.17l-.17,0-.16.06,0-.06h.15l.15,0,.15,0,.07,0,.07,0A1.05,1.05,0,0,1,44.21,71.87Z" transform="translate(0.03 6.66)"/><path class="cls-30" d="M98.4,62.48h-.7c-1.43,0-3.11-.09-5-.1-4.55,0-11-.52-15.19-.86-.43,0-2.63-.25-2.86.26s1.7,1.3,2,1.45c3.07,1.34,6.57,1.88,9.44,3.67a7,7,0,0,1,3.33,5.67C89.22,79,79.22,80,74.54,81.1A53.13,53.13,0,0,0,62.8,85c-.54.28-2,1.59-2.56,1.59H98.4Z" transform="translate(0.03 6.66)"/><path class="cls-30" d="M56,70.17c17.6-4.41-1.78-8.18-10.23-8.49h0c-5.5,0-15.1.12-18,0-3.13-.17-8.8.2-9.87-.06s-3.13.23-3.85,0-.52-.12-2.1,0h-.2v9.69C19.19,76.62,41.44,73.81,56,70.17Z" transform="translate(0.03 6.66)"/><path class="cls-31" d="M62.22,61.37a50.65,50.65,0,0,0-7.09-.11c-3,.07-5.63.14-8,.42A34.06,34.06,0,0,0,33.64,85.45l0,.34H80C76.48,75.89,70.58,66.78,62.22,61.37Z" transform="translate(0.03 6.66)"/><path class="cls-32" d="M57.77,84l-.37-7.17a10.63,10.63,0,0,0-2.28,0L54.79,84A13.57,13.57,0,0,0,57.77,84Z" transform="translate(0.03 6.66)"/><path class="cls-33" d="M57.19,72.67l-.28-5.56-1.34,0-.26,5.53Z" transform="translate(0.03 6.66)"/><path class="cls-34" d="M56.77,64.31l-.11-2.24a1.86,1.86,0,0,0-.06-.49h-.72a1.87,1.87,0,0,0-.06.49l-.1,2.24Z" transform="translate(0.03 6.66)"/><path class="cls-35" d="M71,67.55c0,3.48-6.81,6.29-15.2,6.29S40.62,71,40.62,67.55s8.11-5.84,15.2-6.29C64.19,60.72,71,64.08,71,67.55Z" transform="translate(0.03 6.66)"/><path class="cls-36" d="M59,103.21l-.66-13a19.23,19.23,0,0,0-4.12,0l-.61,13.07A24.55,24.55,0,0,0,59,103.21Z" transform="translate(0.03 6.66)"/><path class="cls-37" d="M58.63,102.11l-.58-11.31a16.76,16.76,0,0,0-3.6,0l-.53,11.39A21.4,21.4,0,0,0,58.63,102.11Z" transform="translate(0.03 6.66)"/><polygon class="cls-10" points="96.06 63.65 98.23 63.89 98.23 69.51 96.08 69.65 96.06 63.65"/></g><path class="cls-38" d="M14.19,48.22l-2.44-.6V61.76l2.44-.19S14.13,48.22,14.19,48.22Z" transform="translate(0.03 6.66)"/><g id="Frame"><path class="cls-39" d="M55,4.3,9.45,30.57V83.13L55,109.4l45.5-26.28V30.57ZM98.18,81.81,55,106.75,11.74,81.81V31.91L55,6.95l43.21,25Z" transform="translate(0.03 6.66)"/><path class="cls-40" d="M55-6.66,0,25.1V88.61l55,31.76,55-31.76V25.1Zm45.5,89.79L55,109.41,9.46,83.13V30.58L55,4.3l45.5,26.28Z" transform="translate(0.03 6.66)"/><path class="cls-3" d="M70.46,106.78l1.66-1,.08.13a3.22,3.22,0,0,1,.36.86,2,2,0,0,1,0,.81,2.1,2.1,0,0,1-1.06,1.45,2.26,2.26,0,0,1-1.79.22,2.41,2.41,0,0,1-.55-4.43,2.37,2.37,0,0,1,1-.31,2.91,2.91,0,0,1,1.13.18l-.19.66a1.69,1.69,0,0,0-1.58,0,1.65,1.65,0,0,0-.82,1.06,1.69,1.69,0,0,0,.19,1.33,1.63,1.63,0,0,0,1.12.83,1.67,1.67,0,0,0,1.21-.16,1.39,1.39,0,0,0,.63-.76,1.25,1.25,0,0,0,0-1l-1,.58Z" transform="translate(0.03 6.66)"/><rect class="cls-3" x="74.27" y="102.19" width="0.7" height="4.64" transform="translate(-42.18 57.86) rotate(-29.95)"/><polygon class="cls-3" points="77.58 107.55 79.56 111 78.96 111.35 76.97 107.9 76.05 108.43 75.72 107.86 78.17 106.45 78.5 107.02 77.58 107.55"/><path class="cls-3" d="M83,97.27l.41.72a1.94,1.94,0,0,0-1.34.19,1.61,1.61,0,0,0-.79,1,1.73,1.73,0,0,0,.2,1.33,1.69,1.69,0,0,0,1,.82,1.63,1.63,0,0,0,1.3-.17,1.5,1.5,0,0,0,.48-.42,1.77,1.77,0,0,0,.18-.29,3.62,3.62,0,0,0,.16-.38l.42.73a2.52,2.52,0,0,1-.92.93,2.33,2.33,0,0,1-1.81.24,2.3,2.3,0,0,1-1.45-1.11,2.39,2.39,0,0,1-.28-1.66,2.32,2.32,0,0,1,1.19-1.67A2.36,2.36,0,0,1,83,97.27" transform="translate(0.03 6.66)"/><rect class="cls-3" x="92.27" y="91.82" width="0.7" height="4.63" transform="translate(-34.61 65.51) rotate(-29.97)"/><polygon class="cls-3" points="96.47 101.27 94 96.98 98.69 98.36 97.08 95.57 97.69 95.22 100.14 99.48 95.45 98.11 97.07 100.92 96.47 101.27"/></g><path class="cls-41" d="M86,97.09a2.27,2.27,0,0,1-.22-1.81,2.37,2.37,0,0,1,1.14-1.47,2.43,2.43,0,0,1,3.29.89,2.28,2.28,0,0,1,.23,1.83,2.45,2.45,0,0,1-2.86,1.74A2.27,2.27,0,0,1,86,97.09m.61-.34a1.72,1.72,0,0,0,3.17-.38,1.8,1.8,0,0,0-1.23-2.16,1.63,1.63,0,0,0-1.31.17,1.65,1.65,0,0,0-.81,1,1.68,1.68,0,0,0,.18,1.32" transform="translate(0.03 6.66)"/><g class="cls-42"><path class="cls-23" d="M96.92,62.7a4.61,4.61,0,0,0,0,1.21.47.47,0,0,0-.25,0,3.75,3.75,0,0,0,.06-1C96.67,62.5,96.92,62.7,96.92,62.7Z" transform="translate(0.03 6.66)"/><path class="cls-23" d="M96.79,63c.45-.06,1.24.24,1.48-.45.17-.48-.19-.87-.3-1.32s.15-1-.12-1.51,0-.8-.16-1.25A4.9,4.9,0,0,1,97.64,57a2.45,2.45,0,0,0-.16-1.18c-.18-.3-.05-.87-.24-1s-.41.91-.45,1.39-.3.95-.3,1.29S96,58.4,96,58.89a13.91,13.91,0,0,0-.18,1.81c0,1.1-.14.79-.26,1.48C95.46,62.67,95.91,63.07,96.79,63Z" transform="translate(0.03 6.66)"/><path class="cls-24" d="M96.47,62.12c-.68,0-.16-2,.12-2.86s-.14-1.12.07-1.58a5.61,5.61,0,0,0,.27-1.79.73.73,0,0,0,0-.29,5.33,5.33,0,0,0-.1.62c0,.48-.3.95-.3,1.29S96,58.4,96,58.89a13.71,13.71,0,0,0-.18,1.81c0,1.1-.14.79-.26,1.48-.08.49.38.89,1.25.77.45-.06,1.24.24,1.48-.45l0-.06a3,3,0,0,0-.79.14C96.81,62.84,97.15,62.12,96.47,62.12Z" transform="translate(0.03 6.66)"/><path class="cls-25" d="M97.24,55.35a2.47,2.47,0,0,0,.18.82,10.62,10.62,0,0,1,0,1.65c0,.55-.15,1.22.11,1.69s0,1.29.18,1.65.46,1-.11.48-.74-.72-.53-1.39-.22-1.14-.09-2.17a9.16,9.16,0,0,0,.18-2C97.11,55.43,97.2,55,97.24,55.35Z" transform="translate(0.03 6.66)"/></g><g class="cls-43"><path class="cls-23" d="M96.29,66.75a4.61,4.61,0,0,0,0,1.21A.47.47,0,0,0,96,68a3.75,3.75,0,0,0,.06-1C96,66.54,96.29,66.75,96.29,66.75Z" transform="translate(0.03 6.66)"/><path class="cls-23" d="M96.16,67c.45-.06,1.24.24,1.48-.45.17-.48-.19-.87-.3-1.32s.15-1-.12-1.51,0-.8-.16-1.25A4.9,4.9,0,0,1,97,61a2.45,2.45,0,0,0-.16-1.18c-.18-.3-.05-.87-.24-1s-.41.91-.45,1.39-.3.95-.3,1.29-.46.88-.51,1.37a13.91,13.91,0,0,0-.18,1.81c0,1.1-.14.79-.26,1.48C94.83,66.72,95.28,67.12,96.16,67Z" transform="translate(0.03 6.66)"/><path class="cls-24" d="M95.84,66.16c-.68,0-.16-2,.12-2.86s-.14-1.12.07-1.58a5.61,5.61,0,0,0,.27-1.79.73.73,0,0,0,0-.29,5.33,5.33,0,0,0-.1.62c0,.48-.3.95-.3,1.29s-.46.88-.51,1.37a13.71,13.71,0,0,0-.18,1.81c0,1.1-.14.79-.26,1.48-.08.49.38.89,1.25.77.45-.06,1.24.24,1.48-.45l0-.06a3,3,0,0,0-.79.14C96.18,66.89,96.52,66.16,95.84,66.16Z" transform="translate(0.03 6.66)"/><path class="cls-25" d="M96.61,59.39a2.47,2.47,0,0,0,.18.82,10.62,10.62,0,0,1,0,1.65c0,.55-.15,1.22.11,1.69s0,1.29.18,1.65.46,1-.11.48-.74-.72-.53-1.39-.22-1.14-.09-2.17a9.16,9.16,0,0,0,.18-2C96.48,59.47,96.57,59,96.61,59.39Z" transform="translate(0.03 6.66)"/></g><g class="cls-43"><path class="cls-23" d="M14.16,63.42a4.61,4.61,0,0,0,0,1.21.47.47,0,0,0-.25,0,3.75,3.75,0,0,0,.06-1C13.91,63.22,14.16,63.42,14.16,63.42Z" transform="translate(0.03 6.66)"/><path class="cls-23" d="M14,63.67c.45-.06,1.24.24,1.48-.45.17-.48-.19-.87-.3-1.32s.15-1-.12-1.51,0-.8-.16-1.25a4.9,4.9,0,0,1-.05-1.44,2.45,2.45,0,0,0-.16-1.18c-.18-.3-.05-.87-.24-1s-.41.91-.45,1.39-.3.95-.3,1.29-.46.88-.51,1.37A13.91,13.91,0,0,0,13,61.42c0,1.1-.14.79-.26,1.48C12.7,63.39,13.16,63.79,14,63.67Z" transform="translate(0.03 6.66)"/><path class="cls-24" d="M13.71,62.84c-.68,0-.16-2,.12-2.86s-.14-1.12.07-1.58a5.61,5.61,0,0,0,.27-1.79.73.73,0,0,0,0-.29,5.33,5.33,0,0,0-.1.62c0,.48-.3.95-.3,1.29s-.46.88-.51,1.37A13.71,13.71,0,0,0,13,61.42c0,1.1-.14.79-.26,1.48-.08.49.38.89,1.25.77.45-.06,1.24.24,1.48-.45l0-.06a3,3,0,0,0-.79.14C14.05,63.56,14.39,62.84,13.71,62.84Z" transform="translate(0.03 6.66)"/><path class="cls-25" d="M14.48,56.07a2.47,2.47,0,0,0,.18.82,10.62,10.62,0,0,1,0,1.65c0,.55-.15,1.22.11,1.69s0,1.29.18,1.65.46,1-.11.48-.74-.72-.53-1.39-.22-1.14-.09-2.17a9.16,9.16,0,0,0,.18-2C14.35,56.15,14.44,55.71,14.48,56.07Z" transform="translate(0.03 6.66)"/></g><g class="cls-43"><path class="cls-23" d="M16.71,66.39a5.61,5.61,0,0,0,0,1.47.57.57,0,0,0-.3,0,4.56,4.56,0,0,0,.08-1.21C16.4,66.14,16.71,66.39,16.71,66.39Z" transform="translate(0.03 6.66)"/><path class="cls-23" d="M16.56,66.69c.54-.07,1.5.29,1.8-.55.2-.59-.23-1.06-.37-1.6s.18-1.22-.14-1.84,0-1-.19-1.52a6,6,0,0,1-.06-1.75A3,3,0,0,0,17.4,58c-.22-.36-.06-1.05-.29-1.18s-.5,1.11-.55,1.69-.37,1.15-.37,1.57-.56,1.07-.63,1.67A16.91,16.91,0,0,0,15.35,64c0,1.33-.17,1-.31,1.8C14.93,66.35,15.49,66.84,16.56,66.69Z" transform="translate(0.03 6.66)"/><path class="cls-24" d="M16.16,65.67c-.83,0-.19-2.4.14-3.47s-.17-1.36.08-1.92a6.81,6.81,0,0,0,.33-2.18.89.89,0,0,0,0-.35,6.48,6.48,0,0,0-.12.76c-.05.59-.37,1.15-.37,1.57s-.56,1.07-.62,1.67A16.66,16.66,0,0,0,15.34,64c0,1.33-.17,1-.31,1.8-.1.6.46,1.08,1.52.94.54-.07,1.5.29,1.8-.55l0-.07a3.65,3.65,0,0,0-1,.17C16.58,66.56,17,65.67,16.16,65.67Z" transform="translate(0.03 6.66)"/><path class="cls-25" d="M17.1,57.44a3,3,0,0,0,.21,1,12.91,12.91,0,0,1,0,2c.05.67-.19,1.49.13,2.06s0,1.57.22,2,.56,1.16-.13.59-.89-.88-.64-1.69-.26-1.39-.11-2.64A11.13,11.13,0,0,0,17,58.33C16.94,57.54,17.05,57,17.1,57.44Z" transform="translate(0.03 6.66)"/></g><g class="cls-43"><path class="cls-23" d="M94,64.43a3.93,3.93,0,0,0,0,1,.4.4,0,0,0-.21,0,3.2,3.2,0,0,0,.06-.85C93.82,64.26,94,64.43,94,64.43Z" transform="translate(0.03 6.66)"/><path class="cls-23" d="M93.93,64.64c.38-.05,1.05.2,1.26-.38.14-.41-.16-.74-.26-1.12s.13-.86-.1-1.29,0-.68-.13-1.07a4.17,4.17,0,0,1,0-1.23,2.08,2.08,0,0,0-.13-1c-.15-.25,0-.74-.21-.83s-.35.78-.38,1.19-.26.81-.26,1.1-.39.75-.44,1.17a11.85,11.85,0,0,0-.15,1.55c0,.93-.12.68-.22,1.26C92.79,64.4,93.18,64.74,93.93,64.64Z" transform="translate(0.03 6.66)"/><path class="cls-24" d="M93.65,63.93c-.58,0-.13-1.68.1-2.43s-.12-1,.06-1.34A4.78,4.78,0,0,0,94,58.62a.62.62,0,0,0,0-.25,4.54,4.54,0,0,0-.08.53c0,.41-.26.81-.26,1.1s-.39.75-.44,1.17a11.68,11.68,0,0,0-.15,1.55c0,.93-.12.68-.22,1.26-.07.42.32.76,1.07.66.38-.05,1.05.2,1.26-.38v0a2.56,2.56,0,0,0-.67.12C93.95,64.55,94.23,63.93,93.65,63.93Z" transform="translate(0.03 6.66)"/><path class="cls-25" d="M94.31,58.16a2.11,2.11,0,0,0,.15.7,9,9,0,0,1,0,1.41c0,.47-.13,1,.09,1.44s0,1.1.15,1.41.39.81-.09.41-.63-.62-.45-1.19-.18-1-.07-1.85a7.81,7.81,0,0,0,.15-1.72C94.2,58.23,94.28,57.86,94.31,58.16Z" transform="translate(0.03 6.66)"/></g><g class="cls-44"><path class="cls-23" d="M96.17,73.5a4.61,4.61,0,0,0,0,1.21.47.47,0,0,0-.25,0,3.75,3.75,0,0,0,.06-1C95.91,73.29,96.17,73.5,96.17,73.5Z" transform="translate(0.03 6.66)"/><path class="cls-23" d="M96,73.75c.45-.06,1.24.24,1.48-.45.17-.48-.19-.87-.3-1.32s.15-1-.12-1.51,0-.8-.16-1.25a4.9,4.9,0,0,1-.05-1.44,2.45,2.45,0,0,0-.16-1.18c-.18-.3-.05-.87-.24-1s-.41.91-.45,1.39-.3.95-.3,1.29-.46.88-.51,1.37A13.91,13.91,0,0,0,95,71.5c0,1.1-.14.79-.26,1.48C94.7,73.47,95.16,73.87,96,73.75Z" transform="translate(0.03 6.66)"/><path class="cls-24" d="M95.71,72.91c-.68,0-.16-2,.12-2.86s-.14-1.12.07-1.58a5.61,5.61,0,0,0,.27-1.79.73.73,0,0,0,0-.29A5.33,5.33,0,0,0,96,67c0,.48-.3.95-.3,1.29s-.46.88-.51,1.37A13.71,13.71,0,0,0,95,71.5c0,1.1-.14.79-.26,1.48-.08.49.38.89,1.25.77.45-.06,1.24.24,1.48-.45l0-.06a3,3,0,0,0-.79.14C96.06,73.64,96.39,72.91,95.71,72.91Z" transform="translate(0.03 6.66)"/><path class="cls-25" d="M96.48,66.14a2.47,2.47,0,0,0,.18.82,10.62,10.62,0,0,1,0,1.65c0,.55-.15,1.22.11,1.69s0,1.29.18,1.65.46,1-.11.48-.74-.72-.53-1.39-.22-1.14-.09-2.17a9.16,9.16,0,0,0,.18-2C96.36,66.22,96.44,65.79,96.48,66.14Z" transform="translate(0.03 6.66)"/></g><g class="cls-44"><path class="cls-23" d="M92.17,69.87a4.61,4.61,0,0,0,0,1.21.47.47,0,0,0-.25,0,3.75,3.75,0,0,0,.06-1C91.91,69.67,92.17,69.87,92.17,69.87Z" transform="translate(0.03 6.66)"/><path class="cls-23" d="M92,70.12c.45-.06,1.24.24,1.48-.45.17-.48-.19-.87-.3-1.32s.15-1-.12-1.51,0-.8-.16-1.25a4.9,4.9,0,0,1-.05-1.44A2.45,2.45,0,0,0,92.73,63c-.18-.3-.05-.87-.24-1s-.41.91-.45,1.39-.3.95-.3,1.29-.46.88-.51,1.37A13.91,13.91,0,0,0,91,67.87c0,1.1-.14.79-.26,1.48C90.7,69.84,91.16,70.24,92,70.12Z" transform="translate(0.03 6.66)"/><path class="cls-24" d="M91.71,69.29c-.68,0-.16-2,.12-2.86s-.14-1.12.07-1.58a5.61,5.61,0,0,0,.27-1.79.73.73,0,0,0,0-.29,5.33,5.33,0,0,0-.1.62c0,.48-.3.95-.3,1.29s-.46.88-.51,1.37A13.71,13.71,0,0,0,91,67.87c0,1.1-.14.79-.26,1.48-.08.49.38.89,1.25.77.45-.06,1.24.24,1.48-.45l0-.06a3,3,0,0,0-.79.14C92.06,70,92.39,69.29,91.71,69.29Z" transform="translate(0.03 6.66)"/><path class="cls-25" d="M92.48,62.52a2.47,2.47,0,0,0,.18.82,10.62,10.62,0,0,1,0,1.65c0,.55-.15,1.22.11,1.69s0,1.29.18,1.65.46,1-.11.48-.74-.72-.53-1.39-.22-1.14-.09-2.17a9.16,9.16,0,0,0,.18-2C92.36,62.6,92.44,62.16,92.48,62.52Z" transform="translate(0.03 6.66)"/></g><g class="cls-44"><path class="cls-23" d="M13.92,69.12a4.61,4.61,0,0,0,0,1.21.47.47,0,0,0-.25,0,3.75,3.75,0,0,0,.06-1C13.66,68.92,13.92,69.12,13.92,69.12Z" transform="translate(0.03 6.66)"/><path class="cls-23" d="M13.79,69.37c.45-.06,1.24.24,1.48-.45.17-.48-.19-.87-.3-1.32s.15-1-.12-1.51,0-.8-.16-1.25a4.9,4.9,0,0,1-.05-1.44,2.45,2.45,0,0,0-.16-1.18c-.18-.3-.05-.87-.24-1s-.41.91-.45,1.39-.3.95-.3,1.29-.46.88-.51,1.37a13.91,13.91,0,0,0-.18,1.81c0,1.1-.14.79-.26,1.48C12.45,69.09,12.91,69.49,13.79,69.37Z" transform="translate(0.03 6.66)"/><path class="cls-24" d="M13.46,68.54c-.68,0-.16-2,.12-2.86s-.14-1.12.07-1.58a5.61,5.61,0,0,0,.27-1.79.73.73,0,0,0,0-.29,5.33,5.33,0,0,0-.1.62c0,.48-.3.95-.3,1.29s-.46.88-.51,1.37a13.71,13.71,0,0,0-.18,1.81c0,1.1-.14.79-.26,1.48-.08.49.38.89,1.25.77.45-.06,1.24.24,1.48-.45l0-.06a3,3,0,0,0-.79.14C13.81,69.26,14.14,68.54,13.46,68.54Z" transform="translate(0.03 6.66)"/><path class="cls-25" d="M14.23,61.77a2.47,2.47,0,0,0,.18.82,10.62,10.62,0,0,1,0,1.65c0,.55-.15,1.22.11,1.69s0,1.29.18,1.65.46,1-.11.48-.74-.72-.53-1.39-.22-1.14-.09-2.17a9.16,9.16,0,0,0,.18-2C14.11,61.85,14.19,61.41,14.23,61.77Z" transform="translate(0.03 6.66)"/></g><g class="cls-42"><path class="cls-23" d="M96,81a5.91,5.91,0,0,0,0,1.54.6.6,0,0,0-.32,0,4.81,4.81,0,0,0,.08-1.27C95.7,80.77,96,81,96,81Z" transform="translate(0.03 6.66)"/><path class="cls-23" d="M95.86,81.35c.57-.08,1.59.31,1.89-.58.21-.62-.24-1.12-.39-1.68s.19-1.29-.15-1.93,0-1-.2-1.6A6.28,6.28,0,0,1,97,73.7a3.13,3.13,0,0,0-.2-1.51c-.23-.38-.07-1.11-.31-1.24s-.52,1.17-.58,1.79-.39,1.21-.39,1.66-.59,1.13-.66,1.76a17.82,17.82,0,0,0-.23,2.32c0,1.4-.18,1-.33,1.9C94.15,81,94.74,81.5,95.86,81.35Z" transform="translate(0.03 6.66)"/><path class="cls-24" d="M95.44,80.28c-.87,0-.2-2.53.15-3.66s-.17-1.43.08-2A7.18,7.18,0,0,0,96,72.3a.94.94,0,0,0,0-.37,6.83,6.83,0,0,0-.13.8c-.05.62-.39,1.21-.39,1.66s-.59,1.13-.66,1.76a17.56,17.56,0,0,0-.23,2.32c0,1.4-.18,1-.33,1.89-.11.63.48,1.14,1.61,1,.57-.08,1.58.31,1.89-.58l0-.07a3.85,3.85,0,0,0-1,.18C95.89,81.21,96.32,80.28,95.44,80.28Z" transform="translate(0.03 6.66)"/><path class="cls-25" d="M96.43,71.6a3.17,3.17,0,0,0,.22,1.05,13.6,13.6,0,0,1,0,2.12c.06.71-.2,1.57.14,2.17s0,1.66.23,2.12.59,1.22-.13.62-.94-.93-.67-1.79-.28-1.46-.11-2.78a11.73,11.73,0,0,0,.23-2.58C96.27,71.71,96.38,71.15,96.43,71.6Z" transform="translate(0.03 6.66)"/></g><g class="cls-42"><path class="cls-23" d="M15.37,73.57a5.91,5.91,0,0,0,0,1.54.6.6,0,0,0-.32,0,4.81,4.81,0,0,0,.08-1.27C15,73.31,15.37,73.57,15.37,73.57Z" transform="translate(0.03 6.66)"/><path class="cls-23" d="M15.21,73.89c.57-.08,1.59.31,1.89-.58.21-.62-.24-1.12-.39-1.68s.19-1.29-.15-1.93,0-1-.2-1.6a6.28,6.28,0,0,1-.07-1.85,3.13,3.13,0,0,0-.2-1.51c-.23-.38-.07-1.11-.31-1.24s-.52,1.17-.58,1.79-.39,1.21-.39,1.66-.59,1.13-.66,1.76A17.82,17.82,0,0,0,13.93,71c0,1.4-.18,1-.33,1.9C13.49,73.53,14.08,74,15.21,73.89Z" transform="translate(0.03 6.66)"/><path class="cls-24" d="M14.79,72.82c-.87,0-.2-2.53.15-3.66s-.17-1.43.08-2a7.18,7.18,0,0,0,.35-2.3.94.94,0,0,0,0-.37,6.83,6.83,0,0,0-.13.8c-.05.62-.39,1.21-.39,1.66s-.59,1.13-.66,1.76A17.56,17.56,0,0,0,13.92,71c0,1.4-.18,1-.33,1.89-.11.63.48,1.14,1.61,1,.57-.08,1.58.31,1.89-.58l0-.07a3.85,3.85,0,0,0-1,.18C15.23,73.75,15.66,72.82,14.79,72.82Z" transform="translate(0.03 6.66)"/><path class="cls-25" d="M15.77,64.15A3.17,3.17,0,0,0,16,65.2a13.6,13.6,0,0,1,0,2.12c.06.71-.2,1.57.14,2.17s0,1.66.23,2.12.59,1.22-.13.62-.94-.93-.67-1.79-.28-1.46-.11-2.78a11.73,11.73,0,0,0,.23-2.58C15.61,64.25,15.73,63.7,15.77,64.15Z" transform="translate(0.03 6.66)"/></g><polyline class="cls-31" points="33.3 100.86 33.28 100.32 33.3 99.25 33.31 97.87 33.41 96.28 33.48 94.75 33.63 92.37 33.77 91.25 33.95 90.04 34.16 90.04 54.99 113.41 81.88 97.95 81.84 97.84 81.69 97.4 81.55 96.95 81.16 95.73 80.59 94.09 79.98 92.37 79.63 91.37 78.56 88.71 77.7 86.75"/><polyline class="cls-31" points="35.3 91.51 61.38 91.88 54.99 113.41 33.29 100.89 33.34 100.75 35.59 93.88"/><path class="cls-3" d="M11.85,46.52a14.24,14.24,0,0,1,5,.43c2.89.73,11.08.06,13.56.73s4.62,0,8.77.34,8.43.87,5.25,1.31-8.08.44-9.18.89A32,32,0,0,1,24,52.35c-5.6,0-12.18.24-12.18.24Z" transform="translate(0.03 6.66)"/><path class="cls-45" d="M11.77,40.87a10,10,0,0,1,3.51.3c2,.51,7.74,0,9.47.51s3.22,0,6.13.24,5.89.61,3.67.92-5.64.31-6.41.62a22.36,22.36,0,0,1-7.86,1.49c-3.91,0-8.5.17-8.5.17Z" transform="translate(0.03 6.66)"/><path class="cls-46" d="M11.77,61.44a17.07,17.07,0,0,0,6-.51C21.25,60,31.07,60.86,34,60s5.54,0,10.52-.41,10.1-1,6.3-1.57-9.69-.53-11-1.07a38.37,38.37,0,0,0-13.49-2.55c-6.71,0-14.6-.29-14.6-.29Z" transform="translate(0.03 6.66)"/><path class="cls-3" d="M86.68,31.89c-5.81-.37-12.36-.72-19-.93s-8.56.93-5.28,1.55,5.49.72-1.06,1-20.91.72-15.74,2.38,18.06.93,23.13,1.24,13.63.62,15.42,0,12.86.93,14-.86V32A105.16,105.16,0,0,1,86.68,31.89Z" transform="translate(0.03 6.66)"/><path class="cls-47" d="M83.21,45.32c-7.54.55-16,1.1-24.67,1.41s-11.1-1.41-6.85-2.34,7.13-1.1-1.37-1.57S23.18,41.72,29.9,39.22s23.44-1.41,30-1.88,17.68-.94,20,0,16.68-1.41,18.14,1.3v6.56A117.09,117.09,0,0,0,83.21,45.32Z" transform="translate(0.03 6.66)"/><path class="cls-31" d="M33.6,87.28" transform="translate(0.03 6.66)"/><path class="cls-48" d="M58.69,100.89,58.1,89.3a17.18,17.18,0,0,0-3.69,0l-.54,11.68A21.93,21.93,0,0,0,58.69,100.89Z" transform="translate(0.03 6.66)"/></g></g></svg>