<svg width="100" height="100" viewBox="0 0 100 100" fill="none" xmlns="http://www.w3.org/2000/svg">
<g id="robots-dep1_save 2" clip-path="url(#clip0)">
<g id="bg">
<g id="g10671">
<g id="g4766">
<g id="Group 35">
<g id="g4820">
<g id="Layer_63_8_">
<path id="polygon4797" d="M15.3555 80.0001L15.1993 79.9064L6.69926 75.0001V25.0001L50.0039 0.00012207L93.3007 25.0001V75.0001L50.0039 100L15.3555 80.0001Z" fill="#DF486D"/>
</g>
<g id="Layer_63_7_">
<path id="polygon4800" d="M50.0032 8.4902L85.9482 29.2452V70.7551L50.0032 91.5101L14.0518 70.7551V29.2452L50.0032 8.4902Z" fill="#FF76A4"/>
</g>
<path id="path4803" opacity="0.13" d="M50 8.4884L14.0547 29.2462V70.754L50 91.5118L85.9453 70.754V29.2462L50 8.4884ZM84.6094 69.9259L50.0938 89.8478L15.5781 69.9259V30.0743L50.0938 10.1447L84.6094 30.0743V69.9259Z" fill="#666666"/>
</g>
</g>
</g>
</g>
<g id="dropped">
<g id="g4400">
<path id="path4398" d="M76.7463 36.0487C76.6004 36.0374 76.4498 36.0817 76.3266 36.1848C76.0727 36.3974 76.0343 36.7766 76.2406 37.0349C76.4656 37.345 76.747 37.6593 76.9905 37.9713C77.2836 37.7039 77.6145 37.4406 77.889 37.1721C78.1363 36.9515 78.1629 36.5713 77.9486 36.3197C77.7408 36.0757 77.3851 36.0457 77.1382 36.2457C77.0335 36.1267 76.8922 36.0599 76.7463 36.0487Z" fill="#DF486D" stroke="#DF486D" stroke-width="0.175204" stroke-linejoin="round"/>
</g>
<g id="g4408">
<path id="path4406" d="M28.8177 48.0533C28.6579 48.041 28.4929 48.0895 28.3579 48.2025C28.0796 48.4354 28.0375 48.8509 28.2636 49.134C28.5102 49.4738 28.8186 49.8182 29.0854 50.1601C29.4065 49.8671 29.7691 49.5786 30.0698 49.2843C30.3409 49.0426 30.37 48.626 30.1352 48.3504C29.9074 48.0829 29.5177 48.0501 29.2472 48.2692C29.1324 48.1388 28.9776 48.0657 28.8177 48.0533Z" fill="#DF486D" stroke="#DF486D" stroke-width="0.19198" stroke-linejoin="round"/>
</g>
<g id="g4416">
<path id="path4414" d="M69.7455 32.1139C69.4042 32.0875 69.0521 32.191 68.7639 32.4322C68.1699 32.9295 68.0801 33.8164 68.5628 34.4206C69.089 35.1459 69.7473 35.881 70.3168 36.6108C71.0023 35.9854 71.7762 35.3695 72.4182 34.7414C72.9967 34.2254 73.0589 33.3362 72.5578 32.7479C72.0715 32.177 71.2397 32.1069 70.6622 32.5746C70.4172 32.2963 70.0868 32.1402 69.7455 32.1139Z" fill="#25E899" stroke="#25E899" stroke-width="0.409792" stroke-linejoin="round"/>
</g>
<g id="g4428">
<path id="path4426" d="M32.4075 22.4177C32.2447 22.4052 32.0767 22.4545 31.9392 22.5696C31.6558 22.8069 31.6129 23.23 31.8432 23.5183C32.0942 23.8644 32.4083 24.2151 32.68 24.5632C33.0071 24.2649 33.3763 23.971 33.6826 23.6713C33.9587 23.4252 33.9883 23.0009 33.7492 22.7202C33.5172 22.4478 33.1204 22.4144 32.8448 22.6375C32.728 22.5048 32.5703 22.4303 32.4075 22.4177Z" fill="#DF486D" stroke="#DF486D" stroke-width="0.195515" stroke-linejoin="round"/>
</g>
<g id="g4436">
<path id="path4434" d="M23.764 26.1698C23.5629 26.1542 23.3554 26.2152 23.1856 26.3574C22.8355 26.6504 22.7826 27.173 23.067 27.5291C23.3771 27.9565 23.765 28.3897 24.1007 28.8197C24.5046 28.4512 24.9607 28.0883 25.339 27.7181C25.6799 27.4141 25.7165 26.8901 25.4212 26.5434C25.1347 26.2069 24.6445 26.1657 24.3042 26.4413C24.1598 26.2773 23.9651 26.1853 23.764 26.1698Z" fill="#9184DF" stroke="#9184DF" stroke-width="0.241486" stroke-linejoin="round"/>
</g>
<g id="g4440">
<path id="path4438" d="M25.5696 35.1024C25.2627 35.0787 24.9461 35.1717 24.6869 35.3887C24.1528 35.8358 24.072 36.6333 24.506 37.1767C24.9792 37.8289 25.5712 38.4898 26.0833 39.1461C26.6997 38.5837 27.3956 38.0299 27.9729 37.4651C28.4931 37.0011 28.549 36.2015 28.0984 35.6725C27.6611 35.1591 26.9132 35.0961 26.3938 35.5167C26.1736 35.2665 25.8765 35.1261 25.5696 35.1024Z" fill="#DF486D" stroke="#DF486D" stroke-width="0.36849" stroke-linejoin="round"/>
</g>
<g id="g4448">
<path id="path4446" d="M43.8886 15.5288C43.6555 15.5108 43.415 15.5815 43.2182 15.7462C42.8126 16.0858 42.7513 16.6914 43.0809 17.1041C43.4402 17.5994 43.8897 18.1014 44.2787 18.5997C44.7468 18.1727 45.2753 17.7521 45.7137 17.3231C46.1088 16.9708 46.1512 16.3635 45.809 15.9618C45.477 15.5719 44.9089 15.524 44.5145 15.8434C44.3473 15.6534 44.1216 15.5468 43.8886 15.5288Z" fill="#DF486D" stroke="#DF486D" stroke-width="0.279845" stroke-linejoin="round"/>
</g>
<g id="g4456">
<path id="path4454" d="M80.9271 29.0605C80.7458 29.0465 80.5588 29.1014 80.4057 29.2296C80.0903 29.4936 80.0426 29.9647 80.2989 30.2856C80.5784 30.6708 80.928 31.0612 81.2305 31.4488C81.5945 31.1167 82.0055 30.7896 82.3465 30.456C82.6538 30.1819 82.6868 29.7097 82.4207 29.3972C82.1624 29.094 81.7206 29.0568 81.4139 29.3052C81.2838 29.1574 81.1083 29.0745 80.9271 29.0605Z" fill="#DF486D" stroke="#DF486D" stroke-width="0.217643" stroke-linejoin="round"/>
</g>
<g id="g4468">
<path id="path4466" d="M76.2586 49.0821C76.0125 49.0631 75.7586 49.1377 75.5508 49.3117C75.1225 49.6702 75.0578 50.3097 75.4058 50.7454C75.7852 51.2683 76.2598 51.7983 76.6705 52.3245C77.1647 51.8736 77.7227 51.4295 78.1856 50.9766C78.6028 50.6046 78.6476 49.9634 78.2863 49.5392C77.9357 49.1276 77.3359 49.0771 76.9195 49.4143C76.7429 49.2137 76.5046 49.1011 76.2586 49.0821Z" fill="#9184DF" stroke="#9184DF" stroke-width="0.295472" stroke-linejoin="round"/>
</g>
<g id="g4472">
<path id="path4470" d="M75.8678 60.1218C75.5026 60.0937 75.1258 60.2044 74.8174 60.4625C74.1818 60.9946 74.0857 61.9436 74.6022 62.5902C75.1653 63.3663 75.8697 64.1529 76.4791 64.9338C77.2126 64.2646 78.0407 63.6055 78.7277 62.9334C79.3467 62.3813 79.4133 61.4298 78.8771 60.8003C78.3567 60.1894 77.4667 60.1144 76.8487 60.6148C76.5866 60.3171 76.233 60.15 75.8678 60.1218Z" fill="#DF486D" stroke="#DF486D" stroke-width="0.4385" stroke-linejoin="round"/>
</g>
<g id="g4480">
<path id="path4478" d="M71.5564 70.1015C71.2521 70.078 70.9381 70.1703 70.6811 70.3854C70.1515 70.8287 70.0714 71.6195 70.5018 72.1583C70.971 72.805 71.5579 73.4604 72.0657 74.1112C72.6769 73.5535 73.367 73.0044 73.9394 72.4443C74.4552 71.9843 74.5107 71.1914 74.0639 70.6668C73.6303 70.1578 72.8886 70.0953 72.3737 70.5123C72.1553 70.2642 71.8607 70.125 71.5564 70.1015Z" fill="#DF486D" stroke="#DF486D" stroke-width="0.365386" stroke-linejoin="round"/>
</g>
<g id="g4480_2">
<path id="path4478_2" d="M51.5564 82.1015C51.2521 82.078 50.9381 82.1703 50.6811 82.3854C50.1515 82.8287 50.0714 83.6195 50.5018 84.1583C50.971 84.805 51.5579 85.4604 52.0657 86.1112C52.6769 85.5535 53.367 85.0044 53.9394 84.4443C54.4552 83.9843 54.5107 83.1914 54.0639 82.6668C53.6303 82.1578 52.8886 82.0953 52.3737 82.5123C52.1553 82.2642 51.8607 82.125 51.5564 82.1015Z" fill="#DF486D" stroke="#DF486D" stroke-width="0.365386" stroke-linejoin="round"/>
</g>
<g id="g4488">
<path id="path4486" d="M18.8623 67.0563C18.6937 67.0432 18.5198 67.0944 18.3774 67.2135C18.0839 67.4592 18.0396 67.8973 18.278 68.1959C18.538 68.5542 18.8632 68.9173 19.1445 69.2778C19.4832 68.9689 19.8655 68.6646 20.1827 68.3543C20.4685 68.0994 20.4992 67.6601 20.2516 67.3695C20.0114 67.0874 19.6005 67.0528 19.3152 67.2839C19.1942 67.1464 19.0309 67.0693 18.8623 67.0563Z" fill="#DF486D" stroke="#DF486D" stroke-width="0.202447" stroke-linejoin="round"/>
</g>
<g id="g4492">
<path id="path4490" d="M33.6581 76.3165C33.4122 76.2976 33.1585 76.3721 32.9509 76.5459C32.5229 76.9042 32.4582 77.5432 32.8059 77.9786C33.1851 78.5012 33.6593 79.0308 34.0697 79.5566C34.5636 79.106 35.1212 78.6622 35.5838 78.2097C36.0006 77.8379 36.0454 77.1972 35.6843 76.7733C35.334 76.362 34.7347 76.3115 34.3185 76.6485C34.1421 76.448 33.904 76.3355 33.6581 76.3165Z" fill="#25E899" stroke="#25E899" stroke-width="0.295256" stroke-linejoin="round"/>
</g>
<g id="g4496">
<path id="path4494" d="M26.9529 74.0622C26.7666 74.0478 26.5744 74.1043 26.417 74.236C26.0928 74.5074 26.0437 74.9916 26.3072 75.3214C26.5945 75.7174 26.9538 76.1186 27.2647 76.517C27.6389 76.1756 28.0614 75.8394 28.4119 75.4965C28.7277 75.2148 28.7616 74.7294 28.4881 74.4083C28.2226 74.0966 27.7686 74.0584 27.4533 74.3137C27.3196 74.1618 27.1392 74.0765 26.9529 74.0622Z" fill="#DF486D" stroke="#DF486D" stroke-width="0.223705" stroke-linejoin="round"/>
</g>
<g id="g4500">
<path id="path4498" d="M24.5752 63.4125C24.3893 63.3982 24.1974 63.4545 24.0404 63.586C23.7167 63.8569 23.6678 64.3402 23.9308 64.6694C24.2175 65.0646 24.5762 65.4651 24.8865 65.8628C25.26 65.522 25.6817 65.1864 26.0315 64.8442C26.3467 64.563 26.3806 64.0785 26.1076 63.758C25.8426 63.4469 25.3894 63.4087 25.0747 63.6635C24.9412 63.5119 24.7612 63.4269 24.5752 63.4125Z" fill="#DF486D" stroke="#DF486D" stroke-width="0.223287" stroke-linejoin="round"/>
</g>
<g id="g4504">
<path id="path4502" d="M32.1572 38.0755C31.9309 38.058 31.6975 38.1266 31.5064 38.2865C31.1127 38.6162 31.0531 39.2041 31.3731 39.6047C31.7219 40.0856 32.1583 40.5729 32.5359 41.0567C32.9903 40.6421 33.5034 40.2338 33.929 39.8174C34.3125 39.4753 34.3537 38.8858 34.0215 38.4958C33.6992 38.1173 33.1477 38.0709 32.7648 38.3809C32.6025 38.1965 32.3834 38.0929 32.1572 38.0755Z" fill="#DF486D" stroke="#DF486D" stroke-width="0.271667" stroke-linejoin="round"/>
</g>
<g id="g4512">
<path id="path4510" d="M25.7345 55.0479C25.5909 55.0368 25.4427 55.0804 25.3215 55.1819C25.0715 55.3911 25.0337 55.7643 25.2368 56.0186C25.4582 56.3238 25.7352 56.6331 25.9749 56.9402C26.2633 56.677 26.589 56.4179 26.8591 56.1536C27.1026 55.9364 27.1287 55.5623 26.9179 55.3147C26.7133 55.0745 26.3632 55.045 26.1202 55.2418C26.0172 55.1247 25.8781 55.059 25.7345 55.0479Z" fill="#DF486D" stroke="#DF486D" stroke-width="0.172439" stroke-linejoin="round"/>
</g>
<g id="g4516">
<path id="path4514" d="M26.6018 69.1079C26.4592 69.0969 26.312 69.1401 26.1915 69.241C25.9433 69.4488 25.9057 69.8195 26.1075 70.072C26.3274 70.3752 26.6025 70.6824 26.8406 70.9874C27.1271 70.726 27.4505 70.4686 27.7189 70.2061C27.9607 69.9904 27.9867 69.6188 27.7772 69.3729C27.574 69.1343 27.2263 69.105 26.9849 69.3005C26.8826 69.1842 26.7445 69.1189 26.6018 69.1079Z" fill="#9184DF" stroke="#9184DF" stroke-width="0.171277" stroke-linejoin="round"/>
</g>
<g id="g4520">
<path id="path4518" d="M42.1269 82.5828C41.9486 82.5691 41.7646 82.6231 41.614 82.7492C41.3036 83.009 41.2567 83.4724 41.5089 83.7881C41.7838 84.1671 42.1278 84.5512 42.4254 84.9325C42.7835 84.6057 43.1879 84.2839 43.5234 83.9557C43.8256 83.6861 43.8581 83.2215 43.5963 82.9141C43.3422 82.6158 42.9076 82.5792 42.6058 82.8235C42.4779 82.6782 42.3052 82.5966 42.1269 82.5828Z" fill="#DF486D" stroke="#DF486D" stroke-width="0.214117" stroke-linejoin="round"/>
</g>
<g id="g4524">
<path id="path4522" d="M78.3127 42.0856C78.056 42.0658 77.7912 42.1436 77.5745 42.325C77.1278 42.699 77.0602 43.366 77.4232 43.8204C77.8189 44.3658 78.314 44.9186 78.7423 45.4674C79.2578 44.9971 79.8398 44.5339 80.3226 44.0616C80.7576 43.6736 80.8044 43.0049 80.4275 42.5624C80.0619 42.1331 79.4363 42.0804 79.002 42.4321C78.8178 42.2229 78.5693 42.1054 78.3127 42.0856Z" fill="#DF486D" stroke="#DF486D" stroke-width="0.308173" stroke-linejoin="round"/>
</g>
<g id="g4528">
<path id="path4526" d="M66.9345 77.061C66.7518 77.0469 66.5633 77.1023 66.409 77.2314C66.091 77.4976 66.0429 77.9725 66.3013 78.296C66.583 78.6843 66.9355 79.0779 67.2404 79.4686C67.6074 79.1338 68.0217 78.804 68.3655 78.4677C68.6752 78.1915 68.7085 77.7154 68.4402 77.4004C68.1799 77.0947 67.7345 77.0572 67.4253 77.3076C67.2942 77.1587 67.1173 77.0751 66.9345 77.061Z" fill="#25E899" stroke="#25E899" stroke-width="0.219399" stroke-linejoin="round"/>
</g>
<g id="g4536">
<path id="path4534" d="M19.9 46.1239C19.5285 46.0953 19.1452 46.2079 18.8315 46.4705C18.185 47.0117 18.0872 47.9771 18.6126 48.6349C19.1853 49.4244 19.9019 50.2245 20.5218 51.0189C21.268 50.3381 22.1104 49.6677 22.8092 48.984C23.4389 48.4224 23.5066 47.4545 22.9611 46.814C22.4319 46.1926 21.5264 46.1164 20.8978 46.6254C20.6312 46.3226 20.2715 46.1526 19.9 46.1239Z" fill="#25E899" stroke="#25E899" stroke-width="0.44606" stroke-linejoin="round"/>
</g>
<g id="g4540">
<path id="path4538" d="M17.1552 56.0754C16.9293 56.0579 16.6963 56.1264 16.5056 56.286C16.1125 56.6151 16.053 57.2021 16.3724 57.602C16.7207 58.082 17.1563 58.5684 17.5332 59.0514C17.9869 58.6375 18.4991 58.2299 18.9239 57.8142C19.3068 57.4728 19.3479 56.8843 19.0163 56.4949C18.6945 56.1171 18.144 56.0707 17.7618 56.3803C17.5997 56.1961 17.381 56.0928 17.1552 56.0754Z" fill="#DF486D" stroke="#DF486D" stroke-width="0.271198" stroke-linejoin="round"/>
</g>
<g id="g4544">
<path id="path4542" d="M76.925 27.0603C76.7441 27.0464 76.5575 27.1012 76.4048 27.229C76.09 27.4925 76.0424 27.9625 76.2982 28.2827C76.5771 28.6671 76.9259 29.0566 77.2277 29.4433C77.591 29.1119 78.001 28.7856 78.3413 28.4527C78.6478 28.1793 78.6808 27.7081 78.4152 27.3963C78.1576 27.0938 77.7168 27.0566 77.4107 27.3045C77.2809 27.157 77.1058 27.0743 76.925 27.0603Z" fill="#DF486D" stroke="#DF486D" stroke-width="0.217155" stroke-linejoin="round"/>
</g>
<g id="g4548">
<path id="path4546" d="M82.3012 33.1083C82.1317 33.0952 81.9567 33.1466 81.8135 33.2665C81.5184 33.5135 81.4738 33.9542 81.7136 34.2544C81.975 34.6147 82.3021 34.9799 82.585 35.3425C82.9256 35.0318 83.3101 34.7258 83.6291 34.4138C83.9165 34.1574 83.9474 33.7156 83.6984 33.4233C83.4568 33.1397 83.0436 33.1049 82.7566 33.3372C82.6349 33.199 82.4708 33.1214 82.3012 33.1083Z" fill="#DF486D" stroke="#DF486D" stroke-width="0.203596" stroke-linejoin="round"/>
</g>
<g id="g4564">
<path id="path4562" d="M82.9895 56.4018C82.8429 56.3905 82.6916 56.4349 82.5678 56.5386C82.3127 56.7522 82.2741 57.1331 82.4814 57.3927C82.7075 57.7042 82.9902 58.02 83.2349 58.3334C83.5293 58.0648 83.8617 57.8003 84.1375 57.5305C84.386 57.3088 84.4127 56.9269 84.1975 56.6741C83.9886 56.4289 83.6313 56.3988 83.3832 56.5997C83.278 56.4802 83.1361 56.4131 82.9895 56.4018Z" fill="#DF486D" stroke="#DF486D" stroke-width="0.176024" stroke-linejoin="round"/>
</g>
<g id="g4568">
<path id="path4566" d="M80.9465 67.5323C80.7515 67.5173 80.5504 67.5764 80.3858 67.7142C80.0464 67.9982 79.9951 68.5049 80.2708 68.8501C80.5714 69.2644 80.9475 69.6843 81.2728 70.1012C81.6644 69.7439 82.1065 69.3921 82.4732 69.0333C82.8037 68.7385 82.8392 68.2306 82.553 67.8945C82.2752 67.5684 81.8 67.5283 81.4701 67.7955C81.3302 67.6366 81.1414 67.5474 80.9465 67.5323Z" fill="#DF486D" stroke="#DF486D" stroke-width="0.234093" stroke-linejoin="round"/>
</g>
<g id="g4580">
<path id="path4578" d="M37.8866 18.0578C37.7133 18.0445 37.5344 18.097 37.388 18.2195C37.0863 18.4721 37.0407 18.9226 37.2859 19.2295C37.5531 19.5979 37.8875 19.9713 38.1768 20.342C38.525 20.0243 38.9181 19.7115 39.2442 19.3925C39.538 19.1304 39.5696 18.6787 39.3151 18.3799C39.0681 18.0899 38.6456 18.0543 38.3522 18.2919C38.2278 18.1505 38.06 18.0712 37.8866 18.0578Z" fill="#DF486D" stroke="#DF486D" stroke-width="0.208148" stroke-linejoin="round"/>
</g>
<g id="g4584">
<path id="path4582" d="M20.3384 61.0873C20.0767 61.0671 19.8067 61.1464 19.5857 61.3314C19.1303 61.7127 19.0614 62.3927 19.4315 62.856C19.835 63.4121 20.3397 63.9757 20.7764 64.5353C21.302 64.0558 21.8954 63.5836 22.3876 63.102C22.8312 62.7063 22.8789 62.0245 22.4946 61.5734C22.1218 61.1357 21.484 61.082 21.0412 61.4406C20.8534 61.2272 20.6 61.1075 20.3384 61.0873Z" fill="#DF486D" stroke="#DF486D" stroke-width="0.314206" stroke-linejoin="round"/>
</g>
<g id="g4592">
<path id="path4590" d="M20.7133 36.0465C20.5739 36.0358 20.43 36.0781 20.3122 36.1766C20.0694 36.3798 20.0327 36.7423 20.23 36.9893C20.445 37.2857 20.7141 37.5861 20.9468 37.8843C21.2269 37.6287 21.5432 37.377 21.8056 37.1203C22.042 36.9095 22.0674 36.5461 21.8626 36.3056C21.6639 36.0723 21.324 36.0437 21.088 36.2348C20.9878 36.1211 20.8528 36.0573 20.7133 36.0465Z" fill="#DF486D" stroke="#DF486D" stroke-width="0.167471" stroke-linejoin="round"/>
</g>
<g id="g4596">
<path id="path4594" d="M54.28 15.4123C54.0469 15.3943 53.8063 15.4649 53.6095 15.6297C53.2037 15.9694 53.1423 16.5753 53.4721 16.9881C53.8315 17.4835 54.2812 17.9857 54.6703 18.4842C55.1385 18.057 55.6672 17.6362 56.1058 17.2072C56.5009 16.8547 56.5434 16.2473 56.2011 15.8453C55.8689 15.4554 55.3007 15.4075 54.9062 15.727C54.7389 15.5369 54.5131 15.4302 54.28 15.4123Z" fill="#DF486D" stroke="#DF486D" stroke-width="0.279936" stroke-linejoin="round"/>
</g>
<g id="g4608">
<path id="path4606" d="M67.2639 21.0824C67.0168 21.0634 66.7618 21.1383 66.5532 21.313C66.123 21.673 66.058 22.3152 66.4075 22.7528C66.7885 23.278 67.2652 23.8102 67.6776 24.3387C68.1739 23.8858 68.7343 23.4398 69.1992 22.985C69.6181 22.6114 69.6631 21.9675 69.3003 21.5415C68.9482 21.1281 68.3458 21.0774 67.9277 21.4161C67.7503 21.2146 67.511 21.1015 67.2639 21.0824Z" fill="#DF486D" stroke="#DF486D" stroke-width="0.296729" stroke-linejoin="round"/>
</g>
</g>
</g>
<g id="Gitcoin_Brand.ai 1">
<g id="g10">
<g id="g30">
<g id="g32">
<g id="g150">
<path id="path152" d="M34 51.7143V46.5714" stroke="#5767F9" stroke-opacity="0.3" stroke-width="3" stroke-miterlimit="10" stroke-linecap="round"/>
<path id="path152 (Stroke)" fill-rule="evenodd" clip-rule="evenodd" d="M34 52.1429C34.2367 52.1429 34.4286 51.9765 34.4286 51.7713V46.5145C34.4286 46.3092 34.2367 46.1429 34 46.1429C33.7633 46.1429 33.5714 46.3092 33.5714 46.5145V51.7713C33.5714 51.9765 33.7633 52.1429 34 52.1429Z" stroke="#5767F9" stroke-opacity="0.3" stroke-width="3" stroke-miterlimit="10" stroke-linecap="round"/>
</g>
<g id="g154">
<path id="path156" d="M34 64.5714V60.2857" stroke="#5767F9" stroke-opacity="0.3" stroke-width="3" stroke-miterlimit="10" stroke-linecap="round"/>
<path id="path156 (Stroke)" fill-rule="evenodd" clip-rule="evenodd" d="M34 65C34.2367 65 34.4286 64.8436 34.4286 64.6506V60.2066C34.4286 60.0136 34.2367 59.8571 34 59.8571C33.7633 59.8571 33.5714 60.0136 33.5714 60.2066V64.6506C33.5714 64.8436 33.7633 65 34 65Z" stroke="#5767F9" stroke-opacity="0.3" stroke-width="3" stroke-miterlimit="10" stroke-linecap="round"/>
</g>
<g id="g158">
<path id="path160" d="M41.7143 47.4286H58.4286" stroke="#5767F9" stroke-opacity="0.3" stroke-width="3" stroke-miterlimit="10" stroke-linejoin="round"/>
<path id="path160 (Stroke)" fill-rule="evenodd" clip-rule="evenodd" d="M58.4286 47H41.7143V47.8571H58.4286V47Z" stroke="#5767F9" stroke-opacity="0.3" stroke-width="3" stroke-miterlimit="10" stroke-linejoin="round"/>
</g>
<g id="g162">
<path id="path164" d="M45.1498 50.9675L45.1498 50.9675L45.1541 50.9679L50.3336 51.4943L55.224 51.1287L56.3157 50.3395L56.7899 48.9286H43.3245L43.3621 49.4589L44.379 50.8914L45.1498 50.9675Z" stroke="#5767F9" stroke-opacity="0.3" stroke-width="3"/>
</g>
<g id="g166">
<path id="path168 (Stroke)" fill-rule="evenodd" clip-rule="evenodd" d="M41.2857 48.8492C41.2857 51.1416 43.192 53 45.5437 53H54.5991C56.9507 53 58.8571 51.1416 58.8571 48.8492V43.4991C58.8571 43.3024 58.6935 43.1429 58.4917 43.1429H41.6512C41.4494 43.1429 41.2857 43.3024 41.2857 43.4991V48.8492ZM45.5437 52.2874C43.5957 52.2874 42.0167 50.7481 42.0167 48.8492V43.8554H58.1262V48.8492C58.1262 50.7481 56.547 52.2874 54.5991 52.2874H45.5437Z" stroke="#5767F9" stroke-opacity="0.3" stroke-width="3" stroke-miterlimit="10" stroke-linejoin="round"/>
</g>
<g id="g170">
<path id="path172" d="M50.0714 47.8571C50.0714 47.7389 49.9755 47.6429 49.8571 47.6429C49.7389 47.6429 49.6429 47.7389 49.6429 47.8571C49.6429 47.9755 49.7389 48.0714 49.8571 48.0714C49.9756 48.0714 50.0714 47.9755 50.0714 47.8571Z" stroke="#5767F9" stroke-opacity="0.3" stroke-width="3"/>
</g>
<g id="g174">
<path id="path176 (Stroke)" fill-rule="evenodd" clip-rule="evenodd" d="M50.0714 49.2556C49.3765 49.2556 48.8129 48.6295 48.8129 47.8571C48.8129 47.0849 49.3765 46.4587 50.0714 46.4587C50.7665 46.4587 51.33 47.0849 51.33 47.8571C51.33 48.6295 50.7665 49.2556 50.0714 49.2556ZM48.1429 47.8571C48.1429 49.0407 49.0064 50 50.0714 50C51.1366 50 52 49.0407 52 47.8571C52 46.6738 51.1366 45.7143 50.0714 45.7143C49.0064 45.7143 48.1429 46.6738 48.1429 47.8571Z" stroke="#5767F9" stroke-opacity="0.3" stroke-width="3" stroke-miterlimit="10" stroke-linejoin="round"/>
</g>
<g id="g178">
<path id="path180" d="M41.9286 51.7143C41.9286 52.0693 42.2164 52.3571 42.5714 52.3571C42.9264 52.3571 43.2143 52.0694 43.2143 51.7143C43.2143 51.3591 42.9264 51.0714 42.5714 51.0714C42.2164 51.0714 41.9286 51.3593 41.9286 51.7143Z" stroke="#5767F9" stroke-opacity="0.3" stroke-width="3"/>
</g>
<g id="g182">
<path id="path184" d="M56.9286 51.7143C56.9286 52.0693 57.2164 52.3571 57.5714 52.3571C57.9264 52.3571 58.2143 52.0694 58.2143 51.7143C58.2143 51.3591 57.9264 51.0714 57.5714 51.0714C57.2164 51.0714 56.9286 51.3593 56.9286 51.7143Z" stroke="#5767F9" stroke-opacity="0.3" stroke-width="3"/>
</g>
<g id="g186">
<g id="path188">
<mask id="path-49-inside-1" fill="white">
<path d="M51.5714 53.4286C51.5714 52.7185 50.9 52.1429 50.0714 52.1429C49.2431 52.1429 48.5714 52.7185 48.5714 53.4286C48.5714 54.1387 49.2431 54.7143 50.0714 54.7143C50.9 54.7143 51.5714 54.1387 51.5714 53.4286Z"/>
</mask>
<path d="M48.5714 53.4286C48.5714 54.0659 48.8802 54.5404 49.1797 54.7972C49.4729 55.0485 49.7976 55.1429 50.0714 55.1429V49.1429C52.1065 49.1429 54.5714 50.6446 54.5714 53.4286H48.5714ZM50.0714 55.1429C50.3454 55.1429 50.67 55.0485 50.9632 54.7972C51.2626 54.5406 51.5714 54.0661 51.5714 53.4286H45.5714C45.5714 50.6445 48.0367 49.1429 50.0714 49.1429V55.1429ZM51.5714 53.4286C51.5714 52.7912 51.2626 52.3167 50.9631 52.0599C50.6699 51.8086 50.3453 51.7143 50.0714 51.7143V57.7143C48.0369 57.7143 45.5714 56.2129 45.5714 53.4286H51.5714ZM50.0714 51.7143C49.7977 51.7143 49.4731 51.8086 49.1798 52.06C48.8801 52.3168 48.5714 52.7914 48.5714 53.4286H54.5714C54.5714 56.2128 52.1063 57.7143 50.0714 57.7143V51.7143Z" fill="#5767F9" fill-opacity="0.3" mask="url(#path-49-inside-1)"/>
</g>
</g>
<g id="g190">
<path id="path192" d="M57.5714 51.2857C57.5714 51.049 57.2836 50.8571 56.9285 50.8571C56.5734 50.8571 56.2857 51.049 56.2857 51.2857C56.2857 51.5225 56.5734 51.7143 56.9285 51.7143C57.2836 51.7143 57.5714 51.5225 57.5714 51.2857Z" stroke="#5767F9" stroke-opacity="0.3" stroke-width="3"/>
</g>
<g id="g194">
<path id="path196" d="M43.8572 51.2857C43.8572 51.049 43.5692 50.8571 43.2143 50.8571C42.8593 50.8571 42.5714 51.049 42.5714 51.2857C42.5714 51.5225 42.8593 51.7143 43.2143 51.7143C43.5692 51.7143 43.8572 51.5225 43.8572 51.2857Z" stroke="#5767F9" stroke-opacity="0.3" stroke-width="3"/>
</g>
<g id="g198">
<path id="path200 (Stroke)" fill-rule="evenodd" clip-rule="evenodd" d="M40.8571 63.7819C40.8571 63.9813 41.0169 64.1429 41.214 64.1429H42.5714C43.5181 64.1429 44.2857 63.3666 44.2857 62.4088V55.5912C44.2857 54.6334 43.5181 53.8571 42.5714 53.8571C41.6246 53.8571 40.8571 54.6334 40.8571 55.5912V63.7819ZM41.5708 63.421V55.5912C41.5708 55.0321 42.0188 54.579 42.5714 54.579C43.124 54.579 43.5721 55.0321 43.5721 55.5912V62.4088C43.5721 62.9679 43.124 63.421 42.5714 63.421H41.5708Z" stroke="#5767F9" stroke-opacity="0.3" stroke-width="3" stroke-miterlimit="10" stroke-linejoin="round"/>
</g>
<g id="g202">
<path id="path204 (Stroke)" fill-rule="evenodd" clip-rule="evenodd" d="M45.3572 65C45.4755 65 45.5714 64.8385 45.5714 64.6392V55.5037C45.5714 55.3044 45.4755 55.1429 45.3572 55.1429C45.2388 55.1429 45.1429 55.3044 45.1429 55.5037V64.6392C45.1429 64.8385 45.2388 65 45.3572 65Z" stroke="#5767F9" stroke-opacity="0.3" stroke-width="3" stroke-miterlimit="10" stroke-linecap="round" stroke-linejoin="round"/>
</g>
<g id="g206">
<path id="path208 (Stroke)" fill-rule="evenodd" clip-rule="evenodd" d="M40.8571 68C40.8571 68.71 41.3869 69.2857 42.0404 69.2857H44.388C45.0415 69.2857 45.5714 68.71 45.5714 68C45.5714 67.29 45.0415 66.7143 44.388 66.7143H42.0404C41.3869 66.7143 40.8571 67.29 40.8571 68ZM42.0404 68.5601C41.7559 68.5601 41.5251 68.3093 41.5251 68C41.5251 67.6907 41.7559 67.4399 42.0404 67.4399H44.388C44.6727 67.4399 44.9035 67.6907 44.9035 68C44.9035 68.3093 44.6727 68.5601 44.388 68.5601H42.0404Z" stroke="#5767F9" stroke-opacity="0.3" stroke-width="3" stroke-miterlimit="10" stroke-linecap="round" stroke-linejoin="round"/>
</g>
<g id="g210">
<path id="path212 (Stroke)" fill-rule="evenodd" clip-rule="evenodd" d="M38.7143 74.4286C38.7143 75.3754 39.4193 76.1429 40.2891 76.1429H46.5681C47.4378 76.1429 48.1429 75.3754 48.1429 74.4286C48.1429 73.4819 47.4379 72.7143 46.5681 72.7143H40.2891C39.4193 72.7143 38.7143 73.4819 38.7143 74.4286ZM40.2891 75.3645C39.8142 75.3645 39.4293 74.9455 39.4293 74.4286C39.4293 73.9118 39.8142 73.4927 40.2891 73.4927H46.5681C47.043 73.4927 47.4279 73.9118 47.4279 74.4286C47.4279 74.9455 47.043 75.3645 46.5681 75.3645H40.2891Z" stroke="#5767F9" stroke-opacity="0.3" stroke-width="3" stroke-miterlimit="10" stroke-linecap="round" stroke-linejoin="round"/>
</g>
<path id="path214 (Stroke)" fill-rule="evenodd" clip-rule="evenodd" d="M41.7143 73.2101C41.7143 73.4096 41.8677 73.5714 42.0569 73.5714H44.3717C44.5609 73.5714 44.7143 73.4096 44.7143 73.2101V69.2185C44.7143 69.0189 44.5609 68.8571 44.3717 68.8571H42.0569C41.8677 68.8571 41.7143 69.0189 41.7143 69.2185V73.2101ZM42.3995 72.8487V69.5799H44.0291V72.8487H42.3995Z" stroke="#5767F9" stroke-opacity="0.3" stroke-width="3" stroke-miterlimit="10" stroke-linecap="round" stroke-linejoin="round"/>
<g id="g216">
<path id="path218 (Stroke)" fill-rule="evenodd" clip-rule="evenodd" d="M40.8571 65.8571C40.8571 66.0938 41.0067 66.2857 41.1911 66.2857H45.2375C45.4219 66.2857 45.5714 66.0938 45.5714 65.8571C45.5714 65.6204 45.4219 65.4286 45.2375 65.4286H41.1911C41.0067 65.4286 40.8571 65.6204 40.8571 65.8571Z" stroke="#5767F9" stroke-opacity="0.3" stroke-width="3" stroke-miterlimit="10" stroke-linecap="round" stroke-linejoin="round"/>
</g>
<path id="path220" d="M42.5714 76.5714H40.4286V75.7143H42.5714V76.5714Z" stroke="#5767F9" stroke-opacity="0.3" stroke-width="3" stroke-miterlimit="10" stroke-linejoin="round"/>
<path id="path220 (Stroke)" fill-rule="evenodd" clip-rule="evenodd" d="M40 76.6099C40 76.8253 40.1576 77 40.3521 77H42.6479C42.8424 77 43 76.8253 43 76.6099V75.6759C43 75.4604 42.8424 75.2857 42.6479 75.2857H40.3521C40.1576 75.2857 40 75.4604 40 75.6759V76.6099ZM40.7042 76.2197V76.066H42.2958V76.2197H40.7042Z" stroke="#5767F9" stroke-opacity="0.3" stroke-width="3" stroke-miterlimit="10" stroke-linejoin="round"/>
<path id="path222" d="M46.4286 76.5714H43.8571V75.7143H46.4286V76.5714Z" stroke="#5767F9" stroke-opacity="0.3" stroke-width="3" stroke-miterlimit="10" stroke-linejoin="round"/>
<path id="path222 (Stroke)" fill-rule="evenodd" clip-rule="evenodd" d="M43.4286 76.6099C43.4286 76.8253 43.5862 77 43.7807 77H46.0765C46.2709 77 46.4286 76.8253 46.4286 76.6099V75.6759C46.4286 75.4604 46.2709 75.2857 46.0765 75.2857H43.7807C43.5862 75.2857 43.4286 75.4604 43.4286 75.6759V76.6099ZM44.1327 76.2197V76.066H45.7244V76.2197H44.1327Z" stroke="#5767F9" stroke-opacity="0.3" stroke-width="3" stroke-miterlimit="10" stroke-linejoin="round"/>
<g id="g224">
<path id="path226" d="M40.8571 60.7143H43.8571" stroke="#5767F9" stroke-opacity="0.3" stroke-width="3" stroke-miterlimit="10" stroke-linejoin="round"/>
<path id="path226 (Stroke)" fill-rule="evenodd" clip-rule="evenodd" d="M43.8571 60.2857H40.8571V61.1429H43.8571V60.2857Z" stroke="#5767F9" stroke-opacity="0.3" stroke-width="3" stroke-miterlimit="10" stroke-linejoin="round"/>
</g>
<g id="g228">
<path id="path230" d="M40.8571 57.2857H43.8571" stroke="#5767F9" stroke-opacity="0.3" stroke-width="3" stroke-miterlimit="10" stroke-linejoin="round"/>
<path id="path230 (Stroke)" fill-rule="evenodd" clip-rule="evenodd" d="M43.8571 56.8571H40.8571V57.7143H43.8571V56.8571Z" stroke="#5767F9" stroke-opacity="0.3" stroke-width="3" stroke-miterlimit="10" stroke-linejoin="round"/>
</g>
<g id="g232">
<path id="path234 (Stroke)" fill-rule="evenodd" clip-rule="evenodd" d="M43.0001 65.5059C42.6591 65.5059 42.3827 65.1835 42.3827 64.7856C42.3827 64.388 42.659 64.0655 43.0001 64.0655C43.341 64.0655 43.6173 64.3879 43.6173 64.7856C43.6173 65.1835 43.3409 65.5059 43.0001 65.5059ZM41.7143 64.7856C41.7143 65.6142 42.2899 66.2857 43.0001 66.2857C43.7101 66.2857 44.2857 65.6141 44.2857 64.7856C44.2857 63.9573 43.7101 63.2857 43.0001 63.2857C42.2899 63.2857 41.7143 63.9572 41.7143 64.7856Z" stroke="#5767F9" stroke-opacity="0.3" stroke-width="3" stroke-miterlimit="10" stroke-linecap="round" stroke-linejoin="round"/>
</g>
<g id="g236">
<path id="path238 (Stroke)" fill-rule="evenodd" clip-rule="evenodd" d="M43.2143 67.5714C43.3326 67.5714 43.4286 67.399 43.4286 67.1862V65.8138C43.4286 65.601 43.3326 65.4286 43.2143 65.4286C43.0959 65.4286 43 65.601 43 65.8138V67.1862C43 67.399 43.0959 67.5714 43.2143 67.5714Z" stroke="#5767F9" stroke-opacity="0.3" stroke-width="3" stroke-miterlimit="10" stroke-linecap="round" stroke-linejoin="round"/>
</g>
<g id="g240">
<path id="path242 (Stroke)" fill-rule="evenodd" clip-rule="evenodd" d="M45.0429 54.6213C45.1762 54.4973 45.1762 54.2963 45.0429 54.1724L43.8823 53.093C43.8183 53.0334 43.7315 53 43.6409 53H42.0556C41.8671 53 41.7143 53.1421 41.7143 53.3174C41.7143 53.4928 41.8671 53.6349 42.0556 53.6349H43.4996L44.5602 54.6213C44.6935 54.7453 44.9096 54.7453 45.0429 54.6213Z" stroke="#5767F9" stroke-opacity="0.3" stroke-width="3" stroke-miterlimit="10" stroke-linecap="round" stroke-linejoin="round"/>
</g>
<g id="g244">
<path id="path246 (Stroke)" fill-rule="evenodd" clip-rule="evenodd" d="M57.9999 63.421C57.4473 63.421 56.9994 62.9679 56.9994 62.4088V55.5912C56.9994 55.0321 57.4473 54.579 57.9999 54.579C58.5527 54.579 59.0006 55.0321 59.0006 55.5912V63.421H57.9999ZM56.2857 62.4088C56.2857 63.3666 57.0531 64.1429 57.9999 64.1429H59.3575C59.5545 64.1429 59.7143 63.9813 59.7143 63.7819V55.5912C59.7143 54.6334 58.9468 53.8571 57.9999 53.8571C57.0531 53.8571 56.2857 54.6334 56.2857 55.5912V62.4088Z" stroke="#5767F9" stroke-opacity="0.3" stroke-width="3" stroke-miterlimit="10" stroke-linejoin="round"/>
</g>
<g id="g248">
<path id="path250 (Stroke)" fill-rule="evenodd" clip-rule="evenodd" d="M55 65C55.2367 65 55.4286 64.8385 55.4286 64.6392V55.5037C55.4286 55.3044 55.2367 55.1429 55 55.1429C54.7633 55.1429 54.5714 55.3044 54.5714 55.5037V64.6392C54.5714 64.8385 54.7633 65 55 65Z" stroke="#5767F9" stroke-opacity="0.3" stroke-width="3" stroke-miterlimit="10" stroke-linecap="round" stroke-linejoin="round"/>
</g>
<g id="g252">
<path id="path254 (Stroke)" fill-rule="evenodd" clip-rule="evenodd" d="M55.8623 68.9886C55.5518 68.9886 55.3001 68.7379 55.3001 68.4285C55.3001 68.1192 55.5518 67.8685 55.8623 67.8685H58.4233C58.734 67.8685 58.9857 68.1193 58.9857 68.4285C58.9857 68.7378 58.7339 68.9886 58.4233 68.9886H55.8623ZM54.5714 68.4285C54.5714 69.1385 55.1493 69.7143 55.8623 69.7143H58.4233C59.1364 69.7143 59.7143 69.1385 59.7143 68.4285C59.7143 67.7184 59.1363 67.1429 58.4233 67.1429H55.8623C55.1494 67.1429 54.5714 67.7185 54.5714 68.4285Z" stroke="#5767F9" stroke-opacity="0.3" stroke-width="3" stroke-miterlimit="10" stroke-linecap="round" stroke-linejoin="round"/>
</g>
<g id="g256">
<path id="path258 (Stroke)" fill-rule="evenodd" clip-rule="evenodd" d="M54.0033 75.3645C53.5285 75.3645 53.1436 74.9454 53.1436 74.4286C53.1436 73.9117 53.5285 73.4926 54.0033 73.4926H60.2824C60.7572 73.4926 61.1422 73.9117 61.1422 74.4286C61.1422 74.9454 60.7572 75.3645 60.2824 75.3645H54.0033ZM52.4286 74.4286C52.4286 75.3752 53.1335 76.1429 54.0033 76.1429H60.2824C61.1522 76.1429 61.8571 75.3752 61.8571 74.4286C61.8571 73.4819 61.1522 72.7143 60.2824 72.7143H54.0033C53.1335 72.7143 52.4286 73.4819 52.4286 74.4286Z" stroke="#5767F9" stroke-opacity="0.3" stroke-width="3" stroke-miterlimit="10" stroke-linecap="round" stroke-linejoin="round"/>
</g>
<path id="path260 (Stroke)" fill-rule="evenodd" clip-rule="evenodd" d="M55.8571 73.2101C55.8571 73.4096 56.0105 73.5714 56.1997 73.5714H58.5146C58.7038 73.5714 58.8571 73.4096 58.8571 73.2101V69.2185C58.8571 69.0189 58.7038 68.8571 58.5146 68.8571H56.1997C56.0105 68.8571 55.8571 69.0189 55.8571 69.2185V73.2101ZM56.5423 72.8487V69.5799H58.172V72.8487H56.5423Z" stroke="#5767F9" stroke-opacity="0.3" stroke-width="3" stroke-miterlimit="10" stroke-linecap="round" stroke-linejoin="round"/>
<g id="g262">
<path id="path264 (Stroke)" fill-rule="evenodd" clip-rule="evenodd" d="M54.5714 66.0714C54.5714 66.1898 54.7345 66.2857 54.9358 66.2857H59.35C59.5512 66.2857 59.7143 66.1898 59.7143 66.0714C59.7143 65.9531 59.5512 65.8571 59.35 65.8571H54.9358C54.7345 65.8571 54.5714 65.9531 54.5714 66.0714Z" stroke="#5767F9" stroke-opacity="0.3" stroke-width="3" stroke-miterlimit="10" stroke-linecap="round" stroke-linejoin="round"/>
</g>
<path id="path266" d="M58 76.5714H60.1429V75.7143H58V76.5714Z" stroke="#5767F9" stroke-opacity="0.3" stroke-width="3" stroke-miterlimit="10" stroke-linejoin="round"/>
<path id="path266 (Stroke)" fill-rule="evenodd" clip-rule="evenodd" d="M57.5714 76.6098C57.5714 76.8253 57.7291 77 57.9235 77H60.2194C60.4138 77 60.5714 76.8253 60.5714 76.6098V75.6759C60.5714 75.4604 60.4138 75.2857 60.2194 75.2857H57.9235C57.7291 75.2857 57.5714 75.4604 57.5714 75.6759V76.6098ZM58.2756 76.2197V76.0661H59.8673V76.2197H58.2756Z" stroke="#5767F9" stroke-opacity="0.3" stroke-width="3" stroke-miterlimit="10" stroke-linejoin="round"/>
<path id="path268" d="M54.1429 76.5714H56.7143V75.7143H54.1429V76.5714Z" stroke="#5767F9" stroke-opacity="0.3" stroke-width="3" stroke-miterlimit="10" stroke-linejoin="round"/>
<path id="path268 (Stroke)" fill-rule="evenodd" clip-rule="evenodd" d="M53.7143 76.6098C53.7143 76.8253 53.8944 77 54.1167 77H56.7405C56.9627 77 57.1429 76.8253 57.1429 76.6098V75.6759C57.1429 75.4604 56.9627 75.2857 56.7405 75.2857H54.1167C53.8944 75.2857 53.7143 75.4604 53.7143 75.6759V76.6098ZM54.5191 76.2197V76.0661H56.3381V76.2197H54.5191Z" stroke="#5767F9" stroke-opacity="0.3" stroke-width="3" stroke-miterlimit="10" stroke-linejoin="round"/>
<g id="g270">
<path id="path272" d="M59.2857 60.7143H56.7143" stroke="#5767F9" stroke-opacity="0.3" stroke-width="3" stroke-miterlimit="10" stroke-linejoin="round"/>
<path id="path272 (Stroke)" fill-rule="evenodd" clip-rule="evenodd" d="M56.7143 61.1429H59.2857V60.2857H56.7143V61.1429Z" stroke="#5767F9" stroke-opacity="0.3" stroke-width="3" stroke-miterlimit="10" stroke-linejoin="round"/>
</g>
<g id="g274">
<path id="path276" d="M59.2857 57.2857H56.7143" stroke="#5767F9" stroke-opacity="0.3" stroke-width="3" stroke-miterlimit="10" stroke-linejoin="round"/>
<path id="path276 (Stroke)" fill-rule="evenodd" clip-rule="evenodd" d="M56.7143 57.7143H59.2857V56.8571H56.7143V57.7143Z" stroke="#5767F9" stroke-opacity="0.3" stroke-width="3" stroke-miterlimit="10" stroke-linejoin="round"/>
</g>
<g id="g278">
<path id="path280 (Stroke)" fill-rule="evenodd" clip-rule="evenodd" d="M56.2857 65.0001C56.2857 65.7101 56.8613 66.2857 57.5714 66.2857C58.2814 66.2857 58.8571 65.7101 58.8571 65.0001C58.8571 64.2899 58.2814 63.7143 57.5714 63.7143C56.8613 63.7143 56.2857 64.2899 56.2857 65.0001ZM57.5714 65.6173C57.2304 65.6173 56.9541 65.3409 56.9541 65.0001C56.9541 64.659 57.2304 64.3827 57.5714 64.3827C57.9123 64.3827 58.1888 64.6591 58.1888 65.0001C58.1888 65.3409 57.9124 65.6173 57.5714 65.6173Z" stroke="#5767F9" stroke-opacity="0.3" stroke-width="3" stroke-miterlimit="10" stroke-linecap="round" stroke-linejoin="round"/>
</g>
<g id="g282">
<path id="path284 (Stroke)" fill-rule="evenodd" clip-rule="evenodd" d="M57.3572 67.5714C57.4755 67.5714 57.5714 67.4335 57.5714 67.2633V66.1653C57.5714 65.9951 57.4755 65.8571 57.3572 65.8571C57.2388 65.8571 57.1429 65.9951 57.1429 66.1653V67.2633C57.1429 67.4335 57.2388 67.5714 57.3572 67.5714Z" stroke="#5767F9" stroke-opacity="0.3" stroke-width="3" stroke-miterlimit="10" stroke-linecap="round" stroke-linejoin="round"/>
</g>
<g id="g286">
<path id="path288 (Stroke)" fill-rule="evenodd" clip-rule="evenodd" d="M55.5285 54.6213C55.6618 54.7453 55.878 54.7453 56.0112 54.6213L57.0719 53.6349H58.5158C58.7043 53.6349 58.8571 53.4928 58.8571 53.3174C58.8571 53.1421 58.7043 53 58.5158 53H56.9305C56.84 53 56.7532 53.0334 56.6892 53.093L55.5285 54.1724C55.3953 54.2963 55.3953 54.4973 55.5285 54.6213Z" stroke="#5767F9" stroke-opacity="0.3" stroke-width="3" stroke-miterlimit="10" stroke-linecap="round" stroke-linejoin="round"/>
</g>
<g id="g290">
<path id="path292 (Stroke)" fill-rule="evenodd" clip-rule="evenodd" d="M31 61.5655C31 62.7523 31.9353 63.7143 33.0893 63.7143H34.9106C36.0644 63.7143 37 62.7524 37 61.5655V48.2918C37 47.1051 36.0645 46.1429 34.9106 46.1429H33.0893C31.9353 46.1429 31 47.1051 31 48.2918V61.5655ZM33.0893 62.9883C32.3252 62.9883 31.7059 62.3514 31.7059 61.5655V48.2918C31.7059 47.506 32.3252 46.8689 33.0893 46.8689H34.9106C35.6746 46.8689 36.2941 47.506 36.2941 48.2918V61.5655C36.2941 62.3513 35.6747 62.9883 34.9106 62.9883H33.0893Z" stroke="#5767F9" stroke-opacity="0.3" stroke-width="3" stroke-miterlimit="10" stroke-linecap="round" stroke-linejoin="round"/>
</g>
<g id="g302">
<path id="path304 (Stroke)" fill-rule="evenodd" clip-rule="evenodd" d="M31 51.7143C31 51.951 31.158 52.1429 31.3529 52.1429H36.6471C36.842 52.1429 37 51.951 37 51.7143C37 51.4776 36.842 51.2857 36.6471 51.2857H31.3529C31.158 51.2857 31 51.4776 31 51.7143Z" stroke="#5767F9" stroke-opacity="0.3" stroke-width="3" stroke-miterlimit="10" stroke-linecap="round" stroke-linejoin="round"/>
</g>
<g id="g306">
<path id="path308 (Stroke)" fill-rule="evenodd" clip-rule="evenodd" d="M31 54.9286C31 55.0469 31.158 55.1429 31.3529 55.1429H36.6471C36.842 55.1429 37 55.0469 37 54.9286C37 54.8102 36.842 54.7143 36.6471 54.7143H31.3529C31.158 54.7143 31 54.8102 31 54.9286Z" stroke="#5767F9" stroke-opacity="0.3" stroke-width="3" stroke-miterlimit="10" stroke-linecap="round" stroke-linejoin="round"/>
</g>
<g id="path310">
<mask id="path-90-inside-2" fill="white">
<path d="M42.1429 50H36.5714V47.4286H42.1429V50Z"/>
</mask>
<path d="M42.1429 50H45.1429V53H42.1429V50ZM36.5714 50V53H33.5714V50H36.5714ZM36.5714 47.4286H33.5714V44.4286H36.5714V47.4286ZM42.1429 47.4286V44.4286H45.1429V47.4286H42.1429ZM42.1429 53H36.5714V47H42.1429V53ZM33.5714 50V47.4286H39.5714V50H33.5714ZM36.5714 44.4286H42.1429V50.4286H36.5714V44.4286ZM45.1429 47.4286V50H39.1429V47.4286H45.1429Z" fill="#5767F9" fill-opacity="0.3" mask="url(#path-90-inside-2)"/>
</g>
<g id="g312">
<path id="path314" d="M32.7143 69.2857V65.5245C32.7143 64.9981 33.1185 64.5714 33.6168 64.5714H34.3831C34.8816 64.5714 35.2857 64.9981 35.2857 65.5245V69.2857" stroke="#5767F9" stroke-opacity="0.3" stroke-width="3" stroke-miterlimit="10" stroke-linecap="round"/>
<path id="path314 (Stroke)" fill-rule="evenodd" clip-rule="evenodd" d="M32.6623 69.7143C32.8703 69.7143 33.0389 69.5403 33.0389 69.3256V65.5007C33.0389 65.1802 33.2908 64.9203 33.6013 64.9203H34.3986C34.7093 64.9203 34.9611 65.1802 34.9611 65.5007V69.3256C34.9611 69.5403 35.1297 69.7143 35.3377 69.7143C35.5457 69.7143 35.7143 69.5403 35.7143 69.3256V65.5007C35.7143 64.7508 35.1252 64.1429 34.3986 64.1429H33.6013C32.8749 64.1429 32.2857 64.7508 32.2857 65.5007V69.3256C32.2857 69.5403 32.4543 69.7143 32.6623 69.7143Z" stroke="#5767F9" stroke-opacity="0.3" stroke-width="3" stroke-miterlimit="10" stroke-linecap="round"/>
</g>
<g id="g316">
<path id="path318" d="M33.7857 69.2858C33.7857 69.4039 33.8815 69.5 34.0001 69.5C34.1183 69.5 34.2143 69.4041 34.2143 69.2858C34.2143 69.1672 34.1182 69.0714 34.0001 69.0714C33.8817 69.0714 33.7857 69.1674 33.7857 69.2858Z" stroke="#5767F9" stroke-opacity="0.3" stroke-width="3"/>
</g>
<g id="g320">
<path id="path322 (Stroke)" fill-rule="evenodd" clip-rule="evenodd" d="M34.0001 70.2468C33.4692 70.2468 33.0389 69.8165 33.0389 69.2858C33.0389 68.755 33.4692 68.3247 34.0001 68.3247C34.5308 68.3247 34.9611 68.755 34.9611 69.2858C34.9611 69.8165 34.5308 70.2468 34.0001 70.2468ZM32.2857 69.2858C32.2857 70.2326 33.0533 71 34.0001 71C34.9467 71 35.7143 70.2326 35.7143 69.2858C35.7143 68.339 34.9468 67.5714 34.0001 67.5714C33.0533 67.5714 32.2857 68.339 32.2857 69.2858Z" stroke="#5767F9" stroke-opacity="0.3" stroke-width="3" stroke-miterlimit="10" stroke-linecap="round"/>
</g>
<g id="g324">
<path id="path326 (Stroke)" fill-rule="evenodd" clip-rule="evenodd" d="M65.6609 62.9883C64.8968 62.9883 64.2773 62.3513 64.2773 61.5655V48.2918C64.2773 47.506 64.8968 46.8689 65.6609 46.8689H67.4821C68.2462 46.8689 68.8656 47.506 68.8656 48.2918V61.5655C68.8656 62.3514 68.2463 62.9883 67.4821 62.9883H65.6609ZM63.5714 61.5655C63.5714 62.7524 64.507 63.7143 65.6609 63.7143H67.4821C68.6361 63.7143 69.5714 62.7523 69.5714 61.5655V48.2918C69.5714 47.1051 68.6362 46.1429 67.4821 46.1429H65.6609C64.507 46.1429 63.5714 47.1051 63.5714 48.2918V61.5655Z" stroke="#5767F9" stroke-opacity="0.3" stroke-width="3" stroke-miterlimit="10" stroke-linecap="round" stroke-linejoin="round"/>
</g>
<g id="g328">
<path id="path330 (Stroke)" fill-rule="evenodd" clip-rule="evenodd" d="M63.5714 51.7143C63.5714 51.951 63.7295 52.1429 63.9244 52.1429H69.2185C69.4134 52.1429 69.5714 51.951 69.5714 51.7143C69.5714 51.4776 69.4134 51.2857 69.2185 51.2857H63.9244C63.7295 51.2857 63.5714 51.4776 63.5714 51.7143Z" stroke="#5767F9" stroke-opacity="0.3" stroke-width="3" stroke-miterlimit="10" stroke-linecap="round" stroke-linejoin="round"/>
</g>
<g id="g332">
<path id="path334 (Stroke)" fill-rule="evenodd" clip-rule="evenodd" d="M63.5714 54.9286C63.5714 55.0469 63.7295 55.1429 63.9244 55.1429H69.2185C69.4134 55.1429 69.5714 55.0469 69.5714 54.9286C69.5714 54.8102 69.4134 54.7143 69.2185 54.7143H63.9244C63.7295 54.7143 63.5714 54.8102 63.5714 54.9286Z" stroke="#5767F9" stroke-opacity="0.3" stroke-width="3" stroke-miterlimit="10" stroke-linecap="round" stroke-linejoin="round"/>
</g>
<g id="g336">
<path id="path338" d="M66.5714 51.7143V46.5714" stroke="#5767F9" stroke-opacity="0.3" stroke-width="3" stroke-miterlimit="10" stroke-linecap="round"/>
<path id="path338 (Stroke)" fill-rule="evenodd" clip-rule="evenodd" d="M66.5714 52.1429C66.8081 52.1429 67 51.9765 67 51.7713V46.5145C67 46.3092 66.8081 46.1429 66.5714 46.1429C66.3347 46.1429 66.1429 46.3092 66.1429 46.5145V51.7713C66.1429 51.9765 66.3347 52.1429 66.5714 52.1429Z" stroke="#5767F9" stroke-opacity="0.3" stroke-width="3" stroke-miterlimit="10" stroke-linecap="round"/>
</g>
<g id="path340">
<mask id="path-101-inside-3" fill="white">
<path d="M58.4286 50H64V47.4286H58.4286V50Z"/>
</mask>
<path d="M58.4286 50V53H55.4286V50H58.4286ZM64 50H67V53H64V50ZM64 47.4286V44.4286H67V47.4286H64ZM58.4286 47.4286H55.4286V44.4286H58.4286V47.4286ZM58.4286 47H64V53H58.4286V47ZM61 50V47.4286H67V50H61ZM64 50.4286H58.4286V44.4286H64V50.4286ZM61.4286 47.4286V50H55.4286V47.4286H61.4286Z" fill="#5767F9" fill-opacity="0.3" mask="url(#path-101-inside-3)"/>
</g>
<g id="g342">
<path id="path344" d="M67.8571 61.1429V57.3817C67.8571 56.8554 67.453 56.4286 66.9546 56.4286H66.1884C65.6898 56.4286 65.2857 56.8554 65.2857 57.3817V61.1429" stroke="#5767F9" stroke-opacity="0.3" stroke-width="3" stroke-miterlimit="10" stroke-linecap="round"/>
<path id="path344 (Stroke)" fill-rule="evenodd" clip-rule="evenodd" d="M65.2337 61.5714C65.4417 61.5714 65.6103 61.4108 65.6103 61.2126V57.6821C65.6103 57.3862 65.8622 57.1462 66.1729 57.1462H66.9701C67.2806 57.1462 67.5325 57.3862 67.5325 57.6821V61.2126C67.5325 61.4108 67.7011 61.5714 67.9091 61.5714C68.1171 61.5714 68.2857 61.4108 68.2857 61.2126V57.6821C68.2857 56.9899 67.6966 56.4286 66.9701 56.4286H66.1729C65.4461 56.4286 64.8571 56.9899 64.8571 57.6821V61.2126C64.8571 61.4108 65.0258 61.5714 65.2337 61.5714Z" stroke="#5767F9" stroke-opacity="0.3" stroke-width="3" stroke-miterlimit="10" stroke-linecap="round"/>
</g>
<g id="g346">
<path id="path348" d="M66.5713 61.3571C66.6898 61.3571 66.7857 61.2612 66.7857 61.1428C66.7857 61.0247 66.6899 60.9286 66.5713 60.9286C66.4532 60.9286 66.3571 61.0244 66.3571 61.1428C66.3571 61.2614 66.4533 61.3571 66.5713 61.3571Z" stroke="#5767F9" stroke-opacity="0.3" stroke-width="3"/>
</g>
<g id="g350">
<path id="path352 (Stroke)" fill-rule="evenodd" clip-rule="evenodd" d="M64.8571 61.1428C64.8571 62.0897 65.6247 62.8571 66.5713 62.8571C67.518 62.8571 68.2857 62.0898 68.2857 61.1428C68.2857 60.1959 67.518 59.4286 66.5713 59.4286C65.6247 59.4286 64.8571 60.196 64.8571 61.1428ZM66.5713 62.1039C66.0407 62.1039 65.6103 61.6737 65.6103 61.1428C65.6103 60.612 66.0406 60.1818 66.5713 60.1818C67.1022 60.1818 67.5325 60.6121 67.5325 61.1428C67.5325 61.6736 67.1022 62.1039 66.5713 62.1039Z" stroke="#5767F9" stroke-opacity="0.3" stroke-width="3" stroke-miterlimit="10" stroke-linecap="round"/>
</g>
<path id="path358 (Stroke)" fill-rule="evenodd" clip-rule="evenodd" d="M43.509 43.5714H56.206L56.2903 43.3219L55.9382 43.2072C56.2903 43.3219 56.2904 43.3218 56.2904 43.3218L56.2913 43.3191L56.2935 43.3125C56.2954 43.3068 56.2981 43.2987 56.3015 43.2882C56.3083 43.2672 56.3181 43.2369 56.3301 43.1986C56.3542 43.122 56.3872 43.0133 56.424 42.883C56.497 42.6238 56.5861 42.2735 56.646 41.9197C56.7043 41.5752 56.742 41.1897 56.6887 40.8764C56.662 40.7196 56.6065 40.5423 56.4835 40.3992C56.3469 40.2402 56.1539 40.155 55.9329 40.1582C53.9724 40.1859 52.2382 40.1733 50.369 40.1598L50.2817 40.1591C48.3794 40.1453 46.3338 40.1312 43.7721 40.1581C43.5513 40.1605 43.3617 40.2499 43.2283 40.4085C43.1075 40.5522 43.0522 40.7287 43.0256 40.8861C42.9723 41.2003 43.0099 41.5849 43.0683 41.9284C43.1283 42.2809 43.2174 42.6292 43.2905 42.8868C43.3273 43.0163 43.3604 43.1243 43.3844 43.2003C43.3964 43.2383 43.4062 43.2684 43.4131 43.2892C43.4165 43.2997 43.4192 43.3078 43.4211 43.3134L43.4233 43.32L43.4242 43.3226C43.4242 43.3227 43.4243 43.3228 43.7761 43.2072L43.4243 43.3228L43.509 43.5714ZM44.0495 42.843C44.0358 42.7973 44.0209 42.7464 44.0053 42.6913C43.9359 42.447 43.8541 42.1259 43.8001 41.8084C43.7446 41.4818 43.7252 41.1958 43.7574 41.0057C43.7684 40.9407 43.7828 40.9043 43.7919 40.8864C46.3408 40.8596 48.3772 40.8737 50.2762 40.8875L50.3664 40.8882C52.2283 40.9017 53.9648 40.9143 55.9264 40.8867C55.9279 40.8899 55.9295 40.8937 55.9312 40.8979C55.9401 40.9201 55.9494 40.9523 55.9569 40.9964C55.989 41.1853 55.9697 41.4718 55.9141 41.8002C55.8601 42.1193 55.7782 42.4426 55.7089 42.6888C55.6931 42.7449 55.678 42.7966 55.6642 42.843H44.0495Z" stroke="#5767F9" stroke-opacity="0.3" stroke-width="3" stroke-miterlimit="10" stroke-linecap="round"/>
<g id="g360">
<path id="path362 (Stroke)" fill-rule="evenodd" clip-rule="evenodd" d="M45.1429 39.2857C45.1429 39.5224 45.3029 39.7143 45.5004 39.7143H54.6425C54.8399 39.7143 55 39.5224 55 39.2857C55 39.049 54.8399 38.8571 54.6425 38.8571H45.5004C45.3029 38.8571 45.1429 39.049 45.1429 39.2857Z" stroke="#5767F9" stroke-opacity="0.3" stroke-width="3" stroke-miterlimit="10" stroke-linecap="round"/>
</g>
<g id="g364">
<path id="path366" d="M53.4572 33.0714H46.3254L46.6158 33.4824L53.2425 33.333L53.4572 33.0714Z" stroke="#5767F9" stroke-opacity="0.3" stroke-width="3"/>
</g>
<g id="g368">
<path id="path370" d="M45.8608 36.5H53.8534C53.8568 36.5 53.8578 36.4997 53.86 36.4987C53.8635 36.4972 53.8723 36.4924 53.8834 36.4808C53.9056 36.4575 53.9286 36.4157 53.9286 36.3536V36.0714H45.7857V36.3536C45.7857 36.4158 45.8087 36.4576 45.8309 36.4809C45.842 36.4924 45.8507 36.4972 45.8542 36.4987C45.8564 36.4997 45.8574 36.5 45.8608 36.5Z" stroke="#5767F9" stroke-opacity="0.3" stroke-width="3"/>
</g>
<g id="g376">
<g id="path378">
<mask id="path-111-inside-4" fill="white">
<path d="M47.6629 31.5714C45.9267 30.8035 44.7143 29.0565 44.7143 27.0243C44.7143 25.8248 45.1365 24.7247 45.8398 23.8667C46.7436 22.7633 52.4304 22.7073 53.3334 23.734C54.1037 24.6099 54.5714 25.762 54.5714 27.0243C54.5714 29.0564 53.3591 30.8033 51.6232 31.5713"/>
</mask>
<path d="M45.8398 23.8667L48.1606 25.7678L48.16 25.7685L45.8398 23.8667ZM53.3334 23.734L55.5861 21.7527L55.5862 21.7528L53.3334 23.734ZM46.4494 34.315C43.6577 33.0803 41.7143 30.2771 41.7143 27.0243H47.7143C47.7143 27.836 48.1957 28.5267 48.8764 28.8278L46.4494 34.315ZM41.7143 27.0243C41.7143 25.1088 42.3913 23.3415 43.5197 21.9649L48.16 25.7685C47.8818 26.1079 47.7143 26.5408 47.7143 27.0243H41.7143ZM43.5191 21.9656C44.0724 21.2901 44.7652 20.9333 45.1963 20.7474C45.6782 20.5395 46.1811 20.4002 46.6369 20.3026C47.553 20.1065 48.5813 20.0157 49.5439 20.0019C50.5073 19.9881 51.5314 20.0496 52.4423 20.2143C52.8951 20.2961 53.3946 20.4166 53.8746 20.6029C54.2957 20.7663 55.0066 21.0939 55.5861 21.7527L51.0807 25.7152C51.2765 25.9379 51.46 26.0616 51.5497 26.1163C51.5996 26.1466 51.6385 26.1666 51.6625 26.1781C51.6868 26.1897 51.7013 26.1954 51.7038 26.1964C51.7069 26.1976 51.6812 26.1876 51.6197 26.1714C51.5597 26.1556 51.4786 26.1373 51.375 26.1186C50.9374 26.0395 50.3141 25.9915 49.6299 26.0013C48.945 26.0111 48.3257 26.077 47.8931 26.1696C47.7909 26.1915 47.7113 26.2123 47.6528 26.2299C47.5929 26.2479 47.5685 26.2585 47.5723 26.2569C47.573 26.2565 47.6311 26.232 47.7225 26.1713C47.8099 26.1133 47.9809 25.9871 48.1606 25.7678L43.5191 21.9656ZM55.5862 21.7528C56.8212 23.1571 57.5714 25.0075 57.5714 27.0243H51.5714C51.5714 26.5165 51.3863 26.0627 51.0806 25.7151L55.5862 21.7528ZM57.5714 27.0243C57.5714 30.2769 55.6282 33.0799 52.837 34.3148L50.4094 28.8278C51.0901 28.5267 51.5714 27.8359 51.5714 27.0243H57.5714Z" fill="#5767F9" fill-opacity="0.3" mask="url(#path-111-inside-4)"/>
</g>
</g>
<g id="g380">
<path id="path382 (Stroke)" fill-rule="evenodd" clip-rule="evenodd" d="M47.6799 31.7976C47.7621 31.619 47.6918 31.4038 47.5229 31.3169C46.0085 30.5377 44.966 28.8955 44.966 26.9964C44.966 26.0438 45.2279 25.1569 45.6797 24.4108C45.781 24.2435 45.7349 24.0211 45.5767 23.914C45.4185 23.8068 45.2081 23.8556 45.1068 24.0229C44.587 24.8814 44.2857 25.9023 44.2857 26.9964C44.2857 29.1811 45.4857 31.0687 47.2253 31.9637C47.3942 32.0506 47.5978 31.9762 47.6799 31.7976Z" stroke="#5767F9" stroke-opacity="0.3" stroke-width="3" stroke-miterlimit="10" stroke-linecap="round"/>
</g>
<g id="g384">
<path id="path386 (Stroke)" fill-rule="evenodd" clip-rule="evenodd" d="M51.6126 31.797C51.7087 31.9785 51.9421 32.0519 52.1338 31.961C54.0867 31.0351 55.4286 29.123 55.4286 26.9137C55.4286 25.6666 55.0005 24.513 54.276 23.5787C54.1491 23.415 53.906 23.3797 53.7331 23.4998C53.5602 23.6199 53.5229 23.8499 53.6498 24.0136C54.2799 24.826 54.6518 25.8283 54.6518 26.9137C54.6518 28.8342 53.4862 30.4977 51.7859 31.3038C51.5942 31.3947 51.5166 31.6155 51.6126 31.797Z" stroke="#5767F9" stroke-opacity="0.3" stroke-width="3" stroke-miterlimit="10" stroke-linecap="round"/>
</g>
<g id="g392">
<path id="path394 (Stroke)" fill-rule="evenodd" clip-rule="evenodd" d="M40.8571 26.8571C41.0938 26.8571 41.2857 26.6961 41.2857 26.4975V19.5025C41.2857 19.3039 41.0938 19.1429 40.8571 19.1429C40.6205 19.1429 40.4286 19.3039 40.4286 19.5025V26.4975C40.4286 26.6961 40.6205 26.8571 40.8571 26.8571Z" stroke="#5767F9" stroke-opacity="0.3" stroke-width="3" stroke-miterlimit="10" stroke-linecap="round"/>
</g>
<g id="g396">
<path id="path398 (Stroke)" fill-rule="evenodd" clip-rule="evenodd" d="M59.0714 26.8571C59.1898 26.8571 59.2857 26.6933 59.2857 26.4913V17.3659C59.2857 17.1638 59.1898 17 59.0714 17C58.9531 17 58.8571 17.1638 58.8571 17.3659V26.4913C58.8571 26.6933 58.9531 26.8571 59.0714 26.8571Z" stroke="#5767F9" stroke-opacity="0.3" stroke-width="3" stroke-miterlimit="10" stroke-linecap="round"/>
</g>
<g id="g400">
<path id="path402 (Stroke)" fill-rule="evenodd" clip-rule="evenodd" d="M38.7143 30.4696C38.7143 31.3123 39.3718 32 40.1772 32H40.9292C41.1261 32 41.2857 31.833 41.2857 31.6271C41.2857 31.4211 41.1261 31.2541 40.9292 31.2541H40.1772C39.7655 31.2541 39.4273 30.9003 39.4273 30.4696V27.5304C39.4273 27.0998 39.7655 26.7459 40.1772 26.7459H40.496C40.6929 26.7459 40.8525 26.5789 40.8525 26.3729C40.8525 26.167 40.6929 26 40.496 26H40.1772C39.3718 26 38.7143 26.6878 38.7143 27.5304V30.4696Z" stroke="#5767F9" stroke-opacity="0.3" stroke-width="3" stroke-miterlimit="10" stroke-linecap="round"/>
</g>
<g id="g404">
<path id="path406 (Stroke)" fill-rule="evenodd" clip-rule="evenodd" d="M58.4286 30.7699C58.4286 30.9759 58.5882 31.1429 58.785 31.1429H59.5372C60.3424 31.1429 61 30.4552 61 29.6125V26.6732C61 25.8307 60.3424 25.1429 59.5372 25.1429H59.2183C59.0214 25.1429 58.8618 25.3098 58.8618 25.5158C58.8618 25.7218 59.0214 25.8887 59.2183 25.8887H59.5372C59.9487 25.8887 60.2871 26.2426 60.2871 26.6732V29.6125C60.2871 30.0432 59.9487 30.397 59.5372 30.397H58.785C58.5882 30.397 58.4286 30.564 58.4286 30.7699Z" stroke="#5767F9" stroke-opacity="0.3" stroke-width="3" stroke-miterlimit="10" stroke-linecap="round"/>
</g>
<g id="g408">
<path id="path410 (Stroke)" fill-rule="evenodd" clip-rule="evenodd" d="M42.253 26.7547C42.3975 26.8936 42.6289 26.8909 42.77 26.7486C44.6266 24.876 47.1887 23.72 50.0173 23.72C52.6921 23.72 55.1282 24.7535 56.9552 26.4492C57.1021 26.5856 57.3335 26.5788 57.4719 26.4341C57.6104 26.2894 57.6035 26.0616 57.4566 25.9253C55.501 24.1102 52.8881 23 50.0173 23C46.9812 23 44.2335 24.2419 42.2469 26.2457C42.1058 26.3879 42.1086 26.6159 42.253 26.7547Z" stroke="#5767F9" stroke-opacity="0.3" stroke-width="3" stroke-miterlimit="10" stroke-linecap="round"/>
</g>
<g id="g412">
<path id="path414 (Stroke)" fill-rule="evenodd" clip-rule="evenodd" d="M43 31.7857C43 31.9041 43.1666 32 43.372 32H56.3423C56.5477 32 56.7143 31.9041 56.7143 31.7857C56.7143 31.6674 56.5477 31.5714 56.3423 31.5714H43.372C43.1666 31.5714 43 31.6674 43 31.7857Z" stroke="#5767F9" stroke-opacity="0.3" stroke-width="3" stroke-miterlimit="10" stroke-linecap="round"/>
</g>
<g id="g416">
<path id="path418" d="M51.1429 25.3571C51.0245 25.3571 50.9286 25.4531 50.9286 25.5714C50.9286 25.6898 51.0245 25.7857 51.1429 25.7857C51.2612 25.7857 51.3571 25.6897 51.3571 25.5714C51.3571 25.4531 51.2612 25.3571 51.1429 25.3571Z" stroke="#5767F9" stroke-opacity="0.3" stroke-width="3"/>
</g>
<g id="g420">
<path id="path422" d="M53.2857 27.5C53.2857 27.855 53.094 28.1429 52.8572 28.1429C52.6205 28.1429 52.4286 27.855 52.4286 27.5C52.4286 27.145 52.6205 26.8571 52.8572 26.8571C53.094 26.8571 53.2857 27.145 53.2857 27.5Z" stroke="#5767F9" stroke-opacity="0.3" stroke-width="3"/>
</g>
<g id="g424">
<path id="path426 (Stroke)" fill-rule="evenodd" clip-rule="evenodd" d="M45.3109 33.0367C48.4059 34.8322 52.0656 34.1109 54.3545 33.1902C54.5389 33.116 54.6219 32.9208 54.5397 32.7542C54.4576 32.5876 54.2415 32.5127 54.057 32.5869C51.8522 33.4738 48.4909 34.0966 45.7061 32.481C45.5362 32.3824 45.31 32.4269 45.2009 32.5804C45.0918 32.7338 45.141 32.9381 45.3109 33.0367Z" stroke="#5767F9" stroke-opacity="0.3" stroke-width="3" stroke-miterlimit="10" stroke-linecap="round"/>
</g>
</g>
</g>
<path id="path4438_2" d="M48.5098 45.0124C47.9949 45.0183 47.481 45.2201 47.0812 45.6199C46.2572 46.444 46.2405 47.785 47.0441 48.6263C47.929 49.6432 49.0132 50.6573 49.9636 51.6752C50.9077 50.6469 51.9856 49.6211 52.8641 48.5945C53.6625 47.7444 53.6374 46.4036 52.8083 45.5886C52.0038 44.7977 50.748 44.8033 49.9447 45.5809C49.5407 45.1965 49.0248 45.0065 48.5098 45.0124Z" stroke="#5767F9" stroke-opacity="0.3" stroke-width="3" stroke-linejoin="round"/>
<path id="path4438 (Stroke)" fill-rule="evenodd" clip-rule="evenodd" d="M49.9434 45.1761C50.8644 44.4705 52.1684 44.5269 53.0246 45.3685C53.9714 46.2992 54.0015 47.8274 53.0936 48.7999C52.569 49.4124 51.9613 50.0381 51.3614 50.6558C50.9584 51.0707 50.5589 51.482 50.1904 51.8833C50.1323 51.9467 50.0504 51.9829 49.9646 51.9834C49.8787 51.9839 49.7966 51.9485 49.7381 51.8858C49.3672 51.4885 48.9651 51.0816 48.5596 50.6711C47.9558 50.06 47.3443 49.4409 46.8159 48.8342C45.902 47.8716 45.9226 46.3432 46.8635 45.4022L46.8635 45.4022C47.3216 44.9441 47.9132 44.7109 48.507 44.7041L48.507 44.7041C49.0127 44.6983 49.5184 44.8567 49.9434 45.1761ZM52.5919 45.8087C51.9074 45.1358 50.8427 45.1401 50.1588 45.8021C50.0399 45.9173 49.8516 45.9183 49.7319 45.8045C49.387 45.4763 48.9489 45.3156 48.5126 45.3206C48.0766 45.3256 47.6404 45.4961 47.2989 45.8376C46.5936 46.543 46.5791 47.6927 47.2672 48.4131C47.2705 48.4166 47.2737 48.4201 47.2768 48.4237C47.8005 49.0255 48.3818 49.6132 48.9713 50.2092C49.3019 50.5435 49.6351 50.8804 49.9622 51.2239C50.2872 50.8769 50.6183 50.5363 50.9468 50.1984C51.5326 49.596 52.1102 49.0019 52.6301 48.3944C52.6332 48.3908 52.6364 48.3872 52.6396 48.3838C53.3233 47.6558 53.3017 46.5063 52.5919 45.8087Z" stroke="#5767F9" stroke-opacity="0.3" stroke-width="3" stroke-linejoin="round"/>
<path id="path1923" d="M33.2454 58.4135C32.9796 58.4165 32.7144 58.5207 32.508 58.727C32.0827 59.1524 32.0741 59.8445 32.4888 60.2788C32.9456 60.8036 33.5052 61.327 33.9957 61.8524C34.483 61.3216 35.0393 60.7922 35.4928 60.2623C35.9048 59.8236 35.8919 59.1315 35.464 58.7109C35.0487 58.3027 34.4005 58.3056 33.9859 58.7069C33.7774 58.5085 33.5111 58.4104 33.2454 58.4135Z" stroke="#5767F9" stroke-opacity="0.3" stroke-width="3" stroke-linejoin="round"/>
<path id="path1923 (Stroke)" d="M35.2399 58.9388C34.9489 58.6529 34.4986 58.6545 34.2077 58.9361C34.0846 59.0553 33.8895 59.0564 33.7656 58.9385C33.6183 58.7983 33.4325 58.7306 33.2483 58.7327L35.2399 58.9388ZM35.2399 58.9388C35.5441 59.2379 35.5535 59.7318 35.2603 60.044C35.2569 60.0476 35.2536 60.0513 35.2504 60.055C34.9835 60.3669 34.6933 60.6652 34.3952 60.9716C34.2627 61.1078 34.1286 61.2456 33.9943 61.387C33.8591 61.2471 33.7241 61.1108 33.5908 60.976C33.2908 60.6728 32.9988 60.3778 32.7299 60.0688C32.7267 60.0651 32.7234 60.0615 32.72 60.0579C32.4248 59.7489 32.4311 59.255 32.7335 58.9525C32.8795 58.8066 33.0642 58.7348 33.2483 58.7327L35.2399 58.9388ZM35.6881 58.4829C35.2175 58.0204 34.514 57.9643 33.9847 58.3031C33.7585 58.1614 33.5006 58.0912 33.2425 58.0942L33.2425 58.0942C32.895 58.0982 32.5493 58.2348 32.2825 58.5015L32.2825 58.5015C31.7361 59.0479 31.7234 59.9341 32.2523 60.494C32.5262 60.8081 32.8495 61.1356 33.1644 61.4545C33.373 61.6657 33.5778 61.8732 33.7621 62.0706C33.8227 62.1355 33.9078 62.1721 33.9967 62.1717C34.0857 62.1712 34.1705 62.1336 34.2307 62.068C34.4137 61.8687 34.6173 61.6589 34.8246 61.4454C35.1374 61.1231 35.4587 60.7921 35.7306 60.4749C36.256 59.9094 36.2378 59.0233 35.6881 58.4829Z" stroke="#5767F9" stroke-opacity="0.3" stroke-width="3" stroke-linejoin="round"/>
<path id="path1925 (Stroke)" fill-rule="evenodd" clip-rule="evenodd" d="M49.9357 22.0533C52.1451 20.074 55.4359 20.1361 57.5659 22.3026C59.8294 24.6048 59.899 28.3839 57.724 30.7866C56.3739 32.4182 54.8284 34.0642 53.2905 35.702C52.2496 36.8106 51.2122 37.9154 50.2414 39.0094C50.1767 39.0823 50.0842 39.1242 49.987 39.1248C49.8897 39.1253 49.7969 39.0844 49.7318 39.0123C48.7545 37.9293 47.7105 36.8362 46.6629 35.7395C45.1153 34.1191 43.5599 32.4906 42.2001 30.8744C40.0107 28.4964 40.0576 24.7166 42.3072 22.3889L42.3072 22.3889C43.402 21.2561 44.8146 20.68 46.2337 20.6632L46.2337 20.6632C47.5513 20.6476 48.8681 21.1142 49.9357 22.0533ZM57.0777 22.7827C55.1369 20.8087 52.1166 20.8223 50.1787 22.7634C50.0458 22.8965 49.8306 22.8977 49.6969 22.7661C48.7197 21.8042 47.4769 21.3323 46.24 21.347C45.0034 21.3616 43.7655 21.8626 42.7983 22.8634C40.7997 24.9314 40.7586 28.3034 42.7085 30.4157C42.712 30.4195 42.7155 30.4235 42.7188 30.4275C44.0737 32.0384 45.5962 33.6316 47.1283 35.235C48.0896 36.2409 49.0546 37.2508 49.9844 38.2715C50.908 37.2404 51.8669 36.2196 52.8221 35.2028C54.3445 33.5822 55.8574 31.9717 57.2026 30.3456C57.2059 30.3415 57.2093 30.3375 57.2129 30.3336C59.15 28.1994 59.0886 24.828 57.0777 22.7827Z" stroke="#5767F9" stroke-opacity="0.3" stroke-width="3" stroke-linejoin="round"/>
</g>
<g id="g10_2">
<g id="g30_2">
<g id="g32_2">
<g id="g150_2">
<path id="path152 (Stroke)_2" fill-rule="evenodd" clip-rule="evenodd" d="M34 52.1429C34.2367 52.1429 34.4286 51.9765 34.4286 51.7713V46.5145C34.4286 46.3092 34.2367 46.1429 34 46.1429C33.7633 46.1429 33.5714 46.3092 33.5714 46.5145V51.7713C33.5714 51.9765 33.7633 52.1429 34 52.1429Z" fill="#15003E"/>
</g>
<g id="g154_2">
<path id="path156 (Stroke)_2" fill-rule="evenodd" clip-rule="evenodd" d="M34 65C34.2367 65 34.4286 64.8436 34.4286 64.6506V60.2066C34.4286 60.0136 34.2367 59.8571 34 59.8571C33.7633 59.8571 33.5714 60.0136 33.5714 60.2066V64.6506C33.5714 64.8436 33.7633 65 34 65Z" fill="#15003E"/>
</g>
<g id="g158_2">
<path id="path160 (Stroke)_2" fill-rule="evenodd" clip-rule="evenodd" d="M58.4286 47H41.7143V47.8571H58.4286V47Z" fill="#15003E"/>
</g>
<g id="g162_2">
<path id="path164_2" d="M41.7143 47.4286L41.8957 49.9844L43.5515 52.317L45.0024 52.4602L50.3136 53L55.7589 52.5929L57.5844 51.2734L58.4286 48.7611L58.0662 47.4286H41.7143Z" fill="#15003E"/>
</g>
<g id="g166_2">
<path id="path168 (Stroke)_2" fill-rule="evenodd" clip-rule="evenodd" d="M41.2857 48.8492C41.2857 51.1416 43.192 53 45.5437 53H54.5991C56.9507 53 58.8571 51.1416 58.8571 48.8492V43.4991C58.8571 43.3024 58.6935 43.1429 58.4917 43.1429H41.6512C41.4494 43.1429 41.2857 43.3024 41.2857 43.4991V48.8492ZM45.5437 52.2874C43.5957 52.2874 42.0167 50.7481 42.0167 48.8492V43.8554H58.1262V48.8492C58.1262 50.7481 56.547 52.2874 54.5991 52.2874H45.5437Z" fill="#15003E"/>
</g>
<g id="g170_2">
<path id="path172_2" d="M51.5714 47.8571C51.5714 46.9104 50.8039 46.1429 49.8571 46.1429C48.9105 46.1429 48.1429 46.9104 48.1429 47.8571C48.1429 48.804 48.9105 49.5714 49.8571 49.5714C50.8039 49.5714 51.5714 48.804 51.5714 47.8571Z" fill="#25E899"/>
</g>
<g id="g174_2">
<path id="path176 (Stroke)_2" fill-rule="evenodd" clip-rule="evenodd" d="M50.0714 49.2556C49.3765 49.2556 48.8129 48.6295 48.8129 47.8571C48.8129 47.0849 49.3765 46.4587 50.0714 46.4587C50.7665 46.4587 51.33 47.0849 51.33 47.8571C51.33 48.6295 50.7665 49.2556 50.0714 49.2556ZM48.1429 47.8571C48.1429 49.0407 49.0064 50 50.0714 50C51.1366 50 52 49.0407 52 47.8571C52 46.6738 51.1366 45.7143 50.0714 45.7143C49.0064 45.7143 48.1429 46.6738 48.1429 47.8571Z" fill="#15003E"/>
</g>
<g id="g178_2">
<path id="path180_2" d="M43.4286 51.7143C43.4286 51.2409 43.0449 50.8571 42.5714 50.8571C42.0981 50.8571 41.7143 51.2409 41.7143 51.7143C41.7143 52.1877 42.0981 52.5714 42.5714 52.5714C43.0449 52.5714 43.4286 52.1877 43.4286 51.7143Z" fill="#15003E"/>
</g>
<g id="g182_2">
<path id="path184_2" d="M58.4286 51.7143C58.4286 51.2409 58.0449 50.8571 57.5714 50.8571C57.0981 50.8571 56.7143 51.2409 56.7143 51.7143C56.7143 52.1877 57.0981 52.5714 57.5714 52.5714C58.0449 52.5714 58.4286 52.1877 58.4286 51.7143Z" fill="#15003E"/>
</g>
<g id="g186_2">
<path id="path188_2" d="M51.5714 53.4286C51.5714 52.7185 50.9 52.1429 50.0714 52.1429C49.2431 52.1429 48.5714 52.7185 48.5714 53.4286C48.5714 54.1387 49.2431 54.7143 50.0714 54.7143C50.9 54.7143 51.5714 54.1387 51.5714 53.4286Z" fill="#8148DF"/>
</g>
<g id="g190_2">
<path id="path192_2" d="M57.5714 51.2857C57.5714 51.049 57.2836 50.8571 56.9285 50.8571C56.5734 50.8571 56.2857 51.049 56.2857 51.2857C56.2857 51.5225 56.5734 51.7143 56.9285 51.7143C57.2836 51.7143 57.5714 51.5225 57.5714 51.2857Z" fill="#8148DF"/>
</g>
<g id="g194_2">
<path id="path196_2" d="M43.8572 51.2857C43.8572 51.049 43.5692 50.8571 43.2143 50.8571C42.8593 50.8571 42.5714 51.049 42.5714 51.2857C42.5714 51.5225 42.8593 51.7143 43.2143 51.7143C43.5692 51.7143 43.8572 51.5225 43.8572 51.2857Z" fill="#8148DF"/>
</g>
<g id="g198_2">
<path id="path200 (Stroke)_2" fill-rule="evenodd" clip-rule="evenodd" d="M40.8571 63.7819C40.8571 63.9813 41.0169 64.1429 41.214 64.1429H42.5714C43.5181 64.1429 44.2857 63.3666 44.2857 62.4088V55.5912C44.2857 54.6334 43.5181 53.8571 42.5714 53.8571C41.6246 53.8571 40.8571 54.6334 40.8571 55.5912V63.7819ZM41.5708 63.421V55.5912C41.5708 55.0321 42.0188 54.579 42.5714 54.579C43.124 54.579 43.5721 55.0321 43.5721 55.5912V62.4088C43.5721 62.9679 43.124 63.421 42.5714 63.421H41.5708Z" fill="#15003E"/>
</g>
<g id="g202_2">
<path id="path204 (Stroke)_2" fill-rule="evenodd" clip-rule="evenodd" d="M45.3572 65C45.4755 65 45.5714 64.8385 45.5714 64.6392V55.5037C45.5714 55.3044 45.4755 55.1429 45.3572 55.1429C45.2388 55.1429 45.1429 55.3044 45.1429 55.5037V64.6392C45.1429 64.8385 45.2388 65 45.3572 65Z" fill="#15003E"/>
</g>
<g id="g206_2">
<path id="path208 (Stroke)_2" fill-rule="evenodd" clip-rule="evenodd" d="M40.8571 68C40.8571 68.71 41.3869 69.2857 42.0404 69.2857H44.388C45.0415 69.2857 45.5714 68.71 45.5714 68C45.5714 67.29 45.0415 66.7143 44.388 66.7143H42.0404C41.3869 66.7143 40.8571 67.29 40.8571 68ZM42.0404 68.5601C41.7559 68.5601 41.5251 68.3093 41.5251 68C41.5251 67.6907 41.7559 67.4399 42.0404 67.4399H44.388C44.6727 67.4399 44.9035 67.6907 44.9035 68C44.9035 68.3093 44.6727 68.5601 44.388 68.5601H42.0404Z" fill="#15003E"/>
</g>
<g id="g210_2">
<path id="path212 (Stroke)_2" fill-rule="evenodd" clip-rule="evenodd" d="M38.7143 74.4286C38.7143 75.3754 39.4193 76.1429 40.2891 76.1429H46.5681C47.4378 76.1429 48.1429 75.3754 48.1429 74.4286C48.1429 73.4819 47.4379 72.7143 46.5681 72.7143H40.2891C39.4193 72.7143 38.7143 73.4819 38.7143 74.4286ZM40.2891 75.3645C39.8142 75.3645 39.4293 74.9455 39.4293 74.4286C39.4293 73.9118 39.8142 73.4927 40.2891 73.4927H46.5681C47.043 73.4927 47.4279 73.9118 47.4279 74.4286C47.4279 74.9455 47.043 75.3645 46.5681 75.3645H40.2891Z" fill="#15003E"/>
</g>
<path id="path214 (Stroke)_2" fill-rule="evenodd" clip-rule="evenodd" d="M41.7143 73.2101C41.7143 73.4096 41.8677 73.5714 42.0569 73.5714H44.3717C44.5609 73.5714 44.7143 73.4096 44.7143 73.2101V69.2185C44.7143 69.0189 44.5609 68.8571 44.3717 68.8571H42.0569C41.8677 68.8571 41.7143 69.0189 41.7143 69.2185V73.2101ZM42.3995 72.8487V69.5799H44.0291V72.8487H42.3995Z" fill="#15003E"/>
<g id="g216_2">
<path id="path218 (Stroke)_2" fill-rule="evenodd" clip-rule="evenodd" d="M40.8571 65.8571C40.8571 66.0938 41.0067 66.2857 41.1911 66.2857H45.2375C45.4219 66.2857 45.5714 66.0938 45.5714 65.8571C45.5714 65.6204 45.4219 65.4286 45.2375 65.4286H41.1911C41.0067 65.4286 40.8571 65.6204 40.8571 65.8571Z" fill="#15003E"/>
</g>
<path id="path220_2" d="M42.5714 76.5714H40.4286V75.7143H42.5714V76.5714Z" fill="#15003E"/>
<path id="path220 (Stroke)_2" fill-rule="evenodd" clip-rule="evenodd" d="M40 76.6099C40 76.8253 40.1576 77 40.3521 77H42.6479C42.8424 77 43 76.8253 43 76.6099V75.6759C43 75.4604 42.8424 75.2857 42.6479 75.2857H40.3521C40.1576 75.2857 40 75.4604 40 75.6759V76.6099ZM40.7042 76.2197V76.066H42.2958V76.2197H40.7042Z" fill="#15003E"/>
<path id="path222_2" d="M46.4286 76.5714H43.8571V75.7143H46.4286V76.5714Z" fill="#15003E"/>
<path id="path222 (Stroke)_2" fill-rule="evenodd" clip-rule="evenodd" d="M43.4286 76.6099C43.4286 76.8253 43.5862 77 43.7807 77H46.0765C46.2709 77 46.4286 76.8253 46.4286 76.6099V75.6759C46.4286 75.4604 46.2709 75.2857 46.0765 75.2857H43.7807C43.5862 75.2857 43.4286 75.4604 43.4286 75.6759V76.6099ZM44.1327 76.2197V76.066H45.7244V76.2197H44.1327Z" fill="#15003E"/>
<g id="g224_2">
<path id="path226 (Stroke)_2" fill-rule="evenodd" clip-rule="evenodd" d="M43.8571 60.2857H40.8571V61.1429H43.8571V60.2857Z" fill="#15003E"/>
</g>
<g id="g228_2">
<path id="path230 (Stroke)_2" fill-rule="evenodd" clip-rule="evenodd" d="M43.8571 56.8571H40.8571V57.7143H43.8571V56.8571Z" fill="#15003E"/>
</g>
<g id="g232_2">
<path id="path234 (Stroke)_2" fill-rule="evenodd" clip-rule="evenodd" d="M43.0001 65.5059C42.6591 65.5059 42.3827 65.1835 42.3827 64.7856C42.3827 64.388 42.659 64.0655 43.0001 64.0655C43.341 64.0655 43.6173 64.3879 43.6173 64.7856C43.6173 65.1835 43.3409 65.5059 43.0001 65.5059ZM41.7143 64.7856C41.7143 65.6142 42.2899 66.2857 43.0001 66.2857C43.7101 66.2857 44.2857 65.6141 44.2857 64.7856C44.2857 63.9573 43.7101 63.2857 43.0001 63.2857C42.2899 63.2857 41.7143 63.9572 41.7143 64.7856Z" fill="#15003E"/>
</g>
<g id="g236_2">
<path id="path238 (Stroke)_2" fill-rule="evenodd" clip-rule="evenodd" d="M43.2143 67.5714C43.3326 67.5714 43.4286 67.399 43.4286 67.1862V65.8138C43.4286 65.601 43.3326 65.4286 43.2143 65.4286C43.0959 65.4286 43 65.601 43 65.8138V67.1862C43 67.399 43.0959 67.5714 43.2143 67.5714Z" fill="#15003E"/>
</g>
<g id="g240_2">
<path id="path242 (Stroke)_2" fill-rule="evenodd" clip-rule="evenodd" d="M45.0429 54.6213C45.1762 54.4973 45.1762 54.2963 45.0429 54.1724L43.8823 53.093C43.8183 53.0334 43.7315 53 43.6409 53H42.0556C41.8671 53 41.7143 53.1421 41.7143 53.3174C41.7143 53.4928 41.8671 53.6349 42.0556 53.6349H43.4996L44.5602 54.6213C44.6935 54.7453 44.9096 54.7453 45.0429 54.6213Z" fill="#15003E"/>
</g>
<g id="g244_2">
<path id="path246 (Stroke)_2" fill-rule="evenodd" clip-rule="evenodd" d="M57.9999 63.421C57.4473 63.421 56.9994 62.9679 56.9994 62.4088V55.5912C56.9994 55.0321 57.4473 54.579 57.9999 54.579C58.5527 54.579 59.0006 55.0321 59.0006 55.5912V63.421H57.9999ZM56.2857 62.4088C56.2857 63.3666 57.0531 64.1429 57.9999 64.1429H59.3575C59.5545 64.1429 59.7143 63.9813 59.7143 63.7819V55.5912C59.7143 54.6334 58.9468 53.8571 57.9999 53.8571C57.0531 53.8571 56.2857 54.6334 56.2857 55.5912V62.4088Z" fill="#15003E"/>
</g>
<g id="g248_2">
<path id="path250 (Stroke)_2" fill-rule="evenodd" clip-rule="evenodd" d="M55 65C55.2367 65 55.4286 64.8385 55.4286 64.6392V55.5037C55.4286 55.3044 55.2367 55.1429 55 55.1429C54.7633 55.1429 54.5714 55.3044 54.5714 55.5037V64.6392C54.5714 64.8385 54.7633 65 55 65Z" fill="#15003E"/>
</g>
<g id="g252_2">
<path id="path254 (Stroke)_2" fill-rule="evenodd" clip-rule="evenodd" d="M55.8623 68.9886C55.5518 68.9886 55.3001 68.7379 55.3001 68.4285C55.3001 68.1192 55.5518 67.8685 55.8623 67.8685H58.4233C58.734 67.8685 58.9857 68.1193 58.9857 68.4285C58.9857 68.7378 58.7339 68.9886 58.4233 68.9886H55.8623ZM54.5714 68.4285C54.5714 69.1385 55.1493 69.7143 55.8623 69.7143H58.4233C59.1364 69.7143 59.7143 69.1385 59.7143 68.4285C59.7143 67.7184 59.1363 67.1429 58.4233 67.1429H55.8623C55.1494 67.1429 54.5714 67.7185 54.5714 68.4285Z" fill="#15003E"/>
</g>
<g id="g256_2">
<path id="path258 (Stroke)_2" fill-rule="evenodd" clip-rule="evenodd" d="M54.0033 75.3645C53.5285 75.3645 53.1436 74.9454 53.1436 74.4286C53.1436 73.9117 53.5285 73.4926 54.0033 73.4926H60.2824C60.7572 73.4926 61.1422 73.9117 61.1422 74.4286C61.1422 74.9454 60.7572 75.3645 60.2824 75.3645H54.0033ZM52.4286 74.4286C52.4286 75.3752 53.1335 76.1429 54.0033 76.1429H60.2824C61.1522 76.1429 61.8571 75.3752 61.8571 74.4286C61.8571 73.4819 61.1522 72.7143 60.2824 72.7143H54.0033C53.1335 72.7143 52.4286 73.4819 52.4286 74.4286Z" fill="#15003E"/>
</g>
<path id="path260 (Stroke)_2" fill-rule="evenodd" clip-rule="evenodd" d="M55.8571 73.2101C55.8571 73.4096 56.0105 73.5714 56.1997 73.5714H58.5146C58.7038 73.5714 58.8571 73.4096 58.8571 73.2101V69.2185C58.8571 69.0189 58.7038 68.8571 58.5146 68.8571H56.1997C56.0105 68.8571 55.8571 69.0189 55.8571 69.2185V73.2101ZM56.5423 72.8487V69.5799H58.172V72.8487H56.5423Z" fill="#15003E"/>
<g id="g262_2">
<path id="path264 (Stroke)_2" fill-rule="evenodd" clip-rule="evenodd" d="M54.5714 66.0714C54.5714 66.1898 54.7345 66.2857 54.9358 66.2857H59.35C59.5512 66.2857 59.7143 66.1898 59.7143 66.0714C59.7143 65.9531 59.5512 65.8571 59.35 65.8571H54.9358C54.7345 65.8571 54.5714 65.9531 54.5714 66.0714Z" fill="#15003E"/>
</g>
<path id="path266_2" d="M58 76.5714H60.1429V75.7143H58V76.5714Z" fill="#15003E"/>
<path id="path266 (Stroke)_2" fill-rule="evenodd" clip-rule="evenodd" d="M57.5714 76.6098C57.5714 76.8253 57.7291 77 57.9235 77H60.2194C60.4138 77 60.5714 76.8253 60.5714 76.6098V75.6759C60.5714 75.4604 60.4138 75.2857 60.2194 75.2857H57.9235C57.7291 75.2857 57.5714 75.4604 57.5714 75.6759V76.6098ZM58.2756 76.2197V76.0661H59.8673V76.2197H58.2756Z" fill="#15003E"/>
<path id="path268_2" d="M54.1429 76.5714H56.7143V75.7143H54.1429V76.5714Z" fill="#15003E"/>
<path id="path268 (Stroke)_2" fill-rule="evenodd" clip-rule="evenodd" d="M53.7143 76.6098C53.7143 76.8253 53.8944 77 54.1167 77H56.7405C56.9627 77 57.1429 76.8253 57.1429 76.6098V75.6759C57.1429 75.4604 56.9627 75.2857 56.7405 75.2857H54.1167C53.8944 75.2857 53.7143 75.4604 53.7143 75.6759V76.6098ZM54.5191 76.2197V76.0661H56.3381V76.2197H54.5191Z" fill="#15003E"/>
<g id="g270_2">
<path id="path272 (Stroke)_2" fill-rule="evenodd" clip-rule="evenodd" d="M56.7143 61.1429H59.2857V60.2857H56.7143V61.1429Z" fill="#15003E"/>
</g>
<g id="g274_2">
<path id="path276 (Stroke)_2" fill-rule="evenodd" clip-rule="evenodd" d="M56.7143 57.7143H59.2857V56.8571H56.7143V57.7143Z" fill="#15003E"/>
</g>
<g id="g278_2">
<path id="path280 (Stroke)_2" fill-rule="evenodd" clip-rule="evenodd" d="M56.2857 65.0001C56.2857 65.7101 56.8613 66.2857 57.5714 66.2857C58.2814 66.2857 58.8571 65.7101 58.8571 65.0001C58.8571 64.2899 58.2814 63.7143 57.5714 63.7143C56.8613 63.7143 56.2857 64.2899 56.2857 65.0001ZM57.5714 65.6173C57.2304 65.6173 56.9541 65.3409 56.9541 65.0001C56.9541 64.659 57.2304 64.3827 57.5714 64.3827C57.9123 64.3827 58.1888 64.6591 58.1888 65.0001C58.1888 65.3409 57.9124 65.6173 57.5714 65.6173Z" fill="#15003E"/>
</g>
<g id="g282_2">
<path id="path284 (Stroke)_2" fill-rule="evenodd" clip-rule="evenodd" d="M57.3572 67.5714C57.4755 67.5714 57.5714 67.4335 57.5714 67.2633V66.1653C57.5714 65.9951 57.4755 65.8571 57.3572 65.8571C57.2388 65.8571 57.1429 65.9951 57.1429 66.1653V67.2633C57.1429 67.4335 57.2388 67.5714 57.3572 67.5714Z" fill="#15003E"/>
</g>
<g id="g286_2">
<path id="path288 (Stroke)_2" fill-rule="evenodd" clip-rule="evenodd" d="M55.5285 54.6213C55.6618 54.7453 55.878 54.7453 56.0112 54.6213L57.0719 53.6349H58.5158C58.7043 53.6349 58.8571 53.4928 58.8571 53.3174C58.8571 53.1421 58.7043 53 58.5158 53H56.9305C56.84 53 56.7532 53.0334 56.6892 53.093L55.5285 54.1724C55.3953 54.2963 55.3953 54.4973 55.5285 54.6213Z" fill="#15003E"/>
</g>
<g id="g290_2">
<path id="path292 (Stroke)_2" fill-rule="evenodd" clip-rule="evenodd" d="M31 61.5655C31 62.7523 31.9353 63.7143 33.0893 63.7143H34.9106C36.0644 63.7143 37 62.7524 37 61.5655V48.2918C37 47.1051 36.0645 46.1429 34.9106 46.1429H33.0893C31.9353 46.1429 31 47.1051 31 48.2918V61.5655ZM33.0893 62.9883C32.3252 62.9883 31.7059 62.3514 31.7059 61.5655V48.2918C31.7059 47.506 32.3252 46.8689 33.0893 46.8689H34.9106C35.6746 46.8689 36.2941 47.506 36.2941 48.2918V61.5655C36.2941 62.3513 35.6747 62.9883 34.9106 62.9883H33.0893Z" fill="#15003E"/>
</g>
<g id="g302_2">
<path id="path304 (Stroke)_2" fill-rule="evenodd" clip-rule="evenodd" d="M31 51.7143C31 51.951 31.158 52.1429 31.3529 52.1429H36.6471C36.842 52.1429 37 51.951 37 51.7143C37 51.4776 36.842 51.2857 36.6471 51.2857H31.3529C31.158 51.2857 31 51.4776 31 51.7143Z" fill="#15003E"/>
</g>
<g id="g306_2">
<path id="path308 (Stroke)_2" fill-rule="evenodd" clip-rule="evenodd" d="M31 54.9286C31 55.0469 31.158 55.1429 31.3529 55.1429H36.6471C36.842 55.1429 37 55.0469 37 54.9286C37 54.8102 36.842 54.7143 36.6471 54.7143H31.3529C31.158 54.7143 31 54.8102 31 54.9286Z" fill="#15003E"/>
</g>
<path id="path310_2" d="M42.1429 50H36.5714V47.4286H42.1429V50Z" fill="#15003E"/>
<g id="g312_2">
<path id="path314_2" d="M32.7143 69.2857V65.5245C32.7143 64.9981 33.1185 64.5714 33.6168 64.5714H34.3831C34.8816 64.5714 35.2857 64.9981 35.2857 65.5245V69.2857" fill="#8148DF"/>
<path id="path314 (Stroke)_2" fill-rule="evenodd" clip-rule="evenodd" d="M32.6623 69.7143C32.8703 69.7143 33.0389 69.5403 33.0389 69.3256V65.5007C33.0389 65.1802 33.2908 64.9203 33.6013 64.9203H34.3986C34.7093 64.9203 34.9611 65.1802 34.9611 65.5007V69.3256C34.9611 69.5403 35.1297 69.7143 35.3377 69.7143C35.5457 69.7143 35.7143 69.5403 35.7143 69.3256V65.5007C35.7143 64.7508 35.1252 64.1429 34.3986 64.1429H33.6013C32.8749 64.1429 32.2857 64.7508 32.2857 65.5007V69.3256C32.2857 69.5403 32.4543 69.7143 32.6623 69.7143Z" fill="#15003E"/>
</g>
<g id="g316_2">
<path id="path318_2" d="M35.2857 69.2858C35.2857 68.5757 34.7101 68 34.0001 68C33.2899 68 32.7143 68.5757 32.7143 69.2858C32.7143 69.9959 33.2899 70.5714 34.0001 70.5714C34.7101 70.5714 35.2857 69.9959 35.2857 69.2858Z" fill="#25E899"/>
</g>
<g id="g320_2">
<path id="path322 (Stroke)_2" fill-rule="evenodd" clip-rule="evenodd" d="M34.0001 70.2468C33.4692 70.2468 33.0389 69.8165 33.0389 69.2858C33.0389 68.755 33.4692 68.3247 34.0001 68.3247C34.5308 68.3247 34.9611 68.755 34.9611 69.2858C34.9611 69.8165 34.5308 70.2468 34.0001 70.2468ZM32.2857 69.2858C32.2857 70.2326 33.0533 71 34.0001 71C34.9467 71 35.7143 70.2326 35.7143 69.2858C35.7143 68.339 34.9468 67.5714 34.0001 67.5714C33.0533 67.5714 32.2857 68.339 32.2857 69.2858Z" fill="#15003E"/>
</g>
<g id="g324_2">
<path id="path326 (Stroke)_2" fill-rule="evenodd" clip-rule="evenodd" d="M65.6609 62.9883C64.8968 62.9883 64.2773 62.3513 64.2773 61.5655V48.2918C64.2773 47.506 64.8968 46.8689 65.6609 46.8689H67.4821C68.2462 46.8689 68.8656 47.506 68.8656 48.2918V61.5655C68.8656 62.3514 68.2463 62.9883 67.4821 62.9883H65.6609ZM63.5714 61.5655C63.5714 62.7524 64.507 63.7143 65.6609 63.7143H67.4821C68.6361 63.7143 69.5714 62.7523 69.5714 61.5655V48.2918C69.5714 47.1051 68.6362 46.1429 67.4821 46.1429H65.6609C64.507 46.1429 63.5714 47.1051 63.5714 48.2918V61.5655Z" fill="#15003E"/>
</g>
<g id="g328_2">
<path id="path330 (Stroke)_2" fill-rule="evenodd" clip-rule="evenodd" d="M63.5714 51.7143C63.5714 51.951 63.7295 52.1429 63.9244 52.1429H69.2185C69.4134 52.1429 69.5714 51.951 69.5714 51.7143C69.5714 51.4776 69.4134 51.2857 69.2185 51.2857H63.9244C63.7295 51.2857 63.5714 51.4776 63.5714 51.7143Z" fill="#15003E"/>
</g>
<g id="g332_2">
<path id="path334 (Stroke)_2" fill-rule="evenodd" clip-rule="evenodd" d="M63.5714 54.9286C63.5714 55.0469 63.7295 55.1429 63.9244 55.1429H69.2185C69.4134 55.1429 69.5714 55.0469 69.5714 54.9286C69.5714 54.8102 69.4134 54.7143 69.2185 54.7143H63.9244C63.7295 54.7143 63.5714 54.8102 63.5714 54.9286Z" fill="#15003E"/>
</g>
<g id="g336_2">
<path id="path338 (Stroke)_2" fill-rule="evenodd" clip-rule="evenodd" d="M66.5714 52.1429C66.8081 52.1429 67 51.9765 67 51.7713V46.5145C67 46.3092 66.8081 46.1429 66.5714 46.1429C66.3347 46.1429 66.1429 46.3092 66.1429 46.5145V51.7713C66.1429 51.9765 66.3347 52.1429 66.5714 52.1429Z" fill="#15003E"/>
</g>
<path id="path340_2" d="M58.4286 50H64V47.4286H58.4286V50Z" fill="#15003E"/>
<g id="g342_2">
<path id="path344_2" d="M67.8571 61.1429V57.3817C67.8571 56.8554 67.453 56.4286 66.9546 56.4286H66.1884C65.6898 56.4286 65.2857 56.8554 65.2857 57.3817V61.1429" fill="#8148DF"/>
<path id="path344 (Stroke)_2" fill-rule="evenodd" clip-rule="evenodd" d="M65.2337 61.5714C65.4417 61.5714 65.6103 61.4108 65.6103 61.2126V57.6821C65.6103 57.3862 65.8622 57.1462 66.1729 57.1462H66.9701C67.2806 57.1462 67.5325 57.3862 67.5325 57.6821V61.2126C67.5325 61.4108 67.7011 61.5714 67.9091 61.5714C68.1171 61.5714 68.2857 61.4108 68.2857 61.2126V57.6821C68.2857 56.9899 67.6966 56.4286 66.9701 56.4286H66.1729C65.4461 56.4286 64.8571 56.9899 64.8571 57.6821V61.2126C64.8571 61.4108 65.0258 61.5714 65.2337 61.5714Z" fill="#15003E"/>
</g>
<g id="g346_2">
<path id="path348_2" d="M65.2857 61.1428C65.2857 60.4327 65.8614 59.8571 66.5713 59.8571C67.2814 59.8571 67.8571 60.4327 67.8571 61.1428C67.8571 61.853 67.2814 62.4286 66.5713 62.4286C65.8614 62.4286 65.2857 61.853 65.2857 61.1428Z" fill="#25E899"/>
</g>
<g id="g350_2">
<path id="path352 (Stroke)_2" fill-rule="evenodd" clip-rule="evenodd" d="M64.8571 61.1428C64.8571 62.0897 65.6247 62.8571 66.5713 62.8571C67.518 62.8571 68.2857 62.0898 68.2857 61.1428C68.2857 60.1959 67.518 59.4286 66.5713 59.4286C65.6247 59.4286 64.8571 60.196 64.8571 61.1428ZM66.5713 62.1039C66.0407 62.1039 65.6103 61.6737 65.6103 61.1428C65.6103 60.612 66.0406 60.1818 66.5713 60.1818C67.1022 60.1818 67.5325 60.6121 67.5325 61.1428C67.5325 61.6736 67.1022 62.1039 66.5713 62.1039Z" fill="#15003E"/>
</g>
<path id="path358 (Stroke)_2" fill-rule="evenodd" clip-rule="evenodd" d="M43.509 43.5714H56.206L56.2903 43.3219L55.9382 43.2072C56.2903 43.3219 56.2904 43.3218 56.2904 43.3218L56.2913 43.3191L56.2935 43.3125C56.2954 43.3068 56.2981 43.2987 56.3015 43.2882C56.3083 43.2672 56.3181 43.2369 56.3301 43.1986C56.3542 43.122 56.3872 43.0133 56.424 42.883C56.497 42.6238 56.5861 42.2735 56.646 41.9197C56.7043 41.5752 56.742 41.1897 56.6887 40.8764C56.662 40.7196 56.6065 40.5423 56.4835 40.3992C56.3469 40.2402 56.1539 40.155 55.9329 40.1582C53.9724 40.1859 52.2382 40.1733 50.369 40.1598L50.2817 40.1591C48.3794 40.1453 46.3338 40.1312 43.7721 40.1581C43.5513 40.1605 43.3617 40.2499 43.2283 40.4085C43.1075 40.5522 43.0522 40.7287 43.0256 40.8861C42.9723 41.2003 43.0099 41.5849 43.0683 41.9284C43.1283 42.2809 43.2174 42.6292 43.2905 42.8868C43.3273 43.0163 43.3604 43.1243 43.3844 43.2003C43.3964 43.2383 43.4062 43.2684 43.4131 43.2892C43.4165 43.2997 43.4192 43.3078 43.4211 43.3134L43.4233 43.32L43.4242 43.3226C43.4242 43.3227 43.4243 43.3228 43.7761 43.2072L43.4243 43.3228L43.509 43.5714ZM44.0495 42.843C44.0358 42.7973 44.0209 42.7464 44.0053 42.6913C43.9359 42.447 43.8541 42.1259 43.8001 41.8084C43.7446 41.4818 43.7252 41.1958 43.7574 41.0057C43.7684 40.9407 43.7828 40.9043 43.7919 40.8864C46.3408 40.8596 48.3772 40.8737 50.2762 40.8875L50.3664 40.8882C52.2283 40.9017 53.9648 40.9143 55.9264 40.8867C55.9279 40.8899 55.9295 40.8937 55.9312 40.8979C55.9401 40.9201 55.9494 40.9523 55.9569 40.9964C55.989 41.1853 55.9697 41.4718 55.9141 41.8002C55.8601 42.1193 55.7782 42.4426 55.7089 42.6888C55.6931 42.7449 55.678 42.7966 55.6642 42.843H44.0495Z" fill="#15003E"/>
<g id="g360_2">
<path id="path362 (Stroke)_2" fill-rule="evenodd" clip-rule="evenodd" d="M45.1429 39.2857C45.1429 39.5224 45.3029 39.7143 45.5004 39.7143H54.6425C54.8399 39.7143 55 39.5224 55 39.2857C55 39.049 54.8399 38.8571 54.6425 38.8571H45.5004C45.3029 38.8571 45.1429 39.049 45.1429 39.2857Z" fill="#25E899"/>
</g>
<g id="g364_2">
<path id="path366_2" d="M43.4286 31.5714H55.2813L56.2857 31.9895L53.965 34.8171L45.8515 35L43.4286 31.5714Z" fill="#25E899"/>
</g>
<g id="g368_2">
<path id="path370_2" d="M53.8534 38H45.8608C44.9909 38 44.2857 37.2629 44.2857 36.3536V34.5714H55.4286V36.3536C55.4286 37.2629 54.7233 38 53.8534 38Z" fill="#8148DF"/>
</g>
<g id="g376_2">
<path id="path378_2" d="M47.6629 31.5714C45.9267 30.8035 44.7143 29.0565 44.7143 27.0243C44.7143 25.8248 45.2967 24.858 46 24C46.9038 22.8966 52.4304 22.7073 53.3334 23.734C54.1037 24.6099 55 25.7377 55 27C55 29.0321 53.3591 30.8033 51.6232 31.5713" fill="#0FCE7C"/>
</g>
<g id="g380_2">
<path id="path382 (Stroke)_2" fill-rule="evenodd" clip-rule="evenodd" d="M47.6799 31.7976C47.7621 31.619 47.6918 31.4038 47.5229 31.3169C46.0085 30.5377 44.966 28.8955 44.966 26.9964C44.966 26.0438 45.2279 25.1569 45.6797 24.4108C45.781 24.2435 45.7349 24.0211 45.5767 23.914C45.4185 23.8068 45.2081 23.8556 45.1068 24.0229C44.587 24.8814 44.2857 25.9023 44.2857 26.9964C44.2857 29.1811 45.4857 31.0687 47.2253 31.9637C47.3942 32.0506 47.5978 31.9762 47.6799 31.7976Z" fill="#15003E"/>
</g>
<g id="g384_2">
<path id="path386 (Stroke)_2" fill-rule="evenodd" clip-rule="evenodd" d="M51.6126 31.797C51.7087 31.9785 51.9421 32.0519 52.1338 31.961C54.0867 31.0351 55.4286 29.123 55.4286 26.9137C55.4286 25.6666 55.0005 24.513 54.276 23.5787C54.1491 23.415 53.906 23.3797 53.7331 23.4998C53.5602 23.6199 53.5229 23.8499 53.6498 24.0136C54.2799 24.826 54.6518 25.8283 54.6518 26.9137C54.6518 28.8342 53.4862 30.4977 51.7859 31.3038C51.5942 31.3947 51.5166 31.6155 51.6126 31.797Z" fill="#15003E"/>
</g>
<g id="g392_2">
<path id="path394 (Stroke)_2" fill-rule="evenodd" clip-rule="evenodd" d="M40.8571 26.8571C41.0938 26.8571 41.2857 26.6961 41.2857 26.4975V19.5025C41.2857 19.3039 41.0938 19.1429 40.8571 19.1429C40.6205 19.1429 40.4286 19.3039 40.4286 19.5025V26.4975C40.4286 26.6961 40.6205 26.8571 40.8571 26.8571Z" fill="#15003E"/>
</g>
<g id="g396_2">
<path id="path398 (Stroke)_2" fill-rule="evenodd" clip-rule="evenodd" d="M59.0714 26.8571C59.1898 26.8571 59.2857 26.6933 59.2857 26.4913V17.3659C59.2857 17.1638 59.1898 17 59.0714 17C58.9531 17 58.8571 17.1638 58.8571 17.3659V26.4913C58.8571 26.6933 58.9531 26.8571 59.0714 26.8571Z" fill="#15003E"/>
</g>
<g id="g400_2">
<path id="path402 (Stroke)_2" fill-rule="evenodd" clip-rule="evenodd" d="M38.7143 30.4696C38.7143 31.3123 39.3718 32 40.1772 32H40.9292C41.1261 32 41.2857 31.833 41.2857 31.6271C41.2857 31.4211 41.1261 31.2541 40.9292 31.2541H40.1772C39.7655 31.2541 39.4273 30.9003 39.4273 30.4696V27.5304C39.4273 27.0998 39.7655 26.7459 40.1772 26.7459H40.496C40.6929 26.7459 40.8525 26.5789 40.8525 26.3729C40.8525 26.167 40.6929 26 40.496 26H40.1772C39.3718 26 38.7143 26.6878 38.7143 27.5304V30.4696Z" fill="#15003E"/>
</g>
<g id="g404_2">
<path id="path406 (Stroke)_2" fill-rule="evenodd" clip-rule="evenodd" d="M58.4286 30.7699C58.4286 30.9759 58.5882 31.1429 58.785 31.1429H59.5372C60.3424 31.1429 61 30.4552 61 29.6125V26.6732C61 25.8307 60.3424 25.1429 59.5372 25.1429H59.2183C59.0214 25.1429 58.8618 25.3098 58.8618 25.5158C58.8618 25.7218 59.0214 25.8887 59.2183 25.8887H59.5372C59.9487 25.8887 60.2871 26.2426 60.2871 26.6732V29.6125C60.2871 30.0432 59.9487 30.397 59.5372 30.397H58.785C58.5882 30.397 58.4286 30.564 58.4286 30.7699Z" fill="#15003E"/>
</g>
<g id="g408_2">
<path id="path410 (Stroke)_2" fill-rule="evenodd" clip-rule="evenodd" d="M42.1102 26.7547C42.2546 26.8936 42.4861 26.8909 42.6271 26.7486C44.4837 24.876 47.0458 23.7199 49.8744 23.7199C52.5493 23.7199 54.9853 24.7535 56.8123 26.4492C56.9592 26.5855 57.1906 26.5788 57.329 26.4341C57.4675 26.2894 57.4607 26.0616 57.3137 25.9253C55.3582 24.1102 52.7452 23 49.8744 23C46.8383 23 44.0906 24.2419 42.104 26.2457C41.963 26.3879 41.9657 26.6158 42.1102 26.7547Z" fill="#15003E"/>
</g>
<g id="g412_2">
<path id="path414 (Stroke)_2" fill-rule="evenodd" clip-rule="evenodd" d="M43 31.7857C43 31.9041 43.1666 32 43.372 32H56.3423C56.5477 32 56.7143 31.9041 56.7143 31.7857C56.7143 31.6674 56.5477 31.5714 56.3423 31.5714H43.372C43.1666 31.5714 43 31.6674 43 31.7857Z" fill="#15003E"/>
</g>
<g id="g416_2">
<path id="path418_2" d="M52.4286 25.5714C52.4286 26.2816 51.8529 26.8571 51.1429 26.8571C50.4327 26.8571 49.8571 26.2816 49.8571 25.5714C49.8571 24.8613 50.4327 24.2857 51.1429 24.2857C51.8529 24.2857 52.4286 24.8613 52.4286 25.5714Z" fill="white"/>
</g>
<g id="g420_2">
<path id="path422_2" d="M53.2857 27.5C53.2857 27.855 53.094 28.1429 52.8572 28.1429C52.6205 28.1429 52.4286 27.855 52.4286 27.5C52.4286 27.145 52.6205 26.8571 52.8572 26.8571C53.094 26.8571 53.2857 27.145 53.2857 27.5Z" fill="white"/>
</g>
<g id="g424_2">
<path id="path426 (Stroke)_2" fill-rule="evenodd" clip-rule="evenodd" d="M45.3109 33.0367C48.4059 34.8322 52.0656 34.1109 54.3545 33.1902C54.5389 33.116 54.6219 32.9208 54.5397 32.7542C54.4576 32.5876 54.2415 32.5127 54.057 32.5869C51.8522 33.4738 48.4909 34.0966 45.7061 32.481C45.5362 32.3824 45.31 32.4269 45.2009 32.5804C45.0918 32.7338 45.141 32.9381 45.3109 33.0367Z" fill="#15003E"/>
</g>
</g>
</g>
<path id="path4438_3" d="M48.5098 45.0124C47.9949 45.0183 47.481 45.2201 47.0812 45.6199C46.2572 46.444 46.2405 47.785 47.0441 48.6263C47.929 49.6432 49.0132 50.6573 49.9636 51.6752C50.9077 50.6469 51.9856 49.6211 52.8641 48.5945C53.6625 47.7444 53.6374 46.4036 52.8083 45.5886C52.0038 44.7977 50.748 44.8033 49.9447 45.5809C49.5407 45.1965 49.0248 45.0065 48.5098 45.0124Z" fill="#25E899"/>
<path id="path4438 (Stroke)_2" fill-rule="evenodd" clip-rule="evenodd" d="M49.9434 45.1761C50.8644 44.4705 52.1684 44.5269 53.0246 45.3685C53.9714 46.2992 54.0015 47.8274 53.0936 48.7999C52.569 49.4124 51.9613 50.0381 51.3614 50.6558C50.9584 51.0707 50.5589 51.482 50.1904 51.8833C50.1323 51.9467 50.0504 51.9829 49.9646 51.9834C49.8787 51.9839 49.7966 51.9485 49.7381 51.8858C49.3672 51.4885 48.9651 51.0816 48.5596 50.6711C47.9558 50.06 47.3443 49.4409 46.8159 48.8342C45.902 47.8716 45.9226 46.3432 46.8635 45.4022L46.8635 45.4022C47.3216 44.9441 47.9132 44.7109 48.507 44.7041L48.507 44.7041C49.0127 44.6983 49.5184 44.8567 49.9434 45.1761ZM52.5919 45.8087C51.9074 45.1358 50.8427 45.1401 50.1588 45.8021C50.0399 45.9173 49.8516 45.9183 49.7319 45.8045C49.387 45.4763 48.9489 45.3156 48.5126 45.3206C48.0766 45.3256 47.6404 45.4961 47.2989 45.8376C46.5936 46.543 46.5791 47.6927 47.2672 48.4131C47.2705 48.4166 47.2737 48.4201 47.2768 48.4237C47.8005 49.0255 48.3818 49.6132 48.9713 50.2092C49.3019 50.5435 49.6351 50.8804 49.9622 51.2239C50.2872 50.8769 50.6183 50.5363 50.9468 50.1984C51.5326 49.596 52.1102 49.0019 52.6301 48.3944C52.6332 48.3908 52.6364 48.3872 52.6396 48.3838C53.3233 47.6558 53.3017 46.5063 52.5919 45.8087Z" fill="#15003E"/>
<path id="path1923_2" d="M33.2454 58.4135C32.9796 58.4165 32.7144 58.5207 32.508 58.727C32.0827 59.1524 32.0741 59.8445 32.4888 60.2788C32.9456 60.8036 33.5052 61.327 33.9957 61.8524C34.483 61.3216 35.0393 60.7922 35.4928 60.2623C35.9048 59.8236 35.8919 59.1315 35.464 58.7109C35.0487 58.3027 34.4005 58.3056 33.9859 58.7069C33.7774 58.5085 33.5111 58.4104 33.2454 58.4135Z" fill="#25E899"/>
<path id="path1923 (Stroke)_2" fill-rule="evenodd" clip-rule="evenodd" d="M33.9847 58.3031C34.514 57.9643 35.2175 58.0204 35.6881 58.4829C36.2378 59.0233 36.256 59.9094 35.7306 60.4749C35.4587 60.7921 35.1374 61.1231 34.8246 61.4454C34.6173 61.6589 34.4137 61.8687 34.2307 62.068C34.1705 62.1336 34.0857 62.1712 33.9967 62.1717C33.9078 62.1721 33.8227 62.1355 33.7621 62.0706C33.5778 61.8732 33.373 61.6657 33.1644 61.4545C32.8495 61.1356 32.5262 60.8081 32.2523 60.494C31.7234 59.9341 31.7361 59.0479 32.2825 58.5015L32.2825 58.5015C32.5493 58.2348 32.895 58.0982 33.2425 58.0942L33.2425 58.0942C33.5006 58.0912 33.7585 58.1614 33.9847 58.3031ZM35.2399 58.9388C34.9489 58.6529 34.4986 58.6545 34.2077 58.9361C34.0846 59.0553 33.8895 59.0564 33.7656 58.9385C33.6183 58.7983 33.4325 58.7306 33.2483 58.7327M33.2483 58.7327C33.0642 58.7348 32.8795 58.8066 32.7335 58.9525C32.4311 59.255 32.4248 59.7489 32.72 60.0579C32.7234 60.0615 32.7267 60.0651 32.7299 60.0688C32.9988 60.3778 33.2908 60.6728 33.5908 60.976C33.7241 61.1108 33.8591 61.2471 33.9943 61.387C34.1286 61.2456 34.2627 61.1078 34.3952 60.9716C34.6933 60.6652 34.9835 60.3669 35.2504 60.055C35.2536 60.0513 35.2569 60.0476 35.2603 60.044C35.5535 59.7318 35.5441 59.2379 35.2399 58.9388" fill="#15003E"/>
<path id="path1925 (Stroke)_2" fill-rule="evenodd" clip-rule="evenodd" d="M49.9357 22.0533C52.1451 20.074 55.4359 20.1361 57.5659 22.3026C59.8294 24.6048 59.899 28.3839 57.724 30.7866C56.3739 32.4182 54.8284 34.0642 53.2905 35.702C52.2496 36.8106 51.2122 37.9154 50.2414 39.0094C50.1767 39.0823 50.0842 39.1242 49.987 39.1248C49.8897 39.1253 49.7969 39.0844 49.7318 39.0123C48.7545 37.9293 47.7105 36.8362 46.6629 35.7395C45.1153 34.1191 43.5599 32.4906 42.2001 30.8744C40.0107 28.4964 40.0576 24.7166 42.3072 22.3889L42.3072 22.3889C43.402 21.2561 44.8146 20.68 46.2337 20.6632L46.2337 20.6632C47.5513 20.6476 48.8681 21.1142 49.9357 22.0533ZM57.0777 22.7827C55.1369 20.8087 52.1166 20.8223 50.1787 22.7634C50.0458 22.8965 49.8306 22.8977 49.6969 22.7661C48.7197 21.8042 47.4769 21.3323 46.24 21.347C45.0034 21.3616 43.7655 21.8626 42.7983 22.8634C40.7997 24.9314 40.7586 28.3034 42.7085 30.4157C42.712 30.4195 42.7155 30.4235 42.7188 30.4275C44.0737 32.0384 45.5962 33.6316 47.1283 35.235C48.0896 36.2409 49.0546 37.2508 49.9844 38.2715C50.908 37.2404 51.8669 36.2196 52.8221 35.2028C54.3445 33.5822 55.8574 31.9717 57.2026 30.3456C57.2059 30.3415 57.2093 30.3375 57.2129 30.3336C59.15 28.1994 59.0886 24.828 57.0777 22.7827Z" fill="#15003E"/>
</g>
</g>
</g>
<defs>
<clipPath id="clip0">
<rect width="100" height="100" fill="white"/>
</clipPath>
</defs>
</svg>
