<?xml version="1.0" encoding="utf-8"?>
<!-- Generator: Adobe Illustrator 23.0.5, SVG Export Plug-In . SVG Version: 6.00 Build 0)  -->
<svg version="1.1" id="Layer_1" xmlns="http://www.w3.org/2000/svg" xmlns:xlink="http://www.w3.org/1999/xlink" x="0px" y="0px"
	 viewBox="0 0 2414 2787.6" style="enable-background:new 0 0 2414 2787.6;" xml:space="preserve">
<style type="text/css">
	.st0{fill:#135384;}
	.st1{fill:none;stroke:#9FA4FF;stroke-width:0.1;stroke-miterlimit:10;}
	.st2{fill:#FADBA5;}
	.st3{fill:#0000CE;}
	.st4{opacity:0.25;fill:none;stroke:#000000;stroke-width:20;stroke-miterlimit:10;enable-background:new    ;}
	.st5{fill:#FFFFFF;}
	.st6{fill:#AC2E18;}
	.st7{fill:#20B1F2;}
</style>
<title>kudos vide</title>
<g id="RF">
	<polygon class="st0" points="2414,696.9 2414,2090.7 1207.4,2787.5 1206.9,2787.5 0,2090.7 0,696.9 1207.1,0 	"/>
</g>
<image style="overflow:visible;" width="181" height="241" xlink:href="CFBA6816.png"  transform="matrix(4.5021 0 0 4.5021 243.568 1233.1605)">
</image>
<image style="overflow:visible;enable-background:new    ;" width="165" height="225" xlink:href="CFBA681A.png"  transform="matrix(5.1428 0 0 5.1428 1321.8167 1232.6255)">
</image>
<image style="overflow:visible;enable-background:new    ;" width="230" height="242" xlink:href="CFBA681D.png"  transform="matrix(4.5052 0 0 4.5052 558.4404 1520.3334)">
</image>
<image style="overflow:visible;enable-background:new    ;" width="141" height="177" xlink:href="CFBA681E.png"  transform="matrix(3.995 0 0 3.995 915.8664 320.7606)">
</image>
<rect x="915.9" y="927.2" class="st0" width="125.9" height="149"/>
<g>
	<path class="st1" d="M2193.5,656.6c-9.6,0.5-18.7-1.4-27.3-5.7c-17.6-6.2-34.4-14.7-50.3-24.5c-62.1-38-113.3-90.1-172.4-132
		c-13.7-8.9-27.9-16.6-42.3-24.4c-64.3-35.2-126.5-74-188.6-112.8c-10-6.3-19.6-14.3-24.8-25.1c-4.1-0.9-8.1-2.4-11.9-4.2
		c-19-5.7-38.3-10.4-57.9-13.6c-14.6-2.4-26.6-12.3-34.9-24c-3.7-5.2-6-11.1-7.2-17.2H844.1c-3.1,13.2-12.2,26.7-23.7,33.7
		c-3.8,2.3-7.8,4.5-11.8,6.6c-38.3,21.9-74.7,47.1-110.1,73.4c-69,51.4-134.8,107.3-208.1,152.8c-38.3,23.8-78.9,44.3-120.2,62.3
		c-33.9,14.8-68.7,27.4-102.4,42.7c-10.7,5.2-21.2,10.7-31.4,16.7V2194c10.2-1,20.7,0.8,30.3,5.3c34.8,16.5,67.2,37.3,99.1,58.7
		c28.7,19.2,57.1,38.8,86.7,56.4c28.2,16.7,57.6,31.2,86.2,47.2c61.6,34.4,122.8,71.9,176.4,118.1c5.4,4.7,9.6,10.6,12.4,17
		c14.4-0.4,28.8-0.7,43.3-0.7c15,0,27.8,4.5,39.3,13.9c11.2,9.2,16.6,23.6,18,37.6c0.2,2.1,0.2,4.2,0.1,6.3h730
		c6.5-4.5,13.7-7.4,21.5-9.1c2-9.9,6.9-19.6,13.1-26.5c8.9-9.8,24.1-18,37.6-18h30.2c1.9-6.2,5.2-11.8,9.9-16.6
		c3.7-3.2,7.4-6.3,11.1-9.5c35.2-18.7,71.7-34.8,107.8-51.6c8.2-3.9,16.3-7.8,24.4-11.8c34.8-22.5,70.5-43.4,106.7-63.6
		c33.2-22.3,65.8-45.4,99-67.6c52-34.9,105.5-67,163-92.1c6.2-1.9,12.5-2.8,18.8-2.5c2.4-1.5,4.8-3,7.3-4.5c0.9-0.6,1.9-1.1,2.8-1.6
		V652.4C2205.9,654.8,2199.9,656.2,2193.5,656.6z"/>
	<path class="st1" d="M1579.3,305.5c-246.3,0.1-492.3,0.1-738.4-0.3"/>
	<path class="st1" d="M1665.5,337.5c-291.5,0.1-581.5,0.1-872.2-0.2"/>
	<path class="st1" d="M1708.4,369.5c-319.4,0.1-639.4,0.1-958.2-0.1"/>
	<path class="st1" d="M1764.5,401.6c-355.5,0-710.5,0-1066.2,0"/>
	<path class="st1" d="M1812.2,433.6c-384.2,0-769.2,0-1152.8,0.1"/>
	<path class="st1" d="M1864,465.7c-415-0.1-829-0.1-1243.6,0.1"/>
	<path class="st1" d="M1929.3,497.8c-452.3-0.2-904.3-0.2-1356.3,0.1"/>
	<path class="st1" d="M1967.6,529.9c-479.6-0.3-957.6-0.3-1437.7,0.2"/>
	<path class="st1" d="M2010.9,562.3c-510.9,0.3-1021.9,0.3-1533-0.1"/>
	<path class="st1" d="M2050,594.4c-545,0.2-1088,0.2-1632.6-0.1"/>
	<path class="st1" d="M2097.7,626.5c-584.7,0.1-1168.7,0.1-1753.7,0"/>
	<path class="st1" d="M2211.7,658.6c-645.7,0-1290.7,0-1936.8,0"/>
	<line class="st1" x1="2211.7" y1="690.7" x2="236.5" y2="690.7"/>
	<line class="st1" x1="2211.7" y1="722.8" x2="236.5" y2="722.8"/>
	<line class="st1" x1="2211.7" y1="754.9" x2="236.5" y2="754.9"/>
	<line class="st1" x1="2211.7" y1="787.1" x2="236.5" y2="787.1"/>
	<line class="st1" x1="2211.7" y1="819.2" x2="236.5" y2="819.2"/>
	<line class="st1" x1="2211.7" y1="851.3" x2="236.5" y2="851.3"/>
	<line class="st1" x1="2211.7" y1="883.4" x2="236.5" y2="883.4"/>
	<line class="st1" x1="2211.7" y1="915.6" x2="236.5" y2="915.6"/>
	<line class="st1" x1="2211.7" y1="947.7" x2="236.5" y2="947.7"/>
	<line class="st1" x1="2211.7" y1="979.8" x2="236.5" y2="979.8"/>
	<line class="st1" x1="2211.7" y1="1011.9" x2="236.5" y2="1011.9"/>
	<line class="st1" x1="2211.7" y1="1044.1" x2="236.5" y2="1044.1"/>
	<line class="st1" x1="2211.7" y1="1076.2" x2="236.5" y2="1076.2"/>
	<line class="st1" x1="2211.7" y1="1108.3" x2="236.5" y2="1108.3"/>
	<line class="st1" x1="2211.7" y1="1140.4" x2="236.5" y2="1140.4"/>
	<line class="st1" x1="2211.7" y1="1172.6" x2="236.5" y2="1172.6"/>
	<line class="st1" x1="2211.7" y1="1204.7" x2="236.5" y2="1204.7"/>
	<line class="st1" x1="2211.7" y1="1236.8" x2="236.5" y2="1236.8"/>
	<line class="st1" x1="2211.7" y1="1268.9" x2="236.5" y2="1268.9"/>
	<line class="st1" x1="2211.7" y1="1301.1" x2="236.5" y2="1301.1"/>
	<line class="st1" x1="2211.7" y1="1333.2" x2="236.5" y2="1333.2"/>
	<line class="st1" x1="2211.7" y1="1365.3" x2="236.5" y2="1365.3"/>
	<line class="st1" x1="2211.7" y1="1397.4" x2="236.5" y2="1397.4"/>
	<line class="st1" x1="2211.7" y1="1429.6" x2="236.5" y2="1429.6"/>
	<line class="st1" x1="2211.7" y1="1461.7" x2="236.5" y2="1461.7"/>
	<line class="st1" x1="2211.7" y1="1493.8" x2="236.5" y2="1493.8"/>
	<line class="st1" x1="2211.7" y1="1525.9" x2="236.5" y2="1525.9"/>
	<line class="st1" x1="2211.7" y1="1558.1" x2="236.5" y2="1558.1"/>
	<line class="st1" x1="2211.7" y1="1590.2" x2="236.5" y2="1590.2"/>
	<line class="st1" x1="2211.7" y1="1622.3" x2="236.5" y2="1622.3"/>
	<line class="st1" x1="2211.7" y1="1654.4" x2="236.5" y2="1654.4"/>
	<line class="st1" x1="2211.7" y1="1686.6" x2="236.5" y2="1686.6"/>
	<line class="st1" x1="2211.7" y1="1718.7" x2="236.5" y2="1718.7"/>
	<line class="st1" x1="2211.7" y1="1750.8" x2="236.5" y2="1750.8"/>
	<line class="st1" x1="2211.7" y1="1782.9" x2="236.5" y2="1782.9"/>
	<line class="st1" x1="2211.7" y1="1815.1" x2="236.5" y2="1815.1"/>
	<line class="st1" x1="2211.7" y1="1847.2" x2="236.5" y2="1847.2"/>
	<line class="st1" x1="2211.7" y1="1879.3" x2="236.5" y2="1879.3"/>
	<line class="st1" x1="2211.7" y1="1911.4" x2="236.5" y2="1911.4"/>
	<line class="st1" x1="2211.7" y1="1943.6" x2="236.5" y2="1943.6"/>
	<line class="st1" x1="2211.7" y1="1975.7" x2="236.5" y2="1975.7"/>
	<line class="st1" x1="2211.7" y1="2007.8" x2="236.5" y2="2007.8"/>
	<line class="st1" x1="2211.7" y1="2039.9" x2="236.5" y2="2039.9"/>
	<line class="st1" x1="2211.7" y1="2072.1" x2="236.5" y2="2072.1"/>
	<line class="st1" x1="2211.7" y1="2104.2" x2="236.5" y2="2104.2"/>
	<line class="st1" x1="2211.7" y1="2136.3" x2="236.5" y2="2136.3"/>
	<line class="st1" x1="2211.7" y1="2168.4" x2="236.5" y2="2168.4"/>
	<path class="st1" d="M2127.9,2200.6c-610.9,0-1219.9,0-1831.3,0"/>
	<path class="st1" d="M2076.1,2232.7c-576.1-0.1-1152.1-0.1-1727.7,0"/>
	<path class="st1" d="M2020,2264.8c-540-0.2-1080-0.2-1619.9-0.1"/>
	<path class="st1" d="M1976.8,2296.9c-509.8-0.3-1018.8-0.3-1529.2-0.1"/>
	<path class="st1" d="M1924.9,2329.1c-473.9-0.5-946.9-0.5-1420.6-0.2"/>
	<path class="st1" d="M1873,2361.2c-438,0.4-875,0.4-1312.8,0.2"/>
	<path class="st1" d="M1816.9,2393.3c-398.9,0.3-797.9,0.3-1196.5,0.2"/>
	<path class="st1" d="M1756.4,2425.4c-364.4,0.2-728.4,0.2-1092.5,0.1"/>
	<path class="st1" d="M1691.5,2457.6c-328.5,0-656.5,0-984.1,0"/>
	<path class="st1" d="M1618.2,2489.7c-274.2-0.1-547.2-0.1-820.8-0.1"/>
	<path class="st1" d="M1648.5,2489.7c-2.8,0-5.5,0-8.3,0"/>
	<path class="st1" d="M1574.8,2521.8c-246.8-0.2-494.8-0.2-742.2-0.2"/>
	<path class="st1" d="M264.2,2185.3C264,1678.6,264,1171.6,264.3,665"/>
	<path class="st1" d="M292.1,2198c-0.1-517.4-0.1-1033.4,0-1550.2"/>
	<path class="st1" d="M320,2215.5c0-525.9,0-1050.9,0-1576.5"/>
	<path class="st1" d="M347.9,2227.9c0.1-534.3,0.1-1068.3-0.1-1601.9"/>
	<path class="st1" d="M375.7,2245.3c0.3-544.7,0.3-1087.7-0.2-1632.3"/>
	<path class="st1" d="M403.2,2267.1C403,1711.6,403,1155.6,403.4,600"/>
	<path class="st1" d="M431.1,2284.7c-0.1-566.1-0.1-1131.1,0.1-1697.5"/>
	<path class="st1" d="M459,2301.4c0-575.8,0-1150.8,0-1727.2"/>
	<path class="st1" d="M486.9,2318.8c0.1-588.2,0.1-1174.2,0-1761.9"/>
	<path class="st1" d="M514.8,2336.4c0.2-598.8,0.2-1197.8-0.1-1796.8"/>
	<path class="st1" d="M542.4,2349.6c-0.4-609-0.4-1218,0.1-1827.1"/>
	<path class="st1" d="M570.2,2366.5c-0.2-621.9-0.2-1243.9,0.1-1865.8"/>
	<path class="st1" d="M598.1,2379.7c-0.1-634.1-0.1-1267.1,0-1900.6"/>
	<path class="st1" d="M626,2401.4c0-647.8,0-1295.8,0-1943.8"/>
	<path class="st1" d="M653.8,2418.2c0.2-659.6,0.2-1317.6,0-1978"/>
	<path class="st1" d="M681.6,2439.9c0.4-675.3,0.4-1350.3-0.1-2025.6"/>
	<path class="st1" d="M709.4,2457.4c-0.4-686.8-0.4-1373.8,0.1-2060.3"/>
	<path class="st1" d="M737.2,2487.5c-0.2-703.9-0.2-1407.9,0-2112.1"/>
	<path class="st1" d="M765,2483.3c0-708.7,0-1415.7,0-2125.1"/>
	<path class="st1" d="M792.9,2487.5c0.1-715.9,0.1-1430.9,0-2146.7"/>
	<path class="st1" d="M820.7,2505c0.3-727.4,0.3-1454.4,0-2181.4"/>
	<line class="st1" x1="848.5" y1="2553.9" x2="848.5" y2="273.1"/>
	<line class="st1" x1="876.3" y1="2553.9" x2="876.3" y2="273.1"/>
	<line class="st1" x1="904.1" y1="2553.9" x2="904.1" y2="273.1"/>
	<line class="st1" x1="932" y1="2553.9" x2="932" y2="273.1"/>
	<line class="st1" x1="959.8" y1="2553.9" x2="959.8" y2="273.1"/>
	<line class="st1" x1="987.6" y1="2553.9" x2="987.6" y2="273.1"/>
	<line class="st1" x1="1015.4" y1="2553.9" x2="1015.4" y2="273.1"/>
	<line class="st1" x1="1043.2" y1="2553.9" x2="1043.2" y2="273.1"/>
	<line class="st1" x1="1071.1" y1="2553.9" x2="1071.1" y2="273.1"/>
	<line class="st1" x1="1098.9" y1="2553.9" x2="1098.9" y2="273.1"/>
	<line class="st1" x1="1126.7" y1="2553.9" x2="1126.7" y2="273.1"/>
	<line class="st1" x1="1154.5" y1="2553.9" x2="1154.5" y2="273.1"/>
	<line class="st1" x1="1182.3" y1="2553.9" x2="1182.3" y2="273.1"/>
	<line class="st1" x1="1210.2" y1="2553.9" x2="1210.2" y2="273.1"/>
	<line class="st1" x1="1238" y1="2553.9" x2="1238" y2="273.1"/>
	<line class="st1" x1="1265.8" y1="2553.9" x2="1265.8" y2="273.1"/>
	<line class="st1" x1="1293.6" y1="2553.9" x2="1293.6" y2="273.1"/>
	<line class="st1" x1="1321.4" y1="2553.9" x2="1321.4" y2="273.1"/>
	<line class="st1" x1="1349.3" y1="2553.9" x2="1349.3" y2="273.1"/>
	<line class="st1" x1="1377.1" y1="2553.9" x2="1377.1" y2="273.1"/>
	<line class="st1" x1="1404.9" y1="2553.9" x2="1404.9" y2="273.1"/>
	<line class="st1" x1="1432.7" y1="2553.9" x2="1432.7" y2="273.1"/>
	<line class="st1" x1="1460.5" y1="2553.9" x2="1460.5" y2="273.1"/>
	<line class="st1" x1="1488.4" y1="2553.9" x2="1488.4" y2="273.1"/>
	<line class="st1" x1="1516.2" y1="2553.9" x2="1516.2" y2="273.1"/>
	<path class="st1" d="M1544,2552.6c0-760,0-1520,0-2279.6"/>
	<path class="st1" d="M1571.8,2531c0.2-753.4,0.2-1505.4,0-2257.9"/>
	<path class="st1" d="M1599.7,2495.9c0.3-726.3,0.3-1450.3,0-2176.6"/>
	<path class="st1" d="M1627.4,2487.5c-0.4-719.9-0.4-1439.9,0-2159.6"/>
	<path class="st1" d="M1655.2,2483.3c-0.2-715.7-0.2-1430.7,0-2146.7"/>
	<path class="st1" d="M1683.1,2461.6c-0.1-704-0.1-1408,0-2112.1"/>
	<path class="st1" d="M1710.9,2444.1c0.1-691.5,0.1-1382.5,0-2073"/>
	<path class="st1" d="M1738.8,2435.7c0.2-683.1,0.2-1364.1,0-2047.3"/>
	<path class="st1" d="M1766.6,2418.2c0.4-670.6,0.4-1341.6-0.1-2012.5"/>
	<path class="st1" d="M1794.3,2409.8c-0.3-663.2-0.3-1324.2,0.1-1986.8"/>
	<path class="st1" d="M1822.1,2392.3c-0.1-650.7-0.1-1300.7,0-1952.1"/>
	<path class="st1" d="M1850,2375.5c0-640.9,0-1280.9,0-1922.3"/>
	<path class="st1" d="M1877.9,2358.1c0.1-629.5,0.1-1258.5,0-1887.6"/>
	<path class="st1" d="M1905.7,2340.5c0.3-617.9,0.3-1234.9-0.1-1852.7"/>
	<path class="st1" d="M1933.3,2323.1c-0.3-608.5-0.3-1214.5,0.1-1822.4"/>
	<path class="st1" d="M1961.2,2306.2c-0.2-594.6-0.2-1188.6,0.1-1783.7"/>
	<path class="st1" d="M1989.1,2284.5c-0.1-580.9-0.1-1159.9,0-1740.4"/>
	<path class="st1" d="M2017,2267.1c0-565.5,0-1131.5,0-1697.3"/>
	<path class="st1" d="M2044.8,2249.5c0.2-552.9,0.2-1104.9-0.1-1658.1"/>
	<path class="st1" d="M2072.7,2232.8c0.3-540.2,0.3-1080.2-0.2-1619.7"/>
	<path class="st1" d="M2100.2,2215.2c-0.2-528.6-0.2-1055.6,0.2-1584.7"/>
	<path class="st1" d="M2128.1,2198c-0.1-517.4-0.1-1033.4,0.1-1550.2"/>
	<path class="st1" d="M2156,2185.1c0-508.5,0-1015.5,0-1524.5"/>
	<path class="st1" d="M2183.9,2176.2c0.1-503.6,0.1-1007.6-0.1-1511.2"/>
</g>
<g id="Frame">
	<path class="st2" d="M1207.1,0L0,696.9v1393.8l1207.1,696.9L2414,2090.7V696.9L1207.1,0z M2205.8,1970.5l-998.6,576.7l-998.9-576.7
		V817.2l998.9-576.7l998.6,576.7V1970.5z"/>
	<path class="st3" d="M1207.1,0L0,696.9v1393.8l1207.1,696.9L2414,2090.7V696.9L1207.1,0z M2205.8,1970.5l-998.6,576.7l-998.9-576.7
		V817.2l998.9-576.7l998.6,576.7V1970.5z"/>
	<path id="_Compound_Path_" class="st4" d="M1206.9,248.9L215.4,821.4v1144.8l991.5,572.4l991.3-572.4V821.4L1206.9,248.9z"/>
	<path class="st5" d="M1546.9,2489.5l36.4-20.9l1.7,2.9c3.5,5.9,6.1,12.3,7.8,19c1.2,5.8,1.1,11.9-0.1,17.7
		c-2.9,13.9-10.6,24.5-23.3,31.8c-12.3,7.1-25.5,8.7-39.4,4.9c-28-7.8-44.5-36.8-37-64.9c3.8-14.1,12.1-24.8,25-32.2
		c6.6-3.9,14-6.2,21.7-6.9c7.3-0.5,15.6,0.8,24.7,4l-4.3,14.6c-12.8-5.5-24.3-5.2-34.7,0.7c-9.4,5.4-15.3,13.1-17.9,23.2
		c-2.7,9.9-1.3,19.7,4.2,29.2c5.6,9.8,13.8,15.9,24.5,18.2c10,2.1,18.8,0.9,26.6-3.5c6.5-3.7,11.4-9.6,13.8-16.7
		c2.6-7.5,2.5-14.4-0.4-21l-22,12.7L1546.9,2489.5z"/>
	
		<rect x="1630.5" y="2388.8" transform="matrix(0.8665 -0.4992 0.4992 0.8665 -999.1224 1143.4812)" class="st5" width="15.3" height="101.7"/>
	<polygon class="st5" points="1702.5,2360.3 1746.1,2436 1732.8,2443.6 1689.3,2368 1669,2379.6 1661.8,2367.1 1715.5,2336.2 
		1722.7,2348.7 	"/>
	<path class="st5" d="M1822.6,2280.9l9,15.7c-11.4-2-21.2-0.7-29.4,4.1c-8.8,4.8-15,13.2-17.3,22.9c-2.5,9.9-1,20.4,4.3,29.2
		c4.8,8.9,13.1,15.4,22.8,18c9.6,2.8,19.9,1.5,28.5-3.7c4.1-2.3,7.8-5.4,10.6-9.2c1.5-2,2.8-4.1,3.9-6.3c1.3-2.7,2.5-5.5,3.5-8.3
		l9.2,16.1c-4.9,8.4-11.9,15.4-20.3,20.3c-12,7.1-26.3,9.1-39.8,5.4c-13.5-3.4-25-12.2-31.8-24.4c-6.4-11-8.6-24-6.1-36.5
		c2.9-16,11.7-28.2,26.2-36.6C1804,2283,1813.3,2280.7,1822.6,2280.9"/>
	<path class="st6" d="M1887.1,2276.9c-7.1-12.4-8.7-25.7-4.7-39.8c3.6-13.7,12.6-25.3,25-32.2c12.1-7.1,26.6-9,40.1-5.1
		c14.2,3.8,25,12,32.2,24.6c7.2,12.1,9,26.6,5,40.1c-3.7,13.7-12.8,25.4-25.3,32.2c-11.4,6.6-23.9,8.5-37.5,5.8
		C1906.7,2299.6,1895.2,2291.1,1887.1,2276.9 M1900.5,2269.3c5.6,9.7,13.5,15.8,23.7,18.4c10.2,2.6,19.4,1.3,28-3.6
		c8.9-4.9,15.4-13.2,17.9-23c2.7-9.9,1.2-20.4-4.1-29.1c-5.4-9.4-13.1-15.5-23-18.2c-9.7-2.9-20.1-1.5-28.7,3.7
		c-18.1,10.3-24.3,33.4-14,51.5C1900.4,2269.1,1900.4,2269.2,1900.5,2269.3"/>
	
		<rect x="2025.4" y="2161.1" transform="matrix(0.8663 -0.4995 0.4995 0.8663 -833.0804 1311.2751)" class="st5" width="15.4" height="101.7"/>
	<polygon class="st5" points="2117,2222.5 2062.8,2128.4 2165.8,2158.6 2130.6,2097.3 2143.8,2089.7 2197.7,2183.3 2094.7,2153.1 
		2130.3,2214.9 	"/>
</g>
<path class="st7" d="M1206.9,240.5L208,817.1v1153.3l998.9,576.7l998.6-576.7V817.1L1206.9,240.5z M2155.2,1941.5L1206.9,2489
	l-948.5-547.5V846.3l948.5-547.7l948.3,547.7V1941.5z"/>
</svg>
