<svg id="Layer_1" data-name="Layer 1" xmlns="http://www.w3.org/2000/svg" xmlns:xlink="http://www.w3.org/1999/xlink" viewBox="0 0 2414 2787.6"><defs><style>.cls-1{fill:#135384;}.cls-2,.cls-6{isolation:isolate;}.cls-3,.cls-6{fill:none;stroke-miterlimit:10;}.cls-3{stroke:#9fa4ff;stroke-width:0.1px;}.cls-4{fill:#fadba5;}.cls-5{fill:#0000ce;}.cls-6{stroke:#000;stroke-width:20px;opacity:0.25;}.cls-7{fill:#fff;}.cls-8{fill:#ac2e18;}.cls-9{fill:#20b1f2;}</style></defs><title>RPG_Game</title><g id="RF"><polygon class="cls-1" points="2414 696.9 2414 2090.7 1207.4 2787.5 1206.9 2787.5 0 2090.7 0 696.9 1207.1 0 2414 696.9"/></g><image class="cls-2" width="181" height="241" transform="translate(243.568 1233.161) scale(4.502)" xlink:href="../CFBA6816.png"/><image class="cls-2" width="165" height="225" transform="translate(1321.817 1232.625) scale(5.143)" xlink:href="../CFBA681A.png"/><image class="cls-2" width="230" height="242" transform="translate(558.44 1520.333) scale(4.505)" xlink:href="../CFBA681D.png"/><image class="cls-2" width="141" height="177" transform="translate(915.866 320.761) scale(3.995)" xlink:href="../CFBA681E.png"/><rect class="cls-1" x="915.9" y="927.2" width="125.9" height="149"/><path class="cls-3" d="M2193.5,656.6a53.8,53.8,0,0,1-27.3-5.7,262.859,262.859,0,0,1-50.3-24.5c-62.1-38-113.3-90.1-172.4-132-13.7-8.9-27.9-16.6-42.3-24.4-64.3-35.2-126.5-74-188.6-112.8-10-6.3-19.6-14.3-24.8-25.1a56.141,56.141,0,0,1-11.9-4.2,459.113,459.113,0,0,0-57.9-13.6c-14.6-2.4-26.6-12.3-34.9-24a44.17,44.17,0,0,1-7.2-17.2H844.1c-3.1,13.2-12.2,26.7-23.7,33.7-3.8,2.3-7.8,4.5-11.8,6.6-38.3,21.9-74.7,47.1-110.1,73.4-69,51.4-134.8,107.3-208.1,152.8-38.3,23.8-78.9,44.3-120.2,62.3-33.9,14.8-68.7,27.4-102.4,42.7-10.7,5.2-21.2,10.7-31.4,16.7V2194a58.156,58.156,0,0,1,30.3,5.3c34.8,16.5,67.2,37.3,99.1,58.7,28.7,19.2,57.1,38.8,86.7,56.4,28.2,16.7,57.6,31.2,86.2,47.2,61.6,34.4,122.8,71.9,176.4,118.1a48.152,48.152,0,0,1,12.4,17c14.4-.4,28.8-.7,43.3-.7a59.635,59.635,0,0,1,39.3,13.9c11.2,9.2,16.6,23.6,18,37.6a44.173,44.173,0,0,1,.1,6.3h730a59.466,59.466,0,0,1,21.5-9.1,58.107,58.107,0,0,1,13.1-26.5c8.9-9.8,24.1-18,37.6-18h30.2a40.469,40.469,0,0,1,9.9-16.6c3.7-3.2,7.4-6.3,11.1-9.5,35.2-18.7,71.7-34.8,107.8-51.6,8.2-3.9,16.3-7.8,24.4-11.8,34.8-22.5,70.5-43.4,106.7-63.6,33.2-22.3,65.8-45.4,99-67.6,52-34.9,105.5-67,163-92.1a55.081,55.081,0,0,1,18.8-2.5c2.4-1.5,4.8-3,7.3-4.5.9-.6,1.9-1.1,2.8-1.6V652.4A52.733,52.733,0,0,1,2193.5,656.6Z"/><path class="cls-3" d="M1579.3,305.5q-369.45.15-738.4-.3"/><path class="cls-3" d="M1665.5,337.5c-291.5.1-581.5.1-872.2-.2"/><path class="cls-3" d="M1708.4,369.5c-319.4.1-639.4.1-958.2-.1"/><path class="cls-3" d="M1764.5,401.6H698.3"/><path class="cls-3" d="M1812.2,433.6c-384.2,0-769.2,0-1152.8.1"/><path class="cls-3" d="M1864,465.7q-622.5-.15-1243.6.1"/><path class="cls-3" d="M1929.3,497.8q-678.45-.3-1356.3.1"/><path class="cls-3" d="M1967.6,529.9c-479.6-.3-957.6-.3-1437.7.2"/><path class="cls-3" d="M2010.9,562.3q-766.35.45-1533-.1"/><path class="cls-3" d="M2050,594.4c-545,.2-1088,.2-1632.6-.1"/><path class="cls-3" d="M2097.7,626.5q-877.05.15-1753.7,0"/><path class="cls-3" d="M2211.7,658.6H274.9"/><line class="cls-3" x1="2211.7" y1="690.7" x2="236.5" y2="690.7"/><line class="cls-3" x1="2211.7" y1="722.8" x2="236.5" y2="722.8"/><line class="cls-3" x1="2211.7" y1="754.9" x2="236.5" y2="754.9"/><line class="cls-3" x1="2211.7" y1="787.1" x2="236.5" y2="787.1"/><line class="cls-3" x1="2211.7" y1="819.2" x2="236.5" y2="819.2"/><line class="cls-3" x1="2211.7" y1="851.3" x2="236.5" y2="851.3"/><line class="cls-3" x1="2211.7" y1="883.4" x2="236.5" y2="883.4"/><line class="cls-3" x1="2211.7" y1="915.6" x2="236.5" y2="915.6"/><line class="cls-3" x1="2211.7" y1="947.7" x2="236.5" y2="947.7"/><line class="cls-3" x1="2211.7" y1="979.8" x2="236.5" y2="979.8"/><line class="cls-3" x1="2211.7" y1="1011.9" x2="236.5" y2="1011.9"/><line class="cls-3" x1="2211.7" y1="1044.1" x2="236.5" y2="1044.1"/><line class="cls-3" x1="2211.7" y1="1076.2" x2="236.5" y2="1076.2"/><line class="cls-3" x1="2211.7" y1="1108.3" x2="236.5" y2="1108.3"/><line class="cls-3" x1="2211.7" y1="1140.4" x2="236.5" y2="1140.4"/><line class="cls-3" x1="2211.7" y1="1172.6" x2="236.5" y2="1172.6"/><line class="cls-3" x1="2211.7" y1="1204.7" x2="236.5" y2="1204.7"/><line class="cls-3" x1="2211.7" y1="1236.8" x2="236.5" y2="1236.8"/><line class="cls-3" x1="2211.7" y1="1268.9" x2="236.5" y2="1268.9"/><line class="cls-3" x1="2211.7" y1="1301.1" x2="236.5" y2="1301.1"/><line class="cls-3" x1="2211.7" y1="1333.2" x2="236.5" y2="1333.2"/><line class="cls-3" x1="2211.7" y1="1365.3" x2="236.5" y2="1365.3"/><line class="cls-3" x1="2211.7" y1="1397.4" x2="236.5" y2="1397.4"/><line class="cls-3" x1="2211.7" y1="1429.6" x2="236.5" y2="1429.6"/><line class="cls-3" x1="2211.7" y1="1461.7" x2="236.5" y2="1461.7"/><line class="cls-3" x1="2211.7" y1="1493.8" x2="236.5" y2="1493.8"/><line class="cls-3" x1="2211.7" y1="1525.9" x2="236.5" y2="1525.9"/><line class="cls-3" x1="2211.7" y1="1558.1" x2="236.5" y2="1558.1"/><line class="cls-3" x1="2211.7" y1="1590.2" x2="236.5" y2="1590.2"/><line class="cls-3" x1="2211.7" y1="1622.3" x2="236.5" y2="1622.3"/><line class="cls-3" x1="2211.7" y1="1654.4" x2="236.5" y2="1654.4"/><line class="cls-3" x1="2211.7" y1="1686.6" x2="236.5" y2="1686.6"/><line class="cls-3" x1="2211.7" y1="1718.7" x2="236.5" y2="1718.7"/><line class="cls-3" x1="2211.7" y1="1750.8" x2="236.5" y2="1750.8"/><line class="cls-3" x1="2211.7" y1="1782.9" x2="236.5" y2="1782.9"/><line class="cls-3" x1="2211.7" y1="1815.1" x2="236.5" y2="1815.1"/><line class="cls-3" x1="2211.7" y1="1847.2" x2="236.5" y2="1847.2"/><line class="cls-3" x1="2211.7" y1="1879.3" x2="236.5" y2="1879.3"/><line class="cls-3" x1="2211.7" y1="1911.4" x2="236.5" y2="1911.4"/><line class="cls-3" x1="2211.7" y1="1943.6" x2="236.5" y2="1943.6"/><line class="cls-3" x1="2211.7" y1="1975.7" x2="236.5" y2="1975.7"/><line class="cls-3" x1="2211.7" y1="2007.8" x2="236.5" y2="2007.8"/><line class="cls-3" x1="2211.7" y1="2039.9" x2="236.5" y2="2039.9"/><line class="cls-3" x1="2211.7" y1="2072.1" x2="236.5" y2="2072.1"/><line class="cls-3" x1="2211.7" y1="2104.2" x2="236.5" y2="2104.2"/><line class="cls-3" x1="2211.7" y1="2136.3" x2="236.5" y2="2136.3"/><line class="cls-3" x1="2211.7" y1="2168.4" x2="236.5" y2="2168.4"/><path class="cls-3" d="M2127.9,2200.6H296.6"/><path class="cls-3" d="M2076.1,2232.7q-864.15-.15-1727.7,0"/><path class="cls-3" d="M2020,2264.8q-810-.3-1619.9-.1"/><path class="cls-3" d="M1976.8,2296.9q-764.7-.45-1529.2-.1"/><path class="cls-3" d="M1924.9,2329.1q-710.85-.75-1420.6-.2"/><path class="cls-3" d="M1873,2361.2q-657,.6-1312.8.2"/><path class="cls-3" d="M1816.9,2393.3q-598.35.45-1196.5.2"/><path class="cls-3" d="M1756.4,2425.4q-546.6.3-1092.5.1"/><path class="cls-3" d="M1691.5,2457.6H707.4"/><path class="cls-3" d="M1618.2,2489.7c-274.2-.1-547.2-.1-820.8-.1"/><path class="cls-3" d="M1648.5,2489.7h-8.3"/><path class="cls-3" d="M1574.8,2521.8c-246.8-.2-494.8-.2-742.2-.2"/><path class="cls-3" d="M264.2,2185.3q-.3-760.05.1-1520.3"/><path class="cls-3" d="M292.1,2198q-.15-776.1,0-1550.2"/><path class="cls-3" d="M320,2215.5V639"/><path class="cls-3" d="M347.9,2227.9q.15-801.45-.1-1601.9"/><path class="cls-3" d="M375.7,2245.3c.3-544.7.3-1087.7-.2-1632.3"/><path class="cls-3" d="M403.2,2267.1q-.3-833.25.2-1667.1"/><path class="cls-3" d="M431.1,2284.7q-.15-849.15.1-1697.5"/><path class="cls-3" d="M459,2301.4V574.2"/><path class="cls-3" d="M486.9,2318.8c.1-588.2.1-1174.2,0-1761.9"/><path class="cls-3" d="M514.8,2336.4q.3-898.2-.1-1796.8"/><path class="cls-3" d="M542.4,2349.6q-.6-913.5.1-1827.1"/><path class="cls-3" d="M570.2,2366.5q-.3-932.85.1-1865.8"/><path class="cls-3" d="M598.1,2379.7q-.15-951.15,0-1900.6"/><path class="cls-3" d="M626,2401.4V457.6"/><path class="cls-3" d="M653.8,2418.2c.2-659.6.2-1317.6,0-1978"/><path class="cls-3" d="M681.6,2439.9q.6-1012.95-.1-2025.6"/><path class="cls-3" d="M709.4,2457.4q-.6-1030.2.1-2060.3"/><path class="cls-3" d="M737.2,2487.5q-.3-1055.85,0-2112.1"/><path class="cls-3" d="M765,2483.3V358.2"/><path class="cls-3" d="M792.9,2487.5q.15-1073.85,0-2146.7"/><path class="cls-3" d="M820.7,2505q.45-1091.1,0-2181.4"/><line class="cls-3" x1="848.5" y1="2553.9" x2="848.5" y2="273.1"/><line class="cls-3" x1="876.3" y1="2553.9" x2="876.3" y2="273.1"/><line class="cls-3" x1="904.1" y1="2553.9" x2="904.1" y2="273.1"/><line class="cls-3" x1="932" y1="2553.9" x2="932" y2="273.1"/><line class="cls-3" x1="959.8" y1="2553.9" x2="959.8" y2="273.1"/><line class="cls-3" x1="987.6" y1="2553.9" x2="987.6" y2="273.1"/><line class="cls-3" x1="1015.4" y1="2553.9" x2="1015.4" y2="273.1"/><line class="cls-3" x1="1043.2" y1="2553.9" x2="1043.2" y2="273.1"/><line class="cls-3" x1="1071.1" y1="2553.9" x2="1071.1" y2="273.1"/><line class="cls-3" x1="1098.9" y1="2553.9" x2="1098.9" y2="273.1"/><line class="cls-3" x1="1126.7" y1="2553.9" x2="1126.7" y2="273.1"/><line class="cls-3" x1="1154.5" y1="2553.9" x2="1154.5" y2="273.1"/><line class="cls-3" x1="1182.3" y1="2553.9" x2="1182.3" y2="273.1"/><line class="cls-3" x1="1210.2" y1="2553.9" x2="1210.2" y2="273.1"/><line class="cls-3" x1="1238" y1="2553.9" x2="1238" y2="273.1"/><line class="cls-3" x1="1265.8" y1="2553.9" x2="1265.8" y2="273.1"/><line class="cls-3" x1="1293.6" y1="2553.9" x2="1293.6" y2="273.1"/><line class="cls-3" x1="1321.4" y1="2553.9" x2="1321.4" y2="273.1"/><line class="cls-3" x1="1349.3" y1="2553.9" x2="1349.3" y2="273.1"/><line class="cls-3" x1="1377.1" y1="2553.9" x2="1377.1" y2="273.1"/><line class="cls-3" x1="1404.9" y1="2553.9" x2="1404.9" y2="273.1"/><line class="cls-3" x1="1432.7" y1="2553.9" x2="1432.7" y2="273.1"/><line class="cls-3" x1="1460.5" y1="2553.9" x2="1460.5" y2="273.1"/><line class="cls-3" x1="1488.4" y1="2553.9" x2="1488.4" y2="273.1"/><line class="cls-3" x1="1516.2" y1="2553.9" x2="1516.2" y2="273.1"/><path class="cls-3" d="M1544,2552.6V273"/><path class="cls-3" d="M1571.8,2531q.3-1130.1,0-2257.9"/><path class="cls-3" d="M1599.7,2495.9c.3-726.3.3-1450.3,0-2176.6"/><path class="cls-3" d="M1627.4,2487.5q-.6-1079.85,0-2159.6"/><path class="cls-3" d="M1655.2,2483.3q-.3-1073.55,0-2146.7"/><path class="cls-3" d="M1683.1,2461.6q-.15-1056,0-2112.1"/><path class="cls-3" d="M1710.9,2444.1q.15-1037.25,0-2073"/><path class="cls-3" d="M1738.8,2435.7c.2-683.1.2-1364.1,0-2047.3"/><path class="cls-3" d="M1766.6,2418.2q.6-1005.9-.1-2012.5"/><path class="cls-3" d="M1794.3,2409.8c-.3-663.2-.3-1324.2.1-1986.8"/><path class="cls-3" d="M1822.1,2392.3q-.15-976.05,0-1952.1"/><path class="cls-3" d="M1850,2375.5V453.2"/><path class="cls-3" d="M1877.9,2358.1q.15-944.25,0-1887.6"/><path class="cls-3" d="M1905.7,2340.5q.45-926.85-.1-1852.7"/><path class="cls-3" d="M1933.3,2323.1c-.3-608.5-.3-1214.5.1-1822.4"/><path class="cls-3" d="M1961.2,2306.2q-.3-891.9.1-1783.7"/><path class="cls-3" d="M1989.1,2284.5c-.1-580.9-.1-1159.9,0-1740.4"/><path class="cls-3" d="M2017,2267.1V569.8"/><path class="cls-3" d="M2044.8,2249.5q.3-829.35-.1-1658.1"/><path class="cls-3" d="M2072.7,2232.8q.45-810.3-.2-1619.7"/><path class="cls-3" d="M2100.2,2215.2c-.2-528.6-.2-1055.6.2-1584.7"/><path class="cls-3" d="M2128.1,2198q-.15-776.1.1-1550.2"/><path class="cls-3" d="M2156,2185.1V660.6"/><path class="cls-3" d="M2183.9,2176.2q.15-755.4-.1-1511.2"/><g id="Frame"><path class="cls-4" d="M1207.1,0,0,696.9V2090.7l1207.1,696.9L2414,2090.7V696.9Zm998.7,1970.5-998.6,576.7L208.3,1970.5V817.2l998.9-576.7,998.6,576.7Z"/><path class="cls-5" d="M1207.1,0,0,696.9V2090.7l1207.1,696.9L2414,2090.7V696.9Zm998.7,1970.5-998.6,576.7L208.3,1970.5V817.2l998.9-576.7,998.6,576.7Z"/><path id="_Compound_Path_" data-name=" Compound Path " class="cls-6" d="M1206.9,248.9,215.4,821.4V1966.2l991.5,572.4,991.3-572.4V821.4Z"/><path class="cls-7" d="M1546.9,2489.5l36.4-20.9,1.7,2.9a71.784,71.784,0,0,1,7.8,19,43.965,43.965,0,0,1-.1,17.7c-2.9,13.9-10.6,24.5-23.3,31.8-12.3,7.1-25.5,8.7-39.4,4.9a53.159,53.159,0,0,1-37-64.9c3.8-14.1,12.1-24.8,25-32.2a51.725,51.725,0,0,1,21.7-6.9c7.3-.5,15.6.8,24.7,4l-4.3,14.6c-12.8-5.5-24.3-5.2-34.7.7-9.4,5.4-15.3,13.1-17.9,23.2-2.7,9.9-1.3,19.7,4.2,29.2,5.6,9.8,13.8,15.9,24.5,18.2,10,2.1,18.8.9,26.6-3.5a30.37,30.37,0,0,0,13.8-16.7c2.6-7.5,2.5-14.4-.4-21l-22,12.7Z"/><rect class="cls-7" x="1630.558" y="2388.823" width="15.3" height="101.701" transform="translate(-999.154 1143.505) rotate(-29.947)"/><polygon class="cls-7" points="1702.5 2360.3 1746.1 2436 1732.8 2443.6 1689.3 2368 1669 2379.6 1661.8 2367.1 1715.5 2336.2 1722.7 2348.7 1702.5 2360.3"/><path class="cls-7" d="M1822.6,2280.9l9,15.7c-11.4-2-21.2-.7-29.4,4.1a35.257,35.257,0,0,0-17.3,22.9,38.341,38.341,0,0,0,4.3,29.2,36.74,36.74,0,0,0,22.8,18,35.66,35.66,0,0,0,28.5-3.7,33.455,33.455,0,0,0,10.6-9.2,41.172,41.172,0,0,0,3.9-6.3,85.844,85.844,0,0,0,3.5-8.3l9.2,16.1a56.431,56.431,0,0,1-20.3,20.3,51.361,51.361,0,0,1-39.8,5.4,50.494,50.494,0,0,1-31.8-24.4,52.27,52.27,0,0,1-6.1-36.5c2.9-16,11.7-28.2,26.2-36.6a51.98,51.98,0,0,1,26.7-6.7"/><path class="cls-8" d="M1887.1,2276.9c-7.1-12.4-8.7-25.7-4.7-39.8a51.9,51.9,0,0,1,25-32.2,51.2,51.2,0,0,1,40.1-5.1c14.2,3.8,25,12,32.2,24.6a50.343,50.343,0,0,1,5,40.1,52.083,52.083,0,0,1-25.3,32.2c-11.4,6.6-23.9,8.5-37.5,5.8-15.2-2.9-26.7-11.4-34.8-25.6m13.4-7.6c5.6,9.7,13.5,15.8,23.7,18.4a36.183,36.183,0,0,0,28-3.6,36.639,36.639,0,0,0,17.9-23,37.1,37.1,0,0,0-4.1-29.1c-5.4-9.4-13.1-15.5-23-18.2a35.68,35.68,0,0,0-28.7,3.7,37.759,37.759,0,0,0-14,51.5c.1.1.1.2.2.3"/><rect class="cls-7" x="2025.363" y="2161.105" width="15.4" height="101.699" transform="translate(-833.085 1311.243) rotate(-29.967)"/><polygon class="cls-7" points="2117 2222.5 2062.8 2128.4 2165.8 2158.6 2130.6 2097.3 2143.8 2089.7 2197.7 2183.3 2094.7 2153.1 2130.3 2214.9 2117 2222.5"/></g><path class="cls-9" d="M1206.9,240.5,208,817.1V1970.4l998.9,576.7,998.6-576.7V817.1Zm948.3,1701L1206.9,2489,258.4,1941.5V846.3l948.5-547.7,948.3,547.7Z"/></svg>
