<svg xmlns="http://www.w3.org/2000/svg" width="100%" height="100%" viewBox="0 0 1200 1200" version="1.1" xml:space="preserve" id="svg140" fill-rule="evenodd" clip-rule="evenodd" stroke-linecap="round" stroke-miterlimit="10"><defs id="defs144"><clipPath id="_clip1"><path id="rect4" d="M4-1h756v840H4z"/></clipPath><style id="style2047">.cls-7{fill:#15003e}</style></defs><g id="g2333"><path id="rect2" fill="none" stroke-width="1.506" d="M-.001 0h1199.999v1199.999H-.001z"/><path transform="translate(-9.53 -1.5)" id="polygon2053" style="isolation:isolate" opacity=".21" fill="#fbc115" d="M223.82 580.37h117.85v-98.26H472.7v98.26h73.08v-98.26h130.88v98.26h80.57v-98.26h131.02v98.26H1010V883l-398 216-388-224z"/><g transform="matrix(.35 0 0 .35 -13.369 389.31)" id="g1615"><path d="M1248.419 336.74H2248.48v400.024H1248.42zm0 0" id="path1346" fill="#a83b32" stroke-width="4.167"/><path d="M2115.139 203.398h-133.34l33.335 66.67-266.685 66.671-266.683-66.67 33.336-66.671h-133.34v-33.336c0-202.503 164.17-366.69 366.687-366.69 202.52 0 366.69 164.187 366.69 366.69zm0 0" id="path1348" fill="#a83b32" stroke-width="4.167"/><g id="g76" transform="matrix(1.99235 0 0 1.99235 732.018 -114.677)"><g transform="matrix(2 0 0 2 407.482 371.127)" id="g18"><path d="M0-25.122h96.423l8.171 3.119L98.449 0H6.068z" id="path16" fill="#25e899" fill-rule="nonzero"/></g><g transform="matrix(2 0 0 2 578.262 371.128)" id="g22"><path d="M0 27.197h-66.263c-7.212 0-13.058-5.847-13.058-13.059V0h92.38v14.138c0 7.212-5.847 13.059-13.059 13.059z" id="path20" fill="#eff4ee" fill-rule="nonzero" stroke="#15003e" stroke-width="6"/></g><g transform="matrix(2 0 0 2 478.127 173.849)" id="g26"><path d="M0 73.517c-14.503-6.369-24.631-20.859-24.631-37.714A41.004 41.004 0 0 1-15.23 9.615C-7.678.465 39.825 0 47.368 8.515A41.014 41.014 0 0 1 57.71 35.803c0 16.854-10.127 31.342-24.627 37.712" id="path24" fill="#0fce7c" fill-rule="nonzero"/></g><g transform="matrix(2 0 0 2 472.923 197.037)" id="g30"><path d="M0 61.921c-14.351-6.982-24.241-21.705-24.241-38.737A42.85 42.85 0 0 1-17.472 0" id="path28" fill="none" stroke="#15003e" stroke-width="6"/></g><g transform="matrix(2 0 0 2 580.011 320.439)" id="g34"><path d="M0-63.965a42.86 42.86 0 0 1 8.322 25.448C8.322-21.662-1.364-7.069-15.473 0" id="path32" fill="none" stroke="#15003e" stroke-width="6"/></g><g transform="matrix(2 0 0 2 389.371 248.5)" id="g38"><path d="M0 1.773C0-32.09 27.451-59.541 61.314-59.541s61.315 27.451 61.315 61.314l-15.125 59.541h-92.38z" id="path36" fill="none" stroke="#15003e" stroke-width="6"/></g><g transform="matrix(0 -2 -2 0 447.724 191.919)" id="g42"><path d="M-29.176 29.176h58.352" id="path40" fill="none" stroke="#15003e" stroke-width="6"/></g><g transform="matrix(0 -2 -2 0 709.457 175.443)" id="g46"><path d="M-37.414 37.414h74.828" id="path44" fill="none" stroke="#15003e" stroke-width="6"/></g><g transform="matrix(2 0 0 2 398.923 218.159)" id="g50"><path d="M0 42.266h-6.329c-5.121 0-9.311-4.19-9.311-9.31V9.31c0-5.12 4.19-9.31 9.311-9.31h2.684" id="path48" fill="none" stroke="#15003e" stroke-width="6"/></g><g transform="matrix(2 0 0 2 625.515 218.159)" id="g54"><path d="M0 42.266h6.33c5.12 0 9.31-4.19 9.31-9.31V9.31C15.64 4.19 11.45 0 6.33 0H3.645" id="path52" fill="none" stroke="#15003e" stroke-width="6"/></g><g transform="matrix(2 0 0 2 390.69 179.244)" id="g58"><path d="M0 26.145C15.772 9.991 37.56 0 61.626 0c22.757 0 43.476 8.933 58.998 23.562" id="path56" fill="none" stroke="#15003e" stroke-width="6"/></g><g transform="matrix(2 0 0 2 407.482 320.875)" id="g62"><path d="M0 0h104.594" id="path60" fill="none" stroke="#15003e" stroke-width="6"/></g><g transform="matrix(2 0 0 2 555.037 218.159)" id="g66"><path d="M0 0c0 5.932-4.809 10.74-10.74 10.74-5.932 0-10.74-4.808-10.74-10.74s4.808-10.74 10.74-10.74C-4.809-10.74 0-5.932 0 0" id="path64" fill="#fff" fill-rule="nonzero"/></g><g transform="matrix(2 0 0 2 570.386 250.272)" id="g70"><path d="M0 0a4.343 4.343 0 1 1-8.686 0A4.343 4.343 0 0 1 0 0" id="path68" fill="#fff" fill-rule="nonzero"/></g><g transform="matrix(2 0 0 2 586.175 338.003)" id="g74"><path d="M0 8c-5.29 0-5.29-8-10.581-8-5.29 0-5.29 8-10.58 8-5.292 0-5.292-8-10.584-8-5.294 0-5.294 8-10.587 8-5.292 0-5.292-8-10.584-8-5.296 0-5.296 8-10.591 8-5.296 0-5.296-8-10.591-8" id="path72" fill="none" stroke="#15003e" stroke-width="6"/></g></g><path d="M2181.81 1403.472h-866.72V770.099h66.671l66.67-33.335h600.036l66.672 33.335h66.67zm0 0" id="path1350" fill="#812d26" stroke-width="4.167"/><path d="M1581.773 1170.124c-18.41 0-33.336-14.91-33.336-33.335V970.112c0-18.41 14.926-33.336 33.336-33.336 18.41 0 33.336 14.926 33.336 33.336v166.677c0 18.425-14.926 33.335-33.336 33.335zm0 0" id="path1352" fill="#722822" stroke-width="4.167"/><path d="M1515.102 1103.453h133.342v66.671h-133.342zm0 0" id="path1354" fill="#722822" stroke-width="4.167"/><path d="M1948.463 1170.124c-18.41 0-33.336-14.91-33.336-33.335V970.112c0-18.41 14.926-33.336 33.336-33.336 18.41 0 33.335 14.926 33.335 33.336v166.677c0 18.425-14.926 33.335-33.335 33.335zm0 0" id="path1356" fill="#722822" stroke-width="4.167"/><path d="M1881.792 1103.453h133.342v66.671h-133.342zm0 0" id="path1358" fill="#722822" stroke-width="4.167"/><path d="M1348.426 936.776l400.023 133.342 400.025-133.342V803.435c0-36.819-29.851-66.671-66.67-66.671h-666.707c-36.82 0-66.671 29.852-66.671 66.67zm0 0" id="path1360" fill="#b43f35" stroke-width="4.167"/><path d="M1348.426 803.435l400.023 133.341 400.025-133.341c0-36.819-29.851-66.671-66.67-66.671h-666.707c-36.82 0-66.671 29.852-66.671 66.67zm0 0" id="path1362" fill="#c7463b" stroke-width="4.167"/><g id="g1376" transform="matrix(4.16692 0 0 4.16692 748.453 -398.642)" fill="#812d26"><path d="M143.984 200.48h16v16h-16zm0 0" id="path1364"/><path d="M143.984 232.48h16v16h-16zm0 0" id="path1366"/><path d="M183.984 144.48l-5.601-4.207a163.315 163.315 0 0 0-58.399-27.793v40a163.315 163.315 0 0 1 58.399 27.793l5.601 4.207zm0 0" id="path1368"/><path d="M319.984 200.48h16v16h-16zm0 0" id="path1370"/><path d="M319.984 232.48h16v16h-16zm0 0" id="path1372"/><path d="M295.984 144.48l5.598-4.207a163.364 163.364 0 0 1 58.402-27.793v40a163.364 163.364 0 0 0-58.402 27.793l-5.598 4.207zm0 0" id="path1374"/></g><path d="M2148.474 770.1h66.671c110.457 0 200.012 89.556 200.012 200.012v433.36h-266.683zm0 0" id="path1378" fill="#a83b32" stroke-width="4.167"/><path d="M2148.474 1036.782h266.683v133.342h-266.683zm0 0" id="path1380" fill="#812d26" stroke-width="4.167"/><path d="M1348.426 1403.472h-266.683v-433.36c0-110.457 89.539-200.013 200.011-200.013h66.672zm0 0" id="path1382" fill="#a83b32" stroke-width="4.167"/><path d="M1348.426 1170.124h-266.683v-133.342h266.683zm0 0" id="path1384" fill="#812d26" stroke-width="4.167"/><path d="M2148.474 770.1l233.348 400.024h333.354L2481.829 770.1zm0 0" id="path1386" fill="#dc4d41" stroke-width="4.167"/><path d="M1348.426 770.1l-233.348 400.024H781.724L1015.072 770.1zm0 0" id="path1388" fill="#dc4d41" stroke-width="4.167"/><path d="M1948.463-296.633l25.002 66.67-225.016 300.019-225.013-300.019 25.001-66.67-333.354-66.671 433.361 533.366h200.012l400.025-533.366zm0 0" id="path1390" fill="#fbb540" stroke-width="4.167"/><path d="M1815.12 103.391c0 36.835-29.851 66.671-66.671 66.671-36.818 0-66.67-29.836-66.67-66.67 0-36.82 29.852-66.671 66.67-66.671 36.82 0 66.671 29.852 66.671 66.67zm0 0" id="path1392" fill="#ea9d2d" stroke-width="4.167"/><path d="M1348.426 1236.795h800.048v66.67h-800.048zm0 0" id="path1394" fill="#722822" stroke-width="4.167"/><path d="M1548.437 636.758h400.026v100.006h-400.026zm0 0" id="path1396" fill="#812d26" stroke-width="4.167"/><path d="M1515.102 536.751c.2 116.886 86.659 215.639 202.503 231.086a210.523 210.523 0 0 0 61.674 0c115.844-15.447 202.405-114.2 202.52-231.086l-233.35-33.335zm0 0" id="path1404" fill="#787d82" stroke-width="4.167"/><path d="M1748.449 670.093a213.324 213.324 0 0 1-118.513-35.956c-15.315-10.222-19.451-30.926-9.228-46.243 10.222-15.317 30.91-19.451 46.226-9.229 49.335 32.977 113.679 32.977 163.016 0 15.316-10.222 36.02-6.088 46.241 9.23 10.222 15.316 6.088 36.02-9.243 46.242a213.274 213.274 0 0 1-118.499 35.956zm0 0" id="path1406" fill="#62666a" stroke-width="4.167"/><path d="M1481.766 270.068l266.683 66.671 266.685-66.67-33.336-66.671-33.335-33.336h-400.026l-33.335 33.336zm0 0" id="path1408" fill="#812d26" stroke-width="4.167"/><path d="M1748.449 370.075c-3.108 0-6.184-.44-9.164-1.286l-233.347-66.671c-17.188-5.47-26.906-23.618-21.958-40.953 4.964-17.335 22.822-27.574 40.286-23.13l224.183 64.05 224.185-64.05c17.464-4.444 35.32 5.795 40.27 23.13 4.964 17.335-4.754 35.484-21.942 40.953l-233.35 66.67a33.586 33.586 0 0 1-9.163 1.287zm0 0" id="path1410" fill="#f3af3e" stroke-width="4.167"/><path d="M1666.934 578.763c-15.316-10.222-36.004-6.088-46.226 9.229-10.223 15.316-6.087 36.02 9.228 46.243 71.75 47.92 165.279 47.92 237.012 0 15.332-10.222 19.466-30.927 9.244-46.243-10.222-15.317-30.926-19.451-46.242-9.23-49.337 32.978-113.68 32.978-163.016 0zm0 0" id="path1412" stroke-width="4.167"/><path d="M1348.426 436.745h66.67v66.671h-66.67zm0 0" id="path1418" stroke-width="4.167"/><path d="M1348.426 570.087h66.67v66.67h-66.67zm0 0" id="path1420" stroke-width="4.167"/><path d="M2081.803 436.745h66.671v66.671h-66.67zm0 0" id="path1422" stroke-width="4.167"/><path d="M2081.803 570.087h66.671v66.67h-66.67zm0 0" id="path1424" stroke-width="4.167"/><path d="M2510.622 753.432a33.354 33.354 0 0 0-28.793-16.668h-200.012V336.739c0-18.41-14.926-33.335-33.336-33.335h-92.747a648.1 648.1 0 0 1 100.853-34.329c14.828-3.71 25.23-17.042 25.23-32.342V70.056a33.355 33.355 0 0 0-12.826-26.271 33.364 33.364 0 0 0-28.616-6.055 716.435 716.435 0 0 0-104.042 35.663 397.534 397.534 0 0 0-67.096-142.066L2275.143-343.3c8.366-11.15 8.904-26.352 1.34-38.072-7.552-11.719-21.616-17.481-35.24-14.454l-300.018 66.671a33.296 33.296 0 0 0-22.072 16.635 33.332 33.332 0 0 0-1.92 27.59l18.604 49.58-28.81 38.43a397.104 397.104 0 0 0-317.142 0l-28.81-38.43 18.604-49.58a33.39 33.39 0 0 0-2.05-27.85 33.41 33.41 0 0 0-22.528-16.521l-333.354-66.671c-13.754-2.735-27.77 3.45-35.027 15.48a33.346 33.346 0 0 0 2.636 38.202L1420.13-58.24a397.075 397.075 0 0 0-59.573 131.633 717.065 717.065 0 0 0-104.027-35.565 33.345 33.345 0 0 0-28.582 6.022 33.357 33.357 0 0 0-12.86 26.206v166.677c0 15.3 10.402 28.631 25.23 32.342a649.73 649.73 0 0 1 100.2 34.329h-92.094c-18.41 0-33.336 14.926-33.336 33.335v400.025h-200.011c-11.882.04-22.87 6.38-28.81 16.668l-233.35 400.024a33.378 33.378 0 0 0 0 33.32 33.333 33.333 0 0 0 28.826 16.683h266.683v200.013c0 18.425 14.926 33.335 33.336 33.335h1333.416c18.41 0 33.336-14.91 33.336-33.335v-200.013h266.683a33.291 33.291 0 0 0 28.81-16.683 33.367 33.367 0 0 0 0-33.32zm30.016 183.344l38.901 66.671h-256.363l-38.901-66.67zm-255.583 133.342l38.903 66.67H2181.81v-66.67zm-103.245-66.671v-110l64.197 110zm280.877-200.012l38.87 66.67H2248.48c-.92.14-1.84.342-2.736.57l-39.243-67.24zm-247.541-689.203v96.979a710.955 710.955 0 0 0-172.213 76.03c8.09-8.904 8.937-22.219 2.037-32.066l-20.9-41.767 1.12-.862a643.113 643.113 0 0 1 189.954-98.314zm-140.34-11.394a711.092 711.092 0 0 0-89.672 56.367l-.28.2-12.892-12.907a33.394 33.394 0 0 0-23.503-9.767h-33.336L2027.126-12.61a330.794 330.794 0 0 1 47.675 115.453zm-52.804 200.012c-.2.26-.54.424-.7.7h-2.034zm-173.546-99.452h86.203l19.728 19.744 8.805 17.595-214.743 61.348-214.742-61.348 8.788-17.595 19.746-19.744zm-133.34-100.007c0-18.409 14.925-33.335 33.333-33.335 18.41 0 33.336 14.926 33.336 33.335 0 18.426-14.926 33.336-33.336 33.336-18.408 0-33.334-14.91-33.334-33.336zm38.07 367.031a34.163 34.163 0 0 0-9.473 0l-195.276 27.9V321.112l191.906 47.969c2.508.602 5.096.928 7.668.928h.86a33.1 33.1 0 0 0 7.684-.928l191.906-47.969v177.208zm191.467 94.7l-2.62 21.08v.2a201.957 201.957 0 0 1-10.938 31.674l-.22.456a198.69 198.69 0 0 1-14.974 27.41c-.38.555-.66 1.157-1.04 1.727a198.514 198.514 0 0 1-17.156 21.876c-1.72 1.888-3.338 3.825-5.144 5.632a201.672 201.672 0 0 1-19.027 17.497 95.324 95.324 0 0 1-6.674 4.867 202.07 202.07 0 0 1-19.988 13.331c-1.72.928-3.338 1.904-5.046 2.8-7.7 4.02-15.66 7.553-23.83 10.531-2.1.798-4.168 1.612-6.3 2.344a200.744 200.744 0 0 1-27.165 6.934c-1.9.358-3.842.602-5.778.896a181.276 181.276 0 0 1-60.47 0c-1.92-.292-3.858-.538-5.762-.896a200.081 200.081 0 0 1-27.167-6.934c-2.132-.732-4.198-1.546-6.298-2.344a202.166 202.166 0 0 1-23.944-10.759c-1.7-.896-3.322-1.872-5.03-2.8a205.132 205.132 0 0 1-20.004-13.33c-2.166-1.613-4.396-3.175-6.658-4.867a199.662 199.662 0 0 1-19.043-17.515c-1.76-1.79-3.322-3.727-5.128-5.631a198.824 198.824 0 0 1-17.172-21.86c-.36-.57-.66-1.172-1.02-1.742a197.791 197.791 0 0 1-14.976-27.395l-.22-.472a199.229 199.229 0 0 1-10.938-31.659v-.212l-2.638-21.062 196.188-27.802zm-396.216-428.395a33.42 33.42 0 0 0-23.57 9.766l-12.907 12.908-.26-.2a711.496 711.496 0 0 0-89.605-56.368 331.588 331.588 0 0 1 41.995-106.68l114.347 140.569zm-33.335 633.372h100.007a27.18 27.18 0 0 0 3.06-.618 271.132 271.132 0 0 0 25.765 12.599l3.11 1.22c6.364 2.604 12.858 5.013 19.468 7.145 2.132.7 4.33 1.334 6.494 1.97a276.742 276.742 0 0 0 17.172 4.428c2.604.57 5.226 1.172 7.862 1.66 5.777 1.106 11.637 1.97 17.547 2.702 2.49.308 4.964.7 7.486.944 8.368.798 16.668 1.286 25.376 1.286 8.692 0 16.994-.488 25.36-1.286 2.54-.244 5.014-.634 7.504-.944 5.91-.732 11.77-1.596 17.531-2.702 2.636-.488 5.274-1.09 7.878-1.66a275.757 275.757 0 0 0 17.156-4.428 754.65 754.65 0 0 0 6.674-1.97 334.107 334.107 0 0 0 19.466-7.178c1.04-.39 2.1-.766 3.11-1.188a271.128 271.128 0 0 0 25.765-12.598c.94.244 1.92.456 2.898.618h200.012c4.704.04 9.36 1.106 13.624 3.076 1.3.764 2.54 1.612 3.744 2.523a34.43 34.43 0 0 1 7.064 5.469c.26.31.4.7.66 1.01L1748.44 901.651l-358.452-119.474c.26-.31.38-.7.66-1.01a34.42 34.42 0 0 1 7.064-5.469 37.292 37.292 0 0 1 3.726-2.523 33.445 33.445 0 0 1 13.642-3.076zM2004.7-241.649l-11.574-30.748 174.62-38.837-143.644 191.548a401.724 401.724 0 0 0-57.638-45.364l33.662-44.908a33.307 33.307 0 0 0 4.574-31.691zm-78.341 130.004a335.466 335.466 0 0 1 57.505 45.56L1847.186 116.2a91.626 91.626 0 0 0 1.26-12.81c0-26.792-10.84-52.46-29.998-71.195zm-177.91-51.647a333.3 333.3 0 0 1 117.343 21.34L1756.18 4.166c-2.604-.212-5.062-.782-7.732-.782-2.668 0-5.142.57-7.73.782l-109.61-146.12a333.295 333.295 0 0 1 117.34-21.339zm-177.908 51.68l107.9 143.808a99.692 99.692 0 0 0-29.997 71.195c.2 5.29.64 10.564 1.6 15.773L1505.846-58.305a332.445 332.445 0 0 1 64.701-53.307zm-271.19-200.843l204.113 40.823-11.264 30.015a33.344 33.344 0 0 0 4.558 31.691l33.678 44.909a403.268 403.268 0 0 0-67.046 54.528zm-17.597 523.665v-96.978a642.702 642.702 0 0 1 190.002 98.28l1.14.863-20.9 41.799a33.357 33.357 0 0 0-.48 28.827c.82 1.172 1.7 2.295 2.67 3.336a710.037 710.037 0 0 0-172.44-76.127zm-247.557 592.225h256.183l-39.227 67.24a31.29 31.29 0 0 0-2.734-.57H995.328zm-77.773 133.341h256.185l-38.901 66.671H917.523zm125.319 200.013H839.752l39.243-67.225c.9.228 1.8.424 2.734.554h253.075l-38.867 66.671zm233.347 233.347h-200.012V1203.46h200.012zm0-233.347h-141.984l38.901-66.671h103.083zm0-200.013v66.671h-64.213l64.213-110zm-33.336-233.347V370.075h200.012v333.354zm833.385 666.707H1381.76v-66.67h733.378zm0-333.354v200.013H1381.76V983.052l166.676 55.537v64.864h-33.335v66.671h133.342v-66.67h-33.335v-42.63l122.81 40.937a33.3 33.3 0 0 0 21.062 0l156.146-52.038v53.73h-33.336v66.671h133.343v-66.67h-33.336v-75.966l133.34-44.436zm0-124.03l-366.69 122.24-366.688-122.24V849.71L1737.92 968.42a33.3 33.3 0 0 0 21.062 0l356.158-118.709zm-33.336-209.323h-66.67V370.075h200.012v333.354zm300.019 666.707H2181.81V1203.46h200.012zm33.335-233.347h-14.21l-38.87-66.671h253.094c.9-.12 1.84-.326 2.734-.554l39.227 67.224zm0 0" id="path1426" stroke-width="4.167"/><path d="M1551.356 331.525c1.728-2.796 6.44-5.084 10.47-5.084s7.326 2.288 7.326 5.084c0 2.797-4.71 5.085-10.469 5.085-5.758 0-9.056-2.288-7.327-5.085z" id="path1534" opacity="1" fill="#a0a0a0" fill-opacity="1" fill-rule="nonzero" stroke="none" stroke-width="10.169" stroke-linejoin="round" stroke-miterlimit="4" stroke-dasharray="none" stroke-opacity="1"/><path d="M1548.814 415.424c0-63.385 1.365-78.814 6.973-78.814 5.134 0 7.598 10.784 9.34 40.878 1.97 34.009 5.376 46.744 20.274 75.78l17.906 34.901-15.17 3.034c-8.344 1.669-20.605 3.034-27.247 3.034h-12.076z" id="path1536" opacity="1" fill="#a0a0a0" fill-opacity="1" fill-rule="nonzero" stroke="none" stroke-width="10.169" stroke-linejoin="round" stroke-miterlimit="4" stroke-dasharray="none" stroke-opacity="1"/><path d="M1906.01 490.648l-11.447-2.204 12.318-21.256c18.18-31.368 29.916-77.14 27.153-105.894-1.78-18.53-.656-24.684 4.509-24.684 5.489 0 6.88 15.947 6.88 78.814v78.813l-13.982-.692c-7.691-.381-19.135-1.685-25.43-2.897z" id="path1540" opacity="1" fill="#a0a0a0" fill-opacity="1" fill-rule="nonzero" stroke="none" stroke-width="10.169" stroke-linejoin="round" stroke-miterlimit="4" stroke-dasharray="none" stroke-opacity="1"/><path d="M1930.17 331.525c0-2.796 3.432-5.084 7.627-5.084 4.194 0 7.627 2.288 7.627 5.084 0 2.797-3.433 5.085-7.627 5.085-4.195 0-7.628-2.288-7.628-5.085z" id="path1542" opacity="1" fill="#a0a0a0" fill-opacity="1" fill-rule="nonzero" stroke="none" stroke-width="10.169" stroke-linejoin="round" stroke-miterlimit="4" stroke-dasharray="none" stroke-opacity="1"/></g><path id="path2129" d="M600.05 1.5L81.69 300.75v598.5l101.78 58.73 1.87 1.12 414.71 239.4 518.26-299.25v-598.5zm435.31 848.7l-9.63 5.52-8.42 4.86-24.78 14.31-.56.37h-.09l-33.58 19.36-17.67 10.19-28.52 16.46-14.59 8.42-27.78 16-10.38 6.08-3.55 2-35.34 20.43-2.24 1.22-1.22.74-.47.28-.18.1-4 2.24-3 1.69-2 1.21-5.15 2.9-3.27 2-3.47 1.92-4.95 2.9-2.34 1.31-.1.09-4.3 2.52h-.09l-4.3 2.53-11.79 6.83-7.48 4.3-5.89 3.36-2 1.13-2.15 1.31h-.1l-3.64 2.05-21.79 12.53-4.08 2.44-6.26 3.65-6.18 3.56-6.92 4-22.91 13.18-36 20.76-2.25 1.31-4.67 2.71-6.45 3.74-.85.47-16.92 9.63-2.9 1.69-.28.18-1.31.75-1.78 1-.18.09-.19-.1-.1.06-1.31-.75-12-6.92-8-4.58-.28-.1-8.51-5-1.59-.94-.47-.28-5.7-3.27-1.59-.94-31.42-18.14-.38-.28-19.35-11.13-11.57-6.65-3.58-2.09-17.42-10.12-29.87-17.15-4.05-2.36-.73-.4-.3-.2-1.19-.69-2.89-1.68-1.69-.94-8.32-4.77-12.44-7.29-8.2-4.71-17.86-10.38-.37-.18-1.77-.94-1-.65-1.4-.75-.65-.38-6.45-3.74-50.32-29-31.6-18.23-12.16-7-4.3-2.44-14.87-8.6-17.58-10.19-5-2.9-6.45-3.65-40.4-23.38-1.4-.75-7-4-16.08-9.35-.66-.37V353.44l14.4-8.32 39.56-22.82 27.87-16.08 9.35-5.43 22.26-12.81h.09l26.33-15.15 3.78-2.19.57-.34.09-.09 1.91-1.08 6.87-4 3.83-2.19 1-.58 3.29-1.9 1.2-.67 11.15-6.39 7.25-4.17 6.83-4 1.4-.77.63-.37 2.18-1.29 2.8-1.59 3.93-2.33 2.34-1.41h.09l.94-.46 4.95-2.9 2.51-1.45 4.5-2.62.51-.27 4.64-2.68 32.92-19 4.29-2.53 4.87-2.81 7.12-4.06 20.35-11.75.3-.18.84-.48 136.26-78.68 4.4-2.53h.05l.13-.07 9.91 5.8 60.69 35.07 24.32 14 14 8.09 33.28 19.19 2.18 1.24 9.75 5.63 33 19 49.58 28.56 1 .57 8.14 4.67 14.22 8.23 12.89 7.45 7.48 4.3.84.56 16.93 9.73 35.34 20.41.23.18 10.81 6.23 8.42 4.86 4.73 2.73 4.58 2.62 1 .56 7.2 4.21 6.73 3.93 5 2.81 48.35 27.86z" fill="#fbc115"/><path id="path2131" d="M611.82 1094.13h.09l5.24-3 17.49-10.1 4.67-2.71 1.69-.94.37-.18 3.37-2 22.07-12.7 3.74-2.16 4-2.33.09-.1 3.65-2 9.16-5.33 11.69-6.74 1.31-.75 4.68-2.71 3.34-1.88 3.74-2.15.09-.09.19-.1 32.73-19 .56-.28 5.89-3.37 21.79-12.53 5.33-3.08.38-.28 3.93-2.25 4.39-2.52a.09.09 0 0 0 .09-.1l2.29-1.25 3.09-1.77 1.87-1.12 6-3.56.66-.37h.09l2.25-1.31 3-1.68.47-.29 1.4-.84 1.31-.75 9.44-5.42.38-.19.18-.18 1.69-.84 7.29-4.21v-.1l.56-.37.47-.19.47-.28.28-.09 3.83-2.25.75-.46.66-.38.46-.35 11.79-6.73 8.13-4.86 14.4-8.33h.1l.18-.18 4.21-2.43 11.51-6.64.37-.28 9.82-5.62 7.67-4.39 28.33-16.27 1-.66.94-.37.28-.09 2.27-1.15 4.4-2.53 1.31-.74 4.39-2.53 13.84-8 1.5-.84 18.05-10.38 1.87-1.12 29.36-16.93 8.23-4.77 1.21-.65 3.09-1.78 10.19-5.8.1-.09V353.31l-26.37-15.25-18.17-10.47-4.12-2.34-7.29-4.12-18-10.38-.18-.09-5.05-2.9-8.61-5-3.74-2.15-2.43-1.49-2.43-1.31v-.1l-.15-.1-57-32.86-16-9.16-6.73-3.93-4.21-2.43-4.58-2.72-.47-.18-3.92-2.34-3.84-2.25-.26-.14-20.5-11.68-9.73-5.71-52.34-30.19-11.93-6.87-10.35-6L713.74 168l-104.16-60-4.9-2.87-13.34 7.69-56.76 32.78-2.53 1.5-1.77 1-53.5 30.86-.46.28h-.1l-12.25 7-1.14.66-6.15 3.66-14.21 8.12-2.25 1.3-14 8.1-6 3.55-4.12 2.43-3.55 2.06-7.3 4.2-15.52 8.89-1.08.57-5 2.89-10.27 6-9.47 5.45-.35.21-.28.16-8.23 4.74-7.2 4.17h-.05l-4.63 2.67-5.33 3.08h-.09l-1.14.64-4.49 2.57-.92.53-.1.06-.08.08-5.42 3.18-5.2 2.94-2 1.17-.28.18-4.06 2.34-5.39 3.14-19.35 11.12-1.41.85-7.67 4.48-21.22 12.25-16.37 9.45-5.42 3.09-2.37 1.28h-.09l-7.2 4.3-52.93 30.5v496.94l.28.19.74.38.85.46 31.88 18.43 30.86 17.8.19.1 2.43 1.4a.31.31 0 0 0 .19.09l2.71 1.59.19.1.37.18 6.74 4 12.43 7.2 9.54 5.51 17.4 10.1c.09 0 .09 0 .18.1l9.73 5.61h.12l2 1.12.09.09 4.67 2.72.85.46 7.66 4.4 19.49 11.23 23.47 13.65 16 9.26 3.46 2.06 1.41.75.46.28 12.16 6.92.37.28.75.37.75.47 3.27 1.87.85.47 2.24 1.4 2.43 1.4 2.15 1.22 3.65 2.06 3.46 2 11.36 6.54 20.85 12.06.28.19.54.36.59.34.44.26 1.33.72 8.7 5 6.45 3.65 5.71 3.27 11.73 6.82 3.51 2 .85.47 4.11 2.43 5.8 3.37 3.15 1.83 3.6 2.09h.08l5 2.81 14.12 8.13 29.65 17.21 41.89 24.13 9.63 5.61 2 1.11 4.39-2.56zm-39.46-34.18l-11.5-6.64-5.7-3.27-16.93-9.82-6.73-3.83-6.46-3.74-49.18-28.34-7.2-4.21-.47-.28-16.72-9.63-19.27-11-8.41-4.87-5.43-3.18-2.33-1.4-4-2.34-2-1.12-16.36-9.44-2.9-1.69-1.78-1-14-8.13-32.02-18.52-36.56-21.1-2.81-1.59-13.65-7.85-4-2.34-28-16.09-45.91-26.56-8.42-4.77-3.65-2.15-2.15-1.21-6.26-3.65V363.5l36.56-21.13 27.87-16.09 8.7-5.05h.09l.56-.37 29.93-17.3h.09l12.72-7.39h.09l16.74-9.63 11.69-6.73 4-2.34h.1l7.1-4.12 4.3-2.52h.1l27.86-16.09c.1-.09.1-.09.19-.09l7.3-4.21 3.27-1.87 1.87-1.12 2.78-1.55 1.59-.94 2.53-1.4.37-.19 75.09-43.39 125.18-72.28 4.4-2.53 5 2.9 157.39 90.8 65.27 37.69.47.28 3 1.68 1 .57 4.12 2.43 3.27 1.87 11.5 6.64 18.11 10.47 65.65 37.78 13.19 7.58 5.14 3 .38.28 7.2 4.11 1.77 1 5 2.9 5 2.9 40.78 23.45v476.69l-4.86 2.81-3 1.68-5.43 3.18-71 41-10.1 5.8-17.68 10.19-15.9 9.16-29.13 16.8-12 6.92-6.74 3.83-27.4 15.81-.65.46-1.5.85-1.68 1-5.33 3-8.29 4.82-2.06 1.21-.47.28-7.57 4.4-.85.46-36.56 21-.75.46-7.39 4.21-.74.47-8.51 5-20.11 11.6-14.4 8.32-15.71 9.08-10.29 5.89-27.77 16.08-11.53 6.61-.56.38h-.18l-7 4.11-2.62 1.4-17.48 10.1z" style="isolation:isolate" opacity=".13"/><path id="path2133" d="M731.27 1075.63l14.64-8.41.66 1.15a27.93 27.93 0 0 1 3.14 7.62 17.62 17.62 0 0 1 0 7.12 18.55 18.55 0 0 1-9.35 12.77 20 20 0 0 1-15.83 2 21.3 21.3 0 0 1-4.86-39 20.93 20.93 0 0 1 8.73-2.77 25.76 25.76 0 0 1 9.93 1.59l-1.76 5.8q-7.7-3.3-14 .31a14.57 14.57 0 0 0-7.21 9.31 15 15 0 0 0 1.69 11.74 14.44 14.44 0 0 0 9.85 7.3 14.7 14.7 0 0 0 10.67-1.4 12.34 12.34 0 0 0 5.55-6.73 11 11 0 0 0-.17-8.43l-8.85 5.08z" class="cls-7" fill="#15003e"/><path id="rect2135" transform="rotate(-29.95)" class="cls-7" fill="#15003e" d="M135.396 1277.509h6.17v40.88h-6.17z"/><path transform="translate(-9.53 -1.5)" id="polygon2137" class="cls-7" fill="#15003e" d="M789.87 1032.99l-2.9-5.02 21.61-12.44 2.88 5.02-8.11 4.67 17.49 30.41-5.33 3.07-17.5-30.39z"/><path id="path2139" d="M842.06 991.8l3.64 6.32q-6.88-1.22-11.83 1.64a14.15 14.15 0 0 0-6.95 9.21 15.27 15.27 0 0 0 1.74 11.72 14.86 14.86 0 0 0 9.17 7.25 14.43 14.43 0 0 0 11.45-1.48 13.25 13.25 0 0 0 4.25-3.68 15 15 0 0 0 1.57-2.55 30.42 30.42 0 0 0 1.41-3.32l3.72 6.46a22.38 22.38 0 0 1-8.15 8.16 21 21 0 0 1-28.79-7.66 21.08 21.08 0 0 1-2.45-14.65 20.46 20.46 0 0 1 10.51-14.72 20.78 20.78 0 0 1 10.71-2.73" class="cls-7" fill="#15003e"/><path id="path2141" d="M867.98 990.21a20 20 0 0 1-1.91-16 20.93 20.93 0 0 1 10-13 21.4 21.4 0 0 1 29 7.83 20.11 20.11 0 0 1 2 16.11 21.63 21.63 0 0 1-25.15 15.35q-9-1.78-13.94-10.31m5.41-3a14.8 14.8 0 0 0 9.51 7.37 15.11 15.11 0 0 0 18.45-10.69 15.88 15.88 0 0 0-10.89-19 14.38 14.38 0 0 0-11.54 1.5 14.53 14.53 0 0 0-7.11 9.23 14.8 14.8 0 0 0 1.58 11.6" fill="#fff"/><path id="rect2143" transform="rotate(-29.97)" class="cls-7" fill="#15003e" d="M318.166 1277.676h6.17v40.87h-6.17z"/><path transform="translate(-9.53 -1.5)" id="polygon2145" class="cls-7" fill="#15003e" d="M980.7 916.47l21.64 37.6-41.37-12.1 14.28 24.8-5.34 3.08-21.78-37.84 41.41 12.16-14.18-24.63z"/></g></svg>