<svg xmlns="http://www.w3.org/2000/svg" xmlns:xlink="http://www.w3.org/1999/xlink" viewBox="0 0 680 785.2"><defs><style>.cls-1{fill:#4ac8c1;}.cls-2{fill:url(#linear-gradient);}.cls-3{fill:url(#linear-gradient-2);}.cls-4{fill:url(#linear-gradient-3);}.cls-5{fill:url(#linear-gradient-4);}.cls-6{fill:url(#linear-gradient-5);}.cls-7{fill:url(#linear-gradient-6);}.cls-8{fill:url(#linear-gradient-7);}.cls-9{fill:url(#linear-gradient-8);}.cls-10{fill:url(#linear-gradient-9);}.cls-11{fill:url(#linear-gradient-10);}.cls-12{fill:url(#linear-gradient-11);}.cls-13{fill:#fff;}.cls-14,.cls-22{fill:none;stroke:#4d4d4f;stroke-miterlimit:10;}.cls-14{stroke-width:4px;}.cls-15{fill:#4d4d4f;}.cls-16{fill:#373738;}.cls-17{fill:#3e3e40;}.cls-18{fill:#39393b;}.cls-19{fill:#5a5a5c;}.cls-20{fill:url(#linear-gradient-12);}.cls-21{fill:url(#linear-gradient-13);}</style><linearGradient id="linear-gradient" x1="239.78" y1="909.98" x2="469.57" y2="-276.29" gradientUnits="userSpaceOnUse"><stop offset="0" stop-color="#4176b6"/><stop offset="1" stop-color="#20237d"/></linearGradient><linearGradient id="linear-gradient-2" x1="326.59" y1="-101.05" x2="348.17" y2="600.81" gradientUnits="userSpaceOnUse"><stop offset="0" stop-color="#69dbd5"/><stop offset="0.44" stop-color="#66d4d1"/><stop offset="0.47" stop-color="#66d3d1"/><stop offset="0.54" stop-color="#62c9cc"/><stop offset="0.66" stop-color="#57aebe"/><stop offset="0.82" stop-color="#4582a8"/><stop offset="1" stop-color="#2d468a"/></linearGradient><linearGradient id="linear-gradient-3" x1="328.86" y1="281.04" x2="341.56" y2="531.07" gradientUnits="userSpaceOnUse"><stop offset="0" stop-color="#a3957a"/><stop offset="0.09" stop-color="#b3a184"/><stop offset="0.28" stop-color="#cdb794"/><stop offset="0.48" stop-color="#e1c7a0"/><stop offset="0.68" stop-color="#ecd0a8"/><stop offset="0.88" stop-color="#f0d3aa"/></linearGradient><linearGradient id="linear-gradient-4" x1="146.26" y1="556.57" x2="265.4" y2="556.57" gradientUnits="userSpaceOnUse"><stop offset="0" stop-color="#a3957a"/><stop offset="0.44" stop-color="#beaa8a"/><stop offset="0.88" stop-color="#d6bc98"/></linearGradient><linearGradient id="linear-gradient-5" x1="247.88" y1="567.24" x2="311.92" y2="567.24" xlink:href="#linear-gradient-4"/><linearGradient id="linear-gradient-6" x1="54.6" y1="552.85" x2="165.29" y2="552.85" xlink:href="#linear-gradient-4"/><linearGradient id="linear-gradient-7" x1="368.08" y1="567.72" x2="433.28" y2="567.72" xlink:href="#linear-gradient-4"/><linearGradient id="linear-gradient-8" x1="514.45" y1="553.13" x2="627.1" y2="553.13" xlink:href="#linear-gradient-4"/><linearGradient id="linear-gradient-9" x1="414.42" y1="557.09" x2="534.99" y2="557.09" xlink:href="#linear-gradient-4"/><linearGradient id="linear-gradient-10" x1="338.59" y1="574.82" x2="342.07" y2="574.82" xlink:href="#linear-gradient-4"/><linearGradient id="linear-gradient-11" x1="286.84" y1="188.75" x2="407.32" y2="763.36" gradientUnits="userSpaceOnUse"><stop offset="0" stop-color="#a3957a"/><stop offset="0.57" stop-color="#d8c09b"/><stop offset="0.88" stop-color="#f0d3aa"/></linearGradient><linearGradient id="linear-gradient-12" x1="223.65" y1="516.5" x2="267.67" y2="250.99" gradientUnits="userSpaceOnUse"><stop offset="0" stop-color="#20237d"/><stop offset="0.41" stop-color="#292da1"/><stop offset="0.72" stop-color="#4176b6"/><stop offset="1" stop-color="#4ac8c1"/></linearGradient><linearGradient id="linear-gradient-13" x1="391.57" y1="475.22" x2="447.98" y2="277.11" xlink:href="#linear-gradient-12"/></defs><g id="Layer_2" data-name="Layer 2"><g id="ironman"><polygon class="cls-1" points="0 588.9 0 196.3 340 0 680 196.3 680 588.9 340 785.2 0 588.9"/><polygon class="cls-2" points="13.44 581.14 13.44 204.06 340 15.52 666.56 204.06 666.56 581.14 340 769.68 13.44 581.14"/><path class="cls-3" d="M626.24,227.34V442.89a2587.8,2587.8,0,0,0-572.49,0V227.34L340,62.07Z"/><path class="cls-4" d="M626.24,442.89v115L340,723.13,53.75,557.86v-115a2587.8,2587.8,0,0,1,572.49,0Z"/><path class="cls-5" d="M260.86,676.69l4.54,2.62L149.46,433.82l-3.2.23Z"/><path class="cls-6" d="M247.88,428.41l60.53,275.74,3.51,2-61-277.87Z"/><polygon class="cls-7" points="54.6 488.95 158.11 617.37 165.29 621.51 54.6 484.19 54.6 488.95"/><path class="cls-8" d="M368.08,707.16l3.51-2,61.69-276.74-3-.1Z"/><polygon class="cls-9" points="627.1 483.61 514.45 622.65 521.67 618.48 627.1 488.35 627.1 483.61"/><path class="cls-10" d="M531.79,433.78,414.42,680.4l4.56-2.63L535,434Z"/><path class="cls-11" d="M341.57,722.46l.5-295.7h-3l-.49,294.81,2.26,1.31Z"/><path class="cls-12" d="M341.32,426.74A2564.42,2564.42,0,0,0,55.08,442.62v11.94a2587.8,2587.8,0,0,1,572.49,0V442.62A2564.47,2564.47,0,0,0,341.32,426.74Z"/><path class="cls-13" d="M416.55,597.54a21,21,0,0,1-20.95-21.81l2-50.34h-1.74a10.65,10.65,0,0,1-7.3-2.88h-1.95v15.88a8.49,8.49,0,0,1-8.48,8.48H302.46a8.5,8.5,0,0,1-8.49-8.48V522.51h-2.14a10.26,10.26,0,0,1-7.16,2.88h-2.15l2,50.34a21,21,0,0,1-20.95,21.81h-46a21,21,0,0,1-21-21.81l4.06-101.46a18.52,18.52,0,0,1,18.56-17.83h42.66a18.53,18.53,0,0,1,18.57,17.83l1.1,27.68h3.09a10.22,10.22,0,0,1,7.16,2.89H294v-1.56a21.69,21.69,0,0,1,21.63-21.66V475.8H317v-9.38H315.6v-6.31h-9.06a9,9,0,0,1-9-9V441.7h-1.44a15.91,15.91,0,0,1-14.63-9.65l-5.56-13v-2.18H204.17a3.6,3.6,0,0,1-2.38-.9l-4.48-3.94H195l6.59-128h0l0-1h20.11v-.13l3.07.1.47,0H242v0l1.51,0L245,283l.47,0h16.64v0l1.51,0,1.52.05.48,0h16.64v0l1.5,0,1.53.05.47,0h22.77l-.11,2.15,4.07,3.57a3.63,3.63,0,0,1,1.22,2.89l0,.44a63.43,63.43,0,0,1,20.45-5.45L340,266a15.06,15.06,0,0,1-3.76-10,15.22,15.22,0,0,1,4.2-10.47,55.24,55.24,0,0,1,11.14-67.2l2.27-2.07,33,36.25,9.83-8.45a11.72,11.72,0,1,1,7.74,8.72l-.36-.13-9.59,8.24,33.39,36.69-2.26,2.07a55,55,0,0,1-63.74,7.37,15,15,0,0,1-6,3.48l-4.76,16.71a64.33,64.33,0,0,1,14.8,4.39l0-.27a3.61,3.61,0,0,1,1.21-2.87l4.92-4.33a3.6,3.6,0,0,1,3.76-.61,3.45,3.45,0,0,1,.47.24h17.68l3.54-.18v.18h16.6l3.54-.18v.18h16.59l3.54-.18v.18h16.6l3.49-.18v.18h20.17l2.1,41h.68V332h-.31l.7,13.59h.65v7.18h-.28l.7,13.59h.62v7.17h-.25l.7,13.59H484v7.17h-.22l.64,12.44a3.77,3.77,0,0,1,.38.75,3.6,3.6,0,0,1-1,4l-4.92,4.32a3.59,3.59,0,0,1-2.37.89H404.65v2.45L399,432.15a15.73,15.73,0,0,1-14.48,9.55H383v9.45a9,9,0,0,1-9,9H365v6.31h-1.44v9.38H365v5.82a21.69,21.69,0,0,1,21.63,21.66v1.56h1.95a10.61,10.61,0,0,1,7.3-2.89h2.68l1.11-27.68a18.51,18.51,0,0,1,18.56-17.83h42.66a18.52,18.52,0,0,1,18.56,17.83l4.06,101.46a21,21,0,0,1-20.95,21.81Z"/><polygon class="cls-14" points="340.78 62.07 54.53 227.33 54.53 442.89 54.53 557.86 340.78 723.13 627.02 557.86 627.02 442.89 627.02 227.33 340.78 62.07"/><rect class="cls-15" x="362.65" y="216.21" width="51.33" height="5.19" transform="matrix(0.76, -0.65, 0.65, 0.76, -48.79, 306.02)"/><rect class="cls-15" x="311.52" y="287.88" width="58.62" height="10.38" transform="translate(-34.35 540.65) rotate(-74.11)"/><path class="cls-16" d="M423.44,257.54a51.91,51.91,0,1,1-69.87-76.78Z"/><circle class="cls-16" cx="351.34" cy="256.17" r="12.11"/><circle class="cls-15" cx="408.05" cy="201.83" r="8.65"/><rect class="cls-17" x="278.93" y="347.92" width="122.56" height="70.65"/><rect class="cls-16" x="324.11" y="451.43" width="32.22" height="39.1"/><rect class="cls-15" x="318.59" y="479" width="43.26" height="12.98"/><rect class="cls-15" x="320.03" y="468.36" width="40.37" height="5.77"/><rect class="cls-15" x="318.59" y="456.28" width="43.26" height="7.21"/><path class="cls-17" d="M300.56,431.22h79.31a0,0,0,0,1,0,0v18.27a7.69,7.69,0,0,1-7.69,7.69H308.25a7.69,7.69,0,0,1-7.69-7.69V431.22A0,0,0,0,1,300.56,431.22Z"/><path class="cls-16" d="M384.48,438.76H296.06A12.84,12.84,0,0,1,284.25,431l-5.32-12.39H401.5l-5.36,12.5A12.69,12.69,0,0,1,384.48,438.76Z"/><path class="cls-16" d="M278.93,350.81a61.29,61.29,0,0,1,122.57,0Z"/><path class="cls-16" d="M395.79,505.16a7.68,7.68,0,0,0-6,2.88H290.38a7.29,7.29,0,0,0-5.79-2.88h-10v17.3h10a7.27,7.27,0,0,0,5.79-2.89H389.8a7.71,7.71,0,0,0,6,2.89h9.55v-17.3Z"/><path class="cls-17" d="M321.21,484.82h38a24.25,24.25,0,0,1,24.25,24.25v27.8a7.06,7.06,0,0,1-7.06,7.06H304a7.06,7.06,0,0,1-7.06-7.06v-27.8A24.25,24.25,0,0,1,321.21,484.82Z"/><path class="cls-18" d="M217.5,594.6A17.91,17.91,0,0,1,199.61,576l4.06-101.45a15.46,15.46,0,0,1,15.5-14.89h42.66a15.47,15.47,0,0,1,15.5,14.89L281.39,576A17.91,17.91,0,0,1,263.5,594.6Z"/><path class="cls-18" d="M217.5,594.6A17.91,17.91,0,0,1,199.61,576l4.06-101.45a15.46,15.46,0,0,1,15.5-14.89h42.66a15.47,15.47,0,0,1,15.5,14.89L281.39,576A17.91,17.91,0,0,1,263.5,594.6Z"/><path class="cls-19" d="M263.5,592h-46a15.31,15.31,0,0,1-15.3-15.92l4.06-101.46a12.91,12.91,0,0,1,12.91-12.39h42.66a12.92,12.92,0,0,1,12.91,12.39l4.05,101.46A15.3,15.3,0,0,1,263.5,592Z"/><polygon class="cls-18" points="203.98 530.97 203.88 533.57 277.12 533.57 277.02 530.97 203.98 530.97"/><polygon class="cls-18" points="202.33 572.14 202.23 574.73 278.77 574.73 278.67 572.14 202.33 572.14"/><polygon class="cls-18" points="203.16 551.55 203.05 554.15 277.94 554.15 277.84 551.55 203.16 551.55"/><polygon class="cls-18" points="205.63 489.8 205.52 492.4 275.48 492.4 275.37 489.8 205.63 489.8"/><path class="cls-18" d="M207.35,469.22a12.6,12.6,0,0,0-.82,2.59h67.94a13.25,13.25,0,0,0-.82-2.59Z"/><polygon class="cls-18" points="204.8 510.38 204.7 512.98 276.3 512.98 276.19 510.38 204.8 510.38"/><path class="cls-18" d="M416.47,594.6A17.91,17.91,0,0,1,398.58,576l4.06-101.45a15.46,15.46,0,0,1,15.5-14.89H460.8a15.47,15.47,0,0,1,15.5,14.89L480.36,576a17.91,17.91,0,0,1-17.89,18.62Z"/><path class="cls-18" d="M416.47,594.6A17.91,17.91,0,0,1,398.58,576l4.06-101.45a15.46,15.46,0,0,1,15.5-14.89H460.8a15.47,15.47,0,0,1,15.5,14.89L480.36,576a17.91,17.91,0,0,1-17.89,18.62Z"/><path class="cls-19" d="M462.47,592h-46a15.31,15.31,0,0,1-15.3-15.92l4.06-101.46a12.91,12.91,0,0,1,12.91-12.39H460.8a12.9,12.9,0,0,1,12.9,12.39l4.06,101.46A15.3,15.3,0,0,1,462.47,592Z"/><polygon class="cls-18" points="402.95 530.97 402.84 533.57 476.09 533.57 475.99 530.97 402.95 530.97"/><polygon class="cls-18" points="401.3 572.14 401.2 574.73 477.74 574.73 477.63 572.14 401.3 572.14"/><polygon class="cls-18" points="402.12 551.55 402.02 554.15 476.91 554.15 476.81 551.55 402.12 551.55"/><polygon class="cls-18" points="404.59 489.8 404.49 492.4 474.44 492.4 474.34 489.8 404.59 489.8"/><path class="cls-18" d="M406.32,469.22a12,12,0,0,0-.82,2.59h67.94a13.25,13.25,0,0,0-.82-2.59Z"/><polygon class="cls-18" points="403.77 510.38 403.67 512.98 475.27 512.98 475.16 510.38 403.77 510.38"/><path class="cls-15" d="M310.56,291.61a.55.55,0,0,0-.17-.42l-4.92-4.31a.52.52,0,0,0-.86.36L298.37,408.6h-99.2a.53.53,0,0,0-.49.34.51.51,0,0,0,.15.57l4.91,4.32a.53.53,0,0,0,.34.13h99.7a.71.71,0,0,0,.2,0s0,0,0,0a.39.39,0,0,0,.1-.08.31.31,0,0,0,.1-.13s0,0,0-.05,0-.05,0-.07a.32.32,0,0,1,0-.09Z"/><polygon class="cls-15" points="305.13 287.27 298.86 409.12 198.13 409.12 204.4 287.27 305.13 287.27"/><polygon class="cls-20" points="305.22 286.23 298.96 408.08 198.22 408.08 204.49 286.23 305.22 286.23"/><path class="cls-15" d="M304.17,287.23,298,407.08H199.28l6.16-119.85h98.73m1.05-1H204.49l-6.27,121.85H299l6.26-121.85Z"/><rect class="cls-15" x="203.97" y="306.47" width="100.73" height="1.04"/><rect class="cls-15" x="202.9" y="327.24" width="99.69" height="1.04"/><rect class="cls-15" x="201.86" y="348" width="99.69" height="1.04"/><rect class="cls-15" x="200.82" y="368.76" width="99.69" height="1.04"/><rect class="cls-15" x="199.78" y="389.53" width="99.69" height="1.04"/><rect class="cls-15" x="161.01" y="346.64" width="122.02" height="1.04" transform="translate(-135.96 551.26) rotate(-87.09)"/><rect class="cls-15" x="181.16" y="346.64" width="122.02" height="1.04" transform="translate(-116.84 571.38) rotate(-87.09)"/><rect class="cls-15" x="201.31" y="346.64" width="122.02" height="1.04" transform="translate(-97.71 591.5) rotate(-87.09)"/><rect class="cls-15" x="221.45" y="346.64" width="122.02" height="1.04" transform="translate(-78.59 611.62) rotate(-87.09)"/><path class="cls-15" d="M481.8,408.67a.5.5,0,0,0-.48-.34H381.08L374.84,287a.56.56,0,0,0-.32-.46.55.55,0,0,0-.55.09l-4.91,4.32a.54.54,0,0,0-.18.42l6.27,121.85a.19.19,0,0,0,0,.08.22.22,0,0,0,0,.08l0,0a.64.64,0,0,0,.1.13.7.7,0,0,0,.1.08s0,0,.05,0a.45.45,0,0,0,.2,0H476.4a.5.5,0,0,0,.34-.12l4.92-4.32A.51.51,0,0,0,481.8,408.67Z"/><polygon class="cls-15" points="475.05 286.99 481.32 408.85 380.58 408.85 374.32 286.99 475.05 286.99"/><polygon class="cls-21" points="475.05 286.99 481.32 408.85 380.58 408.85 374.32 286.99 475.05 286.99"/><polygon class="cls-22" points="475.05 286.99 481.32 408.85 380.58 408.85 374.32 286.99 475.05 286.99"/><rect class="cls-15" x="374.84" y="307.24" width="100.73" height="1.04"/><rect class="cls-15" x="376.95" y="328" width="100.73" height="1.04"/><rect class="cls-15" x="377.99" y="348.76" width="100.73" height="1.04"/><rect class="cls-15" x="379.03" y="369.53" width="100.73" height="1.04"/><rect class="cls-15" x="380.06" y="390.29" width="100.73" height="1.04"/><rect class="cls-15" x="457" y="286.91" width="1.04" height="122.02" transform="translate(-17.26 23.95) rotate(-2.94)"/><rect class="cls-15" x="436.85" y="286.91" width="1.04" height="122.02" transform="translate(-17.29 22.92) rotate(-2.94)"/><rect class="cls-15" x="416.7" y="286.91" width="1.04" height="122.02" transform="translate(-17.32 21.89) rotate(-2.94)"/><rect class="cls-15" x="396.56" y="286.91" width="1.04" height="122.02" transform="translate(-17.34 20.85) rotate(-2.94)"/></g></g></svg>