<svg id="Layer_1" data-name="Layer 1" xmlns="http://www.w3.org/2000/svg" xmlns:xlink="http://www.w3.org/1999/xlink" viewBox="0 0 113.17334 128.26046"><defs><linearGradient id="linear-gradient" x1="0.79453" y1="64.26046" x2="111.6445" y2="64.26046" gradientUnits="userSpaceOnUse"><stop offset="0.16369" stop-color="#bb2030"/><stop offset="0.28181" stop-color="#a62e45"/><stop offset="0.52612" stop-color="#70527b"/><stop offset="0.83017" stop-color="#2484c6"/></linearGradient></defs><g id="Layer_63" data-name="Layer 63"><polygon points="111.645 32.26 111.645 96.26 56.225 128.26 11.875 102.66 11.675 102.54 0.795 96.26 0.795 32.26 56.225 0.26 111.645 32.26" fill="url(#linear-gradient)"/><text transform="matrix(0.86325, 0.50478, -0.50478, 0.86325, 3.84157, 96.64282)" font-size="11.04118" font-family="Lifeline"><tspan xml:space="preserve">        </tspan></text><text transform="matrix(0.86986, -0.49329, 0.49329, 0.86986, 61.55147, 124.67076)" font-size="11.04118" font-family="Lifeline"><tspan xml:space="preserve">        </tspan></text><text transform="translate(111.71742 93.77015) rotate(-89.85288)" font-size="11.04118" font-family="Lifeline"><tspan xml:space="preserve">        </tspan></text><text transform="matrix(-0.86363, -0.50413, 0.50413, -0.86363, 106.947, 29.78942)" font-size="11.04118" font-family="Lifeline"><tspan xml:space="preserve">        </tspan></text><text transform="matrix(-0.00257, -1, -1, 0.00257, 1.45591, 93.77015)" font-size="11.04118" font-family="Lifeline"><tspan xml:space="preserve">        </tspan></text><text transform="matrix(0.86363, -0.50413, -0.50413, -0.86363, 6.22682, 29.78942)" font-size="11.04118" font-family="Lifeline"><tspan xml:space="preserve">        </tspan></text></g><g id="Layer_63-2" data-name="Layer 63"><polygon points="102.233 37.694 102.233 90.827 56.224 117.393 10.206 90.827 10.206 37.694 56.224 11.128 102.233 37.694" fill="#fff"/><path id="Fill-82" d="M56.0461,112.41811l-.40747-.32334A82.80507,82.80507,0,0,1,47.877,104.972c-5.5329-5.743-8.49931-10.73165-8.57776-14.42479a8.59886,8.59886,0,0,1,15.65686-5.03676.61843.61843,0,0,0,1.01591-.01843,8.61822,8.61822,0,0,1,15.8577,4.46917c.07828,3.69308-2.67477,8.7842-7.96136,14.72339a90.64224,90.64224,0,0,1-7.0628,7.04023Z" transform="translate(0.79453 0.26046)" fill="#f9006c" fill-rule="evenodd"/><path d="M49.98751,51.15081a13.30015,13.30015,0,0,1-4.91819-20.6374c2.43855-2.955,17.77978-3.10625,20.216-.35556a13.29953,13.29953,0,0,1-4.613,20.9925" transform="translate(0.79453 0.26046)" fill="#0fcf7d"/><path d="M62.40766,34.56292a3.46871,3.46871,0,1,1-3.46906-3.46859,3.46874,3.46874,0,0,1,3.46906,3.46859" transform="translate(0.79453 0.26046)" fill="#fff"/><path d="M64.886,39.74862a1.4029,1.4029,0,1,1-1.40268-1.40242A1.40251,1.40251,0,0,1,64.886,39.74862" transform="translate(0.79453 0.26046)" fill="#fff"/><path d="M67.436,56.5c-1.70921,0-1.70921-2.584-3.41771-2.584S62.30974,56.5,60.601,56.5c-1.709,0-1.709-2.584-3.41771-2.584-1.71037,0-1.71037,2.584-3.41979,2.584-1.70851,0-1.70851-2.584-3.41771-2.584-1.71083,0-1.71083,2.584-3.421,2.584-1.71036,0-1.71036-2.584-3.4205-2.584m-4.92471-2.76563H72.36M35.8684,36.72286a27.66846,27.66846,0,0,1,38.95671-.83393m-1.037,12.32463h2.04375a3.015,3.015,0,0,0,3.0068-3.0068V37.57011a3.01543,3.01543,0,0,0-3.0068-3.00657h-.86569m-37.76861,13.65H35.1533a3.01572,3.01572,0,0,1-3.00726-3.0068V37.57011a3.01613,3.01613,0,0,1,3.00726-3.00657h.86686m39.23991,5.185V15.58189M35.65548,39.74858V20.90279m0,19.13248a19.8023,19.8023,0,1,1,39.60459,0L70.375,59.26418H40.5398Zm30.785-9.61387a13.91094,13.91094,0,0,1-4.99709,20.658m-12.29591.07144a13.91157,13.91157,0,0,1-5.6431-19.9984M66.15726,68.04807H44.75735a4.21716,4.21716,0,0,1-4.21755-4.21778V59.26487H70.375v4.56542A4.21736,4.21736,0,0,1,66.15726,68.04807Z" transform="translate(0.79453 0.26046)" fill="none" stroke="#000" stroke-linecap="round" stroke-miterlimit="10" stroke-width="1.40079"/><rect x="26.79374" y="39.84349" width="5.45801" height="3.55957" rx="1.77978" fill="#fff" stroke="#000" stroke-miterlimit="10" stroke-width="0.2373"/><path d="M55.78094,86.45071l-.2373-9.52657c-1.65386,0-14.9502-1.43086-14.9502-3.085L21.87968,44.36938a3.01611,3.01611,0,0,1,3.00726-3.00656h.75631" transform="translate(0.79453 0.26046)" fill="none" stroke="#000" stroke-linecap="round" stroke-miterlimit="10" stroke-width="1.40079"/><rect x="79.39276" y="39.58303" width="5.45801" height="3.55957" rx="1.77978" transform="translate(165.03806 82.9861) rotate(180)" fill="#fff" stroke="#000" stroke-miterlimit="10" stroke-width="0.2373"/><path d="M55.78094,84.78957l-.2373-7.83105s14.71289-1.46524,14.71289-3.11934L88.9703,44.36938A3.01612,3.01612,0,0,0,85.963,41.36282h-.75631" transform="translate(0.79453 0.26046)" fill="none" stroke="#000" stroke-linecap="round" stroke-miterlimit="10" stroke-width="1.40079"/><ellipse cx="56.57547" cy="95.96605" rx="9.72949" ry="9.01758" fill="#999" stroke="#000" stroke-linecap="round" stroke-miterlimit="10" stroke-width="1.40079"/><ellipse cx="56.42002" cy="95.90673" rx="4.11603" ry="3.73755" fill="#ccc" stroke="#000" stroke-linecap="round" stroke-miterlimit="10" stroke-width="0.58657"/></g><g id="Layer_63-3" data-name="Layer 63" opacity="0.13" style="isolation:isolate"><path d="M55.425,10.865,9.415,37.435v53.13L55.425,117.135l46.01-26.57V37.435ZM99.725,89.505l-44.18,25.5-44.18-25.5V38.495l44.18-25.51,44.18,25.51Z" transform="translate(0.79453 0.26046)"/></g></svg>