<svg id="Layer_1" data-name="Layer 1" xmlns="http://www.w3.org/2000/svg" xmlns:xlink="http://www.w3.org/1999/xlink" viewBox="0 0 594 685.98"><defs><style>.cls-1{mask:url(#mask);}.cls-10,.cls-12,.cls-14,.cls-16,.cls-18,.cls-2,.cls-4,.cls-6,.cls-8{mix-blend-mode:multiply;}.cls-2{fill:url(#Névtelen_színátmenet_7);}.cls-3{mask:url(#mask-2);}.cls-4{fill:url(#Névtelen_színátmenet_6);}.cls-5{mask:url(#mask-3);}.cls-6{fill:url(#Névtelen_színátmenet_5);}.cls-7{mask:url(#mask-4);}.cls-8{fill:url(#Névtelen_színátmenet_2);}.cls-9{mask:url(#mask-5);}.cls-10{fill:url(#Névtelen_színátmenet_2-2);}.cls-11{mask:url(#mask-6);}.cls-12{fill:url(#Névtelen_színátmenet_7-2);}.cls-13{mask:url(#mask-7);}.cls-14{fill:url(#Névtelen_színátmenet_7-3);}.cls-15{mask:url(#mask-8);}.cls-16{fill:url(#Névtelen_színátmenet_7-4);}.cls-17{mask:url(#mask-9);}.cls-18{fill:url(#Névtelen_színátmenet_7-5);}.cls-19{fill:url(#Névtelen_színátmenet_20);}.cls-20{fill:url(#Névtelen_színátmenet_47);}.cls-21,.cls-22,.cls-38,.cls-39,.cls-40,.cls-41,.cls-42{fill:#fff;}.cls-21,.cls-25{opacity:0.8;}.cls-23{opacity:0.6;}.cls-24{fill:#f6f8f9;}.cls-26{mask:url(#mask-10);}.cls-27{fill:url(#Névtelen_színátmenet_543);}.cls-28{mask:url(#mask-11);}.cls-29{fill:url(#Névtelen_színátmenet_543-2);}.cls-30,.cls-42{opacity:0.7;}.cls-31{mask:url(#mask-12);}.cls-32{fill:url(#Névtelen_színátmenet_543-3);}.cls-33{mask:url(#mask-13);}.cls-34{fill:url(#Névtelen_színátmenet_543-4);}.cls-35{fill:#502461;}.cls-36{fill:url(#Névtelen_színátmenet_13);}.cls-37{fill:#6e437e;}.cls-37,.cls-46{opacity:0.3;}.cls-38{opacity:0.4;}.cls-39,.cls-43{opacity:0.2;}.cls-40,.cls-58{opacity:0.5;}.cls-41,.cls-44{opacity:0.1;}.cls-43,.cls-44,.cls-50{fill:#3d1c54;}.cls-45{mask:url(#mask-14);}.cls-46{fill:url(#Névtelen_színátmenet_543-5);}.cls-47{fill:#d75a81;}.cls-48{mask:url(#mask-15);}.cls-49{fill:url(#Névtelen_színátmenet_64);}.cls-51,.cls-54{fill:#28275b;}.cls-52,.cls-55{fill:#1e2045;}.cls-53,.cls-56{fill:#372974;}.cls-54,.cls-55,.cls-56{fill-rule:evenodd;}.cls-57{mask:url(#mask-16);}.cls-58{fill:url(#Névtelen_színátmenet_3);}.cls-59{mask:url(#mask-17);}.cls-60{fill:url(#Névtelen_színátmenet_3-2);}.cls-61{mask:url(#mask-18);}.cls-62{fill:url(#Névtelen_színátmenet_3-3);}.cls-63{fill:#684750;}.cls-64{fill:none;stroke:#000;stroke-miterlimit:10;stroke-width:20px;opacity:0.25;isolation:isolate;}.cls-65{fill:url(#Névtelen_színátmenet_20-2);}.cls-66{filter:url(#luminosity-noclip-18);}.cls-67{filter:url(#luminosity-noclip-17);}.cls-68{filter:url(#luminosity-noclip-16);}.cls-69{filter:url(#luminosity-noclip-15);}.cls-70{filter:url(#luminosity-noclip-14);}.cls-71{filter:url(#luminosity-noclip-13);}.cls-72{filter:url(#luminosity-noclip-12);}.cls-73{filter:url(#luminosity-noclip-11);}.cls-74{filter:url(#luminosity-noclip-10);}.cls-75{filter:url(#luminosity-noclip-9);}.cls-76{filter:url(#luminosity-noclip-8);}.cls-77{filter:url(#luminosity-noclip-7);}.cls-78{filter:url(#luminosity-noclip-6);}.cls-79{filter:url(#luminosity-noclip-5);}.cls-80{filter:url(#luminosity-noclip-4);}.cls-81{filter:url(#luminosity-noclip-3);}.cls-82{filter:url(#luminosity-noclip-2);}.cls-83{filter:url(#luminosity-noclip);}</style><filter id="luminosity-noclip" x="136.3" y="-8534" width="411.84" height="32766" filterUnits="userSpaceOnUse" color-interpolation-filters="sRGB"><feFlood flood-color="#fff" result="bg"/><feBlend in="SourceGraphic" in2="bg"/></filter><mask id="mask" x="136.3" y="-8534" width="411.84" height="32766" maskUnits="userSpaceOnUse"><g class="cls-83"/></mask><linearGradient id="Névtelen_színátmenet_7" x1="951.15" y1="631.82" x2="1315.31" y2="500.05" gradientTransform="translate(-790.77 -117.16)" gradientUnits="userSpaceOnUse"><stop offset="0"/><stop offset="1" stop-color="#fff"/></linearGradient><filter id="luminosity-noclip-2" x="383.79" y="-8534" width="2.02" height="32766" filterUnits="userSpaceOnUse" color-interpolation-filters="sRGB"><feFlood flood-color="#fff" result="bg"/><feBlend in="SourceGraphic" in2="bg"/></filter><mask id="mask-2" x="383.79" y="-8534" width="2.02" height="32766" maskUnits="userSpaceOnUse"><g class="cls-82"/></mask><linearGradient id="Névtelen_színátmenet_6" x1="384.79" y1="282.51" x2="384.8" y2="282.57" gradientUnits="userSpaceOnUse"><stop offset="0" stop-color="#333"/><stop offset="0.16" stop-color="#383838"/><stop offset="0.34" stop-color="#464646"/><stop offset="0.53" stop-color="#5d5d5d"/><stop offset="0.74" stop-color="#7d7d7d"/><stop offset="0.94" stop-color="#a6a6a6"/><stop offset="1" stop-color="#b3b3b3"/></linearGradient><filter id="luminosity-noclip-3" x="262.18" y="-8534" width="73.46" height="32766" filterUnits="userSpaceOnUse" color-interpolation-filters="sRGB"><feFlood flood-color="#fff" result="bg"/><feBlend in="SourceGraphic" in2="bg"/></filter><mask id="mask-3" x="262.18" y="-8534" width="73.46" height="32766" maskUnits="userSpaceOnUse"><g class="cls-81"/></mask><linearGradient id="Névtelen_színátmenet_5" x1="298.9" y1="307.49" x2="298.9" y2="293.57" gradientUnits="userSpaceOnUse"><stop offset="0.11"/><stop offset="0.26" stop-color="#030303"/><stop offset="0.38" stop-color="#0d0d0d"/><stop offset="0.48" stop-color="#1e1e1e"/><stop offset="0.58" stop-color="#353535"/><stop offset="0.68" stop-color="#545454"/><stop offset="0.77" stop-color="#797979"/><stop offset="0.86" stop-color="#a6a6a6"/><stop offset="0.94" stop-color="#d8d8d8"/><stop offset="1" stop-color="#fff"/></linearGradient><filter id="luminosity-noclip-4" x="49.55" y="-8534" width="221.85" height="32766" filterUnits="userSpaceOnUse" color-interpolation-filters="sRGB"><feFlood flood-color="#fff" result="bg"/><feBlend in="SourceGraphic" in2="bg"/></filter><mask id="mask-4" x="49.55" y="-8534" width="221.85" height="32766" maskUnits="userSpaceOnUse"><g class="cls-80"/></mask><linearGradient id="Névtelen_színátmenet_2" x1="160.47" y1="307.98" x2="160.47" y2="293.57" gradientUnits="userSpaceOnUse"><stop offset="0.11"/><stop offset="0.35" stop-color="#030303"/><stop offset="0.54" stop-color="#0d0d0d"/><stop offset="0.71" stop-color="#1e1e1e"/><stop offset="0.87" stop-color="#353535"/><stop offset="1" stop-color="#4d4d4d"/></linearGradient><filter id="luminosity-noclip-5" x="326.65" y="-8534" width="221.85" height="32766" filterUnits="userSpaceOnUse" color-interpolation-filters="sRGB"><feFlood flood-color="#fff" result="bg"/><feBlend in="SourceGraphic" in2="bg"/></filter><mask id="mask-5" x="326.65" y="-8534" width="221.85" height="32766" maskUnits="userSpaceOnUse"><g class="cls-79"/></mask><linearGradient id="Névtelen_színátmenet_2-2" x1="332.63" y1="307.98" x2="332.63" y2="293.57" gradientTransform="matrix(-1, 0, 0, 1, 770.21, 0)" xlink:href="#Névtelen_színátmenet_2"/><filter id="luminosity-noclip-6" x="49.98" y="-8534" width="311.79" height="32766" filterUnits="userSpaceOnUse" color-interpolation-filters="sRGB"><feFlood flood-color="#fff" result="bg"/><feBlend in="SourceGraphic" in2="bg"/></filter><mask id="mask-6" x="49.98" y="-8534" width="311.79" height="32766" maskUnits="userSpaceOnUse"><g class="cls-78"/></mask><linearGradient id="Névtelen_színátmenet_7-2" x1="-486.56" y1="628.64" x2="-210.32" y2="528.68" gradientTransform="matrix(-1, 0, 0, 1, -142.77, -117.16)" xlink:href="#Névtelen_színátmenet_7"/><filter id="luminosity-noclip-7" x="266.33" y="-8534" width="281.81" height="32766" filterUnits="userSpaceOnUse" color-interpolation-filters="sRGB"><feFlood flood-color="#fff" result="bg"/><feBlend in="SourceGraphic" in2="bg"/></filter><mask id="mask-7" x="266.33" y="-8534" width="281.81" height="32766" maskUnits="userSpaceOnUse"><g class="cls-77"/></mask><linearGradient id="Névtelen_színátmenet_7-3" x1="1073.41" y1="636.2" x2="1322.96" y2="545.9" xlink:href="#Névtelen_színátmenet_7"/><filter id="luminosity-noclip-8" x="50.72" y="-8534" width="497.42" height="32766" filterUnits="userSpaceOnUse" color-interpolation-filters="sRGB"><feFlood flood-color="#fff" result="bg"/><feBlend in="SourceGraphic" in2="bg"/></filter><mask id="mask-8" x="50.72" y="-8534" width="497.42" height="32766" maskUnits="userSpaceOnUse"><g class="cls-76"/></mask><linearGradient id="Névtelen_színátmenet_7-4" x1="870.2" y1="679.38" x2="1310.2" y2="520.17" xlink:href="#Névtelen_színátmenet_7"/><filter id="luminosity-noclip-9" x="94.85" y="-8534" width="430.39" height="32766" filterUnits="userSpaceOnUse" color-interpolation-filters="sRGB"><feFlood flood-color="#fff" result="bg"/><feBlend in="SourceGraphic" in2="bg"/></filter><mask id="mask-9" x="94.85" y="-8534" width="430.39" height="32766" maskUnits="userSpaceOnUse"><g class="cls-75"/></mask><linearGradient id="Névtelen_színátmenet_7-5" x1="94.85" y1="480.22" x2="525.25" y2="480.22" gradientTransform="matrix(1, 0, 0, 1, 0, 0)" xlink:href="#Névtelen_színátmenet_7"/><linearGradient id="Névtelen_színátmenet_20" x1="298.9" y1="626.87" x2="298.9" y2="434.84" gradientUnits="userSpaceOnUse"><stop offset="0.06" stop-color="#99357d"/><stop offset="0.66" stop-color="#d75a81"/></linearGradient><linearGradient id="Névtelen_színátmenet_47" x1="298.9" y1="293.57" x2="298.9" y2="61.19" gradientUnits="userSpaceOnUse"><stop offset="0.44" stop-color="#f7c7d5"/><stop offset="0.56" stop-color="#f5b9cb"/><stop offset="0.79" stop-color="#f193b2"/><stop offset="1" stop-color="#ec6c97"/></linearGradient><filter id="luminosity-noclip-10" x="136.3" y="448.1" width="411.84" height="1.52" filterUnits="userSpaceOnUse" color-interpolation-filters="sRGB"><feFlood flood-color="#fff" result="bg"/><feBlend in="SourceGraphic" in2="bg"/></filter><mask id="mask-10" x="136.26" y="448.1" width="411.84" height="1.52" maskUnits="userSpaceOnUse"><g class="cls-74"><g transform="translate(-0.04)"><g class="cls-1"><polygon class="cls-2" points="548.14 449.62 136.3 448.1 548.14 448.1 548.14 449.62"/></g></g></g></mask><linearGradient id="Névtelen_színátmenet_543" x1="951.15" y1="631.82" x2="1315.31" y2="500.05" gradientTransform="translate(-790.81 -117.16)" gradientUnits="userSpaceOnUse"><stop offset="0" stop-color="#fff"/><stop offset="1" stop-color="#fff"/></linearGradient><filter id="luminosity-noclip-11" x="49.98" y="460.09" width="311.79" height="1.7" filterUnits="userSpaceOnUse" color-interpolation-filters="sRGB"><feFlood flood-color="#fff" result="bg"/><feBlend in="SourceGraphic" in2="bg"/></filter><mask id="mask-11" x="49.94" y="460.09" width="311.79" height="1.7" maskUnits="userSpaceOnUse"><g class="cls-73"><g transform="translate(-0.04)"><g class="cls-11"><polygon class="cls-12" points="49.98 461.35 361.77 461.8 49.98 460.09 49.98 461.35"/></g></g></g></mask><linearGradient id="Névtelen_színátmenet_543-2" x1="-486.56" y1="628.64" x2="-210.32" y2="528.68" gradientTransform="matrix(-1, 0, 0, 1, -142.81, -117.16)" xlink:href="#Névtelen_színátmenet_543"/><filter id="luminosity-noclip-12" x="266.33" y="472.81" width="281.81" height="1.15" filterUnits="userSpaceOnUse" color-interpolation-filters="sRGB"><feFlood flood-color="#fff" result="bg"/><feBlend in="SourceGraphic" in2="bg"/></filter><mask id="mask-12" x="266.29" y="472.81" width="281.81" height="1.15" maskUnits="userSpaceOnUse"><g class="cls-72"><g transform="translate(-0.04)"><g class="cls-13"><polygon class="cls-14" points="548.14 473.96 266.33 473.96 548.14 472.81 548.14 473.96"/></g></g></g></mask><linearGradient id="Névtelen_színátmenet_543-3" x1="1073.41" y1="636.2" x2="1322.96" y2="545.9" xlink:href="#Névtelen_színátmenet_543"/><filter id="luminosity-noclip-13" x="50.72" y="481.72" width="497.42" height="1.79" filterUnits="userSpaceOnUse" color-interpolation-filters="sRGB"><feFlood flood-color="#fff" result="bg"/><feBlend in="SourceGraphic" in2="bg"/></filter><mask id="mask-13" x="50.68" y="481.72" width="497.42" height="1.79" maskUnits="userSpaceOnUse"><g class="cls-71"><g transform="translate(-0.04)"><g class="cls-15"><polygon class="cls-16" points="548.14 483.51 50.72 482.87 50.72 481.72 548.14 482.36 548.14 483.51"/></g></g></g></mask><linearGradient id="Névtelen_színátmenet_543-4" x1="869.88" y1="678.51" x2="1309.88" y2="519.3" gradientTransform="translate(-790.77 -117.16)" xlink:href="#Névtelen_színátmenet_543"/><linearGradient id="Névtelen_színátmenet_13" x1="298.86" y1="434.84" x2="298.86" y2="293.57" gradientUnits="userSpaceOnUse"><stop offset="0" stop-color="#99357d"/><stop offset="0.09" stop-color="#a73d7e"/><stop offset="0.26" stop-color="#bc4a7f"/><stop offset="0.45" stop-color="#cb5380"/><stop offset="0.67" stop-color="#d45881"/><stop offset="1" stop-color="#d75a81"/></linearGradient><filter id="luminosity-noclip-14" x="94.85" y="454.43" width="430.39" height="51.58" filterUnits="userSpaceOnUse" color-interpolation-filters="sRGB"><feFlood flood-color="#fff" result="bg"/><feBlend in="SourceGraphic" in2="bg"/></filter><mask id="mask-14" x="94.81" y="454.43" width="430.39" height="51.58" maskUnits="userSpaceOnUse"><g class="cls-70"><g transform="translate(-0.04)"><g class="cls-17"><path class="cls-18" d="M95.81,456c80.56,1.55,162.35.63,243,.12,1.76,0,1.77-.89,0-.9-80.64-.51-162.43-1.43-243,.12C94.54,455.32,94.53,455.92,95.81,456Zm68.59,14.53c101.14.62,202.6,1,303.73,0,1.47,0,1.47-.74,0-.75-101.13-1-202.59-.59-303.73,0C163,469.79,163,470.48,164.4,470.48ZM140.53,489c63.8,1,128.14.28,192,.26s128.05.31,192-.25c1,0,1-.47,0-.48-64-.56-128-.24-192-.25s-128.2-.72-192,.26C139.61,488.51,139.61,489,140.53,489Zm72.82-10.49c26.08.17,52,.13,78.11-.18,1,0,1-.51,0-.52-26.07-.31-52-.35-78.11-.18C211.65,477.61,211.65,478.45,213.35,478.47Zm168-12.43c30.28.64,60.82.24,91.12,0,.75,0,.75-.38,0-.38-30.3-.25-60.84-.65-91.12,0C380.56,465.66,380.56,466,381.35,466Zm-52.07,28.81c40.46.28,81,.39,121.49-.05,1.38,0,1.38-.68,0-.7-40.45-.44-81-.32-121.49,0C327.74,494.07,327.74,494.84,329.28,494.85Zm-58.91,10.66c47.42.06,95.88,1.1,143.19,0,1.24,0,1.24-.61,0-.64-47.31-1.1-95.77-.07-143.19,0C269.1,504.86,269.09,505.51,270.37,505.51Z"/></g></g></g></mask><linearGradient id="Névtelen_színátmenet_543-5" x1="94.85" y1="480.22" x2="525.25" y2="480.22" gradientTransform="matrix(1, 0, 0, 1, 0, 0)" xlink:href="#Névtelen_színátmenet_543"/><filter id="luminosity-noclip-15" x="383.79" y="282.34" width="2.02" height="0.44" filterUnits="userSpaceOnUse" color-interpolation-filters="sRGB"><feFlood flood-color="#fff" result="bg"/><feBlend in="SourceGraphic" in2="bg"/></filter><mask id="mask-15" x="383.75" y="282.34" width="2.02" height="0.44" maskUnits="userSpaceOnUse"><g class="cls-69"><g transform="translate(-0.04)"><g class="cls-3"><path class="cls-4" d="M385.4,282.39a12.17,12.17,0,0,0-1.61.38l2-.43C385.67,282.36,385.54,282.36,385.4,282.39Z"/></g></g></g></mask><linearGradient id="Névtelen_színátmenet_64" x1="384.79" y1="282.51" x2="384.8" y2="282.57" gradientTransform="matrix(1, 0, 0, 1, 0, 0)" xlink:href="#Névtelen_színátmenet_543"/><filter id="luminosity-noclip-16" x="262.18" y="293.57" width="73.46" height="13.93" filterUnits="userSpaceOnUse" color-interpolation-filters="sRGB"><feFlood flood-color="#fff" result="bg"/><feBlend in="SourceGraphic" in2="bg"/></filter><mask id="mask-16" x="262.14" y="293.57" width="73.46" height="13.93" maskUnits="userSpaceOnUse"><g class="cls-68"><g transform="translate(-0.04)"><g class="cls-5"><path class="cls-6" d="M326.41,293.57h-55a9.22,9.22,0,0,0-9.22,9.22v4.7c0-5.09,4.13-8,9.22-8h55c5.09,0,9.22,2.87,9.22,8v-4.7A9.22,9.22,0,0,0,326.41,293.57Z"/></g></g></g></mask><linearGradient id="Névtelen_színátmenet_3" x1="298.9" y1="307.49" x2="298.9" y2="293.57" gradientUnits="userSpaceOnUse"><stop offset="0.11" stop-color="#fff"/><stop offset="0.69" stop-color="#fcfdfd"/><stop offset="1" stop-color="#f6f8f9"/></linearGradient><filter id="luminosity-noclip-17" x="49.55" y="293.57" width="221.85" height="14.41" filterUnits="userSpaceOnUse" color-interpolation-filters="sRGB"><feFlood flood-color="#fff" result="bg"/><feBlend in="SourceGraphic" in2="bg"/></filter><mask id="mask-17" x="49.51" y="293.57" width="221.85" height="14.41" maskUnits="userSpaceOnUse"><g class="cls-67"><g transform="translate(-0.04)"><g class="cls-7"><path class="cls-8" d="M262.18,307.49v-4.7a9.22,9.22,0,0,1,9.22-9.22H49.55V308H262.18Z"/></g></g></g></mask><linearGradient id="Névtelen_színátmenet_3-2" x1="160.47" y1="307.98" x2="160.47" y2="293.57" xlink:href="#Névtelen_színátmenet_3"/><filter id="luminosity-noclip-18" x="326.65" y="293.57" width="221.85" height="14.41" filterUnits="userSpaceOnUse" color-interpolation-filters="sRGB"><feFlood flood-color="#fff" result="bg"/><feBlend in="SourceGraphic" in2="bg"/></filter><mask id="mask-18" x="326.61" y="293.57" width="221.85" height="14.41" maskUnits="userSpaceOnUse"><g class="cls-66"><g transform="translate(-0.04)"><g class="cls-9"><path class="cls-10" d="M335.87,307.49v-4.7a9.21,9.21,0,0,0-9.22-9.22H548.5V308H335.87Z"/></g></g></g></mask><linearGradient id="Névtelen_színátmenet_3-3" x1="332.63" y1="307.98" x2="332.63" y2="293.57" gradientTransform="matrix(-1, 0, 0, 1, 770.21, 0)" xlink:href="#Névtelen_színátmenet_3"/><linearGradient id="Névtelen_színátmenet_20-2" x1="756.84" y1="296.52" x2="756.84" y2="296.52" xlink:href="#Névtelen_színátmenet_20"/></defs><title>104</title><g id="bg"><path class="cls-19" d="M49.67,434.84v68.64c.43.09.87.19,1.3.31,9.94,2.86,18.88,8,27.09,14.18,4.66,3.51,9.23,7.14,13.76,10.82,1.66,1.35,3.33,2.71,5,4.05.07,0,1.94,1.46,2.34,1.79l.25.18a155.88,155.88,0,0,0,20.88,12.86q3.15,1.59,6.36,3.05c.27.12.61.31,1,.5l.69.27c3.89,1.58,7.8,3.09,11.71,4.6,18.07,7,35.36,16,52.24,25.44,16.09,9,31.8,18.69,48.06,27.38q13.11,7,26.68,13.18c2.28,1,4.58,2,6.88,3.06l1.26.53h0l-1-.4,1.94.79c5.25.36,10.56.62,16,.73,11,.22,21.68-.12,32.06-.93,2.56-5.4,7.21-9.83,12.94-10.84a104.67,104.67,0,0,0,14.09-3.49c2.37-.77,4.7-1.61,7-2.51l1.41-.57,2.21-1a260.56,260.56,0,0,0,26.49-14.39c14.79-9,29.27-18.47,44-27.51,14.95-9.16,29.78-18.57,43.84-29.06.86-.64,1.71-1.29,2.56-1.94l.68-.53c1.77-1.43,3.56-2.85,5.32-4.3q4.72-3.88,9.27-8c7.34-6.56,14.41-13.23,22.86-18.4,5.58-3.42,11.55-6.17,17-9.77.29-.19,1-.77,1.58-1.22,1-1,2.16-1.89,3.13-2.93.48-.51.93-1,1.4-1.56l.52-.57c1-1.56,2.32-4.08,2.48-4.37a19.24,19.24,0,0,1,5.16-5.88V434.84Z" transform="translate(-0.04)"/><path class="cls-20" d="M545.51,182.61a34.19,34.19,0,0,1-8.75-2.8c-6.07.74-12.48-.93-16.5-5.71-5.17-6.17-11.21-11.42-17.22-16.75a141.13,141.13,0,0,1-10.8-10.64c-3-2.2-6.08-4.37-9.19-6.45a267.53,267.53,0,0,0-40.78-22.74l-.71-.32-1.05-.41-3.36-1.34q-3.36-1.32-6.75-2.58c-4.51-1.68-9-3.29-13.6-4.87-9.63-3.33-19.31-6.53-28.9-10-10.85-3.9-21.61-8.16-32.06-13-8.37-3.89-16.43-8.42-24.74-12.44-7.6-3.66-15.11-7.29-22.45-11.2-5.48-.16-11-.2-16.66-.09q-9.44.18-18.54.87a25.36,25.36,0,0,1-11.88,9.25c-19.12,7.28-38.84,12.75-58.19,19.35Q197,92.9,190.65,95.27c-2.13.81-4.24,1.66-6.37,2.49-.25.09-1.08.43-1.55.62l-1.75.76c-.8.35-8.78,3.87-4.13,1.77l-2.4,1.07c-1.84.84-3.68,1.71-5.5,2.61q-5.44,2.68-10.74,5.68c-14.19,8-27.56,17.3-41,26.51S89.85,154.22,76.92,164c-9,6.82-17.74,13.36-27.25,18.86V293.57H548.14V182.91A25.81,25.81,0,0,1,545.51,182.61Z" transform="translate(-0.04)"/><path class="cls-21" d="M49.65,293.57l211-.18c-.46-2.19-5.19-12.91-16-12.91a6.42,6.42,0,0,0-2,.33,7.78,7.78,0,0,0-6.93-3.94,9.38,9.38,0,0,0-1.3.12c-2-4-6.88-6.85-12.62-6.85a18.46,18.46,0,0,0-2,.12s0-.08,0-.12a11.8,11.8,0,0,0-11.49-12c-.9-5.85-6.47-10.35-13.23-10.35a14.19,14.19,0,0,0-8.95,3.1,7,7,0,0,0-5.63-4.14,8.52,8.52,0,0,0-16.21-.23,2.58,2.58,0,0,0-1.22-.32,2.89,2.89,0,0,0-2.62,1.85,1.72,1.72,0,0,0-.87-.31,3.8,3.8,0,0,0-3.39-3.67c0-.09,0-.17,0-.26,0-4.16-3.66-7.53-8.16-7.53a8.57,8.57,0,0,0-1.77.2,3.45,3.45,0,0,0-2-2.07,4.18,4.18,0,0,0,.81-2.45,4.37,4.37,0,0,0-4.48-4.26,4.84,4.84,0,0,0-1.08.14,4.06,4.06,0,0,0-3.91-3.61,3.92,3.92,0,0,0-3.4,2.07,4,4,0,0,0-1.94-.53,4.33,4.33,0,0,0-4.19,3.89l-.19,0a2.82,2.82,0,0,0-2.9,2.74,2.73,2.73,0,0,0,0,.4,11.54,11.54,0,0,0-3-.4c-5.35,0-9.74,3.68-10.21,8.37a6.24,6.24,0,0,0-5.82,4.59l-1.07.61a11.63,11.63,0,0,0-8.35-3.39c-5.13,0-9.43,3.1-10.65,7.28a4.35,4.35,0,0,0-3.86,4.2,3.66,3.66,0,0,0-1.16-.19,3.26,3.26,0,0,0-3.35,2.64,12.12,12.12,0,0,0-6.46-1.88,11.89,11.89,0,0,0-3.06.41,6.11,6.11,0,0,0-4.92-2.43A6.18,6.18,0,0,0,57.25,254a15.45,15.45,0,0,0-5.83-1.13,17.16,17.16,0,0,0-1.77.11Z" transform="translate(-0.04)"/><path id="_Csoport_" data-name="&lt;Csoport&gt;" class="cls-22" d="M359.9,204.53a1.06,1.06,0,0,1,.89-.88l.14-3,.15,3a1.05,1.05,0,0,1,.89.88l3,.15-3,.15a1,1,0,0,1-.89.88l-.15,3-.14-3a1,1,0,0,1-.89-.88l-21.74-.15Z" transform="translate(-0.04)"/><path class="cls-22" d="M512.81,251.38a.85.85,0,1,0,.85-.85A.85.85,0,0,0,512.81,251.38Z" transform="translate(-0.04)"/><path class="cls-22" d="M464.41,251.38a.85.85,0,1,0,.85-.85A.86.86,0,0,0,464.41,251.38Z" transform="translate(-0.04)"/><g id="snowflakes" class="cls-23"><g class="cls-23"><path class="cls-22" d="M450.57,261a1,1,0,1,0-1,1A1,1,0,0,0,450.57,261Z" transform="translate(-0.04)"/><path class="cls-22" d="M365.52,243.81a1,1,0,0,0-2,0,1,1,0,0,0,2,0Z" transform="translate(-0.04)"/><path class="cls-22" d="M251.11,267.38a1,1,0,1,0-1,1A1,1,0,0,0,251.11,267.38Z" transform="translate(-0.04)"/><path class="cls-22" d="M319.63,273.69a1,1,0,1,0-1,1A1,1,0,0,0,319.63,273.69Z" transform="translate(-0.04)"/><path class="cls-22" d="M348.35,209.08a1,1,0,1,0-1,1A1,1,0,0,0,348.35,209.08Z" transform="translate(-0.04)"/><path class="cls-22" d="M416.87,215.39a1,1,0,0,0-2,0,1,1,0,0,0,2,0Z" transform="translate(-0.04)"/><path class="cls-22" d="M507.28,234.57a1,1,0,1,0-1,1A1,1,0,0,0,507.28,234.57Z" transform="translate(-0.04)"/><path class="cls-22" d="M273.3,235.91a1,1,0,0,0-2,0,1,1,0,0,0,2,0Z" transform="translate(-0.04)"/><path class="cls-22" d="M296.38,210.05a1,1,0,1,0-1,1A1,1,0,0,0,296.38,210.05Z" transform="translate(-0.04)"/><path class="cls-22" d="M431.6,198.84a1,1,0,1,0-1,1A1,1,0,0,0,431.6,198.84Z" transform="translate(-0.04)"/><path class="cls-22" d="M476.27,272.73a1,1,0,1,0-1,1A1,1,0,0,0,476.27,272.73Z" transform="translate(-0.04)"/><path class="cls-22" d="M243.46,315a1,1,0,1,0-1,1A1,1,0,0,0,243.46,315Z" transform="translate(-0.04)"/><path class="cls-22" d="M198.83,276.1a1,1,0,1,0-1,1A1,1,0,0,0,198.83,276.1Z" transform="translate(-0.04)"/></g><g class="cls-23"><path class="cls-22" d="M506.3,280.9a1,1,0,0,0-2,0,1,1,0,0,0,2,0Z" transform="translate(-0.04)"/><path class="cls-22" d="M489.2,210.72a1,1,0,0,0-2,0,1,1,0,0,0,2,0Z" transform="translate(-0.04)"/><path class="cls-22" d="M416.34,283.37a1,1,0,1,0-1,1A1,1,0,0,0,416.34,283.37Z" transform="translate(-0.04)"/><path class="cls-22" d="M374.79,234.29a1,1,0,1,0-1,1A1,1,0,0,0,374.79,234.29Z" transform="translate(-0.04)"/><path class="cls-22" d="M443.32,240.6a1,1,0,1,0-1,1A1,1,0,0,0,443.32,240.6Z" transform="translate(-0.04)"/><path class="cls-22" d="M534.48,301.85a1,1,0,1,0-1,1A1,1,0,0,0,534.48,301.85Z" transform="translate(-0.04)"/><path class="cls-22" d="M397,202.82a1,1,0,1,0-1,1A1,1,0,0,0,397,202.82Z" transform="translate(-0.04)"/><path class="cls-22" d="M420.07,177a1,1,0,0,0-2,0,1,1,0,0,0,2,0Z" transform="translate(-0.04)"/><path class="cls-22" d="M127.31,203.51a1,1,0,0,0-2,0,1,1,0,0,0,2,0Z" transform="translate(-0.04)"/><path class="cls-22" d="M367.14,281.86a1,1,0,1,0-1,1A1,1,0,0,0,367.14,281.86Z" transform="translate(-0.04)"/><path class="cls-22" d="M322.51,243a1,1,0,1,0-1,1A1,1,0,0,0,322.51,243Z" transform="translate(-0.04)"/><path class="cls-22" d="M336.78,175a1,1,0,1,0-1,1A1,1,0,0,0,336.78,175Z" transform="translate(-0.04)"/></g><g class="cls-23"><path class="cls-22" d="M283.91,271.5a.41.41,0,1,0-.41.4A.41.41,0,0,0,283.91,271.5Z" transform="translate(-0.04)"/><path class="cls-22" d="M231.36,226.71a.4.4,0,0,0-.41-.4.41.41,0,0,0-.41.4.42.42,0,0,0,.41.41A.41.41,0,0,0,231.36,226.71Z" transform="translate(-0.04)"/><path class="cls-22" d="M189.35,298.42a.41.41,0,0,0-.41-.4.4.4,0,1,0,0,.8A.41.41,0,0,0,189.35,298.42Z" transform="translate(-0.04)"/><ellipse class="cls-22" cx="375.92" cy="284.28" rx="0.41" ry="0.4"/><path class="cls-22" d="M315.27,232.55a.41.41,0,1,0-.41.41A.4.4,0,0,0,315.27,232.55Z" transform="translate(-0.04)"/><path class="cls-22" d="M147.34,216.86a.42.42,0,1,0-.41.4A.41.41,0,0,0,147.34,216.86Z" transform="translate(-0.04)"/><path class="cls-22" d="M236.5,293.83a.42.42,0,1,0-.42.4A.41.41,0,0,0,236.5,293.83Z" transform="translate(-0.04)"/><path class="cls-22" d="M62.91,247.81a.41.41,0,0,0-.42-.4.4.4,0,0,0-.41.4.4.4,0,0,0,.41.4A.41.41,0,0,0,62.91,247.81Z" transform="translate(-0.04)"/><path class="cls-22" d="M84.62,192.45a.42.42,0,1,0-.41.4A.41.41,0,0,0,84.62,192.45Z" transform="translate(-0.04)"/><path class="cls-22" d="M488.58,212.77a.42.42,0,0,0-.83,0,.42.42,0,0,0,.83,0Z" transform="translate(-0.04)"/><path class="cls-22" d="M538.11,318.24a.42.42,0,1,0-.41.4A.41.41,0,0,0,538.11,318.24Z" transform="translate(-0.04)"/><path class="cls-22" d="M321.52,287.05a.42.42,0,1,0-.42.41A.41.41,0,0,0,321.52,287.05Z" transform="translate(-0.04)"/><path class="cls-22" d="M405.23,178.1a.41.41,0,0,0-.42-.4.4.4,0,0,0-.41.4.41.41,0,0,0,.41.41A.42.42,0,0,0,405.23,178.1Z" transform="translate(-0.04)"/><path class="cls-22" d="M356.18,224.65a.41.41,0,1,0-.41.41A.4.4,0,0,0,356.18,224.65Z" transform="translate(-0.04)"/><path class="cls-22" d="M414.1,227.52a.4.4,0,0,0-.41-.4.4.4,0,1,0,0,.8A.4.4,0,0,0,414.1,227.52Z" transform="translate(-0.04)"/><path class="cls-22" d="M420.83,279.29a.41.41,0,0,0-.41-.41.41.41,0,1,0,0,.81A.41.41,0,0,0,420.83,279.29Z" transform="translate(-0.04)"/><path class="cls-22" d="M266.07,195.9a.41.41,0,1,0-.41.4A.4.4,0,0,0,266.07,195.9Z" transform="translate(-0.04)"/><path class="cls-22" d="M173.44,186.61a.41.41,0,1,0-.41.41A.4.4,0,0,0,173.44,186.61Z" transform="translate(-0.04)"/><path class="cls-22" d="M300.39,289.82a.42.42,0,1,0-.41.4A.41.41,0,0,0,300.39,289.82Z" transform="translate(-0.04)"/></g><g class="cls-23"><path class="cls-22" d="M208,270a.42.42,0,1,0-.42.4A.41.41,0,0,0,208,270Z" transform="translate(-0.04)"/><path class="cls-22" d="M155.43,225.21a.42.42,0,0,0-.83,0,.42.42,0,0,0,.83,0Z" transform="translate(-0.04)"/><path class="cls-22" d="M113.41,296.92a.41.41,0,0,0-.82,0,.41.41,0,0,0,.82,0Z" transform="translate(-0.04)"/><path class="cls-22" d="M300.43,282.77a.41.41,0,1,0-.41.4A.4.4,0,0,0,300.43,282.77Z" transform="translate(-0.04)"/><path class="cls-22" d="M239.33,231.05a.41.41,0,1,0-.41.4A.4.4,0,0,0,239.33,231.05Z" transform="translate(-0.04)"/><path class="cls-22" d="M71.4,215.35A.41.41,0,0,0,71,215a.4.4,0,1,0,0,.8A.41.41,0,0,0,71.4,215.35Z" transform="translate(-0.04)"/><path class="cls-22" d="M412.64,211.26a.42.42,0,1,0-.41.4A.41.41,0,0,0,412.64,211.26Z" transform="translate(-0.04)"/><path class="cls-22" d="M462.17,316.73a.41.41,0,0,0-.82,0,.41.41,0,1,0,.82,0Z" transform="translate(-0.04)"/><path class="cls-22" d="M245.58,285.55a.42.42,0,1,0-.42.4A.41.41,0,0,0,245.58,285.55Z" transform="translate(-0.04)"/><path class="cls-22" d="M329.29,176.6a.41.41,0,1,0-.41.4A.41.41,0,0,0,329.29,176.6Z" transform="translate(-0.04)"/><path class="cls-22" d="M280.24,223.14a.41.41,0,1,0-.41.41A.4.4,0,0,0,280.24,223.14Z" transform="translate(-0.04)"/><path class="cls-22" d="M338.17,226a.42.42,0,1,0-.42.4A.41.41,0,0,0,338.17,226Z" transform="translate(-0.04)"/><path class="cls-22" d="M344.9,277.78a.41.41,0,0,0-.42-.4.4.4,0,1,0,0,.8A.41.41,0,0,0,344.9,277.78Z" transform="translate(-0.04)"/><path class="cls-22" d="M190.14,194.39a.42.42,0,0,0-.83,0,.42.42,0,0,0,.83,0Z" transform="translate(-0.04)"/><path class="cls-22" d="M97.51,185.11a.42.42,0,1,0-.42.4A.41.41,0,0,0,97.51,185.11Z" transform="translate(-0.04)"/><path class="cls-22" d="M467.07,229.14a.41.41,0,0,0-.42-.4.41.41,0,1,0,0,.81A.41.41,0,0,0,467.07,229.14Z" transform="translate(-0.04)"/><path class="cls-22" d="M498.47,263.34a.42.42,0,1,0-.41.4A.41.41,0,0,0,498.47,263.34Z" transform="translate(-0.04)"/><path class="cls-22" d="M224.45,288.31a.41.41,0,1,0-.41.4A.4.4,0,0,0,224.45,288.31Z" transform="translate(-0.04)"/></g></g><path class="cls-22" d="M521.58,195.91a.85.85,0,1,0,.85-.85A.85.85,0,0,0,521.58,195.91Z" transform="translate(-0.04)"/><path class="cls-22" d="M427.34,308a.85.85,0,1,0,.85-.85A.85.85,0,0,0,427.34,308Z" transform="translate(-0.04)"/><path class="cls-22" d="M427.34,172.37a.85.85,0,1,0,.85-.85A.85.85,0,0,0,427.34,172.37Z" transform="translate(-0.04)"/><path class="cls-22" d="M507.56,172.37a.85.85,0,1,0,.85-.85A.85.85,0,0,0,507.56,172.37Z" transform="translate(-0.04)"/><path class="cls-22" d="M381.78,268.64a.85.85,0,1,0,.85-.85A.85.85,0,0,0,381.78,268.64Z" transform="translate(-0.04)"/><path id="star" class="cls-22" d="M388.79,274.89a1.06,1.06,0,0,1,.9-.9l.14-3.08L390,274a1.08,1.08,0,0,1,.9.9L394,275l-3.08.15a1.06,1.06,0,0,1-.9.9l-.15,3.08-.15-3.08a1,1,0,0,1-.9-.9L385.7,275Z" transform="translate(-0.04)"/><path id="star-2" data-name="star" class="cls-22" d="M477.8,204.31a1,1,0,0,1,.89-.9l.15-3.09.16,3.09a1.06,1.06,0,0,1,.9.9l3.08.15-3.08.15a1.08,1.08,0,0,1-.9.9l-.15,3.08-.16-3.08a1.05,1.05,0,0,1-.89-.9l-3.09-.15Z" transform="translate(-0.04)"/><path class="cls-22" d="M240.61,205.32a.85.85,0,1,1-.85-.85A.85.85,0,0,1,240.61,205.32Z" transform="translate(-0.04)"/><path class="cls-22" d="M140.23,251.38a.85.85,0,1,1-.85-.85A.85.85,0,0,1,140.23,251.38Z" transform="translate(-0.04)"/><path class="cls-22" d="M83.06,195.91a.85.85,0,1,1-.85-.85A.85.85,0,0,1,83.06,195.91Z" transform="translate(-0.04)"/><path class="cls-22" d="M109.66,308a.85.85,0,1,1-.85-.85A.85.85,0,0,1,109.66,308Z" transform="translate(-0.04)"/><circle class="cls-22" cx="176.41" cy="234.96" r="0.85"/><path class="cls-22" d="M177.3,172.37a.85.85,0,1,1-.85-.85A.85.85,0,0,1,177.3,172.37Z" transform="translate(-0.04)"/><path class="cls-22" d="M230.78,308a.85.85,0,1,1-.85-.85A.85.85,0,0,1,230.78,308Z" transform="translate(-0.04)"/><path class="cls-22" d="M222.86,268.64a.85.85,0,1,1-.85-.85A.85.85,0,0,1,222.86,268.64Z" transform="translate(-0.04)"/><path id="star-3" data-name="star" class="cls-22" d="M215.86,274.89a1.08,1.08,0,0,0-.9-.9l-.15-3.08-.15,3.08a1.08,1.08,0,0,0-.91.9l-3.08.15,3.09.15a1,1,0,0,0,.89.9l.16,3.08.15-3.08a1.06,1.06,0,0,0,.9-.9l3.08-.15Z" transform="translate(-0.04)"/><path id="star-4" data-name="star" class="cls-22" d="M301.26,189.57a1.06,1.06,0,0,0-.9-.9l-.15-3.08-.15,3.08a1.05,1.05,0,0,0-.9.9l-3.09.15,3.09.15a1,1,0,0,0,.9.9l.15,3.08.15-3.08a1.06,1.06,0,0,0,.9-.9l3.08-.15Z" transform="translate(-0.04)"/><path id="star-5" data-name="star" class="cls-22" d="M126.85,204.31a1.06,1.06,0,0,0-.9-.9l-.15-3.09-.15,3.09a1,1,0,0,0-.9.9l-3.09.15,3.09.15a1.06,1.06,0,0,0,.9.9l.15,3.08.15-3.08a1.07,1.07,0,0,0,.9-.9l3.08-.15Z" transform="translate(-0.04)"/><circle class="cls-24" cx="299.39" cy="268.75" r="38.79"/><g class="cls-25"><g class="cls-26"><polygon class="cls-27" points="548.1 449.62 136.26 448.1 548.1 448.1 548.1 449.62"/></g></g><g class="cls-28"><polygon class="cls-29" points="49.94 461.35 361.73 461.8 49.94 460.09 49.94 461.35"/></g><g class="cls-30"><g class="cls-31"><polygon class="cls-32" points="548.1 473.96 266.3 473.96 548.1 472.81 548.1 473.96"/></g></g><g class="cls-25"><g class="cls-33"><path class="cls-34" d="M543,483c.12-.21.27-.41.39-.62l-492.65-.63v1.15l492,.63C542.84,483.24,542.94,483,543,483Z" transform="translate(-0.04)"/></g></g><rect class="cls-35" x="49.63" y="293.57" width="498.48" height="144.51"/><path class="cls-36" d="M268.35,293.57h61a6.22,6.22,0,0,1,6.22,6.22V434.84a0,0,0,0,1,0,0H262.14a0,0,0,0,1,0,0V299.78A6.22,6.22,0,0,1,268.35,293.57Z"/><path class="cls-37" d="M262.41,350.68a6.11,6.11,0,0,0-4.9-3.09,6,6,0,0,0-.25-3,6.1,6.1,0,0,0-7.8-3.69,5.29,5.29,0,0,0-.54.25,6.08,6.08,0,0,0-7.22-8.95,6.32,6.32,0,0,0-1.22.61,6.1,6.1,0,0,0-7.17-2.45,5.71,5.71,0,0,0-.61.29,6.21,6.21,0,0,0-.21-.85,7.33,7.33,0,0,0-14.13,3.72,4.46,4.46,0,0,0-1.6.25,5.11,5.11,0,0,0-1.11.59,2.84,2.84,0,0,0-1.58,1.87,4.6,4.6,0,0,0-6.64,3.68h-.1a4.3,4.3,0,0,0-3.73.53,5.6,5.6,0,0,0-2.69,6.84,5.5,5.5,0,0,0,1.1,1.84,4.59,4.59,0,0,0-2,.23,4.65,4.65,0,0,0-2.62,2.37c-.07-.14-.13-.3-.21-.43a2.32,2.32,0,0,0-1.15-1.39,6.19,6.19,0,0,0-2.29-1.32,6,6,0,0,0-4.28-8.18,6,6,0,0,0-.31-1.61,6.1,6.1,0,0,0-7.8-3.69,5.83,5.83,0,0,0-1.42.75,7.32,7.32,0,0,0-13.78,4.23,4.71,4.71,0,0,0-1.65.26,4.62,4.62,0,0,0-3.05,4.53,6.07,6.07,0,0,0-2.21.34,5.92,5.92,0,0,0-.62.3,2,2,0,0,0-.62.25c-.1.09-.16.17-.25.26a6.08,6.08,0,0,0-2.45,6,4.52,4.52,0,0,0-2.49.16,4.1,4.1,0,0,0-1.13.61,6,6,0,0,0-5.29-5.58,8,8,0,0,0-8.73-12.33,6,6,0,0,0,.09-4.27,6.1,6.1,0,0,0-7.8-3.7,6.67,6.67,0,0,0-1.17.57,8,8,0,0,0-12.84,3.48,6.09,6.09,0,0,0-7.31,7.94,4.11,4.11,0,0,0,.28.6,2.88,2.88,0,0,0-1.64.11,4.51,4.51,0,0,0-1.29.24,4.62,4.62,0,0,0-3.06,4.25,4.61,4.61,0,0,0-5.06-1.35c-.12,0-.22.1-.34.15a5.84,5.84,0,0,0-.33-2,6.1,6.1,0,0,0-6.63-4c.06-.24.11-.46.16-.69a4.61,4.61,0,1,0-8.41-3.69c0-.14-.06-.29-.08-.43a11.69,11.69,0,0,0,.27-8.85c-2-5.61-7.46-8.8-12.18-7.11a8.66,8.66,0,0,0-5.37,6.46l-.13-.18c-.05-.16-.06-.31-.12-.47a7.91,7.91,0,0,0-9.31-5,3.22,3.22,0,0,0-.71.18.53.53,0,0,0-.12,0l-.11.05-.18.09a7.87,7.87,0,0,0-4.44,4.56,2.5,2.5,0,0,0-.25-.09V437.27l.2,1.11,212.66.12Zm-158.14-3.21.18.16c0,.11,0,.23,0,.33C104.41,347.78,104.34,347.64,104.27,347.47Z" transform="translate(-0.04)"/><path class="cls-37" d="M547.7,306.19a5.79,5.79,0,0,0-1.87-.33c-2.32,0-4.31.54-5.21,2.52-.76-1.65-2.25-2-4.06-2.41a5.73,5.73,0,0,0-9.78-5,7.51,7.51,0,0,0-5.46-2.69l-.2,0h-.23a3.14,3.14,0,0,0-.7.07,7.56,7.56,0,0,0-6.77,7.51c0,.15,0,.3,0,.45l-.06.2a8.3,8.3,0,0,0-6.91-4.09c-4.8,0-8.68,4.62-8.68,10.32a11.18,11.18,0,0,0,3.08,7.88c0,.14.05.28.07.42a4.41,4.41,0,1,0-6.39,6,6.12,6.12,0,0,0,.37.57,5.77,5.77,0,0,0-4.35,7.65c-.12,0-.23,0-.35,0a4.43,4.43,0,0,0-4.12,2.85,4.43,4.43,0,0,0-4.13-2.85,4.29,4.29,0,0,0-1.24.2,2.81,2.81,0,0,0-1.51.43,4.34,4.34,0,0,0,.07-.63,5.84,5.84,0,0,0-9.14-4.81,7.66,7.66,0,0,0-12.69,1,6.26,6.26,0,0,0-1.23-.14,5.82,5.82,0,0,0-4.39,9.66A7.68,7.68,0,0,0,448,354.86a5.81,5.81,0,0,0-3.2,5.18,5.57,5.57,0,0,0,.23,1.54,4.45,4.45,0,0,0-1.22-.19,4.37,4.37,0,0,0-2.29.66,5.8,5.8,0,0,0-4.13-4.6l-.31-.16a2,2,0,0,0-.64,0c-.22,0-.43-.06-.66-.06a5.8,5.8,0,0,0-2.09.4,4.41,4.41,0,0,0-4.2-3.1,4.35,4.35,0,0,0-1.58.3,7,7,0,0,0-13.76.62,5.55,5.55,0,0,0-1.53-.23,5.83,5.83,0,0,0-5.83,5.84,5.57,5.57,0,0,0,.23,1.54,5.82,5.82,0,0,0-2.69,4.91,5.74,5.74,0,0,0,1.47,3.83,5.87,5.87,0,0,0-1.64,1.93,2.26,2.26,0,0,0-.59,1.62c0,.15,0,.31-.05.46a4.4,4.4,0,0,0-3.13-1.29,4.3,4.3,0,0,0-1.89.44,5.33,5.33,0,0,0-4.22-7.31,4.15,4.15,0,0,0-3.54.72l-.08.05a4.4,4.4,0,0,0-7.17-1.18,2.66,2.66,0,0,0-2-1.18,4.61,4.61,0,0,0-1.18-.18,4.33,4.33,0,0,0-1.53.29,7,7,0,0,0-13.92,1.19,7.3,7.3,0,0,0,.08.83c-.21,0-.42-.06-.64-.06a5.84,5.84,0,0,0-5.67,4.51,6,6,0,0,0-1.29-.15,5.81,5.81,0,0,0-3.63,10.37c-.19,0-.37-.05-.56-.05a5.83,5.83,0,0,0-5.84,5.83,5.72,5.72,0,0,0,.74,2.79,5.8,5.8,0,0,0-2.16,9.05,7.68,7.68,0,0,0-.82.11,8,8,0,0,0-6.29,7.94,6.59,6.59,0,0,0-3.1,2.49v28L548,438.08V306.23ZM485.94,342.1c0-.1-.06-.2-.08-.3a2.12,2.12,0,0,1,.11-.21C486,341.77,485.94,341.92,485.94,342.1Z" transform="translate(-0.04)"/><path class="cls-38" d="M324.18,361.28c-.84,8.23-.4,16.51-.44,24.74s-.22,16.49.28,24.73c0,.11.36.11.36,0,.51-8.24.33-16.49.28-24.73s.4-16.51-.44-24.74Z" transform="translate(-0.04)"/><path class="cls-22" d="M314.8,408.61c0,3.12-.72,6.25-.07,9.36,0,0,.35,0,.36,0,.65-3.11,0-6.24-.08-9.36A.38.38,0,0,0,314.8,408.61Z" transform="translate(-0.04)"/><path class="cls-39" d="M291.23,380.5c0,11.33-1.08,22.71,0,34,0,.08.25.08.26,0,1.07-11.32,0-22.7,0-34C291.45,380.43,291.23,380.43,291.23,380.5Z" transform="translate(-0.04)"/><path class="cls-39" d="M283.12,376.22c-.18,12.35-.56,24.71,0,37,0,.13.42.13.42,0,.61-12.34.23-24.7.05-37C283.63,376.05,283.12,376.05,283.12,376.22Z" transform="translate(-0.04)"/><path class="cls-40" d="M273.22,361.42c-.14,15-.62,30,0,45,0,.16.34.16.35,0,.64-15,.16-30,0-45C273.61,361.24,273.22,361.24,273.22,361.42Z" transform="translate(-0.04)"/><path class="cls-22" d="M278.85,384.28c-.79,4.76-.31,9.6-.12,14.37,0,.11.32.11.33,0,.19-4.77.66-9.61-.13-14.37Z" transform="translate(-0.04)"/><path class="cls-40" d="M318.36,384.28c-.79,4.76-.32,9.6-.12,14.37,0,.11.32.11.32,0,.2-4.77.67-9.61-.12-14.37Z" transform="translate(-0.04)"/><path class="cls-41" d="M266.39,366.89c-.65,13.66-1.41,27.44-.19,41.09,0,.15.47.16.49,0,1.22-13.65.46-27.43-.19-41.09Z" transform="translate(-0.04)"/><path class="cls-42" d="M329.86,361.35c-.32,16.89-.59,33.77-.15,50.66,0,.18.57.18.57,0,.44-16.89.18-33.77-.15-50.66C330.13,361.26,329.86,361.26,329.86,361.35Z" transform="translate(-0.04)"/><path class="cls-22" d="M282.1,310.38c0-3.12.73-6.24.08-9.36,0,0-.35,0-.36,0-.65,3.12.05,6.24.07,9.36A.38.38,0,0,0,282.1,310.38Z" transform="translate(-0.04)"/><path class="cls-41" d="M317.64,310.38c0-3.12.72-6.24.07-9.36,0,0-.35,0-.36,0-.65,3.12,0,6.24.08,9.36A.37.37,0,0,0,317.64,310.38Z" transform="translate(-0.04)"/><path class="cls-39" d="M305.67,338.49c0-11.33,1.09-22.7,0-34,0-.08-.25-.08-.25,0-1.07,11.32,0,22.7,0,34C305.45,338.56,305.67,338.56,305.67,338.49Z" transform="translate(-0.04)"/><path class="cls-43" d="M310.13,399.77c0-26.27,1.08-52.65,0-78.9,0-.2-.25-.2-.26,0-1.07,26.25,0,52.63,0,78.9A.11.11,0,1,0,310.13,399.77Z" transform="translate(-0.04)"/><path class="cls-44" d="M287.12,357.62c0-18.74,1.09-37.55,0-56.28a.13.13,0,0,0-.26,0c-1.07,18.73,0,37.54,0,56.28C286.9,357.74,287.12,357.74,287.12,357.62Z" transform="translate(-0.04)"/><path class="cls-44" d="M304.85,387.22c0,9.1-1.09,18.23,0,27.32,0,.07.25.07.26,0,1.07-9.09,0-18.22,0-27.32C305.07,387.16,304.85,387.16,304.85,387.22Z" transform="translate(-0.04)"/><path class="cls-39" d="M313.79,342.77c.18-12.34.56-24.7-.05-37,0-.13-.41-.13-.42,0-.61,12.35-.23,24.71-.05,37C313.28,342.94,313.78,342.94,313.79,342.77Z" transform="translate(-0.04)"/><path class="cls-22" d="M318.05,334.71c.79-4.76.32-9.6.13-14.37,0-.11-.33-.11-.33,0-.19,4.77-.67,9.61.12,14.37Z" transform="translate(-0.04)"/><path class="cls-40" d="M278.55,334.71c.78-4.76.31-9.6.12-14.37,0-.11-.32-.11-.33,0-.19,4.77-.66,9.61.12,14.37Z" transform="translate(-0.04)"/><path class="cls-39" d="M330.52,352.1c.65-13.65,1.41-27.44.19-41.08,0-.16-.48-.16-.49,0-1.22,13.64-.46,27.43.18,41.08Z" transform="translate(-0.04)"/><path class="cls-42" d="M267,357.64c.33-16.89.59-33.77.15-50.66,0-.18-.56-.18-.57,0-.44,16.89-.17,33.77.15,50.66C266.78,357.73,267,357.73,267,357.64Z" transform="translate(-0.04)"/><g class="cls-45"><path class="cls-46" d="M95.81,456c80.56,1.55,162.35.63,243,.12,1.76,0,1.77-.89,0-.9-80.64-.51-162.43-1.43-243,.12C94.54,455.32,94.53,455.92,95.81,456Zm68.59,14.53c101.14.62,202.6,1,303.73,0,1.47,0,1.47-.74,0-.75-101.13-1-202.59-.59-303.73,0C163,469.79,163,470.48,164.4,470.48ZM140.53,489c63.8,1,128.14.28,192,.26s128.05.31,192-.25c1,0,1-.47,0-.48-64-.56-128-.24-192-.25s-128.2-.72-192,.26C139.61,488.51,139.61,489,140.53,489Zm72.82-10.49c26.08.17,52,.13,78.11-.18,1,0,1-.51,0-.52-26.07-.31-52-.35-78.11-.18C211.65,477.61,211.65,478.45,213.35,478.47Zm168-12.43c30.28.64,60.82.24,91.12,0,.75,0,.75-.38,0-.38-30.3-.25-60.84-.65-91.12,0C380.56,465.66,380.56,466,381.35,466Zm-52.07,28.81c40.46.28,81,.39,121.49-.05,1.38,0,1.38-.68,0-.7-40.45-.44-81-.32-121.49,0C327.74,494.07,327.74,494.84,329.28,494.85Zm-58.91,10.66c47.42.06,95.88,1.1,143.19,0,1.24,0,1.24-.61,0-.64-47.31-1.1-95.77-.07-143.19,0C269.1,504.86,269.09,505.51,270.37,505.51Z" transform="translate(-0.04)"/></g><g id="_Group_" data-name="&lt;Group&gt;"><path class="cls-35" d="M109.68,222a21.18,21.18,0,0,0-7.16-1.67s5.32,1.41,7.14,4.67c1.83-3.26,7.15-4.67,7.15-4.67A20.88,20.88,0,0,0,109.68,222Z" transform="translate(-0.04)"/><path class="cls-47" d="M377.93,217.94a21,21,0,0,0-7.15-1.67s5.31,1.41,7.14,4.68c1.82-3.27,7.14-4.68,7.14-4.68A21,21,0,0,0,377.93,217.94Z" transform="translate(-0.04)"/><path class="cls-47" d="M163.8,211a20.88,20.88,0,0,0-7.16-1.68s5.32,1.42,7.15,4.68c1.82-3.26,7.14-4.68,7.14-4.68A20.59,20.59,0,0,0,163.8,211Z" transform="translate(-0.04)"/><path class="cls-47" d="M232.55,258.18a21,21,0,0,0-7.16-1.67s5.32,1.41,7.15,4.68c1.82-3.27,7.14-4.68,7.14-4.68A20.88,20.88,0,0,0,232.55,258.18Z" transform="translate(-0.04)"/><path class="cls-35" d="M406,243.15a20.93,20.93,0,0,0-7.16-1.67s5.32,1.41,7.14,4.67c1.83-3.26,7.15-4.67,7.15-4.67A20.64,20.64,0,0,0,406,243.15Z" transform="translate(-0.04)"/><path class="cls-35" d="M360.67,275.21a21.18,21.18,0,0,0-7.16-1.67s5.32,1.41,7.14,4.67c1.83-3.26,7.15-4.67,7.15-4.67A20.82,20.82,0,0,0,360.67,275.21Z" transform="translate(-0.04)"/></g><path class="cls-47" d="M548.14,293.6l0-27.58c-105.78-2.26-203.56,25.53-203.56,27.58Z" transform="translate(-0.04)"/><g class="cls-48"><path class="cls-49" d="M385.4,282.39a12.17,12.17,0,0,0-1.61.38l2-.43C385.67,282.36,385.54,282.36,385.4,282.39Z" transform="translate(-0.04)"/></g><path class="cls-47" d="M49.67,293.57l-.12-28C155.33,263.3,253,291.1,253,293.57Z" transform="translate(-0.04)"/><path class="cls-50" d="M217.49,430.51a50.7,50.7,0,0,1-5.1-3.29l-.22-.22c3.56,1.19,5.32.7,5.32.7a52,52,0,0,1-8.25-5.77l.32,0-1.66-1.66c2.92,1,4.35.58,4.35.58a44.64,44.64,0,0,1-5.12-3.41,6.93,6.93,0,0,0,2.43.08l-1.66-1.66c2.92,1,4.35.58,4.35.58-1-.55-1.87-1.13-2.76-1.72h.07L207.9,413c2.92,1,4.35.57,4.35.57a41.92,41.92,0,0,1-7-4.95,6.32,6.32,0,0,0,3,.31,35.14,35.14,0,0,1-5.87-4.16,5.78,5.78,0,0,0,3.64.65l-1.37-1.37a6.86,6.86,0,0,0,3.6.47,33.58,33.58,0,0,1-2.91-1.85,4.76,4.76,0,0,0,.68-.06l-1.37-1.37a6.86,6.86,0,0,0,3.6.47,35.75,35.75,0,0,1-9.15-7.38,4.3,4.3,0,0,0,2.63.43l-1-1a5.12,5.12,0,0,0,2.7.35,26.29,26.29,0,0,1-3.3-2.2,4.31,4.31,0,0,0,1.63.07l-1-1a5.12,5.12,0,0,0,2.7.35,26.42,26.42,0,0,1-4.12-2.88l.15,0c-.25-.14-.47-.3-.71-.45a27.45,27.45,0,0,1-3.24-3.46,3.9,3.9,0,0,0,.85.15l-.47-.75a3.14,3.14,0,0,0,2.36.59l-.75-.75a3.71,3.71,0,0,0,2,.26,19.26,19.26,0,0,1-3.12-2.2l-.45-.71a3.14,3.14,0,0,0,2.36.59l-.75-.75a3.71,3.71,0,0,0,2,.26c-9-5.1-10.41-15.28-10.53-16.36h0c-.12,1.08-1.5,11.26-10.54,16.36a3.71,3.71,0,0,0,2-.26l-.74.75a3.12,3.12,0,0,0,2.35-.59l-.45.71a19.26,19.26,0,0,1-3.12,2.2,3.71,3.71,0,0,0,2-.26l-.74.75a3.12,3.12,0,0,0,2.35-.59l-.47.75a3.9,3.9,0,0,0,.85-.15,27.45,27.45,0,0,1-3.24,3.46L179,388l-.52-.29a1.75,1.75,0,0,0,.26-.05,48,48,0,0,1-7.3-5.06l.26,0-.37-.34-.73-.73-.18-.29a10.52,10.52,0,0,0,3.19.49,7.34,7.34,0,0,0,2.07,0l-1.87-1.89c3.3,1.11,4.93.65,4.93.65a46.25,46.25,0,0,1-4.36-2.77,6.58,6.58,0,0,0,1.3-.08l-1.87-1.88c3.3,1.1,4.93.65,4.93.65a49,49,0,0,1-4.72-3l-.21-.21c3.3,1.1,4.93.65,4.93.65a48.6,48.6,0,0,1-7.64-5.34l.29,0-1.53-1.54a7.66,7.66,0,0,0,4,.53,39.39,39.39,0,0,1-4.74-3.15,6.27,6.27,0,0,0,2.24.07l-1.53-1.53a7.66,7.66,0,0,0,4,.53c-.9-.51-1.74-1-2.56-1.59h.06l-1.53-1.54a7.66,7.66,0,0,0,4,.53,38.68,38.68,0,0,1-6.49-4.58,5.87,5.87,0,0,0,2.81.28,32.21,32.21,0,0,1-5.44-3.85,5.35,5.35,0,0,0,3.37.61l-1.27-1.28a6.3,6.3,0,0,0,3.34.44c-1-.54-1.84-1.11-2.7-1.71a4.09,4.09,0,0,0,.63-.06l-1.27-1.27a6.44,6.44,0,0,0,3.34.44,33.09,33.09,0,0,1-8.47-6.84,4,4,0,0,0,2.43.4l-.95-1a4.61,4.61,0,0,0,2.5.33,25.38,25.38,0,0,1-3.06-2,4,4,0,0,0,1.51.06l-.95-1a4.74,4.74,0,0,0,2.5.33,24.2,24.2,0,0,1-3.82-2.67l.15,0c-.24-.13-.45-.28-.67-.42a25.61,25.61,0,0,1-3-3.2,3.72,3.72,0,0,0,.79.14l-.44-.7a2.92,2.92,0,0,0,2.19.55l-.69-.69a3.56,3.56,0,0,0,1.82.24,18,18,0,0,1-2.9-2l-.42-.66a2.92,2.92,0,0,0,2.19.55l-.69-.7a3.42,3.42,0,0,0,1.82.24c-8.38-4.72-9.65-14.15-9.76-15.14,0,0,0,0,0,0-.11,1-1.39,10.42-9.76,15.14a3.42,3.42,0,0,0,1.82-.24l-.69.7a2.9,2.9,0,0,0,2.18-.55l-.42.66a17.5,17.5,0,0,1-2.89,2,3.56,3.56,0,0,0,1.82-.24l-.69.69a2.9,2.9,0,0,0,2.18-.55l-.44.7a3.62,3.62,0,0,0,.79-.14,24.21,24.21,0,0,1-3,3.2c-.22.14-.43.29-.66.42l.14,0a24.2,24.2,0,0,1-3.82,2.67,4.78,4.78,0,0,0,2.51-.33l-1,1a4,4,0,0,0,1.51-.06,24.61,24.61,0,0,1-3.06,2,4.64,4.64,0,0,0,2.51-.33l-1,1a4,4,0,0,0,2.44-.4,33.15,33.15,0,0,1-8.48,6.84,6.44,6.44,0,0,0,3.34-.44l-1.27,1.27a4.09,4.09,0,0,0,.63.06q-1.28.9-2.7,1.71a6.3,6.3,0,0,0,3.34-.44l-1.27,1.28a5.34,5.34,0,0,0,3.37-.61,31.81,31.81,0,0,1-5.44,3.85,5.91,5.91,0,0,0,2.82-.28,39.09,39.09,0,0,1-6.49,4.58,7.62,7.62,0,0,0,4-.53l-1.53,1.54h.06c-.82.55-1.66,1.08-2.55,1.59a7.62,7.62,0,0,0,4-.53l-1.53,1.53a6.32,6.32,0,0,0,2.25-.07,41,41,0,0,1-4.74,3.15,7.62,7.62,0,0,0,4-.53l-1.53,1.54.29,0a48.5,48.5,0,0,1-7.63,5.34s1.62.45,4.92-.65l-.2.21a50.26,50.26,0,0,1-4.72,3s1.62.45,4.92-.65l-1.87,1.88a6.68,6.68,0,0,0,1.3.08,46.08,46.08,0,0,1-4.35,2.77s1.62.46,4.92-.65l-1.87,1.89a7.38,7.38,0,0,0,2.07,0,10.48,10.48,0,0,0,3.19-.49l-.18.29-.72.73-.38.34.26,0a48.42,48.42,0,0,1-7.29,5.06,1.44,1.44,0,0,0,.26.05c-1,.6-2,1.18-3.1,1.74,0,0,1.71.42,5.12-.57q-1.11.72-2.28,1.38a1.44,1.44,0,0,0,.26.05c-1,.6-2,1.19-3.1,1.74,0,0,1.8.46,5.46-.66l-2.07,1.92a7.33,7.33,0,0,0,1,.08q-.78.5-1.59,1l.24,0c-1,.6-2,1.19-3.08,1.75,0,0,1.8.46,5.46-.66l-2.07,1.91a9.47,9.47,0,0,0,3.41-.16,62.91,62.91,0,0,1-6.79,5.15c-.57-.35-1.14-.71-1.69-1.08l.07,0-1.85-1.86c3.27,1.09,4.89.64,4.89.64a47.81,47.81,0,0,1-7.89-5.57,7.17,7.17,0,0,0,3.42.35,40.18,40.18,0,0,1-6.61-4.68,6.58,6.58,0,0,0,4.1.73l-1.55-1.55a7.73,7.73,0,0,0,4.06.54c-1.16-.66-2.24-1.36-3.28-2.08a7,7,0,0,0,.77-.07l-1.55-1.55a7.63,7.63,0,0,0,4.06.53,40,40,0,0,1-10.29-8.3,4.91,4.91,0,0,0,2.95.49l-1.15-1.17a5.72,5.72,0,0,0,3,.41,30.83,30.83,0,0,1-3.72-2.48,4.86,4.86,0,0,0,1.83.07l-1.15-1.16a5.76,5.76,0,0,0,3,.4,29.35,29.35,0,0,1-4.64-3.24l.17,0c-.28-.16-.53-.33-.8-.5a31.47,31.47,0,0,1-3.65-3.89,3.86,3.86,0,0,0,1,.16l-.53-.84a3.52,3.52,0,0,0,2.65.67l-.84-.85a4.11,4.11,0,0,0,2.21.29,21.5,21.5,0,0,1-3.51-2.47l-.51-.8a3.49,3.49,0,0,0,2.65.66l-.84-.84a4.11,4.11,0,0,0,2.21.29c-10.17-5.73-11.72-17.19-11.85-18.4t0,0c-.13,1.21-1.68,12.67-11.85,18.4a4.11,4.11,0,0,0,2.21-.29l-.84.84a3.49,3.49,0,0,0,2.65-.66l-.51.8a21.5,21.5,0,0,1-3.51,2.47,4.11,4.11,0,0,0,2.21-.29l-.84.85a3.52,3.52,0,0,0,2.65-.67l-.53.84a3.86,3.86,0,0,0,1-.16,30.73,30.73,0,0,1-3.65,3.89c-.27.17-.52.34-.8.5l.17,0A29.35,29.35,0,0,1,81.82,375a5.76,5.76,0,0,0,3-.4l-1.15,1.16a4.86,4.86,0,0,0,1.83-.07,31,31,0,0,1-2.66,1.82c-1.13-.6-2.23-1.21-3.29-1.85l.31-.06a55.55,55.55,0,0,1-8.5-5.9l.3,0-.44-.4-.84-.84-.21-.34a12.41,12.41,0,0,0,3.72.57,9.08,9.08,0,0,0,2.41,0l-2.18-2.19c3.84,1.28,5.74.75,5.74.75a56.43,56.43,0,0,1-5.08-3.22,8.77,8.77,0,0,0,1.52-.1l-2.18-2.19c3.84,1.28,5.74.76,5.74.76a56.45,56.45,0,0,1-5.5-3.55l-.24-.24c3.84,1.28,5.74.75,5.74.75a56,56,0,0,1-8.9-6.22l.34,0-1.78-1.79c3.14,1.05,4.68.61,4.68.61a46,46,0,0,1-5.52-3.67,7.58,7.58,0,0,0,2.62.09l-1.78-1.79c3.14,1.05,4.68.62,4.68.62-1-.59-2-1.21-3-1.85h.07l-1.78-1.79c3.14,1.05,4.68.62,4.68.62a47.35,47.35,0,0,1-7.56-5.34,6.87,6.87,0,0,0,3.28.33,38.26,38.26,0,0,1-6.33-4.49,6.22,6.22,0,0,0,3.92.7l-1.48-1.48a7.36,7.36,0,0,0,3.89.51c-1.11-.62-2.14-1.3-3.14-2a6.48,6.48,0,0,0,.73-.07l-1.48-1.48a7.36,7.36,0,0,0,3.89.51,38.78,38.78,0,0,1-9.87-8,4.67,4.67,0,0,0,2.84.46l-1.11-1.11a5.5,5.5,0,0,0,2.91.38,29,29,0,0,1-3.56-2.37,4.74,4.74,0,0,0,1.76.07l-1.11-1.11a5.5,5.5,0,0,0,2.91.38,28.45,28.45,0,0,1-4.44-3.11l.16,0c-.27-.16-.51-.33-.77-.49a28.89,28.89,0,0,1-3.49-3.73,4.1,4.1,0,0,0,.91.16l-.51-.81a3.39,3.39,0,0,0,2.55.64l-.81-.81a4.09,4.09,0,0,0,2.12.28,20.82,20.82,0,0,1-3.37-2.37l-.49-.77a3.39,3.39,0,0,0,2.55.64l-.81-.81a4.09,4.09,0,0,0,2.12.28c-6.84-3.86-9.61-10.41-10.7-14.38V438.38H211c-.47-.37-.94-.74-1.39-1.11l.28,0-.4-.37-.78-.79-.2-.31a11.55,11.55,0,0,0,3.44.53,8.32,8.32,0,0,0,2.24,0l-2-2c3.56,1.19,5.32.7,5.32.7a53.13,53.13,0,0,1-4.7-3,7,7,0,0,0,1.4-.09l-2-2C215.73,431,217.49,430.51,217.49,430.51ZM79.59,378.64l.31-.05q-1.38-.78-2.67-1.62a15.64,15.64,0,0,0,5.23.75c-.21.13-.41.27-.64.4a5.72,5.72,0,0,0,3-.41l-1.15,1.17a4.91,4.91,0,0,0,3-.49,40.53,40.53,0,0,1-6.11,5.55c-.31-.18-.63-.36-.93-.55a2.11,2.11,0,0,0,.28-.05c-.64-.36-1.25-.74-1.86-1.11a9.49,9.49,0,0,0,1.21-.1l-2.41-2.23c4.26,1.31,6.35.77,6.35.77C81.94,380,80.75,379.34,79.59,378.64Z" transform="translate(-0.04)"/><path class="cls-50" d="M385.63,429.39l-2,2a7.18,7.18,0,0,0,1.41.09,53.31,53.31,0,0,1-4.71,3s1.76.49,5.32-.7l-2,2a8.32,8.32,0,0,0,2.24,0,11.55,11.55,0,0,0,3.44-.53l-.19.31-.78.79-.41.37.28,0L386.81,438H548.05V294.33c-1.09,4-3.85,10.52-10.7,14.38a4.09,4.09,0,0,0,2.12-.28l-.8.81a3.35,3.35,0,0,0,2.54-.65l-.49.78a20.82,20.82,0,0,1-3.37,2.37,4.09,4.09,0,0,0,2.12-.28l-.8.81a3.37,3.37,0,0,0,2.54-.64l-.51.81a4.22,4.22,0,0,0,.92-.16,29,29,0,0,1-3.5,3.73c-.25.16-.5.33-.77.48l.17,0a29,29,0,0,1-4.45,3.11,5.54,5.54,0,0,0,2.92-.38l-1.11,1.11a4.69,4.69,0,0,0,1.75-.07,30.15,30.15,0,0,1-3.56,2.37,5.54,5.54,0,0,0,2.92-.38l-1.11,1.11a4.64,4.64,0,0,0,2.83-.46,38.78,38.78,0,0,1-9.87,8,7.36,7.36,0,0,0,3.89-.51l-1.48,1.48a6.48,6.48,0,0,0,.73.07c-1,.69-2,1.36-3.14,2a7.36,7.36,0,0,0,3.89-.51l-1.48,1.48a6.24,6.24,0,0,0,3.93-.7,38.35,38.35,0,0,1-6.34,4.49,6.87,6.87,0,0,0,3.28-.33,46.47,46.47,0,0,1-7.56,5.34s1.55.43,4.69-.62l-1.78,1.79h.07c-1,.64-1.94,1.26-3,1.85,0,0,1.55.43,4.69-.62l-1.78,1.79a7.52,7.52,0,0,0,2.61-.09,45.21,45.21,0,0,1-5.52,3.67s1.55.44,4.69-.61l-1.78,1.79.33,0a55.87,55.87,0,0,1-8.89,6.22s1.89.53,5.74-.75l-.24.24a55.74,55.74,0,0,1-5.5,3.54s1.89.53,5.74-.75l-2.18,2.19a8.12,8.12,0,0,0,1.51.09,55.52,55.52,0,0,1-5.07,3.23s1.89.53,5.74-.75l-2.18,2.19a8.86,8.86,0,0,0,2.41,0,11.9,11.9,0,0,0,3.71-.56l-.21.33-.84.85-.44.4.31,0a55.55,55.55,0,0,1-8.5,5.9l.3.06c-1.06.64-2.16,1.25-3.29,1.85a30.85,30.85,0,0,1-2.65-1.82,4.8,4.8,0,0,0,1.82.07l-1.15-1.16a5.76,5.76,0,0,0,3,.4,29.82,29.82,0,0,1-4.64-3.24l.17,0c-.28-.16-.53-.33-.8-.5a31.37,31.37,0,0,1-3.64-3.89,4.51,4.51,0,0,0,.95.16l-.53-.84a3.52,3.52,0,0,0,2.65.67l-.84-.85a4.11,4.11,0,0,0,2.21.29,21.5,21.5,0,0,1-3.51-2.47l-.51-.81a3.52,3.52,0,0,0,2.65.67l-.84-.84a4.24,4.24,0,0,0,2.21.29c-10.17-5.73-11.72-17.19-11.85-18.4,0,0,0,0,0,0-.14,1.21-1.68,12.67-11.86,18.4a4.24,4.24,0,0,0,2.21-.29l-.84.84a3.52,3.52,0,0,0,2.65-.67l-.5.81a21.59,21.59,0,0,1-3.52,2.47A4.11,4.11,0,0,0,490,366l-.84.85a3.52,3.52,0,0,0,2.65-.67l-.53.84a4.55,4.55,0,0,0,1-.16,31.37,31.37,0,0,1-3.64,3.89c-.27.17-.52.34-.81.5l.17,0a29.72,29.72,0,0,1-4.63,3.24,5.76,5.76,0,0,0,3-.4l-1.16,1.16a4.86,4.86,0,0,0,1.83-.07,30.26,30.26,0,0,1-3.71,2.47,5.76,5.76,0,0,0,3-.4l-1.16,1.17a4.94,4.94,0,0,0,3-.49,40,40,0,0,1-10.3,8.3,7.63,7.63,0,0,0,4.06-.53l-1.54,1.55a6.94,6.94,0,0,0,.76.07c-1,.72-2.12,1.42-3.28,2.08a7.73,7.73,0,0,0,4.06-.54l-1.54,1.55a6.54,6.54,0,0,0,4.09-.73,40.35,40.35,0,0,1-6.61,4.68,7.17,7.17,0,0,0,3.42-.35,47.72,47.72,0,0,1-7.88,5.57s1.61.45,4.89-.64l-1.86,1.86.07,0c-.55.37-1.12.73-1.69,1.08a65,65,0,0,1-6.79-5.15,9.53,9.53,0,0,0,3.42.16L469.36,395c3.66,1.13,5.46.67,5.46.67-1.07-.56-2.08-1.15-3.07-1.75l.24,0c-.55-.31-1.07-.64-1.6-1a7.59,7.59,0,0,0,1.05-.08L469.36,391c3.66,1.12,5.46.66,5.46.66-1.07-.55-2.1-1.14-3.09-1.74a1.75,1.75,0,0,0,.26-.05c-.79-.44-1.55-.9-2.29-1.38,3.42,1,5.12.57,5.12.57q-1.6-.84-3.09-1.74l.26,0a47.36,47.36,0,0,1-7.3-5.07l.26,0-.38-.34-.72-.73-.18-.29a10.48,10.48,0,0,0,3.19.49,7.87,7.87,0,0,0,2.07,0l-1.87-1.89c3.3,1.11,4.93.65,4.93.65a46.25,46.25,0,0,1-4.36-2.77,6.58,6.58,0,0,0,1.3-.08l-1.87-1.88c3.3,1.1,4.93.65,4.93.65a47.2,47.2,0,0,1-4.72-3l-.21-.2c3.3,1.1,4.93.65,4.93.65a48.64,48.64,0,0,1-7.64-5.35l.29,0-1.53-1.54a7.62,7.62,0,0,0,4,.53,40.06,40.06,0,0,1-4.73-3.15,6.57,6.57,0,0,0,2.24.07l-1.53-1.53a7.62,7.62,0,0,0,4,.53c-.89-.51-1.73-1-2.55-1.59h.06l-1.53-1.54a7.62,7.62,0,0,0,4,.53,40.12,40.12,0,0,1-6.49-4.58,5.91,5.91,0,0,0,2.82.28,32.79,32.79,0,0,1-5.44-3.85,5.38,5.38,0,0,0,3.37.6l-1.27-1.27a6.3,6.3,0,0,0,3.34.44c-.95-.54-1.84-1.11-2.7-1.71a4.09,4.09,0,0,0,.63-.06l-1.27-1.27a6.44,6.44,0,0,0,3.34.44A32.92,32.92,0,0,1,455,342.4a4,4,0,0,0,2.43.4l-.95-1a4.74,4.74,0,0,0,2.5.33,25.38,25.38,0,0,1-3.06-2,4,4,0,0,0,1.51.06l-.95-1a4.74,4.74,0,0,0,2.5.33,24.88,24.88,0,0,1-3.82-2.67l.14,0c-.23-.13-.44-.28-.66-.42a24.89,24.89,0,0,1-3-3.2,3.62,3.62,0,0,0,.79.14l-.44-.7a2.92,2.92,0,0,0,2.19.55l-.7-.69a3.56,3.56,0,0,0,1.82.24,17.93,17.93,0,0,1-2.89-2l-.42-.66a2.92,2.92,0,0,0,2.19.55l-.7-.7a3.42,3.42,0,0,0,1.82.24c-8.37-4.72-9.64-14.15-9.76-15.14,0,0,0,0,0,0-.12,1-1.39,10.42-9.76,15.14a3.42,3.42,0,0,0,1.82-.24l-.69.7a2.9,2.9,0,0,0,2.18-.55l-.42.66a17.93,17.93,0,0,1-2.89,2,3.56,3.56,0,0,0,1.82-.24l-.69.69a2.9,2.9,0,0,0,2.18-.55l-.44.7a3.62,3.62,0,0,0,.79-.14,24.21,24.21,0,0,1-3,3.2c-.22.14-.43.29-.66.42l.14,0a24.88,24.88,0,0,1-3.82,2.67,4.74,4.74,0,0,0,2.5-.33l-.95,1a4,4,0,0,0,1.51-.06,25.38,25.38,0,0,1-3.06,2,4.74,4.74,0,0,0,2.5-.33l-.95,1a4,4,0,0,0,2.43-.4,32.92,32.92,0,0,1-8.47,6.84,6.44,6.44,0,0,0,3.34-.44l-1.27,1.27a4.09,4.09,0,0,0,.63.06c-.86.6-1.75,1.17-2.7,1.71a6.3,6.3,0,0,0,3.34-.44l-1.27,1.27a5.38,5.38,0,0,0,3.37-.6,32.38,32.38,0,0,1-5.44,3.85,5.91,5.91,0,0,0,2.82-.28,40.12,40.12,0,0,1-6.49,4.58,7.62,7.62,0,0,0,4-.53l-1.53,1.54h.06c-.82.55-1.66,1.08-2.55,1.59a7.62,7.62,0,0,0,4-.53l-1.53,1.53a6.62,6.62,0,0,0,2.25-.07,41,41,0,0,1-4.74,3.15,7.62,7.62,0,0,0,4-.53l-1.53,1.54.29,0a48.18,48.18,0,0,1-7.64,5.35s1.63.45,4.93-.65l-.2.2a47.37,47.37,0,0,1-4.73,3s1.63.45,4.93-.65l-1.87,1.88a6.58,6.58,0,0,0,1.3.08,46.25,46.25,0,0,1-4.36,2.77s1.63.46,4.93-.65l-1.87,1.89a7.87,7.87,0,0,0,2.07,0,10.48,10.48,0,0,0,3.19-.49l-.18.29-.72.73-.38.34.26,0a47.36,47.36,0,0,1-7.3,5.07l.27,0-.53.29-.08-.05a27.45,27.45,0,0,1-3.24-3.46,3.9,3.9,0,0,0,.85.15l-.47-.75a3.14,3.14,0,0,0,2.36.59l-.75-.75a3.71,3.71,0,0,0,2,.26,19.71,19.71,0,0,1-3.12-2.2l-.45-.72a3.12,3.12,0,0,0,2.36.6l-.75-.75a3.71,3.71,0,0,0,2,.26c-9-5.1-10.41-15.28-10.53-16.36h0c-.12,1.08-1.5,11.26-10.54,16.36a3.71,3.71,0,0,0,2-.26l-.74.75a3.1,3.1,0,0,0,2.35-.6l-.45.72a19.26,19.26,0,0,1-3.12,2.2,3.71,3.71,0,0,0,2-.26l-.74.75a3.12,3.12,0,0,0,2.35-.59l-.47.75a3.9,3.9,0,0,0,.85-.15,28.11,28.11,0,0,1-3.23,3.46c-.24.15-.47.31-.72.45l.15,0a26.42,26.42,0,0,1-4.12,2.88,5.12,5.12,0,0,0,2.7-.35l-1,1a4.26,4.26,0,0,0,1.62-.07,25.58,25.58,0,0,1-3.3,2.2,5.12,5.12,0,0,0,2.7-.35l-1,1a4.35,4.35,0,0,0,2.62-.43,35.58,35.58,0,0,1-9.15,7.38,6.9,6.9,0,0,0,3.61-.47l-1.37,1.37a4.5,4.5,0,0,0,.67.06,33.58,33.58,0,0,1-2.91,1.85,6.9,6.9,0,0,0,3.61-.47L391.76,405a5.78,5.78,0,0,0,3.64-.65,35.65,35.65,0,0,1-5.88,4.16,6.32,6.32,0,0,0,3-.31,41.51,41.51,0,0,1-7,5s1.44.4,4.35-.57l-1.65,1.66h.06c-.88.59-1.79,1.17-2.76,1.71,0,0,1.44.41,4.35-.57l-1.65,1.66a6.86,6.86,0,0,0,2.42-.08,41.73,41.73,0,0,1-5.12,3.4s1.44.4,4.35-.57l-1.65,1.66.31,0a52,52,0,0,1-8.25,5.77s1.76.49,5.32-.7l-.22.22a50.7,50.7,0,0,1-5.1,3.29S382.07,430.58,385.63,429.39Zm129-49.14s2.1.54,6.35-.77l-2.41,2.23a9.49,9.49,0,0,0,1.21.1c-.61.37-1.22.75-1.85,1.11a1.75,1.75,0,0,0,.28.05l-.93.55a40.14,40.14,0,0,1-6.12-5.55,4.91,4.91,0,0,0,3,.49l-1.15-1.17a5.76,5.76,0,0,0,3,.4c-.22-.12-.42-.26-.64-.39a15.92,15.92,0,0,0,5.23-.75c-.86.56-1.74,1.1-2.66,1.61l.3.06C517.05,378.92,515.86,379.6,514.61,380.25Z" transform="translate(-0.04)"/><path class="cls-22" d="M220.94,412.89v.26a.84.84,0,0,0,.6.78H222a.83.83,0,0,0,.59-.78l0-.26C222.66,411.83,220.87,411.83,220.94,412.89Z" transform="translate(-0.04)"/><path class="cls-40" d="M227.81,403.06a1.27,1.27,0,0,0,0,2.54A1.27,1.27,0,0,0,227.81,403.06Z" transform="translate(-0.04)"/><path class="cls-22" d="M243.42,402.59a.74.74,0,0,0,0,1.47A.74.74,0,0,0,243.42,402.59Z" transform="translate(-0.04)"/><path class="cls-22" d="M251.48,409.18a.69.69,0,0,0,0,1.38A.69.69,0,0,0,251.48,409.18Z" transform="translate(-0.04)"/><path class="cls-40" d="M265.08,409.46a1.42,1.42,0,0,0,0,2.84A1.42,1.42,0,0,0,265.08,409.46Z" transform="translate(-0.04)"/><path class="cls-22" d="M257,417.13c-3,0-3,4.62,0,4.62S260,417.13,257,417.13Z" transform="translate(-0.04)"/><path class="cls-22" d="M216.73,415.43a1.5,1.5,0,0,0,0,3A1.5,1.5,0,0,0,216.73,415.43Z" transform="translate(-0.04)"/><path class="cls-22" d="M210.68,426c-3.26,0-3.26,5.07,0,5.07S214,426,210.68,426Z" transform="translate(-0.04)"/><path class="cls-22" d="M195.07,417.44a1.5,1.5,0,0,0,0,3A1.5,1.5,0,0,0,195.07,417.44Z" transform="translate(-0.04)"/><path class="cls-40" d="M213.2,396.49a1.8,1.8,0,0,0,0,3.59A1.8,1.8,0,0,0,213.2,396.49Z" transform="translate(-0.04)"/><path class="cls-22" d="M269.61,421.28a1.69,1.69,0,0,0,0,3.37A1.69,1.69,0,0,0,269.61,421.28Z" transform="translate(-0.04)"/><path class="cls-22" d="M281.15,416.21a1.41,1.41,0,0,0-1.93,0l-.14.11a1.57,1.57,0,0,0,1.1,2.66c1.27,0,2.18-1.76,1.11-2.66Z" transform="translate(-0.04)"/><path class="cls-22" d="M277.16,406a1.36,1.36,0,0,0,0,2.71A1.36,1.36,0,0,0,277.16,406Z" transform="translate(-0.04)"/><path class="cls-22" d="M297.31,415.14a.27.27,0,0,0,0,.54A.27.27,0,0,0,297.31,415.14Z" transform="translate(-0.04)"/><path class="cls-40" d="M290.76,412.25a1.15,1.15,0,0,0,0,2.3A1.15,1.15,0,0,0,290.76,412.25Z" transform="translate(-0.04)"/><path class="cls-22" d="M297.81,415.92a.5.5,0,0,0,0,1A.5.5,0,0,0,297.81,415.92Z" transform="translate(-0.04)"/><path class="cls-22" d="M307.38,421.6a1.37,1.37,0,0,0,0,2.74A1.37,1.37,0,0,0,307.38,421.6Z" transform="translate(-0.04)"/><path class="cls-22" d="M325,398.46a.84.84,0,0,0,0,1.67A.84.84,0,0,0,325,398.46Z" transform="translate(-0.04)"/><path class="cls-40" d="M337.6,402.14a1.69,1.69,0,0,0,0,3.37A1.69,1.69,0,0,0,337.6,402.14Z" transform="translate(-0.04)"/><path class="cls-22" d="M343.14,416.7a1.23,1.23,0,0,0,0,2.46A1.23,1.23,0,0,0,343.14,416.7Z" transform="translate(-0.04)"/><path class="cls-22" d="M349.69,418.62a.82.82,0,0,0,0,1.64A.82.82,0,0,0,349.69,418.62Z" transform="translate(-0.04)"/><path class="cls-22" d="M352.71,398.89c-3.12,0-3.13,4.84,0,4.84S355.83,398.89,352.71,398.89Z" transform="translate(-0.04)"/><path class="cls-22" d="M371.79,384l-.14.31a2.29,2.29,0,0,0,3.1,3.1l.32-.14a2.39,2.39,0,1,0-3.28-3.27Z" transform="translate(-0.04)"/><path class="cls-22" d="M382.93,405.13a1.22,1.22,0,0,0,0,2.43A1.22,1.22,0,0,0,382.93,405.13Z" transform="translate(-0.04)"/><path class="cls-22" d="M391,414.8a1.62,1.62,0,0,0,0,3.24A1.62,1.62,0,0,0,391,414.8Z" transform="translate(-0.04)"/><path class="cls-40" d="M371.34,400.7a1.62,1.62,0,0,0,0,3.24A1.62,1.62,0,0,0,371.34,400.7Z" transform="translate(-0.04)"/><path class="cls-22" d="M401.56,413c3.42,0,3.43-5.32,0-5.32S398.13,413,401.56,413Z" transform="translate(-0.04)"/><path class="cls-22" d="M399.55,429.32a1.7,1.7,0,0,0,0,3.4A1.7,1.7,0,0,0,399.55,429.32Z" transform="translate(-0.04)"/><path class="cls-40" d="M402.57,420c-2.57,0-2.58,4,0,4S405.14,420,402.57,420Z" transform="translate(-0.04)"/><path class="cls-24" d="M404.4,438.08a12,12,0,0,0-.26-2.05,12.54,12.54,0,0,0-10.07-9.64,12.64,12.64,0,0,0-20.72-14.22l-.14,0a14.06,14.06,0,0,0-27.43,5.87l-.17,0a13.51,13.51,0,0,0-3.86,1.48,16.78,16.78,0,0,0-31.05,9.07,13.7,13.7,0,0,0-6.8,5.7,10.91,10.91,0,0,0-13-12.63,11,11,0,0,0-1.94.63,13,13,0,0,0-11-2.61,13.13,13.13,0,0,0-1.58.46,12.67,12.67,0,0,0-18.92-.93,7.26,7.26,0,1,0-13.61-1.62,7.25,7.25,0,0,0,11.8,4,12.67,12.67,0,0,0-1.54,9.29h0a21.55,21.55,0,0,0-3.13,2.3,6.68,6.68,0,0,0,.21-3.56,6.75,6.75,0,0,0-7.76-5.18A12.67,12.67,0,0,0,221,419.72a4.86,4.86,0,0,0,0-1.74,4.8,4.8,0,1,0-3.65,5.72,4.67,4.67,0,0,0,2-1,12.6,12.6,0,0,0-.6,7.42,13.89,13.89,0,0,0,.47,1.59,7.19,7.19,0,0,0-2.69.07,7.08,7.08,0,0,0-3.4,1.82,6.31,6.31,0,0,0-3.64-1.4A5.26,5.26,0,0,0,199.12,430a7.08,7.08,0,0,0-2.63.06,6.83,6.83,0,0,0-5.22,8Z" transform="translate(-0.04)"/><path class="cls-47" d="M343.93,438.51h47.88a5.37,5.37,0,0,0-.13-1,6,6,0,0,0-4.81-4.61,6,6,0,0,0,.59-4.17A6,6,0,0,0,377,426.13h-.07a6.72,6.72,0,0,0-13.1,2.81l-.09,0a6.4,6.4,0,0,0-1.84.71A8,8,0,0,0,347,434a6.59,6.59,0,0,0-3.1,2.49Z" transform="translate(-0.04)"/><path class="cls-51" d="M420.86,433.63l-2.11,2.11a8.46,8.46,0,0,0,2.33,0,12.06,12.06,0,0,0,3.59-.55l-.21.33-.81.81-.42.39.29,0c-.47.39-.95.78-1.44,1.16h46c-.49-.38-1-.77-1.44-1.16l.29,0-.42-.39-.82-.81-.2-.33a12,12,0,0,0,3.59.55,8.5,8.5,0,0,0,2.33,0l-2.11-2.11c3.72,1.24,5.54.73,5.54.73a55.37,55.37,0,0,1-4.9-3.12,7.76,7.76,0,0,0,1.47-.09L469.31,429c3.72,1.24,5.54.73,5.54.73a54.93,54.93,0,0,1-5.31-3.42l-.23-.24c3.72,1.24,5.54.73,5.54.73a54.58,54.58,0,0,1-8.59-6l.33,0-1.72-1.73c3,1,4.53.6,4.53.6a45.41,45.41,0,0,1-5.34-3.55,7.37,7.37,0,0,0,2.53.09l-1.72-1.73c3,1,4.53.59,4.53.59-1-.56-2-1.16-2.88-1.78h.07l-1.72-1.73c3,1,4.53.59,4.53.59a44.23,44.23,0,0,1-7.31-5.15,6.63,6.63,0,0,0,3.17.32,37.76,37.76,0,0,1-6.12-4.34,6.05,6.05,0,0,0,3.79.68l-1.43-1.43a7.1,7.1,0,0,0,3.76.49c-1.07-.6-2.07-1.25-3-1.92a6,6,0,0,0,.7-.07l-1.43-1.43a7.1,7.1,0,0,0,3.76.49,37,37,0,0,1-9.53-7.69,4.45,4.45,0,0,0,2.73.45l-1.07-1.07a5.35,5.35,0,0,0,2.82.37,28.2,28.2,0,0,1-3.44-2.3,4.38,4.38,0,0,0,1.69.07l-1.07-1.07a5.35,5.35,0,0,0,2.82.37,27.59,27.59,0,0,1-4.3-3l.16,0c-.26-.15-.49-.31-.74-.47a29.08,29.08,0,0,1-3.38-3.6,4.23,4.23,0,0,0,.89.15l-.49-.78a3.24,3.24,0,0,0,2.45.62L454,381a3.83,3.83,0,0,0,2,.27,20.42,20.42,0,0,1-3.25-2.29l-.47-.75a3.24,3.24,0,0,0,2.45.62l-.77-.78a3.83,3.83,0,0,0,2,.27c-9.42-5.31-10.85-15.92-11-17,0,0,0,0,0,0-.12,1.12-1.55,11.73-11,17a3.87,3.87,0,0,0,2.05-.27l-.78.78a3.27,3.27,0,0,0,2.46-.62l-.47.75a20.52,20.52,0,0,1-3.26,2.29,3.87,3.87,0,0,0,2.05-.27l-.78.78a3.27,3.27,0,0,0,2.46-.62l-.49.78a4.2,4.2,0,0,0,.88-.15,28.25,28.25,0,0,1-3.37,3.6c-.25.16-.48.32-.75.47l.16,0a27.49,27.49,0,0,1-4.29,3,5.31,5.31,0,0,0,2.81-.37l-1.07,1.07a4.43,4.43,0,0,0,1.7-.07,29,29,0,0,1-3.44,2.3,5.31,5.31,0,0,0,2.81-.37l-1.07,1.07a4.48,4.48,0,0,0,2.74-.45,37.22,37.22,0,0,1-9.53,7.69,7.06,7.06,0,0,0,3.75-.49l-1.42,1.43a5.7,5.7,0,0,0,.7.07c-1,.67-2,1.32-3,1.92a7.06,7.06,0,0,0,3.75-.49l-1.42,1.43A6.05,6.05,0,0,0,431,403a37.76,37.76,0,0,1-6.12,4.34,6.6,6.6,0,0,0,3.16-.32,44.14,44.14,0,0,1-7.3,5.15s1.5.42,4.53-.59l-1.72,1.73h.07c-.93.62-1.87,1.22-2.88,1.78,0,0,1.5.42,4.53-.59l-1.72,1.73a7.31,7.31,0,0,0,2.52-.09,45.27,45.27,0,0,1-5.33,3.55s1.5.41,4.53-.6l-1.72,1.73.32,0a53.66,53.66,0,0,1-8.59,6s1.83.51,5.55-.73l-.24.24a54.93,54.93,0,0,1-5.31,3.42s1.83.51,5.55-.73l-2.11,2.12a7.7,7.7,0,0,0,1.46.09,55.37,55.37,0,0,1-4.9,3.12S417.14,434.87,420.86,433.63Z" transform="translate(-0.04)"/><path class="cls-51" d="M61,435.46l-1.42,1.43a5.49,5.49,0,0,0,1.57,0,7.84,7.84,0,0,0,2.41-.37l-.14.22-.54.55-.29.26.2,0-1,.78h31l-1-.78.2,0-.29-.26-.54-.55-.14-.22a7.9,7.9,0,0,0,2.42.37,5.43,5.43,0,0,0,1.56,0l-1.42-1.43a7,7,0,0,0,3.74.49,35.71,35.71,0,0,1-3.3-2.09,5.58,5.58,0,0,0,1-.06l-1.42-1.43a7,7,0,0,0,3.74.49,37.23,37.23,0,0,1-3.58-2.3l-.16-.16a7,7,0,0,0,3.74.49,36.44,36.44,0,0,1-5.79-4l.22,0-1.15-1.17a5.72,5.72,0,0,0,3,.41A31.52,31.52,0,0,1,90,423.67a5.09,5.09,0,0,0,1.7.06l-1.15-1.17a5.76,5.76,0,0,0,3,.4c-.67-.38-1.31-.78-1.93-1.2h0l-1.15-1.17a5.76,5.76,0,0,0,3,.4,29.24,29.24,0,0,1-4.91-3.47,4.4,4.4,0,0,0,2.13.22,25,25,0,0,1-4.12-2.92,4.11,4.11,0,0,0,2.55.46l-1-1a4.81,4.81,0,0,0,2.53.34c-.72-.41-1.4-.85-2-1.3a4,4,0,0,0,.47,0l-1-1a4.71,4.71,0,0,0,2.53.33,24.85,24.85,0,0,1-6.42-5.17,3,3,0,0,0,1.85.3l-.73-.72a3.67,3.67,0,0,0,1.9.25,19,19,0,0,1-2.31-1.55,3,3,0,0,0,1.14.05l-.73-.72a3.67,3.67,0,0,0,1.9.25,18.54,18.54,0,0,1-2.89-2h.11c-.18-.1-.34-.21-.51-.32a20.46,20.46,0,0,1-2.27-2.42,2.42,2.42,0,0,0,.6.1l-.33-.53a2.19,2.19,0,0,0,1.65.42l-.52-.52a2.72,2.72,0,0,0,1.38.18,13.51,13.51,0,0,1-2.19-1.54l-.32-.51a2.19,2.19,0,0,0,1.65.42l-.52-.53a2.68,2.68,0,0,0,1.38.19c-6.34-3.58-7.31-10.72-7.39-11.47,0,0,0,0,0,0-.08.75-1,7.89-7.39,11.47a2.68,2.68,0,0,0,1.38-.19l-.52.53a2.19,2.19,0,0,0,1.65-.42l-.32.51a13.51,13.51,0,0,1-2.19,1.54,2.72,2.72,0,0,0,1.38-.18l-.52.52a2.19,2.19,0,0,0,1.65-.42l-.33.53a2.42,2.42,0,0,0,.6-.1A19.66,19.66,0,0,1,70.36,403c-.17.11-.33.22-.51.32H70a18.54,18.54,0,0,1-2.89,2,3.67,3.67,0,0,0,1.9-.25l-.72.72a2.94,2.94,0,0,0,1.14-.05,19.91,19.91,0,0,1-2.32,1.55,3.67,3.67,0,0,0,1.9-.25l-.72.72a3,3,0,0,0,1.84-.3,24.85,24.85,0,0,1-6.42,5.17,4.72,4.72,0,0,0,2.53-.33l-1,1a4.32,4.32,0,0,0,.47,0c-.64.45-1.32.89-2,1.3a4.81,4.81,0,0,0,2.53-.34l-1,1a4.11,4.11,0,0,0,2.55-.46,25,25,0,0,1-4.12,2.92,4.4,4.4,0,0,0,2.13-.22A29.24,29.24,0,0,1,60.89,421a5.8,5.8,0,0,0,3-.4l-1.16,1.17h0c-.62.42-1.26.82-1.93,1.2a5.8,5.8,0,0,0,3-.4l-1.16,1.17a5.09,5.09,0,0,0,1.7-.06,31.52,31.52,0,0,1-3.59,2.39,5.76,5.76,0,0,0,3-.41l-1.16,1.17.22,0a36.44,36.44,0,0,1-5.79,4A7,7,0,0,0,61,430.4l-.16.16a37.23,37.23,0,0,1-3.58,2.3,7,7,0,0,0,3.74-.49l-1.42,1.43a5.58,5.58,0,0,0,1,.06,35.71,35.71,0,0,1-3.3,2.09A7,7,0,0,0,61,435.46Z" transform="translate(-0.04)"/><path class="cls-52" d="M169.22,435.46l-1.41,1.43a5.43,5.43,0,0,0,1.56,0,7.9,7.9,0,0,0,2.42-.37l-.14.22-.54.55-.29.26.2,0-1,.78h31c-.33-.26-.66-.52-1-.78l.2,0-.29-.26-.54-.55-.14-.22a7.84,7.84,0,0,0,2.41.37,5.49,5.49,0,0,0,1.57,0l-1.42-1.43a7,7,0,0,0,3.73.49,36.92,36.92,0,0,1-3.29-2.09,5.58,5.58,0,0,0,1-.06l-1.42-1.43a7,7,0,0,0,3.73.49,38.34,38.34,0,0,1-3.57-2.3l-.16-.16a7,7,0,0,0,3.73.49,36.8,36.8,0,0,1-5.78-4l.22,0-1.16-1.17a5.76,5.76,0,0,0,3,.41,31.52,31.52,0,0,1-3.59-2.39,5.09,5.09,0,0,0,1.7.06l-1.16-1.17a5.8,5.8,0,0,0,3,.4c-.67-.38-1.31-.78-1.93-1.2h0l-1.16-1.17a5.8,5.8,0,0,0,3,.4,29.24,29.24,0,0,1-4.91-3.47,4.4,4.4,0,0,0,2.13.22,24.63,24.63,0,0,1-4.12-2.92,4.11,4.11,0,0,0,2.55.46l-1-1a4.81,4.81,0,0,0,2.53.34c-.72-.41-1.4-.85-2-1.3a4.32,4.32,0,0,0,.47,0l-1-1a4.72,4.72,0,0,0,2.53.33,24.85,24.85,0,0,1-6.42-5.17,3,3,0,0,0,1.84.3l-.72-.72a3.67,3.67,0,0,0,1.9.25,19.91,19.91,0,0,1-2.32-1.55,2.94,2.94,0,0,0,1.14.05l-.72-.72a3.67,3.67,0,0,0,1.9.25,18.54,18.54,0,0,1-2.89-2h.1l-.5-.32a19.66,19.66,0,0,1-2.27-2.42,2.42,2.42,0,0,0,.6.1l-.33-.53a2.19,2.19,0,0,0,1.65.42l-.52-.52a2.69,2.69,0,0,0,1.37.18,13.86,13.86,0,0,1-2.18-1.54l-.32-.51a2.19,2.19,0,0,0,1.65.42l-.52-.53a2.64,2.64,0,0,0,1.37.19c-6.34-3.58-7.3-10.72-7.38-11.47,0,0,0,0,0,0-.08.75-1.05,7.89-7.39,11.47a2.68,2.68,0,0,0,1.38-.19l-.52.53a2.19,2.19,0,0,0,1.65-.42l-.32.51a14,14,0,0,1-2.19,1.54,2.72,2.72,0,0,0,1.38-.18l-.52.52a2.19,2.19,0,0,0,1.65-.42l-.33.53a2.42,2.42,0,0,0,.6-.1,20.46,20.46,0,0,1-2.27,2.42c-.17.11-.33.22-.51.32h.11a19,19,0,0,1-2.89,2,3.63,3.63,0,0,0,1.89-.25l-.72.72a3,3,0,0,0,1.14-.05,19,19,0,0,1-2.31,1.55,3.63,3.63,0,0,0,1.89-.25l-.72.72a3,3,0,0,0,1.85-.3,24.85,24.85,0,0,1-6.42,5.17,4.71,4.71,0,0,0,2.53-.33l-1,1a4,4,0,0,0,.47,0c-.65.45-1.32.89-2,1.3a4.81,4.81,0,0,0,2.53-.34l-1,1a4.11,4.11,0,0,0,2.55-.46,25,25,0,0,1-4.12,2.92,4.4,4.4,0,0,0,2.13-.22,29.24,29.24,0,0,1-4.91,3.47,5.76,5.76,0,0,0,3-.4l-1.15,1.17h0c-.62.42-1.26.82-1.93,1.2a5.76,5.76,0,0,0,3-.4l-1.15,1.17a5.09,5.09,0,0,0,1.7-.06,31.52,31.52,0,0,1-3.59,2.39,5.72,5.72,0,0,0,3-.41l-1.15,1.17.21,0a35.89,35.89,0,0,1-5.78,4,7,7,0,0,0,3.73-.49l-.15.16a37.23,37.23,0,0,1-3.58,2.3,7,7,0,0,0,3.73-.49l-1.41,1.43a5.58,5.58,0,0,0,1,.06,35.71,35.71,0,0,1-3.3,2.09A7,7,0,0,0,169.22,435.46Z" transform="translate(-0.04)"/><path class="cls-52" d="M457.93,435l-1.67,1.68a6.46,6.46,0,0,0,1.84,0,9.25,9.25,0,0,0,2.84-.43l-.16.26-.64.64-.34.31.24,0c-.38.31-.76.62-1.15.92h36.42c-.39-.3-.77-.61-1.14-.92l.23,0-.34-.31-.64-.64-.16-.26a9.25,9.25,0,0,0,2.84.43,6.46,6.46,0,0,0,1.84,0L496.28,435c2.94,1,4.38.58,4.38.58a43.41,43.41,0,0,1-3.87-2.47,5.64,5.64,0,0,0,1.15-.07l-1.66-1.68c2.94,1,4.38.58,4.38.58a42,42,0,0,1-4.2-2.71l-.18-.18c2.94,1,4.38.57,4.38.57a42.16,42.16,0,0,1-6.79-4.75l.25,0-1.36-1.37a6.75,6.75,0,0,0,3.58.48,36,36,0,0,1-4.22-2.81,5.78,5.78,0,0,0,2,.07l-1.36-1.37a6.79,6.79,0,0,0,3.58.47c-.79-.45-1.54-.92-2.27-1.41h.05l-1.36-1.37a6.79,6.79,0,0,0,3.58.47,35.43,35.43,0,0,1-5.78-4.08,5.3,5.3,0,0,0,2.51.25,28.86,28.86,0,0,1-4.84-3.43,4.79,4.79,0,0,0,3,.54l-1.13-1.13a5.68,5.68,0,0,0,3,.39,27.3,27.3,0,0,1-2.4-1.53,4.14,4.14,0,0,0,.56-.05l-1.13-1.13a5.68,5.68,0,0,0,3,.39,29.2,29.2,0,0,1-7.54-6.09,3.52,3.52,0,0,0,2.16.36l-.85-.85a4.18,4.18,0,0,0,2.23.29,22.59,22.59,0,0,1-2.72-1.82,3.4,3.4,0,0,0,1.34.06l-.85-.85a4.18,4.18,0,0,0,2.23.29,22.08,22.08,0,0,1-3.4-2.38h.13c-.21-.12-.39-.25-.59-.38a22.2,22.2,0,0,1-2.67-2.85,2.76,2.76,0,0,0,.7.12l-.39-.62a2.54,2.54,0,0,0,1.94.49l-.61-.61a3.07,3.07,0,0,0,1.62.21,16,16,0,0,1-2.58-1.81l-.37-.59a2.59,2.59,0,0,0,1.94.49l-.61-.62a3.07,3.07,0,0,0,1.62.21c-7.46-4.2-8.59-12.6-8.69-13.49h0c-.1.89-1.23,9.29-8.69,13.49A3.07,3.07,0,0,0,470,391l-.61.62a2.59,2.59,0,0,0,1.94-.49l-.37.59a15.57,15.57,0,0,1-2.58,1.81,3.07,3.07,0,0,0,1.62-.21l-.61.61a2.54,2.54,0,0,0,1.94-.49L471,394a2.76,2.76,0,0,0,.7-.12,20.87,20.87,0,0,1-2.67,2.85c-.19.13-.38.26-.59.38h.13a22.08,22.08,0,0,1-3.4,2.38,4.18,4.18,0,0,0,2.23-.29l-.85.85a3.4,3.4,0,0,0,1.34-.06,21.82,21.82,0,0,1-2.72,1.82,4.18,4.18,0,0,0,2.23-.29l-.85.85a3.55,3.55,0,0,0,2.17-.36,29.42,29.42,0,0,1-7.55,6.09,5.68,5.68,0,0,0,3-.39L463,408.89a4.14,4.14,0,0,0,.56.05,27.3,27.3,0,0,1-2.4,1.53,5.68,5.68,0,0,0,3-.39L463,411.21a4.82,4.82,0,0,0,3-.54,28.54,28.54,0,0,1-4.85,3.43,5.3,5.3,0,0,0,2.51-.25,35.43,35.43,0,0,1-5.78,4.08,6.79,6.79,0,0,0,3.58-.47l-1.36,1.37h.06c-.74.49-1.49,1-2.28,1.41a6.79,6.79,0,0,0,3.58-.47l-1.36,1.37a5.78,5.78,0,0,0,2-.07,35.15,35.15,0,0,1-4.22,2.81,6.75,6.75,0,0,0,3.58-.48l-1.36,1.37.26,0a42.71,42.71,0,0,1-6.8,4.75s1.45.41,4.39-.57l-.19.18a40.88,40.88,0,0,1-4.2,2.71s1.45.41,4.39-.58L456.26,433a5.79,5.79,0,0,0,1.16.07,45.09,45.09,0,0,1-3.88,2.47S455,435.93,457.93,435Z" transform="translate(-0.04)"/><path class="cls-53" d="M132.41,434.05l-2.1,2.11a8.46,8.46,0,0,0,2.33,0,12,12,0,0,0,3.58-.55l-.2.33-.81.81-.42.39.29,0c-.47.39-1,.78-1.44,1.16h46c-.49-.38-1-.77-1.45-1.16l.29,0-.42-.39-.81-.81-.2-.33a12,12,0,0,0,3.59.55,8.4,8.4,0,0,0,2.32,0l-2.1-2.11c3.71,1.24,5.54.73,5.54.73a55.37,55.37,0,0,1-4.9-3.12,7.59,7.59,0,0,0,1.46-.09l-2.1-2.12c3.71,1.24,5.54.73,5.54.73a54.93,54.93,0,0,1-5.31-3.42l-.23-.24c3.71,1.24,5.54.73,5.54.73a53.66,53.66,0,0,1-8.59-6l.33,0-1.72-1.73c3,1,4.52.6,4.52.6a45.27,45.27,0,0,1-5.33-3.55,7.37,7.37,0,0,0,2.53.09l-1.72-1.73c3,1,4.52.59,4.52.59-1-.56-1.95-1.16-2.87-1.78h.07L176.43,412c3,1,4.52.59,4.52.59a44.56,44.56,0,0,1-7.3-5.15,6.64,6.64,0,0,0,3.17.32,37.32,37.32,0,0,1-6.12-4.34,6.05,6.05,0,0,0,3.79.68l-1.43-1.43a7.1,7.1,0,0,0,3.76.49c-1.07-.6-2.07-1.25-3-1.92a6.06,6.06,0,0,0,.71-.07l-1.43-1.43a7.1,7.1,0,0,0,3.76.49,36.9,36.9,0,0,1-9.54-7.69,4.48,4.48,0,0,0,2.74.45L169,391.87a5.35,5.35,0,0,0,2.82.37,28.2,28.2,0,0,1-3.44-2.3A4.38,4.38,0,0,0,170,390L169,388.94a5.35,5.35,0,0,0,2.82.37,27.75,27.75,0,0,1-4.3-3l.16,0c-.26-.15-.5-.31-.75-.47a29,29,0,0,1-3.37-3.6,3.55,3.55,0,0,0,.89.15l-.49-.78a3.24,3.24,0,0,0,2.45.62l-.78-.78a3.87,3.87,0,0,0,2,.27,20.42,20.42,0,0,1-3.25-2.29l-.47-.75a3.24,3.24,0,0,0,2.45.62l-.78-.78a3.87,3.87,0,0,0,2,.27c-9.42-5.31-10.85-15.92-11-17,0,0,0,0,0,0-.13,1.12-1.56,11.73-11,17a3.87,3.87,0,0,0,2-.27l-.78.78a3.27,3.27,0,0,0,2.46-.62l-.48.75a20,20,0,0,1-3.25,2.29,3.87,3.87,0,0,0,2-.27l-.78.78a3.27,3.27,0,0,0,2.46-.62l-.5.78a3.55,3.55,0,0,0,.89-.15,29,29,0,0,1-3.37,3.6c-.25.16-.49.32-.75.47l.16,0a27.75,27.75,0,0,1-4.3,3,5.35,5.35,0,0,0,2.82-.37L143.26,390a4.38,4.38,0,0,0,1.69-.07,28.2,28.2,0,0,1-3.44,2.3,5.35,5.35,0,0,0,2.82-.37l-1.07,1.07a4.48,4.48,0,0,0,2.74-.45,36.9,36.9,0,0,1-9.54,7.69,7.1,7.1,0,0,0,3.76-.49l-1.43,1.43a6.06,6.06,0,0,0,.71.07c-1,.67-2,1.32-3,1.92a7.1,7.1,0,0,0,3.76-.49l-1.43,1.43a6.05,6.05,0,0,0,3.79-.68,36.9,36.9,0,0,1-6.12,4.34,6.64,6.64,0,0,0,3.17-.32,44.56,44.56,0,0,1-7.3,5.15s1.49.42,4.53-.59l-1.72,1.73h.06c-.92.62-1.87,1.22-2.87,1.78,0,0,1.49.42,4.53-.59l-1.72,1.73a7.31,7.31,0,0,0,2.52-.09,45.27,45.27,0,0,1-5.33,3.55s1.49.42,4.53-.6l-1.72,1.73.32,0a53.66,53.66,0,0,1-8.59,6s1.83.51,5.54-.73l-.23.24a54.93,54.93,0,0,1-5.31,3.42s1.83.51,5.54-.73l-2.1,2.12a7.59,7.59,0,0,0,1.46.09,55.37,55.37,0,0,1-4.9,3.12S128.7,435.29,132.41,434.05Z" transform="translate(-0.04)"/><path class="cls-52" d="M51,503.79a80.43,80.43,0,0,1,23.51,11.59h1.18c14.61-8.42,32-16.77,45.58-23.74,14-7.09,23.66-13,23.64-13s-10.47,4.17-25.18,9.48-33.63,12.31-49.1,21.32c-.95.55-1.86,1.09-2.75,1.64,2.07-1.79,4.26-3.67,6.61-5.66,14.06-12,31.05-24.71,45.29-33.34s25.19-13.82,25.16-13.88a206.62,206.62,0,0,0-27.08,10.26,216.23,216.23,0,0,0-48.66,30.68c-2.31,2-4.43,3.86-6.42,5.7,2.12-2.37,4.43-4.93,7-7.68,10.79-11.74,24.24-24.1,35.94-32.38a182,182,0,0,1,20.93-13.1A143.55,143.55,0,0,0,104,462.22,166.67,166.67,0,0,0,65.24,493c-1.62,1.75-3.1,3.43-4.5,5.07,2-3.32,4.13-6.87,6.51-10.65,5.35-8.54,11.37-17.49,17.73-25.89a270.42,270.42,0,0,1,19.3-22.79,229.24,229.24,0,0,1,23.08-21.15,174.51,174.51,0,0,0-26.2,17.78A194.73,194.73,0,0,0,79,456.61a197.09,197.09,0,0,0-19.54,25.92c-.81,1.29-1.57,2.55-2.31,3.8,1.91-5.09,4-10.88,6.37-17.48,6.55-18.5,14.3-39.5,21.7-55.45,7.24-16,13.74-27,13.68-27a237.08,237.08,0,0,0-17.73,24.86,291.14,291.14,0,0,0-26.31,54.53c-2.12,6-3.8,11.33-5.19,16.19v21.54C50.1,503.57,50.54,503.67,51,503.79Z" transform="translate(-0.04)"/><path class="cls-54" d="M54.28,504.85a83,83,0,0,1,20.11,10.48H154a66,66,0,0,1,20.5-10.4c-12-.55-22.4,1.12-31,4.77a67.4,67.4,0,0,1,22.83-16.79c-13.14.83-23.12,4.33-30.74,9.38A52.07,52.07,0,0,1,158.71,480c-18.33,2.45-31.72,11.93-39.26,27-1.12-13.57-3.4-24.88-7.17-32.08-3.68,7.25-5.93,18.67-7,32.38C97.74,492,84.3,482.45,65.85,480a52.14,52.14,0,0,1,22.78,21.64c-7.49-4.69-17.15-7.92-29.7-8.71a67.28,67.28,0,0,1,22.85,16.8C74,506.42,64.78,504.75,54.28,504.85Z" transform="translate(-0.04)"/><path class="cls-54" d="M82.35,510.35h0Z" transform="translate(-0.04)"/><path class="cls-55" d="M220.46,515.24c1.07-1.47,2.19-2.92,3.42-4.31,6.65-2.82,14.68-4.11,23.92-3.68a50.79,50.79,0,0,0-15.78,8Z" transform="translate(-0.04)"/><path class="cls-56" d="M220.44,515.24H207.68c6.17-8.93,16.36-16.14,33.81-17.24A52.29,52.29,0,0,0,220.44,515.24Z" transform="translate(-0.04)"/><path class="cls-54" d="M217.83,505.24a37.44,37.44,0,0,0-10.14,10h-4.83v0c5-15.31,16.26-25,32.79-27.16A40,40,0,0,0,217.83,505.24Z" transform="translate(-0.04)"/><path class="cls-54" d="M202.84,515.21h0a45.44,45.44,0,0,1,2.59-6.34c-.86-10.45-2.61-19.17-5.51-24.71-2.84,5.58-4.57,14.38-5.41,24.93a45.67,45.67,0,0,1,2.52,6.24l0-.09h5.79Z" transform="translate(-0.04)"/><path class="cls-54" d="M197.09,515.19" transform="translate(-0.04)"/><path class="cls-55" d="M168.34,515.24a50.63,50.63,0,0,0-15.77-8c9.24-.43,17.27.86,23.91,3.68,1.24,1.39,2.36,2.84,3.43,4.31Z" transform="translate(-0.04)"/><path class="cls-55" d="M179.93,515.24a52.19,52.19,0,0,0-21-17.24c17.44,1.1,27.63,8.31,33.8,17.24Z" transform="translate(-0.04)"/><path class="cls-56" d="M192.69,515.24a37.54,37.54,0,0,0-10.95-10.52,40,40,0,0,0-17.53-16.67c16.54,2.22,27.85,11.87,32.8,27.19Z" transform="translate(-0.04)"/><path class="cls-55" d="M380.07,515.24c-1.07-1.47-2.19-2.92-3.42-4.31-6.65-2.82-14.68-4.11-23.92-3.68a50.79,50.79,0,0,1,15.78,8Z" transform="translate(-0.04)"/><path class="cls-56" d="M380.09,515.24h12.76C386.68,506.31,376.49,499.1,359,498A52.23,52.23,0,0,1,380.09,515.24Z" transform="translate(-0.04)"/><path class="cls-54" d="M382.7,505.24a37.44,37.44,0,0,1,10.14,10h4.83v0c-4.95-15.31-16.26-25-32.79-27.16A40,40,0,0,1,382.7,505.24Z" transform="translate(-0.04)"/><path class="cls-54" d="M397.67,515.24h5.79l0,.09a45.67,45.67,0,0,1,2.52-6.24c-.84-10.55-2.57-19.35-5.4-24.93-2.91,5.54-4.66,14.26-5.52,24.71a45.44,45.44,0,0,1,2.59,6.34h0Z" transform="translate(-0.04)"/><path class="cls-54" d="M403.44,515.19" transform="translate(-0.04)"/><path class="cls-55" d="M432.19,515.24a50.63,50.63,0,0,1,15.77-8c-9.24-.43-17.27.86-23.91,3.68-1.24,1.39-2.36,2.84-3.43,4.31Z" transform="translate(-0.04)"/><path class="cls-55" d="M420.6,515.24a52.19,52.19,0,0,1,21-17.24c-17.44,1.1-27.63,8.31-33.8,17.24Z" transform="translate(-0.04)"/><path class="cls-56" d="M407.84,515.24a37.54,37.54,0,0,1,11-10.52,40.09,40.09,0,0,1,17.53-16.67c-16.54,2.22-27.85,11.87-32.8,27.19Z" transform="translate(-0.04)"/><path class="cls-52" d="M532.57,493a166.67,166.67,0,0,0-38.77-30.79,143.38,143.38,0,0,0-22.59-10.52,182.52,182.52,0,0,1,20.94,13.1c11.68,8.26,25.1,20.6,35.88,32.32,1.82-1,3.61-2.07,5.36-3.2C533.12,493.61,532.86,493.32,532.57,493Z" transform="translate(-0.04)"/><path class="cls-52" d="M478.1,488.14c-14.7-5.31-25.18-9.46-25.17-9.48s9.65,5.89,23.64,13c9.83,5.05,21.65,10.82,33,16.81,2.19-1.67,4.45-3.26,6.81-4.74C503.43,497.43,489.47,492.32,478.1,488.14Z" transform="translate(-0.04)"/><path class="cls-52" d="M519.24,502c2.54-1.46,5.13-2.83,7.69-4.25A218.08,218.08,0,0,0,480,468.48a206.62,206.62,0,0,0-27.08-10.26c0,.06,11,5.12,25.16,13.88A364.91,364.91,0,0,1,519.24,502Z" transform="translate(-0.04)"/><path class="cls-52" d="M493.53,438.75a270.42,270.42,0,0,1,19.3,22.79c6.35,8.4,12.38,17.35,17.73,25.89,1.29,2,2.5,4,3.66,5.93.34-.27.8-.65,1.23-1,1-1,2.16-1.89,3.13-2.93.48-.51.93-1,1.4-1.56l.52-.57c1-1.56,2.32-4.08,2.48-4.37a19.13,19.13,0,0,1,4-4.94c-1.15-3.79-2.48-7.86-4-12.28a291.12,291.12,0,0,0-26.3-54.53,234.39,234.39,0,0,0-17.74-24.86s6.45,11,13.69,27,15.14,37,21.7,55.45c2.34,6.6,4.46,12.39,6.37,17.48-.74-1.25-1.5-2.51-2.31-3.8a198,198,0,0,0-19.54-25.92,194.73,194.73,0,0,0-22.16-21.23,174.51,174.51,0,0,0-26.2-17.78A229.24,229.24,0,0,1,493.53,438.75Z" transform="translate(-0.04)"/><path class="cls-54" d="M501.22,515.33a114.68,114.68,0,0,1,15.63-11.94c5.53-3.38,11.43-6.12,16.85-9.67-9.84,1.26-17.7,4.15-24,8.09a51.38,51.38,0,0,1,22.46-21.34c-18.2,2.44-31.45,11.9-38.86,26.94-1.08-13.51-3.3-24.78-6.93-31.92-3.71,7.09-6,18.24-7.07,31.63-7.43-14.88-20.63-24.23-38.71-26.65a51.3,51.3,0,0,1,22.82,22c-7.52-5-17.35-8.44-30.32-9.26a66.37,66.37,0,0,1,22.52,16.56c-8.51-3.6-18.78-5.25-30.6-4.7a64.82,64.82,0,0,1,20.22,10.25Z" transform="translate(-0.04)"/><g class="cls-57"><path class="cls-58" d="M326.41,293.57h-55a9.22,9.22,0,0,0-9.22,9.22v4.7c0-5.09,4.13-8,9.22-8h55c5.09,0,9.22,2.87,9.22,8v-4.7A9.22,9.22,0,0,0,326.41,293.57Z" transform="translate(-0.04)"/></g><path class="cls-52" d="M119.34,293.57h66.94a4.18,4.18,0,0,0-1-2.06,4.75,4.75,0,0,0-3.54-1.48c-1.33,0-2.19,1.1-3.27,1.22-.43.07-.88-.22-1.4-.34.27-2.13-2.15-3.66-4.12-3.33a3.57,3.57,0,0,0-1.65.75,4.17,4.17,0,0,0-4.45-2A7,7,0,0,0,162,290a2.5,2.5,0,0,0-3.07-1.25,2,2,0,0,0-1.7-1.82c.64-2.23-1.76-4.23-3.89-4.18a3.77,3.77,0,0,0-1.82.53A3.45,3.45,0,0,0,149,280.9a3.13,3.13,0,0,0-1.5.19,3.31,3.31,0,0,0-2.67-1.74c-.33-2.48-2.7-3.75-4.8-2.36a3.16,3.16,0,0,0-6.09.77,4.43,4.43,0,0,0-6.49,4.58,3.11,3.11,0,0,0-3.57,0c-1.88,1.31-1.36,3.64-.54,5.47a3.93,3.93,0,0,0-3.37,1.38C118.74,290.71,119.41,292.16,119.34,293.57Z" transform="translate(-0.04)"/><path class="cls-53" d="M49.75,288.63v4.94h84.81a5.49,5.49,0,0,0-1.65-2.49,5.83,5.83,0,0,0-4.14-1.09,4.77,4.77,0,0,0-3.82-2.88,4.46,4.46,0,0,0-1.9.21,2.75,2.75,0,0,0-2.77-2.31,4,4,0,0,0-3.59,2.39,2.16,2.16,0,0,0-3.32.14,3.71,3.71,0,0,0-3.91-1.9c-.74-3.23-4-4.58-7.1-4.09.58-4.75-5.14-8.21-9.66-7.73A12,12,0,0,0,89,275.09c-1.14-2.61-5.29-1.81-8.11.31h0a3.71,3.71,0,0,0-4.41-.48l-.1.07A4,4,0,0,0,71,272.58a4,4,0,0,0-1.34.94,3.79,3.79,0,0,0-4.52-.69C62.59,274,62,277,61.65,279.57a3.36,3.36,0,0,0-3.19,2.05c-1.14-.66-2.68.08-3.37,1.1a3.84,3.84,0,0,0-.46,3.15A5.85,5.85,0,0,0,49.75,288.63Z" transform="translate(-0.04)"/><path class="cls-51" d="M478.79,293.57h-67a4.28,4.28,0,0,1,1-2.06,4.75,4.75,0,0,1,3.54-1.48c1.33,0,2.18,1.1,3.26,1.22.44.07.89-.22,1.41-.34-.27-2.13,2.14-3.66,4.12-3.33a3.57,3.57,0,0,1,1.65.75,4.16,4.16,0,0,1,4.45-2,7,7,0,0,1,4.87,3.66,2.49,2.49,0,0,1,3.07-1.25,2,2,0,0,1,1.69-1.82c-.63-2.23,1.77-4.23,3.9-4.18a3.8,3.8,0,0,1,1.82.53,3.44,3.44,0,0,1,2.53-2.37,3.11,3.11,0,0,1,1.49.19,3.33,3.33,0,0,1,2.67-1.74c.33-2.48,2.71-3.75,4.81-2.36a3.16,3.16,0,0,1,6.09.77,4.43,4.43,0,0,1,6.48,4.58,3.13,3.13,0,0,1,3.58,0c1.87,1.31,1.36,3.64.53,5.47a4,4,0,0,1,3.38,1.38C479.39,290.71,478.72,292.16,478.79,293.57Z" transform="translate(-0.04)"/><path class="cls-50" d="M548.37,288.63v4.94h-84.8a5.34,5.34,0,0,1,1.65-2.49,5.8,5.8,0,0,1,4.13-1.09,4.79,4.79,0,0,1,3.83-2.88,4.48,4.48,0,0,1,1.9.21,2.75,2.75,0,0,1,2.77-2.31,4,4,0,0,1,3.59,2.39,2.15,2.15,0,0,1,3.31.14,3.72,3.72,0,0,1,3.91-1.9c.74-3.23,4-4.58,7.11-4.09-.58-4.75,5.14-8.21,9.66-7.73a11.86,11.86,0,0,1,3.72,1.27c1.14-2.61,5.3-1.81,8.11.31h0a3.72,3.72,0,0,1,4.42-.48l.1.07a4,4,0,0,1,6.68-1.47,3.77,3.77,0,0,1,4.51-.69c2.54,1.19,3.17,4.17,3.48,6.74a3.37,3.37,0,0,1,3.2,2.05c1.14-.66,2.67.08,3.36,1.1a3.8,3.8,0,0,1,.46,3.15A5.84,5.84,0,0,1,548.37,288.63Z" transform="translate(-0.04)"/><g class="cls-59"><path class="cls-60" d="M262.18,307.49v-4.7a9.22,9.22,0,0,1,9.22-9.22H49.55V308H262.18Z" transform="translate(-0.04)"/></g><g class="cls-61"><path class="cls-62" d="M335.87,307.49v-4.7a9.21,9.21,0,0,0-9.22-9.22H548.5V308H335.87Z" transform="translate(-0.04)"/></g></g><g id="Frame"><path class="cls-63" d="M297,0,0,171.49v343L297,686,594,514.49v-343ZM542.8,484.89,297.07,626.8,51.26,484.89V201.14l245.81-142,245.73,142Z" transform="translate(-0.04)"/><path id="_Compound_Path_" data-name=" Compound Path " class="cls-64" d="M297,61.25,53,202.14V483.83L297,624.69,540.93,483.83V202.14Z" transform="translate(-0.04)"/></g><path class="cls-65" d="M756.84,296.52" transform="translate(-0.04)"/><path class="cls-54" d="M217.88,504.13a65,65,0,0,1,20.22,10.24h81.63A65,65,0,0,1,340,504.13c-11.83-.56-22.11,1.09-30.62,4.71a66.42,66.42,0,0,1,22.52-16.58c-12.37.79-21.9,4-29.28,8.59A51.41,51.41,0,0,1,325,479.52c-18.19,2.43-31.44,11.89-38.85,26.94-1.09-13.52-3.3-24.78-6.93-31.93-3.72,7.09-6,18.25-7.07,31.63-7.44-14.87-20.64-24.22-38.72-26.64a51.35,51.35,0,0,1,22.83,22c-7.53-5-17.36-8.44-30.32-9.26a66.45,66.45,0,0,1,22.51,16.57C240,505.22,229.7,503.58,217.88,504.13Zm90.88,5.34Z" transform="translate(-0.04)"/><path class="cls-54" d="M272.84,520.88a64.82,64.82,0,0,1,20.22,10.25h81.63a64.82,64.82,0,0,1,20.22-10.25c-11.83-.55-22.11,1.1-30.62,4.71A66.31,66.31,0,0,1,386.82,509c-12.38.78-21.9,4-29.29,8.59A51.38,51.38,0,0,1,380,496.27c-18.19,2.44-31.44,11.9-38.85,26.94-1.09-13.51-3.3-24.78-6.93-31.93-3.72,7.1-6,18.25-7.07,31.63-7.44-14.87-20.64-24.22-38.72-26.64a51.3,51.3,0,0,1,22.83,22c-7.52-5-17.36-8.43-30.32-9.25a66.33,66.33,0,0,1,22.51,16.56C294.93,522,284.66,520.33,272.84,520.88Zm90.88,5.35h0Z" transform="translate(-0.04)"/><path class="cls-54" d="M159.25,525.06a64.82,64.82,0,0,1,20.22,10.25H261.1a64.82,64.82,0,0,1,20.22-10.25c-11.83-.55-22.11,1.1-30.63,4.71a66.31,66.31,0,0,1,22.53-16.57c-12.38.78-21.9,4-29.28,8.59a51.38,51.38,0,0,1,22.46-21.34c-18.2,2.43-31.45,11.89-38.86,26.94-1.08-13.52-3.3-24.78-6.93-31.93-3.71,7.1-6,18.25-7.07,31.63-7.43-14.87-20.63-24.22-38.71-26.64a51.33,51.33,0,0,1,22.82,22c-7.52-5-17.35-8.43-30.32-9.25a66.37,66.37,0,0,1,22.52,16.56C181.34,526.15,171.07,524.51,159.25,525.06Zm90.87,5.35h0Z" transform="translate(-0.04)"/></svg>