<svg xmlns="http://www.w3.org/2000/svg" viewBox="0 0 87.48 101.02"><defs><style>.cls-1{fill:#1a0d3f;stroke:#000;}.cls-1,.cls-11,.cls-12,.cls-13,.cls-14,.cls-17,.cls-18,.cls-2,.cls-3{stroke-miterlimit:10;}.cls-1,.cls-11,.cls-13,.cls-14,.cls-18{stroke-width:0.88px;}.cls-12,.cls-2{fill:#f2f2f2;}.cls-12,.cls-17,.cls-2,.cls-3{stroke:#d3d5d6;}.cls-17,.cls-2{stroke-width:0.9px;}.cls-11,.cls-14,.cls-17,.cls-18,.cls-3{fill:none;}.cls-3{stroke-width:0.2px;opacity:0.4;}.cls-4{fill:#ed1e79;}.cls-5{fill:#fff;}.cls-6{fill:#62c08c;}.cls-7{fill:#4a53a4;}.cls-8{fill:#48b978;}.cls-9{fill:#ffce0b;}.cls-10,.cls-13{fill:#302d6d;}.cls-11{stroke:#ed1e79;}.cls-12{stroke-width:0.98px;}.cls-13{stroke:#ffce0b;}.cls-14{stroke:#ed166d;}.cls-15{opacity:0.6;}.cls-16{fill:#ccc;}.cls-18{stroke:#48b978;}</style></defs><g id="Layer_2" data-name="Layer 2"><g id="Layer_1-2" data-name="Layer 1"><polygon class="cls-1" points="43.74 0.51 87.04 25.51 87.04 75.51 43.74 100.51 0.44 75.51 0.44 25.51 43.74 0.51"/><path class="cls-2" d="M12.84,26.87S19,30,20.4,30.7c.49.23,2.9.78,3.76,1a14.78,14.78,0,0,0,3.69.47l14,1.26a3.18,3.18,0,0,1,0-1.25c.12-.61-3.39-6-3.39-6,2.94,1.43,5,2.72,6.87.07l.85-1.68s1.53,7.54,3,9.1,7.74,1.48,9.18,2.2,4.05,2.28,4.42,2.28l.43,12,.15.24h-.16l1.12,7.21c2.55,7.49,7.14,18,11.54,18L63.21,85.79,46.58,95.94l-.5-4.67-.14-.39a43.61,43.61,0,0,1-4.85-11.06,13.33,13.33,0,0,0-5.63-7.93L11.23,25.56Z"/><path class="cls-3" d="M44.57,31.61a4.1,4.1,0,0,0,1,3.16A13,13,0,0,0,48,36.52"/><path class="cls-3" d="M66.4,67.63a35.83,35.83,0,0,0,.92,5.29,33.64,33.64,0,0,0,3.4,5.38"/><path class="cls-3" d="M70.55,71.62a19.59,19.59,0,0,1,.1,4A10.27,10.27,0,0,1,69,79.45"/><path class="cls-3" d="M68.22,68a13.7,13.7,0,0,1,.26,3.89,10.35,10.35,0,0,1-1.69,4.39"/><path class="cls-4" d="M9.11,24.59l2.32,1.68c.93.93,4.93,3.59,7,5.13,0,0,3.8,1.27,5,1.72a5.91,5.91,0,0,1,2.15,1.79l-.88.93a5.6,5.6,0,0,1,3.44-1.67l.31.93a8.28,8.28,0,0,1-.31-2,7.61,7.61,0,0,0-1.27-2.81,2.15,2.15,0,0,1,2.29-3.22l10.13,2.21a23.28,23.28,0,0,0,3.38,4.88,8.46,8.46,0,0,0,4,2.37l0,.05c5.56,1,11.75,2.94,13.79,5,2.89,2.93,8.36,8.95,11,8.95-1.72,0-6.54-4.25-6.54-4.25l-2.11-3.07h5l3.36,4.91c1.29,0,7.54,4.83,7.54,5.92v4c0,.6-2.79,2.49-5.19,2.49-1.71,0-4.9-1.76-8.41-2.76l1,1.14a30.49,30.49,0,0,1,.63,4.66c0,1.68-.63,7.19-.63,10.18a19.16,19.16,0,0,0,1.71,6.65L44.57,93.75s-.11-5-1.06-5.92-2.93-8.77-4.1-10-5-5.62-8.4-9-9.34-11.9-9.34-14.5-6.51-8.9-8.84-11.74C11,40.32,6.12,32.92,6.12,32.92L4.41,30.34,4.07,27Z"/><path class="cls-5" d="M8.81,25.11c2.57,1.86,5.08,3.78,7.67,5.64A11.48,11.48,0,0,0,18.34,32c.61.28,1.3.44,1.94.66,1.73.59,3.57,1,4.72,2.55l.1-.73-.88.92a.6.6,0,0,0,.84.85,5.2,5.2,0,0,1,3-1.49l-.58-.44.31.92A.6.6,0,0,0,29,34.94a16.6,16.6,0,0,0-.82-3.51c-.54-1.11-2.1-3.34.18-3.81a8.52,8.52,0,0,1,3,.54l4.88,1.06,2,.43c.23.05,1,.35.72.06s.08.36.15.49c.23.41.48.82.73,1.22a18.85,18.85,0,0,0,2.4,3.15,9.84,9.84,0,0,0,2.82,2A7,7,0,0,0,46,37l.36.11c.19.06-.46-.11,0,0,4.94,1.3,10.68,1.85,14.42,5.69,1.86,1.91,3.7,3.85,5.72,5.58,1.37,1.16,3.08,2.68,5,2.77.77,0,.76-1.16,0-1.2-1.06-.06-2.24-1-3.06-1.64s-1.79-1.35-2.64-2.07a19.2,19.2,0,0,1-2.43-3.31l-.52.9h5l-.52-.29,2.73,4c.28.41.53,1,1,1.2a21,21,0,0,1,2,1,17.69,17.69,0,0,1,4.94,4.12c.46.67.19,2.27.19,3.23,0,.46.07.78-.19,1.13A5,5,0,0,1,76,59.3a5.89,5.89,0,0,1-4.83,0c-2-.72-3.9-1.56-5.92-2.16a.61.61,0,0,0-.59,1l.57.65a4.71,4.71,0,0,1,.36.42c.13.19-.14-.34-.07-.1A18.74,18.74,0,0,1,66,62a30.56,30.56,0,0,1-.21,6.12,31.63,31.63,0,0,0-.17,7.21,19.91,19.91,0,0,0,1.65,5.32l.21-.82L47.15,91.57l-2.89,1.66.91.52c-.05-1.91,0-4.45-1.05-6.12-1.3-2.07-1.86-4.56-2.7-6.85a12.2,12.2,0,0,0-1.34-3A34.91,34.91,0,0,0,37.56,75c-2.56-2.84-5.34-5.51-7.81-8.43a54,54,0,0,1-6-8.49,10.9,10.9,0,0,1-1.48-3.39A7.28,7.28,0,0,0,21.43,52a46.47,46.47,0,0,0-6.07-7.43,58.39,58.39,0,0,1-5-6.39c-1.29-1.88-2.55-3.78-3.81-5.68-.34-.52-.69-1-1-1.56A5.94,5.94,0,0,0,5,30.21c-.26-.31,0,.23,0,0-.18-1-.21-2.13-.32-3.18l-.3.52,5-2.43c.7-.34.09-1.37-.6-1l-5,2.43a.57.57,0,0,0-.3.52c.1.95.19,1.9.29,2.84a4.11,4.11,0,0,0,.92,2c.93,1.41,1.86,2.83,2.8,4.23,1.55,2.31,3.07,4.66,4.82,6.83,1.93,2.4,4.16,4.56,6.11,7a14.5,14.5,0,0,1,2.46,3.69c.33.83.3,1.75.63,2.61a36.32,36.32,0,0,0,4.85,8A87,87,0,0,0,33.18,72c1.38,1.48,2.73,3,4.08,4.49a13.61,13.61,0,0,1,2.1,2.45c1.41,2.66,1.89,5.73,3.17,8.45a10.43,10.43,0,0,0,.59,1,5.37,5.37,0,0,1,.56,1.94,27.23,27.23,0,0,1,.29,3.5.61.61,0,0,0,.9.52l20.3-11.72,2.88-1.66a.63.63,0,0,0,.22-.83,16.29,16.29,0,0,1-1.62-6,59.93,59.93,0,0,1,.43-7.45,24.27,24.27,0,0,0-.1-5.9,8.5,8.5,0,0,0-.39-2.08,6.49,6.49,0,0,0-1.12-1.34l-.58,1c2,.6,3.94,1.45,5.92,2.16a7,7,0,0,0,4.2.43,7.93,7.93,0,0,0,3.78-2c.73-.8.46-2,.46-3s.18-2-.45-2.83a13.59,13.59,0,0,0-2.38-2.29,29.83,29.83,0,0,0-3.09-2.26,5.21,5.21,0,0,0-2.22-1l.52.3L70,45.45a18,18,0,0,0-1.75-2.55c-.53-.54-1.56-.31-2.27-.31H62.79a.61.61,0,0,0-.52.91,17.38,17.38,0,0,0,2.88,3.76c1,.83,2,1.64,3.08,2.37a6.85,6.85,0,0,0,3.21,1.48v-1.2c-2-.09-4-2.28-5.39-3.55-1.74-1.61-3.35-3.36-5-5a15.65,15.65,0,0,0-6-3.24c-2.7-.95-5.55-1.41-8.25-2.15a10.12,10.12,0,0,1-5.54-4.52c-.58-.87-1-2.46-2.07-2.78-2.87-.88-6-1.31-8.91-1.95-1.39-.3-2.77-.49-3.77.81a2.79,2.79,0,0,0-.16,3.08,10.55,10.55,0,0,1,1.13,2.22c.2.8.19,1.65.39,2.46L29,34.94,28.66,34a.63.63,0,0,0-.58-.45,6.49,6.49,0,0,0-3.86,1.84l.84.85.89-.92a.62.62,0,0,0,.09-.73,7.61,7.61,0,0,0-4-2.59l-2.76-1a5.73,5.73,0,0,1-1.68-1c-2.75-2-5.45-4-8.21-6C8.78,23.62,8.18,24.66,8.81,25.11Z"/><path class="cls-6" d="M27.23,41c.6-.12,2.06-.58,1.74.53-.23.79-.43,1.58-.69,2.36s-.55,1.57-.83,2.36a3.49,3.49,0,0,0-.28,1,5.81,5.81,0,0,0,.19,1.24,7.05,7.05,0,0,1,.24,1.36,5.36,5.36,0,0,1-.34,1.23l1-.26-1.41-1.72a4.48,4.48,0,0,1-.65-.79,1.32,1.32,0,0,1-.07-.63V43.12a3.74,3.74,0,0,1,0-1.11,2.07,2.07,0,0,1,1.07-1,.6.6,0,0,0-.32-1.16,2.94,2.94,0,0,0-2,2.4c0,.79,0,1.57,0,2.36v2.69a8,8,0,0,0,0,1,2.17,2.17,0,0,0,.62,1.15l1.84,2.24a.61.61,0,0,0,1-.27A10,10,0,0,0,28.78,50a4.9,4.9,0,0,0-.18-1.42,6.66,6.66,0,0,1-.24-1.32,4.53,4.53,0,0,1,.33-1c.26-.75.56-1.5.79-2.26a21.89,21.89,0,0,0,.75-2.63,1.7,1.7,0,0,0-1.71-1.88,7.43,7.43,0,0,0-1.61.27C26.16,40,26.48,41.14,27.23,41Z"/><path class="cls-7" d="M63.71,66.18c-2-1.7-3.39-4.05-5.54-5.62a5.79,5.79,0,0,0-3.35-1.26A7,7,0,0,0,50.76,61a12.22,12.22,0,0,1-2.3,1.49c-.68.28-1.47.09-2.17.34a1.8,1.8,0,0,0-1,2.56,5,5,0,0,0,1.59,1.28c.83.56,1.65,1.15,2.43,1.77,1.23,1,2.78,2.14,3.44,3.6.46,1,.27,2.55.41,3.65.19,1.6.44,3.2.7,4.79s.47,3,.79,4.47a1.81,1.81,0,0,0,2.4,1.5,18.32,18.32,0,0,0,2.63-1.55c.72-.43,1.45-.86,2.18-1.27.95-.55,1.91-1.07,2.84-1.63.76-.46,1.8-1,1.6-2.08a4.71,4.71,0,0,0-.62-1.25,12,12,0,0,1-1.07-2.36,14.26,14.26,0,0,1-.57-5.24c.07-1.45.8-3.73-.35-4.88a.6.6,0,0,0-.85.84c.46.46.18,1.41.13,2-.07.83-.12,1.66-.15,2.5a13.89,13.89,0,0,0,.36,4.17,14.82,14.82,0,0,0,1.54,3.75,3,3,0,0,1,.41.8s0,0,0,0a1.71,1.71,0,0,1-.27.26A37.29,37.29,0,0,1,60.61,83l-1.85,1.09c-.67.4-2.23,1.81-2.89.8a5.13,5.13,0,0,1-.28-1.54l-.36-2a61.42,61.42,0,0,1-1.07-8c-.08-2.4-1.76-3.94-3.54-5.4-1.14-.93-2.35-1.76-3.55-2.6-.37-.26-1.09-.67-.64-1.23.24-.28,1.14-.24,1.51-.27a2.85,2.85,0,0,0,1.13-.31c1.59-.81,2.88-2.29,4.59-2.84a4.14,4.14,0,0,1,3.69.76c2.17,1.51,3.5,3.91,5.51,5.58C63.45,67.52,64.31,66.67,63.71,66.18Z"/><path class="cls-8" d="M62.26,68.34c-.72-1-1.09-2.22-1.74-3.27a3.27,3.27,0,0,0-2.07-1.33,4.77,4.77,0,0,0-2.57,0,2.53,2.53,0,0,0-.92.51c-.42.4-.72,1.12-1.23,1.41-.3.18-.67.14-1,.4a1.48,1.48,0,0,0-.52,1.15c0,1,.88,1.55,1.54,2.09.82.66,1.68,1.28,2.46,2A2.91,2.91,0,0,1,57.36,73c0-.22,0,.16,0,.24l0,.69.09,1.92a39.67,39.67,0,0,0,.41,4.48c.12.68.38,2.2,1.42,1.93a2.3,2.3,0,0,0,.84-.68l1.56-1.59a13.59,13.59,0,0,0,1.19-1.21c.61-.82.27-1.93,0-2.79a10.07,10.07,0,0,1-.5-4,9.81,9.81,0,0,0-.06-3.42.6.6,0,0,0-1.15.32,6.72,6.72,0,0,1,0,2.49,14.61,14.61,0,0,0,0,3.17c.13.92.56,1.73.77,2.63a2.33,2.33,0,0,1,.06.53c0,.09-.13.49,0,.27a2.37,2.37,0,0,1-.27.28l-2.55,2.59s-.34.28-.34.34.53,0,.48,0-.24-.77-.27-.93a49.7,49.7,0,0,1-.52-6.89,3.2,3.2,0,0,0-.9-2.23c-1.15-1.27-2.7-2.08-3.89-3.3-.17-.18-.45-.41-.29-.67s.33-.11.55-.19a2.54,2.54,0,0,0,.9-.76c.71-.81,1.07-1.37,2.22-1.37a2.72,2.72,0,0,1,2.35.95c.64,1,1,2.21,1.71,3.2C61.67,69.56,62.71,69,62.26,68.34Z"/><path class="cls-7" d="M38.89,63.91c-.89-.3-1.76-.69-2.64-1a13.74,13.74,0,0,0-3.07-1.1,2.35,2.35,0,0,0-2.45,1.48,2.55,2.55,0,0,0,.85,2.8c1.26,1.27,2.4,2.44,3.44,3.5,1.71,1.73,3.44,3.44,5.11,5.2.39.41.77.81,1.15,1.23.2.22.45.68.7.83s0,.35.16-.15-.1.1-.08.32a5.86,5.86,0,0,0,.22.92,52.94,52.94,0,0,0,1.51,5.69c.24.69.62,2.14,1.6,2,.79-.14,1.15-1.13,1.3-1.79.54-2.37.16-5-.14-7.4-.1-.74-.24-1.47-.32-2.21.06.6,0-.07,0-.21a3.9,3.9,0,0,0-.19-.69c-.23-.7-.51-1.39-.79-2.08a19.84,19.84,0,0,0-1.55-3.6C42.6,65.91,40.67,65,39,64c-.66-.41-1.26.63-.61,1,1.44.9,3.17,1.69,4.19,3.1A13.87,13.87,0,0,1,43.91,71a18.29,18.29,0,0,1,1.3,4.29,35.66,35.66,0,0,1,.49,6.6,8.41,8.41,0,0,1-.17,1.51c0,.17-.42.84-.4.93s.28.12.31,0-.12-.18-.14-.25a6.28,6.28,0,0,0-.32-.77c-.18-.52-.34-1-.5-1.58-.5-1.69-.86-3.42-1.26-5.14l-.16.59c.78-.82-1.27-2.49-1.73-3-1.49-1.59-3-3.13-4.57-4.67-.47-.48-.94-.94-1.4-1.43l-.2-.22-.87-.88c-.68-.68-1.4-1.33-2-2a1.22,1.22,0,0,1-.38-1.37c.21-.49.58-.54,1-.7l.3-.08c-.05,0-.46,0-.26.08,1.82.76,3.76,1.49,5.64,2.12C39.31,65.31,39.62,64.16,38.89,63.91Z"/><path class="cls-6" d="M36.23,41.19c-1.69-1.85-3.87,0-3.84,2.06,0,1.66-.13,3.32-.21,5a27.94,27.94,0,0,0,.07,5.71c.23,1.38,1.47,2.15,2.4,3.11a32.63,32.63,0,0,0,4.9,4.5c.93.63,3.21,1.66,3.22-.32,0-1.61-1.61-3.2-2.62-4.28-.58-.62-1.19-1.22-1.82-1.79l-.47-.42c-.13-.12,0-.06.06.11a3.6,3.6,0,0,1-.12-.44,45.39,45.39,0,0,1-1.24-6.72c-.17-2,1.5-4.83-.33-6.49-.57-.52-1.42.33-.85.85,1.29,1.16-.06,3.77,0,5.24a28.13,28.13,0,0,0,.8,5.08c.19,1,.23,2.55.94,3.28.94,1,2,1.81,2.84,2.83a9.42,9.42,0,0,1,1.39,1.94c.12.24.15.54.26.75,0,.05,0,.18,0,.22s.34-.05.19-.18-.17,0-.21,0a14.57,14.57,0,0,1-4.11-3C36.23,57,35.14,55.7,33.9,54.6c-.75-.66-.6-2.06-.6-3.05,0-2,.11-4,.22-6,0-.68.09-1.37.07-2.05a3.4,3.4,0,0,1,0-.9c.24-.86,1.11-1.25,1.75-.54S36.75,41.76,36.23,41.19Z"/><path class="cls-9" d="M9,27.53c.74-.29,1.33.57,1.8,1l2.21,2c1,.93,2.14,2.35,3.4,3a13.28,13.28,0,0,0,2.73.67,4.05,4.05,0,0,1,1.82,1c.54.45,1.1.88,1.62,1.36.27.25.94.68,1.08,1,.05.12-.07.49,0,.63a1.17,1.17,0,0,0,.32.61.62.62,0,0,0,.73.09,9.35,9.35,0,0,1,5.2-.32c1.54.34,1.28,1.56,1.1,2.78-.41,2.77-1.3,5.48-1.58,8.27-.26,2.56.1,5.2-.34,7.74,0,.17-.2.8-.18.79-.2.06-1.09-1-1.29-1.19a19.59,19.59,0,0,1-2.93-4.54c-1.28-2.69-1.25-5.83-.9-8.74a.61.61,0,0,0-.6-.6h-.67c-.45,0,.28.14-.17,0s-1-.44-1.54-.66L19,41.65c-.44-.2-.29-.12-.59-.45-.79-.88-1.44-1.89-2.24-2.76-.06-.07-.35-.58-.15-.1a4.21,4.21,0,0,1-.12-.51c-.15-.61-.3-1.23-.49-1.82a11.07,11.07,0,0,0-2.53-3.73l-2.41-2.55c-.35-.37-2.07-1.71-1.35-2.26s0-1.51-.61-1c-1.8,1.39-.12,2.85,1,4a34.53,34.53,0,0,1,3.23,3.51A18.56,18.56,0,0,1,14.16,36a21.67,21.67,0,0,1,.69,2.45,8.32,8.32,0,0,0,1.52,2.12,16.06,16.06,0,0,0,1.43,1.73,11.13,11.13,0,0,0,2.92,1.42,5.26,5.26,0,0,0,2.42.61l-.6-.6a16.91,16.91,0,0,0,1.06,9.34c.55,1.14,4,7.85,6,6.05.78-.7.71-2.36.75-3.3.09-1.69.05-3.38.12-5.07.16-3.45,1.47-6.76,1.77-10.2a2.57,2.57,0,0,0-2-3.07,10.25,10.25,0,0,0-6.2.42l.73.1s.07-.58,0-.71a1.48,1.48,0,0,0-.31-.53,11.32,11.32,0,0,0-1.08-1c-.61-.56-1.26-1.07-1.9-1.59a4.49,4.49,0,0,0-1.63-1c-.94-.28-2.22-.25-3.07-.76a10.21,10.21,0,0,1-1.42-1.29l-2.46-2.24c-1-1-2.64-3.12-4.27-2.5C8,26.64,8.27,27.8,9,27.53Z"/><path class="cls-9" d="M40.67,40.86c.75-1.57,2.88-.85,4-.15a9,9,0,0,0,3.38,1A43.76,43.76,0,0,1,53.12,43c.52.16.12-.17.27.16a4.34,4.34,0,0,1,.2,1c.23,1.22.44,2.43.6,3.66a.61.61,0,0,0,.9.52c-.09,0,.52,0,.66,0h1a13.35,13.35,0,0,1,2,0c1.16.19,2.3,1.28,3.31,1.86,1.6.92,3.63,2.43,5.23,2.84,1.11.28,2.24.53,3.37.8a14.76,14.76,0,0,0,3.88.72,2.52,2.52,0,0,0,1.08-.42c.39-.17,1-.36,1.3.06a1.89,1.89,0,0,1-.13,1.93c-1.23,1.16-2.44.47-3.73,0a69.33,69.33,0,0,0-13-3.5,5.39,5.39,0,0,0-1-.07c-.15,0-.16.13-.28.16s.35-.16.06-.12l-.94.17-2.31.39c-.52.08-1.06,0-1.45.42s-.8,1.1-1.3,1.57a16.78,16.78,0,0,1-2.18,1.76A16.32,16.32,0,0,1,46,59.28c-.51.14-1.25.38-1.72,0-.85-.62-1.44-2.4-1.79-3.34a7.73,7.73,0,0,1-.58-3.35A9,9,0,0,0,42,50.92c-.18-1.83-.58-3.64-.89-5.45-.24-1.41-.82-3.35-.35-4.76.25-.73-.91-1.05-1.15-.32-.62,1.86.17,4.41.5,6.26.22,1.27.48,2.55.64,3.84a14.07,14.07,0,0,1,0,2.43,10,10,0,0,0,1,4.12,7.74,7.74,0,0,0,2,3.3c1.47,1.07,4-.33,5.33-1,2.25-1.19,4.88-2.88,6.18-5.15l-.52.3a20.34,20.34,0,0,0,2.8-.42c.49-.09,1-.16,1.48-.26l.41-.07c.58-.11-.23-.14,0,0a3.6,3.6,0,0,0,1,.16l1.72.32,2.65.52a7.29,7.29,0,0,1,1.16.32l3,1c1.43.47,2.9.88,4.3,1.43a3.45,3.45,0,0,0,2.85.35c1.08-.4,2.09-.71,2.25-2,.13-1,0-2.41-1-2.89s-1.82.22-2.79.52c.42-.13-.41-.13-.6-.16-.51-.07-1-.19-1.53-.3-1.11-.24-2.22-.52-3.33-.79-.37-.09-.73-.19-1.1-.26-.11,0-.65-.16-.47-.09A17.49,17.49,0,0,1,65,50.48c-1.72-1-3.4-2.16-5.17-3a4.67,4.67,0,0,0-2.35-.34c-.86,0-2.22-.25-3,.17l.9.52c-.18-1.33-.39-2.66-.65-4-.12-.63-.11-1.22-.64-1.62-1.58-1.2-4.17-1.38-6.05-1.72a9.47,9.47,0,0,1-2.42-.56A12.09,12.09,0,0,0,44,39c-1.53-.49-3.56-.36-4.33,1.25C39.31,41,40.34,41.55,40.67,40.86Z"/><path class="cls-10" d="M50.91,72.8c-.73-1.16-1.18-3.94-2.89-4.07-.8-.06-1.35.74-1.57,1.2a2.87,2.87,0,0,0,0,1.51c.26,2,.67,4,1.05,6a22.15,22.15,0,0,1,.54,3.45c0,1.82,0,3.65,0,5.47,0,.53,0,1.08,0,1.61a3.87,3.87,0,0,0,0,1.66,1.73,1.73,0,0,0,1.24,1.16c1,.19,2.12-.89,2.85-1.44a2.39,2.39,0,0,0,1.18-2.08c0-1.67-.19-3.35-.29-5A20.11,20.11,0,0,0,52.66,78c-.5-1.7-1-3.46-1.69-5.1-.29-.71-1.45-.4-1.16.32.52,1.29.89,2.66,1.32,4a9.22,9.22,0,0,1,.53,2.52l.3,5.14c.06,1.06.52,2.66-.39,3.42-.43.35-.93.61-1.38.93-.11.08-.28.28-.41.31-.86.24-.61-.74-.55-1.15a9.7,9.7,0,0,0,0-1.32V82a41.05,41.05,0,0,0-1.06-7.37c-.17-.94-.34-1.88-.48-2.83,0-.34-.1-.67-.13-1s.12-.54-.14-.27.19-.27.27-.35.12-.22.26-.2c.32,0,.63.8.76,1,.41.78.66,1.66,1.13,2.41S51.32,73.45,50.91,72.8Z"/><path class="cls-11" d="M4.88,38.57c3.77,3.52,12,13.1,13.52,17.9s11.38,17,14.45,20.3c.77.81,4.17,3.45,4.9,4.88a24.23,24.23,0,0,1,2.12,9.69"/><path class="cls-11" d="M76.28,73.83c0-1.29-4-7.32-4.57-8.58a1.37,1.37,0,0,1,1.6-1.9,14.06,14.06,0,0,0,3.21.54c2.06,0,3.67-3.71,4.26-4.31s-.21-7.81-1-9a.75.75,0,0,0-.15-.16,1.6,1.6,0,0,1-.51-1c0-.64,1.16-1.29,1.59-1.71S84,45.16,84,43.79s-7.55-7.71-10-7.71-4.09,1.43-6.18,1.43S61.57,33,59.92,33c-6.62-.18-9.88-4.52-8.83-7.55.94-2.71-3.73-7.7-3.73-10.08,0-3.77-5.78-8.57-8-8.57"/><path class="cls-12" d="M32.33,23.39c2.3,6,7.68,10,11.75,8.46,2.7-1,4.43-6.37,3.27-10a31.52,31.52,0,0,0-2.18-4.71,20.1,20.1,0,0,1-.65-2c-1.68-5-5.33-6.86-9-5.45C31.44,11.21,30,17.36,32.33,23.39Z"/><path class="cls-3" d="M46.27,20.2a10.7,10.7,0,0,1-1.63,2.59,1.67,1.67,0,0,0-.21,1.86A5.09,5.09,0,0,1,45,27.12a10.22,10.22,0,0,1-1.61,4.75"/><path class="cls-13" d="M43.74.51l43.3,25v50l-43.3,25-43.3-25v-50ZM5.88,72.37,43.74,94.23,81.6,72.37V28.65L43.74,6.79,5.88,28.65Z"/><polygon class="cls-14" points="43.74 0.51 87.04 25.51 87.04 75.51 43.74 100.51 0.44 75.51 0.44 25.51 43.74 0.51"/><path class="cls-4" d="M22.37,25.12c2.94,6.67,11.13,11,16.17,8.82,2.39-1,3.84-2.59,4.18-5.1a29.71,29.71,0,0,0-.33-4.41c0-.22,0-.44,0-.68.09-1.84.72-4.16,0-5.91a17,17,0,0,0-2.22-3.71C36.8,9.93,31.9,8,27.9,9.77A11.51,11.51,0,0,0,22.37,25.12Z"/><path class="cls-5" d="M21.86,25.42a17.06,17.06,0,0,0,11,9.36c4.21,1,9.48-.7,10.36-5.44a14.33,14.33,0,0,0-.19-4.08,34.54,34.54,0,0,1,.25-4.88c.1-2.76-1.5-5.26-3.26-7.27C36.68,9.25,31.19,7,26.47,9.84c-5.42,3.23-7,10-4.61,15.58.3.71,1.33.1,1-.61a11.15,11.15,0,0,1,3.19-13.26c4-3.09,8.94-1.78,12.34,1.57,1.76,1.74,3.7,4.31,3.7,6.88,0,1.14-.22,2.27-.3,3.4a24.83,24.83,0,0,0,.29,4c.41,4.78-4.27,7.25-8.48,6.36a15.82,15.82,0,0,1-10.74-8.9C22.57,24.11,21.54,24.72,21.86,25.42Z"/><polygon class="cls-4" points="40.87 34.25 39.86 31.41 28.45 30.33 29.38 34.04 36.74 36.96 40.87 34.25"/><path class="cls-4" d="M41.44,34.09l-1-2.84a.65.65,0,0,0-.58-.44l-10-.94-1.45-.14a.6.6,0,0,0-.58.76c.3,1.18.56,2.37.89,3.54.22.79,1.59,1,2.26,1.31l4.41,1.75a8.84,8.84,0,0,0,1.11.44c.43.1.73-.2,1.07-.42l3.56-2.34c.64-.42,0-1.46-.61-1l-4.13,2.71.47-.07-7.36-2.92.42.42L29,30.17l-.58.76,10,.94,1.45.14-.58-.44,1,2.84C40.54,35.14,41.7,34.82,41.44,34.09Z"/><g class="cls-15"><path class="cls-16" d="M39.3,14.1a14.92,14.92,0,0,1,2.85,5A5,5,0,0,1,42,21.64a8,8,0,0,0-.2,1.88c0,1.62.36,3.21.32,4.82a7.41,7.41,0,0,1-1.31,3.48.6.6,0,0,0,1,.61,9.43,9.43,0,0,0,1.44-3.59,13,13,0,0,0-.2-3.11A17,17,0,0,1,43,23.36c0-1.69.74-3.16.21-4.87a17.44,17.44,0,0,0-3.1-5.23c-.47-.61-1.31.24-.84.84Z"/></g><path class="cls-4" d="M39.32,14.71l.83-.31a2.18,2.18,0,0,1,2.75,1.11h0a5.32,5.32,0,0,1,.46,2.15h0c0,.91.21,2.09-.38,2.81l-1.65,2.28"/><path class="cls-5" d="M39.48,15.28c.79-.29,1.64-.69,2.42-.1a2.57,2.57,0,0,1,.78,1.61,10.86,10.86,0,0,1,.12,2,2.3,2.3,0,0,1-.35,1.43l-.51.69-1.13,1.57c-.45.63.59,1.23,1,.61l1-1.35a6.43,6.43,0,0,0,1-1.58A4.7,4.7,0,0,0,44,18.38a14.72,14.72,0,0,0-.11-1.76,3.35,3.35,0,0,0-1.95-2.77,3.69,3.69,0,0,0-2.76.28c-.72.26-.41,1.42.32,1.15Z"/><path class="cls-4" d="M38.8,14.24c-.74-1.26-.76-.77-1.57-.77s-1.44,2.6-1.44,4.07a21.09,21.09,0,0,0,2.06,6.84,31.73,31.73,0,0,1,1.47,2.83s-.71,3.72-2.2,3.72a10.33,10.33,0,0,1-4.65,1.26,12.77,12.77,0,0,1-5.31-1.61s-5-4.83-5-9.39S25,10,31.22,10,38.8,14.24,38.8,14.24Z"/><path class="cls-9" d="M39.32,13.94c-.53-.86-.88-1.21-1.88-1.08s-1.39.74-1.73,1.68c-.83,2.36-.42,4.57.31,6.88a17.48,17.48,0,0,0,1.32,3.27c.37.68.76,1.36,1.1,2.07.08.16.17.54.31.64s.09-.38,0-.23a3.44,3.44,0,0,0-.22.88,6.61,6.61,0,0,1-.59,1.49c-.4.7-1,.85-1.67,1.17a9.14,9.14,0,0,1-8.66-.59c-.15-.09.08.1-.14-.12s-.47-.49-.69-.74a21.87,21.87,0,0,1-2.11-2.78A10.12,10.12,0,0,1,23,18.77a11.37,11.37,0,0,1,3.45-6.37,8.36,8.36,0,0,1,9-.86,5.84,5.84,0,0,1,2.76,2.86c.24.73,1.4.42,1.16-.32C38.15,10.32,33.24,9,29.76,9.57c-5.23.85-8.12,6.51-8.2,11.39,0,2.84,1.45,5.48,3.12,7.67a8.42,8.42,0,0,0,3.25,3,10.21,10.21,0,0,0,8.91.11c.17-.08.34-.19.51-.26s-.14.1.16,0a2.29,2.29,0,0,0,1.05-.76A7.11,7.11,0,0,0,39.76,28a2.73,2.73,0,0,0-.48-2.2,31.09,31.09,0,0,1-2.06-4.51,11.35,11.35,0,0,1-.8-4.33,6.4,6.4,0,0,1,.63-2.47c.42-.71.88-.47,1.23.1S39.73,14.6,39.32,13.94Z"/><path class="cls-4" d="M27.13,10.58c-1.48.17-4.6,2.43-4.5,3.56s-.22,4,.92,7.07,5.81,4.92,6.1,6.11,4.43,6.61,4.56,8.42,1.89,1.07,1.89,1.07a42.16,42.16,0,0,0-1.89-6.31,22.7,22.7,0,0,0-3.51-5.34c-1-.91-5.54-3.52-5.79-5.44s-.47-4.78.47-5.54,3.3-1.5,3.21-2.2S29.17,10.36,27.13,10.58Z"/><path class="cls-9" d="M27,10c-1.75.29-4.76,2.1-4.93,4.07-.25,2.79.07,6.54,1.8,8.83A14.54,14.54,0,0,0,27,25.73a6.22,6.22,0,0,1,2.17,2c1.05,2.14,2.52,4,3.67,6.15a7.71,7.71,0,0,1,.75,1.69A3.06,3.06,0,0,0,34.07,37a2,2,0,0,0,2.19.36.62.62,0,0,0,.42-.73,35.93,35.93,0,0,0-1.74-5.95,16.19,16.19,0,0,0-4.24-6.31c-.85-.66-1.76-1.25-2.62-1.9s-2.2-1.6-2.56-2.74a9.57,9.57,0,0,1-.11-4.29c.3-1.31,1.89-1.57,2.89-2.24a2,2,0,0,0,.92-2.08C29.13,10,28.07,9.91,27.13,10c-.76.06-.77,1.26,0,1.2.42,0,.72-.14.88.18A3.22,3.22,0,0,1,28,12c-.24.41-1.23.72-1.65.94a3.2,3.2,0,0,0-2.16,2.65,11.9,11.9,0,0,0,.18,4.49A6.49,6.49,0,0,0,26.75,23c1,.84,2.18,1.53,3.22,2.37a13.62,13.62,0,0,1,2.91,3.93A27.18,27.18,0,0,1,35.52,37l.42-.74c-.27.11-.71.24-1,0s-.34-1.31-.48-1.67a22,22,0,0,0-1.92-3.45C31.89,30,31.12,29,30.51,27.79a5.16,5.16,0,0,0-1.35-1.93c-1.14-.92-2.39-1.68-3.46-2.69a8.25,8.25,0,0,1-2.34-5.43c-.09-.9-.09-1.81-.1-2.71a2.33,2.33,0,0,1,.2-1.41,6.4,6.4,0,0,1,3.83-2.46C28.05,11,27.73,9.88,27,10Z"/><path class="cls-2" d="M80.92,43.53c-1.18-1.81-5.17-5.11-7.16-5.05s-3,1.06-6.61.75-6.67-1.49-8.47-1.49-8.11-1-9.71-.72c-.92.17-4.36-.4-5.42-.4-.79,0-3,.3-3.23.26-.63-.11-1.34,1.06-1.17,1.35s2.45.32,2.69.34a14.06,14.06,0,0,0,3.29.72s-5.81,1-6,2.49-1.23,2.78-.22,3.65,5,2.15,6.67,2.23,4.09-3.79,5.25-3.79.84.67,1.92.67A6.5,6.5,0,0,0,56,43.83c.66-.5,17.6,4,18.68,4.67s5.47-2.42,5.93-3S80.92,43.53,80.92,43.53Z"/><path class="cls-3" d="M45.13,39.29a9.26,9.26,0,0,1,3.61,1.56A4.94,4.94,0,0,1,50.48,44"/><path class="cls-17" d="M80.92,43.53c-1.18-1.81-5.17-5.11-7.16-5.05s-3,1.06-6.61.75-6.67-1.49-8.47-1.49-8.11-1-9.71-.72a49.19,49.19,0,0,1-5.42-.4c-.38,0-3,.3-3.23.26-.63-.11-1.34,1.06-1.17,1.35s2.45.32,2.69.34a14.06,14.06,0,0,0,3.29.72s-5.81,1-6,2.49-1.23,2.78-.22,3.65,5,2.15,6.67,2.23,4.09-3.79,5.25-3.79.84.67,1.92.67A6.5,6.5,0,0,0,56,43.83c.66-.5,17.6,4,18.68,4.67s5.47-2.42,5.93-3S80.92,43.53,80.92,43.53Z"/><polyline class="cls-18" points="43.74 94.23 81.6 72.37 81.6 28.65 43.74 6.79"/><path class="cls-3" d="M49.77,42a9.21,9.21,0,0,1,4.2-.92c2.56,0,17.64,4.6,20,4.6a29.11,29.11,0,0,0,6.58-1.43"/><path class="cls-3" d="M58.87,37.82s6,1.52,7.87,2.49a15.8,15.8,0,0,0,6.71,1.31,11.47,11.47,0,0,0,4.27-1.06"/><path class="cls-3" d="M60.33,38.2s4.19,2.52,4.19,4.29c0,1.06-2,2.13-2,2.13"/><path class="cls-3" d="M70.08,39.34a11.7,11.7,0,0,0,1.93.59c.38,0,4.21,2.82,4.21,4.15S72.49,47,70.64,47"/></g></g></svg>