<?xml version="1.0" encoding="utf-8"?>
<!-- Generator: Adobe Illustrator 25.0.0, SVG Export Plug-In . SVG Version: 6.00 Build 0)  -->
<svg version="1.1" id="Layer_1" xmlns="http://www.w3.org/2000/svg" xmlns:xlink="http://www.w3.org/1999/xlink" x="0px" y="0px"
	 viewBox="0 0 621 705.9" style="enable-background:new 0 0 621 705.9;" xml:space="preserve">
<style type="text/css">
	.st0{fill:#FFFFFF;}
	.st1{opacity:0.5;}
	.st2{fill:#47E6B1;}
	.st3{opacity:0.5;fill:#4D8AF0;enable-background:new    ;}
	.st4{opacity:0.5;fill:#F55F44;enable-background:new    ;}
	.st5{fill:#F55F44;}
	.st6{fill:none;stroke:#F55F44;stroke-miterlimit:10;}
	.st7{fill:none;stroke:#62449B;stroke-width:32;stroke-miterlimit:10;}
	.st8{fill:#3F3D56;}
	.st9{opacity:0.1;enable-background:new    ;}
	.st10{fill:#F386A4;}
	.st11{fill:#F27694;}
	.st12{fill:#B01E41;}
	.st13{font-family:'MyriadPro-Regular';}
	.st14{font-size:32.9154px;}
</style>
<polygon class="st0" points="473.1,445 313,539 151.2,447.9 149.5,262.7 309.6,168.7 471.4,259.9 "/>
<g>
	<g class="st1">
		<rect x="443.7" y="303" class="st2" width="0.5" height="3.1"/>
		<rect x="442.4" y="304.3" class="st2" width="3" height="0.6"/>
	</g>
	<g class="st1">
		<rect x="317.6" y="371" class="st2" width="0.5" height="3.1"/>
		<rect x="316.4" y="372.3" class="st2" width="3" height="0.6"/>
	</g>
	<g class="st1">
		<rect x="201" y="395.1" class="st2" width="0.5" height="3.1"/>
		<rect x="199.7" y="396.4" class="st2" width="3" height="0.6"/>
	</g>
	<g class="st1">
		<rect x="323.8" y="404.8" class="st2" width="0.5" height="3.1"/>
		<rect x="322.6" y="406.1" class="st2" width="3" height="0.6"/>
	</g>
	<path class="st3" d="M363.8,484.9c-0.3-0.1-0.5-0.5-0.4-0.8c0,0,0,0,0-0.1l0,0c0-0.2-0.1-0.3-0.3-0.4c-0.1,0-0.2,0-0.3,0.1l0,0
		c0,0,0,0,0,0.1c-0.1,0.3-0.5,0.5-0.8,0.4h0l0,0c-0.2,0-0.3,0.1-0.3,0.3c0,0.1,0,0.2,0.1,0.3l0,0c0,0,0,0,0.1,0
		c0.3,0.1,0.5,0.5,0.4,0.8c0,0,0,0,0,0.1l0,0c0,0.2,0.1,0.3,0.3,0.4c0.1,0,0.2,0,0.3-0.1l0,0c0,0,0,0,0-0.1c0.1-0.3,0.5-0.5,0.8-0.4
		h0.1l0,0c0.2,0,0.3-0.1,0.3-0.3C364,485.1,364,485,363.8,484.9L363.8,484.9L363.8,484.9z"/>
	<path class="st3" d="M447.2,373.2c-0.3-0.1-0.5-0.5-0.4-0.8c0,0,0,0,0-0.1l0,0c0-0.2-0.1-0.3-0.3-0.4c-0.1,0-0.2,0-0.3,0.1l0,0
		c0,0,0,0,0,0.1c-0.1,0.3-0.5,0.5-0.8,0.4h-0.1l0,0c-0.2,0-0.3,0.1-0.3,0.3c0,0.1,0,0.2,0.1,0.3l0,0c0,0,0,0,0.1,0
		c0.3,0.1,0.5,0.5,0.4,0.8c0,0,0,0,0,0.1l0,0c0,0.2,0.1,0.3,0.3,0.4c0.1,0,0.2,0,0.3-0.1l0,0c0,0,0,0,0-0.1c0.1-0.3,0.5-0.5,0.8-0.4
		h0.1l0,0c0.2,0,0.3-0.1,0.3-0.3C447.4,373.5,447.3,373.4,447.2,373.2L447.2,373.2C447.2,373.3,447.2,373.3,447.2,373.2z"/>
	<path class="st3" d="M219,315.4c-0.3-0.1-0.5-0.5-0.4-0.8c0,0,0,0,0-0.1l0,0c0-0.2-0.1-0.3-0.3-0.4c-0.1,0-0.2,0-0.3,0.1l0,0
		c0,0,0,0,0,0.1c-0.1,0.3-0.5,0.5-0.8,0.4h-0.1l0,0c-0.2,0-0.3,0.1-0.3,0.3c0,0.1,0,0.2,0.1,0.3l0,0c0,0,0,0,0.1,0
		c0.3,0.1,0.5,0.5,0.4,0.8c0,0,0,0,0,0.1l0,0c0,0.2,0.1,0.3,0.3,0.4c0.1,0,0.2,0,0.3-0.1l0,0c0,0,0,0,0-0.1c0.1-0.3,0.5-0.5,0.8-0.4
		h0.1l0,0c0.2,0,0.3-0.1,0.3-0.3C219.2,315.7,219.2,315.5,219,315.4L219,315.4C219.1,315.5,219.1,315.5,219,315.4z"/>
	<ellipse class="st4" cx="455.6" cy="270.7" rx="1.1" ry="1.1"/>
	<ellipse class="st3" cx="205.7" cy="355.3" rx="1.1" ry="1.1"/>
	<ellipse class="st4" cx="412.4" cy="327.6" rx="1.1" ry="1.1"/>
	<g class="st1">
		<path class="st5" d="M273.6,216.5c-1.6-1.2-3.8-1-5.1,0.5c-1.5,1.6-1.4,4.2,0.2,5.8l4.9,5c0.3,0.3,0.8,0.3,1.2,0l4.9-5
			c1.5-1.6,1.6-4.1,0.1-5.8c-1.4-1.4-3.5-1.6-5.1-0.5C274.3,216.8,273.9,216.8,273.6,216.5z"/>
		<path class="st6" d="M274.1,227.6c-0.1,0.2-0.1,0.5,0,0.7c0.1,0.1,0.1,0.2,0.2,0.3c0.1,0.3-0.1,0.7-0.3,0.9
			c-0.1,0.2-0.3,0.4-0.2,0.6c0,0.1,0.1,0.1,0.2,0.2c0.5,0.5,0.5,1.3,0,1.8c-0.1,0.1-0.3,0.3-0.5,0.3"/>
	</g>
	<g class="st1">
		<path class="st5" d="M432.4,246.7c-1.6-1.2-3.8-1-5.1,0.5c-1.5,1.6-1.4,4.2,0.2,5.8l4.9,5c0.3,0.3,0.8,0.3,1.2,0l4.9-5
			c1.5-1.6,1.6-4.1,0.1-5.8c-1.4-1.4-3.5-1.6-5.1-0.5C433.1,246.9,432.7,246.9,432.4,246.7z"/>
		<path class="st6" d="M432.9,257.7c-0.1,0.2-0.1,0.5,0,0.7c0.1,0.1,0.1,0.2,0.2,0.3c0.1,0.3-0.1,0.7-0.3,0.9
			c-0.1,0.2-0.3,0.4-0.2,0.6c0,0.1,0.1,0.1,0.2,0.2c0.5,0.5,0.5,1.3,0,1.8c-0.1,0.1-0.3,0.3-0.5,0.3"/>
	</g>
	<g class="st1">
		<path class="st5" d="M180,419.6c-1.6-1.2-3.8-1-5.1,0.5c-1.5,1.6-1.4,4.2,0.2,5.8l4.9,5c0.3,0.3,0.8,0.3,1.2,0l4.9-5
			c1.5-1.6,1.6-4.1,0.1-5.8c-1.4-1.4-3.5-1.6-5.1-0.5C180.7,419.8,180.3,419.8,180,419.6z"/>
		<path class="st6" d="M180.5,430.6c-0.1,0.2-0.1,0.5,0,0.7c0.1,0.1,0.1,0.2,0.2,0.3c0.1,0.3-0.1,0.7-0.3,0.9
			c-0.1,0.2-0.3,0.4-0.2,0.6c0,0.1,0.1,0.1,0.2,0.2c0.5,0.5,0.5,1.3,0,1.8c-0.1,0.1-0.3,0.3-0.5,0.3"/>
	</g>
	<g class="st1">
		<path class="st5" d="M173.5,228.8c-1.6-1.2-3.8-1-5.1,0.5c-1.5,1.6-1.4,4.2,0.2,5.8l4.9,5c0.3,0.3,0.8,0.3,1.2,0l4.9-5
			c1.5-1.6,1.6-4.1,0.1-5.8c-1.4-1.4-3.5-1.6-5.1-0.5C174.2,229,173.8,229,173.5,228.8z"/>
		<path class="st6" d="M174,239.9c-0.1,0.2-0.1,0.5,0,0.7c0.1,0.1,0.1,0.2,0.2,0.3c0.1,0.3-0.1,0.7-0.3,0.9
			c-0.1,0.2-0.3,0.4-0.2,0.6c0,0.1,0.1,0.1,0.2,0.2c0.5,0.5,0.5,1.3,0,1.8c-0.1,0.1-0.3,0.3-0.5,0.3"/>
	</g>
	<g class="st1">
		<path class="st5" d="M299.9,379.4c-1.6-1.2-3.8-1-5.1,0.5c-1.5,1.6-1.4,4.2,0.2,5.8l4.9,5c0.3,0.3,0.8,0.3,1.2,0l4.9-5
			c1.5-1.6,1.6-4.1,0.1-5.8c-1.4-1.4-3.5-1.6-5.1-0.5C300.6,379.6,300.2,379.6,299.9,379.4z"/>
		<path class="st6" d="M300.4,390.5c-0.1,0.2-0.1,0.5,0,0.7c0.1,0.1,0.1,0.2,0.2,0.3c0.1,0.3-0.1,0.7-0.3,0.9
			c-0.1,0.2-0.3,0.4-0.2,0.6c0,0.1,0.1,0.1,0.2,0.2c0.5,0.5,0.5,1.3,0,1.8c-0.1,0.1-0.3,0.3-0.5,0.3"/>
	</g>
	<g class="st1">
		<path class="st5" d="M414.6,404.1c-1.6-1.2-3.8-1-5.1,0.5c-1.5,1.6-1.4,4.2,0.2,5.8l4.9,5c0.3,0.3,0.8,0.3,1.2,0l4.9-5
			c1.5-1.6,1.6-4.1,0.1-5.8c-1.4-1.4-3.5-1.6-5.1-0.5C415.2,404.3,414.8,404.3,414.6,404.1z"/>
		<path class="st6" d="M415.1,415.1c-0.1,0.2-0.1,0.5,0,0.7c0.1,0.1,0.1,0.2,0.2,0.3c0.1,0.3-0.1,0.7-0.3,0.9
			c-0.1,0.2-0.3,0.4-0.2,0.6c0,0.1,0.1,0.1,0.2,0.2c0.5,0.5,0.5,1.3,0,1.8c-0.1,0.1-0.3,0.3-0.5,0.3"/>
	</g>
	<g class="st1">
		<path class="st5" d="M212,280.1c-1.6-1.2-3.8-1-5.1,0.5c-1.5,1.6-1.4,4.2,0.2,5.8l4.9,5c0.3,0.3,0.8,0.3,1.2,0l4.9-5
			c1.5-1.6,1.6-4.1,0.1-5.8c-1.4-1.4-3.5-1.6-5.1-0.5C212.7,280.3,212.3,280.3,212,280.1z"/>
		<path class="st6" d="M212.6,291.2c-0.1,0.2-0.1,0.5,0,0.7c0.1,0.1,0.1,0.2,0.2,0.3c0.1,0.3-0.1,0.7-0.3,0.9
			c-0.1,0.2-0.3,0.4-0.2,0.6c0,0.1,0.1,0.1,0.2,0.2c0.5,0.5,0.5,1.3,0,1.8c-0.1,0.1-0.3,0.3-0.5,0.3"/>
	</g>
	<g class="st1">
		<rect x="303.4" y="419.1" class="st2" width="1.1" height="6.3"/>
		<rect x="300.9" y="421.7" class="st2" width="6.1" height="1.1"/>
	</g>
	<g class="st1">
		<rect x="447.8" y="391.2" class="st2" width="1.1" height="6.3"/>
		<rect x="445.3" y="393.8" class="st2" width="6.1" height="1.1"/>
	</g>
	<g class="st1">
		<rect x="228.2" y="218.7" class="st2" width="1.1" height="6.3"/>
		<rect x="225.7" y="221.3" class="st2" width="6.1" height="1.1"/>
	</g>
	<g class="st1">
		<rect x="419.7" y="286.4" class="st2" width="1.1" height="6.3"/>
		<rect x="417.2" y="289" class="st2" width="6.1" height="1.1"/>
	</g>
	<g class="st1">
		<rect x="198.7" y="329.9" class="st2" width="1.1" height="6.3"/>
		<rect x="196.1" y="332.5" class="st2" width="6.1" height="1.1"/>
	</g>
	<g class="st1">
		<rect x="196.1" y="442.5" class="st2" width="1.1" height="6.3"/>
		<rect x="193.6" y="445.2" class="st2" width="6.1" height="1.1"/>
	</g>
	<path class="st3" d="M330.8,237.5c-0.6-0.3-0.9-1-0.7-1.7c0,0,0-0.1,0-0.2l0,0c0-0.4-0.3-0.7-0.6-0.7c-0.2,0-0.4,0.1-0.6,0.3l0,0
		l-0.1,0.1c-0.3,0.6-1,0.9-1.6,0.7h-0.1l0,0c-0.4,0-0.7,0.3-0.7,0.6c0,0.2,0.1,0.5,0.3,0.6l0,0l0.1,0.1c0.6,0.3,0.9,1,0.7,1.7
		c0,0,0,0.1,0,0.2l0,0c0,0.4,0.3,0.7,0.6,0.7c0.2,0,0.4-0.1,0.6-0.3l0,0l0.1-0.1c0.3-0.6,1-0.9,1.6-0.7h0.1l0,0
		c0.4,0,0.7-0.3,0.7-0.6c0-0.2-0.1-0.5-0.3-0.6l0,0C330.9,237.6,330.9,237.6,330.8,237.5z"/>
	<path class="st3" d="M439.6,324.9c-0.6-0.3-0.9-1-0.7-1.7c0,0,0-0.1,0-0.2l0,0c0-0.4-0.3-0.7-0.6-0.7c-0.2,0-0.4,0.1-0.6,0.3l0,0
		l-0.1,0.1c-0.3,0.6-1,0.9-1.6,0.7h-0.1l0,0c-0.4,0-0.7,0.3-0.7,0.6c0,0.2,0.1,0.5,0.3,0.6l0,0l0.1,0.1c0.6,0.3,0.9,1,0.7,1.7
		c0,0,0,0.1,0,0.2l0,0c0,0.4,0.3,0.7,0.6,0.7c0.2,0,0.4-0.1,0.6-0.3l0,0l0.1-0.1c0.3-0.6,1-0.9,1.6-0.7h0.1l0,0
		c0.4,0,0.7-0.3,0.7-0.6c0-0.2-0.1-0.5-0.3-0.6l0,0L439.6,324.9z"/>
	<g class="st1">
		<rect x="171.5" y="256.1" class="st2" width="0.5" height="3.1"/>
		<rect x="170.2" y="257.4" class="st2" width="3" height="0.6"/>
	</g>
	<g class="st1">
		<rect x="194.2" y="304.4" class="st2" width="0.5" height="3.1"/>
		<rect x="193" y="305.7" class="st2" width="3" height="0.6"/>
	</g>
	<path class="st3" d="M202.5,255.8c-0.3-0.1-0.5-0.5-0.4-0.8c0,0,0,0,0-0.1l0,0c0-0.2-0.1-0.3-0.3-0.4c-0.1,0-0.2,0-0.3,0.1l0,0
		c0,0,0,0,0,0.1c-0.1,0.3-0.5,0.5-0.8,0.4h-0.1l0,0c-0.2,0-0.3,0.1-0.3,0.3c0,0.1,0,0.2,0.1,0.3l0,0c0,0,0,0,0.1,0
		c0.3,0.1,0.5,0.5,0.4,0.8c0,0,0,0,0,0.1l0,0c0,0.2,0.1,0.3,0.3,0.4c0.1,0,0.2,0,0.3-0.1l0,0c0,0,0,0,0-0.1c0.1-0.3,0.5-0.5,0.8-0.4
		h0.1l0,0c0.2,0,0.3-0.1,0.3-0.3C202.7,256,202.6,255.9,202.5,255.8L202.5,255.8L202.5,255.8z"/>
	<path class="st3" d="M175,326.4c-0.3-0.1-0.5-0.5-0.4-0.8c0,0,0,0,0-0.1l0,0c0-0.2-0.1-0.3-0.3-0.4c-0.1,0-0.2,0-0.3,0.1l0,0
		c0,0,0,0,0,0.1c-0.1,0.3-0.5,0.5-0.8,0.4h-0.1l0,0c-0.2,0-0.3,0.1-0.3,0.3c0,0.1,0,0.2,0.1,0.3l0,0c0,0,0,0,0.1,0
		c0.3,0.1,0.5,0.5,0.4,0.8c0,0,0,0,0,0.1l0,0c0,0.2,0.1,0.3,0.3,0.4c0.1,0,0.2,0,0.3-0.1l0,0c0,0,0,0,0-0.1c0.1-0.3,0.5-0.5,0.8-0.4
		h0.1l0,0c0.2,0,0.3-0.1,0.3-0.3C175.2,326.6,175.1,326.5,175,326.4L175,326.4L175,326.4z"/>
	<g class="st1">
		<rect x="175.6" y="344.4" class="st2" width="1.1" height="6.3"/>
		<rect x="173.1" y="347" class="st2" width="6.1" height="1.1"/>
	</g>
	<g class="st1">
		<rect x="296.6" y="245.5" class="st2" width="1.1" height="6.3"/>
		<rect x="294.1" y="248.1" class="st2" width="6.1" height="1.1"/>
	</g>
	<path class="st3" d="M167.4,278.1c-0.6-0.3-0.9-1-0.7-1.7c0,0,0-0.1,0-0.2l0,0c0-0.4-0.3-0.7-0.6-0.7c-0.2,0-0.4,0.1-0.6,0.3l0,0
		l-0.1,0.1c-0.3,0.6-1,0.9-1.6,0.7h-0.1l0,0c-0.4,0-0.7,0.3-0.7,0.6c0,0.2,0.1,0.5,0.3,0.6l0,0l0.1,0.1c0.6,0.3,0.9,1,0.7,1.7
		c0,0,0,0.1,0,0.2l0,0c0,0.4,0.3,0.7,0.6,0.7c0.2,0,0.4-0.1,0.6-0.3l0,0l0.1-0.1c0.3-0.6,1-0.9,1.6-0.7h0.1l0,0
		c0.4,0,0.7-0.3,0.7-0.6c0-0.2-0.1-0.5-0.3-0.6l0,0C167.5,278.1,167.4,278.1,167.4,278.1z"/>
	<path class="st3" d="M394.9,470.3c-0.6-0.3-0.9-1-0.7-1.7c0,0,0-0.1,0-0.2l0,0c0-0.4-0.3-0.7-0.6-0.7c-0.2,0-0.4,0.1-0.6,0.3l0,0
		l-0.1,0.1c-0.3,0.6-1,0.9-1.6,0.7h-0.1l0,0c-0.4,0-0.7,0.3-0.7,0.6c0,0.2,0.1,0.5,0.3,0.6l0,0l0.1,0.1c0.6,0.3,0.9,1,0.7,1.7
		c0,0,0,0.1,0,0.2l0,0c0,0.4,0.3,0.7,0.6,0.7c0.2,0,0.4-0.1,0.6-0.3l0,0l0.1-0.1c0.3-0.6,1-0.9,1.6-0.7h0.1l0,0
		c0.4,0,0.7-0.3,0.7-0.6c0-0.2-0.1-0.5-0.3-0.6l0,0C395,470.3,395,470.3,394.9,470.3z"/>
	<path class="st3" d="M198.3,374.4c-0.6-0.3-0.9-1-0.7-1.7c0,0,0-0.1,0-0.2l0,0c0-0.4-0.3-0.7-0.6-0.7c-0.2,0-0.4,0.1-0.6,0.3l0,0
		l-0.1,0.1c-0.3,0.6-1,0.9-1.6,0.7h-0.1l0,0c-0.4,0-0.7,0.3-0.7,0.6c0,0.2,0.1,0.5,0.3,0.6l0,0l0.1,0.1c0.6,0.3,0.9,1,0.7,1.7
		c0,0,0,0.1,0,0.2l0,0c0,0.4,0.3,0.7,0.6,0.7c0.2,0,0.4-0.1,0.6-0.3l0,0l0.1-0.1c0.3-0.6,1-0.9,1.6-0.7h0.1l0,0
		c0.4,0,0.7-0.3,0.7-0.6c0-0.2-0.1-0.5-0.3-0.6l0,0C198.4,374.4,198.4,374.4,198.3,374.4z"/>
	<g class="st1">
		<rect x="440.4" y="479.1" class="st2" width="0.5" height="3.1"/>
		<rect x="439.2" y="480.4" class="st2" width="3" height="0.6"/>
	</g>
	<ellipse class="st3" cx="445.2" cy="439.3" rx="1.1" ry="1.1"/>
	<g class="st1">
		<rect x="438.1" y="413.9" class="st2" width="1.1" height="6.3"/>
		<rect x="435.6" y="416.5" class="st2" width="6.1" height="1.1"/>
	</g>
	<path class="st3" d="M414.4,410.4c-0.3-0.1-0.5-0.5-0.4-0.8c0,0,0,0,0-0.1l0,0c0-0.2-0.1-0.3-0.3-0.4c-0.1,0-0.2,0-0.3,0.1l0,0
		c0,0,0,0,0,0.1c-0.1,0.3-0.5,0.5-0.8,0.4h-0.1l0,0c-0.2,0-0.3,0.1-0.3,0.3c0,0.1,0,0.2,0.1,0.3l0,0c0,0,0,0,0.1,0
		c0.3,0.1,0.5,0.5,0.4,0.8c0,0,0,0,0,0.1l0,0c0,0.2,0.1,0.3,0.3,0.4c0.1,0,0.2,0,0.3-0.1l0,0c0,0,0,0,0-0.1c0.1-0.3,0.5-0.5,0.8-0.4
		h0.1l0,0c0.2,0,0.3-0.1,0.3-0.3C414.6,410.6,414.6,410.5,414.4,410.4L414.4,410.4C414.5,410.5,414.5,410.4,414.4,410.4z"/>
	<g class="st1">
		<rect x="415.1" y="428.4" class="st2" width="1.1" height="6.3"/>
		<rect x="412.5" y="431" class="st2" width="6.1" height="1.1"/>
	</g>
	<path class="st3" d="M437.8,458.4c-0.6-0.3-0.9-1-0.7-1.7c0,0,0-0.1,0-0.2l0,0c0-0.4-0.3-0.7-0.6-0.7c-0.2,0-0.4,0.1-0.6,0.3l0,0
		l-0.1,0.1c-0.3,0.6-1,0.9-1.6,0.7h-0.1l0,0c-0.4,0-0.7,0.3-0.7,0.6c0,0.2,0.1,0.5,0.3,0.6l0,0l0.1,0.1c0.6,0.3,0.9,1,0.7,1.7
		c0,0,0,0.1,0,0.2l0,0c0,0.4,0.3,0.7,0.6,0.7c0.2,0,0.4-0.1,0.6-0.3l0,0l0.1-0.1c0.3-0.6,1-0.9,1.6-0.7h0.1l0,0
		c0.4,0,0.7-0.3,0.7-0.6c0-0.2-0.1-0.5-0.3-0.6l0,0C437.9,458.4,437.8,458.4,437.8,458.4z"/>
	<path class="st3" d="M315,471c-0.6-0.3-0.9-1-0.7-1.7c0,0,0-0.1,0-0.2l0,0c0-0.4-0.3-0.7-0.6-0.7c-0.2,0-0.4,0.1-0.6,0.3l0,0
		l-0.1,0.1c-0.3,0.6-1,0.9-1.6,0.7h-0.1l0,0c-0.4,0-0.7,0.3-0.7,0.6c0,0.2,0.1,0.5,0.3,0.6l0,0l0.1,0.1c0.6,0.3,0.9,1,0.7,1.7
		c0,0,0,0.1,0,0.2l0,0c0,0.4,0.3,0.7,0.6,0.7c0.2,0,0.4-0.1,0.6-0.3l0,0l0.1-0.1c0.3-0.6,1-0.9,1.6-0.7h0.1l0,0
		c0.4,0,0.7-0.3,0.7-0.6c0-0.2-0.1-0.5-0.3-0.6l0,0C315.1,471.1,315,471.1,315,471z"/>
	<g class="st1">
		<rect x="260.2" y="339.4" class="st2" width="0.5" height="3.1"/>
		<rect x="258.9" y="340.7" class="st2" width="3" height="0.6"/>
	</g>
	<g class="st1">
		<path class="st5" d="M415.6,474.7c-1.6-1.2-3.8-1-5.1,0.5c-1.5,1.6-1.4,4.2,0.2,5.8l4.9,5c0.3,0.3,0.8,0.3,1.2,0l4.9-5
			c1.5-1.6,1.6-4.1,0.1-5.8c-1.4-1.4-3.5-1.6-5.1-0.5C416.3,474.9,415.9,474.9,415.6,474.7z"/>
		<path class="st6" d="M416.2,485.8c-0.1,0.2-0.1,0.5,0,0.7c0.1,0.1,0.1,0.2,0.2,0.3c0.1,0.3-0.1,0.7-0.3,0.9
			c-0.1,0.2-0.3,0.4-0.2,0.6c0,0.1,0.1,0.1,0.2,0.2c0.5,0.5,0.5,1.3,0,1.8c-0.1,0.1-0.3,0.3-0.5,0.3"/>
	</g>
	<g class="st1">
		<path class="st5" d="M356.6,266.1c-1.6-1.2-3.8-1-5.1,0.5c-1.5,1.6-1.4,4.2,0.2,5.8l4.9,5c0.3,0.3,0.8,0.3,1.2,0l4.9-5
			c1.5-1.6,1.6-4.1,0.1-5.8c-1.4-1.4-3.5-1.6-5.1-0.5C357.3,266.3,356.9,266.3,356.6,266.1z"/>
		<path class="st6" d="M357.1,277.1c-0.1,0.2-0.1,0.5,0,0.7c0.1,0.1,0.1,0.2,0.2,0.3c0.1,0.3-0.1,0.7-0.3,0.9
			c-0.1,0.2-0.3,0.4-0.2,0.6c0,0.1,0.1,0.1,0.2,0.2c0.5,0.5,0.5,1.3,0,1.8c-0.1,0.1-0.3,0.3-0.5,0.3"/>
	</g>
	<g class="st1">
		<rect x="246" y="387.5" class="st2" width="1.1" height="6.3"/>
		<rect x="243.4" y="390.1" class="st2" width="6.1" height="1.1"/>
	</g>
	<g class="st1">
		<rect x="336.9" y="300.4" class="st2" width="1.1" height="6.3"/>
		<rect x="334.4" y="303" class="st2" width="6.1" height="1.1"/>
	</g>
	<path class="st3" d="M284,379.4c-0.6-0.3-0.9-1-0.7-1.7c0,0,0-0.1,0-0.2l0,0c0-0.4-0.3-0.7-0.6-0.7c-0.2,0-0.4,0.1-0.6,0.3l0,0
		l-0.1,0.1c-0.3,0.6-1,0.9-1.6,0.7h-0.1l0,0c-0.4,0-0.7,0.3-0.7,0.6c0,0.2,0.1,0.5,0.3,0.6l0,0l0.1,0.1c0.6,0.3,0.9,1,0.7,1.7
		c0,0,0,0.1,0,0.2l0,0c0,0.4,0.3,0.7,0.6,0.7c0.2,0,0.4-0.1,0.6-0.3l0,0l0.1-0.1c0.3-0.6,1-0.9,1.6-0.7h0.1l0,0
		c0.4,0,0.7-0.3,0.7-0.6c0-0.2-0.1-0.5-0.3-0.6l0,0L284,379.4z"/>
	<g class="st1">
		<rect x="329.5" y="388.3" class="st2" width="0.5" height="3.1"/>
		<rect x="328.2" y="389.6" class="st2" width="3" height="0.6"/>
	</g>
	<ellipse class="st3" cx="334.2" cy="348.4" rx="1.1" ry="1.1"/>
	<g class="st1">
		<rect x="327.2" y="323" class="st2" width="1.1" height="6.3"/>
		<rect x="324.6" y="325.6" class="st2" width="6.1" height="1.1"/>
	</g>
	<path class="st3" d="M303.5,319.6c-0.3-0.1-0.5-0.5-0.4-0.8c0,0,0,0,0-0.1l0,0c0-0.2-0.1-0.3-0.3-0.4c-0.1,0-0.2,0-0.3,0.1l0,0
		c0,0,0,0,0,0.1c-0.1,0.3-0.5,0.5-0.8,0.4h-0.1l0,0c-0.2,0-0.3,0.1-0.3,0.3c0,0.1,0,0.2,0.1,0.3l0,0c0,0,0,0,0.1,0
		c0.3,0.1,0.5,0.5,0.4,0.8c0,0,0,0,0,0.1l0,0c0,0.2,0.1,0.3,0.3,0.4c0.1,0,0.2,0,0.3-0.1l0,0c0,0,0,0,0-0.1c0.1-0.3,0.5-0.5,0.8-0.4
		h0.1l0,0c0.2,0,0.3-0.1,0.3-0.3C303.7,319.8,303.6,319.7,303.5,319.6L303.5,319.6L303.5,319.6z"/>
	<g class="st1">
		<rect x="304.1" y="337.5" class="st2" width="1.1" height="6.3"/>
		<rect x="301.6" y="340.2" class="st2" width="6.1" height="1.1"/>
	</g>
	<path class="st3" d="M326.8,367.5c-0.6-0.3-0.9-1-0.7-1.7c0,0,0-0.1,0-0.2l0,0c0-0.4-0.3-0.7-0.6-0.7c-0.2,0-0.4,0.1-0.6,0.3l0,0
		l-0.1,0.1c-0.3,0.6-1,0.9-1.6,0.7h-0.1l0,0c-0.4,0-0.7,0.3-0.7,0.6c0,0.2,0.1,0.5,0.3,0.6l0,0l0.1,0.1c0.6,0.3,0.9,1,0.7,1.7
		c0,0,0,0.1,0,0.2l0,0c0,0.4,0.3,0.7,0.6,0.7c0.2,0,0.4-0.1,0.6-0.3l0,0l0.1-0.1c0.3-0.6,1-0.9,1.6-0.7h0.1l0,0
		c0.4,0,0.7-0.3,0.7-0.6c0-0.2-0.1-0.5-0.3-0.6l0,0C326.9,367.6,326.9,367.5,326.8,367.5z"/>
	<g class="st1">
		<rect x="398.1" y="335.7" class="st2" width="1.1" height="6.3"/>
		<rect x="395.6" y="338.3" class="st2" width="6.1" height="1.1"/>
	</g>
	<path class="st3" d="M345.2,414.8c-0.6-0.3-0.9-1-0.7-1.7c0,0,0-0.1,0-0.2l0,0c0-0.4-0.3-0.7-0.6-0.7c-0.2,0-0.4,0.1-0.6,0.3l0,0
		l-0.1,0.1c-0.3,0.6-1,0.9-1.6,0.7h-0.1l0,0c-0.4,0-0.7,0.3-0.7,0.6c0,0.2,0.1,0.5,0.3,0.6l0,0l0.1,0.1c0.6,0.3,0.9,1,0.7,1.7
		c0,0,0,0.1,0,0.2l0,0c0,0.4,0.3,0.7,0.6,0.7c0.2,0,0.4-0.1,0.6-0.3l0,0l0.1-0.1c0.3-0.6,1-0.9,1.6-0.7h0.1l0,0
		c0.4,0,0.7-0.3,0.7-0.6c0-0.2-0.1-0.5-0.3-0.6l0,0C345.3,414.8,345.3,414.8,345.2,414.8z"/>
	<g class="st1">
		<rect x="390.7" y="423.6" class="st2" width="0.5" height="3.1"/>
		<rect x="389.5" y="424.9" class="st2" width="3" height="0.6"/>
	</g>
	<ellipse class="st3" cx="395.5" cy="383.8" rx="1.1" ry="1.1"/>
	<g class="st1">
		<rect x="388.4" y="358.4" class="st2" width="1.1" height="6.3"/>
		<rect x="385.9" y="361" class="st2" width="6.1" height="1.1"/>
	</g>
	<path class="st3" d="M364.7,354.9c-0.3-0.1-0.5-0.5-0.4-0.8c0,0,0,0,0-0.1l0,0c0-0.2-0.1-0.3-0.3-0.4c-0.1,0-0.2,0-0.3,0.1l0,0
		c0,0,0,0,0,0.1c-0.1,0.3-0.5,0.5-0.8,0.4h-0.1l0,0c-0.2,0-0.3,0.1-0.3,0.3c0,0.1,0,0.2,0.1,0.3l0,0c0,0,0,0,0.1,0
		c0.3,0.1,0.5,0.5,0.4,0.8c0,0,0,0,0,0.1l0,0c0,0.2,0.1,0.3,0.3,0.4c0.1,0,0.2,0,0.3-0.1l0,0c0,0,0,0,0-0.1c0.1-0.3,0.5-0.5,0.8-0.4
		h0.1l0,0c0.2,0,0.3-0.1,0.3-0.3C364.9,355.1,364.9,355,364.7,354.9L364.7,354.9C364.8,355,364.8,354.9,364.7,354.9z"/>
	<g class="st1">
		<rect x="365.4" y="372.9" class="st2" width="1.1" height="6.3"/>
		<rect x="362.8" y="375.5" class="st2" width="6.1" height="1.1"/>
	</g>
	<path class="st3" d="M388.1,402.9c-0.6-0.3-0.9-1-0.7-1.7c0,0,0-0.1,0-0.2l0,0c0-0.4-0.3-0.7-0.6-0.7c-0.2,0-0.4,0.1-0.6,0.3l0,0
		l-0.1,0.1c-0.3,0.6-1,0.9-1.6,0.7h-0.1l0,0c-0.4,0-0.7,0.3-0.7,0.6c0,0.2,0.1,0.5,0.3,0.6l0,0l0.1,0.1c0.6,0.3,0.9,1,0.7,1.7
		c0,0,0,0.1,0,0.2l0,0c0,0.4,0.3,0.7,0.6,0.7c0.2,0,0.4-0.1,0.6-0.3l0,0l0.1-0.1c0.3-0.6,1-0.9,1.6-0.7h0.1l0,0
		c0.4,0,0.7-0.3,0.7-0.6c0-0.2-0.1-0.5-0.3-0.6l0,0C388.2,402.9,388.1,402.9,388.1,402.9z"/>
	<g class="st1">
		<rect x="402.9" y="233.9" class="st2" width="1.1" height="6.3"/>
		<rect x="400.4" y="236.5" class="st2" width="6.1" height="1.1"/>
	</g>
	<path class="st3" d="M350,312.9c-0.6-0.3-0.9-1-0.7-1.7c0,0,0-0.1,0-0.2l0,0c0-0.4-0.3-0.7-0.6-0.7c-0.2,0-0.4,0.1-0.6,0.3l0,0
		l-0.1,0.1c-0.3,0.6-1,0.9-1.6,0.7h-0.1l0,0c-0.4,0-0.7,0.3-0.7,0.6c0,0.2,0.1,0.5,0.3,0.6l0,0l0.1,0.1c0.6,0.3,0.9,1,0.7,1.7
		c0,0,0,0.1,0,0.2l0,0c0,0.4,0.3,0.7,0.6,0.7c0.2,0,0.4-0.1,0.6-0.3l0,0l0.1-0.1c0.3-0.6,1-0.9,1.6-0.7h0.1l0,0
		c0.4,0,0.7-0.3,0.7-0.6c0-0.2-0.1-0.5-0.3-0.6l0,0C350.1,313,350.1,312.9,350,312.9z"/>
	<g class="st1">
		<rect x="395.5" y="321.8" class="st2" width="0.5" height="3.1"/>
		<rect x="394.3" y="323" class="st2" width="3" height="0.6"/>
	</g>
	<ellipse class="st3" cx="400.3" cy="281.9" rx="1.1" ry="1.1"/>
	<g class="st1">
		<rect x="393.2" y="256.5" class="st2" width="1.1" height="6.3"/>
		<rect x="390.7" y="259.1" class="st2" width="6.1" height="1.1"/>
	</g>
	<path class="st3" d="M369.5,253c-0.3-0.1-0.5-0.5-0.4-0.8c0,0,0,0,0-0.1l0,0c0-0.2-0.1-0.3-0.3-0.4c-0.1,0-0.2,0-0.3,0.1l0,0
		c0,0,0,0,0,0.1c-0.1,0.3-0.5,0.5-0.8,0.4h-0.1l0,0c-0.2,0-0.3,0.1-0.3,0.3c0,0.1,0,0.2,0.1,0.3l0,0c0,0,0,0,0.1,0
		c0.3,0.1,0.5,0.5,0.4,0.8c0,0,0,0,0,0.1l0,0c0,0.2,0.1,0.3,0.3,0.4c0.1,0,0.2,0,0.3-0.1l0,0c0,0,0,0,0-0.1c0.1-0.3,0.5-0.5,0.8-0.4
		h0.1l0,0c0.2,0,0.3-0.1,0.3-0.3C369.7,253.3,369.7,253.2,369.5,253L369.5,253C369.6,253.1,369.6,253.1,369.5,253z"/>
	<g class="st1">
		<rect x="370.2" y="271" class="st2" width="1.1" height="6.3"/>
		<rect x="367.6" y="273.6" class="st2" width="6.1" height="1.1"/>
	</g>
	<path class="st3" d="M392.9,301c-0.6-0.3-0.9-1-0.7-1.7c0,0,0-0.1,0-0.2l0,0c0-0.4-0.3-0.7-0.6-0.7c-0.2,0-0.4,0.1-0.6,0.3l0,0
		l-0.1,0.1c-0.3,0.6-1,0.9-1.6,0.7h-0.1l0,0c-0.4,0-0.7,0.3-0.7,0.6c0,0.2,0.1,0.5,0.3,0.6l0,0l0.1,0.1c0.6,0.3,0.9,1,0.7,1.7
		c0,0,0,0.1,0,0.2l0,0c0,0.4,0.3,0.7,0.6,0.7c0.2,0,0.4-0.1,0.6-0.3l0,0l0.1-0.1c0.3-0.6,1-0.9,1.6-0.7h0.1l0,0
		c0.4,0,0.7-0.3,0.7-0.6c0-0.2-0.1-0.5-0.3-0.6l0,0L392.9,301z"/>
	<g class="st1">
		<rect x="280.6" y="246.2" class="st2" width="1.1" height="6.3"/>
		<rect x="278.1" y="248.8" class="st2" width="6.1" height="1.1"/>
	</g>
	<path class="st3" d="M227.8,325.2c-0.6-0.3-0.9-1-0.7-1.7c0,0,0-0.1,0-0.2l0,0c0-0.4-0.3-0.7-0.6-0.7c-0.2,0-0.4,0.1-0.6,0.3l0,0
		l-0.1,0.1c-0.3,0.6-1,0.9-1.6,0.7h-0.1l0,0c-0.4,0-0.7,0.3-0.7,0.6c0,0.2,0.1,0.5,0.3,0.6l0,0l0.1,0.1c0.6,0.3,0.9,1,0.7,1.7
		c0,0,0,0.1,0,0.2l0,0c0,0.4,0.3,0.7,0.6,0.7c0.2,0,0.4-0.1,0.6-0.3l0,0l0.1-0.1c0.3-0.6,1-0.9,1.6-0.7h0.1l0,0
		c0.4,0,0.7-0.3,0.7-0.6c0-0.2-0.1-0.5-0.3-0.6l0,0C227.8,325.2,227.8,325.2,227.8,325.2z"/>
	<g class="st1">
		<rect x="273.2" y="334.1" class="st2" width="0.5" height="3.1"/>
		<rect x="272" y="335.3" class="st2" width="3" height="0.6"/>
	</g>
	<ellipse class="st3" cx="278" cy="294.2" rx="1.1" ry="1.1"/>
	<g class="st1">
		<rect x="270.9" y="268.8" class="st2" width="1.1" height="6.3"/>
		<rect x="268.4" y="271.4" class="st2" width="6.1" height="1.1"/>
	</g>
	<path class="st3" d="M247.3,265.3c-0.3-0.1-0.5-0.5-0.4-0.8c0,0,0,0,0-0.1l0,0c0-0.2-0.1-0.3-0.3-0.4c-0.1,0-0.2,0-0.3,0.1l0,0
		c0,0,0,0,0,0.1c-0.1,0.3-0.5,0.5-0.8,0.4h-0.1l0,0c-0.2,0-0.3,0.1-0.3,0.3c0,0.1,0,0.2,0.1,0.3l0,0c0,0,0,0,0.1,0
		c0.3,0.1,0.5,0.5,0.4,0.8c0,0,0,0,0,0.1l0,0c0,0.2,0.1,0.3,0.3,0.4c0.1,0,0.2,0,0.3-0.1l0,0c0,0,0,0,0-0.1c0.1-0.3,0.5-0.5,0.8-0.4
		h0.1l0,0c0.2,0,0.3-0.1,0.3-0.3C247.5,265.6,247.4,265.4,247.3,265.3L247.3,265.3C247.3,265.4,247.3,265.4,247.3,265.3z"/>
	<g class="st1">
		<rect x="247.9" y="283.3" class="st2" width="1.1" height="6.3"/>
		<rect x="245.4" y="285.9" class="st2" width="6.1" height="1.1"/>
	</g>
	<path class="st3" d="M270.6,313.3c-0.6-0.3-0.9-1-0.7-1.7c0,0,0-0.1,0-0.2l0,0c0-0.4-0.3-0.7-0.6-0.7c-0.2,0-0.4,0.1-0.6,0.3l0,0
		l-0.1,0.1c-0.3,0.6-1,0.9-1.6,0.7h-0.1l0,0c-0.4,0-0.7,0.3-0.7,0.6c0,0.2,0.1,0.5,0.3,0.6l0,0l0.1,0.1c0.6,0.3,0.9,1,0.7,1.7
		c0,0,0,0.1,0,0.2l0,0c0,0.4,0.3,0.7,0.6,0.7c0.2,0,0.4-0.1,0.6-0.3l0,0l0.1-0.1c0.3-0.6,1-0.9,1.6-0.7h0.1l0,0
		c0.4,0,0.7-0.3,0.7-0.6c0-0.2-0.1-0.5-0.3-0.6l0,0L270.6,313.3z"/>
	<g class="st1">
		<rect x="267.9" y="403.4" class="st2" width="1.1" height="6.3"/>
		<rect x="265.3" y="406" class="st2" width="6.1" height="1.1"/>
	</g>
	<path class="st3" d="M215,482.4c-0.6-0.3-0.9-1-0.7-1.7c0,0,0-0.1,0-0.2l0,0c0-0.4-0.3-0.7-0.6-0.7c-0.2,0-0.4,0.1-0.6,0.3l0,0
		l-0.1,0.1c-0.3,0.6-1,0.9-1.6,0.7h-0.1l0,0c-0.4,0-0.7,0.3-0.7,0.6c0,0.2,0.1,0.5,0.3,0.6l0,0l0.1,0.1c0.6,0.3,0.9,1,0.7,1.7
		c0,0,0,0.1,0,0.2l0,0c0,0.4,0.3,0.7,0.6,0.7c0.2,0,0.4-0.1,0.6-0.3l0,0l0.1-0.1c0.3-0.6,1-0.9,1.6-0.7h0.1l0,0
		c0.4,0,0.7-0.3,0.7-0.6c0-0.2-0.1-0.5-0.3-0.6l0,0L215,482.4z"/>
	<g class="st1">
		<rect x="260.5" y="491.3" class="st2" width="0.5" height="3.1"/>
		<rect x="259.2" y="492.5" class="st2" width="3" height="0.6"/>
	</g>
	<ellipse class="st3" cx="265.2" cy="451.4" rx="1.1" ry="1.1"/>
	<g class="st1">
		<rect x="258.1" y="426" class="st2" width="1.1" height="6.3"/>
		<rect x="255.6" y="428.6" class="st2" width="6.1" height="1.1"/>
	</g>
	<path class="st3" d="M234.5,422.5c-0.3-0.1-0.5-0.5-0.4-0.8c0,0,0,0,0-0.1l0,0c0-0.2-0.1-0.3-0.3-0.4c-0.1,0-0.2,0-0.3,0.1l0,0
		c0,0,0,0,0,0.1c-0.1,0.3-0.5,0.5-0.8,0.4h-0.1l0,0c-0.2,0-0.3,0.1-0.3,0.3c0,0.1,0,0.2,0.1,0.3l0,0c0,0,0,0,0.1,0
		c0.3,0.1,0.5,0.5,0.4,0.8c0,0,0,0,0,0.1l0,0c0,0.2,0.1,0.3,0.3,0.4c0.1,0,0.2,0,0.3-0.1l0,0c0,0,0,0,0-0.1c0.1-0.3,0.5-0.5,0.8-0.4
		h0.1l0,0c0.2,0,0.3-0.1,0.3-0.3C234.7,422.8,234.6,422.7,234.5,422.5L234.5,422.5C234.5,422.6,234.5,422.6,234.5,422.5z"/>
	<g class="st1">
		<rect x="235.1" y="440.5" class="st2" width="1.1" height="6.3"/>
		<rect x="232.6" y="443.1" class="st2" width="6.1" height="1.1"/>
	</g>
	<path class="st3" d="M257.8,470.5c-0.6-0.3-0.9-1-0.7-1.7c0,0,0-0.1,0-0.2l0,0c0-0.4-0.3-0.7-0.6-0.7c-0.2,0-0.4,0.1-0.6,0.3l0,0
		l-0.1,0.1c-0.3,0.6-1,0.9-1.6,0.7h-0.1l0,0c-0.4,0-0.7,0.3-0.7,0.6c0,0.2,0.1,0.5,0.3,0.6l0,0l0.1,0.1c0.6,0.3,0.9,1,0.7,1.7
		c0,0,0,0.1,0,0.2l0,0c0,0.4,0.3,0.7,0.6,0.7c0.2,0,0.4-0.1,0.6-0.3l0,0l0.1-0.1c0.3-0.6,1-0.9,1.6-0.7h0.1l0,0
		c0.4,0,0.7-0.3,0.7-0.6c0-0.2-0.1-0.5-0.3-0.6l0,0C257.9,470.6,257.9,470.5,257.8,470.5z"/>
</g>
<polygon class="st7" points="476.1,446.6 312.2,543.2 146.6,449.5 144.9,259.3 308.8,162.7 474.4,256.4 "/>
<ellipse class="st8" cx="352" cy="263.1" rx="4.3" ry="4.5"/>
<ellipse class="st8" cx="352" cy="298.3" rx="4.3" ry="4.5"/>
<ellipse class="st8" cx="395.4" cy="307.2" rx="4.3" ry="4.5"/>
<path class="st8" d="M388.2,326.7c-1.8-3.1-8.1-3-8.1-3c-5.8,8.8-19.6-0.5-19.6-0.5c-10.3,4.7-16.5-10.3-16.5-10.3
	c-13.8-2.1-11.7-17-11.7-17c-6.9-1.4-4.9-14.2-4.9-14.2s3.8-3.2,1.9-5.6c-1.2-1.5-1.3-5.8-1.2-8.7c-9-2.8-18.3-4.2-27.7-4.2
	c-52.4,0-94.9,43.7-94.9,97.5s42.5,97.5,94.9,97.5s94.9-43.7,94.9-97.5c0-11.7-2-23.3-6-34.3C388.9,326.9,388.5,327.1,388.2,326.7z"
	/>
<path class="st9" d="M394.8,326.4c-1.8-3.1-8.1-3-8.1-3c-5.8,8.8-19.6-0.5-19.6-0.5c-10.3,4.7-16.5-10.3-16.5-10.3
	c-13.8-2.1-11.7-17-11.7-17c-6.9-1.4-4.9-14.2-4.9-14.2s3.8-3.2,1.9-5.6c-1.2-1.5-1.3-5.8-1.2-8.7c-9-2.8-18.3-4.2-27.7-4.2
	c-52.4,0-94.9,43.7-94.9,97.5s42.5,97.5,94.9,97.5s94.9-43.7,94.9-97.5c0-11.7-2-23.3-6-34.3C395.4,326.6,395.1,326.8,394.8,326.4z"
	/>
<path class="st8" d="M383.9,328.1c-1.7-2.9-7.7-2.8-7.7-2.8c-5.5,8.4-18.6-0.5-18.6-0.5c-9.8,4.5-15.7-9.8-15.7-9.8
	c-13.1-2-11.1-16.2-11.1-16.2c-6.5-1.3-4.7-13.5-4.7-13.5s3.6-3.1,1.8-5.3c-1.1-1.4-1.2-5.5-1.1-8.3c-8.5-2.7-17.4-4-26.3-4
	c-49.9,0-90.3,41.5-90.3,92.8s40.4,92.8,90.3,92.8s90.3-41.5,90.3-92.8c0-11.1-1.9-22.2-5.7-32.6
	C384.4,328.3,384.1,328.4,383.9,328.1z"/>
<polyline class="st9" points="244.7,374.3 246.7,377.7 250.7,384.5 252,389.3 249.3,393.4 252.7,401.6 254,406.3 251.3,409.1 
	256.6,413.2 "/>
<polyline class="st9" points="342.3,344.3 342.3,349.7 338.9,358.6 337,363.4 340.3,369.5 341.6,373.6 346.9,375.7 348.9,379.1 
	348.9,387.2 "/>
<path class="st9" d="M376.1,349.7l-5.3,3.4c0,0-2.7,1.4-2.7,2v5.5"/>
<polyline class="st9" points="352.2,330.6 353.6,337.5 352.2,342.2 "/>
<polyline class="st9" points="357.5,392 353.6,398.2 348.9,402.3 348.9,405 351.6,408.4 351.6,412.5 349.6,416.6 "/>
<polyline class="st9" points="319.7,276.1 313.1,276.1 307.8,280.8 299.1,285.6 295.1,289 295.1,290.4 286.5,295.2 283.9,299.9 "/>
<path class="st9" d="M248,287.7l-6,12.3l-2,4.8l-4.6,6.1c0,0-3.3,6.1-4,6.8s-5.3,2-5.3,2l6.6,6.8"/>
<polyline class="st9" points="221.5,334.7 220.1,343.6 221.5,349.1 221.5,358.6 217.5,376.3 221.5,381.1 226.1,387.2 "/>
<polyline class="st9" points="231.4,338.8 235.4,340.9 238.1,349.7 243.4,348.4 246,353.1 "/>
<polyline class="st9" points="304.4,427.5 315.1,426.1 319.7,421.4 326.3,421.4 "/>
<polyline class="st9" points="240,413.2 244,417.9 250.7,420 255.3,421.4 256.6,428.9 "/>
<polyline class="st9" points="318.4,390 323,386.6 325,381.1 329,380.4 331,373.6 "/>
<ellipse class="st8" cx="215.8" cy="287" rx="7.1" ry="7.3"/>
<ellipse class="st9" cx="215.8" cy="287" rx="7.1" ry="7.3"/>
<ellipse class="st8" cx="215.8" cy="287" rx="6.4" ry="6.6"/>
<path class="st9" d="M215.5,283.3c0,0-1.6-1.1-3.2,0c-0.5,0.3-0.8,0.9-0.9,1.4c-0.2,1,0,1.9,0.6,2.7l3.5,4.6c0.2,0.3,0.7,0.5,1,0.4
	l0,0c0.3-0.1,0.5-0.3,0.7-0.5l2.4-4.4c0.5-0.8,0.6-1.7,0.5-2.7s-0.8-1.9-1.7-2.2C218.4,282.6,217,282,215.5,283.3z"/>
<path class="st9" d="M215.6,285.2c-0.4-0.3-1-0.3-1.5,0c-0.2,0.2-0.4,0.4-0.4,0.7c-0.1,0.4,0,0.9,0.3,1.2c0,0,1.9,2.3,2.1,2.3l0,0
	c0.1,0,1.4-2.2,1.4-2.2c0.2-0.4,0.3-0.8,0.2-1.2c0-0.5-0.3-0.9-0.8-1C216.4,284.8,215.9,284.9,215.6,285.2z"/>
<ellipse class="st8" cx="209.5" cy="291" rx="7.1" ry="7.3"/>
<ellipse class="st9" cx="209.5" cy="291" rx="7.1" ry="7.3"/>
<ellipse class="st8" cx="209.5" cy="291" rx="6.4" ry="6.6"/>
<path class="st9" d="M209.2,287.3c0,0-1.6-1.1-3.2,0c-0.5,0.3-0.8,0.9-0.9,1.4c-0.2,1,0,1.9,0.6,2.7l3.5,4.6c0.2,0.3,0.7,0.5,1,0.4
	l0,0c0.3-0.1,0.5-0.3,0.7-0.5l2.4-4.4c0.5-0.8,0.6-1.7,0.5-2.7s-0.8-1.9-1.7-2.2C212.1,286.6,210.7,286,209.2,287.3z"/>
<path class="st8" d="M203.5,272.8c-0.2-0.3-0.7-0.3-0.7-0.3c-0.5,0.8-1.8,0-1.8,0c-0.9,0.4-1.5-0.9-1.5-0.9
	c-1.3-0.2-1.1-1.5-1.1-1.5c-0.6-0.1-0.4-1.3-0.4-1.3s0.3-0.3,0.2-0.5s-0.1-0.5-0.1-0.8c-4.5-1.4-9.4,1.2-10.7,5.9
	c-1.4,4.7,1.2,9.6,5.7,11s9.4-1.2,10.7-5.9C204.3,276.6,204.3,274.6,203.5,272.8C203.6,272.8,203.5,272.8,203.5,272.8z"/>
<polyline class="st9" points="190.4,277.4 190.6,277.7 190.9,278.3 191.1,278.8 190.8,279.2 191.1,280 191.2,280.4 191,280.7 
	191.5,281.1 "/>
<path class="st9" d="M202.9,275l-0.5,0.3c0,0-0.3,0.1-0.3,0.2v0.5"/>
<polyline class="st9" points="200.6,273.2 200.7,273.8 200.6,274.3 "/>
<polyline class="st9" points="201.1,279.1 200.7,279.6 200.3,280 200.3,280.3 200.6,280.6 200.6,281 200.4,281.4 "/>
<polyline class="st9" points="197.5,268 196.9,268 196.4,268.4 195.6,268.9 195.2,269.2 195.2,269.4 194.4,269.8 194.1,270.3 "/>
<path class="st9" d="M190.7,269.1l-0.6,1.2l-0.2,0.5l-0.4,0.6c0,0-0.3,0.6-0.4,0.7c-0.2,0.1-0.3,0.1-0.5,0.2l0.6,0.7"/>
<polyline class="st9" points="188.1,273.6 188,274.4 188.1,275 188.1,275.9 187.8,277.6 188.1,278 188.6,278.6 "/>
<polyline class="st9" points="189.1,274 189.5,274.2 189.7,275 190.2,274.9 190.5,275.3 "/>
<polygon class="st10" points="338.8,365.2 299.1,421.1 299.1,388.7 "/>
<polyline class="st9" points="196.1,282.4 197.1,282.3 197.5,281.9 198.2,281.9 "/>
<polyline class="st9" points="189.9,281.1 190.3,281.5 190.9,281.7 191.4,281.9 191.5,282.6 "/>
<polygon class="st11" points="299.2,291.6 259.2,357.5 299.1,381.1 "/>
<polygon class="st12" points="259.4,357.6 299.1,339.5 299.1,381.1 "/>
<polygon class="st10" points="299,291.6 339,357.5 299.1,381.1 "/>
<polygon class="st12" points="338.9,357.6 299.1,339.5 299.2,381.1 "/>
<polygon class="st10" points="259.4,365.2 299.1,421.1 299.1,388.7 "/>
<text transform="matrix(0.6 -0.3536 0.5077 0.8615 373.7528 520.0998)" class="st13 st14">GITCOIN</text>
</svg>
