<?xml version="1.0" encoding="utf-8"?>
<!-- Generator: Adobe Illustrator 25.0.0, SVG Export Plug-In . SVG Version: 6.00 Build 0)  -->
<svg version="1.1" id="Layer_1" xmlns="http://www.w3.org/2000/svg" xmlns:xlink="http://www.w3.org/1999/xlink" x="0px" y="0px"
	 viewBox="0 0 1000 1000" style="enable-background:new 0 0 1000 1000;" xml:space="preserve">
<style type="text/css">
	.st0{fill:#E889B9;stroke:#000000;stroke-miterlimit:10;}
	.st1{fill:#E92254;}
	.st2{fill:#1B0C3D;}
	.st3{fill:#62C08C;}
	.st4{fill:#FFFFFF;}
	.st5{fill:#EEF3ED;}
	.st6{fill:#FAF8FA;}
	.st7{fill:#48B778;}
	.st8{fill:#7CCDD0;}
	.st9{fill:#EE4588;stroke:#000000;stroke-miterlimit:10;}
	.st10{font-family:'AgencyFB-Reg';}
	.st11{font-size:42.1913px;}
</style>
<polygon class="st0" points="499.9,244.2 274.7,371.4 274.8,625.7 500.1,752.8 725.3,625.6 725.2,371.3 "/>
<g>
	<path class="st1" d="M600.9,372.6L617,396c1.8,2.6,1.2,6.3-1.5,8.1l-41,28.2c-2.6,1.8-6.3,1.2-8.1-1.5l-16.1-23.4
		c-1.8-2.6-1.2-6.3,1.5-8.1l41-28.2C595.5,369.3,599.1,370,600.9,372.6z"/>
	
		<rect x="432.7" y="495.4" transform="matrix(1 -3.037921e-03 3.037921e-03 1 -1.528 1.3604)" class="st2" width="28.8" height="16.4"/>
	
		<rect x="553.1" y="495.1" transform="matrix(1 -3.037921e-03 3.037921e-03 1 -1.5264 1.7264)" class="st2" width="28.8" height="16.4"/>
	<path class="st3" d="M578.3,500.6l-31-23.8"/>
	<path class="st2" d="M552.4,482.2l31,23.8c0.2,0.1,0.2,0.1,0.3,0.3c0.9,0.7,1.2,2,0.5,2.8l0,0c-0.9,0.6-2.5,0.3-3.4-0.5l-31-23.8
		l0,0c-1-0.6-1.5-1.9-0.8-2.6c0.5-0.7,2.1-0.8,3-0.1C552.1,482,552.3,482.1,552.4,482.2L552.4,482.2z"/>
	<path class="st2" d="M560,471.8c0.9-0.7,2.5-0.5,3.4,0.4s1.1,1.9,0.4,2.5l-21.8,20.3c-0.9,0.7-2.5,0.5-3.4-0.4
		c-0.9-0.9-1.1-1.9-0.4-2.5L560,471.8z"/>
	<path class="st3" d="M436.7,510.1l31.8-23.7"/>
	<path class="st2" d="M461.7,490l-31.8,23.7c-0.1,0.2-0.1,0.2-0.4,0.2c-1,0.7-2.3,0.6-2.9-0.3l0,0c-0.3-1,0.3-2.5,1.4-3.2l31.8-23.7
		l0,0c0.9-0.8,2.3-0.9,2.8,0c0.6,0.7,0.3,2.3-0.7,3C461.9,489.7,461.8,489.8,461.7,490L461.7,490z"/>
	<path class="st2" d="M547,394.7L547,394.7c-1.1-0.2-1.9-1.1-1.8-2.2c0.1-0.9,0.8-1.6,1.7-1.8l4.2,0c2.6-0.2,4.5-2.4,4.3-4.8
		l-0.1-17.5c0.1-2.5-1.9-4.6-4.4-4.9l-1.8,0c-1.1-0.2-1.8-1.2-1.7-2.3c0.2-0.8,0.8-1.5,1.6-1.7l1.8,0c4.4,0,8,3.9,8,8.8l0.1,17.5
		c0,4.9-3.6,8.9-8,8.9L547,394.7L547,394.7z"/>
	<path class="st2" d="M459.3,386.3l-0.1-17.5c0-4.9,3.6-8.8,8-8.9l1.8,0c0.9,0.1,1.6,0.8,1.7,1.8c0.1,1.1-0.6,2-1.6,2.2l-1.8,0
		c-2.5,0.2-4.4,2.4-4.3,4.8l0.1,17.5c-0.1,2.5,1.9,4.7,4.4,4.9l4.2,0c0.9,0.1,1.6,0.8,1.7,1.8c0.1,1.1-0.6,2-1.6,2.2l-4.2,0
		C462.9,395.2,459.3,391.1,459.3,386.3z"/>
	<path class="st4" d="M489.9,373.6c-0.1-1.7,1.2-3.1,2.9-3.2l0,0c1.8-0.2,3.3,1.1,3.6,2.9c0.2,1.8-1.1,3.3-2.9,3.6
		c-1.8,0.2-3.3-1.1-3.6-2.9C489.9,373.8,489.9,373.7,489.9,373.6"/>
	<path class="st2" d="M462.9,523.1L462.9,523.1c-0.1,2.7,2,4.9,4.7,5.1l0,0c2.8,0.3,5.3-1.9,5.6-4.7c0.3-2.8-1.9-5.3-4.7-5.6
		s-5.3,1.9-5.6,4.7C462.8,522.8,462.8,523,462.9,523.1"/>
	<path class="st5" d="M464.1,523.8L464.1,523.8c0,1.7,1.2,3.1,2.9,3.2l0,0c1.8,0.1,3.4-1.1,3.5-2.9c0.1-1.8-1.1-3.4-2.9-3.5
		c-1.8-0.1-3.4,1.1-3.5,2.9C464.1,523.6,464.1,523.7,464.1,523.8"/>
	<path class="st5" d="M547.4,523.3L547.4,523.3c0,1.7,1.2,3.1,2.9,3.2l0,0c1.8,0.1,3.4-1.1,3.5-2.9c0.1-1.8-1.1-3.4-2.9-3.5
		s-3.4,1.1-3.5,2.9C547.4,523.1,547.4,523.2,547.4,523.3"/>
	
		<rect x="549.2" y="651.2" transform="matrix(1 -3.037921e-03 3.037921e-03 1 -1.9838 1.6911)" class="st2" width="13" height="5.3"/>
	<path class="st2" d="M549.2,658.4c-1-0.1-1.8-0.9-1.8-1.9l0-5.3l0,0c0-1,0.7-1.9,1.7-2l13,0c1,0.1,1.8,0.9,1.8,1.9l0,5.3l0,0
		c0,1-0.7,1.9-1.7,2l0,0L549.2,658.4L549.2,658.4z M560.4,653.1l-9.4,0l0,1.3l9.4,0L560.4,653.1z"/>
	
		<rect x="529.4" y="651.3" transform="matrix(1 -3.037921e-03 3.037921e-03 1 -1.9841 1.631)" class="st2" width="13" height="5.3"/>
	<path class="st2" d="M529.4,658.5c-1-0.1-1.8-0.9-1.8-1.9l0,0l0-5.3l0,0c0-1,0.7-1.9,1.8-2l13,0c1,0.1,1.8,0.9,1.8,1.9l0,5.3
		c0,1-0.7,1.9-1.7,2L529.4,658.5z M540.6,653.2l-9.4,0l0,1.3l9.4,0L540.6,653.2z"/>
	
		<rect x="452.7" y="651.7" transform="matrix(1 -3.037921e-03 3.037921e-03 1 -1.9856 1.398)" class="st2" width="13" height="5.3"/>
	<path class="st2" d="M450.9,657l0-5.3l0,0c0-1,0.7-1.9,1.8-2l13,0c1,0.1,1.8,0.9,1.8,1.9l0,5.3c0,1-0.7,1.9-1.8,2l-13,0
		C451.7,658.9,450.9,658,450.9,657z M464,653.6l-9.4,0l0,1.3l9.4,0L464,653.6z"/>
	
		<rect x="472.6" y="651.6" transform="matrix(1 -3.037921e-03 3.037921e-03 1 -1.9853 1.4584)" class="st2" width="13" height="5.3"/>
	<path class="st2" d="M470.7,657l0-5.3l0,0c0-1,0.7-1.9,1.7-2.1c0,0,0,0,0.1,0l13.1,0c1,0.1,1.8,0.9,1.8,1.9l0,5.3l0,0
		c0,1-0.7,1.9-1.7,2l-13,0C471.6,658.8,470.7,658,470.7,657z M483.8,653.6l-9.4,0l0,1.3l9.4,0L483.8,653.6z"/>
	<path class="st2" d="M544.4,523L544.4,523c-0.1,2.7,2,5,4.7,5.1l0,0c2.8,0.3,5.3-1.8,5.6-4.6c0.3-2.8-1.8-5.3-4.6-5.6
		s-5.3,1.8-5.6,4.6C544.5,522.6,544.4,522.8,544.4,523"/>
	<path class="st4" d="M543.5,587.9l-0.1-41.9l0,0l0-0.6c0.1-4.6,3.6-8.2,7.8-8.2s7.4,4.1,7.3,8.8l0.2,50.3l-7.6,0.1
		C546.9,596.2,543.5,592.6,543.5,587.9z"/>
	<path class="st2" d="M541.7,587.9l-0.1-41.9c0-0.2,0-0.5,0-0.7c0.2-5.7,4.5-10.3,9.7-10.1c5.2,0.2,9.3,5,9.1,10.7l0.2,50.3
		c0,1-0.7,1.9-1.8,2l-7.6,0.1C546,598.3,541.7,593.7,541.7,587.9z M556.8,546c0-3.2-2.4-5.8-5.6-6.1c-3.4,0-6,2.8-6,6.1
		c0,0,0,0,0,0.1l0.1,41.9c-0.2,3.4,2.4,6.2,5.8,6.4l5.8,0L556.8,546z"/>
	<path class="st2" d="M532.7,601.6l-0.2-56.1c0-1,0.6-1.8,1.6-2c1,0,1.8,0.6,2,1.6c0,0.1,0,0.2,0,0.3l0.2,56.2c0,1-0.6,1.8-1.6,2
		c-1,0-1.8-0.6-2-1.6C532.7,601.9,532.7,601.8,532.7,601.6L532.7,601.6z"/>
	<path class="st4" d="M539.2,628.8c-2.9-0.3-5.1-2.9-4.9-5.8c0-2.9,2.3-5.4,5.2-5.4c0,0,0,0,0.1,0l14-0.1c3.1,0.4,5.3,3.3,4.8,6.4
		c-0.3,2.5-2.4,4.5-4.8,4.9L539.2,628.8L539.2,628.8z"/>
	<path class="st2" d="M539.2,630.8c-3.8-0.2-6.7-3.7-6.7-7.9c0.2-4.2,3.3-7.5,7.2-7.3l14-0.1c3.8,0.4,6.6,3.5,6.6,7.3
		c0.1,4.2-2.7,7.8-6.5,7.9L539.2,630.8z M539.7,619.6c-2,0.2-3.4,2-3.3,4c0.2,1.7,1.5,3.2,3.3,3.3l14-0.1c2-0.2,3.4-2,3.3-4
		c-0.2-1.7-1.5-3.2-3.3-3.3L539.7,619.6z"/>
	<path class="st2" d="M528,670.5L528,670.5c-4.8,0.1-8.7-4.3-8.6-9.5s3.8-9.5,8.6-9.6l35.1-0.1c4.7-0.1,8.6,4.2,8.6,9.5
		c0,5.3-3.8,9.5-8.6,9.6L528,670.5z M528,655.4c-2.9,0.2-5.1,2.7-5,5.6c-0.1,1.4,0.5,2.8,1.4,3.9c0.9,1.1,2.2,1.6,3.6,1.6l35.1-0.1
		c2.7-0.3,4.8-2.6,4.7-5.3c0.2-2.9-1.9-5.5-4.8-5.8L528,655.4z"/>
	
		<rect x="540.3" y="628.9" transform="matrix(1 -3.037921e-03 3.037921e-03 1 -1.9453 1.6648)" class="st4" width="13.5" height="24.5"/>
	<path class="st2" d="M540.3,655.3c-1-0.1-1.8-0.9-1.8-1.9l0,0l0-24.5l0,0c0-1,0.7-1.9,1.7-2l13.5-0.1c1,0.1,1.8,0.9,1.8,1.9l0,24.5
		l0,0c0,1-0.7,1.9-1.7,2L540.3,655.3L540.3,655.3z M552,630.8l-9.9,0l0.1,20.5l9.9,0L552,630.8z"/>
	<path class="st2" d="M532.6,609.6c0-1,0.7-1.9,1.8-2l24.3-0.1c1.1,0.2,1.8,1.1,1.8,2.2c-0.1,0.9-0.8,1.6-1.7,1.8l-24.3,0.1
		C533.4,611.6,532.7,610.7,532.6,609.6z"/>
	<path class="st2" d="M543.5,577.7l15.2,0"/>
	
		<rect x="543.4" y="575.7" transform="matrix(1 -3.037921e-03 3.037921e-03 1 -1.7523 1.6766)" class="st2" width="15.2" height="4"/>
	<path class="st2" d="M543.4,555.7l15.2,0"/>
	
		<rect x="543.4" y="553.7" transform="matrix(1 -3.037921e-03 3.037921e-03 1 -1.6856 1.6764)" class="st2" width="15.2" height="4"/>
	
		<ellipse transform="matrix(1 -3.037921e-03 3.037921e-03 1 -1.8291 1.6687)" class="st4" cx="548.4" cy="602.9" rx="5.7" ry="6.3"/>
	<path class="st2" d="M540.8,602.9L540.8,602.9c-0.1-4.6,3.3-8.3,7.5-8.4c4.1,0,7.5,3.7,7.5,8.4c0.1,4.6-3.3,8.3-7.5,8.4
		C544.1,611.3,540.9,607.5,540.8,602.9z M544.4,602.8L544.4,602.8c0.3,2.2,2.2,3.7,4.3,3.5c2.2-0.3,3.7-2.2,3.5-4.3
		c-0.3-2-1.9-3.5-3.9-3.5C546.1,598.7,544.4,600.6,544.4,602.8C544.4,602.9,544.4,602.9,544.4,602.8L544.4,602.8z"/>
	<path class="st2" d="M547,619.6c-1-0.1-1.8-0.9-1.8-1.9l-0.1-7.9l0,0c0-1,0.6-1.8,1.6-2c1,0,1.8,0.6,2,1.6c0,0.1,0,0.2,0,0.3
		l0.1,7.9l0,0C548.9,618.6,548,619.5,547,619.6L547,619.6z"/>
	<path class="st2" d="M536.4,540.5c-0.7-0.8-0.7-2,0-2.8l6.7-7.5c0.3-0.3,0.8-0.5,1.3-0.5l9.3,0c1.1,0.2,1.9,1.1,1.8,2.2
		c-0.1,0.9-0.8,1.6-1.7,1.8l-8.5,0l-6.3,7c-0.3,0.4-0.8,0.6-1.3,0.5C537.2,541.1,536.7,540.9,536.4,540.5z"/>
	<path class="st4" d="M472.2,588.4l-0.1-41.9c0.1-0.6,0.1-1.3,0-1.9c-0.5-4.7-4.3-8-8.5-7.4c-4.2,0.5-7.2,4.7-6.7,9.4l0.2,50.3
		l7.6-0.1C468.8,596.8,472.2,593,472.2,588.4z"/>
	<path class="st2" d="M455.2,596.8l-0.1-51c0.2-5.8,4.5-10.3,9.7-10.1s9.3,5,9.1,10.8l0.1,41.9c0,5.8-4.1,10.4-9.4,10.4l-7.6,0.1
		C455.9,598.7,455.1,597.8,455.2,596.8z M464.5,540L464.5,540c-3.4,0.2-6,3.1-5.8,6.5l0.1,48.3l5.8,0c3.4-0.2,6-3.1,5.8-6.5
		l-0.1-41.9C470.4,543,467.8,540.1,464.5,540z"/>
	<path class="st2" d="M481.2,604.1c-1-0.1-1.8-0.9-1.8-1.9l-0.2-56.1l0,0c0-1,0.6-1.8,1.6-2c1,0,1.8,0.6,2,1.6c0,0.1,0,0.2,0,0.3
		l0.2,56.2C483,603.1,482.2,603.9,481.2,604.1L481.2,604.1z"/>
	<path class="st4" d="M481,623.9c0.3-2.9-1.9-5.5-4.9-5.8l-14.1,0.1c-2.8,0.3-4.8,2.6-4.8,5.4c-0.2,2.9,1.9,5.5,4.9,5.8l14.1-0.1
		C479,629,481,626.7,481,623.9z"/>
	<path class="st2" d="M462.1,631.3c-3.8-0.4-6.6-3.5-6.6-7.3c-0.1-4.2,2.7-7.8,6.5-7.9l14.1-0.1c3.8,0.4,6.6,3.5,6.6,7.3
		c0.1,4.2-2.7,7.8-6.5,7.9L462.1,631.3z M462.2,620c-2,0.2-3.4,2-3.3,4c0.2,1.7,1.5,3.2,3.3,3.3l14.1-0.1c2-0.2,3.4-2,3.3-4
		c-0.2-1.7-1.5-3.2-3.3-3.3L462.2,620z"/>
	<path class="st2" d="M452.5,670.9c-4.7-0.1-8.5-4.6-8.2-9.8c0.2-5.2,4.1-9.4,8.9-9.2l35-0.1c4.5,0.1,8.1,4.1,8.2,9.1
		c0.2,5.3-3.5,9.7-8.2,9.9L452.5,670.9z M453.1,655.8c-2.7,0.3-4.8,2.6-4.7,5.3c-0.2,2.9,1.9,5.4,4.8,5.8l35.1-0.1
		c3.1-0.5,5.2-3.3,4.7-6.4c-0.4-2.5-2.4-4.4-4.8-4.7L453.1,655.8z"/>
	
		<rect x="462.2" y="629.3" transform="matrix(1 -3.037921e-03 3.037921e-03 1 -1.9468 1.4275)" class="st4" width="13.5" height="24.5"/>
	<path class="st2" d="M460.4,653.8l0-24.5l0,0c0-1,0.7-1.9,1.7-2l0,0l13.5-0.1c1,0.1,1.8,0.9,1.8,1.9l0,24.5c0,1-0.7,1.9-1.8,2
		l-13.5,0.1C461.2,655.8,460.3,654.9,460.4,653.8z M473.8,631.2l-9.9,0l0.1,20.5l9.9,0L473.8,631.2z"/>
	<path class="st2" d="M455.2,610.1c0-1,0.7-1.9,1.7-2l24.2-0.1c1.1,0.2,1.9,1.1,1.8,2.2c-0.1,0.9-0.8,1.6-1.7,1.8l-24.2,0.1
		C456,612,455.2,611.2,455.2,610.1z"/>
	<path class="st2" d="M472,578.1l-15.2,0"/>
	
		<rect x="456.9" y="576.1" transform="matrix(1 -3.037921e-03 3.037921e-03 1 -1.7541 1.4138)" class="st2" width="15.2" height="4"/>
	<path class="st2" d="M472,556.2l-15.2,0"/>
	
		<rect x="456.9" y="554.1" transform="matrix(1 -3.037921e-03 3.037921e-03 1 -1.6873 1.4136)" class="st2" width="15.2" height="4"/>
	
		<ellipse transform="matrix(1 -3.037921e-03 3.037921e-03 1 -1.8306 1.4226)" class="st4" cx="467.4" cy="603.3" rx="5.7" ry="6.3"/>
	<path class="st2" d="M467.4,611.6c-4.1,0-7.5-3.6-7.5-8.3c-0.1-4.6,3.3-8.3,7.4-8.4c4.1,0,7.5,3.6,7.5,8.3
		C474.9,607.9,471.5,611.6,467.4,611.6z M467.3,598.9L467.3,598.9c-2.4-0.2-4.6,1.6-4.8,4c-0.2,2.4,1.6,4.6,4,4.8
		c2.4,0.2,4.6-1.6,4.8-4c0-0.1,0-0.3,0-0.4C471.4,601,469.7,599.1,467.3,598.9L467.3,598.9z"/>
	<path class="st2" d="M468.9,620c-1-0.1-1.8-0.9-1.8-2l-0.1-7.9c0.1-0.9,0.7-1.7,1.6-1.9c1,0,1.9,0.7,2,1.8l0,0l0.1,7.9
		C470.7,619,469.9,620,468.9,620z"/>
	<path class="st2" d="M476.4,540.9l-6.3-7l-8.5,0c-0.9-0.2-1.6-0.9-1.7-1.8c-0.1-1.1,0.6-2,1.6-2.2l9.3,0c0.5,0,0.9,0.3,1.3,0.6
		l6.9,7.6c0.3,0.4,0.5,0.9,0.5,1.4c0,1-0.7,1.9-1.8,2C477.2,541.5,476.7,541.3,476.4,540.9z"/>
	<path class="st6" d="M540.4,418.2l9.9-44.8c0-21.8-17.9-36.9-17.9-36.9c-13.7-10.4-32.5-7.3-32.5-7.3
		c-30.7,8.1-31.7,43.6-31.7,43.6l10.8,43.5L540.4,418.2z"/>
	<path class="st4" d="M462.2,504.6l-0.1-33.3l92.1-0.3l0.1,33.3l0,0c0,13-9.5,23.6-21.2,23.7l-49.5,0.2
		C471.8,528,462.2,517.6,462.2,504.6z"/>
	<path class="st2" d="M460.4,504.5l-0.1-33.3c0-1,0.7-1.9,1.8-2l92.1-0.3c1,0.1,1.8,0.9,1.8,2l0.1,33.3c0.1,14.1-10.2,25.7-23,25.7
		l-49.5,0.2C470.7,530.1,460.4,518.6,460.4,504.5z M463.8,473.2l0.1,31.3c0,11.9,8.8,21.6,19.5,21.6l49.5-0.2
		c10.7-0.1,19.5-9.8,19.4-21.7l-0.1-31.3L463.8,473.2z"/>
	<path class="st3" d="M462.1,496.7l92.1-0.3"/>
	
		<rect x="462.1" y="494.5" transform="matrix(1 -3.037921e-03 3.037921e-03 1 -1.506 1.5461)" class="st2" width="92.1" height="4"/>
	<path class="st2" d="M554.2,496.4l-90,0.2l-2,7.8l4.8,14.7l10.1,7.7l30,2.4l29.3-3.3l8-0.9l9-13.7L554.2,496.4L554.2,496.4z"/>
	<path class="st3" d="M499.2,497.9L499.2,497.9L499.2,497.9c0,5.8,4.3,10.6,9.6,10.6c5.3,0,9.5-4.7,9.4-10.6
		c-0.1-5.9-4.3-10.6-9.6-10.6C503.4,487.3,499.2,492,499.2,497.9"/>
	<path class="st2" d="M497.4,497.9L497.4,497.9c0-6.9,5-12.6,11.3-12.6c6.3,0,11.3,5.6,11.3,12.5c0,6.9-5,12.6-11.3,12.6
		S497.4,504.8,497.4,497.9z M508.6,489.3c-4.3,0-7.7,3.9-7.7,8.6l0,0c0.1,4.7,3.5,8.6,7.8,8.5c4.3,0,7.7-3.9,7.7-8.6
		C516.3,493.1,512.9,489.2,508.6,489.3z"/>
	
		<rect x="476.8" y="454.7" transform="matrix(1 -3.037921e-03 3.037921e-03 1 -1.4038 1.55)" class="st4" width="65.5" height="16.4"/>
	<path class="st2" d="M474.9,452.7l69.1-0.2l0.1,20.3L475,473L474.9,452.7z M540.5,456.5l-61.9,0.2l0,12.4l61.9-0.2L540.5,456.5z"/>
	<path class="st3" d="M481.7,446.6c0-1,0.7-1.9,1.7-2l51.1-0.1c1.1,0.1,1.9,1,1.9,2.1c-0.1,1-0.8,1.7-1.8,1.9l-51.1,0.1
		C482.4,448.5,481.7,447.7,481.7,446.6z"/>
	<path class="st3" d="M540.2,418.2l-61.6,0.2l-4.2-16.3l5.4-2.4l64.2-0.2L540.2,418.2z"/>
	<path class="st5" d="M478.7,428.8l-0.1-10.4l61.5-0.2l0.1,10.4c0,5.3-3.9,9.6-8.7,9.7l-44.1,0.1
		C482.6,438.4,478.7,434.2,478.7,428.8z"/>
	<path class="st2" d="M487.4,440.5c-5.8,0-10.5-5.2-10.5-11.7l0-12.4l65.1-0.2l0,12.5c0,6.4-4.7,11.7-10.4,11.7L487.4,440.5z
		 M480.4,420.4l0,8.5c0,4.2,3.1,7.6,7,7.7l44.1-0.1c3.8,0,6.9-3.4,6.8-7.6l0-8.5L480.4,420.4z"/>
	<path class="st7" d="M495.5,399.9c-2.6-1.3-5-3-7.2-5.1c-11.4-11.1-12.5-30.4-2.5-43c5-6.3,36.6-6,41.7,0.7c1.7,2.1,3,4.5,3.9,7.1
		c6.1,15.4-0.1,33.4-14,40.2"/>
	<path class="st2" d="M522.4,401.7c-0.7,0-1.4-0.5-1.6-1.1c-0.4-1-0.1-2.1,0.8-2.6c13.4-7.3,18.9-25.2,12.3-40c-0.4-1-1-2.1-1.5-3
		c-0.5-0.9-0.3-2.1,0.5-2.7c0.8-0.5,1.8-0.4,2.4,0.4c0,0.1,0.1,0.1,0.1,0.2c0.6,1.1,1.2,2.3,1.7,3.4c7.4,16.8,1.1,37-14,45.3
		c-0.2,0.1-0.5,0.2-0.8,0.2L522.4,401.7z"/>
	<path class="st2" d="M496.2,401.3c-1.5-0.8-3.1-1.8-4.4-3c-13.6-11-16.6-32.2-6.7-47.3c0.5-0.8,1.6-1.1,2.3-0.6
		c0.1,0,0.1,0.1,0.2,0.1c0.8,0.7,1,1.9,0.4,2.8c-8.8,13.3-6,32,5.9,41.7c1.2,1,2.5,1.8,3.9,2.6c0.6,0.4,1,1.1,1,1.8
		c0,1-0.7,1.9-1.8,2C496.7,401.6,496.5,401.5,496.2,401.3z"/>
	<path class="st2" d="M466.6,374.8l0-0.6c-0.1-26.1,19-47.4,42.5-47.5c23.5-0.1,42.7,21.1,42.7,47.2l0,0.2l-10.4,45.8l-64.3,0.2
		L466.6,374.8z M548.4,373.9c-0.4-23.4-17.4-42.2-38.6-42.5c-21.6-0.4-39.3,18.8-39.6,42.8l9.8,42.3l58.8-0.2L548.4,373.9z"/>
	<path class="st2" d="M548.4,367.9c-21.1-24.2-56-24.9-77.9-1.7l-0.1,0.1c-0.7,0.6-1.7,0.7-2.3,0c-0.1-0.1-0.1-0.2-0.2-0.2
		c-0.6-0.9-0.6-2.1,0.2-2.8c23.4-24.8,60.3-24,82.9,1.7l0,0c0.7,0.8,0.7,2,0,2.8c-0.3,0.3-0.8,0.5-1.3,0.5
		C549.2,368.5,548.7,368.3,548.4,367.9z"/>
	<path class="st2" d="M472.8,399.9c-0.1-1.1,0.6-2,1.6-2.2l69.6-0.2c0.9,0.2,1.6,0.9,1.7,1.8c0.1,1.1-0.6,2-1.6,2.2l-69.6,0.2
		C473.6,401.6,472.9,400.8,472.8,399.9z"/>
	<path class="st4" d="M495,361.8L495,361.8c0-4.4,3.2-7.9,7.1-7.9l0,0c4,0,7.2,3.5,7.2,8s-3.2,7.9-7.1,7.9
		C498.1,369.7,494.9,366.2,495,361.8"/>
	<path class="st2" d="M484.7,413.9L484.7,413.9c-1.1-0.2-1.8-1.1-1.8-2.2c0.1-0.9,0.8-1.6,1.7-1.8c0.7,0,1.2-0.6,2-2.1
		c0.9-1.4,2.4-3.9,5.1-3.9c2.7,0,4.2,2.4,5,3.8c0.9,1.5,1.4,2.1,2.1,2c0.7,0,1.2-0.6,2-2.1c0.9-1.4,2.4-3.9,5.1-3.9
		c2.7,0,4.1,2.4,5,3.8c0.9,1.5,1.4,2.1,2.1,2c0.7,0,1.2-0.6,2-2.1s2.3-3.9,5.1-3.9c2.8,0,4.1,2.3,5,3.8c1,1.7,1.3,2.1,2.1,2
		c0.7,0,1.1-0.4,2-2.1c0.9-1.6,2.3-3.9,5-3.9c0.9,0.2,1.6,0.9,1.7,1.8c0.1,1-0.6,2-1.6,2.2c-0.7,0-1.1,0.4-2,2.1s-2.4,3.9-5.1,3.9
		c-2.7,0-4.2-2.4-5-3.8c-0.9-1.5-1.3-2.1-2.1-2c-0.7,0-1.1,0.4-2,2.1s-2.4,3.9-5,3.9c-2.7,0-4.1-2.4-5-3.8s-1.3-2.1-2.1-2
		c-0.7,0-1.1,0.4-2,2.1s-2.3,3.9-5,3.9c-2.7,0-4.1-2.4-5-3.8c-1-1.5-1.3-2.1-2.1-2c-0.7,0-1.1,0.4-2,2.1
		C488.7,411.7,487.4,414,484.7,413.9L484.7,413.9z"/>
	<path class="st2" d="M499.9,444.1L472,422.6"/>
	<path class="st2" d="M473.4,421.5l27.8,21.5c0.9,0.7,1.1,1.8,0.6,2.5c-0.8,0.8-2.2,0.6-3.1-0.1l0,0l-27.8-21.5l0,0
		c-1-0.6-1.5-1.9-0.8-2.6c0.5-0.7,2.1-0.8,3-0.1C473.2,421.4,473.2,421.4,473.4,421.5z"/>
	<path class="st4" d="M502.2,427.3l80,61.5l0,0c6,4.6,7.5,11.3,3.5,14.9l-7.5,7c-3.9,3.7-12.1,3-17.8-1.6l-80-61.5l0,0
		c-6-4.6-7.5-11.3-3.5-14.9l7.5-7C488.3,422.1,496.2,422.8,502.2,427.3z"/>
	<path class="st2" d="M503.6,426.1l80,61.5c7.1,5.5,8.9,13.3,4.3,17.6l-7.5,7c-4.6,4.3-14.2,3.5-21.2-2l-80-61.5
		c-7.1-5.5-8.9-13.3-4.3-17.6l7.5-7C487,419.8,496.5,420.7,503.6,426.1z M583.9,502.2c3.2-3,1.8-8.4-2.8-12.2l-80-61.5
		c-4.9-3.7-11.4-4.4-14.6-1.3l-7.5,7c-3.2,3-1.8,8.4,2.8,12.2l80,61.5c4.9,3.7,11.4,4.4,14.6,1.3L583.9,502.2z"/>
	<path class="st3" d="M505.8,438.9L505.8,438.9L505.8,438.9c-4.7-3.7-11.2-4.3-14.4-1.2l0,0c-3.2,2.9-1.8,8.4,2.9,12.1
		c4.7,3.7,11.2,4.3,14.4,1.2C511.9,448,510.5,442.4,505.8,438.9"/>
	<path class="st2" d="M507,437.5L507,437.5c5.8,4.5,7.5,11.1,3.6,14.8c-3.9,3.7-11.8,2.9-17.8-1.6c-5.8-4.5-7.5-11.1-3.6-14.8
		C493.3,432.3,501.2,433.1,507,437.5z M504.4,440L504.4,440c-3.6-2.4-8.3-2.2-10.3,0.4c-2.2,2.5-1,6.6,2.7,8.8
		c3.3,2.1,7.6,2.3,9.9,0C509.1,446.7,508.1,442.6,504.4,440L504.4,440z"/>
	<path class="st2" d="M540.1,456.6c0.9-0.7,2.5-0.3,3.5,0.6c0.7,0.8,0.9,1.7,0.4,2.4l-21.8,20.3c-0.9,0.7-2.4,0.6-3.4-0.4
		c-0.9-0.7-1.1-1.9-0.5-2.6L540.1,456.6z"/>
	<path class="st2" d="M513.3,449.2l28.6-21.2"/>
	<path class="st2" d="M542.7,429.6l-28.6,21.2c-1,0.7-2.1,0.6-2.6-0.1c-0.6-1-0.1-2.3,0.9-3l0,0l28.6-21.2l0,0
		c0.9-0.8,2.3-0.9,2.8,0c0.6,0.7,0.3,2.3-0.7,3C542.8,429.5,542.8,429.5,542.7,429.6z"/>
	<path class="st4" d="M529.5,456.3l-82,61l0,0c-6.1,4.6-13.2,4.1-15.9-0.8l-5.1-9.4c-2.7-4.9,0.1-12.7,6.2-17.1l82-61l0,0
		c6.1-4.6,13.2-4.1,15.9,0.8l5.1,9.4C538.2,444.1,535.6,451.7,529.5,456.3z"/>
	<path class="st2" d="M530.3,458l-82,61c-7.3,5.4-15.6,4.9-18.7-0.9l-5.1-9.4c-3.1-5.8,0.2-15,7.5-20.3l82-61
		c7.3-5.4,15.6-4.9,18.7,0.9l5.1,9.4C540.9,443.5,537.6,452.6,530.3,458z M433.6,515.1c2.2,4.1,8,4.2,13,0.7l82-61
		c5-3.7,7.3-9.9,5.1-14l-5.1-9.4c-2.2-4.1-8-4.2-13-0.7l-82,61c-5,3.7-7.3,9.9-5.1,14L433.6,515.1z"/>
	<path class="st3" d="M517,456.5L517,456.5L517,456.5c4.9-3.6,7.1-9.8,4.9-13.8l0,0c-2.1-4-8-4.2-12.8-0.6
		c-4.9,3.6-7.1,9.8-4.9,13.8C506.3,459.9,512.2,460.2,517,456.5"/>
	<path class="st2" d="M518,458.1L518,458.1c-6,4.4-13.1,4.2-15.7-0.7c-2.7-4.9,0.1-12.5,6.2-17.1c6-4.4,13.1-4.2,15.7,0.7
		C526.8,446.1,524,453.6,518,458.1z M516.2,454.8L516.2,454.8c3.3-2.8,4.3-7.5,2.2-10.2c-2-2.9-6.3-2.9-9.5,0.1
		c-2.9,2.6-4.2,6.9-2.6,9.7C508.3,457.5,512.6,457.7,516.2,454.8L516.2,454.8z"/>
	<path class="st2" d="M470.1,500.4c0.5,1.1-0.2,2.6-1.3,3.2c-1.1,0.6-2.2,0.5-2.6-0.4l-14.8-27.3c-0.5-1.1,0.2-2.6,1.3-3.2
		c1.1-0.6,2.2-0.5,2.6,0.4L470.1,500.4z"/>
	<path class="st2" d="M490.5,485.2c0.5,1.1-0.3,2.5-1.5,3.3c-1,0.5-1.9,0.4-2.5-0.3l-14.8-27.3c-0.5-1.1,0-2.5,1.3-3.2
		c1-0.7,2.2-0.5,2.8,0.2L490.5,485.2z"/>
	<path class="st5" d="M570.6,426.2l-21.8,9.5c-2.8,1.3-5.6,0.7-6.1-1.5l-0.6-3.4c-0.3-2.4,1.9-5.2,4.8-6.4l21.8-9.5"/>
	<path class="st2" d="M572.7,425.4c0.1,0.8-0.7,1.9-1.7,2.3l-21.8,9.5c-4.1,1.9-7.9,0.9-8.5-2.1l-0.5-3.3c-0.5-2.9,2.4-6.8,6.5-8.6
		l21.8-9.5l0,0c1-0.4,1.9-0.3,2.2,0.4s-0.4,1.7-1.3,2.2c-0.1,0.1-0.1,0.1-0.3,0.1l-21.8,9.5l0,0c-1.8,0.7-3.2,2.5-3.1,4.1l0.5,3.3
		c0.4,1.4,2.2,1.8,4,0.9l21.8-9.5l0,0C571.5,424.3,572.4,424.6,572.7,425.4L572.7,425.4z"/>
	<path class="st3" d="M570.6,426.3c4.3-1.9,7.4-6,6.9-9l0,0c-0.6-3.1-4.6-3.9-8.9-2.1c-4.3,1.9-7.4,6-6.9,9S566.3,428.2,570.6,426.3
		"/>
	<path class="st2" d="M571,427.6c-5.4,2.4-10.5,1.2-11.2-2.7c-0.7-3.9,3.1-9,8.5-11.4c5.4-2.4,10.5-1.2,11.2,2.7
		C580.1,420.3,576.4,425.3,571,427.6z M563.8,423.2c0.7,2.4,3.5,3.1,6.6,1.6l0,0c2.9-1.5,4.7-4.5,3.9-6.7c-0.7-2.2-3.7-2.7-6.6-1.2
		C565.1,418.4,563.3,421.1,563.8,423.2z"/>
	<path class="st5" d="M564,409.2l-17.6,18c-2.2,2.4-5,3-6,1.2l-1.4-2.9c-0.8-2.1,0.4-5.6,2.8-7.9l17.6-18"/>
	<path class="st2" d="M565.7,407.6c0.3,0.6-0.1,2.1-1,2.8l-17.6,18c-3.3,3.5-7,4.2-8.2,1.7l-1.3-2.8c-1.2-2.5,0.4-7.3,3.8-10.7
		l17.6-18l0,0c0.8-0.8,1.7-1,2.1-0.6c0.4,0.5,0.1,1.8-0.6,2.6c-0.1,0.2-0.1,0.2-0.3,0.2l-17.6,18l0,0c-1.4,1.4-2.3,3.7-1.8,5.1
		l1.3,2.8c0.7,1.1,2.4,0.8,3.9-0.9l17.6-18l0,0C564.3,407.1,565.2,407,565.7,407.6L565.7,407.6z"/>
	<path class="st3" d="M564.1,409.3c3.5-3.5,5.3-8.6,4-11.2l0,0c-1.3-2.6-5.1-1.7-8.6,1.9s-5.3,8.6-4,11.2
		C556.7,413.7,560.6,412.8,564.1,409.3"/>
	<path class="st2" d="M564.7,410.4c-4.3,4.5-9.2,5.6-10.9,2.3c-1.6-3.3,0.6-9.6,4.9-14.1c4.3-4.5,9.2-5.6,10.9-2.3
		C571.2,399.7,569.1,405.9,564.7,410.4z M557,409.4c1.2,1.9,4,1.4,6.4-1.4l0,0c2.2-2.6,3.1-6.2,1.9-7.8c-1.2-1.7-4-1-6.3,1.7
		C557,404.4,556.1,407.6,557,409.4z"/>
	<path class="st5" d="M459.4,395.8l16.5,17.2c2.2,2.2,2.6,5,0.7,6.3l-3,1.7c-2.1,1.1-5.5,0.1-7.6-2.3l-16.5-17.2"/>
	<path class="st2" d="M457.9,394.1c0.7-0.4,2.1,0,2.7,0.8l16.5,17.2c3.2,3.2,3.6,7.1,1,8.7l-2.9,1.6c-2.6,1.5-7.2,0.2-10.3-3.1
		l-16.5-17.2l0,0c-0.7-0.8-0.9-1.7-0.4-2.2c0.5-0.5,1.8-0.2,2.6,0.5c0.1,0.1,0.1,0.1,0.2,0.3l16.5,17.2l0,0c1.3,1.4,3.5,2.2,4.9,1.5
		l2.9-1.6c1.2-0.9,1-2.7-0.5-4.1L458,396.4l0,0C457.3,395.6,457.3,394.7,457.9,394.1L457.9,394.1z"/>
	<path class="st3" d="M459.5,395.7c-3.2-3.4-8.2-4.9-10.8-3.3l0,0c-2.7,1.6-2.1,5.6,1.1,9c3.2,3.4,8.2,4.9,10.8,3.3
		C463.2,403.2,462.7,399.1,459.5,395.7"/>
	<path class="st2" d="M460.6,394.9c4.1,4.2,4.8,9.4,1.4,11.4c-3.4,2-9.5,0.2-13.6-4.1c-4.1-4.2-4.8-9.4-1.4-11.4
		C450.5,388.9,456.5,390.7,460.6,394.9z M458.9,403.2c2-1.4,1.7-4.4-0.8-6.8l0,0c-2.4-2.2-5.9-2.8-7.7-1.4c-1.8,1.4-1.3,4.4,1.1,6.6
		C454,403.7,457.1,404.4,458.9,403.2z"/>
	<path class="st1" d="M457.5,412.6l-21.3,18.8c-2.4,2.1-6.1,1.9-8.2-0.5l-32.9-37.3c-2.1-2.4-1.9-6.1,0.5-8.2l21.3-18.8
		c2.4-2.1,6.1-1.9,8.2,0.5l32.9,37.3C460.1,406.8,459.9,410.4,457.5,412.6z"/>
	<path class="st5" d="M445.7,407.8l23,10.2c3,1.3,4.5,3.6,3.2,5.2l-2.2,2.3c-1.7,1.5-5.4,1.6-8.4,0.1l-23-10.2"/>
	<path class="st2" d="M443.6,406.8c0.5-0.5,2-0.6,3,0l23,10.2c4.4,1.9,6.4,5.1,4.4,7.2l-2.2,2.2c-2,2-7,2.1-11.4,0.1l-23-10.2l0,0
		c-1-0.5-1.6-1.2-1.2-1.8s1.6-0.7,2.7-0.3c0.2,0,0.2,0,0.3,0.2l23,10.2l0,0c1.8,0.9,4.2,0.9,5.4-0.1l2.2-2.2
		c0.8-1.1-0.1-2.6-2.2-3.4l-23-10.2l0,0C443.6,408.3,443.2,407.5,443.6,406.8L443.6,406.8z"/>
	<path class="st3" d="M445.8,407.7c-4.5-2-9.9-1.9-11.9,0.1l0,0c-2,2.2,0.2,5.4,4.7,7.4c4.5,2,9.9,1.9,11.9-0.1
		C452.5,413.1,450.3,409.8,445.8,407.7"/>
	<path class="st2" d="M446.5,406.8c5.7,2.5,8.4,6.7,5.9,9.4c-2.5,2.7-9.2,2.8-14.9,0.2c-5.7-2.5-8.4-6.7-5.9-9.4
		C434.3,404.4,440.8,404.3,446.5,406.8z M448.3,414.3c1.4-1.8-0.1-4.2-3.5-5.6l0,0c-3.2-1.2-6.9-0.8-8,0.9c-1.2,1.7,0.5,4.1,3.7,5.3
		C443.6,416.1,447,415.8,448.3,414.3z"/>
	<path class="st8" d="M598.3,408.7c-1,0.3-2.7,0.3-6.1,0.4c-0.7,0-3.4,0.1-6.9-0.2c-2.6-0.2-3.8-0.5-5.2-1.1c-1.4-0.6-2.4-1-3.1-2
		c-1.3-1.7-0.9-4.1-0.1-8.9c0.8-4.6,1.9-7.4,2.5-8.5c0.4-1,0.8-1.8,1.4-2.7c1.3-2.1,4-6.3,8.3-5.9c2.3,0.2,5.9,1.9,7.2,5.4
		c1.2,3.1,0.3,6.6-2.5,8.4c3.5-1.6,7.5-0.6,9.9,2.1c2.2,2.6,2,5.7,2,6C605.2,406.7,599.4,408.4,598.3,408.7z"/>
	<path class="st8" d="M429,380c0.4,0.9,0.6,2.5,1.1,5.7c0.1,0.7,0.5,3.2,0.5,6.5c0.1,2.5,0,3.7-0.5,5c-0.4,1.3-0.7,2.3-1.5,3.1
		c-1.4,1.4-3.8,1.3-8.4,1.1c-4.5-0.2-7.1-0.9-8.3-1.3c-1-0.3-1.7-0.5-2.7-1c-2.1-1-6.3-3-6.4-7c0-2.2,1.2-5.7,4.3-7.4
		c2.8-1.5,6.2-1,8.1,1.3c-1.9-3.1-1.4-7,0.9-9.5c2.2-2.4,5.1-2.5,5.5-2.6C426.5,373.8,428.6,379.1,429,380z"/>
</g>
<g>
	<path class="st1" d="M657.2,624l16.1,23.4c1.8,2.6,1.2,6.3-1.5,8.1l-41,28.2c-2.6,1.8-6.3,1.2-8.1-1.5l-16.1-23.4
		c-1.8-2.6-1.2-6.3,1.5-8.1l41-28.2C651.8,620.7,655.4,621.4,657.2,624z"/>
	<path class="st8" d="M654.6,660.1c-1,0.3-2.7,0.3-6.1,0.4c-0.7,0-3.4,0.1-6.9-0.2c-2.6-0.2-3.8-0.5-5.2-1.1c-1.4-0.6-2.4-1-3.1-2
		c-1.3-1.7-0.9-4.1-0.1-8.9c0.8-4.6,1.9-7.4,2.5-8.5c0.4-1,0.8-1.8,1.4-2.7c1.3-2.1,4-6.3,8.3-5.9c2.3,0.2,5.9,1.9,7.2,5.4
		c1.2,3.1,0.3,6.6-2.5,8.4c3.5-1.6,7.5-0.6,9.9,2.1c2.2,2.6,2,5.7,2,6C661.5,658.1,655.6,659.8,654.6,660.1z"/>
</g>
<g>
	<path class="st1" d="M351.4,643.5l26.5-10.1c3-1.1,6.4,0.4,7.5,3.4l17.7,46.5c1.1,3-0.4,6.4-3.4,7.5l-26.5,10.1
		c-3,1.1-6.4-0.4-7.5-3.4L348,651C346.9,648,348.4,644.7,351.4,643.5z"/>
	<path class="st8" d="M385.8,654.6c0,1-0.3,2.7-1,6.1c-0.1,0.7-0.7,3.3-1.9,6.7c-0.8,2.5-1.4,3.6-2.3,4.8c-0.9,1.2-1.6,2-2.7,2.5
		c-1.9,0.9-4.2-0.1-8.7-2c-4.3-1.9-6.7-3.6-7.7-4.4c-0.8-0.7-1.5-1.2-2.3-2c-1.7-1.8-5.2-5.4-3.8-9.4c0.8-2.2,3.2-5.3,6.9-5.7
		c3.3-0.4,6.5,1.3,7.6,4.4c-0.7-3.8,1.2-7.5,4.4-9.1c3-1.5,6-0.6,6.3-0.5C385.5,647.5,385.8,653.5,385.8,654.6z"/>
</g>
<g>
	<path class="st1" d="M342.8,357.2l-14.4,24.4c-1.6,2.8-5.2,3.7-8,2.1l-42.9-25.2c-2.8-1.6-3.7-5.2-2.1-8l14.4-24.4
		c1.6-2.8,5.2-3.7,8-2.1l42.9,25.2C343.5,350.8,344.4,354.4,342.8,357.2z"/>
	<path class="st8" d="M309,370c-0.7-0.8-1.4-2.3-3-5.4c-0.3-0.6-1.5-3-2.7-6.4c-0.9-2.5-1.2-3.7-1.2-5.2c0-1.5,0-2.6,0.5-3.7
		c1-1.9,3.3-2.6,8.1-3.9c4.5-1.2,7.5-1.4,8.7-1.4c1.1,0,1.9,0,3.1,0.1c2.5,0.3,7.4,1,8.8,5c0.8,2.2,0.8,6.1-1.8,8.8
		c-2.3,2.4-5.9,3-8.6,1.3c2.9,2.5,3.8,6.6,2.3,9.8c-1.4,3.1-4.3,4.2-4.6,4.3C313.7,375.5,309.7,370.8,309,370z"/>
</g>
<g>
	<path class="st1" d="M726.2,358.8l16.1,23.4c1.8,2.6,1.2,6.3-1.5,8.1l-41,28.2c-2.6,1.8-6.3,1.2-8.1-1.5l-16.1-23.4
		c-1.8-2.6-1.2-6.3,1.5-8.1l41-28.2C720.7,355.4,724.4,356.1,726.2,358.8z"/>
	<path class="st8" d="M723.6,394.8c-1,0.3-2.7,0.3-6.1,0.4c-0.7,0-3.4,0.1-6.9-0.2c-2.6-0.2-3.8-0.5-5.2-1.1c-1.4-0.6-2.4-1-3.1-2
		c-1.3-1.7-0.9-4.1-0.1-8.9c0.8-4.6,1.9-7.4,2.5-8.5c0.4-1,0.8-1.8,1.4-2.7c1.3-2.1,4-6.3,8.3-5.9c2.3,0.2,5.9,1.9,7.2,5.4
		c1.2,3.1,0.3,6.6-2.5,8.4c3.5-1.6,7.5-0.6,9.9,2.1c2.2,2.6,2,5.7,2,6C730.5,392.9,724.6,394.5,723.6,394.8z"/>
</g>
<path class="st9" d="M773.2,332.7L508,179.7c-5-2.9-11.3-2.9-16.3,0L226.6,332.9c-5,2.9-8.2,8.3-8.2,14.1l0.1,306.2
	c0,5.8,3.1,11.2,8.2,14.1l265.2,153c5,2.9,11.3,2.9,16.3,0l265.1-153.2c5-2.9,8.2-8.3,8.2-14.1l-0.1-306.2
	C781.4,341,778.3,335.6,773.2,332.7z M492.1,748.3l-209-117.9c-5.1-2.9-8.3-8.3-8.3-14.2L274.7,381c0-5.9,3.2-11.3,8.3-14.2
	l208.9-118c5-2.8,11.1-2.8,16,0l209,117.9c5.1,2.9,8.3,8.3,8.3,14.2l0.1,235.3c0,5.9-3.2,11.3-8.3,14.2l-208.9,118
	C503.1,751.1,497.1,751.1,492.1,748.3z"/>
<text transform="matrix(0.9659 -0.5406 0.4884 0.8726 583.6885 758.2107)" class="st10 st11">GITCOIN</text>
</svg>
