<svg xmlns="http://www.w3.org/2000/svg" viewBox="0 0 899.21 1415.66"><defs><style>.cls-1,.cls-2,.cls-3{fill:none;stroke:#333;stroke-linecap:round;stroke-miterlimit:10;}.cls-1{stroke-width:12px;}.cls-2{stroke-width:16px;}.cls-3{stroke-width:10px;}</style></defs><title>gitcoin_avatar2</title><g id="BODY"><path class="cls-1" d="M418.52,1079.34c-6.46-10.74-16.42-27.1-29-46.92-10.18-16.05-17.77-27.6-41.4-63.47-34.35-52.16-34.28-52-34.5-52.44-12.15-23.86-20.7-62.4-1.38-125.57"/><path class="cls-1" d="M339.3,955.52a144.08,144.08,0,0,1,1.94-99.72"/><path class="cls-2" d="M410.24,935.14c-3.19-3.18-28.93-29.8-23.46-66.92,3.19-21.62,15.34-35.83,20.7-41.4"/><path class="cls-2" d="M499.93,952.39c-13.48-17.17-24.11-31.88-31.74-42.78-12.71-18.18-15.69-23.81-17.93-29A106.13,106.13,0,0,1,442,832.34"/><path class="cls-2" d="M350.9,339.47c4.38-1.44,24.77-7.65,46.92,2.76,23.93,11.25,31.81,33.38,33.12,37.26"/><path class="cls-2" d="M475.09,392.15a89.48,89.48,0,0,1,30.36-31.74c36.51-22.55,76.64-9.08,82.8-6.9"/><path class="cls-2" d="M309.5,379.73c13.71-.81,37.93-.19,63.48,12.42,55.09,27.19,68.55,86.54,70.38,95.21"/><path class="cls-2" d="M466.81,484.6c1.27-11.31,6.05-39.94,29-64.86,37.92-41.19,92.66-36.55,99.36-35.87"/><path class="cls-2" d="M286.05,439.06c9.07-3,37.79-11.3,69,1.38,33.78,13.73,57.33,46.68,62.1,85.56"/><path class="cls-2" d="M480.61,516.34c2.81-8.38,14.88-41.12,49.68-60.72,44.47-25,89.29-7.9,95.21-5.52"/><path class="cls-2" d="M632.4,664a70,70,0,0,1,17.94,15.18,71.27,71.27,0,0,1,15.18,31.74"/><path class="cls-2" d="M642.06,851.66a97,97,0,0,0,37.26-96.6"/><path class="cls-1" d="M300.91,778.88a234.07,234.07,0,0,1,31.4-66.12A236.89,236.89,0,0,1,399,647.94"/><path class="cls-1" d="M587.2,778.77a163,163,0,0,0-24.77-71.48,160.27,160.27,0,0,0-66.49-58.24"/><path class="cls-1" d="M559.27,1075.2c-23.17-41.39-24.12-72.08-20.7-92.45,4.2-25,14.43-31.18,29-74.52,10.58-31.52,18.26-54.37,16.56-77.27-4-53.49-57.8-90.09-80-103.5"/><path class="cls-2" d="M689.59,586.62c2.85-30.67-11.92-60.23-37.87-75.8-37.71-22.63-76.82-2.37-78.65-1.38"/><path class="cls-3" d="M318.73,803.36a104.09,104.09,0,0,1,12.61-36.64c4.1-7.14,21-36.62,56-45.71a84.72,84.72,0,0,1,38.09-.85"/><path class="cls-2" d="M283.53,479.25a53.55,53.55,0,0,1,48.65,26.3"/><line class="cls-2" x1="220.26" y1="731.6" x2="268.7" y2="684.67"/><line class="cls-2" x1="209.27" y1="673.17" x2="238.49" y2="646.29"/><path class="cls-2" d="M213.92,566c1.71-8.37,8.57-36.68,34.87-56.56a91.08,91.08,0,0,1,37.26-16.56"/></g></svg>