<svg xmlns="http://www.w3.org/2000/svg" viewBox="0 0 899.21 1415.66"><defs><style>.cls-1{fill:#231f20;}</style></defs><title>gitcoin_avatar2</title><g id="BODY"><path class="cls-1" d="M368.75,667.33c2.45-2.21,6-1.92,10-1.53,8.25.79,13.28,3.94,23,9.2,16.2,8.76,20.12,9.71,19.95,12.27-.33,4.82-14.58,7.28-16.88,7.67-6.43,1.12-25.88,4.48-34.51-6.9C365.53,681.77,364.3,671.35,368.75,667.33Z"/><path class="cls-1" d="M545.94,684.21c6.51-7,13.79-9.78,18.41-11.51,5.71-2.13,15.7-5.87,27.61-3.07,5.26,1.24,12,2.84,13,6.91,1.73,7.07-14.8,18.62-30.68,23-14.65,4.05-33.13,3.22-35.28-3.07C537.81,692.9,542.12,688.29,545.94,684.21Z"/></g></svg>