<?xml version="1.0" encoding="utf-8"?>
<!-- Generator: Adobe Illustrator 23.0.1, SVG Export Plug-In . SVG Version: 6.00 Build 0)  -->
<svg version="1.1" id="Layer_1" xmlns="http://www.w3.org/2000/svg" xmlns:xlink="http://www.w3.org/1999/xlink" x="0px" y="0px"
	 viewBox="0 0 260 200" style="enable-background:new 0 0 260 200;" xml:space="preserve">
<style type="text/css">
	.Drop_x0020_Shadow{fill:none;}
	.Round_x0020_Corners_x0020_2_x0020_pt{fill:#FFFFFF;stroke:#231F20;stroke-miterlimit:10;}
	.Live_x0020_Reflect_x0020_X{fill:none;}
	.Bevel_x0020_Soft{fill:url(#SVGID_1_);}
	.Dusk{fill:#FFFFFF;}
	.Foliage_GS{fill:#FFDD00;}
	.Pompadour_GS{fill-rule:evenodd;clip-rule:evenodd;fill:#44ADE2;}
	.st0{fill:#FFFFFF;}
	.st1{fill:#00EDA9;}
	.st2{fill:#00CC88;}
	.st3{fill:#FFFFFF;stroke:#25E899;stroke-width:11;stroke-linecap:round;stroke-miterlimit:10;}
	.st4{fill:#3C2C99;}
	.st5{fill:#2E1984;}
	.st6{fill:#0FCE7C;}
	.st7{fill:#EFF4EE;}
	.st8{fill:#00C1AA;}
	.st9{fill:#767676;}
	.st10{fill:#242424;}
	.st11{fill:#0F0F0F;}
	.st12{fill:#282828;}
	.st13{fill:#F15022;}
	.st14{fill:#7EB900;}
	.st15{fill:#00A3EE;}
	.st16{fill:#FDB800;}
	.st17{fill:#707072;}
</style>
<linearGradient id="SVGID_1_" gradientUnits="userSpaceOnUse" x1="0" y1="0" x2="0.7071" y2="0.7071">
	<stop  offset="0" style="stop-color:#DEDFE3"/>
	<stop  offset="0.1783" style="stop-color:#DADBDF"/>
	<stop  offset="0.3611" style="stop-color:#CECFD3"/>
	<stop  offset="0.546" style="stop-color:#B9BCBF"/>
	<stop  offset="0.7324" style="stop-color:#9CA0A2"/>
	<stop  offset="0.9181" style="stop-color:#787D7E"/>
	<stop  offset="1" style="stop-color:#656B6C"/>
</linearGradient>
<rect x="-40" y="-40" class="st0" width="340" height="280"/>
<g>
	<rect y="-0.0646" class="st1" width="260" height="200.1291"/>
</g>
<g>
	<g>
		<g>
			<rect x="0.0539" y="137.6298" class="st0" width="259.9461" height="62.4348"/>
		</g>
	</g>
</g>
<g>
	<g>
		<g>
			<g>
				<g>
					<path class="st2" d="M123.5815,68.6412c-1.1156-1.1446-2.2431-2.3011-3.3588-3.4457
						C99.048,43.4732,77.8852,21.7511,56.7103,0.0407l8.4105,0.1074c19.8476,20.3609,39.7069,40.7338,59.5547,61.0828l3.1709,3.2529
						C130.5241,67.2307,126.2592,71.3881,123.5815,68.6412z"/>
				</g>
			</g>
		</g>
	</g>
	<g>
		<g>
			<g>
				<g>
					<path class="st2" d="M102.3054,68.6412c-1.1156-1.1446-2.2431-2.3011-3.3588-3.4457
						C77.7719,43.4732,56.6091,21.7511,35.4342,0.0407l8.4105,0.1074c19.8476,20.3609,39.7069,40.7338,59.5547,61.0828
						l3.1709,3.2529C109.248,67.2307,104.983,71.3881,102.3054,68.6412z"/>
				</g>
			</g>
		</g>
	</g>
	<g>
		<g>
			<g>
				<g>
					<path class="st2" d="M63.3621,42.0906l-3.1709-3.2529C47.551,25.8783,34.9069,12.9096,22.2634-0.0599h-8.3069
						c13.9264,14.2866,27.852,28.5722,41.7818,42.8623c1.1157,1.1446,2.2432,2.3011,3.3588,3.4457
						C61.7748,48.995,66.0397,44.8375,63.3621,42.0906z"/>
				</g>
			</g>
		</g>
	</g>
	<g>
		<g>
			<g>
				<g>
					<path class="st2" d="M155.5443,81.3041c-0.0822-0.0843-0.1644-0.1686-0.2466-0.253
						c-26.2364-26.9149-52.4846-53.8419-78.7329-80.757l8.4224,0.1075c24.6744,25.3126,49.3487,50.637,74.035,75.9497
						c0.2584,0.265,0.5285,0.5421,0.7869,0.8072C162.4867,79.9054,158.2219,84.051,155.5443,81.3041z"/>
				</g>
			</g>
		</g>
	</g>
	<g>
		<g>
			<g>
				<g>
					<path class="st2" d="M166.842,69.598c-1.0433,0.6411-2.4241,0.6948-3.5398-0.4497
						c-22.2784-22.8667-44.5805-45.7455-66.8711-68.6005l8.4224,0.1075c20.4581,20.9993,40.9281,41.9987,61.3983,62.9862
						c0.4346,0.4458,0.8808,0.9036,1.3154,1.3494C169.1291,66.5932,168.3291,68.6889,166.842,69.598z"/>
				</g>
			</g>
		</g>
	</g>
	<g>
		<g>
			<g>
				<g>
					<path class="st2" d="M165.4813,69.5811c20.8697,0.2664,41.7394,0.5328,62.6091,0.7992
						c3.8273,0.0489,3.9095-5.8991,0.0759-5.948c-20.8697-0.2664-41.7394-0.5328-62.6091-0.7992
						C161.7299,63.5843,161.6477,69.5322,165.4813,69.5811L165.4813,69.5811z"/>
				</g>
			</g>
		</g>
	</g>
	<g>
		<g>
			<g>
				<g>
					<path class="st2" d="M225.9927,69.948c5.7444,5.893,11.4888,11.7859,17.2332,17.6789
						c2.6756,2.7447,6.9363-1.4063,4.2596-4.1522c-5.7444-5.893-11.4888-11.7859-17.2332-17.6789
						C227.5767,63.051,223.316,67.202,225.9927,69.948L225.9927,69.948z"/>
				</g>
			</g>
		</g>
	</g>
	<g>
		<g>
			<g>
				<g>
					<path class="st2" d="M157.6372,82.2842c19.2405,0.2456,38.481,0.4912,57.7215,0.7368c3.8273,0.0489,3.9095-5.8991,0.0759-5.948
						c-19.2405-0.2456-38.481-0.4912-57.7215-0.7368C153.8859,76.2874,153.8036,82.2353,157.6372,82.2842L157.6372,82.2842z"/>
				</g>
			</g>
		</g>
	</g>
	<g>
		<g>
			<g>
				<g>
					<path class="st2" d="M213.2638,82.3559c2.9105,2.9858,5.821,5.9715,8.7315,8.9573c2.6755,2.7447,6.9362-1.4063,4.2596-4.1522
						c-2.9105-2.9858-5.821-5.9715-8.7315-8.9573C214.8479,75.459,210.5871,79.61,213.2638,82.3559L213.2638,82.3559z"/>
				</g>
			</g>
		</g>
	</g>
	<g>
		<g>
			<g>
				<g>
					<path class="st2" d="M163.8066,43.6217c-1.006,0.5107-2.2547,0.471-3.2765-0.5772
						c-13.7052-14.0717-27.4107-28.1316-41.1278-42.2035l8.4105,0.1074c11.9555,12.2647,23.911,24.5294,35.8666,36.7942
						c0.3758,0.3855,0.7399,0.7589,1.1157,1.1445C166.451,40.5858,165.4468,42.8217,163.8066,43.6217z"/>
				</g>
			</g>
		</g>
	</g>
	<g>
		<g>
			<g>
				<g>
					<path class="st2" d="M164.1828,43.6478c14.689,0.1875,29.3779,0.375,44.0669,0.5625c3.8273,0.0489,3.9095-5.8991,0.0759-5.948
						c-14.689-0.1875-29.3779-0.375-44.0669-0.5625C160.4315,37.6509,160.3492,43.5988,164.1828,43.6478L164.1828,43.6478z"/>
				</g>
			</g>
		</g>
	</g>
	<g>
		<g>
			<g>
				<circle class="st2" cx="125.7095" cy="66.8749" r="5.7416"/>
			</g>
		</g>
	</g>
	<g>
		<g>
			<g>
				<circle class="st2" cx="104.4152" cy="66.8749" r="5.7416"/>
			</g>
		</g>
	</g>
	<g>
		<g>
			<g>
				<circle class="st2" cx="61.2449" cy="44.2106" r="5.7416"/>
			</g>
		</g>
	</g>
	<g>
		<g>
			<g>
				<circle class="st2" cx="224.7299" cy="90.4864" r="5.7416"/>
			</g>
		</g>
	</g>
	<g>
		<g>
			<g>
				<circle class="st2" cx="245.7367" cy="86.0988" r="5.7416"/>
			</g>
		</g>
	</g>
	<g>
		<g>
			<g>
				<circle class="st2" cx="209.527" cy="41.4073" r="5.7416"/>
			</g>
		</g>
	</g>
	<g>
		<g>
			<g>
				<g>
					<path class="st2" d="M144.2912,22.9055c14.689,0.1875,29.3779,0.375,44.0669,0.5625c3.8273,0.0489,3.9095-5.8991,0.0759-5.948
						c-14.689-0.1875-29.3779-0.375-44.0669-0.5625C140.5399,16.9086,140.4576,22.8565,144.2912,22.9055L144.2912,22.9055z"/>
				</g>
			</g>
		</g>
	</g>
	<g>
		<g>
			<g>
				<circle class="st2" cx="189.6354" cy="20.665" r="5.7416"/>
			</g>
		</g>
	</g>
</g>
<g>
	<g>
		<g>
			<g>
				<g>
					<g>
						<g>
							<polygon class="st0" points="139.2741,45.6963 143.5444,54.1092 140.3043,67.8678 132.588,61.5636 133.9402,51.4718 							
								"/>
						</g>
					</g>
				</g>
			</g>
		</g>
		<g>
			<g>
				<g>
					<g>
						<g>
							<path class="st3" d="M127.875,17.8434"/>
						</g>
					</g>
				</g>
			</g>
		</g>
		<g>
			<g>
				<g>
					<g>
						<g>
							<path class="st3" d="M127.875,41.269"/>
						</g>
					</g>
				</g>
			</g>
		</g>
		<g>
			<g>
				<g>
					<g>
						<g>
							<path class="st4" d="M127.875,42.8773c-0.8882,0-1.6084-0.7202-1.6084-1.6084V28.592c0-0.8882,0.7202-1.6084,1.6084-1.6084
								c0.8882,0,1.6084,0.7202,1.6084,1.6084v12.6769C129.4834,42.1571,128.7631,42.8773,127.875,42.8773z"/>
						</g>
					</g>
				</g>
			</g>
		</g>
		<g>
			<g>
				<g>
					<g>
						<g>
							<line class="st0" x1="125.4837" y1="41.269" x2="130.4551" y2="41.269"/>
						</g>
					</g>
				</g>
			</g>
		</g>
		<g>
			<g>
				<g>
					<g>
						<g>
							<path class="st5" d="M130.4552,42.8773h-4.9714c-0.8882,0-1.6084-0.7202-1.6084-1.6084c0-0.8882,0.7202-1.6084,1.6084-1.6084
								h4.9714c0.8882,0,1.6084,0.7202,1.6084,1.6084C132.0636,42.1571,131.3433,42.8773,130.4552,42.8773z"/>
						</g>
					</g>
				</g>
			</g>
		</g>
		<g>
			<g>
				<g>
					<g>
						<g>
							<path class="st0" d="M139.2741,45.6963l5.285-4.9813c-4.0443-4.0442-9.6313-6.5457-15.8026-6.5457
								c-12.3426,0-22.3483,10.0057-22.3483,22.3483s10.0057,22.3483,22.3483,22.3483c4.6006,0,8.6468,1.6795,12.2009-0.7037
								l4.4231,0.612l-0.1265-7.1806l-12.666-10.0302l0,0l2.723-12.825L139.2741,45.6963"/>
						</g>
					</g>
				</g>
			</g>
		</g>
		<g>
			<g>
				<g>
					<g>
						<g>
							<path class="st4" d="M128.7566,81.0592c-13.5322,0-24.5417-11.0091-24.5417-24.5414s11.0094-24.5417,24.5417-24.5417
								c6.5555,0,12.7183,2.5528,17.3536,7.1884l1.5973,1.5973l-6.9288,6.5307l-3.0089-3.1922l3.5503-3.3459
								c-3.5569-2.8464-7.9414-4.3917-12.5636-4.3917c-11.1137,0-20.1552,9.0415-20.1552,20.1551
								c0,11.1134,9.0415,20.1549,20.1552,20.1549"/>
						</g>
					</g>
				</g>
			</g>
		</g>
		<g>
			<g>
				<g>
					<g>
						<g>
							<path class="st6" d="M141.0751,68.4525l-3.1505-3.0523c2.3198-2.394,3.5972-5.5485,3.5972-8.8824
								c0-3.4801-1.3751-6.7323-3.8719-9.1574l-1.6432-1.5961l1.7623-1.6632l1.5013,1.591l1.4359-1.4782
								c3.3547,3.2585,5.2021,7.6281,5.2021,12.304C145.9082,60.9974,144.1916,65.2357,141.0751,68.4525z"/>
						</g>
					</g>
				</g>
			</g>
		</g>
		<g>
			<g>
				<g>
					<g>
						<g>
							<path class="st5" d="M139.4997,66.9263"/>
						</g>
					</g>
				</g>
			</g>
		</g>
		<g>
			<g>
				<g>
					<g>
						<g>
							<circle class="st7" cx="128.7565" cy="56.5177" r="5.0459"/>
						</g>
					</g>
				</g>
			</g>
		</g>
		<g>
			<g>
				<g>
					<g>
						<g>
							<path class="st4" d="M128.7566,63.7567c-3.9916,0-7.2392-3.2473-7.2392-7.2389s3.2476-7.2392,7.2392-7.2392
								c3.9916,0,7.2392,3.2476,7.2392,7.2392S132.7481,63.7567,128.7566,63.7567z M128.7566,53.6651
								c-1.573,0-2.8527,1.2797-2.8527,2.8527c0,1.5727,1.2797,2.8524,2.8527,2.8524c1.573,0,2.8527-1.2797,2.8527-2.8524
								C131.6092,54.9448,130.3295,53.6651,128.7566,53.6651z"/>
						</g>
					</g>
				</g>
			</g>
		</g>
		<g>
			<g>
				<g>
					<g>
						<g>
							<line class="st5" x1="144.5592" y1="40.7151" x2="131.8062" y2="52.4983"/>
						</g>
					</g>
				</g>
			</g>
		</g>
		<g>
			<g>
				<g>
					<g>
						<g>
							
								<rect x="129.5012" y="44.4134" transform="matrix(0.7345 -0.6786 0.6786 0.7345 5.0612 106.1492)" class="st4" width="17.3631" height="4.3866"/>
						</g>
					</g>
				</g>
			</g>
		</g>
		<g>
			<g>
				<g>
					<g>
						<g>
							<polyline class="st0" points="131.1373,60.9673 140.3043,67.8678 145.254,71.5937 145.254,81.0592 135.311,80.5803 							
								"/>
						</g>
					</g>
				</g>
			</g>
		</g>
		<g>
			<g>
				<g>
					<g>
						<g>
							<polygon class="st4" points="147.4472,81.0592 128.3581,81.0592 128.3581,76.6727 143.0607,76.6727 143.0607,72.6879 
								129.8183,62.7197 132.4565,59.2151 147.4472,70.4992 							"/>
						</g>
					</g>
				</g>
			</g>
		</g>
		<g>
			<g>
				<g>
					<g>
						<g>
							<path class="st5" d="M139.7,67.0883"/>
						</g>
					</g>
				</g>
			</g>
		</g>
		<g>
			<g>
				<g>
					<g>
						<g>
							<path class="st4" d="M120.2617,47.3047c-0.8882,0-1.6084-0.7202-1.6084-1.6084V28.592c0-0.8882,0.7202-1.6084,1.6084-1.6084
								s1.6084,0.7202,1.6084,1.6084v17.1043C121.8701,46.5844,121.1498,47.3047,120.2617,47.3047z"/>
						</g>
					</g>
				</g>
			</g>
		</g>
	</g>
	<g>
		<g>
			<g>
				<g>
					<path class="st4" d="M59.053,107.4549h8.8355v0.7065c0,1.6065-0.1891,3.0284-0.5676,4.2656
						c-0.3693,1.1449-0.9927,2.2159-1.8698,3.213c-1.9851,2.2343-4.5101,3.3512-7.5753,3.3512
						c-2.9914,0-5.5537-1.0799-7.6861-3.2404c-2.1331-2.1697-3.1993-4.7734-3.1993-7.811c0-3.1022,1.0847-5.7339,3.2547-7.8944
						c2.1694-2.1694,4.81-3.2544,7.9217-3.2544c1.6708,0,3.2311,0.3402,4.6807,1.0201c1.3849,0.6805,2.7469,1.7853,4.0857,3.3149
						l-2.299,2.2019c-1.7542-2.3359-3.8918-3.504-6.412-3.504c-2.2624,0-4.1595,0.7803-5.6922,2.3407
						c-1.5326,1.5326-2.299,3.4531-2.299,5.7613c0,2.3821,0.8539,4.3442,2.5623,5.8861c1.5969,1.4311,3.3283,2.1465,5.1933,2.1465
						c1.588,0,3.0143-0.5341,4.2796-1.6024c1.2646-1.0775,1.971-2.3667,2.1188-3.8679H59.053V107.4549z"/>
				</g>
			</g>
		</g>
		<g>
			<g>
				<g>
					<path class="st4" d="M82.5478,97.2065v21.3832h-3.227V97.2065H82.5478z"/>
				</g>
			</g>
		</g>
		<g>
			<g>
				<g>
					<path class="st4" d="M100.96,100.2396v18.35h-3.227v-18.35h-4.9163v-3.0331h13.0456v3.0331H100.96z"/>
				</g>
			</g>
		</g>
		<g>
			<g>
				<g>
					<path class="st4" d="M131.1578,98.349v3.8155c-1.865-1.5603-3.7947-2.3407-5.789-2.3407c-2.1974,0-4.0488,0.7896-5.5534,2.3684
						c-1.5145,1.5696-2.2713,3.49-2.2713,5.7613c0,2.2436,0.7567,4.1363,2.2713,5.6782c1.5138,1.5419,3.3696,2.3126,5.567,2.3126
						c1.136,0,2.1006-0.1843,2.8947-0.554c0.4432-0.1843,0.9024-0.4336,1.3781-0.7475c0.4753-0.3139,0.9763-0.6928,1.5025-1.136
						v3.8986c-1.8466,1.0481-3.7855,1.572-5.8167,1.572c-3.0561,0-5.6645-1.0662-7.825-3.1993
						c-2.1512-2.1509-3.2267-4.7453-3.2267-7.7829c0-2.7237,0.9-5.1519,2.7008-7.285c2.2159-2.6125,5.0825-3.9192,8.6002-3.9192
						C127.5108,96.791,129.3666,97.3104,131.1578,98.349z"/>
				</g>
			</g>
		</g>
		<g>
			<g>
				<g>
					<path class="st0" d="M143.3275,104.3936c0-3.0096,1.1031-5.5951,3.3101-7.7556c2.1971-2.1605,4.8376-3.2404,7.9218-3.2404
						c3.0468,0,5.6594,1.0895,7.8383,3.2684c2.1885,2.1789,3.2824,4.7963,3.2824,7.8523c0,3.0745-1.0987,5.683-3.2961,7.825
						c-2.2066,2.1512-4.8705,3.2267-7.9908,3.2267c-2.7609,0-5.2398-0.9554-7.4372-2.867
						C144.537,110.5892,143.3275,107.8193,143.3275,104.3936z M146.5822,104.4285c0,2.3615,0.7937,4.3032,2.3821,5.8256
						c1.5785,1.522,3.4021,2.2829,5.4703,2.2829c2.2436,0,4.1363-0.7749,5.6782-2.3246c1.5419-1.5679,2.313-3.4777,2.313-5.7284
						c0-2.2785-0.7619-4.1879-2.2853-5.7288c-1.5142-1.5497-3.3884-2.3246-5.6228-2.3246c-2.2251,0-4.1042,0.7749-5.6368,2.3246
						C147.3482,100.2867,146.5822,102.1777,146.5822,104.4285z"/>
				</g>
			</g>
		</g>
		<g>
			<g>
				<g>
					<path class="st4" d="M178.411,97.2065v21.3832h-3.227V97.2065H178.411z"/>
				</g>
			</g>
		</g>
		<g>
			<g>
				<g>
					<path class="st4" d="M190.9231,118.5897V95.7525l15.5946,16.314v-14.86h3.2267v22.685l-15.5942-16.2726v14.9708H190.9231z"/>
				</g>
			</g>
		</g>
	</g>
</g>
<g>
	<path class="st8" d="M175.5435,57.6457"/>
</g>
<g>
	<path class="st1" d="M226.6111,153.0802H25.8379c-2.3117,0-4.1857-1.874-4.1857-4.1857v-15.0104h209.1446v15.0104
		C230.7968,151.2062,228.9228,153.0802,226.6111,153.0802z"/>
</g>
<g>
	<path class="st1" d="M229.61,160.1907H24.2437c-4.8436,0-8.7843-3.9404-8.7843-8.7841v-16.4698
		c0-1.0839,0.8816-1.9655,1.9653-1.9655h219.0039c1.0837,0,1.9653,0.8817,1.9653,1.9655v16.4698
		C238.394,156.2502,234.4536,160.1907,229.61,160.1907z M17.4248,134.6381c-0.1646,0-0.2985,0.1341-0.2985,0.2987v16.4698
		c0,3.9243,3.1929,7.1172,7.1174,7.1172H229.61c3.9243,0,7.1172-3.1929,7.1172-7.1172v-16.4698
		c0-0.1646-0.1339-0.2987-0.2985-0.2987H17.4248z"/>
</g>
<g>
	<path class="st4" d="M26.0326,147.171v-8.493h1.7822c0.8545,0,1.5292,0.0843,2.0244,0.253
		c0.5317,0.165,1.0139,0.4455,1.4467,0.8416c0.8764,0.7996,1.3147,1.8502,1.3147,3.1519c0,1.3056-0.4567,2.3617-1.3697,3.1683
		c-0.4585,0.4035-0.9388,0.6841-1.4412,0.8417c-0.4696,0.1576-1.1351,0.2365-1.9967,0.2365H26.0326z M27.3143,145.9663h0.5775
		c0.5757,0,1.0543-0.0604,1.4358-0.1814c0.3812-0.1283,0.7259-0.3318,1.034-0.6106c0.6307-0.5757,0.9462-1.3257,0.9462-2.2498
		c0-0.9314-0.3118-1.6868-0.9351-2.2663c-0.5611-0.5171-1.3881-0.7756-2.4809-0.7756h-0.5775V145.9663z"/>
	<path class="st4" d="M33.7227,144.4537c0-0.7738,0.2768-1.432,0.8305-1.9748c0.5537-0.5427,1.2285-0.8141,2.0242-0.8141
		c0.7994,0,1.4778,0.2733,2.0354,0.8196c0.5501,0.5466,0.825,1.2176,0.825,2.0133c0,0.8031-0.277,1.4761-0.8305,2.0187
		c-0.5576,0.5392-1.2414,0.8086-2.0518,0.8086c-0.8031,0-1.4761-0.2749-2.0188-0.825
		C33.994,145.9572,33.7227,145.2752,33.7227,144.4537z M34.9878,144.4756c0,0.5355,0.1429,0.959,0.4291,1.2708
		c0.2934,0.3153,0.6801,0.4729,1.1605,0.4729c0.4841,0,0.871-0.1558,1.1607-0.4676c0.2897-0.3116,0.4346-0.7278,0.4346-1.2486
		c0-0.5208-0.1449-0.937-0.4346-1.2487c-0.2934-0.3153-0.6803-0.4731-1.1607-0.4731c-0.4729,0-0.8563,0.1578-1.1497,0.4731
		C35.1344,143.5699,34.9878,143.9769,34.9878,144.4756z"/>
	<path class="st4" d="M44.8946,141.8133l1.4027,3.0584l1.5126-3.5479l1.5237,3.5479l1.3863-3.0584h1.3861l-2.8054,5.7593
		l-1.4907-3.4489l-1.5071,3.4489l-2.7998-5.7593H44.8946z"/>
	<path class="st4" d="M52.6891,144.4537c0-0.7738,0.2768-1.432,0.8305-1.9748c0.5537-0.5427,1.2285-0.8141,2.0242-0.8141
		c0.7994,0,1.4778,0.2733,2.0354,0.8196c0.5501,0.5466,0.825,1.2176,0.825,2.0133c0,0.8031-0.277,1.4761-0.8305,2.0187
		c-0.5576,0.5392-1.2414,0.8086-2.0518,0.8086c-0.8031,0-1.4761-0.2749-2.0188-0.825
		C52.9604,145.9572,52.6891,145.2752,52.6891,144.4537z M53.9543,144.4756c0,0.5355,0.1429,0.959,0.4291,1.2708
		c0.2934,0.3153,0.6801,0.4729,1.1605,0.4729c0.4841,0,0.871-0.1558,1.1607-0.4676c0.2897-0.3116,0.4346-0.7278,0.4346-1.2486
		c0-0.5208-0.1449-0.937-0.4346-1.2487c-0.2934-0.3153-0.6803-0.4731-1.1607-0.4731c-0.4729,0-0.8563,0.1578-1.1497,0.4731
		C54.1008,143.5699,53.9543,143.9769,53.9543,144.4756z"/>
	<path class="st4" d="M59.7134,141.8133h1.2377v0.4786c0.2272-0.2383,0.4289-0.4016,0.6049-0.4896
		c0.1797-0.0915,0.3924-0.1376,0.6381-0.1376c0.3263,0,0.6674,0.1064,1.0231,0.3191l-0.5665,1.1331
		c-0.2348-0.1685-0.464-0.253-0.6876-0.253c-0.6749,0-1.0121,0.5097-1.0121,1.5292v2.7779h-1.2377V141.8133z"/>
	<path class="st4" d="M65.1646,137.8804v5.6656l1.7437-1.7327h1.6611l-2.3268,2.2498l2.4973,3.1079h-1.6062l-1.7712-2.2608
		l-0.198,0.1981v2.0627h-1.2377v-9.2906H65.1646z"/>
	<path class="st4" d="M74.2956,142.9685v4.2025h-1.243v-4.2025h-0.4401v-1.1552h0.4401v-2.0682
		c0-0.6747,0.1173-1.1515,0.3519-1.4303c0.3228-0.3886,0.7922-0.583,1.4082-0.583c0.2201,0,0.4968,0.0643,0.8307,0.1924v1.2653
		l-0.1265-0.0661c-0.2677-0.1355-0.4878-0.2035-0.6602-0.2035c-0.2201,0-0.3685,0.079-0.4455,0.2365
		c-0.077,0.1541-0.1156,0.4512-0.1156,0.8913v1.7657h1.3478v1.1552H74.2956z"/>
	<path class="st4" d="M76.1056,144.4537c0-0.7738,0.2768-1.432,0.8305-1.9748c0.5537-0.5427,1.2285-0.8141,2.0242-0.8141
		c0.7994,0,1.4778,0.2733,2.0354,0.8196c0.5501,0.5466,0.825,1.2176,0.825,2.0133c0,0.8031-0.277,1.4761-0.8305,2.0187
		c-0.5576,0.5392-1.2414,0.8086-2.0518,0.8086c-0.8031,0-1.4761-0.2749-2.0188-0.825
		C76.3768,145.9572,76.1056,145.2752,76.1056,144.4537z M77.3707,144.4756c0,0.5355,0.1429,0.959,0.4291,1.2708
		c0.2934,0.3153,0.6801,0.4729,1.1605,0.4729c0.4841,0,0.871-0.1558,1.1607-0.4676c0.2897-0.3116,0.4346-0.7278,0.4346-1.2486
		c0-0.5208-0.1449-0.937-0.4346-1.2487c-0.2934-0.3153-0.6803-0.4731-1.1607-0.4731c-0.4729,0-0.8563,0.1578-1.1497,0.4731
		C77.5173,143.5699,77.3707,143.9769,77.3707,144.4756z"/>
	<path class="st4" d="M83.13,141.8133h1.2377v0.4786c0.2273-0.2383,0.4289-0.4016,0.6049-0.4896
		c0.1797-0.0915,0.3924-0.1376,0.6381-0.1376c0.3263,0,0.6672,0.1064,1.0233,0.3191l-0.5666,1.1331
		c-0.2348-0.1685-0.4641-0.253-0.6876-0.253c-0.6749,0-1.0121,0.5097-1.0121,1.5292v2.7779H83.13V141.8133z"/>
	<path class="st4" d="M92.0961,142.9685v4.2025h-1.2377v-4.2025h-0.5281v-1.1552h0.5281v-1.9638h1.2377v1.9638h0.9626v1.1552
		H92.0961z"/>
	<path class="st4" d="M93.9004,137.8804h1.2377v4.3786c0.4401-0.3961,0.9257-0.5942,1.4576-0.5942
		c0.6051,0,1.0891,0.1963,1.4522,0.5887c0.3079,0.341,0.4622,0.8856,0.4622,1.6336v3.284h-1.2377v-3.1683
		c0-0.4291-0.0763-0.74-0.2283-0.9324c-0.1523-0.1926-0.3973-0.2888-0.7346-0.2888c-0.4327,0-0.737,0.1339-0.913,0.4016
		c-0.1724,0.2714-0.2584,0.737-0.2584,1.3972v2.5908h-1.2377V137.8804z"/>
	<path class="st4" d="M104.9565,144.7837h-3.8395c0.0331,0.4401,0.176,0.7904,0.4291,1.0506
		c0.253,0.2569,0.5777,0.3851,0.9736,0.3851c0.3079,0,0.563-0.0733,0.7648-0.2199c0.1978-0.1468,0.4234-0.4182,0.6764-0.8141
		l1.0452,0.583c-0.1613,0.2751-0.332,0.5107-0.5117,0.7068c-0.1797,0.1961-0.3722,0.3575-0.5773,0.484
		c-0.2055,0.1267-0.4274,0.2192-0.6657,0.2778c-0.2383,0.0587-0.497,0.088-0.7755,0.088c-0.7996,0-1.4412-0.2565-1.9255-0.7701
		c-0.484-0.5169-0.7259-1.2027-0.7259-2.0572c0-0.8471,0.2346-1.5329,0.7042-2.0573c0.4729-0.5171,1.1001-0.7756,1.8809-0.7756
		c0.7885,0,1.412,0.2513,1.8702,0.7537c0.4548,0.4987,0.6821,1.19,0.6821,2.0737L104.9565,144.7837z M103.6857,143.7716
		c-0.1724-0.6602-0.5884-0.9902-1.2484-0.9902c-0.1506,0-0.2918,0.0229-0.4237,0.0688s-0.252,0.112-0.3601,0.198
		c-0.1084,0.0863-0.2008,0.1899-0.2778,0.3109c-0.0773,0.121-0.1359,0.2585-0.176,0.4125H103.6857z"/>
	<path class="st4" d="M111.0625,142.9685v4.2025h-1.2377v-4.2025h-0.5281v-1.1552h0.5281v-1.9638h1.2377v1.9638h0.9626v1.1552
		H111.0625z"/>
	<path class="st4" d="M112.6138,144.4537c0-0.7738,0.2768-1.432,0.8307-1.9748c0.5536-0.5427,1.2283-0.8141,2.0242-0.8141
		c0.7992,0,1.4776,0.2733,2.0352,0.8196c0.5499,0.5466,0.825,1.2176,0.825,2.0133c0,0.8031-0.2768,1.4761-0.8307,2.0187
		c-0.5573,0.5392-1.2414,0.8086-2.0516,0.8086c-0.8033,0-1.476-0.2749-2.0188-0.825
		C112.8852,145.9572,112.6138,145.2752,112.6138,144.4537z M113.8789,144.4756c0,0.5355,0.1429,0.959,0.4291,1.2708
		c0.2932,0.3153,0.6801,0.4729,1.1607,0.4729c0.484,0,0.8709-0.1558,1.1607-0.4676c0.2895-0.3116,0.4344-0.7278,0.4344-1.2486
		c0-0.5208-0.1449-0.937-0.4344-1.2487c-0.2935-0.3153-0.6804-0.4731-1.1607-0.4731c-0.4732,0-0.8565,0.1578-1.1497,0.4731
		C114.0255,143.5699,113.8789,143.9769,113.8789,144.4756z"/>
	<path class="st4" d="M120.8755,150.0863h-1.2377v-8.273h1.2377v0.583c0.4876-0.4876,1.0412-0.7316,1.661-0.7316
		c0.7373,0,1.3441,0.2714,1.8207,0.8141c0.4843,0.5392,0.7263,1.2194,0.7263,2.0408c0,0.8031-0.2403,1.4725-0.7206,2.0078
		c-0.4769,0.5318-1.0784,0.7976-1.8043,0.7976c-0.6272,0-1.1881-0.251-1.6831-0.7536V150.0863z M123.8185,144.5251
		c0-0.5134-0.1396-0.9314-0.418-1.2541c-0.2825-0.3263-0.6383-0.4896-1.0673-0.4896c-0.4548,0-0.8233,0.1578-1.1055,0.4731
		c-0.2825,0.3154-0.4237,0.7298-0.4237,1.2432c0,0.5024,0.1412,0.9167,0.4237,1.2432c0.2785,0.319,0.6453,0.4784,1.1001,0.4784
		c0.4291,0,0.7828-0.1613,1.0616-0.484C123.6752,145.4127,123.8185,145.0092,123.8185,144.5251z"/>
	<path class="st4" d="M134.1923,142.0537v1.6447c-0.2825-0.3447-0.5355-0.5812-0.7592-0.7095
		c-0.2199-0.132-0.4784-0.1981-0.7755-0.1981c-0.4659,0-0.8526,0.1633-1.1607,0.4897c-0.3081,0.3263-0.462,0.7353-0.462,1.2266
		c0,0.5024,0.1484,0.915,0.4455,1.2377c0.3007,0.3226,0.6839,0.484,1.1496,0.484c0.297,0,0.5593-0.0641,0.7867-0.1924
		c0.2201-0.1247,0.4786-0.3667,0.7756-0.7261v1.6338c-0.5025,0.2602-1.0049,0.3904-1.5073,0.3904
		c-0.8288,0-1.5218-0.2676-2.0792-0.8031c-0.5574-0.539-0.8361-1.2082-0.8361-2.0078c0-0.7994,0.2823-1.4741,0.8471-2.0242
		c0.5646-0.5501,1.2578-0.8252,2.0792-0.8252C133.224,141.674,133.7227,141.8007,134.1923,142.0537z"/>
	<path class="st4" d="M135.1385,144.463c0-0.7738,0.2768-1.432,0.8305-1.9748c0.5537-0.5427,1.2285-0.8141,2.0242-0.8141
		c0.7994,0,1.4778,0.2733,2.0354,0.8197c0.5501,0.5465,0.825,1.2176,0.825,2.0133c0,0.8031-0.277,1.4762-0.8305,2.0187
		c-0.5576,0.5392-1.2413,0.8086-2.0518,0.8086c-0.8031,0-1.4761-0.2749-2.0188-0.825
		C135.4097,145.9665,135.1385,145.2844,135.1385,144.463z M136.4036,144.4849c0,0.5355,0.1429,0.959,0.4291,1.2708
		c0.2934,0.3153,0.6801,0.4729,1.1605,0.4729c0.4841,0,0.871-0.1558,1.1607-0.4676c0.2897-0.3116,0.4346-0.7278,0.4346-1.2486
		c0-0.5208-0.1449-0.937-0.4346-1.2487c-0.2934-0.3153-0.6803-0.4731-1.1607-0.4731c-0.4729,0-0.8563,0.1578-1.1497,0.4731
		C136.5502,143.5792,136.4036,143.9862,136.4036,144.4849z"/>
	<path class="st4" d="M142.1627,141.8226h1.2377v0.495c0.2383-0.2493,0.4418-0.418,0.6105-0.506
		c0.1797-0.0915,0.4051-0.1376,0.6766-0.1376c0.6051,0,1.0837,0.2641,1.4356,0.7922c0.3887-0.5281,0.915-0.7922,1.5787-0.7922
		c1.2065,0,1.8098,0.7316,1.8098,2.1949v3.3114h-1.2432v-2.9759c0-0.5134-0.0624-0.8764-0.1871-1.0891
		c-0.1284-0.2164-0.3392-0.3246-0.6326-0.3246c-0.341,0-0.5896,0.1285-0.7453,0.3851c-0.1558,0.2567-0.2338,0.6694-0.2338,1.2377
		v2.7669h-1.243v-2.9593c0-0.9535-0.2751-1.4303-0.8252-1.4303c-0.3484,0-0.6023,0.1302-0.7619,0.3906
		c-0.1595,0.2604-0.2391,0.6711-0.2391,1.2322v2.7669h-1.2377V141.8226z"/>
	<path class="st4" d="M152.3116,150.0956h-1.2377v-8.273h1.2377v0.583c0.4876-0.4876,1.0414-0.7316,1.6611-0.7316
		c0.7372,0,1.3441,0.2714,1.8209,0.8141c0.484,0.5392,0.7261,1.2194,0.7261,2.0408c0,0.8031-0.2403,1.4725-0.7206,2.0078
		c-0.4768,0.5318-1.0782,0.7975-1.8043,0.7975c-0.627,0-1.1881-0.251-1.6832-0.7535V150.0956z M155.2544,144.5344
		c0-0.5134-0.1394-0.9314-0.418-1.2541c-0.2825-0.3263-0.6381-0.4897-1.0672-0.4897c-0.4547,0-0.8233,0.1578-1.1056,0.4731
		c-0.2823,0.3154-0.4236,0.7298-0.4236,1.2432c0,0.5024,0.1412,0.9167,0.4236,1.2432c0.2786,0.319,0.6454,0.4784,1.1001,0.4784
		c0.4291,0,0.783-0.1613,1.0616-0.484C155.1115,145.422,155.2544,145.0185,155.2544,144.5344z"/>
	<path class="st4" d="M161.7783,141.8226h1.2432v5.3577h-1.2432v-0.5611c-0.5097,0.4768-1.0581,0.7151-1.6448,0.7151
		c-0.7407,0-1.3531-0.2676-1.8371-0.8031c-0.4805-0.5464-0.7206-1.2285-0.7206-2.0463c0-0.8031,0.2401-1.4723,0.7206-2.0076
		c0.4803-0.5355,1.0817-0.8033,1.8041-0.8033c0.6234,0,1.1826,0.2569,1.6778,0.7701V141.8226z M158.8409,144.4849
		c0,0.5136,0.1376,0.9316,0.4125,1.2542c0.2823,0.3265,0.6381,0.4895,1.0672,0.4895c0.4584,0,0.8287-0.1576,1.1112-0.4729
		c0.2823-0.3265,0.4236-0.7408,0.4236-1.2432s-0.1413-0.9167-0.4236-1.2432c-0.2825-0.3191-0.6491-0.4786-1.1001-0.4786
		c-0.4256,0-0.7812,0.1615-1.0672,0.4841C158.9819,143.6013,158.8409,144.0046,158.8409,144.4849z"/>
	<path class="st4" d="M164.5836,141.8226h1.243v0.495c0.4327-0.4291,0.9205-0.6436,1.4632-0.6436
		c0.6234,0,1.1093,0.1963,1.4577,0.5887c0.3006,0.3337,0.451,0.8782,0.451,1.6336v3.284h-1.2432v-2.9924
		c0-0.528-0.0733-0.8928-0.22-1.0946c-0.1429-0.2053-0.4033-0.3081-0.781-0.3081c-0.4108,0-0.7023,0.1357-0.8747,0.4072
		c-0.1687,0.2677-0.253,0.7353-0.253,1.4027v2.5853h-1.243V141.8226z"/>
	<path class="st4" d="M170.5739,139.5948c0-0.2162,0.0788-0.4033,0.2365-0.5609s0.3466-0.2366,0.5666-0.2366
		c0.2237,0,0.4144,0.079,0.5722,0.2366c0.1576,0.154,0.2365,0.3429,0.2365,0.5665c0,0.2237-0.0788,0.4145-0.2365,0.5721
		c-0.1541,0.1576-0.3431,0.2365-0.5666,0.2365c-0.2237,0-0.4145-0.0788-0.5721-0.2365S170.5739,139.8222,170.5739,139.5948z
		 M171.9986,141.8226v5.3577h-1.2377v-5.3577H171.9986z"/>
	<path class="st4" d="M178.4454,144.793h-3.8395c0.033,0.4401,0.176,0.7904,0.4291,1.0506c0.253,0.2569,0.5777,0.3851,0.9736,0.3851
		c0.3081,0,0.5629-0.0733,0.7646-0.2199c0.1981-0.1468,0.4235-0.4182,0.6766-0.8141l1.0452,0.583
		c-0.1615,0.2751-0.332,0.5107-0.5116,0.7069c-0.1797,0.1961-0.3723,0.3574-0.5777,0.4839
		c-0.2053,0.1267-0.4272,0.2192-0.6655,0.2778c-0.2385,0.0587-0.497,0.088-0.7756,0.088c-0.7994,0-1.4412-0.2565-1.9251-0.7701
		c-0.4841-0.5169-0.7261-1.2027-0.7261-2.0572c0-0.8471,0.2346-1.5329,0.704-2.0573c0.4731-0.5171,1.1001-0.7756,1.8813-0.7756
		c0.7884,0,1.4117,0.2514,1.8702,0.7537c0.4547,0.4987,0.6821,1.19,0.6821,2.0737L178.4454,144.793z M177.1747,143.7809
		c-0.1725-0.6602-0.5885-0.9902-1.2487-0.9902c-0.1505,0-0.2915,0.0229-0.4236,0.0688s-0.2522,0.112-0.3603,0.198
		c-0.1083,0.0863-0.2008,0.1899-0.2778,0.3109c-0.077,0.121-0.1357,0.2586-0.1761,0.4125H177.1747z"/>
	<path class="st4" d="M182.9118,142.7358l-1.0231,0.5445c-0.1613-0.3302-0.3611-0.4952-0.5994-0.4952
		c-0.1138,0-0.211,0.0377-0.2917,0.1128c-0.0807,0.0753-0.121,0.1715-0.121,0.2888c0,0.2053,0.2383,0.409,0.7151,0.6106
		c0.6565,0.2823,1.0983,0.5427,1.3257,0.781c0.2274,0.2385,0.341,0.5593,0.341,0.9627c0,0.5169-0.1906,0.9497-0.572,1.2981
		c-0.3705,0.33-0.8178,0.495-1.3423,0.495c-0.8985,0-1.5347-0.4381-1.9087-1.3147l1.0561-0.4895
		c0.1468,0.2567,0.2586,0.4199,0.3355,0.4895c0.1505,0.1394,0.3302,0.209,0.5392,0.209c0.418,0,0.627-0.1906,0.627-0.572
		c0-0.2201-0.1615-0.4254-0.4841-0.6162c-0.1247-0.0623-0.2493-0.1228-0.374-0.1814c-0.1247-0.0587-0.2512-0.1192-0.3795-0.1816
		c-0.3595-0.1761-0.6125-0.3521-0.7591-0.5281c-0.1871-0.2236-0.2805-0.5116-0.2805-0.8635c0-0.4657,0.1595-0.8508,0.4784-1.1552
		c0.3263-0.3044,0.7224-0.4567,1.1881-0.4567C182.0684,141.674,182.5781,142.0281,182.9118,142.7358z"/>
	<path class="st4" d="M187.659,139.5948c0-0.2162,0.0788-0.4033,0.2365-0.5609s0.3466-0.2366,0.5666-0.2366
		c0.2237,0,0.4145,0.079,0.5721,0.2366c0.1576,0.154,0.2366,0.3429,0.2366,0.5665c0,0.2237-0.079,0.4145-0.2366,0.5721
		c-0.154,0.1576-0.343,0.2365-0.5666,0.2365c-0.2237,0-0.4145-0.0788-0.5722-0.2365S187.659,139.8222,187.659,139.5948z
		 M189.0837,141.8226v5.3577h-1.2377v-5.3577H189.0837z"/>
	<path class="st4" d="M190.6514,141.8226h1.243v0.495c0.4328-0.4291,0.9204-0.6436,1.4633-0.6436
		c0.6235,0,1.1091,0.1963,1.4576,0.5887c0.3009,0.3337,0.4512,0.8782,0.4512,1.6336v3.284h-1.243v-2.9924
		c0-0.528-0.0736-0.8928-0.2202-1.0946c-0.1429-0.2053-0.4033-0.3081-0.7812-0.3081c-0.4107,0-0.7022,0.1357-0.8745,0.4072
		c-0.1687,0.2677-0.253,0.7353-0.253,1.4027v2.5853h-1.243V141.8226z"/>
	<path class="st4" d="M200.9762,141.8226l1.4027,3.0584l1.5128-3.5479l1.5235,3.5479l1.3863-3.0584h1.3863l-2.8053,5.7593
		l-1.4907-3.449l-1.5074,3.449l-2.7997-5.7593H200.9762z"/>
	<path class="st4" d="M213.9028,144.793h-3.8395c0.0331,0.4401,0.176,0.7904,0.4291,1.0506
		c0.253,0.2569,0.5777,0.3851,0.9736,0.3851c0.3079,0,0.563-0.0733,0.7648-0.2199c0.1978-0.1468,0.4234-0.4182,0.6764-0.8141
		l1.0452,0.583c-0.1613,0.2751-0.332,0.5107-0.5117,0.7069c-0.1797,0.1961-0.3722,0.3574-0.5773,0.4839
		c-0.2055,0.1267-0.4274,0.2192-0.6657,0.2778c-0.2383,0.0587-0.497,0.088-0.7755,0.088c-0.7996,0-1.4412-0.2565-1.9255-0.7701
		c-0.4839-0.5169-0.7259-1.2027-0.7259-2.0572c0-0.8471,0.2346-1.5329,0.7042-2.0573c0.4729-0.5171,1.1001-0.7756,1.8809-0.7756
		c0.7885,0,1.412,0.2514,1.8702,0.7537c0.4548,0.4987,0.6821,1.19,0.6821,2.0737L213.9028,144.793z M212.632,143.7809
		c-0.1724-0.6602-0.5884-0.9902-1.2484-0.9902c-0.1506,0-0.2919,0.0229-0.4237,0.0688s-0.252,0.112-0.3601,0.198
		c-0.1084,0.0863-0.2008,0.1899-0.2778,0.3109c-0.0773,0.121-0.1359,0.2586-0.1761,0.4125H212.632z"/>
	<path class="st4" d="M216.4937,137.8897v4.5544c0.495-0.5132,1.0559-0.7701,1.6832-0.7701c0.7223,0,1.3237,0.2696,1.8043,0.8086
		c0.4803,0.5355,0.7206,1.2029,0.7206,2.0023c0,0.8252-0.242,1.5073-0.7263,2.0463c-0.4803,0.5355-1.0871,0.8031-1.8207,0.8031
		c-0.6198,0-1.1734-0.2383-1.6611-0.7151v0.5611h-1.2377v-9.2906H216.4937z M219.4366,144.5399c0-0.5134-0.1396-0.9314-0.418-1.2541
		c-0.2825-0.3302-0.6366-0.4952-1.0616-0.4952c-0.4548,0-0.8253,0.1595-1.1112,0.4786c-0.2825,0.3154-0.4237,0.7261-0.4237,1.2321
		c0,0.5208,0.1392,0.937,0.418,1.2487c0.2788,0.319,0.6456,0.4784,1.1001,0.4784c0.4291,0,0.7849-0.1595,1.0673-0.4784
		C219.2933,145.4275,219.4366,145.024,219.4366,144.5399z"/>
	<path class="st4" d="M224.1453,143.2363v-1.0946c0.5425,0,0.9077-0.0606,1.0944-0.1816c0.3337-0.2127,0.5007-0.5537,0.5007-1.0231
		c0-0.3631-0.1212-0.6582-0.3631-0.8856c-0.2383-0.2311-0.5482-0.3466-0.9294-0.3466c-0.3558,0-0.6309,0.0862-0.8253,0.2585
		c-0.1868,0.176-0.3263,0.4731-0.418,0.8911h-1.2762c0.1322-0.7994,0.4033-1.3853,0.8143-1.7574
		c0.4107-0.3722,0.9846-0.5584,1.7216-0.5584c0.7443,0,1.3511,0.22,1.8207,0.6602c0.4692,0.4364,0.7042,0.9992,0.7042,1.6887
		c0,0.7775-0.3082,1.3826-0.9241,1.8152c0.7039,0.4145,1.0559,1.0874,1.0559,2.0188c0,0.7628-0.2567,1.3861-0.7701,1.8702
		c-0.5134,0.4839-1.1714,0.7261-1.9747,0.7261c-1.0231,0-1.7822-0.3759-2.2772-1.1277c-0.2055-0.3153-0.3357-0.7517-0.3906-1.3091
		h1.2377c0.0659,0.4108,0.2262,0.7253,0.4813,0.9433c0.2547,0.2182,0.5877,0.3273,0.9984,0.3273
		c0.4144,0,0.7571-0.1376,1.0285-0.4125c0.2714-0.2823,0.4073-0.6399,0.4073-1.0727c0-0.572-0.2038-0.9791-0.6108-1.2211
		C225.0125,143.3059,224.644,143.2363,224.1453,143.2363z"/>
</g>
<g>
	<g>
		<path d="M94.9148,179.1303c-0.1936,0.0009-0.1875,0.1817-0.2411,0.2904c-0.5329,1.0787-1.056,2.1622-1.5819,3.2444
			c-0.3505,0.068-0.7004,0.1098-1.046-0.0251c-0.6137-1.2216-1.2273-2.4433-1.841-3.6649c-0.031,0.0063-0.0621,0.0126-0.0931,0.0189
			c0,0.208,0,0.416,0,0.624c0,1.4114-0.0003,2.8228,0.0001,4.2343c0,0.1755,0.019,0.3547-0.1229,0.4946
			c-0.2016,0.0587-0.4036,0.0543-0.6057,0.003c-0.0275-0.0269-0.0551-0.0538-0.0826-0.0807
			c-0.0488-0.0952-0.0295-0.1978-0.0295-0.2973c-0.0011-2.1417-0.0017-4.2834,0.0019-6.425c0.0002-0.1053-0.054-0.2288,0.059-0.3162
			c0.6198-0.1833,0.8241-0.1006,1.1001,0.4594c0.6367,1.2918,1.269,2.5858,1.908,3.8765c0.0528,0.1066,0.0846,0.285,0.2088,0.2836
			c0.1466-0.0016,0.1684-0.19,0.2243-0.3049c0.6803-1.3982,1.3544-2.7994,2.0325-4.1987c0.0597-0.1232,0.1675-0.1768,0.3076-0.1765
			c0.2012,0.0005,0.4023-0.0088,0.6035-0.014c0.1545,0.031,0.1439,0.1523,0.144,0.266c0.0003,2.2541,0.0011,4.5082-0.0002,6.7623
			c0,0.0623,0.0072,0.128-0.0735,0.151l-0.0233-0.0085l-0.0152,0.0196c-0.2016,0.0591-0.4036,0.0544-0.6057,0.0032
			c-0.0821-0.0207-0.1201-0.0838-0.1493-0.1553c-0.0752-0.129-0.0372-0.2703-0.0375-0.4052
			c-0.0032-1.4179-0.0007-2.8358-0.0039-4.2537C94.9517,179.4007,94.9898,179.2594,94.9148,179.1303z"/>
	</g>
	<g>
		<path class="st9" d="M18.6939,180.3376c0.4685-0.7887,0.9343-1.5789,1.4063-2.3655c0.6579-1.0966,1.3219-2.1896,1.9806-3.2858
			c0.5368-0.8932,1.0694-1.7889,1.6049-2.6829c0.0555-0.0927,0.0999-0.2013,0.2327-0.2102
			c0.0796,0.1344,0.1068,0.2809,0.1068,0.4354c0.0005,1.8301,0.0058,3.6601-0.0032,5.4902c-0.0003,0.0632-0.007,0.126-0.0179,0.1873
			c-0.0076,0.0429-0.0223,0.0845-0.0419,0.1235c-0.4228,0.3788-0.9728,0.5172-1.4709,0.7475
			c-1.0513,0.4861-2.1058,0.9662-3.1618,1.4424C19.1315,180.309,18.937,180.4696,18.6939,180.3376z"/>
	</g>
	<g>
		<path class="st10" d="M23.9049,178.0552c0.0045-2.0873,0.009-4.1746,0.0135-6.2619c0.3659,0.3034,0.5307,0.7464,0.7677,1.1351
			c1.4341,2.3528,2.855,4.7137,4.2684,7.079c0.077,0.1288,0.3028,0.2693,0.1056,0.4765c-1.1583-0.6153-2.3833-1.0871-3.562-1.6584
			C24.9671,178.5684,24.3981,178.3901,23.9049,178.0552z"/>
	</g>
	<g>
		<path d="M71.0998,183.9514c-0.4744-0.8314-0.9397-1.668-1.4459-2.4797c-0.1879-0.3001-0.1288-0.4032,0.1629-0.5456
			c0.8026-0.3918,1.2421-1.3194,1.1049-2.1022c-0.1834-1.0466-1.036-1.6582-2.0916-1.6566
			c-0.8192,0.0015-1.6384-0.0076-2.4584-0.0121c-0.2046,0.0728-0.1508,0.238-0.1379,0.3766
			c0.0015,0.0152,0.0023,0.0296,0.0023,0.0439c-0.0015,0.4009-0.0023,0.8018-0.0023,1.2027c-0.003,1.4695-0.0023,2.9397,0,4.4091
			c0.0008,0.2675,0.0008,0.535,0.0015,0.8018c0,0.0076,0,0.0144-0.0008,0.022c-0.0008,0.0015-0.0008,0.003,0,0.0045
			c-0.0083,0.1091-0.0553,0.2327,0.0644,0.3206l0.0265-0.0076l0.0189,0.0197c0.2024,0.0538,0.4039,0.0553,0.6063-0.0007
			c0.1311-0.1273,0.1235-0.2918,0.1235-0.4562c-0.0015-0.7434-0.0046-1.4876,0.0023-2.2318
			c0.0008-0.144-0.0523-0.3039,0.0728-0.4289c0.482-0.0455,0.9632-0.0614,1.4437,0.0083c0.4335,0.6093,0.7578,1.2845,1.161,1.912
			c0.2561,0.3986,0.3736,0.8867,0.7594,1.2027c0.2266,0.028,0.4539,0.0818,0.6745-0.0288
			C71.2696,184.1749,71.1627,184.0613,71.0998,183.9514z M67.3455,180.4054c-0.2016,0.0061-0.263-0.0576-0.2539-0.2554
			c0.0144-0.3274,0.0038-0.6555,0.0038-0.9837c0-0.3153,0.0144-0.6313-0.0045-0.9458c-0.0136-0.2228,0.069-0.2728,0.2774-0.2668
			c0.504,0.0144,1.0087-0.0068,1.5126,0.0076c0.7002,0.0205,1.2322,0.5699,1.2178,1.2353
			c-0.0152,0.6964-0.5229,1.1944-1.2398,1.2034C68.3542,180.407,67.8495,180.3918,67.3455,180.4054z"/>
	</g>
	<g>
		<path d="M50.8094,184.3534c-0.0292-0.0282-0.0583-0.0563-0.0875-0.0844c-0.0414-0.0966-0.025-0.1985-0.0251-0.2982
			c-0.0009-2.1504-0.0009-4.3009,0.0001-6.4513c0-0.0993-0.0192-0.2018,0.0294-0.2968c0.291-0.082,0.5784-0.123,0.8443,0.0756
			c0.0749,0.8793,0.0147,1.7602,0.0313,2.6402c0.0081,0.4291,0.0018,0.4295,0.4243,0.4296c0.9577,0.0002,1.9153,0.0015,2.873-0.0017
			c0.1231-0.0004,0.2524,0.0348,0.3692-0.0374c0.0875-0.7982,0.0227-1.5989,0.0357-2.3983c0.012-0.7374,0.0026-0.7375,0.7061-0.7754
			c0.1521,0.0352,0.1397,0.1567,0.1397,0.2698c0.0001,2.2637,0.0012,4.5274,0.0004,6.7911c0,0.056-0.0162,0.0961-0.0674,0.1201
			l-0.0265-0.0074l-0.019,0.0198c-0.2019,0.054-0.4038,0.0551-0.6057-0.0007c-0.1822-0.0399-0.1222-0.1876-0.1228-0.2971
			c-0.0042-0.7991,0.0007-1.5983-0.0052-2.3974c-0.0011-0.1418,0.0526-0.3-0.0743-0.4223c-1.1945-0.0465-2.3888-0.0643-3.583,0.0094
			l-0.0025,0.0012c-0.0915,0.7237-0.0101,1.4508-0.0438,2.1753c-0.0131,0.2818,0.0709,0.5709-0.0545,0.8454
			c-0.0438,0.0298-0.0876,0.0597-0.1314,0.0895C51.2128,184.4014,51.0112,184.3997,50.8094,184.3534z"/>
	</g>
	<g>
		<path class="st11" d="M23.9049,178.0552c0.3903,0.03,0.699,0.2727,1.0403,0.4208c1.3249,0.5748,2.6333,1.1875,3.9496,1.7823
			c0.1056,0.0477,0.1608,0.1133,0.1652,0.2257c-1.6471,1.0173-3.3137,2.0015-4.999,2.9541
			c-0.1831,0.0732-0.2173-0.0643-0.2503-0.1856c-0.0367-0.1348-0.0284-0.2757-0.0285-0.4146
			c-0.0009-1.4016-0.0016-2.8031,0.0008-4.2047c0.0003-0.2-0.023-0.408,0.1211-0.5793L23.9049,178.0552z"/>
	</g>
	<g>
		<path class="st12" d="M23.9041,178.054c0.0009,1.6724,0.0002,3.3449,0.0056,5.0173c0.0004,0.1343-0.0773,0.3191,0.1513,0.3669
			c-0.1365,0.1507-0.2769,0.0542-0.3949-0.014c-0.9405-0.5443-1.8769-1.0956-2.8135-1.6467
			c-0.6235-0.3669-1.2467-0.7345-1.8665-1.1076c-0.1285-0.0774-0.3216-0.1107-0.2923-0.3322
			c0.5396-0.1032,0.9981-0.4047,1.4911-0.6193C21.4303,179.1763,22.6651,178.6103,23.9041,178.054z"/>
	</g>
	<g>
		<path d="M81.1477,177.2308c0.2628-0.1198,0.526-0.0623,0.7892-0.0022c0.1053,0.1061,0.0526,0.2394,0.053,0.3586
			c0.0043,1.3466,0.0021,2.6932,0.0036,4.0398c0.0001,0.1375-0.0201,0.2773,0.0297,0.4116c0.0307,0.7137,0.6458,1.353,1.425,1.4812
			c0.2438,0.05,0.4877,0.0492,0.7316,0.0006c0.759-0.2035,1.2518-0.6857,1.4965-1.4281c0.0648-0.2224,0.0294-0.4501,0.0301-0.675
			c0.004-1.2733,0.0012-2.5466,0.0031-3.8199c0.0002-0.1248-0.0225-0.2523,0.0251-0.3744c0.1828-0.1169,0.3845-0.0451,0.5757-0.0466
			c0.1765-0.0014,0.2585,0.1197,0.2582,0.3017c-0.0027,1.5359,0.0334,3.073-0.0148,4.6075
			c-0.0349,1.1109-1.0016,2.0839-2.1104,2.258c-0.123,0.0193-0.2438,0.0527-0.3656,0.0796
			c-0.1764,0.0563-0.3531,0.052-0.5299,0.0022c-0.5317-0.0162-1.0074-0.1993-1.4382-0.5c-0.5917-0.4131-0.9408-0.9732-0.9964-1.7025
			c-0.0621-0.5262-0.0215-1.0543-0.0255-1.5814c-0.0076-1.0192-0.0044-2.0386,0.0007-3.0578
			C81.0891,177.4662,81.0306,177.3314,81.1477,177.2308z"/>
	</g>
	<g>
		<path d="M35.1979,184.3529c-0.0294-0.028-0.0587-0.0561-0.0881-0.0841c-0.0431-0.1096-0.0241-0.2242-0.0242-0.3365
			c-0.0012-2.1148-0.0018-4.2296,0.0017-6.3444c0.0002-0.1196-0.0507-0.2527,0.0523-0.3596
			c0.1247-0.0804,0.2649-0.0594,0.4013-0.0595c1.1703-0.0006,2.3405-0.0004,3.5108-0.0004
			c0.6751,0.0001,0.6751,0.0002,0.6915,0.6565c-0.0974,0.1735-0.2655,0.113-0.4074,0.1136
			c-0.9815,0.0044-1.9631,0.001-2.9447,0.0039c-0.1234,0.0004-0.252-0.0315-0.3703,0.0339c-0.1403,0.0885-0.0671,0.2272-0.0687,0.34
			c-0.0084,0.5665,0.0133,1.1339-0.0107,1.6995c-0.013,0.3061,0.0637,0.4132,0.389,0.4043
			c0.8556-0.0234,1.7126,0.0069,2.5682-0.0152c0.3329-0.0086,0.39,0.122,0.3975,0.418c0.008,0.3145-0.1121,0.3816-0.3956,0.3772
			c-0.8686-0.0136-1.7377,0.0059-2.6062-0.0108c-0.2853-0.0055-0.3676,0.0847-0.3514,0.3646
			c0.0378,0.6516-0.0366,1.3061,0.0374,1.9578c0.2839,0.0841,0.5745,0.034,0.8615,0.0368c0.8203,0.008,1.6407,0.0002,2.461,0.0057
			c0.1194,0.0008,0.253-0.0532,0.3593,0.0527c0.0889,0.259,0.187,0.5189-0.0699,0.7456c-0.5116,0.0666-1.0258,0.0295-1.5382,0.0265
			C37.1018,184.3732,36.1493,184.4198,35.1979,184.3529z"/>
	</g>
	<g>
		<path d="M74.6666,177.975c-0.117,0.0445-0.0717,0.1473-0.0713,0.2244c0.0041,0.7099,0.0139,1.4198,0.022,2.1297
			c0.4445,0.0855,0.8934,0.021,1.34,0.0381c0.6097,0.0233,1.2211-0.0384,1.83,0.0332c0.0877,0.0534,0.1387,0.1319,0.1579,0.2319
			c0.0748,0.101,0.0749,0.2021,0.0001,0.3031c-0.0051,0.0635-0.0102,0.1271-0.0153,0.1906
			c-0.0868,0.1422-0.2255,0.0688-0.3374,0.0697c-0.824,0.007-1.6481,0.0028-2.4722,0.0047
			c-0.1362,0.0003-0.2753-0.0221-0.4073,0.0336c-0.0857-0.0305-0.1167,0.0198-0.1156,0.0901
			c0.0115,0.7292-0.0453,1.4593,0.0299,2.1875c0.2938,0.0872,0.5944,0.0328,0.8913,0.0361
			c0.8128,0.0092,1.6257,0.0008,2.4386,0.0059c0.118,0.0007,0.2505-0.0528,0.354,0.055c0.082,0.2573,0.1775,0.5159-0.0692,0.7427
			c-0.4741,0.0708-0.951,0.0234-1.4263,0.0284c-0.8664,0.0092-1.733,0.0042-2.5994,0.0009
			c-0.1227-0.0005-0.2517,0.0343-0.368-0.0376l0.0022,0.0007c-0.1274-0.0631-0.1159-0.1805-0.1159-0.2941
			c0.0011-2.239-0.002-4.4781,0.0012-6.7172c0.0001-0.0392,0.0146-0.0735,0.0252-0.1095c0.1014-0.1123,0.2337-0.0503,0.3484-0.0508
			c1.2051-0.0061,2.4103-0.0038,3.6155-0.0038c0.6438,0,0.6438-0.0001,0.6648,0.6472c-0.0871,0.189-0.2596,0.1218-0.3997,0.1226
			c-0.9838,0.005-1.9677,0.0014-2.9516,0.0042C74.9143,177.9428,74.7857,177.9118,74.6666,177.975z"/>
	</g>
	<g>
		<path d="M58.9081,177.223c0.0895-0.1028,0.2102-0.0505,0.3128-0.0509c1.2867-0.0056,2.5733-0.003,3.86-0.0048
			c0.1271-0.0002,0.2508,0.0054,0.3678,0.0601c0.0801,0.2231,0.088,0.4457-0.0048,0.6676l0.0116-0.0116
			c-0.104,0.1093-0.2374,0.0539-0.3556,0.0546c-0.9656,0.0052-1.9312,0.0018-2.8968,0.0041
			c-0.1366,0.0003-0.2762-0.0246-0.4095,0.0291c-0.0165,0.0143-0.0331,0.0287-0.0496,0.043
			c-0.0485,0.7731-0.0596,1.5462,0.0048,2.3191l-0.0008-0.0023c0.5479,0.0811,1.099,0.0165,1.6483,0.0371
			c0.5123,0.0192,1.0261-0.0381,1.5374,0.0322c0.2693,0.1996,0.0865,0.4877,0.1427,0.729
			c-0.0918,0.1362-0.2302,0.0657-0.3443,0.0666c-0.845,0.0067-1.6901,0.0026-2.5351,0.0047
			c-0.1375,0.0003-0.278-0.0229-0.4116,0.0328c-0.0395-0.002-0.0541,0.0155-0.0422,0.0538c-0.0442,0.7396-0.0656,1.479,0.0114,2.218
			l0.0029,0.004c0.2181,0.0854,0.4454,0.0377,0.6678,0.0394c0.8661,0.0064,1.7322,0.0004,2.5983,0.0052
			c0.12,0.0007,0.2517-0.048,0.3604,0.0491c0.024,0.0212,0.0479,0.0425,0.0718,0.0637c0.0736,0.2002,0.0749,0.4003-0.0006,0.6004
			c-0.0241,0.0203-0.0483,0.0407-0.0724,0.061c-0.0551,0.0731-0.1355,0.0538-0.2083,0.0539
			c-1.3446,0.0009-2.6893,0.001-4.0339,0.0007c-0.051,0-0.0999-0.0072-0.1464-0.0285c-0.0307-0.0285-0.0614-0.0571-0.092-0.0856
			c-0.048-0.4259-0.0185-0.8532-0.0194-1.2797c-0.0042-1.7849-0.0024-3.5699-0.0005-5.3549
			C58.8823,177.4969,58.8569,177.3571,58.9081,177.223z"/>
	</g>
	<g>
		<path class="st10" d="M24.0486,184.1836c1.6309-0.9689,3.2617-1.9378,4.9438-2.9371c-0.005,0.2964-0.1498,0.4143-0.2451,0.5493
			c-1.5221,2.1553-3.0503,4.3063-4.5774,6.458c-0.0656,0.0925-0.1324,0.1852-0.2477,0.2233
			c-0.1432-0.1369-0.1358-0.317-0.1363-0.492c-0.0029-1.0791-0.0037-2.1583,0.0004-3.2374
			C23.7871,184.5221,23.7764,184.2855,24.0486,184.1836z"/>
	</g>
	<g>
		<path class="st9" d="M24.0486,184.1836c-0.1112,0.1149-0.1357,0.252-0.1349,0.4096c0.0068,1.2946,0.0066,2.5892,0.0085,3.8838
			c-0.1439,0.0192-0.1903-0.1085-0.2474-0.1886c-0.9185-1.2895-1.8292-2.5846-2.7443-3.8765
			c-0.6192-0.8742-1.2434-1.7449-1.8633-2.6186c-0.0974-0.1372-0.1838-0.2822-0.3358-0.517
			c0.5756,0.2048,0.9766,0.508,1.4025,0.7531c1.1725,0.6747,2.3278,1.3792,3.4911,2.0698
			C23.7539,184.1758,23.887,184.2581,24.0486,184.1836z"/>
	</g>
	<g>
		<path d="M44.8983,184.3534c-0.0298-0.0282-0.0596-0.0565-0.0894-0.0847c-0.0528-0.4142-0.0206-0.8302-0.0219-1.2452
			c-0.0048-1.5383-0.0008-3.0766-0.004-4.6149c-0.0003-0.1355,0.0387-0.2774-0.0375-0.407l-0.0101-0.0291l-0.0308-0.0012
			c-0.6207-0.0677-1.2434-0.0114-1.8648-0.0314c-0.1309-0.0042-0.2817,0.0441-0.3657-0.1146l0.0008,0.002
			c-0.0652-0.1757-0.0544-0.3522-0.0057-0.5291c0.1087-0.1757,0.2848-0.1282,0.4425-0.1288
			c1.6382-0.0061,3.2763-0.0098,4.9145-0.0142c0.2676,0.2187,0.1187,0.4909,0.0961,0.7469l0.0044-0.0039
			c-0.4798,0.0935-0.9647,0.0178-1.4465,0.0428c-0.2599,0.0135-0.5221-0.0327-0.7801,0.0301
			c-0.0624,0.0193-0.0754,0.06-0.0504,0.1169c-0.0568,0.1462-0.0321,0.299-0.0323,0.4487
			c-0.0017,1.7999,0.0001,3.5998-0.0034,5.3997c-0.0003,0.1417,0.0609,0.3103-0.1139,0.4072l0.0025-0.0009
			C45.3023,184.4111,45.1005,184.3957,44.8983,184.3534z"/>
	</g>
</g>
<g>
	<g>
		<path class="st13" d="M175.0004,176.4529c0,1.1307-0.0045,2.2615,0.0041,3.3922c0.0016,0.2071-0.0506,0.2808-0.2703,0.2801
			c-2.27-0.0074-4.5401-0.0069-6.8101-0.0005c-0.2072,0.0006-0.2809-0.051-0.2802-0.2704c0.0073-2.27,0.0068-4.5401,0.0005-6.8101
			c-0.0006-0.2071,0.0507-0.2807,0.2701-0.2799c2.27,0.0073,4.5401,0.0081,6.8101-0.0009c0.2385-0.0009,0.2818,0.0831,0.2801,0.2974
			C174.9956,174.1914,175.0004,175.3222,175.0004,176.4529z"/>
	</g>
	<g>
		<path class="st14" d="M175.7344,176.4527c0-1.1308,0.0051-2.2617-0.0045-3.3924c-0.0018-0.2192,0.0522-0.2967,0.2853-0.2958
			c2.2616,0.0082,4.5233,0.0083,6.7849-0.0001c0.2334-0.0009,0.2844,0.0756,0.2837,0.2946
			c-0.0072,2.2616-0.0068,4.5233-0.0005,6.7849c0.0006,0.2057-0.0479,0.2827-0.2691,0.282
			c-2.2702-0.0073-4.5404-0.0071-6.8106-0.0002c-0.2178,0.0007-0.2747-0.0721-0.2731-0.2805
			C175.7388,178.7144,175.7344,177.5835,175.7344,176.4527z"/>
	</g>
	<g>
		<path class="st15" d="M171.3106,188.1996c-1.1387,0-2.2773-0.0038-3.416,0.0038c-0.1836,0.0012-0.2516-0.0381-0.251-0.2383
			c0.0069-2.2859,0.007-4.5717-0.0001-6.8576c-0.0006-0.2086,0.0677-0.2558,0.2642-0.2553c2.2773,0.006,4.5546,0.0059,6.8319,0.0002
			c0.1949-0.0005,0.2655,0.0444,0.2648,0.255c-0.0075,2.2773-0.0079,4.5546,0.0004,6.8319
			c0.0008,0.2231-0.0733,0.2664-0.2784,0.2647C173.588,188.1948,172.4492,188.1996,171.3106,188.1996z"/>
	</g>
	<g>
		<path class="st16" d="M183.0794,184.5237c0,1.1395-0.004,2.2791,0.0039,3.4186c0.0013,0.1911-0.0352,0.2633-0.2488,0.2625
			c-2.279-0.0083-4.5581-0.0083-6.8371-0.0001c-0.2207,0.0008-0.2664-0.0687-0.2658-0.2757
			c0.007-2.2619,0.0087-4.5238-0.0017-6.7857c-0.0011-0.2487,0.0827-0.2921,0.3064-0.2914c2.2533,0.0072,4.5067,0.0074,6.76-0.0004
			c0.2188-0.0008,0.2919,0.0444,0.2891,0.2795C183.072,182.2617,183.0794,183.3927,183.0794,184.5237z"/>
	</g>
	<g>
		<path class="st17" d="M196.0505,177.9857c-0.1409,0.3521-0.2827,0.7038-0.4224,1.0563c-0.774,1.9547-1.5498,3.9088-2.3169,5.8662
			c-0.0639,0.1631-0.1405,0.2229-0.3147,0.2109c-0.2812-0.0194-0.6308,0.0863-0.8276-0.0456
			c-0.1957-0.1312-0.2423-0.4889-0.3481-0.7497c-0.829-2.0429-1.6565-4.0865-2.485-6.1296
			c-0.0277-0.0683-0.0616-0.134-0.1385-0.1971c0,0.0878,0,0.1755,0,0.2632c0,2.2017-0.0026,4.4035,0.0044,6.6052
			c0.0006,0.1968-0.0423,0.2664-0.2499,0.2547c-0.3331-0.0188-0.6685-0.0161-1.0019-0.0008
			c-0.1949,0.0089-0.2599-0.0387-0.258-0.2484c0.011-1.1993,0.0053-2.3987,0.0053-3.5981c0-1.722,0.0029-3.444-0.004-5.1659
			c-0.0008-0.1924,0.0359-0.2654,0.2482-0.2601c0.6164,0.0155,1.2337,0.0135,1.8503,0.0005
			c0.1794-0.0038,0.2485,0.0603,0.3098,0.2198c0.8096,2.1057,1.6267,4.2085,2.4425,6.3119
			c0.0383,0.0988,0.0817,0.1956,0.1457,0.3482c0.137-0.3329,0.253-0.6139,0.3682-0.8952c0.7869-1.9217,1.5758-3.8427,2.3566-5.7669
			c0.0643-0.1584,0.1362-0.2214,0.3138-0.2176c0.5909,0.0128,1.1823,0.0107,1.7732,0.0011c0.1698-0.0028,0.2344,0.0294,0.234,0.2194
			c-0.0063,2.9471-0.006,5.8941-0.0005,8.8412c0.0003,0.1728-0.0521,0.2144-0.2157,0.2096
			c-0.3852-0.0112-0.7714-0.0149-1.1563,0.001c-0.2002,0.0083-0.2582-0.0482-0.257-0.2523
			c0.0087-1.4821,0.0047-2.9642,0.0047-4.4463c0-0.7196,0-1.4393,0-2.1589c0-0.0891,0-0.1783,0-0.2674
			C196.0908,177.9918,196.0706,177.9888,196.0505,177.9857z"/>
	</g>
	<g>
		<path class="st17" d="M239.9902,183.7744c0,0.3974-0.0034,0.7653,0.0021,1.1331c0.0016,0.1086-0.0251,0.1754-0.1366,0.2085
			c-0.6813,0.2021-1.3674,0.2646-2.0365-0.0173c-0.6478-0.273-0.9049-0.8324-0.9643-1.4925
			c-0.0653-0.7259-0.0177-1.4549-0.0263-2.1825c-0.0056-0.471-0.0089-0.9423,0.0029-1.4131
			c0.0046-0.1826-0.0326-0.2524-0.2357-0.2475c-0.6163,0.0148-1.2334,0.0151-1.8497-0.0001
			c-0.2052-0.005-0.2348,0.069-0.2341,0.2488c0.0062,1.6102-0.0016,3.2204,0.0094,4.8305c0.0016,0.2301-0.0606,0.2905-0.2843,0.2781
			c-0.3586-0.0199-0.7197-0.0173-1.0786-0.0005c-0.1946,0.0091-0.2431-0.0496-0.2422-0.2411c0.0076-1.6016-0.001-3.2032,0.01-4.8048
			c0.0016-0.2396-0.0446-0.3411-0.303-0.3104c-0.2027,0.0241-0.4108-0.002-0.616,0.0072c-0.1346,0.006-0.2012-0.0191-0.1951-0.1772
			c0.0121-0.3164,0.0112-0.6339,0.0001-0.9504c-0.005-0.141,0.0471-0.1746,0.1748-0.1709c0.2396,0.0069,0.4802-0.0087,0.7192,0.0053
			c0.1734,0.0102,0.2182-0.0567,0.2173-0.2192c-0.0022-0.4104-0.0375-0.8242,0.0432-1.23c0.2365-1.1886,1.2866-1.9496,2.5532-1.8598
			c0.7261,0.0515,0.7261,0.0515,0.7261,0.7851c0,0.2199,0,0.4398,0,0.6824c-0.2542-0.0892-0.4758-0.1656-0.7198-0.1607
			c-0.5423,0.0109-0.8915,0.2936-0.9794,0.8258c-0.056,0.3397-0.0252,0.6836-0.0308,1.0258
			c-0.0018,0.1091,0.0454,0.1487,0.1538,0.1482c0.668-0.0029,1.3361-0.0045,2.0041,0.0008c0.1583,0.0013,0.1537-0.0941,0.1536-0.201
			c-0.0004-0.3597,0.009-0.7198-0.0038-1.079c-0.006-0.1689,0.0535-0.239,0.2138-0.2822c0.3875-0.1044,0.7725-0.2203,1.1525-0.3491
			c0.1708-0.0579,0.2224-0.0341,0.2186,0.1539c-0.0102,0.5051,0.0052,1.0108-0.0078,1.5158
			c-0.005,0.1944,0.0563,0.2506,0.2468,0.2438c0.3849-0.0136,0.7708,0.001,1.156-0.0066c0.1385-0.0027,0.196,0.0295,0.19,0.1822
			c-0.012,0.3079-0.0141,0.617,0.0007,0.9247c0.0081,0.1696-0.0579,0.1966-0.2063,0.1931c-0.3938-0.0091-0.788,0.0033-1.1818-0.0063
			c-0.1505-0.0037-0.2064,0.029-0.2051,0.1944c0.008,0.9935,0.0032,1.987,0.0054,2.9805c0.0002,0.0935,0.0157,0.1875,0.03,0.2803
			c0.0904,0.5859,0.5162,0.8667,1.0934,0.7154C239.6768,183.8975,239.8174,183.8358,239.9902,183.7744z"/>
	</g>
	<g>
		<g>
			<path class="st17" d="M228.3536,178.3305c1.593-0.0089,2.7208,0.7568,3.1317,2.1422c0.2491,0.8398,0.2485,1.6934,0.006,2.5346
				c-0.2324,0.8065-0.7159,1.4303-1.4527,1.8488c-1.0953,0.622-3.3461,0.698-4.4525-0.6419
				c-0.3698-0.4478-0.598-0.9566-0.6907-1.5232c-0.1248-0.7628-0.0929-1.5209,0.1604-2.2567
				c0.4268-1.2399,1.517-2.0294,2.8869-2.1027C228.0793,178.3242,228.2167,178.3305,228.3536,178.3305z M230.0161,181.7741
				c0.0146-0.1978-0.0155-0.4268-0.0541-0.6547c-0.1395-0.8234-0.6736-1.3748-1.4046-1.4531
				c-0.9355-0.1001-1.6204,0.2734-1.9083,1.0762c-0.2531,0.7059-0.2569,1.4292-0.0147,2.1392
				c0.2455,0.7197,0.858,1.1051,1.6789,1.0932c0.7971-0.0115,1.3282-0.4021,1.5681-1.1541
				C229.9865,182.4916,230.0223,182.1528,230.0161,181.7741z"/>
		</g>
	</g>
	<g>
		<g>
			<path class="st17" d="M215.5304,185.2799c-1.6012-0.0034-2.7797-0.784-3.18-2.1416c-0.2763-0.9372-0.248-1.8794,0.0894-2.8
				c0.2537-0.6922,0.7119-1.2195,1.3541-1.5873c1.0506-0.6018,3.1714-0.6675,4.222,0.378c0.4985,0.4961,0.7972,1.0836,0.9139,1.7688
				c0.1574,0.9239,0.116,1.8345-0.3224,2.6784C217.9639,184.8149,216.8685,185.2768,215.5304,185.2799z M217.3707,181.6984
				c-0.0124-0.1188-0.0244-0.3415-0.0605-0.5603c-0.1399-0.8472-0.6743-1.3994-1.4133-1.4719
				c-0.9384-0.0921-1.5983,0.2602-1.894,1.0587c-0.2669,0.7208-0.269,1.4642-0.0105,2.1876
				c0.2613,0.7312,0.9289,1.1169,1.7511,1.061c0.8136-0.0554,1.3344-0.4938,1.5226-1.2821
				C217.3362,182.399,217.3667,182.102,217.3707,181.6984z"/>
		</g>
	</g>
	<g>
		<path class="st17" d="M219.7343,183.3825c0.5049,0.3093,0.9869,0.5354,1.5289,0.6175c0.2594,0.0393,0.5127,0.027,0.7652-0.0218
			c0.2456-0.0475,0.4651-0.149,0.5243-0.4238c0.0607-0.2818-0.0178-0.5269-0.2462-0.7118
			c-0.2215-0.1794-0.4788-0.2957-0.7393-0.4055c-0.3149-0.1327-0.6228-0.2774-0.9225-0.4444
			c-1.2053-0.6716-1.207-2.4326-0.0962-3.1905c0.716-0.4885,1.5086-0.5574,2.3354-0.4524c0.2626,0.0333,0.5227,0.0855,0.7739,0.1753
			c0.0758,0.0271,0.1468,0.0458,0.1465,0.1474c-0.0013,0.4507-0.0005,0.9013-0.0005,1.3779
			c-0.2461-0.1112-0.4575-0.2188-0.6776-0.3035c-0.3971-0.1529-0.8073-0.2289-1.2314-0.1299
			c-0.2736,0.0639-0.4953,0.1984-0.5578,0.4984c-0.0581,0.2789,0.0694,0.5508,0.3342,0.721c0.2457,0.158,0.5167,0.265,0.7859,0.3746
			c0.3012,0.1226,0.5874,0.2725,0.8683,0.4382c1.1288,0.6659,1.1129,2.3931,0.0651,3.1155
			c-0.4288,0.2957-0.9036,0.4455-1.412,0.4952c-0.6908,0.0676-1.3643-0.0279-2.024-0.2428
			c-0.1602-0.0522-0.2324-0.1201-0.2253-0.3039C219.7455,184.2866,219.7343,183.8592,219.7343,183.3825z"/>
	</g>
	<g>
		<path class="st17" d="M207.0796,180.2034c-0.6755-0.4925-1.377-0.6958-2.1584-0.4832c-0.4011,0.1091-0.7282,0.3363-0.9791,0.6673
			c-0.5911,0.7796-0.5907,2.1642-0.0053,2.892c0.3893,0.484,0.9153,0.677,1.5122,0.6921c0.594,0.015,1.1033-0.2488,1.63-0.5836
			c0,0.4833-0.0016,0.924,0.0014,1.3647c0.0006,0.0849-0.0473,0.124-0.1118,0.1528c-1.0401,0.4645-2.1071,0.5329-3.1682,0.1188
			c-0.9741-0.3802-1.6061-1.119-1.8193-2.1389c-0.2888-1.3814-0.0588-2.6592,0.9825-3.6995
			c0.4837-0.4833,1.0887-0.7247,1.7579-0.8251c0.7339-0.1102,1.448-0.0567,2.1431,0.2188c0.1561,0.0619,0.2261,0.1389,0.2197,0.3179
			C207.0695,179.3134,207.0796,179.7303,207.0796,180.2034z"/>
	</g>
	<g>
		<path class="st17" d="M209.8126,179.4101c0.5088-0.8238,1.1111-1.1384,2.006-1.03c0.196,0.0238,0.3008,0.08,0.2886,0.3147
			c-0.0224,0.4332-0.0064,0.8684-0.0064,1.3347c-0.217-0.0894-0.3979-0.1817-0.6004-0.2094
			c-0.8565-0.1171-1.4769,0.3529-1.6323,1.2429c-0.0383,0.2193-0.0579,0.44-0.0571,0.6638
			c0.0038,1.0449-0.0026,2.0898,0.0056,3.1346c0.0015,0.1889-0.0299,0.2704-0.2453,0.2592
			c-0.3844-0.0199-0.7707-0.0111-1.1559-0.0028c-0.1421,0.0031-0.1919-0.0348-0.1915-0.1851
			c0.0045-2.0898,0.0043-4.1796,0.0004-6.2693c-0.0003-0.1429,0.0381-0.1954,0.1869-0.1923
			c0.4109,0.0086,0.8223,0.0083,1.2332,0.0001c0.1386-0.0028,0.1757,0.0451,0.1709,0.177
			C209.8062,178.902,209.8126,179.1561,209.8126,179.4101z"/>
	</g>
	<g>
		<path class="st17" d="M200.7906,181.79c0,1.0187-0.0052,2.0374,0.0045,3.056c0.0019,0.2024-0.0329,0.2878-0.2608,0.2749
			c-0.3755-0.0213-0.7532-0.0123-1.1296-0.0025c-0.1465,0.0038-0.1864-0.0406-0.1861-0.1863
			c0.0045-2.0887,0.0053-4.1775-0.0012-6.2662c-0.0005-0.168,0.057-0.1975,0.2042-0.1943c0.3765,0.0081,0.7536,0.0126,1.1298-0.0015
			c0.1873-0.007,0.2464,0.0402,0.2443,0.2383C200.7848,179.7354,200.7906,180.7627,200.7906,181.79z"/>
	</g>
	<g>
		<path class="st17" d="M200.0116,175.6471c0.5511-0.0016,0.96,0.3906,0.9585,0.9194c-0.0015,0.5155-0.4028,0.8942-0.9507,0.8971
			c-0.5452,0.0028-0.954-0.3752-0.9601-0.8881C199.0531,176.0506,199.4653,175.6487,200.0116,175.6471z"/>
	</g>
</g>
<image style="overflow:visible;" width="536" height="204" xlink:href="../metamask-wallet-ethereum-chrome.png"  transform="matrix(0.1059 0 0 0.1059 102.6298 169.693)">
</image>
<g>
	<rect x="236.8995" y="141.3002" class="st1" width="23.1005" height="1.6668"/>
</g>
<g>
	<rect x="236.8995" y="146.4313" class="st1" width="23.1005" height="1.6668"/>
</g>
<g>
	<rect y="141.3002" class="st1" width="16.3933" height="1.6668"/>
</g>
<g>
	<rect y="146.4313" class="st1" width="16.3933" height="1.6668"/>
</g>
</svg>
