<?xml version="1.0" encoding="utf-8"?>
<!-- Generator: Adobe Illustrator 23.0.1, SVG Export Plug-In . SVG Version: 6.00 Build 0)  -->
<svg version="1.1" id="Layer_1" xmlns="http://www.w3.org/2000/svg" xmlns:xlink="http://www.w3.org/1999/xlink" x="0px" y="0px"
	 viewBox="0 0 512 320" style="enable-background:new 0 0 512 320;" xml:space="preserve">
<style type="text/css">
	.Drop_x0020_Shadow{fill:none;}
	.Round_x0020_Corners_x0020_2_x0020_pt{fill:#FFFFFF;stroke:#231F20;stroke-miterlimit:10;}
	.Live_x0020_Reflect_x0020_X{fill:none;}
	.Bevel_x0020_Soft{fill:url(#SVGID_1_);}
	.Dusk{fill:#FFFFFF;}
	.Foliage_GS{fill:#FFDD00;}
	.Pompadour_GS{fill-rule:evenodd;clip-rule:evenodd;fill:#44ADE2;}
	.st0{fill:#FFFFFF;}
	.st1{fill:#7239FF;}
	.st2{fill:#562ADD;}
	.st3{fill:#4F2BBC;stroke:#4F2BBC;stroke-width:0.5;stroke-miterlimit:10;}
	.st4{fill:#4F2BBC;}
	.st5{fill:#FFFFFF;stroke:#25E899;stroke-width:11;stroke-linecap:round;stroke-miterlimit:10;}
	.st6{fill:#2E1984;}
	.st7{fill:#24E899;}
	.st8{fill:#EFF4EE;}
	.st9{fill:#391EA8;}
	.st10{fill:#FFFFFF;stroke:#FFFFFF;stroke-width:0.5;stroke-miterlimit:10;}
</style>
<linearGradient id="SVGID_1_" gradientUnits="userSpaceOnUse" x1="0" y1="0" x2="0.7071" y2="0.7071">
	<stop  offset="0" style="stop-color:#DEDFE3"/>
	<stop  offset="0.1783" style="stop-color:#DADBDF"/>
	<stop  offset="0.3611" style="stop-color:#CECFD3"/>
	<stop  offset="0.546" style="stop-color:#B9BCBF"/>
	<stop  offset="0.7324" style="stop-color:#9CA0A2"/>
	<stop  offset="0.9181" style="stop-color:#787D7E"/>
	<stop  offset="1" style="stop-color:#656B6C"/>
</linearGradient>
<rect x="-40" y="-40" class="st0" width="592" height="400"/>
<rect class="st1" width="512" height="320"/>
<g>
	<g>
		<g>
			<path class="st2" d="M459.3216,40.473V24.677c0-1.3292,1.0875-2.4167,2.4167-2.4167h15.7961
				c1.3292,0,2.4167,1.0875,2.4167,2.4167v15.796c0,1.3292-1.0875,2.4167-2.4167,2.4167h-15.7961
				C460.4091,42.8897,459.3216,41.8022,459.3216,40.473z"/>
		</g>
	</g>
	<g>
		<g>
			<path class="st2" d="M459.3216,138.4626v-15.7961c0-1.3292,1.0875-2.4167,2.4167-2.4167h15.7961
				c1.3292,0,2.4167,1.0875,2.4167,2.4167v15.7961c0,1.3292-1.0875,2.4167-2.4167,2.4167h-15.7961
				C460.4091,140.8792,459.3216,139.7917,459.3216,138.4626z"/>
		</g>
	</g>
	<g>
		<g>
			<path class="st2" d="M420.0464,88.3768v-15.796c0-1.3292,1.0875-2.4167,2.4167-2.4167h15.7961
				c1.3292,0,2.4167,1.0875,2.4167,2.4167v15.796c0,1.3292-1.0875,2.4167-2.4167,2.4167H422.463
				C421.1339,90.7935,420.0464,89.706,420.0464,88.3768z"/>
		</g>
	</g>
	<g>
		<g>
			<path class="st2" d="M370.0598,91.253V75.457c0-1.3292,1.0875-2.4167,2.4167-2.4167h15.7961
				c1.3292,0,2.4167,1.0875,2.4167,2.4167v15.796c0,1.3292-1.0875,2.4167-2.4167,2.4167h-15.7961
				C371.1473,93.6697,370.0598,92.5822,370.0598,91.253z"/>
		</g>
	</g>
	<g>
		<g>
			<path class="st2" d="M330.3879,32.5386v-15.796c0-1.3292,1.0875-2.4167,2.4167-2.4167h15.7961
				c1.3292,0,2.4167,1.0875,2.4167,2.4167v15.796c0,1.3292-1.0875,2.4167-2.4167,2.4167h-15.7961
				C331.4754,34.9553,330.3879,33.8678,330.3879,32.5386z"/>
		</g>
	</g>
	<g>
		<g>
			<path class="st2" d="M370.0598,189.2426v-15.7961c0-1.3292,1.0875-2.4167,2.4167-2.4167h15.7961
				c1.3292,0,2.4167,1.0875,2.4167,2.4167v15.7961c0,1.3292-1.0875,2.4167-2.4167,2.4167h-15.7961
				C371.1473,191.6592,370.0598,190.5717,370.0598,189.2426z"/>
		</g>
	</g>
	<g>
		<g>
			<path class="st2" d="M330.7846,139.1568v-15.7961c0-1.3292,1.0875-2.4167,2.4167-2.4167h15.796
				c1.3292,0,2.4167,1.0875,2.4167,2.4167v15.7961c0,1.3292-1.0875,2.4167-2.4167,2.4167h-15.796
				C331.8721,141.5735,330.7846,140.486,330.7846,139.1568z"/>
		</g>
	</g>
	<g>
		<g>
			<path class="st2" d="M265.326,139.1568v-15.7961c0-1.3292,1.0875-2.4167,2.4167-2.4167h15.7961
				c1.3292,0,2.4167,1.0875,2.4167,2.4167v15.7961c0,1.3292-1.0875,2.4167-2.4167,2.4167h-15.7961
				C266.4135,141.5735,265.326,140.486,265.326,139.1568z"/>
		</g>
	</g>
	<g>
		<g>
			<polygon class="st2" points="428.8308,80.4571 467.5318,33.9957 469.3589,35.5182 431.8898,80.5013 470.5723,129.83 
				468.6987,131.2991 			"/>
		</g>
	</g>
	<g>
		<g>
			
				<rect x="329.0324" y="106.2655" transform="matrix(0.6569 -0.7539 0.7539 0.6569 42.7359 308.8341)" class="st2" width="63.4074" height="2.3807"/>
		</g>
	</g>
	<g>
		<g>
			
				<rect x="357.7609" y="123.6073" transform="matrix(0.7579 -0.6524 0.6524 0.7579 -15.1574 272.0594)" class="st2" width="2.3801" height="65.6863"/>
		</g>
	</g>
	<g>
		<g>
			
				<rect x="275.6382" y="129.7213" transform="matrix(0.9999 -0.0103 0.0103 0.9999 -1.3382 3.2064)" class="st2" width="67.0499" height="2.3804"/>
		</g>
	</g>
	<g>
		<g>
			<polygon class="st2" points="339.7178,25.3066 341.689,23.9746 380.9688,82.1087 428.6727,78.0036 428.8773,80.3746 
				379.7787,84.6006 			"/>
		</g>
	</g>
</g>
<g>
	<g>
		<path class="st2" d="M93.8451,54.3749c-8.087,0-14.6661-6.579-14.6661-14.6661s6.579-14.6661,14.6661-14.6661
			s14.6661,6.579,14.6661,14.6661S101.9321,54.3749,93.8451,54.3749z M93.8451,32.6123c-3.9123,0-7.0965,3.1823-7.0965,7.0965
			s3.1842,7.0965,7.0965,7.0965c3.9123,0,7.0965-3.1823,7.0965-7.0965S97.7574,32.6123,93.8451,32.6123z"/>
	</g>
</g>
<g>
	<g>
		<path class="st2" d="M159.2325,100.0662c-21.858,0-39.6407-17.7827-39.6407-39.6407s17.7827-39.6407,39.6407-39.6407
			s39.6407,17.7827,39.6407,39.6407S181.0906,100.0662,159.2325,100.0662z M159.2325,29.9769
			c-16.7885,0-30.4487,13.6579-30.4487,30.4487s13.6602,30.4487,30.4487,30.4487s30.4487-13.6579,30.4487-30.4487
			S176.0211,29.9769,159.2325,29.9769z"/>
	</g>
</g>
<g>
	<path class="st3" d="M43.9175,91.6085c0-2.6601,0.6206-4.7839,1.8608-6.3705c1.1101-1.4349,2.4551-2.1519,4.0342-2.1519
		s2.9231,0.717,4.0342,2.1519c1.2393,1.5865,1.8598,3.7459,1.8598,6.479c0,2.7247-0.6206,4.8813-1.8598,6.4669
		c-1.111,1.4349-2.4523,2.1528-4.0239,2.1528s-2.9203-0.7179-4.0445-2.1528C44.5381,96.5984,43.9175,94.4062,43.9175,91.6085z
		 M46.3942,91.6197c0,1.8524,0.321,3.3921,0.9632,4.6182c0.6412,1.2037,1.4602,1.8056,2.4551,1.8056
		c0.9875,0,1.8056-0.6019,2.4551-1.8056c0.6487-1.1972,0.9734-2.7079,0.9734-4.5321s-0.3248-3.3378-0.9734-4.5424
		c-0.6496-1.1972-1.4677-1.7953-2.4551-1.7953c-0.9809,0-1.7953,0.5981-2.4448,1.7953
		C46.719,88.3531,46.3942,89.8385,46.3942,91.6197z"/>
	<path class="st3" d="M62.6498,85.7248h-2.8876l1.3844-2.3578h4.0229v16.6993h-2.5197V85.7248z"/>
	<path class="st3" d="M71.2582,91.6085c0-2.6601,0.6206-4.7839,1.8608-6.3705c1.1101-1.4349,2.4551-2.1519,4.0342-2.1519
		s2.9231,0.717,4.0342,2.1519c1.2393,1.5865,1.8598,3.7459,1.8598,6.479c0,2.7247-0.6206,4.8813-1.8598,6.4669
		c-1.111,1.4349-2.4523,2.1528-4.0239,2.1528c-1.5716,0-2.9203-0.7179-4.0445-2.1528
		C71.8788,96.5984,71.2582,94.4062,71.2582,91.6085z M73.7349,91.6197c0,1.8524,0.321,3.3921,0.9632,4.6182
		c0.6412,1.2037,1.4602,1.8056,2.4551,1.8056c0.9875,0,1.8056-0.6019,2.4551-1.8056c0.6487-1.1972,0.9734-2.7079,0.9734-4.5321
		s-0.3248-3.3378-0.9734-4.5424c-0.6496-1.1972-1.4677-1.7953-2.4551-1.7953c-0.9809,0-1.7953,0.5981-2.4448,1.7953
		C74.0597,88.3531,73.7349,89.8385,73.7349,91.6197z"/>
	<path class="st3" d="M89.9914,85.7248h-2.8876l1.3844-2.3578h4.0229v16.6993h-2.5197V85.7248z"/>
	<path class="st3" d="M37.0818,118.1883c0-2.6601,0.6206-4.7839,1.8608-6.3705c1.1101-1.4349,2.4551-2.1519,4.0342-2.1519
		c1.579,0,2.9231,0.717,4.0342,2.1519c1.2393,1.5865,1.8598,3.7459,1.8598,6.479c0,2.7247-0.6206,4.8813-1.8598,6.4669
		c-1.111,1.4349-2.4523,2.1528-4.0239,2.1528c-1.5716,0-2.9203-0.7179-4.0445-2.1528
		C37.7024,123.1781,37.0818,120.986,37.0818,118.1883z M39.5585,118.1995c0,1.8524,0.321,3.3921,0.9631,4.6183
		c0.6412,1.2037,1.4602,1.8055,2.4551,1.8055c0.9875,0,1.8056-0.6019,2.4551-1.8055c0.6487-1.1972,0.9734-2.7079,0.9734-4.5321
		s-0.3248-3.3378-0.9734-4.5424c-0.6496-1.1972-1.4677-1.7953-2.4551-1.7953c-0.9809,0-1.7953,0.5981-2.4448,1.7953
		C39.8833,114.9328,39.5585,116.4183,39.5585,118.1995z"/>
	<path class="st3" d="M55.8141,112.3045h-2.8876l1.3844-2.3578h4.0229v16.6993h-2.5197V112.3045z"/>
	<path class="st3" d="M69.4854,112.3045h-2.8876l1.3844-2.3578h4.023v16.6993h-2.5197V112.3045z"/>
	<path class="st3" d="M83.1558,112.3045h-2.8876l1.3844-2.3578h4.0229v16.6993h-2.5197V112.3045z"/>
	<path class="st3" d="M43.9175,144.7689c0-2.6601,0.6206-4.7839,1.8608-6.3705c1.1101-1.4349,2.4551-2.1519,4.0342-2.1519
		s2.9231,0.717,4.0342,2.1519c1.2393,1.5865,1.8598,3.7459,1.8598,6.479c0,2.7247-0.6206,4.8813-1.8598,6.4669
		c-1.111,1.4349-2.4523,2.1528-4.0239,2.1528s-2.9203-0.7179-4.0445-2.1528C44.5381,149.7588,43.9175,147.5667,43.9175,144.7689z
		 M46.3942,144.7802c0,1.8524,0.321,3.3921,0.9632,4.6183c0.6412,1.2037,1.4602,1.8056,2.4551,1.8056
		c0.9875,0,1.8056-0.6019,2.4551-1.8056c0.6487-1.1971,0.9734-2.7079,0.9734-4.5321s-0.3248-3.3378-0.9734-4.5424
		c-0.6496-1.1972-1.4677-1.7953-2.4551-1.7953c-0.9809,0-1.7953,0.5981-2.4448,1.7953
		C46.719,141.5135,46.3942,142.999,46.3942,144.7802z"/>
	<path class="st3" d="M62.6498,138.8852h-2.8876l1.3844-2.3578h4.0229v16.6993h-2.5197V138.8852z"/>
	<path class="st3" d="M76.3201,138.8852h-2.8876l1.3844-2.3578h4.0229v16.6993h-2.5197V138.8852z"/>
	<path class="st3" d="M84.9295,144.7689c0-2.6601,0.6206-4.7839,1.8608-6.3705c1.1101-1.4349,2.4551-2.1519,4.0342-2.1519
		c1.579,0,2.9231,0.717,4.0342,2.1519c1.2393,1.5865,1.8598,3.7459,1.8598,6.479c0,2.7247-0.6206,4.8813-1.8598,6.4669
		c-1.111,1.4349-2.4523,2.1528-4.0239,2.1528s-2.9203-0.7179-4.0445-2.1528C85.5501,149.7588,84.9295,147.5667,84.9295,144.7689z
		 M87.4062,144.7802c0,1.8524,0.3211,3.3921,0.9632,4.6183c0.6412,1.2037,1.4602,1.8056,2.4551,1.8056
		c0.9875,0,1.8055-0.6019,2.4551-1.8056c0.6487-1.1971,0.9734-2.7079,0.9734-4.5321s-0.3248-3.3378-0.9734-4.5424
		c-0.6496-1.1972-1.4677-1.7953-2.4551-1.7953c-0.9809,0-1.7953,0.5981-2.4448,1.7953
		C87.731,141.5135,87.4062,142.999,87.4062,144.7802z"/>
	<path class="st3" d="M37.0818,171.3487c0-2.6601,0.6206-4.783,1.8608-6.3705c1.1101-1.4349,2.4551-2.1519,4.0342-2.1519
		c1.579,0,2.9231,0.717,4.0342,2.1519c1.2393,1.5875,1.8598,3.7459,1.8598,6.479c0,2.7256-0.6206,4.8803-1.8598,6.4678
		c-1.111,1.434-2.4523,2.1509-4.0239,2.1509c-1.5716,0-2.9203-0.717-4.0445-2.1509
		C37.7024,176.3376,37.0818,174.1474,37.0818,171.3487z M39.5585,171.3599c0,1.8533,0.321,3.3921,0.9631,4.6183
		c0.6412,1.2037,1.4602,1.8065,2.4551,1.8065c0.9875,0,1.8056-0.6028,2.4551-1.8065c0.6487-1.1981,0.9734-2.7069,0.9734-4.5321
		c0-1.8233-0.3248-3.3378-0.9734-4.5415c-0.6496-1.1981-1.4677-1.7971-2.4551-1.7971c-0.9809,0-1.7953,0.599-2.4448,1.7971
		C39.8833,168.0933,39.5585,169.5796,39.5585,171.3599z"/>
	<path class="st3" d="M50.7522,171.3487c0-2.6601,0.6206-4.783,1.8608-6.3705c1.1101-1.4349,2.4551-2.1519,4.0342-2.1519
		s2.9231,0.717,4.0342,2.1519c1.2393,1.5875,1.8598,3.7459,1.8598,6.479c0,2.7256-0.6206,4.8803-1.8598,6.4678
		c-1.111,1.434-2.4523,2.1509-4.0239,2.1509s-2.9203-0.717-4.0445-2.1509C51.3728,176.3376,50.7522,174.1474,50.7522,171.3487z
		 M53.2289,171.3599c0,1.8533,0.321,3.3921,0.9632,4.6183c0.6412,1.2037,1.4602,1.8065,2.4551,1.8065
		c0.9875,0,1.8056-0.6028,2.4551-1.8065c0.6487-1.1981,0.9734-2.7069,0.9734-4.5321c0-1.8233-0.3248-3.3378-0.9734-4.5415
		c-0.6496-1.1981-1.4677-1.7971-2.4551-1.7971c-0.9809,0-1.7953,0.599-2.4448,1.7971
		C53.5537,168.0933,53.2289,169.5796,53.2289,171.3599z"/>
	<path class="st3" d="M64.4235,171.3487c0-2.6601,0.6206-4.783,1.8608-6.3705c1.1101-1.4349,2.4551-2.1519,4.0342-2.1519
		s2.9231,0.717,4.0342,2.1519c1.2393,1.5875,1.8598,3.7459,1.8598,6.479c0,2.7256-0.6206,4.8803-1.8598,6.4678
		c-1.111,1.434-2.4523,2.1509-4.0239,2.1509c-1.5715,0-2.9203-0.717-4.0445-2.1509
		C65.0441,176.3376,64.4235,174.1474,64.4235,171.3487z M66.9002,171.3599c0,1.8533,0.3211,3.3921,0.9632,4.6183
		c0.6412,1.2037,1.4602,1.8065,2.4551,1.8065c0.9875,0,1.8055-0.6028,2.4551-1.8065c0.6487-1.1981,0.9734-2.7069,0.9734-4.5321
		c0-1.8233-0.3248-3.3378-0.9734-4.5415c-0.6496-1.1981-1.4677-1.7971-2.4551-1.7971c-0.9809,0-1.7953,0.599-2.4448,1.7971
		C67.225,168.0933,66.9002,169.5796,66.9002,171.3599z"/>
	<path class="st3" d="M83.1558,165.465h-2.8876l1.3844-2.3578h4.0229v16.6993h-2.5197V165.465z"/>
</g>
<g>
	<g>
		<rect x="0.6286" y="207.018" class="st4" width="510.7428" height="112.982"/>
	</g>
</g>
<g>
	<g>
		<g>
			<g>
				<g>
					<g>
						<g>
							<polygon class="st0" points="279.1364,69.8928 285.4874,82.4048 280.6685,102.8672 269.1924,93.4913 271.2035,78.4823 
															"/>
						</g>
					</g>
				</g>
			</g>
		</g>
		<g>
			<g>
				<g>
					<g>
						<g>
							<path class="st5" d="M262.1831,28.4684"/>
						</g>
					</g>
				</g>
			</g>
		</g>
		<g>
			<g>
				<g>
					<g>
						<g>
							<path class="st5" d="M262.1831,63.3082"/>
						</g>
					</g>
				</g>
			</g>
		</g>
		<g>
			<g>
				<g>
					<g>
						<g>
							<path class="st6" d="M262.183,65.7001c-1.3209,0-2.3921-1.0712-2.3921-2.3921V44.4543c0-1.3209,1.0712-2.3921,2.3921-2.3921
								c1.3209,0,2.3921,1.0712,2.3921,2.3921v18.8537C264.575,64.629,263.5039,65.7001,262.183,65.7001z"/>
						</g>
					</g>
				</g>
			</g>
		</g>
		<g>
			<g>
				<g>
					<g>
						<g>
							<line class="st0" x1="258.6266" y1="63.3082" x2="266.0203" y2="63.3082"/>
						</g>
					</g>
				</g>
			</g>
		</g>
		<g>
			<g>
				<g>
					<g>
						<g>
							<path class="st6" d="M266.0204,65.7001h-7.3937c-1.3209,0-2.3921-1.0712-2.3921-2.3921c0-1.3209,1.0712-2.3921,2.3921-2.3921
								h7.3937c1.3209,0,2.3921,1.0712,2.3921,2.3921C268.4125,64.629,267.3413,65.7001,266.0204,65.7001z"/>
						</g>
					</g>
				</g>
			</g>
		</g>
		<g>
			<g>
				<g>
					<g>
						<g>
							<path class="st0" d="M279.1364,69.8928l7.8601-7.4084c-6.0148-6.0148-14.3242-9.735-23.5024-9.735
								c-18.3565,0-33.2375,14.8809-33.2375,33.2375s14.8809,33.2375,33.2375,33.2375c6.8423,0,12.8599,2.4978,18.1458-1.0466
								l6.5782,0.9102l-0.1882-10.6793l-18.8376-14.9174l0,0l4.0498-19.0739L279.1364,69.8928"/>
						</g>
					</g>
				</g>
			</g>
		</g>
		<g>
			<g>
				<g>
					<g>
						<g>
							<path class="st6" d="M263.4941,122.4861c-20.1258,0-36.4996-16.3733-36.4996-36.4991s16.3737-36.4996,36.4996-36.4996
								c9.7497,0,18.9153,3.7967,25.8091,10.6909l2.3755,2.3755l-10.3048,9.7127l-4.475-4.7476l5.2802-4.9761
								c-5.29-4.2333-11.8109-6.5315-18.6851-6.5315c-16.5288,0-29.9757,13.4469-29.9757,29.9757
								c0,16.5284,13.4469,29.9753,29.9757,29.9753"/>
						</g>
					</g>
				</g>
			</g>
		</g>
		<g>
			<g>
				<g>
					<g>
						<g>
							<path class="st7" d="M281.8148,103.7368l-4.6856-4.5395c3.4501-3.5605,5.3499-8.2521,5.3499-13.2104
								c0-5.1758-2.0451-10.0126-5.7585-13.6194l-2.4439-2.3738l2.621-2.4736l2.2328,2.3662l2.1355-2.1984
								c4.9893,4.8462,7.7369,11.3449,7.7369,18.299C289.0029,92.6492,286.4499,98.9526,281.8148,103.7368z"/>
						</g>
					</g>
				</g>
			</g>
		</g>
		<g>
			<g>
				<g>
					<g>
						<g>
							<path class="st6" d="M279.4718,101.4669"/>
						</g>
					</g>
				</g>
			</g>
		</g>
		<g>
			<g>
				<g>
					<g>
						<g>
							<circle class="st8" cx="263.4941" cy="85.9868" r="7.5045"/>
						</g>
					</g>
				</g>
			</g>
		</g>
		<g>
			<g>
				<g>
					<g>
						<g>
							<path class="st6" d="M263.4941,96.753c-5.9365,0-10.7665-4.8296-10.7665-10.766c0-5.9364,4.83-10.7665,10.7665-10.7665
								c5.9364,0,10.7665,4.83,10.7665,10.7665C274.2606,91.9234,269.4305,96.753,263.4941,96.753z M263.4941,81.7443
								c-2.3394,0-4.2426,1.9032-4.2426,4.2426c0,2.339,1.9032,4.2422,4.2426,4.2422s4.2426-1.9032,4.2426-4.2422
								C267.7367,83.6475,265.8335,81.7443,263.4941,81.7443z"/>
						</g>
					</g>
				</g>
			</g>
		</g>
		<g>
			<g>
				<g>
					<g>
						<g>
							<line class="st6" x1="286.9965" y1="62.4844" x2="268.0297" y2="80.009"/>
						</g>
					</g>
				</g>
			</g>
		</g>
		<g>
			<g>
				<g>
					<g>
						<g>
							
								<rect x="264.6015" y="67.9847" transform="matrix(0.7345 -0.6786 0.6786 0.7345 25.3344 207.2448)" class="st6" width="25.8232" height="6.524"/>
						</g>
					</g>
				</g>
			</g>
		</g>
		<g>
			<g>
				<g>
					<g>
						<g>
							<polyline class="st0" points="267.0349,92.6044 280.6685,102.8672 288.0299,108.4086 288.0299,122.4862 273.2422,121.7739 
															"/>
						</g>
					</g>
				</g>
			</g>
		</g>
		<g>
			<g>
				<g>
					<g>
						<g>
							<polygon class="st6" points="291.2918,122.4862 262.9015,122.4862 262.9015,115.9623 284.768,115.9623 284.768,110.036 
								265.0732,95.2108 268.9969,89.9985 291.2918,106.7808 							"/>
						</g>
					</g>
				</g>
			</g>
		</g>
		<g>
			<g>
				<g>
					<g>
						<g>
							<path class="st6" d="M279.7697,101.708"/>
						</g>
					</g>
				</g>
			</g>
		</g>
		<g>
			<g>
				<g>
					<g>
						<g>
							
								<rect x="294.3721" y="44.4002" transform="matrix(0.7071 -0.7071 0.7071 0.7071 54.0581 223.0059)" class="st7" width="3.6978" height="3.6978"/>
						</g>
					</g>
				</g>
			</g>
		</g>
		<g>
			<g>
				<g>
					<g>
						<g>
							
								<rect x="282.7332" y="32.7613" transform="matrix(0.7071 -0.7071 0.7071 0.7071 59.2788 210.4021)" class="st7" width="1.7678" height="1.7678"/>
						</g>
					</g>
				</g>
			</g>
		</g>
		<g>
			<g>
				<g>
					<g>
						<g>
							<circle class="st7" cx="295.9668" cy="22.6695" r="1.8847"/>
						</g>
					</g>
				</g>
			</g>
		</g>
		<g>
			<g>
				<g>
					<g>
						<g>
							<path class="st6" d="M250.8601,72.2847c-1.3209,0-2.3921-1.0712-2.3921-2.3921V44.4543c0-1.3209,1.0712-2.3921,2.3921-2.3921
								c1.3209,0,2.3921,1.0712,2.3921,2.3921v25.4383C253.2522,71.2136,252.181,72.2847,250.8601,72.2847z"/>
						</g>
					</g>
				</g>
			</g>
		</g>
	</g>
	<g>
		<g>
			<g>
				<g>
					<path class="st0" d="M159.8276,161.7431h13.1405v1.0507c0,2.3893-0.2812,4.5039-0.8442,6.3439
						c-0.5493,1.7027-1.4764,3.2955-2.7809,4.7785c-2.9523,3.323-6.7076,4.984-11.2664,4.984c-4.449,0-8.2598-1.6061-11.4312-4.8192
						c-3.1725-3.2269-4.7582-7.0992-4.7582-11.6168c0-4.6138,1.6132-8.5278,4.8406-11.7409
						c3.2264-3.2264,7.1536-4.8401,11.7816-4.8401c2.4849,0,4.8055,0.506,6.9614,1.5171c2.0597,1.0121,4.0854,2.6553,6.0764,4.9301
						l-3.4191,3.2747c-2.609-3.4741-5.7881-5.2113-9.5363-5.2113c-3.3647,0-6.1863,1.1606-8.4657,3.4812
						c-2.2794,2.2794-3.4191,5.1356-3.4191,8.5685c0,3.5427,1.2699,6.4609,3.8107,8.7541c2.375,2.1284,4.9499,3.1923,7.7237,3.1923
						c2.3618,0,4.4831-0.7944,6.3648-2.3832c1.8807-1.6025,2.9314-3.5198,3.1511-5.7525h-7.9297V161.7431z"/>
				</g>
			</g>
		</g>
		<g>
			<g>
				<g>
					<path class="st0" d="M194.7701,146.5012v31.8021h-4.7994v-31.8021H194.7701z"/>
				</g>
			</g>
		</g>
		<g>
			<g>
				<g>
					<path class="st0" d="M222.1538,151.0122v27.2911h-4.7994v-27.2911h-7.3118v-4.511h19.4021v4.511H222.1538z"/>
				</g>
			</g>
		</g>
		<g>
			<g>
				<g>
					<path class="st0" d="M267.0654,148.2003v5.6747c-2.7738-2.3206-5.6436-3.4812-8.6096-3.4812
						c-3.2681,0-6.0215,1.1743-8.2592,3.5224c-2.2525,2.3344-3.3779,5.1905-3.3779,8.5685c0,3.3367,1.1255,6.1517,3.3779,8.4449
						c2.2515,2.2932,5.0115,3.4395,8.2796,3.4395c1.6895,0,3.1241-0.2741,4.3051-0.8239c0.6591-0.2741,1.3421-0.6449,2.0496-1.1117
						c0.7069-0.4669,1.452-1.0304,2.2347-1.6895v5.7982c-2.7463,1.5588-5.6299,2.3379-8.6508,2.3379
						c-4.5451,0-8.4245-1.5857-11.6377-4.7582c-3.1994-3.1989-4.7989-7.0575-4.7989-11.5751c0-4.0508,1.3386-7.6622,4.0167-10.8347
						c3.2956-3.8855,7.5589-5.8288,12.7906-5.8288C261.6414,145.8833,264.4015,146.6558,267.0654,148.2003z"/>
				</g>
			</g>
		</g>
		<g>
			<g>
				<g>
					<path class="st7" d="M285.1647,157.1902c0-4.476,1.6407-8.3213,4.923-11.5344c3.2676-3.2132,7.1948-4.8192,11.7816-4.8192
						c4.5314,0,8.4169,1.6203,11.6575,4.8609c3.2549,3.2406,4.8818,7.1332,4.8818,11.6784c0,4.5726-1.634,8.452-4.9021,11.6377
						c-3.2818,3.1994-7.2436,4.7989-11.8843,4.7989c-4.1062,0-7.7929-1.4209-11.061-4.2639
						C286.9635,166.4045,285.1647,162.2851,285.1647,157.1902z M290.0053,157.2421c0,3.5122,1.1804,6.3999,3.5427,8.664
						c2.3476,2.2637,5.0598,3.3952,8.1357,3.3952c3.3368,0,6.1517-1.1524,8.4449-3.4573c2.2932-2.3318,3.44-5.1722,3.44-8.5196
						c0-3.3886-1.1331-6.2285-3.3988-8.5201c-2.252-2.3049-5.0395-3.4573-8.3625-3.4573c-3.3093,0-6.1039,1.1524-8.3833,3.4573
						C291.1445,151.0822,290.0053,153.8946,290.0053,157.2421z"/>
				</g>
			</g>
		</g>
		<g>
			<g>
				<g>
					<path class="st0" d="M337.3426,146.5012v31.8021h-4.7994v-31.8021H337.3426z"/>
				</g>
			</g>
		</g>
		<g>
			<g>
				<g>
					<path class="st0" d="M355.9513,178.3033v-33.9646l23.193,24.263v-22.1006h4.7989v33.7382l-23.1925-24.2015v22.2654H355.9513z"
						/>
				</g>
			</g>
		</g>
	</g>
</g>
<g>
	<path class="st9" d="M159.3736,229.1781v25.9953h-4.5711v-25.9953h-6.9648v-4.2969h18.4812v4.2969H159.3736z"/>
	<path class="st9" d="M183.6424,236.0641h4.4336v19.1094h-4.4336v-2.0016c-1.818,1.7016-3.7734,2.5516-5.8664,2.5516
		c-2.6422,0-4.8266-0.9547-6.5523-2.8656c-1.7141-1.9484-2.5703-4.3813-2.5703-7.2984c0-2.8641,0.8562-5.25,2.5703-7.1609
		c1.7133-1.9094,3.8578-2.8641,6.4344-2.8641c2.2234,0,4.2188,0.9156,5.9844,2.7469V236.0641z M173.1658,245.5594
		c0,1.8313,0.4906,3.3234,1.4711,4.4734c1.007,1.1641,2.2758,1.7469,3.8063,1.7469c1.6351,0,2.9555-0.5625,3.9633-1.6875
		c1.007-1.1641,1.5102-2.6422,1.5102-4.4344c0-1.7922-0.5031-3.2687-1.5102-4.4344c-1.0078-1.1375-2.3156-1.7063-3.9242-1.7063
		c-1.5172,0-2.7859,0.5766-3.8063,1.7266C173.669,242.4078,173.1658,243.8469,173.1658,245.5594z"/>
	<path class="st9" d="M198.0619,265.5719h-4.4141v-29.5078h4.4141v2.0797c1.7399-1.7391,3.7148-2.6094,5.925-2.6094
		c2.6289,0,4.7937,0.9688,6.4945,2.9031c1.7266,1.9234,2.5891,4.35,2.5891,7.2797c0,2.8641-0.8562,5.2516-2.5695,7.1609
		c-1.7008,1.8969-3.8453,2.8453-6.4352,2.8453c-2.2367,0-4.2383-0.8969-6.0039-2.6891V265.5719z M208.5588,245.7359
		c0-1.8297-0.4977-3.3219-1.4914-4.4719c-1.007-1.1641-2.2758-1.7469-3.8063-1.7469c-1.6219,0-2.9359,0.5625-3.943,1.6875
		c-1.0078,1.125-1.5109,2.6031-1.5109,4.4344c0,1.7922,0.5031,3.2687,1.5109,4.4328c0.9937,1.1391,2.3016,1.7078,3.9234,1.7078
		c1.5305,0,2.7922-0.575,3.7867-1.7266C208.0486,248.9016,208.5588,247.4625,208.5588,245.7359z"/>
	<path class="st9" d="M244.2268,236.0641h4.4336v19.1094h-4.4336v-2.0016c-1.818,1.7016-3.7734,2.5516-5.8664,2.5516
		c-2.6422,0-4.8266-0.9547-6.5524-2.8656c-1.7141-1.9484-2.5703-4.3813-2.5703-7.2984c0-2.8641,0.8562-5.25,2.5703-7.1609
		c1.7133-1.9094,3.8578-2.8641,6.4344-2.8641c2.2234,0,4.2188,0.9156,5.9844,2.7469V236.0641z M233.7502,245.5594
		c0,1.8313,0.4906,3.3234,1.4711,4.4734c1.007,1.1641,2.2758,1.7469,3.8062,1.7469c1.6352,0,2.9555-0.5625,3.9633-1.6875
		c1.007-1.1641,1.5102-2.6422,1.5102-4.4344c0-1.7922-0.5031-3.2687-1.5102-4.4344c-1.0078-1.1375-2.3156-1.7063-3.9242-1.7063
		c-1.5172,0-2.7859,0.5766-3.8062,1.7266C234.2533,242.4078,233.7502,243.8469,233.7502,245.5594z"/>
	<path class="st9" d="M271.0455,222.0359v16.2453c1.7656-1.8313,3.7672-2.7469,6.0031-2.7469c2.5766,0,4.7219,0.9609,6.4359,2.8844
		c1.7125,1.9094,2.5703,4.2906,2.5703,7.1406c0,2.9438-0.8641,5.3766-2.5906,7.2984c-1.7125,1.9109-3.8781,2.8656-6.4937,2.8656
		c-2.2109,0-4.1859-0.85-5.925-2.5516v2.0016h-4.4141v-33.1375H271.0455z M281.5424,245.7563c0-1.8313-0.4969-3.3219-1.4906-4.4734
		c-1.0078-1.1766-2.2703-1.7656-3.7875-1.7656c-1.6219,0-2.9422,0.5688-3.9625,1.7063c-1.0078,1.125-1.5109,2.5906-1.5109,4.3953
		c0,1.8578,0.4969,3.3422,1.4906,4.4531c0.9937,1.1391,2.3015,1.7078,3.9234,1.7078c1.5313,0,2.8-0.5688,3.8062-1.7078
		C281.0315,248.9219,281.5424,247.4828,281.5424,245.7563z"/>
	<path class="st9" d="M295.1377,236.0641v10.9672c0,3.1656,1.2484,4.7484,3.7469,4.7484s3.7484-1.5828,3.7484-4.7484v-10.9672
		h4.4141v11.0656c0,1.5297-0.1906,2.8516-0.5688,3.9625c-0.3672,0.9953-1.0016,1.8906-1.9031,2.6891
		c-1.4922,1.2937-3.3875,1.9422-5.6906,1.9422c-2.2891,0-4.1781-0.6484-5.6688-1.9422c-0.9156-0.7984-1.5641-1.6938-1.9422-2.6891
		c-0.3672-0.8891-0.55-2.2094-0.55-3.9625v-11.0656H295.1377z"/>
	<path class="st9" d="M317.1705,240.1844v14.9891h-4.4141v-14.9891h-1.8844v-4.1203h1.8844v-7.0031h4.4141v7.0031h3.4328v4.1203
		H317.1705z"/>
	<path class="st9" d="M328.158,240.1844v14.9891h-4.4141v-14.9891h-1.8844v-4.1203h1.8844v-7.0031h4.4141v7.0031h3.4328v4.1203
		H328.158z"/>
	<path class="st9" d="M333.6893,245.4812c0-2.7594,0.9875-5.1078,2.9625-7.0437c1.975-1.9344,4.3828-2.9031,7.2203-2.9031
		c2.8516,0,5.2703,0.975,7.2594,2.9234c1.9625,1.9484,2.9422,4.3422,2.9422,7.1813c0,2.8641-0.9875,5.2641-2.9625,7.2
		c-1.9875,1.9219-4.4266,2.8844-7.3172,2.8844c-2.864,0-5.2656-0.9812-7.2-2.9437
		C334.658,250.8438,333.6893,248.4109,333.6893,245.4812z M338.2018,245.5594c0,1.9109,0.511,3.4219,1.5313,4.5328
		c1.0453,1.125,2.425,1.6875,4.1391,1.6875c1.7266,0,3.1063-0.5563,4.1406-1.6688c1.0328-1.1109,1.5484-2.5953,1.5484-4.4531
		c0-1.8562-0.5156-3.3406-1.5484-4.4531c-1.0469-1.125-2.4265-1.6875-4.1406-1.6875c-1.6875,0-3.0547,0.5625-4.1,1.6875
		C338.7252,242.3297,338.2018,243.7813,338.2018,245.5594z"/>
	<path class="st9" d="M358.744,236.0641h4.4344v1.7656c1.5422-1.5297,3.2828-2.2953,5.2188-2.2953c2.2234,0,3.9563,0.7,5.1985,2.1
		c1.0719,1.1891,1.6094,3.1328,1.6094,5.8266v11.7125h-4.4344V244.5c0-1.8828-0.2625-3.1844-0.7844-3.9031
		c-0.511-0.7328-1.4391-1.0984-2.7859-1.0984c-1.4656,0-2.5047,0.4828-3.1203,1.4516c-0.6016,0.9547-0.9016,2.6219-0.9016,5.0031
		v9.2203h-4.4344V236.0641z"/>
	<path class="st9" d="M383.5033,249.5031l3.925,1.5313l-5.5922,11.2016L378.8533,261L383.5033,249.5031z"/>
	<path class="st9" d="M178.551,295.6328c0,0.9031-0.0297,1.6969-0.0883,2.3844c-0.0586,0.6859-0.1406,1.2906-0.2453,1.8141
		c-0.3141,1.4391-0.9289,2.675-1.8438,3.7078c-1.7266,1.9891-4.1008,2.9828-7.1219,2.9828c-2.5508,0-4.65-0.6875-6.2977-2.0594
		c-1.7008-1.4141-2.682-3.3687-2.943-5.8672h4.4336c0.1695,0.9422,0.4516,1.6672,0.8438,2.1781
		c0.9156,1.1906,2.2492,1.7859,4.0023,1.7859c3.2305,0,4.8461-1.9828,4.8461-5.9453v-2.6688
		c-1.7531,1.7922-3.7742,2.6891-6.0625,2.6891c-2.6031,0-4.7352-0.9422-6.3961-2.8266c-1.6742-1.9094-2.5109-4.2953-2.5109-7.1609
		c0-2.7859,0.7781-5.1531,2.3344-7.1016c1.6742-2.0656,3.8851-3.1,6.6312-3.1c2.4063,0,4.4078,0.8969,6.0039,2.6875v-2.1578h4.4141
		V295.6328z M174.3135,286.5688c0-1.8563-0.4977-3.3406-1.4914-4.4531c-1.007-1.1375-2.2953-1.7063-3.8649-1.7063
		c-1.6742,0-2.9953,0.6203-3.9633,1.8625c-0.8766,1.1125-1.3141,2.5515-1.3141,4.3172c0,1.7391,0.4375,3.1656,1.3141,4.2766
		c0.9547,1.2172,2.2758,1.825,3.9633,1.825s3.0211-0.6156,4.0023-1.8453C173.8619,289.7344,174.3135,288.3094,174.3135,286.5688z"/>
	<path class="st9" d="M201.5252,287.5703h-13.6945c0.118,1.5688,0.6281,2.8188,1.5305,3.7469
		c0.9023,0.9156,2.0602,1.3734,3.4727,1.3734c1.0984,0,2.0078-0.2625,2.7273-0.7844c0.7063-0.5234,1.5102-1.4922,2.4125-2.9047
		l3.7281,2.0797c-0.5758,0.9813-1.1844,1.8219-1.825,2.5219c-0.6406,0.7-1.3273,1.275-2.0594,1.7266
		c-0.7328,0.45-1.5242,0.7813-2.3742,0.9906c-0.8508,0.2078-1.7727,0.3141-2.7664,0.3141c-2.8516,0-5.1398-0.9156-6.8664-2.7469
		c-1.7266-1.8453-2.5898-4.2906-2.5898-7.3375c0-3.0219,0.8367-5.4672,2.5109-7.3375c1.6875-1.8453,3.9242-2.7672,6.7101-2.7672
		c2.8117,0,5.0352,0.8969,6.6703,2.6875c1.6219,1.7797,2.4328,4.2453,2.4328,7.3969L201.5252,287.5703z M196.9932,283.9594
		c-0.6149-2.3547-2.0992-3.5313-4.4539-3.5313c-0.5359,0-1.0398,0.0812-1.5101,0.2453c-0.4711,0.1641-0.9,0.3984-1.2852,0.7063
		c-0.3859,0.3078-0.7164,0.6765-0.9906,1.1078c-0.275,0.4328-0.4844,0.9235-0.6281,1.4719H196.9932z"/>
	<path class="st9" d="M210.9033,281.0953v14.9891h-4.4141v-14.9891h-1.8836v-4.1203h1.8836v-7.0031h4.4141v7.0031h3.4336v4.1203
		H210.9033z"/>
	<path class="st9" d="M243.8244,276.975h4.4336v19.1094h-4.4336v-2.0016c-1.818,1.7015-3.7734,2.5515-5.8664,2.5515
		c-2.6422,0-4.8266-0.9547-6.5524-2.8656c-1.7141-1.9484-2.5703-4.3812-2.5703-7.2984c0-2.864,0.8562-5.25,2.5703-7.1609
		c1.7133-1.9094,3.8578-2.8641,6.4344-2.8641c2.2234,0,4.2188,0.9156,5.9844,2.7469V276.975z M233.3479,286.4703
		c0,1.8313,0.4906,3.3235,1.4711,4.4734c1.007,1.1641,2.2758,1.7469,3.8062,1.7469c1.6352,0,2.9555-0.5625,3.9633-1.6875
		c1.007-1.1641,1.5102-2.6422,1.5102-4.4344c0-1.7922-0.5031-3.2688-1.5102-4.4344c-1.0078-1.1375-2.3156-1.7062-3.9242-1.7062
		c-1.5172,0-2.7859,0.5766-3.8062,1.7266C233.851,283.3188,233.3479,284.7578,233.3479,286.4703z"/>
	<path class="st9" d="M281.1018,277.8v5.8656c-1.0078-1.2297-1.9109-2.0734-2.7078-2.5313
		c-0.7844-0.4703-1.7062-0.7062-2.7672-0.7062c-1.6609,0-3.0406,0.5828-4.1391,1.7469s-1.6484,2.6219-1.6484,4.375
		c0,1.7922,0.5297,3.2625,1.5891,4.4141c1.0735,1.1516,2.4406,1.7266,4.1016,1.7266c1.0594,0,1.9938-0.2297,2.8047-0.6875
		c0.7844-0.4437,1.7078-1.3078,2.7672-2.5891v5.8266c-1.7922,0.9281-3.5844,1.3937-5.3766,1.3937
		c-2.9562,0-5.4281-0.9547-7.4156-2.8656c-1.989-1.9219-2.9828-4.3094-2.9828-7.1609c0-2.85,1.0078-5.2578,3.0219-7.2188
		c2.0141-1.9625,4.4859-2.9438,7.4156-2.9438C277.6487,276.4453,279.4268,276.8969,281.1018,277.8z"/>
	<path class="st9" d="M284.4752,286.3922c0-2.7594,0.9875-5.1078,2.9625-7.0437c1.975-1.9344,4.3828-2.9031,7.2203-2.9031
		c2.8516,0,5.2703,0.975,7.2594,2.9234c1.9625,1.9485,2.9422,4.3422,2.9422,7.1812c0,2.8641-0.9875,5.2641-2.9625,7.2
		c-1.9875,1.9219-4.4265,2.8844-7.3172,2.8844c-2.8641,0-5.2656-0.9812-7.2-2.9438
		C285.4439,291.7547,284.4752,289.3219,284.4752,286.3922z M288.9877,286.4703c0,1.9109,0.5109,3.4219,1.5313,4.5328
		c1.0453,1.125,2.425,1.6875,4.1391,1.6875c1.7266,0,3.1062-0.5562,4.1406-1.6687c1.0328-1.1109,1.5484-2.5953,1.5484-4.4531
		c0-1.8563-0.5156-3.3406-1.5484-4.4531c-1.0469-1.125-2.4266-1.6875-4.1406-1.6875c-1.6875,0-3.0547,0.5625-4.1,1.6875
		C289.5111,283.2406,288.9877,284.6922,288.9877,286.4703z"/>
	<path class="st9" d="M323.6143,262.9469h4.4344v33.1375h-4.4344v-2.0016c-1.739,1.7015-3.7078,2.5515-5.9047,2.5515
		c-2.6156,0-4.7875-0.9547-6.514-2.8656c-1.7125-1.9484-2.5703-4.3812-2.5703-7.2984c0-2.85,0.8578-5.2312,2.5703-7.1406
		c1.7-1.9234,3.8391-2.8844,6.4156-2.8844c2.2375,0,4.2375,0.9156,6.0031,2.7469V262.9469z M313.1377,286.4703
		c0,1.8313,0.4906,3.3235,1.4719,4.4734c1.0078,1.1641,2.2766,1.7469,3.8062,1.7469c1.6344,0,2.9562-0.5625,3.9625-1.6875
		c1.0078-1.1641,1.5109-2.6422,1.5109-4.4344c0-1.7922-0.5031-3.2688-1.5109-4.4344c-1.0063-1.1375-2.3141-1.7062-3.9234-1.7062
		c-1.5172,0-2.7859,0.5766-3.8062,1.7266C313.6424,283.3188,313.1377,284.7578,313.1377,286.4703z"/>
	<path class="st9" d="M351.0221,287.5703h-13.6937c0.1172,1.5688,0.6281,2.8188,1.5313,3.7469
		c0.9016,0.9156,2.0594,1.3734,3.4719,1.3734c1.0984,0,2.0078-0.2625,2.7266-0.7844c0.7062-0.5234,1.5109-1.4922,2.4141-2.9047
		l3.7266,2.0797c-0.575,0.9813-1.1828,1.8219-1.8234,2.5219c-0.6422,0.7-1.3281,1.275-2.0609,1.7266
		c-0.7328,0.45-1.5234,0.7813-2.3734,0.9906c-0.85,0.2078-1.7719,0.3141-2.7656,0.3141c-2.8516,0-5.1406-0.9156-6.8672-2.7469
		c-1.7266-1.8453-2.5906-4.2906-2.5906-7.3375c0-3.0219,0.8375-5.4672,2.5125-7.3375c1.6859-1.8453,3.9234-2.7672,6.7094-2.7672
		c2.8125,0,5.0359,0.8969,6.6703,2.6875c1.6219,1.7797,2.4328,4.2453,2.4328,7.3969L351.0221,287.5703z M346.4908,283.9594
		c-0.6156-2.3547-2.1-3.5313-4.4531-3.5313c-0.5375,0-1.0406,0.0812-1.5109,0.2453c-0.4719,0.1641-0.9,0.3984-1.2859,0.7063
		c-0.3859,0.3078-0.7156,0.6765-0.9906,1.1078c-0.275,0.4328-0.4844,0.9235-0.6281,1.4719H346.4908z"/>
	<path class="st9" d="M355.8502,276.975h4.4141v1.7078c0.8109-0.85,1.5313-1.4328,2.1578-1.7469
		c0.6406-0.3266,1.4-0.4906,2.2766-0.4906c1.1641,0,2.3797,0.3797,3.6484,1.1375l-2.0203,4.0422
		c-0.8375-0.6016-1.6547-0.9031-2.4515-0.9031c-2.4078,0-3.611,1.8188-3.611,5.4547v9.9078h-4.4141V276.975z"/>
	<path class="st9" d="M371.5643,293.8875c0-0.7328,0.2687-1.3672,0.8047-1.9031c0.5359-0.5359,1.1781-0.8047,1.9234-0.8047
		s1.3859,0.2687,1.9219,0.8047s0.8047,1.1766,0.8047,1.9219c0,0.7594-0.2687,1.4063-0.8047,1.9422
		c-0.5234,0.5234-1.1641,0.7859-1.9219,0.7859c-0.7719,0-1.4203-0.2625-1.9422-0.7859
		C371.8268,295.3266,371.5643,294.6719,371.5643,293.8875z"/>
</g>
<g>
	<path class="st10" d="M157.7205,226.4891v25.9953h-4.5711v-25.9953h-6.9648v-4.2969h18.4812v4.2969H157.7205z"/>
	<path class="st10" d="M181.9893,233.375h4.4336v19.1094h-4.4336v-2.0016c-1.818,1.7016-3.7734,2.5516-5.8664,2.5516
		c-2.6422,0-4.8266-0.9547-6.5524-2.8656c-1.7141-1.9484-2.5703-4.3812-2.5703-7.2984c0-2.8641,0.8563-5.25,2.5703-7.1609
		c1.7133-1.9094,3.8578-2.8641,6.4344-2.8641c2.2234,0,4.2188,0.9156,5.9844,2.7469V233.375z M171.5127,242.8703
		c0,1.8313,0.4906,3.3234,1.4711,4.4734c1.007,1.1641,2.2758,1.7469,3.8063,1.7469c1.6351,0,2.9555-0.5625,3.9633-1.6875
		c1.007-1.1641,1.5102-2.6422,1.5102-4.4344s-0.5031-3.2688-1.5102-4.4344c-1.0078-1.1375-2.3156-1.7063-3.9242-1.7063
		c-1.5172,0-2.7859,0.5766-3.8063,1.7266C172.0158,239.7188,171.5127,241.1578,171.5127,242.8703z"/>
	<path class="st10" d="M196.4088,262.8828h-4.4141V233.375h4.4141v2.0797c1.7398-1.7391,3.7148-2.6094,5.925-2.6094
		c2.6289,0,4.7937,0.9688,6.4945,2.9031c1.7266,1.9234,2.5891,4.35,2.5891,7.2797c0,2.8641-0.8562,5.2516-2.5695,7.1609
		c-1.7008,1.8969-3.8453,2.8453-6.4352,2.8453c-2.2367,0-4.2383-0.8969-6.0039-2.6891V262.8828z M206.9057,243.0469
		c0-1.8297-0.4977-3.3219-1.4914-4.4719c-1.007-1.1641-2.2758-1.7469-3.8062-1.7469c-1.6219,0-2.9359,0.5625-3.943,1.6875
		c-1.0078,1.125-1.5109,2.6031-1.5109,4.4344c0,1.7922,0.5031,3.2688,1.5109,4.4328c0.9937,1.1391,2.3016,1.7078,3.9234,1.7078
		c1.5305,0,2.7922-0.575,3.7867-1.7266C206.3955,246.2125,206.9057,244.7734,206.9057,243.0469z"/>
	<path class="st10" d="M242.5736,233.375h4.4336v19.1094h-4.4336v-2.0016c-1.818,1.7016-3.7734,2.5516-5.8664,2.5516
		c-2.6422,0-4.8266-0.9547-6.5523-2.8656c-1.7141-1.9484-2.5703-4.3812-2.5703-7.2984c0-2.8641,0.8562-5.25,2.5703-7.1609
		c1.7133-1.9094,3.8578-2.8641,6.4344-2.8641c2.2234,0,4.2188,0.9156,5.9844,2.7469V233.375z M232.0971,242.8703
		c0,1.8313,0.4906,3.3234,1.4711,4.4734c1.007,1.1641,2.2758,1.7469,3.8062,1.7469c1.6352,0,2.9555-0.5625,3.9633-1.6875
		c1.007-1.1641,1.5101-2.6422,1.5101-4.4344s-0.5031-3.2688-1.5101-4.4344c-1.0078-1.1375-2.3156-1.7063-3.9242-1.7063
		c-1.5172,0-2.7859,0.5766-3.8062,1.7266C232.6002,239.7188,232.0971,241.1578,232.0971,242.8703z"/>
	<path class="st10" d="M269.3924,219.3469v16.2453c1.7656-1.8313,3.7672-2.7469,6.0031-2.7469c2.5766,0,4.7219,0.9609,6.4359,2.8844
		c1.7125,1.9094,2.5703,4.2906,2.5703,7.1406c0,2.9437-0.8641,5.3766-2.5906,7.2984c-1.7125,1.9109-3.8781,2.8656-6.4937,2.8656
		c-2.2109,0-4.1859-0.85-5.925-2.5516v2.0016h-4.4141v-33.1375H269.3924z M279.8893,243.0672c0-1.8313-0.4969-3.3219-1.4906-4.4734
		c-1.0078-1.1766-2.2703-1.7656-3.7875-1.7656c-1.6219,0-2.9422,0.5688-3.9625,1.7063c-1.0078,1.125-1.511,2.5906-1.511,4.3953
		c0,1.8578,0.4969,3.3422,1.4906,4.4531c0.9937,1.1391,2.3016,1.7078,3.9234,1.7078c1.5313,0,2.8-0.5687,3.8062-1.7078
		C279.3783,246.2328,279.8893,244.7937,279.8893,243.0672z"/>
	<path class="st10" d="M293.4846,233.375v10.9672c0,3.1656,1.2484,4.7484,3.7469,4.7484s3.7484-1.5828,3.7484-4.7484V233.375h4.4141
		v11.0656c0,1.5297-0.1906,2.8516-0.5688,3.9625c-0.3672,0.9953-1.0016,1.8906-1.9031,2.6891
		c-1.4922,1.2937-3.3875,1.9422-5.6906,1.9422c-2.2891,0-4.1781-0.6484-5.6687-1.9422c-0.9156-0.7984-1.5641-1.6938-1.9422-2.6891
		c-0.3672-0.8891-0.55-2.2094-0.55-3.9625V233.375H293.4846z"/>
	<path class="st10" d="M315.5174,237.4953v14.9891h-4.4141v-14.9891h-1.8844v-4.1203h1.8844v-7.0031h4.4141v7.0031h3.4328v4.1203
		H315.5174z"/>
	<path class="st10" d="M326.5049,237.4953v14.9891h-4.4141v-14.9891h-1.8844v-4.1203h1.8844v-7.0031h4.4141v7.0031h3.4328v4.1203
		H326.5049z"/>
	<path class="st10" d="M332.0361,242.7922c0-2.7594,0.9875-5.1078,2.9625-7.0437c1.975-1.9344,4.3828-2.9031,7.2203-2.9031
		c2.8516,0,5.2703,0.975,7.2594,2.9234c1.9625,1.9484,2.9422,4.3422,2.9422,7.1812c0,2.8641-0.9875,5.2641-2.9625,7.2
		c-1.9875,1.9219-4.4265,2.8844-7.3172,2.8844c-2.8641,0-5.2656-0.9812-7.2-2.9438
		C333.0049,248.1547,332.0361,245.7219,332.0361,242.7922z M336.5486,242.8703c0,1.9109,0.5109,3.4219,1.5313,4.5328
		c1.0453,1.125,2.425,1.6875,4.1391,1.6875c1.7266,0,3.1062-0.5562,4.1406-1.6687c1.0328-1.1109,1.5484-2.5953,1.5484-4.4531
		c0-1.8562-0.5156-3.3406-1.5484-4.4531c-1.0469-1.125-2.4266-1.6875-4.1406-1.6875c-1.6875,0-3.0547,0.5625-4.1,1.6875
		C337.0721,239.6406,336.5486,241.0922,336.5486,242.8703z"/>
	<path class="st10" d="M357.0908,233.375h4.4344v1.7656c1.5422-1.5297,3.2828-2.2953,5.2188-2.2953c2.2234,0,3.9562,0.7,5.1984,2.1
		c1.0719,1.1891,1.6094,3.1328,1.6094,5.8266v11.7125h-4.4344v-10.6734c0-1.8828-0.2625-3.1844-0.7844-3.9031
		c-0.5109-0.7328-1.4391-1.0984-2.7859-1.0984c-1.4656,0-2.5047,0.4828-3.1203,1.4516c-0.6016,0.9547-0.9016,2.6219-0.9016,5.0031
		v9.2203h-4.4344V233.375z"/>
	<path class="st10" d="M381.8502,246.8141l3.925,1.5313l-5.5922,11.2016l-2.9828-1.2359L381.8502,246.8141z"/>
	<path class="st10" d="M176.8979,292.9438c0,0.9031-0.0297,1.6969-0.0883,2.3844c-0.0586,0.6859-0.1406,1.2906-0.2453,1.8141
		c-0.3141,1.4391-0.9289,2.675-1.8438,3.7078c-1.7266,1.989-4.1008,2.9828-7.1219,2.9828c-2.5508,0-4.65-0.6875-6.2977-2.0594
		c-1.7008-1.4141-2.682-3.3687-2.943-5.8672h4.4336c0.1695,0.9422,0.4516,1.6672,0.8438,2.1781
		c0.9156,1.1906,2.2492,1.7859,4.0023,1.7859c3.2305,0,4.8461-1.9828,4.8461-5.9453v-2.6687
		c-1.7531,1.7922-3.7742,2.6891-6.0625,2.6891c-2.6031,0-4.7352-0.9422-6.3961-2.8266c-1.6742-1.9094-2.5109-4.2953-2.5109-7.1609
		c0-2.7859,0.7781-5.1531,2.3344-7.1016c1.6742-2.0656,3.8851-3.1,6.6312-3.1c2.4063,0,4.4078,0.8969,6.0039,2.6875v-2.1578h4.4141
		V292.9438z M172.6604,283.8797c0-1.8563-0.4977-3.3406-1.4914-4.4531c-1.007-1.1375-2.2953-1.7063-3.8649-1.7063
		c-1.6742,0-2.9953,0.6203-3.9633,1.8625c-0.8766,1.1125-1.3141,2.5515-1.3141,4.3172c0,1.7391,0.4375,3.1656,1.3141,4.2766
		c0.9547,1.2172,2.2758,1.825,3.9633,1.825s3.0211-0.6156,4.0023-1.8453C172.2088,287.0453,172.6604,285.6203,172.6604,283.8797z"/>
	<path class="st10" d="M199.8721,284.8813h-13.6945c0.118,1.5688,0.6281,2.8188,1.5305,3.7469
		c0.9023,0.9156,2.0602,1.3734,3.4727,1.3734c1.0984,0,2.0078-0.2625,2.7273-0.7844c0.7063-0.5234,1.5101-1.4922,2.4125-2.9047
		l3.7281,2.0797c-0.5758,0.9813-1.1844,1.8219-1.825,2.5219s-1.3273,1.275-2.0594,1.7266c-0.7328,0.45-1.5242,0.7813-2.3742,0.9906
		c-0.8508,0.2078-1.7727,0.3141-2.7664,0.3141c-2.8516,0-5.1398-0.9156-6.8664-2.7469c-1.7266-1.8453-2.5898-4.2906-2.5898-7.3375
		c0-3.0219,0.8367-5.4672,2.5109-7.3375c1.6875-1.8453,3.9242-2.7672,6.7102-2.7672c2.8117,0,5.0352,0.8969,6.6703,2.6875
		c1.6219,1.7797,2.4328,4.2453,2.4328,7.3969L199.8721,284.8813z M195.34,281.2703c-0.6148-2.3547-2.0992-3.5313-4.4539-3.5313
		c-0.5359,0-1.0398,0.0812-1.5101,0.2453c-0.4711,0.1641-0.9,0.3984-1.2852,0.7062c-0.3859,0.3078-0.7164,0.6766-0.9906,1.1078
		c-0.275,0.4328-0.4844,0.9234-0.6281,1.4719H195.34z"/>
	<path class="st10" d="M209.2502,278.4063v14.9891h-4.4141v-14.9891h-1.8836v-4.1203h1.8836v-7.0031h4.4141v7.0031h3.4336v4.1203
		H209.2502z"/>
	<path class="st10" d="M242.1713,274.2859h4.4336v19.1094h-4.4336v-2.0016c-1.818,1.7016-3.7734,2.5516-5.8664,2.5516
		c-2.6422,0-4.8266-0.9547-6.5523-2.8656c-1.7141-1.9484-2.5703-4.3813-2.5703-7.2984c0-2.8641,0.8562-5.25,2.5703-7.1609
		c1.7133-1.9094,3.8578-2.864,6.4344-2.864c2.2234,0,4.2188,0.9156,5.9844,2.7469V274.2859z M231.6947,283.7813
		c0,1.8312,0.4906,3.3234,1.4711,4.4734c1.007,1.1641,2.2758,1.7469,3.8062,1.7469c1.6352,0,2.9555-0.5625,3.9633-1.6875
		c1.007-1.1641,1.5101-2.6422,1.5101-4.4344c0-1.7922-0.5031-3.2688-1.5101-4.4344c-1.0078-1.1375-2.3156-1.7062-3.9242-1.7062
		c-1.5172,0-2.7859,0.5765-3.8062,1.7266C232.1979,280.6297,231.6947,282.0688,231.6947,283.7813z"/>
	<path class="st10" d="M279.4486,275.1109v5.8656c-1.0078-1.2297-1.9109-2.0734-2.7078-2.5313
		c-0.7844-0.4703-1.7062-0.7062-2.7672-0.7062c-1.6609,0-3.0406,0.5828-4.1391,1.7469c-1.0984,1.1641-1.6484,2.6219-1.6484,4.375
		c0,1.7922,0.5297,3.2625,1.5891,4.4141c1.0734,1.1516,2.4406,1.7266,4.1016,1.7266c1.0594,0,1.9937-0.2297,2.8047-0.6875
		c0.7844-0.4438,1.7078-1.3078,2.7672-2.5891v5.8266c-1.7922,0.9281-3.5844,1.3937-5.3766,1.3937
		c-2.9563,0-5.4281-0.9547-7.4156-2.8656c-1.9891-1.9219-2.9828-4.3094-2.9828-7.1609c0-2.85,1.0078-5.2578,3.0219-7.2188
		c2.014-1.9625,4.4859-2.9438,7.4156-2.9438C275.9955,273.7563,277.7737,274.2078,279.4486,275.1109z"/>
	<path class="st10" d="M282.8221,283.7031c0-2.7594,0.9875-5.1078,2.9625-7.0438c1.975-1.9344,4.3828-2.9031,7.2203-2.9031
		c2.8516,0,5.2703,0.975,7.2594,2.9234c1.9625,1.9484,2.9422,4.3422,2.9422,7.1812c0,2.8641-0.9875,5.2641-2.9625,7.2
		c-1.9875,1.9219-4.4266,2.8844-7.3172,2.8844c-2.864,0-5.2656-0.9813-7.2-2.9438
		C283.7908,289.0656,282.8221,286.6328,282.8221,283.7031z M287.3346,283.7813c0,1.9109,0.511,3.4219,1.5313,4.5328
		c1.0453,1.125,2.425,1.6875,4.1391,1.6875c1.7266,0,3.1063-0.5562,4.1406-1.6687c1.0328-1.111,1.5484-2.5953,1.5484-4.4531
		c0-1.8563-0.5156-3.3406-1.5484-4.4531c-1.0469-1.125-2.4265-1.6875-4.1406-1.6875c-1.6875,0-3.0547,0.5625-4.1,1.6875
		C287.858,280.5516,287.3346,282.0031,287.3346,283.7813z"/>
	<path class="st10" d="M321.9612,260.2578h4.4344v33.1375h-4.4344v-2.0016c-1.7391,1.7016-3.7078,2.5516-5.9047,2.5516
		c-2.6156,0-4.7875-0.9547-6.5141-2.8656c-1.7125-1.9484-2.5703-4.3813-2.5703-7.2984c0-2.85,0.8578-5.2313,2.5703-7.1406
		c1.7-1.9234,3.8391-2.8844,6.4156-2.8844c2.2375,0,4.2375,0.9156,6.0031,2.7469V260.2578z M311.4846,283.7813
		c0,1.8312,0.4906,3.3234,1.4719,4.4734c1.0078,1.1641,2.2766,1.7469,3.8062,1.7469c1.6344,0,2.9563-0.5625,3.9625-1.6875
		c1.0078-1.1641,1.511-2.6422,1.511-4.4344c0-1.7922-0.5031-3.2688-1.511-4.4344c-1.0062-1.1375-2.3141-1.7062-3.9234-1.7062
		c-1.5172,0-2.7859,0.5765-3.8062,1.7266C311.9893,280.6297,311.4846,282.0688,311.4846,283.7813z"/>
	<path class="st10" d="M349.369,284.8813h-13.6938c0.1172,1.5688,0.6281,2.8188,1.5313,3.7469
		c0.9016,0.9156,2.0594,1.3734,3.4719,1.3734c1.0984,0,2.0078-0.2625,2.7266-0.7844c0.7063-0.5234,1.511-1.4922,2.4141-2.9047
		l3.7266,2.0797c-0.575,0.9813-1.1828,1.8219-1.8234,2.5219c-0.6422,0.7-1.3281,1.275-2.0609,1.7266
		c-0.7328,0.45-1.5234,0.7813-2.3734,0.9906c-0.85,0.2078-1.7719,0.3141-2.7656,0.3141c-2.8516,0-5.1406-0.9156-6.8672-2.7469
		c-1.7266-1.8453-2.5906-4.2906-2.5906-7.3375c0-3.0219,0.8375-5.4672,2.5125-7.3375c1.6859-1.8453,3.9235-2.7672,6.7094-2.7672
		c2.8125,0,5.0359,0.8969,6.6703,2.6875c1.6219,1.7797,2.4328,4.2453,2.4328,7.3969L349.369,284.8813z M344.8377,281.2703
		c-0.6156-2.3547-2.1-3.5313-4.4531-3.5313c-0.5375,0-1.0406,0.0812-1.511,0.2453c-0.4719,0.1641-0.9,0.3984-1.2859,0.7062
		c-0.386,0.3078-0.7156,0.6766-0.9906,1.1078c-0.275,0.4328-0.4844,0.9234-0.6281,1.4719H344.8377z"/>
	<path class="st10" d="M354.1971,274.2859h4.4141v1.7078c0.8109-0.85,1.5313-1.4328,2.1578-1.7469
		c0.6406-0.3266,1.4-0.4906,2.2766-0.4906c1.1641,0,2.3797,0.3797,3.6484,1.1375l-2.0203,4.0422
		c-0.8375-0.6016-1.6547-0.9031-2.4516-0.9031c-2.4078,0-3.6109,1.8188-3.6109,5.4547v9.9078h-4.4141V274.2859z"/>
	<path class="st10" d="M369.9111,291.1984c0-0.7328,0.2688-1.3672,0.8047-1.9031c0.5359-0.5359,1.1781-0.8047,1.9234-0.8047
		c0.7453,0,1.386,0.2687,1.9219,0.8047c0.5359,0.5359,0.8047,1.1765,0.8047,1.9219c0,0.7594-0.2687,1.4063-0.8047,1.9422
		c-0.5234,0.5234-1.1641,0.7859-1.9219,0.7859c-0.7719,0-1.4203-0.2625-1.9422-0.7859
		C370.1736,292.6375,369.9111,291.9828,369.9111,291.1984z"/>
</g>
</svg>
