<?xml version="1.0" encoding="utf-8"?>
<!-- Generator: Adobe Illustrator 23.0.1, SVG Export Plug-In . SVG Version: 6.00 Build 0)  -->
<svg version="1.1" id="Layer_1" xmlns="http://www.w3.org/2000/svg" xmlns:xlink="http://www.w3.org/1999/xlink" x="0px" y="0px"
	 viewBox="0 0 260 200" style="enable-background:new 0 0 260 200;" xml:space="preserve">
<style type="text/css">
	.Drop_x0020_Shadow{fill:none;}
	.Round_x0020_Corners_x0020_2_x0020_pt{fill:#FFFFFF;stroke:#231F20;stroke-miterlimit:10;}
	.Live_x0020_Reflect_x0020_X{fill:none;}
	.Bevel_x0020_Soft{fill:url(#SVGID_1_);}
	.Dusk{fill:#FFFFFF;}
	.Foliage_GS{fill:#FFDD00;}
	.Pompadour_GS{fill-rule:evenodd;clip-rule:evenodd;fill:#44ADE2;}
	.st0{fill:#FFFFFF;}
	.st1{fill:#7239FF;}
	.st2{fill:#562ADD;}
	.st3{fill:#4F2BBC;stroke:#4F2BBC;stroke-width:0.5;stroke-miterlimit:10;}
	.st4{fill:#4F2BBC;}
	.st5{fill:#FFFFFF;stroke:#25E899;stroke-width:11;stroke-linecap:round;stroke-miterlimit:10;}
	.st6{fill:#2E1984;}
	.st7{fill:#24E899;}
	.st8{fill:#EFF4EE;}
	.st9{fill:#391EA8;}
	.st10{fill:#FFFFFF;stroke:#FFFFFF;stroke-width:0.5;stroke-miterlimit:10;}
</style>
<linearGradient id="SVGID_1_" gradientUnits="userSpaceOnUse" x1="0" y1="0" x2="0.7071" y2="0.7071">
	<stop  offset="0" style="stop-color:#DEDFE3"/>
	<stop  offset="0.1783" style="stop-color:#DADBDF"/>
	<stop  offset="0.3611" style="stop-color:#CECFD3"/>
	<stop  offset="0.546" style="stop-color:#B9BCBF"/>
	<stop  offset="0.7324" style="stop-color:#9CA0A2"/>
	<stop  offset="0.9181" style="stop-color:#787D7E"/>
	<stop  offset="1" style="stop-color:#656B6C"/>
</linearGradient>
<rect x="-40" y="-40" class="st0" width="340" height="280"/>
<rect class="st1" width="260" height="200"/>
<g>
	<g>
		<g>
			<path class="st2" d="M217.3468,27.002v-7.5678c0-1.3292,1.0875-2.4167,2.4167-2.4167h7.5678
				c1.3292,0,2.4167,1.0875,2.4167,2.4167v7.5678c0,1.3292-1.0875,2.4167-2.4167,2.4167h-7.5678
				C218.4343,29.4187,217.3468,28.3312,217.3468,27.002z"/>
		</g>
	</g>
	<g>
		<g>
			<path class="st2" d="M217.3468,85.9076v-7.5678c0-1.3292,1.0875-2.4167,2.4167-2.4167h7.5678
				c1.3292,0,2.4167,1.0875,2.4167,2.4167v7.5678c0,1.3292-1.0875,2.4167-2.4167,2.4167h-7.5678
				C218.4343,88.3243,217.3468,87.2368,217.3468,85.9076z"/>
		</g>
	</g>
	<g>
		<g>
			<path class="st2" d="M193.7369,55.799v-7.5678c0-1.3292,1.0875-2.4167,2.4167-2.4167h7.5678
				c1.3292,0,2.4167,1.0875,2.4167,2.4167v7.5678c0,1.3292-1.0875,2.4167-2.4167,2.4167h-7.5678
				C194.8244,58.2156,193.7369,57.1281,193.7369,55.799z"/>
		</g>
	</g>
	<g>
		<g>
			<path class="st2" d="M163.6879,57.528v-7.5678c0-1.3292,1.0875-2.4167,2.4167-2.4167h7.5679
				c1.3292,0,2.4167,1.0875,2.4167,2.4167v7.5678c0,1.3292-1.0875,2.4167-2.4167,2.4167h-7.5679
				C164.7754,59.9446,163.6879,58.8571,163.6879,57.528z"/>
		</g>
	</g>
	<g>
		<g>
			<path class="st2" d="M139.8395,22.2323v-7.5678c0-1.3292,1.0875-2.4167,2.4167-2.4167h7.5679
				c1.3292,0,2.4167,1.0875,2.4167,2.4167v7.5678c0,1.3292-1.0875,2.4167-2.4167,2.4167h-7.5679
				C140.927,24.649,139.8395,23.5615,139.8395,22.2323z"/>
		</g>
	</g>
	<g>
		<g>
			<path class="st2" d="M163.6879,116.4336v-7.5678c0-1.3292,1.0875-2.4167,2.4167-2.4167h7.5679
				c1.3292,0,2.4167,1.0875,2.4167,2.4167v7.5678c0,1.3292-1.0875,2.4167-2.4167,2.4167h-7.5679
				C164.7754,118.8502,163.6879,117.7627,163.6879,116.4336z"/>
		</g>
	</g>
	<g>
		<g>
			<path class="st2" d="M140.0779,86.3249v-7.5678c0-1.3292,1.0875-2.4167,2.4167-2.4167h7.5678
				c1.3292,0,2.4167,1.0875,2.4167,2.4167v7.5678c0,1.3292-1.0875,2.4167-2.4167,2.4167h-7.5678
				C141.1654,88.7416,140.0779,87.6541,140.0779,86.3249z"/>
		</g>
	</g>
	<g>
		<g>
			<path class="st2" d="M100.7281,86.3249v-7.5678c0-1.3292,1.0875-2.4167,2.4167-2.4167h7.5678
				c1.3292,0,2.4167,1.0875,2.4167,2.4167v7.5678c0,1.3292-1.0875,2.4167-2.4167,2.4167h-7.5678
				C101.8156,88.7416,100.7281,87.6541,100.7281,86.3249z"/>
		</g>
	</g>
	<g>
		<g>
			<polygon class="st2" points="199.0175,52.002 222.2823,24.0721 223.3807,24.9874 200.8565,52.0285 224.1101,81.6821 
				222.9838,82.5652 			"/>
		</g>
	</g>
	<g>
		<g>
			
				<rect x="139.0246" y="67.5165" transform="matrix(0.6569 -0.7539 0.7539 0.6569 2.7879 142.5912)" class="st2" width="38.1168" height="1.4311"/>
		</g>
	</g>
	<g>
		<g>
			
				<rect x="156.2945" y="77.9414" transform="matrix(0.7579 -0.6524 0.6524 0.7579 -25.7136 126.0848)" class="st2" width="1.4308" height="39.4868"/>
		</g>
	</g>
	<g>
		<g>
			
				<rect x="106.9271" y="81.6167" transform="matrix(0.9999 -0.0103 0.0103 0.9999 -0.8452 1.3195)" class="st2" width="40.3065" height="1.431"/>
		</g>
	</g>
	<g>
		<g>
			<polygon class="st2" points="145.448,18.8487 146.633,18.048 170.2457,52.9948 198.9225,50.5271 199.0455,51.9524 
				169.5303,54.4928 			"/>
		</g>
	</g>
</g>
<g>
	<g>
		<path class="st2" d="M48.8859,27.2705c-3.438,0-6.2349-2.7969-6.2349-6.2349s2.7969-6.2349,6.2349-6.2349
			c3.438,0,6.2349,2.7969,6.2349,6.2349S52.3239,27.2705,48.8859,27.2705z M48.8859,18.0187c-1.6632,0-3.0169,1.3529-3.0169,3.0169
			s1.3537,3.0169,3.0169,3.0169s3.0169-1.3529,3.0169-3.0169S50.5491,18.0187,48.8859,18.0187z"/>
	</g>
</g>
<g>
	<g>
		<path class="st2" d="M76.6837,46.695c-9.2924,0-16.8522-7.5598-16.8522-16.8522s7.5598-16.8522,16.8522-16.8522
			s16.8522,7.5598,16.8522,16.8522S85.9761,46.695,76.6837,46.695z M76.6837,16.8983c-7.1372,0-12.9445,5.8063-12.9445,12.9445
			s5.8073,12.9445,12.9445,12.9445c7.1372,0,12.9445-5.8063,12.9445-12.9445S83.8209,16.8983,76.6837,16.8983z"/>
	</g>
</g>
<g>
	<path class="st3" d="M27.9668,63.3057c0-1.3877,0.3237-2.4956,0.9707-3.3232c0.5791-0.7485,1.2808-1.1226,2.1045-1.1226
		s1.5249,0.374,2.1045,1.1226c0.6465,0.8276,0.9702,1.9541,0.9702,3.3799c0,1.4214-0.3237,2.5464-0.9702,3.3735
		c-0.5796,0.7485-1.2793,1.123-2.0991,1.123s-1.5234-0.3745-2.1099-1.123C28.2905,65.9087,27.9668,64.7651,27.9668,63.3057z
		 M29.2588,63.3115c0,0.9663,0.1675,1.7695,0.5024,2.4092c0.3345,0.6279,0.7617,0.9419,1.2808,0.9419
		c0.5151,0,0.9419-0.314,1.2808-0.9419c0.3384-0.6245,0.5078-1.4126,0.5078-2.3643s-0.1694-1.7412-0.5078-2.3696
		c-0.3389-0.6245-0.7656-0.9365-1.2808-0.9365c-0.5117,0-0.9365,0.312-1.2754,0.9365
		C29.4282,61.6074,29.2588,62.3823,29.2588,63.3115z"/>
	<path class="st3" d="M37.7388,60.2363h-1.5063l0.7222-1.23h2.0986v8.7114h-1.3145V60.2363z"/>
	<path class="st3" d="M42.2295,63.3057c0-1.3877,0.3237-2.4956,0.9707-3.3232c0.5791-0.7485,1.2808-1.1226,2.1045-1.1226
		s1.5249,0.374,2.1045,1.1226c0.6465,0.8276,0.9702,1.9541,0.9702,3.3799c0,1.4214-0.3237,2.5464-0.9702,3.3735
		c-0.5796,0.7485-1.2793,1.123-2.0991,1.123s-1.5234-0.3745-2.1099-1.123C42.5532,65.9087,42.2295,64.7651,42.2295,63.3057z
		 M43.5215,63.3115c0,0.9663,0.1675,1.7695,0.5024,2.4092c0.3345,0.6279,0.7617,0.9419,1.2808,0.9419
		c0.5151,0,0.9419-0.314,1.2808-0.9419c0.3384-0.6245,0.5078-1.4126,0.5078-2.3643s-0.1694-1.7412-0.5078-2.3696
		c-0.3389-0.6245-0.7656-0.9365-1.2808-0.9365c-0.5117,0-0.9365,0.312-1.2754,0.9365
		C43.6909,61.6074,43.5215,62.3823,43.5215,63.3115z"/>
	<path class="st3" d="M52.002,60.2363h-1.5063l0.7222-1.23h2.0986v8.7114H52.002V60.2363z"/>
	<path class="st3" d="M24.4009,77.1714c0-1.3877,0.3237-2.4956,0.9707-3.3232c0.5791-0.7485,1.2808-1.1226,2.1045-1.1226
		s1.5249,0.374,2.1045,1.1226c0.6465,0.8276,0.9702,1.9541,0.9702,3.3799c0,1.4214-0.3237,2.5464-0.9702,3.3735
		c-0.5796,0.7485-1.2793,1.123-2.0991,1.123s-1.5234-0.3745-2.1099-1.123C24.7246,79.7744,24.4009,78.6309,24.4009,77.1714z
		 M25.6929,77.1772c0,0.9663,0.1675,1.7695,0.5024,2.4092c0.3345,0.6279,0.7617,0.9419,1.2808,0.9419
		c0.5151,0,0.9419-0.314,1.2808-0.9419c0.3384-0.6245,0.5078-1.4126,0.5078-2.3643s-0.1694-1.7412-0.5078-2.3696
		c-0.3389-0.6245-0.7656-0.9365-1.2808-0.9365c-0.5117,0-0.9365,0.312-1.2754,0.9365
		C25.8623,75.4731,25.6929,76.248,25.6929,77.1772z"/>
	<path class="st3" d="M34.1729,74.1021h-1.5063l0.7222-1.23h2.0986v8.7114h-1.3145V74.1021z"/>
	<path class="st3" d="M41.3047,74.1021h-1.5063l0.7222-1.23h2.0986v8.7114h-1.3145V74.1021z"/>
	<path class="st3" d="M48.436,74.1021h-1.5063l0.7222-1.23h2.0986v8.7114H48.436V74.1021z"/>
	<path class="st3" d="M27.9668,91.0376c0-1.3877,0.3237-2.4956,0.9707-3.3232c0.5791-0.7485,1.2808-1.1226,2.1045-1.1226
		s1.5249,0.374,2.1045,1.1226c0.6465,0.8276,0.9702,1.9541,0.9702,3.3799c0,1.4214-0.3237,2.5464-0.9702,3.3735
		c-0.5796,0.7485-1.2793,1.123-2.0991,1.123s-1.5234-0.3745-2.1099-1.123C28.2905,93.6406,27.9668,92.4971,27.9668,91.0376z
		 M29.2588,91.0435c0,0.9663,0.1675,1.7695,0.5024,2.4092c0.3345,0.6279,0.7617,0.9419,1.2808,0.9419
		c0.5151,0,0.9419-0.314,1.2808-0.9419c0.3384-0.6245,0.5078-1.4126,0.5078-2.3643s-0.1694-1.7412-0.5078-2.3696
		c-0.3389-0.6245-0.7656-0.9365-1.2808-0.9365c-0.5117,0-0.9365,0.312-1.2754,0.9365
		C29.4282,89.3394,29.2588,90.1143,29.2588,91.0435z"/>
	<path class="st3" d="M37.7388,87.9683h-1.5063l0.7222-1.23h2.0986v8.7114h-1.3145V87.9683z"/>
	<path class="st3" d="M44.8701,87.9683h-1.5063l0.7222-1.23h2.0986v8.7114h-1.3145V87.9683z"/>
	<path class="st3" d="M49.3613,91.0376c0-1.3877,0.3237-2.4956,0.9707-3.3232c0.5791-0.7485,1.2808-1.1226,2.1045-1.1226
		s1.5249,0.374,2.1045,1.1226c0.6465,0.8276,0.9702,1.9541,0.9702,3.3799c0,1.4214-0.3237,2.5464-0.9702,3.3735
		c-0.5796,0.7485-1.2793,1.123-2.0991,1.123s-1.5234-0.3745-2.1099-1.123C49.6851,93.6406,49.3613,92.4971,49.3613,91.0376z
		 M50.6533,91.0435c0,0.9663,0.1675,1.7695,0.5024,2.4092c0.3345,0.6279,0.7617,0.9419,1.2808,0.9419
		c0.5151,0,0.9419-0.314,1.2808-0.9419c0.3384-0.6245,0.5078-1.4126,0.5078-2.3643s-0.1694-1.7412-0.5078-2.3696
		c-0.3389-0.6245-0.7656-0.9365-1.2808-0.9365c-0.5117,0-0.9365,0.312-1.2754,0.9365
		C50.8228,89.3394,50.6533,90.1143,50.6533,91.0435z"/>
	<path class="st3" d="M24.4009,104.9033c0-1.3877,0.3237-2.4951,0.9707-3.3232c0.5791-0.7485,1.2808-1.1226,2.1045-1.1226
		s1.5249,0.374,2.1045,1.1226c0.6465,0.8281,0.9702,1.9541,0.9702,3.3799c0,1.4219-0.3237,2.5459-0.9702,3.374
		c-0.5796,0.748-1.2793,1.1221-2.0991,1.1221s-1.5234-0.374-2.1099-1.1221C24.7246,107.5059,24.4009,106.3633,24.4009,104.9033z
		 M25.6929,104.9092c0,0.9668,0.1675,1.7695,0.5024,2.4092c0.3345,0.6279,0.7617,0.9424,1.2808,0.9424
		c0.5151,0,0.9419-0.3145,1.2808-0.9424c0.3384-0.625,0.5078-1.4121,0.5078-2.3643c0-0.9512-0.1694-1.7412-0.5078-2.3691
		c-0.3389-0.625-0.7656-0.9375-1.2808-0.9375c-0.5117,0-0.9365,0.3125-1.2754,0.9375
		C25.8623,103.2051,25.6929,103.9805,25.6929,104.9092z"/>
	<path class="st3" d="M31.5322,104.9033c0-1.3877,0.3237-2.4951,0.9707-3.3232c0.5791-0.7485,1.2808-1.1226,2.1045-1.1226
		s1.5249,0.374,2.1045,1.1226c0.6465,0.8281,0.9702,1.9541,0.9702,3.3799c0,1.4219-0.3237,2.5459-0.9702,3.374
		c-0.5796,0.748-1.2793,1.1221-2.0991,1.1221s-1.5234-0.374-2.1099-1.1221C31.856,107.5059,31.5322,106.3633,31.5322,104.9033z
		 M32.8242,104.9092c0,0.9668,0.1675,1.7695,0.5024,2.4092c0.3345,0.6279,0.7617,0.9424,1.2808,0.9424
		c0.5151,0,0.9419-0.3145,1.2808-0.9424c0.3384-0.625,0.5078-1.4121,0.5078-2.3643c0-0.9512-0.1694-1.7412-0.5078-2.3691
		c-0.3389-0.625-0.7656-0.9375-1.2808-0.9375c-0.5117,0-0.9365,0.3125-1.2754,0.9375
		C32.9937,103.2051,32.8242,103.9805,32.8242,104.9092z"/>
	<path class="st3" d="M38.6641,104.9033c0-1.3877,0.3237-2.4951,0.9707-3.3232c0.5791-0.7485,1.2808-1.1226,2.1045-1.1226
		s1.5249,0.374,2.1045,1.1226c0.6465,0.8281,0.9702,1.9541,0.9702,3.3799c0,1.4219-0.3237,2.5459-0.9702,3.374
		c-0.5796,0.748-1.2793,1.1221-2.0991,1.1221s-1.5234-0.374-2.1099-1.1221C38.9878,107.5059,38.6641,106.3633,38.6641,104.9033z
		 M39.9561,104.9092c0,0.9668,0.1675,1.7695,0.5024,2.4092c0.3345,0.6279,0.7617,0.9424,1.2808,0.9424
		c0.5151,0,0.9419-0.3145,1.2808-0.9424c0.3384-0.625,0.5078-1.4121,0.5078-2.3643c0-0.9512-0.1694-1.7412-0.5078-2.3691
		c-0.3389-0.625-0.7656-0.9375-1.2808-0.9375c-0.5117,0-0.9365,0.3125-1.2754,0.9375
		C40.1255,103.2051,39.9561,103.9805,39.9561,104.9092z"/>
	<path class="st3" d="M48.436,101.834h-1.5063l0.7222-1.23h2.0986v8.7114H48.436V101.834z"/>
</g>
<g>
	<g>
		<rect x="0.3192" y="129.3862" class="st4" width="259.3616" height="70.6138"/>
	</g>
</g>
<g>
	<g>
		<g>
			<g>
				<g>
					<g>
						<g>
							<polygon class="st0" points="140.9475,48.8374 144.6202,56.073 141.8335,67.9062 135.197,62.4841 136.36,53.8047 							"/>
						</g>
					</g>
				</g>
			</g>
		</g>
		<g>
			<g>
				<g>
					<g>
						<g>
							<path class="st5" d="M131.1436,24.8822"/>
						</g>
					</g>
				</g>
			</g>
		</g>
		<g>
			<g>
				<g>
					<g>
						<g>
							<path class="st5" d="M131.1436,45.0296"/>
						</g>
					</g>
				</g>
			</g>
		</g>
		<g>
			<g>
				<g>
					<g>
						<g>
							<path class="st6" d="M131.1436,46.4129c-0.7639,0-1.3833-0.6194-1.3833-1.3833V34.1266c0-0.7639,0.6194-1.3833,1.3833-1.3833
								c0.7639,0,1.3833,0.6194,1.3833,1.3833v10.9029C132.5269,45.7934,131.9074,46.4129,131.1436,46.4129z"/>
						</g>
					</g>
				</g>
			</g>
		</g>
		<g>
			<g>
				<g>
					<g>
						<g>
							<line class="st0" x1="129.0869" y1="45.0296" x2="133.3626" y2="45.0296"/>
						</g>
					</g>
				</g>
			</g>
		</g>
		<g>
			<g>
				<g>
					<g>
						<g>
							<path class="st6" d="M133.3627,46.4129h-4.2757c-0.7639,0-1.3833-0.6194-1.3833-1.3833c0-0.7639,0.6194-1.3833,1.3833-1.3833
								h4.2757c0.7639,0,1.3833,0.6194,1.3833,1.3833C134.746,45.7934,134.1266,46.4129,133.3627,46.4129z"/>
						</g>
					</g>
				</g>
			</g>
		</g>
		<g>
			<g>
				<g>
					<g>
						<g>
							<path class="st0" d="M140.9475,48.8374l4.5454-4.2842c-3.4783-3.4783-8.2835-5.6297-13.5912-5.6297
								c-10.6154,0-19.2209,8.6055-19.2209,19.2209s8.6055,19.2209,19.2209,19.2209c3.9568,0,7.4367,1.4445,10.4935-0.6052
								l3.8041,0.5264l-0.1088-6.1757l-10.8935-8.6265l0,0l2.342-11.0302L140.9475,48.8374"/>
						</g>
					</g>
				</g>
			</g>
		</g>
		<g>
			<g>
				<g>
					<g>
						<g>
							<path class="st6" d="M131.9018,79.2515c-11.6385,0-21.1073-9.4685-21.1073-21.107s9.4688-21.1073,21.1073-21.1073
								c5.6381,0,10.9385,2.1956,14.9251,6.1824l1.3737,1.3737l-5.9592,5.6168l-2.5878-2.7455l3.0535-2.8776
								c-3.0592-2.4481-6.8301-3.7771-10.8054-3.7771c-9.5584,0-17.3346,7.7762-17.3346,17.3346
								c0,9.5582,7.7762,17.3344,17.3346,17.3344"/>
						</g>
					</g>
				</g>
			</g>
		</g>
		<g>
			<g>
				<g>
					<g>
						<g>
							<path class="st7" d="M142.4964,68.409l-2.7096-2.6251c1.9951-2.059,3.0938-4.7721,3.0938-7.6394
								c0-2.9931-1.1826-5.7902-3.3301-7.8759l-1.4133-1.3727l1.5157-1.4305l1.2912,1.3683l1.235-1.2713
								c2.8853,2.8025,4.4742,6.5607,4.4742,10.5821C146.6532,61.9972,145.1768,65.6424,142.4964,68.409z"/>
						</g>
					</g>
				</g>
			</g>
		</g>
		<g>
			<g>
				<g>
					<g>
						<g>
							<path class="st6" d="M141.1415,67.0964"/>
						</g>
					</g>
				</g>
			</g>
		</g>
		<g>
			<g>
				<g>
					<g>
						<g>
							<circle class="st8" cx="131.9018" cy="58.1444" r="4.3397"/>
						</g>
					</g>
				</g>
			</g>
		</g>
		<g>
			<g>
				<g>
					<g>
						<g>
							<path class="st6" d="M131.9018,64.3704c-3.433,0-6.2261-2.7929-6.2261-6.2259s2.7931-6.2261,6.2261-6.2261
								s6.2261,2.7931,6.2261,6.2261S135.3347,64.3704,131.9018,64.3704z M131.9018,55.691c-1.3529,0-2.4535,1.1006-2.4535,2.4535
								c0,1.3526,1.1006,2.4532,2.4535,2.4532s2.4535-1.1006,2.4535-2.4532C134.3552,56.7916,133.2546,55.691,131.9018,55.691z"/>
						</g>
					</g>
				</g>
			</g>
		</g>
		<g>
			<g>
				<g>
					<g>
						<g>
							<line class="st6" x1="145.493" y1="44.5532" x2="134.5246" y2="54.6875"/>
						</g>
					</g>
				</g>
			</g>
		</g>
		<g>
			<g>
				<g>
					<g>
						<g>
							
								<rect x="132.5422" y="47.734" transform="matrix(0.7345 -0.6786 0.6786 0.7345 3.5009 108.1887)" class="st6" width="14.9333" height="3.7728"/>
						</g>
					</g>
				</g>
			</g>
		</g>
		<g>
			<g>
				<g>
					<g>
						<g>
							<polyline class="st0" points="133.9494,61.9713 141.8335,67.9062 146.0905,71.1107 146.0905,79.2516 137.539,78.8397 							
								"/>
						</g>
					</g>
				</g>
			</g>
		</g>
		<g>
			<g>
				<g>
					<g>
						<g>
							<polygon class="st6" points="147.9769,79.2516 131.5591,79.2516 131.5591,75.4789 144.2042,75.4789 144.2042,72.0518 
								132.815,63.4785 135.084,60.4643 147.9769,70.1694 							"/>
						</g>
					</g>
				</g>
			</g>
		</g>
		<g>
			<g>
				<g>
					<g>
						<g>
							<path class="st6" d="M141.3137,67.2358"/>
						</g>
					</g>
				</g>
			</g>
		</g>
		<g>
			<g>
				<g>
					<g>
						<g>
							
								<rect x="149.7581" y="34.0953" transform="matrix(0.7071 -0.7071 0.7071 0.7071 19.3112 116.9505)" class="st7" width="2.1384" height="2.1384"/>
						</g>
					</g>
				</g>
			</g>
		</g>
		<g>
			<g>
				<g>
					<g>
						<g>
							
								<rect x="143.0275" y="27.3647" transform="matrix(0.7071 -0.7071 0.7071 0.7071 22.3303 109.6618)" class="st7" width="1.0223" height="1.0223"/>
						</g>
					</g>
				</g>
			</g>
		</g>
		<g>
			<g>
				<g>
					<g>
						<g>
							<circle class="st7" cx="150.6803" cy="21.5287" r="1.0899"/>
						</g>
					</g>
				</g>
			</g>
		</g>
		<g>
			<g>
				<g>
					<g>
						<g>
							<path class="st6" d="M124.5957,50.2207c-0.7639,0-1.3833-0.6194-1.3833-1.3833V34.1266c0-0.7639,0.6194-1.3833,1.3833-1.3833
								c0.7639,0,1.3833,0.6194,1.3833,1.3833v14.7107C125.979,49.6012,125.3595,50.2207,124.5957,50.2207z"/>
						</g>
					</g>
				</g>
			</g>
		</g>
	</g>
	<g>
		<g>
			<g>
				<g>
					<path class="st0" d="M71.9526,101.9534h7.599v0.6076c0,1.3817-0.1626,2.6046-0.4882,3.6686
						c-0.3176,0.9846-0.8538,1.9058-1.6082,2.7634c-1.7073,1.9217-3.8789,2.8822-6.5152,2.8822
						c-2.5728,0-4.7765-0.9288-6.6105-2.7869c-1.8346-1.8661-2.7516-4.1054-2.7516-6.7179c0-2.6681,0.9329-4.9315,2.7993-6.7896
						c1.8658-1.8658,4.1368-2.799,6.8132-2.799c1.437,0,2.779,0.2926,4.0257,0.8773c1.1911,0.5853,2.3625,1.5355,3.5139,2.851
						l-1.9772,1.8937c-1.5087-2.009-3.3472-3.0137-5.5147-3.0137c-1.9458,0-3.5775,0.6711-4.8956,2.0131
						c-1.3182,1.3182-1.9772,2.9698-1.9772,4.955c0,2.0487,0.7344,3.7363,2.2037,5.0624c1.3735,1.2308,2.8625,1.8461,4.4665,1.8461
						c1.3658,0,2.5925-0.4594,3.6807-1.3782c1.0876-0.9267,1.6952-2.0355,1.8223-3.3266h-4.5856V101.9534z"/>
				</g>
			</g>
		</g>
		<g>
			<g>
				<g>
					<path class="st0" d="M92.1595,93.1392V111.53H89.384V93.1392H92.1595z"/>
				</g>
			</g>
		</g>
		<g>
			<g>
				<g>
					<path class="st0" d="M107.9951,95.7479V111.53h-2.7754V95.7479h-4.2283v-2.6087h11.22v2.6087H107.9951z"/>
				</g>
			</g>
		</g>
		<g>
			<g>
				<g>
					<path class="st0" d="M133.967,94.1218v3.2816c-1.604-1.342-3.2637-2.0131-4.9789-2.0131c-1.8899,0-3.4822,0.6791-4.7762,2.037
						c-1.3026,1.3499-1.9534,3.0016-1.9534,4.955c0,1.9296,0.6508,3.5575,1.9534,4.8836c1.302,1.3261,2.8981,1.989,4.788,1.989
						c0.977,0,1.8067-0.1585,2.4896-0.4764c0.3811-0.1585,0.7761-0.3729,1.1852-0.6429c0.4088-0.27,0.8397-0.5958,1.2923-0.977
						v3.3531c-1.5882,0.9014-3.2557,1.352-5.0027,1.352c-2.6284,0-4.8718-0.917-6.7299-2.7516
						c-1.8502-1.8499-2.7751-4.0813-2.7751-6.6938c0-2.3425,0.7741-4.4309,2.3228-6.2656c1.9058-2.2469,4.3712-3.3707,7.3967-3.3707
						C130.8304,92.7819,132.4265,93.2286,133.967,94.1218z"/>
				</g>
			</g>
		</g>
		<g>
			<g>
				<g>
					<path class="st7" d="M144.4336,99.3205c0-2.5884,0.9488-4.8121,2.8469-6.6702c1.8896-1.8581,4.1607-2.7869,6.8132-2.7869
						c2.6205,0,4.8674,0.937,6.7414,2.811c1.8823,1.874,2.8231,4.1251,2.8231,6.7535c0,2.6443-0.9449,4.8877-2.8349,6.7299
						c-1.8978,1.8502-4.1889,2.7751-6.8726,2.7751c-2.3746,0-4.5065-0.8217-6.3964-2.4658
						C145.4739,104.6491,144.4336,102.2669,144.4336,99.3205z M147.2329,99.3505c0,2.0311,0.6826,3.701,2.0487,5.0103
						c1.3576,1.3091,2.926,1.9634,4.7048,1.9634c1.9296,0,3.5575-0.6664,4.8836-1.9993c1.3261-1.3485,1.9893-2.991,1.9893-4.9268
						c0-1.9596-0.6553-3.6019-1.9655-4.9271c-1.3023-1.3329-2.9143-1.9993-4.8359-1.9993c-1.9137,0-3.5298,0.6664-4.848,1.9993
						C147.8917,95.7884,147.2329,97.4147,147.2329,99.3505z"/>
				</g>
			</g>
		</g>
		<g>
			<g>
				<g>
					<path class="st0" d="M174.6075,93.1392V111.53h-2.7754V93.1392H174.6075z"/>
				</g>
			</g>
		</g>
		<g>
			<g>
				<g>
					<path class="st0" d="M185.3687,111.53V91.8887l13.4122,14.031V93.1392h2.7751v19.5104l-13.4119-13.9954V111.53H185.3687z"/>
				</g>
			</g>
		</g>
	</g>
</g>
<g>
	<path class="st9" d="M68.8486,143.2363v16.2471h-2.8569v-16.2471h-4.353v-2.6855h11.5508v2.6855H68.8486z"/>
	<path class="st9" d="M84.0166,147.54h2.771v11.9434h-2.771v-1.251c-1.1362,1.0635-2.3584,1.5947-3.6665,1.5947
		c-1.6514,0-3.0166-0.5967-4.0952-1.791c-1.0713-1.2178-1.6064-2.7383-1.6064-4.5615c0-1.79,0.5352-3.2813,1.6064-4.4756
		c1.0708-1.1934,2.4111-1.79,4.0215-1.79c1.3896,0,2.6367,0.5723,3.7402,1.7168V147.54z M77.4688,153.4746
		c0,1.1445,0.3066,2.0771,0.9194,2.7959c0.6294,0.7275,1.4224,1.0918,2.3789,1.0918c1.022,0,1.8472-0.3516,2.4771-1.0547
		c0.6294-0.7275,0.9438-1.6514,0.9438-2.7715s-0.3145-2.043-0.9438-2.7715c-0.6299-0.7109-1.4473-1.0664-2.4526-1.0664
		c-0.9482,0-1.7412,0.3604-2.3789,1.0791C77.7832,151.5049,77.4688,152.4043,77.4688,153.4746z"/>
	<path class="st9" d="M93.0288,165.9824H90.27V147.54h2.7588v1.2998c1.0874-1.0869,2.3218-1.6309,3.7031-1.6309
		c1.6431,0,2.9961,0.6055,4.0591,1.8145c1.0791,1.2021,1.6182,2.7188,1.6182,4.5498c0,1.79-0.5352,3.2822-1.606,4.4756
		c-1.063,1.1855-2.4033,1.7783-4.022,1.7783c-1.3979,0-2.6489-0.5605-3.7524-1.6807V165.9824z M99.5894,153.585
		c0-1.1436-0.311-2.0762-0.9321-2.7949c-0.6294-0.7275-1.4224-1.0918-2.3789-1.0918c-1.0137,0-1.835,0.3516-2.4644,1.0547
		c-0.6299,0.7031-0.9443,1.627-0.9443,2.7715c0,1.1201,0.3145,2.043,0.9443,2.7705c0.6211,0.7119,1.4385,1.0674,2.4521,1.0674
		c0.9565,0,1.7451-0.3594,2.3667-1.0791C99.2705,155.5635,99.5894,154.6641,99.5894,153.585z"/>
	<path class="st9" d="M121.8818,147.54h2.771v11.9434h-2.771v-1.251c-1.1362,1.0635-2.3584,1.5947-3.6665,1.5947
		c-1.6514,0-3.0166-0.5967-4.0952-1.791c-1.0713-1.2178-1.6064-2.7383-1.6064-4.5615c0-1.79,0.5352-3.2813,1.6064-4.4756
		c1.0708-1.1934,2.4111-1.79,4.0215-1.79c1.3896,0,2.6367,0.5723,3.7402,1.7168V147.54z M115.334,153.4746
		c0,1.1445,0.3066,2.0771,0.9194,2.7959c0.6294,0.7275,1.4224,1.0918,2.3789,1.0918c1.022,0,1.8472-0.3516,2.4771-1.0547
		c0.6294-0.7275,0.9438-1.6514,0.9438-2.7715s-0.3145-2.043-0.9438-2.7715c-0.6299-0.7109-1.4473-1.0664-2.4526-1.0664
		c-0.9482,0-1.7412,0.3604-2.3789,1.0791C115.6484,151.5049,115.334,152.4043,115.334,153.4746z"/>
	<path class="st9" d="M138.6436,138.7725v10.1533c1.1035-1.1445,2.3545-1.7168,3.752-1.7168c1.6104,0,2.9512,0.6006,4.0225,1.8027
		c1.0703,1.1934,1.6064,2.6816,1.6064,4.4629c0,1.8398-0.54,3.3604-1.6191,4.5615c-1.0703,1.1943-2.4238,1.791-4.0586,1.791
		c-1.3818,0-2.6162-0.5313-3.7031-1.5947v1.251h-2.7588v-20.7109H138.6436z M145.2041,153.5977
		c0-1.1445-0.3105-2.0762-0.9316-2.7959c-0.6299-0.7354-1.4189-1.1035-2.3672-1.1035c-1.0137,0-1.8389,0.3555-2.4766,1.0664
		c-0.6299,0.7031-0.9443,1.6191-0.9443,2.7471c0,1.1611,0.3105,2.0889,0.9316,2.7832c0.6211,0.7119,1.4385,1.0674,2.4521,1.0674
		c0.957,0,1.75-0.3555,2.3789-1.0674C144.8848,155.5762,145.2041,154.6768,145.2041,153.5977z"/>
	<path class="st9" d="M153.7012,147.54v6.8545c0,1.9785,0.7803,2.9678,2.3418,2.9678s2.3428-0.9893,2.3428-2.9678V147.54h2.7588
		v6.916c0,0.9561-0.1191,1.7822-0.3555,2.4766c-0.2295,0.6221-0.626,1.1816-1.1895,1.6807
		c-0.9326,0.8086-2.1172,1.2139-3.5566,1.2139c-1.4307,0-2.6113-0.4053-3.543-1.2139c-0.5723-0.499-0.9775-1.0586-1.2139-1.6807
		c-0.2295-0.5557-0.3438-1.3809-0.3438-2.4766v-6.916H153.7012z"/>
	<path class="st9" d="M167.4717,150.1152v9.3682h-2.7588v-9.3682h-1.1777V147.54h1.1777v-4.377h2.7588v4.377h2.1455v2.5752H167.4717
		z"/>
	<path class="st9" d="M174.3389,150.1152v9.3682h-2.7588v-9.3682h-1.1777V147.54h1.1777v-4.377h2.7588v4.377h2.1455v2.5752H174.3389
		z"/>
	<path class="st9" d="M177.7959,153.4258c0-1.7246,0.6172-3.1924,1.8516-4.4023c1.2344-1.209,2.7393-1.8145,4.5127-1.8145
		c1.7822,0,3.2939,0.6094,4.5371,1.8271c1.2266,1.2178,1.8389,2.7139,1.8389,4.4883c0,1.79-0.6172,3.29-1.8516,4.5
		c-1.2422,1.2012-2.7666,1.8027-4.5732,1.8027c-1.79,0-3.291-0.6133-4.5-1.8398
		C178.4014,156.7773,177.7959,155.2568,177.7959,153.4258z M180.6162,153.4746c0,1.1943,0.3193,2.1387,0.957,2.833
		c0.6533,0.7031,1.5156,1.0547,2.5869,1.0547c1.0791,0,1.9414-0.3477,2.5879-1.043c0.6455-0.6943,0.9678-1.6221,0.9678-2.7832
		c0-1.1602-0.3223-2.0879-0.9678-2.7832c-0.6543-0.7031-1.5166-1.0547-2.5879-1.0547c-1.0547,0-1.9092,0.3516-2.5625,1.0547
		C180.9434,151.4561,180.6162,152.3633,180.6162,153.4746z"/>
	<path class="st9" d="M193.4551,147.54h2.7715v1.1035c0.9639-0.9561,2.0518-1.4346,3.2617-1.4346
		c1.3896,0,2.4727,0.4375,3.249,1.3125c0.6699,0.7432,1.0059,1.958,1.0059,3.6416v7.3203h-2.7715v-6.6709
		c0-1.1768-0.1641-1.9902-0.4902-2.4395c-0.3193-0.458-0.8994-0.6865-1.7412-0.6865c-0.916,0-1.5654,0.3018-1.9502,0.9072
		c-0.376,0.5967-0.5635,1.6387-0.5635,3.127v5.7627h-2.7715V147.54z"/>
	<path class="st9" d="M208.9297,155.9395l2.4531,0.957l-3.4951,7.001l-1.8643-0.7725L208.9297,155.9395z"/>
	<path class="st9" d="M80.8345,184.7705c0,0.5645-0.0186,1.0605-0.0552,1.4902c-0.0366,0.4287-0.0879,0.8066-0.1533,1.1338
		c-0.1963,0.8994-0.5806,1.6719-1.1523,2.3174c-1.0791,1.2432-2.563,1.8643-4.4512,1.8643c-1.5942,0-2.9063-0.4297-3.936-1.2871
		c-1.063-0.8838-1.6763-2.1055-1.8394-3.667h2.771c0.106,0.5889,0.2822,1.042,0.5273,1.3613
		c0.5723,0.7441,1.4058,1.1162,2.5015,1.1162c2.019,0,3.0288-1.2393,3.0288-3.7158v-1.668
		c-1.0957,1.1201-2.3589,1.6807-3.7891,1.6807c-1.627,0-2.9595-0.5889-3.9976-1.7666c-1.0464-1.1934-1.5693-2.6846-1.5693-4.4756
		c0-1.7412,0.4863-3.2207,1.459-4.4385c1.0464-1.291,2.4282-1.9375,4.1445-1.9375c1.5039,0,2.7549,0.5605,3.7524,1.6797v-1.3486
		h2.7588V184.7705z M78.186,179.1055c0-1.1602-0.311-2.0879-0.9321-2.7832c-0.6294-0.7109-1.4346-1.0664-2.4155-1.0664
		c-1.0464,0-1.8721,0.3877-2.4771,1.1641c-0.5479,0.6953-0.8213,1.5947-0.8213,2.6982c0,1.0869,0.2734,1.9785,0.8213,2.6729
		c0.5967,0.7607,1.4224,1.1406,2.4771,1.1406s1.8882-0.3848,2.5015-1.1533C77.9038,181.084,78.186,180.1934,78.186,179.1055z"/>
	<path class="st9" d="M95.1934,179.7314h-8.5591c0.0737,0.9805,0.3926,1.7617,0.9565,2.3418
		c0.564,0.5723,1.2876,0.8584,2.1704,0.8584c0.6865,0,1.2549-0.1641,1.7046-0.4902c0.4414-0.3271,0.9438-0.9326,1.5078-1.8154
		l2.3301,1.2998c-0.3599,0.6133-0.7402,1.1387-1.1406,1.5762s-0.8296,0.7969-1.2871,1.0791
		c-0.458,0.2813-0.9526,0.4883-1.4839,0.6191c-0.5317,0.1299-1.1079,0.1963-1.729,0.1963c-1.7822,0-3.2124-0.5723-4.2915-1.7168
		c-1.0791-1.1533-1.6187-2.6816-1.6187-4.5859c0-1.8887,0.5229-3.417,1.5693-4.5859c1.0547-1.1533,2.4526-1.7295,4.1938-1.7295
		c1.7573,0,3.147,0.5605,4.1689,1.6797c1.0137,1.1123,1.5205,2.6533,1.5205,4.623L95.1934,179.7314z M92.3608,177.4746
		c-0.3843-1.4717-1.312-2.207-2.7837-2.207c-0.335,0-0.6499,0.0508-0.9438,0.1533c-0.2944,0.1025-0.5625,0.249-0.8032,0.4414
		c-0.2412,0.1924-0.4478,0.4229-0.6191,0.6924c-0.1719,0.2705-0.3027,0.5771-0.3926,0.9199H92.3608z"/>
	<path class="st9" d="M101.0547,175.6846v9.3682h-2.7588v-9.3682h-1.1772v-2.5752h1.1772v-4.377h2.7588v4.377h2.146v2.5752H101.0547
		z"/>
	<path class="st9" d="M121.6304,173.1094h2.771v11.9434h-2.771v-1.251c-1.1362,1.0635-2.3584,1.5947-3.6665,1.5947
		c-1.6514,0-3.0166-0.5967-4.0952-1.791c-1.0713-1.2178-1.6064-2.7383-1.6064-4.5615c0-1.79,0.5352-3.2813,1.6064-4.4756
		c1.0708-1.1934,2.4111-1.79,4.0215-1.79c1.3896,0,2.6367,0.5723,3.7402,1.7168V173.1094z M115.0825,179.0439
		c0,1.1445,0.3066,2.0771,0.9194,2.7959c0.6294,0.7275,1.4224,1.0918,2.3789,1.0918c1.022,0,1.8472-0.3516,2.4771-1.0547
		c0.6294-0.7275,0.9438-1.6514,0.9438-2.7715s-0.3145-2.043-0.9438-2.7715c-0.6299-0.7109-1.4473-1.0664-2.4526-1.0664
		c-0.9482,0-1.7412,0.3604-2.3789,1.0791C115.397,177.0742,115.0825,177.9736,115.0825,179.0439z"/>
	<path class="st9" d="M144.9287,173.625v3.666c-0.6299-0.7686-1.1943-1.2959-1.6924-1.582
		c-0.4902-0.2939-1.0664-0.4414-1.7295-0.4414c-1.0381,0-1.9004,0.3643-2.5869,1.0918s-1.0303,1.6387-1.0303,2.7344
		c0,1.1201,0.3311,2.0391,0.9932,2.7588c0.6709,0.7197,1.5254,1.0791,2.5635,1.0791c0.6621,0,1.2461-0.1436,1.7529-0.4297
		c0.4902-0.2773,1.0674-0.8174,1.7295-1.6182v3.6416c-1.1201,0.5801-2.2402,0.8711-3.3604,0.8711
		c-1.8477,0-3.3926-0.5967-4.6348-1.791c-1.2432-1.2012-1.8643-2.6934-1.8643-4.4756c0-1.7813,0.6299-3.2861,1.8887-4.5117
		c1.2588-1.2266,2.8037-1.8398,4.6348-1.8398C142.7705,172.7783,143.8818,173.0605,144.9287,173.625z"/>
	<path class="st9" d="M147.0371,178.9951c0-1.7246,0.6172-3.1924,1.8516-4.4023c1.2344-1.209,2.7393-1.8145,4.5127-1.8145
		c1.7822,0,3.2939,0.6094,4.5371,1.8271c1.2266,1.2178,1.8389,2.7139,1.8389,4.4883c0,1.79-0.6172,3.29-1.8516,4.5
		c-1.2422,1.2012-2.7666,1.8027-4.5732,1.8027c-1.79,0-3.291-0.6133-4.5-1.8398
		C147.6426,182.3467,147.0371,180.8262,147.0371,178.9951z M149.8574,179.0439c0,1.1943,0.3193,2.1387,0.957,2.833
		c0.6533,0.7031,1.5156,1.0547,2.5869,1.0547c1.0791,0,1.9414-0.3477,2.5879-1.043c0.6455-0.6943,0.9678-1.6221,0.9678-2.7832
		c0-1.1602-0.3223-2.0879-0.9678-2.7832c-0.6543-0.7031-1.5166-1.0547-2.5879-1.0547c-1.0547,0-1.9092,0.3516-2.5625,1.0547
		C150.1846,177.0254,149.8574,177.9326,149.8574,179.0439z"/>
	<path class="st9" d="M171.499,164.3418h2.7715v20.7109h-2.7715v-1.251c-1.0869,1.0635-2.3174,1.5947-3.6904,1.5947
		c-1.6348,0-2.9922-0.5967-4.0713-1.791c-1.0703-1.2178-1.6064-2.7383-1.6064-4.5615c0-1.7813,0.5361-3.2695,1.6064-4.4629
		c1.0625-1.2021,2.3994-1.8027,4.0098-1.8027c1.3984,0,2.6484,0.5723,3.752,1.7168V164.3418z M164.9512,179.0439
		c0,1.1445,0.3066,2.0771,0.9199,2.7959c0.6299,0.7275,1.4229,1.0918,2.3789,1.0918c1.0215,0,1.8477-0.3516,2.4766-1.0547
		c0.6299-0.7275,0.9443-1.6514,0.9443-2.7715s-0.3145-2.043-0.9443-2.7715c-0.6289-0.7109-1.4463-1.0664-2.4521-1.0664
		c-0.9482,0-1.7412,0.3604-2.3789,1.0791C165.2666,177.0742,164.9512,177.9736,164.9512,179.0439z"/>
	<path class="st9" d="M188.6289,179.7314h-8.5586c0.0732,0.9805,0.3926,1.7617,0.957,2.3418
		c0.5635,0.5723,1.2871,0.8584,2.1699,0.8584c0.6865,0,1.2549-0.1641,1.7041-0.4902c0.4414-0.3271,0.9443-0.9326,1.5088-1.8154
		l2.3291,1.2998c-0.3594,0.6133-0.7393,1.1387-1.1396,1.5762c-0.4014,0.4375-0.8301,0.7969-1.2881,1.0791
		c-0.458,0.2813-0.9521,0.4883-1.4834,0.6191c-0.5313,0.1299-1.1074,0.1963-1.7285,0.1963c-1.7822,0-3.2129-0.5723-4.292-1.7168
		c-1.0791-1.1533-1.6191-2.6816-1.6191-4.5859c0-1.8887,0.5234-3.417,1.5703-4.5859c1.0537-1.1533,2.4521-1.7295,4.1934-1.7295
		c1.7578,0,3.1475,0.5605,4.1689,1.6797c1.0137,1.1123,1.5205,2.6533,1.5205,4.623L188.6289,179.7314z M185.7969,177.4746
		c-0.3848-1.4717-1.3125-2.207-2.7832-2.207c-0.3359,0-0.6504,0.0508-0.9443,0.1533c-0.2949,0.1025-0.5625,0.249-0.8037,0.4414
		s-0.4473,0.4229-0.6191,0.6924c-0.1719,0.2705-0.3027,0.5771-0.3926,0.9199H185.7969z"/>
	<path class="st9" d="M191.6465,173.1094h2.7588v1.0674c0.5068-0.5313,0.957-0.8955,1.3486-1.0918
		c0.4004-0.2041,0.875-0.3066,1.4229-0.3066c0.7275,0,1.4873,0.2373,2.2803,0.7109l-1.2627,2.5264
		c-0.5234-0.376-1.0342-0.5645-1.5322-0.5645c-1.5049,0-2.2568,1.1367-2.2568,3.4092v6.1924h-2.7588V173.1094z"/>
	<path class="st9" d="M201.4678,183.6797c0-0.458,0.168-0.8545,0.5029-1.1895s0.7363-0.5029,1.2021-0.5029
		s0.8662,0.168,1.2012,0.5029s0.5029,0.7354,0.5029,1.2012c0,0.4746-0.168,0.8789-0.5029,1.2139
		c-0.3271,0.3271-0.7275,0.4912-1.2012,0.4912c-0.4824,0-0.8877-0.1641-1.2139-0.4912
		C201.6318,184.5791,201.4678,184.1699,201.4678,183.6797z"/>
</g>
<g>
	<path class="st10" d="M67.8154,141.5557v16.2471h-2.8569v-16.2471h-4.353v-2.6855h11.5508v2.6855H67.8154z"/>
	<path class="st10" d="M82.9834,145.8594h2.771v11.9434h-2.771v-1.251c-1.1362,1.0635-2.3584,1.5947-3.6665,1.5947
		c-1.6514,0-3.0166-0.5967-4.0952-1.791c-1.0713-1.2178-1.6064-2.7383-1.6064-4.5615c0-1.79,0.5352-3.2813,1.6064-4.4756
		c1.0708-1.1934,2.4111-1.79,4.0215-1.79c1.3896,0,2.6367,0.5723,3.7402,1.7168V145.8594z M76.4355,151.7939
		c0,1.1445,0.3066,2.0771,0.9194,2.7959c0.6294,0.7275,1.4224,1.0918,2.3789,1.0918c1.022,0,1.8472-0.3516,2.4771-1.0547
		c0.6294-0.7275,0.9438-1.6514,0.9438-2.7715s-0.3145-2.043-0.9438-2.7715c-0.6299-0.7109-1.4473-1.0664-2.4526-1.0664
		c-0.9482,0-1.7412,0.3604-2.3789,1.0791C76.75,149.8242,76.4355,150.7236,76.4355,151.7939z"/>
	<path class="st10" d="M91.9956,164.3018h-2.7588v-18.4424h2.7588v1.2998c1.0874-1.0869,2.3218-1.6309,3.7031-1.6309
		c1.6431,0,2.9961,0.6055,4.0591,1.8145c1.0791,1.2021,1.6182,2.7188,1.6182,4.5498c0,1.79-0.5352,3.2822-1.606,4.4756
		c-1.063,1.1855-2.4033,1.7783-4.022,1.7783c-1.3979,0-2.6489-0.5605-3.7524-1.6807V164.3018z M98.5562,151.9043
		c0-1.1436-0.311-2.0762-0.9321-2.7949c-0.6294-0.7275-1.4224-1.0918-2.3789-1.0918c-1.0137,0-1.835,0.3516-2.4644,1.0547
		c-0.6299,0.7031-0.9443,1.627-0.9443,2.7715c0,1.1201,0.3145,2.043,0.9443,2.7705c0.6211,0.7119,1.4385,1.0674,2.4521,1.0674
		c0.9565,0,1.7451-0.3594,2.3667-1.0791C98.2373,153.8828,98.5562,152.9834,98.5562,151.9043z"/>
	<path class="st10" d="M120.8486,145.8594h2.771v11.9434h-2.771v-1.251c-1.1362,1.0635-2.3584,1.5947-3.6665,1.5947
		c-1.6514,0-3.0166-0.5967-4.0952-1.791c-1.0713-1.2178-1.6064-2.7383-1.6064-4.5615c0-1.79,0.5352-3.2813,1.6064-4.4756
		c1.0708-1.1934,2.4111-1.79,4.0215-1.79c1.3896,0,2.6367,0.5723,3.7402,1.7168V145.8594z M114.3008,151.7939
		c0,1.1445,0.3066,2.0771,0.9194,2.7959c0.6294,0.7275,1.4224,1.0918,2.3789,1.0918c1.022,0,1.8472-0.3516,2.4771-1.0547
		c0.6294-0.7275,0.9438-1.6514,0.9438-2.7715s-0.3145-2.043-0.9438-2.7715c-0.6299-0.7109-1.4473-1.0664-2.4526-1.0664
		c-0.9482,0-1.7412,0.3604-2.3789,1.0791C114.6152,149.8242,114.3008,150.7236,114.3008,151.7939z"/>
	<path class="st10" d="M137.6104,137.0918v10.1533c1.1035-1.1445,2.3545-1.7168,3.752-1.7168c1.6104,0,2.9512,0.6006,4.0225,1.8027
		c1.0703,1.1934,1.6064,2.6816,1.6064,4.4629c0,1.8398-0.54,3.3604-1.6191,4.5615c-1.0703,1.1943-2.4238,1.791-4.0586,1.791
		c-1.3818,0-2.6162-0.5313-3.7031-1.5947v1.251h-2.7588v-20.7109H137.6104z M144.1709,151.917c0-1.1445-0.3105-2.0762-0.9316-2.7959
		c-0.6299-0.7354-1.4189-1.1035-2.3672-1.1035c-1.0137,0-1.8389,0.3555-2.4766,1.0664c-0.6299,0.7031-0.9443,1.6191-0.9443,2.7471
		c0,1.1611,0.3105,2.0889,0.9316,2.7832c0.6211,0.7119,1.4385,1.0674,2.4521,1.0674c0.957,0,1.75-0.3555,2.3789-1.0674
		C143.8516,153.8955,144.1709,152.9961,144.1709,151.917z"/>
	<path class="st10" d="M152.668,145.8594v6.8545c0,1.9785,0.7803,2.9678,2.3418,2.9678s2.3428-0.9893,2.3428-2.9678v-6.8545h2.7588
		v6.916c0,0.9561-0.1191,1.7822-0.3555,2.4766c-0.2295,0.6221-0.626,1.1816-1.1895,1.6807
		c-0.9326,0.8086-2.1172,1.2139-3.5566,1.2139c-1.4307,0-2.6113-0.4053-3.543-1.2139c-0.5723-0.499-0.9775-1.0586-1.2139-1.6807
		c-0.2295-0.5557-0.3438-1.3809-0.3438-2.4766v-6.916H152.668z"/>
	<path class="st10" d="M166.4385,148.4346v9.3682h-2.7588v-9.3682h-1.1777v-2.5752h1.1777v-4.377h2.7588v4.377h2.1455v2.5752
		H166.4385z"/>
	<path class="st10" d="M173.3057,148.4346v9.3682h-2.7588v-9.3682h-1.1777v-2.5752h1.1777v-4.377h2.7588v4.377h2.1455v2.5752
		H173.3057z"/>
	<path class="st10" d="M176.7627,151.7451c0-1.7246,0.6172-3.1924,1.8516-4.4023c1.2344-1.209,2.7393-1.8145,4.5127-1.8145
		c1.7822,0,3.2939,0.6094,4.5371,1.8271c1.2266,1.2178,1.8389,2.7139,1.8389,4.4883c0,1.79-0.6172,3.29-1.8516,4.5
		c-1.2422,1.2012-2.7666,1.8027-4.5732,1.8027c-1.79,0-3.291-0.6133-4.5-1.8398
		C177.3682,155.0967,176.7627,153.5762,176.7627,151.7451z M179.583,151.7939c0,1.1943,0.3193,2.1387,0.957,2.833
		c0.6533,0.7031,1.5156,1.0547,2.5869,1.0547c1.0791,0,1.9414-0.3477,2.5879-1.043c0.6455-0.6943,0.9678-1.6221,0.9678-2.7832
		c0-1.1602-0.3223-2.0879-0.9678-2.7832c-0.6543-0.7031-1.5166-1.0547-2.5879-1.0547c-1.0547,0-1.9092,0.3516-2.5625,1.0547
		C179.9102,149.7754,179.583,150.6826,179.583,151.7939z"/>
	<path class="st10" d="M192.4219,145.8594h2.7715v1.1035c0.9639-0.9561,2.0518-1.4346,3.2617-1.4346
		c1.3896,0,2.4727,0.4375,3.249,1.3125c0.6699,0.7432,1.0059,1.958,1.0059,3.6416v7.3203h-2.7715v-6.6709
		c0-1.1768-0.1641-1.9902-0.4902-2.4395c-0.3193-0.458-0.8994-0.6865-1.7412-0.6865c-0.916,0-1.5654,0.3018-1.9502,0.9072
		c-0.376,0.5967-0.5635,1.6387-0.5635,3.127v5.7627h-2.7715V145.8594z"/>
	<path class="st10" d="M207.8965,154.2588l2.4531,0.957l-3.4951,7.001l-1.8643-0.7725L207.8965,154.2588z"/>
	<path class="st10" d="M79.8013,183.0898c0,0.5645-0.0186,1.0605-0.0552,1.4902c-0.0366,0.4287-0.0879,0.8066-0.1533,1.1338
		c-0.1963,0.8994-0.5806,1.6719-1.1523,2.3174c-1.0791,1.2432-2.563,1.8643-4.4512,1.8643c-1.5942,0-2.9063-0.4297-3.936-1.2871
		c-1.063-0.8838-1.6763-2.1055-1.8394-3.667h2.771c0.106,0.5889,0.2822,1.042,0.5273,1.3613
		c0.5723,0.7441,1.4058,1.1162,2.5015,1.1162c2.019,0,3.0288-1.2393,3.0288-3.7158v-1.668
		c-1.0957,1.1201-2.3589,1.6807-3.7891,1.6807c-1.627,0-2.9595-0.5889-3.9976-1.7666c-1.0464-1.1934-1.5693-2.6846-1.5693-4.4756
		c0-1.7412,0.4863-3.2207,1.459-4.4385c1.0464-1.291,2.4282-1.9375,4.1445-1.9375c1.5039,0,2.7549,0.5605,3.7524,1.6797v-1.3486
		h2.7588V183.0898z M77.1528,177.4248c0-1.1602-0.311-2.0879-0.9321-2.7832c-0.6294-0.7109-1.4346-1.0664-2.4155-1.0664
		c-1.0464,0-1.8721,0.3877-2.4771,1.1641c-0.5479,0.6953-0.8213,1.5947-0.8213,2.6982c0,1.0869,0.2734,1.9785,0.8213,2.6729
		c0.5967,0.7607,1.4224,1.1406,2.4771,1.1406s1.8882-0.3848,2.5015-1.1533C76.8706,179.4033,77.1528,178.5127,77.1528,177.4248z"/>
	<path class="st10" d="M94.1602,178.0508h-8.5591c0.0737,0.9805,0.3926,1.7617,0.9565,2.3418
		c0.564,0.5723,1.2876,0.8584,2.1704,0.8584c0.6865,0,1.2549-0.1641,1.7046-0.4902c0.4414-0.3271,0.9438-0.9326,1.5078-1.8154
		l2.3301,1.2998c-0.3599,0.6133-0.7402,1.1387-1.1406,1.5762s-0.8296,0.7969-1.2871,1.0791
		c-0.458,0.2813-0.9526,0.4883-1.4839,0.6191c-0.5317,0.1299-1.1079,0.1963-1.729,0.1963c-1.7822,0-3.2124-0.5723-4.2915-1.7168
		c-1.0791-1.1533-1.6187-2.6816-1.6187-4.5859c0-1.8887,0.5229-3.417,1.5693-4.5859c1.0547-1.1533,2.4526-1.7295,4.1938-1.7295
		c1.7573,0,3.147,0.5605,4.1689,1.6797c1.0137,1.1123,1.5205,2.6533,1.5205,4.623L94.1602,178.0508z M91.3276,175.7939
		c-0.3843-1.4717-1.312-2.207-2.7837-2.207c-0.335,0-0.6499,0.0508-0.9438,0.1533c-0.2944,0.1025-0.5625,0.249-0.8032,0.4414
		c-0.2412,0.1924-0.4478,0.4229-0.6191,0.6924c-0.1719,0.2705-0.3027,0.5771-0.3926,0.9199H91.3276z"/>
	<path class="st10" d="M100.0215,174.0039v9.3682h-2.7588v-9.3682h-1.1772v-2.5752h1.1772v-4.377h2.7588v4.377h2.146v2.5752
		H100.0215z"/>
	<path class="st10" d="M120.5972,171.4287h2.771v11.9434h-2.771v-1.251c-1.1362,1.0635-2.3584,1.5947-3.6665,1.5947
		c-1.6514,0-3.0166-0.5967-4.0952-1.791c-1.0713-1.2178-1.6064-2.7383-1.6064-4.5615c0-1.79,0.5352-3.2813,1.6064-4.4756
		c1.0708-1.1934,2.4111-1.79,4.0215-1.79c1.3896,0,2.6367,0.5723,3.7402,1.7168V171.4287z M114.0493,177.3633
		c0,1.1445,0.3066,2.0771,0.9194,2.7959c0.6294,0.7275,1.4224,1.0918,2.3789,1.0918c1.022,0,1.8472-0.3516,2.4771-1.0547
		c0.6294-0.7275,0.9438-1.6514,0.9438-2.7715s-0.3145-2.043-0.9438-2.7715c-0.6299-0.7109-1.4473-1.0664-2.4526-1.0664
		c-0.9482,0-1.7412,0.3604-2.3789,1.0791C114.3638,175.3936,114.0493,176.293,114.0493,177.3633z"/>
	<path class="st10" d="M143.8955,171.9443v3.666c-0.6299-0.7686-1.1943-1.2959-1.6924-1.582
		c-0.4902-0.2939-1.0664-0.4414-1.7295-0.4414c-1.0381,0-1.9004,0.3643-2.5869,1.0918s-1.0303,1.6387-1.0303,2.7344
		c0,1.1201,0.3311,2.0391,0.9932,2.7588c0.6709,0.7197,1.5254,1.0791,2.5635,1.0791c0.6621,0,1.2461-0.1436,1.7529-0.4297
		c0.4902-0.2773,1.0674-0.8174,1.7295-1.6182v3.6416c-1.1201,0.5801-2.2402,0.8711-3.3604,0.8711
		c-1.8477,0-3.3926-0.5967-4.6348-1.791c-1.2432-1.2012-1.8643-2.6934-1.8643-4.4756c0-1.7813,0.6299-3.2861,1.8887-4.5117
		c1.2588-1.2266,2.8037-1.8398,4.6348-1.8398C141.7373,171.0977,142.8486,171.3799,143.8955,171.9443z"/>
	<path class="st10" d="M146.0039,177.3145c0-1.7246,0.6172-3.1924,1.8516-4.4023c1.2344-1.209,2.7393-1.8145,4.5127-1.8145
		c1.7822,0,3.2939,0.6094,4.5371,1.8271c1.2266,1.2178,1.8389,2.7139,1.8389,4.4883c0,1.79-0.6172,3.29-1.8516,4.5
		c-1.2422,1.2012-2.7666,1.8027-4.5732,1.8027c-1.79,0-3.291-0.6133-4.5-1.8398
		C146.6094,180.666,146.0039,179.1455,146.0039,177.3145z M148.8242,177.3633c0,1.1943,0.3193,2.1387,0.957,2.833
		c0.6533,0.7031,1.5156,1.0547,2.5869,1.0547c1.0791,0,1.9414-0.3477,2.5879-1.043c0.6455-0.6943,0.9678-1.6221,0.9678-2.7832
		c0-1.1602-0.3223-2.0879-0.9678-2.7832c-0.6543-0.7031-1.5166-1.0547-2.5879-1.0547c-1.0547,0-1.9092,0.3516-2.5625,1.0547
		C149.1514,175.3447,148.8242,176.252,148.8242,177.3633z"/>
	<path class="st10" d="M170.4658,162.6611h2.7715v20.7109h-2.7715v-1.251c-1.0869,1.0635-2.3174,1.5947-3.6904,1.5947
		c-1.6348,0-2.9922-0.5967-4.0713-1.791c-1.0703-1.2178-1.6064-2.7383-1.6064-4.5615c0-1.7813,0.5361-3.2695,1.6064-4.4629
		c1.0625-1.2021,2.3994-1.8027,4.0098-1.8027c1.3984,0,2.6484,0.5723,3.752,1.7168V162.6611z M163.918,177.3633
		c0,1.1445,0.3066,2.0771,0.9199,2.7959c0.6299,0.7275,1.4229,1.0918,2.3789,1.0918c1.0215,0,1.8477-0.3516,2.4766-1.0547
		c0.6299-0.7275,0.9443-1.6514,0.9443-2.7715s-0.3145-2.043-0.9443-2.7715c-0.6289-0.7109-1.4463-1.0664-2.4521-1.0664
		c-0.9482,0-1.7412,0.3604-2.3789,1.0791C164.2334,175.3936,163.918,176.293,163.918,177.3633z"/>
	<path class="st10" d="M187.5957,178.0508h-8.5586c0.0732,0.9805,0.3926,1.7617,0.957,2.3418
		c0.5635,0.5723,1.2871,0.8584,2.1699,0.8584c0.6865,0,1.2549-0.1641,1.7041-0.4902c0.4414-0.3271,0.9443-0.9326,1.5088-1.8154
		l2.3291,1.2998c-0.3594,0.6133-0.7393,1.1387-1.1396,1.5762c-0.4014,0.4375-0.8301,0.7969-1.2881,1.0791
		c-0.458,0.2813-0.9521,0.4883-1.4834,0.6191c-0.5313,0.1299-1.1074,0.1963-1.7285,0.1963c-1.7822,0-3.2129-0.5723-4.292-1.7168
		c-1.0791-1.1533-1.6191-2.6816-1.6191-4.5859c0-1.8887,0.5234-3.417,1.5703-4.5859c1.0537-1.1533,2.4521-1.7295,4.1934-1.7295
		c1.7578,0,3.1475,0.5605,4.1689,1.6797c1.0137,1.1123,1.5205,2.6533,1.5205,4.623L187.5957,178.0508z M184.7637,175.7939
		c-0.3848-1.4717-1.3125-2.207-2.7832-2.207c-0.3359,0-0.6504,0.0508-0.9443,0.1533c-0.2949,0.1025-0.5625,0.249-0.8037,0.4414
		s-0.4473,0.4229-0.6191,0.6924c-0.1719,0.2705-0.3027,0.5771-0.3926,0.9199H184.7637z"/>
	<path class="st10" d="M190.6133,171.4287h2.7588v1.0674c0.5068-0.5313,0.957-0.8955,1.3486-1.0918
		c0.4004-0.2041,0.875-0.3066,1.4229-0.3066c0.7275,0,1.4873,0.2373,2.2803,0.7109l-1.2627,2.5264
		c-0.5234-0.376-1.0342-0.5645-1.5322-0.5645c-1.5049,0-2.2568,1.1367-2.2568,3.4092v6.1924h-2.7588V171.4287z"/>
	<path class="st10" d="M200.4346,181.999c0-0.458,0.168-0.8545,0.5029-1.1895s0.7363-0.5029,1.2021-0.5029
		s0.8662,0.168,1.2012,0.5029s0.5029,0.7354,0.5029,1.2012c0,0.4746-0.168,0.8789-0.5029,1.2139
		c-0.3271,0.3271-0.7275,0.4912-1.2012,0.4912c-0.4824,0-0.8877-0.1641-1.2139-0.4912
		C200.5986,182.8984,200.4346,182.4893,200.4346,181.999z"/>
</g>
</svg>
