<?xml version="1.0" encoding="utf-8"?>
<!-- Generator: Adobe Illustrator 23.0.1, SVG Export Plug-In . SVG Version: 6.00 Build 0)  -->
<svg version="1.1" id="Layer_1" xmlns="http://www.w3.org/2000/svg" xmlns:xlink="http://www.w3.org/1999/xlink" x="0px" y="0px"
	 viewBox="0 0 508.6653 480.2611" style="enable-background:new 0 0 508.6653 480.2611;" xml:space="preserve">
<style type="text/css">
	.Drop_x0020_Shadow{fill:none;}
	.Round_x0020_Corners_x0020_2_x0020_pt{fill:#FFFFFF;stroke:#231F20;stroke-miterlimit:10;}
	.Live_x0020_Reflect_x0020_X{fill:none;}
	.Bevel_x0020_Soft{fill:url(#SVGID_1_);}
	.Dusk{fill:#FFFFFF;}
	.Foliage_GS{fill:#FFDD00;}
	.Pompadour_GS{fill-rule:evenodd;clip-rule:evenodd;fill:#44ADE2;}
	.st0{fill:#00EDA9;}
	.st1{fill:#FFFFFF;}
	.st2{fill:#00CC88;}
	.st3{fill:#FFFFFF;stroke:#25E899;stroke-width:11;stroke-linecap:round;stroke-miterlimit:10;}
	.st4{fill:#3C2C99;}
	.st5{fill:#2E1984;}
	.st6{fill:#0FCE7C;}
	.st7{fill:#EFF4EE;}
	.st8{fill:#00C1AA;}
	.st9{fill:#767676;}
	.st10{fill:#242424;}
	.st11{fill:#0F0F0F;}
	.st12{fill:#282828;}
	.st13{fill:#F15022;}
	.st14{fill:#7EB900;}
	.st15{fill:#00A3EE;}
	.st16{fill:#FDB800;}
	.st17{fill:#707072;}
</style>
<linearGradient id="SVGID_1_" gradientUnits="userSpaceOnUse" x1="-166.8193" y1="-56.6934" x2="-166.1122" y2="-55.9863">
	<stop  offset="0" style="stop-color:#DEDFE3"/>
	<stop  offset="0.1783" style="stop-color:#DADBDF"/>
	<stop  offset="0.3611" style="stop-color:#CECFD3"/>
	<stop  offset="0.546" style="stop-color:#B9BCBF"/>
	<stop  offset="0.7324" style="stop-color:#9CA0A2"/>
	<stop  offset="0.9181" style="stop-color:#787D7E"/>
	<stop  offset="1" style="stop-color:#656B6C"/>
</linearGradient>
<g>
	<rect x="-0.3126" y="0" class="st0" width="509.2906" height="480.2611"/>
</g>
<g>
	<g>
		<g>
			<rect x="-0.207" y="330.4329" class="st1" width="509.1849" height="149.8283"/>
		</g>
	</g>
</g>
<g>
	<g>
		<g>
			<g>
				<g>
					<path class="st2" d="M230.0533,134.4726c-2.1835-2.2401-4.3902-4.5037-6.5738-6.7439
						C182.0366,85.214,140.6168,42.6996,99.1734,0.208l16.461,0.2101c38.8457,39.8503,77.7142,79.724,116.5602,119.551
						l6.2061,6.3666C243.6414,131.712,235.2941,139.849,230.0533,134.4726z"/>
				</g>
			</g>
		</g>
	</g>
	<g>
		<g>
			<g>
				<g>
					<path class="st2" d="M188.4118,134.4726c-2.1835-2.2401-4.3902-4.5037-6.5738-6.7439
						C140.395,85.214,98.9753,42.6996,57.5319,0.208l16.461,0.2101c38.8457,39.8503,77.7142,79.724,116.5602,119.551l6.2061,6.3666
						C201.9998,131.712,193.6526,139.849,188.4118,134.4726z"/>
				</g>
			</g>
		</g>
	</g>
	<g>
		<g>
			<g>
				<g>
					<path class="st2" d="M112.1922,82.508l-6.2061-6.3666c-24.7393-25.364-49.4862-50.7465-74.232-76.1303H15.4958
						C42.7525,27.9728,70.0076,55.9325,97.271,83.901c2.1836,2.2401,4.3903,4.5037,6.5739,6.7438
						C109.0856,96.0212,117.4329,87.8842,112.1922,82.508z"/>
				</g>
			</g>
		</g>
	</g>
	<g>
		<g>
			<g>
				<g>
					<path class="st2" d="M292.6107,159.2564c-0.1608-0.1651-0.3217-0.33-0.4826-0.4951
						C240.7783,106.0835,189.4056,53.3822,138.0324,0.7041l16.4843,0.2104c48.2927,49.5416,96.5851,99.1066,144.901,148.6485
						c0.5058,0.5187,1.0344,1.061,1.5401,1.5798C306.1985,156.519,297.8515,164.6327,292.6107,159.2564z"/>
				</g>
			</g>
		</g>
	</g>
	<g>
		<g>
			<g>
				<g>
					<path class="st2" d="M314.7227,136.3453c-2.0419,1.2547-4.7445,1.3599-6.9281-0.8802
						c-43.6033-44.7545-87.2529-89.533-130.8799-134.2646l16.4843,0.2104c40.0405,41.0997,80.1044,82.1996,120.1685,123.2764
						c0.8506,0.8725,1.7239,1.7685,2.5745,2.641C319.199,130.4642,317.6331,134.566,314.7227,136.3453z"/>
				</g>
			</g>
		</g>
	</g>
	<g>
		<g>
			<g>
				<g>
					<path class="st2" d="M312.0594,136.3123c40.8461,0.5214,81.6923,1.0428,122.5384,1.5643
						c7.4907,0.0956,7.6517-11.5456,0.1486-11.6414c-40.8461-0.5214-81.6923-1.0428-122.5384-1.5643
						C304.7174,124.5753,304.5564,136.2165,312.0594,136.3123L312.0594,136.3123z"/>
				</g>
			</g>
		</g>
	</g>
	<g>
		<g>
			<g>
				<g>
					<path class="st2" d="M430.4921,137.0303c11.243,11.5337,22.4859,23.0674,33.7289,34.6011
						c5.2366,5.372,13.5756-2.7523,8.3368-8.1266c-11.243-11.5337-22.4859-23.0674-33.7289-34.6011
						C433.5923,123.5316,425.2533,131.6559,430.4921,137.0303L430.4921,137.0303z"/>
				</g>
			</g>
		</g>
	</g>
	<g>
		<g>
			<g>
				<g>
					<path class="st2" d="M296.707,161.1747c37.6574,0.4807,75.3148,0.9614,112.9722,1.4422
						c7.4907,0.0956,7.6517-11.5456,0.1486-11.6414c-37.6574-0.4807-75.3148-0.9614-112.9722-1.4421
						C289.365,149.4377,289.2039,161.0789,296.707,161.1747L296.707,161.1747z"/>
				</g>
			</g>
		</g>
	</g>
	<g>
		<g>
			<g>
				<g>
					<path class="st2" d="M405.5793,161.315c5.6964,5.8438,11.3929,11.6875,17.0893,17.5312
						c5.2366,5.372,13.5756-2.7523,8.3368-8.1266c-5.6964-5.8438-11.3929-11.6875-17.0893-17.5312
						C408.6795,147.8164,400.3405,155.9407,405.5793,161.315L405.5793,161.315z"/>
				</g>
			</g>
		</g>
	</g>
	<g>
		<g>
			<g>
				<g>
					<path class="st2" d="M308.7817,85.5046c-1.9689,0.9995-4.413,0.9218-6.4127-1.1296
						c-26.8238-27.5411-53.6481-55.0591-80.4952-82.6006l16.461,0.2101c23.3993,24.0044,46.7986,48.0089,70.1979,72.0135
						c0.7356,0.7544,1.4481,1.4854,2.1837,2.24C313.9574,79.5628,311.992,83.9389,308.7817,85.5046z"/>
				</g>
			</g>
		</g>
	</g>
	<g>
		<g>
			<g>
				<g>
					<path class="st2" d="M309.5181,85.5556c28.7492,0.367,57.4984,0.734,86.2476,1.101
						c7.4907,0.0956,7.6517-11.5456,0.1486-11.6414c-28.7492-0.367-57.4984-0.734-86.2476-1.101
						C302.1761,73.8186,302.015,85.4598,309.5181,85.5556L309.5181,85.5556z"/>
				</g>
			</g>
		</g>
	</g>
	<g>
		<g>
			<g>
				<circle class="st2" cx="234.2182" cy="131.0157" r="11.2374"/>
			</g>
		</g>
	</g>
	<g>
		<g>
			<g>
				<circle class="st2" cx="192.5413" cy="131.0157" r="11.2374"/>
			</g>
		</g>
	</g>
	<g>
		<g>
			<g>
				<circle class="st2" cx="108.0484" cy="86.6572" r="11.2374"/>
			</g>
		</g>
	</g>
	<g>
		<g>
			<g>
				<circle class="st2" cx="428.0207" cy="177.228" r="11.2374"/>
			</g>
		</g>
	</g>
	<g>
		<g>
			<g>
				<circle class="st2" cx="469.135" cy="168.6407" r="11.2374"/>
			</g>
		</g>
	</g>
	<g>
		<g>
			<g>
				<circle class="st2" cx="398.2657" cy="81.1706" r="11.2374"/>
			</g>
		</g>
	</g>
	<g>
		<g>
			<g>
				<g>
					<path class="st2" d="M270.5863,44.9589c28.7492,0.367,57.4984,0.734,86.2476,1.101
						c7.4907,0.0956,7.6517-11.5456,0.1486-11.6414c-28.7492-0.367-57.4984-0.734-86.2476-1.101
						C263.2443,33.2219,263.0833,44.8631,270.5863,44.9589L270.5863,44.9589z"/>
				</g>
			</g>
		</g>
	</g>
	<g>
		<g>
			<g>
				<circle class="st2" cx="359.3339" cy="40.5739" r="11.2374"/>
			</g>
		</g>
	</g>
</g>
<g>
	<g>
		<g>
			<g>
				<g>
					<g>
						<g>
							<polygon class="st1" points="273.3513,105.0073 281.3877,120.8396 275.2899,146.7321 260.7684,134.8681 263.3132,115.8763 
															"/>
						</g>
					</g>
				</g>
			</g>
		</g>
		<g>
			<g>
				<g>
					<g>
						<g>
							<path class="st3" d="M251.8991,52.5902"/>
						</g>
					</g>
				</g>
			</g>
		</g>
		<g>
			<g>
				<g>
					<g>
						<g>
							<path class="st3" d="M251.8991,96.6753"/>
						</g>
					</g>
				</g>
			</g>
		</g>
		<g>
			<g>
				<g>
					<g>
						<g>
							<path class="st4" d="M251.899,99.7021c-1.6714,0-3.0269-1.3554-3.0269-3.0269v-23.857c0-1.6714,1.3554-3.0269,3.0269-3.0269
								s3.0269,1.3554,3.0269,3.0269v23.857C254.9258,98.3467,253.5704,99.7021,251.899,99.7021z"/>
						</g>
					</g>
				</g>
			</g>
		</g>
		<g>
			<g>
				<g>
					<g>
						<g>
							<line class="st1" x1="247.3988" y1="96.6753" x2="256.7546" y2="96.6753"/>
						</g>
					</g>
				</g>
			</g>
		</g>
		<g>
			<g>
				<g>
					<g>
						<g>
							<path class="st5" d="M256.7547,99.7021h-9.3558c-1.6714,0-3.0269-1.3554-3.0269-3.0269s1.3554-3.0269,3.0269-3.0269h9.3558
								c1.6714,0,3.0269,1.3554,3.0269,3.0269S258.4262,99.7021,256.7547,99.7021z"/>
						</g>
					</g>
				</g>
			</g>
		</g>
		<g>
			<g>
				<g>
					<g>
						<g>
							<path class="st1" d="M273.3513,105.0073l9.946-9.3744c-7.611-7.6109-18.1254-12.3184-29.7393-12.3184
								c-23.2278,0-42.0577,18.8299-42.0577,42.0577s18.8299,42.0577,42.0577,42.0577c8.658,0,16.2725,3.1607,22.9611-1.3243
								l8.3239,1.1518l-0.2381-13.5133l-23.8365-18.876l0,0l5.1245-24.1356L273.3513,105.0073"/>
						</g>
					</g>
				</g>
			</g>
		</g>
		<g>
			<g>
				<g>
					<g>
						<g>
							<path class="st4" d="M253.558,171.5573c-25.4666,0-46.1854-20.7183-46.1854-46.1849s20.7188-46.1854,46.1854-46.1854
								c12.3369,0,23.9349,4.8042,32.6581,13.5279l3.0059,3.0059l-13.0394,12.2902l-5.6625-6.0075l6.6815-6.2966
								c-6.6938-5.3567-14.9451-8.2648-23.6436-8.2648c-20.915,0-37.9304,17.0154-37.9304,37.9304
								c0,20.9145,17.0154,37.9298,37.9304,37.9298"/>
						</g>
					</g>
				</g>
			</g>
		</g>
		<g>
			<g>
				<g>
					<g>
						<g>
							<path class="st6" d="M276.7405,147.8325l-5.929-5.7442c4.3656-4.5054,6.7696-10.4419,6.7696-16.716
								c0-6.5492-2.5878-12.6696-7.2866-17.2336l-3.0924-3.0037l3.3165-3.1301l2.8253,2.9941l2.7022-2.7818
								c6.3133,6.1322,9.79,14.3556,9.79,23.1551C285.8362,133.8026,282.6056,141.7788,276.7405,147.8325z"/>
						</g>
					</g>
				</g>
			</g>
		</g>
		<g>
			<g>
				<g>
					<g>
						<g>
							<path class="st5" d="M273.7757,144.9603"/>
						</g>
					</g>
				</g>
			</g>
		</g>
		<g>
			<g>
				<g>
					<g>
						<g>
							<circle class="st7" cx="253.558" cy="125.3722" r="9.4959"/>
						</g>
					</g>
				</g>
			</g>
		</g>
		<g>
			<g>
				<g>
					<g>
						<g>
							<path class="st4" d="M253.558,138.9954c-7.5118,0-13.6236-6.1112-13.6236-13.623s6.1118-13.6236,13.6236-13.6236
								s13.6236,6.1118,13.6236,13.6236S261.0698,138.9954,253.558,138.9954z M253.558,120.0039
								c-2.9602,0-5.3685,2.4083-5.3685,5.3685c0,2.9597,2.4083,5.3679,5.3685,5.3679s5.3685-2.4083,5.3685-5.3679
								C258.9265,122.4121,256.5182,120.0039,253.558,120.0039z"/>
						</g>
					</g>
				</g>
			</g>
		</g>
		<g>
			<g>
				<g>
					<g>
						<g>
							<line class="st5" x1="283.2973" y1="95.6329" x2="259.2972" y2="117.8081"/>
						</g>
					</g>
				</g>
			</g>
		</g>
		<g>
			<g>
				<g>
					<g>
						<g>
							
								<rect x="254.9594" y="102.5928" transform="matrix(0.7345 -0.6786 0.6786 0.7345 -0.3895 212.4455)" class="st4" width="32.6759" height="8.2553"/>
						</g>
					</g>
				</g>
			</g>
		</g>
		<g>
			<g>
				<g>
					<g>
						<g>
							<polyline class="st1" points="258.0385,133.746 275.2899,146.7321 284.6049,153.7441 284.6049,171.5574 265.8929,170.6561 
															"/>
						</g>
					</g>
				</g>
			</g>
		</g>
		<g>
			<g>
				<g>
					<g>
						<g>
							<polygon class="st4" points="288.7324,171.5574 252.8082,171.5574 252.8082,163.3024 280.4773,163.3024 280.4773,155.8033 
								255.5562,137.0439 260.5211,130.4485 288.7324,151.6844 							"/>
						</g>
					</g>
				</g>
			</g>
		</g>
		<g>
			<g>
				<g>
					<g>
						<g>
							<path class="st5" d="M274.1526,145.2653"/>
						</g>
					</g>
				</g>
			</g>
		</g>
		<g>
			<g>
				<g>
					<g>
						<g>
							<path class="st4" d="M237.5713,108.034c-1.6714,0-3.0269-1.3554-3.0269-3.0269V72.8183c0-1.6714,1.3554-3.0269,3.0269-3.0269
								c1.6714,0,3.0269,1.3554,3.0269,3.0269v32.1889C240.5982,106.6786,239.2428,108.034,237.5713,108.034z"/>
						</g>
					</g>
				</g>
			</g>
		</g>
	</g>
	<g>
		<g>
			<g>
				<g>
					<path class="st4" d="M122.3815,221.232h16.6276v1.3295c0,3.0233-0.3559,5.6991-1.0683,8.0274
						c-0.695,2.1546-1.8682,4.1701-3.5188,6.0466c-3.7357,4.2048-8.4876,6.3066-14.2562,6.3066
						c-5.6296,0-10.4516-2.0323-14.4647-6.0981c-4.0144-4.0832-6.0209-8.9831-6.0209-14.6996
						c0-5.8381,2.0413-10.7908,6.1252-14.8566c4.0826-4.0826,9.0519-6.1245,14.9081-6.1245c3.1443,0,6.0807,0.6403,8.8087,1.9197
						c2.6063,1.2806,5.1695,3.3599,7.6889,6.2384l-4.3265,4.1437c-3.3013-4.396-7.3241-6.5943-12.0669-6.5943
						c-4.2576,0-7.8279,1.4685-10.7123,4.405c-2.8843,2.8843-4.3265,6.4984-4.3265,10.8423c0,4.4828,1.6069,8.1754,4.822,11.0771
						c3.0053,2.6932,6.2635,4.0395,9.7733,4.0395c2.9886,0,5.6727-1.0052,8.0538-3.0156c2.3798-2.0278,3.7093-4.4539,3.9873-7.279
						h-10.034V221.232z"/>
				</g>
			</g>
		</g>
		<g>
			<g>
				<g>
					<path class="st4" d="M166.5968,201.9453v40.2414h-6.073v-40.2414H166.5968z"/>
				</g>
			</g>
		</g>
		<g>
			<g>
				<g>
					<path class="st4" d="M201.2472,207.6534v34.5333h-6.073v-34.5333h-9.2521v-5.7081h24.5508v5.7081H201.2472z"/>
				</g>
			</g>
		</g>
		<g>
			<g>
				<g>
					<path class="st4" d="M258.077,204.0953v7.1805c-3.5098-2.9364-7.1413-4.405-10.8944-4.405
						c-4.1353,0-7.6194,1.4859-10.451,4.4571c-2.8502,2.9538-4.2743,6.5679-4.2743,10.8423c0,4.2222,1.4241,7.7842,4.2743,10.6859
						c2.8489,2.9017,6.3414,4.3522,10.4767,4.3522c2.1378,0,3.9532-0.3469,5.4475-1.0425c0.834-0.3469,1.6983-0.816,2.5934-1.4068
						c0.8945-0.5908,1.8373-1.3038,2.8277-2.1378v7.3369c-3.4751,1.9724-7.1239,2.9583-10.9465,2.9583
						c-5.7513,0-10.6601-2.0065-14.726-6.0209c-4.0485-4.0478-6.0724-8.9303-6.0724-14.6468c0-5.1257,1.6938-9.6955,5.0826-13.7098
						c4.1701-4.9166,9.5648-7.3755,16.1849-7.3755C251.2137,201.1634,254.7062,202.1409,258.077,204.0953z"/>
				</g>
			</g>
		</g>
		<g>
			<g>
				<g>
					<path class="st1" d="M280.9793,215.4708c0-5.6637,2.076-10.5295,6.2294-14.5953c4.1347-4.0658,9.1041-6.0981,14.9081-6.0981
						c5.7339,0,10.6505,2.0503,14.7511,6.1509c4.1186,4.1006,6.1773,9.0262,6.1773,14.7775c0,5.786-2.0677,10.6949-6.203,14.726
						c-4.1527,4.0485-9.1658,6.0724-15.0381,6.0724c-5.1959,0-9.8609-1.798-13.9962-5.3954
						C283.2555,227.1304,280.9793,221.9178,280.9793,215.4708z M287.1045,215.5365c0,4.4442,1.4936,8.0982,4.4828,10.9632
						c2.9706,2.8644,6.4025,4.2962,10.2946,4.2962c4.2222,0,7.7842-1.4582,10.6859-4.3747
						c2.9017-2.9506,4.3529-6.5447,4.3529-10.7805c0-4.2879-1.4338-7.8813-4.3008-10.7811
						c-2.8495-2.9165-6.3768-4.3747-10.5816-4.3747c-4.1875,0-7.7237,1.4583-10.608,4.3747
						C288.546,207.742,287.1045,211.3008,287.1045,215.5365z"/>
				</g>
			</g>
		</g>
		<g>
			<g>
				<g>
					<path class="st4" d="M347.0037,201.9453v40.2414h-6.073v-40.2414H347.0037z"/>
				</g>
			</g>
		</g>
		<g>
			<g>
				<g>
					<path class="st4" d="M370.5506,242.1867V199.209l29.3477,30.7017v-27.9654h6.0724v42.6914l-29.3471-30.6238v28.1739H370.5506z"
						/>
				</g>
			</g>
		</g>
	</g>
</g>
<g>
	<path class="st8" d="M364.6361,138.4906"/>
</g>
<g>
	<path class="st0" d="M418.9297,367.5101H83.3502c-9.0373,0-16.3634-7.3261-16.3634-16.3634v-29.7026h368.3065v29.7026
		C435.2932,360.184,427.967,367.5101,418.9297,367.5101z"/>
</g>
<g>
	<path class="st0" d="M432.4453,384.5732H73.2056c-11.6235,0-21.0796-9.4561-21.0796-21.0791v-39.5234
		c0-2.6006,2.1157-4.7168,4.7163-4.7168h391.9663c2.6006,0,4.7158,2.1162,4.7158,4.7168v39.5234
		C453.5244,375.1172,444.0684,384.5732,432.4453,384.5732z M56.8423,323.2539c-0.395,0-0.7163,0.3213-0.7163,0.7168v39.5234
		c0,9.417,7.6621,17.0791,17.0796,17.0791h359.2397c9.417,0,17.0791-7.6621,17.0791-17.0791v-39.5234
		c0-0.3955-0.3213-0.7168-0.7158-0.7168H56.8423z"/>
</g>
<g>
	<path class="st4" d="M108.6763,308.6884v-24.7813h5.2002c2.4932,0,4.4619,0.2461,5.9067,0.7383
		c1.5513,0.4814,2.9585,1.2998,4.2212,2.4561c2.5571,2.333,3.8359,5.3984,3.8359,9.1963c0,3.8096-1.3325,6.8916-3.9966,9.2451
		c-1.3379,1.1768-2.7393,1.9961-4.2051,2.4561c-1.3701,0.46-3.312,0.6895-5.8262,0.6895H108.6763z M112.416,305.1738h1.6851
		c1.6797,0,3.0762-0.1768,4.1895-0.5293c1.1123-0.375,2.1182-0.9688,3.0171-1.7822c1.8403-1.6797,2.7607-3.8682,2.7607-6.5645
		c0-2.7178-0.9097-4.9219-2.7285-6.6123c-1.6372-1.5088-4.0503-2.2637-7.2388-2.2637h-1.6851V305.1738z"/>
	<path class="st4" d="M131.1148,300.7597c0-2.2578,0.8076-4.1777,2.4233-5.7617s3.5845-2.376,5.9063-2.376
		c2.3325,0,4.312,0.7979,5.939,2.3916c1.605,1.5947,2.4072,3.5527,2.4072,5.875c0,2.3428-0.8081,4.3066-2.4233,5.8896
		c-1.627,1.5732-3.6221,2.3594-5.9868,2.3594c-2.3433,0-4.3071-0.8018-5.8906-2.4072
		C131.9063,305.1474,131.1148,303.1572,131.1148,300.7597z M134.8062,300.8242c0,1.5625,0.417,2.7979,1.252,3.708
		c0.856,0.9199,1.9844,1.3799,3.3862,1.3799c1.4126,0,2.5415-0.4551,3.3867-1.3643s1.2681-2.124,1.2681-3.6436
		s-0.4229-2.7334-1.2681-3.6436c-0.856-0.9199-1.9849-1.3799-3.3867-1.3799c-1.3799,0-2.4985,0.46-3.3545,1.3799
		C135.2339,298.1816,134.8062,299.3691,134.8062,300.8242z"/>
	<path class="st4" d="M163.7124,293.0556l4.0928,8.9238l4.4136-10.3516l4.4458,10.3516l4.0449-8.9238h4.0444l-8.1855,16.8047
		l-4.3496-10.0635l-4.3975,10.0635l-8.1694-16.8047H163.7124z"/>
	<path class="st4" d="M186.4556,300.7597c0-2.2578,0.8076-4.1777,2.4233-5.7617s3.5845-2.376,5.9063-2.376
		c2.3325,0,4.312,0.7979,5.939,2.3916c1.605,1.5947,2.4072,3.5527,2.4072,5.875c0,2.3428-0.8081,4.3066-2.4233,5.8896
		c-1.627,1.5732-3.6221,2.3594-5.9868,2.3594c-2.3433,0-4.3071-0.8018-5.8906-2.4072
		C187.2471,305.1474,186.4556,303.1572,186.4556,300.7597z M190.147,300.8242c0,1.5625,0.417,2.7979,1.252,3.708
		c0.856,0.9199,1.9844,1.3799,3.3862,1.3799c1.4126,0,2.5415-0.4551,3.3867-1.3643s1.2681-2.124,1.2681-3.6436
		s-0.4229-2.7334-1.2681-3.6436c-0.856-0.9199-1.9849-1.3799-3.3867-1.3799c-1.3799,0-2.4985,0.46-3.3545,1.3799
		C190.5747,298.1816,190.147,299.3691,190.147,300.8242z"/>
	<path class="st4" d="M206.9512,293.0556h3.6113v1.3965c0.6631-0.6953,1.2515-1.1719,1.7651-1.4287
		c0.5244-0.2666,1.145-0.4014,1.8618-0.4014c0.9521,0,1.9473,0.3105,2.9854,0.9316l-1.6528,3.3057
		c-0.6851-0.4912-1.354-0.7383-2.0063-0.7383c-1.9692,0-2.9531,1.4873-2.9531,4.4619v8.1055h-3.6113V293.0556z"/>
	<path class="st4" d="M222.8569,281.58v16.5313l5.0879-5.0557h4.8467l-6.7891,6.5645l7.2866,9.0684h-4.6865l-5.168-6.5967
		l-0.5776,0.5781v6.0186h-3.6113V281.58H222.8569z"/>
	<path class="st4" d="M249.4995,296.4267v12.2617h-3.627v-12.2617h-1.2842v-3.3711h1.2842v-6.0342
		c0-1.9688,0.3423-3.3604,1.0269-4.1738c0.9419-1.1338,2.3115-1.7012,4.1089-1.7012c0.6421,0,1.4497,0.1875,2.4238,0.5615v3.6924
		l-0.3691-0.1934c-0.7813-0.3955-1.4233-0.5938-1.9263-0.5938c-0.6421,0-1.0752,0.2305-1.2998,0.6904
		c-0.2246,0.4492-0.3374,1.3164-0.3374,2.6006v5.1514h3.9326v3.3711H249.4995z"/>
	<path class="st4" d="M254.7808,300.7597c0-2.2578,0.8071-4.1777,2.4234-5.7617c1.6152-1.584,3.584-2.376,5.9063-2.376
		c2.332,0,4.3115,0.7979,5.9385,2.3916c1.6055,1.5947,2.4072,3.5527,2.4072,5.875c0,2.3428-0.8076,4.3066-2.4229,5.8896
		c-1.627,1.5732-3.6221,2.3594-5.9873,2.3594c-2.3428,0-4.3066-0.8018-5.8906-2.4072
		C255.5723,305.1474,254.7808,303.1572,254.7808,300.7597z M258.4717,300.8242c0,1.5625,0.417,2.7979,1.252,3.708
		c0.8564,0.9199,1.9844,1.3799,3.3867,1.3799c1.4121,0,2.541-0.4551,3.3867-1.3643c0.8447-0.9092,1.2676-2.124,1.2676-3.6436
		s-0.4229-2.7334-1.2676-3.6436c-0.8564-0.9199-1.9854-1.3799-3.3867-1.3799c-1.3799,0-2.499,0.46-3.3545,1.3799
		C258.8994,298.1816,258.4717,299.3691,258.4717,300.8242z"/>
	<path class="st4" d="M275.2764,293.0556h3.6113v1.3965c0.6631-0.6953,1.252-1.1719,1.7656-1.4287
		c0.5244-0.2666,1.1445-0.4014,1.8613-0.4014c0.9521,0,1.9473,0.3105,2.9863,0.9316l-1.6533,3.3057
		c-0.6855-0.4912-1.3545-0.7383-2.0068-0.7383c-1.9688,0-2.9531,1.4873-2.9531,4.4619v8.1055h-3.6113V293.0556z"/>
	<path class="st4" d="M301.4385,296.4267v12.2617h-3.6113v-12.2617h-1.541v-3.3711h1.541v-5.7295h3.6113v5.7295h2.8086v3.3711
		H301.4385z"/>
	<path class="st4" d="M306.7032,281.58h3.6113v12.7764c1.2842-1.1563,2.7012-1.7344,4.2529-1.7344
		c1.7656,0,3.1777,0.5732,4.2373,1.7178c0.8984,0.9951,1.3486,2.584,1.3486,4.7666v9.582h-3.6113v-9.2441
		c0-1.252-0.2227-2.1592-0.666-2.7207c-0.4443-0.5625-1.1592-0.8428-2.1436-0.8428c-1.2627,0-2.1504,0.3906-2.6641,1.1719
		c-0.5029,0.792-0.7539,2.1504-0.7539,4.0762v7.5596h-3.6113V281.58z"/>
	<path class="st4" d="M338.9629,301.7226h-11.2031c0.0967,1.2842,0.5137,2.3066,1.252,3.0654c0.7383,0.75,1.6855,1.124,2.8408,1.124
		c0.8984,0,1.6426-0.2139,2.2314-0.6416c0.5771-0.4287,1.2354-1.2207,1.9736-2.376l3.0498,1.7012
		c-0.4707,0.8027-0.9688,1.4902-1.4932,2.0625s-1.0859,1.043-1.6846,1.4121c-0.5996,0.3701-1.2471,0.6396-1.9424,0.8105
		c-0.6953,0.1719-1.4502,0.2568-2.2627,0.2568c-2.333,0-4.2051-0.748-5.6182-2.2471c-1.4121-1.5078-2.1182-3.5088-2.1182-6.002
		c0-2.4717,0.6846-4.4727,2.0547-6.0029c1.3799-1.5088,3.21-2.2637,5.4883-2.2637c2.3008,0,4.1201,0.7334,5.457,2.1992
		c1.3271,1.4551,1.9902,3.4727,1.9902,6.0508L338.9629,301.7226z M335.2549,298.7695c-0.5029-1.9258-1.7168-2.8887-3.6426-2.8887
		c-0.4395,0-0.8516,0.0664-1.2363,0.2002s-0.7354,0.3271-1.0508,0.5781c-0.3164,0.252-0.5859,0.5537-0.8105,0.9072
		c-0.2256,0.3525-0.3965,0.7539-0.5137,1.2031H335.2549z"/>
	<path class="st4" d="M356.7793,296.4267v12.2617h-3.6113v-12.2617h-1.541v-3.3711h1.541v-5.7295h3.6113v5.7295h2.8086v3.3711
		H356.7793z"/>
	<path class="st4" d="M361.3057,300.7597c0-2.2578,0.8076-4.1777,2.4238-5.7617c1.6152-1.584,3.584-2.376,5.9063-2.376
		c2.332,0,4.3115,0.7979,5.9385,2.3916c1.6045,1.5947,2.4072,3.5527,2.4072,5.875c0,2.3428-0.8076,4.3066-2.4238,5.8896
		c-1.626,1.5732-3.6221,2.3594-5.9863,2.3594c-2.3438,0-4.3066-0.8018-5.8906-2.4072
		C362.0977,305.1474,361.3057,303.1572,361.3057,300.7597z M364.9971,300.8242c0,1.5625,0.417,2.7979,1.252,3.708
		c0.8555,0.9199,1.9844,1.3799,3.3867,1.3799c1.4121,0,2.541-0.4551,3.3867-1.3643c0.8447-0.9092,1.2676-2.124,1.2676-3.6436
		s-0.4229-2.7334-1.2676-3.6436c-0.8564-0.9199-1.9854-1.3799-3.3867-1.3799c-1.3809,0-2.499,0.46-3.3545,1.3799
		C365.4248,298.1816,364.9971,299.3691,364.9971,300.8242z"/>
	<path class="st4" d="M385.4121,317.1953h-3.6113v-24.1396h3.6113v1.7012c1.4229-1.4229,3.0381-2.1348,4.8467-2.1348
		c2.1514,0,3.9219,0.792,5.3125,2.376c1.4131,1.5732,2.1191,3.5576,2.1191,5.9541c0,2.3438-0.7012,4.2969-2.1025,5.8584
		c-1.3916,1.5518-3.1465,2.3271-5.2646,2.3271c-1.8301,0-3.4668-0.7324-4.9111-2.1982V317.1953z M393.9991,300.9687
		c0-1.498-0.4072-2.7178-1.2197-3.6592c-0.8242-0.9521-1.8623-1.4287-3.1143-1.4287c-1.3271,0-2.4023,0.46-3.2256,1.3799
		c-0.8242,0.9209-1.2363,2.1299-1.2363,3.6279c0,1.4658,0.4121,2.6748,1.2363,3.627c0.8125,0.9307,1.8828,1.3965,3.21,1.3965
		c1.252,0,2.2842-0.4707,3.0977-1.4121C393.5811,303.5586,393.9991,302.3808,393.9991,300.9687z"/>
	<path class="st4" d="M124.9834,332.5v4.7988c-0.8242-1.0059-1.5625-1.6953-2.2153-2.0703
		c-0.6416-0.3848-1.396-0.5781-2.2627-0.5781c-1.3594,0-2.4878,0.4766-3.3867,1.4287s-1.3481,2.1455-1.3481,3.5791
		c0,1.4658,0.4331,2.6699,1.2998,3.6113c0.8774,0.9414,1.9956,1.4121,3.3545,1.4121c0.8667,0,1.6318-0.1865,2.2954-0.5615
		c0.6421-0.3633,1.3965-1.0693,2.2632-2.1182v4.7666c-1.4663,0.7598-2.9321,1.1396-4.3979,1.1396
		c-2.4185,0-4.4404-0.7813-6.0669-2.3438c-1.6265-1.5723-2.4395-3.5254-2.4395-5.8584c0-2.332,0.8237-4.3008,2.4717-5.9063
		c1.6475-1.6045,3.6699-2.4072,6.0669-2.4072C122.1582,331.3925,123.6133,331.7617,124.9834,332.5z"/>
	<path class="st4" d="M127.7442,339.5302c0-2.2578,0.8076-4.1787,2.4233-5.7627c1.6157-1.583,3.5845-2.375,5.9063-2.375
		c2.3325,0,4.312,0.7969,5.939,2.3916c1.605,1.5947,2.4072,3.5527,2.4072,5.874c0,2.3438-0.8081,4.3076-2.4233,5.8906
		c-1.627,1.5732-3.6221,2.3594-5.9868,2.3594c-2.3433,0-4.3071-0.8027-5.8906-2.4072
		C128.5357,343.917,127.7442,341.9267,127.7442,339.5302z M131.4356,339.5937c0,1.5625,0.417,2.7988,1.252,3.708
		c0.856,0.9199,1.9844,1.3799,3.3862,1.3799c1.4126,0,2.5415-0.4541,3.3867-1.3643c0.8452-0.9092,1.2681-2.123,1.2681-3.6426
		s-0.4229-2.7344-1.2681-3.6436c-0.856-0.9199-1.9849-1.3809-3.3867-1.3809c-1.3799,0-2.4985,0.4609-3.3545,1.3809
		S131.4356,338.1386,131.4356,339.5937z"/>
	<path class="st4" d="M148.2398,331.8261h3.6113v1.4443c0.6953-0.7275,1.2891-1.2197,1.7813-1.4766
		c0.5244-0.2676,1.1821-0.4014,1.9741-0.4014c1.7656,0,3.1621,0.7705,4.189,2.3115c1.1343-1.541,2.6699-2.3115,4.6064-2.3115
		c3.5205,0,5.2808,2.1348,5.2808,6.4043v9.6621h-3.6274v-8.6836c0-1.498-0.1821-2.5566-0.5459-3.1777
		c-0.3745-0.6309-0.9897-0.9473-1.8457-0.9473c-0.9951,0-1.7202,0.375-2.1748,1.124s-0.6821,1.9531-0.6821,3.6113v8.0732h-3.627
		v-8.6348c0-2.7822-0.8027-4.1738-2.4077-4.1738c-1.0166,0-1.7573,0.3799-2.2231,1.1396c-0.4653,0.7598-0.6978,1.958-0.6978,3.5957
		v8.0732h-3.6113V331.8261z"/>
	<path class="st4" d="M177.8526,355.9648h-3.6113v-24.1387h3.6113v1.7012c1.4229-1.4229,3.0386-2.1348,4.8467-2.1348
		c2.1509,0,3.9219,0.792,5.313,2.375c1.4121,1.5732,2.1187,3.5586,2.1187,5.9551c0,2.3428-0.7012,4.2959-2.1025,5.8584
		c-1.3911,1.5518-3.146,2.3271-5.2646,2.3271c-1.8296,0-3.4668-0.7324-4.9111-2.1992V355.9648z M186.439,339.7383
		c0-1.498-0.4067-2.7178-1.2197-3.6592c-0.8242-0.9521-1.8618-1.4287-3.1138-1.4287c-1.3267,0-2.4023,0.4609-3.2261,1.3809
		s-1.2358,2.1289-1.2358,3.627c0,1.4658,0.4121,2.6748,1.2358,3.6279c0.813,0.9307,1.8833,1.3955,3.21,1.3955
		c1.252,0,2.2847-0.4707,3.0977-1.4121C186.022,342.3281,186.439,341.1513,186.439,339.7383z"/>
	<path class="st4" d="M205.4746,331.8261h3.6274v15.6328h-3.6274v-1.6377c-1.4873,1.3916-3.0874,2.0869-4.7993,2.0869
		c-2.1611,0-3.9482-0.7813-5.3604-2.3438c-1.4019-1.5938-2.1025-3.584-2.1025-5.9707c0-2.3428,0.7007-4.2959,2.1025-5.8574
		c1.4014-1.5625,3.1563-2.3438,5.2642-2.3438c1.8188,0,3.4507,0.749,4.8955,2.2471V331.8261z M196.9038,339.5937
		c0,1.499,0.4014,2.7188,1.2036,3.6602c0.8237,0.9521,1.8618,1.4277,3.1138,1.4277c1.3374,0,2.418-0.46,3.2422-1.3799
		c0.8237-0.9521,1.2358-2.1611,1.2358-3.627s-0.4121-2.6748-1.2358-3.6279c-0.8242-0.9307-1.894-1.3965-3.21-1.3965
		c-1.2417,0-2.2793,0.4717-3.1138,1.4131C197.3154,337.0156,196.9038,338.1924,196.9038,339.5937z"/>
	<path class="st4" d="M213.6602,331.8261h3.627v1.4443c1.2627-1.252,2.686-1.8779,4.2695-1.8779
		c1.8188,0,3.2368,0.5723,4.2534,1.7178c0.877,0.9736,1.3159,2.5625,1.3159,4.7666v9.582h-3.6274v-8.7314
		c0-1.541-0.2139-2.6055-0.6421-3.1943c-0.417-0.5986-1.1768-0.8984-2.2788-0.8984c-1.1987,0-2.0493,0.3955-2.5522,1.1875
		c-0.4922,0.7813-0.7383,2.1455-0.7383,4.0928v7.5439h-3.627V331.8261z"/>
	<path class="st4" d="M231.1387,325.3252c0-0.6309,0.23-1.1768,0.6899-1.6367s1.0112-0.6904,1.6533-0.6904
		c0.6528,0,1.209,0.2305,1.6694,0.6904c0.46,0.4492,0.6899,1.001,0.6899,1.6533s-0.23,1.209-0.6899,1.6689
		c-0.4497,0.46-1.001,0.6904-1.6533,0.6904c-0.6528,0-1.2095-0.2305-1.6694-0.6904S231.1387,325.9892,231.1387,325.3252z
		 M235.2959,331.8261v15.6328h-3.6113v-15.6328H235.2959z"/>
	<path class="st4" d="M254.1065,340.4931h-11.2031c0.0962,1.2842,0.5137,2.3057,1.252,3.0654
		c0.7383,0.749,1.6855,1.123,2.8408,1.123c0.8989,0,1.6426-0.2139,2.231-0.6416c0.5781-0.4277,1.2358-1.2197,1.9741-2.375
		l3.0498,1.7012c-0.4712,0.8027-0.9688,1.4902-1.4927,2.0625c-0.5244,0.5723-1.0864,1.043-1.6855,1.4121
		s-1.2466,0.6396-1.9419,0.8105c-0.6958,0.1709-1.4502,0.2568-2.2632,0.2568c-2.3325,0-4.2051-0.749-5.6172-2.2471
		c-1.4126-1.5088-2.1187-3.5098-2.1187-6.0029c0-2.4717,0.6846-4.4727,2.0542-6.0029c1.3804-1.5088,3.21-2.2627,5.4893-2.2627
		c2.3003,0,4.1191,0.7334,5.457,2.1992c1.3267,1.4551,1.9902,3.4717,1.9902,6.0508L254.1065,340.4931z M250.3989,337.54
		c-0.5034-1.9268-1.7173-2.8896-3.6436-2.8896c-0.439,0-0.8506,0.0674-1.2358,0.2012s-0.7358,0.3262-1.0513,0.5771
		c-0.3159,0.252-0.5859,0.5547-0.8105,0.9072c-0.2246,0.3535-0.396,0.7549-0.5137,1.2041H250.3989z"/>
	<path class="st4" d="M267.1387,334.4902l-2.9854,1.5889c-0.4707-0.9629-1.0537-1.4443-1.749-1.4443
		c-0.332,0-0.6162,0.1094-0.8516,0.3291s-0.3525,0.5-0.3525,0.8428c0,0.5986,0.6953,1.1934,2.0859,1.7813
		c1.916,0.8242,3.2051,1.584,3.8682,2.2793c0.6641,0.6953,0.9951,1.6318,0.9951,2.8086c0,1.5088-0.5557,2.7715-1.6689,3.7881
		c-1.0811,0.9629-2.3857,1.4443-3.916,1.4443c-2.6221,0-4.4785-1.2783-5.5693-3.8359l3.0811-1.4287
		c0.4287,0.749,0.7549,1.2256,0.9795,1.4287c0.4385,0.4063,0.9629,0.6094,1.5732,0.6094c1.2197,0,1.8291-0.5557,1.8291-1.6689
		c0-0.6416-0.4707-1.2412-1.4121-1.7979c-0.3643-0.1816-0.7275-0.3584-1.0918-0.5293c-0.3633-0.1709-0.7324-0.3477-1.1074-0.5293
		c-1.0488-0.5137-1.7871-1.0273-2.2148-1.541c-0.5459-0.6523-0.8184-1.4932-0.8184-2.5195c0-1.3594,0.4658-2.4824,1.3965-3.3711
		c0.9521-0.8877,2.1074-1.332,3.4668-1.332C264.6778,331.3925,266.1651,332.4258,267.1387,334.4902z"/>
	<path class="st4" d="M280.9903,325.3252c0-0.6309,0.2295-1.1768,0.6895-1.6367s1.0117-0.6904,1.6533-0.6904
		c0.6533,0,1.21,0.2305,1.6699,0.6904c0.46,0.4492,0.6904,1.001,0.6904,1.6533s-0.2305,1.209-0.6904,1.6689
		c-0.4492,0.46-1.001,0.6904-1.6533,0.6904c-0.6533,0-1.21-0.2305-1.6699-0.6904S280.9903,325.9892,280.9903,325.3252z
		 M285.1475,331.8261v15.6328h-3.6113v-15.6328H285.1475z"/>
	<path class="st4" d="M289.7217,331.8261h3.627v1.4443c1.2627-1.252,2.6855-1.8779,4.2695-1.8779
		c1.8193,0,3.2363,0.5723,4.2529,1.7178c0.8779,0.9736,1.3164,2.5625,1.3164,4.7666v9.582h-3.627v-8.7314
		c0-1.541-0.2148-2.6055-0.6426-3.1943c-0.417-0.5986-1.1768-0.8984-2.2793-0.8984c-1.1982,0-2.0488,0.3955-2.5518,1.1875
		c-0.4922,0.7813-0.7383,2.1455-0.7383,4.0928v7.5439h-3.627V331.8261z"/>
	<path class="st4" d="M319.8477,331.8261l4.0928,8.9238l4.4141-10.3525l4.4453,10.3525l4.0449-8.9238h4.0449l-8.1855,16.8047
		l-4.3496-10.0635l-4.3984,10.0635l-8.1689-16.8047H319.8477z"/>
	<path class="st4" d="M357.5655,340.4931h-11.2031c0.0967,1.2842,0.5137,2.3057,1.252,3.0654
		c0.7383,0.749,1.6855,1.123,2.8408,1.123c0.8984,0,1.6426-0.2139,2.2314-0.6416c0.5771-0.4277,1.2354-1.2197,1.9736-2.375
		l3.0498,1.7012c-0.4707,0.8027-0.9688,1.4902-1.4932,2.0625s-1.0859,1.043-1.6846,1.4121
		c-0.5996,0.3691-1.2471,0.6396-1.9424,0.8105s-1.4502,0.2568-2.2627,0.2568c-2.333,0-4.2051-0.749-5.6182-2.2471
		c-1.4121-1.5088-2.1182-3.5098-2.1182-6.0029c0-2.4717,0.6846-4.4727,2.0547-6.0029c1.3799-1.5088,3.21-2.2627,5.4883-2.2627
		c2.3008,0,4.1201,0.7334,5.457,2.1992c1.3271,1.4551,1.9902,3.4717,1.9902,6.0508L357.5655,340.4931z M353.8575,337.54
		c-0.5029-1.9268-1.7168-2.8896-3.6426-2.8896c-0.4395,0-0.8516,0.0674-1.2363,0.2012s-0.7354,0.3262-1.0508,0.5771
		c-0.3164,0.252-0.5859,0.5547-0.8105,0.9072c-0.2256,0.3535-0.3965,0.7549-0.5137,1.2041H353.8575z"/>
	<path class="st4" d="M365.125,320.3506v13.2891c1.4443-1.498,3.0811-2.2471,4.9111-2.2471c2.1074,0,3.8623,0.7861,5.2646,2.3594
		c1.4014,1.5625,2.1025,3.5098,2.1025,5.8418c0,2.4082-0.7061,4.3984-2.1191,5.9707c-1.4014,1.5625-3.1719,2.3438-5.3125,2.3438
		c-1.8086,0-3.4238-0.6953-4.8467-2.0869v1.6377h-3.6113v-27.1084H365.125z M373.7119,339.7549c0-1.498-0.4072-2.7178-1.2197-3.6592
		c-0.8242-0.9639-1.8574-1.4453-3.0977-1.4453c-1.3271,0-2.4082,0.4658-3.2422,1.3965c-0.8242,0.9209-1.2363,2.1191-1.2363,3.5957
		c0,1.5195,0.4063,2.7334,1.2197,3.6436c0.8135,0.9307,1.8838,1.3955,3.21,1.3955c1.252,0,2.29-0.4648,3.1143-1.3955
		C373.294,342.3447,373.7119,341.167,373.7119,339.7549z"/>
	<path class="st4" d="M387.4512,335.9511v-3.1943c1.583,0,2.6484-0.1768,3.1934-0.5293c0.9736-0.6211,1.4609-1.6162,1.4609-2.9854
		c0-1.0596-0.3535-1.9209-1.0596-2.584c-0.6953-0.6748-1.5996-1.0117-2.7119-1.0117c-1.0381,0-1.8408,0.252-2.4082,0.7549
		c-0.5449,0.5137-0.9521,1.3799-1.2197,2.5996h-3.7236c0.3857-2.332,1.1768-4.042,2.376-5.1279
		c1.1982-1.0859,2.873-1.6289,5.0234-1.6289c2.1719,0,3.9424,0.6416,5.3125,1.9258c1.3691,1.2734,2.0547,2.916,2.0547,4.9277
		c0,2.2686-0.8994,4.0342-2.6963,5.2959c2.0537,1.21,3.0811,3.1729,3.0811,5.8906c0,2.2256-0.749,4.0449-2.2471,5.457
		s-3.418,2.1191-5.7617,2.1191c-2.9854,0-5.2002-1.0967-6.6445-3.291c-0.5996-0.9199-0.9795-2.1934-1.1396-3.8193h3.6113
		c0.1924,1.1982,0.6602,2.1162,1.4043,2.752c0.7432,0.6367,1.7148,0.9551,2.9131,0.9551c1.209,0,2.209-0.4014,3.001-1.2031
		c0.792-0.8242,1.1885-1.8672,1.1885-3.1299c0-1.6689-0.5947-2.8574-1.7822-3.5635
		C389.9815,336.1543,388.9063,335.9511,387.4512,335.9511z"/>
</g>
<g>
	<g>
		<path d="M185.1737,430.5796c-0.3858,0.0018-0.3735,0.3621-0.4804,0.5786c-1.0617,2.1491-2.1039,4.3079-3.1516,6.4639
			c-0.6983,0.1355-1.3954,0.2188-2.084-0.05c-1.2226-2.4339-2.4453-4.8678-3.6679-7.3017
			c-0.0618,0.0125-0.1237,0.0251-0.1855,0.0376c0,0.4144,0,0.8289,0,1.2433c-0.0001,2.812-0.0006,5.624,0.0003,8.436
			c0.0001,0.3496,0.0378,0.7068-0.2448,0.9854c-0.4017,0.1169-0.804,0.1082-1.2068,0.006
			c-0.0548-0.0536-0.1097-0.1071-0.1646-0.1607c-0.0973-0.1896-0.0587-0.3942-0.0588-0.5924
			c-0.0022-4.2669-0.0034-8.5339,0.0037-12.8008c0.0004-0.2098-0.1075-0.4559,0.1176-0.6299
			c1.2348-0.3653,1.6419-0.2005,2.1918,0.9152c1.2686,2.5737,2.5284,5.1518,3.8013,7.7233
			c0.1052,0.2125,0.1685,0.5678,0.4159,0.5651c0.292-0.0031,0.3356-0.3786,0.4469-0.6075c1.3554-2.7857,2.6984-5.5774,4.0494-8.3652
			c0.1189-0.2455,0.3337-0.3522,0.6129-0.3516c0.4008,0.0009,0.8016-0.0176,1.2024-0.0278c0.3078,0.0617,0.2868,0.3034,0.2868,0.53
			c0.0006,4.4909,0.0023,8.9818-0.0004,13.4727c-0.0001,0.1241,0.0143,0.255-0.1464,0.3009l-0.0465-0.0169l-0.0303,0.0391
			c-0.4017,0.1178-0.804,0.1085-1.2068,0.0064c-0.1636-0.0413-0.2393-0.1669-0.2974-0.3095
			c-0.1498-0.2571-0.0741-0.5385-0.0747-0.8073c-0.0063-2.8249-0.0015-5.6499-0.0078-8.4748
			C185.2473,431.1182,185.3231,430.8368,185.1737,430.5796z"/>
	</g>
	<g>
		<path class="st9" d="M33.3163,432.985c0.9335-1.5712,1.8615-3.1458,2.8018-4.713c1.3108-2.1848,2.6336-4.3625,3.9461-6.5463
			c1.0695-1.7795,2.1306-3.5641,3.1974-5.3452c0.1106-0.1847,0.1991-0.4011,0.4635-0.4187
			c0.1585,0.2677,0.2127,0.5596,0.2128,0.8676c0.0011,3.6461,0.0116,7.2922-0.0064,10.9383
			c-0.0006,0.1258-0.014,0.251-0.0356,0.3731c-0.0151,0.0855-0.0444,0.1684-0.0834,0.2461
			c-0.8423,0.7548-1.9381,1.0305-2.9305,1.4893c-2.0946,0.9685-4.1954,1.925-6.2994,2.8737
			C34.1881,432.9279,33.8007,433.2479,33.3163,432.985z"/>
	</g>
	<g>
		<path class="st10" d="M43.6983,428.4377c0.0089-4.1586,0.0179-8.3172,0.0268-12.4758c0.729,0.6044,1.0574,1.4872,1.5295,2.2616
			c2.8572,4.6876,5.688,9.3913,8.504,14.1037c0.1534,0.2567,0.6033,0.5364,0.2105,0.9494c-2.3077-1.2259-4.7484-2.1659-7.0968-3.304
			C45.8147,429.46,44.6811,429.1047,43.6983,428.4377z"/>
	</g>
	<g>
		<path d="M137.7264,440.1848c-0.9451-1.6563-1.8722-3.3232-2.8808-4.9403c-0.3745-0.5979-0.2567-0.8033,0.3246-1.0871
			c1.599-0.7806,2.4747-2.6287,2.2014-4.1884c-0.3654-2.0851-2.064-3.3036-4.1673-3.3006c-1.6321,0.003-3.2643-0.0151-4.898-0.0241
			c-0.4077,0.1449-0.3005,0.4741-0.2748,0.7504c0.003,0.0302,0.0045,0.0589,0.0045,0.0876
			c-0.003,0.7987-0.0045,1.5974-0.0045,2.3962c-0.006,2.9276-0.0045,5.8568,0,8.7844c0.0015,0.533,0.0015,1.066,0.003,1.5974
			c0,0.0151,0,0.0287-0.0015,0.0438c-0.0015,0.003-0.0015,0.006,0,0.0091c-0.0166,0.2174-0.1102,0.4635,0.1284,0.6387l0.0528-0.0151
			l0.0377,0.0393c0.4032,0.1072,0.8048,0.1102,1.2079-0.0015c0.2612-0.2537,0.2461-0.5813,0.2461-0.9089
			c-0.003-1.4812-0.0091-2.9639,0.0045-4.4466c0.0015-0.2869-0.1042-0.6055,0.1449-0.8546c0.9603-0.0906,1.919-0.1223,2.8763,0.0166
			c0.8636,1.2139,1.5099,2.5592,2.3131,3.8094c0.5103,0.7942,0.7444,1.7665,1.5129,2.3961
			c0.4514,0.0558,0.9044,0.1631,1.3438-0.0574C138.0646,440.6302,137.8517,440.4037,137.7264,440.1848z M130.2465,433.1201
			c-0.4016,0.0121-0.5239-0.1147-0.5058-0.5088c0.0287-0.6523,0.0076-1.306,0.0076-1.9598c0-0.6281,0.0287-1.2577-0.0091-1.8843
			c-0.0272-0.4439,0.1374-0.5435,0.5526-0.5315c1.0041,0.0287,2.0096-0.0136,3.0137,0.0151
			c1.3951,0.0408,2.455,1.1354,2.4263,2.4611c-0.0302,1.3876-1.0418,2.3795-2.4701,2.3977
			C132.2561,433.1231,131.2506,433.0929,130.2465,433.1201z"/>
	</g>
	<g>
		<path d="M97.3011,440.9857c-0.0581-0.0561-0.1162-0.1122-0.1742-0.1682c-0.0825-0.1924-0.0499-0.3955-0.0499-0.5941
			c-0.0018-4.2844-0.0019-8.5687,0.0002-12.8531c0.0001-0.1979-0.0383-0.4021,0.0586-0.5913
			c0.5798-0.1633,1.1523-0.245,1.6821,0.1507c0.1492,1.7518,0.0293,3.5069,0.0623,5.2602c0.0161,0.8548,0.0035,0.8558,0.8453,0.856
			c1.908,0.0005,3.816,0.003,5.7239-0.0034c0.2452-0.0008,0.5029,0.0694,0.7355-0.0745c0.1743-1.5903,0.0453-3.1855,0.0711-4.7782
			c0.0238-1.4692,0.0052-1.4695,1.4068-1.5448c0.303,0.0703,0.2783,0.3121,0.2783,0.5375c0.0003,4.51,0.0025,9.0201,0.0008,13.5301
			c0,0.1115-0.0323,0.1915-0.1342,0.2393l-0.0528-0.0148l-0.0379,0.0395c-0.4023,0.1075-0.8046,0.1098-1.2067-0.0013
			c-0.3629-0.0795-0.2435-0.3737-0.2446-0.5919c-0.0084-1.5921,0.0015-3.1843-0.0103-4.7764
			c-0.0021-0.2824,0.1047-0.5978-0.1481-0.8414c-2.3798-0.0926-4.7594-0.128-7.1385,0.0187l-0.005,0.0024
			c-0.1824,1.4419-0.0201,2.8905-0.0872,4.334c-0.0261,0.5614,0.1412,1.1374-0.1085,1.6844
			c-0.0873,0.0595-0.1746,0.1189-0.2619,0.1784C98.1048,441.0814,97.7031,441.0779,97.3011,440.9857z"/>
	</g>
	<g>
		<path class="st11" d="M43.6983,428.4377c0.7777,0.0597,1.3926,0.5433,2.0726,0.8383c2.6396,1.1452,5.2464,2.366,7.8689,3.5509
			c0.2104,0.0951,0.3204,0.2257,0.3292,0.4497c-3.2815,2.0268-6.602,3.9876-9.9596,5.8856
			c-0.3647,0.1459-0.433-0.1281-0.4987-0.3698c-0.073-0.2686-0.0565-0.5493-0.0567-0.8259
			c-0.0018-2.7924-0.0032-5.5848,0.0016-8.3772c0.0007-0.3985-0.0458-0.8129,0.2413-1.1542L43.6983,428.4377z"/>
	</g>
	<g>
		<path class="st12" d="M43.6969,428.4352c0.0018,3.3321,0.0004,6.6641,0.0112,9.9962c0.0009,0.2676-0.1541,0.6357,0.3014,0.7309
			c-0.2719,0.3002-0.5518,0.1081-0.7868-0.0279c-1.8738-1.0844-3.7395-2.1828-5.6054-3.2807
			c-1.2423-0.731-2.4838-1.4633-3.7186-2.2067c-0.256-0.1541-0.6408-0.2206-0.5823-0.6619c1.075-0.2057,1.9886-0.8063,2.9709-1.2339
			C38.7681,430.6711,41.2284,429.5436,43.6969,428.4352z"/>
	</g>
	<g>
		<path d="M157.7451,426.795c0.5235-0.2386,1.0479-0.124,1.5724-0.0044c0.2098,0.2113,0.1048,0.4769,0.1056,0.7145
			c0.0085,2.6829,0.0043,5.3658,0.0071,8.0487c0.0003,0.2739-0.04,0.5526,0.0592,0.82c0.0611,1.4218,1.2866,2.6957,2.8391,2.9511
			c0.4858,0.0996,0.9716,0.098,1.4576,0.0013c1.5121-0.4054,2.4941-1.3662,2.9814-2.8453c0.129-0.4432,0.0586-0.8969,0.06-1.3449
			c0.008-2.5368,0.0024-5.0736,0.0061-7.6104c0.0004-0.2487-0.0448-0.5027,0.05-0.7459c0.3642-0.2329,0.7661-0.0899,1.147-0.0928
			c0.3516-0.0027,0.5151,0.2384,0.5144,0.601c-0.0054,3.0601,0.0665,6.1225-0.0296,9.1796
			c-0.0696,2.2133-1.9956,4.1517-4.2047,4.4987c-0.245,0.0385-0.4856,0.105-0.7283,0.1585
			c-0.3514,0.1122-0.7034,0.1036-1.0557,0.0045c-1.0593-0.0323-2.0071-0.3971-2.8653-0.9962
			c-1.1788-0.823-1.8744-1.9389-1.9851-3.392c-0.1238-1.0484-0.0429-2.1005-0.0507-3.1507
			c-0.0152-2.0306-0.0087-4.0615,0.0014-6.0922C157.6283,427.2641,157.5118,426.9956,157.7451,426.795z"/>
	</g>
	<g>
		<path d="M66.1978,440.9847c-0.0585-0.0558-0.117-0.1117-0.1756-0.1675c-0.0858-0.2183-0.0481-0.4467-0.0482-0.6703
			c-0.0023-4.2134-0.0037-8.4268,0.0034-12.6402c0.0004-0.2383-0.1011-0.5034,0.1042-0.7166
			c0.2485-0.1602,0.5278-0.1184,0.7994-0.1186c2.3316-0.0012,4.6631-0.0009,6.9946-0.0007
			c1.3451,0.0001,1.3451,0.0004,1.3776,1.3079c-0.1941,0.3457-0.5289,0.2251-0.8117,0.2264
			c-1.9556,0.0088-3.9112,0.0021-5.8668,0.0078c-0.2459,0.0007-0.502-0.0627-0.7377,0.0675
			c-0.2795,0.1764-0.1336,0.4526-0.1369,0.6774c-0.0167,1.1286,0.0265,2.2591-0.0213,3.3859
			c-0.0259,0.6099,0.1268,0.8232,0.775,0.8054c1.7046-0.0466,3.412,0.0138,5.1167-0.0304c0.6633-0.0172,0.777,0.2431,0.792,0.8327
			c0.016,0.6266-0.2233,0.7603-0.7882,0.7514c-1.7305-0.0272-3.4621,0.0117-5.1924-0.0215
			c-0.5685-0.0109-0.7324,0.1687-0.7001,0.7264c0.0752,1.2981-0.0729,2.6022,0.0746,3.9005
			c0.5656,0.1676,1.1445,0.0677,1.7163,0.0733c1.6342,0.0159,3.2688,0.0005,4.9031,0.0113c0.238,0.0016,0.5042-0.106,0.7158,0.1051
			c0.1772,0.5161,0.3726,1.0339-0.1393,1.4854c-1.0194,0.1328-2.0436,0.0588-3.0647,0.0528
			C69.9911,441.0252,68.0932,441.118,66.1978,440.9847z"/>
	</g>
	<g>
		<path d="M144.8325,428.2778c-0.2332,0.0886-0.1428,0.2934-0.142,0.4471c0.0082,1.4144,0.0276,2.8288,0.0438,4.2431
			c0.8857,0.1703,1.78,0.0418,2.6697,0.0759c1.2148,0.0465,2.4328-0.0766,3.646,0.0661c0.1748,0.1064,0.2763,0.2627,0.3145,0.4621
			c0.1491,0.2013,0.1492,0.4026,0.0001,0.6039c-0.0102,0.1266-0.0203,0.2532-0.0305,0.3798
			c-0.1729,0.2833-0.4494,0.137-0.6721,0.1389c-1.6417,0.0139-3.2836,0.0056-4.9255,0.0095
			c-0.2713,0.0006-0.5485-0.0441-0.8116,0.067c-0.1707-0.0608-0.2326,0.0394-0.2304,0.1796
			c0.023,1.4527-0.0902,2.9073,0.0595,4.3582c0.5854,0.1739,1.1843,0.0653,1.7757,0.072c1.6193,0.0184,3.239,0.0016,4.8584,0.0117
			c0.2351,0.0015,0.499-0.1052,0.7054,0.1095c0.1634,0.5127,0.3536,1.0279-0.1379,1.4796c-0.9446,0.141-1.8946,0.0466-2.8417,0.0566
			c-1.7262,0.0183-3.4526,0.0083-5.179,0.0017c-0.2445-0.0009-0.5014,0.0683-0.7333-0.075l0.0045,0.0015
			c-0.2539-0.1256-0.2309-0.3596-0.2308-0.586c0.0021-4.4609-0.0039-8.9219,0.0023-13.3828
			c0.0001-0.0781,0.0291-0.1464,0.0501-0.2181c0.202-0.2236,0.4657-0.1001,0.6941-0.1013c2.401-0.0121,4.8022-0.0075,7.2033-0.0076
			c1.2827-0.0001,1.2827-0.0002,1.3245,1.2894c-0.1735,0.3765-0.5172,0.2427-0.7964,0.2442
			c-1.9601,0.01-3.9203,0.0028-5.8805,0.0085C145.3261,428.2136,145.0698,428.1519,144.8325,428.2778z"/>
	</g>
	<g>
		<path d="M113.4365,426.7796c0.1783-0.2048,0.4187-0.1006,0.6232-0.1015c2.5634-0.0111,5.127-0.0059,7.6905-0.0096
			c0.2533-0.0004,0.4997,0.0108,0.7328,0.1198c0.1595,0.4445,0.1753,0.888-0.0097,1.3301l0.0232-0.0232
			c-0.2071,0.2178-0.4731,0.1075-0.7086,0.1088c-1.9238,0.0103-3.8476,0.0037-5.7714,0.0082
			c-0.2721,0.0006-0.5503-0.0489-0.8158,0.058c-0.033,0.0286-0.0659,0.0572-0.0989,0.0857
			c-0.0966,1.5403-0.1188,3.0805,0.0096,4.6204l-0.0016-0.0046c1.0915,0.1617,2.1896,0.0329,3.2839,0.0739
			c1.0206,0.0382,2.0444-0.0758,3.0629,0.0642c0.5366,0.3977,0.1723,0.9717,0.2843,1.4525
			c-0.1829,0.2713-0.4585,0.1308-0.686,0.1326c-1.6835,0.0134-3.3672,0.0052-5.0508,0.0093c-0.274,0.0007-0.554-0.0457-0.82,0.0654
			c-0.0786-0.004-0.1078,0.0308-0.0841,0.1071c-0.088,1.4735-0.1308,2.9467,0.0227,4.419l0.0058,0.008
			c0.4345,0.1702,0.8874,0.0751,1.3305,0.0784c1.7255,0.0128,3.4511,0.0009,5.1767,0.0103c0.239,0.0013,0.5015-0.0956,0.718,0.0979
			c0.0477,0.0423,0.0954,0.0846,0.1431,0.1269c0.1467,0.3989,0.1492,0.7976-0.0012,1.1962
			c-0.0481,0.0405-0.0962,0.081-0.1443,0.1215c-0.1097,0.1456-0.2699,0.1072-0.415,0.1073
			c-2.679,0.0017-5.3579,0.0021-8.0369,0.0015c-0.1017,0-0.199-0.0143-0.2916-0.0568c-0.0611-0.0569-0.1222-0.1137-0.1834-0.1706
			c-0.0957-0.8485-0.0368-1.6999-0.0387-2.5496c-0.0083-3.5562-0.0048-7.1124-0.001-10.6686
			C113.385,427.3253,113.3343,427.0468,113.4365,426.7796z"/>
	</g>
	<g>
		<path class="st10" d="M43.9847,440.6473c3.2492-1.9304,6.4985-3.8607,9.8497-5.8517c-0.01,0.5906-0.2984,0.8253-0.4883,1.0943
			c-3.0326,4.294-6.0772,8.5796-9.1198,12.8665c-0.1308,0.1842-0.2638,0.369-0.4934,0.4449
			c-0.2853-0.2726-0.2706-0.6315-0.2715-0.9803c-0.0057-2.15-0.0073-4.3,0.0007-6.45
			C43.4637,441.3219,43.4424,440.8504,43.9847,440.6473z"/>
	</g>
	<g>
		<path class="st9" d="M43.9847,440.6473c-0.2216,0.2289-0.2704,0.5021-0.2687,0.8161c0.0135,2.5793,0.0131,5.1586,0.0169,7.7379
			c-0.2866,0.0382-0.3792-0.2162-0.4929-0.3759c-1.83-2.5691-3.6444-5.1493-5.4676-7.7232
			c-1.2337-1.7417-2.4773-3.4764-3.7124-5.2171c-0.194-0.2734-0.3662-0.5622-0.6691-1.0301
			c1.1468,0.4081,1.9457,1.0121,2.7942,1.5003c2.336,1.3442,4.6377,2.7478,6.9555,4.1237
			C43.3975,440.6318,43.6628,440.7958,43.9847,440.6473z"/>
	</g>
	<g>
		<path d="M85.5242,440.9856c-0.0594-0.0562-0.1188-0.1125-0.1782-0.1687c-0.1052-0.8252-0.0409-1.6541-0.0435-2.4808
			c-0.0096-3.0648-0.0015-6.1296-0.0079-9.1944c-0.0006-0.2699,0.0771-0.5528-0.0746-0.8109l-0.0201-0.0581l-0.0614-0.0024
			c-1.2366-0.1348-2.4773-0.0226-3.7154-0.0625c-0.2607-0.0084-0.5613,0.0879-0.7285-0.2282l0.0015,0.004
			c-0.1298-0.3501-0.1084-0.7018-0.0113-1.0542c0.2165-0.35,0.5674-0.2555,0.8817-0.2567c3.2638-0.0121,6.5275-0.0196,9.7913-0.0283
			c0.5332,0.4357,0.2365,0.9781,0.1915,1.4882l0.0088-0.0078c-0.956,0.1863-1.922,0.0355-2.882,0.0853
			c-0.5179,0.0269-1.0403-0.0651-1.5543,0.06c-0.1243,0.0385-0.1501,0.1194-0.1003,0.2329c-0.1131,0.2913-0.064,0.5956-0.0643,0.894
			c-0.0034,3.586,0.0002,7.172-0.0068,10.7579c-0.0005,0.2823,0.1212,0.6181-0.227,0.8112l0.0051-0.0017
			C86.3292,441.1007,85.9272,441.0699,85.5242,440.9856z"/>
	</g>
</g>
<g>
	<g>
		<path class="st13" d="M344.7309,425.2453c0,2.2528-0.009,4.5056,0.0082,6.7583c0.0031,0.4126-0.1008,0.5594-0.5385,0.558
			c-4.5226-0.0147-9.0453-0.0137-13.5679-0.0011c-0.4128,0.0012-0.5596-0.1017-0.5582-0.5387
			c0.0145-4.5226,0.0136-9.0453,0.001-13.5679c-0.0012-0.4126,0.101-0.5592,0.5381-0.5577
			c4.5226,0.0145,9.0453,0.0161,13.5679-0.0018c0.4752-0.0019,0.5615,0.1657,0.558,0.5926
			C344.7212,420.7396,344.7309,422.9925,344.7309,425.2453z"/>
	</g>
	<g>
		<path class="st14" d="M346.1932,425.2449c0-2.253,0.0102-4.506-0.0089-6.7588c-0.0037-0.4366,0.1039-0.5911,0.5683-0.5894
			c4.5059,0.0164,9.0118,0.0166,13.5177-0.0003c0.4651-0.0017,0.5666,0.1506,0.5652,0.587
			c-0.0144,4.5059-0.0135,9.0118-0.001,13.5178c0.0011,0.4099-0.0955,0.5633-0.5362,0.5619
			c-4.5229-0.0146-9.046-0.0142-13.5689-0.0004c-0.4339,0.0013-0.5472-0.1437-0.5441-0.5589
			C346.202,429.7509,346.1932,427.4979,346.1932,425.2449z"/>
	</g>
	<g>
		<path class="st15" d="M337.3795,448.6485c-2.2686,0-4.5372-0.0075-6.8057,0.0076c-0.3657,0.0024-0.5013-0.076-0.5001-0.4748
			c0.0137-4.5542,0.014-9.1085-0.0002-13.6627c-0.0013-0.4155,0.1349-0.5097,0.5264-0.5087
			c4.5371,0.0121,9.0743,0.0118,13.6115,0.0004c0.3883-0.001,0.5289,0.0884,0.5276,0.5081
			c-0.0149,4.5371-0.0157,9.0743,0.0008,13.6115c0.0016,0.4445-0.1461,0.5307-0.5546,0.5274
			C341.9168,448.639,339.6481,448.6486,337.3795,448.6485z"/>
	</g>
	<g>
		<path class="st16" d="M360.8268,441.325c0,2.2703-0.0079,4.5407,0.0077,6.8109c0.0026,0.3807-0.0702,0.5246-0.4957,0.523
			c-4.5406-0.0166-9.0813-0.0167-13.6219-0.0002c-0.4398,0.0016-0.5308-0.1368-0.5295-0.5493
			c0.014-4.5064,0.0173-9.013-0.0033-13.5194c-0.0023-0.4956,0.1649-0.5821,0.6104-0.5806
			c4.4894,0.0143,8.9789,0.0147,13.4683-0.0008c0.4359-0.0015,0.5816,0.0885,0.576,0.5569
			C360.8121,436.8183,360.8268,439.0717,360.8268,441.325z"/>
	</g>
	<g>
		<path class="st17" d="M386.6696,428.2992c-0.2806,0.7014-0.5633,1.4021-0.8415,2.1045
			c-1.5421,3.8945-3.0877,7.7876-4.6161,11.6874c-0.1273,0.3249-0.28,0.4441-0.627,0.4202
			c-0.5602-0.0386-1.2567,0.172-1.6488-0.0909c-0.39-0.2614-0.4827-0.974-0.6936-1.4937
			c-1.6517-4.0702-3.3002-8.1417-4.9509-12.2123c-0.0551-0.136-0.1227-0.267-0.2759-0.3926c0,0.1748,0,0.3496,0,0.5245
			c0,4.3866-0.0051,8.7732,0.0088,13.1597c0.0013,0.3921-0.0844,0.5307-0.4978,0.5074c-0.6635-0.0375-1.3318-0.0321-1.9961-0.0016
			c-0.3883,0.0178-0.5178-0.0771-0.514-0.495c0.0219-2.3894,0.0107-4.7791,0.0107-7.1686c0-3.4307,0.0058-6.8615-0.0081-10.2922
			c-0.0016-0.3833,0.0715-0.5288,0.4946-0.5182c1.2281,0.0309,2.4579,0.027,3.6863,0.0009c0.3575-0.0076,0.4952,0.1202,0.6173,0.438
			c1.613,4.1953,3.241,8.3848,4.8662,12.5753c0.0764,0.1969,0.1628,0.3898,0.2903,0.6937c0.2729-0.6633,0.5041-1.2231,0.7336-1.7835
			c1.5678-3.8288,3.1395-7.656,4.6952-11.4897c0.128-0.3155,0.2713-0.4412,0.6253-0.4335c1.1772,0.0255,2.3554,0.0214,3.5328,0.0023
			c0.3383-0.0055,0.4671,0.0586,0.4662,0.4371c-0.0126,5.8715-0.0119,11.743-0.0009,17.6145
			c0.0006,0.3443-0.1037,0.4271-0.4298,0.4176c-0.7674-0.0224-1.5369-0.0296-2.3036,0.0021
			c-0.3988,0.0164-0.5144-0.0962-0.512-0.5027c0.0173-2.9527,0.0093-5.9056,0.0093-8.8584c0-1.4337,0-2.8675,0-4.3012
			c0-0.1776,0-0.3552,0-0.5327C386.75,428.3113,386.7098,428.3053,386.6696,428.2992z"/>
	</g>
	<g>
		<path class="st17" d="M474.2121,439.8321c0,0.7917-0.0068,1.5248,0.0042,2.2576c0.0033,0.2163-0.05,0.3495-0.2722,0.4154
			c-1.3573,0.4026-2.7243,0.5273-4.0573-0.0345c-1.2907-0.5439-1.8029-1.6584-1.9211-2.9735
			c-0.1301-1.4462-0.0352-2.8987-0.0524-4.3482c-0.0112-0.9384-0.0177-1.8774,0.0057-2.8153
			c0.0091-0.3638-0.065-0.5029-0.4696-0.4932c-1.2279,0.0295-2.4574,0.03-3.6852-0.0002c-0.4088-0.0101-0.4679,0.1374-0.4665,0.4957
			c0.0123,3.2079-0.0031,6.416,0.0187,9.6239c0.0031,0.4585-0.1208,0.5789-0.5665,0.5541c-0.7145-0.0396-1.4339-0.0345-2.149-0.001
			c-0.3877,0.0181-0.4843-0.0989-0.4825-0.4804c0.0152-3.1908-0.0019-6.3819,0.0199-9.5727
			c0.0033-0.4773-0.089-0.6796-0.6037-0.6184c-0.4038,0.048-0.8185-0.0039-1.2272,0.0144c-0.2682,0.012-0.4008-0.0381-0.3888-0.3531
			c0.0241-0.6304,0.0224-1.263,0.0002-1.8936c-0.0099-0.2809,0.0939-0.3478,0.3483-0.3405
			c0.4774,0.0138,0.9567-0.0174,1.4328,0.0105c0.3454,0.0203,0.4347-0.113,0.4329-0.4368c-0.0045-0.8176-0.0748-1.6422,0.086-2.4506
			c0.4711-2.3682,2.5633-3.8842,5.0869-3.7054c1.4467,0.1025,1.4467,0.1025,1.4467,1.5641c0,0.4382,0,0.8763,0,1.3596
			c-0.5064-0.1778-0.948-0.33-1.4341-0.3202c-1.0804,0.0218-1.7762,0.585-1.9512,1.6454c-0.1117,0.6768-0.0502,1.3621-0.0613,2.0437
			c-0.0035,0.2174,0.0904,0.2962,0.3065,0.2952c1.3309-0.0059,2.662-0.009,3.9928,0.0015c0.3154,0.0025,0.3062-0.1875,0.306-0.4004
			c-0.0009-0.7167,0.0179-1.434-0.0077-2.1497c-0.012-0.3366,0.1067-0.4762,0.426-0.5623c0.772-0.208,1.539-0.4389,2.2962-0.6956
			c0.3403-0.1154,0.4431-0.068,0.4356,0.3067c-0.0202,1.0063,0.0104,2.0138-0.0154,3.0199c-0.01,0.3874,0.1122,0.4992,0.4918,0.4857
			c0.7669-0.0272,1.5357,0.002,2.3032-0.0131c0.2761-0.0054,0.3905,0.0587,0.3787,0.3629
			c-0.0239,0.6134-0.0282,1.2293,0.0013,1.8422c0.0162,0.338-0.1154,0.3916-0.411,0.3848c-0.7845-0.0181-1.57,0.0066-2.3545-0.0125
			c-0.2999-0.0073-0.4113,0.0578-0.4086,0.3873c0.016,1.9793,0.0063,3.9587,0.0107,5.9381
			c0.0004,0.1862,0.0313,0.3735,0.0598,0.5584c0.18,1.1673,1.0284,1.7267,2.1785,1.4253
			C473.5876,440.0773,473.8678,439.9545,474.2121,439.8321z"/>
	</g>
	<g>
		<g>
			<path class="st17" d="M451.0282,428.9861c3.1738-0.0178,5.4207,1.5078,6.2393,4.268c0.4962,1.6732,0.495,3.3738,0.012,5.0497
				c-0.463,1.6068-1.4262,2.8496-2.8943,3.6833c-2.1822,1.2393-6.6665,1.3907-8.871-1.279
				c-0.7368-0.8922-1.1914-1.9059-1.376-3.0348c-0.2486-1.5197-0.1851-3.0302,0.3195-4.4961
				c0.8504-2.4702,3.0223-4.0432,5.7518-4.1893C450.4817,428.9734,450.7553,428.9861,451.0282,428.9861z M454.3403,435.8469
				c0.029-0.3941-0.0308-0.8504-0.1077-1.3044c-0.2779-1.6404-1.3419-2.7391-2.7984-2.895
				c-1.8639-0.1995-3.2284,0.5446-3.8019,2.1442c-0.5042,1.4064-0.5118,2.8474-0.0294,4.262
				c0.489,1.4338,1.7095,2.2017,3.3448,2.178c1.5881-0.0229,2.6462-0.8012,3.1243-2.2993
				C454.2814,437.2763,454.3527,436.6014,454.3403,435.8469z"/>
		</g>
	</g>
	<g>
		<g>
			<path class="st17" d="M425.48,442.8316c-3.1901-0.0068-5.5381-1.562-6.3356-4.2668c-0.5506-1.8671-0.4941-3.7445,0.178-5.5786
				c0.5054-1.379,1.4184-2.4296,2.6978-3.1624c2.0932-1.1989,6.3185-1.3299,8.4117,0.753c0.9933,0.9884,1.5883,2.159,1.8208,3.5241
				c0.3136,1.8407,0.231,3.6549-0.6424,5.3362C430.3283,441.9051,428.1459,442.8253,425.48,442.8316z M429.1466,435.696
				c-0.0247-0.2367-0.0485-0.6805-0.1205-1.1162c-0.2787-1.6878-1.3434-2.7881-2.8157-2.9326
				c-1.8696-0.1835-3.1844,0.5184-3.7734,2.1094c-0.5317,1.436-0.536,2.9172-0.0209,4.3585
				c0.5206,1.4568,1.8507,2.2253,3.4888,2.1138c1.6209-0.1104,2.6585-0.9839,3.0336-2.5543
				C429.0777,437.0919,429.1385,436.5001,429.1466,435.696z"/>
		</g>
	</g>
	<g>
		<path class="st17" d="M433.8556,439.0514c1.006,0.6163,1.9662,1.0668,3.0461,1.2303c0.5169,0.0783,1.0215,0.0538,1.5245-0.0435
			c0.4894-0.0947,0.9265-0.2968,1.0445-0.8444c0.121-0.5614-0.0356-1.0497-0.4905-1.4182
			c-0.4413-0.3574-0.9539-0.5892-1.4728-0.8079c-0.6273-0.2644-1.2408-0.5527-1.8379-0.8853
			c-2.4013-1.338-2.4048-4.8465-0.1917-6.3564c1.4265-0.9733,3.0057-1.1105,4.6529-0.9014
			c0.5231,0.0664,1.0414,0.1704,1.5418,0.3492c0.151,0.0539,0.2925,0.0912,0.2919,0.2937
			c-0.0025,0.8979-0.0011,1.7957-0.0011,2.7452c-0.4904-0.2216-0.9115-0.4359-1.3501-0.6047
			c-0.7912-0.3046-1.6084-0.4561-2.4534-0.2589c-0.5452,0.1273-0.9869,0.3953-1.1114,0.9929
			c-0.1158,0.5556,0.1383,1.0973,0.6658,1.4364c0.4895,0.3147,1.0294,0.5279,1.5659,0.7463
			c0.6002,0.2443,1.1703,0.5428,1.7299,0.873c2.249,1.3268,2.2173,4.7678,0.1297,6.2071c-0.8543,0.5891-1.8002,0.8876-2.8133,0.9867
			c-1.3763,0.1346-2.7181-0.0555-4.0324-0.4838c-0.3192-0.104-0.463-0.2392-0.4489-0.6055
			C433.878,440.8527,433.8556,440.0011,433.8556,439.0514z"/>
	</g>
	<g>
		<path class="st17" d="M408.6432,432.7174c-1.3459-0.9812-2.7435-1.3863-4.3003-0.9627c-0.7991,0.2174-1.4508,0.67-1.9508,1.3295
			c-1.1777,1.5531-1.1769,4.3117-0.0106,5.7617c0.7757,0.9644,1.8235,1.3488,3.0129,1.3789
			c1.1835,0.0299,2.1982-0.4956,3.2474-1.1627c0,0.9629-0.0032,1.841,0.0028,2.7191c0.0011,0.1692-0.0942,0.247-0.2227,0.3044
			c-2.0721,0.9254-4.1981,1.0618-6.312,0.2367c-1.9407-0.7575-3.1999-2.2294-3.6247-4.2614
			c-0.5754-2.7523-0.1171-5.2981,1.9574-7.3707c0.9637-0.9629,2.1692-1.4437,3.5024-1.6439
			c1.4622-0.2195,2.8849-0.1129,4.2698,0.4359c0.311,0.1232,0.4505,0.2766,0.4378,0.6335
			C408.6231,430.9445,408.6432,431.7751,408.6432,432.7174z"/>
	</g>
	<g>
		<path class="st17" d="M414.0883,431.137c1.0136-1.6412,2.2138-2.2681,3.9967-2.052c0.3906,0.0473,0.5992,0.1594,0.575,0.6269
			c-0.0447,0.8631-0.0128,1.7302-0.0128,2.6592c-0.4323-0.1782-0.7928-0.362-1.1963-0.4171
			c-1.7064-0.2332-2.9424,0.7031-3.2521,2.4762c-0.0763,0.4368-0.1154,0.8766-0.1138,1.3226
			c0.0076,2.0818-0.0052,4.1636,0.0112,6.2452c0.003,0.3763-0.0595,0.5387-0.4887,0.5165
			c-0.7658-0.0397-1.5354-0.0222-2.3029-0.0055c-0.283,0.0061-0.3823-0.0694-0.3816-0.3687
			c0.009-4.1635,0.0085-8.3271,0.0008-12.4906c-0.0005-0.2847,0.0759-0.3893,0.3723-0.3831
			c0.8187,0.0171,1.6382,0.0165,2.4569,0.0001c0.276-0.0055,0.3499,0.0899,0.3405,0.3526
			C414.0755,430.1246,414.0883,430.631,414.0883,431.137z"/>
	</g>
	<g>
		<path class="st17" d="M396.1136,435.8785c0,2.0296-0.0105,4.0593,0.0089,6.0887c0.0038,0.4033-0.0655,0.5735-0.5196,0.5477
			c-0.748-0.0424-1.5006-0.0246-2.2505-0.005c-0.2918,0.0076-0.3713-0.0809-0.3707-0.3713
			c0.0089-4.1615,0.0107-8.323-0.0025-12.4844c-0.001-0.3347,0.1135-0.3935,0.4068-0.3871c0.7501,0.0162,1.5015,0.025,2.2509-0.003
			c0.3732-0.0139,0.4909,0.0801,0.4868,0.4747C396.102,431.7851,396.1136,433.8319,396.1136,435.8785z"/>
	</g>
	<g>
		<path class="st17" d="M394.5616,423.6398c1.098-0.0032,1.9126,0.7782,1.9096,1.8318c-0.0029,1.027-0.8026,1.7816-1.894,1.7873
			c-1.0863,0.0056-1.9007-0.7476-1.9129-1.7693C392.6518,424.4437,393.4731,423.643,394.5616,423.6398z"/>
	</g>
</g>
<image style="overflow:visible;" width="536" height="204" xlink:href="../metamask-wallet-ethereum-chrome.png"  transform="matrix(0.211 0 0 0.211 200.5446 411.7773)">
</image>
<g>
	<rect x="451.5244" y="339.2412" class="st0" width="57.4531" height="4"/>
</g>
<g>
	<rect x="451.5244" y="351.5547" class="st0" width="57.4531" height="4"/>
</g>
<g>
	<rect x="-0.3125" y="339.2412" class="st0" width="54.4385" height="4"/>
</g>
<g>
	<rect x="-0.3125" y="351.5547" class="st0" width="54.4385" height="4"/>
</g>
</svg>
