<?xml version="1.0" encoding="utf-8"?>
<!-- Generator: Adobe Illustrator 23.0.1, SVG Export Plug-In . SVG Version: 6.00 Build 0)  -->
<svg version="1.1" id="Layer_1" xmlns="http://www.w3.org/2000/svg" xmlns:xlink="http://www.w3.org/1999/xlink" x="0px" y="0px"
	 viewBox="0 0 508.6653 480.2611" style="enable-background:new 0 0 508.6653 480.2611;" xml:space="preserve">
<style type="text/css">
	.Drop_x0020_Shadow{fill:none;}
	.Round_x0020_Corners_x0020_2_x0020_pt{fill:#FFFFFF;stroke:#231F20;stroke-miterlimit:10;}
	.Live_x0020_Reflect_x0020_X{fill:none;}
	.Bevel_x0020_Soft{fill:url(#SVGID_1_);}
	.Dusk{fill:#FFFFFF;}
	.Foliage_GS{fill:#FFDD00;}
	.Pompadour_GS{fill-rule:evenodd;clip-rule:evenodd;fill:#44ADE2;}
	.st0{fill:#7239FF;}
	.st1{fill:#562ADD;}
	.st2{fill:#4F2BBC;stroke:#4F2BBC;stroke-width:0.5;stroke-miterlimit:10;}
	.st3{fill:#4F2BBC;}
	.st4{fill:#FFFFFF;}
	.st5{fill:#FFFFFF;stroke:#25E899;stroke-width:11;stroke-linecap:round;stroke-miterlimit:10;}
	.st6{fill:#2E1984;}
	.st7{fill:#24E899;}
	.st8{fill:#EFF4EE;}
	.st9{fill:#391EA8;}
	.st10{fill:#FFFFFF;stroke:#FFFFFF;stroke-width:0.5;stroke-miterlimit:10;}
</style>
<linearGradient id="SVGID_1_" gradientUnits="userSpaceOnUse" x1="-166.8193" y1="-56.6934" x2="-166.1122" y2="-55.9863">
	<stop  offset="0" style="stop-color:#DEDFE3"/>
	<stop  offset="0.1783" style="stop-color:#DADBDF"/>
	<stop  offset="0.3611" style="stop-color:#CECFD3"/>
	<stop  offset="0.546" style="stop-color:#B9BCBF"/>
	<stop  offset="0.7324" style="stop-color:#9CA0A2"/>
	<stop  offset="0.9181" style="stop-color:#787D7E"/>
	<stop  offset="1" style="stop-color:#656B6C"/>
</linearGradient>
<g>
	<g>
		<rect x="-0.6253" class="st0" width="509.2906" height="480.2611"/>
	</g>
	<g>
		<g>
			<g>
				<path class="st1" d="M435.9906,68.2265V43.2809c0-1.3292,1.0875-2.4167,2.4167-2.4167h24.9457
					c1.3292,0,2.4167,1.0875,2.4167,2.4167v24.9457c0,1.3292-1.0875,2.4167-2.4167,2.4167h-24.9457
					C437.0781,70.6432,435.9906,69.5557,435.9906,68.2265z"/>
			</g>
		</g>
		<g>
			<g>
				<path class="st1" d="M435.9906,209.6769v-24.9457c0-1.3292,1.0875-2.4167,2.4167-2.4167h24.9457
					c1.3292,0,2.4167,1.0875,2.4167,2.4167v24.9457c0,1.3292-1.0875,2.4167-2.4167,2.4167h-24.9457
					C437.0781,212.0936,435.9906,211.0061,435.9906,209.6769z"/>
			</g>
		</g>
		<g>
			<g>
				<path class="st1" d="M379.296,137.3769v-24.9457c0-1.3292,1.0875-2.4167,2.4167-2.4167h24.9457
					c1.3292,0,2.4167,1.0875,2.4167,2.4167v24.9457c0,1.3292-1.0875,2.4167-2.4167,2.4167h-24.9457
					C380.3835,139.7935,379.296,138.706,379.296,137.3769z"/>
			</g>
		</g>
		<g>
			<g>
				<path class="st1" d="M307.1391,141.5287v-24.9457c0-1.3292,1.0875-2.4167,2.4167-2.4167h24.9457
					c1.3292,0,2.4167,1.0875,2.4167,2.4167v24.9457c0,1.3292-1.0875,2.4167-2.4167,2.4167h-24.9457
					C308.2266,143.9454,307.1391,142.8579,307.1391,141.5287z"/>
			</g>
		</g>
		<g>
			<g>
				<path class="st1" d="M249.8717,56.7731V31.8274c0-1.3292,1.0875-2.4167,2.4167-2.4167h24.9457
					c1.3292,0,2.4167,1.0875,2.4167,2.4167v24.9457c0,1.3292-1.0875,2.4167-2.4167,2.4167h-24.9457
					C250.9592,59.1897,249.8717,58.1022,249.8717,56.7731z"/>
			</g>
		</g>
		<g>
			<g>
				<path class="st1" d="M307.1391,282.9791v-24.9457c0-1.3292,1.0875-2.4167,2.4167-2.4167h24.9457
					c1.3292,0,2.4167,1.0875,2.4167,2.4167v24.9457c0,1.3292-1.0875,2.4167-2.4167,2.4167h-24.9457
					C308.2266,285.3958,307.1391,284.3083,307.1391,282.9791z"/>
			</g>
		</g>
		<g>
			<g>
				<path class="st1" d="M250.4444,210.6791v-24.9457c0-1.3292,1.0875-2.4167,2.4167-2.4167h24.9457
					c1.3292,0,2.4167,1.0875,2.4167,2.4167v24.9457c0,1.3292-1.0875,2.4167-2.4167,2.4167h-24.9457
					C251.5319,213.0957,250.4444,212.0082,250.4444,210.6791z"/>
			</g>
		</g>
		<g>
			<g>
				<path class="st1" d="M155.9533,210.6791v-24.9457c0-1.3292,1.0875-2.4167,2.4167-2.4167h24.9457
					c1.3292,0,2.4167,1.0875,2.4167,2.4167v24.9457c0,1.3292-1.0875,2.4167-2.4167,2.4167H158.37
					C157.0408,213.0957,155.9533,212.0082,155.9533,210.6791z"/>
			</g>
		</g>
		<g>
			<g>
				<polygon class="st1" points="391.9764,124.8727 447.8423,57.8045 450.4797,60.0023 396.3923,124.9365 452.2313,196.1437 
					449.5267,198.2644 				"/>
			</g>
		</g>
		<g>
			<g>
				
					<rect x="247.9151" y="162.1278" transform="matrix(0.6569 -0.7539 0.7539 0.6569 -22.7822 277.623)" class="st1" width="91.5301" height="3.4366"/>
			</g>
		</g>
		<g>
			<g>
				
					<rect x="289.3853" y="187.1611" transform="matrix(0.7579 -0.6524 0.6524 0.7579 -82.5507 246.7105)" class="st1" width="3.4358" height="94.8198"/>
			</g>
		</g>
		<g>
			<g>
				
					<rect x="170.8391" y="195.9867" transform="matrix(0.9999 -0.0103 0.0103 0.9999 -2.0342 2.2793)" class="st1" width="96.7881" height="3.4362"/>
			</g>
		</g>
		<g>
			<g>
				<polygon class="st1" points="263.3396,45.2616 266.1851,43.3389 322.8865,127.2568 391.7482,121.331 392.0435,124.7536 
					321.1685,130.8539 				"/>
			</g>
		</g>
	</g>
	<g>
		<g>
			<path class="st1" d="M69.1435,91.6167c-7.2034,0-13.0636-5.8602-13.0636-13.0636s5.8602-13.0636,13.0636-13.0636
				s13.0636,5.8602,13.0636,13.0636S76.3469,91.6167,69.1435,91.6167z M69.1435,72.232c-3.4848,0-6.3211,2.8346-6.3211,6.3211
				s2.8363,6.3211,6.3211,6.3211c3.4848,0,6.3211-2.8346,6.3211-6.3211S72.6284,72.232,69.1435,72.232z"/>
		</g>
	</g>
	<g>
		<g>
			<path class="st1" d="M133.6187,119.851c-16.0332,0-29.0771-13.0439-29.0771-29.0771s13.0439-29.0771,29.0771-29.0771
				s29.0771,13.0438,29.0771,29.0771S149.652,119.851,133.6187,119.851z M133.6187,68.4394
				c-12.3146,0-22.3346,10.0183-22.3346,22.3346s10.0199,22.3346,22.3346,22.3346s22.3346-10.0183,22.3346-22.3346
				S145.9334,68.4394,133.6187,68.4394z"/>
		</g>
	</g>
	<g>
		<path class="st2" d="M49.564,148.5107c0-2.3945,0.5586-4.3057,1.6748-5.7339c0.999-1.291,2.21-1.937,3.6309-1.937
			s2.6318,0.646,3.6309,1.937c1.1162,1.4282,1.6748,3.3721,1.6748,5.8315c0,2.4531-0.5586,4.3936-1.6748,5.8213
			c-0.999,1.2915-2.2061,1.937-3.6211,1.937s-2.6279-0.6455-3.6406-1.937C50.1226,153.0019,49.564,151.0288,49.564,148.5107z
			 M51.7935,148.5205c0,1.668,0.2891,3.0537,0.8662,4.1567c0.5781,1.084,1.3145,1.626,2.21,1.626c0.8887,0,1.626-0.542,2.21-1.626
			c0.584-1.0771,0.876-2.4365,0.876-4.0786s-0.292-3.0049-0.876-4.0889c-0.584-1.0771-1.3213-1.6157-2.21-1.6157
			c-0.8828,0-1.6162,0.5386-2.2002,1.6157C52.0855,145.5805,51.7935,146.9179,51.7935,148.5205z"/>
		<path class="st2" d="M66.4243,143.2153h-2.5986l1.2461-2.1226h3.6211v15.0308h-2.2686V143.2153z"/>
		<path class="st2" d="M74.1734,148.5107c0-2.3945,0.5586-4.3057,1.6748-5.7339c0.999-1.291,2.21-1.937,3.6309-1.937
			s2.6318,0.646,3.6309,1.937c1.1162,1.4282,1.6748,3.3721,1.6748,5.8315c0,2.4531-0.5586,4.3936-1.6748,5.8213
			c-0.999,1.2915-2.2061,1.937-3.6211,1.937s-2.6279-0.6455-3.6406-1.937C74.732,153.0019,74.1734,151.0288,74.1734,148.5107z
			 M76.4029,148.5205c0,1.668,0.2891,3.0537,0.8662,4.1567c0.5781,1.084,1.3145,1.626,2.21,1.626c0.8887,0,1.626-0.542,2.21-1.626
			c0.584-1.0771,0.876-2.4365,0.876-4.0786s-0.292-3.0049-0.876-4.0889c-0.584-1.0771-1.3213-1.6157-2.21-1.6157
			c-0.8828,0-1.6162,0.5386-2.2002,1.6157C76.6948,145.5805,76.4029,146.9179,76.4029,148.5205z"/>
		<path class="st2" d="M91.0337,143.2153h-2.5986l1.2461-2.1226h3.6211v15.0308h-2.2686V143.2153z"/>
		<path class="st2" d="M43.4116,172.435c0-2.3945,0.5586-4.3057,1.6748-5.7339c0.999-1.291,2.21-1.937,3.6309-1.937
			s2.6318,0.646,3.6309,1.937c1.1162,1.4282,1.6748,3.3721,1.6748,5.8315c0,2.4531-0.5586,4.3936-1.6748,5.8213
			c-0.999,1.2915-2.2061,1.937-3.6211,1.937s-2.6279-0.6455-3.6406-1.937C43.9702,176.9262,43.4116,174.9531,43.4116,172.435z
			 M45.6411,172.4448c0,1.668,0.2891,3.0537,0.8662,4.1567c0.5781,1.084,1.3145,1.626,2.21,1.626c0.8887,0,1.626-0.542,2.21-1.626
			c0.584-1.0771,0.876-2.4365,0.876-4.0786s-0.292-3.0049-0.876-4.0889c-0.584-1.0771-1.3213-1.6157-2.21-1.6157
			c-0.8828,0-1.6162,0.5386-2.2002,1.6157C45.9331,169.5048,45.6411,170.8422,45.6411,172.4448z"/>
		<path class="st2" d="M60.272,167.1396h-2.5986l1.2461-2.1226h3.6211v15.0308H60.272V167.1396z"/>
		<path class="st2" d="M72.5767,167.1396h-2.5986l1.2461-2.1226h3.6211v15.0308h-2.2686V167.1396z"/>
		<path class="st2" d="M84.8814,167.1396h-2.5986l1.2461-2.1226h3.6211v15.0308h-2.2686V167.1396z"/>
		<path class="st2" d="M49.564,196.3593c0-2.3945,0.5586-4.3057,1.6748-5.7339c0.999-1.291,2.21-1.937,3.6309-1.937
			s2.6318,0.646,3.6309,1.937c1.1162,1.4282,1.6748,3.3721,1.6748,5.8315c0,2.4531-0.5586,4.3936-1.6748,5.8213
			c-0.999,1.2915-2.2061,1.937-3.6211,1.937s-2.6279-0.6455-3.6406-1.937C50.1226,200.8505,49.564,198.8774,49.564,196.3593z
			 M51.7935,196.3691c0,1.668,0.2891,3.0537,0.8662,4.1567c0.5781,1.084,1.3145,1.626,2.21,1.626c0.8887,0,1.626-0.542,2.21-1.626
			c0.584-1.0771,0.876-2.4365,0.876-4.0786s-0.292-3.0049-0.876-4.0889c-0.584-1.0771-1.3213-1.6157-2.21-1.6157
			c-0.8828,0-1.6162,0.5386-2.2002,1.6157C52.0855,193.4292,51.7935,194.7666,51.7935,196.3691z"/>
		<path class="st2" d="M66.4243,191.0639h-2.5986l1.2461-2.1226h3.6211v15.0308h-2.2686V191.0639z"/>
		<path class="st2" d="M78.729,191.0639h-2.5986l1.2461-2.1226h3.6211v15.0308H78.729V191.0639z"/>
		<path class="st2" d="M86.4781,196.3593c0-2.3945,0.5586-4.3057,1.6748-5.7339c0.999-1.291,2.21-1.937,3.6309-1.937
			s2.6318,0.646,3.6309,1.937c1.1162,1.4282,1.6748,3.3721,1.6748,5.8315c0,2.4531-0.5586,4.3936-1.6748,5.8213
			c-0.999,1.2915-2.2061,1.937-3.6211,1.937s-2.6279-0.6455-3.6406-1.937C87.0366,200.8505,86.4781,198.8774,86.4781,196.3593z
			 M88.7075,196.3691c0,1.668,0.2891,3.0537,0.8662,4.1567c0.5781,1.084,1.3145,1.626,2.21,1.626c0.8887,0,1.626-0.542,2.21-1.626
			c0.584-1.0771,0.876-2.4365,0.876-4.0786s-0.292-3.0049-0.876-4.0889c-0.584-1.0771-1.3213-1.6157-2.21-1.6157
			c-0.8828,0-1.6162,0.5386-2.2002,1.6157C88.9995,193.4292,88.7075,194.7666,88.7075,196.3691z"/>
		<path class="st2" d="M43.4116,220.2836c0-2.3945,0.5586-4.3057,1.6748-5.7339c0.999-1.291,2.21-1.937,3.6309-1.937
			s2.6318,0.646,3.6309,1.937c1.1162,1.4282,1.6748,3.3721,1.6748,5.8315c0,2.4531-0.5586,4.394-1.6748,5.8208
			c-0.999,1.292-2.2061,1.9375-3.6211,1.9375s-2.6279-0.6455-3.6406-1.9375C43.9702,224.7753,43.4116,222.8017,43.4116,220.2836z
			 M45.6411,220.2934c0,1.668,0.2891,3.0537,0.8662,4.1567c0.5781,1.084,1.3145,1.626,2.21,1.626c0.8887,0,1.626-0.542,2.21-1.626
			c0.584-1.0771,0.876-2.4365,0.876-4.0786s-0.292-3.0049-0.876-4.0889c-0.584-1.0771-1.3213-1.6157-2.21-1.6157
			c-0.8828,0-1.6162,0.5386-2.2002,1.6157C45.9331,217.3535,45.6411,218.6909,45.6411,220.2934z"/>
		<path class="st2" d="M55.7163,220.2836c0-2.3945,0.5586-4.3057,1.6748-5.7339c0.999-1.291,2.21-1.937,3.6309-1.937
			s2.6318,0.646,3.6309,1.937c1.1162,1.4282,1.6748,3.3721,1.6748,5.8315c0,2.4531-0.5586,4.394-1.6748,5.8208
			c-0.999,1.292-2.2061,1.9375-3.6211,1.9375s-2.6279-0.6455-3.6406-1.9375C56.2749,224.7753,55.7163,222.8017,55.7163,220.2836z
			 M57.9458,220.2934c0,1.668,0.2891,3.0537,0.8662,4.1567c0.5781,1.084,1.3145,1.626,2.21,1.626c0.8887,0,1.626-0.542,2.21-1.626
			c0.584-1.0771,0.876-2.4365,0.876-4.0786s-0.292-3.0049-0.876-4.0889c-0.584-1.0771-1.3213-1.6157-2.21-1.6157
			c-0.8828,0-1.6162,0.5386-2.2002,1.6157C58.2378,217.3535,57.9458,218.6909,57.9458,220.2934z"/>
		<path class="st2" d="M68.021,220.2836c0-2.3945,0.5586-4.3057,1.6748-5.7339c0.999-1.291,2.21-1.937,3.6309-1.937
			s2.6318,0.646,3.6309,1.937c1.1162,1.4282,1.6748,3.3721,1.6748,5.8315c0,2.4531-0.5586,4.394-1.6748,5.8208
			c-0.999,1.292-2.2061,1.9375-3.6211,1.9375s-2.6279-0.6455-3.6406-1.9375C68.5796,224.7753,68.021,222.8017,68.021,220.2836z
			 M70.2505,220.2934c0,1.668,0.2891,3.0537,0.8662,4.1567c0.5781,1.084,1.3145,1.626,2.21,1.626c0.8887,0,1.626-0.542,2.21-1.626
			c0.584-1.0771,0.876-2.4365,0.876-4.0786s-0.292-3.0049-0.876-4.0889c-0.584-1.0771-1.3213-1.6157-2.21-1.6157
			c-0.8828,0-1.6162,0.5386-2.2002,1.6157C70.5425,217.3535,70.2505,218.6909,70.2505,220.2934z"/>
		<path class="st2" d="M84.8814,214.9882h-2.5986l1.2461-2.1226h3.6211v15.0308h-2.2686V214.9882z"/>
	</g>
</g>
<g>
	<g>
		<g>
			<rect y="310.6959" class="st3" width="508.04" height="169.5652"/>
		</g>
	</g>
</g>
<g>
	<g>
		<g>
			<g>
				<g>
					<g>
						<g>
							<polygon class="st4" points="273.6768,145.7149 281.3728,160.8768 275.5333,185.673 261.6267,174.3113 264.0637,156.1236 
															"/>
						</g>
					</g>
				</g>
			</g>
		</g>
		<g>
			<g>
				<g>
					<g>
						<g>
							<path class="st5" d="M253.1329,95.5173"/>
						</g>
					</g>
				</g>
			</g>
		</g>
		<g>
			<g>
				<g>
					<g>
						<g>
							<path class="st5" d="M253.1329,137.7357"/>
						</g>
					</g>
				</g>
			</g>
		</g>
		<g>
			<g>
				<g>
					<g>
						<g>
							<path class="st6" d="M253.1328,140.6343c-1.6007,0-2.8987-1.298-2.8987-2.8987v-22.8468c0-1.6007,1.298-2.8987,2.8987-2.8987
								s2.8987,1.298,2.8987,2.8987v22.8468C256.0315,139.3363,254.7334,140.6343,253.1328,140.6343z"/>
						</g>
					</g>
				</g>
			</g>
		</g>
		<g>
			<g>
				<g>
					<g>
						<g>
							<line class="st4" x1="248.8232" y1="137.7357" x2="257.7828" y2="137.7357"/>
						</g>
					</g>
				</g>
			</g>
		</g>
		<g>
			<g>
				<g>
					<g>
						<g>
							<path class="st6" d="M257.7829,140.6343h-8.9596c-1.6007,0-2.8987-1.298-2.8987-2.8987s1.298-2.8987,2.8987-2.8987h8.9596
								c1.6007,0,2.8987,1.298,2.8987,2.8987S259.3836,140.6343,257.7829,140.6343z"/>
						</g>
					</g>
				</g>
			</g>
		</g>
		<g>
			<g>
				<g>
					<g>
						<g>
							<path class="st4" d="M273.6768,145.7149l9.5249-8.9774c-7.2887-7.2887-17.3579-11.7968-28.4801-11.7968
								c-22.2443,0-40.2769,18.0326-40.2769,40.2769s18.0326,40.2769,40.2769,40.2769c8.2914,0,15.5835,3.0268,21.9888-1.2682
								l7.9714,1.103l-0.228-12.9411l-22.8272-18.0767l0,0l4.9076-23.1136L273.6768,145.7149"/>
						</g>
					</g>
				</g>
			</g>
		</g>
		<g>
			<g>
				<g>
					<g>
						<g>
							<path class="st6" d="M254.7216,209.4469c-24.3883,0-44.2298-19.841-44.2298-44.2293s19.8416-44.2298,44.2298-44.2298
								c11.8146,0,22.9214,4.6008,31.2753,12.9551l2.8786,2.8786l-12.4872,11.7698l-5.4227-5.7531l6.3986-6.03
								c-6.4104-5.1299-14.3123-7.9148-22.6425-7.9148c-20.0294,0-36.3243,16.2949-36.3243,36.3243
								c0,20.0289,16.2949,36.3238,36.3243,36.3238"/>
						</g>
					</g>
				</g>
			</g>
		</g>
		<g>
			<g>
				<g>
					<g>
						<g>
							<path class="st7" d="M276.9225,186.7268l-5.678-5.5009c4.1808-4.3146,6.4829-9.9998,6.4829-16.0082
								c0-6.2719-2.4782-12.1331-6.9781-16.5038l-2.9615-2.8766l3.1761-2.9975l2.7057,2.8673l2.5878-2.664
								c6.046,5.8725,9.3755,13.7477,9.3755,22.1746C285.633,173.291,282.5392,180.9294,276.9225,186.7268z"/>
						</g>
					</g>
				</g>
			</g>
		</g>
		<g>
			<g>
				<g>
					<g>
						<g>
							<path class="st6" d="M274.0832,183.9762"/>
						</g>
					</g>
				</g>
			</g>
		</g>
		<g>
			<g>
				<g>
					<g>
						<g>
							<circle class="st8" cx="254.7216" cy="165.2175" r="9.0938"/>
						</g>
					</g>
				</g>
			</g>
		</g>
		<g>
			<g>
				<g>
					<g>
						<g>
							<path class="st6" d="M254.7216,178.2638c-7.1937,0-13.0467-5.8525-13.0467-13.0462c0-7.1937,5.853-13.0467,13.0467-13.0467
								s13.0467,5.853,13.0467,13.0467C267.7683,172.4114,261.9153,178.2638,254.7216,178.2638z M254.7216,160.0765
								c-2.8349,0-5.1412,2.3063-5.1412,5.1412c0,2.8344,2.3063,5.1407,5.1412,5.1407s5.1412-2.3063,5.1412-5.1407
								C259.8628,162.3828,257.5565,160.0765,254.7216,160.0765z"/>
						</g>
					</g>
				</g>
			</g>
		</g>
		<g>
			<g>
				<g>
					<g>
						<g>
							<line class="st6" x1="283.2016" y1="136.7374" x2="260.2177" y2="157.9736"/>
						</g>
					</g>
				</g>
			</g>
		</g>
		<g>
			<g>
				<g>
					<g>
						<g>
							
								<rect x="256.0636" y="143.4027" transform="matrix(0.7345 -0.6786 0.6786 0.7345 -27.856 223.5146)" class="st6" width="31.2924" height="7.9058"/>
						</g>
					</g>
				</g>
			</g>
		</g>
		<g>
			<g>
				<g>
					<g>
						<g>
							<polyline class="st4" points="259.0123,173.2367 275.5333,185.673 284.4539,192.388 284.4539,209.4471 266.5342,208.5839 
															"/>
						</g>
					</g>
				</g>
			</g>
		</g>
		<g>
			<g>
				<g>
					<g>
						<g>
							<polygon class="st6" points="288.4066,209.4471 254.0035,209.4471 254.0035,201.5416 280.5011,201.5416 280.5011,194.36 
								256.6352,176.395 261.3898,170.0788 288.4066,190.4155 							"/>
						</g>
					</g>
				</g>
			</g>
		</g>
		<g>
			<g>
				<g>
					<g>
						<g>
							<path class="st6" d="M274.4442,184.2683"/>
						</g>
					</g>
				</g>
			</g>
		</g>
		<g>
			<g>
				<g>
					<g>
						<g>
							
								<rect x="292.1392" y="114.8232" transform="matrix(0.7071 -0.7071 0.7071 0.7071 3.4453 242.4451)" class="st7" width="4.481" height="4.481"/>
						</g>
					</g>
				</g>
			</g>
		</g>
		<g>
			<g>
				<g>
					<g>
						<g>
							
								<rect x="278.0354" y="100.7193" transform="matrix(0.7071 -0.7071 0.7071 0.7071 9.7717 227.1719)" class="st7" width="2.1422" height="2.1422"/>
						</g>
					</g>
				</g>
			</g>
		</g>
		<g>
			<g>
				<g>
					<g>
						<g>
							<circle class="st7" cx="294.0717" cy="88.4901" r="2.2838"/>
						</g>
					</g>
				</g>
			</g>
		</g>
		<g>
			<g>
				<g>
					<g>
						<g>
							<path class="st6" d="M239.4118,148.6134c-1.6007,0-2.8987-1.298-2.8987-2.8987v-30.8259c0-1.6007,1.298-2.8987,2.8987-2.8987
								s2.8987,1.298,2.8987,2.8987v30.8259C242.3105,147.3154,241.0125,148.6134,239.4118,148.6134z"/>
						</g>
					</g>
				</g>
			</g>
		</g>
	</g>
	<g>
		<g>
			<g>
				<g>
					<path class="st4" d="M129.0994,257.0183h15.9236v1.2732c0,2.8953-0.3408,5.4578-1.023,7.6875
						c-0.6656,2.0633-1.7891,3.9935-3.3698,5.7906c-3.5775,4.0268-8.1282,6.0396-13.6525,6.0396
						c-5.3913,0-10.0091-1.9462-13.8522-5.8399c-3.8444-3.9103-5.766-8.6027-5.766-14.0772c0-5.5909,1.9549-10.3338,5.8658-14.2275
						c3.9097-3.9097,8.6687-5.8652,14.2768-5.8652c3.0112,0,5.8233,0.6132,8.4357,1.8384c2.4959,1.2264,4.9506,3.2176,7.3634,5.9743
						l-4.1433,3.9683c-3.1615-4.2098-7.0139-6.3151-11.5559-6.3151c-4.0773,0-7.4965,1.4064-10.2587,4.2185
						c-2.7622,2.7622-4.1433,6.2232-4.1433,10.3831c0,4.2931,1.5389,7.8293,4.6178,10.6081
						c2.8781,2.5791,5.9983,3.8684,9.3595,3.8684c2.862,0,5.4325-0.9626,7.7128-2.8879c2.279-1.9419,3.5523-4.2653,3.8185-6.9708
						h-9.6091V257.0183z"/>
				</g>
			</g>
		</g>
		<g>
			<g>
				<g>
					<path class="st4" d="M171.4425,238.5482v38.5375h-5.8159v-38.5375H171.4425z"/>
				</g>
			</g>
		</g>
		<g>
			<g>
				<g>
					<path class="st4" d="M204.6257,244.0147v33.0711h-5.8159v-33.0711h-8.8603v-5.4664h23.5112v5.4664H204.6257z"/>
				</g>
			</g>
		</g>
		<g>
			<g>
				<g>
					<path class="st4" d="M259.0492,240.6073v6.8765c-3.3612-2.8121-6.8389-4.2185-10.4331-4.2185
						c-3.9603,0-7.2968,1.423-10.0085,4.2684c-2.7295,2.8288-4.0934,6.2898-4.0934,10.3832c0,4.0435,1.3638,7.4546,4.0934,10.2334
						c2.7283,2.7788,6.0729,4.1679,10.0331,4.1679c2.0473,0,3.7858-0.3322,5.2169-0.9984c0.7987-0.3322,1.6264-0.7814,2.4836-1.3472
						c0.8566-0.5657,1.7595-1.2486,2.708-2.0473v7.0263c-3.328,1.8889-6.8223,2.8331-10.483,2.8331
						c-5.5077,0-10.2088-1.9216-14.1024-5.766c-3.8771-3.8764-5.8153-8.5522-5.8153-14.0266c0-4.9087,1.6221-9.2849,4.8674-13.1293
						c3.9935-4.7084,9.1598-7.0632,15.4996-7.0632C252.4765,237.7995,255.8211,238.7356,259.0492,240.6073z"/>
				</g>
			</g>
		</g>
		<g>
			<g>
				<g>
					<path class="st7" d="M280.9818,251.5011c0-5.4239,1.9881-10.0836,5.9656-13.9773c3.9596-3.8937,8.7186-5.8399,14.2769-5.8399
						c5.4911,0,10.1995,1.9635,14.1265,5.8905c3.9442,3.927,5.9157,8.644,5.9157,14.1517c0,5.541-1.9801,10.242-5.9404,14.1024
						c-3.9769,3.877-8.7777,5.8152-14.4013,5.8152c-4.9759,0-9.4433-1.7219-13.4036-5.1669
						C283.1616,262.667,280.9818,257.675,280.9818,251.5011z M286.8476,251.564c0,4.2561,1.4304,7.7553,4.2931,10.499
						c2.8448,2.7431,6.1314,4.1143,9.8587,4.1143c4.0434,0,7.4546-1.3965,10.2334-4.1895c2.7788-2.8257,4.1685-6.2676,4.1685-10.324
						c0-4.1063-1.3731-7.5476-4.1186-10.3246c-2.7289-2.793-6.1068-4.1895-10.1336-4.1895c-4.0102,0-7.3967,1.3965-10.1588,4.1895
						C288.2281,244.0995,286.8476,247.5076,286.8476,251.564z"/>
				</g>
			</g>
		</g>
		<g>
			<g>
				<g>
					<path class="st4" d="M344.2105,238.5482v38.5375h-5.8159v-38.5375H344.2105z"/>
				</g>
			</g>
		</g>
		<g>
			<g>
				<g>
					<path class="st4" d="M366.7603,277.0858v-41.1579l28.105,29.4017v-26.7813h5.8152v40.8837l-28.1044-29.3271v26.9809H366.7603z"
						/>
				</g>
			</g>
		</g>
	</g>
</g>
<g>
	<path class="st9" d="M121.2764,347.0107v34.7432h-6.1104v-34.7432h-9.3076v-5.7422h24.7002v5.7422H121.2764z"/>
	<path class="st9" d="M153.711,356.2148h5.9258v25.5391h-5.9258v-2.6748c-2.4297,2.2725-5.043,3.4092-7.8398,3.4092
		c-3.5313,0-6.4502-1.2764-8.7578-3.8281c-2.29-2.6045-3.4346-5.8564-3.4346-9.7549c0-3.8281,1.1445-7.0176,3.4346-9.5703
		c2.29-2.5518,5.1563-3.8281,8.6006-3.8281c2.9717,0,5.6377,1.2236,7.9971,3.6709V356.2148z M139.709,368.9052
		c0,2.4482,0.6553,4.4404,1.9668,5.9785c1.3457,1.5566,3.042,2.334,5.0869,2.334c2.1846,0,3.9502-0.752,5.2969-2.2549
		c1.3457-1.5557,2.0186-3.5313,2.0186-5.9258c0-2.3955-0.6729-4.3701-2.0186-5.9268c-1.3467-1.5205-3.0947-2.2813-5.2441-2.2813
		c-2.0283,0-3.7236,0.7695-5.0869,2.3076C140.3819,364.6933,139.709,366.6162,139.709,368.9052z"/>
	<path class="st9" d="M172.9834,395.6513h-5.8994v-39.4365h5.8994v2.7793c2.3252-2.3252,4.9648-3.4873,7.9189-3.4873
		c3.5137,0,6.4063,1.2939,8.6787,3.8809c2.3076,2.5693,3.4619,5.8125,3.4619,9.7275c0,3.8281-1.1455,7.0186-3.4355,9.5713
		c-2.2725,2.5342-5.1387,3.8018-8.6006,3.8018c-2.9893,0-5.6631-1.1973-8.0234-3.5928V395.6513z M187.0117,369.1416
		c0-2.4473-0.6641-4.4404-1.9932-5.9785c-1.3457-1.5557-3.041-2.334-5.0869-2.334c-2.167,0-3.9238,0.752-5.2695,2.2559
		c-1.3467,1.5029-2.0195,3.4785-2.0195,5.9258c0,2.3945,0.6729,4.3701,2.0195,5.9258c1.3281,1.5205,3.0762,2.2813,5.2441,2.2813
		c2.0449,0,3.7314-0.7695,5.0605-2.3076C186.3301,373.372,187.0117,371.4492,187.0117,369.1416z"/>
	<path class="st9" d="M234.6817,356.2148h5.9258v25.5391h-5.9258v-2.6748c-2.4297,2.2725-5.043,3.4092-7.8398,3.4092
		c-3.5313,0-6.4502-1.2764-8.7578-3.8281c-2.29-2.6045-3.4346-5.8564-3.4346-9.7549c0-3.8281,1.1445-7.0176,3.4346-9.5703
		c2.29-2.5518,5.1563-3.8281,8.6006-3.8281c2.9717,0,5.6377,1.2236,7.9971,3.6709V356.2148z M220.6797,368.9052
		c0,2.4482,0.6553,4.4404,1.9668,5.9785c1.3457,1.5566,3.042,2.334,5.0869,2.334c2.1846,0,3.9502-0.752,5.2969-2.2549
		c1.3457-1.5557,2.0186-3.5313,2.0186-5.9258c0-2.3955-0.6729-4.3701-2.0186-5.9268c-1.3467-1.5205-3.0947-2.2813-5.2441-2.2813
		c-2.0283,0-3.7236,0.7695-5.0869,2.3076C221.3526,364.6933,220.6797,366.6162,220.6797,368.9052z"/>
	<path class="st9" d="M270.5264,337.4668v21.7109c2.3604-2.4473,5.0342-3.6709,8.0234-3.6709c3.4434,0,6.3105,1.2842,8.6006,3.8545
		c2.29,2.5527,3.4355,5.7334,3.4355,9.5439c0,3.9336-1.1543,7.1846-3.4619,9.7549c-2.29,2.5518-5.1826,3.8281-8.6787,3.8281
		c-2.9541,0-5.5938-1.1367-7.9189-3.4092v2.6748h-5.8994v-44.2871H270.5264z M284.5547,369.1679
		c0-2.4473-0.6641-4.4404-1.9932-5.9785c-1.3457-1.5732-3.0322-2.3604-5.0605-2.3604c-2.167,0-3.9326,0.7607-5.2959,2.2813
		c-1.3467,1.5039-2.0195,3.4619-2.0195,5.874c0,2.4824,0.6641,4.4668,1.9932,5.9521c1.3281,1.5205,3.0762,2.2813,5.2441,2.2813
		c2.0449,0,3.7402-0.7607,5.0869-2.2813C283.8731,373.3984,284.5547,371.4756,284.5547,369.1679z"/>
	<path class="st9" d="M302.7256,356.2148v14.6572c0,4.2305,1.6689,6.3457,5.0078,6.3457s5.0088-2.1152,5.0088-6.3457v-14.6572
		h5.8994v14.7881c0,2.0459-0.2529,3.8115-0.7598,5.2969c-0.4902,1.3291-1.3379,2.5264-2.5439,3.5928
		c-1.9932,1.7305-4.5273,2.5957-7.6045,2.5957c-3.0586,0-5.585-0.8652-7.5771-2.5957c-1.2236-1.0664-2.0889-2.2637-2.5957-3.5928
		c-0.4902-1.1885-0.7344-2.9541-0.7344-5.2969v-14.7881H302.7256z"/>
	<path class="st9" d="M332.1719,361.7207v20.0332h-5.8994v-20.0332h-2.5176v-5.5059h2.5176v-9.3613h5.8994v9.3613h4.5889v5.5059
		H332.1719z"/>
	<path class="st9" d="M346.8555,361.7207v20.0332h-5.8994v-20.0332h-2.5176v-5.5059h2.5176v-9.3613h5.8994v9.3613h4.5889v5.5059
		H346.8555z"/>
	<path class="st9" d="M354.25,368.8008c0-3.6885,1.3193-6.8262,3.959-9.4131s5.8555-3.8809,9.6494-3.8809
		c3.8105,0,7.0439,1.3027,9.7021,3.9063c2.6221,2.6055,3.9326,5.8047,3.9326,9.5977c0,3.8281-1.3203,7.0361-3.959,9.623
		c-2.6572,2.5693-5.918,3.8545-9.7803,3.8545c-3.8291,0-7.0371-1.3115-9.624-3.9336
		C355.543,375.9677,354.25,372.7168,354.25,368.8008z M360.2803,368.9052c0,2.5527,0.6816,4.5723,2.0459,6.0576
		c1.3975,1.5029,3.2422,2.2549,5.5322,2.2549c2.3076,0,4.1514-0.7432,5.5322-2.2285c1.3809-1.4863,2.0723-3.4697,2.0723-5.9521
		s-0.6914-4.4668-2.0723-5.9521c-1.3984-1.5039-3.2422-2.2559-5.5322-2.2559c-2.2549,0-4.082,0.752-5.4805,2.2559
		C360.9795,364.5879,360.2803,366.5283,360.2803,368.9052z"/>
	<path class="st9" d="M387.7344,356.2148h5.9258v2.3594c2.0625-2.0449,4.3877-3.0674,6.9746-3.0674
		c2.9717,0,5.2881,0.9355,6.9482,2.8057c1.4336,1.5908,2.1504,4.1865,2.1504,7.7871v15.6543h-5.9258v-14.2646
		c0-2.5166-0.3496-4.2559-1.0488-5.2178c-0.6816-0.9785-1.9229-1.4678-3.7236-1.4678c-1.958,0-3.3477,0.6465-4.1689,1.9395
		c-0.8047,1.2764-1.2061,3.5059-1.2061,6.6865v12.3242h-5.9258V356.2148z"/>
	<path class="st9" d="M420.8252,374.1758l5.2441,2.0459l-7.4727,14.9717l-3.9863-1.6514L420.8252,374.1758z"/>
	<path class="st9" d="M146.9072,435.8271c0,1.207-0.0391,2.2686-0.1182,3.1865s-0.1885,1.7256-0.3281,2.4248
		c-0.4189,1.9229-1.2412,3.5752-2.4648,4.9561c-2.3066,2.6572-5.4795,3.9854-9.5176,3.9854c-3.4092,0-6.2148-0.917-8.417-2.7529
		c-2.2725-1.8877-3.584-4.501-3.9336-7.8398h5.9258c0.2275,1.2588,0.6035,2.2285,1.1279,2.9102
		c1.2236,1.5908,3.0068,2.3867,5.3486,2.3867c4.3174,0,6.4766-2.6484,6.4766-7.9453v-3.5664
		c-2.3418,2.3955-5.043,3.5928-8.1016,3.5928c-3.4795,0-6.3281-1.2588-8.5488-3.7764c-2.2373-2.5518-3.3555-5.7422-3.3555-9.5703
		c0-3.7236,1.0391-6.8867,3.1201-9.4922c2.2373-2.7617,5.1914-4.1426,8.8623-4.1426c3.2168,0,5.8906,1.1973,8.0234,3.5918v-2.8838
		h5.9004V435.8271z M141.2432,423.7138c0-2.4824-0.6641-4.4668-1.9932-5.9521c-1.3457-1.5215-3.0674-2.2813-5.165-2.2813
		c-2.2383,0-4.0029,0.8301-5.2969,2.4902c-1.1709,1.4863-1.7568,3.4092-1.7568,5.7686c0,2.3252,0.5859,4.2314,1.7568,5.7168
		c1.2764,1.626,3.042,2.4385,5.2969,2.4385s4.0381-0.8213,5.3486-2.4648C140.6406,427.9443,141.2432,426.0381,141.2432,423.7138z"/>
	<path class="st9" d="M177.6123,425.0508h-18.3027c0.1582,2.0977,0.8398,3.7676,2.0459,5.0078
		c1.2061,1.2246,2.7529,1.8359,4.6406,1.8359c1.4688,0,2.6836-0.3496,3.6455-1.0488c0.9434-0.6992,2.0186-1.9932,3.2246-3.8809
		l4.9824,2.7793c-0.7695,1.3115-1.583,2.4346-2.4385,3.3691c-0.8574,0.9355-1.7744,1.7051-2.7539,2.3076
		c-0.9785,0.6035-2.0361,1.0449-3.1729,1.3242c-1.1357,0.2793-2.3682,0.4199-3.6963,0.4199c-3.8115,0-6.8701-1.2236-9.1777-3.6709
		c-2.3076-2.4648-3.4609-5.7334-3.4609-9.8066c0-4.0381,1.1182-7.3066,3.3555-9.8066c2.2559-2.4648,5.2451-3.6973,8.9678-3.6973
		c3.7588,0,6.7305,1.1973,8.915,3.5918c2.168,2.3779,3.252,5.6729,3.252,9.8857L177.6123,425.0508z M171.5557,420.2256
		c-0.8223-3.1465-2.8057-4.7197-5.9521-4.7197c-0.7178,0-1.3906,0.1094-2.0195,0.3281s-1.2021,0.5332-1.7178,0.9443
		c-0.5156,0.4102-0.957,0.9043-1.3242,1.4814c-0.3662,0.5762-0.6465,1.2324-0.8389,1.9658H171.5557z"/>
	<path class="st9" d="M190.1455,416.3974v20.0332h-5.8994v-20.0332h-2.5176v-5.5059h2.5176v-9.3613h5.8994v9.3613h4.5889v5.5059
		H190.1455z"/>
	<path class="st9" d="M234.1445,410.8916h5.9258v25.5391h-5.9258v-2.6748c-2.4297,2.2725-5.043,3.4092-7.8398,3.4092
		c-3.5313,0-6.4502-1.2764-8.7578-3.8281c-2.29-2.6045-3.4346-5.8564-3.4346-9.7549c0-3.8281,1.1445-7.0176,3.4346-9.5703
		c2.29-2.5518,5.1563-3.8281,8.6006-3.8281c2.9717,0,5.6377,1.2236,7.9971,3.6709V410.8916z M220.1426,423.582
		c0,2.4482,0.6553,4.4404,1.9668,5.9785c1.3457,1.5566,3.042,2.334,5.0869,2.334c2.1846,0,3.9502-0.752,5.2969-2.2549
		c1.3457-1.5557,2.0186-3.5313,2.0186-5.9258c0-2.3955-0.6729-4.3701-2.0186-5.9268c-1.3467-1.5205-3.0947-2.2813-5.2441-2.2813
		c-2.0283,0-3.7236,0.7695-5.0869,2.3076C220.8154,419.3701,220.1426,421.2929,220.1426,423.582z"/>
	<path class="st9" d="M283.9639,411.9922v7.8408c-1.3457-1.6436-2.5518-2.7705-3.6182-3.3828
		c-1.0488-0.6289-2.2813-0.9443-3.6973-0.9443c-2.2197,0-4.0645,0.7783-5.5322,2.334c-1.4688,1.5557-2.2031,3.5049-2.2031,5.8477
		c0,2.3945,0.708,4.3613,2.124,5.8994c1.4336,1.5381,3.2598,2.3076,5.4805,2.3076c1.416,0,2.665-0.3057,3.749-0.918
		c1.0488-0.5938,2.2813-1.748,3.6973-3.4609v7.7871c-2.3945,1.2412-4.7891,1.8623-7.1846,1.8623
		c-3.9502,0-7.2539-1.2764-9.9111-3.8281c-2.6572-2.5703-3.9854-5.7598-3.9854-9.5713c0-3.8105,1.3457-7.0273,4.0381-9.6494
		c2.6914-2.6221,5.9951-3.9326,9.9111-3.9326C279.3496,410.1836,281.7266,410.7861,283.9639,411.9922z"/>
	<path class="st9" d="M288.4746,423.4775c0-3.6885,1.3193-6.8262,3.959-9.4131s5.8555-3.8809,9.6494-3.8809
		c3.8105,0,7.0439,1.3027,9.7021,3.9063c2.6221,2.6055,3.9326,5.8047,3.9326,9.5977c0,3.8281-1.3203,7.0361-3.959,9.623
		c-2.6572,2.5693-5.918,3.8545-9.7803,3.8545c-3.8291,0-7.0371-1.3115-9.624-3.9336
		C289.7676,430.6445,288.4746,427.3935,288.4746,423.4775z M294.5049,423.582c0,2.5527,0.6816,4.5723,2.0459,6.0576
		c1.3975,1.5029,3.2422,2.2549,5.5322,2.2549c2.3076,0,4.1514-0.7432,5.5322-2.2285c1.3809-1.4863,2.0723-3.4697,2.0723-5.9521
		s-0.6914-4.4668-2.0723-5.9521c-1.3984-1.5039-3.2422-2.2559-5.5322-2.2559c-2.2549,0-4.082,0.752-5.4805,2.2559
		C295.2041,419.2646,294.5049,421.205,294.5049,423.582z"/>
	<path class="st9" d="M340.7852,392.1435h5.9258v44.2871h-5.9258v-2.6748c-2.3252,2.2725-4.9551,3.4092-7.8926,3.4092
		c-3.4961,0-6.3975-1.2764-8.7051-3.8281c-2.29-2.6045-3.4346-5.8564-3.4346-9.7549c0-3.8105,1.1445-6.9912,3.4346-9.5439
		c2.2725-2.5703,5.1299-3.8545,8.5742-3.8545c2.9893,0,5.6641,1.2236,8.0234,3.6709V392.1435z M326.7832,423.582
		c0,2.4482,0.6553,4.4404,1.9668,5.9785c1.3457,1.5566,3.042,2.334,5.0869,2.334c2.1846,0,3.9502-0.752,5.2969-2.2549
		c1.3457-1.5557,2.0186-3.5313,2.0186-5.9258c0-2.3955-0.6729-4.3701-2.0186-5.9268c-1.3467-1.5205-3.0947-2.2813-5.2441-2.2813
		c-2.0283,0-3.7236,0.7695-5.0869,2.3076C327.4561,419.3701,326.7832,421.2929,326.7832,423.582z"/>
	<path class="st9" d="M377.416,425.0508h-18.3027c0.1582,2.0977,0.8398,3.7676,2.0459,5.0078
		c1.2061,1.2246,2.7529,1.8359,4.6406,1.8359c1.4688,0,2.6836-0.3496,3.6455-1.0488c0.9434-0.6992,2.0186-1.9932,3.2246-3.8809
		l4.9824,2.7793c-0.7695,1.3115-1.583,2.4346-2.4385,3.3691c-0.8574,0.9355-1.7744,1.7051-2.7539,2.3076
		c-0.9785,0.6035-2.0361,1.0449-3.1729,1.3242c-1.1357,0.2793-2.3682,0.4199-3.6963,0.4199c-3.8115,0-6.8701-1.2236-9.1777-3.6709
		c-2.3076-2.4648-3.4609-5.7334-3.4609-9.8066c0-4.0381,1.1182-7.3066,3.3555-9.8066c2.2559-2.4648,5.2451-3.6973,8.9678-3.6973
		c3.7588,0,6.7305,1.1973,8.915,3.5918c2.168,2.3779,3.252,5.6729,3.252,9.8857L377.416,425.0508z M371.3594,420.2256
		c-0.8223-3.1465-2.8057-4.7197-5.9521-4.7197c-0.7178,0-1.3906,0.1094-2.0195,0.3281s-1.2021,0.5332-1.7178,0.9443
		c-0.5156,0.4102-0.957,0.9043-1.3242,1.4814c-0.3662,0.5762-0.6465,1.2324-0.8389,1.9658H371.3594z"/>
	<path class="st9" d="M383.8672,410.8916h5.8994v2.2813c1.084-1.1367,2.0449-1.9141,2.8848-2.334
		c0.8555-0.4365,1.8701-0.6553,3.041-0.6553c1.5557,0,3.1816,0.5068,4.877,1.5205l-2.7002,5.4014
		c-1.1191-0.8037-2.2119-1.2061-3.2773-1.2061c-3.2168,0-4.8252,2.4297-4.8252,7.29v13.2412h-5.8994V410.8916z"/>
	<path class="st9" d="M404.8701,433.4941c0-0.9795,0.3574-1.8271,1.0742-2.5439c0.7168-0.7158,1.5732-1.0752,2.5703-1.0752
		c0.9961,0,1.8525,0.3594,2.5693,1.0752c0.7168,0.7168,1.0752,1.5732,1.0752,2.5703c0,1.0137-0.3584,1.8789-1.0752,2.5957
		c-0.6992,0.6992-1.5557,1.0488-2.5693,1.0488c-1.0322,0-1.8975-0.3496-2.5957-1.0488
		C405.2188,435.417,404.8701,434.5429,404.8701,433.4941z"/>
</g>
<g>
	<path class="st10" d="M119.0645,343.4179v34.7432h-6.1104v-34.7432h-9.3076v-5.7422h24.7002v5.7422H119.0645z"/>
	<path class="st10" d="M151.499,352.622h5.9258v25.5391h-5.9258v-2.6748c-2.4297,2.2725-5.043,3.4092-7.8398,3.4092
		c-3.5313,0-6.4502-1.2764-8.7578-3.8281c-2.29-2.6045-3.4346-5.8564-3.4346-9.7549c0-3.8281,1.1445-7.0176,3.4346-9.5703
		c2.29-2.5518,5.1563-3.8281,8.6006-3.8281c2.9717,0,5.6377,1.2236,7.9971,3.6709V352.622z M137.4971,365.3125
		c0,2.4482,0.6553,4.4404,1.9668,5.9785c1.3457,1.5566,3.042,2.334,5.0869,2.334c2.1846,0,3.9502-0.752,5.2969-2.2549
		c1.3457-1.5557,2.0186-3.5313,2.0186-5.9258c0-2.3955-0.6729-4.3701-2.0186-5.9268c-1.3467-1.5205-3.0947-2.2813-5.2441-2.2813
		c-2.0283,0-3.7236,0.7695-5.0869,2.3076C138.1699,361.1006,137.4971,363.0234,137.4971,365.3125z"/>
	<path class="st10" d="M170.7715,392.0586h-5.8994V352.622h5.8994v2.7793c2.3252-2.3252,4.9648-3.4873,7.9189-3.4873
		c3.5137,0,6.4063,1.2939,8.6787,3.8809c2.3076,2.5693,3.4619,5.8125,3.4619,9.7275c0,3.8281-1.1455,7.0186-3.4355,9.5713
		c-2.2725,2.5342-5.1387,3.8018-8.6006,3.8018c-2.9893,0-5.6631-1.1973-8.0234-3.5928V392.0586z M184.7998,365.5488
		c0-2.4473-0.6641-4.4404-1.9932-5.9785c-1.3457-1.5557-3.041-2.334-5.0869-2.334c-2.167,0-3.9238,0.752-5.2695,2.2559
		c-1.3467,1.5029-2.0195,3.4785-2.0195,5.9258c0,2.3945,0.6729,4.3701,2.0195,5.9258c1.3281,1.5205,3.0762,2.2813,5.2441,2.2813
		c2.0449,0,3.7314-0.7695,5.0605-2.3076C184.1182,369.7793,184.7998,367.8564,184.7998,365.5488z"/>
	<path class="st10" d="M232.4697,352.622h5.9258v25.5391h-5.9258v-2.6748c-2.4297,2.2725-5.043,3.4092-7.8398,3.4092
		c-3.5313,0-6.4502-1.2764-8.7578-3.8281c-2.29-2.6045-3.4346-5.8564-3.4346-9.7549c0-3.8281,1.1445-7.0176,3.4346-9.5703
		c2.29-2.5518,5.1563-3.8281,8.6006-3.8281c2.9717,0,5.6377,1.2236,7.9971,3.6709V352.622z M218.4678,365.3125
		c0,2.4482,0.6553,4.4404,1.9668,5.9785c1.3457,1.5566,3.042,2.334,5.0869,2.334c2.1846,0,3.9502-0.752,5.2969-2.2549
		c1.3457-1.5557,2.0186-3.5313,2.0186-5.9258c0-2.3955-0.6729-4.3701-2.0186-5.9268c-1.3467-1.5205-3.0947-2.2813-5.2441-2.2813
		c-2.0283,0-3.7236,0.7695-5.0869,2.3076C219.1406,361.1006,218.4678,363.0234,218.4678,365.3125z"/>
	<path class="st10" d="M268.3145,333.874v21.7109c2.3604-2.4473,5.0342-3.6709,8.0234-3.6709c3.4434,0,6.3105,1.2842,8.6006,3.8545
		c2.29,2.5527,3.4355,5.7334,3.4355,9.5439c0,3.9336-1.1543,7.1846-3.4619,9.7549c-2.29,2.5518-5.1826,3.8281-8.6787,3.8281
		c-2.9541,0-5.5938-1.1367-7.9189-3.4092v2.6748h-5.8994V333.874H268.3145z M282.3428,365.5752
		c0-2.4473-0.6641-4.4404-1.9932-5.9785c-1.3457-1.5732-3.0322-2.3604-5.0605-2.3604c-2.167,0-3.9326,0.7607-5.2959,2.2813
		c-1.3467,1.5039-2.0195,3.4619-2.0195,5.874c0,2.4824,0.6641,4.4668,1.9932,5.9521c1.3281,1.5205,3.0762,2.2813,5.2441,2.2813
		c2.0449,0,3.7402-0.7607,5.0869-2.2813C281.6612,369.8056,282.3428,367.8828,282.3428,365.5752z"/>
	<path class="st10" d="M300.5137,352.622v14.6572c0,4.2305,1.6689,6.3457,5.0078,6.3457s5.0088-2.1152,5.0088-6.3457V352.622h5.8994
		v14.7881c0,2.0459-0.2529,3.8115-0.7598,5.2969c-0.4902,1.3291-1.3379,2.5264-2.5439,3.5928
		c-1.9932,1.7305-4.5273,2.5957-7.6045,2.5957c-3.0586,0-5.585-0.8652-7.5771-2.5957c-1.2236-1.0664-2.0889-2.2637-2.5957-3.5928
		c-0.4902-1.1885-0.7344-2.9541-0.7344-5.2969V352.622H300.5137z"/>
	<path class="st10" d="M329.96,358.1279v20.0332h-5.8994v-20.0332h-2.5176v-5.5059h2.5176v-9.3613h5.8994v9.3613h4.5889v5.5059
		H329.96z"/>
	<path class="st10" d="M344.6436,358.1279v20.0332h-5.8994v-20.0332h-2.5176v-5.5059h2.5176v-9.3613h5.8994v9.3613h4.5889v5.5059
		H344.6436z"/>
	<path class="st10" d="M352.0381,365.208c0-3.6885,1.3193-6.8262,3.959-9.4131s5.8555-3.8809,9.6494-3.8809
		c3.8105,0,7.0439,1.3027,9.7021,3.9063c2.6221,2.6055,3.9326,5.8047,3.9326,9.5977c0,3.8281-1.3203,7.0361-3.959,9.623
		c-2.6572,2.5693-5.918,3.8545-9.7803,3.8545c-3.8291,0-7.0371-1.3115-9.624-3.9336
		C353.3311,372.375,352.0381,369.124,352.0381,365.208z M358.0684,365.3125c0,2.5527,0.6816,4.5723,2.0459,6.0576
		c1.3975,1.5029,3.2422,2.2549,5.5322,2.2549c2.3076,0,4.1514-0.7432,5.5322-2.2285c1.3809-1.4863,2.0723-3.4697,2.0723-5.9521
		s-0.6914-4.4668-2.0723-5.9521c-1.3984-1.5039-3.2422-2.2559-5.5322-2.2559c-2.2549,0-4.082,0.752-5.4805,2.2559
		C358.7676,360.9951,358.0684,362.9355,358.0684,365.3125z"/>
	<path class="st10" d="M385.5225,352.622h5.9258v2.3594c2.0625-2.0449,4.3877-3.0674,6.9746-3.0674
		c2.9717,0,5.2881,0.9355,6.9482,2.8057c1.4336,1.5908,2.1504,4.1865,2.1504,7.7871v15.6543h-5.9258v-14.2646
		c0-2.5166-0.3496-4.2559-1.0488-5.2178c-0.6816-0.9785-1.9229-1.4678-3.7236-1.4678c-1.958,0-3.3477,0.6465-4.1689,1.9395
		c-0.8047,1.2764-1.2061,3.5059-1.2061,6.6865v12.3242h-5.9258V352.622z"/>
	<path class="st10" d="M418.6133,370.583l5.2441,2.0459l-7.4727,14.9717l-3.9863-1.6514L418.6133,370.583z"/>
	<path class="st10" d="M144.6953,432.2343c0,1.207-0.0391,2.2686-0.1182,3.1865s-0.1885,1.7256-0.3281,2.4248
		c-0.4189,1.9229-1.2412,3.5752-2.4648,4.9561c-2.3066,2.6572-5.4795,3.9854-9.5176,3.9854c-3.4092,0-6.2148-0.917-8.417-2.7529
		c-2.2725-1.8877-3.584-4.501-3.9336-7.8398h5.9258c0.2275,1.2588,0.6035,2.2285,1.1279,2.9102
		c1.2236,1.5908,3.0068,2.3867,5.3486,2.3867c4.3174,0,6.4766-2.6484,6.4766-7.9453v-3.5664
		c-2.3418,2.3955-5.043,3.5928-8.1016,3.5928c-3.4795,0-6.3281-1.2588-8.5488-3.7764c-2.2373-2.5518-3.3555-5.7422-3.3555-9.5703
		c0-3.7236,1.0391-6.8867,3.1201-9.4922c2.2373-2.7617,5.1914-4.1426,8.8623-4.1426c3.2168,0,5.8906,1.1973,8.0234,3.5918v-2.8838
		h5.9004V432.2343z M139.0313,420.1211c0-2.4824-0.6641-4.4668-1.9932-5.9521c-1.3457-1.5215-3.0674-2.2813-5.165-2.2813
		c-2.2383,0-4.0029,0.8301-5.2969,2.4902c-1.1709,1.4863-1.7568,3.4092-1.7568,5.7686c0,2.3252,0.5859,4.2314,1.7568,5.7168
		c1.2764,1.626,3.042,2.4385,5.2969,2.4385s4.0381-0.8213,5.3486-2.4648C138.4287,424.3515,139.0313,422.4453,139.0313,420.1211z"/>
	<path class="st10" d="M175.4004,421.458h-18.3027c0.1582,2.0977,0.8398,3.7676,2.0459,5.0078
		c1.2061,1.2246,2.7529,1.8359,4.6406,1.8359c1.4688,0,2.6836-0.3496,3.6455-1.0488c0.9434-0.6992,2.0186-1.9932,3.2246-3.8809
		l4.9824,2.7793c-0.7695,1.3115-1.583,2.4346-2.4385,3.3691c-0.8574,0.9355-1.7744,1.7051-2.7539,2.3076
		c-0.9785,0.6035-2.0361,1.0449-3.1729,1.3242c-1.1357,0.2793-2.3682,0.4199-3.6963,0.4199c-3.8115,0-6.8701-1.2236-9.1777-3.6709
		c-2.3076-2.4648-3.4609-5.7334-3.4609-9.8066c0-4.0381,1.1182-7.3066,3.3555-9.8066c2.2559-2.4648,5.2451-3.6973,8.9678-3.6973
		c3.7588,0,6.7305,1.1973,8.915,3.5918c2.168,2.3779,3.252,5.6729,3.252,9.8857L175.4004,421.458z M169.3438,416.6328
		c-0.8223-3.1465-2.8057-4.7197-5.9521-4.7197c-0.7178,0-1.3906,0.1094-2.0195,0.3281s-1.2021,0.5332-1.7178,0.9443
		c-0.5156,0.4102-0.957,0.9043-1.3242,1.4814c-0.3662,0.5762-0.6465,1.2324-0.8389,1.9658H169.3438z"/>
	<path class="st10" d="M187.9336,412.8047v20.0332h-5.8994v-20.0332h-2.5176v-5.5059h2.5176v-9.3613h5.8994v9.3613h4.5889v5.5059
		H187.9336z"/>
	<path class="st10" d="M231.9326,407.2988h5.9258v25.5391h-5.9258v-2.6748c-2.4297,2.2725-5.043,3.4092-7.8398,3.4092
		c-3.5313,0-6.4502-1.2764-8.7578-3.8281c-2.29-2.6045-3.4346-5.8564-3.4346-9.7549c0-3.8281,1.1445-7.0176,3.4346-9.5703
		c2.29-2.5518,5.1563-3.8281,8.6006-3.8281c2.9717,0,5.6377,1.2236,7.9971,3.6709V407.2988z M217.9307,419.9892
		c0,2.4482,0.6553,4.4404,1.9668,5.9785c1.3457,1.5566,3.042,2.334,5.0869,2.334c2.1846,0,3.9502-0.752,5.2969-2.2549
		c1.3457-1.5557,2.0186-3.5313,2.0186-5.9258c0-2.3955-0.6729-4.3701-2.0186-5.9268c-1.3467-1.5205-3.0947-2.2813-5.2441-2.2813
		c-2.0283,0-3.7236,0.7695-5.0869,2.3076C218.6035,415.7773,217.9307,417.7002,217.9307,419.9892z"/>
	<path class="st10" d="M281.752,408.3994v7.8408c-1.3457-1.6436-2.5518-2.7705-3.6182-3.3828
		c-1.0488-0.6289-2.2813-0.9443-3.6973-0.9443c-2.2197,0-4.0645,0.7783-5.5322,2.334c-1.4688,1.5557-2.2031,3.5049-2.2031,5.8477
		c0,2.3945,0.708,4.3613,2.124,5.8994c1.4336,1.5381,3.2598,2.3076,5.4805,2.3076c1.416,0,2.665-0.3057,3.749-0.918
		c1.0488-0.5938,2.2813-1.748,3.6973-3.4609v7.7871c-2.3945,1.2412-4.7891,1.8623-7.1846,1.8623
		c-3.9502,0-7.2539-1.2764-9.9111-3.8281c-2.6572-2.5703-3.9854-5.7598-3.9854-9.5713c0-3.8105,1.3457-7.0273,4.0381-9.6494
		c2.6914-2.6221,5.9951-3.9326,9.9111-3.9326C277.1377,406.5908,279.5147,407.1933,281.752,408.3994z"/>
	<path class="st10" d="M286.2627,419.8847c0-3.6885,1.3193-6.8262,3.959-9.4131s5.8555-3.8809,9.6494-3.8809
		c3.8105,0,7.0439,1.3027,9.7021,3.9063c2.6221,2.6055,3.9326,5.8047,3.9326,9.5977c0,3.8281-1.3203,7.0361-3.959,9.623
		c-2.6572,2.5693-5.918,3.8545-9.7803,3.8545c-3.8291,0-7.0371-1.3115-9.624-3.9336
		C287.5557,427.0517,286.2627,423.8008,286.2627,419.8847z M292.293,419.9892c0,2.5527,0.6816,4.5723,2.0459,6.0576
		c1.3975,1.5029,3.2422,2.2549,5.5322,2.2549c2.3076,0,4.1514-0.7432,5.5322-2.2285c1.3809-1.4863,2.0723-3.4697,2.0723-5.9521
		s-0.6914-4.4668-2.0723-5.9521c-1.3984-1.5039-3.2422-2.2559-5.5322-2.2559c-2.2549,0-4.082,0.752-5.4805,2.2559
		C292.9922,415.6718,292.293,417.6123,292.293,419.9892z"/>
	<path class="st10" d="M338.5733,388.5508h5.9258v44.2871h-5.9258v-2.6748c-2.3252,2.2725-4.9551,3.4092-7.8926,3.4092
		c-3.4961,0-6.3975-1.2764-8.7051-3.8281c-2.29-2.6045-3.4346-5.8564-3.4346-9.7549c0-3.8105,1.1445-6.9912,3.4346-9.5439
		c2.2725-2.5703,5.1299-3.8545,8.5742-3.8545c2.9893,0,5.6641,1.2236,8.0234,3.6709V388.5508z M324.5713,419.9892
		c0,2.4482,0.6553,4.4404,1.9668,5.9785c1.3457,1.5566,3.042,2.334,5.0869,2.334c2.1846,0,3.9502-0.752,5.2969-2.2549
		c1.3457-1.5557,2.0186-3.5313,2.0186-5.9258c0-2.3955-0.6729-4.3701-2.0186-5.9268c-1.3467-1.5205-3.0947-2.2813-5.2441-2.2813
		c-2.0283,0-3.7236,0.7695-5.0869,2.3076C325.2442,415.7773,324.5713,417.7002,324.5713,419.9892z"/>
	<path class="st10" d="M375.2041,421.458h-18.3027c0.1582,2.0977,0.8398,3.7676,2.0459,5.0078
		c1.2061,1.2246,2.7529,1.8359,4.6406,1.8359c1.4688,0,2.6836-0.3496,3.6455-1.0488c0.9434-0.6992,2.0186-1.9932,3.2246-3.8809
		l4.9824,2.7793c-0.7695,1.3115-1.583,2.4346-2.4385,3.3691c-0.8574,0.9355-1.7744,1.7051-2.7539,2.3076
		c-0.9785,0.6035-2.0361,1.0449-3.1729,1.3242c-1.1357,0.2793-2.3682,0.4199-3.6963,0.4199c-3.8115,0-6.8701-1.2236-9.1777-3.6709
		c-2.3076-2.4648-3.4609-5.7334-3.4609-9.8066c0-4.0381,1.1182-7.3066,3.3555-9.8066c2.2559-2.4648,5.2451-3.6973,8.9678-3.6973
		c3.7588,0,6.7305,1.1973,8.915,3.5918c2.168,2.3779,3.252,5.6729,3.252,9.8857L375.2041,421.458z M369.1475,416.6328
		c-0.8223-3.1465-2.8057-4.7197-5.9521-4.7197c-0.7178,0-1.3906,0.1094-2.0195,0.3281s-1.2021,0.5332-1.7178,0.9443
		c-0.5156,0.4102-0.957,0.9043-1.3242,1.4814c-0.3662,0.5762-0.6465,1.2324-0.8389,1.9658H369.1475z"/>
	<path class="st10" d="M381.6553,407.2988h5.8994v2.2813c1.084-1.1367,2.0449-1.9141,2.8848-2.334
		c0.8555-0.4365,1.8701-0.6553,3.041-0.6553c1.5557,0,3.1816,0.5068,4.877,1.5205l-2.7002,5.4014
		c-1.1191-0.8037-2.2119-1.2061-3.2773-1.2061c-3.2168,0-4.8252,2.4297-4.8252,7.29v13.2412h-5.8994V407.2988z"/>
	<path class="st10" d="M402.6582,429.9013c0-0.9795,0.3574-1.8271,1.0742-2.5439c0.7168-0.7158,1.5732-1.0752,2.5703-1.0752
		c0.9961,0,1.8525,0.3594,2.5693,1.0752c0.7168,0.7168,1.0752,1.5732,1.0752,2.5703c0,1.0137-0.3584,1.8789-1.0752,2.5957
		c-0.6992,0.6992-1.5557,1.0488-2.5693,1.0488c-1.0322,0-1.8975-0.3496-2.5957-1.0488
		C403.0069,431.8242,402.6582,430.9502,402.6582,429.9013z"/>
</g>
</svg>
