<?xml version="1.0" encoding="utf-8"?>
<!-- Generator: Adobe Illustrator 23.0.1, SVG Export Plug-In . SVG Version: 6.00 Build 0)  -->
<svg version="1.1" id="Layer_1" xmlns="http://www.w3.org/2000/svg" xmlns:xlink="http://www.w3.org/1999/xlink" x="0px" y="0px"
	 viewBox="0 0 72 72" style="enable-background:new 0 0 72 72;" xml:space="preserve">
<g>
	<path d="M46.4,10.8c-0.2,0-0.5,0-0.7,0c19.2,16.8-4.5,33.6,14.7,50.4c0.6,0,1.2,0,1.8,0C42.7,44.4,66,27.6,46.4,10.8z"/>
	<path d="M45.1,10.8c-2.4,0-4.8,0-7.2,0c1.1,1.2,1.9,2.4,2.6,3.6c-0.8,0-1.6,0-2.4,0c-0.6-1.2-1.3-2.4-2.3-3.6c-2.4,0-4.8,0-7.2,0
		c9.7,16.8-23.3,33.6-13.6,50.4c6.3,0,12.7,0,19,0c-1-1.2-1.7-2.4-2.3-3.6c1.8,0,3.7,0,5.5,0c0.7,1.2,1.5,2.4,2.6,3.6
		c6.3,0,12.7,0,19,0C39.9,44.4,63.9,27.6,45.1,10.8z M35.2,51.4c-1.7,0-3.4,0-5.1,0c0-2.1,0.3-4.1,0.9-6.2c1.5,0,3.1,0,4.6,0
		C35.2,47.3,35,49.4,35.2,51.4z M37.6,39.1c-1.4,0-2.8,0-4.2,0c0.9-2.1,1.9-4.1,2.8-6.2c1.3,0,2.5,0,3.8,0
		C39.2,35,38.3,37,37.6,39.1z M41.8,26.8c-1.1,0-2.2,0-3.3,0c0.6-2.1,0.9-4.1,0.9-6.2c1,0,1.9,0,2.9,0
		C42.5,22.6,42.3,24.7,41.8,26.8z"/>
	<path d="M27.8,10.8c-0.2,0-0.5,0-0.7,0c9,16.8-24.8,33.6-15.8,50.4c0.6,0,1.2,0,1.8,0C3.7,44.4,37.2,27.6,27.8,10.8z"/>
</g>
</svg>
