<?xml version="1.0" encoding="utf-8"?>
<!-- Generator: Adobe Illustrator 23.0.1, SVG Export Plug-In . SVG Version: 6.00 Build 0)  -->
<svg version="1.1" id="Layer_1" xmlns="http://www.w3.org/2000/svg" xmlns:xlink="http://www.w3.org/1999/xlink" x="0px" y="0px"
	 viewBox="0 0 72 72" style="enable-background:new 0 0 72 72;" xml:space="preserve">
<g>
	<path d="M37.5,14.7c-0.1,0-0.2,0-0.2,0C62.6,23,69.6,49,58.3,57.3c0.5,0,1.1,0,1.6,0C70.8,49,63.3,23,37.5,14.7z"/>
	<path d="M37.1,14.7c-1,0-2,0-3.1,0c1.4,0.6,2.6,1.3,3.8,2c-0.4,0-0.7,0-1.1,0c-1.1-0.8-2.2-1.4-3.5-2c-1,0-2,0-3.1,0
		C41.9,23,35.3,49,10.5,57.3c6.8,0,13.7,0,20.5,0c1.4-0.6,2.6-1.3,3.8-2c1.6,0,3.3,0,4.9,0c-1.1,0.8-2.2,1.4-3.5,2
		c6.8,0,13.7,0,20.5,0C68.5,49,61.9,23,37.1,14.7z M43,21.3c1.5,1.7,2.7,3.5,3.6,5.5c-0.7,0-1.5,0-2.2,0c-0.7-2-1.7-3.8-3-5.5
		C41.9,21.3,42.5,21.3,43,21.3z M44.4,50.7c-1.5,0-2.9,0-4.4,0c1.5-1.7,2.7-3.5,3.6-5.5c1.3,0,2.5,0,3.8,0
		C46.7,47.2,45.7,49,44.4,50.7z M48.8,39.1c-1.1,0-2.2,0-3.3,0c0.4-2.1,0.5-4.2,0.3-6.3c0.9,0,1.8,0,2.7,0
		C48.9,34.9,49,37.1,48.8,39.1z"/>
	<path d="M29.9,14.7c-0.1,0-0.2,0-0.2,0C40.5,23,33,49,7.2,57.3c0.5,0,1.1,0,1.6,0C34.2,49,41.2,23,29.9,14.7z"/>
</g>
</svg>
