<?xml version="1.0" encoding="UTF-8" standalone="no"?>
<!DOCTYPE svg PUBLIC "-//W3C//DTD SVG 1.1//EN" "http://www.w3.org/Graphics/SVG/1.1/DTD/svg11.dtd">
<svg viewBox="0 0 1024 1024" height="1024.0pt" width="1024.0pt" xmlns="http://www.w3.org/2000/svg" version="1.1">
<path d="M 0.00 0.00 L 1024.00 0.00 L 1024.00 478.27 C 1021.16 479.08 1018.56 480.05 1016.02 481.56 C 1012.53 479.57 1009.13 477.99 1004.99 478.50 C 1001.76 478.69 999.53 480.41 996.74 481.71 C 995.16 481.71 993.47 480.58 991.92 480.17 C 987.69 478.76 983.95 479.93 980.00 481.49 C 977.33 480.52 974.91 479.49 972.00 479.53 C 968.86 479.53 966.06 480.88 963.19 482.00 C 959.42 480.26 955.19 478.74 950.99 478.80 C 947.53 478.93 944.86 480.48 941.90 482.05 C 935.87 480.06 929.95 479.89 924.16 482.74 C 919.60 480.58 915.04 479.92 910.11 481.25 C 906.13 482.49 903.14 480.30 899.00 480.56 C 895.33 480.44 892.27 481.83 889.10 483.46 C 885.85 481.78 882.76 480.33 878.99 480.62 C 875.45 480.82 872.69 482.49 869.81 484.36 C 866.93 483.00 864.29 481.66 861.00 481.72 C 857.52 481.66 854.76 483.09 851.73 484.58 C 849.23 483.28 846.90 482.01 844.01 481.80 C 840.67 481.40 837.90 482.55 834.88 483.73 C 832.26 482.73 829.87 481.73 827.00 481.71 C 824.03 481.67 820.96 483.06 818.18 484.04 C 815.37 482.02 812.57 480.28 809.03 479.97 C 804.68 479.47 800.99 481.12 797.54 483.57 C 794.10 481.87 790.98 480.27 786.98 480.65 C 783.50 480.87 780.88 482.56 777.99 484.31 C 775.04 482.96 772.35 481.62 769.00 481.71 C 766.25 481.68 763.74 483.17 761.09 483.37 C 758.30 482.65 755.96 481.51 752.99 481.74 C 750.01 481.88 747.66 483.11 745.00 484.27 C 741.70 482.80 738.73 481.34 734.98 481.78 C 731.36 481.98 728.64 483.79 725.75 485.76 C 720.79 482.99 717.80 482.30 712.07 483.27 C 708.04 480.76 703.92 479.13 699.09 480.23 C 696.07 480.65 693.90 483.11 691.14 483.82 C 688.34 483.01 686.02 481.71 683.00 481.72 C 679.51 481.62 676.72 483.05 673.71 484.58 C 670.86 483.17 668.29 481.77 665.01 481.73 C 662.00 481.62 659.51 482.67 656.78 483.72 C 653.85 482.64 651.20 481.53 647.99 481.74 C 644.86 481.88 642.42 483.24 639.69 484.58 C 636.53 483.00 633.66 481.49 629.99 481.74 C 626.21 481.83 623.39 483.61 620.23 485.41 C 617.58 484.12 615.01 482.93 612.01 482.80 C 608.35 482.62 605.50 484.15 602.32 485.67 C 597.78 483.00 592.91 481.78 587.85 483.92 C 584.47 485.59 582.43 483.22 579.03 482.87 C 574.85 482.31 571.63 484.01 568.08 485.90 C 565.24 483.94 562.58 482.12 559.02 481.81 C 554.90 481.28 551.55 482.84 548.03 484.71 C 544.85 482.94 541.74 481.51 537.98 481.74 C 534.42 481.82 531.64 483.49 528.75 485.38 C 525.85 484.20 523.20 482.89 520.01 482.78 C 517.15 482.74 514.57 483.81 511.93 484.77 C 509.42 483.91 506.67 482.81 504.00 482.77 C 500.95 482.78 498.05 484.14 495.24 485.20 C 491.90 483.67 488.76 482.34 484.97 482.93 C 481.61 483.32 479.07 485.02 476.29 486.78 C 473.36 485.04 470.51 483.56 467.00 483.55 C 463.56 483.40 460.67 484.73 457.77 486.40 C 454.88 485.06 452.29 483.67 449.00 483.56 C 446.03 483.37 443.52 484.42 440.83 485.49 C 437.20 484.34 433.88 482.86 429.99 483.91 C 428.18 484.19 426.20 485.22 424.46 484.48 C 421.60 483.60 419.07 482.53 415.97 482.84 C 412.38 483.15 409.61 484.94 406.77 486.97 C 403.62 485.85 400.41 484.35 396.99 484.67 C 393.92 484.89 391.44 486.19 388.75 487.52 C 386.21 486.22 383.95 484.90 381.02 484.69 C 377.70 484.35 374.94 485.48 371.92 486.63 C 368.94 485.58 366.24 484.39 362.98 484.67 C 359.93 484.83 357.46 486.17 354.82 487.57 C 352.94 486.63 351.07 485.65 349.18 484.72 C 350.41 482.59 351.57 480.43 352.56 478.17 C 353.27 477.71 353.87 477.17 354.36 476.55 C 361.33 461.08 362.34 444.55 360.35 427.86 C 359.45 432.77 359.87 438.00 359.74 443.00 C 359.61 447.67 360.50 451.75 359.13 456.01 C 360.02 451.28 359.64 446.69 359.37 441.94 C 359.68 436.37 360.11 431.03 358.69 425.55 C 357.00 415.67 353.11 406.72 348.57 397.87 C 343.34 387.56 334.66 378.49 325.84 371.15 C 309.84 358.82 289.27 351.53 269.00 352.30 C 236.33 352.28 204.60 372.42 190.51 401.87 C 186.96 409.53 184.03 417.38 182.47 425.70 C 180.59 433.58 181.89 442.06 181.47 450.19 C 180.84 443.99 182.00 437.64 180.46 431.73 C 178.91 439.35 179.37 447.43 180.94 455.01 C 181.65 462.73 183.99 469.97 186.92 477.11 C 187.46 478.68 188.21 479.26 189.55 480.17 C 190.85 482.83 192.24 485.39 193.92 487.84 C 193.22 488.50 192.51 489.17 191.79 489.83 C 188.60 488.13 185.75 486.47 182.00 486.47 C 178.53 486.33 175.77 487.76 172.79 489.30 C 170.22 488.09 167.91 486.85 165.01 486.55 C 162.41 486.24 159.64 487.06 157.09 487.60 C 153.94 485.64 150.80 484.08 146.98 484.30 C 142.92 484.29 139.82 486.24 136.69 488.58 C 133.83 487.32 131.23 486.04 128.00 486.14 C 124.58 486.06 121.93 487.50 118.94 488.90 C 116.31 487.69 113.99 486.36 111.03 486.20 C 107.75 485.86 104.97 486.95 101.96 488.00 C 99.27 487.11 96.89 486.09 94.00 486.14 C 90.64 486.08 87.99 487.46 84.98 488.72 C 83.88 488.07 82.79 487.41 81.67 486.79 C 82.26 482.52 82.77 478.24 83.27 473.95 C 81.91 473.16 80.54 472.38 79.17 471.60 C 79.12 468.70 79.07 465.80 78.98 462.90 C 76.86 462.70 74.69 462.55 72.61 462.16 C 72.67 460.28 72.70 458.37 72.90 456.50 L 73.81 455.49 L 72.27 453.94 C 73.68 454.15 75.14 454.53 76.57 454.52 C 78.26 454.44 79.25 452.61 80.38 451.52 C 84.03 450.06 85.37 447.04 87.93 444.25 L 86.37 444.28 C 82.90 444.23 79.43 444.50 75.96 444.45 C 74.39 444.28 72.84 444.20 71.26 444.27 C 69.55 444.74 65.75 443.19 65.84 445.85 C 65.20 445.07 64.54 444.31 63.87 443.56 C 64.92 447.31 64.89 450.94 66.60 454.44 C 66.47 454.80 66.35 455.16 66.23 455.52 C 66.67 457.83 66.74 460.15 66.71 462.49 C 64.63 462.54 62.55 462.60 60.48 462.76 C 59.56 465.43 60.08 468.68 60.14 471.46 C 58.77 472.28 57.43 473.16 56.08 474.02 C 56.58 478.38 57.13 482.74 57.69 487.10 C 56.12 487.32 54.55 487.53 52.99 487.82 C 51.00 488.17 49.03 488.69 47.00 488.62 C 43.99 488.49 40.95 487.16 37.98 487.22 C 35.51 487.30 33.33 488.35 30.90 488.83 C 27.45 488.40 24.64 486.74 20.99 487.33 C 18.23 487.49 15.80 489.46 13.14 489.67 C 10.93 488.84 8.81 487.28 6.53 486.63 C 4.44 486.13 2.15 486.22 0.00 486.16 L 0.00 0.00 Z" fill="#abf5f5" />
<path d="M 477.88 36.12 C 479.17 36.13 480.45 36.15 481.74 36.16 C 481.73 37.59 481.71 39.02 481.70 40.45 C 480.47 40.47 479.24 40.49 478.01 40.52 C 477.96 39.05 477.92 37.59 477.88 36.12 Z" fill="#293835" />
<path d="M 436.04 37.97 C 437.26 37.96 438.48 37.96 439.70 37.95 C 440.86 45.93 441.68 53.97 443.07 61.90 C 444.57 53.95 445.71 45.93 447.12 37.95 C 448.05 37.96 448.99 37.98 449.92 37.99 C 451.16 45.80 452.53 53.59 453.55 61.43 C 455.60 53.85 455.92 45.74 457.22 37.99 C 458.45 37.98 459.67 37.96 460.89 37.95 C 459.31 48.71 457.69 59.47 456.05 70.23 C 454.79 70.21 453.52 70.19 452.26 70.17 C 450.98 62.66 450.06 55.06 448.39 47.63 C 447.03 55.11 445.90 62.63 444.67 70.13 C 443.41 70.17 442.14 70.22 440.88 70.26 C 439.24 59.50 437.62 48.74 436.04 37.97 Z" fill="#2d3637" />
<path d="M 556.25 37.96 C 558.76 37.96 561.40 37.81 563.87 38.27 C 566.19 38.76 567.75 40.51 568.28 42.79 C 569.05 46.88 569.16 51.01 565.32 53.56 C 567.14 54.71 568.61 55.69 569.05 57.97 C 569.65 61.15 569.65 65.78 567.34 68.33 C 564.84 71.05 559.61 70.05 556.26 70.19 C 556.22 59.45 556.26 48.70 556.25 37.96 Z" fill="#2e3536" />
<path d="M 491.83 38.93 C 491.91 41.08 491.98 43.22 492.06 45.37 C 493.13 45.37 494.19 45.38 495.26 45.39 L 495.18 48.15 C 494.10 48.18 493.02 48.20 491.94 48.23 C 492.03 54.76 491.71 61.32 492.19 67.83 C 493.27 67.75 494.35 67.66 495.42 67.57 L 495.60 70.20 C 493.90 70.79 492.28 71.31 490.57 70.42 C 488.78 69.35 488.54 66.91 488.46 65.02 C 488.39 59.52 488.44 54.01 488.50 48.51 C 487.69 48.27 486.89 48.02 486.08 47.78 C 486.10 47.01 486.12 46.23 486.13 45.46 C 486.97 45.37 487.80 45.27 488.64 45.17 C 489.43 43.06 488.62 38.83 491.83 38.93 Z" fill="#2d3536" />
<path d="M 503.63 38.96 C 503.68 41.08 503.70 43.19 503.72 45.31 C 504.81 45.34 505.90 45.37 506.99 45.40 C 506.97 46.32 506.96 47.24 506.95 48.16 C 505.87 48.18 504.79 48.20 503.71 48.21 C 503.79 54.77 503.40 61.37 503.97 67.90 C 505.03 67.78 506.08 67.65 507.13 67.53 L 507.41 70.10 C 505.58 70.88 503.65 71.41 501.90 70.12 C 500.16 68.71 500.27 66.04 500.18 64.01 C 500.16 58.76 500.22 53.51 500.17 48.25 L 497.87 48.11 C 497.90 47.26 497.93 46.41 497.96 45.56 C 502.90 46.03 499.01 38.85 503.63 38.96 Z" fill="#2c3637" />
<path d="M 559.96 40.81 C 560.98 40.85 562.00 40.89 563.03 40.93 C 566.05 42.58 565.41 47.08 564.90 49.91 C 564.13 52.55 562.24 52.30 559.94 52.52 C 559.93 48.62 559.93 44.72 559.96 40.81 Z" fill="#aef5f6" />
<path d="M 465.52 45.47 C 466.23 45.39 466.93 45.31 467.64 45.26 C 467.87 46.57 468.10 47.88 468.32 49.19 C 469.84 46.22 470.29 44.84 474.00 44.47 C 473.94 45.70 473.87 46.94 473.81 48.17 C 472.80 48.32 471.81 48.51 470.83 48.75 C 468.99 50.68 469.07 53.51 468.95 56.00 C 468.90 60.76 468.99 65.54 468.93 70.30 C 467.75 70.21 466.56 70.11 465.38 70.01 C 465.54 61.84 465.25 53.64 465.52 45.47 Z" fill="#2b3738" />
<path d="M 478.17 45.42 C 479.30 45.36 480.44 45.32 481.57 45.31 C 481.61 53.56 481.54 61.81 481.61 70.06 C 480.43 70.14 479.26 70.21 478.08 70.28 C 478.11 62.01 477.89 53.69 478.17 45.42 Z" fill="#2c3635" />
<path d="M 523.04 48.05 C 524.26 51.47 523.85 55.63 523.92 59.22 C 520.75 59.24 517.58 59.25 514.41 59.27 C 514.58 61.94 514.03 65.86 516.23 67.84 C 519.97 68.71 519.98 66.06 520.86 63.36 C 521.92 63.52 522.97 63.69 524.02 63.86 C 523.36 66.11 523.24 68.74 521.00 70.05 C 518.31 71.53 514.31 71.21 512.48 68.52 C 510.79 65.93 511.03 61.98 510.93 59.00 C 511.02 55.48 510.63 51.35 511.94 48.04 C 513.70 43.54 521.36 43.41 523.04 48.05 Z" fill="#2c3637" />
<path d="M 530.10 45.26 C 532.74 44.78 531.97 47.01 532.77 48.76 C 533.37 47.73 533.97 46.66 534.72 45.73 C 536.61 43.96 540.05 44.34 541.34 46.66 C 542.55 48.81 542.57 51.59 542.65 54.00 C 542.70 59.36 542.63 64.73 542.67 70.09 C 541.49 70.15 540.32 70.21 539.14 70.27 C 539.07 64.51 539.17 58.75 539.10 52.99 C 538.90 50.81 539.22 48.66 537.11 47.35 C 534.33 47.83 533.98 50.71 533.62 53.00 C 533.09 58.71 533.50 64.50 533.34 70.23 C 532.16 70.22 530.98 70.21 529.80 70.20 C 530.02 61.94 529.38 53.46 530.10 45.26 Z" fill="#2d3638" />
<path d="M 572.50 45.40 C 573.62 45.33 574.74 45.31 575.87 45.33 C 577.38 50.98 578.29 56.78 579.83 62.43 C 581.51 56.89 582.14 51.04 583.38 45.38 C 584.57 45.37 585.76 45.35 586.96 45.34 C 585.04 54.25 582.99 63.12 581.07 72.03 C 580.67 73.93 580.02 75.74 579.30 77.54 C 576.66 77.53 574.01 77.52 571.37 77.48 L 572.23 75.02 C 573.54 75.52 574.85 76.02 576.16 76.53 C 577.93 74.38 578.80 71.75 578.16 68.99 C 576.36 61.11 574.20 53.29 572.50 45.40 Z" fill="#2c3636" />
<path d="M 518.92 47.96 C 520.72 50.02 520.24 53.72 520.41 56.28 C 518.42 56.29 516.42 56.29 514.43 56.29 C 514.52 54.00 514.32 51.31 515.18 49.16 C 515.80 47.55 517.45 47.08 518.92 47.96 Z" fill="#aff6f7" />
<path d="M 646.00 51.89 C 671.41 51.97 696.83 51.89 722.24 51.93 L 722.30 53.00 C 695.49 52.93 668.61 53.19 641.81 52.87 C 642.65 51.46 644.61 52.05 646.00 51.89 Z" fill="#13423f" />
<path d="M 304.66 52.52 C 331.24 52.53 357.83 52.51 384.41 52.53 L 384.27 53.98 C 357.73 54.01 331.18 54.03 304.64 53.97 L 304.66 52.52 Z" fill="#426d6b" />
<path d="M 559.95 54.76 C 562.04 55.08 564.17 54.51 565.16 56.86 C 566.02 59.16 566.04 62.90 565.31 65.25 C 564.41 67.68 562.05 67.10 559.96 67.45 C 559.92 63.22 559.92 58.99 559.95 54.76 Z" fill="#aff5f4" />
<path d="M 335.31 98.47 C 345.55 98.28 355.83 98.48 366.08 98.39 C 366.15 101.63 366.17 104.86 366.14 108.10 C 363.20 108.11 360.26 108.12 357.32 108.12 C 357.30 124.58 357.25 141.04 357.35 157.51 C 352.95 157.71 348.55 157.62 344.15 157.64 C 344.13 141.13 344.18 124.63 344.13 108.12 C 341.17 108.11 338.20 108.11 335.24 108.10 C 335.25 104.90 335.09 101.67 335.31 98.47 Z" fill="#323333" />
<path d="M 372.32 98.47 C 376.21 98.27 380.12 98.47 384.02 98.40 C 384.13 105.23 384.09 112.08 384.03 118.92 C 387.81 115.86 391.95 113.77 396.95 114.99 C 401.16 116.59 402.22 120.91 402.21 125.00 C 402.19 135.88 402.29 146.77 402.14 157.66 C 398.22 157.62 394.30 157.63 390.38 157.62 C 390.38 148.08 390.36 138.54 390.41 129.00 C 390.44 127.02 390.17 125.08 389.79 123.14 C 387.68 123.02 386.07 123.41 384.14 124.21 C 383.97 135.35 384.17 146.49 384.04 157.64 C 380.11 157.62 376.18 157.63 372.25 157.65 C 372.27 137.96 372.11 118.15 372.32 98.47 Z" fill="#333333" />
<path d="M 489.28 98.47 C 491.79 98.29 494.33 98.41 496.85 98.42 C 496.23 103.77 495.58 109.11 494.97 114.46 C 496.25 114.47 497.53 114.47 498.80 114.47 C 498.76 116.99 498.70 119.50 498.62 122.01 C 496.96 122.06 495.30 122.10 493.63 122.14 C 493.34 124.91 493.01 127.67 492.63 130.43 C 494.58 130.53 496.52 130.60 498.47 130.64 C 498.40 133.06 498.32 135.48 498.24 137.90 C 496.02 137.93 493.81 137.99 491.60 138.10 C 490.89 144.61 490.01 151.10 489.28 157.61 C 486.73 157.62 484.19 157.63 481.65 157.62 C 482.43 151.06 483.23 144.50 483.97 137.94 C 482.08 137.95 480.18 137.95 478.28 137.96 C 477.48 144.51 476.73 151.07 475.93 157.63 C 473.40 157.63 470.88 157.63 468.36 157.63 C 469.07 151.07 469.88 144.52 470.59 137.96 C 469.26 137.95 467.93 137.93 466.59 137.92 C 466.66 135.48 466.72 133.04 466.79 130.61 C 468.40 130.59 470.01 130.58 471.62 130.57 C 471.98 127.74 472.33 124.91 472.64 122.07 C 470.72 122.08 468.81 122.10 466.89 122.11 C 466.92 119.58 466.95 117.05 466.98 114.52 C 469.30 114.50 471.62 114.49 473.93 114.49 C 474.62 109.15 475.18 103.79 475.79 98.44 C 478.37 98.41 480.96 98.40 483.54 98.40 C 482.93 103.76 482.26 109.12 481.65 114.48 C 483.55 114.48 485.45 114.48 487.35 114.49 C 488.06 109.16 488.40 103.77 489.28 98.47 Z" fill="#323333" />
<path d="M 523.00 97.58 C 526.80 97.55 531.16 98.16 533.85 101.15 C 536.88 104.84 537.94 109.75 538.02 114.44 C 534.33 114.87 530.64 115.33 526.95 115.74 C 526.59 113.30 526.82 109.79 525.17 107.79 C 523.33 106.72 521.02 106.99 520.07 109.08 C 518.30 113.47 520.55 117.32 523.77 120.22 C 528.87 125.12 534.63 128.64 537.67 135.32 C 540.14 141.18 540.08 148.67 535.60 153.58 C 530.47 159.49 520.35 159.77 513.86 156.19 C 508.01 152.62 507.21 146.00 506.64 139.78 C 510.36 139.14 514.09 138.60 517.82 138.04 C 518.15 140.87 518.07 144.72 519.88 147.07 C 521.37 148.93 524.79 149.27 525.95 146.90 C 527.16 143.38 525.98 139.21 523.50 136.49 C 518.62 130.90 510.98 127.03 508.04 119.92 C 506.02 114.64 506.29 107.50 509.97 102.97 C 513.21 99.00 518.04 97.68 523.00 97.58 Z" fill="#333333" />
<path d="M 547.41 98.48 C 551.75 98.26 556.11 98.43 560.45 98.48 C 560.42 106.46 560.34 114.45 560.50 122.43 C 563.50 122.39 566.51 122.38 569.51 122.40 C 569.62 114.42 569.57 106.44 569.54 98.46 C 573.93 98.37 578.31 98.40 582.70 98.40 C 582.74 118.15 582.75 137.89 582.70 157.63 C 578.31 157.62 573.92 157.66 569.53 157.57 C 569.52 148.95 569.73 140.30 569.43 131.69 C 566.41 131.71 563.39 131.73 560.36 131.88 C 560.50 140.43 560.34 148.99 560.45 157.54 C 556.08 157.68 551.71 157.64 547.34 157.62 C 547.39 137.95 547.25 118.13 547.41 98.48 Z" fill="#333333" />
<path d="M 593.36 98.46 C 597.69 98.27 602.06 98.41 606.39 98.48 C 606.32 118.16 606.31 137.85 606.40 157.53 C 602.03 157.70 597.66 157.62 593.29 157.63 C 593.31 137.95 593.16 118.14 593.36 98.46 Z" fill="#333333" />
<path d="M 636.01 98.39 C 640.56 98.37 645.07 99.25 648.23 102.79 C 651.80 106.84 652.38 112.84 652.07 118.01 C 651.69 122.52 650.61 126.95 646.55 129.55 C 641.30 132.97 635.64 132.29 629.71 132.62 C 629.80 140.95 629.75 149.28 629.75 157.62 C 625.37 157.62 621.00 157.72 616.63 157.51 C 616.71 137.84 616.69 118.17 616.64 98.50 C 623.09 98.31 629.55 98.44 636.01 98.39 Z" fill="#333333" />
<path d="M 660.07 98.46 C 664.35 98.26 668.65 98.47 672.94 98.40 C 673.01 115.18 672.87 131.97 673.01 148.76 C 677.48 148.76 681.95 148.82 686.43 148.69 C 686.63 151.67 686.64 154.64 686.57 157.62 C 677.71 157.65 668.85 157.61 659.99 157.64 C 659.78 139.76 659.98 121.88 659.88 104.00 C 659.89 102.16 659.86 100.29 660.07 98.46 Z" fill="#333333" />
<path d="M 629.76 107.58 C 632.31 107.77 637.03 106.93 638.67 109.35 C 640.32 112.55 640.20 117.60 639.01 120.94 C 637.77 124.21 632.49 123.13 629.76 123.34 C 629.74 118.09 629.76 112.83 629.76 107.58 Z" fill="#adf6f4" />
<path d="M 425.00 114.63 C 429.64 114.70 434.29 116.01 436.75 120.26 C 439.58 124.94 438.50 131.88 438.71 137.18 C 433.05 137.28 427.40 137.18 421.74 137.25 C 421.85 140.75 421.39 144.47 422.08 147.91 C 422.85 150.50 426.45 150.54 427.43 148.10 C 427.86 145.91 427.74 143.58 427.76 141.35 C 431.42 141.31 435.08 141.31 438.74 141.33 C 438.66 145.13 439.02 148.72 437.23 152.21 C 435.38 155.72 431.85 157.54 428.04 158.10 C 423.59 158.73 418.29 158.27 414.66 155.34 C 411.77 153.08 410.30 149.64 410.08 146.03 C 409.79 141.37 410.03 136.67 409.94 132.00 C 409.98 127.81 409.81 123.90 412.22 120.25 C 415.11 115.98 420.06 114.57 425.00 114.63 Z" fill="#323333" />
<path d="M 480.32 122.10 C 482.22 122.09 484.12 122.09 486.03 122.07 C 485.71 124.92 485.37 127.76 484.96 130.60 C 483.05 130.58 481.15 130.57 479.24 130.56 C 479.59 127.74 479.95 124.92 480.32 122.10 Z" fill="#b0f5f2" />
<path d="M 427.31 124.75 C 427.97 126.91 427.70 129.43 427.76 131.68 C 425.74 131.67 423.73 131.66 421.72 131.66 C 421.81 129.33 421.46 126.56 422.36 124.38 C 423.43 122.42 426.49 122.81 427.31 124.75 Z" fill="#b3f3f1" />
<path d="M 560.27 178.81 C 561.44 178.73 562.61 178.68 563.79 178.67 C 563.82 180.14 563.85 181.61 563.88 183.09 C 562.57 183.09 561.27 183.09 559.96 183.10 C 560.02 181.68 560.01 180.21 560.27 178.81 Z" fill="#29363c" />
<path d="M 440.96 181.03 C 442.92 182.43 443.06 185.08 443.68 187.21 C 442.57 187.50 441.46 187.78 440.35 188.06 C 439.96 186.70 439.72 185.20 439.07 183.93 C 437.73 182.32 435.44 182.61 434.46 184.42 C 433.24 187.26 433.71 190.95 433.61 194.00 C 433.78 198.61 433.24 203.41 434.02 207.95 C 434.58 210.31 436.80 211.20 438.89 209.99 C 440.06 208.58 440.26 206.34 440.75 204.62 C 441.79 204.82 442.82 205.03 443.86 205.23 C 443.24 207.82 442.99 210.93 440.59 212.57 C 437.70 214.34 433.14 213.71 431.38 210.61 C 430.00 208.14 430.02 204.76 429.96 202.00 C 430.01 197.33 429.82 192.64 430.09 187.97 C 430.30 185.38 430.78 182.65 433.00 181.01 C 435.17 179.49 438.79 179.55 440.96 181.03 Z" fill="#2d3636" />
<path d="M 572.02 181.99 L 574.05 181.77 C 574.10 183.79 574.09 185.82 574.07 187.84 C 575.18 187.96 576.30 188.08 577.41 188.20 C 577.40 189.05 577.38 189.90 577.37 190.74 C 576.28 190.78 575.19 190.83 574.10 190.87 C 574.32 197.42 573.50 204.22 574.61 210.68 C 575.60 210.53 576.59 210.39 577.58 210.24 C 577.66 211.16 577.75 212.08 577.84 213.00 C 575.96 213.23 573.91 214.08 572.26 212.74 C 570.68 211.29 570.66 209.00 570.57 207.01 C 570.54 201.69 570.59 196.38 570.60 191.06 C 569.80 190.91 569.01 190.75 568.21 190.59 C 568.21 189.80 568.21 189.01 568.21 188.22 C 569.08 188.07 569.95 187.91 570.82 187.76 C 571.17 185.84 571.45 183.85 572.02 181.99 Z" fill="#2e3536" />
<path d="M 474.10 187.28 C 476.86 187.10 477.54 188.85 478.81 190.87 C 480.25 188.80 481.06 186.92 484.05 187.34 C 487.29 187.71 487.95 191.32 488.17 193.99 C 488.48 200.26 488.26 206.58 488.28 212.86 C 487.11 212.85 485.94 212.85 484.77 212.84 C 484.47 205.91 485.35 198.59 484.26 191.77 C 483.48 189.11 481.05 190.03 480.35 192.18 C 478.48 198.65 479.68 206.13 479.32 212.84 C 478.14 212.84 476.96 212.84 475.78 212.85 C 475.51 205.90 476.35 198.60 475.30 191.76 C 474.38 189.02 472.06 190.11 471.31 192.29 C 469.52 198.75 470.68 206.17 470.31 212.86 C 469.14 212.86 467.98 212.85 466.81 212.84 C 466.78 204.48 466.77 196.11 466.82 187.74 C 469.54 187.96 468.96 188.88 469.76 191.03 C 471.01 189.27 471.61 187.40 474.10 187.28 Z" fill="#2f3536" />
<path d="M 502.00 187.26 C 504.67 187.24 505.57 188.85 506.47 191.08 C 507.88 188.90 508.82 186.96 511.84 187.32 C 515.02 187.76 515.75 191.31 515.96 193.97 C 516.26 200.24 516.02 206.55 516.09 212.83 C 514.91 212.84 513.73 212.85 512.56 212.86 C 512.46 206.89 512.62 200.93 512.49 194.96 C 512.36 193.32 512.41 191.10 510.80 190.12 C 508.52 190.01 507.96 192.40 507.57 194.16 C 506.69 200.29 507.26 206.65 507.10 212.83 C 505.93 212.84 504.75 212.85 503.57 212.87 C 503.47 206.58 503.71 200.27 503.46 193.99 C 503.24 192.33 503.23 190.24 501.09 190.07 C 498.86 190.99 498.61 193.90 498.33 195.98 C 497.89 201.57 498.21 207.22 498.11 212.83 C 496.93 212.84 495.76 212.84 494.59 212.85 C 494.58 204.47 494.52 196.09 494.62 187.71 C 497.61 188.15 496.78 188.88 497.39 191.36 C 498.65 189.40 499.30 187.40 502.00 187.26 Z" fill="#2f3535" />
<path d="M 549.00 187.27 C 552.26 187.27 553.42 190.20 553.72 192.97 C 554.23 199.57 553.85 206.27 553.92 212.89 C 552.74 212.86 551.56 212.82 550.38 212.79 C 550.33 206.52 550.58 200.23 550.29 193.97 C 550.06 192.20 549.81 189.56 547.30 190.29 C 545.51 191.18 545.11 194.23 544.87 195.98 C 544.39 201.57 544.76 207.23 544.64 212.84 C 543.46 212.84 542.29 212.85 541.12 212.85 C 541.09 204.49 541.06 196.11 541.14 187.75 C 544.03 187.94 543.33 189.11 544.09 191.40 C 545.28 189.20 546.14 187.27 549.00 187.27 Z" fill="#2c3636" />
<path d="M 451.12 188.09 C 453.96 186.52 458.23 187.14 459.76 190.27 C 461.13 193.10 460.83 196.91 460.92 200.00 C 460.83 203.37 461.23 207.59 459.70 210.68 C 457.50 214.75 450.63 214.50 448.87 210.13 C 447.48 206.09 448.04 201.24 447.94 197.00 C 448.08 193.92 448.06 189.85 451.12 188.09 Z" fill="#2c3636" />
<path d="M 522.07 187.94 C 523.23 187.99 524.39 188.04 525.54 188.09 C 525.57 194.40 525.44 200.72 525.57 207.03 C 525.65 208.61 525.94 210.74 527.99 210.63 C 530.04 210.75 530.77 208.72 530.92 207.03 C 531.24 200.69 530.93 194.30 531.06 187.95 C 532.22 187.99 533.38 188.04 534.54 188.08 C 534.48 196.37 534.52 204.66 534.51 212.95 C 531.84 212.84 532.49 212.79 531.83 210.20 C 530.44 211.95 529.58 213.64 527.00 213.55 C 524.14 213.53 522.50 211.76 522.25 209.01 C 521.79 202.02 522.16 194.94 522.07 187.94 Z" fill="#2a3637" />
<path d="M 560.19 187.99 C 561.37 187.99 562.54 187.99 563.72 187.99 C 563.72 196.27 563.69 204.54 563.73 212.81 C 562.54 212.83 561.36 212.85 560.18 212.87 C 560.17 204.57 560.15 196.28 560.19 187.99 Z" fill="#2d3635" />
<path d="M 579.87 187.88 C 581.06 187.96 582.24 188.06 583.42 188.17 C 584.78 193.96 585.84 199.89 587.39 205.65 C 588.76 199.91 589.30 193.60 591.06 188.04 C 592.17 187.96 593.29 187.90 594.40 187.88 C 592.42 196.98 590.34 206.06 588.38 215.17 C 587.74 217.72 587.27 220.41 584.56 221.55 C 582.19 222.39 580.69 221.10 578.74 220.01 C 579.13 219.20 579.51 218.39 579.89 217.58 C 581.05 217.93 583.31 219.69 584.29 218.30 C 585.75 216.21 586.10 213.27 585.42 210.83 C 583.78 204.16 582.13 197.49 580.54 190.81 C 580.31 189.84 580.09 188.86 579.87 187.88 Z" fill="#2d3636" />
<path d="M 453.35 190.32 C 455.56 189.70 456.61 190.96 457.05 192.98 C 457.60 197.26 457.38 201.71 457.27 206.02 C 457.16 207.91 456.65 210.92 454.13 210.69 C 452.27 210.49 451.83 208.38 451.60 206.85 C 451.31 203.24 451.42 199.58 451.46 195.96 C 451.58 193.91 451.56 191.71 453.35 190.32 Z" fill="#aff5f3" />
<path d="M 303.75 195.00 C 330.61 195.00 357.47 194.97 384.33 195.02 C 384.12 196.37 383.34 196.93 382.01 196.69 C 356.10 196.65 330.12 196.73 304.21 196.65 L 303.75 195.00 Z" fill="#5b918f" />
<path d="M 641.49 195.04 C 668.44 194.97 695.41 194.97 722.37 195.04 C 722.06 196.34 721.28 196.89 720.01 196.68 C 694.68 196.69 669.33 196.66 643.99 196.70 C 642.64 196.93 641.81 196.37 641.49 195.04 Z" fill="#5b918f" />
<path d="M 921.06 269.35 C 924.36 269.40 924.69 272.38 924.69 274.98 C 924.56 277.23 925.20 280.59 922.92 281.94 C 920.16 283.48 917.25 283.42 914.19 283.52 C 911.77 283.56 909.34 283.55 906.92 283.67 C 900.47 284.42 894.03 284.33 887.57 284.67 C 889.03 284.96 890.49 285.22 891.96 285.48 C 885.14 284.97 878.22 285.58 871.34 285.62 C 868.93 285.68 866.52 285.90 864.11 286.13 C 859.68 286.19 854.43 287.29 850.27 285.55 C 850.30 283.90 850.32 282.25 850.34 280.61 C 857.00 278.13 864.08 276.72 870.97 275.01 C 887.69 271.48 903.87 268.49 921.06 269.35 Z" fill="#fc9804" />
<path d="M 914.19 283.52 C 914.23 289.25 914.10 294.99 914.28 300.72 C 911.85 301.09 909.42 301.25 906.97 301.33 C 907.11 295.45 907.14 289.55 906.92 283.67 C 909.34 283.55 911.77 283.56 914.19 283.52 Z" fill="#455b62" />
<path d="M 887.57 284.67 C 894.03 284.33 900.47 284.42 906.92 283.67 C 907.14 289.55 907.11 295.45 906.97 301.33 C 909.42 301.25 911.85 301.09 914.28 300.72 L 914.27 301.27 C 912.06 301.30 909.86 301.35 907.66 301.41 C 906.18 306.04 902.91 308.59 898.41 310.08 C 891.44 312.33 882.98 312.50 876.29 309.24 C 873.88 308.04 871.81 306.48 871.27 303.68 C 871.33 297.66 871.29 291.64 871.34 285.62 C 878.22 285.58 885.14 284.97 891.96 285.48 C 890.49 285.22 889.03 284.96 887.57 284.67 Z" fill="#acf6f5" />
<path d="M 864.11 286.13 C 866.52 285.90 868.93 285.68 871.34 285.62 C 871.29 291.64 871.33 297.66 871.27 303.68 C 868.86 303.95 866.49 304.19 864.12 304.69 C 864.18 298.51 864.20 292.32 864.11 286.13 Z" fill="#435c63" />
<path d="M 793.19 290.34 C 797.83 290.34 802.48 290.23 807.12 290.33 C 810.17 290.05 812.96 293.10 814.76 295.24 C 818.20 299.86 821.26 305.18 823.02 310.67 C 821.54 312.60 819.51 312.76 817.33 313.45 C 812.09 314.87 806.48 316.82 802.10 320.11 C 799.99 321.69 800.56 324.04 800.45 326.36 C 798.81 320.26 797.89 313.89 796.39 307.74 C 795.39 301.87 793.49 296.33 793.19 290.34 Z" fill="#fd9802" />
<path d="M 726.49 292.34 C 745.53 292.13 764.72 292.27 783.77 292.33 C 779.06 300.60 774.29 308.83 769.53 317.06 C 773.44 324.65 777.56 332.20 781.80 339.62 C 778.53 339.71 775.27 339.65 772.00 339.56 C 767.96 339.43 764.03 340.18 760.00 340.17 C 752.81 340.15 745.60 340.08 738.41 340.21 C 738.41 344.91 738.45 349.61 738.37 354.32 C 676.03 354.33 613.68 354.27 551.34 354.35 C 551.19 356.27 551.04 358.19 550.89 360.12 C 543.27 360.43 535.63 360.16 528.00 360.24 C 522.35 360.13 516.60 360.57 511.01 359.90 C 505.96 359.28 501.07 359.70 495.98 359.54 C 500.06 351.17 505.44 343.44 509.62 335.12 C 505.78 328.67 502.28 322.01 498.50 315.52 C 497.40 313.69 496.54 311.78 495.80 309.78 C 511.57 309.16 527.29 310.97 543.03 310.36 C 543.16 306.28 543.17 302.21 543.14 298.13 C 554.07 297.68 565.05 297.99 576.00 297.93 C 584.68 298.38 593.32 297.78 602.00 297.91 C 643.41 297.89 684.82 297.95 726.22 297.88 C 726.28 296.04 726.29 294.17 726.49 292.34 Z" fill="#65ca85" />
<path d="M 949.83 297.02 C 949.24 304.44 948.03 311.86 947.17 319.27 C 946.28 318.28 945.61 317.27 945.07 316.06 C 944.46 309.69 943.31 303.33 942.88 296.95 C 943.25 292.74 949.53 292.80 949.83 297.02 Z" fill="#435c64" />
<path d="M 914.28 300.72 C 921.37 300.50 930.89 299.58 937.14 303.45 C 934.19 302.93 931.23 302.54 928.23 302.46 C 923.56 302.41 918.90 302.33 914.23 302.62 L 914.27 301.27 L 914.28 300.72 Z" fill="#dec44c" />
<path d="M 914.27 301.27 L 914.23 302.62 C 913.56 309.18 908.81 313.57 903.01 316.01 C 894.97 319.36 884.30 319.76 876.03 316.99 C 870.60 315.16 866.55 311.92 864.49 306.45 C 860.28 306.31 856.05 306.37 851.83 306.42 C 855.95 305.80 860.08 305.66 864.12 304.69 C 866.49 304.19 868.86 303.95 871.27 303.68 C 871.81 306.48 873.88 308.04 876.29 309.24 C 882.98 312.50 891.44 312.33 898.41 310.08 C 902.91 308.59 906.18 306.04 907.66 301.41 C 909.86 301.35 912.06 301.30 914.27 301.27 Z" fill="#fc9802" />
<path d="M 582.18 303.11 L 582.91 302.72 L 583.64 303.12 L 583.64 303.93 L 582.91 304.33 L 582.18 303.92 L 582.18 303.11 Z" fill="#b0ffcd" />
<path d="M 914.23 302.62 C 918.90 302.33 923.56 302.41 928.23 302.46 C 928.80 317.22 927.90 332.05 928.72 346.80 L 928.44 347.47 C 918.43 347.49 908.43 347.60 898.41 347.41 C 893.70 347.22 889.15 346.04 884.38 346.10 C 881.61 345.63 878.84 345.42 876.04 345.22 C 870.88 343.95 865.34 344.08 860.07 343.20 C 854.83 341.98 849.36 342.02 844.10 340.78 C 832.53 338.60 821.55 336.74 810.43 332.64 C 806.95 331.14 802.76 329.49 800.45 326.36 C 800.56 324.04 799.99 321.69 802.10 320.11 C 806.48 316.82 812.09 314.87 817.33 313.45 C 819.51 312.76 821.54 312.60 823.02 310.67 C 830.09 311.01 836.07 308.77 842.95 307.83 C 845.93 307.42 848.83 306.70 851.83 306.42 C 856.05 306.37 860.28 306.31 864.49 306.45 C 866.55 311.92 870.60 315.16 876.03 316.99 C 884.30 319.76 894.97 319.36 903.01 316.01 C 908.81 313.57 913.56 309.18 914.23 302.62 Z" fill="#fdc109" />
<path d="M 928.23 302.46 C 931.23 302.54 934.19 302.93 937.14 303.45 C 939.42 304.92 941.51 307.25 942.20 309.93 C 942.73 312.92 942.60 316.07 942.59 319.10 C 942.54 322.58 942.53 326.07 942.58 329.55 C 942.45 334.09 943.35 338.40 940.17 342.13 C 937.22 345.87 933.24 346.63 928.72 346.80 C 927.90 332.05 928.80 317.22 928.23 302.46 Z" fill="#fc9803" />
<path d="M 646.35 306.79 C 647.38 308.51 648.38 310.25 649.36 312.00 C 650.14 310.28 651.01 308.71 652.08 307.15 C 653.03 309.97 653.47 312.64 653.55 315.62 C 652.42 314.82 651.74 313.51 651.50 311.70 C 650.72 312.91 649.93 314.10 649.14 315.30 C 648.55 314.24 647.93 313.20 647.29 312.18 C 646.33 313.26 646.03 314.74 644.76 315.62 C 645.02 312.63 645.62 309.70 646.35 306.79 Z" fill="#c7f8d9" />
<path d="M 660.22 307.21 L 660.80 307.25 C 662.36 309.70 663.34 312.69 664.29 315.42 C 663.16 314.71 662.04 313.95 660.84 313.36 C 659.33 313.47 657.88 314.66 656.55 315.30 C 657.58 312.50 658.53 309.71 660.22 307.21 Z" fill="#c7f9da" />
<path d="M 667.73 306.74 C 669.48 307.03 671.44 306.94 672.87 308.12 C 674.35 309.61 674.72 312.56 673.03 314.03 C 671.50 315.76 669.73 315.24 667.66 315.43 C 667.57 312.52 667.59 309.64 667.73 306.74 Z" fill="#c5fcda" />
<path d="M 677.29 307.13 C 679.03 306.80 680.75 306.93 682.51 307.02 C 681.39 308.09 680.18 308.88 678.81 309.58 C 679.99 309.82 681.18 310.07 682.36 310.33 C 681.24 311.18 680.08 311.99 679.05 312.95 C 678.92 314.05 682.10 313.87 682.39 315.40 C 680.63 315.45 678.88 315.39 677.13 315.24 C 677.13 312.54 677.03 309.81 677.29 307.13 Z" fill="#b4f2cb" />
<path d="M 690.16 306.91 C 692.44 306.95 692.65 310.23 693.54 311.86 C 694.21 310.25 694.90 308.63 695.58 307.03 C 696.41 308.40 697.23 309.77 698.04 311.15 C 698.96 309.42 699.80 307.79 701.41 306.59 C 700.77 309.88 699.74 312.54 698.01 315.41 C 697.21 314.02 696.44 312.62 695.68 311.20 C 695.06 312.64 694.43 314.06 693.77 315.48 C 692.07 312.84 690.96 309.93 690.16 306.91 Z" fill="#bff7d5" />
<path d="M 705.98 306.53 C 706.24 309.62 706.24 312.62 705.94 315.71 C 704.11 314.49 704.55 312.93 704.44 311.00 C 704.61 309.12 704.04 307.57 705.98 306.53 Z" fill="#aae3c2" />
<path d="M 709.03 306.95 C 710.73 306.94 712.43 306.92 714.13 306.88 C 712.42 309.48 713.56 313.94 711.12 315.63 C 710.94 312.38 711.05 309.67 709.03 306.95 Z" fill="#aff1c7" />
<path d="M 717.44 307.55 L 718.64 306.76 C 718.89 307.82 719.14 308.87 719.39 309.92 C 720.14 309.94 720.90 309.96 721.65 309.98 C 721.86 308.88 722.07 307.79 722.28 306.69 L 723.60 307.47 C 724.10 310.29 724.09 313.37 723.06 316.07 C 722.32 314.82 721.81 313.45 721.51 311.97 C 720.86 311.98 720.21 311.99 719.56 312.00 C 719.09 313.35 718.56 314.66 717.97 315.93 C 716.93 313.31 716.92 310.29 717.44 307.55 Z" fill="#b0f0c7" />
<path d="M 577.23 308.24 C 577.76 308.77 577.76 308.77 577.23 308.24 Z" fill="#9efdbb" />
<path d="M 669.22 308.07 C 671.00 308.61 673.05 309.38 672.64 311.66 C 672.10 313.66 670.78 313.87 668.97 314.24 C 668.99 312.18 669.01 310.13 669.22 308.07 Z" fill="#7fc698" />
<path d="M 660.09 310.38 L 660.89 310.38 L 661.27 311.13 L 660.87 311.87 L 660.08 311.87 L 659.69 311.12 L 660.09 310.38 Z" fill="#8cbda1" />
<path d="M 563.84 311.89 C 563.98 313.22 564.11 314.54 564.25 315.87 C 565.05 315.72 565.85 315.58 566.65 315.43 C 566.87 314.21 567.09 312.98 567.32 311.76 C 569.28 312.21 568.81 313.54 569.39 315.13 C 574.52 315.95 577.41 317.29 581.06 321.01 C 579.86 322.17 578.66 323.32 577.42 324.44 L 575.68 326.01 C 574.82 326.76 573.98 327.52 573.14 328.29 C 573.26 330.34 573.14 332.23 572.76 334.25 C 573.72 335.01 574.68 335.76 575.65 336.50 C 576.38 337.04 577.12 337.59 577.85 338.13 C 578.83 338.87 579.80 339.62 580.77 340.36 C 580.81 342.70 580.85 345.03 580.88 347.36 C 575.93 347.31 570.89 347.68 565.96 347.15 C 557.43 345.93 551.29 337.48 552.65 328.98 C 553.41 323.39 556.98 319.35 561.73 316.60 C 562.24 314.64 561.03 311.97 563.84 311.89 Z" fill="#0b0a31" />
<path d="M 582.14 313.10 C 583.91 311.91 585.08 314.70 582.99 315.12 C 581.86 314.79 581.58 314.12 582.14 313.10 Z" fill="#aff9c6" />
<path d="M 275.22 315.55 C 275.85 317.07 276.75 318.24 276.21 319.98 C 275.11 321.76 273.61 323.31 272.58 325.13 C 271.85 327.97 272.39 331.24 272.38 334.17 C 272.12 331.46 271.98 328.75 271.84 326.03 C 271.81 328.78 271.38 331.75 271.79 334.46 C 273.24 336.66 275.39 338.31 276.45 340.90 C 276.28 342.15 275.89 343.38 275.27 344.57 C 273.82 344.62 272.41 344.51 271.03 344.23 C 269.19 342.62 267.62 340.86 267.18 338.36 C 267.05 338.82 266.91 339.28 266.77 339.74 C 264.51 331.99 263.79 323.18 269.92 316.96 C 271.46 315.03 273.04 315.57 275.22 315.55 Z" fill="#ef8b03" />
<path d="M 945.07 316.06 C 945.61 317.27 946.28 318.28 947.17 319.27 C 948.45 320.81 949.95 321.79 949.91 324.00 C 950.04 326.53 948.31 327.80 946.84 329.56 L 945.99 329.57 C 944.85 329.57 943.72 329.57 942.58 329.55 C 942.53 326.07 942.54 322.58 942.59 319.10 L 945.12 318.50 C 945.13 317.69 945.11 316.87 945.07 316.06 Z" fill="#637e85" />
<path d="M 576.80 320.90 C 574.73 322.79 572.68 324.72 570.62 326.64 C 568.50 326.71 566.68 326.38 565.07 328.08 C 562.94 330.34 563.60 334.18 566.40 335.53 C 568.58 336.12 570.58 336.05 572.33 337.68 C 574.47 339.70 578.53 340.98 578.10 344.42 C 574.07 344.38 569.94 344.72 565.95 344.18 C 559.43 342.92 554.73 336.60 555.49 329.98 C 555.87 325.62 558.37 322.49 561.76 319.96 C 562.10 321.47 561.33 324.89 562.99 325.54 C 564.90 324.88 563.82 320.54 564.11 318.86 C 569.33 317.60 572.27 318.18 576.80 320.90 Z" fill="#fefefe" />
<path d="M 244.35 320.88 C 244.83 324.10 242.04 326.62 242.34 330.00 C 242.14 336.16 246.04 339.56 250.49 342.98 C 250.20 344.50 249.78 345.95 249.25 347.40 C 248.11 347.49 246.97 347.59 245.83 347.69 C 243.24 345.99 240.80 344.34 239.03 341.72 C 234.42 335.23 234.18 326.08 238.78 319.52 C 240.74 319.49 243.43 318.51 244.35 320.88 Z" fill="#ed8b05" />
<path d="M 307.20 320.51 C 307.64 321.76 308.08 323.00 308.53 324.24 C 306.29 327.01 302.96 328.81 301.47 331.93 C 300.04 334.32 300.13 337.45 300.47 340.12 C 301.14 342.51 302.38 344.51 302.34 347.10 C 301.61 347.63 300.88 348.16 300.15 348.69 C 299.02 348.62 297.89 348.55 296.77 348.48 C 293.10 343.65 292.77 337.76 293.96 332.00 C 295.20 327.42 298.39 323.86 302.08 321.03 C 303.40 319.85 305.57 320.47 307.20 320.51 Z" fill="#eb8c09" />
<path d="M 577.42 324.44 C 578.22 326.25 579.28 328.18 579.55 330.15 C 579.83 332.84 578.64 335.59 577.85 338.13 C 577.12 337.59 576.38 337.04 575.65 336.50 C 576.27 334.78 577.31 332.84 577.24 330.98 C 576.98 329.30 576.26 327.61 575.68 326.01 L 577.42 324.44 Z" fill="#ebfff7" />
<path d="M 575.68 326.01 C 576.26 327.61 576.98 329.30 577.24 330.98 C 577.31 332.84 576.27 334.78 575.65 336.50 C 574.68 335.76 573.72 335.01 572.76 334.25 C 573.14 332.23 573.26 330.34 573.14 328.29 C 573.98 327.52 574.82 326.76 575.68 326.01 Z" fill="#6ac68e" />
<path d="M 675.26 327.30 C 679.00 325.52 683.70 326.43 686.25 329.77 C 689.32 333.34 688.78 339.16 685.08 342.10 C 680.68 345.97 673.25 344.37 670.96 338.96 C 669.02 334.52 670.93 329.42 675.26 327.30 Z" fill="#030f2a" />
<path d="M 568.35 329.23 C 570.71 329.70 570.61 331.13 570.18 333.11 C 569.06 333.10 567.93 333.09 566.81 333.08 C 566.85 331.37 566.26 329.95 568.35 329.23 Z" fill="#bab4c9" />
<path d="M 602.99 329.14 C 605.96 328.94 607.85 330.52 610.11 332.13 C 609.70 332.88 609.28 333.62 608.87 334.37 C 607.07 333.23 605.24 331.45 602.99 331.61 C 599.61 331.68 596.70 334.58 596.81 338.00 C 596.61 342.11 601.04 345.66 604.97 344.10 C 606.80 343.35 607.40 341.85 608.34 340.26 C 606.85 340.21 605.36 340.16 603.86 340.12 L 603.80 337.67 C 606.24 337.67 608.68 337.67 611.12 337.69 C 611.08 342.24 608.90 346.35 604.02 346.89 C 598.79 347.70 593.94 343.23 594.15 337.99 C 594.02 333.23 598.22 329.00 602.99 329.14 Z" fill="#040f2a" />
<path d="M 620.21 329.49 C 621.04 329.41 621.86 329.35 622.68 329.30 C 622.75 335.10 622.72 340.90 622.71 346.69 C 621.85 346.71 620.99 346.72 620.13 346.74 C 620.13 341.00 619.88 335.22 620.21 329.49 Z" fill="#050f2b" />
<path d="M 631.19 329.50 C 634.58 329.30 638.00 329.48 641.40 329.44 C 641.43 330.22 641.46 330.99 641.50 331.77 C 640.14 331.89 638.78 332.02 637.42 332.15 C 637.47 336.94 637.39 341.72 637.54 346.51 C 636.67 346.59 635.81 346.66 634.94 346.72 C 635.01 341.78 635.03 336.84 634.95 331.90 L 633.23 331.92 L 630.75 331.87 C 630.88 331.08 631.02 330.28 631.19 329.50 Z" fill="#031127" />
<path d="M 661.67 330.15 C 661.72 331.11 661.78 332.08 661.83 333.04 C 658.94 332.02 656.54 330.69 653.62 332.65 C 649.66 335.28 649.91 341.61 654.19 343.80 C 657.05 345.28 659.18 343.97 661.82 342.90 C 661.77 343.91 661.72 344.92 661.67 345.93 C 658.02 347.27 654.27 347.55 651.16 344.83 C 646.81 341.17 647.26 334.09 651.83 330.81 C 654.87 328.54 658.30 328.88 661.67 330.15 Z" fill="#021029" />
<path d="M 677.16 329.23 C 679.68 328.45 682.20 329.04 683.97 331.02 C 686.72 334.15 685.79 339.29 681.99 341.09 C 678.43 342.89 674.04 340.76 673.08 336.95 C 672.20 333.73 674.05 330.34 677.16 329.23 Z" fill="#67c987" />
<path d="M 708.46 328.59 C 712.92 332.48 716.68 337.12 720.94 341.23 C 720.91 337.25 720.88 333.28 721.09 329.30 C 721.92 329.35 722.74 329.40 723.57 329.45 C 723.54 335.43 723.64 341.42 723.52 347.40 C 719.11 343.47 715.28 338.91 711.06 334.77 C 711.08 338.78 711.11 342.79 710.90 346.79 C 710.07 346.75 709.24 346.70 708.41 346.65 C 708.43 340.63 708.36 334.61 708.46 328.59 Z" fill="#021327" />
<path d="M 695.84 329.66 L 698.48 329.32 C 698.47 335.14 698.46 340.96 698.49 346.78 L 695.83 346.42 C 695.72 340.87 695.70 335.21 695.84 329.66 Z" fill="#040f2c" />
<path d="M 945.99 329.57 L 946.84 329.56 C 947.71 337.22 948.72 344.87 949.70 352.52 C 949.84 354.46 950.25 356.10 948.46 357.43 C 945.93 359.25 942.34 357.18 942.89 354.04 C 943.84 345.88 944.81 337.70 945.99 329.57 Z" fill="#425c65" />
<path d="M 211.00 330.50 C 212.51 330.22 213.42 331.76 214.54 332.56 C 214.35 335.66 213.94 339.05 214.60 342.10 C 215.48 344.64 217.43 346.87 219.50 348.53 C 221.27 349.86 223.82 350.20 225.46 351.68 C 225.92 353.14 225.55 354.92 225.45 356.43 C 218.38 358.08 212.88 353.13 209.44 347.55 C 206.67 343.01 207.26 337.72 207.64 332.63 C 208.64 331.79 209.56 330.28 211.00 330.50 Z" fill="#ec8b07" />
<path d="M 633.23 331.92 L 634.95 331.90 C 635.03 336.84 635.01 341.78 634.94 346.72 L 634.36 346.47 C 633.43 341.64 634.24 336.77 633.23 331.92 Z" fill="#6a9f90" />
<path d="M 336.14 333.46 C 338.22 334.61 338.14 338.02 336.05 339.11 C 333.36 340.51 330.63 341.80 328.06 343.42 C 328.63 343.41 329.19 343.40 329.76 343.39 C 325.80 345.99 325.38 350.70 326.12 355.01 C 326.64 357.03 325.19 358.16 324.28 359.76 C 322.02 359.34 320.62 359.56 319.60 357.20 C 319.04 353.56 319.03 349.52 319.73 345.90 C 321.11 341.26 324.77 337.32 328.81 334.79 C 331.02 333.34 333.57 333.02 336.14 333.46 Z" fill="#ef8a03" />
<path d="M 884.38 346.10 C 889.15 346.04 893.70 347.22 898.41 347.41 C 898.61 349.75 898.80 352.08 899.00 354.42 C 895.74 355.26 893.53 356.46 891.16 358.83 C 888.91 354.53 886.31 350.54 884.38 346.10 Z" fill="#749399" />
<path d="M 182.36 350.30 C 184.33 350.26 186.27 350.30 188.24 350.46 C 188.54 355.48 189.60 360.04 193.87 363.16 C 197.17 366.00 200.60 365.21 204.47 366.72 C 204.55 368.17 204.48 369.61 204.28 371.02 C 202.77 373.05 200.17 372.50 197.97 372.36 C 191.56 371.33 185.91 366.55 183.28 360.71 C 181.71 357.35 182.20 353.87 182.36 350.30 Z" fill="#ed8b05" />
<path d="M 269.00 352.30 C 289.27 351.53 309.84 358.82 325.84 371.15 C 334.66 378.49 343.34 387.56 348.57 397.87 L 348.34 400.52 C 344.30 396.94 341.10 392.57 336.84 389.18 C 323.98 378.58 306.64 372.87 290.33 370.52 C 278.98 369.17 267.40 369.25 256.00 369.93 C 240.51 371.56 225.15 375.51 211.84 383.83 C 206.60 386.61 203.13 390.96 198.66 394.69 C 195.54 397.33 193.52 400.58 191.15 403.85 L 190.51 401.87 C 204.60 372.42 236.33 352.28 269.00 352.30 Z" fill="#fdb134" />
<path d="M 360.07 353.31 C 362.77 353.16 362.47 356.44 362.71 358.27 C 359.67 360.88 355.89 359.55 352.76 361.70 C 350.39 363.23 348.45 365.30 347.57 368.01 C 346.79 370.57 346.45 373.20 345.45 375.70 C 343.87 375.64 342.28 375.58 340.70 375.52 C 339.29 371.60 339.60 369.00 341.20 365.23 C 344.10 357.68 351.89 352.40 360.07 353.31 Z" fill="#ed8b06" />
<path d="M 899.00 354.42 C 903.22 354.55 907.01 356.11 909.17 359.89 C 912.09 364.85 910.41 371.52 905.43 374.43 C 900.53 377.44 893.99 375.88 890.91 371.06 C 888.39 367.20 888.81 362.66 891.16 358.83 C 893.53 356.46 895.74 355.26 899.00 354.42 Z" fill="#445b64" />
<path d="M 898.17 362.15 C 900.51 360.92 903.22 362.32 903.45 364.99 C 903.69 367.55 900.88 369.68 898.50 368.52 C 895.84 367.27 895.54 363.62 898.17 362.15 Z" fill="#afbfc7" />
<path d="M 256.00 369.93 C 267.40 369.25 278.98 369.17 290.33 370.52 C 306.64 372.87 323.98 378.58 336.84 389.18 C 341.10 392.57 344.30 396.94 348.34 400.52 L 348.57 397.87 C 353.11 406.72 357.00 415.67 358.69 425.55 C 360.11 431.03 359.68 436.37 359.37 441.94 C 354.58 441.70 349.79 441.82 345.00 441.83 C 296.35 441.84 247.65 441.85 199.00 441.82 C 193.56 441.81 188.12 441.75 182.67 441.94 C 182.45 436.44 183.30 431.12 182.47 425.70 C 184.03 417.38 186.96 409.53 190.51 401.87 L 191.15 403.85 C 193.52 400.58 195.54 397.33 198.66 394.69 C 203.13 390.96 206.60 386.61 211.84 383.83 C 225.15 375.51 240.51 371.56 256.00 369.93 Z" fill="#f59c00" />
<path d="M 164.94 374.26 C 169.71 375.90 168.73 381.23 173.00 383.97 C 177.55 387.67 181.95 386.07 187.30 386.47 C 187.98 388.73 189.28 390.13 187.17 392.13 C 181.93 395.22 175.62 393.09 170.37 391.15 C 170.78 391.06 171.18 390.96 171.59 390.87 C 166.66 389.47 163.07 383.73 161.77 379.04 C 161.05 376.51 163.36 375.62 164.94 374.26 Z" fill="#ec8b06" />
<path d="M 370.97 378.49 C 374.81 378.15 378.44 377.84 381.68 380.32 C 381.51 382.37 382.17 384.03 380.20 385.39 C 377.17 385.87 373.97 385.12 370.91 385.65 C 368.34 386.29 366.50 387.89 364.62 389.65 C 364.02 392.27 362.50 394.25 361.08 396.45 C 358.64 396.53 355.51 397.71 355.43 394.06 C 355.83 386.21 363.52 379.68 370.97 378.49 Z" fill="#eb8c07" />
<path d="M 362.22 391.44 C 363.14 391.21 363.43 391.62 363.08 392.69 C 361.66 392.76 361.38 392.34 362.22 391.44 Z" fill="#cb9c40" />
<path d="M 150.45 404.55 C 152.40 404.14 153.95 403.99 155.14 405.85 C 157.69 409.29 160.55 411.70 164.96 412.21 C 169.17 413.10 172.21 409.59 176.17 410.47 C 177.88 411.79 177.48 413.35 177.78 415.27 C 173.75 418.42 170.04 419.05 164.99 418.77 C 158.61 418.94 153.21 415.30 149.70 410.20 C 149.17 408.64 148.83 405.57 150.45 404.55 Z" fill="#ee8b04" />
<path d="M 392.32 409.65 C 395.39 411.76 392.38 416.96 388.98 415.33 C 385.33 413.82 381.91 412.81 377.98 414.12 C 374.14 415.37 371.90 418.83 369.30 421.69 C 367.38 421.46 365.38 421.63 365.28 419.06 C 364.61 415.20 367.43 413.22 369.91 410.87 C 376.23 405.67 385.52 404.99 392.32 409.65 Z" fill="#ed8b05" />
<path d="M 364.69 416.36 C 365.35 417.45 365.35 418.53 364.71 419.62 C 363.29 420.08 363.28 415.92 364.69 416.36 Z" fill="#d4dfad" />
<path d="M 182.47 425.70 C 183.30 431.12 182.45 436.44 182.67 441.94 C 182.59 447.40 182.90 452.85 182.71 458.31 C 182.13 455.63 181.65 452.94 181.47 450.19 C 181.89 442.06 180.59 433.58 182.47 425.70 Z" fill="#db9c25" />
<path d="M 360.35 427.86 C 362.34 444.55 361.33 461.08 354.36 476.55 C 353.87 477.17 353.27 477.71 352.56 478.17 C 355.47 470.74 357.47 463.81 359.13 456.01 C 360.50 451.75 359.61 447.67 359.74 443.00 C 359.87 438.00 359.45 432.77 360.35 427.86 Z" fill="#cce6bf" />
<path d="M 180.46 431.73 C 182.00 437.64 180.84 443.99 181.47 450.19 C 181.65 452.94 182.13 455.63 182.71 458.31 C 184.03 465.94 186.80 472.98 189.55 480.17 C 188.21 479.26 187.46 478.68 186.92 477.11 C 183.99 469.97 181.65 462.73 180.94 455.01 C 179.37 447.43 178.91 439.35 180.46 431.73 Z" fill="#d0e7bd" />
<path d="M 148.86 436.31 C 151.33 437.79 152.94 439.74 155.92 440.32 C 158.93 440.69 162.39 440.82 164.99 439.02 C 167.40 437.68 168.60 435.55 171.68 436.37 C 174.02 436.98 173.49 439.27 173.65 441.14 C 169.58 445.04 164.79 447.71 159.00 447.63 C 153.21 447.83 148.60 445.12 144.35 441.49 C 144.38 439.86 144.44 438.24 144.63 436.63 C 146.00 436.43 147.48 436.09 148.86 436.31 Z" fill="#eb8c07" />
<path d="M 396.23 441.84 C 397.13 443.51 397.04 446.42 395.22 447.50 C 392.07 448.28 389.89 444.95 387.10 443.76 C 384.48 443.07 381.62 443.13 378.95 443.49 C 376.19 443.82 374.37 446.00 372.12 447.42 C 368.96 448.57 366.29 444.76 368.15 442.15 C 374.97 434.15 389.24 433.94 396.23 441.84 Z" fill="#ec8c08" />
<path d="M 182.67 441.94 C 188.12 441.75 193.56 441.81 199.00 441.82 C 247.65 441.85 296.35 441.84 345.00 441.83 C 349.79 441.82 354.58 441.70 359.37 441.94 C 359.64 446.69 360.02 451.28 359.13 456.01 C 357.47 463.81 355.47 470.74 352.56 478.17 C 351.57 480.43 350.41 482.59 349.18 484.72 C 345.80 484.02 342.93 485.07 339.69 485.72 C 338.84 486.36 337.99 487.01 337.15 487.67 C 335.47 487.49 333.12 488.09 332.02 486.53 C 328.34 486.11 324.67 486.17 320.99 486.58 C 320.07 487.27 319.12 487.88 318.12 488.41 C 315.96 488.80 314.82 487.51 313.15 486.47 C 308.01 485.89 303.97 486.25 298.99 487.60 C 297.47 485.57 293.30 486.40 291.00 486.22 C 287.57 486.06 285.28 488.37 281.91 487.68 C 279.65 486.51 277.28 485.64 275.01 484.52 C 271.32 484.35 266.89 485.11 264.02 487.60 C 262.25 487.69 260.68 487.71 259.01 487.03 C 255.64 485.73 251.48 486.23 247.95 486.55 C 245.89 488.11 242.00 488.35 240.03 486.54 C 235.45 486.02 231.40 485.93 227.01 487.56 C 223.04 486.15 219.12 485.86 214.96 486.46 C 212.24 487.21 209.53 488.83 207.04 486.51 C 202.44 486.14 198.19 485.62 193.92 487.84 C 192.24 485.39 190.85 482.83 189.55 480.17 C 186.80 472.98 184.03 465.94 182.71 458.31 C 182.90 452.85 182.59 447.40 182.67 441.94 Z" fill="#f08a02" />
<path d="M 63.87 443.56 C 64.54 444.31 65.20 445.07 65.84 445.85 C 66.52 448.38 66.37 453.81 69.07 454.94 C 71.90 455.81 71.83 453.07 70.43 451.52 C 68.32 448.94 69.23 446.50 71.26 444.27 C 72.84 444.20 74.39 444.28 75.96 444.45 C 76.69 446.03 77.66 447.10 76.88 448.91 C 75.77 451.39 72.06 451.16 71.69 448.13 C 71.32 448.88 70.93 449.63 70.55 450.38 C 72.32 451.58 73.92 452.77 75.99 453.42 C 77.92 453.10 78.29 451.80 79.24 450.38 C 82.99 449.60 83.73 446.59 86.37 444.28 L 87.93 444.25 C 85.37 447.04 84.03 450.06 80.38 451.52 C 79.25 452.61 78.26 454.44 76.57 454.52 C 75.14 454.53 73.68 454.15 72.27 453.94 L 73.81 455.49 L 72.90 456.50 L 72.66 456.64 C 71.12 457.51 69.47 457.99 67.77 458.44 C 67.92 461.36 70.44 461.14 72.61 462.16 C 74.69 462.55 76.86 462.70 78.98 462.90 C 79.07 465.80 79.12 468.70 79.17 471.60 C 80.54 472.38 81.91 473.16 83.27 473.95 C 82.77 478.24 82.26 482.52 81.67 486.79 C 75.78 484.94 69.96 485.59 65.23 489.70 C 61.31 486.91 57.55 487.01 52.99 487.82 C 54.55 487.53 56.12 487.32 57.69 487.10 C 57.13 482.74 56.58 478.38 56.08 474.02 C 57.43 473.16 58.77 472.28 60.14 471.46 C 62.46 470.15 64.84 468.97 67.19 467.70 C 66.00 467.23 64.82 466.76 63.63 466.29 C 67.78 465.68 72.11 465.89 76.29 466.13 C 75.41 467.51 73.60 467.17 72.18 467.48 C 74.03 468.53 75.86 469.63 77.69 470.72 C 77.81 468.43 77.92 466.15 78.03 463.87 C 72.55 463.65 67.09 463.82 61.62 463.83 L 60.48 462.76 C 62.55 462.60 64.63 462.54 66.71 462.49 C 66.74 460.15 66.67 457.83 66.23 455.52 C 66.35 455.16 66.47 454.80 66.60 454.44 C 64.89 450.94 64.92 447.31 63.87 443.56 Z" fill="#33373c" />
<path d="M 71.26 444.27 C 69.23 446.50 68.32 448.94 70.43 451.52 C 71.83 453.07 71.90 455.81 69.07 454.94 C 66.37 453.81 66.52 448.38 65.84 445.85 C 65.75 443.19 69.55 444.74 71.26 444.27 Z" fill="#daeff0" />
<path d="M 86.37 444.28 C 83.73 446.59 82.99 449.60 79.24 450.38 C 78.29 451.80 77.92 453.10 75.99 453.42 C 73.92 452.77 72.32 451.58 70.55 450.38 C 70.93 449.63 71.32 448.88 71.69 448.13 C 72.06 451.16 75.77 451.39 76.88 448.91 C 77.66 447.10 76.69 446.03 75.96 444.45 C 79.43 444.50 82.90 444.23 86.37 444.28 Z" fill="#deeff0" />
<path d="M 70.13 447.37 L 71.86 445.90 C 73.94 444.10 76.74 446.21 75.72 448.67 C 73.62 450.07 73.45 449.32 72.77 447.29 C 71.89 447.32 71.01 447.34 70.13 447.37 Z" fill="#dde6e9" />
<path d="M 233.30 447.65 C 237.70 449.19 240.71 453.45 241.41 457.96 C 241.67 460.26 241.26 462.84 239.14 464.15 C 236.19 465.80 232.29 465.36 229.00 465.43 C 225.73 465.31 220.12 466.00 217.87 463.09 C 214.52 457.73 219.13 449.55 224.73 447.69 C 227.21 447.06 230.81 447.05 233.30 447.65 Z" fill="#08212f" />
<path d="M 237.41 452.09 C 231.63 451.63 226.00 452.18 220.26 452.17 C 222.27 450.32 223.89 448.45 226.83 448.33 C 230.93 448.05 235.14 448.01 237.41 452.09 Z" fill="#0a526b" />
<path d="M 309.99 447.32 C 312.59 447.23 316.09 446.98 318.31 448.53 C 319.21 449.89 320.06 451.26 320.92 452.64 C 314.43 451.45 308.24 451.79 301.75 452.66 C 303.70 449.77 306.31 447.42 309.99 447.32 Z" fill="#0d516c" />
<path d="M 318.31 448.53 C 320.57 450.10 322.44 452.11 323.55 454.64 C 323.38 457.22 323.31 460.02 322.45 462.48 C 320.57 464.11 317.33 463.66 315.00 463.79 C 311.26 463.67 307.34 464.04 303.66 463.37 C 300.03 462.34 301.08 457.73 300.52 454.86 C 300.92 454.12 301.32 453.39 301.75 452.66 C 308.24 451.79 314.43 451.45 320.92 452.64 C 320.06 451.26 319.21 449.89 318.31 448.53 Z" fill="#072130" />
<path d="M 300.52 454.86 C 301.08 457.73 300.03 462.34 303.66 463.37 C 307.34 464.04 311.26 463.67 315.00 463.79 C 317.33 463.66 320.57 464.11 322.45 462.48 C 323.31 460.02 323.38 457.22 323.55 454.64 C 324.57 457.57 325.12 460.58 323.39 463.37 C 320.96 465.91 316.22 465.37 313.00 465.48 C 309.40 465.31 304.24 466.09 301.27 463.74 C 299.05 461.65 299.69 457.48 300.52 454.86 Z" fill="#312307" />
<path d="M 72.66 456.64 L 72.90 456.50 C 72.70 458.37 72.67 460.28 72.61 462.16 C 70.44 461.14 67.92 461.36 67.77 458.44 C 69.47 457.99 71.12 457.51 72.66 456.64 Z" fill="#603244" />
<path d="M 171.40 462.45 C 172.71 462.28 174.06 462.33 175.38 462.32 C 176.04 464.14 177.12 465.99 175.81 467.81 C 172.66 472.34 167.71 476.31 162.01 476.63 C 157.40 476.93 152.15 476.85 148.52 473.59 C 146.90 471.78 148.12 470.29 148.62 468.33 C 153.09 467.68 156.47 470.58 161.01 469.77 C 166.26 469.41 168.21 465.86 171.40 462.45 Z" fill="#ed8b06" />
<path d="M 60.48 462.76 L 61.62 463.83 C 61.82 464.75 62.03 465.67 62.22 466.60 C 62.69 466.49 63.16 466.39 63.63 466.29 C 64.82 466.76 66.00 467.23 67.19 467.70 C 64.84 468.97 62.46 470.15 60.14 471.46 C 60.08 468.68 59.56 465.43 60.48 462.76 Z" fill="#57686c" />
<path d="M 61.62 463.83 C 67.09 463.82 72.55 463.65 78.03 463.87 C 77.92 466.15 77.81 468.43 77.69 470.72 C 75.86 469.63 74.03 468.53 72.18 467.48 C 73.60 467.17 75.41 467.51 76.29 466.13 C 72.11 465.89 67.78 465.68 63.63 466.29 C 63.16 466.39 62.69 466.49 62.22 466.60 C 62.03 465.67 61.82 464.75 61.62 463.83 Z" fill="#717e82" />
<path d="M 389.81 471.18 C 391.21 473.04 392.80 474.53 392.29 477.08 C 391.23 478.57 388.88 480.60 387.17 478.84 C 384.76 476.31 383.36 473.55 379.82 472.30 C 374.04 469.94 370.25 473.20 364.43 472.86 C 363.75 470.91 362.87 469.27 364.56 467.53 C 372.55 462.03 383.54 463.99 389.81 471.18 Z" fill="#ed8b06" />
<path d="M 69.64 468.00 C 69.70 470.90 69.68 473.79 69.62 476.69 C 68.40 477.03 67.19 477.38 65.96 477.69 C 63.23 478.27 60.56 478.96 57.94 479.92 C 57.81 478.23 57.70 476.54 57.57 474.85 C 61.33 472.12 65.42 469.93 69.64 468.00 Z" fill="#4c565c" />
<path d="M 271.05 473.64 C 273.15 474.04 274.29 475.43 275.83 476.75 C 275.91 479.72 275.04 481.53 273.46 483.87 C 271.86 484.23 270.25 484.60 268.64 484.97 C 267.39 483.31 265.33 481.22 265.48 479.00 C 265.30 476.09 268.19 473.35 271.05 473.64 Z" fill="#b03a67" />
<path d="M 65.96 477.69 C 65.25 478.77 64.57 479.87 63.90 480.98 C 62.41 481.85 62.39 482.52 63.85 482.99 C 65.73 483.39 67.62 483.74 69.53 484.01 L 70.54 484.16 C 67.23 485.08 63.43 486.53 59.95 486.36 C 58.00 484.68 58.27 482.26 57.94 479.92 C 60.56 478.96 63.23 478.27 65.96 477.69 Z" fill="#8c385b" />
<path d="M 65.96 477.69 C 68.02 477.50 70.08 477.47 72.14 477.68 C 72.99 478.88 73.87 480.07 74.75 481.26 C 75.52 481.46 76.29 481.67 77.06 481.88 C 75.47 483.93 71.86 483.56 69.53 484.01 C 67.62 483.74 65.73 483.39 63.85 482.99 L 63.90 480.98 C 64.57 479.87 65.25 478.77 65.96 477.69 Z" fill="#c21c53" />
<path d="M 72.14 477.68 C 75.01 478.38 78.03 479.05 80.68 480.40 C 81.89 481.09 80.69 483.61 80.72 484.80 C 77.31 484.77 73.92 484.61 70.54 484.16 L 69.53 484.01 C 71.86 483.56 75.47 483.93 77.06 481.88 C 76.29 481.67 75.52 481.46 74.75 481.26 C 73.87 480.07 72.99 478.88 72.14 477.68 Z" fill="#8b4166" />
<path d="M 950.99 478.80 C 955.19 478.74 959.42 480.26 963.19 482.00 C 966.06 480.88 968.86 479.53 972.00 479.53 C 974.91 479.49 977.33 480.52 980.00 481.49 C 983.95 479.93 987.69 478.76 991.92 480.17 C 993.47 480.58 995.16 481.71 996.74 481.71 C 999.53 480.41 1001.76 478.69 1004.99 478.50 C 1009.13 477.99 1012.53 479.57 1016.02 481.56 C 1018.56 480.05 1021.16 479.08 1024.00 478.27 L 1024.00 586.27 C 997.37 579.45 967.74 587.25 948.38 606.86 C 956.37 615.39 963.00 624.92 967.06 635.95 C 970.53 644.84 972.18 654.25 972.47 663.78 C 977.99 664.32 983.47 664.04 989.00 664.10 C 1000.67 664.13 1012.33 664.13 1024.00 664.19 L 1024.00 807.88 C 1006.92 808.65 990.35 815.30 977.26 826.27 C 974.52 828.60 971.81 830.83 969.75 833.83 C 979.42 843.87 986.90 855.75 990.71 869.23 C 992.61 875.30 993.31 881.52 994.10 887.80 C 1004.06 887.97 1014.04 887.70 1024.00 888.00 L 1024.00 989.79 C 1007.51 989.50 991.30 994.44 977.65 1003.65 C 969.49 1009.10 962.73 1016.13 956.94 1024.00 L 945.16 1024.00 C 937.17 1012.11 925.29 1002.59 912.27 996.74 C 896.87 989.86 879.33 987.96 862.85 991.61 C 843.26 995.72 825.46 1007.47 814.16 1024.00 L 802.64 1024.00 C 795.74 1013.07 785.10 1004.25 773.67 998.35 C 757.89 990.13 739.46 987.56 721.99 990.84 C 701.71 994.72 682.82 1006.86 671.23 1024.00 L 660.44 1024.00 C 653.61 1013.36 643.34 1004.74 632.28 998.75 C 615.29 989.70 595.19 987.18 576.46 991.53 C 561.13 995.18 546.74 1003.42 536.13 1015.10 C 533.48 1017.92 531.24 1021.03 528.78 1024.00 L 517.39 1024.00 C 510.51 1013.12 499.92 1004.37 488.61 998.39 C 471.60 989.54 451.49 987.14 432.86 991.68 C 413.78 996.25 397.11 1008.06 385.79 1024.00 L 375.03 1024.00 C 370.41 1017.42 364.82 1011.47 358.54 1006.44 C 355.32 1004.04 351.96 1001.85 348.74 999.44 C 349.77 998.45 350.80 997.49 352.06 996.79 C 375.00 983.67 397.72 970.42 420.60 957.23 C 423.71 955.54 426.77 953.88 429.51 951.60 C 429.48 949.46 429.49 947.30 429.40 945.16 C 432.99 944.73 436.61 944.61 440.21 944.30 C 458.27 942.30 475.56 934.31 488.49 921.49 C 497.77 912.57 504.97 901.32 508.95 889.07 C 507.30 888.94 505.65 888.82 504.00 888.77 C 479.13 888.66 454.26 888.76 429.39 888.53 C 429.47 873.91 429.55 859.28 429.35 844.66 C 416.26 836.89 403.03 829.32 389.81 821.76 C 390.62 813.62 392.06 805.81 391.37 797.61 C 392.02 782.94 388.57 768.46 382.04 755.35 C 393.09 742.14 402.93 727.50 411.91 712.81 C 425.46 714.91 439.34 713.98 452.29 709.34 C 471.05 702.77 487.11 688.98 496.39 671.39 C 498.23 667.55 500.58 663.70 500.99 659.47 C 467.99 659.49 434.99 659.27 402.00 659.32 C 399.43 659.39 397.81 658.84 395.70 657.48 C 389.31 648.30 381.21 640.84 371.50 635.29 C 363.86 630.96 355.63 628.22 346.94 626.99 C 350.82 616.52 357.45 608.42 364.84 600.28 C 350.69 586.28 330.89 578.04 311.00 577.68 C 287.74 577.01 264.57 587.12 249.27 604.65 C 255.43 612.37 260.81 620.50 264.20 629.84 C 267.61 638.73 269.36 648.14 269.57 657.64 C 272.99 657.72 276.36 657.95 279.76 658.36 C 277.40 661.94 275.39 665.80 273.66 669.73 C 271.37 675.27 269.68 681.00 269.26 687.01 C 267.77 693.58 269.28 699.73 270.58 706.35 C 274.79 722.07 288.81 733.53 303.86 738.34 C 304.46 738.71 305.05 739.08 305.64 739.45 C 291.34 753.56 277.80 768.66 265.72 784.72 C 262.43 789.63 257.64 795.36 257.31 801.42 C 258.95 801.98 260.25 802.64 262.02 802.05 C 269.83 799.96 277.53 794.34 284.50 790.98 C 284.57 792.53 284.64 794.08 284.72 795.63 C 284.46 800.56 284.37 805.56 284.84 810.48 C 279.18 812.15 273.97 814.85 268.99 817.98 C 261.51 822.78 254.71 828.31 249.23 835.36 C 250.27 836.64 251.34 837.76 252.66 838.74 C 249.26 840.58 245.95 842.54 242.64 844.55 L 242.51 844.62 C 242.43 859.50 242.49 874.39 242.50 889.28 C 238.33 889.51 234.17 889.52 230.00 889.45 C 196.33 889.38 162.67 889.33 129.00 889.25 C 123.01 889.31 116.99 889.04 111.01 889.32 C 111.82 893.63 113.74 897.36 115.79 901.19 C 124.33 917.25 138.40 930.66 155.19 937.81 C 178.16 948.14 205.65 946.86 227.65 934.65 C 232.94 931.78 237.54 928.10 242.48 924.71 C 242.45 933.69 242.52 942.67 242.45 951.65 C 244.87 953.68 247.56 955.23 250.34 956.71 C 265.21 965.16 279.92 973.87 294.79 982.33 C 298.67 984.82 302.91 986.61 306.56 989.40 C 281.40 990.27 257.56 1003.26 243.28 1024.00 L 236.98 1024.00 C 228.88 1012.66 218.11 1003.43 205.48 997.47 C 188.96 989.59 169.80 987.69 152.04 992.15 C 133.33 996.72 116.71 1008.28 105.63 1024.00 L 93.34 1024.00 C 78.05 1001.02 49.42 987.75 22.00 990.03 C 14.51 990.58 7.09 992.25 0.00 994.72 L 0.00 887.29 C 35.09 887.44 70.20 887.60 105.29 887.44 C 106.12 882.97 106.20 878.43 107.13 873.98 C 109.76 860.08 115.99 846.95 125.23 836.23 C 126.76 834.46 128.55 832.80 129.85 830.86 C 130.22 829.78 128.64 828.74 128.04 827.97 C 117.63 818.26 104.90 811.16 91.02 807.86 C 73.46 803.60 54.30 805.26 37.89 812.89 C 27.15 817.65 17.50 824.96 9.78 833.80 C 6.15 837.90 3.16 842.72 0.00 847.24 L 0.00 657.72 C 31.33 657.78 62.67 657.85 94.00 657.92 C 97.87 657.96 101.74 657.94 105.60 657.79 C 106.02 641.04 111.23 624.65 121.07 611.06 C 123.74 607.27 127.03 604.05 129.80 600.35 C 115.32 586.14 95.29 577.81 75.00 577.66 C 48.49 577.12 22.49 590.73 7.76 612.76 C 4.85 617.02 2.58 621.73 0.00 626.22 L 0.00 486.16 C 2.15 486.22 4.44 486.13 6.53 486.63 C 8.81 487.28 10.93 488.84 13.14 489.67 C 15.80 489.46 18.23 487.49 20.99 487.33 C 24.64 486.74 27.45 488.40 30.90 488.83 C 33.33 488.35 35.51 487.30 37.98 487.22 C 40.95 487.16 43.99 488.49 47.00 488.62 C 49.03 488.69 51.00 488.17 52.99 487.82 C 57.55 487.01 61.31 486.91 65.23 489.70 C 69.96 485.59 75.78 484.94 81.67 486.79 C 82.79 487.41 83.88 488.07 84.98 488.72 C 87.99 487.46 90.64 486.08 94.00 486.14 C 96.89 486.09 99.27 487.11 101.96 488.00 C 104.97 486.95 107.75 485.86 111.03 486.20 C 113.99 486.36 116.31 487.69 118.94 488.90 C 121.93 487.50 124.58 486.06 128.00 486.14 C 131.23 486.04 133.83 487.32 136.69 488.58 C 139.82 486.24 142.92 484.29 146.98 484.30 C 150.80 484.08 153.94 485.64 157.09 487.60 C 159.64 487.06 162.41 486.24 165.01 486.55 C 167.91 486.85 170.22 488.09 172.79 489.30 C 175.77 487.76 178.53 486.33 182.00 486.47 C 185.75 486.47 188.60 488.13 191.79 489.83 C 192.51 489.17 193.22 488.50 193.92 487.84 C 198.19 485.62 202.44 486.14 207.04 486.51 C 209.53 488.83 212.24 487.21 214.96 486.46 C 219.12 485.86 223.04 486.15 227.01 487.56 C 231.40 485.93 235.45 486.02 240.03 486.54 C 242.00 488.35 245.89 488.11 247.95 486.55 C 251.48 486.23 255.64 485.73 259.01 487.03 C 260.68 487.71 262.25 487.69 264.02 487.60 C 266.89 485.11 271.32 484.35 275.01 484.52 C 277.28 485.64 279.65 486.51 281.91 487.68 C 285.28 488.37 287.57 486.06 291.00 486.22 C 293.30 486.40 297.47 485.57 298.99 487.60 C 303.97 486.25 308.01 485.89 313.15 486.47 C 314.82 487.51 315.96 488.80 318.12 488.41 C 319.12 487.88 320.07 487.27 320.99 486.58 C 324.67 486.17 328.34 486.11 332.02 486.53 C 333.12 488.09 335.47 487.49 337.15 487.67 C 337.99 487.01 338.84 486.36 339.69 485.72 C 342.93 485.07 345.80 484.02 349.18 484.72 C 351.07 485.65 352.94 486.63 354.82 487.57 C 357.46 486.17 359.93 484.83 362.98 484.67 C 366.24 484.39 368.94 485.58 371.92 486.63 C 374.94 485.48 377.70 484.35 381.02 484.69 C 383.95 484.90 386.21 486.22 388.75 487.52 C 391.44 486.19 393.92 484.89 396.99 484.67 C 400.41 484.35 403.62 485.85 406.77 486.97 C 409.61 484.94 412.38 483.15 415.97 482.84 C 419.07 482.53 421.60 483.60 424.46 484.48 C 426.20 485.22 428.18 484.19 429.99 483.91 C 433.88 482.86 437.20 484.34 440.83 485.49 C 443.52 484.42 446.03 483.37 449.00 483.56 C 452.29 483.67 454.88 485.06 457.77 486.40 C 460.67 484.73 463.56 483.40 467.00 483.55 C 470.51 483.56 473.36 485.04 476.29 486.78 C 479.07 485.02 481.61 483.32 484.97 482.93 C 488.76 482.34 491.90 483.67 495.24 485.20 C 498.05 484.14 500.95 482.78 504.00 482.77 C 506.67 482.81 509.42 483.91 511.93 484.77 C 514.57 483.81 517.15 482.74 520.01 482.78 C 523.20 482.89 525.85 484.20 528.75 485.38 C 531.64 483.49 534.42 481.82 537.98 481.74 C 541.74 481.51 544.85 482.94 548.03 484.71 C 551.55 482.84 554.90 481.28 559.02 481.81 C 562.58 482.12 565.24 483.94 568.08 485.90 C 571.63 484.01 574.85 482.31 579.03 482.87 C 582.43 483.22 584.47 485.59 587.85 483.92 C 592.91 481.78 597.78 483.00 602.32 485.67 C 605.50 484.15 608.35 482.62 612.01 482.80 C 615.01 482.93 617.58 484.12 620.23 485.41 C 623.39 483.61 626.21 481.83 629.99 481.74 C 633.66 481.49 636.53 483.00 639.69 484.58 C 642.42 483.24 644.86 481.88 647.99 481.74 C 651.20 481.53 653.85 482.64 656.78 483.72 C 659.51 482.67 662.00 481.62 665.01 481.73 C 668.29 481.77 670.86 483.17 673.71 484.58 C 676.72 483.05 679.51 481.62 683.00 481.72 C 686.02 481.71 688.34 483.01 691.14 483.82 C 693.90 483.11 696.07 480.65 699.09 480.23 C 703.92 479.13 708.04 480.76 712.07 483.27 C 717.80 482.30 720.79 482.99 725.75 485.76 C 728.64 483.79 731.36 481.98 734.98 481.78 C 738.73 481.34 741.70 482.80 745.00 484.27 C 747.66 483.11 750.01 481.88 752.99 481.74 C 755.96 481.51 758.30 482.65 761.09 483.37 C 763.74 483.17 766.25 481.68 769.00 481.71 C 772.35 481.62 775.04 482.96 777.99 484.31 C 780.88 482.56 783.50 480.87 786.98 480.65 C 790.98 480.27 794.10 481.87 797.54 483.57 C 800.99 481.12 804.68 479.47 809.03 479.97 C 812.57 480.28 815.37 482.02 818.18 484.04 C 820.96 483.06 824.03 481.67 827.00 481.71 C 829.87 481.73 832.26 482.73 834.88 483.73 C 837.90 482.55 840.67 481.40 844.01 481.80 C 846.90 482.01 849.23 483.28 851.73 484.58 C 854.76 483.09 857.52 481.66 861.00 481.72 C 864.29 481.66 866.93 483.00 869.81 484.36 C 872.69 482.49 875.45 480.82 878.99 480.62 C 882.76 480.33 885.85 481.78 889.10 483.46 C 892.27 481.83 895.33 480.44 899.00 480.56 C 903.14 480.30 906.13 482.49 910.11 481.25 C 915.04 479.92 919.60 480.58 924.16 482.74 C 929.95 479.89 935.87 480.06 941.90 482.05 C 944.86 480.48 947.53 478.93 950.99 478.80 Z" fill="#2d95ed" />
<path d="M 63.90 480.98 L 63.85 482.99 C 62.39 482.52 62.41 481.85 63.90 480.98 Z" fill="#bc537e" />
<path d="M 60.25 482.23 C 60.78 482.77 60.78 482.77 60.25 482.23 Z" fill="#d37494" />
<path d="M 765.99 577.38 C 782.70 575.57 799.95 579.07 814.51 587.52 C 822.12 591.99 829.74 597.63 835.04 604.77 C 823.80 615.18 815.54 628.64 811.48 643.43 C 810.28 647.90 809.66 652.39 808.82 657.04 C 800.90 657.52 792.93 657.10 785.00 657.21 C 770.64 657.03 756.22 657.53 741.88 656.87 C 740.75 643.12 737.32 629.81 730.07 617.96 C 726.51 611.80 721.86 606.60 717.18 601.31 C 730.01 588.04 747.61 579.30 765.99 577.38 Z" fill="#71bfed" />
<path d="M 75.00 577.66 C 95.29 577.81 115.32 586.14 129.80 600.35 C 127.03 604.05 123.74 607.27 121.07 611.06 C 111.23 624.65 106.02 641.04 105.60 657.79 C 101.74 657.94 97.87 657.96 94.00 657.92 C 62.67 657.85 31.33 657.78 0.00 657.72 L 0.00 626.22 C 2.58 621.73 4.85 617.02 7.76 612.76 C 22.49 590.73 48.49 577.12 75.00 577.66 Z" fill="#71bfed" />
<path d="M 311.00 577.68 C 330.89 578.04 350.69 586.28 364.84 600.28 C 357.45 608.42 350.82 616.52 346.94 626.99 C 320.60 623.27 294.35 636.51 279.76 658.36 C 276.36 657.95 272.99 657.72 269.57 657.64 C 269.36 648.14 267.61 638.73 264.20 629.84 C 260.81 620.50 255.43 612.37 249.27 604.65 C 264.57 587.12 287.74 577.01 311.00 577.68 Z" fill="#71bfed" />
<path d="M 554.05 578.70 C 571.03 581.46 586.86 589.89 598.78 602.26 C 599.28 602.75 599.61 603.29 599.75 603.88 C 598.36 606.04 596.50 607.92 594.90 609.94 C 584.16 623.64 578.46 640.51 577.72 657.85 C 553.23 658.05 528.67 657.78 504.17 657.81 C 503.44 647.88 501.95 638.15 498.13 628.90 C 494.51 619.30 488.70 611.19 482.26 603.32 C 500.28 583.73 527.78 574.22 554.05 578.70 Z" fill="#71bfed" />
<path d="M 1024.00 586.27 L 1024.00 664.19 C 1012.33 664.13 1000.67 664.13 989.00 664.10 C 983.47 664.04 977.99 664.32 972.47 663.78 C 972.18 654.25 970.53 644.84 967.06 635.95 C 963.00 624.92 956.37 615.39 948.38 606.86 C 967.74 587.25 997.37 579.45 1024.00 586.27 Z" fill="#71bfed" />
<path d="M 346.94 626.99 C 355.63 628.22 363.86 630.96 371.50 635.29 C 370.69 635.07 369.88 634.87 369.07 634.69 C 366.84 637.27 364.97 640.22 362.58 642.59 C 355.39 649.28 347.05 653.84 338.23 657.99 L 337.88 658.13 C 322.50 664.61 306.74 669.37 290.00 670.55 C 284.51 670.93 279.08 670.72 273.66 669.73 C 275.39 665.80 277.40 661.94 279.76 658.36 C 294.35 636.51 320.60 623.27 346.94 626.99 Z" fill="#673f25" />
<path d="M 369.07 634.69 C 369.88 634.87 370.69 635.07 371.50 635.29 C 381.21 640.84 389.31 648.30 395.70 657.48 C 398.29 661.36 400.56 665.48 402.39 669.77 C 393.20 671.39 384.16 670.73 375.01 669.22 C 362.35 667.05 349.94 663.27 338.23 657.99 C 347.05 653.84 355.39 649.28 362.58 642.59 C 364.97 640.22 366.84 637.27 369.07 634.69 Z" fill="#533722" />
<path d="M 395.70 657.48 C 397.81 658.84 399.43 659.39 402.00 659.32 C 434.99 659.27 467.99 659.49 500.99 659.47 C 500.58 663.70 498.23 667.55 496.39 671.39 C 487.11 688.98 471.05 702.77 452.29 709.34 C 439.34 713.98 425.46 714.91 411.91 712.81 C 415.19 707.18 418.23 701.17 420.27 694.97 C 421.12 692.44 419.92 691.88 418.15 690.50 C 415.35 691.76 412.70 693.46 409.81 694.50 C 408.70 694.12 407.69 693.38 406.68 692.78 C 407.07 684.35 405.85 677.40 402.39 669.77 C 400.56 665.48 398.29 661.36 395.70 657.48 Z" fill="#71bfed" />
<path d="M 337.88 658.13 L 338.23 657.99 C 349.94 663.27 362.35 667.05 375.01 669.22 C 384.16 670.73 393.20 671.39 402.39 669.77 C 405.85 677.40 407.07 684.35 406.68 692.78 C 402.44 693.06 398.24 693.15 394.00 693.02 C 390.72 693.04 387.70 692.60 384.60 693.84 C 382.22 689.95 378.38 688.58 374.21 687.37 C 376.14 685.57 376.84 684.43 377.39 681.80 C 376.65 678.43 374.73 675.78 371.00 675.71 C 367.28 675.78 365.28 678.41 364.56 681.82 C 365.11 684.48 365.80 685.58 367.78 687.38 C 363.69 688.36 360.48 690.22 357.38 693.01 C 353.31 691.32 349.16 690.33 344.79 691.55 C 342.13 692.28 340.15 693.90 338.03 695.57 C 335.81 693.77 333.69 692.09 330.84 691.42 C 326.53 690.35 322.53 691.42 318.55 693.07 C 315.84 690.41 312.72 688.51 309.32 686.87 C 310.41 685.23 311.12 683.72 311.56 681.79 C 310.78 678.32 308.78 675.78 304.99 675.71 C 301.37 675.84 299.45 678.39 298.83 681.73 C 299.12 684.38 300.03 685.57 301.86 687.38 C 297.71 688.68 293.83 689.91 291.47 693.86 C 289.66 693.18 287.93 692.96 286.00 693.00 C 280.95 693.06 275.89 693.01 270.84 693.12 C 270.55 697.53 270.73 701.94 270.58 706.35 C 269.28 699.73 267.77 693.58 269.26 687.01 C 269.68 681.00 271.37 675.27 273.66 669.73 C 279.08 670.72 284.51 670.93 290.00 670.55 C 306.74 669.37 322.50 664.61 337.88 658.13 Z" fill="#e7b185" />
<path d="M 112.41 659.12 C 113.59 658.95 114.78 658.84 115.99 658.79 C 165.57 658.76 214.48 659.01 264.04 659.25 C 257.49 680.74 240.17 698.88 219.54 707.53 C 204.87 713.85 188.41 715.48 172.76 712.38 C 159.72 709.66 147.03 703.82 136.89 695.12 C 125.59 685.69 117.00 673.11 112.41 659.12 Z" fill="#71bfed" />
<path d="M 585.27 660.19 C 588.45 659.79 591.80 659.86 595.00 659.88 C 609.67 659.98 624.34 659.78 639.00 660.06 C 671.24 660.13 703.49 660.08 735.72 660.27 C 729.35 678.61 715.57 694.32 698.53 703.53 C 687.39 709.64 674.69 712.87 662.00 713.18 C 643.45 713.49 624.91 707.26 610.47 695.57 C 599.06 686.53 589.93 674.00 585.27 660.19 Z" fill="#71bfed" />
<path d="M 811.98 665.25 C 815.29 664.94 818.67 665.10 822.00 665.09 C 871.59 665.19 921.19 665.22 970.78 665.38 C 968.61 691.75 951.70 716.16 928.24 728.22 C 913.83 735.71 897.24 738.82 881.11 736.62 C 864.22 734.56 848.19 726.86 835.90 715.11 C 823.97 703.73 815.73 688.49 812.56 672.32 C 812.17 670.07 811.50 667.51 811.98 665.25 Z" fill="#71bfed" />
<path d="M 304.99 675.71 C 308.78 675.78 310.78 678.32 311.56 681.79 C 307.31 681.87 303.07 681.86 298.83 681.73 C 299.45 678.39 301.37 675.84 304.99 675.71 Z" fill="#153e49" />
<path d="M 371.00 675.71 C 374.73 675.78 376.65 678.43 377.39 681.80 C 373.11 681.88 368.84 681.89 364.56 681.82 C 365.28 678.41 367.28 675.78 371.00 675.71 Z" fill="#183d47" />
<path d="M 298.83 681.73 C 303.07 681.86 307.31 681.87 311.56 681.79 C 311.12 683.72 310.41 685.23 309.32 686.87 C 306.87 687.31 304.40 687.18 301.86 687.38 C 300.03 685.57 299.12 684.38 298.83 681.73 Z" fill="#030002" />
<path d="M 364.56 681.82 C 368.84 681.89 373.11 681.88 377.39 681.80 C 376.84 684.43 376.14 685.57 374.21 687.37 C 372.04 687.12 369.95 687.13 367.78 687.38 C 365.80 685.58 365.11 684.48 364.56 681.82 Z" fill="#030002" />
<path d="M 301.86 687.38 C 304.40 687.18 306.87 687.31 309.32 686.87 C 312.72 688.51 315.84 690.41 318.55 693.07 C 317.83 693.41 317.12 693.77 316.42 694.14 C 312.30 690.95 309.22 690.10 303.99 690.31 C 299.51 690.10 296.88 692.64 293.11 694.44 L 291.47 693.86 C 293.83 689.91 297.71 688.68 301.86 687.38 Z" fill="#efc5a7" />
<path d="M 367.78 687.38 C 369.95 687.13 372.04 687.12 374.21 687.37 C 378.38 688.58 382.22 689.95 384.60 693.84 L 383.07 694.40 C 380.74 693.34 378.57 691.87 376.19 690.92 C 370.24 689.21 364.67 690.65 359.74 694.18 C 358.96 693.78 358.17 693.39 357.38 693.01 C 360.48 690.22 363.69 688.36 367.78 687.38 Z" fill="#f0c6a7" />
<path d="M 303.99 690.31 C 309.22 690.10 312.30 690.95 316.42 694.14 C 311.66 697.08 306.96 700.10 302.10 702.87 C 298.99 704.23 295.87 704.45 292.56 704.99 C 297.31 708.61 303.31 710.81 309.03 712.33 C 309.35 721.57 309.05 730.83 309.18 740.07 C 307.43 739.28 305.74 738.74 303.86 738.34 C 288.81 733.53 274.79 722.07 270.58 706.35 C 270.73 701.94 270.55 697.53 270.84 693.12 C 275.89 693.01 280.95 693.06 286.00 693.00 C 287.93 692.96 289.66 693.18 291.47 693.86 L 293.11 694.44 C 296.88 692.64 299.51 690.10 303.99 690.31 Z" fill="#dca077" />
<path d="M 376.19 690.92 C 378.57 691.87 380.74 693.34 383.07 694.40 L 384.60 693.84 C 387.70 692.60 390.72 693.04 394.00 693.02 C 398.24 693.15 402.44 693.06 406.68 692.78 C 406.64 698.89 406.77 704.74 404.36 710.50 C 402.59 714.53 400.76 718.31 397.58 721.44 C 393.53 725.50 389.84 729.89 384.91 732.81 C 380.43 735.50 375.49 737.50 370.61 739.35 C 369.38 739.79 368.14 740.21 366.91 740.63 C 367.01 731.20 366.81 721.77 367.04 712.35 C 372.74 710.80 378.78 708.64 383.51 705.00 C 381.08 704.58 378.64 704.22 376.21 703.83 C 370.43 701.06 365.18 697.51 359.74 694.18 C 364.67 690.65 370.24 689.21 376.19 690.92 Z" fill="#dca077" />
<path d="M 330.84 691.42 C 333.69 692.09 335.81 693.77 338.03 695.57 C 340.15 693.90 342.13 692.28 344.79 691.55 C 349.16 690.33 353.31 691.32 357.38 693.01 C 358.17 693.39 358.96 693.78 359.74 694.18 C 365.18 697.51 370.43 701.06 376.21 703.83 C 367.54 703.01 358.98 701.53 350.34 700.56 C 345.31 699.98 340.00 698.64 335.00 699.28 C 327.66 700.22 320.34 701.34 312.99 702.20 C 309.14 702.60 305.94 703.84 302.10 702.87 C 306.96 700.10 311.66 697.08 316.42 694.14 C 317.12 693.77 317.83 693.41 318.55 693.07 C 322.53 691.42 326.53 690.35 330.84 691.42 Z" fill="#673f24" />
<path d="M 418.15 690.50 C 419.92 691.88 421.12 692.44 420.27 694.97 C 418.23 701.17 415.19 707.18 411.91 712.81 C 402.93 727.50 393.09 742.14 382.04 755.35 C 378.85 749.55 374.75 744.48 370.61 739.35 C 375.49 737.50 380.43 735.50 384.91 732.81 C 389.84 729.89 393.53 725.50 397.58 721.44 C 400.76 718.31 402.59 714.53 404.36 710.50 C 406.77 704.74 406.64 698.89 406.68 692.78 C 407.69 693.38 408.70 694.12 409.81 694.50 C 412.70 693.46 415.35 691.76 418.15 690.50 Z" fill="#83b6b6" />
<path d="M 335.00 699.28 C 340.00 698.64 345.31 699.98 350.34 700.56 C 358.98 701.53 367.54 703.01 376.21 703.83 C 378.64 704.22 381.08 704.58 383.51 705.00 C 378.78 708.64 372.74 710.80 367.04 712.35 C 366.81 721.77 367.01 731.20 366.91 740.63 C 366.90 741.74 366.89 742.85 366.89 743.96 C 360.21 745.82 353.36 746.88 346.46 747.49 C 340.85 747.74 335.24 747.78 329.63 747.47 C 322.71 746.92 315.91 745.80 309.20 743.99 C 309.19 742.69 309.18 741.38 309.18 740.07 C 309.05 730.83 309.35 721.57 309.03 712.33 C 303.31 710.81 297.31 708.61 292.56 704.99 C 295.87 704.45 298.99 704.23 302.10 702.87 C 305.94 703.84 309.14 702.60 312.99 702.20 C 320.34 701.34 327.66 700.22 335.00 699.28 Z" fill="#543622" />
<path d="M 338.02 708.18 C 344.07 713.32 353.19 713.91 360.76 713.48 C 361.23 721.01 358.95 728.14 353.22 733.23 C 344.86 741.03 331.18 740.95 322.81 733.20 C 317.13 728.13 314.92 721.02 315.30 713.53 C 322.86 713.84 332.02 713.38 338.02 708.18 Z" fill="#dc9f76" />
<path d="M 303.86 738.34 C 305.74 738.74 307.43 739.28 309.18 740.07 C 309.18 741.38 309.19 742.69 309.20 743.99 C 315.91 745.80 322.71 746.92 329.63 747.47 C 331.67 750.27 333.98 753.18 336.75 755.29 C 337.25 755.67 337.91 755.78 338.71 755.63 C 341.77 753.52 344.34 750.53 346.46 747.49 C 353.36 746.88 360.21 745.82 366.89 743.96 C 366.89 742.85 366.90 741.74 366.91 740.63 C 368.14 740.21 369.38 739.79 370.61 739.35 C 374.75 744.48 378.85 749.55 382.04 755.35 C 388.57 768.46 392.02 782.94 391.37 797.61 C 389.17 805.10 388.59 814.05 383.42 820.46 C 380.13 824.59 375.18 826.32 370.00 826.29 C 359.28 826.26 348.89 822.53 338.00 822.82 C 326.76 822.54 316.08 826.57 305.00 826.23 C 300.19 826.11 295.53 824.36 292.63 820.38 C 287.15 812.81 286.48 804.29 284.72 795.63 C 284.64 794.08 284.57 792.53 284.50 790.98 C 277.53 794.34 269.83 799.96 262.02 802.05 C 260.25 802.64 258.95 801.98 257.31 801.42 C 257.64 795.36 262.43 789.63 265.72 784.72 C 277.80 768.66 291.34 753.56 305.64 739.45 C 305.05 739.08 304.46 738.71 303.86 738.34 Z" fill="#9fd1d0" />
<path d="M 329.63 747.47 C 335.24 747.78 340.85 747.74 346.46 747.49 C 344.34 750.53 341.77 753.52 338.71 755.63 C 337.91 755.78 337.25 755.67 336.75 755.29 C 333.98 753.18 331.67 750.27 329.63 747.47 Z" fill="#dba077" />
<path d="M 335.40 762.43 C 337.34 760.39 340.79 761.18 341.46 763.95 C 342.14 766.12 340.19 768.39 338.00 768.27 C 335.04 768.20 333.34 764.70 335.40 762.43 Z" fill="#fcfffe" />
<path d="M 337.44 784.50 C 339.57 784.12 341.58 785.84 341.60 788.00 C 341.54 790.78 338.46 792.51 336.11 790.96 C 333.52 789.26 334.33 785.03 337.44 784.50 Z" fill="#faffff" />
<path d="M 284.72 795.63 C 286.48 804.29 287.15 812.81 292.63 820.38 C 295.53 824.36 300.19 826.11 305.00 826.23 C 316.08 826.57 326.76 822.54 338.00 822.82 C 348.89 822.53 359.28 826.26 370.00 826.29 C 375.18 826.32 380.13 824.59 383.42 820.46 C 388.59 814.05 389.17 805.10 391.37 797.61 C 392.06 805.81 390.62 813.62 389.81 821.76 C 388.95 825.69 388.07 829.82 386.61 833.58 C 384.13 837.89 381.45 841.66 376.51 843.31 C 369.57 845.58 361.02 843.40 353.96 842.36 C 344.38 840.49 335.50 840.17 325.86 841.80 C 324.62 841.95 323.39 842.13 322.15 842.32 C 314.99 843.42 305.91 845.74 298.95 843.09 C 293.94 841.27 291.50 837.23 289.15 832.74 C 287.74 828.53 286.75 824.23 285.93 819.87 L 284.55 820.42 C 285.88 816.90 285.55 814.09 284.84 810.48 C 284.37 805.56 284.46 800.56 284.72 795.63 Z" fill="#83b7b5" />
<path d="M 852.20 835.98 C 849.56 839.46 846.68 842.67 844.26 846.27 C 838.73 854.43 834.59 863.63 832.40 873.25 C 831.31 877.71 830.91 882.24 830.03 886.74 C 804.11 886.89 778.19 886.70 752.27 886.67 C 751.52 881.01 750.84 875.40 749.17 869.92 C 745.29 855.67 737.32 843.13 726.88 832.79 C 727.57 831.85 728.25 830.90 729.02 830.03 C 741.44 817.01 758.20 808.31 776.01 805.76 C 804.40 801.22 834.78 813.04 852.20 835.98 Z" fill="#71bfed" />
<path d="M 91.02 807.86 C 104.90 811.16 117.63 818.26 128.04 827.97 C 128.64 828.74 130.22 829.78 129.85 830.86 C 128.55 832.80 126.76 834.46 125.23 836.23 C 115.99 846.95 109.76 860.08 107.13 873.98 C 106.20 878.43 106.12 882.97 105.29 887.44 C 70.20 887.60 35.09 887.44 0.00 887.29 L 0.00 847.24 C 3.16 842.72 6.15 837.90 9.78 833.80 C 17.50 824.96 27.15 817.65 37.89 812.89 C 54.30 805.26 73.46 803.60 91.02 807.86 Z" fill="#71bfed" />
<path d="M 611.82 834.70 C 608.66 838.30 605.53 841.89 602.83 845.87 C 594.25 858.19 589.53 872.64 588.47 887.58 C 563.13 887.64 537.79 887.47 512.45 887.50 C 512.12 876.48 509.94 865.67 505.44 855.58 C 501.90 847.25 496.75 839.94 490.87 833.12 C 489.14 831.30 490.76 830.35 491.93 828.94 C 503.49 817.78 518.17 809.96 534.00 807.03 C 562.56 801.34 593.35 812.16 611.82 834.70 Z" fill="#71bfed" />
<path d="M 336.25 808.25 C 338.53 806.98 341.38 808.36 341.56 810.99 C 341.77 813.59 339.33 815.31 336.91 814.54 C 334.17 813.55 333.62 809.75 336.25 808.25 Z" fill="#fdfeff" />
<path d="M 1024.00 807.88 L 1024.00 888.00 C 1014.04 887.70 1004.06 887.97 994.10 887.80 C 993.31 881.52 992.61 875.30 990.71 869.23 C 986.90 855.75 979.42 843.87 969.75 833.83 C 971.81 830.83 974.52 828.60 977.26 826.27 C 990.35 815.30 1006.92 808.65 1024.00 807.88 Z" fill="#71bfed" />
<path d="M 284.84 810.48 C 285.55 814.09 285.88 816.90 284.55 820.42 C 273.82 826.28 263.24 832.58 252.66 838.74 C 251.34 837.76 250.27 836.64 249.23 835.36 C 254.71 828.31 261.51 822.78 268.99 817.98 C 273.97 814.85 279.18 812.15 284.84 810.48 Z" fill="#71bfed" />
<path d="M 284.55 820.42 L 285.93 819.87 C 286.75 824.23 287.74 828.53 289.15 832.74 C 289.23 835.54 289.18 838.29 289.66 841.06 C 291.38 851.24 293.44 861.32 296.40 871.22 C 295.13 871.94 293.87 872.69 292.66 873.51 C 276.07 863.73 259.30 854.22 242.64 844.55 C 245.95 842.54 249.26 840.58 252.66 838.74 C 263.24 832.58 273.82 826.28 284.55 820.42 Z" fill="#4f2a18" />
<path d="M 389.81 821.76 C 403.03 829.32 416.26 836.89 429.35 844.66 C 413.09 853.47 397.33 863.28 381.11 872.17 L 379.70 871.21 C 382.86 861.29 384.62 851.36 386.45 841.14 C 386.94 838.62 386.88 836.12 386.61 833.58 C 388.07 829.82 388.95 825.69 389.81 821.76 Z" fill="#30150a" />
<path d="M 289.15 832.74 C 291.50 837.23 293.94 841.27 298.95 843.09 C 305.91 845.74 314.99 843.42 322.15 842.32 C 322.03 845.60 321.71 848.82 320.93 852.00 C 319.44 858.46 318.40 864.85 316.07 871.09 C 309.47 867.95 302.93 867.79 296.40 871.22 C 293.44 861.32 291.38 851.24 289.66 841.06 C 289.18 838.29 289.23 835.54 289.15 832.74 Z" fill="#5e4819" />
<path d="M 386.61 833.58 C 386.88 836.12 386.94 838.62 386.45 841.14 C 384.62 851.36 382.86 861.29 379.70 871.21 C 373.01 867.83 366.75 867.87 360.03 871.16 C 357.21 861.86 354.53 852.09 353.96 842.36 C 361.02 843.40 369.57 845.58 376.51 843.31 C 381.45 841.66 384.13 837.89 386.61 833.58 Z" fill="#5e4819" />
<path d="M 353.96 842.36 C 354.53 852.09 357.21 861.86 360.03 871.16 C 354.12 874.63 348.60 880.77 348.47 887.95 C 348.57 888.95 348.68 889.95 348.80 890.95 C 344.55 893.33 340.44 896.10 335.99 898.08 C 335.85 879.32 336.03 860.56 335.90 841.81 C 332.56 841.77 329.20 841.70 325.86 841.80 C 335.50 840.17 344.38 840.49 353.96 842.36 Z" fill="#30150a" />
<path d="M 325.86 841.80 C 329.20 841.70 332.56 841.77 335.90 841.81 C 336.03 860.56 335.85 879.32 335.99 898.08 L 335.51 898.12 C 332.37 896.42 329.34 894.52 326.20 892.83 C 326.72 891.21 327.26 889.59 327.74 887.95 C 327.16 880.50 322.19 874.87 316.07 871.09 C 318.40 864.85 319.44 858.46 320.93 852.00 C 321.71 848.82 322.03 845.60 322.15 842.32 C 323.39 842.13 324.62 841.95 325.86 841.80 Z" fill="#4f2a18" />
<path d="M 242.51 844.62 L 242.64 844.55 C 259.30 854.22 276.07 863.73 292.66 873.51 C 288.60 877.48 285.38 882.04 284.78 887.84 C 285.26 890.57 286.27 892.87 288.82 894.21 C 293.57 896.66 299.77 896.69 305.00 896.78 C 312.59 896.72 319.52 897.06 326.20 892.83 C 329.34 894.52 332.37 896.42 335.51 898.12 C 336.22 904.09 335.88 910.00 335.93 916.00 C 335.93 937.00 335.91 958.00 335.94 979.00 C 335.98 983.97 336.01 988.92 335.65 993.88 C 326.04 990.65 316.71 989.21 306.56 989.40 C 302.91 986.61 298.67 984.82 294.79 982.33 C 279.92 973.87 265.21 965.16 250.34 956.71 C 247.56 955.23 244.87 953.68 242.45 951.65 C 242.52 942.67 242.45 933.69 242.48 924.71 C 242.51 912.90 242.48 901.09 242.50 889.28 C 242.49 874.39 242.43 859.50 242.51 844.62 Z" fill="#cb8242" />
<path d="M 429.35 844.66 C 429.55 859.28 429.47 873.91 429.39 888.53 C 428.68 900.31 429.25 912.19 429.07 924.00 C 429.18 931.08 428.76 938.14 429.40 945.16 C 429.49 947.30 429.48 949.46 429.51 951.60 C 426.77 953.88 423.71 955.54 420.60 957.23 C 397.72 970.42 375.00 983.67 352.06 996.79 C 350.80 997.49 349.77 998.45 348.74 999.44 C 344.34 997.66 340.12 995.47 335.65 993.88 C 336.01 988.92 335.98 983.97 335.94 979.00 C 335.91 958.00 335.93 937.00 335.93 916.00 C 335.88 910.00 336.22 904.09 335.51 898.12 L 335.99 898.08 C 340.44 896.10 344.55 893.33 348.80 890.95 C 350.73 892.73 352.23 894.54 354.87 895.26 C 360.50 896.93 367.15 896.39 373.00 896.48 C 378.06 896.40 384.21 896.71 388.40 893.39 C 390.33 891.98 390.80 890.15 391.06 887.88 C 390.71 885.14 390.48 881.55 388.65 879.35 C 386.47 876.67 383.74 874.40 381.11 872.17 C 397.33 863.28 413.09 853.47 429.35 844.66 Z" fill="#a76743" />
<path d="M 316.07 871.09 C 322.19 874.87 327.16 880.50 327.74 887.95 C 313.46 887.49 299.08 887.70 284.78 887.84 C 285.38 882.04 288.60 877.48 292.66 873.51 C 293.87 872.69 295.13 871.94 296.40 871.22 C 302.93 867.79 309.47 867.95 316.07 871.09 Z" fill="#b37029" />
<path d="M 379.70 871.21 L 381.11 872.17 C 383.74 874.40 386.47 876.67 388.65 879.35 C 390.48 881.55 390.71 885.14 391.06 887.88 C 380.38 887.54 369.68 887.80 359.00 887.68 C 355.48 887.62 351.98 887.72 348.47 887.95 C 348.60 880.77 354.12 874.63 360.03 871.16 C 366.75 867.87 373.01 867.83 379.70 871.21 Z" fill="#b37029" />
<path d="M 284.78 887.84 C 299.08 887.70 313.46 887.49 327.74 887.95 C 327.26 889.59 326.72 891.21 326.20 892.83 C 319.52 897.06 312.59 896.72 305.00 896.78 C 299.77 896.69 293.57 896.66 288.82 894.21 C 286.27 892.87 285.26 890.57 284.78 887.84 Z" fill="#a05810" />
<path d="M 348.47 887.95 C 351.98 887.72 355.48 887.62 359.00 887.68 C 369.68 887.80 380.38 887.54 391.06 887.88 C 390.80 890.15 390.33 891.98 388.40 893.39 C 384.21 896.71 378.06 896.40 373.00 896.48 C 367.15 896.39 360.50 896.93 354.87 895.26 C 352.23 894.54 350.73 892.73 348.80 890.95 C 348.68 889.95 348.57 888.95 348.47 887.95 Z" fill="#a05810" />
<path d="M 111.01 889.32 C 116.99 889.04 123.01 889.31 129.00 889.25 C 162.67 889.33 196.33 889.38 230.00 889.45 C 234.17 889.52 238.33 889.51 242.50 889.28 C 242.48 901.09 242.51 912.90 242.48 924.71 C 237.54 928.10 232.94 931.78 227.65 934.65 C 205.65 946.86 178.16 948.14 155.19 937.81 C 138.40 930.66 124.33 917.25 115.79 901.19 C 113.74 897.36 111.82 893.63 111.01 889.32 Z" fill="#71bfed" />
<path d="M 429.39 888.53 C 430.20 893.71 429.85 898.79 429.88 904.00 C 429.89 912.67 429.89 921.33 429.88 930.00 C 429.85 935.11 430.20 940.08 429.40 945.16 C 428.76 938.14 429.18 931.08 429.07 924.00 C 429.25 912.19 428.68 900.31 429.39 888.53 Z" fill="#98a5ad" />
<path d="M 429.39 888.53 C 454.26 888.76 479.13 888.66 504.00 888.77 C 505.65 888.82 507.30 888.94 508.95 889.07 C 504.97 901.32 497.77 912.57 488.49 921.49 C 475.56 934.31 458.27 942.30 440.21 944.30 C 436.61 944.61 432.99 944.73 429.40 945.16 C 430.20 940.08 429.85 935.11 429.88 930.00 C 429.89 921.33 429.89 912.67 429.88 904.00 C 429.85 898.79 430.20 893.71 429.39 888.53 Z" fill="#71bfed" />
<path d="M 595.33 892.28 C 599.53 891.98 603.79 892.16 608.00 892.15 C 654.31 892.25 700.68 892.25 746.98 892.47 C 746.12 895.30 744.96 897.90 743.51 900.48 C 734.88 916.36 721.17 929.31 704.59 936.58 C 692.22 942.14 678.51 944.48 664.99 943.49 C 650.88 942.26 637.13 937.61 625.41 929.61 C 612.03 920.56 601.19 907.35 595.33 892.28 Z" fill="#71bfed" />
<path d="M 833.01 892.27 C 836.99 891.96 841.01 892.16 845.00 892.13 C 894.24 892.24 943.48 892.25 992.72 892.45 C 991.79 913.28 981.99 933.55 966.43 947.41 C 945.46 966.71 914.07 973.27 887.15 963.80 C 867.60 957.29 850.85 942.82 841.56 924.43 C 836.60 914.60 833.16 903.32 833.01 892.27 Z" fill="#71bfed" />
<path d="M 306.56 989.40 C 316.71 989.21 326.04 990.65 335.65 993.88 C 340.12 995.47 344.34 997.66 348.74 999.44 C 351.96 1001.85 355.32 1004.04 358.54 1006.44 C 364.82 1011.47 370.41 1017.42 375.03 1024.00 L 243.28 1024.00 C 257.56 1003.26 281.40 990.27 306.56 989.40 Z" fill="#71bfed" />
<path d="M 22.00 990.03 C 49.42 987.75 78.05 1001.02 93.34 1024.00 L 0.00 1024.00 L 0.00 994.72 C 7.09 992.25 14.51 990.58 22.00 990.03 Z" fill="#71bfed" />
<path d="M 205.48 997.47 C 218.11 1003.43 228.88 1012.66 236.98 1024.00 L 105.63 1024.00 C 116.71 1008.28 133.33 996.72 152.04 992.15 C 169.80 987.69 188.96 989.59 205.48 997.47 Z" fill="#71bfed" />
<path d="M 488.61 998.39 C 499.92 1004.37 510.51 1013.12 517.39 1024.00 L 385.79 1024.00 C 397.11 1008.06 413.78 996.25 432.86 991.68 C 451.49 987.14 471.60 989.54 488.61 998.39 Z" fill="#71bfed" />
<path d="M 632.28 998.75 C 643.34 1004.74 653.61 1013.36 660.44 1024.00 L 528.78 1024.00 C 531.24 1021.03 533.48 1017.92 536.13 1015.10 C 546.74 1003.42 561.13 995.18 576.46 991.53 C 595.19 987.18 615.29 989.70 632.28 998.75 Z" fill="#71bfed" />
<path d="M 773.67 998.35 C 785.10 1004.25 795.74 1013.07 802.64 1024.00 L 671.23 1024.00 C 682.82 1006.86 701.71 994.72 721.99 990.84 C 739.46 987.56 757.89 990.13 773.67 998.35 Z" fill="#71bfed" />
<path d="M 912.27 996.74 C 925.29 1002.59 937.17 1012.11 945.16 1024.00 L 814.16 1024.00 C 825.46 1007.47 843.26 995.72 862.85 991.61 C 879.33 987.96 896.87 989.86 912.27 996.74 Z" fill="#71bfed" />
<path d="M 1024.00 989.79 L 1024.00 1024.00 L 956.94 1024.00 C 962.73 1016.13 969.49 1009.10 977.65 1003.65 C 991.30 994.44 1007.51 989.50 1024.00 989.79 Z" fill="#71bfed" /></svg>