<?xml version="1.0" encoding="UTF-8" standalone="no"?>
<!DOCTYPE svg PUBLIC "-//W3C//DTD SVG 1.1//EN" "http://www.w3.org/Graphics/SVG/1.1/DTD/svg11.dtd">
<svg viewBox="0 0 1024 1024" height="1024.0pt" width="1024.0pt" xmlns="http://www.w3.org/2000/svg" version="1.1">
<path d="M 0.00 0.00 L 1.15 0.00 C 1.75 2.87 1.48 6.07 1.49 9.00 C 1.49 347.33 1.50 685.67 1.49 1024.00 L 0.00 1024.00 L 0.00 0.00 Z" fill="#ddfcff" />
<path d="M 1.15 0.00 L 1.65 0.00 C 2.65 0.70 3.76 1.04 4.98 1.03 C 337.99 1.00 670.99 1.03 1004.00 1.02 C 1010.67 1.04 1017.33 0.97 1024.00 1.07 L 1024.00 142.58 C 1022.17 143.56 1020.31 144.46 1018.54 145.55 C 843.66 256.65 668.82 367.81 493.97 478.95 C 457.44 502.10 420.26 525.70 383.63 548.61 C 378.72 551.52 374.28 555.07 369.31 557.88 C 369.45 557.21 369.58 556.55 369.71 555.88 C 386.93 542.07 399.75 522.20 407.92 501.86 C 409.53 497.59 411.53 493.73 411.77 489.31 C 403.70 491.93 395.54 493.70 387.00 493.56 C 381.37 493.62 375.69 492.39 370.21 491.19 C 349.68 484.82 333.04 471.50 315.54 459.45 C 300.96 449.47 285.12 439.81 268.48 433.73 C 253.52 428.46 237.85 425.79 222.00 425.67 C 207.60 425.54 193.14 427.18 179.01 429.95 C 159.63 433.34 141.23 439.65 123.16 447.29 C 114.77 451.42 107.40 457.97 103.23 466.42 C 99.22 473.67 98.25 482.87 97.74 491.00 C 98.07 500.29 99.54 509.47 102.06 518.41 C 96.57 518.38 91.39 518.92 86.44 521.45 C 82.84 523.39 80.03 526.85 79.54 530.98 C 78.51 543.93 81.31 555.44 83.78 567.99 C 84.35 571.55 85.29 575.01 86.27 578.48 C 89.65 592.23 93.29 605.93 97.30 619.50 C 99.46 626.64 101.14 634.00 103.80 640.96 C 104.14 642.45 104.45 643.95 104.76 645.45 C 103.53 645.69 102.29 645.92 101.05 646.15 C 103.00 653.60 106.60 660.63 109.22 667.87 C 110.10 670.39 111.20 671.33 113.47 672.62 C 113.80 673.43 114.10 674.25 114.39 675.08 L 114.77 676.61 C 110.60 677.27 107.79 679.03 105.74 682.73 C 102.17 689.59 102.06 698.46 102.56 706.00 C 103.82 716.60 105.64 727.24 111.73 736.26 C 116.54 743.25 124.46 747.70 133.00 747.63 C 138.03 747.84 142.46 746.31 147.24 745.06 C 163.40 771.55 180.84 796.10 204.12 816.87 C 209.30 820.97 214.94 823.54 220.55 826.85 L 219.65 827.36 L 219.52 827.44 C 220.27 827.81 221.02 828.17 221.78 828.54 C 221.76 841.03 221.70 853.51 221.80 866.00 C 221.64 867.83 222.14 869.62 219.69 869.69 C 220.05 870.09 220.41 870.48 220.78 870.87 C 218.63 871.30 216.50 871.81 214.39 872.38 C 192.69 878.59 172.54 889.57 155.38 904.19 C 153.52 905.66 151.58 907.02 149.73 908.51 C 143.49 913.52 138.63 919.40 133.49 925.49 C 127.42 932.34 122.51 939.66 117.19 947.11 C 115.74 949.39 113.53 952.36 114.47 955.22 C 115.99 957.29 118.02 959.05 120.02 960.64 C 107.07 980.51 96.46 1001.81 88.12 1024.00 L 1.49 1024.00 C 1.50 685.67 1.49 347.33 1.49 9.00 C 1.48 6.07 1.75 2.87 1.15 0.00 Z" fill="#1480ad" />
<path d="M 1.65 0.00 L 1024.00 0.00 L 1024.00 1.07 C 1017.33 0.97 1010.67 1.04 1004.00 1.02 C 670.99 1.03 337.99 1.00 4.98 1.03 C 3.76 1.04 2.65 0.70 1.65 0.00 Z" fill="#54add7" />
<path d="M 209.00 24.69 C 216.33 24.84 224.45 26.29 230.68 30.34 C 230.15 36.35 230.72 42.42 230.34 48.45 C 224.53 48.36 218.72 48.48 212.90 48.37 C 212.86 45.78 213.10 42.98 212.50 40.44 C 211.59 37.55 207.65 37.22 205.27 38.29 C 203.08 39.26 203.03 41.94 202.90 43.99 C 202.84 49.99 202.94 56.00 202.86 62.00 C 202.92 64.22 202.74 67.08 203.91 69.04 C 205.97 71.53 211.82 71.24 212.59 67.65 C 213.00 64.90 212.86 62.08 213.09 59.31 C 218.93 59.51 224.83 59.05 230.64 59.57 C 230.20 65.85 230.58 72.17 230.39 78.46 C 224.12 81.77 217.10 83.60 210.00 83.67 C 202.22 83.85 193.95 82.38 187.95 77.07 C 182.08 71.94 180.16 63.48 180.08 56.00 C 179.85 47.74 180.95 39.05 186.65 32.65 C 192.28 26.37 200.93 24.71 209.00 24.69 Z" fill="#fefffe" />
<path d="M 69.54 26.27 L 70.00 25.84 C 79.31 25.56 88.68 25.81 98.00 25.72 C 105.09 25.67 111.89 26.89 117.51 31.48 C 123.09 35.91 125.14 43.17 125.65 50.00 C 126.12 57.20 125.64 65.55 121.87 71.91 C 117.61 79.00 108.99 82.42 101.00 82.58 C 90.50 82.70 79.99 82.62 69.49 82.63 C 69.56 78.57 69.31 74.64 69.67 70.61 C 70.79 70.61 71.91 70.59 73.03 70.56 L 73.73 70.52 C 74.18 65.39 73.75 60.17 73.86 55.00 C 73.78 49.47 74.14 43.88 73.70 38.38 L 73.08 37.98 C 71.87 37.86 70.66 37.75 69.45 37.66 C 69.59 33.86 69.34 30.06 69.54 26.27 Z" fill="#fefffe" />
<path d="M 128.22 25.88 C 135.14 25.55 142.08 25.81 149.00 25.72 C 158.56 25.88 168.20 25.41 177.74 25.97 C 177.57 33.24 177.70 40.53 177.66 47.80 C 172.20 47.84 166.75 47.84 161.29 47.79 C 161.32 44.44 161.30 41.09 161.27 37.74 C 158.42 37.76 155.56 37.73 152.71 37.61 C 152.20 41.47 152.30 45.53 152.67 49.41 C 154.71 49.34 156.75 49.31 158.80 49.31 C 158.82 52.09 158.82 54.87 158.80 57.65 C 156.73 57.64 154.67 57.61 152.61 57.55 C 152.24 61.87 152.50 66.25 152.44 70.60 C 154.92 70.37 159.22 71.28 161.23 70.12 C 161.47 66.49 161.22 62.82 161.28 59.18 C 166.74 59.14 172.20 59.11 177.66 59.19 C 177.65 67.01 177.67 74.83 177.65 82.65 C 161.23 82.67 144.78 82.55 128.36 82.69 C 128.23 78.75 128.37 74.81 128.22 70.87 C 129.44 70.75 130.66 70.65 131.88 70.58 C 131.95 59.65 131.91 48.72 131.91 37.78 C 130.70 37.75 129.50 37.71 128.29 37.68 C 128.30 33.74 128.35 29.81 128.22 25.88 Z" fill="#fefffe" />
<path d="M 232.54 26.42 L 233.27 25.81 C 233.28 29.76 233.28 33.72 233.27 37.67 L 235.06 37.76 C 235.67 40.49 235.83 43.21 235.73 46.00 C 235.53 53.57 235.72 61.14 235.62 68.71 C 234.33 69.75 233.90 70.51 232.08 69.92 C 230.93 66.72 232.86 62.15 230.64 59.57 C 224.83 59.05 218.93 59.51 213.09 59.31 C 212.86 62.08 213.00 64.90 212.59 67.65 C 211.82 71.24 205.97 71.53 203.91 69.04 C 202.74 67.08 202.92 64.22 202.86 62.00 C 202.94 56.00 202.84 49.99 202.90 43.99 C 203.03 41.94 203.08 39.26 205.27 38.29 C 207.65 37.22 211.59 37.55 212.50 40.44 C 213.10 42.98 212.86 45.78 212.90 48.37 C 218.72 48.48 224.53 48.36 230.34 48.45 C 230.72 42.42 230.15 36.35 230.68 30.34 C 231.43 29.10 231.98 27.76 232.54 26.42 Z" fill="#1580ac" />
<path d="M 233.27 25.81 C 249.71 25.65 266.18 25.72 282.62 25.77 C 282.60 33.11 282.60 40.45 282.62 47.80 C 277.16 47.85 271.70 47.80 266.24 47.82 C 266.26 44.47 266.24 41.11 266.23 37.76 C 263.32 37.75 260.40 37.73 257.49 37.72 C 257.35 41.59 257.38 45.46 257.46 49.33 C 259.56 49.32 261.66 49.31 263.77 49.30 C 263.82 52.11 263.89 54.86 263.70 57.67 C 261.67 57.63 259.64 57.57 257.62 57.47 C 257.03 61.80 257.46 66.28 257.36 70.66 C 260.25 70.69 263.14 70.71 266.03 70.76 C 266.47 66.89 266.21 63.09 266.24 59.20 C 271.69 59.11 277.15 59.12 282.60 59.19 C 282.65 66.83 282.43 74.49 282.70 82.13 L 282.23 82.63 C 265.92 82.62 249.62 82.62 233.32 82.63 C 233.24 78.71 233.31 74.80 233.21 70.88 C 234.44 70.80 235.66 70.71 236.89 70.61 C 236.98 59.67 236.93 48.72 236.92 37.78 L 235.06 37.76 L 233.27 37.67 C 233.28 33.72 233.28 29.76 233.27 25.81 Z" fill="#fefffe" />
<path d="M 282.62 25.77 L 285.40 25.77 C 285.50 29.62 285.24 33.51 285.55 37.36 L 285.84 37.73 C 288.54 40.10 287.75 42.78 287.86 46.00 C 287.68 52.99 287.98 60.01 287.75 66.99 C 287.83 68.76 286.01 69.53 284.94 70.61 C 282.83 67.30 284.16 62.18 283.64 58.34 C 277.65 57.45 271.38 57.67 265.39 58.41 C 265.39 61.99 265.38 65.56 265.09 69.14 C 262.95 69.45 261.00 69.44 258.85 69.17 C 258.39 65.72 258.52 62.39 258.92 58.95 C 260.49 58.79 262.05 58.65 263.60 58.40 L 263.70 57.67 C 263.89 54.86 263.82 52.11 263.77 49.30 C 261.66 49.31 259.56 49.32 257.46 49.33 C 257.38 45.46 257.35 41.59 257.49 37.72 C 260.40 37.73 263.32 37.75 266.23 37.76 C 266.24 41.11 266.26 44.47 266.24 47.82 C 271.70 47.80 277.16 47.85 282.62 47.80 C 282.60 40.45 282.60 33.11 282.62 25.77 Z" fill="#1480ae" />
<path d="M 285.40 25.77 C 294.23 25.73 303.09 25.63 311.92 25.83 C 316.07 32.40 320.45 38.83 324.66 45.36 C 326.77 48.47 328.51 51.62 330.98 54.46 C 331.25 48.92 331.11 43.36 331.06 37.81 C 329.87 37.75 328.69 37.69 327.50 37.63 C 327.53 33.78 327.60 29.93 327.42 26.08 C 335.34 25.27 343.50 25.96 351.48 25.73 C 351.57 29.72 351.54 33.71 351.54 37.70 C 350.41 37.69 349.29 37.68 348.17 37.66 C 347.91 39.45 347.80 41.20 347.82 43.00 C 347.95 56.17 347.74 69.34 347.93 82.51 C 342.30 82.82 336.65 82.53 331.00 82.67 C 329.46 82.52 327.44 83.16 326.57 81.48 C 320.51 72.23 314.46 62.85 308.43 53.56 C 307.72 52.47 306.87 51.48 306.01 50.50 C 305.75 57.18 305.78 63.98 305.99 70.67 C 307.12 70.65 308.24 70.64 309.37 70.62 C 309.45 74.56 309.36 78.49 309.50 82.43 C 301.56 82.81 293.28 82.72 285.33 82.46 C 285.65 78.51 285.15 74.52 285.70 70.60 C 286.79 70.64 287.89 70.69 288.98 70.73 C 289.32 59.75 289.04 48.74 289.12 37.75 C 288.03 37.74 286.94 37.74 285.84 37.73 L 285.55 37.36 C 285.24 33.51 285.50 29.62 285.40 25.77 Z" fill="#fefffe" />
<path d="M 353.93 25.76 C 372.23 25.74 390.55 25.63 408.84 25.81 C 408.81 31.65 408.78 37.50 408.87 43.34 C 404.69 43.58 400.52 43.41 396.33 43.49 C 396.32 41.71 396.32 39.93 396.37 38.15 C 394.78 37.76 393.28 37.64 391.65 37.71 C 391.48 48.61 391.79 59.52 391.49 70.42 C 393.04 70.66 395.31 70.31 396.62 71.08 C 396.87 74.91 396.63 78.78 396.69 82.62 C 386.50 82.67 376.32 82.60 366.13 82.66 C 366.05 78.66 366.07 74.67 366.09 70.68 C 367.74 70.65 369.39 70.66 371.03 70.59 L 371.71 70.54 C 372.15 62.38 371.71 54.17 371.89 46.00 C 371.86 43.07 372.30 40.41 371.24 37.65 C 369.66 37.71 368.09 37.74 366.52 37.74 C 366.46 39.63 366.42 41.52 366.39 43.42 C 362.31 43.50 358.23 43.42 354.16 43.53 C 353.54 37.66 353.90 31.66 353.93 25.76 Z" fill="#fefffe" />
<path d="M 411.29 25.96 C 419.49 25.43 427.78 25.87 436.00 25.73 C 442.49 25.87 450.17 25.01 456.17 27.77 C 459.72 29.29 462.35 32.07 463.42 35.81 C 464.83 40.67 464.74 46.62 462.12 51.08 C 460.85 53.38 458.82 54.29 456.95 56.00 C 458.93 57.36 461.04 57.41 462.38 59.58 C 464.45 62.54 463.50 67.15 463.98 70.68 C 465.05 70.67 466.13 70.67 467.21 70.66 C 467.22 74.80 467.54 78.71 467.03 82.71 C 459.41 82.55 451.78 82.65 444.15 82.66 C 444.00 77.11 444.14 71.55 444.09 66.00 C 443.98 64.27 443.95 61.70 442.64 60.38 C 440.54 58.57 438.12 58.81 435.53 58.57 C 435.48 62.57 435.49 66.58 435.51 70.59 C 437.11 70.62 438.71 70.64 440.31 70.68 C 440.35 74.57 440.25 78.45 440.45 82.34 C 430.84 83.01 421.04 82.47 411.38 82.61 C 411.47 78.57 411.11 74.46 411.62 70.47 C 412.73 70.56 413.83 70.64 414.93 70.72 C 415.27 59.77 415.11 48.75 415.01 37.79 C 413.79 37.75 412.57 37.71 411.35 37.66 C 411.37 33.76 411.44 29.87 411.29 25.96 Z" fill="#fffffe" />
<path d="M 484.81 25.70 C 493.58 25.74 502.35 25.74 511.12 25.71 C 515.36 40.61 519.38 55.58 523.50 70.51 C 524.48 70.59 525.46 70.66 526.43 70.74 C 526.45 74.69 526.66 78.73 526.32 82.67 C 516.90 82.62 507.47 82.60 498.05 82.67 C 497.52 78.74 497.89 74.63 497.81 70.66 C 499.21 70.66 500.60 70.66 502.00 70.66 C 501.73 68.70 501.43 66.75 501.12 64.80 C 497.73 64.76 494.34 64.75 490.95 64.80 C 490.65 66.76 490.35 68.71 490.04 70.66 C 491.46 70.67 492.88 70.67 494.30 70.66 C 494.33 74.57 494.24 78.46 494.42 82.36 C 486.12 82.98 477.66 82.48 469.31 82.62 C 469.29 78.72 469.36 74.83 469.25 70.94 C 470.28 70.74 471.31 70.55 472.33 70.38 C 475.67 57.84 479.22 45.36 482.62 32.84 C 483.27 30.42 483.82 28.02 484.81 25.70 Z" fill="#fefffe" />
<path d="M 528.86 25.76 C 539.15 25.81 549.49 25.51 559.76 25.91 C 559.63 29.80 559.69 33.69 559.70 37.58 L 558.35 37.77 C 556.54 37.80 554.73 37.77 552.92 37.74 C 552.85 48.68 552.94 59.62 552.88 70.56 C 555.09 70.63 557.30 70.64 559.51 70.62 C 559.52 68.38 559.55 66.14 559.61 63.90 C 564.43 63.93 569.23 63.80 574.04 63.99 C 574.08 70.20 574.39 76.50 573.88 82.69 C 561.26 82.55 548.63 82.70 536.00 82.61 C 533.82 82.58 531.66 82.66 529.49 82.86 C 528.01 79.23 529.09 74.58 528.82 70.70 C 530.04 70.65 531.27 70.61 532.49 70.56 C 532.36 59.64 532.66 48.69 532.34 37.77 C 531.15 37.72 529.96 37.67 528.77 37.62 C 528.82 33.66 528.74 29.71 528.86 25.76 Z" fill="#fefffe" />
<path d="M 591.93 25.81 C 599.27 25.56 606.65 25.86 614.00 25.69 C 615.85 25.92 618.00 24.98 618.39 27.47 C 622.36 41.80 626.28 56.26 630.26 70.58 C 631.24 70.62 632.22 70.65 633.20 70.69 C 633.18 74.73 633.46 78.67 632.98 82.69 C 623.49 82.55 614.00 82.70 604.52 82.61 C 604.58 78.57 604.32 74.56 604.70 70.58 C 606.08 70.60 607.47 70.62 608.85 70.64 C 608.50 68.75 608.16 66.84 607.84 64.94 C 604.47 64.65 601.11 64.75 597.74 64.84 C 597.42 66.76 597.17 68.69 596.97 70.63 C 598.28 70.66 599.58 70.68 600.89 70.70 C 600.90 74.69 600.92 78.68 600.86 82.67 C 592.61 82.63 584.36 82.60 576.11 82.67 C 576.03 78.68 576.04 74.68 576.09 70.69 C 577.02 70.66 577.95 70.64 578.88 70.61 C 582.90 56.36 586.83 42.08 590.68 27.79 C 590.88 26.78 591.30 26.12 591.93 25.81 Z" fill="#fefffe" />
<path d="M 636.00 25.83 C 644.60 25.71 653.35 25.53 661.94 25.92 C 667.81 34.45 673.37 43.30 679.11 51.93 C 679.72 52.78 680.38 53.59 681.09 54.36 C 681.34 48.85 681.20 43.32 681.18 37.81 C 680.00 37.75 678.82 37.69 677.64 37.62 C 677.66 33.79 677.72 29.96 677.56 26.12 C 681.24 25.34 685.22 25.88 689.00 25.73 C 693.23 25.84 697.55 25.45 701.74 25.98 C 701.59 29.89 701.68 33.78 701.67 37.69 C 700.46 37.71 699.24 37.73 698.03 37.75 C 697.76 52.72 698.06 67.70 697.87 82.67 C 691.05 82.61 684.23 82.65 677.41 82.62 C 670.38 71.69 663.23 60.84 656.21 49.90 C 655.62 56.79 656.28 63.63 656.01 70.53 C 657.17 70.57 658.33 70.62 659.50 70.66 C 659.55 74.64 659.54 78.62 659.53 82.61 C 651.51 82.56 643.45 82.85 635.45 82.46 C 635.59 78.51 635.52 74.57 635.58 70.63 C 636.72 70.65 637.87 70.67 639.02 70.70 C 639.47 59.76 639.15 48.73 639.19 37.77 C 637.97 37.74 636.74 37.70 635.52 37.67 C 635.87 34.12 634.87 28.97 636.00 25.83 Z" fill="#fffffe" />
<path d="M 704.49 26.19 C 705.56 25.36 707.68 25.85 709.00 25.70 C 718.00 25.80 727.01 25.63 736.00 25.79 C 743.50 26.03 751.33 28.85 755.87 35.10 C 759.97 40.84 760.80 48.13 760.73 55.00 C 760.67 61.62 759.51 68.91 755.21 74.20 C 750.27 80.08 742.50 82.58 735.00 82.61 C 724.81 82.66 714.61 82.64 704.42 82.61 C 704.44 78.63 704.43 74.65 704.47 70.68 C 705.70 70.62 706.92 70.56 708.15 70.50 C 708.05 59.63 708.19 48.75 708.09 37.88 C 706.86 37.82 705.63 37.77 704.40 37.72 C 704.53 33.88 704.28 30.02 704.49 26.19 Z" fill="#fefffe" />
<path d="M 435.57 37.77 C 438.03 37.74 442.00 37.03 443.26 39.82 C 443.89 41.97 443.88 45.36 443.30 47.51 C 442.06 50.58 438.08 49.54 435.49 49.72 C 435.57 45.74 435.36 41.74 435.57 37.77 Z" fill="#1a7ea9" />
<path d="M 73.08 37.98 L 73.70 38.38 C 74.14 43.88 73.78 49.47 73.86 55.00 C 73.75 60.17 74.18 65.39 73.73 70.52 L 73.03 70.56 C 73.04 59.70 72.97 48.84 73.08 37.98 Z" fill="#c7f4ff" />
<path d="M 93.67 37.74 C 95.98 37.84 99.31 37.27 101.25 38.74 C 102.85 40.12 102.70 42.07 102.81 44.00 C 102.82 50.66 102.79 57.33 102.82 64.00 C 102.73 66.09 102.93 68.68 100.89 69.94 C 98.77 71.01 95.80 70.65 93.51 70.41 C 93.80 59.53 93.49 48.63 93.67 37.74 Z" fill="#1580ac" />
<path d="M 235.06 37.76 L 236.92 37.78 C 236.93 48.72 236.98 59.67 236.89 70.61 C 235.66 70.71 234.44 70.80 233.21 70.88 C 233.31 74.80 233.24 78.71 233.32 82.63 C 249.62 82.62 265.92 82.62 282.23 82.63 C 280.80 84.78 278.22 83.95 276.00 84.16 C 266.67 83.86 257.34 83.98 248.00 83.95 C 242.80 83.91 237.76 84.45 232.58 83.62 C 231.95 81.86 231.26 80.12 230.39 78.46 C 230.58 72.17 230.20 65.85 230.64 59.57 C 232.86 62.15 230.93 66.72 232.08 69.92 C 233.90 70.51 234.33 69.75 235.62 68.71 C 235.72 61.14 235.53 53.57 235.73 46.00 C 235.83 43.21 235.67 40.49 235.06 37.76 Z" fill="#317d9d" />
<path d="M 285.84 37.73 C 286.94 37.74 288.03 37.74 289.12 37.75 C 289.04 48.74 289.32 59.75 288.98 70.73 C 287.89 70.69 286.79 70.64 285.70 70.60 C 285.15 74.52 285.65 78.51 285.33 82.46 L 282.70 82.13 C 282.43 74.49 282.65 66.83 282.60 59.19 C 277.15 59.12 271.69 59.11 266.24 59.20 C 266.21 63.09 266.47 66.89 266.03 70.76 C 263.14 70.71 260.25 70.69 257.36 70.66 C 257.46 66.28 257.03 61.80 257.62 57.47 C 259.64 57.57 261.67 57.63 263.70 57.67 L 263.60 58.40 C 262.05 58.65 260.49 58.79 258.92 58.95 C 258.52 62.39 258.39 65.72 258.85 69.17 C 261.00 69.44 262.95 69.45 265.09 69.14 C 265.38 65.56 265.39 61.99 265.39 58.41 C 271.38 57.67 277.65 57.45 283.64 58.34 C 284.16 62.18 282.83 67.30 284.94 70.61 C 286.01 69.53 287.83 68.76 287.75 66.99 C 287.98 60.01 287.68 52.99 287.86 46.00 C 287.75 42.78 288.54 40.10 285.84 37.73 Z" fill="#3881a0" />
<path d="M 371.24 37.65 C 372.30 40.41 371.86 43.07 371.89 46.00 C 371.71 54.17 372.15 62.38 371.71 70.54 L 371.03 70.59 C 371.14 59.63 370.76 48.60 371.24 37.65 Z" fill="#caf6ff" />
<path d="M 552.92 37.74 C 554.73 37.77 556.54 37.80 558.35 37.77 C 557.00 38.31 555.68 38.89 554.36 39.49 C 554.08 44.33 554.27 49.16 554.24 54.00 C 554.32 59.39 553.92 64.64 554.68 70.01 L 552.88 70.56 C 552.94 59.62 552.85 48.68 552.92 37.74 Z" fill="#317693" />
<path d="M 728.61 37.72 C 730.94 37.83 734.28 37.26 736.23 38.76 C 738.03 40.30 737.70 42.88 737.80 45.00 C 737.74 51.68 737.82 58.35 737.78 65.03 C 737.77 67.27 737.36 69.38 735.06 70.33 C 732.97 70.80 730.68 70.62 728.55 70.61 C 728.62 59.65 728.50 48.69 728.61 37.72 Z" fill="#167fac" />
<path d="M 495.50 43.25 L 496.60 43.15 C 497.51 47.80 498.52 52.44 499.38 57.11 C 497.15 57.11 494.92 57.10 492.70 57.09 C 493.60 52.47 494.59 47.87 495.50 43.25 Z" fill="#1d7ca9" />
<path d="M 602.32 43.11 L 603.17 43.09 C 604.34 47.69 605.22 52.41 606.05 57.09 C 603.85 57.11 601.66 57.12 599.47 57.13 C 600.33 52.45 601.22 47.74 602.32 43.11 Z" fill="#1c7ea7" />
<path d="M 128.36 82.69 C 144.78 82.55 161.23 82.67 177.65 82.65 L 177.62 83.90 C 176.08 84.14 174.55 84.27 173.00 84.26 C 163.67 84.15 154.33 84.23 145.00 84.21 C 139.27 84.18 133.87 84.61 128.38 83.72 L 128.36 82.69 Z" fill="#267a9b" />
<path d="M 498.05 82.67 C 507.47 82.60 516.90 82.62 526.32 82.67 L 525.26 84.45 C 516.26 83.76 507.25 84.87 498.31 83.86 L 498.05 82.67 Z" fill="#277a99" />
<path d="M 529.49 82.86 C 531.66 82.66 533.82 82.58 536.00 82.61 C 548.63 82.70 561.26 82.55 573.88 82.69 L 573.66 83.89 C 561.87 84.85 549.85 83.80 538.00 84.25 C 535.11 84.16 531.86 84.94 529.49 82.86 Z" fill="#267a9a" />
<path d="M 163.82 114.69 C 168.59 114.78 173.38 114.58 178.15 114.77 C 180.95 116.55 183.01 119.66 185.44 121.94 C 185.49 124.70 185.47 127.46 185.40 130.22 C 183.64 130.20 181.88 130.20 180.12 130.20 C 180.08 128.22 180.01 126.24 179.90 124.26 C 178.60 123.09 177.31 121.07 175.67 120.47 C 172.77 120.26 169.24 120.26 166.33 120.47 C 164.90 121.28 163.78 122.73 162.63 123.89 C 162.64 126.92 162.65 129.95 162.70 132.97 C 163.79 134.04 164.88 135.11 165.97 136.19 C 170.54 136.18 175.06 136.11 179.63 136.24 C 181.63 138.58 184.06 140.61 185.87 143.09 C 186.40 147.30 186.14 151.80 186.04 156.06 C 184.70 158.83 181.65 161.24 179.51 163.51 C 176.56 164.24 173.07 163.65 170.00 163.83 C 167.66 163.70 164.71 164.24 162.52 163.45 C 160.22 161.41 158.30 158.95 156.09 156.80 C 156.07 154.02 156.04 151.23 156.01 148.45 C 157.82 148.43 159.64 148.40 161.45 148.39 C 161.46 150.30 161.25 152.35 161.64 154.23 C 162.77 155.67 164.19 157.45 165.93 158.14 C 168.95 158.35 172.01 158.26 175.04 158.22 C 177.23 158.43 178.66 156.39 179.83 154.85 C 180.34 151.70 180.24 148.24 179.91 145.07 C 179.10 143.88 178.00 142.84 177.00 141.80 C 172.43 141.75 167.86 141.79 163.29 141.76 C 161.11 139.48 158.96 137.18 156.73 134.94 C 156.53 130.62 156.62 126.29 156.65 121.96 C 159.10 119.42 161.15 116.84 163.82 114.69 Z" fill="#fcfffe" />
<path d="M 196.01 114.75 C 201.01 114.70 206.02 114.70 211.03 114.76 C 211.07 116.44 211.12 118.12 211.14 119.80 C 209.59 119.94 208.03 120.06 206.48 120.18 C 206.55 125.66 206.53 131.14 206.53 136.62 C 213.24 136.65 219.94 136.64 226.65 136.62 C 226.69 131.12 226.62 125.61 226.70 120.11 C 225.16 120.02 223.63 119.95 222.09 119.84 C 222.12 118.15 222.13 116.46 222.14 114.77 C 227.19 114.67 232.24 114.70 237.29 114.75 C 237.30 116.45 237.28 118.16 237.30 119.86 C 235.78 119.93 234.25 119.99 232.73 120.05 C 232.65 132.85 232.72 145.65 232.69 158.45 C 234.27 158.52 235.83 158.61 237.40 158.81 C 237.33 160.49 237.25 162.16 237.23 163.84 C 232.20 163.81 227.17 163.84 222.13 163.84 C 222.13 162.11 222.13 160.38 222.12 158.65 C 223.62 158.62 225.13 158.59 226.63 158.55 C 226.70 153.05 226.62 147.54 226.70 142.04 C 220.02 141.82 213.14 141.67 206.47 142.13 C 206.60 147.60 206.48 153.06 206.55 158.53 C 208.09 158.59 209.63 158.59 211.17 158.64 C 211.14 160.37 211.09 162.10 211.06 163.82 C 206.03 163.82 200.99 163.86 195.96 163.83 C 195.94 162.10 195.90 160.37 195.87 158.64 C 197.41 158.59 198.95 158.59 200.49 158.53 C 200.53 145.74 200.43 132.95 200.54 120.16 C 198.98 120.05 197.43 119.94 195.88 119.81 C 195.92 118.13 195.96 116.44 196.01 114.75 Z" fill="#fbfffe" />
<path d="M 247.16 114.79 C 252.65 114.77 258.24 114.45 263.70 114.96 C 263.66 116.58 263.64 118.20 263.63 119.81 C 261.87 119.92 260.10 120.02 258.34 120.12 C 258.43 132.94 258.33 145.76 258.39 158.59 C 260.07 158.57 261.74 158.54 263.41 158.51 C 263.57 160.27 263.63 162.02 263.67 163.78 C 258.17 163.87 252.66 163.82 247.16 163.82 C 247.16 162.11 247.15 160.40 247.13 158.69 C 248.92 158.68 250.66 158.57 252.43 158.32 C 252.21 145.57 252.45 132.81 252.32 120.05 C 250.58 119.99 248.85 119.93 247.11 119.85 C 247.14 118.16 247.15 116.48 247.16 114.79 Z" fill="#fcffff" />
<path d="M 273.97 114.82 C 282.34 114.63 290.76 114.69 299.14 114.78 C 301.94 116.53 304.01 119.65 306.41 121.93 C 306.44 126.97 306.45 132.00 306.39 137.04 C 304.00 139.30 301.91 142.50 299.09 144.16 C 294.10 144.38 289.08 144.16 284.09 144.20 C 284.13 149.01 283.80 153.80 284.12 158.61 C 285.86 158.62 287.59 158.61 289.33 158.61 C 289.31 160.35 289.24 162.09 289.19 163.83 C 283.93 163.80 278.67 163.86 273.40 163.79 C 273.43 162.07 273.45 160.34 273.47 158.62 C 275.01 158.59 276.54 158.51 278.08 158.49 C 278.06 145.70 278.08 132.91 278.06 120.12 C 276.50 120.01 274.94 119.92 273.38 119.81 C 273.57 118.45 272.94 115.75 273.97 114.82 Z" fill="#fdfffe" />
<path d="M 321.09 114.80 C 326.09 114.59 331.11 114.80 336.12 114.69 C 338.32 117.14 341.10 119.32 342.90 122.07 C 343.46 124.65 343.04 127.55 342.96 130.18 C 341.20 130.17 339.44 130.20 337.68 130.21 C 337.65 128.27 337.63 126.32 337.61 124.38 C 336.30 123.04 334.98 121.70 333.65 120.38 C 330.27 120.34 326.88 120.34 323.50 120.46 C 322.45 121.61 321.15 122.73 320.41 124.12 C 320.20 126.90 320.18 129.92 320.42 132.70 C 321.32 134.22 323.15 136.40 325.12 136.19 C 329.14 136.22 333.15 136.13 337.16 136.20 C 339.38 138.52 341.61 140.82 343.76 143.19 C 343.71 147.69 343.75 152.19 343.71 156.69 C 341.45 159.09 339.19 161.50 336.87 163.84 C 331.35 163.80 325.83 163.87 320.31 163.79 C 318.28 161.39 315.91 159.29 313.92 156.87 C 313.27 154.20 313.72 151.16 313.61 148.41 C 315.45 148.40 317.28 148.42 319.12 148.46 C 319.10 150.27 319.00 152.13 319.20 153.93 C 320.08 155.58 321.75 156.86 323.05 158.20 C 326.71 158.15 330.41 158.41 334.07 158.14 C 335.50 157.36 336.60 155.90 337.72 154.73 C 337.63 151.59 337.89 148.41 337.61 145.28 C 336.91 143.91 335.54 142.84 334.47 141.77 C 329.95 141.78 325.42 141.80 320.90 141.75 C 318.68 139.42 316.46 137.09 314.26 134.74 C 314.38 130.57 314.09 126.38 314.36 122.23 C 316.10 119.47 318.88 117.21 321.09 114.80 Z" fill="#fcfffe" />
<path d="M 384.09 114.75 C 389.87 114.68 395.65 114.75 401.43 114.71 C 401.39 116.29 401.83 118.30 401.24 119.76 L 398.61 120.19 C 402.34 133.01 406.07 145.88 410.11 158.61 C 411.17 158.60 412.23 158.59 413.28 158.59 C 413.29 160.34 413.24 162.09 413.19 163.83 C 408.62 163.82 404.05 163.78 399.48 163.90 C 399.44 162.13 399.40 160.35 399.42 158.58 C 400.91 158.58 402.40 158.57 403.89 158.57 C 402.94 155.16 402.04 151.75 400.80 148.43 C 395.39 148.62 389.96 148.46 384.55 148.52 C 383.52 151.88 382.29 155.08 381.96 158.61 C 383.35 158.62 384.74 158.62 386.13 158.62 C 386.11 160.36 386.06 162.09 386.04 163.83 C 381.43 163.82 376.82 163.85 372.22 163.81 C 372.21 162.12 372.21 160.42 372.19 158.73 C 373.29 158.66 374.40 158.59 375.50 158.51 C 379.32 145.74 383.13 132.95 386.95 120.17 C 385.98 120.06 385.00 119.95 384.03 119.84 C 384.06 118.14 384.08 116.44 384.09 114.75 Z" fill="#fcfffe" />
<path d="M 438.49 114.72 C 443.11 114.72 447.72 114.70 452.34 114.74 C 452.33 116.45 452.32 118.17 452.33 119.89 C 450.74 119.93 449.15 119.97 447.56 120.00 C 450.54 132.01 453.74 143.97 456.82 155.96 C 457.50 154.72 457.89 153.39 458.21 152.01 C 460.84 141.39 463.77 130.84 466.36 120.22 L 463.88 119.72 C 463.38 118.21 463.73 116.33 463.70 114.75 C 468.40 114.76 473.12 114.57 477.81 114.86 C 477.81 116.50 477.81 118.15 477.85 119.80 C 476.89 119.91 475.93 120.03 474.98 120.15 C 478.22 132.14 480.92 144.34 484.55 156.21 C 487.64 144.18 490.72 132.15 493.90 120.15 C 492.31 120.05 490.72 119.95 489.14 119.84 C 489.16 118.16 489.17 116.48 489.18 114.80 C 493.75 114.64 498.31 114.72 502.88 114.74 C 502.91 116.43 502.93 118.12 502.96 119.81 C 501.95 119.90 500.94 120.00 499.93 120.10 C 496.12 134.65 492.38 149.22 488.63 163.80 C 485.91 163.85 483.20 163.83 480.48 163.75 C 477.94 153.53 475.22 143.36 472.60 133.15 C 472.03 130.93 471.71 128.81 470.50 126.81 C 467.31 139.15 464.14 151.49 460.91 163.82 C 458.25 163.82 455.59 163.83 452.92 163.86 C 449.05 149.34 445.27 134.78 441.59 120.21 C 440.57 120.12 439.55 120.02 438.53 119.92 C 438.48 118.19 438.46 116.46 438.49 114.72 Z" fill="#fcfffe" />
<path d="M 509.59 114.72 C 514.64 114.81 519.73 114.49 524.76 114.92 C 524.75 116.55 524.74 118.19 524.75 119.83 C 523.22 119.93 521.69 120.01 520.16 120.11 C 520.20 125.62 520.15 131.14 520.20 136.66 C 526.92 136.46 533.74 136.99 540.43 136.38 C 540.18 130.92 540.40 125.46 540.29 120.00 C 538.77 119.96 537.25 119.92 535.72 119.88 C 535.74 118.17 535.76 116.46 535.77 114.75 C 540.80 114.70 545.82 114.67 550.85 114.77 C 550.87 116.45 550.89 118.14 550.91 119.83 C 549.38 119.94 547.85 120.04 546.31 120.15 C 546.40 132.95 546.30 145.75 546.37 158.55 C 547.87 158.59 549.38 158.62 550.88 158.65 C 550.87 160.37 550.87 162.09 550.88 163.81 C 545.86 163.85 540.84 163.80 535.82 163.85 C 535.78 162.13 535.72 160.40 535.72 158.68 C 537.30 158.65 538.85 158.56 540.41 158.30 C 540.18 152.82 540.43 147.35 540.26 141.88 C 533.56 141.93 526.86 141.78 520.17 141.95 C 520.18 147.52 520.16 153.09 520.21 158.66 C 521.62 158.58 523.03 158.49 524.44 158.40 C 524.74 160.19 524.75 161.98 524.77 163.79 C 519.73 163.88 514.69 163.76 509.65 163.88 C 509.59 162.11 509.55 160.35 509.55 158.58 C 511.03 158.60 512.50 158.62 513.97 158.64 C 514.37 145.80 514.05 132.90 514.13 120.04 C 512.61 120.00 511.09 119.95 509.57 119.89 C 509.59 118.17 509.58 116.45 509.59 114.72 Z" fill="#fcfffe" />
<path d="M 569.96 114.70 C 575.36 114.76 580.77 114.61 586.16 114.77 C 588.98 116.51 591.07 119.64 593.46 121.94 C 593.54 131.96 593.42 141.98 593.52 152.00 C 593.48 153.58 593.67 155.32 593.20 156.84 C 591.22 159.30 588.84 161.43 586.73 163.79 C 580.56 163.88 574.39 163.81 568.21 163.83 C 565.91 161.45 563.65 159.05 561.41 156.62 C 561.43 145.46 561.38 134.22 561.42 123.08 C 561.32 121.28 563.53 119.86 564.56 118.55 C 566.12 117.19 567.64 114.38 569.96 114.70 Z" fill="#fbfffe" />
<path d="M 604.03 114.74 C 609.29 114.76 614.56 114.58 619.82 114.84 C 619.80 116.52 619.79 118.20 619.80 119.88 C 618.06 119.93 616.32 119.95 614.58 119.99 C 614.46 132.80 614.66 145.61 614.48 158.41 C 619.22 158.76 623.99 158.50 628.75 158.59 C 628.76 156.10 628.81 153.60 628.84 151.10 C 630.49 151.11 632.14 151.11 633.79 151.10 C 633.79 155.33 633.80 159.57 633.78 163.80 C 623.84 163.87 613.90 163.79 603.95 163.84 C 603.96 162.10 603.96 160.36 603.97 158.62 C 605.48 158.59 607.00 158.59 608.51 158.55 C 608.55 145.76 608.46 132.96 608.56 120.17 C 607.01 120.05 605.45 119.94 603.90 119.80 C 603.95 118.12 603.99 116.43 604.03 114.74 Z" fill="#fbffff" />
<path d="M 640.27 114.94 C 650.63 114.43 661.09 114.86 671.48 114.72 C 671.55 118.99 671.53 123.26 671.53 127.53 C 669.79 127.55 668.05 127.57 666.31 127.59 C 666.28 125.13 666.28 122.66 666.33 120.20 C 661.24 119.70 656.06 119.94 650.95 120.04 C 650.92 125.58 650.71 131.15 651.07 136.67 C 656.15 136.62 661.23 136.62 666.30 136.67 C 666.28 138.40 666.24 140.14 666.24 141.87 C 661.15 141.91 656.06 141.82 650.97 141.96 C 650.91 147.50 650.68 153.09 651.12 158.62 C 655.99 158.46 660.88 158.76 665.74 158.50 C 666.87 156.86 666.06 153.20 666.26 151.12 C 667.99 151.10 669.73 151.09 671.46 151.05 C 671.54 155.34 671.65 159.61 671.42 163.89 C 661.05 163.75 650.68 163.90 640.31 163.81 C 640.35 162.08 640.37 160.35 640.38 158.62 C 641.90 158.59 643.42 158.50 644.95 158.48 C 644.82 145.68 644.91 132.88 644.90 120.08 C 643.38 119.99 641.86 119.92 640.33 119.83 C 640.33 118.20 640.30 116.57 640.27 114.94 Z" fill="#faffff" />
<path d="M 284.17 120.40 C 288.32 120.36 292.53 120.24 296.67 120.47 C 298.29 121.09 299.53 123.05 300.76 124.25 C 300.76 127.74 300.77 131.23 300.75 134.71 C 299.51 135.89 298.23 137.87 296.62 138.46 C 292.47 138.73 288.28 138.42 284.12 138.59 C 284.09 132.54 283.92 126.44 284.17 120.40 Z" fill="#1580ac" />
<path d="M 571.14 120.47 C 575.05 120.23 579.02 120.37 582.93 120.39 C 584.82 120.23 586.21 122.76 587.46 123.90 C 587.44 133.60 587.48 143.33 587.46 153.03 C 587.71 155.44 585.43 156.63 584.02 158.23 C 579.64 158.22 575.27 158.20 570.90 158.27 C 569.72 157.09 568.55 155.89 567.40 154.68 C 567.48 145.11 567.43 135.54 567.42 125.98 C 567.06 123.62 569.22 121.41 571.14 120.47 Z" fill="#1580ad" />
<path d="M 392.37 122.13 L 392.99 122.24 C 395.20 129.17 397.42 136.19 399.17 143.25 C 394.87 143.32 390.58 143.28 386.29 143.32 C 387.96 136.18 390.33 129.17 392.37 122.13 Z" fill="#1780ab" />
<path d="M 1024.00 142.58 L 1024.00 273.94 C 1021.77 275.25 1018.93 276.32 1017.16 278.22 C 1015.93 279.83 1016.05 282.95 1017.87 284.14 C 1019.77 285.51 1021.98 286.47 1024.00 287.65 L 1024.00 348.22 C 977.50 322.35 921.53 315.01 869.84 327.47 C 818.98 339.36 773.23 370.59 743.36 413.39 C 739.12 419.30 735.38 425.49 731.74 431.78 C 730.84 432.86 729.95 433.90 729.22 435.11 C 714.12 463.37 705.48 494.99 704.10 527.00 C 703.68 532.46 703.73 537.64 704.24 543.09 C 705.06 585.03 718.83 626.72 742.91 661.04 C 753.98 676.80 767.07 691.26 781.94 703.51 C 800.20 718.85 821.18 731.01 843.45 739.51 C 895.18 759.29 954.24 758.02 1005.10 736.12 C 1011.60 733.46 1017.66 729.99 1024.00 727.03 L 1024.00 1008.49 C 855.64 945.37 687.28 882.23 518.94 819.06 C 474.27 802.25 428.06 785.28 383.80 768.52 C 377.57 766.33 371.14 763.24 364.56 762.47 C 363.66 771.90 365.66 782.29 363.61 791.59 L 362.72 790.73 C 365.67 780.75 363.29 772.36 363.42 762.18 C 362.63 745.70 362.12 729.26 361.44 712.77 L 361.78 711.77 C 363.95 710.28 366.58 710.29 368.80 708.88 C 372.71 706.51 376.46 704.67 378.55 700.34 C 380.92 697.79 383.28 695.58 384.36 692.14 C 385.34 689.09 387.59 686.16 387.43 683.00 C 387.44 678.92 387.76 674.49 386.78 670.51 C 384.78 663.38 381.92 656.75 375.99 652.02 C 371.26 647.03 365.17 645.90 358.84 642.83 C 358.20 618.59 357.02 594.08 356.26 569.86 C 356.15 568.45 356.01 567.05 355.82 565.65 C 360.48 562.44 365.04 559.08 369.71 555.88 C 369.58 556.55 369.45 557.21 369.31 557.88 C 374.28 555.07 378.72 551.52 383.63 548.61 C 420.26 525.70 457.44 502.10 493.97 478.95 C 668.82 367.81 843.66 256.65 1018.54 145.55 C 1020.31 144.46 1022.17 143.56 1024.00 142.58 Z" fill="#0b4864" />
<path d="M 209.11 193.78 C 213.44 193.77 217.81 193.57 222.14 193.79 C 223.13 194.46 223.55 195.88 224.10 196.90 C 229.92 209.65 235.69 222.42 241.65 235.10 C 241.84 223.09 241.62 211.08 241.75 199.07 C 240.22 198.98 238.69 198.89 237.16 198.80 C 237.18 197.14 237.18 195.49 237.17 193.84 C 242.22 193.60 247.28 193.76 252.33 193.74 C 252.33 195.44 252.31 197.14 252.32 198.84 C 250.80 198.91 249.29 198.98 247.77 199.05 C 247.71 213.63 247.75 228.21 247.76 242.78 C 244.68 242.83 241.61 242.83 238.53 242.68 C 233.30 230.64 227.56 218.81 222.22 206.81 C 221.48 205.12 220.64 203.52 219.67 201.96 C 219.53 213.81 219.65 225.66 219.60 237.52 C 221.13 237.58 222.67 237.61 224.20 237.67 C 224.19 239.37 224.20 241.10 224.12 242.80 C 219.16 242.85 214.19 242.71 209.23 242.88 C 209.13 241.12 209.08 239.37 209.04 237.61 C 210.56 237.59 212.08 237.59 213.59 237.57 C 213.59 224.77 213.56 211.97 213.61 199.18 C 212.09 199.05 210.58 198.93 209.07 198.78 C 209.09 197.12 209.10 195.45 209.11 193.78 Z" fill="#fdfffe" />
<path d="M 262.14 193.83 C 272.53 193.61 282.93 193.76 293.32 193.76 C 293.38 197.95 293.28 202.14 293.42 206.33 C 291.67 206.54 289.92 206.60 288.16 206.64 C 288.15 204.08 288.07 201.53 288.02 198.97 C 282.95 198.85 277.87 198.85 272.80 198.99 C 272.81 204.56 272.51 210.18 272.95 215.73 C 277.99 215.58 283.04 215.65 288.08 215.68 C 288.07 217.41 288.05 219.13 288.04 220.85 C 282.96 220.87 277.88 220.81 272.80 220.90 C 272.68 226.44 272.79 231.97 272.73 237.50 C 277.85 237.65 282.99 237.65 288.12 237.50 C 288.10 234.99 288.10 232.49 288.11 229.98 C 289.85 230.00 291.59 230.01 293.33 230.02 C 293.32 234.30 293.45 238.57 293.24 242.85 C 282.89 242.76 272.53 242.84 262.18 242.80 C 262.18 241.09 262.15 239.39 262.11 237.69 C 263.64 237.66 265.16 237.57 266.69 237.54 C 266.75 224.73 266.66 211.92 266.74 199.11 C 265.21 199.01 263.67 198.92 262.14 198.81 C 262.16 197.15 262.15 195.49 262.14 193.83 Z" fill="#fbfffe" />
<path d="M 299.88 193.78 C 304.50 193.74 309.16 193.59 313.77 193.88 C 313.76 195.53 313.76 197.17 313.77 198.82 C 312.17 198.90 310.58 198.96 308.98 199.04 C 312.10 211.09 314.93 223.29 318.53 235.20 C 321.61 223.19 324.68 211.17 327.86 199.19 C 326.94 199.05 326.02 198.91 325.10 198.77 C 325.11 197.11 325.12 195.44 325.13 193.78 C 329.83 193.67 334.53 193.74 339.24 193.74 C 339.23 195.40 339.19 197.05 339.18 198.71 L 336.62 199.12 C 336.61 201.09 337.44 203.12 337.90 205.03 C 340.49 215.03 343.08 225.05 345.67 235.05 C 347.39 230.73 348.19 226.02 349.47 221.53 C 351.30 214.02 353.60 206.59 355.09 199.00 C 353.58 198.96 352.07 198.92 350.55 198.87 C 350.56 197.16 350.54 195.45 350.56 193.74 C 355.17 193.72 359.77 193.71 364.38 193.75 C 364.41 195.45 364.37 197.16 364.33 198.86 C 363.29 198.98 362.24 199.10 361.20 199.23 C 357.56 213.80 353.80 228.37 349.92 242.88 C 347.29 242.80 344.65 242.79 342.02 242.84 C 338.67 230.55 335.65 218.17 332.36 205.87 C 331.26 207.50 331.00 209.30 330.52 211.16 C 327.84 221.69 325.02 232.18 322.38 242.73 C 319.67 242.81 316.96 242.83 314.24 242.78 C 310.50 228.23 306.66 213.71 302.95 199.15 C 301.92 199.02 300.89 198.89 299.86 198.76 C 299.88 197.10 299.88 195.44 299.88 193.78 Z" fill="#fcfffe" />
<path d="M 390.01 193.76 C 394.62 193.75 399.25 193.60 403.84 193.85 C 403.82 195.50 403.81 197.15 403.82 198.79 C 402.23 198.89 400.63 198.96 399.03 199.05 C 401.48 208.89 404.13 218.68 406.62 228.51 C 407.15 230.77 407.77 232.98 408.63 235.14 C 411.68 223.14 414.80 211.15 417.92 199.17 C 417.00 199.02 416.07 198.88 415.14 198.73 C 415.16 197.09 415.17 195.45 415.17 193.81 C 419.88 193.64 424.59 193.75 429.31 193.75 C 429.31 195.45 429.26 197.14 429.19 198.84 C 428.27 198.98 427.34 199.11 426.41 199.24 C 429.56 210.85 432.47 222.52 435.50 234.16 C 436.24 233.60 436.70 232.88 436.86 232.00 C 439.64 221.02 442.56 210.07 445.33 199.09 C 443.76 199.01 442.19 198.92 440.62 198.83 C 440.63 197.13 440.62 195.44 440.62 193.74 C 445.23 193.71 449.85 193.72 454.46 193.74 C 454.48 195.46 454.46 197.16 454.39 198.88 C 453.35 199.00 452.32 199.12 451.28 199.25 C 447.61 213.79 443.92 228.35 439.99 242.83 C 437.36 242.80 434.72 242.79 432.08 242.80 C 428.72 230.50 425.73 218.10 422.39 205.79 C 421.05 208.42 420.61 211.17 419.86 213.99 C 417.40 223.58 414.88 233.15 412.44 242.74 C 409.74 242.81 407.04 242.84 404.33 242.80 C 400.54 228.24 396.78 213.67 392.99 199.12 C 391.96 199.00 390.94 198.88 389.91 198.76 C 389.95 197.09 389.98 195.43 390.01 193.76 Z" fill="#fcfffe" />
<path d="M 467.94 193.76 C 473.99 193.64 480.06 193.79 486.12 193.69 C 488.54 196.64 493.93 199.75 493.18 204.00 C 493.12 213.67 493.15 223.34 493.17 233.01 C 493.80 236.97 488.54 239.32 486.90 242.67 C 480.36 242.88 473.76 242.94 467.22 242.64 C 465.62 240.11 463.20 238.01 461.14 235.77 C 461.14 224.23 460.97 212.61 461.22 201.09 C 463.02 198.38 465.68 196.12 467.94 193.76 Z" fill="#fcfffe" />
<path d="M 503.59 193.73 C 512.38 193.78 521.17 193.62 529.96 193.81 C 531.98 196.24 534.37 198.34 536.34 200.81 C 536.91 205.60 536.47 210.65 536.49 215.49 C 534.67 217.77 530.98 220.29 530.11 222.93 C 532.04 227.89 534.61 232.61 536.71 237.51 C 537.88 237.55 539.05 237.60 540.21 237.64 C 540.20 239.37 540.13 241.10 540.07 242.83 C 536.02 242.78 531.97 242.80 527.93 242.82 C 527.91 241.16 527.89 239.51 527.91 237.86 C 528.69 237.63 529.47 237.39 530.24 237.15 C 527.89 232.32 525.74 227.39 523.40 222.55 C 520.35 222.53 517.30 222.51 514.25 222.53 C 514.19 227.54 514.21 232.56 514.23 237.57 C 515.54 237.60 516.84 237.62 518.15 237.65 C 518.15 239.37 518.16 241.10 518.09 242.81 C 513.26 242.83 508.43 242.75 503.61 242.86 C 503.58 241.10 503.59 239.33 503.58 237.57 C 505.04 237.59 506.51 237.62 507.97 237.65 C 508.44 224.81 508.09 211.90 508.16 199.04 C 506.63 198.98 505.11 198.92 503.59 198.84 C 503.60 197.14 503.59 195.43 503.59 193.73 Z" fill="#fcfffe" />
<path d="M 549.28 193.97 C 554.53 193.44 559.89 193.82 565.17 193.78 C 565.17 195.46 565.18 197.14 565.18 198.82 C 563.45 198.87 561.73 198.95 560.00 199.00 C 559.91 211.87 559.74 224.78 560.09 237.64 C 564.81 237.55 569.53 237.65 574.25 237.55 C 574.16 235.00 574.20 232.49 574.40 229.94 C 576.00 230.02 577.59 230.10 579.19 230.16 C 579.22 234.38 579.34 238.60 579.11 242.82 C 569.18 242.76 559.24 242.85 549.30 242.76 C 549.34 240.99 549.41 239.23 549.57 237.46 C 551.00 237.53 552.43 237.59 553.86 237.65 C 553.96 224.78 553.89 211.91 553.90 199.04 C 552.38 198.96 550.86 198.90 549.34 198.80 C 549.34 197.19 549.32 195.58 549.28 193.97 Z" fill="#fefffe" />
<path d="M 585.75 193.75 C 593.50 193.69 601.25 193.76 609.00 193.70 C 610.52 193.80 612.47 193.40 613.84 194.10 C 616.21 196.18 618.18 198.70 620.41 200.92 C 620.51 211.28 620.37 221.64 620.48 232.00 C 620.38 233.48 620.76 235.46 619.57 236.56 C 617.69 238.64 615.65 240.55 613.89 242.75 C 604.51 242.92 595.11 242.70 585.72 242.88 C 585.71 241.14 585.73 239.41 585.72 237.68 C 587.30 237.64 588.85 237.54 590.41 237.31 C 590.18 224.58 590.41 211.83 590.29 199.09 C 588.78 199.00 587.27 198.91 585.75 198.82 C 585.76 197.13 585.75 195.44 585.75 193.75 Z" fill="#fcfffe" />
<path d="M 471.98 199.38 C 475.85 199.31 479.73 199.41 483.61 199.38 C 484.68 200.35 485.76 201.33 486.83 202.32 C 487.24 212.79 486.91 223.31 487.03 233.80 C 485.89 234.96 484.67 236.62 483.11 237.19 C 479.40 237.36 475.67 237.22 471.96 237.24 C 469.89 237.49 468.47 235.07 467.12 233.81 C 467.15 223.58 466.96 213.28 467.20 203.07 C 468.13 201.52 469.93 199.09 471.98 199.38 Z" fill="#1580ad" />
<path d="M 514.31 199.43 C 518.46 199.33 522.71 199.24 526.85 199.49 C 528.43 200.04 529.67 202.03 530.89 203.17 C 530.91 206.44 530.90 209.71 530.92 212.98 C 529.72 214.28 528.52 215.94 526.94 216.79 C 522.71 217.06 518.45 216.80 514.21 216.87 C 514.29 211.06 514.05 205.23 514.31 199.43 Z" fill="#1680ac" />
<path d="M 596.45 199.45 C 600.93 199.30 605.45 199.37 609.93 199.39 C 611.80 199.24 613.17 201.76 614.42 202.89 C 614.32 213.24 614.53 223.60 614.32 233.94 C 613.19 235.03 612.06 236.13 610.95 237.24 C 606.07 237.14 601.14 237.50 596.28 237.02 C 596.52 224.51 596.18 211.95 596.45 199.45 Z" fill="#1580ad" />
<path d="M 486.83 202.32 L 487.76 203.21 C 488.10 213.08 487.87 223.00 487.77 232.87 L 487.03 233.80 C 486.91 223.31 487.24 212.79 486.83 202.32 Z" fill="#d1fcff" />
<path d="M 209.23 242.88 C 214.19 242.71 219.16 242.85 224.12 242.80 L 223.77 243.92 C 219.07 244.43 213.94 244.71 209.29 243.75 L 209.23 242.88 Z" fill="#2d7898" />
<path d="M 467.22 242.64 C 473.76 242.94 480.36 242.88 486.90 242.67 L 486.31 243.70 C 481.68 244.67 476.72 244.26 472.00 244.32 C 470.12 244.06 468.13 244.73 467.22 242.64 Z" fill="#2b7898" />
<path d="M 503.61 242.86 C 508.43 242.75 513.26 242.83 518.09 242.81 L 517.70 244.56 C 513.78 244.26 509.91 244.25 505.99 244.27 C 504.99 244.36 504.20 243.89 503.61 242.86 Z" fill="#2a7a97" />
<path d="M 585.72 242.88 C 595.11 242.70 604.51 242.92 613.89 242.75 L 612.87 243.93 C 605.97 244.71 598.94 244.07 592.00 244.36 C 589.97 244.17 586.94 244.89 585.72 242.88 Z" fill="#2d7897" />
<path d="M 1024.00 273.94 L 1024.00 287.65 C 1021.98 286.47 1019.77 285.51 1017.87 284.14 C 1016.05 282.95 1015.93 279.83 1017.16 278.22 C 1018.93 276.32 1021.77 275.25 1024.00 273.94 Z" fill="#e7b763" />
<path d="M 1024.00 348.22 L 1024.00 409.89 C 1015.36 409.39 1006.87 406.81 998.33 405.53 C 991.93 404.12 985.51 404.02 978.98 404.33 C 976.52 404.37 974.18 405.50 972.55 407.32 C 971.00 409.82 971.58 413.47 973.13 415.87 C 978.02 423.97 985.53 430.36 991.99 437.01 C 993.64 438.81 995.54 440.85 996.39 443.17 C 997.07 447.07 995.18 450.96 995.94 455.01 C 996.61 459.90 998.67 466.04 1003.15 468.71 C 1008.45 471.71 1013.59 469.24 1018.94 471.64 C 1015.92 473.59 1014.13 476.99 1011.11 479.11 C 1002.44 488.12 993.37 496.62 984.53 505.47 C 980.07 510.40 974.78 514.35 970.48 519.46 C 956.98 532.16 944.17 544.97 931.00 557.99 C 922.38 565.67 914.55 574.23 906.22 582.24 C 900.69 586.62 896.30 592.32 891.16 597.17 C 885.17 602.50 879.74 608.41 873.89 613.89 C 871.05 617.11 868.01 619.92 864.78 622.74 C 856.30 631.15 847.96 639.75 839.19 647.86 C 837.35 643.65 838.94 638.97 837.30 634.87 C 836.86 638.25 836.66 641.69 836.78 645.10 C 836.47 635.40 835.49 626.69 839.08 617.44 C 841.64 609.96 847.92 605.78 851.18 598.46 C 853.55 591.64 862.10 588.10 868.45 586.17 C 876.50 583.09 885.43 582.75 893.36 579.48 C 894.39 576.98 895.58 574.79 895.64 572.02 C 895.94 566.06 895.75 560.07 895.49 554.11 C 894.95 549.07 894.14 544.06 893.70 539.01 C 893.93 531.03 887.40 523.80 886.05 515.86 C 885.12 512.04 886.44 508.75 886.37 504.99 C 885.90 500.59 885.94 496.53 883.08 492.86 C 880.54 488.39 875.68 487.94 871.94 484.05 C 868.63 480.76 864.08 476.68 865.51 471.47 C 867.32 469.28 869.89 468.33 869.52 465.00 C 868.75 457.44 864.46 450.06 858.66 445.18 C 856.97 443.83 855.17 442.47 853.04 441.92 C 848.21 440.61 842.95 442.68 838.64 440.39 C 836.18 439.24 833.89 438.07 832.15 435.92 C 827.56 430.56 823.94 423.71 821.74 417.03 C 822.12 413.83 822.47 410.69 822.27 407.45 C 820.36 406.05 818.22 404.03 815.87 403.52 C 813.69 403.31 811.29 403.05 809.56 404.65 C 804.18 409.06 799.07 413.56 793.04 417.10 C 785.18 422.19 776.48 426.64 767.01 427.42 C 761.09 427.78 755.68 425.89 750.82 422.65 C 744.13 423.65 737.30 428.05 731.74 431.78 C 735.38 425.49 739.12 419.30 743.36 413.39 C 773.23 370.59 818.98 339.36 869.84 327.47 C 921.53 315.01 977.50 322.35 1024.00 348.22 Z" fill="#23beee" />
<path d="M 880.47 388.52 C 884.28 388.01 888.16 388.40 891.82 389.57 C 898.93 391.98 906.54 392.96 914.00 393.45 C 924.93 393.45 936.15 394.16 946.99 392.64 C 952.99 392.32 958.15 390.73 964.26 391.62 C 966.95 392.93 964.92 395.28 964.03 397.12 C 959.43 403.78 952.83 410.09 949.25 417.42 C 946.18 423.33 943.95 429.60 943.43 436.28 C 940.92 436.75 938.49 436.70 936.19 435.47 C 928.53 430.75 922.01 424.59 916.37 417.62 C 914.15 414.73 911.14 413.57 908.00 411.99 C 898.66 407.28 887.82 403.21 881.82 394.13 C 880.39 392.32 880.24 390.77 880.47 388.52 Z" fill="#009346" />
<path d="M 815.87 403.52 C 818.22 404.03 820.36 406.05 822.27 407.45 C 822.47 410.69 822.12 413.83 821.74 417.03 C 823.94 423.71 827.56 430.56 832.15 435.92 C 833.89 438.07 836.18 439.24 838.64 440.39 C 842.95 442.68 848.21 440.61 853.04 441.92 C 855.17 442.47 856.97 443.83 858.66 445.18 C 864.46 450.06 868.75 457.44 869.52 465.00 C 869.89 468.33 867.32 469.28 865.51 471.47 C 864.08 476.68 868.63 480.76 871.94 484.05 C 875.68 487.94 880.54 488.39 883.08 492.86 C 885.94 496.53 885.90 500.59 886.37 504.99 C 886.44 508.75 885.12 512.04 886.05 515.86 C 887.40 523.80 893.93 531.03 893.70 539.01 C 894.14 544.06 894.95 549.07 895.49 554.11 C 895.75 560.07 895.94 566.06 895.64 572.02 C 895.58 574.79 894.39 576.98 893.36 579.48 C 885.43 582.75 876.50 583.09 868.45 586.17 C 862.10 588.10 853.55 591.64 851.18 598.46 C 847.92 605.78 841.64 609.96 839.08 617.44 C 835.49 626.69 836.47 635.40 836.78 645.10 C 837.89 652.72 837.36 660.36 838.15 668.00 C 838.57 679.45 838.16 692.18 833.94 702.98 C 832.63 706.80 829.54 709.14 827.82 712.82 C 825.38 717.27 824.85 721.85 823.48 726.66 C 822.80 726.64 822.12 726.61 821.44 726.57 C 819.10 723.50 817.12 720.20 814.86 717.07 C 807.57 707.88 798.02 702.98 788.27 696.72 C 782.77 693.13 776.27 689.01 772.89 683.18 C 770.51 678.82 771.59 674.30 773.14 669.89 C 776.19 661.26 778.44 651.35 777.20 642.19 C 776.05 637.15 773.99 632.42 769.14 629.98 C 758.86 625.00 750.72 615.40 746.02 605.13 C 744.29 601.78 744.51 598.61 744.67 594.96 C 744.79 593.99 744.41 593.15 743.54 592.44 C 738.66 588.77 732.42 588.19 727.53 585.31 C 726.20 584.65 726.58 583.58 726.29 582.34 C 730.67 580.32 734.79 578.67 737.73 574.61 C 742.35 568.21 744.97 560.09 751.07 554.09 C 754.11 551.31 757.61 548.76 761.48 547.29 C 766.23 545.42 771.28 544.86 776.01 542.86 C 787.31 538.31 797.45 530.68 805.35 521.44 C 807.49 518.61 809.73 516.28 809.72 512.50 C 804.60 512.44 798.77 511.58 793.96 513.44 C 787.45 515.42 782.10 520.77 777.41 525.45 C 766.57 535.09 753.74 542.67 739.87 546.97 C 734.69 549.67 728.54 547.97 722.99 547.45 C 716.64 546.24 710.32 545.40 704.24 543.09 C 703.73 537.64 703.68 532.46 704.10 527.00 C 705.48 494.99 714.12 463.37 729.22 435.11 C 729.95 433.90 730.84 432.86 731.74 431.78 C 737.30 428.05 744.13 423.65 750.82 422.65 C 755.68 425.89 761.09 427.78 767.01 427.42 C 776.48 426.64 785.18 422.19 793.04 417.10 C 799.07 413.56 804.18 409.06 809.56 404.65 C 811.29 403.05 813.69 403.31 815.87 403.52 Z" fill="#009345" />
<path d="M 978.98 404.33 C 985.51 404.02 991.93 404.12 998.33 405.53 C 1006.87 406.81 1015.36 409.39 1024.00 409.89 L 1024.00 474.18 C 1022.37 473.22 1020.69 472.36 1018.94 471.64 C 1013.59 469.24 1008.45 471.71 1003.15 468.71 C 998.67 466.04 996.61 459.90 995.94 455.01 C 995.18 450.96 997.07 447.07 996.39 443.17 C 995.54 440.85 993.64 438.81 991.99 437.01 C 985.53 430.36 978.02 423.97 973.13 415.87 C 971.58 413.47 971.00 409.82 972.55 407.32 C 974.18 405.50 976.52 404.37 978.98 404.33 Z" fill="#009346" />
<path d="M 222.00 425.67 C 237.85 425.79 253.52 428.46 268.48 433.73 C 285.12 439.81 300.96 449.47 315.54 459.45 C 333.04 471.50 349.68 484.82 370.21 491.19 C 375.69 492.39 381.37 493.62 387.00 493.56 C 395.54 493.70 403.70 491.93 411.77 489.31 C 411.53 493.73 409.53 497.59 407.92 501.86 C 399.75 522.20 386.93 542.07 369.71 555.88 C 365.04 559.08 360.48 562.44 355.82 565.65 C 351.57 568.57 346.96 570.43 342.25 572.44 C 333.64 576.16 324.31 578.33 315.02 579.51 C 300.02 581.13 285.12 582.01 270.07 582.71 C 276.30 584.45 282.73 585.41 289.03 586.87 C 293.45 587.71 297.83 588.95 302.30 589.48 L 303.10 589.43 C 303.26 589.74 303.43 590.06 303.60 590.37 C 277.35 593.77 248.72 587.89 223.12 581.97 C 217.48 581.39 211.80 580.79 206.14 580.36 C 222.24 585.05 238.57 588.90 255.02 592.12 C 262.61 593.51 270.32 595.14 278.03 595.55 C 271.26 597.38 263.99 597.87 257.00 597.86 C 239.87 598.15 222.31 594.26 206.14 588.78 C 193.56 584.37 180.99 579.17 169.57 572.23 C 168.58 571.90 167.68 572.41 166.70 572.65 C 166.76 574.16 166.77 575.66 166.74 577.16 C 165.60 574.49 166.01 571.93 163.80 569.70 C 157.82 569.00 151.91 566.20 146.71 563.27 C 142.78 561.07 138.74 559.52 135.05 556.89 C 131.30 554.23 127.37 552.26 124.18 548.86 C 121.46 546.01 118.22 544.17 115.98 541.01 C 113.02 536.96 109.05 534.22 106.61 529.56 C 104.84 525.93 104.09 521.95 102.06 518.41 C 99.54 509.47 98.07 500.29 97.74 491.00 C 98.25 482.87 99.22 473.67 103.23 466.42 C 107.40 457.97 114.77 451.42 123.16 447.29 C 141.23 439.65 159.63 433.34 179.01 429.95 C 193.14 427.18 207.60 425.54 222.00 425.67 Z" fill="#3a2216" />
<path d="M 1018.94 471.64 C 1020.69 472.36 1022.37 473.22 1024.00 474.18 L 1024.00 566.51 C 1019.77 567.54 1015.68 568.60 1012.01 571.04 C 1008.75 572.84 1006.92 575.69 1004.62 578.55 C 1002.44 581.39 1001.71 585.07 999.89 587.93 C 996.60 592.55 991.70 595.47 986.19 596.64 C 982.17 597.87 976.94 598.09 973.52 600.60 C 970.95 603.42 968.76 606.67 966.53 609.77 C 964.16 613.47 961.13 616.46 959.14 620.40 C 955.96 626.49 952.25 632.90 952.43 640.01 C 952.39 644.69 954.37 649.08 957.56 652.45 C 966.27 661.96 975.72 669.79 983.54 680.21 C 984.90 682.57 986.19 685.03 987.11 687.59 C 987.87 691.22 986.75 695.40 987.81 699.01 C 989.24 702.63 991.83 704.85 994.53 707.47 C 997.20 709.96 997.18 713.59 1000.56 715.23 C 1004.55 716.98 1008.43 718.39 1011.98 721.05 C 1014.35 722.95 1015.81 726.16 1017.88 728.41 C 1019.68 729.03 1022.28 726.88 1024.00 726.17 L 1024.00 727.03 C 1017.66 729.99 1011.60 733.46 1005.10 736.12 C 954.24 758.02 895.18 759.29 843.45 739.51 C 821.18 731.01 800.20 718.85 781.94 703.51 C 785.40 702.21 786.58 699.74 788.27 696.72 C 798.02 702.98 807.57 707.88 814.86 717.07 C 817.12 720.20 819.10 723.50 821.44 726.57 C 822.12 726.61 822.80 726.64 823.48 726.66 C 824.85 721.85 825.38 717.27 827.82 712.82 C 829.54 709.14 832.63 706.80 833.94 702.98 C 838.16 692.18 838.57 679.45 838.15 668.00 C 837.36 660.36 837.89 652.72 836.78 645.10 C 836.66 641.69 836.86 638.25 837.30 634.87 C 838.94 638.97 837.35 643.65 839.19 647.86 C 847.96 639.75 856.30 631.15 864.78 622.74 C 868.01 619.92 871.05 617.11 873.89 613.89 C 879.74 608.41 885.17 602.50 891.16 597.17 C 896.30 592.32 900.69 586.62 906.22 582.24 C 914.55 574.23 922.38 565.67 931.00 557.99 C 944.17 544.97 956.98 532.16 970.48 519.46 C 974.78 514.35 980.07 510.40 984.53 505.47 C 993.37 496.62 1002.44 488.12 1011.11 479.11 C 1014.13 476.99 1015.92 473.59 1018.94 471.64 Z" fill="#22b2d4" />
<path d="M 123.11 483.22 C 127.21 486.65 130.52 490.99 134.52 494.58 C 138.37 498.02 141.81 501.84 145.86 505.07 C 159.32 517.55 174.65 527.78 191.12 535.83 C 197.04 538.41 203.59 541.27 210.06 541.91 C 200.75 536.33 192.25 530.08 185.75 521.25 C 188.26 521.43 189.73 521.29 191.82 519.87 C 191.39 518.63 190.89 517.40 191.02 516.06 C 191.48 514.72 192.04 513.42 192.56 512.10 C 196.77 512.92 200.48 515.33 204.62 516.49 C 212.42 519.41 220.50 520.93 228.64 522.52 C 237.08 524.53 245.43 525.20 254.01 526.32 C 265.68 527.81 277.28 528.22 289.00 528.82 C 312.24 529.46 335.91 529.10 358.95 525.79 C 363.00 525.22 366.95 524.30 371.04 524.06 C 368.19 528.05 363.03 530.38 358.97 532.98 C 344.41 540.31 328.10 542.50 312.00 542.99 C 281.42 543.09 253.04 537.90 223.01 533.11 C 220.03 532.53 217.08 532.05 214.03 532.16 C 216.55 536.04 221.05 538.76 225.05 540.94 C 242.93 549.30 261.61 550.48 281.00 551.95 C 294.27 552.26 307.74 552.32 321.00 551.76 C 327.28 551.58 332.83 550.30 339.08 551.09 C 335.75 553.12 332.20 554.05 328.63 555.54 C 323.14 557.75 317.51 559.37 311.75 560.69 C 291.17 566.07 269.37 567.63 248.29 564.57 C 213.74 559.66 182.62 543.29 156.56 520.46 C 147.77 514.03 141.37 505.95 134.06 497.99 C 130.36 493.31 125.62 488.65 123.11 483.22 Z" fill="#583215" />
<path d="M 173.06 496.92 C 173.96 496.96 174.78 497.18 175.51 497.56 C 178.54 499.74 181.07 502.79 183.16 505.85 C 181.14 507.60 179.60 509.70 178.18 511.96 C 176.91 506.78 172.14 502.30 173.06 496.92 Z" fill="#583216" />
<path d="M 191.51 508.60 C 191.40 511.09 191.19 513.58 191.02 516.06 C 190.89 517.40 191.39 518.63 191.82 519.87 C 189.73 521.29 188.26 521.43 185.75 521.25 C 183.76 520.22 181.63 519.48 179.63 518.44 C 178.48 516.62 178.50 514.05 178.18 511.96 C 179.60 509.70 181.14 507.60 183.16 505.85 C 186.80 504.48 188.66 506.84 191.51 508.60 Z" fill="#372d3e" />
<path d="M 184.03 507.95 C 185.52 508.04 188.32 507.52 189.18 509.07 C 187.89 510.91 186.12 511.71 183.95 512.00 C 183.91 513.01 183.89 514.02 183.87 515.04 C 186.49 515.88 188.94 516.70 190.28 519.33 C 188.24 519.38 186.06 519.51 184.06 519.10 C 181.64 518.40 179.76 515.49 180.03 513.00 C 180.29 511.18 181.42 510.06 182.55 508.72 C 182.96 509.63 183.40 510.51 183.88 511.37 C 183.95 510.23 184.00 509.09 184.03 507.95 Z" fill="#fffeff" />
<path d="M 188.91 511.85 C 190.71 512.46 190.30 514.75 188.93 515.61 C 187.78 515.01 187.37 512.11 188.91 511.85 Z" fill="#c2e3de" />
<path d="M 809.72 512.50 C 809.73 516.28 807.49 518.61 805.35 521.44 C 797.45 530.68 787.31 538.31 776.01 542.86 C 771.28 544.86 766.23 545.42 761.48 547.29 C 757.61 548.76 754.11 551.31 751.07 554.09 C 744.97 560.09 742.35 568.21 737.73 574.61 C 734.79 578.67 730.67 580.32 726.29 582.34 C 726.58 583.58 726.20 584.65 727.53 585.31 C 732.42 588.19 738.66 588.77 743.54 592.44 C 744.41 593.15 744.79 593.99 744.67 594.96 C 744.51 598.61 744.29 601.78 746.02 605.13 C 750.72 615.40 758.86 625.00 769.14 629.98 C 773.99 632.42 776.05 637.15 777.20 642.19 C 778.44 651.35 776.19 661.26 773.14 669.89 C 771.59 674.30 770.51 678.82 772.89 683.18 C 776.27 689.01 782.77 693.13 788.27 696.72 C 786.58 699.74 785.40 702.21 781.94 703.51 C 767.07 691.26 753.98 676.80 742.91 661.04 C 718.83 626.72 705.06 585.03 704.24 543.09 C 710.32 545.40 716.64 546.24 722.99 547.45 C 728.54 547.97 734.69 549.67 739.87 546.97 C 753.74 542.67 766.57 535.09 777.41 525.45 C 782.10 520.77 787.45 515.42 793.96 513.44 C 798.77 511.58 804.60 512.44 809.72 512.50 Z" fill="#23beed" />
<path d="M 185.11 513.19 L 185.91 512.82 L 186.71 513.21 L 186.71 513.95 C 185.53 514.49 184.99 514.24 185.11 513.19 Z" fill="#c0b4de" />
<path d="M 577.58 520.42 C 581.16 526.87 584.63 533.42 588.03 539.96 C 589.32 542.39 590.47 544.64 592.99 546.01 C 600.26 550.14 607.82 553.78 615.09 557.91 C 617.47 558.71 617.44 563.31 615.13 564.17 C 607.72 568.45 600.18 572.56 592.73 576.76 C 589.00 578.78 587.58 583.03 585.49 586.47 C 581.90 592.59 578.82 599.05 574.86 604.93 C 573.65 604.61 572.40 604.69 571.10 605.18 C 566.19 597.48 562.40 589.03 557.84 581.11 C 556.74 579.16 555.02 577.95 553.08 576.92 C 546.56 573.47 540.04 569.99 533.53 566.51 C 532.06 565.48 530.17 565.17 530.38 562.99 C 530.15 560.59 531.95 559.81 533.67 558.70 C 540.51 554.85 547.38 551.05 554.22 547.19 C 556.11 546.11 557.66 544.77 558.75 542.85 C 563.04 535.42 567.02 527.77 571.41 520.40 C 572.86 517.84 576.16 517.78 577.58 520.42 Z" fill="#eab75f" />
<path d="M 102.06 518.41 C 104.09 521.95 104.84 525.93 106.61 529.56 C 109.05 534.22 113.02 536.96 115.98 541.01 C 118.22 544.17 121.46 546.01 124.18 548.86 C 127.37 552.26 131.30 554.23 135.05 556.89 C 138.74 559.52 142.78 561.07 146.71 563.27 C 151.91 566.20 157.82 569.00 163.80 569.70 C 166.01 571.93 165.60 574.49 166.74 577.16 C 166.77 575.66 166.76 574.16 166.70 572.65 C 167.68 572.41 168.58 571.90 169.57 572.23 C 167.53 572.98 167.68 574.03 167.66 575.93 C 167.12 586.56 168.05 597.35 168.21 608.00 C 168.45 625.40 169.06 642.76 169.57 660.14 C 151.42 656.45 133.44 652.43 115.31 648.66 C 112.27 648.13 109.26 647.58 106.33 646.58 C 105.80 644.41 105.11 642.77 103.80 640.96 C 101.14 634.00 99.46 626.64 97.30 619.50 C 93.29 605.93 89.65 592.23 86.27 578.48 C 85.29 575.01 84.35 571.55 83.78 567.99 C 81.31 555.44 78.51 543.93 79.54 530.98 C 80.03 526.85 82.84 523.39 86.44 521.45 C 91.39 518.92 96.57 518.38 102.06 518.41 Z" fill="#311d16" />
<path d="M 355.82 565.65 C 356.01 567.05 356.15 568.45 356.26 569.86 C 355.95 572.89 355.64 575.99 354.83 578.92 C 354.60 579.98 353.96 580.63 352.92 580.88 C 346.57 582.73 339.99 583.76 333.64 585.52 C 331.57 585.99 329.26 585.16 327.16 585.42 C 325.25 585.84 323.76 586.75 321.76 586.42 C 327.72 582.42 333.78 578.55 340.03 575.01 C 341.09 574.15 342.57 574.08 342.25 572.44 C 346.96 570.43 351.57 568.57 355.82 565.65 Z" fill="#a99c94" />
<path d="M 1024.00 566.51 L 1024.00 726.17 C 1022.28 726.88 1019.68 729.03 1017.88 728.41 C 1015.81 726.16 1014.35 722.95 1011.98 721.05 C 1008.43 718.39 1004.55 716.98 1000.56 715.23 C 997.18 713.59 997.20 709.96 994.53 707.47 C 991.83 704.85 989.24 702.63 987.81 699.01 C 986.75 695.40 987.87 691.22 987.11 687.59 C 986.19 685.03 984.90 682.57 983.54 680.21 C 975.72 669.79 966.27 661.96 957.56 652.45 C 954.37 649.08 952.39 644.69 952.43 640.01 C 952.25 632.90 955.96 626.49 959.14 620.40 C 961.13 616.46 964.16 613.47 966.53 609.77 C 968.76 606.67 970.95 603.42 973.52 600.60 C 976.94 598.09 982.17 597.87 986.19 596.64 C 991.70 595.47 996.60 592.55 999.89 587.93 C 1001.71 585.07 1002.44 581.39 1004.62 578.55 C 1006.92 575.69 1008.75 572.84 1012.01 571.04 C 1015.68 568.60 1019.77 567.54 1024.00 566.51 Z" fill="#009345" />
<path d="M 356.26 569.86 C 357.02 594.08 358.20 618.59 358.84 642.83 C 354.47 642.27 349.98 642.51 345.58 642.56 C 341.95 639.07 336.51 637.56 331.73 636.39 C 326.89 635.39 321.83 634.45 316.88 634.62 C 314.19 636.12 314.44 641.16 314.16 643.81 C 293.58 644.53 272.98 645.36 252.43 645.99 C 251.92 642.75 251.54 639.49 248.54 637.55 C 245.79 636.94 242.59 637.51 239.78 637.64 C 242.21 635.27 245.09 633.70 247.96 631.96 C 262.59 622.88 277.11 613.88 291.74 604.78 C 297.61 601.04 303.69 597.66 309.39 593.64 C 310.21 593.15 311.05 592.68 311.88 592.20 C 315.09 590.42 318.16 588.48 321.16 586.37 L 321.76 586.42 C 323.76 586.75 325.25 585.84 327.16 585.42 C 329.26 585.16 331.57 585.99 333.64 585.52 C 339.99 583.76 346.57 582.73 352.92 580.88 C 353.96 580.63 354.60 579.98 354.83 578.92 C 355.64 575.99 355.95 572.89 356.26 569.86 Z" fill="#a9a8a3" />
<path d="M 169.57 572.23 C 180.99 579.17 193.56 584.37 206.14 588.78 C 222.31 594.26 239.87 598.15 257.00 597.86 C 263.99 597.87 271.26 597.38 278.03 595.55 C 270.32 595.14 262.61 593.51 255.02 592.12 C 238.57 588.90 222.24 585.05 206.14 580.36 C 211.80 580.79 217.48 581.39 223.12 581.97 C 248.72 587.89 277.35 593.77 303.60 590.37 C 303.43 590.06 303.26 589.74 303.10 589.43 C 306.20 588.74 309.00 591.11 311.88 592.20 C 311.05 592.68 310.21 593.15 309.39 593.64 C 302.57 593.43 295.87 594.46 289.05 593.75 C 284.01 593.64 278.92 592.81 273.92 593.27 C 277.59 594.52 281.22 594.71 284.51 597.04 C 281.32 598.63 278.16 598.89 274.73 599.74 C 265.83 601.97 256.15 602.31 247.00 602.77 C 221.61 602.58 196.94 594.93 175.33 581.73 C 172.37 580.26 170.28 577.86 167.66 575.93 C 167.68 574.03 167.53 572.98 169.57 572.23 Z" fill="#ecc1ac" />
<path d="M 342.25 572.44 C 342.57 574.08 341.09 574.15 340.03 575.01 C 333.78 578.55 327.72 582.42 321.76 586.42 L 321.16 586.37 C 313.94 585.93 306.65 586.44 299.41 586.22 C 300.41 587.27 301.37 588.36 302.30 589.48 C 297.83 588.95 293.45 587.71 289.03 586.87 C 282.73 585.41 276.30 584.45 270.07 582.71 C 285.12 582.01 300.02 581.13 315.02 579.51 C 324.31 578.33 333.64 576.16 342.25 572.44 Z" fill="#ecc0ac" />
<path d="M 167.66 575.93 C 170.28 577.86 172.37 580.26 175.33 581.73 C 196.94 594.93 221.61 602.58 247.00 602.77 C 256.15 602.31 265.83 601.97 274.73 599.74 C 278.16 598.89 281.32 598.63 284.51 597.04 C 281.22 594.71 277.59 594.52 273.92 593.27 C 278.92 592.81 284.01 593.64 289.05 593.75 C 295.87 594.46 302.57 593.43 309.39 593.64 C 303.69 597.66 297.61 601.04 291.74 604.78 C 277.11 613.88 262.59 622.88 247.96 631.96 C 245.09 633.70 242.21 635.27 239.78 637.64 C 238.88 637.79 238.00 637.98 237.11 638.14 C 227.05 639.51 216.55 641.28 207.13 645.16 C 201.93 647.10 197.28 651.61 195.71 656.98 C 195.19 659.24 196.91 659.73 198.51 660.66 C 196.89 662.23 195.69 664.66 193.32 664.99 C 185.39 663.46 177.51 661.65 169.57 660.14 C 169.06 642.76 168.45 625.40 168.21 608.00 C 168.05 597.35 167.12 586.56 167.66 575.93 Z" fill="#edd0be" />
<path d="M 299.41 586.22 C 306.65 586.44 313.94 585.93 321.16 586.37 C 318.16 588.48 315.09 590.42 311.88 592.20 C 309.00 591.11 306.20 588.74 303.10 589.43 L 302.30 589.48 C 301.37 588.36 300.41 587.27 299.41 586.22 Z" fill="#efd0bd" />
<path d="M 571.10 605.18 C 572.40 604.69 573.65 604.61 574.86 604.93 C 573.95 606.56 572.13 606.84 571.10 605.18 Z" fill="#415448" />
<path d="M 316.88 634.62 C 321.83 634.45 326.89 635.39 331.73 636.39 C 336.51 637.56 341.95 639.07 345.58 642.56 C 335.13 643.19 324.63 643.76 314.16 643.81 C 314.44 641.16 314.19 636.12 316.88 634.62 Z" fill="#2d2d2d" />
<path d="M 239.78 637.64 C 242.59 637.51 245.79 636.94 248.54 637.55 C 251.54 639.49 251.92 642.75 252.43 645.99 C 244.33 646.55 235.81 646.09 227.86 647.79 C 225.57 648.38 223.27 648.90 220.95 649.39 C 223.98 646.21 228.12 645.22 231.43 642.44 C 233.34 640.93 235.65 640.01 237.11 638.14 C 238.00 637.98 238.88 637.79 239.78 637.64 Z" fill="#2c2d2c" />
<path d="M 237.11 638.14 C 235.65 640.01 233.34 640.93 231.43 642.44 C 228.12 645.22 223.98 646.21 220.95 649.39 C 212.81 652.34 205.25 654.92 198.51 660.66 C 196.91 659.73 195.19 659.24 195.71 656.98 C 197.28 651.61 201.93 647.10 207.13 645.16 C 216.55 641.28 227.05 639.51 237.11 638.14 Z" fill="#392115" />
<path d="M 103.80 640.96 C 105.11 642.77 105.80 644.41 106.33 646.58 C 109.26 647.58 112.27 648.13 115.31 648.66 C 133.44 652.43 151.42 656.45 169.57 660.14 C 177.51 661.65 185.39 663.46 193.32 664.99 L 193.41 666.51 C 186.87 675.29 184.78 686.99 188.21 697.44 L 188.19 699.02 C 182.09 697.35 176.22 694.84 170.27 692.72 C 156.31 687.67 142.41 682.47 128.39 677.58 C 124.24 676.15 120.40 674.33 116.23 673.31 C 115.60 673.89 114.99 674.48 114.39 675.08 C 114.10 674.25 113.80 673.43 113.47 672.62 C 111.20 671.33 110.10 670.39 109.22 667.87 C 106.60 660.63 103.00 653.60 101.05 646.15 C 102.29 645.92 103.53 645.69 104.76 645.45 C 104.45 643.95 104.14 642.45 103.80 640.96 Z" fill="#303030" />
<path d="M 345.58 642.56 C 349.98 642.51 354.47 642.27 358.84 642.83 C 365.17 645.90 371.26 647.03 375.99 652.02 C 381.92 656.75 384.78 663.38 386.78 670.51 C 387.76 674.49 387.44 678.92 387.43 683.00 C 387.59 686.16 385.34 689.09 384.36 692.14 C 383.28 695.58 380.92 697.79 378.55 700.34 C 368.83 697.18 359.00 693.98 349.01 691.83 C 352.85 688.47 354.80 682.99 354.86 677.99 C 354.43 671.90 351.08 665.48 345.64 662.43 C 340.02 658.99 332.39 659.65 326.85 662.89 C 323.79 665.32 320.70 668.58 319.48 672.36 C 318.59 675.81 318.72 679.61 318.95 683.14 C 312.31 681.61 305.92 679.43 299.34 677.65 C 294.17 676.16 288.98 675.22 283.96 673.25 C 283.51 674.19 283.10 675.14 282.70 676.11 C 280.14 666.33 269.97 660.90 260.34 663.45 C 258.63 664.06 257.00 664.91 255.42 665.80 C 250.14 663.55 244.57 662.70 239.16 660.82 C 234.55 659.18 229.73 658.40 225.09 656.90 C 221.93 655.98 219.27 654.74 215.96 655.85 C 219.66 652.31 223.99 650.15 228.79 648.49 L 227.86 647.79 C 235.81 646.09 244.33 646.55 252.43 645.99 C 272.98 645.36 293.58 644.53 314.16 643.81 C 324.63 643.76 335.13 643.19 345.58 642.56 Z" fill="#2e4148" />
<path d="M 227.86 647.79 L 228.79 648.49 C 223.99 650.15 219.66 652.31 215.96 655.85 C 205.45 665.38 201.88 680.87 206.79 694.14 C 208.75 699.44 211.98 704.11 215.96 708.10 C 206.46 706.05 197.67 700.93 188.19 699.02 L 188.21 697.44 C 190.12 692.13 190.29 686.42 191.59 680.91 C 192.11 676.16 193.98 671.24 193.41 666.51 L 193.32 664.99 C 195.69 664.66 196.89 662.23 198.51 660.66 C 205.25 654.92 212.81 652.34 220.95 649.39 C 223.27 648.90 225.57 648.38 227.86 647.79 Z" fill="#53666d" />
<path d="M 225.09 656.90 C 229.73 658.40 234.55 659.18 239.16 660.82 C 244.57 662.70 250.14 663.55 255.42 665.80 C 251.62 668.59 248.64 672.19 247.68 676.91 C 245.50 685.94 251.00 695.67 260.00 698.17 C 266.73 700.33 274.29 698.30 278.85 692.85 C 282.98 688.28 284.04 682.02 282.70 676.11 C 283.10 675.14 283.51 674.19 283.96 673.25 C 288.98 675.22 294.17 676.16 299.34 677.65 C 305.92 679.43 312.31 681.61 318.95 683.14 C 320.72 686.95 322.51 690.46 326.03 692.96 C 329.78 695.92 334.35 696.56 339.01 696.23 C 342.65 695.95 346.05 693.83 349.01 691.83 C 359.00 693.98 368.83 697.18 378.55 700.34 C 376.46 704.67 372.71 706.51 368.80 708.88 C 366.58 710.29 363.95 710.28 361.78 711.77 C 360.24 712.41 358.66 712.91 356.99 713.04 C 336.66 713.70 316.33 714.49 296.00 715.20 C 276.31 715.60 256.61 717.04 236.89 717.20 C 228.97 716.43 222.05 713.11 215.96 708.10 C 211.98 704.11 208.75 699.44 206.79 694.14 C 201.88 680.87 205.45 665.38 215.96 655.85 C 219.27 654.74 221.93 655.98 225.09 656.90 Z" fill="#25383f" />
<path d="M 345.64 662.43 C 351.08 665.48 354.43 671.90 354.86 677.99 C 354.80 682.99 352.85 688.47 349.01 691.83 C 346.05 693.83 342.65 695.95 339.01 696.23 C 334.35 696.56 329.78 695.92 326.03 692.96 C 322.51 690.46 320.72 686.95 318.95 683.14 C 318.72 679.61 318.59 675.81 319.48 672.36 C 320.70 668.58 323.79 665.32 326.85 662.89 C 332.39 659.65 340.02 658.99 345.64 662.43 Z" fill="#384b52" />
<path d="M 237.56 662.28 C 238.17 666.79 237.89 671.45 238.09 676.00 C 238.13 679.22 238.66 682.44 238.56 685.66 C 237.99 686.96 236.39 687.40 235.13 686.93 C 234.04 685.35 234.37 682.84 234.22 681.00 C 234.24 674.66 233.47 668.26 234.07 662.00 C 235.50 661.49 236.56 660.51 237.56 662.28 Z" fill="#384b52" />
<path d="M 223.28 662.26 C 224.40 662.13 225.52 662.12 226.66 662.22 C 227.10 669.12 227.54 676.09 227.70 683.00 C 227.53 684.57 228.09 686.57 226.63 687.60 C 225.72 687.74 224.90 687.50 224.16 686.86 C 223.28 682.69 223.48 678.25 223.23 674.00 C 223.19 670.15 222.59 666.05 223.28 662.26 Z" fill="#384b52" />
<path d="M 260.34 663.45 C 269.97 660.90 280.14 666.33 282.70 676.11 C 284.04 682.02 282.98 688.28 278.85 692.85 C 274.29 698.30 266.73 700.33 260.00 698.17 C 251.00 695.67 245.50 685.94 247.68 676.91 C 248.64 672.19 251.62 668.59 255.42 665.80 C 257.00 664.91 258.63 664.06 260.34 663.45 Z" fill="#384b52" />
<path d="M 193.41 666.51 C 193.98 671.24 192.11 676.16 191.59 680.91 C 190.29 686.42 190.12 692.13 188.21 697.44 C 184.78 686.99 186.87 675.29 193.41 666.51 Z" fill="#6f7374" />
<path d="M 116.23 673.31 C 120.40 674.33 124.24 676.15 128.39 677.58 C 142.41 682.47 156.31 687.67 170.27 692.72 C 170.32 702.62 169.87 712.49 169.20 722.36 C 168.59 726.32 168.15 730.15 166.14 733.71 C 163.23 733.21 162.61 730.83 161.56 728.48 C 157.37 716.87 151.63 705.68 144.24 695.77 C 139.24 689.33 133.04 682.92 125.56 679.45 C 122.10 677.77 118.52 677.20 114.77 676.61 L 114.39 675.08 C 114.99 674.48 115.60 673.89 116.23 673.31 Z" fill="#311c15" />
<path d="M 530.11 674.07 C 531.00 673.99 531.60 674.32 531.92 675.05 C 533.16 677.12 534.03 679.59 535.54 681.46 C 537.63 683.13 540.38 684.02 542.61 685.51 L 542.89 686.88 C 540.72 689.05 537.11 689.75 535.03 692.00 C 533.21 694.58 532.23 697.56 530.01 699.90 C 528.18 697.34 527.01 694.37 525.20 691.81 C 522.62 690.01 519.63 688.86 517.08 686.98 C 519.45 684.81 522.42 683.80 525.00 681.98 C 527.26 679.90 528.01 676.29 530.11 674.07 Z" fill="#eec888" />
<path d="M 114.77 676.61 C 118.52 677.20 122.10 677.77 125.56 679.45 C 133.04 682.92 139.24 689.33 144.24 695.77 C 151.63 705.68 157.37 716.87 161.56 728.48 C 162.61 730.83 163.23 733.21 166.14 733.71 C 168.15 730.15 168.59 726.32 169.20 722.36 C 170.68 723.87 171.23 725.30 171.61 727.33 C 173.61 739.17 177.40 750.75 182.31 761.69 C 188.60 773.90 195.14 785.26 205.20 794.81 C 211.66 801.85 219.22 807.60 227.19 812.82 C 234.56 817.15 241.73 821.46 249.88 824.18 C 259.48 828.25 269.85 830.84 280.09 832.72 C 282.22 833.32 284.29 833.28 285.22 835.64 C 278.44 836.01 271.82 837.12 265.00 836.85 C 256.05 836.82 247.51 835.63 238.88 833.27 C 234.15 832.30 229.82 830.15 225.14 829.06 C 227.49 833.81 232.20 837.53 236.35 840.69 C 250.26 850.33 268.65 852.61 285.09 850.12 C 284.87 857.48 284.91 864.89 285.25 872.25 C 282.42 879.04 276.84 885.21 269.89 887.88 C 263.67 890.38 256.29 890.10 249.97 888.11 C 240.03 885.14 230.94 878.56 223.66 871.30 C 222.56 870.18 222.37 869.60 222.40 868.03 C 222.46 854.61 222.45 841.18 222.43 827.77 L 220.55 826.85 C 214.94 823.54 209.30 820.97 204.12 816.87 C 180.84 796.10 163.40 771.55 147.24 745.06 C 142.46 746.31 138.03 747.84 133.00 747.63 C 124.46 747.70 116.54 743.25 111.73 736.26 C 105.64 727.24 103.82 716.60 102.56 706.00 C 102.06 698.46 102.17 689.59 105.74 682.73 C 107.79 679.03 110.60 677.27 114.77 676.61 Z" fill="#eec1ac" />
<path d="M 170.27 692.72 C 176.22 694.84 182.09 697.35 188.19 699.02 C 191.26 705.65 194.98 711.60 201.05 715.90 C 207.34 720.53 215.20 722.92 223.00 722.63 C 229.64 722.39 236.28 722.29 242.91 721.85 C 247.25 722.17 252.06 721.24 255.96 723.02 C 272.89 729.46 290.16 735.18 306.98 741.85 C 307.58 744.61 308.57 747.27 309.11 750.03 C 309.23 750.97 308.87 751.67 308.04 752.13 C 305.57 753.62 302.80 753.70 300.00 753.95 C 293.31 754.33 286.84 756.08 280.14 756.56 C 288.22 757.62 295.89 756.05 304.00 756.06 C 307.87 756.03 311.35 755.01 313.58 751.64 C 314.34 748.98 312.13 746.31 312.69 743.46 C 329.42 750.09 346.59 755.78 363.42 762.18 C 363.29 772.36 365.67 780.75 362.72 790.73 C 359.52 799.44 353.84 806.96 345.91 811.86 C 329.87 821.73 312.39 829.44 294.00 833.67 C 291.13 834.34 288.31 834.48 285.62 835.82 C 285.89 847.46 285.74 859.12 285.77 870.77 L 285.25 872.25 C 284.91 864.89 284.87 857.48 285.09 850.12 C 285.30 845.29 285.39 840.47 285.22 835.64 C 284.29 833.28 282.22 833.32 280.09 832.72 C 269.85 830.84 259.48 828.25 249.88 824.18 C 241.73 821.46 234.56 817.15 227.19 812.82 C 219.22 807.60 211.66 801.85 205.20 794.81 C 195.14 785.26 188.60 773.90 182.31 761.69 C 177.40 750.75 173.61 739.17 171.61 727.33 C 171.23 725.30 170.68 723.87 169.20 722.36 C 169.87 712.49 170.32 702.62 170.27 692.72 Z" fill="#edd0be" />
<path d="M 121.00 693.77 C 126.53 693.86 131.15 698.58 134.68 702.37 C 136.47 704.49 138.80 706.56 137.58 709.63 C 136.62 712.52 132.58 712.56 130.10 713.39 C 132.59 719.73 135.84 724.57 133.79 731.80 C 132.02 735.59 124.42 734.43 122.94 730.94 C 125.40 730.35 130.04 733.00 131.61 730.68 C 132.90 725.41 131.05 720.96 128.58 716.43 C 127.89 714.81 126.35 712.69 128.34 711.36 C 130.82 710.37 133.47 710.10 135.85 708.79 C 133.77 704.03 129.17 699.90 124.77 697.28 C 120.85 694.83 114.13 696.81 113.99 702.00 C 114.36 704.39 116.06 706.58 116.93 708.84 C 113.25 709.54 112.36 705.76 111.70 703.02 C 110.65 697.61 116.11 693.67 121.00 693.77 Z" fill="#deaf9c" />
<path d="M 188.19 699.02 C 197.67 700.93 206.46 706.05 215.96 708.10 C 222.05 713.11 228.97 716.43 236.89 717.20 C 241.62 717.74 245.17 718.77 249.28 721.17 C 247.15 721.33 245.03 721.62 242.91 721.85 C 236.28 722.29 229.64 722.39 223.00 722.63 C 215.20 722.92 207.34 720.53 201.05 715.90 C 194.98 711.60 191.26 705.65 188.19 699.02 Z" fill="#727271" />
<path d="M 361.78 711.77 L 361.44 712.77 C 353.92 715.50 345.98 717.66 338.02 718.46 C 327.94 718.76 317.87 719.15 307.79 719.62 C 306.22 719.69 304.64 719.73 303.06 719.76 C 290.38 720.28 277.68 720.45 265.00 721.17 C 259.66 721.24 254.60 721.78 249.28 721.17 C 245.17 718.77 241.62 717.74 236.89 717.20 C 256.61 717.04 276.31 715.60 296.00 715.20 C 316.33 714.49 336.66 713.70 356.99 713.04 C 358.66 712.91 360.24 712.41 361.78 711.77 Z" fill="#53656c" />
<path d="M 361.44 712.77 C 362.12 729.26 362.63 745.70 363.42 762.18 C 346.59 755.78 329.42 750.09 312.69 743.46 L 312.04 743.20 C 310.70 735.33 309.03 727.51 307.79 719.62 C 317.87 719.15 327.94 718.76 338.02 718.46 C 345.98 717.66 353.92 715.50 361.44 712.77 Z" fill="#a9a8a3" />
<path d="M 303.06 719.76 C 303.92 727.18 305.29 734.58 306.98 741.85 C 290.16 735.18 272.89 729.46 255.96 723.02 C 252.06 721.24 247.25 722.17 242.91 721.85 C 245.03 721.62 247.15 721.33 249.28 721.17 C 254.60 721.78 259.66 721.24 265.00 721.17 C 277.68 720.45 290.38 720.28 303.06 719.76 Z" fill="#a9a8a2" />
<path d="M 303.06 719.76 C 304.64 719.73 306.22 719.69 307.79 719.62 C 309.03 727.51 310.70 735.33 312.04 743.20 C 310.38 742.68 308.68 742.25 306.98 741.85 C 305.29 734.58 303.92 727.18 303.06 719.76 Z" fill="#a38e8a" />
<path d="M 722.06 735.86 C 722.95 735.33 724.01 735.07 725.24 735.09 C 728.19 740.13 730.67 745.43 733.59 750.48 C 734.75 752.51 736.59 753.40 738.56 754.46 C 742.96 756.73 747.32 759.08 751.64 761.52 C 751.61 762.47 751.59 763.42 751.57 764.37 C 746.45 767.37 741.22 770.17 736.07 773.12 C 733.19 774.72 731.87 778.48 730.22 781.22 C 728.22 784.59 726.51 788.16 724.33 791.41 C 723.52 791.88 721.43 792.02 721.01 791.00 C 718.04 786.18 715.69 780.98 712.88 776.07 C 711.93 774.34 710.10 773.60 708.45 772.66 C 704.03 770.37 699.68 767.95 695.27 765.64 C 695.27 764.56 695.28 763.47 695.28 762.39 C 700.90 758.96 707.04 756.17 712.43 752.43 C 716.02 747.19 718.59 741.18 722.06 735.86 Z" fill="#e9b75f" />
<path d="M 306.98 741.85 C 308.68 742.25 310.38 742.68 312.04 743.20 L 312.69 743.46 C 312.13 746.31 314.34 748.98 313.58 751.64 C 311.35 755.01 307.87 756.03 304.00 756.06 C 295.89 756.05 288.22 757.62 280.14 756.56 C 286.84 756.08 293.31 754.33 300.00 753.95 C 302.80 753.70 305.57 753.62 308.04 752.13 C 308.87 751.67 309.23 750.97 309.11 750.03 C 308.57 747.27 307.58 744.61 306.98 741.85 Z" fill="#dfb0a0" />
<path d="M 364.56 762.47 C 371.14 763.24 377.57 766.33 383.80 768.52 C 428.06 785.28 474.27 802.25 518.94 819.06 C 687.28 882.23 855.64 945.37 1024.00 1008.49 L 1024.00 1024.00 L 414.97 1024.00 C 414.54 1021.69 413.92 1019.53 413.04 1017.35 C 406.52 999.22 398.42 981.63 388.96 964.84 C 387.93 962.87 386.79 961.04 385.38 959.32 C 388.96 956.99 392.16 954.19 394.98 950.99 C 395.99 949.92 395.27 948.48 394.47 947.53 C 391.33 943.64 388.54 939.55 384.99 936.00 C 378.88 928.39 371.88 922.00 364.97 915.03 C 362.46 912.38 359.03 911.20 356.52 908.54 C 353.10 904.63 348.76 902.23 344.66 899.16 C 328.96 887.74 312.38 878.31 293.54 873.16 C 290.94 872.41 288.40 871.45 285.77 870.77 C 285.74 859.12 285.89 847.46 285.62 835.82 C 288.31 834.48 291.13 834.34 294.00 833.67 C 312.39 829.44 329.87 821.73 345.91 811.86 C 353.84 806.96 359.52 799.44 362.72 790.73 L 363.61 791.59 C 365.66 782.29 363.66 771.90 364.56 762.47 Z" fill="#1480ae" />
<path d="M 324.94 773.15 C 321.91 776.55 317.61 778.59 313.53 780.48 C 301.03 785.96 287.47 786.34 274.24 783.61 C 267.01 781.90 259.32 779.56 253.15 775.35 C 258.72 776.60 264.29 779.21 269.98 779.67 C 277.33 779.31 284.64 777.69 292.00 777.48 C 294.64 777.39 297.36 778.94 299.82 779.84 C 301.89 778.35 304.36 776.19 306.97 775.91 C 309.96 775.82 312.98 776.89 315.98 776.92 C 319.10 776.19 321.93 774.27 324.94 773.15 Z" fill="#c39387" />
<path d="M 281.03 794.15 C 284.82 794.07 288.22 795.66 291.99 795.64 C 296.29 795.92 300.06 794.58 304.22 793.85 C 302.64 796.11 299.58 796.79 297.02 797.23 C 291.70 797.89 285.55 797.29 281.03 794.15 Z" fill="#c8a494" />
<path d="M 957.95 794.09 C 960.47 795.77 961.18 799.57 963.10 801.90 C 965.62 803.93 968.83 804.62 971.15 807.02 C 968.99 808.74 966.54 809.91 964.16 811.27 C 960.86 813.01 960.65 818.79 957.22 820.05 C 955.84 817.65 954.72 815.07 953.18 812.77 C 951.04 810.36 946.73 809.83 944.94 807.00 C 947.59 805.28 950.59 804.01 953.11 802.11 C 954.93 799.58 956.14 796.65 957.95 794.09 Z" fill="#eec888" />
<path d="M 219.65 827.36 L 220.55 826.85 L 222.43 827.77 C 222.45 841.18 222.46 854.61 222.40 868.03 C 222.37 869.60 222.56 870.18 223.66 871.30 C 230.94 878.56 240.03 885.14 249.97 888.11 C 256.29 890.10 263.67 890.38 269.89 887.88 C 276.84 885.21 282.42 879.04 285.25 872.25 L 285.77 870.77 C 288.40 871.45 290.94 872.41 293.54 873.16 C 289.80 887.12 276.34 897.36 262.00 898.01 C 248.37 898.53 236.23 892.54 225.86 884.17 C 221.83 880.76 216.79 877.16 214.39 872.38 C 216.50 871.81 218.63 871.30 220.78 870.87 C 220.41 870.48 220.05 870.09 219.69 869.69 C 222.14 869.62 221.64 867.83 221.80 866.00 C 221.70 853.51 221.76 841.03 221.78 828.54 C 221.02 828.17 220.27 827.81 219.52 827.44 L 219.65 827.36 Z" fill="#563a49" />
<path d="M 225.14 829.06 C 229.82 830.15 234.15 832.30 238.88 833.27 C 247.51 835.63 256.05 836.82 265.00 836.85 C 271.82 837.12 278.44 836.01 285.22 835.64 C 285.39 840.47 285.30 845.29 285.09 850.12 C 268.65 852.61 250.26 850.33 236.35 840.69 C 232.20 837.53 227.49 833.81 225.14 829.06 Z" fill="#dbaa9c" />
<path d="M 214.39 872.38 C 216.79 877.16 221.83 880.76 225.86 884.17 C 236.23 892.54 248.37 898.53 262.00 898.01 C 276.34 897.36 289.80 887.12 293.54 873.16 C 312.38 878.31 328.96 887.74 344.66 899.16 C 348.76 902.23 353.10 904.63 356.52 908.54 C 355.04 927.37 354.05 946.24 352.47 965.07 C 352.09 971.26 351.34 977.42 351.20 983.62 C 350.02 990.99 349.93 998.58 349.19 1006.01 C 348.24 1011.96 348.44 1018.02 347.54 1024.00 L 180.41 1024.00 C 178.52 1004.22 176.26 984.35 172.43 964.85 C 169.03 947.82 165.39 931.92 155.89 917.09 C 154.03 913.97 151.20 911.87 149.73 908.51 C 151.58 907.02 153.52 905.66 155.38 904.19 C 172.54 889.57 192.69 878.59 214.39 872.38 Z" fill="#3d2533" />
<path d="M 149.73 908.51 C 151.20 911.87 154.03 913.97 155.89 917.09 C 165.39 931.92 169.03 947.82 172.43 964.85 C 170.23 966.49 170.13 968.78 168.97 971.12 C 166.29 976.59 163.94 982.22 161.63 987.85 C 160.86 989.45 159.81 991.04 157.81 990.20 C 154.51 989.50 152.70 985.23 149.38 985.50 L 149.84 984.71 C 143.30 979.06 136.28 973.90 129.64 968.34 C 126.43 965.77 123.36 963.05 120.02 960.64 C 118.02 959.05 115.99 957.29 114.47 955.22 C 113.53 952.36 115.74 949.39 117.19 947.11 C 122.51 939.66 127.42 932.34 133.49 925.49 C 138.63 919.40 143.49 913.52 149.73 908.51 Z" fill="#563a49" />
<path d="M 356.52 908.54 C 359.03 911.20 362.46 912.38 364.97 915.03 C 371.88 922.00 378.88 928.39 384.99 936.00 C 388.54 939.55 391.33 943.64 394.47 947.53 C 395.27 948.48 395.99 949.92 394.98 950.99 C 392.16 954.19 388.96 956.99 385.38 959.32 C 376.38 966.39 367.38 973.42 358.24 980.28 C 356.04 981.93 354.07 983.44 351.20 983.62 C 351.34 977.42 352.09 971.26 352.47 965.07 C 354.05 946.24 355.04 927.37 356.52 908.54 Z" fill="#553a49" />
<path d="M 385.38 959.32 C 386.79 961.04 387.93 962.87 388.96 964.84 C 398.42 981.63 406.52 999.22 413.04 1017.35 C 413.92 1019.53 414.54 1021.69 414.97 1024.00 L 379.05 1024.00 C 378.73 1022.87 378.40 1021.75 378.05 1020.64 C 372.43 1006.70 365.64 993.35 358.24 980.28 C 367.38 973.42 376.38 966.39 385.38 959.32 Z" fill="#eec1ac" />
<path d="M 120.02 960.64 C 123.36 963.05 126.43 965.77 129.64 968.34 C 136.28 973.90 143.30 979.06 149.84 984.71 L 149.38 985.50 C 141.69 997.81 134.92 1010.72 129.08 1024.00 L 88.12 1024.00 C 96.46 1001.81 107.07 980.51 120.02 960.64 Z" fill="#eec1ac" />
<path d="M 172.43 964.85 C 176.26 984.35 178.52 1004.22 180.41 1024.00 L 129.08 1024.00 C 134.92 1010.72 141.69 997.81 149.38 985.50 C 152.70 985.23 154.51 989.50 157.81 990.20 C 159.81 991.04 160.86 989.45 161.63 987.85 C 163.94 982.22 166.29 976.59 168.97 971.12 C 170.13 968.78 170.23 966.49 172.43 964.85 Z" fill="#1480ad" />
<path d="M 320.00 965.90 C 324.47 965.92 329.30 965.14 333.60 966.19 C 333.42 974.69 333.90 983.21 333.70 991.70 C 329.16 994.81 324.73 998.33 319.97 1001.05 C 316.27 999.95 312.99 997.27 309.55 995.52 C 307.63 994.33 304.97 993.39 303.56 991.60 C 303.17 987.77 303.51 983.85 303.38 980.00 C 303.41 975.51 302.87 970.87 303.41 966.43 C 308.89 965.77 314.48 966.16 320.00 965.90 Z" fill="#563a49" />
<path d="M 358.24 980.28 C 365.64 993.35 372.43 1006.70 378.05 1020.64 C 378.40 1021.75 378.73 1022.87 379.05 1024.00 L 347.54 1024.00 C 348.44 1018.02 348.24 1011.96 349.19 1006.01 C 349.93 998.58 350.02 990.99 351.20 983.62 C 354.07 983.44 356.04 981.93 358.24 980.28 Z" fill="#1580ad" /></svg>