<?xml version="1.0" encoding="UTF-8" standalone="no"?>
<!DOCTYPE svg PUBLIC "-//W3C//DTD SVG 1.1//EN" "http://www.w3.org/Graphics/SVG/1.1/DTD/svg11.dtd">
<svg viewBox="0 0 1024 1024" height="1024.0pt" width="1024.0pt" xmlns="http://www.w3.org/2000/svg" version="1.1">
<path d="M 0.00 0.00 L 1024.00 0.00 L 1024.00 1024.00 L 0.00 1024.00 L 0.00 0.00 Z" fill="#ffffff" />
<path d="M 673.98 17.02 C 686.89 25.15 695.43 39.08 697.96 54.01 C 700.83 71.11 697.85 89.13 687.02 103.02 C 677.81 115.22 663.19 122.46 648.00 123.27 C 634.22 124.23 620.24 120.30 609.40 111.64 C 603.60 107.08 598.89 101.04 595.49 94.52 C 587.37 78.49 586.85 58.07 593.63 41.50 C 599.88 26.08 613.36 14.40 629.51 10.37 C 644.30 6.64 661.09 8.58 673.98 17.02 Z" fill="#000000" />
<path d="M 138.14 10.07 C 139.07 9.92 140.02 9.87 140.99 9.92 C 160.44 10.00 180.53 9.78 199.90 10.03 C 199.94 13.94 200.01 17.87 199.88 21.77 C 184.15 21.70 168.40 21.73 152.67 21.76 C 152.57 34.29 152.46 47.62 152.72 60.10 C 166.84 60.13 180.97 60.12 195.09 60.11 C 195.32 63.75 195.17 67.51 195.15 71.17 C 181.18 71.30 166.97 71.23 152.98 71.21 L 152.50 71.85 C 152.73 84.65 152.46 97.53 152.63 110.33 C 168.36 110.37 184.11 110.42 199.83 110.31 C 200.09 114.20 199.87 118.17 199.94 122.08 C 179.72 122.13 158.25 122.25 138.11 122.02 C 138.13 84.72 138.08 47.36 138.14 10.07 Z" fill="#000000" />
<path d="M 210.56 9.88 C 215.59 10.12 220.92 9.64 225.89 10.11 C 237.11 41.32 248.51 73.52 259.66 104.84 C 259.70 105.30 259.93 105.54 260.35 105.56 C 271.61 73.84 283.30 42.17 294.56 10.44 L 295.12 10.07 C 300.10 9.76 305.28 9.98 310.29 9.96 C 310.37 11.38 309.38 12.67 309.02 14.04 C 295.92 49.92 282.60 85.78 269.59 121.69 L 268.94 122.11 C 263.08 122.07 256.82 122.33 251.03 121.98 C 237.45 85.29 223.82 47.22 210.17 10.75 L 210.56 9.88 Z" fill="#000000" />
<path d="M 325.19 10.11 C 326.11 9.95 327.04 9.88 327.98 9.91 C 347.38 10.03 367.71 9.75 386.97 10.05 C 387.11 13.88 387.26 17.96 386.88 21.76 C 371.17 21.73 355.46 21.71 339.75 21.77 C 339.63 34.42 339.60 47.44 339.77 60.08 C 353.88 60.14 368.00 60.13 382.12 60.09 C 382.45 63.70 382.24 67.53 382.21 71.18 C 368.25 71.30 354.00 71.22 340.01 71.22 L 339.60 71.89 C 339.79 84.69 339.57 97.53 339.71 110.33 C 355.39 110.38 371.13 110.41 386.81 110.31 C 387.40 114.11 386.96 118.20 387.05 122.07 C 366.91 122.24 346.23 122.08 326.02 122.15 L 325.19 121.94 C 325.18 84.66 325.18 47.38 325.19 10.11 Z" fill="#000000" />
<path d="M 405.81 9.95 C 418.19 9.90 430.61 9.92 443.00 9.94 C 453.25 10.17 463.94 11.99 471.53 19.47 C 481.20 28.68 482.84 44.45 478.52 56.56 C 474.25 68.08 463.08 74.40 451.33 75.68 L 451.45 76.55 C 460.74 90.55 469.99 104.61 479.26 118.63 C 479.98 119.77 480.83 120.81 481.28 122.06 C 476.02 122.13 470.32 122.32 465.12 121.97 C 455.36 107.08 445.55 90.98 435.72 76.32 C 430.55 76.31 425.38 76.36 420.22 76.30 C 420.06 91.53 420.27 106.87 420.11 122.10 C 415.34 122.19 410.54 122.13 405.77 122.12 C 405.54 87.14 405.73 50.20 405.68 15.00 C 405.78 13.33 405.47 11.58 405.81 9.95 Z" fill="#000000" />
<path d="M 490.00 10.05 C 495.49 9.92 501.36 9.69 506.81 10.17 C 515.68 27.67 524.57 45.16 533.42 62.67 C 533.66 63.36 534.08 63.72 534.66 63.75 C 543.22 45.83 552.66 28.15 561.33 10.27 C 566.71 9.58 572.54 9.96 578.00 10.06 C 565.97 33.20 553.61 56.34 541.48 79.44 C 541.19 93.46 541.58 108.11 541.29 122.13 C 536.46 122.15 531.63 122.15 526.80 122.12 C 526.58 108.06 526.93 93.37 526.62 79.37 C 514.44 56.35 501.96 33.15 490.00 10.05 Z" fill="#000000" />
<path d="M 718.74 9.93 C 723.42 10.01 728.28 9.73 732.91 10.07 L 733.50 10.48 C 751.69 38.53 770.24 66.49 788.50 94.51 C 789.39 95.61 789.89 97.16 791.02 98.01 L 791.39 97.16 C 791.15 68.24 791.42 39.10 791.26 10.16 C 795.93 9.75 801.12 9.84 805.80 10.10 C 805.80 47.38 805.76 84.67 805.82 121.95 C 801.10 122.25 795.83 122.32 791.15 121.90 C 772.10 92.88 752.69 63.41 733.72 34.47 L 733.13 33.98 C 733.05 63.28 733.17 92.81 733.07 122.09 C 728.29 122.20 723.48 122.11 718.69 122.13 C 718.47 87.49 718.66 49.97 718.59 15.00 C 718.70 13.33 718.39 11.57 718.74 9.93 Z" fill="#000000" />
<path d="M 829.10 10.01 C 849.54 9.91 870.44 9.78 890.85 10.08 C 890.83 13.96 890.91 17.86 890.81 21.74 C 875.21 21.73 859.57 21.75 843.97 21.73 L 843.44 22.30 C 843.50 34.78 843.56 47.27 843.41 59.75 C 844.25 60.08 845.10 60.21 845.97 60.12 C 859.30 60.11 872.65 60.10 885.98 60.13 C 886.30 63.74 886.08 67.51 886.09 71.15 C 872.01 71.40 857.55 71.08 843.47 71.31 C 843.50 84.10 843.51 96.89 843.46 109.68 L 843.85 110.40 C 859.48 110.30 875.13 110.42 890.76 110.34 C 890.98 114.21 890.78 118.13 890.87 122.01 C 870.77 122.25 849.23 122.16 829.06 122.06 C 828.91 85.39 828.96 46.70 829.10 10.01 Z" fill="#000000" />
<path d="M 675.71 37.32 C 680.37 43.56 683.02 51.29 683.82 59.00 C 685.35 72.92 682.62 87.35 672.92 97.93 C 658.41 113.78 630.35 113.96 615.58 98.42 C 606.36 88.67 603.17 75.12 604.08 62.00 C 604.54 51.35 608.45 40.68 616.06 33.05 C 632.01 17.05 662.42 18.63 675.71 37.32 Z" fill="#ffffff" />
<path d="M 420.12 22.82 L 420.89 22.49 C 428.59 22.69 436.31 22.44 444.01 22.63 C 449.48 23.02 455.01 24.11 459.38 27.64 C 463.70 31.14 465.58 36.59 465.84 42.01 C 466.23 47.90 465.29 54.60 461.10 59.08 C 456.89 63.80 450.10 65.44 444.02 65.77 C 436.07 65.90 428.11 65.78 420.16 65.83 C 420.14 51.50 420.22 37.15 420.12 22.82 Z" fill="#ffffff" />
<path d="M 675.98 136.15 C 686.90 139.43 695.44 149.10 696.68 160.53 C 691.92 160.55 687.17 160.49 682.42 160.57 C 681.04 154.58 677.05 149.35 671.46 146.73 C 666.04 144.58 659.73 144.34 654.20 146.23 C 649.75 147.75 646.12 151.21 644.91 155.83 C 643.55 161.17 644.08 167.71 648.29 171.71 C 652.28 175.91 657.18 177.55 662.48 179.46 C 670.19 182.12 677.70 184.31 685.06 187.97 C 689.66 190.37 693.66 194.30 696.14 198.85 C 699.31 205.29 699.76 213.69 697.72 220.51 C 694.75 230.50 685.84 237.43 675.81 239.37 C 664.25 241.51 651.17 239.71 641.72 232.28 C 635.12 227.19 630.96 219.62 630.28 211.29 C 635.02 211.23 639.79 211.19 644.52 211.31 C 645.17 215.91 647.15 220.24 650.53 223.47 C 656.94 229.77 667.71 231.07 675.80 227.65 C 685.72 223.21 687.73 208.31 680.03 200.98 C 676.43 197.14 672.00 195.56 667.23 193.71 C 659.49 191.01 651.51 188.74 643.94 185.03 C 637.68 181.86 632.03 175.85 630.63 168.82 C 629.03 161.53 629.70 153.26 633.91 146.93 C 638.19 140.24 645.38 136.56 652.98 135.01 C 660.57 133.71 668.58 133.95 675.98 136.15 Z" fill="#000000" />
<path d="M 350.98 134.79 C 359.08 133.69 368.11 134.08 375.73 137.28 C 385.20 141.24 392.23 150.15 393.35 160.42 C 388.87 160.50 383.28 160.82 378.97 160.26 C 378.00 155.56 375.16 151.52 371.39 148.62 C 366.37 144.94 359.12 144.27 353.18 145.58 C 347.90 146.67 343.26 150.18 341.71 155.50 C 340.23 160.76 340.67 167.25 344.65 171.36 C 348.48 175.58 353.31 177.35 358.53 179.23 C 366.24 181.92 373.80 184.08 381.21 187.68 C 386.34 190.24 390.82 194.63 393.31 199.81 C 396.72 207.96 396.57 218.19 392.06 225.92 C 387.68 233.58 379.61 238.30 371.00 239.59 C 361.05 241.11 350.23 239.85 341.56 234.44 C 333.37 229.51 327.55 220.88 327.09 211.21 C 331.60 211.42 336.93 210.96 341.28 211.44 C 341.86 216.50 344.51 221.34 348.48 224.55 C 352.84 228.25 358.38 229.59 364.00 229.45 C 368.88 229.36 373.86 227.93 377.20 224.19 C 381.59 219.51 382.33 212.41 380.39 206.49 C 378.54 201.63 373.85 197.81 369.16 195.84 C 360.81 192.14 351.86 190.12 343.51 186.36 C 336.13 183.45 329.20 177.16 327.42 169.19 C 325.67 161.36 326.37 152.80 331.15 146.13 C 335.80 139.53 343.20 136.10 350.98 134.79 Z" fill="#000000" />
<path d="M 413.62 135.59 C 417.98 135.64 422.69 135.34 426.98 135.74 C 426.90 150.58 426.95 165.43 426.95 180.26 C 443.55 180.61 462.33 180.25 479.17 180.44 L 479.62 179.77 C 479.56 165.06 479.56 150.31 479.61 135.60 C 484.06 135.61 488.71 135.39 493.12 135.70 C 493.11 170.09 493.16 204.79 493.09 239.13 C 488.65 239.23 484.18 239.16 479.73 239.17 C 479.39 223.99 479.67 206.75 479.58 191.32 C 462.14 191.17 444.57 191.37 427.11 191.23 C 426.71 207.04 427.06 223.24 426.93 239.12 C 422.54 239.25 418.11 239.16 413.70 239.15 C 413.55 238.12 413.51 237.07 413.58 236.00 C 413.60 202.60 413.53 168.96 413.62 135.59 Z" fill="#000000" />
<path d="M 514.61 135.61 C 518.99 135.62 523.65 135.37 527.97 135.72 C 527.87 170.15 527.96 204.65 527.93 239.08 C 523.56 239.30 519.08 239.13 514.69 239.16 C 514.41 237.47 514.65 235.71 514.57 234.00 C 514.60 201.28 514.53 168.30 514.61 135.61 Z" fill="#000000" />
<path d="M 549.40 136.24 L 549.78 135.51 C 560.84 135.64 571.93 135.50 583.00 135.58 C 587.54 135.62 592.11 136.08 596.49 137.29 C 604.00 139.21 610.61 143.80 614.23 150.76 C 618.48 158.97 618.78 169.40 616.01 178.12 C 613.09 187.10 605.46 193.29 596.49 195.67 C 585.94 198.41 574.10 197.20 563.24 197.39 L 562.84 198.04 C 562.77 211.64 562.83 225.35 562.81 238.97 C 558.67 239.18 553.35 239.59 549.38 238.76 C 549.47 204.60 549.43 170.40 549.40 136.24 Z" fill="#000000" />
<path d="M 562.83 146.79 C 569.88 146.69 576.96 146.67 584.00 146.81 C 590.58 147.24 597.52 148.79 601.21 154.81 C 605.10 161.11 605.14 171.87 601.18 178.14 C 597.35 184.16 590.70 185.75 584.00 186.17 C 576.96 186.23 569.88 186.28 562.84 186.16 C 562.79 173.07 562.80 159.88 562.83 146.79 Z" fill="#ffffff" />
<path d="M 409.99 262.69 C 477.66 262.69 545.34 262.68 613.01 262.70 C 616.68 262.51 620.47 265.00 620.26 268.98 C 620.23 289.32 620.27 309.69 620.24 330.03 C 620.22 333.83 616.61 336.25 613.01 335.89 C 545.68 335.88 478.34 335.89 411.00 335.89 C 408.90 335.97 406.89 335.54 404.82 335.25 C 404.18 333.36 403.12 332.06 403.12 330.02 C 403.09 309.79 403.12 289.23 403.10 268.97 C 402.65 265.30 406.64 262.51 409.99 262.69 Z" fill="#66ca85" />
<path d="M 451.01 273.10 C 452.77 272.10 453.89 274.60 451.89 275.14 C 450.64 274.90 450.35 274.22 451.01 273.10 Z" fill="#a7f2bd" />
<path d="M 520.10 278.17 C 521.79 278.10 521.88 282.58 523.63 282.68 C 524.50 281.40 524.71 278.00 526.64 278.23 C 527.13 280.96 528.21 284.03 527.78 286.80 C 525.57 287.10 526.38 284.38 525.74 282.98 C 524.47 283.66 524.33 285.71 523.00 286.37 C 522.07 285.07 521.46 283.57 520.53 282.29 C 520.34 283.56 520.12 284.82 519.87 286.07 L 518.81 286.09 C 518.26 283.58 519.27 280.56 520.10 278.17 Z" fill="#c2f5d5" />
<path d="M 535.06 278.02 C 535.72 278.04 536.21 278.54 536.54 279.51 C 537.49 281.76 539.20 284.34 539.01 286.83 C 537.99 286.15 537.05 285.37 536.00 284.73 C 534.58 284.48 533.15 285.66 531.79 286.06 C 531.77 283.33 533.69 280.34 535.06 278.02 Z" fill="#c3f6d6" />
<path d="M 543.10 278.06 C 546.40 277.17 549.80 278.17 550.06 282.00 C 550.45 285.72 546.36 287.45 543.25 286.74 C 542.63 283.94 542.80 280.90 543.10 278.06 Z" fill="#c0f7d3" />
<path d="M 553.45 278.33 C 554.82 277.43 556.54 277.74 558.07 277.94 C 558.47 280.16 555.06 278.40 555.27 280.54 C 556.90 280.73 557.88 281.22 558.22 282.01 C 557.24 283.15 554.77 282.60 555.27 284.54 C 556.70 285.15 558.38 284.82 558.68 286.71 C 556.92 287.07 555.19 287.17 553.45 286.63 C 553.31 283.88 553.35 281.09 553.45 278.33 Z" fill="#b4f1ca" />
<path d="M 567.95 278.04 C 569.71 277.63 569.79 281.15 570.97 281.99 C 572.39 281.66 572.31 277.92 573.84 278.24 C 574.51 279.69 575.00 281.21 575.52 282.72 C 576.76 281.57 577.34 277.82 579.11 278.05 C 579.27 279.72 576.86 285.80 575.37 286.74 C 574.76 285.27 574.29 283.76 573.70 282.28 C 572.35 282.91 572.42 285.67 570.98 286.42 C 569.63 284.11 567.81 280.71 567.95 278.04 Z" fill="#c5f7d7" />
<path d="M 583.11 278.06 L 584.74 278.23 C 585.06 281.00 585.06 283.86 584.62 286.61 L 583.23 286.77 C 582.68 283.93 582.77 280.92 583.11 278.06 Z" fill="#abf4c3" />
<path d="M 588.01 278.00 C 589.75 277.66 591.33 277.65 593.07 278.02 C 591.47 280.89 591.58 283.43 591.51 286.61 L 590.20 286.79 C 589.71 284.67 589.98 282.35 589.72 280.18 C 589.09 279.49 588.52 278.76 588.01 278.00 Z" fill="#baedce" />
<path d="M 597.83 278.05 C 598.06 278.92 598.28 279.79 598.51 280.66 C 599.49 280.91 600.50 280.91 601.53 280.69 C 601.74 279.81 601.96 278.92 602.17 278.04 L 603.54 278.35 C 603.64 281.09 603.65 283.89 603.52 286.62 L 602.20 286.84 C 601.97 285.65 601.76 284.46 601.58 283.27 C 600.56 283.09 599.51 283.09 598.42 283.28 C 598.24 284.47 598.05 285.67 597.84 286.86 L 597.07 286.70 C 595.92 284.61 596.61 281.46 596.46 279.11 C 596.30 278.33 596.76 277.98 597.83 278.05 Z" fill="#b3e8c6" />
<path d="M 544.50 279.36 C 546.38 279.09 548.24 279.83 548.18 282.01 C 548.26 284.41 546.69 285.48 544.47 284.64 C 544.39 282.89 544.41 281.12 544.50 279.36 Z" fill="#70c58d" />
<path d="M 535.19 281.13 C 537.07 281.21 535.92 283.95 534.36 282.90 C 534.02 282.20 534.30 281.61 535.19 281.13 Z" fill="#91c5a8" />
<path d="M 430.86 283.15 C 431.25 284.28 431.44 285.48 431.43 286.77 C 432.24 287.00 433.07 287.02 433.92 286.83 C 434.51 285.67 434.26 284.08 435.15 283.14 C 437.40 282.92 436.50 285.19 437.23 286.64 C 441.64 286.99 446.93 289.06 449.30 292.97 C 448.28 294.31 447.05 295.51 445.79 296.62 C 444.98 297.22 444.22 297.89 443.50 298.63 C 442.70 299.40 441.66 300.09 441.10 301.06 C 441.23 303.12 441.27 304.93 440.86 306.98 C 441.34 308.06 442.68 308.61 443.56 309.36 C 444.34 309.98 445.14 310.57 445.95 311.15 C 447.07 312.08 448.37 312.89 449.32 313.98 C 449.46 316.32 449.61 318.87 449.19 321.18 C 447.18 321.59 445.04 321.30 443.00 321.38 C 438.45 321.26 434.33 321.87 429.97 320.20 C 424.33 318.09 420.13 312.92 419.12 306.99 C 417.83 299.84 421.38 292.20 427.86 288.81 C 430.43 287.90 427.43 282.49 430.86 283.15 Z" fill="#0c0a34" />
<path d="M 451.06 284.19 C 452.70 283.72 453.27 284.28 452.77 285.87 C 451.69 286.54 450.99 286.26 450.67 285.04 L 451.06 284.19 Z" fill="#b5f8c5" />
<path d="M 431.47 290.54 C 435.63 289.13 441.74 289.73 444.84 292.98 C 442.75 294.87 440.65 296.73 438.72 298.78 C 435.18 298.76 432.16 299.01 431.17 302.99 C 430.56 307.29 433.86 309.59 437.88 309.13 C 440.55 311.16 443.25 313.15 445.92 315.18 C 446.46 315.97 446.54 316.95 446.16 318.12 C 442.78 318.27 439.38 318.15 436.00 318.19 C 430.52 318.12 425.46 314.75 423.26 309.74 C 420.37 303.63 422.81 295.05 428.97 292.00 C 429.51 293.54 427.90 299.00 431.18 297.23 C 431.66 295.06 431.13 292.74 431.47 290.54 Z" fill="#fefefe" />
<path d="M 445.79 296.62 C 448.73 301.77 448.82 305.95 445.95 311.15 C 445.14 310.57 444.34 309.98 443.56 309.36 C 446.14 306.24 446.16 301.72 443.50 298.63 C 444.22 297.89 444.98 297.22 445.79 296.62 Z" fill="#f0fff7" />
<path d="M 443.50 298.63 C 446.16 301.72 446.14 306.24 443.56 309.36 C 442.68 308.61 441.34 308.06 440.86 306.98 C 441.27 304.93 441.23 303.12 441.10 301.06 C 441.66 300.09 442.70 299.40 443.50 298.63 Z" fill="#6dc58a" />
<path d="M 552.16 299.24 C 555.76 298.07 559.81 298.73 562.46 301.53 C 566.25 305.13 566.21 311.81 562.28 315.28 C 558.21 319.27 551.26 318.71 547.79 314.21 C 543.81 309.05 546.16 301.52 552.16 299.24 Z" fill="#03102c" />
<path d="M 587.11 301.01 C 591.86 305.12 595.99 310.39 600.61 314.70 C 600.72 310.62 600.11 305.96 600.86 302.03 L 603.12 302.04 C 603.59 308.17 603.50 314.82 603.16 320.98 L 602.32 320.66 C 598.20 316.55 594.39 312.04 590.14 308.08 C 589.49 312.21 590.24 316.52 589.68 320.65 C 588.88 320.68 588.07 320.70 587.27 320.71 C 586.82 314.20 587.10 307.54 587.11 301.01 Z" fill="#070d30" />
<path d="M 435.19 302.11 C 437.94 300.95 439.51 304.76 436.90 305.99 C 434.44 306.57 433.03 303.66 435.19 302.11 Z" fill="#d5cfe2" />
<path d="M 480.39 304.62 C 481.66 305.50 480.01 306.90 479.04 306.97 C 477.33 305.86 476.20 304.35 473.99 304.33 C 470.07 303.93 466.67 307.33 466.61 311.16 C 466.36 315.92 472.09 320.09 476.35 317.33 C 477.37 316.44 479.18 315.24 478.34 313.73 C 477.00 313.61 475.66 313.55 474.32 313.53 C 474.20 312.76 474.15 311.97 474.16 311.17 C 476.49 310.59 479.52 310.73 481.90 311.09 C 482.05 313.74 481.44 316.55 479.44 318.43 C 475.94 322.14 469.43 321.60 466.23 317.76 C 462.65 313.95 463.05 307.43 467.02 304.04 C 470.75 300.59 476.98 300.82 480.39 304.62 Z" fill="#040f2d" />
<path d="M 492.00 302.08 C 493.64 301.68 494.51 301.96 494.61 302.92 C 494.58 307.61 494.58 312.30 494.61 316.99 C 494.76 318.92 494.67 322.08 491.91 320.18 C 491.76 314.21 491.57 308.02 492.00 302.08 Z" fill="#050f2c" />
<path d="M 503.31 302.30 C 507.00 301.70 511.14 301.88 514.87 302.18 C 514.87 302.99 514.82 303.79 514.72 304.58 C 513.42 304.67 512.12 304.76 510.82 304.87 C 510.10 309.87 510.79 315.49 510.51 320.61 C 509.78 320.67 509.04 320.68 508.30 320.67 L 507.82 319.96 C 507.50 315.08 507.84 310.11 507.69 305.21 C 506.49 304.47 504.77 304.84 503.39 304.54 C 503.35 303.80 503.32 303.05 503.31 302.30 Z" fill="#050f2d" />
<path d="M 534.92 302.15 C 537.18 302.69 536.72 303.98 536.76 305.85 C 535.10 305.55 533.64 304.35 531.99 304.32 C 528.29 303.93 524.98 307.41 524.91 310.98 C 524.60 314.98 528.03 318.44 532.02 318.20 C 533.80 318.15 535.22 317.01 536.80 316.35 C 536.76 317.44 536.70 318.53 536.60 319.61 C 530.53 323.15 522.36 319.20 522.06 312.02 C 521.50 305.12 528.35 299.82 534.92 302.15 Z" fill="#040e2c" />
<path d="M 552.24 302.25 C 555.09 300.60 558.97 301.38 560.94 304.03 C 563.26 306.95 562.70 311.52 559.76 313.80 C 557.12 315.91 553.10 315.69 550.75 313.24 C 547.58 310.13 548.25 304.37 552.24 302.25 Z" fill="#67c986" />
<path d="M 576.05 302.06 C 576.57 307.93 576.36 314.28 576.16 320.21 L 574.99 320.82 L 573.68 320.31 C 573.04 314.71 573.62 308.62 573.38 302.92 C 573.50 301.95 574.39 301.66 576.05 302.06 Z" fill="#04102b" />
<path d="M 626.25 308.35 C 728.40 308.33 830.55 308.33 932.71 308.35 C 933.02 312.88 932.76 317.46 932.84 322.00 C 932.80 429.73 932.92 538.11 932.77 645.75 C 797.10 645.85 660.72 645.76 524.98 645.80 C 524.09 645.80 523.20 645.77 522.32 645.71 C 522.27 544.32 522.23 442.71 522.34 341.33 C 555.53 341.16 588.83 341.34 622.04 341.24 C 623.76 341.22 625.58 339.64 625.66 337.89 C 625.86 328.32 625.54 318.59 625.81 309.04 L 626.25 308.35 Z" fill="#db6d30" />
<path d="M 92.13 309.05 C 94.25 308.37 96.78 308.81 99.00 308.70 C 196.33 308.70 293.67 308.71 391.00 308.69 C 392.89 308.79 395.09 308.41 396.86 309.09 C 397.68 318.52 396.90 328.42 397.25 337.92 C 397.37 339.70 399.17 341.25 400.97 341.15 C 434.49 341.30 468.38 341.06 501.87 341.26 C 502.80 342.45 502.31 344.55 502.46 346.00 C 502.43 444.00 502.44 542.00 502.45 640.00 C 502.30 641.87 502.84 644.20 502.03 645.90 C 499.45 646.46 496.64 646.12 494.00 646.19 C 362.67 646.18 231.33 646.18 100.00 646.18 C 97.42 646.10 94.64 646.48 92.13 645.90 C 91.58 643.35 91.90 640.60 91.83 638.00 C 91.83 531.00 91.84 424.00 91.83 317.00 C 91.89 314.38 91.60 311.62 92.13 309.05 Z" fill="#84b7ee" />
<path d="M 247.03 342.31 C 251.70 347.29 256.85 354.20 261.40 359.58 C 264.00 363.63 267.93 366.40 270.56 370.43 C 272.47 372.50 274.15 374.57 275.81 376.83 L 277.00 378.25 C 280.44 384.66 284.92 390.37 288.31 396.81 C 292.89 402.94 296.16 410.29 301.17 416.05 C 301.22 418.57 299.52 419.38 297.99 420.99 C 294.03 425.10 289.75 428.74 286.42 433.42 C 277.71 442.72 269.17 452.15 260.00 461.01 C 255.63 465.03 251.95 469.67 247.82 473.91 C 244.83 476.41 241.62 475.30 238.00 475.51 C 224.91 475.62 211.79 475.10 198.71 475.42 C 195.78 471.99 192.55 468.81 189.41 465.58 C 188.54 464.70 187.75 463.74 188.43 462.47 C 190.45 461.31 192.58 460.38 194.48 459.01 L 194.34 457.98 C 190.64 455.47 185.38 454.29 182.20 451.25 C 185.48 450.08 189.10 449.41 192.60 449.39 C 192.57 448.78 192.52 448.18 192.45 447.58 C 187.36 444.99 182.72 441.42 177.49 439.19 L 177.57 438.59 C 180.44 436.65 184.89 436.49 187.29 434.03 C 187.40 429.11 188.36 424.39 188.67 419.48 C 193.45 407.56 199.06 395.91 203.91 384.02 C 205.30 378.72 211.01 375.43 214.91 371.92 C 221.63 365.29 228.41 358.73 235.44 352.43 C 239.23 349.11 242.86 345.07 247.03 342.31 Z" fill="#7f481f" />
<path d="M 712.00 354.38 C 714.41 354.28 717.25 353.73 719.57 354.50 C 721.32 356.73 722.97 358.96 724.91 361.03 C 729.28 366.83 732.72 373.41 736.16 379.79 C 738.68 386.65 741.61 392.96 742.83 400.21 C 745.35 407.27 745.82 414.22 745.59 421.67 C 743.28 422.62 740.48 421.60 737.98 421.65 C 736.61 421.44 734.40 421.93 734.41 419.89 C 734.28 410.24 732.16 400.92 729.12 391.80 C 727.21 387.30 725.89 382.94 723.06 379.00 C 718.90 370.49 712.49 362.94 705.57 356.53 L 705.46 355.58 C 707.55 354.18 709.61 354.65 712.00 354.38 Z" fill="#4f5858" />
<path d="M 736.77 354.82 C 740.12 353.50 742.74 355.40 746.00 355.47 C 748.21 355.40 750.15 357.86 751.33 359.50 C 753.39 364.14 755.00 368.94 757.22 373.51 C 757.55 379.15 759.77 384.34 759.62 390.00 C 759.74 399.00 759.69 408.00 759.61 417.00 C 759.47 419.22 759.54 422.66 757.99 424.37 C 754.95 424.81 751.22 423.64 748.28 422.75 C 747.50 419.05 749.40 414.78 749.44 411.00 C 749.57 405.69 749.72 400.30 749.40 394.99 C 748.08 390.79 748.71 386.41 747.51 382.16 C 745.36 373.96 742.63 366.15 738.24 358.85 C 737.65 357.59 736.49 356.24 736.77 354.82 Z" fill="#4f5858" />
<path d="M 410.97 356.31 C 412.56 356.84 411.44 358.88 411.12 359.99 C 407.73 370.18 403.86 380.11 400.40 390.28 C 397.70 398.25 394.42 405.99 391.78 413.97 C 390.96 417.21 389.04 419.69 389.39 423.12 C 391.26 425.58 393.88 427.46 395.66 429.96 C 394.48 432.28 391.73 433.57 390.47 435.99 C 392.37 437.99 395.35 438.80 397.62 440.40 C 397.57 442.79 393.42 444.64 392.41 446.90 C 391.86 451.31 395.54 456.42 391.93 459.96 C 389.64 462.40 387.85 465.21 385.70 467.78 L 384.91 467.98 C 381.20 463.73 376.86 460.12 373.08 455.96 C 369.64 451.40 365.36 447.60 361.91 443.03 C 357.31 438.02 352.24 433.40 347.49 428.52 C 343.80 425.16 342.06 421.33 337.99 418.87 C 337.72 418.25 337.46 417.63 337.22 417.00 C 344.03 411.90 350.12 406.02 357.09 401.11 C 361.54 397.54 365.96 393.97 370.49 390.49 C 373.37 387.30 376.91 385.01 380.03 382.08 C 382.70 379.97 385.72 378.64 387.98 375.98 C 392.82 371.48 398.47 367.78 403.53 363.54 C 405.36 361.97 407.28 360.91 408.23 358.57 C 409.11 357.77 410.04 357.04 410.97 356.31 Z" fill="#7f481f" />
<path d="M 408.23 358.57 C 407.28 360.91 405.36 361.97 403.53 363.54 C 398.47 367.78 392.82 371.48 387.98 375.98 C 385.72 378.64 382.70 379.97 380.03 382.08 C 376.91 385.01 373.37 387.30 370.49 390.49 C 365.96 393.97 361.54 397.54 357.09 401.11 C 350.12 406.02 344.03 411.90 337.22 417.00 C 334.45 405.94 332.00 394.76 329.36 383.67 C 328.77 381.57 328.77 380.39 329.46 378.34 C 311.98 378.42 294.47 378.61 277.00 378.25 L 275.81 376.83 C 291.18 376.63 306.62 376.83 322.00 376.74 C 325.59 376.65 328.80 377.20 332.20 375.79 C 334.13 375.68 335.44 375.50 337.20 374.67 C 341.45 374.75 344.92 372.77 349.00 372.15 C 355.11 370.85 361.09 368.93 366.93 367.67 C 373.04 366.60 378.89 363.89 385.04 363.28 C 388.22 362.13 391.36 361.36 394.77 361.32 C 398.66 359.24 403.80 357.70 408.23 358.57 Z" fill="#e47f26" />
<path d="M 690.08 360.92 C 696.31 365.18 702.30 370.02 707.48 375.53 C 709.99 378.25 712.66 380.30 714.61 383.44 C 722.04 393.87 728.24 404.50 731.56 416.97 C 731.79 418.17 731.68 419.26 731.22 420.23 C 728.32 420.93 724.95 420.57 721.96 420.47 C 720.53 419.47 720.39 417.63 719.80 416.11 C 712.76 395.95 698.75 378.46 680.13 367.88 C 678.99 367.13 676.99 366.53 676.37 365.26 C 679.08 363.25 682.72 362.25 685.79 360.86 C 687.23 360.26 688.74 359.87 690.08 360.92 Z" fill="#4f5858" />
<path d="M 766.16 361.03 C 766.77 360.63 767.56 360.71 768.52 361.27 C 772.18 362.45 775.48 362.74 778.19 365.82 C 779.51 368.80 779.54 371.83 779.93 375.00 C 780.87 380.87 780.61 387.06 780.60 393.01 C 780.64 397.30 779.51 401.42 779.57 405.70 C 779.21 405.27 778.86 404.83 778.51 404.39 C 778.57 406.96 777.58 409.41 777.30 411.98 C 776.40 414.74 776.47 417.64 775.35 420.36 C 774.03 423.32 773.25 427.16 771.05 429.58 C 767.87 428.62 764.12 427.74 761.42 425.76 C 762.70 421.78 764.75 418.07 765.81 413.98 C 768.30 408.21 768.61 401.41 768.56 395.19 C 769.32 397.29 768.82 399.71 769.45 401.80 C 769.57 392.91 769.97 384.07 769.36 375.19 C 768.63 372.81 767.96 370.48 767.63 368.00 C 767.37 365.56 766.14 363.52 766.16 361.03 Z" fill="#4e5858" />
<path d="M 663.98 374.82 C 671.20 377.54 678.10 380.07 684.44 384.57 C 688.08 387.19 692.32 389.38 695.60 392.39 C 702.97 398.87 710.22 406.16 715.49 414.48 C 716.81 416.59 719.00 418.87 718.68 421.49 C 716.11 421.65 713.55 421.73 711.01 422.16 C 709.34 422.20 707.84 422.90 706.69 421.31 C 702.19 413.95 696.26 407.90 689.98 402.06 C 680.37 394.21 669.01 387.45 657.03 384.05 C 655.47 383.25 650.77 384.24 651.40 381.40 C 653.37 378.77 656.26 377.94 658.53 375.51 C 659.97 373.69 662.07 374.22 663.98 374.82 Z" fill="#4f5858" />
<path d="M 792.50 374.32 C 796.75 375.41 800.67 379.19 803.61 382.32 C 803.92 386.09 803.43 390.03 803.35 393.83 C 801.10 399.74 800.84 406.34 798.20 412.22 C 796.35 415.85 795.61 419.80 793.30 423.19 C 791.04 427.81 788.40 432.55 785.00 436.44 C 781.62 435.62 778.50 433.22 775.47 431.50 L 775.60 430.50 C 780.85 424.90 784.26 417.25 787.10 410.19 C 788.15 407.41 788.45 404.48 789.81 401.80 C 792.33 392.75 792.80 383.68 792.50 374.32 Z" fill="#4f5858" />
<path d="M 277.00 378.25 C 294.47 378.61 311.98 378.42 329.46 378.34 C 328.77 380.39 328.77 381.57 329.36 383.67 C 332.00 394.76 334.45 405.94 337.22 417.00 C 337.46 417.63 337.72 418.25 337.99 418.87 C 338.14 420.42 338.16 421.86 338.61 423.35 C 341.31 431.31 343.30 439.53 345.44 447.66 C 348.99 460.11 352.58 472.50 355.90 485.01 C 356.25 486.86 356.81 488.61 357.50 490.36 C 358.66 493.23 358.58 496.31 359.79 499.16 C 361.90 504.72 362.86 510.68 364.73 516.29 C 366.65 520.01 370.41 522.71 372.86 526.13 C 373.85 527.17 375.46 529.66 376.35 526.99 C 374.87 522.55 371.35 519.70 369.81 515.24 C 371.90 514.48 373.82 513.46 375.81 512.48 C 377.04 512.65 379.00 511.78 379.57 513.28 C 380.21 515.80 380.52 518.38 381.20 520.90 C 382.37 525.49 382.18 530.99 384.29 535.26 C 384.40 537.34 384.34 539.46 384.60 541.54 C 388.43 545.98 393.09 549.73 396.51 554.50 C 398.63 557.05 401.65 559.16 403.35 562.00 C 402.20 566.05 397.43 563.12 396.23 565.36 C 394.85 565.60 393.52 565.95 392.16 566.30 C 389.79 566.03 389.13 568.24 387.21 568.70 C 385.41 566.95 385.15 564.56 382.75 563.21 C 376.03 556.99 369.71 550.24 363.13 543.86 C 355.36 537.77 348.92 530.04 341.67 523.35 C 339.36 521.33 338.12 518.76 337.16 515.91 C 334.91 509.12 332.13 502.33 330.40 495.42 C 327.52 489.16 325.50 482.50 322.91 476.11 C 319.03 464.72 314.57 453.72 310.74 442.31 C 308.36 437.33 307.54 431.92 305.05 427.00 C 303.49 423.56 303.12 419.21 301.17 416.05 C 296.16 410.29 292.89 402.94 288.31 396.81 C 284.92 390.37 280.44 384.66 277.00 378.25 Z" fill="#f68d24" />
<path d="M 638.04 394.83 C 640.77 393.88 644.45 394.58 647.20 395.34 C 655.72 395.46 664.43 398.71 672.46 401.49 C 679.00 403.76 684.32 407.79 690.46 410.75 C 694.17 413.66 697.75 416.68 701.55 419.45 C 702.61 420.54 704.49 421.81 704.65 423.41 C 700.34 423.71 696.35 426.11 692.10 425.79 C 690.04 424.76 688.35 422.94 686.47 421.61 C 676.75 414.80 665.62 409.74 654.00 407.24 C 646.08 405.14 638.38 405.52 630.32 405.47 C 631.96 401.70 635.22 397.84 638.04 394.83 Z" fill="#4f5858" />
<path d="M 816.08 396.01 C 818.17 396.09 819.57 398.96 820.74 400.41 C 822.08 402.50 824.47 403.61 823.58 406.45 C 820.52 416.45 815.48 425.92 809.30 434.34 C 806.21 437.93 803.02 443.55 798.93 445.96 C 796.02 444.92 792.80 442.20 790.65 439.97 C 791.57 438.09 793.10 437.06 794.48 435.48 C 803.41 425.13 810.72 412.76 814.34 399.52 C 814.69 398.40 814.99 396.65 816.08 396.01 Z" fill="#4e5858" />
<path d="M 301.17 416.05 C 303.12 419.21 303.49 423.56 305.05 427.00 C 307.54 431.92 308.36 437.33 310.74 442.31 C 314.57 453.72 319.03 464.72 322.91 476.11 C 325.50 482.50 327.52 489.16 330.40 495.42 C 332.13 502.33 334.91 509.12 337.16 515.91 C 338.12 518.76 339.36 521.33 341.67 523.35 C 348.92 530.04 355.36 537.77 363.13 543.86 C 369.71 550.24 376.03 556.99 382.75 563.21 C 385.15 564.56 385.41 566.95 387.21 568.70 C 389.13 568.24 389.79 566.03 392.16 566.30 C 391.02 567.78 389.73 569.07 389.04 570.76 L 388.15 570.63 C 386.43 570.44 384.80 570.28 383.15 570.96 C 380.28 571.90 376.97 571.07 374.03 571.80 C 370.08 573.16 365.54 571.64 361.45 573.20 C 358.18 573.67 355.02 573.21 351.80 574.31 C 345.25 574.46 338.85 574.51 332.47 576.21 C 325.95 576.69 319.59 576.16 313.18 578.00 C 309.52 578.98 305.17 577.75 301.44 579.16 C 297.68 579.67 293.78 579.33 289.99 579.85 C 284.61 580.69 279.16 580.34 273.81 581.49 C 271.78 581.64 269.92 581.54 268.06 582.49 C 265.08 583.83 261.90 583.86 258.92 585.31 C 242.63 590.41 226.30 595.19 210.06 600.50 C 205.15 602.03 200.01 603.24 194.95 605.28 C 192.80 605.97 190.89 606.37 189.80 603.94 C 186.20 592.66 181.49 581.62 177.16 570.59 C 174.50 564.90 173.15 558.67 170.28 553.11 L 170.29 551.07 C 173.53 551.30 176.76 551.30 180.00 551.26 C 202.00 551.24 224.00 551.27 246.00 551.24 C 248.79 551.21 251.36 550.03 254.17 550.00 C 252.70 550.92 249.78 551.26 251.37 553.63 C 255.52 559.42 260.15 564.91 264.34 570.70 C 267.35 573.71 269.48 577.93 273.00 580.28 C 275.70 578.95 276.69 574.94 278.48 572.60 C 282.13 564.40 287.17 556.96 290.87 548.82 C 292.47 545.69 294.86 542.46 295.89 539.16 C 294.89 539.02 293.89 538.92 292.88 538.84 C 293.93 538.34 294.60 537.70 294.89 536.92 C 293.73 534.73 291.50 532.98 289.76 531.23 C 281.13 522.53 272.41 513.89 263.80 505.17 C 261.24 501.78 257.66 500.19 255.87 496.18 C 253.10 489.77 249.42 483.78 246.55 477.42 C 243.76 476.97 240.83 477.22 238.00 477.16 C 225.22 477.08 212.43 476.99 199.65 476.64 C 199.35 476.23 199.04 475.82 198.71 475.42 C 211.79 475.10 224.91 475.62 238.00 475.51 C 241.62 475.30 244.83 476.41 247.82 473.91 C 251.95 469.67 255.63 465.03 260.00 461.01 C 269.17 452.15 277.71 442.72 286.42 433.42 C 289.75 428.74 294.03 425.10 297.99 420.99 C 299.52 419.38 301.22 418.57 301.17 416.05 Z" fill="#e47f25" />
<path d="M 628.35 418.43 C 636.79 417.13 645.50 417.39 654.01 417.75 C 660.09 418.04 665.73 420.16 671.77 420.65 C 676.83 423.19 682.65 424.50 687.58 427.24 C 687.38 428.46 684.84 429.18 683.82 429.68 C 680.55 430.63 677.33 433.21 673.98 433.44 C 660.20 428.57 645.43 427.30 630.97 429.24 C 629.37 428.64 629.52 427.38 629.01 426.01 C 628.30 423.59 628.03 420.93 628.35 418.43 Z" fill="#4f5858" />
<path d="M 337.99 418.87 C 342.06 421.33 343.80 425.16 347.49 428.52 C 352.24 433.40 357.31 438.02 361.91 443.03 C 365.36 447.60 369.64 451.40 373.08 455.96 C 376.86 460.12 381.20 463.73 384.91 467.98 C 382.41 471.29 384.53 475.81 382.81 479.80 C 382.41 484.60 381.24 489.14 381.17 493.97 C 374.15 494.04 367.18 494.63 360.20 495.30 C 359.98 496.57 359.85 497.86 359.79 499.16 C 358.58 496.31 358.66 493.23 357.50 490.36 C 356.81 488.61 356.25 486.86 355.90 485.01 C 352.58 472.50 348.99 460.11 345.44 447.66 C 343.30 439.53 341.31 431.31 338.61 423.35 C 338.16 421.86 338.14 420.42 337.99 418.87 Z" fill="#e47f25" />
<path d="M 833.40 420.38 C 834.14 424.66 837.43 428.85 837.44 433.06 C 830.91 443.22 822.75 452.09 812.97 459.18 C 810.08 457.67 807.46 454.66 805.63 451.99 C 806.35 450.02 808.40 449.24 809.97 447.90 C 817.64 441.19 824.23 433.42 829.63 424.79 C 830.43 423.33 831.30 420.25 833.40 420.38 Z" fill="#4f5858" />
<path d="M 743.79 435.71 C 752.64 437.94 761.15 441.02 769.60 444.47 C 778.01 448.82 785.90 453.64 793.01 459.99 C 796.41 463.62 800.62 467.14 803.66 470.98 C 798.68 476.83 793.07 482.38 786.74 486.78 C 783.27 489.47 779.82 492.02 775.83 493.92 C 769.64 496.80 764.87 500.40 758.02 501.85 C 754.25 502.53 750.84 504.11 747.00 504.49 C 735.47 507.36 722.73 506.73 710.99 505.58 C 707.09 505.43 703.15 504.13 699.54 502.68 C 689.37 499.94 680.14 495.10 671.12 489.78 C 665.12 484.61 658.65 480.26 653.60 474.41 C 652.52 473.06 651.26 472.02 651.25 470.17 C 661.32 458.11 674.48 448.63 689.02 442.70 C 693.08 442.45 696.28 440.48 699.86 438.75 C 702.53 437.95 705.30 437.57 707.99 436.89 C 719.92 434.37 731.70 435.37 743.79 435.71 Z" fill="#4e5858" />
<path d="M 659.00 437.49 C 660.93 437.57 663.15 437.26 664.97 437.94 C 664.88 439.95 663.29 440.69 661.85 441.72 C 659.35 443.26 657.13 444.96 654.99 446.95 C 652.57 449.19 649.20 448.34 646.20 448.54 C 647.97 449.15 649.99 448.88 651.80 449.43 C 647.78 449.36 643.93 449.50 639.98 450.32 C 639.09 450.60 638.24 450.34 637.43 449.56 C 635.61 447.50 634.52 444.57 633.63 441.99 C 633.86 439.34 638.94 439.79 640.82 439.34 C 646.40 437.35 653.13 437.60 659.00 437.49 Z" fill="#4f5858" />
<path d="M 618.97 445.70 C 621.55 447.55 622.26 452.19 623.53 455.03 C 620.06 457.62 615.75 459.18 611.99 461.36 L 610.86 461.17 C 609.97 459.27 610.63 457.33 611.21 455.46 C 611.76 453.43 611.05 451.04 612.46 449.45 C 614.05 447.54 616.61 446.32 618.97 445.70 Z" fill="#505758" />
<path d="M 727.00 449.31 C 733.77 448.87 740.08 452.65 744.50 457.52 C 751.15 466.65 749.86 481.61 740.11 488.17 C 732.41 494.23 719.11 494.15 712.48 486.53 C 703.37 479.27 703.45 464.42 711.15 456.16 C 715.51 451.97 720.74 448.88 727.00 449.31 Z" fill="#d96d32" />
<path d="M 841.46 449.54 C 842.60 449.15 843.44 450.02 843.41 451.13 C 843.38 454.99 844.22 459.05 843.63 462.86 C 842.99 465.16 839.22 466.06 837.56 467.64 C 834.68 470.24 831.32 472.03 828.18 474.25 C 826.89 474.98 826.01 476.19 824.39 475.61 C 822.95 472.81 820.29 469.91 819.50 466.99 C 823.02 463.90 827.52 462.24 831.07 459.09 C 835.18 456.51 837.81 452.62 841.46 449.54 Z" fill="#4f5858" />
<path d="M 700.48 450.22 C 700.59 450.74 700.39 451.29 699.87 451.88 C 695.96 457.09 693.94 463.51 693.97 470.01 C 694.15 474.14 695.38 477.96 695.83 482.04 C 696.73 485.54 699.40 488.35 700.63 491.77 C 697.52 491.48 695.37 489.80 692.51 488.68 C 683.03 485.31 674.24 478.77 666.49 472.48 C 665.58 471.78 664.97 470.97 665.98 470.02 C 670.40 465.68 675.40 461.65 680.95 458.86 C 684.98 455.59 689.59 454.36 694.17 452.14 C 696.22 451.23 698.20 450.34 700.48 450.22 Z" fill="#da6d31" />
<path d="M 754.23 450.28 C 757.90 450.97 761.48 452.64 764.86 454.19 C 770.93 457.42 776.91 460.28 782.17 464.81 C 784.25 466.58 787.35 468.59 788.61 470.99 C 786.19 474.89 781.70 476.85 778.54 479.54 C 775.38 482.73 771.25 483.76 767.45 486.34 C 763.04 488.61 758.29 490.96 753.36 491.77 C 754.75 488.98 756.72 486.85 757.76 483.84 C 761.26 475.42 761.37 464.97 757.24 456.75 C 756.29 454.67 754.39 452.59 754.23 450.28 Z" fill="#da6d31" />
<path d="M 727.00 456.47 C 733.29 456.23 738.98 460.44 740.83 466.42 C 744.57 475.58 736.40 485.62 727.00 485.54 C 720.09 485.80 714.66 479.99 712.58 473.84 C 711.67 468.60 713.59 464.70 716.61 460.62 C 719.59 458.21 723.05 456.29 727.00 456.47 Z" fill="#4f5758" />
<path d="M 628.17 466.28 C 629.89 466.00 630.41 466.19 631.12 467.78 C 632.13 470.46 634.53 472.21 635.54 474.78 C 630.02 477.69 624.93 481.24 620.04 485.09 C 617.18 487.31 615.09 490.46 612.25 492.63 C 610.46 488.82 609.83 482.71 610.59 478.64 C 616.22 474.15 622.02 470.03 628.17 466.28 Z" fill="#4f5858" />
<path d="M 725.43 466.51 C 727.31 466.15 730.03 465.86 730.81 468.13 C 732.94 471.36 730.47 475.11 726.99 475.46 C 724.21 475.14 722.13 472.79 722.64 469.94 C 723.22 468.55 724.16 467.34 725.43 466.51 Z" fill="#d57034" />
<path d="M 384.91 467.98 L 385.70 467.78 C 385.40 470.99 385.68 474.29 385.23 477.46 C 383.77 481.32 385.05 485.17 383.92 489.03 C 383.06 492.47 383.48 495.82 384.48 499.17 C 386.04 503.79 385.64 508.62 387.75 513.07 C 388.41 522.32 385.90 530.85 386.48 540.08 C 388.51 543.38 392.14 545.27 394.01 548.87 C 397.50 554.86 404.05 559.41 408.17 564.46 C 404.24 563.97 400.10 564.62 396.23 565.36 C 397.43 563.12 402.20 566.05 403.35 562.00 C 401.65 559.16 398.63 557.05 396.51 554.50 C 393.09 549.73 388.43 545.98 384.60 541.54 C 384.34 539.46 384.40 537.34 384.29 535.26 C 386.00 529.85 385.26 523.63 385.48 518.00 C 385.28 514.40 386.18 509.98 384.23 506.86 C 382.70 504.12 384.10 500.64 382.09 497.86 C 381.61 496.60 381.37 495.30 381.17 493.97 C 381.24 489.14 382.41 484.60 382.81 479.80 C 384.53 475.81 382.41 471.29 384.91 467.98 Z" fill="#b88e6b" />
<path d="M 199.65 476.64 C 212.43 476.99 225.22 477.08 238.00 477.16 C 240.83 477.22 243.76 476.97 246.55 477.42 C 249.42 483.78 253.10 489.77 255.87 496.18 C 257.66 500.19 261.24 501.78 263.80 505.17 C 272.41 513.89 281.13 522.53 289.76 531.23 C 291.50 532.98 293.73 534.73 294.89 536.92 C 294.60 537.70 293.93 538.34 292.88 538.84 C 280.05 542.80 266.99 546.03 254.17 550.00 C 251.36 550.03 248.79 551.21 246.00 551.24 C 224.00 551.27 202.00 551.24 180.00 551.26 C 176.76 551.30 173.53 551.30 170.29 551.07 C 171.71 546.17 174.35 540.40 176.02 535.41 C 177.83 530.09 180.52 525.04 182.26 519.73 C 186.40 508.88 191.15 498.09 194.83 487.13 C 196.57 483.82 197.25 479.52 199.65 476.64 Z" fill="#f68d24" />
<path d="M 842.06 480.57 L 843.20 480.79 C 844.39 484.07 842.79 488.55 842.04 491.88 C 840.63 494.04 837.00 496.71 834.35 495.66 C 833.13 492.84 831.80 489.99 830.97 487.02 L 831.32 486.33 C 834.71 484.14 838.59 482.69 842.06 480.57 Z" fill="#505758" />
<path d="M 640.49 482.55 C 641.18 482.38 641.85 482.39 642.49 482.59 C 644.38 484.33 646.15 486.21 647.97 488.02 C 649.11 489.04 648.84 490.74 647.55 491.51 C 639.59 497.39 632.61 504.83 627.00 512.98 C 625.06 515.62 624.02 519.83 621.25 521.64 C 619.47 517.91 617.91 513.92 616.59 510.00 C 616.78 507.11 620.19 504.26 621.74 501.84 C 625.19 497.71 628.49 492.86 632.87 489.72 C 635.79 487.63 637.81 484.90 640.49 482.55 Z" fill="#4f5858" />
<path d="M 803.20 492.53 C 807.60 492.83 811.73 491.73 816.07 491.50 C 817.71 491.89 817.85 493.48 818.47 494.80 C 819.35 497.21 821.01 498.71 820.60 501.48 C 813.42 502.96 806.39 504.43 799.00 504.40 C 795.50 504.36 791.53 504.90 788.17 503.78 C 788.33 503.12 788.70 502.64 789.28 502.36 C 793.52 499.90 797.14 496.71 801.02 493.77 C 802.87 493.33 804.90 493.48 806.80 493.46 C 805.60 493.16 804.39 492.88 803.20 492.53 Z" fill="#4f5858" />
<path d="M 381.17 493.97 C 381.37 495.30 381.61 496.60 382.09 497.86 C 380.95 501.31 380.39 504.93 379.15 508.34 C 377.38 505.28 374.68 503.15 372.91 500.10 C 371.81 498.56 370.59 499.22 369.59 500.41 C 369.34 503.98 369.57 507.41 368.93 510.98 C 368.55 512.98 368.63 513.60 369.81 515.24 C 371.35 519.70 374.87 522.55 376.35 526.99 C 375.46 529.66 373.85 527.17 372.86 526.13 C 370.41 522.71 366.65 520.01 364.73 516.29 C 362.86 510.68 361.90 504.72 359.79 499.16 C 359.85 497.86 359.98 496.57 360.20 495.30 C 367.18 494.63 374.15 494.04 381.17 493.97 Z" fill="#d86f21" />
<path d="M 328.70 495.33 C 329.34 495.82 329.71 496.40 329.80 497.07 C 328.86 503.38 326.84 509.64 325.75 515.92 C 325.52 517.58 324.62 518.83 323.82 520.25 C 323.03 519.02 322.64 517.49 322.10 516.13 C 318.75 511.50 316.25 506.28 313.08 501.52 C 310.73 500.98 309.09 502.11 307.10 503.11 C 301.48 506.34 295.72 509.36 290.08 512.61 C 288.62 512.55 287.33 512.83 286.01 512.03 C 278.23 507.96 270.31 504.28 262.31 500.66 C 261.26 500.12 258.41 498.90 259.19 497.34 C 270.46 497.40 281.75 496.89 293.02 496.74 C 302.52 495.79 312.13 496.41 321.66 495.54 C 324.01 495.29 326.33 495.03 328.70 495.33 Z" fill="#d87022" />
<path d="M 655.03 495.69 C 655.86 495.69 656.63 496.03 657.37 496.70 C 659.32 498.44 662.28 499.74 663.60 502.00 C 659.23 507.26 654.51 512.04 650.99 517.99 C 646.18 524.86 643.25 532.32 640.49 540.17 C 639.70 542.05 639.75 545.33 637.94 546.48 C 635.30 544.42 633.34 541.24 631.40 538.52 C 629.13 536.06 631.95 532.53 632.71 529.86 C 637.40 516.95 645.27 505.29 655.03 495.69 Z" fill="#4e5858" />
<path d="M 382.09 497.86 C 384.10 500.64 382.70 504.12 384.23 506.86 C 386.18 509.98 385.28 514.40 385.48 518.00 C 385.26 523.63 386.00 529.85 384.29 535.26 C 382.18 530.99 382.37 525.49 381.20 520.90 C 380.52 518.38 380.21 515.80 379.57 513.28 C 379.00 511.78 377.04 512.65 375.81 512.48 C 377.71 511.35 378.58 510.55 379.15 508.34 C 380.39 504.93 380.95 501.31 382.09 497.86 Z" fill="#e37f25" />
<path d="M 372.91 500.10 C 374.68 503.15 377.38 505.28 379.15 508.34 C 378.58 510.55 377.71 511.35 375.81 512.48 C 373.82 513.46 371.90 514.48 369.81 515.24 C 368.63 513.60 368.55 512.98 368.93 510.98 C 369.57 507.41 369.34 503.98 369.59 500.41 C 370.59 499.22 371.81 498.56 372.91 500.10 Z" fill="#b4a094" />
<path d="M 313.08 501.52 C 316.25 506.28 318.75 511.50 322.10 516.13 C 322.67 517.29 322.76 518.36 322.36 519.35 C 320.74 519.88 318.61 519.55 317.04 518.93 C 309.56 517.20 302.68 516.03 296.20 514.61 C 294.51 514.20 290.93 514.22 290.08 512.61 C 295.72 509.36 301.48 506.34 307.10 503.11 C 309.09 502.11 310.73 500.98 313.08 501.52 Z" fill="#86b6ea" />
<path d="M 371.38 502.27 C 373.08 501.38 374.01 504.17 374.81 505.20 C 375.54 506.81 377.43 508.99 375.63 510.53 C 374.36 511.30 372.61 512.23 371.09 512.02 C 369.75 511.08 370.49 509.35 370.47 507.99 C 370.64 506.05 370.78 504.14 371.38 502.27 Z" fill="#86b6ec" />
<path d="M 671.02 505.79 C 673.18 506.91 675.69 507.91 677.55 509.47 C 678.63 511.27 676.25 513.91 675.53 515.56 C 671.36 521.83 668.26 528.68 665.78 535.77 C 664.55 539.00 664.23 542.42 662.83 545.56 C 661.83 552.95 661.41 560.24 661.51 567.72 C 657.50 565.87 653.84 562.47 650.54 559.54 C 650.33 556.78 650.46 553.95 650.65 551.20 C 651.74 548.74 651.96 546.16 652.42 543.54 C 653.70 537.82 655.35 532.26 657.50 526.81 C 659.72 519.90 663.81 514.31 666.98 507.94 C 668.09 506.58 668.94 504.86 671.02 505.79 Z" fill="#4f5858" />
<path d="M 779.01 508.64 C 780.66 507.95 782.51 509.16 784.17 509.49 C 788.45 510.40 792.68 511.55 796.99 512.27 C 806.14 513.02 815.45 512.42 824.60 512.53 C 825.76 513.43 825.33 514.65 825.58 515.98 C 825.64 518.78 826.56 520.99 825.61 523.50 C 816.02 524.36 806.90 524.97 797.28 523.51 C 795.83 523.00 794.62 522.45 793.03 522.53 C 785.77 522.37 778.33 518.33 771.49 517.24 C 770.19 516.63 766.80 515.30 767.46 513.40 C 770.85 511.39 775.33 510.23 779.01 508.64 Z" fill="#4f5758" />
<path d="M 685.01 512.63 C 687.34 513.69 690.54 513.91 692.56 515.37 C 693.15 518.64 690.85 519.98 690.04 522.97 C 688.29 527.04 687.69 531.35 686.54 535.59 C 684.83 545.24 683.63 555.18 685.36 564.92 C 685.92 569.10 686.16 573.83 688.19 577.56 C 688.60 578.82 688.46 580.27 688.55 581.59 C 687.34 581.47 686.27 581.70 685.28 580.92 C 682.58 578.93 679.21 578.35 676.46 576.58 C 675.52 574.46 675.35 572.27 674.75 570.01 C 672.06 551.61 674.17 532.66 681.41 515.51 C 682.20 514.04 682.82 511.71 685.01 512.63 Z" fill="#4f5858" />
<path d="M 290.19 515.15 C 292.17 514.76 294.21 515.07 296.20 514.61 C 302.68 516.03 309.56 517.20 317.04 518.93 C 318.61 519.55 320.74 519.88 322.36 519.35 C 322.76 518.36 322.67 517.29 322.10 516.13 C 322.64 517.49 323.03 519.02 323.82 520.25 C 326.07 522.41 329.03 523.54 331.26 525.76 C 333.18 527.62 335.48 528.83 337.58 530.43 C 344.52 536.58 352.26 541.80 359.57 547.51 C 365.46 551.57 370.60 556.43 376.15 560.90 C 378.69 562.61 382.32 564.26 383.93 566.92 C 382.10 567.40 380.75 566.59 379.07 566.05 C 377.00 565.27 374.79 564.99 372.72 564.23 C 366.92 561.87 360.83 560.34 355.02 557.99 C 344.50 554.61 334.23 550.56 323.67 547.25 C 319.17 545.00 314.25 544.36 309.64 542.42 C 305.97 540.87 302.09 539.93 298.36 538.54 C 296.22 537.74 295.79 534.83 295.10 532.91 C 294.17 529.20 292.55 525.78 291.89 522.01 C 291.40 519.40 289.48 518.05 290.19 515.15 Z" fill="#f58d25" />
<path d="M 761.99 515.84 C 764.10 517.05 766.17 518.39 767.99 520.01 C 771.85 523.56 777.32 525.74 782.02 528.09 C 791.72 532.92 802.22 535.57 812.99 536.46 C 815.99 536.69 819.22 536.19 822.14 536.88 L 822.62 537.94 C 821.63 541.30 818.27 544.36 816.38 547.41 C 812.68 547.50 808.30 548.07 804.86 546.48 C 792.30 544.28 780.20 540.20 769.08 533.91 C 766.60 532.29 764.17 530.66 761.55 529.28 C 757.97 526.21 754.19 523.45 750.77 520.21 C 749.85 519.24 750.13 518.02 751.46 517.77 C 754.85 517.12 758.54 515.79 761.99 515.84 Z" fill="#4f5858" />
<path d="M 697.02 516.74 C 700.09 517.89 703.75 516.92 706.48 518.60 C 706.52 521.75 705.47 524.81 705.50 528.00 C 705.30 535.28 705.29 542.72 705.50 550.00 C 705.70 556.97 708.01 562.85 709.71 569.51 C 711.99 575.81 715.65 581.78 718.62 587.71 C 714.23 587.86 710.04 587.03 705.75 586.23 L 704.62 585.49 C 700.94 577.23 697.80 568.82 695.76 560.00 C 693.01 546.63 692.68 532.23 695.65 518.86 C 695.83 517.79 696.28 517.09 697.02 516.74 Z" fill="#4f5858" />
<path d="M 709.88 519.91 C 712.92 520.31 716.17 520.26 719.18 520.84 C 720.59 530.69 721.66 540.45 725.21 549.87 C 729.58 561.46 736.26 572.27 744.50 581.50 C 745.52 582.79 747.97 584.18 747.91 585.94 C 743.95 586.95 740.01 587.85 735.93 587.51 C 732.56 585.39 730.84 582.36 728.73 579.14 C 719.55 567.60 713.94 552.78 710.64 538.52 C 709.76 532.73 708.73 525.61 709.88 519.91 Z" fill="#4e5858" />
<path d="M 746.07 519.51 C 748.67 521.07 750.10 524.65 752.13 526.93 C 760.09 536.44 769.29 544.93 780.37 550.67 C 787.14 554.34 794.86 557.81 802.57 558.68 L 803.53 559.40 C 803.86 561.45 800.77 562.47 799.44 563.43 C 797.10 564.58 794.63 567.48 791.99 567.52 C 785.80 565.25 779.83 563.19 774.23 559.74 C 770.31 557.70 766.66 555.77 763.44 552.67 C 756.91 548.47 751.98 542.94 746.54 537.50 C 742.87 532.61 738.50 527.62 735.58 522.00 L 735.92 520.90 C 739.21 520.07 742.66 519.46 746.07 519.51 Z" fill="#4e5858" />
<path d="M 722.76 521.75 C 725.01 521.01 727.68 521.46 730.03 521.38 C 731.64 521.28 733.52 522.45 733.97 524.03 C 736.65 531.43 739.47 538.51 744.07 544.96 C 746.00 547.39 747.65 549.99 749.42 552.54 C 751.57 556.10 755.11 558.94 757.98 562.02 C 760.28 564.45 763.21 566.04 765.54 568.45 C 768.67 571.42 772.77 572.23 775.94 575.08 C 776.65 575.61 776.98 576.20 776.92 576.87 C 773.77 578.93 769.63 580.28 766.01 581.42 C 758.85 577.59 753.03 572.32 747.49 566.51 C 742.35 561.82 738.35 556.24 734.60 550.42 C 729.73 543.71 726.42 535.84 723.75 528.02 C 723.37 526.13 721.71 523.52 722.76 521.75 Z" fill="#4f5858" />
<path d="M 292.88 538.84 C 293.89 538.92 294.89 539.02 295.89 539.16 C 294.86 542.46 292.47 545.69 290.87 548.82 C 287.17 556.96 282.13 564.40 278.48 572.60 C 276.69 574.94 275.70 578.95 273.00 580.28 C 269.48 577.93 267.35 573.71 264.34 570.70 C 260.15 564.91 255.52 559.42 251.37 553.63 C 249.78 551.26 252.70 550.92 254.17 550.00 C 266.99 546.03 280.05 542.80 292.88 538.84 Z" fill="#d96f21" />
<path d="M 396.23 565.36 C 400.10 564.62 404.24 563.97 408.17 564.46 C 410.79 566.49 413.74 567.82 416.48 569.62 C 416.68 570.91 416.40 571.76 415.68 572.83 C 413.21 577.06 410.90 581.47 408.96 585.97 C 408.36 586.35 407.76 586.72 407.15 587.08 C 403.85 587.41 400.15 587.14 396.98 588.19 C 394.48 588.58 391.83 588.88 389.30 588.71 C 388.70 582.77 389.00 576.72 389.04 570.76 C 389.73 569.07 391.02 567.78 392.16 566.30 C 393.52 565.95 394.85 565.60 396.23 565.36 Z" fill="#21201e" />
<path d="M 383.15 570.96 C 384.80 570.28 386.43 570.44 388.15 570.63 C 388.48 576.41 388.32 582.23 388.31 588.02 C 388.49 590.00 386.68 590.46 385.32 591.35 C 379.22 594.40 373.44 598.00 367.54 601.42 C 364.83 602.94 362.47 602.05 359.69 601.43 C 352.95 599.66 345.99 598.64 339.32 596.61 C 336.02 595.72 332.62 595.65 329.37 594.52 C 325.12 593.07 320.72 592.56 316.39 591.46 C 307.30 589.23 298.18 587.02 289.01 585.17 L 286.75 585.37 C 282.44 583.94 277.83 583.46 273.81 581.49 C 279.16 580.34 284.61 580.69 289.99 579.85 C 293.78 579.33 297.68 579.67 301.44 579.16 C 305.17 577.75 309.52 578.98 313.18 578.00 C 319.59 576.16 325.95 576.69 332.47 576.21 C 338.85 574.51 345.25 574.46 351.80 574.31 C 355.02 573.21 358.18 573.67 361.45 573.20 C 365.54 571.64 370.08 573.16 374.03 571.80 C 376.97 571.07 380.28 571.90 383.15 570.96 Z" fill="#dac7b9" />
<path d="M 388.15 570.63 L 389.04 570.76 C 389.00 576.72 388.70 582.77 389.30 588.71 C 391.83 588.88 394.48 588.58 396.98 588.19 C 400.15 587.14 403.85 587.41 407.15 587.08 C 404.11 592.64 399.29 597.33 395.10 602.02 C 393.76 603.68 393.16 605.45 391.02 606.27 C 388.31 606.49 385.63 606.32 382.94 606.83 C 378.74 607.71 374.49 607.17 370.14 607.54 C 362.53 608.75 354.31 608.97 346.79 607.09 C 341.15 602.92 333.43 601.66 326.87 599.29 C 324.25 598.17 321.55 597.31 318.81 596.55 C 314.10 595.42 309.99 592.84 305.22 591.86 C 299.04 589.87 292.74 587.87 286.75 585.37 L 289.01 585.17 C 298.18 587.02 307.30 589.23 316.39 591.46 C 320.72 592.56 325.12 593.07 329.37 594.52 C 332.62 595.65 336.02 595.72 339.32 596.61 C 345.99 598.64 352.95 599.66 359.69 601.43 C 362.47 602.05 364.83 602.94 367.54 601.42 C 373.44 598.00 379.22 594.40 385.32 591.35 C 386.68 590.46 388.49 590.00 388.31 588.02 C 388.32 582.23 388.48 576.41 388.15 570.63 Z" fill="#c5b6aa" />
<path d="M 522.40 664.48 C 659.15 664.49 795.93 664.51 932.67 664.47 C 932.88 665.99 932.87 667.47 932.86 669.00 C 932.82 779.89 932.90 890.96 932.82 1001.82 C 929.85 1002.31 927.04 1002.03 924.00 1002.09 C 793.00 1002.09 662.00 1002.09 531.00 1002.09 C 528.05 1002.05 525.21 1002.29 522.28 1001.76 C 522.26 891.17 522.28 780.59 522.27 670.00 C 522.27 668.16 522.27 666.31 522.40 664.48 Z" fill="#4bc37d" />
<path d="M 92.32 665.26 C 93.92 664.39 96.22 664.84 98.00 664.73 C 232.01 664.78 366.02 664.71 500.02 664.77 C 502.16 664.89 502.46 666.09 502.41 667.98 C 502.38 776.31 502.42 884.67 502.39 993.00 C 502.40 995.67 502.48 998.35 502.33 1001.02 C 501.83 1002.03 501.06 1002.48 500.02 1002.37 C 365.68 1002.36 231.34 1002.34 97.00 1002.37 C 95.57 1002.21 93.42 1002.76 92.28 1001.78 C 91.62 1000.36 91.83 998.55 91.78 997.00 C 91.79 887.67 91.78 778.33 91.78 668.99 C 91.77 667.75 91.95 666.50 92.32 665.26 Z" fill="#ebed5b" />
<path d="M 698.24 708.22 C 699.65 707.28 701.97 707.92 701.17 709.95 C 700.05 712.20 697.27 710.36 698.24 708.22 Z" fill="#247d96" />
<path d="M 711.17 708.18 C 712.81 706.71 715.51 708.23 714.38 710.29 C 712.94 712.66 709.63 710.38 711.17 708.18 Z" fill="#23739b" />
<path d="M 686.20 709.30 C 687.30 709.19 687.95 709.75 688.14 710.98 C 687.83 712.67 685.31 712.61 685.00 710.95 C 685.07 710.14 685.47 709.59 686.20 709.30 Z" fill="#309093" />
<path d="M 724.36 709.33 C 726.90 707.45 728.95 710.04 727.46 712.48 C 724.74 713.71 722.89 712.07 724.36 709.33 Z" fill="#215ac7" />
<path d="M 739.00 711.37 C 742.01 711.21 741.74 713.22 741.50 715.49 C 740.11 716.45 739.12 716.65 737.45 716.45 C 735.55 715.23 735.88 710.67 739.00 711.37 Z" fill="#205dbe" />
<path d="M 750.36 715.35 C 752.72 714.53 755.03 716.45 753.98 718.93 C 753.43 720.83 750.61 721.08 749.40 719.63 C 747.85 718.12 748.65 716.23 750.36 715.35 Z" fill="#2556d7" />
<path d="M 784.19 716.20 C 785.94 715.11 786.93 717.51 785.72 718.71 C 784.07 719.70 783.11 717.35 784.19 716.20 Z" fill="#298e92" />
<path d="M 713.13 719.32 C 716.75 717.80 719.27 719.95 722.14 721.78 C 724.62 721.95 726.47 720.17 729.04 720.54 C 731.81 721.02 733.46 722.73 735.46 724.48 C 738.04 725.24 741.01 723.70 743.71 725.30 C 746.49 726.26 747.49 728.48 749.42 730.42 C 751.93 730.61 754.15 730.15 756.42 731.56 C 759.18 732.74 760.25 734.89 761.62 737.37 C 764.27 738.20 766.72 738.21 768.90 740.11 C 771.11 741.73 771.77 743.90 772.68 746.35 C 775.82 747.53 778.61 748.52 780.57 751.45 C 782.12 753.16 782.05 755.82 783.42 757.53 C 785.86 759.70 788.33 761.06 789.59 764.30 C 790.23 766.27 790.29 768.29 790.65 770.31 C 792.52 772.59 794.68 773.92 795.47 776.95 C 795.83 779.81 795.42 782.70 795.60 785.55 C 797.17 788.30 798.77 790.63 798.45 794.00 C 798.08 800.09 798.27 806.70 796.46 812.56 C 794.57 820.67 790.01 828.29 784.30 834.30 C 782.26 836.27 779.79 838.70 777.01 839.49 C 775.30 838.33 775.56 836.78 775.89 835.00 C 776.73 831.10 776.66 826.96 776.45 823.00 C 775.88 816.66 772.64 810.94 769.22 805.73 C 768.14 804.24 767.97 802.11 767.51 800.36 C 766.37 799.34 764.29 799.67 762.83 799.42 C 761.27 797.04 759.44 795.41 758.49 792.55 C 756.02 792.23 753.88 792.67 751.63 791.33 C 750.38 790.12 749.33 788.73 748.06 787.55 C 745.62 787.39 742.95 787.81 740.55 787.38 C 739.28 786.40 738.24 785.01 736.86 784.22 C 734.76 784.26 733.07 785.60 731.01 785.60 C 728.65 785.84 727.05 784.60 724.94 783.84 C 723.07 783.77 721.68 786.27 719.86 786.48 C 717.90 786.64 716.04 786.45 714.07 786.40 C 711.74 785.86 710.94 789.02 708.92 789.96 C 707.12 791.29 703.85 789.85 702.37 791.29 C 701.22 793.91 699.86 795.87 697.27 797.25 C 695.66 797.66 694.02 797.89 692.43 798.36 C 692.06 799.72 691.75 801.09 691.40 802.45 C 690.08 805.11 687.82 805.85 685.54 807.41 C 685.34 809.27 685.35 811.08 684.68 812.87 C 684.22 815.53 682.17 816.52 680.48 818.35 C 680.66 820.35 681.80 821.92 681.43 824.04 C 680.84 826.44 679.32 828.07 678.23 830.12 C 678.27 832.22 679.83 833.79 679.64 836.00 C 679.90 838.25 678.44 839.75 678.25 841.87 C 679.17 843.31 680.46 844.47 681.35 845.95 C 681.82 848.40 681.41 851.06 681.52 853.41 C 683.03 854.33 684.49 854.93 685.54 856.44 C 687.02 858.34 687.15 861.33 687.45 863.64 C 689.59 865.29 692.11 865.97 693.41 868.53 C 693.80 869.85 694.17 871.18 694.54 872.50 C 697.12 873.21 700.10 873.20 702.10 874.92 C 703.62 876.06 703.91 877.68 704.73 879.30 C 707.25 880.18 710.33 879.11 712.86 881.14 C 714.03 882.04 715.01 883.20 716.06 884.23 C 718.22 884.71 720.58 883.87 722.77 884.37 C 724.93 885.09 726.65 887.20 729.02 886.42 C 731.19 885.62 733.28 885.04 735.61 885.44 C 737.46 885.68 739.02 887.77 740.86 887.73 C 742.98 886.76 744.48 885.29 746.99 885.45 C 749.28 885.42 750.74 886.70 752.74 887.52 C 754.32 886.58 755.87 885.30 757.58 884.56 C 759.44 884.04 761.65 884.56 763.60 884.52 C 764.96 883.28 766.01 881.67 767.44 880.52 C 769.54 879.15 771.94 879.69 774.37 879.41 C 775.45 877.36 775.95 875.37 777.97 873.98 C 779.93 872.40 782.12 872.35 784.40 871.50 C 785.17 869.41 785.29 867.45 786.92 865.88 C 788.52 864.12 790.57 863.76 792.57 862.66 C 793.50 859.84 793.03 857.43 795.27 855.26 C 796.21 854.08 798.18 853.75 799.56 853.36 C 800.06 850.19 799.06 847.57 800.69 844.69 C 802.10 843.20 803.83 842.49 805.56 841.47 C 804.90 839.24 803.61 837.82 804.23 835.19 C 804.81 831.76 807.79 831.05 809.61 828.97 C 806.35 825.45 806.66 820.06 810.94 817.62 C 813.47 817.29 816.14 816.83 817.92 819.07 C 819.61 820.83 819.54 822.58 819.57 824.86 C 819.93 823.66 820.19 822.42 820.49 821.20 C 820.36 822.82 820.61 824.66 820.08 826.20 C 818.83 828.27 816.55 829.42 814.49 830.51 C 816.10 832.62 817.88 834.05 817.58 837.00 C 817.65 840.55 815.32 842.19 812.49 843.64 C 812.37 845.84 813.97 847.67 813.58 850.02 C 813.25 854.13 810.58 855.05 807.56 856.97 C 807.63 859.26 807.71 861.62 808.22 863.86 C 809.90 863.76 811.37 862.79 813.03 862.72 C 814.59 863.21 816.10 863.49 817.32 864.66 C 818.77 866.89 819.06 870.17 817.20 872.25 C 815.57 874.33 812.60 873.76 810.13 874.30 C 809.91 876.95 811.09 879.08 809.54 881.61 C 807.58 884.56 803.08 883.71 800.12 883.16 C 799.47 881.26 799.05 879.31 798.47 877.39 C 796.61 877.02 794.05 878.71 792.10 879.05 C 791.28 879.07 790.97 879.67 791.17 880.85 C 794.50 881.39 797.31 880.86 800.12 883.16 C 800.58 885.34 800.82 887.84 800.16 890.00 C 799.40 891.91 797.74 892.47 796.06 893.35 C 793.89 893.93 792.44 892.81 790.44 892.46 C 789.97 896.23 789.23 899.89 785.02 900.95 C 783.22 901.95 780.78 899.90 779.08 900.92 C 777.66 903.47 777.06 905.89 773.87 906.72 C 771.00 908.34 769.09 905.94 766.42 906.44 C 764.73 908.36 763.50 910.35 761.07 911.45 C 758.05 911.98 755.80 910.65 753.03 909.80 C 751.78 910.52 751.41 911.39 751.24 912.76 C 753.72 914.52 755.50 915.89 756.17 919.05 C 755.23 922.11 753.53 924.72 749.99 924.72 C 746.95 925.10 745.05 923.64 743.57 921.14 C 743.41 918.53 744.20 916.46 744.99 914.05 C 743.47 913.07 740.81 910.49 739.00 911.00 L 738.57 911.95 C 741.64 914.46 744.19 917.05 742.36 921.29 C 740.60 923.42 739.03 925.05 736.01 924.64 C 732.51 924.72 730.97 922.25 729.52 919.48 C 727.50 921.26 725.97 922.82 722.99 922.48 C 719.62 922.46 717.79 920.24 716.41 917.46 C 713.41 917.67 711.24 919.31 708.01 918.09 C 705.37 917.02 704.53 914.85 703.49 912.42 C 700.14 912.19 697.12 913.31 694.14 911.29 C 692.56 909.45 692.00 907.70 691.43 905.39 C 690.13 905.17 688.73 905.28 687.42 905.37 L 687.51 906.82 C 687.63 909.19 687.86 911.21 686.39 913.24 C 683.92 916.82 678.19 915.76 676.52 912.06 C 676.23 909.91 676.46 907.60 676.57 905.43 C 674.67 905.49 672.82 905.65 670.93 905.45 C 668.27 904.32 666.49 901.92 666.55 898.99 C 666.80 897.79 667.28 896.68 667.49 895.48 C 665.13 894.79 661.97 894.69 660.47 892.56 C 658.54 890.10 659.45 887.16 659.51 884.32 C 657.32 882.85 653.91 881.81 653.37 878.86 C 652.05 876.04 653.82 874.12 653.71 871.29 C 651.64 869.37 648.87 868.18 648.56 865.02 C 648.04 862.51 649.71 860.63 650.22 858.01 C 649.84 857.22 649.36 856.68 648.77 856.39 C 647.08 857.21 645.56 859.39 644.30 860.82 C 645.59 862.48 648.63 863.60 648.47 865.98 C 648.89 870.15 646.57 872.68 643.02 874.33 C 639.33 874.24 635.21 871.02 635.63 866.98 C 635.59 864.53 637.36 863.08 638.64 861.24 C 636.69 859.40 634.20 858.11 634.42 855.01 C 633.88 851.38 636.20 849.89 637.71 847.05 C 636.04 845.19 634.48 843.68 634.43 840.99 C 634.41 837.96 636.71 836.24 638.35 834.02 C 637.80 832.02 637.06 830.04 636.67 828.01 C 637.10 824.27 638.53 822.43 641.88 820.84 L 642.57 820.45 C 642.76 818.15 641.92 815.60 642.45 813.36 C 643.46 810.72 646.09 809.61 648.06 807.85 C 648.58 807.09 648.41 803.13 647.20 803.19 C 646.84 804.62 647.15 806.82 646.25 807.97 C 646.43 806.96 646.51 805.95 646.49 804.94 C 645.87 802.40 642.81 804.14 641.13 804.34 L 640.35 804.52 C 639.88 805.77 640.81 807.40 640.76 808.76 C 640.53 809.99 637.41 812.38 639.04 813.34 C 637.19 814.45 635.36 814.41 633.29 814.57 C 634.13 816.45 635.98 818.45 635.46 820.57 C 634.31 824.30 631.93 825.85 628.18 826.48 C 630.10 829.38 631.65 831.55 630.14 835.14 C 628.28 838.12 624.82 838.56 621.83 837.18 C 618.98 835.32 619.11 831.97 619.87 829.04 C 621.39 827.04 623.44 826.47 625.66 825.59 C 624.34 823.57 622.22 821.59 622.60 818.96 C 623.01 817.39 623.57 815.91 624.79 814.81 C 626.35 814.03 628.04 813.58 629.61 812.86 C 628.05 809.66 627.63 806.31 628.99 803.00 C 631.10 801.78 633.23 801.24 635.50 800.41 C 635.57 798.01 635.16 795.32 635.79 793.01 C 637.42 790.23 639.92 789.83 642.65 788.71 C 643.67 785.89 642.91 783.51 645.23 781.23 C 646.93 779.20 649.14 779.25 651.55 778.45 C 652.79 775.91 653.08 773.26 655.45 771.43 C 657.09 769.76 660.29 769.86 662.46 769.44 C 663.78 766.39 665.22 763.82 668.19 762.11 C 670.10 760.86 674.35 763.13 675.45 760.46 C 676.26 759.18 677.56 757.44 675.68 756.40 C 673.43 755.72 672.24 759.96 670.06 760.37 C 667.43 760.83 664.97 760.32 662.37 760.36 C 661.38 762.16 660.68 763.95 658.98 765.24 C 656.38 766.06 653.23 765.49 650.53 765.44 C 650.32 768.33 650.27 770.82 647.56 772.50 C 644.50 774.69 640.72 773.02 638.62 770.35 C 637.62 767.31 637.90 763.55 641.02 761.86 C 643.02 761.18 645.49 761.54 647.59 761.54 C 648.39 759.04 648.08 756.86 649.95 754.97 C 651.14 753.92 652.21 752.24 653.98 752.49 C 655.58 752.33 657.51 752.88 658.97 752.18 C 660.08 750.46 660.74 748.77 662.48 747.55 C 664.74 745.58 668.36 746.34 670.97 747.12 C 672.99 745.14 674.01 742.65 676.98 741.96 C 679.48 741.16 681.55 742.29 684.06 742.47 C 685.84 741.28 687.05 739.78 689.09 739.07 C 692.50 737.54 694.64 739.65 697.97 740.02 C 701.91 737.37 705.21 736.67 709.85 738.23 C 710.75 738.89 711.51 740.02 712.75 739.90 C 714.52 740.03 716.19 738.92 717.98 738.81 C 720.19 738.62 721.93 739.51 724.05 740.02 C 723.76 739.30 723.41 738.63 722.99 738.00 C 722.04 736.85 720.62 734.17 719.01 734.21 C 716.21 734.95 713.92 735.50 710.98 735.01 C 710.08 733.89 709.20 732.74 708.28 731.63 C 705.85 731.01 704.89 732.32 703.07 733.57 C 699.95 734.15 698.31 731.37 695.10 731.13 C 692.83 731.93 691.72 734.08 689.03 734.24 C 686.02 734.66 684.52 732.17 682.05 731.76 C 680.39 733.33 679.48 735.74 677.02 735.97 C 674.00 737.17 669.35 734.45 669.56 731.02 C 669.09 727.36 672.26 723.81 676.00 724.21 C 678.56 723.96 679.41 725.68 681.43 726.65 C 682.52 723.07 685.23 720.67 689.03 720.55 C 690.95 720.68 692.78 722.36 694.34 723.39 C 695.70 722.81 696.50 720.66 698.10 720.11 C 701.78 718.65 704.93 719.54 708.06 721.70 C 709.89 721.40 711.21 719.60 713.13 719.32 Z" fill="#2851e0" />
<path d="M 761.29 721.27 C 763.68 719.01 767.33 722.16 766.14 724.97 C 764.99 727.17 762.16 727.10 760.52 725.51 C 760.04 724.26 759.89 722.00 761.29 721.27 Z" fill="#2753db" />
<path d="M 794.44 723.54 C 796.99 723.18 796.60 725.70 796.46 727.42 C 795.76 727.91 795.01 728.26 794.22 728.47 C 793.19 727.39 792.95 724.33 794.44 723.54 Z" fill="#147093" />
<path d="M 772.19 728.17 C 774.35 726.70 777.96 728.01 777.56 731.00 C 778.04 734.78 772.82 735.48 771.12 732.83 C 769.95 731.45 770.68 728.97 772.19 728.17 Z" fill="#2852dd" />
<path d="M 660.25 730.26 C 662.57 728.78 666.89 729.32 668.19 732.00 C 668.79 734.65 668.80 737.99 666.06 739.42 C 664.37 739.73 662.64 739.74 660.93 739.50 C 657.20 738.19 656.79 732.17 660.25 730.26 Z" fill="#2851df" />
<path d="M 805.58 733.52 C 806.81 734.36 806.51 735.26 806.46 736.55 C 805.58 738.04 804.05 737.43 802.58 737.47 C 802.02 736.47 801.39 735.64 801.55 734.42 C 802.43 732.99 804.16 733.49 805.58 733.52 Z" fill="#1d6aa4" />
<path d="M 719.01 734.21 C 720.62 734.17 722.04 736.85 722.99 738.00 C 720.07 737.48 714.34 736.72 712.75 739.90 C 711.51 740.02 710.75 738.89 709.85 738.23 C 710.93 737.74 713.34 737.88 713.71 736.53 C 712.53 736.24 711.63 735.73 710.98 735.01 C 713.92 735.50 716.21 734.95 719.01 734.21 Z" fill="#54b5a9" />
<path d="M 649.20 736.31 C 650.85 736.10 653.63 735.69 654.78 737.21 C 656.45 738.62 656.18 741.49 655.28 743.24 C 653.63 745.07 651.16 744.71 648.97 744.33 C 646.11 742.35 646.09 737.91 649.20 736.31 Z" fill="#2752db" />
<path d="M 782.25 736.29 C 783.88 735.03 787.37 735.97 787.81 738.10 C 789.26 740.85 786.22 744.48 783.25 743.63 C 779.89 742.72 779.00 738.04 782.25 736.29 Z" fill="#2554d9" />
<path d="M 722.99 738.00 C 723.41 738.63 723.76 739.30 724.05 740.02 C 721.93 739.51 720.19 738.62 717.98 738.81 C 716.19 738.92 714.52 740.03 712.75 739.90 C 714.34 736.72 720.07 737.48 722.99 738.00 Z" fill="#2565bb" />
<path d="M 297.51 738.70 C 298.91 739.77 300.74 741.13 300.81 743.06 C 300.99 747.40 300.90 751.78 300.84 756.12 C 300.33 755.67 299.87 755.17 299.48 754.63 C 298.99 750.63 300.02 745.99 298.90 742.16 C 297.53 739.66 293.20 740.98 290.89 740.95 C 292.85 738.31 294.42 738.41 297.51 738.70 Z" fill="#1c0f18" />
<path d="M 273.47 742.42 C 273.79 748.04 273.39 753.71 273.67 759.32 C 275.58 760.19 277.43 758.55 279.55 758.48 C 282.88 757.44 286.28 757.56 289.65 756.57 C 289.64 752.35 289.69 748.12 289.62 743.90 C 290.03 742.91 290.45 741.93 290.89 740.95 C 293.20 740.98 297.53 739.66 298.90 742.16 C 300.02 745.99 298.99 750.63 299.48 754.63 C 299.87 755.17 300.33 755.67 300.84 756.12 L 301.10 756.54 C 301.38 758.63 305.36 758.42 306.98 758.61 C 310.30 758.31 314.18 759.71 317.26 758.47 C 336.43 762.11 352.71 772.86 365.70 787.21 L 365.71 787.80 C 359.68 794.27 352.86 799.80 346.65 806.08 C 342.69 809.51 338.92 813.11 335.12 816.70 C 330.33 820.74 325.89 825.13 321.34 829.43 C 320.28 830.97 322.48 833.36 322.94 834.88 C 325.87 842.06 325.11 851.16 320.52 857.53 C 320.13 858.38 318.76 859.15 320.04 859.94 C 325.57 863.82 330.76 868.20 336.40 871.90 C 339.97 875.08 343.93 877.85 347.67 880.84 C 351.94 884.41 356.55 887.65 361.00 891.01 C 362.58 892.51 364.39 893.00 365.32 894.91 C 365.27 906.28 365.29 917.66 365.31 929.04 C 365.44 930.09 365.23 930.94 364.70 931.61 C 341.84 931.66 318.87 931.64 296.00 931.62 C 292.68 931.34 289.99 931.96 287.04 930.75 C 284.56 930.65 282.37 930.54 280.02 929.66 C 256.85 924.91 236.48 909.91 223.96 889.99 C 219.06 882.32 215.80 873.58 213.39 864.84 C 210.48 854.59 211.12 844.50 211.36 833.99 C 212.82 822.08 216.84 810.26 222.80 799.84 C 232.01 784.25 245.89 771.71 262.30 764.05 C 262.87 757.84 262.39 751.27 262.54 744.98 C 262.39 743.24 262.97 741.43 264.14 740.15 C 266.93 737.23 272.41 738.50 273.47 742.42 Z" fill="#0f023b" />
<path d="M 811.43 743.50 C 814.08 742.73 815.69 744.92 814.11 747.12 C 811.83 749.18 808.55 745.22 811.43 743.50 Z" fill="#235cc4" />
<path d="M 376.94 743.41 C 379.17 743.28 381.37 746.23 382.43 747.97 C 382.05 749.65 380.38 751.06 379.16 752.20 C 376.66 754.42 373.15 749.99 372.47 747.96 C 373.66 746.30 375.11 744.37 376.94 743.41 Z" fill="#26e795" />
<path d="M 638.21 744.24 C 641.04 742.59 644.63 744.68 644.32 748.02 C 644.03 750.91 640.53 752.55 638.18 750.91 C 635.75 749.67 635.91 745.43 638.21 744.24 Z" fill="#2653db" />
<path d="M 790.95 745.64 C 793.10 745.38 795.54 745.01 796.55 747.42 C 797.85 749.56 796.87 751.89 795.01 753.27 C 792.39 754.03 790.38 753.45 788.55 751.47 C 788.05 748.84 788.62 747.07 790.95 745.64 Z" fill="#2653d8" />
<path d="M 628.22 753.12 C 630.77 750.85 635.10 755.15 632.72 757.68 C 631.73 759.12 629.76 760.16 628.24 758.83 C 625.88 757.36 625.94 754.64 628.22 753.12 Z" fill="#2852d5" />
<path d="M 818.32 754.36 C 819.32 754.00 820.31 754.10 821.30 754.67 C 822.29 756.16 822.26 758.78 819.94 758.88 C 817.17 759.31 816.45 755.84 818.32 754.36 Z" fill="#2657d0" />
<path d="M 799.13 756.08 C 802.33 754.67 805.15 757.78 804.50 761.03 C 804.94 765.59 796.66 765.77 795.87 762.01 C 794.76 759.56 797.24 757.25 799.13 756.08 Z" fill="#2752dc" />
<path d="M 301.10 756.54 C 306.37 756.47 312.20 757.04 317.26 758.47 C 314.18 759.71 310.30 758.31 306.98 758.61 C 305.36 758.42 301.38 758.63 301.10 756.54 Z" fill="#1d1223" />
<path d="M 619.41 762.43 C 623.20 761.17 624.45 766.88 620.92 767.64 C 617.73 767.85 616.85 764.02 619.41 762.43 Z" fill="#2457ca" />
<path d="M 827.83 767.18 C 829.02 769.30 827.02 771.11 825.00 771.37 C 823.76 770.62 822.31 769.62 822.51 767.96 C 823.24 765.63 826.72 764.79 827.83 767.18 Z" fill="#2852d6" />
<path d="M 805.14 767.88 C 806.80 767.18 809.18 767.43 810.24 769.03 C 810.76 770.90 810.79 773.14 810.27 775.01 C 808.55 777.22 805.94 778.43 803.42 776.56 C 800.98 775.25 801.29 772.30 801.75 769.98 C 802.35 768.61 803.91 768.45 805.14 767.88 Z" fill="#2751df" />
<path d="M 631.25 771.23 C 632.69 770.07 635.30 770.34 636.99 770.73 C 640.59 772.29 641.11 777.00 638.85 779.82 C 636.46 782.53 630.78 782.35 629.31 778.70 C 627.52 776.20 628.89 772.77 631.25 771.23 Z" fill="#2852dd" />
<path d="M 325.37 776.84 C 331.83 779.82 338.14 782.56 343.54 787.33 C 332.37 797.73 320.90 808.31 309.80 818.77 C 308.81 820.03 307.57 819.69 306.22 819.30 C 295.71 815.90 283.49 819.89 277.42 829.24 C 271.48 837.03 271.07 847.89 275.79 856.38 C 278.46 860.16 280.62 863.73 284.90 865.91 C 290.05 869.31 295.93 870.16 302.00 869.50 C 304.17 869.54 305.98 868.47 307.71 870.17 C 321.59 880.64 335.50 891.24 349.49 901.54 C 350.08 906.09 349.68 911.20 349.71 915.85 L 349.14 916.43 C 330.78 916.23 312.34 916.49 293.97 916.28 C 290.96 915.00 287.18 916.13 284.22 914.70 C 266.94 911.74 250.79 900.84 240.42 886.76 C 225.75 867.33 222.16 840.76 231.09 818.16 C 236.74 802.87 248.46 789.78 262.30 781.36 C 262.44 789.24 262.32 797.13 262.36 805.01 C 262.11 807.88 264.94 811.21 268.00 810.73 C 270.70 811.12 272.40 809.28 273.61 807.13 C 273.80 796.94 273.65 786.73 273.69 776.53 C 274.36 775.89 275.18 775.50 276.16 775.36 C 292.00 769.98 309.85 770.85 325.37 776.84 Z" fill="#ffffff" />
<path d="M 610.51 772.46 C 611.94 772.61 613.58 772.01 614.45 773.43 C 614.68 775.32 614.56 776.87 613.42 778.46 C 609.51 778.36 609.72 775.49 610.51 772.46 Z" fill="#266dab" />
<path d="M 828.24 778.28 C 829.44 777.45 831.50 777.81 832.27 779.02 C 832.65 780.37 832.84 782.61 831.72 783.65 C 829.97 784.52 827.30 784.06 826.55 782.06 C 826.27 780.68 826.92 778.86 828.24 778.28 Z" fill="#2753d9" />
<path d="M 846.06 778.14 C 847.86 777.00 848.96 779.63 846.92 780.14 C 845.72 779.87 845.43 779.20 846.06 778.14 Z" fill="#2f9a8e" />
<path d="M 807.32 780.35 C 810.36 778.36 815.51 779.88 815.59 783.97 C 816.01 786.30 814.61 787.45 813.32 789.10 C 810.95 791.86 805.51 789.51 805.46 786.04 C 805.34 783.94 805.33 781.59 807.32 780.35 Z" fill="#2851df" />
<path d="M 624.09 781.79 C 625.82 781.00 628.99 781.21 629.90 783.16 C 631.26 785.71 630.67 790.37 627.05 790.53 C 623.90 790.93 621.42 790.41 620.54 787.04 C 619.94 784.10 621.77 782.91 624.09 781.79 Z" fill="#2951df" />
<path d="M 605.55 783.52 C 606.47 784.57 607.65 786.12 607.46 787.59 C 606.65 789.09 603.32 788.90 603.44 786.85 C 603.37 785.21 603.30 783.19 605.55 783.52 Z" fill="#1f7a97" />
<path d="M 849.23 790.34 C 849.84 790.27 850.37 790.55 850.82 791.19 C 851.67 792.95 849.51 794.08 848.26 792.80 C 847.74 791.68 848.06 790.86 849.23 790.34 Z" fill="#2e9486" />
<path d="M 830.27 791.19 C 832.37 789.41 836.25 790.95 835.84 794.00 C 836.24 796.74 832.21 798.68 830.30 796.74 C 828.28 795.04 828.14 792.88 830.27 791.19 Z" fill="#2753d9" />
<path d="M 810.39 792.44 C 813.88 790.32 819.43 793.65 818.53 798.01 C 818.71 800.90 816.53 802.67 814.04 803.51 C 811.83 803.83 810.32 802.60 808.73 801.28 C 806.61 798.48 807.47 794.31 810.39 792.44 Z" fill="#2852de" />
<path d="M 615.42 793.43 C 618.64 790.93 623.01 792.89 623.29 797.01 C 622.47 800.29 619.53 802.84 616.21 800.82 C 613.44 799.48 612.94 795.27 615.42 793.43 Z" fill="#2752db" />
<path d="M 647.20 803.19 C 648.41 803.13 648.58 807.09 648.06 807.85 C 646.09 809.61 643.46 810.72 642.45 813.36 C 641.92 815.60 642.76 818.15 642.57 820.45 L 641.88 820.84 C 640.72 817.78 640.17 815.25 640.94 811.96 C 642.54 811.58 643.12 810.44 643.83 809.12 C 644.63 808.72 645.44 808.34 646.25 807.97 C 647.15 806.82 646.84 804.62 647.20 803.19 Z" fill="#2561bd" />
<path d="M 831.42 803.50 C 833.32 803.21 836.12 802.68 836.79 805.12 C 837.95 806.89 837.09 809.25 835.59 810.49 C 834.18 810.82 832.06 811.16 830.86 810.13 C 828.55 808.51 828.91 804.79 831.42 803.50 Z" fill="#2454d6" />
<path d="M 852.47 805.01 C 851.71 807.35 849.95 806.20 848.37 805.59 C 848.11 803.07 852.31 801.78 852.47 805.01 Z" fill="#2f919c" />
<path d="M 640.35 804.52 L 641.13 804.34 C 641.56 805.80 641.86 807.29 642.19 808.78 C 641.31 809.66 640.90 810.72 640.94 811.96 C 640.33 812.44 639.69 812.91 639.04 813.34 C 637.41 812.38 640.53 809.99 640.76 808.76 C 640.81 807.40 639.88 805.77 640.35 804.52 Z" fill="#2866bf" />
<path d="M 641.13 804.34 C 642.81 804.14 645.87 802.40 646.49 804.94 C 646.51 805.95 646.43 806.96 646.25 807.97 C 645.44 808.34 644.63 808.72 643.83 809.12 L 642.19 808.78 C 641.86 807.29 641.56 805.80 641.13 804.34 Z" fill="#4dc081" />
<path d="M 613.02 804.51 C 615.21 805.05 616.84 806.59 616.56 809.00 C 616.74 811.62 615.14 812.45 613.01 813.24 C 611.36 812.97 609.82 812.58 609.12 810.89 C 607.18 808.08 609.99 804.49 613.02 804.51 Z" fill="#2752db" />
<path d="M 811.34 805.30 C 814.13 803.12 817.93 805.31 819.47 807.93 C 819.87 811.24 820.03 814.07 816.96 816.10 C 814.34 816.99 811.13 817.13 809.35 814.61 C 806.75 811.49 807.73 807.14 811.34 805.30 Z" fill="#2751de" />
<path d="M 346.65 806.08 C 355.03 816.95 360.06 830.19 359.60 844.00 C 359.44 847.25 359.95 850.92 358.87 854.01 C 357.45 862.74 354.12 871.66 348.69 878.72 C 348.34 879.42 348.00 880.13 347.67 880.84 C 343.93 877.85 339.97 875.08 336.40 871.90 C 336.10 870.75 336.26 869.83 336.88 869.12 C 339.47 864.80 341.57 860.24 343.18 855.47 C 343.94 850.07 345.20 843.53 343.89 838.01 C 343.21 830.52 340.07 822.44 335.12 816.70 C 338.92 813.11 342.69 809.51 346.65 806.08 Z" fill="#0ace7d" />
<path d="M 642.19 808.78 L 643.83 809.12 C 643.12 810.44 642.54 811.58 640.94 811.96 C 640.90 810.72 641.31 809.66 642.19 808.78 Z" fill="#4690c3" />
<path d="M 851.50 815.50 C 852.17 816.55 853.05 817.92 852.32 819.15 C 851.68 820.68 849.63 819.72 848.44 819.52 C 848.41 818.47 848.45 817.44 848.55 816.42 C 849.35 815.21 850.24 815.51 851.50 815.50 Z" fill="#20739f" />
<path d="M 830.36 816.43 C 833.20 815.09 836.87 816.55 836.68 820.00 C 837.02 823.55 833.22 825.50 830.33 823.63 C 827.68 821.82 827.83 818.28 830.36 816.43 Z" fill="#2752dc" />
<path d="M 335.12 816.70 C 340.07 822.44 343.21 830.52 343.89 838.01 C 345.20 843.53 343.94 850.07 343.18 855.47 C 341.57 860.24 339.47 864.80 336.88 869.12 C 336.26 869.83 336.10 870.75 336.40 871.90 C 330.76 868.20 325.57 863.82 320.04 859.94 C 318.76 859.15 320.13 858.38 320.52 857.53 C 325.11 851.16 325.87 842.06 322.94 834.88 C 322.48 833.36 320.28 830.97 321.34 829.43 C 325.89 825.13 330.33 820.74 335.12 816.70 Z" fill="#fffffe" />
<path d="M 606.30 818.37 C 608.34 816.90 612.04 818.23 611.88 821.01 C 613.16 825.14 606.19 826.27 605.16 822.88 C 604.07 821.35 605.12 819.47 606.30 818.37 Z" fill="#2654d7" />
<path d="M 827.42 829.40 C 830.07 827.04 834.92 829.35 834.53 832.99 C 835.00 837.01 830.26 838.86 827.33 836.70 C 824.92 835.28 825.06 830.83 827.42 829.40 Z" fill="#2752de" />
<path d="M 848.25 829.25 C 850.23 828.23 853.21 831.45 850.92 833.06 C 848.21 834.86 845.58 831.06 848.25 829.25 Z" fill="#246ea9" />
<path d="M 605.24 831.33 C 607.30 830.90 608.44 832.30 608.61 834.22 C 608.78 836.88 605.38 838.80 603.51 836.50 C 601.48 834.54 602.61 831.79 605.24 831.33 Z" fill="#2753d9" />
<path d="M 297.18 833.73 C 303.13 832.89 309.06 837.93 308.69 844.00 C 309.00 847.38 306.75 851.11 303.81 852.75 C 298.64 855.61 291.38 853.73 289.18 847.98 C 286.43 841.86 290.64 834.73 297.18 833.73 Z" fill="#eff3ef" />
<path d="M 619.41 840.49 C 621.94 839.74 624.42 839.58 626.48 841.47 C 627.95 843.54 628.15 847.34 626.25 849.22 C 624.60 850.81 622.05 850.72 619.97 850.25 C 616.30 848.62 615.84 842.59 619.41 840.49 Z" fill="#2752dc" />
<path d="M 823.38 841.38 C 825.74 839.46 829.17 841.06 830.51 843.41 C 830.80 845.09 830.70 846.86 830.43 848.54 C 828.07 851.13 822.62 851.54 821.30 847.71 C 819.87 845.69 821.42 842.48 823.38 841.38 Z" fill="#2753db" />
<path d="M 845.12 842.00 C 847.90 840.35 850.52 844.03 847.92 846.09 C 845.11 847.84 842.40 843.84 845.12 842.00 Z" fill="#2260b9" />
<path d="M 603.07 844.82 C 604.95 843.97 607.06 845.91 606.60 847.87 C 606.48 850.08 604.00 849.91 602.39 849.62 C 601.36 847.87 601.16 846.01 603.07 844.82 Z" fill="#2356cc" />
<path d="M 817.41 852.49 C 819.63 852.08 822.67 851.64 824.09 853.88 C 826.55 856.66 825.59 860.65 822.58 862.50 C 820.04 862.95 816.80 863.35 815.42 860.60 C 813.41 857.54 814.92 854.62 817.41 852.49 Z" fill="#2753da" />
<path d="M 618.33 854.37 C 620.97 852.61 624.11 853.87 626.39 855.60 C 626.54 857.57 626.56 859.57 626.37 861.54 C 624.38 863.73 621.51 865.95 619.02 863.01 C 615.79 860.85 615.51 857.00 618.33 854.37 Z" fill="#2756d4" />
<path d="M 840.33 854.41 C 841.91 853.53 843.83 853.53 844.62 855.37 C 845.38 857.30 844.15 859.53 842.00 859.46 C 839.56 859.17 838.65 856.17 840.33 854.41 Z" fill="#2855d5" />
<path d="M 603.28 858.31 C 605.17 857.82 606.28 859.17 606.22 860.99 C 605.83 862.53 604.08 863.20 602.75 862.35 C 601.17 861.53 601.69 858.72 603.28 858.31 Z" fill="#2775a8" />
<path d="M 807.10 866.01 C 807.49 868.17 807.60 870.39 807.83 872.57 C 805.23 872.25 802.91 872.39 800.32 872.72 C 800.22 871.54 800.23 870.37 800.34 869.21 C 802.61 868.17 804.84 867.07 807.10 866.01 Z" fill="#4cc086" />
<path d="M 834.24 866.23 C 835.73 864.71 839.87 865.56 839.68 868.10 C 840.03 869.87 837.91 872.07 836.12 871.67 C 833.62 871.67 832.67 867.82 834.24 866.23 Z" fill="#2653da" />
<path d="M 620.42 867.49 C 621.77 867.21 623.23 867.15 624.58 867.50 C 627.18 868.59 627.24 872.02 626.27 874.25 C 624.75 877.13 620.19 876.88 618.71 874.01 C 618.18 871.64 617.92 868.81 620.42 867.49 Z" fill="#2752db" />
<path d="M 603.45 872.40 C 604.65 871.86 605.74 871.82 606.71 872.29 C 607.35 873.73 606.56 877.06 604.44 876.46 C 603.03 875.56 603.58 873.84 603.45 872.40 Z" fill="#1a709e" />
<path d="M 641.45 875.52 C 644.26 873.60 647.70 874.84 649.50 877.43 C 651.18 880.56 650.54 884.81 647.05 886.34 C 643.99 886.84 640.92 886.52 639.31 883.54 C 637.39 880.72 638.79 877.23 641.45 875.52 Z" fill="#2752de" />
<path d="M 826.45 875.61 C 828.04 875.73 831.52 874.79 832.37 876.45 C 832.64 878.45 832.65 880.54 832.36 882.54 C 831.53 884.24 828.01 883.32 826.43 883.40 C 824.57 880.66 823.72 878.16 826.45 875.61 Z" fill="#255fc3" />
<path d="M 798.47 877.39 C 799.05 879.31 799.47 881.26 800.12 883.16 C 797.31 880.86 794.50 881.39 791.17 880.85 C 790.97 879.67 791.28 879.07 792.10 879.05 C 794.05 878.71 796.61 877.02 798.47 877.39 Z" fill="#4996c4" />
<path d="M 622.42 881.40 C 624.05 879.72 627.48 880.30 628.58 882.40 C 629.94 884.12 628.94 885.46 628.22 887.16 C 626.55 889.10 622.25 888.77 621.58 886.07 C 621.43 884.51 621.16 882.59 622.42 881.40 Z" fill="#2753db" />
<path d="M 607.23 885.27 C 608.04 884.76 608.78 884.86 609.47 885.57 C 610.52 886.99 608.63 888.58 607.28 887.67 C 606.59 886.88 606.57 886.09 607.23 885.27 Z" fill="#319982" />
<path d="M 818.25 886.29 C 820.81 884.69 823.72 886.08 824.32 888.96 C 824.95 892.51 820.12 895.27 817.72 892.28 C 815.94 890.54 816.11 887.58 818.25 886.29 Z" fill="#2652dd" />
<path d="M 645.42 888.45 C 648.14 886.55 652.70 887.93 653.91 891.08 C 655.09 893.72 654.12 897.53 651.07 898.37 C 648.26 898.69 645.14 899.10 643.81 896.00 C 643.17 893.47 643.07 890.16 645.42 888.45 Z" fill="#2851de" />
<path d="M 842.07 889.07 C 843.86 887.94 844.86 890.39 843.64 891.59 C 842.04 892.49 841.02 890.24 842.07 889.07 Z" fill="#2a9190" />
<path d="M 627.17 894.14 C 628.82 893.02 631.87 893.26 632.60 895.38 C 633.00 896.66 632.96 898.86 631.71 899.67 C 630.07 901.27 626.45 900.27 626.07 897.94 C 625.45 897.00 626.08 894.54 627.17 894.14 Z" fill="#2653db" />
<path d="M 808.40 894.47 C 811.33 893.41 814.72 894.52 814.72 898.00 C 815.17 901.54 811.06 903.63 808.26 901.72 C 805.42 899.92 805.80 896.32 808.40 894.47 Z" fill="#2753d9" />
<path d="M 833.15 899.15 C 835.54 897.55 837.09 901.04 834.89 901.88 C 833.03 902.63 832.01 900.51 833.15 899.15 Z" fill="#278691" />
<path d="M 651.22 901.10 C 652.59 899.95 655.36 900.39 657.06 900.50 C 659.72 901.82 660.29 905.49 658.95 907.90 C 657.41 910.48 653.25 911.11 651.12 908.88 C 649.05 906.98 648.84 902.82 651.22 901.10 Z" fill="#2851de" />
<path d="M 796.38 902.37 C 798.21 900.78 803.65 900.93 804.09 903.99 C 804.69 905.65 804.06 907.66 802.97 908.96 C 800.74 911.20 796.17 910.39 795.54 907.05 C 795.43 905.55 795.23 903.53 796.38 902.37 Z" fill="#2852df" />
<path d="M 687.42 905.37 C 688.73 905.28 690.13 905.17 691.43 905.39 C 692.00 907.70 692.56 909.45 694.14 911.29 C 692.67 912.62 689.97 912.49 688.18 911.97 C 687.90 910.26 687.69 908.54 687.51 906.82 L 687.42 905.37 Z" fill="#4ebf89" />
<path d="M 633.31 906.35 C 634.84 905.30 636.00 905.69 637.49 906.52 C 638.74 908.76 638.21 912.23 635.00 911.87 C 631.80 912.33 631.01 907.67 633.31 906.35 Z" fill="#2853da" />
<path d="M 787.28 906.40 C 790.81 906.03 793.11 908.45 792.53 912.02 C 792.95 917.17 784.97 917.75 783.46 913.59 C 781.90 910.83 784.08 906.72 787.28 906.40 Z" fill="#2852dc" />
<path d="M 823.25 908.27 C 824.96 906.96 827.51 908.26 826.47 910.45 C 824.88 912.76 821.66 910.58 823.25 908.27 Z" fill="#1f73a0" />
<path d="M 773.43 910.53 C 775.00 910.16 777.45 910.01 778.69 911.26 C 781.12 912.84 780.80 916.53 780.13 918.96 C 777.38 922.47 772.19 921.65 770.31 917.81 C 769.73 914.12 770.41 912.58 773.43 910.53 Z" fill="#2752db" />
<path d="M 739.00 911.00 C 740.81 910.49 743.47 913.07 744.99 914.05 C 744.20 916.46 743.41 918.53 743.57 921.14 L 742.36 921.29 C 744.19 917.05 741.64 914.46 738.57 911.95 L 739.00 911.00 Z" fill="#4a98c2" />
<path d="M 659.15 912.08 C 660.73 911.08 664.11 911.11 665.48 912.55 C 667.02 914.33 666.73 916.38 666.41 918.55 C 665.07 921.25 660.60 921.25 658.60 919.42 C 656.93 917.67 656.92 913.38 659.15 912.08 Z" fill="#2752db" />
<path d="M 689.14 913.06 C 690.51 912.06 693.18 912.32 694.54 913.32 C 697.90 914.95 698.74 920.21 695.45 922.41 C 692.57 924.74 689.18 923.32 686.98 920.88 C 685.71 918.06 686.16 914.63 689.14 913.06 Z" fill="#2751de" />
<path d="M 760.21 913.07 C 764.64 910.62 770.18 916.38 767.75 920.82 C 766.67 923.28 764.58 924.06 761.99 923.87 C 756.69 924.14 755.66 914.82 760.21 913.07 Z" fill="#2752dd" />
<path d="M 813.07 916.14 C 815.83 914.36 818.64 918.08 815.87 919.96 C 813.30 921.26 811.46 918.19 813.07 916.14 Z" fill="#2166b1" />
<path d="M 640.30 918.25 C 640.94 917.60 641.85 917.36 643.04 917.52 C 645.55 918.33 644.77 922.69 641.97 922.35 C 639.88 922.13 639.12 919.86 640.30 918.25 Z" fill="#2353dc" />
<path d="M 670.41 921.47 C 674.55 920.97 676.07 925.95 673.78 928.76 C 671.41 931.68 666.26 929.59 666.24 925.99 C 665.89 923.46 668.17 921.81 670.41 921.47 Z" fill="#2753da" />
<path d="M 699.25 921.22 C 700.76 920.02 703.26 920.33 705.06 920.52 C 708.97 922.20 708.91 928.58 705.01 930.24 C 702.60 930.82 698.81 930.78 697.79 928.01 C 697.28 925.99 697.04 922.34 699.25 921.22 Z" fill="#2851de" />
<path d="M 802.40 922.44 C 804.01 922.13 805.37 922.30 805.79 924.12 C 806.19 926.18 805.32 927.54 803.19 927.58 C 800.67 927.26 800.52 923.67 802.40 922.44 Z" fill="#2556ca" />
<path d="M 711.41 927.40 C 712.92 925.85 716.85 926.04 718.18 927.82 C 720.25 929.57 719.96 933.28 718.13 935.12 C 715.68 937.41 711.00 936.20 710.07 932.95 C 709.37 931.18 709.74 928.52 711.41 927.40 Z" fill="#2752dc" />
<path d="M 649.21 928.20 C 650.52 927.41 652.13 927.85 652.70 929.31 C 653.38 931.08 651.84 932.86 649.97 932.40 C 647.91 931.98 647.37 929.17 649.21 928.20 Z" fill="#236bb2" />
<path d="M 790.26 928.30 C 793.63 926.62 796.08 931.20 793.05 933.26 C 789.86 934.95 787.09 930.21 790.26 928.30 Z" fill="#2656d4" />
<path d="M 680.21 930.39 C 681.81 930.27 683.51 931.61 684.20 932.98 C 685.21 935.30 683.68 938.24 681.03 938.38 C 678.30 938.81 675.65 935.56 676.86 933.04 C 677.61 931.93 678.79 930.56 680.21 930.39 Z" fill="#2952de" />
<path d="M 724.43 931.49 C 726.99 929.19 731.71 931.72 731.56 934.98 C 731.70 936.96 730.41 940.01 728.00 939.79 C 726.54 939.79 724.31 940.10 723.52 938.55 C 721.78 936.46 722.09 933.03 724.43 931.49 Z" fill="#2753d8" />
<path d="M 741.00 933.24 C 744.80 933.92 745.66 941.31 741.05 941.58 C 738.21 941.99 735.97 941.07 735.66 938.01 C 735.86 935.66 738.10 931.37 741.00 933.24 Z" fill="#2654d9" />
<path d="M 781.49 932.50 C 782.57 934.49 782.66 935.50 781.49 937.49 C 779.52 938.43 778.57 938.45 776.69 937.30 C 775.90 936.12 775.81 933.85 776.78 932.76 C 778.15 931.84 779.99 931.95 781.49 932.50 Z" fill="#2654d4" />
<path d="M 753.80 933.67 C 755.12 934.38 756.37 935.32 757.35 936.47 C 757.48 937.91 757.53 939.37 757.49 940.81 C 757.06 939.61 757.11 938.15 756.50 937.06 C 756.30 938.40 756.92 940.81 755.66 941.65 C 754.71 942.99 752.83 942.56 751.42 942.50 C 749.11 941.19 749.67 939.32 749.50 937.06 C 748.82 938.09 748.82 939.60 748.48 940.80 C 748.49 939.36 748.55 937.92 748.67 936.48 C 749.96 934.68 751.80 934.30 753.80 933.67 Z" fill="#2653de" />
<path d="M 765.19 934.29 C 769.07 933.29 771.45 937.96 768.49 940.45 C 766.08 943.09 761.83 940.01 762.62 936.95 C 763.25 936.02 764.00 934.54 765.19 934.29 Z" fill="#2654d5" />
<path d="M 754.74 935.73 C 753.61 936.34 752.46 936.37 751.28 935.82 C 750.68 934.48 755.25 934.28 754.74 935.73 Z" fill="#236aa7" />
<path d="M 658.40 937.44 C 659.47 937.41 660.52 937.46 661.57 937.57 C 662.81 938.36 662.49 939.28 662.45 940.55 C 661.60 942.04 659.86 941.47 658.41 941.58 C 658.05 940.12 657.86 938.89 658.40 937.44 Z" fill="#226aa5" />
<path d="M 690.28 938.33 C 693.28 937.35 695.97 940.08 695.32 943.02 C 694.10 944.85 692.29 946.20 690.04 945.14 C 687.24 943.75 687.56 939.62 690.28 938.33 Z" fill="#2455d5" />
<path d="M 702.40 944.43 C 705.17 943.47 707.40 946.56 706.15 948.95 C 705.10 951.46 700.23 950.75 700.23 947.92 C 699.95 946.13 701.17 945.39 702.40 944.43 Z" fill="#2654d7" />
<path d="M 669.07 946.00 C 670.13 945.67 671.05 945.72 671.82 946.16 C 672.39 947.53 672.40 948.75 671.83 949.84 C 670.63 950.40 669.43 950.39 668.23 949.80 C 667.98 948.71 667.21 945.98 669.07 946.00 Z" fill="#43a89a" />
<path d="M 669.14 947.19 C 670.88 945.93 672.09 948.71 670.03 949.19 C 668.89 948.91 668.59 948.25 669.14 947.19 Z" fill="#17747f" />
<path d="M 716.30 948.43 C 718.43 949.57 719.27 951.20 718.52 953.59 C 717.66 955.08 715.84 954.51 714.42 954.48 C 712.92 953.62 713.50 951.83 713.49 950.40 C 714.27 949.57 715.28 948.93 716.30 948.43 Z" fill="#2456d1" />
<path d="M 780.30 951.28 C 782.10 950.03 783.23 952.91 781.08 953.29 C 779.98 952.95 779.72 952.28 780.30 951.28 Z" fill="#2c9980" />
<path d="M 728.19 952.28 C 730.18 951.56 731.78 954.30 730.74 955.75 C 730.11 957.61 726.28 956.94 726.34 954.92 C 726.20 953.67 727.03 952.63 728.19 952.28 Z" fill="#1f59c6" />
<path d="M 754.44 953.55 C 756.89 953.11 756.84 955.99 756.65 957.65 C 755.62 957.93 754.56 957.91 753.44 957.60 C 753.56 956.14 752.99 954.45 754.44 953.55 Z" fill="#1c64a8" />
<path d="M 767.30 953.32 C 768.85 952.55 771.00 953.78 770.53 955.59 C 769.67 956.88 768.72 956.61 767.36 956.60 C 766.44 955.47 766.42 954.38 767.30 953.32 Z" fill="#389e91" />
<path d="M 680.26 954.28 C 681.24 953.69 681.89 953.95 682.22 955.07 C 681.86 957.30 679.02 956.11 680.26 954.28 Z" fill="#26908e" />
<path d="M 740.36 954.36 C 741.44 954.09 742.54 954.09 743.65 954.35 C 743.96 955.50 743.96 956.60 743.66 957.66 C 742.55 958.22 741.44 958.23 740.33 957.67 C 739.98 956.61 739.99 955.51 740.36 954.36 Z" fill="#235bbf" /></svg>