<?xml version="1.0" encoding="UTF-8" standalone="no"?>
<!DOCTYPE svg PUBLIC "-//W3C//DTD SVG 1.1//EN" "http://www.w3.org/Graphics/SVG/1.1/DTD/svg11.dtd">
<svg viewBox="0 0 1024 1024" height="1024.0pt" width="1024.0pt" xmlns="http://www.w3.org/2000/svg" version="1.1">
<path d="M 0.00 0.00 L 1024.00 0.00 L 1024.00 1024.00 L 0.00 1024.00 L 0.00 0.00 Z" fill="#ffffff" />
<path d="M 684.44 134.51 C 684.08 135.97 683.72 137.44 683.36 138.90 C 681.93 138.99 679.54 138.17 678.68 139.67 C 677.08 142.32 677.36 146.27 677.15 149.28 C 678.68 149.28 680.21 149.28 681.73 149.28 C 681.74 150.76 681.74 152.23 681.74 153.71 C 680.24 153.71 678.74 153.70 677.24 153.70 C 677.23 165.11 677.23 176.52 677.24 187.93 C 675.43 187.94 673.62 187.94 671.81 187.94 C 671.80 176.53 671.80 165.12 671.81 153.72 C 670.78 153.71 669.75 153.70 668.72 153.69 C 668.72 152.22 668.72 150.75 668.72 149.28 C 669.71 149.29 670.71 149.30 671.71 149.30 C 672.03 145.16 671.80 139.12 674.93 135.93 C 677.75 133.11 680.93 133.99 684.44 134.51 Z" fill="#2c2935" />
<path d="M 422.14 134.94 C 423.96 134.94 425.79 134.94 427.61 134.94 C 427.61 152.61 427.62 170.28 427.61 187.95 C 425.78 187.94 423.96 187.94 422.13 187.94 C 422.15 170.27 422.13 152.60 422.14 134.94 Z" fill="#2c2935" />
<path d="M 465.33 134.93 C 467.05 134.93 468.78 134.94 470.51 134.94 C 470.48 141.19 470.64 147.44 470.39 153.68 C 471.39 152.11 472.42 149.99 474.08 149.04 C 477.56 147.13 482.18 148.56 483.66 152.33 C 485.70 157.32 485.12 163.69 485.24 169.00 C 485.13 174.20 485.69 180.66 483.41 185.45 C 481.69 188.90 477.14 190.05 473.91 188.03 C 471.66 186.49 471.03 183.61 470.09 181.20 C 469.66 183.47 469.18 185.72 468.68 187.96 C 467.55 187.95 466.42 187.94 465.29 187.91 C 465.35 170.25 465.29 152.59 465.33 134.93 Z" fill="#2c2935" />
<path d="M 557.99 134.94 C 559.96 134.94 561.93 134.94 563.90 134.94 C 563.90 137.18 563.90 139.41 563.91 141.65 C 561.93 141.65 559.95 141.65 557.97 141.65 C 557.97 139.41 557.98 137.17 557.99 134.94 Z" fill="#2c2935" />
<path d="M 382.58 138.40 C 385.81 140.67 386.14 144.60 386.84 148.17 C 385.12 148.58 383.41 149.00 381.70 149.43 C 381.21 147.37 380.95 144.98 379.89 143.13 C 378.38 140.81 374.65 140.80 373.08 143.06 C 371.54 145.18 371.43 148.44 371.34 150.98 C 371.27 158.32 371.35 165.67 371.31 173.01 C 371.36 175.95 371.27 179.64 372.73 182.28 C 374.31 185.04 378.79 185.21 380.40 182.39 C 381.54 180.31 381.72 177.59 382.17 175.30 C 383.82 175.52 385.47 175.74 387.12 175.97 C 386.45 179.73 386.07 184.28 382.94 186.93 C 378.48 190.47 370.49 189.61 367.73 184.28 C 365.58 180.16 365.72 174.55 365.67 170.00 C 365.78 163.33 365.54 156.65 365.79 149.99 C 366.12 145.73 366.69 141.09 370.46 138.42 C 373.69 136.13 379.33 136.19 382.58 138.40 Z" fill="#2c2935" />
<path d="M 661.52 142.46 C 663.93 148.64 662.88 156.45 663.11 163.00 C 662.88 169.51 663.94 177.38 661.46 183.48 C 659.04 189.22 651.37 190.27 646.28 187.76 C 643.24 186.20 641.87 183.21 641.27 179.99 C 640.31 174.46 640.79 168.60 640.69 163.00 C 640.79 157.39 640.33 151.56 641.22 146.02 C 641.78 142.75 643.11 139.76 646.12 138.08 C 651.26 135.38 659.18 136.55 661.52 142.46 Z" fill="#2c2935" />
<path d="M 332.49 137.79 C 335.01 137.81 337.54 137.81 340.06 137.82 C 343.08 154.53 346.16 171.23 349.21 187.94 C 347.31 187.94 345.41 187.94 343.51 187.94 C 342.78 183.59 342.03 179.25 341.30 174.90 C 337.92 174.91 334.55 174.91 331.18 174.91 C 330.44 179.24 329.70 183.57 329.03 187.91 C 327.12 187.93 325.21 187.94 323.31 187.95 C 326.37 171.23 329.41 154.51 332.49 137.79 Z" fill="#2c2935" />
<path d="M 542.98 139.74 C 544.07 139.74 545.16 139.74 546.25 139.73 C 546.26 142.92 546.26 146.11 546.28 149.29 C 547.97 149.29 549.67 149.29 551.36 149.29 C 551.36 150.76 551.36 152.22 551.36 153.69 C 549.66 153.69 547.97 153.70 546.27 153.70 C 546.23 161.80 546.29 169.90 546.23 178.01 C 546.27 179.74 546.19 181.62 546.65 183.30 C 547.86 185.41 549.44 183.87 551.33 183.74 C 551.67 185.07 552.00 186.40 552.34 187.73 C 549.46 188.69 546.80 189.83 543.91 188.12 C 541.04 186.16 540.94 182.13 540.83 179.02 C 540.80 170.58 540.85 162.14 540.82 153.70 C 539.63 153.70 538.44 153.70 537.25 153.70 C 537.25 152.23 537.26 150.75 537.27 149.27 C 538.53 149.28 539.79 149.29 541.05 149.30 C 541.69 146.11 542.34 142.93 542.98 139.74 Z" fill="#2c2935" />
<path d="M 650.93 141.47 C 654.68 140.82 656.51 143.68 657.05 146.93 C 657.89 153.20 657.28 159.68 657.45 166.00 C 657.29 170.90 658.09 176.71 656.31 181.33 C 655.05 184.50 651.34 185.38 648.71 183.24 C 646.39 181.19 646.40 176.92 646.32 174.04 C 646.37 165.80 646.21 157.54 646.40 149.30 C 646.65 146.10 647.18 142.24 650.93 141.47 Z" fill="#ffffff" />
<path d="M 336.24 145.04 C 337.72 153.47 339.08 161.92 340.51 170.36 C 337.65 170.35 334.80 170.35 331.94 170.34 C 333.21 162.82 334.51 155.29 335.78 147.76 C 335.93 146.86 336.08 145.95 336.24 145.04 Z" fill="#ffffff" />
<path d="M 411.84 153.19 C 413.96 158.48 413.21 165.27 413.36 170.89 C 408.45 170.91 403.53 170.90 398.62 170.90 C 398.73 174.62 398.23 179.52 400.14 182.84 C 401.55 185.35 405.37 185.10 406.84 182.81 C 407.78 181.13 408.11 179.03 408.61 177.19 C 410.18 177.45 411.76 177.71 413.34 177.97 C 412.65 181.27 412.40 185.26 409.35 187.35 C 405.09 190.15 397.90 189.57 395.23 184.76 C 392.76 180.33 393.32 173.93 393.22 169.00 C 393.34 163.95 392.73 157.63 394.97 152.99 C 397.96 146.59 409.14 146.48 411.84 153.19 Z" fill="#2c2935" />
<path d="M 454.96 153.06 C 457.18 158.35 456.38 165.24 456.53 170.90 C 451.62 170.90 446.70 170.90 441.79 170.90 C 441.90 174.60 441.46 179.34 443.24 182.69 C 444.58 185.26 448.33 185.18 449.94 182.94 C 450.96 181.26 451.25 179.07 451.78 177.19 C 453.35 177.45 454.93 177.71 456.51 177.97 C 455.81 181.30 455.56 185.34 452.44 187.42 C 448.07 190.14 440.97 189.55 438.34 184.64 C 435.95 180.19 436.50 173.91 436.40 169.00 C 436.51 163.99 435.94 157.81 438.06 153.17 C 440.88 146.67 452.17 146.40 454.96 153.06 Z" fill="#2c2935" />
<path d="M 507.35 147.97 C 507.25 149.88 507.14 151.80 507.02 153.71 C 504.97 154.11 502.88 153.67 501.58 155.59 C 499.76 158.13 499.59 161.97 499.49 164.99 C 499.45 172.63 499.50 180.28 499.49 187.92 C 497.67 187.93 495.85 187.94 494.02 187.95 C 494.04 175.05 494.02 162.16 494.04 149.26 C 495.15 149.26 496.26 149.28 497.38 149.30 C 497.88 151.45 498.36 153.61 498.82 155.78 C 499.55 153.80 500.19 151.22 501.77 149.77 C 503.18 148.35 505.50 148.38 507.35 147.97 Z" fill="#2c2935" />
<path d="M 519.44 148.48 C 522.79 147.74 526.55 148.43 528.68 151.33 C 530.90 154.35 531.00 158.39 531.08 161.99 C 531.07 170.64 531.06 179.28 531.06 187.93 C 529.91 187.94 528.76 187.94 527.60 187.93 C 527.34 186.48 527.08 185.03 526.84 183.58 C 525.42 185.70 524.47 187.98 521.79 188.72 C 517.69 189.82 513.47 187.92 512.56 183.56 C 511.68 178.51 511.28 172.24 513.46 167.47 C 516.29 163.02 522.02 163.58 525.65 166.74 C 525.25 162.85 526.43 157.18 524.08 153.87 C 520.60 150.79 516.69 154.31 514.15 156.78 C 513.53 155.44 512.90 154.10 512.27 152.76 C 514.53 150.92 516.51 149.16 519.44 148.48 Z" fill="#2c2935" />
<path d="M 590.94 153.08 C 592.96 157.45 592.53 163.27 592.61 168.00 C 592.49 173.07 593.09 179.27 591.03 184.00 C 588.25 190.76 576.73 190.72 574.00 183.94 C 572.02 179.20 572.56 173.06 572.47 168.00 C 572.53 163.27 572.13 157.49 574.10 153.10 C 577.01 146.55 588.01 146.53 590.94 153.08 Z" fill="#2c2935" />
<path d="M 619.03 150.98 C 621.05 154.00 621.18 158.48 621.33 162.00 C 621.40 170.64 621.32 179.29 621.36 187.93 C 619.52 187.94 617.69 187.94 615.85 187.95 C 615.82 179.29 615.85 170.64 615.85 161.98 C 615.78 159.35 615.81 155.96 614.35 153.67 C 612.89 151.79 610.45 152.64 609.33 154.40 C 607.30 157.65 607.10 162.28 606.90 166.00 C 606.78 173.31 606.88 180.64 606.86 187.95 C 605.03 187.95 603.19 187.94 601.36 187.93 C 601.39 175.05 601.38 162.17 601.38 149.29 C 602.50 149.28 603.63 149.28 604.76 149.28 C 605.20 151.28 605.63 153.29 606.00 155.31 C 606.72 153.69 607.30 151.79 608.43 150.41 C 611.17 147.32 616.71 147.40 619.03 150.98 Z" fill="#2c2935" />
<path d="M 558.30 149.39 C 560.09 149.24 561.89 149.25 563.68 149.23 C 563.69 162.13 563.65 175.03 563.70 187.93 C 561.86 187.93 560.02 187.94 558.18 187.95 C 558.31 175.11 558.03 162.21 558.30 149.39 Z" fill="#2c2935" />
<path d="M 406.46 154.55 C 408.22 157.91 407.74 162.63 407.87 166.34 C 404.78 166.35 401.69 166.35 398.60 166.34 C 398.74 162.62 398.21 157.57 400.25 154.29 C 401.82 151.94 405.10 152.08 406.46 154.55 Z" fill="#ffffff" />
<path d="M 449.59 154.47 C 451.41 157.83 450.93 162.62 451.09 166.34 C 447.99 166.34 444.88 166.34 441.77 166.33 C 441.92 162.61 441.44 157.73 443.34 154.40 C 444.82 152.06 448.19 151.98 449.59 154.47 Z" fill="#ffffff" />
<path d="M 475.99 152.64 C 477.68 152.36 478.87 154.06 479.30 155.49 C 480.36 159.44 480.00 163.93 480.06 168.00 C 479.97 172.42 480.42 177.24 479.35 181.54 C 478.77 183.60 477.26 185.16 474.96 184.48 C 472.49 184.11 471.80 180.83 471.33 178.81 C 470.22 172.61 470.21 165.23 471.24 159.02 C 471.83 156.39 472.56 152.64 475.99 152.64 Z" fill="#ffffff" />
<path d="M 581.10 152.93 C 583.42 151.85 585.57 153.48 586.25 155.73 C 587.52 159.86 587.00 164.71 587.11 169.00 C 586.96 173.29 587.67 178.73 585.72 182.65 C 584.56 185.00 581.32 185.31 579.72 183.26 C 577.88 180.83 577.95 176.91 577.87 174.00 C 577.95 169.00 577.68 163.96 578.08 158.97 C 578.34 156.81 578.85 153.89 581.10 152.93 Z" fill="#ffffff" />
<path d="M 172.00 160.60 C 207.67 160.61 243.34 160.61 279.00 160.59 C 282.36 160.64 285.50 160.20 288.65 161.28 C 286.77 161.53 284.90 161.68 283.01 161.69 C 247.01 161.67 211.00 161.69 175.00 161.68 C 170.63 161.65 166.41 161.85 162.05 161.38 C 165.00 160.11 168.82 160.69 172.00 160.60 Z" fill="#2c2935" />
<path d="M 718.29 160.62 C 758.87 160.61 799.45 160.62 840.04 160.61 C 841.34 160.63 842.66 160.70 843.98 160.82 C 842.81 161.46 841.48 161.76 839.99 161.71 C 799.44 161.66 758.82 161.71 718.27 161.69 L 718.29 160.62 Z" fill="#2c2935" />
<path d="M 520.19 168.16 C 522.50 167.85 524.15 168.95 524.88 171.14 C 525.83 174.40 525.88 178.59 524.85 181.83 C 524.01 184.73 519.54 185.78 518.20 182.71 C 517.08 180.08 517.32 176.75 517.38 173.94 C 517.55 171.86 517.79 168.88 520.19 168.16 Z" fill="#ffffff" />
<path d="M 195.01 222.39 C 199.49 222.50 203.80 223.73 206.64 227.40 C 209.96 231.74 210.28 237.80 209.82 243.03 C 209.42 247.15 208.09 251.10 204.49 253.48 C 199.55 256.85 193.32 256.42 187.62 256.44 C 187.64 264.83 187.62 273.21 187.63 281.60 C 183.27 281.59 178.92 281.59 174.56 281.58 C 174.57 261.85 174.56 242.11 174.56 222.38 C 181.38 222.40 188.20 222.31 195.01 222.39 Z" fill="#2c2935" />
<path d="M 453.74 222.36 C 464.05 222.38 474.36 222.36 484.67 222.37 C 484.67 225.60 484.66 228.83 484.66 232.06 C 481.71 232.07 478.76 232.07 475.81 232.06 C 475.79 248.57 475.82 265.08 475.80 281.60 C 471.42 281.59 467.04 281.59 462.67 281.59 C 462.67 265.08 462.67 248.57 462.67 232.07 C 459.70 232.07 456.72 232.06 453.74 232.06 C 453.74 228.82 453.74 225.59 453.74 222.36 Z" fill="#2c2935" />
<path d="M 490.76 222.37 C 494.70 222.38 498.65 222.37 502.59 222.37 C 502.57 229.19 502.66 236.02 502.52 242.84 C 506.26 239.96 510.14 237.84 515.04 238.85 C 519.07 239.97 520.60 244.16 520.68 247.98 C 520.77 259.18 520.67 270.39 520.71 281.59 C 516.78 281.59 512.84 281.59 508.90 281.58 C 508.86 271.37 508.92 261.15 508.89 250.94 C 508.78 249.76 508.94 247.86 507.72 247.21 C 506.09 246.72 504.14 247.76 502.57 248.25 C 502.61 259.36 502.59 270.47 502.59 281.58 C 498.64 281.59 494.70 281.59 490.75 281.59 C 490.75 261.85 490.74 242.11 490.76 222.37 Z" fill="#2c2935" />
<path d="M 621.96 222.38 C 624.54 222.37 627.12 222.37 629.71 222.36 C 629.07 227.73 628.43 233.09 627.79 238.46 C 629.70 238.46 631.61 238.46 633.52 238.46 C 634.16 233.10 634.74 227.73 635.37 222.36 C 637.91 222.37 640.45 222.36 642.99 222.36 C 642.40 227.73 641.74 233.09 641.13 238.46 C 642.41 238.45 643.69 238.45 644.97 238.45 C 644.91 240.99 644.85 243.52 644.77 246.05 C 643.11 246.06 641.45 246.06 639.79 246.06 C 639.48 248.89 639.17 251.72 638.85 254.56 C 640.77 254.55 642.70 254.55 644.62 254.55 C 644.55 257.00 644.47 259.45 644.41 261.90 C 642.21 261.90 640.02 261.88 637.83 261.89 C 637.01 268.45 636.20 275.02 635.41 281.58 C 632.88 281.59 630.35 281.59 627.82 281.59 C 628.61 275.02 629.37 268.45 630.18 261.89 C 628.26 261.89 626.35 261.89 624.44 261.89 C 623.67 268.46 622.87 275.01 622.11 281.58 C 619.58 281.58 617.05 281.59 614.51 281.59 C 615.28 275.02 616.04 268.46 616.79 261.89 C 615.45 261.89 614.10 261.89 612.76 261.89 C 612.83 259.44 612.90 256.99 612.98 254.55 C 614.58 254.55 616.19 254.56 617.79 254.56 C 618.14 251.73 618.49 248.90 618.83 246.07 C 616.91 246.06 614.99 246.05 613.07 246.03 C 613.11 243.51 613.16 240.98 613.20 238.45 C 615.51 238.45 617.83 238.46 620.14 238.46 C 620.75 233.10 621.38 227.74 621.96 222.38 Z" fill="#2c2935" />
<path d="M 666.98 221.67 C 671.30 221.29 676.79 221.64 679.94 225.05 C 683.18 228.82 683.82 233.60 684.41 238.35 C 680.65 238.81 676.90 239.27 673.14 239.73 C 672.72 237.30 673.00 233.67 671.29 231.70 C 668.35 230.15 666.08 231.85 665.67 234.93 C 665.03 240.37 668.93 243.27 672.50 246.52 C 677.09 250.53 681.74 254.14 684.10 259.99 C 686.03 265.02 686.09 271.39 682.97 275.98 C 680.31 279.97 675.78 282.25 671.03 282.44 C 666.08 282.63 660.64 281.67 657.19 277.80 C 653.71 273.71 653.29 268.81 652.90 263.68 C 656.59 263.15 660.28 262.59 663.97 262.05 C 664.32 264.82 664.24 268.63 665.99 270.97 C 667.55 272.91 670.66 273.23 672.13 270.98 C 673.20 267.57 672.35 263.71 670.07 260.97 C 665.40 255.31 657.66 251.31 654.49 244.49 C 652.50 240.17 652.50 233.79 654.53 229.47 C 656.86 224.61 661.78 222.14 666.98 221.67 Z" fill="#2c2935" />
<path d="M 706.58 222.38 C 706.57 230.37 706.58 238.36 706.57 246.35 C 709.62 246.36 712.68 246.36 715.74 246.36 C 715.74 238.36 715.74 230.37 715.74 222.37 C 720.12 222.36 724.51 222.37 728.89 222.37 C 728.87 242.11 728.90 261.85 728.88 281.59 C 724.50 281.59 720.12 281.59 715.73 281.58 C 715.74 272.95 715.74 264.33 715.74 255.70 C 712.68 255.69 709.63 255.69 706.57 255.69 C 706.58 264.32 706.57 272.95 706.57 281.59 C 702.22 281.59 697.86 281.59 693.50 281.58 C 693.51 261.85 693.52 242.11 693.50 222.38 C 697.86 222.36 702.22 222.37 706.58 222.38 Z" fill="#2c2935" />
<path d="M 739.55 222.49 C 743.85 222.18 748.20 222.43 752.52 222.38 C 752.51 242.11 752.51 261.85 752.51 281.58 C 748.16 281.59 743.80 281.59 739.45 281.59 C 739.52 261.93 739.30 242.13 739.55 222.49 Z" fill="#2c2935" />
<path d="M 762.84 222.38 C 769.57 222.39 776.31 222.32 783.05 222.38 C 787.26 222.45 791.38 223.46 794.31 226.68 C 797.96 230.72 798.55 236.83 798.22 242.02 C 797.87 246.29 796.85 250.56 793.19 253.21 C 788.15 256.86 781.80 256.41 775.90 256.45 C 775.90 264.83 775.90 273.21 775.91 281.60 C 771.55 281.59 767.19 281.59 762.84 281.58 C 762.84 261.85 762.84 242.11 762.84 222.38 Z" fill="#2c2935" />
<path d="M 806.09 222.36 C 810.45 222.37 814.81 222.37 819.16 222.38 C 819.15 239.17 819.15 255.96 819.16 272.75 C 823.68 272.74 828.21 272.74 832.74 272.74 C 832.75 275.69 832.75 278.64 832.75 281.59 C 823.86 281.59 814.98 281.59 806.10 281.58 C 806.09 261.84 806.10 242.10 806.09 222.36 Z" fill="#2c2935" />
<path d="M 284.35 223.89 C 288.32 223.88 292.29 223.88 296.26 223.89 C 296.26 226.64 296.26 229.39 296.26 232.15 C 292.29 232.15 288.32 232.15 284.35 232.15 C 284.35 229.40 284.35 226.64 284.35 223.89 Z" fill="#2c2935" />
<path d="M 377.91 226.47 C 381.92 226.46 385.92 226.46 389.93 226.47 C 389.92 230.76 389.93 235.05 389.92 239.35 C 391.92 239.34 393.92 239.33 395.92 239.32 C 395.92 241.93 395.92 244.54 395.92 247.15 C 393.92 247.17 391.92 247.16 389.92 247.16 C 389.94 253.79 389.91 260.41 389.90 267.03 C 389.97 268.39 389.87 270.17 390.67 271.34 C 392.15 272.80 394.99 272.16 396.92 272.31 C 396.87 275.39 396.87 278.48 396.85 281.56 C 392.25 281.85 385.88 282.86 381.80 280.26 C 378.55 278.16 378.11 274.59 377.93 271.03 C 377.82 263.08 377.94 255.12 377.89 247.17 C 376.52 247.16 375.15 247.15 373.78 247.15 C 373.79 244.55 373.80 241.95 373.80 239.35 C 375.16 239.34 376.53 239.34 377.89 239.33 C 377.89 235.05 377.89 230.76 377.91 226.47 Z" fill="#2c2935" />
<path d="M 578.78 226.46 C 578.79 230.75 578.79 235.04 578.78 239.34 C 580.78 239.34 582.78 239.33 584.78 239.33 C 584.78 241.94 584.78 244.55 584.79 247.16 C 582.79 247.16 580.79 247.16 578.79 247.16 C 578.81 253.78 578.78 260.40 578.76 267.02 C 578.88 268.59 578.58 270.92 580.18 271.84 C 581.78 272.63 584.01 272.20 585.77 272.30 C 585.73 275.38 585.73 278.46 585.71 281.54 C 581.27 281.86 575.47 282.75 571.36 280.67 C 567.61 278.75 566.92 274.88 566.78 271.03 C 566.69 263.08 566.79 255.12 566.75 247.17 C 565.39 247.16 564.02 247.16 562.65 247.15 C 562.65 244.55 562.65 241.94 562.65 239.34 C 564.02 239.34 565.39 239.34 566.76 239.34 C 566.75 235.05 566.76 230.75 566.76 226.46 C 570.77 226.48 574.77 226.47 578.78 226.46 Z" fill="#2c2935" />
<path d="M 187.63 231.49 C 190.01 231.57 192.57 231.40 194.88 231.99 C 197.20 232.94 197.53 235.79 197.71 237.97 C 197.77 240.46 197.88 244.10 196.11 246.08 C 194.05 247.82 190.17 247.17 187.63 247.40 C 187.63 242.10 187.62 236.79 187.63 231.49 Z" fill="#ffffff" />
<path d="M 775.91 231.50 C 778.23 231.56 780.70 231.42 782.97 231.94 C 785.19 232.62 785.62 234.96 785.92 236.96 C 786.20 239.73 786.22 243.27 784.71 245.72 C 782.93 247.93 778.46 247.15 775.90 247.39 C 775.90 242.09 775.90 236.80 775.91 231.50 Z" fill="#ffffff" />
<path d="M 217.38 239.44 C 221.30 239.18 225.26 239.38 229.19 239.35 C 229.19 241.65 229.18 243.96 229.14 246.27 C 230.58 244.17 232.06 241.63 234.12 240.12 C 235.70 238.89 238.16 238.99 240.07 238.72 C 240.08 242.68 240.07 246.64 240.10 250.61 C 238.24 250.36 236.03 249.80 234.20 250.29 C 232.16 250.83 230.63 252.58 229.12 253.97 C 229.27 263.17 229.15 272.38 229.18 281.59 C 225.21 281.59 221.24 281.59 217.28 281.58 C 217.36 267.55 217.13 253.46 217.38 239.44 Z" fill="#2c2935" />
<path d="M 264.04 238.89 C 268.57 239.54 272.66 242.11 274.34 246.51 C 275.82 250.62 275.23 255.67 275.34 260.00 C 275.22 264.41 275.78 269.27 274.64 273.55 C 273.36 278.06 269.46 281.00 264.97 281.87 C 260.28 282.81 254.46 282.41 250.48 279.50 C 247.41 277.26 246.03 273.75 245.82 270.04 C 245.58 265.04 245.79 260.01 245.70 255.00 C 245.74 250.81 245.70 246.88 248.43 243.44 C 252.05 238.86 258.63 238.09 264.04 238.89 Z" fill="#2c2935" />
<path d="M 284.45 239.45 C 288.37 239.17 292.33 239.39 296.25 239.35 C 296.25 253.90 296.28 268.48 296.25 283.02 C 296.20 286.91 295.28 290.58 291.96 292.93 C 288.00 295.62 283.45 294.68 279.05 293.98 C 279.03 291.18 279.02 288.38 279.00 285.58 C 280.90 285.19 283.16 286.05 284.00 283.85 C 284.70 280.35 284.25 276.56 284.35 273.00 C 284.43 261.83 284.19 250.61 284.45 239.45 Z" fill="#2c2935" />
<path d="M 316.98 238.69 C 321.96 238.32 327.44 239.13 330.52 243.50 C 333.92 248.16 332.72 255.68 332.93 261.18 C 327.28 261.18 321.62 261.18 315.97 261.17 C 316.00 264.66 315.68 268.33 316.34 271.76 C 316.71 274.54 321.25 274.53 321.69 271.84 C 322.14 269.73 322.05 267.46 322.12 265.31 C 325.74 265.32 329.36 265.32 332.98 265.32 C 332.89 268.87 333.23 273.21 331.38 276.37 C 329.63 279.53 326.47 281.29 323.00 281.94 C 318.26 282.81 312.64 282.37 308.78 279.21 C 305.94 276.91 304.58 273.50 304.35 269.91 C 304.10 265.28 304.32 260.63 304.23 256.00 C 304.27 251.90 304.07 248.00 306.39 244.41 C 308.76 240.73 312.73 239.02 316.98 238.69 Z" fill="#2c2935" />
<path d="M 352.97 238.67 C 357.85 238.37 363.51 239.19 366.67 243.34 C 369.39 246.86 368.87 251.57 368.99 255.75 C 365.17 255.75 361.35 255.74 357.53 255.75 C 357.48 253.23 357.68 250.54 357.09 248.08 C 356.12 246.05 353.02 246.21 352.44 248.42 C 351.67 252.49 352.19 256.86 352.06 261.00 C 352.16 264.78 351.69 268.81 352.47 272.51 C 352.95 274.54 356.28 274.77 357.00 272.86 C 357.83 270.22 357.43 267.11 357.51 264.35 C 361.33 264.36 365.15 264.36 368.97 264.34 C 368.87 268.79 369.51 273.83 366.57 277.57 C 363.43 281.72 357.84 282.59 352.97 282.26 C 348.25 281.91 343.78 279.76 341.62 275.38 C 339.37 270.99 340.28 264.83 340.10 260.00 C 340.24 255.25 339.39 249.14 341.91 244.93 C 344.21 240.90 348.45 238.93 352.97 238.67 Z" fill="#2c2935" />
<path d="M 425.01 242.00 C 427.27 244.09 428.23 246.66 429.46 249.39 C 426.92 250.57 424.37 251.73 421.82 252.89 C 420.46 250.57 418.58 246.06 415.17 247.04 C 412.78 247.61 413.14 250.06 414.39 251.58 C 418.34 256.22 424.58 259.71 428.15 264.90 C 431.01 269.03 430.45 275.29 426.71 278.72 C 422.47 282.85 415.25 283.15 409.99 281.04 C 405.69 279.24 403.69 275.71 401.62 271.80 C 404.30 270.60 406.99 269.42 409.66 268.22 C 410.75 269.97 411.82 272.22 413.51 273.45 C 415.09 274.55 416.94 274.59 418.55 273.53 C 419.17 271.59 418.69 270.19 417.32 268.76 C 413.67 264.94 408.13 261.62 404.83 257.12 C 401.89 253.17 401.90 246.98 405.24 243.26 C 410.00 237.65 419.62 236.94 425.01 242.00 Z" fill="#2c2935" />
<path d="M 539.96 238.98 C 543.70 238.30 548.25 238.37 551.61 240.35 C 555.01 242.40 556.80 246.06 556.97 249.96 C 557.44 260.36 556.50 271.22 557.68 281.61 C 554.17 281.58 550.65 281.59 547.14 281.59 C 546.87 279.64 546.61 277.68 546.37 275.72 C 545.09 277.94 544.02 280.37 541.59 281.55 C 537.73 283.33 532.90 282.02 530.40 278.59 C 527.04 274.00 527.74 266.78 531.78 262.80 C 535.43 258.85 540.84 257.27 545.72 255.37 C 545.65 253.20 545.87 250.82 545.27 248.72 C 544.73 247.09 543.07 247.41 541.74 247.60 C 540.40 249.20 540.53 251.89 540.14 253.88 C 536.45 253.72 532.75 253.57 529.05 253.41 C 529.53 249.99 529.81 246.79 531.83 243.85 C 533.72 241.07 536.71 239.55 539.96 238.98 Z" fill="#2c2935" />
<path d="M 626.49 246.07 C 628.40 246.06 630.31 246.05 632.22 246.05 C 631.87 248.88 631.53 251.72 631.20 254.55 C 629.26 254.55 627.32 254.55 625.38 254.55 C 625.75 251.72 626.12 248.89 626.49 246.07 Z" fill="#ffffff" />
<path d="M 258.75 246.51 C 260.47 246.78 262.22 246.06 263.03 248.05 C 264.10 252.13 263.38 256.79 263.57 261.00 C 263.40 264.85 264.08 269.19 263.00 272.90 C 262.07 275.45 258.04 274.70 257.77 272.03 C 257.16 267.76 257.59 263.31 257.47 259.00 C 257.60 254.59 256.84 250.56 258.75 246.51 Z" fill="#ffffff" />
<path d="M 319.00 247.02 C 323.06 247.21 321.73 252.91 322.13 255.64 C 320.05 255.65 317.96 255.65 315.87 255.65 C 316.02 253.14 315.77 250.13 316.84 247.81 C 317.52 247.38 318.24 247.12 319.00 247.02 Z" fill="#ffffff" />
<path d="M 545.63 260.43 C 545.60 264.44 545.98 268.58 545.45 272.55 C 544.15 274.13 542.20 275.00 540.41 273.62 C 538.78 272.18 538.84 269.11 539.35 267.19 C 540.17 264.13 543.27 262.26 545.63 260.43 Z" fill="#ffffff" />
<path d="M 649.41 321.11 C 651.39 321.13 653.37 321.12 655.35 321.14 C 655.35 323.36 655.34 325.58 655.35 327.80 C 653.37 327.81 651.39 327.81 649.41 327.81 C 649.41 325.58 649.41 323.35 649.41 321.11 Z" fill="#2c2935" />
<path d="M 378.16 324.81 C 381.73 327.31 382.37 332.06 382.65 336.09 C 382.85 343.05 382.67 350.03 382.75 357.00 C 382.72 361.34 382.79 366.69 380.60 370.58 C 377.80 375.66 370.02 376.39 365.40 373.64 C 361.70 371.30 360.94 367.25 360.51 363.20 C 360.13 357.49 360.42 351.72 360.33 346.00 C 360.46 340.36 359.72 333.33 362.12 328.11 C 364.75 322.34 373.37 321.48 378.16 324.81 Z" fill="#2c2935" />
<path d="M 466.44 324.57 C 469.71 326.82 469.93 330.74 470.76 334.28 C 469.03 334.72 467.30 335.17 465.57 335.62 C 465.08 333.55 464.84 331.14 463.76 329.27 C 462.09 326.73 458.12 327.01 456.65 329.62 C 454.88 332.84 455.26 337.43 455.17 341.00 C 455.34 348.73 454.91 356.53 455.40 364.24 C 455.73 367.57 457.06 370.88 461.03 370.53 C 465.44 370.13 465.31 364.70 466.03 361.47 C 467.68 361.69 469.32 361.91 470.97 362.13 C 470.35 365.77 469.89 370.32 466.97 372.93 C 462.94 376.30 455.61 375.96 452.36 371.61 C 450.21 368.74 449.79 364.47 449.61 361.01 C 449.47 354.01 449.60 347.00 449.55 340.00 C 449.61 335.81 449.68 330.62 452.00 326.97 C 454.94 322.34 462.10 321.77 466.44 324.57 Z" fill="#2c2935" />
<path d="M 305.53 323.94 C 307.44 323.95 309.34 323.96 311.24 323.97 C 311.23 340.69 311.25 357.41 311.23 374.14 C 309.33 374.14 307.42 374.13 305.52 374.14 C 305.52 357.40 305.50 340.67 305.53 323.94 Z" fill="#2c2935" />
<path d="M 667.56 325.90 C 668.65 325.87 669.74 325.86 670.83 325.86 C 670.83 329.04 670.84 332.23 670.83 335.41 C 672.52 335.41 674.21 335.41 675.91 335.41 C 675.91 336.88 675.92 338.36 675.93 339.83 C 674.23 339.83 672.52 339.83 670.82 339.83 C 671.05 349.50 670.41 359.36 671.12 368.97 C 671.80 371.78 674.07 370.01 675.94 369.83 C 676.25 371.22 676.57 372.61 676.88 374.00 C 674.07 374.73 671.36 376.01 668.61 374.35 C 665.91 372.68 665.52 368.88 665.43 366.00 C 665.37 357.27 665.45 348.54 665.41 339.82 C 664.21 339.83 663.02 339.83 661.82 339.84 C 661.82 338.37 661.82 336.89 661.83 335.41 C 663.09 335.41 664.36 335.41 665.63 335.41 C 666.28 332.24 666.92 329.07 667.56 325.90 Z" fill="#2c2935" />
<path d="M 374.99 329.05 C 377.10 331.57 377.03 335.89 377.12 339.00 C 377.07 346.34 377.17 353.68 377.08 361.02 C 376.93 363.83 376.74 367.47 374.51 369.51 C 371.91 371.67 367.94 370.37 366.88 367.21 C 365.40 362.49 366.07 356.92 365.93 352.00 C 365.99 346.67 365.80 341.32 366.00 335.99 C 366.18 333.72 366.36 330.80 367.98 329.03 C 369.79 327.07 373.25 326.93 374.99 329.05 Z" fill="#ffffff" />
<path d="M 338.76 337.27 C 340.80 340.54 340.86 345.26 340.96 349.00 C 340.98 357.38 340.95 365.77 340.95 374.16 C 339.13 374.14 337.31 374.13 335.48 374.12 C 335.49 365.74 335.47 357.37 335.51 349.00 C 335.45 346.27 335.51 343.08 334.41 340.54 C 333.54 338.91 331.99 338.17 330.30 339.26 C 327.77 340.85 327.19 345.23 326.83 347.96 C 326.16 356.64 326.66 365.43 326.49 374.14 C 324.67 374.14 322.85 374.14 321.03 374.14 C 321.03 361.22 321.04 348.31 321.03 335.40 C 322.15 335.40 323.27 335.41 324.39 335.43 C 324.83 337.43 325.26 339.44 325.66 341.46 C 326.29 339.92 326.88 338.19 327.84 336.84 C 330.47 333.44 336.47 333.48 338.76 337.27 Z" fill="#2c2935" />
<path d="M 495.29 338.69 C 497.21 342.23 497.19 347.06 497.24 351.00 C 497.14 356.22 497.55 361.67 496.66 366.82 C 496.09 369.82 494.86 372.57 492.04 374.08 C 487.76 376.22 481.54 375.40 479.05 370.94 C 476.63 366.41 477.18 360.00 477.09 355.00 C 477.19 350.07 476.67 344.12 478.60 339.50 C 481.17 332.94 492.04 332.59 495.29 338.69 Z" fill="#2c2935" />
<path d="M 564.99 335.98 C 566.25 337.27 566.89 339.30 567.60 340.93 C 568.25 339.34 568.86 337.35 570.09 336.12 C 572.84 333.47 577.76 333.82 579.89 337.08 C 581.94 340.06 582.07 344.51 582.23 347.99 C 582.31 356.71 582.24 365.42 582.25 374.14 C 580.42 374.14 578.58 374.14 576.75 374.14 C 576.73 365.42 576.75 356.70 576.75 347.98 C 576.68 345.37 576.71 342.00 575.24 339.74 C 573.66 337.99 571.68 338.82 570.56 340.55 C 568.78 343.63 568.54 347.79 568.35 351.27 C 568.18 358.89 568.33 366.51 568.27 374.13 C 566.44 374.13 564.61 374.14 562.78 374.15 C 562.76 365.42 562.79 356.70 562.78 347.98 C 562.71 345.37 562.75 341.99 561.28 339.73 C 559.85 337.94 557.60 338.91 556.60 340.58 C 554.82 343.66 554.58 347.81 554.37 351.29 C 554.19 358.90 554.34 366.53 554.29 374.14 C 552.46 374.14 550.63 374.13 548.80 374.13 C 548.75 361.24 548.87 348.35 548.74 335.47 C 549.89 335.46 551.05 335.44 552.21 335.39 C 552.62 337.37 553.02 339.36 553.39 341.35 C 554.04 339.78 554.65 338.03 555.63 336.64 C 557.74 333.85 562.49 333.59 564.99 335.98 Z" fill="#2c2935" />
<path d="M 637.95 337.01 C 640.02 340.00 640.16 344.49 640.32 347.99 C 640.40 356.70 640.32 365.42 640.35 374.13 C 638.51 374.13 636.67 374.14 634.83 374.14 C 634.78 364.75 634.93 355.36 634.78 345.97 C 634.60 343.61 634.49 340.01 632.03 338.80 C 630.32 338.57 628.79 339.51 628.02 341.02 C 626.19 344.52 626.03 349.13 625.88 352.99 C 625.80 360.04 625.86 367.08 625.85 374.13 C 624.03 374.13 622.20 374.13 620.37 374.14 C 620.37 361.23 620.36 348.32 620.38 335.41 C 621.50 335.41 622.63 335.42 623.76 335.42 C 624.19 337.42 624.61 339.41 624.99 341.42 C 625.64 339.95 626.19 338.36 627.07 337.01 C 629.51 333.53 635.55 333.40 637.95 337.01 Z" fill="#2c2935" />
<path d="M 391.03 335.39 C 392.84 335.41 394.65 335.42 396.46 335.43 C 396.47 345.23 396.40 355.04 396.47 364.84 C 396.65 367.48 396.79 370.47 400.12 370.69 C 403.96 370.82 404.77 367.12 404.95 364.05 C 405.19 354.51 404.96 344.95 405.05 335.41 C 406.84 335.41 408.63 335.41 410.41 335.42 C 410.40 348.32 410.42 361.22 410.41 374.12 C 409.28 374.13 408.16 374.14 407.04 374.15 C 406.71 372.63 406.37 371.12 406.07 369.60 C 405.07 371.19 404.20 373.53 402.42 374.38 C 399.39 375.90 394.64 375.32 392.69 372.30 C 391.08 369.71 391.10 365.96 391.02 363.00 C 391.03 353.80 391.03 344.60 391.03 335.39 Z" fill="#2c2935" />
<path d="M 433.60 334.10 C 433.51 336.06 433.40 338.03 433.28 339.99 C 431.70 340.26 429.35 339.87 428.25 341.25 C 426.07 343.71 425.90 347.86 425.77 350.99 C 425.71 358.70 425.79 366.42 425.76 374.14 C 423.94 374.14 422.11 374.13 420.29 374.13 C 420.28 361.22 420.28 348.31 420.29 335.39 C 421.42 335.41 422.56 335.42 423.70 335.45 C 424.16 337.59 424.63 339.73 425.04 341.87 C 425.81 339.96 426.46 337.47 427.96 335.99 C 429.33 334.54 431.74 334.54 433.60 334.10 Z" fill="#2c2935" />
<path d="M 506.15 335.56 C 507.22 335.44 508.28 335.35 509.35 335.28 C 509.79 337.31 510.23 339.34 510.63 341.37 C 511.23 339.82 511.80 338.12 512.73 336.74 C 514.95 333.71 520.17 333.53 522.59 336.41 C 523.64 337.72 524.16 339.53 524.79 341.07 C 525.40 339.44 525.99 337.47 527.20 336.20 C 529.85 333.49 534.84 333.80 537.01 336.96 C 539.09 339.97 539.28 344.45 539.42 347.99 C 539.50 356.71 539.42 365.43 539.45 374.15 C 537.61 374.14 535.77 374.14 533.93 374.13 C 533.84 364.44 534.07 354.72 533.83 345.04 C 533.62 342.75 533.21 338.29 529.94 338.79 C 526.91 339.79 526.30 344.29 525.89 346.98 C 525.02 355.96 525.66 365.10 525.45 374.13 C 523.65 374.14 521.84 374.14 520.03 374.16 C 519.87 365.10 520.03 356.04 519.95 346.98 C 519.81 344.69 519.87 340.68 517.83 339.18 C 515.12 337.50 513.08 341.23 512.60 343.45 C 510.54 353.36 511.86 364.04 511.48 374.14 C 509.67 374.14 507.85 374.13 506.04 374.13 C 506.13 361.29 505.88 348.39 506.15 335.56 Z" fill="#2c2935" />
<path d="M 591.11 335.40 C 592.92 335.41 594.73 335.42 596.54 335.42 C 596.53 344.62 596.54 353.81 596.51 363.01 C 596.58 364.89 596.53 367.04 597.25 368.80 C 598.16 371.18 601.90 371.22 603.41 369.44 C 605.05 367.54 605.03 364.38 605.11 362.01 C 605.09 353.14 605.08 344.28 605.09 335.41 C 606.90 335.41 608.70 335.41 610.51 335.41 C 610.50 348.31 610.50 361.21 610.50 374.11 C 609.40 374.14 608.29 374.16 607.18 374.18 C 606.82 372.65 606.47 371.12 606.14 369.60 C 605.15 371.27 604.25 373.53 602.43 374.41 C 599.38 375.93 594.67 375.26 592.74 372.22 C 591.17 369.65 591.19 365.93 591.10 363.00 C 591.11 353.80 591.11 344.60 591.11 335.40 Z" fill="#2c2935" />
<path d="M 655.11 335.41 C 655.14 348.32 655.12 361.23 655.12 374.14 C 653.29 374.14 651.46 374.14 649.63 374.13 C 649.61 361.23 649.61 348.32 649.62 335.42 C 651.45 335.41 653.28 335.41 655.11 335.41 Z" fill="#2c2935" />
<path d="M 679.52 335.49 C 681.31 335.37 683.11 335.39 684.91 335.38 C 686.95 344.80 689.03 354.20 691.07 363.62 C 692.87 354.22 694.65 344.81 696.46 335.41 C 698.31 335.42 700.16 335.41 702.02 335.42 C 698.74 350.28 695.45 365.17 692.12 380.02 C 691.29 383.47 689.69 386.98 685.91 387.90 C 682.50 388.75 680.33 386.77 677.67 385.07 C 678.29 383.85 678.90 382.62 679.50 381.39 C 681.61 382.34 684.48 384.98 686.48 382.45 C 688.21 380.02 689.11 375.40 688.42 372.51 C 685.52 360.17 682.28 347.85 679.52 335.49 Z" fill="#2c2935" />
<path d="M 490.33 340.70 C 492.36 344.81 491.54 350.51 491.72 355.00 C 491.52 359.37 492.40 365.23 490.13 369.13 C 488.51 371.73 484.80 371.05 483.69 368.35 C 481.99 364.40 482.64 359.24 482.50 355.00 C 482.67 350.54 481.89 344.94 483.85 340.85 C 485.29 338.21 488.80 338.00 490.33 340.70 Z" fill="#ffffff" />
<path d="M 162.82 347.03 C 166.56 346.62 170.25 346.75 174.00 346.75 C 208.00 346.75 242.00 346.75 276.00 346.75 C 280.10 346.76 284.08 346.58 288.17 347.06 C 286.77 347.58 285.38 347.84 283.99 347.84 C 246.70 347.80 209.30 347.82 172.00 347.83 C 169.05 347.74 165.52 348.29 162.82 347.03 Z" fill="#2c2935" />
<path d="M 718.95 346.75 C 758.97 346.74 798.99 346.76 839.01 346.74 C 840.55 346.76 842.10 346.85 843.65 347.00 C 842.48 347.58 841.27 347.86 840.02 347.83 C 799.74 347.79 759.30 347.84 719.02 347.80 L 718.95 346.75 Z" fill="#2c2935" />
<path d="M 161.32 442.80 C 165.48 442.25 169.80 442.58 174.00 442.53 C 393.67 442.52 613.33 442.53 833.00 442.52 C 838.42 442.62 843.80 441.89 848.84 444.18 C 855.50 446.97 860.68 452.91 862.27 459.98 C 862.90 463.56 862.69 467.37 862.72 471.00 C 862.72 532.67 862.71 594.33 862.72 656.00 C 862.67 659.92 862.97 664.16 862.06 667.98 C 859.43 677.66 850.03 684.63 840.01 684.45 C 617.34 684.44 394.67 684.45 172.00 684.44 C 168.68 684.43 165.25 684.63 161.95 684.22 C 154.28 683.00 147.65 677.64 144.57 670.55 C 142.15 664.61 142.79 658.27 142.73 652.00 C 142.73 592.67 142.74 533.33 142.73 474.00 C 142.76 468.12 142.25 462.03 144.55 456.47 C 147.48 449.62 153.95 444.17 161.32 442.80 Z" fill="#65ca84" />
<path d="M 307.74 477.80 C 307.21 480.35 307.51 482.89 303.99 482.54 C 301.38 482.69 301.59 479.65 301.46 477.84 C 304.04 476.13 305.08 476.77 307.74 477.80 Z" fill="#ffffff" />
<path d="M 530.99 490.81 C 534.68 497.82 537.56 505.17 540.87 512.36 C 544.94 505.57 547.78 497.97 551.24 490.84 C 553.30 500.97 554.97 511.21 556.67 521.41 C 555.32 521.43 553.96 521.44 552.61 521.45 C 551.34 515.68 550.79 509.83 549.32 504.11 C 546.85 510.35 543.82 516.25 541.00 522.35 C 538.19 516.30 535.58 510.16 532.76 504.11 C 531.48 509.87 530.72 515.71 529.40 521.46 C 528.02 521.44 526.64 521.42 525.27 521.39 C 526.84 511.14 529.45 501.07 530.99 490.81 Z" fill="#ffffff" />
<path d="M 581.20 491.08 C 586.01 501.02 590.23 511.24 594.83 521.28 C 593.39 521.38 591.94 521.47 590.50 521.55 C 589.37 519.20 588.27 516.82 587.21 514.43 C 583.07 514.35 578.94 514.36 574.80 514.44 C 573.67 516.81 572.53 519.17 571.36 521.52 C 569.97 521.45 568.59 521.38 567.20 521.30 C 571.35 512.14 575.54 502.99 579.86 493.91 C 580.30 492.97 580.75 492.02 581.20 491.08 Z" fill="#ffffff" />
<path d="M 607.47 492.65 C 613.33 492.26 620.87 492.10 625.17 496.84 C 631.04 502.67 630.54 512.94 624.06 518.10 C 619.18 522.18 613.18 521.45 607.26 521.42 C 607.40 511.85 606.93 502.19 607.47 492.65 Z" fill="#ffffff" />
<path d="M 642.19 492.67 C 647.28 492.28 652.42 492.66 657.52 492.56 C 657.55 493.90 657.57 495.24 657.60 496.58 C 653.77 496.65 649.94 496.64 646.11 496.56 C 645.82 498.86 645.68 501.15 645.62 503.48 C 649.30 503.60 652.97 503.61 656.65 503.50 C 656.95 504.84 657.25 506.18 657.57 507.52 C 653.83 507.63 650.09 507.64 646.35 507.53 C 645.49 510.95 645.57 514.09 645.99 517.56 C 649.84 517.52 653.68 517.53 657.53 517.57 C 657.56 518.86 657.58 520.15 657.60 521.43 C 652.30 521.47 647.01 521.48 641.71 521.39 C 641.65 513.26 641.74 505.13 641.64 497.00 C 641.76 495.66 641.50 493.86 642.19 492.67 Z" fill="#ffffff" />
<path d="M 707.11 491.67 C 710.26 498.05 711.69 505.07 714.92 511.39 C 717.73 505.19 720.15 498.82 722.88 492.58 C 724.25 492.57 725.62 492.56 726.99 492.56 C 725.88 497.26 723.69 501.40 721.87 505.83 C 719.51 511.55 716.96 517.17 714.83 522.99 C 712.17 517.05 710.24 510.89 708.08 504.76 C 707.65 504.47 707.22 504.19 706.80 503.90 C 704.21 510.24 702.12 516.72 699.11 522.89 C 697.25 517.26 694.90 511.81 692.77 506.25 C 691.03 501.68 688.79 497.49 687.87 492.63 C 689.08 492.55 690.29 492.48 691.50 492.40 C 694.54 498.62 696.84 505.27 699.15 511.79 C 702.26 505.32 704.54 498.38 707.11 491.67 Z" fill="#ffffff" />
<path d="M 743.51 492.49 C 743.57 502.13 743.57 511.77 743.52 521.40 C 742.20 521.42 740.88 521.43 739.55 521.43 C 739.52 511.84 739.36 502.23 739.62 492.64 C 740.92 492.57 742.21 492.53 743.51 492.49 Z" fill="#ffffff" />
<path d="M 755.62 492.67 C 761.22 492.30 766.87 492.65 772.48 492.57 C 772.52 493.90 772.56 495.24 772.60 496.57 C 770.52 496.59 768.44 496.60 766.35 496.62 C 765.98 504.92 766.75 513.31 765.87 521.56 C 764.49 521.48 763.11 521.39 761.72 521.31 C 761.62 513.08 761.79 504.85 761.62 496.62 C 759.50 496.60 757.38 496.61 755.26 496.59 C 755.36 495.28 755.43 493.97 755.62 492.67 Z" fill="#ffffff" />
<path d="M 784.58 492.60 C 785.89 492.57 787.20 492.55 788.51 492.54 C 788.56 496.23 788.58 499.93 788.57 503.62 C 792.86 503.73 797.12 503.73 801.40 503.61 C 801.40 499.93 801.43 496.24 801.47 492.56 C 802.81 492.55 804.15 492.55 805.49 492.56 C 805.52 502.18 805.57 511.80 805.48 521.42 C 804.13 521.42 802.79 521.43 801.45 521.43 C 801.42 517.08 801.41 512.72 801.42 508.36 C 797.13 508.21 792.85 508.22 788.56 508.34 C 788.57 512.70 788.57 517.06 788.54 521.41 C 787.21 521.42 785.89 521.42 784.57 521.41 C 784.56 511.81 784.52 502.20 784.58 492.60 Z" fill="#ffffff" />
<path d="M 286.58 495.33 C 286.52 496.37 286.50 497.42 286.51 498.48 C 285.53 498.47 284.54 498.44 283.56 498.41 C 283.57 497.51 283.59 496.62 283.63 495.72 C 284.61 495.57 285.60 495.45 286.58 495.33 Z" fill="#ffffff" />
<path d="M 611.36 496.45 C 614.39 496.70 617.93 496.53 620.50 498.41 C 625.97 501.80 626.37 511.37 621.10 515.10 C 618.16 517.57 614.97 517.38 611.36 517.68 C 611.23 510.61 611.23 503.53 611.36 496.45 Z" fill="#65ca84" />
<path d="M 581.11 500.68 C 582.92 503.82 584.18 506.92 585.07 510.43 C 582.36 510.45 579.64 510.44 576.93 510.41 C 578.04 507.01 579.40 503.82 581.11 500.68 Z" fill="#65ca84" />
<path d="M 237.31 511.78 C 238.02 515.55 237.59 519.59 237.67 523.42 C 240.93 522.76 244.20 522.11 247.47 521.47 C 247.50 518.31 247.52 515.15 247.49 511.99 C 248.59 511.20 249.69 510.15 250.98 509.71 C 252.86 509.73 254.79 510.51 255.25 512.51 C 255.80 515.35 255.56 518.39 255.59 521.27 C 272.07 521.89 287.23 529.75 298.02 542.09 C 293.49 546.77 288.93 551.38 283.77 555.38 C 281.92 556.99 280.22 558.73 278.47 560.44 C 275.22 563.62 271.87 566.64 268.41 569.60 C 269.58 572.71 270.73 575.59 270.68 579.00 C 270.75 582.70 269.32 585.74 267.82 589.00 C 271.38 591.72 274.97 594.38 278.54 597.07 C 280.60 598.63 282.63 600.23 284.69 601.80 C 288.92 604.86 293.05 608.05 297.28 611.10 C 297.38 619.52 297.29 627.93 297.32 636.35 C 283.55 636.41 269.77 636.33 256.00 636.39 C 246.97 636.43 238.03 634.95 229.79 631.16 C 219.35 626.63 210.90 618.74 204.75 609.25 C 192.32 589.68 193.42 562.15 207.95 543.96 C 213.58 536.21 221.23 530.80 229.66 526.45 C 229.75 521.88 229.25 517.15 229.89 512.63 C 231.13 509.19 235.29 508.71 237.31 511.78 Z" fill="#2c2935" />
<path d="M 305.66 513.33 C 306.98 514.25 307.96 515.73 309.01 516.93 C 307.65 518.23 306.27 519.52 304.91 520.82 C 303.54 519.50 302.14 518.21 300.77 516.90 C 302.04 515.45 303.28 512.59 305.66 513.33 Z" fill="#ffffff" />
<path d="M 281.81 541.58 C 281.72 542.18 281.50 542.68 281.15 543.09 C 277.82 546.72 273.59 549.55 270.14 553.11 C 266.89 556.48 263.43 559.61 260.07 562.86 C 256.59 562.11 253.47 561.21 249.92 562.22 C 243.62 563.62 238.47 568.52 236.93 574.80 C 235.11 582.37 238.56 589.89 245.22 593.77 C 249.48 596.45 253.86 595.75 258.62 595.55 C 268.02 602.48 277.18 609.78 286.73 616.51 C 286.83 619.56 286.83 622.61 286.81 625.66 C 275.54 625.65 264.26 625.65 252.99 625.66 C 242.17 625.62 231.71 621.54 223.49 614.54 C 209.23 602.76 203.13 582.41 209.04 564.79 C 212.43 553.79 219.95 544.79 229.58 538.64 C 229.79 543.49 229.54 548.35 229.71 553.21 C 229.71 554.70 230.23 555.72 231.35 556.67 C 233.40 558.62 237.75 557.17 237.52 554.10 C 237.76 547.70 237.47 541.28 237.64 534.87 C 252.45 529.75 269.31 531.98 281.81 541.58 Z" fill="#ffffff" />
<path d="M 283.77 555.38 C 284.31 555.69 284.83 556.01 285.34 556.35 C 294.90 569.23 295.22 589.41 284.69 601.80 C 282.63 600.23 280.60 598.63 278.54 597.07 C 282.48 591.04 284.83 584.25 284.32 576.98 C 283.96 570.94 281.64 565.50 278.47 560.44 C 280.22 558.73 281.92 556.99 283.77 555.38 Z" fill="#ffffff" />
<path d="M 278.47 560.44 C 281.64 565.50 283.96 570.94 284.32 576.98 C 284.83 584.25 282.48 591.04 278.54 597.07 C 274.97 594.38 271.38 591.72 267.82 589.00 C 269.32 585.74 270.75 582.70 270.68 579.00 C 270.73 575.59 269.58 572.71 268.41 569.60 C 271.87 566.64 275.22 563.62 278.47 560.44 Z" fill="#65ca84" />
<path d="M 641.50 561.81 C 650.34 560.24 659.53 561.65 666.82 567.11 C 670.88 570.29 674.76 574.30 677.06 578.96 C 681.06 587.02 681.39 596.83 678.11 605.19 C 675.66 611.28 671.11 616.05 665.84 619.83 C 658.19 625.08 647.91 626.52 639.04 623.96 C 633.60 622.46 628.64 619.29 624.64 615.36 C 617.65 608.65 614.64 598.01 616.00 588.55 C 617.72 575.44 628.57 564.28 641.50 561.81 Z" fill="#2c2935" />
<path d="M 751.91 567.89 C 756.72 572.12 760.87 577.05 765.46 581.53 C 775.74 592.45 786.17 603.23 796.57 614.04 C 796.65 600.06 796.54 586.07 796.63 572.09 C 799.86 571.98 803.08 571.99 806.31 572.12 C 806.28 593.92 806.43 615.74 806.24 637.54 C 791.02 622.55 776.75 606.62 761.62 591.55 C 761.49 605.59 761.60 619.63 761.56 633.66 C 758.34 633.72 755.12 633.73 751.90 633.69 C 751.75 611.77 751.74 589.82 751.91 567.89 Z" fill="#2c2935" />
<path d="M 382.94 571.37 C 390.61 572.71 397.59 577.48 402.12 583.75 C 399.91 585.94 397.65 588.06 395.30 590.09 C 390.66 584.68 385.51 580.36 378.00 580.20 C 368.51 579.47 359.63 585.34 356.01 594.01 C 354.31 597.98 354.23 602.72 354.70 606.95 C 355.99 616.36 364.66 624.35 373.96 625.57 C 383.29 626.86 392.85 620.05 394.24 610.66 C 389.21 610.60 384.17 610.62 379.13 610.61 C 378.87 607.48 378.87 604.48 379.13 601.36 C 387.69 601.33 396.26 601.31 404.82 601.38 C 404.73 605.65 404.80 609.80 403.78 613.96 C 402.02 621.79 396.08 628.55 388.96 632.05 C 383.34 634.79 377.33 635.09 371.20 634.47 C 362.99 633.42 355.67 628.77 350.81 622.14 C 344.96 614.56 343.21 604.57 345.36 595.32 C 346.80 588.64 350.95 582.54 356.10 578.15 C 363.42 571.93 373.56 569.52 382.94 571.37 Z" fill="#2c2935" />
<path d="M 585.69 575.20 C 585.75 579.07 585.72 582.93 585.62 586.79 C 580.35 582.83 574.85 579.80 568.03 580.19 C 556.06 580.32 546.61 591.31 546.90 603.03 C 546.53 615.14 556.79 625.92 569.00 625.68 C 575.75 625.92 580.52 622.51 585.63 618.64 C 585.74 622.58 585.75 626.52 585.69 630.46 C 573.40 637.00 557.82 636.36 547.38 626.65 C 536.16 617.17 534.09 599.65 541.20 587.16 C 545.90 579.31 553.31 573.23 562.44 571.50 C 570.47 569.67 578.53 571.31 585.69 575.20 Z" fill="#2c2935" />
<path d="M 642.55 570.94 C 646.54 570.01 650.93 570.10 654.85 571.29 C 662.73 573.78 668.74 580.83 670.04 588.98 C 671.75 598.13 667.59 607.82 659.59 612.65 C 651.75 617.35 641.14 616.77 634.05 610.90 C 627.17 605.52 624.33 596.47 626.13 588.02 C 627.88 579.74 634.34 573.00 642.55 570.94 Z" fill="#65ca84" />
<path d="M 437.20 572.22 C 440.26 571.76 443.56 571.96 446.65 572.07 C 446.76 592.60 446.73 613.15 446.67 633.68 C 443.47 633.72 440.28 633.72 437.08 633.69 C 436.85 615.47 437.24 597.23 436.96 579.00 C 436.94 576.76 436.91 574.45 437.20 572.22 Z" fill="#2c2935" />
<path d="M 475.77 572.21 C 477.82 571.91 479.94 571.92 482.00 571.90 C 492.44 571.96 502.88 571.91 513.32 571.93 C 513.36 575.08 513.37 578.22 513.34 581.37 C 508.65 581.35 503.96 581.36 499.27 581.39 C 499.25 598.82 499.29 616.26 499.25 633.69 C 496.08 633.71 492.90 633.72 489.72 633.72 C 489.62 616.27 489.73 598.83 489.66 581.39 C 485.01 581.35 480.36 581.35 475.71 581.37 C 475.64 578.34 475.47 575.23 475.77 572.21 Z" fill="#2c2935" />
<path d="M 706.74 572.15 C 710.07 571.95 713.34 571.91 716.67 572.05 C 716.74 592.59 716.77 613.13 716.66 633.67 C 713.50 633.73 710.24 633.89 707.09 633.54 C 706.83 632.40 706.70 631.23 706.70 630.03 C 706.78 610.74 706.72 591.44 706.74 572.15 Z" fill="#2c2935" />
<path d="M 255.93 572.85 C 258.81 573.98 259.35 576.42 260.60 578.94 C 259.37 581.38 258.64 583.75 255.87 584.85 C 251.99 586.54 247.02 583.29 247.27 578.99 C 246.90 574.48 251.81 571.12 255.93 572.85 Z" fill="#ffffff" />
<path d="M 452.60 741.73 L 454.54 741.72 C 454.56 748.04 454.55 754.36 454.55 760.68 C 453.89 760.68 453.24 760.67 452.59 760.67 C 452.60 754.36 452.59 748.05 452.60 741.73 Z" fill="#2c2935" />
<path d="M 458.51 741.75 L 460.45 741.70 C 460.46 748.01 460.45 754.33 460.46 760.64 L 458.51 760.71 C 458.51 754.39 458.50 748.07 458.51 741.75 Z" fill="#2c2935" />
<path d="M 531.53 742.02 C 532.17 742.02 532.81 742.02 533.45 742.03 C 533.32 748.54 533.73 755.11 533.16 761.60 C 532.69 760.61 532.23 759.61 531.79 758.61 C 530.36 760.20 529.78 762.12 527.47 760.50 C 525.93 758.63 526.34 755.25 526.24 752.98 C 526.38 751.05 526.09 748.09 527.79 746.75 C 529.39 746.01 530.33 747.18 531.77 747.77 C 531.66 745.86 531.59 743.94 531.53 742.02 Z" fill="#2c2935" />
<path d="M 446.60 742.64 L 448.52 742.81 C 448.77 748.76 448.56 754.74 448.62 760.71 C 447.94 760.69 447.26 760.67 446.58 760.65 C 446.60 754.65 446.59 748.64 446.60 742.64 Z" fill="#2c2935" />
<path d="M 487.04 742.69 C 487.10 743.91 487.13 745.14 487.16 746.37 C 487.96 746.91 488.75 747.49 489.51 748.12 L 487.14 748.55 C 487.15 752.01 487.14 755.46 487.19 758.92 C 488.12 759.41 489.05 759.90 489.98 760.39 C 488.45 760.60 485.96 761.85 485.51 759.55 C 484.93 756.31 485.29 752.85 485.27 749.56 C 484.84 748.93 484.41 748.29 483.99 747.66 C 485.09 746.05 486.09 744.39 487.04 742.69 Z" fill="#2c2935" />
<path d="M 541.83 742.59 C 543.58 742.84 545.94 742.58 547.45 743.58 C 549.55 745.92 548.75 748.91 547.42 751.42 C 549.36 753.82 549.68 756.50 548.30 759.28 C 547.02 761.11 543.82 760.49 541.83 760.79 C 541.81 754.73 541.82 748.66 541.83 742.59 Z" fill="#2c2935" />
<path d="M 511.23 742.73 C 511.32 743.97 511.41 745.21 511.51 746.44 C 512.26 746.94 513.03 747.37 513.84 747.71 L 511.64 748.90 C 511.34 752.12 511.28 755.58 511.71 758.80 L 514.27 760.48 C 513.14 760.54 510.27 761.67 509.96 759.87 C 509.21 757.06 509.71 753.84 509.57 750.94 C 509.62 749.11 509.36 748.90 508.08 747.61 C 509.47 746.17 510.40 744.53 511.23 742.73 Z" fill="#2c2935" />
<path d="M 543.95 744.22 C 547.50 744.17 547.00 747.02 546.61 749.65 C 545.94 750.43 544.79 750.79 543.89 751.25 C 543.84 748.92 543.76 746.55 543.95 744.22 Z" fill="#ffffff" />
<path d="M 496.22 745.85 C 496.36 746.53 496.49 747.21 496.63 747.89 C 495.88 748.37 495.15 748.88 494.44 749.41 C 493.30 752.86 493.98 757.11 493.82 760.74 L 491.85 760.61 C 491.90 755.81 491.82 751.00 491.98 746.20 C 492.50 747.02 493.05 747.83 493.63 748.60 C 494.48 747.67 495.34 746.76 496.22 745.85 Z" fill="#2c2935" />
<path d="M 505.03 748.03 C 506.15 752.04 505.41 756.75 505.57 760.92 L 503.77 760.22 C 503.28 757.40 504.05 755.09 501.96 752.71 C 500.56 755.05 500.61 756.94 500.83 759.54 L 502.28 758.91 C 502.53 759.71 502.78 760.50 503.02 761.30 C 501.82 761.08 500.66 760.75 499.55 760.32 C 498.40 758.36 498.52 755.36 499.34 753.30 C 500.14 751.77 502.63 752.59 504.01 752.45 C 503.50 750.92 503.93 748.76 502.25 748.06 C 500.97 748.44 499.71 748.85 498.45 749.30 C 499.79 746.62 503.09 745.08 505.03 748.03 Z" fill="#2c2935" />
<path d="M 464.28 746.82 L 466.20 746.87 C 466.21 750.25 466.07 753.64 466.24 757.01 C 466.40 758.81 466.63 760.70 468.78 758.85 C 469.78 755.09 469.10 750.72 469.26 746.83 L 471.19 746.89 C 471.20 751.71 471.23 756.54 471.13 761.36 L 469.73 759.69 C 468.23 760.97 465.52 761.92 464.63 759.51 C 463.88 755.40 464.40 750.99 464.28 746.82 Z" fill="#2c2935" />
<path d="M 477.96 746.47 C 481.28 746.43 480.98 748.30 481.64 750.89 C 480.48 750.04 479.45 749.00 478.56 747.78 C 476.73 748.76 476.80 748.99 476.77 751.00 C 478.48 753.60 481.95 754.28 481.62 757.85 C 481.71 761.03 478.00 761.97 475.83 760.22 C 475.27 759.18 474.77 758.11 474.33 757.02 L 476.03 756.53 C 476.95 758.31 476.75 759.46 479.12 759.64 C 480.89 756.22 478.43 755.63 476.40 753.51 C 474.02 751.81 474.37 746.33 477.96 746.47 Z" fill="#2c2935" />
<path d="M 522.58 748.40 C 523.10 750.37 523.03 752.53 523.14 754.56 C 521.27 754.58 519.40 754.59 517.53 754.61 C 517.86 756.39 517.90 758.03 518.82 759.63 C 520.55 759.05 521.58 757.30 523.29 756.57 C 522.83 757.82 522.58 759.59 521.59 760.56 C 519.63 761.40 516.92 761.24 516.29 758.80 C 515.61 755.72 515.66 752.23 516.18 749.12 C 516.64 745.95 521.44 745.46 522.58 748.40 Z" fill="#2c2935" />
<path d="M 551.25 746.63 L 552.83 746.96 C 554.18 750.06 554.50 753.67 555.28 756.95 C 556.00 753.75 556.33 750.36 557.40 747.25 L 559.23 746.42 C 558.23 751.62 557.04 756.80 555.88 761.97 C 555.41 763.56 555.06 765.62 552.99 765.67 C 551.38 765.73 551.25 764.64 550.45 763.59 C 552.67 763.79 553.76 764.69 554.38 762.00 C 554.25 756.86 551.89 751.76 551.25 746.63 Z" fill="#2c2935" />
<path d="M 518.86 747.41 C 521.29 748.70 520.86 750.59 521.33 752.94 C 520.06 752.94 518.79 752.93 517.52 752.90 C 517.87 751.05 518.26 749.21 518.86 747.41 Z" fill="#ffffff" />
<path d="M 530.07 747.42 C 531.78 750.74 532.41 756.47 530.15 759.57 C 527.98 759.98 528.46 757.43 528.15 756.05 C 528.30 753.34 527.25 748.99 530.07 747.42 Z" fill="#ffffff" />
<path d="M 543.87 751.77 C 544.71 752.05 545.53 752.36 546.35 752.70 C 547.64 754.10 546.88 756.88 546.88 758.65 C 545.88 758.82 544.87 759.05 543.87 759.34 C 543.86 756.81 543.85 754.29 543.87 751.77 Z" fill="#ffffff" />
<path d="M 401.29 774.03 C 404.41 774.16 408.25 773.58 411.14 774.89 C 413.91 776.40 413.36 780.34 413.53 783.00 C 413.34 786.04 414.10 790.63 412.08 793.10 C 409.61 795.48 404.47 794.54 401.29 794.74 C 401.29 787.84 401.29 780.93 401.29 774.03 Z" fill="#2c2935" />
<path d="M 454.75 774.56 C 456.14 774.55 457.53 774.55 458.92 774.55 C 458.92 775.51 458.91 776.47 458.90 777.44 C 457.51 777.43 456.13 777.43 454.74 777.42 C 454.74 776.47 454.75 775.51 454.75 774.56 Z" fill="#2c2935" />
<path d="M 485.65 774.02 C 488.57 774.07 491.72 773.78 494.57 774.49 C 496.32 775.01 497.39 776.39 497.62 778.18 C 498.04 782.04 497.97 786.07 497.69 789.94 C 497.53 791.80 496.73 793.40 494.94 794.13 C 492.04 795.03 488.67 794.67 485.66 794.74 C 485.66 787.83 485.67 780.92 485.65 774.02 Z" fill="#2c2935" />
<path d="M 526.91 774.72 C 528.20 774.54 529.52 774.50 530.82 774.42 C 530.84 775.43 530.86 776.43 530.86 777.44 C 529.40 777.43 527.93 777.42 526.47 777.41 C 526.58 776.51 526.73 775.61 526.91 774.72 Z" fill="#2c2935" />
<path d="M 444.81 775.46 C 446.11 775.45 447.42 775.44 448.73 775.43 C 449.10 777.87 447.95 779.64 450.98 780.52 C 450.97 781.23 450.95 781.94 450.94 782.65 L 448.83 782.70 C 448.84 785.54 448.84 788.38 448.86 791.23 C 449.68 791.37 450.49 791.52 451.31 791.66 C 451.30 792.74 451.28 793.83 451.27 794.91 C 449.44 794.68 446.61 795.23 445.29 793.68 C 444.14 790.54 444.82 786.61 444.57 783.28 L 443.29 782.02 C 443.98 779.82 444.72 777.80 444.81 775.46 Z" fill="#2c2935" />
<path d="M 536.44 775.45 C 537.46 774.20 540.31 774.76 541.77 774.43 C 541.53 776.68 540.58 777.78 539.04 779.28 C 540.01 779.71 540.99 780.13 541.96 780.56 C 541.37 781.83 540.86 782.53 539.67 783.32 C 539.54 787.12 539.60 790.94 539.59 794.74 C 538.21 794.73 536.82 794.72 535.44 794.71 C 535.46 791.05 535.49 787.40 535.37 783.74 C 534.89 783.09 534.45 782.42 534.04 781.73 C 534.64 779.61 535.54 777.45 536.44 775.45 Z" fill="#2c2935" />
<path d="M 596.60 775.44 C 597.92 775.44 599.23 775.44 600.55 775.44 C 600.91 777.93 599.75 779.58 602.78 780.52 C 602.78 781.23 602.78 781.93 602.77 782.63 L 600.65 782.71 C 600.66 785.46 600.50 788.27 600.87 791.00 L 603.08 791.90 C 603.09 792.90 603.10 793.90 603.11 794.90 C 601.23 794.65 597.80 795.34 596.88 793.18 C 596.13 790.18 596.55 786.81 596.41 783.73 C 595.86 782.78 595.32 781.83 594.80 780.86 C 596.79 779.33 596.38 777.66 596.60 775.44 Z" fill="#2c2935" />
<path d="M 490.34 776.71 C 491.25 777.11 492.13 777.56 492.99 778.05 C 493.31 782.20 493.41 786.67 492.89 790.80 C 492.06 791.25 491.21 791.66 490.34 792.02 C 490.16 786.93 490.17 781.81 490.34 776.71 Z" fill="#ffffff" />
<path d="M 405.89 776.74 C 406.99 777.07 407.88 777.56 408.56 778.23 C 408.95 782.14 409.01 786.72 408.52 790.62 C 407.85 791.24 406.98 791.69 405.88 791.98 C 405.81 786.90 405.81 781.82 405.89 776.74 Z" fill="#ffffff" />
<path d="M 417.38 779.96 C 418.77 779.96 420.15 779.95 421.53 779.95 C 421.53 784.18 421.45 788.37 421.67 792.61 L 423.44 791.67 C 423.90 787.81 423.57 783.84 423.64 779.95 C 425.01 779.95 426.39 779.94 427.76 779.94 C 427.76 784.90 427.76 789.86 427.76 794.82 C 426.17 794.69 424.58 794.56 422.99 794.42 C 421.09 794.56 418.45 795.83 417.70 793.26 C 416.97 788.95 417.54 784.34 417.38 779.96 Z" fill="#2c2935" />
<path d="M 436.02 779.68 C 438.68 779.63 439.47 781.46 441.06 783.16 C 440.28 783.62 439.50 784.07 438.73 784.52 C 437.34 783.56 436.35 782.70 434.54 782.69 C 436.27 785.22 438.84 786.98 440.62 789.43 C 441.80 792.19 439.82 794.75 436.97 794.95 C 433.89 795.35 432.63 793.57 430.83 791.53 C 431.69 791.10 432.55 790.66 433.41 790.23 C 434.24 790.71 437.57 794.02 437.10 791.05 C 435.47 788.96 432.79 787.41 431.57 785.07 C 430.78 782.02 433.06 779.74 436.02 779.68 Z" fill="#2c2935" />
<path d="M 454.77 779.96 C 456.14 779.95 457.52 779.95 458.90 779.94 C 458.91 784.87 458.90 789.79 458.92 794.72 C 457.54 794.72 456.15 794.72 454.77 794.72 C 454.76 789.80 454.77 784.88 454.77 779.96 Z" fill="#2c2935" />
<path d="M 463.05 779.75 C 464.60 779.97 466.14 780.22 467.68 780.49 C 469.03 780.24 470.56 779.57 471.92 779.89 C 473.41 780.84 473.35 782.44 473.45 784.00 C 473.52 787.57 473.42 791.15 473.45 794.72 C 472.07 794.72 470.70 794.72 469.32 794.73 C 469.32 790.53 469.39 786.36 469.17 782.16 L 467.35 783.29 C 466.89 787.05 467.23 790.93 467.17 794.72 C 465.79 794.72 464.41 794.72 463.03 794.72 C 463.05 789.73 463.03 784.74 463.05 779.75 Z" fill="#2c2935" />
<path d="M 501.95 779.83 C 504.09 780.28 505.92 779.05 506.40 781.88 C 507.43 780.87 508.49 780.06 509.71 779.29 C 509.82 780.66 509.93 782.03 510.02 783.41 C 508.95 783.84 506.73 783.86 506.26 785.09 C 505.92 788.26 506.14 791.52 506.13 794.71 C 504.73 794.72 503.34 794.72 501.94 794.72 C 501.95 789.76 501.94 784.79 501.95 779.83 Z" fill="#2c2935" />
<path d="M 522.28 781.76 C 523.00 783.52 522.85 785.68 523.02 787.56 C 521.00 787.58 518.97 787.58 516.94 787.59 C 516.94 788.98 516.94 790.36 516.94 791.75 L 519.03 791.84 C 519.06 790.90 519.10 789.95 519.13 789.00 C 520.49 789.04 521.85 789.09 523.22 789.13 C 522.74 790.75 522.79 793.26 521.16 794.18 C 518.66 795.67 513.95 795.21 513.16 791.88 C 512.63 789.07 512.67 785.88 513.10 783.07 C 513.72 779.08 520.46 778.53 522.28 781.76 Z" fill="#2c2935" />
<path d="M 526.72 779.96 C 528.10 779.96 529.47 779.96 530.85 779.95 C 530.85 784.88 530.85 789.81 530.85 794.75 C 529.47 794.73 528.09 794.72 526.71 794.71 C 526.71 789.80 526.70 784.88 526.72 779.96 Z" fill="#2c2935" />
<path d="M 544.43 779.95 C 545.81 779.95 547.18 779.95 548.56 779.95 C 548.56 784.18 548.49 788.36 548.71 792.60 L 550.47 791.69 C 550.94 787.83 550.60 783.84 550.67 779.95 C 552.05 779.94 553.43 779.94 554.80 779.95 C 554.79 784.92 554.81 789.88 554.78 794.85 C 553.19 794.70 551.60 794.54 550.01 794.39 C 547.95 794.54 545.71 795.93 544.71 793.26 C 544.03 788.93 544.55 784.34 544.43 779.95 Z" fill="#2c2935" />
<path d="M 568.18 781.99 C 568.68 783.77 568.65 785.74 568.81 787.57 C 566.74 787.59 564.68 787.58 562.61 787.59 C 562.72 789.23 562.85 790.87 562.99 792.51 C 564.61 791.54 564.73 790.78 565.22 789.06 C 566.46 789.07 567.70 789.09 568.94 789.11 C 568.38 791.18 568.69 793.37 566.48 794.45 C 564.14 795.41 560.58 795.21 559.22 792.74 C 558.37 790.71 558.58 788.15 558.57 785.98 C 558.70 784.01 558.65 781.75 560.50 780.55 C 562.77 779.16 566.89 779.29 568.18 781.99 Z" fill="#2c2935" />
<path d="M 572.50 779.98 C 573.74 779.96 574.98 779.94 576.22 779.92 C 576.52 780.37 576.82 780.82 577.12 781.26 C 578.19 780.62 579.27 780.01 580.36 779.41 C 580.42 780.73 580.48 782.05 580.54 783.36 C 579.38 783.82 577.63 783.92 576.81 784.91 C 576.39 788.13 576.70 791.48 576.66 794.73 C 575.27 794.73 573.88 794.72 572.49 794.70 C 572.50 789.79 572.50 784.89 572.50 779.98 Z" fill="#2c2935" />
<path d="M 588.01 779.68 C 590.56 779.73 591.38 781.52 592.90 783.19 C 592.06 783.61 591.22 784.03 590.37 784.45 C 589.14 783.45 587.80 782.82 586.36 782.57 C 588.00 785.26 590.72 786.96 592.49 789.50 C 593.67 792.65 591.12 795.13 588.02 794.99 C 585.33 795.04 584.29 793.30 582.64 791.57 C 583.51 791.12 584.37 790.67 585.23 790.22 C 586.57 791.30 587.73 792.00 589.42 792.44 C 588.13 789.44 585.38 788.03 583.58 785.48 C 582.30 782.33 584.82 779.58 588.01 779.68 Z" fill="#2c2935" />
<path d="M 563.21 782.68 C 565.07 782.19 564.56 784.47 565.14 785.62 C 564.23 785.63 563.32 785.63 562.41 785.63 C 562.66 784.65 562.87 783.64 563.21 782.68 Z" fill="#ffffff" />
<path d="M 517.30 782.92 C 519.01 781.84 519.77 784.52 518.73 785.60 C 517.02 786.67 516.27 784.00 517.30 782.92 Z" fill="#ffffff" />
<path d="M 513.05 872.22 C 512.39 873.17 511.68 874.09 510.97 875.01 C 510.39 879.04 510.45 882.99 510.96 887.02 C 511.71 887.97 512.46 888.92 513.18 889.89 C 511.75 889.16 510.17 889.09 509.76 887.28 C 508.86 883.92 508.85 878.07 509.74 874.72 C 510.16 872.96 511.64 872.89 513.05 872.22 Z" fill="#2c2935" />
<path d="M 519.97 872.41 C 521.57 872.79 522.71 872.93 523.23 874.72 C 524.28 879.43 524.23 884.79 522.42 889.33 C 521.52 889.34 520.62 889.35 519.72 889.35 C 520.52 888.60 521.30 887.85 522.08 887.09 C 522.48 883.06 522.57 879.07 522.01 875.04 C 521.31 874.17 520.61 873.32 519.97 872.41 Z" fill="#2c2935" />
<path d="M 456.98 875.90 C 456.67 876.60 456.37 877.31 456.07 878.01 C 455.31 876.89 454.55 875.77 453.78 874.65 C 452.29 878.70 452.21 883.38 453.79 887.41 C 454.69 886.14 455.59 884.88 456.49 883.62 C 456.49 884.58 456.54 885.52 456.40 886.46 C 455.31 888.64 451.77 888.15 451.53 885.59 C 451.16 882.40 451.02 878.89 451.71 875.73 C 453.21 873.08 455.23 874.46 456.98 875.90 Z" fill="#2c2935" />
<path d="M 484.09 873.81 C 485.82 872.60 486.87 875.39 484.89 875.81 C 483.80 875.50 483.53 874.83 484.09 873.81 Z" fill="#2c2935" />
<path d="M 495.19 873.06 C 496.16 874.49 496.24 875.83 496.38 877.51 C 498.12 877.53 499.55 876.76 499.89 879.05 C 500.17 881.87 500.91 885.97 498.95 888.31 C 498.61 885.24 498.96 882.04 498.39 879.02 L 496.83 877.95 C 496.12 881.20 497.14 885.47 495.35 888.33 C 494.71 883.29 494.80 878.13 495.19 873.06 Z" fill="#2c2935" />
<path d="M 519.74 875.91 C 519.48 876.62 519.22 877.33 518.97 878.04 C 518.25 876.94 517.51 875.85 516.77 874.76 C 514.96 878.04 514.85 884.08 516.83 887.29 C 517.67 886.02 518.53 884.76 519.39 883.50 C 519.29 884.98 519.55 886.28 518.44 887.48 C 516.75 888.14 514.69 887.86 514.36 885.77 C 513.94 882.47 513.76 878.72 514.60 875.49 C 516.24 873.18 518.07 874.50 519.74 875.91 Z" fill="#2c2935" />
<path d="M 534.09 876.00 C 534.94 879.48 531.42 883.40 529.73 886.23 C 531.55 886.37 533.27 886.30 534.89 887.27 C 532.69 887.47 530.49 887.54 528.27 887.53 C 528.81 885.75 529.41 884.03 530.42 882.45 C 531.63 880.15 533.53 878.35 532.40 875.55 C 530.65 874.80 529.72 877.58 528.57 878.52 C 528.75 877.10 529.15 875.80 529.75 874.61 C 531.45 874.08 533.44 873.94 534.09 876.00 Z" fill="#2c2935" />
<path d="M 537.48 874.52 C 538.97 874.13 540.59 874.03 541.42 875.60 C 542.08 877.96 541.91 880.62 541.88 883.05 C 541.71 884.68 541.96 886.38 540.53 887.50 C 539.17 888.04 537.32 887.97 536.55 886.53 C 535.84 884.15 536.03 881.42 536.05 878.95 C 536.23 877.33 535.98 875.56 537.48 874.52 Z" fill="#2c2935" />
<path d="M 549.51 874.55 C 550.94 874.06 552.58 874.04 553.46 875.46 C 554.03 877.05 553.49 879.08 553.30 880.73 C 553.73 883.08 554.66 885.03 553.21 887.25 C 551.66 887.99 550.36 888.02 548.85 887.17 C 547.55 884.88 548.40 882.96 548.90 880.61 C 548.68 878.61 547.65 876.07 549.51 874.55 Z" fill="#2c2935" />
<path d="M 503.34 874.44 C 503.83 875.72 504.31 877.00 504.78 878.29 C 504.46 878.75 504.15 879.20 503.84 879.65 C 503.86 881.69 503.88 883.73 503.90 885.77 C 504.48 886.60 505.05 887.44 505.63 888.28 C 504.59 887.97 503.66 887.56 502.83 887.03 C 502.25 882.96 501.87 878.37 503.34 874.44 Z" fill="#2c2935" />
<path d="M 542.65 875.20 C 543.75 874.93 544.85 874.67 545.95 874.42 C 545.95 878.80 545.96 883.19 545.93 887.58 L 544.54 887.58 C 544.52 883.96 544.61 880.33 544.48 876.72 C 543.87 876.21 543.26 875.70 542.65 875.20 Z" fill="#2c2935" />
<path d="M 537.83 875.81 L 540.17 875.47 C 540.43 878.29 540.57 881.19 540.39 884.02 C 540.41 885.38 539.97 886.32 539.08 886.84 L 537.86 886.16 C 537.25 882.79 537.34 879.19 537.83 875.81 Z" fill="#ffffff" />
<path d="M 549.87 875.82 L 552.23 875.34 C 552.29 877.12 552.31 878.90 552.28 880.69 C 549.14 879.85 549.80 878.53 549.87 875.82 Z" fill="#ffffff" />
<path d="M 459.46 877.49 C 461.03 877.08 462.46 876.97 463.14 878.75 C 463.68 880.84 463.69 884.10 463.17 886.20 C 462.55 888.59 458.74 888.29 458.47 885.83 C 458.26 883.42 457.62 879.40 459.46 877.49 Z" fill="#2c2935" />
<path d="M 465.69 878.02 C 467.11 877.26 468.76 877.06 470.23 877.81 C 470.99 880.47 471.01 883.83 470.41 886.52 C 470.11 888.19 468.11 887.51 466.97 887.44 C 466.88 888.83 466.76 890.22 466.62 891.61 C 466.31 891.08 466.02 890.54 465.73 889.99 C 465.46 886.11 465.50 881.91 465.69 878.02 Z" fill="#2c2935" />
<path d="M 472.18 877.75 L 473.27 877.20 C 473.92 879.70 474.44 882.25 474.99 884.78 C 475.81 882.53 475.33 878.22 477.79 876.94 C 476.94 881.48 476.28 886.32 474.60 890.62 C 473.15 891.72 472.37 890.55 470.91 890.05 C 472.05 889.93 473.19 889.82 474.33 889.71 C 474.36 885.52 472.81 881.80 472.18 877.75 Z" fill="#2c2935" />
<path d="M 479.45 877.93 C 480.74 877.58 482.08 877.41 483.40 877.19 C 482.61 878.13 481.60 879.01 481.05 880.11 C 480.61 882.52 480.79 885.08 480.77 887.54 L 479.43 887.60 C 479.42 884.39 479.23 881.14 479.45 877.93 Z" fill="#2c2935" />
<path d="M 484.35 877.72 L 485.53 877.24 C 485.68 880.68 485.59 884.14 485.58 887.58 L 484.22 887.57 C 484.23 884.30 484.00 880.97 484.35 877.72 Z" fill="#2c2935" />
<path d="M 493.82 877.40 C 493.06 879.61 492.65 881.94 492.30 884.24 C 491.18 884.36 490.06 884.51 488.95 884.69 L 488.94 886.13 C 490.56 886.63 493.84 886.41 493.37 888.97 C 493.62 891.87 489.13 891.54 487.50 890.49 C 487.07 888.05 488.17 885.51 487.89 882.99 C 487.98 881.34 487.31 878.85 488.65 877.63 C 490.27 877.17 492.14 877.44 493.82 877.40 Z" fill="#2c2935" />
<path d="M 461.05 877.50 C 462.52 881.27 462.47 883.75 461.07 887.53 C 459.03 884.48 459.05 880.57 461.05 877.50 Z" fill="#ffffff" />
<path d="M 467.84 877.55 C 470.20 879.99 470.11 885.05 467.85 887.52 C 466.66 883.73 466.70 881.34 467.84 877.55 Z" fill="#ffffff" />
<path d="M 490.05 877.49 C 492.01 880.18 492.07 881.67 489.99 884.29 C 489.57 883.22 489.23 882.12 488.96 881.00 C 489.25 879.81 489.61 878.64 490.05 877.49 Z" fill="#ffffff" />
<path d="M 549.55 881.34 L 552.28 881.77 C 552.82 884.28 552.85 885.37 551.02 887.35 C 549.30 885.53 549.69 883.61 549.55 881.34 Z" fill="#ffffff" />
<path d="M 488.91 888.11 C 489.98 887.10 492.77 887.83 491.69 889.57 C 490.62 890.54 487.76 889.85 488.91 888.11 Z" fill="#ffffff" /></svg>