<svg xmlns="http://www.w3.org/2000/svg" viewBox="0 0 64.28 71.11"><defs><style>.cls-1{fill:#82c672;stroke:#00954a;stroke-miterlimit:10;stroke-width:2px;}</style></defs><g id="Layer_1" data-name="Layer 1"><polygon class="cls-1" points="38.44 64.2 62.03 7.96 52.4 69.72 38.44 64.2"/><path class="cls-1" d="M191.87,100.71a4.64,4.64,0,0,1,7.8,2.53" transform="translate(-148.58 -42.18)"/><path class="cls-1" d="M195.24,93.63a4.27,4.27,0,0,1,2.81-.13,5,5,0,0,1,2.54,1.92" transform="translate(-148.58 -42.18)"/><path class="cls-1" d="M198.35,89.26a1.39,1.39,0,0,1,2.63.61" transform="translate(-148.58 -42.18)"/><polygon class="cls-1" points="25.84 64.2 2.25 7.96 11.88 69.72 25.84 64.2"/><path class="cls-1" d="M169.57,100.71a4.64,4.64,0,0,0-7.79,2.53" transform="translate(-148.58 -42.18)"/><path class="cls-1" d="M166.21,93.63a4.28,4.28,0,0,0-2.81-.13,5,5,0,0,0-2.54,1.92" transform="translate(-148.58 -42.18)"/><path class="cls-1" d="M163.09,89.26a1.41,1.41,0,0,0-1.61-.71,1.43,1.43,0,0,0-1,1.32" transform="translate(-148.58 -42.18)"/></g></svg>