<svg id="Layer_1" data-name="Layer 1" xmlns="http://www.w3.org/2000/svg" viewBox="0 0 350 350">
  <defs>
    <style>
      .cls-1 {
        fill: #83c774;
        stroke: #059549;
        stroke-miterlimit: 10;
        stroke-width: 2px;
      }
    </style>
  </defs>
  <g id="Horn_2">
    <polygon class="cls-1" points="184.49 114.9 214.53 43.27 202.27 121.93 184.49 114.9"/>
    <path class="cls-1" d="M190.66,107.68a5.92,5.92,0,0,1,9.94,3.22"/>
    <path class="cls-1" d="M195,98.66a5.43,5.43,0,0,1,3.58-.17,6.4,6.4,0,0,1,3.23,2.45"/>
    <path class="cls-1" d="M198.92,93.1a1.77,1.77,0,0,1,3.35.77"/>
    <polygon class="cls-1" points="168.44 114.9 138.4 43.27 150.66 121.93 168.44 114.9"/>
    <path class="cls-1" d="M162.27,107.68a5.92,5.92,0,0,0-9.93,3.22"/>
    <path class="cls-1" d="M158,98.66a5.5,5.5,0,0,0-3.58-.17,6.43,6.43,0,0,0-3.24,2.45"/>
    <path class="cls-1" d="M154,93.1a1.75,1.75,0,0,0-3.32.77"/>
  </g>
</svg>
