<?xml version="1.0" encoding="UTF-8" standalone="no"?>
<!DOCTYPE svg PUBLIC "-//W3C//DTD SVG 1.1//EN" "http://www.w3.org/Graphics/SVG/1.1/DTD/svg11.dtd">
<svg width="100%" height="100%" viewBox="0 0 1200 1200" version="1.1" xmlns="http://www.w3.org/2000/svg" xmlns:xlink="http://www.w3.org/1999/xlink" xml:space="preserve" xmlns:serif="http://www.serif.com/" style="fill-rule:evenodd;clip-rule:evenodd;stroke-linecap:round;stroke-miterlimit:10;">
    <g transform="matrix(1,0,0,1,-2915,-3960)">
        <g id="Bufficorn_Main" transform="matrix(1.5873,0,0,1.42857,2908.65,3961.43)">
            <rect x="4" y="-1" width="756" height="840" style="fill:none;"/>
            <clipPath id="_clip1">
                <rect x="4" y="-1" width="756" height="840"/>
            </clipPath>
            <g clip-path="url(#_clip1)">
                <g transform="matrix(0.39375,0,0,0.805571,4,-30.8674)">
                    <g id="Background">
                        <rect x="0" y="37.076" width="1920" height="1042.74" style="fill:rgb(239,244,238);"/>
                    </g>
                </g>
                <g id="Smoke" transform="matrix(0.63,0,0,0.7,-1832.45,-2773)">
                    <g transform="matrix(-2,0,0,2,3206.66,4971.39)">
                        <path d="M-308.341,0L0,0" style="fill:none;stroke:rgb(21,0,62);stroke-width:6px;"/>
                    </g>
                    <g transform="matrix(2,0,0,2,3408.69,4751.81)">
                        <path d="M-25.563,0.17C-26.594,0.058 -27.642,0 -28.703,0C-44.555,0 -57.406,12.851 -57.406,28.703" style="fill:rgb(239,244,238);fill-rule:nonzero;stroke:rgb(37,232,153);stroke-width:7px;"/>
                    </g>
                    <g transform="matrix(2,0,0,2,3293.87,4883.57)">
                        <path d="M0,-37.174C-10.265,-37.174 -18.587,-28.852 -18.587,-18.587C-18.587,-8.321 -10.265,0 0,0C10.265,0 18.587,-8.321 18.587,-18.587" style="fill:rgb(239,244,238);fill-rule:nonzero;stroke:rgb(37,232,153);stroke-width:7px;"/>
                    </g>
                    <g transform="matrix(2,0,0,2,3656.32,4887.19)">
                        <path d="M0,-31.87C-2.755,-27.198 -4.336,-21.751 -4.336,-15.935C-4.336,1.414 9.729,15.479 27.078,15.479C44.427,15.479 58.492,1.414 58.492,-15.935C58.492,-33.284 44.427,-47.349 27.078,-47.349C25.912,-47.349 24.761,-47.285 23.628,-47.161" style="fill:rgb(239,244,238);fill-rule:nonzero;stroke:rgb(37,232,153);stroke-width:7px;"/>
                    </g>
                    <g transform="matrix(2,0,0,2,3626.33,4727.03)">
                        <path d="M0,43.382C1.873,49.844 9.897,52.89 17.121,52.89C28.256,52.89 37.283,43.863 37.283,32.728C37.283,24.158 31.935,16.837 24.395,13.918" style="fill:rgb(239,244,238);fill-rule:nonzero;stroke:rgb(37,232,153);stroke-width:7px;"/>
                    </g>
                    <g transform="matrix(2,0,0,2,3435.64,4857.63)">
                        <path d="M-16.626,-23.679C-19.859,-22.879 -22.906,-21.17 -25.359,-18.566C-32.152,-11.354 -31.812,0 -24.599,6.793" style="fill:rgb(239,244,238);fill-rule:nonzero;stroke:rgb(37,232,153);stroke-width:7px;"/>
                    </g>
                    <g transform="matrix(0,-2,-2,0,3529.6,4902.63)">
                        <path d="M-15.707,15.707L5.207,15.707" style="fill:rgb(239,244,238);fill-rule:nonzero;stroke:rgb(37,232,153);stroke-width:7px;"/>
                    </g>
                    <g transform="matrix(2,0,0,2,3206.66,4971.39)">
                        <path d="M0,0L308.341,0L0,0Z" style="fill:rgb(21,0,62);fill-rule:nonzero;"/>
                    </g>
                </g>
                <g id="Artwork" transform="matrix(0.63,0,0,0.7,59.44,60.6)">
                    <g transform="matrix(0.712551,0,0,0.712551,338.079,214.032)">
                        <path d="M0,265.905L0,224.507C0,86.215 112.108,-25.893 250.4,-25.893C388.692,-25.893 500.801,86.215 500.801,224.507L500.801,265.905L441.512,291.798L58.291,288.941L0,265.905Z" style="fill:none;stroke:rgb(21,0,62);stroke-width:16.82px;stroke-linecap:butt;stroke-linejoin:round;"/>
                    </g>
                    <g transform="matrix(0.712551,0,0,0.712551,755.396,417.708)">
                        <path d="M0,0.001C0,5.721 -4.638,10.358 -10.358,10.358C-16.079,10.358 -20.716,5.721 -20.716,0.001C-20.716,-5.72 -16.079,-10.357 -10.358,-10.357C-4.638,-10.357 0,-5.72 0,0.001" style="fill:rgb(255,206,8);fill-rule:nonzero;"/>
                    </g>
                    <g transform="matrix(0,-0.712551,-0.712551,0,748.016,410.328)">
                        <ellipse cx="-10.358" cy="0.001" rx="10.358" ry="10.358" style="fill:none;stroke:rgb(21,0,62);stroke-width:11.23px;stroke-linecap:butt;stroke-linejoin:round;"/>
                    </g>
                    <g transform="matrix(0.712551,0,0,0.712551,756.543,438.295)">
                        <path d="M0,-57.783L-23.935,-57.783L-40.859,-40.859L-40.859,-16.925L-23.935,0L0,0L16.924,-16.925L16.924,-40.859L0,-57.783Z" style="fill:none;stroke:rgb(21,0,62);stroke-width:11.23px;stroke-linecap:butt;stroke-linejoin:round;"/>
                    </g>
                    <g transform="matrix(0.712549,0.00160335,0.00160335,-0.712549,515.008,858.633)">
                        <path d="M0.8,-0.002C0.8,-0.002 -463.208,333.061 -360.999,710.617C-222.795,603.714 -95.866,575.742 0.8,575.959C97.466,576.177 224.342,604.72 362.065,712.244C465.971,335.151 0.8,-0.002 0.8,-0.002Z" style="fill:none;stroke:rgb(21,0,62);stroke-width:16.82px;stroke-linecap:butt;stroke-linejoin:round;"/>
                    </g>
                    <g transform="matrix(0.712551,0,0,0.712551,592.763,582.481)">
                        <path d="M0,153.904L-214.051,153.904C-256.55,153.904 -291.003,119.451 -291.003,76.952C-291.003,34.452 -256.55,0 -214.051,0L0,0C42.499,0 76.952,34.452 76.952,76.952C76.952,119.451 42.499,153.904 0,153.904Z" style="fill:none;stroke:rgb(21,0,62);stroke-width:16.82px;stroke-linecap:butt;stroke-linejoin:round;"/>
                    </g>
                    <g transform="matrix(-0.712551,0,0,0.712551,1228.95,406.412)">
                        <rect x="879.683" y="401.001" width="240.337" height="71.348" style="fill:rgb(17,13,59);stroke:rgb(21,0,62);stroke-width:16.82px;stroke-linecap:butt;stroke-linejoin:round;"/>
                    </g>
                    <g transform="matrix(0.712551,0,0,0.712551,595.914,708.302)">
                        <path d="M0,26C-12.38,26 -12.38,0 -24.76,0C-37.142,0 -37.142,26 -49.523,26C-61.905,26 -61.905,0 -74.287,0C-86.669,0 -86.669,26 -99.053,26C-111.436,26 -111.436,0 -123.82,0C-136.203,0 -136.203,26 -148.586,26C-160.97,26 -160.97,0 -173.354,0C-185.739,0 -185.739,26 -198.125,26C-210.51,26 -210.51,0 -222.896,0" style="fill:none;stroke:rgb(255,205,44);stroke-width:16.82px;stroke-linejoin:round;"/>
                    </g>
                    <g transform="matrix(0,0.712551,0.712551,0,883.221,229.325)">
                        <path d="M-207.175,-207.175L207.175,-207.175" style="fill:none;stroke:rgb(21,0,62);stroke-width:16.82px;stroke-linejoin:round;"/>
                    </g>
                    <g transform="matrix(0,-0.712551,-0.712551,0,407.529,266.824)">
                        <path d="M-154.548,154.548L154.548,154.548" style="fill:none;stroke:rgb(21,0,62);stroke-width:16.82px;stroke-linejoin:round;"/>
                    </g>
                    <g transform="matrix(0,-0.712551,-0.712551,0,572.633,638.675)">
                        <path d="M-75.018,75.018L75.018,75.018" style="fill:none;stroke:rgb(21,0,62);stroke-width:16.82px;stroke-linecap:butt;stroke-linejoin:round;"/>
                    </g>
                    <g transform="matrix(0.712551,0,0,0.712551,297.405,157.851)">
                        <path d="M0,307.482C0,137.664 137.664,0 307.482,0C477.299,0 614.964,137.664 614.964,307.482" style="fill:none;stroke:rgb(21,0,62);stroke-width:16.82px;stroke-linecap:butt;stroke-linejoin:round;"/>
                    </g>
                    <g transform="matrix(0.712551,0,0,0.712551,425.364,642.142)">
                        <path d="M0,0.001C0,13.224 10.72,23.943 23.943,23.943C37.167,23.943 47.887,13.224 47.887,0.001C47.887,-13.223 37.167,-23.942 23.943,-23.942C10.72,-23.942 0,-13.223 0,0.001" style="fill:rgb(255,206,8);fill-rule:nonzero;"/>
                    </g>
                    <g transform="matrix(0,0.712551,0.712551,0,442.424,625.082)">
                        <ellipse cx="23.943" cy="0" rx="23.943" ry="23.943" style="fill:none;stroke:rgb(21,0,62);stroke-width:16.82px;stroke-linecap:butt;"/>
                    </g>
                    <g transform="matrix(0.712551,0,0,0.712551,573.518,642.142)">
                        <path d="M0,0.001C0,13.224 10.72,23.943 23.943,23.943C37.167,23.943 47.886,13.224 47.886,0.001C47.886,-13.223 37.167,-23.942 23.943,-23.942C10.72,-23.942 0,-13.223 0,0.001" style="fill:rgb(255,206,8);fill-rule:nonzero;"/>
                    </g>
                    <g transform="matrix(0,0.712551,0.712551,0,590.578,625.082)">
                        <ellipse cx="23.943" cy="0" rx="23.942" ry="23.943" style="fill:none;stroke:rgb(21,0,62);stroke-width:16.82px;stroke-linecap:butt;"/>
                    </g>
                    <g transform="matrix(-0.503849,-0.503849,-0.503849,0.503849,219.718,436.227)">
                        <path d="M-118.796,49.207L20.382,49.207" style="fill:none;stroke:rgb(21,0,62);stroke-width:16.82px;"/>
                    </g>
                    <g transform="matrix(0.503849,-0.503849,-0.503849,-0.503849,226.05,526.363)">
                        <path d="M-13.634,32.915L79.464,32.915" style="fill:none;stroke:rgb(21,0,62);stroke-width:16.82px;"/>
                    </g>
                    <g transform="matrix(0.503842,-0.503856,-0.503856,-0.503842,215.251,521.89)">
                        <path d="M-7.356,17.759L42.874,17.76" style="fill:none;stroke:rgb(94,192,144);stroke-width:16.82px;"/>
                    </g>
                    <g transform="matrix(0.503846,-0.503853,-0.503853,-0.503846,207.854,506.199)">
                        <path d="M-15.587,37.63L90.845,37.63" style="fill:none;stroke:rgb(16,7,58);stroke-width:16.82px;"/>
                    </g>
                    <g transform="matrix(0.503849,-0.503849,-0.503849,-0.503849,190.528,503.818)">
                        <path d="M-7.489,18.08L43.649,18.08" style="fill:none;stroke:rgb(94,192,144);stroke-width:16.82px;"/>
                    </g>
                    <g transform="matrix(0.712551,0,0,0.712551,182.976,468.837)">
                        <path d="M0,-106.41C23.025,-83.384 23.025,-46.052 0,-23.025C-23.026,0 -60.358,0 -83.384,-23.025L0,-106.41Z" style="fill:none;stroke:rgb(21,0,62);stroke-width:16.82px;stroke-linejoin:round;"/>
                    </g>
                    <g transform="matrix(-0.503846,-0.503853,-0.503853,0.503846,127.021,362.892)">
                        <path d="M-85.42,35.383L14.656,35.383" style="fill:none;stroke:rgb(21,0,62);stroke-width:16.82px;stroke-linejoin:round;"/>
                    </g>
                    <g transform="matrix(0.712551,0,0,0.712551,101.809,385.973)">
                        <circle cx="0" cy="-17.735" r="17.736" style="fill:rgb(15,206,124);"/>
                    </g>
                    <g transform="matrix(0,0.712551,0.712551,0,636.089,529.812)">
                        <path d="M-16.726,-16.726L16.726,-16.726" style="fill:none;stroke:rgb(21,0,62);stroke-width:16.82px;stroke-linejoin:round;"/>
                    </g>
                    <g transform="matrix(0,0.712551,0.712551,0,617.181,529.812)">
                        <path d="M-16.726,-16.726L16.726,-16.726" style="fill:none;stroke:rgb(21,0,62);stroke-width:16.82px;stroke-linejoin:round;"/>
                    </g>
                    <g transform="matrix(0,0.712551,0.712551,0,636.089,529.812)">
                        <path d="M-16.726,-16.726L16.726,-16.726" style="fill:none;stroke:rgb(21,0,62);stroke-width:16.82px;stroke-linejoin:round;"/>
                    </g>
                    <g transform="matrix(0,0.712551,0.712551,0,439.659,529.812)">
                        <path d="M-16.726,-16.726L16.726,-16.726" style="fill:none;stroke:rgb(21,0,62);stroke-width:16.82px;stroke-linejoin:round;"/>
                    </g>
                    <g transform="matrix(0,0.712551,0.712551,0,420.751,529.812)">
                        <path d="M-16.726,-16.726L16.726,-16.726" style="fill:none;stroke:rgb(21,0,62);stroke-width:16.82px;stroke-linejoin:round;"/>
                    </g>
                    <g transform="matrix(0,0.712551,0.712551,0,439.659,529.812)">
                        <path d="M-16.726,-16.726L16.726,-16.726" style="fill:none;stroke:rgb(21,0,62);stroke-width:16.82px;stroke-linejoin:round;"/>
                    </g>
                    <g transform="matrix(0.712551,0,0,0.712551,590.578,402.783)">
                        <path d="M0,335.92C17.903,308.873 42.98,278.492 67.334,242.223C107.922,181.774 146.5,104.972 146.5,0L227.718,117.852L180.037,118.187L180.037,227.865L127.438,229.046L127.438,335.92L80.017,335.92" style="fill:none;stroke:rgb(21,0,62);stroke-width:16.82px;stroke-linejoin:round;"/>
                    </g>
                    <g transform="matrix(0.712551,0,0,0.712551,442.777,402.783)">
                        <path d="M0,335.92C-17.903,308.873 -42.98,278.492 -67.333,242.223C-107.922,181.774 -146.5,104.972 -146.5,0L-227.718,117.852L-180.036,118.187L-180.036,227.865L-127.438,229.046L-127.438,335.92L-80.017,335.92" style="fill:none;stroke:rgb(21,0,62);stroke-width:16.82px;stroke-linejoin:round;"/>
                    </g>
                    <g transform="matrix(0.712551,0,0,0.712551,582.972,732.43)">
                        <path d="M0,97.812L75.655,106.213L101.934,-8.401C101.934,-8.401 55.091,48.72 0,97.812Z" style="fill:rgb(18,16,59);fill-rule:nonzero;stroke:rgb(21,0,62);stroke-width:16.82px;stroke-linecap:butt;"/>
                    </g>
                    <g transform="matrix(0.712551,0,0,0.712551,681.384,623.828)">
                        <path d="M0,99.071L46.632,108.85L71.315,-9.779C71.315,-9.779 45.895,41.258 0,99.071Z" style="fill:rgb(18,16,59);fill-rule:nonzero;stroke:rgb(21,0,62);stroke-width:16.82px;stroke-linecap:butt;"/>
                    </g>
                    <g transform="matrix(0.712551,0,0,0.712551,750.738,509.574)">
                        <path d="M0,98.313L33.623,108.215L36.342,-9.902C36.342,-9.902 19.545,59.42 0,98.313Z" style="fill:rgb(18,16,59);fill-rule:nonzero;stroke:rgb(21,0,62);stroke-width:16.82px;stroke-linecap:butt;"/>
                    </g>
                    <g transform="matrix(0.712551,0,0,0.712551,448.442,732.43)">
                        <path d="M0,97.812L-75.655,106.213L-101.934,-8.401C-101.934,-8.401 -55.09,48.72 0,97.812Z" style="fill:rgb(18,16,59);fill-rule:nonzero;stroke:rgb(21,0,62);stroke-width:16.82px;stroke-linecap:butt;"/>
                    </g>
                    <g transform="matrix(0.712551,0,0,0.712551,350.03,623.828)">
                        <path d="M0,99.071L-46.632,108.85L-71.315,-9.779C-71.315,-9.779 -45.895,41.258 0,99.071Z" style="fill:rgb(18,16,59);fill-rule:nonzero;stroke:rgb(21,0,62);stroke-width:16.82px;stroke-linecap:butt;"/>
                    </g>
                    <g transform="matrix(0.712551,0,0,0.712551,280.676,509.574)">
                        <path d="M0,98.313L-33.623,108.215L-36.342,-9.902C-36.342,-9.902 -19.544,59.42 0,98.313Z" style="fill:rgb(18,16,59);fill-rule:nonzero;stroke:rgb(21,0,62);stroke-width:16.82px;stroke-linecap:butt;"/>
                    </g>
                    <g transform="matrix(0.712551,0,0,0.712551,433.083,197.93)">
                        <path d="M0,-36.102L-48.295,-39.203L-65.07,3.101C-65.07,3.101 -35.167,-17.982 0,-36.102Z" style="fill:rgb(18,16,59);fill-rule:nonzero;stroke:rgb(21,0,62);stroke-width:16.82px;stroke-linecap:butt;"/>
                    </g>
                    <g transform="matrix(0.712551,0,0,0.712551,599.921,197.93)">
                        <path d="M0,-36.102L48.295,-39.203L65.07,3.101C65.07,3.101 35.167,-17.982 0,-36.102Z" style="fill:rgb(18,16,59);fill-rule:nonzero;stroke:rgb(21,0,62);stroke-width:16.82px;stroke-linecap:butt;"/>
                    </g>
                    <g transform="matrix(0.96163,0,0,0.96163,-6724.37,-4115.61)">
                        <g transform="matrix(0.463433,0,0,0.463433,7482.08,4318.92)">
                            <path d="M0,318.062L78.032,-48.51C80.535,-60.269 90.92,-68.676 102.943,-68.676C114.965,-68.676 125.351,-60.269 127.854,-48.51L205.885,318.062C212.6,353.74 185.233,386.738 148.929,386.738L56.957,386.738C20.652,386.738 -6.714,353.74 0,318.062Z" style="fill:rgb(255,206,8);fill-rule:nonzero;stroke:rgb(17,13,59);stroke-width:26.89px;stroke-linecap:butt;stroke-linejoin:round;"/>
                        </g>
                        <g transform="matrix(-0.449273,-0.113687,-0.113687,0.449273,7488.72,4444.09)">
                            <path d="M-198.843,24.768L3.085,24.768" style="fill:none;stroke:rgb(21,0,62);stroke-width:26.89px;stroke-linecap:butt;stroke-linejoin:round;"/>
                        </g>
                        <g transform="matrix(-0.449273,-0.113686,-0.113686,0.449273,7495.4,4411.73)">
                            <path d="M-176.643,22.003L2.741,22.003" style="fill:none;stroke:rgb(21,0,62);stroke-width:26.89px;stroke-linecap:butt;stroke-linejoin:round;"/>
                        </g>
                        <g transform="matrix(-0.449273,-0.113686,-0.113686,0.449273,7501.84,4379.97)">
                            <path d="M-143.542,17.88L2.227,17.88" style="fill:none;stroke:rgb(21,0,62);stroke-width:26.89px;stroke-linecap:butt;stroke-linejoin:round;"/>
                        </g>
                        <g transform="matrix(-0.449273,-0.113687,-0.113687,0.449273,7508.29,4348.2)">
                            <path d="M-110.441,13.757L1.714,13.756" style="fill:none;stroke:rgb(21,0,62);stroke-width:26.89px;stroke-linecap:butt;stroke-linejoin:round;"/>
                        </g>
                        <g transform="matrix(-0.449272,-0.113688,-0.113688,0.449272,7514.73,4316.43)">
                            <path d="M-77.339,9.634L1.2,9.634" style="fill:none;stroke:rgb(21,0,62);stroke-width:26.89px;stroke-linecap:butt;stroke-linejoin:round;"/>
                        </g>
                    </g>
                    <g transform="matrix(-0.503849,0.503849,0.503849,0.503849,267.535,518.098)">
                        <path d="M-43.982,-18.218L7.546,-18.218" style="fill:none;stroke:rgb(21,0,62);stroke-width:16.82px;stroke-linecap:butt;stroke-linejoin:round;"/>
                    </g>
                    <g transform="matrix(-0.503849,0.503849,0.503849,0.503849,300.794,598.218)">
                        <path d="M-46.41,-19.223L7.963,-19.223" style="fill:none;stroke:rgb(21,0,62);stroke-width:16.82px;stroke-linecap:butt;stroke-linejoin:round;"/>
                    </g>
                    <g transform="matrix(-0.503849,0.503849,0.503849,0.503849,340.67,669.426)">
                        <path d="M-38.289,-15.86L6.569,-15.86" style="fill:none;stroke:rgb(21,0,62);stroke-width:16.82px;stroke-linecap:butt;stroke-linejoin:round;"/>
                    </g>
                    <g transform="matrix(0.503858,0.503841,0.503841,-0.503858,691.655,637.888)">
                        <path d="M-5.971,-14.415L34.802,-14.415" style="fill:none;stroke:rgb(21,0,62);stroke-width:16.82px;stroke-linecap:butt;stroke-linejoin:round;"/>
                    </g>
                    <g transform="matrix(0.503849,0.503849,0.503849,-0.503849,731.979,559.716)">
                        <path d="M-7.624,-18.406L44.437,-18.406" style="fill:none;stroke:rgb(21,0,62);stroke-width:16.82px;stroke-linecap:butt;stroke-linejoin:round;"/>
                    </g>
                    <g transform="matrix(0.503849,0.503849,0.503849,-0.503849,762.728,482.663)">
                        <path d="M-5.748,-13.878L33.503,-13.878" style="fill:none;stroke:rgb(21,0,62);stroke-width:16.82px;stroke-linecap:butt;stroke-linejoin:round;"/>
                    </g>
                    <g transform="matrix(0.503849,0.503849,0.503849,-0.503849,612.362,738.745)">
                        <path d="M-5.949,-14.362L34.674,-14.362" style="fill:none;stroke:rgb(21,0,62);stroke-width:16.82px;stroke-linecap:butt;stroke-linejoin:round;"/>
                    </g>
                    <g transform="matrix(-0.503849,0.503849,0.503849,0.503849,420.39,768.3)">
                        <path d="M-35.528,-14.716L6.096,-14.716" style="fill:none;stroke:rgb(21,0,62);stroke-width:16.82px;stroke-linecap:butt;stroke-linejoin:round;"/>
                    </g>
                    <g transform="matrix(0.712551,0,0,0.712551,661.06,373.335)">
                        <path d="M0,0.001C0,112.045 -90.83,202.875 -202.874,202.875C-314.918,202.875 -405.749,112.045 -405.749,0.001C-405.749,-112.043 -314.918,-202.874 -202.874,-202.874C-90.83,-202.874 0,-112.043 0,0.001" style="fill:rgb(15,206,124);fill-rule:nonzero;"/>
                    </g>
                    <g transform="matrix(0,-0.712551,-0.712551,0,516.502,228.777)">
                        <path d="M-202.875,-202.874C-314.919,-202.874 -405.749,-112.044 -405.749,0C-405.749,112.044 -314.919,202.875 -202.875,202.875C-90.831,202.875 0,112.044 0,0C0,-112.044 -90.831,-202.874 -202.875,-202.874Z" style="fill:none;stroke:rgb(21,0,62);stroke-width:16.82px;stroke-linecap:butt;"/>
                    </g>
                    <g transform="matrix(0.712551,0,0,0.712551,593.125,342.898)">
                        <path d="M0,0C0,24.086 -19.525,43.611 -43.611,43.611C-67.697,43.611 -87.223,24.086 -87.223,0C-87.223,-24.086 -67.697,-43.611 -43.611,-43.611C-19.525,-43.611 0,-24.086 0,0" style="fill:white;fill-rule:nonzero;"/>
                    </g>
                    <g transform="matrix(0.712551,0,0,0.712551,615.329,389.356)">
                        <path d="M0,0C0,9.738 -7.895,17.633 -17.633,17.633C-27.372,17.633 -35.266,9.738 -35.266,0C-35.266,-9.738 -27.372,-17.633 -17.633,-17.633C-7.895,-17.633 0,-9.738 0,0" style="fill:white;fill-rule:nonzero;"/>
                    </g>
                    <g transform="matrix(0.712551,0,0,0.712551,548.048,805.125)">
                        <path d="M0,-44.507L-44.507,0L-89.014,-44.507" style="fill:none;stroke:rgb(21,0,62);stroke-width:16.82px;stroke-linecap:butt;stroke-linejoin:round;"/>
                    </g>
                    <g transform="matrix(0.712551,0,0,0.712551,563.821,796.033)">
                        <path d="M0,-17.762L-17.761,0L-35.522,-17.762" style="fill:none;stroke:rgb(21,0,62);stroke-width:16.82px;stroke-linecap:butt;stroke-linejoin:round;"/>
                    </g>
                    <g transform="matrix(0.712551,0,0,0.712551,494.493,796.033)">
                        <path d="M0,-17.762L-17.761,0L-35.522,-17.762" style="fill:none;stroke:rgb(21,0,62);stroke-width:16.82px;stroke-linecap:butt;stroke-linejoin:round;"/>
                    </g>
                    <g transform="matrix(0.712551,0,0,0.712551,719.943,357.02)">
                        <path d="M0,0C0,-4.608 -3.735,-8.344 -8.344,-8.344C-12.952,-8.344 -16.687,-4.608 -16.687,0C-16.687,4.608 -12.952,8.344 -8.344,8.344C-3.735,8.344 0,4.608 0,0" style="fill:rgb(15,206,124);fill-rule:nonzero;"/>
                    </g>
                    <g transform="matrix(0.712551,0,0,0.712551,703.915,583.239)">
                        <path d="M0,0C0,-4.607 -3.735,-8.344 -8.343,-8.344C-12.952,-8.344 -16.687,-4.607 -16.687,0C-16.687,4.608 -12.952,8.344 -8.343,8.344C-3.735,8.344 0,4.608 0,0" style="fill:rgb(21,0,62);fill-rule:nonzero;"/>
                    </g>
                    <g transform="matrix(0.712551,0,0,0.712551,667.496,665.07)">
                        <path d="M0,0C0,-4.608 -3.735,-8.344 -8.344,-8.344C-12.952,-8.344 -16.687,-4.608 -16.687,0C-16.687,4.608 -12.952,8.344 -8.344,8.344C-3.735,8.344 0,4.608 0,0" style="fill:rgb(21,0,62);fill-rule:nonzero;"/>
                    </g>
                    <g transform="matrix(0.712551,0,0,0.712551,741.543,504.624)">
                        <path d="M0,0C0,-4.607 -3.736,-8.344 -8.344,-8.344C-12.952,-8.344 -16.687,-4.607 -16.687,0C-16.687,4.608 -12.952,8.344 -8.344,8.344C-3.736,8.344 0,4.608 0,0" style="fill:rgb(21,0,62);fill-rule:nonzero;"/>
                    </g>
                    <g transform="matrix(0.712551,0,0,0.712551,327.621,583.239)">
                        <path d="M0,0C0,-4.607 3.735,-8.344 8.343,-8.344C12.952,-8.344 16.687,-4.607 16.687,0C16.687,4.608 12.952,8.344 8.343,8.344C3.735,8.344 0,4.608 0,0" style="fill:rgb(21,0,62);fill-rule:nonzero;"/>
                    </g>
                    <g transform="matrix(0.712551,0,0,0.712551,364.041,665.07)">
                        <path d="M0,0C0,-4.608 3.735,-8.344 8.344,-8.344C12.952,-8.344 16.687,-4.608 16.687,0C16.687,4.608 12.952,8.344 8.344,8.344C3.735,8.344 0,4.608 0,0" style="fill:rgb(21,0,62);fill-rule:nonzero;"/>
                    </g>
                    <g transform="matrix(0.712551,0,0,0.712551,289.993,504.624)">
                        <path d="M0,0C0,-4.607 3.736,-8.344 8.344,-8.344C12.952,-8.344 16.687,-4.607 16.687,0C16.687,4.608 12.952,8.344 8.344,8.344C3.736,8.344 0,4.608 0,0" style="fill:rgb(21,0,62);fill-rule:nonzero;"/>
                    </g>
                    <g transform="matrix(0.712551,0,0,0.712551,715.531,326.137)">
                        <path d="M0,0C0,-4.608 -3.735,-8.344 -8.344,-8.344C-12.952,-8.344 -16.687,-4.608 -16.687,0C-16.687,4.608 -12.952,8.344 -8.344,8.344C-3.735,8.344 0,4.608 0,0" style="fill:rgb(15,206,124);fill-rule:nonzero;"/>
                    </g>
                    <g transform="matrix(0.712551,0,0,0.712551,705.447,297.146)">
                        <path d="M0,0C0,-4.608 -3.735,-8.344 -8.343,-8.344C-12.951,-8.344 -16.687,-4.608 -16.687,0C-16.687,4.608 -12.951,8.344 -8.343,8.344C-3.735,8.344 0,4.608 0,0" style="fill:rgb(15,206,124);fill-rule:nonzero;"/>
                    </g>
                </g>
            </g>
        </g>
    </g>
</svg>
