<?xml version="1.0" encoding="utf-8"?>
<!-- Generator: Adobe Illustrator 16.0.0, SVG Export Plug-In . SVG Version: 6.00 Build 0)  -->
<!DOCTYPE svg PUBLIC "-//W3C//DTD SVG 1.1//EN" "http://www.w3.org/Graphics/SVG/1.1/DTD/svg11.dtd">
<svg version="1.1" xmlns="http://www.w3.org/2000/svg" xmlns:xlink="http://www.w3.org/1999/xlink" x="0px" y="0px"
	 width="237.228px" height="291.43px" viewBox="0 0 237.228 291.43" enable-background="new 0 0 237.228 291.43"
	 xml:space="preserve">
<g id="federation_uniform">
	<g>
		
			<rect x="67.474" y="149.156" fill="#396D87" stroke="#15003E" stroke-width="2.7" stroke-linecap="round" stroke-linejoin="round" stroke-miterlimit="10" width="19.487" height="9.958"/>
		
			<rect x="148.844" y="149.156" fill="#396D87" stroke="#15003E" stroke-width="2.7" stroke-linecap="round" stroke-linejoin="round" stroke-miterlimit="10" width="19.487" height="9.958"/>
		
			<path fill="#396D87" stroke="#15003E" stroke-width="2.7" stroke-linecap="round" stroke-linejoin="round" stroke-miterlimit="10" d="
			M134.07,169.068h-33.449c-7.941,0-14.379-6.438-14.379-14.38v-20.271h62.206v20.271C148.448,162.63,142.01,169.068,134.07,169.068
			z"/>
		<line fill="#15003E" x1="57.349" y1="213.956" x2="57.349" y2="196.786"/>
		
			<line fill="none" stroke="#15003E" stroke-width="2.7" stroke-linecap="round" stroke-miterlimit="10" x1="57.349" y1="213.956" x2="57.349" y2="196.786"/>
		<line fill="#25E899" x1="86.242" y1="149.934" x2="148.448" y2="149.934"/>
		
			<line fill="none" stroke="#15003E" stroke-width="2.7" stroke-linejoin="round" stroke-miterlimit="10" x1="86.242" y1="149.934" x2="148.448" y2="149.934"/>
		<path fill="#15003E" d="M92.915,166.067c0-1.731-1.404-3.135-3.135-3.135s-3.135,1.403-3.135,3.135
			c0,1.732,1.404,3.136,3.135,3.136S92.915,167.8,92.915,166.067"/>
		<path fill="#15003E" d="M147.993,166.067c0-1.731-1.404-3.135-3.135-3.135c-1.731,0-3.135,1.403-3.135,3.135
			c0,1.732,1.403,3.136,3.135,3.136C146.588,169.203,147.993,167.8,147.993,166.067"/>
		<path fill="#343333" stroke="#15003E" stroke-width="2.7" stroke-linejoin="round" stroke-miterlimit="10" d="M88.536,210.729
			h-5.136v-30.636c0-2.837,2.299-5.136,5.136-5.136c2.836,0,5.135,2.299,5.135,5.136v25.501
			C93.67,208.43,91.372,210.729,88.536,210.729z"/>
		
			<line fill="none" stroke="#15003E" stroke-width="2.7" stroke-linecap="round" stroke-linejoin="round" stroke-miterlimit="10" x1="99.757" y1="179.775" x2="99.757" y2="213.956"/>
		
			<path fill="#343333" stroke="#15003E" stroke-width="2.7" stroke-linecap="round" stroke-linejoin="round" stroke-miterlimit="10" d="
			M96.324,230.51h-9.49c-1.897,0-3.434-1.537-3.434-3.434s1.537-3.435,3.434-3.435h9.49c1.896,0,3.434,1.538,3.434,3.435
			S98.22,230.51,96.324,230.51z"/>
		
			<path fill="#343333" stroke="#15003E" stroke-width="2.7" stroke-linecap="round" stroke-linejoin="round" stroke-miterlimit="10" d="
			M104.333,254.614H80.621c-2.539,0-4.597-2.058-4.597-4.597c0-2.538,2.058-4.597,4.597-4.597h23.712
			c2.539,0,4.597,2.059,4.597,4.597C108.93,252.557,106.872,254.614,104.333,254.614z"/>
		
			<rect x="86.833" y="230.511" fill="#343333" stroke="#15003E" stroke-width="2.7" stroke-linecap="round" stroke-linejoin="round" stroke-miterlimit="10" width="9.121" height="14.91"/>
		
			<line fill="none" stroke="#15003E" stroke-width="2.7" stroke-linecap="round" stroke-linejoin="round" stroke-miterlimit="10" x1="83.399" y1="218.832" x2="99.757" y2="218.832"/>
		<rect x="80.79" y="254.615" fill="#15003E" width="8.803" height="3.23"/>
		
			<rect x="80.791" y="254.615" fill="none" stroke="#15003E" stroke-width="2.7" stroke-linejoin="round" stroke-miterlimit="10" width="8.803" height="3.23"/>
		<rect x="94.155" y="254.615" fill="#15003E" width="8.803" height="3.23"/>
		
			<rect x="94.155" y="254.615" fill="none" stroke="#15003E" stroke-width="2.7" stroke-linejoin="round" stroke-miterlimit="10" width="8.803" height="3.23"/>
		<line fill="#15003E" x1="83.399" y1="199.368" x2="93.67" y2="199.368"/>
		
			<line fill="none" stroke="#15003E" stroke-width="2.7" stroke-linejoin="round" stroke-miterlimit="10" x1="83.399" y1="199.368" x2="93.67" y2="199.368"/>
		<line fill="#15003E" x1="83.399" y1="186.019" x2="93.67" y2="186.019"/>
		
			<line fill="none" stroke="#15003E" stroke-width="2.7" stroke-linejoin="round" stroke-miterlimit="10" x1="83.399" y1="186.019" x2="93.67" y2="186.019"/>
		
			<circle fill="#343333" stroke="#15003E" stroke-width="2.7" stroke-linecap="round" stroke-linejoin="round" stroke-miterlimit="10" cx="90.409" cy="214.702" r="3.844"/>
		
			<line fill="none" stroke="#15003E" stroke-width="2.7" stroke-linecap="round" stroke-linejoin="round" stroke-miterlimit="10" x1="91.394" y1="223.643" x2="91.394" y2="218.833"/>
		
			<polyline fill="none" stroke="#15003E" stroke-width="2.7" stroke-linecap="round" stroke-linejoin="round" stroke-miterlimit="10" points="
			86.645,171.308 92.915,171.308 97.504,175.897 		"/>
		<path fill="#343333" stroke="#15003E" stroke-width="2.7" stroke-linejoin="round" stroke-miterlimit="10" d="M147,210.854h5.135
			v-30.636c0-2.837-2.299-5.137-5.135-5.137c-2.837,0-5.136,2.3-5.136,5.137v25.501C141.864,208.555,144.163,210.854,147,210.854z"
			/>
		
			<line fill="none" stroke="#15003E" stroke-width="2.7" stroke-linecap="round" stroke-linejoin="round" stroke-miterlimit="10" x1="135.778" y1="179.899" x2="135.778" y2="214.081"/>
		
			<path fill="#343333" stroke="#15003E" stroke-width="2.7" stroke-linecap="round" stroke-linejoin="round" stroke-miterlimit="10" d="
			M139.211,230.635h9.49c1.896,0,3.434-1.537,3.434-3.434s-1.537-3.435-3.434-3.435h-9.49c-1.896,0-3.434,1.538-3.434,3.435
			S137.315,230.635,139.211,230.635z"/>
		
			<path fill="#343333" stroke="#15003E" stroke-width="2.7" stroke-linecap="round" stroke-linejoin="round" stroke-miterlimit="10" d="
			M131.202,254.739h23.712c2.539,0,4.597-2.058,4.597-4.597c0-2.538-2.058-4.597-4.597-4.597h-23.712
			c-2.539,0-4.596,2.059-4.596,4.597C126.606,252.682,128.663,254.739,131.202,254.739z"/>
		
			<rect x="139.581" y="230.635" fill="#343333" stroke="#15003E" stroke-width="2.7" stroke-linecap="round" stroke-linejoin="round" stroke-miterlimit="10" width="9.122" height="14.911"/>
		
			<line fill="none" stroke="#15003E" stroke-width="2.7" stroke-linecap="round" stroke-linejoin="round" stroke-miterlimit="10" x1="152.135" y1="218.957" x2="135.777" y2="218.957"/>
		<rect x="145.94" y="254.74" fill="#15003E" width="8.803" height="3.23"/>
		
			<rect x="145.94" y="254.74" fill="none" stroke="#15003E" stroke-width="2.7" stroke-linejoin="round" stroke-miterlimit="10" width="8.804" height="3.23"/>
		<rect x="132.577" y="254.74" fill="#15003E" width="8.804" height="3.23"/>
		
			<rect x="132.577" y="254.74" fill="none" stroke="#15003E" stroke-width="2.7" stroke-linejoin="round" stroke-miterlimit="10" width="8.803" height="3.23"/>
		<line fill="#15003E" x1="152.135" y1="199.493" x2="141.864" y2="199.493"/>
		
			<line fill="none" stroke="#15003E" stroke-width="2.7" stroke-linejoin="round" stroke-miterlimit="10" x1="152.135" y1="199.493" x2="141.864" y2="199.493"/>
		<line fill="#15003E" x1="152.135" y1="186.144" x2="141.864" y2="186.144"/>
		
			<line fill="none" stroke="#15003E" stroke-width="2.7" stroke-linejoin="round" stroke-miterlimit="10" x1="152.135" y1="186.144" x2="141.864" y2="186.144"/>
		
			<circle fill="#343333" stroke="#15003E" stroke-width="2.7" stroke-linecap="round" stroke-linejoin="round" stroke-miterlimit="10" cx="145.125" cy="214.826" r="3.843"/>
		
			<line fill="none" stroke="#15003E" stroke-width="2.7" stroke-linecap="round" stroke-linejoin="round" stroke-miterlimit="10" x1="144.141" y1="223.768" x2="144.141" y2="218.957"/>
		
			<polyline fill="none" stroke="#15003E" stroke-width="2.7" stroke-linecap="round" stroke-linejoin="round" stroke-miterlimit="10" points="
			148.89,171.433 142.621,171.433 138.03,176.022 		"/>
		
			<path fill="none" stroke="#15003E" stroke-width="2.7" stroke-linecap="round" stroke-linejoin="round" stroke-miterlimit="10" d="
			M60.833,208.786h-6.967c-3.668,0-6.642-2.974-6.642-6.642v-49.366c0-3.668,2.974-6.641,6.642-6.641h6.967
			c3.668,0,6.642,2.973,6.642,6.641v49.366C67.475,205.813,64.501,208.786,60.833,208.786z"/>
		<path fill="#25E899" d="M62.711,196.786c0-2.961-2.401-5.361-5.362-5.361s-5.361,2.4-5.361,5.361s2.4,5.36,5.361,5.36
			S62.711,199.747,62.711,196.786"/>
		
			<circle fill="none" stroke="#15003E" stroke-width="2.7" stroke-linecap="round" stroke-miterlimit="10" cx="57.35" cy="196.786" r="5.362"/>
		<path fill="#EFF4EE" d="M52.554,230.604v-13.284c0-1.858,1.507-3.365,3.366-3.365h2.858c1.859,0,3.366,1.507,3.366,3.365v13.284"
			/>
		<path fill="none" stroke="#15003E" stroke-width="2.7" stroke-linecap="round" stroke-miterlimit="10" d="M52.554,230.604v-13.284
			c0-1.858,1.507-3.365,3.366-3.365h2.858c1.859,0,3.366,1.507,3.366,3.365v13.284"/>
		<path fill="#25E899" d="M62.145,230.604c0-2.647-2.147-4.795-4.795-4.795c-2.649,0-4.796,2.147-4.796,4.795
			c0,2.649,2.147,4.795,4.796,4.795C59.998,235.398,62.145,233.253,62.145,230.604"/>
		
			<circle fill="none" stroke="#15003E" stroke-width="2.7" stroke-linecap="round" stroke-miterlimit="10" cx="57.349" cy="230.604" r="4.795"/>
		
			<path fill="none" stroke="#15003E" stroke-width="2.7" stroke-linecap="round" stroke-linejoin="round" stroke-miterlimit="10" d="
			M174.972,208.786h6.967c3.668,0,6.642-2.974,6.642-6.642v-49.366c0-3.668-2.974-6.641-6.642-6.641h-6.967
			c-3.668,0-6.643,2.973-6.643,6.641v49.366C168.33,205.813,171.304,208.786,174.972,208.786z"/>
		
			<line fill="none" stroke="#15003E" stroke-width="2.7" stroke-linecap="round" stroke-linejoin="round" stroke-miterlimit="10" x1="188.581" y1="177.462" x2="168.331" y2="177.462"/>
		<path fill="#EFF4EE" d="M183.25,200.576v-13.284c0-1.859-1.507-3.366-3.366-3.366h-2.858c-1.858,0-3.366,1.507-3.366,3.366v13.284
			"/>
		<path fill="none" stroke="#15003E" stroke-width="2.7" stroke-linecap="round" stroke-miterlimit="10" d="M183.25,200.576v-13.284
			c0-1.859-1.507-3.366-3.366-3.366h-2.858c-1.858,0-3.366,1.507-3.366,3.366v13.284"/>
		<path fill="#25E899" d="M173.66,200.576c0-2.648,2.147-4.795,4.795-4.795c2.649,0,4.796,2.146,4.796,4.795
			c0,2.647-2.146,4.795-4.796,4.795C175.807,205.371,173.66,203.224,173.66,200.576"/>
		
			<circle fill="none" stroke="#15003E" stroke-width="2.7" stroke-linecap="round" stroke-miterlimit="10" cx="178.455" cy="200.576" r="4.795"/>
		<line fill="#15003E" x1="196.105" y1="258.332" x2="57.349" y2="258.332"/>
		
			<line fill="none" stroke="#15003E" stroke-width="2.7" stroke-linecap="round" stroke-miterlimit="10" x1="196.105" y1="258.332" x2="57.349" y2="258.332"/>
		
			<rect x="94.254" y="124.465" fill="none" stroke="#15003E" stroke-width="2.7" stroke-linecap="round" stroke-miterlimit="10" width="44.258" height="9.953"/>
		
			<line fill="none" stroke="#25E899" stroke-width="2.7" stroke-linecap="round" stroke-miterlimit="10" x1="99.404" y1="119.49" x2="133.926" y2="119.49"/>
		<polygon fill="#25E899" points="92.817,90.989 136.208,90.989 139.885,92.393 137.12,102.294 95.548,102.294 		"/>
		<path fill="#EFF4EE" d="M131.243,114.533h-29.818c-3.246,0-5.877-2.631-5.877-5.877v-6.362h41.572v6.362
			C137.12,111.902,134.489,114.533,131.243,114.533"/>
		<path fill="none" stroke="#15003E" stroke-width="2.7" stroke-linecap="round" stroke-miterlimit="10" d="M131.243,114.533
			h-29.818c-3.246,0-5.877-2.631-5.877-5.877v-6.362h41.572v6.362C137.12,111.902,134.489,114.533,131.243,114.533z"/>
		<path fill="#0FCE7C" d="M108.712,90.989c-6.526-2.866-11.084-9.386-11.084-16.972c0-4.476,1.588-8.582,4.231-11.784
			c3.398-4.118,24.774-4.328,28.169-0.495c2.896,3.269,4.654,7.569,4.654,12.279c0,7.585-4.557,14.105-11.082,16.971"/>
		<path fill="none" stroke="#15003E" stroke-width="2.7" stroke-linecap="round" stroke-miterlimit="10" d="M107.541,90.988
			c-6.459-3.142-10.909-9.767-10.909-17.432c0-3.841,1.118-7.421,3.046-10.433"/>
		<path fill="none" stroke="#15003E" stroke-width="2.7" stroke-linecap="round" stroke-miterlimit="10" d="M131.636,62.104
			c2.354,3.208,3.745,7.168,3.745,11.452c0,7.585-4.357,14.152-10.708,17.333"/>
		<path fill="none" stroke="#15003E" stroke-width="2.7" stroke-linecap="round" stroke-miterlimit="10" d="M88.742,75.501
			c0-15.239,12.353-27.592,27.592-27.592c15.239,0,27.593,12.353,27.593,27.592l-6.807,26.793H95.548L88.742,75.501z"/>
		
			<line fill="none" stroke="#15003E" stroke-width="2.7" stroke-linecap="round" stroke-miterlimit="10" x1="88.742" y1="75.102" x2="88.742" y2="48.843"/>
		
			<line fill="none" stroke="#15003E" stroke-width="2.7" stroke-linecap="round" stroke-miterlimit="10" x1="143.925" y1="75.102" x2="143.925" y2="41.429"/>
		<path fill="none" stroke="#15003E" stroke-width="2.7" stroke-linecap="round" stroke-miterlimit="10" d="M90.891,86.896h-2.849
			c-2.304,0-4.19-1.885-4.19-4.19v-10.64c0-2.304,1.886-4.19,4.19-4.19h1.208"/>
		<path fill="none" stroke="#15003E" stroke-width="2.7" stroke-linecap="round" stroke-miterlimit="10" d="M141.875,86.896h2.848
			c2.305,0,4.189-1.885,4.189-4.19v-10.64c0-2.304-1.885-4.19-4.189-4.19h-1.207"/>
		<path fill="none" stroke="#15003E" stroke-width="2.7" stroke-linecap="round" stroke-miterlimit="10" d="M89.039,70.885
			c7.097-7.269,16.902-11.765,27.732-11.765c10.24,0,19.566,4.02,26.549,10.603"/>
		
			<line fill="none" stroke="#15003E" stroke-width="2.7" stroke-linecap="round" stroke-miterlimit="10" x1="92.817" y1="90.987" x2="139.885" y2="90.987"/>
		<path fill="#FFFFFF" d="M126.017,67.876c0,2.669-2.164,4.833-4.833,4.833c-2.67,0-4.833-2.164-4.833-4.833
			s2.163-4.833,4.833-4.833C123.853,63.043,126.017,65.207,126.017,67.876"/>
		<path fill="#FFFFFF" d="M129.471,75.102c0,1.079-0.875,1.954-1.955,1.954s-1.955-0.875-1.955-1.954s0.875-1.954,1.955-1.954
			S129.471,74.022,129.471,75.102"/>
		<path fill="none" stroke="#15003E" stroke-width="2.7" stroke-linecap="round" stroke-miterlimit="10" d="M133.024,98.441
			c-2.382,0-2.382-3.6-4.763-3.6c-2.38,0-2.38,3.6-4.761,3.6c-2.381,0-2.381-3.6-4.762-3.6c-2.383,0-2.383,3.6-4.765,3.6
			c-2.381,0-2.381-3.6-4.762-3.6c-2.384,0-2.384,3.6-4.767,3.6c-2.383,0-2.383-3.6-4.766-3.6"/>
		
			<path fill="#396D87" stroke="#15003E" stroke-width="2.7" stroke-linecap="round" stroke-linejoin="round" stroke-miterlimit="10" d="
			M188.581,177.462v-24.684c0-3.668-2.974-6.641-6.642-6.641h-6.967c-3.668,0-6.643,2.973-6.643,6.641v24.684H188.581z"/>
		
			<path fill="#396D87" stroke="#15003E" stroke-width="2.7" stroke-linecap="round" stroke-linejoin="round" stroke-miterlimit="10" d="
			M67.476,177.649v-24.684c0-3.668-2.974-6.641-6.642-6.641h-6.967c-3.668,0-6.643,2.973-6.643,6.641v24.684H67.476z"/>
		<path fill="#343333" d="M94.253,167.582l39.673-9.609l12.281,4.419c0,0-3.205,6.662-11.581,6.662s-34.006,0.014-34.006,0.014
			S96.382,168.664,94.253,167.582z"/>
		<path fill="#343333" d="M86.242,141.541c0,0,11.006-7.123,19.756-7.123s18.341,0,22.724,0c8.273,0,19.726,8.415,19.726,8.415
			v-8.415H86.242V141.541z"/>
		
			<path fill="none" stroke="#15003E" stroke-width="2.7" stroke-linecap="round" stroke-linejoin="round" stroke-miterlimit="10" d="
			M134.07,169.068h-33.449c-7.941,0-14.379-6.438-14.379-14.38v-20.271h62.206v20.271C148.448,162.63,142.01,169.068,134.07,169.068
			z"/>
		<path fill="#EFF4EE" d="M144.508,163.933c0-1.075-0.871-1.945-1.945-1.945s-1.945,0.87-1.945,1.945s0.871,1.946,1.945,1.946
			S144.508,165.008,144.508,163.933"/>
		<path fill="#EFF4EE" d="M93.671,163.933c0-1.075-0.871-1.945-1.946-1.945c-1.074,0-1.945,0.87-1.945,1.945
			s0.871,1.946,1.945,1.946C92.8,165.879,93.671,165.008,93.671,163.933"/>
		<g>
			<path fill="#808285" d="M140.579,146.536c0-0.623-0.208-1.21-0.587-1.69l0.598-0.564l0.011-0.01l0,0l0.265-0.25l-0.255-0.255
				c-0.711-0.712-1.65-1.112-2.653-1.141v-0.546c0-0.142-0.115-0.257-0.256-0.257s-0.257,0.115-0.257,0.257v0.56
				c-0.241,0.025-0.475,0.073-0.701,0.14v-0.7c0-0.142-0.115-0.256-0.257-0.256s-0.256,0.115-0.256,0.256v0.892
				c-1.356,0.616-2.304,1.98-2.304,3.564c0,2.135,1.718,3.873,3.843,3.912v0.004h1.228v0h1.828v-1.685l-0.791-0.595
				C140.386,147.701,140.579,147.133,140.579,146.536z"/>
			<path fill="#A7A9AC" d="M138.769,147.219c0.142-0.192,0.229-0.427,0.229-0.684c0-0.226-0.068-0.436-0.181-0.615l0.651-0.602
				c0.264,0.351,0.412,0.771,0.412,1.217c0,0.443-0.148,0.861-0.409,1.211L138.769,147.219z"/>
			<path fill="#A7A9AC" d="M140.125,149.752h-1.127v0h-1.163c-1.769-0.005-3.208-1.445-3.208-3.216c0-1.186,0.646-2.221,1.604-2.778
				v1.052c0,0.142,0.115,0.256,0.256,0.256s0.257-0.115,0.257-0.256v-1.292c0.224-0.082,0.458-0.14,0.701-0.17v0.756
				c0,0.142,0.115,0.256,0.257,0.256s0.256-0.115,0.256-0.256v-0.773c0.693,0.025,1.349,0.26,1.885,0.689l-1.567,1.449
				c-0.134-0.055-0.28-0.086-0.434-0.086c-0.637,0-1.155,0.518-1.155,1.154c0,0.637,0.519,1.156,1.155,1.156
				c0.112,0,0.219-0.021,0.322-0.051l1.96,1.476V149.752z"/>
		</g>
		<path fill="#343333" stroke="#15003E" stroke-width="2.7" stroke-linecap="round" stroke-miterlimit="10" d="M94.254,117.333
			h13.287c0,0,5.584,7.717,5.584,17.084H94.253L94.254,117.333z"/>
		<path fill="#343333" stroke="#15003E" stroke-width="2.7" stroke-linecap="round" stroke-miterlimit="10" d="M139.287,117.333H126
			c0,0-5.584,7.717-5.584,17.084h18.872L139.287,117.333z"/>
	</g>
</g>
<g id="R2D2">
</g>
<g id="narwhale">
</g>
</svg>
