<?xml version="1.0" encoding="utf-8"?>
<!-- Generator: Adobe Illustrator 21.1.0, SVG Export Plug-In . SVG Version: 6.00 Build 0)  -->
<svg version="1.1" id="Layer_1" xmlns="http://www.w3.org/2000/svg" xmlns:xlink="http://www.w3.org/1999/xlink" x="0px" y="0px"
	 viewBox="0 0 792 360" style="enable-background:new 0 0 792 360;" xml:space="preserve">
<style type="text/css">
	.st0{fill:#001423;}
</style>
<g>
	<polygon class="st0" points="172.1,88 217.5,88 217.5,105.6 192.7,105.6 192.7,140 212.9,140 212.9,157.1 192.7,157.1 192.7,192.8 
		217.5,192.8 217.5,210.4 172.1,210.4 	"/>
	<polygon class="st0" points="267.3,105.6 267.3,210.4 246.9,210.4 246.9,105.6 231.4,105.6 231.4,88 282.8,88 282.8,105.6 	"/>
	<polygon class="st0" points="296.4,210.4 296.4,88 316.7,88 316.7,141.8 333.5,141.8 333.5,88 353.7,88 353.7,210.4 333.5,210.4 
		333.5,158.7 316.7,158.7 316.7,210.4 	"/>
	<g>
		<path class="st0" d="M407.7,108.5c0-1.6-1.1-2.9-2.9-2.9h-12.6v87.2h12.6c1.8,0,2.9-1.3,2.9-2.9V108.5z M411.3,88
			c10.2,0,17,6.7,17,16.9v88.7c0,10.2-6.7,16.9-17,16.9h-39.7V88H411.3z"/>
	</g>
	<polygon class="st0" points="448.7,88 494.1,88 494.1,105.6 469.3,105.6 469.3,140 489.5,140 489.5,157.1 469.3,157.1 469.3,192.8 
		494.1,192.8 494.1,210.4 448.7,210.4 	"/>
	<polygon class="st0" points="527.6,141.5 527.6,210.4 510.3,210.4 510.3,88 527.4,88 550.8,161.6 550.8,88 568.1,88 568.1,210.4 
		551.1,210.4 	"/>
	<polygon class="st0" points="602.7,210.4 582.9,88 603.7,88 613.3,173 623.2,88 643,88 623.3,210.4 	"/>
	<polygon class="st0" points="657.8,88 703.2,88 703.2,105.6 678.4,105.6 678.4,140 698.6,140 698.6,157.1 678.4,157.1 678.4,192.8 
		703.2,192.8 703.2,210.4 657.8,210.4 	"/>
	<g>
		<path class="st0" d="M755.5,107.4c0-0.9-0.7-1.8-1.3-1.8H740v47.2h14.2c0.5,0,1.3-0.9,1.3-1.6V107.4z M747,169.6H740v40.8h-20.6
			V88h41.4c9.1,0,14.8,6,14.8,15.1v51.5c0,7.1-3.5,12.2-9.1,14.1l9.3,41.7h-20.2L747,169.6z"/>
	</g>
	<polygon class="st0" points="192.8,256.7 185.8,256.7 185.8,242.2 179.6,242.2 179.6,256.7 172.6,256.7 172.6,221.5 179.6,221.5 
		179.6,236.3 185.8,236.3 185.8,221.5 192.8,221.5 	"/>
	<g>
		<path class="st0" d="M218.6,241.2v-12.9c0-0.5-0.4-0.8-0.9-0.8h-3.8c-0.5,0-0.9,0.4-0.9,0.8v12.9H218.6z M225.6,256.7h-7V247H213
			v9.7h-7v-31.3c0-2.2,1.5-3.8,3.8-3.8h12c2.2,0,3.8,1.6,3.8,3.8V256.7z"/>
		<path class="st0" d="M258,243.6v9.2c0,2.4-1.7,4.2-4.2,4.2h-11.1c-2.4,0-4.1-1.7-4.1-4.2v-27.2c0-2.5,1.7-4.2,4.1-4.2h11.1
			c2.5,0,4.2,1.7,4.2,4.2v9h-7.1v-6.7c0-0.3-0.2-0.6-0.4-0.6H246c-0.3,0-0.5,0.3-0.5,0.6v22.4c0,0.3,0.2,0.5,0.5,0.5h4.4
			c0.3,0,0.5-0.2,0.5-0.5v-6.8H258z"/>
	</g>
	<polygon class="st0" points="284.3,256.7 278.5,243.2 277,245.5 277,256.7 270,256.7 270,221.5 277,221.5 277,236.2 284.1,221.5 
		291.5,221.5 283.3,237.7 291.8,256.7 	"/>
	<g>
		<path class="st0" d="M314.5,241.2v-12.9c0-0.5-0.4-0.8-0.9-0.8h-3.8c-0.5,0-0.9,0.4-0.9,0.8v12.9H314.5z M321.5,256.7h-7V247h-5.6
			v9.7h-7v-31.3c0-2.2,1.5-3.8,3.8-3.8h12c2.2,0,3.8,1.6,3.8,3.8V256.7z"/>
	</g>
	<polygon class="st0" points="350.3,221.5 350.3,227.5 344.6,227.5 344.6,256.7 337.5,256.7 337.5,227.5 331.7,227.5 331.7,221.5 	
		"/>
	<polygon class="st0" points="381.1,256.7 374.1,256.7 374.1,242.2 367.8,242.2 367.8,256.7 360.8,256.7 360.8,221.5 367.8,221.5 
		367.8,236.3 374.1,236.3 374.1,221.5 381.1,221.5 	"/>
	<g>
		<path class="st0" d="M407.2,227.8c0-0.3-0.3-0.6-0.4-0.6h-5.1c-0.3,0-0.4,0.4-0.4,0.6v22.6c0,0.2,0.2,0.5,0.4,0.5h5.1
			c0.2,0,0.4-0.2,0.4-0.5V227.8z M410.4,221.3c2.2,0,3.8,1.6,3.8,3.8V253c0,2.2-1.6,3.8-3.8,3.8h-12.3c-2.3,0-3.8-1.6-3.8-3.8v-27.9
			c0-2.2,1.5-3.8,3.8-3.8H410.4z"/>
	</g>
	<polygon class="st0" points="433.7,237.2 433.7,256.7 427.4,256.7 427.4,221.5 433.6,221.5 441.7,241.8 441.7,221.5 447.9,221.5 
		447.9,256.7 441.7,256.7 	"/>
	<polygon class="st0" points="476,242.6 476,251.6 469.6,251.6 469.6,242.6 461.4,242.6 461.4,236.7 469.6,236.7 469.6,227.8 
		476,227.8 476,236.7 484.2,236.7 484.2,242.6 	"/>
	<polygon class="st0" points="526.3,221.5 521,256.7 515,256.7 510.8,234.7 506.6,256.7 500.6,256.7 495.2,221.5 502,221.5 
		504.4,244 508,221.5 513.9,221.5 517.4,243.8 520,221.5 	"/>
	<g>
		<path class="st0" d="M549.5,227.8c0-0.3-0.3-0.6-0.4-0.6H544c-0.3,0-0.4,0.4-0.4,0.6v22.6c0,0.2,0.2,0.5,0.4,0.5h5.1
			c0.2,0,0.4-0.2,0.4-0.5V227.8z M552.8,221.3c2.3,0,3.8,1.6,3.8,3.8V253c0,2.2-1.6,3.8-3.8,3.8h-12.3c-2.3,0-3.8-1.6-3.8-3.8v-27.9
			c0-2.2,1.5-3.8,3.8-3.8H552.8z"/>
		<path class="st0" d="M582.6,228c0-0.3-0.2-0.5-0.4-0.5h-5.3v12h5.3c0.2,0,0.4-0.3,0.4-0.5V228z M585.4,221.5
			c2.5,0,4.1,1.7,4.1,4.2V241c0,2.1-1.3,3.7-3.2,4.1l3.3,11.6h-7l-3.2-11.5h-2.7v11.5h-7.1v-35.1H585.4z"/>
	</g>
	<polygon class="st0" points="616.7,256.7 610.9,243.2 609.3,245.5 609.3,256.7 602.3,256.7 602.3,221.5 609.3,221.5 609.3,236.2 
		616.5,221.5 623.9,221.5 615.7,237.7 624.2,256.7 	"/>
	<g>
		<path class="st0" d="M632.8,250.5h9.2c0.3,0,0.5-0.2,0.5-0.5v-7.4c0-0.3-0.2-0.5-0.5-0.5h-5.4c-2.2,0-3.8-1.6-3.8-3.8v-13.1
			c0-2.2,1.6-3.8,3.8-3.8h12.6v6h-8.8c-0.3,0-0.5,0.3-0.5,0.6v7.3c0,0.2,0.2,0.5,0.5,0.5h5.4c2.2,0,3.8,1.6,3.8,3.8v13.2
			c0,2.2-1.6,3.8-3.8,3.8h-12.9V250.5z"/>
	</g>
	<polygon class="st0" points="681.9,256.7 674.9,256.7 674.9,242.2 668.7,242.2 668.7,256.7 661.7,256.7 661.7,221.5 668.7,221.5 
		668.7,236.3 674.9,236.3 674.9,221.5 681.9,221.5 	"/>
	<g>
		<path class="st0" d="M708,227.8c0-0.3-0.3-0.6-0.4-0.6h-5.1c-0.3,0-0.4,0.4-0.4,0.6v22.6c0,0.2,0.2,0.5,0.4,0.5h5.1
			c0.2,0,0.4-0.2,0.4-0.5V227.8z M711.3,221.3c2.3,0,3.8,1.6,3.8,3.8V253c0,2.2-1.6,3.8-3.8,3.8h-12.3c-2.3,0-3.8-1.6-3.8-3.8v-27.9
			c0-2.2,1.5-3.8,3.8-3.8H711.3z"/>
		<path class="st0" d="M740.4,241.3c0.2,0,0.4-0.3,0.4-0.5V228c0-0.3-0.2-0.5-0.4-0.5h-5v13.8H740.4z M743.7,221.5
			c2.5,0,4.2,1.7,4.2,4.2V243c0,2.4-1.8,4.2-4.2,4.2h-8.3v9.5h-7.1v-35.1H743.7z"/>
		<path class="st0" d="M759,250.5h9.2c0.3,0,0.5-0.2,0.5-0.5v-7.4c0-0.3-0.2-0.5-0.5-0.5h-5.4c-2.2,0-3.8-1.6-3.8-3.8v-13.1
			c0-2.2,1.6-3.8,3.8-3.8h12.6v6h-8.8c-0.3,0-0.5,0.3-0.5,0.6v7.3c0,0.2,0.2,0.5,0.5,0.5h5.4c2.2,0,3.8,1.6,3.8,3.8v13.2
			c0,2.2-1.6,3.8-3.8,3.8H759V250.5z"/>
		<path class="st0" d="M16.3,175.9c4.9,2.9,9.8,5.7,14.7,8.6c17.1,10,34.8,20.3,52.2,30.5c1.1,0.6,2.1,0.9,3.1,0.9
			c1,0,2.1-0.3,3.1-1c4.9-3,9.9-5.9,14.8-8.8c1.9-1.1,3.8-2.2,5.7-3.4l9-5.4c11.9-7.1,24.3-14.4,36.4-21.6c0.8-0.5,1.8-1.2,2.4-2.6
			c0.7-1.9,0-3.4-0.6-4.4c-22.4-37.2-44.6-74.3-66.2-110.3c-0.8-1.4-1.8-2.7-3.6-3.2l-0.1,0h-1.6l-0.1,0c-1.8,0.6-2.8,1.9-3.6,3.1
			c-19.4,31.8-39.2,64.1-58.3,95.3l-9.1,14.9c-0.9,1.5-1.2,2.9-0.9,4.1C13.8,174,14.7,175,16.3,175.9 M81.8,137.6
			c0,0.4,0,0.5-0.5,0.7c-14.5,6.5-29.2,13.1-43.4,19.4l-8.6,3.8l52.4-85.7v7.8C81.8,101.3,81.8,119.6,81.8,137.6 M27.8,172.2
			l54-24.2v55.7L27.8,172.2z M90.8,82.8V76l51.3,85.4L141,161c-2.8-1.3-5.7-2.6-8.5-3.9l-5.9-2.7c-11.6-5.3-23.7-10.8-35.5-16.2
			c-0.3-0.2-0.3-0.2-0.3-0.5C90.8,119.4,90.8,100.8,90.8,82.8 M90.9,203.5V148l52.9,24.1L90.9,203.5z"/>
		<path class="st0" d="M158.3,188.3c-0.6-1.4-1.9-2.4-3.4-2.7c-1.4-0.2-2.6,0.3-3.6,0.9c-6.1,3.6-12.3,7.2-18.4,10.8
			c-15.1,8.9-30.7,18-46.1,27.1c-0.4,0.2-0.5,0.2-0.9,0c-16.3-9.6-32.9-19.4-49-28.8l-7.9-4.7c-0.8-0.5-1.6-0.9-2.4-1.4
			c-1.9-1.1-3.8-2.2-5.7-3.3c-1.3-0.7-2.8-0.8-4.1-0.3c-1.3,0.5-2.2,1.7-2.6,3c-0.5,1.8,0.3,3.2,1.1,4.3
			c22.5,31.5,44.9,62.9,66.4,93.1c0.8,1.1,1.8,2.4,3.4,3.1l0.2,0.1h1.9l0.2-0.1c1.6-0.6,2.7-1.8,3.4-2.7
			c16.6-23.3,33.5-47,49.8-69.8l9.9-13.9c0.7-1,1.4-1.9,2.1-2.9c1.7-2.4,3.5-5,5.3-7.5C158.7,191.4,158.9,189.8,158.3,188.3
			 M138.1,204.7L90.8,271v-7.9c0-9.9,0-20.2,0-30.2c0-0.3,0-0.4,0.2-0.5c13.6-8,27.5-16.1,40.9-24L138.1,204.7z M81.8,265.6v5.4
			l-47.3-66.3c0.3,0.2,0.6,0.3,0.9,0.5l7.8,4.6c12.5,7.4,25.5,15,38.2,22.4c0.4,0.2,0.4,0.3,0.4,0.7
			C81.8,243.9,81.8,254.9,81.8,265.6"/>
	</g>
</g>
</svg>
