<svg id="Layer_1" data-name="Layer 1" xmlns="http://www.w3.org/2000/svg" xmlns:xlink="http://www.w3.org/1999/xlink" viewBox="0 0 3000 1112"><defs><style>.cls-1{fill:none;}.cls-2{fill:#fff;}.cls-3{clip-path:url(#clip-path);}.cls-4{fill:#8e2abe;}.cls-5{fill:#ffc400;}.cls-6{fill:#f9006c;}.cls-7{fill:#ffce08;}.cls-8{fill:#15003e;}.cls-9{fill:#24e899;}.cls-10{fill:#190b3c;}.cls-11{fill:#47b877;}.cls-12{fill:#eff4ee;}.cls-13{fill:#62bf8b;}</style><clipPath id="clip-path"><rect class="cls-1" x="-1" width="3914.94" height="1112"/></clipPath></defs><title>profileheader</title><rect class="cls-2" width="3000" height="1112"/><g class="cls-3"><polygon class="cls-4" points="1895.76 552.47 1310.71 1138.62 725.66 552.47 1310.71 -33.68 1895.76 552.47"/><polygon class="cls-2" points="797.01 554.12 1310.71 39.45 1824.41 554.12 1310.71 1068.79 797.01 554.12"/><polygon class="cls-4" points="1136.27 1182.3 521.23 566.11 1181.68 -95.57 1224.48 -52.69 606.85 566.11 1179.08 1139.42 1136.27 1182.3"/><polygon class="cls-5" points="1448.14 1195.78 1405.34 1152.9 2007.84 549.26 1407.02 -52.69 1449.82 -95.57 2093.44 549.26 1448.14 1195.78"/><polygon class="cls-6" points="1951.63 289.91 1910.43 331.19 1809.64 230.21 1852.52 187.24 1951.63 289.91"/><polygon class="cls-6" points="1797.23 135.22 1756.03 176.5 1515.45 -64.54 1558.33 -107.5 1797.23 135.22"/><polygon class="cls-7" points="2341.73 0.19 3000 659.7 3000 0 2341.73 0.19"/><polygon class="cls-7" points="2803 558.02 2626.82 769.64 2626.82 386.54 2803 558.02"/><polygon class="cls-7" points="1007.97 -5.44 723.54 284.54 435.98 -3.57 1007.97 -5.44"/><polygon class="cls-7" points="493.29 623.43 983.38 1114.44 14.02 1114.44 493.29 623.43"/><polygon class="cls-7" points="-1 1023.4 330.93 690.84 2.81 362.1 -1 1023.4"/><polygon class="cls-7" points="277.24 556 282.58 0.21 23.99 259.29 277.24 556"/><polygon class="cls-6" points="1589.87 1110.22 2183.5 515.47 2227.22 559.28 1677.31 1110.22 1589.87 1110.22"/><polygon class="cls-6" points="2141.45 480.09 2100.25 521.37 1953.95 374.79 1996.83 331.82 2141.45 480.09"/><polygon class="cls-7" points="3000 755.66 2836.17 591.52 2429.91 1113.23 3000 1113.23 3000 755.66"/><polygon class="cls-6" points="680.08 331.19 345.89 -3.63 345.89 663.83 680.08 331.19"/><polygon class="cls-6" points="185.67 0.21 -1.01 187.24 -1.01 0 185.67 0.21"/></g><path class="cls-8" d="M1216.75,281.9c-3.31-3.3-8.43,1.82-5.12,5.12l61.71,61.71V379l-51.76-51.75c-3.3-3.3-8.42,1.82-5.12,5.12q31.88,31.86,63.73,63.73c3.3,3.3,8.43-1.82,5.12-5.12l-5.24-5.24a3.48,3.48,0,0,0,.51-1.86V324.57a3.72,3.72,0,0,0,1.2.2h28c4.67,0,4.67-7.24,0-7.24H1304l18.06-18.06a3.72,3.72,0,0,0,1.2.2h48.27c4.67,0,4.67-7.24,0-7.24h-42.43q5.59-5.61,11.2-11.2c3.31-3.31-1.82-8.43-5.12-5.12L1310.38,301a3.42,3.42,0,0,0-1-1.67l-10.06-10.06a3.5,3.5,0,0,0,.5-1.86v-57c0-4.67-7.24-4.67-7.24,0v52.09l-3.47-3.48c-3.31-3.3-8.43,1.82-5.12,5.12l20.27,20.28a3.59,3.59,0,0,0,1.67,1q-5.65,5.65-11.3,11.3a3.94,3.94,0,0,0-.65.87h-12.24a3.72,3.72,0,0,0-1.2.21V296.06c0-4.67-7.24-4.67-7.24,0v42.43q-14.83-14.83-29.66-29.66a3.71,3.71,0,0,0,.2-1.19V278.42h29.2c4.67,0,4.67-7.24,0-7.24h-13.76V226.52c0-4.67-7.24-4.67-7.24,0v44.66h-8.2v-8c0-4.67-7.24-4.67-7.24,0v38.57Z"/><path class="cls-8" d="M1597.5,582.09h-44.66V556.75a1.79,1.79,0,0,0,0-.23h21.53c4.67,0,4.67-7.24,0-7.24h-82.08a3.44,3.44,0,0,0-1.85.5l-12.58-12.57h46.3c4.67,0,4.67-7.25,0-7.25h-61.75l37.22-37.21a2.45,2.45,0,0,0,.39,0h51.17c4.67,0,4.67-7.24,0-7.24h-44.36l18.92-18.92c3.31-3.31-1.81-8.43-5.12-5.12l-26.4,26.4-36.66-36.66h49.19c4.67,0,4.67-7.24,0-7.24h-19.26l20.76-20.76h62.23c4.67,0,4.67-7.25,0-7.25h-64.69a3.35,3.35,0,0,0-3.44,2.91L1480,441.2a3.33,3.33,0,0,0-1,2.81h-25.37a3.32,3.32,0,0,0-2.64,1.15c-3.14-1.15-6.67,3.11-3.78,6l13.15,13.16h-66.53l8.3-8.31c3.31-3.3-1.81-8.42-5.12-5.12q-32.38,32.4-64.79,64.79v-2.36c0-4.67-7.24-4.67-7.24,0v9.77a3.23,3.23,0,0,0-.19,3h-10.43V456.64a3.42,3.42,0,0,0,.87-.64l13.38-13.37,18.19,18.2c3.31,3.3,8.43-1.82,5.12-5.12q-3.18-3.19-6.37-6.37H1387c4.67,0,4.67-7.25,0-7.25h-48.28c-.14,0-.26,0-.39,0l-4.62-4.62,42.67-42.68,31.23,31.24c3.31,3.3,8.43-1.82,5.12-5.12l-16-16h112c4.67,0,4.67-7.24,0-7.24h-65.14a3.78,3.78,0,0,0,.21-1.21v-28L1454,378.76a3.3,3.3,0,0,0,3.89.72,3.63,3.63,0,0,0,1.57.34h63.72c4.68,0,4.68-7.25,0-7.25h-18.33q7-7,14-14h33.26c4.67,0,4.67-7.24,0-7.24H1520.6a3.39,3.39,0,0,0-4.83.1l-21.17,21.16h-35.15a3.72,3.72,0,0,0-1.2.21l-13.62-13.63a3.6,3.6,0,0,0-.87-.64v-9.59h47.55c4.67,0,4.67-7.24,0-7.24h-23.65a3.58,3.58,0,0,0,.21-1.22V290.25c0-4.67-7.24-4.67-7.24,0v50.21a3.84,3.84,0,0,0,.21,1.22h-17.08V329.85c0-4.67-7.24-4.67-7.24,0v66.62a3.79,3.79,0,0,0,.2,1.21h-43.9a3.38,3.38,0,0,0-2.4.92l-8.89-8.89,15.79-15.78c3.3-3.31-1.82-8.43-5.12-5.12l-48.86,48.85V396.78a4.22,4.22,0,0,0,.87-.64l27-27c3.3-3.31-1.82-8.43-5.12-5.12q-5.61,5.59-11.2,11.2V352.49a3.28,3.28,0,0,0,3.76-.77l31.47-31.46a3.33,3.33,0,0,0,1,2.47l14.49,14.49c3.3,3.3,8.42-1.82,5.12-5.12l-4.69-4.69L1447.51,286c3.3-3.3-1.82-8.42-5.12-5.12L1401,322.29l-4.68-4.68a3.33,3.33,0,0,0-2.48-1.05q15.26-15.26,30.5-30.5c3.31-3.3-1.81-8.42-5.12-5.12l-9.51,9.51-33.66-33.67c-3.31-3.3-8.43,1.82-5.12,5.12l33.66,33.67-49.67,49.68V330.81c0-4.67-7.25-4.67-7.25,0v51.61l-4.34,4.35v-.92c0-4.67-7.24-4.67-7.24,0v34.76a3.29,3.29,0,0,0,1.44,2.85Q1326,435,1314.37,446.63V380.06c0-4.67-7.24-4.67-7.24,0V528.75a3.35,3.35,0,0,0,2.92,3.44,3.31,3.31,0,0,0,2.63,1.15h1.21v41.23a3.89,3.89,0,0,0-1.22-.21H1304c-4.67,0-4.67,7.24,0,7.24h8.69a3.63,3.63,0,0,0,1.22-.21V779l-6.76-6.76V663c0-4.67-7.24-4.67-7.24,0V767.27c-.13.1-.26.19-.39.31l-6.37,6.38V662c0-4.67-7.24-4.67-7.24,0V779.8a3.71,3.71,0,0,0,.2,1.19l-8.41,8.41V653.07h13.76c2.93,0,4-2.84,3.27-5a3.6,3.6,0,0,0,.34-1.57V600.19c0-4.67-7.24-4.67-7.24,0v45.64h-2.41V591.28h8c3.51,0,4.38-4.09,2.62-6.12,0-.14,0-.26,0-.4V407.1c0-4.67-7.25-4.67-7.25,0v12.5l-43.06-43.07,0,0a3.45,3.45,0,0,0-3.48-3.92h-54.31V341.43c0-4.67-7.24-4.67-7.24,0v13.78l-.24,0H1128V332.5h36c4.67,0,4.67-7.24,0-7.24h-8.93V306.42h19.54c4.67,0,4.67-7.24,0-7.24h-2.84l48.85-48.86c3.31-3.3-1.81-8.42-5.12-5.12l-27,27a3.69,3.69,0,0,0-.69-1l-9.65-9.65c-3.31-3.31-8.43,1.81-5.12,5.12l9.65,9.65a3.73,3.73,0,0,0,1,.69l-20.27,20.26a3.55,3.55,0,0,0-1,1.84h-7.29V278.67c0-4.67-7.24-4.67-7.24,0v46.59H1128V311.5c0-4.67-7.24-4.67-7.24,0v43.69h-34c-4.67,0-4.67,7.24,0,7.24h59.79l-16.8,16.8a3.34,3.34,0,0,0-3.42-2.81h-84c-4.67,0-4.67,7.24,0,7.24h84l.26,0c-.11,2.83,3.58,5.41,6.17,2.82L1154,365.22a3.3,3.3,0,0,0,1-2.79h25.39l.24,0v11.33c-1.71,2.05-.83,6.07,2.65,6.07h56.31a3.54,3.54,0,0,0,1,1.85l48.18,48.18v94.34l-.25,0h-11.85c0-.09,0-.16,0-.25V503.64c0-4.67-7.24-4.67-7.24,0v20.27c0,.09,0,.16,0,.25h-6c-4.67,0-4.67,7.24,0,7.24h25.1a1.9,1.9,0,0,0,.25,0V584h-3.38v-4.1c0-4.67-7.24-4.67-7.24,0V620.6a3.54,3.54,0,0,0-.57-.75l-33.7-33.69V521.7a3.49,3.49,0,0,0,1.83-1l26.07-26.07c3.31-3.31-1.81-8.43-5.12-5.13l-22.78,22.79V498.82c0-4.67-7.25-4.67-7.25,0V523.2h-10.16a3.32,3.32,0,0,0-1-2.8l-46.69-46.68q20.87-20.85,41.71-41.71l19.17,19.16c3.3,3.31,8.42-1.81,5.12-5.12l-19.17-19.16,19.17-19.16c3.3-3.31-1.82-8.43-5.12-5.13l-39,39a3.68,3.68,0,0,0-.31-.38q-9.66-9.66-19.31-19.31c-3.31-3.31-8.43,1.81-5.12,5.12l19.31,19.31a3.68,3.68,0,0,0,.38.31l-21.95,22-36.89-36.89,26.89-26.89c3.31-3.31-1.81-8.43-5.12-5.12l-1.07,1.07a3.72,3.72,0,0,0-1.2-.2h-87.86c-4.67,0-4.67,7.24,0,7.24h82l-18.78,18.78-8.53-8.54c-3.31-3.3-8.43,1.82-5.12,5.12q12.46,12.48,25,24.95l-19.28,19.28a3.71,3.71,0,0,0-1.19-.21h-22.64l-23.08-23.08c-3.3-3.3-8.42,1.82-5.12,5.12.84.84,1.67,1.68,2.51,2.51h-37.61c-4.67,0-4.67,7.25,0,7.25h40.56a3.29,3.29,0,0,0,2.84-1.45l9.66,9.65h-55c-4.67,0-4.67,7.24,0,7.24h82l-12.16,12.17c-3.31,3.3,1.82,8.42,5.12,5.12l38.48-38.48,70,70h-8.64c-4.67,0-4.67,7.25,0,7.25h27.27v48.46l-61.4-61.4c-3.31-3.31-8.43,1.81-5.12,5.12l11.2,11.19h-49.48a1.9,1.9,0,0,0,0-.25v-28c0-4.67-7.24-4.67-7.24,0v8.93h-47.8V493c0-4.14-5.69-4.6-7-1.4a3.79,3.79,0,0,0-1.48-.29H999.83c-4.67,0-4.67,7.24,0,7.24h68.55a3.83,3.83,0,0,0,1.21-.2V514.5h-11.83c-4.67,0-4.67,7.24,0,7.24h66.87v11.83c0,.09,0,.17,0,.25h-21.49c-4.67,0-4.67,7.25,0,7.25h52.09l-16.14,16.13a3.71,3.71,0,0,0-1.19-.2h-76a3.82,3.82,0,0,0-.65-.89q-16-16-31.91-31.91a3.45,3.45,0,0,0-3.48-3.91h-29c-4.67,0-4.67,7.24,0,7.24h25.54L1051.93,557h-26c-4.67,0-4.67,7.24,0,7.24h106.16l-24.14,24.14a3.26,3.26,0,0,0-2.85-1.46h-70.49c-4.67,0-4.67,7.24,0,7.24h67.57l-6.39,6.38c-3.31,3.31,1.81,8.43,5.12,5.12l62.76-62.76a3.42,3.42,0,0,0,1-1.83h18.65a3.27,3.27,0,0,0,3.18-2.08l27.66,27.66H1193c-4.67,0-4.67,7.25,0,7.25h25.11a3.32,3.32,0,0,0,2.4-.93L1246,598.5h-96.5c-4.67,0-4.67,7.24,0,7.24h37.61l-20,20a3.71,3.71,0,0,0-1.19-.2H1087a3.94,3.94,0,0,0-.65-.87L1070,608.25a3.38,3.38,0,0,0-4.83-.09H997.9c-4.67,0-4.67,7.24,0,7.24h67.59a3.71,3.71,0,0,0,1.19-.2q5.17,5.16,10.34,10.34h-54c-4.67,0-4.67,7.24,0,7.24h86.17v25.59h-51.41c-4.67,0-4.67,7.24,0,7.24h52.14a2.45,2.45,0,0,0,.39,0c2,1.77,6.12.9,6.12-2.61V632.78h43.65l-18,18c-3.3,3.3,1.82,8.42,5.12,5.12l8.09-8.09c.1.12.19.25.31.37l39.2,39.2H1135c-4.67,0-4.67,7.24,0,7.24h63.72a3.34,3.34,0,0,0,3.44-2.9l31-31a3.58,3.58,0,0,0,.63-.86h17.34v7.24h-10.86c-4.67,0-4.67,7.24,0,7.24h30.17v118a3.27,3.27,0,0,0,1.45,2.85l-40,40c-2.78,2.79.41,6.84,3.46,6.08a3.45,3.45,0,0,0,2,.59H1275a3.72,3.72,0,0,0,1.2-.21,3.89,3.89,0,0,0,1.22.21h88.71a3.46,3.46,0,0,0,3.47-4,3.37,3.37,0,0,0-.31-4.59l-34.62-34.62a3.32,3.32,0,0,0,.92-2.4V665.63h33.32v20.51c0,4.67,7.24,4.67,7.24,0v-7h81.35c4.67,0,4.67-7.24,0-7.24h-81.35v-6.27h44.65c4.67,0,4.67-7.25,0-7.25h-71.69V647.09l34.66-34.66h0L1397.26,599a2.45,2.45,0,0,0,.39,0h17.81a3.72,3.72,0,0,0-.21,1.2v38.62c0,4.67,7.24,4.67,7.24,0V600.2a3.72,3.72,0,0,0-.2-1.2h15.61a3.6,3.6,0,0,0,.64.87l33.79,33.8c3.31,3.3,8.43-1.82,5.12-5.12l-10.23-10.24h27.27a3.49,3.49,0,0,0,1,1.83l7.44,7.44a3.58,3.58,0,0,0-1.65,1l-29.93,29.93a3.3,3.3,0,0,0-.67,4c-.82,2.14.25,5.08,3.23,5.08h52.14c4.67,0,4.67-7.25,0-7.25h-46.3l26.65-26.64a3.62,3.62,0,0,0,1-1.65l10.34,10.34a3.38,3.38,0,0,0,4.83.09h59.52c4.67,0,4.67-7.24,0-7.24h-60.83c-.14,0-.26,0-.39,0l-16.93-16.93H1528c4.67,0,4.67-7.24,0-7.24h-65.66a3.5,3.5,0,0,0-1.86.51L1447.91,599h39.54c4.67,0,4.67-7.24,0-7.24h-83l14.1-14.09c3.3-3.31-1.82-8.43-5.12-5.12l-64.31,64.3v-44.8l49.49-49.48,13.85,13.85c3.3,3.31,8.43-1.81,5.12-5.12l-4.2-4.2,9.94-9.93c.13,0,.25,0,.39,0h45.65a3.32,3.32,0,0,0,1,2.8l42.49,42.48c3.3,3.31,8.42-1.81,5.12-5.12l-20.86-20.85h48.48a1.81,1.81,0,0,0,0,.23v29.93c0,3.48,4,4.36,6.07,2.66h45.83C1602.17,589.34,1602.17,582.09,1597.5,582.09ZM1200.66,682.94,1160.74,643c-.12-.12-.25-.21-.37-.31l37-37H1225v46.6a2.13,2.13,0,0,0,0,.25H1211.3c-4.67,0-4.67,7.24,0,7.24h12.48Zm57.71-15.87V647.52c0-4.67-7.24-4.67-7.24,0v5.07h-18.87a2.11,2.11,0,0,0,0-.25v-46.6h18.59a3.48,3.48,0,0,0,1.86-.5L1272.47,625c2,2,4.62.91,5.69-1v21.82h-4.1a3.43,3.43,0,0,0-3.5,3.64,4,4,0,0,0-.12.95v16.65ZM1325,533.34V615.9h-3.62l-.24,0V533.34Zm-11.14,255.07a13.15,13.15,0,0,0,2,1.64l17.75,17.75h-26.5V782.51C1309.29,784.67,1311.69,786.24,1313.85,788.41Zm33.9,33.51h-40.62V815h30.41a3.34,3.34,0,0,0,2.41-.92Zm-70.31,12.68a3.83,3.83,0,0,0-1.21.2,3.78,3.78,0,0,0-1.21-.21h-32.29l14.12-14.11a3.29,3.29,0,0,0,2.85,1.44h40.19V834.6Zm-6.9-27.81a3.7,3.7,0,0,0,1.47.29h27.88v7.6h-37.25Zm29.35-29.35v22.4h-22.4Zm7.24,51.73h43.81a3.3,3.3,0,0,0,2.75-1.31l6.74,6.74h-53.3ZM1332,658.38a3.43,3.43,0,0,0-3.5,3.65,4,4,0,0,0-.12.94V792.3l-7.43-7.43a3.69,3.69,0,0,0,.19-1.15V623.12l.24,0h20.52v35.24Zm103.65-143.77Q1422,528.29,1408.27,542l-4.53-4.53,13.85-13.86c3.31-3.3-1.82-8.42-5.12-5.12l-63.34,63.34V552.9c0-4.67-7.24-4.67-7.24,0v63h-9.66v-90l32.64-32.64a3.27,3.27,0,0,0,2.85,1.45h31.86c4.67,0,4.67-7.24,0-7.24h-28.91L1387.1,471a3.5,3.5,0,0,0,1.86.51h78.21c.14,0,.27,0,.4,0q10.76,10.75,21.52,21.52L1453,529.1a4.17,4.17,0,0,0-.64.86h-21.85l10.23-10.23C1444.07,516.43,1439,511.31,1435.64,514.61Z"/><path class="cls-9" d="M1238.33,854.15V839.67c0-4.67-7.24-4.67-7.24,0v14.48c0,4.67,7.24,4.67,7.24,0Z"/><path class="cls-9" d="M1254.5,854.15V839.67c0-4.67-7.25-4.67-7.25,0v14.48c0,4.67,7.25,4.67,7.25,0Z"/><path class="cls-9" d="M1270.66,854.15V839.67c0-4.67-7.24-4.67-7.24,0v14.48c0,4.67,7.24,4.67,7.24,0Z"/><path class="cls-9" d="M1286.82,854.15V839.67c0-4.67-7.24-4.67-7.24,0v14.48c0,4.67,7.24,4.67,7.24,0Z"/><path class="cls-9" d="M1303,854.15V839.67c0-4.67-7.24-4.67-7.24,0v14.48c0,4.67,7.24,4.67,7.24,0Z"/><path class="cls-9" d="M1319.14,854.15V839.67c0-4.67-7.24-4.67-7.24,0v14.48c0,4.67,7.24,4.67,7.24,0Z"/><path class="cls-9" d="M1335.3,854.15V839.67c0-4.67-7.24-4.67-7.24,0v14.48c0,4.67,7.24,4.67,7.24,0Z"/><path class="cls-9" d="M1351.46,854.15V839.67c0-4.67-7.24-4.67-7.24,0v14.48c0,4.67,7.24,4.67,7.24,0Z"/><path class="cls-9" d="M1367.62,854.15V839.67c0-4.67-7.24-4.67-7.24,0v14.48c0,4.67,7.24,4.67,7.24,0Z"/><path class="cls-9" d="M1077.56,404.19a9.17,9.17,0,1,1-9.17-9.17A9.18,9.18,0,0,1,1077.56,404.19Z"/><path class="cls-9" d="M1133.56,470.81a9.17,9.17,0,1,1-9.17-9.16A9.16,9.16,0,0,1,1133.56,470.81Z"/><path class="cls-9" d="M1165.42,404.19a9.17,9.17,0,1,1-9.17-9.17A9.17,9.17,0,0,1,1165.42,404.19Z"/><path class="cls-9" d="M1358.54,349.16a9.17,9.17,0,1,1-9.17-9.17A9.17,9.17,0,0,1,1358.54,349.16Z"/><path class="cls-9" d="M1297.7,424.47a9.17,9.17,0,1,1-9.17-9.17A9.17,9.17,0,0,1,1297.7,424.47Z"/><circle class="cls-9" cx="1086.74" cy="358.81" r="9.17"/><path class="cls-9" d="M1227.21,247.76a9.17,9.17,0,1,1-9.17-9.17A9.17,9.17,0,0,1,1227.21,247.76Z"/><path class="cls-9" d="M1223.36,283.5a9.17,9.17,0,1,1-9.17-9.17A9.17,9.17,0,0,1,1223.36,283.5Z"/><path class="cls-9" d="M1193.43,334.67a9.17,9.17,0,1,1-9.17-9.17A9.18,9.18,0,0,1,1193.43,334.67Z"/><path class="cls-9" d="M1381.72,296.05a9.17,9.17,0,1,1-9.17-9.17A9.18,9.18,0,0,1,1381.72,296.05Z"/><path class="cls-9" d="M1419.37,423.51a9.17,9.17,0,1,1-9.17-9.17A9.17,9.17,0,0,1,1419.37,423.51Z"/><circle class="cls-9" cx="1399.58" cy="491.1" r="9.17"/><path class="cls-9" d="M1606.67,585.72a9.17,9.17,0,1,1-9.17-9.17A9.16,9.16,0,0,1,1606.67,585.72Z"/><path class="cls-9" d="M1248.47,491.08a9.17,9.17,0,1,1-9.17-9.17A9.17,9.17,0,0,1,1248.47,491.08Z"/><path class="cls-9" d="M1251.37,448.61a9.17,9.17,0,1,1-9.17-9.17A9.18,9.18,0,0,1,1251.37,448.61Z"/><circle class="cls-9" cx="1151.42" cy="602.13" r="9.17"/><circle class="cls-9" cx="1059.67" cy="660.05" r="9.17"/><path class="cls-9" d="M1462.81,675.52a9.17,9.17,0,1,1-9.17-9.17A9.17,9.17,0,0,1,1462.81,675.52Z"/><path class="cls-9" d="M1144.17,690a9.17,9.17,0,1,1-9.16-9.17A9.16,9.16,0,0,1,1144.17,690Z"/><path class="cls-9" d="M1560.34,489.16a9.17,9.17,0,1,1-9.17-9.17A9.17,9.17,0,0,1,1560.34,489.16Z"/><circle class="cls-9" cx="1518.33" cy="353.97" r="9.17"/><path class="cls-9" d="M1077.55,610.35a9.17,9.17,0,1,1-9.17-9.17A9.18,9.18,0,0,1,1077.55,610.35Z"/><circle class="cls-9" cx="1073.21" cy="495.93" r="9.17"/><path class="cls-9" d="M1051.48,380.06a9.17,9.17,0,1,1-9.17-9.17A9.18,9.18,0,0,1,1051.48,380.06Z"/><path class="cls-9" d="M1591.22,638.84a9.17,9.17,0,1,1-9.17-9.17A9.17,9.17,0,0,1,1591.22,638.84Z"/><circle class="cls-9" cx="1570.47" cy="419.63" r="9.17"/><path class="cls-9" d="M1380.74,256.93a9.17,9.17,0,1,1-9.17-9.17A9.17,9.17,0,0,1,1380.74,256.93Z"/><circle class="cls-9" cx="1464.25" cy="287.36" r="9.17"/><path class="cls-9" d="M1160.6,278.67a9.17,9.17,0,1,1-9.17-9.17A9.18,9.18,0,0,1,1160.6,278.67Z"/><path class="cls-8" d="M1201.57,901.55h7.66v.61a12.9,12.9,0,0,1-.49,3.7,8,8,0,0,1-1.63,2.79,8.38,8.38,0,0,1-6.56,2.9,9,9,0,0,1-6.67-2.81,9.66,9.66,0,0,1,6.92-16.44,9.45,9.45,0,0,1,4.06.89,11.79,11.79,0,0,1,3.54,2.88l-2,1.91a6.8,6.8,0,0,0-5.56-3,6.65,6.65,0,0,0-4.94,2,6.78,6.78,0,0,0-2,5,7,7,0,0,0,6.72,7,5.57,5.57,0,0,0,3.71-1.4,4.92,4.92,0,0,0,1.84-3.36h-4.62Z"/><path class="cls-8" d="M1212.23,899.51h2.7v1a5.5,5.5,0,0,1,1.32-1.07,3.07,3.07,0,0,1,1.4-.29,4.4,4.4,0,0,1,2.23.69l-1.24,2.47a2.62,2.62,0,0,0-1.5-.55c-1.47,0-2.21,1.11-2.21,3.34v6.07h-2.7Z"/><path class="cls-8" d="M1220.88,905.27a5.81,5.81,0,0,1,1.81-4.31,6.42,6.42,0,0,1,8.86,0,6.28,6.28,0,0,1,0,8.81,6.23,6.23,0,0,1-4.48,1.76,5.93,5.93,0,0,1-4.4-1.8A6,6,0,0,1,1220.88,905.27Zm2.76.05a3.93,3.93,0,0,0,.94,2.78,3.31,3.31,0,0,0,2.53,1,3.28,3.28,0,0,0,2.53-1,4.4,4.4,0,0,0,0-5.46,3.6,3.6,0,0,0-5,0A3.77,3.77,0,0,0,1223.64,905.32Z"/><path class="cls-8" d="M1237.68,899.51l3.06,6.68,3.3-7.75,3.33,7.75,3-6.68h3l-6.12,12.57-3.26-7.53-3.29,7.53-6.11-12.57Z"/><path class="cls-8" d="M1262.43,901.85a9.08,9.08,0,0,1,2.87-6.72,9.44,9.44,0,0,1,6.87-2.81,9.68,9.68,0,0,1,9.64,9.64,9.12,9.12,0,0,1-2.85,6.78,9.81,9.81,0,0,1-13.38.32A9.13,9.13,0,0,1,1262.43,901.85Zm2.82,0a6.88,6.88,0,0,0,11.74,5,7.21,7.21,0,0,0,0-9.95,6.9,6.9,0,0,0-9.76,0A6.7,6.7,0,0,0,1265.25,901.89Z"/><path class="cls-8" d="M1287.52,917.57h-2.7V899.51h2.7v1.27a5,5,0,0,1,3.62-1.59,5.07,5.07,0,0,1,4,1.77,6.41,6.41,0,0,1,1.59,4.46,6.32,6.32,0,0,1-1.58,4.38,5.13,5.13,0,0,1-7.61.1Zm6.42-12.14a4,4,0,0,0-.91-2.74,3,3,0,0,0-2.33-1.07,3.1,3.1,0,0,0-2.41,1,3.92,3.92,0,0,0-.93,2.72,4,4,0,0,0,.93,2.71,3,3,0,0,0,2.4,1,2.92,2.92,0,0,0,2.32-1.06A3.84,3.84,0,0,0,1293.94,905.43Z"/><path class="cls-8" d="M1310.22,906h-8.39a3.63,3.63,0,0,0,.94,2.3,2.85,2.85,0,0,0,2.13.84,2.72,2.72,0,0,0,1.66-.48,6.57,6.57,0,0,0,1.48-1.78l2.28,1.27a9.22,9.22,0,0,1-1.11,1.55,5.63,5.63,0,0,1-1.27,1,4.9,4.9,0,0,1-1.45.61,6.94,6.94,0,0,1-1.69.19,5.48,5.48,0,0,1-4.2-1.68,6.3,6.3,0,0,1-1.59-4.49,6.44,6.44,0,0,1,1.54-4.49,5.87,5.87,0,0,1,8.19,0,6.49,6.49,0,0,1,1.49,4.53Zm-2.78-2.21a2.59,2.59,0,0,0-2.73-2.16,2.82,2.82,0,0,0-.92.15,2.88,2.88,0,0,0-.79.43,2.79,2.79,0,0,0-.6.68,3.31,3.31,0,0,0-.39.9Z"/><path class="cls-8" d="M1313.17,899.51h2.72v1.08a4.38,4.38,0,0,1,3.19-1.4,4,4,0,0,1,3.18,1.28,5.25,5.25,0,0,1,1,3.57v7.17h-2.72v-6.54a4.29,4.29,0,0,0-.48-2.39,1.93,1.93,0,0,0-1.7-.67,2.08,2.08,0,0,0-1.91.89,6.07,6.07,0,0,0-.55,3.06v5.65h-2.72Z"/><path class="cls-8" d="M1345.25,895.43l-2.27,1.34a3.92,3.92,0,0,0-1.21-1.44,2.83,2.83,0,0,0-1.55-.39,2.89,2.89,0,0,0-1.94.67,2,2,0,0,0-.77,1.63c0,.9.68,1.63,2,2.18l1.85.76a7.8,7.8,0,0,1,3.3,2.23,5,5,0,0,1,1,3.22,5.65,5.65,0,0,1-1.71,4.23,5.84,5.84,0,0,1-4.26,1.68,5.68,5.68,0,0,1-4-1.43,6.54,6.54,0,0,1-1.93-4l2.83-.63a4.83,4.83,0,0,0,.67,2.26,3.21,3.21,0,0,0,4.7.33,3,3,0,0,0,.87-2.22,3.37,3.37,0,0,0-.15-1,2.44,2.44,0,0,0-.47-.83,3.85,3.85,0,0,0-.82-.71,8,8,0,0,0-1.21-.63l-1.78-.75q-3.81-1.6-3.81-4.71a4.47,4.47,0,0,1,1.59-3.49,5.81,5.81,0,0,1,4-1.42A5.54,5.54,0,0,1,1345.25,895.43Z"/><path class="cls-8" d="M1348,905.27a5.82,5.82,0,0,1,1.82-4.31,6.42,6.42,0,0,1,8.86,0,6.28,6.28,0,0,1,0,8.81,6.23,6.23,0,0,1-4.48,1.76,6,6,0,0,1-4.41-1.8A6.07,6.07,0,0,1,1348,905.27Zm2.77.05a4,4,0,0,0,.93,2.78,3.34,3.34,0,0,0,2.54,1,3.29,3.29,0,0,0,2.53-1,4.4,4.4,0,0,0,0-5.46,3.6,3.6,0,0,0-5,0A3.73,3.73,0,0,0,1350.8,905.32Z"/><path class="cls-8" d="M1366.07,899.51v6.71c0,1.94.77,2.91,2.29,2.91s2.3-1,2.3-2.91v-6.71h2.7v6.77a7.6,7.6,0,0,1-.35,2.43,4,4,0,0,1-1.16,1.64,5.68,5.68,0,0,1-7,0,4,4,0,0,1-1.18-1.64,6.61,6.61,0,0,1-.34-2.43v-6.77Z"/><path class="cls-8" d="M1376.77,899.51h2.7v1a5.5,5.5,0,0,1,1.32-1.07,3.07,3.07,0,0,1,1.4-.29,4.37,4.37,0,0,1,2.23.69l-1.24,2.47a2.62,2.62,0,0,0-1.5-.55c-1.47,0-2.21,1.11-2.21,3.34v6.07h-2.7Z"/><path class="cls-8" d="M1395.07,900v3.59a6.49,6.49,0,0,0-1.65-1.55,3.54,3.54,0,0,0-4.23.64,3.77,3.77,0,0,0-1,2.68,3.85,3.85,0,0,0,1,2.7,3.28,3.28,0,0,0,2.51,1.06,3.45,3.45,0,0,0,1.72-.42,6.57,6.57,0,0,0,1.69-1.59v3.57a7,7,0,0,1-3.29.85,6.29,6.29,0,0,1-4.54-1.75,6.19,6.19,0,0,1,0-8.8,6.21,6.21,0,0,1,4.54-1.8A6.77,6.77,0,0,1,1395.07,900Z"/><path class="cls-8" d="M1408.34,906H1400a3.58,3.58,0,0,0,.94,2.3,2.85,2.85,0,0,0,2.13.84,2.74,2.74,0,0,0,1.66-.48,6.57,6.57,0,0,0,1.48-1.78l2.28,1.27a9.22,9.22,0,0,1-1.11,1.55,5.86,5.86,0,0,1-1.27,1,4.9,4.9,0,0,1-1.45.61,6.94,6.94,0,0,1-1.69.19,5.48,5.48,0,0,1-4.2-1.68,6.3,6.3,0,0,1-1.59-4.49,6.44,6.44,0,0,1,1.54-4.49,5.87,5.87,0,0,1,8.19,0,6.49,6.49,0,0,1,1.49,4.53Zm-2.77-2.21a2.59,2.59,0,0,0-2.73-2.16,2.82,2.82,0,0,0-.92.15,2.88,2.88,0,0,0-.79.43,2.79,2.79,0,0,0-.6.68,3.31,3.31,0,0,0-.39.9Z"/><polygon class="cls-2" points="511.09 895.66 532.81 938.44 516.33 1008.4 477.1 976.34 483.97 925.03 511.09 895.66"/><path class="cls-10" d="M453.13,881.33a8.18,8.18,0,0,1-8.18-8.18V808.7a8.18,8.18,0,1,1,16.36,0v64.45a8.18,8.18,0,0,1-8.18,8.18"/><path class="cls-10" d="M466.25,881.33H441A8.18,8.18,0,0,1,441,865h25.27a8.18,8.18,0,0,1,0,16.36"/><path class="cls-2" d="M511.09,895.66,538,870.34a113.63,113.63,0,1,0-80.34,194c23.39,0,44,8.54,62-3.58l22.49,3.11-.64-36.51-64.4-51,13.84-65.21,20.15-15.47"/><path class="cls-10" d="M457.62,1075.47a124.79,124.79,0,1,1,88.23-213l8.12,8.12-35.23,33.21-15.3-16.23,18.06-17a102.48,102.48,0,1,0-63.88,182.62"/><path class="cls-11" d="M520.25,1011.37l-16-15.52a64.91,64.91,0,0,0-1.4-91.73L494.48,896l9-8.46,7.64,8.09,7.29-7.51a87.19,87.19,0,0,1,1.88,123.24"/><path class="cls-12" d="M432,950.68a25.66,25.66,0,1,1,25.66,25.66A25.66,25.66,0,0,1,432,950.68"/><path class="cls-10" d="M457.62,987.49a36.81,36.81,0,1,1,36.8-36.81,36.85,36.85,0,0,1-36.8,36.81m0-51.31a14.51,14.51,0,1,0,14.5,14.5,14.53,14.53,0,0,0-14.5-14.5"/><line class="cls-10" x1="537.96" y1="870.34" x2="473.12" y2="930.25"/><rect class="cls-10" x="461.4" y="889.14" width="88.28" height="22.3" transform="translate(-476.75 582.16) rotate(-42.74)"/><polyline class="cls-2" points="469.72 973.31 516.33 1008.39 541.5 1027.34 541.5 1075.47 490.94 1073.03"/><polygon class="cls-10" points="552.65 1075.47 455.59 1075.47 455.59 1053.16 530.34 1053.16 530.34 1032.9 463.01 982.22 476.43 964.4 552.65 1021.77 552.65 1075.47"/><rect class="cls-13" x="563.18" y="808.51" width="12.64" height="12.64" transform="translate(-409.37 641.36) rotate(-45)"/><rect class="cls-13" x="523.39" y="768.72" width="6.04" height="6.04" transform="translate(-391.52 598.27) rotate(-45)"/><path class="cls-13" d="M575.07,734.22a6.44,6.44,0,1,0-6.44,6.44,6.44,6.44,0,0,0,6.44-6.44"/><path class="cls-10" d="M414.42,903.84a8.18,8.18,0,0,1-8.18-8.18v-87a8.18,8.18,0,0,1,16.36,0v87a8.18,8.18,0,0,1-8.18,8.18"/></svg>