<svg id="Layer_1" data-name="Layer 1" xmlns="http://www.w3.org/2000/svg" xmlns:xlink="http://www.w3.org/1999/xlink" viewBox="0 0 3000 1112"><defs><style>.cls-1{fill:none;}.cls-2{fill:#fff;}.cls-3{clip-path:url(#clip-path);}.cls-4{fill:#8e2abe;}.cls-5{fill:#fafafa;}.cls-6{fill:#f9006c;}.cls-7{fill:#ffce08;}.cls-8{fill:#25e899;}.cls-9{fill:#3e00ff;}.cls-10{fill:#15003e;}.cls-11{clip-path:url(#clip-path-2);}.cls-12{fill:#190b3c;}.cls-13{fill:#47b877;}.cls-14{fill:#62bf8b;}.cls-15{clip-path:url(#clip-path-3);}.cls-16{fill:#2d1950;}.cls-16,.cls-17,.cls-18,.cls-20,.cls-21{stroke:#15003e;stroke-miterlimit:10;stroke-width:2px;}.cls-17,.cls-19{fill:#12c77c;}.cls-18{fill:#f4016b;}.cls-20{fill:#efeef2;}.cls-21{fill:#f7f6f8;}</style><clipPath id="clip-path"><rect class="cls-1" x="0.6" y="0.38" width="3000" height="1111.28"/></clipPath><clipPath id="clip-path-2"><rect class="cls-1" x="985.76" y="537.09" width="623.09" height="183.29"/></clipPath><clipPath id="clip-path-3"><rect class="cls-1" x="1193.37" y="259.78" width="235.15" height="258.65"/></clipPath></defs><title>profile</title><rect class="cls-2" x="-18.98" y="-25.34" width="3041.16" height="1164.32"/><g class="cls-3"><circle class="cls-4" cx="1293.73" cy="556.02" r="555.64"/><circle class="cls-5" cx="1293.73" cy="556.02" r="503.09"/><path class="cls-6" d="M1331.9-158.49c-.13,25.57-1.34,51.29-3.49,77.29,335.83,18.08,603.51,297,603.51,637.22,0,326.66-246.75,596.63-563.63,633.7q-2.68,39.22-5.38,78.44c362.21-34.92,646.36-340.93,646.36-712.14C2009.27,174.27,1708.77-138.58,1331.9-158.49Z"/><circle class="cls-7" cx="297.44" cy="954.74" r="367.69" transform="translate(-587.98 489.96) rotate(-45)"/><ellipse class="cls-4" cx="294.87" cy="-10.65" rx="142.4" ry="127.4"/><circle class="cls-4" cx="758.41" cy="99.53" r="106.2"/><circle class="cls-4" cx="637.86" cy="651.01" r="76.58" transform="translate(-273.5 641.71) rotate(-45)"/><path class="cls-8" d="M604.79,46a55,55,0,1,1-55-55A55,55,0,0,1,604.79,46Z"/><path class="cls-4" d="M1010.82,6.23a61.31,61.31,0,1,1-61.31-61.3A61.3,61.3,0,0,1,1010.82,6.23Z"/><circle class="cls-9" cx="804.61" cy="1070.9" r="119.66"/><circle class="cls-4" cx="-157.68" cy="317.95" r="367.69" transform="translate(-271.01 -18.37) rotate(-45)"/><path class="cls-4" d="M2072.42,379.93a24.36,24.36,0,0,1-23.57-18.31c-88.43-344.53-398.94-585.15-755.12-585.15a24.37,24.37,0,0,1-24.37-24.37,24.37,24.37,0,0,1,24.37-24.36c378.43,0,708.35,255.68,802.31,621.76a24.38,24.38,0,0,1-23.62,30.43Z"/><path class="cls-4" d="M1293.73,1384.29a24.36,24.36,0,1,1,0-48.72c374.13,0,696.22-266.34,765.86-633.29a24.36,24.36,0,1,1,47.87,9.08C2033.46,1101.28,1691.24,1384.29,1293.73,1384.29Z"/><rect class="cls-4" x="2301.04" y="0.38" width="703.36" height="1111.28"/><circle class="cls-2" cx="2301.04" cy="556.02" r="555.64"/></g><path class="cls-10" d="M1164.12,764.86h11.45v.92a18.65,18.65,0,0,1-.74,5.53,11.56,11.56,0,0,1-2.42,4.16,12.55,12.55,0,0,1-9.82,4.35,13.48,13.48,0,0,1-10-4.2A14.47,14.47,0,0,1,1169,752.37a17.46,17.46,0,0,1,5.29,4.3l-3,2.86q-3.4-4.54-8.31-4.54a10,10,0,0,0-7.38,3,10.13,10.13,0,0,0-3,7.47,10.41,10.41,0,0,0,10,10.41,8.35,8.35,0,0,0,5.55-2.08,7.39,7.39,0,0,0,2.75-5h-6.91Z"/><path class="cls-10" d="M1180.06,761.81h4v1.56a8,8,0,0,1,2-1.6,4.57,4.57,0,0,1,2.09-.44,6.48,6.48,0,0,1,3.34,1l-1.85,3.7a3.89,3.89,0,0,0-2.25-.83q-3.3,0-3.3,5v9.07h-4Z"/><path class="cls-10" d="M1193,770.43a8.68,8.68,0,0,1,2.71-6.45,9.58,9.58,0,0,1,13.25,0,9.37,9.37,0,0,1,0,13.16,9.27,9.27,0,0,1-6.7,2.64,8.88,8.88,0,0,1-6.58-2.69A9,9,0,0,1,1193,770.43Zm4.13.07a5.88,5.88,0,0,0,1.4,4.15,5.45,5.45,0,0,0,7.57,0,6.57,6.57,0,0,0,0-8.16,5.38,5.38,0,0,0-7.54,0A5.66,5.66,0,0,0,1197.12,770.5Z"/><path class="cls-10" d="M1218.11,761.81l4.58,10,4.93-11.58,5,11.58,4.52-10h4.52l-9.15,18.8-4.87-11.26-4.92,11.26-9.14-18.8Z"/><path class="cls-10" d="M1255.11,765.31a13.57,13.57,0,0,1,4.29-10,14.12,14.12,0,0,1,10.27-4.2,14.49,14.49,0,0,1,14.42,14.41,13.67,13.67,0,0,1-4.27,10.15,14.66,14.66,0,0,1-20,.46A13.63,13.63,0,0,1,1255.11,765.31Zm4.22.06a10.27,10.27,0,0,0,17.54,7.5,10.77,10.77,0,0,0,0-14.87,10.36,10.36,0,0,0-14.6,0A10,10,0,0,0,1259.33,765.37Z"/><path class="cls-10" d="M1292.62,788.81h-4v-27h4v1.9A7.68,7.68,0,0,1,1304,764a9.6,9.6,0,0,1,2.37,6.66,9.44,9.44,0,0,1-2.35,6.56,7.58,7.58,0,0,1-5.89,2.6,7.5,7.5,0,0,1-5.49-2.46Zm9.6-18.15a6,6,0,0,0-1.36-4.09,4.41,4.41,0,0,0-3.49-1.6,4.63,4.63,0,0,0-3.6,1.54,5.84,5.84,0,0,0-1.39,4.06,5.94,5.94,0,0,0,1.39,4.06,4.53,4.53,0,0,0,3.59,1.56,4.35,4.35,0,0,0,3.46-1.58A5.7,5.7,0,0,0,1302.22,770.66Z"/><path class="cls-10" d="M1326.55,771.51H1314a5.32,5.32,0,0,0,1.4,3.43,4.28,4.28,0,0,0,3.18,1.25,4.1,4.1,0,0,0,2.49-.72,10.24,10.24,0,0,0,2.21-2.65l3.41,1.9A13.49,13.49,0,0,1,1325,777a8.92,8.92,0,0,1-1.88,1.58,7.66,7.66,0,0,1-2.17.9,10.73,10.73,0,0,1-2.54.29,8.24,8.24,0,0,1-6.28-2.51,9.44,9.44,0,0,1-2.37-6.72,9.69,9.69,0,0,1,2.3-6.71,7.91,7.91,0,0,1,6.14-2.53,7.81,7.81,0,0,1,6.1,2.46,9.62,9.62,0,0,1,2.23,6.76Zm-4.15-3.31a3.87,3.87,0,0,0-4.07-3.23,4.39,4.39,0,0,0-1.38.22,4,4,0,0,0-1.18.65,4.06,4.06,0,0,0-.91,1,4.63,4.63,0,0,0-.57,1.34Z"/><path class="cls-10" d="M1331,761.81H1335v1.62a6.61,6.61,0,0,1,4.77-2.1,6,6,0,0,1,4.76,1.92c1,1.09,1.47,2.86,1.47,5.33V779.3H1342v-9.77a6.5,6.5,0,0,0-.71-3.57,2.91,2.91,0,0,0-2.55-1,3.11,3.11,0,0,0-2.86,1.33,9.15,9.15,0,0,0-.82,4.58v8.44H1331Z"/><path class="cls-10" d="M1378.92,755.71l-3.39,2a5.91,5.91,0,0,0-1.81-2.16,4.26,4.26,0,0,0-2.32-.57,4.32,4.32,0,0,0-2.89,1,3.07,3.07,0,0,0-1.15,2.45q0,2,3,3.26l2.76,1.14a11.82,11.82,0,0,1,4.94,3.33,7.5,7.5,0,0,1,1.56,4.82,8.48,8.48,0,0,1-2.55,6.32,8.76,8.76,0,0,1-6.37,2.51,8.5,8.5,0,0,1-6-2.14,9.75,9.75,0,0,1-2.89-6l4.24-.94a7.19,7.19,0,0,0,1,3.38,4.35,4.35,0,0,0,3.77,1.8,4.39,4.39,0,0,0,3.25-1.31,4.57,4.57,0,0,0,1.29-3.33,4.64,4.64,0,0,0-.22-1.48,3.92,3.92,0,0,0-.7-1.24,5.64,5.64,0,0,0-1.23-1,11.5,11.5,0,0,0-1.8-1l-2.67-1.11q-5.7-2.4-5.69-7a6.67,6.67,0,0,1,2.38-5.22,8.62,8.62,0,0,1,6-2.12Q1376.23,751,1378.92,755.71Z"/><path class="cls-10" d="M1383.09,770.43a8.68,8.68,0,0,1,2.71-6.45,9.58,9.58,0,0,1,13.25,0,9.37,9.37,0,0,1,0,13.16,9.25,9.25,0,0,1-6.7,2.64,8.88,8.88,0,0,1-6.58-2.69A9,9,0,0,1,1383.09,770.43Zm4.13.07a5.92,5.92,0,0,0,1.4,4.15,5.46,5.46,0,0,0,7.58,0,6.61,6.61,0,0,0,0-8.16,5,5,0,0,0-3.79-1.54,4.89,4.89,0,0,0-3.75,1.54A5.62,5.62,0,0,0,1387.22,770.5Z"/><path class="cls-10" d="M1410.05,761.81v10c0,2.89,1.15,4.34,3.43,4.34s3.43-1.45,3.43-4.34v-10h4v10.13a11.12,11.12,0,0,1-.52,3.62,6,6,0,0,1-1.74,2.46,8.47,8.47,0,0,1-10.39,0,6.2,6.2,0,0,1-1.78-2.46,9.86,9.86,0,0,1-.5-3.62V761.81Z"/><path class="cls-10" d="M1426.05,761.81h4v1.56a8,8,0,0,1,2-1.6,4.49,4.49,0,0,1,2.08-.44,6.45,6.45,0,0,1,3.34,1l-1.85,3.7a3.87,3.87,0,0,0-2.25-.83c-2.19,0-3.3,1.66-3.3,5v9.07h-4Z"/><path class="cls-10" d="M1453.42,762.56v5.37a10.07,10.07,0,0,0-2.48-2.31,4.83,4.83,0,0,0-2.53-.65,5,5,0,0,0-3.79,1.6,5.58,5.58,0,0,0-1.51,4,5.77,5.77,0,0,0,1.45,4,4.89,4.89,0,0,0,3.76,1.58,5.15,5.15,0,0,0,2.57-.63,10.06,10.06,0,0,0,2.53-2.37v5.34a10.63,10.63,0,0,1-4.92,1.27,9.4,9.4,0,0,1-6.79-2.62,8.74,8.74,0,0,1-2.73-6.55,8.84,8.84,0,0,1,2.77-6.61,9.31,9.31,0,0,1,6.78-2.69A10.23,10.23,0,0,1,1453.42,762.56Z"/><path class="cls-10" d="M1473.25,771.51h-12.53a5.37,5.37,0,0,0,1.4,3.43,4.31,4.31,0,0,0,3.18,1.25,4.13,4.13,0,0,0,2.5-.72,10.24,10.24,0,0,0,2.21-2.65l3.41,1.9a14,14,0,0,1-1.67,2.31,9.23,9.23,0,0,1-1.89,1.58,7.54,7.54,0,0,1-2.17.9,10.65,10.65,0,0,1-2.53.29,8.26,8.26,0,0,1-6.29-2.51,9.44,9.44,0,0,1-2.37-6.72,9.69,9.69,0,0,1,2.3-6.71,7.92,7.92,0,0,1,6.14-2.53,7.83,7.83,0,0,1,6.11,2.46,9.66,9.66,0,0,1,2.22,6.76Zm-4.14-3.31A3.87,3.87,0,0,0,1465,765a4.43,4.43,0,0,0-1.38.22,4,4,0,0,0-2.08,1.67,4.65,4.65,0,0,0-.58,1.34Z"/><g class="cls-11"><path class="cls-12" d="M1046.7,645.47H1080v2.66a54.86,54.86,0,0,1-2.14,16.07,34.27,34.27,0,0,1-7,12.11q-11.22,12.63-28.55,12.62a39.21,39.21,0,0,1-29-12.21,41.95,41.95,0,0,1,30-71.43,41.06,41.06,0,0,1,17.64,3.84q7.83,3.84,15.39,12.49l-8.66,8.3q-9.92-13.21-24.16-13.21a28.88,28.88,0,0,0-21.45,8.82q-8.65,8.65-8.66,21.71a28.59,28.59,0,0,0,9.65,22.18q9,8.08,19.57,8.08a24.36,24.36,0,0,0,16.13-6,21.5,21.5,0,0,0,8-14.58H1046.7Z"/><rect class="cls-12" x="1123.07" y="606.85" width="12.16" height="80.57"/><polygon class="cls-12" points="1204.6 618.28 1204.6 687.42 1192.44 687.42 1192.44 618.28 1173.92 618.28 1173.92 606.85 1223.07 606.85 1223.07 618.28 1204.6 618.28"/><path class="cls-12" d="M1318.38,611.16v14.37q-10.55-8.82-21.81-8.82a27.75,27.75,0,0,0-20.92,8.93,30.06,30.06,0,0,0-8.56,21.7,29.35,29.35,0,0,0,8.56,21.4,28.23,28.23,0,0,0,21,8.71,25.77,25.77,0,0,0,10.91-2.08,31.92,31.92,0,0,0,5.19-2.82,60.68,60.68,0,0,0,5.66-4.28V683a43.74,43.74,0,0,1-21.91,5.92,40.46,40.46,0,0,1-29.49-12,40,40,0,0,1-12.16-29.33A41.41,41.41,0,0,1,1265,620.05q12.52-14.76,32.4-14.77a41.22,41.22,0,0,1,21,5.88"/><path class="cls-13" d="M1358.6,633.93q0-17,12.47-29.22a41.05,41.05,0,0,1,29.85-12.21,42.15,42.15,0,0,1,41.9,41.9,39.65,39.65,0,0,1-12.42,29.49A41.57,41.57,0,0,1,1400.29,676q-15.6,0-28-10.8-13.68-12-13.67-31.31m12.26.13q0,13.35,9,22a29.74,29.74,0,0,0,42-.16,31.2,31.2,0,0,0,.11-43.16,30.07,30.07,0,0,0-42.43,0,29,29,0,0,0-8.66,21.37"/><rect class="cls-12" x="1478.63" y="606.85" width="12.16" height="80.57"/><polygon class="cls-12" points="1537.93 687.42 1537.93 601.37 1596.69 662.84 1596.69 606.85 1608.85 606.85 1608.85 692.33 1550.09 631.01 1550.09 687.42 1537.93 687.42"/><path class="cls-12" d="M888.9,576.47V559.29a4.94,4.94,0,1,0-9.87,0v17.56a68.89,68.89,0,0,1,7.64-.44c.75,0,1.49,0,2.23.06"/><path class="cls-13" d="M912.8,616.54l.79.77a38.64,38.64,0,0,1,.83,54.61l-.38.39,3.19,3.1,8,6.31A53.19,53.19,0,0,0,924,607.09l-5,4.72Z"/><path class="cls-13" d="M924.5,682.46l.39-.4c.11-.11.21-.23.31-.34l-8-6.31Z"/><line class="cls-12" x1="935.19" y1="596.51" x2="896.03" y2="632.69"/><path class="cls-12" d="M908.9,645a22.11,22.11,0,0,0-3.45-11.87l18-16.61.15.16,21.28-20.06-4.91-4.9a75.34,75.34,0,1,0-54.5,128.6v0h58.61V688l-39.51-29.74A22.1,22.1,0,0,0,908.9,645m-22.23,8.76a8.76,8.76,0,1,1,8.76-8.76,8.77,8.77,0,0,1-8.76,8.76m43.92,53.12H886.67a61.88,61.88,0,1,1,38.51-110.32L895,624.44A22.23,22.23,0,1,0,893,666.35l37.64,28.33Z"/><rect class="cls-14" x="950.42" y="559.18" width="7.63" height="7.63" transform="translate(-118.61 839.64) rotate(-45)"/><rect class="cls-14" x="903.83" y="561.81" width="3.65" height="3.65" transform="translate(-133.29 805.48) rotate(-45)"/><path class="cls-14" d="M935,541a3.89,3.89,0,1,0-3.89,3.89A3.89,3.89,0,0,0,935,541"/><path class="cls-12" d="M860.59,616.74a4.94,4.94,0,0,1-4.94-4.94V559.29a4.94,4.94,0,1,1,9.87,0V611.8a4.93,4.93,0,0,1-4.93,4.94"/></g><g class="cls-15"><path class="cls-12" d="M1525.53,412.71h47v3.76a77.66,77.66,0,0,1-3,22.68,48.49,48.49,0,0,1-9.94,17.09q-15.84,17.82-40.29,17.81-23.85,0-40.86-17.23a57.12,57.12,0,0,1-17-41.53q0-24.74,17.3-42t42.12-17.3a58,58,0,0,1,24.89,5.42q11,5.43,21.73,17.62l-12.23,11.71q-14-18.63-34.09-18.63-18,0-30.27,12.45-12.22,12.21-12.22,30.63,0,19,13.62,31.3,12.73,11.4,27.62,11.41a34.34,34.34,0,0,0,22.75-8.52q10.08-8.6,11.27-20.57h-28.35Z"/><rect class="cls-12" x="1633.29" y="358.22" width="17.16" height="113.69"/><polygon class="cls-12" points="1748.35 374.35 1748.35 471.92 1731.19 471.92 1731.19 374.35 1705.05 374.35 1705.05 358.23 1774.41 358.23 1774.41 374.35 1748.35 374.35"/><path class="cls-12" d="M1908.91,364.3v20.29q-14.88-12.45-30.78-12.45a39.2,39.2,0,0,0-29.53,12.59q-12.07,12.52-12.08,30.64,0,17.88,12.08,30.19a39.88,39.88,0,0,0,29.6,12.3,36.36,36.36,0,0,0,15.39-2.95,44.57,44.57,0,0,0,7.33-4,87.51,87.51,0,0,0,8-6v20.73A61.8,61.8,0,0,1,1878,474a57.08,57.08,0,0,1-41.61-17,56.42,56.42,0,0,1-17.15-41.38,58.39,58.39,0,0,1,14.36-38.74Q1851.25,356,1879.3,356a58.32,58.32,0,0,1,29.61,8.29"/><path class="cls-13" d="M1965.66,396.44q0-24,17.59-41.24A58,58,0,0,1,2025.37,338q24.32,0,41.68,17.38t17.45,41.75A55.92,55.92,0,0,1,2067,438.71q-17.59,17.16-42.49,17.16-22,0-39.54-15.25-19.29-16.86-19.29-44.18m17.3.18q0,18.84,12.66,31t29.09,12.14a41,41,0,0,0,30.19-12.36,41.81,41.81,0,0,0,12.3-30.46q0-18.17-12.15-30.46t-29.9-12.36a40.53,40.53,0,0,0-30,12.36Q1983,378.67,1983,396.62"/><rect class="cls-12" x="2135.04" y="358.22" width="17.16" height="113.69"/><polygon class="cls-12" points="2218.72 471.92 2218.72 350.49 2301.64 437.23 2301.64 358.23 2318.79 358.23 2318.79 478.84 2235.88 392.32 2235.88 471.92 2218.72 471.92"/><path class="cls-12" d="M1302.85,315.36V291.11a7,7,0,1,0-13.94,0v24.78a98.63,98.63,0,0,1,10.79-.61c1.06,0,2.1,0,3.15.08"/><path class="cls-13" d="M1336.57,371.9l1.12,1.09a54.53,54.53,0,0,1,1.18,77.06l-.55.55,4.5,4.37,11.26,8.9a75.05,75.05,0,0,0-1.75-105.31l-7.06,6.66Z"/><path class="cls-13" d="M1353.09,464.91l.54-.56c.15-.15.29-.32.44-.47L1342.82,455Z"/><line class="cls-12" x1="1368.17" y1="343.64" x2="1312.92" y2="394.69"/><path class="cls-12" d="M1331.07,412.1a31.22,31.22,0,0,0-4.87-16.75l25.37-23.44.22.22,30-28.29-6.92-6.92A106.32,106.32,0,1,0,1298,518.39v0h82.7V472.68l-55.75-42a31.23,31.23,0,0,0,6.14-18.61m-31.37,12.36a12.36,12.36,0,1,1,12.36-12.36,12.37,12.37,0,0,1-12.36,12.36m62,75h-62a87.33,87.33,0,1,1,54.35-155.69l-42.55,39.31a31.37,31.37,0,1,0-2.93,59.13l53.11,40Z"/><rect class="cls-14" x="1389.66" y="290.95" width="10.77" height="10.77" transform="translate(199.05 1073.24) rotate(-45)"/><rect class="cls-14" x="1323.92" y="294.67" width="5.15" height="5.15" transform="translate(178.34 1025.03) rotate(-45)"/><path class="cls-14" d="M1368,265.27a5.49,5.49,0,1,0-5.49,5.49,5.49,5.49,0,0,0,5.49-5.49"/><path class="cls-12" d="M1262.9,372.19a7,7,0,0,1-7-7V291.11a7,7,0,1,1,13.93,0v74.11a7,7,0,0,1-7,7"/></g><path class="cls-16" d="M2534.41,891c-3.48,2.57-7.51,2.13-11.46,2.13q-210.32,0-420.65-.13c-4.69,0-13,2.65-13.12-4.12-.08-7.17,8.26-4.37,13-4.41,26.45-.27,52.91-.09,79.37-.19,3.09,0,6.51,1.16,9.41-1.4-.44-3-3.37-2.85-5.05-4.09-7.13-5.25-10.51-12-8.32-20.89,2.29-9.25,8.68-13.87,17.88-14.67,15.29-1.31,15.39-1.3,15.26-17.3-.09-10.36,1.94-20.64-7.83-29.3-6.44-5.7-2.38-16.61,5.73-21,3.65-2,7.56-2.2,11.55-2.21,2,0,4.48,0,4.76-2.45.4-3.46-2.59-3.26-4.8-3.33-4.63-.15-9.26,0-13.89-.14-2.89-.09-5.38-1.52-5.81-4.46-.41-2.78,2.08-4.49,4.34-4.57,8.78-.35,4.36-7,5.51-11,1.63-5.7-2-5.62-5.76-6.39-5.33-1.1-4.62-5.73-4.62-9.72,0-20.12-.35-40.25.16-60.35.2-8.08-1.93-13.46-8.49-18.61-21.95-17.22-43.36-35.13-64.81-53-15-12.49-16.38-25.42-4.65-40.93,4-5.31,8.2-10.51,12.56-15.54,4.55-5.23,10.45-9.17,17.3-8.26,8.63,1.15,11.75-2.78,15.11-10.09,11.76-25.62,31.43-41.79,59.32-46.29,6.52-1,8.74-3.93,7.72-9.88-1.74-10.17,2.79-12.37,12-11.85,14.18.79,28.43.21,42.65.21,3.94,0,8.14.63,10.14-4.17l13.69-11c2.11-1.26,5.8-1.37,4.93-5.06-.67-2.82-3.67-2.3-5.85-2.31-14.89-.08-29.77,0-44.66-.08-20.31-.14-28.69-8.19-28.3-28.6.37-19.19-6.92-36.68-10.42-55-.81-4.23-4.12-4.35-7.59-4.81-13.82-1.82-18.95-7.79-19.09-21.79-.08-7.71.3-15.44-.09-23.14-.53-10.48,1.33-19.41,12-24,4-1.69,3.27-5.43,3.29-8.67.07-14.08-.09-28.17.1-42.25.06-4-1.78-10.37,4.62-10.13,6.15.24,4,6.57,4.22,10.56.61,10.46-.95,21,1.46,34,20.23-30.87,46.14-48.18,81.41-48s61.27,17.46,82.1,46.65V222.6q0-11.58,0-23.15c0-3.53.52-7.5,4.65-7.55s4.61,4,4.62,7.48q0,25.16,0,50.31c0,6,.13,12.07,0,18.1-.14,4.68.66,8,5.65,10.27,7.27,3.35,10.13,10.16,10.13,18.16,0,9.39.16,18.78,0,28.17-.28,13.32-5.88,20.11-18.83,21.18-6.38.52-8,3.33-9.46,9-4.67,18.84-10.16,37.46-9.21,57.23a17,17,0,0,1-4.17,12.12c-4.53,5-2.85,6.75,2.83,8.5,37.21,11.45,57.68,39.27,59,79.76.42,12.35.42,12.35,12.07,8.23,11.94-4.22,23.09-.4,29.95,10.78a195.18,195.18,0,0,1,9.8,18.55c8.13,17.15,3.65,30.32-13.23,39.19-16.7,8.77-33.39,17.59-50.25,26-6.1,3.06-9.52,5.55-3,11.88,4,3.87,4.52,9.57,4.52,15q0,45.27,0,90.55c0,3.29.43,6.64-3.23,8.81-2.51,1.48-8.78-2-7.21,4.94,1.08,4.73-2.8,12.23,6.49,13a3.67,3.67,0,0,1,3.34,4.29,4.68,4.68,0,0,1-4.73,4.31c-5,.14-9.92,0-14.88.19-1.85.05-4.29-.34-4.44,2.57-.14,2.71,2,3,4,3.27,3,.33,6,.17,8.84,1,11.15,3.22,15.9,17.07,7.52,24.46-6.25,5.52-7.22,11.33-6.79,18.53.14,2.34,0,4.69,0,7,0,16.94,0,17,16.05,18.77,8.79,1,15,5.63,17.38,14.19s-.52,15.86-7.83,21.09c-1.53,1.1-3.14,2.08-4.72,3.11l.12,3.2h97C2533.35,887.1,2533.88,889,2534.41,891ZM2382.66,693.52c-7.14,10.68-9.61,22.42-8.44,35.22.52,5.65.14,11.39,0,17.09-.06,2.88-1.09,5.54-4.36,5.66-3.62.14-4.07-2.92-4.13-5.63-.15-6.7-.51-13.44,0-20.1.69-8.54-2.16-13.22-11.15-13.19,3.91,15.36,2.11,23.17-6.46,28.76s-17.83,3.48-29.39-6.44C2312,729.05,2305,723.43,2298,717.8c-7.33-5.91-13.64-12.12-9-22.88,1.12-2.58-.14-4.64-2.28-6-2.34-1.45-3.62.68-4.8,2.09-4,4.71-8.51,9-14.58,9.74-6.46.78-7,4.34-6.85,9.57.23,11.39,0,22.79.07,34.19,0,3.33-.86,6.63-4.43,6.69-3.9.07-4.05-3.7-4.23-6.73-.14-2.34-.06-4.7-.06-7,0-10.4-.19-20.79.06-31.18.13-5.85-3.42-9.85-7.83-9.82-5,0-2.92,6-2.47,8.78,2.36,14.52-8.7,29.42,1.21,43.66a2.71,2.71,0,0,1,0,2c-1.77,6.12,1.08,7.63,6.58,7.47,4-.11,10.4-1.51,10.36,4.24,0,6.51-6.74,4.49-11.06,4.91a17.1,17.1,0,0,0-3,0c-3.72,1.06-10.38-2.89-10.71,3-.28,5.11,6.26,2.36,9.73,3,6.13,1.18,11.4,3.26,14.21,9.5,2.46,5.45,2.54,12-1.92,14.84-10.83,6.83-8.43,16.92-8.47,26.6-.09,18.41,0,18.41,17.87,18.69,13.06.2,21,5.91,22.67,16.37,1.6,9.79-4,17.43-15.91,22-.39.15-.51,1-.9,1.93h80.8c-13.89-7.7-18.48-15.09-16-25,2.33-9.2,8.94-13.5,17.9-14.95,7.25-1.16,17.19,4,21.17-2.66,3.38-5.72.94-15,1.07-22.69,0-1,0-2,0-3,.19-5.78.24-10.91-6.22-14.4-5.53-3-6-9.31-4.7-15.24s5.23-9.15,10.76-10.56A50.12,50.12,0,0,1,2384,774c2.78-.31,7.29.93,7.25-3-.05-5-5-2.85-7.85-3.09-4.27-.37-8.59,0-12.88-.3a4.39,4.39,0,0,1-4.39-4.54c-.08-1.9,1.14-3.79,2.76-3.52,12.76,2.11,15.26-5.51,15.5-15.94,0-1.68,2-3.35,3.21-5,1-1.35,2.38-2.82,1.39-4.45-7.57-12.44-2.87-26.27-4.45-39.37.86-1,.12-1.61-.62-2C2383.68,692.7,2383.09,693.27,2382.66,693.52Zm-186.11-131.7c1.09-4.4,2.14-7.51,2.58-10.7,1.72-12.46,8.56-21.63,18.24-28.7,3.8-2.78,9.51-7.53,13.08-2.68,4.48,6.09-3,7.86-6.83,10.46-19.65,13.47-20.88,36.88-2.55,52,22.54,18.56,45.22,37,67.82,55.43,11.44,9.36,14.63,20.13,8.12,32.74-4,7.78,0,9.24,5.57,9.31,5.77.08,11.74-.08,15.89,4,11.26,11,26.22,13.55,39.9,19.09,5.39,2.18,8.11.5,10.86-4.66,9.6-18,17.58-36.75,25.85-55.35,1.75-3.93,4.48-8,3.19-14.22-15.19,8-30.05,15.06-44.24,23.33-28.1,16.36-42.21,12.46-55.53-17.07-9.66-21.43-7.25-33.22,13.75-44.19q46.2-24.14,92.45-48.16c24-12.53,25.73-16.27,20.53-43.53-.26-1.31-.54-2.62-.86-3.93-7.82-32.07-34.37-55.51-66.61-56.11-27-.51-56.76,15.82-67.63,46.73-5.47,15.56-5.44,15.57-20,8.67l-2.7-1.27c-35.11-16.32-78.65,1.49-92.84,38.06-1.84,4.74-3.34,9.77,1.44,13.82C2182.55,550.37,2189.17,555.73,2196.55,561.82Zm110.11-212.19v0c7.25,0,14.49-.12,21.73,0a18.63,18.63,0,0,0,11.2-3.24c21.07-14.28,30.18-45.45,20.77-69.54-3.2-8.19-8.46-12.93-16.77-15.3-17.71-5.05-35.85-7.42-53.62-3.21-32.17,7.62-34.27,6.92-39.55,35.66-1.43,7.79,1.14,15.3,3.1,22.56,5.58,20.68,22.26,33.05,43.27,33.06ZM2261,693c5.05.09,9-2.19,12.19-5.8,4.38-5,8.69-10.06,12.69-15.35,8.1-10.71,7.34-19-3.13-27.79-16.22-13.66-32.85-26.82-49.1-40.44-4.27-3.57-6.86-3.48-10.31,1.14-7.76,10.37-15.75,20.61-24.25,30.36-4.81,5.53-4.75,8.66,1.16,13.47,13.55,11,27.68,21.36,40.14,33.85C2245.79,687.8,2252.79,692.23,2261,693Zm47.32-268.21q19.83,0,39.66,0c17.79,0,23.11-6.12,21.5-23.76-.4-4.35-1.94-5.73-6.06-5.72-36.69.09-73.38,0-110.07.07-2.23,0-4.58-.36-5.86,2.46-5.54,12.11,3,26.67,16.2,26.89C2278.58,424.94,2293.46,424.75,2308.34,424.75Zm73.7-154c-5.11-22.74-39.5-52.26-78.77-49.94-31.73,1.88-65.12,29.16-69.13,51.78C2283.33,240.83,2332.33,239.11,2382,270.76Zm-73.12,87.29c-20.47,0-40.93-.05-61.39.06-2.71,0-7.38-1.34-7.42,2.63-.08,7.68,2.36,15.28,5.63,22.1,2.09,4.39,7.72,2.72,11.88,2.73,31.33.06,62.65,0,94,0,19.5,0,19.19-.08,24.48-19.12,2-7.26-.16-8.58-6.74-8.48C2349.2,358.24,2329.06,358.05,2308.92,358.05ZM2329,652.87c1.22-.26,3.34-.28,5-1.15,20.89-10.68,41.67-21.55,62.58-32.19,4.32-2.19,3.27-4.73,1.62-7.94-6.24-12.14-12.75-24.17-18.42-36.59-3.09-6.73-6.21-6.71-12.1-3.51-17.7,9.63-35.75,18.63-53.64,27.91-3.53,1.84-6.94,3.92-9.26,7.33-9,13.19,2.41,22.51,6.43,33.07C2314.1,647.3,2319.42,652.75,2329,652.87Zm-96.08,219.78c11.55,0,23.1-.15,34.65.05,6.81.12,12.22-2,12.68-9.46.5-8.09-5.15-11.27-12.2-11.23-23.4.15-46.78,1.25-70.2.08-6.44-.32-12,2.79-11.72,10.58.24,7.58,5.3,10,12.14,10C2209.82,872.58,2221.37,872.64,2232.92,872.65Zm160,.13v-.12c11.87,0,23.73-.13,35.6.06,6.74.1,11.1-2.87,11.32-9.65s-4.36-10.34-10.82-10.38q-36.06-.26-72.12,0c-6.84,0-11.83,3.36-11.32,10.86.46,6.74,5.11,9.42,11.74,9.31C2369.22,872.63,2381.09,872.78,2393,872.78ZM2187.83,635.55c.59,0,1.73-2.26,3.14-4,5.43-6.72,10.76-13.53,16.18-20.26,15.32-19,15.24-18.89-4.88-33.44-3.56-2.58-5.25-2.25-7.78,1-9,11.54-18.2,22.88-27.31,34.32-1.22,1.53-2.73,3-2,5.29C2165.67,620.24,2183.8,635.3,2187.83,635.55Zm246-38.6c-.63-1.38-1.39-3.22-2.29-5-3.91-7.72-7.91-15.39-11.77-23.14-9.94-19.95-9.86-19.85-29.11-9.27-4.92,2.7-6.92,5.13-3.57,10.81,4.38,7.43,7.81,15.44,11.71,23.17,10.86,21.51,11.4,21.62,31.73,8.28C2432.22,600.68,2434.05,600,2433.81,597Zm-84.09-247.3c9.78,0,16.36-.48,22.83.14,6.08.59,8.12-2.5,9.33-7.62,2.45-10.37,5.22-20.67,7.67-31.05,4.3-18.21-3.1-31.41-20.21-35.28C2376.67,303.18,2371.73,327.48,2349.72,349.65Zm-104.49-72.58c-12.34,7.84-22.43,14.51-18.86,29.48,3,12.66,6.36,25.25,9.62,37.85.64,2.48.76,5.37,4.63,5.27,7.35-.18,14.71-.05,24.24-.05C2244.43,328.31,2237.8,305.34,2245.23,277.07Zm-93,265.87a16.57,16.57,0,0,0-13.45,9.22c-2.69,5.71,3.92,6.77,6.68,9.33,6.57,6.08,13.68,11.55,20.63,17.2,10.71,8.69,10.73,8.67,19.3-2.23.61-.78,1.19-1.61,1.87-2.33,3.63-3.85,2.65-6.63-1.4-9.66-6.89-5.17-13.35-10.92-20.09-16.29C2162.13,545.26,2158.13,542.94,2152.26,542.94ZM2483,564.5c.22-11-4.47-14.19-13.73-9.35-9,4.73-17.81,10.08-27.18,14-8.66,3.59-8.59,7.4-4.86,15.47,4.38,9.47,8.62,10.72,16.83,5.22,6-4,12.8-6.72,19.09-10.29C2478.9,576.26,2482.73,571.5,2483,564.5Zm-27.87-37.16c-11.9,4-23.23,10.83-34.69,17.34-2,1.14-1.32,3.58-.38,5.46,1.35,2.68,3.11,5.19,4.12,8,2.4,6.63,5.45,8.61,12.24,4.44,9.56-5.87,19.85-10.54,29.8-15.77,8-4.2,8.51-7.54,2.2-14C2465,529.32,2460.73,527.8,2455.15,527.34ZM2134.82,563c-5.31-.18-6.28,1.74-7.49,3.25-5.94,7.48-5.2,17,2.57,24.19,6.58,6,13.75,11.41,20.71,17,2.4,1.94,5,6.06,8.11,2.08,3.9-5.07,10-8.9,10.65-16.07C2169.53,591.8,2133.49,562.93,2134.82,563ZM2417,679.06a30.74,30.74,0,0,0,0-5c-.75-4.48,3.08-11.52-6.38-11.2-7.79.25-16.63-1.77-17.18,10.35-.27,6-.07,12-.09,18,0,3.08,1.17,4.6,4.48,5.23,15.81,3,19.21.39,19.21-15.38Zm-177.37,145.4V810.37c0-2.47-.41-4.24-3.42-5.1-11.35-3.22-16.39.43-16.39,12.36,0,5,.5,10.12-.12,15.07-1,8.35,1.94,10.85,10.24,10.71,7.53-.13,11.07-1.74,9.77-9.92C2239.23,830.55,2239.63,827.47,2239.62,824.46Zm166.58.22c0-4-.4-8.07.09-12,.88-7-3-8-8.24-7.15-4.66.79-12.23-3.58-12.05,6.63.16,8.34,0,16.69,0,25,0,2.71,0,5.07,3.57,6,11.73,3.19,16.59-.34,16.59-12.54Zm-140.08-359.3c-5.26,0-10.52.09-15.78,0-4-.08-7.25.27-7.3,5.58,0,4.6,2,6.76,6.43,6.95,8.36.34,16.18,3,23.62,6.52,4.25,2,6.1,1.38,8.25-2.93,8.09-16.18,8.25-16.09-9.3-16.09Zm64.53,239.91c-5.54-4.59-10.58-8.4-15.2-12.68-6.11-5.66-10.56-4.46-15.52,1.89s-3.86,10.66,2.08,15.09c5.26,3.92,10.25,8.23,15.77,12.71C2319.74,714.78,2324.28,710,2330.65,705.29Zm-121.78,14.2c1.15,4.89-3.78,13.72,8.16,13.15,11.51-.54,15-4.79,15.85-17.89.7-10.42-5-10.2-12.13-10C2208.87,705,2208.87,704.81,2208.87,719.49Zm208.35.26c-1.15-4.71,2.26-11.11-2.39-13.2-5.84-2.63-13.25-2.24-19.27-.19-4.65,1.59-2.22,7.73-2.15,11.77.18,10.81,5.27,14.75,16.47,14.87C2421.61,733.13,2415,724.14,2417.22,719.75Zm-10.66-409.1h.49c-.34-6.65-.58-13.3-1.08-19.93a4.33,4.33,0,0,0-3.8-4.06c-2.17-.18-2.33,2-2.1,3.62,2,13.73-3.53,26.17-6.37,39.07-.47,2.12-2.12,4.63.31,6.44,2,1.49,4.48.71,6.67.12,4.1-1.1,5.72-4.3,5.84-8.25C2406.68,322,2406.56,316.32,2406.56,310.65Zm-189.24-25.18c-6,2.69-7.06,6.28-7.09,10.42-.05,10-.06,20.08,0,30.13,0,4.72,1.74,8.66,6.63,10,4.43,1.18,8.12,1,6.51-5.57C2219.91,316,2214.68,302,2217.32,285.47ZM2395,795.21c4.95,0,9.89,0,14.84,0,3.77,0,6.57-1.25,6.66-5.56.07-3.53-1.91-6-5.28-6.1-10.5-.26-21-.31-31.52,0-3.23.09-5.37,2.53-5.25,6.14.15,4.35,3,5.56,6.7,5.57Q2388.11,795.26,2395,795.21ZM2229.72,795c5,0,9.89-.09,14.84,0,3.92.09,6.5-1.61,6.74-5.6a5.94,5.94,0,0,0-6-6.61c-9.86-.36-19.75-.37-29.6,0-3.45.11-6.37,2.12-6.22,6.38.17,4.86,3.29,6,7.42,5.88C2221.15,794.92,2225.43,795,2229.72,795Zm-21.18-112.36c3.52,3.24-5.12,13.34,6.64,13.13,5.74-.11,13.9,3.84,16.86-3,3.38-7.75-5.27-10.91-9.79-15.33a7.24,7.24,0,0,0-1.54-1.23c-3.55-2-6.26-7.78-10.35-5.77C2206.85,672.18,2209.55,677.77,2208.54,682.63Zm128.18,31.49c-5.91.61-9.82,4.2-9.73,10.87s3.89,10.73,10.49,10.69c7,0,10.87-4.18,10.69-11.44C2348,717.27,2344,714.15,2336.72,714.12ZM2417,643.89c-.08-4.89.48-11.34-4.18-12.44-5.36-1.26-4,6.23-6.44,9.29-1,1.22-1.25,3-2,4.49-3.46,7-1.19,9,6.18,8.81C2418.93,653.86,2416.53,648.13,2417,643.89Zm-17.75,98.47c-4.37.45-7.23,2.81-7.26,7.62,0,4.26,2.25,7,6.58,7.24,4.57.22,7.65-1.77,7.91-6.85S2404,743.11,2399.25,742.36Zm-172.37-.43c-4.53.34-7.42,2.84-7.57,7.39s2.48,7.55,7.13,7.67,7.39-2.51,7.58-7.2S2231.3,742.71,2226.88,741.93Z"/><path class="cls-17" d="M2312.63,441.57q-6.84,5.52-13.69,11c-2.18-4.2-6.14-3.23-9.64-3.26-10.24-.1-20.49,0-30.73-.09-3.11,0-7.55.77-7.27-4.24.19-3.61,3.67-4,6.89-3.95C2276.34,441.28,2294.49,441.41,2312.63,441.57Z"/><path class="cls-18" d="M2196.55,561.82c-7.38-6.09-14-11.45-20.5-17-4.79-4.06-3.29-9.09-1.45-13.83,14.19-36.57,57.73-54.38,92.85-38,.9.41,1.79.84,2.69,1.27,14.56,6.89,14.52,6.88,20-8.68,10.87-30.9,40.59-47.24,67.63-46.73,32.24.6,58.79,24,66.61,56.12.32,1.3.6,2.61.86,3.92,5.21,27.26,3.48,31-20.53,43.54q-46.2,24.12-92.45,48.15c-21,11-23.41,22.77-13.75,44.19,13.32,29.53,27.43,33.44,55.53,17.07,14.2-8.27,29-15.37,44.24-23.33,1.29,6.18-1.44,10.29-3.19,14.22-8.27,18.6-16.25,37.36-25.85,55.35-2.75,5.16-5.47,6.84-10.86,4.66-13.68-5.54-28.64-8.06-39.9-19.09-4.15-4.06-10.12-3.91-15.89-4-5.56-.08-9.58-1.53-5.56-9.31,6.5-12.61,3.31-23.39-8.13-32.75-22.6-18.48-45.28-36.87-67.82-55.42-18.33-15.09-17.09-38.51,2.56-52,3.78-2.59,11.31-4.37,6.82-10.46-3.57-4.85-9.28-.1-13.08,2.68-9.68,7.07-16.51,16.24-18.24,28.7C2198.69,554.31,2197.64,557.42,2196.55,561.82Z"/><path class="cls-19" d="M2306.66,349.63h-9.87c-21,0-37.69-12.38-43.27-33.06-2-7.26-4.53-14.77-3.1-22.56,5.28-28.74,7.38-28,39.55-35.66,17.77-4.21,35.91-1.84,53.62,3.21,8.32,2.37,13.57,7.11,16.77,15.3,9.41,24.09.3,55.26-20.77,69.54a18.63,18.63,0,0,1-11.2,3.24c-7.24-.16-14.48,0-21.73,0Zm32.51-69.41c.15-7.63-7.56-15-15.62-15s-15.34,7.43-15.24,15.4c.11,7.78,7.89,15.41,15.6,15.28S2339,288.16,2339.17,280.22Zm10.68,23.35c-.71-3.54-2.39-6.66-6.27-6.34-3.34.28-6.36,2.22-6.16,6.45.17,3.52,2.29,5.49,5.67,5.68C2347,309.58,2349.15,307.43,2349.85,303.57Z"/><path class="cls-20" d="M2261,693c-8.23-.73-15.23-5.16-20.61-10.56-12.46-12.49-26.59-22.81-40.14-33.85-5.91-4.81-6-7.94-1.16-13.47,8.5-9.75,16.48-20,24.25-30.36,3.45-4.62,6-4.71,10.31-1.14,16.25,13.62,32.88,26.78,49.1,40.44,10.47,8.83,11.23,17.08,3.13,27.79-4,5.29-8.32,10.36-12.69,15.35C2270,690.77,2266.07,693.05,2261,693Zm-27.33-36.56a21.29,21.29,0,0,0,21.13,21.9c11,.17,20.88-9.61,21.22-21,.35-11.59-9.6-21.75-21.33-21.8A21.12,21.12,0,0,0,2233.69,656.4Z"/><path class="cls-20" d="M2308.34,424.75c-14.88,0-29.76.19-44.63-.06-13.16-.22-21.74-14.78-16.2-26.89,1.28-2.82,3.63-2.46,5.86-2.46,36.69,0,73.38,0,110.07-.07,4.12,0,5.66,1.37,6.06,5.72,1.61,17.64-3.71,23.73-21.5,23.76Q2328.17,424.78,2308.34,424.75Z"/><path class="cls-20" d="M2382,270.76c-49.71-31.65-98.71-29.93-147.9,1.84,4-22.62,37.4-49.9,69.13-51.78C2342.54,218.5,2376.93,248,2382,270.76Z"/><path class="cls-17" d="M2308.92,358.05c20.14,0,40.28.19,60.42-.11,6.58-.1,8.76,1.21,6.74,8.48-5.29,19-5,19.11-24.48,19.11-31.33,0-62.65.1-94,0-4.16,0-9.79,1.66-11.88-2.73-3.27-6.82-5.71-14.42-5.63-22.1,0-4,4.71-2.61,7.42-2.63C2268,358,2288.46,358.05,2308.92,358.05Zm55.24,20.17c.07-4.69-4.63-5.21-6.88-7.86-9.14-10.75-13.11-11.08-22-1-4.16,4.7-6,2.77-9.2-.62-8.09-8.61-12.68-8.8-20.23,0-3.54,4.12-5.56,4.35-9.36.69-9.82-9.46-12.94-9.5-21.61.34-3.35,3.8-5,4-8-.07s-8.24-10.16-12.63-5.85c-5.88,5.76,3.35,7.58,6,10.74,8.57,10.22,13,10.45,21.2.81,3.76-4.41,5.65-3.95,9.12-.11,8.38,9.26,13.07,9.42,20.75.21,3.55-4.27,5.51-4.28,9.19-.38,8.87,9.38,12.51,9.58,20.91.45,4.22-4.58,6.61-4.17,9.87.52,1.68,2.41,3.84,4.7,6.91,5.42C2361,382.12,2363.55,381.92,2364.16,378.22Z"/><path class="cls-20" d="M2329,652.87c-9.58-.12-14.9-5.57-17.75-13.07-4-10.56-15.41-19.88-6.43-33.07,2.32-3.41,5.73-5.49,9.26-7.33,17.89-9.28,35.93-18.28,53.64-27.91,5.89-3.2,9-3.22,12.09,3.51,5.68,12.42,12.19,24.44,18.43,36.59,1.65,3.21,2.7,5.75-1.62,7.94-20.91,10.64-41.7,21.51-62.58,32.19C2332.34,652.59,2330.22,652.61,2329,652.87Zm-20.85-29.57c-.7,15.63,15.1,24.88,30.26,17.4,11.25-5.56,22.31-11.54,33.26-17.66,10.63-5.94,12.33-13.47,6.27-25.29s-13.09-14.88-24-9.61q-16.93,8.21-33.55,17.07C2313.36,609,2308.57,614.72,2308.15,623.3Z"/><path class="cls-20" d="M2232.92,872.64c-11.55,0-23.1-.06-34.65,0-6.84.05-11.9-2.41-12.14-10-.24-7.79,5.28-10.9,11.72-10.58,23.42,1.17,46.8.07,70.2-.08,7,0,12.7,3.14,12.2,11.23-.46,7.45-5.87,9.58-12.68,9.46C2256,872.5,2244.47,872.65,2232.92,872.64Z"/><path class="cls-20" d="M2393,872.78c-11.87,0-23.74-.14-35.6.06-6.63.11-11.28-2.57-11.74-9.31-.51-7.5,4.48-10.82,11.32-10.86q36.06-.21,72.12,0c6.46,0,11,3.49,10.82,10.38s-4.58,9.75-11.32,9.65c-11.87-.19-23.73-.06-35.6-.06Z"/><path class="cls-20" d="M2187.83,635.55c-4-.25-22.16-15.3-22.68-17.09-.7-2.33.81-3.76,2-5.29,9.11-11.44,18.33-22.78,27.31-34.32,2.53-3.25,4.22-3.58,7.78-1,20.12,14.55,20.2,14.41,4.88,33.44-5.42,6.73-10.75,13.54-16.18,20.26C2189.56,633.29,2188.42,635.56,2187.83,635.55Z"/><path class="cls-21" d="M2433.81,597c.24,3-1.59,3.73-3.3,4.85-20.33,13.34-20.87,13.23-31.73-8.28-3.9-7.73-7.32-15.74-11.71-23.17-3.35-5.68-1.35-8.11,3.57-10.81,19.25-10.58,19.17-10.68,29.11,9.27,3.86,7.75,7.86,15.42,11.77,23.14C2432.42,593.73,2433.18,595.57,2433.81,597Z"/><path class="cls-20" d="M2349.72,349.65c22-22.18,27-46.47,19.62-73.81,17.11,3.87,24.51,17.07,20.21,35.28-2.45,10.38-5.22,20.68-7.67,31.05-1.21,5.12-3.25,8.21-9.33,7.62C2366.08,349.17,2359.5,349.65,2349.72,349.65Z"/><path class="cls-20" d="M2245.23,277.07c-7.43,28.27-.8,51.24,19.63,72.55-9.53,0-16.89-.13-24.24.05-3.87.1-4-2.79-4.63-5.27-3.26-12.6-6.6-25.19-9.62-37.85C2222.8,291.58,2232.89,284.91,2245.23,277.07Z"/><path class="cls-20" d="M2152.26,542.94c5.87,0,9.87,2.32,13.54,5.24,6.74,5.37,13.2,11.12,20.09,16.29,4.05,3,5,5.81,1.4,9.66-.68.72-1.26,1.55-1.87,2.33-8.57,10.9-8.59,10.92-19.3,2.23-6.95-5.65-14.06-11.12-20.63-17.2-2.76-2.56-9.37-3.62-6.68-9.33A16.57,16.57,0,0,1,2152.26,542.94Z"/><path class="cls-20" d="M2483,564.5c-.29,7-4.12,11.76-9.85,15-6.29,3.57-13.1,6.28-19.09,10.29-8.21,5.51-12.45,4.25-16.83-5.22-3.73-8.07-3.8-11.88,4.86-15.47,9.37-3.88,18.15-9.23,27.18-14C2478.55,550.31,2483.24,553.49,2483,564.5Z"/><path class="cls-20" d="M2455.15,527.34c5.58.46,9.88,2,13.29,5.46,6.31,6.45,5.77,9.79-2.2,14-9.95,5.23-20.24,9.9-29.8,15.77-6.8,4.17-9.84,2.19-12.24-4.44-1-2.79-2.77-5.3-4.12-8-.94-1.88-1.62-4.32.38-5.46C2431.92,538.17,2443.25,531.33,2455.15,527.34Z"/><path class="cls-20" d="M2134.82,563c-1.33,0,34.71,28.84,34.55,30.46-.7,7.17-6.75,11-10.65,16.07-3.07,4-5.71-.14-8.11-2.08-7-5.6-14.13-11-20.71-17-7.77-7.14-8.51-16.71-2.57-24.19C2128.54,564.7,2129.51,562.78,2134.82,563Z"/><path class="cls-20" d="M2417,679.06v2c0,15.77-3.4,18.37-19.21,15.38-3.31-.63-4.49-2.15-4.48-5.23,0-6-.18-12,.09-18,.55-12.12,9.39-10.1,17.18-10.35,9.45-.32,5.63,6.72,6.38,11.2A30.74,30.74,0,0,1,2417,679.06Z"/><path class="cls-20" d="M2239.62,824.46c0,3-.39,6.09.08,9,1.3,8.18-2.24,9.79-9.77,9.92-8.3.14-11.28-2.36-10.24-10.71.62-5,.11-10.05.12-15.07,0-11.93,5-15.58,16.39-12.36,3,.86,3.41,2.63,3.42,5.1Z"/><path class="cls-20" d="M2406.2,824.68v6c0,12.19-4.86,15.73-16.59,12.53-3.58-1-3.57-3.32-3.57-6,0-8.34.12-16.69,0-25-.18-10.21,7.39-5.84,12.05-6.62,5.24-.88,9.12.13,8.24,7.14C2405.8,816.61,2406.2,820.67,2406.2,824.68Z"/><path class="cls-20" d="M2266.12,465.38H2272c17.55,0,17.39-.09,9.3,16.09-2.15,4.3-4,5-8.25,2.93-7.43-3.55-15.26-6.18-23.62-6.52-4.43-.19-6.47-2.35-6.43-6.95.05-5.31,3.33-5.66,7.3-5.58C2255.6,465.47,2260.86,465.38,2266.12,465.38Z"/><path class="cls-20" d="M2330.65,705.29c-6.37,4.73-10.91,9.49-12.87,17-5.52-4.48-10.5-8.79-15.77-12.71-5.94-4.43-7-8.77-2.08-15.09s9.41-7.55,15.52-1.89C2320.07,696.89,2325.11,700.7,2330.65,705.29Z"/><path class="cls-20" d="M2208.87,719.49c0-14.68,0-14.48,11.88-14.77,7.14-.17,12.83-.39,12.13,10-.89,13.1-4.34,17.35-15.85,17.89C2205.09,733.21,2210,724.38,2208.87,719.49Z"/><path class="cls-20" d="M2417.22,719.75c-2.18,4.39,4.39,13.38-7.35,13.25-11.19-.12-16.28-4.06-16.46-14.87-.07-4-2.5-10.18,2.15-11.77,6-2.05,13.43-2.45,19.27.19C2419.48,708.64,2416.07,715,2417.22,719.75Z"/><path class="cls-20" d="M2406.56,310.65c0,5.67.12,11.34,0,17-.12,4-1.74,7.15-5.84,8.26-2.19.58-4.66,1.36-6.67-.13-2.43-1.81-.78-4.32-.31-6.44,2.84-12.9,8.36-25.34,6.37-39.07-.23-1.63-.07-3.8,2.1-3.62a4.33,4.33,0,0,1,3.8,4.06c.51,6.63.74,13.29,1.08,19.93Z"/><path class="cls-20" d="M2217.32,285.47c-2.64,16.5,2.59,30.57,6.08,44.94,1.61,6.61-2.08,6.75-6.51,5.57-4.89-1.3-6.59-5.24-6.63-10-.09-10-.08-20.09,0-30.13C2210.26,291.75,2211.35,288.16,2217.32,285.47Z"/><path class="cls-20" d="M2395,795.23q-6.93,0-13.85,0c-3.71,0-6.55-1.22-6.7-5.57-.12-3.61,2-6,5.25-6.14,10.5-.28,21-.23,31.52,0,3.37.09,5.35,2.57,5.28,6.1-.09,4.31-2.89,5.58-6.66,5.56C2404.92,795.19,2400,795.21,2395,795.23Z"/><path class="cls-20" d="M2229.72,795c-4.29,0-8.57-.07-12.86,0-4.13.1-7.25-1-7.42-5.88-.15-4.26,2.77-6.27,6.21-6.38,9.86-.32,19.75-.31,29.6,0a6,6,0,0,1,6.05,6.61c-.24,4-2.82,5.69-6.75,5.6C2239.61,794.9,2234.67,795,2229.72,795Z"/><path class="cls-20" d="M2208.54,682.63c1-4.86-1.7-10.45,1.82-12.16,4.09-2,6.8,3.79,10.35,5.77a7.24,7.24,0,0,1,1.54,1.23c4.52,4.41,13.17,7.58,9.79,15.33-3,6.81-11.12,2.85-16.86,3C2203.42,696,2212.06,685.87,2208.54,682.63Z"/><path class="cls-17" d="M2336.72,714.12c7.29,0,11.28,3.15,11.45,10.12.18,7.25-3.66,11.41-10.69,11.44-6.6,0-10.4-4.12-10.49-10.69S2330.81,714.73,2336.72,714.12Z"/><path class="cls-20" d="M2417,643.89c-.47,4.24,1.93,10-6.42,10.15-7.37.16-9.64-1.84-6.18-8.81.73-1.47,1-3.27,2-4.49,2.48-3.06,1.08-10.55,6.44-9.29C2417.48,632.55,2416.92,639,2417,643.89Z"/><path class="cls-20" d="M2399.25,742.36c4.7.75,7.49,3,7.23,8s-3.34,7.07-7.91,6.85c-4.33-.22-6.61-3-6.58-7.24C2392,745.17,2394.88,742.81,2399.25,742.36Z"/><path class="cls-20" d="M2226.88,741.93c4.42.78,7.34,3.09,7.14,7.86s-3,7.31-7.58,7.2-7.27-3.13-7.12-7.67S2222.35,742.27,2226.88,741.93Z"/><path class="cls-17" d="M2384.54,694.82c-.63-.42-1.27-.83-1.89-1.27.44-.28,1-.85,1.27-.73C2384.66,693.21,2385.4,693.82,2384.54,694.82Z"/><path class="cls-2" d="M2349.85,303.57c-.7,3.86-2.88,6-6.76,5.79-3.38-.19-5.5-2.16-5.67-5.68-.2-4.23,2.82-6.17,6.16-6.45C2347.46,296.91,2349.14,300,2349.85,303.57Z"/><path class="cls-16" d="M2233.69,656.4a21.13,21.13,0,0,1,21-20.86c11.73.05,21.68,10.21,21.33,21.8-.34,11.35-10.23,21.13-21.22,21A21.29,21.29,0,0,1,2233.69,656.4Zm33.39,1c.25-6.52-6.06-13.52-12.38-13.1-7.25.49-11.55,4.74-12,12.16-.52,7.78,4.11,11.88,11.06,12.92C2260.17,670.32,2266.84,663.91,2267.08,657.36Z"/><path class="cls-16" d="M2364.16,378.22c-.61,3.7-3.16,3.91-5.95,3.25-3.07-.72-5.23-3-6.91-5.43-3.26-4.68-5.65-5.1-9.87-.51-8.4,9.13-12,8.93-20.91-.46-3.68-3.9-5.64-3.88-9.19.38-7.68,9.22-12.38,9.06-20.75-.2-3.47-3.84-5.36-4.3-9.13.11-8.22,9.64-12.62,9.41-21.19-.82-2.65-3.16-11.88-5-6-10.74,4.39-4.3,9.53,1.62,12.63,5.86s4.67,3.87,8,.07c8.67-9.84,11.79-9.8,21.61-.34,3.79,3.66,5.82,3.43,9.36-.69,7.55-8.79,12.14-8.61,20.23,0,3.19,3.39,5,5.32,9.2.62,8.86-10.05,12.82-9.72,22,1C2359.53,373,2364.23,373.53,2364.16,378.22Z"/><path class="cls-16" d="M2308.15,623.3c.42-8.58,5.21-14.32,12.26-18.09q16.59-8.9,33.55-17.07c10.89-5.27,17.86-2.32,24,9.61s4.36,19.35-6.27,25.29c-11,6.12-22,12.1-33.26,17.66C2323.25,648.18,2307.45,638.93,2308.15,623.3Zm53.42-29.12c-6.62,3.48-13.92,7.25-21.14,11.18-1.27.68-1.07,2-.59,3.49,5,15,8.57,16.45,22.51,9.14,2-1.08,4.13-2.09,6.11-3.26,3.69-2.18,4.85-5.51,3.22-9.4C2369.8,600.81,2368.33,595.74,2361.57,594.18Zm-33.46,19.15c-7.67-.1-11,4.38-11.34,10.59-.38,6.87,4.35,10.7,10.59,10.74s10.63-3.57,10.75-10.61S2333.75,614.17,2328.11,613.33Z"/><path class="cls-17" d="M2267.08,657.36c-.24,6.55-6.91,13-13.37,12-6.95-1-11.58-5.14-11.06-12.92.49-7.42,4.8-11.67,12-12.16C2261,643.84,2267.33,650.84,2267.08,657.36Z"/><path class="cls-20" d="M2361.57,594.18c6.76,1.56,8.23,6.63,10.12,11.15,1.62,3.89.46,7.22-3.22,9.4-2,1.17-4.08,2.18-6.12,3.26-13.93,7.31-17.53,5.82-22.51-9.14-.48-1.44-.67-2.81.59-3.49C2347.65,601.43,2355,597.66,2361.57,594.18Z"/><path class="cls-17" d="M2328.11,613.33c5.64.84,10.12,3.54,10,10.72s-4.52,10.66-10.75,10.61-11-3.87-10.59-10.75C2317.12,617.71,2320.44,613.23,2328.11,613.33Z"/></svg>