<?xml version="1.0" encoding="utf-8"?>
<!-- Generator: Adobe Illustrator 16.0.0, SVG Export Plug-In . SVG Version: 6.00 Build 0)  -->
<!DOCTYPE svg PUBLIC "-//W3C//DTD SVG 1.1//EN" "http://www.w3.org/Graphics/SVG/1.1/DTD/svg11.dtd">
<svg version="1.1" xmlns="http://www.w3.org/2000/svg" xmlns:xlink="http://www.w3.org/1999/xlink" x="0px" y="0px" width="567px"
	 height="413px" viewBox="0 0 567 413" enable-background="new 0 0 567 413" xml:space="preserve">
<g id="federation_uniform">
</g>
<g id="R2D2">
</g>
<g id="narwhale">
	<path fill="#EFF4EE" stroke="#15003E" stroke-width="4.5" stroke-linejoin="round" stroke-miterlimit="10" d="M121.143,311.52
		h-27.75c-3.176,0-5.75,2.574-5.75,5.75s2.574,5.75,5.75,5.75h27.75c3.176,0,5.75-2.574,5.75-5.75S124.318,311.52,121.143,311.52z"
		/>
	<path fill="#EFF4EE" stroke="#15003E" stroke-width="4.5" stroke-linejoin="round" stroke-miterlimit="10" d="M119.293,311.52
		c0,0,18-29.65,44.5-42.65l-53.5-62c0,0-15.5,48.301-12.5,104.65H119.293z"/>
	<path fill="#EFF4EE" stroke="#15003E" stroke-width="4.5" stroke-linejoin="round" stroke-miterlimit="10" d="M113.793,195.369
		l58.5,69.5c0,0,20.531-10.688,42.609-20.461l-52.428-125.33C146.956,133.874,127.292,158.313,113.793,195.369z"/>
	<path fill="#15003E" stroke="#15003E" stroke-width="4.5" stroke-linejoin="round" stroke-miterlimit="10" d="M95.575,323.02
		c0,6.458,5.235,11.692,11.692,11.692c6.458,0,11.692-5.234,11.693-11.692H95.575z"/>
	
		<line fill="none" stroke="#15003E" stroke-width="4.5" stroke-linecap="round" stroke-linejoin="round" stroke-miterlimit="10" x1="90.793" y1="334.712" x2="122.793" y2="334.712"/>
	<path fill="#15003E" d="M342.793,211.619c17.25-2.833,61.333-19.333,78.114-37.107h-77.774L342.793,211.619z"/>
	
		<path fill="#EFF4EE" stroke="#15003E" stroke-width="4.5" stroke-linecap="round" stroke-linejoin="round" stroke-miterlimit="10" d="
		M349.907,174.512h79.266l-0.058-0.056c11.111-10.654,18.678-25.035,18.678-44.716c0-86.129-95.5-80.906-95.5-80.906l-0.85,44.738
		l5.884,0.287l-0.034,25.219l-6.337,0.169L349.907,174.512z"/>
	
		<path fill="#EFF4EE" stroke="#15003E" stroke-width="4.5" stroke-linecap="round" stroke-linejoin="round" stroke-miterlimit="10" d="
		M193.793,93.572c0,0,63-44.773,149-44.738v160.535c0,0-47.711,3.012-97.5,23.5L193.793,93.572z"/>
	
		<line fill="none" stroke="#25E899" stroke-width="4.5" stroke-linecap="round" stroke-linejoin="round" stroke-miterlimit="10" x1="237.228" y1="235.605" x2="186.533" y2="99.377"/>
	
		<line fill="none" stroke="#25E899" stroke-width="4.5" stroke-linecap="round" stroke-linejoin="round" stroke-miterlimit="10" x1="229.603" y1="238.716" x2="178.063" y2="106.309"/>
	
		<line fill="none" stroke="#25E899" stroke-width="4.5" stroke-linecap="round" stroke-linejoin="round" stroke-miterlimit="10" x1="221.622" y1="241.731" x2="170.793" y2="113.869"/>
	
		<circle fill="#15003E" stroke="#15003E" stroke-width="4.5" stroke-linecap="round" stroke-linejoin="round" stroke-miterlimit="10" cx="304.567" cy="180.486" r="18"/>
	
		<circle fill="none" stroke="#15003E" stroke-width="4.5" stroke-linecap="round" stroke-linejoin="round" stroke-miterlimit="10" cx="302.993" cy="177.217" r="28.955"/>
	
		<path fill="#EFF4EE" stroke="#15003E" stroke-width="4.5" stroke-linecap="round" stroke-linejoin="round" stroke-miterlimit="10" d="
		M298.067,180.486l14.5-3.27c0,0,18.167,55.77-33.111,97.333c-20.889,15.604-41.222-16.729-16.389-32.063
		C263.067,242.486,301.567,219.486,298.067,180.486z"/>
	
		<line fill="none" stroke="#15003E" stroke-width="4.5" stroke-linecap="round" stroke-linejoin="round" stroke-miterlimit="10" x1="292.089" y1="210.997" x2="313.897" y2="214.681"/>
	
		<line fill="none" stroke="#15003E" stroke-width="4.5" stroke-linecap="round" stroke-linejoin="round" stroke-miterlimit="10" x1="284.059" y1="223.479" x2="306.021" y2="240.965"/>
	<path fill="none" stroke="#15003E" stroke-width="4.5" stroke-linecap="round" stroke-linejoin="round" stroke-miterlimit="10" d="
		M304.567,179.021c0,0,3.312,17.653-1.574,33.818"/>
	
		<circle fill="#25E899" stroke="#15003E" stroke-width="4.5" stroke-linecap="round" stroke-linejoin="round" stroke-miterlimit="10" cx="269.645" cy="256.986" r="6.577"/>
	<path fill="none" stroke="#15003E" stroke-width="4.5" stroke-linecap="round" stroke-linejoin="round" stroke-miterlimit="10" d="
		M265.626,251.787c0,0,11.608-7.134,18.433-14.642l7.303,6.442c0,0-8.912,13.073-18.468,19.112"/>
	<polyline fill="#15003E" points="138.373,224.571 193.19,192.506 214.902,244.408 172.293,264.869 138.704,224.964 	"/>
	
		<circle fill="#25E899" stroke="#15003E" stroke-width="4.5" stroke-linecap="round" stroke-linejoin="round" stroke-miterlimit="10" cx="165.32" cy="208.902" r="13.125"/>
	<g>
		
			<circle fill="#0FCE7C" stroke="#15003E" stroke-width="4.5" stroke-linecap="round" stroke-linejoin="round" stroke-miterlimit="10" cx="353.474" cy="133.323" r="21.681"/>
		<circle fill="#FFFFFF" cx="361.483" cy="125.55" r="4.19"/>
	</g>
	<circle fill="#0FCE7C" cx="210.348" cy="98.127" r="4.555"/>
	<circle fill="#0FCE7C" cx="221.293" cy="93.438" r="4.555"/>
	
		<circle fill="#F1F2F2" stroke="#15003E" stroke-width="4.5" stroke-linecap="round" stroke-linejoin="round" stroke-miterlimit="10" cx="128.966" cy="253.793" r="7.423"/>
	
		<path fill="#F1F2F2" stroke="#15003E" stroke-width="4.5" stroke-linecap="round" stroke-linejoin="round" stroke-miterlimit="10" d="
		M124.285,260.369c0,0-6.825,11.5-10.492,28.707"/>
	
		<line fill="none" stroke="#15003E" stroke-width="4.5" stroke-linecap="round" stroke-linejoin="round" stroke-miterlimit="10" x1="97.566" y1="287.331" x2="130.6" y2="296.25"/>
	
		<line fill="none" stroke="#15003E" stroke-width="4.5" stroke-linecap="round" stroke-linejoin="round" stroke-miterlimit="10" x1="97.566" y1="297.952" x2="124.888" y2="303.423"/>
	
		<line fill="none" stroke="#15003E" stroke-width="4.5" stroke-linecap="round" stroke-linejoin="round" stroke-miterlimit="10" x1="93.117" y1="341.869" x2="119.469" y2="341.869"/>
	
		<line fill="none" stroke="#15003E" stroke-width="4.5" stroke-linecap="round" stroke-linejoin="round" stroke-miterlimit="10" x1="91.043" y1="350.119" x2="121.543" y2="350.119"/>
	
		<path fill="#EFF4EE" stroke="#15003E" stroke-width="4.5" stroke-linecap="round" stroke-linejoin="round" stroke-miterlimit="10" d="
		M92.977,350.119c-1.228,2.035-1.934,4.378-1.934,6.875c0,7.801,6.828,14.125,15.25,14.125s15.25-6.324,15.25-14.125
		c0-2.497-0.706-4.84-1.934-6.875H92.977z"/>
	
		<path fill="#EFF4EE" stroke="#15003E" stroke-width="4.5" stroke-linecap="round" stroke-linejoin="round" stroke-miterlimit="10" d="
		M121.543,356.119c0,0,62-23.25,74.5-8s-5.854,43.254-25.25,33.25c-26.5-13.667-55.411-13.033-55.411-13.033
		S122.793,364.702,121.543,356.119z"/>
	
		<path fill="#EFF4EE" stroke="#15003E" stroke-width="4.5" stroke-linecap="round" stroke-linejoin="round" stroke-miterlimit="10" d="
		M90.712,358.121c0,0-20.752,8.248-45.419,2.498c-25.102-5.852-26.292,25.22-12,30.417c18.333,6.667,68.875-20.444,68.875-20.444
		S91.043,368.619,90.712,358.121z"/>
	
		<path fill="#EFF4EE" stroke="#15003E" stroke-width="4.5" stroke-linecap="round" stroke-linejoin="round" stroke-miterlimit="10" d="
		M415.671,83.137c-6.703,4.182-8.748,13.004-4.567,19.706s13.003,8.747,19.706,4.567l89.108-61.889c0,0,2.55-1.195,0.54-4.254
		c-1.401-2.133-4.919-7.475-6.06-9.126c-1.6-2.321-4.902-1.009-4.902-1.009L415.671,83.137z"/>
	<g>
		
			<line fill="none" stroke="#15003E" stroke-width="4.5" stroke-linecap="round" stroke-linejoin="round" stroke-miterlimit="10" x1="516.126" y1="34.762" x2="523.586" y2="29.801"/>
		
			<line fill="none" stroke="#15003E" stroke-width="4.5" stroke-linecap="round" stroke-linejoin="round" stroke-miterlimit="10" x1="540.448" y1="18.588" x2="551.898" y2="10.974"/>
		
			<polyline fill="none" stroke="#25E899" stroke-width="4.5" stroke-linecap="round" stroke-linejoin="round" stroke-miterlimit="10" points="
			523.586,29.801 527.958,26.893 535.237,27.457 536.493,21.217 543.154,16.787 		"/>
	</g>
	
		<line fill="none" stroke="#15003E" stroke-width="4.5" stroke-linecap="round" stroke-linejoin="round" stroke-miterlimit="10" x1="519.856" y1="39.557" x2="528.791" y2="33.615"/>
	
		<line fill="none" stroke="#15003E" stroke-width="4.5" stroke-linecap="round" stroke-linejoin="round" stroke-miterlimit="10" x1="430.193" y1="107.772" x2="424.96" y2="99.703"/>
	
		<line fill="none" stroke="#15003E" stroke-width="4.5" stroke-linecap="round" stroke-linejoin="round" stroke-miterlimit="10" x1="435.449" y1="104.188" x2="430.193" y2="96.369"/>
	
		<polyline fill="none" stroke="#15003E" stroke-width="4.5" stroke-linecap="round" stroke-linejoin="round" stroke-miterlimit="10" points="
		440.925,69.14 458.96,71.869 477.96,61.036 472.825,51.459 	"/>
	<g>
		
			<line fill="none" stroke="#15003E" stroke-width="4.5" stroke-linecap="round" stroke-linejoin="round" stroke-miterlimit="10" x1="321.854" y1="50.128" x2="324.116" y2="93.872"/>
		<circle fill="#15003E" cx="324.15" cy="96.153" r="3.909"/>
	</g>
	<g>
		
			<line fill="none" stroke="#15003E" stroke-width="4.5" stroke-linecap="round" stroke-linejoin="round" stroke-miterlimit="10" x1="258.4" y1="226.862" x2="243.526" y2="184.735"/>
		<circle fill="#15003E" cx="243.209" cy="183.839" r="3.909"/>
	</g>
	<path fill="none" stroke="#15003E" stroke-width="4.5" stroke-linecap="round" stroke-miterlimit="10" d="M351.443,93.572
		c0,0,13.287-0.461,24.831,5.83"/>
</g>
</svg>
