<?xml version="1.0" encoding="utf-8"?>
<!-- Generator: Adobe Illustrator 23.0.1, SVG Export Plug-In . SVG Version: 6.00 Build 0)  -->
<svg version="1.1" id="Layer_1" xmlns="http://www.w3.org/2000/svg" xmlns:xlink="http://www.w3.org/1999/xlink" x="0px" y="0px"
	 viewBox="0 0 78.8227 73.5104" style="enable-background:new 0 0 78.8227 73.5104;" xml:space="preserve">
<style type="text/css">
	.Drop_x0020_Shadow{fill:none;}
	.Round_x0020_Corners_x0020_2_x0020_pt{fill:#FFFFFF;stroke:#000000;stroke-miterlimit:10;}
	.Live_x0020_Reflect_x0020_X{fill:none;}
	.Bevel_x0020_Soft{fill:url(#SVGID_1_);}
	.Dusk{fill:#FFFFFF;}
	.Foliage_GS{fill:#FFDD00;}
	.Pompadour_GS{fill-rule:evenodd;clip-rule:evenodd;fill:#44ADE2;}
	.st0{fill:#FFFFFF;}
	.st1{fill:#48BA78;}
	.st2{fill-rule:evenodd;clip-rule:evenodd;fill:#48BA78;}
	.st3{fill-rule:evenodd;clip-rule:evenodd;fill:#1A0C3D;}
	.st4{fill:#1A0C3D;}
	.st5{fill:#180E3C;}
</style>
<linearGradient id="SVGID_1_" gradientUnits="userSpaceOnUse" x1="-360.8398" y1="-29.6017" x2="-360.1327" y2="-28.8946">
	<stop  offset="0" style="stop-color:#DEDFE3"/>
	<stop  offset="0.1738" style="stop-color:#D8D9DD"/>
	<stop  offset="0.352" style="stop-color:#C9CACD"/>
	<stop  offset="0.5323" style="stop-color:#B4B5B8"/>
	<stop  offset="0.7139" style="stop-color:#989A9C"/>
	<stop  offset="0.8949" style="stop-color:#797C7E"/>
	<stop  offset="1" style="stop-color:#656B6C"/>
</linearGradient>
<path class="st0" d="M38.2218,26.6809v0.34c8.85,0.8,15.92,7.85,16.73,16.7c2.01,0.13,2.02,3.24,0.01,3.38
	c-0.78,8.88-7.8701,15.97-16.7401,16.77v0.57c0,2.19-3.41,2.19-3.41,0v-0.58c-8.85-0.81-15.9-7.89-16.69-16.75
	c-2.14-0.04-2.14-3.37,0.01-3.4c0.82-8.83,7.86-15.87,16.68-16.68v-0.35C34.8118,24.4809,38.2218,24.4909,38.2218,26.6809z"/>
<path class="st0" d="M60.3918,33.8909c0,0.9-0.72,1.62-1.62,1.62c-0.89,0-1.6201-0.72-1.6201-1.62c0-0.02,0-0.05,0.01-0.07
	c-1.71-4.87-5.14-8.02-9.76-8.93c-0.1,0.02-0.2,0.03-0.3,0.03c-0.9,0-1.62-0.72-1.62-1.62c0-0.89,0.72-1.61,1.62-1.61
	c0.33,0,0.63,0.1,0.88,0.26c0.01-0.01,0.02,0.01,0.02,0.01c5.63,1.12,9.94,5.03,11.99,10.88
	C60.2518,33.1209,60.3918,33.4909,60.3918,33.8909z"/>
<path class="st0" d="M64.4318,34.2709c0-0.18,0.03-0.35,0.09-0.51c-0.71-8.4-7.07-15.17-15.4301-16.38
	c-0.12,0.03-0.24,0.04-0.37,0.04c-0.9,0-1.62-0.72-1.62-1.62c0-0.89,0.72-1.62,1.62-1.62c0.3,0,0.58,0.08,0.82,0.23
	c9.76,1.44,17.18,9.34,17.97,19.17c0.1,0.21,0.16,0.44,0.16,0.69c0,0.89-0.72,1.62-1.62,1.62
	C65.1618,35.8909,64.4318,35.1609,64.4318,34.2709z"/>
<g>
	<g>
		<path class="st4" d="M60.3918,33.8909c0,0.9-0.72,1.62-1.62,1.62c-0.89,0-1.6201-0.72-1.6201-1.62c0-0.02,0-0.05,0.01-0.07
			c0.03-0.86,0.74-1.55,1.61-1.55c0.5,0,0.94,0.22,1.22,0.57C60.2518,33.1209,60.3918,33.4909,60.3918,33.8909z"/>
	</g>
</g>
<g>
	<g>
		<path class="st4" d="M48.7218,23.3009c0,0.8-0.57,1.45-1.32,1.59c-0.1,0.02-0.2,0.03-0.3,0.03c-0.9,0-1.62-0.72-1.62-1.62
			c0-0.89,0.72-1.61,1.62-1.61c0.33,0,0.63,0.1,0.88,0.26c0.01-0.01,0.02,0.01,0.02,0.01
			C48.4318,22.2509,48.7218,22.7409,48.7218,23.3009z"/>
	</g>
</g>
<g>
	<g>
		<path class="st4" d="M50.3418,15.8009c0,0.77-0.54,1.41-1.25,1.58c-0.12,0.03-0.24,0.04-0.37,0.04c-0.9,0-1.62-0.72-1.62-1.62
			c0-0.89,0.72-1.62,1.62-1.62c0.3,0,0.58,0.08,0.82,0.23C50.0218,14.6909,50.3418,15.2109,50.3418,15.8009z"/>
	</g>
</g>
<g>
	<g>
		<path class="st4" d="M67.6718,34.2709c0,0.89-0.72,1.62-1.62,1.62c-0.89,0-1.62-0.73-1.62-1.62c0-0.18,0.03-0.35,0.09-0.51
			c0.21-0.65,0.8199-1.11,1.53-1.11c0.65,0,1.21,0.38,1.46,0.93C67.6118,33.7909,67.6718,34.0209,67.6718,34.2709z"/>
	</g>
</g>
<g>
	<g>
		<path class="st1" d="M52.7718,43.7109c-0.8-7.66-6.89-13.75-14.55-14.55c-0.56-0.05-1.13-0.08-1.7-0.08
			c-0.58,0-1.15,0.03-1.71,0.09c-7.67,0.79-13.75,6.88-14.55,14.54c-0.05,0.56-0.08,1.13-0.08,1.7s0.03,1.14,0.08,1.7
			c0.8,7.66,6.88,13.75,14.55,14.55c0.56,0.06,1.13,0.09,1.71,0.09c0.5699,0,1.14-0.03,1.7-0.08c7.66-0.8,13.75-6.9,14.55-14.56
			c0.05-0.56,0.08-1.1299,0.08-1.7S52.8218,44.2709,52.7718,43.7109z M38.1918,57.9709c-0.55,0.08-1.1,0.12-1.67,0.12
			c-0.57,0-1.13-0.04-1.6801-0.12c-5.65-0.74-10.1299-5.21-10.8799-10.86c-0.08-0.56-0.1201-1.12-0.1201-1.7
			c0-0.58,0.04-1.14,0.1201-1.7c0.75-5.64,5.21-10.1,10.85-10.85c0.56-0.08,1.13-0.12,1.71-0.12c0.58,0,1.14,0.04,1.7,0.12
			c5.64,0.75,10.1,5.21,10.85,10.85c0.08,0.56,0.12,1.12,0.12,1.7c0,0.58-0.04,1.14-0.12,1.7
			C48.3218,52.7609,43.8418,57.2409,38.1918,57.9709z"/>
	</g>
</g>
<g>
	<g>
		<path class="st4" d="M54.9518,43.7209c-0.81-8.85-7.88-15.9-16.73-16.7c-0.55-0.05-1.11-0.08-1.68-0.08
			c-0.58,0-1.16,0.03-1.73,0.09c-8.82,0.81-15.86,7.85-16.68,16.68c-0.06,0.57-0.09,1.15-0.09,1.74c0,0.56,0.03,1.11,0.08,1.66
			c0.79,8.86,7.84,15.94,16.69,16.75c0.57,0.06,1.15,0.09,1.73,0.09c0.57,0,1.13-0.03,1.68-0.08c8.87-0.8,15.96-7.89,16.7401-16.77
			c0.06-0.54,0.08-1.09,0.08-1.65C55.0418,44.8709,55.0118,44.2909,54.9518,43.7209z M51.2518,45.4509c0,0.56-0.03,1.12-0.1,1.66
			c-0.7599,6.78-6.15,12.1801-12.93,12.95c-0.55,0.07-1.11,0.1-1.68,0.1c-0.59,0-1.16-0.03-1.73-0.11
			c-6.75-0.79-12.12-6.18-12.88-12.94c-0.07-0.54-0.1-1.1-0.1-1.66c0-0.59,0.03-1.17,0.11-1.74c0.79-6.74,6.14-12.09,12.87-12.87
			c0.57-0.08,1.14-0.11,1.73-0.11c0.57,0,1.13,0.03,1.68,0.1c6.75,0.77,12.13,6.13,12.92,12.88
			C51.2218,44.2809,51.2518,44.8609,51.2518,45.4509z"/>
	</g>
</g>
<g>
	<g>
		<path class="st4" d="M38.2218,58.2309v6.21c0,2.19-3.41,2.19-3.41,0v-6.21c0-0.09,0.01-0.1801,0.03-0.26
			c0.2401-1.85,3.11-1.84,3.35,0C38.2118,58.0509,38.2218,58.1409,38.2218,58.2309z"/>
	</g>
</g>
<g>
	<g>
		<path class="st4" d="M54.9618,47.1009c-0.04,0.0099-0.09,0.0099-0.14,0.0099h-6.21c-2.19,0-2.19-3.4,0-3.4h6.21
			c0.05,0,0.09,0,0.13,0.01C56.9618,43.8509,56.9718,46.9609,54.9618,47.1009z"/>
	</g>
</g>
<g>
	<g>
		<path class="st4" d="M24.3718,47.1109h-6.25c-2.14-0.04-2.14-3.37,0.01-3.4h6.24C26.5718,43.7109,26.5618,47.1109,24.3718,47.1109
			z"/>
	</g>
</g>
<g>
	<g>
		<path class="st4" d="M38.2218,26.6809v6.21c0,2.19-3.41,2.19-3.41,0v-6.21C34.8118,24.4809,38.2218,24.4909,38.2218,26.6809z"/>
	</g>
</g>
<g>
	<g>
		<path class="st1" d="M52.7718,43.7109c-0.8-7.66-6.89-13.75-14.55-14.55c-0.56-0.05-1.13-0.08-1.7-0.08
			c-0.58,0-1.15,0.03-1.71,0.09c-7.67,0.79-13.75,6.88-14.55,14.54c-0.05,0.56-0.08,1.13-0.08,1.7s0.03,1.14,0.08,1.7
			c0.8,7.66,6.88,13.75,14.55,14.55c0.56,0.06,1.13,0.09,1.71,0.09c0.5699,0,1.14-0.03,1.7-0.08c7.66-0.8,13.75-6.9,14.55-14.56
			c0.05-0.56,0.08-1.1299,0.08-1.7S52.8218,44.2709,52.7718,43.7109z M38.1918,57.9709c-0.55,0.08-1.1,0.12-1.67,0.12
			c-0.57,0-1.13-0.04-1.6801-0.12c-5.65-0.74-10.1299-5.21-10.8799-10.86c-0.08-0.56-0.1201-1.12-0.1201-1.7
			c0-0.58,0.04-1.14,0.1201-1.7c0.75-5.64,5.21-10.1,10.85-10.85c0.56-0.08,1.13-0.12,1.71-0.12c0.58,0,1.14,0.04,1.7,0.12
			c5.64,0.75,10.1,5.21,10.85,10.85c0.08,0.56,0.12,1.12,0.12,1.7c0,0.58-0.04,1.14-0.12,1.7
			C48.3218,52.7609,43.8418,57.2409,38.1918,57.9709z"/>
	</g>
</g>
<g>
	<g>
		<path class="st4" d="M54.9518,43.7209c-0.81-8.85-7.88-15.9-16.73-16.7c-0.55-0.05-1.11-0.08-1.68-0.08
			c-0.58,0-1.16,0.03-1.73,0.09c-8.82,0.81-15.86,7.85-16.68,16.68c-0.06,0.57-0.09,1.15-0.09,1.74c0,0.56,0.03,1.11,0.08,1.66
			c0.79,8.86,7.84,15.94,16.69,16.75c0.57,0.06,1.15,0.09,1.73,0.09c0.57,0,1.13-0.03,1.68-0.08c8.87-0.8,15.96-7.89,16.7401-16.77
			c0.06-0.54,0.08-1.09,0.08-1.65C55.0418,44.8709,55.0118,44.2909,54.9518,43.7209z M51.2518,45.4509c0,0.56-0.03,1.12-0.1,1.66
			c-0.7599,6.78-6.15,12.1801-12.93,12.95c-0.55,0.07-1.11,0.1-1.68,0.1c-0.59,0-1.16-0.03-1.73-0.11
			c-6.75-0.79-12.12-6.18-12.88-12.94c-0.07-0.54-0.1-1.1-0.1-1.66c0-0.59,0.03-1.17,0.11-1.74c0.79-6.74,6.14-12.09,12.87-12.87
			c0.57-0.08,1.14-0.11,1.73-0.11c0.57,0,1.13,0.03,1.68,0.1c6.75,0.77,12.13,6.13,12.92,12.88
			C51.2218,44.2809,51.2518,44.8609,51.2518,45.4509z"/>
	</g>
</g>
<g>
	<g>
		<path class="st4" d="M38.2218,58.2309v6.21c0,2.19-3.41,2.19-3.41,0v-6.21c0-0.09,0.01-0.1801,0.03-0.26
			c0.2401-1.85,3.11-1.84,3.35,0C38.2118,58.0509,38.2218,58.1409,38.2218,58.2309z"/>
	</g>
</g>
<g>
	<g>
		<path class="st4" d="M54.9618,47.1009c-0.04,0.0099-0.09,0.0099-0.14,0.0099h-6.21c-2.19,0-2.19-3.4,0-3.4h6.21
			c0.05,0,0.09,0,0.13,0.01C56.9618,43.8509,56.9718,46.9609,54.9618,47.1009z"/>
	</g>
</g>
<g>
	<g>
		<path class="st4" d="M24.3718,47.1109h-6.25c-2.14-0.04-2.14-3.37,0.01-3.4h6.24C26.5718,43.7109,26.5618,47.1109,24.3718,47.1109
			z"/>
	</g>
</g>
<g>
	<g>
		<path class="st4" d="M38.2218,26.6809v6.21c0,2.19-3.41,2.19-3.41,0v-6.21C34.8118,24.4809,38.2218,24.4909,38.2218,26.6809z"/>
	</g>
</g>
<g>
	<path class="st4" d="M67.5518,34.1909l-2.99,0.15c-0.01-0.19-0.02-0.39-0.04-0.58c-0.71-8.4-7.07-15.17-15.4301-16.38
		c-0.22-0.04-0.43-0.07-0.65-0.09l0.33-2.98c0.2599,0.03,0.52,0.06,0.77,0.1c9.76,1.44,17.18,9.34,17.97,19.17
		C67.5318,33.7809,67.5418,33.9909,67.5518,34.1909z"/>
</g>
<g>
	<path class="st4" d="M60.2618,33.6309l-2.87,0.88c-0.07-0.23-0.15-0.46-0.23-0.69c-1.71-4.87-5.14-8.02-9.76-8.93
		c-0.18-0.04-0.36-0.07-0.54-0.1l0.47-2.97c0.22,0.04,0.44,0.07,0.65,0.13c0.01-0.01,0.02,0.01,0.02,0.01
		c5.63,1.12,9.94,5.03,11.99,10.88C60.0918,33.1009,60.1818,33.3609,60.2618,33.6309z"/>
</g>
<g>
	<circle class="st4" cx="36.4935" cy="45.4123" r="5.9589"/>
</g>
</svg>
