<?xml version="1.0" encoding="utf-8"?>
<!-- Generator: Adobe Illustrator 23.0.1, SVG Export Plug-In . SVG Version: 6.00 Build 0)  -->
<svg version="1.1" id="Layer_1" xmlns="http://www.w3.org/2000/svg" xmlns:xlink="http://www.w3.org/1999/xlink" x="0px" y="0px"
	 viewBox="0 0 78.8227 73.5104" style="enable-background:new 0 0 78.8227 73.5104;" xml:space="preserve">
<style type="text/css">
	.Drop_x0020_Shadow{fill:none;}
	.Round_x0020_Corners_x0020_2_x0020_pt{fill:#FFFFFF;stroke:#000000;stroke-miterlimit:10;}
	.Live_x0020_Reflect_x0020_X{fill:none;}
	.Bevel_x0020_Soft{fill:url(#SVGID_1_);}
	.Dusk{fill:#FFFFFF;}
	.Foliage_GS{fill:#FFDD00;}
	.Pompadour_GS{fill-rule:evenodd;clip-rule:evenodd;fill:#44ADE2;}
	.st0{fill:#FFFFFF;}
	.st1{fill:#48BA78;}
	.st2{fill-rule:evenodd;clip-rule:evenodd;fill:#48BA78;}
	.st3{fill-rule:evenodd;clip-rule:evenodd;fill:#1A0C3D;}
	.st4{fill:#1A0C3D;}
	.st5{fill:#180E3C;}
</style>
<linearGradient id="SVGID_1_" gradientUnits="userSpaceOnUse" x1="-458.4311" y1="-29.6017" x2="-457.724" y2="-28.8946">
	<stop  offset="0" style="stop-color:#DEDFE3"/>
	<stop  offset="0.1738" style="stop-color:#D8D9DD"/>
	<stop  offset="0.352" style="stop-color:#C9CACD"/>
	<stop  offset="0.5323" style="stop-color:#B4B5B8"/>
	<stop  offset="0.7139" style="stop-color:#989A9C"/>
	<stop  offset="0.8949" style="stop-color:#797C7E"/>
	<stop  offset="1" style="stop-color:#656B6C"/>
</linearGradient>
<path class="st0" d="M13.7664,53.8686c0.6,0.84,0.53,2.01-0.21,2.77c-0.84,0.86-2.21,0.88-3.0699,0.05
	c-0.1801-0.17-0.32-0.36-0.42-0.57c-8.44-10.7-8.16-25.73,0.72-36.09c0.06-0.09,0.13-0.17,0.2-0.25c0.02-0.03,0.04-0.06,0.0699-0.09
	c0.83-0.86,2.2-0.88,3.06-0.04c0.86,0.83,0.88,2.2,0.05,3.06c-0.02,0.02-0.04,0.04-0.06,0.05c-7.67,8.88-7.86,21.84-0.46,30.96
	C13.6863,53.7686,13.7264,53.8187,13.7664,53.8686z"/>
<path class="st0" d="M20.1564,50.6586c-0.86,0.83-2.24,0.81-3.07-0.05c-0.0827-0.0827-0.134-0.1852-0.1984-0.2811l-0.0016,0.0011
	c-0.05-0.08-0.11-0.15-0.16-0.23c-4.59-6.71-4.9-14.95-0.85-22.74c0-0.02,0.01-0.04,0.02-0.06c0.07-0.2,0.16-0.39,0.3-0.56
	c0.07-0.11,0.15-0.21,0.25-0.31c0.86-0.83,2.23-0.81,3.07,0.05c0.62,0.64,0.76,1.56,0.44,2.34v0.0099
	c-0.08,0.14-0.15,0.27-0.23,0.41c-3.4,6.48-3.19,13.02,0.6,18.5C21.0364,48.5986,20.9664,49.8686,20.1564,50.6586z"/>
<path class="st0" d="M37.5364,55.1386v-0.16c-8.22-0.73-14.78-7.29-15.52-15.51h-0.52c-2.03,0-2.03-3.15,0-3.15h0.53
	c0.76-8.2,7.31-14.7401,15.52-15.47c0.04-1.97,3.1-1.96,3.14,0.01c8.17,0.76,14.7,7.29,15.45,15.46h0.32c2.03,0,2.03,3.15,0,3.15
	h-0.31c-0.74,8.2-7.27,14.74-15.46,15.5v0.17C40.6863,57.1686,37.5364,57.1686,37.5364,55.1386z"/>
<path class="st0" d="M59.0764,47.1086c3.41-6.49,3.21-13.04-0.58-18.52c-0.71-0.86-0.64-2.13,0.17-2.92
	c0.86-0.83,2.24-0.81,3.07,0.05c0.16,0.16,0.28,0.34,0.37,0.54c4.58,6.7,4.88,14.9301,0.84,22.71c0,0.01,0,0.03-0.01,0.04
	c-0.068,0.1979-0.1765,0.3867-0.3033,0.5674c-0.0024,0.0042-0.0043,0.0085-0.0067,0.0126l-0.0023-0.0013
	c-0.0763,0.1074-0.152,0.2155-0.2477,0.3113c-0.86,0.83-2.24,0.81-3.07-0.05c-0.61-0.64-0.7599-1.55-0.45-2.33
	c0.0699-0.13,0.15-0.27,0.21-0.4L59.0764,47.1086z"/>
<path class="st0" d="M65.2664,19.6887c0.84-0.86,2.21-0.88,3.07-0.04c0.18,0.17,0.32,0.36,0.42,0.56
	c8.44,10.7,8.16,25.73-0.72,36.09c-0.06,0.09-0.13,0.17-0.2,0.25c-0.01,0.03-0.04,0.06-0.07,0.09c-0.83,0.86-2.21,0.88-3.06,0.05
	c-0.86-0.84-0.88-2.21-0.05-3.07c0.03-0.03,0.05-0.05,0.08-0.07c7.64-8.87,7.83-21.82,0.4399-30.93c-0.03-0.05-0.08-0.11-0.12-0.16
	C64.4564,21.6186,64.5164,20.4486,65.2664,19.6887z"/>
<g>
	<g>
		<path class="st4" d="M62.9464,48.9686c0,0.01,0,0.03-0.01,0.04c-0.068,0.1979-0.1765,0.3867-0.3033,0.5674
			c-0.0024,0.0042-0.0043,0.0085-0.0067,0.0126l-0.0023-0.0013c-0.0763,0.1074-0.152,0.2155-0.2477,0.3113
			c-0.86,0.83-2.24,0.81-3.07-0.05c-0.61-0.64-0.7599-1.55-0.45-2.33c0.0699-0.13,0.15-0.27,0.21-0.4l0.01-0.01
			c0.08-0.12,0.17-0.23,0.28-0.33c0.86-0.83,2.23-0.81,3.0699,0.05C62.9963,47.4186,63.1664,48.2386,62.9464,48.9686z"/>
	</g>
</g>
<g>
	<g>
		<path class="st4" d="M61.6863,28.7886c-0.86,0.84-2.23,0.81-3.07-0.05c-0.05-0.05-0.09-0.1-0.12-0.15
			c-0.71-0.86-0.64-2.13,0.17-2.92c0.86-0.83,2.24-0.81,3.07,0.05c0.16,0.16,0.28,0.34,0.37,0.54
			C62.5264,27.0786,62.3864,28.1186,61.6863,28.7886z"/>
	</g>
</g>
<g>
	<g>
		<path class="st4" d="M68.3764,22.7086c-0.84,0.86-2.21,0.88-3.07,0.05c-0.05-0.04-0.09-0.09-0.13-0.14
			c-0.03-0.05-0.08-0.11-0.12-0.16c-0.6-0.84-0.54-2.01,0.21-2.77c0.84-0.86,2.21-0.88,3.07-0.04c0.18,0.17,0.32,0.36,0.42,0.56
			C69.1664,21.0186,69.0464,22.0286,68.3764,22.7086z"/>
	</g>
</g>
<g>
	<g>
		<path class="st4" d="M68.0364,56.2986c-0.06,0.09-0.13,0.17-0.2,0.25c-0.01,0.03-0.04,0.06-0.07,0.09
			c-0.83,0.86-2.21,0.88-3.06,0.05c-0.86-0.84-0.88-2.21-0.05-3.07c0.03-0.03,0.05-0.05,0.08-0.07c0.84-0.79,2.16-0.78,2.99,0.03
			C68.4764,54.3087,68.5864,55.4586,68.0364,56.2986z"/>
	</g>
</g>
<g>
	<g>
		<path class="st1" d="M54.1564,36.3187c-0.74-7.1-6.37-12.73-13.47-13.47c-0.52-0.05-1.05-0.08-1.58-0.08
			c-0.53,0-1.06,0.03-1.57,0.08c-7.1,0.74-12.73,6.37-13.47,13.47c-0.05,0.52-0.08,1.05-0.08,1.58c0,0.53,0.03,1.05,0.08,1.57
			c0.73,7.09,6.37,12.73,13.47,13.47c0.51,0.05,1.04,0.08,1.57,0.08c0.53,0,1.06-0.03,1.58-0.08c7.1-0.7401,12.74-6.38,13.47-13.47
			c0.05-0.52,0.08-1.04,0.08-1.57C54.2364,37.3686,54.2064,36.8386,54.1564,36.3187z M40.6863,49.5186
			c-0.51,0.07-1.04,0.11-1.58,0.11c-0.53,0-1.06-0.04-1.57-0.1c-5.23-0.7-9.37-4.85-10.06-10.09c-0.07-0.5-0.1-1.02-0.1-1.54
			c0-0.53,0.03-1.04,0.1-1.55c0.69-5.24,4.83-9.39,10.06-10.09c0.51-0.06,1.04-0.1,1.57-0.1c0.54,0,1.0699,0.04,1.58,0.11
			c5.22,0.7,9.35,4.83,10.05,10.0501c0.0699,0.52,0.11,1.04,0.11,1.58c0,0.53-0.04,1.06-0.1,1.57
			C50.0464,44.6887,45.9164,48.8187,40.6863,49.5186z"/>
	</g>
</g>
<g>
	<g>
		<path class="st4" d="M56.1364,36.3187c-0.75-8.17-7.28-14.7-15.45-15.46c-0.53-0.05-1.07-0.08-1.61-0.08
			c-0.52,0-1.03,0.02-1.53,0.07c-8.21,0.73-14.76,7.27-15.52,15.47c-0.05,0.53-0.08,1.06-0.08,1.6c0,0.52,0.02,1.04,0.07,1.55
			c0.74,8.22,7.3,14.78,15.52,15.51h0.01c0.5,0.05,1.0099,0.07,1.53,0.07c0.54,0,1.07-0.03,1.6-0.08h0.01
			c8.19-0.76,14.72-7.3,15.46-15.5c0.05-0.51,0.07-1.03,0.07-1.55C56.2164,37.3787,56.1863,36.8486,56.1364,36.3187z
			 M52.7064,37.9186c0,0.53-0.03,1.04-0.09,1.55c-0.71,6.25-5.68,11.24-11.93,11.97c-0.53,0.0699-1.06,0.1-1.61,0.1
			c-0.52,0-1.04-0.03-1.54-0.09c-6.28-0.71-11.28-5.7-11.99-11.98c-0.06-0.51-0.09-1.02-0.09-1.55c0-0.54,0.03-1.08,0.1-1.6
			c0.73-6.26,5.72-11.23,11.98-11.94c0.5-0.06,1.02-0.09,1.54-0.09c0.55,0,1.08,0.03,1.61,0.1c6.23,0.73,11.19,5.69,11.92,11.9301
			C52.6763,36.8386,52.7064,37.3787,52.7064,37.9186z"/>
	</g>
</g>
<g>
	<g>
		<path class="st4" d="M27.4764,39.4387c-0.07,0.02-0.15,0.03-0.23,0.03h-5.75c-2.03,0-2.03-3.15,0-3.15h5.75
			c0.08,0,0.16,0.0099,0.23,0.03C29.1964,36.5587,29.1863,39.2286,27.4764,39.4387z"/>
	</g>
</g>
<g>
	<g>
		<path class="st4" d="M40.6876,54.8444v-5.7486c0-2.0287-3.1528-2.0321-3.1528,0v5.7486
			C37.5348,56.8731,40.6876,56.8765,40.6876,54.8444z"/>
	</g>
</g>
<g>
	<g>
		<path class="st4" d="M40.6863,20.8586v5.79c0,2.03-3.15,2.03-3.15,0v-5.75c0-0.02,0-0.04,0.01-0.05
			C37.5864,18.8787,40.6464,18.8886,40.6863,20.8586z"/>
	</g>
</g>
<g>
	<g>
		<path class="st4" d="M56.4564,39.4686h-5.75c-2.03,0-2.02-3.15,0-3.15h5.75C58.4864,36.3187,58.4864,39.4686,56.4564,39.4686z"/>
	</g>
</g>
<g>
	<g>
		<path class="st1" d="M54.1564,36.3187c-0.74-7.1-6.37-12.73-13.47-13.47c-0.52-0.05-1.05-0.08-1.58-0.08
			c-0.53,0-1.06,0.03-1.57,0.08c-7.1,0.74-12.73,6.37-13.47,13.47c-0.05,0.52-0.08,1.05-0.08,1.58c0,0.53,0.03,1.05,0.08,1.57
			c0.73,7.09,6.37,12.73,13.47,13.47c0.51,0.05,1.04,0.08,1.57,0.08c0.53,0,1.06-0.03,1.58-0.08c7.1-0.7401,12.74-6.38,13.47-13.47
			c0.05-0.52,0.08-1.04,0.08-1.57C54.2364,37.3686,54.2064,36.8386,54.1564,36.3187z M40.6863,49.5186
			c-0.51,0.07-1.04,0.11-1.58,0.11c-0.53,0-1.06-0.04-1.57-0.1c-5.23-0.7-9.37-4.85-10.06-10.09c-0.07-0.5-0.1-1.02-0.1-1.54
			c0-0.53,0.03-1.04,0.1-1.55c0.69-5.24,4.83-9.39,10.06-10.09c0.51-0.06,1.04-0.1,1.57-0.1c0.54,0,1.0699,0.04,1.58,0.11
			c5.22,0.7,9.35,4.83,10.05,10.0501c0.0699,0.52,0.11,1.04,0.11,1.58c0,0.53-0.04,1.06-0.1,1.57
			C50.0464,44.6887,45.9164,48.8187,40.6863,49.5186z"/>
	</g>
</g>
<g>
	<g>
		<path class="st4" d="M56.1364,36.3187c-0.75-8.17-7.28-14.7-15.45-15.46c-0.53-0.05-1.07-0.08-1.61-0.08
			c-0.52,0-1.03,0.02-1.53,0.07c-8.21,0.73-14.76,7.27-15.52,15.47c-0.05,0.53-0.08,1.06-0.08,1.6c0,0.52,0.02,1.04,0.07,1.55
			c0.74,8.22,7.3,14.78,15.52,15.51h0.01c0.5,0.05,1.0099,0.07,1.53,0.07c0.54,0,1.07-0.03,1.6-0.08h0.01
			c8.19-0.76,14.72-7.3,15.46-15.5c0.05-0.51,0.07-1.03,0.07-1.55C56.2164,37.3787,56.1863,36.8486,56.1364,36.3187z
			 M52.7064,37.9186c0,0.53-0.03,1.04-0.09,1.55c-0.71,6.25-5.68,11.24-11.93,11.97c-0.53,0.0699-1.06,0.1-1.61,0.1
			c-0.52,0-1.04-0.03-1.54-0.09c-6.28-0.71-11.28-5.7-11.99-11.98c-0.06-0.51-0.09-1.02-0.09-1.55c0-0.54,0.03-1.08,0.1-1.6
			c0.73-6.26,5.72-11.23,11.98-11.94c0.5-0.06,1.02-0.09,1.54-0.09c0.55,0,1.08,0.03,1.61,0.1c6.23,0.73,11.19,5.69,11.92,11.9301
			C52.6763,36.8386,52.7064,37.3787,52.7064,37.9186z"/>
	</g>
</g>
<g>
	<g>
		<path class="st4" d="M27.4764,39.4387c-0.07,0.02-0.15,0.03-0.23,0.03h-5.75c-2.03,0-2.03-3.15,0-3.15h5.75
			c0.08,0,0.16,0.0099,0.23,0.03C29.1964,36.5587,29.1863,39.2286,27.4764,39.4387z"/>
	</g>
</g>
<g>
	<g>
		<path class="st4" d="M40.6863,49.3886v5.75c0,2.03-3.15,2.03-3.15,0v-5.75C37.5364,47.3586,40.6863,47.3586,40.6863,49.3886z"/>
	</g>
</g>
<g>
	<g>
		<path class="st4" d="M40.6863,20.8586v5.79c0,2.03-3.15,2.03-3.15,0v-5.75c0-0.02,0-0.04,0.01-0.05
			C37.5864,18.8787,40.6464,18.8886,40.6863,20.8586z"/>
	</g>
</g>
<g>
	<g>
		<path class="st4" d="M56.4564,39.4686h-5.75c-2.03,0-2.02-3.15,0-3.15h5.75C58.4864,36.3187,58.4864,39.4686,56.4564,39.4686z"/>
	</g>
</g>
<g>
	<path class="st4" d="M68.0364,56.2986c-0.06,0.09-0.13,0.17-0.2,0.25l-3.24-2.83c0.05-0.06,0.1-0.11,0.14-0.17
		c7.64-8.87,7.83-21.82,0.4399-30.93c-0.03-0.05-0.08-0.11-0.12-0.16l3.32-2.73c0.13,0.16,0.26,0.32,0.38,0.48
		C77.1964,30.9086,76.9164,45.9387,68.0364,56.2986z"/>
</g>
<g>
	<path class="st4" d="M62.9464,48.9686c0,0.01,0,0.03-0.01,0.04c-0.1,0.19-0.2,0.39-0.31,0.58l-3.77-2.07
		c0.0699-0.13,0.15-0.27,0.21-0.4l0.01-0.01c3.41-6.49,3.21-13.04-0.58-18.52c-0.02-0.04-0.05-0.08-0.08-0.12l3.52-2.47
		c0.06,0.09,0.12,0.17,0.17,0.2599C66.6863,32.9586,66.9864,41.1887,62.9464,48.9686z"/>
</g>
<g>
	<g>
		<path class="st4" d="M19.9564,28.8187v0.0099c-0.08,0.14-0.15,0.27-0.23,0.41c-0.07,0.11-0.16,0.21-0.26,0.31
			c-0.86,0.84-2.24,0.81-3.07-0.05c-0.57-0.59-0.74-1.41-0.52-2.14c0-0.02,0.01-0.04,0.02-0.06c0.07-0.2,0.16-0.39,0.3-0.56
			c0.07-0.11,0.15-0.21,0.25-0.31c0.86-0.83,2.23-0.81,3.07,0.05C20.1364,27.1186,20.2764,28.0386,19.9564,28.8187z"/>
	</g>
</g>
<g>
	<g>
		<path class="st4" d="M20.1564,50.6586c-0.86,0.83-2.24,0.81-3.07-0.05c-0.0827-0.0827-0.134-0.1852-0.1984-0.2811l-0.0016,0.0011
			c-0.05-0.08-0.11-0.15-0.16-0.23c-0.44-0.83-0.29-1.88,0.41-2.56c0.86-0.83,2.23-0.81,3.07,0.05c0.05,0.05,0.09,0.1,0.12,0.15
			C21.0364,48.5986,20.9664,49.8686,20.1564,50.6586z"/>
	</g>
</g>
<g>
	<g>
		<path class="st4" d="M13.5563,56.6386c-0.84,0.86-2.21,0.88-3.0699,0.05c-0.1801-0.17-0.32-0.36-0.42-0.57
			c-0.41-0.81-0.29-1.82,0.38-2.5c0.83-0.86,2.21-0.88,3.07-0.04c0.05,0.05,0.09,0.09,0.13,0.14s0.08,0.1,0.12,0.15
			C14.3663,54.7086,14.2964,55.8787,13.5563,56.6386z"/>
	</g>
</g>
<g>
	<g>
		<path class="st4" d="M14.1664,22.7086c-0.02,0.02-0.04,0.04-0.06,0.05c-0.84,0.8101-2.17,0.8101-3.01,0
			c-0.75-0.74-0.86-1.8799-0.31-2.73c0.06-0.09,0.13-0.17,0.2-0.25c0.02-0.03,0.04-0.06,0.0699-0.09c0.83-0.86,2.2-0.88,3.06-0.04
			C14.9764,20.4786,14.9963,21.8486,14.1664,22.7086z"/>
	</g>
</g>
<g>
	<path class="st4" d="M14.1064,22.7586c-7.67,8.88-7.86,21.84-0.46,30.96c0.04,0.05,0.08,0.1,0.12,0.15l-3.32,2.73
		c-0.13-0.16-0.26-0.32-0.38-0.48c-8.44-10.7-8.16-25.73,0.72-36.09c0.06-0.09,0.13-0.17,0.2-0.25l3.24,2.84
		C14.1863,22.6686,14.1464,22.7086,14.1064,22.7586z"/>
</g>
<g>
	<path class="st4" d="M20.4064,47.8586l-3.52,2.47c-0.05-0.08-0.11-0.15-0.16-0.23c-4.59-6.71-4.9-14.95-0.85-22.74
		c0-0.02,0.01-0.04,0.02-0.06c0.1-0.19,0.2-0.37,0.3-0.56l3.76,2.08v0.0099c-0.08,0.14-0.15,0.27-0.23,0.41
		c-3.4,6.48-3.19,13.02,0.6,18.5C20.3464,47.7786,20.3764,47.8187,20.4064,47.8586z"/>
</g>
</svg>
