<?xml version="1.0" encoding="utf-8"?>
<!-- Generator: Adobe Illustrator 23.0.1, SVG Export Plug-In . SVG Version: 6.00 Build 0)  -->
<svg version="1.1" id="Layer_1" xmlns="http://www.w3.org/2000/svg" xmlns:xlink="http://www.w3.org/1999/xlink" x="0px" y="0px"
	 viewBox="0 0 78.8227 73.5104" style="enable-background:new 0 0 78.8227 73.5104;" xml:space="preserve">
<style type="text/css">
	.Drop_x0020_Shadow{fill:none;}
	.Round_x0020_Corners_x0020_2_x0020_pt{fill:#FFFFFF;stroke:#000000;stroke-miterlimit:10;}
	.Live_x0020_Reflect_x0020_X{fill:none;}
	.Bevel_x0020_Soft{fill:url(#SVGID_1_);}
	.Dusk{fill:#FFFFFF;}
	.Foliage_GS{fill:#FFDD00;}
	.Pompadour_GS{fill-rule:evenodd;clip-rule:evenodd;fill:#44ADE2;}
	.st0{fill:#FFFFFF;}
	.st1{fill:#48BA78;}
	.st2{fill-rule:evenodd;clip-rule:evenodd;fill:#48BA78;}
	.st3{fill-rule:evenodd;clip-rule:evenodd;fill:#1A0C3D;}
	.st4{fill:#1A0C3D;}
	.st5{fill:#180E3C;}
</style>
<linearGradient id="SVGID_1_" gradientUnits="userSpaceOnUse" x1="-360.8398" y1="-123.3203" x2="-360.1327" y2="-122.6132">
	<stop  offset="0" style="stop-color:#DEDFE3"/>
	<stop  offset="0.1738" style="stop-color:#D8D9DD"/>
	<stop  offset="0.352" style="stop-color:#C9CACD"/>
	<stop  offset="0.5323" style="stop-color:#B4B5B8"/>
	<stop  offset="0.7139" style="stop-color:#989A9C"/>
	<stop  offset="0.8949" style="stop-color:#797C7E"/>
	<stop  offset="1" style="stop-color:#656B6C"/>
</linearGradient>
<path class="st0" d="M53.9223,31.9554v30.67h-24.08c-6.61,0-11.99-5.38-11.99-12v-30.66h24.07
	C48.5423,19.9654,53.9223,25.3454,53.9223,31.9554z"/>
<path class="st0" d="M60.7423,26.2354c0.02,0.09,0.02,0.19,0.02,0.29c-0.04,0.8799-0.78,1.56-1.66,1.53
	c-0.65-0.03-1.2-0.45-1.42-1.02c-0.02-0.09-0.05-0.18-0.08-0.27c-1.44-5.21-4.87-8.62-9.67-9.63c-0.82-0.1-1.43-0.82-1.4-1.65
	c0.04-0.88,0.79-1.56,1.67-1.52c0.15,0.01,0.29,0.03,0.43,0.09c5.8701,1.26,10.21,5.51,11.9901,11.75c0.04,0.14,0.08,0.28,0.12,0.42
	V26.2354z"/>
<path class="st0" d="M67.0123,27.0254c0.03,0.12,0.04,0.24,0.04,0.37c-0.01,0.88-0.74,1.59-1.62,1.5699
	c-0.88-0.0099-1.58-0.73-1.57-1.61c0-0.03,0-0.05,0.01-0.08c-0.42-8.64-6.9301-15.67-15.56-16.73v-0.01
	c-0.7401-0.13-1.3-0.79-1.29-1.57c0.02-0.8799,0.74-1.59,1.62-1.58c0.17,0,0.34,0.03,0.49,0.09
	C59.0423,8.8954,66.4923,17.0354,67.0123,27.0254z"/>
<g>
	<g>
		<path class="st1" d="M53.7423,32.3154h-3.59c-0.91-3.71-4.25-6.47-8.23-6.47h-20.55v6.47h-3.52v-9.99h24.07
			C47.8523,22.3254,52.7823,26.6554,53.7423,32.3154z"/>
	</g>
</g>
<g>
	<g>
		<g>
			<g>
				<path class="st4" d="M60.7623,26.5254c-0.04,0.8799-0.78,1.56-1.66,1.53c-0.65-0.03-1.2-0.45-1.42-1.02
					c-0.02-0.09-0.05-0.18-0.08-0.27c-0.02-0.12-0.03-0.24-0.03-0.37c0.04-0.88,0.79-1.57,1.67-1.53c0.62,0.03,1.14,0.41,1.38,0.94
					c0.04,0.14,0.08,0.28,0.12,0.42v0.01C60.7623,26.3254,60.7623,26.4254,60.7623,26.5254z"/>
			</g>
		</g>
	</g>
	<g>
		<g>
			<g>
				<path class="st4" d="M49.7223,15.6254c-0.04,0.88-0.78,1.56-1.66,1.53c-0.05,0-0.09-0.0099-0.13-0.02
					c-0.82-0.1-1.43-0.82-1.4-1.65c0.04-0.88,0.79-1.56,1.67-1.52c0.15,0.01,0.29,0.03,0.43,0.09
					C49.2923,14.2654,49.7523,14.8954,49.7223,15.6254z"/>
			</g>
		</g>
	</g>
	<g>
		<g>
			<g>
				<path class="st4" d="M50.2123,9.0054c-0.01,0.88-0.73,1.58-1.61,1.57c-0.1,0-0.2-0.01-0.29-0.04
					c-0.7401-0.13-1.3-0.79-1.29-1.57c0.02-0.8799,0.74-1.59,1.62-1.58c0.17,0,0.34,0.03,0.49,0.09
					C49.7723,7.6854,50.2223,8.2954,50.2123,9.0054z"/>
			</g>
		</g>
	</g>
	<g>
		<g>
			<g>
				<path class="st4" d="M67.0523,27.3954c-0.01,0.88-0.74,1.59-1.62,1.5699c-0.88-0.0099-1.58-0.73-1.57-1.61
					c0-0.03,0-0.05,0.01-0.08c0.04-0.84,0.75-1.5,1.6-1.4901c0.76,0.01,1.38,0.54,1.54,1.2401
					C67.0423,27.1454,67.0523,27.2654,67.0523,27.3954z"/>
			</g>
		</g>
	</g>
	<g>
		<g>
			<path class="st4" d="M67.0323,27.3154l-3.15,0.12c0-0.05,0-0.11-0.0099-0.16c-0.42-8.64-6.9301-15.67-15.56-16.73v-0.01
				l0.39-3.12c0.14,0.02,0.29,0.04,0.43,0.06c9.91,1.42,17.3601,9.56,17.88,19.55C67.0223,27.1254,67.0323,27.2154,67.0323,27.3154z
				"/>
		</g>
	</g>
	<g>
		<g>
			<path class="st4" d="M60.7423,26.2254v0.01l-3.06,0.8c-0.02-0.09-0.05-0.18-0.08-0.27c-1.44-5.21-4.87-8.62-9.67-9.63
				c-0.04-0.01-0.08-0.02-0.12-0.03l0.6299-3.1c0.0601,0.01,0.13,0.03,0.19,0.05c5.8701,1.26,10.21,5.51,11.9901,11.75
				C60.6623,25.9454,60.7023,26.0854,60.7423,26.2254z"/>
		</g>
	</g>
</g>
<g>
	<g>
		<path class="st4" d="M25.3859,33.1168c8.8994,0,10.7032,0,19.6025,0c1.9479,0,1.9511-3.0272,0-3.0272
			c-8.8994,0-10.7032,0-19.6025,0C23.438,30.0896,23.4348,33.1168,25.3859,33.1168L25.3859,33.1168z"/>
	</g>
</g>
<g>
	<g>
		<path class="st4" d="M25.3859,38.5399c8.8994,0,0.9598,0,9.8592,0c1.9479,0,1.9511-3.0272,0-3.0272c-8.8994,0-0.9598,0-9.8592,0
			C23.438,35.5127,23.4348,38.5399,25.3859,38.5399L25.3859,38.5399z"/>
	</g>
</g>
<g>
	<circle class="st4" cx="39.8086" cy="37.0263" r="1.5136"/>
</g>
<g>
	<circle class="st4" cx="42.0985" cy="50.7259" r="4.9282"/>
</g>
<g>
	<g>
		<path class="st4" d="M41.9223,19.9654h-24.07v30.66c0,6.62,5.38,12,11.99,12h24.08v-30.67
			C53.9223,25.3454,48.5423,19.9654,41.9223,19.9654z M50.4023,59.1054h-20.56c-4.67,0-8.47-3.8-8.47-8.48v-27.14h20.55
			c4.68,0,8.48,3.8,8.48,8.47V59.1054z"/>
	</g>
</g>
</svg>
