<?xml version="1.0" encoding="utf-8"?>
<!-- Generator: Adobe Illustrator 23.0.1, SVG Export Plug-In . SVG Version: 6.00 Build 0)  -->
<svg version="1.1" id="Layer_1" xmlns="http://www.w3.org/2000/svg" xmlns:xlink="http://www.w3.org/1999/xlink" x="0px" y="0px"
	 viewBox="0 0 78.8227 73.5104" style="enable-background:new 0 0 78.8227 73.5104;" xml:space="preserve">
<style type="text/css">
	.Drop_x0020_Shadow{fill:none;}
	.Round_x0020_Corners_x0020_2_x0020_pt{fill:#FFFFFF;stroke:#000000;stroke-miterlimit:10;}
	.Live_x0020_Reflect_x0020_X{fill:none;}
	.Bevel_x0020_Soft{fill:url(#SVGID_1_);}
	.Dusk{fill:#FFFFFF;}
	.Foliage_GS{fill:#FFDD00;}
	.Pompadour_GS{fill-rule:evenodd;clip-rule:evenodd;fill:#44ADE2;}
	.st0{fill:#FFFFFF;}
	.st1{fill:#48BA78;}
	.st2{fill-rule:evenodd;clip-rule:evenodd;fill:#48BA78;}
	.st3{fill-rule:evenodd;clip-rule:evenodd;fill:#1A0C3D;}
	.st4{fill:#1A0C3D;}
	.st5{fill:#180E3C;}
</style>
<linearGradient id="SVGID_1_" gradientUnits="userSpaceOnUse" x1="-153.2647" y1="-123.3203" x2="-152.5576" y2="-122.6132">
	<stop  offset="0" style="stop-color:#DEDFE3"/>
	<stop  offset="0.1738" style="stop-color:#D8D9DD"/>
	<stop  offset="0.352" style="stop-color:#C9CACD"/>
	<stop  offset="0.5323" style="stop-color:#B4B5B8"/>
	<stop  offset="0.7139" style="stop-color:#989A9C"/>
	<stop  offset="0.8949" style="stop-color:#797C7E"/>
	<stop  offset="1" style="stop-color:#656B6C"/>
</linearGradient>
<path class="st0" d="M25.1952,44.4875c-5.22-6.64-4.96-16.13,0.63-22.46c-1.36-1.5,0.92-3.66,2.34-2.22
	c6.62-5.2,16.07-4.94,22.4,0.61l0.25-0.24c1.51-1.43,3.73,0.92,2.22,2.35l-0.24,0.23c5.24,6.62,5,16.09-0.54,22.43l0.11,0.12
	c1.43,1.52-0.92,3.74-2.35,2.23l-0.11-0.11c-2.65,2.09-5.76,3.31-8.95,3.66l0.07,2.59h5.13c3.05,0,5.52,2.47,5.52,5.52v0.71
	c0,3.04-2.47,5.52-5.52,5.52h-14.37c-3.04,0-5.52-2.48-5.52-5.52v-0.71c0-3.05,2.48-5.52,5.52-5.52h5.16l-0.06-2.62
	c-3.42-0.4-6.73-1.81-9.46-4.22l-0.4,0.37c-1.51,1.43-3.73-0.92-2.22-2.35L25.1952,44.4875z"/>
<path class="st0" d="M61.9752,23.3475v0.01c0.02,0.09,0.02,0.19,0.02,0.29c-0.03,0.86-0.77,1.54-1.63,1.5
	c-0.65-0.03-1.17-0.44-1.4-1c-1.37-5.26-4.76-8.71-9.55-9.74c-0.83-0.08-1.46-0.79-1.42-1.63c0.04-0.86,0.77-1.54,1.6299-1.5
	c0.0848,0.006,0.1657,0.0306,0.2483,0.0485l0.0017-0.0084c0.05,0.0099,0.11,0.02,0.16,0.04c5.78,1.23,10.06,5.42,11.8,11.54
	C61.8952,23.0475,61.9352,23.1975,61.9752,23.3475z"/>
<path class="st0" d="M65.0552,24.4575c0.0099-0.01,0.0099-0.02,0-0.03c-0.39-8.53-6.81-15.46-15.31-16.51v-0.02
	c-0.7401-0.13-1.28-0.78-1.27-1.55c0.01-0.86,0.72-1.56,1.59-1.55c0.17,0,0.33,0.03,0.48,0.09c9.77,1.4,17.11,9.42,17.61,19.28
	c0.01,0.08,0.02,0.17,0.02,0.25c0.0099,0.03,0.0099,0.05,0.0099,0.08c-0.0099,0.87-0.72,1.56-1.59,1.55
	C65.7352,26.0375,65.0352,25.3275,65.0552,24.4575z"/>
<g>
	<g>
		<g>
			<path class="st5" d="M46.1552,53.6775h-14.37c-3.04,0-5.52,2.47-5.52,5.52v0.71c0,3.04,2.48,5.52,5.52,5.52h14.37
				c3.05,0,5.52-2.48,5.52-5.52v-0.71C51.6752,56.1475,49.2052,53.6775,46.1552,53.6775z M47.7252,59.9075
				c0,0.87-0.7,1.57-1.57,1.57h-14.37c-0.86,0-1.57-0.7-1.57-1.57v-0.71c0-0.87,0.71-1.58,1.57-1.58h14.37
				c0.87,0,1.57,0.71,1.57,1.58V59.9075z"/>
		</g>
	</g>
</g>
<g>
	<g>
		<path class="st1" d="M51.3252,24.1475c-0.32-0.42-0.67-0.83-1.05-1.23c-0.37-0.39-0.77-0.77-1.17-1.11
			c-5.56-4.76-13.73-4.98-19.53-0.51c-0.42,0.32-0.83,0.67-1.23,1.05s-0.77,0.77-1.11,1.17c-4.77,5.55-4.98,13.73-0.52,19.53
			c0.32,0.42,0.67,0.83,1.05,1.23c0.38,0.39,0.77,0.77,1.17,1.11c5.5601,4.76,13.73,4.98,19.53,0.51c0.42-0.32,0.83-0.67,1.23-1.05
			c0.4-0.38,0.77-0.77,1.11-1.17h0.0099C55.5752,38.1275,55.7952,29.9475,51.3252,24.1475z M46.0552,43.3675
			c-4.38,3.17-10.38,3-14.59-0.4c-0.41-0.33-0.81-0.7-1.18-1.09c-0.37-0.39-0.71-0.81-1.02-1.23c-3.17-4.38-3.02-10.38,0.38-14.59
			c0.33-0.42,0.69-0.81,1.09-1.19c0.4-0.38,0.82-0.73,1.25-1.04c4.38-3.16,10.36-3,14.57,0.39c0.42,0.33,0.8199,0.7,1.2,1.1
			c0.38,0.4,0.72,0.81,1.04,1.24c3.15,4.38,3,10.38-0.4,14.58c-0.33,0.42-0.69,0.81-1.09,1.19
			C46.9052,42.7075,46.4852,43.0575,46.0552,43.3675z"/>
	</g>
</g>
<g>
	<g>
		<path class="st4" d="M52.7952,22.7575c-0.32-0.41-0.67-0.82-1.04-1.21c-0.38-0.4-0.78-0.78-1.19-1.13
			c-6.33-5.55-15.78-5.81-22.4-0.61c-0.43,0.33-0.85,0.7-1.25,1.08c-0.39,0.3701-0.75,0.7401-1.09,1.14
			c-5.59,6.33-5.85,15.82-0.63,22.46c0.33,0.42,0.69,0.84,1.07,1.24c0.37,0.39,0.76,0.76,1.16,1.11c2.73,2.41,6.04,3.82,9.46,4.22
			c1.35,0.17,2.72,0.18,4.07,0.03c3.19-0.35,6.3-1.57,8.95-3.66l0.01-0.01c0.41-0.32,0.8-0.67,1.19-1.03
			c0.4-0.3799,0.78-0.78,1.13-1.19c0,0,0.02,0,0.02-0.0099C57.7952,38.8475,58.0352,29.3775,52.7952,22.7575z M48.6252,43.7775
			c-0.39,0.37-0.79,0.71-1.21,1.02c-5.17,3.9-12.42,3.71-17.38-0.45c-0.4-0.34-0.79-0.7-1.16-1.09c-0.3799-0.4-0.74-0.82-1.06-1.26
			c-3.86-5.17-3.67-12.39,0.4901-17.34c0.34-0.4,0.7-0.79,1.09-1.16c0.41-0.39,0.83-0.74,1.27-1.06c5.15-3.85,12.34-3.66,17.28,0.46
			c0.42,0.34,0.82,0.72,1.2,1.12c0.37,0.39,0.72,0.8,1.03,1.23c3.88,5.15,3.71,12.36-0.42,17.32
			C49.4052,42.9875,49.0352,43.3875,48.6252,43.7775z"/>
	</g>
</g>
<g>
	<g>
		<path class="st4" d="M31.4652,42.9675c-0.04,0.06-0.1,0.12-0.16,0.18l-1.27,1.2l-1.1,1.04l-1.5099,1.45l-0.4,0.37
			c-1.51,1.43-3.73-0.92-2.22-2.35l0.39-0.37l1.52-1.44l1.1-1.05l1.26-1.2c0.06-0.06,0.13-0.11,0.19-0.15
			C30.7052,39.6075,32.5852,41.5975,31.4652,42.9675z"/>
	</g>
</g>
<g>
	<g>
		<path class="st4" d="M52.1552,45.0945l-4.057-4.2767c-1.4317-1.5092-3.7796,0.7133-2.3455,2.225l4.057,4.2767
			C51.2414,48.8288,53.5893,46.6063,52.1552,45.0945z"/>
	</g>
</g>
<g>
	<g>
		<path class="st4" d="M29.9152,26.3475l-0.27-0.29l-1.34-1.4l-1.07-1.14l-1.38-1.45c-0.01-0.01-0.03-0.03-0.03-0.04
			c-1.36-1.5,0.92-3.66,2.34-2.22l0.03,0.03l1.38,1.46l1.09,1.14l1.32,1.39l0.27,0.29
			C33.6952,25.6275,31.3452,27.8475,29.9152,26.3475z"/>
	</g>
</g>
<g>
	<g>
		<path class="st4" d="M53.0352,22.5275l-0.24,0.23l-1.47,1.39l-1.15,1.1l-1.38,1.31l-0.03,0.03c-1.51,1.43-3.74-0.92-2.23-2.35
			l0.02-0.02l1.39-1.32l1.16-1.09l1.46-1.39l0.25-0.24C52.3252,18.7475,54.5452,21.0975,53.0352,22.5275z"/>
	</g>
</g>
<g>
	<g>
		<path class="st1" d="M51.3252,24.1475c-0.32-0.42-0.67-0.83-1.05-1.23c-0.37-0.39-0.77-0.77-1.17-1.11
			c-5.56-4.76-13.73-4.98-19.53-0.51c-0.42,0.32-0.83,0.67-1.23,1.05s-0.77,0.77-1.11,1.17c-4.77,5.55-4.98,13.73-0.52,19.53
			c0.32,0.42,0.67,0.83,1.05,1.23c0.38,0.39,0.77,0.77,1.17,1.11c5.5601,4.76,13.73,4.98,19.53,0.51c0.42-0.32,0.83-0.67,1.23-1.05
			c0.4-0.38,0.77-0.77,1.11-1.17h0.0099C55.5752,38.1275,55.7952,29.9475,51.3252,24.1475z M46.0552,43.3675
			c-4.38,3.17-10.38,3-14.59-0.4c-0.41-0.33-0.81-0.7-1.18-1.09c-0.37-0.39-0.71-0.81-1.02-1.23c-3.17-4.38-3.02-10.38,0.38-14.59
			c0.33-0.42,0.69-0.81,1.09-1.19c0.4-0.38,0.82-0.73,1.25-1.04c4.38-3.16,10.36-3,14.57,0.39c0.42,0.33,0.8199,0.7,1.2,1.1
			c0.38,0.4,0.72,0.81,1.04,1.24c3.15,4.38,3,10.38-0.4,14.58c-0.33,0.42-0.69,0.81-1.09,1.19
			C46.9052,42.7075,46.4852,43.0575,46.0552,43.3675z"/>
	</g>
</g>
<g>
	<g>
		<path class="st4" d="M52.7952,22.7575c-0.32-0.41-0.67-0.82-1.04-1.21c-0.38-0.4-0.78-0.78-1.19-1.13
			c-6.33-5.55-15.78-5.81-22.4-0.61c-0.43,0.33-0.85,0.7-1.25,1.08c-0.39,0.3701-0.75,0.7401-1.09,1.14
			c-5.59,6.33-5.85,15.82-0.63,22.46c0.33,0.42,0.69,0.84,1.07,1.24c0.37,0.39,0.76,0.76,1.16,1.11c2.73,2.41,6.04,3.82,9.46,4.22
			c1.35,0.17,2.72,0.18,4.07,0.03c3.19-0.35,6.3-1.57,8.95-3.66l0.01-0.01c0.41-0.32,0.8-0.67,1.19-1.03
			c0.4-0.3799,0.78-0.78,1.13-1.19c0,0,0.02,0,0.02-0.0099C57.7952,38.8475,58.0352,29.3775,52.7952,22.7575z M48.6252,43.7775
			c-0.39,0.37-0.79,0.71-1.21,1.02c-5.17,3.9-12.42,3.71-17.38-0.45c-0.4-0.34-0.79-0.7-1.16-1.09c-0.3799-0.4-0.74-0.82-1.06-1.26
			c-3.86-5.17-3.67-12.39,0.4901-17.34c0.34-0.4,0.7-0.79,1.09-1.16c0.41-0.39,0.83-0.74,1.27-1.06c5.15-3.85,12.34-3.66,17.28,0.46
			c0.42,0.34,0.82,0.72,1.2,1.12c0.37,0.39,0.72,0.8,1.03,1.23c3.88,5.15,3.71,12.36-0.42,17.32
			C49.4052,42.9875,49.0352,43.3875,48.6252,43.7775z"/>
	</g>
</g>
<g>
	<g>
		<path class="st4" d="M31.4652,42.9675c-0.04,0.06-0.1,0.12-0.16,0.18l-1.27,1.2l-1.1,1.04l-1.5099,1.45l-0.4,0.37
			c-1.51,1.43-3.73-0.92-2.22-2.35l0.39-0.37l1.52-1.44l1.1-1.05l1.26-1.2c0.06-0.06,0.13-0.11,0.19-0.15
			C30.7052,39.6075,32.5852,41.5975,31.4652,42.9675z"/>
	</g>
</g>
<g>
	<g>
		<path class="st4" d="M50.0152,47.5375l-0.11-0.11l-0.09-0.1l-1.35-1.43l-1.05-1.1l-1.36-1.43l-0.1-0.11
			c-1.43-1.51,0.91-3.72,2.34-2.23l0.01,0.01l0.09,0.1l1.36,1.4301l1.06,1.11l1.44,1.51l0.11,0.12
			C53.7952,46.8275,51.4452,49.0475,50.0152,47.5375z"/>
	</g>
</g>
<g>
	<g>
		<path class="st4" d="M41.0752,55.6675c0.04,1.73-4.03,1.84-4.07,0.1l-0.06-2.09l-0.06-2.62l-0.01-0.2
			c-0.05-1.74,4.02-1.84,4.07-0.11l0.01,0.34l0.07,2.59L41.0752,55.6675z"/>
	</g>
</g>
<g>
	<g>
		<path class="st4" d="M29.9152,26.3475l-0.27-0.29l-1.34-1.4l-1.07-1.14l-1.38-1.45c-0.01-0.01-0.03-0.03-0.03-0.04
			c-1.36-1.5,0.92-3.66,2.34-2.22l0.03,0.03l1.38,1.46l1.09,1.14l1.32,1.39l0.27,0.29
			C33.6952,25.6275,31.3452,27.8475,29.9152,26.3475z"/>
	</g>
</g>
<g>
	<g>
		<path class="st4" d="M53.0352,22.5275l-0.24,0.23l-1.47,1.39l-1.15,1.1l-1.38,1.31l-0.03,0.03c-1.51,1.43-3.74-0.92-2.23-2.35
			l0.02-0.02l1.39-1.32l1.16-1.09l1.46-1.39l0.25-0.24C52.3252,18.7475,54.5452,21.0975,53.0352,22.5275z"/>
	</g>
</g>
<g>
	<g>
		<g>
			<g>
				<path class="st4" d="M61.9952,23.6475c-0.03,0.86-0.77,1.54-1.63,1.5c-0.65-0.03-1.17-0.44-1.4-1c-0.07-0.19-0.11-0.41-0.1-0.64
					c0.03-0.86,0.77-1.53,1.63-1.5c0.6,0.03,1.1,0.3799,1.34,0.89c0.06,0.15,0.1,0.3,0.14,0.45v0.01
					C61.9952,23.4475,61.9952,23.5475,61.9952,23.6475z"/>
			</g>
		</g>
	</g>
	<g>
		<g>
			<g>
				<path class="st4" d="M51.1352,12.9175c-0.04,0.86-0.77,1.53-1.64,1.5c-0.03,0-0.05,0-0.08-0.01c-0.83-0.08-1.46-0.79-1.42-1.63
					c0.04-0.86,0.77-1.54,1.6299-1.5c0.0848,0.006,0.1657,0.0306,0.2483,0.0485l0.0017-0.0084c0.05,0.0099,0.11,0.02,0.16,0.04
					C50.6952,11.5675,51.1652,12.1875,51.1352,12.9175z"/>
			</g>
		</g>
	</g>
	<g>
		<g>
			<g>
				<path class="st4" d="M51.6152,6.3875c-0.01,0.8701-0.72,1.56-1.59,1.55c-0.1,0-0.19-0.01-0.28-0.04
					c-0.7401-0.13-1.28-0.78-1.27-1.55c0.01-0.86,0.72-1.56,1.59-1.55c0.17,0,0.33,0.03,0.48,0.09
					C51.1752,5.0975,51.6252,5.6975,51.6152,6.3875z"/>
			</g>
		</g>
	</g>
	<g>
		<g>
			<g>
				<path class="st4" d="M68.1852,24.4975c-0.0099,0.87-0.72,1.56-1.59,1.55c-0.86-0.01-1.56-0.72-1.54-1.59
					c0.0099-0.01,0.0099-0.02,0-0.03c0.03-0.85,0.73-1.53,1.58-1.52c0.75,0.01,1.37,0.55,1.52,1.26c0.01,0.08,0.02,0.17,0.02,0.25
					C68.1852,24.4475,68.1852,24.4675,68.1852,24.4975z"/>
			</g>
		</g>
	</g>
	<g>
		<g>
			<path class="st4" d="M68.1752,24.4175l-3.11,0.12c0-0.03,0-0.05-0.0099-0.08c0.0099-0.01,0.0099-0.02,0-0.03
				c-0.39-8.53-6.81-15.46-15.31-16.51v-0.02l0.3799-3.07c0.14,0.02,0.28,0.04,0.42,0.06c9.77,1.4,17.11,9.42,17.61,19.28
				C68.1652,24.2475,68.1752,24.3375,68.1752,24.4175z"/>
		</g>
	</g>
	<g>
		<g>
			<path class="st4" d="M61.9752,23.3475v0.01l-3.01,0.79c-1.37-5.26-4.76-8.71-9.55-9.74c-0.05-0.02-0.11-0.03-0.16-0.04l0.62-3.05
				c0.05,0.0099,0.11,0.02,0.16,0.04c5.78,1.23,10.06,5.42,11.8,11.54C61.8952,23.0475,61.9352,23.1975,61.9752,23.3475z"/>
		</g>
	</g>
</g>
</svg>
