<?xml version="1.0" encoding="utf-8"?>
<!-- Generator: Adobe Illustrator 23.0.1, SVG Export Plug-In . SVG Version: 6.00 Build 0)  -->
<svg version="1.1" id="Layer_1" xmlns="http://www.w3.org/2000/svg" xmlns:xlink="http://www.w3.org/1999/xlink" x="0px" y="0px"
	 viewBox="0 0 78.8227 73.5104" style="enable-background:new 0 0 78.8227 73.5104;" xml:space="preserve">
<style type="text/css">
	.Drop_x0020_Shadow{fill:none;}
	.Round_x0020_Corners_x0020_2_x0020_pt{fill:#FFFFFF;stroke:#000000;stroke-miterlimit:10;}
	.Live_x0020_Reflect_x0020_X{fill:none;}
	.Bevel_x0020_Soft{fill:url(#SVGID_1_);}
	.Dusk{fill:#FFFFFF;}
	.Foliage_GS{fill:#FFDD00;}
	.Pompadour_GS{fill-rule:evenodd;clip-rule:evenodd;fill:#44ADE2;}
	.st0{fill:#FFFFFF;}
	.st1{fill:#48BA78;}
	.st2{fill-rule:evenodd;clip-rule:evenodd;fill:#48BA78;}
	.st3{fill-rule:evenodd;clip-rule:evenodd;fill:#1A0C3D;}
	.st4{fill:#1A0C3D;}
	.st5{fill:#180E3C;}
</style>
<linearGradient id="SVGID_1_" gradientUnits="userSpaceOnUse" x1="-559.8951" y1="-123.3203" x2="-559.1879" y2="-122.6132">
	<stop  offset="0" style="stop-color:#DEDFE3"/>
	<stop  offset="0.1738" style="stop-color:#D8D9DD"/>
	<stop  offset="0.352" style="stop-color:#C9CACD"/>
	<stop  offset="0.5323" style="stop-color:#B4B5B8"/>
	<stop  offset="0.7139" style="stop-color:#989A9C"/>
	<stop  offset="0.8949" style="stop-color:#797C7E"/>
	<stop  offset="1" style="stop-color:#656B6C"/>
</linearGradient>
<path class="st0" d="M63.4532,39.4479h-1.37v0.47c0,5.74-4.66,10.4-10.39,10.4h-9.71v1.6899c0,2.48-3.86,2.48-3.86,0V50.318h-2.51
	l-14.29,9.12l1.64-9.67c-3.8-1.35-6.23-5.06-6.23-9.85v-0.47h-1.36c-2.4901,0-2.48-3.86,0-3.86h1.36v-0.34
	c0-5.74,4.66-10.4,10.4-10.4h10.99v-1.36c0-2.48,3.86-2.48,3.86,0v1.36h9.71c5.73,0,10.39,4.66,10.39,10.4v0.34h1.37
	C65.9333,35.5879,65.9333,39.4479,63.4532,39.4479z"/>
<g>
	<g>
		<path class="st1" d="M50.6945,28.2345H28.2228c-4.1679,0-7.5466,3.3788-7.5466,7.5466v2.6954
			c0-4.1679,3.3788-6.3246,7.5466-6.3246h22.4717c4.1679,0,7.5467,2.1567,7.5467,6.3246v-2.6954
			C58.2412,31.6133,54.8624,28.2345,50.6945,28.2345z"/>
	</g>
</g>
<g>
	<g>
		<path class="st4" d="M41.9833,44.9779v7.03c0,2.48-3.86,2.48-3.86,0v-7.03C38.1233,42.498,41.9833,42.498,41.9833,44.9779z"/>
	</g>
</g>
<g>
	<g>
		<path class="st4" d="M41.9833,23.4879v7.02c0,0.8101-0.41,1.36-0.97,1.64c-0.59,0.3-1.33,0.3-1.91,0
			c-0.56-0.28-0.98-0.83-0.98-1.64v-7.02C38.1233,21.0079,41.9833,21.0079,41.9833,23.4879z"/>
	</g>
</g>
<g>
	<g>
		<path class="st4" d="M22.3932,39.4479h-7.02c-2.4901,0-2.48-3.86,0-3.86h7.02C24.8832,35.5879,24.8733,39.4479,22.3932,39.4479z"
			/>
	</g>
</g>
<g>
	<g>
		<path class="st4" d="M63.4532,39.4479h-7.03c-2.48,0-2.48-3.86,0-3.86h7.03C65.9333,35.5879,65.9333,39.4479,63.4532,39.4479z"/>
	</g>
</g>
<g>
	<path class="st4" d="M51.6932,24.8479h-24.56c-5.74,0-10.4,4.66-10.4,10.4v4.67c0,4.79,2.43,8.5,6.23,9.85l-1.64,9.67l14.29-9.12
		h16.08c5.73,0,10.39-4.66,10.39-10.4v-4.67C62.0832,29.5079,57.4233,24.8479,51.6932,24.8479z M57.7832,39.9179
		c0,3.36-2.73,6.1-6.09,6.1h-17.34l-7.16,4.58l0.7401-4.38l-2.29-0.23c-3.4-0.35-4.61-3.49-4.61-6.07v-4.67c0-3.36,2.74-6.1,6.1-6.1
		h24.56c3.36,0,6.09,2.74,6.09,6.1V39.9179z"/>
</g>
</svg>
