<svg xmlns="http://www.w3.org/2000/svg" viewBox="0 0 899.21 1415.66"><defs><style>.cls-1,.cls-2{fill:none;}.cls-2{stroke:#f3e96e;stroke-miterlimit:10;stroke-width:16px;}</style></defs><title>gitcoin_avatar2</title><g id="EARS"><path class="cls-1" d="M-132.48-77.59h603.7v241.5h-603.7Z"/></g><g id="ACCESSORIES"><g id="ACC_-_Glasses" data-name="ACC - Glasses"><path class="cls-2" d="M316.53,585.24h75.32a31.7,31.7,0,0,1,31.7,31.7v2.66A52.44,52.44,0,0,1,371.11,672H338.53a51.46,51.46,0,0,1-51.46-51.46V614.7a29.46,29.46,0,0,1,29.46-29.46Z"/><path class="cls-2" d="M527.85,585.24h32.58a52.44,52.44,0,0,1,52.44,52.44v2.66a31.7,31.7,0,0,1-31.7,31.7H505.85a29.46,29.46,0,0,1-29.46-29.46V636.7a51.46,51.46,0,0,1,51.46-51.46Z" transform="translate(1089.25 1257.27) rotate(180)"/><path class="cls-2" d="M417.56,595.54h0a131.5,131.5,0,0,1,60.13-1.17l5.41,1.17"/><line class="cls-2" x1="287.07" y1="605.85" x2="235.92" y2="569.93"/><line class="cls-2" x1="612.44" y1="605.85" x2="663.29" y2="569.93"/></g></g></svg>