<?xml version="1.0" encoding="UTF-8"?>
<svg width="3000px" height="1112px" viewBox="0 0 3000 1112" version="1.1" xmlns="http://www.w3.org/2000/svg" xmlns:xlink="http://www.w3.org/1999/xlink">
    <!-- Generator: Sketch 51.3 (57544) - http://www.bohemiancoding.com/sketch -->
    <title>Specs Copy 12</title>
    <desc>Created with Sketch.</desc>
    <defs></defs>
    <g id="Specs-Copy-12" stroke="none" stroke-width="1" fill="none" fill-rule="evenodd">
        <g id="Group" transform="translate(-228.000000, -130.000000)">
            <polygon id="Fill-1" fill="#EFF4EE" points="206 1264 3253 1264 3253 111 206 111"></polygon>
            <g id="Group-825" stroke-linecap="round">
                <path d="M817.459,567 L790,594.459" id="Stroke-803" stroke="#25E899" stroke-width="12" stroke-linejoin="round"></path>
                <path d="M2360.459,376 L2333,403.459" id="Stroke-803-Copy" stroke="#25E899" stroke-width="12" stroke-linejoin="round"></path>
                <polyline id="Stroke-815" stroke="#25E899" stroke-width="12" stroke-linejoin="round" points="1371.3855 763 1394.22959 763 1065 1067.36977"></polyline>
                <polyline id="Stroke-815-Copy-2" stroke="#25E899" stroke-width="12" stroke-linejoin="round" points="306.385496 684 329.229593 684 0 988.369773"></polyline>
                <polyline id="Stroke-815-Copy-6" stroke="#25E899" stroke-width="12" stroke-linejoin="round" points="3043.3855 541 3066.22959 541 2737 845.369773"></polyline>
                <polyline id="Stroke-815-Copy-4" stroke="#F9006C" stroke-width="12" stroke-linejoin="round" points="1474.3855 727 1497.22959 727 1168 1031.36977"></polyline>
                <polyline id="Stroke-815-Copy-5" stroke="#F9006C" stroke-width="12" stroke-linejoin="round" points="409.385496 648 432.229593 648 103 952.369773"></polyline>
                <polyline id="Stroke-815-Copy-7" stroke="#F9006C" stroke-width="12" stroke-linejoin="round" points="3146.3855 505 3169.22959 505 2840 809.369773"></polyline>
                <polyline id="Stroke-815-Copy" stroke="#FFCE08" stroke-width="12" stroke-linejoin="round" points="1425.3855 744 1448.22959 744 1119 1048.36977"></polyline>
                <polyline id="Stroke-815-Copy-3" stroke="#FFCE08" stroke-width="12" stroke-linejoin="round" points="360.385496 665 383.229593 665 54 969.369773"></polyline>
                <polyline id="Stroke-815-Copy-8" stroke="#FFCE08" stroke-width="12" stroke-linejoin="round" points="3097.3855 522 3120.22959 522 2791 826.369773"></polyline>
                <polyline id="Stroke-817" stroke="#25E899" stroke-width="12" stroke-linejoin="round" points="1666.08385 435 1323 762.824595 1348.23248 762.824595"></polyline>
                <polyline id="Stroke-817-Copy-2" stroke="#25E899" stroke-width="12" stroke-linejoin="round" points="601.083851 356 258 683.824595 283.232476 683.824595"></polyline>
                <polyline id="Stroke-817-Copy-6" stroke="#25E899" stroke-width="12" stroke-linejoin="round" points="3338.08385 213 2995 540.824595 3020.23248 540.824595"></polyline>
                <polyline id="Stroke-817-Copy-4" stroke="#F9006C" stroke-width="12" stroke-linejoin="round" points="1769.08385 399 1426 726.824595 1451.23248 726.824595"></polyline>
                <polyline id="Stroke-817-Copy-5" stroke="#F9006C" stroke-width="12" stroke-linejoin="round" points="704.083851 320 361 647.824595 386.232476 647.824595"></polyline>
                <polyline id="Stroke-817-Copy-7" stroke="#F9006C" stroke-width="12" stroke-linejoin="round" points="3441.08385 177 3098 504.824595 3123.23248 504.824595"></polyline>
                <polyline id="Stroke-817-Copy" stroke="#FFCE08" stroke-width="12" stroke-linejoin="round" points="1719.08385 415 1376 742.824595 1401.23248 742.824595"></polyline>
                <polyline id="Stroke-817-Copy-3" stroke="#FFCE08" stroke-width="12" stroke-linejoin="round" points="654.083851 336 311 663.824595 336.232476 663.824595"></polyline>
                <polyline id="Stroke-817-Copy-8" stroke="#FFCE08" stroke-width="12" stroke-linejoin="round" points="3391.08385 193 3048 520.824595 3073.23248 520.824595"></polyline>
                <path d="M837.706,588 L797,628.706" id="Stroke-819" stroke="#F9006C" stroke-width="12" stroke-linejoin="round"></path>
                <path d="M2420.706,349 L2380,389.706" id="Stroke-819-Copy" stroke="#F9006C" stroke-width="12" stroke-linejoin="round"></path>
                <path d="M1255.942,323 L1183,398.341" id="Stroke-821" stroke="#EBEFEA" stroke-width="42"></path>
                <path d="M2690.942,708 L2618,783.341" id="Stroke-821-Copy" stroke="#EBEFEA" stroke-width="42"></path>
                <path d="M1201.95,732 L1064,872.349" id="Stroke-823" stroke="#EBEFEA" stroke-width="42"></path>
                <path d="M2149.95,940 L1804.99565,1284.95435" id="Stroke-823-Copy-5" stroke="#EBEFEA" stroke-width="67"></path>
                <path d="M1842.95,614 L1497.99565,958.954347" id="Stroke-823-Copy-6" stroke="#EBEFEA" stroke-width="67"></path>
                <path d="M2368.95,86 L2023.99565,430.954347" id="Stroke-823-Copy" stroke="#EBEFEA" stroke-width="67"></path>
                <path d="M701.95,0 L356.995653,344.954347" id="Stroke-823-Copy-7" stroke="#EBEFEA" stroke-width="67"></path>
                <path d="M1764.95,36 L1419.99565,380.954347" id="Stroke-823-Copy-8" stroke="#EBEFEA" stroke-width="120"></path>
                <path d="M645.95,931 L300.995653,1275.95435" id="Stroke-823-Copy-9" stroke="#EBEFEA" stroke-width="120"></path>
                <path d="M3249.95,793 L2904.99565,1137.95435" id="Stroke-823-Copy-10" stroke="#EBEFEA" stroke-width="120"></path>
                <path d="M3112.95,37 L2767.99565,381.954347" id="Stroke-823-Copy-4" stroke="#EBEFEA" stroke-width="67"></path>
                <path d="M911.711819,512 L857,566.711819" id="Stroke-807" stroke="#F9006C" stroke-width="12" stroke-linejoin="round"></path>
                <path d="M2152.71182,833 L2098,887.711819" id="Stroke-807-Copy-4" stroke="#F9006C" stroke-width="12" stroke-linejoin="round"></path>
                <path d="M862.711819,523 L836,549" id="Stroke-807-Copy-2" stroke="#25E899" stroke-width="12" stroke-linejoin="round"></path>
                <path d="M2103.71182,844 L2077,870" id="Stroke-807-Copy-5" stroke="#25E899" stroke-width="12" stroke-linejoin="round"></path>
                <path d="M809.711819,544 L783,570" id="Stroke-807-Copy-3" stroke="#FFCE08" stroke-width="12" stroke-linejoin="round"></path>
                <path d="M2303.71182,403 L2277,429" id="Stroke-807-Copy-6" stroke="#FFCE08" stroke-width="12" stroke-linejoin="round"></path>
                <path d="M2826,824 L2769,876.711819" id="Stroke-807-Copy" stroke="#F9006C" stroke-width="12" stroke-linejoin="round"></path>
                <polyline id="Stroke-809" stroke="#F9006C" stroke-width="12" stroke-linejoin="round" points="1105.35788 248 1170.13909 248 937 481.142485"></polyline>
                <polyline id="Stroke-809-Copy" stroke="#F9006C" stroke-width="12" stroke-linejoin="round" points="2346.35788 569 2411.13909 569 2178 802.142485"></polyline>
                <polyline id="Stroke-809-Copy-5" stroke="#F9006C" stroke-width="12" stroke-linejoin="round" points="2887.35788 53 2952.13909 53 2719 286.142485"></polyline>
                <polyline id="Stroke-809-Copy-3" stroke="#25E999" stroke-width="12" stroke-linejoin="round" points="1051.35788 269 1116.13909 269 883 502.142485"></polyline>
                <polyline id="Stroke-809-Copy-8" stroke="#25E999" stroke-width="12" stroke-linejoin="round" points="2292.35788 590 2357.13909 590 2124 823.142485"></polyline>
                <polyline id="Stroke-809-Copy-6" stroke="#25E999" stroke-width="12" stroke-linejoin="round" points="2833.35788 74 2898.13909 74 2665 307.142485"></polyline>
                <polyline id="Stroke-809-Copy-4" stroke="#FFCE08" stroke-width="12" stroke-linejoin="round" points="998.357885 290 1063.13909 290 830 523.142485"></polyline>
                <polyline id="Stroke-809-Copy-9" stroke="#FFCE08" stroke-width="12" stroke-linejoin="round" points="2239.35788 611 2304.13909 611 2071 844.142485"></polyline>
                <polyline id="Stroke-809-Copy-7" stroke="#FFCE08" stroke-width="12" stroke-linejoin="round" points="2780.35788 95 2845.13909 95 2612 328.142485"></polyline>
                <polyline id="Stroke-811" stroke="#F9006C" stroke-width="12" stroke-linejoin="round" points="1126.97365 82 961 247.973654 1031.83505 247.973654"></polyline>
                <polyline id="Stroke-811-Copy" stroke="#F9006C" stroke-width="12" stroke-linejoin="round" points="2367.97365 403 2202 568.973654 2272.83505 568.973654"></polyline>
                <polyline id="Stroke-811-Copy-3" stroke="#25E999" stroke-width="12" stroke-linejoin="round" points="1072.97365 103 907 268.973654 977.835051 268.973654"></polyline>
                <polyline id="Stroke-811-Copy-5" stroke="#25E999" stroke-width="12" stroke-linejoin="round" points="2313.97365 424 2148 589.973654 2218.83505 589.973654"></polyline>
                <polyline id="Stroke-811-Copy-4" stroke="#FFCE08" stroke-width="12" stroke-linejoin="round" points="1019.97365 124 854 289.973654 924.835051 289.973654"></polyline>
                <polyline id="Stroke-811-Copy-6" stroke="#FFCE08" stroke-width="12" stroke-linejoin="round" points="2260.97365 445 2095 610.973654 2165.83505 610.973654"></polyline>
            </g>
        </g>
    </g>
</svg>