<?xml version="1.0" encoding="utf-8"?>
<!-- Generator: Adobe Illustrator 16.0.0, SVG Export Plug-In . SVG Version: 6.00 Build 0)  -->
<!DOCTYPE svg PUBLIC "-//W3C//DTD SVG 1.1//EN" "http://www.w3.org/Graphics/SVG/1.1/DTD/svg11.dtd">
<svg version="1.1" id="Layer_1" xmlns="http://www.w3.org/2000/svg" xmlns:xlink="http://www.w3.org/1999/xlink" x="0px" y="0px"
	 width="124.561px" height="144px" viewBox="0 0 124.561 144" enable-background="new 0 0 124.561 144" xml:space="preserve">
<g id="Layer_1_1_">
	<polygon points="124.544,36.328 62.405,0.413 0.234,36.271 0.229,51.938 0.208,51.938 0.202,108.089 62.343,144 124.512,108.145 
		124.516,55.442 124.537,55.442 	"/>
</g>
<g id="Layer_7">
	<polygon fill="#FDDD00" points="116.12,41.2 116.11,57.72 116.09,57.72 116.09,103.26 110.54,106.46 110.02,106.76 105.97,109.1 
		105.68,109.26 102.48,111.11 101.96,111.41 101.72,111.55 101.42,111.72 100.7,112.14 100.41,112.3 97.17,114.17 96.88,114.34 
		95.58,115.09 95.29,115.26 91.97,117.17 91.68,117.34 90.67,117.92 90.39,118.08 87.07,120 86.78,120.17 85.4,120.96 85.12,121.12 
		83.09,122.29 82.21,122.8 81.95,122.95 80.43,123.83 80.14,123.99 76.98,125.82 76.62,126.03 75.85,126.47 73.64,127.75 
		73.49,127.83 72.97,128.13 72.51,128.39 70.5,129.55 67.8,131.11 67.8,131.12 66.93,131.61 66.83,131.67 64.8,132.84 64.54,132.99 
		64.06,133.27 63.71,133.47 62.36,134.25 60.44,133.14 60.08,132.94 59.76,132.75 59.3,132.48 59.28,132.47 57.41,131.39 
		57.04,131.18 56.25,130.72 56.06,130.61 55.85,130.49 55.25,130.14 54.7,129.82 8.66,103.22 8.66,79.33 8.67,78.05 8.67,54.69 
		8.69,54.69 8.69,41.15 62.42,10.16 	"/>
</g>
<g id="Layer_6">
	<circle fill="#FFFFFF" cx="62.833" cy="72.584" r="42.166"/>
</g>
<g id="Layer_8">
	<g>
		<line fill="none" x1="59.556" y1="57.555" x2="64.459" y2="57.555"/>
		<polygon fill="#FFFFFF" points="73.16,61.921 77.373,70.219 74.172,83.791 66.566,77.572 67.895,67.623 		"/>
		<path fill="#DCDBDB" d="M62.283,57.014c-1.05,0-1.897-0.844-1.897-1.89V40.203c0-1.045,0.848-1.896,1.897-1.896
			c1.038,0,1.893,0.852,1.893,1.896v14.921C64.176,56.17,63.32,57.014,62.283,57.014"/>
		<path fill="#141246" d="M64.459,59.139h-4.902c-0.873,0-1.586-0.707-1.586-1.583c0-0.878,0.713-1.592,1.586-1.592h4.902
			c0.875,0,1.592,0.713,1.592,1.592C66.051,58.432,65.334,59.139,64.459,59.139"/>
		<path fill="#FFFFFF" d="M73.16,61.921l5.211-4.914c-3.992-3.989-9.502-6.454-15.583-6.454c-12.182,0-22.047,9.865-22.047,22.041
			c0,12.178,9.865,22.049,22.047,22.049c4.537,0,8.531,1.647,12.033-0.693l4.359,0.6l-0.121-7.082l-12.492-9.895l2.682-12.65
			L73.16,61.921"/>
		<path fill="#DCDBDB" d="M63.32,101.957c-15.928,0-28.889-12.953-28.889-28.887c0-15.925,12.961-28.885,28.889-28.885
			c7.709,0,14.965,3.003,20.424,8.454l1.881,1.89l-8.158,7.684l-3.545-3.756l4.183-3.942c-4.188-3.35-9.347-5.166-14.783-5.166
			c-13.086,0-23.734,10.639-23.734,23.721c0,13.084,10.648,23.726,23.734,23.726"/>
		<path fill="#FFFFFF" d="M74.932,84.371l-3.113-3.016c2.291-2.355,3.553-5.47,3.553-8.762c0-3.428-1.354-6.64-3.813-9.034
			l-1.617-1.571l1.731-1.641l1.482,1.568l1.408-1.458c3.317,3.215,5.131,7.526,5.131,12.136
			C79.693,77.016,78.01,81.195,74.932,84.371"/>
		<path fill="#FFFFFF" d="M57.807,72.594c0-2.746,2.229-4.971,4.979-4.971c2.75,0,4.972,2.226,4.972,4.971
			c0,2.75-2.223,4.979-4.972,4.979C60.036,77.572,57.807,75.344,57.807,72.594"/>
		<g>
			<path fill="#DCDBDB" d="M63.32,81.592c-4.7,0-8.526-3.822-8.526-8.521c0-4.7,3.826-8.522,8.526-8.522
				c4.691,0,8.514,3.822,8.514,8.522C71.834,77.77,68.012,81.592,63.32,81.592 M63.32,69.717c-1.848,0-3.367,1.501-3.367,3.354
				c0,1.854,1.52,3.356,3.367,3.356c1.85,0,3.354-1.504,3.354-3.356C66.676,71.219,65.17,69.717,63.32,69.717"/>
		</g>
		<line fill="none" x1="78.371" y1="57.007" x2="65.793" y2="68.633"/>
		<polygon fill="#DCDBDB" points="68.662,70.236 65.164,66.44 80.162,52.578 83.664,56.368 		"/>
		<polyline fill="#FFFFFF" points="65.127,76.986 74.172,83.791 79.059,87.467 79.059,96.801 69.248,96.328 		"/>
		<polygon fill="#DCDBDB" points="85.316,101.957 62.845,101.957 62.845,96.795 80.15,96.795 80.15,92.104 64.57,80.375 
			67.67,76.25 85.316,89.531 		"/>
		<polygon fill="#FFFFFF" points="86.223,46.239 84.477,47.978 82.756,46.239 84.477,44.502 		"/>
		<polygon fill="#FFFFFF" points="76.963,37.881 76.131,38.71 75.293,37.881 76.131,37.05 		"/>
		<path fill="#DCDBDB" d="M53.322,62.228c-1.048,0-1.899-0.848-1.899-1.893V40.203c0-1.045,0.852-1.896,1.899-1.896
			c1.042,0,1.886,0.852,1.886,1.896v20.131C55.208,61.379,54.364,62.228,53.322,62.228"/>
	</g>
</g>
<path fill="#D52027" d="M60.28,116.64c-0.05,0.03-0.09,0.061-0.13,0.101c0.05-0.021,0.1-0.021,0.15-0.03
	C60.29,116.69,60.28,116.66,60.28,116.64z M60.28,116.64c-0.05,0.03-0.09,0.061-0.13,0.101c0.05-0.021,0.1-0.021,0.15-0.03
	C60.29,116.69,60.28,116.66,60.28,116.64z M60.28,116.64c-0.05,0.03-0.09,0.061-0.13,0.101c0.05-0.021,0.1-0.021,0.15-0.03
	C60.29,116.69,60.28,116.66,60.28,116.64z M60.28,116.64c-0.05,0.03-0.09,0.061-0.13,0.101c0.05-0.021,0.1-0.021,0.15-0.03
	C60.29,116.69,60.28,116.66,60.28,116.64z M82.08,122.77c-0.51-0.26-1.02-0.5-1.56-0.689l-0.01-0.01
	c-0.021-0.011-0.051-0.011-0.08-0.011c-0.011,0-0.011,0-0.021,0c-0.03-0.04-0.07-0.079-0.1-0.119c-0.05-0.061-0.11-0.131-0.17-0.19
	c-0.57-0.66-1.221-1.19-1.92-1.68c-0.391-0.36-0.431-0.4-0.94-0.63c-0.28-0.131-0.53-0.051-0.69,0.119c-0.04,0-0.09,0-0.13,0.011
	c-0.34-0.23-0.67-0.46-1.01-0.69c-0.1-0.06-0.2-0.13-0.29-0.189c-0.49-0.32-0.979-0.641-1.47-0.95
	c-0.96-0.641-1.94-1.271-2.93-1.891c-0.091-0.06-0.19-0.119-0.29-0.18c-0.9-0.56-1.82-1.11-2.75-1.64
	c-0.04-0.03-0.08-0.061-0.12-0.09c0.02-0.08,0.06-0.16,0.06-0.261v-5c0.03-0.56,0.021-1.12,0-1.67V58.45c0-0.08-0.04-0.15-0.05-0.22
	c0.13-0.08,0.27-0.19,0.37-0.35c0.06-0.1,0.13-0.19,0.189-0.29c0.181-0.27,0.221-0.54,0.16-0.78c-0.06-0.37-0.359-0.67-0.729-0.82
	c0,0-0.011,0-0.021-0.01c0,0,0,0.01-0.01,0c-0.07-0.02-0.14-0.04-0.21-0.06c-0.32-0.06-0.67,0.01-0.95,0.24
	c-0.3-0.04-0.62,0.04-0.92,0.32c-0.51,0.49-1.2,0.62-1.88,0.53c-0.37-0.05-0.65,0.06-0.83,0.26c-0.98-0.21-1.94-0.52-2.9-0.8
	c-0.17-0.05-0.33-0.05-0.48-0.03c-0.18-0.55-0.74-0.8-1.26-0.74c-0.2,0.02-0.38,0.09-0.54,0.21c-0.01,0-0.01,0-0.02,0.02
	c-0.07,0.04-0.13,0.09-0.17,0.16c-0.06,0.06-0.1,0.12-0.13,0.2c-0.06,0.11-0.1,0.25-0.11,0.4c-0.01,0.04-0.01,0.08-0.01,0.12V75
	c0,0.22,0.06,0.39,0.15,0.55c0.01,0.12,0.04,0.24,0.1,0.351c0.02,0.05,0.05,0.1,0.09,0.149c-0.02,0.07-0.05,0.12-0.05,0.2V108
	c-0.01-0.01-0.03-0.03-0.04-0.04c-0.28-0.27-0.56-0.54-0.84-0.81c-0.1-0.101-0.21-0.21-0.32-0.311c-0.67-0.649-1.35-1.29-2.09-1.859
	c-0.09-0.08-0.19-0.15-0.29-0.221c-0.21-0.16-0.43-0.31-0.65-0.45c-0.86-0.55-1.76-1.06-2.67-1.54c-0.1-0.05-0.19-0.1-0.29-0.149
	c-0.79-0.42-1.59-0.82-2.38-1.22c-0.1-0.051-0.19-0.091-0.29-0.141c-0.72-0.37-1.44-0.74-2.14-1.13c-0.01,0-0.01-0.01-0.02-0.01
	c-0.1-0.05-0.19-0.11-0.29-0.16c-0.65-0.36-1.3-0.71-1.95-1.05c-0.1-0.061-0.19-0.11-0.29-0.16c-0.7-0.37-1.39-0.74-2.09-1.1
	c-0.1-0.051-0.19-0.101-0.29-0.15c-0.82-0.43-1.63-0.85-2.45-1.27c-0.1-0.051-0.2-0.101-0.29-0.15c-0.8-0.41-1.59-0.811-2.38-1.22
	c-0.1-0.051-0.19-0.101-0.29-0.141c-0.28-0.149-0.55-0.29-0.83-0.43c-0.06-0.29-0.21-0.57-0.49-0.75c-0.28-0.18-0.57-0.37-0.85-0.55
	c-0.1-0.061-0.19-0.13-0.29-0.19c-0.72-0.47-1.44-0.95-2.16-1.42c-0.1-0.07-0.19-0.13-0.29-0.189c-0.85-0.551-1.72-1.091-2.6-1.591
	c-0.09-0.06-0.19-0.119-0.29-0.17c-0.39-0.22-0.78-0.43-1.17-0.63c-0.48-0.24-0.95-0.49-1.42-0.75c-0.1-0.06-0.19-0.109-0.29-0.17
	c-0.21-0.11-0.42-0.229-0.63-0.35c-0.35-0.19-0.7-0.4-1.04-0.61c-0.22-0.13-0.38-0.29-0.5-0.41c-0.23-0.22-0.29-0.279-0.22,0.33
	c0-0.03-0.01-0.04-0.02-0.07C22.01,86.7,22,86.64,21.97,86.58c-0.01-0.021-0.02-0.05-0.03-0.07c-0.15-0.37-0.45-0.62-0.8-0.72
	c-0.32-0.24-0.65-0.45-0.98-0.64c-0.21-0.131-0.42-0.261-0.64-0.381c-0.09-0.05-0.19-0.109-0.29-0.159
	c-0.82-0.46-1.67-0.87-2.53-1.25c-0.09-0.051-0.19-0.091-0.28-0.13c-0.62-0.271-1.24-0.53-1.86-0.78
	c-0.24-0.101-0.45-0.11-0.64-0.061c-0.11-0.069-0.21-0.13-0.32-0.189c-0.09-0.061-0.19-0.12-0.29-0.181
	c-0.77-0.47-1.55-0.939-2.33-1.399c-0.23-0.13-0.46-0.26-0.7-0.39c-0.1-0.061-0.19-0.11-0.29-0.171
	c-0.44-0.25-0.88-0.489-1.33-0.729v4.05c0.49,0.21,0.98,0.41,1.45,0.62c0.01,0.01,0.02,0.01,0.02,0.01
	c0.98,0.42,1.92,0.83,2.76,1.26c0.11,0.061,0.2,0.12,0.31,0.16c0.03,0.021,0.05,0.04,0.08,0.051c0.01,0,0.02,0.01,0.03,0.01v0.01
	c0.02,0.01,0.05,0.02,0.07,0.03c0.01,0.01,0.02,0.02,0.03,0.029c0.01,0.011,0.03,0.021,0.04,0.03c0.05,0.05,0.1,0.09,0.15,0.13
	c2.48,2.21,5.74,3.75,8.49,5.55c0.18,0.12,0.37,0.221,0.55,0.33c-0.02,0.101-0.03,0.2-0.03,0.311c0.01,0.45,0.24,0.92,0.77,1.14
	c6.09,2.54,10.94,7.34,16.65,10.561c4.32,2.439,8.42,5.489,12.75,7.96c0.02,0.01,0.04,0.02,0.06,0.04c1.04,0.58,2.09,1.12,3.16,1.63
	c0.08,0.04,0.17,0.069,0.25,0.09c0.22,0.06,0.43,0.04,0.62-0.01c0.22-0.07,0.4-0.2,0.54-0.37c0.02-0.01,0.03-0.03,0.04-0.04v3.43
	c-0.01-0.02-0.03-0.04-0.04-0.05c-0.01-0.021-0.02-0.03-0.04-0.04c-0.26-0.33-0.71-0.46-1.12-0.38c-0.27,0.04-0.52,0.17-0.68,0.39
	c-0.07,0.08-0.12,0.17-0.15,0.271c-0.03,0.05-0.04,0.1-0.05,0.16c-0.02,0.079-0.03,0.17-0.03,0.26v0.55c0,4.22-0.01,8.43-0.09,12.64
	c0,0.29,0,0.57-0.01,0.86c0,0.15-0.01,0.29-0.01,0.44c0.21-0.2,0.42-0.41,0.62-0.62v0.89c0.03-0.01,0.07-0.01,0.1-0.02
	c0.11-0.021,0.21-0.011,0.3,0.02v0.35c0.08-0.079,0.15-0.149,0.23-0.229h0.01c0.14-0.15,0.27-0.28,0.41-0.42
	c0.07-0.07,0.12-0.15,0.14-0.23l0.37,0.21l1.87,1.08l0.02,0.011c0.01,0.26,0.22,0.439,0.46,0.479v-13.72
	c0.22,0.2,0.45,0.399,0.68,0.58c0.57,0.46,1.18,0.84,1.83,1c0.729,0.439,1.47,0.85,2.22,1.25c0.1,0.069,0.19,0.13,0.29,0.189
	c0.01,0,0.01,0.01,0.01,0.01c0.101,0.061,0.21,0.12,0.311,0.181c0,0,0.01,0.01,0.01,0.02c0.1,0.04,0.189,0.101,0.29,0.16
	c-0.061,0.01-0.13,0.03-0.19,0.05c-0.149,0.051-0.29,0.12-0.41,0.23c-0.06,0.04-0.119,0.1-0.17,0.16l-0.01,0.01
	c-0.04,0.05-0.07,0.1-0.1,0.15c-0.03,0.069-0.07,0.14-0.09,0.22c-0.011,0.03-0.021,0.06-0.03,0.1c0,0.01,0,0.01,0,0.01
	c-0.01,0.04-0.01,0.08-0.021,0.131c-0.029,0.26-0.05,0.51-0.06,0.77c-0.04,0.62-0.05,1.23-0.04,1.85c0,0.021,0,0.051,0.01,0.07
	c0,1.19,0.061,2.38,0.01,3.57c-0.01,0.319-0.02,0.63-0.05,0.939c-0.01,0.13-0.02,0.261-0.04,0.391v0.029
	c-0.02,0.181-0.04,0.36-0.069,0.54c-0.011,0.07-0.021,0.15,0,0.23c0,0.31,0.14,0.61,0.34,0.84c0.01,0.021,0.03,0.04,0.06,0.07
	c0.07,0.08,0.16,0.149,0.26,0.21v-0.36l2.03-1.17c0.01-0.04,0.021-0.07,0.04-0.1c0.04-0.16,0.08-0.32,0.101-0.48
	c0.09-0.55,0.02-1.12-0.24-1.729c-0.021-0.061-0.061-0.101-0.09-0.13c-0.021-0.021-0.04-0.051-0.061-0.07v-1.141
	c-0.01-1.14-0.03-2.289,0.04-3.43c0-0.12,0.01-0.229,0.021-0.35c0.01-0.13,0.02-0.25,0.04-0.38c0-0.061,0-0.11,0.01-0.17
	c0.02-0.16-0.01-0.29-0.04-0.41c0.07,0.029,0.14,0.069,0.21,0.109c0.84,0.71,1.71,1.36,2.62,1.96c-0.04,0.16,0,0.33,0.17,0.48
	c1.05,0.88,2.16,1.63,3.32,2.3l0.52-0.3l0.15-0.08l2.21-1.28l0.77-0.439l0.36-0.21l3.16-1.83l0.29-0.16l1.52-0.88l0.26-0.15
	C82.17,122.79,82.12,122.78,82.08,122.77z M60.28,116.64c-0.05,0.03-0.09,0.061-0.13,0.101c-0.21,0.21-0.29,0.56-0.05,0.79
	c-0.08,0.04-0.16,0.09-0.22,0.16c-0.01,0.01-0.03,0.02-0.04,0.029c-0.02-0.02-0.05-0.04-0.08-0.06v-2.63
	c0.07,0.08,0.15,0.149,0.22,0.229c0.06,0.07,0.13,0.13,0.2,0.2c0.08,0.08,0.17,0.17,0.26,0.25c0.09,0.09,0.19,0.18,0.29,0.26
	c-0.14,0.17-0.18,0.38-0.02,0.601c0.01,0.01,0.02,0.02,0.03,0.04c-0.1-0.051-0.21-0.061-0.3-0.04c-0.02,0.01-0.04,0.01-0.05,0.01
	C60.35,116.6,60.31,116.62,60.28,116.64z M59.47,73.17c0.08,0.05,0.15,0.09,0.24,0.11c0.04,0.02,0.08,0.029,0.13,0.04
	c0.11,0.02,0.21,0.029,0.31,0.01c0.01,0,0.01,0,0.01,0c0.2-0.01,0.4-0.07,0.57-0.16c0.41,0.05,0.74-0.189,0.94-0.52
	c0.43,0.06,0.86,0.13,1.29,0.189h0.011c0.6,0.08,1.18,0.141,1.76,0.07c0.16-0.01,0.319-0.04,0.47-0.08
	c0.05-0.01,0.09-0.021,0.14-0.03v8.05c-0.05-0.01-0.09-0.029-0.14-0.04c-0.11-0.029-0.229-0.06-0.35-0.079
	c-1.36-0.271-3.041,0.01-4.42,0.5c-0.23,0.069-0.46,0.159-0.67,0.25v-5.16c0.26-0.4,0.29-0.931-0.14-1.37l-0.15-0.141V73.17z
	 M65.34,95.68c-0.05,0.011-0.1,0.011-0.14,0.03c-0.01,0-0.02,0.01-0.02,0.01c-0.021,0-0.03,0-0.051,0.011
	c-0.26,0.109-0.52,0.18-0.79,0.27c-1.25-0.21-2.439,0.22-3.649,0.51c-0.3,0.08-0.61,0.141-0.91,0.19c-0.01,0-0.01,0-0.02,0V86.51
	c0.05,0.01,0.1,0.021,0.14,0.03c0.02,0,0.03,0.01,0.05,0.01c0.03,0,0.05,0,0.07,0.01c0.01-0.01,0.02-0.01,0.03,0c0,0,0-0.01,0.01,0
	h0.17c0.01,0,0.02,0,0.03,0.011c0.15,0,0.28,0.01,0.43,0.01h0.01c0.17,0,0.34-0.01,0.51-0.03c0.16-0.02,0.31-0.09,0.45-0.17
	c0.11-0.04,0.21-0.09,0.3-0.16c0.31,0.15,0.6,0.15,0.86,0.05c0.54,0.181,1.06,0,1.47-0.409c0.09,0.04,0.19,0.069,0.29,0.08
	c0.08,0.02,0.17,0.02,0.25,0c0.13-0.011,0.26-0.04,0.37-0.091c0.04-0.02,0.07-0.029,0.1-0.05c0.011-0.01,0.03-0.01,0.04-0.02V95.68z
	 M59.76,101.99c0.15,0.029,0.29,0.05,0.43,0.02c0.02,0,0.05,0,0.07-0.01c0.18-0.04,0.36-0.1,0.56-0.16c0.45-0.13,0.95-0.3,1.45-0.51
	c0.31-0.13,0.63-0.271,0.93-0.43c0.09-0.04,0.17-0.08,0.26-0.131h0.19c0.31,0,0.59,0,0.87,0.011c0.01,0.06,0.01,0.12,0.01,0.18
	c0.01,0.021,0.01,0.04,0.01,0.06v0.011c0.021,0.229,0.04,0.45,0.05,0.68c0.15,3.06-0.409,6.13-0.06,9.19
	c0.02,0.21,0.05,0.43,0.08,0.64c0.01,0.01,0.01,0.03,0.01,0.04c0.01,0.08,0.04,0.15,0.07,0.22c-0.09-0.069-0.19-0.13-0.28-0.189
	c-0.22-0.16-0.45-0.301-0.68-0.45c-0.66-0.42-1.33-0.79-2.04-1.11c-0.37-0.17-0.74-0.319-1.12-0.439
	c-0.05-0.021-0.09-0.03-0.13-0.051c-0.16-0.05-0.32-0.09-0.48-0.13c-0.01,0-0.01-0.01-0.01-0.01c-0.06-0.02-0.13-0.03-0.19-0.05
	V101.99z M59.47,60.31c0.15,0.04,0.32,0.07,0.5,0.03c0.03,0,0.06,0,0.1-0.01c0.34-0.08,0.68-0.14,1.02-0.2
	c0.06-0.02,0.13-0.03,0.19-0.04c0.1,0.07,0.17,0.12,0.29,0.16c0.02,0,0.03-0.01,0.04,0c0.08,0.02,0.17,0.03,0.27,0.03h0.06
	c0.1-0.01,0.25-0.03,0.38-0.06h0.18c0.4-0.06,0.78-0.17,1.169-0.28c0.24,0.17,0.551,0.23,0.92,0.11c0-0.02,0.021-0.02,0.021-0.02
	c0.24,0.04,0.47,0.02,0.66-0.08c0.029,0,0.05-0.02,0.069-0.03v8.02c-0.05,0-0.09-0.01-0.14,0c-0.01-0.01-0.03-0.01-0.04-0.01
	c-1.04-0.02-2.04,0.26-3,0.7c-0.35-0.32-0.86-0.47-1.34-0.21c-0.2,0.11-0.38,0.23-0.56,0.35c-0.07,0.01-0.13,0.01-0.21-0.01h-0.01
	c-0.03,0-0.06,0-0.09-0.01c-0.16-0.01-0.33,0.03-0.48,0.1V60.31z M60.28,116.64c-0.05,0.03-0.09,0.061-0.13,0.101
	c0.05-0.021,0.1-0.021,0.15-0.03C60.29,116.69,60.28,116.66,60.28,116.64z M60.28,116.64c-0.05,0.03-0.09,0.061-0.13,0.101
	c0.05-0.021,0.1-0.021,0.15-0.03C60.29,116.69,60.28,116.66,60.28,116.64z M60.28,116.64c-0.05,0.03-0.09,0.061-0.13,0.101
	c0.05-0.021,0.1-0.021,0.15-0.03C60.29,116.69,60.28,116.66,60.28,116.64z M60.28,116.64c-0.05,0.03-0.09,0.061-0.13,0.101
	c0.05-0.021,0.1-0.021,0.15-0.03C60.29,116.69,60.28,116.66,60.28,116.64z"/>
<path fill="#7E1416" d="M57.45,116.04c-0.01,0.04-0.02,0.07-0.04,0.11c-0.01,0.04-0.02,0.069-0.04,0.1
	c-0.16,0.32-0.49,0.56-0.85,0.64c-0.09,0.021-0.18,0.03-0.27,0.03c-0.3,0-0.6-0.12-0.83-0.39c-0.04-0.04-0.07-0.09-0.11-0.15
	c-0.01,0-0.02-0.01-0.02-0.02c-0.08-0.03-0.16-0.08-0.24-0.141c-2.98-2.25-6.31-3.95-9.36-6.08c-0.98-0.689-1.95-1.399-2.91-2.12
	c0.11,0.41-0.26,0.83-0.62,0.771c-0.11-0.01-0.22-0.06-0.31-0.18c-0.01-0.021-0.03-0.03-0.05-0.051c-2.36-2.899-5.81-4.489-8.88-6.5
	c-0.25-0.17-0.38-0.569-0.18-0.819c-5.02-2.94-10.22-5.58-15.03-8.88c-0.36-0.25-0.51-0.601-0.51-0.95
	c-2.89-1.8-5.71-3.68-8.54-5.67v-2.79c0.49,0.35,0.97,0.7,1.45,1.05c0.01,0.01,0.02,0.01,0.02,0.01c0.21,0.16,0.42,0.32,0.63,0.471
	c3.79,2.819,7.82,5.09,11.85,7.43c0.61,0.35,1.21,0.7,1.82,1.06c0.09,0.05,0.19,0.11,0.28,0.16c0.93,0.55,1.87,1.11,2.79,1.69
	c0.92,0.569,1.83,1.16,2.74,1.77c1.76,1.15,3.51,2.351,5.25,3.55c0.97,0.601,1.93,1.2,2.87,1.851c0.7,0.47,1.38,0.97,2.07,1.47
	c1.29,0.84,2.59,1.68,3.92,2.47c2.92,1.74,5.69,3.641,8.43,5.641c0.02,0.01,0.04,0.02,0.06,0.04c0.1,0.069,0.19,0.14,0.29,0.21
	c1.03,0.75,2.18,1.34,3.12,2.189c0.09,0.07,0.17,0.141,0.25,0.23c0.3,0.29,0.57,0.609,0.8,0.979c0.05,0.08,0.09,0.15,0.11,0.23
	c0.02,0.04,0.03,0.08,0.04,0.12C57.49,115.73,57.49,115.89,57.45,116.04z"/>
<path fill="#7E1416" d="M66.218,86.059c0.016-0.144,0.037-0.288,0.033-0.435c-0.002-0.054-0.027-0.096-0.043-0.144
	c-0.002-0.01-0.002-0.021-0.002-0.029c-0.021-0.209-0.17-0.391-0.352-0.494c-0.094-0.197-0.279-0.349-0.512-0.333
	c-1.879,0.108-3.916,0.161-5.582,1.138c-0.643,0.376-0.061,1.373,0.582,0.996c1.331-0.781,2.951-0.872,4.477-0.951
	c0.051,0.534,0.121,1.068,0.139,1.607c0.008,0.183,0.082,0.318,0.191,0.411v7.221c0,0.745,1.156,0.745,1.156,0v-8.691
	C66.305,86.235,66.27,86.141,66.218,86.059z"/>
<path fill="#7E1416" d="M66.69,72.789c-0.025-0.357-0.102-0.679-0.213-1.02c-0.082-0.246-0.291-0.424-0.557-0.424h-1.73
	c-0.168,0-0.293,0.064-0.385,0.153c-1.449,0.074-3.079,0.458-3.753,0.424c-0.427-0.022-0.599,0.347-0.538,0.673
	c-0.023,0.064-0.04,0.128-0.04,0.193v0.482c0,0.633,1.04,0.812,1.135,0.152c0.001-0.019,0.006-0.038,0.01-0.059
	c0.651-0.04,1.283-0.201,1.935-0.286c0.199-0.024,0.339-0.134,0.431-0.271c1.221-0.115,2.352-0.189,2.357-0.02
	c0.006,0.119,0.045,0.21,0.098,0.289v7.207c0,0.745,1.154,0.745,1.154,0v-7.154C66.659,73.041,66.704,72.933,66.69,72.789z"/>
<path fill="#7E1416" d="M66.534,59.988c0.068-0.276-0.029-0.612-0.363-0.746c-1.096-0.439-2.611-0.232-3.751-0.158
	c-1.062,0.068-2.483,0.09-3.352,0.789c-0.581,0.466,0.242,1.278,0.816,0.816c0.685-0.552,2.295-0.441,3.117-0.484
	c0.775-0.041,1.76-0.135,2.557,0.073c-0.006,0.033-0.021,0.061-0.021,0.098v7.313c0,0.745,1.154,0.745,1.154,0v-7.313
	C66.69,60.207,66.626,60.081,66.534,59.988z"/>
<path fill="#7E1416" d="M56.48,131.83c-0.08,0.08-0.15,0.15-0.23,0.229v-0.35C56.34,131.73,56.42,131.77,56.48,131.83z"/>
<path fill="#7E1416" d="M75.44,125.19c0.399,0.27,0.79,0.55,1.18,0.84l-0.77,0.439l-2.21,1.28l-0.15,0.08
	c-0.12-0.09-0.24-0.17-0.36-0.25c-1.18-0.811-2.409-1.54-3.649-2.23c-0.931-0.51-1.86-1-2.8-1.489
	c-0.311-0.15-0.62-0.311-0.931-0.471c0.34,0.261,0.63,0.54,0.891,0.851c0.06,0.06,0.109,0.12,0.149,0.18
	c0.13,0.16,0.25,0.33,0.36,0.51c0.05,0.07,0.09,0.13,0.13,0.2c0.21,0.351-0.05,0.79-0.39,0.87c0.029,0.02,0.06,0.05,0.09,0.07
	c0.35,0.26,0.3,0.699,0.069,0.939c0.41,0.38,0.07,1.09-0.409,1.021c-0.021,0-0.04,0-0.061-0.011c-0.06-0.01-0.12-0.039-0.18-0.079
	c-0.53-0.351-1.05-0.721-1.601-1.021c-0.069-0.05-0.149-0.09-0.229-0.13c-0.19-0.1-0.28-0.25-0.28-0.41
	c-0.01-0.02-0.01-0.05-0.01-0.07c0.01-0.239,0.18-0.47,0.42-0.56c-0.01-0.03-0.02-0.07-0.03-0.1c-0.04-0.04-0.08-0.08-0.109-0.131
	c-0.2-0.279-0.101-0.539,0.109-0.689c-0.159-0.29-0.189-0.65-0.08-1.1c0.03-0.131,0.11-0.23,0.21-0.301l0.011-0.01
	c0.06-0.04,0.12-0.07,0.189-0.09c0.11-0.08,0.25-0.13,0.391-0.12c-0.07-0.04-0.141-0.07-0.21-0.11
	c-0.131-0.06-0.25-0.13-0.381-0.189c-0.069-0.04-0.149-0.08-0.22-0.11c-0.26-0.14-0.53-0.28-0.79-0.41c0,0-0.01,0-0.01-0.01
	c-0.38-0.189-0.76-0.39-1.14-0.58c-0.36-0.189-0.52-0.47-0.56-0.78c-0.32-0.199-0.64-0.369-0.95-0.46
	c-0.23,0.061-0.47,0.051-0.69-0.029c-0.2-0.09-0.38-0.24-0.52-0.49l-0.07-0.13c-0.04-0.07-0.07-0.141-0.09-0.21
	c-0.07-0.24-0.06-0.5,0.02-0.74c0-0.03,0.01-0.05,0.02-0.07c-0.09-0.09-0.19-0.17-0.28-0.25c-0.11-0.109-0.19-0.229-0.24-0.35
	c-0.15-0.3-0.13-0.62,0-0.88c0.1-0.21,0.27-0.391,0.48-0.51c0.12-0.08,0.25-0.131,0.39-0.16c0.05-0.021,0.1-0.021,0.15-0.03
	c-0.01-0.02-0.02-0.05-0.02-0.07c-0.02-0.05-0.03-0.09-0.03-0.149c-0.01-0.01-0.01-0.01-0.01-0.021c-0.02-0.34-0.04-0.67-0.06-1.01
	c0-0.09-0.01-0.17-0.02-0.26c-0.09-1.601-0.21-3.19-0.3-4.79c-0.03-0.391,0.28-0.57,0.58-0.55c0.03,0,0.06,0,0.09,0.01v-0.07
	c0-0.069,0.02-0.14,0.04-0.189c0.21-0.511,1.12-0.44,1.12,0.22v5.58c0,0.22-0.11,0.38-0.26,0.47c-0.01,0.01-0.02,0.01-0.03,0.021
	v0.569c0,0.16-0.06,0.28-0.14,0.38c1.75,0.48,3.12,1.83,4.63,2.811c2.51,1.64,5.229,2.84,7.8,4.37c0.51,0.3,0.99,0.62,1.47,0.95
	c0.101,0.069,0.19,0.14,0.28,0.199V125.19z"/>
<path fill="#7E1416" d="M65.764,101.172c-0.049-0.439-0.119-0.875-0.248-1.307c-0.086-0.281-0.412-0.517-0.711-0.403
	c-1.174,0.439-3.488,0.398-4.643,1.346c-0.016,0.01-0.035,0.016-0.049,0.026c-0.053,0.021-0.091,0.055-0.13,0.089
	c-0.015,0.013-0.035,0.021-0.05,0.033c-0.001,0.003-0.001,0.005-0.004,0.008c-0.008,0.009-0.013,0.019-0.021,0.027
	c-0.061,0.069-0.093,0.142-0.116,0.216c-0.148,0.216-0.255,0.469-0.296,0.773c-0.098,0.712,0.951,1.051,1.114,0.307
	c0.044-0.114,0.088-0.229,0.134-0.343c0.004-0.005,0.003-0.013,0.006-0.018c0.089-0.141,0.215-0.262,0.368-0.365
	c0.487-0.184,1.191-0.226,1.579-0.298c0.625-0.116,1.256-0.208,1.883-0.312c0.051,0.293,0.082,0.586,0.09,0.893
	c0.004,0.12,0.043,0.212,0.096,0.294v9.426c0,0.744,1.156,0.744,1.156,0v-10.007C65.921,101.39,65.856,101.264,65.764,101.172z"/>
<g>
	<g>
		<path d="M57.25,60.57c-0.03,0.02-0.06,0.05-0.09,0.07c-0.29,0.23-0.6,0.45-0.91,0.67c-0.67,0.47-1.37,0.92-2.09,1.34
			c-0.09,0.06-0.19,0.12-0.29,0.17c-1.06,0.62-2.18,1.19-3.32,1.73c-0.1,0.05-0.19,0.09-0.29,0.14c-0.79,0.37-1.58,0.72-2.38,1.06
			c-0.1,0.05-0.19,0.09-0.29,0.13c-0.72,0.31-1.45,0.61-2.16,0.9c-0.1,0.05-0.2,0.09-0.29,0.12c-0.66,0.28-1.31,0.54-1.95,0.8
			c-0.1,0.04-0.2,0.08-0.29,0.12c-0.08,0.03-0.16,0.07-0.24,0.1c-0.61,0.26-1.23,0.51-1.85,0.75c-0.1,0.04-0.19,0.08-0.29,0.12
			c-0.81,0.32-1.63,0.63-2.45,0.93c-0.09,0.03-0.19,0.07-0.29,0.1c-0.79,0.29-1.58,0.57-2.38,0.83c-0.09,0.04-0.19,0.07-0.29,0.09
			c-0.72,0.25-1.44,0.48-2.17,0.7c-0.1,0.03-0.19,0.06-0.29,0.09c-0.72,0.22-1.44,0.42-2.16,0.61c-0.1,0.03-0.19,0.06-0.29,0.08
			c-0.86,0.24-1.73,0.45-2.6,0.65c-0.09,0.02-0.19,0.04-0.29,0.06c-0.47,0.11-0.94,0.21-1.42,0.311c-0.39,0.08-0.78,0.16-1.17,0.229
			c-0.09,0.021-0.19,0.04-0.29,0.05c-0.52,0.101-1.05,0.19-1.58,0.28c-0.19,0.03-0.39,0.07-0.59,0.101
			c-0.09,0.01-0.19,0.029-0.29,0.04c-1.61,0.25-3.24,0.449-4.87,0.579c-2.81,0.23-5.63,0.271-8.43,0.03v-0.53
			c4.36,0.37,8.79,0.101,13.13-0.579c0.01-0.011,0.02-0.011,0.04-0.011c0.87-0.14,1.73-0.29,2.59-0.46c0.1-0.02,0.19-0.04,0.29-0.06
			c0.87-0.17,1.73-0.36,2.59-0.57c0.1-0.02,0.19-0.04,0.29-0.07c0.02,0,0.05-0.01,0.07-0.01c0.05-0.02,0.1-0.03,0.15-0.04
			c0.8-0.19,1.59-0.4,2.38-0.62c0.1-0.02,0.2-0.05,0.29-0.08c0.73-0.19,1.45-0.4,2.16-0.62c0.1-0.02,0.2-0.05,0.29-0.08
			c0.73-0.22,1.45-0.44,2.17-0.68c0.1-0.03,0.19-0.06,0.29-0.1c0.8-0.26,1.59-0.53,2.38-0.82c0.1-0.03,0.19-0.07,0.29-0.11
			c0.82-0.29,1.64-0.61,2.45-0.93c0.1-0.04,0.19-0.07,0.29-0.12c0.7-0.27,1.4-0.56,2.09-0.86c0.1-0.04,0.19-0.08,0.29-0.13
			c0.07-0.02,0.13-0.05,0.2-0.08c0.57-0.25,1.16-0.49,1.75-0.75c0.1-0.03,0.19-0.08,0.29-0.12c0.71-0.29,1.43-0.6,2.16-0.91
			c0.09-0.04,0.19-0.08,0.29-0.13c0.79-0.34,1.59-0.69,2.38-1.06c0.1-0.05,0.19-0.09,0.29-0.14c1.14-0.54,2.25-1.11,3.32-1.73
			c0.09-0.05,0.19-0.11,0.29-0.17c0.73-0.43,1.43-0.89,2.09-1.38c0.2-0.14,0.4-0.29,0.59-0.44c0.1-0.08,0.22-0.08,0.32-0.03
			C57.33,60.2,57.44,60.42,57.25,60.57z"/>
	</g>
</g>
<g>
	<g>
		<path d="M40.485,36.794h-1.496l-0.562,3.198H36.99l0.562-3.198h-1.771v-1.318h1.998l0.397-2.262h-1.802v-1.335h2.036l0.579-3.245
			h1.427l-0.571,3.245h1.499l0.57-3.245h1.435l-0.575,3.245h1.715v1.335h-1.952l-0.397,2.262h1.761v1.318h-1.988l-0.562,3.198
			h-1.426L40.485,36.794z M39.213,35.476h1.498l0.399-2.262h-1.5L39.213,35.476z"/>
		<path d="M53.887,32.262H52.18l-0.298-1.56c-0.198-0.125-0.487-0.234-0.867-0.327c-0.379-0.093-0.782-0.141-1.208-0.141
			c-0.625,0-1.107,0.132-1.448,0.395c-0.342,0.262-0.511,0.602-0.511,1.019c0,0.385,0.179,0.701,0.533,0.948
			c0.356,0.248,0.973,0.508,1.845,0.783c1.254,0.349,2.204,0.809,2.852,1.381c0.647,0.572,0.972,1.324,0.972,2.254
			c0,0.973-0.384,1.74-1.155,2.301c-0.77,0.563-1.783,0.843-3.042,0.843c-0.899,0-1.712-0.142-2.438-0.428
			c-0.726-0.286-1.329-0.682-1.814-1.186v-2.372h1.764l0.241,1.615c0.23,0.188,0.539,0.342,0.933,0.465
			c0.393,0.121,0.831,0.183,1.315,0.183c0.623,0,1.098-0.128,1.423-0.382c0.324-0.254,0.487-0.595,0.487-1.021
			c0-0.438-0.155-0.788-0.464-1.053c-0.308-0.265-0.851-0.515-1.627-0.749c-1.346-0.391-2.365-0.853-3.058-1.389
			c-0.69-0.535-1.037-1.27-1.037-2.2c0-0.92,0.389-1.673,1.171-2.258c0.779-0.585,1.758-0.886,2.941-0.901
			c0.874,0,1.67,0.133,2.387,0.397c0.718,0.266,1.321,0.62,1.81,1.063V32.262z"/>
		<path d="M54.95,30.007v-1.373h4.704v1.373l-1.217,0.233v3.277h4.634v-3.277l-1.219-0.233v-1.373h1.219h2.269h1.217v1.373
			l-1.217,0.233v8.152l1.217,0.233v1.366h-4.705v-1.366l1.219-0.233v-3.122h-4.634v3.122l1.217,0.233v1.366H54.95v-1.366
			l1.209-0.233v-8.152L54.95,30.007z"/>
		<path d="M67.432,30.007v-1.373h4.703v1.373l-1.217,0.233v8.152l1.217,0.233v1.366h-4.703v-1.366l1.215-0.233v-8.152L67.432,30.007
			z"/>
		<path d="M73,39.992v-1.366l1.21-0.233v-8.152L73,30.007v-1.373h1.21h2.278h1.218v1.373l-1.218,0.233v8.004h3.207l0.109-1.427h1.74
			v3.174H73z"/>
		<path d="M82.361,39.992v-1.366l1.21-0.233v-8.152l-1.21-0.233v-1.373h1.21h2.278h1.215v1.373l-1.215,0.233v8.004h3.206
			l0.109-1.427h1.741v3.174H82.361z"/>
	</g>
	<text transform="matrix(1 0 0 1 35.0564 50.2046)" font-family="'RobotoSlab-Bold'" font-size="11.5698">SANFRAN</text>
	<text transform="matrix(1 0 0 1 34.5427 49.7764)" fill="#D52027" font-family="'RobotoSlab-Bold'" font-size="11.5698">SANFRAN</text>
</g>
<g id="Layer_14">
	<g>
		<g>
			<path d="M57.41,55.13v76.26l-0.37-0.21c-0.02,0.08-0.07,0.16-0.14,0.23c-0.14,0.14-0.27,0.27-0.41,0.42h-0.01
				c-0.08,0.08-0.15,0.15-0.23,0.229V55.13c0-0.35,0.26-0.53,0.54-0.55c0.21-0.02,0.43,0.07,0.54,0.26
				c0.02,0.02,0.03,0.04,0.04,0.07C57.4,54.97,57.41,55.05,57.41,55.13z"/>
		</g>
	</g>
	<g>
		<g>
			<path d="M58.992,60.76c0,2.557,0,5.114,0,7.672c0,0.745,1.155,0.745,1.155,0c0-0.04,0-0.077,0-0.117c0-0.745-1.155-0.745-1.155,0
				c0,0.04,0,0.077,0,0.117c0,0.745,1.155,0.745,1.155,0c0-2.556,0-5.114,0-7.672C60.148,60.016,58.992,60.016,58.992,60.76
				L58.992,60.76z"/>
		</g>
	</g>
	<g>
		<g>
			<path d="M65.165,60.292c0,2.557,0,5.114,0,7.671c0,0.745,1.154,0.745,1.154,0c0-0.039,0-0.077,0-0.116
				c0-0.745-1.154-0.745-1.154,0c0,0.039,0,0.077,0,0.116c0,0.745,1.154,0.745,1.154,0c0-2.556,0-5.113,0-7.671
				C66.319,59.548,65.165,59.548,65.165,60.292L65.165,60.292z"/>
		</g>
	</g>
	<g>
		<g>
			<path d="M64.731,72.703c0,2.558,0,5.115,0,7.673c0,0.744,1.154,0.744,1.154,0c0-0.039,0-0.078,0-0.117
				c0-0.745-1.154-0.745-1.154,0c0,0.039,0,0.076,0,0.117c0,0.744,1.154,0.744,1.154,0c0-2.558,0-5.114,0-7.673
				C65.885,71.96,64.731,71.96,64.731,72.703L64.731,72.703z"/>
		</g>
	</g>
	<g>
		<g>
			<path d="M59.281,73.823c0,2.43,0,4.858,0,7.29c0,0.744,1.155,0.744,1.155,0c0-2.432,0-4.86,0-7.29
				C60.436,73.077,59.281,73.077,59.281,73.823L59.281,73.823z"/>
		</g>
	</g>
	<g>
		<g>
			<path d="M59.547,87.105c0,3.108,0,6.22,0,9.327c0,0.745,1.154,0.745,1.154,0c0-3.107,0-6.219,0-9.327
				C60.701,86.362,59.547,86.362,59.547,87.105L59.547,87.105z"/>
		</g>
	</g>
	<g>
		<g>
			<path d="M64.52,86.198c0,2.983,0,5.967,0,8.949c0,0.744,1.154,0.744,1.154,0c0-2.982,0-5.966,0-8.949
				C65.675,85.454,64.52,85.454,64.52,86.198L64.52,86.198z"/>
		</g>
	</g>
	<g>
		<g>
			<path d="M60.44,102.47v30.67l-0.36-0.199c-0.1,0.029-0.21,0.04-0.32,0.02c-0.24-0.04-0.45-0.22-0.46-0.479l-0.02-0.011v-30
				c0-0.2,0.08-0.34,0.2-0.43c0.09-0.07,0.21-0.11,0.33-0.11c0.13-0.02,0.27,0.011,0.38,0.08C60.34,102.1,60.44,102.25,60.44,102.47
				z"/>
		</g>
	</g>
	<g>
		<g>
			<path d="M60.308,102.938c1.585-0.458,3.169-0.915,4.753-1.37c0.715-0.207,0.412-1.321-0.305-1.114
				c-1.586,0.458-3.17,0.913-4.756,1.37C59.287,102.031,59.592,103.146,60.308,102.938L60.308,102.938z"/>
		</g>
	</g>
	<g>
		<g>
			<path d="M60.344,96.893c1.492-0.305,2.983-0.608,4.476-0.913c0.73-0.148,0.42-1.262-0.307-1.114
				c-1.492,0.304-2.983,0.608-4.476,0.913C59.307,95.927,59.617,97.04,60.344,96.893L60.344,96.893z"/>
		</g>
	</g>
	<g>
		<g>
			<path d="M60.232,87.646c1.623-0.293,3.246-0.586,4.869-0.879c0.734-0.131,0.424-1.245-0.305-1.114
				c-1.625,0.293-3.248,0.586-4.871,0.88C59.194,86.666,59.505,87.777,60.232,87.646L60.232,87.646z"/>
		</g>
	</g>
	<g>
		<g>
			<path d="M60.222,81.692c1.637-0.207,3.273-0.414,4.91-0.619c0.729-0.091,0.736-1.248,0-1.155
				c-1.637,0.206-3.273,0.413-4.91,0.619C59.495,80.628,59.484,81.784,60.222,81.692L60.222,81.692z"/>
		</g>
	</g>
	<g>
		<g>
			<path d="M59.933,73.97c1.636-0.207,3.273-0.413,4.91-0.619c0.729-0.091,0.738-1.247,0-1.155c-1.637,0.206-3.273,0.413-4.91,0.619
				C59.206,72.908,59.196,74.063,59.933,73.97L59.933,73.97z"/>
		</g>
	</g>
	<g>
		<g>
			<path d="M59.811,69.04c1.917-0.139,3.834-0.276,5.752-0.413c0.738-0.053,0.742-1.208,0-1.155
				c-1.918,0.137-3.835,0.275-5.752,0.413C59.073,67.938,59.069,69.093,59.811,69.04L59.811,69.04z"/>
		</g>
	</g>
	<g>
		<g>
			<path d="M59.739,61.246c1.917-0.139,3.832-0.276,5.75-0.413c0.738-0.053,0.744-1.208,0-1.155
				c-1.918,0.138-3.833,0.276-5.75,0.413C59,60.144,58.996,61.299,59.739,61.246L59.739,61.246z"/>
		</g>
	</g>
	<g>
		<g>
			<path d="M64.876,111.06c0-3.176,0-6.351,0-9.525c0-0.745-1.156-0.745-1.156,0c0,3.175,0,6.35,0,9.525
				C63.719,111.804,64.876,111.804,64.876,111.06L64.876,111.06z"/>
		</g>
	</g>
	<g>
		<g>
			<path d="M68.518,112.973c0-19.201,0-38.4,0-57.6c0-0.745-1.154-0.745-1.154,0c0,19.199,0,38.398,0,57.6
				C67.364,113.716,68.518,113.716,68.518,112.973L68.518,112.973z"/>
		</g>
	</g>
	<g>
		<g>
			<path d="M75.45,124.84c0.51,0.32,1.021,0.65,1.53,0.98l-0.36,0.21l-0.77,0.439c-5.141-3.29-10.271-6.569-15.41-9.85
				c-0.02-0.01-0.03-0.03-0.05-0.04c-0.05-0.03-0.09-0.061-0.14-0.09c-0.11-0.061-0.21-0.13-0.32-0.2
				c-0.08-0.05-0.13-0.11-0.17-0.17c-0.15-0.2-0.12-0.46,0-0.65c0.05-0.09,0.13-0.16,0.22-0.21c0.06-0.029,0.12-0.05,0.18-0.06
				c0.09-0.01,0.18,0,0.28,0.06c0.02,0,0.05,0.01,0.07,0.03c0.31,0.2,0.61,0.39,0.92,0.59c1.26,0.8,2.51,1.601,3.77,2.41
				c0.1,0.06,0.19,0.12,0.29,0.18c1.66,1.061,3.32,2.12,4.98,3.181c0.1,0.069,0.189,0.13,0.29,0.189
				c1.47,0.94,2.93,1.87,4.399,2.811C75.26,124.71,75.35,124.77,75.45,124.84z"/>
		</g>
	</g>
	<g>
		<g>
			<path d="M56.5,114.24c-0.08,0.02-0.16,0.01-0.25-0.021c-0.04-0.02-0.08-0.04-0.12-0.06C40.3,104.08,24.48,93.99,8.66,83.91v-1.37
				c0.44,0.28,0.89,0.56,1.33,0.84c0.1,0.07,0.19,0.13,0.29,0.19c0.97,0.62,1.95,1.239,2.92,1.859c0.03,0.021,0.05,0.04,0.08,0.051
				c0.01,0.01,0.02,0.02,0.03,0.02c0.03,0.02,0.07,0.04,0.1,0.06c0.01,0.011,0.03,0.021,0.04,0.03c0.05,0.03,0.1,0.07,0.15,0.09
				c0.94,0.61,1.88,1.21,2.82,1.801c0.09,0.06,0.18,0.119,0.27,0.18c0.85,0.54,1.69,1.08,2.54,1.609
				c0.09,0.07,0.19,0.131,0.28,0.181c0.82,0.53,1.64,1.05,2.46,1.569c0.08,0.051,0.16,0.101,0.24,0.15
				c0.74,0.48,1.48,0.95,2.22,1.42c0.1,0.061,0.19,0.12,0.29,0.18c0.86,0.561,1.73,1.11,2.59,1.65c0.08,0.061,0.16,0.11,0.24,0.15
				c0.88,0.569,1.77,1.14,2.65,1.689c0.1,0.07,0.19,0.13,0.29,0.19c0.72,0.46,1.44,0.92,2.16,1.38c0.09,0.06,0.18,0.11,0.27,0.17
				c0.73,0.47,1.46,0.93,2.19,1.39c0.09,0.07,0.19,0.13,0.28,0.181c0.8,0.51,1.59,1.02,2.39,1.529c0.07,0.04,0.13,0.08,0.2,0.131
				h0.01c0.84,0.539,1.69,1.079,2.53,1.609c0.1,0.07,0.19,0.13,0.29,0.19c0.7,0.439,1.39,0.89,2.09,1.33
				c0.1,0.06,0.19,0.12,0.29,0.18c0.65,0.42,1.3,0.83,1.95,1.25c0.1,0.06,0.19,0.12,0.29,0.18c0.72,0.46,1.44,0.92,2.16,1.38
				c0.1,0.061,0.19,0.12,0.29,0.181c0.79,0.51,1.59,1.02,2.38,1.52c0.1,0.061,0.19,0.12,0.29,0.181c1.11,0.71,2.21,1.42,3.32,2.119
				c0.09,0.061,0.19,0.12,0.28,0.181c0.7,0.45,1.4,0.89,2.1,1.34c0.15,0.09,0.31,0.189,0.46,0.29c0.07,0.04,0.13,0.1,0.16,0.16
				C57.13,113.67,56.88,114.19,56.5,114.24z"/>
		</g>
	</g>
	<g>
		<g>
			<path d="M80.43,120.66c0.89,0.55,1.77,1.09,2.659,1.63l-0.88,0.51l-0.26,0.15c-0.479-0.29-0.95-0.58-1.43-0.87l-0.01-0.01
				c-0.03-0.021-0.051-0.04-0.08-0.051c-0.04-0.029-0.08-0.05-0.12-0.079c-0.061-0.03-0.11-0.061-0.17-0.101
				c-1.561-0.96-3.13-1.92-4.69-2.88c-0.1-0.06-0.189-0.12-0.29-0.18c-1.47-0.9-2.93-1.8-4.399-2.7
				c-0.101-0.061-0.19-0.12-0.29-0.18c-1.66-1.011-3.32-2.03-4.98-3.051c-0.1-0.06-0.19-0.119-0.29-0.18
				c-1.17-0.72-2.34-1.439-3.51-2.16c-0.39-0.229-0.77-0.47-1.16-0.71c-0.03-0.02-0.06-0.03-0.09-0.05
				c-0.12-0.08-0.25-0.15-0.37-0.23c-0.04-0.029-0.08-0.06-0.11-0.09c-0.01,0-0.01-0.01-0.01-0.01c-0.37-0.38,0-1.06,0.49-0.979
				c0.07,0.01,0.14,0.04,0.21,0.079c1.02,0.631,2.05,1.261,3.07,1.881c0.27,0.17,0.54,0.34,0.81,0.5c0.08,0.05,0.15,0.1,0.23,0.14
				c0.039,0.03,0.079,0.05,0.119,0.07c0.11,0.069,0.21,0.14,0.32,0.199c0.1,0.061,0.19,0.12,0.29,0.181
				c0.13,0.08,0.271,0.16,0.4,0.25c0.489,0.3,0.979,0.6,1.47,0.899c0.1,0.061,0.2,0.12,0.3,0.181c0.25,0.16,0.51,0.31,0.76,0.47
				c0.681,0.42,1.37,0.84,2.051,1.26c0.1,0.061,0.189,0.12,0.29,0.181c0.21,0.13,0.43,0.26,0.64,0.39c0.1,0.06,0.189,0.12,0.29,0.18
				c1.16,0.71,2.31,1.42,3.47,2.13c0.101,0.061,0.19,0.12,0.29,0.181c0.311,0.189,0.63,0.38,0.94,0.569
				c0.09,0.061,0.189,0.12,0.279,0.17c1.16,0.71,2.311,1.42,3.471,2.131C80.24,120.54,80.33,120.6,80.43,120.66z"/>
		</g>
	</g>
	<g>
		<g>
			<path d="M56.57,107.15c-0.09,0.06-0.2,0.08-0.32,0.05c-0.06-0.01-0.13-0.03-0.2-0.07c-0.63-0.37-1.26-0.74-1.89-1.11
				c-0.1-0.05-0.19-0.109-0.29-0.17c-1.11-0.64-2.21-1.29-3.32-1.939c-0.1-0.061-0.19-0.11-0.29-0.17
				c-0.8-0.471-1.59-0.931-2.38-1.391c-0.1-0.06-0.2-0.119-0.29-0.17c-0.72-0.43-1.44-0.85-2.16-1.27c-0.1-0.061-0.2-0.11-0.29-0.17
				c-0.65-0.38-1.3-0.76-1.95-1.141c-0.1-0.06-0.2-0.109-0.29-0.17c-0.7-0.41-1.4-0.819-2.09-1.22c-0.1-0.06-0.2-0.12-0.29-0.17
				c-0.82-0.48-1.64-0.96-2.45-1.44c-0.1-0.06-0.2-0.109-0.29-0.17c-0.8-0.46-1.59-0.93-2.38-1.39c-0.1-0.06-0.2-0.12-0.29-0.17
				c-0.73-0.43-1.45-0.851-2.17-1.271c-0.1-0.06-0.2-0.119-0.29-0.17c-0.72-0.42-1.44-0.85-2.16-1.27c-0.1-0.05-0.2-0.11-0.29-0.17
				c-0.87-0.5-1.74-1.01-2.6-1.521c-0.1-0.06-0.2-0.109-0.29-0.17c-0.87-0.5-1.73-1.01-2.59-1.51c-0.1-0.06-0.2-0.12-0.29-0.17
				c-0.73-0.43-1.45-0.851-2.17-1.28c-0.1-0.05-0.2-0.109-0.29-0.16c-0.82-0.479-1.64-0.96-2.45-1.439
				c-0.1-0.061-0.2-0.11-0.29-0.17c-0.85-0.49-1.69-0.99-2.53-1.48c-0.1-0.05-0.19-0.109-0.28-0.16c-0.94-0.55-1.88-1.1-2.82-1.66
				c-0.1-0.05-0.2-0.109-0.29-0.17c-1.01-0.59-2.02-1.18-3.03-1.77c-0.1-0.061-0.2-0.11-0.29-0.17C9.54,79.9,9.1,79.64,8.66,79.38
				v-0.05l0.01-1.28c0.44,0.26,0.88,0.521,1.32,0.771c0.1,0.06,0.19,0.12,0.29,0.17c1.01,0.59,2.02,1.189,3.03,1.779
				c0.1,0.051,0.19,0.11,0.29,0.171c0.94,0.55,1.88,1.1,2.82,1.649c0.09,0.05,0.19,0.11,0.28,0.16c0.84,0.5,1.69,0.99,2.53,1.48
				c0.1,0.06,0.19,0.119,0.29,0.17c0.82,0.479,1.63,0.96,2.45,1.439c0.1,0.05,0.19,0.11,0.29,0.17c0.72,0.42,1.45,0.84,2.17,1.271
				c0.1,0.05,0.19,0.109,0.29,0.17c0.86,0.5,1.73,1.01,2.59,1.51c0.1,0.06,0.19,0.12,0.29,0.17c0.87,0.51,1.73,1.021,2.6,1.53
				c0.1,0.05,0.19,0.109,0.29,0.17c0.72,0.42,1.44,0.84,2.16,1.26c0.1,0.061,0.19,0.11,0.29,0.17c0.72,0.42,1.45,0.851,2.17,1.271
				c0.1,0.06,0.19,0.109,0.29,0.17c0.79,0.47,1.59,0.93,2.38,1.39c0.1,0.061,0.19,0.12,0.29,0.17c0.82,0.48,1.63,0.96,2.45,1.44
				c0.1,0.06,0.19,0.109,0.29,0.17c0.7,0.41,1.39,0.81,2.09,1.22c0.1,0.061,0.19,0.12,0.29,0.17c0.65,0.38,1.3,0.76,1.95,1.141
				c0.1,0.06,0.19,0.119,0.29,0.17c0.72,0.43,1.44,0.85,2.16,1.27c0.1,0.05,0.19,0.11,0.29,0.17c0.79,0.46,1.59,0.931,2.38,1.391
				c0.1,0.06,0.19,0.109,0.29,0.17c1.11,0.649,2.21,1.3,3.32,1.939c0.1,0.061,0.19,0.12,0.29,0.17c0.7,0.41,1.39,0.82,2.09,1.23
				c0.13,0.07,0.25,0.149,0.38,0.22C57.08,106.4,56.93,106.97,56.57,107.15z"/>
		</g>
	</g>
	<g>
		<g>
			<path d="M73.49,127.83l-0.52,0.3l-0.46,0.26c-1.57-1.01-3.141-2.029-4.711-3.04c-0.22-0.14-0.43-0.279-0.649-0.42
				c-0.16-0.1-0.32-0.199-0.48-0.31c-0.02-0.01-0.029-0.021-0.05-0.03c-0.6-0.39-1.21-0.78-1.81-1.17l-0.011-0.01
				c0-0.01-0.01-0.01-0.01-0.01h-0.02c-0.04-0.03-0.07-0.051-0.11-0.08c-0.05-0.021-0.09-0.051-0.14-0.09
				c-0.15-0.091-0.311-0.19-0.46-0.29c-0.25-0.16-0.49-0.32-0.74-0.48c0,0-0.01,0-0.01-0.01c-0.96-0.61-1.91-1.23-2.87-1.851
				c-0.23-0.14-0.45-0.29-0.68-0.439c-0.06-0.04-0.13-0.08-0.19-0.12c-0.5-0.33-0.24-1.021,0.21-1.08c0.11-0.03,0.24,0,0.37,0.08
				c0.1,0.06,0.19,0.12,0.29,0.19c4.399,2.84,8.8,5.68,13.2,8.52L73.49,127.83z"/>
		</g>
	</g>
	<g>
		<g>
			<path d="M57.41,117.73v0.18c-0.07,0.359-0.44,0.66-0.84,0.399c-0.11-0.069-0.21-0.14-0.32-0.21c-0.13-0.09-0.27-0.18-0.4-0.27
				c-0.17-0.11-0.34-0.22-0.51-0.33c-0.21-0.14-0.41-0.28-0.62-0.41c-4.18-2.77-8.37-5.54-12.56-8.3c-0.12-0.08-0.24-0.16-0.36-0.23
				c-11.04-7.31-22.09-14.6-33.14-21.899V85.27c15.63,10.341,31.27,20.66,46.91,30.99c0.23,0.15,0.45,0.3,0.68,0.45
				c0.09,0.06,0.18,0.12,0.27,0.18c0.21,0.141,0.43,0.28,0.64,0.42C57.32,117.42,57.4,117.57,57.41,117.73z"/>
		</g>
	</g>
	<g>
		<g>
			<path d="M55.19,132.75c0.06,0.07,0.09,0.16,0.1,0.27c-0.04,0.04-0.07,0.07-0.11,0.11c-0.02,0.021-0.04,0.04-0.06,0.061
				c-0.07,0.069-0.15,0.119-0.23,0.14c-0.08,0.03-0.16,0.04-0.23,0.02c-0.23-0.029-0.44-0.22-0.51-0.439v-0.01
				c-0.02-0.08-0.02-0.15-0.01-0.23c0.05,0,0.1,0.01,0.14,0.021c0.01,0,0.01,0,0.01,0c0.2-0.2,0.53-0.23,0.76-0.07v-0.08
				c0.05,0.02,0.1,0.03,0.15,0.03C55.2,132.63,55.2,132.69,55.19,132.75z"/>
			<path d="M57.04,131.18c-0.02,0.08-0.07,0.16-0.14,0.23c-0.14,0.14-0.27,0.27-0.41,0.42h-0.01c-0.08,0.08-0.15,0.15-0.23,0.229
				v-0.35c-0.09-0.03-0.19-0.04-0.3-0.02c-0.03,0.01-0.07,0.01-0.1,0.02v-0.89c0.07-0.07,0.14-0.141,0.21-0.21
				c0.01-0.011,0.01-0.011,0.02-0.021c0.05-0.05,0.11-0.09,0.17-0.12C56.68,130.27,57.19,130.74,57.04,131.18z"/>
		</g>
	</g>
	<g>
		<g>
			<path d="M68.46,130.27c0.66-0.319,1.351-0.539,2.04-0.72l-2.7,1.561v0.01c0,0.51-0.529,0.67-0.869,0.49l-0.101,0.06l-2.03,1.17
				v0.36c-0.1-0.061-0.189-0.13-0.26-0.21l-0.479,0.279c0.14-0.119,0.279-0.239,0.42-0.35c0.1-0.1,0.21-0.189,0.319-0.28
				c0.591-0.479,1.211-0.939,1.86-1.359c0.101-0.061,0.2-0.13,0.311-0.19c0.27-0.17,0.55-0.33,0.829-0.479
				C68.02,130.49,68.24,130.38,68.46,130.27z"/>
		</g>
	</g>
	<g>
		<g>
			<path d="M60.234,131.736c-0.038,0.01-0.077,0.02-0.113,0.025c0.101,0.37,0.204,0.742,0.307,1.113
				c1.324-0.303,2.655-0.576,3.983-0.856c-0.102-0.371-0.203-0.744-0.305-1.114c-0.395,0.085-0.789,0.167-1.182,0.253
				c-0.726,0.158-0.418,1.27,0.307,1.114c0.395-0.083,0.789-0.168,1.18-0.253c0.73-0.159,0.418-1.268-0.305-1.114
				c-1.33,0.281-2.663,0.556-3.985,0.857c-0.729,0.166-0.418,1.266,0.307,1.113c0.038-0.008,0.075-0.018,0.113-0.024
				C61.271,132.694,60.96,131.581,60.234,131.736L60.234,131.736z"/>
		</g>
	</g>
	<g>
		<g>
			<path d="M60.095,122.939c-0.073,0.012-0.28,0.026,0.023,0c0.052,0.377,0.103,0.755,0.154,1.134
				c0.75-0.123,1.506-0.225,2.259-0.339c0.517-0.075,1.033-0.154,1.552-0.23c0.172-0.025,0.348-0.052,0.521-0.077
				c0.074-0.012,0.393-0.055,0.064-0.012c-0.053-0.378-0.104-0.757-0.154-1.134c-0.449,0.07-0.896,0.133-1.346,0.2
				c-0.733,0.111-0.421,1.223,0.307,1.114c0.451-0.067,0.898-0.13,1.346-0.202c0.641-0.099,0.492-1.214-0.152-1.133
				c-1.57,0.196-3.143,0.446-4.704,0.699c-0.642,0.104-0.494,1.191,0.154,1.135c0.095-0.011,0.19-0.025,0.284-0.041
				C61.135,123.945,60.823,122.832,60.095,122.939L60.095,122.939z"/>
		</g>
	</g>
	<g>
		<g>
			<path d="M64.8,123.41c0,0,0,0.01,0,0.02v9.771c-0.1-0.061-0.189-0.13-0.26-0.21l-0.479,0.279c-0.11,0.091-0.21,0.181-0.311,0.271
				c-0.01-0.021-0.029-0.04-0.04-0.07c-0.04-0.069-0.06-0.16-0.06-0.26v-9.74c0-0.239,0.12-0.399,0.28-0.479
				c0.04-0.021,0.08-0.04,0.13-0.05c0.189-0.051,0.41-0.011,0.56,0.119c0,0,0.01,0,0.01,0.011c0.091,0.069,0.15,0.18,0.16,0.319
				c0.01,0,0.01,0,0,0.011C64.79,123.4,64.8,123.4,64.8,123.41z"/>
		</g>
	</g>
	<g>
		<g>
			<path d="M67.8,124.81v6.311c0,0.51-0.529,0.67-0.869,0.49c-0.021-0.011-0.04-0.021-0.061-0.04c-0.1-0.061-0.18-0.16-0.21-0.29
				c-0.01-0.05-0.02-0.101-0.02-0.16v-6.311c0-0.069,0.01-0.14,0.029-0.189c0.03-0.08,0.07-0.15,0.12-0.2
				C67.11,124.1,67.8,124.23,67.8,124.81z"/>
		</g>
	</g>
	<g>
		<g>
			<path d="M55.85,117.23v13.59c-0.2,0.21-0.41,0.42-0.62,0.62c0-0.15,0.01-0.29,0.01-0.44c0.01-0.29,0.01-0.57,0.01-0.86
				l-0.55-0.319v-12.59c0-0.051,0.01-0.101,0.02-0.141c0.07-0.31,0.37-0.45,0.65-0.399C55.62,116.72,55.85,116.9,55.85,117.23z"/>
		</g>
	</g>
	<g>
		<g>
			<path d="M64.32,124.46c-0.15,0.5-0.41,1.05-0.67,1.55c-0.28,0.521-0.561,0.99-0.71,1.311c-0.061,0.12-0.11,0.229-0.17,0.35
				c-0.19,0.39-0.39,0.78-0.6,1.18c-0.46,0.91-0.93,1.82-1.33,2.75c-0.04,0.091-0.08,0.17-0.11,0.261
				c-0.1,0.229-0.19,0.47-0.28,0.71c0,0.01-0.01,0.02-0.01,0.02c-0.01,0.04-0.03,0.08-0.06,0.11c-0.04,0.069-0.1,0.13-0.17,0.18
				c0,0,0,0-0.01,0c-0.03,0.021-0.07,0.04-0.12,0.061c-0.1,0.029-0.21,0.04-0.32,0.02c-0.24-0.04-0.45-0.22-0.46-0.479
				c0-0.061,0.01-0.131,0.04-0.211c0.13-0.35,0.27-0.699,0.42-1.05c0.21-0.479,0.45-0.95,0.68-1.43c0.29-0.57,0.58-1.13,0.85-1.7
				c0.05-0.109,0.1-0.21,0.15-0.32c0.2-0.399,0.4-0.81,0.59-1.21c0.22-0.46,0.43-0.92,0.64-1.38c0.15-0.359,0.32-0.71,0.45-1.069
				c0.09-0.261,0.061-0.561,0.18-0.32c-0.02-0.05-0.02-0.11-0.02-0.17v-0.03c0.02-0.35,0.35-0.62,0.65-0.6
				c0.159,0.01,0.319,0.1,0.399,0.3c0.021,0.06,0.04,0.11,0.05,0.17c0.011,0.03,0.021,0.06,0.021,0.09c0,0.01,0,0.01,0,0.01
				C64.45,123.83,64.41,124.13,64.32,124.46z"/>
		</g>
	</g>
	<g>
		<g>
			<path d="M59.505,124.736c1.286,2.171,2.776,4.204,4.148,6.315c0.406,0.622,1.406,0.044,0.998-0.582
				c-1.373-2.112-2.864-4.146-4.149-6.314C60.123,123.515,59.124,124.097,59.505,124.736L59.505,124.736z"/>
		</g>
	</g>
	<g>
		<g>
			<path d="M101.72,110.23c0.25,0.3,0.5,0.59,0.76,0.88l-0.521,0.3c-0.08-0.09-0.16-0.18-0.239-0.28
				c-0.101-0.11-0.2-0.229-0.301-0.35c-0.239-0.271-0.479-0.55-0.72-0.83c-0.07-0.08-0.14-0.16-0.21-0.24
				c-1.11-1.28-2.22-2.57-3.32-3.86c-0.1-0.109-0.199-0.229-0.29-0.34c-0.439-0.51-0.869-1.01-1.3-1.52
				c-0.09-0.101-0.17-0.2-0.26-0.3c-1.12-1.32-2.24-2.641-3.35-3.971c-0.101-0.109-0.2-0.229-0.29-0.35
				c-0.341-0.4-0.681-0.8-1.011-1.21c-0.1-0.11-0.189-0.22-0.279-0.33c-1.11-1.33-2.221-2.67-3.32-4.021
				c-0.1-0.119-0.2-0.239-0.29-0.359c-0.46-0.561-0.92-1.12-1.38-1.681c-0.09-0.109-0.19-0.229-0.28-0.35
				c-1.189-1.47-2.37-2.939-3.54-4.42c-0.1-0.12-0.2-0.25-0.29-0.37c-0.29-0.36-0.58-0.72-0.859-1.09
				c-0.08-0.09-0.16-0.19-0.221-0.29c-0.41-0.51-0.81-1.02-1.21-1.53c-0.779-1.01-1.56-2.02-2.33-3.04
				c-0.1-0.12-0.189-0.239-0.279-0.37c-0.32-0.409-0.63-0.829-0.94-1.25c-0.08-0.1-0.15-0.199-0.229-0.3
				c-1.181-1.569-2.36-3.149-3.53-4.74c-0.101-0.13-0.2-0.26-0.29-0.39c-0.22-0.29-0.43-0.57-0.64-0.86
				c-0.101-0.13-0.19-0.25-0.28-0.379c-0.65-0.88-1.311-1.76-1.96-2.63c-0.29-0.38-0.57-0.77-0.86-1.15c-0.1-0.13-0.2-0.26-0.3-0.39
				c-0.22-0.3-0.44-0.6-0.67-0.89c-0.12-0.17-0.24-0.33-0.37-0.49c-0.26-0.35-0.521-0.69-0.78-1.04c-0.069-0.09-0.14-0.17-0.2-0.26
				c-0.06-0.08-0.119-0.15-0.18-0.23c-1.09-1.42-2.189-2.83-3.29-4.22c-0.23-0.27-0.44-0.54-0.66-0.81
				c-0.04-0.05-0.08-0.1-0.12-0.15c-0.04-0.05-0.07-0.09-0.1-0.13c-0.2-0.24-0.39-0.48-0.58-0.71c-0.93-1.13-1.87-2.26-2.83-3.36
				c-0.02-0.02-0.03-0.04-0.06-0.06c-0.03-0.05-0.07-0.09-0.11-0.13c-0.09-0.11-0.18-0.22-0.28-0.33c-0.18-0.21-0.01-0.49,0.2-0.5
				h0.04c0.06,0.01,0.12,0.03,0.17,0.09c0.17,0.2,0.35,0.4,0.51,0.6c0.04,0.03,0.07,0.06,0.09,0.1c0.25,0.28,0.49,0.57,0.73,0.85
				c0.74,0.87,1.47,1.75,2.18,2.64c0.22,0.25,0.42,0.5,0.63,0.76c0.07,0.09,0.15,0.18,0.22,0.28c0.01,0.01,0.03,0.03,0.04,0.05
				c0.2,0.25,0.4,0.5,0.61,0.76c0.88,1.1,1.74,2.22,2.61,3.34c0.061,0.08,0.12,0.16,0.18,0.24c0.07,0.09,0.131,0.17,0.2,0.26
				c0.26,0.34,0.521,0.69,0.78,1.03c0.13,0.16,0.25,0.32,0.37,0.49c0.229,0.29,0.45,0.59,0.67,0.89c0.11,0.13,0.2,0.26,0.3,0.39
				c0.29,0.38,0.57,0.76,0.86,1.14c0.96,1.28,1.92,2.57,2.88,3.871c0.09,0.13,0.189,0.26,0.29,0.39c1.56,2.11,3.12,4.22,4.7,6.3
				c0.09,0.13,0.18,0.25,0.279,0.37c0.9,1.2,1.82,2.39,2.74,3.57c0.62,0.8,1.25,1.59,1.88,2.38c0.09,0.12,0.181,0.24,0.29,0.359
				c1.71,2.171,3.44,4.32,5.2,6.471c0.09,0.12,0.19,0.229,0.29,0.35c1.52,1.87,3.06,3.72,4.61,5.57c0.09,0.12,0.189,0.24,0.29,0.35
				c1.619,1.95,3.26,3.88,4.909,5.811c0.091,0.109,0.19,0.229,0.29,0.34c1.41,1.649,2.83,3.3,4.25,4.939
				C101.52,110.01,101.61,110.12,101.72,110.23z"/>
			<path d="M106.85,117.01c-0.29-0.34-0.59-0.67-0.88-1.01c-0.101-0.11-0.19-0.22-0.29-0.33v-0.88c0.09,0.11,0.189,0.22,0.29,0.33
				c0.43,0.5,0.859,0.99,1.29,1.479C107.5,116.88,107.1,117.29,106.85,117.01z"/>
		</g>
	</g>
	<g>
		<g>
			<path d="M88.52,81.02c7.069,8.66,14.49,17.131,22.02,25.44l-0.52,0.3c-1.351-1.49-2.71-3-4.05-4.5
				c-0.03-0.029-0.061-0.06-0.091-0.09c-0.06-0.08-0.13-0.16-0.199-0.229c-1.33-1.49-2.65-2.971-3.96-4.471
				c-0.101-0.109-0.2-0.22-0.301-0.34c-1.43-1.62-2.85-3.26-4.25-4.899c-0.109-0.11-0.199-0.221-0.29-0.33
				c-1.659-1.92-3.3-3.86-4.909-5.801c-0.11-0.109-0.2-0.229-0.29-0.35c-1.2-1.43-2.391-2.87-3.561-4.32
				c-0.35-0.439-0.71-0.87-1.05-1.31c-0.1-0.12-0.2-0.25-0.29-0.37c-1.75-2.18-3.48-4.39-5.2-6.61c-0.09-0.12-0.189-0.25-0.29-0.38
				c-1.54-1.97-3.069-3.95-4.62-5.92c-0.09-0.12-0.189-0.23-0.279-0.35c-2.551-3.23-5.15-6.42-7.87-9.48
				c-0.061-0.07-0.12-0.13-0.19-0.2c-0.229-0.28-0.479-0.55-0.729-0.82c0-0.01-0.011-0.02-0.011-0.02
				c-0.029-0.03-0.05-0.06-0.069-0.08c-0.05-0.06-0.11-0.11-0.16-0.17c-0.05-0.06-0.11-0.12-0.16-0.18
				c-0.2-0.23,0.03-0.54,0.26-0.49c0.051,0,0.101,0.02,0.15,0.08c0.14,0.15,0.28,0.31,0.41,0.46c0.02,0.02,0.04,0.04,0.05,0.06
				c0.16,0.17,0.31,0.33,0.45,0.5C75.59,64.07,81.83,72.81,88.52,81.02z"/>
			<path d="M111.24,107.74v0.359c-0.1-0.1-0.2-0.21-0.29-0.319v-0.04C110.95,107.55,111.24,107.55,111.24,107.74z"/>
		</g>
	</g>
	<g>
		<g>
			<path d="M100.7,109.83v2.31l-0.29,0.16v-2.47c0-0.061,0.03-0.1,0.08-0.12C100.58,109.67,100.7,109.71,100.7,109.83z"/>
		</g>
	</g>
	<g>
		<g>
			<path d="M95.58,103.77v11.32l-0.29,0.17v-11.49c0-0.029,0.01-0.06,0.03-0.079C95.39,103.59,95.58,103.62,95.58,103.77z"/>
		</g>
	</g>
	<g>
		<g>
			<path d="M90.67,97.49v20.43l-0.279,0.16V97.49C90.39,97.31,90.67,97.31,90.67,97.49z"/>
		</g>
	</g>
	<g>
		<g>
			<path d="M85.4,91.36v29.6l-0.28,0.16V91.36C85.12,91.17,85.4,91.17,85.4,91.36z"/>
		</g>
	</g>
	<g>
		<g>
			<path d="M80.43,85.37v38.46l-0.29,0.16V85.37c0-0.061,0.029-0.101,0.069-0.12C80.3,85.2,80.43,85.24,80.43,85.37z"/>
		</g>
	</g>
	<g>
		<g>
			<path d="M75.446,125.132c0-15.419,0-30.838,0-46.258c0-0.187-0.287-0.187-0.287,0c0,15.419,0,30.838,0,46.258
				C75.159,125.318,75.446,125.318,75.446,125.132L75.446,125.132z"/>
		</g>
	</g>
	<g>
		<g>
			<path d="M70.757,122.028c0-16.525,0-33.051,0-49.577c0-0.186-0.289-0.186-0.289,0c0,16.526,0,33.052,0,49.577
				C70.468,122.216,70.757,122.216,70.757,122.028L70.757,122.028z"/>
		</g>
	</g>
	<g>
		<g>
			<path d="M65.487,118.709c0-17.392,0-34.783,0-52.175c0-0.186-0.287-0.186-0.287,0c0,17.392,0,34.784,0,52.175
				C65.2,118.896,65.487,118.896,65.487,118.709L65.487,118.709z"/>
		</g>
	</g>
	<g>
		<g>
			<path d="M54.159,111.492c0-17.727,0-35.456,0-53.185c0-0.186-0.289-0.186-0.289,0c0,17.728,0,35.457,0,53.185
				C53.87,111.68,54.159,111.68,54.159,111.492L54.159,111.492z"/>
		</g>
	</g>
	<g>
		<g>
			<path d="M50.551,109.256c0-16.335,0-32.667,0-49.001c0-0.186-0.289-0.186-0.289,0c0,16.334,0,32.666,0,49.001
				C50.262,109.441,50.551,109.441,50.551,109.256L50.551,109.256z"/>
		</g>
	</g>
	<g>
		<g>
			<path d="M47.879,107.74c0-15.372,0-30.742,0-46.113c0-0.187-0.288-0.187-0.288,0c0,15.371,0,30.741,0,46.113
				C47.591,107.927,47.879,107.927,47.879,107.74L47.879,107.74z"/>
		</g>
	</g>
	<g>
		<g>
			<path d="M45.426,106.297c0-14.305,0-28.607,0-42.914c0-0.186-0.289-0.186-0.289,0c0,14.305,0,28.609,0,42.914
				C45.137,106.483,45.426,106.483,45.426,106.297L45.426,106.297z"/>
		</g>
	</g>
	<g>
		<g>
			<path d="M43.19,104.565c0-13.373,0-26.749,0-40.124c0-0.186-0.289-0.186-0.289,0c0,13.375,0,26.751,0,40.124
				C42.901,104.752,43.19,104.752,43.19,104.565L43.19,104.565z"/>
		</g>
	</g>
	<g>
		<g>
			<path d="M40.807,103.121c0-12.484,0-24.969,0-37.454c0-0.186-0.289-0.186-0.289,0c0,12.485,0,24.969,0,37.454
				C40.518,103.309,40.807,103.309,40.807,103.121L40.807,103.121z"/>
		</g>
	</g>
	<g>
		<g>
			<path d="M38.065,101.102c0-11.265,0-22.532,0-33.798c0-0.186-0.289-0.186-0.289,0c0,11.266,0,22.533,0,33.798
				C37.776,101.288,38.065,101.288,38.065,101.102L38.065,101.102z"/>
		</g>
	</g>
	<g>
		<g>
			<path d="M35.396,99.514c0-10.295,0-20.591,0-30.887c0-0.186-0.288-0.186-0.288,0c0,0.24,0,0.482,0,0.722
				c0,0.187,0.288,0.187,0.288,0c0-0.24,0-0.481,0-0.722c0-0.186-0.288-0.186-0.288,0c0,10.296,0,20.592,0,30.887
				C35.108,99.7,35.396,99.7,35.396,99.514L35.396,99.514z"/>
		</g>
	</g>
	<g>
		<g>
			<path d="M32.943,97.926c0-9.429,0-18.857,0-28.288c0-0.186-0.289-0.186-0.289,0c0,9.431,0,18.859,0,28.288
				C32.654,98.113,32.943,98.113,32.943,97.926L32.943,97.926z"/>
		</g>
	</g>
	<g>
		<g>
			<path d="M30.489,96.482c0-8.522,0-17.045,0-25.567c0-0.186-0.289-0.186-0.289,0c0,0.071,0,0.14,0,0.21
				c0,0.186,0.289,0.186,0.289,0c0-0.07,0-0.14,0-0.21c0-0.186-0.289-0.186-0.289,0c0,8.522,0,17.044,0,25.567
				C30.2,96.669,30.489,96.669,30.489,96.482L30.489,96.482z"/>
		</g>
	</g>
	<g>
		<g>
			<path d="M27.602,94.462c0-7.476,0-14.949,0-22.425c0-0.186-0.289-0.186-0.289,0c0,0.001,0,0.004,0,0.005
				c0,0.186,0.289,0.186,0.289,0c0-0.001,0-0.003,0-0.005c0-0.186-0.289-0.186-0.289,0c0,7.476,0,14.951,0,22.425
				C27.314,94.648,27.602,94.648,27.602,94.462L27.602,94.462z"/>
		</g>
	</g>
	<g>
		<g>
			<path d="M24.716,93.09c0-6.734,0-13.47,0-20.205c0-0.187-0.289-0.187-0.289,0c0,6.735,0,13.471,0,20.205
				C24.427,93.277,24.716,93.277,24.716,93.09L24.716,93.09z"/>
		</g>
	</g>
	<g>
		<g>
			<path d="M22.262,91.069c0-5.784,0-11.57,0-17.354c0-0.186-0.289-0.186-0.289,0c0,5.787,0,11.57,0,17.354
				C21.973,91.257,22.262,91.257,22.262,91.069L22.262,91.069z"/>
		</g>
	</g>
	<g>
		<g>
			<path d="M19.52,89.41c0-4.907,0-9.814,0-14.721c0-0.186-0.289-0.186-0.289,0c0,4.906,0,9.813,0,14.721
				C19.231,89.597,19.52,89.597,19.52,89.41L19.52,89.41z"/>
		</g>
	</g>
	<g>
		<g>
			<path d="M16.704,87.605c0-4.21,0-8.419,0-12.629c0-0.186-0.289-0.186-0.289,0c0,4.21,0,8.419,0,12.629
				C16.415,87.792,16.704,87.792,16.704,87.605L16.704,87.605z"/>
		</g>
	</g>
	<g>
		<g>
			<path d="M13.602,85.802c0-3.471,0-6.943,0-10.415c0-0.186-0.289-0.186-0.289,0c0,3.472,0,6.944,0,10.415
				C13.313,85.989,13.602,85.989,13.602,85.802L13.602,85.802z"/>
		</g>
	</g>
	<g>
		<g>
			<path d="M10.283,83.637c0-2.598,0-5.195,0-7.793c0-0.187-0.289-0.187-0.289,0c0,2.598,0,5.195,0,7.793
				C9.994,83.824,10.283,83.824,10.283,83.637L10.283,83.637z"/>
		</g>
	</g>
	<g>
		<g>
			<path d="M57.19,56.68c-0.01,0-0.01,0.01-0.02,0.01c-0.31,0.18-0.61,0.37-0.92,0.55c-0.7,0.41-1.39,0.83-2.09,1.25
				c-0.1,0.05-0.19,0.11-0.29,0.17c-1.11,0.66-2.21,1.32-3.32,1.99c-0.1,0.05-0.19,0.11-0.29,0.17c-0.79,0.47-1.58,0.94-2.38,1.41
				c-0.09,0.05-0.19,0.11-0.29,0.16c-0.72,0.42-1.44,0.84-2.16,1.26c-0.09,0.05-0.19,0.11-0.29,0.16c-0.65,0.38-1.3,0.74-1.95,1.1
				c-0.1,0.06-0.19,0.12-0.29,0.17c-0.69,0.39-1.39,0.77-2.09,1.15c-0.1,0.05-0.19,0.1-0.29,0.15c-0.81,0.44-1.63,0.87-2.45,1.28
				c-0.1,0.05-0.2,0.1-0.29,0.14c-0.79,0.41-1.58,0.8-2.38,1.18c-0.1,0.05-0.2,0.1-0.29,0.14c-0.72,0.34-1.44,0.67-2.17,1
				c-0.1,0.04-0.2,0.08-0.29,0.13c-0.72,0.31-1.44,0.62-2.16,0.91c0,0.01-0.01,0-0.01,0c-0.07,0.04-0.13,0.06-0.2,0.08
				c-0.03,0.02-0.05,0.03-0.08,0.04c-0.84,0.34-1.68,0.67-2.53,0.98c-0.02,0.01-0.04,0.02-0.07,0.02c-0.09,0.04-0.19,0.08-0.29,0.11
				c-0.05,0.02-0.11,0.04-0.16,0.06c-0.8,0.29-1.62,0.56-2.43,0.8c-0.1,0.04-0.19,0.07-0.29,0.09c-0.52,0.17-1.05,0.32-1.58,0.46
				c-0.19,0.061-0.39,0.11-0.59,0.16c-0.1,0.03-0.19,0.06-0.29,0.08c-0.82,0.22-1.63,0.41-2.46,0.59
				c-0.09,0.03-0.18,0.05-0.28,0.061c-0.84,0.199-1.68,0.369-2.53,0.529c-0.1,0.021-0.19,0.04-0.28,0.05
				c-0.94,0.181-1.88,0.341-2.82,0.48c-0.1,0.02-0.19,0.04-0.29,0.05c-0.32,0.05-0.63,0.101-0.95,0.15c-0.68,0.1-1.37,0.2-2.08,0.26
				c-0.1,0.021-0.19,0.03-0.29,0.03c-0.44,0.04-0.88,0.069-1.32,0.08V75.81c0.46-0.01,0.92-0.04,1.39-0.079
				c0.04,0,0.09-0.011,0.14-0.021c2.07-0.19,4.13-0.64,5.96-1c0.31-0.06,0.63-0.12,0.94-0.19c1.59-0.319,3.15-0.68,4.7-1.079
				c0.01-0.011,0.02-0.011,0.04-0.011c3.07-0.81,6.07-1.8,9.04-3.09c0.61-0.26,1.22-0.53,1.82-0.81c0.01-0.01,0.02-0.01,0.04-0.02
				c2.65-1.21,5.24-2.51,7.79-3.87c0.06-0.04,0.12-0.07,0.18-0.1h0.01c2.32-1.25,4.6-2.54,6.87-3.86c0.08-0.04,0.17-0.09,0.25-0.15
				c2.8-1.62,5.59-3.29,8.41-4.96c0.22-0.13,0.43-0.26,0.65-0.39c0.16-0.09,0.31-0.02,0.38,0.11
				C57.36,56.41,57.35,56.58,57.19,56.68z"/>
		</g>
	</g>
	<g>
		<g>
			<path d="M56.899,55.487c3.384,2.207,7.6,2.859,10.975,0.288c0.582-0.445,0.008-1.447-0.584-0.997
				c-3.076,2.344-6.735,1.715-9.809-0.289C56.854,54.081,56.276,55.081,56.899,55.487L56.899,55.487z"/>
		</g>
	</g>
	<g>
		<g>
			<path d="M68.159,55.349c0-0.602,0-1.203,0-1.805c0-0.745-1.154-0.745-1.154,0c0,0.602,0,1.203,0,1.805
				C67.005,56.094,68.159,56.094,68.159,55.349L68.159,55.349z"/>
		</g>
	</g>
	<g>
		<g>
			<path d="M58.489,55.06c0-0.505,0-1.01,0-1.516c0-0.745-1.155-0.745-1.155,0c0,0.506,0,1.011,0,1.516
				C57.334,55.805,58.489,55.805,58.489,55.06L58.489,55.06z"/>
		</g>
	</g>
	<g>
		<g>
			<path d="M105.97,101.89v7.21l-0.29,0.16v-7.37c0-0.17,0.22-0.189,0.279-0.06C105.97,101.85,105.97,101.87,105.97,101.89z"/>
			<path d="M105.68,114.79c0.09,0.11,0.189,0.22,0.29,0.33v2.87c0,0.18-0.29,0.18-0.29,0V114.79z"/>
		</g>
	</g>
	<g>
		<g>
			<path d="M111.24,107.74v0.359c-0.1-0.1-0.2-0.21-0.29-0.319v-0.04C110.95,107.55,111.24,107.55,111.24,107.74z"/>
		</g>
	</g>
	<g>
		<g>
			<path d="M101.72,96.7v14.85l-0.301,0.17V96.7C101.42,96.51,101.72,96.51,101.72,96.7z"/>
		</g>
	</g>
	<g>
		<g>
			<path d="M97.17,91.86v22.31l-0.29,0.17V91.86C96.88,91.68,97.17,91.68,97.17,91.86z"/>
		</g>
	</g>
	<g>
		<g>
			<path d="M91.97,85.51v31.66l-0.29,0.17V85.51C91.68,85.33,91.97,85.33,91.97,85.51z"/>
		</g>
	</g>
	<g>
		<g>
			<path d="M87.07,79.72V120l-0.29,0.17V79.72C86.78,79.53,87.07,79.53,87.07,79.72z"/>
		</g>
	</g>
	<g>
		<g>
			<path d="M81.581,120.729c0-16.012,0-32.024,0-48.036c0-0.187-0.287-0.187-0.287,0c0,16.012,0,32.024,0,48.036
				C81.294,120.917,81.581,120.917,81.581,120.729L81.581,120.729z"/>
		</g>
	</g>
	<g>
		<g>
			<path d="M76.675,118.709c0-17.424,0-34.848,0-52.271c0-0.186-0.289-0.186-0.289,0c0,17.423,0,34.847,0,52.271
				C76.385,118.896,76.675,118.896,76.675,118.709L76.675,118.709z"/>
		</g>
	</g>
	<g>
		<g>
			<path d="M71.694,115.606c0-18.234,0-36.467,0-54.702c0-0.186-0.289-0.186-0.289,0c0,18.235,0,36.467,0,54.702
				C71.405,115.792,71.694,115.792,71.694,115.606L71.694,115.606z"/>
		</g>
	</g>
</g>
<g id="Layer_4">
	<g>
		<g>
			<path fill="#FFFFFF" d="M116.53,40.72l-0.011-0.31L61.93,9.4L7.78,41.18l0.44,62.78l54.6,31.011l53.88-31.621l0.271-0.158
				L116.53,40.72z M88.18,118.859l-25.5,14.83l-0.021-0.029l-1.46-0.87L9.31,103.32L8.88,41.8L61.94,10.66l53.49,30.39l0.439,61.521
				l-27.71,16.261L88.18,118.859z"/>
		</g>
	</g>
</g>
<g>
	<path fill-rule="evenodd" clip-rule="evenodd" d="M109.106,69.28c0.109,0.28,0.249,0.479,0.252,0.678
		c0.006,0.544,0.311,0.765,0.781,0.869c0.075,0.017,0.139,0.08,0.22,0.167c-0.437-0.132-0.779-0.153-0.67,0.523
		c0.57,0.138,1.174,0.284,1.778,0.429c-0.004,0.031-0.007,0.063-0.011,0.095c-0.092,0.018-0.185,0.049-0.276,0.052
		c-0.856,0.031-1.714,0.085-2.569,0.075c-0.381-0.005-0.76-0.131-1.138-0.22c-0.306-0.071-0.614-0.146-0.907-0.26
		c-0.249-0.096-0.471-0.263-0.717-0.374c-0.51-0.23-1.025-0.444-1.627-0.702c0.634,0,1.184-0.005,1.732,0.004
		c0.097,0.001,0.219,0.03,0.284,0.093c0.301,0.286,0.566,0.361,0.874-0.006c0.333-0.398,0.424-0.865,0.182-1.242
		c-0.084-0.131-0.18-0.255-0.34-0.48c0.524-0.144,0.976-0.274,1.431-0.387c0.196-0.048,0.405-0.098,0.603-0.082
		c0.163,0.014,0.36,0.089,0.46,0.207c0.05,0.059-0.063,0.283-0.139,0.413C109.262,69.21,109.148,69.251,109.106,69.28z"/>
	<path fill-rule="evenodd" clip-rule="evenodd" d="M17.402,52.278c0.387-0.308,0.964-0.292,1.473,0.019
		c0.483,0.296,0.793,0.158,0.876-0.402c0.023-0.157,0.069-0.348,0.005-0.473c-0.438-0.852-0.012-1.637,0.156-2.52
		c0.257,0.164,0.504,0.274,0.686,0.451c0.154,0.152,0.259,0.371,0.348,0.577c0.299,0.681,0.703,1.32,0.652,2.125
		c-0.052,0.836,0.171,1.032,1.025,1.093c0.275,0.019,0.55,0.054,0.823,0.087c0.033,0.004,0.06,0.049,0.104,0.204
		c-0.371,0.049-0.745,0.079-1.108,0.158c-0.189,0.042-0.357,0.173-0.538,0.257c-0.145,0.067-0.288,0.157-0.44,0.181
		c-0.594,0.096-1.068-0.089-1.419-0.604c-0.077-0.114-0.275-0.149-0.424-0.208c-0.653-0.264-1.31-0.521-1.963-0.785
		C17.569,52.401,17.491,52.335,17.402,52.278z"/>
	<path fill-rule="evenodd" clip-rule="evenodd" d="M97.302,62.409c0.838-0.479,1.58-0.384,2.329-0.013
		c0.383,0.191,0.758-0.01,0.722-0.434c-0.035-0.399-0.244-0.783-0.414-1.284c0.429-0.289,0.983-0.662,1.556-1.046
		c0.331,0.792,0.663,1.579,0.965,2.3c0.247,0.024,0.447,0.043,0.702,0.068c-0.151,0.207-0.237,0.325-0.323,0.442
		c0.138,0.059,0.271,0.148,0.413,0.168c0.282,0.04,0.575,0.013,0.854,0.067c0.221,0.041,0.426,0.162,0.628,0.243
		c-0.982,0.208-1.939,0.416-2.899,0.611c-0.11,0.023-0.236,0.007-0.347-0.021C100.114,63.152,98.743,62.788,97.302,62.409z"/>
	<path fill-rule="evenodd" clip-rule="evenodd" d="M84.174,64.577c0.714-0.299,1.442-0.273,2.156,0.139
		c0.342,0.197,0.637,0.103,0.842-0.239c0.199-0.334,0.13-0.541-0.264-0.779c-0.095-0.058-0.19-0.115-0.36-0.218
		c0.159-0.03,0.238-0.067,0.309-0.056c0.547,0.083,1.092,0.18,1.639,0.263c0.364,0.055,0.556,0.289,0.813,0.541
		c0.371,0.365,0.544,0.839,0.892,1.19c0.09,0.091,0.252,0.127,0.388,0.154c0.329,0.066,0.662,0.113,0.993,0.167
		c-0.005,0.038-0.01,0.076-0.015,0.114c-1.152,0.043-2.314,0.193-3.454,0.091c-0.763-0.067-1.492-0.491-2.236-0.757
		C85.304,64.984,84.735,64.778,84.174,64.577z"/>
	<path fill-rule="evenodd" clip-rule="evenodd" d="M28.331,59.152c-0.068-0.33,0.089-0.492,0.36-0.475
		c0.445,0.026,0.901,0.057,1.327,0.176c0.496,0.138,0.825,0.066,1.07-0.349c0.264-0.449-0.018-0.667-0.347-0.875
		c-0.034-0.021-0.054-0.063-0.146-0.172c0.245-0.019,0.437-0.073,0.611-0.039c0.518,0.101,1.049,0.189,1.534,0.383
		c0.198,0.079,0.295,0.417,0.433,0.639c0.021,0.035,0.003,0.106,0.027,0.123c0.531,0.369,0.744,1.208,1.608,1.087
		c0.078-0.012,0.165,0.04,0.248,0.062c0,0.038,0,0.077,0,0.115c-0.241,0-0.486-0.024-0.725,0.005
		c-0.576,0.068-1.146,0.209-1.723,0.226c-0.424,0.013-0.853-0.116-1.276-0.195c-0.255-0.048-0.508-0.113-0.758-0.184
		c-0.259-0.073-0.513-0.169-0.771-0.244c-0.22-0.065-0.442-0.126-0.667-0.167C28.867,59.215,28.593,59.188,28.331,59.152z"/>
</g>
</svg>
