<?xml version="1.0" encoding="UTF-8" standalone="no"?>
<!DOCTYPE svg PUBLIC "-//W3C//DTD SVG 1.1//EN" "http://www.w3.org/Graphics/SVG/1.1/DTD/svg11.dtd">
<svg width="100%" height="100%" viewBox="0 0 1200 1200" version="1.1" xmlns="http://www.w3.org/2000/svg" xmlns:xlink="http://www.w3.org/1999/xlink" xml:space="preserve" xmlns:serif="http://www.serif.com/" style="fill-rule:evenodd;clip-rule:evenodd;stroke-linejoin:round;stroke-miterlimit:10;">
    <g transform="matrix(1,0,0,1,-4215,-3960)">
        <g id="Bufficorn_Prime" transform="matrix(1.5873,0,0,1.42857,4208.65,3961.43)">
            <rect x="4" y="-1" width="756" height="840" style="fill:none;"/>
            <clipPath id="_clip1">
                <rect x="4" y="-1" width="756" height="840"/>
            </clipPath>
            <g clip-path="url(#_clip1)">
                <g transform="matrix(0.39375,0,0,0.805571,4,-30.8674)">
                    <g id="Background">
                        <rect x="0" y="37.076" width="1920" height="1042.74" style="fill:rgb(239,244,238);"/>
                    </g>
                </g>
                <g id="Artwork" transform="matrix(0.63,0,0,0.7,-2651.45,-2773)">
                    <g transform="matrix(0.709194,0,0,0.709194,4653.93,4348.94)">
                        <path d="M0,265.905L0,224.507C0,86.215 112.108,-25.893 250.4,-25.893C388.692,-25.893 500.801,86.215 500.801,224.507L500.801,265.905L441.512,291.798L58.291,288.941L0,265.905Z" style="fill:none;stroke:rgb(21,0,62);stroke-width:16.89px;"/>
                    </g>
                    <g transform="matrix(0.709194,0,0,0.709194,4422.41,5057.26)">
                        <path d="M0,0L1130,0.601" style="fill:none;stroke:rgb(21,0,62);stroke-width:16.89px;stroke-linecap:round;"/>
                    </g>
                    <g transform="matrix(0.709194,0,0,0.709194,5069.28,4551.65)">
                        <path d="M0,0.001C0,5.721 -4.638,10.358 -10.358,10.358C-16.079,10.358 -20.716,5.721 -20.716,0.001C-20.716,-5.72 -16.079,-10.357 -10.358,-10.357C-4.638,-10.357 0,-5.72 0,0.001" style="fill:rgb(255,206,8);fill-rule:nonzero;"/>
                    </g>
                    <g transform="matrix(0,-0.709194,-0.709194,0,5061.94,4544.31)">
                        <ellipse cx="-10.358" cy="0.001" rx="10.358" ry="10.358" style="fill:none;stroke:rgb(21,0,62);stroke-width:11.28px;"/>
                    </g>
                    <g transform="matrix(0.709194,0,0,0.709194,5070.42,4572.14)">
                        <path d="M0,-57.783L-23.935,-57.783L-40.859,-40.859L-40.859,-16.925L-23.935,0L0,0L16.924,-16.925L16.924,-40.859L0,-57.783Z" style="fill:none;stroke:rgb(21,0,62);stroke-width:11.28px;"/>
                    </g>
                    <g transform="matrix(0.709193,0.00159579,0.00159579,-0.709193,4830.03,4990.5)">
                        <path d="M0.8,-0.002C0.8,-0.002 -463.208,333.061 -360.999,710.617C-222.795,603.714 -95.866,575.742 0.8,575.959C97.466,576.177 224.342,604.72 362.065,712.244C465.971,335.151 0.8,-0.002 0.8,-0.002Z" style="fill:none;stroke:rgb(21,0,62);stroke-width:16.89px;"/>
                    </g>
                    <g transform="matrix(0.709194,0,0,0.709194,4907.42,4715.65)">
                        <path d="M0,153.904L-214.051,153.904C-256.55,153.904 -291.003,119.451 -291.003,76.952C-291.003,34.452 -256.55,0 -214.051,0L0,0C42.499,0 76.952,34.452 76.952,76.952C76.952,119.451 42.499,153.904 0,153.904Z" style="fill:none;stroke:rgb(21,0,62);stroke-width:16.89px;"/>
                    </g>
                    <g transform="matrix(-0.709194,0,0,0.709194,5540.6,4540.41)">
                        <rect x="879.683" y="401.001" width="240.337" height="71.348" style="fill:rgb(17,13,59);stroke:rgb(21,0,62);stroke-width:16.89px;"/>
                    </g>
                    <g transform="matrix(0.709194,0,0,0.709194,4910.55,4840.88)">
                        <path d="M0,26C-12.38,26 -12.38,0 -24.76,0C-37.142,0 -37.142,26 -49.523,26C-61.905,26 -61.905,0 -74.287,0C-86.669,0 -86.669,26 -99.053,26C-111.436,26 -111.436,0 -123.82,0C-136.203,0 -136.203,26 -148.586,26C-160.97,26 -160.97,0 -173.354,0C-185.739,0 -185.739,26 -198.125,26C-210.51,26 -210.51,0 -222.896,0" style="fill:none;stroke:rgb(255,205,44);stroke-width:16.89px;stroke-linecap:round;"/>
                    </g>
                    <g transform="matrix(0,0.709194,0.709194,0,5196.51,4364.16)">
                        <path d="M-207.175,-207.175L207.175,-207.175" style="fill:none;stroke:rgb(21,0,62);stroke-width:16.89px;"/>
                    </g>
                    <g transform="matrix(0,-0.709194,-0.709194,0,4723.05,4401.48)">
                        <path d="M-154.548,154.548L154.548,154.548" style="fill:none;stroke:rgb(21,0,62);stroke-width:16.89px;"/>
                    </g>
                    <g transform="matrix(0,-0.709194,-0.709194,0,4887.38,4771.58)">
                        <path d="M-75.018,75.018L75.018,75.018" style="fill:none;stroke:rgb(21,0,62);stroke-width:16.89px;"/>
                    </g>
                    <g transform="matrix(0.709194,0,0,0.709194,4613.45,4293.02)">
                        <path d="M0,307.482C0,137.664 137.664,0 307.482,0C477.299,0 614.964,137.664 614.964,307.482" style="fill:none;stroke:rgb(21,0,62);stroke-width:16.89px;"/>
                    </g>
                    <g transform="matrix(0.709194,0,0,0.709194,4740.81,4775.03)">
                        <path d="M0,0.001C0,13.224 10.72,23.943 23.943,23.943C37.167,23.943 47.887,13.224 47.887,0.001C47.887,-13.223 37.167,-23.942 23.943,-23.942C10.72,-23.942 0,-13.223 0,0.001" style="fill:rgb(255,206,8);fill-rule:nonzero;"/>
                    </g>
                    <g transform="matrix(0,0.709194,0.709194,0,4757.79,4758.05)">
                        <ellipse cx="23.943" cy="0" rx="23.943" ry="23.943" style="fill:none;stroke:rgb(21,0,62);stroke-width:16.89px;stroke-linejoin:miter;"/>
                    </g>
                    <g transform="matrix(0.709194,0,0,0.709194,4888.26,4775.03)">
                        <path d="M0,0.001C0,13.224 10.72,23.943 23.943,23.943C37.167,23.943 47.886,13.224 47.886,0.001C47.886,-13.223 37.167,-23.942 23.943,-23.942C10.72,-23.942 0,-13.223 0,0.001" style="fill:rgb(255,206,8);fill-rule:nonzero;"/>
                    </g>
                    <g transform="matrix(0,0.709194,0.709194,0,4905.24,4758.05)">
                        <ellipse cx="23.943" cy="0" rx="23.942" ry="23.943" style="fill:none;stroke:rgb(21,0,62);stroke-width:16.89px;stroke-linejoin:miter;"/>
                    </g>
                    <g transform="matrix(-0.501476,-0.501476,-0.501476,0.501476,4536.13,4570.09)">
                        <path d="M-118.796,49.207L20.382,49.207" style="fill:none;stroke:rgb(21,0,62);stroke-width:16.89px;stroke-linecap:round;stroke-linejoin:miter;"/>
                    </g>
                    <g transform="matrix(0.501476,-0.501476,-0.501476,-0.501476,4542.43,4659.8)">
                        <path d="M-13.634,32.915L79.464,32.915" style="fill:none;stroke:rgb(21,0,62);stroke-width:16.89px;stroke-linecap:round;stroke-linejoin:miter;"/>
                    </g>
                    <g transform="matrix(0.501469,-0.501483,-0.501483,-0.501469,4531.68,4655.35)">
                        <path d="M-7.356,17.759L42.874,17.76" style="fill:none;stroke:rgb(94,192,144);stroke-width:16.89px;stroke-linecap:round;stroke-linejoin:miter;"/>
                    </g>
                    <g transform="matrix(0.501473,-0.50148,-0.50148,-0.501473,4524.32,4639.73)">
                        <path d="M-15.587,37.63L90.845,37.63" style="fill:none;stroke:rgb(16,7,58);stroke-width:16.89px;stroke-linecap:round;stroke-linejoin:miter;"/>
                    </g>
                    <g transform="matrix(0.501476,-0.501476,-0.501476,-0.501476,4507.08,4637.36)">
                        <path d="M-7.489,18.08L43.649,18.08" style="fill:none;stroke:rgb(94,192,144);stroke-width:16.89px;stroke-linecap:round;stroke-linejoin:miter;"/>
                    </g>
                    <g transform="matrix(0.709194,0,0,0.709194,4499.56,4602.54)">
                        <path d="M0,-106.41C23.025,-83.384 23.025,-46.052 0,-23.025C-23.026,0 -60.358,0 -83.384,-23.025L0,-106.41Z" style="fill:none;stroke:rgb(21,0,62);stroke-width:16.89px;stroke-linecap:round;"/>
                    </g>
                    <g transform="matrix(-0.501473,-0.50148,-0.50148,0.501473,4443.87,4497.1)">
                        <path d="M-85.42,35.383L14.656,35.383" style="fill:none;stroke:rgb(21,0,62);stroke-width:16.89px;stroke-linecap:round;"/>
                    </g>
                    <g transform="matrix(0.709194,0,0,0.709194,4418.77,4520.07)">
                        <circle cx="0" cy="-17.735" r="17.736" style="fill:rgb(15,206,124);"/>
                    </g>
                    <g transform="matrix(-0.709194,0,0,0.709194,4673.52,4980.26)">
                        <path d="M-59.883,27.901L0,27.901L-2.654,0L-57.23,0L-59.883,27.901Z" style="fill:none;stroke:rgb(21,0,62);stroke-width:16.89px;"/>
                    </g>
                    <g transform="matrix(-0.709194,0,0,0.709194,4673.52,5008.28)">
                        <path d="M-59.883,-11.612L0,-11.612L-2.654,0L-57.23,0L-59.883,-11.612Z" style="fill:rgb(17,13,59);fill-rule:nonzero;stroke:rgb(21,0,62);stroke-width:16.89px;"/>
                    </g>
                    <g transform="matrix(0.709194,0,0,0.709194,4741.14,4936.92)">
                        <path d="M0,-34.498L-39.228,40.101L-79.34,32.186L-38.386,-74.599" style="fill:none;stroke:rgb(21,0,62);stroke-width:16.89px;"/>
                    </g>
                    <g transform="matrix(-0.166234,0.689437,0.689437,0.166234,4704.18,4975.93)">
                        <path d="M-14.595,-11.494L9.052,-11.494" style="fill:white;fill-rule:nonzero;stroke:rgb(21,0,62);stroke-width:16.89px;"/>
                    </g>
                    <g transform="matrix(0.709194,0,0,0.709194,4637.42,4915.92)">
                        <path d="M0,-183.658L-47.681,-36.504L32.417,0L82.166,-74.007" style="fill:none;stroke:rgb(21,0,62);stroke-width:16.89px;"/>
                    </g>
                    <g transform="matrix(-0.703664,-0.0883931,-0.0883931,0.703664,4604.71,4924.09)">
                        <rect x="-59.67" y="3.733" width="67.034" height="113.969" style="fill:none;stroke:rgb(21,0,62);stroke-width:16.89px;"/>
                    </g>
                    <g transform="matrix(0.704818,0.0786692,0.0786692,-0.704818,4609.15,4989.12)">
                        <path d="M-0.058,-1.043L18.747,-1.043" style="fill:rgb(15,206,124);fill-rule:nonzero;stroke:rgb(94,192,144);stroke-width:16.89px;stroke-linecap:round;stroke-linejoin:miter;"/>
                    </g>
                    <g transform="matrix(0.704813,0.0787065,0.0787065,-0.704813,4610.77,4974.56)">
                        <path d="M-0.058,-1.044L18.747,-1.044" style="fill:rgb(15,206,124);fill-rule:nonzero;stroke:rgb(94,192,144);stroke-width:16.89px;stroke-linecap:round;stroke-linejoin:miter;"/>
                    </g>
                    <g transform="matrix(0.704813,0.0787065,0.0787065,-0.704813,4612.4,4960)">
                        <path d="M-0.058,-1.044L18.747,-1.044" style="fill:rgb(15,206,124);fill-rule:nonzero;stroke:rgb(94,192,144);stroke-width:16.89px;stroke-linecap:round;stroke-linejoin:miter;"/>
                    </g>
                    <g transform="matrix(0.704818,0.0786692,0.0786692,-0.704818,4614.02,4945.44)">
                        <path d="M-0.058,-1.043L18.747,-1.043" style="fill:rgb(15,206,124);fill-rule:nonzero;stroke:rgb(94,192,144);stroke-width:16.89px;stroke-linecap:round;stroke-linejoin:miter;"/>
                    </g>
                    <g transform="matrix(-0.709194,0,0,0.709194,4579.9,5032.63)">
                        <path d="M-86.42,34.728L0,34.728L-2.653,0L-83.767,0L-86.42,34.728Z" style="fill:none;stroke:rgb(21,0,62);stroke-width:16.89px;"/>
                    </g>
                    <g transform="matrix(-0.709194,0,0,0.709194,4579.9,5068.5)">
                        <path d="M-86.42,-15.255L0,-15.255L-2.653,0L-83.767,0L-86.42,-15.255Z" style="fill:rgb(17,13,59);fill-rule:nonzero;stroke:rgb(21,0,62);stroke-width:16.89px;"/>
                    </g>
                    <g transform="matrix(-0.232975,0.669835,0.669835,0.232975,4637.99,4924.28)">
                        <path d="M-25.312,-17.996L12.794,-17.996" style="fill:none;stroke:rgb(21,0,62);stroke-width:16.89px;"/>
                    </g>
                    <g transform="matrix(-0.0389292,0.708125,0.708125,0.0389292,4622.89,5022.23)">
                        <path d="M-17.392,-16.462L15.582,-16.462" style="fill:none;stroke:rgb(21,0,62);stroke-width:16.89px;"/>
                    </g>
                    <g transform="matrix(-0.16298,0.690213,0.690213,0.16298,4703.16,4895.93)">
                        <path d="M-65.946,-52.187L41.3,-52.187" style="fill:none;stroke:rgb(21,0,62);stroke-width:16.89px;"/>
                    </g>
                    <g transform="matrix(0.42592,-0.567052,-0.567052,-0.42592,4642.4,4897.13)">
                        <path d="M-24.855,49.754L99.596,49.754" style="fill:none;stroke:rgb(21,0,62);stroke-width:16.89px;"/>
                    </g>
                    <g transform="matrix(0.709194,0,0,0.709194,4947.04,4980.26)">
                        <path d="M0,27.901L59.883,27.901L57.229,0L2.653,0L0,27.901Z" style="fill:none;stroke:rgb(21,0,62);stroke-width:16.89px;"/>
                    </g>
                    <g transform="matrix(0.709194,0,0,0.709194,4947.04,5008.28)">
                        <path d="M0,-11.612L59.883,-11.612L57.229,0L2.653,0L0,-11.612Z" style="fill:rgb(17,13,59);fill-rule:nonzero;stroke:rgb(21,0,62);stroke-width:16.89px;"/>
                    </g>
                    <g transform="matrix(0.709194,0,0,0.709194,4921.89,4936.92)">
                        <path d="M0,-34.498L39.228,40.101L79.34,32.186L38.386,-74.599" style="fill:none;stroke:rgb(21,0,62);stroke-width:16.89px;"/>
                    </g>
                    <g transform="matrix(0.166234,0.689437,0.689437,-0.166234,4973.78,4968.28)">
                        <path d="M-9.052,-11.494L14.595,-11.494" style="fill:none;stroke:rgb(21,0,62);stroke-width:16.89px;"/>
                    </g>
                    <g transform="matrix(0.709194,0,0,0.709194,5025.61,4915.92)">
                        <path d="M0,-183.658L47.68,-36.504L-32.418,0L-82.166,-74.007" style="fill:none;stroke:rgb(21,0,62);stroke-width:16.89px;"/>
                    </g>
                    <g transform="matrix(0.703664,-0.0883931,-0.0883931,-0.703664,5032.25,5014.16)">
                        <rect x="-7.364" y="3.733" width="67.034" height="113.969" style="fill:none;stroke:rgb(21,0,62);stroke-width:16.89px;"/>
                    </g>
                    <g transform="matrix(-0.704818,0.0786692,0.0786692,0.704818,5040.87,4992.06)">
                        <path d="M-18.747,-1.043L0.058,-1.043" style="fill:rgb(15,206,124);fill-rule:nonzero;stroke:rgb(15,206,124);stroke-width:16.89px;stroke-linecap:round;stroke-linejoin:miter;"/>
                    </g>
                    <g transform="matrix(-0.704813,0.0787065,0.0787065,0.704813,5039.25,4977.5)">
                        <path d="M-18.747,-1.044L0.058,-1.044" style="fill:rgb(15,206,124);fill-rule:nonzero;stroke:rgb(15,206,124);stroke-width:16.89px;stroke-linecap:round;stroke-linejoin:miter;"/>
                    </g>
                    <g transform="matrix(-0.704813,0.0787065,0.0787065,0.704813,5037.62,4962.94)">
                        <path d="M-18.747,-1.044L0.058,-1.044" style="fill:rgb(15,206,124);fill-rule:nonzero;stroke:rgb(15,206,124);stroke-width:16.89px;stroke-linecap:round;stroke-linejoin:miter;"/>
                    </g>
                    <g transform="matrix(-0.704818,0.0786692,0.0786692,0.704818,5035.99,4948.38)">
                        <path d="M-18.747,-1.043L0.058,-1.043" style="fill:rgb(15,206,124);fill-rule:nonzero;stroke:rgb(15,206,124);stroke-width:16.89px;stroke-linecap:round;stroke-linejoin:miter;"/>
                    </g>
                    <g transform="matrix(0.709194,0,0,0.709194,5021.84,5032.63)">
                        <path d="M0,34.728L86.42,34.728L83.767,0L2.654,0L0,34.728Z" style="fill:none;stroke:rgb(21,0,62);stroke-width:16.89px;"/>
                    </g>
                    <g transform="matrix(0.709194,0,0,0.709194,5021.84,5068.5)">
                        <path d="M0,-15.255L86.42,-15.255L83.767,0L2.654,0L0,-15.255Z" style="fill:rgb(17,13,59);fill-rule:nonzero;stroke:rgb(21,0,62);stroke-width:16.89px;"/>
                    </g>
                    <g transform="matrix(0.232975,0.669835,0.669835,-0.232975,5046.23,4907.51)">
                        <path d="M-12.794,-17.996L25.312,-17.996" style="fill:none;stroke:rgb(21,0,62);stroke-width:16.89px;"/>
                    </g>
                    <g transform="matrix(0.0389292,0.708125,0.708125,-0.0389292,5063.38,5019.67)">
                        <path d="M-15.582,-16.462L17.392,-16.462" style="fill:none;stroke:rgb(21,0,62);stroke-width:16.89px;"/>
                    </g>
                    <g transform="matrix(0.16298,0.690213,0.690213,-0.16298,5027.89,4861.9)">
                        <path d="M-41.3,-52.187L65.946,-52.187" style="fill:none;stroke:rgb(21,0,62);stroke-width:16.89px;"/>
                    </g>
                    <g transform="matrix(-0.42592,-0.567052,-0.567052,0.42592,5045.22,4812.37)">
                        <path d="M-99.596,49.754L24.855,49.754" style="fill:none;stroke:rgb(21,0,62);stroke-width:16.89px;"/>
                    </g>
                    <g transform="matrix(0,0.709194,0.709194,0,4950.54,4663.23)">
                        <path d="M-16.726,-16.726L16.726,-16.726" style="fill:none;stroke:rgb(21,0,62);stroke-width:16.89px;stroke-linecap:round;"/>
                    </g>
                    <g transform="matrix(0,0.709194,0.709194,0,4931.72,4663.23)">
                        <path d="M-16.726,-16.726L16.726,-16.726" style="fill:none;stroke:rgb(21,0,62);stroke-width:16.89px;stroke-linecap:round;"/>
                    </g>
                    <g transform="matrix(0,0.709194,0.709194,0,4950.54,4663.23)">
                        <path d="M-16.726,-16.726L16.726,-16.726" style="fill:none;stroke:rgb(21,0,62);stroke-width:16.89px;stroke-linecap:round;"/>
                    </g>
                    <g transform="matrix(0,0.709194,0.709194,0,4755.03,4663.23)">
                        <path d="M-16.726,-16.726L16.726,-16.726" style="fill:none;stroke:rgb(21,0,62);stroke-width:16.89px;stroke-linecap:round;"/>
                    </g>
                    <g transform="matrix(0,0.709194,0.709194,0,4736.21,4663.23)">
                        <path d="M-16.726,-16.726L16.726,-16.726" style="fill:none;stroke:rgb(21,0,62);stroke-width:16.89px;stroke-linecap:round;"/>
                    </g>
                    <g transform="matrix(0,0.709194,0.709194,0,4755.03,4663.23)">
                        <path d="M-16.726,-16.726L16.726,-16.726" style="fill:none;stroke:rgb(21,0,62);stroke-width:16.89px;stroke-linecap:round;"/>
                    </g>
                    <g transform="matrix(0.709194,0,0,0.709194,4905.24,4536.8)">
                        <path d="M0,335.92C17.903,308.873 42.98,278.492 67.334,242.223C107.922,181.774 146.5,104.972 146.5,0L227.718,117.852L180.037,118.187L180.037,227.865L127.438,229.046L127.438,335.92L80.017,335.92" style="fill:none;stroke:rgb(21,0,62);stroke-width:16.89px;"/>
                    </g>
                    <g transform="matrix(0.709194,0,0,0.709194,4758.14,4536.8)">
                        <path d="M0,335.92C-17.903,308.873 -42.98,278.492 -67.333,242.223C-107.922,181.774 -146.5,104.972 -146.5,0L-227.718,117.852L-180.036,118.187L-180.036,227.865L-127.438,229.046L-127.438,335.92L-80.017,335.92" style="fill:none;stroke:rgb(21,0,62);stroke-width:16.89px;"/>
                    </g>
                    <g transform="matrix(0.709194,0,0,0.709194,4897.67,4864.89)">
                        <path d="M0,97.812L75.655,106.213L101.934,-8.401C101.934,-8.401 55.091,48.72 0,97.812Z" style="fill:rgb(18,16,59);fill-rule:nonzero;stroke:rgb(21,0,62);stroke-width:16.89px;stroke-linejoin:miter;"/>
                    </g>
                    <g transform="matrix(0.709194,0,0,0.709194,4995.62,4756.8)">
                        <path d="M0,99.071L46.632,108.85L71.315,-9.779C71.315,-9.779 45.895,41.258 0,99.071Z" style="fill:rgb(18,16,59);fill-rule:nonzero;stroke:rgb(21,0,62);stroke-width:16.89px;stroke-linejoin:miter;"/>
                    </g>
                    <g transform="matrix(0.709194,0,0,0.709194,5064.65,4643.09)">
                        <path d="M0,98.313L33.623,108.215L36.342,-9.902C36.342,-9.902 19.545,59.42 0,98.313Z" style="fill:rgb(18,16,59);fill-rule:nonzero;stroke:rgb(21,0,62);stroke-width:16.89px;stroke-linejoin:miter;"/>
                    </g>
                    <g transform="matrix(0.709194,0,0,0.709194,4763.77,4864.89)">
                        <path d="M0,97.812L-75.655,106.213L-101.934,-8.401C-101.934,-8.401 -55.09,48.72 0,97.812Z" style="fill:rgb(18,16,59);fill-rule:nonzero;stroke:rgb(21,0,62);stroke-width:16.89px;stroke-linejoin:miter;"/>
                    </g>
                    <g transform="matrix(0.709194,0,0,0.709194,4665.83,4756.8)">
                        <path d="M0,99.071L-46.632,108.85L-71.315,-9.779C-71.315,-9.779 -45.895,41.258 0,99.071Z" style="fill:rgb(18,16,59);fill-rule:nonzero;stroke:rgb(21,0,62);stroke-width:16.89px;stroke-linejoin:miter;"/>
                    </g>
                    <g transform="matrix(0.709194,0,0,0.709194,4596.8,4643.09)">
                        <path d="M0,98.313L-33.623,108.215L-36.342,-9.902C-36.342,-9.902 -19.544,59.42 0,98.313Z" style="fill:rgb(18,16,59);fill-rule:nonzero;stroke:rgb(21,0,62);stroke-width:16.89px;stroke-linejoin:miter;"/>
                    </g>
                    <g transform="matrix(0.709194,0,0,0.709194,4748.49,4332.91)">
                        <path d="M0,-36.102L-48.295,-39.203L-65.07,3.101C-65.07,3.101 -35.167,-17.982 0,-36.102Z" style="fill:rgb(18,16,59);fill-rule:nonzero;stroke:rgb(21,0,62);stroke-width:16.89px;stroke-linejoin:miter;"/>
                    </g>
                    <g transform="matrix(0.709194,0,0,0.709194,4914.54,4332.91)">
                        <path d="M0,-36.102L48.295,-39.203L65.07,3.101C65.07,3.101 35.167,-17.982 0,-36.102Z" style="fill:rgb(18,16,59);fill-rule:nonzero;stroke:rgb(21,0,62);stroke-width:16.89px;stroke-linejoin:miter;"/>
                    </g>
                    <g transform="matrix(0.9571,0,0,0.9571,-2375.25,39.6906)">
                        <g transform="matrix(0.463433,0,0,0.463433,7482.08,4318.92)">
                            <path d="M0,318.062L78.032,-48.51C80.535,-60.269 90.92,-68.676 102.943,-68.676C114.965,-68.676 125.351,-60.269 127.854,-48.51L205.885,318.062C212.6,353.74 185.233,386.738 148.929,386.738L56.957,386.738C20.652,386.738 -6.714,353.74 0,318.062Z" style="fill:rgb(255,206,8);fill-rule:nonzero;stroke:rgb(17,13,59);stroke-width:27.01px;"/>
                        </g>
                        <g transform="matrix(-0.449273,-0.113687,-0.113687,0.449273,7488.72,4444.09)">
                            <path d="M-198.843,24.768L3.085,24.768" style="fill:none;stroke:rgb(21,0,62);stroke-width:27.01px;"/>
                        </g>
                        <g transform="matrix(-0.449273,-0.113686,-0.113686,0.449273,7495.4,4411.73)">
                            <path d="M-176.643,22.003L2.741,22.003" style="fill:none;stroke:rgb(21,0,62);stroke-width:27.01px;"/>
                        </g>
                        <g transform="matrix(-0.449273,-0.113686,-0.113686,0.449273,7501.84,4379.97)">
                            <path d="M-143.542,17.88L2.227,17.88" style="fill:none;stroke:rgb(21,0,62);stroke-width:27.01px;"/>
                        </g>
                        <g transform="matrix(-0.449273,-0.113687,-0.113687,0.449273,7508.29,4348.2)">
                            <path d="M-110.441,13.757L1.714,13.756" style="fill:none;stroke:rgb(21,0,62);stroke-width:27.01px;"/>
                        </g>
                        <g transform="matrix(-0.449272,-0.113688,-0.113688,0.449272,7514.73,4316.43)">
                            <path d="M-77.339,9.634L1.2,9.634" style="fill:none;stroke:rgb(21,0,62);stroke-width:27.01px;"/>
                        </g>
                    </g>
                    <g transform="matrix(0.709194,0,0,0.709194,5024.29,4130.94)">
                        <path d="M0,-15.965C4.362,-17.434 9.103,-15.051 10.587,-10.643C12.072,-6.234 9.738,-1.469 5.376,0C1.013,1.469 -3.728,-0.914 -5.212,-5.322C-6.697,-9.731 -4.363,-14.495 0,-15.965" style="fill:rgb(249,0,108);fill-rule:nonzero;"/>
                    </g>
                    <g transform="matrix(0.709194,0,0,0.709194,4713.67,4168.55)">
                        <path d="M0,-19.406C5.302,-21.192 11.064,-18.295 12.869,-12.937C14.674,-7.578 11.837,-1.786 6.535,0C1.231,1.786 -4.531,-1.11 -6.335,-6.469C-8.14,-11.828 -5.304,-17.62 0,-19.406" style="fill:rgb(249,0,108);fill-rule:nonzero;"/>
                    </g>
                    <g transform="matrix(0.709194,0,0,0.709194,4711.04,4110.92)">
                        <path d="M0,-64.45C4.604,-66.109 9.639,-63.707 11.249,-59.085L16.789,-43.178L32.636,-48.884C37.241,-50.542 42.276,-48.141 43.886,-43.518C45.495,-38.896 43.069,-33.809 38.464,-32.15L22.615,-26.445L28.156,-10.537C29.765,-5.915 27.338,-0.828 22.734,0.83C20.43,1.659 18.021,1.473 15.985,0.503C13.95,-0.468 12.289,-2.224 11.484,-4.535L5.945,-20.442L-9.904,-14.737C-12.206,-13.908 -14.616,-14.093 -16.651,-15.064C-18.687,-16.035 -20.348,-17.791 -21.152,-20.102C-22.763,-24.724 -20.336,-29.811 -15.73,-31.469L0.117,-37.176L-5.422,-53.082C-7.033,-57.705 -4.606,-62.792 0,-64.45" style="fill:rgb(255,206,8);fill-rule:nonzero;"/>
                    </g>
                    <g transform="matrix(0.709194,0,0,0.709194,4920.48,4033.25)">
                        <path d="M0,-29.18C2.089,-33.449 7.223,-35.177 11.468,-33.042L26.082,-25.697L33.274,-40.386C35.363,-44.654 40.496,-46.383 44.743,-44.248C48.989,-42.113 50.736,-36.927 48.646,-32.658L41.453,-17.969L56.067,-10.623C60.313,-8.489 62.059,-3.302 59.97,0.966C58.924,3.101 57.119,4.6 55.043,5.299C52.969,5.998 50.624,5.896 48.5,4.829L33.888,-2.517L26.695,12.172C25.65,14.306 23.845,15.805 21.77,16.505C19.694,17.203 17.35,17.102 15.227,16.034C10.979,13.9 9.233,8.713 11.324,4.445L18.516,-10.244L3.903,-17.59C-0.344,-19.725 -2.09,-24.911 0,-29.18" style="fill:rgb(255,206,8);fill-rule:nonzero;"/>
                    </g>
                    <g transform="matrix(0.709194,0,0,0.709194,4955.1,4228.28)">
                        <path d="M0,15.66L-16.394,13.868C-21.157,13.347 -24.636,9.06 -24.164,4.289C-23.699,-0.481 -19.449,-3.928 -14.69,-3.404L1.707,-1.614L3.327,-18.036C3.793,-22.807 8.04,-26.252 12.802,-25.731C17.564,-25.209 21.043,-20.922 20.572,-16.152L18.951,0.27L35.343,2.061C40.104,2.582 43.584,6.87 43.113,11.639C42.872,14.101 41.625,16.21 39.82,17.603C38.125,18.911 35.943,19.589 33.639,19.334L17.245,17.544L15.625,33.963C15.383,36.425 14.136,38.534 12.331,39.927C10.636,41.235 8.455,41.912 6.15,41.657C1.387,41.137 -2.092,36.849 -1.62,32.079L0,15.66Z" style="fill:rgb(255,206,8);fill-rule:nonzero;"/>
                    </g>
                    <g transform="matrix(0.709194,0,0,0.709194,4637.54,4148.5)">
                        <path d="M0,19.198C-5.247,20.965 -10.948,18.1 -12.733,12.799C-14.519,7.497 -11.712,1.767 -6.465,0C-1.219,-1.767 4.481,1.099 6.266,6.4C8.052,11.701 5.247,17.431 0,19.198" style="fill:rgb(255,206,8);fill-rule:nonzero;"/>
                    </g>
                    <g transform="matrix(0.709194,0,0,0.709194,4940.97,4097.89)">
                        <path d="M0,19.198C-5.247,20.965 -10.947,18.1 -12.732,12.798C-14.518,7.497 -11.712,1.766 -6.465,0C-1.218,-1.767 4.481,1.098 6.267,6.4C8.052,11.701 5.247,17.431 0,19.198" style="fill:rgb(255,206,8);fill-rule:nonzero;"/>
                    </g>
                    <g transform="matrix(0.709194,0,0,0.709194,4686.99,4249.91)">
                        <path d="M0,22.414C-6.125,24.477 -12.781,21.132 -14.865,14.943C-16.95,8.753 -13.674,2.063 -7.548,0C-1.422,-2.063 5.232,1.283 7.316,7.473C9.401,13.662 6.126,20.351 0,22.414" style="fill:rgb(255,206,8);fill-rule:nonzero;"/>
                    </g>
                    <g transform="matrix(-0.501476,0.501476,0.501476,0.501476,4583.72,4651.57)">
                        <path d="M-43.982,-18.218L7.546,-18.218" style="fill:none;stroke:rgb(21,0,62);stroke-width:16.89px;"/>
                    </g>
                    <g transform="matrix(-0.501476,0.501476,0.501476,0.501476,4616.82,4731.31)">
                        <path d="M-46.41,-19.223L7.963,-19.223" style="fill:none;stroke:rgb(21,0,62);stroke-width:16.89px;"/>
                    </g>
                    <g transform="matrix(-0.501476,0.501476,0.501476,0.501476,4656.51,4802.19)">
                        <path d="M-38.289,-15.86L6.569,-15.86" style="fill:none;stroke:rgb(21,0,62);stroke-width:16.89px;"/>
                    </g>
                    <g transform="matrix(0.501485,0.501467,0.501467,-0.501485,5005.84,4770.8)">
                        <path d="M-5.971,-14.415L34.802,-14.415" style="fill:none;stroke:rgb(21,0,62);stroke-width:16.89px;"/>
                    </g>
                    <g transform="matrix(0.501476,0.501476,0.501476,-0.501476,5045.98,4692.99)">
                        <path d="M-7.624,-18.406L44.437,-18.406" style="fill:none;stroke:rgb(21,0,62);stroke-width:16.89px;"/>
                    </g>
                    <g transform="matrix(0.501476,0.501476,0.501476,-0.501476,5076.58,4616.3)">
                        <path d="M-5.748,-13.878L33.503,-13.878" style="fill:none;stroke:rgb(21,0,62);stroke-width:16.89px;"/>
                    </g>
                    <g transform="matrix(0.501476,0.501476,0.501476,-0.501476,4926.92,4871.18)">
                        <path d="M-5.949,-14.362L34.674,-14.362" style="fill:none;stroke:rgb(21,0,62);stroke-width:16.89px;"/>
                    </g>
                    <g transform="matrix(-0.501476,0.501476,0.501476,0.501476,4735.85,4900.59)">
                        <path d="M-35.528,-14.716L6.096,-14.716" style="fill:none;stroke:rgb(21,0,62);stroke-width:16.89px;"/>
                    </g>
                    <g transform="matrix(0.709194,0,0,0.709194,4975.39,4507.49)">
                        <path d="M0,0.001C0,112.045 -90.83,202.875 -202.874,202.875C-314.918,202.875 -405.749,112.045 -405.749,0.001C-405.749,-112.043 -314.918,-202.874 -202.874,-202.874C-90.83,-202.874 0,-112.043 0,0.001" style="fill:rgb(15,206,124);fill-rule:nonzero;"/>
                    </g>
                    <g transform="matrix(0,-0.709194,-0.709194,0,4831.51,4363.61)">
                        <path d="M-202.875,-202.874C-314.919,-202.874 -405.749,-112.044 -405.749,0C-405.749,112.044 -314.919,202.875 -202.875,202.875C-90.831,202.875 0,112.044 0,0C0,-112.044 -90.831,-202.874 -202.875,-202.874Z" style="fill:none;stroke:rgb(21,0,62);stroke-width:16.89px;stroke-linejoin:miter;"/>
                    </g>
                    <g transform="matrix(0.709194,0,0,0.709194,4907.78,4477.2)">
                        <path d="M0,0C0,24.086 -19.525,43.611 -43.611,43.611C-67.697,43.611 -87.223,24.086 -87.223,0C-87.223,-24.086 -67.697,-43.611 -43.611,-43.611C-19.525,-43.611 0,-24.086 0,0" style="fill:white;fill-rule:nonzero;"/>
                    </g>
                    <g transform="matrix(0.709194,0,0,0.709194,4929.88,4523.44)">
                        <path d="M0,0C0,9.738 -7.895,17.633 -17.633,17.633C-27.372,17.633 -35.266,9.738 -35.266,0C-35.266,-9.738 -27.372,-17.633 -17.633,-17.633C-7.895,-17.633 0,-9.738 0,0" style="fill:white;fill-rule:nonzero;"/>
                    </g>
                    <g transform="matrix(0.709194,0,0,0.709194,4862.91,4937.25)">
                        <path d="M0,-44.507L-44.507,0L-89.014,-44.507" style="fill:none;stroke:rgb(21,0,62);stroke-width:16.89px;"/>
                    </g>
                    <g transform="matrix(0.709194,0,0,0.709194,4878.61,4928.2)">
                        <path d="M0,-17.762L-17.761,0L-35.522,-17.762" style="fill:none;stroke:rgb(21,0,62);stroke-width:16.89px;"/>
                    </g>
                    <g transform="matrix(0.709194,0,0,0.709194,4809.61,4928.2)">
                        <path d="M0,-17.762L-17.761,0L-35.522,-17.762" style="fill:none;stroke:rgb(21,0,62);stroke-width:16.89px;"/>
                    </g>
                    <g transform="matrix(0.709194,0,0,0.709194,5034,4491.25)">
                        <path d="M0,0C0,-4.608 -3.735,-8.344 -8.344,-8.344C-12.952,-8.344 -16.687,-4.608 -16.687,0C-16.687,4.608 -12.952,8.344 -8.344,8.344C-3.735,8.344 0,4.608 0,0" style="fill:rgb(15,206,124);fill-rule:nonzero;"/>
                    </g>
                    <g transform="matrix(0.709194,0,0,0.709194,5026.2,4884.01)">
                        <path d="M0,0C0,-4.607 -3.735,-8.344 -8.344,-8.344C-12.952,-8.344 -16.687,-4.607 -16.687,0C-16.687,4.608 -12.952,8.344 -8.344,8.344C-3.735,8.344 0,4.608 0,0" style="fill:rgb(21,0,62);fill-rule:nonzero;"/>
                    </g>
                    <g transform="matrix(0.709194,0,0,0.709194,5018.04,4716.41)">
                        <path d="M0,0C0,-4.607 -3.735,-8.344 -8.343,-8.344C-12.952,-8.344 -16.687,-4.607 -16.687,0C-16.687,4.608 -12.952,8.344 -8.343,8.344C-3.735,8.344 0,4.608 0,0" style="fill:rgb(21,0,62);fill-rule:nonzero;"/>
                    </g>
                    <g transform="matrix(0.709194,0,0,0.709194,4981.8,4797.85)">
                        <path d="M0,0C0,-4.608 -3.735,-8.344 -8.344,-8.344C-12.952,-8.344 -16.687,-4.608 -16.687,0C-16.687,4.608 -12.952,8.344 -8.344,8.344C-3.735,8.344 0,4.608 0,0" style="fill:rgb(21,0,62);fill-rule:nonzero;"/>
                    </g>
                    <g transform="matrix(0.709194,0,0,0.709194,5055.5,4638.16)">
                        <path d="M0,0C0,-4.607 -3.736,-8.344 -8.344,-8.344C-12.952,-8.344 -16.687,-4.607 -16.687,0C-16.687,4.608 -12.952,8.344 -8.344,8.344C-3.736,8.344 0,4.608 0,0" style="fill:rgb(21,0,62);fill-rule:nonzero;"/>
                    </g>
                    <g transform="matrix(0.709194,0,0,0.709194,4643.52,4716.41)">
                        <path d="M0,0C0,-4.607 3.735,-8.344 8.343,-8.344C12.952,-8.344 16.687,-4.607 16.687,0C16.687,4.608 12.952,8.344 8.343,8.344C3.735,8.344 0,4.608 0,0" style="fill:rgb(21,0,62);fill-rule:nonzero;"/>
                    </g>
                    <g transform="matrix(0.709194,0,0,0.709194,4679.77,4797.85)">
                        <path d="M0,0C0,-4.608 3.735,-8.344 8.344,-8.344C12.952,-8.344 16.687,-4.608 16.687,0C16.687,4.608 12.952,8.344 8.344,8.344C3.735,8.344 0,4.608 0,0" style="fill:rgb(21,0,62);fill-rule:nonzero;"/>
                    </g>
                    <g transform="matrix(0.709194,0,0,0.709194,4606.07,4638.16)">
                        <path d="M0,0C0,-4.607 3.736,-8.344 8.344,-8.344C12.952,-8.344 16.687,-4.607 16.687,0C16.687,4.608 12.952,8.344 8.344,8.344C3.736,8.344 0,4.608 0,0" style="fill:rgb(21,0,62);fill-rule:nonzero;"/>
                    </g>
                    <g transform="matrix(0.709194,0,0,0.709194,4647.08,4884.01)">
                        <path d="M0,0C0,-4.607 -3.735,-8.344 -8.344,-8.344C-12.952,-8.344 -16.687,-4.607 -16.687,0C-16.687,4.608 -12.952,8.344 -8.344,8.344C-3.735,8.344 0,4.608 0,0" style="fill:rgb(21,0,62);fill-rule:nonzero;"/>
                    </g>
                    <g transform="matrix(0.709194,0,0,0.709194,5029.61,4460.51)">
                        <path d="M0,0C0,-4.608 -3.735,-8.344 -8.344,-8.344C-12.952,-8.344 -16.687,-4.608 -16.687,0C-16.687,4.608 -12.952,8.344 -8.344,8.344C-3.735,8.344 0,4.608 0,0" style="fill:rgb(15,206,124);fill-rule:nonzero;"/>
                    </g>
                    <g transform="matrix(0.709194,0,0,0.709194,5019.57,4431.66)">
                        <path d="M0,0C0,-4.608 -3.735,-8.344 -8.343,-8.344C-12.951,-8.344 -16.687,-4.608 -16.687,0C-16.687,4.608 -12.951,8.344 -8.343,8.344C-3.735,8.344 0,4.608 0,0" style="fill:rgb(15,206,124);fill-rule:nonzero;"/>
                    </g>
                    <g transform="matrix(-0.321227,0.160612,0.160612,0.321227,4799.61,4029.85)">
                        <path d="M-133.199,111.165L-44.068,111.165L9.41,39.861L-115.372,-31.444L-133.199,111.165Z" style="fill:none;stroke:rgb(249,0,108);stroke-width:16.89px;"/>
                    </g>
                    <g transform="matrix(0,0.359142,0.359142,0,4860.25,4029.85)">
                        <path d="M-79.721,-79.721L79.721,-79.721" style="fill:none;stroke:rgb(249,0,108);stroke-width:16.89px;"/>
                    </g>
                    <g transform="matrix(0,0.359142,0.359142,0,4845.93,4082.47)">
                        <path d="M-39.86,-39.86L39.86,-39.86" style="fill:none;stroke:rgb(249,0,108);stroke-width:16.89px;"/>
                    </g>
                    <g transform="matrix(0.321227,-0.160612,-0.160612,-0.321227,4807.7,4049.81)">
                        <path d="M-4.705,19.93L84.426,19.93" style="fill:none;stroke:rgb(249,0,108);stroke-width:16.89px;"/>
                    </g>
                    <g transform="matrix(-0.321227,-0.160612,-0.160612,0.321227,4836.33,4024.2)">
                        <path d="M-84.426,19.93L4.705,19.93" style="fill:none;stroke:rgb(249,0,108);stroke-width:16.89px;"/>
                    </g>
                    <g transform="matrix(-0.199217,0.298824,0.298824,0.199217,4833.6,4111.04)">
                        <path d="M-173.69,-26.625L-29.972,-26.625L-85.248,-159.288L-96.303,-70.846L-173.69,-26.625Z" style="fill:none;stroke:rgb(249,0,108);stroke-width:16.89px;"/>
                    </g>
                </g>
            </g>
        </g>
    </g>
</svg>
