<svg id="Layer_1" data-name="Layer 1" xmlns="http://www.w3.org/2000/svg" viewBox="0 0 350 350">
  <defs>
    <style>
      .cls-1, .cls-2 {
        fill: #8ac641;
        stroke: #922a8e;
      }

      .cls-1, .cls-2, .cls-3 {
        stroke-miterlimit: 10;
      }

      .cls-1 {
        stroke-width: 1.5px;
      }

      .cls-3 {
        fill: #17365e;
        stroke: #e6e7e7;
      }
    </style>
  </defs>
  <g id="Horn_1">
    <path class="cls-1" d="M176.53,116.31c-2.61-2.41.38-12.82,7.32-17.06,5.66-3.47,9.57-.06,14.29-3.41,8.07-5.71,7.27-22,4.77-22.8-1.56-.5-5,4.67-6.13,6.46-2.22,3.4-2.49,5.18-3.06,5.11-1.42-.19-4.31-11.92,1.36-21.45,5.92-9.94,17.56-11.42,21.45-11.91,4.47-.57,8.73-.13,8.85.68.17,1.18-8.93,1-11.92,6.13-2.72,4.73,2.47,9.12,4.09,21.78.87,6.77,1.43,11.16-.68,15.66-1.84,3.93-4.64,5.62-23.49,14.62C179.94,116.58,177.75,117.44,176.53,116.31Z"/>
    <path class="cls-2" d="M194.91,77.17A29.58,29.58,0,0,1,196.57,67a15.88,15.88,0,0,1,2.3-4.6c1.72-2.3,3.69-3.42,6.22-4.83a38.92,38.92,0,0,1,8.46-3.47"/>
    <path class="cls-2" d="M198,74.36a30.22,30.22,0,0,1,.69-5,15.29,15.29,0,0,1,1.53-4.6,9.94,9.94,0,0,1,2.64-3.23,14.4,14.4,0,0,1,3.31-1.7c1.09-.49,2.47-1.1,4.09-1.79"/>
    <path class="cls-2" d="M201.42,72.19a12.33,12.33,0,0,1,.38-4.72,6.74,6.74,0,0,1,1.88-3.58,10.31,10.31,0,0,1,3.1-1.53c.78-.3,1.45-.5,1.92-.64"/>
    <path class="cls-2" d="M180.23,111.25a8.74,8.74,0,0,1,.64-5.36,10.46,10.46,0,0,1,4.08-4.08,16.56,16.56,0,0,1,4-1.92"/>
    <path class="cls-2" d="M182.53,109.34a6.33,6.33,0,0,1,.89-3.7,6.7,6.7,0,0,1,4.6-2.94"/>
    <path class="cls-3" d="M207.08,88.52c-4.43,12.47-18.59,17.69-18,18.52s11.47-5.5,15.7-7.91c3.13-1.79,3.42-2,3.7-2.3,7.15-6.71,2.8-21.14,2.17-23.24-.86-2.86-2.35-6.54-3.06-6.38C206.32,67.48,210.7,78.33,207.08,88.52Z"/>
    <path class="cls-1" d="M173.38,116.31c2.61-2.41-.38-12.82-7.32-17.06-5.66-3.47-9.57-.06-14.3-3.41-8.06-5.71-7.27-22-4.76-22.8,1.55-.5,4.95,4.67,6.12,6.46,2.23,3.4,2.5,5.18,3.07,5.11,1.42-.19,4.3-11.92-1.37-21.45-5.91-9.94-17.59-11.42-21.44-11.91-4.47-.57-8.74-.13-8.85.68-.17,1.18,8.93,1,11.91,6.13,2.73,4.73-2.46,9.12-4.08,21.78-.87,6.77-1.43,11.16.68,15.66,1.84,3.93,4.62,5.61,23.49,14.64C170,116.58,172.16,117.44,173.38,116.31Z"/>
    <path class="cls-2" d="M155,77.17A29.12,29.12,0,0,0,153.34,67a15.88,15.88,0,0,0-2.3-4.6c-1.73-2.3-3.69-3.42-6.22-4.83a38.52,38.52,0,0,0-8.46-3.47"/>
    <path class="cls-2" d="M151.93,74.36a30.2,30.2,0,0,0-.68-5,15.29,15.29,0,0,0-1.53-4.6,9.94,9.94,0,0,0-2.64-3.23,14.66,14.66,0,0,0-3.32-1.7c-1.09-.49-2.47-1.1-4.08-1.79"/>
    <path class="cls-2" d="M148.48,72.19a12,12,0,0,0-.38-4.72,6.59,6.59,0,0,0-1.87-3.58,10.25,10.25,0,0,0-3.11-1.53c-.78-.3-1.44-.5-1.91-.64"/>
    <path class="cls-2" d="M169.68,111.25a8.75,8.75,0,0,0-.64-5.36,10.23,10.23,0,0,0-4.09-4.08A16.05,16.05,0,0,0,161,99.89"/>
    <path class="cls-2" d="M167.38,109.34a6.24,6.24,0,0,0-.9-3.7,6.64,6.64,0,0,0-4.59-2.94"/>
    <path class="cls-3" d="M142.82,88.52c4.43,12.47,18.59,17.69,18,18.52s-11.48-5.5-15.7-7.91c-3.13-1.79-3.42-2-3.71-2.3-7.15-6.71-2.8-21.14-2.17-23.24.87-2.86,2.35-6.54,3.07-6.38C143.58,67.48,139.23,78.33,142.82,88.52Z"/>
  </g>
</svg>
