<?xml version="1.0" encoding="utf-8"?>
<!-- Generator: Adobe Illustrator 23.0.2, SVG Export Plug-In . SVG Version: 6.00 Build 0)  -->
<svg version="1.1" id="Layer_1" xmlns="http://www.w3.org/2000/svg" xmlns:xlink="http://www.w3.org/1999/xlink" x="0px" y="0px"
	 viewBox="0 0 110.9 128" style="enable-background:new 0 0 110.9 128;" xml:space="preserve">
<style type="text/css">
	.st0{fill:#FBC115;}
	.st1{fill:#FFFFFF;}
	.st2{fill:#15003E;}
	.st3{opacity:0.13;enable-background:new    ;}
	.st4{opacity:0.4;fill:#FBC115;enable-background:new    ;}
	.st5{fill:#25E899;}
	.st6{fill:#F06C00;}
	.st7{fill:#EFF4EE;}
	.st8{fill:#F07100;}
	.st9{fill:#0FCE7C;}
	.st10{opacity:0.4;enable-background:new    ;}
	.st11{clip-path:url(#SVGID_2_);fill:#FFFFFF;}
	.st12{clip-path:url(#SVGID_4_);fill:#FFFFFF;}
	.st13{clip-path:url(#SVGID_6_);fill:#FFFFFF;}
	.st14{clip-path:url(#SVGID_8_);fill:#FFFFFF;}
	.st15{clip-path:url(#SVGID_10_);fill:#FFFFFF;}
	.st16{clip-path:url(#SVGID_12_);fill:#FFFFFF;}
	.st17{clip-path:url(#SVGID_14_);fill:#FFFFFF;}
	.st18{clip-path:url(#SVGID_16_);fill:#FFFFFF;}
	.st19{opacity:0.2;enable-background:new    ;}
	.st20{opacity:0.5;enable-background:new    ;}
	.st21{fill:#0F9840;}
	.st22{fill:#FB1B26;}
	.st23{fill:#45BDD5;}
	.st24{fill:#8E2ABE;}
	.st25{opacity:0.71;}
	.st26{clip-path:url(#SVGID_18_);}
	.st27{fill:url(#background_1_);}
	.st28{filter:url(#Adobe_OpacityMaskFilter);}
	.st29{filter:url(#Adobe_OpacityMaskFilter_1_);}
	.st30{mask:url(#_x37__1_);fill:url(#_x31_3_1_);}
	.st31{opacity:0.1;fill:url(#_x37__2_);}
	.st32{fill:url(#XMLID_2_);}
	.st33{opacity:0;fill:#FFFFFF;}
	.st34{opacity:3.048780e-03;fill:#FEFEFF;}
	.st35{opacity:6.097561e-03;fill:#FEFDFF;}
	.st36{opacity:9.146341e-03;fill:#FDFCFF;}
	.st37{opacity:1.219512e-02;fill:#FCFBFF;}
	.st38{opacity:1.524390e-02;fill:#FCFAFF;}
	.st39{opacity:1.829268e-02;fill:#FBF9FF;}
	.st40{opacity:2.134146e-02;fill:#FBF8FF;}
	.st41{opacity:2.439024e-02;fill:#FAF7FE;}
	.st42{opacity:2.743902e-02;fill:#F9F6FE;}
	.st43{opacity:3.048781e-02;fill:#F9F5FE;}
	.st44{opacity:3.353659e-02;fill:#F8F4FE;}
	.st45{opacity:3.658536e-02;fill:#F7F3FE;}
	.st46{opacity:3.963415e-02;fill:#F7F2FE;}
	.st47{opacity:4.268293e-02;fill:#F6F1FE;}
	.st48{opacity:4.573171e-02;fill:#F5F0FE;}
	.st49{opacity:4.878049e-02;fill:#F5EFFE;}
	.st50{opacity:5.182927e-02;fill:#F4EEFE;}
	.st51{opacity:5.487805e-02;fill:#F3EDFE;}
	.st52{opacity:5.792683e-02;fill:#F3ECFE;}
	.st53{opacity:6.097561e-02;fill:#F2EBFE;}
	.st54{opacity:6.402439e-02;fill:#F2EAFE;}
	.st55{opacity:6.707317e-02;fill:#F1E9FE;}
	.st56{opacity:7.012195e-02;fill:#F0E8FD;}
	.st57{opacity:7.317073e-02;fill:#F0E7FD;}
	.st58{opacity:7.621951e-02;fill:#EFE6FD;}
	.st59{opacity:7.926829e-02;fill:#EEE5FD;}
	.st60{opacity:8.231708e-02;fill:#EEE4FD;}
	.st61{opacity:8.536585e-02;fill:#EDE3FD;}
	.st62{opacity:8.841463e-02;fill:#ECE2FD;}
	.st63{opacity:9.146342e-02;fill:#ECE1FD;}
	.st64{opacity:9.451219e-02;fill:#EBE0FD;}
	.st65{opacity:9.756097e-02;fill:#EBDFFD;}
	.st66{opacity:0.1006;fill:#EADEFD;}
	.st67{opacity:0.1037;fill:#E9DDFD;}
	.st68{opacity:0.1067;fill:#E9DCFD;}
	.st69{opacity:0.1098;fill:#E8DBFD;}
	.st70{opacity:0.1128;fill:#E7DAFD;}
	.st71{opacity:0.1159;fill:#E7D9FC;}
	.st72{opacity:0.1189;fill:#E6D8FC;}
	.st73{opacity:0.122;fill:#E5D7FC;}
	.st74{opacity:0.125;fill:#E5D6FC;}
	.st75{opacity:0.128;fill:#E4D5FC;}
	.st76{opacity:0.1311;fill:#E3D4FC;}
	.st77{opacity:0.1341;fill:#E3D3FC;}
	.st78{opacity:0.1372;fill:#E2D2FC;}
	.st79{opacity:0.1402;fill:#E2D1FC;}
	.st80{opacity:0.1433;fill:#E1D0FC;}
	.st81{opacity:0.1463;fill:#E0CFFC;}
	.st82{opacity:0.1494;fill:#E0CEFC;}
	.st83{opacity:0.1524;fill:#DFCDFC;}
	.st84{opacity:0.1555;fill:#DECCFC;}
	.st85{opacity:0.1585;fill:#DECBFC;}
	.st86{opacity:0.1616;fill:#DDCAFB;}
	.st87{opacity:0.1646;fill:#DCC9FB;}
	.st88{opacity:0.1677;fill:#DCC8FB;}
	.st89{opacity:0.1707;fill:#DBC7FB;}
	.st90{opacity:0.1738;fill:#DBC6FB;}
	.st91{opacity:0.1768;fill:#DAC5FB;}
	.st92{opacity:0.1799;fill:#D9C4FB;}
	.st93{opacity:0.1829;fill:#D9C3FB;}
	.st94{opacity:0.186;fill:#D8C2FB;}
	.st95{opacity:0.189;fill:#D7C1FB;}
	.st96{opacity:0.1921;fill:#D7C0FB;}
	.st97{opacity:0.1951;fill:#D6BFFB;}
	.st98{opacity:0.1982;fill:#D5BEFB;}
	.st99{opacity:0.2012;fill:#D5BDFB;}
	.st100{opacity:0.2043;fill:#D4BCFB;}
	.st101{opacity:0.2073;fill:#D3BBFA;}
	.st102{opacity:0.2104;fill:#D3BAFA;}
	.st103{opacity:0.2134;fill:#D2B9FA;}
	.st104{opacity:0.2165;fill:#D2B8FA;}
	.st105{opacity:0.2195;fill:#D1B7FA;}
	.st106{opacity:0.2226;fill:#D0B6FA;}
	.st107{opacity:0.2256;fill:#D0B5FA;}
	.st108{opacity:0.2287;fill:#CFB4FA;}
	.st109{opacity:0.2317;fill:#CEB3FA;}
	.st110{opacity:0.2348;fill:#CEB2FA;}
	.st111{opacity:0.2378;fill:#CDB1FA;}
	.st112{opacity:0.2409;fill:#CCB0FA;}
	.st113{opacity:0.2439;fill:#CCAFFA;}
	.st114{opacity:0.247;fill:#CBAEFA;}
	.st115{opacity:0.25;fill:#CAADF9;}
	.st116{opacity:0.253;fill:#CAACF9;}
	.st117{opacity:0.2561;fill:#C9ABF9;}
	.st118{opacity:0.2591;fill:#C9AAF9;}
	.st119{opacity:0.2622;fill:#C8A9F9;}
	.st120{opacity:0.2652;fill:#C7A8F9;}
	.st121{opacity:0.2683;fill:#C7A7F9;}
	.st122{opacity:0.2713;fill:#C6A6F9;}
	.st123{opacity:0.2744;fill:#C5A5F9;}
	.st124{opacity:0.2774;fill:#C5A4F9;}
	.st125{opacity:0.2805;fill:#C4A3F9;}
	.st126{opacity:0.2835;fill:#C3A2F9;}
	.st127{opacity:0.2866;fill:#C3A1F9;}
	.st128{opacity:0.2896;fill:#C2A0F9;}
	.st129{opacity:0.2927;fill:#C29FF9;}
	.st130{opacity:0.2957;fill:#C19EF8;}
	.st131{opacity:0.2988;fill:#C09DF8;}
	.st132{opacity:0.3018;fill:#C09CF8;}
	.st133{opacity:0.3049;fill:#BF9BF8;}
	.st134{opacity:0.3079;fill:#BE9AF8;}
	.st135{opacity:0.311;fill:#BE99F8;}
	.st136{opacity:0.314;fill:#BD98F8;}
	.st137{opacity:0.3171;fill:#BC97F8;}
	.st138{opacity:0.3201;fill:#BC96F8;}
	.st139{opacity:0.3232;fill:#BB95F8;}
	.st140{opacity:0.3262;fill:#BA94F8;}
	.st141{opacity:0.3293;fill:#BA93F8;}
	.st142{opacity:0.3323;fill:#B992F8;}
	.st143{opacity:0.3354;fill:#B991F8;}
	.st144{opacity:0.3384;fill:#B890F8;}
	.st145{opacity:0.3415;fill:#B78FF7;}
	.st146{opacity:0.3445;fill:#B78EF7;}
	.st147{opacity:0.3476;fill:#B68DF7;}
	.st148{opacity:0.3506;fill:#B58CF7;}
	.st149{opacity:0.3537;fill:#B58BF7;}
	.st150{opacity:0.3567;fill:#B48AF7;}
	.st151{opacity:0.3598;fill:#B389F7;}
	.st152{opacity:0.3628;fill:#B388F7;}
	.st153{opacity:0.3659;fill:#B287F7;}
	.st154{opacity:0.3689;fill:#B286F7;}
	.st155{opacity:0.372;fill:#B185F7;}
	.st156{opacity:0.375;fill:#B084F7;}
	.st157{opacity:0.378;fill:#B083F7;}
	.st158{opacity:0.3811;fill:#AF82F7;}
	.st159{opacity:0.3841;fill:#AE81F7;}
	.st160{opacity:0.3872;fill:#AE80F6;}
	.st161{opacity:0.3902;fill:#AD7FF6;}
	.st162{opacity:0.3933;fill:#AC7EF6;}
	.st163{opacity:0.3963;fill:#AC7DF6;}
	.st164{opacity:0.3994;fill:#AB7CF6;}
	.st165{opacity:0.4024;fill:#AA7BF6;}
	.st166{opacity:0.4055;fill:#AA7AF6;}
	.st167{opacity:0.4085;fill:#A979F6;}
	.st168{opacity:0.4116;fill:#A978F6;}
	.st169{opacity:0.4146;fill:#A877F6;}
	.st170{opacity:0.4177;fill:#A776F6;}
	.st171{opacity:0.4207;fill:#A775F6;}
	.st172{opacity:0.4238;fill:#A674F6;}
	.st173{opacity:0.4268;fill:#A573F6;}
	.st174{opacity:0.4299;fill:#A572F6;}
	.st175{opacity:0.4329;fill:#A471F5;}
	.st176{opacity:0.436;fill:#A370F5;}
	.st177{opacity:0.439;fill:#A36FF5;}
	.st178{opacity:0.4421;fill:#A26EF5;}
	.st179{opacity:0.4451;fill:#A26DF5;}
	.st180{opacity:0.4482;fill:#A16CF5;}
	.st181{opacity:0.4512;fill:#A06BF5;}
	.st182{opacity:0.4543;fill:#A06AF5;}
	.st183{opacity:0.4573;fill:#9F69F5;}
	.st184{opacity:0.4604;fill:#9E68F5;}
	.st185{opacity:0.4634;fill:#9E67F5;}
	.st186{opacity:0.4665;fill:#9D66F5;}
	.st187{opacity:0.4695;fill:#9C65F5;}
	.st188{opacity:0.4726;fill:#9C64F5;}
	.st189{opacity:0.4756;fill:#9B63F5;}
	.st190{opacity:0.4787;fill:#9A62F4;}
	.st191{opacity:0.4817;fill:#9A61F4;}
	.st192{opacity:0.4848;fill:#9960F4;}
	.st193{opacity:0.4878;fill:#995FF4;}
	.st194{opacity:0.4909;fill:#985EF4;}
	.st195{opacity:0.4939;fill:#975DF4;}
	.st196{opacity:0.497;fill:#975CF4;}
	.st197{opacity:0.5;fill:#965BF4;}
	.st198{fill:url(#XMLID_36_);}
	.st199{filter:url(#Adobe_OpacityMaskFilter_2_);}
	.st200{filter:url(#Adobe_OpacityMaskFilter_3_);}
	.st201{mask:url(#XMLID_37_);fill:url(#XMLID_38_);}
	.st202{opacity:0.4;fill:url(#XMLID_39_);}
	.st203{filter:url(#Adobe_OpacityMaskFilter_4_);}
	.st204{filter:url(#Adobe_OpacityMaskFilter_5_);}
	.st205{mask:url(#XMLID_40_);fill:url(#XMLID_41_);}
	.st206{opacity:0.5;fill:url(#XMLID_42_);}
	.st207{fill:url(#XMLID_43_);}
	.st208{fill:url(#XMLID_44_);}
	.st209{opacity:0.3;}
	.st210{fill:url(#XMLID_45_);}
	.st211{fill:url(#XMLID_46_);}
	.st212{opacity:0.7;fill:url(#XMLID_47_);}
	.st213{opacity:0.7;fill:url(#XMLID_48_);}
	.st214{opacity:0.7;fill:url(#XMLID_49_);}
	.st215{opacity:0.7;fill:url(#XMLID_50_);}
	.st216{fill:url(#XMLID_51_);}
	.st217{fill:url(#XMLID_52_);}
	.st218{opacity:0.7;fill:url(#XMLID_53_);}
	.st219{opacity:0.7;fill:url(#XMLID_54_);}
	.st220{opacity:0.7;fill:url(#XMLID_55_);}
	.st221{opacity:0.7;fill:url(#XMLID_56_);}
	.st222{fill:url(#XMLID_57_);}
	.st223{fill:url(#XMLID_58_);}
	.st224{opacity:0.7;fill:url(#XMLID_59_);}
	.st225{opacity:0.7;fill:url(#XMLID_60_);}
	.st226{opacity:0.7;fill:url(#XMLID_64_);}
	.st227{opacity:0.7;fill:url(#XMLID_65_);}
	.st228{fill:url(#XMLID_66_);}
	.st229{fill:url(#XMLID_68_);}
	.st230{opacity:0.7;fill:url(#XMLID_69_);}
	.st231{opacity:0.7;fill:url(#XMLID_70_);}
	.st232{opacity:0.7;fill:url(#XMLID_71_);}
	.st233{opacity:0.7;fill:url(#XMLID_72_);}
	.st234{fill:url(#XMLID_73_);}
	.st235{fill:url(#XMLID_74_);}
	.st236{opacity:0.7;fill:url(#XMLID_75_);}
	.st237{opacity:0.7;fill:url(#XMLID_76_);}
	.st238{opacity:0.7;fill:url(#XMLID_77_);}
	.st239{opacity:0.7;fill:url(#XMLID_78_);}
	.st240{fill:url(#XMLID_79_);}
	.st241{fill:url(#XMLID_80_);}
	.st242{opacity:0.7;fill:url(#XMLID_81_);}
	.st243{opacity:0.7;fill:url(#XMLID_82_);}
	.st244{opacity:0.7;fill:url(#XMLID_83_);}
	.st245{opacity:0.7;fill:url(#XMLID_84_);}
	.st246{fill:url(#XMLID_85_);}
	.st247{fill:url(#XMLID_86_);}
	.st248{opacity:0.7;fill:url(#XMLID_87_);}
	.st249{opacity:0.7;fill:url(#XMLID_88_);}
	.st250{opacity:0.7;fill:url(#XMLID_89_);}
	.st251{opacity:0.7;fill:url(#XMLID_90_);}
	.st252{fill:url(#XMLID_91_);}
	.st253{fill:url(#XMLID_92_);}
	.st254{opacity:0.7;fill:url(#XMLID_93_);}
	.st255{opacity:0.7;fill:url(#XMLID_94_);}
	.st256{opacity:0.7;fill:url(#XMLID_95_);}
	.st257{opacity:0.7;fill:url(#XMLID_96_);}
	.st258{opacity:0.4;fill:url(#XMLID_97_);}
	.st259{fill:url(#XMLID_98_);}
	.st260{fill:url(#XMLID_99_);}
	.st261{fill:url(#XMLID_100_);}
	.st262{opacity:0.7;}
	.st263{fill:url(#XMLID_101_);}
	.st264{fill:url(#XMLID_102_);}
	.st265{fill:url(#XMLID_103_);}
	.st266{opacity:0.7;fill:url(#XMLID_104_);}
	.st267{opacity:0.7;fill:url(#XMLID_105_);}
	.st268{opacity:0.7;fill:url(#XMLID_106_);}
	.st269{opacity:0.7;fill:url(#XMLID_107_);}
	.st270{fill:url(#XMLID_108_);}
	.st271{fill:url(#XMLID_109_);}
	.st272{opacity:0.7;fill:url(#XMLID_110_);}
	.st273{opacity:0.7;fill:url(#XMLID_111_);}
	.st274{opacity:0.7;fill:url(#XMLID_112_);}
	.st275{opacity:0.7;fill:url(#XMLID_113_);}
	.st276{opacity:0.2;}
	.st277{fill:url(#XMLID_114_);}
	.st278{fill:url(#XMLID_115_);}
	.st279{opacity:0.7;fill:url(#XMLID_116_);}
	.st280{opacity:0.7;fill:url(#XMLID_117_);}
	.st281{opacity:0.7;fill:url(#XMLID_118_);}
	.st282{opacity:0.7;fill:url(#XMLID_119_);}
	.st283{fill:url(#XMLID_120_);}
	.st284{fill:url(#XMLID_121_);}
	.st285{opacity:0.7;fill:url(#XMLID_122_);}
	.st286{opacity:0.7;fill:url(#XMLID_123_);}
	.st287{opacity:0.7;fill:url(#XMLID_124_);}
	.st288{opacity:0.7;fill:url(#XMLID_125_);}
	.st289{opacity:0.7;fill:url(#XMLID_126_);}
	.st290{fill:url(#XMLID_127_);}
	.st291{fill:url(#XMLID_128_);}
	.st292{fill:#CCCCCC;}
	.st293{fill:#4D4D4D;}
	.st294{fill:#11083A;}
	.st295{fill:#48B980;}
	.st296{fill:#FFCC2C;}
	.st297{fill:none;stroke:#45BDD5;stroke-width:0;stroke-linecap:round;stroke-linejoin:round;}
	.st298{fill:none;stroke:#15003E;stroke-width:0.75;stroke-linecap:round;stroke-miterlimit:10;}
	.st299{fill:none;stroke:#15003E;stroke-width:0.75;stroke-miterlimit:10;}
	.st300{fill:none;stroke:#15003E;stroke-width:0.5;stroke-miterlimit:10;}
	.st301{fill:none;}
	.st302{fill:none;stroke:#15003E;stroke-width:0.5;stroke-linecap:round;stroke-miterlimit:10;}
	.st303{fill:none;stroke:#F9006C;stroke-width:0.75;stroke-linecap:round;stroke-miterlimit:10;}
	.st304{fill:#25E899;stroke:#15003E;stroke-width:0.5;stroke-linecap:round;stroke-miterlimit:10;}
	.st305{fill:none;stroke:#0FCE7C;stroke-linecap:round;stroke-miterlimit:10;}
	.st306{fill:#15003E;stroke:#15003E;stroke-width:0.75;stroke-miterlimit:10;}
	.st307{clip-path:url(#SVGID_20_);}
	.st308{clip-path:url(#SVGID_22_);}
	.st309{fill:url(#SVGID_23_);}
	.st310{fill-rule:evenodd;clip-rule:evenodd;fill:url(#SVGID_24_);}
	.st311{fill-rule:evenodd;clip-rule:evenodd;fill:#E0F3F5;}
	.st312{fill-rule:evenodd;clip-rule:evenodd;fill:url(#SVGID_25_);}
	.st313{fill-rule:evenodd;clip-rule:evenodd;fill:#D7EFF4;}
	.st314{fill:#D7EFF4;}
	.st315{fill:#E9EFE8;}
	.st316{fill:#FFCE08;}
	.st317{fill:#F9006C;}
	.st318{fill:none;stroke:#11083A;stroke-width:0.75;stroke-miterlimit:10;}
	.st319{fill:#E8EEE6;}
	.st320{clip-path:url(#SVGID_27_);}
	.st321{fill:#A8E6FF;}
	.st322{fill:#4FA4D3;}
	.st323{fill:#4B9AC6;}
	.st324{fill:#74B0E6;}
	.st325{fill:#E4E3E5;}
	.st326{fill:#5CB5EF;}
	.st327{fill:#A3D9FD;}
	.st328{fill:#4A76B7;}
	.st329{fill:#CFE6F6;}
	.st330{fill:#F9FAFC;}
	.st331{fill:#E8F2FE;}
	.st332{fill:#F2F2F2;}
</style>
<polygon class="st24" points="111.1,32.1 111.1,96.1 55.7,128.1 11.3,102.5 11.1,102.4 0.2,96.1 0.2,32.1 55.7,0.1 "/>
<g class="st25">
	<defs>
		<path id="SVGID_17_" class="st25" d="M102.2,37.7v53.1l0,0l-1.1,0.6l-0.3,0.2l-0.1,0.1l-0.9,0.5l-3.1,1.8l-0.2,0.1l-1.9,1.1
			l-0.2,0.1l-1.5,0.9l-0.5,0.3l-0.1,0.1l-0.5,0.3L91.5,97l0,0l-0.1,0l-0.1,0.1l-3,1.7l-0.8,0.5l-1.1,0.6l0,0l-1.2,0.7l-0.4,0.3l0,0
			h0l-1.5,0.9l-0.9,0.5l-1.3,0.7l-0.1,0l-0.1,0l-0.1,0.1l-0.4,0.2l0,0l-0.1,0l-0.1,0l-0.1,0v0l-0.8,0.4l-0.2,0.1l0,0l0,0l-1,0.6
			l-0.1,0.1l-0.2,0.1l-0.1,0l-0.3,0.2l-0.2,0.1h0l-0.1,0l-0.6,0.4l-0.2,0.1L76,106l-0.3,0.1c0,0,0,0,0,0l-0.5,0.3l-0.4,0.2l0,0
			l-0.6,0.3l-2.3,1.3l-0.6,0.4l-0.1,0l-3.5,2l0,0l0,0l-0.4,0.2l-0.3,0.2l-0.5,0.3l-0.1,0.1l-1.3,0.7l-1,0.6l-0.4,0.2l0,0l-0.4,0.3
			l-0.4,0.2l-2.4,1.4l-0.4,0.2l0,0l-0.2,0.1l-0.5,0.3l-1.9,1.1l-0.6,0.3h0l-0.3,0.2l-0.5,0.3l-0.1-0.1l-1.3-0.7l-0.8-0.5l0,0
			l-0.9-0.5l-0.2-0.1l0,0l-0.6-0.3l-0.2-0.1l-3.4-1.9l0,0l-2.1-1.2l-4.8-2.8l-0.6-0.3l-0.7-0.4l-0.9-0.5l-0.2-0.1l-0.1-0.1l0,0
			l-2.2-1.3l-1.2-0.7l-0.4-0.2l-0.4-0.2l-0.2-0.1l-0.3-0.2l-0.2-0.2l-0.1-0.1l-0.3-0.2l-0.1-0.1l-0.1,0l0,0l-1.3-0.7l0,0l-0.2-0.1
			l-0.4-0.2l-1.7-1l-2.5-1.5l-2.1-1.2l-0.8-0.5l-0.1-0.1l-0.5-0.3l0,0l-0.2-0.1h0l-1-0.6c0,0,0,0,0,0L20.8,97l-1-0.6l-1.3-0.8
			l-0.7-0.4l0,0l0,0L17.4,95c0,0,0,0,0,0l-0.3-0.2l0,0l-3.3-1.9l-3.4-2l-0.1-0.1l-0.1,0l0,0V37.7l5.7-3.3l0.8-0.5h0l0.3-0.1l0.6-0.3
			l1.8-1l2.3-1.3l0.8-0.5l0.1-0.1l2.1-1.2l1-0.6l1-0.6l0.4-0.2l0.5-0.3l0.3-0.1c0,0,0,0,0,0l0.6-0.3l3.2-1.9l1.6-0.9l0.2-0.1l1.7-1
			l0.8-0.5l0.4-0.2l0.4-0.3l1.1-0.6l0.5-0.3l2.3-1.3l0.7-0.4l1.4-0.8h0l0,0l5.7-3.3l0.2-0.1l0.3-0.2l6.1-3.5l1.4-0.8l1.1,0.6
			l6.5,3.8l2.6,1.5l3.9,2.3l1.3,0.8l6.6,3.8l1,0.6l2.3,1.3l0.9,0.5l1.5,0.9l1.4,0.8l0.8,0.5l0.1,0.1l1.8,1l3.8,2.2l0,0v0l0.3,0.1
			l0.3,0.2l0.4,0.2l0.9,0.5l0.5,0.3l0,0l1.9,1.1l0.8,0.4l0.4,0.3l1.9,1.1L102.2,37.7z"/>
	</defs>
	<clipPath id="SVGID_2_">
		<use xlink:href="#SVGID_17_"  style="overflow:visible;"/>
	</clipPath>
	<g style="clip-path:url(#SVGID_2_);">
		<radialGradient id="background_1_" cx="51.22" cy="63.7857" r="165.7753" gradientUnits="userSpaceOnUse">
			<stop  offset="0" style="stop-color:#FF64FF"/>
			<stop  offset="1" style="stop-color:#0A09AE"/>
		</radialGradient>
		<rect id="background" x="-17" y="-4.4" class="st27" width="136.4" height="136.4"/>
		<defs>
			<filter id="Adobe_OpacityMaskFilter" filterUnits="userSpaceOnUse" x="-17" y="-4.4" width="136.4" height="136.4">
				<feFlood  style="flood-color:white;flood-opacity:1" result="back"/>
				<feBlend  in="SourceGraphic" in2="back" mode="normal"/>
			</filter>
		</defs>
		<mask maskUnits="userSpaceOnUse" x="-17" y="-4.4" width="136.4" height="136.4" id="_x37__1_">
			<g id="XMLID_585_" class="st28">
				<defs>
					<filter id="Adobe_OpacityMaskFilter_1_" filterUnits="userSpaceOnUse" x="-163.7" y="-4.4" width="283.1" height="136.4">
						<feFlood  style="flood-color:white;flood-opacity:1" result="back"/>
						<feBlend  in="SourceGraphic" in2="back" mode="normal"/>
					</filter>
				</defs>
				<mask maskUnits="userSpaceOnUse" x="-163.7" y="-4.4" width="283.1" height="136.4" id="_x37__1_">
				</mask>
				<linearGradient id="_x31_3_1_" gradientUnits="userSpaceOnUse" x1="-18.067" y1="-23.5293" x2="-57.8873" y2="164.2893">
					<stop  offset="0" style="stop-color:#FFFFFF"/>
					<stop  offset="1" style="stop-color:#000000"/>
				</linearGradient>
				<polygon id="_x31_3_2_" class="st30" points="-1.8,132 119.4,-4.4 -163.7,-4.4 -163.7,132 				"/>
			</g>
		</mask>
		<linearGradient id="_x37__2_" gradientUnits="userSpaceOnUse" x1="79.6232" y1="-70.1774" x2="46.1057" y2="87.9127">
			<stop  offset="0" style="stop-color:#00BDFF"/>
			<stop  offset="1" style="stop-color:#0C09C6"/>
		</linearGradient>
		<rect id="_x37_" x="-17" y="-4.4" class="st31" width="136.4" height="136.4"/>
	</g>
</g>
<g>
	<path class="st2" d="M69.3,115.2l1.6-0.9l0.1,0.1c0.2,0.3,0.3,0.6,0.3,0.8c0,0.2,0,0.5,0,0.8c-0.1,0.6-0.5,1.1-1,1.4
		c-0.5,0.3-1.1,0.4-1.7,0.2c-0.6-0.2-1.1-0.5-1.4-1.1c-0.3-0.5-0.4-1.1-0.2-1.7s0.5-1.1,1.1-1.4c0.3-0.2,0.6-0.3,0.9-0.3
		c0.3,0,0.7,0,1.1,0.2l-0.2,0.6c-0.5-0.2-1-0.2-1.5,0c-0.4,0.2-0.7,0.6-0.8,1c-0.1,0.4-0.1,0.8,0.2,1.3c0.2,0.4,0.6,0.7,1.1,0.8
		c0.4,0.1,0.8,0,1.1-0.2c0.3-0.2,0.5-0.4,0.6-0.7c0.1-0.3,0.1-0.6,0-0.9l-0.9,0.5L69.3,115.2z"/>
	
		<rect x="72.9" y="110.8" transform="matrix(0.8665 -0.4992 0.4992 0.8665 -46.6485 51.6212)" class="st2" width="0.7" height="4.4"/>
	<polygon class="st2" points="75.9,109.6 77.8,112.9 77.2,113.2 75.4,109.9 74.5,110.4 74.2,109.9 76.5,108.6 76.8,109.1 	"/>
	<path class="st2" d="M81.1,106.2l0.4,0.7c-0.5-0.1-0.9,0-1.3,0.2c-0.4,0.2-0.6,0.6-0.7,1c-0.1,0.4,0,0.9,0.2,1.3
		c0.2,0.4,0.6,0.7,1,0.8c0.4,0.1,0.8,0.1,1.2-0.2c0.2-0.1,0.4-0.2,0.5-0.4c0.1-0.1,0.1-0.2,0.2-0.3c0.1-0.1,0.1-0.2,0.2-0.4l0.4,0.7
		c-0.2,0.4-0.5,0.7-0.9,0.9c-0.5,0.3-1.1,0.4-1.7,0.2c-0.6-0.2-1.1-0.5-1.4-1c-0.3-0.5-0.4-1-0.3-1.6c0.1-0.7,0.5-1.2,1.1-1.6
		C80.3,106.3,80.7,106.2,81.1,106.2"/>
	<path class="st1" d="M83.9,106c-0.3-0.5-0.4-1.1-0.2-1.7c0.2-0.6,0.5-1.1,1.1-1.4c0.5-0.3,1.1-0.4,1.7-0.2c0.6,0.2,1.1,0.5,1.4,1.1
		c0.3,0.5,0.4,1.1,0.2,1.7c-0.2,0.6-0.5,1.1-1.1,1.4c-0.5,0.3-1,0.4-1.6,0.3C84.7,107,84.2,106.6,83.9,106 M84.5,105.7
		c0.2,0.4,0.6,0.7,1,0.8c0.4,0.1,0.8,0.1,1.2-0.2c0.4-0.2,0.7-0.6,0.8-1c0.1-0.4,0.1-0.9-0.2-1.3c-0.2-0.4-0.6-0.7-1-0.8
		c-0.4-0.1-0.8-0.1-1.2,0.2c-0.4,0.2-0.6,0.6-0.8,1C84.2,104.9,84.2,105.3,84.5,105.7"/>
	
		<rect x="89.8" y="101.1" transform="matrix(0.8663 -0.4995 0.4995 0.8663 -39.5161 58.8384)" class="st2" width="0.7" height="4.4"/>
	<polygon class="st2" points="93.8,103.7 91.4,99.6 95.9,100.9 94.3,98.3 94.9,98 97.2,102 92.8,100.7 94.3,103.4 	"/>
</g>
<g id="Layer_2_3_">
	<g id="Layer_16_3_">
		<path class="st3" d="M97,34.7l-0.5-0.3L95.8,34L95,33.6l-0.1-0.1l-0.5-0.3l-0.5-0.3L93,32.4l-7.3-4.2l-1.7-1l-0.7-0.4l-0.4-0.3
			l-0.5-0.3l-0.1,0L81.9,26l-0.4-0.2l-5.3-3.1L56.7,11.5l-0.5-0.3l-0.5,0.3l-17.1,9.9l-5,2.9L32.2,25l-0.5,0.3l-0.1,0c0,0,0,0,0,0
			l-0.3,0.1l-0.4,0.3l-0.3,0.2l-0.3,0.2l-0.2,0.1L28.7,27h0l-1.8,1l0,0l-0.6,0.3l-0.8,0.4l0,0l0,0l-3.3,1.9h0l-2.4,1.4l-1,0.6
			l-3,1.7l-4.2,2.4l-1.5,0.9v53.1l0.1,0l1.7,1l0.8,0.4l0.1,0.1l4.3,2.5l0.7,0.4l0.5,0.3l1.9,1.1l1.6,0.9l0.5,0.3l1.3,0.8l3.4,1.9
			l5.4,3.1l0.7,0.4l0.1,0l0.2,0.1l0.1,0.1l0.2,0.1l0,0l1.9,1.1l0.9,0.5l1.3,0.8l0.9,0.5l0.2,0.1l0.3,0.2l0.2,0.1l0.5,0.3l3.6,2.1
			l0.1,0.1l0.4,0.3l0.6,0.4l0.7,0.4c0,0,0,0,0,0l0.5,0.3l1.5,0.9l3.2,1.8l4.5,2.6l1,0.6l0.2,0.1l0,0l0.2-0.1l0.1-0.1l0,0l0.3-0.2
			l1.8-1l0.1-0.1l0.7-0.4l0.5-0.3l0.2-0.1l3.9-2.2l2.4-1.4l0.7-0.4l0.7-0.4l0.7-0.4L69,110l2.3-1.3l0.4-0.2h0l0.2-0.1l0.2-0.1
			l0.6-0.4l0.8-0.5l1.3-0.7l0.5-0.3h0l0.5-0.3l0,0l0.3-0.1l0.5-0.3l0.4-0.2l0.3-0.2l0.6-0.3l0.2-0.1l0.3-0.2l0.4-0.2l0,0l0.1,0
			l0.1-0.1l0.2-0.1l3.8-2.2l0.4-0.2l1.1-0.7l3-1.7l1.6-0.9l3.1-1.8l1.9-1.1l3.6-2.1h0l0.1,0l2.7-1.5l0.9-0.5l1-0.6V37.7L97,34.7z
			 M100.3,89.8l-0.5,0.3l-0.3,0.2l-0.6,0.3L91.3,95l-1.1,0.6l-1.9,1.1l-1.7,1l-3.1,1.8l-1.3,0.7l-0.7,0.4l-2.9,1.7l-0.1,0.1
			l-0.2,0.1l-0.2,0.1l-0.6,0.3l-0.9,0.5l-0.2,0.1l-0.1,0l-0.8,0.5l-0.1,0.1l-3.9,2.3l-0.1,0.1l-0.8,0.4l-0.1,0.1l-0.9,0.5l-2.2,1.2
			l-1.5,0.9l-1.7,1l-1.1,0.6l-3,1.7l-1.2,0.7l-0.1,0h0l-0.8,0.4l-0.3,0.2l-1.9,1.1l-3.5-2l-1.2-0.7l-0.6-0.3l-1.8-1.1l-0.7-0.4
			l-0.7-0.4l-5.3-3l-0.8-0.4l0,0l-1.8-1l-2.1-1.2l-0.9-0.5l-0.6-0.3l-0.3-0.2l-0.4-0.3l-0.2-0.1l-1.8-1l-0.3-0.2l-0.2-0.1l-1.5-0.9
			l-3.4-2l-3.9-2.3L24,96.7l-1.5-0.8l-0.4-0.3l-3-1.7L14.2,91l-0.9-0.5l-0.4-0.2l-0.2-0.1L12,89.8v-51l3.9-2.3l3-1.7l0.9-0.5h0
			l0.1,0l3.2-1.8h0l1.4-0.8h0l1.8-1l1.3-0.7l0.4-0.3h0l0.8-0.4l0.5-0.3h0l3-1.7c0,0,0,0,0,0l0.8-0.5l0.3-0.2l0.2-0.1l0.3-0.2
			l0.2-0.1l0.3-0.1l0,0l8-4.6l13.4-7.7l0.5-0.3l0.5,0.3l16.8,9.7l7,4l0.1,0l0.3,0.2l0.1,0.1l0.4,0.3l0.3,0.2l1.2,0.7l1.9,1.1l7,4
			l1.4,0.8l0.6,0.3l0,0l0.8,0.4l0.2,0.1l0.5,0.3l0.5,0.3l4.4,2.5L100.3,89.8L100.3,89.8z"/>
	</g>
</g>
<g>
	<g id="_x36_">
		<g id="XMLID_61_">
			<linearGradient id="XMLID_2_" gradientUnits="userSpaceOnUse" x1="129.8679" y1="98.7361" x2="40.37" y2="88.2432">
				<stop  offset="0" style="stop-color:#4F24FF"/>
				<stop  offset="1" style="stop-color:#13FFE2"/>
			</linearGradient>
			<path id="XMLID_62_" class="st32" d="M56.9,100c-0.4,0-0.8-0.1-1.2-0.3l-14.6-8.5c-0.5-0.3-0.7-0.7-0.8-1.1
				c0-0.4,0.2-0.7,0.5-0.9l0,0l14.9-8.5c0.8-0.5,1.8-0.5,2.7-0.1L73,89.1c0.4,0.3,0.6,0.7,0.6,1.2c0,0.4-0.2,0.7-0.5,0.9l-14.8,8.4
				C57.9,99.9,57.4,100,56.9,100z M41,89.4c-0.3,0.2-0.5,0.5-0.4,0.8c0,0.3,0.2,0.7,0.7,0.9l14.6,8.4c0.8,0.4,1.7,0.4,2.4-0.1L73,91
				c0.3-0.2,0.4-0.4,0.5-0.7c0-0.4-0.2-0.8-0.5-1l-14.6-8.5c-0.8-0.4-1.7-0.4-2.5,0.1L41,89.4z"/>
		</g>
		<g id="XMLID_316_">
			<g id="XMLID_274_">
				<path id="XMLID_35_" class="st33" d="M31.8,82.8l22.8-13c1.3-0.8,3-0.8,4.4-0.1l22,12.8c1.1,0.8,1.4,2.5,0.1,3.2L58.5,98.6
					c-1.3,0.8-2.9,0.8-4.3,0.1l-22-12.8C30.6,85,30.7,83.5,31.8,82.8z"/>
				<path class="st34" d="M31.8,82.8l22.8-12.9c1.3-0.8,3-0.8,4.4-0.1l22,12.8c1.1,0.8,1.4,2.5,0.1,3.2L58.5,98.5
					c-1.3,0.8-2.9,0.8-4.3,0.1l-22-12.7C30.6,85,30.7,83.5,31.8,82.8z"/>
				<path class="st35" d="M31.9,82.8l22.8-12.9c1.3-0.8,3-0.8,4.4-0.1l22,12.8c1.1,0.8,1.4,2.5,0.1,3.2L58.5,98.5
					c-1.3,0.8-2.9,0.8-4.3,0.1l-22-12.7C30.6,85,30.7,83.5,31.9,82.8z"/>
				<path class="st36" d="M31.9,82.8l22.7-12.9c1.3-0.8,3-0.8,4.4-0.1l22,12.7c1.1,0.8,1.4,2.5,0.1,3.2L58.5,98.5
					c-1.3,0.8-2.9,0.8-4.3,0.1l-22-12.7C30.7,85,30.8,83.5,31.9,82.8z"/>
				<path class="st37" d="M31.9,82.8l22.7-12.9c1.3-0.8,3-0.8,4.4-0.1l21.9,12.7c1.1,0.8,1.4,2.5,0.1,3.2L58.5,98.5
					c-1.3,0.8-2.9,0.8-4.3,0.1L32.3,85.9C30.7,85,30.8,83.5,31.9,82.8z"/>
				<path class="st38" d="M32,82.8l22.7-12.9c1.3-0.8,3-0.8,4.4-0.1l21.9,12.7c1.1,0.8,1.4,2.5,0.1,3.2L58.5,98.5
					c-1.3,0.8-2.9,0.8-4.3,0.1L32.3,85.9C30.7,85,30.8,83.5,32,82.8z"/>
				<path class="st39" d="M32,82.8l22.6-12.9c1.3-0.8,3-0.8,4.3-0.1l21.9,12.7c1.1,0.8,1.3,2.5,0.1,3.2L58.5,98.4
					c-1.3,0.8-2.9,0.8-4.3,0.1L32.4,85.9C30.8,85,30.9,83.5,32,82.8z"/>
				<path class="st40" d="M32,82.8l22.6-12.8c1.3-0.8,3-0.8,4.3-0.1l21.8,12.7c1.1,0.8,1.3,2.5,0.1,3.2L58.5,98.4
					c-1.3,0.8-2.9,0.8-4.3,0.1L32.4,85.9C30.8,85,30.9,83.5,32,82.8z"/>
				<path class="st41" d="M32.1,82.8l22.6-12.8c1.3-0.8,3-0.8,4.3-0.1l21.8,12.7c1.1,0.8,1.3,2.5,0.1,3.2L58.5,98.4
					c-1.3,0.8-2.9,0.8-4.3,0.1L32.4,85.9C30.9,85,30.9,83.5,32.1,82.8z"/>
				<path class="st42" d="M32.1,82.8l22.6-12.8c1.3-0.8,3-0.8,4.3-0.1l21.8,12.6c1.1,0.8,1.3,2.5,0.1,3.2L58.5,98.4
					c-1.3,0.8-2.9,0.8-4.3,0.1L32.5,85.9C30.9,85,31,83.5,32.1,82.8z"/>
				<path class="st43" d="M32.1,82.8L54.7,70c1.3-0.8,3-0.8,4.3-0.1l21.8,12.6c1.1,0.8,1.3,2.5,0.1,3.2L58.5,98.4
					c-1.3,0.8-2.9,0.8-4.3,0.1L32.5,85.9C30.9,85,31,83.5,32.1,82.8z"/>
				<path class="st44" d="M32.2,82.8L54.7,70c1.3-0.8,2.9-0.8,4.3-0.1l21.7,12.6c1.1,0.8,1.3,2.5,0.1,3.2L58.5,98.3
					c-1.3,0.8-2.9,0.8-4.2,0.1L32.5,85.9C31,84.9,31.1,83.5,32.2,82.8z"/>
				<path class="st45" d="M32.2,82.7L54.7,70c1.3-0.8,2.9-0.8,4.3-0.1l21.7,12.6c1.1,0.8,1.3,2.5,0.1,3.2L58.5,98.3
					c-1.3,0.8-2.9,0.8-4.2,0.1L32.6,85.9C31,84.9,31.1,83.5,32.2,82.7z"/>
				<path class="st46" d="M32.2,82.7L54.7,70c1.3-0.8,2.9-0.8,4.3-0.1l21.7,12.6c1.1,0.8,1.3,2.4,0.1,3.2L58.5,98.3
					c-1.3,0.8-2.9,0.8-4.2,0.1L32.6,85.9C31,84.9,31.1,83.5,32.2,82.7z"/>
				<path class="st47" d="M32.3,82.7L54.7,70c1.3-0.8,2.9-0.8,4.3-0.1l21.7,12.6c1.1,0.8,1.3,2.4,0.1,3.2L58.5,98.3
					c-1.3,0.8-2.9,0.8-4.2,0.1L32.6,85.9C31.1,84.9,31.2,83.5,32.3,82.7z"/>
				<path class="st48" d="M32.3,82.7L54.7,70c1.3-0.8,2.9-0.8,4.3-0.1l21.6,12.6c1.1,0.8,1.3,2.4,0.1,3.2L58.5,98.3
					c-1.3,0.8-2.9,0.8-4.2,0.1L32.7,85.9C31.1,84.9,31.2,83.5,32.3,82.7z"/>
				<path class="st49" d="M32.3,82.7l22.4-12.7c1.3-0.8,2.9-0.8,4.3-0.1l21.6,12.5c1.1,0.8,1.3,2.4,0.1,3.2L58.5,98.2
					c-1.3,0.8-2.9,0.8-4.2,0.1L32.7,85.9C31.1,84.9,31.2,83.5,32.3,82.7z"/>
				<path class="st50" d="M32.4,82.7l22.3-12.7c1.3-0.8,2.9-0.8,4.3-0.1l21.6,12.5c1.1,0.8,1.3,2.4,0.1,3.2L58.5,98.2
					c-1.3,0.8-2.9,0.8-4.2,0.1L32.7,85.8C31.2,84.9,31.3,83.5,32.4,82.7z"/>
				<path class="st51" d="M32.4,82.7l22.3-12.7c1.3-0.8,2.9-0.8,4.3-0.1l21.5,12.5c1.1,0.8,1.3,2.4,0.1,3.2L58.5,98.2
					c-1.3,0.8-2.9,0.8-4.2,0.1L32.8,85.8C31.2,84.9,31.3,83.5,32.4,82.7z"/>
				<path class="st52" d="M32.4,82.7l22.3-12.6c1.3-0.8,2.9-0.8,4.3-0.1l21.5,12.5c1.1,0.8,1.3,2.4,0.1,3.1L58.5,98.2
					c-1.3,0.8-2.9,0.8-4.2,0.1L32.8,85.8C31.2,84.9,31.3,83.5,32.4,82.7z"/>
				<path class="st53" d="M32.5,82.7l22.2-12.6c1.3-0.8,2.9-0.8,4.3-0.1l21.5,12.5c1.1,0.8,1.3,2.4,0.1,3.1L58.5,98.1
					c-1.3,0.7-2.9,0.8-4.2,0.1L32.8,85.8C31.3,84.9,31.4,83.5,32.5,82.7z"/>
				<path class="st54" d="M32.5,82.7l22.2-12.6c1.3-0.8,2.9-0.8,4.3-0.1l21.5,12.5c1.1,0.8,1.3,2.4,0.1,3.1l-22,12.5
					c-1.3,0.7-2.9,0.8-4.2,0.1L32.9,85.8C31.3,84.9,31.4,83.5,32.5,82.7z"/>
				<path class="st55" d="M32.5,82.7l22.2-12.6c1.3-0.8,2.9-0.8,4.3-0.1l21.4,12.4c1.1,0.8,1.3,2.4,0.1,3.1l-22,12.5
					c-1.3,0.7-2.9,0.8-4.2,0.1L32.9,85.8C31.4,84.9,31.4,83.5,32.5,82.7z"/>
				<path class="st56" d="M32.6,82.7l22.2-12.6c1.3-0.8,2.9-0.8,4.3-0.1l21.4,12.4c1.1,0.8,1.3,2.4,0.1,3.1l-22,12.5
					c-1.3,0.7-2.9,0.8-4.2,0.1L32.9,85.8C31.4,84.9,31.5,83.5,32.6,82.7z"/>
				<path class="st57" d="M32.6,82.7l22.1-12.6c1.3-0.8,2.9-0.8,4.2-0.1l21.4,12.4c1.1,0.8,1.3,2.4,0.1,3.1L58.5,98.1
					c-1.3,0.7-2.9,0.8-4.2,0.1L33,85.8C31.4,84.9,31.5,83.5,32.6,82.7z"/>
				<path class="st58" d="M32.6,82.7l22.1-12.5c1.3-0.8,2.9-0.8,4.2-0.1l21.4,12.4c1.1,0.8,1.3,2.4,0.1,3.1L58.5,98
					c-1.3,0.7-2.8,0.8-4.2,0.1L33,85.8C31.5,84.9,31.6,83.5,32.6,82.7z"/>
				<path class="st59" d="M32.7,82.7l22.1-12.5c1.3-0.8,2.9-0.8,4.2-0.1l21.3,12.4c1.1,0.8,1.3,2.4,0.1,3.1L58.5,98
					c-1.3,0.7-2.8,0.8-4.2,0.1L33,85.8C31.5,84.9,31.6,83.5,32.7,82.7z"/>
				<path class="st60" d="M32.7,82.7l22-12.5c1.3-0.8,2.9-0.8,4.2-0.1l21.3,12.4c1.1,0.8,1.3,2.4,0.1,3.1L58.5,98
					c-1.3,0.7-2.8,0.8-4.2,0.1L33.1,85.8C31.5,84.9,31.6,83.5,32.7,82.7z"/>
				<path class="st61" d="M32.7,82.7l22-12.5c1.3-0.8,2.9-0.8,4.2-0.1l21.3,12.3c1.1,0.8,1.3,2.4,0.1,3.1L58.5,98
					c-1.3,0.7-2.8,0.8-4.2,0.1L33.1,85.8C31.6,84.9,31.7,83.5,32.7,82.7z"/>
				<path class="st62" d="M32.8,82.7l22-12.5c1.3-0.8,2.9-0.8,4.2-0.1l21.2,12.3c1.1,0.8,1.3,2.4,0.1,3.1L58.5,98
					c-1.3,0.7-2.8,0.8-4.2,0.1L33.1,85.8C31.6,84.9,31.7,83.5,32.8,82.7z"/>
				<path class="st63" d="M32.8,82.7l21.9-12.5c1.3-0.8,2.9-0.8,4.2-0.1l21.2,12.3c1.1,0.8,1.3,2.4,0.1,3.1L58.5,97.9
					c-1.3,0.7-2.8,0.8-4.1,0.1L33.2,85.8C31.6,84.9,31.7,83.5,32.8,82.7z"/>
				<path class="st64" d="M32.8,82.7l21.9-12.4c1.3-0.8,2.9-0.8,4.2-0.1l21.2,12.3c1.1,0.8,1.3,2.4,0.1,3.1L58.5,97.9
					c-1.3,0.7-2.8,0.8-4.1,0.1L33.2,85.8C31.7,84.9,31.8,83.5,32.8,82.7z"/>
				<path class="st65" d="M32.9,82.7l21.9-12.4c1.3-0.7,2.9-0.8,4.2-0.1l21.2,12.3c1.1,0.8,1.3,2.4,0.1,3.1L58.5,97.9
					c-1.3,0.7-2.8,0.8-4.1,0.1L33.2,85.8C31.7,84.9,31.8,83.5,32.9,82.7z"/>
				<path class="st66" d="M32.9,82.7l21.9-12.4c1.3-0.7,2.9-0.8,4.2-0.1l21.1,12.3c1.1,0.8,1.3,2.4,0.1,3.1L58.5,97.9
					c-1.3,0.7-2.8,0.8-4.1,0.1L33.3,85.8C31.7,84.9,31.8,83.4,32.9,82.7z"/>
				<path class="st67" d="M33,82.7l21.8-12.4c1.3-0.7,2.9-0.8,4.2-0.1l21.1,12.3c1.1,0.8,1.3,2.4,0.1,3.1L58.5,97.9
					c-1.3,0.7-2.8,0.8-4.1,0.1L33.3,85.8C31.8,84.9,31.9,83.4,33,82.7z"/>
				<path class="st68" d="M33,82.7l21.8-12.4c1.3-0.7,2.9-0.8,4.2-0.1l21.1,12.2c1.1,0.8,1.3,2.4,0.1,3.1L58.5,97.8
					c-1.3,0.7-2.8,0.8-4.1,0.1L33.3,85.8C31.8,84.9,31.9,83.4,33,82.7z"/>
				<path class="st69" d="M33,82.7l21.8-12.4c1.3-0.7,2.9-0.8,4.2-0.1L80,82.4c1.1,0.8,1.3,2.4,0.1,3.1L58.5,97.8
					c-1.3,0.7-2.8,0.8-4.1,0.1L33.4,85.8C31.9,84.9,31.9,83.4,33,82.7z"/>
				<path class="st70" d="M33.1,82.7l21.7-12.3c1.3-0.7,2.9-0.8,4.2-0.1l21,12.2c1.1,0.8,1.3,2.4,0.1,3.1L58.5,97.8
					c-1.3,0.7-2.8,0.8-4.1,0.1l-21-12.2C31.9,84.8,32,83.4,33.1,82.7z"/>
				<path class="st71" d="M33.1,82.7l21.7-12.3c1.3-0.7,2.8-0.8,4.2-0.1l21,12.2c1.1,0.8,1.3,2.4,0.1,3.1L58.5,97.8
					c-1.3,0.7-2.8,0.8-4.1,0.1l-21-12.2C31.9,84.8,32,83.4,33.1,82.7z"/>
				<path class="st72" d="M33.1,82.7l21.7-12.3c1.3-0.7,2.8-0.8,4.2-0.1l21,12.2c1.1,0.8,1.3,2.4,0.1,3.1L58.5,97.8
					c-1.3,0.7-2.8,0.8-4.1,0.1l-21-12.2C32,84.8,32.1,83.4,33.1,82.7z"/>
				<path class="st73" d="M33.2,82.7l21.7-12.3c1.3-0.7,2.8-0.8,4.2-0.1l21,12.2c1.1,0.8,1.3,2.4,0.1,3.1L58.5,97.7
					c-1.3,0.7-2.8,0.8-4.1,0.1L33.5,85.7C32,84.8,32.1,83.4,33.2,82.7z"/>
				<path class="st74" d="M33.2,82.7l21.6-12.3c1.3-0.7,2.8-0.8,4.2-0.1l20.9,12.1c1.1,0.8,1.3,2.4,0.1,3.1L58.5,97.7
					c-1.3,0.7-2.8,0.8-4.1,0.1L33.5,85.7C32,84.8,32.1,83.4,33.2,82.7z"/>
				<path class="st75" d="M33.2,82.7l21.6-12.3c1.3-0.7,2.8-0.8,4.2-0.1l20.9,12.1c1.1,0.8,1.3,2.4,0.1,3.1L58.5,97.7
					c-1.3,0.7-2.8,0.8-4.1,0.1L33.6,85.7C32.1,84.8,32.2,83.4,33.2,82.7z"/>
				<path class="st76" d="M33.3,82.7l21.6-12.3c1.3-0.7,2.8-0.8,4.1-0.1l20.9,12.1c1.1,0.8,1.3,2.4,0.1,3.1L58.5,97.7
					c-1.3,0.7-2.8,0.8-4.1,0.1L33.6,85.7C32.1,84.8,32.2,83.4,33.3,82.7z"/>
				<path class="st77" d="M33.3,82.7l21.5-12.2c1.3-0.7,2.8-0.8,4.1-0.1l20.8,12.1c1.1,0.8,1.3,2.4,0.1,3L58.5,97.7
					c-1.2,0.7-2.8,0.8-4.1,0.1L33.6,85.7C32.1,84.8,32.2,83.4,33.3,82.7z"/>
				<path class="st78" d="M33.3,82.7l21.5-12.2c1.3-0.7,2.8-0.8,4.1-0.1l20.8,12.1c1.1,0.8,1.3,2.4,0.1,3L58.5,97.6
					c-1.2,0.7-2.8,0.8-4.1,0.1L33.7,85.7C32.2,84.8,32.3,83.4,33.3,82.7z"/>
				<path class="st79" d="M33.4,82.7l21.5-12.2c1.3-0.7,2.8-0.8,4.1-0.1l20.8,12.1c1.1,0.8,1.3,2.3,0.1,3L58.5,97.6
					c-1.2,0.7-2.8,0.8-4.1,0.1l-20.8-12C32.2,84.8,32.3,83.4,33.4,82.7z"/>
				<path class="st80" d="M33.4,82.7l21.4-12.2c1.3-0.7,2.8-0.8,4.1-0.1l20.8,12c1.1,0.8,1.3,2.3,0.1,3L58.5,97.6
					c-1.2,0.7-2.8,0.8-4.1,0.1l-20.8-12C32.2,84.8,32.3,83.4,33.4,82.7z"/>
				<path class="st81" d="M33.4,82.7l21.4-12.2c1.3-0.7,2.8-0.8,4.1-0.1l20.7,12c1.1,0.8,1.3,2.3,0.1,3L58.6,97.6
					c-1.2,0.7-2.8,0.8-4,0.1l-20.7-12C32.3,84.8,32.4,83.4,33.4,82.7z"/>
				<path class="st82" d="M33.5,82.7l21.4-12.2c1.3-0.7,2.8-0.8,4.1-0.1l20.7,12c1.1,0.8,1.3,2.3,0.1,3L58.6,97.6
					c-1.2,0.7-2.8,0.8-4,0.1l-20.7-12C32.3,84.8,32.4,83.4,33.5,82.7z"/>
				<path class="st83" d="M33.5,82.7l21.4-12.1c1.3-0.7,2.8-0.8,4.1-0.1l20.7,12c1.1,0.8,1.3,2.3,0.1,3L58.6,97.5
					c-1.2,0.7-2.8,0.8-4,0.1l-20.7-12C32.4,84.8,32.4,83.4,33.5,82.7z"/>
				<path class="st84" d="M33.5,82.7l21.3-12.1c1.3-0.7,2.8-0.8,4.1-0.1l20.7,12c1.1,0.8,1.3,2.3,0.1,3l-21.2,12
					c-1.2,0.7-2.8,0.8-4,0.1l-20.6-12C32.4,84.8,32.5,83.4,33.5,82.7z"/>
				<path class="st85" d="M33.6,82.7l21.3-12.1c1.3-0.7,2.8-0.8,4.1-0.1l20.6,12c1.1,0.8,1.3,2.3,0.1,3l-21.1,12
					c-1.2,0.7-2.7,0.8-4,0.1L33.9,85.7C32.4,84.8,32.5,83.4,33.6,82.7z"/>
				<path class="st86" d="M33.6,82.7l21.3-12.1c1.3-0.7,2.8-0.8,4.1-0.1l20.6,12c1.1,0.8,1.3,2.3,0.1,3l-21.1,12
					c-1.2,0.7-2.7,0.8-4,0.1L33.9,85.7C32.5,84.8,32.5,83.4,33.6,82.7z"/>
				<path class="st87" d="M33.6,82.7l21.2-12.1c1.3-0.7,2.8-0.8,4.1-0.1l20.6,11.9c1.1,0.8,1.3,2.3,0.1,3l-21.1,12
					c-1.2,0.7-2.7,0.8-4,0.1L34,85.7C32.5,84.8,32.6,83.4,33.6,82.7z"/>
				<path class="st88" d="M33.7,82.7l21.2-12.1c1.3-0.7,2.8-0.8,4.1-0.1l20.5,11.9c1.1,0.8,1.3,2.3,0.1,3l-21,12
					c-1.2,0.7-2.7,0.8-4,0.1L34,85.7C32.5,84.8,32.6,83.4,33.7,82.7z"/>
				<path class="st89" d="M33.7,82.7l21.2-12c1.3-0.7,2.8-0.8,4.1-0.1l20.5,11.9c1.1,0.8,1.3,2.3,0.1,3l-21,12
					c-1.2,0.7-2.7,0.8-4,0.1L34,85.7C32.6,84.8,32.7,83.4,33.7,82.7z"/>
				<path class="st90" d="M33.7,82.7l21.2-12c1.2-0.7,2.8-0.8,4.1-0.1l20.5,11.9c1.1,0.8,1.3,2.3,0.1,3l-21,11.9
					c-1.2,0.7-2.7,0.8-4,0.1L34.1,85.6C32.6,84.8,32.7,83.4,33.7,82.7z"/>
				<path class="st91" d="M33.8,82.7l21.1-12c1.2-0.7,2.8-0.8,4.1-0.1l20.5,11.9c1.1,0.8,1.3,2.3,0.1,3L58.6,97.4
					c-1.2,0.7-2.7,0.8-4,0.1L34.1,85.6C32.6,84.8,32.7,83.4,33.8,82.7z"/>
				<path class="st92" d="M33.8,82.7l21.1-12c1.2-0.7,2.8-0.8,4.1-0.1l20.4,11.9c1.1,0.8,1.3,2.3,0.1,3L58.6,97.3
					c-1.2,0.7-2.7,0.8-4,0.1L34.1,85.6C32.7,84.8,32.8,83.4,33.8,82.7z"/>
				<path class="st93" d="M33.8,82.7l21.1-12c1.2-0.7,2.8-0.8,4.1-0.1l20.4,11.8c1.1,0.8,1.3,2.3,0.1,3L58.6,97.3
					c-1.2,0.7-2.7,0.8-4,0.1L34.2,85.6C32.7,84.8,32.8,83.4,33.8,82.7z"/>
				<path class="st94" d="M33.9,82.7l21-12c1.2-0.7,2.8-0.8,4-0.1l20.4,11.8c1.1,0.8,1.3,2.3,0.1,3L58.6,97.3
					c-1.2,0.7-2.7,0.8-4,0.1L34.2,85.6C32.7,84.8,32.8,83.4,33.9,82.7z"/>
				<path class="st95" d="M33.9,82.7l21-11.9c1.2-0.7,2.8-0.8,4-0.1l20.4,11.8c1.1,0.8,1.3,2.3,0.1,3L58.6,97.3
					c-1.2,0.7-2.7,0.8-4,0.1L34.2,85.6C32.8,84.8,32.9,83.4,33.9,82.7z"/>
				<path class="st96" d="M33.9,82.7l21-11.9c1.2-0.7,2.8-0.8,4-0.1l20.3,11.8c1,0.8,1.3,2.3,0.1,3L58.6,97.3
					c-1.2,0.7-2.7,0.8-4,0.1L34.3,85.6C32.8,84.7,32.9,83.4,33.9,82.7z"/>
				<path class="st97" d="M34,82.7l20.9-11.9c1.2-0.7,2.8-0.8,4-0.1l20.3,11.8c1,0.8,1.3,2.3,0.1,3L58.6,97.2
					c-1.2,0.7-2.7,0.8-4,0.1L34.3,85.6C32.9,84.7,32.9,83.4,34,82.7z"/>
				<path class="st98" d="M34,82.7l20.9-11.9c1.2-0.7,2.7-0.8,4-0.1l20.3,11.8c1,0.8,1.2,2.3,0.1,3L58.6,97.2
					c-1.2,0.7-2.7,0.8-4,0.1L34.3,85.6C32.9,84.7,33,83.4,34,82.7z"/>
				<path class="st99" d="M34,82.7l20.9-11.9c1.2-0.7,2.7-0.8,4-0.1l20.2,11.7c1,0.8,1.2,2.3,0.1,3L58.6,97.2
					c-1.2,0.7-2.7,0.8-4,0.1L34.4,85.6C32.9,84.7,33,83.4,34,82.7z"/>
				<path class="st100" d="M34.1,82.7l20.9-11.9c1.2-0.7,2.7-0.8,4-0.1l20.2,11.7c1,0.8,1.2,2.3,0.1,3L58.6,97.2
					c-1.2,0.7-2.7,0.8-3.9,0.1L34.4,85.6C33,84.7,33,83.4,34.1,82.7z"/>
				<path class="st101" d="M34.1,82.7l20.8-11.8c1.2-0.7,2.7-0.8,4-0.1l20.2,11.7c1,0.8,1.2,2.3,0.1,3L58.6,97.2
					c-1.2,0.7-2.7,0.8-3.9,0.1L34.4,85.6C33,84.7,33.1,83.4,34.1,82.7z"/>
				<path class="st102" d="M34.1,82.7l20.8-11.8c1.2-0.7,2.7-0.8,4-0.1l20.2,11.7c1,0.8,1.2,2.3,0.1,2.9L58.6,97.1
					c-1.2,0.7-2.7,0.7-3.9,0.1L34.5,85.6C33,84.7,33.1,83.4,34.1,82.7z"/>
				<path class="st103" d="M34.2,82.7L55,70.9c1.2-0.7,2.7-0.8,4-0.1l20.1,11.7c1,0.8,1.2,2.3,0.1,2.9L58.6,97.1
					c-1.2,0.7-2.7,0.7-3.9,0.1L34.5,85.6C33.1,84.7,33.2,83.4,34.2,82.7z"/>
				<path class="st104" d="M34.2,82.7L55,70.9c1.2-0.7,2.7-0.8,4-0.1l20.1,11.7c1,0.8,1.2,2.3,0.1,2.9L58.6,97.1
					c-1.2,0.7-2.7,0.7-3.9,0.1L34.5,85.6C33.1,84.7,33.2,83.4,34.2,82.7z"/>
				<path class="st105" d="M34.3,82.7L55,70.9c1.2-0.7,2.7-0.8,4-0.1L79,82.4c1,0.8,1.2,2.3,0.1,2.9L58.6,97.1
					c-1.2,0.7-2.7,0.7-3.9,0.1L34.6,85.6C33.1,84.7,33.2,83.4,34.3,82.7z"/>
				<path class="st106" d="M34.3,82.7L55,70.9c1.2-0.7,2.7-0.8,4-0.1L79,82.4c1,0.8,1.2,2.3,0.1,2.9L58.6,97.1
					c-1.2,0.7-2.7,0.7-3.9,0.1l-20-11.6C33.2,84.7,33.3,83.4,34.3,82.7z"/>
				<path class="st107" d="M34.3,82.7L55,70.9c1.2-0.7,2.7-0.8,4-0.1l20,11.6c1,0.8,1.2,2.3,0.1,2.9L58.6,97
					c-1.2,0.7-2.7,0.7-3.9,0.1l-20-11.6C33.2,84.7,33.3,83.4,34.3,82.7z"/>
				<path class="st108" d="M34.4,82.7L55,71c1.2-0.7,2.7-0.8,4-0.1l20,11.6c1,0.8,1.2,2.3,0.1,2.9L58.6,97c-1.2,0.7-2.7,0.7-3.9,0.1
					l-20-11.6C33.2,84.7,33.3,83.4,34.4,82.7z"/>
				<path class="st109" d="M34.4,82.7L55,71c1.2-0.7,2.7-0.8,4-0.1l20,11.6c1,0.8,1.2,2.3,0.1,2.9L58.6,97c-1.2,0.7-2.7,0.7-3.9,0.1
					l-20-11.6C33.3,84.7,33.4,83.4,34.4,82.7z"/>
				<path class="st110" d="M34.4,82.7L55,71c1.2-0.7,2.7-0.8,4-0.1l19.9,11.6c1,0.8,1.2,2.3,0.1,2.9L58.6,97
					c-1.2,0.7-2.7,0.7-3.9,0.1L34.8,85.5C33.3,84.7,33.4,83.4,34.4,82.7z"/>
				<path class="st111" d="M34.5,82.7L55,71c1.2-0.7,2.7-0.8,4-0.1l19.9,11.6c1,0.8,1.2,2.3,0.1,2.9L58.6,97
					c-1.2,0.7-2.7,0.7-3.9,0.1L34.8,85.5C33.4,84.7,33.4,83.4,34.5,82.7z"/>
				<path class="st112" d="M34.5,82.7L55,71c1.2-0.7,2.7-0.7,4-0.1l19.9,11.5c1,0.7,1.2,2.2,0.1,2.9L58.6,96.9
					c-1.2,0.7-2.7,0.7-3.9,0.1L34.8,85.5C33.4,84.7,33.5,83.4,34.5,82.7z"/>
				<path class="st113" d="M34.5,82.7L55,71c1.2-0.7,2.7-0.7,3.9-0.1l19.9,11.5c1,0.7,1.2,2.2,0.1,2.9L58.6,96.9
					c-1.2,0.7-2.6,0.7-3.9,0.1L34.9,85.5C33.4,84.7,33.5,83.4,34.5,82.7z"/>
				<path class="st114" d="M34.6,82.7L55,71c1.2-0.7,2.7-0.7,3.9-0.1l19.8,11.5c1,0.7,1.2,2.2,0.1,2.9L58.6,96.9
					c-1.2,0.7-2.6,0.7-3.9,0.1L34.9,85.5C33.5,84.7,33.5,83.4,34.6,82.7z"/>
				<path class="st115" d="M34.6,82.7L55,71.1c1.2-0.7,2.7-0.7,3.9-0.1l19.8,11.5c1,0.7,1.2,2.2,0.1,2.9L58.6,96.9
					c-1.2,0.7-2.6,0.7-3.9,0.1L34.9,85.5C33.5,84.7,33.6,83.3,34.6,82.7z"/>
				<path class="st116" d="M34.6,82.7L55,71.1c1.2-0.7,2.7-0.7,3.9-0.1l19.8,11.5c1,0.7,1.2,2.2,0.1,2.9L58.6,96.9
					c-1.2,0.7-2.6,0.7-3.9,0.1L35,85.5C33.5,84.7,33.6,83.3,34.6,82.7z"/>
				<path class="st117" d="M34.7,82.7L55,71.1c1.2-0.7,2.7-0.7,3.9-0.1l19.8,11.5c1,0.7,1.2,2.2,0.1,2.9L58.6,96.8
					c-1.2,0.7-2.6,0.7-3.9,0.1L35,85.5C33.6,84.7,33.7,83.3,34.7,82.7z"/>
				<path class="st118" d="M34.7,82.7L55,71.1c1.2-0.7,2.7-0.7,3.9-0.1l19.7,11.4c1,0.7,1.2,2.2,0.1,2.9L58.6,96.8
					c-1.2,0.7-2.6,0.7-3.9,0.1L35,85.5C33.6,84.7,33.7,83.3,34.7,82.7z"/>
				<path class="st119" d="M34.7,82.7L55,71.1c1.2-0.7,2.7-0.7,3.9-0.1l19.7,11.4c1,0.7,1.2,2.2,0.1,2.9L58.6,96.8
					c-1.2,0.7-2.6,0.7-3.8,0.1L35.1,85.5C33.6,84.7,33.7,83.3,34.7,82.7z"/>
				<path class="st120" d="M34.8,82.7L55,71.1c1.2-0.7,2.7-0.7,3.9-0.1l19.7,11.4c1,0.7,1.2,2.2,0.1,2.9L58.6,96.8
					c-1.2,0.7-2.6,0.7-3.8,0.1L35.1,85.5C33.7,84.7,33.8,83.3,34.8,82.7z"/>
				<path class="st121" d="M34.8,82.7L55,71.2c1.2-0.7,2.7-0.7,3.9-0.1l19.6,11.4c1,0.7,1.2,2.2,0.1,2.9L58.6,96.7
					c-1.2,0.7-2.6,0.7-3.8,0.1L35.1,85.5C33.7,84.7,33.8,83.3,34.8,82.7z"/>
				<path class="st122" d="M34.8,82.7L55,71.2c1.2-0.7,2.7-0.7,3.9-0.1l19.6,11.4c1,0.7,1.2,2.2,0.1,2.9l-20,11.4
					c-1.2,0.7-2.6,0.7-3.8,0.1L35.2,85.5C33.7,84.6,33.8,83.3,34.8,82.7z"/>
				<path class="st123" d="M34.9,82.7l20.2-11.5c1.2-0.7,2.7-0.7,3.9-0.1l19.6,11.4c1,0.7,1.2,2.2,0.1,2.9l-20,11.4
					c-1.2,0.7-2.6,0.7-3.8,0.1L35.2,85.5C33.8,84.6,33.9,83.3,34.9,82.7z"/>
				<path class="st124" d="M34.9,82.7l20.2-11.5c1.2-0.7,2.7-0.7,3.9-0.1l19.6,11.4c1,0.7,1.2,2.2,0.1,2.9l-20,11.4
					c-1.2,0.7-2.6,0.7-3.8,0.1L35.2,85.5C33.8,84.6,33.9,83.3,34.9,82.7z"/>
				<path class="st125" d="M34.9,82.7l20.1-11.4c1.2-0.7,2.6-0.7,3.9-0.1l19.5,11.3c1,0.7,1.2,2.2,0.1,2.9l-20,11.4
					c-1.2,0.7-2.6,0.7-3.8,0.1L35.3,85.5C33.9,84.6,33.9,83.3,34.9,82.7z"/>
				<path class="st126" d="M35,82.7l20.1-11.4c1.2-0.7,2.6-0.7,3.9-0.1l19.5,11.3c1,0.7,1.2,2.2,0.1,2.9L58.6,96.6
					c-1.2,0.7-2.6,0.7-3.8,0.1L35.3,85.5C33.9,84.6,34,83.3,35,82.7z"/>
				<path class="st127" d="M35,82.7l20.1-11.4c1.2-0.7,2.6-0.7,3.9-0.1l19.5,11.3c1,0.7,1.2,2.2,0.1,2.8L58.6,96.6
					c-1.2,0.7-2.6,0.7-3.8,0.1L35.3,85.5C33.9,84.6,34,83.3,35,82.7z"/>
				<path class="st128" d="M35,82.7l20-11.4c1.2-0.7,2.6-0.7,3.9-0.1l19.5,11.3c1,0.7,1.2,2.2,0.1,2.8L58.6,96.6
					c-1.2,0.7-2.6,0.7-3.8,0.1L35.4,85.5C34,84.6,34,83.3,35,82.7z"/>
				<path class="st129" d="M35.1,82.7l20-11.4c1.2-0.7,2.6-0.7,3.9-0.1l19.4,11.3c1,0.7,1.2,2.2,0.1,2.8L58.6,96.6
					c-1.2,0.7-2.6,0.7-3.8,0.1L35.4,85.5C34,84.6,34.1,83.3,35.1,82.7z"/>
				<path class="st130" d="M35.1,82.7l20-11.4c1.2-0.7,2.6-0.7,3.9-0.1l19.4,11.3c1,0.7,1.2,2.2,0.1,2.8L58.6,96.6
					c-1.2,0.7-2.6,0.7-3.8,0.1L35.4,85.4C34,84.6,34.1,83.3,35.1,82.7z"/>
				<path class="st131" d="M35.1,82.7l20-11.4c1.2-0.7,2.6-0.7,3.8-0.1l19.4,11.2c1,0.7,1.2,2.2,0.1,2.8L58.6,96.5
					c-1.2,0.7-2.6,0.7-3.8,0.1L35.5,85.4C34.1,84.6,34.2,83.3,35.1,82.7z"/>
				<path class="st132" d="M35.2,82.7l19.9-11.3c1.2-0.7,2.6-0.7,3.8-0.1l19.3,11.2c1,0.7,1.2,2.2,0.1,2.8L58.6,96.5
					c-1.2,0.7-2.6,0.7-3.8,0.1L35.5,85.4C34.1,84.6,34.2,83.3,35.2,82.7z"/>
				<path class="st133" d="M35.2,82.7l19.9-11.3c1.2-0.7,2.6-0.7,3.8-0.1l19.3,11.2c1,0.7,1.2,2.2,0.1,2.8L58.6,96.5
					c-1.2,0.7-2.6,0.7-3.8,0.1L35.5,85.4C34.1,84.6,34.2,83.3,35.2,82.7z"/>
				<path class="st134" d="M35.2,82.7l19.9-11.3c1.2-0.7,2.6-0.7,3.8-0.1l19.3,11.2c1,0.7,1.2,2.2,0.1,2.8L58.6,96.5
					c-1.2,0.7-2.6,0.7-3.8,0.1L35.6,85.4C34.2,84.6,34.3,83.3,35.2,82.7z"/>
				<path class="st135" d="M35.3,82.7l19.8-11.3c1.2-0.7,2.6-0.7,3.8-0.1l19.3,11.2c1,0.7,1.2,2.2,0.1,2.8L58.6,96.5
					c-1.2,0.7-2.6,0.7-3.8,0.1L35.6,85.4C34.2,84.6,34.3,83.3,35.3,82.7z"/>
				<path class="st136" d="M35.3,82.6l19.8-11.3c1.2-0.7,2.6-0.7,3.8-0.1l19.2,11.2c1,0.7,1.2,2.2,0.1,2.8L58.6,96.4
					c-1.2,0.7-2.6,0.7-3.8,0.1L35.6,85.4C34.2,84.6,34.3,83.3,35.3,82.6z"/>
				<path class="st137" d="M35.3,82.6l19.8-11.3c1.2-0.7,2.6-0.7,3.8-0.1l19.2,11.1c1,0.7,1.2,2.2,0.1,2.8L58.6,96.4
					c-1.2,0.7-2.6,0.7-3.8,0.1L35.7,85.4C34.3,84.6,34.4,83.3,35.3,82.6z"/>
				<path class="st138" d="M35.4,82.6l19.7-11.2c1.2-0.7,2.6-0.7,3.8-0.1l19.2,11.1c1,0.7,1.2,2.2,0.1,2.8L58.6,96.4
					c-1.1,0.7-2.6,0.7-3.7,0.1L35.7,85.4C34.3,84.6,34.4,83.3,35.4,82.6z"/>
				<path class="st139" d="M35.4,82.6l19.7-11.2c1.2-0.7,2.6-0.7,3.8-0.1l19.2,11.1c1,0.7,1.2,2.2,0.1,2.8L58.6,96.4
					c-1.1,0.7-2.6,0.7-3.7,0.1L35.7,85.4C34.4,84.6,34.4,83.3,35.4,82.6z"/>
				<path class="st140" d="M35.4,82.6l19.7-11.2c1.2-0.7,2.6-0.7,3.8-0.1l19.1,11.1c1,0.7,1.2,2.2,0.1,2.8L58.6,96.4
					c-1.1,0.7-2.6,0.7-3.7,0.1L35.8,85.4C34.4,84.6,34.5,83.3,35.4,82.6z"/>
				<path class="st141" d="M35.5,82.6l19.7-11.2c1.2-0.7,2.6-0.7,3.8-0.1L78,82.4c1,0.7,1.2,2.2,0.1,2.8L58.6,96.3
					c-1.1,0.7-2.5,0.7-3.7,0.1L35.8,85.4C34.4,84.6,34.5,83.3,35.5,82.6z"/>
				<path class="st142" d="M35.5,82.6l19.6-11.2c1.2-0.7,2.6-0.7,3.8-0.1L78,82.4c1,0.7,1.2,2.2,0.1,2.8L58.6,96.3
					c-1.1,0.7-2.5,0.7-3.7,0.1l-19.1-11C34.5,84.6,34.5,83.3,35.5,82.6z"/>
				<path class="st143" d="M35.6,82.6l19.6-11.2c1.2-0.7,2.6-0.7,3.8-0.1l19,11.1c1,0.7,1.2,2.2,0.1,2.8L58.6,96.3
					c-1.1,0.7-2.5,0.7-3.7,0.1l-19-11C34.5,84.6,34.6,83.3,35.6,82.6z"/>
				<path class="st144" d="M35.6,82.6l19.6-11.1c1.2-0.7,2.6-0.7,3.8-0.1l19,11c1,0.7,1.2,2.1,0.1,2.8L58.6,96.3
					c-1.1,0.7-2.5,0.7-3.7,0.1l-19-11C34.5,84.6,34.6,83.3,35.6,82.6z"/>
				<path class="st145" d="M35.6,82.6l19.5-11.1c1.2-0.7,2.6-0.7,3.8-0.1l19,11c1,0.7,1.2,2.1,0.1,2.8L58.6,96.3
					c-1.1,0.7-2.5,0.7-3.7,0.1l-19-11C34.6,84.6,34.6,83.3,35.6,82.6z"/>
				<path class="st146" d="M35.7,82.6l19.5-11.1c1.2-0.7,2.6-0.7,3.8-0.1l19,11c1,0.7,1.2,2.1,0.1,2.8l-19.3,11
					c-1.1,0.7-2.5,0.7-3.7,0.1l-19-11C34.6,84.6,34.7,83.3,35.7,82.6z"/>
				<path class="st147" d="M35.7,82.6l19.5-11.1c1.2-0.7,2.6-0.7,3.8-0.1l18.9,11c1,0.7,1.2,2.1,0.1,2.8l-19.3,11
					c-1.1,0.7-2.5,0.7-3.7,0.1L36,85.4C34.6,84.6,34.7,83.3,35.7,82.6z"/>
				<path class="st148" d="M35.7,82.6l19.5-11.1c1.2-0.7,2.6-0.7,3.8-0.1l18.9,11c1,0.7,1.2,2.1,0.1,2.8l-19.3,11
					c-1.1,0.7-2.5,0.7-3.7,0.1L36,85.4C34.7,84.5,34.8,83.3,35.7,82.6z"/>
				<path class="st149" d="M35.8,82.6l19.4-11.1c1.2-0.7,2.6-0.7,3.8-0.1l18.9,11c1,0.7,1.2,2.1,0.1,2.8l-19.3,11
					c-1.1,0.7-2.5,0.7-3.7,0.1L36.1,85.4C34.7,84.5,34.8,83.3,35.8,82.6z"/>
				<path class="st150" d="M35.8,82.6l19.4-11c1.1-0.7,2.6-0.7,3.7-0.1l18.9,10.9c1,0.7,1.2,2.1,0.1,2.8l-19.2,11
					c-1.1,0.7-2.5,0.7-3.7,0.1L36.1,85.3C34.8,84.5,34.8,83.3,35.8,82.6z"/>
				<path class="st151" d="M35.8,82.6l19.4-11c1.1-0.7,2.6-0.7,3.7-0.1l18.8,10.9c1,0.7,1.2,2.1,0.1,2.8l-19.2,11
					c-1.1,0.7-2.5,0.7-3.7,0.1L36.1,85.3C34.8,84.5,34.9,83.3,35.8,82.6z"/>
				<path class="st152" d="M35.9,82.6l19.3-11c1.1-0.7,2.6-0.7,3.7-0.1l18.8,10.9c1,0.7,1.2,2.1,0.1,2.7L58.6,96.1
					c-1.1,0.7-2.5,0.7-3.7,0.1L36.2,85.3C34.8,84.5,34.9,83.3,35.9,82.6z"/>
				<path class="st153" d="M35.9,82.6l19.3-11c1.1-0.7,2.5-0.7,3.7-0.1l18.8,10.9c1,0.7,1.2,2.1,0.1,2.7L58.6,96.1
					c-1.1,0.7-2.5,0.7-3.7,0.1L36.2,85.3C34.9,84.5,34.9,83.3,35.9,82.6z"/>
				<path class="st154" d="M35.9,82.6l19.3-11c1.1-0.7,2.5-0.7,3.7-0.1l18.7,10.9c1,0.7,1.2,2.1,0.1,2.7L58.6,96.1
					c-1.1,0.7-2.5,0.7-3.7,0.1L36.2,85.3C34.9,84.5,35,83.3,35.9,82.6z"/>
				<path class="st155" d="M36,82.6l19.2-11c1.1-0.7,2.5-0.7,3.7-0.1l18.7,10.9c1,0.7,1.2,2.1,0.1,2.7L58.6,96
					c-1.1,0.7-2.5,0.7-3.7,0.1L36.3,85.3C34.9,84.5,35,83.3,36,82.6z"/>
				<path class="st156" d="M36,82.6l19.2-10.9c1.1-0.7,2.5-0.7,3.7-0.1l18.7,10.8c1,0.7,1.2,2.1,0.1,2.7L58.6,96
					c-1.1,0.7-2.5,0.7-3.7,0.1L36.3,85.3C35,84.5,35,83.3,36,82.6z"/>
				<path class="st157" d="M36,82.6l19.2-10.9c1.1-0.7,2.5-0.7,3.7-0.1l18.7,10.8c1,0.7,1.2,2.1,0.1,2.7L58.6,96
					c-1.1,0.7-2.5,0.7-3.6,0.1L36.3,85.3C35,84.5,35.1,83.3,36,82.6z"/>
				<path class="st158" d="M36.1,82.6l19.2-10.9c1.1-0.7,2.5-0.7,3.7-0.1l18.6,10.8c1,0.7,1.1,2.1,0.1,2.7L58.6,96
					c-1.1,0.6-2.5,0.7-3.6,0.1L36.4,85.3C35,84.5,35.1,83.3,36.1,82.6z"/>
				<path class="st159" d="M36.1,82.6l19.1-10.9c1.1-0.7,2.5-0.7,3.7-0.1l18.6,10.8c1,0.7,1.1,2.1,0.1,2.7L58.7,96
					c-1.1,0.6-2.5,0.7-3.6,0.1L36.4,85.3C35.1,84.5,35.1,83.3,36.1,82.6z"/>
				<path class="st160" d="M36.1,82.6l19.1-10.9c1.1-0.7,2.5-0.7,3.7-0.1l18.6,10.8c1,0.7,1.1,2.1,0.1,2.7L58.7,95.9
					c-1.1,0.6-2.5,0.7-3.6,0.1L36.4,85.3C35.1,84.5,35.2,83.3,36.1,82.6z"/>
				<path class="st161" d="M36.2,82.6l19.1-10.9c1.1-0.7,2.5-0.7,3.7-0.1l18.6,10.8c1,0.7,1.1,2.1,0.1,2.7L58.7,95.9
					c-1.1,0.6-2.5,0.7-3.6,0.1L36.5,85.3C35.1,84.5,35.2,83.3,36.2,82.6z"/>
				<path class="st162" d="M36.2,82.6l19-10.8c1.1-0.7,2.5-0.7,3.7-0.1l18.5,10.8c1,0.7,1.1,2.1,0.1,2.7L58.7,95.9
					c-1.1,0.6-2.5,0.7-3.6,0.1L36.5,85.3C35.2,84.5,35.3,83.3,36.2,82.6z"/>
				<path class="st163" d="M36.2,82.6l19-10.8c1.1-0.7,2.5-0.7,3.7-0.1l18.5,10.7c1,0.7,1.1,2.1,0.1,2.7L58.7,95.9
					c-1.1,0.6-2.5,0.7-3.6,0.1L36.5,85.3C35.2,84.5,35.3,83.3,36.2,82.6z"/>
				<path class="st164" d="M36.3,82.6l19-10.8c1.1-0.7,2.5-0.7,3.7-0.1l18.5,10.7c1,0.7,1.1,2.1,0.1,2.7L58.7,95.9
					c-1.1,0.6-2.5,0.7-3.6,0.1L36.6,85.3C35.3,84.5,35.3,83.2,36.3,82.6z"/>
				<path class="st165" d="M36.3,82.6l19-10.8c1.1-0.7,2.5-0.7,3.7-0.1l18.4,10.7c1,0.7,1.1,2.1,0.1,2.7L58.7,95.8
					c-1.1,0.6-2.5,0.7-3.6,0.1L36.6,85.3C35.3,84.5,35.4,83.2,36.3,82.6z"/>
				<path class="st166" d="M36.3,82.6l18.9-10.8c1.1-0.7,2.5-0.7,3.7-0.1l18.4,10.7c1,0.7,1.1,2.1,0.1,2.7L58.7,95.8
					c-1.1,0.6-2.5,0.7-3.6,0.1L36.6,85.3C35.3,84.5,35.4,83.2,36.3,82.6z"/>
				<path class="st167" d="M36.4,82.6l18.9-10.8c1.1-0.7,2.5-0.7,3.7-0.1l18.4,10.7c1,0.7,1.1,2.1,0.1,2.7L58.7,95.8
					c-1.1,0.6-2.5,0.7-3.6,0.1L36.7,85.3C35.4,84.5,35.4,83.2,36.4,82.6z"/>
				<path class="st168" d="M36.4,82.6l18.9-10.7c1.1-0.7,2.5-0.7,3.6-0.1l18.4,10.7c0.9,0.7,1.1,2.1,0.1,2.7L58.7,95.8
					c-1.1,0.6-2.4,0.7-3.6,0.1L36.7,85.3C35.4,84.5,35.5,83.2,36.4,82.6z"/>
				<path class="st169" d="M36.4,82.6l18.8-10.7c1.1-0.6,2.5-0.7,3.6-0.1l18.3,10.6c0.9,0.7,1.1,2.1,0.1,2.7L58.7,95.8
					c-1.1,0.6-2.4,0.7-3.6,0.1L36.7,85.2C35.4,84.5,35.5,83.2,36.4,82.6z"/>
				<path class="st170" d="M36.5,82.6l18.8-10.7c1.1-0.6,2.5-0.7,3.6-0.1l18.3,10.6c0.9,0.7,1.1,2.1,0.1,2.7L58.7,95.7
					c-1.1,0.6-2.4,0.7-3.6,0.1L36.8,85.2C35.5,84.5,35.5,83.2,36.5,82.6z"/>
				<path class="st171" d="M36.5,82.6l18.8-10.7c1.1-0.6,2.5-0.7,3.6-0.1l18.3,10.6c0.9,0.7,1.1,2.1,0.1,2.7L58.7,95.7
					c-1.1,0.6-2.4,0.7-3.6,0.1L36.8,85.2C35.5,84.5,35.6,83.2,36.5,82.6z"/>
				<path class="st172" d="M36.5,82.6l18.7-10.7c1.1-0.6,2.5-0.7,3.6-0.1l18.3,10.6c0.9,0.7,1.1,2.1,0.1,2.7L58.7,95.7
					c-1.1,0.6-2.4,0.7-3.6,0.1L36.8,85.2C35.5,84.5,35.6,83.2,36.5,82.6z"/>
				<path class="st173" d="M36.6,82.6l18.7-10.7c1.1-0.6,2.5-0.7,3.6-0.1l18.2,10.6c0.9,0.7,1.1,2.1,0.1,2.7L58.7,95.7
					c-1.1,0.6-2.4,0.7-3.6,0.1L36.9,85.2C35.6,84.5,35.6,83.2,36.6,82.6z"/>
				<path class="st174" d="M36.6,82.6L55.3,72c1.1-0.6,2.5-0.7,3.6-0.1l18.2,10.6c0.9,0.7,1.1,2.1,0.1,2.7L58.7,95.7
					c-1.1,0.6-2.4,0.7-3.6,0.1L36.9,85.2C35.6,84.4,35.7,83.2,36.6,82.6z"/>
				<path class="st175" d="M36.6,82.6L55.3,72c1.1-0.6,2.5-0.7,3.6-0.1l18.2,10.5c0.9,0.7,1.1,2.1,0.1,2.7L58.7,95.6
					c-1.1,0.6-2.4,0.7-3.6,0.1L36.9,85.2C35.6,84.4,35.7,83.2,36.6,82.6z"/>
				<path class="st176" d="M36.7,82.6L55.3,72c1.1-0.6,2.5-0.7,3.6-0.1l18.2,10.5c0.9,0.7,1.1,2.1,0.1,2.7L58.7,95.6
					c-1.1,0.6-2.4,0.7-3.5,0.1L37,85.2C35.7,84.4,35.8,83.2,36.7,82.6z"/>
				<path class="st177" d="M36.7,82.6L55.3,72c1.1-0.6,2.5-0.7,3.6-0.1L77,82.4c0.9,0.7,1.1,2,0.1,2.6L58.7,95.6
					c-1.1,0.6-2.4,0.7-3.5,0.1L37,85.2C35.7,84.4,35.8,83.2,36.7,82.6z"/>
				<path class="st178" d="M36.7,82.6L55.3,72c1.1-0.6,2.5-0.7,3.6-0.1L77,82.4c0.9,0.7,1.1,2,0.1,2.6L58.7,95.6
					c-1.1,0.6-2.4,0.7-3.5,0.1L37,85.2C35.8,84.4,35.8,83.2,36.7,82.6z"/>
				<path class="st179" d="M36.8,82.6L55.3,72c1.1-0.6,2.5-0.7,3.6-0.1L77,82.4c0.9,0.7,1.1,2,0.1,2.6L58.7,95.6
					c-1.1,0.6-2.4,0.7-3.5,0.1L37.1,85.2C35.8,84.4,35.9,83.2,36.8,82.6z"/>
				<path class="st180" d="M36.8,82.6l18.5-10.5c1.1-0.6,2.4-0.7,3.6-0.1l18,10.5c0.9,0.7,1.1,2,0.1,2.6L58.7,95.5
					c-1.1,0.6-2.4,0.7-3.5,0.1l-18-10.5C35.8,84.4,35.9,83.2,36.8,82.6z"/>
				<path class="st181" d="M36.9,82.6l18.5-10.5c1.1-0.6,2.4-0.7,3.6-0.1l18,10.5c0.9,0.7,1.1,2,0.1,2.6L58.7,95.5
					c-1.1,0.6-2.4,0.7-3.5,0.1l-18-10.4C35.9,84.4,35.9,83.2,36.9,82.6z"/>
				<path class="st182" d="M36.9,82.6l18.5-10.5c1.1-0.6,2.4-0.7,3.6-0.1l18,10.4c0.9,0.7,1.1,2,0.1,2.6L58.7,95.5
					c-1.1,0.6-2.4,0.7-3.5,0.1l-18-10.4C35.9,84.4,36,83.2,36.9,82.6z"/>
				<path class="st183" d="M36.9,82.6l18.4-10.5c1.1-0.6,2.4-0.7,3.6-0.1l18,10.4c0.9,0.7,1.1,2,0.1,2.6L58.7,95.5
					c-1.1,0.6-2.4,0.7-3.5,0.1l-18-10.4C35.9,84.4,36,83.2,36.9,82.6z"/>
				<path class="st184" d="M37,82.6l18.4-10.5c1.1-0.6,2.4-0.7,3.6-0.1l17.9,10.4c0.9,0.7,1.1,2,0.1,2.6L58.7,95.5
					c-1.1,0.6-2.4,0.7-3.5,0.1L37.3,85.2C36,84.4,36,83.2,37,82.6z"/>
				<path class="st185" d="M37,82.6l18.4-10.5c1.1-0.6,2.4-0.7,3.6-0.1l17.9,10.4c0.9,0.7,1.1,2,0.1,2.6L58.7,95.4
					c-1.1,0.6-2.4,0.7-3.5,0.1L37.3,85.2C36,84.4,36.1,83.2,37,82.6z"/>
				<path class="st186" d="M37,82.6l18.3-10.5c1.1-0.6,2.4-0.7,3.6-0.1l17.9,10.4c0.9,0.7,1.1,2,0.1,2.6L58.7,95.4
					c-1.1,0.6-2.4,0.7-3.5,0.1L37.3,85.2C36,84.4,36.1,83.2,37,82.6z"/>
				<path class="st187" d="M37.1,82.6l18.3-10.4c1.1-0.6,2.4-0.7,3.5-0.1l17.9,10.4c0.9,0.7,1.1,2,0.1,2.6L58.7,95.4
					c-1.1,0.6-2.4,0.7-3.5,0.1L37.4,85.2C36.1,84.4,36.1,83.2,37.1,82.6z"/>
				<path class="st188" d="M37.1,82.6l18.3-10.4c1.1-0.6,2.4-0.7,3.5-0.1l17.8,10.3c0.9,0.7,1.1,2,0.1,2.6L58.7,95.4
					c-1.1,0.6-2.4,0.7-3.5,0.1L37.4,85.2C36.1,84.4,36.2,83.2,37.1,82.6z"/>
				<path class="st189" d="M37.1,82.6l18.2-10.4c1.1-0.6,2.4-0.7,3.5-0.1l17.8,10.3c0.9,0.7,1.1,2,0.1,2.6L58.7,95.3
					c-1.1,0.6-2.4,0.7-3.5,0.1L37.4,85.1C36.1,84.4,36.2,83.2,37.1,82.6z"/>
				<path class="st190" d="M37.2,82.6l18.2-10.4c1.1-0.6,2.4-0.7,3.5-0.1l17.8,10.3c0.9,0.7,1.1,2,0.1,2.6L58.7,95.3
					c-1.1,0.6-2.4,0.7-3.5,0.1L37.5,85.1C36.2,84.4,36.3,83.2,37.2,82.6z"/>
				<path class="st191" d="M37.2,82.6l18.2-10.4c1.1-0.6,2.4-0.7,3.5-0.1l17.7,10.3c0.9,0.7,1.1,2,0.1,2.6l-18,10.3
					c-1.1,0.6-2.4,0.7-3.5,0.1L37.5,85.1C36.2,84.4,36.3,83.2,37.2,82.6z"/>
				<path class="st192" d="M37.2,82.6l18.2-10.4c1.1-0.6,2.4-0.7,3.5-0.1l17.7,10.3c0.9,0.7,1.1,2,0.1,2.6l-18,10.3
					c-1.1,0.6-2.4,0.7-3.5,0.1L37.5,85.1C36.3,84.4,36.3,83.2,37.2,82.6z"/>
				<path class="st193" d="M37.3,82.6l18.1-10.3c1.1-0.6,2.4-0.7,3.5-0.1l17.7,10.3c0.9,0.7,1.1,2,0.1,2.6l-18,10.3
					c-1.1,0.6-2.4,0.7-3.5,0.1L37.6,85.1C36.3,84.4,36.4,83.2,37.3,82.6z"/>
				<path class="st194" d="M37.3,82.6l18.1-10.3c1.1-0.6,2.4-0.7,3.5-0.1l17.7,10.2c0.9,0.7,1.1,2,0.1,2.6l-18,10.3
					c-1.1,0.6-2.4,0.7-3.4,0.1L37.6,85.1C36.3,84.4,36.4,83.2,37.3,82.6z"/>
				<path class="st195" d="M37.3,82.6l18.1-10.3c1.1-0.6,2.4-0.7,3.5-0.1l17.6,10.2c0.9,0.7,1.1,2,0.1,2.6L58.7,95.2
					c-1.1,0.6-2.4,0.7-3.4,0.1L37.6,85.1C36.4,84.4,36.4,83.2,37.3,82.6z"/>
				<path class="st196" d="M37.4,82.6l18-10.3c1.1-0.6,2.4-0.7,3.5-0.1l17.6,10.2c0.9,0.7,1.1,2,0.1,2.6L58.7,95.2
					c-1.1,0.6-2.3,0.7-3.4,0.1L37.7,85.1C36.4,84.4,36.5,83.2,37.4,82.6z"/>
				<path id="XMLID_34_" class="st197" d="M37.4,82.6l18-10.3c1.1-0.6,2.4-0.7,3.5-0.1l17.6,10.2c0.9,0.7,1.1,2,0.1,2.6L58.7,95.2
					c-1.1,0.6-2.3,0.7-3.4,0.1L37.7,85.1C36.4,84.4,36.5,83.2,37.4,82.6z"/>
			</g>
			<g id="XMLID_264_">
				<linearGradient id="XMLID_36_" gradientUnits="userSpaceOnUse" x1="58.0734" y1="83.1883" x2="55.5549" y2="83.1883">
					<stop  offset="0" style="stop-color:#C3ACFF"/>
					<stop  offset="1" style="stop-color:#DCCFFF"/>
				</linearGradient>
				<path id="XMLID_3215_" class="st198" d="M76.8,80.2c0,0-1.3-0.1-1.1,1.4l-16.9-9.8c-1.1-0.6-2.4-0.5-3.5,0.1l-15.1,8.6
					c-1.5-0.7-2.8-0.9-3.5,0.1c-1.1,1.8-0.4,2.8,0.3,3.4c0.1,0.2,0.3,0.3,0.6,0.4c0,0,0,0,0,0l17.6,10.2c1.1,0.5,2.4,0.5,3.4-0.1
					l17.9-10.2C76.5,84.3,79.1,82.7,76.8,80.2z"/>
				<defs>
					<filter id="Adobe_OpacityMaskFilter_2_" filterUnits="userSpaceOnUse" x="36.2" y="71.4" width="41.6" height="23.6">
						<feFlood  style="flood-color:white;flood-opacity:1" result="back"/>
						<feBlend  in="SourceGraphic" in2="back" mode="normal"/>
					</filter>
				</defs>
				<mask maskUnits="userSpaceOnUse" x="36.2" y="71.4" width="41.6" height="23.6" id="XMLID_37_">
					<g id="XMLID_32_" class="st199">
						<defs>
							<filter id="Adobe_OpacityMaskFilter_3_" filterUnits="userSpaceOnUse" x="28.1" y="54.2" width="71.4" height="40.8">
								<feFlood  style="flood-color:white;flood-opacity:1" result="back"/>
								<feBlend  in="SourceGraphic" in2="back" mode="normal"/>
							</filter>
						</defs>
						<mask maskUnits="userSpaceOnUse" x="28.1" y="54.2" width="71.4" height="40.8" id="XMLID_37_">
						</mask>
						<linearGradient id="XMLID_38_" gradientUnits="userSpaceOnUse" x1="71.3891" y1="87.1227" x2="70.4952" y2="85.5453">
							<stop  offset="0" style="stop-color:#FFFFFF"/>
							<stop  offset="1" style="stop-color:#000000"/>
						</linearGradient>
						<path id="XMLID_33_" class="st201" d="M98.4,67.7c-1.4-1.4-1.4-0.1-1.1,1.4l-25-14.5c-1.1-0.6-2.4-0.5-3.5,0.1L32.1,75.8
							c-1.5-0.7-2.8-0.9-3.5,0.1c-1.1,1.8-0.4,2.8,0.3,3.4c0.1,0.2,0.3,0.3,0.6,0.4c0,0,0,0,0,0l25.6,14.9c1.1,0.5,2.4,0.5,3.4-0.1
							L98,71.8C98,71.8,101,70.4,98.4,67.7z"/>
					</g>
				</mask>
				<linearGradient id="XMLID_39_" gradientUnits="userSpaceOnUse" x1="62.5749" y1="92.1575" x2="61.9119" y2="90.9875">
					<stop  offset="0" style="stop-color:#3300BF"/>
					<stop  offset="1" style="stop-color:#C0ABFF"/>
				</linearGradient>
				<path id="XMLID_3209_" class="st202" d="M76.8,80.2c0,0-1.3-0.1-1.1,1.4l-16.9-9.8c-1.1-0.6-2.4-0.5-3.5,0.1l-15.1,8.6
					c-1.5-0.7-2.8-0.9-3.5,0.1c-1.1,1.8-0.4,2.8,0.3,3.4c0.1,0.2,0.3,0.3,0.6,0.4c0,0,0,0,0,0l17.6,10.2c1.1,0.5,2.4,0.5,3.4-0.1
					l17.9-10.2C76.5,84.3,79.1,82.8,76.8,80.2z"/>
				<defs>
					<filter id="Adobe_OpacityMaskFilter_4_" filterUnits="userSpaceOnUse" x="36.2" y="71.4" width="41.5" height="23.6">
						<feFlood  style="flood-color:white;flood-opacity:1" result="back"/>
						<feBlend  in="SourceGraphic" in2="back" mode="normal"/>
					</filter>
				</defs>
				<mask maskUnits="userSpaceOnUse" x="36.2" y="71.4" width="41.5" height="23.6" id="XMLID_40_">
					<g id="XMLID_317_" class="st203">
						<defs>
							<filter id="Adobe_OpacityMaskFilter_5_" filterUnits="userSpaceOnUse" x="28.1" y="54.2" width="71.4" height="40.8">
								<feFlood  style="flood-color:white;flood-opacity:1" result="back"/>
								<feBlend  in="SourceGraphic" in2="back" mode="normal"/>
							</filter>
						</defs>
						<mask maskUnits="userSpaceOnUse" x="28.1" y="54.2" width="71.4" height="40.8" id="XMLID_40_">
						</mask>
						<linearGradient id="XMLID_41_" gradientUnits="userSpaceOnUse" x1="52.3392" y1="93.2427" x2="53.4308" y2="91.3652">
							<stop  offset="0" style="stop-color:#FFFFFF"/>
							<stop  offset="1" style="stop-color:#000000"/>
						</linearGradient>
						<path id="XMLID_318_" class="st205" d="M98.4,67.7c-1.4-1.4-1.4-0.1-1.1,1.4l-25-14.5c-1.1-0.6-2.4-0.5-3.5,0.1L32.1,75.8
							c-1.5-0.7-2.8-0.9-3.5,0.1c-1.1,1.8-0.4,2.8,0.3,3.4c0.1,0.2,0.3,0.3,0.6,0.4c0,0,0,0,0,0l25.6,14.9c1.1,0.5,2.4,0.5,3.4-0.1
							L98,71.8C98,71.8,101,70.4,98.4,67.7z"/>
					</g>
				</mask>
				<linearGradient id="XMLID_42_" gradientUnits="userSpaceOnUse" x1="51.0287" y1="92.3554" x2="51.5928" y2="91.3851">
					<stop  offset="0" style="stop-color:#3300BF"/>
					<stop  offset="1" style="stop-color:#C0ABFF"/>
				</linearGradient>
				<path id="XMLID_3212_" class="st206" d="M76.8,80.2c0,0-1.3-0.1-1.1,1.4l-16.9-9.8c-1.1-0.6-2.4-0.5-3.5,0.1l-15.1,8.6
					c-1.5-0.7-2.8-0.9-3.5,0.1c-1.1,1.8-0.4,2.8,0.3,3.4c0.1,0.2,0.3,0.3,0.6,0.4c0,0,0,0,0,0l17.6,10.2c1.1,0.5,2.4,0.5,3.4-0.1
					l17.9-10.2C76.5,84.3,79,82.8,76.8,80.2z"/>
				
					<linearGradient id="XMLID_43_" gradientUnits="userSpaceOnUse" x1="110.5632" y1="127.085" x2="55.9199" y2="76.9773" gradientTransform="matrix(0.9999 1.420000e-02 -1.420000e-02 0.9999 0.9813 2.3365)">
					<stop  offset="0" style="stop-color:#9C74FF"/>
					<stop  offset="1" style="stop-color:#FFF6FF"/>
				</linearGradient>
				<path id="XMLID_3222_" class="st207" d="M37.3,80l18-10.3c1.1-0.6,2.4-0.7,3.5-0.1l17.6,10.2c0.9,0.7,1.1,2,0.1,2.6L58.6,92.6
					c-1.1,0.6-2.3,0.7-3.4,0.1L37.6,82.5C36.3,81.8,36.4,80.6,37.3,80z"/>
			</g>
			<linearGradient id="XMLID_44_" gradientUnits="userSpaceOnUse" x1="41.8959" y1="84.5514" x2="132.0778" y2="63.8983">
				<stop  offset="0" style="stop-color:#0E9CFF"/>
				<stop  offset="1" style="stop-color:#FFF6FF"/>
			</linearGradient>
			<path id="XMLID_315_" class="st208" d="M38.7,80.1l16.9-9.6c0.9-0.5,2-0.6,2.9-0.1L75,80c0.8,0.6,0.9,1.7,0.1,2.1l-16.7,9.6
				c-0.9,0.5-2,0.5-2.9,0.1L39,82.2C37.9,81.6,38,80.6,38.7,80.1z"/>
		</g>
	</g>
	<g id="_x35_">
		<g id="XMLID_279_" class="st209">
			<g id="XMLID_310_">
				
					<linearGradient id="XMLID_45_" gradientUnits="userSpaceOnUse" x1="1963.1616" y1="67.6956" x2="1963.1616" y2="58.1643" gradientTransform="matrix(-1.0015 0 0 1 1999.6074 0)">
					<stop  offset="0" style="stop-color:#4FA4FF"/>
					<stop  offset="1" style="stop-color:#1339E2"/>
				</linearGradient>
				<polygon id="XMLID_320_" class="st210" points="41.7,62.9 33.5,67.7 25.3,62.9 33.5,58.2 				"/>
				
					<linearGradient id="XMLID_46_" gradientUnits="userSpaceOnUse" x1="1963.1616" y1="66.1623" x2="1963.1616" y2="56.631" gradientTransform="matrix(-1.0015 0 0 1 1999.6074 0)">
					<stop  offset="0" style="stop-color:#4F81FF"/>
					<stop  offset="1" style="stop-color:#1339E2"/>
				</linearGradient>
				<polygon id="XMLID_319_" class="st211" points="41.7,61.4 33.5,66.2 25.3,61.4 33.5,56.6 				"/>
				
					<linearGradient id="XMLID_47_" gradientUnits="userSpaceOnUse" x1="1963.995" y1="55.5554" x2="1953.6764" y2="61.6886" gradientTransform="matrix(-1.0015 0 0 1 1999.6074 0)">
					<stop  offset="0" style="stop-color:#4F24FF"/>
					<stop  offset="1" style="stop-color:#00FFE2"/>
				</linearGradient>
				<polygon id="XMLID_314_" class="st212" points="41.7,61.4 33.5,45.9 33.5,66.2 				"/>
				
					<linearGradient id="XMLID_48_" gradientUnits="userSpaceOnUse" x1="1972.3153" y1="65.0038" x2="1962.8669" y2="55.7626" gradientTransform="matrix(-1.0015 0 0 1 1999.6074 0)">
					<stop  offset="0" style="stop-color:#4F24FF"/>
					<stop  offset="1" style="stop-color:#00FFE2"/>
				</linearGradient>
				<polygon id="XMLID_313_" class="st213" points="25.3,61.4 33.5,45.9 33.5,66.2 				"/>
				
					<linearGradient id="XMLID_49_" gradientUnits="userSpaceOnUse" x1="1964.7841" y1="72.9037" x2="1955.6672" y2="65.5274" gradientTransform="matrix(-1.0015 0 0 1 1999.6074 0)">
					<stop  offset="0" style="stop-color:#4F24FF"/>
					<stop  offset="1" style="stop-color:#00FFE2"/>
				</linearGradient>
				<polygon id="XMLID_312_" class="st214" points="41.7,62.9 33.5,75.5 33.5,67.7 				"/>
				
					<linearGradient id="XMLID_50_" gradientUnits="userSpaceOnUse" x1="1970.2008" y1="71.9172" x2="1964.7722" y2="66.9444" gradientTransform="matrix(-1.0015 0 0 1 1999.6074 0)">
					<stop  offset="0" style="stop-color:#4F24FF"/>
					<stop  offset="1" style="stop-color:#00FFE2"/>
				</linearGradient>
				<polygon id="XMLID_311_" class="st215" points="25.3,62.9 33.5,75.5 33.5,67.7 				"/>
			</g>
			<g id="XMLID_280_">
				
					<linearGradient id="XMLID_51_" gradientUnits="userSpaceOnUse" x1="1963.1616" y1="67.6692" x2="1963.1616" y2="58.1378" gradientTransform="matrix(-1.0015 0 0 1 1999.6074 0)">
					<stop  offset="0" style="stop-color:#4FA4FF"/>
					<stop  offset="1" style="stop-color:#1339E2"/>
				</linearGradient>
				<polygon id="XMLID_309_" class="st216" points="41.7,62.9 33.5,67.7 25.3,62.9 33.5,58.1 				"/>
				
					<linearGradient id="XMLID_52_" gradientUnits="userSpaceOnUse" x1="1963.1616" y1="66.1358" x2="1963.1616" y2="56.6046" gradientTransform="matrix(-1.0015 0 0 1 1999.6074 0)">
					<stop  offset="0" style="stop-color:#4F81FF"/>
					<stop  offset="1" style="stop-color:#1339E2"/>
				</linearGradient>
				<polygon id="XMLID_308_" class="st217" points="41.7,61.4 33.5,66.1 25.3,61.4 33.5,56.6 				"/>
				
					<linearGradient id="XMLID_53_" gradientUnits="userSpaceOnUse" x1="1963.995" y1="55.529" x2="1953.6764" y2="61.6622" gradientTransform="matrix(-1.0015 0 0 1 1999.6074 0)">
					<stop  offset="0" style="stop-color:#4F24FF"/>
					<stop  offset="1" style="stop-color:#00FFE2"/>
				</linearGradient>
				<polygon id="XMLID_307_" class="st218" points="41.7,61.4 33.5,45.9 33.5,66.1 				"/>
				
					<linearGradient id="XMLID_54_" gradientUnits="userSpaceOnUse" x1="1972.3153" y1="64.9774" x2="1962.8669" y2="55.7362" gradientTransform="matrix(-1.0015 0 0 1 1999.6074 0)">
					<stop  offset="0" style="stop-color:#4F24FF"/>
					<stop  offset="1" style="stop-color:#00FFE2"/>
				</linearGradient>
				<polygon id="XMLID_301_" class="st219" points="25.3,61.4 33.5,45.9 33.5,66.1 				"/>
				
					<linearGradient id="XMLID_55_" gradientUnits="userSpaceOnUse" x1="1964.7841" y1="72.8773" x2="1955.6672" y2="65.5009" gradientTransform="matrix(-1.0015 0 0 1 1999.6074 0)">
					<stop  offset="0" style="stop-color:#4F24FF"/>
					<stop  offset="1" style="stop-color:#00FFE2"/>
				</linearGradient>
				<polygon id="XMLID_300_" class="st220" points="41.7,62.9 33.5,75.5 33.5,67.7 				"/>
				
					<linearGradient id="XMLID_56_" gradientUnits="userSpaceOnUse" x1="1970.2008" y1="71.8908" x2="1964.7722" y2="66.918" gradientTransform="matrix(-1.0015 0 0 1 1999.6074 0)">
					<stop  offset="0" style="stop-color:#4F24FF"/>
					<stop  offset="1" style="stop-color:#00FFE2"/>
				</linearGradient>
				<polygon id="XMLID_281_" class="st221" points="25.3,62.9 33.5,75.5 33.5,67.7 				"/>
			</g>
		</g>
		<g id="XMLID_346_">
			<g id="XMLID_354_">
				
					<linearGradient id="XMLID_57_" gradientUnits="userSpaceOnUse" x1="1959.0225" y1="70.7865" x2="1959.0225" y2="61.2552" gradientTransform="matrix(-1.0015 0 0 1 1999.6074 0)">
					<stop  offset="0" style="stop-color:#4FA4FF"/>
					<stop  offset="1" style="stop-color:#1339E2"/>
				</linearGradient>
				<polygon id="XMLID_360_" class="st222" points="45.8,66 37.6,70.8 29.5,66 37.6,61.3 				"/>
				
					<linearGradient id="XMLID_58_" gradientUnits="userSpaceOnUse" x1="1959.0225" y1="69.2532" x2="1959.0225" y2="59.7219" gradientTransform="matrix(-1.0015 0 0 1 1999.6074 0)">
					<stop  offset="0" style="stop-color:#4F81FF"/>
					<stop  offset="1" style="stop-color:#1339E2"/>
				</linearGradient>
				<polygon id="XMLID_359_" class="st223" points="45.8,64.5 37.6,69.3 29.5,64.5 37.6,59.7 				"/>
				
					<linearGradient id="XMLID_59_" gradientUnits="userSpaceOnUse" x1="1959.8558" y1="58.6463" x2="1949.5372" y2="64.7795" gradientTransform="matrix(-1.0015 0 0 1 1999.6074 0)">
					<stop  offset="0" style="stop-color:#4F24FF"/>
					<stop  offset="1" style="stop-color:#00FFE2"/>
				</linearGradient>
				<polygon id="XMLID_358_" class="st224" points="45.8,64.5 37.6,49 37.6,69.3 				"/>
				
					<linearGradient id="XMLID_60_" gradientUnits="userSpaceOnUse" x1="1968.1761" y1="68.0947" x2="1958.7278" y2="58.8535" gradientTransform="matrix(-1.0015 0 0 1 1999.6074 0)">
					<stop  offset="0" style="stop-color:#4F24FF"/>
					<stop  offset="1" style="stop-color:#00FFE2"/>
				</linearGradient>
				<polygon id="XMLID_357_" class="st225" points="29.5,64.5 37.6,49 37.6,69.3 				"/>
				
					<linearGradient id="XMLID_64_" gradientUnits="userSpaceOnUse" x1="1960.6449" y1="75.9946" x2="1951.5281" y2="68.6182" gradientTransform="matrix(-1.0015 0 0 1 1999.6074 0)">
					<stop  offset="0" style="stop-color:#4F24FF"/>
					<stop  offset="1" style="stop-color:#00FFE2"/>
				</linearGradient>
				<polygon id="XMLID_356_" class="st226" points="45.8,66 37.6,78.6 37.6,70.8 				"/>
				
					<linearGradient id="XMLID_65_" gradientUnits="userSpaceOnUse" x1="1966.0616" y1="75.0081" x2="1960.6329" y2="70.0353" gradientTransform="matrix(-1.0015 0 0 1 1999.6074 0)">
					<stop  offset="0" style="stop-color:#4F24FF"/>
					<stop  offset="1" style="stop-color:#00FFE2"/>
				</linearGradient>
				<polygon id="XMLID_355_" class="st227" points="29.5,66 37.6,78.6 37.6,70.8 				"/>
			</g>
			<g id="XMLID_347_">
				
					<linearGradient id="XMLID_66_" gradientUnits="userSpaceOnUse" x1="1959.0225" y1="70.76" x2="1959.0225" y2="61.2287" gradientTransform="matrix(-1.0015 0 0 1 1999.6074 0)">
					<stop  offset="0" style="stop-color:#4FA4FF"/>
					<stop  offset="1" style="stop-color:#1339E2"/>
				</linearGradient>
				<polygon id="XMLID_353_" class="st228" points="45.8,66 37.6,70.8 29.5,66 37.6,61.2 				"/>
				
					<linearGradient id="XMLID_68_" gradientUnits="userSpaceOnUse" x1="1959.0225" y1="69.2267" x2="1959.0225" y2="59.6954" gradientTransform="matrix(-1.0015 0 0 1 1999.6074 0)">
					<stop  offset="0" style="stop-color:#4F81FF"/>
					<stop  offset="1" style="stop-color:#1339E2"/>
				</linearGradient>
				<polygon id="XMLID_352_" class="st229" points="45.8,64.5 37.6,69.2 29.5,64.5 37.6,59.7 				"/>
				
					<linearGradient id="XMLID_69_" gradientUnits="userSpaceOnUse" x1="1959.8558" y1="58.6199" x2="1949.5372" y2="64.753" gradientTransform="matrix(-1.0015 0 0 1 1999.6074 0)">
					<stop  offset="0" style="stop-color:#4F24FF"/>
					<stop  offset="1" style="stop-color:#00FFE2"/>
				</linearGradient>
				<polygon id="XMLID_351_" class="st230" points="45.8,64.5 37.6,49 37.6,69.2 				"/>
				
					<linearGradient id="XMLID_70_" gradientUnits="userSpaceOnUse" x1="1968.1761" y1="68.0682" x2="1958.7278" y2="58.827" gradientTransform="matrix(-1.0015 0 0 1 1999.6074 0)">
					<stop  offset="0" style="stop-color:#4F24FF"/>
					<stop  offset="1" style="stop-color:#00FFE2"/>
				</linearGradient>
				<polygon id="XMLID_350_" class="st231" points="29.5,64.5 37.6,49 37.6,69.2 				"/>
				
					<linearGradient id="XMLID_71_" gradientUnits="userSpaceOnUse" x1="1960.6449" y1="75.9681" x2="1951.5281" y2="68.5918" gradientTransform="matrix(-1.0015 0 0 1 1999.6074 0)">
					<stop  offset="0" style="stop-color:#4F24FF"/>
					<stop  offset="1" style="stop-color:#00FFE2"/>
				</linearGradient>
				<polygon id="XMLID_349_" class="st232" points="45.8,66 37.6,78.6 37.6,70.8 				"/>
				
					<linearGradient id="XMLID_72_" gradientUnits="userSpaceOnUse" x1="1966.0616" y1="74.9817" x2="1960.6329" y2="70.0088" gradientTransform="matrix(-1.0015 0 0 1 1999.6074 0)">
					<stop  offset="0" style="stop-color:#4F24FF"/>
					<stop  offset="1" style="stop-color:#00FFE2"/>
				</linearGradient>
				<polygon id="XMLID_348_" class="st233" points="29.5,66 37.6,78.6 37.6,70.8 				"/>
			</g>
		</g>
	</g>
	<g id="_x34_">
		<g id="XMLID_323_" class="st209">
			<g id="XMLID_24_">
				
					<linearGradient id="XMLID_73_" gradientUnits="userSpaceOnUse" x1="1918.4291" y1="68.9883" x2="1918.4291" y2="62.5524" gradientTransform="matrix(-1.0015 0 0 1 1999.6074 0)">
					<stop  offset="0" style="stop-color:#4FA4FF"/>
					<stop  offset="1" style="stop-color:#1339E2"/>
				</linearGradient>
				<polygon id="XMLID_30_" class="st234" points="83.8,65.8 78.3,69 72.8,65.8 78.3,62.6 				"/>
				
					<linearGradient id="XMLID_74_" gradientUnits="userSpaceOnUse" x1="1918.4291" y1="67.953" x2="1918.4291" y2="61.5171" gradientTransform="matrix(-1.0015 0 0 1 1999.6074 0)">
					<stop  offset="0" style="stop-color:#4F81FF"/>
					<stop  offset="1" style="stop-color:#1339E2"/>
				</linearGradient>
				<polygon id="XMLID_29_" class="st235" points="83.8,64.7 78.3,68 72.8,64.7 78.3,61.5 				"/>
				
					<linearGradient id="XMLID_75_" gradientUnits="userSpaceOnUse" x1="1918.9918" y1="60.7909" x2="1912.0244" y2="64.9322" gradientTransform="matrix(-1.0015 0 0 1 1999.6074 0)">
					<stop  offset="0" style="stop-color:#4F24FF"/>
					<stop  offset="1" style="stop-color:#00FFE2"/>
				</linearGradient>
				<polygon id="XMLID_28_" class="st236" points="83.8,64.7 78.3,54.3 78.3,68 				"/>
				
					<linearGradient id="XMLID_76_" gradientUnits="userSpaceOnUse" x1="1924.61" y1="67.1707" x2="1918.2301" y2="60.9308" gradientTransform="matrix(-1.0015 0 0 1 1999.6074 0)">
					<stop  offset="0" style="stop-color:#4F24FF"/>
					<stop  offset="1" style="stop-color:#00FFE2"/>
				</linearGradient>
				<polygon id="XMLID_27_" class="st237" points="72.8,64.7 78.3,54.3 78.3,68 				"/>
				
					<linearGradient id="XMLID_77_" gradientUnits="userSpaceOnUse" x1="1919.5247" y1="72.505" x2="1913.3687" y2="67.5242" gradientTransform="matrix(-1.0015 0 0 1 1999.6074 0)">
					<stop  offset="0" style="stop-color:#4F24FF"/>
					<stop  offset="1" style="stop-color:#00FFE2"/>
				</linearGradient>
				<polygon id="XMLID_26_" class="st238" points="83.8,65.8 78.3,74.2 78.3,69 				"/>
				
					<linearGradient id="XMLID_78_" gradientUnits="userSpaceOnUse" x1="1923.1823" y1="71.8389" x2="1919.5166" y2="68.481" gradientTransform="matrix(-1.0015 0 0 1 1999.6074 0)">
					<stop  offset="0" style="stop-color:#4F24FF"/>
					<stop  offset="1" style="stop-color:#00FFE2"/>
				</linearGradient>
				<polygon id="XMLID_25_" class="st239" points="72.8,65.8 78.3,74.2 78.3,69 				"/>
			</g>
			<g id="XMLID_324_">
				
					<linearGradient id="XMLID_79_" gradientUnits="userSpaceOnUse" x1="1918.4291" y1="69.0427" x2="1918.4291" y2="62.6068" gradientTransform="matrix(-1.0015 0 0 1 1999.6074 0)">
					<stop  offset="0" style="stop-color:#4FA4FF"/>
					<stop  offset="1" style="stop-color:#1339E2"/>
				</linearGradient>
				<polygon id="XMLID_23_" class="st240" points="83.8,65.8 78.3,69 72.8,65.8 78.3,62.6 				"/>
				
					<linearGradient id="XMLID_80_" gradientUnits="userSpaceOnUse" x1="1918.4291" y1="68.0074" x2="1918.4291" y2="61.5715" gradientTransform="matrix(-1.0015 0 0 1 1999.6074 0)">
					<stop  offset="0" style="stop-color:#4F81FF"/>
					<stop  offset="1" style="stop-color:#1339E2"/>
				</linearGradient>
				<polygon id="XMLID_329_" class="st241" points="83.8,64.8 78.3,68 72.8,64.8 78.3,61.6 				"/>
				
					<linearGradient id="XMLID_81_" gradientUnits="userSpaceOnUse" x1="1918.9918" y1="60.8453" x2="1912.0244" y2="64.9866" gradientTransform="matrix(-1.0015 0 0 1 1999.6074 0)">
					<stop  offset="0" style="stop-color:#4F24FF"/>
					<stop  offset="1" style="stop-color:#00FFE2"/>
				</linearGradient>
				<polygon id="XMLID_328_" class="st242" points="83.8,64.8 78.3,54.4 78.3,68 				"/>
				
					<linearGradient id="XMLID_82_" gradientUnits="userSpaceOnUse" x1="1924.61" y1="67.2251" x2="1918.2301" y2="60.9852" gradientTransform="matrix(-1.0015 0 0 1 1999.6074 0)">
					<stop  offset="0" style="stop-color:#4F24FF"/>
					<stop  offset="1" style="stop-color:#00FFE2"/>
				</linearGradient>
				<polygon id="XMLID_327_" class="st243" points="72.8,64.8 78.3,54.4 78.3,68 				"/>
				
					<linearGradient id="XMLID_83_" gradientUnits="userSpaceOnUse" x1="1919.5247" y1="72.5594" x2="1913.3687" y2="67.5786" gradientTransform="matrix(-1.0015 0 0 1 1999.6074 0)">
					<stop  offset="0" style="stop-color:#4F24FF"/>
					<stop  offset="1" style="stop-color:#00FFE2"/>
				</linearGradient>
				<polygon id="XMLID_326_" class="st244" points="83.8,65.8 78.3,74.3 78.3,69 				"/>
				
					<linearGradient id="XMLID_84_" gradientUnits="userSpaceOnUse" x1="1923.1823" y1="71.8933" x2="1919.5166" y2="68.5355" gradientTransform="matrix(-1.0015 0 0 1 1999.6074 0)">
					<stop  offset="0" style="stop-color:#4F24FF"/>
					<stop  offset="1" style="stop-color:#00FFE2"/>
				</linearGradient>
				<polygon id="XMLID_325_" class="st245" points="72.8,65.8 78.3,74.3 78.3,69 				"/>
			</g>
		</g>
		<g id="XMLID_330_">
			<g id="XMLID_339_">
				
					<linearGradient id="XMLID_85_" gradientUnits="userSpaceOnUse" x1="1921.5551" y1="71.0205" x2="1921.5551" y2="64.5846" gradientTransform="matrix(-1.0015 0 0 1 1999.6074 0)">
					<stop  offset="0" style="stop-color:#4FA4FF"/>
					<stop  offset="1" style="stop-color:#1339E2"/>
				</linearGradient>
				<polygon id="XMLID_345_" class="st246" points="80.7,67.8 75.2,71 69.6,67.8 75.2,64.6 				"/>
				
					<linearGradient id="XMLID_86_" gradientUnits="userSpaceOnUse" x1="1921.5551" y1="69.9851" x2="1921.5551" y2="63.5493" gradientTransform="matrix(-1.0015 0 0 1 1999.6074 0)">
					<stop  offset="0" style="stop-color:#4F81FF"/>
					<stop  offset="1" style="stop-color:#1339E2"/>
				</linearGradient>
				<polygon id="XMLID_344_" class="st247" points="80.7,66.8 75.2,70 69.6,66.8 75.2,63.5 				"/>
				
					<linearGradient id="XMLID_87_" gradientUnits="userSpaceOnUse" x1="1922.1178" y1="62.8231" x2="1915.1504" y2="66.9644" gradientTransform="matrix(-1.0015 0 0 1 1999.6074 0)">
					<stop  offset="0" style="stop-color:#4F24FF"/>
					<stop  offset="1" style="stop-color:#00FFE2"/>
				</linearGradient>
				<polygon id="XMLID_343_" class="st248" points="80.7,66.8 75.2,56.3 75.2,70 				"/>
				
					<linearGradient id="XMLID_88_" gradientUnits="userSpaceOnUse" x1="1927.736" y1="69.2029" x2="1921.3561" y2="62.963" gradientTransform="matrix(-1.0015 0 0 1 1999.6074 0)">
					<stop  offset="0" style="stop-color:#4F24FF"/>
					<stop  offset="1" style="stop-color:#00FFE2"/>
				</linearGradient>
				<polygon id="XMLID_342_" class="st249" points="69.6,66.8 75.2,56.3 75.2,70 				"/>
				
					<linearGradient id="XMLID_89_" gradientUnits="userSpaceOnUse" x1="1922.6506" y1="74.5372" x2="1916.4946" y2="69.5564" gradientTransform="matrix(-1.0015 0 0 1 1999.6074 0)">
					<stop  offset="0" style="stop-color:#4F24FF"/>
					<stop  offset="1" style="stop-color:#00FFE2"/>
				</linearGradient>
				<polygon id="XMLID_341_" class="st250" points="80.7,67.8 75.2,76.3 75.2,71 				"/>
				
					<linearGradient id="XMLID_90_" gradientUnits="userSpaceOnUse" x1="1926.3082" y1="73.8711" x2="1922.6426" y2="70.5132" gradientTransform="matrix(-1.0015 0 0 1 1999.6074 0)">
					<stop  offset="0" style="stop-color:#4F24FF"/>
					<stop  offset="1" style="stop-color:#00FFE2"/>
				</linearGradient>
				<polygon id="XMLID_340_" class="st251" points="69.6,67.8 75.2,76.3 75.2,71 				"/>
			</g>
			<g id="XMLID_331_">
				
					<linearGradient id="XMLID_91_" gradientUnits="userSpaceOnUse" x1="1921.5551" y1="71.0749" x2="1921.5551" y2="64.639" gradientTransform="matrix(-1.0015 0 0 1 1999.6074 0)">
					<stop  offset="0" style="stop-color:#4FA4FF"/>
					<stop  offset="1" style="stop-color:#1339E2"/>
				</linearGradient>
				<polygon id="XMLID_338_" class="st252" points="80.7,67.9 75.2,71.1 69.6,67.9 75.2,64.6 				"/>
				
					<linearGradient id="XMLID_92_" gradientUnits="userSpaceOnUse" x1="1921.5551" y1="70.0396" x2="1921.5551" y2="63.6037" gradientTransform="matrix(-1.0015 0 0 1 1999.6074 0)">
					<stop  offset="0" style="stop-color:#4F81FF"/>
					<stop  offset="1" style="stop-color:#1339E2"/>
				</linearGradient>
				<polygon id="XMLID_337_" class="st253" points="80.7,66.8 75.2,70 69.6,66.8 75.2,63.6 				"/>
				
					<linearGradient id="XMLID_93_" gradientUnits="userSpaceOnUse" x1="1922.1178" y1="62.8775" x2="1915.1504" y2="67.0188" gradientTransform="matrix(-1.0015 0 0 1 1999.6074 0)">
					<stop  offset="0" style="stop-color:#4F24FF"/>
					<stop  offset="1" style="stop-color:#00FFE2"/>
				</linearGradient>
				<polygon id="XMLID_336_" class="st254" points="80.7,66.8 75.2,56.4 75.2,70 				"/>
				
					<linearGradient id="XMLID_94_" gradientUnits="userSpaceOnUse" x1="1927.736" y1="69.2573" x2="1921.3561" y2="63.0174" gradientTransform="matrix(-1.0015 0 0 1 1999.6074 0)">
					<stop  offset="0" style="stop-color:#4F24FF"/>
					<stop  offset="1" style="stop-color:#00FFE2"/>
				</linearGradient>
				<polygon id="XMLID_335_" class="st255" points="69.6,66.8 75.2,56.4 75.2,70 				"/>
				
					<linearGradient id="XMLID_95_" gradientUnits="userSpaceOnUse" x1="1922.6506" y1="74.5916" x2="1916.4946" y2="69.6108" gradientTransform="matrix(-1.0015 0 0 1 1999.6074 0)">
					<stop  offset="0" style="stop-color:#4F24FF"/>
					<stop  offset="1" style="stop-color:#00FFE2"/>
				</linearGradient>
				<polygon id="XMLID_334_" class="st256" points="80.7,67.9 75.2,76.3 75.2,71.1 				"/>
				
					<linearGradient id="XMLID_96_" gradientUnits="userSpaceOnUse" x1="1926.3082" y1="73.9255" x2="1922.6426" y2="70.5677" gradientTransform="matrix(-1.0015 0 0 1 1999.6074 0)">
					<stop  offset="0" style="stop-color:#4F24FF"/>
					<stop  offset="1" style="stop-color:#00FFE2"/>
				</linearGradient>
				<polygon id="XMLID_332_" class="st257" points="69.6,67.9 75.2,76.3 75.2,71.1 				"/>
			</g>
		</g>
	</g>
	<g id="_x33_">
		<linearGradient id="XMLID_97_" gradientUnits="userSpaceOnUse" x1="56.9278" y1="-1.8869" x2="56.9278" y2="82.8585">
			<stop  offset="0" style="stop-color:#4F24FF"/>
			<stop  offset="1" style="stop-color:#13FFE2"/>
		</linearGradient>
		<path id="XMLID_333_" class="st258" d="M73.5,76.5l0-41.1c-0.1,0.2-0.2,0.5-0.5,0.6l-14.8,8.4c-0.8,0.5-1.7,0.5-2.5,0.1L41.1,36
			c-0.4-0.2-0.6-0.5-0.7-0.9l0,41c-0.1,0.4,0.1,0.9,0.7,1.2l14.6,8.4c0.8,0.4,1.8,0.4,2.5-0.1L73,77.3
			C73.3,77.1,73.5,76.8,73.5,76.5L73.5,76.5z"/>
		<linearGradient id="XMLID_98_" gradientUnits="userSpaceOnUse" x1="89.1684" y1="76.3718" x2="40.0762" y2="76.4277">
			<stop  offset="0" style="stop-color:#4F24FF"/>
			<stop  offset="1" style="stop-color:#13FFE2"/>
		</linearGradient>
		<path id="XMLID_252_" class="st259" d="M40.8,75.5L55.7,67c0.8-0.5,1.8-0.5,2.6-0.1l14.6,8.5c0.7,0.5,0.8,1.5,0.1,1.9l-14.8,8.4
			c-0.8,0.5-1.7,0.5-2.5,0.1L41,77.4C40.1,76.9,40.1,76,40.8,75.5z"/>
		<linearGradient id="XMLID_99_" gradientUnits="userSpaceOnUse" x1="58.1574" y1="83.517" x2="55.3959" y2="83.517">
			<stop  offset="0" style="stop-color:#3BC3FF"/>
			<stop  offset="1" style="stop-color:#A7FFE2"/>
		</linearGradient>
		<path id="XMLID_257_" class="st260" d="M73.4,76.4c0,0.4-0.1,0.7-0.5,0.9l-14.8,8.4c-0.8,0.5-1.7,0.5-2.5,0.1L41,77.4
			c-0.4-0.3-0.7-0.6-0.7-0.9v4.1c-0.1,0.4,0.1,0.9,0.7,1.3l14.6,8.4c0.8,0.4,1.8,0.4,2.5-0.1l14.8-8.4c0.4-0.2,0.5-0.6,0.5-0.9h0
			L73.4,76.4L73.4,76.4z"/>
		<linearGradient id="XMLID_100_" gradientUnits="userSpaceOnUse" x1="88.4972" y1="72.585" x2="39.6817" y2="72.585">
			<stop  offset="0" style="stop-color:#4F24FF"/>
			<stop  offset="1" style="stop-color:#13FFE2"/>
		</linearGradient>
		<path id="XMLID_253_" class="st261" d="M40.8,71.7l14.9-8.5c0.8-0.5,1.8-0.5,2.6-0.1l14.6,8.5c0.7,0.5,0.8,1.5,0.1,1.9l-14.8,8.4
			c-0.8,0.5-1.7,0.5-2.5,0.1L41,73.6C40.1,73,40.1,72.2,40.8,71.7z"/>
		<g id="XMLID_260_" class="st262">
			<linearGradient id="XMLID_101_" gradientUnits="userSpaceOnUse" x1="129.8678" y1="56.3114" x2="40.3699" y2="45.8185">
				<stop  offset="0" style="stop-color:#4F24FF"/>
				<stop  offset="1" style="stop-color:#13FFE2"/>
			</linearGradient>
			<path id="XMLID_22_" class="st263" d="M56.9,57.6c-0.4,0-0.8-0.1-1.2-0.3l-14.6-8.5c-0.5-0.3-0.7-0.7-0.8-1.1
				c0-0.4,0.2-0.7,0.5-0.9l0,0l14.9-8.5c0.8-0.5,1.8-0.5,2.7-0.1L73,46.7c0.4,0.3,0.6,0.7,0.6,1.2c0,0.4-0.2,0.7-0.5,0.9l-14.8,8.4
				C57.9,57.5,57.4,57.6,56.9,57.6z M41,47c-0.3,0.2-0.5,0.5-0.4,0.8c0,0.3,0.2,0.7,0.7,0.9l14.6,8.4c0.8,0.4,1.7,0.4,2.4-0.1
				L73,48.6c0.3-0.2,0.4-0.4,0.5-0.7c0-0.4-0.2-0.8-0.5-1l-14.6-8.5c-0.8-0.4-1.7-0.4-2.5,0.1L41,47z"/>
		</g>
	</g>
	<g id="_x32_">
		<g id="XMLID_361_">
			<g id="XMLID_369_">
				
					<linearGradient id="XMLID_102_" gradientUnits="userSpaceOnUse" x1="1939.0543" y1="65.1044" x2="1939.0543" y2="52.0874" gradientTransform="matrix(-1.0015 0 0 1 1999.6074 0)">
					<stop  offset="0" style="stop-color:#4FA4FF"/>
					<stop  offset="1" style="stop-color:#1339E2"/>
				</linearGradient>
				<polygon id="XMLID_21_" class="st264" points="68.8,58.6 57.6,65.1 46.5,58.6 57.6,52.1 				"/>
				
					<linearGradient id="XMLID_103_" gradientUnits="userSpaceOnUse" x1="1939.0543" y1="63.0103" x2="1939.0543" y2="49.9934" gradientTransform="matrix(-1.0015 0 0 1 1999.6074 0)">
					<stop  offset="0" style="stop-color:#4F81FF"/>
					<stop  offset="1" style="stop-color:#1339E2"/>
				</linearGradient>
				<polygon id="XMLID_20_" class="st265" points="68.8,56.5 57.6,63 46.5,56.5 57.6,50 				"/>
				
					<linearGradient id="XMLID_104_" gradientUnits="userSpaceOnUse" x1="1940.1925" y1="48.5245" x2="1926.1003" y2="56.9006" gradientTransform="matrix(-1.0015 0 0 1 1999.6074 0)">
					<stop  offset="0" style="stop-color:#4F24FF"/>
					<stop  offset="1" style="stop-color:#00FFE2"/>
				</linearGradient>
				<polygon id="XMLID_19_" class="st266" points="68.8,56.5 57.6,35.4 57.6,63 				"/>
				
					<linearGradient id="XMLID_105_" gradientUnits="userSpaceOnUse" x1="1951.5555" y1="61.4282" x2="1938.6519" y2="48.8075" gradientTransform="matrix(-1.0015 0 0 1 1999.6074 0)">
					<stop  offset="0" style="stop-color:#4F24FF"/>
					<stop  offset="1" style="stop-color:#00FFE2"/>
				</linearGradient>
				<polygon id="XMLID_18_" class="st267" points="46.5,56.5 57.6,35.4 57.6,63 				"/>
				
					<linearGradient id="XMLID_106_" gradientUnits="userSpaceOnUse" x1="1941.2701" y1="72.2171" x2="1928.8192" y2="62.1432" gradientTransform="matrix(-1.0015 0 0 1 1999.6074 0)">
					<stop  offset="0" style="stop-color:#4F24FF"/>
					<stop  offset="1" style="stop-color:#00FFE2"/>
				</linearGradient>
				<polygon id="XMLID_17_" class="st268" points="68.8,58.6 57.6,75.7 57.6,65.1 				"/>
				
					<linearGradient id="XMLID_107_" gradientUnits="userSpaceOnUse" x1="1948.6678" y1="70.8699" x2="1941.2539" y2="64.0785" gradientTransform="matrix(-1.0015 0 0 1 1999.6074 0)">
					<stop  offset="0" style="stop-color:#4F24FF"/>
					<stop  offset="1" style="stop-color:#00FFE2"/>
				</linearGradient>
				<polygon id="XMLID_370_" class="st269" points="46.5,58.6 57.6,75.7 57.6,65.1 				"/>
			</g>
			<g id="XMLID_362_">
				
					<linearGradient id="XMLID_108_" gradientUnits="userSpaceOnUse" x1="1939.0543" y1="65.0886" x2="1939.0543" y2="52.0716" gradientTransform="matrix(-1.0015 0 0 1 1999.6074 0)">
					<stop  offset="0" style="stop-color:#4FA4FF"/>
					<stop  offset="1" style="stop-color:#1339E2"/>
				</linearGradient>
				<polygon id="XMLID_368_" class="st270" points="68.8,58.6 57.6,65.1 46.5,58.6 57.6,52.1 				"/>
				
					<linearGradient id="XMLID_109_" gradientUnits="userSpaceOnUse" x1="1939.0543" y1="62.9945" x2="1939.0543" y2="49.9776" gradientTransform="matrix(-1.0015 0 0 1 1999.6074 0)">
					<stop  offset="0" style="stop-color:#4F81FF"/>
					<stop  offset="1" style="stop-color:#1339E2"/>
				</linearGradient>
				<polygon id="XMLID_367_" class="st271" points="68.8,56.5 57.6,63 46.5,56.5 57.6,50 				"/>
				
					<linearGradient id="XMLID_110_" gradientUnits="userSpaceOnUse" x1="1940.1925" y1="48.5087" x2="1926.1003" y2="56.8848" gradientTransform="matrix(-1.0015 0 0 1 1999.6074 0)">
					<stop  offset="0" style="stop-color:#4F24FF"/>
					<stop  offset="1" style="stop-color:#00FFE2"/>
				</linearGradient>
				<polygon id="XMLID_366_" class="st272" points="68.8,56.5 57.6,35.4 57.6,63 				"/>
				
					<linearGradient id="XMLID_111_" gradientUnits="userSpaceOnUse" x1="1951.5555" y1="61.4124" x2="1938.6519" y2="48.7917" gradientTransform="matrix(-1.0015 0 0 1 1999.6074 0)">
					<stop  offset="0" style="stop-color:#4F24FF"/>
					<stop  offset="1" style="stop-color:#00FFE2"/>
				</linearGradient>
				<polygon id="XMLID_365_" class="st273" points="46.5,56.5 57.6,35.4 57.6,63 				"/>
				
					<linearGradient id="XMLID_112_" gradientUnits="userSpaceOnUse" x1="1941.2701" y1="72.2013" x2="1928.8192" y2="62.1274" gradientTransform="matrix(-1.0015 0 0 1 1999.6074 0)">
					<stop  offset="0" style="stop-color:#4F24FF"/>
					<stop  offset="1" style="stop-color:#00FFE2"/>
				</linearGradient>
				<polygon id="XMLID_364_" class="st274" points="68.8,58.6 57.6,75.7 57.6,65.1 				"/>
				
					<linearGradient id="XMLID_113_" gradientUnits="userSpaceOnUse" x1="1948.6678" y1="70.8541" x2="1941.2539" y2="64.0627" gradientTransform="matrix(-1.0015 0 0 1 1999.6074 0)">
					<stop  offset="0" style="stop-color:#4F24FF"/>
					<stop  offset="1" style="stop-color:#00FFE2"/>
				</linearGradient>
				<polygon id="XMLID_363_" class="st275" points="46.5,58.6 57.6,75.7 57.6,65.1 				"/>
			</g>
		</g>
		<g id="XMLID_3_" class="st276">
			<g id="XMLID_11_">
				
					<linearGradient id="XMLID_114_" gradientUnits="userSpaceOnUse" x1="1940.9116" y1="63.7247" x2="1940.9116" y2="50.7078" gradientTransform="matrix(-1.0015 0 0 1 1999.6074 0)">
					<stop  offset="0" style="stop-color:#4FA4FF"/>
					<stop  offset="1" style="stop-color:#1339E2"/>
				</linearGradient>
				<polygon id="XMLID_425_" class="st277" points="67,57.2 55.8,63.7 44.6,57.2 55.8,50.7 				"/>
				
					<linearGradient id="XMLID_115_" gradientUnits="userSpaceOnUse" x1="1940.9116" y1="61.6307" x2="1940.9116" y2="48.6138" gradientTransform="matrix(-1.0015 0 0 1 1999.6074 0)">
					<stop  offset="0" style="stop-color:#4F81FF"/>
					<stop  offset="1" style="stop-color:#1339E2"/>
				</linearGradient>
				<polygon id="XMLID_16_" class="st278" points="67,55.1 55.8,61.6 44.6,55.1 55.8,48.6 				"/>
				
					<linearGradient id="XMLID_116_" gradientUnits="userSpaceOnUse" x1="1942.0498" y1="47.1449" x2="1927.9576" y2="55.521" gradientTransform="matrix(-1.0015 0 0 1 1999.6074 0)">
					<stop  offset="0" style="stop-color:#4F24FF"/>
					<stop  offset="1" style="stop-color:#00FFE2"/>
				</linearGradient>
				<polygon id="XMLID_15_" class="st279" points="67,55.1 55.8,34 55.8,61.6 				"/>
				
					<linearGradient id="XMLID_117_" gradientUnits="userSpaceOnUse" x1="1953.4128" y1="60.0486" x2="1940.5092" y2="47.4278" gradientTransform="matrix(-1.0015 0 0 1 1999.6074 0)">
					<stop  offset="0" style="stop-color:#4F24FF"/>
					<stop  offset="1" style="stop-color:#00FFE2"/>
				</linearGradient>
				<polygon id="XMLID_14_" class="st280" points="44.6,55.1 55.8,34 55.8,61.6 				"/>
				
					<linearGradient id="XMLID_118_" gradientUnits="userSpaceOnUse" x1="1943.1274" y1="70.8375" x2="1930.6764" y2="60.7635" gradientTransform="matrix(-1.0015 0 0 1 1999.6074 0)">
					<stop  offset="0" style="stop-color:#4F24FF"/>
					<stop  offset="1" style="stop-color:#00FFE2"/>
				</linearGradient>
				<polygon id="XMLID_13_" class="st281" points="67,57.2 55.8,74.4 55.8,63.7 				"/>
				
					<linearGradient id="XMLID_119_" gradientUnits="userSpaceOnUse" x1="1950.5251" y1="69.4903" x2="1943.1111" y2="62.6988" gradientTransform="matrix(-1.0015 0 0 1 1999.6074 0)">
					<stop  offset="0" style="stop-color:#4F24FF"/>
					<stop  offset="1" style="stop-color:#00FFE2"/>
				</linearGradient>
				<polygon id="XMLID_12_" class="st282" points="44.6,57.2 55.8,74.4 55.8,63.7 				"/>
			</g>
			<g id="XMLID_4_">
				
					<linearGradient id="XMLID_120_" gradientUnits="userSpaceOnUse" x1="1940.9116" y1="63.7089" x2="1940.9116" y2="50.692" gradientTransform="matrix(-1.0015 0 0 1 1999.6074 0)">
					<stop  offset="0" style="stop-color:#4FA4FF"/>
					<stop  offset="1" style="stop-color:#1339E2"/>
				</linearGradient>
				<polygon id="XMLID_10_" class="st283" points="67,57.2 55.8,63.7 44.6,57.2 55.8,50.7 				"/>
				
					<linearGradient id="XMLID_121_" gradientUnits="userSpaceOnUse" x1="1940.9116" y1="61.6149" x2="1940.9116" y2="48.598" gradientTransform="matrix(-1.0015 0 0 1 1999.6074 0)">
					<stop  offset="0" style="stop-color:#4F81FF"/>
					<stop  offset="1" style="stop-color:#1339E2"/>
				</linearGradient>
				<polygon id="XMLID_9_" class="st284" points="67,55.1 55.8,61.6 44.6,55.1 55.8,48.6 				"/>
				
					<linearGradient id="XMLID_122_" gradientUnits="userSpaceOnUse" x1="1942.0498" y1="47.1291" x2="1927.9576" y2="55.5052" gradientTransform="matrix(-1.0015 0 0 1 1999.6074 0)">
					<stop  offset="0" style="stop-color:#4F24FF"/>
					<stop  offset="1" style="stop-color:#00FFE2"/>
				</linearGradient>
				<polygon id="XMLID_8_" class="st285" points="67,55.1 55.8,34 55.8,61.6 				"/>
				
					<linearGradient id="XMLID_123_" gradientUnits="userSpaceOnUse" x1="1953.4128" y1="60.0328" x2="1940.5092" y2="47.412" gradientTransform="matrix(-1.0015 0 0 1 1999.6074 0)">
					<stop  offset="0" style="stop-color:#4F24FF"/>
					<stop  offset="1" style="stop-color:#00FFE2"/>
				</linearGradient>
				<polygon id="XMLID_7_" class="st286" points="44.6,55.1 55.8,34 55.8,61.6 				"/>
				
					<linearGradient id="XMLID_124_" gradientUnits="userSpaceOnUse" x1="1943.1274" y1="70.8217" x2="1930.6764" y2="60.7478" gradientTransform="matrix(-1.0015 0 0 1 1999.6074 0)">
					<stop  offset="0" style="stop-color:#4F24FF"/>
					<stop  offset="1" style="stop-color:#00FFE2"/>
				</linearGradient>
				<polygon id="XMLID_6_" class="st287" points="67,57.2 55.8,74.3 55.8,63.7 				"/>
				
					<linearGradient id="XMLID_125_" gradientUnits="userSpaceOnUse" x1="1950.5251" y1="69.4745" x2="1943.1111" y2="62.683" gradientTransform="matrix(-1.0015 0 0 1 1999.6074 0)">
					<stop  offset="0" style="stop-color:#4F24FF"/>
					<stop  offset="1" style="stop-color:#00FFE2"/>
				</linearGradient>
				<polygon id="XMLID_5_" class="st288" points="44.6,57.2 55.8,74.3 55.8,63.7 				"/>
			</g>
		</g>
	</g>
	<g id="_x31__1_">
		<linearGradient id="XMLID_126_" gradientUnits="userSpaceOnUse" x1="129.5139" y1="35.0762" x2="16.0378" y2="35.0762">
			<stop  offset="0" style="stop-color:#4F24FF"/>
			<stop  offset="1" style="stop-color:#13FFE2"/>
		</linearGradient>
		<path id="XMLID_254_" class="st289" d="M40.9,34.2l14.9-8.5c0.8-0.5,1.8-0.5,2.6-0.1L73,34.1c0.7,0.5,0.8,1.5,0.1,1.9l-14.8,8.4
			c-0.8,0.5-1.7,0.5-2.5,0.1l-14.6-8.4C40.2,35.5,40.2,34.7,40.9,34.2z"/>
		<g id="XMLID_299_">
			<linearGradient id="XMLID_127_" gradientUnits="userSpaceOnUse" x1="129.9949" y1="40.241" x2="40.4969" y2="29.7481">
				<stop  offset="0" style="stop-color:#4F24FF"/>
				<stop  offset="1" style="stop-color:#13FFE2"/>
			</linearGradient>
			<path id="XMLID_302_" class="st290" d="M57,41.5c-0.4,0-0.8-0.1-1.2-0.3l-14.6-8.5c-0.5-0.3-0.7-0.7-0.8-1.1
				c0-0.4,0.2-0.7,0.5-0.9l0,0l14.9-8.5c0.8-0.5,1.8-0.5,2.7-0.1l14.6,8.5c0.4,0.3,0.6,0.7,0.6,1.2c0,0.4-0.2,0.7-0.5,0.9l-14.8,8.4
				C58,41.4,57.5,41.5,57,41.5z M41.1,30.9c-0.3,0.2-0.5,0.5-0.4,0.8c0,0.3,0.2,0.7,0.7,0.9l14.6,8.4c0.8,0.4,1.7,0.4,2.4-0.1
				l14.8-8.4c0.3-0.2,0.4-0.4,0.5-0.7c0-0.4-0.2-0.8-0.5-1l-14.6-8.5C57.7,22,56.8,22,56,22.4L41.1,30.9z"/>
		</g>
		<g id="XMLID_255_">
			<linearGradient id="XMLID_128_" gradientUnits="userSpaceOnUse" x1="129.9948" y1="38.3777" x2="40.4968" y2="27.8849">
				<stop  offset="0" style="stop-color:#4F24FF"/>
				<stop  offset="1" style="stop-color:#13FFE2"/>
			</linearGradient>
			<path id="XMLID_256_" class="st291" d="M57,39.7c-0.4,0-0.8-0.1-1.2-0.3l-14.6-8.5c-0.5-0.3-0.7-0.7-0.8-1.1
				c0-0.4,0.2-0.7,0.5-0.9l0,0l14.9-8.5c0.8-0.5,1.8-0.5,2.7-0.1l14.6,8.5c0.4,0.3,0.6,0.7,0.6,1.2c0,0.4-0.2,0.7-0.5,0.9l-14.8,8.4
				C58,39.5,57.5,39.7,57,39.7z M41.1,29.1c-0.3,0.2-0.5,0.5-0.4,0.8c0,0.3,0.2,0.7,0.7,0.9l14.6,8.4c0.8,0.4,1.7,0.4,2.4-0.1
				l14.8-8.4c0.3-0.2,0.4-0.4,0.5-0.7c0-0.4-0.2-0.8-0.5-1l-14.6-8.5c-0.8-0.4-1.7-0.4-2.5,0.1L41.1,29.1z"/>
		</g>
	</g>
</g>
<g>
	<g>
		<defs>
			<path id="SVGID_19_" d="M-139.8,37.7v53.1l0,0l-1.1,0.6l-0.3,0.2l-0.1,0.1l-0.9,0.5l-3.1,1.8l-0.2,0.1l-1.9,1.1l-0.2,0.1
				l-1.5,0.9l-0.5,0.3l-0.1,0.1l-0.5,0.3l-0.2,0.1l0,0l-0.1,0l-0.1,0.1l-3,1.7l-0.8,0.5l-1.1,0.6l0,0l-1.2,0.7l-0.4,0.3l0,0h0
				l-1.5,0.9l-0.9,0.5l-1.3,0.7l-0.1,0l-0.1,0l-0.1,0.1l-0.4,0.2l0,0l-0.1,0l-0.1,0l-0.1,0v0l-0.8,0.4l-0.2,0.1l0,0l0,0l-1,0.6
				l-0.1,0.1l-0.2,0.1l-0.1,0l-0.3,0.2l-0.2,0.1h0l-0.1,0l-0.6,0.4l-0.2,0.1l-0.3,0.2l-0.3,0.1c0,0,0,0,0,0l-0.5,0.3l-0.4,0.2l0,0
				l-0.6,0.3l-2.3,1.3l-0.6,0.4l-0.1,0l-3.5,2l0,0l0,0l-0.4,0.2l-0.3,0.2l-0.5,0.3l-0.1,0.1l-1.3,0.7l-1,0.6l-0.4,0.2l0,0l-0.4,0.3
				l-0.4,0.2l-2.4,1.4l-0.4,0.2l0,0l-0.2,0.1l-0.5,0.3l-1.9,1.1l-0.6,0.3h0l-0.3,0.2l-0.5,0.3l-0.1-0.1l-1.3-0.7l-0.9-0.5l0,0
				l-0.9-0.5l-0.2-0.1l-0.1,0l-0.6-0.3l-0.2-0.1l-3.4-1.9l0,0l-2.1-1.2l-4.8-2.8l-0.6-0.3l-0.7-0.4l-0.9-0.5l-0.2-0.1l-0.1-0.1l0,0
				l-2.2-1.3l-1.2-0.7l-0.4-0.2l-0.4-0.2l-0.2-0.1l-0.3-0.2l-0.2-0.2l-0.1-0.1l-0.3-0.2l-0.1-0.1l-0.1,0l0,0l-1.3-0.7l-0.1,0
				l-0.2-0.1l-0.4-0.2l-1.7-1l-2.5-1.5l-2.1-1.2l-0.8-0.5l-0.1-0.1l-0.5-0.3l0,0l-0.2-0.1h0l-1-0.6c0,0,0,0,0,0l-1.9-1.1l-1-0.6
				l-1.3-0.8l-0.7-0.4l0,0l0,0l-0.3-0.2c0,0,0,0,0,0l-0.3-0.2l0,0l-3.3-1.9l-3.4-2l-0.1-0.1l-0.1,0l0,0V37.7l5.7-3.3l0.8-0.5h0
				l0.3-0.1l0.6-0.3l1.8-1l2.3-1.3l0.8-0.5l0.2-0.1l2.1-1.2l1-0.6l1-0.6l0.4-0.2l0.4-0.3l0.3-0.1c0,0,0,0,0,0l0.6-0.3l3.2-1.9
				l1.6-0.9l0.2-0.1l1.7-1l0.8-0.5l0.4-0.2l0.4-0.3l1.1-0.6l0.5-0.3l2.3-1.3l0.7-0.4l1.4-0.8h0l0.1,0l5.7-3.3l0.2-0.1l0.3-0.2
				l6.1-3.5l1.4-0.8l1.1,0.6l6.5,3.8l2.6,1.5l3.9,2.3l1.3,0.8l6.6,3.8l1,0.6l2.3,1.3l0.9,0.5l1.5,0.9l1.4,0.8l0.8,0.5l0.1,0.1l1.8,1
				l3.8,2.2l0,0v0l0.3,0.1l0.3,0.2l0.4,0.2l0.9,0.5l0.5,0.3l0,0l1.9,1.1l0.8,0.4l0.4,0.3l1.9,1.1L-139.8,37.7z"/>
		</defs>
		<clipPath id="SVGID_4_">
			<use xlink:href="#SVGID_19_"  style="overflow:visible;"/>
		</clipPath>
		<g style="clip-path:url(#SVGID_4_);">
			<defs>
				<rect id="SVGID_21_" x="-243.6" y="-11" width="113" height="146"/>
			</defs>
			<clipPath id="SVGID_6_">
				<use xlink:href="#SVGID_21_"  style="overflow:visible;"/>
			</clipPath>
			<g style="clip-path:url(#SVGID_6_);">
				<linearGradient id="SVGID_8_" gradientUnits="userSpaceOnUse" x1="-416.7599" y1="62" x2="16.5734" y2="62">
					<stop  offset="0" style="stop-color:#1CA0BC"/>
					<stop  offset="1" style="stop-color:#B9F7FB"/>
				</linearGradient>
				<rect x="-416.8" y="-10.7" style="fill:url(#SVGID_8_);" width="433.3" height="145.3"/>
				<path class="st314" d="M67,22c-6,3-150.2,32.9-172,43c-28,13-60,19-88,26s-55,14-80,20s-53,5-75,8s-50,7-63,13s-21,12-17,9
					s449-6,449-6L67,22z"/>
			</g>
		</g>
	</g>
</g>
</svg>
