<?xml version="1.0" encoding="utf-8"?>
<!-- Generator: Adobe Illustrator 21.0.2, SVG Export Plug-In . SVG Version: 6.00 Build 0)  -->
<svg version="1.1" id="Layer_1" xmlns="http://www.w3.org/2000/svg" xmlns:xlink="http://www.w3.org/1999/xlink" x="0px" y="0px"
	 viewBox="0 0 110.8542 127.9063" style="enable-background:new 0 0 110.8542 127.9063;" xml:space="preserve">
<style type="text/css">
	.st0{fill:#483C7C;}
	.st1{fill:#FFFFFF;}
	.st2{opacity:0.13;enable-background:new    ;}
	.st3{fill:#CBC9D1;}
	.st4{fill:#15003E;}
	.st5{fill:#362B59;}
	.st6{clip-path:url(#SVGID_2_);}
	.st7{clip-path:url(#SVGID_4_);}
	.st8{fill:#25E899;}
	.st9{fill:#EFF4EE;}
	.st10{fill:#0FCE7C;}
	.st11{fill:#232133;}
	.st12{clip-path:url(#SVGID_8_);}
	.st13{fill:#117248;}
	.st14{fill:#054F38;}
	.st15{fill:#C61443;}
	.st16{fill:#AA0F38;}
	.st17{fill:#C2E1EF;}
	.st18{clip-path:url(#SVGID_10_);}
	.st19{fill:#819FAA;}
	.st20{fill:#475E6B;}
	.st21{fill:#687B82;}
</style>
<g id="Layer_63_1_">
	<polygon class="st0" points="111.0124,95.9968 55.5866,127.9968 0.1628,95.9968 0.1628,31.9968 55.5866,-0.0032 111.0124,31.9968 	
		"/>
</g>
<path class="st1" d="M102.1608,37.7038v53.1406l-0.0107,0.0098l-0.0195,0.0098l-0.4102,0.2402l-0.3701,0.2109l-0.6201,0.3496
	l-4.1494,2.3897L96.57,94.0651l-0.1299,0.0791l-0.0595,0.0303l-0.5498,0.3203L95.03,94.944l-0.0996,0.0606l-0.4795,0.2793
	L93.32,95.9343l-0.8496,0.4902l-0.7402,0.4297l-0.2393,0.1309l-0.1308,0.0488l-0.1094,0.0703l-1,0.5703l-0.0303,0.0195l-2,1.1504
	l-0.5098,0.2901L87.57,99.2146l-0.0293,0.0205l-0.1406,0.08l-0.0098,0.0098l-1.04,0.5898l-0.04,0.0293l-0.0694,0.0411
	l-1.1601,0.6699l-0.4502,0.2597l-0.0098,0.0098l-0.0107,0.0098h-0.0098l-0.4199,0.2402l-1.1201,0.6504l-0.8702,0.5195l-1.1796,0.67
	l-0.0801,0.0507l-0.1201,0.0694l-0.0401,0.0302l-0.04,0.0196l-0.0196,0.0097l-0.1005,0.0606l-0.2901,0.1699l-0.0293,0.0098
	l-0.1601,0.0898v0.0098l-0.4004,0.2305l-0.2696,0.1601l-0.1103,0.0606l-0.1797,0.0898l-0.0205,0.0195l-0.04,0.0196l-0.6895,0.3906
	l-0.0605,0.04l-0.2393,0.1397l-0.0205,0.0097l-0.29,0.17l-0.1495,0.08l-0.2207,0.1309l-0.2392,0.1397h-0.0108l-0.4199,0.25
	l-0.29,0.1699l-0.0293,0.0205l-0.3008,0.1699l-1.3594,0.7891l-0.5,0.291l-0.25,0.1396l-0.7002,0.3994l-0.0302,0.0206h-0.0098
	l-0.3096,0.1796l-0.0508,0.0303l-0.2392,0.1504l-0.8408,0.4795l-0.6299,0.3603l-0.0596,0.0293l-0.5,0.2911
	c-0.0098,0.0097-0.0098,0.0097-0.0098,0l-0.5302,0.3095l-0.2901,0.17l-0.7597,0.4404l-0.0508,0.0293l-0.0498,0.0303l-0.0293,0.0097
	c0,0.0108-0.0108,0.0108-0.0108,0.0108l-0.0195,0.0195l-0.25,0.1396l-1,0.5801l-0.1699,0.1006l-0.0401,0.0195l-0.3798,0.2207
	l-1.42,0.8194l-0.3603,0.2099l-0.0899,0.0498l-0.2402,0.1397l-0.7998,0.4609l-0.2598,0.1494l-0.2802,0.1602l-0.0098,0.0107
	l-0.2002,0.1192l-0.2305,0.1308l-0.3496,0.1993l-0.83,0.4804l-0.0098,0.0098l-0.0899,0.0498l-1.3203,0.7607l-0.0205,0.0098
	l-0.79,0.459l-0.6094,0.3506h-0.0098l-1.4101,0.8095l-0.0205,0.0206l-0.25,0.1396l-0.5596,0.3203h-0.0098l-0.1308,0.0801
	l-0.1895,0.1094l-0.2705,0.1601h-0.0097l-0.2002,0.1201l-0.0596-0.0302l-1.1397-0.6602l-0.0205-0.0098l-0.2002-0.1191
	l-0.8496-0.4902l-0.0302-0.0098l-0.3301-0.1904l-0.0098-0.0108l-1.4004-0.8086l-0.0097-0.0107l-0.0196-0.0098l-1.3701-0.79
	l-0.0303-0.0195h-0.0097l-0.8301-0.4805l-0.0596-0.04l-0.3408-0.1905l-0.1797-0.1094l-0.0195-0.0097l-0.6602-0.3809l-0.04-0.0293
	l-0.0899-0.0508l-0.1005-0.0595l-0.1299-0.0694l-0.2696-0.1601l-0.1201-0.0703H47.78l-0.7197-0.42l-0.2403-0.1308l-0.3896-0.2295
	l-0.0498-0.0303l-0.0303-0.0195l-1.3994-0.8106h-0.0108l-0.1093-0.0703l-0.3702-0.2187h-0.0097l-0.2705-0.1602l-0.6201-0.3603
	l-0.0303-0.0108l-0.0596-0.039l-0.04-0.0196l-1.2901-0.75l-0.3896-0.2304L41.07,108.694l-0.5791-0.33l-0.1103-0.0596l-1-0.5801
	l-1.7198-1c-0.0107-0.0097-0.0205-0.0205-0.0302-0.0205l-1.3203-0.7598l-3.92-2.2597l-0.1601-0.0899l-0.5694-0.33l-0.4707-0.2696
	l-0.4394-0.2597l-0.2998-0.17l-0.3809-0.2207l-0.9892-0.58l-0.0401-0.0196l-2.7402-1.5898l-0.0996-0.0606l-0.1807-0.0996
	l-0.6699-0.3808L24.53,99.1442l-0.0899-0.0498l-0.5-0.29l-0.0097-0.0098l-0.0801-0.0498h-0.0098l-0.1201-0.0703h-0.0098
	l-0.3105-0.1797l-0.7295-0.4199c-0.0098-0.0098-0.0098-0.0098-0.0205-0.0098l-1.8594-1.08l-1.0205-0.5909l-2.1094-1.2295
	L17.57,95.114l-0.1992-0.1192c0,0-0.0107,0-0.0205-0.0097L17.07,94.8249l-0.5293-0.3008l-0.8203-0.4795l-0.0596-0.04h-0.0107
	c0,0,0,0-0.0098,0l-0.4902-0.29l-0.6992-0.3995l-0.6807-0.3906l-1.2197-0.7099l-0.0996-0.0596h-0.0108l-0.33-0.1904l-0.4092-0.2403
	h-0.0108l-0.4296-0.25l-0.9903-0.5693l-0.0801-0.041l-0.0293-0.0196V37.7038l0.7793-0.4492l1.5899-0.9199l0.3603-0.211
	l3.3799-1.9492l1.0606-0.6094l5.7793-3.3408h0.0107l0.9092-0.5205l1.0508-0.6191l1.8193-1.0508h0.0107l0.8692-0.5098l3.6308-2.0801
	l0.6397-0.3789l0.9404-0.541l0.1699-0.0898l1.6592-0.9492l0.7803-0.4512l0.3799-0.2188l0.4404-0.2607l0.6699-0.3897l0.4297-0.2597
	l0.5205-0.3008l0.5-0.2793l0.5899-0.3398l1.1894-0.6807l0.6905-0.4102l0.75-0.4296l0.6503-0.3702h0.0098l0.0498-0.0293l0.4297-0.25
	l5.29-3.0507l0.1104-0.0606l0.0801-0.0488l0.2695-0.1602l5.5205-3.1904l0.5498-0.3193l1.4404-0.8301l0.5098,0.2988l1.0899,0.6309
	l2.8603,1.6504l3.0898,1.789l2.5997,1.5L66.53,17.155l4.6904,2.6992l0.9805,0.5703l5.1299,2.96l0.9101,0.5205l1.0391,0.6094
	l2.3008,1.3105l0.8701,0.5l0.6894,0.3994l0.8301,0.4795l0.4902,0.2813l0.5801,0.3398l0.2998,0.1699l0.7998,0.459l0.0899,0.0606
	l1.8105,1.04l2.1602,1.2402L91.32,31.444l0.5,0.2911l0.0401,0.0293v0.0097l0.2607,0.1406l0.6592,0.3897l1.4609,0.8398l1.9395,1.1202
	l0.7802,0.4394l0.4395,0.25l0.4902,0.2813l1.4502,0.8398l0.17,0.0996l0.8496,0.4902L102.1608,37.7038z"/>
<g id="Layer_2_1_">
	<g id="Layer_16_1_">
		<path class="st2" d="M56.2194,11.2214L10.1491,37.781v53.1201l1.6699,0.9599l0.6299,0.3702h0.0108l18.8095,10.8398l1.0401,0.5996
			l2.1797,1.2598l0.4902,0.2802l0.4395,0.2608l0.3603,0.209l3.1299,1.8008l3.3105,1.9101l1.2891,0.7402v0.0098l12.7109,7.3193
			l46.0703-26.5595V37.781L56.2194,11.2214z M100.4284,89.8308l-44.209,25.4902l-12.5097-7.21L12.0085,89.8308V38.861
			l44.2109-25.4902l44.209,25.4902V89.8308z"/>
	</g>
</g>
<g>
	<g>
		<g>
			<path class="st3" d="M93.8327,62.1589c0-20.5825-16.6855-37.2686-37.2685-37.2686S19.2956,41.5764,19.2956,62.1589
				c0,20.583,16.6856,37.2685,37.2686,37.2685S93.8327,82.7419,93.8327,62.1589"/>
		</g>
		<g>
			<rect x="47.3659" y="53.0114" class="st4" width="17.6758" height="15.7969"/>
		</g>
		<g>
			<path class="st5" d="M65.4812,69.2468H46.9274V52.5729h18.5538V69.2468z M47.8054,68.3688h16.7978V53.4499H47.8054V68.3688z"/>
		</g>
		<g>
			<path class="st5" d="M72.6042,69.2419l-16.04-4.1768l-16.0401,4.1768c-0.8125,0.2119-1.4336,0.8701-1.5976,1.6953L33.653,97.4753
				l1.8516,1.1289c12.9326,7.8848,29.1875,7.8848,42.1201,0l1.8516-1.1289l-5.2735-26.5381
				C74.0378,70.112,73.4177,69.4538,72.6042,69.2419"/>
		</g>
	</g>
	<g>
		<defs>
			<path id="SVGID_1_" d="M40.5241,69.2419c-0.8125,0.2119-1.4336,0.8701-1.5986,1.6953L33.653,97.4753l1.8516,1.1289
				c12.9326,7.8848,29.1875,7.8848,42.1201,0l1.8516-1.1289l-5.2735-26.5381c-0.165-0.8252-0.7851-1.4834-1.5986-1.6953
				l-16.04-4.1768L40.5241,69.2419z"/>
		</defs>
		<clipPath id="SVGID_2_">
			<use xlink:href="#SVGID_1_"  style="overflow:visible;"/>
		</clipPath>
		<g class="st6">
			<polygon class="st5" points="41.5427,102.8737 43.4577,87.3815 56.5778,69.5124 69.7351,87.3815 71.6149,102.8737 
				58.2106,106.6677 			"/>
		</g>
		<g class="st6">
			<path class="st4" d="M58.2106,107.1062c-0.0332,0-0.0664-0.003-0.0976-0.0108l-16.668-3.7939
				c-0.2197-0.0498-0.3662-0.2588-0.3379-0.4815l1.9151-15.4922c0.0097-0.0742,0.0371-0.1455,0.082-0.206l13.1201-17.8682
				c0.083-0.1123,0.2149-0.1797,0.3535-0.1807l0,0c0.1407,0,0.2725,0.0674,0.3535,0.1797l13.1563,17.8692
				c0.0459,0.0605,0.0742,0.1318,0.083,0.207l1.8789,15.4922c0.0283,0.2148-0.1064,0.417-0.3144,0.4756l-13.4043,3.7939
				C58.2907,107.1013,58.2497,107.1062,58.2106,107.1062z M42.0271,102.5339l16.1718,3.6816l12.9346-3.6621l-1.8213-15.0049
				L56.5788,70.2536L43.8786,87.5485L42.0271,102.5339z"/>
		</g>
		<g class="st6">
			<g>
				<defs>
					<rect id="SVGID_3_" x="36.2214" y="64.2321" width="40.6855" height="47.709"/>
				</defs>
				<clipPath id="SVGID_4_">
					<use xlink:href="#SVGID_3_"  style="overflow:visible;"/>
				</clipPath>
				<g class="st7">
					<defs>
						<rect id="SVGID_5_" x="36.2214" y="64.2321" width="40.6855" height="47.709"/>
					</defs>
					<clipPath id="SVGID_6_">
						<use xlink:href="#SVGID_5_"  style="overflow:visible;"/>
					</clipPath>
					<g style="clip-path:url(#SVGID_6_);">
						
							<image style="overflow:visible;" width="278" height="326" xlink:href="1CA3A1EE.png"  transform="matrix(0.1463 0 0 0.1463 36.2214 64.2321)">
						</image>
					</g>
				</g>
			</g>
		</g>
		<g class="st6">
			<path class="st4" d="M64.4411,68.0759c0,0.9121-3.5205,1.6494-7.8633,1.6494c-4.3418,0-7.8613-0.7373-7.8613-1.6494
				c0-0.9102,3.5195-1.6485,7.8613-1.6485C60.9206,66.4274,64.4411,67.1657,64.4411,68.0759"/>
		</g>
	</g>
	<g>
		<g>
			<path class="st4" d="M56.5671,104.9567c-0.002,0-0.002,0-0.002,0c-7.5136-0.0009-14.8759-2.0673-21.29-5.9775l-1.8506-1.1289
				c-0.1572-0.0957-0.2383-0.2803-0.2031-0.4609l5.2744-26.5372c0.1953-0.9834,0.9482-1.7822,1.9189-2.0351l16.0391-4.1768
				c0.0733-0.0195,0.1484-0.0195,0.2217,0l16.0391,4.1768c0.9707,0.2529,1.7226,1.0517,1.9179,2.0351l5.2744,26.5372
				c0.0362,0.1806-0.0449,0.3652-0.2031,0.4609l-1.8506,1.1289C71.4382,102.8894,64.0778,104.9567,56.5671,104.9567z
				 M34.1433,97.2595l1.5898,0.9697c6.2754,3.8262,13.4795,5.8486,20.8311,5.8486h0.0029c7.3496,0,14.5517-2.0215,20.8291-5.8486
				l1.5898-0.9697l-5.2148-26.2364c-0.1289-0.6552-0.6318-1.1884-1.2774-1.3564l-15.9296-4.1484l-15.9287,4.1484
				c-0.6465,0.168-1.1485,0.7012-1.2784,1.3564L34.1433,97.2595z"/>
		</g>
		<g>
			<polygon class="st8" points="50.1667,61.697 61.947,61.697 62.945,62.0778 62.194,64.7653 50.9079,64.7653 			"/>
		</g>
		<g>
			<path class="st9" d="M60.5993,68.0886h-8.0967c-0.8798,0-1.5947-0.7149-1.5947-1.5957v-1.7276H62.194v1.7276
				C62.194,67.3737,61.4802,68.0886,60.5993,68.0886"/>
		</g>
		<g>
			<path class="st4" d="M60.5993,68.4548h-8.0967c-1.081,0-1.9609-0.8799-1.9609-1.9619v-2.0928h12.0186v2.0928
				C62.5603,67.5749,61.6804,68.4548,60.5993,68.4548 M51.2741,65.1325v1.3604c0,0.6777,0.5508,1.2295,1.2285,1.2295h8.0967
				c0.6768,0,1.2285-0.5518,1.2285-1.2295v-1.3604H51.2741z"/>
		</g>
		<g>
			<path class="st10" d="M54.4831,61.697c-1.7734-0.7783-3.0107-2.5489-3.0107-4.6084c0-1.2149,0.4316-2.3291,1.1484-3.1992
				c0.9229-1.1182,6.7275-1.1739,7.6475-0.1348c0.7861,0.8887,1.2646,2.0557,1.2646,3.334c0,2.0595-1.2373,3.8301-3.0088,4.6084"/>
		</g>
		<g>
			<path class="st4" d="M54.1638,62.0632c-0.0537,0-0.1094-0.0127-0.1602-0.0371c-1.9541-0.9512-3.167-2.8897-3.167-5.0615
				c0-1.0792,0.3047-2.127,0.8838-3.0303c0.1094-0.1709,0.3369-0.2217,0.5068-0.1123c0.17,0.1093,0.2198,0.3369,0.1114,0.5078
				c-0.5039,0.7842-0.7696,1.6973-0.7696,2.6348c0,1.8886,1.0557,3.5761,2.7549,4.4023c0.1826,0.0879,0.2588,0.3076,0.169,0.4893
				C54.4294,61.987,54.2995,62.0632,54.1638,62.0632"/>
		</g>
		<g>
			<path class="st4" d="M58.8161,62.0358c-0.1357,0-0.2646-0.0732-0.3281-0.2021c-0.0908-0.1816-0.0186-0.4014,0.1631-0.4912
				c1.6679-0.8369,2.7051-2.5137,2.7051-4.3779c0-1.0508-0.3272-2.0499-0.9463-2.8936c-0.1202-0.1631-0.085-0.3916,0.0791-0.5117
				c0.1631-0.1201,0.3925-0.085,0.5117,0.0791c0.7109,0.9687,1.0879,2.1201,1.0879,3.3262c0,2.1435-1.1924,4.0722-3.1094,5.0332
				C58.9265,62.0241,58.8698,62.0358,58.8161,62.0358"/>
		</g>
		<g>
			<path class="st4" d="M62.4792,65.1325H50.6228l-1.9297-7.5957v-0.0449c0-4.333,3.5254-7.8574,7.8574-7.8574
				c4.333,0,7.8564,3.5244,7.8564,7.8574v0.0449l-0.0097,0.0449L62.4792,65.1325z M51.1931,64.4001h10.7168l1.7646-6.9531
				c-0.0244-3.9073-3.2109-7.0791-7.124-7.0791s-7.0986,3.1718-7.124,7.0791L51.1931,64.4001z"/>
		</g>
		<g>
			<path class="st4" d="M49.6442,60.9519h-0.7734c-0.8291,0-1.5049-0.6739-1.5049-1.503v-2.8896c0-0.8291,0.6758-1.503,1.5049-1.503
				h0.3281c0.2022,0,0.3653,0.1631,0.3653,0.3653c0,0.2021-0.1631,0.3662-0.3653,0.3662h-0.3281
				c-0.4248,0-0.7715,0.3457-0.7715,0.7715v2.8896c0,0.4248,0.3467,0.7696,0.7715,0.7696h0.7734
				c0.2012,0,0.3663,0.165,0.3663,0.3662C50.0105,60.7878,49.8454,60.9519,49.6442,60.9519"/>
		</g>
		<g>
			<path class="st4" d="M64.2585,60.9519H63.486c-0.2031,0-0.3681-0.1641-0.3681-0.3672c0-0.2012,0.165-0.3662,0.3681-0.3662h0.7725
				c0.4248,0,0.7715-0.3448,0.7715-0.7696v-2.8896c0-0.4258-0.3467-0.7715-0.7715-0.7715h-0.3281
				c-0.2032,0-0.3662-0.1641-0.3662-0.3662c0-0.2022,0.163-0.3653,0.3662-0.3653h0.3281c0.8291,0,1.5039,0.6739,1.5039,1.503v2.8896
				C65.7624,60.278,65.0876,60.9519,64.2585,60.9519"/>
		</g>
		<g>
			<path class="st4" d="M49.1403,56.6042c-0.0927,0-0.1836-0.0342-0.2558-0.1025c-0.1446-0.1426-0.1475-0.3741-0.0069-0.5196
				c2.0811-2.1308,4.8487-3.3037,7.792-3.3037c2.7725,0,5.4219,1.0576,7.46,2.9776c0.1465,0.1396,0.1533,0.3711,0.0146,0.5185
				c-0.1396,0.1465-0.3711,0.1543-0.5185,0.0156c-1.9014-1.7929-4.3711-2.7793-6.9561-2.7793c-2.7451,0-5.3252,1.0957-7.2666,3.084
				C49.3308,56.5681,49.236,56.6042,49.1403,56.6042"/>
		</g>
		<g>
			<path class="st4" d="M62.945,62.0632H50.1667c-0.2031,0-0.3672-0.1641-0.3672-0.3662c0-0.2041,0.1641-0.3672,0.3672-0.3672
				H62.945c0.2031,0,0.3662,0.1631,0.3662,0.3672C63.3112,61.8991,63.1481,62.0632,62.945,62.0632"/>
		</g>
		<g>
			<path class="st1" d="M59.1804,55.4216c0,0.7256-0.5879,1.3125-1.3125,1.3125s-1.3125-0.5869-1.3125-1.3125
				c0-0.7246,0.5879-1.3115,1.3125-1.3115S59.1804,54.697,59.1804,55.4216"/>
		</g>
		<g>
			<path class="st1" d="M60.1179,57.3825c0,0.294-0.2383,0.5313-0.5303,0.5313c-0.293,0-0.5303-0.2373-0.5303-0.5313
				c0-0.292,0.2373-0.5293,0.5303-0.5293C59.8796,56.8532,60.1179,57.0905,60.1179,57.3825"/>
		</g>
		<g>
			<path class="st4" d="M61.0827,64.0866c-0.5215,0-0.7812-0.3926-0.9531-0.6533c-0.1621-0.2471-0.2315-0.3242-0.3399-0.3242
				c-0.1084,0-0.1777,0.0771-0.3408,0.3242c-0.1709,0.2607-0.4316,0.6533-0.9521,0.6533c-0.5215,0-0.7803-0.3926-0.9522-0.6533
				c-0.164-0.2471-0.2314-0.3242-0.3408-0.3242c-0.1094,0-0.1777,0.0771-0.3408,0.3242c-0.1729,0.2607-0.4326,0.6533-0.9522,0.6533
				c-0.5214,0-0.7802-0.3926-0.9531-0.6533c-0.1631-0.2471-0.2324-0.3242-0.3398-0.3242c-0.1094,0-0.1787,0.0771-0.3428,0.3242
				c-0.1719,0.2607-0.4316,0.6533-0.9512,0.6533c-0.5205,0-0.7822-0.3926-0.9541-0.6533c-0.1631-0.2471-0.2314-0.3242-0.3408-0.3242
				c-0.2021,0-0.3662-0.1641-0.3662-0.3672c0-0.2012,0.1641-0.3662,0.3662-0.3662c0.5205,0,0.7813,0.3926,0.9531,0.6533
				c0.1631,0.2471,0.2315,0.3252,0.3418,0.3252c0.1084,0,0.1768-0.0781,0.3408-0.3252c0.1709-0.2607,0.4327-0.6533,0.9532-0.6533
				c0.5195,0,0.7793,0.3926,0.9511,0.6533c0.1651,0.2471,0.2325,0.3252,0.3418,0.3252c0.1084,0,0.1768-0.0781,0.3409-0.3252
				c0.1728-0.2607,0.4316-0.6533,0.9521-0.6533s0.7803,0.3926,0.9522,0.6533c0.164,0.2471,0.2314,0.3252,0.3408,0.3252
				c0.1084,0,0.1767-0.0781,0.3418-0.3252c0.1709-0.2607,0.4306-0.6533,0.9511-0.6533c0.5206,0,0.7793,0.3926,0.9512,0.6533
				c0.1641,0.2471,0.2324,0.3252,0.3418,0.3252c0.2012,0,0.3662,0.1631,0.3662,0.3662
				C61.4489,63.9216,61.2839,64.0866,61.0827,64.0866"/>
		</g>
		<g>
			<polygon class="st11" points="66.8103,50.5124 56.3942,49.8171 45.9792,50.5124 44.4147,68.6892 49.3376,70.4421 
				49.5866,54.1237 50.3327,55.8591 62.4558,55.8591 63.2009,54.1237 63.4509,70.4421 68.3737,68.6892 			"/>
		</g>
	</g>
	<g>
		<defs>
			<polygon id="SVGID_7_" points="45.9792,50.5104 44.4147,68.6892 49.3376,70.4421 49.5866,54.1237 50.3327,55.8591 
				62.4558,55.8591 63.2009,54.1237 63.4509,70.4421 68.3737,68.6892 66.8103,50.5104 56.3942,49.8171 			"/>
		</defs>
		<clipPath id="SVGID_8_">
			<use xlink:href="#SVGID_7_"  style="overflow:visible;"/>
		</clipPath>
		<g class="st12">
			<path class="st4" d="M71.5661,52.7175c0,2.9199-6.9863,5.2861-15.6015,5.2861c-8.6172,0-15.6026-2.3662-15.6026-5.2861
				c0-2.9209,6.9854-5.2871,15.6026-5.2871C64.5798,47.4304,71.5661,49.7966,71.5661,52.7175"/>
		</g>
	</g>
	<g>
		<g>
			<path class="st4" d="M63.4509,70.8806c-0.0889,0-0.1758-0.0264-0.251-0.0782c-0.1152-0.08-0.1865-0.2128-0.1875-0.3545
				l-0.2187-14.3085c-0.0821,0.0986-0.2051,0.1582-0.3379,0.1582H50.3327c-0.1328,0-0.2558-0.0596-0.3369-0.1582l-0.2197,14.3085
				c-0.002,0.1417-0.0713,0.2745-0.1885,0.3545c-0.1162,0.0801-0.2637,0.1006-0.3975,0.0528l-4.9218-1.753
				c-0.1885-0.0664-0.3086-0.2519-0.2911-0.4511l1.5635-18.1768c0.0186-0.2168,0.1914-0.3867,0.4082-0.4004l10.417-0.6953
				c0.0186,0,0.0381,0,0.0586,0l10.4151,0.6953c0.2158,0.0137,0.3886,0.1836,0.4082,0.4004l1.5644,18.1768
				c0.0166,0.1992-0.1025,0.3847-0.29,0.4511l-4.9248,1.753C63.5495,70.8728,63.4997,70.8806,63.4509,70.8806z M63.2009,53.6843
				c0.0283,0,0.0576,0.0019,0.0859,0.0078c0.2031,0.0391,0.3516,0.2168,0.3535,0.4238l0.2403,15.707l4.0273-1.4335L66.405,50.9245
				l-10.0108-0.667l-10.0107,0.667l-1.5029,17.4649l4.0283,1.4335l0.2392-15.707c0.003-0.207,0.1504-0.3847,0.3536-0.4238
				c0.205-0.04,0.4062,0.0674,0.4882,0.2568l0.6319,1.4707h11.5449l0.6318-1.4707C62.8688,53.7858,63.029,53.6843,63.2009,53.6843z"
				/>
		</g>
		<g>
			<path class="st5" d="M74.7312,49.8718c0,2.416-8.1338,4.374-18.167,4.374s-18.1661-1.958-18.1661-4.374
				c0-2.4151,8.1329-4.3726,18.1661-4.3726S74.7312,47.4567,74.7312,49.8718"/>
		</g>
		<g>
			<path class="st4" d="M56.5642,54.6843c-9.0186,0-18.6045-1.6865-18.6045-4.8125c0-3.1255,9.5859-4.812,18.6045-4.812
				c9.0205,0,18.6064,1.6865,18.6064,4.812C75.1706,52.9978,65.5847,54.6843,56.5642,54.6843z M56.5642,45.9392
				c-4.8184,0-9.3438,0.4506-12.7422,1.2685c-3.6758,0.8828-4.9854,1.9561-4.9854,2.6641c0,0.709,1.3096,1.7812,4.9854,2.666
				c3.3984,0.8174,7.9238,1.2695,12.7422,1.2695c4.8193,0,9.3447-0.4521,12.7421-1.2695c3.6758-0.8848,4.9854-1.957,4.9854-2.666
				c0-0.708-1.3096-1.7813-4.9854-2.6641C65.9089,46.3898,61.3835,45.9392,56.5642,45.9392z"/>
		</g>
		<g>
			<path class="st5" d="M65.0183,48.1589l-1.2256-7.9058c0-1.0112-3.2364-1.8305-7.2285-1.8305
				c-3.9922,0-7.2286,0.8193-7.2286,1.8305l-1.2255,7.9058c-0.0137,0.0498-0.0235,0.0996-0.0235,0.1523
				c0,1.1856,3.7959,2.1465,8.4776,2.1465c4.6816,0,8.4775-0.9609,8.4775-2.1465C65.0417,48.2585,65.0319,48.2087,65.0183,48.1589"
				/>
		</g>
		<g>
			<path class="st4" d="M56.5642,50.8972c-4.294,0-8.9161-0.8096-8.9161-2.586c0-0.0781,0.0108-0.1562,0.0323-0.2431l1.2168-7.8535
				c0.0722-1.7637,5.0341-2.2305,7.667-2.2305c2.6328,0,7.5957,0.4668,7.667,2.2305L65.448,48.07
				c0.0224,0.085,0.0332,0.1641,0.0332,0.2412C65.4812,50.0876,60.8581,50.8972,56.5642,50.8972z M56.5642,38.862
				c-4.4795,0-6.7901,0.9751-6.7901,1.3911l-0.0049,0.0674l-1.2285,7.9321l-0.0068,0.0235
				c-0.0078,0.0254-0.0088,0.0351-0.0088,0.0361c0,0.5781,2.8379,1.708,8.0391,1.708c5.2011,0,8.039-1.1299,8.039-1.709
				c0,0-0.001-0.0097-0.0088-0.0351l-0.0097-0.0498l-1.2305-7.9395v-0.0337C63.3542,39.8371,61.0437,38.862,56.5642,38.862z"/>
		</g>
		<g>
			<path class="st5" d="M63.7937,40.2531c0,1.0117-3.2374,1.8311-7.2295,1.8311c-3.9922,0-7.2286-0.8194-7.2286-1.8311
				c0-1.0112,3.2364-1.8305,7.2286-1.8305C60.5563,38.4226,63.7937,39.2419,63.7937,40.2531"/>
		</g>
		<g>
			<path class="st4" d="M56.5642,42.5236c-2.6514,0-7.667-0.4751-7.667-2.2705c0-1.7954,5.0156-2.269,7.667-2.269
				c2.6523,0,7.6679,0.4736,7.6679,2.269C64.2321,42.0485,59.2165,42.5236,56.5642,42.5236z M56.5642,38.862
				c-4.4795,0-6.7901,0.9751-6.7901,1.3911c0,0.4165,2.3106,1.3916,6.7901,1.3916s6.79-0.9751,6.79-1.3916
				C63.3542,39.8371,61.0437,38.862,56.5642,38.862z"/>
		</g>
		<g>
			<polygon class="st5" points="70.6521,94.9411 64.4948,92.8229 65.2214,86.5329 69.7351,87.3815 			"/>
		</g>
		<g>
			<path class="st4" d="M70.6521,95.3796c-0.0479,0-0.0967-0.0068-0.1436-0.0225l-6.1563-2.1191
				c-0.1953-0.0674-0.3173-0.2617-0.2939-0.4649l0.7275-6.291c0.0137-0.1201,0.0762-0.2304,0.1748-0.3017
				c0.0987-0.0733,0.2217-0.1016,0.3409-0.0782l4.5136,0.8477c0.1885,0.0361,0.3321,0.1885,0.3555,0.3789l0.9121,7.5098
				c0.0069,0.0332,0.0117,0.0664,0.0117,0.1025c0,0.2432-0.1972,0.4385-0.4394,0.4385H70.6521z M64.9714,92.5222l5.1601,1.7754
				l-0.7939-6.544l-3.7344-0.7021L64.9714,92.5222z"/>
		</g>
		<g>
			<polygon class="st5" points="42.5397,94.9411 48.698,92.8229 47.9714,86.5329 43.4577,87.3815 			"/>
		</g>
		<g>
			<path class="st4" d="M42.5397,95.3796c-0.0986,0-0.1962-0.0322-0.2763-0.0957c-0.1162-0.0957-0.1768-0.2451-0.1592-0.3955
				l0.918-7.5596c0.0224-0.1904,0.165-0.3428,0.3545-0.3789l4.5127-0.8477c0.1201-0.0234,0.2431,0.0049,0.3418,0.0782
				c0.0976,0.0713,0.1621,0.1816,0.1767,0.3017l0.7266,6.291c0.0224,0.2032-0.0987,0.3975-0.294,0.4649l-6.1572,2.1191
				C42.6355,95.3728,42.5886,95.3796,42.5397,95.3796z M43.8542,87.7536l-0.7939,6.544l5.1611-1.7754l-0.6328-5.4707
				L43.8542,87.7536z"/>
		</g>
		<g>
			<path class="st13" d="M53.8464,79.5563c-0.6348-0.5839-1.585-0.7558-2.4111-0.3603c-0.8252,0.3965-1.2852,1.2451-1.2266,2.1055
				c0.6357,0.5839,1.5859,0.7568,2.4101,0.3613C53.445,81.2653,53.904,80.4167,53.8464,79.5563"/>
		</g>
		<g>
			<path class="st14" d="M51.6823,82.3161L51.6823,82.3161c-0.6582,0-1.2861-0.2461-1.7705-0.6904l-0.1289-0.1192l-0.0127-0.1757
				c-0.0722-1.0723,0.5078-2.0664,1.4766-2.5303c0.3545-0.1709,0.7334-0.2578,1.125-0.2578c0.6582,0,1.2881,0.2451,1.7715,0.6894
				l0.1289,0.1192l0.0117,0.1758c0.0723,1.0722-0.5068,2.0654-1.4746,2.5312C52.4528,82.2282,52.0739,82.3161,51.6823,82.3161z
				 M50.6433,81.0935c0.2998,0.2216,0.6621,0.3437,1.039,0.3437l0,0c0.2598,0,0.5108-0.0576,0.7471-0.1709
				c0.5879-0.2822,0.959-0.8594,0.9814-1.501c-0.5039-0.3769-1.206-0.4511-1.7851-0.1728
				C51.0378,79.8737,50.6657,80.4509,50.6433,81.0935z"/>
		</g>
		<g>
			<path class="st4" d="M52.9567,78.7194c3.3545,1.9639,12.3145,12.917,15.587,14.5528"/>
		</g>
		<g>
			<path class="st14" d="M68.5417,93.7116c-0.0645,0-0.1328-0.0156-0.1953-0.0469c-1.7637-0.8818-4.8994-4.1406-8.2178-7.5918
				c-2.8662-2.9785-5.8301-6.0585-7.3945-6.9746c-0.209-0.122-0.2793-0.3916-0.1572-0.6005c0.123-0.209,0.3925-0.2793,0.6015-0.1563
				c1.668,0.9756,4.5401,3.9629,7.583,7.1231c3.1211,3.2451,6.3506,6.6005,7.9785,7.415c0.2159,0.1074,0.3047,0.3721,0.1954,0.5889
				C68.8581,93.6228,68.7038,93.7116,68.5417,93.7116z"/>
		</g>
		<g>
			<path class="st15" d="M53.6071,74.571c-0.3681-1.3438-0.5879-2.9785-1.6133-2.834c-1.0244,0.1426-1.1347,1.1475-1.9414,1.2666
				c-0.8056,0.1182-1.0127,0.2529-0.8808,0.8154c0.1299,0.5625,1.3369,3.9659,2.3164,3.5518
				C52.4655,76.9548,53.9772,75.9138,53.6071,74.571"/>
		</g>
		<g>
			<path class="st16" d="M51.3171,77.8444L51.3171,77.8444c-1.457-0.0009-2.5645-3.8867-2.5723-3.9267
				c-0.0547-0.2276-0.1035-0.5655,0.0908-0.8516c0.2295-0.3369,0.6758-0.4277,1.1534-0.4971
				c0.2099-0.0312,0.3496-0.1757,0.5781-0.4306c0.2949-0.3291,0.6631-0.7383,1.3652-0.8369
				c0.0625-0.0088,0.126-0.0127,0.1856-0.0127c1.1181,0,1.457,1.3554,1.7549,2.5527c0.0517,0.2061,0.1035,0.4131,0.1582,0.6143
				c0.4199,1.5283-1.0147,2.7431-2.3721,3.3183C51.5495,77.82,51.4343,77.8444,51.3171,77.8444z M49.573,73.5612
				c0.0019,0.0264,0.0058,0.0762,0.0263,0.1582c0.0498,0.2198,0.335,1.0782,0.7295,1.8955
				c0.6055,1.2471,0.9609,1.3448,0.9863,1.3516c0.7745-0.3291,2.1582-1.2285,1.8682-2.2793
				c-0.0547-0.206-0.1094-0.4199-0.1621-0.6328c-0.21-0.8418-0.4707-1.8887-0.9033-1.8887c-0.0196,0-0.041,0.002-0.0625,0.0049
				c-0.3867,0.0547-0.584,0.2754-0.836,0.5547c-0.2656,0.2969-0.5683,0.6328-1.1025,0.7119
				C49.7624,73.4899,49.6257,73.5349,49.573,73.5612z"/>
		</g>
		<g>
			<path class="st15" d="M49.571,79.112c-1.2148,0.124-3.0566,0.0986-3.6016-0.375c-0.5449-0.4756,0.3936-0.6162,0.0098-1.5439
				c-0.3848-0.9268,0.043-1.3545,0.5996-1.584c0.5576-0.2305,1.1553-1.21,1.5977-1.6162c0.4414-0.4063,1.5879,0.1767,1.9023,0.749
				C50.3923,75.3151,49.571,79.112,49.571,79.112"/>
		</g>
		<g>
			<path class="st16" d="M48.2917,79.614c-1.3154,0-2.1943-0.1836-2.6104-0.5469c-0.5361-0.4658-0.2714-0.9317-0.1591-1.1299
				c0.1025-0.1865,0.167-0.2969,0.0508-0.5762c-0.2276-0.5478-0.2403-1.0254-0.0381-1.4218
				c0.1611-0.3155,0.456-0.5625,0.8759-0.7373c0.2579-0.1055,0.6182-0.5459,0.9073-0.9004
				c0.1963-0.2403,0.3808-0.4668,0.5615-0.6319c0.1787-0.165,0.4209-0.2509,0.7002-0.2509c0.6777,0,1.5576,0.5195,1.8838,1.1123
				c0.3437,0.623-0.1446,3.1953-0.4639,4.6728l-0.0674,0.3115l-0.3174,0.0323C49.195,79.5915,48.737,79.614,48.2917,79.614z
				 M46.2634,78.4099c0.1826,0.1513,0.8193,0.3252,2.0283,0.3252c0.3047,0,0.6182-0.0098,0.917-0.0332
				c0.332-1.5977,0.5976-3.4004,0.4795-3.7569c-0.1748-0.3056-0.7598-0.6484-1.1084-0.6484c-0.0693,0-0.1006,0.0146-0.1065,0.0195
				c-0.1337,0.1221-0.2988,0.3262-0.4755,0.542c-0.3877,0.4736-0.7881,0.9648-1.251,1.1553
				c-0.2227,0.0918-0.3662,0.2021-0.4307,0.3252c-0.0781,0.1562-0.0556,0.3867,0.0684,0.6875
				c0.2793,0.6738,0.0342,1.1084-0.0977,1.3418C46.278,78.3806,46.2712,78.3952,46.2634,78.4099z"/>
		</g>
		<g>
			<path class="st15" d="M50.5876,73.9411c-1.0938-0.4004-1.3643-0.3291-1.498,0.5498c-0.1329,0.8779-0.878,1.001-0.878,1.001
				s-1.1601,0.3887-0.6533,0.8945c0.5059,0.5069,0.3359,1.4658,1.1318,1.7598c0.7969,0.293,2.0518,0.5937,2.9248-0.5068
				C52.488,76.5407,52.7175,74.7233,50.5876,73.9411"/>
		</g>
		<g>
			<path class="st16" d="M50.0036,78.8581L50.0036,78.8581c-0.4394,0-0.9189-0.0996-1.4668-0.3008
				c-0.665-0.2451-0.8584-0.831-1-1.2578c-0.0801-0.2412-0.1553-0.4678-0.289-0.6016c-0.2901-0.289-0.2725-0.5849-0.2373-0.7343
				c0.1259-0.5362,0.8447-0.8145,1.0615-0.8877l0.0683-0.0176c0.0655-0.0137,0.4366-0.1143,0.5147-0.6338
				c0.0527-0.3457,0.1777-1.1553,1.0137-1.1553c0.2548,0,0.5644,0.0752,1.0703,0.2598c1.2529,0.46,1.7031,1.2236,1.8603,1.7842
				c0.2334,0.8301-0.0058,1.8008-0.6396,2.6006C51.4606,78.5388,50.8034,78.8581,50.0036,78.8581z M47.9187,76.1286
				c0.246,0.2725,0.3554,0.6026,0.4521,0.8955c0.1318,0.4004,0.2129,0.6143,0.4717,0.709c0.4472,0.166,0.8271,0.2461,1.1611,0.2461
				l0,0c0.5264,0,0.9414-0.2002,1.2686-0.6113c0.4521-0.5703,0.6367-1.2666,0.4824-1.8174
				c-0.1494-0.5283-0.5918-0.9307-1.3174-1.1963c-0.2432-0.0889-0.5869-0.208-0.7685-0.208c-0.0176,0-0.0284,0.0019-0.0362,0.0019
				c-0.0166,0.0264-0.0644,0.1182-0.1084,0.4082c-0.1386,0.9092-0.7988,1.2774-1.1992,1.3604
				C48.1765,75.9724,48.0105,76.0593,47.9187,76.1286z"/>
		</g>
		<g>
			<path class="st15" d="M53.6989,77.7077c-1.2295,1.249-2.8281,0.3291-3.3545,0.4746c-0.5244,0.1455,0.7881-2.2705,0.7774-2.6191
				c-0.0401-1.501,0.8076-2.71,2.1836-1.9688C53.8913,73.9089,55.1843,76.197,53.6989,77.7077"/>
		</g>
		<g>
			<path class="st16" d="M52.0661,78.8122c-0.417,0-0.8027-0.0752-1.1123-0.1348c-0.1885-0.0371-0.3662-0.0712-0.4687-0.0712
				c-0.0098,0-0.0196,0-0.0274,0.0009c-0.0488,0.0137-0.1025,0.0205-0.1533,0.0205h-0.001c-0.1738,0-0.3349-0.0849-0.4287-0.2285
				c-0.2178-0.332-0.0537-0.7871,0.4717-2.0088c0.1308-0.3017,0.3076-0.7109,0.3369-0.8408
				c-0.0186-0.8808,0.2354-1.6553,0.6953-2.1289c0.543-0.5586,1.333-0.6455,2.1358-0.2129
				c0.4873,0.2617,1.1162,1.2432,1.2734,2.2861c0.1484,0.9825-0.1191,1.8555-0.7754,2.5215
				C53.4919,78.5446,52.8366,78.8122,52.0661,78.8122z M50.7438,77.7478c0.1172,0.0156,0.2422,0.04,0.377,0.0673
				c0.2871,0.0557,0.6133,0.1182,0.9453,0.1182c0.542,0,0.9619-0.1699,1.3194-0.5342c0.4609-0.4678,0.6406-1.0644,0.5332-1.7744
				c-0.127-0.8506-0.6397-1.5469-0.8204-1.6455c-0.4511-0.2412-0.8125-0.2324-1.0898,0.0537
				c-0.2969,0.3047-0.4648,0.8731-0.4473,1.5186c0.0059,0.207-0.1006,0.4746-0.4072,1.1875
				C51.0358,77.0104,50.8513,77.4411,50.7438,77.7478z"/>
		</g>
		<g>
			<path class="st15" d="M53.1179,78.2282c-1.0489,0.9737-3.2412,2.2549-4.6182,1.6797c-1.376-0.5752-1.6758-1.0332-1.0117-1.5527
				c0.6641-0.5166,0.7041-1.3809,1.6182-1.3223C50.0202,77.0905,54.4753,76.9675,53.1179,78.2282"/>
		</g>
		<g>
			<path class="st16" d="M49.2731,80.489c-0.3437,0-0.6611-0.0586-0.9433-0.1758c-1.0635-0.4453-1.5449-0.8447-1.6123-1.3379
				c-0.0459-0.3447,0.123-0.6699,0.501-0.9649c0.1855-0.1464,0.3164-0.3388,0.455-0.5429c0.2784-0.4102,0.6221-0.9258,1.46-0.8731
				c0.124,0.0088,0.335,0.0118,0.5781,0.0176c2.4727,0.0537,3.7793,0.2139,4.0537,0.9375c0.0869,0.2285,0.0967,0.5859-0.3476,1
				C52.4108,79.4831,50.6862,80.489,49.2731,80.489z M47.5944,78.8669c0.0352,0.0576,0.2129,0.2754,1.0743,0.6357
				c0.1738,0.0723,0.3769,0.1094,0.6044,0.1094c1.1114,0,2.6563-0.8789,3.5459-1.706c0.0293-0.0264,0.0518-0.0489,0.0674-0.0694
				c-0.3349-0.1904-1.4072-0.3076-3.1924-0.3467c-0.2646-0.0058-0.4736-0.0107-0.6162-0.0195
				c-0.3115-0.0195-0.4131,0.0996-0.6777,0.4912c-0.1621,0.2373-0.3467,0.5098-0.6416,0.7403
				C47.6491,78.7868,47.6081,78.8425,47.5944,78.8669z"/>
		</g>
		<g>
			<path class="st13" d="M58.3981,83.8327c-0.4121-0.7578-1.2539-1.2295-2.163-1.1221c-0.9092,0.1065-1.6202,0.7608-1.8438,1.5928
				c0.4111,0.7588,1.2529,1.2305,2.1631,1.1231C57.4626,85.32,58.1735,84.6657,58.3981,83.8327"/>
		</g>
		<g>
			<path class="st14" d="M56.2976,85.8815L56.2976,85.8815c-0.9561,0-1.835-0.5244-2.293-1.3681l-0.084-0.1543l0.0459-0.1699
				c0.2793-1.0381,1.1504-1.7891,2.2168-1.9151c0.1016-0.0117,0.2061-0.0176,0.3076-0.0176c0.9561,0,1.835,0.5235,2.293,1.3663
				l0.084,0.1552l-0.0459,0.169c-0.2803,1.039-1.1504,1.791-2.2178,1.916C56.5036,85.8747,56.3991,85.8815,56.2976,85.8815z
				 M54.8688,84.2478c0.3223,0.4697,0.8545,0.7548,1.4288,0.7548l0,0c0.0683,0,0.1367-0.0039,0.205-0.0117
				c0.6475-0.0762,1.1875-0.501,1.4161-1.1015c-0.3594-0.5254-0.9893-0.8184-1.6329-0.7432
				C55.6384,83.2214,55.0993,83.6472,54.8688,84.2478z"/>
		</g>
		<g>
			<polygon class="st4" points="61.6647,84.1442 57.1491,87.2331 59.4069,91.0993 64.3679,93.5378 67.0905,89.1579 63.987,84.4147 
							"/>
		</g>
		<g>
			<path class="st4" d="M64.3679,93.9763c-0.0655,0-0.1309-0.0137-0.1934-0.045l-4.9609-2.4384
				c-0.0772-0.0381-0.1406-0.0987-0.1846-0.1719l-2.2588-3.8672c-0.1152-0.1982-0.0586-0.4531,0.1328-0.583l4.5147-3.0889
				c0.0869-0.0586,0.1943-0.0859,0.2998-0.0742l2.3193,0.2715c0.1299,0.0146,0.2451,0.0859,0.3164,0.1953l3.1055,4.7422
				c0.0928,0.1436,0.0947,0.3271,0.0049,0.4717l-2.7227,4.3818C64.6589,93.903,64.5163,93.9763,64.3679,93.9763z M59.7194,90.7634
				l4.4854,2.2051l2.3652-3.8057l-2.8388-4.3359l-1.9532-0.2276l-4.0429,2.7647L59.7194,90.7634z"/>
		</g>
		<g>
			<polygon class="st4" points="58.1901,88.5954 57.1491,90.0671 58.3542,91.944 60.2048,92.489 61.239,91.9997 			"/>
		</g>
		<g>
			<path class="st4" d="M60.2048,92.9284c-0.042,0-0.084-0.0058-0.124-0.0176l-1.8516-0.5449
				c-0.1016-0.0312-0.1885-0.0957-0.2461-0.1836L56.78,90.3024c-0.0957-0.1494-0.0918-0.3437,0.0117-0.4892l1.0391-1.4707
				c0.0771-0.1094,0.2002-0.1768,0.3339-0.1846c0.1338-0.0058,0.2637,0.0459,0.3516,0.1445l3.0498,3.4043
				c0.0928,0.1026,0.1309,0.2432,0.1035,0.3789c-0.0273,0.1358-0.1172,0.251-0.2422,0.3096l-1.0341,0.4912
				C60.3337,92.9138,60.2683,92.9284,60.2048,92.9284z M58.6345,91.569l1.5332,0.4522l0.3525-0.166l-2.29-2.5557l-0.5508,0.7783
				L58.6345,91.569z"/>
		</g>
		<g>
			<path class="st13" d="M55.7448,80.6511c1.0508-0.0938,1.9864-0.8106,2.3076-1.8828c0.3204-1.0713-0.0703-2.1846-0.8955-2.8399
				c-1.0498,0.0947-1.9863,0.8115-2.3056,1.8828C54.53,78.8835,54.9187,79.9958,55.7448,80.6511"/>
		</g>
		<g>
			<path class="st14" d="M55.6091,81.1042l-0.1367-0.1084c-0.9981-0.792-1.4073-2.0918-1.043-3.3096
				c0.3652-1.2187,1.4199-2.08,2.6885-2.1953l0.1748-0.0146l0.1367,0.1084c0.999,0.791,1.4092,2.0908,1.043,3.3095
				c-0.3633,1.2188-1.42,2.0801-2.6875,2.1934L55.6091,81.1042z M57.0202,76.3884c-0.8291,0.1416-1.5058,0.7344-1.75,1.5488
				c-0.2431,0.8154-0.0029,1.6807,0.6133,2.2529c0.8281-0.1396,1.5049-0.7324,1.748-1.5478
				C57.8757,77.8278,57.6355,76.9616,57.0202,76.3884z"/>
		</g>
		<g>
			<path class="st17" d="M63.4929,73.6882c0.1943-0.2803,0.3125-0.6006,0.3369-0.9082l0.0635-0.834
				c0.0088-0.1152-0.0821-0.1816-0.1885-0.1367l-0.7725,0.3174c-0.2871,0.1171-0.5547,0.3291-0.7627,0.5996L53.57,83.9733
				c-0.0683,0.0918-0.0683,0.208,0,0.2598l0.8174,0.5938l0.8164,0.5918c0.0693,0.0517,0.1797,0.0156,0.2451-0.0791L63.4929,73.6882z
				"/>
		</g>
	</g>
	<g>
		<defs>
			<path id="SVGID_9_" d="M63.7048,71.8093l-0.7725,0.3183c-0.2871,0.1162-0.5547,0.3282-0.7627,0.5987L53.57,83.9733
				c-0.0683,0.0918-0.0683,0.208,0,0.2598l0.8174,0.5938l0.8164,0.5918c0.0693,0.0517,0.1807,0.0156,0.2451-0.0791l8.044-11.6514
				c0.1943-0.2803,0.3125-0.6006,0.3369-0.9082l0.0635-0.834c0.0078-0.0908-0.0489-0.1523-0.1241-0.1523
				C63.7487,71.7937,63.7272,71.7995,63.7048,71.8093"/>
		</defs>
		<clipPath id="SVGID_10_">
			<use xlink:href="#SVGID_9_"  style="overflow:visible;"/>
		</clipPath>
		<g class="st18">
			
				<rect x="51.5752" y="77.9228" transform="matrix(0.5885 -0.8085 0.8085 0.5885 -38.97 80.6591)" class="st19" width="16.365" height="1.3848"/>
		</g>
	</g>
	<g>
		<g>
			<path class="st20" d="M55.2761,85.7341L55.2761,85.7341c-0.0899,0-0.1739-0.0264-0.2442-0.0781l-1.6338-1.1866
				c-0.0908-0.0664-0.1503-0.167-0.1669-0.2832c-0.0196-0.1328,0.0195-0.2744,0.1074-0.3896l8.5996-11.2471
				c0.2402-0.3154,0.5459-0.5547,0.8828-0.6943l0.7715-0.3184c0.1738-0.0703,0.3633-0.0303,0.4814,0.0967
				c0.0821,0.0879,0.1211,0.207,0.1114,0.335l-0.0645,0.832c-0.0273,0.3642-0.1611,0.7285-0.3867,1.0547l-8.044,11.6494
				C55.5905,85.6491,55.4353,85.7341,55.2761,85.7341z M53.8581,84.0798l1.4004,1.0185l7.9932-11.5752
				c0.165-0.2382,0.2656-0.5107,0.2861-0.7666l0.0449-0.581l-0.54,0.2217c-0.2373,0.0976-0.4639,0.2783-0.6406,0.5078
				L53.8581,84.0798z"/>
		</g>
		<g>
			<path class="st21" d="M58.5856,86.1159c-1.1259,1.7403-3.2294-0.5703-3.2294-0.5703l-1-0.7275l-1-0.7266
				c0,0-2.8467-1.2871-1.5381-2.8955c0,0-2.4698,1.3682,1.8799,4.5303C58.0456,88.8864,58.5856,86.1159,58.5856,86.1159"/>
		</g>
		<g>
			<path class="st20" d="M57.0856,87.5329c-0.0009,0-0.0009,0-0.0009,0c-0.9297-0.001-2.127-0.5293-3.5606-1.5703
				c-1.8525-1.3486-2.7597-2.5762-2.6943-3.6504c0.0566-0.9248,0.8135-1.3535,0.8457-1.3721c0.123-0.0683,0.2764-0.04,0.3672,0.0684
				c0.0898,0.1074,0.0908,0.2637,0.0029,0.3711c-0.2412,0.2969-0.3252,0.582-0.2559,0.8769
				c0.1749,0.7403,1.2774,1.3838,1.6875,1.5684c0.0176,0.0078,0.0352,0.0176,0.0518,0.0293l2,1.4531
				c0.0156,0.0117,0.0303,0.0254,0.043,0.041c0.2861,0.3125,1.1885,1.1231,1.9326,1.1231l0,0c0.3369,0,0.6103-0.169,0.834-0.5147
				c0.0771-0.1181,0.2256-0.165,0.3564-0.1132c0.1299,0.0527,0.2041,0.1894,0.1778,0.3271
				C58.7819,86.6413,58.2897,87.5329,57.0856,87.5329z M51.5778,83.1062c0.2676,0.5898,0.9102,1.3779,2.292,2.3818
				c1.1983,0.8721,2.1944,1.3564,2.9668,1.4433c-0.8281-0.2949-1.541-1.0224-1.6758-1.1669l-1.9531-1.419
				C53.029,84.2604,52.1149,83.8073,51.5778,83.1062z"/>
		</g>
		<g>
			<polygon class="st4" points="51.1735,84.1442 55.6901,87.2331 53.4323,91.0993 48.4714,93.5378 45.7497,89.1579 48.8522,84.4147 
							"/>
		</g>
		<g>
			<path class="st4" d="M48.4724,93.9763c-0.1485,0-0.292-0.0733-0.3741-0.2061l-2.7226-4.3818
				c-0.0899-0.1446-0.0869-0.3281,0.0049-0.4717l3.1054-4.7422c0.0713-0.1094,0.1875-0.1807,0.3164-0.1953l2.3194-0.2715
				c0.1054-0.0117,0.2119,0.0156,0.2998,0.0742l4.5146,3.0889c0.1914,0.1299,0.2491,0.3848,0.1319,0.583l-2.2578,3.8672
				c-0.044,0.0732-0.1075,0.1338-0.1846,0.1719l-4.961,2.4384C48.6032,93.9626,48.5368,93.9763,48.4724,93.9763z M46.2702,89.1628
				l2.3633,3.8057l4.4863-2.2051l1.9844-3.3994l-4.043-2.7647l-1.9541,0.2276L46.2702,89.1628z"/>
		</g>
		<g>
			<polygon class="st4" points="54.6491,88.5954 55.6901,90.0671 54.486,91.944 52.6345,92.489 51.6003,91.9997 			"/>
		</g>
		<g>
			<path class="st4" d="M52.6345,92.9284c-0.0635,0-0.128-0.0146-0.1875-0.042l-1.0352-0.4912
				c-0.125-0.0586-0.2138-0.1738-0.2422-0.3096c-0.0273-0.1357,0.0108-0.2763,0.1035-0.3789l3.0499-3.4043
				c0.0888-0.0986,0.2167-0.1503,0.3515-0.1445c0.1338,0.0078,0.2559,0.0752,0.334,0.1846l1.0391,1.4707
				c0.1035,0.1455,0.1074,0.3398,0.0107,0.4892l-1.2031,1.8799c-0.0576,0.0879-0.1436,0.1524-0.2451,0.1836l-1.8516,0.5449
				C52.7185,92.9226,52.6774,92.9284,52.6345,92.9284z M52.319,91.8552l0.3526,0.166l1.5342-0.4522l0.9541-1.4912l-0.5508-0.7783
				L52.319,91.8552z"/>
		</g>
		<g>
			<path class="st21" d="M49.3669,93.737c-0.2871,0.4219-0.9287,0.4863-1.4316,0.1436c-0.504-0.3428-0.6778-0.9639-0.3916-1.3848
				c0.288-0.4229,0.9296-0.4873,1.4335-0.1455C49.4802,92.6931,49.656,93.3132,49.3669,93.737"/>
		</g>
		<g>
			<path class="st20" d="M48.6257,94.3933c-0.2998,0-0.5947-0.0938-0.8555-0.2705c-0.3008-0.2041-0.5176-0.4971-0.6084-0.8252
				c-0.0976-0.3477-0.0478-0.6905,0.1416-0.9678c0.2129-0.3135,0.5713-0.4932,0.9834-0.4932c0.2988,0,0.5957,0.0947,0.8545,0.2725
				c0.3008,0.2041,0.5166,0.4971,0.6084,0.8252c0.0977,0.3457,0.0479,0.6904-0.1406,0.9678
				C49.3962,94.2136,49.0378,94.3933,48.6257,94.3933z M48.2868,92.4235c-0.2158,0-0.3974,0.086-0.501,0.2364
				c-0.0888,0.1308-0.1113,0.3007-0.0615,0.4785c0.0557,0.1953,0.1885,0.374,0.375,0.501c0.1612,0.1093,0.3477,0.1689,0.5264,0.1689
				c0.2148,0,0.3984-0.0859,0.5-0.2354c0.0898-0.1328,0.1113-0.3027,0.0615-0.4804c-0.0557-0.1953-0.1885-0.3731-0.375-0.5
				C48.6521,92.4831,48.4655,92.4235,48.2868,92.4235z"/>
		</g>
	</g>
</g>
<g>
	<path class="st4" d="M69.9362,114.8532l1.5655-0.8994l0.0713,0.1231c0.165,0.2851,0.2753,0.5585,0.3359,0.8144
		c0.0498,0.2412,0.0488,0.4951-0.0049,0.7617c-0.124,0.5977-0.457,1.0518-1,1.3653c-0.5303,0.3046-1.0937,0.375-1.6924,0.2099
		c-0.5996-0.167-1.0537-0.5205-1.3633-1.0586c-0.3164-0.5498-0.3925-1.1259-0.2285-1.7304
		c0.1641-0.6045,0.5205-1.0664,1.0723-1.3848c0.2959-0.1699,0.6074-0.2686,0.9336-0.2959c0.3135-0.0215,0.6689,0.0361,1.0615,0.1699
		l-0.1836,0.626c-0.5488-0.2354-1.0469-0.2246-1.4922,0.0322c-0.4023,0.2305-0.6582,0.5615-0.7705,0.9961
		c-0.1152,0.4268-0.0547,0.8457,0.1807,1.2549c0.2422,0.4228,0.5928,0.6826,1.0527,0.7812
		c0.4297,0.0899,0.8086,0.0401,1.1416-0.1503c0.2803-0.1612,0.4776-0.4004,0.5928-0.7188c0.1133-0.3203,0.1084-0.6191-0.0176-0.9023
		l-0.9463,0.5439L69.9362,114.8532z"/>
	
		<rect x="73.5288" y="110.5162" transform="matrix(0.8665 -0.4992 0.4992 0.8665 -46.3968 51.9115)" class="st4" width="0.6596" height="4.3717"/>
	<polygon class="st4" points="76.6257,109.3024 78.4958,112.5544 77.9255,112.8825 76.0544,109.6325 75.1833,110.1335 
		74.8737,109.5964 77.1843,108.2663 77.4929,108.8034 	"/>
	<path class="st4" d="M81.7839,105.8884l0.3887,0.6767c-0.4903-0.0869-0.9121-0.0283-1.2647,0.1748
		c-0.3887,0.2247-0.6377,0.5538-0.7432,0.9854c-0.1084,0.4326-0.0459,0.8506,0.1856,1.2529
		c0.2275,0.3975,0.5566,0.6563,0.9814,0.7754c0.4258,0.1182,0.8321,0.0654,1.2237-0.1582c0.1992-0.1162,0.3525-0.2471,0.4551-0.3935
		c0.0595-0.0782,0.1162-0.168,0.1679-0.2725c0.0518-0.1045,0.1026-0.2227,0.1504-0.3555l0.3975,0.6905
		c-0.2198,0.375-0.5117,0.665-0.8711,0.873c-0.541,0.3115-1.1114,0.3867-1.711,0.2305c-0.6015-0.1621-1.0566-0.5117-1.3671-1.0498
		c-0.2774-0.4825-0.3633-1.0049-0.2627-1.5664c0.124-0.6895,0.5009-1.2129,1.124-1.5713
		C80.9782,105.9841,81.3601,105.8864,81.7839,105.8884"/>
	<path class="st1" d="M84.5554,105.7185c-0.3067-0.5332-0.3741-1.1036-0.2041-1.71c0.1699-0.6074,0.5273-1.0684,1.0732-1.3838
		c0.5401-0.3096,1.1143-0.3828,1.7217-0.2197c0.6113,0.164,1.0713,0.5156,1.3828,1.0566c0.3125,0.544,0.3857,1.1192,0.2139,1.7227
		c-0.1719,0.6054-0.5342,1.0683-1.0869,1.3857c-0.4893,0.2832-1.0264,0.3643-1.6104,0.251
		C85.4011,106.694,84.905,106.3259,84.5554,105.7185 M85.1345,105.3933c0.2412,0.4179,0.5801,0.6816,1.0166,0.789
		c0.4345,0.1084,0.8359,0.0576,1.2031-0.1533c0.3975-0.2285,0.6533-0.5586,0.7695-0.9902c0.1123-0.4356,0.0557-0.8526-0.1757-1.251
		c-0.2325-0.4043-0.5616-0.665-0.9883-0.7822c-0.4268-0.1211-0.8389-0.0674-1.2344,0.1611
		c-0.3945,0.2275-0.6475,0.5557-0.7607,0.9863C84.8493,104.5817,84.906,104.9948,85.1345,105.3933"/>
	
		<rect x="90.5133" y="100.7416" transform="matrix(0.8663 -0.4996 0.4996 0.8663 -39.2721 59.1498)" class="st4" width="0.6597" height="4.3707"/>
	<polygon class="st4" points="94.4362,103.3815 92.1071,99.3347 96.5349,100.6354 95.0192,98.0017 95.5896,97.6735 97.904,101.694 
		93.4802,100.4001 95.0075,103.0524 	"/>
</g>
</svg>
