<?xml version="1.0" encoding="utf-8"?>
<!-- Generator: Adobe Illustrator 21.0.2, SVG Export Plug-In . SVG Version: 6.00 Build 0)  -->
<svg version="1.1" id="Layer_1" xmlns="http://www.w3.org/2000/svg" xmlns:xlink="http://www.w3.org/1999/xlink" x="0px" y="0px"
	 viewBox="0 0 221 225" enable-background="new 0 0 221 225" xml:space="preserve">
<g>
	<g>
		<g>
			<g>
				<circle fill="#FFFFFF" cx="110.373" cy="112.289" r="108.124"/>
			</g>
		</g>
	</g>
	<g>
		<g>
			<g>
				<path fill="#FFFFFF" d="M110.625,206.958c-52.245,0-94.75-42.505-94.75-94.75s42.505-94.75,94.75-94.75
					s94.75,42.505,94.75,94.75S162.87,206.958,110.625,206.958z M110.625,18.458c-51.694,0-93.75,42.056-93.75,93.75
					s42.056,93.75,93.75,93.75s93.75-42.056,93.75-93.75S162.319,18.458,110.625,18.458z"/>
			</g>
		</g>
	</g>
	<g>
		<g>
			<g>
				<path fill="#FFFFFF" d="M110.373,204.458c-50.822,0-92.17-41.347-92.17-92.169c0-50.822,41.348-92.169,92.17-92.169
					s92.169,41.347,92.169,92.169C202.542,163.112,161.195,204.458,110.373,204.458z M110.373,21.119
					c-50.271,0-91.17,40.898-91.17,91.169s40.898,91.169,91.17,91.169c50.271,0,91.169-40.898,91.169-91.169
					S160.644,21.119,110.373,21.119z"/>
			</g>
		</g>
		<g>
			<g>
				<path d="M110.373,13.454c-54.498,0-98.835,44.337-98.835,98.835c0,54.497,44.338,98.835,98.835,98.835
					s98.835-44.338,98.835-98.835C209.208,57.791,164.871,13.454,110.373,13.454z"/>
			</g>
		</g>
	</g>
</g>
<g>
	<g>
		<g>
			<g>
				<g>
					<path fill="#FFFFFF" d="M90.083,170.92c-22.529-8.975-38.504-30.982-38.504-56.673c0-5.888,0.841-11.582,2.406-16.971
						l-1.604-1.604c-1.817,5.875-2.802,12.111-2.802,18.575c0,26.813,16.847,49.746,40.504,58.825V170.92z"/>
				</g>
			</g>
		</g>
	</g>
	<g>
		<g>
			<g>
				<g>
					<path fill="#FFFFFF" d="M136.75,172.39c8.028-3.352,15.23-8.299,21.179-14.474h-2.814c-5.051,4.921-11.513,8.965-18.365,11.911
						V172.39z"/>
				</g>
			</g>
		</g>
	</g>
	<g>
		<g>
			<g>
				<g>
					<path fill="#FFFFFF" d="M88.333,56.135c-3.512,1.474-6.874,3.237-10.031,5.293c0.482,0.482,0.964,0.964,1.447,1.447
						c2.719-1.744,5.595-3.26,8.585-4.561V56.135z"/>
				</g>
			</g>
		</g>
	</g>
	<g>
		<g>
			<g>
				<g>
					<path fill="#FFFFFF" d="M134.027,55.024c0.051,0.771,0.165,1.53,0.368,2.271c22.892,8.798,39.188,31.001,39.188,56.953
						c0,5.777-0.85,11.366-2.266,16.419h2.076c1.417-5.238,2.19-10.739,2.19-16.419C175.583,87.037,158.237,63.817,134.027,55.024z"
						/>
				</g>
			</g>
		</g>
	</g>
</g>
<g>
	<g>
		<g>
			<g>
				<g>
					<path fill="#FFFFFF" d="M63.365,67.068"/>
				</g>
			</g>
		</g>
	</g>
	<g>
		<g>
			<g>
				<g>
					<path fill="#FFFFFF" d="M63.365,68.24c-0.66,0-1.196-0.525-1.196-1.173v-9.244c0-0.648,0.536-1.173,1.196-1.173
						c0.66,0,1.196,0.525,1.196,1.173v9.244C64.561,67.715,64.025,68.24,63.365,68.24z"/>
				</g>
			</g>
		</g>
	</g>
	<g>
		<g>
			<g>
				<g>
					<line fill="#FFFFFF" x1="61.587" y1="67.068" x2="65.283" y2="67.068"/>
				</g>
			</g>
		</g>
	</g>
	<g>
		<g>
			<g>
				<g>
					<path fill="#FFFFFF" d="M65.284,68.24h-3.697c-0.66,0-1.196-0.525-1.196-1.173c0-0.648,0.536-1.173,1.196-1.173h3.697
						c0.66,0,1.196,0.525,1.196,1.173C66.48,67.715,65.944,68.24,65.284,68.24z"/>
				</g>
			</g>
		</g>
	</g>
	<g>
		<g>
			<g>
				<g>
					<path fill="#FFFFFF" d="M64.02,96.083c-10.063,0-18.25-8.028-18.25-17.896s8.187-17.896,18.25-17.896
						c4.875,0,9.458,1.861,12.904,5.242l1.188,1.165L72.96,71.46l-2.237-2.328l2.64-2.44c-2.645-2.076-5.905-3.202-9.342-3.202
						c-8.264,0-14.988,6.593-14.988,14.697c0,8.104,6.723,14.697,14.988,14.697"/>
				</g>
			</g>
		</g>
	</g>
	<g>
		<g>
			<g>
				<g>
					<path fill="#FFFFFF" d="M73.181,86.89l-2.343-2.226c1.725-1.746,2.675-4.046,2.675-6.477c0-2.538-1.023-4.909-2.879-6.678
						l-1.222-1.164l1.31-1.213l1.116,1.16l1.068-1.078c2.495,2.376,3.868,5.562,3.868,8.972
						C76.775,81.454,75.498,84.544,73.181,86.89z"/>
				</g>
			</g>
		</g>
	</g>
	<g>
		<g>
			<g>
				<g>
					<path fill="#FFFFFF" d="M72.009,85.777"/>
				</g>
			</g>
		</g>
	</g>
	<g>
		<g>
			<g>
				<g>
					<path fill="#FFFFFF" d="M64.02,83.466c-2.968,0-5.383-2.368-5.383-5.279c0-2.911,2.415-5.279,5.383-5.279
						c2.968,0,5.383,2.368,5.383,5.279C69.404,81.098,66.989,83.466,64.02,83.466z M64.02,76.107c-1.17,0-2.121,0.933-2.121,2.08
						c0,1.147,0.952,2.08,2.121,2.08c1.17,0,2.121-0.933,2.121-2.08C66.142,77.04,65.19,76.107,64.02,76.107z"/>
				</g>
			</g>
		</g>
	</g>
	<g>
		<g>
			<g>
				<g>
					<line fill="#FFFFFF" x1="75.771" y1="66.664" x2="66.288" y2="75.256"/>
				</g>
			</g>
		</g>
	</g>
	<g>
		<g>
			<g>
				<g>
					<polygon fill="#FFFFFF" points="67.395,76.431 65.181,74.081 74.665,65.489 76.878,67.838 					"/>
				</g>
			</g>
		</g>
	</g>
	<g>
		<g>
			<g>
				<g>
					<polygon fill="#FFFFFF" points="77.919,96.083 63.724,96.083 63.724,92.884 74.657,92.884 74.657,89.978 64.81,82.709 
						66.772,80.154 77.919,88.382 					"/>
				</g>
			</g>
		</g>
	</g>
	<g>
		<g>
			<g>
				<g>
					<path fill="#FFFFFF" d="M72.158,85.895"/>
				</g>
			</g>
		</g>
	</g>
	<g>
		<g>
			<g>
				<g>
					<path fill="#FFFFFF" d="M57.703,71.469c-0.66,0-1.196-0.525-1.196-1.173V57.824c0-0.648,0.536-1.173,1.196-1.173
						s1.196,0.525,1.196,1.173v12.472C58.899,70.944,58.364,71.469,57.703,71.469z"/>
				</g>
			</g>
		</g>
	</g>
</g>
<g>
	<g>
		<g>
			<g>
				<path fill="#FFFFFF" d="M146.823,133.002v2.507c1.006,0.162,1.828,0.494,2.468,0.997c0.64,0.503,1.249,1.275,1.828,2.315
					l-2.493,1.394c-0.75-1.364-1.73-2.046-2.941-2.046c-0.75,0-1.373,0.222-1.867,0.665s-0.741,0.998-0.741,1.663
					c0,0.605,0.2,1.108,0.601,1.509c0.393,0.392,1.185,0.857,2.379,1.394c1.031,0.469,1.884,0.91,2.558,1.323
					c0.673,0.414,1.181,0.812,1.521,1.196c0.964,1.04,1.445,2.298,1.445,3.772c0,1.45-0.435,2.729-1.305,3.836
					c-0.861,1.1-2.012,1.841-3.452,2.225v2.647h-2.238v-2.57c-1.671-0.273-2.945-0.848-3.823-1.726
					c-0.879-0.878-1.526-2.234-1.944-4.067l2.813-0.588c0.384,1.296,0.853,2.221,1.406,2.775c0.58,0.528,1.352,0.792,2.315,0.792
					c0.938,0,1.722-0.302,2.353-0.908c0.622-0.597,0.934-1.368,0.934-2.314c0-0.844-0.26-1.522-0.78-2.034
					c-0.264-0.247-0.654-0.526-1.17-0.837c-0.516-0.311-1.175-0.65-1.976-1.017c-1.654-0.742-2.741-1.424-3.261-2.046
					c-0.827-0.929-1.241-2.042-1.241-3.338c0-0.614,0.099-1.185,0.295-1.713c0.195-0.529,0.479-1.008,0.85-1.439
					c0.371-0.43,0.829-0.803,1.375-1.119s1.164-0.563,1.854-0.742v-2.507H146.823z"/>
			</g>
		</g>
	</g>
</g>
<g>
	<g>
		<g>
			<g>
				<path fill="#FFFFFF" d="M167.938,137.359h-6.333l-1.011,3.406c0.15-0.018,0.295-0.031,0.433-0.04
					c0.137-0.009,0.264-0.013,0.379-0.013c1.995,0,3.632,0.674,4.909,2.022c1.286,1.339,1.929,3.056,1.929,5.149
					c0,2.164-0.728,3.947-2.182,5.348c-1.455,1.401-3.286,2.102-5.494,2.102c-2.723,0-4.869-1.277-6.439-3.832l2.342-1.982
					c0.647,1.1,1.299,1.875,1.955,2.328c0.656,0.443,1.459,0.665,2.408,0.665c1.242,0,2.284-0.435,3.127-1.304
					c0.842-0.896,1.264-1.982,1.264-3.259c0-1.313-0.417-2.386-1.251-3.22c-0.834-0.86-1.876-1.291-3.126-1.291
					c-1.393,0-2.595,0.608-3.605,1.823h-1.024l3.232-10.802h8.488V137.359z"/>
			</g>
		</g>
	</g>
	<g>
		<g>
			<g>
				<path fill="#FFFFFF" d="M171.582,144.597c0-3.273,0.763-5.885,2.288-7.836c1.366-1.765,3.021-2.647,4.963-2.647
					s3.596,0.883,4.962,2.647c1.525,1.951,2.288,4.607,2.288,7.969c0,3.353-0.763,6.004-2.288,7.956
					c-1.366,1.765-3.016,2.647-4.949,2.647s-3.592-0.882-4.976-2.647C172.345,150.734,171.582,148.038,171.582,144.597z
					 M174.629,144.61c0,2.279,0.395,4.173,1.184,5.681c0.789,1.481,1.796,2.222,3.021,2.222c1.215,0,2.222-0.74,3.02-2.222
					c0.798-1.472,1.197-3.33,1.197-5.574c0-2.244-0.399-4.106-1.197-5.587c-0.798-1.472-1.805-2.208-3.02-2.208
					c-1.207,0-2.209,0.736-3.007,2.208C175.029,140.592,174.629,142.419,174.629,144.61z"/>
			</g>
		</g>
	</g>
</g>
<g>
	<g>
		<g>
			<path fill="#FFFFFF" d="M110.666,206.75c-52.245,0-94.75-42.505-94.75-94.75c0-52.245,42.505-94.75,94.75-94.75
				s94.75,42.505,94.75,94.75C205.416,164.245,162.911,206.75,110.666,206.75z M110.666,18.25c-51.694,0-93.75,42.056-93.75,93.75
				c0,51.694,42.056,93.75,93.75,93.75s93.75-42.056,93.75-93.75C204.416,60.306,162.361,18.25,110.666,18.25z"/>
		</g>
	</g>
</g>
<g>
	<g>
		<g>
			<g>
				<g>
					<path fill="#FFFFFF" d="M100.083,178.958c0-13.778,0-27.556,0-41.333c0-1.287-2-1.289-2,0c0,13.778,0,27.556,0,41.333
						C98.083,180.245,100.083,180.247,100.083,178.958L100.083,178.958z"/>
				</g>
			</g>
		</g>
	</g>
	<g>
		<g>
			<g>
				<g>
					<path fill="#FFFFFF" d="M131.04,181.126c-5.167-5.167-10.333-10.333-15.5-15.5c-0.911-0.911-2.326,0.503-1.414,1.414
						c5.167,5.167,10.333,10.333,15.5,15.5C130.538,183.452,131.952,182.038,131.04,181.126L131.04,181.126z"/>
				</g>
			</g>
		</g>
	</g>
	<g>
		<g>
			<g>
				<g>
					<path fill="#FFFFFF" d="M124,173.833c0-13.278,0-26.556,0-39.833c0-1.287-2-1.289-2,0c0,13.278,0,26.556,0,39.833
						C122,175.12,124,175.122,124,173.833L124,173.833z"/>
				</g>
			</g>
		</g>
	</g>
	<g>
		<g>
			<g>
				<g>
					<path fill="#FFFFFF" d="M104.207,141.46c-6.333-6.333-12.667-12.667-19-19c-0.911-0.911-2.326,0.503-1.414,1.414
						c6.333,6.333,12.667,12.667,19,19C103.704,143.785,105.119,142.371,104.207,141.46L104.207,141.46z"/>
				</g>
			</g>
		</g>
	</g>
	<g>
		<g>
			<g>
				<g>
					<path fill="#FFFFFF" d="M92.25,118.583c0,4.056,0,8.111,0,12.167c0,1.287,2,1.289,2,0c0-4.056,0-8.111,0-12.167
						C94.25,117.296,92.25,117.294,92.25,118.583L92.25,118.583z"/>
				</g>
			</g>
		</g>
	</g>
	<g>
		<g>
			<g>
				<g>
					<path fill="#FFFFFF" d="M94.04,125.374c6.889-6.889,13.778-13.778,20.667-20.667c0.911-0.911-0.503-2.326-1.414-1.414
						c-6.889,6.889-13.778,13.778-20.667,20.667C91.715,124.871,93.129,126.285,94.04,125.374L94.04,125.374z"/>
				</g>
			</g>
		</g>
	</g>
	<g>
		<g>
			<g>
				<g>
					<path fill="#FFFFFF" d="M102.333,102.667c0,3.778,0,7.556,0,11.333c0,1.287,2,1.289,2,0c0-3.778,0-7.556,0-11.333
						C104.333,101.38,102.333,101.378,102.333,102.667L102.333,102.667z"/>
				</g>
			</g>
		</g>
	</g>
	<g>
		<g>
			<g>
				<g>
					<path fill="#FFFFFF" d="M115.667,109.333c0-12.667,0-25.333,0-38c0-1.287-2-1.289-2,0c0,12.667,0,25.333,0,38
						C113.667,110.62,115.667,110.622,115.667,109.333L115.667,109.333z"/>
				</g>
			</g>
		</g>
	</g>
	<g>
		<g>
			<g>
				<g>
					<path fill="#FFFFFF" d="M115.833,92.833c6.778,0,13.556,0,20.333,0c1.287,0,1.289-2,0-2c-6.778,0-13.556,0-20.333,0
						C114.546,90.833,114.544,92.833,115.833,92.833L115.833,92.833z"/>
				</g>
			</g>
		</g>
	</g>
	<g>
		<g>
			<g>
				<g>
					<path fill="#FFFFFF" d="M127,90.833c0-13.111,0-26.222,0-39.333c0-1.287-2-1.289-2,0c0,13.111,0,26.222,0,39.333
						C125,92.12,127,92.122,127,90.833L127,90.833z"/>
				</g>
			</g>
		</g>
	</g>
	<g>
		<g>
			<g>
				<g>
					<path fill="#FFFFFF" d="M111.542,134c6.396,0,12.792,0,19.187,0c0-0.667,0-1.333,0-2c-0.271,0-0.542,0-0.812,0
						c-1.287,0-1.289,2,0,2c0.271,0,0.542,0,0.812,0c1.287,0,1.289-2,0-2c-6.396,0-12.792,0-19.187,0
						C110.255,132,110.253,134,111.542,134L111.542,134z"/>
				</g>
			</g>
		</g>
	</g>
	<g>
		<g>
			<g>
				<g>
					<path fill="#FFFFFF" d="M115.417,125.5c0,2.125,0,4.25,0,6.375c0,1.287,2,1.289,2,0c0-2.125,0-4.25,0-6.375
						C117.417,124.213,115.417,124.211,115.417,125.5L115.417,125.5z"/>
				</g>
			</g>
		</g>
	</g>
	<g>
		<g>
			<g>
				<g>
					<path fill="#FFFFFF" d="M128.374,133.332c5.542-5.542,11.083-11.083,16.625-16.625c0.911-0.911-0.503-2.326-1.414-1.414
						c-5.542,5.542-11.083,11.083-16.625,16.625C126.048,132.829,127.462,134.244,128.374,133.332L128.374,133.332z"/>
				</g>
			</g>
		</g>
	</g>
	<g>
		<g>
			<g>
				<g>
					<path fill="#FFFFFF" d="M126.085,115.957c3,3,6,6,9,9c0.911,0.911,2.326-0.503,1.414-1.414c-3-3-6-6-9-9
						C126.587,113.632,125.173,115.045,126.085,115.957L126.085,115.957z"/>
				</g>
			</g>
		</g>
	</g>
	<g>
		<g>
			<g>
				<g>
					<path fill="#FFFFFF" d="M94.792,83c6.24,0,12.481,0,18.721,0c0-0.667,0-1.333,0-2c-0.24,0-0.481,0-0.721,0
						c-1.287,0-1.289,2,0,2c0.24,0,0.481,0,0.721,0c1.287,0,1.289-2,0-2c-6.24,0-12.481,0-18.721,0C93.505,81,93.503,83,94.792,83
						L94.792,83z"/>
				</g>
			</g>
		</g>
	</g>
	<g>
		<g>
			<g>
				<g>
					<path fill="#FFFFFF" d="M103.917,81c0-10.208,0-20.417,0-30.625c0-1.287-2-1.289-2,0c0,10.208,0,20.417,0,30.625
						C101.917,82.287,103.917,82.289,103.917,81L103.917,81z"/>
				</g>
			</g>
		</g>
	</g>
	<g>
		<g>
			<g>
				<g>
					<path fill="#FFFFFF" d="M101.792,62.75c-3.417,0-6.833,0-10.25,0c-1.287,0-1.289,2,0,2c3.417,0,6.833,0,10.25,0
						C103.079,64.75,103.081,62.75,101.792,62.75L101.792,62.75z"/>
				</g>
			</g>
		</g>
	</g>
	<g>
		<g>
			<g>
				<g>
					<path fill="#FFFFFF" d="M95.292,63.5c0-6.167,0-12.333,0-18.5c0-1.287-2-1.289-2,0c0,6.167,0,12.333,0,18.5
						C93.292,64.787,95.292,64.789,95.292,63.5L95.292,63.5z"/>
				</g>
			</g>
		</g>
	</g>
	<g>
		<g>
			<g>
				<g>
					<path fill="#FFFFFF" d="M104.585,173.043c-2.625,2.625-5.25,5.25-7.875,7.875c-0.911,0.911,0.503,2.326,1.414,1.414
						c2.625-2.625,5.25-5.25,7.875-7.875C106.91,173.546,105.496,172.131,104.585,173.043L104.585,173.043z"/>
				</g>
			</g>
		</g>
	</g>
	<g>
		<g>
			<g>
				<g>
					<path fill="#FFFFFF" d="M114.667,100.375c13.458,0,26.917,0,40.375,0c1.287,0,1.289-2,0-2c-13.458,0-26.917,0-40.375,0
						C113.38,98.375,113.378,100.375,114.667,100.375L114.667,100.375z"/>
				</g>
			</g>
		</g>
	</g>
	<g>
		<g>
			<g>
				<g>
					<path fill="#FFFFFF" d="M141.374,100.082c4.875-4.875,9.75-9.75,14.625-14.625c0.911-0.911-0.503-2.326-1.414-1.414
						c-4.875,4.875-9.75,9.75-14.625,14.625C139.048,99.579,140.462,100.994,141.374,100.082L141.374,100.082z"/>
				</g>
			</g>
		</g>
	</g>
	<g>
		<g>
			<g>
				<g>
					<path fill="#FFFFFF" d="M144.292,79c0,4.571,0,9.141,0,13.712c0.667,0,1.333,0,2,0c0-0.196,0-0.391,0-0.587
						c0-1.287-2-1.289-2,0c0,0.196,0,0.391,0,0.587c0,1.287,2,1.289,2,0c0-4.571,0-9.141,0-13.712
						C146.292,77.713,144.292,77.711,144.292,79L144.292,79z"/>
				</g>
			</g>
		</g>
	</g>
	<g>
		<g>
			<g>
				<g>
					<path fill="#FFFFFF" d="M86.21,126.668c-7.708,7.792-15.417,15.583-23.125,23.375c-0.906,0.916,0.507,2.331,1.414,1.414
						c7.708-7.792,15.417-15.583,23.125-23.375C88.53,127.166,87.117,125.751,86.21,126.668L86.21,126.668z"/>
				</g>
			</g>
		</g>
	</g>
	<g>
		<g>
			<g>
				<g>
					<path fill="#FFFFFF" d="M68.792,121.5c0,7.708,0,15.417,0,23.125c0,1.287,2,1.289,2,0c0-7.708,0-15.417,0-23.125
						C70.792,120.213,68.792,120.211,68.792,121.5L68.792,121.5z"/>
				</g>
			</g>
		</g>
	</g>
	<g>
		<g>
			<g>
				<g>
					<path fill="#FFFFFF" d="M68.292,128.5c-5.125,0-10.25,0-15.375,0c-1.287,0-1.289,2,0,2c5.125,0,10.25,0,15.375,0
						C69.579,130.5,69.581,128.5,68.292,128.5L68.292,128.5z"/>
				</g>
			</g>
		</g>
	</g>
	<g>
		<g>
			<g>
				<g>
					<path fill="#FFFFFF" d="M112.917,91.375c-11.75,0-23.5,0-35.25,0c-1.287,0-1.289,2,0,2c11.75,0,23.5,0,35.25,0
						C114.204,93.375,114.206,91.375,112.917,91.375L112.917,91.375z"/>
				</g>
			</g>
		</g>
	</g>
	<g>
		<g>
			<g>
				<g>
					<path fill="#FFFFFF" d="M120.042,99.625c0,5.583,0,11.167,0,16.75c0,1.287,2,1.289,2,0c0-5.583,0-11.167,0-16.75
						C122.042,98.338,120.042,98.336,120.042,99.625L120.042,99.625z"/>
				</g>
			</g>
		</g>
	</g>
	<g>
		<g>
			<g>
				<g>
					<path fill="#FFFFFF" d="M122.167,108.125c16.958,0,33.917,0,50.875,0c1.287,0,1.289-2,0-2c-16.958,0-33.917,0-50.875,0
						C120.88,106.125,120.878,108.125,122.167,108.125L122.167,108.125z"/>
				</g>
			</g>
		</g>
	</g>
	<g>
		<g>
			<g>
				<g>
					<path fill="#FFFFFF" d="M149.085,108.832c7.5,7.5,15,15,22.5,22.5c0.911,0.911,2.326-0.503,1.414-1.414
						c-7.5-7.5-15-15-22.5-22.5C149.587,106.507,148.173,107.92,149.085,108.832L149.085,108.832z"/>
				</g>
			</g>
		</g>
	</g>
	<g>
		<g>
			<g>
				<g>
					<path fill="#FFFFFF" d="M103.042,106.125c-16.75,0-33.5,0-50.25,0c-1.287,0-1.289,2,0,2c16.75,0,33.5,0,50.25,0
						C104.329,108.125,104.331,106.125,103.042,106.125L103.042,106.125z"/>
				</g>
			</g>
		</g>
	</g>
	<g>
		<g>
			<g>
				<g>
					<path fill="#FFFFFF" d="M86.917,106.875c0-4.5,0-9,0-13.5c0-1.287-2-1.289-2,0c0,4.5,0,9,0,13.5
						C84.917,108.162,86.917,108.164,86.917,106.875L86.917,106.875z"/>
				</g>
			</g>
		</g>
	</g>
	<g>
		<g>
			<g>
				<g>
					<path fill="#FFFFFF" d="M126.749,69.293c-5.246-5.246-10.492-10.492-15.738-15.738c-0.911-0.911-2.326,0.503-1.414,1.414
						c0.663,0.663,1.325,1.325,1.988,1.988c0.911,0.911,2.326-0.503,1.414-1.414c-0.663-0.663-1.325-1.325-1.988-1.988
						c-0.471,0.471-0.943,0.943-1.414,1.414c5.246,5.246,10.492,10.492,15.738,15.738C126.246,71.618,127.66,70.205,126.749,69.293
						L126.749,69.293z"/>
				</g>
			</g>
		</g>
	</g>
	<g>
		<g>
			<g>
				<g>
					<path fill="#FFFFFF" d="M116.667,59.375c0-8.333,0-16.667,0-25c0-1.287-2-1.289-2,0c0,8.333,0,16.667,0,25
						C114.667,60.662,116.667,60.664,116.667,59.375L116.667,59.375z"/>
				</g>
			</g>
		</g>
	</g>
	<g>
		<g>
			<g>
				<g>
					<path fill="#FFFFFF" d="M127.667,178.625c-9.042,0-18.083,0-27.125,0c-1.287,0-1.289,2,0,2c9.042,0,18.083,0,27.125,0
						C128.954,180.625,128.956,178.625,127.667,178.625L127.667,178.625z"/>
				</g>
			</g>
		</g>
	</g>
	<g>
		<g>
			<g>
				<g>
					<path fill="#FFFFFF" d="M107.292,174c0-7.5,0-15,0-22.5c0-1.287-2-1.289-2,0c0,7.5,0,15,0,22.5
						C105.292,175.287,107.292,175.289,107.292,174L107.292,174z"/>
				</g>
			</g>
		</g>
	</g>
	<g>
		<g>
			<g>
				<circle fill="#FFFFFF" cx="99.167" cy="138.125" r="3.542"/>
			</g>
		</g>
	</g>
	<g>
		<g>
			<g>
				<circle fill="#FFFFFF" cx="85.75" cy="106.875" r="3.542"/>
			</g>
		</g>
	</g>
	<g>
		<g>
			<g>
				<circle fill="#FFFFFF" cx="150.667" cy="108" r="3.542"/>
			</g>
		</g>
	</g>
	<g>
		<g>
			<g>
				<circle fill="#FFFFFF" cx="125.417" cy="69.375" r="3.542"/>
			</g>
		</g>
	</g>
	<g>
		<g>
			<g>
				<circle fill="#FFFFFF" cx="102.417" cy="63.875" r="3.542"/>
			</g>
		</g>
	</g>
	<g>
		<g>
			<g>
				<circle fill="#FFFFFF" cx="115.667" cy="144.132" r="2.5"/>
			</g>
		</g>
	</g>
	<g>
		<g>
			<g>
				<circle fill="#FFFFFF" cx="115.667" cy="150.75" r="2.5"/>
			</g>
		</g>
	</g>
	<g>
		<g>
			<g>
				<circle fill="#FFFFFF" cx="115.667" cy="157.368" r="2.5"/>
			</g>
		</g>
	</g>
	<g>
		<g>
			<g>
				<circle fill="#FFFFFF" cx="103.083" cy="185.034" r="2.5"/>
			</g>
		</g>
	</g>
	<g>
		<g>
			<g>
				<circle fill="#FFFFFF" cx="110.167" cy="185.034" r="2.5"/>
			</g>
		</g>
	</g>
	<g>
		<g>
			<g>
				<circle fill="#FFFFFF" cx="117.25" cy="185.034" r="2.5"/>
			</g>
		</g>
	</g>
	<g>
		<g>
			<g>
				<circle fill="#FFFFFF" cx="124.333" cy="185.034" r="2.5"/>
			</g>
		</g>
	</g>
	<g>
		<g>
			<g>
				<g>
					<path fill="#FFFFFF" d="M101.833,190.417c0,1.444,0,2.889,0,4.333c0,1.287,2,1.289,2,0c0-1.444,0-2.889,0-4.333
						C103.833,189.13,101.833,189.128,101.833,190.417L101.833,190.417z"/>
				</g>
			</g>
		</g>
	</g>
	<g>
		<g>
			<g>
				<g>
					<path fill="#FFFFFF" d="M109.083,190.417c0,1.444,0,2.889,0,4.333c0,1.287,2,1.289,2,0c0-1.444,0-2.889,0-4.333
						C111.083,189.13,109.083,189.128,109.083,190.417L109.083,190.417z"/>
				</g>
			</g>
		</g>
	</g>
	<g>
		<g>
			<g>
				<g>
					<path fill="#FFFFFF" d="M116.333,190.417c0,1.444,0,2.889,0,4.333c0,1.287,2,1.289,2,0c0-1.444,0-2.889,0-4.333
						C118.333,189.13,116.333,189.128,116.333,190.417L116.333,190.417z"/>
				</g>
			</g>
		</g>
	</g>
	<g>
		<g>
			<g>
				<g>
					<path fill="#FFFFFF" d="M123.583,190.417c0,1.444,0,2.889,0,4.333c0,1.287,2,1.289,2,0c0-1.444,0-2.889,0-4.333
						C125.583,189.13,123.583,189.128,123.583,190.417L123.583,190.417z"/>
				</g>
			</g>
		</g>
	</g>
	<g>
		<g>
			<g>
				<g>
					<path fill="#FFFFFF" d="M126.396,40.417c0,1.444,0,2.889,0,4.333c0,1.287,2,1.289,2,0c0-1.444,0-2.889,0-4.333
						C128.396,39.13,126.396,39.128,126.396,40.417L126.396,40.417z"/>
				</g>
			</g>
		</g>
	</g>
	<g>
		<g>
			<g>
				<g>
					<path fill="#FFFFFF" d="M113.708,24.917c0,1.444,0,2.889,0,4.333c0,1.287,2,1.289,2,0c0-1.444,0-2.889,0-4.333
						C115.708,23.63,113.708,23.628,113.708,24.917L113.708,24.917z"/>
				</g>
			</g>
		</g>
	</g>
	<g>
		<g>
			<g>
				<g>
					<path fill="#FFFFFF" d="M94.792,34.958c0,1.444,0,2.889,0,4.333c0,1.287,2,1.289,2,0c0-1.444,0-2.889,0-4.333
						C96.792,33.671,94.792,33.669,94.792,34.958L94.792,34.958z"/>
				</g>
			</g>
		</g>
	</g>
</g>
<g>
	<g>
		<g>
			<path d="M47.691,128.4c-4.547,0-8.652-1.725-11.872-4.988c-3.2-3.253-4.886-7.372-4.886-11.919c0-4.632,1.722-8.795,4.979-12.038
				c3.239-3.239,7.407-4.957,12.041-4.957c2.525,0,4.937,0.53,7.168,1.576l0.115,0.055c2.07,1.018,4.037,2.581,5.845,4.647
				l4.37,4.991l-1.79,1.714v4.211c0,2.133-0.275,4.111-0.817,5.88l-0.03,0.096c-0.625,1.937-1.661,3.738-3.08,5.352
				C56.6,126.549,52.443,128.4,47.691,128.4z M48.015,111.834L48.015,111.834L48.015,111.834z"/>
		</g>
		<g>
			<path fill="#FFFFFF" d="M48.753,111.055h7.971v0.637c0,1.449-0.171,2.732-0.512,3.848c-0.333,1.033-0.896,1.999-1.687,2.899
				c-1.791,2.016-4.069,3.023-6.834,3.023c-2.699,0-5.01-0.974-6.934-2.923c-1.924-1.957-2.886-4.306-2.886-7.046
				c0-2.799,0.979-5.173,2.936-7.122c1.957-1.957,4.339-2.936,7.146-2.936c1.507,0,2.915,0.307,4.223,0.92
				c1.249,0.614,2.478,1.611,3.686,2.99l-2.074,1.986c-1.583-2.107-3.511-3.161-5.784-3.161c-2.041,0-3.752,0.704-5.135,2.112
				c-1.383,1.383-2.074,3.115-2.074,5.197c0,2.149,0.77,3.919,2.311,5.31c1.441,1.291,3.003,1.936,4.685,1.936
				c1.433,0,2.719-0.482,3.861-1.446c1.141-0.972,1.778-2.135,1.911-3.489h-4.81V111.055z"/>
		</g>
	</g>
	<g>
		<g>
			<rect x="60.099" y="94.872" width="16.787" height="33.165"/>
		</g>
		<g>
			<path fill="#FFFFFF" d="M69.948,101.81v19.29h-2.911v-19.29H69.948z"/>
		</g>
	</g>
	<g>
		<g>
			<polygon points="93.495,128.038 76.71,128.038 76.71,111.484 72.274,111.484 72.274,94.872 97.918,94.872 97.918,111.484 
				93.495,111.484 			"/>
		</g>
		<g>
			<path fill="#FFFFFF" d="M86.558,104.546V121.1h-2.911v-16.554h-4.435v-2.736h11.769v2.736H86.558z"/>
		</g>
	</g>
	<g>
		<g>
			<path d="M108.553,128.387c-4.569,0-8.695-1.69-11.934-4.887c-3.264-3.263-4.974-7.387-4.974-11.958
				c0-4.072,1.409-7.892,4.073-11.048c3.331-3.927,7.843-5.997,13.059-5.997c2.962,0,5.822,0.788,8.502,2.341l3.458,2.005v25.23
				l-3.514,1.994C114.51,127.607,111.592,128.387,108.553,128.387z M108.527,111.775c0.015,0.001,0.034,0.002,0.055,0.002
				c0.012-0.008,0.026-0.016,0.041-0.026c0.103-0.068,0.259-0.178,0.471-0.346c-0.302-0.219-0.474-0.28-0.519-0.293
				c-0.067,0.071-0.087,0.099-0.092,0.107l0,0c0.001,0-0.026,0.082-0.026,0.287c0,0.116,0.01,0.184,0.015,0.213
				c0.006,0.005,0.021,0.023,0.044,0.046C108.52,111.768,108.523,111.772,108.527,111.775z M108.648,111.039L108.648,111.039
				L108.648,111.039z"/>
		</g>
		<g>
			<path fill="#FFFFFF" d="M113.8,102.841v3.442c-1.682-1.408-3.423-2.112-5.222-2.112c-1.982,0-3.652,0.712-5.01,2.137
				c-1.366,1.416-2.049,3.148-2.049,5.197c0,2.024,0.683,3.731,2.049,5.122c1.366,1.391,3.04,2.086,5.022,2.086
				c1.025,0,1.895-0.166,2.611-0.5c0.4-0.166,0.814-0.391,1.243-0.674c0.429-0.283,0.881-0.625,1.355-1.025v3.517
				c-1.666,0.946-3.415,1.418-5.247,1.418c-2.757,0-5.11-0.962-7.059-2.886c-1.941-1.94-2.911-4.281-2.911-7.021
				c0-2.457,0.812-4.648,2.436-6.572c1.999-2.357,4.585-3.536,7.758-3.536C110.51,101.435,112.184,101.904,113.8,102.841z"/>
		</g>
	</g>
	<g>
		<g>
			<path d="M146.888,96.417c-3.258-3.258-7.4-4.981-11.977-4.981c-4.588,0-8.741,1.699-12,4.904
				c-0.463,0.453-0.888,0.927-1.289,1.414c-0.163-0.148-0.374-0.254-0.653-0.254c-1.063,0-1.191,1.344-0.488,1.822
				c-1.726,2.659-2.639,5.699-2.639,8.972c0,5.093,1.952,9.492,5.657,12.73c3.226,2.807,7.12,4.29,11.263,4.29
				c4.61,0,8.777-1.688,12.052-4.881c3.315-3.233,5.068-7.391,5.068-12.027C151.881,103.815,150.151,99.665,146.888,96.417z"/>
		</g>
		<g>
			<path fill="#FFFFFF" d="M124.779,108.294c0-2.715,0.995-5.047,2.986-6.997c1.982-1.949,4.364-2.923,7.146-2.923
				c2.749,0,5.105,0.983,7.071,2.949c1.974,1.966,2.961,4.327,2.961,7.084c0,2.774-0.991,5.127-2.974,7.059
				c-1.991,1.941-4.394,2.911-7.209,2.911c-2.491,0-4.727-0.862-6.709-2.586C125.87,113.883,124.779,111.384,124.779,108.294z
				 M127.715,108.325c0,2.13,0.716,3.882,2.149,5.255c1.424,1.373,3.069,2.059,4.935,2.059c2.024,0,3.731-0.699,5.122-2.097
				c1.391-1.414,2.087-3.137,2.087-5.168c0-2.055-0.687-3.778-2.062-5.168c-1.366-1.398-3.057-2.097-5.072-2.097
				c-2.007,0-3.702,0.699-5.085,2.097C128.406,104.589,127.715,106.295,127.715,108.325z"/>
		</g>
	</g>
	<g>
		<g>
			<rect x="146.58" y="94.872" width="16.787" height="33.165"/>
		</g>
		<g>
			<path fill="#FFFFFF" d="M156.429,101.81v19.29h-2.911v-19.29H156.429z"/>
		</g>
	</g>
	<g>
		<g>
			<polygon points="191.633,139.54 177.565,124.861 177.565,128.038 160.778,128.038 160.778,83.201 174.847,97.918 174.847,94.872 
				191.633,94.872 			"/>
		</g>
		<g>
			<path fill="#FFFFFF" d="M167.716,121.1v-20.602l14.068,14.717V101.81h2.911v20.465l-14.068-14.68V121.1H167.716z"/>
		</g>
	</g>
</g>
<g>
	<path fill="#FFFFFF" d="M142.358,33.03l-1.538,4.173c0.627-0.303,1.228-0.349,1.802-0.137c0.663,0.244,1.123,0.694,1.381,1.35
		c0.259,0.652,0.255,1.345-0.017,2.078c-0.278,0.756-0.73,1.299-1.355,1.629c-0.622,0.329-1.268,0.368-1.939,0.121
		c-0.568-0.209-0.995-0.614-1.28-1.216l-0.189,0.514l-1.135-0.418l3.138-8.512L142.358,33.03z M142.809,40.117
		c0.174-0.47,0.188-0.9,0.041-1.29c-0.147-0.398-0.415-0.668-0.805-0.812c-0.418-0.154-0.811-0.132-1.181,0.063
		c-0.365,0.193-0.633,0.521-0.804,0.985c-0.177,0.478-0.188,0.906-0.038,1.286c0.147,0.386,0.429,0.656,0.845,0.81
		c0.395,0.145,0.773,0.119,1.141-0.078C142.378,40.882,142.646,40.561,142.809,40.117z"/>
	<path fill="#FFFFFF" d="M145.004,40.896c0.321-0.684,0.84-1.15,1.555-1.399c0.715-0.25,1.424-0.209,2.127,0.122
		c0.707,0.333,1.191,0.856,1.458,1.57c0.258,0.711,0.222,1.419-0.108,2.122c-0.334,0.709-0.859,1.189-1.574,1.438
		c-0.717,0.245-1.433,0.199-2.148-0.139c-0.71-0.334-1.19-0.857-1.441-1.568C144.618,42.337,144.661,41.621,145.004,40.896z
		 M146.111,41.441c-0.222,0.473-0.272,0.907-0.148,1.301c0.129,0.401,0.404,0.701,0.829,0.9c0.427,0.202,0.834,0.225,1.219,0.07
		c0.386-0.155,0.688-0.462,0.903-0.923c0.217-0.46,0.263-0.888,0.136-1.283c-0.128-0.401-0.404-0.701-0.828-0.901
		c-0.418-0.197-0.822-0.217-1.213-0.061C146.619,40.702,146.32,41.001,146.111,41.441z"/>
	<path fill="#FFFFFF" d="M153.562,42.284l-1.499,2.6c-0.434,0.751-0.355,1.297,0.237,1.639c0.592,0.342,1.104,0.138,1.538-0.612
		l1.502-2.6l1.046,0.604l-1.515,2.624c-0.209,0.362-0.436,0.649-0.677,0.861c-0.224,0.186-0.496,0.311-0.819,0.377
		c-0.531,0.103-1.069-0.003-1.615-0.318c-0.542-0.313-0.902-0.726-1.078-1.237c-0.107-0.315-0.139-0.616-0.092-0.903
		c0.034-0.261,0.172-0.599,0.411-1.015l1.515-2.623L153.562,42.284z"/>
	<path fill="#FFFFFF" d="M157.906,44.874l0.999,0.688l-0.273,0.398c0.585-0.105,1.097-0.007,1.532,0.294
		c0.502,0.345,0.782,0.772,0.846,1.28c0.057,0.436-0.125,0.957-0.543,1.563l-1.821,2.64l-0.999-0.689l1.659-2.405
		c0.292-0.425,0.436-0.759,0.43-1.002c-0.001-0.244-0.153-0.471-0.457-0.681c-0.329-0.227-0.64-0.28-0.929-0.158
		c-0.284,0.122-0.611,0.451-0.98,0.987l-1.434,2.078l-0.999-0.689L157.906,44.874z"/>
	<path fill="#FFFFFF" d="M163.241,50.13l-2.528,3.232l-0.951-0.745l2.527-3.232l-0.406-0.317l0.695-0.889l0.405,0.318l1.183-1.511
		l0.951,0.745l-1.182,1.51l0.741,0.579l-0.694,0.889L163.241,50.13z"/>
	<path fill="#FFFFFF" d="M163.893,54.738l1.057-4.749L166,50.917l-0.792,3.314l3.11-1.266l1.023,0.903l-8.473,3.294l-1.035-0.914
		L163.893,54.738z"/>
	<path fill="#FFFFFF" d="M173.009,57.665l-1.299,2.962l3.093-0.941l0.901,1.016l-5.986,1.678l2.394-5.728L173.009,57.665z"/>
	<path fill="#FFFFFF" d="M174.169,62.892c0.604-0.454,1.279-0.625,2.029-0.512c0.748,0.113,1.356,0.48,1.823,1.101
		c0.47,0.624,0.655,1.313,0.557,2.069c-0.104,0.75-0.465,1.358-1.086,1.826c-0.626,0.472-1.313,0.651-2.062,0.538
		c-0.748-0.118-1.36-0.493-1.837-1.125c-0.472-0.627-0.652-1.313-0.543-2.06C173.156,63.986,173.528,63.374,174.169,62.892z
		 M174.896,63.891c-0.418,0.315-0.664,0.675-0.739,1.082c-0.073,0.413,0.031,0.809,0.313,1.183c0.284,0.378,0.633,0.588,1.047,0.631
		c0.413,0.043,0.822-0.089,1.229-0.395s0.646-0.664,0.719-1.072c0.073-0.414-0.031-0.809-0.313-1.184
		c-0.278-0.368-0.627-0.575-1.045-0.619C175.688,63.474,175.284,63.599,174.896,63.891z"/>
	<path fill="#FFFFFF" d="M181.094,68.11l-2.541,1.601c-0.732,0.462-0.916,0.983-0.552,1.562c0.365,0.579,0.914,0.637,1.646,0.174
		l2.541-1.601l0.645,1.021l-2.563,1.616c-0.354,0.224-0.688,0.372-1,0.447c-0.285,0.06-0.585,0.044-0.9-0.048
		c-0.519-0.156-0.945-0.501-1.281-1.034c-0.335-0.531-0.46-1.063-0.378-1.597c0.052-0.329,0.164-0.609,0.339-0.842
		c0.152-0.215,0.432-0.45,0.837-0.706l2.563-1.615L181.094,68.11z"/>
	<path fill="#FFFFFF" d="M185.417,76.101L184,76.854c0.167-0.401,0.255-0.728,0.263-0.979c0.013-0.25-0.049-0.504-0.185-0.76
		c-0.214-0.401-0.531-0.66-0.955-0.776c-0.422-0.116-0.844-0.061-1.269,0.165c-0.433,0.23-0.721,0.547-0.863,0.951
		c-0.14,0.408-0.103,0.812,0.11,1.214c0.136,0.256,0.311,0.453,0.526,0.59c0.208,0.132,0.536,0.245,0.982,0.335l-1.409,0.749
		c-0.455-0.313-0.797-0.687-1.027-1.12c-0.38-0.714-0.468-1.435-0.262-2.16c0.21-0.728,0.658-1.275,1.349-1.642
		c0.688-0.366,1.399-0.433,2.133-0.198s1.288,0.707,1.665,1.415C185.3,75.092,185.42,75.58,185.417,76.101z"/>
	<path fill="#FFFFFF" d="M189.752,75.722l0.486,1.107l-3.913,1.722c0.526,0.238,0.894,0.594,1.104,1.069
		c0.236,0.541,0.252,1.05,0.045,1.529c-0.185,0.41-0.609,0.762-1.279,1.056l-2.935,1.292l-0.486-1.106l2.832-1.246
		c0.382-0.169,0.631-0.359,0.743-0.571c0.112-0.211,0.102-0.468-0.03-0.77c-0.171-0.387-0.41-0.605-0.719-0.658
		c-0.311-0.047-0.761,0.059-1.351,0.319l-2.314,1.019l-0.487-1.107L189.752,75.722z"/>
	<path fill="#FFFFFF" d="M187.527,88.493l-1.232-3.54c-0.396,0.172-0.672,0.416-0.832,0.733c-0.155,0.315-0.169,0.656-0.042,1.021
		c0.098,0.284,0.248,0.496,0.448,0.635c0.198,0.135,0.521,0.256,0.968,0.362l-0.202,1.151c-0.305-0.061-0.577-0.143-0.815-0.245
		s-0.449-0.228-0.632-0.376c-0.183-0.149-0.339-0.324-0.471-0.525c-0.131-0.201-0.24-0.43-0.33-0.687
		c-0.256-0.737-0.226-1.412,0.092-2.023c0.322-0.612,0.877-1.056,1.665-1.33c0.78-0.272,1.488-0.276,2.122-0.012
		c0.629,0.271,1.069,0.766,1.319,1.486c0.254,0.727,0.222,1.383-0.094,1.967c-0.314,0.58-0.88,1.011-1.693,1.295L187.527,88.493z
		 M188.053,86.997c0.553-0.371,0.723-0.861,0.512-1.47c-0.048-0.139-0.114-0.261-0.199-0.368c-0.085-0.107-0.185-0.197-0.298-0.269
		c-0.115-0.072-0.24-0.124-0.377-0.156c-0.136-0.032-0.281-0.042-0.437-0.03L188.053,86.997z"/>
	<path fill="#FFFFFF" d="M190.684,89.014l0.319,1.165l-0.451,0.124c0.284,0.152,0.489,0.3,0.618,0.443
		c0.133,0.146,0.231,0.333,0.295,0.565c0.084,0.308,0.071,0.656-0.036,1.046l-1.213-0.241c0.098-0.265,0.118-0.503,0.061-0.713
		c-0.176-0.636-0.742-0.821-1.703-0.558l-2.614,0.718l-0.32-1.165L190.684,89.014z"/>
</g>
<g>
	<path fill="#FFFFFF" d="M78.82,193.13l1.785-4.074c-0.643,0.266-1.247,0.274-1.807,0.03c-0.646-0.284-1.078-0.761-1.296-1.431
		c-0.22-0.668-0.174-1.358,0.141-2.073c0.322-0.738,0.807-1.253,1.451-1.546c0.64-0.29,1.288-0.292,1.942-0.005
		c0.555,0.244,0.957,0.674,1.206,1.291l0.22-0.502l1.107,0.485l-3.642,8.309L78.82,193.13z M78.795,186.028
		c-0.202,0.46-0.241,0.888-0.118,1.286c0.123,0.405,0.375,0.691,0.755,0.858c0.406,0.178,0.8,0.181,1.182,0.007
		c0.375-0.171,0.663-0.482,0.861-0.936c0.205-0.466,0.243-0.893,0.116-1.28c-0.124-0.395-0.39-0.681-0.796-0.859
		c-0.384-0.168-0.765-0.165-1.143,0.01C79.271,185.291,78.984,185.596,78.795,186.028z"/>
	<path fill="#FFFFFF" d="M76.649,185.119c-0.363,0.663-0.907,1.099-1.635,1.304c-0.729,0.206-1.436,0.122-2.117-0.25
		c-0.685-0.374-1.138-0.925-1.361-1.655c-0.214-0.725-0.136-1.429,0.235-2.111c0.376-0.688,0.93-1.135,1.658-1.341
		c0.729-0.201,1.441-0.111,2.137,0.268c0.688,0.376,1.136,0.927,1.343,1.651C77.122,183.704,77.033,184.416,76.649,185.119z
		 M75.575,184.508c0.251-0.458,0.327-0.888,0.228-1.289c-0.104-0.407-0.362-0.724-0.773-0.948c-0.415-0.227-0.819-0.274-1.213-0.143
		c-0.395,0.131-0.712,0.42-0.957,0.866s-0.314,0.871-0.212,1.273c0.104,0.408,0.361,0.724,0.773,0.949
		c0.405,0.221,0.807,0.266,1.207,0.133C75.025,185.216,75.342,184.936,75.575,184.508z"/>
	<path fill="#FFFFFF" d="M68.189,183.221l1.654-2.505c0.478-0.724,0.431-1.272-0.14-1.65c-0.571-0.376-1.094-0.203-1.572,0.52
		l-1.655,2.506l-1.008-0.665l1.668-2.529c0.231-0.35,0.474-0.623,0.729-0.819c0.233-0.172,0.514-0.281,0.84-0.327
		c0.536-0.07,1.066,0.067,1.592,0.414c0.523,0.346,0.857,0.779,1.003,1.299c0.089,0.321,0.102,0.623,0.038,0.908
		c-0.05,0.258-0.207,0.588-0.471,0.988l-1.669,2.527L68.189,183.221z"/>
	<path fill="#FFFFFF" d="M64.008,180.376l-0.957-0.748l0.298-0.38c-0.591,0.069-1.095-0.06-1.513-0.386
		c-0.479-0.375-0.735-0.818-0.767-1.329c-0.031-0.438,0.181-0.947,0.635-1.528l1.976-2.526l0.956,0.748l-1.799,2.302
		c-0.318,0.406-0.48,0.731-0.489,0.975c-0.014,0.243,0.125,0.479,0.416,0.706c0.315,0.248,0.622,0.318,0.917,0.213
		c0.291-0.104,0.637-0.412,1.039-0.926l1.554-1.989l0.957,0.748L64.008,180.376z"/>
	<path fill="#FFFFFF" d="M58.997,174.811l2.716-3.074l0.906,0.8l-2.717,3.075l0.387,0.342l-0.747,0.845l-0.386-0.342l-1.271,1.438
		l-0.905-0.801l1.27-1.437l-0.706-0.622l0.748-0.846L58.997,174.811z"/>
	<path fill="#FFFFFF" d="M58.623,170.172l-1.338,4.677l-0.994-0.989l0.989-3.261l-3.181,1.077l-0.967-0.962l8.654-2.782l0.978,0.975
		L58.623,170.172z"/>
	<path fill="#FFFFFF" d="M49.696,166.704l1.474-2.879l-3.143,0.754l-0.839-1.068l6.076-1.316l-2.733,5.573L49.696,166.704z"/>
	<path fill="#FFFFFF" d="M48.852,161.418c-0.63,0.417-1.315,0.547-2.056,0.39c-0.74-0.158-1.326-0.561-1.755-1.208
		c-0.432-0.65-0.575-1.35-0.431-2.099c0.147-0.742,0.545-1.328,1.192-1.758c0.654-0.433,1.35-0.571,2.091-0.414
		c0.74,0.163,1.328,0.574,1.765,1.233c0.434,0.654,0.573,1.35,0.419,2.088C49.928,160.385,49.52,160.974,48.852,161.418z
		 M48.187,160.376c0.436-0.288,0.702-0.634,0.802-1.034c0.099-0.41,0.017-0.81-0.241-1.2c-0.262-0.394-0.597-0.625-1.008-0.692
		c-0.41-0.067-0.826,0.039-1.25,0.32c-0.424,0.281-0.684,0.623-0.781,1.027c-0.098,0.409-0.018,0.81,0.241,1.2
		c0.256,0.385,0.591,0.611,1.005,0.68C47.37,160.745,47.78,160.645,48.187,160.376z"/>
	<path fill="#FFFFFF" d="M42.253,155.794l2.631-1.446c0.759-0.417,0.974-0.926,0.645-1.525c-0.33-0.6-0.875-0.689-1.634-0.272
		l-2.631,1.446l-0.583-1.059l2.655-1.46c0.367-0.201,0.71-0.33,1.026-0.386c0.287-0.043,0.585-0.01,0.895,0.102
		c0.508,0.188,0.914,0.557,1.216,1.109c0.302,0.549,0.396,1.088,0.283,1.615c-0.071,0.326-0.201,0.6-0.39,0.821
		c-0.164,0.206-0.458,0.423-0.877,0.655l-2.655,1.459L42.253,155.794z"/>
	<path fill="#FFFFFF" d="M38.415,147.56l1.459-0.668c-0.191,0.392-0.297,0.712-0.321,0.962c-0.028,0.249,0.019,0.506,0.139,0.77
		c0.189,0.414,0.491,0.691,0.906,0.832s0.84,0.111,1.277-0.088c0.446-0.204,0.752-0.503,0.918-0.898
		c0.164-0.398,0.151-0.803-0.038-1.217c-0.121-0.264-0.284-0.471-0.491-0.621c-0.199-0.145-0.52-0.276-0.959-0.394l1.451-0.663
		c0.436,0.34,0.755,0.733,0.959,1.18c0.336,0.735,0.381,1.46,0.131,2.172c-0.252,0.715-0.733,1.234-1.443,1.559
		s-1.424,0.348-2.142,0.069c-0.717-0.278-1.244-0.782-1.578-1.511C38.471,148.573,38.381,148.079,38.415,147.56z"/>
	<path fill="#FFFFFF" d="M34.066,147.678l-0.42-1.133l4.009-1.485c-0.511-0.269-0.857-0.646-1.038-1.133
		c-0.205-0.554-0.189-1.063,0.046-1.529c0.208-0.397,0.654-0.724,1.339-0.978l3.007-1.113l0.419,1.133l-2.901,1.075
		c-0.394,0.146-0.651,0.32-0.776,0.525c-0.126,0.204-0.13,0.461-0.017,0.77c0.147,0.396,0.373,0.63,0.678,0.7
		c0.307,0.066,0.762-0.014,1.367-0.237l2.373-0.879l0.419,1.134L34.066,147.678z"/>
	<path fill="#FFFFFF" d="M37.049,135.062l1.019,3.608c0.405-0.148,0.695-0.375,0.873-0.683c0.175-0.306,0.208-0.645,0.104-1.017
		c-0.081-0.289-0.218-0.51-0.41-0.66c-0.19-0.147-0.505-0.287-0.944-0.42l0.271-1.137c0.302,0.079,0.568,0.177,0.8,0.293
		c0.232,0.117,0.435,0.255,0.609,0.415c0.173,0.159,0.319,0.343,0.438,0.552c0.118,0.208,0.214,0.443,0.289,0.705
		c0.211,0.751,0.14,1.422-0.213,2.014c-0.358,0.592-0.938,1.001-1.741,1.229c-0.796,0.225-1.502,0.186-2.12-0.117
		c-0.611-0.307-1.021-0.828-1.229-1.562c-0.208-0.741-0.138-1.394,0.212-1.957c0.348-0.56,0.938-0.957,1.767-1.191L37.049,135.062z
		 M36.435,136.524c-0.574,0.337-0.773,0.815-0.598,1.436c0.04,0.142,0.098,0.269,0.176,0.38c0.079,0.112,0.173,0.208,0.282,0.286
		c0.11,0.079,0.231,0.139,0.366,0.179c0.135,0.04,0.279,0.059,0.434,0.056L36.435,136.524z"/>
	<path fill="#FFFFFF" d="M33.93,134.354l-0.249-1.182l0.458-0.097c-0.273-0.169-0.471-0.329-0.59-0.479
		c-0.124-0.153-0.212-0.347-0.261-0.582c-0.066-0.312-0.033-0.659,0.099-1.042l1.197,0.313c-0.114,0.258-0.148,0.494-0.103,0.708
		c0.136,0.645,0.69,0.864,1.665,0.658l2.654-0.56l0.249,1.183L33.93,134.354z"/>
</g>
</svg>
