<svg id="Layer_1" data-name="Layer 1" xmlns="http://www.w3.org/2000/svg" xmlns:xlink="http://www.w3.org/1999/xlink" viewBox="0 0 350 350">
  <defs>
    <style>
      .cls-1 {
        fill: url(#linear-gradient);
      }

      .cls-2, .cls-4 {
        stroke-miterlimit: 10;
      }

      .cls-2 {
        fill: url(#linear-gradient-2);
        stroke: url(#linear-gradient-3);
      }

      .cls-3 {
        fill: url(#linear-gradient-4);
      }

      .cls-4 {
        fill: url(#linear-gradient-5);
        stroke: url(#linear-gradient-6);
      }
    </style>
    <linearGradient id="linear-gradient" x1="278.89" y1="182.59" x2="345.92" y2="182.59" gradientTransform="matrix(1, 0, 0, -1, -23.97, 298.51)" gradientUnits="userSpaceOnUse">
      <stop offset="0" stop-color="#e93f3a"/>
      <stop offset="1" stop-color="#ffd036"/>
    </linearGradient>
    <linearGradient id="linear-gradient-2" x1="225.72" y1="179.79" x2="353.59" y2="179.79" gradientTransform="matrix(1, 0, 0, -1, -23.97, 298.51)" gradientUnits="userSpaceOnUse">
      <stop offset="0" stop-color="#5dba48"/>
      <stop offset="1" stop-color="#d4df37"/>
    </linearGradient>
    <linearGradient id="linear-gradient-3" x1="289.66" y1="114.07" x2="289.66" y2="245.51" gradientTransform="matrix(1, 0, 0, -1, -23.97, 298.51)" gradientUnits="userSpaceOnUse">
      <stop offset="0" stop-color="#0a9baa"/>
      <stop offset="1" stop-color="#d4df37"/>
    </linearGradient>
    <linearGradient id="linear-gradient-4" x1="247.74" y1="182.59" x2="314.75" y2="182.59" gradientTransform="translate(339.48 298.51) rotate(180)" xlink:href="#linear-gradient"/>
    <linearGradient id="linear-gradient-5" x1="194.58" y1="179.82" x2="322.41" y2="179.82" gradientTransform="translate(339.48 298.51) rotate(180)" xlink:href="#linear-gradient-2"/>
    <linearGradient id="linear-gradient-6" x1="258.5" y1="114.07" x2="258.5" y2="245.56" gradientTransform="translate(339.48 298.51) rotate(180)" xlink:href="#linear-gradient-3"/>
  </defs>
  <g id="Wings_2">
    <path class="cls-1" d="M261.83,174.6c-.05-1.22-.12-6.91,4.08-10.89,4.9-4.64,13.37-4.83,16.68-1.37,1.67,1.75,1.77,4.14,2.05,4.09.77-.14-5.47-18.12.68-23.49,5.77-5,18.93,4.12,22.12,0s-8.35-13.59-5.1-21.11,17.38-4.65,19.4-10.89-11.39-10.82-14.3-23.48c-3.37-14.71,10.29-27.67,7.49-30S302.15,71.77,281.86,77c-12.95,3.37-22.69.18-26.16,6.3-1.49,2.63-.69,5,1,14.29,1.35,7.34,1.94,14.81,3.41,22.13C261.94,128.85,263.37,144.71,261.83,174.6Z"/>
    <path class="cls-2" d="M201.83,163.4c.19-2.21.54-6.26,3.47-8.46,3.9-2.94,9.91-.56,12.3.38,8.53,3.35,8.94,8.85,16,11.79,4.13,1.73,10.89,2.72,15.57.14,17.55-9.7,7.22-70.49,0-80.77-.45-.65-2.55-3.46-1.92-6.54s3.95-5.91,6.15-5.39c1.69.41,1.61,2.38,3.85,3.85,1.77,1.16,3.85,1.25,6.41,1,11.28-1.32,23.43-7.52,23.43-7.52,5.08-2.58,4.21-2.44,17.62-9.7,2.44-1.32,6.09-3.28,11.11-5.49,3.2-1.41,5.94-2.46,7.91-3.19,1.08,0,2.65.23,3.32,1.28,1.69,2.64-3.56,8.72-4.67,10C311.68,77.06,295.54,75.36,266.83,88c-1.82.81-3.3,1.49-4.23,1.93h0c6.13,2.85,30.48,8.8,30.53,8.81h0c11.76,3.66,14.08,4.09,14.08,4.09,15.83,3.67,19.39,5.73,21.39,8.62.42.59,1.37,2,.89,2.81-.82,1.44-5.38.26-9.7-.9-12.48-3.33-18.72-5-24.12-6.76s-5.54-1.86-15.07-5c-8.81-2.89-8.35-2.69-9.32-3.06-7.09-2.76-10.84-5.26-12-4.09-.71.75.09,2.59.52,3.57,4.29,10,27,27.11,27,27.11,13.83,10.41,12,9.68,18.66,14.26,7.49,5.12,13.13,8.3,12.64,9.44S312,148.67,308,147.4c-24.77-7.84-43.43-34.18-46.13-39.83-.28-.58-1.41-3.06-2.21-2.9s-.81,2.08-.86,2.73c-.59,8.76,17.65,36.88,23.15,46.12,1.54,2.58,3,5.26,5.79,9.24,4.24,6.08,6.73,8.38,6.26,8.93-.69.81-7.17-2.56-12.39-8-3.1-3.26-4.64-6.1-7-10.47-2.69-4.94-7.36-14.78-10.68-21.61-.31-.65-1-2-1.19-1.88-.52.18,1.3,6.78,1.87,9,2,8,6,23.55-1,33.87-6,8.84-19.82,13.66-29.28,10.21-7.55-2.75-9.43-9.73-17.36-9.87-5.67-.1-8.53,3.4-11.79,1.41C201.14,171.88,201.75,164.46,201.83,163.4Z"/>
    <path class="cls-3" d="M84.82,174.6c0-1.22.12-6.91-4.09-10.89-4.9-4.64-13.37-4.83-16.68-1.37-1.66,1.75-1.76,4.14-2,4.09-.78-.14,5.46-18.12-.68-23.49-5.77-5-18.93,4.12-22.13,0s8.36-13.59,5.11-21.11S27,117.18,24.94,110.94,36.29,100.12,39.2,87.46c3.4-14.72-10.29-27.68-7.49-30S44.5,71.8,64.79,77.07c13,3.37,22.69.18,26.16,6.3,1.49,2.63.69,5-1,14.29C88.6,105,88,112.47,86.55,119.79,84.71,128.85,83.28,144.71,84.82,174.6Z"/>
    <path class="cls-4" d="M144.81,163.4c-.18-2.21-.53-6.26-3.46-8.46-3.91-2.94-9.92-.56-12.31.38-8.52,3.35-8.94,8.85-16,11.79-4.12,1.73-10.88,2.72-15.57.14-17.54-9.7-7.22-70.49,0-80.77.46-.65,2.56-3.46,1.93-6.54s-4-5.91-6.16-5.39c-1.68.41-1.61,2.38-3.84,3.85-1.77,1.16-3.85,1.25-6.41,1C71.74,78,59.6,71.83,59.6,71.83c-5.07-2.58-4.2-2.44-17.61-9.7-2.44-1.32-6.09-3.28-11.11-5.49-3.21-1.41-5.94-2.46-7.91-3.19-1.09,0-2.65.23-3.32,1.28-1.69,2.64,3.56,8.72,4.67,10C35,77.06,51.1,75.36,79.81,88c1.82.81,3.3,1.49,4.23,1.93h0c-6.13,2.85-30.47,8.8-30.52,8.81h0c-11.76,3.66-14.08,4.09-14.08,4.09-15.84,3.67-19.35,5.73-21.35,8.62-.41.59-1.37,2-.89,2.81.83,1.44,5.38.26,9.7-.9,12.48-3.33,18.73-5,24.13-6.76s5.54-1.86,15.06-5c8.82-2.89,8.36-2.69,9.32-3.06,7.09-2.76,10.85-5.26,12-4.09.72.75-.09,2.59-.51,3.57-4.29,10-27,27.11-27,27.11-13.83,10.41-12,9.68-18.67,14.26-7.49,5.12-13.13,8.3-12.64,9.44s6.11-.17,10.13-1.44c24.76-7.84,43.43-34.18,46.13-39.83.27-.58,1.4-3.06,2.21-2.9s.81,2.08.85,2.73c.59,8.76-17.64,36.88-23.15,46.12-1.53,2.58-3,5.26-5.78,9.24-4.24,6.08-6.73,8.38-6.26,8.93.69.81,7.17-2.56,12.38-8,3.1-3.26,4.65-6.1,7-10.47,2.69-4.94,7.37-14.78,10.69-21.61.31-.65.95-2,1.19-1.88.52.18-1.31,6.78-1.88,9-2,8-5.94,23.55,1,33.87,6,8.84,19.82,13.66,29.27,10.21,7.55-2.75,9.43-9.73,17.36-9.87,5.68-.1,8.54,3.4,11.79,1.41C145.51,171.88,144.9,164.46,144.81,163.4Z"/>
  </g>
</svg>
