<svg id="Layer_1" data-name="Layer 1" xmlns="http://www.w3.org/2000/svg" viewBox="0 0 4758.08 3492.81"><defs><style>.cls-1{fill:#2d1a61;}.cls-2{fill:#263b6e;}.cls-3{fill:#1f5d7a;}.cls-4{fill:#187e87;}.cls-5{fill:#109f93;}.cls-6{fill:#09c19f;}.cls-7,.cls-9{fill:#02e2ac;}.cls-8{fill:none;stroke:#2d1a61;stroke-width:11.15px;}.cls-8,.cls-9{stroke-miterlimit:10;}.cls-9{stroke:#fff;stroke-width:1.18px;}.cls-10{fill:#2c216d;}.cls-11{fill:#302477;}.cls-12{fill:#2c1d66;}.cls-13{fill:#2c1d63;}</style></defs><title>DESIGN SHWAG FINAL 2</title><path class="cls-1" d="M130.21,2449.77C166.3,1183.05,1127.31,163.3,2275.4,53.68,3576.59-70.56,4833.22,1001.47,4888.3,2449.77Z" transform="translate(-130.21 -43.88)"/><path class="cls-2" d="M298.5,2450.76C338.86,1277.08,1230.4,334.65,2295.11,232c1208.37-116.56,2377,873.73,2437,2217.81H767.06" transform="translate(-130.21 -43.88)"/><path class="cls-3" d="M466.78,2451.76C511.42,1371.1,1333.49,506,2314.82,410.23,3430.36,301.35,4511.07,1209.91,4576,2449.77h-3172" transform="translate(-130.21 -43.88)"/><path class="cls-4" d="M635.07,2452.75C684,1465.13,1436.58,677.34,2334.53,588.51,3357.24,487.31,4350,1314.13,4419.79,2449.77h-2379" transform="translate(-130.21 -43.88)"/><path class="cls-5" d="M803.35,2453.74c53.18-894.58,736.32-1605,1550.88-1686.95,929.89-93.53,1834.7,651.55,1909.39,1683h-1586" transform="translate(-130.21 -43.88)"/><path class="cls-6" d="M971.63,2454.74c57.46-801.56,671.13-1434.7,1402.31-1509.67,837.07-85.85,1653.92,577.49,1733.51,1504.7h-793" transform="translate(-130.21 -43.88)"/><path class="cls-7" d="M1139.92,2455.73c61.72-708.52,605.93-1264.34,1253.73-1332.38,744.24-78.18,1473.14,503.43,1557.64,1326.42" transform="translate(-130.21 -43.88)"/><path class="cls-7" d="M3750,2491.18H3264q-167.27,300.63-334.54,601.27H2590.43v440.78h535.72Q3438.08,3012.21,3750,2491.18Z" transform="translate(-130.21 -43.88)"/><path class="cls-7" d="M1342.68,2494.65h486q167.26,300.63,334.54,601.27h339.06V3536.7H1966.55Q1654.63,3015.68,1342.68,2494.65Z" transform="translate(-130.21 -43.88)"/><path class="cls-1" d="M1342.68,2410.88h486q167.26-300.63,334.54-601.27h339.06V1368.83H1966.55Q1654.63,1889.86,1342.68,2410.88Z" transform="translate(-130.21 -43.88)"/><path class="cls-1" d="M3750,2405.55H3264q-167.27-300.65-334.54-601.27H2590.43V1363.5h535.72Q3438.08,1884.53,3750,2405.55Z" transform="translate(-130.21 -43.88)"/><polygon class="cls-8" points="3019.87 2403.61 2715.57 2925.92 2111.09 2928.2 1810.9 2408.17 2115.2 1885.85 2719.69 1883.58 3019.87 2403.61"/><path class="cls-9" d="M1201.09,3301.6" transform="translate(-130.21 -43.88)"/><g id="Layer_1-2" data-name="Layer 1-2"><g id="_1421394342400" data-name=" 1421394342400"><polygon class="cls-10" points="2413.89 1981.25 2407.93 2002.11 2407.93 2562.33 2413.89 2568.29 2676.13 2413.33 2413.89 1981.25"/><polygon class="cls-11" points="2413.89 1981.25 2154.64 2413.33 2413.89 2568.29 2413.89 2294.14 2413.89 1981.25"/><polygon class="cls-7" points="2413.89 2618.95 2410.91 2621.93 2410.91 2821.58 2413.89 2830.52 2676.13 2463.99 2413.89 2618.95"/><polygon class="cls-7" points="2413.89 2830.52 2413.89 2618.95 2154.64 2463.99 2413.89 2830.52"/><polygon class="cls-12" points="2413.89 2568.29 2676.13 2413.33 2413.89 2294.14 2413.89 2568.29"/><polygon class="cls-13" points="2154.64 2413.33 2413.89 2568.29 2413.89 2294.14 2154.64 2413.33"/></g></g></svg>