<svg id="Layer_1" data-name="Layer 1" xmlns="http://www.w3.org/2000/svg" viewBox="0 0 64.931 52.8615"><title>Buddha_bot</title><path d="M87.5488,70.5266A2.393,2.393,0,0,0,85.98,69.55a2.4408,2.4408,0,0,0-.7576-.0055,2.4126,2.4126,0,0,0-3.9955-1.2359l-.6189.5739a2.3236,2.3236,0,0,0-.64-.3836l-6.7532-2.7116a2.4818,2.4818,0,0,0-2.3577-1.7156h-1.915l-.3952-.1587a3.31,3.31,0,0,0-2.0172-.1563l-.3088-.262a2.0787,2.0787,0,0,0-1.1965-.9873,1.7035,1.7035,0,0,0-1.3059-.6663l-1.0031.006-.0146-2.6051-.9254.0054a3.5163,3.5163,0,0,0,2.1267-3.2257V54.2351l.856-3.3706a2.9872,2.9872,0,0,0,2.8428-2.98V44.5479a2.9648,2.9648,0,0,0-1.5649-2.6185V34.9409a1.6676,1.6676,0,1,0-3.3352,0v3.1055a10.2644,10.2644,0,0,0-13.9685-.0013v-.78a1.6686,1.6686,0,1,0-3.3371,0v4.6831a2.9764,2.9764,0,0,0-1.5327,2.6v3.3364a2.9861,2.9861,0,0,0,2.81,2.9784l.856,3.37v1.7893a3.5014,3.5014,0,0,0,1.843,3.0708,1.5852,1.5852,0,0,0-.0433.226l-1.4051.0081.0019.4a1.7748,1.7748,0,0,0-1.2014-.4791l-.1052-.0006-.104.0164a1.8,1.8,0,0,0-1.3885.9424l-2.0148,3.866H41.3591a2.4456,2.4456,0,0,0-2.2008,1.3691L31.3751,67.81a2.323,2.323,0,0,0-.6681.3265l-.5666-.625a2.4124,2.4124,0,0,0-4.0874.8864,2.4547,2.4547,0,0,0-.7544-.06,2.4175,2.4175,0,0,0-2.2215,2.5942l.1283,1.6409a2.5659,2.5659,0,0,0,1.6451,3.2015,2.5748,2.5748,0,0,0,1.9643-.1471l4.0138-2.0318a2.3526,2.3526,0,0,0,.7879.6784,2.4491,2.4491,0,0,0,.2517.1156l-.062.1386.1538.4973a1.3959,1.3959,0,0,0,1.3387.9885l3.5742-1.025a4.82,4.82,0,0,0,.8408,4.0356c2.4914,3.9615,11.9337,5.6322,13.0013,5.81l.5179.0863a1.5625,1.5625,0,0,0,1.3546,1.0555l1.86.1422.2006.0134a1.55,1.55,0,0,0,.8974-.2857,1.9458,1.9458,0,0,0,.9338.2249l1.9394-.15A1.5643,1.5643,0,0,0,59.82,84.71l.479-.0645a14.3473,14.3473,0,0,0,2.7723-.6505,1.5374,1.5374,0,0,0,.5593-.2091c.462-.1793.8955-.3819,1.3264-.59a5.0851,5.0851,0,1,0,8.6219-5.3426,2.7331,2.7331,0,0,0,.3518-1.5041,7.6829,7.6829,0,0,0-.0352-1.1612l3.0762,1.2354.27.09h.2261a1.3936,1.3936,0,0,0,1.3959-1.4871,2.1114,2.1114,0,0,0,.3149-.1094,2.3378,2.3378,0,0,0,.839-.6056l3.8289,2.376a2.6252,2.6252,0,0,0,3.53-.8342,2.5235,2.5235,0,0,0,.3148-1.8506l.2773-1.6743v-.0037A2.397,2.397,0,0,0,87.5488,70.5266ZM55.5045,84.3923h0v-.0005l0,.0005Z" transform="translate(-23.07 -33.2708)" fill="#fff"/><polygon points="33.289 51.249 35.231 51.099 35.231 49.248 39.761 49.187 38.332 45.568 35.96 46.018 33.289 46.695 33.289 51.249" fill="#e6e7e8" stroke="#0e2947" stroke-linecap="round" stroke-linejoin="round" stroke-width="0.5"/><polygon id="Shape" points="33.142 46.694 33.142 51.25 32.581 51.121 32.581 46.823 33.142 46.694" fill="#25e899"/><path id="Shape-2" data-name="Shape" d="M56.1674,79.8593l-.56.1283a.1184.1184,0,0,0-.1032.1062v4.298a.1179.1179,0,0,0,.1032.1062l.56.1284a.1828.1828,0,0,0,.0984-.0036h.0053l.0293-.0111A.104.104,0,0,0,56.36,84.52V79.9655a.1043.1043,0,0,0-.0591-.0916l-.0293-.0107h-.0053A.178.178,0,0,0,56.1674,79.8593Zm-.1031.2563V84.37l-.2655-.0586V80.1742Z" transform="translate(-23.07 -33.2708)" fill="#0e2947"/><polygon points="31.579 51.305 29.638 51.155 29.638 49.303 25.107 49.242 26.536 45.624 28.908 46.073 31.579 46.75 31.579 51.305" fill="#e6e7e8" stroke="#0e2947" stroke-linecap="round" stroke-linejoin="round" stroke-width="0.5"/><polygon id="Shape-3" data-name="Shape" points="31.726 46.749 31.726 51.306 32.287 51.177 32.287 46.878 31.726 46.749" fill="#25e899"/><path id="Shape-4" data-name="Shape" d="M54.7423,79.9188H54.737l-.0292.0107a.1042.1042,0,0,0-.0591.0915v4.5548a.1042.1042,0,0,0,.0591.0915l.0292.0111h.0053a.1829.1829,0,0,0,.0984.0036l.56-.1284a.1181.1181,0,0,0,.1032-.1062v-4.298a.1184.1184,0,0,0-.1032-.1062l-.56-.1284A.179.179,0,0,0,54.7423,79.9188Zm.467.311V84.367l-.2655.0586V80.1712Z" transform="translate(-23.07 -33.2708)" fill="#0e2947"/><path d="M48.4485,74.7173a38.3589,38.3589,0,0,0,7.7116.7492,48.8506,48.8506,0,0,0,8.0777-1.5091,46.2523,46.2523,0,0,1,4.5926-1.01c1.026-.0239,4.071-.6944,3.8515,3.4464,0,0,.3608,1.6347-3.3664,3.2342s-5.3878,3.277-9.1822,3.7831l-1.2024-4.2424s.5528.4241-3.214.93l-3.0577-.4828-.9726-.14-.7678,4.1309s-9.8855-1.6422-12.1514-5.2438.7434-5.1631,3.0892-4.8763S47.5956,74.5613,48.4485,74.7173Z" transform="translate(-23.07 -33.2708)" fill="#0e2947"/><path d="M45.9359,44.0734a4.3149,4.3149,0,0,0-.2845,1.6876,4.2124,4.2124,0,0,0,.3872,2.3774,4.1932,4.1932,0,0,0,1.2874,1.17,7.3077,7.3077,0,0,0,1.7779.9822,7.1416,7.1416,0,0,0,2.0646.2593c1.6517.0413,3.3041.0561,4.9563.0708,1.8975.017,3.7985.0338,5.6891-.13a3.2175,3.2175,0,0,0,1.2588-.2936,1.178,1.178,0,0,0,.6695-1.0356,1.6493,1.6493,0,0,0,2.0771-.7182,4.5717,4.5717,0,0,0,.4955-2.347,3.1516,3.1516,0,0,0-.4077-1.9874c-.3873-.52-1.047-.7562-1.52-1.2a5.7747,5.7747,0,0,1-.9054-1.306,9.4855,9.4855,0,0,0-8.36-4.644,8.6687,8.6687,0,0,0-4.9518,1.8978,8.8588,8.8588,0,0,0-2.2907,2.81c-.21.4048-.3536,1.2056-.7148,1.4628-.1773.1264-.4664.1232-.6644.2592A1.71,1.71,0,0,0,45.9359,44.0734Z" transform="translate(-23.07 -33.2708)" fill="#d6d6ea"/><polygon id="Shape-5" data-name="Shape" points="25.272 17.211 38.878 17.211 40.032 17.652 39.165 20.756 26.128 20.756 25.272 17.211" fill="#25e899"/><path id="Shape-6" data-name="Shape" d="M60.3923,57.8656H51.04a1.8432,1.8432,0,0,1-1.8421-1.8434V54.0273h13.037v1.9949a1.8438,1.8438,0,0,1-1.8428,1.8434" transform="translate(-23.07 -33.2708)" fill="#d6d6ea"/><path id="Shape-7" data-name="Shape" d="M60.3923,58.2887H51.04a2.27,2.27,0,0,1-2.2658-2.2665v-2.42H62.6581v2.42A2.27,2.27,0,0,1,60.3923,58.2887ZM49.6219,54.45v1.5719a1.4206,1.4206,0,0,0,1.4183,1.419h9.3521a1.4208,1.4208,0,0,0,1.419-1.419V54.45Z" transform="translate(-23.07 -33.2708)" fill="#0e2947"/><path id="Shape-8" data-name="Shape" d="M62.5639,54.45H48.8693l-2.2281-8.7726v-.0536a9.0754,9.0754,0,1,1,18.1508,0v.0536l-.0131.0514Zm-13.0355-.8482H61.9047l2.0405-8.0309a8.2288,8.2288,0,0,0-16.4573,0Z" transform="translate(-23.07 -33.2708)" fill="#0e2947"/><path id="Shape-9" data-name="Shape" d="M47.0642,45.9225a.4235.4235,0,0,1-.423-.423V37.2651a.4234.4234,0,1,1,.8467,0V45.5a.4236.4236,0,0,1-.4237.423" transform="translate(-23.07 -33.2708)" fill="#0e2947"/><path id="Shape-10" data-name="Shape" d="M64.369,45.9225a.4231.4231,0,0,1-.4231-.423V34.9406a.4231.4231,0,1,1,.8461,0V45.5a.4235.4235,0,0,1-.423.423" transform="translate(-23.07 -33.2708)" fill="#0e2947"/><path id="Shape-11" data-name="Shape" d="M47.7378,49.6226H46.844a1.7393,1.7393,0,0,1-1.7356-1.7385V44.5477A1.7386,1.7386,0,0,1,46.844,42.81h.38a.423.423,0,1,1,0,.846h-.38a.892.892,0,0,0-.8895.8917v3.3364a.89.89,0,0,0,.8895.89h.8938a.4242.4242,0,1,1,0,.8483" transform="translate(-23.07 -33.2708)" fill="#0e2947"/><path id="Shape-12" data-name="Shape" d="M64.6181,49.6226H63.725a.4242.4242,0,0,1,0-.8483h.8931a.8917.8917,0,0,0,.8917-.89V44.5477a.8934.8934,0,0,0-.8917-.8917H64.24a.423.423,0,1,1,0-.846h.3781a1.7406,1.7406,0,0,1,1.7385,1.7377v3.3364a1.7413,1.7413,0,0,1-1.7385,1.7385" transform="translate(-23.07 -33.2708)" fill="#0e2947"/><path id="Shape-13" data-name="Shape" d="M47.1569,44.6006a.419.419,0,0,1-.2948-.12.4234.4234,0,0,1-.008-.599,12.5147,12.5147,0,0,1,17.6148-.3774.4238.4238,0,0,1-.58.6179,11.6646,11.6646,0,0,0-16.429.3513.422.422,0,0,1-.3028.1275" transform="translate(-23.07 -33.2708)" fill="#0e2947"/><path id="Shape-14" data-name="Shape" d="M63.1021,50.9046H48.342a.4234.4234,0,0,1,0-.8467h14.76a.4234.4234,0,0,1,0,.8467" transform="translate(-23.07 -33.2708)" fill="#0e2947"/><path d="M56.9832,47.0392a2.2333,2.2333,0,0,1,4.4666,0" transform="translate(-23.07 -33.2708)" fill="none" stroke="#0e2947" stroke-linecap="round" stroke-linejoin="round" stroke-width="0.5"/><path d="M49.8381,47.0392a2.2333,2.2333,0,0,1,4.4666,0" transform="translate(-23.07 -33.2708)" fill="none" stroke="#0e2947" stroke-linecap="round" stroke-linejoin="round" stroke-width="0.5"/><line x1="30.4196" y1="18.9837" x2="35.0195" y2="18.9837" fill="none" stroke="#0e2947" stroke-linecap="round" stroke-linejoin="round" stroke-width="0.5"/><polygon points="41.931 30.821 39.035 31.682 42.735 35.15 44.587 33.076 41.931 30.821" fill="#0e2947"/><path d="M72.38,61.7887h.2311a1.7966,1.7966,0,0,1,1.7966,1.7966V75.8966a.7869.7869,0,0,1-.7869.7869H71.37a.7869.7869,0,0,1-.7869-.7869V63.5853A1.7966,1.7966,0,0,1,72.38,61.7887Z" transform="translate(-41.8385 77.4395) rotate(-68.1215)" fill="#e6e7e8" stroke="#0e2947" stroke-miterlimit="10" stroke-width="0.5"/><line x1="42.5147" y1="33.1901" x2="56.3368" y2="38.7405" fill="none" stroke="#0e2947" stroke-linecap="round" stroke-linejoin="round" stroke-width="0.25"/><path id="Shape-15" data-name="Shape" d="M72.6926,68.7487a.5255.5255,0,1,1-.6842.2912A.5252.5252,0,0,1,72.6926,68.7487Z" transform="translate(-23.07 -33.2708)" fill="#fccf0e"/><path id="Shape-16" data-name="Shape" d="M71.83,68.9676a.718.718,0,1,0,.9313-.3934A.7173.7173,0,0,0,71.83,68.9676Zm.9759.3918a.3339.3339,0,0,1-.62-.2488.3339.3339,0,1,1,.62.2488Z" transform="translate(-23.07 -33.2708)" fill="#0e2947"/><line x1="45.3692" y1="34.1388" x2="46.0135" y2="32.5345" fill="none" stroke="#0e2947" stroke-linecap="round" stroke-linejoin="round" stroke-width="0.25"/><line x1="46.6545" y1="34.8543" x2="46.0053" y2="36.471" fill="none" stroke="#0e2947" stroke-linecap="round" stroke-linejoin="round" stroke-width="0.25"/><line x1="52.8406" y1="37.139" x2="53.4849" y2="35.5347" fill="none" stroke="#0e2947" stroke-linecap="round" stroke-linejoin="round" stroke-width="0.25"/><line x1="54.1259" y1="37.8545" x2="53.4766" y2="39.4712" fill="none" stroke="#0e2947" stroke-linecap="round" stroke-linejoin="round" stroke-width="0.25"/><path id="Shape-17" data-name="Shape" d="M80.9288,72.6294l-3.0337-1.21" transform="translate(-23.07 -33.2708)" fill="#0e2947"/><path id="Shape-18" data-name="Shape" d="M81.1688,72.7246a.2578.2578,0,0,1-.3342.1439L77.8,71.6576a.2566.2566,0,1,1,.191-.4764l3.0336,1.2094a.2582.2582,0,0,1,.1443.334" transform="translate(-23.07 -33.2708)" fill="#0e2947"/><circle cx="55.0595" cy="38.2294" r="0.6309" fill="#25e899" stroke="#0e2947" stroke-miterlimit="10" stroke-width="0.25"/><line x1="46.5589" y1="38.6944" x2="54.3976" y2="41.8421" fill="none" stroke="#0e2947" stroke-linecap="round" stroke-linejoin="round" stroke-width="0.25"/><rect x="79.6004" y="72.2975" width="6.8312" height="1.7088" rx="0.8544" ry="0.8544" transform="matrix(0.8499, 0.5269, -0.5269, 0.8499, 27.9353, -66.0348)" fill="#eff4ee" stroke="#0e2947" stroke-miterlimit="10" stroke-width="0.75"/><path id="Shape-19" data-name="Shape" d="M83.4891,70.7473l-1.8532,1.719a.64.64,0,0,1-.9047-.0349l-.3694-.3983a.6409.6409,0,0,1,.0339-.9047L82.2491,69.41" transform="translate(-23.07 -33.2708)" fill="#eff4ee"/><path id="Shape-20" data-name="Shape" d="M82.4374,69.2345a.2572.2572,0,0,1-.0136.3632L80.57,71.317a.3836.3836,0,0,0-.0208.5415l.37.3989a.3843.3843,0,0,0,.5417.0208l1.853-1.7194a.2572.2572,0,0,1,.35.3774l-1.8531,1.718a.8968.8968,0,0,1-1.268-.0475l-.37-.3982a.8985.8985,0,0,1,.0483-1.2682l1.8532-1.7191a.2568.2568,0,0,1,.3628.0133" transform="translate(-23.07 -33.2708)" fill="#0e2947"/><path id="Shape-21" data-name="Shape" d="M82.2492,69.41a.9118.9118,0,1,0,1.289.0485.9126.9126,0,0,0-1.289-.0485" transform="translate(-23.07 -33.2708)" fill="#25e899"/><path id="Shape-22" data-name="Shape" d="M83.726,69.2836a1.1688,1.1688,0,1,1-1.6518-.0623,1.17,1.17,0,0,1,1.6518.0623m-1.3373,1.2408a.6555.6555,0,1,0,.0351-.9267.6552.6552,0,0,0-.0351.9267" transform="translate(-23.07 -33.2708)" fill="#0e2947"/><path id="Shape-23" data-name="Shape" d="M86.4864,72.0812l-.4129,2.4937a.64.64,0,0,1-.7367.5263l-.5359-.0888a.641.641,0,0,1-.5271-.7362l.4133-2.4935" transform="translate(-23.07 -33.2708)" fill="#eff4ee"/><path id="Shape-24" data-name="Shape" d="M84.7287,71.5288a.2574.2574,0,0,1,.2117.2955l-.4132,2.4942a.3837.3837,0,0,0,.3151.441l.5372.0885a.3842.3842,0,0,0,.441-.3151l.4126-2.494a.2571.2571,0,0,1,.5073.0844l-.4134,2.493a.8969.8969,0,0,1-1.0317.7387l-.5362-.0884a.8986.8986,0,0,1-.7383-1.0324l.4129-2.4938a.2569.2569,0,0,1,.295-.2116" transform="translate(-23.07 -33.2708)" fill="#0e2947"/><path id="Shape-25" data-name="Shape" d="M84.6875,71.7829a.9117.9117,0,1,0,1.0488-.7507.9126.9126,0,0,0-1.0488.7507" transform="translate(-23.07 -33.2708)" fill="#25e899"/><path id="Shape-26" data-name="Shape" d="M85.7777,70.7787a1.1688,1.1688,0,1,1-1.3442.9621,1.17,1.17,0,0,1,1.3442-.9621m-.2978,1.8a.6555.6555,0,1,0-.54-.7542.6551.6551,0,0,0,.54.7542" transform="translate(-23.07 -33.2708)" fill="#0e2947"/><polygon points="23.6 31.439 26.41 32.547 22.426 35.682 20.759 33.456 23.6 31.439" fill="#0e2947"/><path d="M37.6338,61.741h2.2505a.7869.7869,0,0,1,.7869.7869V74.8392a1.7966,1.7966,0,0,1-1.7966,1.7966h-.2311a1.7966,1.7966,0,0,1-1.7966-1.7966V62.5279a.7869.7869,0,0,1,.7869-.7869Z" transform="translate(-39.2133 93.1455) rotate(-106.9307)" fill="#e6e7e8" stroke="#0e2947" stroke-miterlimit="10" stroke-width="0.5"/><line x1="22.8137" y1="33.7488" x2="8.5645" y2="38.0864" fill="none" stroke="#0e2947" stroke-linecap="round" stroke-linejoin="round" stroke-width="0.25"/><line x1="19.888" y1="34.4478" x2="19.3846" y2="32.7939" fill="none" stroke="#0e2947" stroke-linecap="round" stroke-linejoin="round" stroke-width="0.25"/><line x1="18.5459" y1="35.0498" x2="19.0532" y2="36.7165" fill="none" stroke="#0e2947" stroke-linecap="round" stroke-linejoin="round" stroke-width="0.25"/><line x1="12.1857" y1="36.7925" x2="11.6823" y2="35.1385" fill="none" stroke="#0e2947" stroke-linecap="round" stroke-linejoin="round" stroke-width="0.25"/><line x1="10.8436" y1="37.3944" x2="11.3509" y2="39.0611" fill="none" stroke="#0e2947" stroke-linecap="round" stroke-linejoin="round" stroke-width="0.25"/><path id="Shape-27" data-name="Shape" d="M30.0648,71.8418l3.1267-.9439" transform="translate(-23.07 -33.2708)" fill="#0e2947"/><path id="Shape-28" data-name="Shape" d="M29.8174,71.9159a.2578.2578,0,0,0,.3206.1722l3.1278-.9446a.2566.2566,0,1,0-.1491-.4911l-3.1267.9432a.2583.2583,0,0,0-.1726.32" transform="translate(-23.07 -33.2708)" fill="#0e2947"/><circle cx="9.8811" cy="37.6874" r="0.6309" fill="#25e899" stroke="#0e2947" stroke-miterlimit="10" stroke-width="0.25"/><line x1="18.3099" y1="38.8838" x2="10.2289" y2="41.3437" fill="none" stroke="#0e2947" stroke-linecap="round" stroke-linejoin="round" stroke-width="0.25"/><path id="Shape-29" data-name="Shape" d="M38.9183,68.6683a.5256.5256,0,1,1-.6842.2913A.5253.5253,0,0,1,38.9183,68.6683Z" transform="translate(-23.07 -33.2708)" fill="#fccf0e"/><path id="Shape-30" data-name="Shape" d="M38.0557,68.8872a.7181.7181,0,1,0,.9313-.3933A.7174.7174,0,0,0,38.0557,68.8872Zm.9759.3919a.334.334,0,0,1-.62-.2489.334.334,0,0,1,.62.2489Z" transform="translate(-23.07 -33.2708)" fill="#0e2947"/><rect x="24.5246" y="71.3279" width="6.8312" height="1.7088" rx="0.8544" ry="0.8544" transform="translate(62.4 90.6925) rotate(153.1499)" fill="#eff4ee" stroke="#0e2947" stroke-miterlimit="10" stroke-width="0.75"/><path id="Shape-31" data-name="Shape" d="M27.6763,69.7459l1.6981,1.8724a.64.64,0,0,0,.9043.0433l.4024-.365a.641.641,0,0,0,.0442-.9043L29.0271,68.52" transform="translate(-23.07 -33.2708)" fill="#eff4ee"/><path id="Shape-32" data-name="Shape" d="M28.8546,68.3294a.2573.2573,0,0,0-.0178.3631l1.6984,1.8726a.3836.3836,0,0,1-.026.5414l-.4035.3654a.3842.3842,0,0,1-.5414-.026l-1.6979-1.8728a.2572.2572,0,0,0-.3807.3458l1.698,1.8715a.8968.8968,0,0,0,1.2674.062l.4029-.3647a.8987.8987,0,0,0,.0612-1.2678l-1.698-1.8725a.2569.2569,0,0,0-.3626-.018" transform="translate(-23.07 -33.2708)" fill="#0e2947"/><path id="Shape-33" data-name="Shape" d="M29.0269,68.5207a.9118.9118,0,1,1-1.2883-.0629.9126.9126,0,0,1,1.2883.0629" transform="translate(-23.07 -33.2708)" fill="#25e899"/><path id="Shape-34" data-name="Shape" d="M27.5666,68.2671a1.1688,1.1688,0,1,1-.0805,1.652,1.17,1.17,0,0,1,.0805-1.652m1.2252,1.3516a.6555.6555,0,1,0-.9254-.0456.6566.6566,0,0,0,.9254.0456" transform="translate(-23.07 -33.2708)" fill="#0e2947"/><path id="Shape-35" data-name="Shape" d="M24.5751,70.8162l.1963,2.52a.64.64,0,0,0,.6886.5878l.5416-.0422a.6408.6408,0,0,0,.5886-.688l-.1967-2.52" transform="translate(-23.07 -33.2708)" fill="#eff4ee"/><path id="Shape-36" data-name="Shape" d="M26.374,70.4176a.2573.2573,0,0,0-.2364.2761l.1965,2.52a.3837.3837,0,0,1-.352.4122l-.5428.0418a.3842.3842,0,0,1-.4122-.352l-.1959-2.52a.2572.2572,0,0,0-.5128.04l.1969,2.5192a.897.897,0,0,0,.9642.825l.5418-.0418a.8984.8984,0,0,0,.8245-.9649l-.1962-2.52a.2567.2567,0,0,0-.2756-.2362" transform="translate(-23.07 -33.2708)" fill="#0e2947"/><path id="Shape-37" data-name="Shape" d="M26.3931,70.6743a.9118.9118,0,1,1-.98-.8384.9125.9125,0,0,1,.98.8384" transform="translate(-23.07 -33.2708)" fill="#25e899"/><path id="Shape-38" data-name="Shape" d="M25.3936,69.58a1.1688,1.1688,0,1,1-1.075,1.2569,1.17,1.17,0,0,1,1.075-1.2569m.1414,1.8187a.6554.6554,0,1,0-.7038-.6026.6566.6566,0,0,0,.7038.6026" transform="translate(-23.07 -33.2708)" fill="#0e2947"/><g id="Group"><rect x="63.0234" y="63.8051" width="2.0239" height="5.3888" rx="0.6873" ry="0.6873" transform="translate(103.5154 101.1272) rotate(-178.7336)" fill="#d6d6ea" stroke="#0e2947" stroke-miterlimit="10" stroke-width="0.25"/><rect x="23.0473" y="30.723" width="2.0239" height="5.3888" rx="0.6873" ry="0.6873" fill="#d6d6ea" stroke="#0e2947" stroke-miterlimit="10" stroke-width="0.25"/><rect id="Rectangle-path" x="47.6875" y="63.5658" width="16.1541" height="3.7754" transform="translate(-23.4445 -32.9499) rotate(-0.3286)" fill="#d6d6ea"/><rect id="Rectangle-path-2" data-name="Rectangle-path" x="49.8447" y="61.1046" width="11.1099" height="2.3489" transform="translate(-23.4263 -32.952) rotate(-0.3286)" fill="#d6d6ea"/><path id="Shape-39" data-name="Shape" d="M47.4736,67.5925l16.2777-.0934" transform="translate(-23.07 -33.2708)" fill="#25e899"/><rect id="Rectangle-path-3" data-name="Rectangle-path" x="47.4734" y="67.1934" width="16.278" height="0.7066" transform="translate(-23.4565 -32.9507) rotate(-0.3286)" fill="#0e2947"/><polygon id="Shape-40" data-name="Shape" points="24.404 34.322 24.594 36.708 26.218 38.877 27.632 39.004 32.807 39.477 38.109 39.067 39.88 37.824 40.688 35.473 40.329 34.23 24.404 34.322" fill="#0e2947"/><path id="Shape-41" data-name="Shape" d="M60.02,72.8809l-8.753.05a4.12,4.12,0,0,1-4.1405-4.092l-.03-5.3041a.3528.3528,0,0,1,.3522-.355l16.2777-.0934a.3531.3531,0,0,1,.355.351l.03,5.3041A4.1191,4.1191,0,0,1,60.02,72.8809ZM47.8059,63.884l.0284,4.951a3.4131,3.4131,0,0,0,3.4286,3.3907l8.753-.05a3.4145,3.4145,0,0,0,3.3889-3.43l-.0284-4.951Z" transform="translate(-23.07 -33.2708)" fill="#0e2947"/><path id="Shape-42" data-name="Shape" d="M57.2039,67.7452a1.6807,1.6807,0,1,0-1.6719,1.6906,1.68,1.68,0,0,0,1.6719-1.6906" transform="translate(-23.07 -33.2708)" fill="#25e899"/><path id="Shape-43" data-name="Shape" d="M55.534,69.7894a2.034,2.034,0,1,1,2.0229-2.0462,2.0362,2.0362,0,0,1-2.0229,2.0462m-.0193-3.3613a1.3274,1.3274,0,1,0,1.335,1.3191,1.328,1.328,0,0,0-1.335-1.3191" transform="translate(-23.07 -33.2708)" fill="#0e2947"/><path id="Shape-44" data-name="Shape" d="M49.2434,71.8045a.82.82,0,1,0-.8161.8256.8206.8206,0,0,0,.8161-.8256" transform="translate(-23.07 -33.2708)" fill="#0e2947"/><path id="Shape-45" data-name="Shape" d="M63.657,71.7219a.8208.8208,0,1,0-.8161.8255.8205.8205,0,0,0,.8161-.8255" transform="translate(-23.07 -33.2708)" fill="#0e2947"/><path id="Shape-46" data-name="Shape" d="M62.7411,71.1686a.5093.5093,0,1,0-.5066.5131.5093.5093,0,0,0,.5066-.5131" transform="translate(-23.07 -33.2708)" fill="#eff4ee"/><path id="Shape-47" data-name="Shape" d="M49.4378,71.2449a.5092.5092,0,1,0-.5066.5131.5086.5086,0,0,0,.5066-.5131" transform="translate(-23.07 -33.2708)" fill="#eff4ee"/><path id="Shape-48" data-name="Shape" d="M61.4821,63.8055l-12.2878.07-.019-3.3112,12.2878-.07Zm-11.5846-.64,10.8746-.0624-.0109-1.898-10.8746.0624Z" transform="translate(-23.07 -33.2708)" fill="#0e2947"/><rect id="Rectangle-path-4" data-name="Rectangle-path" x="59.3429" y="63.8201" width="4.0644" height="3.3215" transform="translate(-23.4445 -32.9177) rotate(-0.3286)" fill="#9393b5"/><rect id="Rectangle-path-5" data-name="Rectangle-path" x="57.6755" y="61.226" width="3.0821" height="1.8823" transform="translate(-23.4256 -32.9301) rotate(-0.3286)" fill="#9393b5"/><path id="Shape-49" data-name="Shape" d="M59.9069,59.9085l-9.0334.0518a.3533.3533,0,1,1-.0041-.7066l9.0334-.0518a.3533.3533,0,1,1,.0041.7066" transform="translate(-23.07 -33.2708)" fill="#25e899"/></g><path d="M48.9579,65.1123l-2.0471-4.1817a.2265.2265,0,0,0-.4043-.0051L44.3139,65.133a.9205.9205,0,0,1-.8164.4951H41.359a.9206.9206,0,0,0-.9206.9206v9.3434a.9207.9207,0,0,0,.9206.9207H70.8575a.9207.9207,0,0,0,.9206-.9207V66.5487a.9206.9206,0,0,0-.9206-.9206H49.7848A.9207.9207,0,0,1,48.9579,65.1123Z" transform="translate(-23.07 -33.2708)" fill="#fff" stroke="#4852a3" stroke-miterlimit="10" stroke-width="0.5"/><path d="M42.429,70.6413V68.3571h.3862v.94h1.0391v-.94h.3862v2.2842h-.3789v-.999H42.8231v.999Z" transform="translate(-23.07 -33.2708)" fill="#150a3a" stroke="#150a3a" stroke-linecap="round" stroke-linejoin="round" stroke-width="0.1"/><path d="M44.5491,70.6413l.89-2.2842h.3921l.8974,2.2842h-.4365l-.2144-.5567h-.8945l-.21.5567Zm.7788-.9287h.5933q-.175-.5347-.2935-.89Q45.5289,69.1189,45.3279,69.7126Z" transform="translate(-23.07 -33.2708)" fill="#150a3a" stroke="#150a3a" stroke-linecap="round" stroke-linejoin="round" stroke-width="0.1"/><path d="M47.0379,70.6413V68.3571h.7983a1.5322,1.5322,0,0,1,.316.0283.7279.7279,0,0,1,.2407.0962.4239.4239,0,0,1,.1631.1948.7884.7884,0,0,1,.0547.3116.5344.5344,0,0,1-.4458.541.6741.6741,0,0,1,.2934.3574l.3.7549H48.34l-.2539-.68a.5428.5428,0,0,0-.1353-.2276.3485.3485,0,0,0-.2207-.0595h-.3057v.9668Zm.3818-1.3037h.37q.4137,0,.4135-.3311a.2845.2845,0,0,0-.0869-.2436.4912.4912,0,0,0-.2856-.064H47.42Z" transform="translate(-23.07 -33.2708)" fill="#150a3a" stroke="#150a3a" stroke-linecap="round" stroke-linejoin="round" stroke-width="0.1"/><path d="M49.1487,70.6413V68.3571h.6177a1.46,1.46,0,0,1,.9922.291,1.0579,1.0579,0,0,1,.3291.8369,1.1112,1.1112,0,0,1-.3213.8614,1.3449,1.3449,0,0,1-.938.2949ZM49.535,70.3h.3134a.8509.8509,0,0,0,.6153-.2071.8109.8109,0,0,0,.2148-.6093.7559.7559,0,0,0-.2168-.5821.9394.9394,0,0,0-.6606-.2021H49.535Z" transform="translate(-23.07 -33.2708)" fill="#150a3a" stroke="#150a3a" stroke-linecap="round" stroke-linejoin="round" stroke-width="0.1"/><path d="M52.452,70.6413V68.3571h1.3525v.3418h-.9658v.623h.9092v.3438h-.9092v.9756Z" transform="translate(-23.07 -33.2708)" fill="#150a3a" stroke="#150a3a" stroke-linecap="round" stroke-linejoin="round" stroke-width="0.1"/><path d="M55.1815,70.6774a1.06,1.06,0,0,1-.8174-.3223,1.2241,1.2241,0,0,1-.2989-.8662,1.199,1.199,0,0,1,.3008-.8525,1.0679,1.0679,0,0,1,.82-.3218,1.0383,1.0383,0,0,1,.8008.3208,1.2052,1.2052,0,0,1,.2979.8535,1.24,1.24,0,0,1-.294.8672A1.0424,1.0424,0,0,1,55.1815,70.6774Zm-.0088-.3408a.6213.6213,0,0,0,.5156-.22.9872.9872,0,0,0,.1768-.628.9613.9613,0,0,0-.1768-.6152.6162.6162,0,0,0-.51-.2183.6327.6327,0,0,0-.5166.2183.9448.9448,0,0,0-.18.6152.9875.9875,0,0,0,.1748.628A.6189.6189,0,0,0,55.1727,70.3366Z" transform="translate(-23.07 -33.2708)" fill="#150a3a" stroke="#150a3a" stroke-linecap="round" stroke-linejoin="round" stroke-width="0.1"/><path d="M56.7352,70.6413V68.3571h.7988a1.5287,1.5287,0,0,1,.3154.0283.7289.7289,0,0,1,.2412.0962.4237.4237,0,0,1,.1621.1948.7692.7692,0,0,1,.0547.3116.5586.5586,0,0,1-.11.3408.552.552,0,0,1-.335.2.68.68,0,0,1,.294.3574l.2988.7549h-.418l-.2539-.68a.5469.5469,0,0,0-.1357-.2276.3456.3456,0,0,0-.22-.0595h-.3057v.9668Zm.3818-1.3037h.3691q.4146,0,.4141-.3311a.286.286,0,0,0-.0869-.2436.493.493,0,0,0-.2861-.064h-.41Z" transform="translate(-23.07 -33.2708)" fill="#150a3a" stroke="#150a3a" stroke-linecap="round" stroke-linejoin="round" stroke-width="0.1"/><path d="M58.8465,70.6413V68.3571h.3867v.9971l.8526-.9971h.4824l-.96,1.1025,1.0342,1.1817H60.14L59.2371,69.62v1.0215Z" transform="translate(-23.07 -33.2708)" fill="#150a3a" stroke="#150a3a" stroke-linecap="round" stroke-linejoin="round" stroke-width="0.1"/><path d="M61.5594,70.6774a1.4168,1.4168,0,0,1-.4395-.0693.8149.8149,0,0,1-.333-.1914l.1641-.2852a.9245.9245,0,0,0,.2812.1455.937.937,0,0,0,.3028.06.4794.4794,0,0,0,.3037-.0781.2879.2879,0,0,0,.0986-.2383.4672.4672,0,0,0-.01-.1016.2169.2169,0,0,0-.0411-.08.3094.3094,0,0,0-.0947-.0761,1.1248,1.1248,0,0,0-.17-.0752c-.03-.01-.082-.0274-.1543-.0518s-.125-.042-.1592-.0547a.969.969,0,0,1-.3965-.2519.5874.5874,0,0,1-.123-.3926.5737.5737,0,0,1,.1025-.3438.6034.6034,0,0,1,.2725-.21,1.0584,1.0584,0,0,1,.39-.0674,1.4057,1.4057,0,0,1,.461.06.87.87,0,0,1,.3105.2041l-.1982.2637a.7057.7057,0,0,0-.5186-.1836.5912.5912,0,0,0-.2939.0644.21.21,0,0,0-.1133.1958.399.399,0,0,0,.0107.1055.19.19,0,0,0,.045.082.3208.3208,0,0,0,.0976.0742,1.5261,1.5261,0,0,0,.1709.0723c.0244.01.0781.0273.1582.0547s.1406.0469.1807.0635a.8729.8729,0,0,1,.3769.2549.6651.6651,0,0,1,.1065.4023.6551.6551,0,0,1-.0655.3008.5138.5138,0,0,1-.1777.2031.861.861,0,0,1-.25.1094A1.1353,1.1353,0,0,1,61.5594,70.6774Z" transform="translate(-23.07 -33.2708)" fill="#150a3a" stroke="#150a3a" stroke-linecap="round" stroke-linejoin="round" stroke-width="0.1"/><path d="M63.4549,70.6413l.89-2.2842h.3926l.8975,2.2842h-.4365l-.2149-.5567h-.8945l-.21.5567Zm.7783-.9287h.5938q-.1758-.5347-.294-.89Q64.4334,69.1189,64.2332,69.7126Z" transform="translate(-23.07 -33.2708)" fill="#150a3a" stroke="#150a3a" stroke-linecap="round" stroke-linejoin="round" stroke-width="0.1"/><path d="M65.9432,70.6413V68.3571h.7988a1.5287,1.5287,0,0,1,.3154.0283.7289.7289,0,0,1,.2412.0962.4245.4245,0,0,1,.1622.1948.771.771,0,0,1,.0546.3116.5586.5586,0,0,1-.11.3408.552.552,0,0,1-.335.2.68.68,0,0,1,.294.3574l.2988.7549h-.418l-.2539-.68a.5469.5469,0,0,0-.1357-.2276.3456.3456,0,0,0-.22-.0595H66.33v.9668Zm.3818-1.3037h.3692q.4145,0,.414-.3311a.286.286,0,0,0-.0869-.2436.493.493,0,0,0-.2861-.064h-.41Z" transform="translate(-23.07 -33.2708)" fill="#150a3a" stroke="#150a3a" stroke-linecap="round" stroke-linejoin="round" stroke-width="0.1"/><path d="M68.0545,70.6413V68.3571H69.452v.3418H68.4412v.61h.9561v.3438h-.9522V70.3h1.0508v.3418Z" transform="translate(-23.07 -33.2708)" fill="#150a3a" stroke="#150a3a" stroke-linecap="round" stroke-linejoin="round" stroke-width="0.1"/><path d="M44.8821,74.4967V72.2126h.4092q1.0554,1.5776,1.124,1.6816V72.2126h.3682v2.2841h-.4106q-1.0211-1.52-1.1333-1.6845v1.6845Z" transform="translate(-23.07 -33.2708)" fill="#150a3a" stroke="#150a3a" stroke-linecap="round" stroke-linejoin="round" stroke-width="0.1"/><path d="M48.35,74.5329a1.06,1.06,0,0,1-.8179-.3223,1.2249,1.2249,0,0,1-.2988-.8672,1.1977,1.1977,0,0,1,.3-.8515,1.0676,1.0676,0,0,1,.8208-.3213,1.039,1.039,0,0,1,.8008.32,1.2043,1.2043,0,0,1,.2973.8525,1.2389,1.2389,0,0,1-.2934.8682A1.0421,1.0421,0,0,1,48.35,74.5329Zm-.0093-.3408a.6221.6221,0,0,0,.5156-.22.9848.9848,0,0,0,.1763-.6289.9553.9553,0,0,0-.1763-.6142.6175.6175,0,0,0-.51-.2188.6313.6313,0,0,0-.5161.2188.9419.9419,0,0,0-.18.6142.9853.9853,0,0,0,.1748.6289A.62.62,0,0,0,48.3411,74.1921Z" transform="translate(-23.07 -33.2708)" fill="#150a3a" stroke="#150a3a" stroke-linecap="round" stroke-linejoin="round" stroke-width="0.1"/><path d="M50.3133,74.4967V72.5544h-.6826v-.3418h1.7627v.3418H50.7v1.9423Z" transform="translate(-23.07 -33.2708)" fill="#150a3a" stroke="#150a3a" stroke-linecap="round" stroke-linejoin="round" stroke-width="0.1"/><path d="M53.0233,74.4967V72.5544h-.6827v-.3418h1.7627v.3418H53.41v1.9423Z" transform="translate(-23.07 -33.2708)" fill="#150a3a" stroke="#150a3a" stroke-linecap="round" stroke-linejoin="round" stroke-width="0.1"/><path d="M54.409,74.4967V72.2126h.3867v.9394h1.0381v-.9394h.3867v2.2841h-.3789v-.999h-1.039v.999Z" transform="translate(-23.07 -33.2708)" fill="#150a3a" stroke="#150a3a" stroke-linecap="round" stroke-linejoin="round" stroke-width="0.1"/><path d="M56.53,74.4967l.89-2.2841h.3926l.8975,2.2841h-.4365l-.2149-.5566h-.8945l-.21.5566Zm.7783-.9287h.5938q-.1758-.5346-.294-.89Q57.5086,72.9757,57.3084,73.568Z" transform="translate(-23.07 -33.2708)" fill="#150a3a" stroke="#150a3a" stroke-linecap="round" stroke-linejoin="round" stroke-width="0.1"/><path d="M59.4285,74.4967V72.5544h-.6826v-.3418h1.7627v.3418h-.6934v1.9423Z" transform="translate(-23.07 -33.2708)" fill="#150a3a" stroke="#150a3a" stroke-linecap="round" stroke-linejoin="round" stroke-width="0.1"/><path d="M61.7283,74.4967V72.2126h.6133c.0635,0,.1211.0009.1719.0039s.1084.0088.1738.0175a1.0381,1.0381,0,0,1,.1729.0372.8172.8172,0,0,1,.15.0683.4454.4454,0,0,1,.125.1045.4778.4778,0,0,1,.081.15.6288.6288,0,0,1,.0313.2031.5072.5072,0,0,1-.294.4883.4954.4954,0,0,1,.2969.2061.6464.6464,0,0,1,.0986.36.6036.6036,0,0,1-.05.2442.6315.6315,0,0,1-.1474.2041.69.69,0,0,1-.2569.1435,1.134,1.134,0,0,1-.3594.0527Zm.3868-1.3369h.33a.6629.6629,0,0,0,.1426-.0146.4137.4137,0,0,0,.124-.05.2368.2368,0,0,0,.0918-.0967.3134.3134,0,0,0,.0332-.15.24.24,0,0,0-.1133-.2314.7782.7782,0,0,0-.3593-.0625h-.249Zm.0039.9961h.3486c.3115,0,.4668-.1064.4668-.3213a.3214.3214,0,0,0-.1045-.2763.6689.6689,0,0,0-.3711-.0752h-.34Z" transform="translate(-23.07 -33.2708)" fill="#150a3a" stroke="#150a3a" stroke-linecap="round" stroke-linejoin="round" stroke-width="0.1"/><path d="M63.5369,74.4967l.89-2.2841h.3926l.8974,2.2841H65.28l-.2149-.5566h-.8945l-.21.5566Zm.7783-.9287h.5938q-.1758-.5346-.2939-.89Q64.5153,72.9757,64.3152,73.568Z" transform="translate(-23.07 -33.2708)" fill="#150a3a" stroke="#150a3a" stroke-linecap="round" stroke-linejoin="round" stroke-width="0.1"/><path d="M66.0252,74.4967V72.2126h.6172a1.4585,1.4585,0,0,1,.9932.291,1.057,1.057,0,0,1,.3291.8369,1.1084,1.1084,0,0,1-.3223.8613,1.3409,1.3409,0,0,1-.9375.2949Zm.3867-.3418h.3125a.8514.8514,0,0,0,.6162-.207.8073.8073,0,0,0,.2149-.6094.7546.7546,0,0,0-.2168-.582.9413.9413,0,0,0-.6611-.2021h-.2657Z" transform="translate(-23.07 -33.2708)" fill="#150a3a" stroke="#150a3a" stroke-linecap="round" stroke-linejoin="round" stroke-width="0.1"/><path d="M72.0067,79.5993a.377.377,0,0,0-.1094-.2715l-.1641-.1641a2.8717,2.8717,0,0,0-1.5937-.8056v-.0117a.54.54,0,0,0-.9307-.3731.5395.5395,0,0,0-.93.3731v.3457a2.8826,2.8826,0,0,0,1.3057,5.3984.36.36,0,0,0,.0644.0059h1.9551a.3751.3751,0,0,0,.375-.375V82.6393a.3767.3767,0,0,0-.1494-.3l-.2383-.18a2.0836,2.0836,0,0,0-.039-1.9775l.3359-.3154A.38.38,0,0,0,72.0067,79.5993Z" transform="translate(-23.07 -33.2708)" fill="#fff"/><path d="M72.39,78.2038l-.18-.18a.3749.3749,0,0,0-.53,0l-.1807.18a.374.374,0,0,0-.11.2646.38.38,0,0,0,.1094.2666l.1806.1807a.3755.3755,0,0,0,.2657.1094h.0009a.3743.3743,0,0,0,.2647-.11l.18-.1807A.3757.3757,0,0,0,72.39,78.2038Z" transform="translate(-23.07 -33.2708)" fill="#fff"/><path d="M70.8094,77.9518a.3747.3747,0,0,0,.5332,0l.0859-.0869a.3755.3755,0,0,0-.0009-.5293l-.086-.0859a.376.376,0,0,0-.5312,0l-.086.0859a.3755.3755,0,0,0-.001.5293Z" transform="translate(-23.07 -33.2708)" fill="#fff"/><path d="M71.9266,77.35a.5049.5049,0,1,0-.5049-.5049A.5056.5056,0,0,0,71.9266,77.35Z" transform="translate(-23.07 -33.2708)" fill="#fff"/><polygon points="47.697 46.828 48.135 47.69 47.803 49.099 47.012 48.453 47.151 47.419 47.697 46.828" fill="#fff"/><path d="M69.5994,77.245" transform="translate(-23.07 -33.2708)" fill="#fff" stroke="#25e899" stroke-linecap="round" stroke-miterlimit="10" stroke-width="11"/><path d="M69.5994,79.645" transform="translate(-23.07 -33.2708)" fill="#fff" stroke="#25e899" stroke-linecap="round" stroke-miterlimit="10" stroke-width="11"/><path d="M69.5994,79.81a.1648.1648,0,0,1-.1648-.1648V78.3462a.1648.1648,0,1,1,.3295,0V79.645A.1647.1647,0,0,1,69.5994,79.81Z" transform="translate(-23.07 -33.2708)" fill="#15003e"/><line x1="46.2844" y1="46.3742" x2="46.7937" y2="46.3742" fill="#fff"/><path d="M69.8637,79.81h-.5093a.1648.1648,0,1,1,0-.33h.5093a.1648.1648,0,1,1,0,.33Z" transform="translate(-23.07 -33.2708)" fill="#15003e"/><path d="M70.7672,80.0986l.5415-.51a2.29,2.29,0,1,0-1.619,3.9086c.4713,0,.8859.1721,1.25-.0721l.4531.0627-.0129-.7356-1.2977-1.0276h0l.279-1.3139.406-.3117" transform="translate(-23.07 -33.2708)" fill="#fff"/><path d="M69.69,83.7215a2.5143,2.5143,0,1,1,1.7779-4.2921l.1636.1636-.71.6691-.3083-.3271.3637-.3427a2.065,2.065,0,1,0-1.2871,3.68" transform="translate(-23.07 -33.2708)" fill="#15003e"/><path d="M70.9517,82.43l-.3227-.3127a1.3078,1.3078,0,0,0-.0282-1.8482l-.1683-.1636.18-.17.1538.163.1471-.1514a1.7572,1.7572,0,0,1,.0378,2.4833Z" transform="translate(-23.07 -33.2708)" fill="#0fce7c"/><path d="M70.79,82.2736" transform="translate(-23.07 -33.2708)" fill="#15003e"/><circle cx="46.6197" cy="47.9364" r="0.517" fill="#eff4ee"/><path d="M69.69,81.9489a.7417.7417,0,1,1,.7416-.7417A.7425.7425,0,0,1,69.69,81.9489Zm0-1.0339a.2923.2923,0,1,0,.2922.2922A.2926.2926,0,0,0,69.69,80.915Z" transform="translate(-23.07 -33.2708)" fill="#15003e"/><line x1="48.2387" y1="46.3174" x2="46.9322" y2="47.5247" fill="#15003e"/><rect x="69.766" y="79.9671" width="1.7789" height="0.4494" transform="translate(-58.7301 35.97) rotate(-42.7364)" fill="#15003e"/><polyline points="46.864 48.392 47.803 49.099 48.31 49.481 48.31 50.451 47.291 50.402" fill="#fff"/><polygon points="48.535 50.451 46.579 50.451 46.579 50.001 48.085 50.001 48.085 49.593 46.728 48.572 46.999 48.213 48.535 49.369 48.535 50.451" fill="#15003e"/><path d="M70.8109,82.29" transform="translate(-23.07 -33.2708)" fill="#15003e"/><rect x="71.8168" y="78.3425" width="0.2547" height="0.2547" transform="translate(-57.4846 40.5847) rotate(-45)" fill="#25e899"/><rect x="71.015" y="77.5407" width="0.1218" height="0.1218" transform="translate(-57.125 39.7164) rotate(-45)" fill="#25e899"/><circle cx="48.8566" cy="43.5747" r="0.1298" fill="#25e899"/><path d="M68.8194,80.2634a.1648.1648,0,0,1-.1648-.1648V78.3462a.1648.1648,0,0,1,.33,0v1.7524A.1648.1648,0,0,1,68.8194,80.2634Z" transform="translate(-23.07 -33.2708)" fill="#15003e"/></svg>