<svg id="Layer_1" data-name="Layer 1" xmlns="http://www.w3.org/2000/svg" viewBox="0 0 108.9434 98.8882"><title>buzz</title><path d="M106.0135,47.8034h-.4024c-.0947,0-.1865.0034-.2949.0117a3.583,3.583,0,0,0-1.2539.3369L87.1629,46.6344a3.0054,3.0054,0,0,0-1.8359-.9267L75.64,44.547l.1015-.3037a3.0387,3.0387,0,0,0-1.8779-3.831,17.91,17.91,0,0,0,.24-2.9341,18.4853,18.4853,0,0,0-36.9658,0,17.6123,17.6123,0,0,0,.2915,3.1855,3.0435,3.0435,0,0,0-1.3345,3.5806l.0215.063c-.0444.0283-.0879.0576-.1308.0874l-10.9624,1.313a3.0046,3.0046,0,0,0-1.836.9267l-16.9,1.5176a3.6075,3.6075,0,0,0-1.2612-.3374c-.0957-.0078-.1919-.0112-.2866-.0112H4.3362A3.6374,3.6374,0,0,0,.7029,51.4367c0,.0952.0039.1894.0118.29.2343,2.9234.4746,5.1626.7143,6.6553.2525,1.5752.6758,4.2119,3.1065,4.2119A2.59,2.59,0,0,0,6.1209,62.05H22.075c.0322.042.0659.083.1006.124a3.0293,3.0293,0,0,0,2.0815,1.0557c.0494.0034.1783.0078.2276.0078h2.251a5.2061,5.2061,0,0,0,.91,5.0381q.0125.0813.0293.1611L28.972,74.54c.0093.044.0195.0869.03.13a4.52,4.52,0,0,0-.18,1.1709H23.7713a2.06,2.06,0,0,0-2,2.0684V106.111a2,2,0,0,0,2,2H39.81v1.09a2.8951,2.8951,0,0,0,1.62,2.5967,5.0015,5.0015,0,0,0-1.1743,3.1953,4.9055,4.9055,0,0,0,.4243,1.9961,1.9987,1.9987,0,0,0,1.8291,1.1914h8.4028a1.9862,1.9862,0,0,0,.7559-.1484H51.76a3.0424,3.0424,0,0,0,3.039-3.0391v-3.0166a2.8884,2.8884,0,0,0,1.1192-.625,2.8776,2.8776,0,0,0,1.1181.625v3.0166a3.0425,3.0425,0,0,0,3.0391,3.0391h.0918a1.9862,1.9862,0,0,0,.7559.1484H69.325a1.9991,1.9991,0,0,0,1.8272-1.1875,4.8846,4.8846,0,0,0,.4267-2,4.9965,4.9965,0,0,0-1.1748-3.1953,2.8936,2.8936,0,0,0,1.62-2.5967v-1.09H89.5486a2,2,0,0,0,2-2v-28.27a2,2,0,0,0-2-2H84.7938a5.2211,5.2211,0,0,0-.92-2.8731l.085-4.8447a3.0011,3.0011,0,0,0-.0137-.3262,5.1972,5.1972,0,0,0,.56-4.5595h1.36c.0517,0,.1845-.0049.2353-.0088a3.0159,3.0159,0,0,0,2.0732-1.0542c.0352-.0405.0694-.082.1016-.1245h15.9541a2.5882,2.5882,0,0,0,1.585.5444c2.43,0,2.8535-2.6362,3.1064-4.2119.2412-1.4985.4815-3.7378.7129-6.6348.0088-.103.0127-.2065.0127-.31A3.6373,3.6373,0,0,0,106.0135,47.8034ZM41.89,75.196v.6445H38.7606a4.7369,4.7369,0,0,0-1.2134-3.0469c-.0049-.0254-.01-.0508-.0152-.0762l-1.1416-5.37a5.146,5.146,0,0,0,.5308-1.62,3.1487,3.1487,0,0,0,.21-.3384l1.1435-2.1518h.0679l.8867,3.1235a5.6975,5.6975,0,0,0,3.3521,3.7368,4.1313,4.1313,0,0,0,.042,1.0459,2.439,2.439,0,0,0,.7832,1.4219A3.042,3.042,0,0,0,41.89,75.196Zm15.6025.6445H54.1131a27.3318,27.3318,0,0,0-2.584-2.8027H60.076A27.2281,27.2281,0,0,0,57.492,75.8405Zm17.7148-7.8643-.0888,5.1045a5.2149,5.2149,0,0,0-.8555,2.76H69.9451V75.196a3.0452,3.0452,0,0,0-1.6621-2.71,2.4451,2.4451,0,0,0,.7-1.3457,4.0835,4.0835,0,0,0,.0235-1.1973,5.697,5.697,0,0,0,3.0048-3.5825l.8868-3.1235h.0673l1.1475,2.1577a2.9282,2.9282,0,0,0,.207.333,5.2394,5.2394,0,0,0,.8877,2.2129C75.2078,67.9523,75.2078,67.9645,75.2068,67.9762Z" transform="translate(-0.7029 -19.2922)" fill="#25e899"/><g id="Buzz-Lightyear-Bot"><g id="Group-6"><g id="Group-5"><g id="Rectangle-Copy-17"><path d="M85.6967,48.9582,105.0956,50.7a.5939.5939,0,0,1,.5407.6l-.1129,7.7182a.5941.5941,0,0,1-.5939.5853H83.398a.5939.5939,0,0,1-.5779-.7312l2.2456-9.46A.594.594,0,0,1,85.6967,48.9582Z" transform="translate(-0.7029 -19.2922)" fill="#723773"/><path d="M104.9294,60.0493H83.3981a1.04,1.04,0,0,1-1.0113-1.28L84.6325,49.31a1.0464,1.0464,0,0,1,1.1039-.7951l19.3989,1.7419a1.0445,1.0445,0,0,1,.9467,1.05l-.1131,7.7186A1.0437,1.0437,0,0,1,104.9294,60.0493ZM85.6438,49.4014a.15.15,0,0,0-.1447.114l-2.2457,9.46a.1492.1492,0,0,0,.1447.1827h21.5313a.1491.1491,0,0,0,.1485-.1461l.1131-7.7183a.1492.1492,0,0,0-.1355-.15L85.6569,49.402Z" transform="translate(-0.7029 -19.2922)" fill="#11003d"/></g><g id="Rectangle"><path d="M72.2142,46.6,85.0358,48.136a.594.594,0,0,1,.5215.5433l.9,11.4721a.5941.5941,0,0,1-.5457.6387q-.0233.0018-.0465.0018H69.1379a.5942.5942,0,0,1-.5788-.7277l3.0057-13.0084A.5942.5942,0,0,1,72.2142,46.6Z" transform="translate(-0.7029 -19.2922)" fill="#723773"/><path d="M85.8651,61.2373H69.1379a1.04,1.04,0,0,1-1.0127-1.2739l3.0055-13.0079a1.04,1.04,0,0,1,1.1367-.7981L85.089,47.6937a1.0422,1.0422,0,0,1,.9124.9506l.9,11.4723a1.0389,1.0389,0,0,1-.9548,1.1175C85.9176,61.2364,85.8915,61.2373,85.8651,61.2373ZM72.1432,47.041a.1479.1479,0,0,0-.1441.1149L68.9932,60.1644a.14.14,0,0,0-.0038.0334.1488.1488,0,0,0,.1485.1485H85.8651a.1565.1565,0,0,0,.1129-.0519.1487.1487,0,0,0,.035-.1079l-.9-11.4723a.1491.1491,0,0,0-.13-.1359L72.1612,47.042Z" transform="translate(-0.7029 -19.2922)" fill="#11003d"/></g><g id="Rectangle-Copy-5"><path d="M105.6108,50.2487h.4026a1.1879,1.1879,0,0,1,1.1879,1.188c0,.0316-.0012.0633-.0038.0949q-.69,8.6168-1.3834,8.6168t-1.3874-8.6163a1.188,1.188,0,0,1,1.0887-1.28C105.5471,50.25,105.579,50.2487,105.6108,50.2487Z" transform="translate(-0.7029 -19.2922)" fill="#6cb93c"/><path d="M105.814,60.594c-.5493,0-.8249-.6146-1.1329-2.5288-.2323-1.4412-.4672-3.6273-.6984-6.4972a1.6354,1.6354,0,0,1,1.4969-1.7595c.0443-.0035.0879-.0052.1314-.0052h.4022a1.6353,1.6353,0,0,1,1.6335,1.6334q0,.0657-.0052.1315c-.23,2.87-.4638,5.0556-.6952,6.4967C106.6388,59.9794,106.3636,60.594,105.814,60.594Zm-.203-9.9c-.02,0-.0406.0009-.061.0025a.7426.7426,0,0,0-.6792.8,54.7986,54.7986,0,0,0,.9432,7.7348,54.8363,54.8363,0,0,0,.9394-7.7351c.0017-.0206.0023-.04.0023-.0593a.7433.7433,0,0,0-.7425-.7425Z" transform="translate(-0.7029 -19.2922)" fill="#11003d"/></g></g><g id="Group-5-Copy"><g id="Rectangle-Copy-17-2" data-name="Rectangle-Copy-17"><path d="M24.6531,48.9582,5.2542,50.7a.594.594,0,0,0-.5408.6l.113,7.7182a.594.594,0,0,0,.5939.5853H26.9518a.5942.5942,0,0,0,.5779-.7312l-2.2456-9.46A.594.594,0,0,0,24.6531,48.9582Z" transform="translate(-0.7029 -19.2922)" fill="#723773"/><path d="M26.9518,60.0493H5.42a1.0439,1.0439,0,0,1-1.04-1.0241l-.113-7.7183a1.0443,1.0443,0,0,1,.9464-1.05l19.3988-1.7419a1.0435,1.0435,0,0,1,1.1044.7953l2.2456,9.46a1.04,1.04,0,0,1-1.0113,1.28ZM24.6929,49.402,5.2941,51.1439a.1491.1491,0,0,0-.1352.15l.113,7.7182a.1489.1489,0,0,0,.1485.1461H26.9518A.1487.1487,0,0,0,27.1,59.01a.1424.1424,0,0,0-.0039-.0336l-2.2458-9.4608a.15.15,0,0,0-.1577-.1134Z" transform="translate(-0.7029 -19.2922)" fill="#11003d"/></g><g id="Rectangle-2" data-name="Rectangle"><path d="M38.1355,46.6,25.314,48.136a.594.594,0,0,0-.5215.5433l-.9,11.4721a.594.594,0,0,0,.5457.6387q.0233.0018.0465.0018H41.2119a.5942.5942,0,0,0,.5788-.7277L38.7849,47.0558A.5941.5941,0,0,0,38.1355,46.6Z" transform="translate(-0.7029 -19.2922)" fill="#723773"/><path d="M41.212,61.2373H24.4848c-.0267,0-.0535-.0009-.08-.0029a1.0412,1.0412,0,0,1-.9565-1.1175l.9-11.4723a1.0419,1.0419,0,0,1,.9127-.9509l12.8215-1.5363h0a1.0379,1.0379,0,0,1,1.1366.7981l3.0058,13.0082a1.04,1.04,0,0,1-1.0128,1.2736ZM38.2064,47.041l-.0179.001h0L25.3669,48.5783a.1488.1488,0,0,0-.13.1358l-.9,11.4721a.1489.1489,0,0,0,.1363.16l16.739,0a.1487.1487,0,0,0,.1485-.1485.1509.1509,0,0,0-.0041-.0345L38.351,47.1562A.1484.1484,0,0,0,38.2064,47.041ZM38.1355,46.6h0Z" transform="translate(-0.7029 -19.2922)" fill="#11003d"/></g><g id="Rectangle-Copy-5-2" data-name="Rectangle-Copy-5"><path d="M4.7389,50.2487H4.3364a1.188,1.188,0,0,0-1.188,1.188c0,.0316.0013.0633.0038.0949q.6906,8.6168,1.3835,8.6168t1.3874-8.6163a1.188,1.188,0,0,0-1.0887-1.28Q4.7867,50.2488,4.7389,50.2487Z" transform="translate(-0.7029 -19.2922)" fill="#6cb93c"/><path d="M4.5356,60.594c-.55,0-.8247-.6146-1.1321-2.5291-.2313-1.4411-.4653-3.6272-.6953-6.4978-.0035-.0441-.0053-.0872-.0053-.13a1.6353,1.6353,0,0,1,1.6335-1.6334H4.739c.0433,0,.0867.0017.13.005a1.6357,1.6357,0,0,1,1.4981,1.76c-.2313,2.87-.4662,5.0563-.6982,6.4972C5.3606,59.9794,5.0852,60.594,4.5356,60.594Zm-.1992-9.9a.7434.7434,0,0,0-.7425.7425c0,.02.0009.04.0025.06a54.81,54.81,0,0,0,.9395,7.7345,54.8275,54.8275,0,0,0,.9431-7.7351.7426.7426,0,0,0-.68-.8c-.019-.0015-.0392-.0024-.06-.0024Z" transform="translate(-0.7029 -19.2922)" fill="#11003d"/></g></g><g id="Group-4"><g id="Rectangle-3" data-name="Rectangle"><path d="M62.7483,88.7089H60.0754a1.0408,1.0408,0,0,1-1.04-1.04V79.0567a1.0408,1.0408,0,0,1,1.04-1.04h2.6729a1.0408,1.0408,0,0,1,1.0395,1.04v8.6127A1.0408,1.0408,0,0,1,62.7483,88.7089Zm-2.6729-9.8007a.1488.1488,0,0,0-.1485.1485v8.6127a.1488.1488,0,0,0,.1485.1485h2.6729a.1488.1488,0,0,0,.1485-.1485V79.0567a.1488.1488,0,0,0-.1485-.1485Z" transform="translate(-0.7029 -19.2922)" fill="#11003d" stroke="#150a3a" stroke-miterlimit="10" stroke-width="0.25"/></g><g id="Rectangle-Copy-2"><path d="M66.9062,88.7089h-2.673a1.0407,1.0407,0,0,1-1.0394-1.04V75.1958a1.0406,1.0406,0,0,1,1.0394-1.0394h2.673a1.0406,1.0406,0,0,1,1.0394,1.0394V87.6694A1.0407,1.0407,0,0,1,66.9062,88.7089Zm-2.673-13.6616a.1488.1488,0,0,0-.1485.1485V87.6694a.1488.1488,0,0,0,.1485.1485h2.673a.1488.1488,0,0,0,.1485-.1485V75.1958a.1488.1488,0,0,0-.1485-.1485Z" transform="translate(-0.7029 -19.2922)" fill="#11003d" stroke="#150a3a" stroke-miterlimit="10" stroke-width="0.25"/></g><g id="Rectangle-Copy-4"><path d="M62.7483,106.8253H60.0754a1.0407,1.0407,0,0,1-1.04-1.0394V97.1731a1.0407,1.0407,0,0,1,1.04-1.0394h2.6729a1.0407,1.0407,0,0,1,1.0395,1.0394v8.6128A1.0407,1.0407,0,0,1,62.7483,106.8253Zm-2.6729-9.8007a.1488.1488,0,0,0-.1485.1485v8.6128a.1488.1488,0,0,0,.1485.1485h2.6729a.1488.1488,0,0,0,.1485-.1485V97.1731a.1488.1488,0,0,0-.1485-.1485Z" transform="translate(-0.7029 -19.2922)" fill="#11003d" stroke="#150a3a" stroke-miterlimit="10" stroke-width="0.25"/></g><g id="Rectangle-Copy-3"><path d="M66.9062,106.8253h-2.673a1.0406,1.0406,0,0,1-1.0394-1.0394V97.1731a1.0406,1.0406,0,0,1,1.0394-1.0394h2.673a1.0406,1.0406,0,0,1,1.0394,1.0394v8.6128A1.0406,1.0406,0,0,1,66.9062,106.8253Zm-2.673-9.8007a.1489.1489,0,0,0-.1485.1485v8.6128a.1488.1488,0,0,0,.1485.1485h2.673a.1488.1488,0,0,0,.1485-.1485V97.1731a.1489.1489,0,0,0-.1485-.1485Z" transform="translate(-0.7029 -19.2922)" fill="#11003d" stroke="#150a3a" stroke-miterlimit="10" stroke-width="0.25"/></g><g id="Rectangle-Copy-7"><path d="M66.9062,116.0321H60.0754a1.0408,1.0408,0,0,1-1.04-1.04v-4.7519a1.0407,1.0407,0,0,1,1.04-1.0394h6.8308a1.0406,1.0406,0,0,1,1.0394,1.0394v4.7519A1.0407,1.0407,0,0,1,66.9062,116.0321Zm-6.8308-5.94a.1488.1488,0,0,0-.1485.1485v4.7519a.1488.1488,0,0,0,.1485.1485h6.8308a.1488.1488,0,0,0,.1485-.1485v-4.7519a.1488.1488,0,0,0-.1485-.1485Z" transform="translate(-0.7029 -19.2922)" fill="#11003d" stroke="#150a3a" stroke-miterlimit="10" stroke-width="0.25"/></g><g id="Combined-Shape"><path d="M60.9227,116.1806a2.9251,2.9251,0,0,1-.2535-1.1879c0-1.9683,1.9945-3.5639,4.4549-3.5639s4.4548,1.5956,4.4548,3.5639a2.9251,2.9251,0,0,1-.2535,1.1879Z" transform="translate(-0.7029 -19.2922)" fill="#11003d" stroke="#150a3a" stroke-miterlimit="10" stroke-width="0.25"/></g><g id="Oval"><ellipse cx="62.9362" cy="72.6837" rx="3.8609" ry="4.9003" fill="#1e0c39" stroke="#150a3a" stroke-miterlimit="10" stroke-width="0.25"/><path d="M63.6393,97.3216c-2.3745,0-4.3064-2.3982-4.3064-5.3458S61.2648,86.63,63.6393,86.63s4.3063,2.3982,4.3063,5.3458S66.0137,97.3216,63.6393,97.3216Zm0-9.8007c-1.8832,0-3.4154,1.9983-3.4154,4.4549s1.5322,4.4549,3.4154,4.4549,3.4154-1.9983,3.4154-4.4549S65.5224,87.5209,63.6393,87.5209Z" transform="translate(-0.7029 -19.2922)" fill="#11003d" stroke="#150a3a" stroke-miterlimit="10" stroke-width="0.25"/></g><g id="Rectangle-4" data-name="Rectangle"><rect x="58.4813" y="86.4938" width="8.9097" height="2.9699" rx="0.594" ry="0.594" fill="#11003d" stroke="#150a3a" stroke-miterlimit="10" stroke-width="0.25"/><path d="M67.5,109.2013H59.7784a1.0408,1.0408,0,0,1-1.0395-1.04V106.38a1.0408,1.0408,0,0,1,1.0395-1.04H67.5a1.0408,1.0408,0,0,1,1.0395,1.04v1.7819A1.0408,1.0408,0,0,1,67.5,109.2013Zm-7.7217-2.97a.1488.1488,0,0,0-.1485.1485v1.7819a.1488.1488,0,0,0,.1485.1485H67.5a.1488.1488,0,0,0,.1485-.1485V106.38a.1488.1488,0,0,0-.1485-.1485Z" transform="translate(-0.7029 -19.2922)" fill="#11003d" stroke="#150a3a" stroke-miterlimit="10" stroke-width="0.25"/></g><g id="Rectangle-Copy-5-3" data-name="Rectangle-Copy-5"><path d="M69.1335,104.895h0a.4454.4454,0,0,1,.4454.4455v3.8609a.4454.4454,0,0,1-.4454.4454h0a.4454.4454,0,0,1-.4455-.4454v-3.8609A.4454.4454,0,0,1,69.1335,104.895Z" transform="translate(-0.7029 -19.2922)" fill="#11003d" stroke="#150a3a" stroke-miterlimit="10" stroke-width="0.25"/><path d="M69.1336,110.0922a.8919.8919,0,0,1-.891-.8909V105.34a.891.891,0,0,1,1.782,0v3.8609A.8919.8919,0,0,1,69.1336,110.0922Zm0-4.7518H69.133l.0006,3.8609Z" transform="translate(-0.7029 -19.2922)" fill="#11003d" stroke="#150a3a" stroke-miterlimit="10" stroke-width="0.25"/></g><g id="Rectangle-Copy-6"><path d="M57.8478,104.895h0a.4455.4455,0,0,1,.4455.4455v3.8609a.4455.4455,0,0,1-.4455.4454h0a.4455.4455,0,0,1-.4455-.4454v-3.8609A.4455.4455,0,0,1,57.8478,104.895Z" transform="translate(-0.7029 -19.2922)" fill="#11003d" stroke="#150a3a" stroke-miterlimit="10" stroke-width="0.25"/><path d="M57.8479,110.0922a.8918.8918,0,0,1-.8909-.8909V105.34a.891.891,0,1,1,1.7819,0v3.8609A.8919.8919,0,0,1,57.8479,110.0922Zm0-4.7518h-.0005l.0005,3.8609Z" transform="translate(-0.7029 -19.2922)" fill="#11003d" stroke="#150a3a" stroke-miterlimit="10" stroke-width="0.25"/></g></g><g id="Group"><g id="Rectangle-Copy-15"><path d="M51.76,88.7089H49.0866a1.0408,1.0408,0,0,1-1.0395-1.04V79.0567a1.0408,1.0408,0,0,1,1.0395-1.04H51.76a1.0408,1.0408,0,0,1,1.0395,1.04v8.6127A1.0408,1.0408,0,0,1,51.76,88.7089Zm-2.6729-9.8007a.1486.1486,0,0,0-.1485.1485v8.6127a.1486.1486,0,0,0,.1485.1485H51.76a.1487.1487,0,0,0,.1485-.1485V79.0567a.1487.1487,0,0,0-.1485-.1485Z" transform="translate(-0.7029 -19.2922)" fill="#11003d"/></g><g id="Rectangle-Copy-14"><path d="M47.6016,88.7089H44.9287a1.0408,1.0408,0,0,1-1.0395-1.04V75.1958a1.0407,1.0407,0,0,1,1.0395-1.0394h2.6729a1.0407,1.0407,0,0,1,1.04,1.0394V87.6694A1.0408,1.0408,0,0,1,47.6016,88.7089ZM44.9287,75.0473a.1487.1487,0,0,0-.1485.1485V87.6694a.1487.1487,0,0,0,.1485.1485h2.6729a.1486.1486,0,0,0,.1485-.1485V75.1958a.1486.1486,0,0,0-.1485-.1485Z" transform="translate(-0.7029 -19.2922)" fill="#11003d"/></g><g id="Rectangle-Copy-13"><path d="M51.76,106.8253H49.0866a1.0407,1.0407,0,0,1-1.0395-1.0394V97.1731a1.0407,1.0407,0,0,1,1.0395-1.0394H51.76a1.0407,1.0407,0,0,1,1.0395,1.0394v8.6128A1.0407,1.0407,0,0,1,51.76,106.8253Zm-2.6729-9.8007a.1487.1487,0,0,0-.1485.1485v8.6128a.1486.1486,0,0,0,.1485.1485H51.76a.1487.1487,0,0,0,.1485-.1485V97.1731a.1488.1488,0,0,0-.1485-.1485Z" transform="translate(-0.7029 -19.2922)" fill="#11003d"/></g><g id="Rectangle-Copy-12"><path d="M47.6016,106.8253H44.9287a1.0407,1.0407,0,0,1-1.0395-1.0394V97.1731a1.0407,1.0407,0,0,1,1.0395-1.0394h2.6729a1.0407,1.0407,0,0,1,1.04,1.0394v8.6128A1.0407,1.0407,0,0,1,47.6016,106.8253Zm-2.6729-9.8007a.1488.1488,0,0,0-.1485.1485v8.6128a.1487.1487,0,0,0,.1485.1485h2.6729a.1486.1486,0,0,0,.1485-.1485V97.1731a.1487.1487,0,0,0-.1485-.1485Z" transform="translate(-0.7029 -19.2922)" fill="#11003d"/></g><g id="Rectangle-Copy-11"><path d="M51.76,116.0321H44.9287a1.0408,1.0408,0,0,1-1.0395-1.04v-4.7519a1.0407,1.0407,0,0,1,1.0395-1.0394H51.76a1.0407,1.0407,0,0,1,1.0395,1.0394v4.7519A1.0408,1.0408,0,0,1,51.76,116.0321Zm-6.8308-5.94a.1487.1487,0,0,0-.1485.1485v4.7519a.1487.1487,0,0,0,.1485.1485H51.76a.1487.1487,0,0,0,.1485-.1485v-4.7519a.1487.1487,0,0,0-.1485-.1485Z" transform="translate(-0.7029 -19.2922)" fill="#11003d"/></g><g id="Combined-Shape-Copy"><path d="M50.912,116.1806a2.9251,2.9251,0,0,0,.2535-1.1879c0-1.9683-1.9945-3.5639-4.4548-3.5639s-4.4549,1.5956-4.4549,3.5639a2.9251,2.9251,0,0,0,.2535,1.1879Z" transform="translate(-0.7029 -19.2922)" fill="#11003d"/></g><g id="Oval-Copy"><ellipse cx="47.4927" cy="72.6837" rx="3.8609" ry="4.9003" fill="#1e0c39"/><path d="M48.1956,97.3216c-2.3745,0-4.3064-2.3982-4.3064-5.3458S45.8211,86.63,48.1956,86.63s4.3064,2.3982,4.3064,5.3458S50.57,97.3216,48.1956,97.3216Zm0-9.8007c-1.8833,0-3.4154,1.9983-3.4154,4.4549s1.5321,4.4549,3.4154,4.4549,3.4154-1.9983,3.4154-4.4549S50.0789,87.5209,48.1956,87.5209Z" transform="translate(-0.7029 -19.2922)" fill="#11003d"/></g><g id="Rectangle-Copy-10"><rect x="43.0378" y="86.4938" width="8.9097" height="2.9699" rx="0.594" ry="0.594" fill="#11003d"/><path d="M52.0565,109.2013H44.3347a1.0407,1.0407,0,0,1-1.0394-1.04V106.38a1.0407,1.0407,0,0,1,1.0394-1.04h7.7218a1.0407,1.0407,0,0,1,1.0394,1.04v1.7819A1.0407,1.0407,0,0,1,52.0565,109.2013Zm-7.7218-2.97a.1487.1487,0,0,0-.1485.1485v1.7819a.1487.1487,0,0,0,.1485.1485h7.7218a.1487.1487,0,0,0,.1485-.1485V106.38a.1487.1487,0,0,0-.1485-.1485Z" transform="translate(-0.7029 -19.2922)" fill="#11003d"/></g><g id="Rectangle-Copy-9"><path d="M42.7013,104.895h0a.4454.4454,0,0,0-.4455.4455v3.8609a.4454.4454,0,0,0,.4455.4454h0a.4455.4455,0,0,0,.4455-.4454v-3.8609A.4455.4455,0,0,0,42.7013,104.895Z" transform="translate(-0.7029 -19.2922)" fill="#11003d"/><path d="M42.7013,110.0922a.8919.8919,0,0,1-.891-.8909V105.34a.891.891,0,1,1,1.7819,0v3.8609A.8918.8918,0,0,1,42.7013,110.0922Zm0-4.7518h-.0006l.0006,3.8609Z" transform="translate(-0.7029 -19.2922)" fill="#11003d"/></g><g id="Rectangle-Copy-8"><path d="M53.9869,104.895h0a.4455.4455,0,0,0-.4455.4455v3.8609a.4455.4455,0,0,0,.4455.4454h0a.4454.4454,0,0,0,.4455-.4454v-3.8609A.4454.4454,0,0,0,53.9869,104.895Z" transform="translate(-0.7029 -19.2922)" fill="#11003d"/><path d="M53.9871,110.0922a.8919.8919,0,0,1-.891-.8909V105.34a.891.891,0,1,1,1.7819,0v3.8609A.8918.8918,0,0,1,53.9871,110.0922Zm0-4.7518h-.0006l.0006,3.8609Z" transform="translate(-0.7029 -19.2922)" fill="#11003d"/></g></g><g id="Oval-2" data-name="Oval"><g opacity="0.3115"><path d="M55.62,45.2A53.1879,53.1879,0,0,0,70.47,43.2694q-6.6483-.1485-14.8495-.1485t-14.85.1485A53.1887,53.1887,0,0,0,55.62,45.2Z" transform="translate(-0.7029 -19.2922)" fill="#94fff9"/></g><path d="M55.6205,45.6454a53.8872,53.8872,0,0,1-14.9739-1.9481.4455.4455,0,0,1,.1142-.8732c4.4127-.0986,9.4122-.1486,14.86-.1486s10.4469.05,14.8594.1486a.4455.4455,0,0,1,.1143.8732A53.8867,53.8867,0,0,1,55.6205,45.6454ZM44.1584,43.6507a56.4122,56.4122,0,0,0,11.4621,1.1037,56.4112,56.4112,0,0,0,11.462-1.1037c-3.5276-.056-7.3679-.0842-11.462-.0842S47.6862,43.5947,44.1584,43.6507Z" transform="translate(-0.7029 -19.2922)" fill="#11003d"/></g><path d="M64.2824,68.1593,66.06,69.74a.4382.4382,0,0,1,.0392.7645l-3.4438,3.7314a17.3238,17.3238,0,0,1-3.8521,3.4182,5.8518,5.8518,0,0,1-4.9566.6378c-1.889-.7357-2.9963-2.6487-4.4571-4.0543-.7622-.7334-1.6384-1.34-2.406-2.0677a10.3245,10.3245,0,0,1-1.773-2.221,16.2623,16.2623,0,0,1,6.7319-2.0373,40.5716,40.5716,0,0,1,7.08.0878c2.1611.1689,4.3185.3808,6.4757.5928-.0195.08-.0082.0537-.0277.1338C65.0788,68.482,64.6745,68.403,64.2824,68.1593Z" transform="translate(-0.7029 -19.2922)" fill="#eff4ee"/><g id="Group-3"><g id="Rectangle-Copy-18"><path d="M47.5832,69.2561H64.2147a.891.891,0,0,1,.891.891h0a.891.891,0,0,1-.891.891H47.5832a.891.891,0,0,1-.8909-.891h0A.891.891,0,0,1,47.5832,69.2561Z" transform="translate(-0.7029 -19.2922)" fill="#6cb93c"/></g><g id="Rectangle-5" data-name="Rectangle"><rect x="47.4743" y="46.6971" width="15.4435" height="3.5639" rx="0.891" ry="0.891" fill="#11003d"/><path d="M62.73,69.9985H49.0682a1.3379,1.3379,0,0,1-1.3365-1.3365V66.88a1.3379,1.3379,0,0,1,1.3365-1.3365H62.73A1.3379,1.3379,0,0,1,64.0662,66.88V68.662A1.3379,1.3379,0,0,1,62.73,69.9985ZM49.0682,66.4346a.4459.4459,0,0,0-.4455.4455V68.662a.4459.4459,0,0,0,.4455.4455H62.73a.4459.4459,0,0,0,.4455-.4455V66.88a.4459.4459,0,0,0-.4455-.4455Z" transform="translate(-0.7029 -19.2922)" fill="#11003d"/></g><g id="Combined-Shape-2" data-name="Combined-Shape"><path d="M67.4971,67.9177a3.8609,3.8609,0,0,0-3.858-3.71h-15.74a3.8609,3.8609,0,0,0-3.86,3.7882,3.2674,3.2674,0,0,1-2.4566-2.3024L36.6627,48.3593a1.782,1.782,0,0,1,1.7143-2.2685H72.8638a1.782,1.782,0,0,1,1.7142,2.2685L69.6589,65.6931A3.2671,3.2671,0,0,1,67.4971,67.9177Z" transform="translate(-0.7029 -19.2922)" fill="#fff"/><path d="M44.4739,68.5446l-.529-.1134a3.7041,3.7041,0,0,1-2.7917-2.6167l-4.919-17.3336a2.2271,2.2271,0,0,1,2.1427-2.8355H72.8637a2.2282,2.2282,0,0,1,2.143,2.8356L70.0875,65.8145a3.7021,3.7021,0,0,1-2.4566,2.5282l-.5565.1755-.0224-.5833a3.4036,3.4036,0,0,0-3.4127-3.2822H47.8986a3.4318,3.4318,0,0,0-3.4148,3.351Zm-6.097-22.0082a1.3416,1.3416,0,0,0-.365.0507,1.3365,1.3365,0,0,0-.9207,1.65L42.01,65.5715a2.8145,2.8145,0,0,0,1.633,1.8364,4.3318,4.3318,0,0,1,4.2553-3.6462H63.6393a4.2909,4.2909,0,0,1,4.2341,3.514A2.8142,2.8142,0,0,0,69.23,65.5715l4.9192-17.334a1.3365,1.3365,0,0,0-1.2857-1.7011Z" transform="translate(-0.7029 -19.2922)" fill="#11003d"/></g><g id="Rectangle-6" data-name="Rectangle"><path d="M39.3216,42.7966a40.5727,40.5727,0,0,0,8.7982,4.61A18.84,18.84,0,0,0,54.1577,48.45a.594.594,0,0,1,.5717.5936v9.5523a.5939.5939,0,0,1-.5617.5931l-3,.1635L43.27,57.1639a.5943.5943,0,0,1-.4047-.3841L38.4139,43.4689a.5939.5939,0,0,1,.9077-.6723Z" transform="translate(-0.7029 -19.2922)" fill="#6cb93c"/><path d="M51.1191,59.8013l-7.968-2.2083a1.0375,1.0375,0,0,1-.7082-.672L37.9915,43.61A1.0394,1.0394,0,0,1,39.58,42.4336h0a40.3076,40.3076,0,0,0,8.7017,4.5575,18.4968,18.4968,0,0,0,5.8927,1.0137,1.0362,1.0362,0,0,1,1.0006,1.0387V58.596a1.04,1.04,0,0,1-.9832,1.038ZM38.9768,43.132a.1444.1444,0,0,0-.0468.0077.1485.1485,0,0,0-.0937.1878l4.4514,13.311a.1494.1494,0,0,0,.1014.096l7.8272,2.17,2.9271-.16a.1485.1485,0,0,0,.1407-.1482V49.0435a.1481.1481,0,0,0-.1433-.1483,19.3588,19.3588,0,0,1-6.183-1.074A41.1946,41.1946,0,0,1,39.0634,43.16h0A.15.15,0,0,0,38.9768,43.132Z" transform="translate(-0.7029 -19.2922)" fill="#11003d"/></g><g id="Rectangle-Copy"><path d="M72.5131,42.7966a40.5694,40.5694,0,0,1-8.7981,4.61A18.8407,18.8407,0,0,1,57.677,48.45a.594.594,0,0,0-.5717.5936v9.5523a.594.594,0,0,0,.5617.5931l3,.1635,7.8977-2.1886a.5941.5941,0,0,0,.4047-.3841l4.4514-13.3109a.5939.5939,0,0,0-.9077-.6723Z" transform="translate(-0.7029 -19.2922)" fill="#6cb93c"/><path d="M60.7158,59.8013l-3.0732-.1673a1.0392,1.0392,0,0,1-.9826-1.038V49.0435a1.0362,1.0362,0,0,1,1-1.0387,18.498,18.498,0,0,0,5.8928-1.0137,40.3164,40.3164,0,0,0,8.7015-4.5575h0A1.04,1.04,0,0,1,73.8434,43.61L69.392,56.921a1.0381,1.0381,0,0,1-.708.672ZM72.7714,43.16a41.2047,41.2047,0,0,1-8.8946,4.6617,19.3576,19.3576,0,0,1-6.1829,1.074.1478.1478,0,0,0-.1429.1483V58.596a.1481.1481,0,0,0,.14.1482l2.9273.16,7.8276-2.17a.1482.1482,0,0,0,.101-.096l4.4513-13.3109a.1484.1484,0,0,0-.2271-.1679Z" transform="translate(-0.7029 -19.2922)" fill="#11003d"/></g><g id="Rectangle-Copy-19"><rect x="51.9291" y="30.6596" width="6.5338" height="4.1579" rx="0.891" ry="0.891" fill="#007bd4"/><path d="M58.2749,54.5551H53.523a1.3378,1.3378,0,0,1-1.3364-1.3364v-2.376a1.3378,1.3378,0,0,1,1.3364-1.3364h4.7519a1.3379,1.3379,0,0,1,1.3364,1.3364v2.376A1.3379,1.3379,0,0,1,58.2749,54.5551ZM53.523,50.3972a.4461.4461,0,0,0-.4455.4455v2.376a.446.446,0,0,0,.4455.4454h4.7519a.446.446,0,0,0,.4455-.4454v-2.376a.4461.4461,0,0,0-.4455-.4455Z" transform="translate(-0.7029 -19.2922)" fill="#11003d"/></g><g id="Oval-3" data-name="Oval"><circle cx="60.8389" cy="36.0054" r="1.7819" fill="#f4312d"/></g><g id="Line"><path d="M51.017,57.5249a.4456.4456,0,0,1-.4455-.4455V54.11a.4455.4455,0,1,1,.891,0v2.97A.4456.4456,0,0,1,51.017,57.5249Z" transform="translate(-0.7029 -19.2922)" fill="#f4312d"/></g><g id="Line-Copy"><path d="M49.5321,56.9312a.4456.4456,0,0,1-.4455-.4456v-2.97a.4455.4455,0,0,1,.8909,0v2.97A.4456.4456,0,0,1,49.5321,56.9312Z" transform="translate(-0.7029 -19.2922)" fill="#005b13"/></g><g id="Line-Copy-2"><path d="M48.0471,56.3371a.4454.4454,0,0,1-.4455-.4455v-2.97a.4455.4455,0,0,1,.891,0v2.97A.4454.4454,0,0,1,48.0471,56.3371Z" transform="translate(-0.7029 -19.2922)" fill="#00659e"/></g><g id="Combined-Shape-3" data-name="Combined-Shape"><path d="M55.9027,81.6377a.4523.4523,0,0,1-.1-.0113.4456.4456,0,0,1-.373-.0821l-.0247-.0206-1.6328-.4226a.4452.4452,0,0,1-.3295-.3689c-.31-2.197-3.2307-5.44-8.6792-9.6383a.4457.4457,0,0,1-.1676-.28,1.8985,1.8985,0,0,1,.4693-1.64c1.2072-1.3312,4.7205-1.7848,10.7375-1.3849,6.0163-.4,9.53.0534,10.7372,1.3849a1.8981,1.8981,0,0,1,.4692,1.64.4453.4453,0,0,1-.1673.28c-5.4488,4.1985-8.3688,7.4413-8.6792,9.6383a.4456.4456,0,0,1-.3294.3689L56.2,81.5237l-.0247.0206A.4452.4452,0,0,1,55.9027,81.6377ZM54.2713,80.31l1.5314.3965L57.334,80.31c.5282-2.4165,3.418-5.63,8.814-9.8062a.9708.9708,0,0,0-.2683-.7311c-.6876-.7588-2.9893-1.5639-10.0475-1.0926a.4856.4856,0,0,1-.0591,0c-7.0588-.4713-9.36.3338-10.0478,1.0926a.9693.9693,0,0,0-.268.7311C50.853,74.68,53.7429,77.8934,54.2713,80.31Z" transform="translate(-0.7029 -19.2922)" fill="#11003d"/></g></g><g id="Group-8"><g id="Shape"><path d="M63.577,32.2935c-.5839.5943-.4385,1.2887-.5928,1.9677-.0724-.1576-.1515-.3113-.2278-.4667a4.789,4.789,0,0,0,.0815-.5329,4.3207,4.3207,0,0,0-.0367-1.02.3776.3776,0,0,0-.028-.1464,9.9744,9.9744,0,0,0-1.0017-2.724.3376.3376,0,0,0-.3945-.1619,3.6624,3.6624,0,0,0-1.1747-1.3906c-1.0856-.7-2.65-.3549-3.8821-.3437a16.9918,16.9918,0,0,0-2.9.1507,4.0179,4.0179,0,0,0-3.6617,3.2353.3637.3637,0,0,0,.1414.3879,6.2881,6.2881,0,0,0-.13,3.1739c-.3256-1.0678-1.1574-3.57-1.8038-1.9033a5.7835,5.7835,0,0,0,.45,3.0458c.4928.7376,1.2392.5238,1.9345.72.5006,1.0028,1.2859.8066,2.44.8277a.3993.3993,0,0,0,.2435-.6816,5.472,5.472,0,0,1-1.69-5.1368,2.7845,2.7845,0,0,1,1.9-1.78,20.97,20.97,0,0,1,4.952-.2807,10.21,10.21,0,0,1,1.6249.6028.367.367,0,0,0,.3671-.0337l.004.0072a.4446.4446,0,0,0-.0852.128.419.419,0,0,0-.1618.55,6.2565,6.2565,0,0,1,.065,4.0367c-.0081.0261-.0208.066-.0332.1047a5.68,5.68,0,0,0-.5978,1.542c-.0145,0-.0314,0-.0455,0a.3935.3935,0,0,0,.0232.7846c.3941-.0149.9424.0443,1.4408-.01-.1042.44.51.7671.676.3138.0884-.2408.1909-.4895.2968-.7414a.96.96,0,0,0,.1662-.2578,1.9667,1.9667,0,0,0,.1151-.4068c.1329-.314.2622-.6324.3788-.9522.03.0745.0656.1462.0947.2215a.3946.3946,0,0,0,.0951.7154c1.6226.345,1.5516-2.211,1.6127-3.2922A.3791.3791,0,0,0,63.577,32.2935Z" transform="translate(-0.7029 -19.2922)" fill="#fff"/></g><g id="Shape-2" data-name="Shape"><polygon points="49.275 18.186 59.952 18.186 60.857 18.518 60.177 20.859 49.947 20.859 49.275 18.186" fill="#6cb93c"/></g><g id="Shape-3" data-name="Shape"><path d="M59.4967,43.4179H52.041a1.5215,1.5215,0,0,1-1.4695-1.5687V40.151H60.9662v1.6982a1.5216,1.5216,0,0,1-1.47,1.5687" transform="translate(-0.7029 -19.2922)" fill="#edf3ed"/></g><g id="Shape-4" data-name="Shape"><path d="M59.47,43.7149H52.0682a1.8339,1.8339,0,0,1-1.7937-1.8677V39.854H61.2632v1.9932A1.8338,1.8338,0,0,1,59.47,43.7149ZM50.9306,40.556v1.291a1.1483,1.1483,0,0,0,1.127,1.1659H59.48a1.1483,1.1483,0,0,0,1.127-1.1659V40.556Z" transform="translate(-0.7029 -19.2922)" fill="#11003d"/></g><g id="Shape-5" data-name="Shape"><path d="M53.92,37.4781A4.6671,4.6671,0,0,1,52.2168,30.27c.8443-1.0322,6.1555-1.0848,6.9991-.124a4.667,4.667,0,0,1-1.5972,7.3317" transform="translate(-0.7029 -19.2922)" fill="#6cb93c"/></g><g id="Shape-6" data-name="Shape"><path d="M53.5918,37.7751a.3188.3188,0,0,1-.1453-.035,5.3085,5.3085,0,0,1-2.875-4.7854,5.4658,5.4658,0,0,1,.803-2.8644.3247.3247,0,0,1,.4593-.1051.355.355,0,0,1,.1008.4786,4.7543,4.7543,0,0,0-.698,2.4909,4.6176,4.6176,0,0,0,2.5009,4.1623.353.353,0,0,1,.1535.463A.3312.3312,0,0,1,53.5918,37.7751Zm4.3592,0a.3367.3367,0,0,1-.3021-.19.3468.3468,0,0,1,.1507-.4614,4.6407,4.6407,0,0,0,1.62-6.82.3481.3481,0,0,1,.072-.4807.3337.3337,0,0,1,.472.0735,5.336,5.336,0,0,1-1.8623,7.842A.33.33,0,0,1,57.951,37.7751Z" transform="translate(-0.7029 -19.2922)" fill="#11003d"/></g><g id="Shape-7" data-name="Shape"><path d="M61.2583,40.448H50.2789l-1.7863-7.232,0-.0843,0-.0182V26.3657a.3394.3394,0,1,1,.6786,0V30.08a7.21,7.21,0,0,1,13.1948-.0009V24.46a.3394.3394,0,1,1,.6787,0v8.661c0,.0315,0,.0631,0,.0946l-.01.0855Zm-10.4515-.6938h9.9237l1.6356-6.5811a6.5982,6.5982,0,1,0-13.1948,0Z" transform="translate(-0.7029 -19.2922)" fill="#11003d"/></g><g id="Shape-8" data-name="Shape"><path d="M62.84,36.5871h-.712a.3487.3487,0,0,1,0-.6971h.712c.4513,0,.6832-.6967.7249-.8364.0222-.0743.0454-.1442.0683-.2144a4.3878,4.3878,0,0,0,.2222-1.6553,5.9252,5.9252,0,0,0-.1072-1.1565c-.5749.6812-.8094.6812-.9082.6812a.35.35,0,0,1-.05-.6933,4.89,4.89,0,0,0,.8281-.9322.3344.3344,0,0,1,.3031-.1371.3387.3387,0,0,1,.2709.1967,5.2232,5.2232,0,0,1,.3381,2.0412,5.0516,5.0516,0,0,1-.2577,1.88c-.0213.0641-.0423.128-.0625.196C63.9607,36.0909,63.4487,36.5871,62.84,36.5871Zm-13.4306,0h-.712c-.6084,0-1.1206-.4962-1.37-1.3274-.02-.068-.0413-.1319-.0625-.196a5.0491,5.0491,0,0,1-.2578-1.88,5.2254,5.2254,0,0,1,.3381-2.0412.3387.3387,0,0,1,.2709-.1967.3332.3332,0,0,1,.3031.1371,4.8825,4.8825,0,0,0,.8283.9322.35.35,0,0,1-.05.6933c-.0988,0-.3334,0-.9082-.6812a5.9318,5.9318,0,0,0-.1071,1.1565,4.3885,4.3885,0,0,0,.2221,1.6553c.023.07.0461.14.0683.2145.0418.14.2736.8363.7249.8363h.712a.3487.3487,0,0,1,0,.6971Z" transform="translate(-0.7029 -19.2922)" fill="#11003d"/></g><g id="Shape-9" data-name="Shape"><path d="M61.828,37.4781H49.9852a.3364.3364,0,1,1,0-.6727H61.828a.3364.3364,0,1,1,0,.6727ZM48.8374,32.47a.3484.3484,0,0,1-.2409-.0957.33.33,0,0,1-.0057-.4756,10.3723,10.3723,0,0,1,14.3459-.2994.33.33,0,0,1,.0145.4754.3509.3509,0,0,1-.4873.0141,9.6712,9.6712,0,0,0-13.38.28A.348.348,0,0,1,48.8374,32.47Z" transform="translate(-0.7029 -19.2922)" fill="#11003d"/></g><g id="Shape-10" data-name="Shape"><path d="M58.246,31.2824a1.3156,1.3156,0,0,1-2.6256,0v0a1.3157,1.3157,0,0,1,2.6256,0m.9383,1.8377a.5321.5321,0,1,1-.531-.4971.5148.5148,0,0,1,.531.4971" transform="translate(-0.7029 -19.2922)" fill="#fff"/></g><g id="Shape-11" data-name="Shape"><path d="M60.0386,39.5569c-.4738,0-.7106-.41-.8673-.68-.1489-.2576-.2112-.3378-.31-.3378s-.1609.08-.31.3378c-.1565.2709-.3933.68-.8668.68s-.71-.41-.8668-.68c-.1489-.2577-.2112-.3379-.31-.3379s-.1618.08-.3107.3379c-.1567.271-.3935.68-.8673.68s-.71-.41-.8668-.68c-.1489-.2577-.2112-.3379-.31-.3379s-.1617.08-.3109.3381c-.1566.2709-.3934.68-.8672.68s-.7109-.4093-.8675-.68c-.1492-.2577-.2115-.3379-.3107-.3379a.3853.3853,0,0,1,0-.7637c.4738,0,.7107.4093.8673.68.1492.2578.2114.3381.3109.3381s.1617-.08.3106-.3379c.1567-.271.3937-.68.8675-.68s.71.41.8668.68c.1489.2577.2113.3379.31.3379s.1618-.08.3107-.3379c.1567-.271.3935-.68.8673-.68s.71.41.8668.68c.1489.2577.2112.3379.31.3379s.1612-.08.31-.3379c.1564-.2709.393-.68.8665-.68s.71.4093.8669.68c.1489.2578.2114.3381.3106.3381a.3852.3852,0,0,1,0,.7634Z" transform="translate(-0.7029 -19.2922)" fill="#11003d"/></g></g><g id="Combined-Shape-4" data-name="Combined-Shape"><g opacity="0.3115"><path d="M40.6442,43.1209a15.446,15.446,0,0,1-1.0613-5.6428,16.04,16.04,0,0,1,32.075,0,15.4461,15.4461,0,0,1-1.0614,5.6428Z" transform="translate(-0.7029 -19.2922)" fill="#94fff9"/></g><path d="M70.9005,43.5665H40.34l-.1108-.2831a15.8648,15.8648,0,0,1-1.0919-5.8053,16.4858,16.4858,0,0,1,32.9661,0,15.8609,15.8609,0,0,1-1.0923,5.8053Zm-29.949-.891H70.2891a14.9782,14.9782,0,0,0,.9234-5.1974,15.5949,15.5949,0,0,0-31.1841,0A14.9778,14.9778,0,0,0,40.9515,42.6755Z" transform="translate(-0.7029 -19.2922)" fill="#11003d"/></g><rect x="23.0684" y="58.5489" width="65.7773" height="28.2696" fill="#15003e" stroke="#25e899" stroke-miterlimit="10"/><rect x="23.0684" y="58.6166" width="65.7773" height="5.3336" fill="#25e899"/><path d="M28.928,91.3883V85.6872h1.5894a3.8437,3.8437,0,0,1,2.5571.7265,2.6026,2.6026,0,0,1,.8457,2.0889,2.7236,2.7236,0,0,1-.8281,2.1494,3.5235,3.5235,0,0,1-2.4141.7363Zm.9947-.8535h.8066a2.2374,2.2374,0,0,0,1.5855-.5166,1.9827,1.9827,0,0,0,.5522-1.5195,1.8588,1.8588,0,0,0-.5581-1.4551,2.479,2.479,0,0,0-1.7012-.5029h-.685Z" transform="translate(-0.7029 -19.2922)" fill="#0fce7c"/><path d="M34.3821,91.3883l2.2906-5.7011h1.01l2.3106,5.7011H38.8694l-.5517-1.39H36.015l-.54,1.39ZM36.387,89.07h1.5274q-.45-1.3345-.7559-2.22Q36.9037,87.59,36.387,89.07Z" transform="translate(-0.7029 -19.2922)" fill="#0fce7c"/><path d="M42.0218,91.3883V89.1842L39.99,85.6872h1.1313l1.4136,2.6113,1.4018-2.6113h1.1592L43.0164,89.18v2.208Z" transform="translate(-0.7029 -19.2922)" fill="#0fce7c"/><path d="M49.2112,91.3883V86.5407H47.4529v-.8535H51.991v.8535H50.2059v4.8476Z" transform="translate(-0.7029 -19.2922)" fill="#fff"/><path d="M52.7781,91.3883V85.6872h2.0557a4.0963,4.0963,0,0,1,.8125.07,1.8963,1.8963,0,0,1,.62.2412,1.0579,1.0579,0,0,1,.419.4853,1.9045,1.9045,0,0,1,.1416.7774,1.3557,1.3557,0,0,1-.2862.8516,1.4367,1.4367,0,0,1-.8613.499,1.7063,1.7063,0,0,1,.7559.8926l.77,1.8837H56.13l-.6543-1.6953a1.327,1.327,0,0,0-.3486-.5683.9072.9072,0,0,0-.5674-.1485h-.7871v2.4121Zm.9825-3.2539h.9511q1.065,0,1.0655-.8261a.7041.7041,0,0,0-.2237-.6094,1.3033,1.3033,0,0,0-.7353-.1582H53.7606Z" transform="translate(-0.7029 -19.2922)" fill="#fff"/><path d="M57.5154,91.3883l2.2911-5.7011h1.01l2.3106,5.7011H62.0027l-.5517-1.39H59.1483l-.54,1.39ZM59.52,89.07h1.5274q-.45-1.3345-.7559-2.22Q60.0369,87.59,59.52,89.07Z" transform="translate(-0.7029 -19.2922)" fill="#fff"/><path d="M63.9217,91.3883V85.6872h1.59a3.8425,3.8425,0,0,1,2.5567.7265,2.6014,2.6014,0,0,1,.8457,2.0889,2.722,2.722,0,0,1-.8281,2.1494,3.5221,3.5221,0,0,1-2.4141.7363Zm.9951-.8535h.8066a2.2361,2.2361,0,0,0,1.585-.5166,1.9826,1.9826,0,0,0,.5527-1.5195,1.8594,1.8594,0,0,0-.5585-1.4551,2.4781,2.4781,0,0,0-1.7012-.5029h-.6846Z" transform="translate(-0.7029 -19.2922)" fill="#fff"/><path d="M69.9559,91.3883V85.6872H70.95v5.7011Z" transform="translate(-0.7029 -19.2922)" fill="#fff"/><path d="M72.368,91.3883V85.6872h1.0537q2.7172,3.939,2.8935,4.1972V85.6872h.9473v5.7011H76.2059q-2.628-3.794-2.918-4.205v4.205Z" transform="translate(-0.7029 -19.2922)" fill="#fff"/><path d="M81.3387,91.4782a2.9049,2.9049,0,0,1-2.1631-.7676,2.83,2.83,0,0,1-.7578-2.0791,3.5317,3.5317,0,0,1,.124-.9414,2.8938,2.8938,0,0,1,.375-.8359,2.8584,2.8584,0,0,1,.6094-.668,2.6762,2.6762,0,0,1,.8476-.4443,3.4316,3.4316,0,0,1,1.0664-.16,4.341,4.341,0,0,1,.7344.0566,2.3827,2.3827,0,0,1,.5664.1622,3.365,3.365,0,0,1,.3477.1748,2.4745,2.4745,0,0,1,.251.1738l-.3995.6973a2.4893,2.4893,0,0,0-1.496-.4073,2.07,2.07,0,0,0-.8848.1836,1.6532,1.6532,0,0,0-.626.4932,2.2919,2.2919,0,0,0-.3564.6855,2.5406,2.5406,0,0,0-.1211.7871,2.632,2.632,0,0,0,.1211.8223,1.8465,1.8465,0,0,0,.3564.6445,1.5594,1.5594,0,0,0,.6045.4229,2.2321,2.2321,0,0,0,.8477.15,3.4342,3.4342,0,0,0,.9755-.1485V89.1325h-1.332v-.85h2.3418v2.7607A4.93,4.93,0,0,1,81.3387,91.4782Z" transform="translate(-0.7029 -19.2922)" fill="#fff"/><path d="M40.53,101.0114V95.31h.9946v5.7012Z" transform="translate(-0.7029 -19.2922)" fill="#fff"/><path d="M44.6375,101.1012a3.7481,3.7481,0,0,1-1.1318-.1718,2.1363,2.1363,0,0,1-.8574-.4776l.4228-.7129a2.4524,2.4524,0,0,0,.7227.3643,2.5227,2.5227,0,0,0,.7812.1484,1.2772,1.2772,0,0,0,.7813-.1953.7082.7082,0,0,0,.2524-.5957,1.092,1.092,0,0,0-.0234-.2519.534.534,0,0,0-.106-.2.7752.7752,0,0,0-.2446-.1914,3.1292,3.1292,0,0,0-.4365-.1866q-.1181-.0394-.3975-.1289c-.1865-.06-.3232-.1054-.4092-.1377a2.5249,2.5249,0,0,1-1.022-.6279,1.4362,1.4362,0,0,1-.3173-.9805,1.4012,1.4012,0,0,1,.2646-.8584,1.5394,1.5394,0,0,1,.7026-.5244,2.7825,2.7825,0,0,1,1.0025-.1679,3.7409,3.7409,0,0,1,1.1865.1484,2.2332,2.2332,0,0,1,.7988.5088l-.5092.6582a1.8571,1.8571,0,0,0-1.335-.458,1.5715,1.5715,0,0,0-.7578.16.5254.5254,0,0,0-.292.4893,1.0478,1.0478,0,0,0,.0278.2646.51.51,0,0,0,.1153.2041.8424.8424,0,0,0,.2524.1836,3.5788,3.5788,0,0,0,.439.1817c.0649.0244.2016.0693.4091.1357s.3619.1192.4639.1582a2.2493,2.2493,0,0,1,.9712.6387,1.6226,1.6226,0,0,1,.2739,1.0019,1.5963,1.5963,0,0,1-.1684.75,1.2914,1.2914,0,0,1-.458.5069,2.1931,2.1931,0,0,1-.6421.2744A3.0829,3.0829,0,0,1,44.6375,101.1012Z" transform="translate(-0.7029 -19.2922)" fill="#fff"/><path d="M50.2137,101.0114V95.31h1.5889a3.8448,3.8448,0,0,1,2.5576.7266,2.6044,2.6044,0,0,1,.8457,2.0889,2.7253,2.7253,0,0,1-.8282,2.1494,3.5251,3.5251,0,0,1-2.414.7363Zm.9941-.8535h.8067A2.2391,2.2391,0,0,0,53.6,99.6413a1.9826,1.9826,0,0,0,.5518-1.52,1.8584,1.8584,0,0,0-.5577-1.455,2.4789,2.4789,0,0,0-1.7011-.503h-.6856Z" transform="translate(-0.7029 -19.2922)" fill="#8e2abe"/><path d="M58.577,101.1012a3.15,3.15,0,0,1-.9629-.1328,1.902,1.902,0,0,1-.668-.3506,1.6609,1.6609,0,0,1-.4092-.54,2.5214,2.5214,0,0,1-.2158-.66,4.3988,4.3988,0,0,1-.0586-.7519V95.31h.9951v3.3985a2.5948,2.5948,0,0,0,.0664.623,1.4069,1.4069,0,0,0,.1817.4424.9833.9833,0,0,0,.2861.2822,1.1018,1.1018,0,0,0,.36.1524,1.9311,1.9311,0,0,0,.4209.0429,1.6955,1.6955,0,0,0,.5263-.0742,1.0919,1.0919,0,0,0,.4131-.2451,1.0793,1.0793,0,0,0,.2822-.48,2.4892,2.4892,0,0,0,.0977-.748V95.31h.9951V98.67a4.6378,4.6378,0,0,1-.0547.7441,2.4685,2.4685,0,0,1-.21.6582,1.669,1.669,0,0,1-.4053.544,1.8569,1.8569,0,0,1-.668.3525A3.1942,3.1942,0,0,1,58.577,101.1012Z" transform="translate(-0.7029 -19.2922)" fill="#8e2abe"/><path d="M62.2733,101.0114V95.31H63.44q.1216.27.8594,1.9151.7383,1.6435,1.1338,2.51.3018-.6547.62-1.373t.7364-1.67q.4175-.9507.6093-1.3819h1.167v5.7012h-.9326V96.9391q-.2065.45-1.8359,4.0723h-.7325q-.2036-.4468-.5712-1.2666T63.82,98.2565q-.3061-.6664-.5879-1.251v4.0059Z" transform="translate(-0.7029 -19.2922)" fill="#8e2abe"/><path d="M70.0545,101.0114V95.31h1.5772c.165,0,.3125.003.4433.01s.2793.0205.4483.043a2.6933,2.6933,0,0,1,.4443.0937,2.1215,2.1215,0,0,1,.3877.1709,1.1652,1.1652,0,0,1,.3223.26,1.2169,1.2169,0,0,1,.208.3759,1.5026,1.5026,0,0,1,.08.5079,1.2632,1.2632,0,0,1-.7558,1.2177,1.2777,1.2777,0,0,1,.7636.5147,1.5683,1.5683,0,0,1,.2549.8984,1.457,1.457,0,0,1-.1289.6094,1.5773,1.5773,0,0,1-.38.5107,1.793,1.793,0,0,1-.66.3584,3.042,3.042,0,0,1-.9258.1309Zm.9941-3.3359h.85a1.7286,1.7286,0,0,0,.3681-.0372,1.1458,1.1458,0,0,0,.3194-.124.6011.6011,0,0,0,.2363-.2422.767.767,0,0,0,.0869-.3759.5944.5944,0,0,0-.2939-.5782,2.0912,2.0912,0,0,0-.9239-.1543h-.6426Zm.0118,2.4863h.8964q1.2027,0,1.2022-.8028a.7877.7877,0,0,0-.2676-.6894,1.7682,1.7682,0,0,0-.958-.1875H71.06Z" transform="translate(-0.7029 -19.2922)" fill="#8e2abe"/><g id="Group-2-Copy"><g id="Rectangle-Copy-2-2" data-name="Rectangle-Copy-2"><path d="M37.654,57.9306l-3.9334-2.0914a.5939.5939,0,0,0-.8033.2456l-2.928,5.5068a.5939.5939,0,0,0,.2456.8033l3.9334,2.0914a.5939.5939,0,0,0,.8033-.2456L37.9,58.7339A.594.594,0,0,0,37.654,57.9306Z" transform="translate(-0.7029 -19.2922)" fill="#fff"/><path d="M34.4454,65.001a1.031,1.031,0,0,1-.4862-.1215l-3.9334-2.0914a1.0391,1.0391,0,0,1-.43-1.4055l2.928-5.507a1.04,1.04,0,0,1,1.4057-.43l3.9334,2.0915a1.0408,1.0408,0,0,1,.43,1.4058L35.3648,64.45A1.04,1.04,0,0,1,34.4454,65.001Zm-1.0035-8.7858a.1489.1489,0,0,0-.1314.0786l-2.928,5.507a.1487.1487,0,0,0,.0615.2007l3.9334,2.0914a.15.15,0,0,0,.2009-.0612l2.928-5.5068a.1491.1491,0,0,0-.0614-.201l-3.9334-2.0914A.1491.1491,0,0,0,33.4419,56.2152Z" transform="translate(-0.7029 -19.2922)" fill="#11003d"/></g><g id="Rectangle-Copy-16"><path d="M33.1389,66.6679l-2.6145.5557a.594.594,0,0,0-.4576.7045l1.2968,6.1a.594.594,0,0,0,.7045.4575l2.6145-.5557a.594.594,0,0,0,.4575-.7045l-1.2967-6.1A.594.594,0,0,0,33.1389,66.6679Z" transform="translate(-0.7029 -19.2922)" fill="#fff"/><path d="M31.9443,74.9447a1.0411,1.0411,0,0,1-1.0165-.8234l-1.2967-6.1005a1.0412,1.0412,0,0,1,.8-1.2329l2.6149-.5557a1.0394,1.0394,0,0,1,1.2328.8007l1.2967,6.1a1.0391,1.0391,0,0,1-.8008,1.2326l-2.6143.5557A1.0215,1.0215,0,0,1,31.9443,74.9447Zm1.2872-7.8413-2.6145.5557a.1492.1492,0,0,0-.1144.1766l1.2967,6.1a.15.15,0,0,0,.1762.1143l2.6144-.5557a.1488.1488,0,0,0,.1144-.1763l-1.2968-6.1a.1487.1487,0,0,0-.1761-.1146Z" transform="translate(-0.7029 -19.2922)" fill="#11003d"/></g><g id="Oval-4" data-name="Oval"><circle cx="37.098" cy="34.2234" r="4.7519" fill="#479e0c"/><path d="M37.8009,58.7128a5.1973,5.1973,0,1,1,5.1974-5.1972A5.2031,5.2031,0,0,1,37.8009,58.7128Zm0-9.5035a4.3063,4.3063,0,1,0,4.3064,4.3063A4.3112,4.3112,0,0,0,37.8009,49.2093Z" transform="translate(-0.7029 -19.2922)" fill="#11003d"/></g><g id="Oval-Copy-2"><circle cx="31.0097" cy="45.6576" r="2.8214" fill="#479e0c"/><path d="M31.7126,68.2165A3.2669,3.2669,0,1,1,34.98,64.95,3.2706,3.2706,0,0,1,31.7126,68.2165Zm0-5.6428A2.376,2.376,0,1,0,34.0885,64.95,2.3786,2.3786,0,0,0,31.7126,62.5737Z" transform="translate(-0.7029 -19.2922)" fill="#11003d"/></g><g id="Oval-Copy-3"><ellipse cx="33.0886" cy="56.6462" rx="2.5244" ry="2.3759" fill="#479e0c"/><path d="M33.7915,78.76a2.8251,2.8251,0,1,1,2.97-2.8214A2.9018,2.9018,0,0,1,33.7915,78.76Zm0-4.7518a1.9357,1.9357,0,1,0,2.079,1.93A2.0111,2.0111,0,0,0,33.7915,74.0079Z" transform="translate(-0.7029 -19.2922)" fill="#11003d"/></g></g><g id="Group-2"><g id="Rectangle-Copy-2-3" data-name="Rectangle-Copy-2"><path d="M73.5868,57.9306,77.52,55.8392a.5939.5939,0,0,1,.8033.2456l2.928,5.5068a.594.594,0,0,1-.2456.8033l-3.9334,2.0914a.5939.5939,0,0,1-.8033-.2456l-2.928-5.5068A.5939.5939,0,0,1,73.5868,57.9306Z" transform="translate(-0.7029 -19.2922)" fill="#fff"/><path d="M76.7953,65.001a1.0405,1.0405,0,0,1-.9194-.5511l-2.9281-5.5068a1.04,1.04,0,0,1,.43-1.4058l3.9334-2.0914a1.04,1.04,0,0,1,1.4058.43l2.9281,5.507a1.04,1.04,0,0,1-.43,1.4055l-3.9334,2.0914A1.0356,1.0356,0,0,1,76.7953,65.001Zm1.0035-8.7858a.1477.1477,0,0,0-.07.0174l-3.9334,2.0913a.1491.1491,0,0,0-.0615.201l2.9282,5.5068a.1491.1491,0,0,0,.201.0612l3.9334-2.0914a.1488.1488,0,0,0,.0614-.2007L77.93,56.2938A.149.149,0,0,0,77.7988,56.2152Zm-4.2121,1.7154h0Z" transform="translate(-0.7029 -19.2922)" fill="#11003d"/></g><g id="Oval-5" data-name="Oval"><circle cx="72.7369" cy="34.2234" r="4.7519" fill="#479e0c"/><path d="M73.44,58.7128a5.1973,5.1973,0,1,1,5.1973-5.1972A5.2032,5.2032,0,0,1,73.44,58.7128Zm0-9.5035a4.3063,4.3063,0,1,0,4.3063,4.3063A4.3113,4.3113,0,0,0,73.44,49.2093Z" transform="translate(-0.7029 -19.2922)" fill="#11003d"/></g><g id="Rectangle-Copy-16-2" data-name="Rectangle-Copy-16"><path d="M78.2568,67.4359l2.6725.0466a.5939.5939,0,0,1,.5835.6043l-.1088,6.2358a.5939.5939,0,0,1-.6043.5835L78.1272,74.86a.594.594,0,0,1-.5835-.6043l.1088-6.2358A.594.594,0,0,1,78.2568,67.4359Z" transform="translate(-0.7029 -19.2922)" fill="#fff"/><path d="M80.8108,75.3516h-.0189l-2.6726-.0467a1.0406,1.0406,0,0,1-1.0212-1.0572l.1091-6.2362A1.0405,1.0405,0,0,1,78.2466,66.99h.018l2.6726.0467a1.0413,1.0413,0,0,1,1.0212,1.0574l-.109,6.236a1.0392,1.0392,0,0,1-1.0386,1.0212Zm-2.5642-7.47a.1484.1484,0,0,0-.1485.1456l-.109,6.2362a.148.148,0,0,0,.1456.1508l2.6729.0467a.148.148,0,0,0,.1508-.1456l.1091-6.2359a.1488.1488,0,0,0-.1459-.1511l-2.6724-.0467Z" transform="translate(-0.7029 -19.2922)" fill="#11003d"/></g><g id="Oval-Copy-3-2" data-name="Oval-Copy-3"><circle cx="78.8252" cy="56.6462" r="2.8214" fill="#479e0c"/><path d="M79.5283,79.2052a3.2669,3.2669,0,1,1,3.2669-3.2669A3.2706,3.2706,0,0,1,79.5283,79.2052Zm0-5.6428a2.3759,2.3759,0,1,0,2.3759,2.3759A2.3786,2.3786,0,0,0,79.5283,73.5624Z" transform="translate(-0.7029 -19.2922)" fill="#11003d"/></g><g id="Path-13"><path d="M75.7973,80.4219a.4456.4456,0,0,1-.4252-.3127,2.4124,2.4124,0,0,1,1.0827-2.8924.4453.4453,0,0,1,.5041.7343,1.5384,1.5384,0,0,0-.7364,1.8925.4455.4455,0,0,1-.4252.5783Z" transform="translate(-0.7029 -19.2922)" fill="#11003d"/></g><g id="Path-13-Copy"><path d="M78.8679,82.3677a.4455.4455,0,0,1-.4026-.6355c.8141-1.7268.1743-2.4835-.3779-2.9023a.4455.4455,0,1,1,.5383-.71c.85.6445,1.6508,1.86.6453,3.9923A.4453.4453,0,0,1,78.8679,82.3677Z" transform="translate(-0.7029 -19.2922)" fill="#11003d"/></g><g id="Path-13-Copy-2"><path d="M80.65,82.6647a.4456.4456,0,0,1-.4025-.6355c.8141-1.7268.1743-2.4835-.378-2.9023a.4455.4455,0,0,1,.5383-.71c.8495.6444,1.6509,1.86.6454,3.9923A.4453.4453,0,0,1,80.65,82.6647Z" transform="translate(-0.7029 -19.2922)" fill="#11003d"/></g><g id="Path-13-Copy-3"><path d="M82.1348,82.3677a.4455.4455,0,0,1-.4026-.6355c.8141-1.7268.1743-2.4835-.3779-2.9023a.4455.4455,0,1,1,.5383-.71c.8495.6445,1.6508,1.86.6453,3.9923A.4453.4453,0,0,1,82.1348,82.3677Z" transform="translate(-0.7029 -19.2922)" fill="#11003d"/></g><g id="Oval-Copy-2-2" data-name="Oval-Copy-2"><circle cx="78.8252" cy="45.6576" r="2.8214" fill="#479e0c"/><path d="M79.5283,68.2165A3.2669,3.2669,0,1,1,82.7952,64.95,3.2706,3.2706,0,0,1,79.5283,68.2165Zm0-5.6428A2.376,2.376,0,1,0,81.9042,64.95,2.3787,2.3787,0,0,0,79.5283,62.5737Z" transform="translate(-0.7029 -19.2922)" fill="#11003d"/></g><g id="Path-13-2" data-name="Path-13"><path d="M37.4134,79.9636a.4456.4456,0,0,0,.4252-.3126,2.4126,2.4126,0,0,0-1.0827-2.8925.4454.4454,0,0,0-.5041.7344,1.5383,1.5383,0,0,1,.7364,1.8924.4453.4453,0,0,0,.2923.558A.4393.4393,0,0,0,37.4134,79.9636Z" transform="translate(-0.7029 -19.2922)" fill="#11003d"/></g><g id="Path-13-Copy-2-2" data-name="Path-13-Copy"><path d="M34.3428,81.9094a.4455.4455,0,0,0,.4026-.6354c-.8141-1.7268-.1743-2.4835.3779-2.9023a.4455.4455,0,0,0-.5383-.71c-.8495.6444-1.6508,1.86-.6453,3.9922A.4451.4451,0,0,0,34.3428,81.9094Z" transform="translate(-0.7029 -19.2922)" fill="#11003d"/></g><g id="Path-13-Copy-2-3" data-name="Path-13-Copy-2"><path d="M32.5609,82.2064a.4454.4454,0,0,0,.4025-.6354c-.8141-1.7269-.1743-2.4835.378-2.9024a.4455.4455,0,1,0-.5383-.71c-.8495.6444-1.6509,1.86-.6454,3.9922A.4451.4451,0,0,0,32.5609,82.2064Z" transform="translate(-0.7029 -19.2922)" fill="#11003d"/></g><g id="Path-13-Copy-3-2" data-name="Path-13-Copy-3"><path d="M31.0759,81.9094a.4455.4455,0,0,0,.4026-.6354c-.8141-1.7268-.1743-2.4835.3779-2.9023a.4455.4455,0,0,0-.5383-.71c-.85.6444-1.6508,1.86-.6453,3.9922A.4451.4451,0,0,0,31.0759,81.9094Z" transform="translate(-0.7029 -19.2922)" fill="#11003d"/></g></g></g><path d="M86.559,101.0807l-.5047-.2094a1.6,1.6,0,0,0-.8436-2.04l-.2883-.12.12-.2884.2163.09.09-.2163a2.1321,2.1321,0,0,1,1.13,1.1451,2.1837,2.1837,0,0,1,.0805,1.6389" transform="translate(-0.7029 -19.2922)" fill="#00ce78"/><path d="M87.095,102.2327l-1.734.717A2.817,2.817,0,0,1,83.21,97.7475a2.6974,2.6974,0,0,1,1.8131-.0928l-.688,1.6582c-.102.0421-.2462-.0177-.3781.0966a.9934.9934,0,1,0,.7592,1.8361c.102-.0422.204-.0844.2339-.1565l1.9342.6336Zm-2.6919-1.455a.3863.3863,0,1,1,.2094-.5046A.3772.3772,0,0,1,84.4031,100.7777Zm.7493-.7876a.6747.6747,0,0,0-.3428-.3958l.4188-1.0092h0l.5085-1.2256-.2884-.12a3.2414,3.2414,0,0,0-4.2443,4.3232,3.3993,3.3993,0,0,0,4.2656,1.9389h0l2.3462-.97-.5484-1.326-2.1083-.6213A.8431.8431,0,0,0,85.1524,99.99Z" transform="translate(-0.7029 -19.2922)" fill="#fff"/><path d="M85.8428,95.8824l-.12.2883-.2883-.12.12-.2884Zm-1.6022.6027-.12.2884-.2884-.12.12-.2883Zm.7248-1.1358a.2208.2208,0,1,0-.12.2884.2373.2373,0,0,0,.12-.2884" transform="translate(-0.7029 -19.2922)" fill="#00e895"/><path d="M82.8823,99.5552a.2375.2375,0,0,1-.2884-.12l-.9279-2.2441a.2208.2208,0,0,1,.408-.1687l.9279,2.2441c.0123.1741-.0176.2462-.12.2884m.8322-1.5983-.38-.9181a.2208.2208,0,0,0-.4081.1688l.38.918a1.1783,1.1783,0,0,1,.4081-.1687" transform="translate(-0.7029 -19.2922)" fill="#fff"/></g></svg>