<?xml version="1.0" encoding="utf-8"?>
<!-- Generator: Adobe Illustrator 16.0.0, SVG Export Plug-In . SVG Version: 6.00 Build 0)  -->
<!DOCTYPE svg PUBLIC "-//W3C//DTD SVG 1.1//EN" "http://www.w3.org/Graphics/SVG/1.1/DTD/svg11.dtd">
<svg version="1.1" id="Layer_1" xmlns="http://www.w3.org/2000/svg" xmlns:xlink="http://www.w3.org/1999/xlink" x="0px" y="0px"
	 width="500px" height="500px" viewBox="0 0 500 500" enable-background="new 0 0 500 500" xml:space="preserve">
<path opacity="0.1" fill="#15003E" stroke="#01065B" stroke-width="0.05" stroke-miterlimit="10" d="M431.484,272.332
	l52.582-162.453L232.189,29.213l-27.55,79.89c-0.234-0.044-0.484-0.083-0.737-0.118c-3.64-0.611-7.33-0.89-10.996-0.846
	c-0.686-0.061-1.376-0.069-2.106,0.013l0.136-0.312c-0.883,0-1.767-0.42-2.652-0.42c-3.758-0.358-7.515,0.207-11.001,1.676
	l-0.045,0.007c0,0-0.013,0.015-0.014,0.016c-0.593,0.252-1.18,0.522-1.756,0.826c-0.32,0.152-0.619,0.358-0.91,0.585
	c-0.007,0.001-0.015,0.003-0.022,0.004l0.492-0.59c-1.779,0.34-3.27,0.416-4.707,0.648c0.243-0.077,0.487-0.161,0.729-0.226
	c0,0-0.393,0.094-1.07,0.29c-0.232,0.042-0.466,0.076-0.697,0.13c-2.855,0.906-5.451,1.944-7.931,3.226
	c-0.631,0.311-1.275,0.644-1.924,1c-6.75,3.277-12.753,8.738-18.43,18.931c-0.999,1.666-1.712,3.913-2.306,6.399
	c-1.921,4.824-3.283,9.873-4.323,15.074c0,0.842-0.442,2.104-0.443,3.367l-0.096,0.549l-5.14,6.161l-0.511,0.446l-0.322,0.553
	l-2.442,2.928l-0.769,0.733c-0.197,0.188-0.656,0.793-1.144,1.441c-1.473,1.252-2.158,2.937-2.835,4.874
	c-2.209,7.158-4.42,14.315-6.628,21.473c-3.094,10.105-5.745,20.63-8.838,31.156c-0.885,2.948-1.769,5.895-2.652,9.263
	c0.003,0.006,0.009,0.011,0.012,0.017c0.011,0.049,0.128,0.195,0.305,0.396c1.714,2.34,3.785,4.337,5.87,6.324
	c0.811,0.771,1.676,1.49,2.569,2.184c1.096,1.112,1.853,1.915,1.853,2.026l6.359,2.932l15.292,8.857
	c-2.652,0.842-4.861,2.104-7.514,2.947l-0.883,0.421l-0.884,0.421l-1.767,0.842l-1.767,0.843c-0.441,0.42-1.325,0.842-1.768,0.842
	c-1.325,0.421-2.651,0.841-3.978,1.263c-0.441,0-1.325,0.421-1.768,0.421l-1.767,0.422c-5.305,1.263-10.607,2.947-15.469,5.474
	c-1.326,0.842-2.209,1.263-3.536,2.105c-0.441,0.421-1.324,0.842-1.767,1.263l-1.767,1.263c-2.209,1.264-4.418,2.948-6.628,4.631
	c-3.978,3.368-7.955,6.737-11.933,10.526c-1.768,2.105-3.537,3.79-5.304,5.896l-2.652,2.946c-0.885,0.842-1.768,2.104-2.652,2.947
	l-1.327,1.263c-0.441,0.842-0.883,1.264-1.326,1.685c-0.884,1.263-1.768,2.105-2.652,3.368c-0.884,1.264-1.326,2.105-2.209,3.368
	c-0.884,0.843-1.768,2.104-2.21,3.368c-0.883,2.104-2.209,4.631-3.093,7.157l-0.443,0.843l-0.442,0.842
	c0,0.42-0.442,1.262-0.442,1.683l-1.326,3.791c-6.188,20.21-12.375,39.998-18.117,59.789c-1.326,4.632-3.093,9.684-4.419,14.737
	l2.65,1.261l39.333,21.472h1.606l12.975,7.157c0,0,0.022-0.071,0.054-0.178l106.014,59.54c0,0,51.544-27.899,69.044-37.366
	c-0.062,0.477-0.1,0.739-0.1,0.739l8.311-4.549l-0.799,0.762l83.971-47.156l-0.004-18.53l-1.326-8l-2.652-16.42l-1.324-8
	l-0.885-4.208c-0.441-1.685-0.441-2.947-0.883-4.211c-0.441-2.526-1.326-5.474-1.768-8c-0.883-2.527-1.324-5.473-2.209-7.999
	c-0.885-2.947-1.77-5.476-2.652-8.001s-2.209-5.052-3.094-7.577c-0.441-1.263-1.324-2.527-1.768-3.79l-0.883-1.684
	c-0.441-0.421-0.441-1.263-0.885-1.684l-0.885-1.685l-0.883-1.684c-0.883-1.263-1.324-2.526-2.209-3.789
	c-3.092-4.632-6.629-9.261-10.605-13.052c-2.209-1.684-4.42-3.789-6.631-5.474c-0.439-0.421-1.324-0.841-1.766-1.264
	c-0.443-0.421-1.324-0.841-1.768-1.263l-0.797-0.569l15.342-46.022L431.484,272.332z"/>
<g id="Layer_63_7_">
	<g>
		<g>
			<g>
				<path fill="#8E2ABE" d="M317.586,339.807c0,0,0,0-0.391,0c-2.734,2.344-6.25-1.562-4.297-3.906c0,0,0,0,0.391-0.391"/>
			</g>
		</g>
	</g>
	<g>
		<path fill="#15003E" stroke="#01065B" stroke-width="0.05" stroke-miterlimit="10" d="M175.008,177.697
			c0,0,11.719-2.344,18.359-1.562c10.156,1.953,26.953,15.625,28.906,19.531c3.125,6.25,14.062,29.688,15.234,32.422
			c1.172,2.734,4.688,11.328,6.25,14.062c0.391,0.391,1.172,1.562,1.562,1.562c3.125,1.953,16.406,10.547,17.578,11.328
			c1.562,0.78,0.781,1.953,1.172,3.125c0,0.392,0,1.172,0,1.562c0,1.172-1.172,0.781-2.344,1.172l-4.297,3.906
			c-0.391,0-0.391,0.391,0,0.781l9.375,4.297l38.672,40.234l23.438,89.062c0,0-79.297,46.483-76.562,44.921
			c2.734-1.562-66.017,37.5-66.017,37.5L44.539,398.01l31.25-89.062c-1.562-0.781,1.172-2.345,2.344-3.906l6.25-5.858
			c0,0,1.562-1.953,1.562-2.345l4.297-6.641c0.391-0.392,1.562-1.562,1.562-1.953l14.844-10.547l10.547-5.859
			c0.391-0.391,0.781-0.391,1.172-0.391l13.672-1.173c0.391,0,0.781,0,1.172-0.391l8.594-4.297l0.391-0.391l3.516-2.734
			c1.562-1.172,1.562,0,0-1.172l-5.078-1.953c-0.391-0.391-6.25-1.953-6.25-2.344l-12.109-5.859c0-0.391-9.375-9.766-9.375-10.156
			l2.344-6.641c0-0.391,4.297-15.234,4.297-15.625l10.547-36.719c0-1.172,4.688-5.078,6.25-5.469l10.547-0.391
			c0.391,0,0.781,0,1.172,0l17.188,3.125c0.391,0,0.781,0,1.172,0L175.008,177.697"/>
		<path fill="#15003E" stroke="#01065B" stroke-width="0.05" stroke-miterlimit="10" d="M292.586,285.51"/>
		<path fill="#F2F2F2" d="M165.633,179.65c0-0.781,4.297-21.094,10.547-37.5c5.078-12.891,11.719-22.656,11.719-22.656l-8.984,1.562
			c0,0-7.812,8.984-11.328,19.531s-10.156,30.859-10.156,30.859l-0.781,7.031L165.633,179.65z"/>
		<path fill="#F2F2F2" d="M173.445,122.229c0,0-15.625,3.906-21.484,15.234C145.32,148.4,160.945,125.744,173.445,122.229z"/>
		<g>
			<g>
				
					<rect id="Rectangle-path_7_" x="140.242" y="289.025" fill="#D1D3D4" stroke="#0E2947" stroke-miterlimit="10" width="112.109" height="26.172"/>
				<rect id="Rectangle-path_4_" x="155.086" y="271.838" fill="#D6D6EA" width="76.953" height="16.406"/>
				<path id="Shape_4_" fill="#0E2947" d="M235.945,290.588h-85.156v-23.047h85.156V290.588L235.945,290.588z M155.477,285.9h75.391
					v-13.281h-75.391V285.9L155.477,285.9z"/>
				<path id="Shape_3_" fill="#25E899" d="M225.398,263.635h-62.891c-1.172,0-2.344-1.172-2.344-2.344s1.172-2.344,2.344-2.344
					h62.891c1.172,0,2.344,1.172,2.344,2.344S226.57,263.635,225.398,263.635"/>
				<rect id="Rectangle-path_3_" x="221.102" y="290.979" fill="#9393B5" width="28.125" height="23.047"/>
				<rect id="Rectangle-path_2_" x="209.773" y="272.619" fill="#9393B5" width="21.484" height="12.891"/>
			</g>
			
				<path fill="#FFFFFF" stroke="#0E2947" stroke-width="0.25" stroke-linecap="round" stroke-linejoin="round" stroke-miterlimit="10" d="
				M237.117,370.275c0-3.906,0-8.203-1.562-12.892c-1.172-3.125-1.172-3.516-4.297-2.344c-9.375,2.344-19.141,5.078-28.516,7.03
				c-4.297,0.781-5.859,3.517-7.812,6.642c-0.781,1.562-0.391,1.562,1.172,1.562c3.516,0,3.906,0.781,3.906,4.297
				c0,7.423,0,14.845,0.781,22.267c0.781,8.595,0.391,16.797,0,25.391c0,3.125,0,3.125,3.125,3.125
				c5.078,0,10.547-1.172,15.625-1.562c2.734-0.391,4.297-1.562,5.078-3.906c0.781-2.344,1.562-4.297,2.734-6.641
				C233.211,399.572,237.117,385.51,237.117,370.275z M193.758,290.979c-3.125-0.391-5.859,0.781-7.031,3.517l0,0
				c-2.734,5.469-3.906,10.547-5.469,16.405c-4.297,16.406-6.25,33.203-7.422,50.392c0,2.733,0,2.733,3.516,2.344
				c2.734-0.391,5.469-0.78,8.203-1.172c7.422-1.562,7.031,0.392,8.203-8.983c2.734-21.484,8.594-41.797,23.047-58.984
				c1.172-1.172,0.781-1.953-0.781-2.734L193.758,290.979z M195.711,358.557c-0.391,1.562,0.781,1.953,1.953,1.562
				c7.422-1.953,14.453-3.906,21.875-5.859c1.562-0.391,1.953-1.172,2.344-2.734c1.562-12.5,4.297-25,8.203-37.108
				c1.172-3.517,2.344-6.642,4.297-9.375c1.172-1.172,0.391-1.953-0.781-2.344c-3.906-2.345-8.203-4.688-12.109-7.031
				c-1.562-0.781-2.344-0.392-3.516,0.781c-2.344,2.733-4.297,5.469-6.25,8.594C201.57,321.447,197.664,339.807,195.711,358.557z
				 M133.992,353.869c0,1.562-0.391,3.516,1.953,4.297c4.297,1.562,8.203,3.125,12.5,4.297c1.562,0.391,2.344-0.391,2.344-1.953
				c1.172-7.031,2.734-13.672,3.906-20.703c3.125-16.016,5.078-32.422,12.109-47.266c0.391-0.391,0.391-1.172-0.391-1.562
				c-1.953-1.172-4.297-2.344-6.25-3.516c-0.391,0-0.781,0-1.172,0.391c-2.344,2.344-5.859,2.734-8.984,3.517
				c-3.516,0.391-5.078,2.344-6.25,5.858C138.289,315.197,136.727,334.338,133.992,353.869z M164.461,364.416
				c1.172,0,2.344,0,3.516,0c2.344,0,3.125-0.781,3.125-3.125c0.391-15.625,2.734-30.859,6.25-46.094
				c1.562-7.031,3.125-14.062,6.641-20.703c0.391-0.781,1.562-1.562,0.781-2.344c-0.781-0.782-1.953-0.392-2.734-0.392
				c-2.734,0-5.078-0.78-7.812-0.78c-2.734-1.562-3.906-1.172-5.078,1.953c-4.297,10.938-7.422,22.655-9.375,34.375
				c-1.953,10.938-4.297,21.875-6.25,32.422c-0.781,3.516-0.781,3.516,2.734,3.905C158.992,364.025,161.727,364.416,164.461,364.416
				z M108.602,388.635c0,1.953,0,3.516,0.391,5.078c1.172,4.688,3.906,8.984,5.078,13.672c1.562,6.641,5.859,9.766,12.109,10.547
				c0.391,0,0.391,0,0.781,0c1.562,0.392,1.953,0,1.562-1.562c-0.391-5.078,0-9.767-0.391-14.845c0-9.375,0.781-19.141,0.391-28.516
				c0-4.688-0.781-6.25,5.859-5.859c0.781,0,1.562,0,2.344,0c0.391,0,0.781-0.391,1.172-0.78c0-1.172-2.344-5.078-3.516-5.47
				c-5.469-2.344-10.547-4.297-16.016-6.641c-1.172-0.391-1.953-0.391-2.344,1.172c-1.562,8.203-3.906,16.406-6.25,24.609
				C108.992,382.775,108.211,385.9,108.602,388.635z M142.586,293.322c-5.859,2.734-11.328,5.078-16.406,7.812
				c-0.781,0.392-0.781,0.781-1.172,1.562c-4.297,14.845-8.594,29.298-10.547,44.531c0,1.562,0,2.344,1.562,2.734
				c4.297,1.562,8.594,3.516,12.5,5.078c2.344,1.172,2.734,0.781,3.125-1.953c0.781-9.766,2.344-19.141,3.906-28.516
				C137.117,314.416,139.07,303.869,142.586,293.322z M223.836,351.525c-0.391,1.562,0.781,1.562,1.953,1.172
				c3.125-0.781,6.25-1.562,9.375-1.953c1.953-0.391,2.734-1.172,3.125-3.125c1.172-6.641,1.953-12.891,3.516-19.531
				c1.172-4.297,3.125-8.203,4.688-12.109c1.172-2.344,0.781-4.297-1.562-5.858c-1.562-1.173-3.125-2.345-5.078-3.517
				c-3.516-2.344-3.906-1.953-5.859,1.562c-1.562,3.516-2.734,7.422-3.906,11.328C227.352,330.041,225.398,340.588,223.836,351.525z
				 M242.195,349.182c2.734-0.391,5.469-1.172,8.203-1.562c6.25-0.781,12.5-1.562,18.75-2.345c1.562,0,1.953-0.78,1.172-1.952
				c-4.297-10.938-10.547-20.312-19.141-28.125c-0.782-0.781-1.173-1.173-1.954,0.391c-5.078,10.156-7.031,21.095-8.594,32.031
				C240.633,348.4,241.023,349.182,242.195,349.182z M121.883,303.479c-0.391,0-0.391-0.391-0.781-0.391
				c-2.344,1.562-5.469,2.344-7.031,5.469c-1.562,3.517-3.125,6.642-3.906,10.547c-1.953,7.812-3.125,15.234-4.297,23.047
				c-0.391,3.517-0.391,3.517,3.125,5.078c1.562,0.392,2.344,0.392,2.344-1.172c1.562-10.156,3.906-19.922,6.641-29.688
				C119.539,312.072,120.711,307.775,121.883,303.479z M131.258,406.213C131.648,406.213,131.648,406.213,131.258,406.213
				c0,9.375,0,18.75,0,28.125c0,3.516,0,3.516,3.516,3.906c6.641,0.391,13.672,1.172,20.312,1.562
				c11.328,0.781,22.656,1.953,33.984,2.734c1.953,0,2.344-0.391,2.344-1.953c0-3.516-0.391-7.031-0.391-10.156
				c-0.391-16.016,0.391-32.03,0.781-48.438c0-1.172,0-1.953-1.172-1.953c-7.812-0.392-15.234-1.953-22.656-2.344
				c-10.938,0-21.875-0.781-32.812-1.953c-3.516-0.392-3.516-0.392-3.516,3.125C131.258,387.854,131.258,396.838,131.258,406.213z
				 M196.883,376.135c-1.172,1.172-3.125,1.953-2.734,3.906c1.172,6.25,0,12.891,0,19.141c-0.391,14.062-0.391,28.125,0,42.188
				c0,1.172,0.391,1.953,1.562,1.953s1.953-0.392,2.344-1.562c0-0.78,0-1.562,0-2.344c-0.781-8.984-0.391-17.969,0-26.953
				c0.391-11.719-1.172-23.438-1.172-34.766C197.273,376.916,196.883,376.525,196.883,376.135z M110.945,311.291
				c-1.562,1.172-2.344,1.953-3.125,3.125c-5.469,6.641-9.766,14.453-12.5,22.656c-1.953,5.859-1.562,4.688,3.125,6.641
				c0.391,0.391,1.172,0.391,1.562,0.391c2.344,1.172,3.125,0,3.125-1.953c0.781-4.297,1.562-8.594,2.344-13.28
				C107.039,323.01,108.602,317.541,110.945,311.291z M194.93,373.01c-5.859,0-11.328,0-16.406,0
				c-8.594,0-17.188-0.781-25.781-1.953c-6.641-0.781-12.891-0.781-19.531-1.172c-0.781,0-1.953,0-1.953,1.172
				s0.781,1.562,1.953,1.562c9.766,0,19.141,1.953,28.516,1.562c8.984,0,18.359,0.78,27.344,2.344
				C191.805,377.307,193.367,376.135,194.93,373.01z M206.648,435.51c1.562,0,3.516-0.391,5.469-0.391
				c4.688-0.391,8.203-1.953,8.984-7.031v-0.391c0.781-1.562,0-1.953-1.562-1.562c-5.859,0.781-11.719,1.562-17.578,1.172
				c-1.172,0-1.953,0.392-1.953,1.953C200.008,434.338,200.789,435.51,206.648,435.51z M117.977,421.057
				c0.391,1.172-0.781,3.125,1.562,4.297c2.734,0.781,5.078,1.562,7.812,1.953c0.781,0,1.562,0,1.562-1.172
				c0.781-3.516,0-4.688-3.516-5.859c-1.562-0.391-2.734-0.78-4.297-1.562C117.586,417.541,117.586,417.541,117.977,421.057z
				 M149.617,365.979c0.391,1.953,1.172,2.345,2.734,2.734c8.203,0.781,16.406,1.562,24.219,1.953c1.172,0,2.344-0.391,2.734-1.172
				c0.391-0.391,1.172-0.781,0.781-1.562s-1.172-0.391-1.562-0.391c-5.469,0.781-11.328,0.781-16.797,0.391
				C157.82,367.15,153.914,366.369,149.617,365.979z M195.711,364.025c-4.297,0.781-7.812,1.562-11.328,2.344
				c-1.172,0.391-1.953,1.562-2.344,2.344c-0.781,1.172-0.391,1.562,0.781,1.562c2.344,0,5.078,0,7.422,0
				c0.781,0,1.562-0.392,1.953-0.781C193.367,367.932,194.148,366.369,195.711,364.025z M145.711,367.932
				c0.391,0,1.562,0.781,1.953-0.391c0.391-0.781-0.391-1.953-1.562-2.344c0,0-0.391,0-0.391-0.391
				c-1.953-0.781-3.906-1.173-5.859-1.953c-0.391,0-0.781,0-1.172,0c-0.391,0.391,0,0.78,0,1.172
				C139.852,367.541,142.195,367.932,145.711,367.932z"/>
			<path fill="none" stroke="#0FCE7C" stroke-width="0.05" stroke-miterlimit="10" d="M102.352,428.088"/>
			<path fill="#FFCE08" d="M198.445,321.057c0.391,1.172,0.391,1.562,0,2.344c-3.125,7.031-3.516,14.453-4.688,21.875
				c-0.781,3.517-1.172,7.031-2.344,10.548c-1.172,3.905-3.516,5.077-7.812,5.077c-3.516,0-5.469-1.952-6.641-5.858
				c-0.781-3.125-0.391-6.25,0-9.375c0.781-6.25,1.953-12.5,2.734-18.75c0-0.781,0-2.344,1.172-2.344
				c1.172,0,0.781,1.562,0.781,2.733c0,5.469-1.172,10.938-1.953,16.406c-0.391,3.516-1.172,6.641-0.391,10.156
				c0.391,3.125,1.562,4.297,4.297,4.297c3.906,0,5.078-0.781,5.859-3.516c2.344-8.594,3.125-17.969,5.859-26.562
				C195.711,325.744,196.102,323.4,198.445,321.057z"/>
			<path fill="#FFCE08" d="M156.258,320.275c0.391,0.781,0.391,0.781,0.391,1.172c-3.125,9.766-2.734,19.922-5.859,29.688
				c-0.391,1.172-0.781,2.344-1.172,3.516c-1.953,3.906-6.25,5.078-9.766,2.734c-1.172-0.781-1.172-1.953-1.172-2.734
				c0.391-9.375,1.172-18.358,2.344-27.733c0.391-2.345,0-4.297,0-6.642c1.953,0.781,1.953,2.345,1.953,3.906
				c0.391,3.516-0.391,7.031-0.781,10.156c-0.391,5.859-1.172,12.109-0.781,17.969c0,1.172-0.781,3.125,1.172,3.516
				c1.953,0.392,3.906,0.392,5.078-1.562c1.172-1.562,1.562-3.516,2.344-5.469c1.562-6.25,1.953-12.892,3.125-19.531
				C153.133,326.525,153.914,323.4,156.258,320.275z"/>
			<path fill="none" stroke="#0FCE7C" stroke-width="0.25" stroke-miterlimit="10" d="M131.648,406.604c0-8.594,0-17.578,0-26.172
				c0-2.344,0.391-3.516,3.125-3.125c17.188,0.781,34.375,1.953,51.562,3.125c2.344,0,3.125,1.172,3.125,3.125
				c0,2.734,0,5.859,0,8.594c0,13.281,0.391,26.953,0.391,40.234c0,2.344,0,5.078-0.391,7.422c0,1.562-0.781,1.953-1.953,1.953
				c-8.984-0.781-17.578-1.562-26.562-2.733c-8.203-0.781-16.406-1.562-25-2.345c-4.297-0.391-4.297-0.78-4.297-5.078
				C131.648,423.4,131.648,414.807,131.648,406.604L131.648,406.604z M183.211,439.025c4.297,0.391,4.297,0.391,4.297-3.906
				c0.391-13.672-0.391-27.344-0.391-40.625c0-3.516,0.391-7.031,0.391-10.156c0-1.562-0.391-2.344-2.344-2.344
				c-5.469-0.391-10.938-0.781-16.406-0.781c-10.938-0.781-22.266-1.172-33.203-1.953c-1.562,0-2.344,0-2.344,1.953
				c0,16.406,0,32.812,0,49.219c0,4.297,0,4.297,4.688,4.688c11.328,1.172,22.656,1.953,33.984,3.125L183.211,439.025z"/>
			<path opacity="0.06" fill="#01065B" enable-background="new    " d="M141.805,349.963c0,1.562,0.391,3.906,1.953,4.297
				c1.953,0.391,3.125-1.953,3.516-4.297c2.734-12.891,5.078-25.781,7.812-38.672c0-0.781,0.391-1.562,0-2.344
				c-0.391-0.782-1.562-1.172-1.953-0.781c-2.734,9.766-5.469,19.141-8.203,28.906c-0.781-3.125-0.781-6.25,0-9.375
				c0.781-4.297-1.172-1.172-1.562,1.172C142.195,335.9,141.805,343.322,141.805,349.963z"/>
			<path opacity="0.06" fill="#01065B" enable-background="new    " d="M233.602,337.854c-0.391,2.345-0.781,5.078-1.953,7.031
				s-3.125,3.906-5.859,4.297c-0.781-3.906,0.781-7.422,1.953-11.328c2.734-7.422,4.688-14.844,10.547-20.312
				c0.391-0.392,3.516-3.517,4.297-2.344c1.172,0.78-3.516,7.422-3.906,8.202C236.727,327.307,233.602,333.166,233.602,337.854z"/>
		</g>
		<path fill="#FFFFFF" stroke="#01065B" stroke-width="0.25" stroke-miterlimit="10" d="M157.82,262.463
			c-10.547,19.141,9.375,38.281,9.375,39.844c0,1.563-4.297,11.328-4.297,11.328s-32.422-4.688-35.938,0.781
			C123.055,319.494,157.82,262.463,157.82,262.463z"/>
		<g>
			<path opacity="0.47" fill="#0C0126" enable-background="new    " d="M213.289,300.744c0,0,27.344,8.984,30.859,18.359
				c3.516,9.766-1.172,21.875,2.734,31.641c3.906,9.375-4.297,23.828-1.953,29.297c8.984,17.969,2.344,67.578,2.344,67.578
				l18.359-10.547c0,0,16.406-51.562,16.017-53.125c-0.391-1.563,1.562-26.562,0-29.297c-1.562-2.735-16.017-40.625-16.017-40.625
				l-17.188-21.484L213.289,300.744z"/>
			<path opacity="0.47" fill="#0C0126" enable-background="new    " d="M163.68,315.197c-3.125,2.344-7.031,3.125-10.938,2.734
				c-3.907-0.392-7.812-1.173-11.719-1.173c-3.907,0-8.203,1.173-10.547,4.298c-1.953,3.125-1.953,7.03-3.516,10.155
				c-1.953,4.688-6.25,8.595-9.766,12.108c-3.906,3.517-7.812,7.812-8.594,12.892c-0.781,4.688,1.172,8.983,1.562,13.672
				c0.391,5.859-1.953,12.109-5.078,17.188c-1.562,2.344-12.5,39.453-12.5,39.453L70.32,413.635c0,0,10.547-22.266,9.766-29.688
				c-0.781-7.422,1.172-14.453,3.516-21.484c3.906-11.328,8.203-22.656,14.453-32.812c6.641-10.155,15.234-19.141,25.781-24.219
				s23.828-6.641,34.766-2.344c2.734,1.172,5.469,2.734,6.641,5.078C167.195,310.119,166.023,313.244,163.68,315.197z"/>
			
				<path fill="#FFFFFF" stroke="#01065B" stroke-width="0.5" stroke-linecap="round" stroke-linejoin="round" stroke-miterlimit="10" d="
				M243.367,253.869c0,0,1.172,9.375-7.422,18.75c-8.594,9.766-18.359,13.672-18.75,14.844c-0.391,1.172-1.953,11.328-1.953,11.328
				s17.969,4.688,26.953,12.5c11.329,9.375,9.766,17.969,9.766,23.438"/>
			<g>
				
					<path fill="#01065B" stroke="#01065B" stroke-width="0.75" stroke-linecap="round" stroke-linejoin="round" stroke-miterlimit="10" d="
					M254.695,440.588c0.391-2.344,0.391-5.859,0.391-8.594c0.391-5.078,0.781-10.156,0.781-15.234s0.391-10.156,0.391-15.234
					c0-10.155,0-20.312-0.391-30.469c0-5.078-0.391-10.156-0.781-15.233v-1.953v-0.781c0-0.391,0-0.78,0-0.78v-0.392v-0.392v-0.391
					v-0.391l-0.391-0.781l-0.391-0.781c-0.781-2.344-1.562-4.688-2.345-7.422c-1.172-5.078-2.344-10.156-2.344-15.234v-0.78
					c0-0.392,0-0.781,0-0.781v-1.953l0.391-1.952v-0.781c0-0.392,0-0.781,0-0.781c0-1.172-0.391-2.344-1.172-3.516
					c-0.781-1.172-1.562-1.953-2.344-2.734c-1.953-1.562-3.906-3.125-6.25-4.297c-2.344-1.172-4.297-2.344-6.641-3.516
					c-2.344-1.173-4.688-1.953-7.031-2.734c-2.343-0.781-4.688-1.562-7.031-2.344l1.562-9.375l0,0l0,0
					c0-0.392,0.391-0.781,0.781-1.172l0.391-0.392l0.391-0.392c0.781-0.78,1.172-1.172,1.953-1.952
					c1.172-1.173,2.734-2.345,4.297-3.517c2.734-2.344,5.469-4.688,8.203-7.422c0.781-0.781,1.172-1.172,1.953-1.953l0.391-0.391
					l0.391-0.391l0.781-1.172c0.781-1.562,1.953-3.125,2.344-4.688c0.781-1.562,1.172-3.517,1.562-5.078
					c0-0.78,0.391-1.953,0.391-2.733v-0.781v-0.781c0-0.391,0-0.781,0-1.172v-1.172l0.781,0.781l13.281,8.983l0,0l3.516,1.562
					c1.173,0.392,2.345,1.173,3.517,1.562c2.344,1.172,4.688,2.344,6.641,3.516c2.344,1.172,4.297,2.734,6.25,4.297l6.25,4.298
					c0.391,0.391,1.172,0.78,1.562,1.172l1.562,1.172c0.392,0.392,1.172,0.781,1.562,1.172c0.391,0.392,1.172,0.781,1.562,1.172
					c1.953,1.562,3.906,3.517,5.859,5.078c3.516,3.517,6.641,7.812,9.375,12.109c0.78,1.172,1.172,2.344,1.952,3.516l0.781,1.562
					l0.781,1.562c0.391,0.391,0.391,1.172,0.781,1.562l0.78,1.562c0.392,1.172,1.173,2.345,1.562,3.517
					c0.781,2.344,1.953,4.688,2.734,7.03c0.78,2.343,1.562,4.688,2.344,7.423c0.781,2.344,1.172,5.077,1.953,7.422
					c0.391,2.344,1.172,5.078,1.562,7.422c0.392,1.172,0.392,2.344,0.781,3.906l0.781,3.905l1.172,7.422l2.344,15.234l1.172,7.422
					c0.392,2.344,0.781,5.078,1.172,7.422l1.172,6.642l-3.516,1.172c-0.391-1.172-0.391-2.344-0.781-3.906l-0.391-1.953v-0.781
					v-0.781c-0.391-2.344-0.781-5.078-1.172-7.422l-1.172-7.422l-2.345-15.234l-1.172-7.422l-0.78-3.905
					c0-0.781-0.392-1.173-0.392-1.953c0-0.781-0.391-1.172-0.391-1.953c-0.392-2.344-0.781-5.078-1.562-7.422
					c-0.391-2.345-1.172-5.078-1.953-7.422c-1.562-4.688-3.125-9.767-4.688-14.453c-0.391-1.172-0.781-2.345-1.562-3.517
					l-0.78-1.562c-0.392-0.392-0.392-1.172-0.781-1.562l-0.781-1.562l-0.781-1.562c-0.391-1.172-1.172-2.344-1.952-3.125
					c-2.345-4.297-5.47-8.203-8.984-12.108c-1.562-1.953-3.516-3.517-5.469-5.078c-0.391-0.392-0.781-0.781-1.562-1.172
					c-0.391-0.392-1.172-0.781-1.562-1.172l-1.562-1.173c-0.391-0.391-1.172-0.78-1.562-1.172l-6.25-4.688
					c-1.953-1.562-4.297-2.734-6.25-4.297c-2.344-1.172-4.297-2.734-6.641-3.906c-1.173-0.391-2.345-1.172-3.517-1.562l-3.517-1.562
					l0,0l0,0l-13.28-9.375l0.781-0.391c0,0.391,0,0.78,0,1.562v0.781v0.781c0,0.781,0,1.953-0.391,2.734
					c-0.391,1.952-0.781,3.516-1.562,5.469c-0.781,1.562-1.562,3.125-2.734,4.688l-0.781,1.172l-0.391,0.391l-0.391,0.392
					c-0.391,0.78-1.172,1.562-1.953,1.953c-2.734,2.733-5.469,4.688-8.203,7.03c-1.562,1.172-2.734,2.345-4.297,3.517
					c-0.781,0.78-1.172,1.172-1.953,1.953l-0.391,0.391l-0.391,0.392c0.391,0,0,0.391,0,0.781l0,0l-1.953,9.375
					c2.344,0.78,4.688,1.562,7.422,2.344c2.344,0.781,4.688,1.953,7.031,2.733c2.344,1.173,4.688,1.953,7.031,3.125
					c2.343,1.173,4.297,2.734,6.25,4.298c0.781,0.78,1.953,1.952,2.734,2.733c0.781,1.172,1.172,2.344,1.172,3.905
					c0,0.392,0,0.781,0,1.173v0.78v1.953v1.953c0,0.391,0,0.781,0,0.781v0.781c0,5.078,1.172,10.156,2.344,14.844
					c0.781,2.344,1.562,4.688,2.344,7.422l0.391,0.781l0.392,0.781v0.391v0.391v0.392v0.391c0,0.392,0,0.781,0,1.173v0.78v1.953
					c0.391,5.078,0.78,10.155,0.78,15.233c0.392,10.156,0.781,20.312,0.781,30.47c0,5.077,0,10.155,0,15.233
					s-0.391,10.156-0.781,15.234c0,2.344-0.391,5.078-0.391,7.422L254.695,440.588z"/>
				<path fill="#FFFFFF" d="M255.086,442.932c3.125-26.953,1.562-71.483,0.391-89.844c-0.391-5.078-7.421-17.969-5.469-33.594
					c1.562-10.547-31.25-20.312-31.25-20.312l1.562-9.375c1.172-3.125,14.062-11.328,18.359-17.578
					c6.641-9.375,5.078-16.797,5.078-16.797l13.281,9.375l3.905,1.953c5.859,2.734,11.328,5.859,16.406,9.766l6.642,4.688
					l0.391,0.392c9.767,6.641,17.188,15.625,22.267,26.172l0,0c6.25,12.891,10.547,26.953,12.891,41.406l5.469,34.766
					c0.392,2.734,0.781,5.469,1.562,8.203c0.391,1.953,0.78,4.688,1.562,8.203l-74.219,43.75"/>
			</g>
			<g>
				<path fill="#FFFFFF" d="M251.961,264.416c0,0-7.422,37.891-36.719,34.375"/>
				<path fill="#01065B" d="M251.961,264.416c-0.391,2.344-1.172,4.688-1.562,6.641c-0.781,2.344-1.562,4.297-2.344,6.641
					c-0.781,1.953-1.953,4.298-3.125,6.25c-1.172,1.953-2.734,3.906-4.297,5.859c-0.781,0.781-1.562,1.953-2.344,2.734
					c-0.782,0.781-1.562,1.562-2.734,2.344c-0.781,0.781-1.953,1.562-3.125,1.953c-0.391,0.391-1.172,0.391-1.562,0.781
					c-0.39,0.39-1.172,0.391-1.562,0.781c-2.344,0.781-4.688,1.172-7.031,1.562h-0.391h-0.391c-0.391,0-0.781,0-0.781,0
					c-0.781,0-1.172,0-1.953,0c-1.172,0-2.344-0.392-3.516-0.78v-0.392c1.172,0,2.344,0,3.516-0.392
					c1.172,0,2.344-0.391,3.516-0.391c2.344-0.391,4.297-1.172,6.25-1.953c1.172-0.391,1.953-0.781,3.125-1.562
					c0.781-0.392,1.953-1.173,2.734-1.562c0.781-0.781,1.953-1.173,2.734-1.953c0.781-0.781,1.562-1.562,2.344-2.345
					c1.562-1.562,2.734-3.516,4.297-5.469c1.172-1.953,2.344-3.906,3.516-5.858C249.227,273.4,250.789,269.104,251.961,264.416
					L251.961,264.416z"/>
			</g>
		</g>
		<g>
			<path fill="#FFFFFF" d="M105.086,345.666c3.906-3.125,14.453-13.281,19.141-28.125c3.125-10.156,36.719-5.078,36.719-5.078
				l2.344-9.375c0.391-3.516-7.812-16.016-9.375-23.828c-1.953-10.938,2.344-17.188,2.344-17.188l-6.641-0.781
				c-3.516,0.781-10.938,4.297-14.062,5.469l-4.297,1.562c-2.344,1.172-5.078,1.953-7.812,2.344l0,0
				c-6.641,1.562-13.281,4.297-18.75,8.203l0,0c-8.594,5.859-16.406,12.891-22.656,20.703l-3.125,3.516
				c-0.781,0.781-1.172,1.562-1.953,2.344l0,0c-5.078,5.859-8.203,13.672-10.547,21.094l-19.141,57.422l-2.344,16.017l34.766,19.922
				h1.562l0.391-3.516l0.781-12.892l4.688-17.969l1.172-7.422l3.516-8.984l0.781-5.078l5.469-10.938L105.086,345.666z"/>
			<path fill="#01065B" stroke="#01065B" stroke-width="0.25" stroke-miterlimit="10" d="M80.086,419.885l1.562-8.984
				c1.562-9.375,3.125-19.141,5.469-28.125c1.172-4.688,2.734-9.375,4.297-13.672c1.562-4.688,3.516-8.983,5.859-13.28
				c1.172-1.953,2.344-4.298,3.906-6.25c0.781-0.781,1.562-1.953,2.344-2.734c0.391-0.391,0.781-0.78,1.172-1.172
				c0.391-0.392,0.781-0.781,1.172-1.172c3.516-3.125,6.641-6.642,9.375-10.547c2.734-3.906,5.078-8.203,7.031-12.5
				c0.391-0.392,0.391-1.173,0.781-1.562l0.391-0.78l0.391-0.781c0-0.391,0-0.391,0.391-0.781c0-0.391,0.391-0.391,0.391-0.781
				c0.391-0.391,0.781-1.172,1.172-1.562c0.781-0.781,1.953-1.562,3.125-1.953c1.172-0.392,2.344-0.781,3.516-1.172
				c2.344-0.392,4.688-0.781,7.031-0.781c2.343,0,4.688,0,7.031,0c2.343,0,4.688,0.392,7.031,0.392c1.172,0,2.344,0.391,3.516,0.391
				l1.953,0.391h0.781h0.391h0.391l0,0l0,0c0.781-3.125,1.562-6.25,2.344-9.375l0,0c0-0.391,0-0.781,0-1.172
				s-0.391-0.781-0.391-1.172c-0.391-0.781-0.781-1.562-1.172-2.344c-0.781-1.562-1.562-3.125-2.344-4.688
				c-1.562-3.125-3.125-6.641-4.688-9.766c-0.391-0.781-0.781-1.562-0.781-2.734c0-0.391-0.391-0.78-0.391-1.172
				s0-0.781-0.391-1.172c0-0.781-0.391-1.953-0.391-2.734c0-0.78,0-1.952,0-2.733c0-1.953,0.391-3.517,0.781-5.469
				c0.391-0.781,0.391-1.953,0.781-2.734c0-0.391,0.391-0.781,0.391-1.172c0-0.392,0.391-0.392,0.391-0.781
				c0-0.391,0.391-0.391,0.391-0.781l0.391,1.172l-6.641-0.781h0.391c-1.172,0.392-2.344,0.781-3.125,1.172
				c-1.172,0.392-2.344,0.781-3.125,1.173c-2.344,0.78-4.297,1.952-6.641,2.733c-0.391,0-0.391,0.392-0.781,0.392l-0.781,0.391
				l-1.562,0.781h-1.562c-0.391,0.391-1.172,0.391-1.562,0.78c-1.172,0.392-2.344,0.781-3.516,1.173
				c-0.781,0-1.172,0.391-1.953,0.391h-1.562c-4.688,1.172-8.984,2.734-13.281,5.078c-1.172,0.392-1.953,1.172-3.125,1.953
				c-0.391,0.391-1.172,0.78-1.562,0.78l-1.562,1.173c-1.953,1.172-3.906,2.733-5.859,4.297c-3.516,3.125-7.031,6.25-10.547,9.766
				c-1.562,1.562-3.125,3.517-4.688,5.47l-2.344,2.733c-0.781,0.781-1.562,1.953-2.344,2.734l-1.172,1.172
				c-0.391,0.391-0.781,0.78-1.172,1.172c-0.781,0.781-1.562,1.953-1.953,2.733c-0.781,0.781-1.172,1.953-1.953,3.125
				c-0.781,1.173-1.172,1.953-1.562,3.125c-0.39,1.173-1.172,1.953-1.562,3.125c-0.39,1.173-0.781,2.345-1.172,3.125l-0.391,0.781
				l-0.391,0.781c0,0.391-0.391,1.172-0.391,1.562l-1.172,3.516l-8.203,27.734c-2.734,9.375-5.469,18.358-8.203,27.733
				l-3.906,14.062l-1.953-0.781c1.172-4.688,2.734-9.375,3.906-13.672C51.57,366.76,57.039,348.4,62.508,329.65l1.172-3.517
				c0-0.391,0.391-1.172,0.391-1.562l0.391-0.781l0.391-0.781c0.781-2.344,1.953-4.688,2.734-6.641
				c0.391-1.172,1.172-2.344,1.953-3.125c0.781-1.172,1.172-1.953,1.953-3.125c0.781-1.172,1.562-1.953,2.344-3.125
				c0.391-0.391,0.781-0.781,1.172-1.562l1.172-1.172c0.781-0.781,1.562-1.953,2.344-2.734l2.344-2.733
				c1.562-1.953,3.125-3.517,4.688-5.47c3.516-3.516,7.031-6.641,10.547-9.766c1.953-1.562,3.906-3.125,5.859-4.297l1.562-1.172
				c0.391-0.391,1.172-0.781,1.562-1.172c1.172-0.781,1.953-1.172,3.125-1.953c4.297-2.344,8.984-3.906,13.672-5.078l1.562-0.391
				c0.391,0,1.172-0.391,1.562-0.391c1.172-0.392,2.344-0.781,3.516-1.172c0.391,0,1.172-0.392,1.562-0.781l1.562-0.781l1.562-0.781
				l0.781-0.391l0.781-0.391c2.344-0.781,4.297-1.953,6.641-2.734c1.172-0.391,2.344-0.781,3.516-1.172
				c1.172-0.392,2.344-0.781,3.516-1.172l0,0l0,0l6.641,0.78h1.172l-0.781,1.173l-0.391,0.391l-0.391,0.391
				c-0.391,0.391-0.391,0.781-0.391,1.172c-0.391,0.781-0.781,1.562-0.781,2.344c-0.391,1.562-0.781,3.517-0.781,5.078
				c0,0.781,0,1.953,0,2.734s0,1.953,0.391,2.734c0,0.391,0,0.781,0,1.172s0,0.781,0.391,1.172c0.391,0.781,0.391,1.562,0.781,2.734
				c1.172,3.516,2.734,6.641,4.297,9.766c0.781,1.562,1.562,3.125,2.344,5.078c0.391,0.781,0.781,1.562,1.172,2.734
				c0,0.391,0.391,0.78,0.391,1.172c0,0.391,0,0.78,0,1.562l0,0l0,0c-0.781,3.125-1.562,6.25-2.734,9.375l0,0l0,0h-0.391h-0.391
				h-0.781l-1.953-0.392c-1.172,0-2.344-0.391-3.516-0.391c-2.344-0.391-4.688-0.391-7.031-0.391c-2.343,0-4.688,0-7.031,0
				c-2.343,0-4.688,0.391-7.031,0.781c-1.172,0.391-2.344,0.781-3.516,1.172c-1.172,0.391-1.953,1.172-3.125,1.953
				c-0.391,0.391-0.781,0.781-1.172,1.172c0,0.391-0.391,0.391-0.391,0.781c0,0.39,0,0.391-0.391,0.78l-0.391,0.781l-0.391,0.78
				c0,0.392-0.391,1.173-0.781,1.562c-1.562,4.688-3.906,8.594-7.031,12.5c-2.734,3.906-5.859,7.422-9.375,10.938
				c-0.391,0.392-0.781,0.781-1.172,1.173c-0.391,0.391-0.781,0.78-1.172,1.172c-0.781,0.78-1.562,1.562-2.344,2.733
				c-1.562,1.953-2.734,3.906-3.906,5.859c-2.344,4.297-3.906,8.594-5.469,13.281s-2.734,8.984-3.906,13.672
				c-1.172,4.688-1.953,9.375-3.125,14.062c-0.781,4.688-1.562,9.375-2.344,14.062c-0.391,2.733-0.781,5.858-1.172,8.595h-0.391
				L80.086,419.885L80.086,419.885z"/>
		</g>
		<g>
			<path fill="#FFFFFF" d="M145.32,266.76c0,0-12.5,36.328,15.625,45.312"/>
			<path fill="#01065B" d="M145.32,266.76c-1.172,4.297-1.953,8.594-2.344,13.281c0,2.344,0,4.297,0,6.641s0.391,4.297,1.172,6.642
				c0.391,1.172,0.781,1.952,1.172,3.125c0.391,1.172,0.781,1.952,1.172,3.125c0.391,0.78,1.172,1.952,1.562,2.733
				c0.391,0.392,0.781,0.781,0.781,1.172l0.391,0.781l1.172,0.391c1.562,1.562,3.125,3.125,4.688,4.298
				c1.953,1.172,3.906,2.344,5.859,3.125v0.391c-1.172-0.391-2.344-0.391-3.125-0.78c-0.391,0-1.172-0.392-1.562-0.781
				c-0.391,0-0.391-0.392-0.781-0.392s-0.391-0.391-0.781-0.391l-0.781-0.392c-0.391,0-0.391-0.391-0.781-0.391
				c-0.39,0-0.391-0.391-0.781-0.391s-0.391-0.391-0.781-0.391c-0.781-0.781-1.953-1.562-2.734-2.345
				c-1.562-1.562-3.125-3.516-3.906-5.858c-0.781-1.953-1.562-4.297-1.953-6.642c-0.781-4.688-1.172-8.983-0.391-13.672
				c0.391-2.344,0.781-4.297,1.172-6.642C143.758,271.057,144.539,269.104,145.32,266.76L145.32,266.76z"/>
		</g>
		<g>
			
				<polygon fill="#9393B5" stroke="#01065B" stroke-width="0.25" stroke-linecap="round" stroke-linejoin="round" stroke-miterlimit="10" points="
				210.945,196.838 221.102,210.9 220.32,234.338 198.445,254.65 215.633,225.354 			"/>
			
				<polygon fill="#F2F2F2" stroke="#01065B" stroke-width="0.5" stroke-linecap="round" stroke-linejoin="round" stroke-miterlimit="10" points="
				215.633,225.354 210.945,196.838 209.773,181.213 187.898,169.494 153.523,169.494 139.07,181.994 135.164,228.869 
				158.211,250.744 200.789,250.744 			"/>
			
				<line fill="none" stroke="#01065B" stroke-width="0.25" stroke-linecap="round" stroke-linejoin="round" stroke-miterlimit="10" x1="136.727" y1="219.885" x2="214.461" y2="219.494"/>
			
				<polygon fill="#F2F2F2" stroke="#01065B" stroke-width="0.25" stroke-linecap="round" stroke-linejoin="round" stroke-miterlimit="10" points="
				139.07,231.994 210.945,231.604 198.445,254.65 160.555,254.65 			"/>
			
				<polygon fill="#0FCE7C" stroke="#01065B" stroke-width="0.25" stroke-linecap="round" stroke-linejoin="round" stroke-miterlimit="10" points="
				163.289,206.994 147.273,232.385 179.305,231.994 			"/>
			
				<line fill="none" stroke="#E6E7E8" stroke-width="0.25" stroke-linecap="round" stroke-linejoin="round" stroke-miterlimit="10" x1="151.18" y1="231.604" x2="151.57" y2="226.916"/>
			
				<polygon fill="none" stroke="#E6E7E8" stroke-width="0.25" stroke-linecap="round" stroke-linejoin="round" stroke-miterlimit="10" points="
				148.445,231.994 163.289,208.166 178.523,231.604 			"/>
			
				<line fill="none" stroke="#E6E7E8" stroke-width="0.25" stroke-linecap="round" stroke-linejoin="round" stroke-miterlimit="10" x1="157.039" y1="231.994" x2="158.602" y2="215.588"/>
			
				<line fill="none" stroke="#E6E7E8" stroke-width="0.25" stroke-linecap="round" stroke-linejoin="round" stroke-miterlimit="10" x1="162.117" y1="231.994" x2="163.289" y2="208.166"/>
			
				<line fill="none" stroke="#E6E7E8" stroke-width="0.25" stroke-linecap="round" stroke-linejoin="round" stroke-miterlimit="10" x1="168.758" y1="231.994" x2="169.148" y2="217.15"/>
			
				<line fill="none" stroke="#E6E7E8" stroke-width="0.25" stroke-linecap="round" stroke-linejoin="round" stroke-miterlimit="10" x1="172.664" y1="231.994" x2="173.055" y2="223.01"/>
			
				<polygon fill="#0FCE7C" stroke="#01065B" stroke-width="0.25" stroke-linecap="round" stroke-linejoin="round" stroke-miterlimit="10" points="
				170.711,248.4 179.305,231.994 147.273,232.385 168.758,248.01 			"/>
			<polygon fill="none" stroke="#E6E7E8" stroke-width="0.25" stroke-miterlimit="10" points="149.617,233.166 168.758,247.229 
				169.93,247.229 177.742,233.166 			"/>
			
				<path fill="none" stroke="#01065B" stroke-width="0.25" stroke-linecap="round" stroke-linejoin="round" stroke-miterlimit="10" d="
				M157.82,237.463c0.781-0.781,1.953-1.172,3.125-0.391c0.781,0.391,2.344,0.781,3.125,0c0.391,0,0.391-0.391,0.781-0.391
				c0.781,0,1.172,0.391,1.562,0.781c1.172,0.391,2.344-1.562,3.516-0.781c0.391,0,0.781,0.781,1.172,0.781
				c1.172,0.391,1.953-1.172,2.734-0.781"/>
			
				<line fill="none" stroke="#01065B" stroke-width="0.25" stroke-linecap="round" stroke-linejoin="round" stroke-miterlimit="10" x1="175.008" y1="201.916" x2="192.195" y2="219.885"/>
			
				<line fill="none" stroke="#01065B" stroke-width="0.25" stroke-linecap="round" stroke-linejoin="round" stroke-miterlimit="10" x1="158.992" y1="205.822" x2="151.18" y2="217.541"/>
			<g>
				<path id="Shape_24_" fill="#0FCE7C" d="M158.602,202.307c-6.641-3.125-11.328-9.766-11.328-17.188
					c0-4.688,1.562-8.594,4.297-12.109c3.516-4.297,25.391-4.297,28.906-0.391c3.125,3.516,4.688,7.812,4.688,12.5
					c0,7.812-4.688,14.453-11.328,17.188"/>
				<path id="Shape_23_" fill="#01065B" d="M157.43,203.869c-0.391,0-0.391,0-0.781,0c-7.422-3.516-12.109-10.938-12.109-19.141
					c0-3.906,1.172-8.203,3.516-11.328c0.391-0.781,1.172-0.781,1.953-0.391c0.781,0.39,0.781,1.172,0.391,1.953
					c-1.953,3.125-2.734,6.25-2.734,9.766c0,7.031,3.906,13.281,10.547,16.406c0.781,0.391,0.781,1.172,0.781,1.953
					C158.602,203.479,158.211,203.869,157.43,203.869"/>
				<path id="Shape_20_" fill="#01065B" d="M175.008,203.869c-0.391,0-1.172-0.391-1.172-0.781c-0.391-0.781,0-1.562,0.781-1.953
					c6.25-3.125,10.156-9.375,10.156-16.406c0-3.906-1.172-7.812-3.516-10.938c-0.391-0.781-0.391-1.562,0.391-1.953
					c0.782-0.391,1.562-0.391,1.953,0.391c2.734,3.516,3.906,7.812,3.906,12.5c0,8.203-4.297,15.234-11.719,19.141
					C175.398,203.479,175.398,203.869,175.008,203.869"/>
				<path id="Shape_19_" fill="#FFFFFF" d="M176.57,178.869c0,2.734-2.344,5.078-5.078,5.078c-2.734,0-5.078-2.344-5.078-5.078
					c0-2.734,2.344-5.078,5.078-5.078C174.226,173.791,176.57,176.135,176.57,178.869"/>
				<path id="Shape_18_" fill="#FFFFFF" d="M180.086,186.291c0,1.172-0.781,1.953-1.953,1.953c-1.172,0-1.953-0.781-1.953-1.953
					s0.781-1.953,1.953-1.953C178.914,184.338,180.086,185.119,180.086,186.291"/>
			</g>
			
				<line fill="none" stroke="#01065B" stroke-width="0.25" stroke-linecap="round" stroke-linejoin="round" stroke-miterlimit="10" x1="158.992" y1="203.088" x2="136.727" y2="219.885"/>
			
				<line fill="none" stroke="#01065B" stroke-width="0.25" stroke-linecap="round" stroke-linejoin="round" stroke-miterlimit="10" x1="166.805" y1="205.432" x2="174.227" y2="217.15"/>
			
				<polygon fill="#9393B5" stroke="#01065B" stroke-width="0.25" stroke-linecap="round" stroke-linejoin="round" stroke-miterlimit="10" points="
				221.102,210.9 223.445,197.619 209.773,180.822 212.508,202.307 			"/>
		</g>
		<g>
			<path fill="#FFFFFF" d="M140.633,167.15c3.125-5.469,3.125-17.578,6.25-23.047c10.156-19.141,21.484-20.312,37.109-23.047
				c13.672-2.734,28.906,0.781,40.234,8.984c3.906,2.734,7.422,6.25,10.156,10.156c5.859,8.594,9.766,22.266,10.547,29.297
				c1.562,22.656-5.078,14.844-2.344,24.609c1.953,6.641,8.595,18.359,11.72,24.609c5.077,10.156,7.03,22.656,10.547,33.594
				c0.391,1.562,1.953,2.734,0.78,3.516c-1.172,1.173-0.391-1.172-1.952-1.562c-6.642-1.952-14.062-4.688-16.798-10.938
				c-1.172-2.734-3.906-2.734-4.688-5.469c-2.344-7.422-6.25-16.406-10.156-23.047c-4.688-7.812-6.641-16.797-11.719-24.219
				c-5.469-8.594-14.062-14.844-23.828-17.188c-9.766-2.344-28.906,4.297-28.906,4.297l-5.469,1.172l-9.766-1.562l-9.766-1.953
				l-8.984,1.953l1.953-3.516l4.688-4.297L140.633,167.15z"/>
			<path fill="#F2F2F2" d="M232.43,183.557c0.391-8.984-0.781-18.359-2.734-27.344c-0.781-3.516-1.953-7.031-3.906-9.766
				c-1.953-2.344-4.688-4.297-7.812-5.469c-5.078-2.344-10.156-4.297-15.234-7.422c-4.688-3.125-8.984-7.031-10.547-12.5
				c0,0,7.031-0.781,10.938,0c3.907,0.781,18.75,3.906,25.391,11.719s14.453,18.359,14.844,25.391s1.172,21.094,0.391,26.172
				c-0.781,5.469-1.953,9.375-1.953,9.375l23.829,63.281l-5.859-3.906l-5.078-3.906c-7.422-21.094-14.844-41.797-22.656-62.891
				L232.43,183.557z"/>
			
				<path fill="none" stroke="#01065B" stroke-width="0.5" stroke-linecap="round" stroke-linejoin="round" stroke-miterlimit="10" d="
				M166.023,177.307c0.391-1.562,0.781-3.516,1.172-5.078c1.562-6.25,3.516-12.5,5.469-18.75c1.953-6.641,3.906-13.672,5.859-20.312
				c0.781-2.344,1.562-5.078,2.734-7.031c1.953-3.516,5.078-4.688,8.984-5.859c1.953-0.391,3.516,0,5.469,0.391
				c3.516,0,6.641,0.391,10.156,1.172c6.25,1.172,12.5,3.516,17.969,7.422c4.297,3.125,7.812,6.641,10.938,10.547
				c5.078,7.031,7.812,14.453,9.375,23.047c0.391,3.125,0.781,6.641,0.781,9.766c0.391,5.469-0.391,10.938-1.172,16.406
				c-0.391,1.953-0.781,3.906-1.172,5.859"/>
			
				<path fill="none" stroke="#01065B" stroke-width="0.5" stroke-linecap="round" stroke-linejoin="round" stroke-miterlimit="10" d="
				M191.023,119.885c-0.781,0-1.562-0.391-2.344-0.391c-3.906-0.391-7.812,0.391-11.328,2.344c-1.562,0.781-2.734,2.734-3.516,4.688
				c-3.125,6.25-5.469,12.891-7.422,19.531c-2.344,7.031-4.297,14.062-6.641,21.094c-1.172,3.516-2.344,6.641-3.516,10.156
				c1.562,0.391,3.516,1.172,5.469,1.953c0.781,0,1.562,0,1.953,0c1.172-0.391,1.953-0.781,3.125-1.172"/>
			
				<path fill="none" stroke="#01065B" stroke-width="0.5" stroke-linecap="round" stroke-linejoin="round" stroke-miterlimit="10" d="
				M167.977,176.525c0-0.781,1.172-6.25,1.172-6.641c0.391-0.781,0.781-1.172,1.172-1.562c1.953-1.172,3.906-1.953,5.859-2.734
				c4.297-2.344,8.984-2.734,14.062-2.344c5.469,0.391,10.938,1.953,16.406,3.906c5.078,1.953,9.766,5.078,14.062,8.594
				c4.688,3.906,9.375,7.812,14.062,12.109c2.344,2.344,4.688,4.297,6.641,6.641c0.391,0.391,0.781,0.781,1.172,1.562
				c3.516,8.984,7.031,17.969,10.547,27.344c3.517,9.375,7.031,18.75,10.548,28.516c0.78,1.953,1.172,4.297,1.952,6.641
				c-0.78,0.781-1.172,1.562-1.952,2.344c-0.392,0.781-4.688,4.298-5.47,3.906"/>
			
				<path fill="none" stroke="#01065B" stroke-width="0.5" stroke-linecap="round" stroke-linejoin="round" stroke-miterlimit="10" d="
				M176.961,121.838c-1.953,0.391-3.516,0.391-5.078,0.781c-4.688,1.562-8.594,3.516-12.5,6.641
				c-3.906,3.125-7.422,7.422-10.156,11.719c-4.297,7.031-6.641,14.844-8.203,23.047c0,0.781-0.391,1.953-0.391,3.125
				c0,1.562-0.391,2.734-1.562,3.906c-2.344,2.344-4.297,4.297-6.641,6.641c-0.391,0.391-1.953,2.734-2.344,3.125"/>
			
				<path fill="none" stroke="#01065B" stroke-width="0.5" stroke-linecap="round" stroke-linejoin="round" stroke-miterlimit="10" d="
				M153.914,262.072c-0.391,0-0.781,0-1.172,0c-5.078-1.172-10.547-1.953-15.625-3.906c-3.906-1.562-7.422-3.125-10.547-5.078
				c-3.125-1.562-5.859-3.516-8.203-5.859c-1.953-1.953-3.906-3.906-5.469-6.25c0.781-3.125,1.562-5.859,2.344-8.594
				c2.734-9.766,5.078-19.531,7.812-28.906c1.953-6.641,3.906-13.281,5.859-19.922c0.781-2.344,1.562-4.297,3.906-5.469
				c3.516-1.953,7.422-2.734,11.719-2.344l4.297,1.172c5.469,0,10.156,1.953,14.844,3.906c0.781,0,1.172-0.391,1.953-0.391
				l3.125-3.125c0.391,0,1.172,0,1.562,0c3.906-1.172,7.812-2.344,11.719-3.516c3.125-0.781,6.25-1.172,9.375-0.781
				c4.297,0.781,8.594,2.344,12.109,4.297c5.078,2.734,9.375,6.25,12.891,10.938c3.906,5.078,7.422,10.156,10.156,16.016
				c2.344,5.078,4.688,10.156,7.031,15.234c2.734,6.25,5.078,12.5,7.812,18.75c0.781,1.562,1.172,3.125,2.344,4.297
				c1.953,1.953,3.906,3.516,5.859,5.078c2.344,1.562,5.079,3.125,7.812,4.297c2.734,1.562,5.859,3.125,7.423,5.859"/>
			
				<path fill="none" stroke="#01065B" stroke-width="0.5" stroke-linecap="round" stroke-linejoin="round" stroke-miterlimit="10" d="
				M193.367,120.275c-1.172,0.391-2.344,0.781-3.906,1.172c-4.297,1.953-7.422,5.078-8.594,9.375
				c-1.562,4.297-2.734,8.594-3.906,12.891s-2.344,8.203-3.516,12.5c-1.172,3.516-1.953,7.031-3.125,10.547c0,0.391,0,0.781,0,1.172
				"/>
			
				<path fill="none" stroke="#01065B" stroke-width="0.5" stroke-linecap="round" stroke-linejoin="round" stroke-miterlimit="10" d="
				M159.383,169.494c-3.906-1.172-7.812-1.172-11.719-1.172c-1.562,0-3.125,0.391-5.078,0.781"/>
			
				<path fill="none" stroke="#01065B" stroke-width="0.05" stroke-linecap="round" stroke-linejoin="round" stroke-miterlimit="10" d="
				M156.258,185.9"/>
			
				<path fill="none" stroke="#01065B" stroke-width="0.05" stroke-linecap="round" stroke-linejoin="round" stroke-miterlimit="10" d="
				M157.43,262.463c-1.172,0-1.953-0.391-3.125-0.391"/>
		</g>
		<path opacity="0.06" fill="#01065B" enable-background="new    " d="M200.789,348.791c-0.391,1.172-0.391,2.344,0,3.125
			c0.781,1.562,2.734,1.562,4.688,1.562c3.125,0,5.859-0.392,8.984-1.172c2.734-0.781,5.469-2.734,7.031-5.078
			c1.562-2.734,1.172-6.25,1.562-9.375c0-8.595,2.344-16.797,6.25-24.22c0.781-1.562,1.953-3.905,0.391-5.077
			c-0.781-0.781-1.562-0.781-2.344-1.173c-2.734-0.391-10.547-3.516-12.891-1.562c-2.734,1.953-3.906,10.156-5.078,13.281
			c-1.562,5.078-3.125,9.766-4.297,14.844C203.523,338.635,200.789,344.494,200.789,348.791z"/>
		<path opacity="0.06" fill="#01065B" enable-background="new    " d="M180.867,349.963c0,1.172,0,2.734,0.781,3.906
			c0.781,1.172,1.953,1.953,3.125,1.953c1.172-0.391,1.953-1.172,2.344-1.953c4.688-7.031,3.906-16.016,5.859-24.219
			c1.562-5.859,4.688-11.328,7.422-16.797c2.734-5.078,5.469-9.767,8.594-14.845c-3.906-0.391-7.812-1.172-11.719-1.562
			c-1.953-0.391-4.297-0.391-5.469,0.781c-0.781,0.78-1.172,2.344-1.562,3.516C186.336,316.369,180.867,333.166,180.867,349.963z"/>
		<path opacity="0.06" fill="#01065B" enable-background="new    " d="M230.867,360.51c1.562,13.672-1.562,26.953-4.297,40.234
			c-1.562,7.422-3.906,15.625-10.156,19.922c3.125-7.422,5.859-15.234,5.859-23.438c0-8.205-4.297-16.797-11.719-19.922
			c-1.953-0.781-4.297-1.173-5.859-2.345c-2.344-1.562-4.297-5.078-1.953-7.422c1.562-1.562,3.906-0.781,5.859-1.172
			C209.773,366.369,230.867,360.9,230.867,360.51z"/>
		<path opacity="0.06" fill="#01065B" enable-background="new    " d="M156.258,354.65c-0.391,1.953-0.391,3.906,0.781,5.469
			c1.562,1.953,4.688,1.953,7.031,1.953c1.172,0,2.344,0,3.125-0.781c0.781-0.781,0.781-1.953,0.781-3.125
			c0-22.266,5.078-44.141,14.453-64.453c-1.562-0.391-3.125,0.391-4.297,1.562c-1.172,1.17-1.953,2.733-2.344,4.297
			c-6.641,17.188-10.547,35.156-10.938,53.516c0,1.172,0,2.734-1.172,3.906c-1.562,1.172-3.516,0-4.297-1.562
			c-0.781-1.172,0-3.516-1.562-4.297C157.43,352.307,156.648,353.479,156.258,354.65z"/>
		<path opacity="0.06" fill="#01065B" enable-background="new    " d="M118.367,360.9c0.391,9.375-5.469,17.969-6.641,27.733
			c-1.172,10.938,3.906,22.267,13.281,28.125c-3.906-6.25-7.812-12.5-8.203-19.922c-0.391-5.469,0.781-10.938,2.344-16.017
			c0.781-3.125,1.562-6.25,3.516-8.983c1.562-2.733,4.688-5.078,7.812-5.078c1.172,0,2.344,0,3.516-0.78
			c3.125-2.734-2.344-4.688-4.297-4.297C125.008,361.682,122.664,361.682,118.367,360.9z"/>
		<path opacity="0.06" fill="#01065B" enable-background="new    " d="M151.18,383.557c8.203,0,16.406,0,25,0
			c2.344,0,5.078,0,6.641,1.953c1.172,1.562,1.562,3.906,1.562,5.859c0.391,10.547,0.391,20.703,0.781,31.25
			c-5.078-7.031,0-17.578-5.078-24.609c-2.734-3.906-7.812-5.078-12.109-5.078s-9.375,0.781-13.672,0.781
			c-4.297,0-9.375-1.953-12.109-5.859c4.297-2.344,9.375-3.516,14.062-3.905"/>
		
			<path fill="#FFFFFF" stroke="#0E2947" stroke-width="0.25" stroke-linecap="round" stroke-linejoin="round" stroke-miterlimit="10" d="
			M162.898,367.15c0,0,30.078-3.517,72.266-16.406c0,0-37.109,8.203-72.266-4.688c0,0-19.531,9.375-48.828,1.172
			C114.07,347.229,117.586,358.166,162.898,367.15z"/>
		<path id="Shape_2_" fill="#25E899" d="M173.836,354.26c0-5.859-4.688-10.547-10.547-10.547s-10.547,4.688-10.547,10.547
			s4.688,10.547,10.547,10.547C168.758,364.807,173.836,360.119,173.836,354.26"/>
		<path id="Shape_1_" fill="#0E2947" d="M162.898,367.15c-7.031,0-12.891-5.859-12.891-12.892s5.859-12.891,12.891-12.891
			c7.032,0,12.891,5.858,12.891,12.891S170.32,367.15,162.898,367.15 M162.898,346.057c-4.688,0-8.203,3.906-8.203,8.203
			c0,4.688,3.906,8.203,8.203,8.203c4.688,0,8.203-3.906,8.203-8.203C171.492,349.572,167.586,346.057,162.898,346.057"/>
		<g>
			<path fill="none" stroke="#01065B" stroke-width="0.25" stroke-miterlimit="10" d="M163.289,302.307c1.172,0,2.344,0,3.516,0"/>
			<path fill="#01065B" d="M162.898,309.729c0.391-1.562,0.781-3.125,1.172-4.688c0.391,0.391,1.172-0.391,1.562,0
				c0.391,0,0.391,0.391,0.391,0.781c0,1.562-0.781,3.516-1.562,5.078c0,0,0,0.391-0.391,0.391h-0.391
				c-0.391-0.391-0.781-0.391-1.172-0.781C162.508,310.51,162.898,310.119,162.898,309.729z"/>
			<path fill="#01065B" d="M216.805,292.15c0-0.392,0.391-0.392,0.391-0.781c0.391,0,0.781,0.391,1.172,0.391
				c-0.391,1.953-0.781,4.297-1.172,6.25c-0.391,0-0.781,0-1.172-0.391s-0.391-0.391-0.781-0.781c0-0.391,0-0.391,0-0.781
				C216.414,295.275,216.805,293.322,216.805,292.15z"/>
			<path opacity="0.47" fill="#0C0126" enable-background="new    " d="M164.852,314.416c0,0,43.359,3.906,51.562-14.453
				c0,0,0.391-4.297-1.562-2.734c-18.75,14.453-30.078,14.062-49.219,13.281L164.852,314.416z"/>
			<g>
				<g>
					<g>
						<defs>
							<path id="SVGID_1_" d="M164.852,305.041c0,0,44.141-5.469,52.734-12.891v5.469c0,0-1.953,11.719-23.438,14.844
								s-29.688-1.172-29.688-1.172L164.852,305.041z"/>
						</defs>
						<clipPath id="SVGID_2_">
							<use xlink:href="#SVGID_1_"  overflow="visible"/>
						</clipPath>
						<g clip-path="url(#SVGID_2_)">
							<path fill="#BC004D" d="M161.336,305.432v-0.391l3.516,0.781v1.562h1.172l0.391-1.562l3.906,0.391v1.562h1.953v-1.172h5.078
								v1.562h1.562v-1.562l7.812-1.172l0.781,1.172l3.125-1.172l-0.391-1.562l7.812-2.734l0.391,1.172l3.125-1.172v-1.562
								l7.812-3.125l0.781,1.172l2.734-0.781v-1.562l6.641-2.344l1.953,3.905l-6.25,3.517h-0.781l-0.391-1.172l-3.125,1.172v1.172
								l-8.203,3.516l-0.781-1.172l-2.734,0.781l0.391,1.953l-8.203,2.344l-0.781-1.172l-2.734,0.391l0.391,1.562l-8.203,1.172
								l-0.391-1.172l-1.953,0.391v1.562l-4.688,0.391v-1.562h-1.953v1.172h-3.906l-0.391-1.953l-1.562-0.391v1.172l-3.516-1.562
								v-1.562l-1.172-0.78v-0.781L161.336,305.432C161.336,305.822,161.336,305.822,161.336,305.432z"/>
							<path fill="#F9006C" d="M161.336,306.213v-0.391l3.516,0.781v1.562h1.172l0.391-1.562l3.906,0.391v1.562h1.953v-1.173h5.078
								v1.562h1.562v-1.562l7.812-1.172l0.781,1.172l3.125-1.172l-0.391-1.562l7.812-2.734l0.391,1.172l3.125-1.172v-1.562
								l7.812-3.125l0.781,1.172l2.734-0.78v-1.562l6.641-2.345l1.953,3.906l-6.25,3.516h-0.781l-0.391-1.172l-3.125,1.172v1.173
								l-8.203,3.516l-0.781-1.172h-3.125l0.391,1.953l-8.203,2.344l-0.781-1.172l-2.734,0.391l0.391,1.562l-8.203,1.172
								l-0.391-1.172l-1.953,0.391v1.562l-4.688,0.78V310.9h-1.953v1.172h-3.906l-0.391-1.953l-1.562-0.391v1.172l-3.516-1.562
								v-1.562l-1.172-0.78v-0.781L161.336,306.213C161.336,306.604,161.336,306.604,161.336,306.213z"/>
							<polygon fill="#FFFFFF" points="214.852,296.447 214.852,298.4 219.93,296.057 219.539,294.104 							"/>
							<polygon fill="#FFFFFF" points="203.523,300.744 208.602,298.791 208.992,300.744 203.523,303.088 							"/>
							<polygon fill="#FFFFFF" points="196.883,303.869 196.883,305.432 191.805,306.604 191.805,305.432 							"/>
							<polygon fill="#FFFFFF" points="185.164,307.385 184.773,308.947 180.477,309.729 180.477,308.557 182.82,308.166 							"/>
							
								<rect x="173.066" y="308.954" transform="matrix(0.9956 -0.0934 0.0934 0.9956 -28.1769 17.6719)" fill="#FFFFFF" width="3.125" height="1.562"/>
							<polygon fill="#FFFFFF" points="169.539,308.947 169.539,310.119 167.195,310.119 167.195,308.947 							"/>
							<polygon fill="#15003E" points="164.461,308.166 164.07,309.338 162.508,308.947 162.508,307.385 							"/>
						</g>
					</g>
				</g>
			</g>
			<path fill="none" stroke="#01065B" stroke-width="0.25" stroke-miterlimit="10" d="M217.977,287.854
				c0.781,0.781,1.562,1.172,2.344,1.562"/>
			<g>
				<path fill="#E5E5E5" d="M143.367,405.822c0,0,1.562,13.672,7.422,16.016s18.75,3.906,19.531,1.172
					c0-0.781-1.172-2.344-1.172-2.344l-7.422,1.172l-12.109-3.516L143.367,405.822z"/>
				<path fill="#141F82" d="M158.211,399.572c-0.391,0-1.172-0.391-1.172-1.172v-7.812c0-0.391,0.391-1.172,1.172-1.172
					c0.391,0,1.172,0.391,1.172,1.172v7.812C159.383,398.791,158.602,399.572,158.211,399.572L158.211,399.572"/>
				<path fill="#141F82" d="M158.602,423.4c-8.594,0-15.625-7.031-15.625-15.234c0-8.594,7.031-15.234,15.625-15.234
					c4.297,0,7.812,1.562,10.938,4.297l1.172,1.172l-4.297,3.906l-1.953-1.953l2.344-1.953c-2.344-1.953-5.078-2.733-7.812-2.733
					c-7.031,0-12.5,5.469-12.5,12.5c0,7.03,5.859,12.5,12.5,12.5"/>
				<path fill="#141F82" d="M158.602,406.213c-1.172,0-1.953,0.781-1.953,1.953s0.781,1.953,1.953,1.953s1.953-0.781,1.953-1.953
					S159.773,406.213,158.602,406.213 M158.602,412.463c-2.344,0-4.688-1.953-4.688-4.688c0-2.344,1.953-4.688,4.688-4.688
					c2.344,0,4.688,1.953,4.688,4.688C163.29,410.51,161.336,412.463,158.602,412.463"/>
				<path fill="#141F82" d="M159.773,404.26l8.203-7.422l1.953,1.953l-8.203,7.422L159.773,404.26z M170.711,423.4h-12.109v-2.734
					h9.375v-2.734l-8.203-6.25l1.562-2.344l9.375,7.031V423.4L170.711,423.4z"/>
				<path fill="#42A86B" d="M166.414,415.197l-1.953-1.953c1.562-1.562,2.344-3.516,2.344-5.469c0-2.344-0.781-4.297-2.344-5.859
					l-1.172-1.172l1.172-1.172l0.781,1.172l0.781-0.781c1.953,1.953,3.125,4.688,3.125,7.812
					C169.539,410.9,168.367,413.244,166.414,415.197"/>
				<path fill="#4DAA73" d="M171.492,391.369l1.172-1.172l1.172,1.172l-1.172,1.172L171.492,391.369z M167.977,387.463l0.391-0.391
					l0.391,0.391l-0.391,0.391L167.977,387.463z M172.664,383.557c0.391,0,0.781,0.392,0.781,0.781c0,0.391-0.391,0.781-0.781,0.781
					l0,0c-0.391,0-0.781-0.391-0.781-0.781l0,0C171.883,383.947,171.883,383.557,172.664,383.557"/>
				<path fill="#141F82" d="M153.133,401.135c-0.391,0-0.781-0.391-0.781-0.781v-9.766c0-0.391,0.391-0.781,0.781-0.781
					c0.39,0,0.781,0.392,0.781,0.781v9.766C153.914,400.744,153.523,401.135,153.133,401.135"/>
				<polygon fill="#141F82" points="158.211,399.572 157.039,399.572 157.039,397.229 158.602,396.838 158.602,398.791 				"/>
				<polygon fill="#141F82" points="153.133,401.135 152.352,401.135 152.352,399.572 153.523,399.182 				"/>
				<polygon fill="#141F82" points="158.211,389.416 157.039,389.416 157.43,391.76 158.602,391.369 				"/>
				<polygon fill="#141F82" points="153.133,389.416 152.352,389.416 152.352,390.979 153.523,392.15 				"/>
				<path fill="#253593" d="M161.727,405.432h1.172c0,0,1.562,2.344,0,5.078h-1.172c0,0,0.781-0.781,0.781-2.734
					C162.508,407.385,161.727,405.432,161.727,405.432z"/>
				<rect x="169.539" y="416.76" fill="#253593" width="1.172" height="6.642"/>
				<polygon fill="#4DAA73" points="171.492,392.15 172.664,392.15 173.836,391.369 172.664,390.197 171.492,390.197 				"/>
				<polygon fill="#4DAA73" points="171.492,385.119 172.664,385.119 172.664,383.557 171.492,383.557 				"/>
				<polygon fill="#4DAA73" points="167.195,387.854 168.367,387.854 168.758,387.463 168.367,387.072 167.195,387.072 				"/>
				
					<polyline fill="none" stroke="#0FCE7C" stroke-width="0.15" stroke-linecap="round" stroke-linejoin="round" stroke-miterlimit="10" points="
					145.711,398.4 145.711,390.197 137.508,389.807 137.508,378.869 				"/>
				
					<polyline fill="none" stroke="#0FCE7C" stroke-width="0.15" stroke-linecap="round" stroke-linejoin="round" stroke-miterlimit="10" points="
					156.648,423.01 156.258,427.307 148.445,427.307 148.445,435.51 				"/>
				
					<polyline fill="none" stroke="#0FCE7C" stroke-width="0.15" stroke-linecap="round" stroke-linejoin="round" stroke-miterlimit="10" points="
					142.195,408.557 139.852,408.557 140.242,413.244 137.117,413.244 137.117,403.869 133.992,403.869 				"/>
				<g>
					<path fill="#01065B" d="M157.039,399.572c-0.391,0-1.172-0.391-1.172-1.172v-7.812c0-0.391,0.391-1.172,1.172-1.172
						c0.391,0,1.172,0.391,1.172,1.172v7.812C158.211,398.791,157.82,399.572,157.039,399.572L157.039,399.572"/>
					<path fill="#01065B" d="M157.82,423.4c-8.594,0-15.625-7.031-15.625-15.234c0-8.594,7.031-15.234,15.625-15.234
						c4.297,0,7.812,1.562,10.938,4.297l1.172,1.172l-4.297,3.906l-1.953-1.953l2.344-1.953c-2.344-1.953-5.078-2.733-7.812-2.733
						c-7.031,0-12.5,5.469-12.5,12.5c0,7.03,5.859,12.5,12.5,12.5"/>
					<path fill="#48B978" d="M165.633,415.197l-1.953-1.953c1.562-1.562,2.344-3.516,2.344-5.469c0-2.344-0.781-4.297-2.344-5.859
						l-1.562-0.781l1.172-1.172l0.781,1.172l0.781-0.781c1.953,1.953,3.125,4.688,3.125,7.812
						C168.367,410.9,167.586,413.244,165.633,415.197"/>
					<path fill="#01065B" d="M157.82,406.213c-1.172,0-1.953,0.781-1.953,1.953s0.781,1.953,1.953,1.953
						c1.172,0,1.953-0.781,1.953-1.953S158.602,406.213,157.82,406.213 M157.82,412.463c-2.344,0-4.688-1.953-4.688-4.688
						c0-2.344,1.953-4.688,4.688-4.688c2.344,0,4.688,1.953,4.688,4.688C162.117,410.51,160.164,412.463,157.82,412.463"/>
					<path fill="#01065B" d="M158.602,404.26l8.203-7.422l1.953,1.953l-8.203,7.422L158.602,404.26z M169.539,423.4H157.43v-2.734
						h9.375v-2.734l-8.203-6.25l1.562-2.344l9.375,7.031V423.4L169.539,423.4z"/>
					<path fill="#62C08C" d="M170.32,391.369l1.172-1.172l1.172,1.172l-1.172,1.172L170.32,391.369z M166.805,387.463l0.391-0.391
						l0.391,0.391l-0.391,0.391L166.805,387.463z M171.492,383.557c0.391,0,0.781,0.392,0.781,0.781
						c0,0.391-0.391,0.781-0.781,0.781l0,0c-0.391,0-0.781-0.391-0.781-0.781l0,0C170.711,383.947,171.102,383.557,171.492,383.557"
						/>
					<path fill="#01065B" d="M152.352,401.135c-0.391,0-0.781-0.391-0.781-0.781v-9.766c0-0.391,0.391-0.781,0.781-0.781
						s0.781,0.392,0.781,0.781v9.766C153.133,400.744,152.742,401.135,152.352,401.135"/>
					<path fill="#253593" d="M170.711,398.01h-1.172c0,0-3.906-5.078-10.156-5.469c-1.172,0,1.953,0,4.688,0.781
						C168.367,394.885,170.711,398.01,170.711,398.01z"/>
				</g>
				<g>
					
						<rect x="176.57" y="387.072" fill="#F2F2F2" stroke="#0FCE7C" stroke-width="0.1" stroke-linecap="round" stroke-linejoin="round" stroke-miterlimit="10" width="7.422" height="4.297"/>
					
						<polygon fill="#F2F2F2" stroke="#0FCE7C" stroke-width="0.1" stroke-linecap="round" stroke-linejoin="round" stroke-miterlimit="10" points="
						185.164,390.197 183.992,391.369 183.992,387.072 185.164,386.291 					"/>
					
						<polygon fill="#F2F2F2" stroke="#0FCE7C" stroke-width="0.1" stroke-linecap="round" stroke-linejoin="round" stroke-miterlimit="10" points="
						176.57,387.072 178.523,386.291 185.164,386.291 183.992,387.072 					"/>
				</g>
				<polygon fill="#F2F2F2" stroke="#0FCE7C" stroke-width="0.1" stroke-miterlimit="10" points="181.258,391.369 181.648,435.119 
					178.914,435.119 178.914,391.369 				"/>
				<polygon fill="#F2F2F2" stroke="#0FCE7C" stroke-width="0.1" stroke-miterlimit="10" points="182.039,391.369 182.039,435.119 
					180.867,435.119 180.867,391.369 				"/>
				<g>
					
						<rect x="175.789" y="404.26" fill="#F2F2F2" stroke="#0FCE7C" stroke-width="0.1" stroke-linecap="round" stroke-linejoin="round" stroke-miterlimit="10" width="7.422" height="4.297"/>
					
						<polygon fill="#F2F2F2" stroke="#0FCE7C" stroke-width="0.1" stroke-linecap="round" stroke-linejoin="round" stroke-miterlimit="10" points="
						184.383,407.385 183.211,408.557 183.211,404.26 184.383,403.479 					"/>
					
						<polyline fill="none" stroke="#0FCE7C" stroke-width="0.1" stroke-linecap="round" stroke-linejoin="round" stroke-miterlimit="10" points="
						182.039,403.479 184.383,403.479 183.211,404.26 175.789,404.26 177.742,403.479 178.914,403.479 					"/>
				</g>
				<g>
					
						<rect x="175.789" y="421.057" fill="#F2F2F2" stroke="#0FCE7C" stroke-width="0.1" stroke-linecap="round" stroke-linejoin="round" stroke-miterlimit="10" width="7.422" height="4.297"/>
					
						<polygon fill="#F2F2F2" stroke="#0FCE7C" stroke-width="0.1" stroke-linecap="round" stroke-linejoin="round" stroke-miterlimit="10" points="
						184.383,424.182 183.211,425.354 183.211,421.057 184.383,420.275 					"/>
					
						<polyline fill="none" stroke="#0FCE7C" stroke-width="0.1" stroke-linecap="round" stroke-linejoin="round" stroke-miterlimit="10" points="
						182.039,420.275 184.383,420.275 183.211,421.057 175.789,421.057 177.742,420.275 178.914,420.275 					"/>
				</g>
				<g>
					
						<rect x="175.789" y="433.947" fill="#F2F2F2" stroke="#0FCE7C" stroke-width="0.05" stroke-linecap="round" stroke-linejoin="round" stroke-miterlimit="10" width="7.422" height="4.297"/>
					
						<polygon fill="#F2F2F2" stroke="#0FCE7C" stroke-width="0.1" stroke-linecap="round" stroke-linejoin="round" stroke-miterlimit="10" points="
						184.383,437.463 183.211,438.244 183.211,433.947 184.383,433.557 					"/>
					
						<polygon fill="none" stroke="#0FCE7C" stroke-width="0.1" stroke-linecap="round" stroke-linejoin="round" stroke-miterlimit="10" points="
						175.789,433.947 177.742,433.166 184.383,433.557 183.211,433.947 					"/>
				</g>
			</g>
			
				<line fill="none" stroke="#2034A8" stroke-width="0.05" stroke-miterlimit="10" x1="164.852" y1="305.822" x2="164.07" y2="310.9"/>
			
				<line fill="none" stroke="#2034A8" stroke-width="0.05" stroke-miterlimit="10" x1="217.586" y1="292.541" x2="217.195" y2="298.01"/>
		</g>
		<g>
			<rect x="136.727" y="201.135" fill="#01065B" width="75.391" height="3.125"/>
		</g>
		<g>
			<path fill="#0FCE7C" d="M235.945,197.619c2.734,7.031,5.078,14.453,7.422,21.484c2.344,7.422,4.688,14.453,6.641,21.875
				c-2.734-7.031-5.078-14.453-7.422-21.484C240.242,212.463,237.898,205.041,235.945,197.619z"/>
		</g>
		<g>
			<path fill="#0FCE7C" d="M143.758,167.15c1.172-0.781,1.562-2.344,1.953-3.906l1.172-4.297c0.781-2.734,1.953-5.859,3.906-7.812
				c-1.172,2.734-2.344,5.469-3.125,8.203c-0.391,1.562-0.781,2.734-1.562,4.297C145.711,165.197,145.32,166.76,143.758,167.15z"/>
		</g>
		<g>
			<path fill="#0FCE7C" d="M154.695,146.838c0.781-1.953,1.562-3.906,2.344-6.25c0.781-1.953,1.953-3.906,3.125-5.859
				c1.172-1.562,3.125-3.125,4.688-4.688c1.953-1.172,3.906-1.953,5.859-3.125l-5.469,3.906c-1.562,1.172-3.125,2.734-4.297,4.688
				c-1.172,1.562-2.344,3.516-3.125,5.469C157.039,143.322,155.867,145.275,154.695,146.838z"/>
		</g>
		<g>
			<path fill="#0FCE7C" d="M186.336,131.604c4.297-2.344,9.766-2.344,14.062,0.391C195.711,130.822,191.023,130.822,186.336,131.604
				z"/>
		</g>
		<g>
			<path fill="#0FCE7C" d="M221.883,147.619c7.031,8.203,9.766,19.531,7.422,29.688C230.477,167.15,227.742,156.604,221.883,147.619
				z"/>
		</g>
	</g>
</g>
<path opacity="0.06" fill="#01065B" enable-background="new    " d="M68.367,381.604c2.344-9.766,5.469-19.922,8.984-29.297
	c3.516-9.766,8.203-18.75,14.062-27.344s13.281-16.016,22.266-21.875c4.297-2.734,8.984-5.078,14.062-7.031
	c5.078-1.562,10.156-2.733,15.234-2.733c-10.156,1.952-19.531,6.25-27.344,12.108c-8.203,5.859-14.844,13.281-20.703,21.484
	c-5.859,8.203-10.156,17.188-14.453,26.562C75.789,362.463,72.273,372.229,68.367,381.604z"/>
<path opacity="0.06" fill="#01065B" enable-background="new    " d="M73.055,341.369c3.125-15.234,12.109-28.906,23.828-39.453
	c11.719-10.156,26.562-17.578,41.797-18.75c-14.844,4.297-28.125,11.719-39.453,21.484
	C88.289,314.807,79.305,327.307,73.055,341.369z"/>
<path opacity="0.06" fill="#01065B" enable-background="new    " d="M241.023,292.15c5.469,1.562,10.157,3.906,14.454,7.422
	s8.203,7.812,11.328,12.109c6.25,8.983,9.766,19.922,12.108,30.858c1.953,10.938,2.733,21.875,3.517,32.422
	c0.391,5.47,0.78,10.938,1.562,16.017c0.391,5.469,1.562,10.547,2.733,16.016c-1.953-5.078-3.125-10.547-4.688-15.625
	c-1.172-5.469-1.953-10.938-2.734-16.016c-1.562-10.938-2.344-21.484-4.297-32.031s-5.078-20.703-10.547-29.688
	c-2.734-4.688-6.25-8.594-10.156-12.5C250.789,297.619,246.102,294.494,241.023,292.15z"/>
<path opacity="0.06" fill="#01065B" enable-background="new    " d="M248.836,281.604c5.078,1.172,9.766,3.125,14.453,5.859
	s8.594,5.859,12.5,9.375c7.812,7.031,14.062,16.016,18.359,25.781c4.297,9.765,7.03,19.922,8.594,30.078
	c0.781,5.078,1.172,10.547,1.172,15.625s0,10.547-0.391,15.625c-0.392-5.078-0.781-10.156-1.562-15.625
	c-0.391-5.078-1.172-10.156-2.344-15.234c-1.953-10.156-4.688-19.922-8.984-28.906c-4.297-9.375-9.766-17.578-16.797-25
	C266.805,291.369,258.211,285.51,248.836,281.604z"/>
<polygon points="256.258,401.525 256.641,378.869 310.351,208.193 317.719,210.5 "/>
<rect x="209.354" y="75.85" transform="matrix(-0.9544 -0.2987 0.2987 -0.9544 602.3574 396.2699)" fill="#1B064F" stroke="#FFCE08" stroke-width="5.6693" stroke-miterlimit="10" width="244.211" height="152.512"/>
<g>
	<path id="Shape_5_" fill="#FFFFFF" d="M408.082,204.843c-0.806-0.252-1.251-1.106-1-1.912l3.592-11.476
		c0.252-0.806,1.106-1.253,1.911-1c0.805,0.251,1.251,1.104,0.999,1.91l-3.592,11.477
		C409.757,204.652,408.888,205.094,408.082,204.843"/>
	<path id="Shape_6_" fill="#FFFFFF" d="M398.067,239.664c-12.255-3.836-19.098-16.918-15.264-29.17
		c3.835-12.256,16.917-19.1,29.17-15.265c5.938,1.858,10.793,5.924,13.682,11.421l0.991,1.891l-8.125,3.943l-1.824-3.736
		l4.153-2.019c-2.417-3.581-5.949-6.223-10.135-7.532c-10.062-3.15-20.804,2.472-23.954,12.534
		c-3.146,10.063,2.473,20.807,12.535,23.957"/>
	<path id="Shape_7_" fill="#48B978" d="M412.788,231.748l-1.986-3.663c2.78-1.504,4.818-4,5.766-7.025
		c0.984-3.151,0.664-6.48-0.907-9.394l-1.033-1.903l2.071-1.015l0.906,1.868l1.721-0.936c2.113,3.904,2.543,8.384,1.218,12.61
		C419.286,226.363,416.525,229.721,412.788,231.748"/>
	<path id="Shape_9_" fill="#FFFFFF" d="M405.826,214.874c-1.428-0.447-2.948,0.35-3.396,1.776c-0.445,1.429,0.351,2.95,1.777,3.395
		c1.427,0.448,2.949-0.348,3.398-1.776C408.056,216.828,407.255,215.321,405.826,214.874 M402.969,224.003
		c-3.618-1.132-5.637-4.993-4.504-8.609c1.131-3.617,4.991-5.638,8.607-4.505c3.621,1.133,5.639,4.992,4.506,8.609
		C410.447,223.117,406.587,225.136,402.969,224.003"/>
	<path id="Shape_10_" fill="#190B3C" d="M423.8,207.621l-14.887,7.055"/>
	<polygon id="Shape_11_" fill="#FFFFFF" points="422.912,205.745 424.702,209.499 409.814,216.556 408.027,212.8 	"/>
	<polygon id="Shape_12_" fill="#FFFFFF" points="414.985,244.958 397.7,239.548 398.943,235.578 412.255,239.744 413.384,236.139 
		404.227,223.358 407.61,220.924 417.98,235.39 	"/>
	<polygon id="Shape_13_" fill="#62C08C" points="430.919,199.002 433.017,197.905 434.113,200.001 432.018,201.099 	"/>
	<polygon id="Shape_14_" fill="#62C08C" points="426.481,189.187 427.483,188.664 428.01,189.665 427.005,190.19 	"/>
	<path id="Shape_15_" fill="#62C08C" d="M438,185.451c0.2-0.635-0.151-1.303-0.786-1.501c-0.635-0.2-1.305,0.149-1.504,0.786
		c-0.199,0.636,0.151,1.304,0.786,1.502C437.132,186.438,437.8,186.087,438,185.451"/>
	<path id="Shape_16_" fill="#FFFFFF" d="M399.942,206.703c-0.806-0.253-1.253-1.107-0.999-1.913l4.848-15.49
		c0.251-0.805,1.105-1.252,1.91-1c0.807,0.253,1.254,1.106,1,1.913l-4.848,15.489C401.603,206.507,400.748,206.955,399.942,206.703"
		/>
</g>
<g>
	<path fill="#25E899" d="M231.623,123.252l2.821-32.666l23.306,2.012l-0.57,6.606l-14.911-1.288l-0.531,6.148l13.948,1.205
		l-0.569,6.606l-13.947-1.205l-0.579,6.7l14.911,1.288l-0.569,6.606L231.623,123.252z"/>
	<path fill="#25E899" d="M269.75,126.544l2.218-25.693l-9.729-0.84l0.604-6.974l28.171,2.432l-0.602,6.974l-9.729-0.84l-2.22,25.693
		L269.75,126.544z"/>
	<path fill="#25E899" d="M293.973,128.635l2.82-32.667l8.442,0.729l-2.82,32.667L293.973,128.635z M297.638,115.64l0.581-6.744
		l24.226,2.091l-0.581,6.744L297.638,115.64z M315.628,130.506l2.821-32.667l8.44,0.729l-2.82,32.667L315.628,130.506z"/>
	<path fill="#FFFFFF" d="M347.835,133.286l2.82-32.667l8.626,0.745l-2.82,32.667L347.835,133.286z"/>
	<path fill="#FFFFFF" d="M376.429,136.17c-1.621-0.14-3.23-0.425-4.825-0.855c-1.597-0.431-3.083-0.976-4.459-1.634
		c-1.376-0.657-2.537-1.397-3.481-2.219l3.232-5.868c1.5,1.177,3.124,2.104,4.867,2.777c1.745,0.676,3.521,1.09,5.323,1.246
		c1.865,0.161,3.304,0.023,4.312-0.414c1.008-0.437,1.55-1.099,1.626-1.986c0.046-0.52-0.083-1.001-0.383-1.443
		c-0.304-0.442-0.896-0.878-1.782-1.31c-0.889-0.43-2.172-0.904-3.854-1.418c-2.315-0.663-4.22-1.373-5.709-2.133
		c-1.491-0.76-2.636-1.584-3.438-2.47c-0.803-0.886-1.337-1.849-1.601-2.889c-0.267-1.04-0.343-2.187-0.234-3.44
		c0.172-1.988,0.893-3.729,2.161-5.221c1.27-1.492,2.952-2.611,5.05-3.355c2.1-0.743,4.493-0.999,7.186-0.766
		c1.562,0.135,3.093,0.414,4.597,0.836c1.504,0.423,2.883,0.958,4.138,1.605c1.254,0.647,2.264,1.374,3.022,2.179l-3.188,5.872
		c-1.378-1.166-2.841-2.078-4.386-2.736c-1.547-0.656-3.1-1.053-4.658-1.188c-1.56-0.135-2.84,0.056-3.839,0.57
		c-1.001,0.514-1.543,1.276-1.632,2.285c-0.042,0.49,0.081,0.947,0.368,1.372c0.285,0.426,0.873,0.854,1.761,1.285
		s2.245,0.926,4.077,1.484c2.224,0.654,4.065,1.368,5.522,2.142c1.46,0.772,2.59,1.603,3.393,2.488
		c0.803,0.885,1.343,1.842,1.623,2.867c0.282,1.026,0.371,2.135,0.269,3.328c-0.182,2.11-0.892,3.883-2.122,5.317
		c-1.233,1.435-2.941,2.473-5.123,3.116C382.062,136.241,379.456,136.432,376.429,136.17z"/>
	<path fill="#FFFFFF" d="M227.601,171.438l2.82-32.666l6.744,0.583l8.988,26.521l-2.844-0.246l13.355-24.592l6.697,0.578
		l-2.819,32.667l-7.524-0.65l1.649-19.641l1.7,0.655l-9.589,18.447l-5.459-0.472l-6.422-19.83l1.878-0.346l-1.695,19.637
		L227.601,171.438z"/>
	<path fill="#FFFFFF" d="M284.365,176.755c-3.366-0.291-6.221-1.23-8.562-2.818c-2.344-1.589-4.07-3.695-5.186-6.318
		c-1.114-2.622-1.523-5.647-1.229-9.073c0.295-3.396,1.221-6.289,2.783-8.681c1.562-2.391,3.625-4.163,6.189-5.313
		c2.565-1.149,5.527-1.579,8.895-1.289c3.364,0.29,6.203,1.221,8.518,2.792c2.313,1.571,4.028,3.668,5.144,6.291
		c1.113,2.623,1.524,5.631,1.229,9.027c-0.295,3.426-1.217,6.335-2.763,8.728c-1.548,2.394-3.598,4.173-6.146,5.34
		C290.688,176.607,287.729,177.045,284.365,176.755z M284.932,170.195c2.387,0.206,4.362-0.486,5.936-2.077
		c1.568-1.59,2.501-4.083,2.794-7.477c0.291-3.364-0.203-5.958-1.479-7.778c-1.274-1.821-3.104-2.834-5.49-3.04
		c-2.387-0.206-4.355,0.472-5.908,2.033s-2.475,4.039-2.768,7.434c-0.297,3.426,0.188,6.048,1.445,7.867
		C280.723,168.976,282.546,169.989,284.932,170.195z"/>
	<path fill="#FFFFFF" d="M308.073,178.386l2.819-32.667l6.287,0.542l14.493,21.636l-1.518,0.978l1.843-21.334l8.122,0.701
		l-2.821,32.666l-6.378-0.55l-14.363-21.531l1.387-1.083l-1.844,21.334L308.073,178.386z"/>
	<path fill="#FFFFFF" d="M345.513,181.618l2.82-32.667l23.307,2.013l-0.569,6.606l-14.911-1.288l-0.531,6.148l13.947,1.204
		l-0.57,6.607l-13.947-1.205l-0.577,6.7l14.91,1.287l-0.569,6.606L345.513,181.618z"/>
	<path fill="#FFFFFF" d="M383.408,184.891l1.268-14.681l1.379,4.925l-13.544-24.095l9.727,0.839l8.084,15.582l-2.202-0.19
		l10.772-13.954l9.817,0.848l-17.518,21.414l2.155-4.621l-1.268,14.682L383.408,184.891z"/>
</g>
</svg>
