<svg id="Layer_1" data-name="Layer 1" xmlns="http://www.w3.org/2000/svg" viewBox="0 0 87.002 97.0972"><defs><style>.cls-1{fill:#00ade2;}.cls-2{fill:#11003d;}.cls-3{fill:#edf3ed;}.cls-4{fill:#6b6b6b;}.cls-19,.cls-5{fill:#fff;}.cls-6{fill:#272727;}.cls-7{fill:#9c9c9c;}.cls-8{fill:#00ce78;}.cls-9{fill:#0a0138;}.cls-10{fill:#8f8f8f;}.cls-11{fill:#8f7f7a;}.cls-12{fill:#767676;}.cls-13{fill:#aeaeae;}.cls-14{fill:#694700;}.cls-15{fill:#160b00;}.cls-16{fill:none;}.cls-17{fill:#513425;stroke:#3c2415;}.cls-17,.cls-19{stroke-miterlimit:10;}.cls-18{fill:#00e895;}.cls-19{stroke:#fff;stroke-width:0.25px;}</style></defs><title>gandalf</title><path class="cls-1" d="M94.0464,48.8831a4.279,4.279,0,0,0-4.2742-4.274,4.23,4.23,0,0,0-1.4514.2543,4.0823,4.0823,0,0,0-.762-.3718,3.298,3.298,0,1,0-5.1509,3.974c-.0223.0223-.0441.0449-.0661.068A1.8046,1.8046,0,0,0,83.9633,51.55a1.8044,1.8044,0,0,0,2.6758,1.7757,1.8035,1.8035,0,0,0-.0193,1.3389c-.0262-.0164-.0533-.032-.0807-.0472a1.7942,1.7942,0,0,0-1.3731-.152,2.6324,2.6324,0,0,0-1.2352.7864,4.3279,4.3279,0,0,0-4.26,4.4936L73.3018,55.707a6.3722,6.3722,0,0,0-1.6762-3.1361q-.134-.1311-.2775-.2512A20.5446,20.5446,0,0,0,74.72,51.07c3.0506-1.4656,4.8989-3.44,5.3676-5.7272a1.5255,1.5255,0,0,0,.09-.4777l.0032-.1209c.0179-.1834.0268-.3569.0268-.528,0-.0728-.0026-.1453-.0062-.2176l.0077-.2911a4.8357,4.8357,0,0,0-1.3972-3.2589,10.95,10.95,0,0,0-3.47-2.7682A15.1435,15.1435,0,0,0,70.04,35.6936c-2.5551-3.5172-1.8368-9.323-1.4431-12.5049a13.2061,13.2061,0,0,0,.184-2.5488,2.1357,2.1357,0,0,0-1.7581-1.9584c-1.64-.2733-2.5309,1.2237-3.4725,2.8089-.6695,1.1261-1.5316,2.712-2.5628,4.7139-1.6754,3.253-3.4749,6.9834-4.664,9.5488a14.7457,14.7457,0,0,0-4.1793,1.53,10.8706,10.8706,0,0,0-4.7466,3.8594,4.22,4.22,0,0,0-.6879,1.5336,5.5264,5.5264,0,0,0-.2212,1.54c0,2.7194,1.9489,5.1534,5.4879,6.8538a20.86,20.86,0,0,0,3.6914,1.3368v.2072a6.5388,6.5388,0,0,0-1.682,3.2391A2.2712,2.2712,0,0,0,52.57,56.9834a2.0436,2.0436,0,0,0-.1752.4815,3.0281,3.0281,0,0,1-2.4452.9958c-1.7493-.4121-3.3946-3.5437-4.0984-5.6023-.0118-.0575-.023-.1143-.0341-.1732l-.009-.0449c-.0436-.2362-.0731-.4351-.0927-.5913a2.6888,2.6888,0,0,0,.1227-.4233l.0067-.0351.5306-2.977a2.6808,2.6808,0,0,0-.6249-2.25l-.3864-1.984a1.5248,1.5248,0,0,0-1.3923-1.23,1.5238,1.5238,0,0,0-.3514-1.1644V34.0371a4.4853,4.4853,0,0,0-.057-.7062v-.2242a2.5255,2.5255,0,0,0-1.0183-2.0154A4.55,4.55,0,0,0,39.0324,29.45H11.6318a4.5926,4.5926,0,0,0-4.5874,4.5874V47.95a4.5927,4.5927,0,0,0,4.5874,4.5875H38.0664l.2766.4159.02.0289q.0771.1116.1643.2148l.0043.0338V66.9885c-.0264.2579-.05.5121-.0688.7578a21.3946,21.3946,0,0,0,.0688,4.0269v35.5474a2.0055,2.0055,0,0,0,.39,3.9728h.4741a1.5252,1.5252,0,0,0,1.3818.8794h1.3969a1.5252,1.5252,0,0,0,1.3817-.8794h3.4237q.011.04.0229.0795v.66c0,2.7412,4.52,3.7137,8.39,3.7137,2.4072,0,6.5935-.5342,7.9517-2.3924,1.4,1.8162,5.5374,2.34,7.9256,2.34,3.8772,0,8.4048-.9726,8.4048-3.7137v-.6471l.011-.04h8.0579a2.0058,2.0058,0,1,0,0-4.0115H78.9405a8.019,8.019,0,0,0-3.6584-3.4362l.123-.0512a1.5243,1.5243,0,0,0,.9321-1.5092l-.6486-9.609a3.4661,3.4661,0,0,0,2.94,1.851,3.1053,3.1053,0,0,0,.69-.0789c1.4538-.3314,2.6282-1.6357,3.5791-3.98a1.5265,1.5265,0,0,0,.43-.5515l.0488,0a1.5252,1.5252,0,0,0,1.5074-1.542l-.0226-2.0136c.05-.0649.098-.1319.1426-.2016a2.69,2.69,0,0,0,.2-2.55l-.6125-1.3844a1.5251,1.5251,0,0,0-.1078-.9416l-.1805-.394-.0083-.07a1.5245,1.5245,0,0,0-.413-.8767c-.68-1.5824-1.4169-3.6211-2.1319-5.5978a93.6481,93.6481,0,0,0-4.644-11.2695l1.5181.9821a3.7669,3.7669,0,0,0,3.7259,3.26,3.5869,3.5869,0,0,0,3.0422-1.6459c.0408-.064.076-.1256.1073-.1843q.03-.038.0583-.0777.0389-.0545.0724-.112l.02-.0345c.0212-.0364.0411-.0736.0593-.1114a1.8857,1.8857,0,0,0,.1837-.9306,1.5219,1.5219,0,0,0-.106-.536l-.03-.0762-.0155-.0376-.002-.0053-.0082-.0172a4.3132,4.3132,0,0,0,2.49-2.9958,3.4461,3.4461,0,0,0,1.5274-1.81,3.4154,3.4154,0,0,0,.8227-5.6636A4.2793,4.2793,0,0,0,94.0464,48.8831ZM47.7247,107.2819H43.6986V82.5509c2.0721,2.07,3.9631,2.5577,5.3473,2.52q.2281-.0063.4518-.0328L49.36,102.3434a1.5251,1.5251,0,0,0,.77,1.3373l.2454.14q.2544.1447.518.2781A7.9359,7.9359,0,0,0,47.7247,107.2819Z" transform="translate(-7.0444 -18.6491)"/><g id="Character"><path class="cls-2" d="M68.1513,88.4127H58.247c-1.7857,0-3.2877-1.7483-3.4967-4.0684L52.0817,62.9666a1.3733,1.3733,0,0,1,.3253-1.0373.9426.9426,0,0,1,.6976-.32h20.189a.9428.9428,0,0,1,.6975.32,1.3733,1.3733,0,0,1,.3254,1.0373l-.0018.0171L71.6478,84.3443C71.4388,86.6643,69.9368,88.4127,68.1513,88.4127ZM53.04,62.8743l2.6686,21.3763c.1616,1.8241,1.253,3.2,2.5388,3.2h9.9043c1.2858,0,2.3771-1.3756,2.5388-3.2l.0018-.0172,2.6668-21.3592a.3966.3966,0,0,0-.084-.3026H53.1236A.3969.3969,0,0,0,53.04,62.8743Z" transform="translate(-7.0444 -18.6491)"/><path class="cls-2" d="M53.55,70.0126a1.9016,1.9016,0,0,1-1.915-1.6015l-.5692-4.3442a1.7469,1.7469,0,0,1,.3641-1.3118,1.9618,1.9618,0,0,1,1.3224-.7264l.1079.9562a.9951.9951,0,0,0-.6726.3633.7915.7915,0,0,0-.1676.5937l.5691,4.3443a.95.95,0,0,0,1.0823.7572L53.7794,70A2.02,2.02,0,0,1,53.55,70.0126Z" transform="translate(-7.0444 -18.6491)"/><path class="cls-3" d="M43.2308,51.8227l-2.4033.3673a.8307.8307,0,0,1-.8142-.3479l-1.7419-2.619a.7137.7137,0,0,1,.527-1.1007l4.684-.7158a.7756.7756,0,0,1,.9179.8551l-.5286,2.9658A.75.75,0,0,1,43.2308,51.8227Z" transform="translate(-7.0444 -18.6491)"/><path class="cls-2" d="M40.6979,52.6818a1.32,1.32,0,0,1-1.08-.566l-.0048-.0071L37.8708,49.49a1.1719,1.1719,0,0,1-.1011-1.1268,1.2372,1.2372,0,0,1,.9559-.716L43.41,46.931a1.3126,1.3126,0,0,1,1.1374.3757,1.1792,1.1792,0,0,1,.3268,1.0394l-.5306,2.9768a1.23,1.23,0,0,1-1.0451.9762l-2.398.3665A1.2773,1.2773,0,0,1,40.6979,52.6818Zm-.2868-1.11a.3509.3509,0,0,0,.3405.1435l2.4187-.37a.2684.2684,0,0,0,.2288-.2092l.5273-2.959a.2235.2235,0,0,0-.0683-.1983.3491.3491,0,0,0-.303-.0966l-4.6841.7158a.2732.2732,0,0,0-.2211.1536.2048.2048,0,0,0,.0221.2049Z" transform="translate(-7.0444 -18.6491)"/><polygon class="cls-3" points="33.873 25.733 32.318 25.971 32.963 29.289 34.519 29.051 33.873 25.733"/><path class="cls-2" d="M39.624,48.4834l-.83-4.2634,2.508-.3833.83,4.2633ZM39.93,45.02l.462,2.3725.6038-.0922-.462-2.3726Z" transform="translate(-7.0444 -18.6491)"/><polygon class="cls-3" points="32.43 26.841 31.082 27.047 31.56 29.503 32.908 29.297 32.43 26.841"/><path class="cls-2" d="M38.2208,48.6978l-.6624-3.4014,2.3-.3515.6623,3.4014Zm.4738-2.6016.2942,1.5107.3955-.0605L39.09,46.0357Z" transform="translate(-7.0444 -18.6491)"/><polygon class="cls-3" points="36.439 26.567 35.091 26.773 35.505 28.9 36.853 28.694 36.439 26.567"/><path class="cls-2" d="M42.1657,48.0946l-.5983-3.0726,2.3-.3514.5984,3.0725Zm.5379-2.2727.23,1.1818.3955-.0605-.23-1.1818Z" transform="translate(-7.0444 -18.6491)"/><path class="cls-4" d="M43.9066,53.37s-2.9779,8.35-3.4437,14.5269S42.5162,77.63,42.5162,77.63l3.5982-12.9811Z" transform="translate(-7.0444 -18.6491)"/><path class="cls-2" d="M42.7092,78.7349l-.5856-.8268c-.107-.151-2.614-3.77-2.1406-10.0473.4654-6.17,3.348-14.3089,3.4705-14.6524l.5887-1.6508,2.5662,13.11Zm1.0759-23.4807a62.6546,62.6546,0,0,0-2.8425,12.6791,16.6647,16.6647,0,0,0,1.4232,8.4375L45.62,64.63Z" transform="translate(-7.0444 -18.6491)"/><path class="cls-5" d="M52.2049,68.3987C40.4778,61.7906,40.4626,52.2,40.4626,52.2l3.2091-.4788s.2144,7.3781,7.86,12.4736Z" transform="translate(-7.0444 -18.6491)"/><path class="cls-2" d="M52.8376,69.3076l-.869-.49c-6.1707-3.4771-9.1-7.79-10.47-10.7968a15.3884,15.3884,0,0,1-1.5168-5.82l-.0007-.4153,4.156-.62.0158.5419a13.5061,13.5061,0,0,0,1.0442,4.199,17.4569,17.4569,0,0,0,6.6021,7.8883l.175.1167ZM40.969,52.6112a15.85,15.85,0,0,0,1.4273,5.0593,22.6993,22.6993,0,0,0,9.1725,9.7985L51.09,64.4775a18.373,18.373,0,0,1-6.801-8.2487,15.4339,15.4339,0,0,1-1.0534-3.9557Z" transform="translate(-7.0444 -18.6491)"/><rect class="cls-2" x="45.8757" y="62.6649" width="3.2774" height="0.9623" transform="translate(-36.5923 26.9914) rotate(-40.2421)"/><rect class="cls-2" x="43.2535" y="59.1598" width="3.3291" height="0.9623" transform="translate(-29.9689 9.814) rotate(-28.3334)"/><rect class="cls-2" x="41.4328" y="55.4857" width="3.3398" height="0.9623" transform="translate(-24.1878 0.4323) rotate(-20.9215)"/><path class="cls-5" d="M77.1668,81.5638s.64-5.7872-5.0252-13.2461l1.5066-3.2728c8.2215,10.4942,6.5109,16.89,6.5109,16.89Z" transform="translate(-7.0444 -18.6491)"/><path class="cls-2" d="M80.5157,82.4643l-3.8794-.4814.0521-.4713a12.4972,12.4972,0,0,0-.3912-3.7194,24.614,24.614,0,0,0-4.5389-9.1834l-.1747-.23,1.957-4.2512.4863.6207c4.3045,5.4945,5.8731,9.8739,6.431,12.58a11.1563,11.1563,0,0,1,.166,4.7313Zm-2.8468-1.323,2.0946.26a12.21,12.21,0,0,0-.2655-3.9629c-.5255-2.4871-1.9524-6.46-5.7454-11.4695L72.6988,68.258A25.3774,25.3774,0,0,1,77.2474,77.63,14.8882,14.8882,0,0,1,77.6689,81.1413Z" transform="translate(-7.0444 -18.6491)"/><path class="cls-5" d="M72.7687,70.019a1.43,1.43,0,0,0,1.6132-1.1728l.5692-4.3443a1.37,1.37,0,0,0-1.2635-1.4977" transform="translate(-7.0444 -18.6491)"/><path class="cls-2" d="M72.9439,70.51a2.04,2.04,0,0,1-.2292-.013l.1078-.9562a.9506.9506,0,0,0,1.0823-.7573l.5691-4.3442a.7921.7921,0,0,0-.1676-.5937.996.996,0,0,0-.6727-.3634l.1079-.9562a1.9622,1.9622,0,0,1,1.3225.7265,1.7462,1.7462,0,0,1,.3641,1.3118l-.5692,4.3441A1.9017,1.9017,0,0,1,72.9439,70.51Z" transform="translate(-7.0444 -18.6491)"/><rect class="cls-2" x="73.9326" y="69.2568" width="3.3462" height="0.9625" transform="translate(-30.319 22.764) rotate(-26.7034)"/><rect class="cls-2" x="75.5967" y="73.186" width="3.3993" height="0.9623" transform="translate(-23.7234 4.321) rotate(-15.2772)"/><rect class="cls-2" x="76.7468" y="77.1522" width="3.4045" height="0.9624" transform="translate(-17.2666 -6.7318) rotate(-8.1577)"/><rect class="cls-2" x="56.4165" y="103.8049" width="1.7897" height="0.9623" transform="translate(-60.8704 128.1652) rotate(-82.1486)"/><rect class="cls-2" x="51.0016" y="101.3811" width="6.5561" height="0.9623" transform="translate(-61.155 122.8838) rotate(-82.0506)"/><rect class="cls-2" x="68.8601" y="103.3811" width="0.9623" height="1.7914" transform="translate(-21.2911 -7.6188) rotate(-8.2508)"/><rect class="cls-2" x="71.8491" y="97.7667" width="0.9623" height="7.3848" transform="translate(-20.39 -7.6624) rotate(-7.9551)"/><path class="cls-6" d="M78.2023,44.2158c0-2.9758-3.7911-5.5264-9.18-6.5971-.888,4.2436-10.49,4.2282-11.3493,0-5.3886,1.0707-9.18,3.6213-9.18,6.5971,0,3.9407,6.65,7.1359,14.8542,7.1359S78.2023,48.1565,78.2023,44.2158Z" transform="translate(-7.0444 -18.6491)"/><path class="cls-2" d="M63.348,51.8329a25.3688,25.3688,0,0,1-10.7118-2.1377c-2.9815-1.4324-4.6235-3.3783-4.6235-5.4794,0-3.1395,3.7553-5.9142,9.5671-7.069l.47-.0934.0953.4695c.388,1.9087,2.9532,2.785,5.1727,2.7915h.0249c2.2322,0,4.8069-.8722,5.2092-2.7943l.0976-.4662.4671.0929c5.8119,1.1548,9.567,3.93,9.567,7.069,0,2.1011-1.642,4.047-4.6236,5.4794A25.37,25.37,0,0,1,63.348,51.8329ZM57.3313,38.1815c-5.0174,1.0916-8.3563,3.4887-8.3563,6.0344,0,1.7108,1.4482,3.3486,4.0778,4.612A24.4013,24.4013,0,0,0,63.348,50.8706a24.4013,24.4013,0,0,0,10.2952-2.0427c2.63-1.2634,4.078-2.9013,4.078-4.612,0-2.546-3.34-4.9434-8.3582-6.0349-.7661,2.1358-3.5,3.0957-6.0193,3.0958H63.315C60.8078,41.27,58.0852,40.3052,57.3313,38.1815Z" transform="translate(-7.0444 -18.6491)"/><path class="cls-5" d="M57.6735,57.7223a18.9946,18.9946,0,0,0-2.8,1.9465,13.3362,13.3362,0,0,0-2.1341,2.4031H73.8417a13.45,13.45,0,0,0-2.1379-2.4031,18.9927,18.9927,0,0,0-2.8-1.9465" transform="translate(-7.0444 -18.6491)"/><path class="cls-2" d="M74.7377,62.5523H51.8453l.4932-.7455a13.7115,13.7115,0,0,1,2.22-2.5012A19.2941,19.2941,0,0,1,57.44,57.3022l.4662.84a18.6373,18.6373,0,0,0-2.7189,1.8894,12.4559,12.4559,0,0,0-1.4894,1.56H72.88a12.5511,12.5511,0,0,0-1.4912-1.56,18.6536,18.6536,0,0,0-2.719-1.8894l.4662-.84a19.31,19.31,0,0,1,2.8819,2.0034,13.8412,13.8412,0,0,1,2.2234,2.5Z" transform="translate(-7.0444 -18.6491)"/><path class="cls-7" d="M62.32,58.8508s-7.6108-.3424-7.9629-.8924,8.423-1.0181,8.423-1.0181Z" transform="translate(-7.0444 -18.6491)"/><path class="cls-2" d="M62.6953,59.3493l-.3965-.0179c-.0192-.0008-1.9332-.0877-3.8659-.2409-4.1317-.3277-4.3171-.6173-4.4807-.8728a.5352.5352,0,0,1-.0264-.5379c.1425-.2778.4349-.4343,1.79-.6277.7193-.1026,1.6989-.2064,2.9116-.3083,2.0566-.1728,4.1066-.283,4.1271-.2841l.6446-.0343Zm-6.29-1.4181c1.4331.168,3.5325.3229,5.5407.42l.2155-.8948C60.049,57.5793,57.8741,57.7544,56.405,57.9312Z" transform="translate(-7.0444 -18.6491)"/><path class="cls-7" d="M63.5135,58.8508s7.4058-.3424,7.7574-.8924S63.0542,56.94,63.0542,56.94Z" transform="translate(-7.0444 -18.6491)"/><path class="cls-2" d="M63.1386,59.35l-.7033-2.9253.6451.0352c.02.0011,2.0187.1109,4.0245.2837,1.183.1019,2.139.2055,2.8413.308,1.327.1937,1.6142.35,1.7563.6271a.5367.5367,0,0,1-.0263.5388c-.1632.2554-.3482.5449-4.3769.873-1.882.1533-3.745.24-3.7636.241Zm.5349-1.8922.2147.8934c1.9528-.0976,3.9942-.2524,5.3867-.42C67.8466,57.7548,65.73,57.58,63.6735,57.4576Z" transform="translate(-7.0444 -18.6491)"/><path class="cls-2" d="M65.3037,36.3636h-.9623a1.0593,1.0593,0,0,0-2.1057,0h-.9624a2.0184,2.0184,0,0,1,4.03,0Z" transform="translate(-7.0444 -18.6491)"/><path class="cls-5" d="M57.6733,48.6038v9.1186h11.23V48.5687" transform="translate(-7.0444 -18.6491)"/><polygon class="cls-2" points="62.34 39.555 50.148 39.555 50.148 29.955 51.11 29.955 51.11 38.592 61.378 38.592 61.378 29.919 62.34 29.919 62.34 39.555"/><path class="cls-5" d="M68.9036,42.3966v-.9781a5.6307,5.6307,0,0,0-11.23,0v.9467" transform="translate(-7.0444 -18.6491)"/><path class="cls-2" d="M69.3847,42.3966h-.9623v-.9781a5.151,5.151,0,0,0-10.2678,0v.9466h-.9623v-.9466a6.1105,6.1105,0,0,1,12.1926,0v.9781Z" transform="translate(-7.0444 -18.6491)"/><path class="cls-5" d="M67.269,48.8871H59.308a3.5618,3.5618,0,0,1-3.6865-3.4223,3.4411,3.4411,0,0,1,4.3154-3.244,12.9083,12.9083,0,0,0,6.7176-.0017,3.4381,3.4381,0,0,1,4.3009,3.2457A3.5617,3.5617,0,0,1,67.269,48.8871Z" transform="translate(-7.0444 -18.6491)"/><path class="cls-2" d="M67.269,49.3682H59.308a4.0465,4.0465,0,0,1-4.1675-3.9033,3.922,3.922,0,0,1,4.92-3.709,12.4454,12.4454,0,0,0,6.4709-.0019,3.919,3.919,0,0,1,4.9048,3.711A4.0464,4.0464,0,0,1,67.269,49.3682Zm-8.2133-6.7817a2.9659,2.9659,0,0,0-2.9529,2.8783,3.0852,3.0852,0,0,0,3.2052,2.941h7.961a3.0852,3.0852,0,0,0,3.2052-2.941,2.9186,2.9186,0,0,0-1.58-2.5354,2.8891,2.8891,0,0,0-2.1158-.2455,13.387,13.387,0,0,1-6.9626.0025A2.9531,2.9531,0,0,0,59.0557,42.5865Z" transform="translate(-7.0444 -18.6491)"/><path class="cls-2" d="M59.1845,42.8582a4.3451,4.3451,0,0,0,0,5.2133h-.0737a2.7129,2.7129,0,0,1-2.8074-2.6067,2.5094,2.5094,0,0,1,.8223-1.8434,2.9123,2.9123,0,0,1,1.9851-.7632Z" transform="translate(-7.0444 -18.6491)"/><path class="cls-2" d="M70.2735,45.4648a2.5086,2.5086,0,0,1-.8223,1.8433,2.9118,2.9118,0,0,1-1.9851.7633h-.0737a4.3451,4.3451,0,0,0,0-5.2133h.0737a2.7129,2.7129,0,0,1,2.8074,2.6067" transform="translate(-7.0444 -18.6491)"/><circle class="cls-8" cx="53.448" cy="26.6819" r="1.6498"/><circle class="cls-8" cx="58.9219" cy="26.6819" r="1.6498"/><path class="cls-5" d="M66.6264,45.3256a.6715.6715,0,1,1-.6715-.6715.6715.6715,0,0,1,.6715.6715h0" transform="translate(-7.0444 -18.6491)"/><path class="cls-5" d="M65.339,44.581a.2487.2487,0,1,1-.2487-.2486.2487.2487,0,0,1,.2487.2486" transform="translate(-7.0444 -18.6491)"/><path class="cls-5" d="M61.3349,45.3256a.6715.6715,0,1,1-.6714-.6715.6715.6715,0,0,1,.6714.6715h0" transform="translate(-7.0444 -18.6491)"/><path class="cls-5" d="M60.0475,44.581a.2487.2487,0,1,1-.2487-.2486.2487.2487,0,0,1,.2487.2486" transform="translate(-7.0444 -18.6491)"/><path class="cls-2" d="M48.8922,109.7688h-9.971a.4812.4812,0,1,1,0-.9623h9.971a.4812.4812,0,1,1,0,.9623Z" transform="translate(-7.0444 -18.6491)"/><path class="cls-2" d="M87.7437,109.7688h-9.971a.4812.4812,0,1,1,0-.9623h9.971a.4812.4812,0,1,1,0,.9623Z" transform="translate(-7.0444 -18.6491)"/><path class="cls-2" d="M64.9474,109.7688H61.8936a.4812.4812,0,1,1,0-.9623h3.0538a.4812.4812,0,1,1,0,.9623Z" transform="translate(-7.0444 -18.6491)"/><polygon class="cls-5" points="49.993 87.603 46.871 86.923 47.821 78.196 51.297 78.76 49.993 87.603"/><path class="cls-2" d="M57.4387,106.8316,53.39,105.95l1.0519-9.6618,4.4448.7219Zm-2.9981-1.6375,2.1963.4782,1.16-7.8639-2.5073-.4072Z" transform="translate(-7.0444 -18.6491)"/><path class="cls-4" d="M76.6091,89.9279c2.5765,7.4968,6.37-3.1277,5.7386-8.49l-5.2005-.5236Z" transform="translate(-7.0444 -18.6491)"/><path class="cls-2" d="M78.6288,93.0026c-.9772,0-1.8083-.9792-2.4748-2.9183l-.031-.09.0058-.0949.5679-9.5141,6.0837.6125.0452.3837a18.7463,18.7463,0,0,1-.813,7.01c-.47,1.5557-1.4886,4.2179-3.0332,4.57A1.58,1.58,0,0,1,78.6288,93.0026Zm-1.5337-3.142c.5277,1.498,1.1329,2.2853,1.67,2.1629.5672-.1292,1.5168-1.2308,2.3258-3.91a18.3774,18.3774,0,0,0,.815-6.2367l-4.3086-.4339Z" transform="translate(-7.0444 -18.6491)"/><path class="cls-5" d="M61.8934,110.5985c0,.9971-2.9106,2.0466-6.5007,2.0466s-6.5007-.9209-6.5007-2.0466a5.8692,5.8692,0,0,1,4.9343-5.4843l-.0051.0352a.5537.5537,0,0,0,.546.6093l2.18.11a.5721.5721,0,0,0,.6088-.4676l.0339-.234A5.8306,5.8306,0,0,1,61.8934,110.5985Z" transform="translate(-7.0444 -18.6491)"/><path class="cls-2" d="M55.3927,113.1263c-3.4695,0-6.9819-.8684-6.9819-2.5278a6.3257,6.3257,0,0,1,5.3144-5.9548l.6764-.1453-.1042.72c0,.0009-.0013.0091.01.023a.1137.1137,0,0,0,.0836.0368l2.1807.11a.1015.1015,0,0,0,.1082-.0554l.11-.7615.5164.129a6.3277,6.3277,0,0,1,5.0678,5.8982C62.3747,112.16,58.7506,113.1263,55.3927,113.1263Zm-1.9315-7.4244a5.2894,5.2894,0,0,0-4.0879,4.8966c0,.5313,2.1247,1.5654,6.0194,1.5654a14.9473,14.9473,0,0,0,4.4463-.6254c1.2933-.4255,1.5733-.8562,1.5733-.94a5.2876,5.2876,0,0,0-3.8715-4.83,1.0636,1.0636,0,0,1-1.0172.5805l-2.1805-.11a1.0779,1.0779,0,0,1-.7769-.3844A1.0387,1.0387,0,0,1,53.4612,105.7019Z" transform="translate(-7.0444 -18.6491)"/><path class="cls-9" d="M62.2185,112.0326c0,1.047-3.0562,2.149-6.8258,2.149s-6.8257-.9671-6.8257-2.149v-1.43s.6218,2.0424,6.8257,2.0424c6.2322,0,6.8258-2.108,6.8258-2.108Z" transform="translate(-7.0444 -18.6491)"/><path class="cls-2" d="M55.3927,114.2217c-3.7859,0-6.8658-.982-6.8658-2.1891v-1.43a.04.04,0,0,1,.0784-.0118c.0063.02.6971,2.0141,6.7874,2.0141,6.1181,0,6.7812-2.0581,6.7872-2.0788a.04.04,0,0,1,.0441-.0287.04.04,0,0,1,.0346.04v1.4955C62.2586,113.1783,58.986,114.2217,55.3927,114.2217Zm-6.7857-3.4426v1.2535c0,1.1629,3.044,2.1089,6.7857,2.1089,3.8215,0,6.7857-1.1336,6.7857-2.1089v-1.3145a2.6255,2.6255,0,0,1-1.0159.9079c-.85.4832-2.5416,1.0592-5.77,1.0592C50.1947,112.6852,48.9,111.2722,48.607,110.7791Z" transform="translate(-7.0444 -18.6491)"/><rect class="cls-2" x="54.3714" y="101.3938" width="0.9624" height="1.0793" transform="translate(-60.3498 124.5286) rotate(-82.5879)"/><polygon class="cls-5" points="65.794 87.091 62.604 87.275 61.175 78.613 64.675 78.223 65.794 87.091"/><path class="cls-2" d="M69.2439,106.4289,67.6617,96.84l4.4753-.4988L73.38,106.19Zm-.4677-8.745,1.2763,7.7345,2.2441-.13-.9955-7.8864Z" transform="translate(-7.0444 -18.6491)"/><path class="cls-5" d="M64.7716,110.5985c0,.9971,2.9106,2.0466,6.5007,2.0466s6.5007-.9209,6.5007-2.0466a5.8692,5.8692,0,0,0-4.9343-5.4843l.0051.0352a.5537.5537,0,0,1-.546.6093l-2.18.11a.5722.5722,0,0,1-.6088-.4676l-.0339-.234A5.8307,5.8307,0,0,0,64.7716,110.5985Z" transform="translate(-7.0444 -18.6491)"/><path class="cls-2" d="M71.2722,113.1263c-3.3578,0-6.9819-.9665-6.9819-2.5278A6.3276,6.3276,0,0,1,69.358,104.7l.5165-.129.11.7608c.0037.0252.0469.0588.1086.0561l2.18-.11a.1139.1139,0,0,0,.0839-.0368c.0114-.0139.01-.022.01-.0254l-.1038-.7175.6763.1453a6.3257,6.3257,0,0,1,5.3146,5.9548C78.2542,112.2579,74.7417,113.1263,71.2722,113.1263Zm-2.1479-7.3575a5.2877,5.2877,0,0,0-3.8716,4.83c0,.0838.28.5146,1.5733.94a14.9477,14.9477,0,0,0,4.4462.6253c3.8948,0,6.02-1.0341,6.02-1.5654a5.2894,5.2894,0,0,0-4.0881-4.8966,1.0312,1.0312,0,0,1-.1049.1528,1.0782,1.0782,0,0,1-.7772.3845l-2.18.11A1.0669,1.0669,0,0,1,69.1243,105.7688Z" transform="translate(-7.0444 -18.6491)"/><rect class="cls-2" x="70.6946" y="101.4825" width="1.6563" height="0.9624" transform="translate(-19.6097 -8.5619) rotate(-7.4178)"/><path class="cls-9" d="M64.43,111.98c0,1.047,3.0625,2.149,6.84,2.149s6.84-.9671,6.84-2.149v-1.43s-.6231,2.0423-6.84,2.0423c-6.2451,0-6.84-2.108-6.84-2.108Z" transform="translate(-7.0444 -18.6491)"/><path class="cls-2" d="M71.27,114.1691c-3.6008,0-6.88-1.0434-6.88-2.1891v-1.4955a.04.04,0,0,1,.0346-.04.0392.0392,0,0,1,.0441.0287c.0061.0207.6706,2.0787,6.8013,2.0787,6.103,0,6.7954-1.994,6.8017-2.0141a.04.04,0,0,1,.0784.0119v1.43C78.15,113.1871,75.0637,114.1691,71.27,114.1691Zm-6.8-3.5038V111.98c0,.9753,2.97,2.1088,6.8,2.1088,3.7494,0,6.8-.946,6.8-2.1088v-1.2538c-.2936.493-1.59,1.9064-6.8,1.9064-3.2348,0-4.9295-.576-5.7815-1.0592A2.629,2.629,0,0,1,64.47,110.6653Z" transform="translate(-7.0444 -18.6491)"/><path class="cls-3" d="M78.9331,81.1705l2.4448-.0275a.7958.7958,0,0,1,.7428.456L83.37,84.4212a.7393.7393,0,0,1-.721,1.0109l-4.7649.0536a.7412.7412,0,0,1-.7533-.97l1.0609-2.848A.7927.7927,0,0,1,78.9331,81.1705Z" transform="translate(-7.0444 -18.6491)"/><path class="cls-2" d="M77.8737,85.9668a1.2813,1.2813,0,0,1-1.0527-.5359,1.1566,1.1566,0,0,1-.1416-1.0833l1.0653-2.86a1.2671,1.2671,0,0,1,1.1819-.7986h.0052l2.4369-.0273a1.2749,1.2749,0,0,1,1.1872.7317l.0048.0106L83.81,84.2266a1.1686,1.1686,0,0,1-.0876,1.1078,1.2777,1.2777,0,0,1-1.0682.5789l-4.7649.0534Zm.7656-4.1242-1.058,2.8409a.2029.2029,0,0,0,.027.1939.3125.3125,0,0,0,.27.127l4.7649-.0535a.3191.3191,0,0,0,.2695-.1369.2022.2022,0,0,0,.017-.1981L81.6836,81.8a.3161.3161,0,0,0-.2917-.1763l-.0085,0-2.4541.0275h-.0025A.31.31,0,0,0,78.6393,81.8426Z" transform="translate(-7.0444 -18.6491)"/><rect class="cls-3" x="81.4818" y="85.4377" width="1.3709" height="2.486" transform="translate(-8.0101 -17.7233) rotate(-0.6418)"/><path class="cls-2" d="M81.0263,88.418,80.9875,84.97l2.3332-.026.0387,3.4481Zm.9343-2.4967.0172,1.5236.4085-.0045-.0172-1.5238Z" transform="translate(-7.0444 -18.6491)"/><rect class="cls-3" x="77.4668" y="85.4823" width="1.3709" height="2.1531" transform="translate(-8.009 -17.7683) rotate(-0.6418)"/><path class="cls-2" d="M77.0092,88.13l-.035-3.1154,2.3332-.0261.035,3.1152Zm.9382-2.1638.0133,1.1906.4085-.0045-.0134-1.1908Z" transform="translate(-7.0444 -18.6491)"/><rect class="cls-3" x="79.8475" y="85.4549" width="1.5827" height="3.3584" transform="translate(-8.0153 -17.7404) rotate(-0.6418)"/><path class="cls-2" d="M79.3968,89.3089l-.0484-4.3207,2.545-.0286.0484,4.3208Zm.9246-3.3691.0268,2.396.62-.007-.0269-2.396Z" transform="translate(-7.0444 -18.6491)"/><path class="cls-2" d="M66.1044,53.3606a2.5338,2.5338,0,0,1-1.0292.2035,4.8327,4.8327,0,0,1-.98-.12c-.3144-.066-.62-.1449-.9278-.211a5.9476,5.9476,0,0,0-.9341-.1372,6.0268,6.0268,0,0,1,.9538-.0107c.3182.0174.6347.0475.9465.0629a4.4628,4.4628,0,0,0,.9089-.03,2.0084,2.0084,0,0,0,.7869-.2868.3.3,0,0,1,.3249.5038.304.304,0,0,1-.04.0217Z" transform="translate(-7.0444 -18.6491)"/><path class="cls-10" d="M57.6735,37.6187c-3.58.0871-8.771,3.72-9.0123,5.5233,6.486-5.0082,8.9642-1.8032,14.4143-1.8032s10.1291-2.9552,15.1291,2.313c.0624-2.2753-5.6021-5.946-9.1819-6.0331-4.7315-5.2178-2.0687-14.9878-2.2392-16.79S60.2038,32.0516,57.6735,37.6187Z" transform="translate(-7.0444 -18.6491)"/><path class="cls-2" d="M78.654,44.8242l-.7983-.8411c-3.4727-3.6588-6.6951-3.1668-10.427-2.5969a28.541,28.541,0,0,1-4.3532.4338,20.23,20.23,0,0,1-4.3519-.5593c-3.0083-.6273-5.3848-1.1227-9.7683,2.2622l-.9262.7153.1551-1.16c.1629-1.2173,1.9-2.7332,3.47-3.7458a13.1537,13.1537,0,0,1,5.7024-2.1795c1.1437-2.501,3.141-6.6691,4.9858-10.2509,1.0155-1.9717,1.8625-3.53,2.5176-4.6329,1.1115-1.8707,1.4876-2.1546,1.9111-2.0839a.602.602,0,0,1,.4912.5978,13.1607,13.1607,0,0,1-.1792,2.2182c-.4419,3.5721-1.2592,10.1829,2.1638,14.1451a14.3059,14.3059,0,0,1,8.1834,4.0441,3.6829,3.6829,0,0,1,1.255,2.4743ZM71.23,40.0306a10.8077,10.8077,0,0,1,1.6549.1211A8.8639,8.8639,0,0,1,76.3327,41.46c-1.7864-1.6447-4.9642-3.303-7.3216-3.36l-.2061-.005-.1385-.1528c-3.8723-4.27-3.0043-11.2883-2.538-15.0587.0459-.3711.0893-.7215.1223-1.0282-.5349.8117-1.5167,2.4856-3.282,5.9353-1.85,3.616-3.7727,7.6418-4.8569,10.0274l-.1247.2747-.3015.0073a11.6954,11.6954,0,0,0-5.5092,2.0416,14.2024,14.2024,0,0,0-1.3658.9944,10.086,10.086,0,0,1,3.44-1.2027,12.9627,12.9627,0,0,1,4.67.3856,19.4486,19.4486,0,0,0,4.1555.5391,27.8159,27.8159,0,0,0,4.2079-.4227A26.24,26.24,0,0,1,71.23,40.0306Z" transform="translate(-7.0444 -18.6491)"/><path class="cls-4" d="M64.107,32.3814c.9652,2.57,4.7483,5.5452,4.7483,5.5452-4.7315-5.2178-1.9012-15.2957-2.0717-17.0982S63.1418,29.8114,64.107,32.3814Z" transform="translate(-7.0444 -18.6491)"/><path class="cls-7" d="M64.4491,58.8508l6.7726-.4542c5.2333,4.3206,8.3712,17.031,11.126,23.0411a4.9468,4.9468,0,0,0-4.5748,1.8766c-1.2205,1.3113-1.164,3.3665-1.5333,6.2a30.6076,30.6076,0,0,1-3.4012-9.28l1.4744,21.8437c-3.1406,1.3174-6.0565,1.5876-10.1189,1.1789Z" transform="translate(-7.0444 -18.6491)"/><path class="cls-2" d="M67.39,103.9141a32.4437,32.4437,0,0,1-3.2439-.1794l-.4355-.0438.26-45.29,7.41-.4969.1476.1219c3.8456,3.1749,6.5859,10.7506,8.7879,16.8378.8708,2.4076,1.6935,4.6818,2.4691,6.3739l.3124.6817h-.8486a4.4154,4.4154,0,0,0-4.1238,1.7233c-.8644.9288-1.0141,2.3427-1.2213,4.3-.055.519-.1118,1.0558-.1872,1.6341l-.1713,1.3145-.7117-1.1183a25.1632,25.1632,0,0,1-2.195-4.8272l1.1774,17.4429-.317.1327A17.442,17.442,0,0,1,67.39,103.9141Zm-2.7121-1.0954a18.4865,18.4865,0,0,0,9.1318-1.0555L72.3583,80.2658l.9522-.1256a32.7831,32.7831,0,0,0,2.6232,7.8248l.0131-.1244c.2183-2.0617.3907-3.69,1.4739-4.854a5.1157,5.1157,0,0,1,4.189-2.0259c-.7009-1.6291-1.4312-3.6481-2.1989-5.77C77.2774,69.2929,74.6294,61.9722,71.06,58.89l-6.1322.4112Z" transform="translate(-7.0444 -18.6491)"/><path class="cls-7" d="M62.2239,58.9432l-7.9-.5466c-6.64,6.8123-10.4178-5.0264-10.4178-5.0264a44.135,44.135,0,0,1-1.39,24.26c4.0091,6.8812,7.8527,6.0891,9.0161,3.8077L51.368,102.077c2.9544,1.6821,6.3052,1.7368,10.4063,1.26Z" transform="translate(-7.0444 -18.6491)"/><path class="cls-2" d="M57.9475,104.0766a13.4955,13.4955,0,0,1-6.8174-1.5814l-.2454-.14L51.04,82.8005a3.3685,3.3685,0,0,1-2.037.7459c-1.3249.0385-3.9762-.6511-6.9029-5.6741l-.1115-.1914.0729-.2093a43.9365,43.9365,0,0,0,1.3743-24l.929-.2471c.0189.0592,1.9368,5.9438,5.2343,6.721,1.3722.3234,2.8464-.31,4.38-1.8843l.1556-.1595,8.5743.5933-.0045.4535-.4539,44.818-.4213.049A33.7738,33.7738,0,0,1,57.9475,104.0766Zm-6.0959-2.2824c2.7129,1.4486,5.7593,1.5126,9.4459,1.1123l.4407-43.5147-7.2275-.5c-1.7339,1.7156-3.46,2.3846-5.1338,1.99-1.9-.4487-3.3546-2.2032-4.3476-3.8883a45.5584,45.5584,0,0,1,.345,8.958,44.3236,44.3236,0,0,1-2.3308,11.6261c1.9268,3.2371,4.0851,5.0586,5.9328,5.0071a2.4131,2.4131,0,0,0,2.1273-1.3652l.926-1.8159Z" transform="translate(-7.0444 -18.6491)"/><path class="cls-11" d="M40.7686,43.0275a22.0014,22.0014,0,0,1,.2491,3.3179v64.0129h.9159V46.6775a24.2983,24.2983,0,0,1,.2795-3.7063C41.7309,42.9752,41.2484,42.9871,40.7686,43.0275Z" transform="translate(-7.0444 -18.6491)"/><path class="cls-2" d="M42.4572,42.9694c-.1633.0005-.3264.0037-.49.0063a24.6264,24.6264,0,0,0-.2746,3.7018v63.3911h-.4347V46.346a22.3056,22.3056,0,0,0-.2467-3.3324c-.1613.0106-.3221.0255-.4828.0423a21.6146,21.6146,0,0,1,.2483,3.2895V110.648h1.397V46.6768A23.924,23.924,0,0,1,42.4572,42.9694Z" transform="translate(-7.0444 -18.6491)"/><path class="cls-2" d="M61.1773,37.2462a20.1485,20.1485,0,0,1,4-.0917,12.9551,12.9551,0,0,1,3.7026.7206c.1076.0413.1542-.1318.0476-.1726a13.0137,13.0137,0,0,0-3.6705-.7211,20.1629,20.1629,0,0,0-4.0795.0859c-.1126.0143-.1142.1936,0,.1789Z" transform="translate(-7.0444 -18.6491)"/><path class="cls-2" d="M63.0993,36.2077a9.1225,9.1225,0,0,1,2.6489-.09,6.3526,6.3526,0,0,1,2.4678.7128.09.09,0,0,0,.09-.1546,6.5073,6.5073,0,0,0-2.4808-.7288,9.2862,9.2862,0,0,0-2.7739.0877C62.9386,36.0564,62.9866,36.229,63.0993,36.2077Z" transform="translate(-7.0444 -18.6491)"/><path class="cls-2" d="M64.23,35.3228a3.8134,3.8134,0,0,1,3.3812.609c.0877.0738.2149-.0523.1267-.1267a3.9961,3.9961,0,0,0-3.5555-.6551.09.09,0,0,0,.0476.1728Z" transform="translate(-7.0444 -18.6491)"/><path d="M89.7723,51.6324a.2807.2807,0,0,1,0-.5614,2.188,2.188,0,1,0-2.1881-2.1879.2807.2807,0,1,1-.5614,0,2.7494,2.7494,0,1,1,2.7495,2.7493Z" transform="translate(-7.0444 -18.6491)"/><path d="M86.149,50.9477a.2807.2807,0,0,1,0-.5614,2.0285,2.0285,0,0,0,0-4.0569.2807.2807,0,0,1,0-.5614,2.59,2.59,0,0,1,0,5.18Z" transform="translate(-7.0444 -18.6491)"/><path d="M84.6538,47.8247a1.776,1.776,0,1,1,1.7759-1.776.2807.2807,0,1,1-.5614,0,1.2146,1.2146,0,1,0-1.2146,1.2146.2807.2807,0,1,1,0,.5614Z" transform="translate(-7.0444 -18.6491)"/><path d="M83.994,62.3913a2.8079,2.8079,0,1,1,1.4292-5.2276.2806.2806,0,1,1-.2847.4837,2.2471,2.2471,0,1,0,1.1068,1.9365,2.3062,2.3062,0,0,0-.0135-.2472.2807.2807,0,0,1,.5582-.0607,2.8644,2.8644,0,0,1,.0167.3079,2.8073,2.8073,0,0,1-2.8127,2.8074Z" transform="translate(-7.0444 -18.6491)"/><path d="M86.5262,59.48a1.9048,1.9048,0,0,1-1.9026-1.9027,1.6313,1.6313,0,0,1,.9673-1.6469.2807.2807,0,0,1,.1563.5392c-.3692.107-.5623.6382-.5623,1.1077a1.3413,1.3413,0,0,0,2.6807.07.7226.7226,0,0,1,.0739-.2824.7342.7342,0,0,1,.557-.4035,1.3376,1.3376,0,0,0-.1908-2.6615.2808.2808,0,0,1,0-.5615h0a1.8991,1.8991,0,0,1,.27,3.7788.1739.1739,0,0,0-.1326.0958.1613.1613,0,0,0-.0169.0644A1.9018,1.9018,0,0,1,86.5262,59.48Z" transform="translate(-7.0444 -18.6491)"/><path d="M85.7564,52.0319a.2807.2807,0,0,1-.2043-.473,1.1625,1.1625,0,0,0-1.6926-1.594.2807.2807,0,0,1-.4085-.3852,1.7239,1.7239,0,0,1,2.51,2.3638A.28.28,0,0,1,85.7564,52.0319Z" transform="translate(-7.0444 -18.6491)"/><path class="cls-12" d="M60.1576,52.9038,58.3158,67.2755c-.683-3.094-2.5486-4.6967-2.7913-7.9058C55.2586,55.8551,56.2965,52.5171,60.1576,52.9038Z" transform="translate(-7.0444 -18.6491)"/><path class="cls-2" d="M58.3787,68.6769l-.2979-1.35a14.5721,14.5721,0,0,0-1.34-3.4461,11.58,11.58,0,0,1-1.4566-4.4934c-.194-2.5645.3283-4.5906,1.4706-5.7055a4.0894,4.0894,0,0,1,3.4265-1.0178l.2462.0247Zm1.1889-15.563a3.4037,3.4037,0,0,0-2.4763.9128c-1.0387,1.0137-1.51,2.9047-1.3269,5.3248a11.036,11.036,0,0,0,1.4079,4.316,19.4073,19.4073,0,0,1,1.0552,2.4046l1.6594-12.9485Q59.7243,53.114,59.5676,53.1139Z" transform="translate(-7.0444 -18.6491)"/><path class="cls-13" d="M59.4668,54.5267,58.17,64.6488c-.4811-2.1791-1.795-3.3079-1.9659-5.5681C56.0164,56.6053,56.7474,54.2543,59.4668,54.5267Z" transform="translate(-7.0444 -18.6491)"/><path class="cls-12" d="M61.9847,53.6649C60.85,58.83,60.89,65.8971,59.3982,68.0941c-.3482-3.6892-2.2121-5.2085-1.9842-8.6525C57.6248,56.2567,58.8966,53.4146,61.9847,53.6649Z" transform="translate(-7.0444 -18.6491)"/><path class="cls-2" d="M59.2214,68.7823l-.0628-.6657a14.1829,14.1829,0,0,0-1.0572-3.9981,10.1662,10.1662,0,0,1-.9274-4.693c.11-1.6559.5435-3.8916,1.9886-5.1385a3.7255,3.7255,0,0,1,2.8415-.862l.2748.0222-.0592.2692a66.8366,66.8366,0,0,0-.968,6.662c-.39,3.48-.7265,6.4844-1.6545,7.8506ZM61.6153,53.89a3.1719,3.1719,0,0,0-2.1384.7612c-1.0291.8881-1.6765,2.5949-1.8229,4.8059a9.7763,9.7763,0,0,0,.8967,4.4892,15.9477,15.9477,0,0,1,.99,3.3567,31.3333,31.3333,0,0,0,1.2331-6.9783c.2438-2.1758.4955-4.4225.9166-6.434Z" transform="translate(-7.0444 -18.6491)"/><path class="cls-13" d="M61.4261,55.2341c-.81,3.6841-.7806,8.7246-1.8449,10.2916-.2483-2.6313-1.5777-3.715-1.4152-6.1715C58.3164,57.0826,59.2235,55.0556,61.4261,55.2341Z" transform="translate(-7.0444 -18.6491)"/><path class="cls-12" d="M63.6019,53.7644c-1.1051,5.8529.2581,13.5112-2.4245,15.1159-.46-3.4949-1.4215-3.7345-1.8361-5.7313a13.4324,13.4324,0,0,1-.2677-3.5069C59.2553,56.6784,60.5681,54.0644,63.6019,53.7644Z" transform="translate(-7.0444 -18.6491)"/><path class="cls-2" d="M60.9867,69.2748l-.0478-.3631a10.4592,10.4592,0,0,0-1.1173-3.7763,7.4268,7.4268,0,0,1-.7159-1.9375,13.6781,13.6781,0,0,1-.2723-3.569c.2208-3.6033,1.95-5.8275,4.7447-6.1039l.32-.0316-.06.3157a44.6544,44.6544,0,0,0-.5408,6.8766c-.11,3.9325-.2042,7.3289-1.9966,8.4011Zm2.32-15.23c-3.3185.5377-3.899,4.0784-3.9929,5.6116a13.1885,13.1885,0,0,0,.263,3.4426,6.9342,6.9342,0,0,0,.6768,1.8237,10.554,10.554,0,0,1,1.1048,3.521c1.2745-1.183,1.3638-4.39,1.458-7.772A47.5887,47.5887,0,0,1,63.3067,54.0453Z" transform="translate(-7.0444 -18.6491)"/><path class="cls-13" d="M63.0755,55.5127c-.8494,4.4989.1984,10.3857-1.8636,11.6192-.3536-2.6865-1.0927-2.8706-1.4113-4.4055a10.32,10.32,0,0,1-.2058-2.6957C59.7344,57.7526,60.7435,55.7434,63.0755,55.5127Z" transform="translate(-7.0444 -18.6491)"/><path class="cls-12" d="M67.1584,52.8839,69,67.2556c.683-3.094,2.5486-4.6967,2.7913-7.9058C72.0574,55.8352,71.02,52.4972,67.1584,52.8839Z" transform="translate(-7.0444 -18.6491)"/><path class="cls-2" d="M68.9374,68.6569l-2.049-15.9877.2461-.0247a4.09,4.09,0,0,1,3.4264,1.0178c1.1424,1.1149,1.6647,3.1412,1.4707,5.7055a11.58,11.58,0,0,1-1.4566,4.4935,14.585,14.585,0,0,0-1.34,3.446ZM67.4291,53.1037l1.6595,12.9486a19.3626,19.3626,0,0,1,1.0552-2.4046,11.0376,11.0376,0,0,0,1.4079-4.3159c.1831-2.42-.2882-4.3112-1.327-5.325A3.5284,3.5284,0,0,0,67.4291,53.1037Z" transform="translate(-7.0444 -18.6491)"/><path class="cls-13" d="M67.6355,53.8821l1.3,10.122c.4819-2.179,1.7985-3.3079,1.97-5.5681C71.0924,55.9606,70.36,53.61,67.6355,53.8821Z" transform="translate(-7.0444 -18.6491)"/><path class="cls-14" d="M80.6405,62.633a1.94,1.94,0,0,0,3.263,2.09,1.811,1.811,0,0,0,.1513-.292c.023-.0574.0432-.1157.06-.1742a6.1532,6.1532,0,0,0-3.1393-2.0108c-.046.04-.0906.0825-.1331.1274A1.8032,1.8032,0,0,0,80.6405,62.633Z" transform="translate(-7.0444 -18.6491)"/><path class="cls-2" d="M82.35,65.7931a2.2472,2.2472,0,0,1-2.17-1.6962,2.0345,2.0345,0,0,1,.2586-1.5937h0a2.0464,2.0464,0,0,1,.2289-.2942q.0739-.078.1512-.1448L80.88,62.01l.082-.0046a6.1726,6.1726,0,0,1,3.3764,2.1629l.03.0763-.0228.0787c-.0189.0652-.0416.1314-.0678.1967A2.0422,2.0422,0,0,1,82.35,65.7931Zm-1.5067-3.03a1.5571,1.5571,0,0,0-.1963,1.22,1.7325,1.7325,0,0,0,.7575,1.0493,1.6565,1.6565,0,0,0,2.2966-.439,1.57,1.57,0,0,0,.1311-.2529c.0081-.02.0157-.04.0228-.0606a6.7053,6.7053,0,0,0-2.7911-1.788c-.0157.0153-.0313.0312-.0467.0473a1.5542,1.5542,0,0,0-.1739.2235Z" transform="translate(-7.0444 -18.6491)"/><circle class="cls-5" cx="73.8706" cy="44.6199" r="0.2234"/><path class="cls-15" d="M80.855,62.298a.1087.1087,0,0,0-.0126.0755c.0361.2442.6271.7905,1.4294,1.3045a3.6752,3.6752,0,0,0,1.7829.7532.1092.1092,0,0,0,.0634-.043.1439.1439,0,0,0-.0032-.1312,6.1532,6.1532,0,0,0-3.1393-2.0108A.144.144,0,0,0,80.855,62.298Z" transform="translate(-7.0444 -18.6491)"/><path class="cls-2" d="M83.98,64.68a5.06,5.06,0,0,1-1.8378-.8c-.2426-.1554-1.4532-.9542-1.5367-1.4664a.3482.3482,0,0,1,.0417-.2369l.0228-.0327a.3878.3878,0,0,1,.3054-.1392,6.2424,6.2424,0,0,1,3.3586,2.1513.3857.3857,0,0,1,.0012.3357l-.02.0347a.35.35,0,0,1-.1976.1365A.5126.5126,0,0,1,83.98,64.68Zm-2.7679-2.1526a7.3843,7.3843,0,0,0,2.5474,1.6313,7.32,7.32,0,0,0-2.5474-1.6313Z" transform="translate(-7.0444 -18.6491)"/><path class="cls-14" d="M66.0056,53.7906,80.4239,63.12l.3673-.5734L66.288,53.35c-.2832-.18-.5735-.2269-.6508-.1061h0C65.56,53.3645,65.7241,53.6084,66.0056,53.7906Z" transform="translate(-7.0444 -18.6491)"/><path class="cls-2" d="M80.4962,63.4531l-14.6213-9.46c-.4176-.27-.5987-.6315-.44-.8787s.5623-.2337.9823.0326L81.124,62.4727ZM65.969,53.4562a1.06,1.06,0,0,0,.1674.1325l14.2153,9.1978.1065-.1662L66.1592,53.553A1.0619,1.0619,0,0,0,65.969,53.4562Z" transform="translate(-7.0444 -18.6491)"/><path class="cls-12" d="M65.3314,53.645c1.1351,5.1652,1.0943,12.2322,2.5866,14.4292.3482-3.6892,2.2121-5.2085,1.9842-8.6525C69.6913,56.2368,68.4194,53.3948,65.3314,53.645Z" transform="translate(-7.0444 -18.6491)"/><path class="cls-2" d="M68.0947,68.7624l-.3757-.5532c-.928-1.3662-1.2648-4.3711-1.6545-7.8506a66.8929,66.8929,0,0,0-.968-6.6621l-.0592-.2692.2747-.0222a3.7279,3.7279,0,0,1,2.8415.862c1.4451,1.2469,1.8791,3.4827,1.9888,5.1385a10.167,10.167,0,0,1-.9274,4.6929,14.176,14.176,0,0,0-1.0573,3.9981ZM65.6259,53.871c.4211,2.0115.6729,4.2583.9167,6.434a31.3342,31.3342,0,0,0,1.233,6.9782,15.9406,15.9406,0,0,1,.99-3.3566,9.7787,9.7787,0,0,0,.8967-4.4891c-.1464-2.2112-.7938-3.918-1.823-4.806A3.1874,3.1874,0,0,0,65.6259,53.871Z" transform="translate(-7.0444 -18.6491)"/><path class="cls-13" d="M65.6724,54.5894c.8112,3.6841.7821,8.7247,1.8484,10.2916.2488-2.6313,1.5808-3.7149,1.418-6.1714C68.7881,56.438,67.8792,54.4109,65.6724,54.5894Z" transform="translate(-7.0444 -18.6491)"/><path class="cls-12" d="M63.7142,53.7445c1.1051,5.8528-.2581,13.5111,2.4245,15.1158.46-3.4948,1.4215-3.7345,1.836-5.7312a13.4288,13.4288,0,0,0,.2677-3.507C68.0608,56.6585,66.7479,54.0445,63.7142,53.7445Z" transform="translate(-7.0444 -18.6491)"/><path class="cls-2" d="M66.3294,69.2548l-.3143-.188c-1.7925-1.0722-1.887-4.4684-1.9965-8.401a44.6681,44.6681,0,0,0-.5409-6.8767l-.06-.3157.32.0316c2.7944.2764,4.5238,2.5006,4.7447,6.1024a13.6806,13.6806,0,0,1-.2725,3.5712,7.4273,7.4273,0,0,1-.7158,1.9368,10.4594,10.4594,0,0,0-1.1171,3.7762Zm-2.32-15.2294a47.59,47.59,0,0,1,.49,6.6271c.0942,3.3816.1835,6.5888,1.4582,7.7718a10.5563,10.5563,0,0,1,1.1048-3.521,6.9369,6.9369,0,0,0,.6767-1.823,13.1913,13.1913,0,0,0,.2631-3.4448C67.9083,58.1036,67.3278,54.563,64.0093,54.0254Z" transform="translate(-7.0444 -18.6491)"/><path class="cls-13" d="M64.02,54.8681c.8511,4.4989-.1988,10.3857,1.8672,11.6191.3542-2.6864,1.0948-2.8706,1.4141-4.4054a10.3079,10.3079,0,0,0,.2062-2.6957C67.3673,57.108,66.3562,55.0987,64.02,54.8681Z" transform="translate(-7.0444 -18.6491)"/><path class="cls-12" d="M63.57,53.8638l1.0574,2.1191c1.1529,2.3107,1.66,7.4873-.9362,14.0358C60.965,63.52,61.3113,58.2574,62.5242,55.8975Z" transform="translate(-7.0444 -18.6491)"/><path class="cls-2" d="M63.697,70.6558l-.2281-.544c-2.645-6.3062-2.4879-11.7382-1.1587-14.3241l1.2626-2.4563,1.2694,2.5442a12.286,12.286,0,0,1,.9633,5.5414,25.57,25.57,0,0,1-1.8911,8.6905Zm-.1307-16.2594-.8281,1.6113c-1.2392,2.4111-1.4017,7.4366.9461,13.3582,2.1707-5.8169,1.9481-10.829.7273-13.2755Z" transform="translate(-7.0444 -18.6491)"/><path class="cls-13" d="M63.5788,55.34l.6187,1.7319c.6747,1.8884.9716,6.1191-.5477,11.4711-1.5949-5.3113-1.3923-9.6122-.6826-11.5409Z" transform="translate(-7.0444 -18.6491)"/><path class="cls-12" d="M58.6686,51.8472c-.8268,1.832.8589,5.6837,1.57,8.9588-.049-3-.5415-7.1891.0388-7.6987s6.0351-.6463,6.5754-.0419-.1047,4.5983-.3381,7.5089c1.3584-3.0349,2.34-7.4458,1.7547-8.81C67.6968,50.43,59.2963,50.4562,58.6686,51.8472Z" transform="translate(-7.0444 -18.6491)"/><path class="cls-2" d="M66.28,61.4907l.0745-.9291c.0618-.7718.1536-1.629.2422-2.458.2279-2.128.4861-4.54.1362-4.9313a7.2405,7.2405,0,0,0-3.1507-.3433,8.9969,8.9969,0,0,0-3.1993.3989c-.346.3038-.22,2.6141-.1087,4.6524.054.989.11,2.0117.1246,2.9232l-.3171.0366c-.2088-.9622-.5055-1.9861-.7925-2.9762-.7063-2.4366-1.3733-4.738-.7665-6.0826.4284-.9491,3.5419-1.1734,5.3135-1.1571.6906.0065,4.1569.0891,4.58,1.0769.6287,1.4665-.4083,5.9289-1.7557,8.9389Zm-2.3333-8.9853c1.0021,0,2.6748.0609,3.0254.4531.4149.4642.2555,2.2663-.0563,5.1793-.05.4678-.1011.9444-.1471,1.4093,1.1684-3.01,1.8274-6.6128,1.3529-7.72-.21-.49-2.0137-.861-4.2887-.8825-2.6011-.0254-4.7577.3916-5.0179.9683h0c-.5583,1.2368.0929,3.4831.7822,5.8613.1445.4986.2914,1.0057.4288,1.51-.0216-.4595-.0471-.9268-.0722-1.3868-.1523-2.7925-.2233-4.5237.2175-4.9108.4818-.4231,3.1083-.4741,3.4062-.4785C63.6842,52.5066,63.809,52.5054,63.9464,52.5054Z" transform="translate(-7.0444 -18.6491)"/><path class="cls-13" d="M59.0514,52.0047c-.646,1.4314.1826,3.5845.7379,6.1436-.0383-2.3441-.4535-4.9993,0-5.3974s6.9565-.6464,7.3786-.1742.1729,2.75-.01,5.0239c1.0614-2.3714,1.1031-4.6543.6461-5.72C67.3577,50.8381,59.5419,50.9179,59.0514,52.0047Z" transform="translate(-7.0444 -18.6491)"/><path class="cls-16" d="M63.0323,66.0192" transform="translate(-7.0444 -18.6491)"/><path class="cls-16" d="M63.446,55.1057" transform="translate(-7.0444 -18.6491)"/><path class="cls-4" d="M72.5051,80.2085a76.8,76.8,0,0,1-.2735-9.7192c.1266,6.8461,2.0773,12.7984,4.0436,18.7431C75.3662,86.9022,74.0152,83.9051,72.5051,80.2085Z" transform="translate(-7.0444 -18.6491)"/><path class="cls-4" d="M43.0467,76.8813c2.15,2.4567,8.3092,2.3232,9.6924-6.392l-.8962,9.7112c-1.672,4.2609-5.2535,3.3158-9.0338-2.5706Z" transform="translate(-7.0444 -18.6491)"/><path class="cls-5" d="M63.2551,47.1942c-.3019,1.0035-.7393,1.9381-.989,2.8831a.4213.4213,0,0,0,.214.485,1.93,1.93,0,0,0,1.7948,0,.4541.4541,0,0,0,.2068-.4851c-.2712-1.0409-.69-1.9827-.9818-2.883a.1271.1271,0,0,0-.2448,0Z" transform="translate(-7.0444 -18.6491)"/><path class="cls-2" d="M63.3588,51.0245a2.14,2.14,0,0,1-.9889-.2484l-.0206-.012a.6669.6669,0,0,1-.3158-.7484c.1386-.5247.3366-1.0538.5282-1.5655.1606-.4293.3269-.8733.4625-1.3239a.37.37,0,0,1,.2541-.252.3674.3674,0,0,1,.4515.2492c.1083.3339.2334.6709.3656,1.0275a19.3246,19.3246,0,0,1,.6191,1.8655.6891.6891,0,0,1-.342.7655A2.3611,2.3611,0,0,1,63.3588,51.0245Zm-.7572-.67a1.6878,1.6878,0,0,0,1.5705-.0094c.0678-.03.0846-.1674.0764-.2086a19.0038,19.0038,0,0,0-.6043-1.8177c-.0922-.2485-.1807-.4875-.2633-.7241-.1159.35-.2438.6918-.3685,1.0249-.196.5236-.3812,1.0182-.5136,1.52C62.4833,50.1964,62.4817,50.2727,62.6016,50.3542Z" transform="translate(-7.0444 -18.6491)"/></g><path class="cls-17" d="M42.4,34.0372a3.3821,3.3821,0,0,0-.0569-.6037v-.3268a1.2908,1.2908,0,0,0-.6357-1.1095,3.3586,3.3586,0,0,0-2.6751-1.3278h-27.4a3.3678,3.3678,0,0,0-3.3678,3.3678V47.95a3.3678,3.3678,0,0,0,3.3678,3.3677H39.0324a3.3712,3.3712,0,0,0,.7188-.0787v58.1134a1.296,1.296,0,0,0,2.592,0V48.5534A3.3829,3.3829,0,0,0,42.4,47.95Z" transform="translate(-7.0444 -18.6491)"/><path class="cls-8" d="M39.4648,48.2556l-.3044-.1264a.9659.9659,0,0,0-.509-1.2309l-.174-.0722.0722-.174.1305.0541.0541-.1305a1.2869,1.2869,0,0,1,.6821.691,1.3174,1.3174,0,0,1,.0485.9889" transform="translate(-7.0444 -18.6491)"/><path class="cls-5" d="M39.7883,48.9506l-1.0463.4327a1.7,1.7,0,0,1-1.2979-3.1389,1.6273,1.6273,0,0,1,1.0939-.056l-.4151,1c-.0616.0254-.1486-.0107-.2282.0583a.5994.5994,0,0,0,.4581,1.1078c.0616-.0254.1231-.0509.1412-.0944l1.167.3823Zm-1.6243-.8779a.2331.2331,0,1,1,.1264-.3044A.2275.2275,0,0,1,38.164,48.0727Zm.4522-.4752a.4071.4071,0,0,0-.2069-.2388l.2527-.609h0l.3068-.7394-.174-.0722a1.9557,1.9557,0,0,0-2.5609,2.6084,2.0512,2.0512,0,0,0,2.5738,1.17h0l1.4156-.5854-.3309-.8L38.62,47.9561A.5086.5086,0,0,0,38.6162,47.5975Z" transform="translate(-7.0444 -18.6491)"/><path class="cls-18" d="M39.0327,45.119l-.0722.174-.174-.0722.0722-.174Zm-.9667.3637-.0722.174-.174-.0722.0722-.174Zm.4373-.6853a.1332.1332,0,1,0-.0722.174.1431.1431,0,0,0,.0722-.174" transform="translate(-7.0444 -18.6491)"/><path class="cls-5" d="M37.2464,47.3351a.1434.1434,0,0,1-.174-.0722l-.56-1.354a.1332.1332,0,1,1,.2462-.1018l.56,1.354c.0074.105-.0106.1485-.0722.174m.5021-.9644-.229-.5539a.1332.1332,0,0,0-.2462.1018l.2291.5539a.7117.7117,0,0,1,.2461-.1018" transform="translate(-7.0444 -18.6491)"/><path class="cls-19" d="M10.6753,38.1454V34.9618h.4293l1.8333,2.3833-.1207.0626V34.9618h.5409v3.1836h-.4336L11.1,35.7712l.1163-.0717v2.4459Z" transform="translate(-7.0444 -18.6491)"/><path class="cls-19" d="M15.0348,38.1767a1.2343,1.2343,0,0,1-.61-.1431.9754.9754,0,0,1-.3958-.4045,1.3161,1.3161,0,0,1-.1386-.6239,1.3319,1.3319,0,0,1,.1386-.6237.97.97,0,0,1,.3958-.4092,1.2365,1.2365,0,0,1,.61-.1431,1.2181,1.2181,0,0,1,.6014.1431.9858.9858,0,0,1,.398.4092,1.3155,1.3155,0,0,1,.1408.6237,1.3,1.3,0,0,1-.1408.6239.9915.9915,0,0,1-.398.4045A1.2159,1.2159,0,0,1,15.0348,38.1767Zm0-.4293a.5172.5172,0,0,0,.427-.1855,1.1008,1.1008,0,0,0,0-1.1088.5173.5173,0,0,0-.427-.1857.5356.5356,0,0,0-.436.1857.8468.8468,0,0,0-.1542.5521.8637.8637,0,0,0,.152.5567A.5338.5338,0,0,0,15.0348,37.7474Z" transform="translate(-7.0444 -18.6491)"/><path class="cls-19" d="M16.3628,36.3078v-.42h1.5918v.42ZM17.9546,37.68v.4427a.8708.8708,0,0,1-.1766.0424,1.4537,1.4537,0,0,1-.1857.0112.7807.7807,0,0,1-.5879-.2146.8517.8517,0,0,1-.2079-.617V35.3374l.559-.1877v2.1685a.4884.4884,0,0,0,.0491.2392.276.276,0,0,0,.1319.123.4618.4618,0,0,0,.1855.0358.6771.6771,0,0,0,.1119-.009Q17.8874,37.6984,17.9546,37.68Z" transform="translate(-7.0444 -18.6491)"/><path class="cls-19" d="M20.2931,38.293l-1.0418-2.4055h.5858l.7109,1.7706Zm-.7824.8674-.1252-.4292a1.8487,1.8487,0,0,0,.3487-.1051.7151.7151,0,0,0,.23-.1543.7762.7762,0,0,0,.1543-.2414l.1609-.3667.1431-.2056.7244-1.7706h.5545l-1.0464,2.41a1.605,1.605,0,0,1-.3.4716,1.1459,1.1459,0,0,1-.3822.2661A1.8723,1.8723,0,0,1,19.5107,39.16Z" transform="translate(-7.0444 -18.6491)"/><path class="cls-19" d="M22.98,38.1767a1.234,1.234,0,0,1-.61-.1431.9748.9748,0,0,1-.3958-.4045,1.3149,1.3149,0,0,1-.1386-.6239,1.3307,1.3307,0,0,1,.1386-.6237.97.97,0,0,1,.3958-.4092,1.2362,1.2362,0,0,1,.61-.1431,1.2181,1.2181,0,0,1,.6014.1431.9864.9864,0,0,1,.398.4092,1.3155,1.3155,0,0,1,.1408.6237,1.3,1.3,0,0,1-.1408.6239.9921.9921,0,0,1-.398.4045A1.2159,1.2159,0,0,1,22.98,38.1767Zm0-.4293a.5172.5172,0,0,0,.427-.1855,1.1008,1.1008,0,0,0,0-1.1088.5173.5173,0,0,0-.427-.1857.5356.5356,0,0,0-.436.1857.8468.8468,0,0,0-.1542.5521.8637.8637,0,0,0,.152.5567A.5337.5337,0,0,0,22.98,37.7474Z" transform="translate(-7.0444 -18.6491)"/><path class="cls-19" d="M25.4173,38.1767a.7983.7983,0,0,1-.6238-.23,1.0092,1.0092,0,0,1-.2079-.6953V35.8875h.559v1.3681a.536.536,0,0,0,.1027.3621.39.39,0,0,0,.3085.1163.5081.5081,0,0,0,.3935-.1609.61.61,0,0,0,.1476-.4293V35.8875H26.66v2.2579h-.5455V37.68l.0582-.0044a.77.77,0,0,1-.2951.3732A.8278.8278,0,0,1,25.4173,38.1767Z" transform="translate(-7.0444 -18.6491)"/><path class="cls-19" d="M27.2593,38.1454V36.5268q0-.1563-.0067-.32a3.191,3.191,0,0,0-.029-.32h.5275l.0627.5812-.0627-.0314a.7013.7013,0,0,1,.2638-.4516.7639.7639,0,0,1,.465-.152.8461.8461,0,0,1,.1253.0089.48.48,0,0,1,.1028.027l-.0089.51a.7569.7569,0,0,0-.2951-.058.6066.6066,0,0,0-.3286.08.5107.5107,0,0,0-.1924.2169.7051.7051,0,0,0-.0647.3063v1.2206Z" transform="translate(-7.0444 -18.6491)"/><path class="cls-19" d="M30.2372,38.1454V34.8546h.5589v3.2908Zm1.547,0-1.0865-1.1491,1.0284-1.1044h.68l-1.167,1.2341.0268-.2818,1.2162,1.3012Z" transform="translate(-7.0444 -18.6491)"/><path class="cls-19" d="M34.6145,37.895a1.1473,1.1473,0,0,1-.3957.208,1.582,1.582,0,0,1-.4762.0737,1.3526,1.3526,0,0,1-.6327-.1386.96.96,0,0,1-.4091-.4023,1.2936,1.2936,0,0,1-.1431-.6261,1.3122,1.3122,0,0,1,.1386-.6148,1.0365,1.0365,0,0,1,.3846-.4159,1.071,1.071,0,0,1,.5679-.15,1.012,1.012,0,0,1,.5365.1364.9083.9083,0,0,1,.3466.3913,1.3772,1.3772,0,0,1,.1228.6036v.085H33.05l.0045-.2995h1.27l-.152.152a.78.78,0,0,0-.1275-.4964.4547.4547,0,0,0-.3822-.17.4964.4964,0,0,0-.4159.19.87.87,0,0,0-.1475.5433.8869.8869,0,0,0,.1654.5924.628.628,0,0,0,.5007.19,1.1077,1.1077,0,0,0,.36-.06,1.15,1.15,0,0,0,.3286-.1766Z" transform="translate(-7.0444 -18.6491)"/><path class="cls-19" d="M35.8218,38.293,34.78,35.8875h.5858l.711,1.7706Zm-.7825.8674-.1252-.4292a1.8487,1.8487,0,0,0,.3487-.1051.714.714,0,0,0,.23-.1543.7744.7744,0,0,0,.1543-.2414l.161-.3667.143-.2056.7244-1.7706H37.23l-1.0464,2.41a1.605,1.605,0,0,1-.3.4716,1.1459,1.1459,0,0,1-.3822.2661A1.8723,1.8723,0,0,1,35.0393,39.16Z" transform="translate(-7.0444 -18.6491)"/><path class="cls-19" d="M38.3169,38.1767a1.5346,1.5346,0,0,1-.9748-.2817l.1565-.3934a1.3076,1.3076,0,0,0,.3891.2012,1.4355,1.4355,0,0,0,.4382.067.5972.5972,0,0,0,.3129-.067.21.21,0,0,0,.1074-.1878.1976.1976,0,0,0-.0761-.1632.7011.7011,0,0,0-.2594-.1051l-.3755-.085a.8934.8934,0,0,1-.4627-.2257.5568.5568,0,0,1-.1543-.4047.6008.6008,0,0,1,.1161-.3644.7643.7643,0,0,1,.3266-.2482,1.2371,1.2371,0,0,1,.4873-.09,1.4744,1.4744,0,0,1,.465.0739,1.171,1.171,0,0,1,.3891.2123l-.161.3846a1.2766,1.2766,0,0,0-.3466-.1922,1.0413,1.0413,0,0,0-.351-.0627.5365.5365,0,0,0-.3.0716.2242.2242,0,0,0-.1074.1967.1993.1993,0,0,0,.0649.1565.5116.5116,0,0,0,.2257.0939l.38.0938a.9459.9459,0,0,1,.4895.23.62.62,0,0,1-.0962.9076A1.146,1.146,0,0,1,38.3169,38.1767Z" transform="translate(-7.0444 -18.6491)"/><path class="cls-19" d="M39.9222,38.74l-.2282-.1788a.9148.9148,0,0,0,.199-.2728.6723.6723,0,0,0,.056-.2683l.143.1252h-.4426V37.52h.63v.4158a1.0791,1.0791,0,0,1-.0806.418A1.189,1.189,0,0,1,39.9222,38.74Z" transform="translate(-7.0444 -18.6491)"/><path class="cls-19" d="M10.6307,43.511V41.8924q0-.1564-.0067-.32a3.1928,3.1928,0,0,0-.0291-.32h.5276l.0492.4471-.0492.0134a.8093.8093,0,0,1,.32-.3868.9088.9088,0,0,1,.49-.1319q.8047,0,.8048.93V43.511h-.5589V42.1473a.6079.6079,0,0,0-.1005-.3869.39.39,0,0,0-.32-.123.5423.5423,0,0,0-.4136.1632.6024.6024,0,0,0-.1543.4315V43.511Z" transform="translate(-7.0444 -18.6491)"/><path class="cls-19" d="M14.3508,43.5422a1.2351,1.2351,0,0,1-.61-.143.9744.9744,0,0,1-.3958-.4046,1.3146,1.3146,0,0,1-.1386-.6239,1.3313,1.3313,0,0,1,.1386-.6237.9693.9693,0,0,1,.3958-.4091,1.2362,1.2362,0,0,1,.61-.1431,1.2181,1.2181,0,0,1,.6014.1431.9862.9862,0,0,1,.398.4091,1.3161,1.3161,0,0,1,.1408.6237,1.3,1.3,0,0,1-.1408.6239.9917.9917,0,0,1-.398.4046A1.217,1.217,0,0,1,14.3508,43.5422Zm0-.4292a.5172.5172,0,0,0,.427-.1855,1.101,1.101,0,0,0,0-1.1089.5173.5173,0,0,0-.427-.1856.5355.5355,0,0,0-.436.1856.847.847,0,0,0-.1542.5521.864.864,0,0,0,.152.5568A.5337.5337,0,0,0,14.3508,43.113Z" transform="translate(-7.0444 -18.6491)"/><path class="cls-19" d="M15.6788,41.6733v-.42h1.5918v.42Zm1.5918,1.3727v.4426a.8712.8712,0,0,1-.1766.0425,1.4728,1.4728,0,0,1-.1857.0111.7811.7811,0,0,1-.588-.2145.8525.8525,0,0,1-.2078-.617V40.703l.5589-.1878v2.1685a.489.489,0,0,0,.0492.2393.2755.2755,0,0,0,.1319.123.4635.4635,0,0,0,.1855.0357.6861.6861,0,0,0,.1118-.0089Q17.2035,43.0638,17.2706,43.046Z" transform="translate(-7.0444 -18.6491)"/><path class="cls-19" d="M19.609,43.6585,18.5672,41.253h.5857l.711,1.7706Zm-.7825.8675-.1252-.4293a1.8318,1.8318,0,0,0,.3487-.1051.717.717,0,0,0,.23-.1542.7772.7772,0,0,0,.1542-.2414l.161-.3667.1431-.2057.7243-1.7706h.5545l-1.0464,2.41a1.6056,1.6056,0,0,1-.3.4717,1.1459,1.1459,0,0,1-.3822.2661A1.8811,1.8811,0,0,1,18.8265,44.526Z" transform="translate(-7.0444 -18.6491)"/><path class="cls-19" d="M22.2962,43.5422a1.2356,1.2356,0,0,1-.61-.143.9756.9756,0,0,1-.3958-.4046,1.3158,1.3158,0,0,1-.1386-.6239,1.3325,1.3325,0,0,1,.1386-.6237.97.97,0,0,1,.3958-.4091,1.2367,1.2367,0,0,1,.61-.1431,1.2178,1.2178,0,0,1,.6014.1431.9856.9856,0,0,1,.398.4091,1.3161,1.3161,0,0,1,.1408.6237,1.3,1.3,0,0,1-.1408.6239.9911.9911,0,0,1-.398.4046A1.2167,1.2167,0,0,1,22.2962,43.5422Zm0-.4292a.5172.5172,0,0,0,.427-.1855,1.101,1.101,0,0,0,0-1.1089.5173.5173,0,0,0-.427-.1856.5353.5353,0,0,0-.4359.1856.847.847,0,0,0-.1543.5521.864.864,0,0,0,.152.5568A.5339.5339,0,0,0,22.2962,43.113Z" transform="translate(-7.0444 -18.6491)"/><path class="cls-19" d="M24.7332,43.5422a.7984.7984,0,0,1-.6239-.23,1.01,1.01,0,0,1-.2079-.6954V41.253h.559v1.3682a.5362.5362,0,0,0,.1027.3621.39.39,0,0,0,.3085.1163.5081.5081,0,0,0,.3936-.161.61.61,0,0,0,.1475-.4292V41.253h.5634v2.258h-.5455v-.465l.0582-.0045a.7711.7711,0,0,1-.2951.3733A.8282.8282,0,0,1,24.7332,43.5422Z" transform="translate(-7.0444 -18.6491)"/><path class="cls-19" d="M26.5753,43.511V41.8924q0-.1564-.0067-.32a3.1928,3.1928,0,0,0-.0291-.32h.5276l.0627.5813-.0627-.0314a.7013.7013,0,0,1,.2638-.4516.7634.7634,0,0,1,.465-.1521.8442.8442,0,0,1,.1252.009.4814.4814,0,0,1,.1029.0269l-.0089.51a.757.757,0,0,0-.2951-.0581.6063.6063,0,0,0-.3286.08.5115.5115,0,0,0-.1924.217.7043.7043,0,0,0-.0648.3062V43.511Z" transform="translate(-7.0444 -18.6491)"/><path class="cls-19" d="M30.577,43.5422a1.2518,1.2518,0,0,1-.61-.1408.9487.9487,0,0,1-.3935-.4023,1.4474,1.4474,0,0,1,.0067-1.2409,1.0144,1.0144,0,0,1,.4069-.4159,1.2452,1.2452,0,0,1,.6171-.1475,1.44,1.44,0,0,1,.4627.0761.9959.9959,0,0,1,.369.21l-.161.3935a1.0884,1.0884,0,0,0-.304-.1766.9089.9089,0,0,0-.3221-.06.6026.6026,0,0,0-.4672.1879.9628.9628,0,0,0-.0022,1.0955.6066.6066,0,0,0,.4739.1877.9015.9015,0,0,0,.3176-.06,1.0354,1.0354,0,0,0,.304-.181l.161.3933a1.0116,1.0116,0,0,1-.3779.208A1.5648,1.5648,0,0,1,30.577,43.5422Z" transform="translate(-7.0444 -18.6491)"/><path class="cls-19" d="M32.8349,43.5422a1.2356,1.2356,0,0,1-.61-.143.9748.9748,0,0,1-.3957-.4046,1.3146,1.3146,0,0,1-.1387-.6239,1.3313,1.3313,0,0,1,.1387-.6237.97.97,0,0,1,.3957-.4091,1.2367,1.2367,0,0,1,.61-.1431,1.2178,1.2178,0,0,1,.6014.1431.985.985,0,0,1,.398.4091,1.3161,1.3161,0,0,1,.1409.6237,1.3,1.3,0,0,1-.1409.6239.99.99,0,0,1-.398.4046A1.2167,1.2167,0,0,1,32.8349,43.5422Zm0-.4292a.5174.5174,0,0,0,.4271-.1855,1.101,1.101,0,0,0,0-1.1089.5175.5175,0,0,0-.4271-.1856.5354.5354,0,0,0-.4359.1856.847.847,0,0,0-.1543.5521.864.864,0,0,0,.152.5568A.5339.5339,0,0,0,32.8349,43.113Z" transform="translate(-7.0444 -18.6491)"/><path class="cls-19" d="M34.4268,40.2291h.6215v.55h-.6215Zm.0268,3.2819V41.253h.5589v2.258Z" transform="translate(-7.0444 -18.6491)"/><path class="cls-19" d="M35.6161,43.511V41.8924q0-.1564-.0067-.32a3.1637,3.1637,0,0,0-.029-.32h.5275l.0493.4471-.0493.0134a.81.81,0,0,1,.32-.3868.9088.9088,0,0,1,.4895-.1319q.8048,0,.8048.93V43.511h-.559V42.1473a.6079.6079,0,0,0-.1-.3869.39.39,0,0,0-.32-.123.5427.5427,0,0,0-.4137.1632.6028.6028,0,0,0-.1542.4315V43.511Z" transform="translate(-7.0444 -18.6491)"/><path class="cls-19" d="M39.14,43.5422a1.5346,1.5346,0,0,1-.9748-.2817l.1564-.3933a1.3073,1.3073,0,0,0,.3891.2011,1.433,1.433,0,0,0,.4382.067.5964.5964,0,0,0,.313-.067.21.21,0,0,0,.1073-.1877.1972.1972,0,0,0-.0761-.1632.6971.6971,0,0,0-.2593-.1051l-.3755-.0851a.8922.8922,0,0,1-.4628-.2257.5566.5566,0,0,1-.1543-.4047.6008.6008,0,0,1,.1162-.3643.7632.7632,0,0,1,.3265-.2482,1.2356,1.2356,0,0,1,.4873-.09,1.4762,1.4762,0,0,1,.465.0738,1.1692,1.1692,0,0,1,.3891.2124l-.161.3846a1.2714,1.2714,0,0,0-.3466-.1923,1.0433,1.0433,0,0,0-.3509-.0627.5362.5362,0,0,0-.3.0717.2243.2243,0,0,0-.1074.1967.1989.1989,0,0,0,.065.1564.51.51,0,0,0,.2257.094l.38.0938a.9471.9471,0,0,1,.49.23.6207.6207,0,0,1-.0962.9077A1.1467,1.1467,0,0,1,39.14,43.5422Z" transform="translate(-7.0444 -18.6491)"/></svg>