<?xml version="1.0" encoding="UTF-8"?>
<svg width="39px" height="84px" viewBox="0 0 39 84" version="1.1" xmlns="http://www.w3.org/2000/svg" xmlns:xlink="http://www.w3.org/1999/xlink">
    <!-- Generator: Sketch 55.2 (78181) - https://sketchapp.com -->
    <title>genie</title>
    <desc>Created with Sketch.</desc>
    <g id="Page-1" stroke="none" stroke-width="1" fill="none" fill-rule="evenodd">
        <g id="genie" transform="translate(-38.000000, -23.000000)">
            <path d="M73.3174,92.6923 L76.2099,87.9638 C76.4089645,87.6380711 76.4767098,87.2488304 76.3994,86.875 L74.8672,79.5092 C74.7223577,78.8134081 74.1091079,78.3147668 73.3984,78.3149 L69.6313,78.3149 C69.5103809,77.9639506 69.3685263,77.6205677 69.2065,77.2866 C68.8594786,76.590749 68.4509531,75.9273092 67.9858,75.3042 L73.1108,71.9721 C73.9848852,71.4040557 74.5974731,70.5120059 74.813766,69.4922429 C75.0300589,68.4724799 74.832334,67.4085618 74.2641,66.5346 L73.9106,65.9917 C73.8637085,65.5038603 73.5812885,65.0697559 73.1543,64.8292 L73.1093,64.7613 C72.0713695,63.1642172 70.0380299,62.5406614 68.2832,63.2813 L68.2832,61.6543 C68.2816015,60.5996305 67.4266703,59.7452361 66.372,59.7443 L65.2613,59.7443 L65.2613,58.2177 C65.2603386,57.4119226 64.6217861,56.7514486 63.8165,56.7233 C63.8096,56.6905 63.8119,56.6546 63.8033,56.6225 C64.6193295,55.9211086 65.0886537,54.8985362 65.0884,53.8225 L65.0884,52.125 L65.3736,51.0058 C66.7453091,51.3794472 68.1779524,50.6582728 68.6949,49.3339 C69.1856748,48.1743237 69.2452677,46.8773967 68.8629,45.6777 C68.8109174,45.531207 68.7479035,45.3888658 68.6744,45.2519 L68.6744,42.6982 C68.6742248,41.6345495 68.1410345,40.6417642 67.2544,40.0542 C67.2595597,39.6003457 67.2275528,39.1468308 67.1587,38.6982 L67.1587,33.3833 C67.1594065,32.55372 66.6245327,31.8185388 65.8350039,31.5638867 C65.0454751,31.3092346 64.1818419,31.5933458 63.6977,32.267 C61.5800532,30.3414087 58.8085761,29.2945334 55.9467,29.3392 C55.8737911,28.9579445 55.7707683,28.5830699 55.6386,28.2181 C55.5286099,27.9157681 55.3368165,27.649923 55.0846,27.4502 C55.0591891,27.1800485 54.9704935,26.9196829 54.8257,26.6902 C53.9358976,25.2884728 52.7235702,24.1200344 51.29,23.2825 L51.2827,23.2776 C51.2563,23.26 51.228,23.2424 51.2021,23.2268 C51.090041,23.1618836 50.9700875,23.1116705 50.8452,23.0774 C50.5480905,22.9872313 50.2327088,22.9754497 49.9297,23.0432 C49.8539787,23.0618476 49.7794447,23.0850226 49.7065,23.1126 L49.7065,23.1121 C49.0858166,23.3293725 48.6418136,23.8795333 48.5605,24.5321 C48.3765489,25.9255034 48.3283226,27.3334756 48.4165,28.7362 C48.4441142,29.1099537 48.5927884,29.464525 48.84,29.7462 C48.8308899,29.93617 48.8539478,30.1263137 48.9082,30.3086 C48.937974,30.4636395 48.9902605,30.6134916 49.0634,30.7534 C49.2021476,31.0196973 49.359784,31.2757185 49.5351,31.5195 C46.1701408,34.0349674 44.4577658,38.1946733 45.0766,42.3501 C45.0801,42.3735 45.0835,42.3964 45.0874,42.4194 C45.0781,42.5131 45.0737,42.6059 45.0737,42.6977 L45.0737,45.9326 C45.0755525,47.5363822 46.268048,48.8893499 47.8589,49.0926 L48.6289,52.1253 L48.6289,53.8226 C48.6282076,54.7899989 49.0080933,55.718844 49.6865,56.4085 C49.6475018,56.5087819 49.6170598,56.6121842 49.5955,56.7176 L49.4855,56.7176 C48.6570729,56.7176 47.9855,57.3891729 47.9855,58.2176 L47.9855,59.744 L47.4613,59.744 C46.40675,59.7449917 45.552023,60.5994504 45.5507,61.654 L45.5507,62.4098 C43.7302808,61.4695954 41.4929977,62.0847003 40.4091,63.8234 L39.2891,65.6217 C38.1437655,67.4639625 38.706826,69.8857539 40.5474,71.0338 L41.0894,71.3708 L38.9249,72.2692 C38.3626708,72.5028102 37.9973163,73.0529752 38.0000842,73.6618 L38.0474,84.5318 C38.0509165,85.2294758 38.5346605,85.8327575 39.2149,85.9878 L49.5289,88.3306 C49.0548,91.1968 50.7208,93.649 52.6134,95.1744 C52.6342196,95.6376191 52.8283508,96.0761007 53.1573,96.4029 L56.378,99.6236 C56.432578,99.6777335 56.4903123,99.7285891 56.5509,99.7759 C41.9869,99.9039 41.9864,102.2925 41.9864,103.2076 C41.9864,104.1476 41.9864,106.6451 57.7989,106.6451 C73.6114,106.6451 73.6113,104.1484 73.6113,103.208 C73.6113,101.9365 72.5342,101.2646 70.6913,100.8144 L72.1981,99.9003 C72.7130339,99.596646 73.0465134,99.0599629 73.0907,98.4638 C73.1169276,98.288701 73.1172646,98.110697 73.0917,97.9355 L73.244,97.7939 C73.554341,97.5837665 73.7929004,97.2836479 73.9276,96.9339 C73.9560436,96.8628147 73.9801872,96.7900835 73.9999,96.7161 L74.0048,96.6975 C74.0374667,96.5626163 74.0575527,96.4249936 74.0648,96.2864 C74.0633813,96.113174 74.0432647,95.9406074 74.0048,95.7717 C73.996,95.7346 73.9794,95.676 73.9667,95.6389 C73.9619,95.6243 73.9567,95.6089 73.9511,95.594 C73.8501873,95.3224957 73.6885351,95.0776573 73.4785,94.8782 L72.0761,93.4092 C72.5846083,93.3959897 73.0518286,93.1261514 73.3174,92.6923 Z" id="Path" fill="#FFFFFF" fill-rule="nonzero"></path>
            <polygon id="Path" fill="#1D0B6B" fill-rule="nonzero" points="39.5 73.655 47.583 70.3 47.73 76.156 39.548 84.525"></polygon>
            <polygon id="Path" fill="#130863" fill-rule="nonzero" points="73.399 79.814 74.93 87.181 64.318 86.239 68.248 79.814"></polygon>
            <ellipse id="Oval" fill="#000000" fill-rule="nonzero" opacity="0.17" cx="57.7988" cy="103.2077" rx="14.3125" ry="1.9375"></ellipse>
            <g id="Layer_2" transform="translate(46.000000, 25.000000)" fill-rule="nonzero">
                <path d="M19.202,14.8274 C19.2297771,14.7607491 19.2276656,14.685391 19.1962,14.6204 C19.1907,14.6104 19.1876,14.5988 19.1823,14.5884 C19.2666141,14.5118037 19.2893708,14.38832 19.2379,14.2867 C19.0889367,13.959837 18.9564374,13.6257185 18.8409,13.2856 C18.9255642,13.3020004 19.0127574,13.2742167 19.0723253,13.2118575 C19.1318932,13.1494983 19.1556576,13.061125 19.1354,12.9773 C19.1926393,12.9472461 19.2344925,12.8943794 19.2506113,12.8317714 C19.26673,12.7691634 19.2556098,12.7026585 19.22,12.6487 C18.8286667,12.0783 18.4167333,11.5269333 17.9842,10.9946 C17.7286,10.6128 17.4526,10.2397 17.1757,9.8686 C17.2421258,9.69790089 17.2621717,9.51265751 17.2338,9.3317 C17.1110544,9.26557211 16.9926478,9.19168905 16.8793,9.1105 C16.6818943,8.96583215 16.4995429,8.80167232 16.335,8.6205 C16.3115,8.594 16.287,8.5705 16.2639,8.5426 L16.2578,8.538 C16.1423,8.409 16.03,8.2757 15.9147,8.1416 C15.9426968,8.07759587 15.9415682,8.00459721 15.9116062,7.94148914 C15.8816443,7.87838106 15.8257925,7.83136345 15.7585,7.8126 L15.4702,7.6626 C15.4568,7.6496 15.4449,7.6362 15.4313,7.6232 C15.179,7.3843 15.0843,7.2853 14.742,7.3466 C14.7184933,7.35419547 14.6967361,7.36639987 14.678,7.3825 C14.606,7.3446 14.5374,7.2984 14.4669,7.2571 C14.4631248,7.18030307 14.4192086,7.11116162 14.3513,7.0751 L13.6777,6.7085 C13.5744179,6.78569861 13.4288675,6.76903922 13.3457,6.6705 C11.4911866,5.84707906 9.38917979,5.77693806 7.4839,6.4749 C5.89777149,6.95032031 4.49278574,7.89490304 3.4539,9.1843 C3.37322346,9.15704962 3.28410052,9.17624888 3.2218,9.2343 C1.39174232,11.0629216 0.512278508,13.6363152 0.8404,16.2025 C0.848704417,16.2540516 0.877573846,16.3000261 0.9204,16.3299 C0.9204,16.353 0.9172,16.3751 0.9168,16.3983 C0.920719427,16.4935768 0.977530902,16.5786834 1.06401945,16.6188425 C1.150508,16.6590017 1.25218423,16.6474856 1.3275,16.589 C1.40540906,16.6062245 1.4865643,16.5802548 1.54,16.521 C1.5857,16.4736 1.6287,16.4241 1.674,16.3764 C1.75791735,16.3891308 1.84297028,16.3619879 1.904,16.303 C1.97656584,16.293376 2.0416319,16.2533913 2.083,16.193 C2.19836986,16.0656778 2.28110574,15.912251 2.3241,15.7459 C2.43214814,15.7466546 2.52960366,15.6810756 2.5696,15.5807 C2.5978,15.5116 2.6273,15.4446 2.6557,15.3759 C2.70950082,15.41883 2.77979269,15.4352085 2.84702816,15.4204808 C2.91426364,15.405753 2.97127207,15.3614897 3.0022,15.3 C3.0109,15.28 3.0188,15.26 3.0274,15.24 L3.0274,15.24 C3.21226667,14.8164 3.39166667,14.3907667 3.5656,13.9631 C3.66125664,13.9777118 3.75593077,13.9313912 3.8031,13.8469 C3.921,13.6569 4.0431,13.4702 4.1652,13.2831 C4.20888811,13.3215646 4.26651988,13.3402831 4.32447202,13.3348305 C4.38242416,13.329378 4.43555311,13.3002384 4.4713,13.2543 C4.9328,12.662 5.4039,12.0864 5.9089,11.546 C5.97241194,11.5657717 6.04159447,11.5527742 6.0936,11.5113 C6.111,11.4985 6.1269,11.4848 6.1436,11.472 L6.1436,11.472 L6.1445,11.471 C6.3193,11.341 6.4845,11.2056 6.6483,11.0681 C6.68365481,11.0746261 6.72006591,11.0724641 6.7544,11.0618 L9.3613,10.2478 C9.84928918,10.3197661 10.3426243,10.3490437 10.8357,10.3353 C11.1817,10.4045 11.5257,10.4876 11.8725,10.5587 C11.9008787,10.6235007 11.9553828,10.6732447 12.0225,10.6956 C12.2402419,10.7763372 12.4634777,10.841403 12.6905,10.8903 C13.1233288,11.0346276 13.5872059,11.0588202 14.0327,10.9603 C14.1208065,10.9283373 14.1880886,10.8558425 14.2134,10.7656 C14.4971162,10.9003743 14.7882124,11.0190297 15.0853,11.121 C15.4540633,11.5099918 15.8630138,11.8588065 16.3053,12.1616 C16.6453893,12.6530432 17.0582432,13.0899049 17.5297,13.4572 C17.7732313,13.8784871 18.0520645,14.2783543 18.3632,14.6525 L18.3641,14.6541 L18.3641,14.6541 C18.3779,14.6707 18.3891,14.6883 18.403,14.7048 C18.4502217,14.7654174 18.5277088,14.7940488 18.603,14.7787 C18.6664,14.8933 18.7272,15.0081 18.793,15.1228 C18.9539,15.4056 19.3649,15.1569 19.225,14.8702 L19.202,14.8274 Z M2.3343,14.1714 C2.3098,14.2214 2.2834,14.2706 2.2593,14.3208 C2.02976398,14.6428648 1.84162251,14.9925056 1.6993,15.3615 C1.781,14.9932 1.8977,14.6291 1.9993,14.2753 C2.0414,14.1842 2.0776,14.0915 2.1168,13.9996 C2.20022264,14.0256115 2.2911619,14.0010154 2.3501,13.9365 L2.3514,13.9351 C2.36329861,13.933826 2.37511694,13.9318896 2.3868,13.9293 C2.3692,14.0101 2.3498,14.0914 2.3343,14.1714 Z" id="Shape" fill="#0FCE7C"></path>
                <path d="M7.1988,2.6913 C7.14411445,2.53692333 7.05147153,2.39878428 6.9294,2.2896 C6.99535725,2.21646036 6.996685,2.10569974 6.9325,2.031 C6.9196,2.0134 6.9056,1.9982 6.8925,1.981 L6.8933,1.9803 L6.8892,1.9768 C6.64991079,1.65686231 6.35525994,1.38236287 6.0192,1.1663 C5.97823581,1.13902802 5.92966619,1.12547615 5.8805,1.1276 L5.6665,0.9476 C5.55832187,0.770147589 5.42651418,0.608230692 5.2747,0.4663 C5.22413277,0.417609673 5.15531839,0.392599025 5.08528853,0.397458239 C5.01525868,0.402317453 4.95055798,0.436592413 4.9072,0.4918 C4.85127089,0.484300056 4.79437851,0.493776314 4.7439,0.519 C4.65724063,0.501115296 4.56742788,0.528443633 4.50541738,0.591565795 C4.44340688,0.654687957 4.4176785,0.74497205 4.4371,0.8313 C4.441,0.844 4.4462,0.8553 4.4501,0.8678 C4.4477,0.8895 4.4463,0.9113 4.4433,0.9329 C4.29877917,1.42534793 4.2365756,1.93828237 4.2592,2.451 C4.2592,2.6477 4.2315,2.8715 4.2471,3.0762 C3.9922,3.1057 3.8984,3.5093 4.1899,3.5651 L5.0463,3.7291 C5.06021997,3.73312776 5.0744795,3.73587255 5.0889,3.7373 C5.18362227,3.76041264 5.27944218,3.77876895 5.376,3.7923 L5.3822,3.7923 C5.4907,3.8129 5.5999,3.8286 5.7087,3.8474 C5.7487,3.8774 5.7887,3.9068 5.8339,3.9351 C5.90944478,3.9836068 6.0072058,3.97993578 6.0789,3.9259 C6.10790875,3.93542535 6.13839338,3.93965932 6.1689,3.9384 C6.2110987,3.99642627 6.27662912,4.03301894 6.34816716,4.0385041 C6.4197052,4.04398926 6.49004828,4.01781466 6.5406,3.9669 C6.72943988,3.76199926 6.8829595,3.52717472 6.9949,3.272 C7.14472675,3.11769512 7.2192693,2.90540058 7.1988,2.6913 L7.1988,2.6913 Z" id="Path" fill="#D6D6EA"></path>
                <path d="M8.1373,4.5784 C8.10507157,4.47212918 8.00710026,4.39946316 7.89605,4.39946316 C7.78499974,4.39946316 7.68702843,4.47212918 7.6548,4.5784 C7.56066439,4.96468898 7.38639836,5.32688296 7.1433,5.6415 C7.12551353,5.66569747 7.11198609,5.69275234 7.1033,5.7215 C7.0524,5.7303 7.0006,5.7365 6.9465,5.7415 C6.52889811,5.54505487 6.08285465,5.41589262 5.6249,5.3588 C5.58190386,5.34874379 5.53688557,5.35173804 5.4956,5.3674 C5.47190468,5.33521735 5.43984385,5.31014281 5.4029,5.2949 L5.2124,5.214 C4.9245,5.0917 4.676,5.474 4.9599,5.646 L6.1019,6.3387 L6.1603,6.375 C6.14166003,6.46150784 6.16830015,6.55155677 6.23100566,6.61399932 C6.29371117,6.67644188 6.38387126,6.70270334 6.4703,6.6837 L7.5414,6.3787 C7.7592496,6.34973025 7.96556032,6.26365245 8.1394,6.1292 C8.4583,5.7758 8.2222,4.9809 8.1373,4.5784 Z" id="Path" fill="#D6D6EA"></path>
                <path d="M22.2763,57.6692 C22.1907,57.3451 22.1036,57.0214 22.0179,56.6974 C22.0942287,56.6373026 22.1277162,56.5377039 22.1032,56.4437 C21.9062872,55.499024 21.6536456,54.5668281 21.3466,53.652 C21.3337464,53.6131017 21.3125138,53.5774978 21.2844,53.5477 C21.2488378,53.4794477 21.1821334,53.4329114 21.1058,53.4231 C20.9778,53.1007 20.8358,52.7875 20.6881,52.4919 C20.6285353,52.3675119 20.5276693,52.2676355 20.4027,52.2093 C20.3252,52.0301 20.2427,51.8523 20.1491,51.678 C20.1192777,51.6231703 20.0685874,51.5826986 20.0085158,51.5657558 C19.9484441,51.548813 19.8840769,51.5568335 19.83,51.588 L19.8054,51.568 C19.7681,51.5061 19.7316,51.4438 19.691,51.383 C19.6797251,51.3683463 19.6669194,51.3549372 19.6528,51.343 C19.6981222,51.2975586 19.7328789,51.2426921 19.7546,51.1823 C19.7790901,51.0955111 19.7544583,51.0022703 19.6903,50.9389 C19.6249658,50.8805578 19.5441523,50.8423563 19.4576,50.8289 C19.4693954,50.7382354 19.4334225,50.6479251 19.3625201,50.5902011 C19.2916178,50.5324771 19.1958891,50.5155647 19.1095,50.5455 C19.0366002,50.439328 18.8949702,50.4059116 18.7823,50.4683 C18.5423,50.6211 18.3109,50.785 18.0836,50.9543 C17.7945847,51.0728373 17.5353615,51.2538257 17.3245,51.4843 L17.2921,51.4936 C17.2107396,51.5161841 17.1484994,51.581848 17.1303,51.6643 L17.1222,51.6611 C17.077075,51.646076 17.0281965,51.6467456 16.9835,51.663 C16.6818,51.563 16.571,52.0277 16.8583,52.1467 L17.6802,52.4867 C17.9126,52.6322 18.137,52.7939 18.3576,52.9544 C18.4876,53.1519 18.6244,53.3457 18.7558,53.5401 C18.7151787,54.0292244 18.7045922,54.5203796 18.7241,55.0108 C18.5066077,55.2722974 18.242975,55.4916637 17.9463,55.658 C17.8780196,55.6948144 17.8191055,55.7468176 17.7741,55.81 C17.699,55.8264 17.6235,55.84 17.5486,55.8577 C17.4632008,55.835607 17.3748199,55.8273023 17.2868,55.8331 C17.1991,55.8391 17.1128,55.8521 17.0255,55.8596 L14.6155,54.5563 C14.5414452,54.5146502 14.4508884,54.5152588 14.3774,54.5579 C14.3005944,54.4784286 14.2160035,54.4068697 14.1249,54.3443 C13.9798707,54.2555048 13.819402,54.1948457 13.6519,54.1655 C13.635354,54.1085635 13.5968148,54.0605604 13.5448,54.0321 C13.3047942,53.874111 13.0036325,53.8406486 12.7348,53.9421 C12.6797546,53.9611138 12.6333944,53.9993095 12.6042,54.0497 C12.5801,54.0535 12.5576,54.0544 12.5333,54.0586 C12.4799474,54.0679313 12.4337517,54.1010597 12.4078,54.1486 C12.2781333,54.0987333 12.1481333,54.0499 12.0178,54.0021 C12.0028067,53.9193427 11.9453676,53.8505829 11.8666,53.8211 C11.5002093,53.6969543 11.1472868,53.5361391 10.8132,53.3411 C10.7189411,53.2937986 10.6052216,53.3099816 10.5279,53.3817 C10.51,53.3763 10.4917,53.3717 10.4738,53.3668 C10.5312389,53.3041123 10.5517024,53.2159463 10.5277482,53.134367 C10.503794,53.0527878 10.4389124,52.9896818 10.3567,52.968 L10.1667,52.9265 C10.1064732,52.9152039 10.0441984,52.924392 9.9898,52.9526 C9.90389627,52.9481239 9.81777547,52.9502635 9.7322,52.959 C9.66745925,52.961367 9.60630958,52.989352 9.5622,53.0368 L9.2337,53.0359 C9.21174892,53.0369166 9.1900591,53.0410929 9.1693,53.0483 C9.0939,53.0083 9.0174,52.9706 8.9423,52.93 C8.9884737,52.8766084 9.00757339,52.8049712 8.99410916,52.7356791 C8.98064492,52.6663871 8.93610806,52.6071151 8.8733,52.5749 C6.9785,51.6320333 5.13586667,50.598 3.3454,49.4728 C3.23553171,49.4085996 3.09474772,49.4399479 3.0225,49.5447 C2.9668,49.49 2.9025,49.438 2.8444,49.3847 C2.8291,49.3508 2.8165,49.3216 2.7962,49.2784 C2.75943,49.2008271 2.67870645,49.1538874 2.5931,49.1603 C2.5807,49.1503 2.5708,49.1395 2.5583,49.1293 C2.3891,48.9909 2.0374,49.1144 2.1402,49.3727 L2.1713,49.4517 C2.1226703,49.5023732 2.0945888,49.5692984 2.0925,49.6395 C1.99632438,49.6458562 1.91275715,49.707881 1.8788219,49.7980949 C1.84488664,49.8883088 1.8668573,49.9900331 1.935,50.0582 C2.0059,50.1258 2.0804,50.1871 2.1521,50.253 C2.13425611,50.2789779 2.12262318,50.3087103 2.1181,50.3399 C2.0266,50.9599 2.0903,53.3471 2.9169,53.7992 C3.011,54.0584 3.1138,54.3167 3.236,54.5746 C3.29222701,54.6794485 3.41851039,54.7249657 3.5287,54.6801 C3.8041417,55.1724216 4.16570663,55.6113123 4.5962,55.9759 C4.62389903,56.0219756 4.66886972,56.0550645 4.7211,56.0678 C4.74078992,56.0911137 4.76416614,56.1110443 4.7903,56.1268 C5.09311014,56.3152522 5.43397358,56.4341446 5.7883,56.4749 C5.954,56.8304 6.6724,56.9242 6.9875,56.9383 C7.08702795,56.9357887 7.17579728,56.8750499 7.21419062,56.7831909 C7.25258395,56.6913319 7.23343897,56.5854892 7.1653,56.5129 L7.8986,56.6273 C7.97379618,56.6389041 8.05044026,56.6188468 8.11031296,56.571896 C8.17018567,56.5249451 8.20793954,56.4552942 8.2146,56.3795 L8.2314,56.355 C8.2949,56.3689 8.3584,56.3875 8.422,56.4003 C8.44531071,56.4185571 8.47208451,56.431893 8.5007,56.4395 C8.76721642,56.5352855 9.05146223,56.5716012 9.3335,56.5459 C9.3749909,56.5459513 9.41590527,56.5361853 9.4529,56.5174 L11.7405,56.8574 C11.8599048,56.8757124 11.9763758,56.8101072 12.0226,56.6985 L13.7154,58.7016 C13.7877556,58.7707801 13.8941379,58.7907043 13.9866247,58.7523973 C14.0791115,58.7140904 14.1402503,58.6247808 14.1425,58.5247 C14.1415,58.4195667 14.1405667,58.3145 14.1397,58.2095 C14.1376336,58.1228051 14.0906462,58.0434185 14.0156393,57.9998957 C13.9406323,57.9563729 13.848393,57.9549732 13.7721,57.9962 C13.5549667,57.7394 13.3379,57.4827333 13.1209,57.2262 C13.5551,57.5136 13.9829,57.8104 14.4109,58.1076 C14.40311,58.2310318 14.4236325,58.3546114 14.4709,58.4689 C14.6584115,58.9954027 14.8113697,59.5335792 14.9288,60.08 C14.5194741,60.3892689 14.1812635,60.7827566 13.937,61.2339 C13.867915,61.2524425 13.8015766,61.2800134 13.7397,61.3159 L13.0365,61.6626 C12.9148354,61.7087451 12.804191,61.7798737 12.7117,61.8714 C12.5458459,61.8662092 12.3827178,61.914485 12.2464,62.0091 C12.0449185,61.9181817 11.8318346,61.8555555 11.6132,61.823 C11.1712871,61.7747622 10.7241715,61.8190345 10.3003,61.953 C9.35067383,61.7494034 8.37484286,61.6971255 7.4089,61.7981 C4.6945,62.319 6.062,65.7846 6.7674,67.4026 C6.74218999,67.4454681 6.72262786,67.4914156 6.7092,67.5393 C6.66179137,67.762915 6.74441834,67.9941622 6.9228,68.1371 C7.03591685,68.3035357 7.21830705,68.4098074 7.41887953,68.4261461 C7.61945201,68.4424849 7.81663732,68.3671337 7.9552,68.2212 C8.16706254,67.9924327 8.1803546,67.6433143 7.9865,67.3991 C8.00081655,67.3055445 7.99650051,67.2100819 7.9738,67.1182 C7.9268,66.9182 7.8084,66.5901 7.677,66.2095 C7.98401199,66.0602247 8.14159867,65.7138195 8.0524,65.3843 C8.0717,65.366 8.0957,65.3436 8.1284,65.3143 C8.2078,65.243 8.273,65.1455 8.3484,65.0684 C8.53392203,64.8814718 8.7422243,64.7186264 8.9684,64.5837 C8.9817,64.5756 8.9962,64.5703 9.0096,64.5625 C9.67242568,64.3735292 10.3695729,64.3379298 11.0482,64.4584 C11.5313904,64.5776616 12.0361685,64.5790335 12.52,64.4624 C12.753,64.5646 12.9855,64.6594 13.2165,64.7352 C13.3614425,64.8213548 13.5124766,64.8968217 13.6684,64.961 C14.1115439,65.1615953 14.5943281,65.259335 15.0806,65.2469 C15.3015,65.3408 15.4806,65.4102 15.5889,65.4478 C16.7133,65.8378 19.3783,65.5795 20.1841,64.3522 C20.5059997,64.2401608 20.6847651,63.8966172 20.5918,63.5687 C20.6237081,63.5460151 20.6540134,63.5211561 20.6825,63.4943 C20.9236412,63.237989 21.0859621,62.9177213 21.1501,62.5717 C21.2449694,62.4782231 21.3194355,62.3660984 21.3688,62.2424 C21.4283333,62.0807333 21.4822333,61.9159333 21.5305,61.748 C21.5388,61.735 21.547,61.725 21.5552,61.7118 C22.1013,60.8412 22.51,59.7699 21.9034,58.9352 C21.9082,58.6073 21.9043,58.2779 21.8904,57.9492 C21.9797989,57.9984818 22.0896233,57.9916707 22.1722478,57.9317203 C22.2548723,57.8717699 22.2954172,57.7694766 22.2763,57.6692 Z" id="Path" fill="#20EF90"></path>
                <path d="M12.6245,53.5946 C12.3538,53.782 11.6428,53.5767 11.333,53.4799 C11.2174313,53.4423853 11.1055597,53.394316 10.9988,53.3363 C11.0123806,53.1175548 10.9300854,52.9037298 10.7733549,52.7505325 C10.6166243,52.5973352 10.4009787,52.5199361 10.1826,52.5385 C7.4042,52.8068 4.8826,50.3417 2.618,49.0043 C1.9202,48.5921 1.3953,49.5527 1.8587,50.0819 C3.121369,51.3009297 4.57586602,52.3040742 6.164,53.0512 C7.18853534,53.7209164 8.38519917,54.0793737 9.6092,54.0832 C10.9283395,55.1534739 12.7698994,55.3022053 14.2437,54.4575 C14.9406,53.8424 13.3806,53.0713 12.6245,53.5946 Z" id="Path" fill="#11C96D"></path>
                <path d="M19.7372,50.5215 C19.4873119,50.1405791 18.9791525,50.0285967 18.5923,50.2692 C18.3387,50.4361 18.1084,50.6315 17.8632,50.8092 C17.5682244,50.9918747 17.2887515,51.1984693 17.0276,51.4269 C16.812386,51.6743993 16.7851111,52.033803 16.9605103,52.3109458 C17.1359095,52.5880885 17.472402,52.7172697 17.7882,52.6287 C18.4001316,52.3685291 18.9679345,52.0148795 19.4713,51.5804 C19.6515272,51.4794173 19.7821809,51.3086338 19.8324955,51.1082646 C19.8828101,50.9078955 19.8483393,50.6956477 19.7372,50.5215 L19.7372,50.5215 Z" id="Path" fill="#11C96D"></path>
                <path d="M24.2489,72.5486 C24.1718,72.4736 24.0962,72.3965 24.0189,72.3214 C24.0147,72.3004 24.0126,72.2794 24.0063,72.2587 L23.9071,71.9331 C23.819307,71.6502359 23.5883386,71.4349799 23.3,71.3673 L23.064,71.3158 C23.009,71.2523 22.9498,71.1923 22.8966,71.1271 C22.6819327,70.7915499 22.4306221,70.4809081 22.1473,70.2009 L22.1413,70.2094 C21.990776,70.0773767 21.7924058,70.0133877 21.5931076,70.0325678 C21.3938094,70.0517478 21.2112833,70.1523934 21.0887,70.3107 C20.8533681,69.8015135 20.5340066,69.335571 20.144,68.9324 C19.8738658,68.6878045 19.4739073,68.6530166 19.1656,68.8473 L19.1266,68.8787 C18.6897056,68.8146918 18.2474997,68.7945915 17.8066,68.8187 C17.4591326,68.8500187 17.1620061,69.0814647 17.0466,69.4107 C17.0028104,69.4452414 16.9629689,69.4845127 16.9278,69.5278 C16.8304,69.6489333 16.7331,69.7701 16.6359,69.8913 C16.4766,70.0218 16.3239,70.1598 16.1667,70.2922 C15.9694238,70.2460989 15.7618495,70.2873587 15.5972,70.4054 C15.1028981,70.7334758 14.6774612,71.1549723 14.3448,71.6462 C14.0420605,71.6087925 13.7364424,71.6003543 13.4321,71.621 C12.0885,71.411 11.6851,71.619 10.8477,70.3757 C10.3002,69.563 9.0001,70.3908 9.5629,71.197 C10.7575,72.9087 10.8877,72.887 12.5284,73.1448 C12.6716843,73.2592833 12.8524588,73.3163212 13.0355,73.3048 C13.1857756,73.44716 13.3820502,73.5310192 13.5888,73.5412 C13.9162021,73.5748203 14.2469123,73.5539714 14.5675,73.4795 C15.1022422,74.4393513 15.9452601,75.1906541 16.9601,75.6118 L16.9789,75.6136 C16.8053019,75.8078185 16.7445149,76.0780134 16.8182083,76.3278662 C16.8919016,76.577719 17.0895893,76.7716776 17.3408,76.8406 C19.097,77.1675 20.1808,77.1426 21.0031,75.9929 C21.1948511,75.9848088 21.3766956,75.9055104 21.5131,75.7705 C21.7526777,75.5749987 21.9722848,75.356229 22.1687,75.1174 C22.5296082,74.8952369 22.8644379,74.6332634 23.1669,74.3364 C23.1821,74.3218 23.1959,74.3069 23.2094,74.2917 C23.2815,74.22 23.354,74.1406 23.4262,74.064 C23.5758401,74.0728074 23.7257212,74.0513813 23.8669,74.001 C24.1006352,73.9228199 24.28606,73.7424743 24.3707,73.511 C24.5610291,73.201378 24.5103634,72.8010438 24.2489,72.5486 Z" id="Path" fill="#D6D6EA"></path>
                <path d="M19.7813,75.7176 C19.4435745,75.7842016 19.0953246,75.7755977 18.7613,75.6924 C18.362,75.6551 17.9623,75.6304 17.5613,75.6149 C16.5966,75.5779 16.6494,77.0749 17.6073,77.1118 C18.0667,77.1295 18.5249,77.1587 18.9819,77.2084 C19.3944147,77.2914901 19.8211169,77.2706997 20.2236,77.1479 C21.1168,76.8023 20.6813,75.3692 19.7813,75.7176 Z" id="Path" fill="#9393B5"></path>
            </g>
            <g id="Layer_1-2">
                <path d="M66.5081,42.5519 C66.1008749,42.3705901 65.7217505,42.1318272 65.3823,41.8429 C65.3575066,41.8491725 65.3330427,41.8566819 65.309,41.8654 C65.309,41.8341 65.3061,41.8043 65.3061,41.7735 C64.7706756,41.3287328 64.3721933,40.7413934 64.1568,40.0795 C64.1119,39.9178 64.0679,39.7604 64.0239,39.6031 L64.018,39.6031 C63.5714265,38.4176556 62.7516893,37.4094529 61.6823,36.7304 C61.6715,36.7197 61.6637,36.7074 61.653,36.6972 C61.3680918,36.3570476 60.8855614,36.2596279 60.491,36.4626 C56.8732,35.0652 52.9387,35.6989 50.7844,38.5374 C49.9144,39.3857 49.2122,40.4039 48.3844,41.3074 C48.291734,41.4080323 48.2217567,41.5273893 48.1792,41.6574 C48.1379,41.6574 48.0966,41.6574 48.0553,41.6565 C47.7002183,41.672143 47.3810228,41.8776431 47.2198,42.1944 C47.159,42.3144 47.0998,42.4363 47.0427,42.5589 C46.8786461,42.9033953 46.9599334,43.3147091 47.2427,43.5709 C47.2927,44.3043 47.3241,45.0451 47.3108,45.7722 C47.3169923,46.1767655 47.5533157,46.5423931 47.9196495,46.7141812 C48.2859832,46.8859693 48.7182051,46.8338484 49.0332,46.5799 C49.2864088,47.6297533 49.9441546,48.5370472 50.8632,49.1042 C51.1960549,49.3057945 51.6197457,49.276163 51.9213,49.0302 C52.390948,49.2227416 52.9302801,49.0316209 53.1738994,48.5863219 C53.4175187,48.141023 53.287616,47.5837695 52.8722,47.2921 C52.6627533,47.140687 52.426727,47.0299669 52.1764,46.9657 C51.4205572,45.6231743 51.0489762,44.0984466 51.1024,42.5587 C51.2220416,42.4300639 51.3031241,42.2703937 51.3364,42.0979 C51.4625272,41.4591369 51.6842532,40.8430442 51.9941,40.2704 C52.5947544,39.6560885 53.3116398,39.1674343 54.103,38.8329 C54.194693,38.9449115 54.31462,39.0304207 54.4504,39.0806 C54.6659181,39.4288069 55.0795864,39.6006725 55.4784,39.5077 C56.1723895,39.2635684 56.9015794,39.1343692 57.6372,39.1252 C57.8231838,39.1329543 58.0073856,39.0862435 58.1672,38.9908 C58.8058833,39.135817 59.4665926,39.1558859 60.1129,39.0499 C60.5572091,39.2875815 61.0203417,39.48826 61.4976,39.6499 C61.629453,39.6924051 61.7676327,39.7119228 61.9061,39.7076 C62.122645,40.0723894 62.2955008,40.4613989 62.4211,40.8666 C62.2409972,41.0981019 62.2023699,41.4097313 62.3205,41.6782 C62.5517243,42.4751331 62.6788466,43.2986382 62.6987,44.1282 C62.7154347,44.2293187 62.751601,44.3262376 62.8052,44.4136 C62.7984,44.5421 62.7905,44.6696 62.7808,44.7962 C62.6068,45.555 62.4085,46.2552 61.5455,46.4541 C60.2966,46.7428 60.5655,48.733 61.8123,48.433 C61.9716,48.3944 62.1211,48.3538 62.2623,48.3114 C62.4991709,48.6426086 62.9000106,48.8153639 63.3034389,48.7601136 C63.7068671,48.7048632 64.0465002,48.4306986 64.1856,48.048 C64.3000593,47.7106312 64.3959694,47.367251 64.4729,47.0194 C64.6341859,47.0458159 64.7994648,47.0329175 64.9547,46.9818 C65.4346655,46.9097018 65.8903982,46.7237535 66.2838,46.4395 C66.6172784,46.0708725 66.8172426,45.6008968 66.8516,45.105 C66.9726993,44.2933259 66.953215,43.4668655 66.794,42.6618 C66.6987,42.6266 66.602,42.5929 66.5081,42.5519 Z" id="Path" fill="#D6D6EA" fill-rule="nonzero"></path>
                <polygon id="Path" fill="#25E899" fill-rule="nonzero" points="49.709 48.452 62.901 48.452 64.019 48.878 63.179 51.888 50.54 51.888"></polygon>
                <path d="M61.3922,55.6092 L52.3262,55.6092 C51.3394948,55.6089791 50.5398,54.8090053 50.5398,53.8223 L50.5398,51.8882 L63.1787,51.8882 L63.1787,53.8227 C63.1782034,54.8091509 62.3786509,55.6087034 61.3922,55.6092" id="Path" fill="#D6D6EA" fill-rule="nonzero"></path>
                <path d="M61.3922,56.0192 L52.3262,56.0192 C51.1137107,56.0173825 50.1312623,55.0348894 50.1295,53.8224 L50.1295,51.4772 L63.5895,51.4772 L63.5895,53.8226 C63.5876268,55.0352452 62.6048457,56.0177132 61.3922,56.0192 Z M50.9502,52.2983 L50.9502,53.8223 C50.9511367,54.5818555 51.5666445,55.1973633 52.3262,55.1983 L61.3922,55.1983 C62.1517555,55.1973633 62.7672633,54.5818555 62.7682,53.8223 L62.7682,52.2983 L50.9502,52.2983 Z" id="Shape" fill="#0E2947" fill-rule="nonzero"></path>
                <path d="M54.5426,48.4516 C52.9263367,47.741546 51.7360761,46.3152952 51.3266788,44.5980655 C50.9172815,42.8808359 51.3360374,41.0709865 52.4581,39.7081 C53.4911,38.4567 59.9908,38.3932 61.0219,39.5576 C62.2155823,40.905525 62.693115,42.7427925 62.3068574,44.501367 C61.9205998,46.2599414 60.7170817,47.7279789 59.0684,48.4516" id="Path" fill="#0FCE7C" fill-rule="nonzero"></path>
                <path d="M54.1859,48.8616056 C54.1237098,48.8614791 54.0623741,48.8471115 54.0066,48.8196 C52.3888212,48.033322 51.1840871,46.5932675 50.6957837,44.8620826 C50.2074802,43.1308978 50.4821414,41.2735603 51.4506,39.7578 C51.5728759,39.5670133 51.8266632,39.5114742 52.01745,39.63375 C52.2082367,39.7560259 52.2637758,40.0098132 52.1415,40.2006 C51.299682,41.5191989 51.0612021,43.1345943 51.4860852,44.6401955 C51.9109682,46.1457967 52.9587476,47.3982077 54.3657,48.0822 C54.5384089,48.1653623 54.6304441,48.3570934 54.5873097,48.5438653 C54.5441753,48.7306372 54.3773855,48.8625934 54.1857,48.8616056 L54.1859,48.8616056 Z" id="Path" fill="#0E2947" fill-rule="nonzero"></path>
                <path d="M59.3947,48.8313041 C59.2039227,48.83215 59.037769,48.7012999 58.9938734,48.5156393 C58.9499778,48.3299786 59.0399413,48.1385749 59.2109,48.0539 C60.6545258,47.3315607 61.706353,46.0096111 62.0858713,44.4406002 C62.4653896,42.8715892 62.1340072,41.2150636 61.1801,39.9128 C61.0490151,39.7297795 61.089515,39.4753688 61.2709506,39.3420989 C61.4523861,39.2088289 61.7072641,39.2462755 61.8427,39.4261 C62.939235,40.9238045 63.320081,42.8286045 62.8837276,44.632795 C62.4473741,46.4369856 61.238164,47.9572217 59.5784,48.7883 C59.5211976,48.8163163 59.4583942,48.8310171 59.3947,48.8313041 Z" id="Path" fill="#0E2947" fill-rule="nonzero"></path>
                <path d="M63.4972,52.2986 L50.2213,52.2986 L48.0606,43.794 L48.0606,43.7417 C48.0769437,38.8935887 52.0117111,34.9720636 56.85985,34.9720636 C61.7079889,34.9720636 65.6427563,38.8935887 65.6591,43.7417 L65.6591,43.794 L65.6464,43.8434 L63.4972,52.2986 Z M50.8592,51.4772 L62.8592,51.4772 L64.8372,43.6909 C64.8061571,39.306872 61.2434379,35.7692907 56.8593,35.7692907 C52.4751621,35.7692907 48.9124429,39.306872 48.8814,43.6909 L50.8592,51.4772 Z" id="Shape" fill="#0E2947" fill-rule="nonzero"></path>
                <path d="M48.4713,44.0310008 C48.2450003,44.0306696 48.0616304,43.8472997 48.0613,43.621 L48.0613,35.6368 C48.0613,35.4101423 48.2450423,35.2264 48.4717002,35.2264 C48.6983577,35.2264 48.8821,35.4101423 48.8821,35.6368 L48.8821,43.6205 C48.8822331,43.7294641 48.8389856,43.8339993 48.7619082,43.9110204 C48.6848307,43.9880416 48.580264,44.0312127 48.4713,44.0310008 L48.4713,44.0310008 Z" id="Path" fill="#0E2947" fill-rule="nonzero"></path>
                <path d="M65.2484,44.031001 C65.0219633,44.031001 64.8384,43.8474367 64.8384,43.621 L64.8384,33.3832 C64.8384,33.1565147 65.0221647,32.97275 65.2488502,32.97275 C65.4755353,32.97275 65.6593,33.1565147 65.6593,33.3832 L65.6593,43.6205 C65.6594332,43.7294815 65.616172,43.8340318 65.5390729,43.9110559 C65.4619737,43.98808 65.3573813,44.0312393 65.2484,44.031001 Z" id="Path" fill="#0E2947" fill-rule="nonzero"></path>
                <path d="M49.1242,47.6175 L48.2583,47.6175 C47.3282838,47.6163426 46.5746918,46.8626164 46.5737,45.9326 L46.5737,42.6979 C46.5748568,41.7679683 47.3283684,41.0143672 48.2583,41.0131 L48.6253,41.0131 C48.8519853,41.0131 49.03575,41.1968647 49.03575,41.42355 C49.03575,41.6502353 48.8519853,41.834 48.6253,41.834 L48.2583,41.834 C47.7815136,41.8346066 47.3952305,42.2211134 47.3949,42.6979 L47.3949,45.9326 C47.3952863,46.4092178 47.781682,46.7954346 48.2583,46.7956 L49.1242,46.7956 C49.3486621,46.7991016 49.5287893,46.9820606 49.5287893,47.20655 C49.5287893,47.4310394 49.3486621,47.6139984 49.1242,47.6175 L49.1242,47.6175 Z" id="Path" fill="#0E2947" fill-rule="nonzero"></path>
                <path d="M65.4899,47.6175 L64.624,47.6175 C64.3970662,47.6175 64.2131,47.4335338 64.2131,47.2066 C64.2131,46.9796662 64.3970662,46.7957 64.624,46.7957 L65.4899,46.7957 C65.9666447,46.7956451 66.3532482,46.4094444 66.3538,45.9327 L66.3538,42.698 C66.3533039,42.2210868 65.9668132,41.8345961 65.4899,41.8341 L65.1224,41.8341 C64.8957147,41.8341 64.71195,41.6503353 64.71195,41.42365 C64.71195,41.1969647 64.8957147,41.0132 65.1224,41.0132 L65.4899,41.0132 C66.4199325,41.0143021 67.1735979,41.7679675 67.1747,42.698 L67.1747,45.9327 C67.1737079,46.8627781 66.4199781,47.6165079 65.4899,47.6175 Z" id="Path" fill="#0E2947" fill-rule="nonzero"></path>
                <path d="M48.5613,42.7492003 C48.3962118,42.7493231 48.2471536,42.6504204 48.1831065,42.4982623 C48.1190595,42.3461041 48.1525187,42.1703754 48.268,42.0524 C52.8956644,37.2647067 60.5173317,37.1015854 65.3456,41.6869 C65.5106227,41.8423405 65.5183905,42.1021273 65.36295,42.26715 C65.2075094,42.4321726 64.9477227,42.4399405 64.7827,42.2845 C60.2800995,38.0062337 53.1701723,38.1584499 48.8548,42.6255 C48.7777067,42.7047071 48.6718311,42.7493299 48.5613,42.7492003 Z" id="Path" fill="#0E2947" fill-rule="nonzero"></path>
                <path d="M64.0191,48.8616 L49.7091,48.8616 C49.4821662,48.8616 49.2982,48.6776338 49.2982,48.4507 C49.2982,48.2237662 49.4821662,48.0398 49.7091,48.0398 L64.0191,48.0398 C64.2460338,48.0398 64.43,48.2237662 64.43,48.4507 C64.43,48.6776338 64.2460338,48.8616 64.0191,48.8616 Z" id="Path" fill="#0E2947" fill-rule="nonzero"></path>
                <path d="M59.8031003,41.4236 C59.8035045,42.0179672 59.4457777,42.5540341 58.89677,42.781769 C58.3477624,43.0095038 57.7156263,42.8840437 57.2952021,42.4639056 C56.8747779,42.0437675 56.7488874,41.411717 56.9762484,40.8625544 C57.2036094,40.3133919 57.7394327,39.9553 58.3338,39.9553 C59.1448359,39.9554101 59.8024377,40.6125643 59.8031003,41.4236" id="Path" fill="#FFFFFF" fill-rule="nonzero"></path>
                <path d="M60.8527003,43.6205 C60.8527003,43.9486676 60.5866676,44.2147 60.2585,44.2147 C59.9303324,44.2147 59.6643,43.9486676 59.6643,43.6205 C59.6643,43.2923324 59.9303324,43.0262997 60.2585,43.0262997 C60.4161405,43.0261406 60.5673702,43.0886924 60.6788389,43.2001611 C60.7903076,43.3116298 60.8528594,43.4628595 60.8527003,43.6205" id="Path" fill="#FFFFFF" fill-rule="nonzero"></path>
                <path d="M61.9336,51.1268 C61.4727132,51.092287 61.0657351,50.8132578 60.8674,50.3958 C60.6846,50.1193 60.6074,50.0322 60.4863,50.0322 C60.3652,50.0322 60.2879,50.1192 60.1042,50.3958 C59.9339092,50.8362934 59.5102641,51.1267166 59.038,51.1267166 C58.5657359,51.1267166 58.1420908,50.8362934 57.9718,50.3958 C57.7886,50.1193 57.7118,50.0322 57.5907,50.0322 C57.4696,50.0322 57.3913,50.1192 57.2081,50.3958 C57.0377435,50.8363685 56.6140078,51.1268313 56.14165,51.1268313 C55.6692922,51.1268313 55.2455565,50.8363685 55.0752,50.3958 C54.892,50.1193 54.8162,50.0322 54.6941,50.0322 C54.572,50.0322 54.4952,50.1192 54.311,50.3958 C54.1406435,50.8363685 53.7169078,51.1268313 53.24455,51.1268313 C52.7721922,51.1268313 52.3484565,50.8363685 52.1781,50.3958 C51.9949,50.1193 51.9181,50.0322 51.7955,50.0322 C51.5688423,50.0322 51.3851,49.8484577 51.3851,49.6218 C51.3851,49.3951423 51.5688423,49.2114 51.7955,49.2114 C52.2567931,49.2458671 52.6641624,49.5250937 52.8627,49.9429 C53.0455,50.2194 53.1227,50.306 53.2448,50.306 C53.3669,50.306 53.4432,50.2194 53.6269,49.9429 C53.797039,49.5019616 54.2210344,49.2112307 54.6936588,49.2114301 C55.1662833,49.2116295 55.5900331,49.5027182 55.7598,49.9438 C55.9435,50.2194 56.0198,50.306 56.1414,50.306 C56.263,50.306 56.3402,50.2194 56.5235,49.9429 C56.693639,49.5019616 57.1176344,49.2112307 57.5902588,49.2114301 C58.0628833,49.2116295 58.4866331,49.5027182 58.6564,49.9438 C58.8396,50.2194 58.9164,50.306 59.038,50.306 C59.1596,50.306 59.2369,50.2194 59.4201,49.9438 C59.5897441,49.5025992 60.0136085,49.2114596 60.4863,49.2114596 C60.9589915,49.2114596 61.3828559,49.5025992 61.5525,49.9438 C61.7353,50.2194 61.8115,50.306 61.9336,50.306 C62.1602577,50.306 62.344,50.4897423 62.344,50.7164 C62.344,50.9430577 62.1602577,51.1268 61.9336,51.1268 L61.9336,51.1268 Z" id="Path" fill="#0E2947" fill-rule="nonzero"></path>
                <rect id="Rectangle" fill="#D6D6EA" fill-rule="nonzero" x="47.7232" y="61.7477" width="18.7693" height="4.3874"></rect>
                <rect id="Rectangle" fill="#D6D6EA" fill-rule="nonzero" x="50.2514" y="58.8863" width="12.9077" height="2.7285"></rect>
                <path d="M47.4608,66.3712 L66.3723,66.3712" id="Path"></path>
                <rect id="Rectangle" fill="#0E2947" fill-rule="nonzero" x="47.4608" y="65.9608" width="18.9115" height="1"></rect>
                <polygon id="Path" fill="#0E2947" fill-rule="nonzero" points="47.461 66.371 47.666 69.145 49.54 71.676 51.181 71.832 57.19 72.416 63.352 71.975 65.418 70.544 66.372 67.817 65.963 66.371"></polygon>
                <path d="M62.0013,72.5992 L51.8313,72.5992 C49.1916444,72.5961684 47.0526452,70.456856 47.05,67.8172 L47.05,61.6543 C47.05,61.4278633 47.2335633,61.2443 47.46,61.2443 L66.3723,61.2443 C66.5987367,61.2443 66.7823,61.4278633 66.7823,61.6543 L66.7823,67.817 C66.7796003,70.4565487 64.6408479,72.5958379 62.0013,72.5992 Z M47.8713,62.0644 L47.8713,67.817 C47.8733389,70.0033645 49.6449361,71.7754091 51.8313,71.778 L62.0013,71.778 C64.187885,71.7756299 65.9598403,70.0035851 65.9621,67.817 L65.9621,62.0644 L47.8713,62.0644 Z" id="Shape" fill="#0E2947" fill-rule="nonzero"></path>
                <path d="M60.0301,67.2692 C60.0296582,65.4582 58.5612335,63.9904319 56.7502334,63.9908 C54.9392334,63.9911683 53.4714056,65.4595333 53.4717001,67.2705333 C53.4719947,69.0815333 54.9402999,70.5494209 56.7513,70.5492 C58.5625206,70.5488135 60.0306,69.0804206 60.0306,67.2692" id="Path" fill="#FFCE08" fill-rule="nonzero"></path>
                <path d="M56.7513,71.2392 C54.5596069,71.2395312 52.7825789,69.4631596 52.7821002,67.2714666 C52.7816218,65.0797735 54.557874,63.3026261 56.749567,63.302 C58.94126,63.3013743 60.7185268,65.0775071 60.7193,67.2692 C60.7175372,69.4602592 58.942358,71.2363331 56.7513,71.2392 L56.7513,71.2392 Z M56.7513,64.6806 C55.7034247,64.6797505 54.7582839,65.3103964 54.3568214,66.2783175 C53.955359,67.2462386 54.1766864,68.3606979 54.9175462,69.101758 C55.6584059,69.8428182 56.7728054,70.0644471 57.740835,69.6632464 C58.7088646,69.2620457 59.3397661,68.3170755 59.3392004,67.2692 C59.337109,65.8406148 58.179884,64.6828533 56.7513,64.6801 L56.7513,64.6806 Z" id="Shape" fill="#0E2947" fill-rule="nonzero"></path>
                <path d="M49.4891001,71.2768 C49.4893023,70.8911807 49.2571664,70.5434195 48.9009587,70.3957092 C48.544751,70.2479989 48.1346377,70.3294358 47.8618921,70.6020383 C47.5891465,70.8746408 47.5074945,71.2847114 47.6550179,71.6409965 C47.8025413,71.9972817 48.1501807,72.2296004 48.5358,72.2296004 C48.7886174,72.2298389 49.031156,72.1295476 49.2099719,71.9508256 C49.3887878,71.7721035 49.4892063,71.5296175 49.4891001,71.2768" id="Path" fill="#0E2947" fill-rule="nonzero"></path>
                <path d="M66.2345001,71.2768 C66.2347761,70.7503071 65.808193,70.3232764 65.2817001,70.3230001 C64.7552071,70.3227241 64.3281764,70.7493071 64.3279001,71.2758001 C64.3276241,71.802293 64.7542071,72.2293238 65.2807,72.2296003 C65.5335552,72.2298123 65.7761298,72.1295284 65.9550192,71.9508264 C66.1339087,71.7721245 66.234447,71.5296553 66.2345001,71.2768" id="Path" fill="#0E2947" fill-rule="nonzero"></path>
                <path d="M65.1752,70.6269 C65.1749791,70.3001621 64.9100047,70.0354265 64.5832668,70.0355001 C64.2565288,70.0355738 63.9916738,70.3004288 63.9916001,70.6271668 C63.9915265,70.9539047 64.2562621,71.2188791 64.583,71.2191 C64.910063,71.2191 65.1752,70.953963 65.1752,70.6269" id="Path" fill="#EFF4EE" fill-rule="nonzero"></path>
                <path d="M49.7193004,70.6269 C49.7190791,70.3001361 49.4540641,70.0353896 49.1273002,70.0355 C48.8005362,70.0356105 48.5357001,70.300536 48.5357001,70.6273 C48.5357001,70.9540639 48.800536,71.2189895 49.1273,71.2191002 C49.2843835,71.2192329 49.4350686,71.1568769 49.5461247,71.0457832 C49.6571808,70.9346896 49.719486,70.7839835 49.7193004,70.6269" id="Path" fill="#EFF4EE" fill-rule="nonzero"></path>
                <rect id="Rectangle" fill="#0E2947" fill-rule="nonzero" x="41.7548" y="66.1352" width="5.9239" height="3.027"></rect>
                <rect id="Rectangle" fill="#0E2947" fill-rule="nonzero" x="66.4925" y="66.1352" width="5.9241" height="3.027"></rect>
                <path d="M63.762,62.0644 L49.4857,62.0644 L49.4857,58.2179 L63.762,58.2179 L63.762,62.0644 Z M50.3071,61.2444 L62.9413,61.2444 L62.9413,59.0392 L50.3071,59.0392 L50.3071,61.2444 Z" id="Shape" fill="#0E2947" fill-rule="nonzero"></path>
                <path d="M61.957,57.526 L51.4622,57.526 C51.2355423,57.526 51.0518,57.3422577 51.0518,57.1156 C51.0518,56.8889423 51.2355423,56.7052 51.4622,56.7052 L61.957,56.7052 C62.1836577,56.7052 62.3674,56.8889423 62.3674,57.1156 C62.3674,57.3422577 62.1836577,57.526 61.957,57.526 L61.957,57.526 Z" id="Path" fill="#25E899" fill-rule="nonzero"></path>
                <rect id="Rectangle" fill="#9393B5" fill-rule="nonzero" x="61.2632" y="62.0805" width="4.7241" height="3.8587"></rect>
                <rect id="Rectangle" fill="#9393B5" fill-rule="nonzero" x="59.3497" y="59.0529" width="3.5807" height="2.1867"></rect>
                <polygon id="Path" fill="#FFFFFF" fill-rule="nonzero" points="57.537 66.358 57.845 66.965 57.612 67.958 57.055 67.503 57.152 66.774"></polygon>
                <g id="Group" stroke-linecap="round" transform="translate(0.861300, 0.989200)"></g>
                <g id="Group" stroke-linecap="round" transform="translate(0.861300, 0.989200)"></g>
                <path d="M56.7145,66.1541 C56.650435,66.1541 56.5985,66.102165 56.5985,66.0381 L56.5985,65.1232 C56.597259,65.080927 56.6191025,65.0413231 56.6555191,65.0198202 C56.6919358,64.9983173 56.7371642,64.9983173 56.7735809,65.0198202 C56.8099975,65.0413231 56.831841,65.080927 56.8306,65.1232 L56.8306,66.0381 C56.8306,66.0688824 56.8183649,66.0984027 56.796589,66.1201598 C56.7748132,66.1419169 56.7452824,66.1541265 56.7145,66.1541 L56.7145,66.1541 Z" id="Path" fill="#15003E" fill-rule="nonzero"></path>
                <path d="M56.542,66.0381 L56.9008,66.0381" id="Path" fill="#FFFFFF" fill-rule="nonzero"></path>
                <path d="M56.9007,66.1541 L56.542,66.1541 C56.499727,66.155341 56.4601231,66.1334975 56.4386202,66.0970809 C56.4171173,66.0606642 56.4171173,66.0154358 56.4386202,65.9790191 C56.4601231,65.9426025 56.499727,65.920759 56.542,65.922 L56.9007,65.922 C56.942973,65.920759 56.9825769,65.9426025 57.0040798,65.9790191 C57.0255827,66.0154358 57.0255827,66.0606642 57.0040798,66.0970809 C56.9825769,66.1334975 56.942973,66.155341 56.9007,66.1541 Z" id="Path" fill="#15003E" fill-rule="nonzero"></path>
                <path d="M57.5372,66.3576 L57.9186,65.9981 C57.4023828,65.4819536 56.6038418,65.376899 55.9716934,65.7419684 C55.339545,66.1070379 55.0314282,66.851194 55.2204801,67.5562803 C55.409532,68.2613666 56.0486087,68.7515555 56.7786,68.7514 C57.1106,68.7514 57.4026,68.8726 57.6591,68.7006 L57.9783,68.7447 L57.9691,68.2265 L57.0551,67.5027 L57.0551,67.5027 L57.2516,66.5771 L57.5376,66.3571" id="Path" fill="#FFFFFF" fill-rule="nonzero"></path>
                <path d="M56.7782,68.9092 C55.976566,68.9092514 55.2748474,68.3708549 55.0673478,67.5965417 C54.8598483,66.8222285 55.198311,66.0050854 55.89255,65.6042746 C56.5867889,65.2034637 57.4636849,65.3189335 58.0305,65.8858 L58.1458,66.0011 L57.6458,66.4724 L57.4286,66.2424 L57.6848,66.0009 C57.1857466,65.6032314 56.48578,65.5772559 55.9586252,65.9368424 C55.4314704,66.2964289 55.2002292,66.9576062 55.3883656,67.5673597 C55.5765019,68.1771132 56.140082,68.5930525 56.7782,68.5931" id="Path" fill="#15003E" fill-rule="nonzero"></path>
                <path d="M57.6672,67.9998 L57.4398,67.7798 C57.7934488,67.4146335 57.7844988,66.8320312 57.4198,66.4779 L57.3012,66.3627 L57.4284,66.2427 L57.5367,66.3576 L57.6403,66.2509 C58.1303259,66.7267174 58.1422751,67.5095481 57.667,68.0001 L57.6672,67.9998 Z" id="Path" fill="#0FCE7C" fill-rule="nonzero"></path>
                <g id="Group" transform="translate(0.861300, 0.989200)"></g>
                <circle id="Oval" fill="#EFF4EE" fill-rule="nonzero" cx="56.7782" cy="67.1385" r="1"></circle>
                <path d="M56.7782,67.661 C56.5668594,67.6610404 56.3763062,67.5337631 56.2954017,67.3385214 C56.2144971,67.1432797 56.2591753,66.9185268 56.4086013,66.7690721 C56.5580274,66.6196174 56.7827718,66.5748962 56.978029,66.6557634 C57.1732861,66.7366306 57.3006,66.9271594 57.3006,67.1385 C57.3002695,67.4268927 57.0665927,67.6606143 56.7782,67.661 L56.7782,67.661 Z M56.7782,66.9327 C56.694903,66.9326596 56.6197874,66.9828106 56.5878924,67.0597593 C56.5559973,67.1367079 56.5736069,67.2252934 56.6325067,67.2841933 C56.6914066,67.3430931 56.7799921,67.3607027 56.8569407,67.3288076 C56.9338894,67.2969126 56.9840404,67.221797 56.984,67.1385 C56.9838897,67.0248855 56.8918145,66.9328103 56.7782,66.9327 Z" id="Shape" fill="#15003E" fill-rule="nonzero"></path>
                <path d="M57.9186,65.9981 L56.9983,66.8485" id="Path" fill="#15003E" fill-rule="nonzero"></path>
                <rect id="Rectangle" fill="#15003E" fill-rule="nonzero" transform="translate(57.458488, 66.423253) rotate(-42.736400) translate(-57.458488, -66.423253) " x="56.8319385" y="66.2649526" width="1.2531" height="1"></rect>
                <polyline id="Path" fill="#FFFFFF" fill-rule="nonzero" points="56.95 67.46 57.612 67.958 57.969 68.227 57.969 68.91 57.251 68.875"></polyline>
                <polygon id="Path" fill="#15003E" fill-rule="nonzero" points="58.127 68.91 56.749 68.91 56.749 68.593 57.81 68.593 57.81 68.306 56.855 67.586 57.045 67.333 58.127 68.148"></polygon>
                <g id="Group" transform="translate(0.861300, 0.989200)"></g>
                <g id="Group" transform="translate(0.861300, 0.989200)"></g>
                <g id="Group" transform="translate(0.861300, 0.989200)"></g>
                <rect id="Rectangle" fill="#25E899" fill-rule="nonzero" transform="translate(58.366280, 65.210271) rotate(-45.000000) translate(-58.366280, -65.210271) " x="58.27658" y="65.1205706" width="1" height="1"></rect>
                <rect id="Rectangle" fill="#25E899" fill-rule="nonzero" transform="translate(57.761747, 64.605771) rotate(-45.000000) translate(-57.761747, -64.605771) " x="57.711747" y="64.5557706" width="1" height="1"></rect>
                <circle id="Oval" fill="#25E899" fill-rule="nonzero" cx="58.3539" cy="64.0661" r="1"></circle>
                <path d="M56.1651,66.4736 C56.1343176,66.4736265 56.1047868,66.4614169 56.083011,66.4396598 C56.0612351,66.4179027 56.049,66.3883824 56.049,66.3576 L56.049,65.1232 C56.049,65.0590797 56.1009797,65.0071 56.1651,65.0071 C56.2292203,65.0071 56.2812,65.0590797 56.2812,65.1232 L56.2812,66.3576 C56.2812,66.3883824 56.2689649,66.4179027 56.247189,66.4396598 C56.2254132,66.4614169 56.1958824,66.4736265 56.1651,66.4736 L56.1651,66.4736 Z" id="Path" fill="#15003E" fill-rule="nonzero"></path>
                <path d="M51.0022,68.565 C48.9393527,66.7595718 46.610243,65.2832986 44.0971,64.1883 C43.3413212,63.9807376 42.5328107,64.2103204 41.9989,64.7841 C41.4446,65.3441 41.5658,66.7641 41.0121,67.1541 C40.7367889,67.388308 40.6161632,67.7571784 40.6999,68.1088 C41.3335,69.9588 43.1578,70.7454 44.7341,71.6846 C46.0947,72.4946 47.4461,73.3213 48.8099,74.1263 C50.4502425,74.928203 52.0413304,75.8271637 53.5747,76.8184 C53.6666842,77.0272592 53.8254725,77.1996257 54.0261,77.3084 C53.9042333,77.2417333 53.9334667,77.2613667 54.1138,77.3673 C54.2414747,77.4327592 54.3741206,77.488031 54.5105,77.5326 C54.7067591,77.5957758 54.9108428,77.6313827 55.1169,77.6384 C55.4717903,77.6528155 55.826555,77.6069314 56.1661,77.5027 C56.8496838,77.351359 57.3570977,76.7755865 57.4213,76.0784 C57.4230595,75.991158 57.4125226,75.904103 57.39,75.8198 C57.8895545,75.624685 58.2697594,75.2080677 58.4185,74.6928 C58.4990897,74.3442151 58.4668021,73.9790369 58.3263,73.65 C58.2933652,73.5676806 58.2532085,73.4884381 58.2063,73.4132 C58.16487,73.2515817 58.0845355,73.1025508 57.9723,72.9791 C56.0413,70.8292 53.5471,69.6732 51.0022,68.565 Z M45.7335,68.9902 C45.7226,69.0059 45.7127,69.0219 45.7029,69.0376 C45.3861429,68.8282723 45.0869847,68.5934607 44.8084,68.3355 C45.1525,68.5643 45.4733,68.8072 45.7335,68.9902 Z M56.3299,74.153 C56.0457369,74.4047093 55.9241212,74.7929558 56.0139,75.1618 C55.8172798,75.2553858 55.6572822,75.4115848 55.559,75.6059 C55.5412453,75.6131515 55.5231201,75.6194603 55.5047,75.6248 C55.4298729,75.6394571 55.3535862,75.6452969 55.2774,75.6422 C55.2502242,75.6127764 55.2215178,75.5848044 55.1914,75.5584 C54.3281812,74.8874565 53.4130372,74.2861325 52.4546,73.7601 C52.7742938,73.2045416 53.1789173,72.7024063 53.6538,72.2719 C53.7014802,72.2325226 53.7441938,72.1874919 53.781,72.1378 C54.7123472,72.6991673 55.5688027,73.3762943 56.3299,74.153 L56.3299,74.153 Z" id="Shape" fill="#D6D6EA" fill-rule="nonzero"></path>
                <path d="M46.3994,68.8006 L41.4699,65.732" id="Path"></path>
                <path d="M46.7479,69.0175 C46.6904469,69.1100129 46.5985489,69.175868 46.4924786,69.2005377 C46.3864083,69.2252074 46.2748812,69.2066647 46.1825,69.149 L41.253,66.0804 C41.1285108,66.0029091 41.054819,65.8648903 41.0596834,65.7183341 C41.0645479,65.5717778 41.1472298,65.4389494 41.2765834,65.3698841 C41.4059371,65.3008187 41.5623108,65.3060091 41.6868,65.3835 L46.6168,68.4521 C46.7092465,68.5096179 46.7750184,68.6015451 46.7996118,68.7076104 C46.8242053,68.8136756 46.8056005,68.9251673 46.7479,69.0175 L46.7479,69.0175 Z" id="Path" fill="#0E2947" fill-rule="nonzero"></path>
                <path d="M58.9736,76.628 L54.5424,73.8697" id="Path"></path>
                <path d="M59.3229,76.8455 C59.2026327,77.0379001 58.949252,77.0965241 58.7567,76.9765 L54.3255,74.2181 C54.1330564,74.0982818 54.0741819,73.8451436 54.194,73.6527 C54.3138182,73.4602564 54.5669564,73.4013819 54.7594,73.5212 L59.1906,76.2792 C59.3834243,76.3991095 59.442638,76.6525692 59.3229,76.8455 Z" id="Path" fill="#0E2947" fill-rule="nonzero"></path>
                <path d="M58.5475,75.1156 L57.4283,76.9134 C56.718366,78.051402 55.2211375,78.3998277 54.0817,77.6922 L41.3403,69.7607 C40.2027854,69.0505604 39.8549004,67.5535721 40.5627,66.4146 L41.6819,64.6168 C42.3913408,63.478703 43.8882163,63.1297497 45.0278,63.8368 L57.7693,71.7692 C58.9069192,72.4793599 59.2550421,73.9763508 58.5475,75.1156 L58.5475,75.1156 Z M41.2588,66.8479 C40.7904356,67.6023057 41.020925,68.5934592 41.7741,69.0638 L54.5157,76.9954 C55.2702845,77.4639068 56.2616921,77.2334758 56.7323,76.4802 L57.8513,74.6824 C58.3199952,73.9276396 58.089085,72.9359021 57.3352,72.4658 L44.5939,64.5342 C43.8394158,64.0654747 42.8478649,64.296325 42.378,65.0501 L41.2588,66.8479 Z" id="Shape" fill="#0E2947" fill-rule="nonzero"></path>
                <path d="M55.404,72.4856 C54.6397705,72.0099261 53.6346332,72.2438038 53.1588986,73.0079955 C52.6831639,73.7721871 52.9169617,74.777343 53.6811155,75.2531384 C54.4452694,75.7289339 55.4504438,75.495216 55.9263,74.7311 C56.1548627,74.3640807 56.2282406,73.9212882 56.1302867,73.5001599 C56.0323329,73.0790315 55.7710738,72.7140751 55.404,72.4856" id="Path" fill="#25E899" fill-rule="nonzero"></path>
                <path d="M56.2747,74.948 C55.6791145,75.9046821 54.4207576,76.1974166 53.4640674,75.6018441 C52.5073773,75.0062716 52.2146257,73.7479187 52.8101852,72.7912204 C53.4057447,71.8345222 54.6640937,71.5417535 55.6208,72.1373 C56.5762334,72.7338063 56.8687196,73.9910186 56.2747,74.948 L56.2747,74.948 Z M53.507,73.2252 C53.2461514,73.6441248 53.2633745,74.1789382 53.5506367,74.5802117 C53.8378988,74.9814851 54.3386158,75.1701767 54.8192611,75.0582836 C55.2999064,74.9463906 55.6658035,74.5559533 55.7463039,74.0690656 C55.8268042,73.5821778 55.606051,73.0947458 55.187,72.8341 C54.6149459,72.4790013 53.8634043,72.6539584 53.507,73.2252 L53.507,73.2252 Z" id="Shape" fill="#0E2947" fill-rule="nonzero"></path>
                <path d="M48.3747,66.4042 L45.1213,71.6308 C45.0014818,71.8232436 44.7483436,71.8821182 44.5559,71.7623 C44.3634564,71.6424818 44.3045818,71.3893436 44.4244,71.1969 L47.6779,65.9703 C47.7977182,65.7778564 48.0508564,65.7189818 48.2433,65.8388 C48.4357436,65.9586182 48.4946182,66.2117564 48.3748,66.4042 L48.3747,66.4042 Z" id="Path" fill="#0E2947" fill-rule="nonzero"></path>
                <path d="M51.5307,68.3692 L48.2772,73.5958 C48.1996912,73.7202892 48.061656,73.7939715 47.9150908,73.7890916 C47.7685256,73.7842116 47.6356972,73.7015107 47.5666408,73.5721416 C47.4975843,73.4427724 47.5027912,73.2863892 47.5803,73.1619 L50.8338,67.9353 C50.9536182,67.7428564 51.2067564,67.6839818 51.3992,67.8038 C51.5916436,67.9236182 51.6505182,68.1767564 51.5307,68.3692 Z" id="Path" fill="#0E2947" fill-rule="nonzero"></path>
                <path d="M62.5007,80.5409 L59.0713,78.4064 C58.8408514,78.2628931 58.6768502,78.0337175 58.6153756,77.7692905 C58.553901,77.5048634 58.5999888,77.2268459 58.7435,76.9964 L59.2026,76.2589 C59.346028,76.0283726 59.5751589,75.8642642 59.8395856,75.8026772 C60.1040123,75.7410901 60.3820742,75.7870694 60.6126,75.9305 L64.0416,78.065" id="Path" fill="#EFF4EE" fill-rule="nonzero"></path>
                <path d="M64.3901,78.2824 C64.3326469,78.3749129 64.2407489,78.440768 64.1346786,78.4654377 C64.0286083,78.4901074 63.9170812,78.4715647 63.8247,78.4139 L60.3957,76.2792 C60.1081319,76.1008602 59.730475,76.1888892 59.5514,76.476 L59.0923,77.2135 C58.9138603,77.5008814 59.0016142,77.8784646 59.2885,78.0577 L62.7175,80.1922 C62.9099436,80.3120182 62.9688182,80.5651564 62.849,80.7576 C62.7291818,80.9500436 62.4760436,81.0089182 62.2836,80.8891 L58.8546,78.7546 C58.1832225,78.3355004 57.9777591,77.4520479 58.3953,76.7797 L58.8544,76.0421 C59.2733753,75.370559 60.15682,75.1647947 60.8294,75.5821 L64.2584,77.7166 C64.3510571,77.7740232 64.4170323,77.8659811 64.4417453,77.9721509 C64.4664582,78.0783207 64.4478741,78.1899613 64.3901,78.2824 L64.3901,78.2824 Z" id="Path" fill="#0E2947" fill-rule="nonzero"></path>
                <path d="M64.0413,78.0657 C63.5408489,77.7537859 62.9017733,77.7740927 62.422134,78.1171492 C61.9424946,78.4602058 61.7167722,79.058436 61.8502422,79.6328291 C61.9837122,80.2072223 62.4500834,80.6446328 63.0318431,80.7410552 C63.6136029,80.8374777 64.1961546,80.5739185 64.5078,80.0733 C64.9330734,79.3900481 64.7242651,78.4914338 64.0413,78.0657" id="Path" fill="#25E899" fill-rule="nonzero"></path>
                <path d="M64.8566,80.2902 C64.4571559,80.9315756 63.7106823,81.2691705 62.9652707,81.1455592 C62.219859,81.0219479 61.6223117,80.4614746 61.4512736,79.7254961 C61.2802356,78.9895177 61.5693913,78.2229787 62.1839032,77.7833273 C62.7984152,77.3436759 63.6172606,77.3174977 64.2586,77.717 C65.1333395,78.2631252 65.4008682,79.4143039 64.8566,80.2902 L64.8566,80.2902 Z M62.3813,78.7497 C62.0760556,79.2406956 62.2265072,79.8861666 62.7173885,80.1915948 C63.2082699,80.4970229 63.8537971,80.3468129 64.159409,79.856046 C64.4650209,79.365279 64.3150525,78.7196956 63.8244,78.4139 C63.3330621,78.1087823 62.6874586,78.25901 62.3813,78.7497 L62.3813,78.7497 Z" id="Shape" fill="#0E2947" fill-rule="nonzero"></path>
                <path d="M65.8823,74.6364 C66.91,73.865 67.8517,72.9929 68.8423,72.1751 C69.8438,71.3482 71.1488,70.9906 72.1449,70.1251 C72.5957613,69.7416603 72.8920839,69.2075761 72.9788,68.6221 C72.9102,68.5797 72.8457,68.5313 72.7801,68.4847 C72.7939727,68.3682806 72.7851775,68.2502766 72.7542,68.1372 C72.5094487,67.3026911 72.0578434,66.5435373 71.4413,65.9302 C71.3481359,65.8336618 71.241336,65.7512877 71.1243,65.6857 C71.0735837,65.4522136 71.0401597,65.2153041 71.0243,64.9769 C70.3188912,64.5946976 69.4654623,64.6069328 68.7713,65.0092 C68.4487634,65.1827682 68.2513242,65.5230472 68.2607,65.8892 C66.7876973,66.6432422 65.3981154,67.5501675 64.1149,68.595 C61.4302,70.3881 58.5922,71.9042 55.8668,73.6259 C55.6590139,73.7460091 55.5086112,73.9450205 55.4497774,74.1777002 C55.3909436,74.4103799 55.4286767,74.656962 55.5544,74.8614 C55.5344,74.8753 55.5177,74.8931 55.4983,74.9092 L55.4983,74.9021 C55.4867,74.9113 55.4783,74.9251 55.4663,74.9351 C55.4257561,74.9708311 55.3883523,75.0099747 55.3545,75.0521 C55.3373743,75.0702671 55.321756,75.0897983 55.3078,75.1105 C55.261969,75.1723755 55.224105,75.2397714 55.1951,75.3111 C55.166498,75.3866266 55.1467658,75.46522 55.1363,75.5453 C55.1333702,75.5659197 55.1315675,75.5866839 55.1309,75.6075 C55.1175645,75.7667361 55.1424906,75.926853 55.2036,76.0745 C55.2363637,76.1482755 55.2785119,76.217514 55.329,76.2805 C55.3323699,76.2886575 55.3364174,76.2965184 55.3411,76.304 L55.3421,76.2961 C55.5023696,76.4952427 55.7320398,76.6263858 55.985,76.6632 C55.8446338,76.9949409 55.8770787,77.3745874 56.0717,77.6777 C56.2229671,77.9264394 56.476453,78.0955886 56.7642,78.1398 C56.7820634,78.236231 56.8180672,78.3283953 56.8703,78.4114 C56.9972084,78.6693583 57.2309834,78.858582 57.5097208,78.9289642 C57.7884582,78.9993464 58.0840417,78.9437876 58.3182,78.777 C58.5370018,78.8684527 58.7839744,78.8648303 59,78.767 C61.4607183,77.6889841 63.7735582,76.3008702 65.8823,74.6364 Z M58.3961,76.8645 C58.3002016,76.9035049 58.2105989,76.956478 58.1302,77.0217 C58.054247,76.9915242 57.9749465,76.9705743 57.894,76.9593 C57.8528657,76.7981144 57.7833097,76.6455585 57.6886,76.5088 C57.5093093,76.2507431 57.2134969,76.0986582 56.8993,76.103 C57.0119149,75.8435351 57.0417717,75.555653 56.9848,75.2786 L56.9965,75.2726 C58.5315,74.2955 60.1181,73.4059 61.6865,72.4862 C61.6962616,72.6326584 61.7216731,72.7776511 61.7623,72.9187 C61.9182214,73.5361317 62.3190496,74.0633472 62.8723,74.3787 C61.4782373,75.3726395 59.9767166,76.2064897 58.3961,76.8645 L58.3961,76.8645 Z" id="Shape" fill="#D6D6EA" fill-rule="nonzero"></path>
                <path d="M56.3484,78.1792 L55.1945,76.4032 C54.4648564,75.2780804 54.783585,73.7746654 55.907,73.0424 L68.4913,64.863 C69.616633,64.1336185 71.1200577,64.4532752 71.8513,65.5774 L73.006,67.3524 C73.7362458,68.4776905 73.4175629,69.9817591 72.2937,70.7142 L59.7099,78.8927 C58.5843798,79.6226302 57.0803703,79.3033945 56.3484,78.1792 L56.3484,78.1792 Z M71.1648,66.0236 C70.6801392,65.2794224 69.6844189,65.0682334 68.9394,65.5516 L56.3547,73.7316 C55.6098827,74.2158218 55.3985706,75.2121227 55.8827,75.957 L57.0366,77.7328 C57.5217788,78.4768632 58.5175177,78.6880955 59.263,78.2051 L71.8472,70.0251 C72.5913776,69.5404392 72.8025666,68.5447189 72.3192,67.7997 L71.1648,66.0236 Z" id="Shape" fill="#0E2947" fill-rule="nonzero"></path>
                <path d="M68.5513,72.6573 L65.1963,67.4946 C65.0729196,67.3045588 65.1269588,67.0504804 65.317,66.9271 C65.5070412,66.8037196 65.7611196,66.8577588 65.8845,67.0478 L69.2399,72.2092 C69.3635565,72.3992964 69.3096964,72.6536434 69.1196,72.7773 C68.9295036,72.9009565 68.6751566,72.8470964 68.5515,72.657 L68.5513,72.6573 Z" id="Path" fill="#0E2947" fill-rule="nonzero"></path>
                <path d="M65.4339,74.6836 L62.0791,69.521 C61.9965427,69.3979929 61.9866286,69.2400575 62.0531555,69.1076919 C62.1196823,68.9753264 62.2523387,68.8890467 62.4003097,68.881903 C62.5482808,68.8747593 62.6886316,68.9478586 62.7676,69.0732 L66.1231,74.2361 C66.2432766,74.4262708 66.1881893,74.6777249 65.9995123,74.8002336 C65.8108353,74.9227422 65.5587221,74.8707545 65.4339,74.6836 L65.4339,74.6836 Z" id="Path" fill="#0E2947" fill-rule="nonzero"></path>
                <path d="M67.2177,69.8523 L72.086,66.6876" id="Path"></path>
                <path d="M66.8733,70.0757 C66.8139815,69.9844588 66.7933719,69.8733774 66.8160119,69.7669299 C66.8386519,69.6604824 66.9026839,69.5674032 66.994,69.5082 L71.8623,66.3444 C72.051936,66.2246178 72.3026257,66.2794536 72.4249337,66.4674704 C72.5472418,66.6554872 72.495764,66.906888 72.3094,67.0317 L67.4413,70.1964 C67.350019,70.2558773 67.2388189,70.2765782 67.13225,70.2539323 C67.0256811,70.2312864 66.9325076,70.1671562 66.8733,70.0757 Z" id="Path" fill="#0E2947" fill-rule="nonzero"></path>
                <path d="M59.0035,76.93 L62.3894,74.7292 C62.6169051,74.5812643 62.7763239,74.3490104 62.832585,74.083533 C62.8888461,73.8180556 62.8373408,73.5411018 62.6894,73.3136 L62.2156,72.5859 C62.0681426,72.3582459 61.8362436,72.198539 61.5709741,72.1419515 C61.3057046,72.0853639 61.0288205,72.1365366 60.8013,72.2842 L57.4154,74.4853" id="Path" fill="#EFF4EE" fill-rule="nonzero"></path>
                <path d="M58.6584,77.1532 C58.5992381,77.0618533 58.5788218,76.9507325 58.6016495,76.8443218 C58.6244773,76.737911 58.6886759,76.6449423 58.7801,76.5859 L62.166,74.3848 C62.4493396,74.1999234 62.5298201,73.8207261 62.346,73.5367 L61.8723,72.809 C61.687626,72.5255882 61.3085782,72.4448075 61.0244,72.6283 L57.6381,74.8292 C57.447976,74.9528289 57.1936289,74.898924 57.07,74.7088 C56.9463711,74.518676 57.000276,74.2643289 57.1904,74.1407 L60.5773,71.9399 C61.241344,71.5092133 62.1287362,71.6976907 62.5604,72.3611 L63.0339,73.0897 C63.4653985,73.7537168 63.277434,74.6417595 62.6139,75.074 L59.2273,77.274 C59.1358586,77.3334863 59.0245194,77.3541797 58.9178107,77.3315212 C58.811102,77.3088627 58.7177786,77.2447114 58.6584,77.1532 Z" id="Path" fill="#0E2947" fill-rule="nonzero"></path>
                <path d="M57.4148,74.4854 C58.0898744,74.0467737 58.9927066,74.2384465 59.4313417,74.9135152 C59.8699768,75.5885838 59.6783158,76.4914185 59.0032529,76.9300625 C58.32819,77.3687064 57.4253527,77.1770572 56.9867,76.502 C56.548266,75.8268742 56.7398977,74.9241778 57.4148,74.4854" id="Path" fill="#25E899" fill-rule="nonzero"></path>
                <path d="M56.6424,76.7264 C56.2303297,76.0928748 56.2404919,75.2734979 56.6681475,74.6503873 C57.0958031,74.0272768 57.8567206,73.723161 58.5960446,73.8798651 C59.3353685,74.0365691 59.907481,74.6232284 60.0455762,75.3662532 C60.1836713,76.109278 59.8605498,76.8623214 59.2269,77.2742 C58.3617342,77.8355147 57.2054547,77.5904344 56.6424,76.7264 L56.6424,76.7264 Z M59.0874,75.1364 C58.7720725,74.6513797 58.1232651,74.5138118 57.6382399,74.8291318 C57.1532148,75.1444518 57.0156369,75.7932571 57.3309494,76.2782871 C57.6462619,76.7633172 58.2950651,76.900905 58.7801,76.5856 C59.2637444,76.2694529 59.4010742,75.6219519 59.0874,75.1367 L59.0874,75.1364 Z" id="Shape" fill="#0E2947" fill-rule="nonzero"></path>
                <path d="M47.3777,73.6825 C47.3039,76.716 47.5134,80.7338 50.8629,82.0202 C52.5556,82.6702 54.3459,82.2796 56.0991,82.2795 C57.2442209,82.1822253 58.383768,82.5215888 59.2891,83.2295 C59.8724895,83.6672243 60.1161009,84.4254745 59.8968282,85.1210788 C59.6775555,85.8166831 59.0431499,86.2981595 58.3142,86.3222 C56.5753,86.4944 54.9824,85.4351 53.2153,85.9442 C52.0170534,86.2967901 51.1473114,87.3338583 51.0088,88.5752 C50.5183,91.5373 53.1275,94.2616 55.6911,95.2635 C56.2911,95.498 56.5511,94.5308 55.9571,94.2986 C54.1984439,93.6133746 52.8126304,92.2148426 52.1435,90.45 C51.8298112,89.5951163 51.8796396,88.6490997 52.2814,87.8319 C52.9006084,86.9797601 53.9696514,86.5809022 54.9957,86.8192 C56.5297,86.9768 58.0857,87.7492 59.5912,87 C60.5879497,86.5023441 61.134229,85.4043995 60.93,84.3092 C60.4392,81.1369 56.65,81.2537 54.25,81.3741 C52.2621,81.4741 50.4193,81.215 49.2926,79.3927 C48.2487,77.7043 48.3326,75.5902 48.3786,73.6827 C48.3692623,73.4130778 48.1479838,73.19933 47.8782,73.19933 C47.6084162,73.19933 47.3871377,73.4130778 47.3778,73.6827 L47.3777,73.6825 Z" id="Path" fill="#0E2947" fill-rule="nonzero"></path>
                <path d="M64.913,75.3792 C65.7107494,76.3263277 66.4078325,77.353855 66.993,78.4452 C67.7090488,80.0443304 68.0159678,81.796494 67.8861,83.5438 C67.8050056,85.1262124 67.3465479,86.6662679 66.549,88.0354 C65.5201807,89.5913836 63.7171838,90.4532368 61.8602,90.2767 C60.3641,90.2249 58.963,89.3409 57.4327,89.2178 C56.3690999,89.0332212 55.2748853,89.157141 54.2795,89.5749 C52.1862,90.78 54.2123,94.1857 55.5507,95.1505 C56.0739,95.5277 56.574,94.6605 56.0558,94.2864 C55.2416217,93.6531955 54.6951322,92.7371448 54.5247,91.7199 C54.2612,90.5183 55.0885,90.2282 56.0763,90.1811 C57.5329148,90.1580756 58.9797963,90.4222385 60.3343,90.9585 C62.7555512,91.7902034 65.4386691,91.0288966 67.0623,89.0495 C68.5255461,86.9179961 69.1546042,84.3231494 68.8299,81.7582 C68.7201205,80.4402738 68.3913452,79.1498781 67.8571,77.9401 C67.2685506,76.8508049 66.5716945,75.8236124 65.7771,74.8741 C65.3907,74.3697 64.5212,74.8676 64.913,75.3792 L64.913,75.3792 Z" id="Path" fill="#0E2947" fill-rule="nonzero"></path>
                <path d="M64.7978,47.5074 C64.7647,48.294 64.8896,49.2411 65.7458,49.5498 C66.404804,49.7488949 67.1026342,49.3877053 67.3206,48.7347 C67.6602957,47.9229964 67.7053649,47.0180387 67.448,46.1766 C67.3507823,45.830557 67.1163929,45.5392626 66.7991695,45.3702467 C66.4819461,45.2012309 66.1094371,45.1691712 65.768,45.2815 C65.1745,45.5128 65.4326,46.4808 66.034,46.2465 C66.7424,45.9705 66.604,47.5036 66.5394,47.8536 C66.4937,48.1001 66.3814,48.8402 65.9469,48.5068 C65.7037,48.3202 65.7869,47.7693 65.798,47.5074 C65.8252,46.8634 64.8244,46.8646 64.7974,47.5074 L64.7978,47.5074 Z" id="Path" fill="#0E2947" fill-rule="nonzero"></path>
                <path d="M54.8856,52.2713 L54.8856,52.9593 C54.8941419,53.2294801 55.1156349,53.4440811 55.38595,53.4440811 C55.6562651,53.4440811 55.8777581,53.2294801 55.8863,52.9593 L55.8863,52.2713 C55.8762346,52.0022428 55.6551954,51.7893181 55.38595,51.7893181 C55.1167046,51.7893181 54.8956654,52.0022428 54.8856,52.2713 Z" id="Path" fill="#0E2947" fill-rule="nonzero"></path>
                <path d="M55.4068,53.5848 L58.2421,53.5848 C58.5122801,53.5762581 58.7268811,53.3547651 58.7268811,53.08445 C58.7268811,52.8141349 58.5122801,52.5926419 58.2421,52.5841 L55.4068,52.5841 C55.1366199,52.5926419 54.9220189,52.8141349 54.9220189,53.08445 C54.9220189,53.3547651 55.1366199,53.5762581 55.4068,53.5848 Z" id="Path" fill="#0E2947" fill-rule="nonzero"></path>
                <path d="M58.8884,53.0427 L58.8884,52.1462 C58.8798581,51.8760199 58.6583651,51.6614189 58.38805,51.6614189 C58.1177349,51.6614189 57.8962419,51.8760199 57.8877,52.1462 L57.8877,53.0427 C57.8962419,53.3128801 58.1177349,53.5274811 58.38805,53.5274811 C58.6583651,53.5274811 58.8798581,53.3128801 58.8884,53.0427 L58.8884,53.0427 Z" id="Path" fill="#0E2947" fill-rule="nonzero"></path>
                <path d="M57.9713,51.896 L55.9488,51.896 C55.6786199,51.9045419 55.4640189,52.1260349 55.4640189,52.39635 C55.4640189,52.6666651 55.6786199,52.8881581 55.9488,52.8967 L57.9713,52.8967 C58.2414801,52.8881581 58.4560811,52.6666651 58.4560811,52.39635 C58.4560811,52.1260349 58.2414801,51.9045419 57.9713,51.896 L57.9713,51.896 Z" id="Path" fill="#0E2947" fill-rule="nonzero"></path>
                <path d="M50.4765,53.6366 L52.1865,55.3466 C52.2841992,55.4442992 52.4426008,55.4442992 52.5403,55.3466 C52.6379992,55.2489008 52.6379992,55.0904992 52.5403,54.9928 L50.8303,53.2828 C50.7326008,53.1851009 50.5741992,53.1851009 50.4765,53.2828 C50.3788009,53.3804992 50.3788009,53.5389008 50.4765,53.6366 L50.4765,53.6366 Z" id="Path" fill="#0E2947" fill-rule="nonzero"></path>
                <path d="M51.946,54.7314 L62.516,54.7314 C62.6540712,54.7314 62.766,54.6194712 62.766,54.4814 C62.766,54.3433288 62.6540712,54.2314 62.516,54.2314 L51.946,54.2314 C51.8079288,54.2314 51.696,54.3433288 51.696,54.4814 C51.696,54.6194712 51.8079288,54.7314 51.946,54.7314 Z" id="Path" fill="#0E2947" fill-rule="nonzero"></path>
                <path d="M62.777,53.2411 L60.6296,55.3885 C60.5319008,55.4861992 60.5319008,55.6446008 60.6296,55.7423 C60.7272992,55.8399992 60.8857008,55.8399992 60.9834,55.7423 L63.1313,53.5949 C63.2289991,53.4972008 63.2289991,53.3387992 63.1313,53.2411 C63.0336008,53.1434009 62.8751992,53.1434009 62.7775,53.2411 L62.777,53.2411 Z" id="Path" fill="#0E2947" fill-rule="nonzero"></path>
                <path d="M62.8407,54.1099 L62.8766,54.0234 C62.9952,53.7374 62.5743,53.6291 62.4193,53.8306 C62.1302745,54.2034907 61.8087847,54.5500452 61.4586,54.8662 C61.2195,55.0839 61.5728,55.4332 61.8124,55.22 L63.0331,54.1339 L62.6793,53.7801 C62.2549,54.2127 61.8527667,54.6650333 61.4729,55.1371 C61.3123,55.3371 61.5306,55.7179 61.7761,55.53 C62.1880865,55.2199835 62.5326209,54.8293115 62.7887,54.3818 L62.3566,54.1292 C62.2101945,54.4080451 62.0414075,54.6745526 61.8519,54.9261 C61.7046,55.1217 61.9985,55.4169 62.1942,55.2684 L62.3337,55.1625 C62.5365,55.0086 62.4315,54.5937 62.141,54.7052 L61.6156,54.9068 C61.318,55.021 61.4472,55.5049 61.7486,55.3893 L62.274,55.1877 C62.2098,55.0353 62.1455333,54.8828667 62.0812,54.7304 L61.9412,54.8363 L62.2835,55.1786 C62.4729724,54.9270284 62.6417576,54.6605238 62.7882,54.3817 C62.9375,54.0975 62.516,53.8478 62.3561,54.1291 C62.1465972,54.5048982 61.8632094,54.8344118 61.523,55.0978 L61.8262,55.4907 C62.2062,55.0186333 62.6083333,54.5663 63.0326,54.1337 C63.26,53.902 62.9181,53.567 62.6788,53.7799 L61.4581,54.866 L61.8119,55.2198 C62.191413,54.8724237 62.5392523,54.4919558 62.8513,54.0829 L62.3941,53.8901 L62.3582,53.9766 C62.2349,54.274 62.7188,54.4036 62.8407,54.1099 L62.8407,54.1099 Z" id="Path" fill="#0E2947" fill-rule="nonzero"></path>
                <path d="M61.6195,54.6692 L51.4873,54.6692 C51.3492288,54.6692 51.2373,54.7811288 51.2373,54.9192 C51.2373,55.0572712 51.3492288,55.1692 51.4873,55.1692 L61.6195,55.1692 C61.7575712,55.1692 61.8695,55.0572712 61.8695,54.9192 C61.8695,54.7811288 61.7575712,54.6692 61.6195,54.6692 Z" id="Path" fill="#0E2947" fill-rule="nonzero"></path>
                <path d="M60.8065,54.9816 L52.3421,54.9816 C52.2040288,54.9816 52.0921,55.0935288 52.0921,55.2316 C52.0921,55.3696712 52.2040288,55.4816 52.3421,55.4816 L60.8065,55.4816 C60.9445712,55.4816 61.0565,55.3696712 61.0565,55.2316 C61.0565,55.0935288 60.9445712,54.9816 60.8065,54.9816 Z" id="Path" fill="#0E2947" fill-rule="nonzero"></path>
                <path d="M52.1143,54.8568 C51.843015,54.6588853 51.587177,54.4406224 51.349,54.2039 C51.133,53.9907 50.849,54.2592 50.9561,54.5071 L51.1142,54.8731 C51.2305,55.1424 51.6328,54.9445 51.5715,54.6803 C51.4872802,54.3210431 51.3147724,53.9884698 51.0696,53.7127 C51.0063853,53.650452 50.9150414,53.6261315 50.8292429,53.6487047 C50.7434445,53.6712778 50.6758961,53.737402 50.6515,53.8227 C50.6268434,53.913501 50.6460498,54.0106078 50.703416,54.0851858 C50.7607822,54.1597638 50.8497124,54.2032383 50.9438,54.2027 C51.2647,54.2294 51.2629,53.7289 50.9438,53.7027 L50.9105,53.6999 L51.0874,53.7732 L51.0652,53.7456 L51.1295,53.9892 L51.134,53.956 L50.7159,54.066 C50.9007143,54.2798606 51.0290184,54.5366064 51.0891,54.8128 L51.5464,54.62 L51.3883,54.254 L50.9954,54.5572 C51.2653652,54.8224615 51.555063,55.0668626 51.862,55.2883 C52.1228,55.4778 52.3727,55.0439 52.1143,54.8564 L52.1143,54.8568 Z" id="Path" fill="#0E2947" fill-rule="nonzero"></path>
                <path d="M55.1313,55.7579 C55.6213,56.2478333 56.1113,56.7378333 56.6013,57.2279 C56.6645181,57.2911003 56.7566511,57.3157733 56.8429932,57.2926249 C56.9293353,57.2694765 56.9967692,57.2020236 57.0198932,57.1156749 C57.0430172,57.0293262 57.0183181,56.9372003 56.9551,56.874 C56.4651,56.3840667 55.9751,55.8940667 55.4851,55.404 C55.3873732,55.3063008 55.2289492,55.3063232 55.13125,55.40405 C55.0335509,55.5017768 55.0335732,55.6602008 55.1313,55.7579 L55.1313,55.7579 Z" id="Path" fill="#0E2947" fill-rule="nonzero"></path>
                <path d="M57.0795,57.3841 L58.7682,55.6954 C58.8314181,55.6321997 58.8561172,55.5400738 58.8329932,55.4537251 C58.8098692,55.3673764 58.7424353,55.2999235 58.6560932,55.2767751 C58.5697511,55.2536267 58.4776181,55.2782997 58.4144,55.3415 L56.7257,57.0302 C56.6624819,57.0934003 56.6377828,57.1855262 56.6609068,57.2718749 C56.6840308,57.3582236 56.7514647,57.4256765 56.8378068,57.4488249 C56.9241489,57.4719733 57.0162819,57.4473003 57.0795,57.3841 L57.0795,57.3841 Z" id="Path" fill="#0E2947" fill-rule="nonzero"></path>
                <path d="M55.9442,55.9427 L56.7184,56.8679 L57.0216,56.475 C56.7383826,56.2699071 56.4929356,56.0171853 56.2962,55.7281 L55.9033,56.0313 L56.6597,56.9441 C56.7229147,57.006348 56.8142586,57.0306685 56.9000571,57.0080953 C56.9858555,56.9855222 57.0534039,56.919398 57.0778,56.8341 C57.1320667,56.5091 57.1864,56.1841333 57.2408,55.8592 L56.7494,55.7927 C56.7460667,56.0121 56.7427333,56.2314333 56.7394,56.4507 C56.7418269,56.5506916 56.8029799,56.6398505 56.8953882,56.6781249 C56.9877964,56.7163994 57.0940821,56.6965918 57.1665,56.6276 L57.7033,56.0495 L57.2852,55.8061 L57.1713,56.2592 C57.1444537,56.3678738 57.1924833,56.4812348 57.2892306,56.5375435 C57.385978,56.5938522 57.5082687,56.5796207 57.5895,56.5026 L58.0039,56.0506 C58.1615,55.8788 58.0102,55.545 57.7605,55.6325 C57.3858859,55.7656526 56.9904209,55.8305134 56.5929,55.824 L56.6594,56.3154 L57.3769,56.0714 C57.5101387,56.0346731 57.5883769,55.8968887 57.55165,55.76365 C57.514923,55.6304113 57.3771387,55.5521731 57.2439,55.5889 C56.971693,55.6584921 56.6940017,55.7045286 56.4139,55.7265 L56.5908,55.7998 L56.5456,55.7627 L56.6189,55.9396 L56.6121,55.8852 L56.5388,56.0621 L56.5874,56.0228 L56.4105,56.0961 C56.6221154,56.0883604 56.8340088,56.0940719 57.0449,56.1132 C57.1677597,56.1094603 57.2699008,56.0174304 57.2863812,55.8956237 C57.3028617,55.773817 57.2288486,55.6579535 57.1114,55.6217 L56.8478,55.547 C56.7145613,55.5102731 56.576777,55.5885113 56.54005,55.72175 C56.5033231,55.8549887 56.5815613,55.9927731 56.7148,56.0295 L56.9785,56.1042 L57.045,55.6128 C56.7874,55.6021 56.0066,55.4628 56.123,55.9728 C56.2344,56.4607 57.0784,56.127 57.3769,56.0713 C57.3325667,55.9104333 57.2882333,55.7496 57.2439,55.5888 L56.5264,55.8328 C56.408938,55.8690624 56.3349276,55.984952 56.3514345,56.1067707 C56.3679413,56.2285895 56.4701235,56.3206043 56.593,56.3243 C57.0355327,56.3323485 57.4759563,56.2614391 57.8936,56.1149 L57.6502,55.6968 L57.2358,56.1488 L57.6539,56.3922 L57.7683,55.9383 C57.7950778,55.8296679 57.7470538,55.7163835 57.6503615,55.6600934 C57.5536692,55.6038032 57.4314449,55.6179763 57.3502,55.6949 L56.8134,56.273 L57.2405,56.4499 C57.2437667,56.2306333 57.2471,56.0113 57.2505,55.7919 C57.2546,55.5179 56.8065,55.4413 56.759,55.7254 L56.5961,56.7004 L57.0142,56.5904 L56.2577,55.6776 C56.0777,55.4603 55.7043,55.7465 55.8648,55.9808 C56.1100114,56.3401093 56.416274,56.6536825 56.7697,56.9073 C57.015,57.085 57.2422,56.7168 57.0729,56.5144 L56.2982,55.5892 C56.0912,55.3416 55.7388,55.6972 55.9442,55.9426 L55.9442,55.9427 Z" id="Path" fill="#0E2947" fill-rule="nonzero"></path>
                <path d="M47.5084,41.5902 C47.9795374,38.6085761 49.8062467,36.0137912 52.4543,34.5647 C55.2349213,33.0920482 58.6736316,33.8606827 60.5626,36.3771 C60.747,36.6379 61.1811,36.3883 60.9947,36.1246 C59.1662204,33.6060963 55.8623822,32.6486375 52.9706,33.7992 C49.6782,35.0353 47.7295,38.1334 47.026,41.4571 C46.9594,41.7712 47.4417,41.9054 47.5084,41.5901 L47.5084,41.5902 Z" id="Path" fill="#0E2947" fill-rule="nonzero"></path>
                <path d="M56.1002,33.6666 C61.103,32.0956 66.3102,36.2147 65.0969,41.5407 C65.0255,41.8542 65.5078,41.9881 65.5794,41.6737 C66.8753,35.9848 61.3525,31.493 55.9672,33.1837 C55.661,33.28 55.7917,33.7632 56.1002,33.6663 L56.1002,33.6666 Z" id="Path" fill="#0E2947" fill-rule="nonzero"></path>
                <path d="M47.0457,42.0174 C46.305933,37.3188028 49.248874,32.8246932 53.8514362,31.6244886 C58.4539985,30.424284 63.2167937,32.908978 64.8657,37.3705 C64.9806,37.6676 65.4646,37.5385 65.3482,37.2375 C63.6252736,32.5095556 58.5875888,29.8691627 53.7192525,31.1424402 C48.8509162,32.4157177 45.751029,37.1844327 46.5635,42.1505 C46.6085,42.468 47.0907,42.3329 47.0459,42.0174 L47.0457,42.0174 Z" id="Path" fill="#0E2947" fill-rule="nonzero"></path>
                <path d="M50.3934,30.0599 C50.8181093,30.8746681 51.4620598,31.5545359 52.2526,32.0228 C52.3718935,32.0925535 52.5251464,32.0523935 52.5949,31.9331 C52.6646535,31.8138065 52.6244935,31.6605536 52.5052,31.5908 C51.7890179,31.1656673 51.2068503,30.5476687 50.8252,29.8074 C50.6763,29.5218 50.2443,29.7745 50.3932,30.0599 L50.3934,30.0599 Z" id="Path" fill="#0E2947" fill-rule="nonzero"></path>
                <path d="M50.4413,29.9944 C51.2675479,30.3646686 52.1443314,30.6098242 53.0428,30.7218 C53.3614,30.7618 53.3585,30.2618 53.0428,30.2218 C52.2316091,30.1191633 51.4400701,29.8970579 50.6939,29.5627 C50.4023,29.4327 50.1475,29.8635 50.4413,29.9948 L50.4413,29.9944 Z" id="Path" fill="#0E2947" fill-rule="nonzero"></path>
                <path d="M53.3177,30.5166 C53.5910333,29.9966 53.8642,29.4766 54.1372,28.9566 C54.2872,28.6718 53.855,28.4186 53.7051,28.7041 L52.8857,30.2641 C52.7357,30.5489 53.1677,30.8021 53.3177,30.5166 Z" id="Path" fill="#0E2947" fill-rule="nonzero"></path>
                <path d="M53.7451,28.8598 C54.0197284,29.6100287 54.1314394,30.4101408 54.0728,31.2069 C54.0501,31.5283 54.5505,31.5269 54.5728,31.2069 C54.6342889,30.3650947 54.516496,29.5198217 54.2272,28.7269 C54.1183,28.4269 53.6346,28.5561 53.7447,28.8599 L53.7451,28.8598 Z" id="Path" fill="#0E2947" fill-rule="nonzero"></path>
                <path d="M52.7365,30.6392 L53.2774,31.5405 C53.3471259,31.6598211 53.5003789,31.7000259 53.6197,31.6303 C53.7390211,31.5605741 53.7792259,31.4073211 53.7095,31.288 L53.1685,30.3867 C53.1233952,30.3095306 53.0405473,30.2622863 52.9511643,30.2627599 C52.8617813,30.2632407 52.7794425,30.3113669 52.7351643,30.3890135 C52.6908861,30.4666601 52.6913952,30.5620306 52.7365,30.6392 L52.7365,30.6392 Z" id="Path" fill="#0E2947" fill-rule="nonzero"></path>
                <path d="M50.1931,28.9032 C50.8492253,29.1614677 51.5453375,29.3034244 52.2502,29.3227 C52.5723,29.3327 52.5719,28.8327 52.2502,28.8227 C51.5903698,28.8018451 50.9392527,28.6659024 50.3262,28.421 C50.0262,28.303 49.8962,28.7867 50.1931,28.9036 L50.1931,28.9032 Z" id="Path" fill="#0E2947" fill-rule="nonzero"></path>
                <path d="M52.6233,29.1764 C53.0465335,28.7795877 53.3711084,28.2893007 53.5711,27.7447 C53.6844,27.4429 53.2011,27.3125 53.0886,27.6117 C52.9134708,28.0735218 52.6330027,28.4881119 52.2695,28.8225 C52.0334,29.0425 52.3878,29.3959 52.6233,29.1764 L52.6233,29.1764 Z" id="Path" fill="#0E2947" fill-rule="nonzero"></path>
                <path d="M50.4136,28.632 C50.3317383,27.3273721 50.3769511,26.017875 50.5486,24.722 C50.5892,24.4034 50.0886,24.4064 50.0486,24.722 C49.8769013,26.0178708 49.8316883,27.3273728 49.9136,28.632 C49.9353,28.952 50.4358,28.954 50.4136,28.632 L50.4136,28.632 Z" id="Path" fill="#0E2947" fill-rule="nonzero"></path>
                <path d="M50.1936,24.9546 C51.3855364,25.6328914 52.3934343,26.5924852 53.1294,27.7497 C53.3021,28.0203 53.7354,27.7697 53.5614,27.4971 C52.7805745,26.2667684 51.7111797,25.245672 50.4461,24.5225 C50.3267789,24.4527741 50.173526,24.4929789 50.1038,24.6123 C50.0340741,24.7316211 50.0742789,24.884874 50.1936,24.9546 L50.1936,24.9546 Z" id="Path" fill="#0E2947" fill-rule="nonzero"></path>
                <path d="M50.1413,25.0264 L52.1761,29.1805 C52.3177,29.4697 52.7494,29.2164 52.6082,28.928 C51.9298667,27.5432667 51.2516,26.1585667 50.5734,24.7739 C50.4317,24.4847 50,24.738 50.1413,25.0264 Z" id="Path" fill="#0E2947" fill-rule="nonzero"></path>
                <path d="M49.8913,39.8624 C49.8913,39.8624 53.0722,36.4579 56.8093,36.4579 C60.8747,36.4579 64.0176,40.1479 64.0176,40.1479 C62.6757384,37.5153925 59.9941105,35.8348853 57.0399399,35.7751799 C54.0857694,35.7154746 51.3384311,37.2862595 49.8913,39.8624 L49.8913,39.8624 Z" id="Path" fill="#9393B5" fill-rule="nonzero"></path>
                <path d="M54.5198,95.3792 L56.785,95.3792 C56.9869171,95.3718283 57.1468001,95.2060016 57.1468001,95.00395 C57.1468001,94.8018984 56.9869171,94.6360717 56.785,94.6287 L54.5198,94.6287 C54.3178829,94.6360717 54.1579999,94.8018984 54.1579999,95.00395 C54.1579999,95.2060016 54.3178829,95.3718283 54.5198,95.3792 L54.5198,95.3792 Z" id="Path" fill="#0E2947" fill-rule="nonzero"></path>
                <path d="M54.2179,95.3423 L57.433,98.5575 C57.580963,98.6952755 57.811448,98.691168 57.954408,98.548208 C58.097368,98.405248 58.1014755,98.174763 57.9637,98.0268 L54.7486,94.8117 C54.6008566,94.6726589 54.3693743,94.6761592 54.2259025,94.819604 C54.0824307,94.9630487 54.0788867,95.1945304 54.2179,95.3423 L54.2179,95.3423 Z" id="Path" fill="#0E2947" fill-rule="nonzero"></path>
                <path d="M57.8765,98.7039 L59.8687,98.7039 C60.0682883,98.6935899 60.2248286,98.5287544 60.2248286,98.3289 C60.2248286,98.1290456 60.0682883,97.9642101 59.8687,97.9539 L57.8765,97.9539 C57.6769117,97.9642101 57.5203714,98.1290456 57.5203714,98.3289 C57.5203714,98.5287544 57.6769117,98.6935899 57.8765,98.7039 L57.8765,98.7039 Z" id="Path" fill="#0E2947" fill-rule="nonzero"></path>
                <path d="M56.6293,95.3058 L57.9813,96.5846 C58.3321,96.9164 58.8638,96.3866 58.512,96.0539 L57.1602,94.7751 C56.8094,94.4432 56.2777,94.973 56.6295,95.3058 L56.6293,95.3058 Z" id="Path" fill="#0E2947" fill-rule="nonzero"></path>
                <path d="M58.132,96.7127 L59.9454,96.7127 C60.1473171,96.7053283 60.3072001,96.5395016 60.3072001,96.33745 C60.3072001,96.1353984 60.1473171,95.9695717 59.9454,95.9622 L58.132,95.9622 C57.9300829,95.9695717 57.7701999,96.1353984 57.7701999,96.33745 C57.7701999,96.5395016 57.9300829,96.7053283 58.132,96.7127 L58.132,96.7127 Z" id="Path" fill="#0E2947" fill-rule="nonzero"></path>
                <path d="M59.6252,98.6305 L61.8352,100.8405 C61.983163,100.978275 62.213648,100.974168 62.356608,100.831208 C62.499568,100.688248 62.5036755,100.457763 62.3659,100.3098 L60.1559,98.0998 C60.007937,97.9620245 59.777452,97.966132 59.634492,98.109092 C59.491532,98.252052 59.4874245,98.482537 59.6252,98.6305 L59.6252,98.6305 Z" id="Path" fill="#0E2947" fill-rule="nonzero"></path>
                <path d="M62.1558,100.9874 L67.3987,100.9874 C67.6006171,100.980028 67.7605001,100.814202 67.7605001,100.61215 C67.7605001,100.410098 67.6006171,100.244272 67.3987,100.2369 L62.1558,100.2369 C61.9538829,100.244272 61.7939999,100.410098 61.7939999,100.61215 C61.7939999,100.814202 61.9538829,100.980028 62.1558,100.9874 L62.1558,100.9874 Z" id="Path" fill="#0E2947" fill-rule="nonzero"></path>
                <path d="M67.6702,100.8905 L71.4242,98.6162 C71.5946987,98.5078571 71.648966,98.2840634 71.5470302,98.1096584 C71.4450944,97.9352535 71.2234705,97.8727119 71.0454,97.9681 L67.2913,100.2425 C67.1198549,100.350423 67.0649272,100.574888 67.1671652,100.749782 C67.2694031,100.924677 67.4919438,100.986943 67.6701,100.8905 L67.6702,100.8905 Z" id="Path" fill="#0E2947" fill-rule="nonzero"></path>
                <path d="M59.8813,95.9807 L59.8197,96.0423 C59.6819245,96.190263 59.686032,96.420748 59.828992,96.563708 C59.971952,96.706668 60.202437,96.7107755 60.3504,96.573 C60.578,96.3454 60.8055667,96.1178333 61.0331,95.8903 C61.1708755,95.742337 61.166768,95.511852 61.023808,95.368892 C60.880848,95.225932 60.650363,95.2218245 60.5024,95.3596 L59.8197,96.0423 L60.3504,96.573 L60.412,96.5114 C60.5497755,96.363437 60.545668,96.132952 60.402708,95.989992 C60.259748,95.847032 60.029263,95.8429245 59.8813,95.9807 L59.8813,95.9807 Z" id="Path" fill="#0E2947" fill-rule="nonzero"></path>
                <path d="M60.9501,95.9092 L68.4213,95.9092 C68.6232171,95.9018283 68.7831001,95.7360016 68.7831001,95.53395 C68.7831001,95.3318984 68.6232171,95.1660717 68.4213,95.1587 L60.9501,95.1587 C60.7481829,95.1660717 60.5882999,95.3318984 60.5882999,95.53395 C60.5882999,95.7360016 60.7481829,95.9018283 60.9501,95.9092 L60.9501,95.9092 Z" id="Path" fill="#0E2947" fill-rule="nonzero"></path>
                <path d="M68.1928,95.8355 L70.9695,98.4892 C71.3188,98.8229 71.8503,98.293 71.5002,97.9585 L68.7235,95.3051 C68.3743,94.9714 67.8427,95.5013 68.1928,95.8358 L68.1928,95.8355 Z" id="Path" fill="#0E2947" fill-rule="nonzero"></path>
                <path d="M69.6049,95.9406 L70.8649,94.8445 C71.2301,94.527 70.6973,93.998 70.3342,94.3138 L69.0742,95.4098 C68.7091,95.7274 69.2418,96.2563 69.6049,95.9406 Z" id="Path" fill="#0E2947" fill-rule="nonzero"></path>
                <path d="M70.3529,94.8627 L71.9329,96.5159 C72.2673,96.8659 72.7975,96.3346 72.4636,95.9852 L70.8836,94.332 C70.5493,93.982 70.0191,94.5134 70.3529,94.8627 Z" id="Path" fill="#0E2947" fill-rule="nonzero"></path>
                <path d="M70.9113,97.9135 L72.4549,96.4795 C72.8096,96.1501 72.2779,95.6202 71.9242,95.9488 L70.3805,97.3828 C70.0259,97.7122 70.5576,98.2421 70.9113,97.9135 Z" id="Path" fill="#0E2947" fill-rule="nonzero"></path>
                <path d="M62.4013,100.7947 L62.4013,101.7992 C62.4116101,101.998788 62.5764456,102.155329 62.7763,102.155329 C62.9761544,102.155329 63.1409899,101.998788 63.1513,101.7992 L63.1513,100.7947 C63.1409899,100.595112 62.9761544,100.438571 62.7763,100.438571 C62.5764456,100.438571 62.4116101,100.595112 62.4013,100.7947 L62.4013,100.7947 Z" id="Path" fill="#0E2947" fill-rule="nonzero"></path>
                <path d="M66.4936,100.7947 L66.4936,101.7992 C66.5009717,102.001117 66.6667984,102.161 66.86885,102.161 C67.0709016,102.161 67.2367283,102.001117 67.2441,101.7992 L67.2441,100.7947 C67.2367283,100.592783 67.0709016,100.4329 66.86885,100.4329 C66.6667984,100.4329 66.5009717,100.592783 66.4936,100.7947 L66.4936,100.7947 Z" id="Path" fill="#0E2947" fill-rule="nonzero"></path>
                <path d="M61.626,102.4853 L68.038,102.4853 C68.2399171,102.477928 68.3998001,102.312102 68.3998001,102.11005 C68.3998001,101.907998 68.2399171,101.742172 68.038,101.7348 L61.626,101.7348 C61.4240829,101.742172 61.2641999,101.907998 61.2641999,102.11005 C61.2641999,102.312102 61.4240829,102.477928 61.626,102.4853 L61.626,102.4853 Z" id="Path" fill="#0E2947" fill-rule="nonzero"></path>
                <path d="M62.2019,95.525 L63.584,94.1429 C63.7217755,93.994937 63.717668,93.764452 63.574708,93.621492 C63.431748,93.478532 63.201263,93.4744245 63.0533,93.6122 L63.0047,93.6608 C62.8669245,93.808763 62.871032,94.039248 63.013992,94.182208 C63.156952,94.325168 63.387437,94.3292755 63.5354,94.1915 L63.584,94.1429 L63.0533,93.6122 C62.5925667,94.0728667 62.1318667,94.5335667 61.6712,94.9943 C61.5334245,95.142263 61.537532,95.372748 61.680492,95.515708 C61.823452,95.658668 62.053937,95.6627755 62.2019,95.525 L62.2019,95.525 Z" id="Path" fill="#0E2947" fill-rule="nonzero"></path>
                <path d="M63.398,94.1917 L66.1747,94.1917 C66.3766171,94.1843283 66.5365001,94.0185016 66.5365001,93.81645 C66.5365001,93.6143984 66.3766171,93.4485717 66.1747,93.4412 L63.398,93.4412 C63.1960829,93.4485717 63.0361999,93.6143984 63.0361999,93.81645 C63.0361999,94.0185016 63.1960829,94.1843283 63.398,94.1917 L63.398,94.1917 Z" id="Path" fill="#0E2947" fill-rule="nonzero"></path>
                <path d="M66.0737,94.0635 L67.6082,95.6163 C67.9482,95.9604 68.4789,95.4297 68.1389,95.0856 L66.6044,93.5328 C66.2644,93.1887 65.7337,93.7195 66.0737,94.0635 Z" id="Path" fill="#0E2947" fill-rule="nonzero"></path>
                <path d="M65.326,93.4511 L65.326,92.8117 C65.3156899,92.6121117 65.1508544,92.4555714 64.951,92.4555714 C64.7511456,92.4555714 64.5863101,92.6121117 64.576,92.8117 L64.576,93.4511 C64.5863101,93.6506883 64.7511456,93.8072286 64.951,93.8072286 C65.1508544,93.8072286 65.3156899,93.6506883 65.326,93.4511 L65.326,93.4511 Z" id="Path" fill="#0E2947" fill-rule="nonzero"></path>
                <path d="M59.6165,98.6673 L70.4523,98.6673 L70.4523,97.9168 L70.3397,97.9168 C70.1377829,97.9241717 69.9778999,98.0899984 69.9778999,98.29205 C69.9778999,98.4941016 70.1377829,98.6599283 70.3397,98.6673 L70.4523,98.6673 C70.6542171,98.6599283 70.8141001,98.4941016 70.8141001,98.29205 C70.8141001,98.0899984 70.6542171,97.9241717 70.4523,97.9168 L59.6164,97.9168 C59.4144829,97.9241717 59.2545999,98.0899984 59.2545999,98.29205 C59.2545999,98.4941016 59.4144829,98.6599283 59.6164,98.6673 L59.6165,98.6673 Z" id="Path" fill="#0E2947" fill-rule="nonzero"></path>
            </g>
            <polygon id="Path" fill="#3E00FF" fill-rule="nonzero" points="39.548 84.525 72.038 91.909 71.991 81.039 39.5 73.655"></polygon>
            <polygon id="Path" fill="#1D0B6B" fill-rule="nonzero" points="71.991 81.039 73.399 79.814 74.93 87.181 72.038 91.909"></polygon>
            <text id="ETH-Is-Money" transform="translate(58.500000, 83.000000) rotate(12.000000) translate(-58.500000, -83.000000) " font-family="Muli" font-size="4.5" font-weight="normal" fill="#FFFFFF">
                <tspan x="42" y="85">ETH Is Money</tspan>
            </text>
        </g>
    </g>
</svg>