<svg xmlns="http://www.w3.org/2000/svg" xmlns:xlink="http://www.w3.org/1999/xlink" viewBox="0 0 594.03 685.96"><defs><style>.cls-1{fill:url(#radial-gradient);}.cls-2{fill:#fadba5;}.cls-3{fill:url(#Spring_Blue_Radial);}.cls-4{fill:url(#Winter_Purple);}.cls-5{fill:none;stroke:#000;stroke-miterlimit:10;stroke-width:20px;opacity:0.25;isolation:isolate;}.cls-6{fill:#fff;}.cls-7{fill:#ac2e18;}.cls-8{fill:#006088;}.cls-9{fill:#e28d00;}</style><radialGradient id="radial-gradient" cx="297.01" cy="342.97" r="320.82" gradientUnits="userSpaceOnUse"><stop offset="0" stop-color="#f1f6f4"/><stop offset="0.26" stop-color="#d1dfda"/><stop offset="1" stop-color="#bcd0c9"/></radialGradient><radialGradient id="Spring_Blue_Radial" cx="328.61" cy="369.84" r="320.82" gradientUnits="userSpaceOnUse"><stop offset="0" stop-color="#d0ddec"/><stop offset="0.5" stop-color="#b1c8e1"/><stop offset="0.56" stop-color="#adc6e0"/><stop offset="1" stop-color="#96b5d6"/></radialGradient><linearGradient id="Winter_Purple" x1="82.78" y1="369.84" x2="574.31" y2="369.84" gradientUnits="userSpaceOnUse"><stop offset="0" stop-color="#e7e7ef"/><stop offset="0.5" stop-color="#cfd0e0"/><stop offset="0.51" stop-color="#ced0e0"/><stop offset="1" stop-color="#b7b9d0"/></linearGradient></defs><title>mysql</title><g id="Layer_2" data-name="Layer 2"><g id="RF"><polygon class="cls-1" points="594.03 171.49 594.03 514.47 297.11 685.94 296.99 685.94 0 514.47 0 171.49 297.04 0 594.03 171.49"/></g><g id="Frame"><path class="cls-2" d="M328.63,26.86l-297,171.49v343l297,171.49,297-171.49v-343ZM574.39,511.75,328.66,653.66,82.85,511.75V228L328.66,86,574.39,228Z" transform="translate(-31.59 -26.86)"/><path class="cls-3" d="M328.63,26.86l-297,171.49v343l297,171.49,297-171.49v-343ZM574.39,511.75,328.66,653.66,82.85,511.75V228L328.66,86,574.39,228Z" transform="translate(-31.59 -26.86)"/><path class="cls-4" d="M328.58,86,82.78,227.93v283.8l245.8,141.91L574.31,511.73V227.93ZM561.94,504.61,328.58,639.34,95.18,504.61V235.11l233.4-134.77L561.94,235.11Z" transform="translate(-31.59 -26.86)"/><path id="_Compound_Path_" data-name=" Compound Path " class="cls-5" d="M328.58,88.11,84.6,229V510.69l244,140.86L572.52,510.69V229Z" transform="translate(-31.59 -26.86)"/><path class="cls-6" d="M412.25,639.46l8.95-5.14.42.72a17.69,17.69,0,0,1,1.92,4.67,10.85,10.85,0,0,1,0,4.36,11.33,11.33,0,0,1-5.74,7.82,12.24,12.24,0,0,1-9.69,1.21,13.09,13.09,0,0,1-9.11-16,12.61,12.61,0,0,1,6.16-7.93,12.78,12.78,0,0,1,5.34-1.69,15.14,15.14,0,0,1,6.07,1l-1.05,3.59a9.16,9.16,0,0,0-8.54.17,8.92,8.92,0,0,0-4.41,5.71,9.11,9.11,0,0,0,1,7.19,8.84,8.84,0,0,0,6,4.48,9.12,9.12,0,0,0,6.55-.86,7.57,7.57,0,0,0,3.4-4.11,6.83,6.83,0,0,0-.1-5.17L414,642.61Z" transform="translate(-31.59 -26.86)"/><rect class="cls-6" x="432.82" y="614.67" width="3.77" height="25.03" transform="translate(-286.64 273.88) rotate(-29.95)"/><polygon class="cls-6" points="418.94 580.82 429.67 599.44 426.4 601.31 415.7 582.71 410.7 585.56 408.93 582.49 422.14 574.88 423.92 577.96 418.94 580.82"/><path class="cls-6" d="M480.09,588.13l2.22,3.87a10.3,10.3,0,0,0-7.24,1,8.69,8.69,0,0,0-4.26,5.63,9.42,9.42,0,0,0,1.06,7.19,9.06,9.06,0,0,0,5.61,4.43,8.83,8.83,0,0,0,7-.92,8.06,8.06,0,0,0,2.6-2.26,10,10,0,0,0,1-1.55,21.54,21.54,0,0,0,.87-2l2.26,4a13.7,13.7,0,0,1-5,5,12.67,12.67,0,0,1-9.79,1.32,12.44,12.44,0,0,1-7.83-6,12.92,12.92,0,0,1-1.5-9,13,13,0,0,1,13-10.66" transform="translate(-31.59 -26.86)"/><path class="cls-7" d="M496,587.15a12.27,12.27,0,0,1-1.15-9.8,12.75,12.75,0,0,1,6.15-7.92,13.12,13.12,0,0,1,17.79,4.8A12.42,12.42,0,0,1,520,584.1a13.24,13.24,0,0,1-15.45,9.35,12.17,12.17,0,0,1-8.57-6.3m3.3-1.87a9.14,9.14,0,0,0,5.83,4.53,9.28,9.28,0,0,0,11.3-6.55,9.73,9.73,0,0,0-6.67-11.64,8.78,8.78,0,0,0-7.06.91,9,9,0,0,0-4.36,5.66,9,9,0,0,0,1,7.09" transform="translate(-31.59 -26.86)"/><rect class="cls-6" x="530.01" y="558.65" width="3.79" height="25.03" transform="translate(-245.78 315.19) rotate(-29.97)"/><polygon class="cls-6" points="520.94 546.9 507.61 523.75 532.95 531.18 524.29 516.1 527.54 514.23 540.8 537.26 515.46 529.83 524.22 545.03 520.94 546.9"/></g></g><g id="Layer_3" data-name="Layer 3"><path class="cls-8" d="M397.2,215.85a4.24,4.24,0,0,0,1.19.75,43.15,43.15,0,0,1,18.94,9.06,7.66,7.66,0,0,0,5.11,2c12.05,0,22.09,5.2,31.69,11.92a115.51,115.51,0,0,1,33.48,36.14,71.35,71.35,0,0,1,3.2,6.65q7.49,16.25,14.94,32.52a8.15,8.15,0,0,0,5,4.49c10.48,3.77,19.51,10,28.05,17a53.1,53.1,0,0,1,9,9.39c.94,1.27.75,1.9-.73,2.21q-5,1-10,2.08l-13.43,2.71a14.32,14.32,0,0,0,2.09,2.88,53.72,53.72,0,0,0,6.6,4.74,58.09,58.09,0,0,1,16.41,14.13c1.68,2.1,4.11,3.62,4.87,6.41.06.23.14.46.33,1.06a9.79,9.79,0,0,1-1.42-.87A67.19,67.19,0,0,0,534,369.25a42.33,42.33,0,0,1-14.76-10.42c-2-2.22-3.32-5-4.84-7.62-.8-1.37.38-2,1.37-2.35a52.36,52.36,0,0,1,19-4.11h6.5a14.54,14.54,0,0,0-2.21-2.54c-9.28-6.26-17.87-13.84-29.21-16.34a15.44,15.44,0,0,1-11.4-9.48c-4.63-10.38-9.44-20.67-14-31.07a93.59,93.59,0,0,0-14.65-22.9A95.63,95.63,0,0,0,438,237.68,34.58,34.58,0,0,0,423,234a15.58,15.58,0,0,1-10.88-3.81c-4.19-3.64-9.48-5.74-14.83-7.36-3.3-1-5.4-.18-5.9,2.19a5.12,5.12,0,0,0,.35,3.09,25.62,25.62,0,0,0,3.36,5.68,65.32,65.32,0,0,1,13.51,25.77,71.87,71.87,0,0,0,5.06,12,20.8,20.8,0,0,0,3.81,4.9c2,2,2.87,4.27,2,7-.78,2.4-1.66,4.77-2.42,7.18-3.75,12-3.22,23.8,2.22,35.21a13.09,13.09,0,0,0,3.45,3.88c.89.77,1.71.46,1.87-.95.37-3.27.86-6.51,1.26-9.77.68-5.52,3.44-9.95,7.42-14.07,6.66,16.47,14.47,32.18,27.25,45a8.23,8.23,0,0,1-1.55-.92c-5.47-5.05-11-10.05-16.36-15.21-3.57-3.44-5.53-8-7.65-12.34a6.82,6.82,0,0,0-1.68-2.33c-.41,2.35-.81,4.71-1.24,7.07a42.2,42.2,0,0,1-1.12,5.74,6.31,6.31,0,0,1-9.46,3.66A17.62,17.62,0,0,1,416.6,331c-4.76-6.5-6.4-14.06-6.85-21.93a51.72,51.72,0,0,1,2.14-18.16c.86-2.83,1.68-5.67,2.38-8.55a2.54,2.54,0,0,0-.53-2c-4.89-5-7.4-11.39-9.74-17.8-1.34-3.68-2.31-7.49-3.73-11.13a33.89,33.89,0,0,0-3.56-6.63c-2.09-3.08-4.66-5.84-6.64-9a29,29,0,0,1-3.88-8.3c-1.22-4.88,2-9.49,6.83-10.85a4.14,4.14,0,0,0,1.14-.8Z" transform="translate(-31.59 -26.86)"/><path class="cls-8" d="M219.77,451.28v-9.87h2.61c14.4,0,28.81.06,43.21-.06a21.9,21.9,0,0,0,6.78-1.42A4.66,4.66,0,0,0,275.5,435c0-1.57,0-3.13,0-5h-2.41c-9.67,0-19.33,0-29,0-5.48,0-10.93-.63-15.81-3.23a24.72,24.72,0,0,1-6.86-5.47,9.32,9.32,0,0,1-1.91-5.57c-.15-10.87,0-21.74,0-32.6a4.74,4.74,0,0,1,.15-.7h14.61c0,.84.13,1.65.13,2.45q0,14.59,0,29.19c0,4,1.44,5.71,5.38,6.52a14,14,0,0,0,2.81.33q15.65,0,31.28,0c.44,0,.88-.05,1.57-.1,0-.79.12-1.58.12-2.37,0-11.37,0-22.74,0-34.12,0-1.74.48-2.29,2.23-2.23,3.66.12,7.33.08,11,0,1.36,0,1.89.34,1.88,1.8-.05,17.12,0,34.25-.06,51.37a12.77,12.77,0,0,1-7.17,11.85,78.63,78.63,0,0,1-8.06,3.21,7.2,7.2,0,0,0-1.34.88Z" transform="translate(-31.59 -26.86)"/><path class="cls-8" d="M192.1,430.5V372.29l-.32-.09c-.3.59-.61,1.17-.88,1.77q-10.77,24-21.55,48a30.43,30.43,0,0,1-2.42,4.5c-2.7,4-6.89,4.76-11.32,4.9-6.85.22-11.58-2.52-14.41-9.06-7-16.16-14.35-32.18-21.55-48.26a3.46,3.46,0,0,0-1.2-1.54v2.16q0,26.63,0,53.26c0,2.51,0,2.52-2.43,2.52-3.6,0-7.21,0-10.81,0-1.27,0-1.78-.34-1.77-1.7,0-19.21,0-38.42,0-57.63,0-5.72,2.14-8.45,7.71-9.93a33.59,33.59,0,0,1,8.19-1.27c6.34-.06,11,2.81,13.58,8.75q7.59,17.56,15.16,35.13,2.88,6.7,5.77,13.4c.25.57.54,1.12,1,2.08.5-1,.85-1.73,1.17-2.44,6.91-15.51,14-31,20.66-46.58,3.84-9,10.71-11.59,19.42-9.9a38.52,38.52,0,0,1,4.91,1.38c3.69,1.28,5.57,4,5.85,7.82.06.88.07,1.77.07,2.65q0,27.87,0,55.73c0,2.48,0,2.49-2.47,2.49Z" transform="translate(-31.59 -26.86)"/><path class="cls-9" d="M443.43,427.59,458,440.8H453.8c-3.79,0-7.58.09-11.37-.06a5.5,5.5,0,0,1-3.14-1.23c-3.13-2.65-6.15-5.44-9.14-8.25a4,4,0,0,0-3.18-1.17c-8.71.29-17.42.57-26.13.69a31.73,31.73,0,0,1-14.27-3.28c-5.67-2.74-8.61-7.28-8.64-13.57q-.09-18,0-36c0-6,2.84-10.35,8.16-13.07A31.1,31.1,0,0,1,400,361.49q15.06-.21,30.14,0a30.86,30.86,0,0,1,14,3.42c5.29,2.75,8.05,7.11,8.05,13.12,0,11.44-.06,22.88,0,34.31C452.26,420.49,450.24,424.22,443.43,427.59Zm-37.12-17.92a9.13,9.13,0,0,1,1-.16c5.05,0,10.11,0,15.16,0a3.35,3.35,0,0,1,1.95.88q4.49,3.93,8.85,8a1.43,1.43,0,0,0,2.26.09,6.75,6.75,0,0,0,2.65-5.22q0-17.25,0-34.49a5.72,5.72,0,0,0-3-5.35,14.31,14.31,0,0,0-5.68-1.8c-6-.27-12-.2-18-.2-3.09,0-6.2-.05-9.27.22-5.69.51-8.16,3.36-8.16,9q0,15.26,0,30.51c0,5.76,2.82,9,8.63,9.36,4.09.27,8.2.15,12.3.2,1,0,2,0,3.52,0Z" transform="translate(-31.59 -26.86)"/><path class="cls-9" d="M368.92,361.54v9.76h-2.2c-13.14,0-26.28,0-39.42,0a31.49,31.49,0,0,0-6.19.71,4.42,4.42,0,0,0-3.91,4.64c-.09,2.59-.11,5.18,0,7.77a6.13,6.13,0,0,0,5.19,6.13,28.82,28.82,0,0,0,5.26.47c7.26.14,14.53,0,21.78.38A26.67,26.67,0,0,1,363.1,396c3.53,2.36,5.63,5.48,5.33,10a83.68,83.68,0,0,0,0,8.53c.17,4.74-1.93,8.25-5.72,10.87a25.72,25.72,0,0,1-14.33,4.89c-15.35.22-30.69.08-46.18.08v-9.85h2.13c12.7,0,25.4,0,38.1,0a24.15,24.15,0,0,0,6-.76c3.42-.92,4.9-3.11,4.9-6.65q0-2.94,0-5.88c0-3.19-1.27-5.14-4.4-6a31.88,31.88,0,0,0-7.08-1c-6.13-.17-12.26,0-18.38-.21a31.27,31.27,0,0,1-14.29-3.95c-4.66-2.63-7.36-6.39-7-12,.19-2.89.05-5.81.22-8.71a12.13,12.13,0,0,1,6.09-9.92,24.16,24.16,0,0,1,12.69-3.94c15.73-.16,31.46-.13,47.19-.17A3,3,0,0,1,368.92,361.54Z" transform="translate(-31.59 -26.86)"/><path class="cls-9" d="M527.67,420.54v9.78a9.5,9.5,0,0,1-1.26.17c-13.14,0-26.28.05-39.42-.06a39.76,39.76,0,0,1-15.7-3c-6.37-2.76-9.73-7.5-9.7-14.59.05-16.55,0-33.1,0-49.65,0-.56.06-1.11.09-1.74h14.78v2.15q0,24.17,0,48.33c0,5.43,2,7.68,7.42,8.3a49.4,49.4,0,0,0,5.29.32c12.07,0,24.13,0,36.2,0Z" transform="translate(-31.59 -26.86)"/><path class="cls-9" d="M545.74,431.26a11,11,0,0,1,.19-22.06,11,11,0,0,1-.19,22.06Zm5.44-4.64c.26-.09.58-.1.76-.27a9.17,9.17,0,0,0,1.13-10.72,8.48,8.48,0,0,0-9.84-3.76,8.84,8.84,0,0,0,.84,17c2.91.58,6-.39,7.16-2.27Z" transform="translate(-31.59 -26.86)"/><path class="cls-8" d="M420,245.57c3.59-1.57,5.45-.63,7.52,2.26a5.17,5.17,0,0,1-1.24,7.63Z" transform="translate(-31.59 -26.86)"/><path class="cls-9" d="M551.23,426.57a2.94,2.94,0,0,1-3.7-2,7.31,7.31,0,0,0-1.37-2.25,13.12,13.12,0,0,0-2.09-1.54l-.52.42v5.29h-2.08V414.15c2.36,0,4.62-.15,6.85.05a2.9,2.9,0,0,1,2.67,3,3.11,3.11,0,0,1-2,3.49l-1.25.49,3.42,5.48Zm-7.63-7.12a21.63,21.63,0,0,0,3.75-.37,2.09,2.09,0,0,0,1.26-1.53,2.06,2.06,0,0,0-1.2-1.57,21.77,21.77,0,0,0-3.81-.34Z" transform="translate(-31.59 -26.86)"/></g></svg>