<?xml version="1.0" encoding="utf-8"?>
<!-- Generator: Adobe Illustrator 24.1.1, SVG Export Plug-In . SVG Version: 6.00 Build 0)  -->
<svg version="1.1" id="Layer_1" xmlns="http://www.w3.org/2000/svg" xmlns:xlink="http://www.w3.org/1999/xlink" x="0px" y="0px"
	 viewBox="0 0 594 686" style="enable-background:new 0 0 594 686;" xml:space="preserve">
<style type="text/css">
	.st0{fill:#92D0BB;}
	.st1{display:none;fill:#FADBA5;}
	.st2{fill:#82BF8C;}
	.st3{display:none;fill:#1598FF;}
	.st4{opacity:0.25;fill:none;stroke:#000000;stroke-width:20;stroke-miterlimit:10;enable-background:new    ;}
	.st5{fill:#4B7D74;}
	.st6{fill:url(#SVGID_1_);}
	.st7{fill:url(#SVGID_2_);}
	.st8{fill:url(#SVGID_3_);}
	.st9{fill:url(#SVGID_4_);}
	.st10{fill:#406B64;}
	.st11{fill:url(#SVGID_5_);}
	.st12{fill:#52877E;}
	.st13{fill:url(#SVGID_6_);}
	.st14{opacity:0.15;}
	.st15{fill:#45736B;}
	.st16{opacity:5.000000e-02;}
	.st17{fill:#E8E5D4;}
	.st18{fill:#D6D3C4;}
	.st19{fill:#F0EDDB;}
	.st20{fill:none;}
	.st21{fill:#CCC9BB;}
	.st22{fill:#548C83;}
	.st23{fill:#3F6962;}
	.st24{fill:#6C9C94;}
	.st25{fill:#527872;}
	.st26{fill:#78B0A6;}
	.st27{fill:#6EA198;}
	.st28{fill:#A2E8F5;}
	.st29{fill:#8DC2B9;}
	.st30{fill:#89BDB4;}
	.st31{fill:#568F85;}
	.st32{fill:#4E8279;}
	.st33{fill:#528782;}
	.st34{fill:#68B0A6;}
	.st35{fill:#487571;}
	.st36{fill:#509188;}
	.st37{fill:#7AA39F;}
	.st38{fill:#82BDB5;}
	.st39{fill:#47756D;}
	.st40{fill:#436E66;}
	.st41{fill:#51877E;}
	.st42{fill:#416B64;}
	.st43{fill:#659490;}
	.st44{fill:#74B6AD;}
	.st45{fill:url(#SVGID_7_);}
	.st46{fill:url(#SVGID_8_);}
	.st47{fill:url(#SVGID_9_);}
	.st48{fill:url(#SVGID_10_);}
	.st49{opacity:0.28;fill:url(#SVGID_11_);}
	.st50{opacity:0.28;fill:url(#SVGID_12_);}
	.st51{opacity:0.25;fill:#FFFFFF;}
	.st52{fill:#FFFFFF;}
	.st53{font-family:'AdobeArabic-Regular';}
	.st54{font-size:53px;}
</style>
<title>kudos water clean</title>
<path class="st0" d="M331.6,607.2c15-2.9,29.7-7,44.1-11.9c7.2-2.4,14.3-5,21.3-7.8c3.6-1.4,7.1-2.9,10.7-4.4
	c0.1-0.1,0.2-0.1,0.4-0.2c1.2-0.5,2.4-1.1,3.6-1.6c0,0,0-0.1,0-0.1c2-7.5,6.7-12.4,12.6-16.8c15.5-11.4,32.2-20.6,48.9-30
	c8.4-4.7,16.7-9.5,24.9-14.7c4.3-2.7,8.5-5.5,12.6-8.4c1.7-1.2,3.3-2.4,4.9-3.6c0,0,0.1-0.1,0.1-0.1c0.7-0.7,1.6-1.3,2.4-1.9
	c7.1-5.9,15.5-8.9,23.7-7.7c2.3-3.2,3.8-5.4,4.4-6.3c1.9-99.3,3.8-198.7,5.7-298c-0.7-1.1-4.3-7-10.7-15.6
	c-4.5,1.2-9.3,1.2-13.9,0.1c-34.3-8.8-58.3-36.1-88.3-53.2c-16.7-9.5-33.7-18.2-50.3-27.9c-16.7-9.7-33.1-19.9-49.4-30.4
	c-5.9-3.9-10-9.3-12-15.5c-9.8-0.9-20-1.3-30.5-1.1c-7.4,0.1-14.6,0.6-21.6,1.3c-1.9,10.4-9.8,20-19.9,22.5
	c-7.1,1.8-13.9,4.3-20.7,7c-0.2,0.1-0.5,0.2-0.7,0.3c-1.9,0.9-3.9,1.8-5.8,2.7c-3.9,1.8-7.8,3.8-11.7,5.7
	c-14.2,7.2-27.9,15.6-42.4,22.4c-13.9,6.6-28.1,12.7-41.8,19.8c-7.2,3.7-14.3,7.6-21.1,12c-2.1,1.3-4,2.8-6,4.2
	c1.1-0.7,1.3-0.8-1.9,1.4c-0.3,0.2-0.5,0.4-0.7,0.6c-1.2,1.1-2.4,2.2-3.6,3.4c-6.2,6.2-14.3,8.7-22.2,7.8
	c-14.4,17.2-22.4,30.1-23.9,32.7c-0.6,96.1-1.2,192.2-1.8,288.4c0.7,1.2,2.8,4.6,6.3,9.5c4.5,0,9,1.3,13,3.8
	c16.5,10.5,31.7,23.1,46.9,35.4c1.6,1.3,3.1,2.5,4.7,3.8c0.5,0.4,1.1,0.9,1.6,1.3c2.6,2,5.2,4,7.8,6c6.3,4.7,12.7,9.1,19.4,13.1
	c6.3,3.8,12.7,7.2,19.4,10.2c1.7,0.8,3.4,1.6,5.1,2.3c0.2,0.1,0.4,0.2,0.6,0.3c3,1.3,6.1,2.5,9.1,3.8c15.3,6.2,30.7,12.1,45.6,19.2
	c15,7.1,28.5,15.9,41.3,26.4c2.2,1.8,3.9,4,5.2,6.3c6.5,0.6,13.1,0.9,19.9,1c5.5,0.1,10.9,0,16.2-0.2
	C316.3,616,323.1,608.8,331.6,607.2z"/>
<g>
	<g id="Frame">
		<path class="st1" d="M297,0L0,171.5v343L297,686l297-171.5v-343L297,0z M542.8,484.9L297.1,626.8L51.3,484.9V201.1l245.8-142
			l245.7,142V484.9z"/>
		<path class="st2" d="M297,0L0,171.5v343L297,686l297-171.5v-343L297,0z M542.8,484.9L297.1,626.8L51.3,484.9V201.1l245.8-142
			l245.7,142V484.9z"/>
		<path class="st3" d="M297,59.1L51.2,201.1v283.8L297,626.8l245.7-141.9V201.1L297,59.1z M530.3,477.8L297,612.5L63.6,477.8V208.3
			L297,73.5l233.4,134.8V477.8z"/>
		<path id="_Compound_Path_" class="st4" d="M297,61.3L53,202.1v281.7l244,140.9l243.9-140.9V202.1L297,61.3z"/>
	</g>
</g>
<g>
	<circle class="st5" cx="277.2" cy="351.4" r="92.5"/>
	<linearGradient id="SVGID_1_" gradientUnits="userSpaceOnUse" x1="156.9422" y1="367.519" x2="432.8605" y2="367.519">
		<stop  offset="0" style="stop-color:#2E4D48"/>
		<stop  offset="1" style="stop-color:#437069"/>
	</linearGradient>
	<circle class="st6" cx="294.9" cy="367.5" r="138"/>
	<linearGradient id="SVGID_2_" gradientUnits="userSpaceOnUse" x1="168.7938" y1="351.4355" x2="385.5886" y2="351.4355">
		<stop  offset="0" style="stop-color:#2E4D48"/>
		<stop  offset="1" style="stop-color:#437069"/>
	</linearGradient>
	<circle class="st7" cx="277.2" cy="351.4" r="108.4"/>
	<linearGradient id="SVGID_3_" gradientUnits="userSpaceOnUse" x1="191.6076" y1="351.4355" x2="362.7747" y2="351.4355">
		<stop  offset="0" style="stop-color:#2F4F4A"/>
		<stop  offset="1" style="stop-color:#44726B"/>
	</linearGradient>
	<circle class="st8" cx="277.2" cy="351.4" r="85.6"/>
	<linearGradient id="SVGID_4_" gradientUnits="userSpaceOnUse" x1="203.7386" y1="351.4355" x2="350.6438" y2="351.4355">
		<stop  offset="0" style="stop-color:#32544F"/>
		<stop  offset="1" style="stop-color:#477770"/>
	</linearGradient>
	<circle class="st9" cx="277.2" cy="351.4" r="73.5"/>
	<g>
		<path class="st10" d="M399.9,392.4c-6.7-0.7-13.7-1-20.1,1c-3.5,1.1-7.3,3.7-7.2,7.4c0.1,2.2,1.5,4.1,1.6,6.2
			c0.2,3.2-2.5,5.9-5.5,6.9c-3,1-6.3,0.7-9.4,0.6c-10.8-0.4-21.7,1.2-31.9,4.7c-4.3,1.5-9.2,4.3-9.2,8.8c0,2.6,1.7,4.9,3.9,6.2
			c2.2,1.3,4.8,1.8,7.3,2.1c2.6,0.3,5.3,0.4,7.7,1.4c2.4,1,4.6,3.1,4.7,5.8c0.2,3.7-3.6,6.3-7.2,6.9c-3.6,0.6-7.3-0.2-10.9,0.4
			c-3.6,0.5-7.5,3.1-7.4,6.8c0,4.2,4.9,6.6,9,6.8c6,0.3,11.9-1.8,17.9-2.4c6-0.6,13,0.9,15.9,6.1c1.3,2.4,2,5.5,4.5,6.5
			c2.9,1.2,5.8-1.4,8.6-2.9c4.3-2.3,9.4-1.7,14.4-1.1c23.4-20.8,39.6-49.4,44.7-81.7c-3.3,2.2-7.2,3.4-11,4
			C413.5,394,406.7,393.1,399.9,392.4z"/>
	</g>
	<g>
		<linearGradient id="SVGID_5_" gradientUnits="userSpaceOnUse" x1="156.9421" y1="435.8408" x2="278.081" y2="435.8408">
			<stop  offset="0" style="stop-color:#2F4F4A"/>
			<stop  offset="1" style="stop-color:#44726B"/>
		</linearGradient>
		<path class="st11" d="M277.4,495.9c-2.5-4.5-10.5-3.9-12.1-8.8c-1.2-3.6,2.2-7.1,5.4-9.2c3.2-2.1,7-4.8,6.8-8.7
			c-0.2-4.1-4.9-6.5-9-6.8c-4.9-0.4-9.8,0.9-14.7,2c-4.8,1.1-9.9,1.9-14.7,0.7c-4.8-1.2-9.2-5.1-9.7-10c-0.3-3.5,1.4-7,1.3-10.5
			c-0.1-5.7-5.1-10.4-10.5-12.2c-5.4-1.8-11.3-1.4-17-1.3s-11.7,0-16.7-2.8c-5-2.8-8.6-8.9-6.7-14.2c1-2.9,3.5-5.1,5.3-7.7
			c1.8-2.5,3-6,1.4-8.7c-2.4-3.9-9.3-3.5-10.7-7.8c-0.7-2.2,0.5-4.6,2.1-6.2c3-2.9,7.5-4.5,8.2-9.1c0.4-2.9-0.7-4.7-3.3-5.6
			c-2.9-1-6.4-0.7-9.4-1.1c-0.7-0.1-1.4-0.2-2.1-0.3h-14.4c0,69.7,51.7,127.3,118.8,136.6C277.8,501.6,278.9,498.5,277.4,495.9z"/>
	</g>
	<path class="st10" d="M315.9,302.9c-2.6,1.6-5,3.5-6.7,6.1c-1.7,2.5-2.5,5.8-1.6,8.7c1.1,3.7,4.9,7,3.9,10.7
		c-0.8,2.7-3.7,4.1-6.3,5.1c-5.6,2.2-11.3,4.4-16.9,6.6c-2.6,1-5.3,2.1-7.5,3.9c-2.2,1.8-3.8,4.5-3.6,7.3c0.3,4.4,4.7,7.4,9.1,8
		c4.3,0.6,8.7-0.5,13.1-0.7c2.6-0.1,5.3,0.1,7.6,1.4c2.3,1.3,3.9,3.9,3.4,6.5c-0.5,2.5-2.7,4.2-4.5,6c-1.8,1.8-3.3,4.5-2.1,6.7
		c1.4,2.5,5,2.3,7.7,1.6c7.6-1.9,15.6-5.2,22.9-2.4c5.5,2.1,9.3,7.1,14.3,10c5.9,3.4,13.3,3.6,19.9,2c6.6-1.6,12.8-4.9,18.8-8.1
		c4.7-2.5,9.5-5.2,12.6-9.5c3.1-4.3,4.1-10.7,0.7-14.8c-2.8-3.5-7.7-4.4-12-6.1c-4.2-1.7-8.6-5.4-7.6-9.9c0.8-3.6,4.7-5.5,7.9-7.4
		c2.6-1.6,5.1-3.5,6.5-6.2c1.4-2.7,1.7-6.1,0-8.6c-2.2-3.2-6.6-3.9-10.5-4.2c-3.9-0.3-8.2-0.6-10.8-3.5c-1.9-2.1-2.5-4.9-4.5-6.9
		c-1.9-1.9-4.5-3.1-6.8-4.4c-3.6-2-7.1-3-11.1-3.8C339.4,294.4,326.7,296.1,315.9,302.9z"/>
	<g>
		<path class="st12" d="M369.2,415.7c0.2,0.2-0.1-0.1-0.1-0.2c-0.2-0.2-0.5-0.4-0.8-0.4c0,0,0,0-0.1,0c-0.1-0.1-0.2-0.2-0.3-0.2
			c-0.2-0.1-0.4-0.3-0.6-0.4c-0.2-0.1-0.4-0.2-0.6-0.3c-0.5-0.4-1.3-0.4-1.6,0.2c-0.5,0.9-0.1,2,0.7,2.6c0.4,0.3,0.7,0.4,1.1,0.6
			c0.3,0.1,0.4,0.2,0.6,0.4c0.5,0.6,1.5,0.3,1.9-0.2c0.3-0.5,0.3-1.2,0-1.7C369.4,415.9,369.3,415.8,369.2,415.7z"/>
		<path class="st12" d="M375.6,419c-0.2-0.7-1.2-0.9-1.7-0.5c-0.1,0-0.1,0-0.2,0.1c-0.7,0.3-0.8,1.4-0.3,1.9
			c0.1,0.3,0.2,0.5,0.4,0.7c0.7,0.6,1.8,0.7,2.5,0.2c0.4-0.3,0.6-0.6,0.6-1.1c0-0.3-0.1-0.7-0.4-0.9C376.4,419.1,376,419,375.6,419z
			"/>
		<path class="st12" d="M380.4,426.1c-0.2-0.2-0.3-0.4-0.4-0.7c-0.1-0.3-0.4-0.6-0.8-0.5c-0.4,0.1-0.6,0.3-0.6,0.7
			c0,0.3,0,0.6,0,0.9c0,0.1,0,0.3,0.1,0.4c0,0.1,0.1,0.4,0.1,0.2c0,0.9,1,1.3,1.7,0.8C381.1,427.3,381,426.4,380.4,426.1z"/>
		<path class="st12" d="M356.8,411c-0.2,0.1-0.4,0.2-0.5,0.5c-0.1,0.4,0.1,0.8,0.5,0.9c0.4,0.1,0.8,0,1-0.3c0.2-0.3,0.2-0.7,0-1
			C357.5,410.8,357,410.8,356.8,411z"/>
		<path class="st12" d="M331.4,305.4c0.8,0.2,1.6,0.3,2.3,0.6c0.2,0.1,0.5,0.3,0.8,0.4c0.5,0.4,0.8,0.9,0.9,1.7
			c0.1,1.2-0.1,2.3,1,3.1c1.4,1.1,4.7,1,5.1-1.2c0.1-0.7-0.1-1.4-0.4-2c0.1-0.1,0.1-0.2,0.1-0.4c-0.3-2.9-3.5-3-5.3-4.7
			c-0.8-0.7-0.9-1.3-1.3-2.2c-0.2-0.5-0.3-1-0.7-1.4c-0.8-0.8-2.3-1.2-3.4-1.2c-1.9-0.1-5.2,1-5.4,3.3
			C324.7,304,329.5,305,331.4,305.4z"/>
		<path class="st12" d="M320.7,297.8c0.3,0,0.6-0.1,0.9-0.3c0.2,0.1,0.4,0.1,0.6,0c0.4-0.1,0.7-0.3,0.9-0.6c0.3-0.4,0.2-0.9,0-1.3
			c-0.3-0.7-1.1-1.2-1.8-1.2c-0.8,0-1.5,0.6-1.7,1.4c-0.1,0.3-0.1,0.7,0,1C319.7,297.3,320.2,297.8,320.7,297.8z"/>
		<path class="st12" d="M322.1,290c0.1,0,0.2,0,0.3-0.1c0,0,0.1,0,0.1,0c0.7,0,1.1-0.7,1-1.3c-0.1-0.6-0.8-1.2-1.4-1.1
			c-0.4,0-1,0.4-0.9,0.9c0,0.2,0,0.5,0,0.7C321.3,289.6,321.6,290,322.1,290z"/>
		<path class="st12" d="M325,312.1c0.2-0.1,0.4-0.3,0.6-0.5c0.2-0.4,0.1-0.9-0.2-1.2c-0.4-0.3-0.8-0.2-1.2,0.1
			c-0.2,0.1-0.2,0.3-0.3,0.5c-0.1,0.3-0.2,0.7,0.1,1C324.3,312.2,324.7,312.3,325,312.1z"/>
		<path class="st12" d="M331.5,314.6c1.3,0,1.3-1.9,0-1.9C330.2,312.7,330.2,314.6,331.5,314.6z"/>
		<path class="st12" d="M324.4,362.3c-1.4,0-1.4,2.2,0,2.2C325.8,364.5,325.8,362.3,324.4,362.3z"/>
		<path class="st12" d="M323,368.9c0.2-0.2,0.3-0.4,0.3-0.7c0-0.2-0.1-0.5-0.3-0.7c-0.3-0.3-0.6-0.3-0.9-0.2c-0.1,0-0.2,0-0.2,0
			c-0.4,0.1-0.7,0.5-0.7,0.9c0,0.4,0.3,0.8,0.7,0.9c0.1,0,0.2,0,0.2,0C322.4,369.2,322.8,369.1,323,368.9z"/>
		<path class="st12" d="M322.9,372.8c-0.9,0-0.9,1.5,0,1.5C323.8,374.2,323.8,372.8,322.9,372.8z"/>
		<path class="st12" d="M432.4,355.6c-2.4-28-13.1-53.6-29.7-74.3c-2.4-0.8-4.8-1.5-7.2-2.3c-1.6-0.5-3.3-1.1-5-0.9
			c-2.2-1.5-4.8-2.7-7.4-3.3c-2.7-0.7-5.1-0.7-7.3-2.7c-1.9-1.7-3.5-3.3-5.9-4.2c-2.2-0.9-4.4-1.3-6.8-1.6c-2.4-0.3-5.1-0.8-7.4,0.1
			c-1.1,0.4-1.9,1.2-2.8,1.8c-1.1,0.7-2.1,0.8-3.3,1.1c-1.8,0.5-3.1,1.8-3.9,3.4c-0.7,1.5-1.1,3.1-1.7,4.6c-1,2.6-2.9,3.3-5.5,3.8
			c-4.5,0.8-8.6,2.7-10.8,7c-0.7,1.4-1.9,3.9-0.7,5.3c0.6,0.7,1.5,0.7,2.3,0.6c1.6-0.1,3.2-0.4,4.8-0.5c0.7,0,1.4,0,2.1,0.1
			c1.3,0.1,1.1,0.5,1.5,1.5c0.3,0.8,0.9,1.3,1.7,1.7c1.5,0.8,4.3,0.5,5.1,2.2c0.5,1,0.4,2.1,1.3,3c0.7,0.8,1.7,1.2,2.8,1.5
			c1.3,0.3,2.5,0.2,3.8,0.2c0.8,0,1.6,0,2.3,0.2c1.1,0.4,2.5,1.7,1.6,3c-0.5,0.2-0.9,0.5-1.3,0.9c0,0-0.1,0.1-0.1,0.1
			c-2.1,0.7-4,2-5.8,3.2c-2,1.3-3.9,2.6-5.7,4.2c-2,1.7-3.7,3.8-5.6,5.7c-1.9,1.9-4.1,2.7-6.8,2.9c-2.4,0.2-4.8-0.1-7.2,0.3
			c-3.8,0.6-7.4,3-7.3,7.2c0,1.4,0.6,2.9,1.6,3.8c0.6,0.5,1.3,0.8,2,1c0.3,0.1,1.2,0.1,1.4,0.3c0.6,0.6-0.3,2.3-0.5,3
			c-0.5,1.4-0.9,2.8-1.4,4.3c-0.4,1.4-1.2,2.9-1.3,4.3c-0.2,1.6,1,2.5,2.5,2.8c1.2,0.3,2.2,0.1,2.7,1.4c0.3,0.9,0.3,1.6,1.1,2.3
			c1,0.9,2.4,1.1,3.8,1c-0.4,1.5-0.4,3.1,0.5,4.1c0,0.6,0.2,1.3,0.5,2.1c0.8,1.8,2.7,3.5,1.8,5.3c-0.5,1-1.7,1.4-2.7,2
			c-1,0.5-2.1,1.6-1.7,2.6c0.5,1.5,2.9,1.1,4,2.3c1.1,1.2,0.3,3.2-0.8,4.4c-1.1,1.3-2.4,2.7-2,4.3c0.3,1.4,1.9,2.1,3.3,2.2
			c1.4,0.1,2.8-0.3,4.3-0.4c4.8-0.2,9.2,4.3,9,9.1c-0.1,1.5-0.4,3.4,0.8,4.4c0.9,0.7,2.2,0.4,3.2-0.2c1-0.6,1.8-1.4,2.9-1.7
			c1.6-0.6,3.6,0,4.6,1.4c1,1.4,1.1,3.4,0,4.8c0.3,0.3,0.7,0.5,1,0.8c-0.2,0.7-0.1,1.4,0.5,2.1c0.5,0.6,1.4,0.8,2,1.2
			c1.1,0.7,1.3,1.6,1.7,2.7c0.7,1.8,1.8,2.6,3.5,3.4c2.2,1,4.4,2.1,6.7,3.1c1.7,0.7,3.3,1,5,0.6c1.9,0.8,3.8,1.6,5.8,2.4
			c1.3,0.6,3.2,0.9,3.9-0.3c0.3,0.6,0.5,1.1,0.8,1.7c3,0.1,5.9,0.1,8.9,0.2c2.5,0.1,5.1,0.1,7.2-1.2c2.1-1.3,3.2-4.4,1.6-6.3
			c-0.6-0.7-1.4-1.1-1.8-1.9c-0.7-1.3,0.2-2.8,1.1-3.9c0.1-0.2,0.3-0.4,0.4-0.6c1.2,0.2,2.4-0.2,3.4-0.8c0.1,0.4,0.5,0.6,0.9,0.4
			c0.6-0.3,0.9-0.8,1.1-1.4c1,0.2,2.1,0,3-0.8c0.7-0.6,1-1.6,1-2.5c-0.1-1.2-0.8-1.6,0.2-2.5c0.6-0.5,1.1-1.1,1.3-1.9
			c0.1-0.5,0-1,0.2-1.4c0.1-0.3,0.5-0.6,0.8-0.9c1.1-0.9,2.2-1.5,2.9-2.8c0.3-0.5,0.2-1.1-0.1-1.6c0.5-0.6,0.7-1.3,0.2-2.1
			c-0.7-1.1-2.1-1-3.1-0.4c-0.2,0.1-0.4,0.3-0.5,0.5c-1.5-0.2-2.9-0.8-3.6-2.1c-1.4-2.5,0.9-5.4,2.9-7.5c1.3-1.4,2.6-3,3.1-4.9
			c0.3-1.4,0.1-3.1-0.8-4.2c1.6-1.4,2.7-3.3,2.6-5.6c0-0.5-0.1-1-0.3-1.5c-0.2-0.5-0.8-1.2-0.7-1.7c0-0.4,0.2-0.8,0.5-1.1
			c2.2,0,4.3,0,6.5,0.1c1.2,0,2.5,0,3.6-0.5c1.1-0.5,1.9-1.8,1.6-3C431.3,355.8,431.8,355.8,432.4,355.6z"/>
	</g>
	<g>
		<linearGradient id="SVGID_6_" gradientUnits="userSpaceOnUse" x1="156.9422" y1="304.64" x2="315.8107" y2="304.64">
			<stop  offset="0" style="stop-color:#2E4D48"/>
			<stop  offset="1" style="stop-color:#437069"/>
		</linearGradient>
		<path class="st13" d="M168.2,375.1c3.8-3.8,7.2-8.8,12.5-9.7c2.9-0.5,5.9,0.4,8.8,0.2c2.9-0.2,6.2-2.5,5.7-5.4
			c-0.3-2-2.2-3.3-3.4-5c-2.5-3.8-0.6-9.2,3-12c3.5-2.8,8.2-3.7,12.6-4.5c10.5-1.9,20.9-3.8,31.4-5.7c4-0.7,8-1.5,11.4-3.7
			s5.7-6.4,4.6-10.3c-1.1-3.8-5-6.2-6.3-9.9c-1.6-4.2,0.7-9.1,4.2-11.9c3.5-2.8,8-4,12.3-5.2c12-3.2,24-6.5,36.1-9.7
			c3.7-1,7.5-2,10.5-4.4c3-2.4,5.1-6.4,3.9-10.1c-1.5-4.8-7.1-6.6-11.9-8.2c-4.8-1.6-10.2-5-9.6-10c0.5-4.4,5.6-7.2,6.5-11.5
			c0.7-3.4-1.3-6.4-4.1-8.7c-0.5,0-0.9,0-1.4,0c-76.2,0-138,61.8-138,138c0,4.1,0.2,8.1,0.5,12.1
			C161.1,380.2,165.4,377.9,168.2,375.1z"/>
	</g>
	<g>
		<path class="st12" d="M317.9,417.9c-1.2-0.4-2.6-1.3-2.3-2.5c-1.2,0.8-2.8,0.1-3.8-0.9c-1-1-1.9-2.3-3.2-2.8
			c-1.3-0.4-1.9,0.1-2.9,0.9c-0.7,0.4-1.7-0.2-1.9-1.1c-0.2-0.8,0.2-1.6,0.7-2.3c0.5-0.7,1.1-1.3,1.4-2c0.9-2.2-1-4.9-3.4-5.2
			c-0.1-0.5-0.1-1-0.2-1.5c-1.5,0.6-3.4,0.3-4.7-0.7c-0.6-0.5-1-1-1.6-1.6c-1-1-2.1-1.7-3.3-2.4c-1-0.6-2.1-1.3-3.1-1.9
			c-2.7-1.7-5.4-3.3-8.4-4.4c0.4,0.7-0.6,1.6-1.5,1.5c-0.9-0.1-1.6-0.7-2.4-0.9c-1.3-0.4-2.6,0.2-3.8,0.9c-0.1-0.3-0.4-0.6-0.6-0.8
			c-0.9-0.6-2.1-0.6-3-0.1c-2,1-2.4,2.7-2.1,4.1c-1,0.6-2.2,1.3-2.8,1.2c-0.6-0.1-1.5-1.6-2.3-1.9c-1-0.4-2.3-0.4-3.2,0.2
			c-2.4-0.4-4.8-0.8-7.2-1.2c-0.9-1.2-0.5-2.9,0.1-4.3c0.6-1.4,1.4-2.8,1.1-4.3c-0.3-1.5-1.6-2.6-2.8-3.6c-1.2,0.1-2.4,0.2-3.6,0.4
			c0-0.6,0-1.1,0-1.7c-0.5,0.4-1.2,0-1.5-0.5c-0.3-0.5-0.2-1.1-0.2-1.7c0.1-1.5,0.3-3,0.4-4.5c0.1-0.7,0.1-1.5-0.2-2.2
			c-0.3-0.7-1.2-1.1-1.8-0.8c0-0.4-0.1-0.8-0.1-1.3c-0.9-0.6-2.3-0.3-3.1,0.4c-0.9,0.7-1.4,1.8-1.8,2.8c-0.5,1.1-1.1,2.3-1.6,3.4
			c-1.2,0-2.3-0.1-3.5-0.1c0.5-1.2-0.6-2.7-1.9-2.6c-1.9-1.6-2.2-3-3.8-4.9c-0.8-0.9-1.5-1.9-1.7-3.1c-0.2-1.6,0.7-3.1,1.5-4.4
			c0.8-1.3,1.8-2.7,3.2-3.3c1.7-0.7,3.5-0.1,5.3,0c1.8,0.1,4-0.7,4.1-2.5c0.2,1.3,2.1,1.4,3.3,0.8c1.1-0.7,2.1-1.8,3.4-2
			c1.1-0.2,2.3,0.5,3.1,1.3c0.8,0.8,1.4,1.8,2.2,2.7c0.3,0.3,0.6,0.6,0.9,0.9c0,0.1,0,0.2,0.1,0.3c0.7,1.1,0.3,2.3,0.7,3.5
			c0.3,1,1,1.8,2,2.1c0.9,0.2,1.9-0.1,2.4-0.9c0.2-0.3,0.3-1,0.3-1.5c0.5-0.4,1-0.9,1.5-1.4c1.2-0.5,2.4-1,3.6-1.6
			c1-2.2,2.8-3.6,3.8-5.7c0.3-0.7,0.6-1.3,0.9-2c0.3-0.6,0.5-1.1,0.8-1.7c0.5-1.1,1.1-2.3,1.6-3.4c1-2.1,1.9-4.1,2.7-6.2
			c1.6-1.3,2.8-3,3.2-5.2c0.4-2.1-0.3-4.3,0.1-6.5c0.3-2.3,1.8-4.2,1.7-6.6c-0.1-2.2-1.3-4-1.7-6.2c-0.4-2.3,0.5-4.6-0.2-6.8
			c-0.6-2-2.1-3.3-4.2-3.6c-1.2-0.2-1.7-0.1-2.2-1.2c-0.3-0.8-0.4-1.6-0.7-2.4c-0.4-1.6-1.1-3.1-2.6-4c-1-0.6-2.3-0.7-3.4-0.7
			c-0.9,0-2.8,0.4-3.1-0.8c-0.3-1.4-2.5-1.7-3.1-0.4c-1.7,3.4-5.7,2.3-8.1,0.3c-1.2-1-2.7-0.3-2.9,1.2c-0.2,1.5-0.3,3.5-1.6,4.5
			c-1.3,1.1-2.4,0.1-3.1-1c-1.4-2.2-1.7-5-2.7-7.3c-1.1-2.4-3-3.2-5.6-3.4c-3.2-0.2-6-0.9-8.6-2.9c-0.7-0.5-1.9,0-2.1,0.9
			c0.1-0.5-0.9-1.6-1.2-2.1c-0.5-0.6-1.1-1.1-1.8-1.3c-1.7-0.5-3.4,0.4-4.5,1.7c-1.3,1.4-1.5,3.6-2.9,4.9c-1.4,1.2-3.5,1.3-5.2,1.5
			c-1.6,0.2-3.3,0.4-4.8,1.1c-1.7,0.8-3.1,2.2-4.5,3.4c-1.6,1.4-3,2-5,2.6c-1.6,0.6-2.8,1.5-3.3,3.2c-0.5,1.9,0.3,3.9-1,5.5
			c-1.6,2-3.7,3.7-5.5,5.5c-1.7,1.7-3.5,3.3-5.1,5.1c-1,1.1-1.6,2.5-1,4c0.4,1,1.3,1.7,2.2,2.3c1,0.7,2.9,1.3,2.3,2.8
			c-0.6,1.4-1.8,2.4-1.5,4.1c0.3,1.6,1.7,2.5,3.2,2.7c1,0.1,1.9-0.2,2.9-0.1c1.4,0.1,1.7,1,2.6,1.9c0.7,0.6,1.4,1,2.4,1.1
			c1.2,0.2,2.2,0,2.8,1.2c0.8,1.7,0.8,3.5,2,5.1c0.1,0.1,0.2,0.3,0.3,0.4c-0.1,3-0.1,6.1,1.3,8.8c0.5,1,1.2,1.9,2.1,2.4
			c0.9,0.5,2.2,0.6,3.1-0.1c-0.8,0.9-0.5,2.4,0.3,3.3c0.8,0.9,2,1.4,3.1,2c4,2.2,7,6.3,7.9,10.8c0.3,1.4,0.4,2.8,1,4
			c0.7,1.2,2.2,2.1,3.5,1.6c0.1,0.3,0.3,0.5,0.4,0.8c0.8,1.5,1.9,2.9,3.5,3.7c1.5,0.7,3.3,1,5,1.2c2.3,0.3,4.5,0.7,6.8,1
			c1.6,0.2,3.3,0.5,4.9,1.1c1.9,0.8,3.4,2.1,5,3.3c1,0.8,2,1.6,2.4,2.8c0.4,1,0.4,2.3,1,3.2c0.6,0.9,1.7,1.2,2.7,1.5
			c3.7,0.9,7.5,1.3,11.3,1.2c0.5,1,0.9,2.1,1.4,3.1c1.7,3.7-1,7.9-4.2,10.5c-1.1,0.9-2.4,1.7-3.1,2.9c-0.7,1.2-0.7,2.6-0.7,3.9
			c0,1.4,0.1,2.7-0.3,4c-0.4,1.3-1.6,2.4-3,2.4c0.3,1.5,0.7,2.9,1,4.4c-0.6,0.6,0.2,1.8,0.9,2.4c0.7,0.5,1.6,0.8,2.1,1.5
			c0.8,1,0.6,2.4,0.5,3.6c-0.1,1.3,0.2,2.8,1.4,3.2c1.2,0.4,2.8-0.5,3.7,0.4c0.5,0.5,0.4,1.3,0.8,1.8c0.4,0.6,1.1,0.9,1.8,0.7
			c0.7-0.2,1.2-0.8,1.2-1.5c0.9,0.8,2.2,1.2,3.5,1c0.7-0.1,1,0.2,1.3,0.8c0.3,0.6,0.4,1.3,0.5,1.9c0.1,1.3,0.3,2.7,0.4,4
			c0.1,0.7,0.1,1.4-0.2,2c-0.9,1.7-4,1.3-4.4,3.1c-0.3,1.4,1.2,2.4,1.7,3.7c0.6,1.9-1,3.7-2.5,4.9c-1.5,1.3-3.2,3-2.7,4.9
			c0.3,0.9,1.2,1.5,2.1,1.7c1,0.2,1.9-0.1,2.9-0.4c2.1-0.6,4.2-1.3,6.2-1.9c1.5-0.5,3.3-1.2,3.5-2.8c1.3,0,2.2-1.2,2.8-2.3
			c0.6-1.1,1-2.4,1.9-3.2c2.1-1.7,5.4-0.1,8-1c1.8-0.6,2.9-2.4,4.3-3.7c1.4-1.3,3.6-2.3,5.1-1.1c1-0.9,2-1.8,3-2.7
			c-0.9-1.2,0.6-3.1,1.8-4.1c1.1-1,2.6-1.8,3.2-3.2c0.5-1.1,0.5-2.3,0.8-3.5c0.5-1.8,2-3.2,3.3-4.6c2.6-2.5,5.2-5,7.9-7.5
			c-0.7,0.2-1.4-0.7-1.3-1.5c0.2-0.8,0.8-1.3,1.4-1.9c0.6-0.5,1.1-1.2,1.1-2C320.6,418.9,319.1,418.3,317.9,417.9z"/>
		<path class="st12" d="M266.4,374.8c0.9-0.1,1.7-0.8,1.7-1.7c0-1.2-1.4-1.8-2.5-2c-1.2-0.1-2.5-0.1-3.3-0.9c-0.2-0.8-1-1.3-1.8-1.6
			c-1.9-1-5.3-3.8-7.6-3.7c-1.1,0-2.6,1.1-2.5,2.3c0.1,1.1,1.7,2,2.4,0.8c-0.1,1-0.3,2.1-0.4,3.1c3.1-1.6,7.1-1.1,9.7,1.1
			c0.7,0.6,1.2,1.2,1.9,1.7C264.7,374.6,265.6,374.9,266.4,374.8z"/>
		<path class="st12" d="M269.6,376.4c1.1,1,2.7,1,4.1,1.1c1.7,0.1,3.4,0.2,5.1,0.3c0.6,0,1.5-0.1,1.6-0.7c0.1-0.4-0.3-0.8-0.6-1.1
			C277.4,374.2,271.3,373,269.6,376.4z"/>
		<polygon class="st12" points="272.3,369.2 272.3,369.2 272.3,369.2 		"/>
		<path class="st12" d="M273.2,369.7c-0.3-0.2-0.6-0.4-0.9-0.5L273.2,369.7c-0.4-0.1-0.7-0.2-0.9-0.5c-0.2-0.1-0.5-0.1-0.7-0.2
			c-0.6,0-1.2,0.4-1.2,1c0,0.7,0.9,1.1,1.6,1.2c0.7,0.2,1.5,0.3,2.2,0.5c0.5,0.1,1.1,0.2,1.4-0.2c0.3-0.4,0.1-1.1-0.3-1.4
			c-0.4-0.3-1-0.3-1.5-0.4C273.5,369.7,273.3,369.7,273.2,369.7z"/>
		<path class="st12" d="M261.5,376.4c-0.6,0.2-1,0.8-0.9,1.4c0.5,0.5,0.9,1.1,1.6,1.4c0.7,0.3,1.5,0.1,1.9-0.5
			c0.3-0.6,0.1-1.3-0.4-1.8c-0.5-0.4-1.2-0.6-1.8-0.7l0.2,0.1C261.8,376.4,261.7,376.4,261.5,376.4z"/>
		<path class="st12" d="M244.7,412.9c-0.5-0.4-1.2-0.5-1.9-0.5l0.5-0.1c-0.8-0.3-1.8,0.1-2.1,0.9c-0.3,0.8,0.1,1.8,0.9,2.1
			c0.5,0.2,1.1,0.1,1.6,0c0.6-0.1,1.2-0.2,1.5-0.7C245.6,414.1,245.3,413.3,244.7,412.9z"/>
		<path class="st12" d="M236.7,412.5c-0.3-0.1-0.7,0-1,0.2c-0.4,0.4-0.2,1.2,0.3,1.5c0.5,0.3,1.1,0.2,1.5-0.2c0.4-0.4,0.6-1,0.5-1.5
			C237.6,412.5,237.2,412.5,236.7,412.5z"/>
		<path class="st12" d="M239.4,408.8c-0.7-0.2-1.7-0.3-1.9,0.4c-0.2,0.6,0.4,1.2,1,1.3c0.6,0,1.2-0.3,1.8-0.7l-0.5,0.6
			c0.2,0.3,0.7,0.2,0.9-0.1c0.2-0.3,0-0.7-0.3-1C240.1,409,239.8,408.9,239.4,408.8z"/>
		<path class="st12" d="M291.4,391.2c-0.1,0-0.2,0-0.3,0l0.2,0.1c-0.1,0-0.2,0.1-0.2,0.2c-0.3,0.4-0.1,1,0.3,1.3
			c0.4,0.3,0.9,0.5,1.4,0.6c0.5,0.1,1,0.3,1.3,0.7c0.1-1.2-0.9-2.4-2-2.8C291.8,391.2,291.6,391.1,291.4,391.2z"/>
		<path class="st12" d="M289.9,387.9L289.9,387.9c0.6-0.1,1.3-0.3,2-0.5c-0.3-0.7-0.9-1.4-1.7-1.4c-0.8,0-1.5,0.9-1.1,1.6
			C289.3,387.8,289.6,387.9,289.9,387.9z"/>
		<path class="st12" d="M266.2,364.4c0.4,0,0.7-0.3,0.7-0.7c0-0.4-0.3-0.7-0.7-0.7c-0.4,0-0.7,0.3-0.7,0.7
			C265.5,364.1,265.8,364.4,266.2,364.4z"/>
		<path class="st12" d="M268.2,367.2c-0.1-0.4-0.5-0.7-0.9-0.7c-0.4,0-0.8,0.3-0.9,0.7c0,0.1,0,0.3,0,0.4c0,0.1,0.1,0.2,0.1,0.3
			c0,0,0,0,0,0.1c0,0,0,0,0,0c0,0,0,0,0.1,0.1c0.2,0.3,0.6,0.4,1,0.3C268,368.2,268.4,367.7,268.2,367.2z"/>
		<path class="st12" d="M263.6,367.7c0.2-0.1,0.4-0.2,0.5-0.4c0.4-0.3,0.4-0.9,0-1.2c-0.1-0.1-0.4-0.2-0.6-0.2
			c-0.3,0-0.5,0.2-0.7,0.4c-0.2,0.3-0.2,0.7,0,1.1C262.9,367.6,263.3,367.8,263.6,367.7z"/>
		<path class="st12" d="M285.4,378.8c0.1,0,0.1-0.1,0.2-0.1c0.4-0.2,0.4-0.7,0.1-1c-0.3-0.3-0.8-0.2-1,0.1c0,0.1-0.1,0.1-0.1,0.2
			C284.4,378.5,284.9,379,285.4,378.8z"/>
		<path class="st12" d="M283.5,382c0.6,0,0.6-1,0-1C282.9,381,282.9,382,283.5,382z"/>
		<path class="st12" d="M279.7,380.5c0.6,0,0.6-0.9,0-0.9C279.2,379.6,279.2,380.5,279.7,380.5z"/>
		<path class="st12" d="M287.3,380.9c0.9,0,0.9-1.3,0-1.3C286.4,379.5,286.4,380.9,287.3,380.9z"/>
		<path class="st12" d="M291.2,381.1c0.9,0,1-1.5,0-1.5C290.3,379.6,290.3,381.1,291.2,381.1z"/>
	</g>
	<g class="st14">
		<path class="st15" d="M383.2,261.5c19.9,23.9,31.9,54.7,31.9,88.2c0,76.2-61.8,138-138,138c-33.6,0-64.3-12-88.2-31.9
			c25.3,30.4,63.4,49.7,106,49.7c76.2,0,138-61.8,138-138C432.9,324.9,413.5,286.8,383.2,261.5z"/>
	</g>
	<g class="st16">
		<path class="st15" d="M301.7,236.4c36.4,0,69.4,14.1,94.1,37.1c-25.2-27-61.1-43.9-100.9-43.9c-76.2,0-138,61.8-138,138
			c0,39.8,16.9,75.7,43.9,100.9c-23-24.6-37.1-57.7-37.1-94.1C163.7,298.1,225.5,236.4,301.7,236.4z"/>
	</g>
</g>
<g>
	<g>
		<g>
			<polygon class="st17" points="433.7,204.3 432.3,203.5 389.3,270.4 392.6,272.4 			"/>
			<path class="st18" d="M435.6,197.4l-4,2c-1,0.5-1,1.8-0.1,2.4l4,2.5c0.9,0.6,2.1-0.1,2.1-1.1l0.1-4.5
				C437.6,197.6,436.6,196.9,435.6,197.4z"/>
			<g>
				<path class="st19" d="M421.2,199.3l9.2,1.2l-23.4,1.3c-0.4,0-0.4-0.5-0.1-0.6L421.2,199.3z"/>
				<path class="st17" d="M421.4,202.7l9-2.2l-23.4,1.3c-0.4,0-0.4,0.6,0,0.6L421.4,202.7z"/>
			</g>
			<g>
				<path class="st17" d="M442.3,212.4l-5.1-7.7l9.2,21.6c0.1,0.3,0.7,0.1,0.6-0.2L442.3,212.4z"/>
				<path class="st19" d="M439.1,213.7l-2-9l9.2,21.6c0.1,0.3-0.4,0.6-0.5,0.3L439.1,213.7z"/>
			</g>
			<g>
				<path class="st19" d="M443.6,190l-6.2,6.8l12.4-19.9c0.2-0.3,0.7,0,0.5,0.3L443.6,190z"/>
				<path class="st17" d="M440.7,188.2l-3.4,8.6l12.4-19.9c0.2-0.3-0.3-0.6-0.5-0.3L440.7,188.2z"/>
			</g>
		</g>
		<g>
			<path class="st20" d="M433.3,200.4c0.9,0.3,1.9,0.4,2.8,0.1c0.6-0.2,1.2-0.6,1.6-1l0-0.9c0-1-1.1-1.7-2-1.2l-4,2
				C432.1,199.8,432.7,200.2,433.3,200.4z"/>
			<path class="st21" d="M433.3,200.4c-0.6-0.2-1.2-0.6-1.6-1l0,0c-1,0.5-1,1.8-0.1,2.4l4,2.5c0.9,0.6,2.1-0.1,2.1-1.1l0-3.6
				c-0.4,0.5-1,0.8-1.6,1C435.2,200.8,434.2,200.7,433.3,200.4z"/>
		</g>
	</g>
	<g>
		<g>
			<polygon class="st17" points="420.7,180.6 419,179.5 367.6,259.6 371.5,262 			"/>
			<path class="st18" d="M423,172.2l-4.8,2.4c-1.1,0.6-1.2,2.2-0.1,2.9l4.7,2.9c1.1,0.7,2.5-0.1,2.5-1.4l0.1-5.4
				C425.4,172.5,424.1,171.7,423,172.2z"/>
			<g>
				<path class="st19" d="M405.8,174.5l11,1.5l-29.6,1.6c-0.4,0-0.4-0.5-0.1-0.6L405.8,174.5z"/>
				<path class="st17" d="M406,178.6l10.7-2.6l-29.6,1.6c-0.4,0-0.4,0.6,0,0.6L406,178.6z"/>
			</g>
			<g>
				<path class="st17" d="M431,190.2l-6.1-9.2l11.6,27.2c0.1,0.3,0.7,0.1,0.6-0.2L431,190.2z"/>
				<path class="st19" d="M427.2,191.8l-2.4-10.8l11.6,27.2c0.1,0.3-0.4,0.6-0.5,0.3L427.2,191.8z"/>
			</g>
			<g>
				<path class="st19" d="M432.6,163.4l-7.5,8.1l15.6-25.1c0.2-0.3,0.7,0,0.5,0.3L432.6,163.4z"/>
				<path class="st17" d="M429.1,161.3l-4,10.3l15.6-25.1c0.2-0.3-0.3-0.6-0.5-0.3L429.1,161.3z"/>
			</g>
		</g>
		<g>
			<path class="st20" d="M420.2,175.8c1.1,0.4,2.3,0.5,3.3,0.2c0.7-0.2,1.4-0.7,1.9-1.2l0-1c0-1.2-1.3-2-2.4-1.5l-4.8,2.4
				C418.8,175.2,419.5,175.6,420.2,175.8z"/>
			<path class="st21" d="M420.2,175.8c-0.7-0.3-1.4-0.7-1.9-1.2l0,0c-1.1,0.6-1.2,2.2-0.1,2.9l4.7,2.9c1.1,0.7,2.5-0.1,2.5-1.4
				l0.1-4.4c-0.5,0.6-1.1,1-1.9,1.2C422.5,176.3,421.3,176.2,420.2,175.8z"/>
		</g>
	</g>
	<g>
		<g>
			<polygon class="st17" points="385.5,203.9 384.5,203.3 355.1,249.1 357.3,250.5 			"/>
			<path class="st18" d="M386.8,199.1l-2.7,1.4c-0.7,0.3-0.7,1.2-0.1,1.6l2.7,1.7c0.6,0.4,1.4-0.1,1.4-0.8l0-3.1
				C388.2,199.3,387.4,198.8,386.8,199.1z"/>
			<g>
				<path class="st19" d="M376.9,200.5l6.3,0.8l-13.6,0.7c-0.4,0-0.4-0.5-0.1-0.6L376.9,200.5z"/>
				<path class="st17" d="M377.1,202.8l6.1-1.5l-13.6,0.7c-0.4,0-0.4,0.6,0,0.6L377.1,202.8z"/>
			</g>
			<g>
				<path class="st17" d="M391.3,209.4l-3.5-5.3l5.4,12.5c0.1,0.3,0.7,0.1,0.6-0.2L391.3,209.4z"/>
				<path class="st19" d="M389.2,210.3l-1.4-6.2l5.4,12.5c0.1,0.3-0.4,0.6-0.5,0.3L389.2,210.3z"/>
			</g>
			<g>
				<path class="st19" d="M392.3,194.1l-4.3,4.7l7.2-11.6c0.2-0.3,0.7,0,0.5,0.3L392.3,194.1z"/>
				<path class="st17" d="M390.3,192.9l-2.3,5.9l7.2-11.6c0.2-0.3-0.3-0.6-0.5-0.3L390.3,192.9z"/>
			</g>
		</g>
		<g>
			<path class="st20" d="M385.2,201.2c0.6,0.2,1.3,0.3,1.9,0.1c0.4-0.1,0.8-0.4,1.1-0.7l0-0.6c0-0.7-0.7-1.2-1.4-0.8l-2.7,1.4
				C384.4,200.8,384.8,201.1,385.2,201.2z"/>
			<path class="st21" d="M385.2,201.2c-0.4-0.2-0.8-0.4-1.1-0.7l0,0c-0.7,0.3-0.7,1.2-0.1,1.6l2.7,1.7c0.6,0.4,1.4-0.1,1.4-0.8
				l0-2.5c-0.3,0.3-0.7,0.6-1.1,0.7C386.5,201.5,385.8,201.4,385.2,201.2z"/>
		</g>
	</g>
</g>
<g>
	<path class="st22" d="M288,210.1c-0.4-1.4,0.7-2.7,1.7-3.7c1.1-1,2.3-2.1,2.2-3.5c-0.1-1.3-1.3-2.3-2.5-2.7
		c-1.3-0.4-2.6-0.4-3.9-0.6c-1.3-0.3-2.6-0.9-3.1-2.1c-0.6-1.4,0.2-3,1.3-4c1.1-1,2.5-1.6,3.8-2.3c1.3-0.7,2.6-1.7,3-3.2
		c0.6-2.1-0.9-4.4-2.9-5.3c-2-0.9-4.3-0.7-6.5-0.4c-1.7,0.3-3.8,0.4-4.7-1c-0.6-0.9-0.4-2.1,0.1-3c0.4-1,1.1-1.8,1.5-2.7
		c1.1-2.4,0.4-5.5-1.6-7.2c-2.2-1.8-5.7-1.9-7.9,0c-2.2,1.9-2.7,5.4-1.2,7.8c0.9,1.4,2.5,2.6,2.4,4.3c-0.1,1.8-1.9,2.9-3.4,3.6
		c-1.6,0.8-3.4,1.8-3.5,3.6c-0.1,1.8,1.5,3.1,3.1,4c1.5,0.9,3.3,1.8,3.7,3.6c0.4,1.9-1,3.6-2.5,4.9c-1.5,1.3-3.1,2.3-4.5,3.7
		c-1.4,1.3-2.6,3-3,4.9c-0.3,1.9,0.4,4.1,2.1,5.1c1.1,0.6,2.4,0.7,3.6,0.9c1.2,0.2,2.5,0.7,3.1,1.8c0.4,0.8,0.4,1.7,0.5,2.6
		c0.3,1.7,1.5,3.3,3,4.1c1.8,0.9,3.2,0.4,5,0.2c1.9-0.1,3.4,0.2,5.2-0.7c0.9-0.4,1.8-1.1,2.6-1.7c1.6-1.2,3.2-2.4,4.8-3.6
		c1.2-0.9,2.5-2.1,2.2-3.5C291.1,212.2,288.5,211.8,288,210.1z"/>
	<polygon class="st23" points="284.9,212.8 284.5,212.5 277.7,217 277.5,204.2 276.5,204.2 276.5,211.2 269.7,206.7 269.2,207 
		276.4,212.3 276.2,243 277.9,243 277.7,218.1 	"/>
</g>
<g>
	<path class="st24" d="M285.1,213.8c0.2-1,0.8-2.1,0.6-3.1c-0.2-1.3-1.4-2.2-2.7-2.6c-1.3-0.4-2.6-0.4-3.9-0.7c-3-0.8-5.4-3.4-6-6.4
		c-0.6-3,0.7-6.3,3.2-8.1c1.5-1.1,3.4-1.7,5.1-2.6c1.7-0.9,3.3-2.4,3.4-4.3c0.2-2-1.3-3.7-2.9-4.9c-1.6-1.2-3.5-2-4.9-3.4
		c-3.1-3.2-2.5-9.2,1.3-11.7c1.8-1.2,4-1.6,5.9-2.5c2-0.9,3.9-2.6,3.8-4.7c-0.1-2.3-2.2-3.9-3.6-5.7c-2.8-3.6-2.7-9.2,0.3-12.7
		c3-3.5,8.5-4.4,12.5-2.2c4,2.3,6,7.5,4.5,11.8c-0.6,1.9-1.8,3.5-2.6,5.3c-0.8,1.8-1.1,4-0.1,5.7c2.4,4,9.6,1.7,12.6,5.4
		c1.7,2.1,1.1,5.3-0.3,7.6s-3.6,4.1-5.1,6.3c-1.6,2.2-2.4,5.3-1.1,7.6c1,1.7,2.9,2.6,4.6,3.6c1.6,1.1,3.2,2.9,2.8,4.8
		c-0.7,3.4-6.5,3.6-7.4,7c-0.5,2,1,3.9,1.5,6C309.6,221.5,282.6,224.7,285.1,213.8z"/>
	<polygon class="st25" points="302.6,204.9 302.1,204.6 294.7,209.5 294.5,195.6 293.4,195.6 293.3,203.1 286,198.2 285.5,198.6 
		293.3,204.4 293,237.9 294.9,237.9 294.7,210.7 	"/>
</g>
<g>
	<path class="st26" d="M134.5,298.8c-2.9-6.5-3.7-14.2-0.5-20.5c2.6-5,7.4-8.6,12.7-10.7s11-2.6,16.7-2.8c6.6-0.2,13.3,0.1,19.8,0.9
		c2.7,0.3,7.6,1.1,9,3.3c1.2,2,0.8,4.5,0.2,6.7c-2.5,11-8.1,21.7-12.8,32.1c-2.3,5.1-5.2,10.4-10.1,13.1
		C154.7,328.9,139.8,310.7,134.5,298.8z"/>
	<g>
		<path class="st27" d="M190.4,276c-4.1,11.6-10.7,22.3-19.3,31.1c-2.4,2.4-5.1,4.8-8.4,5.6c-2.8,0.6-5.7,0.1-8.3-1
			c-2.6-1.1-5-2.7-7.3-4.4c-4.2-2.9-8.4-5.8-12.6-8.8c0,0.1,0.1,0.2,0.1,0.3c5.3,11.9,20.1,30.1,35.1,22.1c4.9-2.7,7.8-8,10.1-13.1
			c4.7-10.3,10.2-21,12.8-32.1c0.3-1.4,0.6-2.9,0.5-4.2c-0.4,0.3-0.7,0.6-1,1C191.2,273.5,190.8,274.8,190.4,276z"/>
	</g>
</g>
<g>
	<path class="st28" d="M367.6,455.2c0.5-5.6,5-10.1,9.9-12.9c4.9-2.8,10.4-4.4,15.2-7.4c8.2-5,14-13.8,15.3-23.3
		c1.3-9.5-1.8-19.6-8.4-26.6c-4.2-4.6-10.1-8.5-11.1-14.6c-1.1-7,4.6-13,10-17.6c5.4-4.6,11.4-10.1,11.1-17.2
		c-0.4-7.2-7.1-12.1-12.8-16.6c-5.7-4.5-11.3-11.5-8.6-18.2c3-7.3,13.2-7.8,20-11.8c-9.8-14.1-22.2-26.3-36.4-35.9
		c-6-1.5-12.1-4-18.4-3.5c-14.3,1.2-32.3,11.9-31.7,28.1c0.4,9.3,7.4,17.1,15.6,21.5c8.2,4.3,17.5,5.9,26.5,7.9
		c9,2.1,18.3,4.9,25.1,11.1c6.8,6.2,10.5,16.8,6.4,25.1c-4.4,8.8-16.3,13.1-18,22.8c-2.3,12.8,14.9,21.2,17.1,34
		c1.9,11.6-9.4,21.5-20.8,24.3c-11.4,2.8-23.5,1-35,3.1c-11.6,2.1-23.7,10.3-23.8,22c0,4.7,1.9,9.3,1.8,14
		c-0.2,12.1-13.4,20.2-25.5,20.9c-12.1,0.7-23.9-3.5-36-4.1c-8.2-0.4-18.4,2.4-20.1,10.5c-0.1,0.3-0.1,0.6-0.1,0.9
		c18.2,8.8,38.6,13.8,60.2,13.8c32,0,61.5-10.9,84.9-29.2C374.4,469.5,366.8,463.4,367.6,455.2z"/>
</g>
<g>
	<path class="st29" d="M356.3,206.2c6.9,1,13.5,5.5,16.9,11.7c2.5,4.5,3.3,9.7,2.9,14.6c-0.4,4.9-1.8,9.6-3.6,14.1
		c-0.8,2-1.7,4-3.5,5.3c-2.6,1.8-6.3,1.4-9.6,0.7c-8.6-1.8-15.7-4.9-24.9-8.7c-3.1-1.3-6.2-3.5-7.5-6.5c-1-2.5-0.5-5.2,0.2-7.7
		c2.9-9.6,9.5-19.1,19.5-22.5C349.8,206.1,353.1,205.7,356.3,206.2z"/>
	<g>
		<path class="st30" d="M354.2,246.9c-4.7-2.1-9.2-4.8-12.2-8.4c-4.7-5.5-5.1-12.3-2.8-17.7c0.8-1.9,1.8-3.7,3.1-5.3
			c1.1-1.5,2.3-2.8,3.5-4.2c0.7-0.7,1.3-1.4,2-2.1c0.4-0.4,1.7-1.2,1.8-1.8c0-0.4-0.2-0.7-0.5-1c-0.8,0.2-1.5,0.4-2.3,0.6
			c-10,3.4-16.6,12.9-19.5,22.5c-0.7,2.4-1.2,5.2-0.2,7.7c1.3,3.1,4.4,5.2,7.5,6.5c9.1,3.8,16.3,6.9,24.9,8.7c2.9,0.6,6.1,1,8.5-0.1
			C363.4,250.5,358.7,249,354.2,246.9z"/>
	</g>
</g>
<g>
	<path class="st31" d="M397.6,254.2c1.1-4.1,1.9-8.3,1.9-12.1s-0.9-7.3-2.9-9.8c-3-3.8-8.4-4.8-14.1-3.6c-5.7,1.2-11.6,4.4-17.2,8.3
		c-1.5,1-3,2.2-4.3,3.5c-1.3,1.4-2.4,3.1-2.8,4.8c-0.7,2.7,0.2,5,1.8,6.4c8.9,8.2,15.7,13.7,24.5,19.8c1.2,0.9,2.9,1.2,4.6,1.1
		c2-0.1,2.7-2.7,3.6-4.6C394.6,263.5,396.3,258.8,397.6,254.2z"/>
	<g>
		<path class="st32" d="M398,246.7c-1.3,3-3.1,5.8-5.5,8c-1.4,1.2-2.9,2.3-4.6,3c-4.8,2.2-10.5,1.8-15.5,0.2
			c-5-1.7-9.4-4.6-13.8-7.5c0.3,0.5,0.7,1,1.1,1.4c8.9,8.2,15.7,13.7,24.5,19.8c1.2,0.9,2.9,1.2,4.6,1.1c2-0.1,2.7-2.7,3.6-4.6
			c2.1-4.6,3.9-9.2,5.1-13.8c1.1-4.1,1.9-8.2,1.9-11.9c-0.3,0.6-0.4,1.5-0.6,2.1C398.7,245.2,398.4,245.9,398,246.7z"/>
	</g>
</g>
<g>
	<path class="st33" d="M137.4,298.4c-0.9-1.1-2.6-1.3-3.9-1.2c-1.3,0.1-2.8,0.2-4-0.8c-1.1-0.9-1.3-2.3-1.1-3.3
		c0.3-1.1,0.9-1.9,1.3-2.9c0.4-1,0.5-2.3-0.3-3.3c-0.9-1.2-2.6-1.8-3.9-1.7c-1.4,0.1-2.5,0.6-3.8,1c-1.2,0.4-2.7,0.6-4.1-0.1
		c-2.1-0.9-3.2-3.3-3-5.2c0.2-1.8,1.5-3.2,2.8-4.4c1-0.9,2.2-2.2,1.4-3.7c-0.5-0.9-1.5-1.5-2.5-1.8c-1-0.3-2-0.4-3-0.7
		c-2.5-0.8-4.8-3.2-5.2-5.6c-0.5-2.6,1.2-4.8,3.8-5.1c2.6-0.2,5.8,1.6,7.1,4.1c0.8,1.5,1,3.2,2.5,4.3c1.5,1.1,3.3,0.6,4.7,0.1
		c1.4-0.5,3.2-1,4.7,0c1.5,1,1.9,2.9,1.8,4.5c0,1.5-0.1,3.3,1.2,4.6c1.4,1.4,3.5,1.6,5.3,1.4c1.8-0.2,3.5-0.6,5.3-0.6
		c1.8-0.1,3.8,0.2,5.5,1.2c1.8,1,3.3,2.8,3.3,4.5c0,1.1-0.5,2-0.9,2.9c-0.4,0.9-0.6,2.1,0,3.1c0.5,0.8,1.3,1.3,1.9,2
		c1.3,1.3,2.1,3,2,4.5c-0.1,1.7-1.2,2.3-2.2,3.4c-1,1.1-1.4,2.3-3,2.9c-0.8,0.3-1.7,0.5-2.7,0.6c-1.8,0.3-3.5,0.6-5.3,0.9
		c-1.3,0.2-3,0.3-4-0.8C137.7,301.8,138.6,299.8,137.4,298.4z"/>
	<polygon class="st34" points="141.2,298.2 141.1,297.7 148.2,296.1 137.6,288.1 138.1,287.4 143.9,291.7 143.4,284.6 143.9,284.5 
		144.9,292.4 170.7,311.4 169.8,312.6 149.1,296.9 	"/>
</g>
<g>
	<path class="st35" d="M150.9,285.7c-4.4,0.8-10.6-1.1-14.4-5.7c-3.4-4-4.4-9.4-8.6-12.5c-3.6-2.7-7.5-2.3-10.6-1.4
		c-3.1,0.9-6.3,2.1-10.1,0.5c-4.4-1.8-8-6.9-8.8-11.2c-0.8-4.3,0.4-7.8,2-11c1.6-3.2,3.5-6.1,4-9.9c0.5-3.8-0.7-8.7-4.3-12.5
		c-2.5-2.6-5.8-4.3-8.1-7c-2.4-2.8-3.4-6.3-3.1-9.1c0.3-2.8,1.8-4.9,3.6-6.6c3-3,7-5.2,12.1-5s11.4,3.2,15.3,8.2
		c3.1,3.9,4.7,9,8.8,11.8c3.6,2.4,7.4,1.9,10.3,0.9c3-1,6.1-2.2,9.9-0.8c4.3,1.6,7.9,6.2,9.3,10.4c1.3,4.2,0.9,8,0.2,11.6
		c-0.3,1.8-0.7,3.7-0.1,5.8c0.6,2.1,2.3,4.6,4.5,5.4c3,1.2,5-1,7.9-0.6c3.7,0.6,7.1,5.3,7.4,8.8c0.2,3.5-1.7,5.9-3.6,8.2
		c-3.8,4.5-7.5,9.1-11.4,13.6c-1.4,1.7-3.3,2.9-5.1,4.3c-1,0.9-2.1,1.7-3.4,2.3C153.7,284.8,151.6,284.9,150.9,285.7z"/>
	<polygon class="st36" points="160.3,252.4 159.6,252.5 158.2,262.8 145.5,250.9 144.6,251.8 151.4,258.4 141.2,260.2 141.2,261 
		152.5,259.5 182.7,288.8 184.2,287.2 159.4,263.9 	"/>
</g>
<g>
	<path class="st37" d="M176.6,261.5c-0.4-0.8-0.7-1.8-1.4-2.4c-0.9-0.8-2.2-0.7-3.3-0.2s-2,1.2-3,1.7c-2.4,1.2-5.5,0.9-7.7-0.8
		c-2.1-1.7-3.2-4.6-2.6-7.3c0.4-1.6,1.3-3.1,1.9-4.7c0.6-1.6,0.8-3.5-0.2-4.9c-1-1.4-3-1.7-4.8-1.6c-1.7,0.1-3.5,0.7-5.2,0.5
		c-3.9-0.4-7-4.7-5.9-8.5c0.5-1.8,1.7-3.4,2.5-5.1c0.8-1.7,1.1-3.9-0.2-5.4c-1.4-1.5-3.7-1.3-5.7-1.7c-4-0.8-7.1-4.6-7.1-8.6
		c0-4,3.1-7.9,7.1-8.6c4-0.8,8.3,1.6,9.8,5.3c0.7,1.6,0.8,3.4,1.4,5c0.5,1.7,1.6,3.3,3.2,3.9c3.9,1.3,7.4-4.4,11.5-3.7
		c2.3,0.4,3.8,2.9,4.1,5.3c0.4,2.4-0.1,4.8,0.2,7.1c0.2,2.4,1.4,4.9,3.7,5.7c1.6,0.6,3.4,0,5.1-0.2c1.7-0.2,3.8,0.1,4.6,1.6
		c1.5,2.7-2.2,6.1-0.9,8.9c0.8,1.7,3,2,4.5,3.1C197.4,252.6,181.3,270.2,176.6,261.5z"/>
	<polygon class="st38" points="183.2,245.5 182.6,245.5 180.5,253.1 172.4,243.9 171.7,244.5 176,249.6 168.3,250.6 168.1,251.1 
		176.7,250.4 195.8,273 197.1,271.9 181.3,253.9 	"/>
</g>
<g>
	<path class="st39" d="M205.9,226.9c3.1-5.3,9.5-7,16.2-5.3c6.7,1.7,13.6,6.3,19.7,12.1c1,0.9,1.9,1.9,2.7,3
		c0.7,1.1,1.3,2.5,1.1,3.6c-0.1,1-0.6,1.6-1.2,2.2c-6.5,6.6-13.7,11.4-22.6,16c-2.8,1.5-6.3,2.2-9.9,0.5c-2.4-1.1-4.8-3.4-6.3-6.2
		c-2.5-4.4-2.1-9.3-2.2-13.5C203.3,234.9,203.9,230.3,205.9,226.9z"/>
	<g>
		<path class="st40" d="M243.6,242c-0.7,0.2-1.3,0.7-1.9,1.1c-3.9,3-8.2,5.5-13,6.6c-4.8,1.1-10,0.7-14.2-1.9
			c-2.2-1.4-3.9-3.2-5.4-5.3c-1.3-1.9-2.3-4-3.3-6c-0.5-1.1-1.1-2.4-2-3.3c-0.3,2-0.4,4.2-0.4,6.4c0.1,4.1-0.3,9.1,2.2,13.5
			c1.5,2.7,3.9,5,6.3,6.2c3.7,1.7,7.1,0.9,9.9-0.5c8.9-4.6,16.1-9.5,22.6-16c0.2-0.2,0.4-0.4,0.6-0.7
			C244.5,241.8,244,241.8,243.6,242z"/>
	</g>
</g>
<g>
	<path class="st31" d="M172.9,266.8c-2.7-7-4.2-14.2-3.1-20.1c0.8-4.7,3.3-8.4,6.3-11.4c2.7-2.7,6.1-4.8,10.3-5.3
		c5.2-0.6,11.4,1.5,17.2,4.7c5.8,3.3,11.3,7.7,16.7,12.3c1.6,1.3,3.2,2.9,3.9,4.7c1,2.7-0.7,4.6-2.3,5.9
		c-6.9,5.6-13.9,11.3-20.9,16.8c-3.5,2.7-6.9,5.5-10.4,8.2c-1.7,1.4-3.4,3-5.3,4.1c-1.5,0.8-2.5-0.1-3.8-2.1
		C178,279,175.2,272.7,172.9,266.8z"/>
	<path class="st41" d="M219.6,258.7c-0.7,0.1-1.2,0.5-1.8,0.9c-7.4,5.4-17,7.7-26,6.1c-3-0.5-5.9-1.5-8.7-2.8
		c-2.4-1.2-4.8-2.6-6.9-4.3c-2-1.6-3.6-3.7-5.5-5.4c-0.4-0.4-0.8-0.6-1.1-0.8c0.3,4.6,1.5,9.5,3.4,14.4c2.3,5.9,5.1,12.2,8.7,17.9
		c1.2,2,2.3,2.9,3.8,2.1c1.9-1.1,3.6-2.8,5.3-4.1c3.5-2.7,6.9-5.5,10.4-8.2c6.5-5.2,12.9-10.3,19.3-15.6
		C220.1,258.7,219.8,258.7,219.6,258.7z"/>
	<g>
		<path class="st42" d="M185,283.4c-0.2,0.2,0.1,0.6,0.3,0.4C185.6,283.5,185.3,283.2,185,283.4z"/>
		<path class="st42" d="M183.8,281c-0.5,0.4,0.2,1.1,0.6,0.7C184.9,281.3,184.2,280.6,183.8,281z"/>
		<path class="st42" d="M185.6,281.4c-0.4,0.4,0.2,1,0.6,0.6C186.6,281.7,186,281,185.6,281.4z"/>
		<path class="st42" d="M188,280.5c-0.5,0.5,0.2,1.3,0.7,0.8C189.3,280.8,188.5,280,188,280.5z"/>
		<path class="st42" d="M186,283.3c-0.3,0.3,0.1,0.8,0.5,0.5C186.8,283.6,186.4,283,186,283.3z"/>
		<path class="st42" d="M184.8,280.4c0.4-0.3-0.1-0.9-0.5-0.6C183.9,280.2,184.5,280.7,184.8,280.4z"/>
		<path class="st42" d="M182.1,278.3c-0.3,0.3,0.1,0.8,0.4,0.5C182.9,278.5,182.4,278,182.1,278.3z"/>
		<path class="st42" d="M181.1,277.6c0.4-0.3-0.1-0.9-0.5-0.6C180.2,277.4,180.7,277.9,181.1,277.6z"/>
		<path class="st42" d="M181.1,275.1c0.4-0.4-0.1-1-0.6-0.6C180.2,274.9,180.7,275.5,181.1,275.1z"/>
		<path class="st42" d="M183.1,275.5c-0.4,0.3,0.1,0.9,0.5,0.6C184,275.8,183.5,275.2,183.1,275.5z"/>
		<path class="st42" d="M184.7,278.3c-0.5,0.4,0.2,1.2,0.7,0.7C185.8,278.7,185.1,277.9,184.7,278.3z"/>
		<path class="st42" d="M188.7,277c-0.4,0.4,0.2,1.1,0.6,0.7C189.8,277.3,189.2,276.6,188.7,277z"/>
		<path class="st42" d="M189.8,279.5c-0.4,0.4,0.1,1,0.6,0.6C190.7,279.8,190.2,279.1,189.8,279.5z"/>
		<path class="st42" d="M186.3,277.6c-0.5,0.4,0.2,1.2,0.7,0.8C187.4,278,186.8,277.2,186.3,277.6z"/>
		<path class="st42" d="M186.5,275.3c-0.4,0.3,0.1,0.9,0.5,0.6C187.4,275.5,186.9,275,186.5,275.3z"/>
		<path class="st42" d="M191,275.3c-0.4,0.3,0.1,1,0.5,0.6C191.9,275.6,191.4,274.9,191,275.3z"/>
		<path class="st42" d="M192.6,277.1c-0.4,0.3,0.1,0.9,0.5,0.6C193.5,277.4,193,276.8,192.6,277.1z"/>
		<path class="st42" d="M191.1,278.4c-0.3,0.3,0.1,0.8,0.4,0.5C191.9,278.6,191.5,278.1,191.1,278.4z"/>
		<path class="st42" d="M195.1,273.7c-0.5,0.4,0.2,1.2,0.7,0.8C196.3,274.1,195.6,273.3,195.1,273.7z"/>
		<path class="st42" d="M198.7,272.4c-0.4,0.4,0.2,1,0.6,0.7C199.7,272.6,199.1,272,198.7,272.4z"/>
		<path class="st42" d="M201.8,270.9c-0.3,0.3,0.1,0.7,0.4,0.5C202.5,271.1,202.1,270.6,201.8,270.9z"/>
		<path class="st42" d="M194.4,276.3c-0.4,0.4,0.2,1.1,0.6,0.7C195.4,276.6,194.8,275.9,194.4,276.3z"/>
		<path class="st42" d="M192.5,274.2c-0.4,0.3,0.1,0.9,0.5,0.6C193.5,274.4,192.9,273.8,192.5,274.2z"/>
		<path class="st42" d="M198,271c0.3-0.2-0.1-0.6-0.4-0.4C197.4,270.8,197.8,271.2,198,271z"/>
		<path class="st42" d="M197.4,274.4c-0.3,0.3,0.1,0.8,0.4,0.5C198.2,274.6,197.8,274.1,197.4,274.4z"/>
		<path class="st42" d="M189,273.8c-0.4,0.3,0.1,0.9,0.5,0.6C189.9,274.1,189.4,273.5,189,273.8z"/>
		<path class="st42" d="M183.3,272.4c-0.4,0.4,0.1,1,0.5,0.6C184.3,272.7,183.7,272,183.3,272.4z"/>
		<path class="st42" d="M180.6,272.9c0.5-0.4-0.2-1.1-0.6-0.7C179.5,272.6,180.2,273.3,180.6,272.9z"/>
		<path class="st42" d="M178.8,268.6c-0.4,0.4,0.2,1.1,0.6,0.7C179.8,268.8,179.2,268.2,178.8,268.6z"/>
		<path class="st42" d="M177.7,269.8c0.3-0.3-0.1-0.8-0.5-0.5C176.9,269.5,177.3,270.1,177.7,269.8z"/>
		<path class="st42" d="M179,272.6c0.4-0.3-0.1-0.9-0.5-0.6C178.1,272.3,178.6,272.9,179,272.6z"/>
		<path class="st42" d="M177.3,265.8c0.3-0.2-0.1-0.6-0.4-0.4C176.6,265.7,177,266.1,177.3,265.8z"/>
		<path class="st42" d="M177,263.9c0.3-0.3-0.1-0.8-0.5-0.5C176.2,263.7,176.7,264.2,177,263.9z"/>
		<path class="st42" d="M182.6,269.6c0.4-0.3-0.1-0.9-0.5-0.6C181.7,269.4,182.2,269.9,182.6,269.6z"/>
		<path class="st42" d="M185.5,271c0.4-0.4-0.2-1.1-0.6-0.7C184.4,270.7,185,271.4,185.5,271z"/>
		<path class="st42" d="M189.1,269.3c-0.4,0.3,0.1,1,0.5,0.6C190,269.6,189.5,269,189.1,269.3z"/>
		<path class="st42" d="M191.2,271.2c-0.3,0.3,0.1,0.8,0.4,0.5C191.9,271.4,191.5,270.9,191.2,271.2z"/>
		<path class="st42" d="M187.2,273.1c0.4-0.4-0.2-1-0.6-0.7C186.2,272.8,186.8,273.5,187.2,273.1z"/>
		<path class="st42" d="M184.9,273.4c-0.3,0.3,0.1,0.8,0.4,0.5C185.7,273.6,185.3,273.1,184.9,273.4z"/>
		<path class="st42" d="M184.4,274.9c-0.4,0.3,0.1,0.9,0.5,0.6C185.3,275.2,184.8,274.6,184.4,274.9z"/>
		<path class="st42" d="M185.8,277.2c0.4-0.3-0.1-0.9-0.5-0.6C184.9,276.9,185.4,277.5,185.8,277.2z"/>
		<path class="st42" d="M183.9,278c0.4-0.4-0.2-1.1-0.6-0.7C182.8,277.7,183.4,278.4,183.9,278z"/>
		<path class="st42" d="M182.3,280.8c-0.3,0.3,0.1,0.8,0.4,0.5C183.1,281,182.7,280.5,182.3,280.8z"/>
		<path class="st42" d="M187.5,279.9c0.4-0.4-0.2-1.1-0.6-0.7C186.4,279.6,187,280.2,187.5,279.9z"/>
		<path class="st42" d="M183.9,282.4c-0.4,0.3,0.1,0.9,0.5,0.6C184.8,282.6,184.3,282.1,183.9,282.4z"/>
		<path class="st42" d="M187.5,282.3c-0.5,0.4,0.2,1.1,0.6,0.7C188.6,282.6,188,281.9,187.5,282.3z"/>
		<path class="st42" d="M189.2,278.4c-0.4,0.4,0.2,1.1,0.6,0.7C190.2,278.7,189.6,278,189.2,278.4z"/>
		<path class="st42" d="M188.3,275.9c0.4-0.3-0.1-1-0.5-0.6C187.4,275.6,187.9,276.3,188.3,275.9z"/>
		<path class="st42" d="M191.1,277c-0.4,0.3,0.1,0.9,0.5,0.6C192,277.3,191.5,276.7,191.1,277z"/>
		<path class="st42" d="M182.6,271.7c0.3-0.3-0.1-0.8-0.4-0.5C181.8,271.5,182.3,272,182.6,271.7z"/>
		<path class="st42" d="M182.4,274.2c0.4-0.4-0.2-1-0.6-0.6C181.4,273.9,182,274.6,182.4,274.2z"/>
		<path class="st42" d="M179,274.2c0.2-0.2-0.1-0.5-0.3-0.3C178.6,274,178.8,274.3,179,274.2z"/>
		<path class="st42" d="M180.4,270.7c0.4-0.4-0.1-1-0.6-0.6C179.4,270.5,180,271.1,180.4,270.7z"/>
		<path class="st42" d="M188,271.6c-0.4,0.3,0.1,0.9,0.5,0.6C188.9,271.9,188.4,271.3,188,271.6z"/>
		<path class="st42" d="M190.5,272.5c-0.5,0.4,0.2,1.1,0.6,0.7C191.5,272.8,190.9,272.1,190.5,272.5z"/>
		<path class="st42" d="M195.5,271.8c0.4-0.4-0.2-1.1-0.6-0.7C194.4,271.5,195,272.2,195.5,271.8z"/>
		<path class="st42" d="M193.8,275.5c0.4-0.4-0.1-1-0.6-0.6C192.8,275.3,193.4,275.9,193.8,275.5z"/>
		<path class="st42" d="M196.2,272c-0.5,0.5,0.2,1.2,0.7,0.8C197.4,272.4,196.7,271.6,196.2,272z"/>
		<path class="st42" d="M192.4,271.7c-0.4,0.3,0.1,0.9,0.5,0.6C193.3,271.9,192.8,271.3,192.4,271.7z"/>
		<path class="st42" d="M196.3,274.9c-0.5,0.4,0.2,1.1,0.6,0.7C197.5,275.2,196.8,274.5,196.3,274.9z"/>
		<path class="st42" d="M200,272.3c-0.5,0.4,0.2,1.1,0.6,0.7C201,272.6,200.4,271.9,200,272.3z"/>
		<path class="st42" d="M199.5,270.5c-0.5,0.4,0.2,1.1,0.6,0.7C200.6,270.8,199.9,270.1,199.5,270.5z"/>
	</g>
</g>
<g>
	<path class="st43" d="M241.1,225.5c-0.6-0.5-0.4-1.5-0.1-2.2c0.3-0.7,0.6-1.6,0.1-2.3c-0.4-0.6-1.2-0.8-1.9-0.6
		c-0.7,0.1-1.4,0.5-2,0.7c-0.7,0.2-1.5,0.3-2.1-0.2c-0.6-0.5-0.7-1.5-0.5-2.3c0.3-0.8,0.8-1.4,1.2-2.1c0.4-0.7,0.8-1.5,0.6-2.3
		c-0.3-1.2-1.6-1.9-2.8-1.8c-1.2,0.1-2.3,0.8-3.2,1.5c-0.7,0.6-1.7,1.2-2.5,0.8c-0.5-0.3-0.7-0.9-0.8-1.5c0-0.6,0.1-1.2,0-1.7
		c-0.1-1.4-1.3-2.7-2.7-3c-1.5-0.3-3.2,0.6-3.8,2.1c-0.6,1.5,0.1,3.3,1.5,4.1c0.8,0.4,1.9,0.6,2.3,1.4c0.4,0.9-0.1,1.9-0.7,2.7
		c-0.6,0.8-1.1,1.8-0.7,2.7c0.4,0.9,1.6,1.1,2.5,1.1c1,0,2.1,0,2.7,0.7c0.7,0.8,0.5,2,0.1,3c-0.4,1-0.9,2-1.2,3
		c-0.3,1-0.5,2.1-0.1,3.2c0.4,1,1.3,1.9,2.4,1.9c0.7,0,1.3-0.3,2-0.5c0.6-0.2,1.4-0.3,2,0.1c0.4,0.3,0.6,0.7,1,1.1
		c0.6,0.8,1.6,1.2,2.6,1.2c1.1,0,1.6-0.7,2.5-1.2c0.9-0.6,1.7-0.8,2.3-1.7c0.3-0.5,0.6-1,0.8-1.5c0.5-1,0.9-2,1.4-3
		c0.3-0.7,0.6-1.7,0.1-2.3C243.2,225.7,241.8,226.2,241.1,225.5z"/>
	<polygon class="st44" points="240.4,227.6 240.1,227.6 238,231.6 234.5,225.5 234,225.7 235.9,229.1 231.4,228.7 231.3,229 
		236.2,229.7 244.2,244.5 245,244.1 238.3,232.1 	"/>
</g>
<g>
	<g>
		<linearGradient id="SVGID_7_" gradientUnits="userSpaceOnUse" x1="114.6014" y1="407.4491" x2="114.6014" y2="368.8548">
			<stop  offset="0" style="stop-color:#6ED9E0"/>
			<stop  offset="0.9929" style="stop-color:#BEF7FF"/>
		</linearGradient>
		<path class="st45" d="M111.8,387.3c-3.5,6.1-4.9,17.5,7.9,20.1v-38.6C119.8,368.9,119.2,374.4,111.8,387.3z"/>
		<linearGradient id="SVGID_8_" gradientUnits="userSpaceOnUse" x1="124.9376" y1="407.4491" x2="124.9376" y2="368.8548">
			<stop  offset="0" style="stop-color:#4ABCC4"/>
			<stop  offset="0.9929" style="stop-color:#9CEBF6"/>
		</linearGradient>
		<path class="st46" d="M127.7,387.3c3.5,6.1,4.9,17.5-7.9,20.1v-38.6C119.8,368.9,120.3,374.4,127.7,387.3z"/>
	</g>
	<g>
		<linearGradient id="SVGID_9_" gradientUnits="userSpaceOnUse" x1="130.0439" y1="381.2126" x2="130.0439" y2="355.494">
			<stop  offset="0" style="stop-color:#6ED9E0"/>
			<stop  offset="0.9929" style="stop-color:#BEF7FF"/>
		</linearGradient>
		<path class="st47" d="M128.2,367.8c-2.3,4.1-3.2,11.7,5.3,13.4v-25.7C133.5,355.5,133.1,359.2,128.2,367.8z"/>
		<linearGradient id="SVGID_10_" gradientUnits="userSpaceOnUse" x1="136.9318" y1="381.2126" x2="136.9318" y2="355.494">
			<stop  offset="0" style="stop-color:#4ABCC4"/>
			<stop  offset="0.9929" style="stop-color:#9CEBF6"/>
		</linearGradient>
		<path class="st48" d="M138.8,367.8c2.3,4.1,3.2,11.7-5.3,13.4v-25.7C133.5,355.5,133.9,359.2,138.8,367.8z"/>
	</g>
	<linearGradient id="SVGID_11_" gradientUnits="userSpaceOnUse" x1="120.2093" y1="407.4491" x2="120.2093" y2="368.8547">
		<stop  offset="0" style="stop-color:#4ABCC4"/>
		<stop  offset="0.9929" style="stop-color:#9CEBF6"/>
	</linearGradient>
	<path class="st49" d="M127.6,387.1c2.9,6.3,3.3,16.4-8.6,18.8c-4.4-0.9-7.1-2.8-8.7-5.2c1.3,3.1,4.2,5.7,9.5,6.8
		c12.8-2.6,11.4-14.1,7.9-20.1C127.7,387.2,127.6,387.2,127.6,387.1z"/>
	<linearGradient id="SVGID_12_" gradientUnits="userSpaceOnUse" x1="133.7269" y1="381.2126" x2="133.7269" y2="355.494">
		<stop  offset="0" style="stop-color:#4ABCC4"/>
		<stop  offset="0.9929" style="stop-color:#9CEBF6"/>
	</linearGradient>
	<path class="st50" d="M138.8,367.8c-0.1-0.2-0.2-0.3-0.3-0.4c1.9,4.2,2,10.8-5.8,12.3c-2.8-0.6-4.6-1.8-5.6-3.3
		c0.8,2.2,2.7,4,6.4,4.8C142,379.5,141.1,371.8,138.8,367.8z"/>
	<path class="st51" d="M115,383.8c-0.6,0.9-1.2,1.7-1.6,2.6c-0.4,0.9-0.6,2-0.3,3c0.3,1,1.3,1.8,2.3,1.7c0.9-0.1,1.7-0.8,2.1-1.6
		c0.4-0.8,0.4-1.8,0.5-2.7c0.2-4,0.4-7.9,0.6-11.9l0.1-1.4C118.2,377.1,117,380.7,115,383.8z"/>
	<path class="st51" d="M130.9,364.3c-0.3,0.5-0.6,0.9-0.9,1.4c-0.2,0.5-0.3,1.1-0.1,1.6c0.2,0.5,0.7,1,1.3,0.9
		c0.5,0,0.9-0.4,1.1-0.9c0.2-0.5,0.2-1,0.3-1.5c0.1-2.2,0.2-4.4,0.3-6.5l0-0.8C132.7,360.7,132,362.6,130.9,364.3z"/>
</g>
<text transform="matrix(1 0 0 1 235.5503 380.1408)"><tspan x="0" y="0" class="st52 st53 st54">THINK</tspan><tspan x="-20.8" y="33" class="st52 st53 st54">GITCOIN</tspan></text>
<g>
	<path class="st52" d="M234,340.8h0.8v7.7h3v0.7H234V340.8z"/>
	<path class="st52" d="M243.2,340.8v0.7h-3.4v3.1h3v0.7h-3v3.2h3.4v0.7H239v-8.3H243.2z"/>
	<path class="st52" d="M244.5,341.5v-0.7h5.2v0.7h-2.2v7.6h-0.8v-7.6H244.5z"/>
	<path class="st52" d="M250.8,341.9l-0.1-2.3h0.9l-0.1,2.3H250.8z"/>
	<path class="st52" d="M253.4,343c0,0.3,0.1,0.6,0.3,0.8c0.2,0.2,0.4,0.4,0.7,0.5c0.3,0.1,0.6,0.2,0.9,0.3c0.3,0.1,0.7,0.2,1,0.2
		c0.3,0.1,0.6,0.2,0.9,0.3c0.3,0.1,0.5,0.4,0.7,0.6c0.2,0.3,0.3,0.6,0.3,1.1c0,0.6-0.2,1.2-0.7,1.7c-0.5,0.5-1.1,0.7-1.9,0.7
		c-0.8,0-1.5-0.2-2-0.6c-0.5-0.4-0.8-0.9-0.8-1.5h0.9c0,0.4,0.2,0.7,0.5,1c0.3,0.3,0.7,0.4,1.3,0.4c0.6,0,1.1-0.2,1.4-0.5
		c0.3-0.3,0.5-0.7,0.5-1.1c0-0.5-0.2-0.8-0.5-1c-0.3-0.2-0.7-0.4-1.2-0.5c-0.5-0.1-0.9-0.2-1.4-0.3c-0.5-0.1-0.8-0.3-1.2-0.7
		c-0.3-0.3-0.5-0.8-0.5-1.5c0-0.6,0.2-1.2,0.7-1.6c0.5-0.4,1.1-0.6,1.9-0.6c0.8,0,1.4,0.2,1.8,0.5c0.4,0.4,0.7,0.8,0.8,1.4h-1
		c0-0.3-0.2-0.6-0.5-0.9c-0.3-0.3-0.7-0.4-1.3-0.4c-0.5,0-1,0.1-1.3,0.4C253.6,342.1,253.4,342.5,253.4,343z"/>
	<path class="st52" d="M263.9,343c0,0.3,0.1,0.6,0.3,0.8c0.2,0.2,0.4,0.4,0.7,0.5c0.3,0.1,0.6,0.2,0.9,0.3c0.3,0.1,0.7,0.2,1,0.2
		c0.3,0.1,0.6,0.2,0.9,0.3c0.3,0.1,0.5,0.4,0.7,0.6c0.2,0.3,0.3,0.6,0.3,1.1c0,0.6-0.2,1.2-0.7,1.7c-0.5,0.5-1.1,0.7-1.9,0.7
		c-0.8,0-1.5-0.2-2-0.6c-0.5-0.4-0.8-0.9-0.8-1.5h0.9c0,0.4,0.2,0.7,0.5,1c0.3,0.3,0.7,0.4,1.3,0.4c0.6,0,1.1-0.2,1.4-0.5
		c0.3-0.3,0.5-0.7,0.5-1.1c0-0.5-0.2-0.8-0.5-1c-0.3-0.2-0.7-0.4-1.2-0.5c-0.5-0.1-0.9-0.2-1.4-0.3c-0.5-0.1-0.8-0.3-1.2-0.7
		c-0.3-0.3-0.5-0.8-0.5-1.5c0-0.6,0.2-1.2,0.7-1.6c0.5-0.4,1.1-0.6,1.9-0.6c0.8,0,1.4,0.2,1.8,0.5c0.4,0.4,0.7,0.8,0.8,1.4h-1
		c0-0.3-0.2-0.6-0.5-0.9c-0.3-0.3-0.7-0.4-1.3-0.4s-1,0.1-1.3,0.4C264.1,342.1,263.9,342.5,263.9,343z"/>
	<path class="st52" d="M276.1,349.1l-0.7-1.9h-3.9l-0.7,1.9H270l3.1-8.3h0.9l3,8.3H276.1z M271.7,346.5h3.4l-1.7-4.7L271.7,346.5z"
		/>
	<path class="st52" d="M281.2,349.1l-3.3-8.3h0.9l2.8,7.4l2.8-7.4h0.9l-3.3,8.3H281.2z"/>
	<path class="st52" d="M290.8,340.8v0.7h-3.4v3.1h3v0.7h-3v3.2h3.4v0.7h-4.2v-8.3H290.8z"/>
	<path class="st52" d="M295.7,341.5v-0.7h5.2v0.7h-2.2v7.6h-0.8v-7.6H295.7z"/>
	<path class="st52" d="M307.7,340.8h0.8v8.3h-0.8v-3.8h-4.5v3.8h-0.8v-8.3h0.8v3.8h4.5V340.8z"/>
	<path class="st52" d="M314.6,340.8v0.7h-3.4v3.1h3v0.7h-3v3.2h3.4v0.7h-4.2v-8.3H314.6z"/>
	<path class="st52" d="M329.3,340.8h0.9l-2.6,8.3h-0.9l-2-7.1l-2.2,7.1l-0.9,0l-2.4-8.3h0.9l2,7.4l2.2-7.4h0.9l2,7.3L329.3,340.8z"
		/>
	<path class="st52" d="M332.2,348c-0.8-0.8-1.2-1.8-1.2-3c0-1.2,0.4-2.2,1.2-3c0.8-0.8,1.8-1.2,3-1.2c1.2,0,2.2,0.4,3,1.2
		c0.8,0.8,1.2,1.8,1.2,3c0,1.2-0.4,2.2-1.2,3c-0.8,0.8-1.8,1.2-3,1.2C334,349.2,333,348.8,332.2,348z M337.6,347.5
		c0.6-0.6,1-1.5,1-2.5c0-1.1-0.3-1.9-1-2.5c-0.6-0.6-1.4-1-2.4-1c-1,0-1.8,0.3-2.4,1c-0.6,0.6-1,1.5-1,2.5c0,1.1,0.3,1.9,1,2.5
		c0.6,0.6,1.4,1,2.4,1C336.2,348.5,337,348.2,337.6,347.5z"/>
	<path class="st52" d="M341.7,345.7v3.5h-0.8v-8.3h2.5c0.9,0,1.6,0.2,2.1,0.7c0.5,0.4,0.7,1,0.7,1.7s-0.2,1.2-0.6,1.7
		c-0.4,0.4-0.9,0.7-1.7,0.8l2.4,3.5h-1.1l-2.3-3.5H341.7z M341.7,341.5v3.5h1.7c1.3,0,2-0.6,2-1.7c0-1.2-0.7-1.7-2-1.7H341.7z"/>
	<path class="st52" d="M348.1,340.8h0.8v7.7h3v0.7h-3.9V340.8z"/>
	<path class="st52" d="M355.7,340.8c1.3,0,2.4,0.4,3.2,1.1c0.8,0.7,1.1,1.8,1.1,3.1c0,1.3-0.4,2.3-1.1,3c-0.8,0.7-1.8,1.1-3.2,1.1
		h-2.6v-8.3H355.7z M354,348.5h1.7c1.1,0,2-0.3,2.5-0.9c0.6-0.6,0.9-1.5,0.9-2.5c0-1.1-0.3-1.9-0.9-2.5c-0.6-0.6-1.4-0.9-2.5-0.9
		H354V348.5z"/>
</g>
</svg>
