<svg xmlns="http://www.w3.org/2000/svg" xmlns:xlink="http://www.w3.org/1999/xlink" viewBox="0 0 594.03 685.96"><defs><style>.cls-1{fill:url(#Orange_Radial);}.cls-2{opacity:0.31;}.cls-3{fill:#df4c27;}.cls-4{fill:#fadba5;}.cls-5{fill:url(#Light_Brown_Radial);}.cls-6{fill:url(#Light_Brown_Radial-2);}.cls-7{fill:none;stroke:#000;stroke-miterlimit:10;stroke-width:20px;opacity:0.25;isolation:isolate;}.cls-8{fill:#fff;}.cls-9{fill:#ac2e18;}.cls-10{fill:#fefdfc;}.cls-11{fill:#db4a18;}</style><radialGradient id="Orange_Radial" cx="328.61" cy="369.83" r="320.82" gradientUnits="userSpaceOnUse"><stop offset="0" stop-color="#fff"/><stop offset="0.11" stop-color="#fde2cc"/><stop offset="0.23" stop-color="#fbc69b"/><stop offset="0.35" stop-color="#faad70"/><stop offset="0.48" stop-color="#f89a4e"/><stop offset="0.6" stop-color="#f78a33"/><stop offset="0.73" stop-color="#f78020"/><stop offset="0.86" stop-color="#f67915"/><stop offset="1" stop-color="#f67711"/></radialGradient><radialGradient id="Light_Brown_Radial" cx="328.61" cy="369.84" r="320.82" gradientUnits="userSpaceOnUse"><stop offset="0" stop-color="#fff"/><stop offset="0.04" stop-color="#fbf2ed"/><stop offset="0.17" stop-color="#f0cebb"/><stop offset="0.3" stop-color="#e6af91"/><stop offset="0.44" stop-color="#de966f"/><stop offset="0.57" stop-color="#d88354"/><stop offset="0.71" stop-color="#d37541"/><stop offset="0.85" stop-color="#d16d36"/><stop offset="1" stop-color="#d06a32"/></radialGradient><radialGradient id="Light_Brown_Radial-2" cx="328.54" cy="369.84" r="265.47" xlink:href="#Light_Brown_Radial"/></defs><title>ubuntu</title><g id="Layer_2" data-name="Layer 2"><g id="RF"><path class="cls-1" d="M561.12,161.1a31.11,31.11,0,0,1-12.48-7.2l-220-127-297,171.49v343l297,171.47h.12L625.62,541.33v-343Z" transform="translate(-31.59 -26.86)"/></g><g id="Layer_3" data-name="Layer 3" class="cls-2"><path class="cls-3" d="M441.06,619.33a30.56,30.56,0,0,1,9.33-4.52,16.25,16.25,0,0,1,3.43-4.27,1.48,1.48,0,0,0,.37-1.39c-1.87-3-3.85-5.85-5.95-9a27.63,27.63,0,0,0-10.48,13.77,1.53,1.53,0,0,0,.47,1.25A12.55,12.55,0,0,1,441.06,619.33Z" transform="translate(-31.59 -26.86)"/><path class="cls-3" d="M468.69,606.33a29.32,29.32,0,0,1,4-5.53,10.36,10.36,0,0,1-1.53-5.38c-5.24-1.61-15.15-.2-18.9,2.75,2,2.93,3.9,5.9,6,8.8.18.26,1.08.29,1.54.13A18.18,18.18,0,0,1,468.69,606.33Z" transform="translate(-31.59 -26.86)"/><path class="cls-3" d="M432.05,629.39a30,30,0,0,1,6.83-8.36,7.35,7.35,0,0,0-7.23-5.62,7,7,0,1,0,0,14Z" transform="translate(-31.59 -26.86)"/><path class="cls-3" d="M486.79,592a7.49,7.49,0,0,0-5.74-2.62,7,7,0,0,0-7.29,6.68,6.3,6.3,0,0,0,.69,3A31,31,0,0,1,486.79,592Z" transform="translate(-31.59 -26.86)"/><path class="cls-3" d="M405.59,624.52a22,22,0,0,1-3.14,10.38,70.52,70.52,0,0,1-4.4,6,1.44,1.44,0,0,1-2,.48c-6.24-2.4-12.15.59-13.91,6.89a1.94,1.94,0,0,1-1.19,1.2,29.89,29.89,0,0,1-17.68-2.59,6.29,6.29,0,0,1-.58-.35c2-3,3.94-5.94,6-8.76.25-.34,1.37-.35,2-.16,7.37,2.26,15.14.1,19.57-5.8,1.36-1.79,2-4.06,3.05-6.08.24-.46.74-1.12,1.14-1.13C398.08,624.49,401.7,624.52,405.59,624.52Z" transform="translate(-31.59 -26.86)"/><path class="cls-3" d="M358.93,600.17c2.1,3.13,4.08,6,6,9a1.49,1.49,0,0,1-.38,1.39,15.49,15.49,0,0,0-.1,23.41c.33.3.62,1.09.44,1.36-1.92,3-3.94,5.92-6,9a27.39,27.39,0,0,1-10.39-13.71,1.59,1.59,0,0,1,.5-1.24c4.57-4.49,4.56-9.53,0-14.16a1.54,1.54,0,0,1-.48-1.25A27.63,27.63,0,0,1,358.93,600.17Z" transform="translate(-31.59 -26.86)"/><path class="cls-3" d="M363,598.17c3.75-2.95,13.67-4.36,18.91-2.75a9.58,9.58,0,0,0,5.64,8.94,10.38,10.38,0,0,0,9.28,0c.5-.23,1.51-.29,1.78,0a25.28,25.28,0,0,1,7,15.32c0,.1-.07.21-.2.54-3.64,0-7.37,0-11.1,0-.31,0-.82-.61-.9-1-1.79-8.92-12.23-15.7-22.91-12-.46.15-1.35.13-1.54-.13C366.87,604.07,364.92,601.1,363,598.17Z" transform="translate(-31.59 -26.86)"/><path class="cls-3" d="M335,622.39a7.4,7.4,0,1,1,7.35,7A7.17,7.17,0,0,1,335,622.39Z" transform="translate(-31.59 -26.86)"/><path class="cls-3" d="M391.86,656.77a7,7,0,0,1-7.21-7.09c.08-3.89,3.39-6.8,7.61-6.71a7.12,7.12,0,0,1,7.17,7C399.36,653.85,396,656.84,391.86,656.77Z" transform="translate(-31.59 -26.86)"/><path class="cls-3" d="M391.72,603a6.81,6.81,0,1,1,0-13.59c4.05,0,7.36,3.13,7.27,6.87A7.14,7.14,0,0,1,391.72,603Z" transform="translate(-31.59 -26.86)"/><path class="cls-3" d="M316.29,624.52a22.16,22.16,0,0,1-3.15,10.38,68.41,68.41,0,0,1-4.4,6,1.43,1.43,0,0,1-1.95.48c-6.25-2.4-12.16.59-13.92,6.89a1.93,1.93,0,0,1-1.18,1.2A29.93,29.93,0,0,1,274,646.85c-.15-.07-.29-.18-.58-.35,2-3,3.95-5.94,6-8.76.25-.34,1.37-.35,2-.16,7.37,2.26,15.15.1,19.58-5.8,1.35-1.79,2-4.06,3-6.08.24-.46.75-1.12,1.14-1.13C308.77,624.49,312.4,624.52,316.29,624.52Z" transform="translate(-31.59 -26.86)"/><path class="cls-3" d="M269.63,600.17c2.09,3.13,4.07,6,5.95,9a1.46,1.46,0,0,1-.38,1.39,15.5,15.5,0,0,0-.09,23.41c.32.3.62,1.09.44,1.36-1.93,3-3.95,5.92-6,9a27.39,27.39,0,0,1-10.39-13.71,1.57,1.57,0,0,1,.51-1.24c4.56-4.49,4.56-9.53,0-14.16a1.53,1.53,0,0,1-.47-1.25A27.63,27.63,0,0,1,269.63,600.17Z" transform="translate(-31.59 -26.86)"/><path class="cls-3" d="M273.66,598.17c3.74-2.95,13.66-4.36,18.9-2.75a9.57,9.57,0,0,0,5.65,8.94,10.36,10.36,0,0,0,9.27,0c.5-.23,1.52-.29,1.79,0a25.4,25.4,0,0,1,7,15.32,2.63,2.63,0,0,1-.21.54c-3.64,0-7.37,0-11.09,0-.32,0-.82-.61-.9-1-1.8-8.92-12.23-15.7-22.92-12-.45.15-1.35.13-1.54-.13C277.56,604.07,275.61,601.1,273.66,598.17Z" transform="translate(-31.59 -26.86)"/><path class="cls-3" d="M245.64,622.39a7.4,7.4,0,0,1,14.78,0,7.25,7.25,0,0,1-7.43,7A7.17,7.17,0,0,1,245.64,622.39Z" transform="translate(-31.59 -26.86)"/><path class="cls-3" d="M302.55,656.77a7,7,0,0,1-7.21-7.09c.08-3.89,3.39-6.8,7.61-6.71a7.11,7.11,0,0,1,7.17,7C310.06,653.85,306.72,656.84,302.55,656.77Z" transform="translate(-31.59 -26.86)"/><path class="cls-3" d="M302.41,603a6.81,6.81,0,1,1,0-13.59c4.06,0,7.36,3.13,7.27,6.87A7.12,7.12,0,0,1,302.41,603Z" transform="translate(-31.59 -26.86)"/><path class="cls-3" d="M226.24,629.2a22.76,22.76,0,0,0,.74-4.68c-3.89,0-7.51,0-11.14.05-.39,0-.9.67-1.13,1.13-.05.08-.08.17-.12.25A28,28,0,0,1,226.24,629.2Z" transform="translate(-31.59 -26.86)"/><path class="cls-3" d="M220,604.32c-.27-.29-1.29-.23-1.79,0a10.36,10.36,0,0,1-9.27,0,9.58,9.58,0,0,1-5.65-8.94c-4.59-1.41-12.77-.5-17.24,1.73a29.45,29.45,0,0,1,8.78,9.2c9.59-1.63,18.33,4.69,20,12.79.08.39.58,1,.9,1,3.73.07,7.46,0,11.1,0,.12-.33.21-.44.2-.54A25.4,25.4,0,0,0,220,604.32Z" transform="translate(-31.59 -26.86)"/><path class="cls-3" d="M213.1,603c-4,0-7.34-3.17-7.26-6.91a7,7,0,0,1,7.28-6.68c4.06,0,7.37,3.13,7.27,6.87A7.12,7.12,0,0,1,213.1,603Z" transform="translate(-31.59 -26.86)"/><path class="cls-3" d="M576.51,549.85a29,29,0,0,1,4,.28c.19-.29.39-.58.57-.88a22.16,22.16,0,0,0,3.15-10.38c-3.89,0-7.52,0-11.14,0-.39,0-.9.67-1.14,1.13-1,2-1.69,4.29-3,6.08-4.43,5.9-12.21,8.06-19.58,5.8-.6-.19-1.72-.18-2,.16-2.05,2.82-4,5.75-6,8.76.29.17.43.27.58.35A29.69,29.69,0,0,0,551.6,564C556.88,555.59,566.56,549.85,576.51,549.85Z" transform="translate(-31.59 -26.86)"/><path class="cls-3" d="M537.55,514.52c2.09,3.13,4.07,6,6,9a1.46,1.46,0,0,1-.38,1.39A15.5,15.5,0,0,0,543,548.3c.32.3.62,1.09.44,1.36-1.93,3-4,5.92-6,9a27.31,27.31,0,0,1-10.38-13.71,1.52,1.52,0,0,1,.5-1.24c4.56-4.49,4.56-9.53,0-14.16a1.53,1.53,0,0,1-.47-1.25A27.63,27.63,0,0,1,537.55,514.52Z" transform="translate(-31.59 -26.86)"/><path class="cls-3" d="M541.58,512.52c3.74-2.95,13.66-4.36,18.9-2.75a9.57,9.57,0,0,0,5.65,8.94,10.33,10.33,0,0,0,9.27-.05c.5-.22,1.52-.28,1.79,0a25.4,25.4,0,0,1,7,15.32,2.63,2.63,0,0,1-.21.54c-3.64,0-7.37,0-11.09,0-.32,0-.82-.62-.9-1-1.8-8.92-12.23-15.7-22.92-12-.45.15-1.35.13-1.54-.13C545.48,518.42,543.53,515.45,541.58,512.52Z" transform="translate(-31.59 -26.86)"/><path class="cls-3" d="M513.56,536.74a7.4,7.4,0,0,1,14.78,0,7.25,7.25,0,0,1-7.43,7A7.17,7.17,0,0,1,513.56,536.74Z" transform="translate(-31.59 -26.86)"/><path class="cls-3" d="M570.33,517.34a6.81,6.81,0,1,1,0-13.59c4.06,0,7.36,3.12,7.27,6.87A7.12,7.12,0,0,1,570.33,517.34Z" transform="translate(-31.59 -26.86)"/><path class="cls-3" d="M494.9,538.87a22,22,0,0,1-3.15,10.38,70,70,0,0,1-4.4,6,1.42,1.42,0,0,1-2,.47c-6.25-2.39-12.16.6-13.92,6.9a1.9,1.9,0,0,1-1.18,1.2,29.89,29.89,0,0,1-17.68-2.59c-.16-.08-.3-.18-.59-.35,2-3,4-5.94,6-8.76.24-.34,1.36-.35,2-.16,7.37,2.26,15.15.1,19.58-5.8,1.35-1.79,2-4.06,3.05-6.08.23-.46.74-1.12,1.13-1.13C487.39,538.83,491,538.87,494.9,538.87Z" transform="translate(-31.59 -26.86)"/><path class="cls-3" d="M448.24,514.52c2.1,3.13,4.08,6,5.95,9a1.48,1.48,0,0,1-.37,1.39,15.49,15.49,0,0,0-.1,23.41c.33.3.62,1.09.44,1.36-1.92,3-4,5.92-6,9a27.42,27.42,0,0,1-10.38-13.71,1.52,1.52,0,0,1,.5-1.24c4.57-4.49,4.56-9.53,0-14.16a1.53,1.53,0,0,1-.47-1.25A27.63,27.63,0,0,1,448.24,514.52Z" transform="translate(-31.59 -26.86)"/><path class="cls-3" d="M452.27,512.52c3.75-2.95,13.66-4.36,18.9-2.75a9.58,9.58,0,0,0,5.65,8.94,10.33,10.33,0,0,0,9.27-.05c.5-.22,1.52-.28,1.79,0a25.4,25.4,0,0,1,7,15.32c0,.1-.08.21-.2.54-3.64,0-7.37,0-11.1,0-.32,0-.82-.62-.9-1-1.8-8.92-12.23-15.7-22.91-12-.46.15-1.36.13-1.54-.13C456.17,518.42,454.23,515.45,452.27,512.52Z" transform="translate(-31.59 -26.86)"/><path class="cls-3" d="M424.26,536.74a7.17,7.17,0,0,1,7.39-7,7,7,0,1,1,0,14A7.16,7.16,0,0,1,424.26,536.74Z" transform="translate(-31.59 -26.86)"/><path class="cls-3" d="M481.16,571.12A7,7,0,0,1,474,564c.08-3.89,3.38-6.8,7.61-6.71a7.11,7.11,0,0,1,7.16,7C488.67,568.19,485.33,571.19,481.16,571.12Z" transform="translate(-31.59 -26.86)"/><path class="cls-3" d="M481,517.34c-4,0-7.34-3.17-7.26-6.91a7,7,0,0,1,7.29-6.68c4.05,0,7.36,3.12,7.26,6.87A7.12,7.12,0,0,1,481,517.34Z" transform="translate(-31.59 -26.86)"/><path class="cls-3" d="M405.59,538.87a22,22,0,0,1-3.14,10.38,72.16,72.16,0,0,1-4.4,6,1.43,1.43,0,0,1-2,.47c-6.24-2.39-12.15.6-13.91,6.9a1.94,1.94,0,0,1-1.19,1.2,29.89,29.89,0,0,1-17.68-2.59c-.16-.08-.3-.18-.58-.35,2-3,3.94-5.94,6-8.76.25-.34,1.37-.35,2-.16,7.37,2.26,15.14.1,19.57-5.8,1.36-1.79,2-4.06,3.05-6.08.24-.46.74-1.12,1.14-1.13C398.08,538.83,401.7,538.87,405.59,538.87Z" transform="translate(-31.59 -26.86)"/><path class="cls-3" d="M358.93,514.52c2.1,3.13,4.08,6,6,9a1.49,1.49,0,0,1-.38,1.39,15.49,15.49,0,0,0-.1,23.41c.33.3.62,1.09.44,1.36-1.92,3-3.94,5.92-6,9a27.39,27.39,0,0,1-10.39-13.71,1.59,1.59,0,0,1,.5-1.24c4.57-4.49,4.56-9.53,0-14.16a1.54,1.54,0,0,1-.48-1.25A27.63,27.63,0,0,1,358.93,514.52Z" transform="translate(-31.59 -26.86)"/><path class="cls-3" d="M363,512.52c3.75-2.95,13.67-4.36,18.91-2.75a9.58,9.58,0,0,0,5.64,8.94,10.35,10.35,0,0,0,9.28-.05c.5-.22,1.51-.28,1.78,0a25.28,25.28,0,0,1,7,15.32c0,.1-.07.21-.2.54-3.64,0-7.37,0-11.1,0-.31,0-.82-.62-.9-1-1.79-8.92-12.23-15.7-22.91-12-.46.15-1.35.13-1.54-.13C366.87,518.42,364.92,515.45,363,512.52Z" transform="translate(-31.59 -26.86)"/><path class="cls-3" d="M335,536.74a7.4,7.4,0,1,1,7.35,7A7.17,7.17,0,0,1,335,536.74Z" transform="translate(-31.59 -26.86)"/><path class="cls-3" d="M391.86,571.12a7,7,0,0,1-7.21-7.09c.08-3.89,3.39-6.8,7.61-6.71a6.92,6.92,0,1,1-.4,13.8Z" transform="translate(-31.59 -26.86)"/><path class="cls-3" d="M391.72,517.34a7.1,7.1,0,0,1-7.27-6.91,7,7,0,0,1,7.29-6.68c4.05,0,7.36,3.12,7.27,6.87A7.14,7.14,0,0,1,391.72,517.34Z" transform="translate(-31.59 -26.86)"/><path class="cls-3" d="M316.29,538.87a22.16,22.16,0,0,1-3.15,10.38,70,70,0,0,1-4.4,6,1.42,1.42,0,0,1-1.95.47c-6.25-2.39-12.16.6-13.92,6.9a1.93,1.93,0,0,1-1.18,1.2A29.93,29.93,0,0,1,274,561.2c-.15-.08-.29-.18-.58-.35,2-3,3.95-5.94,6-8.76.25-.34,1.37-.35,2-.16,7.37,2.26,15.15.1,19.58-5.8,1.35-1.79,2-4.06,3-6.08.24-.46.75-1.12,1.14-1.13C308.77,538.83,312.4,538.87,316.29,538.87Z" transform="translate(-31.59 -26.86)"/><path class="cls-3" d="M269.63,514.52c2.09,3.13,4.07,6,5.95,9a1.46,1.46,0,0,1-.38,1.39,15.5,15.5,0,0,0-.09,23.41c.32.3.62,1.09.44,1.36-1.93,3-3.95,5.92-6,9a27.39,27.39,0,0,1-10.39-13.71,1.57,1.57,0,0,1,.51-1.24c4.56-4.49,4.56-9.53,0-14.16a1.53,1.53,0,0,1-.47-1.25A27.63,27.63,0,0,1,269.63,514.52Z" transform="translate(-31.59 -26.86)"/><path class="cls-3" d="M273.66,512.52c3.74-2.95,13.66-4.36,18.9-2.75a9.57,9.57,0,0,0,5.65,8.94,10.33,10.33,0,0,0,9.27-.05c.5-.22,1.52-.28,1.79,0a25.4,25.4,0,0,1,7,15.32,2.63,2.63,0,0,1-.21.54c-3.64,0-7.37,0-11.09,0-.32,0-.82-.62-.9-1-1.8-8.92-12.23-15.7-22.92-12-.45.15-1.35.13-1.54-.13C277.56,518.42,275.61,515.45,273.66,512.52Z" transform="translate(-31.59 -26.86)"/><path class="cls-3" d="M245.64,536.74a7.4,7.4,0,0,1,14.78,0,7.25,7.25,0,0,1-7.43,7A7.17,7.17,0,0,1,245.64,536.74Z" transform="translate(-31.59 -26.86)"/><path class="cls-3" d="M302.55,571.12a7,7,0,0,1-7.21-7.09c.08-3.89,3.39-6.8,7.61-6.71a7.11,7.11,0,0,1,7.17,7C310.06,568.19,306.72,571.19,302.55,571.12Z" transform="translate(-31.59 -26.86)"/><path class="cls-3" d="M302.41,517.34a6.81,6.81,0,1,1,0-13.59c4.06,0,7.36,3.12,7.27,6.87A7.12,7.12,0,0,1,302.41,517.34Z" transform="translate(-31.59 -26.86)"/><path class="cls-3" d="M227,538.87a22,22,0,0,1-3.15,10.38,70,70,0,0,1-4.4,6,1.42,1.42,0,0,1-2,.47c-6.25-2.39-12.16.6-13.92,6.9a1.9,1.9,0,0,1-1.18,1.2,29.89,29.89,0,0,1-17.68-2.59c-.16-.08-.3-.18-.59-.35,2-3,3.95-5.94,6-8.76.24-.34,1.36-.35,2-.16,7.37,2.26,15.15.1,19.58-5.8,1.35-1.79,2-4.06,3.05-6.08.23-.46.74-1.12,1.13-1.13C219.47,538.83,223.09,538.87,227,538.87Z" transform="translate(-31.59 -26.86)"/><path class="cls-3" d="M180.32,514.52c2.1,3.13,4.07,6,6,9a1.48,1.48,0,0,1-.37,1.39,15.49,15.49,0,0,0-.1,23.41c.33.3.62,1.09.44,1.36-1.92,3-4,5.92-6,9a27.37,27.37,0,0,1-10.38-13.71,1.52,1.52,0,0,1,.5-1.24c4.57-4.49,4.56-9.53,0-14.16a1.53,1.53,0,0,1-.47-1.25A27.63,27.63,0,0,1,180.32,514.52Z" transform="translate(-31.59 -26.86)"/><path class="cls-3" d="M184.35,512.52c3.75-2.95,13.66-4.36,18.9-2.75a9.58,9.58,0,0,0,5.65,8.94,10.33,10.33,0,0,0,9.27-.05c.5-.22,1.52-.28,1.79,0A25.4,25.4,0,0,1,227,534c0,.1-.08.21-.2.54-3.64,0-7.37,0-11.1,0-.32,0-.82-.62-.9-1-1.8-8.92-12.23-15.7-22.91-12-.46.15-1.36.13-1.54-.13C188.25,518.42,186.31,515.45,184.35,512.52Z" transform="translate(-31.59 -26.86)"/><path class="cls-3" d="M156.34,536.74a7.17,7.17,0,0,1,7.39-7,7,7,0,1,1,0,14A7.16,7.16,0,0,1,156.34,536.74Z" transform="translate(-31.59 -26.86)"/><path class="cls-3" d="M213.24,571.12A7,7,0,0,1,206,564c.09-3.89,3.39-6.8,7.62-6.71a7.11,7.11,0,0,1,7.16,7C220.75,568.19,217.41,571.19,213.24,571.12Z" transform="translate(-31.59 -26.86)"/><path class="cls-3" d="M213.1,517.34c-4,0-7.34-3.17-7.26-6.91a7,7,0,0,1,7.28-6.68c4.06,0,7.37,3.12,7.27,6.87A7.12,7.12,0,0,1,213.1,517.34Z" transform="translate(-31.59 -26.86)"/><path class="cls-3" d="M124.79,554.91a12.5,12.5,0,0,1,3.38.78,1.43,1.43,0,0,0,2-.47,72.16,72.16,0,0,0,4.4-6,22,22,0,0,0,3.14-10.38c-3.89,0-7.51,0-11.13,0-.4,0-.9.67-1.14,1.13-1,2-1.69,4.29-3.05,6.08a16.4,16.4,0,0,1-7.37,5.52A27.72,27.72,0,0,1,124.79,554.91Z" transform="translate(-31.59 -26.86)"/><path class="cls-3" d="M104.11,552.29c-.44-.11-.89-.23-1.33-.36-.6-.19-1.72-.18-2,.16-.44.6-.85,1.22-1.28,1.83A28.68,28.68,0,0,1,104.11,552.29Z" transform="translate(-31.59 -26.86)"/><path class="cls-3" d="M96.59,524.89A1.49,1.49,0,0,0,97,523.5c-1.88-3-3.86-5.85-6-9a27.63,27.63,0,0,0-10.48,13.77,1.54,1.54,0,0,0,.48,1.25c2.93,3,4,6.11,3.15,9.16a30.76,30.76,0,0,1,9.43,16c1.14-1.68,2.26-3.35,3.34-5,.18-.27-.11-1.06-.44-1.36A15.49,15.49,0,0,1,96.59,524.89Z" transform="translate(-31.59 -26.86)"/><path class="cls-3" d="M95,512.52c3.75-2.95,13.67-4.36,18.91-2.75a9.58,9.58,0,0,0,5.64,8.94,10.35,10.35,0,0,0,9.28-.05c.5-.22,1.51-.28,1.78,0a25.28,25.28,0,0,1,7,15.32c0,.1-.07.21-.2.54-3.64,0-7.37,0-11.1,0-.31,0-.82-.62-.9-1-1.79-8.92-12.23-15.7-22.91-12-.46.15-1.35.13-1.54-.13C98.94,518.42,97,515.45,95,512.52Z" transform="translate(-31.59 -26.86)"/><path class="cls-3" d="M81.8,536.82v0a7.23,7.23,0,0,0-7.38-7,7.57,7.57,0,0,0-5.27,2.09A27.77,27.77,0,0,1,81.8,536.82Z" transform="translate(-31.59 -26.86)"/><path class="cls-3" d="M123.8,517.34a7.1,7.1,0,0,1-7.27-6.91,7,7,0,0,1,7.29-6.68c4.05,0,7.36,3.12,7.27,6.87A7.14,7.14,0,0,1,123.8,517.34Z" transform="translate(-31.59 -26.86)"/><path class="cls-3" d="M584.21,453.22a22.2,22.2,0,0,1-3.15,10.38,70,70,0,0,1-4.4,6,1.42,1.42,0,0,1-1.95.47c-6.25-2.39-12.16.6-13.92,6.9a1.93,1.93,0,0,1-1.18,1.2,29.93,29.93,0,0,1-17.69-2.59c-.15-.08-.29-.18-.58-.35,2-3,3.95-5.94,6-8.76.25-.34,1.37-.35,2-.16,7.37,2.26,15.15.1,19.58-5.8,1.35-1.79,2-4.06,3-6.08.24-.46.75-1.12,1.14-1.13C576.69,453.18,580.32,453.22,584.21,453.22Z" transform="translate(-31.59 -26.86)"/><path class="cls-3" d="M537.55,428.87c2.09,3.13,4.07,6,6,9a1.47,1.47,0,0,1-.38,1.4,15.5,15.5,0,0,0-.09,23.41c.32.3.62,1.09.44,1.36-1.93,3-4,5.92-6,9a27.31,27.31,0,0,1-10.38-13.71,1.52,1.52,0,0,1,.5-1.24c4.56-4.49,4.56-9.54,0-14.16a1.53,1.53,0,0,1-.47-1.25A27.63,27.63,0,0,1,537.55,428.87Z" transform="translate(-31.59 -26.86)"/><path class="cls-3" d="M541.58,426.87c3.74-2.95,13.66-4.36,18.9-2.75a9.57,9.57,0,0,0,5.65,8.94,10.36,10.36,0,0,0,9.27-.05c.5-.23,1.52-.28,1.79,0a25.4,25.4,0,0,1,7,15.31,2.42,2.42,0,0,1-.21.55c-3.64,0-7.37,0-11.09-.05-.32,0-.82-.61-.9-1-1.8-8.92-12.23-15.7-22.92-12-.45.15-1.35.13-1.54-.13C545.48,432.76,543.53,429.8,541.58,426.87Z" transform="translate(-31.59 -26.86)"/><path class="cls-3" d="M513.56,451.09a7.4,7.4,0,0,1,14.78,0,7.26,7.26,0,0,1-7.43,7A7.17,7.17,0,0,1,513.56,451.09Z" transform="translate(-31.59 -26.86)"/><path class="cls-3" d="M570.47,485.47a7,7,0,0,1-7.21-7.09c.08-3.89,3.39-6.8,7.61-6.71a7.11,7.11,0,0,1,7.17,7C578,482.54,574.64,485.54,570.47,485.47Z" transform="translate(-31.59 -26.86)"/><path class="cls-3" d="M570.33,431.69a6.81,6.81,0,1,1,0-13.59c4.06,0,7.36,3.12,7.27,6.87A7.12,7.12,0,0,1,570.33,431.69Z" transform="translate(-31.59 -26.86)"/><path class="cls-3" d="M494.9,453.22a22.08,22.08,0,0,1-3.15,10.38,70,70,0,0,1-4.4,6,1.42,1.42,0,0,1-2,.47c-6.25-2.39-12.16.6-13.92,6.9a1.9,1.9,0,0,1-1.18,1.2,29.89,29.89,0,0,1-17.68-2.59c-.16-.08-.3-.18-.59-.35,2-3,4-5.94,6-8.76.24-.34,1.36-.35,2-.16,7.37,2.26,15.15.1,19.58-5.8,1.35-1.79,2-4.06,3.05-6.08.23-.46.74-1.12,1.13-1.13C487.39,453.18,491,453.22,494.9,453.22Z" transform="translate(-31.59 -26.86)"/><path class="cls-3" d="M448.24,428.87c2.1,3.13,4.08,6,5.95,9a1.49,1.49,0,0,1-.37,1.4,15.49,15.49,0,0,0-.1,23.41c.33.3.62,1.09.44,1.36-1.92,3-4,5.92-6,9a27.42,27.42,0,0,1-10.38-13.71,1.52,1.52,0,0,1,.5-1.24c4.57-4.49,4.56-9.54,0-14.16a1.53,1.53,0,0,1-.47-1.25A27.63,27.63,0,0,1,448.24,428.87Z" transform="translate(-31.59 -26.86)"/><path class="cls-3" d="M452.27,426.87c3.75-2.95,13.66-4.36,18.9-2.75a9.58,9.58,0,0,0,5.65,8.94,10.36,10.36,0,0,0,9.27-.05c.5-.23,1.52-.28,1.79,0a25.4,25.4,0,0,1,7,15.31c0,.11-.08.22-.2.55-3.64,0-7.37,0-11.1-.05-.32,0-.82-.61-.9-1-1.8-8.92-12.23-15.7-22.91-12-.46.15-1.36.13-1.54-.13C456.17,432.76,454.23,429.8,452.27,426.87Z" transform="translate(-31.59 -26.86)"/><path class="cls-3" d="M424.26,451.09a7.17,7.17,0,0,1,7.39-7,7,7,0,1,1,0,14A7.16,7.16,0,0,1,424.26,451.09Z" transform="translate(-31.59 -26.86)"/><path class="cls-3" d="M481.16,485.47a7,7,0,0,1-7.2-7.09c.08-3.89,3.38-6.8,7.61-6.71a7.11,7.11,0,0,1,7.16,7C488.67,482.54,485.33,485.54,481.16,485.47Z" transform="translate(-31.59 -26.86)"/><path class="cls-3" d="M481,431.69c-4,0-7.34-3.17-7.26-6.91a7,7,0,0,1,7.29-6.68c4.05,0,7.36,3.12,7.26,6.87A7.12,7.12,0,0,1,481,431.69Z" transform="translate(-31.59 -26.86)"/><path class="cls-3" d="M405.59,453.22a22.07,22.07,0,0,1-3.14,10.38,72.16,72.16,0,0,1-4.4,6,1.43,1.43,0,0,1-2,.47c-6.24-2.39-12.15.6-13.91,6.9a1.94,1.94,0,0,1-1.19,1.2,29.89,29.89,0,0,1-17.68-2.59c-.16-.08-.3-.18-.58-.35,2-3,3.94-5.94,6-8.76.25-.34,1.37-.35,2-.16,7.37,2.26,15.14.1,19.57-5.8,1.36-1.79,2-4.06,3.05-6.08.24-.46.74-1.12,1.14-1.13C398.08,453.18,401.7,453.22,405.59,453.22Z" transform="translate(-31.59 -26.86)"/><path class="cls-3" d="M358.93,428.87c2.1,3.13,4.08,6,6,9a1.5,1.5,0,0,1-.38,1.4,15.49,15.49,0,0,0-.1,23.41c.33.3.62,1.09.44,1.36-1.92,3-3.94,5.92-6,9a27.39,27.39,0,0,1-10.39-13.71,1.59,1.59,0,0,1,.5-1.24c4.57-4.49,4.56-9.54,0-14.16a1.54,1.54,0,0,1-.48-1.25A27.63,27.63,0,0,1,358.93,428.87Z" transform="translate(-31.59 -26.86)"/><path class="cls-3" d="M363,426.87c3.75-2.95,13.67-4.36,18.91-2.75a9.58,9.58,0,0,0,5.64,8.94,10.38,10.38,0,0,0,9.28-.05c.5-.23,1.51-.28,1.78,0a25.28,25.28,0,0,1,7,15.31c0,.11-.07.22-.2.55-3.64,0-7.37,0-11.1-.05-.31,0-.82-.61-.9-1-1.79-8.92-12.23-15.7-22.91-12-.46.15-1.35.13-1.54-.13C366.87,432.76,364.92,429.8,363,426.87Z" transform="translate(-31.59 -26.86)"/><path class="cls-3" d="M335,451.09a7.4,7.4,0,0,1,14.77,0,7.24,7.24,0,0,1-7.42,7A7.17,7.17,0,0,1,335,451.09Z" transform="translate(-31.59 -26.86)"/><path class="cls-3" d="M391.86,485.47a7,7,0,0,1-7.21-7.09c.08-3.89,3.39-6.8,7.61-6.71a6.92,6.92,0,1,1-.4,13.8Z" transform="translate(-31.59 -26.86)"/><path class="cls-3" d="M391.72,431.69a7.1,7.1,0,0,1-7.27-6.91,7,7,0,0,1,7.29-6.68c4.05,0,7.36,3.12,7.27,6.87A7.14,7.14,0,0,1,391.72,431.69Z" transform="translate(-31.59 -26.86)"/><path class="cls-3" d="M316.29,453.22a22.2,22.2,0,0,1-3.15,10.38,70,70,0,0,1-4.4,6,1.42,1.42,0,0,1-1.95.47c-6.25-2.39-12.16.6-13.92,6.9a1.93,1.93,0,0,1-1.18,1.2A29.93,29.93,0,0,1,274,475.55c-.15-.08-.29-.18-.58-.35,2-3,3.95-5.94,6-8.76.25-.34,1.37-.35,2-.16,7.37,2.26,15.15.1,19.58-5.8,1.35-1.79,2-4.06,3-6.08.24-.46.75-1.12,1.14-1.13C308.77,453.18,312.4,453.22,316.29,453.22Z" transform="translate(-31.59 -26.86)"/><path class="cls-3" d="M269.63,428.87c2.09,3.13,4.07,6,5.95,9a1.47,1.47,0,0,1-.38,1.4,15.5,15.5,0,0,0-.09,23.41c.32.3.62,1.09.44,1.36-1.93,3-3.95,5.92-6,9a27.39,27.39,0,0,1-10.39-13.71,1.57,1.57,0,0,1,.51-1.24c4.56-4.49,4.56-9.54,0-14.16a1.53,1.53,0,0,1-.47-1.25A27.63,27.63,0,0,1,269.63,428.87Z" transform="translate(-31.59 -26.86)"/><path class="cls-3" d="M273.66,426.87c3.74-2.95,13.66-4.36,18.9-2.75a9.57,9.57,0,0,0,5.65,8.94,10.36,10.36,0,0,0,9.27-.05c.5-.23,1.52-.28,1.79,0a25.4,25.4,0,0,1,7,15.31,2.42,2.42,0,0,1-.21.55c-3.64,0-7.37,0-11.09-.05-.32,0-.82-.61-.9-1-1.8-8.92-12.23-15.7-22.92-12-.45.15-1.35.13-1.54-.13C277.56,432.76,275.61,429.8,273.66,426.87Z" transform="translate(-31.59 -26.86)"/><path class="cls-3" d="M245.64,451.09a7.4,7.4,0,0,1,14.78,0,7.26,7.26,0,0,1-7.43,7A7.17,7.17,0,0,1,245.64,451.09Z" transform="translate(-31.59 -26.86)"/><path class="cls-3" d="M302.55,485.47a7,7,0,0,1-7.21-7.09c.08-3.89,3.39-6.8,7.61-6.71a7.11,7.11,0,0,1,7.17,7C310.06,482.54,306.72,485.54,302.55,485.47Z" transform="translate(-31.59 -26.86)"/><path class="cls-3" d="M302.41,431.69a6.81,6.81,0,1,1,0-13.59c4.06,0,7.36,3.12,7.27,6.87A7.12,7.12,0,0,1,302.41,431.69Z" transform="translate(-31.59 -26.86)"/><path class="cls-3" d="M227,453.22a22.08,22.08,0,0,1-3.15,10.38,70,70,0,0,1-4.4,6,1.42,1.42,0,0,1-2,.47c-6.25-2.39-12.16.6-13.92,6.9a1.9,1.9,0,0,1-1.18,1.2,29.89,29.89,0,0,1-17.68-2.59c-.16-.08-.3-.18-.59-.35,2-3,3.95-5.94,6-8.76.24-.34,1.36-.35,2-.16,7.37,2.26,15.15.1,19.58-5.8,1.35-1.79,2-4.06,3.05-6.08.23-.46.74-1.12,1.13-1.13C219.47,453.18,223.09,453.22,227,453.22Z" transform="translate(-31.59 -26.86)"/><path class="cls-3" d="M180.32,428.87c2.1,3.13,4.07,6,6,9a1.49,1.49,0,0,1-.37,1.4,15.49,15.49,0,0,0-.1,23.41c.33.3.62,1.09.44,1.36-1.92,3-4,5.92-6,9a27.37,27.37,0,0,1-10.38-13.71,1.52,1.52,0,0,1,.5-1.24c4.57-4.49,4.56-9.54,0-14.16a1.53,1.53,0,0,1-.47-1.25A27.63,27.63,0,0,1,180.32,428.87Z" transform="translate(-31.59 -26.86)"/><path class="cls-3" d="M184.35,426.87c3.75-2.95,13.66-4.36,18.9-2.75a9.58,9.58,0,0,0,5.65,8.94,10.36,10.36,0,0,0,9.27-.05c.5-.23,1.52-.28,1.79,0a25.4,25.4,0,0,1,7,15.31c0,.11-.08.22-.2.55-3.64,0-7.37,0-11.1-.05-.32,0-.82-.61-.9-1-1.8-8.92-12.23-15.7-22.91-12-.46.15-1.36.13-1.54-.13C188.25,432.76,186.31,429.8,184.35,426.87Z" transform="translate(-31.59 -26.86)"/><path class="cls-3" d="M156.34,451.09a7.17,7.17,0,0,1,7.39-7,7,7,0,1,1,0,14A7.16,7.16,0,0,1,156.34,451.09Z" transform="translate(-31.59 -26.86)"/><path class="cls-3" d="M213.24,485.47a7,7,0,0,1-7.21-7.09c.09-3.89,3.39-6.8,7.62-6.71a7.11,7.11,0,0,1,7.16,7C220.75,482.54,217.41,485.54,213.24,485.47Z" transform="translate(-31.59 -26.86)"/><path class="cls-3" d="M213.1,431.69c-4,0-7.34-3.17-7.26-6.91a7,7,0,0,1,7.28-6.68c4.06,0,7.37,3.12,7.27,6.87A7.12,7.12,0,0,1,213.1,431.69Z" transform="translate(-31.59 -26.86)"/><path class="cls-3" d="M137.67,453.22a22.07,22.07,0,0,1-3.14,10.38,72.16,72.16,0,0,1-4.4,6,1.43,1.43,0,0,1-2,.47c-6.24-2.39-12.15.6-13.91,6.9a1.94,1.94,0,0,1-1.19,1.2,29.89,29.89,0,0,1-17.68-2.59c-.16-.08-.3-.18-.58-.35,2-3,3.94-5.94,6-8.76.25-.34,1.37-.35,2-.16,7.37,2.26,15.14.1,19.57-5.8,1.36-1.79,2-4.06,3.05-6.08.24-.46.74-1.12,1.14-1.13C130.16,453.18,133.78,453.22,137.67,453.22Z" transform="translate(-31.59 -26.86)"/><path class="cls-3" d="M91,428.87c2.1,3.13,4.08,6,6,9a1.5,1.5,0,0,1-.38,1.4,15.49,15.49,0,0,0-.1,23.41c.33.3.62,1.09.44,1.36-1.92,3-3.94,5.92-6,9a27.39,27.39,0,0,1-10.39-13.71,1.59,1.59,0,0,1,.5-1.24c4.57-4.49,4.56-9.54,0-14.16a1.54,1.54,0,0,1-.48-1.25A27.63,27.63,0,0,1,91,428.87Z" transform="translate(-31.59 -26.86)"/><path class="cls-3" d="M95,426.87c3.75-2.95,13.67-4.36,18.91-2.75a9.58,9.58,0,0,0,5.64,8.94,10.38,10.38,0,0,0,9.28-.05c.5-.23,1.51-.28,1.78,0a25.28,25.28,0,0,1,7,15.31c0,.11-.07.22-.2.55-3.64,0-7.37,0-11.1-.05-.31,0-.82-.61-.9-1-1.79-8.92-12.23-15.7-22.91-12-.46.15-1.35.13-1.54-.13C98.94,432.76,97,429.8,95,426.87Z" transform="translate(-31.59 -26.86)"/><path class="cls-3" d="M67,451.09a7.4,7.4,0,0,1,14.77,0,7.24,7.24,0,0,1-7.42,7A7.16,7.16,0,0,1,67,451.09Z" transform="translate(-31.59 -26.86)"/><path class="cls-3" d="M123.94,485.47a7,7,0,0,1-7.21-7.09c.08-3.89,3.39-6.8,7.61-6.71a6.92,6.92,0,1,1-.4,13.8Z" transform="translate(-31.59 -26.86)"/><path class="cls-3" d="M123.8,431.69a7.1,7.1,0,0,1-7.27-6.91,7,7,0,0,1,7.29-6.68c4.05,0,7.36,3.12,7.27,6.87A7.14,7.14,0,0,1,123.8,431.69Z" transform="translate(-31.59 -26.86)"/><path class="cls-3" d="M584.21,367.57A22.2,22.2,0,0,1,581.06,378a70,70,0,0,1-4.4,6,1.42,1.42,0,0,1-1.95.47c-6.25-2.39-12.16.6-13.92,6.9a1.93,1.93,0,0,1-1.18,1.2,30,30,0,0,1-17.69-2.59c-.15-.08-.29-.18-.58-.35,2-3,3.95-5.94,6-8.77.25-.33,1.37-.34,2-.15,7.37,2.26,15.15.09,19.58-5.8,1.35-1.8,2-4.06,3-6.08.24-.46.75-1.12,1.14-1.13C576.69,367.53,580.32,367.57,584.21,367.57Z" transform="translate(-31.59 -26.86)"/><path class="cls-3" d="M537.55,343.22c2.09,3.13,4.07,6,6,9a1.48,1.48,0,0,1-.38,1.4A15.5,15.5,0,0,0,543,377c.32.3.62,1.09.44,1.36-1.93,3-4,5.91-6,9a27.35,27.35,0,0,1-10.38-13.71,1.52,1.52,0,0,1,.5-1.24c4.56-4.49,4.56-9.54,0-14.16a1.53,1.53,0,0,1-.47-1.25A27.58,27.58,0,0,1,537.55,343.22Z" transform="translate(-31.59 -26.86)"/><path class="cls-3" d="M541.58,341.22c3.74-3,13.66-4.36,18.9-2.75a9.57,9.57,0,0,0,5.65,8.94,10.36,10.36,0,0,0,9.27-.05c.5-.23,1.52-.28,1.79,0a25.4,25.4,0,0,1,7,15.31,2.42,2.42,0,0,1-.21.55c-3.64,0-7.37,0-11.09-.05-.32,0-.82-.61-.9-1-1.8-8.93-12.23-15.7-22.92-12-.45.15-1.35.13-1.54-.13C545.48,347.11,543.53,344.15,541.58,341.22Z" transform="translate(-31.59 -26.86)"/><path class="cls-3" d="M513.56,365.44a7.4,7.4,0,0,1,14.78,0,7.26,7.26,0,0,1-7.43,7A7.17,7.17,0,0,1,513.56,365.44Z" transform="translate(-31.59 -26.86)"/><path class="cls-3" d="M570.47,399.82a7,7,0,0,1-7.21-7.09c.08-3.89,3.39-6.8,7.61-6.71a7.11,7.11,0,0,1,7.17,7C578,396.89,574.64,399.88,570.47,399.82Z" transform="translate(-31.59 -26.86)"/><path class="cls-3" d="M570.33,346a6.81,6.81,0,1,1,0-13.59c4.06,0,7.36,3.12,7.27,6.87A7.13,7.13,0,0,1,570.33,346Z" transform="translate(-31.59 -26.86)"/><path class="cls-3" d="M494.9,367.57A22.08,22.08,0,0,1,491.75,378a70,70,0,0,1-4.4,6,1.42,1.42,0,0,1-2,.47c-6.25-2.39-12.16.6-13.92,6.9a1.9,1.9,0,0,1-1.18,1.2,30,30,0,0,1-17.68-2.59c-.16-.08-.3-.18-.59-.35,2-3,4-5.94,6-8.77.24-.33,1.36-.34,2-.15,7.37,2.26,15.15.09,19.58-5.8,1.35-1.8,2-4.06,3.05-6.08.23-.46.74-1.12,1.13-1.13C487.39,367.53,491,367.57,494.9,367.57Z" transform="translate(-31.59 -26.86)"/><path class="cls-3" d="M448.24,343.22c2.1,3.13,4.08,6,5.95,9a1.5,1.5,0,0,1-.37,1.4,15.49,15.49,0,0,0-.1,23.41c.33.3.62,1.09.44,1.36-1.92,3-4,5.91-6,9a27.47,27.47,0,0,1-10.38-13.71,1.52,1.52,0,0,1,.5-1.24c4.57-4.49,4.56-9.54,0-14.16a1.53,1.53,0,0,1-.47-1.25A27.58,27.58,0,0,1,448.24,343.22Z" transform="translate(-31.59 -26.86)"/><path class="cls-3" d="M452.27,341.22c3.75-3,13.66-4.36,18.9-2.75a9.58,9.58,0,0,0,5.65,8.94,10.36,10.36,0,0,0,9.27-.05c.5-.23,1.52-.28,1.79,0a25.4,25.4,0,0,1,7,15.31c0,.11-.08.22-.2.55-3.64,0-7.37,0-11.1-.05-.32,0-.82-.61-.9-1-1.8-8.93-12.23-15.7-22.91-12-.46.15-1.36.13-1.54-.13C456.17,347.11,454.23,344.15,452.27,341.22Z" transform="translate(-31.59 -26.86)"/><path class="cls-3" d="M424.26,365.44a7.17,7.17,0,0,1,7.39-7,7,7,0,1,1,0,14A7.16,7.16,0,0,1,424.26,365.44Z" transform="translate(-31.59 -26.86)"/><path class="cls-3" d="M481.16,399.82a7,7,0,0,1-7.2-7.09c.08-3.89,3.38-6.8,7.61-6.71a7.11,7.11,0,0,1,7.16,7C488.67,396.89,485.33,399.88,481.16,399.82Z" transform="translate(-31.59 -26.86)"/><path class="cls-3" d="M481,346c-4,0-7.34-3.17-7.26-6.91a7,7,0,0,1,7.29-6.68c4.05,0,7.36,3.12,7.26,6.87A7.13,7.13,0,0,1,481,346Z" transform="translate(-31.59 -26.86)"/><path class="cls-3" d="M405.59,367.57A22.07,22.07,0,0,1,402.45,378a72.16,72.16,0,0,1-4.4,6,1.43,1.43,0,0,1-2,.47c-6.24-2.39-12.15.6-13.91,6.9a1.94,1.94,0,0,1-1.19,1.2,30,30,0,0,1-17.68-2.59c-.16-.08-.3-.18-.58-.35,2-3,3.94-5.94,6-8.77.25-.33,1.37-.34,2-.15,7.37,2.26,15.14.09,19.57-5.8,1.36-1.8,2-4.06,3.05-6.08.24-.46.74-1.12,1.14-1.13C398.08,367.53,401.7,367.57,405.59,367.57Z" transform="translate(-31.59 -26.86)"/><path class="cls-3" d="M358.93,343.22c2.1,3.13,4.08,6,6,9a1.51,1.51,0,0,1-.38,1.4,15.49,15.49,0,0,0-.1,23.41c.33.3.62,1.09.44,1.36-1.92,3-3.94,5.91-6,9a27.43,27.43,0,0,1-10.39-13.71,1.59,1.59,0,0,1,.5-1.24c4.57-4.49,4.56-9.54,0-14.16a1.54,1.54,0,0,1-.48-1.25A27.58,27.58,0,0,1,358.93,343.22Z" transform="translate(-31.59 -26.86)"/><path class="cls-3" d="M363,341.22c3.75-3,13.67-4.36,18.91-2.75a9.58,9.58,0,0,0,5.64,8.94,10.38,10.38,0,0,0,9.28-.05c.5-.23,1.51-.28,1.78,0a25.28,25.28,0,0,1,7,15.31c0,.11-.07.22-.2.55-3.64,0-7.37,0-11.1-.05-.31,0-.82-.61-.9-1-1.79-8.93-12.23-15.7-22.91-12-.46.15-1.35.13-1.54-.13C366.87,347.11,364.92,344.15,363,341.22Z" transform="translate(-31.59 -26.86)"/><path class="cls-3" d="M335,365.44a7.4,7.4,0,0,1,14.77,0,7.24,7.24,0,0,1-7.42,7A7.17,7.17,0,0,1,335,365.44Z" transform="translate(-31.59 -26.86)"/><path class="cls-3" d="M391.86,399.82a7,7,0,0,1-7.21-7.09c.08-3.89,3.39-6.8,7.61-6.71a7.12,7.12,0,0,1,7.17,7C399.36,396.89,396,399.88,391.86,399.82Z" transform="translate(-31.59 -26.86)"/><path class="cls-3" d="M391.72,346a7.1,7.1,0,0,1-7.27-6.91,7,7,0,0,1,7.29-6.68c4.05,0,7.36,3.12,7.27,6.87A7.14,7.14,0,0,1,391.72,346Z" transform="translate(-31.59 -26.86)"/><path class="cls-3" d="M316.29,367.57A22.2,22.2,0,0,1,313.14,378a70,70,0,0,1-4.4,6,1.42,1.42,0,0,1-1.95.47c-6.25-2.39-12.16.6-13.92,6.9a1.93,1.93,0,0,1-1.18,1.2A30,30,0,0,1,274,389.9c-.15-.08-.29-.18-.58-.35,2-3,3.95-5.94,6-8.77.25-.33,1.37-.34,2-.15,7.37,2.26,15.15.09,19.58-5.8,1.35-1.8,2-4.06,3-6.08.24-.46.75-1.12,1.14-1.13C308.77,367.53,312.4,367.57,316.29,367.57Z" transform="translate(-31.59 -26.86)"/><path class="cls-3" d="M269.63,343.22c2.09,3.13,4.07,6,5.95,9a1.48,1.48,0,0,1-.38,1.4,15.5,15.5,0,0,0-.09,23.41c.32.3.62,1.09.44,1.36-1.93,3-3.95,5.91-6,9a27.43,27.43,0,0,1-10.39-13.71,1.57,1.57,0,0,1,.51-1.24c4.56-4.49,4.56-9.54,0-14.16a1.53,1.53,0,0,1-.47-1.25A27.58,27.58,0,0,1,269.63,343.22Z" transform="translate(-31.59 -26.86)"/><path class="cls-3" d="M273.66,341.22c3.74-3,13.66-4.36,18.9-2.75a9.57,9.57,0,0,0,5.65,8.94,10.36,10.36,0,0,0,9.27-.05c.5-.23,1.52-.28,1.79,0a25.4,25.4,0,0,1,7,15.31,2.42,2.42,0,0,1-.21.55c-3.64,0-7.37,0-11.09-.05-.32,0-.82-.61-.9-1-1.8-8.93-12.23-15.7-22.92-12-.45.15-1.35.13-1.54-.13C277.56,347.11,275.61,344.15,273.66,341.22Z" transform="translate(-31.59 -26.86)"/><path class="cls-3" d="M245.64,365.44a7.4,7.4,0,0,1,14.78,0,7.26,7.26,0,0,1-7.43,7A7.17,7.17,0,0,1,245.64,365.44Z" transform="translate(-31.59 -26.86)"/><path class="cls-3" d="M302.55,399.82a7,7,0,0,1-7.21-7.09c.08-3.89,3.39-6.8,7.61-6.71a7.11,7.11,0,0,1,7.17,7C310.06,396.89,306.72,399.88,302.55,399.82Z" transform="translate(-31.59 -26.86)"/><path class="cls-3" d="M302.41,346a6.81,6.81,0,1,1,0-13.59c4.06,0,7.36,3.12,7.27,6.87A7.13,7.13,0,0,1,302.41,346Z" transform="translate(-31.59 -26.86)"/><path class="cls-3" d="M227,367.57A22.08,22.08,0,0,1,223.83,378a70,70,0,0,1-4.4,6,1.42,1.42,0,0,1-2,.47c-6.25-2.39-12.16.6-13.92,6.9a1.9,1.9,0,0,1-1.18,1.2,30,30,0,0,1-17.68-2.59c-.16-.08-.3-.18-.59-.35,2-3,3.95-5.94,6-8.77.24-.33,1.36-.34,2-.15,7.37,2.26,15.15.09,19.58-5.8,1.35-1.8,2-4.06,3.05-6.08.23-.46.74-1.12,1.13-1.13C219.47,367.53,223.09,367.57,227,367.57Z" transform="translate(-31.59 -26.86)"/><path class="cls-3" d="M180.32,343.22c2.1,3.13,4.07,6,6,9a1.5,1.5,0,0,1-.37,1.4,15.49,15.49,0,0,0-.1,23.41c.33.3.62,1.09.44,1.36-1.92,3-4,5.91-6,9a27.41,27.41,0,0,1-10.38-13.71,1.52,1.52,0,0,1,.5-1.24c4.57-4.49,4.56-9.54,0-14.16a1.53,1.53,0,0,1-.47-1.25A27.58,27.58,0,0,1,180.32,343.22Z" transform="translate(-31.59 -26.86)"/><path class="cls-3" d="M184.35,341.22c3.75-3,13.66-4.36,18.9-2.75a9.58,9.58,0,0,0,5.65,8.94,10.36,10.36,0,0,0,9.27-.05c.5-.23,1.52-.28,1.79,0a25.4,25.4,0,0,1,7,15.31c0,.11-.08.22-.2.55-3.64,0-7.37,0-11.1-.05-.32,0-.82-.61-.9-1-1.8-8.93-12.23-15.7-22.91-12-.46.15-1.36.13-1.54-.13C188.25,347.11,186.31,344.15,184.35,341.22Z" transform="translate(-31.59 -26.86)"/><path class="cls-3" d="M156.34,365.44a7.17,7.17,0,0,1,7.39-7,7,7,0,1,1,0,14A7.16,7.16,0,0,1,156.34,365.44Z" transform="translate(-31.59 -26.86)"/><path class="cls-3" d="M213.24,399.82a7,7,0,0,1-7.21-7.09c.09-3.89,3.39-6.8,7.62-6.71a7.11,7.11,0,0,1,7.16,7C220.75,396.89,217.41,399.88,213.24,399.82Z" transform="translate(-31.59 -26.86)"/><path class="cls-3" d="M213.1,346c-4,0-7.34-3.17-7.26-6.91a7,7,0,0,1,7.28-6.68c4.06,0,7.37,3.12,7.27,6.87A7.13,7.13,0,0,1,213.1,346Z" transform="translate(-31.59 -26.86)"/><path class="cls-3" d="M137.67,367.57A22.07,22.07,0,0,1,134.53,378a72.16,72.16,0,0,1-4.4,6,1.43,1.43,0,0,1-2,.47c-6.24-2.39-12.15.6-13.91,6.9a1.94,1.94,0,0,1-1.19,1.2,30,30,0,0,1-17.68-2.59c-.16-.08-.3-.18-.58-.35,2-3,3.94-5.94,6-8.77.25-.33,1.37-.34,2-.15,7.37,2.26,15.14.09,19.57-5.8,1.36-1.8,2-4.06,3.05-6.08.24-.46.74-1.12,1.14-1.13C130.16,367.53,133.78,367.57,137.67,367.57Z" transform="translate(-31.59 -26.86)"/><path class="cls-3" d="M91,343.22c2.1,3.13,4.08,6,6,9a1.51,1.51,0,0,1-.38,1.4,15.49,15.49,0,0,0-.1,23.41c.33.3.62,1.09.44,1.36-1.92,3-3.94,5.91-6,9a27.43,27.43,0,0,1-10.39-13.71,1.59,1.59,0,0,1,.5-1.24c4.57-4.49,4.56-9.54,0-14.16a1.54,1.54,0,0,1-.48-1.25A27.58,27.58,0,0,1,91,343.22Z" transform="translate(-31.59 -26.86)"/><path class="cls-3" d="M95,341.22c3.75-3,13.67-4.36,18.91-2.75a9.58,9.58,0,0,0,5.64,8.94,10.38,10.38,0,0,0,9.28-.05c.5-.23,1.51-.28,1.78,0a25.28,25.28,0,0,1,7,15.31c0,.11-.07.22-.2.55-3.64,0-7.37,0-11.1-.05-.31,0-.82-.61-.9-1-1.79-8.93-12.23-15.7-22.91-12-.46.15-1.35.13-1.54-.13C98.94,347.11,97,344.15,95,341.22Z" transform="translate(-31.59 -26.86)"/><path class="cls-3" d="M67,365.44a7.4,7.4,0,0,1,14.77,0,7.24,7.24,0,0,1-7.42,7A7.16,7.16,0,0,1,67,365.44Z" transform="translate(-31.59 -26.86)"/><path class="cls-3" d="M123.94,399.82a7,7,0,0,1-7.21-7.09c.08-3.89,3.39-6.8,7.61-6.71a7.12,7.12,0,0,1,7.17,7C131.44,396.89,128.11,399.88,123.94,399.82Z" transform="translate(-31.59 -26.86)"/><path class="cls-3" d="M123.8,346a7.1,7.1,0,0,1-7.27-6.91,7,7,0,0,1,7.29-6.68c4.05,0,7.36,3.12,7.27,6.87A7.14,7.14,0,0,1,123.8,346Z" transform="translate(-31.59 -26.86)"/><path class="cls-3" d="M584.21,281.92a22.2,22.2,0,0,1-3.15,10.38,71.57,71.57,0,0,1-4.4,6,1.42,1.42,0,0,1-1.95.47c-6.25-2.39-12.16.6-13.92,6.9a1.89,1.89,0,0,1-1.18,1.19,29.92,29.92,0,0,1-17.69-2.58c-.15-.08-.29-.18-.58-.35,2-3,3.95-5.94,6-8.77.25-.33,1.37-.34,2-.15,7.37,2.26,15.15.09,19.58-5.8,1.35-1.8,2-4.06,3-6.08.24-.46.75-1.12,1.14-1.13C576.69,281.88,580.32,281.92,584.21,281.92Z" transform="translate(-31.59 -26.86)"/><path class="cls-3" d="M537.55,257.57c2.09,3.13,4.07,6,6,9a1.48,1.48,0,0,1-.38,1.4,15.5,15.5,0,0,0-.09,23.41c.32.3.62,1.09.44,1.36-1.93,3-4,5.91-6,9A27.35,27.35,0,0,1,527.06,288a1.52,1.52,0,0,1,.5-1.24c4.56-4.49,4.56-9.54,0-14.16a1.53,1.53,0,0,1-.47-1.25A27.58,27.58,0,0,1,537.55,257.57Z" transform="translate(-31.59 -26.86)"/><path class="cls-3" d="M541.58,255.57c3.74-2.95,13.66-4.36,18.9-2.75a9.57,9.57,0,0,0,5.65,8.94,10.36,10.36,0,0,0,9.27-.05c.5-.23,1.52-.28,1.79,0a25.4,25.4,0,0,1,7,15.31,2.62,2.62,0,0,1-.21.55c-3.64,0-7.37,0-11.09-.05-.32,0-.82-.61-.9-1-1.8-8.92-12.23-15.69-22.92-12-.45.15-1.35.13-1.54-.13C545.48,261.46,543.53,258.5,541.58,255.57Z" transform="translate(-31.59 -26.86)"/><path class="cls-3" d="M513.56,279.79a7.4,7.4,0,0,1,14.78,0,7.26,7.26,0,0,1-7.43,7A7.17,7.17,0,0,1,513.56,279.79Z" transform="translate(-31.59 -26.86)"/><path class="cls-3" d="M570.47,314.17a7,7,0,0,1-7.21-7.09c.08-3.89,3.39-6.81,7.61-6.71a7.11,7.11,0,0,1,7.17,7C578,311.24,574.64,314.23,570.47,314.17Z" transform="translate(-31.59 -26.86)"/><path class="cls-3" d="M570.33,260.39a6.82,6.82,0,1,1,0-13.6c4.06,0,7.36,3.13,7.27,6.88A7.13,7.13,0,0,1,570.33,260.39Z" transform="translate(-31.59 -26.86)"/><path class="cls-3" d="M494.9,281.92a22.08,22.08,0,0,1-3.15,10.38,71.57,71.57,0,0,1-4.4,6,1.42,1.42,0,0,1-2,.47c-6.25-2.39-12.16.6-13.92,6.9a1.86,1.86,0,0,1-1.18,1.19,29.88,29.88,0,0,1-17.68-2.58c-.16-.08-.3-.18-.59-.35,2-3,4-5.94,6-8.77.24-.33,1.36-.34,2-.15,7.37,2.26,15.15.09,19.58-5.8,1.35-1.8,2-4.06,3.05-6.08.23-.46.74-1.12,1.13-1.13C487.39,281.88,491,281.92,494.9,281.92Z" transform="translate(-31.59 -26.86)"/><path class="cls-3" d="M448.24,257.57c2.1,3.13,4.08,6,5.95,9a1.5,1.5,0,0,1-.37,1.4,15.49,15.49,0,0,0-.1,23.41c.33.3.62,1.09.44,1.36-1.92,3-4,5.91-6,9A27.47,27.47,0,0,1,437.75,288a1.52,1.52,0,0,1,.5-1.24c4.57-4.49,4.56-9.54,0-14.16a1.53,1.53,0,0,1-.47-1.25A27.58,27.58,0,0,1,448.24,257.57Z" transform="translate(-31.59 -26.86)"/><path class="cls-3" d="M452.27,255.57c3.75-2.95,13.66-4.36,18.9-2.75a9.58,9.58,0,0,0,5.65,8.94,10.36,10.36,0,0,0,9.27-.05c.5-.23,1.52-.28,1.79,0a25.4,25.4,0,0,1,7,15.31c0,.11-.08.21-.2.55-3.64,0-7.37,0-11.1-.05-.32,0-.82-.61-.9-1-1.8-8.92-12.23-15.69-22.91-12-.46.15-1.36.13-1.54-.13C456.17,261.46,454.23,258.5,452.27,255.57Z" transform="translate(-31.59 -26.86)"/><path class="cls-3" d="M424.26,279.79a7.17,7.17,0,0,1,7.39-7,7,7,0,1,1,0,14A7.16,7.16,0,0,1,424.26,279.79Z" transform="translate(-31.59 -26.86)"/><path class="cls-3" d="M481.16,314.17a7,7,0,0,1-7.2-7.09c.08-3.89,3.38-6.81,7.61-6.71a7.11,7.11,0,0,1,7.16,7C488.67,311.24,485.33,314.23,481.16,314.17Z" transform="translate(-31.59 -26.86)"/><path class="cls-3" d="M481,260.39c-4,0-7.34-3.17-7.26-6.92a7,7,0,0,1,7.29-6.68c4.05,0,7.36,3.13,7.26,6.88A7.13,7.13,0,0,1,481,260.39Z" transform="translate(-31.59 -26.86)"/><path class="cls-3" d="M405.59,281.92a22.07,22.07,0,0,1-3.14,10.38,73.88,73.88,0,0,1-4.4,6,1.43,1.43,0,0,1-2,.47c-6.24-2.39-12.15.6-13.91,6.9a1.9,1.9,0,0,1-1.19,1.19,29.88,29.88,0,0,1-17.68-2.58c-.16-.08-.3-.18-.58-.35,2-3,3.94-5.94,6-8.77.25-.33,1.37-.34,2-.15,7.37,2.26,15.14.09,19.57-5.8,1.36-1.8,2-4.06,3.05-6.08.24-.46.74-1.12,1.14-1.13C398.08,281.88,401.7,281.92,405.59,281.92Z" transform="translate(-31.59 -26.86)"/><path class="cls-3" d="M358.93,257.57c2.1,3.13,4.08,6,6,9a1.51,1.51,0,0,1-.38,1.4,15.49,15.49,0,0,0-.1,23.41c.33.3.62,1.09.44,1.36-1.92,3-3.94,5.91-6,9A27.43,27.43,0,0,1,348.44,288a1.59,1.59,0,0,1,.5-1.24c4.57-4.49,4.56-9.54,0-14.16a1.54,1.54,0,0,1-.48-1.25A27.58,27.58,0,0,1,358.93,257.57Z" transform="translate(-31.59 -26.86)"/><path class="cls-3" d="M363,255.57c3.75-2.95,13.67-4.36,18.91-2.75a9.58,9.58,0,0,0,5.64,8.94,10.38,10.38,0,0,0,9.28-.05c.5-.23,1.51-.28,1.78,0a25.28,25.28,0,0,1,7,15.31c0,.11-.07.21-.2.55-3.64,0-7.37,0-11.1-.05-.31,0-.82-.61-.9-1-1.79-8.92-12.23-15.69-22.91-12-.46.15-1.35.13-1.54-.13C366.87,261.46,364.92,258.5,363,255.57Z" transform="translate(-31.59 -26.86)"/><path class="cls-3" d="M335,279.79a7.4,7.4,0,0,1,14.77,0,7.24,7.24,0,0,1-7.42,7A7.17,7.17,0,0,1,335,279.79Z" transform="translate(-31.59 -26.86)"/><path class="cls-3" d="M391.86,314.17a7,7,0,0,1-7.21-7.09c.08-3.89,3.39-6.81,7.61-6.71a7.12,7.12,0,0,1,7.17,7C399.36,311.24,396,314.23,391.86,314.17Z" transform="translate(-31.59 -26.86)"/><path class="cls-3" d="M391.72,260.39a6.82,6.82,0,1,1,0-13.6c4.05,0,7.36,3.13,7.27,6.88A7.14,7.14,0,0,1,391.72,260.39Z" transform="translate(-31.59 -26.86)"/><path class="cls-3" d="M316.29,281.92a22.2,22.2,0,0,1-3.15,10.38,71.57,71.57,0,0,1-4.4,6,1.42,1.42,0,0,1-1.95.47c-6.25-2.39-12.16.6-13.92,6.9a1.89,1.89,0,0,1-1.18,1.19A29.92,29.92,0,0,1,274,304.25c-.15-.08-.29-.18-.58-.35,2-3,3.95-5.94,6-8.77.25-.33,1.37-.34,2-.15,7.37,2.26,15.15.09,19.58-5.8,1.35-1.8,2-4.06,3-6.08.24-.46.75-1.12,1.14-1.13C308.77,281.88,312.4,281.92,316.29,281.92Z" transform="translate(-31.59 -26.86)"/><path class="cls-3" d="M269.63,257.57c2.09,3.13,4.07,6,5.95,9a1.48,1.48,0,0,1-.38,1.4,15.5,15.5,0,0,0-.09,23.41c.32.3.62,1.09.44,1.36-1.93,3-3.95,5.91-6,9A27.43,27.43,0,0,1,259.13,288a1.57,1.57,0,0,1,.51-1.24c4.56-4.49,4.56-9.54,0-14.16a1.53,1.53,0,0,1-.47-1.25A27.58,27.58,0,0,1,269.63,257.57Z" transform="translate(-31.59 -26.86)"/><path class="cls-3" d="M273.66,255.57c3.74-2.95,13.66-4.36,18.9-2.75a9.57,9.57,0,0,0,5.65,8.94,10.36,10.36,0,0,0,9.27-.05c.5-.23,1.52-.28,1.79,0a25.4,25.4,0,0,1,7,15.31,2.62,2.62,0,0,1-.21.55c-3.64,0-7.37,0-11.09-.05-.32,0-.82-.61-.9-1-1.8-8.92-12.23-15.69-22.92-12-.45.15-1.35.13-1.54-.13C277.56,261.46,275.61,258.5,273.66,255.57Z" transform="translate(-31.59 -26.86)"/><path class="cls-3" d="M245.64,279.79a7.4,7.4,0,0,1,14.78,0,7.26,7.26,0,0,1-7.43,7A7.17,7.17,0,0,1,245.64,279.79Z" transform="translate(-31.59 -26.86)"/><path class="cls-3" d="M302.55,314.17a7,7,0,0,1-7.21-7.09c.08-3.89,3.39-6.81,7.61-6.71a7.11,7.11,0,0,1,7.17,7C310.06,311.24,306.72,314.23,302.55,314.17Z" transform="translate(-31.59 -26.86)"/><path class="cls-3" d="M302.41,260.39a6.82,6.82,0,1,1,0-13.6c4.06,0,7.36,3.13,7.27,6.88A7.13,7.13,0,0,1,302.41,260.39Z" transform="translate(-31.59 -26.86)"/><path class="cls-3" d="M227,281.92a22.08,22.08,0,0,1-3.15,10.38,71.57,71.57,0,0,1-4.4,6,1.42,1.42,0,0,1-2,.47c-6.25-2.39-12.16.6-13.92,6.9a1.86,1.86,0,0,1-1.18,1.19,29.88,29.88,0,0,1-17.68-2.58c-.16-.08-.3-.18-.59-.35,2-3,3.95-5.94,6-8.77.24-.33,1.36-.34,2-.15,7.37,2.26,15.15.09,19.58-5.8,1.35-1.8,2-4.06,3.05-6.08.23-.46.74-1.12,1.13-1.13C219.47,281.88,223.09,281.92,227,281.92Z" transform="translate(-31.59 -26.86)"/><path class="cls-3" d="M180.32,257.57c2.1,3.13,4.07,6,6,9a1.5,1.5,0,0,1-.37,1.4,15.49,15.49,0,0,0-.1,23.41c.33.3.62,1.09.44,1.36-1.92,3-4,5.91-6,9A27.41,27.41,0,0,1,169.83,288a1.52,1.52,0,0,1,.5-1.24c4.57-4.49,4.56-9.54,0-14.16a1.53,1.53,0,0,1-.47-1.25A27.58,27.58,0,0,1,180.32,257.57Z" transform="translate(-31.59 -26.86)"/><path class="cls-3" d="M184.35,255.57c3.75-2.95,13.66-4.36,18.9-2.75a9.58,9.58,0,0,0,5.65,8.94,10.36,10.36,0,0,0,9.27-.05c.5-.23,1.52-.28,1.79,0A25.4,25.4,0,0,1,227,277c0,.11-.08.21-.2.55-3.64,0-7.37,0-11.1-.05-.32,0-.82-.61-.9-1-1.8-8.92-12.23-15.69-22.91-12-.46.15-1.36.13-1.54-.13C188.25,261.46,186.31,258.5,184.35,255.57Z" transform="translate(-31.59 -26.86)"/><path class="cls-3" d="M156.34,279.79a7.17,7.17,0,0,1,7.39-7,7,7,0,1,1,0,14A7.16,7.16,0,0,1,156.34,279.79Z" transform="translate(-31.59 -26.86)"/><path class="cls-3" d="M213.24,314.17a7,7,0,0,1-7.21-7.09c.09-3.89,3.39-6.81,7.62-6.71a7.11,7.11,0,0,1,7.16,7C220.75,311.24,217.41,314.23,213.24,314.17Z" transform="translate(-31.59 -26.86)"/><path class="cls-3" d="M213.1,260.39c-4,0-7.34-3.17-7.26-6.92a7,7,0,0,1,7.28-6.68c4.06,0,7.37,3.13,7.27,6.88A7.13,7.13,0,0,1,213.1,260.39Z" transform="translate(-31.59 -26.86)"/><path class="cls-3" d="M137.67,281.92a22.07,22.07,0,0,1-3.14,10.38,73.88,73.88,0,0,1-4.4,6,1.43,1.43,0,0,1-2,.47c-6.24-2.39-12.15.6-13.91,6.9a1.9,1.9,0,0,1-1.19,1.19,29.88,29.88,0,0,1-17.68-2.58c-.16-.08-.3-.18-.58-.35,2-3,3.94-5.94,6-8.77.25-.33,1.37-.34,2-.15,7.37,2.26,15.14.09,19.57-5.8,1.36-1.8,2-4.06,3.05-6.08.24-.46.74-1.12,1.14-1.13C130.16,281.88,133.78,281.92,137.67,281.92Z" transform="translate(-31.59 -26.86)"/><path class="cls-3" d="M91,257.57c2.1,3.13,4.08,6,6,9a1.51,1.51,0,0,1-.38,1.4,15.49,15.49,0,0,0-.1,23.41c.33.3.62,1.09.44,1.36-1.92,3-3.94,5.91-6,9A27.43,27.43,0,0,1,80.52,288a1.59,1.59,0,0,1,.5-1.24c4.57-4.49,4.56-9.54,0-14.16a1.54,1.54,0,0,1-.48-1.25A27.58,27.58,0,0,1,91,257.57Z" transform="translate(-31.59 -26.86)"/><path class="cls-3" d="M95,255.57c3.75-2.95,13.67-4.36,18.91-2.75a9.58,9.58,0,0,0,5.64,8.94,10.38,10.38,0,0,0,9.28-.05c.5-.23,1.51-.28,1.78,0a25.28,25.28,0,0,1,7,15.31c0,.11-.07.21-.2.55-3.64,0-7.37,0-11.1-.05-.31,0-.82-.61-.9-1-1.79-8.92-12.23-15.69-22.91-12-.46.15-1.35.13-1.54-.13C98.94,261.46,97,258.5,95,255.57Z" transform="translate(-31.59 -26.86)"/><path class="cls-3" d="M67,279.79a7.4,7.4,0,0,1,14.77,0,7.24,7.24,0,0,1-7.42,7A7.16,7.16,0,0,1,67,279.79Z" transform="translate(-31.59 -26.86)"/><path class="cls-3" d="M123.94,314.17a7,7,0,0,1-7.21-7.09c.08-3.89,3.39-6.81,7.61-6.71a7.12,7.12,0,0,1,7.17,7C131.44,311.24,128.11,314.23,123.94,314.17Z" transform="translate(-31.59 -26.86)"/><path class="cls-3" d="M123.8,260.39a6.82,6.82,0,1,1,0-13.6c4.05,0,7.36,3.13,7.27,6.88A7.14,7.14,0,0,1,123.8,260.39Z" transform="translate(-31.59 -26.86)"/><path class="cls-3" d="M575.42,196.28l-2.35,0c-.39,0-.9.67-1.14,1.12-1,2-1.69,4.29-3,6.09-4.43,5.89-12.21,8.06-19.58,5.8-.6-.19-1.72-.18-2,.15-2.05,2.83-4,5.75-6,8.77.29.17.43.27.58.35a29.92,29.92,0,0,0,17.69,2.58,1.89,1.89,0,0,0,1.18-1.19c1.76-6.3,7.67-9.29,13.92-6.9a1.42,1.42,0,0,0,1.95-.47,71.57,71.57,0,0,0,4.4-6,22.43,22.43,0,0,0,2.35-5.47C580.76,199.56,578.09,197.94,575.42,196.28Z" transform="translate(-31.59 -26.86)"/><path class="cls-3" d="M537.55,171.92c2.09,3.13,4.07,6,6,9a1.48,1.48,0,0,1-.38,1.4A15.5,15.5,0,0,0,543,205.7c.32.3.62,1.08.44,1.36-1.93,3-4,5.91-6,9a27.29,27.29,0,0,1-10.38-13.7c-.12-.33.19-.94.5-1.25,4.56-4.48,4.56-9.53,0-14.15a1.53,1.53,0,0,1-.47-1.25A27.58,27.58,0,0,1,537.55,171.92Z" transform="translate(-31.59 -26.86)"/><path class="cls-3" d="M543.83,170.4l-1-1.29a8.15,8.15,0,0,0-1.27.81c1.95,2.92,3.9,5.89,5.94,8.8.19.26,1.09.28,1.54.12a18.18,18.18,0,0,1,1.94-.54A73.54,73.54,0,0,1,543.83,170.4Z" transform="translate(-31.59 -26.86)"/><path class="cls-3" d="M513.56,194.14a7.4,7.4,0,1,1,7.35,7A7.18,7.18,0,0,1,513.56,194.14Z" transform="translate(-31.59 -26.86)"/><path class="cls-3" d="M570.47,228.52a7,7,0,0,1-7.21-7.09c.08-3.89,3.39-6.81,7.61-6.71a7.11,7.11,0,0,1,7.17,7C578,225.59,574.64,228.58,570.47,228.52Z" transform="translate(-31.59 -26.86)"/><path class="cls-3" d="M494.9,196.27a22.08,22.08,0,0,1-3.15,10.38,71.57,71.57,0,0,1-4.4,6,1.42,1.42,0,0,1-2,.47c-6.25-2.39-12.16.6-13.92,6.9a1.86,1.86,0,0,1-1.18,1.19,29.88,29.88,0,0,1-17.68-2.58c-.16-.08-.3-.18-.59-.35,2-3,4-5.94,6-8.77.24-.33,1.36-.34,2-.15,7.37,2.26,15.15.09,19.58-5.8,1.35-1.8,2-4.06,3.05-6.09.23-.45.74-1.11,1.13-1.12C487.39,196.23,491,196.27,494.9,196.27Z" transform="translate(-31.59 -26.86)"/><path class="cls-3" d="M448.24,171.92c2.1,3.13,4.08,6,5.95,9a1.5,1.5,0,0,1-.37,1.4,15.49,15.49,0,0,0-.1,23.41c.33.3.62,1.08.44,1.36-1.92,3-4,5.91-6,9a27.4,27.4,0,0,1-10.38-13.7c-.12-.33.19-.94.5-1.25,4.57-4.48,4.56-9.53,0-14.15a1.53,1.53,0,0,1-.47-1.25A27.58,27.58,0,0,1,448.24,171.92Z" transform="translate(-31.59 -26.86)"/><path class="cls-3" d="M452.27,169.92c3.75-2.95,13.66-4.36,18.9-2.75a9.56,9.56,0,0,0,5.65,8.93,10.33,10.33,0,0,0,9.27,0c.5-.23,1.52-.28,1.79,0a25.4,25.4,0,0,1,7,15.31c0,.1-.08.21-.2.55-3.64,0-7.37,0-11.1-.05-.32,0-.82-.61-.9-1-1.8-8.92-12.23-15.69-22.91-12-.46.16-1.36.14-1.54-.12C456.17,175.81,454.23,172.84,452.27,169.92Z" transform="translate(-31.59 -26.86)"/><path class="cls-3" d="M424.26,194.14a7.17,7.17,0,0,1,7.39-7,7,7,0,1,1,0,14A7.15,7.15,0,0,1,424.26,194.14Z" transform="translate(-31.59 -26.86)"/><path class="cls-3" d="M481.16,228.52a7,7,0,0,1-7.2-7.09c.08-3.89,3.38-6.81,7.61-6.71a7.11,7.11,0,0,1,7.16,7C488.67,225.59,485.33,228.58,481.16,228.52Z" transform="translate(-31.59 -26.86)"/><path class="cls-3" d="M481,174.74c-4,0-7.34-3.17-7.26-6.92a7,7,0,0,1,7.29-6.68c4.05,0,7.36,3.13,7.26,6.87A7.14,7.14,0,0,1,481,174.74Z" transform="translate(-31.59 -26.86)"/><path class="cls-3" d="M405.59,196.27a22.07,22.07,0,0,1-3.14,10.38,73.88,73.88,0,0,1-4.4,6,1.43,1.43,0,0,1-2,.47c-6.24-2.39-12.15.6-13.91,6.9a1.9,1.9,0,0,1-1.19,1.19,29.88,29.88,0,0,1-17.68-2.58c-.16-.08-.3-.18-.58-.35,2-3,3.94-5.94,6-8.77.25-.33,1.37-.34,2-.15,7.37,2.26,15.14.09,19.57-5.8,1.36-1.8,2-4.06,3.05-6.09.24-.45.74-1.11,1.14-1.12C398.08,196.23,401.7,196.27,405.59,196.27Z" transform="translate(-31.59 -26.86)"/><path class="cls-3" d="M358.93,171.92c2.1,3.13,4.08,6,6,9a1.51,1.51,0,0,1-.38,1.4,15.49,15.49,0,0,0-.1,23.41c.33.3.62,1.08.44,1.36-1.92,3-3.94,5.91-6,9a27.36,27.36,0,0,1-10.39-13.7,1.62,1.62,0,0,1,.5-1.25c4.57-4.48,4.56-9.53,0-14.15a1.54,1.54,0,0,1-.48-1.25A27.58,27.58,0,0,1,358.93,171.92Z" transform="translate(-31.59 -26.86)"/><path class="cls-3" d="M363,169.92c3.75-2.95,13.67-4.36,18.91-2.75a9.55,9.55,0,0,0,5.64,8.93,10.35,10.35,0,0,0,9.28,0c.5-.23,1.51-.28,1.78,0a25.28,25.28,0,0,1,7,15.31c0,.1-.07.21-.2.55-3.64,0-7.37,0-11.1-.05-.31,0-.82-.61-.9-1-1.79-8.92-12.23-15.69-22.91-12-.46.16-1.35.14-1.54-.12C366.87,175.81,364.92,172.84,363,169.92Z" transform="translate(-31.59 -26.86)"/><path class="cls-3" d="M335,194.14a7.4,7.4,0,1,1,7.35,7A7.17,7.17,0,0,1,335,194.14Z" transform="translate(-31.59 -26.86)"/><path class="cls-3" d="M391.86,228.52a7,7,0,0,1-7.21-7.09c.08-3.89,3.39-6.81,7.61-6.71a7.12,7.12,0,0,1,7.17,7C399.36,225.59,396,228.58,391.86,228.52Z" transform="translate(-31.59 -26.86)"/><path class="cls-3" d="M391.72,174.74a6.82,6.82,0,1,1,0-13.6c4.05,0,7.36,3.13,7.27,6.87A7.15,7.15,0,0,1,391.72,174.74Z" transform="translate(-31.59 -26.86)"/><path class="cls-3" d="M316.29,196.27a22.2,22.2,0,0,1-3.15,10.38,71.57,71.57,0,0,1-4.4,6,1.42,1.42,0,0,1-1.95.47c-6.25-2.39-12.16.6-13.92,6.9a1.89,1.89,0,0,1-1.18,1.19A29.92,29.92,0,0,1,274,218.6c-.15-.08-.29-.18-.58-.35,2-3,3.95-5.94,6-8.77.25-.33,1.37-.34,2-.15,7.37,2.26,15.15.09,19.58-5.8,1.35-1.8,2-4.06,3-6.09.24-.45.75-1.11,1.14-1.12C308.77,196.23,312.4,196.27,316.29,196.27Z" transform="translate(-31.59 -26.86)"/><path class="cls-3" d="M269.63,171.92c2.09,3.13,4.07,6,5.95,9a1.48,1.48,0,0,1-.38,1.4,15.5,15.5,0,0,0-.09,23.41c.32.3.62,1.08.44,1.36-1.93,3-3.95,5.91-6,9a27.36,27.36,0,0,1-10.39-13.7,1.6,1.6,0,0,1,.51-1.25c4.56-4.48,4.56-9.53,0-14.15a1.53,1.53,0,0,1-.47-1.25A27.58,27.58,0,0,1,269.63,171.92Z" transform="translate(-31.59 -26.86)"/><path class="cls-3" d="M273.66,169.92c3.74-2.95,13.66-4.36,18.9-2.75a9.54,9.54,0,0,0,5.65,8.93,10.33,10.33,0,0,0,9.27,0c.5-.23,1.52-.28,1.79,0a25.4,25.4,0,0,1,7,15.31,2.85,2.85,0,0,1-.21.55c-3.64,0-7.37,0-11.09-.05-.32,0-.82-.61-.9-1-1.8-8.92-12.23-15.69-22.92-12-.45.16-1.35.14-1.54-.12C277.56,175.81,275.61,172.84,273.66,169.92Z" transform="translate(-31.59 -26.86)"/><path class="cls-3" d="M245.64,194.14a7.4,7.4,0,1,1,7.35,7A7.18,7.18,0,0,1,245.64,194.14Z" transform="translate(-31.59 -26.86)"/><path class="cls-3" d="M302.55,228.52a7,7,0,0,1-7.21-7.09c.08-3.89,3.39-6.81,7.61-6.71a7.11,7.11,0,0,1,7.17,7C310.06,225.59,306.72,228.58,302.55,228.52Z" transform="translate(-31.59 -26.86)"/><path class="cls-3" d="M302.41,174.74a6.82,6.82,0,1,1,0-13.6c4.06,0,7.36,3.13,7.27,6.87A7.14,7.14,0,0,1,302.41,174.74Z" transform="translate(-31.59 -26.86)"/><path class="cls-3" d="M227,196.27a22.08,22.08,0,0,1-3.15,10.38,71.57,71.57,0,0,1-4.4,6,1.42,1.42,0,0,1-2,.47c-6.25-2.39-12.16.6-13.92,6.9a1.86,1.86,0,0,1-1.18,1.19,29.88,29.88,0,0,1-17.68-2.58c-.16-.08-.3-.18-.59-.35,2-3,3.95-5.94,6-8.77.24-.33,1.36-.34,2-.15,7.37,2.26,15.15.09,19.58-5.8,1.35-1.8,2-4.06,3.05-6.09.23-.45.74-1.11,1.13-1.12C219.47,196.23,223.09,196.27,227,196.27Z" transform="translate(-31.59 -26.86)"/><path class="cls-3" d="M180.32,171.92c2.1,3.13,4.07,6,6,9a1.5,1.5,0,0,1-.37,1.4,15.49,15.49,0,0,0-.1,23.41c.33.3.62,1.08.44,1.36-1.92,3-4,5.91-6,9a27.34,27.34,0,0,1-10.38-13.7c-.12-.33.19-.94.5-1.25,4.57-4.48,4.56-9.53,0-14.15a1.53,1.53,0,0,1-.47-1.25A27.58,27.58,0,0,1,180.32,171.92Z" transform="translate(-31.59 -26.86)"/><path class="cls-3" d="M184.35,169.92c3.75-2.95,13.66-4.36,18.9-2.75a9.56,9.56,0,0,0,5.65,8.93,10.33,10.33,0,0,0,9.27,0c.5-.23,1.52-.28,1.79,0a25.4,25.4,0,0,1,7,15.31c0,.1-.08.21-.2.55-3.64,0-7.37,0-11.1-.05-.32,0-.82-.61-.9-1-1.8-8.92-12.23-15.69-22.91-12-.46.16-1.36.14-1.54-.12C188.25,175.81,186.31,172.84,184.35,169.92Z" transform="translate(-31.59 -26.86)"/><path class="cls-3" d="M156.34,194.14a7.17,7.17,0,0,1,7.39-7,7,7,0,1,1,0,14A7.15,7.15,0,0,1,156.34,194.14Z" transform="translate(-31.59 -26.86)"/><path class="cls-3" d="M213.24,228.52a7,7,0,0,1-7.21-7.09c.09-3.89,3.39-6.81,7.62-6.71a7.11,7.11,0,0,1,7.16,7C220.75,225.59,217.41,228.58,213.24,228.52Z" transform="translate(-31.59 -26.86)"/><path class="cls-3" d="M213.1,174.74c-4,0-7.34-3.17-7.26-6.92a7,7,0,0,1,7.28-6.68c4.06,0,7.37,3.13,7.27,6.87A7.14,7.14,0,0,1,213.1,174.74Z" transform="translate(-31.59 -26.86)"/><path class="cls-3" d="M137.67,196.27a22.07,22.07,0,0,1-3.14,10.38,73.88,73.88,0,0,1-4.4,6,1.43,1.43,0,0,1-2,.47c-6.24-2.39-12.15.6-13.91,6.9a1.9,1.9,0,0,1-1.19,1.19,29.88,29.88,0,0,1-17.68-2.58c-.16-.08-.3-.18-.58-.35,2-3,3.94-5.94,6-8.77.25-.33,1.37-.34,2-.15,7.37,2.26,15.14.09,19.57-5.8,1.36-1.8,2-4.06,3.05-6.09.24-.45.74-1.11,1.14-1.12C130.16,196.23,133.78,196.27,137.67,196.27Z" transform="translate(-31.59 -26.86)"/><path class="cls-3" d="M91.21,194.17a29.91,29.91,0,0,1-7.59,3.4,12.38,12.38,0,0,1-2.6,3.52,1.62,1.62,0,0,0-.5,1.25A27.36,27.36,0,0,0,90.91,216c2.08-3.07,4.1-6,6-9,.18-.27-.11-1.06-.44-1.36A15.82,15.82,0,0,1,91.21,194.17Z" transform="translate(-31.59 -26.86)"/><path class="cls-3" d="M130.65,176.07c-.27-.29-1.28-.24-1.78,0a10.39,10.39,0,0,1-8.73.28,30.5,30.5,0,0,1-3,3.71,16.33,16.33,0,0,1,8.31,10.83c.08.39.59,1,.9,1,3.73.07,7.46.05,11.1.05.13-.34.21-.45.2-.55A25.28,25.28,0,0,0,130.65,176.07Z" transform="translate(-31.59 -26.86)"/><path class="cls-3" d="M76.06,198.67a28.17,28.17,0,0,1-8.15-1.19,7.37,7.37,0,0,0,6.47,3.67,7.55,7.55,0,0,0,6-2.83A26.55,26.55,0,0,1,76.06,198.67Z" transform="translate(-31.59 -26.86)"/><path class="cls-3" d="M123.94,228.52a7,7,0,0,1-7.21-7.09c.08-3.89,3.39-6.81,7.61-6.71a7.12,7.12,0,0,1,7.17,7C131.44,225.59,128.11,228.58,123.94,228.52Z" transform="translate(-31.59 -26.86)"/><path class="cls-3" d="M124.84,161.22a25.56,25.56,0,0,1-3.45,13.12,7.71,7.71,0,0,0,2.41.4,7.14,7.14,0,0,0,7.29-6.73A6.94,6.94,0,0,0,124.84,161.22Z" transform="translate(-31.59 -26.86)"/><path class="cls-3" d="M467.4,130.46c-3.74-1.45-7.32-3-10.78-4.6-1.53,2.19-3,4.43-4.59,6.74.29.17.43.27.59.35a29.88,29.88,0,0,0,17.68,2.58,1.89,1.89,0,0,0,1.18-1.19,12.19,12.19,0,0,1,.8-2.1Q469.82,131.4,467.4,130.46Z" transform="translate(-31.59 -26.86)"/><path class="cls-3" d="M438.9,114.76c-.21.23-.42.46-.65.68s-.62.92-.5,1.25a27.4,27.4,0,0,0,10.38,13.7c1.52-2.24,3-4.41,4.44-6.57A79.58,79.58,0,0,1,438.9,114.76Z" transform="translate(-31.59 -26.86)"/><path class="cls-3" d="M428.11,102.35a6.91,6.91,0,0,0-3.85,6.14,7.15,7.15,0,0,0,7.35,7,7.54,7.54,0,0,0,5.47-2.29A44.26,44.26,0,0,1,428.11,102.35Z" transform="translate(-31.59 -26.86)"/><path class="cls-3" d="M474.62,133a6.57,6.57,0,0,0-.66,2.77,7,7,0,0,0,7.2,7.09,7.2,7.2,0,0,0,7.52-6.08C483.93,135.75,479.23,134.5,474.62,133Z" transform="translate(-31.59 -26.86)"/><path class="cls-3" d="M405.59,110.62A22.11,22.11,0,0,1,402.45,121a73.88,73.88,0,0,1-4.4,6,1.43,1.43,0,0,1-2,.47c-6.24-2.39-12.15.6-13.91,6.9a1.92,1.92,0,0,1-1.19,1.19A29.88,29.88,0,0,1,363.31,133c-.16-.08-.3-.18-.58-.35,2-3,3.94-5.94,6-8.77.25-.33,1.37-.34,2-.16,7.37,2.26,15.14.1,19.57-5.79,1.36-1.8,2-4.07,3.05-6.09.24-.46.74-1.11,1.14-1.12C398.08,110.58,401.7,110.62,405.59,110.62Z" transform="translate(-31.59 -26.86)"/><path class="cls-3" d="M358.93,86.27c2.1,3.13,4.08,6,6,9a1.51,1.51,0,0,1-.38,1.4,15.49,15.49,0,0,0-.1,23.41c.33.29.62,1.08.44,1.36-1.92,3-3.94,5.91-6,9a27.36,27.36,0,0,1-10.39-13.7,1.62,1.62,0,0,1,.5-1.25c4.57-4.48,4.56-9.53,0-14.15a1.55,1.55,0,0,1-.48-1.25A27.58,27.58,0,0,1,358.93,86.27Z" transform="translate(-31.59 -26.86)"/><path class="cls-3" d="M363,84.27c3.75-3,13.67-4.36,18.91-2.75a9.55,9.55,0,0,0,5.64,8.93,10.35,10.35,0,0,0,9.28,0c.5-.23,1.51-.28,1.78,0a25.28,25.28,0,0,1,7,15.31c0,.1-.07.21-.2.55-3.64,0-7.37,0-11.1,0-.31,0-.82-.61-.9-1-1.79-8.92-12.23-15.69-22.91-12-.46.16-1.35.14-1.54-.13C366.87,90.16,364.92,87.19,363,84.27Z" transform="translate(-31.59 -26.86)"/><path class="cls-3" d="M335,108.49a7.4,7.4,0,1,1,7.35,7A7.17,7.17,0,0,1,335,108.49Z" transform="translate(-31.59 -26.86)"/><path class="cls-3" d="M391.86,142.87a7,7,0,0,1-7.21-7.09c.08-3.89,3.39-6.81,7.61-6.71a7.12,7.12,0,0,1,7.17,7C399.36,139.94,396,142.93,391.86,142.87Z" transform="translate(-31.59 -26.86)"/><path class="cls-3" d="M391.72,89.09a7.11,7.11,0,0,1-7.27-6.92,7,7,0,0,1,7.29-6.68c4.05,0,7.36,3.13,7.27,6.87A7.15,7.15,0,0,1,391.72,89.09Z" transform="translate(-31.59 -26.86)"/><path class="cls-3" d="M316.29,110.62A22.23,22.23,0,0,1,313.14,121a71.57,71.57,0,0,1-4.4,6,1.42,1.42,0,0,1-1.95.47c-6.25-2.39-12.16.6-13.92,6.9a1.91,1.91,0,0,1-1.18,1.19A29.92,29.92,0,0,1,274,133c-.15-.08-.29-.18-.58-.35,2-3,3.95-5.94,6-8.77.25-.33,1.37-.34,2-.16,7.37,2.26,15.15.1,19.58-5.79,1.35-1.8,2-4.07,3-6.09.24-.46.75-1.11,1.14-1.12C308.77,110.58,312.4,110.62,316.29,110.62Z" transform="translate(-31.59 -26.86)"/><path class="cls-3" d="M269.63,86.27c2.09,3.13,4.07,6,5.95,9a1.48,1.48,0,0,1-.38,1.4,15.5,15.5,0,0,0-.09,23.41c.32.29.62,1.08.44,1.36-1.93,3-3.95,5.91-6,9a27.36,27.36,0,0,1-10.39-13.7,1.6,1.6,0,0,1,.51-1.25c4.56-4.48,4.56-9.53,0-14.15a1.54,1.54,0,0,1-.47-1.25A27.58,27.58,0,0,1,269.63,86.27Z" transform="translate(-31.59 -26.86)"/><path class="cls-3" d="M273.66,84.27c3.74-3,13.66-4.36,18.9-2.75a9.54,9.54,0,0,0,5.65,8.93,10.33,10.33,0,0,0,9.27,0c.5-.23,1.52-.28,1.79,0a25.4,25.4,0,0,1,7,15.31,2.85,2.85,0,0,1-.21.55c-3.64,0-7.37,0-11.09,0-.32,0-.82-.61-.9-1-1.8-8.92-12.23-15.69-22.92-12-.45.16-1.35.14-1.54-.13C277.56,90.16,275.61,87.19,273.66,84.27Z" transform="translate(-31.59 -26.86)"/><path class="cls-3" d="M245.64,108.49a7.17,7.17,0,0,1,7.39-7,7,7,0,1,1,0,14A7.15,7.15,0,0,1,245.64,108.49Z" transform="translate(-31.59 -26.86)"/><path class="cls-3" d="M302.55,142.87a7,7,0,0,1-7.21-7.09c.08-3.89,3.39-6.81,7.61-6.71a7.11,7.11,0,0,1,7.17,7C310.06,139.94,306.72,142.93,302.55,142.87Z" transform="translate(-31.59 -26.86)"/><path class="cls-3" d="M302.41,89.09a6.82,6.82,0,1,1,0-13.6c4.06,0,7.36,3.13,7.27,6.87A7.14,7.14,0,0,1,302.41,89.09Z" transform="translate(-31.59 -26.86)"/><path class="cls-3" d="M213.31,122.1a117.23,117.23,0,0,1-15.54,13.79,30.12,30.12,0,0,0,4.61-.36,1.89,1.89,0,0,0,1.18-1.19c1.76-6.3,7.67-9.29,13.92-6.9a1.42,1.42,0,0,0,2-.47,71.57,71.57,0,0,0,4.4-6A22.12,22.12,0,0,0,227,110.62h-3.82A143.75,143.75,0,0,1,213.31,122.1Z" transform="translate(-31.59 -26.86)"/><path class="cls-3" d="M213.24,142.87a7,7,0,0,1-7.21-7.09c.09-3.89,3.39-6.81,7.62-6.71a7.11,7.11,0,0,1,7.16,7C220.75,139.94,217.41,142.93,213.24,142.87Z" transform="translate(-31.59 -26.86)"/></g><g id="Frame"><path class="cls-4" d="M561.12,161.1a31.11,31.11,0,0,1-12.48-7.2l-220-127-297,171.49v343l297,171.49,297-171.49v-343Zm13.27,350.65L328.66,653.66,82.85,511.75V228L328.66,86,574.39,228Z" transform="translate(-31.59 -26.86)"/><path class="cls-5" d="M561.12,161.1a31.11,31.11,0,0,1-12.48-7.2l-220-127-297,171.49v343l297,171.49,297-171.49v-343Zm13.27,350.65L328.66,653.66,82.85,511.75V228L328.66,86,574.39,228Z" transform="translate(-31.59 -26.86)"/><path class="cls-6" d="M328.58,86,82.78,227.93v283.8l245.8,141.91L574.31,511.73V227.93ZM561.94,504.61,328.58,639.34,95.18,504.61V235.11l233.4-134.77L561.94,235.11Z" transform="translate(-31.59 -26.86)"/><path id="_Compound_Path_" data-name=" Compound Path " class="cls-7" d="M328.58,88.11,84.6,229V510.69l244,140.86L572.52,510.69V229Z" transform="translate(-31.59 -26.86)"/><path class="cls-8" d="M412.25,639.46l8.95-5.14.42.72a17.69,17.69,0,0,1,1.92,4.67,10.85,10.85,0,0,1,0,4.36,11.33,11.33,0,0,1-5.74,7.82,12.24,12.24,0,0,1-9.69,1.21,13.09,13.09,0,0,1-9.11-16,12.61,12.61,0,0,1,6.16-7.93,12.78,12.78,0,0,1,5.34-1.69,15.14,15.14,0,0,1,6.07,1l-1.05,3.59a9.16,9.16,0,0,0-8.54.17,8.92,8.92,0,0,0-4.41,5.71,9.11,9.11,0,0,0,1,7.19,8.84,8.84,0,0,0,6,4.48,9.12,9.12,0,0,0,6.55-.86,7.57,7.57,0,0,0,3.4-4.11,6.83,6.83,0,0,0-.1-5.17L414,642.61Z" transform="translate(-31.59 -26.86)"/><rect class="cls-8" x="432.82" y="614.67" width="3.77" height="25.03" transform="translate(-286.64 273.88) rotate(-29.95)"/><polygon class="cls-8" points="418.94 580.82 429.67 599.44 426.4 601.31 415.7 582.71 410.7 585.56 408.93 582.49 422.14 574.88 423.92 577.96 418.94 580.82"/><path class="cls-8" d="M480.09,588.13l2.22,3.87a10.3,10.3,0,0,0-7.24,1,8.69,8.69,0,0,0-4.26,5.63,9.42,9.42,0,0,0,1.06,7.19,9.06,9.06,0,0,0,5.61,4.43,8.83,8.83,0,0,0,7-.92,8.06,8.06,0,0,0,2.6-2.26,10,10,0,0,0,1-1.55,21.54,21.54,0,0,0,.87-2l2.26,4a13.7,13.7,0,0,1-5,5,12.67,12.67,0,0,1-9.79,1.32,12.44,12.44,0,0,1-7.83-6,12.92,12.92,0,0,1-1.5-9,13,13,0,0,1,13-10.66" transform="translate(-31.59 -26.86)"/><path class="cls-9" d="M496,587.15a12.27,12.27,0,0,1-1.15-9.8,12.75,12.75,0,0,1,6.15-7.92,13.12,13.12,0,0,1,17.79,4.8A12.42,12.42,0,0,1,520,584.1a13.24,13.24,0,0,1-15.45,9.35,12.17,12.17,0,0,1-8.57-6.3m3.3-1.87a9.14,9.14,0,0,0,5.83,4.53,9.28,9.28,0,0,0,11.3-6.55,9.73,9.73,0,0,0-6.67-11.64,8.78,8.78,0,0,0-7.06.91,9,9,0,0,0-4.36,5.66,9,9,0,0,0,1,7.09" transform="translate(-31.59 -26.86)"/><rect class="cls-8" x="530.01" y="558.65" width="3.79" height="25.03" transform="translate(-245.78 315.19) rotate(-29.97)"/><polygon class="cls-8" points="520.94 546.9 507.61 523.75 532.95 531.18 524.29 516.1 527.54 514.23 540.8 537.26 515.46 529.83 524.22 545.03 520.94 546.9"/></g></g><g id="Layer_4" data-name="Layer 4"><path d="M276.79,437.55V421.13l-5.66,1v1.53c0,14.08,0,28.16,0,42.24,0,1.2.39,1.61,1.48,1.85,4.55,1,9.12,1.65,13.77,1a14.18,14.18,0,0,0,12.07-11.33,22.75,22.75,0,0,0-.24-11c-1.91-7.15-7.52-11.13-14.85-10.36A52.8,52.8,0,0,0,276.79,437.55Zm0,25.7V446.47c0-3.59.19-3.85,3.63-5l.81-.22c5.35-1.34,9.74,1.07,11.11,6.19a17.74,17.74,0,0,1,.12,9.15,8.86,8.86,0,0,1-5.94,6.72C283.37,464.37,280.14,464,276.84,463.25Z" transform="translate(-31.59 -26.86)"/><path d="M419.54,436.71H413.9V463.3c-3.23.39-6.34,1.07-9.47.05s-4-3.51-4.33-6.31c-.27-2.59-.28-5.22-.31-7.84,0-4.11,0-8.23,0-12.46h-5.59c0,.4-.07.85-.07,1.29,0,5.62,0,11.23,0,16.85a17.47,17.47,0,0,0,1.75,8.29c2.07,3.94,5.63,5.45,9.82,5.69a43.88,43.88,0,0,0,13.06-1.38,1.48,1.48,0,0,0,.88-1.08c.05-9.74,0-19.47,0-29.2A2.12,2.12,0,0,0,419.54,436.71Z" transform="translate(-31.59 -26.86)"/><path d="M338.56,468.15h5.58V441.62c3.46-.52,6.81-1.15,10.15.06,2.41.87,3.24,3,3.61,5.27a32,32,0,0,1,.35,4.89c.05,5,0,9.92,0,14.88v1.41h5.58a2.83,2.83,0,0,0,.11-.61c0-6.64.06-13.29-.17-19.92-.16-4.58-1.78-8.57-6.4-10.48a14.85,14.85,0,0,0-4.61-1,45.6,45.6,0,0,0-13.22,1.19c-.69.15-1.15.35-1.15,1.25,0,9.73,0,19.46,0,29.19A2.09,2.09,0,0,0,338.56,468.15Z" transform="translate(-31.59 -26.86)"/><path d="M324.73,463.47c-2.57.13-4.91.44-7.22.32-4.22-.22-6.51-2.7-6.71-7.47-.24-5.84-.19-11.69-.27-17.53,0-.65,0-1.3,0-2.05H305c0,.32-.09.68-.09,1,0,5.66-.06,11.32,0,17a25.25,25.25,0,0,0,.65,5.41c1.28,5.4,5.13,8.42,10.94,8.7a45.94,45.94,0,0,0,13.06-1.38,1.36,1.36,0,0,0,.84-1c0-9.87,0-19.74,0-29.61,0,0,0-.07-.12-.19h-5.53Z" transform="translate(-31.59 -26.86)"/><path d="M243.23,436.69H237.6c0,.51-.07,1-.07,1.41,0,5.57-.05,11.14,0,16.7a24,24,0,0,0,.61,5.14c1.34,5.71,5.26,8.75,11.3,8.94a46.35,46.35,0,0,0,12.64-1.38,1.51,1.51,0,0,0,.93-1c0-9.87,0-19.74,0-29.72h-5.67v26.52c-3.36.47-6.62,1.15-9.86,0-2.44-.89-3.44-3-3.84-5.3a34.77,34.77,0,0,1-.46-5.29c-.06-4.73,0-9.45,0-14.18Z" transform="translate(-31.59 -26.86)"/><path d="M388.88,441.45v-4.83H377.07v-9.73c-1.74.28-3.33.57-4.93.79-.85.12-.86.68-.86,1.32,0,4,0,8.05,0,12.08,0,5.61,0,11.22.1,16.84a19.84,19.84,0,0,0,.36,3.34c.81,4.4,3.43,6.83,7.92,7.46a18.51,18.51,0,0,0,10.55-1.61l-1.16-4.42a41,41,0,0,1-5.18,1.11c-4.6.38-6.56-1.39-6.8-6.07-.13-2.43,0-4.86,0-7.3,0-2.94,0-5.88,0-9Z" transform="translate(-31.59 -26.86)"/></g><g id="Layer_5" data-name="Layer 5"><path class="cls-10" d="M230.3,318.16c-.23-52.67,42.05-95.51,94.48-95.71a95.31,95.31,0,0,1,96,95.07c.2,52.48-42.23,95.87-94.26,96.37C273.58,414.41,230.53,371.58,230.3,318.16Z" transform="translate(-31.59 -26.86)"/><path class="cls-11" d="M230.3,318.16c.23,53.42,43.28,96.25,96.23,95.73,52-.5,94.46-43.89,94.26-96.37a95.31,95.31,0,0,0-96-95.07C272.35,222.65,230.07,265.49,230.3,318.16ZM295,364a52.46,52.46,0,0,1-21.69-28.06c-.63-1.91.15-4.94,1.37-6.69,5.26-7.55,5.11-14.79.09-22.35-1.1-1.67-2.15-4.29-1.62-6,3.78-12,10.68-21.72,21.87-28.86,3.17,5.48,6,10.38,8.74,15.13-19,16.77-21.85,41.55-.08,61.86Zm85.17-42.58c-.39,12.39-4.85,22-11.32,30.84-2.36,3.22-4.83,5.07-9.41,4.5-8.44-1.05-14.33,3.17-18.19,10.64-.92,1.8-2.46,4.14-4.12,4.54-12.3,3-24.14,1.63-36-4.41l8.62-15.22c26.93,7.46,42.57-1,52.25-27.18.55-1.49,2.36-3.41,3.74-3.54C370.37,321.15,375.08,321.42,380.18,321.42Zm-79-52.94c11.41-6,22.58-6.63,33.9-5,2.19.33,4.86,2.54,5.89,4.59,4.24,8.46,10.72,12.19,20.1,11.33,1.56-.15,3.82.05,4.72,1,8.68,9.41,13.78,20.36,14.35,33.74H362.64c-2.27-12.35-7.95-22.23-18.92-28.58s-22.4-5.71-34.05-1.87ZM260.64,330.8a13,13,0,0,1-12.59-12.53A12.78,12.78,0,0,1,261,305.33a12.37,12.37,0,0,1,12.4,12.47A12.57,12.57,0,0,1,260.64,330.8ZM358,387a12.42,12.42,0,0,1-12.76-12.08,12.74,12.74,0,0,1,12.31-13.41,12.61,12.61,0,0,1,12.73,12.19A12.4,12.4,0,0,1,358,387Zm12.32-125.23A12.55,12.55,0,1,1,358.2,249,12.49,12.49,0,0,1,370.33,261.78Z" transform="translate(-31.59 -26.86)"/><path class="cls-10" d="M295,364l8.68-14.94c-21.77-20.31-18.89-45.09.08-61.86-2.75-4.75-5.57-9.65-8.74-15.13-11.19,7.14-18.09,16.87-21.87,28.86-.53,1.68.52,4.3,1.62,6,5,7.56,5.17,14.8-.09,22.35-1.22,1.75-2,4.78-1.37,6.69A52.46,52.46,0,0,0,295,364Z" transform="translate(-31.59 -26.86)"/><path class="cls-10" d="M380.18,321.42c-5.1,0-9.81-.27-14.46.17-1.38.13-3.19,2.05-3.74,3.54-9.68,26.22-25.32,34.64-52.25,27.18l-8.62,15.22c11.89,6,23.73,7.38,36,4.41,1.66-.4,3.2-2.74,4.12-4.54,3.86-7.47,9.75-11.69,18.19-10.64,4.58.57,7.05-1.28,9.41-4.5C375.33,343.39,379.79,333.81,380.18,321.42Z" transform="translate(-31.59 -26.86)"/><path class="cls-10" d="M301.2,268.48l8.47,15.3c11.65-3.84,23.08-4.48,34.05,1.87s16.65,16.23,18.92,28.58h17.52c-.57-13.38-5.67-24.33-14.35-33.74-.9-1-3.16-1.19-4.72-1-9.38.86-15.86-2.87-20.1-11.33-1-2.05-3.7-4.26-5.89-4.59C323.78,261.85,312.61,262.44,301.2,268.48Z" transform="translate(-31.59 -26.86)"/><path class="cls-10" d="M260.64,330.8a12.57,12.57,0,0,0,12.72-13A12.37,12.37,0,0,0,261,305.33a12.78,12.78,0,0,0-12.91,12.94A13,13,0,0,0,260.64,330.8Z" transform="translate(-31.59 -26.86)"/><path class="cls-10" d="M358,387a12.4,12.4,0,0,0,12.28-13.3,12.61,12.61,0,0,0-12.73-12.19,12.74,12.74,0,0,0-12.31,13.41A12.42,12.42,0,0,0,358,387Z" transform="translate(-31.59 -26.86)"/><path class="cls-10" d="M370.33,261.78a12.55,12.55,0,1,0-25.1-.17,12.55,12.55,0,1,0,25.1.17Z" transform="translate(-31.59 -26.86)"/></g></svg>