<?xml version="1.0" encoding="UTF-8" standalone="no"?>
<!DOCTYPE svg PUBLIC "-//W3C//DTD SVG 1.1//EN" "http://www.w3.org/Graphics/SVG/1.1/DTD/svg11.dtd">
<svg width="100%" height="100%" viewBox="0 0 1200 1200" version="1.1" xmlns="http://www.w3.org/2000/svg" xmlns:xlink="http://www.w3.org/1999/xlink" xml:space="preserve" xmlns:serif="http://www.serif.com/" style="fill-rule:evenodd;clip-rule:evenodd;stroke-linecap:round;stroke-miterlimit:10;">
    <g transform="matrix(1,0,0,1,-4215,0)">
        <g id="Regulus_Prime" transform="matrix(1.5873,0,0,1.42857,4208.65,1.42857)">
            <rect x="4" y="-1" width="756" height="840" style="fill:none;"/>
            <clipPath id="_clip1">
                <rect x="4" y="-1" width="756" height="840"/>
            </clipPath>
            <g clip-path="url(#_clip1)">
                <g transform="matrix(0.39375,0,0,0.805571,4,-30.8674)">
                    <g id="Background">
                        <rect x="0" y="37.076" width="1920" height="1042.74" style="fill:rgb(239,244,238);"/>
                    </g>
                </g>
                <g transform="matrix(1.70667,0,0,1.70667,-269.947,-283.495)">
                    <g transform="matrix(0,-0.820313,-0.738281,0,298.323,429.584)">
                        <path d="M-21.22,21.22L21.22,21.22" style="fill:rgb(37,232,153);fill-rule:nonzero;stroke:rgb(21,0,62);stroke-width:6px;"/>
                    </g>
                    <g transform="matrix(0,-0.820313,-0.738281,0,296.741,520.154)">
                        <path d="M-19.078,19.078L19.078,19.078" style="fill:rgb(21,0,62);fill-rule:nonzero;stroke:rgb(21,0,62);stroke-width:6px;"/>
                    </g>
                    <g transform="matrix(0.738281,0,0,0.820313,330.058,419.098)">
                        <path d="M0,0L138.234,0" style="fill:rgb(37,232,153);fill-rule:nonzero;stroke:rgb(21,0,62);stroke-width:6px;stroke-linecap:butt;stroke-linejoin:round;"/>
                    </g>
                    <g transform="matrix(0.738281,0,0,0.820313,330.058,455.344)">
                        <path d="M0,-44.186L1.501,-23.916L15.194,-5.416L27.194,-4.28L71.119,0L116.155,-3.228L131.251,-13.693L138.234,-33.618L135.237,-44.186L0,-44.186Z" style="fill:rgb(21,0,62);fill-rule:nonzero;"/>
                    </g>
                    <g transform="matrix(0.738281,0,0,0.820313,408.524,390.813)">
                        <path d="M0,77L-74.33,77C-91.976,77 -106.282,62.695 -106.282,45.048L-106.282,0L31.952,0L31.952,45.048C31.952,62.695 17.647,77 0,77Z" style="fill:none;stroke:rgb(21,0,62);stroke-width:6px;stroke-linecap:butt;stroke-linejoin:round;"/>
                    </g>
                    <g transform="matrix(0.738281,0,0,0.820313,391.055,420.55)">
                        <path d="M0,0C0,-7.882 -6.389,-14.271 -14.271,-14.271C-22.152,-14.271 -28.541,-7.882 -28.541,0C-28.541,7.881 -22.152,14.271 -14.271,14.271C-6.389,14.271 0,7.881 0,0" style="fill:rgb(37,232,153);fill-rule:nonzero;"/>
                    </g>
                    <g transform="matrix(0,-0.820313,-0.738281,0,380.52,408.843)">
                        <ellipse cx="-14.271" cy="0" rx="14.271" ry="14.271" style="fill:none;stroke:rgb(21,0,62);stroke-width:6px;stroke-linecap:butt;stroke-linejoin:round;"/>
                    </g>
                    <g transform="matrix(0.738281,0,0,0.820313,341.005,448.509)">
                        <path d="M0,0C0,-3.848 -3.119,-6.967 -6.967,-6.967C-10.814,-6.967 -13.933,-3.848 -13.933,0C-13.933,3.848 -10.814,6.967 -6.967,6.967C-3.119,6.967 0,3.848 0,0" style="fill:rgb(21,0,62);fill-rule:nonzero;"/>
                    </g>
                    <g transform="matrix(0.738281,0,0,0.820313,431.366,448.509)">
                        <path d="M0,0C0,-3.848 -3.119,-6.967 -6.967,-6.967C-10.814,-6.967 -13.933,-3.848 -13.933,0C-13.933,3.848 -10.814,6.967 -6.967,6.967C-3.119,6.967 0,3.848 0,0" style="fill:rgb(21,0,62);fill-rule:nonzero;"/>
                    </g>
                    <g transform="matrix(0.738281,0,0,0.820313,389.576,459.844)">
                        <path d="M0,0C0,-6.351 -5.149,-11.5 -11.5,-11.5C-17.851,-11.5 -23,-6.351 -23,0C-23,6.351 -17.851,11.5 -11.5,11.5C-5.149,11.5 0,6.351 0,0" style="fill:rgb(239,244,238);fill-rule:nonzero;"/>
                    </g>
                    <g transform="matrix(0.738281,0,0,0.820313,425.65,444.617)">
                        <path d="M0,0C0,-2.388 -1.936,-4.324 -4.324,-4.324C-6.712,-4.324 -8.648,-2.388 -8.648,0C-8.648,2.388 -6.712,4.324 -4.324,4.324C-1.936,4.324 0,2.388 0,0" style="fill:rgb(239,244,238);fill-rule:nonzero;"/>
                    </g>
                    <g transform="matrix(0.738281,0,0,0.820313,342.246,444.617)">
                        <path d="M0,0C0,-2.388 -1.936,-4.324 -4.324,-4.324C-6.712,-4.324 -8.648,-2.388 -8.648,0C-8.648,2.388 -6.712,4.324 -4.324,4.324C-1.936,4.324 0,2.388 0,0" style="fill:rgb(239,244,238);fill-rule:nonzero;"/>
                    </g>
                    <g transform="matrix(0.738281,0,0,0.820313,333.82,464.712)">
                        <path d="M0,79.493L-11.413,79.493L-11.413,11.413C-11.413,5.11 -6.303,0 0,0C6.303,0 11.413,5.11 11.413,11.413L11.413,68.08C11.413,74.383 6.303,79.493 0,79.493Z" style="fill:none;stroke:rgb(21,0,62);stroke-width:6px;stroke-linecap:butt;stroke-linejoin:round;"/>
                    </g>
                    <g transform="matrix(0,0.820313,0.738281,0,380.27,504.649)">
                        <path d="M-37.979,-37.979L37.979,-37.979" style="fill:none;stroke:rgb(21,0,62);stroke-width:6px;stroke-linejoin:round;"/>
                    </g>
                    <g transform="matrix(0.738281,0,0,0.820313,346.598,553.461)">
                        <path d="M0,15.261L-21.089,15.261C-25.303,15.261 -28.719,11.845 -28.719,7.631C-28.719,3.416 -25.303,0 -21.089,0L0,0C4.214,0 7.63,3.416 7.63,7.631C7.63,11.845 4.214,15.261 0,15.261Z" style="fill:none;stroke:rgb(21,0,62);stroke-width:6px;stroke-linejoin:round;"/>
                    </g>
                    <g transform="matrix(0.738281,0,0,0.820313,359.738,593.162)">
                        <path d="M0,20.429L-52.692,20.429C-58.334,20.429 -62.907,15.856 -62.907,10.214C-62.907,4.573 -58.334,0 -52.692,0L0,0C5.641,0 10.215,4.573 10.215,10.214C10.215,15.856 5.641,20.429 0,20.429Z" style="fill:none;stroke:rgb(21,0,62);stroke-width:6px;stroke-linejoin:round;"/>
                    </g>
                    <g transform="matrix(-0.738281,0,0,0.820313,961.777,311.554)">
                        <rect x="834.078" y="310.156" width="20.269" height="33.136" style="fill:none;stroke:rgb(21,0,62);stroke-width:6px;stroke-linejoin:round;"/>
                    </g>
                    <g transform="matrix(0.738281,0,0,0.820313,325.395,544.692)">
                        <path d="M0,0L36.35,0" style="fill:none;stroke:rgb(21,0,62);stroke-width:6px;stroke-linejoin:round;"/>
                    </g>
                    <g transform="matrix(-0.738281,0,0,0.820313,941.427,378.145)">
                        <rect x="820.649" y="282.545" width="19.563" height="7.181" style="fill:rgb(21,0,62);stroke:rgb(21,0,62);stroke-width:6px;stroke-linecap:butt;stroke-linejoin:round;"/>
                    </g>
                    <g transform="matrix(-0.738281,0,0,0.820313,985.276,378.145)">
                        <rect x="850.346" y="282.545" width="19.563" height="7.181" style="fill:rgb(21,0,62);stroke:rgb(21,0,62);stroke-width:6px;stroke-linecap:butt;stroke-linejoin:round;"/>
                    </g>
                    <g transform="matrix(0.738281,0,0,0.820313,325.395,509.212)">
                        <path d="M0,0L22.825,0" style="fill:rgb(21,0,62);fill-rule:nonzero;stroke:rgb(21,0,62);stroke-width:6px;stroke-linecap:butt;stroke-linejoin:round;"/>
                    </g>
                    <g transform="matrix(0.738281,0,0,0.820313,325.395,484.876)">
                        <path d="M0,0L22.825,0" style="fill:rgb(21,0,62);fill-rule:nonzero;stroke:rgb(21,0,62);stroke-width:6px;stroke-linecap:butt;stroke-linejoin:round;"/>
                    </g>
                    <g transform="matrix(0,-0.820313,-0.738281,0,336.895,530.156)">
                        <ellipse cx="-8.541" cy="0" rx="8.542" ry="8.541" style="fill:none;stroke:rgb(21,0,62);stroke-width:6px;stroke-linejoin:round;"/>
                    </g>
                    <g transform="matrix(0,-0.820313,-0.738281,0,342.456,549.077)">
                        <path d="M-5.345,5.345L5.345,5.345" style="fill:none;stroke:rgb(21,0,62);stroke-width:6px;stroke-linejoin:round;"/>
                    </g>
                    <g transform="matrix(0.738281,0,0,0.820313,330.718,466.428)">
                        <path d="M0,-10.201L13.933,-10.201L24.135,0" style="fill:none;stroke:rgb(21,0,62);stroke-width:6px;stroke-linejoin:round;"/>
                    </g>
                    <g transform="matrix(0.738281,0,0,0.820313,429.736,464.939)">
                        <path d="M0,79.493L11.413,79.493L11.413,11.413C11.413,5.11 6.303,0 0,0C-6.303,0 -11.413,5.11 -11.413,11.413L-11.413,68.08C-11.413,74.383 -6.303,79.493 0,79.493Z" style="fill:none;stroke:rgb(21,0,62);stroke-width:6px;stroke-linecap:butt;stroke-linejoin:round;"/>
                    </g>
                    <g transform="matrix(0,0.820313,0.738281,0,439.365,504.877)">
                        <path d="M-37.979,-37.979L37.979,-37.979" style="fill:none;stroke:rgb(21,0,62);stroke-width:6px;stroke-linejoin:round;"/>
                    </g>
                    <g transform="matrix(0.738281,0,0,0.820313,416.959,553.689)">
                        <path d="M0,15.261L21.089,15.261C25.303,15.261 28.719,11.845 28.719,7.631C28.719,3.416 25.303,0 21.089,0L0,0C-4.214,0 -7.63,3.416 -7.63,7.631C-7.63,11.845 -4.214,15.261 0,15.261Z" style="fill:none;stroke:rgb(21,0,62);stroke-width:6px;stroke-linejoin:round;"/>
                    </g>
                    <g transform="matrix(0.738281,0,0,0.820313,403.819,593.389)">
                        <path d="M0,20.429L52.692,20.429C58.334,20.429 62.907,15.856 62.907,10.214C62.907,4.573 58.334,0 52.692,0L0,0C-5.641,0 -10.215,4.573 -10.215,10.214C-10.215,15.856 -5.641,20.429 0,20.429Z" style="fill:none;stroke:rgb(21,0,62);stroke-width:6px;stroke-linejoin:round;"/>
                    </g>
                    <g transform="matrix(0.738281,0,0,0.820313,-284.756,312.011)">
                        <rect x="951.291" y="309.878" width="20.269" height="33.136" style="fill:none;stroke:rgb(21,0,62);stroke-width:6px;stroke-linejoin:round;"/>
                    </g>
                    <g transform="matrix(-0.738281,0,0,0.820313,411.326,544.92)">
                        <path d="M-36.35,0L0,0" style="fill:none;stroke:rgb(21,0,62);stroke-width:6px;stroke-linejoin:round;"/>
                    </g>
                    <g transform="matrix(0.738281,0,0,0.820313,-284.756,378.599)">
                        <rect x="965.425" y="282.268" width="19.563" height="7.181" style="fill:rgb(21,0,62);stroke:rgb(21,0,62);stroke-width:6px;stroke-linecap:butt;stroke-linejoin:round;"/>
                    </g>
                    <g transform="matrix(0.738281,0,0,0.820313,-284.756,378.599)">
                        <rect x="935.728" y="282.268" width="19.563" height="7.181" style="fill:rgb(21,0,62);stroke:rgb(21,0,62);stroke-width:6px;stroke-linecap:butt;stroke-linejoin:round;"/>
                    </g>
                    <g transform="matrix(-0.738281,0,0,0.820313,421.311,509.439)">
                        <path d="M-22.825,0L0,0" style="fill:rgb(21,0,62);fill-rule:nonzero;stroke:rgb(21,0,62);stroke-width:6px;stroke-linecap:butt;stroke-linejoin:round;"/>
                    </g>
                    <g transform="matrix(-0.738281,0,0,0.820313,421.311,485.103)">
                        <path d="M-22.825,0L0,0" style="fill:rgb(21,0,62);fill-rule:nonzero;stroke:rgb(21,0,62);stroke-width:6px;stroke-linecap:butt;stroke-linejoin:round;"/>
                    </g>
                    <g transform="matrix(0,0.820313,0.738281,0,426.662,530.384)">
                        <ellipse cx="8.542" cy="0" rx="8.542" ry="8.541" style="fill:none;stroke:rgb(21,0,62);stroke-width:6px;stroke-linejoin:round;"/>
                    </g>
                    <g transform="matrix(0,-0.820313,-0.738281,0,428.993,549.304)">
                        <path d="M-5.345,5.345L5.345,5.345" style="fill:none;stroke:rgb(21,0,62);stroke-width:6px;stroke-linejoin:round;"/>
                    </g>
                    <g transform="matrix(0.738281,0,0,0.820313,432.839,466.656)">
                        <path d="M0,-10.201L-13.933,-10.201L-24.134,0" style="fill:none;stroke:rgb(21,0,62);stroke-width:6px;stroke-linejoin:round;"/>
                    </g>
                    <g transform="matrix(0.738281,0,0,0.820313,288.372,412.176)">
                        <path d="M0,139.219L-15.481,139.219C-23.633,139.219 -30.241,132.611 -30.241,124.46L-30.241,14.76C-30.241,6.608 -23.633,0 -15.481,0L0,0C8.151,0 14.759,6.608 14.759,14.76L14.759,124.46C14.759,132.611 8.151,139.219 0,139.219Z" style="fill:none;stroke:rgb(21,0,62);stroke-width:6px;stroke-linejoin:round;"/>
                    </g>
                    <g transform="matrix(0.738281,0,0,0.820313,291.453,504.504)">
                        <path d="M0,0C0,-6.58 -5.334,-11.914 -11.914,-11.914C-18.495,-11.914 -23.829,-6.58 -23.829,0C-23.829,6.58 -18.495,11.914 -11.914,11.914C-5.334,11.914 0,6.58 0,0" style="fill:rgb(37,232,153);fill-rule:nonzero;"/>
                    </g>
                    <g transform="matrix(0,-0.820313,-0.738281,0,282.657,494.731)">
                        <ellipse cx="-11.915" cy="0" rx="11.914" ry="11.915" style="fill:none;stroke:rgb(21,0,62);stroke-width:6px;"/>
                    </g>
                    <g transform="matrix(0.738281,0,0,0.820313,266.045,446.991)">
                        <path d="M0,0L45,0" style="fill:none;stroke:rgb(21,0,62);stroke-width:6px;stroke-linejoin:round;"/>
                    </g>
                    <g transform="matrix(0.738281,0,0,0.820313,266.045,469.278)">
                        <path d="M0,0L45,0" style="fill:none;stroke:rgb(21,0,62);stroke-width:6px;stroke-linejoin:round;"/>
                    </g>
                    <g transform="matrix(-0.738281,0,0,0.820313,915.261,5.92815)">
                        <rect x="791.058" y="501.946" width="43.303" height="22.129" style="fill:rgb(21,0,62);"/>
                    </g>
                    <g transform="matrix(0.738281,0,0,0.820313,274.79,535.799)">
                        <path d="M0,37L0,7.481C0,3.349 3.349,0 7.481,0L13.831,0C17.962,0 21.312,3.349 21.312,7.481L21.312,37" style="fill:rgb(239,244,238);fill-rule:nonzero;stroke:rgb(21,0,62);stroke-width:6px;"/>
                    </g>
                    <g transform="matrix(0.738281,0,0,0.820313,290.524,566.151)">
                        <path d="M0,0C0,-5.885 -4.771,-10.656 -10.656,-10.656C-16.541,-10.656 -21.312,-5.885 -21.312,0C-21.312,5.885 -16.541,10.656 -10.656,10.656C-4.771,10.656 0,5.885 0,0" style="fill:rgb(37,232,153);fill-rule:nonzero;"/>
                    </g>
                    <g transform="matrix(0,-0.820313,-0.738281,0,282.657,557.409)">
                        <circle cx="-10.656" cy="0" r="10.656" style="fill:none;stroke:rgb(21,0,62);stroke-width:6px;"/>
                    </g>
                    <g transform="matrix(0.738281,0,0,0.820313,475.628,412.176)">
                        <path d="M0,139.219L15.481,139.219C23.633,139.219 30.241,132.611 30.241,124.46L30.241,14.76C30.241,6.608 23.633,0 15.481,0L0,0C-8.151,0 -14.759,6.608 -14.759,14.76L-14.759,124.46C-14.759,132.611 -8.151,139.219 0,139.219Z" style="fill:none;stroke:rgb(21,0,62);stroke-width:6px;stroke-linejoin:round;"/>
                    </g>
                    <g transform="matrix(-0.738281,0,0,0.820313,464.732,446.991)">
                        <path d="M-45,0L0,0" style="fill:none;stroke:rgb(21,0,62);stroke-width:6px;stroke-linejoin:round;"/>
                    </g>
                    <g transform="matrix(-0.738281,0,0,0.820313,464.732,469.278)">
                        <path d="M-45,0L0,0" style="fill:none;stroke:rgb(21,0,62);stroke-width:6px;stroke-linejoin:round;"/>
                    </g>
                    <g transform="matrix(0,-0.820313,-0.738281,0,497.01,429.584)">
                        <path d="M-21.22,21.22L21.22,21.22" style="fill:rgb(37,232,153);fill-rule:nonzero;stroke:rgb(21,0,62);stroke-width:6px;"/>
                    </g>
                    <g transform="matrix(0.738281,0,0,0.820313,-284.756,5.92815)">
                        <rect x="971.876" y="501.946" width="43.303" height="22.129" style="fill:rgb(21,0,62);"/>
                    </g>
                    <g transform="matrix(0.738281,0,0,0.820313,489.21,481.061)">
                        <path d="M0,37L0,7.48C0,3.349 -3.349,0 -7.48,0L-13.831,0C-17.963,0 -21.312,3.349 -21.312,7.48L-21.312,37" style="fill:rgb(239,244,238);fill-rule:nonzero;stroke:rgb(21,0,62);stroke-width:6px;"/>
                    </g>
                    <g transform="matrix(0.738281,0,0,0.820313,473.476,511.413)">
                        <path d="M0,0C0,-5.885 4.771,-10.656 10.656,-10.656C16.541,-10.656 21.312,-5.885 21.312,0C21.312,5.885 16.541,10.656 10.656,10.656C4.771,10.656 0,5.885 0,0" style="fill:rgb(37,232,153);fill-rule:nonzero;"/>
                    </g>
                    <g transform="matrix(0,0.820313,0.738281,0,481.343,502.672)">
                        <circle cx="10.656" cy="0" r="10.656" style="fill:none;stroke:rgb(21,0,62);stroke-width:6px;"/>
                    </g>
                    <g transform="matrix(-0.738281,0,0,0.820313,1043.77,-84.1036)">
                        <rect x="850.565" y="556.828" width="98.353" height="22.118" style="fill:none;stroke:rgb(21,0,62);stroke-width:6px;"/>
                    </g>
                    <g transform="matrix(0.738281,0,0,0.820313,351.651,363.602)">
                        <path d="M0,0L76.714,0" style="fill:none;stroke:rgb(37,232,153);stroke-width:6px;"/>
                    </g>
                    <g transform="matrix(0.738281,0,0,0.820313,340.845,332.256)">
                        <path d="M0,-25.122L96.423,-25.122L104.594,-22.004L98.449,0L6.068,0L0,-25.122Z" style="fill:rgb(37,232,153);fill-rule:nonzero;"/>
                    </g>
                    <g transform="matrix(0.738281,0,0,0.820313,403.886,332.257)">
                        <path d="M0,27.197L-66.263,27.197C-73.475,27.197 -79.321,21.35 -79.321,14.138L-79.321,0L13.059,0L13.059,14.138C13.059,21.35 7.212,27.197 0,27.197Z" style="fill:rgb(239,244,238);fill-rule:nonzero;stroke:rgb(21,0,62);stroke-width:6px;"/>
                    </g>
                    <g transform="matrix(0.738281,0,0,0.820313,366.922,251.341)">
                        <path d="M0,73.517C-14.503,67.148 -24.631,52.658 -24.631,35.803C-24.631,25.856 -21.103,16.732 -15.23,9.615C-7.678,0.465 39.825,0 47.368,8.515C53.803,15.779 57.71,25.335 57.71,35.803C57.71,52.657 47.583,67.145 33.083,73.515" style="fill:rgb(15,206,124);fill-rule:nonzero;"/>
                    </g>
                    <g transform="matrix(0.738281,0,0,0.820313,365.001,260.852)">
                        <path d="M0,61.921C-14.351,54.939 -24.241,40.216 -24.241,23.184C-24.241,14.648 -21.757,6.692 -17.472,0" style="fill:none;stroke:rgb(21,0,62);stroke-width:6px;"/>
                    </g>
                    <g transform="matrix(0.738281,0,0,0.820313,404.532,311.466)">
                        <path d="M0,-63.965C5.232,-56.836 8.322,-48.038 8.322,-38.517C8.322,-21.662 -1.364,-7.069 -15.473,0" style="fill:none;stroke:rgb(21,0,62);stroke-width:6px;"/>
                    </g>
                    <g transform="matrix(0.738281,0,0,0.820313,334.159,281.96)">
                        <path d="M0,1.773C0,-32.09 27.451,-59.541 61.314,-59.541C95.177,-59.541 122.629,-32.09 122.629,1.773L107.505,61.314L15.124,61.314L0,1.773Z" style="fill:none;stroke:rgb(21,0,62);stroke-width:6px;"/>
                    </g>
                    <g transform="matrix(0,-0.820313,-0.738281,0,355.699,258.753)">
                        <path d="M-29.176,29.176L29.176,29.176" style="fill:none;stroke:rgb(21,0,62);stroke-width:6px;"/>
                    </g>
                    <g transform="matrix(0,-0.820313,-0.738281,0,452.316,251.995)">
                        <path d="M-37.414,37.414L37.414,37.414" style="fill:none;stroke:rgb(21,0,62);stroke-width:6px;"/>
                    </g>
                    <g transform="matrix(0.738281,0,0,0.820313,337.685,269.516)">
                        <path d="M0,42.266L-6.329,42.266C-11.45,42.266 -15.64,38.076 -15.64,32.956L-15.64,9.31C-15.64,4.19 -11.45,0 -6.329,0L-3.645,0" style="fill:none;stroke:rgb(21,0,62);stroke-width:6px;"/>
                    </g>
                    <g transform="matrix(0.738281,0,0,0.820313,421.329,269.516)">
                        <path d="M0,42.266L6.329,42.266C11.45,42.266 15.64,38.076 15.64,32.956L15.64,9.31C15.64,4.19 11.45,0 6.329,0L3.645,0" style="fill:none;stroke:rgb(21,0,62);stroke-width:6px;"/>
                    </g>
                    <g transform="matrix(0.738281,0,0,0.820313,334.646,253.554)">
                        <path d="M0,26.145C15.772,9.991 37.56,0 61.626,0C84.383,0 105.102,8.933 120.624,23.562" style="fill:none;stroke:rgb(21,0,62);stroke-width:6px;"/>
                    </g>
                    <g transform="matrix(0.738281,0,0,0.820313,340.845,311.645)">
                        <path d="M0,0L104.594,0" style="fill:none;stroke:rgb(21,0,62);stroke-width:6px;"/>
                    </g>
                    <g transform="matrix(0.738281,0,0,0.820313,395.313,269.516)">
                        <path d="M0,0C0,5.932 -4.809,10.74 -10.74,10.74C-16.672,10.74 -21.48,5.932 -21.48,0C-21.48,-5.932 -16.672,-10.74 -10.74,-10.74C-4.809,-10.74 0,-5.932 0,0" style="fill:white;fill-rule:nonzero;"/>
                    </g>
                    <g transform="matrix(0.738281,0,0,0.820313,400.979,282.687)">
                        <path d="M0,0C0,2.398 -1.944,4.343 -4.343,4.343C-6.741,4.343 -8.685,2.398 -8.685,0C-8.685,-2.398 -6.741,-4.343 -4.343,-4.343C-1.944,-4.343 0,-2.398 0,0" style="fill:white;fill-rule:nonzero;"/>
                    </g>
                    <g transform="matrix(0.738281,0,0,0.820313,406.807,318.67)">
                        <path d="M0,8C-5.29,8 -5.29,0 -10.581,0C-15.871,0 -15.871,8 -21.161,8C-26.453,8 -26.453,0 -31.745,0C-37.039,0 -37.039,8 -42.332,8C-47.624,8 -47.624,0 -52.916,0C-58.212,0 -58.212,8 -63.507,8C-68.803,8 -68.803,0 -74.099,0" style="fill:none;stroke:rgb(21,0,62);stroke-width:6px;"/>
                    </g>
                    <g transform="matrix(-0.738281,0,0,0.820313,268.179,616.696)">
                        <path d="M-308.341,0L0,0" style="fill:rgb(21,0,62);fill-rule:nonzero;stroke:rgb(21,0,62);stroke-width:6px;"/>
                    </g>
                </g>
            </g>
        </g>
    </g>
</svg>
