<?xml version="1.0" encoding="UTF-8" standalone="no"?>
<!DOCTYPE svg PUBLIC "-//W3C//DTD SVG 1.1//EN" "http://www.w3.org/Graphics/SVG/1.1/DTD/svg11.dtd">
<svg width="100%" height="100%" viewBox="0 0 1200 1200" version="1.1" xmlns="http://www.w3.org/2000/svg" xmlns:xlink="http://www.w3.org/1999/xlink" xml:space="preserve" xmlns:serif="http://www.serif.com/" style="fill-rule:evenodd;clip-rule:evenodd;stroke-linecap:round;stroke-miterlimit:10;">
    <g transform="matrix(1,0,0,1,-2915,-2460)">
        <g id="Bender_Main" transform="matrix(1.5873,0,0,1.42857,2908.65,2461.43)">
            <rect x="4" y="-1" width="756" height="840" style="fill:none;"/>
            <clipPath id="_clip1">
                <rect x="4" y="-1" width="756" height="840"/>
            </clipPath>
            <g clip-path="url(#_clip1)">
                <g transform="matrix(0.39375,0,0,0.805571,4,-30.8674)">
                    <g id="Background">
                        <rect x="0" y="37.076" width="1920" height="1042.74" style="fill:rgb(239,244,238);"/>
                    </g>
                </g>
                <g id="Artwork" transform="matrix(0.63,0,0,0.7,59.44,60.6)">
                    <g transform="matrix(1,0,0,1,0.0001,0)">
                        <g transform="matrix(2,0,0,2,422.709,671.141)">
                            <path d="M0,0C0,-16.948 -13.739,-30.687 -30.687,-30.687C-47.635,-30.687 -61.374,-16.948 -61.374,0C-61.374,16.948 -47.635,30.687 -30.687,30.687" style="fill:none;stroke:rgb(37,232,153);stroke-width:7px;"/>
                        </g>
                        <g transform="matrix(-2,0,0,2,203.659,923.386)">
                            <path d="M-308.341,0L0,0" style="fill:none;stroke:rgb(21,0,62);stroke-width:6px;"/>
                        </g>
                        <g transform="matrix(0,2,2,0,527.962,626.282)">
                            <path d="M22.429,-36.984L36.984,-36.984" style="fill:none;stroke:rgb(37,232,153);stroke-width:7px;"/>
                        </g>
                        <g transform="matrix(2,0,0,2,405.686,703.811)">
                            <path d="M0,28.703C0,12.851 -12.851,0 -28.703,0C-44.555,0 -57.406,12.851 -57.406,28.703" style="fill:rgb(239,244,238);fill-rule:nonzero;stroke:rgb(37,232,153);stroke-width:7px;"/>
                        </g>
                        <g transform="matrix(2,0,0,2,290.873,835.565)">
                            <path d="M0,-37.174C-10.265,-37.174 -18.587,-28.852 -18.587,-18.587C-18.587,-8.321 -10.265,0 0,0C10.265,0 18.587,-8.321 18.587,-18.587" style="fill:rgb(239,244,238);fill-rule:nonzero;stroke:rgb(37,232,153);stroke-width:7px;"/>
                        </g>
                        <g transform="matrix(2,0,0,2,653.317,839.188)">
                            <path d="M0,-31.87C-2.755,-27.198 -4.336,-21.751 -4.336,-15.935C-4.336,1.414 9.729,15.479 27.078,15.479C44.427,15.479 58.492,1.414 58.492,-15.935C58.492,-33.284 44.427,-47.349 27.078,-47.349C25.912,-47.349 24.761,-47.285 23.628,-47.161" style="fill:rgb(239,244,238);fill-rule:nonzero;stroke:rgb(37,232,153);stroke-width:7px;"/>
                        </g>
                        <g transform="matrix(2,0,0,2,623.33,679.035)">
                            <path d="M0,43.382C1.873,49.844 9.897,52.89 17.121,52.89C28.256,52.89 37.283,43.863 37.283,32.728C37.283,21.946 28.818,13.14 18.172,12.593C17.426,12.555 16.697,12.359 16.026,12.031C14.344,11.207 13.182,9.602 12.918,7.747C11.529,-2.007 3.143,-9.508 -6.995,-9.508C-18.104,-9.508 -27.11,-0.502 -27.11,10.607" style="fill:rgb(239,244,238);fill-rule:nonzero;stroke:rgb(37,232,153);stroke-width:7px;"/>
                        </g>
                        <g transform="matrix(2,0,0,2,432.64,809.629)">
                            <path d="M0,-19.326C-7.213,-26.119 -18.566,-25.779 -25.359,-18.566C-32.152,-11.354 -31.812,0 -24.599,6.793" style="fill:rgb(239,244,238);fill-rule:nonzero;stroke:rgb(37,232,153);stroke-width:7px;"/>
                        </g>
                        <g transform="matrix(0,-2,-2,0,552.741,697.49)">
                            <path d="M-28.776,28.776L13.174,28.776" style="fill:rgb(239,244,238);fill-rule:nonzero;stroke:rgb(37,232,153);stroke-width:7px;"/>
                        </g>
                        <g transform="matrix(0,-2,-2,0,526.603,854.628)">
                            <path d="M-15.707,15.707L15.707,15.707" style="fill:rgb(239,244,238);fill-rule:nonzero;stroke:rgb(37,232,153);stroke-width:7px;"/>
                        </g>
                        <g transform="matrix(2,0,0,2,203.659,923.385)">
                            <path d="M0,0L308.341,0L0,0Z" style="fill:rgb(21,0,62);fill-rule:nonzero;"/>
                        </g>
                        <g transform="matrix(0,2,2,0,730.77,656.555)">
                            <path d="M1.732,-80.83L80.83,-80.83" style="fill:none;stroke:rgb(37,232,153);stroke-width:7px;"/>
                        </g>
                    </g>
                    <g transform="matrix(1,0,0,1,0,-21.5)">
                        <g transform="matrix(1.0359,0,0,0.961659,540.042,105.606)">
                            <path d="M0,27.069C0,12.119 -12.12,0 -27.07,0C-42.02,0 -54.139,12.119 -54.139,27.069" style="fill:none;stroke:rgb(21,0,62);stroke-width:12px;stroke-linecap:butt;stroke-linejoin:round;"/>
                        </g>
                        <g transform="matrix(1.0359,0,0,0.961659,436.98,345.655)">
                            <path d="M0,-99.1C-9.68,-85 -15.33,-67.94 -15.33,-49.55C-15.33,-31.16 -9.68,-14.1 0,0L-1.3,0C-28.66,0 -50.84,-22.19 -50.84,-49.55C-50.84,-63.23 -45.3,-75.62 -36.33,-84.59C-27.36,-93.55 -14.98,-99.1 -1.3,-99.1L0,-99.1Z" style="fill:rgb(21,0,62);fill-rule:nonzero;"/>
                        </g>
                        <g transform="matrix(1.0359,0,0,0.961659,639.685,298.004)">
                            <path d="M0,0C0,13.68 -5.54,26.07 -14.51,35.04C-23.479,44 -35.86,49.55 -49.54,49.55L-50.84,49.55C-41.16,35.45 -35.51,18.39 -35.51,0C-35.51,-18.39 -41.16,-35.45 -50.84,-49.55L-49.54,-49.55C-22.18,-49.55 0,-27.36 0,0" style="fill:rgb(21,0,62);fill-rule:nonzero;"/>
                        </g>
                        <g transform="matrix(1.0359,0,0,0.961659,584.763,235.447)">
                            <path d="M0,130.104L-140.482,130.104C-176.409,130.104 -205.534,100.979 -205.534,65.052C-205.534,29.125 -176.409,0 -140.482,0L0,0C35.927,0 65.052,29.125 65.052,65.052C65.052,100.979 35.927,130.104 0,130.104Z" style="fill:none;stroke:rgb(21,0,62);stroke-width:12px;stroke-linecap:butt;"/>
                        </g>
                        <g transform="matrix(1.0359,0,0,0.961659,602.9,298.004)">
                            <path d="M0,0C0,18.39 -5.65,35.45 -15.33,49.55L-160.17,49.55C-169.85,35.45 -175.5,18.39 -175.5,0C-175.5,-18.39 -169.85,-35.45 -160.17,-49.55L-15.33,-49.55C-5.65,-35.45 0,-18.39 0,0" style="fill:rgb(15,206,124);fill-rule:nonzero;"/>
                        </g>
                        <g transform="matrix(1.0359,0,0,0.961659,563.325,287.724)">
                            <path d="M0,0.001C0,13.13 -10.644,23.773 -23.773,23.773C-36.902,23.773 -47.546,13.13 -47.546,0.001C-47.546,-13.128 -36.902,-23.772 -23.773,-23.772C-10.644,-23.772 0,-13.128 0,0.001" style="fill:white;fill-rule:nonzero;"/>
                        </g>
                        <g transform="matrix(1.0359,0,0,0.961659,580.921,321.902)">
                            <path d="M0,0C0,5.309 -4.304,9.612 -9.612,9.612C-14.921,9.612 -19.224,5.309 -19.224,0C-19.224,-5.309 -14.921,-9.612 -9.612,-9.612C-4.304,-9.612 0,-5.309 0,0" style="fill:white;fill-rule:nonzero;"/>
                        </g>
                        <g transform="matrix(1.0359,0,0,0.961659,409.357,521.429)">
                            <path d="M0,-172.666L0,0.667L198.173,0.667L198.173,-173.333" style="fill:none;stroke:rgb(21,0,62);stroke-width:12px;stroke-linecap:butt;"/>
                        </g>
                        <g transform="matrix(1.0359,0,0,0.961659,614.643,128.752)">
                            <path d="M0,117.678L0,99.087C0,44.363 -44.362,0 -99.086,0C-153.811,0 -198.173,44.363 -198.173,99.087L-198.173,117.081" style="fill:none;stroke:rgb(21,0,62);stroke-width:12px;stroke-linecap:butt;"/>
                        </g>
                        <g transform="matrix(-1.0359,0,0,0.961659,1547.9,-833.313)">
                            <rect x="922.594" y="1302.28" width="154.812" height="65.628" style="fill:rgb(255,206,8);stroke:rgb(21,0,62);stroke-width:12px;stroke-linecap:butt;stroke-linejoin:round;"/>
                        </g>
                        <g transform="matrix(1.0359,0,0,0.961659,592.185,445.307)">
                            <path d="M0,16C-11.056,16 -11.056,0 -22.112,0C-33.17,0 -33.17,16 -44.228,16C-55.285,16 -55.285,0 -66.343,0C-77.4,0 -77.4,16 -88.458,16C-99.516,16 -99.516,0 -110.574,0C-121.634,0 -121.634,16 -132.693,16C-143.753,16 -143.753,0 -154.812,0" style="fill:none;stroke:rgb(21,0,62);stroke-width:12px;"/>
                        </g>
                        <g transform="matrix(1,0,0,1,-3003,-2548)">
                            <path d="M3412.36,3070.07C3412.36,3070.07 3384.19,3085.7 3361.17,3105.65C3337.86,3125.85 3322.16,3149.58 3322.16,3149.58L3707.91,3149.58C3707.91,3149.58 3692.14,3125.85 3668.83,3105.65C3645.81,3085.7 3617.64,3070.07 3617.64,3070.07" style="fill:none;stroke:rgb(21,0,62);stroke-width:11.98px;stroke-linecap:butt;"/>
                        </g>
                        <g transform="matrix(0.0920287,-0.957857,-1.0318,-0.0854333,615.853,77.9171)">
                            <path d="M-62.143,67.932L74.261,67.932" style="fill:none;stroke:rgb(21,0,62);stroke-width:12px;stroke-linecap:butt;"/>
                        </g>
                        <g transform="matrix(-0.616331,-0.772929,-0.832599,0.572161,470.683,60.0338)">
                            <path d="M-67.47,34L17.133,34" style="fill:none;stroke:rgb(21,0,62);stroke-width:12px;stroke-linecap:butt;"/>
                        </g>
                        <g transform="matrix(0,0.961659,1.0359,0,423.172,37.7965)">
                            <circle cx="18.609" cy="0" r="18.609" style="fill:none;stroke:rgb(21,0,62);stroke-width:12px;stroke-linecap:butt;stroke-linejoin:round;"/>
                        </g>
                        <g transform="matrix(0,0.961659,1.0359,0,553.945,-30)">
                            <circle cx="18.609" cy="0" r="18.609" style="fill:none;stroke:rgb(21,0,62);stroke-width:12px;stroke-linecap:butt;stroke-linejoin:round;"/>
                        </g>
                        <g transform="matrix(1.0359,0,0,0.961659,396.688,562.329)">
                            <path d="M0,-40.793C1.107,-38.24 1.667,-35.443 1.585,-32.584C1.534,-30.795 1.231,-28.982 0.66,-27.198L-3.041,-15.74C-6.313,-5.58 -17.198,0 -27.358,-3.272C-31.928,-4.745 -35.563,-7.76 -37.895,-11.548" style="fill:none;stroke:rgb(255,206,8);stroke-width:12px;stroke-linecap:butt;"/>
                        </g>
                        <g transform="matrix(1.0359,0,0,0.961659,403.589,560.866)">
                            <path d="M0,44.609C-9.394,49.678 -21.118,46.173 -26.187,36.78L-31.904,26.188C-36.973,16.795 -33.468,5.07 -24.075,0.001C-14.682,-5.069 -2.957,-1.564 2.112,7.83L7.829,18.422C12.898,27.815 9.393,39.54 0,44.609Z" style="fill:none;stroke:rgb(255,206,8);stroke-width:12px;stroke-linecap:butt;"/>
                        </g>
                        <g transform="matrix(1.0359,0,0,0.961659,453.167,602.863)">
                            <path d="M0,26.594C-5.6,35.681 -17.506,38.508 -26.593,32.907L-36.84,26.593C-45.927,20.992 -48.753,9.086 -43.153,-0.001C-37.553,-9.088 -25.647,-11.914 -16.56,-6.314L-6.313,0.001C2.773,5.601 5.6,17.507 0,26.594Z" style="fill:none;stroke:rgb(255,206,8);stroke-width:12px;stroke-linecap:butt;"/>
                        </g>
                        <g transform="matrix(1.0359,0,0,0.961659,510.792,628.83)">
                            <path d="M0,1.455C-0.307,12.124 -9.204,20.525 -19.874,20.219L-31.905,19.873C-42.575,19.567 -50.976,10.67 -50.669,0C-50.363,-10.67 -41.465,-19.07 -30.796,-18.764L-18.764,-18.419C-8.095,-18.112 0.306,-9.214 0,1.455Z" style="fill:none;stroke:rgb(255,206,8);stroke-width:12px;stroke-linecap:butt;"/>
                        </g>
                        <g transform="matrix(1.0359,0,0,0.961659,564.233,632.405)">
                            <path d="M0,-8.997C1.894,1.507 -5.085,11.559 -15.59,13.453L-27.436,15.589C-37.94,17.484 -47.991,10.504 -49.886,0C-51.78,-10.505 -44.8,-20.556 -34.296,-22.451L-22.45,-24.587C-11.946,-26.481 -1.895,-19.501 0,-8.997Z" style="fill:none;stroke:rgb(255,206,8);stroke-width:12px;stroke-linecap:butt;"/>
                        </g>
                        <g transform="matrix(1.0359,0,0,0.961659,609.603,617.533)">
                            <path d="M0,-24.075C5.069,-14.682 1.564,-2.957 -7.829,2.112L-18.421,7.828C-27.814,12.898 -39.539,9.393 -44.608,0C-49.678,-9.394 -46.172,-21.118 -36.779,-26.187L-26.187,-31.904C-16.794,-36.973 -5.069,-33.469 0,-24.075Z" style="fill:none;stroke:rgb(255,206,8);stroke-width:12px;stroke-linecap:butt;"/>
                        </g>
                        <g transform="matrix(1.0359,0,0,0.961659,640.369,591.258)">
                            <path d="M0,-40.234C8.472,-33.741 10.077,-21.61 3.584,-13.138L-3.737,-3.584C-10.229,4.888 -22.361,6.493 -30.833,0C-39.306,-6.492 -40.91,-18.624 -34.417,-27.096L-27.096,-36.65C-20.604,-45.122 -8.472,-46.727 0,-40.234Z" style="fill:none;stroke:rgb(255,206,8);stroke-width:12px;stroke-linecap:butt;"/>
                        </g>
                        <g transform="matrix(1.0359,0,0,0.961659,659.256,527.711)">
                            <path d="M0,19.07C-3.86,22.171 -8.909,23.797 -14.225,23.204C-24.296,22.074 -31.69,13.408 -31.405,3.463C-31.39,2.923 -31.344,2.383 -31.289,1.845L-30.56,-4.727" style="fill:none;stroke:rgb(255,206,8);stroke-width:12px;stroke-linecap:butt;"/>
                        </g>
                    </g>
                </g>
            </g>
        </g>
    </g>
</svg>
