<svg id="Layer_1" data-name="Layer 1" xmlns="http://www.w3.org/2000/svg" viewBox="0 0 350 350">
  <defs>
    <style>
      .cls-1 {
        fill: #e571ab;
      }

      .cls-2 {
        fill: #f1f2f2;
      }
    </style>
  </defs>
  <g id="Frame_2">
    <rect class="cls-1" x="0.36" width="350" height="350"/>
    <g>
      <path class="cls-2" d="M235.87,92.88c.42-1.06.09-3,2.29-1.92l.84,3.12c0,.56-.06,1.12-.08,1.68-1-.08-2-2.22-3,0C235.93,94.81,235.9,93.84,235.87,92.88Z"/>
      <path class="cls-2" d="M261.8,241.72c-1.85-1.08-1.57-2.9-1.62-4.62C264.85,237.18,261.08,240.24,261.8,241.72Z"/>
      <g>
        <path class="cls-2" d="M272.61,171.78c-1.08,5.53,1,12.13,6,10.65,3.8-1.14,2.87.13,3.64,1.73.11.23.18.48.27.71-8-1.17-2.13,11.29-10.2,10.36-2.24-.26-1,3.84-4.55,4.48.73-6.36,1-12.61,2.33-18.63.71-3.18-3.38-7.51,2.05-9.6Z"/>
        <path class="cls-2" d="M69.36,176.58c-.84-4.84.76-8.64.46-12.74-.33-4.45,4.6-9.41-2.18-13.06-.64-.35-.15-3.94.68-5.59.73-1.45,2.66-.59,4.05,0,2,.81,3.53,2.09,3,4.54-2.31,9.9-2.68,19.93-2.14,30.05.08,1.48-.61,3.38-2.24,3.22s-1.85-1.87-1.44-3.59A7.35,7.35,0,0,0,69.36,176.58Z"/>
        <path class="cls-2" d="M246.53,250.89l-2.95,3c-2.69,2.38-3.88-2.2-6.24-1.36-.54-6.41,5.21-12.58,13.22-14.21.2.63.38,1.26.57,1.89-.72.23-1.89-.47-2,1l1.28,0c3-.57,2-2.95,2.12-4.78h-.15l.92-1.3L256,237c-.11,1-.21,2-.31,2.95l-1.53,1.86c-1.47,1.87-2.95,3.73-4.43,5.6l-.43.55c-.41.46-.83.91-1.25,1.36Z"/>
        <path class="cls-2" d="M182.88,279.78a29.81,29.81,0,0,1-4.3,1.1c-1.52.16-3.5-.57-3.64-1.85-.28-2.7,2.87-.47,4-1.92-2.34-2.77-5-1.95-7.62-1.29-1.9.49-4.32,1.85-4.61-1.32-.22-2.44,2.15-1.78,3.89-2A43.16,43.16,0,0,1,186,273.63C183.39,274.88,185.79,278.68,182.88,279.78Z"/>
        <g>
          <path class="cls-2" d="M106.3,91.48c-1.41,1.45-.62,3.18-.77,4.83-.22,2.61-1.08,5.23-4.58,2.78-2-1.4-3.15.52-2.48,1.38,4.77,6.11-1.64,6.56-4.22,8.94L92,108c-.23-1.74.05-3.66-1.7-4.86-4.07-4.57-.78-6.21,3.08-6.82,4.65-.73,8-2.38,9-8.3-3.69,1.43-3.69,6.35-8,5.58.79-4.76,5-6.83,8.13-8.84,3.93-2.49,2.05,2.24,3,3.6C105.73,89.37,106,90.43,106.3,91.48Z"/>
          <path class="cls-2" d="M76.72,138.38c.71,1.54,2.19,3.24.28,4.69-2.12,1.61-1.85-1.76-3-1.83a25.69,25.69,0,0,1-11.11-3.13c7.33.59,9.49-3.27,11.5-7.55.85-1.8,2.33-5.21,3.88-.22l.06,3.31-1.57,1.27C76.71,136.07,76.71,137.23,76.72,138.38Z"/>
          <path class="cls-2" d="M79.45,220.62c-2.6,1.67-3.59-1.73-5.49-.12-3.78,3.2-2.17-1.44-3.18-2.27,4.34-1.78,2.42-6.29,4-9.25.73-1.34,2.2-2.3,3.58-1.75.63.25.58,2.15.89,3.29.59,2.11-3,2.79-1.66,5.27A34.05,34.05,0,0,1,79.45,220.62Z"/>
        </g>
        <path class="cls-2" d="M108.49,87.91c1.59-6.47,9.51-4,12-9.17-1.11,9.92-1.11,9.92-11.73,9.42Z"/>
        <path class="cls-2" d="M272.11,171.48c-3.14-2.13-2.43-5.6-2.8-8.61-.16-1.34,1.25-3.86,2.37-2.3,2.15,3,5.53-3,6.53,1.36.45,1.93.19,4.5-2.68,4.27-5.75-.47.58,5.1-2.93,5.58Z"/>
        <path class="cls-2" d="M269.23,218.76c-.12-1-.5-2.25-1.57-2.16-2.81.23-6.12.88-5.66-3.37.55-5.13,4.31-2.23,6.89-2.13,1,4.55,2.33.33,3.51.15l0,0c-.48,2.56-1,5.11-1.45,7.66l-.06.07Z"/>
        <path class="cls-2" d="M136.54,80c-2.92,1.47-6.09,1.86-8.43,4.06a2.29,2.29,0,0,1-3.78-.65c-.69-1.63.41-2.63,2-3.26C129.63,78.89,132.75,76.32,136.54,80Z"/>
        <path class="cls-2" d="M257.87,119.9c1.48,2.47.07,3.63-1.71,2.09-2.46-2.15-3.69-5.38-1-8.59,1.88,2.13,3.76,2.87,5.62,0,.38,1,.75,2,1.12,3.08-2.51,1-.92,2.87-1,4.39Z"/>
        <path class="cls-2" d="M195.06,71.14c-4.56,0-2.17-6.66-6.43-6.72a12.37,12.37,0,0,1,3.06-1.89c1.58-.44,3.39,0,2.74,2.13C193.71,67,196.51,68.71,195.06,71.14Z"/>
        <path class="cls-2" d="M270.91,218.89c.48-2.55,1-5.1,1.45-7.66C274.2,214.23,276.46,217.31,270.91,218.89Z"/>
        <path class="cls-2" d="M272.4,211.25c-1.18.18-2.53,4.4-3.51-.15.32-1.13.25-2.69,1.94-2.63S272.22,210.12,272.4,211.25Z"/>
        <path class="cls-2" d="M79.27,224.06c.65.86,1.31,1.36,1.36,1.93.05.42-.69.92-1.08,1.39-.4-.49-1-.93-1.15-1.47S78.85,224.88,79.27,224.06Z"/>
        <g>
          <g>
            <path class="cls-2" d="M105.57,255.47c5.16-4.73,8.43-.51,11.93,2.63-4-.53-8.26-.24-11.9-2.67Z"/>
            <path class="cls-2" d="M264.17,225.63c.42,2.41,4.22-1.22,3.87,2.48-.2,2.1-1.1,3.11-3.18,3.14s-3.07-1.27-3.12-3.23C261.7,226.43,262.15,225.16,264.17,225.63Z"/>
            <g>
              <g>
                <path class="cls-2" d="M233,89.35l-.06,2.37a1.15,1.15,0,0,1-.85.85c-3.49-.95-7.37-1.55-5-6.9.15-.36-1.22-1.38-1.88-2.1.58-1.06,1.15-2.12,1.72-3.18,1.64,0,3.37-.33,4.57,1.27-.9,2-4.44,5,1.54,4.74h-.1C232.91,87.38,232.94,88.37,233,89.35Z"/>
                <path class="cls-2" d="M255.7,240c.1-1,.2-2,.31-2.95a7,7,0,0,0,.8.11l2.06,0a9.51,9.51,0,0,0,1.31-.05c.05,1.72-.23,3.54,1.62,4.62l2.67-.31c-.44,3.12-.47,6.4-1.52,9.29-.46,1.27-1.64-1.09-2.71-1.35l0,0c.73-3.79-.84-6-4.56-6.83Z"/>
                <path class="cls-2" d="M117.72,267.58c-.4-3.89,3.92-3.18,5.35-5.45.8-1.27,2.9-1.14,4.07,0,1.92,1.8.78,2.55-1.14,3.68-1.49.88.37,4.08-2.11,5.16-1.06-2-3-1.84-4.8-1.87l-1.44-1.54Z"/>
                <path class="cls-2" d="M182.88,279.78c2.91-1.1.51-4.9,3.12-6.15a10.41,10.41,0,0,0,1.48,0c3,.12,3.47,2.59,4.42,4.64-3.49,1.65-7.64,2.37-9,7C180.24,283,182.54,281.46,182.88,279.78Z"/>
                <path class="cls-2" d="M275.41,156.46c-6.87,1.39-7.08-3.94-8.57-9.06,4.69,1.9,9.35,2.77,8.52,9.11Z"/>
                <path class="cls-2" d="M248.06,97.28c.6-1.86-1.82-3.6,0-5.88,3,2.08,5.86,4.13,6.3,8.2a3.13,3.13,0,0,1-.77.77c-2.58,2.06-5,3.65-5.26-1.67A6.23,6.23,0,0,1,248.06,97.28Z"/>
                <path class="cls-2" d="M141.36,70.8c4.09-1.54,5.79-4.75,8.26-3.66s5.45,5,4.14,6.82c-2.29,3.2-2.59-2.25-4.62-2.43Z"/>
                <path class="cls-2" d="M261.67,126c1.77,0,3.72-.57,4.66,1.69,0,.91,0,1.81,0,2.72-.39,2.34.9,4.87-1.35,7.86-1.07-4.54-4.69-7.59-3.3-12.31Z"/>
                <path class="cls-2" d="M214.48,74.42c3.48-1.07,7-2.1,10.69-1.85l.36.37c0,4.76-6.75,1.9-7.07,6.31l-3.77-3.54A6.94,6.94,0,0,0,214.48,74.42Z"/>
              </g>
              <path class="cls-2" d="M226.86,80.39c-.57,1.06-1.14,2.12-1.72,3.18-3.18,1.38-6.33,3.89-10.55-.7Z"/>
              <path class="cls-2" d="M252.37,106c.08-2,2-3.52,1.21-5.67a3.13,3.13,0,0,0,.77-.77c6,1.78,3.09,6.16,2.82,9.77l-2.37-.11-2.16.06Z"/>
              <path class="cls-2" d="M86,114.07l-.44,0-.37-.26-3.85.13c-1.68-5-.84-8.78,4.71-10.43,3.2,2.2-7.55,5.13.38,7.08C86.3,111.78,86.15,112.92,86,114.07Z"/>
              <path class="cls-2" d="M239,258.55l-6,1.82c-.58-1.51-1.74-1.81-3.18-1.54l0-.62c-.47-.88-.93-1.77-1.39-2.65.73-.91,1.88-3.47,2.61-1.57,1.81,4.74,4.2.89,6.26,1.06C238.68,255.78,238.94,257.11,239,258.55Z"/>
              <path class="cls-2" d="M239,258.55c0-1.44-.3-2.77-1.75-3.5,0-.85.07-1.7.11-2.55,2.36-.84,3.55,3.74,6.24,1.36l0,0c.09,1.33.35,2.57,1.65,3.28-.37,2.59-2.26,2.9-4.34,2.93l-2-.18A8.29,8.29,0,0,1,239,258.55Z"/>
              <path class="cls-2" d="M92.62,233.33c.46,1.36.87,2.73,1.39,4.06.64,1.66,4.47,1.67,2.72,4.41-1.34,2.08-3.68-3.28-5.42.21-2.28-1.53.17-2.95.09-4.43s-.31-2.76-.47-4.14Z"/>
              <path class="cls-2" d="M201.06,273.79c1.89.13,5-.45,4.09,2.54-.58,1.86-1.09,5.33-4.15,5.41-2.34.06-1.08-2.26-1.39-3.53C201.28,277.13,201,275.41,201.06,273.79Z"/>
              <path class="cls-2" d="M119.09,269.07c1.83,0,3.74-.14,4.8,1.87-.53,4.06-3.85,2.31-6,2.92l-.3-.3c1-2-3.32-4.09.17-6l-.07-.05Z"/>
            </g>
            <path class="cls-2" d="M260.24,249.35c-.42,1.43-.84,2.87-1.27,4.3l-.46.47c-1.64-1.24-5,3.43-5.15-.86-.17-3.88,3.64-4.15,6.84-4Z"/>
            <path class="cls-2" d="M243.59,97.4c-.06,1.91.24,4.75-2,4.77-2.62,0-4.27-2.64-5.68-4.88l3-.18h3.24A3.21,3.21,0,0,1,243.59,97.4Z"/>
            <path class="cls-2" d="M86,114.07c.14-1.15.29-2.29.43-3.44l.17.09c1.84-.18,2.26-1.4,2.18-3l0,0c1.9-1.07,1.6-2.88,1.54-4.61l-.06,0c1.75,1.2,1.47,3.12,1.7,4.86-.79,1.66-2.56,3-1.56,5.23l0-.13-3.1.82C86.91,113.93,86.46,114,86,114.07Z"/>
            <path class="cls-2" d="M87.46,241.75l2.48,5.82c-4.32.15-5-2.82-6.14-5.26l3.47-.71Z"/>
            <path class="cls-2" d="M201.06,273.79c0,1.62.22,3.34-1.45,4.42l-4.13-6.54C198.86,269.43,199.45,272.75,201.06,273.79Z"/>
            <path class="cls-2" d="M141.34,274.65c4.18,1.67,2.28,4.31,1.78,7.63C139.08,280,142.66,276.73,141.34,274.65Z"/>
            <path class="cls-2" d="M84.26,116.89c5.08,3.73,1.14,6.5-1,9.46a5.11,5.11,0,0,1-.75-.54l.27-5.9a2.72,2.72,0,0,1-.2-1.41l1.71-1.65Z"/>
            <path class="cls-2" d="M215.69,264.45c2.24-2.61,2.24-2.61,5.66,1.45l0,0c.41,3.22-2.82,3.08-4.21,4.62,1.35-1,.9-2.29.69-3.55.76-.42,2-.55,1.74-1.76s-1-.51-1.64-.32Z"/>
            <path class="cls-2" d="M217.81,266.94c.21,1.26.66,2.57-.69,3.55-3.24,2.28-3.4-2.82-5.84-2.44,1.29-1.33,3.74-1.39,4.12-3.73l.29.13,2.22.41Z"/>
            <path class="cls-2" d="M82.59,118.5a2.72,2.72,0,0,0,.2,1.41c-8.4,0,1.75-4.61-1.44-5.93l3.85-.13c-.31,1-.62,2-.94,3l0,0C83.56,117.23,82,116.73,82.59,118.5Z"/>
            <path class="cls-2" d="M221.33,265.87l0,0,.88-1.49c2,.11,3-.88,3.14-2.8.13-.57.27-1.14.4-1.71,1.35,1.64,3.33,3.51,1.68,5.54C226,267.24,223.43,266.23,221.33,265.87Z"/>
            <path class="cls-2" d="M252.37,106l.27,3.28c-1.86.7-.8,2.48-1.94,3.58C249.93,110.4,248.12,107.74,252.37,106Z"/>
            <path class="cls-2" d="M215.4,264.32c-.38,2.34-2.83,2.4-4.12,3.73-1.17,1.17-2.26,1.38-3.17-.29.11-.6.23-1.2.34-1.81C211,266.5,212.68,263.14,215.4,264.32Z"/>
            <path class="cls-2" d="M257.87,119.9l3,.95.4.2c-1.56,1.8.77,3.27.41,5l0,0C257.57,125.77,257.28,123.11,257.87,119.9Z"/>
            <path class="cls-2" d="M261.26,121.05l-.4-.2c.11-1.51-1.48-3.43,1-4.38,1.84.46,1.33,2.52,2.41,3.54s1.12,2.38-.29,2.92S261.75,122.34,261.26,121.05Z"/>
            <path class="cls-2" d="M233,86.4c-6,.21-2.44-2.7-1.54-4.74l4.53.26c0,.5,0,1,0,1.51C234,83.42,232.87,84.3,233,86.4Z"/>
            <path class="cls-2" d="M271.41,141.29c-.39,1-.66,2.34-2.11,2.5-1.05.11-2.26-.66-1.91-1.54s1.67-1.59,2.7-2.1C270.74,139.83,271.43,140.25,271.41,141.29Z"/>
            <path class="cls-2" d="M269.23,218.76l1.62.2c-.24,1.61-.49,3.23-.73,4.84-.43-.16-1-.21-1.27-.51C267.4,221.68,268,220.18,269.23,218.76Z"/>
            <path class="cls-2" d="M191.9,278.31c-1-2.05-1.46-4.52-4.42-4.64,1.13-1.89,2.87-2.07,4-.48C192.45,274.54,195.29,276.36,191.9,278.31Z"/>
          </g>
          <path class="cls-2" d="M246.53,250.89l1.53-1.55c1.13.21,1.31-.46,1.25-1.36l.43-.55c.65.76,3-.33,2.31,1.66C251.11,251.75,248.69,251.25,246.53,250.89Z"/>
          <path class="cls-2" d="M205.07,77.91c-.11,1.38-.78,1.65-1.46,1.26a12.59,12.59,0,0,1-2-1.8c.51-.36,1.2-1.13,1.49-1A9.25,9.25,0,0,1,205.07,77.91Z"/>
          <path class="cls-2" d="M138.91,267.59c1.37.12,3.09-.58,3.7,1.34.1.33-.69,1.33-1.17,1.4-2.07.34-2.34-1.21-2.53-2.75Z"/>
          <path class="cls-2" d="M262.53,234.68l8.73-1C268.43,236.17,266.42,235.51,262.53,234.68Z"/>
          <path class="cls-2" d="M260.77,113.39c-1.86,2.88-3.74,2.14-5.62,0,.22-.4.43-.8.63-1.21l3,.17Z"/>
          <path class="cls-2" d="M87.71,233.26c-1.5,1.24-3.39,1.17-3.88-.1-.75-2,1-1.63,2.11-1.18A8.94,8.94,0,0,1,87.71,233.26Z"/>
          <path class="cls-2" d="M70.28,132.36c-.42.13-1.24.62-1.51.41a2.18,2.18,0,0,1-.72-1.76c.07-.45.94-1.2,1.3-1.12C70.42,130.12,70.62,131.06,70.28,132.36Z"/>
          <path class="cls-2" d="M197.12,73.41c1.46-.26,2.23.32,2.25,1.45,0,.51-.88,1.51-1.05,1.44a13.66,13.66,0,0,1-2.41-1.41Z"/>
          <path class="cls-2" d="M105.6,255.43c-1.38-.32-3.08-.4-2.27-2.59.13-.38.73-.92,1-.86,2.12.5.82,2.31,1.25,3.49Z"/>
          <path class="cls-2" d="M90.43,113.19c-1-2.2.77-3.57,1.56-5.23l2.26,1.45C93.87,111.58,93.29,113.54,90.43,113.19Z"/>
          <path class="cls-2" d="M225.37,261.61c-.18,1.92-1.18,2.91-3.14,2.8,0-1.49.07-3,.1-4.48Z"/>
          <path class="cls-2" d="M138.61,73.82l-.68-1,1.48-.79c.13.4.45.9.32,1.2S139,73.61,138.61,73.82Z"/>
        </g>
      </g>
      <g>
        <path class="cls-2" d="M245.2,257.12c-1.3-.71-1.56-2-1.65-3.28C245.64,254.15,247.54,254.57,245.2,257.12Z"/>
        <path class="cls-2" d="M248.06,97.28a6.23,6.23,0,0,0,.26,1.42c-.43.87-1,1.58-2.09,1.3-1.55-.42-1.11-1.69-1-2.78l-.17.17Z"/>
        <path class="cls-2" d="M74.75,123.52,73.2,125.2a5.77,5.77,0,0,1-1-1.62c-.09-.37.34-.87.55-1.32Z"/>
        <path class="cls-2" d="M105.94,262.45c-.42-.18-1.06-.27-1.18-.57s.29-.81.47-1.22c.41.18,1.06.27,1.17.56S106.11,262,105.94,262.45Z"/>
        <path class="cls-2" d="M243.59,97.4a3.21,3.21,0,0,0-1.46-.29c0-1,0-2,0-3.07l-.16.08c2.69-.5,3.43.87,3.1,3.26l.17-.16Z"/>
        <path class="cls-2" d="M235.87,92.88l.09,2.89,0-.08c-1.92-.26-3.62-.78-3.85-3.12a1.15,1.15,0,0,0,.85-.85Z"/>
        <g>
          <path class="cls-2" d="M266.35,130.43c0-.91,0-1.81,0-2.72l2.5.6C268.16,129.2,267.86,130.54,266.35,130.43Z"/>
          <path class="cls-2" d="M228.36,255.56c.46.88.92,1.77,1.39,2.65-1-.08-2.37,1.08-2.83-.7C226.65,256.48,227.32,255.8,228.36,255.56Z"/>
          <path class="cls-2" d="M252.51,236.41c-.16,1.83.89,4.21-2.12,4.78a4,4,0,0,0,.74-1c-.19-.63-.37-1.26-.57-1.89Z"/>
          <path class="cls-2" d="M214.48,74.42a6.94,6.94,0,0,1,.21,1.29l-2.58,1-.3-2Z"/>
          <path class="cls-2" d="M235.92,95.69l0,.08c1-2.23,2-.09,3,0a10.14,10.14,0,0,1,0,1.35l-3,.18C235.9,96.76,235.91,96.23,235.92,95.69Z"/>
          <path class="cls-2" d="M247.37,105.35a7.8,7.8,0,0,1,.47,1.27c0,.12-.35.31-.55.46a8.39,8.39,0,0,1-.46-1.27C246.81,105.7,247.18,105.51,247.37,105.35Z"/>
          <path class="cls-2" d="M270.42,133.91c-.18.05-.46.19-.51.13a1.64,1.64,0,0,1-.2-.6c.17-.05.46-.19.51-.13A1.58,1.58,0,0,1,270.42,133.91Z"/>
          <g>
            <path class="cls-2" d="M229.77,258.83c1.44-.27,2.6,0,3.18,1.54C230.84,262.06,230.25,260.56,229.77,258.83Z"/>
            <path class="cls-2" d="M116,262.21c-.55.67-.89,1.46-1.44,1.66-1.54.57-1.43-.79-1.35-1.6,0-.49.79-1.35,1.08-1.29C114.86,261.09,115.35,261.71,116,262.21Z"/>
            <path class="cls-2" d="M132.16,266.64c-.5.19-1.17.55-1.25.45a3.65,3.65,0,0,1-.9-1.74c0-.71.43-1.44,1.21-.63A6.87,6.87,0,0,1,132.16,266.64Z"/>
            <path class="cls-2" d="M239,94.08,238.16,91c1.84.36,4.56-.35,3.79,3.16l.16-.08Z"/>
            <path class="cls-2" d="M87.36,113.88l3.1-.82c.51,1.48.69,3.07-1.27,3.33C87.69,116.58,87.39,115.16,87.36,113.88Z"/>
            <path class="cls-2" d="M252.36,236.42c-1.31.36-2.52.06-2.67-1.33-.07-.61.89-1.7,1.6-2,1.68-.6,1.85.78,2,2Z"/>
            <path class="cls-2" d="M208.45,266c-.11.61-.23,1.21-.34,1.81l-1.69-1.11Z"/>
            <g>
              <g>
                <g>
                  <path class="cls-2" d="M258.76,112.36l-3-.17c-.19-1,.29-2.28-1-2.93l2.37.11C258.54,109.92,258.63,111.15,258.76,112.36Z"/>
                  <path class="cls-2" d="M76.72,138.38c0-1.15,0-2.31,0-3.46,1.05.31,2.66,0,2.65,1.68S77.86,138.16,76.72,138.38Z"/>
                  <path class="cls-2" d="M106.3,91.48c-.29-1-.57-2.11-.86-3.16l3-.41.26.25A3.86,3.86,0,0,1,106.3,91.48Z"/>
                  <path class="cls-2" d="M233,89.35c0-1-.07-2-.11-2.95,1,.25,2.66-.45,2.7,1.28C235.61,89.21,234.22,89.36,233,89.35Z"/>
                </g>
                <path class="cls-2" d="M266.76,244.15c.49.64.95,1,.91,1.25a22.17,22.17,0,0,1-.73,2.62,4,4,0,0,1-.56-1.32A15.7,15.7,0,0,1,266.76,244.15Z"/>
                <path class="cls-2" d="M210.08,74.38c-.16.26-.18,1.33-1.18.76-.52-.29-.82-1-1.21-1.48.52-.32,1-.89,1.56-.91S210.62,73.14,210.08,74.38Z"/>
                <path class="cls-2" d="M209.26,275.55l.53-1.26c.41.19,1,.29,1.16.6s-.28.81-.46,1.22Z"/>
                <path class="cls-2" d="M90.35,103.14c.06,1.73.36,3.54-1.54,4.61C88.85,106.05,88.39,104.19,90.35,103.14Z"/>
                <path class="cls-2" d="M78.28,133.65l-.06-3.31c1.18.66,2.52,1.21,2.58,2.78A14.37,14.37,0,0,1,78.28,133.65Z"/>
                <path class="cls-2" d="M78.13,123.82l-.68,1.09c-.19-.39-.53-.78-.52-1.17s.4-.73.62-1.1Z"/>
                <path class="cls-2" d="M86.69,227.05c-.28-.35-.79-.72-.73-1a4.89,4.89,0,0,1,.82-1.37c.19.38.52.77.51,1.15S86.92,226.63,86.69,227.05Z"/>
                <path class="cls-2" d="M225.37,261.61l-3-1.68c1.13-2.34,2.28-1.88,3.44,0C225.64,260.47,225.5,261,225.37,261.61Z"/>
              </g>
              <path class="cls-2" d="M87.27,241.6l.77-3.26c.19.13.5.23.57.41a2.37,2.37,0,0,1-1.15,3Z"/>
              <path class="cls-2" d="M128.21,74.63c.25.29.74.64.68.83a1.56,1.56,0,0,1-.81,1c-1,.32-1.14-.41-.9-1.11C127.3,75,127.85,74.85,128.21,74.63Z"/>
              <path class="cls-2" d="M236,83.43c0-.5,0-1,0-1.51,1.1.18,2.85,0,2.39,1.67C238,84.78,236.78,83.55,236,83.43Z"/>
              <path class="cls-2" d="M68.33,210.31,68,209.8l.77-.41c0,.21.14.45.07.62S68.5,210.21,68.33,210.31Z"/>
              <path class="cls-2" d="M64,143.13c-.15,0-.4-.11-.4-.16a1.46,1.46,0,0,1,.15-.52c.14.06.41.11.41.17A1.67,1.67,0,0,1,64,143.13Z"/>
            </g>
          </g>
          <path class="cls-2" d="M83.27,126.35c-.3.74-.27,2.28-1.42,1.64-1-.56-.09-1.58.67-2.18A5.11,5.11,0,0,0,83.27,126.35Z"/>
          <path class="cls-2" d="M238.88,259.87l2,.18-1.19,2.29Z"/>
          <path class="cls-2" d="M113.29,267.23l-.57-.21.64-.63.44.46Z"/>
          <path class="cls-2" d="M230.81,268.21c-.32.26-.63.68-1,.72s-.52-.5-.78-.78c.17-.16.38-.48.52-.45A7.36,7.36,0,0,1,230.81,268.21Z"/>
          <path class="cls-2" d="M133.38,271.66c.17,0,.41,0,.48.06a1.5,1.5,0,0,1,.14.58l-.83-.09Z"/>
          <path class="cls-2" d="M96.27,253.61l-.59,1c-.16-.15-.49-.36-.46-.45a7.3,7.3,0,0,1,.56-1.07Z"/>
          <path class="cls-2" d="M272.68,228.23l.46.52a6.8,6.8,0,0,1-1.14.5c-.09,0-.29-.32-.44-.5Z"/>
          <path class="cls-2" d="M88.79,107.73c.08,1.59-.34,2.81-2.18,3C86.8,109.32,87.07,108,88.79,107.73Z"/>
          <path class="cls-2" d="M258.87,237.15l-2.06,0C257.51,235.75,258.2,235.41,258.87,237.15Z"/>
          <path class="cls-2" d="M275.36,156.51l.63.63c-.12,0-.3,0-.37-.14a2.89,2.89,0,0,1-.21-.54Z"/>
          <path class="cls-2" d="M225.17,72.57l.9-.53-.54.9Z"/>
          <path class="cls-2" d="M255.7,240l-.06,2.5-1.47-.64Z"/>
          <path class="cls-2" d="M117.85,273.86l-.77.89c-.94-.84,0-.92.47-1.19Z"/>
          <path class="cls-2" d="M259,253.65l.54,1-1-.56Z"/>
          <polygon class="cls-2" points="71.12 117.67 71.56 117.5 71.51 117.94 71.12 117.67"/>
          <path class="cls-2" d="M138.91,267.58l-.59-.32.59.33Z"/>
          <path class="cls-2" d="M251.13,240.18a4,4,0,0,1-.74,1l-1.28,0C249.24,239.71,250.41,240.41,251.13,240.18Z"/>
          <path class="cls-2" d="M249.31,248c.06.9-.12,1.57-1.25,1.36C248.48,248.89,248.9,248.44,249.31,248Z"/>
          <path class="cls-2" d="M119.09,269.07l-1.44-1.54Z"/>
          <path class="cls-2" d="M238.89,97.11a10.14,10.14,0,0,0,0-1.35c0-.56.05-1.12.08-1.68l3.11,0c0,1,0,2,0,3.07Z"/>
          <path class="cls-2" d="M82.59,118.5c-.61-1.77,1-1.27,1.71-1.65Z"/>
          <path class="cls-2" d="M217.81,266.94l.1-2.08c.61-.19,1.44-.74,1.64.32S218.57,266.52,217.81,266.94Z"/>
        </g>
      </g>
    </g>
  </g>
</svg>
