<svg id="Layer_1" data-name="Layer 1" xmlns="http://www.w3.org/2000/svg" viewBox="0 0 350 350">
  <defs>
    <style>
      .cls-1 {
        fill: #8056a3;
      }

      .cls-2 {
        fill: #f1f2f2;
      }
    </style>
  </defs>
  <g id="Frame_5">
    <rect class="cls-1" x="0.47" width="349.5" height="350.37"/>
    <g>
      <path class="cls-2" d="M238.21,92.9c.42-1.06.09-3,2.29-1.92l.84,3.12c0,.56-.06,1.12-.08,1.68-1-.08-2-2.22-3,0C238.27,94.83,238.24,93.86,238.21,92.9Z"/>
      <path class="cls-2" d="M264.14,241.74c-1.85-1.08-1.57-2.9-1.62-4.62C267.19,237.2,263.42,240.26,264.14,241.74Z"/>
      <g>
        <path class="cls-2" d="M275,171.8c-1.08,5.53,1,12.13,6,10.65,3.8-1.14,2.87.13,3.64,1.73.11.23.18.48.27.71-8-1.17-2.13,11.29-10.2,10.36-2.24-.26-1,3.84-4.55,4.48.73-6.36,1-12.61,2.33-18.63.71-3.18-3.38-7.51,2.05-9.6Z"/>
        <path class="cls-2" d="M71.7,176.6c-.84-4.84.76-8.64.46-12.74-.33-4.45,4.6-9.41-2.18-13.06-.64-.35-.15-3.94.68-5.59.73-1.45,2.66-.59,4,0,2.05.81,3.53,2.09,3,4.54-2.31,9.9-2.68,19.93-2.14,30,.08,1.48-.61,3.38-2.24,3.22s-1.85-1.87-1.44-3.59A7.35,7.35,0,0,0,71.7,176.6Z"/>
        <path class="cls-2" d="M248.87,250.91l-3,3c-2.69,2.38-3.88-2.2-6.24-1.36-.54-6.41,5.21-12.58,13.22-14.21.2.63.38,1.26.57,1.89-.72.23-1.89-.47-2,1l1.28,0c3-.57,2-3,2.12-4.78h-.15l.92-1.3,2.73,1.9c-.11,1-.21,2-.31,3l-1.53,1.86c-1.47,1.87-2.95,3.73-4.43,5.6l-.43.55c-.41.46-.83.91-1.25,1.36Z"/>
        <path class="cls-2" d="M185.22,279.8a29.81,29.81,0,0,1-4.3,1.1c-1.52.16-3.5-.57-3.64-1.85-.28-2.7,2.87-.47,4-1.92-2.34-2.77-5-1.95-7.62-1.29-1.9.49-4.32,1.85-4.61-1.32-.22-2.44,2.15-1.78,3.89-2a43.16,43.16,0,0,1,15.44,1.11C185.73,274.9,188.13,278.7,185.22,279.8Z"/>
        <g>
          <path class="cls-2" d="M108.64,91.5c-1.41,1.45-.62,3.18-.77,4.83-.22,2.61-1.08,5.23-4.58,2.78-2-1.4-3.15.52-2.48,1.38,4.77,6.11-1.64,6.56-4.22,8.94L94.33,108c-.23-1.74,0-3.66-1.7-4.86-4.07-4.57-.78-6.21,3.08-6.82,4.65-.73,8-2.38,9-8.3-3.69,1.43-3.69,6.35-8,5.58.79-4.76,5-6.83,8.13-8.84,3.93-2.49,2,2.24,3,3.6C108.07,89.39,108.35,90.45,108.64,91.5Z"/>
          <path class="cls-2" d="M79.06,138.4c.71,1.54,2.19,3.24.28,4.69-2.12,1.61-1.85-1.76-3-1.83a25.69,25.69,0,0,1-11.11-3.13c7.33.59,9.49-3.27,11.5-7.55.85-1.8,2.33-5.21,3.88-.22l.06,3.31-1.57,1.27C79.05,136.09,79.05,137.25,79.06,138.4Z"/>
          <path class="cls-2" d="M81.79,220.64c-2.6,1.67-3.59-1.73-5.49-.12-3.78,3.2-2.17-1.44-3.18-2.27,4.34-1.78,2.42-6.29,4-9.25.73-1.34,2.2-2.3,3.58-1.75.63.25.58,2.15.89,3.29.59,2.11-3.05,2.79-1.66,5.27A34.05,34.05,0,0,1,81.79,220.64Z"/>
        </g>
        <path class="cls-2" d="M110.83,87.93c1.59-6.47,9.51-4,12-9.17-1.11,9.92-1.11,9.92-11.73,9.42Z"/>
        <path class="cls-2" d="M274.45,171.5c-3.14-2.13-2.43-5.6-2.8-8.61-.16-1.34,1.25-3.86,2.37-2.3,2.15,3,5.53-3,6.53,1.36.45,1.93.19,4.5-2.68,4.27-5.75-.47.58,5.1-2.93,5.58Z"/>
        <path class="cls-2" d="M271.57,218.78c-.12-1-.5-2.25-1.57-2.16-2.81.23-6.12.88-5.66-3.37.55-5.13,4.31-2.23,6.89-2.13,1,4.55,2.33.33,3.51.15l0,0c-.48,2.56-1,5.11-1.45,7.66l-.06.07Z"/>
        <path class="cls-2" d="M138.88,80c-2.92,1.47-6.09,1.86-8.43,4.06a2.29,2.29,0,0,1-3.78-.65c-.69-1.63.41-2.63,2-3.26C132,78.91,135.09,76.34,138.88,80Z"/>
        <path class="cls-2" d="M260.21,119.92c1.48,2.47.07,3.63-1.71,2.09-2.46-2.15-3.69-5.38-1-8.59,1.88,2.13,3.76,2.87,5.62,0,.38,1,.75,2,1.12,3.08-2.51,1-.92,2.87-1,4.39Z"/>
        <path class="cls-2" d="M197.4,71.16c-4.56,0-2.17-6.66-6.43-6.72A12.37,12.37,0,0,1,194,62.55c1.58-.44,3.39,0,2.74,2.13C196.05,67,198.85,68.73,197.4,71.16Z"/>
        <path class="cls-2" d="M273.25,218.91c.48-2.55,1-5.1,1.45-7.66C276.54,214.25,278.8,217.33,273.25,218.91Z"/>
        <path class="cls-2" d="M274.74,211.27c-1.18.18-2.53,4.4-3.51-.15.32-1.13.25-2.69,1.94-2.63S274.56,210.14,274.74,211.27Z"/>
        <path class="cls-2" d="M81.61,224.08c.65.86,1.31,1.36,1.36,1.93s-.69.92-1.08,1.39c-.4-.49-1-.93-1.15-1.47S81.19,224.9,81.61,224.08Z"/>
        <g>
          <g>
            <path class="cls-2" d="M107.91,255.49c5.16-4.73,8.43-.51,11.93,2.63-4-.53-8.26-.24-11.9-2.67Z"/>
            <path class="cls-2" d="M266.51,225.65c.42,2.41,4.22-1.22,3.87,2.48-.2,2.1-1.1,3.11-3.18,3.14s-3.07-1.27-3.12-3.23C264,226.45,264.49,225.18,266.51,225.65Z"/>
            <g>
              <g>
                <path class="cls-2" d="M235.32,89.37l-.06,2.37a1.15,1.15,0,0,1-.85.85c-3.49-1-7.37-1.55-5-6.9.15-.36-1.22-1.38-1.88-2.1.58-1.06,1.15-2.12,1.72-3.18,1.64,0,3.37-.33,4.57,1.27-.9,2-4.44,4.95,1.54,4.74h-.1C235.25,87.4,235.28,88.39,235.32,89.37Z"/>
                <path class="cls-2" d="M258,240c.1-1,.2-2,.31-3a7,7,0,0,0,.8.11l2.06,0a9.51,9.51,0,0,0,1.31,0c.05,1.72-.23,3.54,1.62,4.62l2.67-.31c-.44,3.12-.47,6.4-1.52,9.29-.46,1.27-1.64-1.09-2.71-1.35l0-.05c.73-3.79-.84-6-4.56-6.83Z"/>
                <path class="cls-2" d="M120.06,267.6c-.4-3.89,3.92-3.18,5.35-5.45.8-1.27,2.9-1.14,4.07,0,1.92,1.8.78,2.55-1.14,3.68-1.49.88.37,4.08-2.11,5.16-1.06-2-3-1.84-4.8-1.87L120,267.55Z"/>
                <path class="cls-2" d="M185.22,279.8c2.91-1.1.51-4.9,3.12-6.15a10.41,10.41,0,0,0,1.48,0c3,.12,3.47,2.59,4.42,4.64-3.49,1.65-7.64,2.37-9,7C182.58,283,184.88,281.48,185.22,279.8Z"/>
                <path class="cls-2" d="M277.75,156.48c-6.87,1.39-7.08-3.94-8.57-9.06,4.69,1.9,9.35,2.77,8.52,9.11Z"/>
                <path class="cls-2" d="M250.4,97.3c.6-1.86-1.82-3.6,0-5.88,3,2.08,5.86,4.13,6.3,8.2a3.13,3.13,0,0,1-.77.77c-2.58,2.06-5,3.65-5.26-1.67A6.23,6.23,0,0,1,250.4,97.3Z"/>
                <path class="cls-2" d="M143.7,70.82c4.09-1.54,5.79-4.75,8.26-3.66s5.45,5,4.14,6.82c-2.29,3.2-2.59-2.25-4.62-2.43Z"/>
                <path class="cls-2" d="M264,126c1.77,0,3.72-.57,4.66,1.69,0,.91,0,1.81,0,2.72-.39,2.34.9,4.87-1.35,7.86-1.07-4.54-4.69-7.59-3.3-12.31Z"/>
                <path class="cls-2" d="M216.82,74.44c3.48-1.07,7-2.1,10.69-1.85l.36.37c0,4.76-6.75,1.9-7.07,6.31L217,75.73A6.94,6.94,0,0,0,216.82,74.44Z"/>
              </g>
              <path class="cls-2" d="M229.2,80.41c-.57,1.06-1.14,2.12-1.72,3.18-3.18,1.38-6.33,3.89-10.55-.7Z"/>
              <path class="cls-2" d="M254.71,106.06c.08-2,2-3.52,1.21-5.67a3.13,3.13,0,0,0,.77-.77c6,1.78,3.09,6.16,2.82,9.77l-2.37-.11-2.16.06Z"/>
              <path class="cls-2" d="M88.35,114.09l-.44,0-.37-.26-3.85.13c-1.68-5-.84-8.78,4.71-10.43,3.2,2.2-7.55,5.13.38,7.08C88.64,111.8,88.49,112.94,88.35,114.09Z"/>
              <path class="cls-2" d="M241.32,258.57l-6,1.82c-.58-1.51-1.74-1.81-3.18-1.54l0-.62c-.47-.88-.93-1.77-1.39-2.65.73-.91,1.88-3.47,2.61-1.57,1.81,4.74,4.2.89,6.26,1.06C241,255.8,241.28,257.13,241.32,258.57Z"/>
              <path class="cls-2" d="M241.32,258.57c0-1.44-.3-2.77-1.75-3.5,0-.85.07-1.7.11-2.55,2.36-.84,3.55,3.74,6.24,1.36l0,0c.09,1.33.35,2.57,1.65,3.28-.37,2.59-2.26,2.9-4.34,2.93l-2-.18A8.29,8.29,0,0,1,241.32,258.57Z"/>
              <path class="cls-2" d="M95,233.35c.46,1.36.87,2.73,1.39,4.06.64,1.66,4.47,1.67,2.72,4.41-1.34,2.08-3.68-3.28-5.42.21-2.28-1.53.17-2.95.09-4.43s-.31-2.76-.47-4.14Z"/>
              <path class="cls-2" d="M203.4,273.81c1.89.13,5-.45,4.09,2.54-.58,1.86-1.09,5.33-4.15,5.41-2.34.06-1.08-2.26-1.39-3.53C203.62,277.15,203.38,275.43,203.4,273.81Z"/>
              <path class="cls-2" d="M121.43,269.09c1.83,0,3.74-.14,4.8,1.87-.53,4.06-3.85,2.31-6,2.92l-.3-.3c1-2-3.32-4.09.17-6l-.07-.05Z"/>
            </g>
            <path class="cls-2" d="M262.58,249.37c-.42,1.43-.84,2.87-1.27,4.3l-.46.47c-1.64-1.24-5,3.43-5.15-.86-.17-3.88,3.64-4.15,6.84-4Z"/>
            <path class="cls-2" d="M245.93,97.42c-.06,1.91.24,4.75-2,4.77-2.62,0-4.27-2.64-5.68-4.88l3-.18h3.24A3.21,3.21,0,0,1,245.93,97.42Z"/>
            <path class="cls-2" d="M88.35,114.09c.14-1.15.29-2.29.43-3.44l.17.09c1.84-.18,2.26-1.4,2.18-3l0,0c1.9-1.07,1.6-2.88,1.54-4.61l-.06,0c1.75,1.2,1.47,3.12,1.7,4.86-.79,1.66-2.56,3-1.56,5.23l0-.13-3.1.82C89.25,114,88.8,114,88.35,114.09Z"/>
            <path class="cls-2" d="M89.8,241.77l2.48,5.82c-4.32.15-5-2.82-6.14-5.26l3.47-.71Z"/>
            <path class="cls-2" d="M203.4,273.81c0,1.62.22,3.34-1.45,4.42l-4.13-6.54C201.2,269.45,201.79,272.77,203.4,273.81Z"/>
            <path class="cls-2" d="M143.68,274.67c4.18,1.67,2.28,4.31,1.78,7.63C141.42,280,145,276.75,143.68,274.67Z"/>
            <path class="cls-2" d="M86.6,116.91c5.08,3.73,1.14,6.5-1,9.46a5.11,5.11,0,0,1-.75-.54l.27-5.9a2.72,2.72,0,0,1-.2-1.41l1.71-1.65Z"/>
            <path class="cls-2" d="M218,264.47c2.24-2.61,2.24-2.61,5.66,1.45l0,0c.41,3.22-2.82,3.08-4.21,4.62,1.35-1,.9-2.29.69-3.55.76-.42,2-.55,1.74-1.76-.2-1.06-1-.51-1.64-.32Z"/>
            <path class="cls-2" d="M220.15,267c.21,1.26.66,2.57-.69,3.55-3.24,2.28-3.4-2.83-5.84-2.44,1.29-1.33,3.74-1.39,4.12-3.73l.29.13,2.22.41Z"/>
            <path class="cls-2" d="M84.93,118.52a2.72,2.72,0,0,0,.2,1.41c-8.41-.05,1.75-4.61-1.44-5.93l3.85-.13c-.31,1-.62,2-.94,3l0,0C85.9,117.25,84.32,116.75,84.93,118.52Z"/>
            <path class="cls-2" d="M223.67,265.89l0,0,.88-1.49c2,.11,3-.88,3.14-2.8.13-.57.27-1.14.4-1.71,1.35,1.64,3.33,3.51,1.68,5.54C228.32,267.26,225.77,266.25,223.67,265.89Z"/>
            <path class="cls-2" d="M254.71,106.06l.27,3.28c-1.86.7-.8,2.48-1.94,3.58C252.27,110.42,250.46,107.76,254.71,106.06Z"/>
            <path class="cls-2" d="M217.74,264.34c-.38,2.34-2.83,2.4-4.12,3.73-1.17,1.17-2.26,1.38-3.17-.29.11-.6.23-1.2.34-1.81C213.36,266.52,215,263.16,217.74,264.34Z"/>
            <path class="cls-2" d="M260.21,119.92l3,1,.4.2c-1.56,1.8.77,3.27.41,5l0,0C259.91,125.79,259.62,123.13,260.21,119.92Z"/>
            <path class="cls-2" d="M263.6,121.07l-.4-.2c.11-1.51-1.48-3.43,1-4.38,1.84.46,1.33,2.52,2.41,3.54s1.12,2.38-.29,2.92S264.09,122.36,263.6,121.07Z"/>
            <path class="cls-2" d="M235.31,86.42c-6,.21-2.44-2.7-1.54-4.74l4.53.26c0,.5,0,1,0,1.51C236.31,83.44,235.21,84.32,235.31,86.42Z"/>
            <path class="cls-2" d="M273.75,141.31c-.39,1-.66,2.34-2.11,2.5-1.05.11-2.26-.66-1.91-1.54s1.67-1.59,2.7-2.1C273.08,139.85,273.77,140.27,273.75,141.31Z"/>
            <path class="cls-2" d="M271.57,218.78l1.62.2c-.24,1.61-.49,3.23-.73,4.84-.43-.16-1-.21-1.27-.51C269.74,221.7,270.37,220.2,271.57,218.78Z"/>
            <path class="cls-2" d="M194.24,278.33c-1-2.05-1.46-4.52-4.42-4.64,1.13-1.89,2.87-2.07,4-.48C194.79,274.56,197.63,276.38,194.24,278.33Z"/>
          </g>
          <path class="cls-2" d="M248.87,250.91l1.53-1.55c1.13.21,1.31-.46,1.25-1.36l.43-.55c.65.76,3-.33,2.31,1.66C253.45,251.77,251,251.27,248.87,250.91Z"/>
          <path class="cls-2" d="M207.41,77.93c-.11,1.38-.78,1.65-1.46,1.26a12.59,12.59,0,0,1-2-1.8c.51-.36,1.2-1.13,1.49-1A9.25,9.25,0,0,1,207.41,77.93Z"/>
          <path class="cls-2" d="M141.25,267.61c1.37.12,3.09-.58,3.7,1.34.1.33-.69,1.33-1.17,1.4-2.07.34-2.34-1.21-2.53-2.75Z"/>
          <path class="cls-2" d="M264.87,234.7l8.73-1C270.77,236.19,268.76,235.53,264.87,234.7Z"/>
          <path class="cls-2" d="M263.11,113.41c-1.86,2.88-3.74,2.14-5.62,0,.22-.4.43-.8.63-1.21l3,.17Z"/>
          <path class="cls-2" d="M90.05,233.28c-1.5,1.24-3.39,1.17-3.88-.1-.75-2,1-1.63,2.11-1.18A8.94,8.94,0,0,1,90.05,233.28Z"/>
          <path class="cls-2" d="M72.62,132.38c-.42.13-1.24.62-1.51.41a2.18,2.18,0,0,1-.72-1.76c.07-.45.94-1.2,1.3-1.12C72.76,130.14,73,131.08,72.62,132.38Z"/>
          <path class="cls-2" d="M199.46,73.43c1.46-.26,2.23.32,2.25,1.45,0,.51-.88,1.51-1.05,1.44a13.66,13.66,0,0,1-2.41-1.41Z"/>
          <path class="cls-2" d="M107.94,255.45c-1.38-.32-3.08-.4-2.27-2.59.13-.38.73-.92,1-.86,2.12.5.82,2.31,1.25,3.49Z"/>
          <path class="cls-2" d="M92.77,113.21c-1-2.2.77-3.57,1.56-5.23l2.26,1.45C96.21,111.6,95.63,113.56,92.77,113.21Z"/>
          <path class="cls-2" d="M227.71,261.63c-.18,1.92-1.18,2.91-3.14,2.8,0-1.49.07-3,.1-4.48Z"/>
          <path class="cls-2" d="M141,73.84l-.68-1,1.48-.79c.13.4.45.9.32,1.2S141.36,73.63,141,73.84Z"/>
        </g>
      </g>
      <g>
        <path class="cls-2" d="M247.54,257.14c-1.3-.71-1.56-1.95-1.65-3.28C248,254.17,249.88,254.59,247.54,257.14Z"/>
        <path class="cls-2" d="M250.4,97.3a6.23,6.23,0,0,0,.26,1.42c-.43.87-1,1.58-2.09,1.3-1.55-.42-1.11-1.69-1-2.78l-.17.17Z"/>
        <path class="cls-2" d="M77.09,123.54l-1.55,1.68a5.77,5.77,0,0,1-1-1.62c-.09-.37.34-.87.55-1.32Z"/>
        <path class="cls-2" d="M108.28,262.47c-.42-.18-1.06-.27-1.18-.57s.29-.81.47-1.22c.41.18,1.06.27,1.17.56S108.45,262.05,108.28,262.47Z"/>
        <path class="cls-2" d="M245.93,97.42a3.21,3.21,0,0,0-1.46-.29c0-1,0-2,0-3.07l-.16.08c2.69-.5,3.43.87,3.1,3.26l.17-.16Z"/>
        <path class="cls-2" d="M238.21,92.9l.09,2.89,0-.08c-1.92-.26-3.62-.78-3.85-3.12a1.15,1.15,0,0,0,.85-.85Z"/>
        <g>
          <path class="cls-2" d="M268.69,130.45c0-.91,0-1.81,0-2.72l2.5.6C270.5,129.22,270.2,130.56,268.69,130.45Z"/>
          <path class="cls-2" d="M230.7,255.58c.46.88.92,1.77,1.39,2.65-1-.08-2.37,1.08-2.83-.7C229,256.5,229.66,255.82,230.7,255.58Z"/>
          <path class="cls-2" d="M254.85,236.43c-.16,1.83.89,4.21-2.12,4.78a4,4,0,0,0,.74-1c-.19-.63-.37-1.26-.57-1.89Z"/>
          <path class="cls-2" d="M216.82,74.44a6.94,6.94,0,0,1,.21,1.29l-2.58,1-.3-2Z"/>
          <path class="cls-2" d="M238.26,95.71l0,.08c1-2.23,2-.09,3,0a10.14,10.14,0,0,1,0,1.35l-3,.18C238.24,96.78,238.25,96.25,238.26,95.71Z"/>
          <path class="cls-2" d="M249.71,105.37a7.8,7.8,0,0,1,.47,1.27c0,.12-.35.31-.55.46a8.39,8.39,0,0,1-.46-1.27C249.15,105.72,249.52,105.53,249.71,105.37Z"/>
          <path class="cls-2" d="M272.76,133.93c-.18,0-.46.19-.51.13a1.85,1.85,0,0,1-.21-.6c.18-.05.47-.19.52-.13A1.58,1.58,0,0,1,272.76,133.93Z"/>
          <g>
            <path class="cls-2" d="M232.11,258.85c1.44-.27,2.6,0,3.18,1.54C233.18,262.08,232.59,260.58,232.11,258.85Z"/>
            <path class="cls-2" d="M118.32,262.23c-.55.67-.89,1.46-1.44,1.66-1.54.57-1.43-.79-1.35-1.6,0-.49.79-1.35,1.08-1.29C117.2,261.11,117.69,261.73,118.32,262.23Z"/>
            <path class="cls-2" d="M134.5,266.66c-.5.19-1.17.55-1.25.45a3.65,3.65,0,0,1-.9-1.74c0-.71.43-1.44,1.21-.63A6.87,6.87,0,0,1,134.5,266.66Z"/>
            <path class="cls-2" d="M241.34,94.1,240.5,91c1.84.36,4.56-.35,3.79,3.16l.16-.08Z"/>
            <path class="cls-2" d="M89.7,113.9l3.1-.82c.51,1.48.69,3.07-1.27,3.33C90,116.6,89.73,115.18,89.7,113.9Z"/>
            <path class="cls-2" d="M254.7,236.44c-1.31.36-2.52.06-2.67-1.33-.07-.61.89-1.7,1.6-2,1.68-.6,1.85.78,2,2Z"/>
            <path class="cls-2" d="M210.79,266c-.11.61-.23,1.21-.34,1.81l-1.69-1.11Z"/>
            <g>
              <g>
                <g>
                  <path class="cls-2" d="M261.1,112.38l-3-.17c-.19-1,.29-2.28-1-2.93l2.37.11C260.88,109.94,261,111.17,261.1,112.38Z"/>
                  <path class="cls-2" d="M79.06,138.4c0-1.15,0-2.31,0-3.46,1,.31,2.66,0,2.65,1.68S80.2,138.18,79.06,138.4Z"/>
                  <path class="cls-2" d="M108.64,91.5c-.29-1-.57-2.11-.86-3.16l3-.41.26.25A3.86,3.86,0,0,1,108.64,91.5Z"/>
                  <path class="cls-2" d="M235.32,89.37c0-1-.07-2-.11-3,1,.25,2.66-.45,2.7,1.28C238,89.23,236.56,89.38,235.32,89.37Z"/>
                </g>
                <path class="cls-2" d="M269.1,244.17c.49.64.95,1,.91,1.25a22.17,22.17,0,0,1-.73,2.62,4,4,0,0,1-.56-1.32A15.7,15.7,0,0,1,269.1,244.17Z"/>
                <path class="cls-2" d="M212.42,74.4c-.16.26-.18,1.33-1.18.76-.52-.29-.82-1-1.21-1.48.52-.32,1-.89,1.56-.91S213,73.16,212.42,74.4Z"/>
                <path class="cls-2" d="M211.6,275.57l.53-1.26c.41.19,1,.29,1.16.6s-.28.81-.46,1.22Z"/>
                <path class="cls-2" d="M92.69,103.16c.06,1.73.36,3.54-1.54,4.61C91.19,106.07,90.73,104.21,92.69,103.16Z"/>
                <path class="cls-2" d="M80.62,133.67l-.06-3.31c1.18.66,2.52,1.21,2.58,2.78A14.37,14.37,0,0,1,80.62,133.67Z"/>
                <path class="cls-2" d="M80.47,123.84l-.68,1.09c-.19-.39-.53-.78-.52-1.17s.4-.73.62-1.1Z"/>
                <path class="cls-2" d="M89,227.07c-.28-.35-.79-.72-.73-1a4.89,4.89,0,0,1,.82-1.37c.19.38.52.77.51,1.15S89.26,226.65,89,227.07Z"/>
                <path class="cls-2" d="M227.71,261.63l-3-1.68c1.13-2.34,2.28-1.88,3.44,0C228,260.49,227.84,261.06,227.71,261.63Z"/>
              </g>
              <path class="cls-2" d="M89.61,241.62l.77-3.26c.19.13.5.23.57.41a2.37,2.37,0,0,1-1.15,3Z"/>
              <path class="cls-2" d="M130.55,74.65c.25.29.74.64.68.83a1.56,1.56,0,0,1-.81,1c-1,.32-1.14-.41-.9-1.11C129.64,75,130.19,74.87,130.55,74.65Z"/>
              <path class="cls-2" d="M238.29,83.45c0-.5,0-1,0-1.51,1.1.18,2.85,0,2.39,1.67C240.37,84.8,239.12,83.57,238.29,83.45Z"/>
              <path class="cls-2" d="M70.67,210.33l-.35-.51.77-.41c0,.21.14.45.07.62S70.84,210.23,70.67,210.33Z"/>
              <path class="cls-2" d="M66.33,143.15c-.15-.05-.4-.11-.41-.16a1.73,1.73,0,0,1,.16-.52c.14.06.41.11.41.17A1.67,1.67,0,0,1,66.33,143.15Z"/>
            </g>
          </g>
          <path class="cls-2" d="M85.61,126.37c-.3.74-.27,2.28-1.42,1.64-1-.56-.09-1.58.67-2.18A5.11,5.11,0,0,0,85.61,126.37Z"/>
          <path class="cls-2" d="M241.22,259.89l2,.18L242,262.36Z"/>
          <path class="cls-2" d="M115.63,267.25l-.57-.21.64-.63.44.46Z"/>
          <path class="cls-2" d="M233.15,268.23c-.32.26-.63.68-1,.72s-.52-.5-.78-.78c.17-.16.38-.48.52-.45A7.36,7.36,0,0,1,233.15,268.23Z"/>
          <path class="cls-2" d="M135.72,271.68c.17,0,.41,0,.48.06a1.5,1.5,0,0,1,.14.58l-.83-.09Z"/>
          <path class="cls-2" d="M98.61,253.63,98,254.68c-.16-.15-.49-.36-.46-.45a7.3,7.3,0,0,1,.56-1.07Z"/>
          <path class="cls-2" d="M275,228.25l.46.52a6.8,6.8,0,0,1-1.14.5c-.09,0-.29-.32-.44-.5Z"/>
          <path class="cls-2" d="M91.13,107.75c.08,1.59-.34,2.81-2.18,3C89.14,109.34,89.41,108,91.13,107.75Z"/>
          <path class="cls-2" d="M261.21,237.17l-2.06,0C259.85,235.77,260.54,235.43,261.21,237.17Z"/>
          <path class="cls-2" d="M277.7,156.53l.63.63c-.12,0-.3,0-.37-.14a2.89,2.89,0,0,1-.21-.54Z"/>
          <path class="cls-2" d="M227.51,72.59l.9-.53-.54.9Z"/>
          <path class="cls-2" d="M258,240l-.06,2.5-1.47-.64Z"/>
          <path class="cls-2" d="M120.19,273.88l-.77.89c-.94-.84,0-.92.47-1.19Z"/>
          <path class="cls-2" d="M261.31,253.67l.54,1-1-.56Z"/>
          <polygon class="cls-2" points="73.46 117.69 73.9 117.52 73.85 117.96 73.46 117.69"/>
          <path class="cls-2" d="M141.25,267.6l-.59-.32.59.33Z"/>
          <path class="cls-2" d="M253.47,240.2a4,4,0,0,1-.74,1l-1.28,0C251.58,239.73,252.75,240.43,253.47,240.2Z"/>
          <path class="cls-2" d="M251.65,248c.06.9-.12,1.57-1.25,1.36C250.82,248.91,251.24,248.46,251.65,248Z"/>
          <path class="cls-2" d="M121.43,269.09,120,267.55Z"/>
          <path class="cls-2" d="M241.23,97.13a10.14,10.14,0,0,0,0-1.35c0-.56.05-1.12.08-1.68l3.11,0c0,1,0,2,0,3.07Z"/>
          <path class="cls-2" d="M84.93,118.52c-.61-1.77,1-1.27,1.71-1.65Z"/>
          <path class="cls-2" d="M220.15,267l.1-2.08c.61-.19,1.44-.74,1.64.32C222.11,266.41,220.91,266.54,220.15,267Z"/>
        </g>
      </g>
    </g>
  </g>
</svg>
