<?xml version="1.0" encoding="utf-8"?>
<!-- Generator: Adobe Illustrator 16.0.0, SVG Export Plug-In . SVG Version: 6.00 Build 0)  -->
<!DOCTYPE svg PUBLIC "-//W3C//DTD SVG 1.1//EN" "http://www.w3.org/Graphics/SVG/1.1/DTD/svg11.dtd">
<svg version="1.1" xmlns="http://www.w3.org/2000/svg" xmlns:xlink="http://www.w3.org/1999/xlink" x="0px" y="0px"
	 width="124.56px" height="144px" viewBox="0 0 124.56 144" enable-background="new 0 0 124.56 144" xml:space="preserve">
<g id="Layer_1">
	<polygon fill-rule="evenodd" clip-rule="evenodd" fill="#00539B" points="124.544,36.328 62.405,0.413 0.234,36.271 0.229,51.938 
		0.208,51.938 0.202,108.089 62.343,144 124.512,108.145 124.516,55.442 124.537,55.442 	"/>
	<polygon fill-rule="evenodd" clip-rule="evenodd" fill="#CD1F43" points="116,41.268 62.417,10.297 8.805,41.219 8.801,54.728 
		8.782,54.728 8.777,103.148 62.363,134.115 115.973,103.196 115.976,57.75 115.994,57.75 	"/>
</g>
<g id="Layer_7">
	<circle fill="#FFFFFF" cx="62.667" cy="72.666" r="49.626"/>
	<path fill="#CD1F43" d="M89.321,73.229c0,15.155-12.283,27.438-27.438,27.438c-15.153,0-27.438-12.283-27.438-27.438
		c0-0.579,0.018-1.154,0.053-1.725c0.89-14.349,12.811-25.713,27.385-25.713C77.038,45.791,89.321,58.076,89.321,73.229z"/>
</g>
<g id="Layer_2">
</g>
<g id="Layer_3">
	<path fill="#FFFFFF" d="M83.396,121.896c0.048-0.061,0.101-0.102,0.155-0.13V92.715c0-0.472-0.358-0.826-0.834-0.826
		c-0.477,0-0.835,0.354-0.835,0.826v30.707C82.427,122.955,82.947,122.464,83.396,121.896z"/>
	<path fill="#FFFFFF" d="M59.648,86.328l0.669,2.23l1.123-1.07c-0.051,0.147-0.079,0.305-0.079,0.469
		c0,0.796,0.647,1.443,1.442,1.443c0.796,0,1.443-0.647,1.443-1.443c0-0.3-0.093-0.578-0.25-0.809l1.425,1.361l0.661-2.236
		l-0.474-1.695l-2.034-0.044v0.697c-0.006,0.443,0,0.886,0.014,1.329l0.006,0.194c-0.388-0.256-0.947-0.305-1.377-0.112l0.057-2.057
		l-2.155,0.047L59.648,86.328z M64.847,85.563l0.196,0.703l-0.114,0.389l-0.345-0.329c-0.007-0.256-0.011-0.512-0.01-0.77
		L64.847,85.563z M62.805,87.519c0.244,0,0.443,0.196,0.443,0.438c0,0.244-0.199,0.443-0.443,0.443s-0.442-0.199-0.442-0.443
		C62.362,87.715,62.561,87.519,62.805,87.519z M60.885,85.617l0.362-0.008l-0.019,0.701l-0.42,0.4l-0.118-0.393L60.885,85.617z"/>
	<path fill="#FFFFFF" d="M63.762,90.004c-0.054,0.011-0.108,0.02-0.164,0.027c-0.059-0.011-0.118-0.016-0.21-0.017
		c-0.569,0.035-1.14,0.007-1.709-0.022c-0.337-0.018-0.675-0.035-1.028-0.04c-0.46,0-0.811,0.354-0.815,0.822
		c-0.004,0.475,0.345,0.84,0.814,0.849c0.312,0.005,0.624,0.019,0.935,0.033c0.521,0.025,1.041,0.047,1.562,0.03
		c0.078,0.027,0.178,0.047,0.308,0.047h0.018c0.222-0.022,0.437-0.058,0.666-0.102c0.419-0.087,0.681-0.444,0.637-0.869
		c-0.046-0.442-0.406-0.776-0.84-0.776L63.762,90.004z"/>
	<path fill="#FFFFFF" d="M43.055,91.526c0.233-0.145,0.382-0.403,0.382-0.711c0-0.366-0.21-0.662-0.521-0.78h2.018l-0.122-3.849
		l1.48-0.163l0.243-9.026c0.258,0.376,0.903,0.444,1.237,0.139c0.144,0.132,0.337,0.21,0.556,0.21h8.064
		c0.366,0,0.662-0.22,0.773-0.543c0.344,1.402,0.802,2.778,1.246,4.11l0.136,0.411c0.116,0.351,0.429,0.577,0.799,0.577
		c0.28,0,0.541-0.129,0.697-0.346c0.148-0.205,0.185-0.466,0.102-0.719c-0.444-1.324-0.904-2.692-1.262-4.07
		c-0.011-0.105-0.042-0.193-0.072-0.261l-0.051-0.199c-0.07-0.29-0.275-0.506-0.541-0.589l0.896-0.463
		c0.101,0.346,0.408,0.584,0.792,0.584h3.68c0.469,0,0.821-0.358,0.821-0.834c0-0.381-0.226-0.686-0.555-0.793l0.026-0.362
		l0.396-0.031v0.005l1.082-0.09l0.021,0.822l2.328,1.211c-0.349,0.027-0.632,0.27-0.717,0.621c-0.185,0.772-0.425,1.55-0.656,2.302
		c-0.125,0.405-0.25,0.811-0.365,1.208c-0.078,0.253-0.036,0.515,0.114,0.72c0.159,0.215,0.419,0.343,0.695,0.343
		c0.377,0,0.688-0.234,0.791-0.597c0.119-0.416,0.247-0.829,0.374-1.241c0.231-0.755,0.472-1.534,0.662-2.321
		c0.061-0.253,0.006-0.511-0.15-0.709c-0.016-0.02-0.033-0.039-0.05-0.058l5.549-0.059v-0.343c0.075,0.013,0.154,0.016,0.229,0.008
		l-0.007,0.372l3.433-0.038v-0.432c0.194,0.126,0.474,0.162,0.701,0.093c0.009,0.012,0.017,0.022,0.025,0.033
		c0.164,0.202,0.399,0.313,0.664,0.313l0.163-0.021l0.275,10.007l1.479,0.165l-0.123,3.843h2.915v31.926
		c0.332-0.244,0.665-0.49,1-0.733V88.976h-2.882l0.119-3.733l-1.532-0.171l-0.244-8.962c0.007-0.08,0.029-0.493-0.263-0.813
		c-0.136-0.149-0.397-0.323-0.814-0.319c-0.036-0.163-0.022-0.508,0.037-0.793l0.126-0.603h-2.647v1.405l-1.415,0.015l0.027-1.554
		h-2.268v1.538l-3.973,0.043l-0.031-1.347l-1.947,0.053l-0.051,0.513l-0.589-0.307l-0.032-1.292l-0.982,0.082l0.019-0.286
		l-1.518-0.281l-0.168,0.698l-0.735,0.058l-0.055,0.754l-0.056,0.007l-0.05-0.695l-0.737-0.066l-0.166-0.69l-1.513,0.266l0.018,0.29
		l-0.979-0.083l-0.041,1.298l-0.589,0.305l-0.051-0.517l-1.949-0.053l-0.026,1.348l-3.976-0.043v-1.538h-2.261l0.027,1.554
		l-1.421-0.016v-1.398h-2.65l0.128,0.604c0.059,0.274,0.073,0.62,0.039,0.785h-0.017c-0.412,0-0.658,0.175-0.793,0.321
		c-0.294,0.32-0.276,0.733-0.271,0.757l-0.243,9.017l-1.532,0.169l0.118,3.741h-2.782v33.486c0.843,0.327,1.621,0.78,2.385,1.317
		V92.266C43.506,91.934,43.327,91.659,43.055,91.526z M67.911,74.711l0.063-0.002l0.025,1.085c-0.063-0.017-0.127-0.026-0.192-0.029
		L67.911,74.711z M61.562,73.879l0.287,0.026l0.019,0.265h-0.38C61.528,74.081,61.554,73.983,61.562,73.879z M57.759,74.762
		l0.061,0.002l0.091,0.92c-0.058,0.004-0.115,0.015-0.17,0.029L57.759,74.762z M47.488,75.589c0.186,0.091,0.433,0.107,0.634,0.043
		V75.7c-0.134,0.033-0.253,0.097-0.35,0.186c-0.098-0.09-0.219-0.154-0.355-0.187C47.443,75.664,47.466,75.627,47.488,75.589z"/>
	<path fill="#FFFFFF" d="M80.812,123.762c0.124-0.065,0.246-0.129,0.37-0.195c0.216-0.115,0.422-0.244,0.63-0.371V90.639
		l-1.789-0.034L79.994,90.3l-6.32,0.206l-0.689-1.335c-0.032-0.152-0.12-0.587-0.206-1.207c-0.111-0.833-1.131-1.382-1.724-1.634
		l0.137-1.89l-0.297-0.15c-0.05-0.025-1.228-0.616-2.23-0.616c-0.759,0-1.146,0.334-1.338,0.613l-0.096,0.138
		c-0.312,0.455-0.338,0.493-0.391,0.686c-0.023,0.083-0.066,0.231-0.278,0.7c-0.15,0.323-0.227,0.679-0.227,1.055
		c0,1.035,0.606,1.837,0.633,1.871l0.172,0.147l0.144,0.049c0.334,0.113,3.305,1.139,4.793,2.38
		c0.455,0.378,0.675,3.107,0.868,5.515c0.436,5.406,0.978,12.135,4.248,14.315c2.825,1.887,3.07,3.625,3.055,4.245
		c-0.698,0.243-2.896,0.889-7.431,1.273l-0.423,0.036l-0.033,0.422c-0.023,0.294-0.188,0.572-0.51,0.857
		c-0.152,0.143-0.636,0.06-0.768-0.06c-0.228-0.203-0.356-0.417-0.404-0.671l-0.082-0.429l-0.437,0.023
		c-1.683,0.091-3.525,0.137-5.477,0.137l-1.268-0.006l-0.147,0.148l0.333,0.36v0.5h0.158c-0.003,0.234-0.01,0.469-0.022,0.707
		c-0.047,1.283-0.501,1.51-0.937,1.563c-0.06,0.007-0.117,0.011-0.171,0.011c-0.248,0-1,0-1.01-1.864l-0.001-0.324
		c-0.001-0.209-0.003-0.416,0.001-0.62l0.011-0.5l-0.5-0.011c-2.564-0.056-4.958-0.148-6.403-0.247l-0.448-0.03l-0.079,0.441
		c-0.026,0.146-0.152,0.627-0.709,0.666c-0.35,0-0.747-0.286-0.754-0.66v-0.567l-0.454-0.043c-4.035-0.377-6.088-0.874-6.794-1.074
		c-0.011-0.645,0.258-2.365,3.048-4.224c3.272-2.182,3.814-8.913,4.25-14.322c0.194-2.406,0.413-5.135,0.867-5.514
		c0.278-0.23,0.608-0.454,0.965-0.666c-0.019,0.071-0.028,0.147-0.028,0.228c0,0.476,0.355,0.834,0.879,0.834
		c0.443,0,0.784-0.317,0.823-0.751c0.204,0.17,0.496,0.225,0.778,0.123l0.105-0.039c0.714-0.265,1.452-0.539,2.132-0.961
		c0.323-0.2,0.465-0.565,0.361-0.93c-0.102-0.357-0.414-0.609-0.766-0.623c0.273-0.446,0.803-1.549,0.274-2.716
		c-0.217-0.473-0.262-0.621-0.286-0.704c-0.056-0.192-0.082-0.23-0.403-0.699l-0.083-0.122c-0.191-0.279-0.578-0.612-1.335-0.612
		c-1.001,0-2.178,0.592-2.228,0.616l-0.297,0.151l0.138,1.888c-0.593,0.251-1.613,0.799-1.729,1.63
		c-0.088,0.622-0.171,1.057-0.203,1.213l-0.687,1.332l-6.316-0.198l-0.03,0.296l-1.693,0.027v33.533
		c0.013,0.01,0.025,0.018,0.038,0.027c0.323,0.103,0.646,0.2,0.962,0.314v-8.226c0.556,0.172,2.53,0.708,6.756,1.125
		c0.182,0.739,0.896,1.313,1.71,1.313l0.107-0.003c0.665-0.049,1.202-0.447,1.458-1.051c1.375,0.084,3.39,0.16,5.561,0.212
		c0,0.05,0,0.1,0.001,0.149l0.001,0.32c0.013,2.489,1.265,2.861,2.01,2.861c0.091,0,0.186-0.006,0.289-0.018
		c1.151-0.139,1.763-0.986,1.819-2.512c0.013-0.252,0.021-0.503,0.023-0.754c1.793-0.001,3.494-0.041,5.066-0.118
		c0.126,0.296,0.323,0.564,0.589,0.802c0.535,0.483,1.603,0.522,2.106,0.058c0.377-0.335,0.629-0.701,0.752-1.094
		c4.941-0.447,7.062-1.189,7.538-1.379V123.762z M67.688,88.015c-0.123-0.2-0.353-0.643-0.353-1.149c0-0.233,0.044-0.44,0.135-0.638
		c0.232-0.514,0.294-0.708,0.336-0.863c0.028-0.056,0.09-0.141,0.25-0.373l0.095-0.14c0.229-0.333,1.391-0.057,1.995,0.195
		l-0.143,1.966l0.365,0.125c0.639,0.217,1.381,0.673,1.419,0.961c0.117,0.836,0.235,1.354,0.235,1.354l0.442,0.892
		C70.878,89.147,68.301,88.224,67.688,88.015z M55.996,90.275c-0.085-0.069-0.186-0.121-0.298-0.151
		c0.134-0.065,0.268-0.129,0.4-0.189C56.041,90.038,56.006,90.153,55.996,90.275z M53.67,89.624l0.044-0.124
		c0,0,0.111-0.516,0.229-1.347c0.042-0.296,0.784-0.744,1.425-0.962l0.367-0.125l-0.144-1.965c0.603-0.252,1.758-0.53,1.988-0.196
		l0.084,0.123c0.17,0.248,0.233,0.334,0.266,0.409c0.041,0.142,0.104,0.335,0.337,0.844c0.34,0.75-0.057,1.519-0.227,1.793
		c-0.697,0.241-3.211,1.157-4.768,2.32L53.67,89.624z M45.025,91.668l1.6-0.025l0.025-0.253l5.812,0.182
		c-0.317,1.018-0.469,2.717-0.671,5.229c-0.396,4.92-0.938,11.657-3.808,13.57c-1.603,1.068-2.482,2.135-2.958,3.043V91.668z
		 M77.747,110.311c-2.867-1.912-3.41-8.646-3.806-13.563c-0.202-2.512-0.354-4.211-0.672-5.228l5.814-0.19l0.022,0.258l1.705,0.032
		v21.947C80.364,112.614,79.476,111.465,77.747,110.311z"/>
	<path fill="#FFFFFF" d="M52.853,86.662c0.468,0,0.821-0.359,0.821-0.835s-0.353-0.835-0.821-0.835H48.08
		c-0.471,0-0.827,0.359-0.827,0.835s0.355,0.835,0.827,0.835H52.853z"/>
	<path fill="#FFFFFF" d="M55.416,90.763c-0.023,0-0.121,0.078-0.121,0.166c0,0.077,0.076,0.147,0.147,0.162
		c0.071-0.015,0.147-0.085,0.147-0.162C55.59,90.841,55.493,90.763,55.416,90.763z"/>
	<path fill="#FFFFFF" d="M42.611,90.649c-0.076,0-0.173,0.078-0.173,0.166c-0.001,0.177,0.352,0.17,0.353,0
		C42.791,90.728,42.69,90.649,42.611,90.649z"/>
	<path fill="#FFFFFF" d="M47.216,76.346c-0.079,0-0.179,0.078-0.179,0.165c-0.001,0.171,0.352,0.176,0.352,0
		C47.389,76.424,47.292,76.346,47.216,76.346z"/>
	<path fill="#FFFFFF" d="M47.859,74.672c-0.079,0-0.179,0.078-0.179,0.165c0,0.17,0.353,0.178,0.353,0
		C48.032,74.75,47.935,74.672,47.859,74.672z"/>
	<path fill="#FFFFFF" d="M51.734,74.586c-0.079,0-0.179,0.078-0.179,0.165c0,0.103,0.124,0.185,0.222,0.158v-0.316
		C51.762,74.589,51.748,74.586,51.734,74.586z"/>
	<path fill="#FFFFFF" d="M82.663,90.763c-0.079,0-0.179,0.078-0.179,0.166c0,0.171,0.353,0.176,0.354,0
		C82.838,90.841,82.74,90.763,82.663,90.763z"/>
	<g>
		<path fill="#00539B" d="M81.312,89.476l0.121-3.788l-1.506-0.168l-0.254-9.457c0,0,0.061-0.643-0.637-0.582
			c-0.702,0.053-0.395-1.399-0.395-1.399h-1.532v1.399l-2.424,0.026l0.027-1.56h-1.259v1.533l-4.961,0.053l-0.031-1.338
			l-1.005,0.027l-0.08,0.809l-1.506-0.783l-0.026-1.057l-1.032,0.086l0.027-0.421l-0.615-0.114l-0.142,0.59l-0.669,0.053
			l-0.054,0.729l-0.689,0.094l-0.302-0.04l-0.052-0.723l-0.671-0.061l-0.14-0.582l-0.609,0.107l0.026,0.422l-1.031-0.088
			l-0.033,1.064l-1.505,0.777l-0.08-0.811l-1.005-0.027l-0.026,1.339l-4.966-0.054v-1.532h-1.252l0.028,1.56l-2.431-0.027v-1.393
			h-1.532c0,0,0.308,1.446-0.388,1.393c-0.697-0.053-0.643,0.589-0.643,0.589l-0.254,9.452l-1.506,0.166l0.12,3.795h-2.798v32.213
			c0.233,0.162,0.472,0.315,0.717,0.461V92.266c0-0.434,0.668-0.434,0.668,0v30.323c0.509,0.28,1.022,0.554,1.519,0.854V91.176
			l1.646-0.026l0.027-0.274l6.165,0.193l0.863-1.674c0,0,0.108-0.502,0.222-1.311c0.113-0.811,1.76-1.366,1.76-1.366l-0.141-1.927
			c0,0,2.255-1.145,2.924-0.168c0.67,0.978,0.168,0.227,0.73,1.452c0.556,1.226-0.355,2.409-0.355,2.409v0.008
			c-0.021,0.006-0.047,0.013-0.08,0.026c-0.629,0.214-3.467,1.231-4.953,2.464c-1.673,1.398-0.214,16.565-5.074,19.805
			c-3.848,2.563-3.231,5.021-3.231,5.021s1.906,0.695,7.209,1.191v0.112c0.013,0.677,0.675,1.198,1.324,1.158
			c0.624-0.046,1.03-0.508,1.131-1.076c1.66,0.113,4.236,0.2,6.426,0.248c-0.007,0.313,0,0.635,0,0.955
			c0.006,1.105,0.28,2.518,1.738,2.351c1.105-0.134,1.346-1.111,1.38-2.041c0.021-0.409,0.028-0.816,0.021-1.226h-0.656
			c0.007,0,0.014,0,0.021-0.007c2.516,0.021,4.691-0.032,6.565-0.134c0.067,0.354,0.248,0.669,0.563,0.95
			c0.349,0.314,1.07,0.395,1.439,0.055c0.422-0.375,0.636-0.771,0.669-1.186c5.843-0.496,7.851-1.412,7.851-1.412
			s0.609-2.45-3.239-5.021c-4.858-3.239-3.399-18.406-5.074-19.799c-1.484-1.238-4.322-2.256-4.952-2.469
			c-0.032-0.014-0.06-0.021-0.079-0.027c0,0-0.529-0.689-0.529-1.566c0-0.268,0.046-0.556,0.18-0.844
			c0.557-1.23,0.054-0.475,0.724-1.452s2.931,0.167,2.931,0.167l-0.14,1.928c0,0,1.646,0.557,1.753,1.365
			c0.113,0.811,0.228,1.313,0.228,1.313l0.864,1.674l6.165-0.201l0.025,0.281l1.747,0.033v31.861
			c0.046-0.024,0.093-0.05,0.138-0.074c0.316-0.174,0.625-0.36,0.934-0.549V92.715c0-0.436,0.669-0.436,0.669,0v29.244
			c0.38-0.23,0.763-0.454,1.158-0.653v-31.83H81.312z M42.611,91.149c-0.427,0-0.427-0.669,0-0.669
			C43.046,90.48,43.046,91.149,42.611,91.149z M51.734,74.416c0.429,0,0.429,0.67,0,0.67C51.3,75.086,51.3,74.416,51.734,74.416z
			 M47.216,76.846c-0.436,0-0.436-0.67,0-0.67C47.645,76.176,47.645,76.846,47.216,76.846z M47.859,74.502
			c0.428,0,0.428,0.67,0,0.67C47.423,75.172,47.423,74.502,47.859,74.502z M52.853,86.162H48.08c-0.436,0-0.436-0.67,0-0.67h4.772
			C53.28,85.492,53.28,86.162,52.853,86.162z M56.393,76.846h-8.064c-0.429,0-0.429-0.67,0-0.67h8.064
			C56.821,76.176,56.821,76.846,56.393,76.846z M64.163,81.925c0.128,0.128,0.242,0.288,0.315,0.496
			c0.248,0.784-0.168,0.81-0.168,0.81l-0.186-0.033C64.138,82.775,64.149,82.354,64.163,81.925z M60.684,73.471h0.06
			c0.429,0,0.429,0.67,0,0.67h-0.06C60.255,74.141,60.255,73.471,60.684,73.471z M59.908,74.67h3.68c0.429,0,0.429,0.669,0,0.669
			h-3.68C59.472,75.339,59.472,74.67,59.908,74.67z M63.748,87.957c0,0.521-0.421,0.943-0.943,0.943
			c-0.521,0-0.942-0.422-0.942-0.943c0-0.516,0.421-0.938,0.942-0.938C63.327,87.019,63.748,87.441,63.748,87.957z M61.768,83.224
			l-0.341,0.062c0,0-0.422-0.027-0.167-0.805c0.092-0.301,0.28-0.494,0.475-0.629C61.747,82.307,61.761,82.77,61.768,83.224z
			 M60.503,85.125l1.258-0.027c-0.014,0.469-0.026,0.951-0.039,1.433l-1.159,1.104l-0.394-1.312L60.503,85.125z M64.036,91.143
			c-0.207,0.039-0.408,0.072-0.616,0.094c-0.066,0.006-0.12-0.021-0.173-0.055c-0.863,0.041-1.727-0.046-2.59-0.059
			c-0.429-0.008-0.429-0.678,0-0.671c0.924,0.014,1.84,0.121,2.763,0.062c0.048-0.008,0.101,0.007,0.141,0.027
			c0.101-0.014,0.202-0.027,0.302-0.048C64.285,90.412,64.458,91.055,64.036,91.143z M65.176,87.582l-1.086-1.037
			c-0.014-0.436-0.02-0.871-0.014-1.307v-0.193l1.152,0.025l0.335,1.199L65.176,87.582z M74.098,75.145
			c-0.429,0-0.429-0.669,0-0.669C74.532,74.476,74.532,75.145,74.098,75.145z M78.06,75.172c-0.429,0-0.429-0.67,0-0.67
			C78.494,74.502,78.494,75.172,78.06,75.172z M82.663,91.263c-0.434,0-0.434-0.669,0-0.669
			C83.092,90.594,83.092,91.263,82.663,91.263z"/>
	</g>
	<g>
		<path fill="#FFFFFF" d="M61.792,118.251c0.004,0.353,0.027,0.7,0.059,1.049c0.056,0.636,0.612,0.365,0.557-0.266
			c-0.023-0.26-0.035-0.521-0.038-0.783C62.361,117.607,61.783,117.605,61.792,118.251L61.792,118.251z"/>
	</g>
	<g>
		<path fill="#FFFFFF" d="M51.083,111.501c0-0.027,0-0.056,0-0.083c0-0.645-1-0.645-1,0c0,0.027,0,0.056,0,0.083
			C50.083,112.146,51.083,112.146,51.083,111.501L51.083,111.501z"/>
	</g>
	<g>
		<path fill="#FFFFFF" d="M52.742,112.233c0.755,0.173,1.532,0.185,2.299,0.268c0.641,0.069,0.634-0.932,0-1
			c-0.679-0.073-1.366-0.079-2.034-0.232C52.38,111.125,52.114,112.089,52.742,112.233L52.742,112.233z"/>
	</g>
</g>
<g id="Layer_9">
	<path fill-rule="evenodd" clip-rule="evenodd" fill="#FFFFFF" d="M60.501,115.645c-0.958-0.668-1.033-0.531-0.813-1.804
		c0.139-0.801,0.111-1.361-0.684-1.645c-1.449-0.517-0.535-4.887-0.778-6.087c-0.038-0.185-0.337-0.219-0.384-0.021
		c-0.352,1.477-0.916,4.321-0.292,5.755c0.171,0.395,0.32,0.813,0.777,0.98c0.889,0.327,0.114,1.955,0.072,2.561
		c-0.012,0.166,0.122,0.306,0.249,0.387c0.842,0.541,1.474,0.128,1.811,1.776c0.091,0.441,0.59,0.378,0.604-0.032
		C61.084,116.846,61.11,116.068,60.501,115.645z"/>
</g>
<g id="Layer_5">
	<g>
		<line fill="#FFFFFF" x1="62.543" y1="98.814" x2="64.107" y2="98.814"/>
		<polygon fill="#FFFFFF" points="66.882,100.207 68.226,102.854 67.205,107.183 64.778,105.199 65.202,102.025 		"/>
		<path fill="#D81F28" d="M63.296,99.319c-0.28,0-0.507-0.226-0.507-0.505v-3.988c0-0.279,0.227-0.507,0.507-0.507
			c0.277,0,0.506,0.228,0.506,0.507v3.988C63.802,99.094,63.573,99.319,63.296,99.319"/>
		<path fill="#141246" d="M64.107,99.319h-1.564c-0.278,0-0.506-0.226-0.506-0.505c0-0.28,0.228-0.508,0.506-0.508h1.564
			c0.279,0,0.507,0.228,0.507,0.508C64.614,99.094,64.387,99.319,64.107,99.319"/>
		<path fill="#FFFFFF" d="M66.882,100.207l1.662-1.567c-1.272-1.272-3.03-2.059-4.971-2.059c-3.885,0-7.031,3.146-7.031,7.03
			s3.146,7.032,7.031,7.032c1.447,0,2.721,0.525,3.839-0.222l1.39,0.191l-0.039-2.259l-3.984-3.155l0.855-4.035L66.882,100.207"/>
		<path fill="#D81F28" d="M63.573,111.332c-4.257,0-7.721-3.462-7.721-7.721c0-4.257,3.464-7.721,7.721-7.721
			c2.061,0,4,0.803,5.46,2.26l0.501,0.505l-2.18,2.054l-0.947-1.004l1.118-1.054c-1.12-0.896-2.499-1.381-3.952-1.381
			c-3.497,0-6.343,2.844-6.343,6.341s2.847,6.341,6.343,6.341"/>
		<path fill="#FFFFFF" d="M67.447,107.367l-0.992-0.962c0.73-0.751,1.133-1.744,1.133-2.794c0-1.094-0.433-2.118-1.218-2.882
			l-0.516-0.501l0.553-0.523l0.473,0.5l0.45-0.465c1.058,1.025,1.637,2.4,1.637,3.871C68.967,105.021,68.429,106.354,67.447,107.367
			"/>
		<path fill="#FFFFFF" d="M61.985,103.611c0-0.876,0.711-1.586,1.588-1.586c0.878,0,1.586,0.71,1.586,1.586
			c0,0.877-0.708,1.588-1.586,1.588C62.696,105.199,61.985,104.488,61.985,103.611"/>
		<g>
			<path fill="#D81F28" d="M63.573,105.889c-1.256,0-2.278-1.021-2.278-2.277c0-1.257,1.022-2.278,2.278-2.278
				c1.255,0,2.276,1.021,2.276,2.278C65.85,104.867,64.828,105.889,63.573,105.889 M63.573,102.715
				c-0.494,0-0.899,0.401-0.899,0.896s0.405,0.897,0.899,0.897s0.897-0.402,0.897-0.897S64.067,102.715,63.573,102.715"/>
		</g>
		<line fill="#141246" x1="68.544" y1="98.64" x2="64.533" y2="102.348"/>
		
			<rect x="65.849" y="97.764" transform="matrix(0.6779 0.7352 -0.7352 0.6779 95.3154 -16.5459)" fill="#D81F28" width="1.38" height="5.46"/>
		<polyline fill="#FFFFFF" points="64.319,105.012 67.205,107.183 68.763,108.354 68.763,111.332 65.634,111.181 		"/>
		<polygon fill="#D81F28" points="69.452,111.332 63.446,111.332 63.446,109.952 68.071,109.952 68.071,108.698 63.907,105.563 
			64.735,104.461 69.452,108.011 		"/>
		<polygon fill="#FFFFFF" points="71.049,95.205 70.492,95.76 69.943,95.205 70.492,94.651 		"/>
		
			<rect x="67.641" y="92.351" transform="matrix(0.7084 -0.7058 0.7058 0.7084 -45.5361 74.8573)" fill="#FFFFFF" width="0.375" height="0.376"/>
		<path fill="#D81F28" d="M60.901,100.713c-0.28,0-0.508-0.227-0.508-0.506v-5.381c0-0.279,0.228-0.507,0.508-0.507
			c0.278,0,0.504,0.228,0.504,0.507v5.381C61.405,100.486,61.18,100.713,60.901,100.713"/>
	</g>
</g>
<g id="Layer_8">
</g>
<g id="Layer_6">
	<path fill="#FFFFFF" d="M31.493,52.793h-3.295l0.505-4.839H28.25l-0.506,4.839h-3.301l0.507-4.839h-1.184l0.306-3.001h1.19
		l0.342-3.321h-1.208l0.307-3.002h1.213l0.409-3.9h3.297l-0.409,3.9h0.455l0.414-3.9h3.297l-0.415,3.9h1.236l-0.31,3.002h-1.236
		l-0.344,3.321h1.236l-0.306,3.001h-1.242L31.493,52.793z M29.431,51.681h1.06L31,46.841h1.238l0.079-0.776h-1.239l0.575-5.545
		h1.236l0.08-0.777h-1.241l0.415-3.9h-1.06l-0.414,3.9h-2.69l0.408-3.9h-1.061l-0.409,3.9h-1.21l-0.079,0.777h1.209l-0.571,5.545
		h-1.189l-0.079,0.776h1.187l-0.507,4.839h1.064l0.506-4.839h2.688L29.431,51.681z M30.017,46.065h-2.689L27.9,40.52h2.693
		L30.017,46.065z M28.561,44.953h0.454l0.346-3.321h-0.456L28.561,44.953z"/>
	<path fill="#FFFFFF" d="M41.234,52.894c-1.335,0-2.56-0.217-3.639-0.645c-1.09-0.428-2.016-1.034-2.752-1.801l-0.155-0.161v-4.118
		h3.519l0.377,2.519c0.249,0.166,0.571,0.311,0.962,0.433c0.499,0.155,1.066,0.233,1.687,0.233c0.747,0,1.305-0.142,1.66-0.421
		c0.324-0.256,0.475-0.574,0.475-1.001c0-0.456-0.146-0.792-0.46-1.059c-0.259-0.223-0.832-0.566-2.09-0.945
		c-1.949-0.565-3.46-1.255-4.486-2.048c-1.113-0.861-1.678-2.051-1.678-3.538c0-1.475,0.629-2.694,1.87-3.626
		c1.191-0.893,2.695-1.357,4.469-1.38c1.298,0,2.494,0.2,3.561,0.595c1.074,0.397,1.992,0.937,2.73,1.603l0.184,0.166v4.078h-3.424
		l-0.454-2.392c-0.181-0.084-0.452-0.185-0.854-0.283c-0.492-0.121-1.021-0.183-1.572-0.183c-0.748,0-1.32,0.148-1.699,0.44
		c-0.342,0.264-0.501,0.58-0.501,0.993c0,0.224,0.053,0.559,0.516,0.879c0.453,0.313,1.276,0.66,2.446,1.03
		c1.82,0.505,3.245,1.199,4.217,2.058c1.032,0.914,1.556,2.122,1.556,3.592c0,1.551-0.624,2.792-1.854,3.69
		C44.671,52.458,43.12,52.894,41.234,52.894z M35.8,49.833c0.598,0.577,1.338,1.042,2.203,1.381
		c0.951,0.377,2.037,0.567,3.231,0.567c1.645,0,2.976-0.363,3.956-1.08c0.94-0.687,1.398-1.6,1.398-2.792
		c0-1.153-0.386-2.056-1.18-2.759c-0.844-0.746-2.122-1.36-3.796-1.825c-1.313-0.414-2.211-0.799-2.764-1.182
		c-0.651-0.453-0.994-1.072-0.994-1.793c0-0.754,0.323-1.402,0.935-1.874c0.58-0.445,1.379-0.671,2.378-0.671
		c0.64,0,1.258,0.072,1.837,0.214c0.598,0.146,1.052,0.321,1.385,0.532l0.203,0.129l0.376,1.981h1.39v-2.465
		c-0.601-0.499-1.335-0.911-2.187-1.226c-0.943-0.348-2.009-0.525-3.168-0.525c-1.527,0.02-2.811,0.409-3.809,1.157
		c-0.959,0.72-1.425,1.615-1.425,2.736c0,1.14,0.408,2.009,1.246,2.658c0.915,0.708,2.301,1.334,4.121,1.861
		c1.181,0.357,1.996,0.738,2.497,1.166c0.563,0.479,0.85,1.121,0.85,1.905c0,0.763-0.311,1.411-0.899,1.875
		c-0.556,0.438-1.346,0.659-2.348,0.659c-0.733,0-1.412-0.096-2.018-0.284c-0.622-0.194-1.126-0.448-1.5-0.754l-0.166-0.136
		l-0.302-2.011H35.8V49.833z"/>
	<path fill="#FFFFFF" d="M65.31,52.665h-7.736v-2.939l1.712-0.331v-3.379h-5.412v3.379l1.712,0.331v2.939H47.85v-2.938l1.703-0.331
		V38.833l-1.703-0.329v-2.949h7.736v2.949l-1.712,0.329v3.6h5.412v-3.6l-1.712-0.329v-2.949h7.736v2.949l-1.714,0.329v10.562
		l1.714,0.331V52.665z M58.686,51.552h5.512v-0.909l-1.714-0.331V37.915l1.714-0.329v-0.918h-5.512v0.918l1.712,0.329v5.631h-7.636
		v-5.631l1.712-0.329v-0.918h-5.512v0.919l1.703,0.328v12.397l-1.703,0.331v0.909h5.512v-0.909l-1.712-0.331v-5.409h7.636v5.409
		l-1.712,0.331V51.552z"/>
	<path fill="#FFFFFF" d="M73.165,52.665h-7.736v-2.939l1.712-0.331V38.833l-1.712-0.329v-2.949h7.736v2.949l-1.714,0.329v10.562
		l1.714,0.331V52.665z M66.541,51.552h5.512v-0.909l-1.714-0.331V37.915l1.714-0.329v-0.918h-5.512v0.918l1.712,0.329v12.398
		l-1.712,0.331V51.552z"/>
	<path fill="#FFFFFF" d="M86.412,52.665H73.271v-2.938l1.703-0.331V38.833l-1.703-0.329v-2.949h7.736v2.949l-1.715,0.329V49.09
		h3.444l0.156-2.011h3.519V52.665z M74.384,51.552H85.3v-3.361h-1.377l-0.155,2.011h-5.587V37.915l1.715-0.329v-0.918h-5.512v0.919
		l1.703,0.328v12.397l-1.703,0.331V51.552z"/>
	<path fill="#FFFFFF" d="M99.596,52.665H86.455v-2.938l1.7-0.331V38.833l-1.7-0.329v-2.949h7.736v2.949l-1.715,0.329V49.09h3.444
		l0.154-2.011h3.521V52.665z M87.567,51.552h10.916v-3.361h-1.378l-0.154,2.011h-5.587V37.915l1.715-0.329v-0.918h-5.512v0.919
		l1.7,0.328v12.397l-1.7,0.331V51.552z"/>
	<g>
		<path fill="#CD1F43" d="M31.497,69.776H24.14v-2.758l1.635-0.316V56.511l-1.635-0.317v-2.768h7.806
			c1.877,0,3.388,0.497,4.491,1.478c1.123,1,1.691,2.32,1.691,3.923c0,1.611-0.57,2.929-1.693,3.918
			c-1.103,0.971-2.613,1.463-4.489,1.463h-2.093v2.493l1.644,0.316V69.776z M25.14,68.776h5.357v-0.932l-1.644-0.316v-4.319h3.093
			c1.625,0,2.914-0.408,3.828-1.213c0.911-0.802,1.354-1.838,1.354-3.167c0-1.324-0.443-2.363-1.356-3.177
			c-0.914-0.813-2.201-1.225-3.826-1.225H25.14v0.942l1.635,0.317v11.841l-1.635,0.316V68.776z M31.946,61.837h-3.093v-6.041h3.093
			c1,0,1.779,0.298,2.313,0.885c0.525,0.577,0.792,1.306,0.792,2.167c0,0.849-0.268,1.565-0.797,2.128
			C33.72,61.548,32.943,61.837,31.946,61.837z M29.853,60.837h2.093c0.709,0,1.241-0.183,1.579-0.544
			c0.354-0.377,0.527-0.85,0.527-1.444c0-0.613-0.174-1.102-0.531-1.494c-0.342-0.375-0.857-0.558-1.574-0.558h-2.093V60.837z"/>
	</g>
	<g>
		<path fill="#CD1F43" d="M54.795,69.776h-7.357v-2.758l1.646-0.316v-3.304H43.82v3.304l1.646,0.316v2.758h-7.357v-2.758
			l1.633-0.316V56.51l-1.633-0.317v-2.767h7.357v2.768l-1.646,0.317v3.514h5.263v-3.514l-1.646-0.317v-2.768h7.357v2.768
			l-1.644,0.317v10.19l1.644,0.316V69.776z M48.438,68.776h5.357v-0.932l-1.644-0.316V55.686l1.644-0.317v-0.942h-5.357v0.942
			l1.646,0.317v5.34H42.82v-5.34l1.646-0.317v-0.942h-5.357v0.943l1.633,0.317v11.841l-1.633,0.316v0.933h5.357v-0.932l-1.646-0.316
			v-5.13h7.263v5.13l-1.646,0.316V68.776z"/>
	</g>
	<g>
		<path fill="#CD1F43" d="M62.332,69.776h-7.357v-2.758l1.645-0.316v-10.19l-1.645-0.317v-2.768h7.357v2.768l-1.644,0.317v10.19
			l1.644,0.316V69.776z M55.975,68.776h5.357v-0.932l-1.644-0.316V55.686l1.644-0.317v-0.942h-5.357v0.942l1.645,0.317v11.842
			l-1.645,0.316V68.776z"/>
	</g>
	<g>
		<path fill="#CD1F43" d="M75.045,69.776H62.503v-2.758l1.635-0.316V56.511l-1.635-0.317v-2.768h7.354v2.768l-1.642,0.317v9.903
			h3.37l0.146-1.929h3.313V69.776z M63.503,68.776h10.542v-3.291h-1.386l-0.146,1.929h-5.298V55.686l1.642-0.317v-0.942h-5.354
			v0.942l1.635,0.317v11.841l-1.635,0.316V68.776z"/>
	</g>
	<g>
		<path fill="#CD1F43" d="M87.696,69.776H75.153v-2.758l1.634-0.316V56.51l-1.634-0.317v-2.767h7.354v2.768l-1.644,0.317v9.903h3.37
			l0.148-1.929h3.313V69.776z M76.153,68.776h10.543v-3.291h-1.388l-0.148,1.929h-5.296V55.686l1.644-0.317v-0.942h-5.354v0.943
			l1.634,0.317v11.841l-1.634,0.316V68.776z"/>
	</g>
	<g>
		<path fill="#CD1F43" d="M95.761,69.776h-7.356v-2.758l1.646-0.316v-2.858l-3.928-7.397l-1.471-0.24v-2.78h6.809v2.788
			l-1.012,0.146l1.671,3.536l1.674-3.537l-1.003-0.146v-2.788h6.809v2.781l-1.482,0.24l-3.999,7.556v2.699l1.644,0.316V69.776z
			 M89.404,68.776h5.356v-0.932l-1.644-0.316v-3.773l4.349-8.216l1.133-0.183v-0.929H93.79v0.922l1.485,0.216L92.467,61.5h-0.633
			l-0.198-0.286l-2.67-5.65l1.494-0.215v-0.922h-4.809v0.93l1.121,0.183l4.277,8.055v3.933l-1.646,0.316V68.776z"/>
	</g>
	<g>
		<path fill="#00539B" d="M29.319,47.397h-1.571l-0.505,4.839H25.06l0.507-4.839h-1.185l0.192-1.889h1.19l0.456-4.433h-1.208
			l0.192-1.89h1.212l0.409-3.9h2.179l-0.409,3.9h1.573l0.414-3.9h2.179l-0.415,3.9h1.239l-0.196,1.89h-1.236l-0.459,4.433h1.238
			l-0.192,1.889H31.5l-0.508,4.839h-2.178L29.319,47.397z M27.944,45.509h1.571l0.462-4.433h-1.575L27.944,45.509z"/>
	</g>
	<g>
		<path fill="#00539B" d="M46.913,41.22h-2.407l-0.417-2.198c-0.277-0.176-0.684-0.331-1.219-0.461
			c-0.537-0.132-1.103-0.198-1.704-0.198c-0.879,0-1.558,0.186-2.038,0.555c-0.479,0.369-0.719,0.848-0.719,1.434
			c0,0.542,0.252,0.987,0.754,1.336c0.5,0.347,1.367,0.715,2.597,1.103c1.763,0.49,3.103,1.139,4.016,1.944
			c0.911,0.807,1.368,1.864,1.368,3.175c0,1.37-0.542,2.45-1.626,3.241c-1.083,0.792-2.513,1.187-4.283,1.187
			c-1.269,0-2.413-0.201-3.434-0.606c-1.023-0.402-1.874-0.958-2.556-1.668v-3.338h2.484l0.341,2.273
			c0.321,0.263,0.761,0.481,1.313,0.653c0.553,0.172,1.171,0.259,1.853,0.259c0.878,0,1.545-0.179,2.004-0.54
			c0.456-0.36,0.688-0.84,0.688-1.439c0-0.616-0.218-1.11-0.655-1.482c-0.436-0.373-1.199-0.725-2.29-1.054
			c-1.897-0.55-3.332-1.202-4.307-1.956c-0.975-0.754-1.462-1.787-1.462-3.098c0-1.297,0.55-2.357,1.648-3.181
			c1.099-0.824,2.481-1.247,4.142-1.269c1.231,0,2.35,0.187,3.361,0.56c1.012,0.374,1.861,0.872,2.55,1.494V41.22z"/>
	</g>
	<g>
		<path fill="#00539B" d="M48.406,38.045v-1.934h6.624v1.934l-1.712,0.329v4.615h6.524v-4.615l-1.712-0.329v-1.934h1.712h3.197
			h1.715v1.934l-1.715,0.329v11.479l1.715,0.331v1.924h-6.625v-1.924l1.712-0.331v-4.394h-6.524v4.394l1.712,0.331v1.924h-6.624
			v-1.924l1.703-0.331V38.374L48.406,38.045z"/>
	</g>
	<g>
		<path fill="#00539B" d="M65.984,38.045v-1.934h6.625v1.934l-1.715,0.329v11.479l1.715,0.331v1.924h-6.625v-1.924l1.713-0.331
			V38.374L65.984,38.045z"/>
	</g>
	<g>
		<path fill="#00539B" d="M73.827,52.108v-1.924l1.704-0.331V38.374l-1.704-0.329v-1.934h1.704h3.206h1.714v1.934l-1.714,0.329
			v11.272h4.516l0.155-2.011h2.448v4.473H73.827z"/>
	</g>
	<g>
		<path fill="#00539B" d="M87.011,52.108v-1.924l1.701-0.331V38.374l-1.701-0.329v-1.934h1.701h3.209h1.715v1.934l-1.715,0.329
			v11.272h4.515l0.154-2.011h2.449v4.473H87.011z"/>
	</g>
	<path fill="#FFFFFF" d="M31.946,53.926c1.757,0,3.145,0.45,4.159,1.352c1.015,0.904,1.523,2.088,1.523,3.55
		c0,1.469-0.509,2.649-1.523,3.543c-1.014,0.893-2.401,1.338-4.159,1.338h-2.593v3.406l1.644,0.316v1.845H24.64v-1.845l1.635-0.316
		V56.098l-1.635-0.317v-1.855h1.635H31.946z M29.353,61.337h2.593c0.857,0,1.506-0.235,1.944-0.703
		c0.439-0.468,0.662-1.062,0.662-1.786c0-0.737-0.222-1.348-0.662-1.831c-0.438-0.48-1.086-0.721-1.944-0.721h-2.593V61.337z"/>
	<path fill="#FFFFFF" d="M38.609,55.781v-1.855h6.357v1.855l-1.646,0.317v4.427h6.263v-4.427l-1.646-0.317v-1.855h1.646h3.067h1.644
		v1.855l-1.644,0.317v11.016l1.644,0.316v1.845h-6.357v-1.845l1.646-0.316v-4.217H43.32v4.217l1.646,0.316v1.845h-6.357v-1.845
		l1.633-0.316V56.098L38.609,55.781z"/>
	<path fill="#FFFFFF" d="M55.475,55.781v-1.855h6.357v1.855l-1.644,0.317v11.016l1.644,0.316v1.845h-6.357v-1.845l1.645-0.316
		V56.098L55.475,55.781z"/>
	<path fill="#FFFFFF" d="M63.003,69.276v-1.845l1.635-0.316V56.098l-1.635-0.317v-1.855h1.635h3.078h1.642v1.855l-1.642,0.317
		v10.815h4.334l0.146-1.929h2.35v4.291H63.003z"/>
	<path fill="#FFFFFF" d="M75.653,69.276v-1.845l1.634-0.316V56.098l-1.634-0.317v-1.855h1.634h3.077h1.644v1.855l-1.644,0.317
		v10.815h4.333l0.148-1.929h2.351v4.291H75.653z"/>
	<path fill="#FFFFFF" d="M90.96,55.781l-1.253,0.181L92.088,61h0.063l2.384-5.038l-1.244-0.181v-1.855h5.809v1.855l-1.308,0.211
		l-4.174,7.886v3.236l1.644,0.316v1.845h-6.356v-1.845l1.646-0.316v-3.396l-4.103-7.726l-1.296-0.211v-1.855h5.809V55.781z"/>
</g>
<g id="Layer_4">
	<g>
		<path fill="#FFFFFF" d="M62.817,134.968L8.222,103.96L7.778,41.176l54.15-31.777l54.595,31.009l0.003,0.316l0.441,62.468
			l-0.272,0.16L62.817,134.968z M9.313,103.319l53.496,30.385l53.06-31.138l-0.435-61.52L61.938,10.664L8.878,41.8L9.313,103.319z"
			/>
	</g>
</g>
</svg>
