<?xml version="1.0" encoding="utf-8"?>
<!-- Generator: Adobe Illustrator 16.0.0, SVG Export Plug-In . SVG Version: 6.00 Build 0)  -->
<!DOCTYPE svg PUBLIC "-//W3C//DTD SVG 1.1//EN" "http://www.w3.org/Graphics/SVG/1.1/DTD/svg11.dtd">
<svg version="1.1" xmlns="http://www.w3.org/2000/svg" xmlns:xlink="http://www.w3.org/1999/xlink" x="0px" y="0px"
	 width="124.56px" height="144px" viewBox="0 0 124.56 144" enable-background="new 0 0 124.56 144" xml:space="preserve">
<g id="Layer_1">
	<polygon fill-rule="evenodd" clip-rule="evenodd" fill="#D52027" points="124.544,36.328 62.405,0.413 0.234,36.271 0.229,51.938 
		0.208,51.938 0.202,108.089 62.343,144 124.512,108.145 124.516,55.442 124.537,55.442 	"/>
</g>
<g id="Layer_7">
	<polygon fill-rule="evenodd" clip-rule="evenodd" fill="#FFFFFF" points="116.12,41.2 116.11,57.72 116.09,57.72 116.09,103.26 
		62.36,134.25 8.66,103.22 8.67,75.3 8.67,54.69 8.68,54.69 8.69,41.15 38.63,23.88 62.42,10.16 85.67,23.6 	"/>
</g>
<g id="Layer_2">
</g>
<g id="Layer_3">
</g>
<g id="Layer_9">
</g>
<g id="Layer_5">
</g>
<g id="Layer_8">
</g>
<g id="Layer_10">
	<polygon fill="#FED600" points="44.347,109.125 62.269,119.485 80.232,109.125 	"/>
	<path fill="#FED600" d="M62.536,62.16c-17.676,0-32.741,11.173-38.522,26.848c0.038-0.001,0.072-0.009,0.112-0.008
		c2.172,0.062,3.753,1.231,5.774,1.804c2.009,0.568,4.07,0.786,6.125,1.125c1.36,0.224,1.332,1.756,0.519,2.504
		c0.419,1.019,0.827,2.029,1.208,3.044v-11.06c0-1.935,3-1.935,3,0V105.5c0,0.238-0.046,0.445-0.126,0.625h5.171
		c-0.027-0.116-0.045-0.24-0.045-0.375v-19.5c0-1.935,3-1.935,3,0v19.5c0,0.135-0.018,0.259-0.045,0.375h5.7
		c-0.042-0.14-0.072-0.289-0.072-0.458v-20.25c0-1.935,3-1.935,3,0v20.25c0,0.169-0.03,0.318-0.072,0.458h9.518
		c-0.017-0.093-0.029-0.188-0.029-0.291V86.25c0-1.935,3-1.935,3,0v19.584c0,0.104-0.013,0.198-0.029,0.291H75V86.334
		c0-1.935,3-1.935,3,0v19.791h5.597c-0.21-0.235-0.347-0.552-0.347-0.958v-18.75c0-1.935,3-1.935,3,0V92.2
		c0.238-0.219,0.568-0.352,1-0.325c0.478,0.029,0.965,0.024,1.456,0.001c1.273-0.418,2.53-0.649,3.826-0.567
		c0.52-0.121,1.031-0.252,1.527-0.391c1.748-0.487,3.377-1.177,5.204-1.166c0.536-0.391,1.066-0.799,1.588-1.236
		C94.938,73.099,80.021,62.16,62.536,62.16z M36.94,75.322h48.38c2.041,0,2.041,3.164,0,3.164H36.94
		C34.9,78.486,34.9,75.322,36.94,75.322z M86.967,81.187l-0.791,0.791c-0.039,0.039-0.091,0.054-0.133,0.088
		c-0.249,0.373-0.662,0.64-1.249,0.64H37.6c-2.04,0-2.04-3.164,0-3.164h46.539l0.591-0.592c0.609-0.609,1.627-0.609,2.237,0
		C87.576,79.56,87.576,80.577,86.967,81.187z"/>
	<g>
		<path fill="#FED600" d="M34.032,60.954c-4.627-5.223-9.254-10.445-13.882-15.668c-0.857-0.967-2.266,0.453-1.414,1.414
			c4.627,5.223,9.254,10.445,13.882,15.668C33.475,63.335,34.884,61.916,34.032,60.954L34.032,60.954z"/>
	</g>
	<g>
		<path fill="#FED600" d="M91.942,62.368c4.628-5.223,9.257-10.445,13.885-15.668c0.852-0.961-0.558-2.381-1.414-1.414
			c-4.628,5.223-9.257,10.445-13.885,15.668C89.677,61.916,91.086,63.335,91.942,62.368L91.942,62.368z"/>
	</g>
	<g>
		<path fill="#FED600" d="M18.46,80.44c-3.26-1.71-6.52-3.421-9.79-5.141v-2.25c3.6,1.891,7.2,3.78,10.8,5.67
			C20.62,79.32,19.6,81.04,18.46,80.44z"/>
	</g>
	<g>
		<path fill="#FED600" d="M116.09,74.15v2.25c-2.56,1.35-5.13,2.699-7.689,4.04c-1.141,0.6-2.15-1.12-1.011-1.721
			C110.29,77.2,113.19,75.67,116.09,74.15z"/>
	</g>
	<g>
		<path fill="#FED600" d="M65.78,52.213c-0.012-8.107-0.026-16.215-0.04-24.322c-0.003-1.764-2.003-1.765-2,0
			c0.014,8.107,0.028,16.214,0.04,24.322C63.783,53.977,65.783,53.977,65.78,52.213L65.78,52.213z"/>
	</g>
</g>
<g id="Layer_12">
	<path fill="#FED600" d="M13.667,85.918c0.223-0.008,0.363,0.109,0.431,0.263c0.246,0.018,0.493,0.028,0.74,0.042
		c-0.896-0.465-2.043-0.904-3.033-0.843C12.46,85.687,13.096,85.938,13.667,85.918z"/>
	<path fill="#FED600" d="M105.832,108.646c-0.037,0.008-0.075,0.015-0.112,0.021c-0.022,0.071-0.055,0.139-0.116,0.187
		c-0.348,0.27-0.734,0.433-1.141,0.539c-0.056,0.21-0.213,0.386-0.463,0.357c-0.045-0.005-0.088-0.015-0.133-0.021v0.003
		c-0.143-0.024-0.281-0.035-0.422-0.056c-0.052,0.14-0.16,0.251-0.304,0.298c0.044,0.021,0.088,0.048,0.129,0.089l0.083,0.083
		c0.035,0.035,0.054,0.072,0.076,0.11c0.529-0.182,1.061-0.334,1.595-0.407c0.498-0.067,0.811-0.346,0.969-0.701
		c0.311-0.063,0.589-0.238,0.743-0.563c0.006-0.013,0.007-0.024,0.013-0.036C106.443,108.599,106.141,108.632,105.832,108.646z"/>
	<path fill="#FED600" d="M54.167,101.348v-9.876C53.987,94.773,53.776,98.16,54.167,101.348z"/>
	<path fill="#FED600" d="M48.711,106.668h5.541c-0.05-0.15-0.085-0.314-0.085-0.501v-0.261c-1.609-0.004-3.22-0.011-4.829-0.009
		C49.226,106.248,49,106.509,48.711,106.668z"/>
	<path fill="#FED600" d="M87.58,79.244c-0.405-0.061-0.818-0.094-1.227-0.145c0.004-0.007,0.01-0.014,0.014-0.021
		c0.172-0.299,0.144-0.951,0.158-1.231c0.017-0.31-0.082-0.623-0.126-0.928c-0.005-0.03-0.021-0.056-0.027-0.085H70.167
		c-0.645,0-0.645-1,0-1h11.165c-0.132-0.03-0.271-0.05-0.427-0.049c-3.448-0.074-6.902-0.101-10.356-0.146
		c-0.033-0.05-0.078-0.091-0.115-0.139H54.75c-0.645,0-0.645-1,0-1h2.159c-0.255-0.299-0.593-0.538-0.954-0.555
		c-0.705-0.033-1.257,0.034-1.73,0.571c-0.309,0.352-0.473,0.817-0.449,1.284c0.001,0.019,0.01,0.034,0.011,0.053
		c-1.607-0.513-3.67-0.125-5.329-0.119c-2.022,0.007-4.047,0.159-6.068,0.232c-0.863,0.032-1.531,0.013-2.137,0.116h13.414
		c0.645,0,0.645,1,0,1H37.763c-0.134-0.835-0.739-1.567-1.839-1.567c-2.556,0-2.659,3.967-0.098,3.967
		c0.727,0,1.247-0.325,1.573-0.784c-0.057,0.145-0.107,0.29-0.128,0.449c-0.015,0.115-0.005,0.221,0.012,0.32
		c-0.279-0.005-0.559,0.014-0.828,0.07c-0.162,0.034-0.293,0.108-0.408,0.199c-0.149-0.136-0.354-0.222-0.619-0.222
		c-1.268,0-1.294,1.969-0.021,1.969c0.205,0,0.365-0.064,0.504-0.15c0.27,0.346,0.798,0.505,1.166,0.19l0.198-0.114
		c0.085-0.008,0.148-0.043,0.197-0.091c0.026,0.004,0.051,0.009,0.077,0.013c-0.026,0.082-0.056,0.161-0.067,0.259
		c-0.158,1.34-0.445,4.024,0.603,5.289V86.75c0-1.594,2.033-1.871,2.75-0.839c0.56-0.322,0.944-0.784,1.266-1.34
		c1.278,0.158,2.593,0.138,3.909,0.104c-0.482,2.619-0.152,5.446-0.14,8.104c0.002,0.476,0.005,0.95,0.008,1.426
		c-0.372,3.618-0.045,7.474,0.04,11.066c0,0.233,0.044,0.441,0.114,0.631l-1.605,0.003c-1.11,0.001-2.238-0.065-3.368-0.128
		c-0.067,0.4-0.276,0.695-0.556,0.891h6.621c-0.407-0.226-0.705-0.643-0.705-1.251v-19c0-1.678,2.253-1.897,2.853-0.666
		c-0.034-0.376-0.064-0.753-0.129-1.123c1.748-0.005,3.498-0.032,5.248-0.047c-0.029,0.073-0.047,0.155-0.064,0.237
		c0.04-0.08,0.104-0.137,0.157-0.204c0.276,0.569,0.823,0.994,1.659,0.994c0.395,0,0.724-0.103,1.001-0.263
		c0.005,0.054,0.027,0.097,0.027,0.154v20.667c0,0.187-0.035,0.351-0.085,0.501h10.502c-0.259-0.181-0.459-0.444-0.54-0.801
		c-3.161,0.041-6.321,0.071-9.484,0.046c0.268-1.209,0.239-2.377,0.136-3.55c0.628-3.782,0.27-7.871,0.075-11.811
		c0.004-1.726-0.017-3.449-0.053-5.148c0.01-0.188-0.015-0.355-0.055-0.512c0.074-0.096,0.14-0.197,0.195-0.305
		c0.947,0.011,1.895,0.027,2.84,0.069c2.004,0.088,4.009,0.149,6.014,0.194c-0.21,3.83-0.107,7.697-0.135,11.532
		c-0.021,2.879-0.398,6.118,0.423,8.924V85.834c0-1.906,2.907-1.93,2.992-0.079c-0.012-0.283-0.017-0.568-0.031-0.852
		c1.829,0.017,3.658,0.021,5.486-0.007c-0.003,0.009-0.006,0.017-0.009,0.025c-0.003,0.01-0.006,0.021-0.009,0.03
		c-0.043,0.054-0.094,0.1-0.128,0.161c-0.112,0.206-0.164,0.427-0.157,0.66c0.003,0.089,0.024,0.166,0.055,0.238
		c0.247-1.265,1.944-1.463,2.654-0.601c0.009-0.188,0.016-0.378,0.024-0.566c1.36-0.037,2.72-0.087,4.078-0.152
		c-0.071,0.806,0.15,1.661,0.722,2.361c0.475,0.581,0.681,1.65,0.739,2.896v-4.283c0-1.935,3-1.935,3,0v3.325
		c0.151-0.866,0.408-1.632,0.814-2.224c-0.106-0.056-0.189-0.151-0.214-0.302c-0.007-0.045-0.008-0.089-0.015-0.133H87V86.3
		c-0.179-1.267-0.101-2.521-0.083-3.799c0.002-0.175,0.079-0.298,0.188-0.378c-0.097-0.228-0.225-0.439-0.414-0.597
		c0.186-0.023,0.371-0.044,0.558-0.064c0-0.042,0.002-0.085,0.002-0.128c0.003-0.545,0.712-0.624,0.932-0.246
		C88.721,80.506,88.557,79.391,87.58,79.244z"/>
	<path fill="#FED600" d="M38.667,106.668c-0.341-0.238-0.583-0.623-0.583-1.168V86.991c-0.702,1.468-0.809,3.124-0.744,4.811
		c-0.562-0.308-1.268-0.363-1.902-0.036c-0.49,0.253-1.428,0.09-1.96,0.084l-1.636-0.019c0.052,0.061,0.081,0.129,0.1,0.199
		c0.045-0.014,0.089-0.029,0.143-0.029h5.167c0.645,0,0.645,1,0,1h-5.167c-0.25,0-0.4-0.151-0.457-0.335
		c-0.113,0.035-0.243,0.025-0.379-0.066c-1.489-1.004-3.487-1.211-5.165-1.816c-0.328-0.118-0.644-0.27-0.958-0.427
		c-0.004-0.001-0.008-0.001-0.013-0.002c-2.142-0.324-4.004-1.065-6.079-1.621c-0.396-0.106-0.431-0.533-0.245-0.788
		c-0.336-0.117-0.656-0.147-0.955-0.107c-0.315-0.155-0.639-0.3-0.976-0.437c-0.027-0.011-0.057-0.021-0.084-0.033
		c-0.319-0.197-0.639-0.391-0.96-0.585c-0.005,0.246-0.164,0.48-0.48,0.468c-2.293-0.092-4.594-0.334-6.663-1.334
		c-0.006,0.021-0.018,0.042-0.023,0.063c-0.29,0.385-0.394,0.91-0.158,1.565c0.643,1.786,0.486,3.526,0.808,5.274
		c-0.056,3.091-0.723,6.224-0.412,9.363c0.147,1.492,1.743,1.889,2.692,2.74c1.433,1.283,2.653,2.459,4.43,2.839
		c0.102-0.174,0.291-0.298,0.542-0.244c1.947,0.419,3.551,1.268,5.617,1.306c2.021,0.037,4.079,0.082,6.089-0.163
		c3.381-0.411,6.253-1.82,9.487-2.624c0.392-0.098,0.684,0.242,0.615,0.615c-0.001,0.005-0.002,0.011-0.003,0.016H38.667z
		 M24.232,98.091c-0.437,1.369-0.062,3.798-0.065,5.242c-0.003,1.207,0.087,2.475-0.933,2.986c-0.001,0.002-0.003,0.002-0.004,0.003
		c-0.039,0.02-0.072,0.042-0.114,0.059c-0.008,0.005-0.016,0.01-0.025,0.014c-0.134,0.157-0.312,0.25-0.53,0.191
		c-0.078-0.021-0.156-0.042-0.234-0.063c-0.397-0.106-0.488-0.723-0.147-0.913c-0.518-1.192-0.442-2.423-0.298-3.735
		c0.102-0.925,0.163-1.852,0.22-2.779c-0.114-1.09-0.186-2.188,0.042-3.236c-0.017-0.774,0.008-1.536,0.064-2.255
		c-0.115-0.031-0.222-0.072-0.296-0.142c-0.162-0.149-0.192-0.42-0.079-0.605c0.065-0.106,0.13-0.213,0.195-0.318
		c0.203-0.334,0.714-0.303,0.87,0.049c0.054,0.017,0.105,0.048,0.154,0.094c0.088-0.128,0.225-0.18,0.469,0.09
		c0.372,0.409,0.454,0.502,0.43,0.885c0.115,0.08,0.193,0.206,0.175,0.385c-0.073,0.7-0.181,1.388-0.295,2.078
		c-0.014,0.397-0.01,0.799-0.004,1.205C24.044,97.503,24.333,97.773,24.232,98.091z M28.213,105.62
		c-0.002,0.099,0.002,0.197-0.004,0.296c-0.005,0.339-0.314,0.551-0.633,0.482l-0.248-0.053c-0.252,0.222-0.712,0.208-0.81-0.213
		c-0.095-0.405,0.022-0.861,0.217-1.219c0.065-0.121,0.158-0.185,0.257-0.218c-0.066-2.531-0.511-5.144-0.242-7.655
		c0.02-0.183,0.115-0.309,0.235-0.388c-0.103-0.724-0.179-1.445-0.187-2.164c-0.077-0.142-0.058-0.296,0.023-0.428
		c0.064-0.204,0.245-0.328,0.469-0.354c0.067-0.008,0.134-0.016,0.201-0.024c0.357-0.05,0.59,0.204,0.614,0.47
		c0.153,0.107,0.255,0.289,0.209,0.521c-0.04,0.199-0.045,0.399-0.067,0.599c0.379,1.367,0.331,3.127,0.377,4.269
		c0.008,0.197-0.098,0.336-0.241,0.415c0.011,0.239,0.021,0.479,0.016,0.718C28.752,101.615,28.919,104.34,28.213,105.62z
		 M31.698,106.504c-0.067-0.029-0.133-0.063-0.201-0.092c-0.275-0.119-0.542-0.191-0.805-0.242c0.246-0.163,0.471-0.363,0.666-0.6
		c0.126,0.282,0.288,0.551,0.468,0.813C31.785,106.425,31.736,106.458,31.698,106.504z M33.083,101.625
		c0,0.141-0.048,0.242-0.115,0.321c-0.004,0.535-0.026,1.07-0.051,1.605c0.031,0.827-0.09,1.555-0.27,2.372
		c-0.091,0.418-0.717,0.496-0.914,0.119c-0.841-1.609-0.174-3.27-0.171-4.943c0-0.003-0.003-0.006-0.004-0.009
		c-0.168-0.65-0.172-1.342-0.118-2.042c-0.007-0.1-0.021-0.199-0.025-0.299c-0.035-0.895,0.17-1.93,0.098-2.862
		c-0.142-0.094-0.275-0.194-0.348-0.332c-0.103-0.196-0.09-0.446,0.078-0.605c0.092-0.088,0.185-0.175,0.277-0.263
		c0.275-0.262,0.726-0.145,0.835,0.221c0.035,0.117,0.057,0.235,0.079,0.354c0.259-0.086,0.57-0.009,0.63,0.313
		c0.092,0.488,0.092,0.61,0,1.099c-0.025,0.135-0.099,0.228-0.193,0.285C32.943,98.515,33.082,100.065,33.083,101.625z
		 M37.357,103.261c0.021,0.374,0.031,0.749,0.041,1.125c0.005,0.024,0.017,0.045,0.019,0.072V105c0,0.183-0.083,0.308-0.197,0.387
		c-0.009,0.021-0.019,0.033-0.028,0.05c-0.017,0.086-0.051,0.172-0.129,0.25l-0.167,0.167c-0.261,0.261-0.744,0.147-0.835-0.221
		c-0.014-0.056-0.028-0.111-0.042-0.167c-0.054-0.218,0.032-0.45,0.229-0.564c0.017-0.043,0.033-0.087,0.05-0.13
		c-0.001-0.008-0.005-0.014-0.006-0.021c-0.13-1.96-0.292-3.918-0.458-5.875c-0.022-0.263,0.169-0.425,0.389-0.471
		c-0.006-0.395-0.001-0.79,0.009-1.188c-0.052-0.368-0.105-0.726-0.16-1.087c-0.157-0.357-0.269-0.707-0.137-1.18
		c0.114-0.409,0.766-0.492,0.928-0.102c0.299-0.128,0.731,0.044,0.721,0.442c-0.028,1.15-0.101,2.29-0.153,3.435
		c0.019,0.166,0.032,0.33,0.049,0.496c0.045,0.074,0.075,0.161,0.063,0.278c-0.008,0.074-0.014,0.147-0.021,0.222
		c0.092,1.048,0.15,2.093,0.105,3.111C37.616,103.04,37.503,103.185,37.357,103.261z"/>
	<path fill="#FED600" d="M69.417,106.668h14.387c-0.219-0.226-0.363-0.534-0.38-0.931c-1.799-0.019-3.598-0.013-5.396-0.002
		c-0.588,1.249-2.861,1.033-2.861-0.651V88.54c-0.123,2.983-0.128,5.969-0.138,8.958c-0.009,2.77-0.295,5.553,0.017,8.261
		c-1.693,0.02-3.386,0.044-5.078,0.069C69.893,106.204,69.686,106.48,69.417,106.668z"/>
	<path fill="#FED600" d="M115.883,99.953c0.877-2.093,0.92-3.721,0.385-5.961c-0.024-0.104-0.082-0.184-0.124-0.275
		c-0.001-0.042,0.003-0.081,0-0.124c-0.136-2.202-0.396-4.331,0.372-6.456c0.141-0.388,0.104-0.752-0.03-1.074
		c-0.026,0.044-0.056,0.087-0.094,0.123c-0.454,1.506-2.342,1.02-3.871,0.844c-0.825,0.141-1.65,0.147-2.521,0.138
		c-0.571-0.006-0.672-0.818-0.133-0.982c0.417-0.127,0.841-0.202,1.267-0.258c0.124-0.143,0.314-0.236,0.499-0.159
		c0.064,0.027,0.122,0.061,0.183,0.088c0.076-0.006,0.153-0.009,0.229-0.015c-0.259-0.125-0.551-0.189-0.863-0.149
		c-2.951,0.379-5.215,2.704-8.367,2.78c-2.77,0.066-5.28,1.294-7.794,2.292c-0.354,0.141-0.675,0.346-0.945,0.594
		c-2.092,0.027-4.229-0.053-6.513-0.05c-0.485,0.001-0.86,0.159-1.146,0.405v12.104c0.01-0.045,0.022-0.089,0.032-0.134
		c-0.003,0.251-0.001,0.493,0.006,0.725c0.007,0.589,0.027,1.181,0.07,1.786c-0.062-0.027-0.12-0.042-0.181-0.066
		c-0.027,0.09-0.061,0.175-0.104,0.253c0.349-0.058,0.696-0.115,1.043-0.154c-0.067-0.078-0.116-0.177-0.117-0.309
		c-0.001-0.168-0.016-0.334-0.018-0.502l-0.164-0.246c-0.139-0.207-0.051-0.486,0.132-0.639c-0.033-1.049-0.092-2.095-0.163-3.141
		c-0.012,0.219-0.029,0.438-0.039,0.657c-0.083,0.1-0.153,0.214-0.217,0.336c0.094-0.572,0.163-1.143,0.2-1.704
		c-0.039-0.507-0.072-1.014-0.119-1.521c-0.133-1.42-0.317-3.01,0.539-4.242c0.129-0.186,0.336-0.295,0.564-0.23
		c0.313,0.088,0.491,0.162,0.786,0.301c0.147,0.068,0.26,0.271,0.248,0.432C88.694,98.593,89.205,101.813,89,105
		c-0.017,0.256-0.216,0.521-0.5,0.5c-0.082-0.006-0.164-0.013-0.247-0.019c-0.009,0.022-0.012,0.046-0.021,0.068
		c-0.017,0.042-0.049,0.065-0.072,0.101c0.001,0.089,0.006,0.178,0.007,0.267s-0.021,0.163-0.053,0.228
		c2.082-0.15,4.134,0.033,6.138,0.463c-0.085-0.393,0.453-0.804,0.852-0.46c0.157,0.136,0.253,0.108,0.431,0.038
		c0.316-0.125,0.533,0.087,0.585,0.348c0.61,0.105,1.215,0.236,1.816,0.38c0.105-0.158,0.292-0.268,0.531-0.228
		c0.646,0.107,1.268,0.241,1.878,0.414c1.084-0.078,2.146-0.047,3.188,0.325c0.636-0.004,1.271-0.001,1.904,0.013
		c0.168-0.059,0.326-0.123,0.514-0.169c0.237-0.058,0.425,0.05,0.53,0.211c0.173,0.01,0.346,0.009,0.519,0.021
		c0.316,0.023,0.501,0.313,0.486,0.574c0.967-0.413,1.771-0.985,2.646-1.716c1.7-1.423,3.63-2.146,5.474-3.37
		c0.983-0.653,0.87-1.925,0.247-2.715C115.865,100.166,115.872,100.061,115.883,99.953z M93.833,105.5
		c-0.009,0.34-0.435,0.675-0.752,0.432c-1.185-0.907-1.125-2.853-1.109-4.195c0.016-1.346,0.146-2.684,0.246-4.023
		c-0.202-0.046-0.38-0.195-0.385-0.463c-0.014-0.67-0.146-1.776,0.388-2.311c0.396-0.396,1.192-0.299,1.461,0.226
		c0.472,0.922,0.195,2.118,0.159,3.108C93.755,100.682,93.893,103.091,93.833,105.5z M99.056,99.357
		c-0.059,1.941,0.069,5.236-1.285,6.83c-0.321,0.378-1-0.022-0.836-0.486c0.155-0.439,0.218-0.886,0.236-1.335
		c-0.099-0.08-0.168-0.201-0.171-0.366c-0.064-3.293-0.614-6.519-0.065-9.799c0.044-0.259,0.376-0.43,0.615-0.35
		C99.355,94.458,99.1,97.934,99.056,99.357z M103.584,105.834c0,0.409-0.4,0.555-0.694,0.443c-0.097,0.261-0.396,0.474-0.725,0.321
		c-1.964-0.906-0.945-6.268-0.931-8.11c0.004-0.511-0.074-2.073,0.101-3.468c-0.093-0.083-0.16-0.2-0.168-0.354
		c-0.024-0.487,0.056-0.848,0.226-1.131c0.008-0.04,0.017-0.079,0.024-0.119c0.034-0.343,0.339-0.496,0.604-0.47
		c0.271-0.326,0.628-0.484,1.111-0.346c0.169,0.049,0.255,0.167,0.305,0.299c0.087,0.08,0.146,0.195,0.146,0.35V105.834z
		 M106.383,89.566c-2.109,0.835-4.402,1.3-6.583,1.916c-1.719,0.485-3.763,0.204-5.298,1.199c-0.233,0.151-0.453,0.072-0.592-0.089
		c-0.074,0.137-0.206,0.241-0.41,0.241H87c-0.645,0-0.645-1,0-1h6.5c0.149,0,0.261,0.058,0.341,0.141
		c0.037-0.059,0.089-0.111,0.157-0.156c0.114-0.074,0.233-0.128,0.352-0.188c0.004-0.107,0.037-0.217,0.13-0.316
		c1.072-1.144,3.01-1.226,4.446-1.549c0.891-0.2,1.809-0.314,2.717-0.459c0.064-0.157,0.209-0.286,0.44-0.306
		c1.171-0.103,2.1-0.744,3.065-0.777c0.1-0.041,0.2-0.082,0.302-0.121c0.274-0.104,0.489,0.059,0.575,0.281
		c0.188,0.081,0.38,0.194,0.578,0.348C106.935,88.987,106.687,89.446,106.383,89.566z"/>
	<path fill="#FED600" d="M86.133,107.4c-0.318,0.061-0.543-0.155-0.607-0.399c-0.2,0.078-0.416,0.118-0.634,0.115
		c0.002,0.018,0.009,0.034,0.009,0.052h0.35c0.645,0,0.645,1,0,1H39.167c-0.322,0-0.484-0.25-0.484-0.5H38.25
		c-0.296,0-0.449-0.212-0.474-0.439c-0.08-0.019-0.157-0.053-0.224-0.103c-0.247,0.065-0.489,0.14-0.733,0.211
		c0.224-0.014,0.442-0.014,0.646,0.015c0.637,0.09,0.365,1.053-0.266,0.965c-0.882-0.124-2.259,0.429-3.368,0.9
		c-0.337,0.155-0.678,0.302-1.033,0.434c-0.107,0.039-0.197,0.033-0.279,0.011c-0.246,0.072-0.494,0.14-0.743,0.207
		c-0.636,0.333-1.341,0.474-2.061,0.616c-0.039,0.16-0.144,0.298-0.334,0.332c-0.681,0.122-1.272,0.263-1.865,0.474
		c-0.052,0.115-0.149,0.217-0.301,0.276c-0.597,0.234-1.133,0.352-1.681,0.396c-0.076,0.061-0.166,0.108-0.285,0.122
		c-0.232,0.025-0.379,0.046-0.493,0.056c-0.149,0.051-0.305,0.08-0.457,0.119c0.313,0.149,0.635,0.283,0.976,0.387
		c0.08,0.024,0.154,0.034,0.228,0.044c0.388,0.211,0.78,0.407,1.18,0.575c0.511,0.299,0.995,0.641,1.453,1.021
		c0.056,0.062,0.094,0.132,0.159,0.189c0.235,0.16,0.475,0.314,0.718,0.463c0.385,0.24,0.761,0.325,1.107,0.296
		c1.021,0.585,2.058,1.146,3.113,1.673c0.183,0.211,0.392,0.414,0.65,0.601c0.282,0.203,0.569,0.376,0.854,0.56
		c-0.002,0.004-0.005,0.009-0.008,0.013l0.085,0.038c1.139,0.729,2.304,1.329,3.533,1.849c0.23,0.487,0.634,0.931,1.212,1.304
		c0.564,0.435,1.265,0.772,1.904,0.972c1.105,0.345,2.137,0.779,3.153,1.27c0.561,0.302,1.131,0.594,1.711,0.883
		c1.943,1.892,4.404,3.383,6.951,4.209c0.142,0.046,0.285,0.079,0.428,0.114c0.274,0.111,0.553,0.189,0.834,0.247
		c0.158,0.545,0.542,1.014,1.135,1.114l0.05,0.009c0.018,0.008,0.036,0.017,0.054,0.024c0.055,0.059,0.104,0.113,0.193,0.19
		c0.273,0.21,0.562,0.395,0.867,0.554c0.742,0.428,1.525,0.808,2.285,1.201c0.241,0.125,0.476,0.188,0.7,0.201
		c0.564,0.658,1.43,1.216,2.148,1.498c0.726,0.286,1.357,0.099,1.896-0.435c0.029-0.028,0.059-0.057,0.087-0.085
		c0.166-0.163,0.27-0.372,0.315-0.594c2.643-0.656,4.902-2.197,7.115-3.809c0.123-0.09,0.223-0.2,0.306-0.32
		c5.039-3.356,10.774-5.945,16.039-8.917c2.907-1.642,5.679-3.518,8.539-5.237c1.826-1.098,3.891-2.67,6.039-3.656
		C97.372,108.116,91.803,106.315,86.133,107.4z"/>
	<path fill="#FED600" d="M83.417,104.171V91.699c-0.083,2.15-0.414,4.406-0.525,5.52C82.66,99.531,82.949,101.87,83.417,104.171z"/>
	<path fill="#FED600" d="M70.091,96.385c0.021-3.459,0.047-6.953-0.091-10.416v17.822C70.354,101.375,70.077,98.782,70.091,96.385z"
		/>
	<path fill="#FED600" d="M67.044,74.501c-3.22-0.166-6.641-0.799-9.721,0H67.044z"/>
	<g>
		<path d="M52.18,40.269h-1.887l-0.327-1.724c-0.218-0.137-0.537-0.258-0.956-0.361c-0.419-0.104-0.865-0.155-1.336-0.155
			c-0.689,0-1.221,0.145-1.598,0.436c-0.376,0.289-0.564,0.665-0.564,1.124c0,0.426,0.196,0.774,0.589,1.047
			c0.393,0.273,1.073,0.562,2.038,0.866c1.385,0.385,2.435,0.894,3.149,1.525c0.715,0.632,1.073,1.461,1.073,2.49
			c0,1.074-0.425,1.922-1.274,2.542c-0.851,0.62-1.971,0.93-3.361,0.93c-0.994,0-1.891-0.158-2.693-0.474
			c-0.801-0.316-1.469-0.753-2.003-1.31v-2.619h1.948l0.267,1.784c0.253,0.207,0.596,0.377,1.029,0.513
			c0.434,0.135,0.918,0.202,1.452,0.202c0.689,0,1.213-0.14,1.572-0.422c0.359-0.281,0.538-0.658,0.538-1.129
			c0-0.482-0.17-0.87-0.513-1.163c-0.342-0.292-0.94-0.569-1.796-0.827c-1.487-0.431-2.613-0.943-3.377-1.534
			c-0.763-0.592-1.146-1.402-1.146-2.431c0-1.016,0.431-1.848,1.292-2.494c0.862-0.646,1.944-0.977,3.249-0.995
			c0.965,0,1.843,0.146,2.637,0.44c0.792,0.292,1.459,0.683,1.999,1.172V40.269z"/>
		<path d="M53.352,37.779v-1.517h5.195v1.517l-1.344,0.258v3.619h5.117v-3.619l-1.343-0.258v-1.517h1.343h2.508h1.344v1.517
			l-1.344,0.258v9.004l1.344,0.259v1.507h-5.195V47.3l1.343-0.259v-3.446h-5.117v3.446l1.344,0.259v1.507h-5.195V47.3l1.335-0.259
			v-9.004L53.352,37.779z"/>
		<path d="M67.138,37.779v-1.517h5.194v1.517l-1.344,0.258v9.004l1.344,0.259v1.507h-5.194V47.3l1.343-0.259v-9.004L67.138,37.779z"
			/>
		<path d="M73.288,48.807V47.3l1.336-0.259v-9.004l-1.336-0.258v-1.517h1.336h2.517h1.344v1.517l-1.344,0.258v8.841h3.54
			l0.119-1.577h1.923v3.506H73.288z"/>
		<path d="M83.629,48.807V47.3l1.332-0.259v-9.004l-1.332-0.258v-1.517h1.332h2.519h1.345v1.517l-1.345,0.258v8.841h3.54
			l0.122-1.577h1.921v3.506H83.629z"/>
	</g>
	<g>
		<path d="M37.387,50.84c1.402,0,2.495,0.272,3.28,0.817s1.178,1.361,1.178,2.446c0,0.551-0.146,1.043-0.438,1.477
			s-0.716,0.759-1.272,0.977c0.714,0.153,1.25,0.48,1.607,0.982c0.357,0.501,0.536,1.082,0.536,1.742
			c0,1.14-0.376,2.003-1.129,2.589s-1.818,0.879-3.198,0.879h-5.856v-1.432l1.268-0.245v-8.548l-1.268-0.246V50.84h1.268H37.387z
			 M35.751,55.829h1.718c0.638,0,1.128-0.131,1.472-0.393c0.344-0.261,0.516-0.643,0.516-1.145c0-0.551-0.173-0.957-0.52-1.218
			c-0.346-0.262-0.863-0.393-1.55-0.393h-1.636V55.829z M35.751,57.481v3.436h2.2c0.632,0,1.115-0.138,1.448-0.414
			c0.332-0.275,0.499-0.683,0.499-1.223c0-0.583-0.142-1.029-0.425-1.337c-0.284-0.308-0.73-0.462-1.342-0.462H35.751z"/>
		<path d="M50.859,57.514h-4.032v3.403h3.844l0.106-1.423h1.816v3.255H43.17v-1.432l1.268-0.245v-8.548l-1.268-0.246V50.84h1.268
			h8.139v3.263h-1.833l-0.106-1.423h-3.812v2.994h4.032V57.514z"/>
		<path d="M59.219,50.84c1.353,0,2.413,0.309,3.182,0.928c0.769,0.619,1.153,1.473,1.153,2.564c0,0.6-0.161,1.121-0.483,1.563
			c-0.321,0.441-0.792,0.799-1.414,1.071c0.703,0.208,1.209,0.552,1.518,1.035c0.308,0.482,0.462,1.081,0.462,1.795v0.605
			c0,0.262,0.051,0.465,0.155,0.609c0.104,0.145,0.274,0.23,0.516,0.257l0.294,0.041v1.44h-1.234c-0.781,0-1.329-0.21-1.645-0.63
			c-0.316-0.42-0.475-0.962-0.475-1.628v-0.679c0-0.578-0.154-1.032-0.462-1.362c-0.308-0.33-0.743-0.503-1.304-0.519h-1.955v3.141
			l1.276,0.245v1.432h-4.932v-1.432l1.268-0.245v-8.548l-1.268-0.246V50.84h1.268H59.219z M57.525,56.09h1.652
			c0.665,0,1.164-0.142,1.497-0.425c0.332-0.284,0.499-0.693,0.499-1.228c0-0.534-0.165-0.96-0.496-1.28
			c-0.329-0.319-0.816-0.479-1.459-0.479h-1.693V56.09z"/>
		<path d="M65.386,62.749v-1.432l1.269-0.245v-8.548l-1.269-0.246V50.84h1.269h2.388h1.277v1.439l-1.277,0.246v8.393h3.362
			l0.114-1.497h1.824v3.329H65.386z"/>
		<path d="M75.193,52.279V50.84h4.933v1.439l-1.276,0.246v8.548l1.276,0.245v1.432h-4.933v-1.432l1.276-0.245v-8.548L75.193,52.279z
			"/>
		<path d="M93.205,50.84v1.439l-1.275,0.246v10.225h-2.381l-4.809-8.016l-0.05,0.008v6.331l1.276,0.245v1.432h-4.933v-1.432
			l1.268-0.245v-8.548l-1.268-0.246V50.84h1.268h2.389l4.81,8.016l0.049-0.008v-6.323l-1.275-0.246V50.84h3.656H93.205z"/>
	</g>
	<circle cx="25" cy="48.5" r="2.5"/>
	<circle cx="99.125" cy="48.5" r="2.5"/>
	<g>
		<path d="M37.431,45.351h-1.402l-0.583,3.453h-1.733l0.584-3.453h-1.933V43.81h2.194l0.383-2.223h-1.924v-1.541h2.186l0.601-3.503
			h1.725l-0.593,3.503h1.402l0.601-3.503h1.732l-0.601,3.503h2.011v1.541h-2.272l-0.383,2.223h1.994v1.541h-2.255l-0.584,3.453
			h-1.732L37.431,45.351z M36.29,43.81h1.402l0.383-2.223h-1.402L36.29,43.81z"/>
	</g>
</g>
<g id="Layer_11">
	<path d="M79.081,105.581h-0.329V85.638c0-0.679-1.053-0.679-1.053,0v19.3h-2.238V85.704c0-0.68-1.052-0.68-1.052,0v19.877h-0.527
		c-0.68,0-0.68,1.054,0,1.054h5.199C79.762,106.635,79.762,105.581,79.081,105.581z"/>
	<g>
		<path d="M38.162,84.716c0-0.329,0-0.657,0-0.987c0-0.679-1.052-0.679-1.052,0c0,0.33,0,0.658,0,0.987
			C37.11,85.395,38.162,85.395,38.162,84.716L38.162,84.716z"/>
	</g>
	<g>
		<path d="M36.254,83.795c17.355,0,34.708,0,52.064,0c0.679,0,0.679-1.054,0-1.054c-17.356,0-34.709,0-52.064,0
			C35.575,82.741,35.575,83.795,36.254,83.795L36.254,83.795z"/>
	</g>
	<g>
		<path d="M87.198,85.572c0-0.527,0-1.054,0-1.58c0-0.679-1.053-0.679-1.053,0c0,0.526,0,1.053,0,1.58
			C86.146,86.251,87.198,86.251,87.198,85.572L87.198,85.572z"/>
	</g>
	<g>
		<path d="M87.529,82.676c0-0.22,0-0.439,0-0.658c0-0.68-1.054-0.68-1.054,0c0,0.219,0,0.438,0,0.658
			C86.476,83.354,87.529,83.354,87.529,82.676L87.529,82.676z"/>
	</g>
	<g>
		<path d="M37.702,82.741c0-0.373,0-0.746,0-1.119c0-0.679-1.054-0.679-1.054,0c0,0.373,0,0.746,0,1.119
			C36.648,83.421,37.702,83.421,37.702,82.741L37.702,82.741z"/>
	</g>
	<g>
		<path d="M35.661,81.886c17.398,0,34.797,0,52.198,0c0.677,0,0.677-1.054,0-1.054c-17.401,0-34.8,0-52.198,0
			C34.982,80.832,34.982,81.886,35.661,81.886L35.661,81.886z"/>
	</g>
	<g>
		<path d="M88.494,81.468c0.35-0.351,0.701-0.702,1.052-1.053c0.481-0.48-0.265-1.226-0.744-0.745
			c-0.352,0.352-0.701,0.703-1.054,1.054C87.268,81.204,88.013,81.948,88.494,81.468L88.494,81.468z"/>
	</g>
	<g>
		<path d="M36.033,81.119c-0.527-0.527-1.053-1.054-1.579-1.58c-0.481-0.48-1.226,0.264-0.745,0.744
			c0.526,0.526,1.053,1.053,1.58,1.579C35.77,82.343,36.514,81.599,36.033,81.119L36.033,81.119z"/>
	</g>
	<g>
		<path d="M34.016,80.109c18.407,0,36.816,0,55.224,0c0.679,0,0.679-1.054,0-1.054c-18.407,0-36.816,0-55.224,0
			C33.336,79.056,33.336,80.109,34.016,80.109L34.016,80.109z"/>
	</g>
	<g>
		<path d="M37.899,79.121c0-0.922,0-1.843,0-2.765c0-0.678-1.053-0.678-1.053,0c0,0.922,0,1.843,0,2.765
			C36.847,79.8,37.899,79.8,37.899,79.121L37.899,79.121z"/>
	</g>
	<g>
		<path d="M36.056,76.422c6.063,0,12.127,0,18.191,0c0.679,0,0.679-1.053,0-1.053c-0.03,0-0.061,0-0.09,0
			c-0.679,0-0.679,1.053,0,1.053c0.03,0,0.06,0,0.09,0c0.679,0,0.679-1.053,0-1.053c-6.064,0-12.128,0-18.191,0
			C35.376,75.369,35.376,76.422,36.056,76.422L36.056,76.422z"/>
	</g>
	<g>
		<path d="M87.002,79.45c0-1.111,0-2.224,0-3.335c0-0.679-1.054-0.679-1.054,0c0,1.111,0,2.224,0,3.335
			C85.948,80.13,87.002,80.13,87.002,79.45L87.002,79.45z"/>
	</g>
	<g>
		<path d="M70.02,76.226c5.859,0,11.717,0,17.575,0c0.678,0,0.678-1.053,0-1.053c-5.858,0-11.716,0-17.575,0
			C69.343,75.173,69.343,76.226,70.02,76.226L70.02,76.226z"/>
	</g>
	<g>
		<path d="M70.328,79.056c0-1.477,0-2.955,0-4.432c0-0.679-1.054-0.679-1.054,0c0,1.477,0,2.955,0,4.432
			C69.274,79.734,70.328,79.734,70.328,79.056L70.328,79.056z"/>
	</g>
	<g>
		<path d="M54.969,79.187c0-1.521,0-3.042,0-4.563c0-0.679-1.053-0.679-1.053,0c0,1.521,0,3.042,0,4.563
			C53.916,79.866,54.969,79.866,54.969,79.187L54.969,79.187z"/>
	</g>
	<g>
		<path d="M60.234,73.878c0-0.995,0-1.99,0-2.984c0-0.679-1.052-0.679-1.052,0c0,0.994,0,1.99,0,2.984
			C59.182,74.558,60.234,74.558,60.234,73.878L60.234,73.878z"/>
	</g>
	<g>
		<path d="M63.526,69.753c-0.033,1.186,0.078,2.368,0.088,3.554c0.005,0.679,1.059,0.68,1.054,0
			c-0.01-1.186-0.121-2.368-0.089-3.554C64.599,69.074,63.545,69.075,63.526,69.753L63.526,69.753z"/>
	</g>
	<g>
		<path d="M64.842,73.79c0-1.683,0-3.365,0-5.046c0-0.679-1.053-0.679-1.053,0c0,1.682,0,3.364,0,5.046
			C63.789,74.469,64.842,74.469,64.842,73.79L64.842,73.79z"/>
	</g>
	<g>
		<path d="M61.682,65.497c0.68,0,0.68-1.053,0-1.053C61.004,64.443,61.004,65.497,61.682,65.497L61.682,65.497z"/>
	</g>
	<path d="M63.569,68.655c0.004,0.177,0.032,0.492-0.064,0.677c-0.046-0.027-0.105-0.083-0.133-0.11
		c-0.461-0.427-0.643-1.148-0.68-1.751c-0.005-0.094-0.037-0.177-0.078-0.252c-0.109-0.337-0.344-0.634-0.735-0.618
		c-0.464,0.019-0.718,0.358-0.766,0.772c-0.006,0.032-0.019,0.059-0.019,0.095v0.094c-0.075,0.107-0.118,0.242-0.095,0.4
		c0.006,0.042,0.007,0.091,0.011,0.137c-0.05,0.01-0.097,0.031-0.142,0.06c-0.005-0.004-0.003-0.003-0.009-0.008
		c-0.076-0.07-0.162-0.131-0.25-0.185c-0.128-0.079-0.285-0.088-0.438-0.071c-0.055-0.01-0.111-0.015-0.172-0.02
		c-0.278-0.022-0.492,0.245-0.5,0.5c-0.003,0.031-0.007,0.062-0.01,0.093c-0.125,0.082-0.221,0.211-0.221,0.408v1.676
		c-0.021,0.054-0.036,0.11-0.06,0.164c-0.089,0.204-0.043,0.394,0.06,0.542v2.313c0,0.679,1.054,0.679,1.054,0v-2.625
		c0.881,0.336,1.359-0.444,1.578-1.371c0.104-0.038,0.188-0.118,0.243-0.236c0.22,0.399,0.516,0.743,0.917,0.948
		c1.14,0.584,1.577-0.76,1.561-1.631C64.609,67.978,63.557,67.977,63.569,68.655z"/>
	<path d="M70.766,73.613h-2.631v-3.992c0-0.102-0.029-0.184-0.069-0.255c0.13-0.092,0.28-0.15,0.464-0.141
		c0.678,0.034,0.674-1.019,0-1.053c-0.753-0.038-1.282,0.404-1.678,1.003c-0.355,0.544-0.535,1.404-1.089,1.79
		c-0.037,0.025-0.057,0.058-0.085,0.088c-0.239,0.024-0.455,0.186-0.439,0.498c0.031,0.688,0.031,1.374,0.011,2.062h-1.303
		c0.031-0.086,0.049-0.178,0.038-0.271c0.15-0.078,0.271-0.216,0.288-0.429c0.065-0.844,0.147-1.669,0.025-2.51
		c-0.04-0.275-0.294-0.392-0.539-0.372c-0.013-0.052-0.017-0.104-0.031-0.155c-0.104-0.357-0.54-0.469-0.812-0.296
		c-0.053-0.179-0.099-0.359-0.155-0.538c-0.051-0.162-0.167-0.263-0.303-0.319c-0.014-0.008-0.031-0.01-0.046-0.017
		c-0.022-0.007-0.043-0.019-0.066-0.023c-0.29-0.076-0.658,0.137-0.707,0.499c-0.058,0.433-0.081,0.865-0.092,1.299
		c-0.235-0.1-0.538-0.057-0.669,0.19c-0.021,0.039-0.032,0.083-0.052,0.123c-0.047-0.034-0.083-0.079-0.145-0.101
		c-0.055-0.021-0.11-0.041-0.166-0.061c-0.21-0.076-0.497,0.044-0.596,0.241c-0.007,0.013-0.013,0.026-0.02,0.039
		c-0.112,0.224-0.083,0.451,0.083,0.638c0.011,0.013,0.026,0.017,0.037,0.029c-0.021,0.109-0.048,0.219-0.061,0.329
		c-0.145,0.556,0.013,1.234,0.298,1.705h-1.425c0-0.644,0.003-1.287,0.042-1.93c0.005-0.079-0.008-0.146-0.029-0.207
		c0.06-0.249-0.036-0.53-0.357-0.608c-0.519-0.126-0.717-0.666-0.923-1.106c-0.22-0.472-0.452-0.898-0.882-1.21
		c-0.551-0.399-1.076,0.516-0.531,0.909c0.004,0.003,0.007,0.01,0.012,0.013c-0.033,0.066-0.054,0.143-0.054,0.234v3.861
		c0,0.017,0.007,0.027,0.009,0.043h-2.641c-0.681,0-0.681,1.054,0,1.054h17.288C71.443,74.667,71.443,73.613,70.766,73.613z"/>
	<g>
		<path d="M54.091,78.222c-3.642,0-7.284,0-10.927,0c-0.339,0-0.339,0.526,0,0.526c3.643,0,7.285,0,10.927,0
			C54.431,78.748,54.431,78.222,54.091,78.222L54.091,78.222z"/>
	</g>
	<g>
		<path d="M54.355,77.519c-2.911,0-5.821,0-8.732,0c-0.34,0-0.34,0.526,0,0.526c2.911,0,5.821,0,8.732,0
			C54.694,78.045,54.694,77.519,54.355,77.519L54.355,77.519z"/>
	</g>
	<g>
		<path d="M54.048,77.387c0.126,0,0.253,0,0.378,0c0.339,0,0.339-0.526,0-0.526c-0.448,0-0.897,0-1.346,0
			c-0.34,0-0.34,0.526,0,0.526c0.015,0,0.031,0,0.045,0c0.34,0,0.34-0.526,0-0.526c-1.77,0-3.54,0-5.309,0
			c-0.34,0-0.34,0.526,0,0.526c1.77,0,3.54,0,5.309,0c0.34,0,0.34-0.526,0-0.526c-0.015,0-0.03,0-0.045,0
			c-0.34,0-0.34,0.526,0,0.526c0.449,0,0.898,0,1.346,0c0.339,0,0.339-0.526,0-0.526c-0.125,0-0.252,0-0.378,0
			C53.708,76.86,53.708,77.387,54.048,77.387L54.048,77.387z"/>
	</g>
	<g>
		<path d="M70.099,78.748c3.641,0,7.283,0,10.928,0c0.337,0,0.337-0.526,0-0.526c-3.645,0-7.287,0-10.928,0
			C69.759,78.222,69.759,78.748,70.099,78.748L70.099,78.748z"/>
	</g>
	<g>
		<path d="M69.835,78.045c2.909,0,5.821,0,8.73,0c0.341,0,0.341-0.526,0-0.526c-2.909,0-5.821,0-8.73,0
			C69.495,77.519,69.495,78.045,69.835,78.045L69.835,78.045z"/>
	</g>
	<g>
		<path d="M70.141,76.86c-0.126,0-0.252,0-0.378,0c-0.34,0-0.34,0.526,0,0.526c0.447,0,0.897,0,1.347,0c0.339,0,0.339-0.526,0-0.526
			c-0.016,0-0.031,0-0.046,0c-0.341,0-0.341,0.526,0,0.526c1.77,0,3.54,0,5.31,0c0.34,0,0.34-0.526,0-0.526c-1.77,0-3.54,0-5.31,0
			c-0.341,0-0.341,0.526,0,0.526c0.015,0,0.03,0,0.046,0c0.339,0,0.339-0.526,0-0.526c-0.449,0-0.899,0-1.347,0
			c-0.34,0-0.34,0.526,0,0.526c0.126,0,0.252,0,0.378,0C70.481,77.387,70.481,76.86,70.141,76.86L70.141,76.86z"/>
	</g>
	<path fill-rule="evenodd" clip-rule="evenodd" d="M68.38,76.921c0,0.679-0.549,1.229-1.229,1.229H57.19
		c-0.678,0-1.229-0.55-1.229-1.229l0,0c0-0.679,0.55-1.229,1.229-1.229h9.961C67.831,75.692,68.38,76.242,68.38,76.921L68.38,76.921
		z"/>
	<g>
		<path d="M71.775,85.595c-0.093-0.083-0.176-0.163-0.29-0.217c-0.211-0.097-0.465-0.102-0.638,0.083
			c-0.296,0.318-0.147,0.724-0.085,1.105c0.338-0.093,0.677-0.186,1.016-0.279c-0.062-0.214-0.101-0.427-0.113-0.649
			c-0.026-0.517-0.702-0.728-0.981-0.266c-0.161,0.266-0.179,0.552-0.251,0.85c0.322-0.043,0.643-0.084,0.963-0.125
			c-0.13-0.263-0.204-0.484-0.411-0.7c-0.443-0.46-1.057,0.121-0.827,0.638c0.03,0.07-0.006,0.302-0.006,0.393
			c0.001,0.321,0.341,0.628,0.667,0.509c0.479-0.176,0.583-0.592,0.763-1.026c-0.337,0-0.678,0-1.016,0
			c0.098,0.37,0.072,0.697,0.251,1.047c0.177,0.348,0.73,0.339,0.908,0c0.198-0.377,0.32-0.772,0.448-1.179
			c-0.337,0-0.676,0-1.016,0c0.077,0.334,0.15,0.663,0.263,0.987c0.15,0.423,0.719,0.534,0.966,0.126
			c0.126-0.212,0.21-0.476,0.25-0.719c-0.34,0-0.68,0-1.017,0c0.065,0.256,0.104,0.493,0.25,0.719
			c0.246,0.383,0.83,0.322,0.963-0.126c0.067-0.223,0.119-0.451,0.21-0.664c-0.322-0.042-0.642-0.084-0.963-0.126
			c0.032,0.194,0.035,0.396,0.066,0.592c0.081,0.511,0.724,0.438,0.962,0.126c0.129-0.169,0.171-0.339,0.264-0.526
			c-0.321-0.041-0.643-0.083-0.962-0.126c0.035,0.242,0.021,0.481,0.064,0.725c0.081,0.448,0.763,0.515,0.963,0.126
			c0.152-0.294,0.238-0.594,0.316-0.916c-0.337,0-0.677,0-1.017,0c0.052,0.265,0.053,0.479,0.186,0.718
			c0.194,0.35,0.712,0.336,0.909,0c0.147-0.249,0.184-0.505,0.251-0.783c-0.339,0-0.676,0-1.017,0
			c0.101,0.248,0.096,0.526,0.132,0.79c0.084,0.569,0.857,0.429,1.017,0c0.097-0.26,0.135-0.522,0.198-0.79
			c-0.339,0-0.679,0-1.016,0c0.041,0.176,0.045,0.338,0.046,0.518c0.004,0.683,1.022,0.677,1.053,0c-0.01-0.093,0-0.184,0.03-0.271
			c-0.258,0.105-0.516,0.211-0.772,0.315c0.003,0.002,0.006,0.004,0.008,0.007c-0.08-0.198-0.159-0.396-0.241-0.596
			c-0.01,0.094-0.029,0.185-0.058,0.273c-0.165,0.659,0.85,0.938,1.015,0.28c0.028-0.089,0.048-0.18,0.06-0.272
			c0.035-0.26-0.031-0.439-0.242-0.595c-0.003-0.002-0.006-0.005-0.01-0.007c-0.282-0.207-0.687,0.014-0.774,0.314
			c-0.05,0.179-0.06,0.367-0.067,0.551c0.352,0,0.703,0,1.053,0c-0.002-0.271-0.02-0.533-0.083-0.798
			c-0.121-0.503-0.898-0.505-1.016,0c-0.063,0.269-0.101,0.529-0.199,0.79c0.34,0,0.679,0,1.017,0
			c-0.039-0.277-0.029-0.527-0.132-0.79c-0.176-0.447-0.884-0.552-1.017,0c-0.039,0.174-0.051,0.376-0.144,0.533
			c0.303,0,0.607,0,0.909,0c-0.059-0.106-0.056-0.347-0.078-0.467c-0.097-0.521-0.896-0.488-1.017,0
			c-0.055,0.228-0.098,0.452-0.208,0.664c0.32,0.041,0.641,0.083,0.961,0.126c-0.043-0.236-0.029-0.485-0.065-0.725
			c-0.066-0.452-0.771-0.509-0.963-0.125c-0.09,0.182-0.139,0.365-0.264,0.526c0.322,0.041,0.644,0.083,0.965,0.125
			c-0.033-0.193-0.036-0.396-0.066-0.592c-0.068-0.432-0.791-0.535-0.961-0.125c-0.129,0.301-0.226,0.601-0.318,0.915
			c0.322-0.043,0.641-0.085,0.963-0.126c-0.091-0.141-0.105-0.31-0.144-0.467c-0.123-0.479-0.932-0.529-1.017,0
			c-0.025,0.155-0.063,0.332-0.146,0.467c0.321,0.041,0.643,0.083,0.963,0.126c-0.113-0.324-0.186-0.654-0.264-0.987
			c-0.123-0.53-0.864-0.476-1.016,0c-0.101,0.317-0.186,0.63-0.341,0.927c0.305,0,0.604,0,0.908,0
			c-0.108-0.215-0.08-0.557-0.144-0.796c-0.146-0.551-0.829-0.448-1.016,0c-0.04,0.097-0.229,0.364-0.027,0.29
			c0.223,0.17,0.443,0.339,0.666,0.508c-0.001-0.319-0.006-0.628-0.137-0.923c-0.276,0.212-0.552,0.424-0.826,0.638
			c0.104,0.11,0.176,0.348,0.247,0.485c0.202,0.408,0.858,0.304,0.961-0.126c0.046-0.19,0.041-0.427,0.145-0.599
			c-0.326-0.088-0.655-0.176-0.979-0.265c0.016,0.314,0.063,0.626,0.148,0.929c0.187,0.669,1.124,0.377,1.016-0.279
			c-0.021-0.139-0.063-0.281-0.062-0.422c-0.051,0.124-0.102,0.247-0.152,0.372c0.01-0.011,0.02-0.021,0.029-0.03
			c-0.212,0.026-0.427,0.054-0.64,0.081c0.024,0.017,0.052,0.035,0.075,0.051C71.533,86.79,72.282,86.048,71.775,85.595
			L71.775,85.595z"/>
	</g>
	<g>
		<path d="M41.341,85.893c-0.125,0.437-0.075,0.69,0.202,1.038c0.345,0.438,0.999-0.039,0.88-0.512
			c-0.046-0.179,0-0.402,0.019-0.584c-0.345,0.046-0.69,0.093-1.034,0.14c0.062,0.256,0.002,0.53,0.066,0.79
			c0.147,0.609,0.987,0.426,1.033-0.14c0.031-0.377,0.17-0.742,0.245-1.111c-0.339,0-0.677,0-1.015,0
			c0.06,0.326,0.101,0.649,0.113,0.979c0.017,0.514,0.713,0.732,0.981,0.266c0.168-0.292,0.202-0.65,0.395-0.922
			c-0.321-0.041-0.642-0.083-0.962-0.125c0.078,0.255-0.112,0.515,0,0.789c0.136,0.337,0.59,0.561,0.879,0.233
			c0.267-0.304,0.294-0.619,0.477-0.963c-0.321-0.041-0.642-0.083-0.962-0.126c0.079,0.302-0.015,0.611,0.066,0.921
			c0.144,0.55,0.833,0.452,1.015,0c0.106-0.259,0.153-0.544,0.277-0.795c-0.327-0.089-0.655-0.177-0.981-0.266
			c0.01,0.419,0.043,0.832,0,1.251c-0.065,0.627,0.845,0.662,1.034,0.14c0.145-0.399,0.317-0.786,0.46-1.185
			c-0.345-0.047-0.689-0.094-1.034-0.14c0.012,0.396,0.054,0.788,0.066,1.185c0.015,0.494,0.738,0.757,0.981,0.265
			c0.209-0.422,0.407-0.849,0.514-1.31c-0.344-0.047-0.689-0.094-1.034-0.14c0.011,0.375,0.045,0.743,0,1.118
			c-0.062,0.517,0.766,0.728,0.981,0.266c0.19-0.406,0.35-0.827,0.514-1.244c-0.345-0.047-0.689-0.094-1.033-0.14
			c0.009,0.417,0.054,0.832,0.065,1.25c0.015,0.595,0.866,0.717,1.033,0.141c0.128-0.438,0.251-0.868,0.33-1.317
			c-0.345-0.046-0.689-0.094-1.035-0.14c0.011,0.386-0.021,1.028,0.268,1.325c0.274,0.278,0.783,0.151,0.88-0.232
			c0.036-0.142,0.035-0.29,0.037-0.435c0.01-0.68-1.043-0.679-1.053,0c-0.021,0.16-0.021,0.211,0.001,0.153
			c0.294-0.077,0.588-0.154,0.88-0.231c0.22,0.223,0.096,0.089,0.07-0.146c-0.014-0.145-0.025-0.289-0.029-0.434
			c-0.016-0.571-0.93-0.746-1.034-0.14c-0.079,0.448-0.203,0.879-0.33,1.315c0.345,0.047,0.69,0.095,1.035,0.141
			c-0.012-0.418-0.057-0.833-0.066-1.25c-0.016-0.628-0.823-0.676-1.035-0.14c-0.132,0.332-0.257,0.668-0.407,0.992
			c0.327,0.089,0.654,0.178,0.98,0.266c0.045-0.375,0.012-0.743,0-1.118c-0.017-0.581-0.896-0.735-1.034-0.14
			c-0.086,0.374-0.237,0.714-0.407,1.059c0.327,0.089,0.653,0.177,0.981,0.266c-0.011-0.396-0.055-0.789-0.066-1.185
			c-0.019-0.615-0.835-0.69-1.035-0.14c-0.144,0.398-0.316,0.785-0.46,1.185c0.344,0.046,0.689,0.094,1.034,0.14
			c0.043-0.419,0.011-0.832,0-1.251c-0.013-0.495-0.739-0.757-0.981-0.266c-0.166,0.337-0.242,0.701-0.382,1.047
			c0.339,0,0.677,0,1.015,0c-0.078-0.301,0.016-0.611-0.066-0.921c-0.112-0.432-0.746-0.529-0.961-0.126
			c-0.112,0.208-0.165,0.582-0.313,0.749c0.293,0.077,0.586,0.155,0.88,0.232c-0.083-0.207,0.076-0.541,0-0.789
			c-0.143-0.46-0.701-0.494-0.962-0.126c-0.2,0.28-0.226,0.626-0.395,0.922c0.326,0.087,0.654,0.176,0.981,0.265
			c-0.015-0.422-0.075-0.844-0.151-1.259c-0.093-0.51-0.914-0.499-1.015,0c-0.096,0.466-0.243,0.914-0.283,1.391
			c0.345-0.046,0.69-0.094,1.035-0.14c-0.062-0.255-0.002-0.529-0.065-0.79c-0.15-0.617-0.977-0.418-1.035,0.14
			c-0.03,0.288-0.053,0.581,0.019,0.864c0.293-0.171,0.586-0.342,0.879-0.513c-0.04-0.05-0.079-0.101-0.119-0.151
			c0.051,0.125,0.103,0.248,0.155,0.372c0.011-0.077,0.022-0.156,0.034-0.235C42.544,85.518,41.527,85.24,41.341,85.893
			L41.341,85.893z"/>
	</g>
	<g>
		<path d="M87.177,92.22c1.844,0,3.688,0,5.53,0c0.679,0,0.679-1.053,0-1.053c-1.843,0-3.687,0-5.53,0
			C86.498,91.167,86.498,92.22,87.177,92.22L87.177,92.22z"/>
	</g>
	<g>
		<path d="M93.329,92.069c4.125-1.36,8.251-2.721,12.373-4.08c-0.092-0.339-0.186-0.679-0.279-1.017
			c-1.005,0.332-2.01,0.663-3.015,0.994c-0.641,0.212-0.365,1.229,0.28,1.017c1.005-0.331,2.01-0.664,3.014-0.994
			c0.643-0.213,0.368-1.229-0.279-1.017c-4.124,1.36-8.249,2.72-12.374,4.081C92.408,91.266,92.684,92.283,93.329,92.069
			L93.329,92.069z"/>
	</g>
	<g>
		<path d="M94.421,94.977c4.019-1.048,8.037-2.096,12.056-3.144c-0.093-0.339-0.186-0.678-0.28-1.017
			c-0.979,0.257-1.957,0.512-2.936,0.767c-0.656,0.171-0.378,1.187,0.28,1.016c0.979-0.255,1.957-0.511,2.936-0.766
			c0.659-0.172,0.379-1.188-0.28-1.017c-4.018,1.048-8.037,2.095-12.055,3.144C93.484,94.132,93.764,95.147,94.421,94.977
			L94.421,94.977z"/>
	</g>
	<g>
		<path d="M105.563,88.007c3.511,0,7.021,0,10.53,0c0.681,0,0.681-1.053,0-1.053c-3.509,0-7.02,0-10.53,0
			C104.885,86.954,104.885,88.007,105.563,88.007L105.563,88.007z"/>
	</g>
	<g>
		<path d="M106.132,87.876c3.4-0.898,6.802-1.797,10.201-2.694c0.656-0.175,0.378-1.19-0.278-1.017
			c-3.402,0.899-6.803,1.797-10.202,2.694C105.194,87.033,105.474,88.048,106.132,87.876L106.132,87.876z"/>
	</g>
	<g>
		<path d="M106.584,90.673c0-0.845,0-1.689,0-2.534c0-0.68-1.053-0.68-1.053,0c0,0.845,0,1.689,0,2.534
			C105.531,91.352,106.584,91.352,106.584,90.673L106.584,90.673z"/>
	</g>
	<g>
		<path d="M106.188,91.266c3.248,0,6.496,0,9.742,0c0.678,0,0.678-1.054,0-1.054c-0.022,0-0.045,0-0.066,0
			c-0.679,0-0.679,1.054,0,1.054c0.021,0,0.044,0,0.066,0c0.678,0,0.678-1.054,0-1.054c-3.246,0-6.494,0-9.742,0
			C105.51,90.212,105.51,91.266,106.188,91.266L106.188,91.266z"/>
	</g>
	<g>
		<path d="M112.376,91.232c0,4.354,0,8.71,0,13.064c0,0.679,1.053,0.679,1.053,0c0-0.043,0-0.087,0-0.131
			c0-0.679-1.053-0.679-1.053,0c0,0.044,0,0.088,0,0.131c0,0.679,1.053,0.679,1.053,0c0-4.354,0-8.71,0-13.064
			C113.429,90.554,112.376,90.554,112.376,91.232L112.376,91.232z"/>
	</g>
	<g>
		<path d="M106.058,91.232c0,5.287,0,10.576,0,15.862c0,0.68,1.054,0.68,1.054,0c0-0.087,0-0.176,0-0.263
			c0-0.679-1.054-0.679-1.054,0c0,0.087,0,0.176,0,0.263c0,0.68,1.054,0.68,1.054,0c0-5.286,0-10.575,0-15.862
			C107.111,90.554,106.058,90.554,106.058,91.232L106.058,91.232z"/>
	</g>
	<g>
		<path d="M94.283,106.727c4.061,0.299,8.121,0.598,12.182,0.895c0.679,0.05,0.674-1.003,0-1.053
			c-4.061-0.297-8.121-0.597-12.182-0.895C93.606,105.625,93.612,106.678,94.283,106.727L94.283,106.727z"/>
	</g>
	<g>
		<path d="M106.748,107.688c0.526,0,1.053,0,1.58,0c0.678,0,0.678-1.053,0-1.053c-0.527,0-1.054,0-1.58,0
			C106.069,106.635,106.069,107.688,106.748,107.688L106.748,107.688z"/>
	</g>
	<g>
		<path d="M104.083,106.767c0-4.904,0-9.809,0-14.711c0-0.68-1.054-0.68-1.054,0c0,4.902,0,9.807,0,14.711
			C103.029,107.444,104.083,107.444,104.083,106.767L104.083,106.767z"/>
	</g>
	<g>
		<path d="M101.352,106.601c0-4.591,0-9.182,0-13.772c0-0.679-1.053-0.679-1.053,0c0,4.591,0,9.182,0,13.772
			C100.299,107.28,101.352,107.28,101.352,106.601L101.352,106.601z"/>
	</g>
	<g>
		<path d="M99.244,106.24c0-4.286,0-8.572,0-12.857c0-0.679-1.053-0.679-1.053,0c0,4.285,0,8.571,0,12.857
			C98.191,106.918,99.244,106.918,99.244,106.24L99.244,106.24z"/>
	</g>
	<g>
		<path d="M97.008,106.074c0-4.018,0-8.036,0-12.055c0-0.679-1.054-0.679-1.054,0c0,4.019,0,8.037,0,12.055
			C95.954,106.754,97.008,106.754,97.008,106.074L97.008,106.074z"/>
	</g>
	<g>
		<path d="M94.704,106.01c0-3.785,0-7.569,0-11.354c0-0.678-1.054-0.678-1.054,0c0,3.785,0,7.569,0,11.354
			C93.65,106.688,94.704,106.688,94.704,106.01L94.704,106.01z"/>
	</g>
	<g>
		<path d="M93.78,94.063c-2.126,0-4.256,0-6.383,0c-0.679,0-0.679,1.053,0,1.053c2.127,0,4.257,0,6.383,0
			C94.462,95.116,94.462,94.063,93.78,94.063L93.78,94.063z"/>
	</g>
	<g>
		<path d="M89.963,105.778c0-3.565,0-7.13,0-10.695c0-0.68-1.053-0.68-1.053,0c0,0.044,0,0.087,0,0.132c0,0.679,1.053,0.679,1.053,0
			c0-0.045,0-0.088,0-0.132c0-0.68-1.053-0.68-1.053,0c0,3.565,0,7.13,0,10.695C88.91,106.457,89.963,106.457,89.963,105.778
			L89.963,105.778z"/>
	</g>
	<path d="M94.341,105.548h-7.208v-19.91c0-0.008-0.004-0.014-0.004-0.021h0.663c0.678,0,0.678-1.053,0-1.053H36.78
		c-0.679,0-0.679,1.053,0,1.053h8.75c-0.005,0.03-0.018,0.055-0.018,0.088v0.986h-7.153c-0.679,0-0.679,1.054,0,1.054h7.153v17.837
		h-0.525c-0.68,0-0.68,1.054,0,1.054h5.2c0.679,0,0.679-1.054,0-1.054h-0.33V87.744h4.036v17.837h-0.527
		c-0.679,0-0.679,1.054,0,1.054h5.2c0.681,0,0.681-1.054,0-1.054h-0.328V87.744h7.964v17.837h-0.525c-0.68,0-0.68,1.054,0,1.054h5.2
		c0.679,0,0.679-1.054,0-1.054h-0.33V87.744h12.244v17.837h-0.528c-0.68,0-0.68,1.054,0,1.054h5.2c0.064,0,0.116-0.018,0.168-0.034
		h6.71C95.02,106.601,95.02,105.548,94.341,105.548z M46.548,85.616h2.26c0,0.008-0.004,0.014-0.004,0.021v1.053h-2.238v-0.986
		C46.566,85.671,46.553,85.646,46.548,85.616z M48.804,87.744v17.092c-0.038-0.009-0.072-0.023-0.116-0.023h-2.122V87.744H48.804z
		 M57.185,104.625h-2.238V87.744h2.238V104.625z M57.185,85.638v1.053h-2.238v-0.986c0-0.033-0.013-0.058-0.018-0.088h2.26
		C57.188,85.624,57.185,85.63,57.185,85.638z M69.494,104.813h-2.182c-0.021,0-0.036,0.01-0.057,0.012v-17.08h2.238V104.813z
		 M69.494,85.638v1.053h-2.238v-0.986c0-0.033-0.013-0.058-0.018-0.088h2.26C69.498,85.624,69.494,85.63,69.494,85.638z
		 M78.661,85.827c-0.055,0.291-0.082,0.575-0.088,0.863h-8.026v-1.053c0-0.008-0.004-0.014-0.004-0.021h8.208
		C78.709,85.672,78.678,85.741,78.661,85.827z M86.082,104.941c-0.007,0-0.012-0.004-0.02-0.004H84
		c-0.061,0-0.109,0.017-0.158,0.032V87.744h2.24V104.941z M86.082,85.638v1.053h-2.24v-0.986c0-0.033-0.013-0.058-0.018-0.088h2.262
		C86.086,85.624,86.082,85.63,86.082,85.638z"/>
	<g>
		<path d="M92.434,105.91c0-3.575,0-7.152,0-10.729c0-0.678-1.055-0.678-1.055,0c0,3.577,0,7.154,0,10.729
			C91.379,106.589,92.434,106.589,92.434,105.91L92.434,105.91z"/>
	</g>
	<g>
		<path d="M94.242,94.358c0-0.823,0-1.646,0-2.469c0-0.678-1.052-0.678-1.052,0c0,0.823,0,1.646,0,2.469
			C93.19,95.037,94.242,95.037,94.242,94.358L94.242,94.358z"/>
	</g>
	<g>
		<path d="M37.712,92.22c-1.737,0-3.475,0-5.213,0c-0.639,0-0.639-1.053,0-1.053c1.738,0,3.476,0,5.213,0
			C38.351,91.167,38.351,92.22,37.712,92.22L37.712,92.22z"/>
	</g>
	<g>
		<path d="M31.907,92.069c-4.125-1.36-8.25-2.721-12.375-4.08c0.094-0.339,0.186-0.679,0.28-1.017
			c1.005,0.332,2.01,0.663,3.014,0.994c0.642,0.212,0.368,1.229-0.279,1.017c-1.004-0.331-2.009-0.664-3.014-0.994
			c-0.642-0.213-0.367-1.229,0.28-1.017c4.125,1.36,8.25,2.72,12.375,4.081C32.828,91.266,32.554,92.283,31.907,92.069
			L31.907,92.069z"/>
	</g>
	<g>
		<path d="M30.813,94.977c-4.017-1.048-8.036-2.096-12.055-3.144c0.094-0.339,0.187-0.678,0.28-1.017
			c0.979,0.257,1.958,0.512,2.936,0.767c0.657,0.171,0.379,1.187-0.279,1.016c-0.979-0.255-1.958-0.511-2.937-0.766
			c-0.657-0.172-0.377-1.188,0.28-1.017c4.019,1.048,8.037,2.095,12.056,3.144C31.751,94.132,31.471,95.147,30.813,94.977
			L30.813,94.977z"/>
	</g>
	<g>
		<path d="M19.672,88.007c-3.51,0-7.021,0-10.532,0c-0.678,0-0.678-1.053,0-1.053c3.51,0,7.021,0,10.532,0
			C20.35,86.954,20.35,88.007,19.672,88.007L19.672,88.007z"/>
	</g>
	<g>
		<path d="M19.104,87.876c-3.402-0.898-6.803-1.797-10.203-2.694c-0.657-0.175-0.377-1.19,0.28-1.017
			c3.401,0.899,6.801,1.797,10.202,2.694C20.04,87.033,19.762,88.048,19.104,87.876L19.104,87.876z"/>
	</g>
	<g>
		<path d="M18.651,90.673c0-0.845,0-1.689,0-2.534c0-0.68,1.054-0.68,1.054,0c0,0.845,0,1.689,0,2.534
			C19.705,91.352,18.651,91.352,18.651,90.673L18.651,90.673z"/>
	</g>
	<g>
		<path d="M19.046,91.266c-3.246,0-6.495,0-9.741,0c-0.679,0-0.679-1.054,0-1.054c0.021,0,0.044,0,0.065,0
			c0.679,0,0.679,1.054,0,1.054c-0.021,0-0.044,0-0.065,0c-0.679,0-0.679-1.054,0-1.054c3.246,0,6.495,0,9.741,0
			C19.725,90.212,19.725,91.266,19.046,91.266L19.046,91.266z"/>
	</g>
	<g>
		<path d="M19.178,91.232c0,5.287,0,10.576,0,15.862c0,0.68-1.054,0.68-1.054,0c0-0.087,0-0.176,0-0.263
			c0-0.679,1.054-0.679,1.054,0c0,0.087,0,0.176,0,0.263c0,0.68-1.054,0.68-1.054,0c0-5.286,0-10.575,0-15.862
			C18.125,90.554,19.178,90.554,19.178,91.232L19.178,91.232z"/>
	</g>
	<g>
		<path d="M30.951,106.727c-4.06,0.299-8.121,0.598-12.181,0.895c-0.677,0.05-0.672-1.003,0-1.053
			c4.06-0.297,8.121-0.597,12.181-0.895C31.628,105.625,31.624,106.678,30.951,106.727L30.951,106.727z"/>
	</g>
	<g>
		<path d="M18.275,107.688c-0.745,0-1.493,0-2.238,0c-0.963,0-0.963-1.053,0-1.053c0.746,0,1.493,0,2.238,0
			C19.236,106.635,19.236,107.688,18.275,107.688L18.275,107.688z"/>
	</g>
	<g>
		<path d="M21.152,106.767c0-4.904,0-9.809,0-14.711c0-0.68,1.054-0.68,1.054,0c0,4.902,0,9.807,0,14.711
			C22.206,107.444,21.152,107.444,21.152,106.767L21.152,106.767z"/>
	</g>
	<g>
		<path d="M23.885,106.601c0-4.591,0-9.182,0-13.772c0-0.679,1.053-0.679,1.053,0c0,4.591,0,9.182,0,13.772
			C24.938,107.28,23.885,107.28,23.885,106.601L23.885,106.601z"/>
	</g>
	<g>
		<path d="M25.99,106.24c0-4.286,0-8.572,0-12.857c0-0.679,1.054-0.679,1.054,0c0,4.285,0,8.571,0,12.857
			C27.043,106.918,25.99,106.918,25.99,106.24L25.99,106.24z"/>
	</g>
	<g>
		<path d="M28.229,106.074c0-4.018,0-8.036,0-12.055c0-0.679,1.053-0.679,1.053,0c0,4.019,0,8.037,0,12.055
			C29.282,106.754,28.229,106.754,28.229,106.074L28.229,106.074z"/>
	</g>
	<g>
		<path d="M30.532,106.01c0-3.785,0-7.569,0-11.354c0-0.678,1.053-0.678,1.053,0c0,3.785,0,7.569,0,11.354
			C31.585,106.688,30.532,106.688,30.532,106.01L30.532,106.01z"/>
	</g>
	<g>
		<path d="M31.454,94.063c2.128,0,4.257,0,6.385,0c0.679,0,0.679,1.053,0,1.053c-2.127,0-4.256,0-6.385,0
			C30.775,95.116,30.775,94.063,31.454,94.063L31.454,94.063z"/>
	</g>
	<g>
		<path d="M35.271,105.778c0-3.565,0-7.13,0-10.695c0-0.68,1.053-0.68,1.053,0c0,0.044,0,0.087,0,0.132c0,0.679-1.053,0.679-1.053,0
			c0-0.045,0-0.088,0-0.132c0-0.68,1.053-0.68,1.053,0c0,3.565,0,7.13,0,10.695C36.324,106.457,35.271,106.457,35.271,105.778
			L35.271,105.778z"/>
	</g>
	<path d="M41.981,105.581h-0.33V85.638c0-0.679-1.053-0.679-1.053,0v19.112h-1.973c-0.109,0-0.193,0.035-0.265,0.083V85.704
		c0-0.68-1.053-0.68-1.053,0v19.844h-6.413c-0.679,0-0.679,1.053,0,1.053h5.718c0.052,0.017,0.104,0.034,0.168,0.034h5.2
		C42.66,106.635,42.66,105.581,41.981,105.581z"/>
	<g>
		<path d="M32.804,105.91c0-3.575,0-7.152,0-10.729c0-0.678,1.052-0.678,1.052,0c0,3.577,0,7.154,0,10.729
			C33.856,106.589,32.804,106.589,32.804,105.91L32.804,105.91z"/>
	</g>
	<g>
		<path d="M30.993,94.358c0-0.823,0-1.646,0-2.469c0-0.678,1.053-0.678,1.053,0c0,0.823,0,1.646,0,2.469
			C32.046,95.037,30.993,95.037,30.993,94.358L30.993,94.358z"/>
	</g>
	<g>
		<path d="M81.75,105.584c-13.282,0-26.565,0-39.848,0c-0.645,0-0.645,1,0,1c0.088,0,0.176,0,0.265,0c0.645,0,0.645-1,0-1
			c-0.088,0-0.176,0-0.265,0c-0.645,0-0.645,1,0,1c13.283,0,26.565,0,39.848,0C82.395,106.584,82.395,105.584,81.75,105.584
			L81.75,105.584z"/>
	</g>
	<g>
		<path d="M83.581,106.766c4.75,2.416,9.5,4.834,14.251,7.25c0.573,0.292,1.079-0.571,0.504-0.863
			c-4.75-2.416-9.5-4.834-14.251-7.25C83.512,105.61,83.006,106.474,83.581,106.766L83.581,106.766z"/>
	</g>
	<g>
		<path d="M41.701,105.436c-5.445,2.223-10.889,4.445-16.333,6.667c-0.589,0.24-0.332,1.208,0.266,0.965
			c5.445-2.223,10.889-4.445,16.333-6.667C42.555,106.16,42.298,105.192,41.701,105.436L41.701,105.436z"/>
	</g>
</g>
<g id="Layer_4">
	<g>
		<g>
			<path d="M62.817,134.968L8.222,103.96L7.778,41.176l54.15-31.777l54.595,31.009l0.003,0.316l0.441,62.468l-0.272,0.16
				L62.817,134.968z M9.313,103.319l53.496,30.385l53.06-31.138l-0.435-61.52L61.938,10.664L8.878,41.8L9.313,103.319z"/>
		</g>
	</g>
</g>
<g id="Layer_13">
	<g>
		<line fill="#FFFFFF" x1="61.461" y1="114.873" x2="63.049" y2="114.873"/>
		<polygon fill="#D1D2D1" points="65.866,116.287 67.229,118.974 66.194,123.366 63.73,121.354 64.16,118.132 		"/>
		<path d="M62.226,115.386c-0.285,0-0.515-0.229-0.515-0.513v-4.048c0-0.283,0.23-0.514,0.515-0.514c0.281,0,0.513,0.23,0.513,0.514
			v4.048C62.739,115.157,62.507,115.386,62.226,115.386"/>
		<path fill="#141246" d="M63.049,115.386h-1.588c-0.283,0-0.514-0.229-0.514-0.513s0.23-0.516,0.514-0.516h1.588
			c0.283,0,0.517,0.231,0.517,0.516S63.332,115.386,63.049,115.386"/>
		<path fill="#FFFFFF" d="M65.866,116.287l1.688-1.59c-1.292-1.292-3.077-2.091-5.047-2.091c-3.943,0-7.136,3.194-7.136,7.135
			c0,3.942,3.193,7.139,7.136,7.139c1.47,0,2.761,0.532,3.897-0.226l1.409,0.194l-0.04-2.292l-4.043-3.203l0.867-4.096
			L65.866,116.287"/>
		<path d="M62.507,127.578c-4.321,0-7.837-3.515-7.837-7.837c0-4.319,3.516-7.836,7.837-7.836c2.091,0,4.06,0.815,5.541,2.295
			l0.511,0.512l-2.213,2.085l-0.961-1.02l1.133-1.069c-1.136-0.909-2.536-1.401-4.011-1.401c-3.549,0-6.438,2.887-6.438,6.435
			c0,3.55,2.889,6.437,6.438,6.437"/>
		<path d="M66.438,123.554l-1.008-0.977c0.742-0.762,1.151-1.77,1.151-2.836c0-1.109-0.439-2.149-1.237-2.924l-0.523-0.509
			l0.563-0.531l0.479,0.508l0.456-0.473c1.072,1.04,1.661,2.438,1.661,3.929C67.981,121.173,67.435,122.526,66.438,123.554"/>
		<path fill="#FED600" d="M60.895,119.741c0-0.888,0.722-1.609,1.612-1.609c0.891,0,1.609,0.722,1.609,1.609
			c0,0.891-0.719,1.612-1.609,1.612C61.617,121.354,60.895,120.632,60.895,119.741"/>
		<g>
			<path d="M62.507,122.054c-1.275,0-2.313-1.037-2.313-2.313s1.038-2.313,2.313-2.313c1.274,0,2.311,1.037,2.311,2.313
				S63.781,122.054,62.507,122.054 M62.507,118.832c-0.501,0-0.914,0.407-0.914,0.909c0,0.504,0.412,0.912,0.914,0.912
				c0.502,0,0.911-0.408,0.911-0.912C63.418,119.239,63.009,118.832,62.507,118.832"/>
		</g>
		<line fill="#141246" x1="67.554" y1="114.697" x2="63.481" y2="118.459"/>
		<rect x="64.817" y="113.807" transform="matrix(0.6776 0.7354 -0.7354 0.6776 106.8604 -10.5976)" width="1.401" height="5.542"/>
		<polyline fill="#FFFFFF" points="63.265,121.164 66.194,123.366 67.773,124.557 67.773,127.578 64.598,127.424 		"/>
		<polygon points="68.475,127.578 62.378,127.578 62.378,126.178 67.071,126.178 67.071,124.905 62.846,121.724 63.687,120.604 
			68.475,124.207 		"/>
		<path d="M59.794,116.8c-0.284,0-0.515-0.229-0.515-0.513v-5.462c0-0.283,0.231-0.514,0.515-0.514c0.283,0,0.512,0.23,0.512,0.514
			v5.462C60.306,116.571,60.077,116.8,59.794,116.8"/>
	</g>
</g>
</svg>
