<svg xmlns="http://www.w3.org/2000/svg" viewBox="0 0 899.21 1415.66"><defs><style>.cls-1{fill:none;}.cls-2{fill:#8d3b29;}</style></defs><title>gitcoin_avatar2</title><g id="EARS"><path class="cls-1" d="M-132.48-77.59h603.7v241.5h-603.7Z"/></g><g id="BODY"><path class="cls-2" d="M626.9,676.63c8.67,11.73,14.26,4.06,21.13-2.63,79-76.87,141.55-163.41,166-273.19,3.81-17.09,6.86-35.39,21.77-48,10.18,4.31,8.62,12.8,8.94,20.33C852,541,829.67,704.5,773.7,863.32,767.28,881.54,755.38,893.88,742,906q-40.11,36.45-80.35,72.78c-9.52,8.62-17.49,19.28-33.63,10.57-7.07-3.82-9.33-1.42-10.4,13.06-2.08,28-5.41,55.71-12,83,2.37,10.08-4.92,16.52-9.08,24.18A142.39,142.39,0,0,1,565.53,1142c-5.91,4.44-13.1,11.35-20.1.62,2.57-37.82-2.93-76.33,8-113.41,4.93-16.75-3.06-19.11-16.39-19.17-25.24-.13-50.29-1.24-73.56,12.21-9,5.2-20.83,11-28.45-3.81-4.66-35.14,5.19-69.66,4.27-104.61,1.36-7.38,3-14.76,1.59-22.38-.88-8.86-1.3-17.62,6.75-24,22.59-7.4,42.44-17.86,48.69-43.46a25.29,25.29,0,0,1,4.8-6.84c34.31-28.54,68.82-56.89,92-96C607.54,708.72,607.33,685.2,626.9,676.63Z"/><path class="cls-2" d="M270.28,1085.14c-16.51-32.4-11.4-68.29-16.86-105-17.3,13.06-28.55,3.79-40-8.26-26.93-28.23-54.54-55.83-81.85-83.71a81.78,81.78,0,0,1-19.68-31.86C62.07,708,48.42,555.29,54.46,400.18c.34-8.58,2.69-17.2,5-25.55,1.75-6.31,5-12.22,9-21.78,16.62,22,15.65,45.89,20.2,67.44,22.68,107.26,75.58,196.06,161.82,265.26,9.68-1,17.77,3.27,21.93,10.88C283.63,717,301.47,734,306,758.12c-1.53,7.36-4.15,14.35.79,22,15.49,23.84,38.76,39.64,59.9,57.62,6.79,5.77,14.86,1.28,22.38.61,7.66,1,12.95,5.8,18,11,23.81,15.16,33.8,34.39,28.12,64a190,190,0,0,0,1.5,78.12c1.94,9.39,2.69,18.71-1.78,27.69a12,12,0,0,1-7.45,5.34c-16.41,1.18-28.56-10.86-43.68-13.7-27.52-10.66-59.07,2.35-84.55-13.27,35.55,37.63,16.51,86.77,24.8,130.7-19.17,22.56-25.92-3-37.63-9.46C281.86,1107.19,269.32,1099.3,270.28,1085.14Z"/></g></svg>