<svg xmlns="http://www.w3.org/2000/svg" viewBox="0 0 60.73 15.99"><defs><style>.cls-1{fill:#231f20;}.cls-2{fill:#fff;}.cls-3{fill:#00a651;}.cls-4{fill:none;stroke:#231f20;stroke-miterlimit:10;stroke-width:0.25px;}.cls-5{fill:#e6e7e8;}</style></defs><g id="Layer_1" data-name="Layer 1"><circle class="cls-1" cx="46.75" cy="9.13" r="3.72"/><circle class="cls-2" cx="45.42" cy="8.01" r="1.64"/><path class="cls-3" d="M183.16,158.93c-.63-.74,4.91-10.65,13.54-10.85,8.94-.22,15,10.15,14.34,11s-6.53-6.35-15.15-5.9a20.3,20.3,0,0,0-6.79,1.93C185.16,156.9,183.3,159.1,183.16,158.93Z" transform="translate(-150.36 -146.42)"/><path class="cls-3" d="M183.16,151.55c-.63.74,4.91,10.65,13.54,10.86,8.94.21,15-10.15,14.34-11s-6.53,6.35-15.15,5.9C188.31,156.92,183.69,150.94,183.16,151.55Z" transform="translate(-150.36 -146.42)"/><circle class="cls-2" cx="47.06" cy="9.13" r="0.82"/><path class="cls-4" d="M188.77,155.32c0-.12.22-.18.89-.41l1.46-.5,1.29-.45a13.65,13.65,0,0,1,3.49-.62,15.72,15.72,0,0,1,3.09.11,19.83,19.83,0,0,1,2.62.51,17.94,17.94,0,0,1,1.74.56c1.45.51,1.51.65,1.52.73,0,.25-.54.47-2.11,1a31.14,31.14,0,0,1-3.26.92,16,16,0,0,1-4.64,0,18.93,18.93,0,0,1-3.35-.65c-.89-.27-.67-.31-1.87-.7C189.14,155.57,188.77,155.46,188.77,155.32Z" transform="translate(-150.36 -146.42)"/><path class="cls-1" d="M186.78,153.06a1.65,1.65,0,0,1-.7-1.09,9.2,9.2,0,0,1-.24-1.56,10.61,10.61,0,0,1,.31-3.37c0-.16-.2-.23-.24-.07a10.72,10.72,0,0,0-.3,3.61,6.87,6.87,0,0,0,.28,1.63,1.79,1.79,0,0,0,.76,1.06c.14.08.27-.13.13-.21Z" transform="translate(-150.36 -146.42)"/><path class="cls-1" d="M189.54,150.52a7.93,7.93,0,0,1-.4-3.05c0-.16-.23-.16-.25,0a8,8,0,0,0,.41,3.11c0,.15.29.09.24-.06Z" transform="translate(-150.36 -146.42)"/><path class="cls-1" d="M192,149.29a1.22,1.22,0,0,1-.17-.91.13.13,0,0,0-.09-.15.12.12,0,0,0-.15.08,1.49,1.49,0,0,0,.19,1.11.13.13,0,0,0,.18,0,.13.13,0,0,0,0-.17Z" transform="translate(-150.36 -146.42)"/><path class="cls-1" d="M206.59,152.62c.2,0,.33-.11.41-.28a6.8,6.8,0,0,0,.26-.8,11.45,11.45,0,0,0,.32-1.65,10.65,10.65,0,0,0-.15-3.38c0-.16-.27-.09-.24.07a10.2,10.2,0,0,1,.17,3,10.73,10.73,0,0,1-.23,1.49c0,.14-.31,1.38-.48,1.34s-.22.2-.06.24Z" transform="translate(-150.36 -146.42)"/><path class="cls-1" d="M204.63,150.69a19.38,19.38,0,0,0,.14-3.49c0-.16-.26-.16-.25,0a19.38,19.38,0,0,1-.14,3.49c0,.15.23.15.25,0Z" transform="translate(-150.36 -146.42)"/><path class="cls-1" d="M201.05,148.78l.2-.53a.14.14,0,0,0-.09-.16.14.14,0,0,0-.16.09l-.2.54a.13.13,0,0,0,.09.15.13.13,0,0,0,.16-.09Z" transform="translate(-150.36 -146.42)"/><path class="cls-5" d="M185,156.59c-.1-.13,5.32-7.37,12.05-7.47s12.17,7,12,7.25-2.49-1.9-7-3.4a15.85,15.85,0,0,0-5.43-1.11,16.35,16.35,0,0,0-7.43,2.11A24.74,24.74,0,0,0,185,156.59Z" transform="translate(-150.36 -146.42)"/><path class="cls-5" d="M184.58,153.55c-.1.13,5.32,7.37,12,7.47s12.17-7,12-7.25-2.49,1.9-7,3.4a15.84,15.84,0,0,1-5.43,1.1,16.31,16.31,0,0,1-7.44-2.11A25.32,25.32,0,0,1,184.58,153.55Z" transform="translate(-150.36 -146.42)"/><circle class="cls-1" cx="13.99" cy="9.13" r="3.72"/><circle class="cls-2" cx="15.31" cy="8.01" r="1.64"/><path class="cls-3" d="M178.28,158.93c.64-.74-4.91-10.65-13.53-10.85-8.94-.22-15,10.15-14.34,11s6.53-6.35,15.14-5.9a20.21,20.21,0,0,1,6.79,1.93C176.29,156.9,178.14,159.1,178.28,158.93Z" transform="translate(-150.36 -146.42)"/><path class="cls-3" d="M178.28,151.55c.64.74-4.91,10.65-13.53,10.86-8.94.21-15-10.15-14.34-11s6.53,6.35,15.14,5.9C173.13,156.92,177.76,150.94,178.28,151.55Z" transform="translate(-150.36 -146.42)"/><circle class="cls-2" cx="13.67" cy="9.13" r="0.82"/><path class="cls-4" d="M172.67,155.32c0-.12-.22-.18-.88-.41l-1.46-.5L169,154a13.52,13.52,0,0,0-3.48-.62,15.84,15.84,0,0,0-3.1.11,20.1,20.1,0,0,0-2.61.51,17.11,17.11,0,0,0-1.74.56c-1.45.51-1.52.65-1.52.73,0,.25.54.47,2.11,1a29.78,29.78,0,0,0,3.26.92,16,16,0,0,0,4.64,0,18.72,18.72,0,0,0,3.34-.65c.89-.27.68-.31,1.87-.7C172.3,155.57,172.68,155.46,172.67,155.32Z" transform="translate(-150.36 -146.42)"/><path class="cls-1" d="M174.79,153.27a1.81,1.81,0,0,0,.77-1.06,8.05,8.05,0,0,0,.28-1.63,11,11,0,0,0-.3-3.61c0-.16-.28-.09-.24.07a10.6,10.6,0,0,1,.3,3.37,8.27,8.27,0,0,1-.23,1.56,1.73,1.73,0,0,1-.7,1.09.12.12,0,0,0,.12.21Z" transform="translate(-150.36 -146.42)"/><path class="cls-1" d="M172.15,150.58a8,8,0,0,0,.4-3.11c0-.16-.26-.16-.25,0a7.92,7.92,0,0,1-.39,3.05c0,.15.19.21.24.06Z" transform="translate(-150.36 -146.42)"/><path class="cls-1" d="M169.62,149.42a1.5,1.5,0,0,0,.2-1.11.12.12,0,0,0-.15-.08.12.12,0,0,0-.09.15,1.27,1.27,0,0,1-.17.91.12.12,0,0,0,.21.13Z" transform="translate(-150.36 -146.42)"/><path class="cls-1" d="M154.79,152.38c-.16,0-.44-1.2-.47-1.34a9.44,9.44,0,0,1-.24-1.49,11,11,0,0,1,.17-3c0-.16-.21-.23-.24-.07a11,11,0,0,0-.14,3.38,10.23,10.23,0,0,0,.32,1.65,5.34,5.34,0,0,0,.26.8c.07.17.21.33.41.28a.13.13,0,0,0-.07-.24Z" transform="translate(-150.36 -146.42)"/><path class="cls-1" d="M157.07,150.69a18.51,18.51,0,0,1-.14-3.49c0-.16-.24-.16-.25,0a18.51,18.51,0,0,0,.14,3.49c0,.15.27.16.25,0Z" transform="translate(-150.36 -146.42)"/><path class="cls-1" d="M160.64,148.72l-.2-.54a.13.13,0,0,0-.15-.09.14.14,0,0,0-.09.16l.2.53a.13.13,0,0,0,.15.09c.06,0,.12-.09.09-.15Z" transform="translate(-150.36 -146.42)"/><path class="cls-5" d="M176.44,156.59c.1-.13-5.31-7.37-12-7.47s-12.18,7-12,7.25,2.48-1.9,7-3.4a15.9,15.9,0,0,1,5.43-1.11,16.39,16.39,0,0,1,7.44,2.11A24.87,24.87,0,0,1,176.44,156.59Z" transform="translate(-150.36 -146.42)"/><path class="cls-5" d="M176.86,153.55c.1.13-5.31,7.37-12,7.47s-12.18-7-12-7.25,2.48,1.9,7,3.4a15.78,15.78,0,0,0,5.42,1.1,16.27,16.27,0,0,0,7.44-2.11A24.75,24.75,0,0,0,176.86,153.55Z" transform="translate(-150.36 -146.42)"/></g></svg>