<svg id="Layer_1" data-name="Layer 1" xmlns="http://www.w3.org/2000/svg" viewBox="0 0 350 350">
  <defs>
    <style>
      .cls-1 {
        fill: #231f20;
      }

      .cls-2 {
        fill: #fff;
      }

      .cls-3 {
        fill: #06a64f;
      }

      .cls-4 {
        fill: none;
        stroke: #231f20;
        stroke-miterlimit: 10;
        stroke-width: 0.25px;
      }

      .cls-5 {
        fill: #e6e7e7;
      }
    </style>
  </defs>
  <g id="Eyes_2">
    <circle class="cls-1" cx="191.97" cy="170.22" r="3.72"/>
    <circle class="cls-2" cx="190.64" cy="169.1" r="1.64"/>
    <path class="cls-3" d="M178,173.6c-.63-.74,4.91-10.65,13.54-10.85,8.94-.22,15,10.15,14.34,11s-6.53-6.35-15.15-5.9a20.34,20.34,0,0,0-6.79,1.93C180,171.57,178.16,173.77,178,173.6Z"/>
    <path class="cls-3" d="M178,166.22c-.63.74,4.91,10.65,13.54,10.86,8.94.21,15-10.15,14.34-11s-6.53,6.35-15.15,5.9C183.17,171.59,178.55,165.61,178,166.22Z"/>
    <circle class="cls-2" cx="192.28" cy="170.22" r="0.82"/>
    <path class="cls-4" d="M183.63,170c0-.12.22-.18.89-.41l1.46-.5,1.29-.45a13.75,13.75,0,0,1,3.49-.62,16,16,0,0,1,3.09.11,19.86,19.86,0,0,1,2.62.51c.58.16,1.17.34,1.74.56,1.45.51,1.51.65,1.52.73,0,.25-.54.47-2.11,1a31,31,0,0,1-3.26.92,15.69,15.69,0,0,1-4.64,0,18,18,0,0,1-3.35-.65c-.89-.27-.67-.31-1.87-.7C184,170.24,183.63,170.13,183.63,170Z"/>
    <path class="cls-1" d="M181.64,167.73a1.61,1.61,0,0,1-.7-1.09,8.17,8.17,0,0,1-.24-1.56,10.35,10.35,0,0,1,.31-3.37c0-.16-.2-.23-.24-.07a10.47,10.47,0,0,0-.3,3.61,6.48,6.48,0,0,0,.28,1.63,1.75,1.75,0,0,0,.76,1.06c.14.08.27-.13.13-.21Z"/>
    <path class="cls-1" d="M184.4,165.19a7.71,7.71,0,0,1-.4-3.05.13.13,0,0,0-.25,0,7.83,7.83,0,0,0,.41,3.11c0,.15.29.09.24-.06Z"/>
    <path class="cls-1" d="M186.86,164a1.18,1.18,0,0,1-.17-.91.14.14,0,0,0-.09-.15.12.12,0,0,0-.15.08h0a1.45,1.45,0,0,0,.19,1.11.13.13,0,0,0,.18,0,.14.14,0,0,0,0-.17Z"/>
    <path class="cls-1" d="M201.45,167.29a.43.43,0,0,0,.41-.28,7.46,7.46,0,0,0,.26-.8,13,13,0,0,0,.32-1.65,10.65,10.65,0,0,0-.15-3.38c0-.16-.27-.09-.24.07a10.43,10.43,0,0,1,.17,3,12.47,12.47,0,0,1-.23,1.49c0,.14-.31,1.38-.48,1.34a.12.12,0,1,0-.06.24Z"/>
    <path class="cls-1" d="M199.49,165.36a20.35,20.35,0,0,0,.14-3.49c0-.16-.26-.16-.25,0a20.35,20.35,0,0,1-.14,3.49C199.24,165.51,199.47,165.51,199.49,165.36Z"/>
    <path class="cls-1" d="M195.91,163.45l.2-.53a.13.13,0,1,0-.25-.07l-.2.54a.12.12,0,0,0,.09.15.13.13,0,0,0,.16-.09Z"/>
    <path class="cls-5" d="M179.86,171.26c-.1-.13,5.32-7.37,12-7.47s12.17,7,12,7.25-2.49-1.9-7-3.4a15.85,15.85,0,0,0-5.43-1.11,16.3,16.3,0,0,0-7.43,2.11A24.14,24.14,0,0,0,179.86,171.26Z"/>
    <path class="cls-5" d="M179.44,168.22c-.1.13,5.32,7.37,12,7.47s12.17-7,12-7.25-2.49,1.9-7,3.4a15.84,15.84,0,0,1-5.43,1.1,16.3,16.3,0,0,1-7.44-2.11A24.59,24.59,0,0,1,179.44,168.22Z"/>
    <circle class="cls-1" cx="159.21" cy="170.22" r="3.72"/>
    <circle class="cls-2" cx="160.53" cy="169.1" r="1.64"/>
    <path class="cls-3" d="M173.14,173.6c.64-.74-4.91-10.65-13.53-10.85-8.94-.22-15,10.15-14.34,11s6.53-6.35,15.14-5.9a20.24,20.24,0,0,1,6.79,1.93C171.15,171.57,173,173.77,173.14,173.6Z"/>
    <path class="cls-3" d="M173.14,166.22c.64.74-4.91,10.65-13.53,10.86-8.94.21-15-10.15-14.34-11s6.53,6.35,15.14,5.9C168,171.59,172.62,165.61,173.14,166.22Z"/>
    <circle class="cls-2" cx="158.89" cy="170.22" r="0.82"/>
    <path class="cls-4" d="M167.53,170c0-.12-.22-.18-.88-.41l-1.46-.5-1.33-.41a13.32,13.32,0,0,0-3.48-.62,16,16,0,0,0-3.1.11,19.11,19.11,0,0,0-2.61.51,17.62,17.62,0,0,0-1.74.56c-1.45.51-1.52.65-1.52.73,0,.25.54.47,2.11,1a27.6,27.6,0,0,0,3.26.92,15.69,15.69,0,0,0,4.64,0,18.26,18.26,0,0,0,3.34-.65c.89-.27.68-.31,1.87-.7C167.16,170.24,167.54,170.13,167.53,170Z"/>
    <path class="cls-1" d="M169.65,167.94a1.81,1.81,0,0,0,.77-1.06,9,9,0,0,0,.28-1.63,11.26,11.26,0,0,0-.3-3.61c0-.16-.28-.09-.24.07a10.63,10.63,0,0,1,.3,3.37,9,9,0,0,1-.23,1.56,1.78,1.78,0,0,1-.7,1.09.13.13,0,0,0-.05.17.14.14,0,0,0,.17,0Z"/>
    <path class="cls-1" d="M167,165.25a8.21,8.21,0,0,0,.4-3.11c0-.16-.26-.16-.25,0a8.09,8.09,0,0,1-.39,3.05C166.77,165.34,167,165.4,167,165.25Z"/>
    <path class="cls-1" d="M164.48,164.09a1.54,1.54,0,0,0,.2-1.11.12.12,0,0,0-.15-.08h0a.12.12,0,0,0-.1.14h0a1.32,1.32,0,0,1-.17.91.12.12,0,0,0,0,.17.12.12,0,0,0,.17,0Z"/>
    <path class="cls-1" d="M149.65,167.05c-.16,0-.44-1.2-.47-1.34a9.44,9.44,0,0,1-.24-1.49,10.43,10.43,0,0,1,.17-3c0-.16-.21-.23-.24-.07a10.65,10.65,0,0,0-.14,3.38,9.25,9.25,0,0,0,.32,1.65,4.67,4.67,0,0,0,.26.8c.07.17.21.33.41.28a.14.14,0,0,0,0-.18.14.14,0,0,0-.11-.06Z"/>
    <path class="cls-1" d="M151.93,165.36a17.71,17.71,0,0,1-.14-3.49.13.13,0,0,0-.25,0,17.71,17.71,0,0,0,.14,3.49C151.68,165.51,152,165.52,151.93,165.36Z"/>
    <path class="cls-1" d="M155.5,163.39l-.2-.54a.14.14,0,0,0-.15-.09.13.13,0,0,0-.09.16l.2.53a.12.12,0,0,0,.15.09.11.11,0,0,0,.09-.15Z"/>
    <path class="cls-5" d="M171.3,171.26c.1-.13-5.31-7.37-12-7.47s-12.18,7-12,7.25,2.48-1.9,7-3.4a16,16,0,0,1,5.43-1.11,16.37,16.37,0,0,1,7.44,2.11A25.48,25.48,0,0,1,171.3,171.26Z"/>
    <path class="cls-5" d="M171.72,168.22c.1.13-5.31,7.37-12,7.47s-12.18-7-12-7.25,2.48,1.9,7,3.4a15.69,15.69,0,0,0,5.42,1.1,16.25,16.25,0,0,0,7.44-2.11A24.44,24.44,0,0,0,171.72,168.22Z"/>
  </g>
</svg>
