<?xml version="1.0" encoding="utf-8"?>
<!-- Generator: Adobe Illustrator 23.0.4, SVG Export Plug-In . SVG Version: 6.00 Build 0)  -->
<svg version="1.1" id="Layer_1" xmlns="http://www.w3.org/2000/svg" xmlns:xlink="http://www.w3.org/1999/xlink" x="0px" y="0px"
	 viewBox="0 0 110.88 110.88" style="enable-background:new 0 0 110.88 110.88;" xml:space="preserve">
<style type="text/css">
	.st0{fill:#F9006C;}
	.st1{fill:#FFFFFF;}
	.st2{fill:#C6C6C6;}
	.st3{fill:#14A563;}
	.st4{fill:#15003E;}
	.st5{fill:#25E899;}
	.st6{fill:#0FCE7C;}
	.st7{fill:#CE0264;}
	.st8{fill:#AD055E;}
	.st9{fill:#FFCE08;}
	.st10{fill:#575560;}
	.st11{clip-path:url(#SVGID_2_);}
	.st12{fill:#8E2ABE;}
	.st13{fill:#D6AF0D;}
	.st14{fill:#FFFFFF;stroke:#15003E;stroke-width:0.3955;stroke-linecap:round;stroke-miterlimit:10;}
	.st15{fill:#1D035B;}
	.st16{fill:#D6D6D6;stroke:#15003E;stroke-width:0.4623;stroke-linecap:round;stroke-miterlimit:10;}
	.st17{fill:none;stroke:#25E899;stroke-width:0.5216;stroke-linecap:round;stroke-miterlimit:10;}
	.st18{fill:#AAAAAA;}
	.st19{fill:#6D5415;stroke:#15003E;stroke-width:0.4623;stroke-linecap:round;stroke-miterlimit:10;}
	.st20{fill:none;stroke:#15003E;stroke-width:0.6253;stroke-linecap:round;stroke-miterlimit:10;}
	.st21{fill:#FFFFFF;stroke:#15003E;stroke-width:0.4623;stroke-linecap:round;stroke-miterlimit:10;}
	.st22{fill:#D6D6D6;}
	.st23{fill:#B2B2B2;}
	.st24{fill:#565656;}
	.st25{fill:none;stroke:#15003E;stroke-width:0.4623;stroke-linecap:round;stroke-miterlimit:10;}
	.st26{fill:#0FCE7C;stroke:#15003E;stroke-width:0.4623;stroke-linecap:round;stroke-miterlimit:10;}
	.st27{fill:#FFCE08;stroke:#15003E;stroke-width:0.4623;stroke-linecap:round;stroke-miterlimit:10;}
	.st28{fill:#AAAAAA;stroke:#15003E;stroke-width:0.4623;stroke-miterlimit:10;}
	.st29{fill:#25E899;stroke:#15003E;stroke-width:0.4623;stroke-linecap:round;stroke-miterlimit:10;}
	.st30{fill:#FFCE08;stroke:#15003E;stroke-width:0.3571;stroke-linecap:round;stroke-miterlimit:10;}
	.st31{fill:#CEA73C;}
	.st32{fill:#FF1515;}
</style>
<polygon class="st2" points="8.21,28.07 8.21,82.81 55.61,110.17 103.01,82.81 103.01,28.07 55.61,0.71 "/>
<polygon class="st9" points="16.96,33.12 16.96,77.76 55.61,100.07 94.26,77.76 94.26,33.12 55.61,10.81 "/>
<path class="st4" d="M64.26,99.9l1.62-0.93l0.07,0.13c0.17,0.29,0.29,0.58,0.35,0.84c0.05,0.25,0.05,0.51,0,0.79
	c-0.13,0.62-0.47,1.09-1.03,1.41c-0.55,0.32-1.13,0.39-1.75,0.22c-0.62-0.17-1.09-0.54-1.41-1.09c-0.33-0.57-0.41-1.17-0.24-1.79
	c0.17-0.63,0.54-1.1,1.11-1.43c0.31-0.18,0.63-0.28,0.97-0.31c0.33-0.02,0.69,0.04,1.1,0.18l-0.19,0.65
	c-0.57-0.24-1.08-0.23-1.55,0.03c-0.41,0.24-0.68,0.58-0.8,1.03c-0.12,0.44-0.06,0.88,0.19,1.3c0.25,0.44,0.62,0.71,1.09,0.81
	c0.44,0.09,0.84,0.04,1.18-0.15c0.29-0.17,0.5-0.42,0.61-0.75c0.12-0.33,0.11-0.64-0.02-0.93l-0.98,0.56L64.26,99.9z"/>
<path class="st4" d="M67.54,95.51l2.26,3.92l-0.59,0.34l-2.26-3.92L67.54,95.51z"/>
<path class="st4" d="M71.28,94.09l1.94,3.36l-0.59,0.34l-1.94-3.36l-0.9,0.52l-0.32-0.56l2.39-1.38l0.32,0.56L71.28,94.09z"/>
<path class="st4" d="M76.67,90.53l0.4,0.7c-0.51-0.09-0.94-0.03-1.31,0.18c-0.4,0.23-0.66,0.57-0.77,1.02
	c-0.11,0.45-0.05,0.88,0.19,1.3c0.24,0.41,0.58,0.68,1.02,0.8s0.86,0.07,1.26-0.16c0.21-0.12,0.37-0.26,0.47-0.41
	c0.06-0.08,0.12-0.17,0.17-0.28s0.11-0.23,0.16-0.37l0.41,0.71c-0.23,0.39-0.53,0.69-0.9,0.9c-0.56,0.32-1.15,0.4-1.77,0.24
	c-0.62-0.17-1.09-0.53-1.41-1.09c-0.29-0.5-0.38-1.04-0.27-1.62c0.13-0.71,0.52-1.26,1.16-1.63C75.84,90.63,76.23,90.53,76.67,90.53
	z"/>
<path class="st5" d="M79.24,90.5c-0.32-0.55-0.39-1.14-0.21-1.77c0.17-0.63,0.54-1.1,1.11-1.43c0.56-0.32,1.15-0.4,1.78-0.23
	c0.63,0.17,1.11,0.53,1.43,1.09c0.32,0.56,0.4,1.16,0.22,1.78c-0.18,0.63-0.55,1.11-1.12,1.44c-0.51,0.29-1.06,0.38-1.67,0.26
	C80.12,91.5,79.6,91.12,79.24,90.5z M79.84,90.16c0.25,0.43,0.6,0.71,1.05,0.82c0.45,0.11,0.86,0.06,1.24-0.16
	c0.41-0.24,0.68-0.58,0.8-1.03c0.12-0.45,0.06-0.88-0.18-1.3c-0.24-0.42-0.58-0.69-1.02-0.81c-0.44-0.12-0.87-0.07-1.28,0.17
	c-0.41,0.23-0.67,0.58-0.79,1.02C79.55,89.32,79.61,89.75,79.84,90.16z"/>
<path class="st4" d="M85.32,85.27l2.26,3.92l-0.59,0.34l-2.26-3.92L85.32,85.27z"/>
<path class="st4" d="M89.92,87.84l-2.41-4.19l4.58,1.34l-1.57-2.72l0.59-0.34l2.4,4.16l-4.58-1.34l1.58,2.74L89.92,87.84z"/>
<g>
	<g>
		<rect x="62.55" y="81.42" class="st16" width="2.79" height="4.86"/>
		<path class="st16" d="M64.64,77.39h-1.16c-1.18,0-2.14-0.96-2.14-2.14V64.09c0-1.18,0.96-2.14,2.14-2.14h1.16
			c1.18,0,2.14,0.96,2.14,2.14v11.16C66.78,76.43,65.82,77.39,64.64,77.39z"/>
		<line class="st16" x1="61.34" y1="66.98" x2="66.78" y2="66.98"/>
		<line class="st16" x1="61.34" y1="71.73" x2="66.78" y2="71.73"/>
		<circle class="st16" cx="62.16" cy="76.66" r="2.29"/>
		<line class="st17" x1="60.77" y1="79.99" x2="67.34" y2="79.99"/>
		<path class="st16" d="M66.64,83.05h-5.16c-0.45,0-0.81-0.36-0.81-0.81l0,0c0-0.45,0.36-0.81,0.81-0.81h5.16
			c0.45,0,0.81,0.36,0.81,0.81l0,0C67.45,82.68,67.08,83.05,66.64,83.05z"/>
		<path class="st16" d="M66.37,89.06h-4.63c-0.77,0-1.39-0.62-1.39-1.39l0,0c0-0.77,0.62-1.39,1.39-1.39h4.63
			c0.77,0,1.39,0.62,1.39,1.39l0,0C67.76,88.44,67.14,89.06,66.37,89.06z"/>
	</g>
	<line class="st17" x1="59.72" y1="57.52" x2="59.72" y2="71.77"/>
	<g>
		
			<rect x="47.55" y="81.42" transform="matrix(-1 -4.431712e-11 4.431712e-11 -1 97.8884 167.6992)" class="st16" width="2.79" height="4.86"/>
		<path class="st16" d="M48.25,77.39h1.16c1.18,0,2.14-0.96,2.14-2.14V64.09c0-1.18-0.96-2.14-2.14-2.14h-1.16
			c-1.18,0-2.14,0.96-2.14,2.14v11.16C46.11,76.43,47.07,77.39,48.25,77.39z"/>
		<line class="st16" x1="51.55" y1="66.98" x2="46.11" y2="66.98"/>
		<line class="st16" x1="51.55" y1="71.73" x2="46.11" y2="71.73"/>
		<circle class="st16" cx="50.73" cy="76.66" r="2.29"/>
		<line class="st17" x1="52.12" y1="79.99" x2="45.55" y2="79.99"/>
		<path class="st16" d="M46.26,83.05h5.16c0.45,0,0.81-0.36,0.81-0.81l0,0c0-0.45-0.36-0.81-0.81-0.81h-5.16
			c-0.45,0-0.81,0.36-0.81,0.81l0,0C45.44,82.68,45.81,83.05,46.26,83.05z"/>
		<path class="st16" d="M46.52,89.06h4.63c0.77,0,1.39-0.62,1.39-1.39l0,0c0-0.77-0.62-1.39-1.39-1.39h-4.63
			c-0.77,0-1.39,0.62-1.39,1.39l0,0C45.13,88.44,45.75,89.06,46.52,89.06z"/>
	</g>
	<line class="st17" x1="53.17" y1="57.52" x2="53.17" y2="71.77"/>
	<line class="st17" x1="50.43" y1="62.64" x2="61.45" y2="62.64"/>
	<circle class="st16" cx="51.14" cy="61.95" r="2.66"/>
	<circle class="st16" cx="61.12" cy="61.95" r="2.66"/>
	<path class="st16" d="M49.25,41.06l0.87,3.55c0.18,0.72,0.83,1.24,1.57,1.24l8.86,0.03c0.76,0,1.42-0.52,1.59-1.27l0.89-3.92
		c0.24-1.04-0.57-2.02-1.64-1.98l-10.62,0.34C49.74,39.08,49,40.06,49.25,41.06z"/>
	<path class="st18" d="M49.53,41.23c0,0,2.4,4.3,6.6,4.3c4.1,0,4.79-1.79,6.46-4.3H49.53z"/>
	<g>
		<path class="st19" d="M56.92,41.71c-2.61,0-5.45,0.25-7.56-1.66c-1.64-1.48-3.34-3.35-3.83-5.46c-0.75-3.22-0.03-6.57,2.11-9.11
			c2.25-2.67,6.78-3.69,10.14-3.58c0.74,0.02,1.49,0.13,2.16,0.46c1,0.5,1.68,1.47,2.56,2.15c2.43,1.86,4.02,3.32,4.28,6.56
			c0.23,2.84-1.3,5.83-3.09,8.08C61.95,41.33,59.39,41.71,56.92,41.71z"/>
		<path class="st16" d="M64.3,31.87h0.37c0.83,0,1.5,0.67,1.5,1.5v2.66c0,0.83-0.54,1.5-1.37,1.5h-1.09"/>
		<line class="st20" x1="64.23" y1="24.23" x2="64.23" y2="34.27"/>
		<path class="st16" d="M47.3,32.11H46.9c-0.83,0-1.5,0.67-1.5,1.5v2.66c0,0.83,0.67,1.5,1.5,1.5h1.26"/>
		<line class="st20" x1="47.35" y1="27.07" x2="47.35" y2="34.54"/>
		<path class="st16" d="M48.49,39.9c-1.73-2.36-1.37-5.95-0.68-8.44c1.07-3.85,4.11-6,8.09-6c3.94,0,6.79,2.31,7.91,6.02
			c0.79,2.61,1.51,7.07-0.81,9.06c-0.83,0.72-1.76,1.33-2.75,1.81c-1.87,0.89-3.99,1.27-6.04,0.88
			C51.94,42.77,49.89,41.81,48.49,39.9z"/>
		<g>
			<circle class="st21" cx="59.31" cy="32.94" r="2.74"/>
			<path class="st5" d="M59.31,32.93c0.05,0,0.07,0.17,0.11,0.18c0.05,0.01,0.16-0.11,0.2-0.08c0.04,0.03-0.04,0.17-0.01,0.21
				c0.03,0.04,0.19,0.01,0.21,0.05c0.01,0.04-0.14,0.12-0.14,0.16c0,0.05,0.15,0.12,0.14,0.16c-0.01,0.05-0.18,0.01-0.21,0.05
				c-0.03,0.04,0.05,0.18,0.01,0.21c-0.04,0.03-0.15-0.09-0.2-0.08c-0.04,0.01-0.07,0.18-0.11,0.18c-0.05,0-0.07-0.17-0.11-0.18
				c-0.05-0.01-0.16,0.11-0.2,0.08c-0.04-0.03,0.04-0.17,0.01-0.21c-0.03-0.04-0.19-0.01-0.21-0.05c-0.01-0.04,0.14-0.12,0.14-0.16
				c0-0.05-0.15-0.12-0.14-0.16c0.01-0.05,0.18-0.01,0.21-0.05c0.03-0.04-0.05-0.18-0.01-0.21c0.04-0.03,0.15,0.09,0.2,0.08
				C59.24,33.09,59.27,32.93,59.31,32.93z"/>
			<circle class="st21" cx="52.57" cy="32.94" r="2.74"/>
			<path class="st5" d="M52.61,32.93c0.05,0,0.07,0.17,0.11,0.18c0.05,0.01,0.16-0.11,0.2-0.08c0.04,0.03-0.04,0.17-0.01,0.21
				c0.03,0.04,0.19,0.01,0.21,0.05c0.01,0.04-0.14,0.12-0.14,0.16c0,0.05,0.15,0.12,0.14,0.16c-0.01,0.05-0.18,0.01-0.21,0.05
				c-0.03,0.04,0.05,0.18,0.01,0.21c-0.04,0.03-0.15-0.09-0.2-0.08c-0.04,0.01-0.07,0.18-0.11,0.18c-0.05,0-0.07-0.17-0.11-0.18
				c-0.05-0.01-0.16,0.11-0.2,0.08c-0.04-0.03,0.04-0.17,0.01-0.21c-0.03-0.04-0.19-0.01-0.21-0.05c-0.01-0.04,0.14-0.12,0.14-0.16
				c0-0.05-0.15-0.12-0.14-0.16c0.01-0.05,0.18-0.01,0.21-0.05c0.03-0.04-0.05-0.18-0.01-0.21c0.04-0.03,0.15,0.09,0.2,0.08
				C52.54,33.09,52.56,32.93,52.61,32.93z"/>
		</g>
		<path class="st16" d="M55.66,35.19c0,0,1.46,0.49,1.19,1.23c-0.27,0.74-0.68,0.72-1.52,0.5"/>
		<path class="st22" d="M48.89,31.5c0,0,3.61,1.32,6.36-1.43c0,0-1.32-1.94-3.58-1.31S48.89,31.5,48.89,31.5z"/>
		<path class="st22" d="M62.62,31.5c0,0-3.61,1.32-6.36-1.43c0,0,1.32-1.94,3.58-1.31S62.62,31.5,62.62,31.5z"/>
		<path class="st16" d="M62.1,31.59c-3.71,1.16-5.08-1.69-5.08-1.69"/>
		<path class="st16" d="M53.93,30.89c0,0-1.67,1.2-3.42,0.65"/>
		<g>
			<g>
				<circle class="st23" cx="48.85" cy="32.43" r="0.51"/>
				<circle class="st24" cx="48.85" cy="32.43" r="0.32"/>
			</g>
			<g>
				<circle class="st23" cx="63" cy="32.43" r="0.51"/>
				<circle class="st24" cx="63" cy="32.43" r="0.32"/>
			</g>
			<g>
				<circle class="st23" cx="56.14" cy="27.04" r="0.51"/>
				<circle class="st24" cx="56.14" cy="27.04" r="0.32"/>
			</g>
		</g>
		<path class="st25" d="M48.54,33.76c0,0-0.75,2.96,0.72,5.11"/>
		<path class="st26" d="M60.65,40.86h-8.77c-0.72,0-1.31-0.59-1.31-1.31v0c0-0.72,0.59-1.31,1.31-1.31h8.77
			c0.72,0,1.31,0.59,1.31,1.31v0C61.96,40.27,61.38,40.86,60.65,40.86z"/>
		<path class="st5" d="M61.09,39.42c-0.21-0.34-0.46-0.77-1.02-0.77c-0.56,0-0.82,0.43-1.02,0.77c-0.19,0.32-0.33,0.52-0.53,0.52
			c-0.18,0-0.31-0.2-0.49-0.52c-0.2-0.35-0.44-0.78-0.99-0.78c-0.54,0-0.79,0.43-0.99,0.78c-0.18,0.31-0.31,0.52-0.49,0.52
			c-0.18,0-0.31-0.2-0.49-0.52c-0.2-0.35-0.44-0.78-0.99-0.78c-0.54,0-0.79,0.43-0.99,0.78c-0.18,0.31-0.31,0.52-0.49,0.52
			s-0.31-0.2-0.49-0.52c-0.18-0.32-0.41-0.71-0.87-0.77c-0.06-0.01-0.12,0.04-0.12,0.1l0,0.33c0,0.01,0.01,0.02,0.02,0.02
			c0.17,0.01,0.3,0.21,0.47,0.51c0.2,0.35,0.44,0.78,0.99,0.78c0.54,0,0.79-0.43,0.99-0.78c0.18-0.31,0.31-0.52,0.49-0.52
			c0.18,0,0.31,0.2,0.49,0.52c0.2,0.35,0.44,0.78,0.99,0.78s0.79-0.43,0.99-0.78c0.18-0.31,0.31-0.52,0.49-0.52
			c0.18,0,0.31,0.2,0.49,0.52c0.2,0.35,0.44,0.78,0.99,0.78c0.56,0,0.82-0.43,1.02-0.77c0.19-0.32,0.33-0.52,0.53-0.52
			c0.2,0,0.34,0.2,0.53,0.52c0.17,0.29,0.38,0.63,0.77,0.74c0.01,0,0.03-0.01,0.03-0.02v-0.5c0-0.01,0-0.01-0.01-0.01
			C61.3,39.75,61.2,39.61,61.09,39.42z"/>
	</g>
	<path class="st27" d="M47.83,44.76h16.51c0.35,0,0.66,0.25,0.74,0.59l2.18,9.49c0.11,0.48-0.25,0.93-0.74,0.93H45.36
		c-0.5,0-0.86-0.47-0.74-0.95l2.47-9.49C47.18,44.99,47.49,44.76,47.83,44.76z"/>
	<path class="st16" d="M63.41,48.91v-2.84c0-0.73-0.59-1.32-1.32-1.32H50.07c-0.73,0-1.32,0.59-1.32,1.32v2.87
		c-0.42,0.22-0.68,0.7-0.58,1.2l1.66,8.54c0.26,1.32,1.41,2.27,2.75,2.27h3.38h0.25h3.38c1.34,0,2.49-0.95,2.75-2.27l1.66-8.57
		C64.09,49.61,63.83,49.13,63.41,48.91z"/>
	<g>
		<circle class="st28" cx="55.97" cy="44.67" r="2.85"/>
		<circle class="st27" cx="60.15" cy="44.67" r="1.35"/>
		<circle class="st27" cx="51.79" cy="44.67" r="1.35"/>
	</g>
	<g>
		<circle class="st21" cx="51.66" cy="58.65" r="0.63"/>
		<circle class="st21" cx="60.5" cy="58.65" r="0.63"/>
	</g>
	<g>
		<ellipse class="st29" cx="56.02" cy="53.24" rx="5.1" ry="4.12"/>
		<circle class="st1" cx="57.21" cy="51.68" r="1.24"/>
		<circle class="st1" cx="58.92" cy="53.34" r="0.56"/>
	</g>
	<path class="st25" d="M58.8,47.78c0,0,2.96,0.95,3.82,3.62"/>
	<path class="st25" d="M53.72,58.65c0,0,2.62,1.01,4.73,0"/>
	<g>
		<path class="st16" d="M66.92,55.05l0.61,0.94c0.62,0.94,0.35,2.21-0.59,2.83l-7.54,4.93c-0.94,0.62-2.21,0.35-2.83-0.59
			l-0.61-0.94c-0.62-0.94-0.35-2.21,0.59-2.83l7.54-4.93C65.04,53.84,66.31,54.1,66.92,55.05z"/>
		<line class="st16" x1="64.51" y1="60.41" x2="61.65" y2="56.05"/>
		<line class="st16" x1="63.08" y1="58.23" x2="67.2" y2="55.54"/>
		<line class="st16" x1="62.89" y1="61.48" x2="60.03" y2="57.12"/>
		<path class="st21" d="M60.74,59.81L60.74,59.81c0.29,0.44,0.16,1.03-0.27,1.32l-2.13,1.39c-0.44,0.29-1.03,0.16-1.32-0.27l0,0
			c-0.29-0.44-0.16-1.03,0.27-1.32l2.13-1.39C59.86,59.24,60.45,59.37,60.74,59.81z"/>
		<circle class="st27" cx="57.89" cy="61.67" r="0.95"/>
	</g>
	<g>
		<g>
			<path class="st16" d="M48.43,58.07l-0.94,0.61c-0.95,0.62-2.21,0.35-2.83-0.6l-4.92-7.54c-0.62-0.95-0.35-2.21,0.6-2.83
				l0.94-0.61c0.95-0.62,2.21-0.35,2.83,0.6l4.92,7.54C49.65,56.19,49.38,57.46,48.43,58.07z"/>
			<line class="st16" x1="43.07" y1="55.65" x2="47.43" y2="52.8"/>
			<line class="st16" x1="45.25" y1="54.22" x2="47.94" y2="58.35"/>
			<line class="st16" x1="42.01" y1="54.02" x2="46.38" y2="51.18"/>
			<path class="st21" d="M43.68,51.88L43.68,51.88c-0.44,0.29-1.03,0.16-1.32-0.28l-1.39-2.13c-0.29-0.44-0.16-1.03,0.28-1.32h0
				c0.44-0.29,1.03-0.16,1.32,0.28l1.39,2.13C44.25,51,44.12,51.59,43.68,51.88z"/>
			<circle class="st27" cx="41.82" cy="49.03" r="0.95"/>
		</g>
		<g>
			<path class="st16" d="M36.79,40.75L36.79,40.75c0.64-0.4,1.49-0.2,1.88,0.44l2.67,4.27c0.4,0.64,0.2,1.49-0.44,1.88h0
				c-0.64,0.4-1.49,0.2-1.88-0.44l-2.67-4.27C35.95,42,36.15,41.15,36.79,40.75z"/>
			<circle class="st30" cx="37.52" cy="41.93" r="1.41"/>
		</g>
	</g>
</g>
</svg>
