<?xml version="1.0" encoding="utf-8"?>
<!-- Generator: Adobe Illustrator 23.0.4, SVG Export Plug-In . SVG Version: 6.00 Build 0)  -->
<svg version="1.1" id="Layer_1" xmlns="http://www.w3.org/2000/svg" xmlns:xlink="http://www.w3.org/1999/xlink" x="0px" y="0px"
	 viewBox="0 0 110.88 110.88" style="enable-background:new 0 0 110.88 110.88;" xml:space="preserve">
<style type="text/css">
	.st0{fill:#F9006C;}
	.st1{fill:#FFFFFF;}
	.st2{fill:#C6C6C6;}
	.st3{fill:#14A563;}
	.st4{fill:#15003E;}
	.st5{fill:#25E899;}
	.st6{fill:#0FCE7C;}
	.st7{fill:#CE0264;}
	.st8{fill:#AD055E;}
	.st9{fill:#FFCE08;}
	.st10{fill:#575560;}
	.st11{clip-path:url(#SVGID_2_);}
	.st12{fill:#8E2ABE;}
	.st13{fill:#D6AF0D;}
	.st14{fill:#FFFFFF;stroke:#15003E;stroke-width:0.3955;stroke-linecap:round;stroke-miterlimit:10;}
	.st15{fill:#1D035B;}
	.st16{fill:#D6D6D6;stroke:#15003E;stroke-width:0.4623;stroke-linecap:round;stroke-miterlimit:10;}
	.st17{fill:none;stroke:#25E899;stroke-width:0.5216;stroke-linecap:round;stroke-miterlimit:10;}
	.st18{fill:#AAAAAA;}
	.st19{fill:#6D5415;stroke:#15003E;stroke-width:0.4623;stroke-linecap:round;stroke-miterlimit:10;}
	.st20{fill:none;stroke:#15003E;stroke-width:0.6253;stroke-linecap:round;stroke-miterlimit:10;}
	.st21{fill:#FFFFFF;stroke:#15003E;stroke-width:0.4623;stroke-linecap:round;stroke-miterlimit:10;}
	.st22{fill:#D6D6D6;}
	.st23{fill:#B2B2B2;}
	.st24{fill:#565656;}
	.st25{fill:none;stroke:#15003E;stroke-width:0.4623;stroke-linecap:round;stroke-miterlimit:10;}
	.st26{fill:#0FCE7C;stroke:#15003E;stroke-width:0.4623;stroke-linecap:round;stroke-miterlimit:10;}
	.st27{fill:#FFCE08;stroke:#15003E;stroke-width:0.4623;stroke-linecap:round;stroke-miterlimit:10;}
	.st28{fill:#AAAAAA;stroke:#15003E;stroke-width:0.4623;stroke-miterlimit:10;}
	.st29{fill:#25E899;stroke:#15003E;stroke-width:0.4623;stroke-linecap:round;stroke-miterlimit:10;}
	.st30{fill:#FFCE08;stroke:#15003E;stroke-width:0.3571;stroke-linecap:round;stroke-miterlimit:10;}
	.st31{fill:#CEA73C;}
	.st32{fill:#FF1515;}
</style>
<polygon class="st2" points="8.21,28.07 8.21,82.81 55.61,110.17 103.01,82.81 103.01,28.07 55.61,0.71 "/>
<polygon class="st3" points="16.96,33.12 16.96,77.76 55.61,100.07 94.26,77.76 94.26,33.12 55.61,10.81 "/>
<path class="st4" d="M64.26,99.9l1.62-0.93l0.07,0.13c0.17,0.29,0.29,0.58,0.35,0.84c0.05,0.25,0.05,0.51,0,0.79
	c-0.13,0.62-0.47,1.09-1.03,1.41c-0.55,0.32-1.13,0.39-1.75,0.22c-0.62-0.17-1.09-0.54-1.41-1.09c-0.33-0.57-0.41-1.17-0.24-1.79
	c0.17-0.63,0.54-1.1,1.11-1.43c0.31-0.18,0.63-0.28,0.97-0.31c0.33-0.02,0.69,0.04,1.1,0.18l-0.19,0.65
	c-0.57-0.24-1.08-0.23-1.55,0.03c-0.41,0.24-0.68,0.58-0.8,1.03c-0.12,0.44-0.06,0.88,0.19,1.3c0.25,0.44,0.62,0.71,1.09,0.81
	c0.44,0.09,0.84,0.04,1.18-0.15c0.29-0.17,0.5-0.42,0.61-0.75c0.12-0.33,0.11-0.64-0.02-0.93l-0.98,0.56L64.26,99.9z"/>
<path class="st4" d="M67.54,95.51l2.26,3.92l-0.59,0.34l-2.26-3.92L67.54,95.51z"/>
<path class="st4" d="M71.28,94.09l1.94,3.36l-0.59,0.34l-1.94-3.36l-0.9,0.52l-0.32-0.56l2.39-1.38l0.32,0.56L71.28,94.09z"/>
<path class="st4" d="M76.67,90.53l0.4,0.7c-0.51-0.09-0.94-0.03-1.31,0.18c-0.4,0.23-0.66,0.57-0.77,1.02
	c-0.11,0.45-0.05,0.88,0.19,1.3c0.24,0.41,0.58,0.68,1.02,0.8s0.86,0.07,1.26-0.16c0.21-0.12,0.37-0.26,0.47-0.41
	c0.06-0.08,0.12-0.17,0.17-0.28s0.11-0.23,0.16-0.37l0.41,0.71c-0.23,0.39-0.53,0.69-0.9,0.9c-0.56,0.32-1.15,0.4-1.77,0.24
	c-0.62-0.17-1.09-0.53-1.41-1.09c-0.29-0.5-0.38-1.04-0.27-1.62c0.13-0.71,0.52-1.26,1.16-1.63C75.84,90.63,76.23,90.53,76.67,90.53
	z"/>
<path class="st5" d="M79.24,90.5c-0.32-0.55-0.39-1.14-0.21-1.77c0.17-0.63,0.54-1.1,1.11-1.43c0.56-0.32,1.15-0.4,1.78-0.23
	c0.63,0.17,1.11,0.53,1.43,1.09c0.32,0.56,0.4,1.16,0.22,1.78c-0.18,0.63-0.55,1.11-1.12,1.44c-0.51,0.29-1.06,0.38-1.67,0.26
	C80.12,91.5,79.6,91.12,79.24,90.5z M79.84,90.16c0.25,0.43,0.6,0.71,1.05,0.82c0.45,0.11,0.86,0.06,1.24-0.16
	c0.41-0.24,0.68-0.58,0.8-1.03c0.12-0.45,0.06-0.88-0.18-1.3c-0.24-0.42-0.58-0.69-1.02-0.81c-0.44-0.12-0.87-0.07-1.28,0.17
	c-0.41,0.23-0.67,0.58-0.79,1.02C79.55,89.32,79.61,89.75,79.84,90.16z"/>
<path class="st4" d="M85.32,85.27l2.26,3.92l-0.59,0.34l-2.26-3.92L85.32,85.27z"/>
<path class="st4" d="M89.92,87.84l-2.41-4.19l4.58,1.34l-1.57-2.72l0.59-0.34l2.4,4.16l-4.58-1.34l1.58,2.74L89.92,87.84z"/>
<g>
	<g>
		<g>
			<g>
				<path class="st9" d="M60.87,70.7h-1.42c-0.1,0-0.19-0.08-0.19-0.19s0.08-0.19,0.19-0.19h1.42c0.1,0,0.19,0.08,0.19,0.19
					S60.97,70.7,60.87,70.7z"/>
			</g>
			<g>
				<g>
					<path class="st5" d="M58.92,85.82c-0.1,0-0.19-0.08-0.19-0.19v-7.43c0-0.1,0.08-0.19,0.19-0.19c0.1,0,0.19,0.08,0.19,0.19v7.43
						C59.11,85.74,59.03,85.82,58.92,85.82z"/>
				</g>
				<g>
					<rect x="60" y="63.35" class="st4" width="2.14" height="19.26"/>
					<path class="st4" d="M62.32,82.79h-2.51V63.16h2.51V82.79z M60.18,82.42h1.76V63.54h-1.76V82.42z"/>
				</g>
				<g>
					<path class="st4" d="M58.77,78.27c-0.1,0-0.19-0.08-0.19-0.19V67.47c0-0.1,0.08-0.19,0.19-0.19s0.19,0.08,0.19,0.19v10.62
						C58.96,78.19,58.88,78.27,58.77,78.27z"/>
				</g>
				<g>
					<path class="st4" d="M58.77,85.58l0.06,4.4h8.76c0,0,0.24-0.94-2.83-2.52c-3.07-1.57-2.67-4.44-2.67-4.44L58.77,85.58z"/>
					<path class="st4" d="M67.74,90.17h-9.09l-0.06-4.68l3.75-2.89l-0.06,0.45c-0.01,0.11-0.33,2.76,2.57,4.25
						c3.11,1.59,2.96,2.62,2.93,2.73L67.74,90.17z M59.02,89.8h8.37c-0.1-0.3-0.56-1.06-2.71-2.16c-1.64-0.84-2.31-2.05-2.58-2.92
						c-0.16-0.52-0.21-0.98-0.21-1.29l-2.93,2.25L59.02,89.8z"/>
				</g>
				<g>
					<path class="st9" d="M60.87,71.53h-1.42c-0.1,0-0.19-0.08-0.19-0.19s0.08-0.19,0.19-0.19h1.42c0.1,0,0.19,0.08,0.19,0.19
						S60.97,71.53,60.87,71.53z"/>
				</g>
				<g>
					<path class="st9" d="M60.87,72.36h-1.42c-0.1,0-0.19-0.08-0.19-0.19c0-0.1,0.08-0.19,0.19-0.19h1.42c0.1,0,0.19,0.08,0.19,0.19
						C61.06,72.27,60.97,72.36,60.87,72.36z"/>
				</g>
				<g>
					<rect x="58.06" y="73.85" class="st1" width="2.36" height="4.33"/>
					<path class="st4" d="M60.61,78.36h-2.73v-4.7h2.73V78.36z M58.25,77.98h1.98v-3.95h-1.98V77.98z"/>
				</g>
				<g>
					<circle class="st1" cx="59.44" cy="81.83" r="1.61"/>
					<path class="st4" d="M59.44,83.63c-0.99,0-1.8-0.81-1.8-1.8c0-0.99,0.81-1.8,1.8-1.8c0.99,0,1.8,0.81,1.8,1.8
						C61.24,82.82,60.43,83.63,59.44,83.63z M59.44,80.4c-0.79,0-1.42,0.64-1.42,1.42c0,0.79,0.64,1.42,1.42,1.42
						s1.42-0.64,1.42-1.42C60.86,81.04,60.22,80.4,59.44,80.4z"/>
				</g>
				<g>
					<circle class="st5" cx="61.64" cy="82.06" r="0.35"/>
				</g>
				<g>
					<path class="st4" d="M60.35,76.19h-2.27c-0.1,0-0.19-0.08-0.19-0.19c0-0.1,0.08-0.19,0.19-0.19h2.27c0.1,0,0.19,0.08,0.19,0.19
						C60.54,76.1,60.45,76.19,60.35,76.19z"/>
				</g>
			</g>
			<g>
				<path class="st5" d="M53.84,85.82c-0.1,0-0.19-0.08-0.19-0.19v-7.43c0-0.1,0.08-0.19,0.19-0.19s0.19,0.08,0.19,0.19v7.43
					C54.03,85.74,53.95,85.82,53.84,85.82z"/>
			</g>
			<g>
				
					<rect x="50.64" y="63.35" transform="matrix(-1 -4.599311e-11 4.599311e-11 -1 103.4083 145.9567)" class="st4" width="2.14" height="19.26"/>
				<path class="st4" d="M52.96,82.79h-2.51V63.16h2.51V82.79z M50.82,82.42h1.76V63.54h-1.76V82.42z"/>
			</g>
			<g>
				<line class="st4" x1="54" y1="67.47" x2="54" y2="78.08"/>
				<path class="st4" d="M54,78.27c-0.1,0-0.19-0.08-0.19-0.19V67.47c0-0.1,0.08-0.19,0.19-0.19c0.1,0,0.19,0.08,0.19,0.19v10.62
					C54.18,78.19,54.1,78.27,54,78.27z"/>
			</g>
			<g>
				<path class="st4" d="M54,85.58l-0.06,4.4h-8.76c0,0-0.24-0.94,2.83-2.52c3.07-1.57,2.67-4.44,2.67-4.44L54,85.58z"/>
				<path class="st4" d="M54.12,90.17h-9.09l-0.04-0.14c-0.03-0.11-0.18-1.13,2.93-2.73c1.23-0.63,2.03-1.54,2.39-2.7
					c0.27-0.86,0.18-1.54,0.18-1.55l-0.06-0.45l3.75,2.89L54.12,90.17z M45.38,89.8h8.37l0.06-4.13l-2.93-2.26
					c-0.02,0.88-0.34,2.97-2.79,4.22C45.95,88.73,45.49,89.49,45.38,89.8z"/>
			</g>
			<g>
				<path class="st9" d="M53.31,71.53H51.9c-0.1,0-0.19-0.08-0.19-0.19s0.08-0.19,0.19-0.19h1.42c0.1,0,0.19,0.08,0.19,0.19
					S53.42,71.53,53.31,71.53z"/>
			</g>
			<g>
				<path class="st9" d="M53.31,72.36H51.9c-0.1,0-0.19-0.08-0.19-0.19c0-0.1,0.08-0.19,0.19-0.19h1.42c0.1,0,0.19,0.08,0.19,0.19
					C53.5,72.27,53.42,72.36,53.31,72.36z"/>
			</g>
			<g>
				
					<rect x="52.35" y="73.85" transform="matrix(-1 -4.472035e-11 4.472035e-11 -1 107.0579 152.0158)" class="st1" width="2.36" height="4.33"/>
				<path class="st4" d="M54.9,78.36h-2.73v-4.7h2.73V78.36z M52.54,77.98h1.98v-3.95h-1.98V77.98z"/>
			</g>
			<g>
				<circle class="st5" cx="51.13" cy="82.06" r="0.35"/>
			</g>
			<g>
				<line class="st1" x1="54.69" y1="76" x2="52.42" y2="76"/>
				<path class="st4" d="M54.69,76.19h-2.27c-0.1,0-0.19-0.08-0.19-0.19c0-0.1,0.08-0.19,0.19-0.19h2.27c0.1,0,0.19,0.08,0.19,0.19
					C54.88,76.1,54.79,76.19,54.69,76.19z"/>
			</g>
			<g>
				<circle class="st22" cx="60.52" cy="64.52" r="2.21"/>
				<path class="st4" d="M60.52,66.92c-1.32,0-2.4-1.08-2.4-2.4c0-1.32,1.08-2.4,2.4-2.4c1.32,0,2.4,1.08,2.4,2.4
					C62.92,65.85,61.85,66.92,60.52,66.92z M60.52,62.5c-1.12,0-2.03,0.91-2.03,2.03c0,1.12,0.91,2.03,2.03,2.03
					c1.12,0,2.03-0.91,2.03-2.03C62.55,63.41,61.64,62.5,60.52,62.5z"/>
			</g>
			<g>
				<circle class="st22" cx="52.08" cy="64.52" r="2.21"/>
				<path class="st4" d="M52.08,66.92c-1.32,0-2.4-1.08-2.4-2.4c0-1.32,1.08-2.4,2.4-2.4s2.4,1.08,2.4,2.4
					C54.48,65.85,53.4,66.92,52.08,66.92z M52.08,62.5c-1.12,0-2.03,0.91-2.03,2.03c0,1.12,0.91,2.03,2.03,2.03
					c1.12,0,2.03-0.91,2.03-2.03C54.1,63.41,53.2,62.5,52.08,62.5z"/>
			</g>
			<g>
				<path class="st22" d="M62.36,61.18c0.04-0.78-0.1-1.62-0.14-2.29c-0.11-1.55-0.28-3.1-0.39-4.65c-0.17-2.28-0.33-4.55-0.5-6.83
					c-0.16-2.13-1.93-3.78-4.07-3.78v-10.4h-2.17c0,0,0,10.4,0,10.4c-1.89,0-3.47,1.45-3.62,3.34c-0.17,2.02-0.33,4.03-0.5,6.05
					c-0.11,1.39-0.21,2.79-0.31,4.18c-0.08,1.05-0.27,2.04-0.31,3.18c-0.03,0.83,0.05,1.91,0.64,2.52c1.71,1.78,2.77,3.03,5.41,3.14
					c2.44,0.1,3.82-1.53,5.35-3.15C62.17,62.44,62.32,61.83,62.36,61.18z"/>
				<path class="st4" d="M56.61,66.22c-0.07,0-0.15,0-0.23,0c-2.56-0.11-3.69-1.28-5.26-2.91l-0.28-0.29
					c-0.51-0.53-0.74-1.42-0.7-2.66c0.03-0.67,0.1-1.3,0.18-1.91c0.05-0.44,0.1-0.85,0.14-1.28c0.04-0.55,0.08-1.09,0.12-1.64
					c0.06-0.83,0.12-1.69,0.19-2.54l0.5-6.05c0.16-1.9,1.73-3.41,3.62-3.5V33.03h2.55v10.41c2.14,0.09,3.91,1.8,4.07,3.95l0.5,6.83
					c0.05,0.74,0.12,1.49,0.19,2.21c0.07,0.8,0.15,1.63,0.2,2.44c0.01,0.2,0.04,0.42,0.06,0.64c0.05,0.52,0.11,1.11,0.08,1.67
					c-0.04,0.8-0.26,1.39-0.67,1.82l-0.27,0.28C60.19,64.8,58.85,66.22,56.61,66.22z M55.08,43.81c-1.78,0-3.29,1.39-3.43,3.16
					l-0.5,6.05c-0.07,0.84-0.13,1.7-0.19,2.54c-0.04,0.55-0.08,1.09-0.12,1.64c-0.03,0.44-0.09,0.88-0.14,1.3
					c-0.07,0.6-0.15,1.22-0.17,1.87c-0.04,1.11,0.16,1.94,0.59,2.39l0.28,0.29c1.56,1.62,2.59,2.7,5,2.8
					c2.21,0.1,3.53-1.31,4.94-2.8l0.27-0.29c0.34-0.36,0.53-0.88,0.56-1.58l0,0c0.03-0.53-0.03-1.08-0.08-1.61
					c-0.02-0.23-0.05-0.45-0.06-0.66c-0.06-0.81-0.13-1.64-0.2-2.43c-0.07-0.73-0.13-1.48-0.19-2.22l-0.5-6.83
					c-0.15-2.02-1.85-3.61-3.88-3.61h-0.19V33.4h-1.8v10.4H55.08z"/>
			</g>
			<g>
				<path class="st5" d="M64.49,26.91l2.89-4.17c0.11-0.16-0.03-0.37-0.22-0.33l-5.05,0.95c-0.14,0.03-0.26-0.08-0.25-0.22
					l0.19-6.06c0.01-0.2-0.24-0.3-0.38-0.15l-3.26,3.67c-0.11,0.13-0.32,0.08-0.37-0.08l-1.77-5.93c-0.03-0.1-0.16-0.1-0.19,0
					l-1.89,5.94c-0.05,0.16-0.26,0.2-0.37,0.08l-3.26-3.68c-0.13-0.15-0.38-0.05-0.38,0.15l0.19,6.06c0,0.14-0.12,0.24-0.25,0.22
					l-5.05-0.95c-0.19-0.04-0.33,0.18-0.22,0.33l2.89,4.17c0.08,0.12,0.03,0.28-0.11,0.33l-2.67,0.93c-0.17,0.06-0.2,0.29-0.05,0.38
					l2.37,1.53c0.14,0.09,0.13,0.29-0.01,0.37l-2.12,1.19c-0.15,0.08-0.15,0.3,0.01,0.38l2.41,1.23c0.15,0.08,0.16,0.28,0.02,0.37
					l-1.09,0.71c-0.15,0.09-0.13,0.31,0.03,0.38l1.95,0.81c0.11,0.05,0.17,0.18,0.11,0.29l-0.52,1.07
					c-0.07,0.15,0.05,0.33,0.22,0.31l2.94-0.35c0.01,0,0.03,0,0.04,0l4.76,0.39v0.01l0.07-0.01l0.07,0.01v-0.01l4.76-0.39
					c0.01,0,0.03,0,0.04,0l2.94,0.35c0.17,0.02,0.29-0.16,0.22-0.31l-0.52-1.07c-0.05-0.11,0-0.25,0.11-0.29l1.95-0.81
					c0.16-0.07,0.18-0.28,0.03-0.38l-1.09-0.71c-0.14-0.09-0.13-0.3,0.02-0.37l2.41-1.23c0.15-0.08,0.16-0.29,0.01-0.38l-2.12-1.19
					c-0.14-0.08-0.15-0.28-0.01-0.37l2.37-1.53c0.15-0.1,0.12-0.33-0.05-0.38l-2.67-0.93C64.46,27.19,64.41,27.03,64.49,26.91z"/>
				<path class="st4" d="M55.88,37.44V37.4l-4.58-0.37l-2.95,0.35c-0.15,0.02-0.29-0.05-0.38-0.17c-0.09-0.12-0.1-0.28-0.03-0.41
					l0.52-1.07c0-0.01,0-0.02,0-0.02c0-0.01-0.01-0.01-0.02-0.02l-1.95-0.81c-0.14-0.06-0.23-0.19-0.25-0.34
					c-0.01-0.15,0.06-0.29,0.18-0.37l1.09-0.71c0,0,0.01-0.01,0.01-0.02c0-0.02-0.01-0.02-0.02-0.02l-2.41-1.23
					c-0.13-0.07-0.22-0.2-0.22-0.35c0-0.15,0.08-0.29,0.2-0.36l2.12-1.19c0,0,0.01-0.01,0.01-0.02c0-0.02-0.01-0.02-0.01-0.02
					l-2.37-1.53c-0.13-0.08-0.2-0.23-0.18-0.39c0.02-0.15,0.12-0.28,0.27-0.33l2.67-0.93c0.01,0,0.01-0.01,0.02-0.02
					c0-0.01,0-0.02,0-0.02l-2.9-4.17c-0.09-0.13-0.1-0.31-0.01-0.45c0.09-0.14,0.25-0.21,0.41-0.18l5.05,0.95
					c0.01,0,0.02,0,0.02-0.01c0.01-0.01,0.01-0.01,0.01-0.02l-0.19-6.06c-0.01-0.17,0.09-0.32,0.25-0.39
					c0.16-0.06,0.34-0.02,0.45,0.11l3.26,3.68c0,0,0.01,0.01,0.03,0.01s0.02-0.02,0.02-0.02l1.89-5.94c0.04-0.12,0.15-0.2,0.27-0.2
					c0,0,0,0,0,0c0.13,0,0.24,0.08,0.27,0.21l1.77,5.93c0,0,0,0.02,0.02,0.02c0.02,0,0.02-0.01,0.03-0.01l3.26-3.67
					c0.11-0.13,0.29-0.17,0.45-0.11c0.16,0.06,0.26,0.22,0.25,0.39l-0.19,6.06c0,0.01,0,0.02,0.01,0.02
					c0.01,0.01,0.02,0.01,0.02,0.01l5.05-0.95c0.16-0.03,0.32,0.04,0.41,0.18c0.09,0.14,0.09,0.31-0.01,0.45l-2.9,4.17
					c-0.01,0.01-0.01,0.02,0,0.02c0,0.01,0.01,0.01,0.02,0.02l2.67,0.93c0.15,0.05,0.25,0.18,0.27,0.33
					c0.02,0.15-0.05,0.3-0.18,0.39l-2.37,1.53c0,0-0.01,0.01-0.01,0.02c0,0.02,0.01,0.02,0.01,0.02l2.12,1.19
					c0.13,0.07,0.21,0.21,0.2,0.36c0,0.15-0.09,0.28-0.22,0.35l-2.41,1.23c0,0-0.01,0.01-0.02,0.02c0,0.02,0.01,0.02,0.01,0.02
					l1.09,0.71c0.13,0.08,0.2,0.22,0.18,0.37c-0.01,0.15-0.11,0.28-0.25,0.34l-1.95,0.81c-0.01,0-0.01,0.01-0.02,0.02
					c0,0.01,0,0.01,0,0.02l0.52,1.07c0.06,0.13,0.05,0.29-0.03,0.41c-0.09,0.12-0.23,0.18-0.38,0.17l-2.94-0.35l-4.59,0.37v0.03
					l-0.25-0.01L55.88,37.44z M51.29,36.65c0.01,0,0.02,0,0.03,0l4.82,0.39l0.04-0.01l4.76-0.39c0.03,0,0.05,0,0.08,0l2.94,0.35
					c0,0,0.02,0,0.03-0.01c0.01-0.01,0-0.02,0-0.03l-0.52-1.07c-0.05-0.1-0.05-0.22-0.02-0.32c0.04-0.1,0.12-0.19,0.22-0.23
					l1.95-0.81c0,0,0.02-0.01,0.02-0.02c0-0.02-0.01-0.02-0.01-0.03l-1.09-0.71c-0.12-0.08-0.19-0.21-0.18-0.36
					c0.01-0.15,0.09-0.27,0.22-0.34l2.41-1.23c0,0,0.01-0.01,0.02-0.02c0-0.02-0.01-0.02-0.01-0.02l-2.12-1.19
					c-0.12-0.07-0.2-0.2-0.2-0.34c0-0.14,0.06-0.27,0.18-0.35l2.37-1.53c0,0,0.01-0.01,0.01-0.03s-0.01-0.02-0.02-0.02l-2.67-0.93
					c-0.12-0.04-0.21-0.14-0.25-0.26c-0.04-0.12-0.02-0.25,0.05-0.35l2.89-4.17c0,0,0.01-0.02,0-0.03
					c-0.01-0.02-0.02-0.01-0.03-0.01l-5.05,0.95c-0.12,0.02-0.24-0.01-0.34-0.09c-0.09-0.08-0.14-0.2-0.14-0.32l0.19-6.06
					c0-0.01,0-0.02-0.02-0.03c-0.02-0.01-0.03,0-0.03,0.01l-3.26,3.67c-0.1,0.11-0.25,0.16-0.39,0.13c-0.14-0.03-0.26-0.14-0.3-0.28
					l-1.69-5.66l-1.81,5.67c-0.04,0.14-0.16,0.24-0.3,0.27c-0.14,0.03-0.29-0.02-0.38-0.13l-3.26-3.68c0,0-0.01-0.02-0.03-0.01
					c-0.02,0.01-0.02,0.02-0.02,0.03l0.19,6.06c0,0.12-0.05,0.24-0.14,0.32c-0.09,0.08-0.22,0.11-0.34,0.09l-5.05-0.95
					c-0.01,0-0.02,0-0.03,0.01c-0.01,0.02,0,0.03,0,0.03l2.9,4.17c0.07,0.1,0.09,0.23,0.05,0.35c-0.04,0.12-0.13,0.21-0.25,0.26
					l-2.67,0.93c0,0-0.02,0.01-0.02,0.02s0.01,0.02,0.01,0.03l2.37,1.53c0.12,0.08,0.19,0.21,0.18,0.35c0,0.14-0.08,0.27-0.2,0.34
					l-2.12,1.19c0,0-0.01,0.01-0.01,0.02c0,0.02,0.01,0.02,0.02,0.02l2.41,1.23c0.13,0.07,0.21,0.19,0.22,0.34
					c0.01,0.15-0.06,0.28-0.18,0.36l-1.09,0.71c0,0-0.01,0.01-0.01,0.03c0,0.02,0.01,0.02,0.02,0.02l1.95,0.81
					c0.1,0.04,0.18,0.13,0.22,0.23c0.04,0.1,0.03,0.22-0.02,0.32l-0.52,1.07c0,0-0.01,0.01,0,0.03c0.01,0.01,0.02,0.01,0.03,0.01
					l2.94-0.35C51.26,36.65,51.27,36.65,51.29,36.65z"/>
			</g>
			<g>
				<rect x="55.11" y="42.92" class="st5" width="2.17" height="0.74"/>
				<path class="st4" d="M57.48,43.85h-2.55v-1.11h2.55V43.85z M55.3,43.47h1.8v-0.36h-1.8V43.47z"/>
			</g>
			<g>
				<path class="st4" d="M56.35,47.4c-2.08,0-4.71-0.91-4.82-0.95l0.12-0.35c0.03,0.01,2.69,0.93,4.7,0.93
					c2.01,0,4.75-0.9,4.77-0.91l0.12,0.36C61.13,46.51,58.42,47.4,56.35,47.4z"/>
			</g>
			<g>
				<circle class="st0" cx="59.7" cy="48.5" r="0.58"/>
				<path class="st4" d="M59.7,49.26c-0.42,0-0.76-0.34-0.76-0.76c0-0.42,0.34-0.76,0.76-0.76s0.76,0.34,0.76,0.76
					C60.46,48.92,60.12,49.26,59.7,49.26z M59.7,48.11c-0.22,0-0.39,0.18-0.39,0.39s0.18,0.39,0.39,0.39s0.39-0.18,0.39-0.39
					S59.91,48.11,59.7,48.11z"/>
			</g>
			<g>
				<path class="st22" d="M49.45,38.12c0,0-1.8-15.09,6.64-15.09s6.42,15.42,6.42,15.42S57.79,43.34,49.45,38.12z"/>
				<path class="st4" d="M56.81,40.71c-2.88,0-5.56-1.25-7.47-2.44l-0.08-0.05l-0.01-0.09c0-0.02-0.28-2.36-0.11-5.16
					c0.23-3.77,1.11-6.55,2.61-8.25c1.11-1.26,2.57-1.89,4.32-1.89c1.72,0,3.15,0.63,4.24,1.87c1.51,1.72,2.37,4.56,2.55,8.45
					c0.13,2.88-0.18,5.29-0.18,5.31l-0.01,0.06l-0.04,0.04c-0.05,0.05-1.24,1.27-3.49,1.84C58.36,40.62,57.58,40.71,56.81,40.71z
					 M49.62,38.01c2.34,1.45,5.85,2.96,9.41,2.06c1.92-0.49,3.06-1.49,3.29-1.7c0.1-0.84,1.04-9.61-2.28-13.4
					c-1.02-1.16-2.35-1.74-3.95-1.74c-1.64,0-3,0.59-4.04,1.77C48.76,28.69,49.52,37.05,49.62,38.01z"/>
			</g>
			<g>
				<path class="st22" d="M58.45,36.54c-0.08,0.06-0.17,0.09-0.27,0.09h-0.09c-1.39,0-2.77,0-4.15,0c-0.11,0-0.22-0.04-0.3-0.12
					l-4.29-4.25l0.1,5.86c-0.01,0.13,0.05,0.26,0.15,0.35c0.7,0.61,3.53,3.05,4.17,3.53c0.07,0.05,0.15,0.08,0.24,0.09
					c1.24,0.07,2.9,0.02,4.25,0c0.1,0,0.2-0.04,0.28-0.11l3.98-3.52c0.09-0.08,0.14-0.19,0.15-0.31l0.12-4.05
					c0.01-0.37-0.41-0.58-0.71-0.36L58.45,36.54z"/>
				<path class="st4" d="M55.58,42.31c-0.56,0-1.11-0.01-1.59-0.04c-0.12-0.01-0.24-0.05-0.34-0.12c-0.63-0.47-3.36-2.83-4.18-3.54
					c-0.14-0.12-0.22-0.31-0.21-0.5l-0.11-6.31l4.62,4.58c0.04,0.04,0.11,0.07,0.17,0.07l2.76,0l1.48,0c0.06,0,0.11-0.02,0.15-0.05
					v0l3.61-2.81c0.19-0.15,0.45-0.17,0.67-0.06c0.22,0.11,0.35,0.33,0.34,0.57l-0.12,4.05c0,0.17-0.08,0.34-0.21,0.45l-3.98,3.52
					c-0.11,0.1-0.25,0.15-0.4,0.16l-0.5,0.01C57.05,42.29,56.3,42.31,55.58,42.31z M49.54,32.71l0.09,5.4
					c0,0.09,0.03,0.16,0.09,0.21c0.58,0.5,3.51,3.04,4.16,3.52c0.04,0.03,0.09,0.05,0.13,0.05c1.08,0.06,2.49,0.03,3.74,0.01
					l0.5-0.01c0.06,0,0.12-0.02,0.16-0.06l3.98-3.52c0.05-0.05,0.08-0.11,0.08-0.18l0.12-4.05c0-0.1-0.05-0.19-0.14-0.23
					c-0.09-0.05-0.19-0.04-0.27,0.03l-3.61,2.81v0c-0.11,0.09-0.25,0.13-0.38,0.13h-4.25c-0.16,0-0.31-0.06-0.43-0.17L49.54,32.71z"
					/>
			</g>
			<g>
				<circle class="st1" cx="58.37" cy="28.92" r="2.15"/>
				<path class="st4" d="M58.37,31.26c-1.29,0-2.34-1.05-2.34-2.34s1.05-2.34,2.34-2.34c1.29,0,2.34,1.05,2.34,2.34
					S59.66,31.26,58.37,31.26z M58.37,26.96c-1.08,0-1.96,0.88-1.96,1.96c0,1.08,0.88,1.96,1.96,1.96s1.96-0.88,1.96-1.96
					C60.34,27.84,59.46,26.96,58.37,26.96z"/>
			</g>
			<g>
				<g>
					<path class="st22" d="M63.93,33.21c0-0.37-0.04-0.8-0.23-1.13c-0.1-0.17-0.18-0.22-0.37-0.23c-0.23-0.02-0.46,0-0.69,0
						c-0.33,0-0.59,0.61-0.59,1.35c0,0.75,0.26,1.35,0.59,1.35c0.14,0,0.28,0,0.42,0c0.31,0,0.5,0.04,0.65-0.26
						C63.89,33.98,63.93,33.57,63.93,33.21z"/>
					<path class="st4" d="M63.25,34.76c-0.03,0-0.06,0-0.08,0l-0.52,0c-0.44,0-0.78-0.66-0.78-1.54c0-0.88,0.33-1.54,0.78-1.54
						c0.08,0,0.16,0,0.24-0.01c0.15-0.01,0.3-0.01,0.46,0c0.25,0.02,0.39,0.1,0.52,0.32c0.22,0.39,0.25,0.88,0.25,1.22
						c0,0.51-0.07,0.88-0.23,1.18C63.71,34.72,63.48,34.76,63.25,34.76z M63.14,32.04c-0.08,0-0.16,0-0.24,0.01
						c-0.08,0-0.17,0.01-0.25,0.01c-0.14,0-0.4,0.41-0.4,1.17c0,0.75,0.27,1.17,0.4,1.17h0.42c0.04,0,0.07,0,0.1,0
						c0.24,0,0.3,0.01,0.38-0.16c0.13-0.24,0.19-0.56,0.19-1.01c0-0.29-0.02-0.72-0.2-1.03c-0.06-0.11-0.09-0.13-0.22-0.14
						C63.26,32.04,63.2,32.04,63.14,32.04z"/>
				</g>
				<g>
					<path class="st22" d="M63.22,32.26c-0.3,0.66-0.25,1.26,0,1.92"/>
					<path class="st4" d="M63.22,34.36c-0.08,0-0.15-0.05-0.18-0.12c-0.29-0.77-0.29-1.4,0-2.06c0.04-0.09,0.15-0.14,0.25-0.1
						c0.09,0.04,0.14,0.15,0.1,0.25c-0.25,0.57-0.25,1.1,0,1.78c0.04,0.1-0.01,0.2-0.11,0.24C63.26,34.36,63.24,34.36,63.22,34.36z"
						/>
				</g>
			</g>
			<g>
				<g>
					<path class="st22" d="M48.48,33.2c0,0.37,0.04,0.8,0.23,1.13c0.1,0.17,0.18,0.22,0.37,0.23c0.23,0.02,0.46,0,0.69,0
						c0.33,0,0.59-0.61,0.59-1.35c0-0.75-0.26-1.35-0.59-1.35c-0.14,0-0.28,0-0.42,0c-0.31,0-0.5-0.04-0.65,0.26
						C48.52,32.44,48.48,32.84,48.48,33.2z"/>
					<path class="st4" d="M49.27,34.76c-0.07,0-0.14,0-0.21-0.01c-0.25-0.02-0.39-0.1-0.52-0.32c-0.22-0.39-0.25-0.88-0.25-1.22
						c0-0.51,0.07-0.88,0.23-1.18c0.19-0.37,0.46-0.37,0.72-0.36l0.52,0c0.44,0,0.78,0.66,0.78,1.54s-0.33,1.54-0.78,1.54
						c-0.08,0-0.16,0-0.24,0.01C49.44,34.75,49.35,34.76,49.27,34.76z M49.15,32.04c-0.17,0-0.22,0.02-0.29,0.16
						c-0.13,0.24-0.19,0.56-0.19,1.01c0,0.29,0.02,0.72,0.2,1.03c0.06,0.11,0.09,0.13,0.22,0.14c0.14,0.01,0.27,0.01,0.42,0
						c0.08,0,0.17-0.01,0.25-0.01c0.14,0,0.4-0.41,0.4-1.17c0-0.75-0.27-1.17-0.4-1.17h-0.42c-0.04,0-0.07,0-0.1,0
						C49.2,32.04,49.17,32.04,49.15,32.04z"/>
				</g>
				<g>
					<path class="st22" d="M49.34,32.26c0.3,0.66,0.25,1.26,0,1.92"/>
					<path class="st4" d="M49.34,34.36c-0.02,0-0.04,0-0.07-0.01c-0.1-0.04-0.15-0.14-0.11-0.24c0.26-0.68,0.26-1.21,0-1.78
						c-0.04-0.09,0-0.21,0.1-0.25c0.09-0.04,0.21,0,0.25,0.1c0.29,0.66,0.29,1.3,0,2.06C49.49,34.32,49.42,34.36,49.34,34.36z"/>
				</g>
			</g>
			<g>
				<path class="st4" d="M53.8,32.04c-0.43,0-1.04-0.08-1.69-0.43c-1.22-0.65-1.3-2.02-1.31-2.08c-0.01-0.1,0.07-0.19,0.18-0.2
					c0.1,0,0.19,0.07,0.2,0.18l0,0c0,0.01,0.08,1.22,1.11,1.77c1.05,0.56,2.01,0.34,2.02,0.33c0.1-0.02,0.2,0.04,0.23,0.14
					s-0.04,0.2-0.14,0.23C54.38,31.98,54.15,32.04,53.8,32.04z"/>
			</g>
			<g>
				<path class="st4" d="M59.33,31.98c-0.09,0-0.17-0.06-0.18-0.15c-0.02-0.1,0.05-0.2,0.15-0.22c1.48-0.26,1.62-1.71,1.62-1.72
					c0.01-0.1,0.1-0.18,0.2-0.17c0.1,0.01,0.18,0.1,0.17,0.2c0,0.02-0.17,1.75-1.93,2.06C59.35,31.98,59.34,31.98,59.33,31.98z"/>
			</g>
			<g>
				<g>
					<circle class="st23" cx="61.83" cy="36.47" r="0.4"/>
				</g>
				<g>
					<circle class="st24" cx="61.83" cy="36.47" r="0.25"/>
				</g>
			</g>
			<g>
				<g>
					<circle class="st23" cx="50.46" cy="36.47" r="0.4"/>
				</g>
				<g>
					<circle class="st24" cx="50.46" cy="36.47" r="0.25"/>
				</g>
			</g>
			<g>
				<g>
					<circle class="st23" cx="56.1" cy="41.2" r="0.4"/>
				</g>
				<g>
					<circle class="st24" cx="56.1" cy="41.2" r="0.25"/>
				</g>
			</g>
			<g>
				<path class="st5" d="M58.37,28.91c0.04,0,0.06,0.13,0.09,0.14c0.04,0.01,0.13-0.08,0.16-0.06c0.03,0.02-0.03,0.14-0.01,0.17
					c0.02,0.03,0.15,0.01,0.16,0.04c0.01,0.03-0.11,0.09-0.11,0.13c0,0.04,0.12,0.09,0.11,0.13c-0.01,0.04-0.14,0.01-0.16,0.04
					c-0.02,0.03,0.04,0.15,0.01,0.17c-0.03,0.02-0.12-0.07-0.16-0.06c-0.03,0.01-0.05,0.14-0.09,0.14c-0.04,0-0.06-0.13-0.09-0.14
					c-0.04-0.01-0.13,0.08-0.16,0.06c-0.03-0.02,0.03-0.14,0.01-0.17c-0.02-0.03-0.15-0.01-0.16-0.04
					c-0.01-0.03,0.11-0.09,0.11-0.13c0-0.04-0.12-0.09-0.11-0.13c0.01-0.04,0.14-0.01,0.16-0.04c0.02-0.03-0.04-0.15-0.01-0.17
					c0.03-0.02,0.12,0.07,0.16,0.06C58.32,29.04,58.34,28.91,58.37,28.91z"/>
			</g>
			<g>
				<circle class="st1" cx="53.85" cy="28.92" r="2.15"/>
				<path class="st4" d="M53.85,31.26c-1.29,0-2.34-1.05-2.34-2.34s1.05-2.34,2.34-2.34c1.29,0,2.34,1.05,2.34,2.34
					S55.14,31.26,53.85,31.26z M53.85,26.96c-1.08,0-1.96,0.88-1.96,1.96c0,1.08,0.88,1.96,1.96,1.96s1.96-0.88,1.96-1.96
					C55.82,27.84,54.94,26.96,53.85,26.96z"/>
			</g>
			<g>
				<path class="st5" d="M53.89,28.91c0.04,0,0.06,0.13,0.09,0.14c0.04,0.01,0.13-0.08,0.16-0.06c0.03,0.02-0.03,0.14-0.01,0.17
					c0.02,0.03,0.15,0.01,0.16,0.04c0.01,0.03-0.11,0.09-0.11,0.13c0,0.04,0.12,0.09,0.11,0.13c-0.01,0.04-0.14,0.01-0.16,0.04
					c-0.02,0.03,0.04,0.15,0.01,0.17c-0.03,0.02-0.12-0.07-0.16-0.06c-0.03,0.01-0.05,0.14-0.09,0.14c-0.04,0-0.06-0.13-0.09-0.14
					c-0.04-0.01-0.13,0.08-0.16,0.06c-0.03-0.02,0.03-0.14,0.01-0.17c-0.02-0.03-0.15-0.01-0.16-0.04
					c-0.01-0.03,0.11-0.09,0.11-0.13c0-0.04-0.12-0.09-0.11-0.13c0.01-0.04,0.14-0.01,0.16-0.04c0.02-0.03-0.04-0.15-0.01-0.17
					c0.03-0.02,0.12,0.07,0.16,0.06C53.83,29.04,53.85,28.91,53.89,28.91z"/>
			</g>
			<g>
				<path class="st6" d="M52,26.29c0,0.14,0.08,0.27,0.2,0.33c0.6,0.31,2.4,1.16,4.07,1.1c1.65-0.06,3.24-0.81,3.79-1.1
					c0.12-0.06,0.2-0.19,0.2-0.33v0c0-0.26-0.26-0.45-0.51-0.35c-0.77,0.29-2.28,0.95-3.58,1.02c-1.42,0.08-2.87-0.75-3.68-1.04
					c-0.25-0.09-0.5,0.09-0.5,0.36V26.29z"/>
				<path class="st4" d="M56.1,27.92c-1.64,0-3.32-0.78-3.99-1.12c-0.19-0.1-0.3-0.29-0.3-0.5v-0.01c0-0.18,0.09-0.36,0.24-0.46
					c0.15-0.11,0.34-0.13,0.51-0.07c0.19,0.07,0.4,0.16,0.65,0.27c0.8,0.35,1.9,0.82,2.95,0.76c1.1-0.06,2.36-0.56,3.19-0.88
					c0.12-0.05,0.23-0.09,0.33-0.13c0.17-0.07,0.37-0.04,0.52,0.06c0.15,0.11,0.24,0.28,0.24,0.46c0,0.21-0.12,0.4-0.3,0.5
					c-0.61,0.32-2.2,1.06-3.87,1.12C56.22,27.92,56.16,27.92,56.1,27.92z M52.38,26.09c-0.04,0-0.08,0.01-0.11,0.03
					c-0.05,0.04-0.08,0.09-0.08,0.16v0.01c0,0.07,0.04,0.14,0.1,0.17c0.52,0.27,2.33,1.13,3.97,1.08c1.59-0.06,3.13-0.77,3.71-1.08
					c0.06-0.03,0.1-0.1,0.1-0.17c0-0.06-0.03-0.12-0.08-0.16c-0.05-0.04-0.12-0.04-0.17-0.02c-0.1,0.04-0.21,0.08-0.33,0.13
					c-0.85,0.33-2.15,0.84-3.3,0.91c-1.15,0.07-2.29-0.43-3.12-0.79c-0.24-0.1-0.45-0.19-0.63-0.26
					C52.42,26.09,52.4,26.09,52.38,26.09z"/>
			</g>
			<g>
				<g>
					<ellipse class="st6" cx="56.48" cy="53.26" rx="3.22" ry="3.18"/>
					<path class="st4" d="M56.48,56.62c-1.88,0-3.4-1.51-3.4-3.37c0-1.86,1.53-3.37,3.4-3.37s3.4,1.51,3.4,3.37
						C59.88,55.11,58.36,56.62,56.48,56.62z M56.48,50.27c-1.67,0-3.03,1.34-3.03,2.99c0,1.65,1.36,2.99,3.03,2.99
						c1.67,0,3.03-1.34,3.03-2.99C59.51,51.61,58.15,50.27,56.48,50.27z"/>
				</g>
				<g>
					<circle class="st5" cx="56.48" cy="53.26" r="2.18"/>
					<path class="st4" d="M56.48,55.63c-1.31,0-2.37-1.06-2.37-2.37s1.06-2.37,2.37-2.37c1.31,0,2.37,1.06,2.37,2.37
						S57.79,55.63,56.48,55.63z M56.48,51.26c-1.1,0-1.99,0.89-1.99,1.99c0,1.1,0.89,1.99,1.99,1.99c1.1,0,1.99-0.89,1.99-1.99
						C58.47,52.16,57.58,51.26,56.48,51.26z"/>
				</g>
			</g>
			<g>
				<circle class="st1" cx="56.32" cy="45.43" r="1.09"/>
				<path class="st4" d="M56.32,46.71c-0.7,0-1.28-0.57-1.28-1.28c0-0.7,0.57-1.28,1.28-1.28c0.7,0,1.28,0.57,1.28,1.28
					C57.6,46.14,57.03,46.71,56.32,46.71z M56.32,44.53c-0.5,0-0.9,0.41-0.9,0.9s0.41,0.9,0.9,0.9s0.9-0.41,0.9-0.9
					S56.82,44.53,56.32,44.53z"/>
			</g>
			<g>
				<path class="st4" d="M56.53,59.44c-0.06,0-0.11,0-0.17,0c-2.46-0.07-5.71-1.87-5.84-1.94c-0.09-0.05-0.12-0.16-0.07-0.25
					c0.05-0.09,0.16-0.12,0.25-0.07c0.03,0.02,3.3,1.83,5.67,1.9c2.37,0.07,5.63-1.48,5.66-1.49c0.09-0.04,0.21-0.01,0.25,0.09
					c0.04,0.09,0.01,0.21-0.09,0.25C62.06,57.97,58.97,59.44,56.53,59.44z"/>
			</g>
			<g>
				<path class="st4" d="M56.23,62.46l-5.93-2.83c-0.09-0.04-0.13-0.16-0.09-0.25c0.04-0.09,0.16-0.13,0.25-0.09l5.77,2.76
					l5.77-2.46c0.1-0.04,0.21,0,0.25,0.1c0.04,0.1,0,0.21-0.1,0.25L56.23,62.46z"/>
			</g>
			<g>
				<path class="st4" d="M56.31,64.94c-1.81,0-3.13-1.4-3.19-1.46c-0.07-0.08-0.07-0.19,0.01-0.26c0.08-0.07,0.19-0.07,0.26,0.01
					c0.01,0.01,1.36,1.43,3.09,1.33c1.73-0.1,2.68-1.31,2.69-1.32c0.06-0.08,0.18-0.1,0.26-0.03c0.08,0.06,0.1,0.18,0.04,0.26
					c-0.04,0.06-1.05,1.35-2.96,1.47C56.45,64.93,56.38,64.94,56.31,64.94z"/>
			</g>
			<g>
				<path class="st22" d="M56.47,29.88l3.8,0.02c0,0-0.5,1.2-1.91,1.17C56.95,31.04,56.47,29.88,56.47,29.88z"/>
				<path class="st4" d="M58.41,31.26c-0.02,0-0.04,0-0.06,0c-1.52-0.03-2.04-1.26-2.06-1.31l-0.11-0.26l4.36,0.03l-0.11,0.26
					C60.44,29.99,59.9,31.26,58.41,31.26z M56.8,30.07c0.22,0.31,0.7,0.8,1.57,0.82c0.88,0.02,1.37-0.48,1.59-0.8L56.8,30.07z"/>
			</g>
			<g>
				<path class="st22" d="M56.13,29.26c0,0,2.3,3.23,1.46,3.64c-0.83,0.41-1.46-0.16-1.46-0.16"/>
				<path class="st4" d="M56.99,33.23c-0.57,0-0.96-0.34-0.98-0.36c-0.08-0.07-0.08-0.19-0.01-0.26s0.19-0.08,0.26-0.01
					c0.02,0.02,0.55,0.48,1.26,0.13c0.02-0.01,0.05-0.03,0.07-0.09c0.14-0.55-0.91-2.29-1.6-3.27c-0.06-0.08-0.04-0.2,0.04-0.26
					c0.08-0.06,0.2-0.04,0.26,0.04c0.19,0.27,1.88,2.68,1.66,3.58c-0.04,0.15-0.13,0.27-0.26,0.34
					C57.43,33.19,57.2,33.23,56.99,33.23z"/>
			</g>
			<g>
				<path class="st22" d="M51.95,29.88l3.8,0.02c0,0-0.5,1.2-1.91,1.17C52.43,31.04,51.95,29.88,51.95,29.88z"/>
				<path class="st4" d="M53.89,31.26c-0.02,0-0.04,0-0.06,0c-1.52-0.03-2.04-1.26-2.06-1.31l-0.11-0.26l4.36,0.03l-0.11,0.26
					C55.92,29.99,55.38,31.26,53.89,31.26z M52.28,30.07c0.22,0.31,0.7,0.8,1.57,0.82c0.88,0.02,1.37-0.48,1.59-0.8L52.28,30.07z"/>
			</g>
			<g>
				<path class="st4" d="M59.7,56.07c-0.05,0-0.1-0.02-0.14-0.06c-0.07-0.08-0.06-0.2,0.02-0.26c0.01-0.01,0.84-0.76,0.76-2.48
					c-0.08-1.74-0.77-2.53-0.78-2.54c-0.07-0.08-0.06-0.19,0.01-0.26c0.08-0.07,0.19-0.06,0.26,0.01c0.03,0.04,0.79,0.89,0.88,2.77
					c0.08,1.91-0.85,2.74-0.89,2.78C59.78,56.06,59.74,56.07,59.7,56.07z"/>
			</g>
			<g>
				<path class="st4" d="M54,56.62c-0.03,0-0.05-0.01-0.08-0.02c-2.15-1.02-1.7-3.83-1.69-3.85c0.02-0.1,0.12-0.17,0.22-0.15
					c0.1,0.02,0.17,0.11,0.15,0.22c0,0.01-0.11,0.66,0.03,1.41c0.18,0.98,0.67,1.67,1.46,2.04c0.09,0.04,0.13,0.16,0.09,0.25
					C54.13,56.58,54.07,56.62,54,56.62z"/>
			</g>
			<g>
				<path class="st5" d="M56.66,58.44c-0.06,0-0.12,0-0.18,0c-2.46-0.07-5.49-1.75-5.62-1.82c-0.09-0.05-0.12-0.16-0.07-0.25
					c0.05-0.09,0.16-0.12,0.26-0.07c0.03,0.02,3.08,1.71,5.45,1.78c2.38,0.07,5.17-1.41,5.19-1.43c0.09-0.05,0.2-0.01,0.25,0.08
					c0.05,0.09,0.01,0.2-0.08,0.25C61.74,57.03,59.08,58.44,56.66,58.44z"/>
			</g>
			<g>
				<path class="st5" d="M56.58,60.32c-0.06,0-0.12,0-0.18,0c-2.46-0.07-5.74-1.75-5.88-1.82c-0.09-0.05-0.13-0.16-0.08-0.25
					c0.05-0.09,0.16-0.13,0.25-0.08c0.03,0.02,3.34,1.71,5.72,1.78c2.38,0.07,5.58-1.42,5.62-1.44c0.09-0.04,0.21,0,0.25,0.09
					c0.04,0.09,0,0.21-0.09,0.25C62.06,58.91,59.02,60.32,56.58,60.32z"/>
			</g>
			<g>
				<path class="st1" d="M58.77,43.91c0,0,2.77,0.57,3.94,2.05c1.17,1.48,8.27,20.77,8.27,20.77c0.7,1.89-3.9,3.65-4.24,1.3
					c0.01,0.04,1.83,12.49,1.83,12.49c0.13,0.89-0.34,1.75-1.16,2.12c-1.62,0.73-4.33,1.54-6.13-0.03c0,0-0.13-12.19-0.55-23.38
					S58.77,43.91,58.77,43.91z"/>
				<path class="st4" d="M63.89,83.69c-0.97,0-1.93-0.25-2.73-0.94l-0.06-0.06l0-0.08c0-0.12-0.13-12.32-0.55-23.37
					c-0.42-11.01-1.93-15.22-1.95-15.26l-0.12-0.32l0.33,0.07c0.12,0.02,2.85,0.61,4.05,2.12c1.14,1.44,7.56,18.83,8.29,20.81
					c0.2,0.55,0.04,1.12-0.44,1.63c-0.78,0.82-2.23,1.26-3.16,0.97c-0.18-0.06-0.34-0.14-0.48-0.25c0.44,2.96,1.69,11.49,1.69,11.49
					c0.14,0.96-0.38,1.91-1.27,2.31C66.59,83.21,65.24,83.69,63.89,83.69z M61.47,82.52c1.75,1.46,4.42,0.6,5.86-0.05
					c0.74-0.33,1.17-1.12,1.05-1.92c0,0-1.83-12.45-1.83-12.49l0.37-0.05c0.07,0.46,0.32,0.76,0.74,0.89
					c0.8,0.25,2.09-0.15,2.78-0.87c0.27-0.28,0.55-0.72,0.36-1.23l0-0.01C70.51,66,63.69,47.5,62.56,46.08
					c-0.88-1.12-2.76-1.71-3.51-1.91c0.36,1.18,1.51,5.66,1.87,15.05C61.32,69.8,61.46,81.41,61.47,82.52z"/>
			</g>
			<g>
				<path class="st1" d="M66.74,68.03c0,0-3.1-14.33-3.19-15.25"/>
				<path class="st4" d="M66.74,68.22c-0.09,0-0.16-0.06-0.18-0.15c-0.13-0.59-3.11-14.36-3.19-15.27c-0.01-0.1,0.07-0.19,0.17-0.2
					c0.1-0.01,0.19,0.07,0.2,0.17c0.08,0.89,3.15,15.08,3.18,15.23c0.02,0.1-0.04,0.2-0.14,0.22
					C66.76,68.22,66.75,68.22,66.74,68.22z"/>
			</g>
			<g>
				<polyline class="st1" points="59.79,45.06 63.87,52.82 61.63,54.86 63.72,58.56 61.93,65.81 				"/>
				<path class="st4" d="M61.93,66c-0.01,0-0.03,0-0.05-0.01c-0.1-0.02-0.16-0.13-0.14-0.23l1.77-7.18l-2.13-3.77l2.25-2.04
					l-4.01-7.64c-0.05-0.09-0.01-0.2,0.08-0.25c0.09-0.05,0.2-0.01,0.25,0.08l4.15,7.89l-2.24,2.03l2.06,3.64l-1.81,7.33
					C62.09,65.94,62.02,66,61.93,66z"/>
			</g>
			<g>
				<path class="st1" d="M53.26,44.24c0-0.07-0.06-0.12-0.12-0.1c-0.54,0.15-2.7,0.8-3.85,1.97c-1.21,1.23-3.92,11.35-4.38,13.09
					c-0.02,0.09-0.14,0.1-0.18,0.02l-4.07-8.12c-0.01-0.03-0.04-0.05-0.07-0.06c-0.48-0.23-1.85-1.97-3.86,0.83
					c-0.05,0.06-0.05,0.18-0.01,0.24c0.57,0.98,4.42,7.57,6.6,11.32c0.67,1.15,2.34,1.13,2.98-0.03l1.6-2.88
					c0.1-0.18,0.38-0.08,0.33,0.13l-4.21,19.61c-0.25,1.15,0.38,2.31,1.48,2.71c1.71,0.62,3.72,1.23,6.21-0.36
					c0.03-0.02,0.13-0.16,0.13-0.19L53.26,44.24z"/>
				<path class="st4" d="M48.5,83.8c-1.09,0-2.1-0.31-3.07-0.66c-1.18-0.43-1.87-1.68-1.6-2.92l4.21-19.61l-1.58,2.88
					c-0.34,0.61-0.95,0.97-1.64,0.98c-0.01,0-0.01,0-0.02,0c-0.68,0-1.3-0.35-1.64-0.94l-6.6-11.32c-0.08-0.13-0.07-0.32,0.02-0.45
					c0.7-0.97,1.41-1.52,2.11-1.63c0.79-0.12,1.39,0.32,1.74,0.58c0.1,0.07,0.18,0.13,0.24,0.16c0.07,0.03,0.12,0.08,0.15,0.15
					l3.96,7.91c0.64-2.41,3.18-11.74,4.37-12.95c1.17-1.19,3.31-1.84,3.94-2.02c0.09-0.02,0.18-0.01,0.25,0.05
					c0.07,0.06,0.11,0.14,0.11,0.23v0l-1.43,38.18c0,0.12-0.16,0.31-0.22,0.34C50.61,83.53,49.52,83.8,48.5,83.8z M48.04,60.24
					c0.04,0,0.09,0.01,0.13,0.02c0.17,0.07,0.27,0.24,0.23,0.42l-4.21,19.61c-0.23,1.06,0.36,2.13,1.36,2.49
					c1.85,0.67,3.71,1.15,6.03-0.33c0.02-0.02,0.04-0.06,0.06-0.08l1.42-38.02c-0.62,0.18-2.6,0.81-3.65,1.89
					c-0.91,0.92-2.9,7.58-4.34,13.01c-0.03,0.12-0.13,0.2-0.25,0.21c-0.12,0.01-0.23-0.05-0.29-0.16l-4.06-8.1
					c-0.08-0.04-0.17-0.11-0.29-0.19c-0.33-0.24-0.83-0.61-1.46-0.51c-0.6,0.09-1.23,0.59-1.87,1.48c0,0.01,0,0.03,0,0.04l6.6,11.32
					c0.28,0.48,0.77,0.76,1.32,0.76c0.01,0,0.01,0,0.02,0c0.56-0.01,1.05-0.3,1.32-0.79l1.6-2.88
					C47.79,60.31,47.91,60.24,48.04,60.24z M51.65,82.41C51.65,82.41,51.65,82.41,51.65,82.41L51.65,82.41z M53.26,44.24
					L53.26,44.24L53.26,44.24z"/>
			</g>
			<g>
				<line class="st1" x1="48.2" y1="60.79" x2="50.39" y2="49.07"/>
				<path class="st4" d="M48.2,60.98c-0.01,0-0.02,0-0.03,0c-0.1-0.02-0.17-0.12-0.15-0.22l2.19-11.72c0.02-0.1,0.12-0.17,0.22-0.15
					c0.1,0.02,0.17,0.12,0.15,0.22l-2.19,11.72C48.37,60.92,48.29,60.98,48.2,60.98z"/>
			</g>
			<g>
				<polyline class="st1" points="52.5,45.51 48.42,53.27 50.66,55.3 48.57,59.01 51.48,66.74 				"/>
				<path class="st4" d="M51.48,66.92c-0.08,0-0.15-0.05-0.18-0.12l-2.95-7.81l2.06-3.65l-2.24-2.03l4.15-7.89
					c0.05-0.09,0.16-0.13,0.25-0.08c0.09,0.05,0.13,0.16,0.08,0.25l-4.01,7.64l2.25,2.04l-2.12,3.76l2.88,7.65
					c0.04,0.1-0.01,0.2-0.11,0.24C51.53,66.92,51.51,66.92,51.48,66.92z"/>
			</g>
			<g>
				<path class="st22" d="M67.71,67.68l1.57,3.05l1.92-0.79l-1.33-3.2C69.86,66.74,68.29,66.22,67.71,67.68z"/>
				<path class="st4" d="M69.19,70.97l-1.69-3.28l0.03-0.08c0.51-1.28,1.79-1.25,2.39-1.05L70,66.59l1.44,3.45L69.19,70.97z
					 M67.91,67.67l1.45,2.82l1.58-0.65l-1.23-2.94C69.43,66.82,68.38,66.64,67.91,67.67z"/>
			</g>
			<g>
				<path class="st5" d="M69.45,71.72c-0.07,0-0.14-0.04-0.17-0.12c-0.04-0.1,0.01-0.21,0.1-0.24l2.29-0.95
					c0.1-0.04,0.21,0.01,0.24,0.1c0.04,0.1-0.01,0.21-0.1,0.24l-2.29,0.95C69.5,71.72,69.48,71.72,69.45,71.72z"/>
			</g>
			<g>
				<g>
					<path class="st22" d="M73.1,79L73.1,79c0.28-0.35,0.23-0.87-0.12-1.15l-2.73-2.23c-0.35-0.28-0.87-0.23-1.15,0.12v0
						c-0.28,0.35-0.23,0.87,0.12,1.15l2.73,2.23C72.3,79.4,72.81,79.35,73.1,79z"/>
					<path class="st4" d="M72.46,79.49c-0.22,0-0.45-0.07-0.64-0.23l-2.73-2.23c-0.43-0.35-0.49-0.99-0.14-1.42
						c0.35-0.43,0.99-0.49,1.42-0.14l2.73,2.23c0.21,0.17,0.34,0.41,0.36,0.68c0.03,0.27-0.05,0.53-0.22,0.74l0,0
						C73.05,79.36,72.76,79.49,72.46,79.49z M69.74,75.62c-0.18,0-0.36,0.08-0.49,0.23c-0.22,0.27-0.18,0.67,0.09,0.89l2.73,2.23
						c0.27,0.22,0.67,0.18,0.89-0.09c0.11-0.13,0.16-0.29,0.14-0.46c-0.02-0.17-0.1-0.32-0.23-0.43l-2.73-2.23
						C70.02,75.67,69.88,75.62,69.74,75.62z M73.1,79L73.1,79L73.1,79z"/>
				</g>
				<g>
					<path class="st22" d="M69.51,77L69.51,77c-0.42-0.12-0.68-0.56-0.56-0.98l0.98-3.59c0.12-0.42,0.56-0.68,0.98-0.56h0
						c0.42,0.12,0.68,0.56,0.56,0.98l-0.98,3.59C70.38,76.86,69.93,77.12,69.51,77z"/>
					<path class="st4" d="M69.72,77.22c-0.09,0-0.17-0.01-0.26-0.04l0,0c-0.52-0.14-0.83-0.69-0.69-1.21l0.98-3.59
						c0.14-0.52,0.69-0.83,1.21-0.69c0.52,0.14,0.83,0.69,0.69,1.21l-0.98,3.59C70.55,76.93,70.15,77.22,69.72,77.22z M69.56,76.82
						c0.32,0.09,0.66-0.1,0.75-0.43l0.98-3.59c0.09-0.33-0.1-0.66-0.43-0.75c-0.32-0.09-0.66,0.1-0.75,0.43l-0.98,3.59
						C69.04,76.39,69.23,76.73,69.56,76.82L69.56,76.82z"/>
				</g>
			</g>
			<g>
				<g>
					<path class="st22" d="M75.06,76.95L75.06,76.95c-0.45-0.06-0.76-0.47-0.7-0.92l0.37-2.73c0.06-0.45,0.47-0.76,0.92-0.7l0,0
						c0.45,0.06,0.76,0.47,0.7,0.92l-0.37,2.73C75.92,76.7,75.51,77.01,75.06,76.95z"/>
					<path class="st4" d="M75.18,77.15c-0.05,0-0.09,0-0.14-0.01c-0.27-0.04-0.5-0.17-0.66-0.39c-0.16-0.21-0.23-0.48-0.2-0.74
						l0.37-2.73c0.07-0.55,0.58-0.94,1.13-0.86c0.27,0.04,0.5,0.17,0.66,0.39c0.16,0.21,0.23,0.48,0.2,0.74l-0.37,2.73
						c-0.04,0.27-0.17,0.5-0.39,0.66C75.61,77.08,75.39,77.15,75.18,77.15z M75.54,72.78c-0.31,0-0.58,0.23-0.63,0.55l-0.37,2.73
						c-0.02,0.17,0.02,0.33,0.12,0.47c0.1,0.13,0.25,0.22,0.42,0.24c0.17,0.02,0.33-0.02,0.47-0.12c0.13-0.1,0.22-0.25,0.24-0.42
						l0.37-2.73c0.02-0.17-0.02-0.33-0.12-0.47c-0.1-0.13-0.25-0.22-0.42-0.24C75.6,72.78,75.57,72.78,75.54,72.78z"/>
				</g>
				<g>
					<path class="st22" d="M76.28,73.72L76.28,73.72c-0.18,0.4-0.65,0.58-1.05,0.41l-3.4-1.51c-0.4-0.18-0.58-0.65-0.41-1.05v0
						c0.18-0.4,0.65-0.58,1.05-0.41l3.4,1.51C76.28,72.84,76.46,73.31,76.28,73.72z"/>
					<path class="st4" d="M75.55,74.38c-0.14,0-0.27-0.03-0.4-0.08l-3.4-1.51c-0.24-0.11-0.42-0.3-0.52-0.55
						c-0.1-0.25-0.09-0.51,0.02-0.75c0.22-0.5,0.8-0.72,1.3-0.5l3.4,1.51c0.5,0.22,0.72,0.8,0.5,1.3c-0.11,0.24-0.3,0.42-0.55,0.52
						C75.79,74.36,75.67,74.38,75.55,74.38z M72.15,71.27c-0.07,0-0.15,0.01-0.22,0.04c-0.15,0.06-0.27,0.17-0.34,0.32
						c-0.14,0.31,0,0.67,0.31,0.81l3.4,1.51c0.15,0.07,0.31,0.07,0.47,0.01c0.15-0.06,0.27-0.17,0.34-0.32
						c0.07-0.15,0.07-0.31,0.01-0.47c-0.06-0.15-0.17-0.27-0.32-0.34l-3.4-1.51C72.32,71.29,72.24,71.27,72.15,71.27z"/>
				</g>
			</g>
			<g>
				<line class="st22" x1="68.68" y1="69.56" x2="70.6" y2="68.77"/>
				<path class="st4" d="M68.68,69.74c-0.07,0-0.14-0.04-0.17-0.12c-0.04-0.1,0.01-0.21,0.1-0.24l1.92-0.78
					c0.1-0.04,0.21,0.01,0.24,0.1c0.04,0.1-0.01,0.21-0.1,0.24l-1.92,0.78C68.72,69.74,68.7,69.74,68.68,69.74z"/>
			</g>
			<g>
				<line class="st22" x1="68.23" y1="68.69" x2="70.31" y2="67.79"/>
				<path class="st4" d="M68.23,68.87c-0.07,0-0.14-0.04-0.17-0.11c-0.04-0.1,0-0.21,0.1-0.25l2.08-0.89c0.1-0.04,0.21,0,0.25,0.1
					c0.04,0.1,0,0.21-0.1,0.25l-2.08,0.89C68.28,68.87,68.25,68.87,68.23,68.87z"/>
			</g>
			<g>
				<path class="st22" d="M38.4,53.61l-1.61-3.03l1.74-1.12l1.87,2.92C40.4,52.37,39.93,53.96,38.4,53.61z"/>
				<path class="st4" d="M38.82,53.84c-0.15,0-0.3-0.02-0.47-0.06l-0.08-0.02l-1.73-3.26l2.05-1.32l2.01,3.15l-0.02,0.08
					C40.42,52.96,39.86,53.84,38.82,53.84z M38.52,53.44c1.11,0.21,1.56-0.76,1.67-1.05l-1.72-2.68l-1.44,0.93L38.52,53.44z"/>
			</g>
			<g>
				<path class="st5" d="M36.23,50.16c-0.06,0-0.12-0.03-0.16-0.09c-0.06-0.09-0.03-0.2,0.06-0.26l2.09-1.34
					c0.09-0.06,0.2-0.03,0.26,0.06c0.06,0.09,0.03,0.2-0.06,0.26l-2.09,1.34C36.3,50.15,36.26,50.16,36.23,50.16z"/>
			</g>
			<g>
				<g>
					<path class="st22" d="M32.17,42.72L32.17,42.72c0.45-0.04,0.84,0.3,0.88,0.75l0.28,3.51c0.04,0.45-0.3,0.84-0.75,0.88l0,0
						c-0.45,0.04-0.84-0.3-0.88-0.75l-0.28-3.51C31.39,43.15,31.73,42.75,32.17,42.72z"/>
					<path class="st4" d="M32.51,48.05c-0.24,0-0.47-0.08-0.65-0.24c-0.2-0.18-0.33-0.42-0.35-0.69l-0.28-3.51
						c-0.04-0.55,0.37-1.04,0.92-1.08c0.27-0.02,0.53,0.06,0.73,0.24c0.2,0.17,0.33,0.42,0.35,0.69l0.28,3.51
						c0.04,0.55-0.37,1.04-0.92,1.08C32.57,48.05,32.54,48.05,32.51,48.05z M32.24,42.9c-0.02,0-0.03,0-0.05,0
						c-0.35,0.03-0.61,0.33-0.58,0.68l0.28,3.51c0.01,0.17,0.09,0.32,0.22,0.43c0.13,0.11,0.29,0.16,0.46,0.15
						c0.35-0.03,0.61-0.33,0.58-0.68l-0.28-3.51c-0.01-0.17-0.09-0.32-0.22-0.43C32.53,42.96,32.39,42.9,32.24,42.9z"/>
				</g>
				<g>
					<path class="st22" d="M31.77,46.81L31.77,46.81c-0.15,0.41,0.07,0.87,0.49,1.02l3.5,1.24c0.41,0.15,0.87-0.07,1.02-0.49v0
						c0.15-0.41-0.07-0.87-0.49-1.02l-3.5-1.24C32.37,46.17,31.92,46.39,31.77,46.81z"/>
					<path class="st4" d="M36.03,49.3c-0.11,0-0.22-0.02-0.33-0.06L32.19,48c-0.51-0.18-0.78-0.75-0.6-1.26l0,0
						c0.09-0.25,0.27-0.45,0.51-0.56c0.24-0.11,0.51-0.13,0.75-0.04l3.51,1.24c0.25,0.09,0.45,0.27,0.56,0.51s0.13,0.51,0.04,0.75
						c-0.09,0.25-0.27,0.45-0.51,0.56C36.32,49.27,36.17,49.3,36.03,49.3z M32.52,46.46c-0.09,0-0.18,0.02-0.26,0.06
						c-0.15,0.07-0.26,0.19-0.31,0.35v0c-0.11,0.32,0.05,0.67,0.37,0.78l3.51,1.24c0.15,0.05,0.32,0.05,0.47-0.03
						c0.15-0.07,0.26-0.19,0.31-0.35c0.05-0.15,0.05-0.32-0.03-0.47c-0.07-0.15-0.19-0.26-0.35-0.31l-3.51-1.24
						C32.66,46.47,32.59,46.46,32.52,46.46z M31.77,46.81L31.77,46.81L31.77,46.81z"/>
				</g>
			</g>
			<g>
				<g>
					<path class="st22" d="M34.98,42.27L34.98,42.27c-0.21,0.4-0.04,0.9,0.36,1.1l2.46,1.26c0.4,0.21,0.9,0.04,1.1-0.36v0
						c0.21-0.4,0.04-0.9-0.36-1.1l-2.46-1.26C35.68,41.71,35.18,41.87,34.98,42.27z"/>
					<path class="st4" d="M38.16,44.91c-0.15,0-0.31-0.04-0.46-0.11l-2.46-1.26c-0.24-0.12-0.42-0.33-0.5-0.59
						c-0.08-0.26-0.06-0.53,0.06-0.77l0,0c0.12-0.24,0.33-0.42,0.59-0.5c0.26-0.08,0.53-0.06,0.77,0.06L38.62,43
						c0.49,0.25,0.69,0.86,0.44,1.35C38.88,44.71,38.52,44.91,38.16,44.91z M35.71,42.01c-0.07,0-0.13,0.01-0.2,0.03
						c-0.16,0.05-0.29,0.16-0.37,0.31v0c-0.08,0.15-0.09,0.32-0.04,0.48c0.05,0.16,0.16,0.29,0.31,0.37l2.46,1.26
						c0.31,0.16,0.69,0.04,0.85-0.27c0.16-0.31,0.04-0.69-0.27-0.85l-2.46-1.26C35.9,42.04,35.8,42.01,35.71,42.01z M34.98,42.27
						L34.98,42.27L34.98,42.27z"/>
				</g>
				<g>
					<path class="st22" d="M38.33,43.12L38.33,43.12c-0.43-0.08-0.85,0.2-0.94,0.63l-0.7,3.65c-0.08,0.43,0.2,0.85,0.63,0.94l0,0
						c0.43,0.08,0.85-0.2,0.94-0.63l0.7-3.65C39.04,43.62,38.76,43.2,38.33,43.12z"/>
					<path class="st4" d="M37.48,48.54c-0.06,0-0.12-0.01-0.19-0.02c-0.26-0.05-0.48-0.2-0.63-0.42c-0.15-0.22-0.2-0.48-0.15-0.74
						l0.7-3.65c0.05-0.26,0.2-0.48,0.42-0.63c0.22-0.15,0.48-0.2,0.74-0.15h0c0.53,0.1,0.88,0.62,0.78,1.15l-0.7,3.65
						C38.35,48.21,37.94,48.54,37.48,48.54z M38.18,43.29c-0.12,0-0.24,0.04-0.34,0.11c-0.14,0.09-0.23,0.23-0.26,0.39l-0.7,3.65
						c-0.03,0.16,0,0.32,0.1,0.46c0.09,0.14,0.23,0.23,0.39,0.26c0.33,0.06,0.65-0.15,0.72-0.49l0.7-3.65
						c0.06-0.33-0.15-0.65-0.49-0.72C38.25,43.29,38.22,43.29,38.18,43.29z"/>
				</g>
			</g>
			<g>
				<line class="st22" x1="37.41" y1="51.74" x2="39.15" y2="50.61"/>
				<path class="st4" d="M37.41,51.92c-0.06,0-0.12-0.03-0.16-0.09c-0.06-0.09-0.03-0.2,0.05-0.26l1.74-1.13
					c0.09-0.06,0.2-0.03,0.26,0.05c0.06,0.09,0.03,0.2-0.05,0.26l-1.74,1.13C37.48,51.91,37.44,51.92,37.41,51.92z"/>
			</g>
			<g>
				<line class="st22" x1="37.87" y1="52.6" x2="39.78" y2="51.4"/>
				<path class="st4" d="M37.87,52.79c-0.06,0-0.12-0.03-0.16-0.09c-0.05-0.09-0.03-0.2,0.06-0.26l1.92-1.2
					c0.09-0.05,0.2-0.03,0.26,0.06c0.05,0.09,0.03,0.2-0.06,0.26l-1.92,1.2C37.93,52.78,37.9,52.79,37.87,52.79z"/>
			</g>
			<g>
				<circle class="st9" cx="38.17" cy="43.92" r="0.76"/>
				<path class="st4" d="M38.17,44.87c-0.19,0-0.38-0.06-0.54-0.17c-0.43-0.3-0.54-0.89-0.24-1.32c0.14-0.21,0.36-0.35,0.61-0.39
					c0.25-0.04,0.5,0.01,0.71,0.15v0c0.43,0.3,0.54,0.89,0.24,1.32c-0.14,0.21-0.36,0.35-0.61,0.39
					C38.29,44.86,38.23,44.87,38.17,44.87z M38.18,43.34c-0.03,0-0.07,0-0.1,0.01c-0.15,0.03-0.28,0.11-0.37,0.24
					c-0.18,0.26-0.12,0.62,0.14,0.8c0.13,0.09,0.28,0.12,0.43,0.09c0.15-0.03,0.28-0.11,0.37-0.24c0.18-0.26,0.12-0.62-0.14-0.8
					C38.41,43.38,38.29,43.34,38.18,43.34z"/>
			</g>
			<g>
				<circle class="st9" cx="32.52" cy="47.07" r="0.75"/>
				<path class="st4" d="M32.51,48.01c-0.19,0-0.37-0.05-0.54-0.17c-0.21-0.14-0.34-0.36-0.39-0.61c-0.04-0.25,0.01-0.5,0.15-0.7
					c0.3-0.43,0.88-0.53,1.31-0.24v0c0.43,0.3,0.53,0.88,0.24,1.31C33.11,47.87,32.81,48.01,32.51,48.01z M32.52,46.5
					c-0.18,0-0.36,0.08-0.47,0.24c-0.09,0.12-0.12,0.27-0.09,0.42c0.03,0.15,0.11,0.28,0.23,0.36c0.26,0.18,0.61,0.11,0.79-0.14
					c0.18-0.26,0.11-0.61-0.14-0.79C32.74,46.54,32.63,46.5,32.52,46.5z"/>
			</g>
			<g>
				<circle class="st1" cx="53.33" cy="81.83" r="1.61"/>
				<path class="st4" d="M53.33,83.63c-0.99,0-1.8-0.81-1.8-1.8c0-0.99,0.81-1.8,1.8-1.8c0.99,0,1.8,0.81,1.8,1.8
					C55.13,82.82,54.32,83.63,53.33,83.63z M53.33,80.4c-0.79,0-1.42,0.64-1.42,1.42c0,0.79,0.64,1.42,1.42,1.42
					s1.42-0.64,1.42-1.42C54.76,81.04,54.12,80.4,53.33,80.4z"/>
			</g>
			<g>
				<circle class="st9" cx="69.72" cy="76.24" r="0.74"/>
				<path class="st4" d="M69.72,77.16c-0.1,0-0.19-0.02-0.29-0.05c-0.24-0.08-0.43-0.24-0.54-0.46c-0.11-0.22-0.13-0.47-0.06-0.71
					c0.08-0.24,0.24-0.43,0.46-0.54c0.22-0.11,0.47-0.13,0.71-0.06c0.24,0.08,0.43,0.24,0.54,0.46c0.11,0.22,0.13,0.47,0.06,0.71
					c-0.08,0.24-0.24,0.43-0.46,0.54C70.01,77.13,69.86,77.16,69.72,77.16z M69.72,75.68c-0.09,0-0.17,0.02-0.25,0.06
					c-0.13,0.07-0.23,0.18-0.28,0.32c-0.05,0.14-0.03,0.29,0.03,0.42c0.07,0.13,0.18,0.23,0.32,0.28c0.14,0.05,0.29,0.03,0.42-0.03
					c0.27-0.14,0.38-0.47,0.24-0.75c-0.07-0.13-0.18-0.23-0.32-0.28C69.83,75.69,69.78,75.68,69.72,75.68z"/>
			</g>
		</g>
		<g>
			<circle class="st9" cx="75.54" cy="73.39" r="0.74"/>
			<path class="st4" d="M75.54,74.32c-0.24,0-0.48-0.09-0.66-0.27c-0.36-0.36-0.36-0.95,0-1.31c0.36-0.36,0.95-0.36,1.31,0
				c0.36,0.36,0.36,0.95,0,1.31C76.01,74.22,75.78,74.32,75.54,74.32z M75.54,72.83c-0.14,0-0.28,0.05-0.39,0.16
				c-0.22,0.22-0.22,0.57,0,0.78c0.22,0.22,0.57,0.22,0.78,0c0.22-0.22,0.22-0.57,0-0.78C75.82,72.89,75.68,72.83,75.54,72.83z"/>
		</g>
	</g>
	<g>
		<path class="st22" d="M58.79,91.14h2.43c0.65,0,1.18-0.53,1.18-1.18v0h-3.6V91.14z"/>
		<path class="st4" d="M61.22,91.28h-2.57v-1.47h3.89v0.14C62.54,90.69,61.94,91.28,61.22,91.28z M58.93,91h2.28
			c0.52,0,0.96-0.39,1.02-0.89h-3.31V91z"/>
	</g>
	<g>
		<path class="st22" d="M53.98,91.14h-2.43c-0.65,0-1.18-0.53-1.18-1.18v0h3.6V91.14z"/>
		<path class="st4" d="M54.12,91.28h-2.57c-0.73,0-1.32-0.59-1.32-1.32v-0.14l0.14,0h3.75V91.28z M50.53,90.1
			c0.07,0.5,0.5,0.89,1.02,0.89h2.28V90.1H50.53z"/>
	</g>
</g>
</svg>
