<?xml version="1.0" encoding="utf-8"?>
<!-- Generator: Adobe Illustrator 23.0.4, SVG Export Plug-In . SVG Version: 6.00 Build 0)  -->
<svg version="1.1" id="Layer_1" xmlns="http://www.w3.org/2000/svg" xmlns:xlink="http://www.w3.org/1999/xlink" x="0px" y="0px"
	 viewBox="0 0 110.88 110.88" style="enable-background:new 0 0 110.88 110.88;" xml:space="preserve">
<style type="text/css">
	.st0{fill:#F9006C;}
	.st1{fill:#FFFFFF;}
	.st2{fill:#C6C6C6;}
	.st3{fill:#14A563;}
	.st4{fill:#15003E;}
	.st5{fill:#25E899;}
	.st6{fill:#0FCE7C;}
	.st7{fill:#CE0264;}
	.st8{fill:#AD055E;}
	.st9{fill:#FFCE08;}
	.st10{fill:#575560;}
	.st11{clip-path:url(#SVGID_2_);}
	.st12{fill:#8E2ABE;}
	.st13{fill:#D6AF0D;}
	.st14{fill:#FFFFFF;stroke:#15003E;stroke-width:0.3955;stroke-linecap:round;stroke-miterlimit:10;}
	.st15{fill:#1D035B;}
	.st16{fill:#D6D6D6;stroke:#15003E;stroke-width:0.4623;stroke-linecap:round;stroke-miterlimit:10;}
	.st17{fill:none;stroke:#25E899;stroke-width:0.5216;stroke-linecap:round;stroke-miterlimit:10;}
	.st18{fill:#AAAAAA;}
	.st19{fill:#6D5415;stroke:#15003E;stroke-width:0.4623;stroke-linecap:round;stroke-miterlimit:10;}
	.st20{fill:none;stroke:#15003E;stroke-width:0.6253;stroke-linecap:round;stroke-miterlimit:10;}
	.st21{fill:#FFFFFF;stroke:#15003E;stroke-width:0.4623;stroke-linecap:round;stroke-miterlimit:10;}
	.st22{fill:#D6D6D6;}
	.st23{fill:#B2B2B2;}
	.st24{fill:#565656;}
	.st25{fill:none;stroke:#15003E;stroke-width:0.4623;stroke-linecap:round;stroke-miterlimit:10;}
	.st26{fill:#0FCE7C;stroke:#15003E;stroke-width:0.4623;stroke-linecap:round;stroke-miterlimit:10;}
	.st27{fill:#FFCE08;stroke:#15003E;stroke-width:0.4623;stroke-linecap:round;stroke-miterlimit:10;}
	.st28{fill:#AAAAAA;stroke:#15003E;stroke-width:0.4623;stroke-miterlimit:10;}
	.st29{fill:#25E899;stroke:#15003E;stroke-width:0.4623;stroke-linecap:round;stroke-miterlimit:10;}
	.st30{fill:#FFCE08;stroke:#15003E;stroke-width:0.3571;stroke-linecap:round;stroke-miterlimit:10;}
	.st31{fill:#CEA73C;}
	.st32{fill:#FF1515;}
</style>
<polygon class="st2" points="8.21,28.07 8.21,82.81 55.61,110.17 103.01,82.81 103.01,28.07 55.61,0.71 "/>
<polygon class="st3" points="16.96,33.12 16.96,77.76 55.61,100.07 94.26,77.76 94.26,33.12 55.61,10.81 "/>
<path class="st4" d="M64.26,99.9l1.62-0.93l0.07,0.13c0.17,0.29,0.29,0.58,0.35,0.84c0.05,0.25,0.05,0.51,0,0.79
	c-0.13,0.62-0.47,1.09-1.03,1.41c-0.55,0.32-1.13,0.39-1.75,0.22c-0.62-0.17-1.09-0.54-1.41-1.09c-0.33-0.57-0.41-1.17-0.24-1.79
	c0.17-0.63,0.54-1.1,1.11-1.43c0.31-0.18,0.63-0.28,0.97-0.31c0.33-0.02,0.69,0.04,1.1,0.18l-0.19,0.65
	c-0.57-0.24-1.08-0.23-1.55,0.03c-0.41,0.24-0.68,0.58-0.8,1.03c-0.12,0.44-0.06,0.88,0.19,1.3c0.25,0.44,0.62,0.71,1.09,0.81
	c0.44,0.09,0.84,0.04,1.18-0.15c0.29-0.17,0.5-0.42,0.61-0.75c0.12-0.33,0.11-0.64-0.02-0.93l-0.98,0.56L64.26,99.9z"/>
<path class="st4" d="M67.54,95.51l2.26,3.92l-0.59,0.34l-2.26-3.92L67.54,95.51z"/>
<path class="st4" d="M71.28,94.09l1.94,3.36l-0.59,0.34l-1.94-3.36l-0.9,0.52l-0.32-0.56l2.39-1.38l0.32,0.56L71.28,94.09z"/>
<path class="st4" d="M76.67,90.53l0.4,0.7c-0.51-0.09-0.94-0.03-1.31,0.18c-0.4,0.23-0.66,0.57-0.77,1.02
	c-0.11,0.45-0.05,0.88,0.19,1.3c0.24,0.41,0.58,0.68,1.02,0.8s0.86,0.07,1.26-0.16c0.21-0.12,0.37-0.26,0.47-0.41
	c0.06-0.08,0.12-0.17,0.17-0.28s0.11-0.23,0.16-0.37l0.41,0.71c-0.23,0.39-0.53,0.69-0.9,0.9c-0.56,0.32-1.15,0.4-1.77,0.24
	c-0.62-0.17-1.09-0.53-1.41-1.09c-0.29-0.5-0.38-1.04-0.27-1.62c0.13-0.71,0.52-1.26,1.16-1.63C75.84,90.63,76.23,90.53,76.67,90.53
	z"/>
<path class="st5" d="M79.24,90.5c-0.32-0.55-0.39-1.14-0.21-1.77c0.17-0.63,0.54-1.1,1.11-1.43c0.56-0.32,1.15-0.4,1.78-0.23
	c0.63,0.17,1.11,0.53,1.43,1.09c0.32,0.56,0.4,1.16,0.22,1.78c-0.18,0.63-0.55,1.11-1.12,1.44c-0.51,0.29-1.06,0.38-1.67,0.26
	C80.12,91.5,79.6,91.12,79.24,90.5z M79.84,90.16c0.25,0.43,0.6,0.71,1.05,0.82c0.45,0.11,0.86,0.06,1.24-0.16
	c0.41-0.24,0.68-0.58,0.8-1.03c0.12-0.45,0.06-0.88-0.18-1.3c-0.24-0.42-0.58-0.69-1.02-0.81c-0.44-0.12-0.87-0.07-1.28,0.17
	c-0.41,0.23-0.67,0.58-0.79,1.02C79.55,89.32,79.61,89.75,79.84,90.16z"/>
<path class="st4" d="M85.32,85.27l2.26,3.92l-0.59,0.34l-2.26-3.92L85.32,85.27z"/>
<path class="st4" d="M89.92,87.84l-2.41-4.19l4.58,1.34l-1.57-2.72l0.59-0.34l2.4,4.16l-4.58-1.34l1.58,2.74L89.92,87.84z"/>
<g>
	<g>
		<path class="st5" d="M79.11,49.27l7.74-11.14c0.29-0.42-0.07-0.99-0.58-0.89l-13.5,2.53c-0.36,0.07-0.69-0.22-0.68-0.58
			l0.51-16.21c0.02-0.54-0.65-0.8-1.01-0.4l-8.71,9.82c-0.3,0.34-0.85,0.22-0.98-0.22l-4.74-15.85c-0.08-0.26-0.44-0.26-0.52,0
			L51.6,32.2c-0.14,0.43-0.68,0.54-0.98,0.21l-8.72-9.84c-0.36-0.4-1.02-0.14-1.01,0.4l0.51,16.21c0.01,0.37-0.32,0.65-0.68,0.58
			l-13.5-2.53c-0.51-0.1-0.87,0.47-0.58,0.89l7.74,11.14c0.22,0.31,0.08,0.75-0.28,0.87l-7.15,2.48c-0.45,0.16-0.53,0.77-0.12,1.03
			l6.33,4.1c0.36,0.24,0.35,0.77-0.03,0.98l-5.66,3.19c-0.4,0.23-0.39,0.81,0.02,1.01l6.44,3.28c0.39,0.2,0.42,0.75,0.05,1
			l-2.91,1.89c-0.39,0.25-0.34,0.84,0.09,1.01l5.22,2.18c0.31,0.13,0.44,0.49,0.3,0.78l-1.4,2.87c-0.2,0.41,0.13,0.88,0.59,0.82
			l7.87-0.94c0.04,0,0.08-0.01,0.12,0l12.72,1.04v0.03l0.17-0.01l0.17,0.01v-0.03l12.72-1.04c0.04,0,0.08,0,0.12,0l7.87,0.94
			c0.45,0.05,0.79-0.41,0.59-0.82l-1.4-2.87c-0.15-0.3-0.01-0.66,0.3-0.78l5.22-2.18c0.43-0.18,0.48-0.76,0.09-1.01l-2.91-1.89
			c-0.37-0.24-0.34-0.79,0.05-1l6.44-3.28c0.41-0.21,0.42-0.79,0.02-1.01l-5.66-3.19c-0.38-0.21-0.39-0.75-0.03-0.98l6.33-4.1
			c0.4-0.26,0.33-0.87-0.12-1.03l-7.15-2.48C79.04,50.01,78.9,49.58,79.11,49.27z"/>
		<path class="st4" d="M56.2,77.3v-0.09L43.82,76.2c-0.01,0-0.03,0-0.04,0l-7.87,0.94c-0.35,0.04-0.68-0.11-0.88-0.39
			c-0.2-0.28-0.23-0.65-0.08-0.96l1.4-2.87c0.03-0.07,0.02-0.13,0.01-0.16c-0.01-0.03-0.04-0.09-0.11-0.12l-5.22-2.18
			c-0.32-0.14-0.55-0.44-0.58-0.79c-0.03-0.35,0.13-0.69,0.43-0.88l2.91-1.89c0.09-0.06,0.1-0.15,0.09-0.18
			c0-0.04-0.02-0.12-0.11-0.17l-6.44-3.28c-0.31-0.16-0.51-0.47-0.52-0.82c-0.01-0.35,0.18-0.67,0.48-0.84l5.66-3.19
			c0.09-0.05,0.1-0.14,0.1-0.17c0-0.03-0.01-0.12-0.09-0.18l-6.33-4.1c-0.31-0.2-0.47-0.55-0.42-0.91c0.04-0.36,0.28-0.66,0.63-0.78
			l7.15-2.48c0.08-0.03,0.12-0.09,0.13-0.13c0.01-0.04,0.02-0.11-0.03-0.18l-7.74-11.14c-0.22-0.32-0.23-0.73-0.02-1.05
			c0.21-0.32,0.59-0.49,0.97-0.42l13.5,2.53c0.08,0.02,0.14-0.02,0.17-0.05c0.03-0.02,0.07-0.08,0.07-0.16l-0.51-16.21
			c-0.01-0.4,0.22-0.76,0.6-0.91c0.37-0.15,0.79-0.05,1.06,0.25l8.72,9.84c0.07,0.08,0.16,0.07,0.2,0.06
			c0.04-0.01,0.12-0.04,0.15-0.14l5.06-15.88c0.09-0.27,0.33-0.45,0.61-0.45c0,0,0,0,0.01,0c0.28,0,0.53,0.19,0.61,0.46l4.74,15.85
			c0.03,0.1,0.12,0.13,0.15,0.14c0.04,0.01,0.13,0.02,0.2-0.06l8.71-9.82c0.27-0.3,0.68-0.4,1.06-0.25c0.37,0.15,0.61,0.51,0.6,0.91
			l-0.51,16.21c0,0.09,0.04,0.14,0.07,0.16c0.03,0.02,0.09,0.06,0.17,0.05l13.5-2.53c0.38-0.07,0.76,0.09,0.97,0.42
			s0.2,0.74-0.02,1.05l-7.74,11.14c-0.05,0.07-0.04,0.14-0.03,0.18c0.01,0.04,0.04,0.1,0.13,0.13l7.15,2.48
			c0.34,0.12,0.58,0.42,0.63,0.78c0.04,0.36-0.12,0.71-0.42,0.91l-6.33,4.1c-0.09,0.06-0.1,0.14-0.09,0.18
			c0,0.04,0.01,0.12,0.1,0.17l5.66,3.19c0.3,0.17,0.49,0.49,0.48,0.84c-0.01,0.35-0.21,0.66-0.52,0.82l-6.44,3.28
			c-0.1,0.05-0.11,0.14-0.11,0.17c0,0.04,0,0.13,0.09,0.18l2.91,1.89c0.3,0.19,0.46,0.53,0.43,0.88c-0.03,0.35-0.25,0.65-0.58,0.79
			l-5.22,2.18c-0.07,0.03-0.1,0.09-0.11,0.12s-0.03,0.09,0.01,0.16l1.4,2.87c0.15,0.31,0.12,0.68-0.08,0.96
			c-0.2,0.28-0.54,0.43-0.88,0.39l-7.87-0.94c-0.01,0-0.03,0-0.04,0l-12.38,1.01v0.06l-0.54-0.02L56.2,77.3z M56.75,76.51l0.05,0
			l0.09-0.02l12.72-1.04c0.06,0,0.13,0,0.19,0l7.87,0.94c0.11,0.01,0.17-0.06,0.19-0.09c0.02-0.03,0.07-0.11,0.02-0.21l-1.4-2.87
			c-0.11-0.23-0.13-0.51-0.04-0.75c0.09-0.24,0.28-0.44,0.52-0.54l5.22-2.18c0.1-0.04,0.12-0.13,0.13-0.17c0-0.04,0-0.13-0.09-0.19
			l-2.91-1.89c-0.29-0.19-0.45-0.5-0.43-0.84c0.02-0.34,0.21-0.64,0.52-0.79l6.44-3.28c0.1-0.05,0.11-0.14,0.11-0.18
			c0-0.04-0.01-0.13-0.1-0.18l-5.66-3.19c-0.29-0.16-0.47-0.46-0.48-0.79c-0.01-0.33,0.15-0.64,0.43-0.82l6.33-4.1
			c0.1-0.06,0.1-0.16,0.09-0.2c0-0.04-0.03-0.13-0.14-0.17l-7.15-2.48c-0.28-0.1-0.5-0.32-0.59-0.6c-0.09-0.28-0.05-0.59,0.12-0.83
			l7.74-11.14c0.07-0.1,0.03-0.19,0-0.23c-0.02-0.04-0.09-0.11-0.21-0.09l-13.5,2.53c-0.28,0.05-0.57-0.02-0.79-0.21
			c-0.22-0.19-0.34-0.46-0.33-0.75l0.51-16.21c0-0.13-0.09-0.18-0.13-0.2c-0.04-0.02-0.14-0.04-0.23,0.05l-8.71,9.82
			c-0.23,0.26-0.57,0.37-0.91,0.3c-0.34-0.08-0.6-0.32-0.7-0.65l-4.64-15.55l-4.96,15.58c-0.1,0.33-0.37,0.57-0.71,0.64
			c-0.34,0.07-0.67-0.04-0.9-0.3l-8.72-9.84c-0.09-0.1-0.19-0.07-0.23-0.05c-0.04,0.02-0.13,0.07-0.13,0.2l0.51,16.21
			c0.01,0.29-0.11,0.56-0.33,0.75c-0.22,0.19-0.5,0.26-0.79,0.21l-13.5-2.53c-0.12-0.02-0.19,0.06-0.21,0.09
			c-0.02,0.03-0.07,0.13,0,0.23l7.74,11.14c0.17,0.25,0.21,0.55,0.12,0.83c-0.09,0.28-0.31,0.5-0.59,0.6l-7.15,2.48
			c-0.11,0.04-0.13,0.13-0.14,0.17c0,0.04-0.01,0.13,0.09,0.2l6.33,4.1c0.28,0.18,0.44,0.49,0.43,0.82
			c-0.01,0.33-0.19,0.63-0.48,0.79l-5.66,3.19c-0.1,0.05-0.11,0.15-0.1,0.18c0,0.04,0.01,0.13,0.11,0.18l6.44,3.28
			c0.3,0.16,0.5,0.45,0.52,0.79c0.02,0.34-0.14,0.66-0.43,0.84l-2.91,1.89c-0.09,0.06-0.1,0.15-0.09,0.19
			c0,0.04,0.02,0.13,0.13,0.17l5.22,2.18c0.24,0.1,0.43,0.3,0.52,0.54c0.09,0.24,0.08,0.52-0.04,0.75l-1.4,2.87
			c-0.05,0.1,0,0.18,0.02,0.21c0.02,0.03,0.08,0.1,0.19,0.09l7.87-0.94c0.06-0.01,0.13-0.01,0.19,0L56.75,76.51z"/>
	</g>
	<g>
		<path class="st22" d="M38.87,79.25c0,0-4.82-40.35,17.75-40.35s17.17,41.24,17.17,41.24S61.2,93.2,38.87,79.25z"/>
		<path class="st4" d="M58.58,86.05c-7.68,0-14.83-3.32-19.91-6.49l-0.15-0.09l-0.02-0.18c-0.01-0.06-0.74-6.3-0.29-13.77
			c0.42-6.92,1.96-16.35,6.96-21.98c2.95-3.33,6.81-5.02,11.45-5.02c4.57,0,8.35,1.67,11.23,4.96c5.01,5.71,6.45,15.39,6.78,22.52
			c0.36,7.68-0.47,14.12-0.48,14.18l-0.02,0.12l-0.08,0.09c-0.13,0.14-3.29,3.36-9.26,4.89C62.71,85.82,60.62,86.05,58.58,86.05z
			 M39.22,79.03c6.31,3.91,15.78,8,25.39,5.54c5.24-1.34,8.29-4.09,8.83-4.6c0.23-1.94,2.86-25.74-6.14-35.99
			c-2.74-3.12-6.33-4.71-10.68-4.71c-4.42,0-8.09,1.6-10.89,4.77C36.83,54.06,38.98,76.8,39.22,79.03z"/>
	</g>
	<g>
		<path class="st22" d="M62.96,75.02c-0.21,0.16-0.46,0.25-0.72,0.25h-0.25c-3.71,0-7.41,0-11.1,0c-0.3,0-0.59-0.12-0.81-0.32
			L38.6,63.56l0.27,15.68c-0.01,0.35,0.13,0.7,0.4,0.93c1.88,1.63,9.43,8.16,11.14,9.44c0.18,0.14,0.4,0.22,0.63,0.23
			c3.32,0.19,7.75,0.06,11.36-0.01c0.28-0.01,0.54-0.11,0.75-0.29l10.63-9.41c0.24-0.21,0.38-0.52,0.39-0.84l0.31-10.83
			c0.03-0.99-1.11-1.56-1.89-0.96L62.96,75.02z"/>
		<path class="st4" d="M55.27,90.32c-1.51,0-2.96-0.03-4.25-0.1c-0.3-0.02-0.59-0.12-0.83-0.31c-1.75-1.31-9.61-8.11-11.16-9.46
			c-0.35-0.31-0.55-0.75-0.53-1.22l-0.29-16.57l12.12,12.02c0.14,0.14,0.34,0.22,0.55,0.22l7.39,0l3.96,0
			c0.18,0,0.35-0.06,0.49-0.17l9.65-7.51c0.48-0.37,1.1-0.43,1.64-0.16c0.54,0.27,0.86,0.82,0.84,1.42l-0.31,10.83
			c-0.01,0.42-0.2,0.83-0.52,1.11L63.4,89.82c-0.27,0.24-0.62,0.38-0.99,0.39l-1.32,0.03C59.21,90.28,57.2,90.32,55.27,90.32z
			 M38.99,64.47l0.25,14.77c-0.01,0.26,0.09,0.5,0.27,0.65c1.55,1.35,9.39,8.13,11.12,9.43c0.13,0.1,0.28,0.15,0.43,0.16
			c2.91,0.17,6.68,0.09,10,0.02l1.33-0.03c0.19,0,0.37-0.07,0.51-0.2l10.63-9.41c0.16-0.15,0.26-0.36,0.27-0.58l0.31-10.83
			c0.01-0.32-0.15-0.59-0.44-0.74c-0.28-0.14-0.6-0.11-0.85,0.08l-9.65,7.51c-0.27,0.21-0.6,0.32-0.95,0.32H50.89
			c-0.4,0-0.78-0.15-1.06-0.43L38.99,64.47z M62.96,75.02L62.96,75.02L62.96,75.02z"/>
	</g>
	<g>
		<circle class="st1" cx="62.76" cy="54.64" r="5.75"/>
		<path class="st4" d="M62.76,60.76c-3.37,0-6.12-2.75-6.12-6.12s2.75-6.12,6.12-6.12c3.37,0,6.12,2.75,6.12,6.12
			S66.13,60.76,62.76,60.76z M62.76,49.26c-2.97,0-5.38,2.41-5.38,5.38c0,2.97,2.41,5.38,5.38,5.38c2.97,0,5.38-2.41,5.38-5.38
			C68.14,51.67,65.72,49.26,62.76,49.26z"/>
	</g>
	<g>
		<g>
			<path class="st22" d="M77.61,66.13c0-0.99-0.1-2.14-0.6-3.01c-0.25-0.44-0.47-0.58-0.99-0.62c-0.61-0.05-1.23,0.01-1.84,0.01
				c-0.87,0-1.58,1.62-1.58,3.62c0,2,0.71,3.62,1.58,3.62c0.38,0,0.75,0,1.13,0c0.82,0,1.32,0.11,1.75-0.7
				C77.51,68.17,77.61,67.09,77.61,66.13z"/>
			<path class="st4" d="M75.79,70.12c-0.07,0-0.15,0-0.22,0c-0.08,0-0.17,0-0.26,0h-1.13c-1.11,0-1.95-1.72-1.95-3.99
				s0.84-3.99,1.95-3.99c0.22,0,0.43-0.01,0.65-0.01c0.4-0.01,0.81-0.03,1.22,0c0.64,0.05,0.96,0.25,1.28,0.8
				c0.58,1.02,0.65,2.31,0.65,3.2c0,1.33-0.19,2.31-0.6,3.09C76.95,70.04,76.39,70.12,75.79,70.12z M75.5,62.84
				c-0.21,0-0.43,0.01-0.65,0.01c-0.23,0.01-0.45,0.02-0.68,0.02c-0.5,0-1.21,1.24-1.21,3.25s0.7,3.25,1.21,3.25h1.13
				c0.1,0,0.19,0,0.27,0c0.66,0.01,0.88,0.01,1.15-0.5c0.35-0.67,0.51-1.54,0.51-2.75c0-0.8-0.06-1.97-0.55-2.83
				c-0.19-0.34-0.3-0.41-0.69-0.43C75.83,62.85,75.67,62.84,75.5,62.84z"/>
		</g>
		<g>
			<path class="st22" d="M75.72,63.56c-0.79,1.78-0.67,3.36,0,5.13"/>
			<path class="st4" d="M75.72,69.07c-0.15,0-0.29-0.09-0.35-0.24c-0.76-2.01-0.76-3.69,0.01-5.42c0.08-0.19,0.3-0.27,0.49-0.19
				c0.19,0.08,0.27,0.3,0.19,0.49c-0.69,1.56-0.69,3.01,0.01,4.85c0.07,0.19-0.02,0.4-0.21,0.48C75.8,69.06,75.76,69.07,75.72,69.07
				z"/>
		</g>
	</g>
	<g>
		<g>
			<path class="st22" d="M36.29,66.1c0,0.99,0.1,2.14,0.6,3.01c0.25,0.44,0.47,0.58,0.99,0.62c0.61,0.05,1.23-0.01,1.84-0.01
				c0.87,0,1.58-1.62,1.58-3.62c0-2-0.71-3.62-1.58-3.62c-0.38,0-0.75,0-1.13,0c-0.82,0-1.32-0.11-1.75,0.7
				C36.39,64.05,36.29,65.13,36.29,66.1z"/>
			<path class="st4" d="M38.39,70.12c-0.18,0-0.36,0-0.54-0.02c-0.64-0.05-0.96-0.25-1.28-0.8c-0.58-1.02-0.65-2.31-0.65-3.2
				c0-1.33,0.19-2.31,0.6-3.09c0.48-0.92,1.13-0.91,1.81-0.9c0.08,0,0.17,0,0.26,0h1.13c1.11,0,1.95,1.72,1.95,3.99
				c0,2.27-0.84,3.99-1.95,3.99c-0.22,0-0.43,0.01-0.65,0.01C38.85,70.11,38.62,70.12,38.39,70.12z M38.08,62.84
				c-0.48,0-0.67,0.06-0.91,0.51c-0.35,0.67-0.51,1.54-0.51,2.75c0,0.8,0.06,1.97,0.55,2.83c0.19,0.34,0.3,0.41,0.69,0.43
				c0.37,0.03,0.75,0.01,1.14,0c0.23-0.01,0.45-0.02,0.68-0.02c0.5,0,1.21-1.24,1.21-3.25c0-2.01-0.7-3.25-1.21-3.25h-1.13
				c-0.1,0-0.19,0-0.27,0C38.23,62.85,38.15,62.84,38.08,62.84z"/>
		</g>
		<g>
			<path class="st22" d="M38.6,63.56c0.79,1.78,0.67,3.36,0,5.13"/>
			<path class="st4" d="M38.6,69.07c-0.04,0-0.09-0.01-0.13-0.02c-0.19-0.07-0.29-0.29-0.21-0.48c0.7-1.84,0.7-3.29,0.01-4.85
				c-0.08-0.19,0-0.41,0.19-0.49c0.19-0.08,0.4,0,0.49,0.19c0.77,1.73,0.77,3.4,0.01,5.42C38.89,68.98,38.75,69.07,38.6,69.07z"/>
		</g>
	</g>
	<g>
		<path class="st4" d="M50.51,62.84c-1.13,0-2.73-0.21-4.45-1.13c-3.19-1.71-3.42-5.29-3.43-5.44c-0.01-0.2,0.14-0.38,0.35-0.39
			c0.2-0.01,0.38,0.14,0.39,0.35c0,0.03,0.22,3.32,3.04,4.83c2.88,1.55,5.48,0.91,5.5,0.91c0.2-0.05,0.4,0.07,0.45,0.27
			c0.05,0.2-0.07,0.4-0.27,0.45C52.04,62.7,51.44,62.84,50.51,62.84z"/>
	</g>
	<g>
		<path class="st4" d="M65.31,62.7c-0.18,0-0.33-0.13-0.36-0.31c-0.04-0.2,0.1-0.39,0.3-0.43c4.04-0.72,4.44-4.56,4.45-4.73
			c0.02-0.2,0.2-0.35,0.4-0.33c0.2,0.02,0.35,0.2,0.34,0.4c0,0.05-0.45,4.57-5.06,5.39C65.36,62.69,65.34,62.7,65.31,62.7z"/>
	</g>
	<g>
		<path class="st22" d="M57.67,57.2l10.17,0.07c0,0-1.33,3.21-5.12,3.12C58.94,60.31,57.67,57.2,57.67,57.2z"/>
		<path class="st4" d="M62.86,60.76c-0.05,0-0.1,0-0.15,0c-3.98-0.09-5.33-3.28-5.38-3.42l-0.21-0.51l11.27,0.07l-0.21,0.51
			C68.17,57.44,66.74,60.76,62.86,60.76z M58.29,57.58c0.52,0.83,1.84,2.39,4.44,2.45c2.59,0.05,3.95-1.54,4.49-2.39L58.29,57.58z"
			/>
	</g>
	<g>
		<path class="st22" d="M56.76,55.56c0,0,6.14,8.63,3.91,9.72c-2.23,1.09-3.91-0.44-3.91-0.44"/>
		<path class="st4" d="M59.04,66.05c-1.48,0-2.48-0.88-2.53-0.93c-0.15-0.14-0.16-0.37-0.03-0.52c0.14-0.15,0.37-0.16,0.52-0.03
			c0.06,0.05,1.54,1.34,3.5,0.38c0.09-0.04,0.19-0.12,0.25-0.33c0.43-1.7-2.96-6.96-4.3-8.85c-0.12-0.17-0.08-0.4,0.09-0.52
			c0.17-0.12,0.4-0.08,0.52,0.09c0.51,0.72,5,7.13,4.41,9.46c-0.1,0.37-0.32,0.66-0.64,0.81C60.19,65.93,59.58,66.05,59.04,66.05z"
			/>
	</g>
	<g>
		<g>
			<circle class="st23" cx="72.01" cy="74.82" r="1.07"/>
		</g>
		<g>
			<circle class="st24" cx="72.01" cy="74.82" r="0.68"/>
		</g>
	</g>
	<g>
		<g>
			<circle class="st23" cx="41.58" cy="74.82" r="1.07"/>
		</g>
		<g>
			<circle class="st24" cx="41.58" cy="74.82" r="0.68"/>
		</g>
	</g>
	<g>
		<g>
			<circle class="st23" cx="56.68" cy="87.49" r="1.07"/>
		</g>
		<g>
			<circle class="st24" cx="56.68" cy="87.49" r="0.68"/>
		</g>
	</g>
	<g>
		<path class="st5" d="M62.76,54.61c0.1,0,0.15,0.35,0.24,0.38c0.1,0.03,0.34-0.22,0.42-0.16c0.08,0.06-0.09,0.37-0.03,0.45
			c0.06,0.08,0.4,0.02,0.43,0.11c0.03,0.09-0.29,0.24-0.29,0.34c0,0.1,0.32,0.25,0.29,0.34c-0.03,0.1-0.38,0.03-0.43,0.11
			c-0.06,0.08,0.11,0.39,0.03,0.45c-0.08,0.06-0.32-0.2-0.42-0.16c-0.09,0.03-0.14,0.38-0.24,0.38c-0.1,0-0.15-0.35-0.24-0.38
			c-0.1-0.03-0.34,0.22-0.42,0.16c-0.08-0.06,0.09-0.37,0.03-0.45c-0.06-0.08-0.4-0.02-0.43-0.11c-0.03-0.09,0.29-0.24,0.29-0.34
			c0-0.1-0.32-0.25-0.29-0.34c0.03-0.1,0.38-0.03,0.43-0.11c0.06-0.08-0.11-0.39-0.03-0.45c0.08-0.06,0.32,0.2,0.42,0.16
			C62.61,54.96,62.65,54.61,62.76,54.61z"/>
	</g>
	<g>
		<circle class="st1" cx="50.66" cy="54.64" r="5.75"/>
		<path class="st4" d="M50.66,60.76c-3.37,0-6.12-2.75-6.12-6.12s2.75-6.12,6.12-6.12c3.37,0,6.12,2.75,6.12,6.12
			S54.04,60.76,50.66,60.76z M50.66,49.26c-2.97,0-5.38,2.41-5.38,5.38c0,2.97,2.41,5.38,5.38,5.38c2.97,0,5.38-2.41,5.38-5.38
			C56.04,51.67,53.63,49.26,50.66,49.26z"/>
	</g>
	<g>
		<path class="st22" d="M45.58,57.2l10.17,0.07c0,0-1.33,3.21-5.12,3.12C46.85,60.31,45.58,57.2,45.58,57.2z"/>
		<path class="st4" d="M50.77,60.76c-0.05,0-0.1,0-0.15,0c-3.98-0.09-5.33-3.28-5.38-3.42l-0.21-0.51L56.3,56.9l-0.21,0.51
			C56.07,57.44,54.65,60.76,50.77,60.76z M46.2,57.58c0.52,0.83,1.84,2.39,4.44,2.45c2.58,0.05,3.95-1.54,4.49-2.39L46.2,57.58z"/>
	</g>
	<g>
		<path class="st5" d="M50.75,54.61c0.1,0,0.15,0.35,0.24,0.38c0.1,0.03,0.34-0.22,0.42-0.16c0.08,0.06-0.09,0.37-0.03,0.45
			c0.06,0.08,0.4,0.02,0.43,0.11c0.03,0.09-0.29,0.24-0.29,0.34c0,0.1,0.32,0.25,0.29,0.34c-0.03,0.1-0.38,0.03-0.43,0.11
			c-0.06,0.08,0.11,0.39,0.03,0.45c-0.08,0.06-0.32-0.2-0.42-0.16c-0.09,0.03-0.14,0.38-0.24,0.38c-0.1,0-0.15-0.35-0.24-0.38
			c-0.1-0.03-0.34,0.22-0.42,0.16c-0.08-0.06,0.09-0.37,0.03-0.45c-0.06-0.08-0.4-0.02-0.43-0.11c-0.03-0.09,0.29-0.24,0.29-0.34
			c0-0.1-0.32-0.25-0.29-0.34c0.03-0.1,0.38-0.03,0.43-0.11c0.06-0.08-0.11-0.39-0.03-0.45c0.08-0.06,0.32,0.2,0.42,0.16
			C50.6,54.96,50.65,54.61,50.75,54.61z"/>
	</g>
	<g>
		<path class="st22" d="M45.7,48.16c0,0.38,0.21,0.72,0.54,0.9c1.59,0.82,6.41,3.1,10.88,2.94c4.41-0.15,8.68-2.17,10.15-2.94
			c0.33-0.17,0.54-0.52,0.54-0.89v0c0-0.7-0.7-1.19-1.36-0.94c-2.06,0.78-6.11,2.53-9.57,2.73c-3.81,0.22-7.68-2-9.83-2.77
			c-0.66-0.24-1.35,0.25-1.35,0.95V48.16z"/>
		<path class="st4" d="M56.68,52.38c-4.35,0-8.83-2.07-10.6-2.99c-0.46-0.24-0.75-0.71-0.75-1.22v-0.03c0-0.45,0.22-0.87,0.59-1.13
			c0.37-0.26,0.83-0.32,1.26-0.17c0.5,0.18,1.07,0.43,1.73,0.71c2.15,0.93,5.11,2.21,7.96,2.04c2.96-0.17,6.33-1.49,8.57-2.37
			c0.33-0.13,0.63-0.24,0.89-0.34c0.42-0.16,0.9-0.1,1.27,0.15c0.37,0.26,0.6,0.68,0.6,1.14c0,0.52-0.28,0.98-0.74,1.22
			c-1.62,0.85-5.87,2.83-10.3,2.98C56.99,52.37,56.84,52.38,56.68,52.38z M46.71,47.49c-0.13,0-0.25,0.04-0.36,0.12
			c-0.17,0.12-0.27,0.31-0.27,0.52v0.03c0,0.24,0.13,0.46,0.35,0.57c1.39,0.72,6.27,3.06,10.7,2.9c4.29-0.15,8.41-2.08,9.99-2.9
			c0.21-0.11,0.34-0.33,0.34-0.56c0-0.21-0.1-0.41-0.28-0.53c-0.17-0.12-0.39-0.15-0.58-0.07c-0.26,0.1-0.56,0.22-0.88,0.34
			c-2.28,0.89-5.72,2.23-8.79,2.42c-3.04,0.18-6.08-1.14-8.3-2.1c-0.65-0.28-1.21-0.52-1.68-0.69
			C46.86,47.51,46.78,47.49,46.71,47.49z"/>
	</g>
</g>
</svg>
