<svg xmlns="http://www.w3.org/2000/svg" xmlns:xlink="http://www.w3.org/1999/xlink" viewBox="0 0 332.14 44.29"><defs><style>.cls-1,.cls-4{stroke-miterlimit:10;}.cls-1{fill:url(#linear-gradient);stroke:url(#linear-gradient-2);}.cls-2{fill:url(#linear-gradient-3);}.cls-3{fill:url(#linear-gradient-4);}.cls-4{fill:url(#linear-gradient-5);stroke:url(#linear-gradient-6);}.cls-5{fill:url(#linear-gradient-7);}.cls-6{fill:url(#linear-gradient-8);}</style><linearGradient id="linear-gradient" x1="194.4" y1="161.02" x2="346.29" y2="161.02" gradientUnits="userSpaceOnUse"><stop offset="0" stop-color="#7d2165"/><stop offset="1" stop-color="#ed1e24"/></linearGradient><linearGradient id="linear-gradient-2" x1="193.9" y1="161.02" x2="346.79" y2="161.02" gradientUnits="userSpaceOnUse"><stop offset="0" stop-color="#2484c6"/><stop offset="1" stop-color="#c3dd8c"/></linearGradient><linearGradient id="linear-gradient-3" x1="213.2" y1="159.71" x2="241.35" y2="159.71" gradientUnits="userSpaceOnUse"><stop offset="0" stop-color="#1471b9"/><stop offset="1" stop-color="#b1d235"/></linearGradient><linearGradient id="linear-gradient-4" x1="238.79" y1="153.64" x2="333.63" y2="153.64" gradientUnits="userSpaceOnUse"><stop offset="0" stop-color="#e8b121"/><stop offset="1" stop-color="#b8d433"/></linearGradient><linearGradient id="linear-gradient-5" x1="194.4" y1="161.02" x2="346.29" y2="161.02" gradientTransform="matrix(-1, 0, 0, 1, 361.45, 0)" xlink:href="#linear-gradient"/><linearGradient id="linear-gradient-6" x1="193.9" y1="161.02" x2="346.79" y2="161.02" gradientTransform="matrix(-1, 0, 0, 1, 361.45, 0)" xlink:href="#linear-gradient-2"/><linearGradient id="linear-gradient-7" x1="213.2" y1="159.71" x2="241.35" y2="159.71" gradientTransform="matrix(-1, 0, 0, 1, 361.45, 0)" xlink:href="#linear-gradient-3"/><linearGradient id="linear-gradient-8" x1="238.79" y1="153.64" x2="333.63" y2="153.64" gradientTransform="matrix(-1, 0, 0, 1, 361.45, 0)" xlink:href="#linear-gradient-4"/></defs><g id="Layer_1" data-name="Layer 1"><path class="cls-1" d="M194.42,182.38c-.41-1.14,6.81-3.51,15.53-11.65,7.07-6.6,12.41-11.59,14.22-19.72.89-4,.57-7.2,3.1-9.54a8.91,8.91,0,0,1,9.3-1.37,11.19,11.19,0,0,1,5,4.78c6.82,11.65,103.6,0,104.75,4.09.72,2.52-50.84,20.73-50.2,23.18.18.7,4.55.1,4.65.8s-4,1.84-4.34,1.93c-8.9,2.51-21.3-1.46-30.07-2.84-10.32-1.62-18.8-.1-35.74,3-7.73,1.39-15,3-15,3C201.87,181.08,194.82,183.51,194.42,182.38Z" transform="translate(-14.65 -138.88)"/><path class="cls-2" d="M213.22,176.07c-.4-.73,6.3-3,11.16-11.42,6.59-11.4,8.37-17.39,8.37-17.39.25-.86.85-3,2.47-3.75a4.78,4.78,0,0,1,5.58,1.88c2.7,4.5-5.38,14.94-6.35,16.19C225.82,172.74,213.76,177.07,213.22,176.07Z" transform="translate(-14.65 -138.88)"/><path class="cls-3" d="M243.13,147.43c-.52.31.7,2.69.46,4.95-.4,3.9-4.9,5.36-4.8,6.31.47,4.26,95-4.28,94.84-5.8-.07-.73-22.39-3-48.19.69,0,0-32.61,4.68-41.07-5.29C244.3,148.21,243.48,147.22,243.13,147.43Z" transform="translate(-14.65 -138.88)"/><path class="cls-4" d="M167,182.38c.4-1.14-6.81-3.51-15.54-11.65-7.06-6.6-12.41-11.59-14.22-19.72-.89-4-.57-7.2-3.1-9.54a8.89,8.89,0,0,0-9.29-1.37,11.13,11.13,0,0,0-5,4.78c-6.83,11.65-103.6,0-104.76,4.09-.72,2.52,50.85,20.73,50.21,23.18-.18.7-4.56.1-4.65.8s4,1.84,4.34,1.93c8.9,2.51,21.29-1.46,30.06-2.84,10.33-1.62,18.8-.1,35.75,3,7.73,1.39,15,3,15,3C159.58,181.08,166.62,183.51,167,182.38Z" transform="translate(-14.65 -138.88)"/><path class="cls-5" d="M148.23,176.07c.4-.73-6.3-3-11.16-11.42-6.6-11.4-8.37-17.39-8.37-17.39-.25-.86-.85-3-2.48-3.75a4.79,4.79,0,0,0-5.58,1.88c-2.69,4.5,5.39,14.94,6.36,16.19C135.63,172.74,147.69,177.07,148.23,176.07Z" transform="translate(-14.65 -138.88)"/><path class="cls-6" d="M118.32,147.43c.51.31-.7,2.69-.47,4.95.41,3.9,4.91,5.36,4.81,6.31-.47,4.26-95-4.28-94.84-5.8.06-.73,22.38-3,48.19.69,0,0,32.61,4.68,41.07-5.29C117.15,148.21,118,147.22,118.32,147.43Z" transform="translate(-14.65 -138.88)"/></g></svg>