<?xml version="1.0" encoding="utf-8"?>
<!-- Generator: Adobe Illustrator 16.0.0, SVG Export Plug-In . SVG Version: 6.00 Build 0)  -->
<!DOCTYPE svg PUBLIC "-//W3C//DTD SVG 1.1//EN" "http://www.w3.org/Graphics/SVG/1.1/DTD/svg11.dtd">
<svg version="1.1" id="Layer_1" xmlns="http://www.w3.org/2000/svg" xmlns:xlink="http://www.w3.org/1999/xlink" x="0px" y="0px"
	 width="500px" height="500px" viewBox="0 0 500 500" enable-background="new 0 0 500 500" xml:space="preserve">
<g id="Layer_63_25_" enable-background="new    ">
	<linearGradient id="SVGID_1_" gradientUnits="userSpaceOnUse" x1="33.9893" y1="249.8442" x2="466.8945" y2="249.8442">
		<stop  offset="0" style="stop-color:#FFCE08"/>
		<stop  offset="1" style="stop-color:#3E00FF"/>
	</linearGradient>
	<polygon fill="url(#SVGID_1_)" points="466.895,124.874 466.895,374.814 250.461,499.785 77.261,399.809 76.479,399.34 
		33.989,374.814 33.989,124.874 250.461,-0.097 	"/>
</g>
<path fill="#FFFFFF" d="M432.056,146.854v207.511l-0.039,0.038l-4.256,2.422l-1.289,0.742l-0.508,0.273l-3.437,1.991l-12.261,7.067
	l-0.781,0.469l-7.537,4.335l-0.624,0.351l-5.78,3.359l-1.835,1.054l-0.547,0.312l-1.835,1.055l-0.938,0.507l-0.117,0.039
	l-0.391,0.156l-0.43,0.273l-11.832,6.795l-3.202,1.836l-4.1,2.343l-0.156,0.116l-4.803,2.773l-1.758,1.015l-0.078,0.078h-0.039
	l-6.014,3.476l-3.397,2.03l-4.92,2.812l-0.195,0.117l-0.273,0.156l-0.312,0.195l-1.601,0.938l-0.117,0.039l-0.195,0.117
	l-0.195,0.078l-0.234,0.156v0.039l-3.046,1.757l-0.703,0.352l-0.078,0.078l-0.156,0.078l-3.943,2.265l-0.547,0.312l-0.586,0.352
	l-0.195,0.117l-1.25,0.703l-0.937,0.547h-0.039l-0.273,0.156l-2.499,1.483l-0.781,0.468l-1.289,0.742l-0.976,0.547
	c0,0.039-0.039,0.039-0.039,0.039l-1.836,1.055l-1.64,0.938l-0.156,0.117l-2.226,1.288l-9.099,5.232l-2.46,1.406l-0.234,0.117
	l-13.668,7.927l-0.078,0.039l-0.039,0.039l-1.562,0.897l-1.366,0.781l-1.953,1.133l-0.547,0.312l-4.881,2.812l-3.826,2.226
	l-1.523,0.859l-0.039,0.039l-1.68,0.976l-1.562,0.898l-9.216,5.311l-1.406,0.82l-0.156,0.078l-0.703,0.391l-1.951,1.133
	l-7.303,4.217l-2.188,1.25h-0.039l-1.249,0.742l-1.874,1.093l-0.547-0.312l-4.999-2.89l-3.319-1.913l-0.117-0.039l-3.553-2.069
	l-0.664-0.391l-0.195-0.117l-2.382-1.367l-0.664-0.391l-13.121-7.575l-0.156-0.117l-8.083-4.647l-18.548-10.777l-2.382-1.367
	l-2.694-1.522l-3.631-2.108l-0.859-0.469l-0.352-0.234l-0.117-0.078l-8.708-5.037l-4.764-2.773l-1.445-0.819l-1.523-0.859
	l-0.898-0.507l-1.015-0.586l-0.938-0.586l-0.351-0.195l-1.367-0.781l-0.312-0.195l-0.312-0.156l-0.156-0.117l-5.077-2.89
	l-0.195-0.117l-0.586-0.312l-1.445-0.859l-6.678-3.866l-9.801-5.701l-8.162-4.687l-3.202-1.835l-0.352-0.195l-1.953-1.132
	l-0.039-0.039l-0.82-0.469h-0.039l-4.061-2.344c-0.039-0.039-0.039-0.039-0.078-0.039l-7.263-4.217l-3.983-2.305l-5.194-3.006
	l-2.812-1.68l-0.156-0.078l-0.078-0.039l-1.132-0.664c0,0-0.039,0-0.078-0.039l-1.015-0.586l-0.078-0.039l-12.887-7.419
	l-13.316-7.692l-0.352-0.195l-0.312-0.156l-0.117-0.078V146.853l22.102-12.73l3.007-1.796h0.039l0.976-0.547l2.265-1.289
	l6.833-3.944l8.864-5.116l3.202-1.875l0.586-0.352l8.083-4.646l3.827-2.226l3.944-2.304l1.64-0.937l1.757-1.015l0.976-0.547
	c0.039,0,0.039,0,0.039,0l2.226-1.289l12.613-7.263l6.17-3.593l0.664-0.352l6.482-3.709l3.045-1.757l1.484-0.859l1.718-1.016
	l4.295-2.538l2.031-1.171l8.903-5.077l2.694-1.601l5.467-3.124h0.039l0.195-0.117l22.336-12.886l0.742-0.43l1.054-0.625
	l23.704-13.707l5.623-3.241l4.139,2.421L281.91,60.24l10.153,5.857l15.425,8.903l5.232,3.007l25.93,14.956l4.061,2.382l8.981,5.116
	l3.397,1.953l5.936,3.436l5.35,3.085l3.124,1.796l0.352,0.234l7.068,4.061l14.761,8.513l0.156,0.117v0.039l1.015,0.547l1.016,0.625
	l1.562,0.898l3.592,2.07l2.109,1.21l0.078,0.039l7.497,4.334l3.046,1.718l1.718,0.976l7.576,4.374L432.056,146.854z"/>
<g>
	<path fill="#15003E" d="M303.563,449.312l6.113-3.512l0.278,0.48c0.645,1.113,1.075,2.182,1.312,3.181
		c0.194,0.941,0.19,1.934-0.02,2.975c-0.484,2.334-1.785,4.107-3.905,5.331c-2.07,1.19-4.271,1.465-6.608,0.819
		c-2.342-0.651-4.115-2.032-5.324-4.134c-1.235-2.146-1.533-4.396-0.892-6.757c0.641-2.36,2.032-4.164,4.188-5.407
		c1.155-0.664,2.371-1.049,3.645-1.156c1.225-0.084,2.612,0.142,4.146,0.664l-0.717,2.444c-2.143-0.919-4.088-0.877-5.827,0.126
		c-1.571,0.899-2.569,2.192-3.009,3.89c-0.449,1.667-0.213,3.303,0.705,4.9c0.946,1.651,2.315,2.665,4.111,3.051
		c1.679,0.351,3.158,0.156,4.458-0.587c1.095-0.63,1.865-1.563,2.315-2.808c0.441-1.25,0.423-2.417-0.069-3.523l-3.695,2.124
		L303.563,449.312z"/>
	
		<rect x="317.596" y="432.399" transform="matrix(-0.8666 0.4991 -0.4991 -0.8666 815.274 663.8818)" fill="#15003E" width="2.575" height="17.071"/>
	<polygon fill="#15003E" points="329.686,427.638 336.989,440.336 334.762,441.617 327.455,428.926 324.054,430.883 
		322.845,428.785 331.867,423.592 333.072,425.688 	"/>
	<path fill="#15003E" d="M349.829,414.306l1.518,2.643c-1.915-0.339-3.562-0.11-4.938,0.683c-1.518,0.877-2.49,2.162-2.902,3.848
		c-0.423,1.689-0.18,3.321,0.725,4.893c0.889,1.553,2.174,2.562,3.832,3.028c1.663,0.461,3.249,0.256,4.778-0.618
		c0.778-0.454,1.377-0.965,1.777-1.536c0.232-0.306,0.454-0.656,0.656-1.064s0.4-0.87,0.587-1.389l1.552,2.697
		c-0.857,1.464-1.998,2.597-3.401,3.408c-2.112,1.217-4.34,1.511-6.681,0.9c-2.35-0.633-4.126-1.998-5.339-4.1
		c-1.083-1.884-1.419-3.924-1.026-6.116c0.484-2.693,1.957-4.736,4.39-6.137C346.683,414.68,348.174,414.298,349.829,414.306"/>
	<path fill="#FFFFFF" d="M360.651,413.643c-1.197-2.082-1.461-4.311-0.797-6.678c0.663-2.372,2.059-4.172,4.19-5.404
		c2.109-1.209,4.352-1.494,6.724-0.857c2.387,0.641,4.183,2.014,5.399,4.126c1.221,2.124,1.507,4.37,0.835,6.728
		c-0.671,2.364-2.085,4.172-4.244,5.41c-1.91,1.106-4.008,1.423-6.288,0.98C363.953,417.451,362.017,416.014,360.651,413.643
		 M362.912,412.372c0.942,1.632,2.266,2.662,3.97,3.081c1.697,0.424,3.265,0.225,4.699-0.599c1.552-0.892,2.551-2.181,3.005-3.866
		c0.438-1.701,0.217-3.33-0.687-4.885c-0.908-1.58-2.193-2.598-3.859-3.055c-1.666-0.473-3.275-0.264-4.82,0.629
		c-1.541,0.889-2.528,2.17-2.971,3.852C361.799,409.203,362.021,410.816,362.912,412.372"/>
	
		<rect x="383.9" y="394.216" transform="matrix(-0.8662 0.4996 -0.4996 -0.8662 920.0821 559.1644)" fill="#15003E" width="2.576" height="17.067"/>
	<polygon fill="#15003E" points="399.235,404.517 390.141,388.713 407.431,393.793 401.513,383.508 403.739,382.227 
		412.777,397.927 395.502,392.874 401.467,403.23 	"/>
</g>
<g id="Layer_2_26_">
	<g id="Layer_16_26_">
		<path opacity="0.13" enable-background="new    " d="M412.026,135.274l-2.069-1.171l-2.812-1.64l-3.007-1.757l-0.43-0.235
			l-1.913-1.093l-1.992-1.132l-3.515-2.031l-28.311-16.323l-6.678-3.827l-2.812-1.64l-1.757-1.016l-1.914-1.132l-0.195-0.078
			l-1.64-0.976l-1.602-0.937l-20.813-11.988l-76.146-43.892l-2.07-1.21l-1.835,1.054L183.703,82.83L164.1,94.154l-5.077,2.929
			l-2.07,1.21l-0.39,0.195c-0.039,0-0.039,0-0.039,0l-0.977,0.585l-1.64,0.977l-1.172,0.664l-1.054,0.625l-0.703,0.39l-5.857,3.397
			h-0.039l-6.951,3.983l-0.039,0.039l-2.265,1.328l-2.968,1.679l-0.039,0.039l-0.117,0.078l-12.691,7.302h-0.039l-9.294,5.35
			l-3.905,2.265l-11.637,6.716l-16.518,9.528l-6.014,3.475v207.433l0.273,0.156l6.716,3.905l2.929,1.679l0.586,0.312l16.869,9.763
			l2.695,1.522l2.069,1.211l7.341,4.257l6.209,3.592l1.796,1.016l5.077,2.929l13.199,7.614l21.009,12.105l2.694,1.562l0.273,0.156
			l0.586,0.312l0.429,0.273l0.703,0.391l0.156,0.078l7.458,4.334l3.437,1.952l5.193,3.046l3.476,1.992l0.703,0.391l1.211,0.702
			l0.742,0.43l1.875,1.094l13.94,8.005l0.352,0.195l1.718,1.016l2.421,1.405l2.812,1.641c0.039,0,0.039,0,0.039,0l2.069,1.171
			l5.896,3.397l12.379,7.186l17.494,10.074l4.022,2.344l0.898,0.507l0.078-0.039l0.742-0.429l0.547-0.312l0.117-0.078l1.21-0.703
			l7.067-4.022l0.352-0.195l2.695-1.562l1.952-1.133l0.938-0.547l15.034-8.669l9.566-5.506l2.891-1.679l2.577-1.484l2.616-1.522
			l1.718-1.016l9.099-5.232l1.523-0.859h0.039l0.897-0.546l0.82-0.469l2.46-1.406l3.124-1.796l4.921-2.851l1.796-1.055h0.039
			l1.796-1.054l0.039-0.039l0.977-0.547l2.069-1.211l1.445-0.82l1.367-0.82l2.147-1.21l0.82-0.508l1.249-0.702l1.68-0.938
			l0.078-0.039l0.194-0.117l0.508-0.312l0.938-0.508l14.761-8.513l1.484-0.859l4.334-2.538l11.598-6.678l6.093-3.514l11.91-6.873
			l7.38-4.257l14.019-8.083h0.039l0.234-0.156l10.349-5.975l3.515-2.031l4.021-2.303V146.911L412.026,135.274z M424.913,350.165
			l-2.03,1.171l-1.25,0.703l-2.265,1.328l-29.639,17.104l-4.218,2.421l-7.38,4.257l-6.639,3.826l-12.184,7.029l-4.998,2.89
			l-2.812,1.601l-11.441,6.6l-0.273,0.195l-0.625,0.352l-0.703,0.43l-2.226,1.25l-3.476,1.991l-0.859,0.507l-0.195,0.117
			l-3.163,1.836l-0.352,0.195l-15.268,8.786l-0.312,0.195l-3.085,1.757l-0.312,0.195l-3.554,2.07l-8.396,4.842l-6.014,3.476
			l-6.561,3.788l-4.295,2.46l-11.599,6.717l-4.803,2.772l-0.234,0.156h-0.078l-2.929,1.718l-1.094,0.586l-7.303,4.218l-13.472-7.771
			l-4.803-2.772l-2.382-1.366l-7.068-4.101l-2.812-1.601l-2.694-1.562l-20.541-11.832l-3.007-1.758l-0.195-0.117l-6.99-4.021
			l-8.044-4.607l-3.514-2.031l-2.265-1.328l-0.976-0.585l-1.679-0.977l-0.82-0.468l-6.834-3.945l-1.21-0.702l-0.742-0.43
			l-5.857-3.397l-13.355-7.693l-15.269-8.824l-1.171-0.664l-5.701-3.28l-1.679-0.976l-11.676-6.717l-19.173-11.091l-3.515-1.991
			l-1.523-0.898l-0.898-0.508l-2.617-1.522V151.128l15.269-8.825l11.637-6.716l3.631-2.109h0.039l0.234-0.156l12.496-7.224h0.039
			l5.311-3.085h0.039l6.99-4.022l4.881-2.812l1.679-0.977h0.039l2.968-1.718l1.796-1.055h0.039l11.637-6.716
			c0.039-0.039,0.039-0.039,0.078-0.039l3.046-1.757l1.367-0.781l0.781-0.468l1.132-0.664l0.664-0.39l1.055-0.586l0.156-0.078
			l31.357-18.119l52.288-30.186l1.835-1.054l2.07,1.21l65.721,37.917l27.257,15.737l0.195,0.117l1.249,0.703l0.43,0.234l1.718,1.015
			l1.367,0.781l4.803,2.772l7.576,4.374l27.413,15.776l5.506,3.163l2.147,1.25l0.156,0.117l3.007,1.718l0.742,0.43l2.108,1.21
			l2.069,1.21l17.026,9.801V350.165L424.913,350.165z"/>
	</g>
</g>
<g id="Page-1">
	<g id="bufficorn_bot">
		<path id="Shape" fill="#FFFFFF" d="M426.928,148.243V349.83l-0.041,0.036l-0.073,0.04l-1.557,0.909l-1.404,0.799l-2.353,1.327
			l-15.74,9.068l-0.041,0.037l-0.492,0.303l-0.226,0.111l-2.087,1.216l-3.037,1.705l-0.378,0.229l-1.818,1.06l-4.29,2.472
			l-3.224,1.855l-2.808,1.631l-0.908,0.499l-0.496,0.183l-0.415,0.267l-3.793,2.163l-0.115,0.074l-7.587,4.363l-1.934,1.104
			l-0.533,0.304l-0.111,0.078l-0.534,0.3L370.896,382l-3.945,2.237l-0.152,0.111l-0.263,0.159l-4.401,2.54l-1.708,0.982
			l-0.037,0.038l-0.04,0.04h-0.038l-1.593,0.908l-4.249,2.467l-3.3,1.972l-4.476,2.544l-0.304,0.189l-0.456,0.267l-0.152,0.111
			l-0.151,0.078l-0.074,0.033l-0.381,0.229l-1.101,0.646l-0.111,0.041l-0.607,0.337v0.036l-1.519,0.879l-1.022,0.604l-0.419,0.231
			l-0.682,0.339l-0.078,0.072l-0.151,0.078l-2.615,1.478l-0.229,0.156l-0.908,0.531l-0.078,0.033l-1.1,0.648l-0.567,0.3
			l-0.837,0.496l-0.907,0.534h-0.041l-1.593,0.946l-1.101,0.646l-0.111,0.078l-1.141,0.64l-5.157,2.999l-1.896,1.103l-0.948,0.531
			l-2.656,1.511l-0.115,0.081h-0.037l-1.174,0.682l-0.192,0.111l-0.908,0.57l-3.189,1.822l-2.39,1.363l-0.226,0.111l-1.896,1.108
			c-0.037,0.033-0.037,0.033-0.037,0l-2.012,1.174l-1.101,0.646l-2.882,1.67l-0.193,0.111l-0.188,0.114l-0.111,0.038
			c0,0.04-0.041,0.04-0.041,0.04l-0.073,0.071l-0.949,0.532l-3.793,2.201l-0.645,0.378l-0.152,0.074l-1.441,0.836l-5.386,3.113
			l-1.367,0.793l-0.341,0.192l-0.911,0.525l-3.034,1.748l-0.985,0.57l-1.063,0.608l-0.037,0.037l-0.759,0.456l-0.875,0.492
			l-1.325,0.76l-3.149,1.819l-0.037,0.036l-0.341,0.192l-5.009,2.883l-0.077,0.036l-2.998,1.742l-2.311,1.333h-0.037l-5.35,3.068
			l-0.078,0.081l-0.949,0.526l-2.121,1.215h-0.037l-0.497,0.304l-0.718,0.418l-1.027,0.604h-0.036l-0.76,0.46l-0.227-0.114
			l-4.323-2.508l-0.078-0.038l-0.76-0.451l-3.223-1.856l-0.115-0.041l-1.252-0.718l-0.038-0.045l-5.312-3.066l-0.037-0.039
			l-0.074-0.036l-5.197-3l-0.115-0.071h-0.037l-3.149-1.826l-0.226-0.147l-1.293-0.727l-0.682-0.415l-0.074-0.033l-2.504-1.449
			l-0.152-0.111l-0.341-0.192l-0.381-0.222l-0.493-0.268l-1.022-0.604l-0.456-0.267h-0.041l-2.731-1.596l-0.911-0.497l-1.478-0.866
			l-0.189-0.119l-0.114-0.075l-5.309-3.074h-0.041l-0.415-0.266l-1.404-0.826h-0.036l-1.027-0.611l-2.353-1.363l-0.114-0.045
			l-0.227-0.145l-0.152-0.078l-4.893-2.844l-1.479-0.871l-2.583-1.486l-2.197-1.249l-0.418-0.226l-3.793-2.2l-6.524-3.793
			c-0.041-0.037-0.078-0.081-0.115-0.081l-5.009-2.883l-14.87-8.569l-0.607-0.344l-2.16-1.249l-1.785-1.026l-1.667-0.981
			l-1.137-0.648l-1.444-0.836l-3.753-2.197l-0.152-0.078l-10.395-6.027l-0.378-0.233l-0.686-0.378l-2.541-1.441l-3.112-1.781
			l-0.341-0.192l-1.896-1.097l-0.037-0.038l-0.304-0.192h-0.037l-0.456-0.267h-0.037l-1.178-0.682l-2.768-1.593
			c-0.036-0.038-0.036-0.038-0.077-0.038l-7.053-4.093l-3.872-2.241l-8.001-4.668l-0.345-0.188l-0.755-0.456
			c0,0-0.041,0-0.078-0.033l-1.063-0.612l-2.008-1.141l-3.112-1.814l-0.226-0.156h-0.041c0,0,0,0-0.037,0l-1.859-1.096l-2.653-1.52
			l-2.582-1.482l-4.626-2.688l-0.378-0.228h-0.041l-1.252-0.722l-1.552-0.912h-0.041l-1.63-0.946l-3.756-2.161l-0.304-0.156
			l-0.111-0.076V148.243l2.956-1.704l6.031-3.488l1.367-0.802l12.821-7.394l4.023-2.312l21.924-12.672h0.041l3.449-1.976
			l3.986-2.347l6.902-3.988h0.041l3.297-1.934l13.773-7.891l2.427-1.438l3.567-2.052l0.645-0.338l6.294-3.602l2.96-1.713l1.44-0.83
			l1.671-0.989l2.542-1.479l1.629-0.983l1.976-1.143l1.896-1.06l2.237-1.287l4.512-2.584l2.62-1.556l2.845-1.628l2.467-1.406h0.038
			l0.189-0.111l1.629-0.948l20.068-11.571l0.419-0.231l0.303-0.184l1.022-0.609l20.942-12.103l2.086-1.21l5.464-3.148l1.934,1.132
			l4.135,2.395l10.851,6.261l11.721,6.785l9.862,5.69l0.833,0.498l17.794,10.237l3.719,2.164l19.46,11.23l3.453,1.975l3.941,2.312
			l8.728,4.97l3.302,1.896l2.615,1.515l3.148,1.82l1.86,1.069l2.199,1.287l1.138,0.645l3.034,1.741l0.341,0.231l6.868,3.944
			l8.194,4.705l4.246,2.463l1.896,1.106l0.151,0.111v0.035l0.989,0.534l2.501,1.478l5.541,3.186l7.358,4.25l2.96,1.666l1.667,0.948
			l1.859,1.069l5.501,3.185l0.646,0.377l3.223,1.86L426.928,148.243z"/>
		
			<linearGradient id="Oval_1_" gradientUnits="userSpaceOnUse" x1="125.6846" y1="272.0225" x2="378.582" y2="272.0225" gradientTransform="matrix(-1 0 0 -1 504.2676 544.0449)">
			<stop  offset="0" style="stop-color:#FFCE08"/>
			<stop  offset="1" style="stop-color:#3E00FF"/>
		</linearGradient>
		<path id="Oval" opacity="0.44" fill="url(#Oval_1_)" enable-background="new    " d="M252.137,398.471
			c-69.838,0-126.452-56.613-126.452-126.451c0-69.833,56.613-126.446,126.452-126.446c69.833,0,126.446,56.613,126.446,126.446
			C378.583,341.857,321.97,398.471,252.137,398.471z"/>
		<g id="Group" transform="translate(26.000000, 31.000000)">
			<polyline id="Shape_1_" fill="#FFFFFF" points="170.892,347.303 154.057,347.081 154.216,339.968 170.179,339.812 			"/>
			<linearGradient id="Shape_119_" gradientUnits="userSpaceOnUse" x1="223.9194" y1="231.3018" x2="156.2684" y2="231.3018">
				<stop  offset="0" style="stop-color:#8E2ABE"/>
				<stop  offset="1" style="stop-color:#F9006C"/>
			</linearGradient>
			<polyline id="Shape_3_" fill="url(#Shape_119_)" points="167.334,278.962 160.538,297.609 176.029,305.826 185.828,292.55 
				224.079,327.482 226.45,144.131 211.987,144.369 203.452,135.122 189.7,138.916 173.261,157.883 164.412,176.85 163.146,191.629 
				152.32,184.596 148.446,205.618 151.788,232.943 166.783,263.23 			"/>
			<polyline id="Shape_4_" fill="#FFFFFF" points="188.516,305.826 183.418,318.037 190.768,320.289 195.391,311.753 			"/>
			<polyline id="Shape_5_" fill="#FFFFFF" points="180.217,324.438 191.242,324.675 192.064,330.046 180.043,330.046 			"/>
		</g>
		<g id="Group_1_" transform="translate(46.000000, 31.000000)">
			<linearGradient id="Shape_120_" gradientUnits="userSpaceOnUse" x1="258.2139" y1="344.1504" x2="275.0508" y2="344.1504">
				<stop  offset="0" style="stop-color:#FF19FF"/>
				<stop  offset="1" style="stop-color:#000000"/>
			</linearGradient>
			<polyline id="Shape_6_" fill="url(#Shape_120_)" points="258.214,347.896 275.051,347.673 274.888,340.56 258.929,340.405 			"/>
			<linearGradient id="Shape_121_" gradientUnits="userSpaceOnUse" x1="256.8691" y1="321.9111" x2="272.6807" y2="321.9111">
				<stop  offset="0" style="stop-color:#FF19FF"/>
				<stop  offset="1" style="stop-color:#000000"/>
			</linearGradient>
			<polyline id="Shape_7_" fill="url(#Shape_121_)" points="272.681,332.188 259.878,333.922 256.869,311.323 269.835,309.9 			"/>
			<linearGradient id="Shape_122_" gradientUnits="userSpaceOnUse" x1="202.6562" y1="231.7363" x2="280.6602" y2="231.7363">
				<stop  offset="0" style="stop-color:#8E2ABE"/>
				<stop  offset="1" style="stop-color:#F9006C"/>
			</linearGradient>
			<polyline id="Shape_8_" fill="url(#Shape_122_)" points="261.774,279.554 268.568,298.201 253.075,306.42 243.281,293.142 
				204.198,327.758 202.656,144.724 217.119,144.96 225.654,135.714 239.406,139.507 255.847,158.475 264.693,177.442 
				265.96,192.222 276.785,185.189 280.66,206.21 277.318,233.535 262.322,263.824 			"/>
			<linearGradient id="Shape_123_" gradientUnits="userSpaceOnUse" x1="233.7158" y1="313.6504" x2="245.6885" y2="313.6504">
				<stop  offset="0" style="stop-color:#FF19FF"/>
				<stop  offset="1" style="stop-color:#000000"/>
			</linearGradient>
			<polyline id="Shape_9_" fill="url(#Shape_123_)" points="240.591,306.42 245.688,318.629 238.339,320.882 233.716,312.347 			"/>
			<linearGradient id="Shape_124_" gradientUnits="userSpaceOnUse" x1="237.043" y1="327.8359" x2="249.0635" y2="327.8359">
				<stop  offset="0" style="stop-color:#FF19FF"/>
				<stop  offset="1" style="stop-color:#000000"/>
			</linearGradient>
			<polyline id="Shape_10_" fill="url(#Shape_124_)" points="248.89,325.031 237.864,325.269 237.043,330.64 249.063,330.64 			"/>
		</g>
		<g id="Group_3_" transform="translate(46.000000, 31.000000)">
			
				<linearGradient id="Shape_125_" gradientUnits="userSpaceOnUse" x1="282.9336" y1="343.3682" x2="299.7715" y2="343.3682" gradientTransform="matrix(-1 0 0 1 432.9961 0)">
				<stop  offset="0" style="stop-color:#FF19FF"/>
				<stop  offset="1" style="stop-color:#000000"/>
			</linearGradient>
			<polyline id="Shape_118_" fill="url(#Shape_125_)" points="149.347,339.622 133.389,339.778 133.225,346.892 150.063,347.114 			
				"/>
			
				<linearGradient id="Shape_126_" gradientUnits="userSpaceOnUse" x1="281.5889" y1="321.1289" x2="297.3994" y2="321.1289" gradientTransform="matrix(-1 0 0 1 432.9961 0)">
				<stop  offset="0" style="stop-color:#FF19FF"/>
				<stop  offset="1" style="stop-color:#000000"/>
			</linearGradient>
			<polyline id="Shape_117_" fill="url(#Shape_126_)" points="138.441,309.119 151.407,310.543 148.399,333.14 135.597,331.406 			
				"/>
			
				<linearGradient id="Shape_127_" gradientUnits="userSpaceOnUse" x1="227.376" y1="230.9531" x2="305.3789" y2="230.9531" gradientTransform="matrix(-1 0 0 1 432.9961 0)">
				<stop  offset="0" style="stop-color:#8E2ABE"/>
				<stop  offset="1" style="stop-color:#F9006C"/>
			</linearGradient>
			<polyline id="Shape_116_" fill="url(#Shape_127_)" points="145.954,263.042 130.958,232.754 127.617,205.428 131.492,184.407 
				142.316,191.44 143.583,176.661 152.43,157.694 168.871,138.727 182.623,134.933 191.157,144.18 205.62,143.942 204.079,326.975 
				164.996,292.36 155.201,305.637 139.708,297.421 146.503,278.772 			"/>
			
				<linearGradient id="Shape_128_" gradientUnits="userSpaceOnUse" x1="258.4346" y1="312.8691" x2="270.4082" y2="312.8691" gradientTransform="matrix(-1 0 0 1 432.9961 0)">
				<stop  offset="0" style="stop-color:#FF19FF"/>
				<stop  offset="1" style="stop-color:#000000"/>
			</linearGradient>
			<polyline id="Shape_115_" fill="url(#Shape_128_)" points="174.562,311.564 169.938,320.101 162.588,317.848 167.686,305.637 			
				"/>
			
				<linearGradient id="Shape_129_" gradientUnits="userSpaceOnUse" x1="261.7617" y1="327.0527" x2="273.7832" y2="327.0527" gradientTransform="matrix(-1 0 0 1 432.9961 0)">
				<stop  offset="0" style="stop-color:#FF19FF"/>
				<stop  offset="1" style="stop-color:#000000"/>
			</linearGradient>
			<polyline id="Shape_2_" fill="url(#Shape_129_)" points="159.213,329.857 171.234,329.857 170.412,324.485 159.387,324.248 			
				"/>
		</g>
		<polyline id="Shape_11_" fill="#FFFFFF" points="140.424,244.599 156.783,228.002 160.577,234.642 158.917,241.991 
			152.16,247.208 145.284,247.088 		"/>
		<g id="Group_2_" transform="translate(15.000000, 10.000000)">
			<path id="Shape_12_" fill="#120E3B" d="M273.829,226.618h-0.012l-76.748-0.562c-0.133,0-0.259-0.029-0.383-0.072l-11.673-4.528
				c-0.41-0.156-0.673-0.543-0.673-0.967v-8.13c0-13.416,5.326-26.03,14.999-35.519c9.672-9.482,22.535-14.71,36.214-14.71
				c13.677,0,26.539,5.228,36.216,14.71c9.669,9.489,14.996,22.104,14.996,35.519v8.13c0,0.413-0.252,0.787-0.638,0.954
				l-11.869,5.088C274.122,226.584,273.974,226.618,273.829,226.618z M197.285,223.972l76.33,0.558l11.024-4.724v-7.448
				c0-26.548-22.016-48.143-49.085-48.143c-27.07,0-49.088,21.594-49.088,48.143v7.423L197.285,223.972z"/>
			<path id="Shape_13_" fill="#11083A" d="M278.104,369.105h-85.103c-0.591,0-1.072-0.478-1.072-1.066s0.481-1.062,1.072-1.062
				h85.103c0.594,0,1.075,0.474,1.075,1.062S278.697,369.105,278.104,369.105z"/>
			<path id="Shape_14_" fill="#11083A" d="M335.084,369.105h-13.178c-0.548,0-1-0.478-1-1.066s0.452-1.062,1-1.062h13.178
				c0.552,0,0.997,0.474,0.997,1.062S335.636,369.105,335.084,369.105z"/>
			<path id="Shape_15_" fill="#11083A" d="M152.966,369.105h-16.915c-0.567,0-1.025-0.478-1.025-1.066s0.458-1.062,1.025-1.062
				h16.915c0.566,0,1.027,0.474,1.027,1.062S153.532,369.105,152.966,369.105z"/>
			<path id="Shape_16_" fill="#FFCC2E" d="M301.939,224.721c0,1.046-0.853,1.896-1.896,1.896c-1.045,0-1.897-0.85-1.897-1.896
				c0-1.047,0.853-1.897,1.897-1.897C301.087,222.824,301.939,223.674,301.939,224.721"/>
			<path id="Shape_17_" fill="#11083A" d="M301.939,230.411c-2.097,0-3.794-1.702-3.794-3.793c0-2.095,1.697-3.794,3.794-3.794
				c2.089,0,3.793,1.699,3.793,3.794C305.732,228.709,304.028,230.411,301.939,230.411z M301.939,225.394
				c-0.675,0-1.223,0.55-1.223,1.224c0,0.674,0.548,1.219,1.223,1.219c0.678,0,1.222-0.545,1.222-1.219
				C303.161,225.943,302.617,225.394,301.939,225.394z"/>
			<path id="Shape_18_" fill="#11083A" d="M304.6,234.204h-5.312c-0.312,0-0.615-0.128-0.83-0.344l-3.757-3.755
				c-0.227-0.221-0.348-0.52-0.348-0.83v-5.315c0-0.31,0.121-0.61,0.348-0.836l3.757-3.752c0.215-0.219,0.519-0.341,0.83-0.341
				h5.312c0.311,0,0.606,0.122,0.829,0.341l3.753,3.752c0.223,0.226,0.344,0.526,0.344,0.836v5.315c0,0.31-0.121,0.609-0.344,0.83
				l-3.753,3.755C305.206,234.076,304.91,234.204,304.6,234.204z M299.775,231.851h4.335l3.06-3.068v-4.336l-3.06-3.062h-4.335
				l-3.067,3.062v4.336L299.775,231.851z"/>
			<path id="Shape_19_" fill="#11083A" d="M233.402,348.01c-0.218,0-0.435-0.068-0.622-0.201
				c-0.232-0.162-23.373-17.059-43.687-42.97c-11.953-15.239-20.614-30.587-25.737-45.604c-6.433-18.837-7.3-37.205-2.567-54.597
				c0.095-0.342,0.348-0.615,0.682-0.726c0.337-0.115,0.7-0.052,0.983,0.17c22.804,17.795,46.755,26.821,71.202,26.821
				c24.458,0,48.419-9.026,71.217-26.821c0.281-0.222,0.645-0.285,0.985-0.17c0.334,0.111,0.589,0.384,0.682,0.726
				c4.731,17.393,3.838,35.76-2.645,54.597c-5.173,15.022-13.9,30.364-25.925,45.604c-20.449,25.914-43.727,42.808-43.955,42.977
				C233.829,347.941,233.612,348.01,233.402,348.01z M162.425,206.728c-9.537,37.901,10.043,73.469,28.294,96.759
				c18.289,23.332,38.888,39.298,42.684,42.15c3.803-2.853,24.534-18.812,42.942-42.15c18.378-23.293,38.094-58.858,28.562-96.759
				c-12.289,9.402-25.084,16.372-38.065,20.745c-10.936,3.681-22.105,5.546-33.186,5.546s-22.245-1.865-33.183-5.546
				C187.507,223.1,174.713,216.13,162.425,206.728z"/>
			<path id="Shape_20_" fill="#11083A" d="M258.899,302.487h-42.897c-9.095,0-16.487-7.66-16.487-17.071
				c0-9.416,7.392-17.07,16.487-17.07h42.897c9.091,0,16.485,7.654,16.485,17.07C275.385,294.827,267.99,302.487,258.899,302.487z
				 M216.002,270.547c-7.918,0-14.361,6.672-14.361,14.869c0,8.202,6.442,14.87,14.361,14.87h42.897
				c7.913,0,14.355-6.668,14.355-14.87c0-8.197-6.442-14.869-14.355-14.869H216.002z"/>
			<rect id="Rectangle-path" x="210.896" y="302.487" fill="#120E3B" width="49.315" height="15.174"/>
			<path id="Shape_21_" fill="#11083A" d="M259.166,313.868H211.94c-0.572,0-1.044-0.438-1.044-0.985v-13.212
				c0-0.537,0.472-0.977,1.044-0.977h47.226c0.578,0,1.045,0.439,1.045,0.977v13.212
				C260.211,313.43,259.744,313.868,259.166,313.868z M212.985,311.904h45.136v-11.248h-45.136V311.904z"/>
			<linearGradient id="Shape_130_" gradientUnits="userSpaceOnUse" x1="210.896" y1="310.0742" x2="256.418" y2="310.0742">
				<stop  offset="0" style="stop-color:#FFCE08"/>
				<stop  offset="1" style="stop-color:#3E00FF"/>
			</linearGradient>
			<path id="Shape_22_" fill="url(#Shape_130_)" d="M255.38,313.868c-1.822,0-2.652-1.786-3.323-3.231
				c-0.566-1.215-0.951-1.963-1.5-1.963s-0.934,0.748-1.504,1.963c-0.666,1.445-1.501,3.231-3.323,3.231
				c-1.826,0-2.656-1.786-3.323-3.231c-0.57-1.215-0.955-1.963-1.504-1.963c-0.552,0-0.938,0.748-1.5,1.963
				c-0.674,1.445-1.504,3.231-3.33,3.231c-1.823,0-2.656-1.786-3.323-3.231c-0.57-1.215-0.956-1.963-1.502-1.963
				s-0.936,0.748-1.504,1.963c-0.668,1.445-1.496,3.231-3.324,3.231c-1.826,0-2.658-1.786-3.323-3.231
				c-0.573-1.215-0.958-1.963-1.504-1.963c-0.55,0-0.939,0.748-1.504,1.963c-0.668,1.445-1.5,3.231-3.327,3.231
				c-1.825,0-2.656-1.786-3.325-3.231c-0.569-1.215-0.952-1.963-1.5-1.963c-0.575,0-1.039-0.532-1.039-1.192
				c0-0.664,0.464-1.201,1.039-1.201c1.82,0,2.652,1.786,3.324,3.23c0.565,1.216,0.955,1.964,1.5,1.964
				c0.55,0,0.932-0.748,1.506-1.964c0.663-1.444,1.499-3.23,3.325-3.23c1.824,0,2.654,1.786,3.324,3.23
				c0.567,1.216,0.953,1.964,1.503,1.964c0.548,0,0.931-0.748,1.504-1.964c0.667-1.444,1.5-3.23,3.325-3.23
				c1.823,0,2.654,1.786,3.323,3.23c0.569,1.216,0.954,1.964,1.503,1.964c0.552,0,0.937-0.748,1.504-1.964
				c0.666-1.444,1.496-3.23,3.326-3.23c1.822,0,2.652,1.786,3.319,3.23c0.571,1.216,0.956,1.964,1.508,1.964
				c0.544,0,0.931-0.748,1.504-1.964c0.663-1.444,1.493-3.23,3.323-3.23c1.822,0,2.652,1.786,3.319,3.23
				c0.57,1.216,0.956,1.964,1.504,1.964c0.571,0,1.038,0.532,1.038,1.192C256.418,313.334,255.951,313.868,255.38,313.868z"/>
			<rect id="Rectangle-path_1_" x="298.146" y="127.987" fill="#11083A" width="3.794" height="83.457"/>
			<rect id="Rectangle-path_2_" x="172.96" y="150.748" fill="#11083A" width="3.794" height="60.696"/>
			<rect id="Rectangle-path_3_" x="233.656" y="272.139" fill="#11083A" width="3.794" height="30.349"/>
			<path id="Shape_23_" fill="#11083A" d="M298.146,215.237h-2.127c0-34.352-27.124-62.298-60.465-62.298
				c-33.342,0-60.466,27.946-60.466,62.298h-2.127c0-8.706,1.659-17.152,4.92-25.1c3.153-7.682,7.669-14.579,13.411-20.499
				c5.751-5.922,12.445-10.573,19.897-13.822c7.718-3.36,15.917-5.067,24.365-5.067c8.446,0,16.647,1.708,24.364,5.067
				c7.449,3.249,14.148,7.9,19.897,13.822c5.746,5.92,10.258,12.817,13.411,20.499C296.493,198.085,298.146,206.531,298.146,215.237
				z"/>
			<linearGradient id="Shape_131_" gradientUnits="userSpaceOnUse" x1="210.896" y1="289.209" x2="222.2759" y2="289.209">
				<stop  offset="0" style="stop-color:#FFCE08"/>
				<stop  offset="1" style="stop-color:#3E00FF"/>
			</linearGradient>
			<path id="Shape_24_" fill="url(#Shape_131_)" d="M210.896,289.209c0,3.146,2.548,5.69,5.688,5.69c3.144,0,5.692-2.544,5.692-5.69
				c0-3.145-2.548-5.689-5.692-5.689C213.444,283.52,210.896,286.064,210.896,289.209"/>
			<path id="Shape_25_" fill="#120E3B" d="M216.584,291.106c-3.132,0-5.688-2.552-5.688-5.69c0-3.138,2.556-5.689,5.688-5.689
				c3.136,0,5.692,2.552,5.692,5.689C222.276,288.555,219.72,291.106,216.584,291.106z M216.584,281.786
				c-1.995,0-3.622,1.63-3.622,3.63c0,2.001,1.627,3.624,3.622,3.624c2.002,0,3.628-1.623,3.628-3.624
				C220.212,283.416,218.586,281.786,216.584,281.786z"/>
			<linearGradient id="Shape_132_" gradientUnits="userSpaceOnUse" x1="252.623" y1="289.209" x2="264.0039" y2="289.209">
				<stop  offset="0" style="stop-color:#FFCE08"/>
				<stop  offset="1" style="stop-color:#3E00FF"/>
			</linearGradient>
			<path id="Shape_26_" fill="url(#Shape_132_)" d="M252.623,289.209c0,3.146,2.55,5.69,5.691,5.69s5.689-2.544,5.689-5.69
				c0-3.145-2.548-5.689-5.689-5.689S252.623,286.064,252.623,289.209"/>
			<path id="Shape_27_" fill="#120E3B" d="M258.314,291.106c-3.135,0-5.691-2.552-5.691-5.69c0-3.138,2.557-5.689,5.691-5.689
				s5.689,2.552,5.689,5.689C264.004,288.555,261.449,291.106,258.314,291.106z M258.314,281.786c-1.993,0-3.627,1.63-3.627,3.63
				c0,2.001,1.634,3.624,3.627,3.624c2,0,3.627-1.623,3.627-3.624C261.941,283.416,260.314,281.786,258.314,281.786z"/>
			<path id="Shape_28_" fill="#11083A" d="M164.264,256.965c-0.285,0-0.566-0.111-0.785-0.324l-20.54-20.544
				c-0.436-0.436-0.436-1.133,0-1.567c0.428-0.431,1.133-0.431,1.564,0l20.545,20.541c0.432,0.437,0.432,1.133,0,1.571
				C164.834,256.854,164.549,256.965,164.264,256.965z"/>
			<path id="Shape_29_" fill="#11083A" d="M147.455,253.172c-0.263,0-0.532-0.104-0.742-0.307c-0.408-0.416-0.408-1.083,0-1.494
				l13.07-13.066c0.411-0.41,1.078-0.41,1.487,0c0.416,0.412,0.416,1.082,0.004,1.488l-13.07,13.072
				C147.998,253.067,147.729,253.172,147.455,253.172z"/>
			<path id="Shape_30_" fill="#5DBF8F" d="M147.275,253.172c-0.219,0-0.439-0.084-0.617-0.256c-0.335-0.344-0.335-0.894,0-1.233
				l5.848-5.843c0.336-0.34,0.892-0.34,1.231,0c0.341,0.345,0.341,0.895,0.004,1.234l-5.848,5.842
				C147.726,253.088,147.503,253.172,147.275,253.172z"/>
			<path id="Shape_31_" fill="#11083A" d="M139.992,249.379c-0.302,0-0.599-0.115-0.829-0.348c-0.459-0.457-0.459-1.197,0-1.66
				l16.619-16.617c0.459-0.458,1.202-0.458,1.658,0c0.462,0.461,0.462,1.203,0,1.657l-16.621,16.62
				C140.592,249.264,140.291,249.379,139.992,249.379z"/>
			<path id="Shape_32_" fill="#5DBF8F" d="M139.683,245.584c-0.222,0-0.444-0.081-0.611-0.252c-0.336-0.333-0.336-0.881,0-1.214
				l5.868-5.868c0.332-0.336,0.878-0.336,1.215,0c0.336,0.34,0.336,0.881,0,1.216l-5.864,5.866
				C140.122,245.503,139.902,245.584,139.683,245.584z"/>
			<path id="Shape_33_" fill="#11083A" d="M133.259,237.999c-3.514,0-6.812-1.368-9.296-3.851c-0.423-0.426-0.423-1.109,0-1.536
				l17.053-17.054c0.208-0.207,0.483-0.321,0.771-0.321c0.288,0,0.565,0.114,0.767,0.321c2.482,2.484,3.853,5.787,3.853,9.293
				c0,3.516-1.371,6.813-3.853,9.297C140.07,236.63,136.773,237.999,133.259,237.999z M126.304,233.34
				c1.954,1.614,4.386,2.484,6.955,2.484c2.93,0,5.685-1.136,7.757-3.212c2.077-2.073,3.219-4.828,3.219-7.761
				c0-2.566-0.877-4.997-2.488-6.952L126.304,233.34z"/>
			<path id="Shape_34_" fill="#11083A" d="M130.245,226.618c-0.252,0-0.506-0.096-0.698-0.293l-13.199-13.191
				c-0.385-0.386-0.385-1.015,0-1.401c0.389-0.386,1.015-0.386,1.396,0l13.199,13.196c0.386,0.381,0.386,1.012,0,1.396
				C130.751,226.521,130.499,226.618,130.245,226.618z"/>
			<path id="Shape_35_" fill="#5DBF8F" d="M119.851,207.65c-2.096,0-3.792,1.701-3.792,3.793c0,2.096,1.696,3.793,3.792,3.793
				c2.095,0,3.795-1.697,3.795-3.793C123.646,209.351,121.945,207.65,119.851,207.65"/>
			<path id="Shape_36_" fill="#11083A" d="M202.16,351.803h-12.888c-0.321,0-0.627-0.119-0.841-0.342
				c-0.214-0.217-0.321-0.514-0.29-0.8l0.572-5.501c0.051-0.537,0.542-0.945,1.132-0.945h11.743c0.593,0,1.085,0.408,1.141,0.945
				l0.577,5.501c0.027,0.286-0.08,0.583-0.299,0.8C202.789,351.684,202.482,351.803,202.16,351.803z M190.531,349.706h10.375
				l-0.354-3.401h-9.667L190.531,349.706z"/>
			<polygon id="Shape_37_" fill="#120E3B" points="203.309,351.803 191.929,351.803 192.434,354.13 202.803,354.13 			"/>
			<path id="Shape_38_" fill="#11083A" d="M201.592,355.596h-11.746c-0.528,0-0.992-0.292-1.111-0.703l-0.573-1.979
				c-0.075-0.268,0.004-0.553,0.222-0.771c0.216-0.214,0.542-0.34,0.89-0.34h12.888c0.35,0,0.679,0.126,0.898,0.34
				c0.215,0.219,0.298,0.504,0.219,0.771l-0.569,1.979C202.588,355.304,202.131,355.596,201.592,355.596z M190.759,353.788h9.926
				l0.049-0.175h-10.026L190.759,353.788z"/>
			<path id="Shape_39_" fill="#11083A" d="M201.571,340.422c-0.074,0-0.145-0.008-0.221-0.021l-8.517-1.475
				c-0.324-0.06-0.604-0.237-0.763-0.497c-0.162-0.252-0.189-0.556-0.067-0.829l8.693-19.938l2.104,0.711l-8.214,18.838l6.377,1.107
				l7.939-13.276l1.994,0.926l-8.327,13.926C202.37,340.227,201.982,340.422,201.571,340.422z"/>
			<path id="Shape_40_" fill="#FFFFFF" d="M196.833,340.422l-1.111,3.793"/>
			
				<rect id="Rectangle-path_4_" x="195.721" y="340.422" transform="matrix(-0.2345 0.9721 -0.9721 -0.2345 576.7375 230.4977)" fill="#11083A" width="3.795" height="3.794"/>
			<path id="Shape_41_" fill="#11083A" d="M185.416,329.041c-0.137,0-0.282-0.033-0.418-0.099l-15.243-7.262
				c-0.462-0.227-0.696-0.774-0.537-1.285l9.068-29.289l1.921,0.652l-8.793,28.392l13.64,6.498l8.989-13.981l1.679,1.175
				l-9.467,14.733C186.062,328.879,185.745,329.041,185.416,329.041z"/>
			<polygon id="Shape_48_" fill="#120E3B" points="184.341,366.977 165.374,366.977 165.95,370.039 183.761,370.039 			"/>
			<path id="Shape_49_" fill="#11083A" d="M182.787,370.77h-15.863c-0.501,0-0.932-0.274-1.019-0.644l-0.515-2.237
				c-0.056-0.228,0.028-0.46,0.222-0.634c0.201-0.179,0.491-0.278,0.799-0.278h16.891c0.308,0,0.597,0.1,0.794,0.278
				c0.198,0.174,0.286,0.406,0.228,0.634l-0.52,2.237C183.721,370.495,183.291,370.77,182.787,370.77z M167.8,369.214h14.113
				l0.159-0.682h-14.432L167.8,369.214z"/>
			
				<rect id="Rectangle-path_7_" x="180.547" y="313.867" transform="matrix(-0.229 0.9734 -0.9734 -0.229 543.2494 201.2342)" fill="#11083A" width="22.763" height="3.795"/>
			
				<rect id="Rectangle-path_8_" x="165.374" y="310.074" transform="matrix(-0.6 0.8 -0.8 -0.6 535.4164 356.248)" fill="#11083A" width="26.554" height="3.793"/>
			<path id="Shape_50_" fill="#11083A" d="M281.835,351.803h-12.889c-0.322,0-0.63-0.119-0.845-0.342
				c-0.223-0.217-0.326-0.514-0.3-0.8l0.574-5.501c0.059-0.537,0.548-0.945,1.142-0.945h11.742c0.593,0,1.082,0.408,1.142,0.945
				l0.562,5.501c0.033,0.286-0.073,0.583-0.288,0.8C282.461,351.684,282.156,351.803,281.835,351.803z M270.199,349.706h10.376
				l-0.353-3.401h-9.669L270.199,349.706z"/>
			<polygon id="Shape_51_" fill="#120E3B" points="267.798,351.803 279.179,351.803 278.675,354.13 268.302,354.13 			"/>
			<path id="Shape_52_" fill="#11083A" d="M281.26,355.596h-11.742c-0.542,0-1.001-0.292-1.12-0.703l-0.57-1.979
				c-0.081-0.268,0.004-0.553,0.219-0.771c0.219-0.214,0.548-0.34,0.896-0.34h12.888c0.349,0,0.675,0.126,0.89,0.34
				c0.222,0.219,0.3,0.504,0.222,0.771l-0.57,1.979C282.253,355.304,281.786,355.596,281.26,355.596z M270.421,353.788h9.928
				l0.048-0.175h-10.023L270.421,353.788z"/>
			<path id="Shape_53_" fill="#11083A" d="M269.539,340.422c-0.411,0-0.804-0.195-1-0.529l-8.328-13.926l1.993-0.926l7.935,13.276
				l6.38-1.107l-8.213-18.838l2.101-0.711l8.697,19.938c0.119,0.273,0.097,0.577-0.065,0.829c-0.164,0.26-0.441,0.438-0.768,0.497
				l-8.517,1.475C269.68,340.414,269.605,340.422,269.539,340.422z"/>
			
				<rect id="Rectangle-path_9_" x="271.591" y="340.421" transform="matrix(-0.9722 0.2342 -0.2342 -0.9722 619.5496 611.0548)" fill="#11083A" width="3.794" height="3.795"/>
			<path id="Shape_54_" fill="#11083A" d="M281.901,329.041c-0.334,0-0.648-0.162-0.841-0.466l-9.47-14.733l1.679-1.175l8.99,13.981
				l13.641-6.498l-8.794-28.392l1.919-0.652l9.068,29.289c0.163,0.511-0.07,1.059-0.533,1.285l-15.245,7.262
				C282.179,329.008,282.034,329.041,281.901,329.041z"/>
			<path id="Shape_55_" fill="#11083A" d="M290.818,355.596c-0.245,0-0.482-0.078-0.682-0.223c-0.223-0.174-0.379-0.433-0.412-0.711
				l-2.952-22.746c-0.074-0.581,0.356-1.115,0.956-1.189l13.814-1.679c0.285-0.033,0.582,0.042,0.818,0.216
				c0.223,0.171,0.37,0.43,0.411,0.712l2.953,22.737c0.073,0.591-0.356,1.116-0.964,1.189l-13.803,1.687
				C290.906,355.596,290.862,355.596,290.818,355.596z M289.099,332.713l2.676,20.624l11.616-1.42l-2.666-20.62L289.099,332.713z"/>
			<path id="Shape_56_" fill="#5DBF8F" d="M295.723,350.557c-0.688,0-1.285-0.399-1.363-0.946c-0.085-0.582,0.46-1.113,1.208-1.176
				l4.842-0.418c0.749-0.066,1.434,0.354,1.522,0.94c0.074,0.585-0.463,1.11-1.215,1.174l-4.842,0.42
				C295.823,350.557,295.771,350.557,295.723,350.557z"/>
			<path id="Shape_57_" fill="#5DBF8F" d="M295.719,346.764c-0.688,0-1.281-0.402-1.359-0.948c-0.081-0.585,0.455-1.111,1.208-1.178
				l4.846-0.414c0.756-0.066,1.43,0.354,1.519,0.94c0.085,0.582-0.467,1.107-1.215,1.174l-4.838,0.42
				C295.823,346.761,295.774,346.764,295.719,346.764z"/>
			<path id="Shape_58_" fill="#5DBF8F" d="M295.723,342.971c-0.688,0-1.281-0.404-1.363-0.945c-0.081-0.585,0.46-1.114,1.215-1.177
				l4.839-0.42c0.756-0.066,1.438,0.354,1.519,0.942c0.085,0.585-0.455,1.11-1.207,1.177l-4.846,0.418
				C295.826,342.966,295.774,342.971,295.723,342.971z"/>
			<path id="Shape_59_" fill="#5DBF8F" d="M295.723,335.384c-0.688,0-1.285-0.403-1.363-0.949c-0.085-0.585,0.455-1.111,1.215-1.177
				l4.839-0.415c0.752-0.066,1.43,0.352,1.519,0.94c0.085,0.582-0.455,1.107-1.215,1.174l-4.838,0.423
				C295.823,335.38,295.774,335.384,295.723,335.384z"/>
			<path id="Shape_60_" fill="#11083A" d="M304.691,366.977h-16.889c-0.293,0-0.567-0.104-0.764-0.289
				c-0.195-0.178-0.289-0.423-0.273-0.667l0.522-5.812c0.04-0.463,0.492-0.819,1.029-0.819h15.858c0.542,0,0.994,0.356,1.034,0.819
				l0.519,5.812c0.022,0.244-0.073,0.489-0.273,0.667C305.259,366.873,304.984,366.977,304.691,366.977z M288.922,365.201h14.655
				l-0.363-4.038h-13.93L288.922,365.201z"/>
			<polygon id="Shape_61_" fill="#120E3B" points="290.559,366.977 309.525,366.977 308.947,370.039 291.137,370.039 			"/>
			<path id="Shape_62_" fill="#11083A" d="M304.184,370.77h-15.862c-0.508,0-0.934-0.274-1.019-0.644l-0.522-2.237
				c-0.056-0.228,0.029-0.46,0.229-0.634c0.2-0.179,0.488-0.278,0.793-0.278h16.893c0.304,0,0.597,0.1,0.796,0.278
				c0.196,0.174,0.278,0.406,0.227,0.634l-0.515,2.237C305.11,370.495,304.681,370.77,304.184,370.77z M289.195,369.214h14.107
				l0.163-0.682h-14.434L289.195,369.214z"/>
			<polygon id="Rectangle-path_10_" fill="#11083A" points="289.417,322.288 293.004,321.039 295.493,328.207 291.906,329.456 			
				"/>
			
				<rect id="Rectangle-path_11_" x="298.145" y="351.804" transform="matrix(-0.9985 0.0548 -0.0548 -0.9985 619.1256 694.2101)" fill="#11083A" width="3.795" height="7.582"/>
			<polygon id="Rectangle-path_12_" fill="#11083A" points="276.614,307.021 280.305,306.147 285.535,328.3 281.846,329.174 			"/>
			
				<rect id="Rectangle-path_13_" x="290.559" y="298.693" transform="matrix(-0.7995 0.6007 -0.6007 -0.7995 713.6625 385.7271)" fill="#11083A" width="3.791" height="26.555"/>
			<path id="Shape_63_" fill="#11083A" d="M265.067,260.76c-0.585,0-1.063-0.408-1.063-0.916v-5.756
				c0-0.508,0.479-0.916,1.063-0.916c0.593,0,1.067,0.408,1.067,0.916v5.756C266.135,260.352,265.66,260.76,265.067,260.76z"/>
			<path id="Shape_64_" fill="#11083A" d="M261.277,260.76c-0.588,0-1.066-0.408-1.066-0.916v-5.756
				c0-0.508,0.479-0.916,1.066-0.916c0.589,0,1.063,0.408,1.063,0.916v5.756C262.341,260.352,261.866,260.76,261.277,260.76z"/>
			<path id="Shape_65_" fill="#11083A" d="M265.067,260.76c-0.585,0-1.063-0.408-1.063-0.916v-5.756
				c0-0.508,0.479-0.916,1.063-0.916c0.593,0,1.067,0.408,1.067,0.916v5.756C266.135,260.352,265.66,260.76,265.067,260.76z"/>
			<path id="Shape_66_" fill="#11083A" d="M211.959,260.76c-0.589,0-1.063-0.408-1.063-0.916v-5.756
				c0-0.508,0.474-0.916,1.063-0.916c0.589,0,1.066,0.408,1.066,0.916v5.756C213.025,260.352,212.548,260.76,211.959,260.76z"/>
			<path id="Shape_67_" fill="#11083A" d="M204.372,260.76c-0.589,0-1.063-0.408-1.063-0.916v-5.756
				c0-0.508,0.474-0.916,1.063-0.916c0.592,0,1.066,0.408,1.066,0.916v5.756C205.438,260.352,204.964,260.76,204.372,260.76z"/>
			<path id="Shape_68_" fill="#11083A" d="M211.959,260.76c-0.589,0-1.063-0.408-1.063-0.916v-5.756
				c0-0.508,0.474-0.916,1.063-0.916c0.589,0,1.066,0.408,1.066,0.916v5.756C213.025,260.352,212.548,260.76,211.959,260.76z"/>
			<path id="Shape_69_" fill="#11083A" d="M283.805,287.313h-9.85v-2.09h8.75v-20.017c0-0.57,0.474-1.033,1.071-1.047l9.846-0.208
				v-20.587c0-0.577,0.489-1.045,1.101-1.051l7.824-0.049l-13.752-18.921c-0.34,8.426-2,16.389-5.061,24.248
				c-2.674,6.883-6.327,13.492-11.498,20.794c-2.653,3.748-5.286,7.102-7.836,10.346c-2.252,2.873-4.383,5.588-6.146,8.113
				l-1.837-1.159c1.793-2.573,3.941-5.309,6.215-8.201c2.531-3.228,5.15-6.561,7.77-10.266c7.568-10.696,16.255-25.71,16.255-47.144
				c0-0.458,0.315-0.865,0.778-1c0.464-0.13,0.959,0.029,1.233,0.407l16.87,23.22c0.23,0.319,0.253,0.734,0.071,1.079
				c-0.196,0.344-0.563,0.56-0.975,0.56l-8.81,0.06v20.573c0,0.571-0.474,1.035-1.074,1.045l-9.847,0.212v20.035
				C284.905,286.846,284.408,287.313,283.805,287.313z"/>
			<path id="Shape_70_" fill="#11083A" d="M200.949,287.313h-9.851c-0.609,0-1.104-0.468-1.104-1.048V266.23l-9.847-0.212
				c-0.598-0.01-1.076-0.474-1.076-1.045V244.4l-8.808-0.06c-0.407,0-0.781-0.216-0.97-0.56c-0.191-0.345-0.162-0.76,0.065-1.079
				l16.868-23.22c0.28-0.378,0.778-0.537,1.237-0.407c0.465,0.135,0.778,0.542,0.778,1c0,21.434,8.686,36.448,16.252,47.144
				c2.625,3.705,5.238,7.038,7.772,10.266c2.276,2.893,4.423,5.628,6.216,8.201l-1.836,1.159c-1.763-2.525-3.894-5.24-6.147-8.113
				c-2.552-3.244-5.183-6.598-7.834-10.346c-5.167-7.302-8.824-13.911-11.505-20.794c-3.055-7.859-4.719-15.822-5.06-24.248
				l-13.746,18.921l7.828,0.049c0.605,0.006,1.09,0.474,1.09,1.051v20.587l9.848,0.208c0.598,0.014,1.078,0.477,1.078,1.047v20.017
				h8.75V287.313z"/>
			<path id="Shape_71_" fill="#12103B" d="M252.623,331.168l14.074,1.666l4.894-22.761
				C271.591,310.073,262.875,321.417,252.623,331.168"/>
			<path id="Shape_72_" fill="#120E3B" d="M272.272,332.834l-19.649-1.925l1.898-1.489c11.543-9.077,21.5-19.75,21.601-19.857
				l3.057-3.282L272.272,332.834z M257.895,329.42l12.626,1.233l4.342-16.719C271.317,317.517,264.997,323.651,257.895,329.42z"/>
			<path id="Shape_73_" fill="#12103B" d="M282.972,300.613l9.921,1.874l5.253-22.761
				C298.146,279.727,292.736,289.518,282.972,300.613"/>
			<path id="Shape_74_" fill="#120E3B" d="M291.285,306.28l-12.106-2.63l1.074-1.4c9.046-11.804,14.162-22.35,14.21-22.457
				l3.683-7.654L291.285,306.28z M282.983,302.221l6.649,1.44l3.334-16.593C290.688,291.011,287.316,296.427,282.983,302.221z"/>
			<path id="Shape_75_" fill="#12103B" d="M301.939,270.228l7.016,1.911l0.57-22.76
				C309.525,249.379,306.021,262.736,301.939,270.228"/>
			<path id="Shape_76_" fill="#120E3B" d="M312.416,272.139l-10.477-2.67l0.645-1.12c4.297-7.423,8.079-20.845,8.109-20.972
				l2.626-9.378L312.416,272.139z M305.348,268.168l4.738,1.208l0.352-13.345C309.081,259.922,307.3,264.523,305.348,268.168z"/>
			<path id="Shape_77_" fill="#12103B" d="M214.689,331.168l-14.073,1.666l-4.894-22.761
				C195.722,310.073,204.44,321.417,214.689,331.168"/>
			<path id="Shape_78_" fill="#120E3B" d="M202.625,332.834l-6.903-26.554l3.052,3.279c0.099,0.107,10.071,10.791,21.609,19.86
				l1.893,1.489L202.625,332.834z M200.034,313.931l4.348,16.723l12.627-1.233C209.899,323.651,203.577,317.517,200.034,313.931z"/>
			<path id="Shape_79_" fill="#12103B" d="M188.135,300.613l-9.917,1.874l-5.257-22.761
				C172.96,279.727,178.375,289.518,188.135,300.613"/>
			<path id="Shape_80_" fill="#120E3B" d="M179.818,306.28l-6.858-34.142l3.679,7.647c0.052,0.103,5.171,10.669,14.212,22.464
				l1.077,1.4L179.818,306.28z M178.142,287.065l3.333,16.596l6.646-1.44C183.787,296.422,180.416,291.007,178.142,287.065z"/>
			<path id="Shape_81_" fill="#12103B" d="M169.167,270.228l-7.016,1.911l-0.571-22.76
				C161.581,249.379,165.088,262.736,169.167,270.228"/>
			<path id="Shape_82_" fill="#120E3B" d="M162.486,272.139l-0.906-34.14l2.619,9.373c0.033,0.129,3.816,13.555,8.119,20.978
				l0.643,1.116L162.486,272.139z M164.458,256.024l0.355,13.352l4.742-1.208C167.599,264.523,165.813,259.922,164.458,256.024z"/>
			<path id="Shape_83_" fill="#12103B" d="M210.896,155.098l-8.447-0.556l-2.934,7.587
				C199.516,162.129,204.744,158.348,210.896,155.098"/>
			<path id="Shape_84_" fill="#120E3B" d="M195.722,165.922l4.89-11.38l14.077,0.833l-3.373,1.602
				c-6.792,3.232-12.663,7.037-12.72,7.076L195.722,165.922z M201.999,156.56l-1.793,4.172c1.745-1.045,4.175-2.447,6.922-3.868
				L201.999,156.56z"/>
			<path id="Shape_85_" fill="#12103B" d="M260.211,155.098l8.446-0.556l2.934,7.587
				C271.591,162.129,266.36,158.348,260.211,155.098"/>
			<path id="Shape_86_" fill="#120E3B" d="M275.385,165.922l-2.875-1.869c-0.059-0.039-5.928-3.843-12.721-7.076l-3.371-1.602
				l14.077-0.833L275.385,165.922z M263.982,156.865c2.741,1.42,5.172,2.823,6.916,3.868l-1.793-4.172L263.982,156.865z"/>
			<linearGradient id="Shape_133_" gradientUnits="userSpaceOnUse" x1="223.1216" y1="132.7402" x2="257.5744" y2="109.1969">
				<stop  offset="0" style="stop-color:#FFCE08"/>
				<stop  offset="1" style="stop-color:#3E00FF"/>
			</linearGradient>
			<path id="Shape_87_" fill="url(#Shape_133_)" d="M214.893,152.195l15.661-73.284c0.503-2.353,2.584-4.032,5-4.032
				c2.415,0,4.497,1.68,5.001,4.032l15.658,73.284c1.346,7.133-4.145,13.727-11.432,13.727h-18.456
				C219.044,165.922,213.548,159.328,214.893,152.195"/>
			<path id="Shape_88_" fill="#120E3B" d="M247.03,169.715H227.87c-3.932,0-7.631-1.693-10.141-4.654
				c-2.516-2.958-3.539-6.824-2.811-10.599c0-0.008,0.004-0.019,0.008-0.027l16.254-74.601c0.622-2.871,3.26-4.956,6.27-4.956
				c3.008,0,5.646,2.085,6.269,4.956l16.259,74.601c0,0.008,0.004,0.019,0.004,0.027c0.726,3.774-0.289,7.641-2.809,10.599
				C254.665,168.022,250.965,169.715,247.03,169.715z M217.09,154.873c-0.601,3.141,0.25,6.348,2.337,8.81
				c2.091,2.462,5.171,3.874,8.442,3.874h19.161c3.271,0,6.35-1.412,8.442-3.874c2.086-2.462,2.938-5.669,2.338-8.81l-16.248-74.585
				c-0.416-1.882-2.146-3.247-4.112-3.247c-1.97,0-3.699,1.365-4.106,3.247L217.09,154.873z"/>
			
				<rect id="Rectangle-path_14_" x="233.656" y="131.78" transform="matrix(-0.245 0.9695 -0.9695 -0.245 441.2487 -38.3409)" fill="#120E3B" width="3.795" height="41.73"/>
			
				<rect id="Rectangle-path_15_" x="233.656" y="116.606" transform="matrix(-0.2455 0.9694 -0.9694 -0.2455 422.9745 -61.843)" fill="#120E3B" width="3.794" height="34.142"/>
			
				<rect id="Rectangle-path_16_" x="233.656" y="105.227" transform="matrix(-0.2455 0.9694 -0.9694 -0.2455 410.0961 -78.3844)" fill="#120E3B" width="3.793" height="30.345"/>
			
				<rect id="Rectangle-path_17_" x="233.657" y="93.846" transform="matrix(-0.245 0.9695 -0.9695 -0.245 395.2816 -97.37)" fill="#120E3B" width="3.795" height="22.761"/>
			<polygon id="Shape_89_" fill="#120E3B" points="244.533,93.846 229.863,88.902 230.367,86.259 245.037,91.205 			"/>
			<path id="Shape_90_" fill="#F495A8" d="M291.699,93.933c0.875-0.297,1.823,0.183,2.12,1.069c0.296,0.883-0.171,1.841-1.045,2.134
				c-0.874,0.296-1.83-0.182-2.127-1.065C290.352,95.184,290.818,94.228,291.699,93.933"/>
			<path id="Shape_91_" fill="#F495A8" d="M204.598,109.118c0.991-0.332,2.063,0.208,2.404,1.2c0.336,0.991-0.196,2.065-1.187,2.396
				c-0.99,0.333-2.069-0.203-2.407-1.198C203.074,110.524,203.605,109.449,204.598,109.118"/>
			<linearGradient id="Shape_134_" gradientUnits="userSpaceOnUse" x1="161.5806" y1="107.123" x2="172.9609" y2="107.123">
				<stop  offset="0" style="stop-color:#25E899"/>
				<stop  offset="0.1292" style="stop-color:#22BD88"/>
				<stop  offset="0.3468" style="stop-color:#1D7B6E"/>
				<stop  offset="0.5441" style="stop-color:#1A4659"/>
				<stop  offset="0.7142" style="stop-color:#17204A"/>
				<stop  offset="0.8504" style="stop-color:#160941"/>
				<stop  offset="0.9356" style="stop-color:#15003E"/>
			</linearGradient>
			<path id="Shape_92_" fill="url(#Shape_134_)" d="M161.743,104.363c0.387-0.785,1.333-1.101,2.117-0.71l2.692,1.347l1.328-2.693
				c0.384-0.781,1.33-1.098,2.113-0.707c0.784,0.391,1.104,1.341,0.721,2.125l-1.328,2.691l2.691,1.344
				c0.784,0.393,1.106,1.344,0.721,2.125c-0.192,0.392-0.522,0.668-0.905,0.795c-0.386,0.126-0.815,0.107-1.206-0.087l-2.697-1.347
				l-1.32,2.691c-0.196,0.393-0.53,0.665-0.91,0.795c-0.387,0.128-0.815,0.109-1.206-0.085c-0.782-0.393-1.11-1.343-0.723-2.125
				l1.325-2.691l-2.692-1.344C161.685,106.093,161.356,105.143,161.743,104.363"/>
			<linearGradient id="Shape_135_" gradientUnits="userSpaceOnUse" x1="191.9282" y1="80.5693" x2="203.3091" y2="80.5693">
				<stop  offset="0" style="stop-color:#25E899"/>
				<stop  offset="0.1292" style="stop-color:#22BD88"/>
				<stop  offset="0.3468" style="stop-color:#1D7B6E"/>
				<stop  offset="0.5441" style="stop-color:#1A4659"/>
				<stop  offset="0.7142" style="stop-color:#17204A"/>
				<stop  offset="0.8504" style="stop-color:#160941"/>
				<stop  offset="0.9356" style="stop-color:#15003E"/>
			</linearGradient>
			<path id="Shape_93_" fill="url(#Shape_135_)" d="M192.091,77.805c0.383-0.78,1.33-1.097,2.115-0.706l2.692,1.344l1.329-2.689
				c0.384-0.784,1.33-1.099,2.112-0.709c0.779,0.393,1.105,1.342,0.722,2.125l-1.33,2.691l2.693,1.345
				c0.784,0.391,1.105,1.345,0.722,2.123c-0.19,0.392-0.524,0.668-0.91,0.796c-0.38,0.128-0.817,0.107-1.208-0.087l-2.689-1.346
				l-1.329,2.691c-0.192,0.391-0.524,0.665-0.907,0.792c-0.386,0.132-0.817,0.111-1.204-0.083c-0.785-0.393-1.106-1.342-0.721-2.125
				l1.323-2.692l-2.692-1.347C192.026,79.537,191.706,78.586,192.091,77.805"/>
			<linearGradient id="Shape_136_" gradientUnits="userSpaceOnUse" x1="267.7959" y1="126.0903" x2="279.1777" y2="126.0903">
				<stop  offset="0" style="stop-color:#25E899"/>
				<stop  offset="0.1292" style="stop-color:#22BD88"/>
				<stop  offset="0.3468" style="stop-color:#1D7B6E"/>
				<stop  offset="0.5441" style="stop-color:#1A4659"/>
				<stop  offset="0.7142" style="stop-color:#17204A"/>
				<stop  offset="0.8504" style="stop-color:#160941"/>
				<stop  offset="0.9356" style="stop-color:#15003E"/>
			</linearGradient>
			<path id="Shape_94_" fill="url(#Shape_136_)" d="M271.414,126.843l-2.705-1.267c-0.785-0.371-1.13-1.305-0.771-2.087
				c0.363-0.785,1.301-1.125,2.082-0.755l2.704,1.27l1.252-2.699c0.363-0.787,1.29-1.123,2.079-0.755
				c0.781,0.371,1.13,1.303,0.763,2.087l-1.252,2.701l2.707,1.271c0.782,0.368,1.123,1.303,0.757,2.084
				c-0.182,0.408-0.52,0.695-0.911,0.826c-0.371,0.121-0.782,0.109-1.164-0.07l-2.704-1.271l-1.244,2.701
				c-0.187,0.405-0.526,0.69-0.919,0.822c-0.366,0.124-0.782,0.111-1.159-0.068c-0.785-0.367-1.131-1.305-0.768-2.087
				L271.414,126.843z"/>
			<linearGradient id="Shape_137_" gradientUnits="userSpaceOnUse" x1="264.0029" y1="91.9492" x2="267.7969" y2="91.9492">
				<stop  offset="0" style="stop-color:#25E899"/>
				<stop  offset="0.1292" style="stop-color:#22BD88"/>
				<stop  offset="0.3468" style="stop-color:#1D7B6E"/>
				<stop  offset="0.5441" style="stop-color:#1A4659"/>
				<stop  offset="0.7142" style="stop-color:#17204A"/>
				<stop  offset="0.8504" style="stop-color:#160941"/>
				<stop  offset="0.9356" style="stop-color:#15003E"/>
			</linearGradient>
			<path id="Shape_95_" fill="url(#Shape_137_)" d="M266.509,93.748c-0.985,0.331-2.067-0.206-2.404-1.199
				c-0.337-0.997,0.196-2.07,1.185-2.4c0.99-0.328,2.072,0.208,2.405,1.201C268.035,92.343,267.501,93.418,266.509,93.748"/>
			<path id="Shape_96_" fill="#FAEA75" d="M198.228,135.476c-0.991,0.332-2.069-0.204-2.404-1.199
				c-0.337-0.992,0.19-2.067,1.183-2.4c0.991-0.33,2.073,0.209,2.408,1.201C199.749,134.072,199.221,135.146,198.228,135.476"/>
			
				<rect id="Rectangle-path_18_" x="161.581" y="245.585" transform="matrix(-0.7081 0.7061 -0.7061 -0.7081 460.4633 304.6173)" fill="#11083A" width="11.38" height="3.793"/>
			
				<rect id="Rectangle-path_19_" x="169.168" y="268.346" transform="matrix(-0.7062 0.708 -0.708 -0.7062 489.6777 337.2789)" fill="#11083A" width="11.379" height="3.792"/>
			
				<rect id="Rectangle-path_20_" x="180.549" y="291.107" transform="matrix(-0.7066 0.7077 -0.7077 -0.7066 521.9344 369.5779)" fill="#11083A" width="7.584" height="3.792"/>
			
				<rect id="Rectangle-path_21_" x="282.972" y="287.313" transform="matrix(-0.7071 0.7071 -0.7071 -0.7071 692.1445 295.5172)" fill="#11083A" width="3.792" height="7.587"/>
			
				<rect id="Rectangle-path_22_" x="294.352" y="264.553" transform="matrix(-0.7068 0.7074 -0.7074 -0.7068 696.8127 251.7084)" fill="#11083A" width="3.794" height="11.38"/>
			
				<rect id="Rectangle-path_23_" x="301.94" y="241.792" transform="matrix(-0.7071 0.7071 -0.7071 -0.7071 692.3352 204.3953)" fill="#11083A" width="3.792" height="7.586"/>
			
				<rect id="Rectangle-path_24_" x="260.21" y="313.869" transform="matrix(-0.7071 0.7071 -0.7071 -0.7071 672.0664 356.9452)" fill="#11083A" width="3.795" height="7.586"/>
			
				<rect id="Rectangle-path_25_" x="203.308" y="317.662" transform="matrix(-0.7086 0.7056 -0.7056 -0.7086 579.3325 399.8897)" fill="#11083A" width="7.588" height="3.792"/>
			<linearGradient id="Shape_138_" gradientUnits="userSpaceOnUse" x1="223.0034" y1="229.4512" x2="255.4358" y2="178.0052">
				<stop  offset="0" style="stop-color:#25E899"/>
				<stop  offset="0.1292" style="stop-color:#22BD88"/>
				<stop  offset="0.3468" style="stop-color:#1D7B6E"/>
				<stop  offset="0.5441" style="stop-color:#1A4659"/>
				<stop  offset="0.7142" style="stop-color:#17204A"/>
				<stop  offset="0.8504" style="stop-color:#160941"/>
				<stop  offset="0.9356" style="stop-color:#15003E"/>
			</linearGradient>
			<path id="Shape_97_" fill="url(#Shape_138_)" d="M275.385,209.545c0,21.996-17.83,39.834-39.831,39.834
				c-22.001,0-39.832-17.838-39.832-39.834s17.831-39.83,39.832-39.83C257.555,169.715,275.385,187.549,275.385,209.545"/>
			<path id="Shape_98_" fill="#120E3B" d="M237.45,253.172c-11.145,0-21.62-4.338-29.507-12.218
				c-7.879-7.886-12.221-18.363-12.221-29.513c0-11.145,4.342-21.622,12.221-29.508c7.887-7.876,18.362-12.218,29.507-12.218
				c11.144,0,21.624,4.342,29.507,12.218c7.88,7.886,12.222,18.363,12.222,29.508c0,11.149-4.342,21.626-12.222,29.513
				C259.074,248.834,248.594,253.172,237.45,253.172z M237.45,171.842c-21.838,0-39.603,17.764-39.603,39.6
				c0,21.84,17.764,39.604,39.603,39.604c21.838,0,39.602-17.764,39.602-39.604C277.052,189.606,259.288,171.842,237.45,171.842z"/>
			<path id="Shape_99_" fill="#FFFFFF" d="M260.211,201.955c0,5.24-4.246,9.489-9.484,9.489c-5.233,0-9.483-4.249-9.483-9.489
				c0-5.237,4.25-9.479,9.483-9.479C255.965,192.477,260.211,196.718,260.211,201.955"/>
			<path id="Shape_100_" fill="#FFFFFF" d="M264.004,215.237c0,2.093-1.696,3.794-3.793,3.794s-3.793-1.701-3.793-3.794
				c0-2.093,1.696-3.793,3.793-3.793S264.004,213.144,264.004,215.237"/>
			<path id="Shape_101_" fill="#11083A" d="M235.554,336.629c-0.269,0-0.534-0.111-0.74-0.333l-8.745-9.455l1.473-1.593l8.011,8.658
				l8.009-8.658l1.475,1.593l-8.746,9.455C236.082,336.518,235.82,336.629,235.554,336.629z"/>
			<path id="Shape_102_" fill="#11083A" d="M245.037,329.041c-0.244,0-0.482-0.074-0.664-0.215l-3.13-2.515l1.327-1.063l2.467,1.979
				l2.475-1.979l1.318,1.063l-3.13,2.515C245.512,328.967,245.273,329.041,245.037,329.041z"/>
			<path id="Shape_103_" fill="#11083A" d="M226.071,329.041c-0.241,0-0.478-0.074-0.665-0.215l-3.13-2.515l1.321-1.063l2.475,1.979
				l2.468-1.979l1.324,1.063l-3.13,2.515C226.553,328.967,226.312,329.041,226.071,329.041z"/>
			<path id="Shape_104_" fill="#5DBF8F" d="M293.903,205.535c0-0.926-0.748-1.677-1.678-1.677c-0.918,0-1.667,0.751-1.667,1.677
				c0,0.923,0.749,1.671,1.667,1.671C293.155,207.206,293.903,206.458,293.903,205.535"/>
			<path id="Shape_105_" fill="#12103B" d="M290.114,319.336c0-0.927-0.756-1.675-1.675-1.675c-0.926,0-1.674,0.748-1.674,1.675
				c0,0.926,0.748,1.674,1.674,1.674C289.358,321.01,290.114,320.262,290.114,319.336"/>
			<path id="Shape_106_" fill="#12103B" d="M290.118,270.021c0-0.927-0.752-1.675-1.675-1.675c-0.926,0-1.678,0.748-1.678,1.675
				c0,0.929,0.752,1.674,1.678,1.674C289.366,271.694,290.118,270.949,290.118,270.021"/>
			<path id="Shape_107_" fill="#12103B" d="M278.733,292.782c0-0.924-0.748-1.676-1.675-1.676c-0.926,0-1.674,0.752-1.674,1.676
				c0,0.925,0.748,1.673,1.674,1.673C277.985,294.455,278.733,293.707,278.733,292.782"/>
			<path id="Shape_108_" fill="#12103B" d="M297.705,247.26c0-0.919-0.752-1.676-1.679-1.676c-0.926,0-1.674,0.757-1.674,1.676
				c0,0.93,0.748,1.682,1.674,1.682C296.953,248.941,297.705,248.189,297.705,247.26"/>
			<path id="Shape_109_" fill="#12103B" d="M184.341,270.021c0-0.927,0.752-1.675,1.675-1.675c0.925,0,1.674,0.748,1.674,1.675
				c0,0.929-0.749,1.674-1.674,1.674C185.093,271.694,184.341,270.949,184.341,270.021"/>
			<path id="Shape_110_" fill="#12103B" d="M191.929,292.782c0-0.924,0.748-1.676,1.674-1.676s1.674,0.752,1.674,1.676
				c0,0.925-0.748,1.673-1.674,1.673S191.929,293.707,191.929,292.782"/>
			<path id="Shape_111_" fill="#12103B" d="M172.96,247.26c0-0.919,0.752-1.676,1.675-1.676c0.926,0,1.677,0.757,1.677,1.676
				c0,0.93-0.751,1.682-1.677,1.682C173.712,248.941,172.96,248.189,172.96,247.26"/>
			<path id="Shape_112_" fill="#12103B" d="M183.896,319.336c0-0.927-0.752-1.675-1.674-1.675c-0.926,0-1.674,0.748-1.674,1.675
				c0,0.926,0.748,1.674,1.674,1.674C183.145,321.01,183.896,320.262,183.896,319.336"/>
			<path id="Shape_113_" fill="#5DBF8F" d="M290.114,197.948c0-0.929-0.748-1.678-1.675-1.678c-0.926,0-1.674,0.749-1.674,1.678
				c0,0.922,0.748,1.674,1.674,1.674C289.366,199.622,290.114,198.87,290.114,197.948"/>
			<path id="Shape_114_" fill="#5DBF8F" d="M290.114,190.357c0-0.922-0.748-1.674-1.675-1.674c-0.926,0-1.674,0.752-1.674,1.674
				c0,0.926,0.748,1.679,1.674,1.679C289.366,192.036,290.114,191.283,290.114,190.357"/>
			<linearGradient id="Shape_139_" gradientUnits="userSpaceOnUse" x1="165.3735" y1="342.3184" x2="184.3413" y2="342.3184">
				<stop  offset="0" style="stop-color:#4719FF"/>
				<stop  offset="1" style="stop-color:#000000"/>
			</linearGradient>
			<path id="Shape_42_" fill="url(#Shape_139_)" d="M180.287,355.596c-0.043,0-0.088,0-0.139-0.007l-13.807-1.687
				c-0.604-0.073-1.038-0.599-0.958-1.189l2.951-22.737c0.035-0.282,0.184-0.541,0.415-0.712c0.234-0.174,0.524-0.249,0.811-0.216
				l13.817,1.679c0.6,0.074,1.029,0.608,0.957,1.189l-2.95,22.746c-0.039,0.278-0.192,0.537-0.419,0.711
				C180.765,355.518,180.531,355.596,180.287,355.596z M167.709,351.917l11.623,1.42l2.671-20.624l-11.623-1.416L167.709,351.917z"
				/>
			<path id="Shape_43_" fill="#5DBF8F" d="M179.173,350.557c-0.048,0-0.1,0-0.152-0.006l-4.844-0.42
				c-0.75-0.063-1.29-0.589-1.21-1.174c0.087-0.586,0.766-1.007,1.52-0.94l4.84,0.418c0.75,0.062,1.295,0.594,1.213,1.176
				C180.463,350.157,179.866,350.557,179.173,350.557z"/>
			<path id="Shape_44_" fill="#5DBF8F" d="M179.179,346.764c-0.048,0-0.105-0.003-0.164-0.006l-4.832-0.42
				c-0.75-0.066-1.3-0.592-1.213-1.174c0.085-0.586,0.769-1.012,1.519-0.94l4.842,0.414c0.75,0.066,1.29,0.593,1.21,1.178
				C180.463,346.361,179.866,346.764,179.179,346.764z"/>
			<path id="Shape_45_" fill="#5DBF8F" d="M179.177,342.971c-0.052,0-0.104-0.005-0.158-0.005l-4.836-0.418
				c-0.754-0.066-1.299-0.592-1.213-1.177c0.082-0.589,0.765-1.009,1.515-0.942l4.839,0.42c0.756,0.062,1.295,0.592,1.216,1.177
				C180.458,342.566,179.87,342.971,179.177,342.971z"/>
			<path id="Shape_46_" fill="#5DBF8F" d="M179.177,335.384c-0.052,0-0.1-0.004-0.158-0.004l-4.836-0.423
				c-0.76-0.066-1.299-0.592-1.213-1.174c0.085-0.589,0.765-1.007,1.519-0.94l4.836,0.415c0.76,0.065,1.301,0.592,1.214,1.177
				C180.463,334.98,179.864,335.384,179.177,335.384z"/>
			<path id="Shape_47_" fill="#11083A" d="M183.304,366.977h-16.889c-0.291,0-0.569-0.104-0.759-0.289
				c-0.204-0.178-0.3-0.423-0.278-0.667l0.518-5.812c0.039-0.463,0.491-0.819,1.032-0.819h15.859c0.541,0,0.993,0.356,1.031,0.819
				l0.52,5.812c0.022,0.244-0.075,0.489-0.274,0.667C183.869,366.873,183.595,366.977,183.304,366.977z M167.53,365.201h14.655
				l-0.361-4.038h-13.933L167.53,365.201z"/>
			
				<rect id="Rectangle-path_5_" x="176.755" y="325.247" transform="matrix(-0.3268 0.9451 -0.9451 -0.3268 548.7318 263.4173)" fill="#11083A" width="7.584" height="3.794"/>
			
				<rect id="Rectangle-path_6_" x="169.168" y="355.595" transform="matrix(-0.0539 0.9985 -0.9985 -0.0539 539.261 204.0648)" fill="#11083A" width="7.586" height="3.793"/>
		</g>
	</g>
</g>
</svg>
