<?xml version="1.0" encoding="UTF-8"?>
<svg width="548px" height="635px" viewBox="0 0 548 635" version="1.1" xmlns="http://www.w3.org/2000/svg" xmlns:xlink="http://www.w3.org/1999/xlink">
    <!-- Generator: Sketch 55.1 (78136) - https://sketchapp.com -->
    <title>Buzz Lightyear Bot</title>
    <desc>Created with Sketch.</desc>
    <g id="Buzz-Lightyear-Bot" stroke="none" stroke-width="1" fill="none" fill-rule="evenodd">
        <g id="Group-2" transform="translate(25.000000, 17.000000)" fill-rule="nonzero">
            <polygon id="Path" fill="#653A71" points="498 144 498 432 249 576 49.8898917 460.8 48.9909747 460.35 1.13686838e-13 432 1.13686838e-13 144 249 0"></polygon>
            <path d="M309.065093,516.838795 L316.088239,512.800517 L316.408125,513.353232 C317.148844,514.633322 317.643703,515.861329 317.915585,517.009863 C318.139012,518.092843 318.134525,519.232846 317.893601,520.429872 C317.336828,523.113526 315.842828,525.152421 313.407114,526.560026 C311.02793,527.928119 308.499795,528.243764 305.814185,527.50247 C303.124087,526.752645 301.086774,525.165441 299.697757,522.749389 C298.278233,520.280805 297.936363,517.694134 298.672595,514.979948 C299.408828,512.265762 301.007812,510.191846 303.483455,508.76224 C304.811006,507.999394 306.208547,507.556234 307.67159,507.433658 C309.078103,507.337124 310.673049,507.595746 312.434444,508.196503 L311.610725,511.007224 C309.148541,509.950734 306.913822,509.998777 304.91599,511.151801 C303.110628,512.186739 301.962985,513.673367 301.459152,515.624258 C300.94186,517.540577 301.213741,519.421425 302.269412,521.25872 C303.356039,523.157528 304.929001,524.323572 306.992785,524.766732 C308.920628,525.169931 310.620557,524.946331 312.114557,524.091441 C313.37212,523.367658 314.256855,522.293658 314.774147,520.864052 C315.282017,519.425915 315.260482,518.084312 314.695185,516.812753 L310.449622,519.254847 L309.065093,516.838795 Z" id="Path" fill="#15003E"></path>
            <polygon id="Rectangle" fill="#15003E" transform="translate(326.665890, 507.204559) rotate(-29.946709) translate(-326.665890, -507.204559) " points="325.189459 497.392642 328.148903 497.391649 328.142319 517.016427 325.182875 517.01742"></polygon>
            <polygon id="Path" fill="#15003E" points="339.076995 491.915878 347.467622 506.517255 344.908979 507.990414 336.514314 493.398016 332.606136 495.647491 331.21712 493.235928 341.583147 487.263821 342.967676 489.675383"></polygon>
            <path d="M362.219639,476.58699 L363.963087,479.625487 C361.763812,479.235309 359.870963,479.498421 358.289476,480.410333 C356.545579,481.419229 355.428444,482.896878 354.95512,484.834748 C354.468785,486.777109 354.74919,488.653916 355.787812,490.46023 C356.808487,492.244992 358.28499,493.406996 360.190849,493.941751 C362.101195,494.472466 363.923606,494.235844 365.680514,493.231438 C366.574671,492.709704 367.262449,492.121967 367.722314,491.464636 C367.989709,491.11352 368.243644,490.710321 368.476044,490.241119 C368.707995,489.771918 368.935909,489.241203 369.150812,488.644936 L370.933741,491.745259 C369.94806,493.428997 368.638006,494.731088 367.025563,495.665001 C364.598374,497.063627 362.03973,497.401272 359.349633,496.699939 C356.650563,495.972115 354.609212,494.402422 353.215709,491.98637 C351.971606,489.820409 351.585768,487.474401 352.037109,484.953284 C352.593433,481.85745 354.284839,479.507401 357.07992,477.898196 C358.604876,477.016815 360.317817,476.578145 362.219639,476.58699" id="Path" fill="#15003E"></path>
            <path d="M375.722157,477.961571 C374.3466,475.56752 374.044211,473.006442 374.806465,470.283725 C375.569168,467.556518 377.172638,465.486642 379.621811,464.070506 C382.044514,462.680412 384.620654,462.351746 387.346195,463.08406 C390.088784,463.820864 392.152119,465.399088 393.550108,467.828161 C394.952135,470.270704 395.280546,472.853334 394.509319,475.56303 C393.738541,478.281706 392.113086,480.359663 389.632957,481.784779 C387.438168,483.056338 385.028476,483.420475 382.408368,482.911761 C379.516378,482.341984 377.290632,480.688778 375.722157,477.961571 M378.320281,476.501433 C379.402422,478.377791 380.922892,479.561796 382.881243,480.044018 C384.83107,480.530731 386.631946,480.30264 388.279384,479.355706 C390.062314,478.329748 391.210405,476.84761 391.731735,474.909739 C392.235568,472.953909 391.981632,471.081592 390.943011,469.292789 C389.900351,467.477494 388.423849,466.30696 386.509016,465.780735 C384.594632,465.237 382.745751,465.478111 380.971346,466.504069 C379.200978,467.525537 378.066346,468.999145 377.558027,470.932525 C377.041184,472.857375 377.295119,474.712181 378.320281,476.501433" id="Shape" fill="#FFFFFF"></path>
            <polygon id="Rectangle" fill="#15003E" transform="translate(402.844998, 463.299096) rotate(-29.967323) translate(-402.844998, -463.299096) " points="401.36815 453.489657 404.328423 453.488663 404.321837 473.108486 401.361565 473.10948"></polygon>
            <polygon id="Path" fill="#15003E" points="418.984012 465.331672 408.534536 447.161219 428.399352 453.00177 421.599633 441.176091 424.158276 439.702483 434.542249 457.75485 414.694482 451.944831 421.547141 463.853575"></polygon>
            <polygon id="Path" fill="#FFFFFF" points="456.709123 167.608163 456.709123 406.374835 249.854561 525.982998 43 406.374835 43 167.608163 249.854561 48"></polygon>
            <path d="M249.587264,48.1959184 L42.2830189,167.854977 L42.2830189,410.322016 L249.13758,530.880766 L456.441826,406.723247 L456.441826,167.854977 L249.587264,48.1959184 Z M448.797201,402.224786 L249.587264,521.433998 L51.2766955,405.373709 L51.2766955,172.353437 L250.036948,58.0925322 L448.797201,172.803284 L448.797201,402.224786 Z" id="Shape" fill="#E6E7E8"></path>
        </g>
        <g id="Group-9" transform="translate(274.000000, 301.000000) scale(1, -1) translate(-274.000000, -301.000000) translate(141.000000, 163.500000)">
            <ellipse id="Oval" fill="#405D8A" opacity="0.129999995" cx="133" cy="133" rx="133" ry="132.5"></ellipse>
            <path d="M49.5,19.9818182 L49.5,72.4096591" id="Line-5" stroke="#FFFFFF" stroke-width="11" stroke-linecap="round" stroke-linejoin="round"></path>
            <path d="M49.5,221.981818 L49.5,274.409659" id="Line-5-Copy" stroke="#FFFFFF" stroke-width="11" stroke-linecap="round" stroke-linejoin="round"></path>
            <path d="M49.5,95.5 L49.5,103" id="Line-5-Copy-4" stroke="#FFFFFF" stroke-width="11" stroke-linecap="round" stroke-linejoin="round"></path>
            <path d="M203.5,182.5 L203.5,190" id="Line-5-Copy-5" stroke="#FFFFFF" stroke-width="11" stroke-linecap="round" stroke-linejoin="round"></path>
            <path d="M221.5,112.5 L221.5,120" id="Line-5-Copy-6" stroke="#FFFFFF" stroke-width="11" stroke-linecap="round" stroke-linejoin="round"></path>
            <path d="M191.5,51.5 L191.5,59" id="Line-5-Copy-7" stroke="#FFFFFF" stroke-width="11" stroke-linecap="round" stroke-linejoin="round"></path>
            <path d="M231.5,213.5 L231.5,221" id="Line-5-Copy-9" stroke="#FFFFFF" stroke-width="11" stroke-linecap="round" stroke-linejoin="round"></path>
            <path d="M229.5,39.5 L229.5,47" id="Line-5-Copy-8" stroke="#FFFFFF" stroke-width="11" stroke-linecap="round" stroke-linejoin="round"></path>
        </g>
        <g id="Group-6" transform="translate(99.000000, 145.000000)">
            <g id="Group-5" transform="translate(220.000000, 83.500000)" stroke="#15003E" stroke-linecap="round" stroke-width="4">
                <path d="M58.2702889,8.15488119 L123.588293,14.0200994 C124.630597,14.1136928 125.424524,14.9949686 125.409209,16.041354 L125.028844,42.0292693 C125.012846,43.1223082 124.122214,44 123.029058,44 L50.5303216,44 C49.4257521,44 48.5303216,43.1045695 48.5303216,42 C48.5303216,41.8444504 48.5484682,41.6894319 48.5843933,41.5380877 L56.1454907,9.68495423 C56.3750793,8.71775084 57.2801934,8.06597574 58.2702889,8.15488119 Z" id="Rectangle-Copy-17" fill="#653A71"></path>
                <path d="M12.8733533,0.213571004 L56.044986,5.38636072 C56.9914774,5.49976855 57.7263812,6.26541692 57.8009251,7.21575925 L60.8308543,45.8436024 C60.9172303,46.9447895 60.0945634,47.9074996 58.9933764,47.9938756 C58.9413437,47.997957 58.8891712,48 58.8369788,48 L2.51481603,48 C1.41024653,48 0.51481603,47.1045695 0.51481603,46 C0.51481603,45.8484535 0.532040603,45.697398 0.566158117,45.5497419 L10.6867589,1.74910905 C10.9166749,0.754062856 11.8593431,0.0920731395 12.8733533,0.213571004 Z" id="Rectangle" fill="#653A71"></path>
                <path d="M125.323307,12.5 L126.678664,12.5 C128.887801,12.5000021 130.678661,14.2908621 130.678661,16.5 C130.678661,16.60664 130.674397,16.7132374 130.665878,16.8195366 C129.115762,36.1620678 127.563001,45.8333333 126.007595,45.8333333 C124.452239,45.8333333 122.895119,36.1626692 121.336236,16.8213408 C121.15877,14.6193477 122.799963,12.6904066 125.001955,12.5129293 C125.108856,12.5043132 125.21606,12.5 125.323307,12.5 Z" id="Rectangle-Copy-5" fill="#87B949"></path>
            </g>
            <g id="Group-5-Copy" transform="translate(65.500000, 107.500000) scale(-1, 1) translate(-65.500000, -107.500000) translate(0.000000, 83.500000)" stroke="#15003E" stroke-linecap="round" stroke-width="4">
                <path d="M58.2702889,8.15488119 L123.588293,14.0200994 C124.630597,14.1136928 125.424524,14.9949686 125.409209,16.041354 L125.028844,42.0292693 C125.012846,43.1223082 124.122214,44 123.029058,44 L50.5303216,44 C49.4257521,44 48.5303216,43.1045695 48.5303216,42 C48.5303216,41.8444504 48.5484682,41.6894319 48.5843933,41.5380877 L56.1454907,9.68495423 C56.3750793,8.71775084 57.2801934,8.06597574 58.2702889,8.15488119 Z" id="Rectangle-Copy-17" fill="#653A71"></path>
                <path d="M12.8733533,0.213571004 L56.044986,5.38636072 C56.9914774,5.49976855 57.7263812,6.26541692 57.8009251,7.21575925 L60.8308543,45.8436024 C60.9172303,46.9447895 60.0945634,47.9074996 58.9933764,47.9938756 C58.9413437,47.997957 58.8891712,48 58.8369788,48 L2.51481603,48 C1.41024653,48 0.51481603,47.1045695 0.51481603,46 C0.51481603,45.8484535 0.532040603,45.697398 0.566158117,45.5497419 L10.6867589,1.74910905 C10.9166749,0.754062856 11.8593431,0.0920731395 12.8733533,0.213571004 Z" id="Rectangle" fill="#653A71"></path>
                <path d="M125.323307,12.5 L126.678664,12.5 C128.887801,12.5000021 130.678661,14.2908621 130.678661,16.5 C130.678661,16.60664 130.674397,16.7132374 130.665878,16.8195366 C129.115762,36.1620678 127.563001,45.8333333 126.007595,45.8333333 C124.452239,45.8333333 122.895119,36.1626692 121.336236,16.8213408 C121.15877,14.6193477 122.799963,12.6904066 125.001955,12.5129293 C125.108856,12.5043132 125.21606,12.5 125.323307,12.5 Z" id="Rectangle-Copy-5" fill="#87B949"></path>
            </g>
            <g id="Group-4" transform="translate(183.000000, 178.000000)">
                <rect id="Rectangle" stroke="#15003E" stroke-width="4" stroke-linecap="round" x="7" y="13" width="13" height="33" rx="2"></rect>
                <rect id="Rectangle-Copy-2" stroke="#15003E" stroke-width="4" stroke-linecap="round" x="21" y="0" width="13" height="46" rx="2"></rect>
                <rect id="Rectangle-Copy-4" stroke="#15003E" stroke-width="4" stroke-linecap="round" x="7" y="74" width="13" height="33" rx="2"></rect>
                <rect id="Rectangle-Copy-3" stroke="#15003E" stroke-width="4" stroke-linecap="round" x="21" y="74" width="13" height="33" rx="2"></rect>
                <rect id="Rectangle-Copy-7" stroke="#15003E" stroke-width="4" stroke-linecap="round" x="7" y="118" width="27" height="20" rx="2"></rect>
                <path d="M11.8535285,140 C11.3007711,138.748884 11,137.402542 11,136 C11,129.372583 17.7157288,124 26,124 C34.2842712,124 41,129.372583 41,136 C41,137.402542 40.6992289,138.748884 40.1464715,140 L11.8535285,140 Z" id="Combined-Shape" fill="#15003E"></path>
                <ellipse id="Oval" stroke="#15003E" stroke-width="4" fill="#20143B" stroke-linecap="round" cx="21" cy="58.5" rx="13" ry="16.5"></ellipse>
                <rect id="Rectangle" stroke="#15003E" stroke-width="4" fill="#15003E" stroke-linecap="round" x="6" y="105" width="30" height="10" rx="2"></rect>
                <rect id="Rectangle-Copy-5" stroke="#15003E" stroke-width="4" fill="#15003E" stroke-linecap="round" x="38" y="102" width="3" height="16" rx="1.5"></rect>
                <rect id="Rectangle-Copy-6" stroke="#15003E" stroke-width="4" fill="#15003E" stroke-linecap="round" x="0" y="102" width="3" height="16" rx="1.5"></rect>
            </g>
            <g id="Group" transform="translate(152.500000, 248.000000) scale(-1, 1) translate(-152.500000, -248.000000) translate(132.000000, 178.000000)">
                <rect id="Rectangle-Copy-15" stroke="#15003E" stroke-width="4" stroke-linecap="round" x="7" y="13" width="13" height="33" rx="2"></rect>
                <rect id="Rectangle-Copy-14" stroke="#15003E" stroke-width="4" stroke-linecap="round" x="21" y="0" width="13" height="46" rx="2"></rect>
                <rect id="Rectangle-Copy-13" stroke="#15003E" stroke-width="4" stroke-linecap="round" x="7" y="74" width="13" height="33" rx="2"></rect>
                <rect id="Rectangle-Copy-12" stroke="#15003E" stroke-width="4" stroke-linecap="round" x="21" y="74" width="13" height="33" rx="2"></rect>
                <rect id="Rectangle-Copy-11" stroke="#15003E" stroke-width="4" stroke-linecap="round" x="7" y="118" width="27" height="20" rx="2"></rect>
                <path d="M11.8535285,140 C11.3007711,138.748884 11,137.402542 11,136 C11,129.372583 17.7157288,124 26,124 C34.2842712,124 41,129.372583 41,136 C41,137.402542 40.6992289,138.748884 40.1464715,140 L11.8535285,140 Z" id="Combined-Shape-Copy" fill="#15003E"></path>
                <ellipse id="Oval-Copy" stroke="#15003E" stroke-width="4" fill="#20143B" stroke-linecap="round" cx="21" cy="58.5" rx="13" ry="16.5"></ellipse>
                <rect id="Rectangle-Copy-10" stroke="#15003E" stroke-width="4" fill="#15003E" stroke-linecap="round" x="6" y="105" width="30" height="10" rx="2"></rect>
                <rect id="Rectangle-Copy-9" stroke="#15003E" stroke-width="4" fill="#15003E" stroke-linecap="round" x="38" y="102" width="3" height="16" rx="1.5"></rect>
                <rect id="Rectangle-Copy-8" stroke="#15003E" stroke-width="4" fill="#15003E" stroke-linecap="round" x="0" y="102" width="3" height="16" rx="1.5"></rect>
            </g>
            <g id="Group-2-Copy" transform="translate(110.000000, 147.500000) scale(-1, 1) translate(-110.000000, -147.500000) translate(87.000000, 91.000000)">
                <path d="M16.4947851,30.8658843 L29.738999,23.8238108 C30.7142759,23.3052469 31.9252733,23.6754859 32.4438373,24.6507629 L42.3027401,43.1926623 C42.8213041,44.1679393 42.451065,45.3789367 41.475788,45.8975007 L28.2315741,52.9395741 C27.2562972,53.4581381 26.0452998,53.087899 25.5267358,52.112622 L15.667833,33.5707226 C15.149269,32.5954456 15.5195081,31.3844482 16.4947851,30.8658843 Z" id="Rectangle-Copy-2" stroke="#15003E" stroke-width="4" fill="#FFFFFF" stroke-linecap="round"></path>
                <path d="M29.2192974,60.8710108 L38.2179266,61.0280824 C39.3223279,61.0473598 40.2019946,61.9582814 40.1827172,63.0626826 L39.8162167,84.0594842 C39.7969393,85.1638855 38.8860177,86.0435522 37.7816165,86.0242748 L28.7829872,85.8672031 C27.6785859,85.8479257 26.7989192,84.9370042 26.8181966,83.8326029 L27.1846972,62.8358013 C27.2039746,61.7314001 28.1148961,60.8517334 29.2192974,60.8710108 Z" id="Rectangle-Copy-16" stroke="#15003E" stroke-width="4" fill="#FFFFFF" stroke-linecap="round" transform="translate(33.500457, 73.447643) rotate(11.000000) translate(-33.500457, -73.447643) "></path>
                <circle id="Oval" stroke="#15003E" stroke-width="4" fill="#6A9E29" stroke-linecap="round" cx="16" cy="16" r="16"></circle>
                <circle id="Oval-Copy-2" stroke="#15003E" stroke-width="4" fill="#6A9E29" stroke-linecap="round" cx="36.5" cy="54.5" r="9.5"></circle>
                <path d="M23.6527719,96.0300345 C23.7655465,96.0102934 23.8815712,96 24,96 L30,96 C31.1045695,96 32,96.8954305 32,98 L32,108 C32,109.104569 31.1045695,110 30,110 L24,110 C23.8815712,110 23.7655465,109.989707 23.6527719,109.969966 C23.4378496,109.989841 23.2201112,110 23,110 C19.1340068,110 16,106.865993 16,103 C16,99.1340068 19.1340068,96 23,96 C23.2201112,96 23.4378496,96.0101593 23.6527719,96.0300345 Z" id="Combined-Shape" fill="#15003E" transform="translate(24.000000, 103.000000) rotate(19.000000) translate(-24.000000, -103.000000) "></path>
                <ellipse id="Oval-Copy-3" stroke="#15003E" stroke-width="4" fill="#6A9E29" stroke-linecap="round" cx="29.5" cy="91.5" rx="8.5" ry="8"></ellipse>
            </g>
            <g id="Group-2" transform="translate(221.000000, 91.000000)" stroke="#15003E" stroke-linecap="round" stroke-width="4">
                <path d="M16.4947851,30.8658843 L29.738999,23.8238108 C30.7142759,23.3052469 31.9252733,23.6754859 32.4438373,24.6507629 L42.3027401,43.1926623 C42.8213041,44.1679393 42.451065,45.3789367 41.475788,45.8975007 L28.2315741,52.9395741 C27.2562972,53.4581381 26.0452998,53.087899 25.5267358,52.112622 L15.667833,33.5707226 C15.149269,32.5954456 15.5195081,31.3844482 16.4947851,30.8658843 Z" id="Rectangle-Copy-2" fill="#FFFFFF"></path>
                <path d="M32.2192974,62.8710108 L41.2179266,63.0280824 C42.3223279,63.0473598 43.2019946,63.9582814 43.1827172,65.0626826 L42.8162167,86.0594842 C42.7969393,87.1638855 41.8860177,88.0435522 40.7816165,88.0242748 L31.7829872,87.8672031 C30.6785859,87.8479257 29.7989192,86.9370042 29.8181966,85.8326029 L30.1846972,64.8358013 C30.2039746,63.7314001 31.1148961,62.8517334 32.2192974,62.8710108 Z" id="Rectangle-Copy-16" fill="#FFFFFF"></path>
                <circle id="Oval" fill="#6A9E29" cx="16" cy="16" r="16"></circle>
                <circle id="Oval-Copy-2" fill="#6A9E29" cx="36.5" cy="54.5" r="9.5"></circle>
                <circle id="Oval-Copy-3" fill="#6A9E29" cx="36.5" cy="91.5" r="9.5"></circle>
                <path d="M27,97.0410156 C23.9375,99.1425781 22.9166667,101.827799 23.9375,105.09668" id="Path-13"></path>
                <path d="M35.7192982,100.041016 C32.185444,102.721354 31.6112253,106.590495 33.996642,111.648438" id="Path-13-Copy" transform="translate(34.136993, 105.844727) scale(-1, 1) translate(-34.136993, -105.844727) "></path>
                <path d="M41.7192982,101.041016 C38.185444,103.721354 37.6112253,107.590495 39.996642,112.648438" id="Path-13-Copy-2" transform="translate(40.136993, 106.844727) scale(-1, 1) translate(-40.136993, -106.844727) "></path>
                <path d="M46.7192982,100.041016 C43.185444,102.721354 42.6112253,106.590495 44.996642,111.648438" id="Path-13-Copy-3" transform="translate(45.136993, 105.844727) scale(-1, 1) translate(-45.136993, -105.844727) "></path>
            </g>
            <path d="M177,79 C195.409492,79 212.076158,76.8333333 227,72.5 C212.076158,72.1666667 195.409492,72 177,72 C158.590508,72 141.923842,72.1666667 127,72.5 C141.923842,76.8333333 158.590508,79 177,79 Z" id="Oval" stroke="#15003E" stroke-width="4" fill-opacity="0.311489292" fill="#BAFFFA" stroke-linecap="round" stroke-linejoin="round"></path>
            <g id="Group-3" transform="translate(112.938085, 67.000000)">
                <rect id="Rectangle-Copy-18" fill="#87B949" x="34" y="93" width="62" height="6" rx="3"></rect>
                <rect id="Rectangle" stroke="#15003E" stroke-width="4" fill="#15003E" stroke-linecap="round" x="39" y="82" width="52" height="12" rx="3"></rect>
                <path d="M104.052223,88.4933401 C103.786074,81.5484666 98.071951,76 91.0619147,76 L38.0619147,76 C30.9638987,76 25.1945294,81.6886129 25.0641683,88.7554772 C21.1467962,87.9149681 17.9199467,84.9759223 16.7925072,81.0030405 L0.229461476,22.6380221 C-0.675193157,19.4501915 1.17568667,16.1325767 4.36351729,15.2279221 C4.89638639,15.0767025 5.44762889,15 6.0015394,15 L122.12229,15 C125.435998,15 128.12229,17.6862915 128.12229,21 C128.12229,21.5539105 128.045587,22.105153 127.894368,22.6380221 L111.331322,81.0030405 C110.300654,84.6349197 107.515504,87.4028199 104.052223,88.4933401 Z" id="Combined-Shape" stroke="#15003E" stroke-width="4" fill="#FFFFFF" stroke-linecap="round"></path>
                <path d="M9.18233977,3.9078627 C17.3924005,9.75166614 27.2671458,14.9253663 38.8065758,19.4289632 C44.007642,21.45883 50.7844058,22.6303753 59.1368671,22.9435989 C60.2115153,22.9839027 61.0619147,23.8667904 61.0619147,24.9421941 L61.0619147,57.106038 C61.0619147,58.1683158 60.231463,59.0452623 59.1707595,59.103074 L49.0693205,59.6536347 L22.476959,52.2841166 C21.8360017,52.1064887 21.3252831,51.6218462 21.1143385,50.9910687 L6.12581019,6.17157065 C5.77548137,5.12402428 6.34069619,3.99082669 7.38824513,3.64050556 C7.99463191,3.43771781 8.66142625,3.53708393 9.18233977,3.9078627 Z" id="Rectangle" stroke="#15003E" stroke-width="4" fill="#87B949" stroke-linecap="round"></path>
                <path d="M74.1823398,3.9078627 C82.3924005,9.75166614 92.2671458,14.9253663 103.806576,19.4289632 C109.007642,21.45883 115.784406,22.6303753 124.136867,22.9435989 C125.211515,22.9839027 126.061915,23.8667904 126.061915,24.9421941 L126.061915,57.106038 C126.061915,58.1683158 125.231463,59.0452623 124.17076,59.103074 L114.069321,59.6536347 L87.476959,52.2841166 C86.8360017,52.1064887 86.3252831,51.6218462 86.1143385,50.9910687 L71.1258102,6.17157065 C70.7754814,5.12402428 71.3406962,3.99082669 72.3882451,3.64050556 C72.9946319,3.43771781 73.6614262,3.53708393 74.1823398,3.9078627 Z" id="Rectangle-Copy" stroke="#15003E" stroke-width="4" fill="#87B949" stroke-linecap="round" transform="translate(97.561915, 29.826817) scale(-1, 1) translate(-97.561915, -29.826817) "></path>
                <rect id="Rectangle-Copy-19" stroke="#15003E" stroke-width="4" fill="#297AD1" stroke-linecap="round" x="54" y="28" width="22" height="14" rx="3"></rect>
                <circle id="Oval" fill="#D33431" cx="84" cy="46" r="6"></circle>
                <path d="M48.5619147,42 L48.5619147,52" id="Line" stroke="#D33431" stroke-width="4" stroke-linecap="round"></path>
                <path d="M43.5619147,40 L43.5619147,50" id="Line-Copy" stroke="#195B20" stroke-width="4" stroke-linecap="round"></path>
                <path d="M38.5619147,38 L38.5619147,48" id="Line-Copy-2" stroke="#17659C" stroke-width="4" stroke-linecap="round"></path>
                <path d="M64.3382818,133.01604 L58.2144582,131.431641 C57.1076873,123.595703 47.1766978,112.451823 28.4214894,98 C27.2068006,90.6807545 39.2914027,87.8684963 64.6752958,89.5632255 C90.0591888,87.8684963 102.143791,90.6807545 100.929102,98 C82.1738938,112.451823 72.2429042,123.595703 71.1361334,131.431641 L65.0123097,133.01604 L65.0123097,133.19043 L64.6752958,133.103235 L64.3382818,133.19043 L64.3382818,133.01604 Z" id="Combined-Shape" stroke="#15003E" stroke-width="4" stroke-linecap="round" stroke-linejoin="round"></path>
            </g>
            <g id="Group-8" transform="translate(148.000000, 8.000000)" fill-rule="nonzero">
                <path d="M55.7906873,27.5429945 C53.8249284,29.5439043 54.3143831,31.8822495 53.7949617,34.1683947 C53.5511308,33.6376064 53.2847608,33.1201343 53.0276114,32.5970694 C53.1515759,31.9957045 53.2483911,31.3967366 53.3021773,30.8025625 C53.4046273,29.6733389 53.348536,28.5217438 53.1787251,27.3690834 C53.1802619,27.1906448 53.1459411,27.030849 53.084215,26.8761134 C52.5174105,23.6399821 51.1028324,20.4214283 49.7115617,17.7043671 C49.4441672,17.1818348 48.88812,17.0428125 48.3832977,17.1591971 C47.3882523,15.2805311 46.0930284,13.5504752 44.427704,12.4766475 C40.7725448,10.1193931 35.5055914,11.2819075 31.3563672,11.3194595 C28.1555737,11.3484891 24.7954705,11.239029 21.5918596,11.8270775 C15.5560191,12.5618719 11.3491668,15.5830778 9.26251682,22.7206236 C9.10961023,23.2431559 9.3567708,23.721478 9.7386531,24.0266879 C8.60811758,27.2492366 8.61503295,31.089396 9.29939881,34.7135647 C8.20318403,31.1181592 5.40245771,22.6926593 3.22590789,28.3049542 C2.53770016,30.0794865 3.53069658,36.7498959 4.74037472,38.5603823 C6.39980826,41.0441417 8.91290627,40.3239953 11.2541444,40.9834193 C12.9397027,44.3599046 15.5839367,43.6994153 19.4701205,43.7702581 C20.5486627,43.7899662 21.14569,42.1936062 20.2899765,41.475324 C15.8359636,37.7369013 12.9153708,29.7894571 14.600673,24.1792929 C15.5424445,21.0440993 18.0002195,19.2722302 20.9968814,18.1853524 C26.2136343,17.0148482 32.2205328,17.100339 37.6708717,17.2401603 C39.5446818,17.7746772 41.3585587,18.4162574 43.1419567,19.2698333 C43.5760885,19.4775678 44.0232827,19.3888811 44.3780157,19.1563783 C44.382626,19.1646344 44.3869801,19.1723578 44.3915904,19.180614 C44.2724923,19.3060537 44.1761893,19.4488046 44.1047304,19.61153 C43.5517566,19.9305889 43.1967675,20.6672476 43.5599526,21.4640959 C45.3515467,25.3950726 44.9919472,31.1365357 43.7786834,35.0563267 C43.7515341,35.1442144 43.7085051,35.2784429 43.6667567,35.4086765 C42.8625244,37.1259487 41.9450848,38.7049975 41.6538708,40.6009747 C41.605207,40.60204 41.5483473,40.5991104 41.5007081,40.6007084 C39.8643258,40.6624961 39.9437245,43.304187 41.5788262,43.2426656 C42.9060656,43.1925962 44.7522143,43.3918083 46.430345,43.2093748 C46.0794538,44.6917472 48.1463821,45.7922076 48.7065274,44.2658914 C49.0041446,43.455194 49.3491449,42.617864 49.7059269,41.7696146 C49.9228648,41.5174036 50.12213,41.2428212 50.2653038,40.9016571 C50.4433107,40.4784646 50.5644578,40.0153231 50.653077,39.5319408 C51.1005273,38.4746252 51.5356836,37.4023954 51.9285792,36.325638 C52.0310292,36.5765174 52.1493589,36.8178091 52.2471987,37.0716181 C51.4022425,37.6183861 51.3215631,39.2152788 52.567611,39.4802735 C58.0310123,40.6419889 57.7920477,32.0356535 57.997716,28.3949725 C58.0676381,27.1610826 56.5142403,26.8066022 55.7906873,27.5429945 Z" id="Shape" fill="#FFFFFF"></path>
                <polygon id="Shape" fill="#87B949" points="10 45 45.9532824 45 49 46.1170292 46.7090873 54 12.2627669 54"></polygon>
                <path d="M42.0519494,65 L16.9477882,65 C14.2151965,65 12,62.6352549 12,59.717905 L12,54 L47,54 L47,59.717905 C47,62.6352549 44.7845411,65 42.0519494,65" id="Shape" fill="#EFF4EE"></path>
                <path d="M41.9603903,66 L17.0396097,66 C13.708956,66 11,63.1786646 11,59.711112 L11,53 L48,53 L48,59.711112 C48,63.1786646 45.2913044,66 41.9603903,66 Z M13.2089552,55.3636364 L13.2089552,59.710406 C13.2089552,61.8752773 14.9114706,63.6363636 17.0036994,63.6363636 L41.9963006,63.6363636 C44.0885294,63.6363636 45.7910448,61.8752773 45.7910448,59.710406 L45.7910448,55.3636364 L13.2089552,55.3636364 Z" id="Shape" fill="#15003E"></path>
                <path d="M23.2729847,45 C17.8132728,42.5810229 14,37.0784219 14,30.6757732 C14,26.8980448 15.3286229,23.4325187 17.5397788,20.7302712 C20.3826563,17.2547505 38.2658786,17.0774763 41.1064096,20.3125985 C43.6197386,23.1687116 45.0054589,26.8567509 45,30.6760362 C45,37.0776329 41.1874932,42.5804968 35.7285635,44.999474" id="Shape" fill="#87B949"></path>
                <path d="M22.1696037,46 C22.0051692,46 21.8381492,45.962567 21.6801783,45.882315 C15.7090846,42.8564359 12,36.6824145 12,29.7691586 C12,26.3382491 12.9348982,23.0032111 14.7036037,20.1246403 C15.0366094,19.5811885 15.7284755,19.424724 16.250219,19.7705079 C16.7711869,20.1179077 16.9234699,20.8393682 16.5896884,21.3820121 C15.0526392,23.8846371 14.2392571,26.7850214 14.2392571,29.7691586 C14.2392571,35.781868 17.4661555,41.1520225 22.6603219,43.7841818 C23.2161933,44.0661412 23.4478495,44.7639031 23.1771531,45.343172 C22.9837615,45.7587053 22.5843097,46 22.1696037,46 Z M36.847552,46 C36.4305605,46 36.0293143,45.765899 35.830397,45.3604981 C35.5490786,44.7888747 35.7760753,44.0935199 36.3376624,43.8070401 C41.5126616,41.1677918 44.7273543,35.8689851 44.7273543,29.9785122 C44.7323403,26.6682278 43.7183344,23.5102694 41.79398,20.8432283 C41.4223878,20.3282595 41.5307688,19.6035084 42.0364597,19.2248314 C42.5429378,18.845887 43.254369,18.9575928 43.6259612,19.4722943 C45.8397692,22.5401933 47.0065058,26.1738364 46.9999727,29.9803828 C46.9999727,36.7506052 43.3042295,42.8428433 37.3553423,45.8770702 C37.1921146,45.9607159 37.0186524,46 36.847552,46 Z" id="Shape" fill="#15003E"></path>
                <path d="M47.9836548,55 L11.0147623,55 L5,30.6490629 C5,30.5549563 5,30.4592319 5.00079142,30.3651254 C5,30.344902 5,30.3246785 5,30.3039158 L5,7.58325938 C5,6.93799609 5.51178241,6.41515215 6.14254104,6.41515215 C6.77329967,6.41515215 7.28508208,6.93826573 7.28508208,7.58325938 L7.28508208,20.0905276 C11.1886101,11.5430135 19.6786581,5.60675292 29.4996043,5.60675292 C39.319759,5.60675292 47.8079605,11.5419349 51.7133351,20.0872918 L51.7133351,1.16810723 C51.7133351,0.522843934 52.2251175,0 52.8558761,0 C53.4866348,0 53.9984172,0.52311358 53.9984172,1.16810723 L53.9984172,30.3039158 C53.9984172,30.3128141 53.9984172,30.3217124 53.9984172,30.3306107 C54,30.4365817 54,30.5430919 54,30.6490629 L53.9651777,30.9367753 L47.9836548,55 Z M12.7920191,52.6637855 L46.2063981,52.6637855 L51.7135989,30.5045325 C51.637623,18.0509239 41.7016577,7.94323703 29.4990767,7.94323703 C17.2972871,7.94323703 7.36158563,18.0509239 7.28534588,30.5045325 L12.7920191,52.6637855 Z" id="Shape" fill="#15003E"></path>
                <path d="M53.3098404,42 L50.9124515,42 C50.2853695,42 49.7765702,41.4743704 49.7765702,40.8262745 C49.7765702,40.1781786 50.2853695,39.652549 50.9124515,39.652549 L53.3098404,39.652549 C54.8294193,39.652549 55.6101902,37.3067237 55.7507657,36.8363664 C55.825512,36.586286 55.9036677,36.3508364 55.9807744,36.114574 C56.3655211,34.9476221 56.7287619,33.8454256 56.7287619,30.5410036 C56.7287619,28.9194091 56.560386,27.6121087 56.3678815,26.6467384 C54.4323461,28.9405427 53.6426581,28.9405427 53.3098404,28.9405427 C52.6827583,28.9405427 52.173959,28.4149131 52.173959,27.7668172 C52.173959,27.1780578 52.5930628,26.6903602 53.1404154,26.6060969 C53.6038424,26.338947 54.8768898,24.9091803 55.9288454,23.4672211 C56.1680336,23.1399219 56.5582879,22.9654345 56.9495913,23.005805 C57.3448287,23.0469884 57.6899729,23.2978817 57.8617583,23.66799 C57.9076551,23.7685099 59,26.1828838 59,30.5410036 C59,34.233958 58.5586035,35.5740425 58.1321562,36.8705053 C58.0605572,37.086176 57.9900072,37.3013048 57.9218176,37.5302517 C57.0828232,40.3290939 55.3586755,42 53.3098404,42 Z M8.08781078,42 L5.6904219,42 C3.64158676,42 1.91717676,40.3290939 1.07818244,37.5305227 C1.00999284,37.3013048 0.939180569,37.086176 0.86784376,36.8705053 C0.441396509,35.5740425 0,34.233687 0,30.5410036 C0,26.1828838 1.0923449,23.7685099 1.13824174,23.66799 C1.31002707,23.2978817 1.65517134,23.0469884 2.05040874,23.005805 C2.44564613,22.9651636 2.83196643,23.1399219 3.07115456,23.4672211 C4.12311023,24.9094513 5.39615756,26.339218 5.85984682,26.6060969 C6.40719947,26.6900893 6.82630323,27.1780578 6.82630323,27.7668172 C6.82630323,28.415184 6.31750392,28.9405427 5.6904219,28.9405427 C5.35760421,28.9405427 4.56765395,28.9400008 2.63238072,26.6467384 C2.44013851,27.6115668 2.27150039,28.9188672 2.27150039,30.5410036 C2.27150039,33.8454256 2.63474113,34.9476221 3.01948782,36.114574 C3.09685679,36.3505655 3.17475029,36.586286 3.24949658,36.8366374 C3.39007206,37.3067237 4.17084295,39.652549 5.6904219,39.652549 L8.08781078,39.652549 C8.7148928,39.652549 9.22369211,40.1781786 9.22369211,40.8262745 C9.22369211,41.4743704 8.7148928,42 8.08781078,42 Z" id="Shape" fill="#15003E"></path>
                <path d="M49.9017453,45 L10.0259022,45 C9.39462859,45 8.88242837,44.4927922 8.88242837,43.8674101 C8.88242837,43.2420281 9.39462859,42.7348203 10.0259022,42.7348203 L49.9017453,42.7348203 C50.5330188,42.7348203 51.0452191,43.2420281 51.0452191,43.8674101 C51.0452191,44.4927922 50.5330188,45 49.9017453,45 Z M6.16099325,28.1358625 C5.86862191,28.1358625 5.57571461,28.0286691 5.34980348,27.8134979 C4.89128162,27.3768808 4.88217014,26.6594694 5.33050858,26.212133 C11.920253,19.6267975 20.6841575,16 30.008954,16 C38.7913495,16 47.1814153,19.2686146 53.6350235,25.203992 C54.1018529,25.6332886 54.1238276,26.3496543 53.6837967,26.8048341 C53.2437658,27.2600139 52.5089516,27.2809297 52.0429262,26.8524175 C46.0218454,21.3149629 38.1966914,18.2654412 30.008954,18.2654412 C21.3155295,18.2654412 13.1411914,21.6496155 6.9917459,27.7941508 C6.76395888,28.02161 6.46247607,28.1358625 6.16099325,28.1358625 Z" id="Shape" fill="#15003E"></path>
                <path d="M37.8407401,24.1385016 C37.8410252,26.4241777 35.8620698,28.27727 33.4207976,28.2775369 C30.9795254,28.2778037 29.000285,26.4249783 29,24.1393022 L29,24.1382347 C29.000285,21.8525585 30.9795254,19.9997331 33.4207976,20 C35.8617848,20.0005337 37.8404551,21.8530923 37.8407401,24.1385016 M41,30.3262392 C41,31.2506505 40.199639,32 39.212299,32 C38.224959,32 37.424598,31.2506505 37.424598,30.3262392 C37.424598,29.401828 38.224959,28.6524785 39.212299,28.6524785 C40.199639,28.6524785 41,29.401828 41,30.3262392" id="Shape" fill="#FFFFFF"></path>
                <path d="M43.8766891,51.9997032 C42.2813335,51.9997032 41.4840447,50.6207954 40.9564958,49.7084488 C40.4551428,48.8412149 40.2453163,48.5711318 39.912032,48.5711318 C39.5787476,48.5711318 39.3699586,48.8412149 38.8683462,49.7084488 C38.3415754,50.6207954 37.5442866,51.9997032 35.9497091,51.9997032 C34.3551315,51.9997032 33.5586209,50.6207954 33.031072,49.7090423 C32.5297189,48.8412149 32.3198924,48.5711318 31.9866081,48.5711318 C31.6525457,48.5711318 31.4419411,48.8412149 30.9405881,49.7090423 C30.4130392,50.621389 29.6157504,51.9997032 28.0203948,51.9997032 C26.4258172,51.9997032 25.6293065,50.6207954 25.1017576,49.7090423 C24.6004046,48.8412149 24.3905781,48.5711318 24.0572938,48.5711318 C23.7224532,48.5711318 23.5126268,48.8412149 23.0104956,49.7096359 C22.4829467,50.6216858 21.685658,52 20.0903023,52 C18.4949467,52 17.6966205,50.6216858 17.1693309,49.7093391 C16.6669404,48.8415117 16.4573733,48.5714286 16.1233109,48.5714286 C15.5031686,48.5714286 15,47.995647 15,47.2857143 C15,46.5757816 15.5031686,46 16.1233109,46 C17.7186665,46 18.5162147,47.3783142 19.0435042,48.2903641 C19.5458947,49.1584883 19.7554618,49.4288682 20.0903023,49.4288682 C20.4243648,49.4288682 20.6349694,49.1587851 21.1363224,48.2909577 C21.6638713,47.378611 22.4619382,46.0002968 24.0572938,46.0002968 C25.6518713,46.0002968 26.448382,47.3792046 26.9759309,48.2909577 C27.4772839,49.1587851 27.6871104,49.4288682 28.0203948,49.4288682 C28.3544572,49.4288682 28.5650618,49.1587851 29.0664148,48.2909577 C29.5939637,47.378611 30.3912525,46.0002968 31.9866081,46.0002968 C33.5811856,46.0002968 34.3776963,47.3792046 34.9052452,48.2909577 C35.4065983,49.1587851 35.6164247,49.4288682 35.9497091,49.4288682 C36.2829934,49.4288682 36.4925605,49.1587851 36.9941729,48.2909577 C37.5209437,47.3789078 38.3174544,46.0002968 39.912032,46.0002968 C41.5066095,46.0002968 42.3031202,47.378611 42.8306691,48.2906609 C43.3320221,49.1587851 43.5426267,49.429165 43.8766891,49.429165 C44.4968314,49.429165 45,50.0049466 45,50.7148793 C45,51.424812 44.4968314,51.9997032 43.8766891,51.9997032 Z" id="Shape" fill="#15003E"></path>
            </g>
            <path d="M126.573604,72.0000005 C124.265139,66.1018206 123,59.6959188 123,53 C123,23.7289083 147.176624,4.26325641e-14 177,4.26325641e-14 C206.823376,4.26325641e-14 231,23.7289083 231,53 C231,59.6959188 229.734861,66.1018206 227.426396,72.0000005 L126.5736,72 Z" id="Combined-Shape" stroke="#15003E" stroke-width="4" fill-opacity="0.311489292" fill="#BAFFFA" stroke-linecap="round"></path>
            <path d="M199.045219,19 C200.390073,17.1458333 201.875,15.2447917 203.5,13.296875 C217.166667,26.0989583 224,38.3334452 224,50.0003356 C223.96875,50.0996094 212.745605,28 199.045219,19 Z" id="Path-16" fill="#FFFFFF"></path>
        </g>
        <path d="M329.93047,456.5 L389.830572,456.5" id="Line-3-Copy" stroke="#15003E" stroke-width="4" stroke-linecap="round"></path>
        <path d="M181.830572,456.5 L225.269326,456.5" id="Line-3-Copy-2" stroke="#15003E" stroke-width="4" stroke-linecap="round"></path>
        <path d="M168.830572,456.5 L175.269326,456.5" id="Line-3-Copy-3" stroke="#15003E" stroke-width="4" stroke-linecap="round"></path>
    </g>
</svg>