<svg id="Layer_2" data-name="Layer 2" xmlns="http://www.w3.org/2000/svg" viewBox="0 0 1200 1200"><defs><style>.cls-1{fill:#f9006c;}.cls-16,.cls-2{fill:#fff;}.cls-15,.cls-18,.cls-3{fill:#15003e;}.cls-4{opacity:0.13;}.cls-4,.cls-5{isolation:isolate;}.cls-5{fill:#405d8a;opacity:0.13;}.cls-11,.cls-12,.cls-13,.cls-14,.cls-19,.cls-20,.cls-21,.cls-22,.cls-24,.cls-6{fill:none;}.cls-13,.cls-6{stroke:#fff;}.cls-11,.cls-12,.cls-13,.cls-16,.cls-21,.cls-24,.cls-6,.cls-9{stroke-linecap:round;}.cls-14,.cls-15,.cls-17,.cls-6{stroke-linejoin:round;}.cls-6{stroke-width:11px;}.cls-17,.cls-7,.cls-9{fill:#eff4ee;}.cls-8{fill:#25e899;}.cls-10,.cls-11,.cls-12,.cls-14,.cls-15,.cls-16,.cls-17,.cls-18,.cls-19,.cls-20,.cls-21,.cls-22,.cls-24,.cls-9{stroke:#15003e;}.cls-10,.cls-11,.cls-12,.cls-13,.cls-16,.cls-18,.cls-19,.cls-20,.cls-21,.cls-22,.cls-9{stroke-miterlimit:10;}.cls-10,.cls-11,.cls-14,.cls-15,.cls-16,.cls-17,.cls-18,.cls-19,.cls-9{stroke-width:6px;}.cls-10,.cls-23{fill:#47b978;}.cls-12,.cls-22{stroke-width:8px;}.cls-13{stroke-width:3px;}.cls-20,.cls-21,.cls-24{stroke-width:12px;}</style></defs><title>Clippy Bot</title><polygon class="cls-1" points="1112.52 300.02 1112.52 900.07 592.92 1200.09 177.11 960.07 175.23 958.95 73.22 900.07 73.22 300.02 592.92 0 1112.52 300.02"/><path class="cls-2" d="M1029,352.71V850.94l-.09.09-10.22,5.82-3.1,1.78-1.22.65-8.25,4.78-29.44,17-1.87,1.13-18.1,10.41-1.5.84-13.87,8.06L936.9,904l-1.31.75-4.41,2.53-2.25,1.22-.28.09-.94.37-1,.66-28.41,16.31-7.69,4.41L880.74,936l-.38.28-11.53,6.65-4.22,2.44-.18.19h-.1l-14.44,8.34-8.15,4.88-11.82,6.75-.47.28-.65.38-.75.46-3.85,2.25-.28.1-.47.28-.47.19-.56.37v.1l-7.31,4.21-1.69.85-.19.19-.37.18-9.47,5.44-1.31.75-1.41.84-.47.29-3,1.68L795,985.67h-.09l-.66.37-6,3.56-1.87,1.13-3.1,1.78-2.34,1.31a.1.1,0,0,1-.1.1l-4.4,2.53-3.94,2.25-.38.28-5.34,3.09-21.85,12.57L739,1018l-.56.28-32.82,19-.19.09-.09.09-3.75,2.16-3.28,1.87-4.69,2.72-1.31.75-11.72,6.75-9.19,5.35-3.66,2.06-.09.09-4,2.35-3.75,2.16-22.13,12.75-3.37,2-.38.18-1.69.94-4.68,2.72-17.54,10.12-5.25,3h-.09l-3,1.78-4.5,2.62-1.31-.75-12-6.94-8-4.59-.29-.09-8.53-5-1.59-.94-.47-.28-5.72-3.28-1.59-.94-31.51-18.19-.37-.28-19.41-11.16-44.53-25.88-5.72-3.28-6.47-3.65-8.72-5.07-2.06-1.12-.85-.56-.28-.19-20.91-12.1L405.49,989,402,987l-3.66-2.06-2.16-1.22-2.43-1.41-2.25-1.41-.85-.46-3.28-1.88-.75-.47-.75-.37-.38-.29-12.18-6.93-.47-.28-1.41-.75L368,967.38l-16-9.28-23.53-13.69-19.6-11.25-7.69-4.4-.84-.47-4.69-2.72-.09-.1-2-1.12h-.09l-9.75-5.63c-.1-.09-.1-.09-.19-.09L266.07,908.5,256.51,903,244,895.75l-6.75-4-.38-.19-.19-.09L234,889.85a.27.27,0,0,1-.18-.1l-2.44-1.4-.19-.1-30.94-17.81-32-18.47-.84-.47-.75-.38-.28-.18V352.71l53.06-30.56,7.22-4.32h.09l2.35-1.31,5.44-3.09L251,304l21.29-12.28,7.69-4.5,1.4-.85,19.41-11.16,9.19-5.34,9.47-5.53,3.93-2.25,4.22-2.44,2.35-1.31H330l5.35-3.1,30.28-17.43,14.81-8.63,1.6-.84,15.56-8.91,7.31-4.22,3.57-2.06,4.12-2.44,10.31-6.09,4.88-2.82,21.38-12.19,6.47-3.84,13.12-7.5h.1l.46-.28L523,147l1.78-1,2.54-1.5,56.91-32.91,13.5-7.78,9.94,5.81,60.85,35.16,24.37,14.06,37,21.38,12.56,7.22,62.25,35.91,9.76,5.72L836,241.33l8.16,4.69,14.25,8.25,12.84,7.4,7.5,4.32.85.56,17,9.75L932,296.74l.37.28v.09l2.44,1.32,2.44,1.5,3.75,2.15,8.62,5,5.07,2.91.18.09,18,10.41,7.32,4.12,4.12,2.35,18.19,10.5Z"/><path class="cls-3" d="M720.46,1078.91l14.68-8.43.67,1.15a28.41,28.41,0,0,1,3.15,7.64,17.54,17.54,0,0,1-.05,7.14,18.58,18.58,0,0,1-9.37,12.8,20,20,0,0,1-15.87,2A21.36,21.36,0,0,1,708.8,1062a21,21,0,0,1,8.75-2.77,25.93,25.93,0,0,1,10,1.59l-1.73,5.87q-7.71-3.3-14,.3a14.61,14.61,0,0,0-7.22,9.34,15,15,0,0,0,1.69,11.77,14.45,14.45,0,0,0,9.87,7.32,14.72,14.72,0,0,0,10.71-1.41,12.33,12.33,0,0,0,5.55-6.74,11,11,0,0,0-.16-8.46l-8.87,5.1Z"/><rect class="cls-3" x="754.15" y="1038.3" width="6.18" height="40.99" transform="translate(-427.44 519.37) rotate(-29.95)"/><polygon class="cls-3" points="783.18 1026.87 800.72 1057.36 795.37 1060.43 777.83 1029.96 769.66 1034.66 766.76 1029.62 788.42 1017.15 791.31 1022.19 783.18 1026.87"/><path class="cls-3" d="M831.54,994.86l3.65,6.34q-6.9-1.22-11.86,1.64a14.21,14.21,0,0,0-7,9.24,15.35,15.35,0,0,0,1.74,11.75,15,15,0,0,0,9.2,7.27,14.49,14.49,0,0,0,11.48-1.49,13.09,13.09,0,0,0,4.26-3.69,15.7,15.7,0,0,0,1.58-2.55A33.74,33.74,0,0,0,846,1020l3.73,6.47a22.26,22.26,0,0,1-8.17,8.18,20.57,20.57,0,0,1-16,2.17,20.36,20.36,0,0,1-12.82-9.85,21.06,21.06,0,0,1-2.46-14.68A20.51,20.51,0,0,1,820.8,997.6a20.8,20.8,0,0,1,10.74-2.74"/><path class="cls-2" d="M857.53,993.26a20.06,20.06,0,0,1-1.92-16,21,21,0,0,1,10.07-13,21.44,21.44,0,0,1,29.1,7.84,20.18,20.18,0,0,1,2,16.16,21.67,21.67,0,0,1-25.29,15.34q-9.06-1.79-14-10.34m5.43-3a15.2,15.2,0,0,0,28-3.33,15.89,15.89,0,0,0-10.91-19.06,14.41,14.41,0,0,0-11.57,1.51,14.57,14.57,0,0,0-7.13,9.25A14.79,14.79,0,0,0,863,990.22"/><rect class="cls-3" x="913.35" y="946.62" width="6.19" height="40.98" transform="translate(-360.56 587.06) rotate(-29.97)"/><polygon class="cls-3" points="950.17 971.36 928.33 933.41 969.85 945.61 955.63 920.91 960.98 917.84 982.68 955.53 941.21 943.4 955.52 968.27 950.17 971.36"/><g id="Layer_2-2" data-name="Layer 2"><g id="Layer_16" data-name="Layer 16"><path class="cls-4" d="M980.88,324.91l-5-2.81-6.75-3.94-7.22-4.22-1-.56-4.6-2.63L951.53,308l-8.43-4.88-68-39.19-16-9.19-6.75-3.94-4.22-2.43-4.59-2.72-.47-.19-3.94-2.34-3.85-2.25-50-28.79L602.48,106.74l-5-2.91-4.41,2.53L432.68,199l-47.06,27.19-12.19,7-5,2.9-.94.47h-.09L365.08,238l-3.94,2.34-2.81,1.6-2.53,1.5-1.69.93-14.06,8.16H340l-16.69,9.56-.1.1-5.43,3.19-7.13,4-.09.09-.29.19-30.47,17.53h-.09l-22.31,12.85L248,305.5,220,321.63l-39.66,22.88-14.44,8.34v498l.66.37,16.12,9.38,7,4,1.4.75,40.51,23.44,6.47,3.66,5,2.9,17.63,10.22,14.91,8.63,4.31,2.44,12.19,7L323.83,942l50.44,29.07,6.47,3.75.66.37,1.4.75,1,.66,1.69.93.38.19,17.9,10.41,8.25,4.69,12.47,7.31,8.35,4.78,1.69.94,2.9,1.69,1.78,1,4.5,2.62,33.48,19.22.84.47,4.12,2.44,5.82,3.38,6.75,3.93h.09l5,2.82,14.16,8.15,29.72,17.25,42,24.19,9.66,5.63,2.16,1.22.18-.1,1.78-1,1.32-.75.28-.18,2.9-1.69,17-9.66.85-.47,6.47-3.75,4.69-2.72,2.25-1.31,36.09-20.81,23-13.22,6.94-4,6.19-3.56,6.28-3.65,4.13-2.44L739.64,1018l3.66-2.06h.09l2.16-1.31,2-1.13,5.9-3.37,7.5-4.31,11.82-6.85,4.31-2.53h.09l4.32-2.53.09-.09,2.35-1.32,5-2.9,3.47-2,3.29-2,5.15-2.91,2-1.22,3-1.68,4-2.25.19-.1.47-.28,1.22-.75,2.25-1.22,35.44-20.44,3.56-2.06,10.41-6.09,27.84-16,14.63-8.43,28.6-16.51,17.72-10.22L985.76,876h.09l.56-.38,24.85-14.34,8.44-4.88,9.65-5.53v-498Zm30.94,516-4.88,2.81-3,1.69-5.43,3.18-71.17,41.07-10.12,5.81L899.5,905.64l-15.94,9.19-29.25,16.88-12,6.94-6.75,3.84-27.47,15.84-.66.47-1.5.85-1.69,1-5.34,3-8.35,4.78-2.06,1.22L788,970l-7.59,4.41-.85.46-36.66,21.1-.75.47-7.4,4.22-.75.47-8.53,5-20.16,11.62L690.89,1026l-15.75,9.09L664.82,1041,637,1057.15l-11.53,6.66-.57.38h-.18l-7,4.12-2.62,1.41-17.53,10.12-32.35-18.65-11.53-6.66-5.72-3.28-17-9.85-6.75-3.84-6.47-3.75L468.4,1005.4l-7.22-4.22-.46-.28-16.79-9.66-19.31-11.06-8.44-4.88-5.44-3.18-2.34-1.41-4-2.34-2-1.13L386,957.77l-2.91-1.69-1.78-1-14.06-8.15-32.07-18.47-36.65-21.19-2.82-1.6L282,897.77l-4-2.35L250,879.3l-46-26.63-8.43-4.78-3.66-2.16-2.16-1.22-6.28-3.65V363L220,341.79,248,325.66l8.72-5.06h.09l.57-.38,30-17.34h.09l12.75-7.41h.1l16.78-9.66,11.72-6.75,4-2.34h.09l7.13-4.12,4.31-2.54h.1l27.94-16.12c.09-.1.09-.1.18-.1l7.32-4.22,3.28-1.87,1.87-1.13,2.72-1.59,1.6-.94,2.53-1.4.37-.19L467.56,199,593.1,126.52l4.41-2.53,5,2.91,157.79,91,65.44,37.79.47.28,3,1.69,1,.56,4.13,2.44,3.28,1.87,11.53,6.66,18.19,10.5,65.82,37.88,13.22,7.59,5.15,3,.38.28,7.22,4.13,1.78,1,5.06,2.91,5,2.9L1011.82,363V840.86Z"/></g></g><g id="Group-9"><ellipse id="Oval" class="cls-5" cx="589.82" cy="629.85" rx="264.15" ry="263.15"/><path id="Line-5" class="cls-6" d="M424,854.31V750.18"/><path id="Line-5-Copy" class="cls-6" d="M424,453.12V349"/><path id="Line-5-Copy-4" class="cls-6" d="M424,704.32V689.43"/><path id="Line-5-Copy-5" class="cls-6" d="M729.84,531.54v-14.9"/><path id="Line-5-Copy-6" class="cls-6" d="M765.59,670.56V655.67"/><path id="Line-5-Copy-7" class="cls-6" d="M706,791.71V776.82"/><path id="Line-5-Copy-9" class="cls-6" d="M785.45,470v-14.9"/><path id="Line-5-Copy-8" class="cls-6" d="M781.48,815.54V800.65"/></g><circle class="cls-7" cx="577.07" cy="370.64" r="3.51"/><circle class="cls-7" cx="614.81" cy="370.64" r="3.51"/><polygon class="cls-8" points="555.99 353.88 628.56 353.88 634.71 356.23 630.08 372.79 560.55 372.79 555.99 353.88"/><path class="cls-9" d="M620.25,393.26H570.38a9.83,9.83,0,0,1-9.83-9.83V372.79h69.53v10.64A9.83,9.83,0,0,1,620.25,393.26Z"/><path class="cls-10" d="M582.57,353.88a31,31,0,0,1-11.46-48.09c5.68-6.89,41.44-7.24,47.11-.83a31,31,0,0,1-10.75,48.92"/><path class="cls-11" d="M549.17,328a46.15,46.15,0,1,1,92.3,0l-11.39,44.81H560.55Z"/><line class="cls-11" x1="549.17" y1="327.31" x2="549.17" y2="283.39"/><line class="cls-11" x1="641.47" y1="327.31" x2="641.47" y2="270.99"/><path class="cls-11" d="M552.77,347H548a7,7,0,0,1-7-7v-17.8a7,7,0,0,1,7-7h2"/><path class="cls-11" d="M638,347h4.76a7,7,0,0,0,7-7v-17.8a7,7,0,0,0-7-7h-2"/><path class="cls-12" d="M549.67,320.26a64.46,64.46,0,0,1,90.78-1.94"/><line class="cls-11" x1="555.99" y1="353.88" x2="634.71" y2="353.88"/><circle class="cls-2" cx="603.43" cy="315.23" r="8.08"/><circle class="cls-2" cx="614.02" cy="327.31" r="3.27"/><path class="cls-13" d="M623.23,367.34c-4,0-4-8-8-8s-4,8-8,8-4-8-8-8-4,8-8,8-4-8-8-8-4,8-8,8-4-8-8-8"/><rect class="cls-3" x="715.8" y="897.13" width="15.59" height="7.87" transform="translate(1447.19 1802.13) rotate(-180)"/><rect class="cls-3" x="682.11" y="897.13" width="15.59" height="7.87" transform="translate(1379.8 1802.13) rotate(-180)"/><path class="cls-11" d="M724.89,897.13v-3.77c0-3.66-2.33-6.64-5.2-6.64H689.27V899.5"/><rect class="cls-3" x="700.22" y="781.93" width="15.59" height="44.3" transform="translate(1416.02 1608.16) rotate(-180)"/><path class="cls-9" d="M711.56,691.12h11.09a17.67,17.67,0,0,1,17.67,17.67v99a12.93,12.93,0,0,1-12.93,12.93h-2.91a12.93,12.93,0,0,1-12.93-12.93V691.12a0,0,0,0,1,0,0Z" transform="translate(1451.88 1511.84) rotate(-180)"/><rect class="cls-11" x="692.09" y="726.45" width="19.47" height="27.45" transform="translate(1403.64 1480.36) rotate(-180)"/><rect class="cls-3" x="692.09" y="726.45" width="9.73" height="27.45" transform="translate(1393.91 1480.36) rotate(-180)"/><rect class="cls-11" x="692.09" y="764.31" width="19.47" height="17.61" transform="translate(1403.64 1546.24) rotate(-180)"/><rect class="cls-3" x="692.09" y="764.31" width="9.73" height="17.61" transform="translate(1393.91 1546.24) rotate(-180)"/><ellipse class="cls-14" cx="725.94" cy="711.63" rx="6.68" ry="8.52"/><line class="cls-15" x1="711.56" y1="792.39" x2="740.32" y2="792.39"/><line class="cls-14" x1="711.56" y1="802.76" x2="740.32" y2="802.76"/><line class="cls-14" x1="725.94" y1="792.39" x2="725.94" y2="720.14"/><line class="cls-11" x1="705.78" y1="713.84" x2="697.86" y2="713.84"/><line class="cls-11" x1="705.78" y1="703.94" x2="697.86" y2="703.94"/><line class="cls-11" x1="705.78" y1="694.04" x2="697.86" y2="694.04"/><line class="cls-11" x1="711.56" y1="684.14" x2="692.09" y2="684.14"/><rect class="cls-16" x="677.08" y="876.31" width="62.5" height="20.82" rx="6.36" transform="translate(1416.66 1773.45) rotate(-180)"/><polyline class="cls-17" points="701.08 839.32 701.08 813.13 714.56 830.33 714.56 839.32"/><line class="cls-11" x1="726.19" y1="861.48" x2="691.35" y2="861.48"/><rect class="cls-16" x="696.21" y="839.09" width="24.97" height="12.54" rx="4.15" transform="translate(1417.4 1690.72) rotate(-180)"/><rect class="cls-16" x="701.08" y="851.63" width="14.72" height="24.68" transform="translate(1416.88 1727.94) rotate(-180)"/><line class="cls-11" x1="715.8" y1="870.29" x2="701.08" y2="870.29"/><path class="cls-7" d="M706.3,803.2a2.77,2.77,0,0,1,0-5.39"/><line class="cls-11" x1="690.92" y1="691.12" x2="690.92" y2="820.72"/><ellipse class="cls-18" cx="698.44" cy="672.19" rx="5.17" ry="6.59"/><ellipse class="cls-7" cx="694.65" cy="667.7" rx="3.21" ry="4.09"/><line class="cls-19" x1="640.43" y1="739.81" x2="698.02" y2="739.81"/><rect class="cls-19" x="643.77" y="735.16" width="25.59" height="11.05"/><rect class="cls-3" x="460.53" y="896.55" width="15.59" height="7.87"/><rect class="cls-3" x="494.22" y="896.55" width="15.59" height="7.87"/><path class="cls-11" d="M467,896.55v-3.77c0-3.67,2.33-6.64,5.21-6.64h30.41v12.78"/><rect class="cls-3" x="476.11" y="781.35" width="15.59" height="44.3"/><path class="cls-9" d="M464.52,690.54h2.91a12.93,12.93,0,0,1,12.93,12.93v99a17.67,17.67,0,0,1-17.67,17.67H451.59a0,0,0,0,1,0,0V703.47a12.93,12.93,0,0,1,12.93-12.93Z"/><rect class="cls-11" x="480.36" y="725.87" width="19.47" height="27.45"/><rect class="cls-3" x="490.09" y="725.87" width="9.73" height="27.45"/><rect class="cls-11" x="480.36" y="763.73" width="19.47" height="17.61"/><rect class="cls-3" x="490.09" y="763.73" width="9.73" height="17.61"/><ellipse class="cls-14" cx="465.97" cy="711.04" rx="6.68" ry="8.52"/><line class="cls-15" x1="480.36" y1="791.81" x2="451.59" y2="791.81"/><line class="cls-14" x1="480.36" y1="802.18" x2="451.59" y2="802.18"/><line class="cls-14" x1="465.97" y1="791.81" x2="465.97" y2="719.56"/><line class="cls-11" x1="486.13" y1="713.25" x2="494.05" y2="713.25"/><line class="cls-11" x1="486.13" y1="703.35" x2="494.05" y2="703.35"/><line class="cls-11" x1="486.13" y1="693.46" x2="494.05" y2="693.46"/><line class="cls-11" x1="480.36" y1="683.56" x2="499.83" y2="683.56"/><rect class="cls-16" x="452.33" y="875.73" width="62.5" height="20.82" rx="6.36"/><polyline class="cls-17" points="490.83 838.74 490.83 812.55 477.35 829.75 477.35 838.74"/><line class="cls-11" x1="465.72" y1="860.9" x2="500.57" y2="860.9"/><rect class="cls-16" x="470.73" y="838.51" width="24.97" height="12.54" rx="4.15"/><rect class="cls-16" x="476.11" y="851.05" width="14.72" height="24.68"/><line class="cls-11" x1="476.11" y1="869.71" x2="490.83" y2="869.71"/><path class="cls-7" d="M485.61,802.62a2.77,2.77,0,0,0,0-5.39"/><line class="cls-11" x1="501" y1="690.54" x2="501" y2="820.14"/><ellipse class="cls-18" cx="493.47" cy="671.61" rx="5.17" ry="6.59"/><ellipse class="cls-7" cx="497.26" cy="667.12" rx="3.21" ry="4.09"/><line class="cls-19" x1="551.48" y1="739.23" x2="493.9" y2="739.23"/><rect class="cls-18" x="540.43" y="734.57" width="25.59" height="11.05"/><line class="cls-20" x1="595.1" y1="437.35" x2="595.1" y2="465.85"/><path class="cls-21" d="M507.27,659.54V545.18c0-59,40.37-106.9,90.16-106.9s90.16,47.86,90.16,106.9V654.89"/><path class="cls-21" d="M486.92,655.47V533c0-63.24,49.61-114.5,110.8-114.5S708.53,469.76,708.53,533V650.48"/><path class="cls-21" d="M657.92,589.52V731.71c0,35.63-24.74,64.52-55.25,64.52s-55.26-28.89-55.26-64.52V530.37c0-35.64,20-64.52,50.55-64.52s43.5,31.5,43.5,67.13V681A29.52,29.52,0,0,1,631.1,703.7l-.8.66c-10.72,8.44-28.71,12-42.33,2.35-14.08-10-14.23-27.56-14.13-30.76,0-.36,0-.72,0-1.08v-83"/><rect class="cls-22" x="567.77" y="401.86" width="57.58" height="15.7"/><path class="cls-3" d="M616.25,486c2.64-1.73,5.8-1.52,8.56-1.1a36.85,36.85,0,0,1,14.08,4.69,41.44,41.44,0,0,1,12.7,11.88,42.91,42.91,0,0,1,6.08,12.7c-5.44-9.67-12.33-13.85-15.47-15.47-5.72-2.94-12.21-6.29-19.05-5-1.45.29-4.56,1.09-6.9-.55-1.24-.87-2.55-2.63-2.21-4.42A4.58,4.58,0,0,1,616.25,486Z"/><path class="cls-3" d="M523.89,510.81c-.63-.91,5.72-7.59,14.36-12.15a44,44,0,0,1,15.74-5s10.34-1,18.77,3.59c2.24,1.23,3.77,2.55,4.15,4.42a4.84,4.84,0,0,1-1.11,4.14c-1.8,1.93-4.9,1.4-6.63,1.11-2.08-.36-2.44-.94-5.24-1.94a33.92,33.92,0,0,0-7.18-1.65,40.22,40.22,0,0,0-9.11-.28c-1.38.13-4.48.5-11.6,3C527.41,509.2,524.3,511.4,523.89,510.81Z"/><circle class="cls-2" cx="552.93" cy="538.26" r="27.05"/><circle class="cls-23" cx="547.12" cy="535.94" r="13.09"/><circle class="cls-2" cx="627.68" cy="533.32" r="29.08"/><circle class="cls-23" cx="621.57" cy="530.7" r="13.09"/><path id="Line-3-Copy" class="cls-24" d="M442.32,920.45h353"/><path id="Line-3-Copy-3" class="cls-24" d="M384.32,920.67h22.84"/></svg>