<svg id="Layer_1" data-name="Layer 1" xmlns="http://www.w3.org/2000/svg" xmlns:xlink="http://www.w3.org/1999/xlink" viewBox="0 0 110.8592 127.9948"><defs><linearGradient id="linear-gradient" x1="-0.004" y1="63.9962" x2="110.8459" y2="63.9962" gradientUnits="userSpaceOnUse"><stop offset="0" stop-color="#100006"/><stop offset="0.996" stop-color="#211c27"/></linearGradient><radialGradient id="radial-gradient" cx="55.4209" cy="63.9962" r="38.7515" gradientUnits="userSpaceOnUse"><stop offset="0" stop-color="#517cfe"/><stop offset="0.7027" stop-color="#65eca9"/><stop offset="1" stop-opacity="0"/></radialGradient><linearGradient id="linear-gradient-2" x1="33.1777" y1="54.7107" x2="78.7423" y2="54.7107" gradientUnits="userSpaceOnUse"><stop offset="0" stop-color="#397ebd"/><stop offset="0.1818" stop-color="#3973b6"/><stop offset="0.4997" stop-color="#3956a4"/><stop offset="0.9131" stop-color="#392887"/><stop offset="1" stop-color="#391d80"/></linearGradient><linearGradient id="linear-gradient-3" x1="33.1777" y1="-1185.6129" x2="56.2312" y2="-1185.6129" gradientTransform="matrix(1, 0, 0, -1, 0, -1146)" xlink:href="#linear-gradient-2"/><linearGradient id="linear-gradient-4" x1="56.2312" y1="-1185.6129" x2="78.7423" y2="-1185.6129" gradientTransform="matrix(1, 0, 0, -1, 0, -1146)" xlink:href="#linear-gradient-2"/><linearGradient id="linear-gradient-5" x1="56.2312" y1="-1216.2605" x2="78.7423" y2="-1216.2605" gradientTransform="matrix(1, 0, 0, -1, 0, -1146)" xlink:href="#linear-gradient-2"/><linearGradient id="linear-gradient-6" x1="33.1777" y1="-1216.2605" x2="56.2312" y2="-1216.2605" gradientTransform="matrix(1, 0, 0, -1, 0, -1146)" xlink:href="#linear-gradient-2"/><linearGradient id="linear-gradient-7" x1="33.1777" y1="51.9985" x2="78.7423" y2="51.9985" xlink:href="#linear-gradient-2"/><linearGradient id="linear-gradient-8" x1="46.2866" y1="51.9533" x2="65.6334" y2="51.9533" xlink:href="#linear-gradient-2"/><linearGradient id="linear-gradient-9" x1="52.1629" y1="51.9985" x2="59.757" y2="51.9985" xlink:href="#linear-gradient-2"/><radialGradient id="radial-gradient-2" cx="55.88" cy="66.2199" r="28.6565" gradientUnits="userSpaceOnUse"><stop offset="0" stop-color="#fd8073"/><stop offset="0.9892" stop-color="#ff002a" stop-opacity="0"/></radialGradient><radialGradient id="radial-gradient-3" cx="55.1167" cy="86.4385" r="32.4454" gradientTransform="translate(0 73.528) scale(1 0.2997)" gradientUnits="userSpaceOnUse"><stop offset="0"/><stop offset="1" stop-opacity="0"/></radialGradient><radialGradient id="Super_Soft_Black_Vignette_2" cx="55.6167" cy="101.3993" r="39.6248" gradientTransform="translate(0 29.2928) scale(1 0.6319)" gradientUnits="userSpaceOnUse"><stop offset="0.5744" stop-color="#130c0e"/><stop offset="0.7977" stop-color="#130c0e"/><stop offset="1" stop-color="#130c0e"/></radialGradient><linearGradient id="linear-gradient-10" x1="55.1156" y1="111.1238" x2="55.682" y2="72.9848" gradientUnits="userSpaceOnUse"><stop offset="0" stop-color="#42e8e0"/><stop offset="0.0398" stop-color="#3eced1" stop-opacity="0.8765"/><stop offset="0.1138" stop-color="#38a2b9" stop-opacity="0.6727"/><stop offset="0.1924" stop-color="#337ba4" stop-opacity="0.492"/><stop offset="0.2742" stop-color="#2e5b92" stop-opacity="0.3398"/><stop offset="0.3601" stop-color="#2a4083" stop-opacity="0.216"/><stop offset="0.4515" stop-color="#282c78" stop-opacity="0.1202"/><stop offset="0.5509" stop-color="#261d70" stop-opacity="0.0524"/><stop offset="0.6643" stop-color="#24156b" stop-opacity="0.0125"/><stop offset="0.8226" stop-color="#24126a" stop-opacity="0"/></linearGradient><linearGradient id="New_Gradient_Swatch_40" x1="51.1263" y1="114.6213" x2="59.9549" y2="114.6213" gradientUnits="userSpaceOnUse"><stop offset="0" stop-color="#27d3a2"/><stop offset="1" stop-color="#9388fd"/></linearGradient><linearGradient id="New_Gradient_Swatch_40-2" x1="46.9119" y1="112.1213" x2="64.2792" y2="112.1213" xlink:href="#New_Gradient_Swatch_40"/><linearGradient id="New_Gradient_Swatch_40-3" x1="42.6875" y1="109.6213" x2="68.5935" y2="109.6213" xlink:href="#New_Gradient_Swatch_40"/><linearGradient id="New_Gradient_Swatch_40-4" x1="38.4532" y1="107.1113" x2="72.9377" y2="107.1113" xlink:href="#New_Gradient_Swatch_40"/><linearGradient id="New_Gradient_Swatch_40-5" x1="34.2388" y1="104.6113" x2="77.262" y2="104.6113" xlink:href="#New_Gradient_Swatch_40"/><linearGradient id="New_Gradient_Swatch_40-6" x1="30.0044" y1="102.1013" x2="81.6062" y2="102.1013" xlink:href="#New_Gradient_Swatch_40"/><linearGradient id="New_Gradient_Swatch_40-7" x1="25.78" y1="99.6013" x2="85.9305" y2="99.6013" xlink:href="#New_Gradient_Swatch_40"/><linearGradient id="New_Gradient_Swatch_40-8" x1="21.0313" y1="97.0913" x2="89.7188" y2="97.0913" xlink:href="#New_Gradient_Swatch_40"/><linearGradient id="New_Gradient_Swatch_40-9" x1="17.3312" y1="94.5913" x2="93.9688" y2="94.5913" xlink:href="#New_Gradient_Swatch_40"/><linearGradient id="New_Gradient_Swatch_40-10" x1="12.4688" y1="92.0913" x2="98.6074" y2="92.0913" xlink:href="#New_Gradient_Swatch_40"/><linearGradient id="New_Gradient_Swatch_40-11" x1="11.1993" y1="89.5813" x2="100.0417" y2="89.5813" xlink:href="#New_Gradient_Swatch_40"/><linearGradient id="New_Gradient_Swatch_40-12" x1="15.5536" y1="87.0813" x2="96.1768" y2="87.0813" xlink:href="#New_Gradient_Swatch_40"/><linearGradient id="New_Gradient_Swatch_40-13" x1="18.7182" y1="84.5713" x2="92.292" y2="84.5713" xlink:href="#New_Gradient_Swatch_40"/><linearGradient id="New_Gradient_Swatch_40-14" x1="22.8063" y1="82.0713" x2="88.4271" y2="82.0713" xlink:href="#New_Gradient_Swatch_40"/><linearGradient id="New_Gradient_Swatch_40-15" x1="26.75" y1="79.5713" x2="84.5623" y2="79.5713" xlink:href="#New_Gradient_Swatch_40"/><linearGradient id="New_Gradient_Swatch_40-16" x1="30.3336" y1="77.0613" x2="80.6874" y2="77.0613" xlink:href="#New_Gradient_Swatch_40"/><linearGradient id="New_Gradient_Swatch_40-17" x1="34.1803" y1="74.5613" x2="76.8126" y2="74.5613" xlink:href="#New_Gradient_Swatch_40"/><linearGradient id="New_Gradient_Swatch_40-18" x1="73.255" y1="81.49" x2="101.555" y2="81.49" xlink:href="#New_Gradient_Swatch_40"/><linearGradient id="New_Gradient_Swatch_40-19" x1="68.885" y1="83.65" x2="93.955" y2="83.65" xlink:href="#New_Gradient_Swatch_40"/><linearGradient id="New_Gradient_Swatch_40-20" x1="64.505" y1="86.535" x2="83.865" y2="86.535" xlink:href="#New_Gradient_Swatch_40"/><linearGradient id="New_Gradient_Swatch_40-21" x1="60.125" y1="90.525" x2="69.955" y2="90.525" xlink:href="#New_Gradient_Swatch_40"/><linearGradient id="New_Gradient_Swatch_40-22" x1="50.295" y1="93.18" x2="56.005" y2="93.18" xlink:href="#New_Gradient_Swatch_40"/><linearGradient id="New_Gradient_Swatch_40-23" x1="34.675" y1="88.64" x2="51.625" y2="88.64" xlink:href="#New_Gradient_Swatch_40"/><linearGradient id="New_Gradient_Swatch_40-24" x1="23.775" y1="85.46" x2="47.255" y2="85.46" xlink:href="#New_Gradient_Swatch_40"/><linearGradient id="New_Gradient_Swatch_40-25" x1="15.685" y1="83.095" x2="42.875" y2="83.095" xlink:href="#New_Gradient_Swatch_40"/><linearGradient id="New_Gradient_Swatch_40-26" x1="9.405" y1="81.255" x2="38.505" y2="81.255" xlink:href="#New_Gradient_Swatch_40"/><linearGradient id="New_Gradient_Swatch_40-27" x1="9.411" y1="63.9962" x2="101.4309" y2="63.9962" xlink:href="#New_Gradient_Swatch_40"/><radialGradient id="radial-gradient-4" cx="55.96" cy="66.2199" r="29.4952" gradientUnits="userSpaceOnUse"><stop offset="0" stop-color="#ffc000"/><stop offset="1" stop-color="#e84089" stop-opacity="0"/></radialGradient><linearGradient id="New_Gradient_Swatch_32" x1="77.4635" y1="63.3394" x2="90.4572" y2="63.3394" gradientUnits="userSpaceOnUse"><stop offset="0" stop-color="#517cfe"/><stop offset="1" stop-color="#65eca9"/></linearGradient><linearGradient id="New_Gradient_Swatch_32-2" x1="76.4353" y1="66.8164" x2="85.1814" y2="66.8164" xlink:href="#New_Gradient_Swatch_32"/><linearGradient id="New_Gradient_Swatch_32-3" x1="77.6695" y1="69.5159" x2="80.6416" y2="69.5159" xlink:href="#New_Gradient_Swatch_32"/><linearGradient id="New_Gradient_Swatch_32-4" x1="33.9317" y1="63.423" x2="20.9281" y2="63.423" xlink:href="#New_Gradient_Swatch_32"/><linearGradient id="New_Gradient_Swatch_32-5" x1="33.7938" y1="67.1203" x2="26.2035" y2="67.1203" xlink:href="#New_Gradient_Swatch_32"/><linearGradient id="New_Gradient_Swatch_32-6" x1="33.9343" y1="74.3757" x2="22.4657" y2="74.3757" xlink:href="#New_Gradient_Swatch_32"/><linearGradient id="linear-gradient-11" x1="16.1084" y1="71.0302" x2="33.9119" y2="71.0302" gradientUnits="userSpaceOnUse"><stop offset="0" stop-color="#517cfe"/><stop offset="1" stop-color="#65eca9" stop-opacity="0"/></linearGradient><linearGradient id="linear-gradient-12" x1="16.1084" y1="68.937" x2="33.9119" y2="68.937" xlink:href="#linear-gradient-11"/><linearGradient id="linear-gradient-13" x1="48.8575" y1="69.7442" x2="48.8884" y2="69.7442" xlink:href="#linear-gradient-11"/><linearGradient id="linear-gradient-14" x1="26.2344" y1="68.9023" x2="33.9119" y2="68.9023" xlink:href="#linear-gradient-11"/><linearGradient id="linear-gradient-15" x1="30.776" y1="68.937" x2="33.9119" y2="68.937" xlink:href="#linear-gradient-11"/><linearGradient id="linear-gradient-16" x1="16.1084" y1="59.3711" x2="33.9119" y2="59.3711" gradientUnits="userSpaceOnUse"><stop offset="0" stop-color="#55ffba"/><stop offset="1" stop-color="#65eca9" stop-opacity="0"/></linearGradient><linearGradient id="linear-gradient-17" x1="16.1084" y1="83.0408" x2="33.9119" y2="83.0408" xlink:href="#linear-gradient-16"/><linearGradient id="linear-gradient-18" x1="-6.9143" y1="71.0113" x2="10.8891" y2="71.0113" gradientTransform="matrix(-1, 0, 0, 1, 88.2179, 0)" xlink:href="#linear-gradient-11"/><linearGradient id="linear-gradient-19" x1="-6.9143" y1="68.9181" x2="10.8891" y2="68.9181" gradientTransform="matrix(-1, 0, 0, 1, 88.2179, 0)" xlink:href="#linear-gradient-11"/><linearGradient id="linear-gradient-20" x1="25.8347" y1="69.7253" x2="25.8657" y2="69.7253" gradientTransform="matrix(-1, 0, 0, 1, 88.2179, 0)" xlink:href="#linear-gradient-11"/><linearGradient id="linear-gradient-21" x1="3.2116" y1="68.8834" x2="10.8891" y2="68.8834" gradientTransform="matrix(-1, 0, 0, 1, 88.2179, 0)" xlink:href="#linear-gradient-11"/><linearGradient id="linear-gradient-22" x1="7.7532" y1="68.9181" x2="10.8891" y2="68.9181" gradientTransform="matrix(-1, 0, 0, 1, 88.2179, 0)" xlink:href="#linear-gradient-11"/><linearGradient id="linear-gradient-23" x1="-7.8935" y1="59.2272" x2="9.91" y2="59.2272" gradientTransform="matrix(-1, 0, 0, 1, 88.2179, 0)" xlink:href="#linear-gradient-16"/><linearGradient id="linear-gradient-24" x1="-6.9143" y1="83.0219" x2="10.8891" y2="83.0219" gradientTransform="matrix(-1, 0, 0, 1, 88.2179, 0)" xlink:href="#linear-gradient-16"/><linearGradient id="New_Gradient_Swatch_32-7" x1="76.4559" y1="56.9218" x2="84.8052" y2="56.9218" xlink:href="#New_Gradient_Swatch_32"/><linearGradient id="New_Gradient_Swatch_32-8" x1="76.4363" y1="56.9218" x2="84.8248" y2="56.9218" xlink:href="#New_Gradient_Swatch_32"/><linearGradient id="New_Gradient_Swatch_32-9" x1="65.5911" y1="77.9858" x2="72.0286" y2="77.9858" xlink:href="#New_Gradient_Swatch_32"/><linearGradient id="New_Gradient_Swatch_32-10" x1="65.549" y1="77.9858" x2="72.0707" y2="77.9858" xlink:href="#New_Gradient_Swatch_32"/><linearGradient id="New_Gradient_Swatch_32-11" x1="65.7785" y1="96.0101" x2="69.8251" y2="96.0101" xlink:href="#New_Gradient_Swatch_32"/><linearGradient id="New_Gradient_Swatch_32-12" x1="65.7392" y1="96.0101" x2="69.8644" y2="96.0101" xlink:href="#New_Gradient_Swatch_32"/><linearGradient id="New_Gradient_Swatch_40-28" x1="2.1445" y1="62.7193" x2="5.6592" y2="62.7193" gradientTransform="translate(7.8037 125.4387) rotate(180)" xlink:href="#New_Gradient_Swatch_40"/><linearGradient id="New_Gradient_Swatch_40-29" x1="105.1592" y1="63.3955" x2="108.6738" y2="63.3955" xlink:href="#New_Gradient_Swatch_40"/></defs><title>1</title><g id="Layer_63" data-name="Layer 63"><polygon points="110.846 31.996 110.846 95.996 55.426 127.996 11.076 102.396 10.876 102.276 -0.004 95.996 -0.004 31.996 55.426 -0.004 110.846 31.996" fill="url(#linear-gradient)"/></g><g id="Layer_63-2" data-name="Layer 63"><polygon points="101.435 37.43 101.435 90.563 55.425 117.129 9.407 90.563 9.407 37.43 55.425 10.863 101.435 37.43"/><polygon points="101.435 37.43 101.435 90.563 55.425 117.129 9.407 90.563 9.407 37.43 55.425 10.863 101.435 37.43" fill="url(#radial-gradient)"/><polygon points="78.742 54.53 56.231 43.952 33.178 54.53 56.231 65.469 78.742 54.53" fill="url(#linear-gradient-2)"/><polygon points="56.231 16.469 56.231 62.757 33.178 51.185 56.231 16.469" fill="url(#linear-gradient-3)"/><polygon points="78.742 51.456 56.231 62.757 56.231 16.469 78.742 51.456" fill="url(#linear-gradient-4)"/><polygon points="78.742 54.53 56.231 65.469 56.231 85.991 78.742 54.53" fill="url(#linear-gradient-5)"/><polygon points="56.231 65.469 33.178 54.53 56.231 85.991 56.231 65.469" fill="url(#linear-gradient-6)"/><polygon points="78.742 51.818 56.231 41.24 33.178 51.185 56.231 62.757 78.742 51.818" opacity="0.82" fill="url(#linear-gradient-7)" style="isolation:isolate"/><polygon points="65.633 51.908 56.05 47.388 46.287 51.908 56.05 56.519 65.633 51.908" opacity="0.82" fill="url(#linear-gradient-8)" style="isolation:isolate"/><polygon points="59.757 51.908 55.96 50.19 52.163 51.908 55.96 53.807 59.757 51.908" opacity="0.82" fill="url(#linear-gradient-9)" style="isolation:isolate"/><circle cx="55.88" cy="66.2199" r="34.1323" fill="url(#radial-gradient-2)"/><polygon points="99.985 89.581 55.541 115.001 11.249 89.581 11.249 71.738 99.985 72.043 99.985 89.581" fill="url(#radial-gradient-3)"/><polygon points="99.917 89.581 55.541 115.001 11.324 89.581 11.249 71.738 99.985 71.873 99.917 89.581" opacity="0.93" fill="url(#Super_Soft_Black_Vignette_2)"/><polygon points="37.629 72.425 73.382 72.425 101.435 90.563 55.482 117.129 9.407 90.563 37.629 72.425" fill="url(#linear-gradient-10)"/><g opacity="0.25"><line x1="59.8299" y1="114.6213" x2="51.2513" y2="114.6213" fill="none" stroke-linecap="round" stroke-linejoin="round" stroke-width="0.25" stroke="url(#New_Gradient_Swatch_40)"/><line x1="64.1542" y1="112.1213" x2="47.0369" y2="112.1213" fill="none" stroke-linecap="round" stroke-linejoin="round" stroke-width="0.25" stroke="url(#New_Gradient_Swatch_40-2)"/><line x1="68.4685" y1="109.6213" x2="42.8125" y2="109.6213" fill="none" stroke-linecap="round" stroke-linejoin="round" stroke-width="0.25" stroke="url(#New_Gradient_Swatch_40-3)"/><line x1="72.8127" y1="107.1113" x2="38.5782" y2="107.1113" fill="none" stroke-linecap="round" stroke-linejoin="round" stroke-width="0.25" stroke="url(#New_Gradient_Swatch_40-4)"/><line x1="77.137" y1="104.6113" x2="34.3638" y2="104.6113" fill="none" stroke-linecap="round" stroke-linejoin="round" stroke-width="0.25" stroke="url(#New_Gradient_Swatch_40-5)"/><line x1="81.4812" y1="102.1013" x2="30.1294" y2="102.1013" fill="none" stroke-linecap="round" stroke-linejoin="round" stroke-width="0.25" stroke="url(#New_Gradient_Swatch_40-6)"/><line x1="85.8055" y1="99.6013" x2="25.905" y2="99.6013" fill="none" stroke-linecap="round" stroke-linejoin="round" stroke-width="0.25" stroke="url(#New_Gradient_Swatch_40-7)"/><line x1="89.5938" y1="97.0913" x2="21.1563" y2="97.0913" fill="none" stroke-linecap="round" stroke-linejoin="round" stroke-width="0.25" stroke="url(#New_Gradient_Swatch_40-8)"/><line x1="93.8438" y1="94.5913" x2="17.4562" y2="94.5913" fill="none" stroke-linecap="round" stroke-linejoin="round" stroke-width="0.25" stroke="url(#New_Gradient_Swatch_40-9)"/><line x1="98.4824" y1="92.0913" x2="12.5938" y2="92.0913" fill="none" stroke-linecap="round" stroke-linejoin="round" stroke-width="0.25" stroke="url(#New_Gradient_Swatch_40-10)"/><line x1="99.9167" y1="89.5813" x2="11.3243" y2="89.5813" fill="none" stroke-linecap="round" stroke-linejoin="round" stroke-width="0.25" stroke="url(#New_Gradient_Swatch_40-11)"/><line x1="96.0518" y1="87.0813" x2="15.6786" y2="87.0813" fill="none" stroke-linecap="round" stroke-linejoin="round" stroke-width="0.25" stroke="url(#New_Gradient_Swatch_40-12)"/><line x1="92.167" y1="84.5713" x2="18.8432" y2="84.5713" fill="none" stroke-linecap="round" stroke-linejoin="round" stroke-width="0.25" stroke="url(#New_Gradient_Swatch_40-13)"/><line x1="88.3021" y1="82.0713" x2="22.9313" y2="82.0713" fill="none" stroke-linecap="round" stroke-linejoin="round" stroke-width="0.25" stroke="url(#New_Gradient_Swatch_40-14)"/><line x1="84.4373" y1="79.5713" x2="26.875" y2="79.5713" fill="none" stroke-linecap="round" stroke-linejoin="round" stroke-width="0.25" stroke="url(#New_Gradient_Swatch_40-15)"/><line x1="80.5624" y1="77.0613" x2="30.4586" y2="77.0613" fill="none" stroke-linecap="round" stroke-linejoin="round" stroke-width="0.25" stroke="url(#New_Gradient_Swatch_40-16)"/><line x1="76.6876" y1="74.5613" x2="34.3053" y2="74.5613" fill="none" stroke-linecap="round" stroke-linejoin="round" stroke-width="0.25" stroke="url(#New_Gradient_Swatch_40-17)"/><line x1="101.43" y1="90.56" x2="73.38" y2="72.42" fill="none" stroke-linecap="round" stroke-linejoin="round" stroke-width="0.25" stroke="url(#New_Gradient_Swatch_40-18)"/><polyline points="69.01 72.35 69.09 72.42 93.83 94.95" fill="none" stroke-linecap="round" stroke-linejoin="round" stroke-width="0.25" stroke="url(#New_Gradient_Swatch_40-19)"/><polyline points="64.63 72.28 64.72 72.42 83.74 100.79" fill="none" stroke-linecap="round" stroke-linejoin="round" stroke-width="0.25" stroke="url(#New_Gradient_Swatch_40-20)"/><polyline points="60.25 72.22 60.3 72.42 69.83 108.83" fill="none" stroke-linecap="round" stroke-linejoin="round" stroke-width="0.25" stroke="url(#New_Gradient_Swatch_40-21)"/><polyline points="55.88 72.15 55.84 72.42 50.42 114.21" fill="none" stroke-linecap="round" stroke-linejoin="round" stroke-width="0.25" stroke="url(#New_Gradient_Swatch_40-22)"/><polyline points="51.5 72.08 51.33 72.42 34.8 105.2" fill="none" stroke-linecap="round" stroke-linejoin="round" stroke-width="0.25" stroke="url(#New_Gradient_Swatch_40-23)"/><polyline points="47.13 72.01 46.78 72.42 23.9 98.91" fill="none" stroke-linecap="round" stroke-linejoin="round" stroke-width="0.25" stroke="url(#New_Gradient_Swatch_40-24)"/><polyline points="42.75 71.94 42.17 72.42 15.81 94.25" fill="none" stroke-linecap="round" stroke-linejoin="round" stroke-width="0.25" stroke="url(#New_Gradient_Swatch_40-25)"/><polyline points="9.53 90.63 30.04 77.3 38.38 71.88" fill="none" stroke-linecap="round" stroke-linejoin="round" stroke-width="0.25" stroke="url(#New_Gradient_Swatch_40-26)"/></g><polygon points="99.985 79.584 11.249 79.584 11.249 75.193 99.985 75.268 99.985 79.584"/><polygon points="99.985 75.268 99.646 71.865 11.285 71.865 11.624 75.193 99.985 75.268" fill="#20252d"/></g><g id="Layer_63-3" data-name="Layer 63" style="isolation:isolate"><path d="M55.4209,10.8612l-46.01,26.57v53.13l46.01,26.57,46.01-26.57v-53.13Zm44.3,78.64-44.18,25.5-44.18-25.5v-51.01l44.18-25.51,44.18,25.51Z" fill="url(#New_Gradient_Swatch_40-27)"/></g><path d="M70.5146,114.3514l1.5654-.8994.0713.1231a3.0348,3.0348,0,0,1,.336.8144,1.89,1.89,0,0,1-.0049.7617,1.9822,1.9822,0,0,1-1,1.3653,2.1314,2.1314,0,0,1-1.6924.21,2.2768,2.2768,0,0,1-.52-4.1738,2.2306,2.2306,0,0,1,.9335-.2959,2.7481,2.7481,0,0,1,1.0616.17l-.1836.626a1.5923,1.5923,0,0,0-1.4922.0322,1.5584,1.5584,0,0,0-.77.9961A1.5979,1.5979,0,0,0,69,115.3358a1.5416,1.5416,0,0,0,1.0528.7813,1.5741,1.5741,0,0,0,1.1416-.15,1.3154,1.3154,0,0,0,.5928-.7188,1.176,1.176,0,0,0-.0176-.9023l-.9463.5439Z" fill="#fff"/><rect x="74.1093" y="110.0205" width="0.6595" height="4.3716" transform="translate(-46.0744 52.1402) rotate(-29.9467)" fill="#fff"/><polygon points="77.204 108.801 79.074 112.053 78.504 112.381 76.633 109.131 75.762 109.632 75.452 109.095 77.763 107.765 78.071 108.302 77.204 108.801" fill="#fff"/><path d="M82.3623,105.3866l.3886.6767a1.8267,1.8267,0,0,0-1.2646.1748,1.5137,1.5137,0,0,0-.7432.9854,1.6333,1.6333,0,0,0,.1856,1.2529,1.594,1.594,0,0,0,.9814.7754,1.5417,1.5417,0,0,0,1.2236-.1582,1.41,1.41,0,0,0,.4551-.3935,1.6719,1.6719,0,0,0,.168-.2725,3.414,3.414,0,0,0,.15-.3555l.3974.6905a2.3783,2.3783,0,0,1-.8711.873,2.1961,2.1961,0,0,1-1.7109.2305,2.1723,2.1723,0,0,1-1.3672-1.05,2.2519,2.2519,0,0,1-.2627-1.5664,2.1909,2.1909,0,0,1,1.124-1.5713,2.2273,2.2273,0,0,1,1.1456-.292" fill="#fff"/><path d="M85.1337,105.2167a2.142,2.142,0,0,1-.2041-1.71,2.237,2.237,0,0,1,1.0733-1.3838,2.2874,2.2874,0,0,1,3.1045.8369,2.15,2.15,0,0,1,.2138,1.7227,2.3117,2.3117,0,0,1-2.6972,1.6367,2.1438,2.1438,0,0,1-1.49-1.1025m.5791-.3252a1.6219,1.6219,0,0,0,2.9893-.3545,1.6974,1.6974,0,0,0-1.1641-2.0332,1.5384,1.5384,0,0,0-1.2343.1611,1.5564,1.5564,0,0,0-.7608.9863,1.58,1.58,0,0,0,.17,1.24" fill="#25e899"/><rect x="91.086" y="100.2413" width="0.6597" height="4.3704" transform="translate(-38.9413 59.3561) rotate(-29.9673)" fill="#fff"/><polygon points="95.015 102.88 92.686 98.833 97.113 100.134 95.598 97.5 96.168 97.172 98.482 101.192 94.059 99.898 95.586 102.551 95.015 102.88" fill="#fff"/><g opacity="0.49"><rect x="44.3158" y="70.7188" width="3.1187" height="5.391" fill="#47b29e"/><rect x="44.3158" y="62.3398" width="3.1187" height="5.409" fill="#47b29e"/><polygon points="44.316 67.749 47.434 67.749 50.727 67.749 47.608 67.749 44.316 67.749" fill="#398e7e"/><rect x="47.6082" y="67.7488" width="3.1187" height="2.97" fill="#47b29e"/><polygon points="44.316 76.11 47.434 76.11 51.942 76.11 48.823 76.11 44.316 76.11" fill="#398e7e"/><rect x="48.8231" y="76.1098" width="3.1187" height="2.979" fill="#47b29e"/><polygon points="48.823 59.37 48.823 62.34 44.316 62.34 44.316 67.749 47.608 67.749 47.608 70.719 44.316 70.719 44.316 76.11 48.823 76.11 48.823 79.089 41.868 79.089 41.868 59.37 48.823 59.37" fill="#53d0b8"/><rect x="48.8231" y="59.3698" width="3.1187" height="2.97" fill="#47b29e"/><polygon points="41.868 59.37 44.987 59.37 51.942 59.37 48.823 59.37 41.868 59.37" fill="#398e7e"/><rect x="55.54" y="62.3398" width="3.1187" height="16.749" fill="#47b29e"/><rect x="58.1194" y="59.3698" width="3.1187" height="2.97" fill="#47b29e"/><polygon points="50.505 59.37 53.623 59.37 61.238 59.37 58.119 59.37 50.505 59.37" fill="#398e7e"/><polygon points="58.119 59.37 58.119 62.34 55.54 62.34 55.54 79.089 53.093 79.089 53.093 62.34 50.505 62.34 50.505 59.37 58.119 59.37" fill="#53d0b8"/><rect x="62.5298" y="70.7368" width="3.1187" height="8.352" fill="#47b29e"/><rect x="62.5298" y="59.3698" width="3.1187" height="8.379" fill="#47b29e"/><polygon points="60.083 59.37 63.201 59.37 65.649 59.37 62.53 59.37 60.083 59.37" fill="#398e7e"/><polygon points="62.53 67.749 65.649 67.749 68.571 67.749 65.453 67.749 62.53 67.749" fill="#398e7e"/><rect x="67.8999" y="59.3698" width="3.1187" height="19.719" fill="#47b29e"/><polygon points="65.453 59.37 68.571 59.37 71.019 59.37 67.9 59.37 65.453 59.37" fill="#398e7e"/><polygon points="67.9 59.37 67.9 79.089 65.453 79.089 65.453 70.737 62.53 70.737 62.53 79.089 60.083 79.089 60.083 59.37 62.53 59.37 62.53 67.749 65.453 67.749 65.453 59.37 67.9 59.37" fill="#53d0b8"/></g><g opacity="0.64"><rect x="36.7165" y="71.6188" width="3.1187" height="8.649" fill="#9d9d9d"/><rect x="36.7165" y="58.1908" width="3.1187" height="8.667" fill="#9d9d9d"/><polygon points="36.716 66.858 39.835 66.858 45.337 66.858 42.219 66.858 36.716 66.858" fill="#7d7d7d"/><rect x="42.2186" y="66.8578" width="3.1187" height="4.761" fill="#9d9d9d"/><polygon points="36.716 80.268 39.835 80.268 47.371 80.268 44.252 80.268 36.716 80.268" fill="#7d7d7d"/><rect x="44.2521" y="80.2678" width="3.1187" height="4.761" fill="#9d9d9d"/><polygon points="44.252 53.421 44.252 58.191 36.716 58.191 36.716 66.858 42.219 66.858 42.219 71.619 36.716 71.619 36.716 80.268 44.252 80.268 44.252 85.029 32.632 85.029 32.632 53.421 44.252 53.421" fill="#b7b7b7"/><rect x="44.2521" y="53.4208" width="3.1187" height="4.77" fill="#9d9d9d"/><polygon points="32.632 53.421 35.75 53.421 47.371 53.421 44.252 53.421 32.632 53.421" fill="#7d7d7d"/><rect x="55.4764" y="58.1908" width="3.1187" height="26.838" fill="#9d9d9d"/><rect x="59.7988" y="53.4208" width="3.1187" height="4.77" fill="#9d9d9d"/><polygon points="47.06 53.421 50.179 53.421 62.917 53.421 59.799 53.421 47.06 53.421" fill="#7d7d7d"/><polygon points="59.799 53.421 59.799 58.191 55.476 58.191 55.476 85.029 51.4 85.029 51.4 58.191 47.06 58.191 47.06 53.421 59.799 53.421" fill="#b7b7b7"/><rect x="67.1672" y="71.6548" width="3.1187" height="13.374" fill="#9d9d9d"/><rect x="67.1672" y="53.4208" width="3.1187" height="13.437" fill="#9d9d9d"/><polygon points="63.082 53.421 66.201 53.421 70.286 53.421 67.167 53.421 63.082 53.421" fill="#7d7d7d"/><polygon points="67.167 66.858 70.286 66.858 75.181 66.858 72.062 66.858 67.167 66.858" fill="#7d7d7d"/><rect x="76.1466" y="53.4208" width="3.1187" height="31.608" fill="#9d9d9d"/><polygon points="72.062 53.421 75.181 53.421 79.265 53.421 76.147 53.421 72.062 53.421" fill="#7d7d7d"/><polygon points="76.147 53.421 76.147 85.029 72.062 85.029 72.062 71.655 67.167 71.655 67.167 85.029 63.082 85.029 63.082 53.421 67.167 53.421 67.167 66.858 72.062 66.858 72.062 53.421 76.147 53.421" fill="#b7b7b7"/></g><circle cx="55.96" cy="66.2199" r="34.1323" fill="url(#radial-gradient-4)"/><path d="M43.29,53.42H28.65V85.21H43.29V80.42h-9.5v-8.7H36.5V66.93H33.79V58.22h9.5Zm-2.56,18.3V66.93H37.88v4.79Z" fill="#ede6e6"/><path d="M46.82,53.42v4.8h5.46v.01h5.14v-.01h5.43v-4.8Zm5.46,6.19v25.6h5.14V59.61Z" fill="#ede6e6"/><path d="M65.98,77.3461v8.0806h5.11ZM82.43,57.69V53.6368H77.3125v1.8683Zm-5.1288-1.1714L77.29,59.7167v7.43H71.12v-13.51H65.98V73.5074l5.14,8.0293v-9.56h6.17v13.45h5.14V65.469l.0113-6.7681Z" fill="#ede6e6"/><path d="M46.15,103.06q.27-.48.81-1.29l.56-.84c.66-1.01,1.16-1.75,1.5-2.23a29.074,29.074,0,0,0,2.36-3.69,9.7049,9.7049,0,0,0,.93-4.26,5.0081,5.0081,0,0,0-1.43-3.54,4.5876,4.5876,0,0,0-3.44-1.51,4.7947,4.7947,0,0,0-3.55,1.35,5.92,5.92,0,0,0-1.56,4.43v.53h3.03v-.78a3.326,3.326,0,0,1,.18-1.16,1.89,1.89,0,0,1,1.82-1.49,1.8343,1.8343,0,0,1,1.46.68,2.4248,2.4248,0,0,1,.52,1.58,6.796,6.796,0,0,1-.57,2.71,20.6672,20.6672,0,0,1-2.11,3.59c-1,1.41-1.74,2.43-2.21,3.07l-.79,1.17c-.26.38-.49.73-.7,1.05a6.8549,6.8549,0,0,0-.68,1.12v.96h9.78v-1.16l-6.04-.01A.8992.8992,0,0,1,46.15,103.06Z" fill="#ede6e6"/><rect x="42.28" y="105.89" width="9.78" height="0.48" fill="#ede6e6"/><polygon points="55.42 103.3 55.42 106.37 55.06 106.37 55.06 103.3 54.42 103.3 54.42 106.38 57.5 106.38 57.5 103.3 55.42 103.3" fill="#ede6e6"/><path d="M69.36,97.99V90.58a4.8823,4.8823,0,0,0-4.87-4.88,4.7662,4.7662,0,0,0-3.45,1.42,4.71,4.71,0,0,0-1.43,3.46v11.18a4.8862,4.8862,0,0,0,8.32,3.45,4.6717,4.6717,0,0,0,1.43-3.45v-1.64l-3.19-4.08v5.67a1.6916,1.6916,0,0,1-.52,1.25,1.7137,1.7137,0,0,1-1.26.52,1.67,1.67,0,0,1-1.24-.52,1.6916,1.6916,0,0,1-.52-1.25V90.51a1.7756,1.7756,0,0,1,1.76-1.76,1.7137,1.7137,0,0,1,1.26.52,1.67,1.67,0,0,1,.52,1.24v3.45Z" fill="#ede6e6"/><path d="M77.4833,60.5408q6.5143,2.7123,12.954,5.5971Q83.9228,63.4261,77.4833,60.5408Z" fill="url(#New_Gradient_Swatch_32)"/><path d="M76.4559,64.8506q4.3911,1.88,8.7049,3.9316Q80.7694,66.9025,76.4559,64.8506Z" fill="url(#New_Gradient_Swatch_32-2)"/><path d="M77.6919,70.25a28.4554,28.4554,0,0,1,2.9273-1.4675A28.4857,28.4857,0,0,1,77.6919,70.25Z" fill="url(#New_Gradient_Swatch_32-3)"/><path d="M33.9119,60.6262q-6.4448,2.883-12.964,5.5937Q27.3925,63.3363,33.9119,60.6262Z" fill="url(#New_Gradient_Swatch_32-4)"/><path d="M33.7729,65.3763q-3.7348,1.8292-7.5484,3.4879Q29.9591,67.0345,33.7729,65.3763Z" fill="url(#New_Gradient_Swatch_32-5)"/><path d="M33.9119,77.2479Q28.1578,74.46,22.4881,71.5036,28.2424,74.2912,33.9119,77.2479Z" fill="url(#New_Gradient_Swatch_32-6)"/><polygon points="33.912 62.719 33.912 79.341 16.108 70.891 18.796 69.655 33.912 62.719" fill="url(#linear-gradient-11)"/><polygon points="33.912 60.626 33.912 77.248 18.796 69.655 16.108 68.304 33.912 60.626" opacity="0.82" fill="url(#linear-gradient-12)" style="isolation:isolate"/><polygon points="48.888 69.733 48.888 69.756 48.857 69.748 48.888 69.733" opacity="0.82" fill="url(#linear-gradient-13)" style="isolation:isolate"/><polygon points="33.912 65.438 33.912 72.359 33.773 72.428 26.234 68.868 33.773 65.376 33.912 65.438" opacity="0.82" fill="url(#linear-gradient-14)" style="isolation:isolate"/><polygon points="33.912 67.632 33.912 70.235 33.703 70.335 30.776 68.868 33.703 67.539 33.912 67.632" opacity="0.82" fill="url(#linear-gradient-15)" style="isolation:isolate"/><polygon points="33.912 41.494 33.912 77.248 18.796 69.655 16.108 68.304 33.912 41.494" fill="url(#linear-gradient-16)"/><polygon points="33.912 79.341 33.912 95.19 16.108 70.891 33.912 79.341" fill="url(#linear-gradient-17)"/><polygon points="77.329 62.7 77.329 79.322 95.132 70.872 92.444 69.636 77.329 62.7" fill="url(#linear-gradient-18)"/><polygon points="77.329 60.607 77.329 77.229 92.444 69.636 95.132 68.285 77.329 60.607" opacity="0.82" fill="url(#linear-gradient-19)" style="isolation:isolate"/><polygon points="62.352 69.714 62.352 69.737 62.383 69.729 62.352 69.714" opacity="0.82" fill="url(#linear-gradient-20)" style="isolation:isolate"/><polygon points="77.329 65.419 77.329 72.34 77.468 72.409 85.006 68.849 77.468 65.357 77.329 65.419" opacity="0.82" fill="url(#linear-gradient-21)" style="isolation:isolate"/><polygon points="77.329 67.613 77.329 70.216 77.537 70.316 80.465 68.849 77.537 67.52 77.329 67.613" opacity="0.82" fill="url(#linear-gradient-22)" style="isolation:isolate"/><polygon points="77.308 41.35 77.308 77.104 92.424 69.511 95.111 68.16 77.308 41.35" fill="url(#linear-gradient-23)"/><polygon points="77.329 79.322 77.329 95.171 95.132 70.872 77.329 79.322" fill="url(#linear-gradient-24)"/><line x1="76.4559" y1="55.1393" x2="84.8052" y2="58.7044" fill="url(#New_Gradient_Swatch_32-7)"/><path d="M76.4559,55.1393q4.2116,1.6962,8.3493,3.5651Q80.5935,57.0088,76.4559,55.1393Z" fill="url(#New_Gradient_Swatch_32-8)"/><line x1="65.5911" y1="72.9702" x2="72.0286" y2="83.0014" fill="url(#New_Gradient_Swatch_32-9)"/><path d="M65.5911,72.97q3.2977,4.9648,6.4375,10.0312Q68.73,78.0368,65.5911,72.97Z" fill="url(#New_Gradient_Swatch_32-10)"/><line x1="65.7785" y1="93.4351" x2="69.8251" y2="98.5852" fill="url(#New_Gradient_Swatch_32-11)"/><path d="M65.7785,93.4351q2.0971,2.517,4.0466,5.15Q67.7275,96.0685,65.7785,93.4351Z" fill="url(#New_Gradient_Swatch_32-12)"/><path d="M2.1445,73.6969a1.7574,1.7574,0,1,0,2.0263-1.73V49.985H3.6326V71.9667A1.7553,1.7553,0,0,0,2.1445,73.6969ZM3.9014,72.44a1.2571,1.2571,0,1,1-1.2569,1.2573A1.2591,1.2591,0,0,1,3.9014,72.44Z" fill="url(#New_Gradient_Swatch_40-28)"/><path d="M108.6738,52.418a1.7573,1.7573,0,1,0-2.0263,1.73V76.13h.5383V54.1481A1.7551,1.7551,0,0,0,108.6738,52.418Zm-1.7568,1.2573a1.2571,1.2571,0,1,1,1.2568-1.2573A1.2591,1.2591,0,0,1,106.917,53.6753Z" fill="url(#New_Gradient_Swatch_40-29)"/></svg>