<svg id="Layer_1" data-name="Layer 1" xmlns="http://www.w3.org/2000/svg" xmlns:xlink="http://www.w3.org/1999/xlink" viewBox="0 0 110.85 128"><defs><style>.cls-1{fill:url(#linear-gradient);}.cls-2{fill:url(#linear-gradient-2);}.cls-3{fill:url(#linear-gradient-3);}.cls-4{fill:url(#linear-gradient-4);}.cls-5{fill:url(#linear-gradient-5);}.cls-6{fill:url(#linear-gradient-6);}.cls-7{fill:url(#linear-gradient-7);}.cls-8{fill:url(#linear-gradient-8);}.cls-9{fill:url(#linear-gradient-9);}.cls-10{fill:url(#linear-gradient-10);}.cls-11{fill:url(#linear-gradient-11);}.cls-12{fill:url(#linear-gradient-12);}.cls-13{fill:url(#linear-gradient-13);}.cls-14{fill:url(#linear-gradient-14);}.cls-15{fill:url(#linear-gradient-15);}.cls-16{fill:url(#linear-gradient-16);}.cls-17{fill:url(#linear-gradient-17);}.cls-18{fill:url(#linear-gradient-18);}.cls-19{fill:url(#linear-gradient-19);}.cls-20{fill:url(#linear-gradient-20);}.cls-21{fill:url(#linear-gradient-21);}.cls-22{fill:url(#linear-gradient-22);}.cls-23{fill:url(#linear-gradient-23);}.cls-24{fill:url(#linear-gradient-24);}.cls-25{fill:url(#linear-gradient-25);}.cls-26{fill:url(#linear-gradient-26);}.cls-27{fill:url(#linear-gradient-27);}.cls-28{fill:url(#linear-gradient-28);}.cls-29{fill:url(#linear-gradient-29);}.cls-30{fill:url(#linear-gradient-30);}.cls-31{fill:url(#linear-gradient-31);}.cls-32{fill:url(#linear-gradient-32);}.cls-33{fill:url(#linear-gradient-33);}.cls-34{fill:url(#linear-gradient-34);}.cls-35{fill:url(#linear-gradient-35);}.cls-36{fill:url(#linear-gradient-36);}.cls-37{fill:url(#linear-gradient-37);}.cls-38{fill:url(#linear-gradient-38);}.cls-39{fill:url(#linear-gradient-39);}.cls-40{fill:url(#linear-gradient-40);}.cls-41{fill:url(#linear-gradient-41);}.cls-42{fill:url(#linear-gradient-42);}.cls-43{fill:none;}.cls-44{fill:#183348;}.cls-45{fill:url(#Gradiente_sem_nome_49);}.cls-46{fill:#fff;}.cls-47{clip-path:url(#clip-path);}.cls-48{fill:#e8f1f7;}.cls-49{fill:url(#Gradiente_sem_nome_11);}.cls-50{clip-path:url(#clip-path-2);}.cls-51{fill:url(#Degradado_sin_nombre_32);}.cls-52{fill:url(#Gradiente_sem_nome_12);}.cls-53{fill:url(#Degradado_sin_nombre_31);}.cls-54{fill:url(#Degradado_sin_nombre_32-2);}.cls-55{fill:url(#Degradado_sin_nombre_31-2);}.cls-56{fill:url(#Gradiente_sem_nome_4);}.cls-57{fill:url(#Gradiente_sem_nome_4-2);}.cls-58{fill:url(#Gradiente_sem_nome_5);}.cls-59{mask:url(#mask);}.cls-60{fill:url(#linear-gradient-43);}.cls-61{fill:url(#linear-gradient-44);}.cls-62{mask:url(#mask-2);}.cls-63{fill:url(#linear-gradient-45);}.cls-64{mask:url(#mask-3);}.cls-65{fill:url(#linear-gradient-46);}.cls-66{fill:url(#linear-gradient-47);}.cls-67{fill:url(#linear-gradient-48);}.cls-68{mask:url(#mask-4);}.cls-69{fill:url(#linear-gradient-49);}.cls-70{fill:url(#linear-gradient-50);}.cls-71{fill:url(#linear-gradient-51);}.cls-72{fill:url(#linear-gradient-52);}.cls-73{fill:url(#linear-gradient-53);}.cls-74{fill:#dcf2f7;}.cls-75{opacity:0.2;}.cls-76{opacity:0.81;}.cls-77{isolation:isolate;}.cls-78{fill:#e6e7e8;}</style><linearGradient id="linear-gradient" x1="67.0903" y1="98.5179" x2="67.0903" y2="82.52" gradientUnits="userSpaceOnUse"><stop offset="0"/><stop offset="1" stop-color="#fff"/></linearGradient><linearGradient id="linear-gradient-2" x1="-42.7367" y1="105.9837" x2="-42.7367" y2="91.6295" xlink:href="#linear-gradient"/><linearGradient id="linear-gradient-3" x1="-16.025" y1="105.9837" x2="-16.025" y2="91.6295" xlink:href="#linear-gradient"/><linearGradient id="linear-gradient-4" x1="2.2541" y1="105.9837" x2="2.2541" y2="91.6295" xlink:href="#linear-gradient"/><linearGradient id="linear-gradient-5" x1="144.6266" y1="105.9837" x2="144.6266" y2="91.6295" xlink:href="#linear-gradient"/><linearGradient id="linear-gradient-6" x1="107.9524" y1="105.9837" x2="107.9524" y2="91.6295" xlink:href="#linear-gradient"/><linearGradient id="linear-gradient-7" x1="51.073" y1="105.9837" x2="51.073" y2="91.6295" xlink:href="#linear-gradient"/><linearGradient id="linear-gradient-8" x1="165.1563" y1="105.9837" x2="165.1563" y2="91.6295" xlink:href="#linear-gradient"/><linearGradient id="linear-gradient-9" x1="198.7157" y1="105.9837" x2="198.7157" y2="91.6295" xlink:href="#linear-gradient"/><linearGradient id="linear-gradient-10" x1="225.4274" y1="105.9837" x2="225.4274" y2="91.6295" xlink:href="#linear-gradient"/><linearGradient id="linear-gradient-11" x1="243.7065" y1="105.9837" x2="243.7065" y2="91.6295" xlink:href="#linear-gradient"/><linearGradient id="linear-gradient-12" x1="386.079" y1="105.9837" x2="386.079" y2="91.6295" xlink:href="#linear-gradient"/><linearGradient id="linear-gradient-13" x1="349.4048" y1="105.9837" x2="349.4048" y2="91.6295" xlink:href="#linear-gradient"/><linearGradient id="linear-gradient-14" x1="292.5254" y1="105.9837" x2="292.5254" y2="91.6295" xlink:href="#linear-gradient"/><linearGradient id="linear-gradient-15" x1="406.6087" y1="105.9837" x2="406.6087" y2="91.6295" xlink:href="#linear-gradient"/><linearGradient id="linear-gradient-16" x1="-270.4652" y1="105.9837" x2="-270.4652" y2="91.6295" xlink:href="#linear-gradient"/><linearGradient id="linear-gradient-17" x1="-243.7535" y1="105.9837" x2="-243.7535" y2="91.6295" xlink:href="#linear-gradient"/><linearGradient id="linear-gradient-18" x1="-225.4744" y1="105.9837" x2="-225.4744" y2="91.6295" xlink:href="#linear-gradient"/><linearGradient id="linear-gradient-19" x1="-83.1018" y1="105.9837" x2="-83.1018" y2="91.6295" xlink:href="#linear-gradient"/><linearGradient id="linear-gradient-20" x1="-119.7761" y1="105.9837" x2="-119.7761" y2="91.6295" xlink:href="#linear-gradient"/><linearGradient id="linear-gradient-21" x1="-176.6555" y1="105.9837" x2="-176.6555" y2="91.6295" xlink:href="#linear-gradient"/><linearGradient id="linear-gradient-22" x1="-62.5722" y1="105.9837" x2="-62.5722" y2="91.6295" xlink:href="#linear-gradient"/><linearGradient id="linear-gradient-23" x1="-30.5516" y1="109.8498" x2="-30.5516" y2="88.7252" xlink:href="#linear-gradient"/><linearGradient id="linear-gradient-24" x1="14.8416" y1="109.8498" x2="14.8416" y2="88.7252" xlink:href="#linear-gradient"/><linearGradient id="linear-gradient-25" x1="38.5524" y1="109.8498" x2="38.5524" y2="88.7252" xlink:href="#linear-gradient"/><linearGradient id="linear-gradient-26" x1="94.5196" y1="109.8498" x2="94.5196" y2="88.7252" xlink:href="#linear-gradient"/><linearGradient id="linear-gradient-27" x1="152.8692" y1="109.8498" x2="152.8692" y2="88.7252" xlink:href="#linear-gradient"/><linearGradient id="linear-gradient-28" x1="180.7498" y1="109.8498" x2="180.7498" y2="88.7252" xlink:href="#linear-gradient"/><linearGradient id="linear-gradient-29" x1="-55.7776" y1="116.1157" x2="-55.7776" y2="98.3126" xlink:href="#linear-gradient"/><linearGradient id="linear-gradient-30" x1="-38.9284" y1="116.1157" x2="-38.9284" y2="98.3126" xlink:href="#linear-gradient"/><linearGradient id="linear-gradient-31" x1="-28.8918" y1="116.1157" x2="-28.8918" y2="98.3126" xlink:href="#linear-gradient"/><linearGradient id="linear-gradient-32" x1="6.0506" y1="116.1157" x2="6.0506" y2="98.3126" xlink:href="#linear-gradient"/><linearGradient id="linear-gradient-33" x1="29.0023" y1="116.1157" x2="29.0023" y2="98.3126" xlink:href="#linear-gradient"/><linearGradient id="linear-gradient-34" x1="44.2965" y1="116.1157" x2="44.2965" y2="98.3126" xlink:href="#linear-gradient"/><linearGradient id="linear-gradient-35" x1="117.3303" y1="116.1157" x2="117.3303" y2="98.3126" xlink:href="#linear-gradient"/><linearGradient id="linear-gradient-36" x1="136.4677" y1="116.1157" x2="136.4677" y2="98.3126" xlink:href="#linear-gradient"/><linearGradient id="linear-gradient-37" x1="153.3117" y1="116.1157" x2="153.3117" y2="98.3126" xlink:href="#linear-gradient"/><linearGradient id="linear-gradient-38" x1="173.9282" y1="116.1157" x2="173.9282" y2="98.3126" xlink:href="#linear-gradient"/><linearGradient id="linear-gradient-39" x1="192.1855" y1="116.1157" x2="192.1855" y2="98.3126" xlink:href="#linear-gradient"/><linearGradient id="linear-gradient-40" x1="94.8232" y1="116.1157" x2="94.8232" y2="98.3126" xlink:href="#linear-gradient"/><linearGradient id="linear-gradient-41" x1="65.3364" y1="116.1157" x2="65.3364" y2="98.3126" xlink:href="#linear-gradient"/><linearGradient id="linear-gradient-42" x1="57.6899" y1="116.1157" x2="57.6899" y2="98.3126" xlink:href="#linear-gradient"/><radialGradient id="Gradiente_sem_nome_49" cx="54.6231" cy="14.249" r="74.333" gradientUnits="userSpaceOnUse"><stop offset="0" stop-color="#fff"/><stop offset="0.0664" stop-color="#f0f7fb"/><stop offset="0.2395" stop-color="#cfe5f2"/><stop offset="0.4176" stop-color="#b5d8ec"/><stop offset="0.6003" stop-color="#a3cee7"/><stop offset="0.7904" stop-color="#98c8e4"/><stop offset="1" stop-color="#94c6e3"/></radialGradient><clipPath id="clip-path" transform="translate(0.004 0.0038)"><polygon class="cls-43" points="11.361 38.491 55.541 12.981 99.721 38.491 99.721 89.501 55.541 115.001 11.361 89.501 11.361 38.491"/></clipPath><linearGradient id="Gradiente_sem_nome_11" x1="11.365" y1="63.995" x2="99.725" y2="63.995" gradientUnits="userSpaceOnUse"><stop offset="0" stop-color="#007dd1"/><stop offset="1" stop-color="#231b80"/></linearGradient><clipPath id="clip-path-2" transform="translate(0.004 0.0038)"><rect class="cls-43" x="-22.9229" y="13.1636" width="151.6296" height="101.0864"/></clipPath><linearGradient id="Degradado_sin_nombre_32" x1="1.29" y1="101.0113" x2="60.9288" y2="101.0113" gradientUnits="userSpaceOnUse"><stop offset="0.019" stop-color="#00d5fc" stop-opacity="0"/><stop offset="0.1981" stop-color="#00d5fc"/><stop offset="1" stop-color="#637aff"/></linearGradient><linearGradient id="Gradiente_sem_nome_12" x1="115.3178" y1="29.553" x2="71.0424" y2="41.6281" gradientUnits="userSpaceOnUse"><stop offset="0.1981" stop-color="#00d5fc"/><stop offset="1" stop-color="#637aff"/></linearGradient><linearGradient id="Degradado_sin_nombre_31" x1="68.6709" y1="96.98" x2="95.8628" y2="96.98" gradientUnits="userSpaceOnUse"><stop offset="0" stop-color="#00d5fc"/><stop offset="0.146" stop-color="#08c9fc"/><stop offset="0.412" stop-color="#1ca8fc"/><stop offset="0.7652" stop-color="#3c74fd"/><stop offset="1" stop-color="#544dfd"/></linearGradient><linearGradient id="Degradado_sin_nombre_32-2" x1="3.4923" y1="26.709" x2="37.5937" y2="26.709" xlink:href="#Degradado_sin_nombre_32"/><linearGradient id="Degradado_sin_nombre_31-2" x1="74.4468" y1="39.4797" x2="96.7878" y2="39.4797" xlink:href="#Degradado_sin_nombre_31"/><radialGradient id="Gradiente_sem_nome_4" cx="-1886.5682" cy="270.7869" r="55.4587" gradientTransform="translate(-1729.0493 314.7416) rotate(180) scale(0.9348 1)" gradientUnits="userSpaceOnUse"><stop offset="0" stop-color="#001736"/><stop offset="0.352" stop-color="#001539" stop-opacity="0.54"/><stop offset="0.744" stop-color="#00133b" stop-opacity="0.1444"/><stop offset="1" stop-color="#00123c" stop-opacity="0"/></radialGradient><radialGradient id="Gradiente_sem_nome_4-2" cx="-1886.9874" cy="225.6682" r="31.7476" gradientTransform="translate(-1854.745 314.7416) rotate(180)" xlink:href="#Gradiente_sem_nome_4"/><radialGradient id="Gradiente_sem_nome_5" cx="77.8426" cy="79.6524" r="24.2434" gradientUnits="userSpaceOnUse"><stop offset="0" stop-color="#001cf3"/><stop offset="0.2062" stop-color="#0014af" stop-opacity="0.7204"/><stop offset="0.4154" stop-color="#000d71" stop-opacity="0.4666"/><stop offset="0.6071" stop-color="#000740" stop-opacity="0.2654"/><stop offset="0.7745" stop-color="#00031d" stop-opacity="0.1206"/><stop offset="0.9111" stop-color="#000108" stop-opacity="0.0321"/><stop offset="1" stop-opacity="0"/></radialGradient><mask id="mask" x="-67.7123" y="35.3994" width="269.6133" height="101.4023" maskUnits="userSpaceOnUse"><g transform="translate(0.004 0.0038)"><path class="cls-1" d="M201.897,56.2919c-7.5006-12-14.4786-20.8963-18.6835-20.8963-5.13,0-14.0124,13.24-22.8585,29.206-5.0961-7.1252-9.5929-11.7868-12.6366-11.7868-4.8426,0-13.0286,11.7975-21.3716,26.5489-9.589-16.6328-19.2707-30.7175-24.5618-30.7175-11.0315,0-39.4122,61.2187-47.4755,79.12C45.6071,109.6029,15.68,48.8541,4.6912,48.8541c-3.7793,0-9.5951,7.1868-15.9324,17.3538-9.6069-16.6741-19.3153-30.8123-24.6165-30.8123-6.9027,0-20.5981,23.9695-31.8586,46.2978v37.6852h28.8606c-3.7342,8.0588-6.0954,13.4585-6.0954,13.4585H56.7136s-.0339-.0727-.0971-.2078h43.314c-1.1862,2.6405-1.8544,4.1686-1.8544,4.1686H199.7408s-3.3607-7.2176-8.4359-17.4193H201.897Z"/></g></mask><linearGradient id="linear-gradient-43" x1="81.2297" y1="47.7703" x2="81.2297" y2="132.9601" gradientUnits="userSpaceOnUse"><stop offset="0" stop-color="#1e2f61"/><stop offset="1" stop-color="#0b76c3"/></linearGradient><linearGradient id="linear-gradient-44" x1="28.3072" y1="48.854" x2="28.3072" y2="132.8371" xlink:href="#linear-gradient-43"/><mask id="mask-2" x="-279.9449" y="70.8075" width="696.0415" height="37.4388" maskUnits="userSpaceOnUse"><g transform="translate(0.004 0.0038)"><path class="cls-2" d="M-33.7939,95.2814c1.2972-.1559-2.0734-6.1837-2.0734-6.1837,1.7843.22-1.6867-6.93-1.6867-6.93,1.0219.1128-1.8035-4.3345-1.8035-4.3345.6456-.2192-3.2062-7.0292-3.2062-7.0292s-4.17,6.8125-3.5233,7.03c-.0133.0157-2.8282,4.4466-1.8063,4.3338,0,0-3.5758,6.9638-2.1555,6.9586-.7553.9928-3.2173,6.4749-1.6718,6.1213,0,0-1.2028,3.6424.3385,5.1462,1.7432,1.7009,1.7455-.3473,1.7455-.3473s-.541,1.2972,2.2242,2.1432a9.6915,9.6915,0,0,0,2.8473-.0427c-.0986,1.15-.15,2.3029-.145,3.4583.0025.5566.0108,1.1154.0435,1.6712.0134.2285-.0115.53.1725.707.3209.3087.8517.2482,1.26.2547.4638.0074.9278.0065,1.3915-.0079.3678-.0115.8586.03,1.1464-.2471.1837-.177.1588-.4782.1722-.7067.0327-.5558.041-1.1146.0435-1.6712.0054-1.1929-.0513-2.3836-.1564-3.57a3.6972,3.6972,0,0,0,2.6022.1546c2.7652-.846,2.2242-2.1432,2.2242-2.1432s.0023,2.0482,1.7456.3473C-32.4121,98.7807-33.7939,95.2814-33.7939,95.2814Z"/><path class="cls-3" d="M-7.0823,95.2814c1.2972-.1559-2.0734-6.1837-2.0734-6.1837,1.7844.22-1.6866-6.93-1.6866-6.93,1.0219.1128-1.8035-4.3345-1.8035-4.3345.6455-.2192-3.2062-7.0292-3.2062-7.0292s-4.17,6.8125-3.5234,7.03c-.0133.0157-2.8282,4.4466-1.8063,4.3338,0,0-3.5758,6.9638-2.1554,6.9586-.7554.9928-3.2173,6.4749-1.6718,6.1213,0,0-1.2029,3.6424.3384,5.1462,1.7433,1.7009,1.7455-.3473,1.7455-.3473s-.5409,1.2972,2.2243,2.1432a9.6917,9.6917,0,0,0,2.8473-.0427c-.0986,1.15-.15,2.3029-.145,3.4583.0025.5566.0108,1.1154.0434,1.6712.0135.2285-.0114.53.1726.707.3209.3087.8517.2482,1.26.2547.4638.0074.9279.0065,1.3915-.0079.3679-.0115.8586.03,1.1464-.2471.1838-.177.1589-.4782.1723-.7067.0327-.5558.041-1.1146.0435-1.6712.0054-1.1929-.0513-2.3836-.1565-3.57a3.6975,3.6975,0,0,0,2.6023.1546c2.7652-.846,2.2241-2.1432,2.2241-2.1432s.0024,2.0482,1.7456.3473C-5.7,98.7807-7.0823,95.2814-7.0823,95.2814Z"/><path class="cls-4" d="M11.1969,95.2814c1.2972-.1559-2.0734-6.1837-2.0734-6.1837,1.7843.22-1.6867-6.93-1.6867-6.93,1.0219.1128-1.8035-4.3345-1.8035-4.3345.6456-.2192-3.2062-7.0292-3.2062-7.0292s-4.17,6.8125-3.5233,7.03c-.0133.0157-2.8282,4.4466-1.8063,4.3338,0,0-3.5758,6.9638-2.1555,6.9586-.7553.9928-3.2173,6.4749-1.6717,6.1213,0,0-1.2029,3.6424.3384,5.1462,1.7432,1.7009,1.7455-.3473,1.7455-.3473s-.541,1.2972,2.2242,2.1432a9.6923,9.6923,0,0,0,2.8474-.0427c-.0986,1.15-.15,2.3029-.1451,3.4583.0025.5566.0108,1.1154.0435,1.6712.0134.2285-.0115.53.1725.707.3209.3087.8518.2482,1.26.2547.4638.0074.9278.0065,1.3915-.0079.3678-.0115.8586.03,1.1464-.2471.1838-.177.1588-.4782.1723-.7067.0327-.5558.041-1.1146.0434-1.6712.0054-1.1929-.0513-2.3836-.1564-3.57a3.6975,3.6975,0,0,0,2.6023.1546c2.7651-.846,2.2241-2.1432,2.2241-2.1432s.0023,2.0482,1.7456.3473C12.5787,98.7807,11.1969,95.2814,11.1969,95.2814Z"/><path class="cls-5" d="M153.5694,95.2814c1.2972-.1559-2.0734-6.1837-2.0734-6.1837,1.7843.22-1.6867-6.93-1.6867-6.93,1.022.1128-1.8035-4.3345-1.8035-4.3345.6456-.2192-3.2061-7.0292-3.2061-7.0292s-4.17,6.8125-3.5234,7.03c-.0133.0157-2.8282,4.4466-1.8063,4.3338,0,0-3.5758,6.9638-2.1555,6.9586-.7553.9928-3.2173,6.4749-1.6717,6.1213,0,0-1.2029,3.6424.3384,5.1462,1.7432,1.7009,1.7455-.3473,1.7455-.3473s-.541,1.2972,2.2242,2.1432a9.6923,9.6923,0,0,0,2.8474-.0427c-.0986,1.15-.15,2.3029-.1451,3.4583.0025.5566.0108,1.1154.0435,1.6712.0134.2285-.0115.53.1725.707.321.3087.8518.2482,1.26.2547.4638.0074.9278.0065,1.3915-.0079.3678-.0115.8586.03,1.1464-.2471.1838-.177.1588-.4782.1723-.7067.0327-.5558.041-1.1146.0435-1.6712.0053-1.1929-.0514-2.3836-.1565-3.57a3.6975,3.6975,0,0,0,2.6023.1546c2.7651-.846,2.2241-2.1432,2.2241-2.1432s.0023,2.0482,1.7456.3473C154.9512,98.7807,153.5694,95.2814,153.5694,95.2814Z"/><path class="cls-6" d="M116.8951,95.2814c1.2972-.1559-2.0734-6.1837-2.0734-6.1837,1.7844.22-1.6866-6.93-1.6866-6.93,1.0219.1128-1.8035-4.3345-1.8035-4.3345.6455-.2192-3.2062-7.0292-3.2062-7.0292s-4.17,6.8125-3.5233,7.03c-.0134.0157-2.8282,4.4466-1.8063,4.3338,0,0-3.5758,6.9638-2.1555,6.9586-.7553.9928-3.2173,6.4749-1.6718,6.1213,0,0-1.2028,3.6424.3384,5.1462,1.7433,1.7009,1.7456-.3473,1.7456-.3473s-.541,1.2972,2.2242,2.1432a9.6915,9.6915,0,0,0,2.8473-.0427c-.0986,1.15-.15,2.3029-.145,3.4583.0025.5566.0108,1.1154.0435,1.6712.0134.2285-.0115.53.1725.707.3209.3087.8517.2482,1.26.2547.4639.0074.9279.0065,1.3916-.0079.3678-.0115.8586.03,1.1463-.2471.1838-.177.1589-.4782.1723-.7067.0327-.5558.041-1.1146.0435-1.6712.0054-1.1929-.0513-2.3836-.1565-3.57a3.6976,3.6976,0,0,0,2.6023.1546c2.7652-.846,2.2242-2.1432,2.2242-2.1432s.0023,2.0482,1.7456.3473C118.277,98.7807,116.8951,95.2814,116.8951,95.2814Z"/><path class="cls-7" d="M60.0158,95.2814c1.2971-.1559-2.0734-6.1837-2.0734-6.1837,1.7843.22-1.6867-6.93-1.6867-6.93,1.0219.1128-1.8035-4.3345-1.8035-4.3345.6455-.2192-3.2062-7.0292-3.2062-7.0292s-4.17,6.8125-3.5233,7.03c-.0133.0157-2.8282,4.4466-1.8063,4.3338,0,0-3.5758,6.9638-2.1555,6.9586-.7553.9928-3.2173,6.4749-1.6718,6.1213,0,0-1.2028,3.6424.3385,5.1462,1.7432,1.7009,1.7455-.3473,1.7455-.3473s-.541,1.2972,2.2242,2.1432a9.6915,9.6915,0,0,0,2.8473-.0427c-.0986,1.15-.15,2.3029-.145,3.4583.0025.5566.0108,1.1154.0435,1.6712.0134.2285-.0115.53.1725.707.3209.3087.8517.2482,1.26.2547.4639.0074.9279.0065,1.3916-.0079.3678-.0115.8586.03,1.1464-.2471.1837-.177.1588-.4782.1722-.7067.0327-.5558.041-1.1146.0435-1.6712.0054-1.1929-.0513-2.3836-.1564-3.57a3.6972,3.6972,0,0,0,2.6022.1546c2.7652-.846,2.2242-2.1432,2.2242-2.1432s.0023,2.0482,1.7456.3473C61.3976,98.7807,60.0158,95.2814,60.0158,95.2814Z"/><path class="cls-8" d="M174.099,95.2814c1.2972-.1559-2.0734-6.1837-2.0734-6.1837,1.7844.22-1.6866-6.93-1.6866-6.93,1.0219.1128-1.8035-4.3345-1.8035-4.3345.6455-.2192-3.2062-7.0292-3.2062-7.0292s-4.17,6.8125-3.5233,7.03c-.0134.0157-2.8283,4.4466-1.8064,4.3338,0,0-3.5757,6.9638-2.1554,6.9586-.7554.9928-3.2173,6.4749-1.6718,6.1213,0,0-1.2029,3.6424.3384,5.1462,1.7433,1.7009,1.7456-.3473,1.7456-.3473s-.541,1.2972,2.2242,2.1432a9.6915,9.6915,0,0,0,2.8473-.0427c-.0986,1.15-.15,2.3029-.145,3.4583.0025.5566.0108,1.1154.0435,1.6712.0134.2285-.0115.53.1725.707.3209.3087.8517.2482,1.26.2547.4638.0074.9279.0065,1.3915-.0079.3679-.0115.8587.03,1.1464-.2471.1838-.177.1589-.4782.1723-.7067.0327-.5558.041-1.1146.0435-1.6712.0054-1.1929-.0513-2.3836-.1565-3.57a3.6975,3.6975,0,0,0,2.6023.1546c2.7652-.846,2.2241-2.1432,2.2241-2.1432s.0024,2.0482,1.7457.3473C175.4808,98.7807,174.099,95.2814,174.099,95.2814Z"/><path class="cls-9" d="M207.6585,95.2814c1.2972-.1559-2.0734-6.1837-2.0734-6.1837,1.7843.22-1.6867-6.93-1.6867-6.93,1.0219.1128-1.8035-4.3345-1.8035-4.3345.6456-.2192-3.2062-7.0292-3.2062-7.0292s-4.17,6.8125-3.5233,7.03c-.0133.0157-2.8282,4.4466-1.8063,4.3338,0,0-3.5758,6.9638-2.1555,6.9586-.7553.9928-3.2173,6.4749-1.6718,6.1213,0,0-1.2028,3.6424.3385,5.1462,1.7432,1.7009,1.7455-.3473,1.7455-.3473s-.541,1.2972,2.2242,2.1432a9.6924,9.6924,0,0,0,2.8474-.0427c-.0986,1.15-.15,2.3029-.1451,3.4583.0025.5566.0108,1.1154.0435,1.6712.0134.2285-.0115.53.1725.707.3209.3087.8517.2482,1.26.2547.4638.0074.9278.0065,1.3915-.0079.3678-.0115.8586.03,1.1464-.2471.1838-.177.1588-.4782.1722-.7067.0327-.5558.041-1.1146.0435-1.6712.0054-1.1929-.0513-2.3836-.1564-3.57a3.6972,3.6972,0,0,0,2.6022.1546c2.7652-.846,2.2242-2.1432,2.2242-2.1432s.0023,2.0482,1.7456.3473C209.04,98.7807,207.6585,95.2814,207.6585,95.2814Z"/><path class="cls-10" d="M234.37,95.2814c1.2972-.1559-2.0734-6.1837-2.0734-6.1837,1.7844.22-1.6866-6.93-1.6866-6.93,1.0219.1128-1.8035-4.3345-1.8035-4.3345.6455-.2192-3.2062-7.0292-3.2062-7.0292s-4.17,6.8125-3.5233,7.03c-.0134.0157-2.8283,4.4466-1.8064,4.3338,0,0-3.5757,6.9638-2.1554,6.9586-.7554.9928-3.2173,6.4749-1.6718,6.1213,0,0-1.2029,3.6424.3384,5.1462,1.7433,1.7009,1.7456-.3473,1.7456-.3473s-.541,1.2972,2.2242,2.1432a9.6915,9.6915,0,0,0,2.8473-.0427c-.0986,1.15-.15,2.3029-.145,3.4583.0025.5566.0108,1.1154.0435,1.6712.0134.2285-.0115.53.1725.707.3209.3087.8517.2482,1.26.2547.4638.0074.9279.0065,1.3915-.0079.3679-.0115.8586.03,1.1464-.2471.1838-.177.1589-.4782.1723-.7067.0327-.5558.041-1.1146.0435-1.6712.0054-1.1929-.0513-2.3836-.1565-3.57a3.6975,3.6975,0,0,0,2.6023.1546c2.7652-.846,2.2241-2.1432,2.2241-2.1432s.0024,2.0482,1.7456.3473C235.7519,98.7807,234.37,95.2814,234.37,95.2814Z"/><path class="cls-11" d="M252.6493,95.2814c1.2972-.1559-2.0734-6.1837-2.0734-6.1837,1.7843.22-1.6867-6.93-1.6867-6.93,1.022.1128-1.8035-4.3345-1.8035-4.3345.6456-.2192-3.2062-7.0292-3.2062-7.0292s-4.17,6.8125-3.5233,7.03c-.0133.0157-2.8282,4.4466-1.8063,4.3338,0,0-3.5758,6.9638-2.1555,6.9586-.7553.9928-3.2173,6.4749-1.6717,6.1213,0,0-1.2029,3.6424.3384,5.1462,1.7432,1.7009,1.7455-.3473,1.7455-.3473s-.541,1.2972,2.2242,2.1432a9.6923,9.6923,0,0,0,2.8474-.0427c-.0986,1.15-.15,2.3029-.1451,3.4583.0025.5566.0108,1.1154.0435,1.6712.0134.2285-.0115.53.1725.707.3209.3087.8518.2482,1.26.2547.4638.0074.9278.0065,1.3915-.0079.3678-.0115.8586.03,1.1464-.2471.1838-.177.1588-.4782.1723-.7067.0327-.5558.041-1.1146.0435-1.6712.0053-1.1929-.0514-2.3836-.1565-3.57a3.6975,3.6975,0,0,0,2.6023.1546c2.7651-.846,2.2241-2.1432,2.2241-2.1432s.0023,2.0482,1.7456.3473C254.0311,98.7807,252.6493,95.2814,252.6493,95.2814Z"/><path class="cls-12" d="M395.0218,95.2814c1.2972-.1559-2.0734-6.1837-2.0734-6.1837,1.7843.22-1.6867-6.93-1.6867-6.93,1.022.1128-1.8035-4.3345-1.8035-4.3345.6456-.2192-3.2061-7.0292-3.2061-7.0292s-4.17,6.8125-3.5234,7.03c-.0133.0157-2.8282,4.4466-1.8063,4.3338,0,0-3.5758,6.9638-2.1555,6.9586-.7553.9928-3.2172,6.4749-1.6717,6.1213,0,0-1.2029,3.6424.3384,5.1462,1.7432,1.7009,1.7455-.3473,1.7455-.3473s-.541,1.2972,2.2242,2.1432a9.6923,9.6923,0,0,0,2.8474-.0427c-.0986,1.15-.15,2.3029-.1451,3.4583.0025.5566.0108,1.1154.0435,1.6712.0135.2285-.0115.53.1725.707.321.3087.8518.2482,1.26.2547.4638.0074.9278.0065,1.3915-.0079.3678-.0115.8586.03,1.1464-.2471.1838-.177.1588-.4782.1723-.7067.0327-.5558.041-1.1146.0435-1.6712.0053-1.1929-.0514-2.3836-.1565-3.57a3.6975,3.6975,0,0,0,2.6023.1546c2.7651-.846,2.2241-2.1432,2.2241-2.1432s.0023,2.0482,1.7456.3473C396.4036,98.7807,395.0218,95.2814,395.0218,95.2814Z"/><path class="cls-13" d="M358.3476,95.2814c1.2971-.1559-2.0734-6.1837-2.0734-6.1837,1.7843.22-1.6867-6.93-1.6867-6.93,1.0219.1128-1.8035-4.3345-1.8035-4.3345.6455-.2192-3.2062-7.0292-3.2062-7.0292s-4.17,6.8125-3.5233,7.03c-.0133.0157-2.8282,4.4466-1.8063,4.3338,0,0-3.5758,6.9638-2.1555,6.9586-.7553.9928-3.2173,6.4749-1.6718,6.1213,0,0-1.2028,3.6424.3385,5.1462,1.7432,1.7009,1.7455-.3473,1.7455-.3473s-.541,1.2972,2.2242,2.1432a9.6915,9.6915,0,0,0,2.8473-.0427c-.0986,1.15-.15,2.3029-.145,3.4583.0025.5566.0108,1.1154.0435,1.6712.0134.2285-.0115.53.1725.707.3209.3087.8517.2482,1.26.2547.4639.0074.9279.0065,1.3916-.0079.3678-.0115.8586.03,1.1464-.2471.1837-.177.1588-.4782.1722-.7067.0327-.5558.041-1.1146.0435-1.6712.0054-1.1929-.0513-2.3836-.1564-3.57a3.6972,3.6972,0,0,0,2.6022.1546c2.7652-.846,2.2242-2.1432,2.2242-2.1432s.0023,2.0482,1.7456.3473C359.7294,98.7807,358.3476,95.2814,358.3476,95.2814Z"/><path class="cls-14" d="M301.4682,95.2814c1.2971-.1559-2.0734-6.1837-2.0734-6.1837,1.7843.22-1.6867-6.93-1.6867-6.93,1.0219.1128-1.8035-4.3345-1.8035-4.3345.6455-.2192-3.2062-7.0292-3.2062-7.0292s-4.17,6.8125-3.5233,7.03c-.0133.0157-2.8282,4.4466-1.8063,4.3338,0,0-3.5758,6.9638-2.1555,6.9586-.7553.9928-3.2173,6.4749-1.6718,6.1213,0,0-1.2028,3.6424.3385,5.1462,1.7432,1.7009,1.7455-.3473,1.7455-.3473s-.541,1.2972,2.2242,2.1432a9.6915,9.6915,0,0,0,2.8473-.0427c-.0986,1.15-.15,2.3029-.145,3.4583.0025.5566.0108,1.1154.0435,1.6712.0134.2285-.0115.53.1725.707.3209.3087.8517.2482,1.26.2547.4638.0074.9278.0065,1.3915-.0079.3678-.0115.8586.03,1.1464-.2471.1837-.177.1588-.4782.1722-.7067.0327-.5558.041-1.1146.0435-1.6712.0054-1.1929-.0513-2.3836-.1564-3.57a3.6972,3.6972,0,0,0,2.6022.1546c2.7652-.846,2.2242-2.1432,2.2242-2.1432s.0023,2.0482,1.7456.3473C302.85,98.7807,301.4682,95.2814,301.4682,95.2814Z"/><path class="cls-15" d="M415.5514,95.2814c1.2972-.1559-2.0734-6.1837-2.0734-6.1837,1.7844.22-1.6866-6.93-1.6866-6.93,1.0219.1128-1.8035-4.3345-1.8035-4.3345.6455-.2192-3.2062-7.0292-3.2062-7.0292s-4.17,6.8125-3.5233,7.03c-.0134.0157-2.8282,4.4466-1.8063,4.3338,0,0-3.5758,6.9638-2.1555,6.9586-.7554.9928-3.2173,6.4749-1.6718,6.1213,0,0-1.2029,3.6424.3384,5.1462,1.7433,1.7009,1.7456-.3473,1.7456-.3473s-.541,1.2972,2.2242,2.1432a9.6915,9.6915,0,0,0,2.8473-.0427c-.0986,1.15-.15,2.3029-.145,3.4583.0025.5566.0108,1.1154.0435,1.6712.0134.2285-.0115.53.1725.707.3209.3087.8517.2482,1.26.2547.4638.0074.9279.0065,1.3916-.0079.3678-.0115.8586.03,1.1463-.2471.1838-.177.1589-.4782.1723-.7067.0327-.5558.041-1.1146.0435-1.6712.0054-1.1929-.0513-2.3836-.1565-3.57a3.6975,3.6975,0,0,0,2.6023.1546c2.7652-.846,2.2242-2.1432,2.2242-2.1432s.0023,2.0482,1.7456.3473C416.9332,98.7807,415.5514,95.2814,415.5514,95.2814Z"/><path class="cls-16" d="M-261.5224,95.2814c1.2972-.1559-2.0734-6.1837-2.0734-6.1837,1.7843.22-1.6867-6.93-1.6867-6.93,1.022.1128-1.8035-4.3345-1.8035-4.3345.6456-.2192-3.2061-7.0292-3.2061-7.0292s-4.17,6.8125-3.5234,7.03c-.0133.0157-2.8282,4.4466-1.8063,4.3338,0,0-3.5758,6.9638-2.1555,6.9586-.7553.9928-3.2173,6.4749-1.6717,6.1213,0,0-1.2029,3.6424.3384,5.1462,1.7432,1.7009,1.7455-.3473,1.7455-.3473s-.541,1.2972,2.2242,2.1432a9.6923,9.6923,0,0,0,2.8474-.0427c-.0986,1.15-.15,2.3029-.1451,3.4583.0025.5566.0108,1.1154.0435,1.6712.0134.2285-.0115.53.1725.707.321.3087.8518.2482,1.26.2547.4638.0074.9278.0065,1.3915-.0079.3678-.0115.8586.03,1.1464-.2471.1838-.177.1588-.4782.1723-.7067.0327-.5558.041-1.1146.0435-1.6712.0053-1.1929-.0514-2.3836-.1565-3.57a3.6975,3.6975,0,0,0,2.6023.1546c2.7651-.846,2.2241-2.1432,2.2241-2.1432s.0023,2.0482,1.7456.3473C-260.1406,98.7807-261.5224,95.2814-261.5224,95.2814Z"/><path class="cls-17" d="M-234.8107,95.2814c1.2971-.1559-2.0734-6.1837-2.0734-6.1837,1.7843.22-1.6867-6.93-1.6867-6.93,1.0219.1128-1.8035-4.3345-1.8035-4.3345.6455-.2192-3.2062-7.0292-3.2062-7.0292s-4.17,6.8125-3.5233,7.03c-.0133.0157-2.8282,4.4466-1.8063,4.3338,0,0-3.5758,6.9638-2.1555,6.9586-.7553.9928-3.2173,6.4749-1.6718,6.1213,0,0-1.2028,3.6424.3385,5.1462,1.7432,1.7009,1.7455-.3473,1.7455-.3473s-.541,1.2972,2.2242,2.1432a9.6915,9.6915,0,0,0,2.8473-.0427c-.0986,1.15-.15,2.3029-.145,3.4583.0025.5566.0108,1.1154.0435,1.6712.0134.2285-.0115.53.1725.707.3209.3087.8517.2482,1.26.2547.4639.0074.9279.0065,1.3916-.0079.3678-.0115.8586.03,1.1464-.2471.1837-.177.1588-.4782.1722-.7067.0327-.5558.041-1.1146.0435-1.6712.0054-1.1929-.0513-2.3836-.1564-3.57a3.6972,3.6972,0,0,0,2.6022.1546c2.7652-.846,2.2242-2.1432,2.2242-2.1432s.0023,2.0482,1.7456.3473C-233.4289,98.7807-234.8107,95.2814-234.8107,95.2814Z"/><path class="cls-18" d="M-216.5316,95.2814c1.2972-.1559-2.0734-6.1837-2.0734-6.1837,1.7843.22-1.6866-6.93-1.6866-6.93,1.0219.1128-1.8035-4.3345-1.8035-4.3345.6455-.2192-3.2062-7.0292-3.2062-7.0292s-4.17,6.8125-3.5234,7.03c-.0133.0157-2.8282,4.4466-1.8063,4.3338,0,0-3.5758,6.9638-2.1554,6.9586-.7554.9928-3.2173,6.4749-1.6718,6.1213,0,0-1.2029,3.6424.3384,5.1462,1.7432,1.7009,1.7455-.3473,1.7455-.3473s-.5409,1.2972,2.2242,2.1432a9.6923,9.6923,0,0,0,2.8474-.0427c-.0986,1.15-.15,2.3029-.145,3.4583.0024.5566.0108,1.1154.0434,1.6712.0135.2285-.0114.53.1725.707.321.3087.8518.2482,1.26.2547.4638.0074.9278.0065,1.3915-.0079.3678-.0115.8586.03,1.1464-.2471.1838-.177.1588-.4782.1723-.7067.0327-.5558.041-1.1146.0435-1.6712.0054-1.1929-.0513-2.3836-.1565-3.57a3.6975,3.6975,0,0,0,2.6023.1546c2.7652-.846,2.2241-2.1432,2.2241-2.1432s.0023,2.0482,1.7456.3473C-215.15,98.7807-216.5316,95.2814-216.5316,95.2814Z"/><path class="cls-19" d="M-74.1591,95.2814c1.2972-.1559-2.0734-6.1837-2.0734-6.1837,1.7844.22-1.6866-6.93-1.6866-6.93,1.0219.1128-1.8035-4.3345-1.8035-4.3345.6455-.2192-3.2062-7.0292-3.2062-7.0292s-4.17,6.8125-3.5234,7.03c-.0133.0157-2.8282,4.4466-1.8063,4.3338,0,0-3.5757,6.9638-2.1554,6.9586-.7554.9928-3.2173,6.4749-1.6718,6.1213,0,0-1.2029,3.6424.3384,5.1462,1.7433,1.7009,1.7456-.3473,1.7456-.3473s-.541,1.2972,2.2242,2.1432a9.6917,9.6917,0,0,0,2.8473-.0427c-.0986,1.15-.15,2.3029-.145,3.4583.0025.5566.0108,1.1154.0435,1.6712.0134.2285-.0115.53.1725.707.3209.3087.8517.2482,1.26.2547.4638.0074.9279.0065,1.3915-.0079.3679-.0115.8586.03,1.1464-.2471.1838-.177.1589-.4782.1723-.7067.0327-.5558.041-1.1146.0435-1.6712.0054-1.1929-.0513-2.3836-.1565-3.57a3.6975,3.6975,0,0,0,2.6023.1546c2.7652-.846,2.2241-2.1432,2.2241-2.1432s.0024,2.0482,1.7456.3473C-72.7773,98.7807-74.1591,95.2814-74.1591,95.2814Z"/><path class="cls-20" d="M-110.8333,95.2814c1.2972-.1559-2.0734-6.1837-2.0734-6.1837,1.7843.22-1.6867-6.93-1.6867-6.93,1.0219.1128-1.8035-4.3345-1.8035-4.3345.6456-.2192-3.2062-7.0292-3.2062-7.0292s-4.17,6.8125-3.5233,7.03c-.0133.0157-2.8282,4.4466-1.8063,4.3338,0,0-3.5758,6.9638-2.1555,6.9586-.7553.9928-3.2173,6.4749-1.6717,6.1213,0,0-1.2029,3.6424.3384,5.1462,1.7432,1.7009,1.7455-.3473,1.7455-.3473s-.541,1.2972,2.2242,2.1432a9.6923,9.6923,0,0,0,2.8474-.0427c-.0986,1.15-.15,2.3029-.1451,3.4583.0025.5566.0108,1.1154.0435,1.6712.0134.2285-.0115.53.1725.707.3209.3087.8518.2482,1.26.2547.4638.0074.9278.0065,1.3915-.0079.3678-.0115.8586.03,1.1464-.2471.1838-.177.1588-.4782.1723-.7067.0327-.5558.041-1.1146.0434-1.6712.0054-1.1929-.0513-2.3836-.1564-3.57a3.6975,3.6975,0,0,0,2.6023.1546c2.7651-.846,2.2241-2.1432,2.2241-2.1432s.0023,2.0482,1.7456.3473C-109.4515,98.7807-110.8333,95.2814-110.8333,95.2814Z"/><path class="cls-21" d="M-167.7127,95.2814c1.2972-.1559-2.0734-6.1837-2.0734-6.1837,1.7843.22-1.6867-6.93-1.6867-6.93,1.022.1128-1.8035-4.3345-1.8035-4.3345.6456-.2192-3.2062-7.0292-3.2062-7.0292s-4.17,6.8125-3.5233,7.03c-.0133.0157-2.8282,4.4466-1.8063,4.3338,0,0-3.5758,6.9638-2.1555,6.9586-.7553.9928-3.2173,6.4749-1.6717,6.1213,0,0-1.2029,3.6424.3384,5.1462,1.7432,1.7009,1.7455-.3473,1.7455-.3473s-.541,1.2972,2.2242,2.1432a9.6923,9.6923,0,0,0,2.8474-.0427c-.0986,1.15-.15,2.3029-.1451,3.4583.0025.5566.0108,1.1154.0435,1.6712.0134.2285-.0115.53.1725.707.3209.3087.8518.2482,1.26.2547.4638.0074.9278.0065,1.3915-.0079.3678-.0115.8586.03,1.1464-.2471.1838-.177.1588-.4782.1723-.7067.0327-.5558.041-1.1146.0434-1.6712.0054-1.1929-.0513-2.3836-.1564-3.57a3.6975,3.6975,0,0,0,2.6023.1546c2.7651-.846,2.2241-2.1432,2.2241-2.1432s.0023,2.0482,1.7456.3473C-166.3309,98.7807-167.7127,95.2814-167.7127,95.2814Z"/><path class="cls-22" d="M-53.6294,95.2814c1.2972-.1559-2.0734-6.1837-2.0734-6.1837,1.7843.22-1.6867-6.93-1.6867-6.93,1.0219.1128-1.8035-4.3345-1.8035-4.3345.6456-.2192-3.2062-7.0292-3.2062-7.0292s-4.17,6.8125-3.5233,7.03c-.0133.0157-2.8282,4.4466-1.8063,4.3338,0,0-3.5758,6.9638-2.1555,6.9586-.7553.9928-3.2173,6.4749-1.6718,6.1213,0,0-1.2028,3.6424.3385,5.1462,1.7432,1.7009,1.7455-.3473,1.7455-.3473s-.541,1.2972,2.2242,2.1432a9.6915,9.6915,0,0,0,2.8473-.0427c-.0986,1.15-.15,2.3029-.145,3.4583.0025.5566.0108,1.1154.0435,1.6712.0134.2285-.0115.53.1725.707.3209.3087.8517.2482,1.26.2547.4638.0074.9278.0065,1.3915-.0079.3678-.0115.8586.03,1.1464-.2471.1837-.177.1588-.4782.1722-.7067.0327-.5558.041-1.1146.0435-1.6712.0054-1.1929-.0513-2.3836-.1564-3.57a3.6972,3.6972,0,0,0,2.6022.1546c2.7652-.846,2.2242-2.1432,2.2242-2.1432s.0023,2.0482,1.7456.3473C-52.2476,98.7807-53.6294,95.2814-53.6294,95.2814Z"/></g></mask><linearGradient id="linear-gradient-45" x1="51.073" y1="31.5932" x2="51.073" y2="245.9658" xlink:href="#linear-gradient-43"/><mask id="mask-3" x="-61.7003" y="75.5251" width="258.9276" height="37.4388" maskUnits="userSpaceOnUse"><g transform="translate(0.004 0.0038)"><path class="cls-23" d="M-2.0133,93.8153c1.7843.22-1.6867-6.93-1.6867-6.93,1.022.1128-1.8035-4.3345-1.8035-4.3345.6456-.2192-3.2062-7.0292-3.2062-7.0292s-4.17,6.8125-3.5233,7.03c-.0133.0157-2.8282,4.4466-1.8063,4.3338,0,0-3.5758,6.9638-2.1555,6.9586A14.1638,14.1638,0,0,0-17.4156,96.2c-.6052-1.2771-1.2239-2.3842-1.2239-2.3842,1.7843.22-1.6867-6.93-1.6867-6.93,1.022.1128-1.8034-4.3345-1.8034-4.3345.6455-.2192-3.2062-7.0292-3.2062-7.0292s-4.17,6.8125-3.5234,7.03c-.007.0082-.7877,1.2362-1.3787,2.3831-.5925-1.1511-1.3756-2.3838-1.3756-2.3838.6456-.2192-3.2061-7.0292-3.2061-7.0292s-4.17,6.8125-3.5234,7.03c-.0133.0157-2.8282,4.4466-1.8063,4.3338,0,0-3.5758,6.9638-2.1554,6.9586a16.525,16.525,0,0,0-1.5048,3.0473c-.6837-1.5407-1.5416-3.0756-1.5416-3.0756,1.7843.22-1.6867-6.93-1.6867-6.93,1.0219.1128-1.8035-4.3345-1.8035-4.3345.6456-.2192-3.2062-7.0292-3.2062-7.0292s-4.17,6.8125-3.5233,7.03c-.0133.0157-2.8282,4.4466-1.8063,4.3338,0,0-3.5758,6.9638-2.1555,6.9586-.7553.9928-3.2173,6.4749-1.6718,6.1213,0,0-1.2028,3.6424.3385,5.1462,1.2582,1.2276,1.6093.5024,1.7074.0037.0363.4442.3939,1.2206,2.2623,1.7922a9.6879,9.6879,0,0,0,2.8473-.0427c-.0986,1.15-.15,2.3029-.145,3.4583.0025.5566.0108,1.1154.0435,1.6712.0134.2285-.0115.53.1725.707.3209.3087.8517.2482,1.26.2547.4639.0074.9279.0066,1.3916-.0079.3678-.0115.8586.03,1.1464-.2471.1837-.177.1588-.4782.1722-.7067.0327-.5558.041-1.1146.0435-1.6712.0054-1.1929-.0513-2.3836-.1564-3.57a3.6967,3.6967,0,0,0,2.6022.1546c1.8684-.5716,2.226-1.3479,2.2623-1.7922.0969.4927.4418,1.2041,1.6629.0381,1.2211,1.166,1.5659.4545,1.6628-.0381.0363.4442.3939,1.2206,2.2623,1.7922a9.6886,9.6886,0,0,0,2.8474-.0427c-.0986,1.15-.15,2.3029-.1451,3.4583.0025.5566.0108,1.1154.0435,1.6712.0135.2285-.0115.53.1725.707.321.3087.8518.2482,1.26.2547.4638.0074.9278.0066,1.3915-.0079.3678-.0115.8586.03,1.1464-.2471.1838-.177.1588-.4782.1723-.7067.0327-.5558.041-1.1146.0435-1.6712.0053-1.1929-.0513-2.3836-.1565-3.57a3.697,3.697,0,0,0,2.6023.1546c.0191-.0058.0343-.0122.0531-.0181.0188.0059.034.0123.0531.0181a9.6886,9.6886,0,0,0,2.8474-.0427c-.0986,1.15-.15,2.3029-.145,3.4583.0025.5566.0108,1.1154.0434,1.6712.0135.2285-.0114.53.1725.707.321.3087.8518.2482,1.26.2547.4638.0074.9278.0066,1.3915-.0079.3678-.0115.8586.03,1.1464-.2471.1838-.177.1589-.4782.1723-.7067.0327-.5558.041-1.1146.0435-1.6712.0054-1.1929-.0513-2.3836-.1565-3.57a3.697,3.697,0,0,0,2.6023.1546c1.8683-.5716,2.2259-1.3479,2.2622-1.7921.0885.45.3835,1.081,1.3621.3025.9786.7785,1.2736.147,1.362-.3026.0363.4443.394,1.2206,2.2623,1.7922a9.6886,9.6886,0,0,0,2.8474-.0427c-.0986,1.15-.15,2.3029-.1451,3.4583.0025.5566.0108,1.1154.0435,1.6712.0134.2285-.0115.53.1725.707.3209.3087.8518.2482,1.26.2547.4638.0074.9278.0066,1.3915-.0079.3678-.0115.8586.03,1.1464-.2471.1838-.177.1588-.4782.1723-.7067.0327-.5558.041-1.1146.0435-1.6712.0053-1.1929-.0514-2.3836-.1565-3.57a3.697,3.697,0,0,0,2.6023.1546c1.8683-.5716,2.2259-1.3479,2.2622-1.7922.0981.4987.4493,1.2239,1.7075-.0037C1.4419,103.4983.06,99.999.06,99.999,1.3573,99.8431-2.0133,93.8153-2.0133,93.8153Z"/><path class="cls-24" d="M26.4529,93.8153c1.7843.22-1.6866-6.93-1.6866-6.93,1.0219.1128-1.8035-4.3345-1.8035-4.3345.6455-.2192-3.2062-7.0292-3.2062-7.0292s-4.17,6.8125-3.5234,7.03c-.007.0082-.7877,1.2362-1.3787,2.383-.5925-1.151-1.3755-2.3837-1.3755-2.3837.6455-.2192-3.2062-7.0292-3.2062-7.0292s-4.17,6.8125-3.5234,7.03c-.0133.0157-2.8282,4.4466-1.8063,4.3338,0,0-3.5758,6.9638-2.1554,6.9586-.7554.9928-3.2173,6.4749-1.6718,6.1213,0,0-1.2029,3.6424.3384,5.1462,1.2582,1.2276,1.6094.5024,1.7074.0037.0363.4442.3939,1.2206,2.2623,1.7922a9.6886,9.6886,0,0,0,2.8474-.0427c-.0986,1.15-.15,2.3029-.145,3.4583.0024.5566.0108,1.1154.0434,1.6712.0135.2285-.0114.53.1726.707.3209.3087.8517.2482,1.26.2547.4638.0074.9278.0066,1.3915-.0079.3678-.0115.8586.03,1.1464-.2471.1838-.177.1588-.4782.1723-.7067.0327-.5558.041-1.1146.0435-1.6712.0054-1.1929-.0513-2.3836-.1565-3.57a3.697,3.697,0,0,0,2.6023.1546c.0191-.0058.0343-.0122.0531-.0181.0188.0059.034.0123.0532.0181a9.6881,9.6881,0,0,0,2.8473-.0427c-.0986,1.15-.15,2.3029-.145,3.4583.0024.5566.0108,1.1154.0434,1.6712.0135.2285-.0114.53.1725.707.321.3087.8518.2482,1.26.2547.4638.0074.9279.0066,1.3915-.0079.3678-.0115.8586.03,1.1464-.2471.1838-.177.1588-.4782.1723-.7067.0327-.5558.041-1.1146.0435-1.6712.0054-1.1929-.0513-2.3836-.1565-3.57a3.697,3.697,0,0,0,2.6023.1546c1.8683-.5716,2.2259-1.3479,2.2622-1.7922.0982.4987.4493,1.2239,1.7075-.0037,1.653-1.6128.2712-5.1121.2712-5.1121C29.8235,99.8431,26.4529,93.8153,26.4529,93.8153Z"/><path class="cls-25" d="M45.4218,93.8153c1.7843.22-1.6867-6.93-1.6867-6.93,1.022.1128-1.8035-4.3345-1.8035-4.3345.6456-.2192-3.2061-7.0292-3.2061-7.0292s-4.17,6.8125-3.5234,7.03c-.0133.0157-2.8282,4.4466-1.8063,4.3338,0,0-3.5758,6.9638-2.1554,6.9586-.7554.9928-3.2173,6.4749-1.6718,6.1213,0,0-1.2029,3.6424.3384,5.1462,1.2582,1.2276,1.6093.5024,1.7074.0037.0363.4442.3939,1.2206,2.2623,1.7922a9.6886,9.6886,0,0,0,2.8474-.0427c-.0986,1.15-.15,2.3029-.1451,3.4583.0025.5566.0108,1.1154.0435,1.6712.0134.2285-.0115.53.1725.707.321.3087.8518.2482,1.26.2547.4638.0074.9278.0066,1.3915-.0079.3678-.0115.8586.03,1.1464-.2471.1838-.177.1588-.4782.1723-.7067.0327-.5558.041-1.1146.0435-1.6712.0053-1.1929-.0513-2.3836-.1565-3.57a3.6969,3.6969,0,0,0,2.6023.1546c1.8683-.5716,2.2259-1.3479,2.2622-1.7922.0981.4987.4493,1.2239,1.7075-.0037,1.653-1.6128.2712-5.1121.2712-5.1121C48.7924,99.8431,45.4218,93.8153,45.4218,93.8153Z"/><path class="cls-26" d="M136.003,93.8153c1.7844.22-1.6866-6.93-1.6866-6.93,1.0219.1128-1.8035-4.3345-1.8035-4.3345.6455-.2192-3.2062-7.0292-3.2062-7.0292s-4.17,6.8125-3.5234,7.03c-.0133.0157-2.8282,4.4466-1.8063,4.3338a40.1313,40.1313,0,0,0-2.2819,5.3371,33.6629,33.6629,0,0,0-2.0664-5.3371c1.022.1128-1.8035-4.3345-1.8035-4.3345.6456-.2192-3.2061-7.0292-3.2061-7.0292s-4.17,6.8125-3.5234,7.03c-.0133.0157-2.8282,4.4466-1.8063,4.3338,0,0-.8049,1.5682-1.4994,3.2156-.6264-1.6458-1.3884-3.2156-1.3884-3.2156,1.0219.1128-1.8035-4.3345-1.8035-4.3345.6455-.2192-3.2062-7.0292-3.2062-7.0292s-4.17,6.8125-3.5234,7.03c-.007.0082-.7877,1.2362-1.3787,2.3831-.5925-1.1511-1.3755-2.3838-1.3755-2.3838.6455-.2192-3.2062-7.0292-3.2062-7.0292s-4.17,6.8125-3.5234,7.03c-.0133.0157-2.8282,4.4466-1.8063,4.3338,0,0-.453.8829-.9722,2.0185-.4784-1.1352-.9069-2.0185-.9069-2.0185,1.0219.1128-1.8035-4.3345-1.8035-4.3345.6456-.2192-3.2062-7.0292-3.2062-7.0292s-4.17,6.8125-3.5233,7.03a29.85,29.85,0,0,0-1.7006,3.0463,30.5547,30.5547,0,0,0-1.6971-3.047c.6455-.2192-3.2062-7.0292-3.2062-7.0292s-4.17,6.8125-3.5233,7.03c-.007.0082-.7877,1.2362-1.3787,2.3831-.5926-1.1511-1.3756-2.3838-1.3756-2.3838.6455-.2192-3.2062-7.0292-3.2062-7.0292s-4.17,6.8125-3.5233,7.03c-.0133.0157-2.8282,4.4466-1.8063,4.3338,0,0-3.5758,6.9638-2.1555,6.9586-.7553.9928-3.2173,6.4749-1.6718,6.1213,0,0-1.2028,3.6424.3384,5.1462,1.2583,1.2276,1.6094.5024,1.7075.0037.0363.4442.3939,1.2206,2.2623,1.7922a9.6879,9.6879,0,0,0,2.8473-.0427c-.0986,1.15-.15,2.3029-.145,3.4583.0025.5566.0108,1.1154.0435,1.6712.0134.2285-.0115.53.1725.707.3209.3087.8517.2482,1.26.2547.4639.0074.9279.0066,1.3916-.0079.3678-.0115.8586.03,1.1464-.2471.1837-.177.1588-.4782.1722-.7067.0327-.5558.041-1.1146.0435-1.6712.0054-1.1929-.0513-2.3836-.1564-3.57a3.6967,3.6967,0,0,0,2.6022.1546c.0191-.0058.0344-.0122.0532-.0181.0188.0059.034.0123.0531.0181a9.6879,9.6879,0,0,0,2.8473-.0427c-.0986,1.15-.15,2.3029-.145,3.4583.0025.5566.0108,1.1154.0435,1.6712.0134.2285-.0115.53.1725.707.3209.3087.8517.2482,1.26.2547.4638.0074.9278.0066,1.3915-.0079.3678-.0115.8586.03,1.1464-.2471.1837-.177.1588-.4782.1722-.7067.0327-.5558.041-1.1146.0435-1.6712.0054-1.1929-.0513-2.3836-.1564-3.57a3.6967,3.6967,0,0,0,2.6022.1546c.1348-.0412.2554-.0843.3749-.1275.12.0432.24.0863.3748.1275a9.6879,9.6879,0,0,0,2.8473-.0427c-.0986,1.15-.15,2.3029-.145,3.4583.0025.5566.0108,1.1154.0435,1.6712.0134.2285-.0115.53.1725.707.3209.3087.8517.2482,1.26.2547.4639.0074.9279.0066,1.3916-.0079.3678-.0115.8586.03,1.1464-.2471.1837-.177.1588-.4782.1722-.7067.0327-.5558.041-1.1146.0435-1.6712.0054-1.1929-.0513-2.3836-.1564-3.57a3.6967,3.6967,0,0,0,2.6022.1546,5.438,5.438,0,0,0,1.4205-.6321,5.4349,5.4349,0,0,0,1.42.6321,9.6881,9.6881,0,0,0,2.8473-.0427c-.0986,1.15-.15,2.3029-.145,3.4583.0024.5566.0108,1.1154.0434,1.6712.0135.2285-.0114.53.1726.707.3209.3087.8517.2482,1.26.2547.4638.0074.9279.0066,1.3915-.0079.3678-.0115.8586.03,1.1464-.2471.1838-.177.1588-.4782.1723-.7067.0327-.5558.041-1.1146.0435-1.6712.0054-1.1929-.0513-2.3836-.1565-3.57a3.697,3.697,0,0,0,2.6023.1546c.0191-.0058.0343-.0122.0531-.0181.0188.0059.034.0123.0532.0181a9.6881,9.6881,0,0,0,2.8473-.0427c-.0986,1.15-.15,2.3029-.145,3.4583.0025.5566.0108,1.1154.0435,1.6712.0134.2285-.0115.53.1724.707.321.3087.8518.2482,1.26.2547.4638.0074.9279.0066,1.3916-.0079.3678-.0115.8585.03,1.1463-.2471.1838-.177.1589-.4782.1723-.7067.0327-.5558.041-1.1146.0435-1.6712.0054-1.1929-.0513-2.3836-.1565-3.57a3.697,3.697,0,0,0,2.6023.1546,4.0657,4.0657,0,0,0,1.9248-1.0575,4.0657,4.0657,0,0,0,1.9248,1.0575,9.6886,9.6886,0,0,0,2.8474-.0427c-.0986,1.15-.15,2.3029-.1451,3.4583.0025.5566.0108,1.1154.0435,1.6712.0135.2285-.0115.53.1725.707.321.3087.8518.2482,1.26.2547.4638.0074.9278.0066,1.3915-.0079.3678-.0115.8586.03,1.1464-.2471.1838-.177.1588-.4782.1723-.7067.0327-.5558.041-1.1146.0435-1.6712.0053-1.1929-.0514-2.3836-.1565-3.57a3.6969,3.6969,0,0,0,2.6023.1546,3.5922,3.5922,0,0,0,2.062-1.2387,2.1929,2.1929,0,0,0,1.186,0,3.5927,3.5927,0,0,0,2.0621,1.2387,9.6879,9.6879,0,0,0,2.8473-.0427c-.0986,1.15-.15,2.3029-.145,3.4583.0025.5566.0108,1.1154.0435,1.6712.0134.2285-.0115.53.1725.707.3209.3087.8517.2482,1.26.2547.4638.0074.9279.0066,1.3915-.0079.3679-.0115.8587.03,1.1464-.2471.1838-.177.1589-.4782.1723-.7067.0327-.5558.041-1.1146.0435-1.6712.0054-1.1929-.0513-2.3836-.1565-3.57a3.697,3.697,0,0,0,2.6023.1546c1.8683-.5716,2.226-1.3479,2.2623-1.7922.0981.4987.4492,1.2239,1.7074-.0037,1.653-1.6128.2712-5.1121.2712-5.1121C139.3736,99.8431,136.003,93.8153,136.003,93.8153ZM121.6072,93.76a.2829.2829,0,0,0,.2144.0837,4.2718,4.2718,0,0,0-.2661.4124c-.1473-.2744-.24-.4407-.24-.4407A.4246.4246,0,0,0,121.6072,93.76Z"/><path class="cls-27" d="M159.7385,93.8153c1.7844.22-1.6866-6.93-1.6866-6.93,1.0219.1128-1.8035-4.3345-1.8035-4.3345.6455-.2192-3.2062-7.0292-3.2062-7.0292s-4.17,6.8125-3.5233,7.03c-.0134.0157-2.8282,4.4466-1.8063,4.3338,0,0-3.5758,6.9638-2.1555,6.9586-.7553.9928-3.2173,6.4749-1.6718,6.1213,0,0-1.2028,3.6424.3384,5.1462,1.2582,1.2276,1.6094.5024,1.7075.0037.0363.4442.3938,1.2206,2.2623,1.7922a9.6879,9.6879,0,0,0,2.8473-.0427c-.0986,1.15-.15,2.3029-.145,3.4583.0025.5566.0108,1.1154.0435,1.6712.0134.2285-.0115.53.1725.707.3209.3087.8517.2482,1.26.2547.4638.0074.9279.0066,1.3916-.0079.3678-.0115.8586.03,1.1463-.2471.1838-.177.1589-.4782.1723-.7067.0327-.5558.041-1.1146.0435-1.6712.0054-1.1929-.0513-2.3836-.1564-3.57a3.6967,3.6967,0,0,0,2.6022.1546c1.8683-.5716,2.226-1.3479,2.2623-1.7922.0981.4987.4493,1.2239,1.7075-.0037,1.653-1.6128.2711-5.1121.2711-5.1121C163.1091,99.8431,159.7385,93.8153,159.7385,93.8153Z"/><path class="cls-28" d="M196.6822,99.999c1.2972-.1559-2.0734-6.1837-2.0734-6.1837,1.7844.22-1.6866-6.93-1.6866-6.93,1.0219.1128-1.8035-4.3345-1.8035-4.3345.6455-.2192-3.2062-7.0292-3.2062-7.0292s-4.17,6.8125-3.5233,7.03c-.0134.0157-2.8283,4.4466-1.8064,4.3338,0,0-1.1609,2.2619-1.897,4.2066a41.222,41.222,0,0,0-1.7429-4.2066c1.0219.1128-1.8035-4.3345-1.8035-4.3345.6455-.2192-3.2062-7.0292-3.2062-7.0292s-4.17,6.8125-3.5233,7.03c-.0133.0157-2.8282,4.4466-1.8063,4.3338,0,0-3.5758,6.9638-2.1555,6.9586-.7554.9928-3.2173,6.4749-1.6718,6.1213,0,0-1.2029,3.6424.3384,5.1462,1.2582,1.2276,1.6094.5024,1.7075.0037.0363.4443.3939,1.2206,2.2623,1.7922a9.6879,9.6879,0,0,0,2.8473-.0427c-.0986,1.15-.15,2.3029-.145,3.4583.0025.5566.0108,1.1154.0435,1.6712.0134.2285-.0115.53.1725.707.3209.3087.8517.2482,1.26.2547.4638.0074.9279.0066,1.3915-.0079.3679-.0115.8587.03,1.1464-.2471.1838-.177.1589-.4782.1723-.7067.0327-.5558.041-1.1146.0435-1.6712.0054-1.1929-.0513-2.3836-.1565-3.57a3.697,3.697,0,0,0,2.6023.1546,3.6454,3.6454,0,0,0,2.05-1.2189.284.284,0,1,1,.5021,0,3.6457,3.6457,0,0,0,2.05,1.2189,9.6879,9.6879,0,0,0,2.8473-.0427c-.0986,1.15-.15,2.3029-.145,3.4583.0025.5566.0108,1.1154.0435,1.6712.0134.2285-.0115.53.1725.707.3209.3087.8517.2482,1.26.2547.4638.0074.9279.0066,1.3915-.0079.3679-.0115.8587.03,1.1464-.2471.1838-.177.1589-.4782.1723-.7067.0327-.5558.041-1.1146.0435-1.6712.0054-1.1929-.0513-2.3836-.1565-3.57a3.697,3.697,0,0,0,2.6023.1546c1.8683-.5716,2.226-1.3479,2.2623-1.7922.0981.4987.4493,1.2239,1.7075-.0037C198.064,103.4983,196.6822,99.999,196.6822,99.999Z"/></g></mask><linearGradient id="linear-gradient-46" x1="20.1561" y1="68.6551" x2="20.1561" y2="207.2458" xlink:href="#linear-gradient-43"/><linearGradient id="linear-gradient-47" x1="38.5708" y1="68.6551" x2="38.5708" y2="207.2458" xlink:href="#linear-gradient-43"/><linearGradient id="linear-gradient-48" x1="75.0714" y1="68.6551" x2="75.0714" y2="207.2458" xlink:href="#linear-gradient-43"/><mask id="mask-4" x="-63.4201" y="85.4793" width="263.2562" height="31.3787" maskUnits="userSpaceOnUse"><g transform="translate(0.004 0.0038)"><path class="cls-29" d="M-48.5672,105.2114c1.0459-.1257-1.6718-4.9858-1.6718-4.9858,1.4387.1772-1.36-5.5878-1.36-5.5878.824.091-1.4541-3.4948-1.4541-3.4948.52-.1767-2.5851-5.6675-2.5851-5.6675S-59,90.9683-58.4789,91.1436c-.0107.0126-2.28,3.5852-1.4564,3.4942,0,0-2.883,5.6148-1.7379,5.6106-.609.8-2.594,5.2206-1.3479,4.9355,0,0-.97,2.9368.2729,4.1493,1.4055,1.3714,1.4074-.28,1.4074-.28s-.4362,1.0459,1.7933,1.728a7.814,7.814,0,0,0,2.2958-.0345c-.08.9268-.1212,1.8568-.117,2.7884.002.4488.0087.8993.0351,1.3475.0108.1842-.0093.427.1391.57.2587.249.6867.2,1.0157.2055.3739.0059.7481.0052,1.1219-.0064.2966-.0093.6923.0243.9243-.1992.1482-.1428.1281-.3856.1389-.57.0264-.4482.0331-.8987.0351-1.3475.0043-.9618-.0414-1.9218-.1261-2.8785a2.9808,2.9808,0,0,0,2.0981.1246c2.23-.6821,1.7933-1.728,1.7933-1.728s.0019,1.6514,1.4074.28C-47.4531,108.0328-48.5672,105.2114-48.5672,105.2114Z"/><path class="cls-30" d="M-31.7181,105.2114c1.0459-.1257-1.6717-4.9858-1.6717-4.9858,1.4386.1772-1.36-5.5878-1.36-5.5878.8239.091-1.4542-3.4948-1.4542-3.4948.52-.1767-2.585-5.6675-2.585-5.6675s-3.3624,5.4928-2.8408,5.6681c-.0108.0126-2.28,3.5852-1.4564,3.4942,0,0-2.8831,5.6148-1.7379,5.6106-.609.8-2.5941,5.2206-1.3479,4.9355,0,0-.97,2.9368.2728,4.1493,1.4056,1.3714,1.4074-.28,1.4074-.28s-.4362,1.0459,1.7933,1.728a7.814,7.814,0,0,0,2.2958-.0345c-.08.9268-.1212,1.8568-.117,2.7884.0021.4488.0088.8993.0351,1.3475.0108.1842-.0092.427.1391.57.2588.249.6867.2,1.0157.2055.374.0059.7481.0052,1.122-.0064.2965-.0093.6922.0243.9243-.1992.1482-.1428.128-.3856.1389-.57.0263-.4482.033-.8987.035-1.3475.0044-.9618-.0413-1.9218-.1261-2.8785a2.9809,2.9809,0,0,0,2.0981.1246c2.23-.6821,1.7933-1.728,1.7933-1.728s.0019,1.6514,1.4075.28C-30.604,108.0328-31.7181,105.2114-31.7181,105.2114Z"/><path class="cls-31" d="M-21.6814,105.2114c1.0459-.1257-1.6717-4.9858-1.6717-4.9858,1.4386.1772-1.36-5.5878-1.36-5.5878.824.091-1.4541-3.4948-1.4541-3.4948.5205-.1767-2.5851-5.6675-2.5851-5.6675s-3.3624,5.4928-2.8408,5.6681c-.0107.0126-2.28,3.5852-1.4563,3.4942,0,0-2.8831,5.6148-1.738,5.6106-.609.8-2.594,5.2206-1.3479,4.9355,0,0-.97,2.9368.2729,4.1493,1.4055,1.3714,1.4074-.28,1.4074-.28s-.4362,1.0459,1.7933,1.728a7.814,7.814,0,0,0,2.2958-.0345c-.0795.9268-.1212,1.8568-.117,2.7884.002.4488.0087.8993.0351,1.3475.0108.1842-.0093.427.1391.57.2587.249.6867.2,1.0157.2055.374.0059.7481.0052,1.122-.0064.2965-.0093.6922.0243.9243-.1992.1481-.1428.128-.3856.1389-.57.0263-.4482.033-.8987.035-1.3475.0044-.9618-.0414-1.9218-.1261-2.8785a2.9808,2.9808,0,0,0,2.0981.1246c2.2295-.6821,1.7933-1.728,1.7933-1.728s.0019,1.6514,1.4075.28C-20.5673,108.0328-21.6814,105.2114-21.6814,105.2114Z"/><path class="cls-32" d="M13.261,105.2114c1.0459-.1257-1.6718-4.9858-1.6718-4.9858,1.4387.1772-1.36-5.5878-1.36-5.5878.824.091-1.4541-3.4948-1.4541-3.4948.5205-.1767-2.5851-5.6675-2.5851-5.6675s-3.3624,5.4928-2.8408,5.6681c-.0107.0126-2.28,3.5852-1.4564,3.4942,0,0-2.883,5.6148-1.7379,5.6106-.609.8-2.594,5.2206-1.3479,4.9355,0,0-.97,2.9368.2729,4.1493,1.4055,1.3714,1.4074-.28,1.4074-.28s-.4362,1.0459,1.7933,1.728a7.814,7.814,0,0,0,2.2958-.0345c-.08.9268-.1212,1.8568-.117,2.7884.002.4488.0087.8993.0351,1.3475.0108.1842-.0093.427.1391.57.2587.249.6867.2,1.0157.2055.3739.0059.7481.0052,1.1219-.0064.2966-.0093.6923.0243.9243-.1992.1482-.1428.1281-.3856.1389-.57.0264-.4482.0331-.8987.0351-1.3475.0043-.9618-.0414-1.9218-.1261-2.8785a2.9808,2.9808,0,0,0,2.0981.1246c2.23-.6821,1.7933-1.728,1.7933-1.728s.0019,1.6514,1.4074.28C14.3751,108.0328,13.261,105.2114,13.261,105.2114Z"/><path class="cls-33" d="M36.2127,105.2114c1.0459-.1257-1.6717-4.9858-1.6717-4.9858,1.4386.1772-1.36-5.5878-1.36-5.5878.8239.091-1.4542-3.4948-1.4542-3.4948.52-.1767-2.5851-5.6675-2.5851-5.6675s-3.3624,5.4928-2.8407,5.6681c-.0108.0126-2.28,3.5852-1.4564,3.4942,0,0-2.8831,5.6148-1.7379,5.6106-.6091.8-2.5941,5.2206-1.348,4.9355,0,0-.97,2.9368.2729,4.1493,1.4055,1.3714,1.4074-.28,1.4074-.28s-.4362,1.0459,1.7933,1.728a7.814,7.814,0,0,0,2.2958-.0345c-.0795.9268-.1212,1.8568-.117,2.7884.002.4488.0087.8993.0351,1.3475.0108.1842-.0093.427.1391.57.2587.249.6867.2,1.0157.2055.374.0059.7481.0052,1.122-.0064.2965-.0093.6922.0243.9243-.1992.1481-.1428.128-.3856.1389-.57.0263-.4482.033-.8987.035-1.3475.0044-.9618-.0413-1.9218-.1261-2.8785a2.9808,2.9808,0,0,0,2.0981.1246c2.2295-.6821,1.7933-1.728,1.7933-1.728s.0019,1.6514,1.4075.28C37.3268,108.0328,36.2127,105.2114,36.2127,105.2114Z"/><path class="cls-34" d="M51.5069,105.2114c1.0459-.1257-1.6717-4.9858-1.6717-4.9858,1.4386.1772-1.36-5.5878-1.36-5.5878.8239.091-1.4542-3.4948-1.4542-3.4948.5205-.1767-2.585-5.6675-2.585-5.6675s-3.3624,5.4928-2.8408,5.6681c-.0108.0126-2.28,3.5852-1.4564,3.4942,0,0-2.8831,5.6148-1.7379,5.6106-.609.8-2.5941,5.2206-1.3479,4.9355,0,0-.97,2.9368.2728,4.1493,1.4056,1.3714,1.4074-.28,1.4074-.28s-.4362,1.0459,1.7933,1.728a7.814,7.814,0,0,0,2.2958-.0345c-.08.9268-.1212,1.8568-.117,2.7884.0021.4488.0088.8993.0351,1.3475.0108.1842-.0093.427.1391.57.2587.249.6867.2,1.0157.2055.374.0059.7481.0052,1.122-.0064.2965-.0093.6922.0243.9243-.1992.1482-.1428.128-.3856.1389-.57.0263-.4482.033-.8987.035-1.3475.0044-.9618-.0413-1.9218-.1261-2.8785a2.9809,2.9809,0,0,0,2.0981.1246c2.23-.6821,1.7933-1.728,1.7933-1.728s.0019,1.6514,1.4075.28C52.621,108.0328,51.5069,105.2114,51.5069,105.2114Z"/><path class="cls-35" d="M124.5407,105.2114c1.0459-.1257-1.6718-4.9858-1.6718-4.9858,1.4387.1772-1.36-5.5878-1.36-5.5878.824.091-1.4541-3.4948-1.4541-3.4948.52-.1767-2.5851-5.6675-2.5851-5.6675s-3.3624,5.4928-2.8408,5.6681c-.0107.0126-2.28,3.5852-1.4564,3.4942,0,0-2.8831,5.6148-1.7379,5.6106-.609.8-2.594,5.2206-1.3479,4.9355,0,0-.97,2.9368.2729,4.1493,1.4055,1.3714,1.4073-.28,1.4073-.28s-.4361,1.0459,1.7934,1.728a7.8131,7.8131,0,0,0,2.2957-.0345c-.0795.9268-.1211,1.8568-.1169,2.7884.002.4488.0087.8993.0351,1.3475.0108.1842-.0093.427.139.57.2588.249.6868.2,1.0158.2055.3739.0059.7481.0052,1.1219-.0064.2966-.0093.6923.0243.9243-.1992.1482-.1428.1281-.3856.1389-.57.0264-.4482.0331-.8987.0351-1.3475.0043-.9618-.0414-1.9218-.1262-2.8785a2.9811,2.9811,0,0,0,2.0982.1246c2.23-.6821,1.7933-1.728,1.7933-1.728s.0018,1.6514,1.4074.28C125.6548,108.0328,124.5407,105.2114,124.5407,105.2114Z"/><path class="cls-36" d="M143.6781,105.2114c1.0459-.1257-1.6717-4.9858-1.6717-4.9858,1.4386.1772-1.36-5.5878-1.36-5.5878.8239.091-1.4542-3.4948-1.4542-3.4948.52-.1767-2.585-5.6675-2.585-5.6675s-3.3625,5.4928-2.8408,5.6681c-.0108.0126-2.28,3.5852-1.4564,3.4942,0,0-2.8831,5.6148-1.7379,5.6106-.609.8-2.5941,5.2206-1.348,4.9355,0,0-.97,2.9368.2729,4.1493,1.4055,1.3714,1.4074-.28,1.4074-.28s-.4362,1.0459,1.7933,1.728a7.814,7.814,0,0,0,2.2958-.0345c-.0795.9268-.1212,1.8568-.117,2.7884.002.4488.0088.8993.0351,1.3475.0108.1842-.0093.427.1391.57.2587.249.6867.2,1.0157.2055.374.0059.7481.0052,1.122-.0064.2965-.0093.6922.0243.9243-.1992.1482-.1428.128-.3856.1389-.57.0263-.4482.033-.8987.035-1.3475.0044-.9618-.0413-1.9218-.1261-2.8785a2.9809,2.9809,0,0,0,2.0981.1246c2.23-.6821,1.7933-1.728,1.7933-1.728s.0019,1.6514,1.4075.28C144.7922,108.0328,143.6781,105.2114,143.6781,105.2114Z"/><path class="cls-37" d="M160.5221,105.2114c1.0459-.1257-1.6718-4.9858-1.6718-4.9858,1.4387.1772-1.36-5.5878-1.36-5.5878.824.091-1.4541-3.4948-1.4541-3.4948.52-.1767-2.5851-5.6675-2.5851-5.6675s-3.3624,5.4928-2.8408,5.6681c-.0107.0126-2.28,3.5852-1.4564,3.4942,0,0-2.883,5.6148-1.7379,5.6106-.609.8-2.594,5.2206-1.3479,4.9355,0,0-.97,2.9368.2729,4.1493,1.4055,1.3714,1.4074-.28,1.4074-.28s-.4362,1.0459,1.7933,1.728a7.814,7.814,0,0,0,2.2958-.0345c-.0795.9268-.1212,1.8568-.117,2.7884.002.4488.0087.8993.0351,1.3475.0108.1842-.0093.427.1391.57.2587.249.6867.2,1.0157.2055.3739.0059.7481.0052,1.1219-.0064.2966-.0093.6923.0243.9243-.1992.1482-.1428.1281-.3856.1389-.57.0264-.4482.0331-.8987.0351-1.3475.0043-.9618-.0414-1.9218-.1261-2.8785a2.9808,2.9808,0,0,0,2.0981.1246c2.23-.6821,1.7933-1.728,1.7933-1.728s.0019,1.6514,1.4074.28C161.6362,108.0328,160.5221,105.2114,160.5221,105.2114Z"/><path class="cls-38" d="M181.1386,105.2114c1.0459-.1257-1.6718-4.9858-1.6718-4.9858,1.4387.1772-1.36-5.5878-1.36-5.5878.824.091-1.4541-3.4948-1.4541-3.4948.52-.1767-2.5851-5.6675-2.5851-5.6675s-3.3624,5.4928-2.8408,5.6681c-.0107.0126-2.28,3.5852-1.4564,3.4942,0,0-2.8831,5.6148-1.7379,5.6106-.609.8-2.594,5.2206-1.3479,4.9355,0,0-.97,2.9368.2729,4.1493,1.4055,1.3714,1.4073-.28,1.4073-.28s-.4361,1.0459,1.7934,1.728a7.8131,7.8131,0,0,0,2.2957-.0345c-.0795.9268-.1211,1.8568-.1169,2.7884.002.4488.0087.8993.0351,1.3475.0108.1842-.0093.427.139.57.2588.249.6868.2,1.0158.2055.3739.0059.7481.0052,1.1219-.0064.2966-.0093.6923.0243.9243-.1992.1482-.1428.1281-.3856.1389-.57.0264-.4482.0331-.8987.0351-1.3475.0043-.9618-.0414-1.9218-.1262-2.8785a2.9811,2.9811,0,0,0,2.0982.1246c2.23-.6821,1.7933-1.728,1.7933-1.728s.0018,1.6514,1.4074.28C182.2527,108.0328,181.1386,105.2114,181.1386,105.2114Z"/><path class="cls-39" d="M199.3958,105.2114c1.0459-.1257-1.6717-4.9858-1.6717-4.9858,1.4387.1772-1.36-5.5878-1.36-5.5878.8239.091-1.4542-3.4948-1.4542-3.4948.52-.1767-2.585-5.6675-2.585-5.6675s-3.3624,5.4928-2.8408,5.6681c-.0108.0126-2.28,3.5852-1.4564,3.4942,0,0-2.8831,5.6148-1.7379,5.6106-.609.8-2.5941,5.2206-1.3479,4.9355,0,0-.97,2.9368.2728,4.1493,1.4056,1.3714,1.4074-.28,1.4074-.28s-.4362,1.0459,1.7933,1.728a7.8138,7.8138,0,0,0,2.2958-.0345c-.0795.9268-.1211,1.8568-.1169,2.7884.002.4488.0087.8993.035,1.3475.0108.1842-.0092.427.1391.57.2588.249.6867.2,1.0157.2055.374.0059.7481.0052,1.122-.0064.2965-.0093.6923.0243.9243-.1992.1482-.1428.128-.3856.1389-.57.0264-.4482.033-.8987.035-1.3475.0044-.9618-.0413-1.9218-.1261-2.8785a2.9811,2.9811,0,0,0,2.0982.1246c2.23-.6821,1.7932-1.728,1.7932-1.728s.0019,1.6514,1.4075.28C200.51,108.0328,199.3958,105.2114,199.3958,105.2114Z"/><path class="cls-40" d="M102.0335,105.2114c1.0459-.1257-1.6717-4.9858-1.6717-4.9858,1.4387.1772-1.36-5.5878-1.36-5.5878.8239.091-1.4541-3.4948-1.4541-3.4948.52-.1767-2.5851-5.6675-2.5851-5.6675S91.6,90.9683,92.1219,91.1436c-.0107.0126-2.28,3.5852-1.4564,3.4942,0,0-2.8831,5.6148-1.7379,5.6106-.609.8-2.594,5.2206-1.3479,4.9355,0,0-.97,2.9368.2728,4.1493,1.4056,1.3714,1.4074-.28,1.4074-.28s-.4362,1.0459,1.7934,1.728a7.8133,7.8133,0,0,0,2.2957-.0345c-.08.9268-.1211,1.8568-.1169,2.7884.002.4488.0087.8993.035,1.3475.0109.1842-.0092.427.1391.57.2588.249.6868.2,1.0157.2055.374.0059.7481.0052,1.122-.0064.2966-.0093.6923.0243.9243-.1992.1482-.1428.1281-.3856.1389-.57.0264-.4482.0331-.8987.0351-1.3475.0043-.9618-.0414-1.9218-.1262-2.8785a2.9811,2.9811,0,0,0,2.0982.1246c2.23-.6821,1.7932-1.728,1.7932-1.728s.0019,1.6514,1.4075.28C103.1477,108.0328,102.0335,105.2114,102.0335,105.2114Z"/><path class="cls-41" d="M72.5468,105.2114c1.0459-.1257-1.6717-4.9858-1.6717-4.9858,1.4386.1772-1.36-5.5878-1.36-5.5878.8239.091-1.4542-3.4948-1.4542-3.4948.52-.1767-2.585-5.6675-2.585-5.6675s-3.3624,5.4928-2.8408,5.6681c-.0108.0126-2.28,3.5852-1.4564,3.4942,0,0-2.8831,5.6148-1.7379,5.6106-.609.8-2.5941,5.2206-1.3479,4.9355,0,0-.97,2.9368.2728,4.1493,1.4056,1.3714,1.4074-.28,1.4074-.28s-.4362,1.0459,1.7933,1.728a7.814,7.814,0,0,0,2.2958-.0345c-.0795.9268-.1212,1.8568-.117,2.7884.0021.4488.0088.8993.0351,1.3475.0108.1842-.0093.427.1391.57.2587.249.6867.2,1.0157.2055.374.0059.7481.0052,1.122-.0064.2965-.0093.6922.0243.9243-.1992.1482-.1428.128-.3856.1389-.57.0263-.4482.033-.8987.035-1.3475.0044-.9618-.0413-1.9218-.1261-2.8785a2.9809,2.9809,0,0,0,2.0981.1246c2.23-.6821,1.7933-1.728,1.7933-1.728s.0019,1.6514,1.4075.28C73.6609,108.0328,72.5468,105.2114,72.5468,105.2114Z"/><path class="cls-42" d="M64.9,105.2114c1.0459-.1257-1.6717-4.9858-1.6717-4.9858,1.4386.1772-1.36-5.5878-1.36-5.5878.8239.091-1.4542-3.4948-1.4542-3.4948.52-.1767-2.585-5.6675-2.585-5.6675s-3.3624,5.4928-2.8408,5.6681c-.0108.0126-2.28,3.5852-1.4564,3.4942,0,0-2.8831,5.6148-1.7379,5.6106-.609.8-2.5941,5.2206-1.3479,4.9355,0,0-.97,2.9368.2728,4.1493,1.4056,1.3714,1.4074-.28,1.4074-.28s-.4362,1.0459,1.7933,1.728a7.814,7.814,0,0,0,2.2958-.0345c-.0795.9268-.1212,1.8568-.117,2.7884.0021.4488.0088.8993.0351,1.3475.0108.1842-.0092.427.1391.57.2588.249.6867.2,1.0157.2055.374.0059.7481.0052,1.122-.0064.2965-.0093.6922.0243.9243-.1992.1482-.1428.128-.3856.1389-.57.0263-.4482.033-.8987.035-1.3475.0044-.9618-.0413-1.9218-.1261-2.8785a2.9809,2.9809,0,0,0,2.0981.1246c2.23-.6821,1.7933-1.728,1.7933-1.728s.0019,1.6514,1.4075.28C66.0143,108.0328,64.9,105.2114,64.9,105.2114Z"/></g></mask><linearGradient id="linear-gradient-49" x1="29.5072" y1="88.8396" x2="29.5072" y2="153.4627" xlink:href="#linear-gradient-43"/><linearGradient id="linear-gradient-50" x1="44.3369" y1="88.6525" x2="44.3369" y2="154.1346" xlink:href="#linear-gradient-43"/><linearGradient id="linear-gradient-51" x1="93.967" y1="88.717" x2="93.967" y2="155.5283" xlink:href="#linear-gradient-43"/><linearGradient id="linear-gradient-52" x1="65.2381" y1="88.6525" x2="65.2381" y2="154.1346" xlink:href="#linear-gradient-43"/><linearGradient id="linear-gradient-53" x1="57.6876" y1="89.1606" x2="57.6876" y2="165.1135" xlink:href="#linear-gradient-43"/></defs><title>ethdenver</title><g id="Layer_63" data-name="Layer 63"><polygon class="cls-44" points="110.85 32 110.85 96 55.43 128 11.08 102.4 10.88 102.28 0 96 0 32 55.43 0 110.85 32"/></g><g id="Layer_63-2" data-name="Layer 63"><polygon class="cls-45" points="101.439 37.434 101.439 90.566 55.429 117.133 9.411 90.566 9.411 37.434 55.429 10.867 101.439 37.434"/><polygon class="cls-45" points="101.439 37.434 101.439 90.566 55.429 117.133 9.411 90.566 9.411 37.434 55.429 10.867 101.439 37.434"/><polygon class="cls-46" points="101.439 37.434 101.439 90.566 55.429 117.133 9.411 90.566 9.411 37.434 55.429 10.867 101.439 37.434"/></g><g class="cls-47"><polygon class="cls-48" points="55.545 115.005 11.365 89.505 11.365 38.495 55.545 12.985 99.725 38.495 99.725 89.505 55.545 115.005"/><polygon class="cls-49" points="55.545 12.985 11.365 38.495 11.365 89.505 55.545 115.005 99.725 89.505 99.725 38.495 55.545 12.985"/><g class="cls-50"><path class="cls-51" d="M3.9529,84.4375C9.8317,91.3448,14.68,97.1517,23.4881,99.316c8.5758,2.1071,17.7175.3668,26.34,2.2749,3.4217.7573,6.8587,2.1893,9.0762,4.9028s2.8441,6.936.71,9.7154c-1.4866,1.9359-3.8414,3.8494-6.2642,3.553C31.62,117.1042,40.9613,108.27,16.9529,99.7708c-.9857-.3489-14.426-4.7545-13.6666-8.3333C3.8457,88.801-1.9258,77.53,3.9529,84.4375Z" transform="translate(0.004 0.0038)"/><path class="cls-52" d="M106.6185,51.7723a36.7355,36.7355,0,0,0-14.1758-7.3339c-8.5758-2.1071-17.7174-.3668-26.34-2.2749-3.4216-.7573-6.8586-2.1893-9.0762-4.9029s-2.8441-6.9359-.71-9.7153c1.4866-1.9359,3.9335-2.8283,6.2642-3.553A117.2532,117.2532,0,0,1,78.1526,20.3C98.001,16.9983,109.5,54.0924,106.6185,51.7723Z" transform="translate(0.004 0.0038)"/><path class="cls-53" d="M72.1666,92.7385a11.554,11.554,0,0,0-3.1914,4.3739,4.7193,4.7193,0,0,0,1.0269,5.0463,5.4323,5.4323,0,0,0,2.1856,1.0521,11.5261,11.5261,0,0,0,5.9959-.0137,7.4615,7.4615,0,0,1,2.5826-.4883c2.313.2073,3.3957,2.945,5.2755,4.3086a5.9545,5.9545,0,0,0,7.2326-.67,8.7963,8.7963,0,0,0,2.5624-7.144c-.338-4.75-4-12.1665-9.2538-13.0786C81.5141,85.2447,75.56,89.4993,72.1666,92.7385Z" transform="translate(0.004 0.0038)"/><path class="cls-54" d="M7.8762,21.39A14.4905,14.4905,0,0,0,3.8738,26.875c-.7466,2.16-.4383,4.83,1.2879,6.3287a6.8131,6.8131,0,0,0,2.741,1.3194,14.4541,14.4541,0,0,0,7.52-.0172,9.3593,9.3593,0,0,1,3.2389-.6123c2.9007.26,4.2585,3.6933,6.616,5.4034,2.6589,1.9287,6.6318,1.36,9.07-.84a11.0323,11.0323,0,0,0,3.2136-8.96c-.4239-5.9566-5.0167-15.258-11.6052-16.4018C19.599,11.9917,12.1322,17.3274,7.8762,21.39Z" transform="translate(0.004 0.0038)"/><path class="cls-55" d="M85.265,42.6821A6.3432,6.3432,0,0,0,87.96,40.641a3.0834,3.0834,0,0,0,.2693-3.23c-1.3457-2.2654-5.4987-1.5618-6.5593.6352C80.5318,40.4042,82.5192,43.9288,85.265,42.6821Z" transform="translate(0.004 0.0038)"/></g></g><path class="cls-56" d="M11.2863,75.4579,64.4694,18.566a41.9112,41.9112,0,0,1,8.9567,26.11c0,22.293-16.8965,40.3631-37.7317,40.3631A36.1717,36.1717,0,0,1,11.2863,75.4579Z" transform="translate(0.004 0.0038)"/><path class="cls-57" d="M39.79,106.1633a4.9974,4.9974,0,0,1,2.6865.6235c2.5809,1.38,5.3613,2.415,7.8219,4.0131a18.0707,18.0707,0,0,1,3.448,2.8434c.3176.3411.6183.6973.935,1.0393a32.936,32.936,0,0,0,3.7033-46.3365L27.743,98.9878c3.9007,2.07,7.4926,4.6417,11.4,6.799C39.3593,105.9061,39.5743,106.04,39.79,106.1633Z" transform="translate(0.004 0.0038)"/><path class="cls-58" d="M93.3473,60.0126,57.88,95.48A25.164,25.164,0,0,1,93.3473,60.0126Z" transform="translate(0.004 0.0038)"/><g class="cls-59"><path class="cls-60" d="M72.5638,105.6831C81.41,99.219,90.1928,94.9107,99.721,89.5012l-.2681-41.397c-9.0238,3.637-25.4961,38.016-36.7144,61.5028,2.2571-.9272,4.5326-1.8152,6.7967-2.7044Q71.054,106.3061,72.5638,105.6831Z" transform="translate(0.004 0.0038)"/><path class="cls-61" d="M44.9948,108.886C35.17,89.5249,21.2446,63.849,11.62,53.4846V89.6622c10.0779,4.2573,19.175,10.1711,27.9987,16.5455Q42.3607,107.4373,44.9948,108.886Z" transform="translate(0.004 0.0038)"/></g><g class="cls-62"><path class="cls-63" d="M60.0158,95.2814c1.2971-.1559-2.0734-6.1837-2.0734-6.1837,1.7843.22-1.6867-6.93-1.6867-6.93,1.0219.1128-1.8035-4.3345-1.8035-4.3345.6455-.2192-3.2062-7.0292-3.2062-7.0292s-4.17,6.8125-3.5233,7.03c-.0133.0157-2.8282,4.4466-1.8063,4.3338,0,0-3.5758,6.9638-2.1555,6.9586-.7553.9928-3.2173,6.4749-1.6718,6.1213,0,0-1.2028,3.6424.3385,5.1462,1.7432,1.7009,1.7455-.3473,1.7455-.3473s-.541,1.2972,2.2242,2.1432a9.6915,9.6915,0,0,0,2.8473-.0427c-.0986,1.15-.15,2.3029-.145,3.4583.0025.5566.0108,1.1154.0435,1.6712.0134.2285-.0115.53.1725.707.3209.3087.8517.2482,1.26.2547.4639.0074.9279.0065,1.3916-.0079.3678-.0115.8586.03,1.1464-.2471.1837-.177.1588-.4782.1722-.7067.0327-.5558.041-1.1146.0435-1.6712.0054-1.1929-.0513-2.3836-.1564-3.57a3.6972,3.6972,0,0,0,2.6022.1546c2.7652-.846,2.2242-2.1432,2.2242-2.1432s.0023,2.0482,1.7456.3473C61.3976,98.7807,60.0158,95.2814,60.0158,95.2814Z" transform="translate(0.004 0.0038)"/></g><g class="cls-64"><path class="cls-65" d="M28.6925,98.7591a30.575,30.575,0,0,0-2.24-4.9438c1.7843.22-1.6867-6.93-1.6867-6.93,1.022.1129-1.8034-4.3344-1.8034-4.3344.6455-.2192-3.2062-7.0292-3.2062-7.0292s-4.17,6.8125-3.5233,7.03c-.007.0082-.7877,1.2361-1.3788,2.383-.5925-1.151-1.3756-2.3837-1.3756-2.3837.3836-.13-.8189-2.5826-1.8593-4.5553v11.667C17.6082,92.192,22.7863,96.4375,28.6925,98.7591Z" transform="translate(0.004 0.0038)"/><path class="cls-66" d="M39.5977,106.1987c.53.2374,1.054.486,1.578.735a3.6369,3.6369,0,0,0,2.0786-.0267c1.8683-.5716,2.2259-1.3479,2.2622-1.7922.0981.4987.4493,1.2239,1.7075-.0037,1.653-1.6128.2712-5.1122.2712-5.1122,1.2972-.1558-2.0734-6.1836-2.0734-6.1836,1.7843.22-1.6866-6.93-1.6866-6.93,1.0219.1129-1.8036-4.3344-1.8036-4.3344.6456-.2192-3.2061-7.0292-3.2061-7.0292s-4.17,6.8125-3.5234,7.03c-.0133.0156-2.8282,4.4466-1.8063,4.3337,0,0-3.5758,6.9639-2.1554,6.9587a17.1912,17.1912,0,0,0-2.135,5.1732C32.6729,101.2927,36.1553,103.7119,39.5977,106.1987Z" transform="translate(0.004 0.0038)"/><path class="cls-67" d="M67.5072,107.6984q1.0148-.3986,2.028-.7958,1.5188-.5966,3.0286-1.22C81.9529,99.4375,89.62,95.9375,99.721,89.5012L99.62,77.4375c-1.1853,2.0343-2.1769,4.9706-1.7511,5.1137-.0069.0082-.7876,1.2361-1.3787,2.383-.5925-1.151-1.3755-2.3837-1.3755-2.3837.6455-.2192-3.2062-7.0292-3.2062-7.0292s-4.17,6.8125-3.5233,7.03c-.0134.0156-2.8283,4.4466-1.8064,4.3337,0,0-.453.883-.9723,2.0186-.4783-1.1352-.9068-2.0186-.9068-2.0186,1.022.1129-1.8035-4.3344-1.8035-4.3344.6455-.2192-3.2062-7.0292-3.2062-7.0292s-4.17,6.8125-3.5233,7.03a29.85,29.85,0,0,0-1.7006,3.0463,30.5547,30.5547,0,0,0-1.6971-3.047c.6455-.2192-3.2062-7.0292-3.2062-7.0292s-4.17,6.8125-3.5233,7.03c-.007.0082-.7877,1.2361-1.3787,2.383-.5926-1.151-1.3756-2.3837-1.3756-2.3837.6456-.2192-3.2062-7.0292-3.2062-7.0292s-4.17,6.8125-3.5233,7.03c-.0134.0156-2.8282,4.4466-1.8063,4.3337,0,0-3.5758,6.9639-2.1555,6.9587-.7553.9928-3.2173,6.4749-1.6718,6.1213,0,0-1.2028,3.6424.3384,5.1462,1.2583,1.2276,1.6094.5023,1.7075.0036.0362.4443.3938,1.2207,2.2623,1.7923a9.6877,9.6877,0,0,0,2.8474-.0428c-.0987,1.15-.15,2.303-.1451,3.4584.002.4458.0159.8925.0348,1.3383,1.3808-.63,2.7788-1.23,4.1849-1.8128-.0094-1.034-.0556-2.0666-.1467-3.0957a3.6967,3.6967,0,0,0,2.6022.1546c.0191-.0058.0344-.0122.0532-.0181.0188.0059.034.0123.0531.0181a9.6868,9.6868,0,0,0,2.8473-.0428C67.5372,107.1419,67.5254,107.42,67.5072,107.6984Z" transform="translate(0.004 0.0038)"/></g><g class="cls-68"><path class="cls-69" d="M23.8952,94.8666s-.3.586-.6672,1.3767c4.1206,2.4061,8.6391,4.7816,12.5583,7.5275a12.57,12.57,0,0,0-2.1948-3.3164c1.4387.1771-1.36-5.5878-1.36-5.5878.8239.0909-1.4541-3.4948-1.4541-3.4948.52-.1768-2.5851-5.6675-2.5851-5.6675s-3.3624,5.4928-2.8408,5.6681C25.3409,91.385,23.0713,94.9575,23.8952,94.8666Z" transform="translate(0.004 0.0038)"/><path class="cls-70" d="M39.5735,106.1883a71.155,71.155,0,0,1,8.6038,4.5612c1.4247-.4587,1.7071-1.0662,1.7346-1.4161.0781.4022.3589.9926,1.3764,0,1.3327-1.3.2186-4.1219.2186-4.1219,1.0459-.1256-1.6717-4.9857-1.6717-4.9857,1.4387.1772-1.36-5.5878-1.36-5.5878.8239.0909-1.4542-3.4948-1.4542-3.4948.5205-.1767-2.5851-5.6675-2.5851-5.6675s-3.3623,5.4928-2.8407,5.6681c-.0108.0126-2.28,3.5851-1.4564,3.4942,0,0-2.8831,5.6148-1.738,5.6106a14.5145,14.5145,0,0,0-1.67,3.896C37.6841,104.816,38.6273,105.5047,39.5735,106.1883Z" transform="translate(0.004 0.0038)"/><path class="cls-71" d="M90.7158,93.6828q3.2294-1.9556,6.5025-3.84c-.7334-1.6744-2.2556-4.3673-2.2556-4.3673S91.6,90.9683,92.1219,91.1436C92.2485,91.7218,91.6109,94.559,90.7158,93.6828Z" transform="translate(0.004 0.0038)"/><path class="cls-72" d="M72.5673,105.6805c.0368-.027-.4845-1.2161-.4477-1.243-.0727-.2381.4272.7738.4272.7738,1.0459-.1256-1.6717-4.9857-1.6717-4.9857,1.4386.1772-1.36-5.5878-1.36-5.5878.824.0909-1.4541-3.4948-1.4541-3.4948.52-.1767-2.585-5.6675-2.585-5.6675s-3.3625,5.4928-2.8408,5.6681c-.0108.0126-2.28,3.5851-1.4564,3.4942,0,0-2.8831,5.6148-1.7379,5.6106-.6091.8-2.5941,5.2206-1.3479,4.9355,0,0-.97,2.9368.2728,4.1493,1.0174.9926,1.2982.4026,1.3763,0,.0219.2773.2047.7161.9862,1.1151,2.9106-1.241,5.8684-2.392,8.8069-3.546Q71.0559,106.3053,72.5673,105.6805Z" transform="translate(0.004 0.0038)"/><path class="cls-73" d="M50.4463,108.3353s-.97,3.4065.2729,4.8128c1.0174,1.1514,1.2982.467,1.3763,0,.0282.415.3145,1.1433,1.8244,1.6792a6.7516,6.7516,0,0,0,2.2958-.04c-.0508.6873-.08,1.3766-.0974,2.0665,1.0845-.6068,2.1828-1.1863,3.2887-1.75-.0094-.14-.0136-.281-.0243-.4212a3.0084,3.0084,0,0,0,.4759.1884c1.14-.5746,2.2886-1.1289,3.4413-1.6735.0019-.0167.0042-.0338.0053-.05l.0075.0435q.9075-.4286,1.8175-.8491a7.4752,7.4752,0,0,0-.23-3.9756c1.0459-.1457-1.6717-5.783-1.6717-5.783,1.4387.2055-1.36-6.4813-1.36-6.4813.8239.1055-1.4542-4.0536-1.4542-4.0536.52-.205-2.5851-6.5738-2.5851-6.5738S54.467,91.8466,54.9886,92.05c-.0108.0147-2.28,4.1585-1.4564,4.053,0,0-2.8831,6.5126-1.738,6.5077C51.1852,103.5391,49.2,108.666,50.4463,108.3353Z" transform="translate(0.004 0.0038)"/></g><path class="cls-74" d="M56.415,62.8638h-.0121c.0121.0121.0121.0121.0121,0" transform="translate(0.004 0.0038)"/><path class="cls-74" d="M72.9414,65.1157a18.7849,18.7849,0,0,1-9.9885,9.9885,18.5247,18.5247,0,0,1-6.1989,1.4407l9.1894-12.8821a.6376.6376,0,0,0-.8475-.92L55.64,68.53l-9.4558-5.4724a.6438.6438,0,0,0-.799.1211.6228.6228,0,0,0-.0364.799l9.1773,12.5673A18.4572,18.4572,0,0,1,48.34,75.1042a18.7852,18.7852,0,0,1-9.9884-9.9885,19.7763,19.7763,0,0,1-.7749-2.2035h.1816a.0445.0445,0,0,0,.0363-.0121c.0122,0,.0122,0,.0243-.0121.0121,0,.0242-.0121.0363-.0121h.0242l7.906-3.33-.4722.7385c0,.0121-.0121.0121-.0121.0242s-.0121.0243-.0121.0364-.0121.0121-.0121.0242-.0121.0242-.0121.0363a.0422.0422,0,0,1-.0121.0242c0,.0121-.0121.0242-.0121.0363s0,.0121-.0121.0243a.0445.0445,0,0,1-.0121.0363v.2058a.0445.0445,0,0,0,.0121.0363v.0242c0,.0121.0121.0243.0121.0364s.0121.0242.0121.0363a.0119.0119,0,0,0,.0121.0121V60.89a76771228839.4429,76771228839.4429,0,0,1,.0242.0484c0,.0121.0121.0121.0121.0242.0121.0121.0121.0243.0242.0243,0,.0121.0121.0121.0121.0242.0122.0121.0122.0242.0243.0242a.0119.0119,0,0,0,.0121.0121c.0121.0121.0121.0242.0242.0242a.0422.0422,0,0,0,.0242.0121c.0121.0121.0242.0121.0242.0242.0121,0,.0121.0121.0242.0121.0121.0122.0242.0122.0242.0243a.0119.0119,0,0,1,.0121.0121l9.7827,5.7751h.0121l.0726.0363a.1724.1724,0,0,0,.0727.0242h.0121c.0242,0,.0363.0122.0605.0122h.1937c.0242,0,.0364-.0122.0606-.0122h.0121c.0242-.0121.0484-.0121.0726-.0242l.0727-.0363h.0121l9.7826-5.7751.0121-.0121c.0121,0,.0121-.0121.0242-.0121a.171.171,0,0,0,.0485-.0364l.0121-.0121c.0242-.0121.0363-.0363.0605-.0605a.0422.0422,0,0,0,.0121-.0242.2632.2632,0,0,0,.0363-.0606l.0121-.0121.0364-.0726v-.0121a.0119.0119,0,0,1,.0121-.0121c0-.0121.0121-.0242.0121-.0364s.0121-.0242.0121-.0363v-.0242a.0445.0445,0,0,1,.0121-.0363v-.2058a.0448.0448,0,0,0-.0121-.0364c0-.0121,0-.0121-.0121-.0242,0-.0121-.0121-.0242-.0121-.0363A.0422.0422,0,0,0,65.98,60.37c0-.0121-.0122-.0242-.0122-.0363s-.0121-.0121-.0121-.0242-.0121-.0243-.0121-.0364-.0121-.0121-.0121-.0242l-.4722-.7385,7.9182,3.3416h.0121c.0121,0,.0121,0,.0242.0121.0121,0,.0363.0121.0484.0121h.0242c.0242,0,.0363.0121.0606.0121H73.68a14.1281,14.1281,0,0,1-.7385,2.2277M55.0106,75.0436l-6.8285-9.3588,6.8285,3.959Zm1.2834-5.4119,6.8042-4.1649L56.294,74.9952Zm7.41-18.04,1.2107-1.913,1.2349,1.9372-.1695.2421-.7022-.8354a.454.454,0,0,0-.3632-.1695h-.0121a.4648.4648,0,0,0-.3632.1816l-.6538.8233Zm.9686,6.4168-.109.0484-2.482-3.9106,1.0776-1.695.339.4721a.4482.4482,0,0,0,.3753.1938.4536.4536,0,0,0,.3753-.1816l.678-.86.7265.8718a.454.454,0,0,0,.3632.1695H66.04a.49.49,0,0,0,.3632-.2059l.2906-.4237,5.3393,8.4145-6.8648-2.8936a.5922.5922,0,0,0-.4964,0M56.294,62.9122V57.464l1.7192.7264,1.1986.5085,1.9251.8112,1.6465.69,1.235.5206L56.294,65.2852v-2.373ZM54.2115,48.6378l1.4408-2.2641,1.4529,2.3-.2664.3874-.8354-.9927a.49.49,0,0,0-.3632-.17.4645.4645,0,0,0-.3632.1816l-.7749.9807Zm-.5448.86.4359.6054a.4484.4484,0,0,0,.3753.1937.4536.4536,0,0,0,.3753-.1816l.7991-1.017.86,1.017a.4541.4541,0,0,0,.3632.1695h.0242a.49.49,0,0,0,.3633-.2058l.3874-.557,2.9178,4.6008.7507,1.1986,2.034,3.2205.4358.678-1.017-.4359L59.89,57.5729l-1.1986-.5085-2.8089-1.1865h0c-.0121,0-.0242-.0121-.0363-.0121s-.0363-.0121-.0484-.0121a.2667.2667,0,0,0-.0969-.0121h-.1452c-.0364,0-.0606.0121-.0969.0121-.0121,0-.0363.0121-.0484.0121s-.0242.0121-.0363.0121h0L52.565,57.0644l-1.1986.5085-2.8816,1.2107-1.017.4359.4359-.678,2.034-3.2205.7507-1.1986ZM45.1674,51.592l1.2108-1.913,1.2349,1.9372-.1695.2421-.7022-.8354a.4541.4541,0,0,0-.3632-.1695h-.0121a.4651.4651,0,0,0-.3633.1816l-.6537.8233Zm1.465,6.4168a.5922.5922,0,0,0-.4964,0l-6.8648,2.8936,5.3514-8.4508.339.4722a.4487.4487,0,0,0,.3753.1937.4539.4539,0,0,0,.3754-.1816l.678-.86.7264.8718a.4541.4541,0,0,0,.3632.1695h.0242a.49.49,0,0,0,.3633-.2059l.29-.4237,1.0534,1.6587-2.482,3.9106Zm.6538,2.7,1.2349-.5206,1.6466-.69,1.9251-.8112,1.1986-.5085,1.7192-.7264V65.261Zm-8.923-10.2064a18.7855,18.7855,0,0,1,9.9884-9.9884,18.78,18.78,0,0,1,14.6013,0,18.7852,18.7852,0,0,1,9.9885,9.9884,18.6006,18.6006,0,0,1,1.4771,7.3007,19.1911,19.1911,0,0,1-.3875,3.8379l-8.5719-13.5a.6513.6513,0,0,0-.5448-.3027.639.639,0,0,0-.5448.3027l-3.051,4.8066-5.1456-8.1119a.6677.6677,0,0,0-.5448-.3026.6387.6387,0,0,0-.5448.3026L49.9377,52.948l-3.051-4.8066a.6515.6515,0,0,0-.5449-.3027.639.639,0,0,0-.5448.3027l-8.56,13.5117a18.5176,18.5176,0,0,1-.3874-3.838,19.3181,19.3181,0,0,1,1.5134-7.3128M55.6523,37.7655a20.05,20.05,0,1,0,20.05,20.05,20.0509,20.0509,0,0,0-20.05-20.05" transform="translate(0.004 0.0038)"/><polygon class="cls-74" points="26.817 80.605 31.151 80.605 31.151 82.3 28.79 82.3 28.79 85.605 30.728 85.605 30.728 87.239 28.79 87.239 28.79 90.666 31.151 90.666 31.151 92.361 26.817 92.361 26.817 80.605"/><polygon class="cls-74" points="35.909 82.3 35.909 92.361 33.96 92.361 33.96 82.3 32.483 82.3 32.483 80.605 37.387 80.605 37.387 82.3 35.909 82.3"/><polygon class="cls-74" points="38.694 92.361 38.694 80.605 40.631 80.605 40.631 85.774 42.229 85.774 42.229 80.605 44.167 80.605 44.167 92.361 42.229 92.361 42.229 87.397 40.631 87.397 40.631 92.361 38.694 92.361"/><path class="cls-74" d="M49.6713,80.6008a1.5253,1.5253,0,0,1,1.6224,1.6224v8.5114a1.5253,1.5253,0,0,1-1.6224,1.6224H45.87V80.6008ZM49.32,82.5743a.2668.2668,0,0,0-.2784-.2784H47.8431V90.674h1.1987a.2668.2668,0,0,0,.2784-.2784Z" transform="translate(0.004 0.0038)"/><polygon class="cls-74" points="53.247 80.605 57.581 80.605 57.581 82.3 55.208 82.3 55.208 85.605 57.146 85.605 57.146 87.239 55.208 87.239 55.208 90.666 57.581 90.666 57.581 92.361 53.247 92.361 53.247 80.605"/><polygon class="cls-74" points="60.778 85.738 60.778 92.361 59.131 92.361 59.131 80.605 60.766 80.605 62.993 87.675 62.993 80.605 64.652 80.605 64.652 92.361 63.03 92.361 60.778 85.738"/><polygon class="cls-74" points="67.957 92.361 66.056 80.605 68.042 80.605 68.974 88.777 69.907 80.605 71.807 80.605 69.931 92.361 67.957 92.361"/><polygon class="cls-74" points="73.224 80.605 77.558 80.605 77.558 82.3 75.185 82.3 75.185 85.605 77.122 85.605 77.122 87.239 75.185 87.239 75.185 90.666 77.558 90.666 77.558 92.361 73.224 92.361 73.224 80.605"/><path class="cls-74" d="M81.7312,88.4342h-.6659V92.357H79.0919V80.6008h3.959a1.3351,1.3351,0,0,1,1.4166,1.4408v4.9519a1.3352,1.3352,0,0,1-.8718,1.356L84.48,92.357H82.5424Zm.8233-5.9688c0-.0848-.0726-.1695-.121-.1695H81.0774V86.824h1.3561c.0484,0,.121-.0848.121-.1574Z" transform="translate(0.004 0.0038)"/><path class="cls-46" d="M65.6509,47.4057c-.0373-.0526-.0783-.1061-.1224-.16l.2931-.0488a.0732.0732,0,1,0-.0241-.1444l-.2419.04.0516-.1214a.0732.0732,0,1,0-.1347-.0573l-.0757.1779a9.2821,9.2821,0,0,0-1.0586-.971c.1178-.0151.2347-.03.3493-.0453l.3211.3206.0108.0089a.0732.0732,0,0,0,.0926-.1125l-.2414-.2411c.3025-.04.5831-.0779.8162-.11l-.0871.2321a.0733.0733,0,0,0,.0276.0863l.0153.008a.0732.0732,0,0,0,.0942-.0429l.1057-.2819.24.1864.0041.0029a.0732.0732,0,0,0,.0858-.1185l-.1521-.1183c.1921-.0266.3088-.0431.3147-.0439a.0732.0732,0,1,0-.02-.145c-.0067.001-.1593.0225-.4043.0563l.0968-.258a.0732.0732,0,1,0-.1371-.0514l-.0944.2517-.26-.2018a.0732.0732,0,1,0-.09.1156l.23.1788c-.2288.0313-.5026.0683-.7974.1073l.1832-.2135a.0732.0732,0,1,0-.1111-.0954l-.2895.3375q-.1152.0151-.2329.03c.2772-.3793.49-.7107.6262-.9319l.1567.254a.0732.0732,0,0,0,.1246-.0768l-.1544-.25.259.0161a.0732.0732,0,0,0,.0091-.1461l-.2638-.0165c.0243-.0419.0373-.0655.0384-.0675a.0732.0732,0,0,0-.1283-.07c-.0011.0021-.0159.0287-.0432.0757l-.1213-.1966a.0732.0732,0,0,0-.1246.0768l.1016.1648-.2121-.0132a.0732.0732,0,0,0-.0092.1461l.25.0156c-.1464.2393-.3894.6169-.7095,1.046l-.0047.0006c-.0157-.1625-.0317-.323-.0475-.4777l.2467-.246a.0732.0732,0,1,0-.1034-.1036l-.1625.162c-.0264-.2545-.0515-.4875-.0726-.68l.169.1671.0106.0087a.0732.0732,0,0,0,.0924-.1127l-.2257-.2234.2286-.15a.0732.0732,0,0,0-.08-.1224l-.226.1483c-.0152-.1356-.0252-.2229-.0277-.2441a.0732.0732,0,1,0-.1454.0169l.0133.1162-.0663-.0656a.0732.0732,0,0,0-.103.1041l.1753.1734-.2539.1667a.073.073,0,0,0-.0211.1013.0708.0708,0,0,0,.02.0205.0731.0731,0,0,0,.0811,0l.2085-.1368c.0259.2342.0532.488.08.75l-.2765-.1314a.0732.0732,0,0,0-.0724.1268l.0095.0055.3569.1695c.0121.1185.0241.2378.0357.3572-.3836-.295-.7515-.5539-1.0171-.735l.3874-.1592a.0732.0732,0,0,0-.0557-.1354l-.4157.1708.0134-.3493a.0733.0733,0,1,0-.1464-.0056l-.0124.3242c-.0978-.0649-.16-.105-.1742-.114a.0733.0733,0,0,0-.079.1234c.0037.0023.0671.0431.1733.1139l-.2877.1181a.0732.0732,0,1,0,.0557.1354l.3022-.1241-.0121.3175a.0732.0732,0,1,0,.1463.0055l.0118-.3065c.2674.1828.6433.4478,1.034.7486-.1.0126-.2.025-.2986.0371l-.2788-.296a.0732.0732,0,0,0-.1065.1l.2048.2176c-.2358.0283-.4629.0545-.67.0768l.1183-.2627a.0732.0732,0,1,0-.1335-.06l-.099.22-.2284-.2425a.0732.0732,0,1,0-.1066.1l.2508.2662c-.1921.02-.3607.0345-.4942.0433a.0731.0731,0,0,0-.036.1337.0723.0723,0,0,0,.0456.0123c.1221-.008.2735-.0212.445-.0382l-.1319.2927a.0735.0735,0,0,0,.0257.0908l.011.0061a.0732.0732,0,0,0,.0968-.0367l.1658-.3682.272.2887.0124.0106a.0732.0732,0,0,0,.0942-.1109l-.1976-.21c.1874-.0207.3887-.044.5967-.0692l-.0887.2145a.0733.0733,0,0,0,.0267.0886l.013.007a.0731.0731,0,0,0,.0956-.04l.12-.2906c.1245-.0153.2505-.031.3766-.0469l.0012.0125a11.4319,11.4319,0,0,1-1.0388,1.179l-.0818-.3214a.0732.0732,0,1,0-.1418.0361l.0676.2655L62.585,47.24a.0732.0732,0,0,0-.0618.1308.0774.0774,0,0,0,.02.01l.3481.1033q-.0993.093-.2018.183a.0732.0732,0,0,0-.0068.1033l.0142.0125a.0733.0733,0,0,0,.0892-.0057q.0851-.0746.1679-.1515l.0584.23a.0732.0732,0,0,0,.1419-.0361l-.0708-.2784.3428.1018a.0732.0732,0,1,0,.0417-.14l-.2942-.0874a11.4558,11.4558,0,0,0,.9188-1.0348q.0129.1394.0245.2748l-.276.21a.0732.0732,0,0,0-.014.1026.0766.0766,0,0,0,.0173.0164.0734.0734,0,0,0,.0853-.0024l.2021-.1536c.019.2275.0351.4413.0472.6324l-.1533-.1531a.0732.0732,0,1,0-.1035.1036l.2464.246-.2332.2274a.0732.0732,0,0,0-.0013.1035l.0115.01a.0735.0735,0,0,0,.0921-.0084l.1606-.1565a2.2556,2.2556,0,0,1-.01.4389.0732.0732,0,1,0,.1427.0328,2.39,2.39,0,0,0,.0123-.4728l.124.1238.0108.009a.0732.0732,0,0,0,.0926-.1125l-.1937-.1936.2335-.2276a.0732.0732,0,0,0-.1022-.1049l-.1812.1766c-.0134-.2255-.0328-.4814-.0554-.7493l.2718.1834a.0733.0733,0,0,0,.0819-.1215l-.37-.2494c-.01-.1141-.02-.23-.0313-.3449a9.5945,9.5945,0,0,1,1.0216.9245l-.1339.0223a.0732.0732,0,1,0,.024.1444l.18-.03-.1391.3268a.0732.0732,0,0,0,.0264.0893l.0123.0067a.0731.0731,0,0,0,.096-.0387l.1267-.2976c.033.0416.0643.0827.0929.1231a.0706.0706,0,0,0,.0187.0183.0732.0732,0,0,0,.1007-.103Z" transform="translate(0.004 0.0038)"/><g class="cls-75"><circle class="cls-46" cx="53.79" cy="51.5816" r="0.4448"/><circle class="cls-46" cx="38.9837" cy="70.973" r="0.4448"/><circle class="cls-46" cx="77.1249" cy="30.7579" r="0.4448"/><circle class="cls-46" cx="96.4327" cy="77.5948" r="0.4448"/><circle class="cls-46" cx="87.0645" cy="50.8468" r="0.4448"/><circle class="cls-46" cx="62.6836" cy="32.4683" r="0.0968"/><circle class="cls-46" cx="42.8417" cy="53.0611" r="0.0968"/><circle class="cls-46" cx="60.9132" cy="18.9566" r="0.0968"/><circle class="cls-46" cx="72.461" cy="33.2737" r="0.0968"/><circle class="cls-46" cx="86.1727" cy="46.0798" r="0.0968"/><circle class="cls-46" cx="93.04" cy="83.5706" r="0.0968"/><circle class="cls-46" cx="92.2589" cy="42.5612" r="0.0968"/><circle class="cls-46" cx="23.4717" cy="54.5991" r="0.0968"/><circle class="cls-46" cx="36.3606" cy="78.8876" r="0.0968"/><circle class="cls-46" cx="45.2203" cy="64.783" r="0.0968"/><circle class="cls-46" cx="38.8869" cy="84.3584" r="0.0968"/><circle class="cls-46" cx="27.5399" cy="65.7319" r="0.0968"/><circle class="cls-46" cx="34.8983" cy="72.0932" r="0.0968"/><circle class="cls-46" cx="50.7462" cy="55.1661" r="0.0968"/><circle class="cls-46" cx="80.9691" cy="50.6532" r="0.0968"/><circle class="cls-46" cx="82.783" cy="30.8547" r="0.0968"/><circle class="cls-46" cx="85.0498" cy="63.5265" r="0.0968"/><circle class="cls-46" cx="91.9029" cy="66.9019" r="0.0968"/><circle class="cls-46" cx="98.3226" cy="83.6351" r="0.0968"/><circle class="cls-46" cx="78.4841" cy="60.3423" r="0.0968"/><circle class="cls-46" cx="86.8557" cy="58.115" r="0.0968"/><circle class="cls-46" cx="79.0772" cy="38.8015" r="0.0968"/><circle class="cls-46" cx="74.404" cy="49.6769" r="0.0968"/></g><g class="cls-75"><circle class="cls-46" cx="34.0832" cy="44.82" r="0.4448"/><circle class="cls-46" cx="58.9016" cy="22.2946" r="0.4448"/><circle class="cls-46" cx="50.2342" cy="33.054" r="0.4448"/><circle class="cls-46" cx="36.858" cy="32.1583" r="0.0968"/><circle class="cls-46" cx="30.6905" cy="50.7959" r="0.0968"/><circle class="cls-46" cx="45.0603" cy="53.3644" r="0.0968"/><circle class="cls-46" cx="29.5534" cy="34.1272" r="0.0968"/><circle class="cls-46" cx="38.0153" cy="40.3177" r="0.0968"/><circle class="cls-46" cx="44.0728" cy="25.437" r="0.0968"/><circle class="cls-46" cx="35.9731" cy="50.8604" r="0.0968"/><circle class="cls-46" cx="46.9333" cy="41.3703" r="0.0968"/><circle class="cls-46" cx="49.2686" cy="26.8168" r="0.0968"/></g><g class="cls-76"><circle class="cls-46" cx="29.5812" cy="50.4741" r="0.2817"/></g><g class="cls-76"><circle class="cls-46" cx="42.8185" cy="38.8602" r="0.2817"/><circle class="cls-46" cx="82.7212" cy="76.1276" r="0.2817"/><circle class="cls-46" cx="96.0372" cy="38.5785" r="0.2817"/><circle class="cls-46" cx="67.5781" cy="89.4367" r="0.2817"/><circle class="cls-46" cx="72.8566" cy="31.8205" r="0.2817"/><path class="cls-46" d="M60.3423,117.3479" transform="translate(0.004 0.0038)"/><circle class="cls-46" cx="62.0725" cy="54.9468" r="0.2817"/><circle class="cls-46" cx="48.4728" cy="86.5957" r="0.2817"/></g><path class="cls-46" d="M61.13,78.8548c.064-.007.1308-.0169.2-.0291l-.1.28a.0732.0732,0,1,0,.1379.0491l.0824-.231.081.1041a.0732.0732,0,1,0,.1155-.09l-.1187-.1526a9.2663,9.2663,0,0,0,1.363-.4536c-.0441.11-.0875.22-.13.3274l-.4362.1249-.0131.0051a.0733.0733,0,0,0,.0534.1357l.328-.0939c-.112.2838-.2152.5475-.3.7667l-.1606-.1888a.0733.0733,0,0,0-.0889-.0179l-.0143.01a.0733.0733,0,0,0-.0084.1032l.1951.2294-.2794.119-.0045.0021a.0732.0732,0,0,0,.0619.1326l.1772-.0755c-.07.1809-.1123.2909-.1145.2965a.0732.0732,0,0,0,.1367.0525c.0025-.0064.0577-.15.1472-.3808l.1786.21a.0732.0732,0,1,0,.1115-.0948l-.1742-.2048.3026-.1289a.0732.0732,0,0,0-.0574-.1347l-.2681.1142c.0838-.2152.1845-.4725.2936-.7491l.0977.2639a.0732.0732,0,1,0,.1373-.0509l-.1543-.417q.0428-.108.0866-.2182c.1969.4265.383.7739.51,1l-.2981.0136a.0732.0732,0,0,0,.0066.1463l.2937-.0134-.14.2184a.0732.0732,0,0,0,.1233.079l.1425-.2225c.0249.0415.0392.0644.04.0663a.0732.0732,0,1,0,.1239-.0779c-.0012-.002-.0173-.0278-.0451-.0745l.2307-.0105a.0732.0732,0,1,0-.0066-.1462l-.1934.0087.1146-.179a.0732.0732,0,0,0-.1232-.079l-.1352.211c-.1379-.2442-.35-.64-.5695-1.1283l.0017-.0044c.15.0652.2977.1292.4407.1906l.0951.3351a.0732.0732,0,1,0,.1408-.04l-.0627-.2207c.2353.1006.4511.1919.6294.2668l-.2281.0665-.0128.005a.0732.0732,0,0,0,.0536.1356l.3049-.0888.02.2726a.0732.0732,0,1,0,.146-.0107l-.02-.27c.1259.0526.2071.0863.2268.0944a.0732.0732,0,0,0,.0559-.1353l-.108-.0448.09-.0261a.0732.0732,0,1,0-.0409-.1406l-.2368.069-.0223-.303a.0731.0731,0,0,0-.0784-.0676.0719.0719,0,0,0-.0277.0077.0732.0732,0,0,0-.04.0707l.0183.2487c-.2172-.0911-.4523-.1906-.6943-.2941l.2492-.1779a.0732.0732,0,0,0-.0757-.1249l-.0094.0057-.3216.23c-.1094-.047-.22-.0945-.33-.1423.4442-.1921.8492-.3878,1.1366-.532l-.0491.4159a.0732.0732,0,0,0,.1453.0172l.0528-.4464.2988.1815a.0733.0733,0,0,0,.076-.1253l-.2774-.1684c.1043-.0539.17-.0889.1843-.0968a.0732.0732,0,0,0,.03-.0992.0724.0724,0,0,0-.0992-.03c-.0038.0021-.07.0377-.1837.0961l.0365-.3089a.0732.0732,0,1,0-.1454-.017l-.0383.3244-.2717-.1649a.0732.0732,0,0,0-.0759.1253l.2622.1592c-.29.1449-.7039.3448-1.1566.54.0375-.0935.0752-.1868.1126-.279l.3941-.1a.0732.0732,0,1,0-.036-.1419l-.29.0733c.09-.22.1772-.4311.2582-.6228l.1722.2311a.0732.0732,0,0,0,.1175-.0874l-.144-.1933.323-.0818a.0732.0732,0,1,0-.036-.1419l-.3545.09c.0763-.1773.1451-.332.2023-.4529a.0732.0732,0,1,0-.1323-.0626c-.0524.1106-.1143.2493-.1828.4076L63.37,76.44a.0735.0735,0,0,0-.0918-.0216l-.0107.0066a.0734.0734,0,0,0-.015.1025l.2413.3238-.3845.0975-.0152.0057a.0731.0731,0,0,0,.0512.1361l.2793-.0707c-.073.1738-.15.3612-.2294.5551l-.1443-.1817a.0734.0734,0,0,0-.09-.02l-.0124.008a.0731.0731,0,0,0-.0118.1028l.1957.2463c-.0472.1162-.0947.234-.142.3519l-.0115-.005a11.4262,11.4262,0,0,1-.5259-1.4807l.3206.0846a.0732.0732,0,1,0,.0374-.1415l-.2649-.07.2184-.214a.0732.0732,0,1,0-.1024-.1046l-.2594.254q-.033-.1318-.0619-.2652a.0731.0731,0,0,0-.087-.0561l-.0178.0062a.0735.0735,0,0,0-.0384.0808q.024.1106.0509.22l-.2293-.0606a.0732.0732,0,0,0-.0374.1415l.2777.0734-.2555.25a.0732.0732,0,1,0,.1024.1046l.2193-.2147a11.478,11.478,0,0,0,.4581,1.3059q-.128-.0566-.2521-.1121l-.0492-.3432a.0731.0731,0,0,0-.0828-.062.0715.0715,0,0,0-.0228.0071.0732.0732,0,0,0-.0393.0757l.036.2513c-.2081-.0939-.4028-.1837-.5757-.266l.2084-.06a.0732.0732,0,1,0-.04-.1408l-.3348.0959-.0854-.3143a.0734.0734,0,0,0-.09-.0515l-.014.0054a.0733.0733,0,0,0-.0374.0845l.0588.2165a2.2619,2.2619,0,0,1-.3789-.2218.0732.0732,0,1,0-.098.1088,2.3937,2.3937,0,0,0,.4073.24l-.1685.0482-.0131.0051a.0733.0733,0,0,0,.0534.1357l.2633-.0754.0855.3147a.0732.0732,0,1,0,.1413-.0384l-.0663-.2441c.2036.0978.4367.2052.6818.3156l-.2923.1485a.0732.0732,0,1,0,.0664.13l.3977-.2021c.1046.0467.2105.0936.3166.14a9.5944,9.5944,0,0,1-1.3043.4438l.0456-.1279a.0732.0732,0,0,0-.138-.0491l-.0613.172-.2181-.28a.0733.0733,0,0,0-.0908-.02l-.0119.0076a.0732.0732,0,0,0-.0128.1027l.1986.2553c-.0524.0087-.1035.016-.1527.0214a.0745.0745,0,0,0-.0252.0074.0732.0732,0,0,0,.0412.1381Z" transform="translate(0.004 0.0038)"/><path class="cls-46" d="M95.7231,48.6434c.0275-.003.0562-.0072.0857-.0125l-.0428.12a.0314.0314,0,1,0,.0592.0211l.0353-.0991.0348.0446a.0314.0314,0,1,0,.05-.0386l-.0509-.0655a3.9707,3.9707,0,0,0,.585-.1947l-.0559.1406-.1872.0536-.0056.0022a.0314.0314,0,0,0,.0229.0582l.1408-.04c-.0481.1218-.0924.235-.129.3291l-.0689-.0811a.0315.0315,0,0,0-.0382-.0076l-.0061.0041a.0314.0314,0,0,0-.0036.0442l.0837.0985-.12.0511-.002.0009a.0314.0314,0,0,0,.0266.0569l.0761-.0324-.0492.1273a.0314.0314,0,1,0,.0587.0225c.0011-.0028.0248-.0645.0632-.1634l.0767.09a.0314.0314,0,0,0,.0478-.0407l-.0747-.088.13-.0553a.0314.0314,0,1,0-.0246-.0578l-.1151.049c.036-.0924.0792-.2028.126-.3215l.042.1132a.0314.0314,0,1,0,.0589-.0218l-.0662-.179.0372-.0936c.0845.183.1643.3321.219.4292l-.128.0058-.0128.0034a.0314.0314,0,0,0,.0157.0594l.126-.0057-.06.0937a.0314.0314,0,1,0,.0529.0339l.0612-.0955.0173.0285a.0314.0314,0,1,0,.0532-.0335l-.0194-.0319.0991-.0046a.0314.0314,0,1,0-.0029-.0627l-.083.0038.0492-.0769a.0314.0314,0,0,0-.0529-.0339l-.058.0906c-.0592-.1049-.15-.2748-.2445-.4843l.0008-.0019c.0642.028.1278.0554.1891.0818l.0408.1438a.0314.0314,0,0,0,.0605-.0172l-.0269-.0947c.101.0431.1936.0823.27.1145l-.0979.0285-.0055.0022a.0314.0314,0,0,0,.0231.0582l.1308-.0381.0086.117a.0314.0314,0,0,0,.0627-.0046l-.0085-.1157.0974.04a.0314.0314,0,0,0,.024-.0581l-.0464-.0192.0384-.0112a.0315.0315,0,0,0-.0176-.06l-.1016.03-.01-.13a.0313.0313,0,0,0-.0336-.029l-.0119.0033a.0313.0313,0,0,0-.0171.03l.0078.1068c-.0932-.0391-.1941-.0818-.298-.1263l.107-.0763a.0314.0314,0,0,0-.0325-.0536l-.0041.0024-.138.0986-.1414-.0611c.1906-.0824.3645-.1665.4878-.2283l-.021.1785a.0314.0314,0,0,0,.0624.0073l.0226-.1915.1282.0778a.0314.0314,0,0,0,.0327-.0537l-.1191-.0723c.0448-.0232.0728-.0382.0791-.0416a.0314.0314,0,1,0-.03-.0553c-.0016.0009-.03.0161-.0789.0412l.0157-.1326a.0314.0314,0,0,0-.0275-.0348.0309.0309,0,0,0-.0179.0031.0313.0313,0,0,0-.017.0244l-.0165.1393-.1166-.0708a.0313.0313,0,0,0-.0305-.0011.03.03,0,0,0-.0126.0117.0313.0313,0,0,0,.0106.0431l.1125.0684c-.1243.0622-.3021.148-.4965.2318l.0484-.12.1691-.0429a.0314.0314,0,1,0-.0154-.0609l-.1243.0315c.0385-.0944.076-.1851.1108-.2674l.0739.0992a.0314.0314,0,1,0,.05-.0375l-.0618-.083.1387-.0351a.0314.0314,0,0,0-.0154-.0609l-.1522.0386c.0327-.0762.0623-.1426.0868-.1944a.0315.0315,0,0,0-.0427-.0415.0322.0322,0,0,0-.0141.0146c-.0225.0475-.0491.107-.0784.1749l-.0824-.1105a.0314.0314,0,0,0-.0394-.0093l-.0046.0029a.0313.0313,0,0,0-.0064.0439l.1036.139-.1651.0419-.0065.0024a.0314.0314,0,0,0,.022.0584l.12-.03c-.0314.0746-.0646.155-.0985.2383l-.062-.078a.0314.0314,0,0,0-.0388-.0085l-.0053.0034a.0315.0315,0,0,0-.0051.0442l.084.1057-.0609.151-.005-.0021a4.9237,4.9237,0,0,1-.2257-.6356l.1376.0363a.0314.0314,0,0,0,.0161-.0607l-.1137-.03.0937-.0919a.0314.0314,0,0,0-.0362-.05l-.0077.0055-.1114.1091q-.0141-.0567-.0265-.1139a.0315.0315,0,0,0-.0374-.0241l-.0076.0027a.0314.0314,0,0,0-.0165.0347c.0068.0316.0142.0631.0218.0946l-.0984-.026a.0308.0308,0,0,0-.0222.0023.0314.0314,0,0,0,.0062.0584l.1192.0315-.11.1074a.0314.0314,0,1,0,.044.0449l.0941-.0922a4.9046,4.9046,0,0,0,.1966.56l-.1082-.0481-.0211-.1473a.0315.0315,0,0,0-.0356-.0266l-.01.0031a.0314.0314,0,0,0-.0168.0325l.0155.1078c-.0894-.04-.173-.0788-.2472-.1141l.09-.0256a.0315.0315,0,0,0-.0173-.06l-.1437.0412L95.9017,47.9a.0314.0314,0,0,0-.0386-.0221l-.006.0023a.0314.0314,0,0,0-.016.0363l.0252.0929a.9741.9741,0,0,1-.1626-.0952.0314.0314,0,0,0-.0353-.0047l-.0091.007a.0315.0315,0,0,0,.0023.0444,1.03,1.03,0,0,0,.1748.1032l-.0723.0207-.0056.0022a.0314.0314,0,0,0,.0229.0582l.113-.0324.0367.1351a.0315.0315,0,0,0,.0607-.0165l-.0285-.1047c.0874.0419.1875.088.2927.1354l-.1255.0638a.0314.0314,0,1,0,.0285.056l.1707-.0868c.0449.02.09.04.1359.06a4.1167,4.1167,0,0,1-.56.1905l.02-.0549a.0313.0313,0,0,0-.0438-.0385.0308.0308,0,0,0-.0154.0174l-.0263.0738-.0936-.12a.0314.0314,0,0,0-.039-.0087l-.0051.0032a.0314.0314,0,0,0-.0055.0441l.0852.1095c-.0225.0038-.0444.0069-.0655.0092l-.0108.0032a.0314.0314,0,0,0,.0176.0593Z" transform="translate(0.004 0.0038)"/><path class="cls-46" d="M14.3708,72.2637c.1733-.019.3537-.0457.54-.0788l-.27.7568a.1979.1979,0,0,0,.3729.1329l.2226-.6248.2191.2815a.198.198,0,1,0,.3124-.2432l-.3209-.4126a25.08,25.08,0,0,0,3.6849-1.2263c-.1191.2984-.2366.5946-.3516.8852l-1.18.3376a.2036.2036,0,0,0-.0353.0138.1979.1979,0,0,0,.1442.3667l.887-.2539c-.3028.7675-.5818,1.48-.8126,2.073l-.4342-.5105a.198.198,0,0,0-.24-.0483.1884.1884,0,0,0-.0388.0258.1979.1979,0,0,0-.0225.2789l.5274.62L16.82,74.96l-.0122.0058a.198.198,0,0,0,.1675.3585l.4792-.2042c-.1894.489-.3038.7864-.31.8015a.198.198,0,1,0,.37.142c.0066-.0173.156-.406.398-1.0294l.4827.5675a.1979.1979,0,0,0,.3016-.2564l-.471-.5538.818-.3484a.198.198,0,0,0-.1551-.3643l-.7249.3087c.2266-.5818.4989-1.2773.7939-2.0252l.264.7133a.198.198,0,1,0,.3714-.1373L19.1759,71.81q.1155-.2921.2342-.59c.5324,1.1531,1.0354,2.0923,1.38,2.7037l-.8061.0368a.1979.1979,0,0,0,.0179.3954l.7941-.0362-.3782.5906a.198.198,0,0,0,.3334.2135l.3853-.6016c.0672.1123.1058.1741.1091.1792a.1978.1978,0,1,0,.335-.21c-.0032-.0054-.0467-.0753-.122-.2015l.6239-.0284a.1979.1979,0,1,0-.0179-.3953l-.5228.0237.31-.4839a.198.198,0,1,0-.3333-.2137l-.3654.57c-.373-.66-.9462-1.7305-1.54-3.05l.0048-.0119c.4047.1762.8049.3492,1.1914.5152l.2571.9059a.1979.1979,0,0,0,.3808-.1082l-.1695-.5968c.636.2719,1.22.5187,1.7017.7214l-.6169.18a.186.186,0,0,0-.0345.0135.198.198,0,0,0,.1451.3665l.8242-.24.0542.7372a.198.198,0,0,0,.3949-.029l-.0537-.7289c.3405.1422.56.2332.6133.2551a.1979.1979,0,1,0,.1512-.3658l-.2922-.1211.2422-.07a.198.198,0,1,0-.1107-.38l-.64.1865-.06-.819a.1978.1978,0,1,0-.3946.029l.0494.6726c-.5873-.2464-1.2229-.5154-1.8773-.7953l.6738-.481a.1979.1979,0,0,0-.2045-.3376.2085.2085,0,0,0-.0256.0153l-.8694.6208c-.2959-.1271-.5936-.2556-.8908-.3847,1.2009-.5193,2.2958-1.0485,3.0728-1.4383l-.1327,1.1245a.1979.1979,0,0,0,.393.0463l.1426-1.2067.8079.49a.1981.1981,0,0,0,.2054-.3387l-.75-.4551c.2819-.1459.4585-.24.4983-.262a.198.198,0,0,0-.1878-.3486c-.01.0056-.19.1019-.4967.26l.0986-.8351a.1977.1977,0,0,0-.1733-.22.1978.1978,0,0,0-.22.1734l-.1037.8773-.7344-.4458a.1979.1979,0,0,0-.2053.3385l.7089.4305c-.7833.3918-1.9031.9322-3.1272,1.46.1016-.2529.2033-.505.3045-.7542l1.0656-.27a.1979.1979,0,1,0-.0973-.3836l-.7831.1983c.2427-.5945.479-1.1656.6982-1.684l.4654.6249a.198.198,0,1,0,.3177-.2364l-.3893-.5225.8732-.2213a.1979.1979,0,1,0-.0971-.3837l-.9585.2429c.2064-.48.3923-.8977.5468-1.2246a.1978.1978,0,1,0-.3577-.1691c-.1416.299-.309.6741-.4941,1.1018l-.5186-.6962a.1983.1983,0,0,0-.2483-.0584.2082.2082,0,0,0-.0289.0178.1982.1982,0,0,0-.0405.277l.6525.8755-1.04.2636a.1951.1951,0,0,0-.0412.0153.1979.1979,0,0,0,.1384.3682l.7552-.1913c-.1972.47-.4064.9765-.62,1.501l-.39-.4913a.1979.1979,0,0,0-.2444-.0533.2012.2012,0,0,0-.0337.0214.1981.1981,0,0,0-.0319.2782l.5291.6659c-.1276.3142-.2559.6326-.3838.9514l-.0312-.0137a30.8925,30.8925,0,0,1-1.4218-4.0033l.8668.2289a.1979.1979,0,1,0,.1012-.3827l-.7164-.189.5906-.5786a.1978.1978,0,0,0-.2279-.3178.2013.2013,0,0,0-.0489.035l-.7013.6869q-.0894-.3567-.1675-.7173a.1977.1977,0,0,0-.2352-.1516.1848.1848,0,0,0-.048.017.198.198,0,0,0-.1039.2182q.0647.2991.1376.5957l-.62-.1637a.1979.1979,0,1,0-.101.3826l.7508.1983-.6909.6766a.1979.1979,0,1,0,.277.2828l.5928-.5805a30.9888,30.9888,0,0,0,1.2386,3.5305q-.3462-.1529-.6815-.303l-.1331-.9278a.1979.1979,0,0,0-.2241-.1678.1977.1977,0,0,0-.1677.2241l.0974.6794c-.5627-.254-1.0891-.4967-1.5565-.7192l.5633-.1612a.1979.1979,0,1,0-.1089-.3806l-.9053.2592-.2309-.85a.198.198,0,0,0-.2429-.1392.209.209,0,0,0-.038.0146.1982.1982,0,0,0-.1011.2284l.1589.5853a6.1133,6.1133,0,0,1-1.0243-.6.1982.1982,0,0,0-.2223-.03.2006.2006,0,0,0-.0573.044.1979.1979,0,0,0,.0146.2795,6.4574,6.4574,0,0,0,1.1012.65l-.4555.13a.2009.2009,0,0,0-.0353.0139.1979.1979,0,0,0,.1442.3667l.7119-.2037.2312.8509a.198.198,0,0,0,.3821-.1039l-.1794-.66c.5507.2645,1.1807.5548,1.8435.8533l-.79.4014a.1979.1979,0,0,0,.1794.3529l1.0753-.5463c.2828.1262.5693.2528.8561.3789a25.9392,25.9392,0,0,1-3.5265,1.2l.1232-.3458a.1979.1979,0,0,0-.3729-.1329l-.1657.465-.59-.758a.1981.1981,0,0,0-.2457-.0551.2065.2065,0,0,0-.0321.02.1981.1981,0,0,0-.0347.2777l.537.69c-.1417.0235-.28.0433-.4129.0579a.1979.1979,0,1,0,.0432.3935Z" transform="translate(0.004 0.0038)"/><g id="Layer_63-3" data-name="Layer 63" class="cls-77"><path class="cls-78" d="M55.4209,10.8612l-46.01,26.57v53.13l46.01,26.57,46.01-26.57v-53.13Zm44.3,78.64-44.18,25.5-44.18-25.5v-51.01l44.18-25.51,44.18,25.51Z" transform="translate(0.004 0.0038)"/></g></svg>