<svg xmlns="http://www.w3.org/2000/svg" viewBox="0 -0.5 203 287" shape-rendering="crispEdges">
<metadata>Made with Pixels to Svg https://codepen.io/shshaw/pen/XbxvNj</metadata>
<path stroke="#b5b5b5" d="M101 26h2M99 27h5M96 28h10M95 29h6M102 29h6M94 30h7M102 30h7M92 31h12M105 31h6M90 32h15M106 32h7M88 33h19M108 33h7M86 34h21M110 34h7M85 35h33M83 36h7M92 36h19M112 36h8M81 37h40M79 38h8M88 38h36M78 39h46M76 40h8M85 40h41M74 41h54M73 42h50M124 42h6M72 43h3M77 43h55M69 44h5M77 44h49M127 44h7M67 45h7M75 45h24M106 45h22M129 45h7M66 46h71M64 47h6M71 47h24M110 47h21M132 47h7M62 48h6M71 48h22M112 48h20M134 48h7M60 49h7M69 49h23M93 49h1M113 49h21M136 49h6M59 50h6M67 50h24M114 50h22M138 50h6M57 51h33M114 51h2M117 51h21M139 51h7M55 52h33M115 52h24M141 52h6M54 53h30M117 53h3M121 53h29M51 54h33M119 54h24M146 54h5M51 55h29M81 55h2M120 55h4M125 55h20M146 55h7M49 56h31M81 56h1M122 56h2M125 56h30M47 57h3M51 57h2M54 57h1M56 57h22M79 57h1M123 57h24M148 57h8M44 58h4M50 58h28M125 58h33M43 59h5M52 59h22M127 59h1M131 59h29M41 60h34M129 60h32M39 61h7M48 61h22M72 61h1M130 61h4M135 61h21M157 61h2M160 61h3M37 62h34M132 62h33M36 63h6M45 63h22M69 63h1M134 63h3M138 63h20M160 63h6M34 64h6M41 64h26M136 64h32M32 65h7M41 65h24M137 65h33M30 66h35M140 66h31M29 67h6M36 67h25M62 67h1M141 67h33M27 68h32M143 68h2M146 68h29M26 69h31M144 69h33M24 70h33M146 70h3M150 70h28M22 71h7M31 71h24M147 71h4M152 71h20M174 71h6M20 72h7M29 72h24M150 72h24M176 72h6M20 73h6M27 73h24M151 73h32M17 74h7M25 74h23M49 74h2M153 74h3M157 74h28M16 75h6M24 75h23M155 75h32M13 76h7M23 76h21M46 76h1M157 76h3M161 76h28M12 77h7M21 77h23M159 77h32M10 78h7M18 78h24M160 78h2M163 78h30M8 79h7M16 79h25M161 79h33M6 80h30M37 80h1M163 80h3M167 80h1M169 80h27M5 81h33M164 81h4M169 81h29M2 82h9M12 82h22M166 82h4M171 82h29M1 83h3M8 83h26M168 83h33M0 84h3M8 84h22M31 84h1M171 84h2M175 84h28M0 85h31M172 85h31M3 86h24M174 86h3M178 86h25M0 87h28M176 87h26M0 88h23M177 88h4M182 88h19M0 89h21M179 89h24M0 90h19M181 90h4M186 90h17M0 91h19M183 91h20M0 92h17M184 92h19M0 93h17M187 93h16M0 94h15M187 94h16M0 95h16M189 95h14M0 96h16M189 96h14M0 97h16M189 97h14M0 98h16M189 98h14M0 99h16M189 99h14M0 100h16M189 100h14M0 101h16M189 101h14M0 102h16M189 102h14M0 103h16M189 103h14M0 104h16M189 104h14M0 105h16M189 105h14M0 106h16M189 106h14M0 107h16M189 107h14M0 108h16M189 108h14M0 109h16M189 109h14M0 110h16M189 110h14M0 111h16M189 111h14M0 112h16M189 112h14M0 113h16M189 113h14M0 114h16M189 114h14M0 115h16M189 115h14M0 116h16M189 116h14M0 117h16M189 117h14M0 118h16M189 118h14M0 119h16M189 119h14M0 120h16M189 120h14M0 121h16M189 121h14M0 122h16M189 122h14M0 123h16M189 123h14M0 124h16M189 124h14M0 125h16M189 125h14M0 126h16M189 126h14M0 127h16M189 127h14M0 128h16M189 128h14M0 129h16M189 129h14M0 130h16M189 130h14M0 131h16M189 131h14M0 132h16M189 132h14M0 133h16M189 133h14M0 134h16M189 134h14M0 135h16M189 135h14M0 136h16M189 136h14M0 137h16M189 137h14M0 138h16M189 138h14M0 139h16M189 139h14M0 140h16M189 140h14M0 141h16M189 141h14M0 142h16M189 142h14M0 143h16M189 143h14M0 144h16M189 144h14M0 145h16M189 145h14M0 146h16M189 146h14M0 147h16M189 147h14M0 148h16M189 148h14M0 149h16M189 149h14M0 150h16M189 150h14M0 151h16M189 151h14M0 152h16M189 152h14M0 153h16M189 153h14M0 154h16M189 154h14M0 155h16M189 155h14M0 156h16M189 156h14M0 157h16M189 157h14M0 158h16M189 158h14M0 159h16M189 159h14M0 160h16M189 160h14M0 161h16M189 161h14M0 162h16M189 162h14M0 163h16M189 163h14M0 164h16M189 164h14M0 165h16M189 165h14M0 166h16M189 166h14M0 167h16M189 167h14M0 168h16M189 168h14M0 169h16M189 169h14M0 170h16M189 170h14M0 171h16M189 171h14M0 172h16M189 172h14M0 173h16M189 173h14M0 174h16M189 174h14M0 175h16M189 175h14M0 176h16M189 176h14M0 177h16M189 177h14M0 178h16M189 178h14M0 179h16M189 179h14M0 180h16M189 180h14M0 181h16M189 181h14M0 182h16M189 182h14M0 183h16M189 183h14M0 184h16M189 184h14M0 185h16M189 185h14M0 186h16M189 186h14M0 187h16M189 187h14M0 188h16M189 188h14M0 189h16M189 189h14M0 190h16M189 190h14M0 191h16M189 191h14M0 192h16M188 192h15M0 193h16M187 193h2M190 193h13M0 194h16M185 194h18M0 195h15M183 195h4M188 195h15M0 196h17M182 196h3M186 196h17M0 197h17M180 197h23M0 198h20M178 198h25M0 199h21M23 199h1M177 199h26M0 200h25M176 200h27M0 201h1M4 201h21M174 201h25M201 201h2M1 202h28M171 202h32M0 203h4M8 203h19M29 203h2M170 203h25M199 203h4M1 204h5M8 204h24M168 204h27M197 204h5M3 205h4M10 205h22M166 205h27M196 205h4M5 206h4M11 206h25M165 206h28M194 206h4M6 207h5M14 207h22M163 207h26M190 207h6M8 208h5M14 208h24M161 208h26M188 208h6M10 209h5M18 209h21M160 209h25M187 209h6M12 210h5M19 210h21M158 210h24M185 210h6M14 211h4M20 211h21M160 211h20M182 211h7M15 212h1M17 212h27M159 212h21M181 212h5M187 212h1M18 213h3M23 213h22M158 213h28M19 214h4M24 214h1M27 214h21M155 214h21M178 214h6M22 215h3M27 215h22M149 215h2M153 215h23M177 215h5M23 216h4M31 216h20M52 216h1M149 216h23M173 216h1M175 216h5M25 217h4M31 217h22M147 217h30M26 218h4M31 218h1M33 218h22M56 218h1M146 218h22M170 218h6M28 219h3M33 219h24M59 219h1M145 219h23M169 219h5M29 220h6M36 220h21M58 220h2M61 220h1M142 220h24M167 220h5M31 221h4M36 221h27M140 221h30M33 222h5M41 222h23M137 222h25M164 222h5M35 223h4M40 223h26M136 223h26M163 223h5M37 224h3M45 224h22M68 224h1M134 224h3M138 224h20M161 224h5M38 225h3M43 225h28M132 225h32M39 226h4M47 226h25M131 226h25M157 226h5M41 227h4M47 227h25M130 227h24M155 227h6M43 228h5M50 228h26M129 228h30M45 229h1M47 229h2M50 229h26M77 229h1M127 229h31M47 230h4M54 230h25M125 230h31M48 231h5M54 231h26M123 231h30M51 232h2M58 232h25M120 232h32M52 233h3M60 233h23M119 233h1M121 233h22M144 233h6M54 234h3M58 234h26M119 234h24M144 234h4M55 235h6M63 235h24M119 235h20M142 235h4M57 236h5M65 236h23M117 236h21M140 236h4M59 237h5M67 237h23M115 237h21M138 237h5M62 238h5M69 238h23M93 238h1M113 238h21M136 238h5M63 239h5M71 239h25M111 239h21M135 239h4M65 240h5M72 240h25M110 240h21M133 240h4M67 241h4M73 241h26M109 241h21M131 241h5M69 242h5M75 242h24M100 242h1M107 242h21M129 242h6M70 243h5M76 243h50M128 243h4M73 244h3M77 244h54M74 245h4M79 245h43M125 245h4M76 246h46M123 246h4M77 247h5M83 247h35M122 247h4M79 248h40M120 248h4M80 249h5M88 249h35M82 250h33M116 250h4M84 251h5M92 251h19M112 251h6M86 252h5M92 252h25M88 253h5M96 253h11M108 253h7M89 254h6M96 254h17M91 255h5M98 255h14M93 256h5M99 256h11M94 257h14M95 258h4M100 258h6M98 259h6M99 260h4" />
<path stroke="rgba(179,204,204,0.0392156862745098)" d="M97 27h1" />
<path stroke="rgba(214,238,226,0.17254901960784313)" d="M98 27h1" />
<path stroke="rgba(211,239,224,0.3215686274509804)" d="M104 27h1" />
<path stroke="rgba(189,198,198,0.10588235294117647)" d="M105 27h1" />
<path stroke="rgba(219,219,219,0.054901960784313725)" d="M95 28h1" />
<path stroke="rgba(187,182,187,0.19215686274509805)" d="M106 28h1" />
<path stroke="rgba(220,220,220,0.08627450980392157)" d="M107 28h1" />
<path stroke="#b4b3b3" d="M101 29h1M139 236h1" />
<path stroke="rgba(255,255,255,0.00784313725490196)" d="M108 29h1M76 39h1M126 39h1M71 41h1M184 73h1M70 246h1M130 246h1M75 248h1" />
<path stroke="rgba(255,255,255,0.00392156862745098)" d="M91 30h1M75 39h1M127 39h1M131 41h1M64 45h1M43 58h1M40 60h1M35 62h2M166 62h1M30 64h1M27 66h1M24 218h1M173 221h1M170 223h1M35 225h2M164 225h2M74 248h1M126 248h1M121 250h1" />
<path stroke="rgba(170,230,204,0.11764705882352941)" d="M92 30h1" />
<path stroke="rgba(170,225,195,0.23529411764705882)" d="M93 30h1" />
<path stroke="#b6b6b6" d="M101 30h1M105 32h1M99 45h1M95 47h1M85 53h1M47 61h1M67 64h1M59 68h1M145 68h1M202 87h1M24 88h1M22 89h1M185 196h1M18 197h1M20 198h2M39 209h1M41 210h1M45 213h1M49 215h1M53 217h2M146 217h1M58 219h1M144 219h1M83 233h1M113 237h1M112 238h1M104 242h1M97 255h1" />
<path stroke="rgba(162,223,194,0.2784313725490196)" d="M109 30h1" />
<path stroke="rgba(168,235,201,0.14901960784313725)" d="M110 30h1" />
<path stroke="rgba(212,255,255,0.023529411764705882)" d="M111 30h1M144 49h1" />
<path stroke="rgba(240,255,240,0.06666666666666667)" d="M91 31h1" />
<path stroke="#b5b4b4" d="M104 31h1M90 36h1M50 59h1M26 73h1M15 79h1M23 88h1M181 88h1M62 235h1M136 237h1M90 251h1" />
<path stroke="rgba(238,255,246,0.11764705882352941)" d="M111 31h1" />
<path stroke="rgba(185,232,209,0.043137254901960784)" d="M88 32h1M190 76h1" />
<path stroke="rgba(205,244,222,0.1803921568627451)" d="M89 32h1" />
<path stroke="rgba(204,241,218,0.21568627450980393)" d="M113 32h1" />
<path stroke="rgba(188,215,201,0.07450980392156863)" d="M114 32h1" />
<path stroke="#b5b4b5" d="M107 33h1M67 49h1M92 49h1M66 50h1M139 52h1M143 54h1M40 64h1M40 65h1M27 72h1M175 72h1M23 75h1M19 77h1M36 80h1M168 80h1M168 81h1M30 84h1M27 86h1M177 86h1M59 233h1M139 235h1M66 237h1M67 238h1M135 238h1M122 246h1M91 252h1M94 253h1M95 254h1" />
<path stroke="rgba(128,128,128,0.00784313725490196)" d="M115 33h1M11 211h1M24 219h1M31 223h1M47 232h1M125 248h1M107 259h1" />
<path stroke="rgba(230,242,230,0.0784313725490196)" d="M85 34h1" />
<path stroke="#b5b6b5" d="M107 34h1M91 36h1M111 36h1M87 38h1M74 45h1M128 45h1M68 49h1M134 49h1M138 51h1M55 57h1M147 57h1M51 59h1M28 72h1M174 72h1M64 236h1M138 236h1M68 238h1M134 238h1M74 242h1M128 242h1M87 249h1M91 251h1M111 251h1M95 253h1M107 253h1" />
<path stroke="#b6b4b5" d="M108 34h1M135 49h1M136 50h1M44 63h1M158 63h1M30 71h1M172 71h1M48 228h2M51 230h1M131 240h1M121 247h1" />
<path stroke="#b8b2b5" d="M109 34h1M43 63h1M159 63h1M132 240h1M120 247h1M93 253h1" />
<path stroke="rgba(221,238,230,0.11764705882352941)" d="M117 34h1" />
<path stroke="rgba(170,255,212,0.023529411764705882)" d="M84 35h1" />
<path stroke="rgba(191,242,217,0.0784313725490196)" d="M118 35h1" />
<path stroke="rgba(176,237,206,0.16470588235294117)" d="M82 36h1" />
<path stroke="rgba(172,234,203,0.19215686274509805)" d="M120 36h1" />
<path stroke="rgba(234,248,241,0.1411764705882353)" d="M121 37h1" />
<path stroke="rgba(213,255,227,0.07058823529411765)" d="M78 38h1" />
<path stroke="rgba(220,243,232,0.08627450980392157)" d="M124 38h1" />
<path stroke="rgba(255,255,255,0.01568627450980392)" d="M77 39h1" />
<path stroke="rgba(214,246,227,0.3176470588235294)" d="M124 39h1" />
<path stroke="rgba(255,255,255,0.0196078431372549)" d="M125 39h1M54 52h1M24 68h1" />
<path stroke="rgba(195,235,215,0.14901960784313725)" d="M75 40h1M127 40h1" />
<path stroke="#b7b4b6" d="M84 40h1M132 48h1M199 201h2M39 222h1M41 224h1M41 225h1M45 226h1M52 230h1" />
<path stroke="rgba(208,236,222,0.3607843137254902)" d="M126 40h1" />
<path stroke="rgba(212,212,212,0.023529411764705882)" d="M72 41h1M130 41h1" />
<path stroke="rgba(179,179,179,0.0392156862745098)" d="M73 41h1M129 41h1M33 64h1M179 217h1M33 223h1M54 236h1" />
<path stroke="rgba(183,200,188,0.1803921568627451)" d="M128 41h1" />
<path stroke="rgba(191,255,255,0.01568627450980392)" d="M71 42h1M134 43h1M17 72h1" />
<path stroke="rgba(218,230,222,0.24313725490196078)" d="M72 42h1" />
<path stroke="#b6b2b4" d="M123 42h1M53 57h1M123 245h1" />
<path stroke="rgba(214,228,223,0.2196078431372549)" d="M130 42h1" />
<path stroke="rgba(204,255,255,0.0196078431372549)" d="M68 43h1M44 57h1M67 244h1" />
<path stroke="rgba(157,216,196,0.050980392156862744)" d="M69 43h1" />
<path stroke="rgba(153,221,187,0.11764705882352941)" d="M70 43h1" />
<path stroke="rgba(207,239,223,0.25098039215686274)" d="M71 43h1" />
<path stroke="#b4b2b3" d="M75 43h1M75 44h1M65 50h1M137 50h1M65 237h1M127 243h1" />
<path stroke="#b4b3b4" d="M76 43h1M76 44h1M126 44h1M84 54h1M46 61h1M44 77h1M63 236h1M126 243h1M86 249h1" />
<path stroke="rgba(151,227,179,0.10588235294117647)" d="M132 43h1" />
<path stroke="rgba(157,216,177,0.050980392156862744)" d="M133 43h1" />
<path stroke="rgba(227,255,236,0.10588235294117647)" d="M68 44h1" />
<path stroke="#b3b1b2" d="M74 44h1M68 48h1M35 67h1M68 239h1M82 247h1" />
<path stroke="rgba(230,255,242,0.0784313725490196)" d="M134 44h1" />
<path stroke="rgba(196,235,216,0.050980392156862744)" d="M65 45h1" />
<path stroke="rgba(186,235,206,0.10196078431372549)" d="M66 45h1M57 237h1" />
<path stroke="#b7b7b7" d="M100 45h1M60 68h1M162 78h1M19 91h1M22 199h1M50 215h1" />
<path stroke="#b7b8b7" d="M101 45h2M139 66h1M18 92h1" />
<path stroke="#b7b7b6" d="M103 45h2M108 47h1M53 72h1M45 76h1" />
<path stroke="#b6b6b5" d="M105 45h1M109 47h1M58 69h1M149 70h1" />
<path stroke="rgba(174,232,197,0.08627450980392157)" d="M136 45h1" />
<path stroke="rgba(179,230,204,0.0392156862745098)" d="M137 45h1" />
<path stroke="rgba(202,247,223,0.24705882352941178)" d="M65 46h1" />
<path stroke="rgba(197,244,218,0.18823529411764706)" d="M137 46h1" />
<path stroke="rgba(182,219,182,0.027450980392156862)" d="M61 47h1" />
<path stroke="rgba(209,243,232,0.08627450980392157)" d="M62 47h1" />
<path stroke="rgba(240,248,240,0.13333333333333333)" d="M63 47h1" />
<path stroke="#b9b3b6" d="M70 47h1M6 84h1M55 232h1M70 240h1" />
<path stroke="#b8b8b7" d="M96 47h1M68 63h1" />
<path stroke="#c6a39f" d="M97 47h1" />
<path stroke="#ed2756" d="M98 47h1" />
<path stroke="#f9006b" d="M99 47h1M119 56h1M80 58h1M131 63h1M61 69h1M54 73h1M150 74h1M162 81h1M35 84h1M181 92h1M16 95h1M20 196h1M179 196h1M29 201h1M38 206h1M162 206h1M157 209h1M140 219h1M63 220h1M72 225h1M81 230h1M118 232h1" />
<path stroke="#f9006c" d="M100 47h4M98 48h8M96 49h11M94 50h15M93 51h18M91 52h22M89 53h25M87 54h29M86 55h32M84 56h35M82 57h39M81 58h42M79 59h46M77 60h49M75 61h53M74 62h56M72 63h59M70 64h63M68 65h14M88 65h27M121 65h14M67 66h15M93 66h17M121 66h16M65 67h17M99 67h5M121 67h17M63 68h19M121 68h19M62 69h20M121 69h21M60 70h22M121 70h23M58 71h26M119 71h26M56 72h28M117 72h30M55 73h29M117 73h32M53 74h31M117 74h33M51 75h33M117 75h35M49 76h35M117 76h37M48 77h36M117 77h39M46 78h38M117 78h40M44 79h40M117 79h42M42 80h42M117 80h44M41 81h43M117 81h45M39 82h46M115 82h49M37 83h50M92 83h1M114 83h52M36 84h56M95 84h1M106 84h1M109 84h59M34 85h59M109 85h60M32 86h62M108 86h63M30 87h64M107 87h66M29 88h65M107 88h68M27 89h68M109 89h10M128 89h48M25 90h70M106 90h2M110 90h9M129 90h49M23 91h73M105 91h4M111 91h7M130 91h50M22 92h74M108 92h2M111 92h6M131 92h50M20 93h76M105 93h2M109 93h2M112 93h5M131 93h52M18 94h76M107 94h1M109 94h2M112 94h5M131 94h54M17 95h77M107 95h1M110 95h1M112 95h5M131 95h56M16 96h78M96 96h1M107 96h2M110 96h1M112 96h5M131 96h58M16 97h78M96 97h1M107 97h2M110 97h1M112 97h5M131 97h58M16 98h78M96 98h3M103 98h2M107 98h2M110 98h1M112 98h5M131 98h58M16 99h78M96 99h3M103 99h2M107 99h2M110 99h1M112 99h10M126 99h63M16 100h78M96 100h4M102 100h3M107 100h1M112 100h10M126 100h63M16 101h78M96 101h4M102 101h3M107 101h1M109 101h1M111 101h11M126 101h63M16 102h65M126 102h63M16 103h62M126 103h63M16 104h61M126 104h63M16 105h48M67 105h2M134 105h2M139 105h50M16 106h48M139 106h50M16 107h45M142 107h47M16 108h43M144 108h45M16 109h43M144 109h45M16 110h43M144 110h45M16 111h43M144 111h45M16 112h45M142 112h47M16 113h47M75 113h3M89 113h3M109 113h7M119 113h3M126 113h2M140 113h49M16 114h52M76 114h2M89 114h3M109 114h7M119 114h3M126 114h1M135 114h54M16 115h51M76 115h2M89 115h2M110 115h6M119 115h3M126 115h1M136 115h53M16 116h51M76 116h2M89 116h2M110 116h6M119 116h3M126 116h1M136 116h53M16 117h51M76 117h2M89 117h2M110 117h6M119 117h3M126 117h1M136 117h53M16 118h51M76 118h2M114 118h2M119 118h3M126 118h1M136 118h53M16 119h51M76 119h2M114 119h2M119 119h3M126 119h1M136 119h53M16 120h51M76 120h2M114 120h2M119 120h3M126 120h1M136 120h53M16 121h51M76 121h2M114 121h2M119 121h3M126 121h1M136 121h53M16 122h51M76 122h2M117 122h5M126 122h1M136 122h53M16 123h51M76 123h2M117 123h5M126 123h1M136 123h53M16 124h51M76 124h2M117 124h5M126 124h1M136 124h53M16 125h51M76 125h2M118 125h4M126 125h1M136 125h53M16 126h51M76 126h4M126 126h1M136 126h53M16 127h52M75 127h6M126 127h2M135 127h54M16 128h52M75 128h6M126 128h2M135 128h54M16 129h52M75 129h15M126 129h2M135 129h54M16 130h52M75 130h15M126 130h2M135 130h54M16 131h52M75 131h17M125 131h3M135 131h54M16 132h52M75 132h17M118 132h10M135 132h54M16 133h52M75 133h17M110 133h18M135 133h54M16 134h52M75 134h17M110 134h18M135 134h54M16 135h52M75 135h17M110 135h18M135 135h54M16 136h52M75 136h17M110 136h18M135 136h54M16 137h52M75 137h18M109 137h19M135 137h54M16 138h53M74 138h19M109 138h20M134 138h55M16 139h53M74 139h17M109 139h20M134 139h55M16 140h53M74 140h17M110 140h19M134 140h55M16 141h53M74 141h17M110 141h19M134 141h55M16 142h54M74 142h17M110 142h19M133 142h56M16 143h54M73 143h20M110 143h20M133 143h56M16 144h54M73 144h20M110 144h20M133 144h56M16 145h54M73 145h20M110 145h20M133 145h56M16 146h54M73 146h20M109 146h21M133 146h56M16 147h54M73 147h20M109 147h21M133 147h56M16 148h54M73 148h20M110 148h20M133 148h56M16 149h54M73 149h20M110 149h20M133 149h56M16 150h54M73 150h20M110 150h20M133 150h56M16 151h54M73 151h20M110 151h20M133 151h56M16 152h54M73 152h20M110 152h20M133 152h56M16 153h54M73 153h20M110 153h20M133 153h56M16 154h54M73 154h20M109 154h21M133 154h56M16 155h53M74 155h19M109 155h20M134 155h55M16 156h53M74 156h19M109 156h20M134 156h55M16 157h54M73 157h20M109 157h21M133 157h56M16 158h54M73 158h20M109 158h21M133 158h56M16 159h54M73 159h21M109 159h21M133 159h56M16 160h54M73 160h22M108 160h22M133 160h56M16 161h54M73 161h22M108 161h22M133 161h56M16 162h54M73 162h22M108 162h22M133 162h56M16 163h53M74 163h21M108 163h21M134 163h55M16 164h52M74 164h21M108 164h21M135 164h54M16 165h52M74 165h21M108 165h21M135 165h54M16 166h52M76 166h19M108 166h19M135 166h54M16 167h52M76 167h19M108 167h19M135 167h54M16 168h51M77 168h18M108 168h18M136 168h53M16 169h51M77 169h18M108 169h18M136 169h53M16 170h51M70 170h1M74 170h1M77 170h18M108 170h18M128 170h1M132 170h1M136 170h53M16 171h51M70 171h1M74 171h1M77 171h18M108 171h18M128 171h1M132 171h1M136 171h53M16 172h51M86 172h9M108 172h9M136 172h53M16 173h51M87 173h1M115 173h1M136 173h53M16 174h51M136 174h53M16 175h51M136 175h53M16 176h51M136 176h53M16 177h51M136 177h53M16 178h51M136 178h53M16 179h51M136 179h53M16 180h51M136 180h53M16 181h51M136 181h53M16 182h51M136 182h53M16 183h51M136 183h53M16 184h51M136 184h53M16 185h51M136 185h53M16 186h51M136 186h53M16 187h51M136 187h53M16 188h51M136 188h53M16 189h51M136 189h53M16 190h51M136 190h53M16 191h51M136 191h53M16 192h51M136 192h50M16 193h51M136 193h49M17 194h50M136 194h47M19 195h48M136 195h45M21 196h46M136 196h43M22 197h45M136 197h42M24 198h42M137 198h39M26 199h40M137 199h37M28 200h38M94 200h15M137 200h36M30 201h36M96 201h12M137 201h34M31 202h35M96 202h12M137 202h32M33 203h33M96 203h12M137 203h31M35 204h31M96 204h12M137 204h29M37 205h29M96 205h12M137 205h27M39 206h27M96 206h12M137 206h25M40 207h26M94 207h16M137 207h24M42 208h24M95 208h14M137 208h22M44 209h22M95 209h14M137 209h20M46 210h20M95 210h14M137 210h19M47 211h19M95 211h14M137 211h17M49 212h17M88 212h27M137 212h15M51 213h18M86 213h31M134 213h17M53 214h15M87 214h29M135 214h14M55 215h92M56 216h90M58 217h86M60 218h82M62 219h78M64 220h75M65 221h72M67 222h68M69 223h65M71 224h61M73 225h57M74 226h55M76 227h51M78 228h47M80 229h44M82 230h40M83 231h37M85 232h33M87 233h30M89 234h26M90 235h23M92 236h20M94 237h16M96 238h12M98 239h9M99 240h6M101 241h2" />
<path stroke="#f50860" d="M104 47h1M135 65h1M185 94h1M32 203h1M127 227h1M84 232h1" />
<path stroke="#dc5d66" d="M105 47h1" />
<path stroke="#babab8" d="M106 47h2M128 59h1" />
<path stroke="#b6b5b5" d="M131 47h1M20 77h1M41 79h1M21 89h1M1 201h1M187 208h1M18 210h1M157 213h1M25 214h2M35 220h1M35 221h1M40 222h1M39 223h1M162 223h1M44 224h1M42 225h1M46 226h1M72 227h1M143 233h1M117 235h1M71 240h1M106 242h1M119 248h1" />
<path stroke="rgba(239,247,247,0.12156862745098039)" d="M139 47h1" />
<path stroke="rgba(204,238,221,0.058823529411764705)" d="M140 47h1M80 251h1" />
<path stroke="rgba(128,255,255,0.00784313725490196)" d="M141 47h1" />
<path stroke="rgba(198,217,208,0.10588235294117647)" d="M61 48h1" />
<path stroke="#b6b3b4" d="M69 48h1M29 71h1M173 71h1M69 239h1M122 245h1" />
<path stroke="#b7b4b5" d="M70 48h1M21 76h1M53 230h1M70 239h1M132 239h1M118 247h1" />
<path stroke="#b4b4b4" d="M93 48h2M110 48h1M91 50h1M140 52h1M84 53h1M144 54h1M80 55h1M80 56h1M78 57h1M74 59h1M129 59h1M71 61h1M67 63h1M137 63h1M151 71h1M51 73h1M48 75h1M44 76h1M19 90h1M185 90h1M189 193h1M15 195h1M187 195h1M17 197h1M21 199h1M25 201h1M38 208h1M40 210h1M44 212h1M48 214h1M51 216h1M55 218h1M57 220h1M58 233h1M120 233h1M140 235h1M110 239h1M96 255h1M98 256h1" />
<path stroke="#c0b3b0" d="M95 48h1M76 59h1" />
<path stroke="#e92d4e" d="M96 48h1" />
<path stroke="#f70366" d="M97 48h1M121 57h1M152 75h1M181 195h1M43 209h1M142 218h1M120 231h1M86 233h1M95 238h1" />
<path stroke="#f11758" d="M106 48h1" />
<path stroke="#db928a" d="M107 48h1" />
<path stroke="#c0bdb9" d="M108 48h1" />
<path stroke="#b9b8b6" d="M109 48h1" />
<path stroke="#b4b5b5" d="M111 48h1M134 61h1M22 76h1M7 83h1M27 203h1M195 204h1M8 205h1M194 205h1M180 211h1M158 212h1M154 214h1M27 216h1M137 224h1M118 235h1M108 241h1" />
<path stroke="#b6b3b5" d="M133 48h1M17 78h1M134 239h1" />
<path stroke="rgba(204,204,204,0.0196078431372549)" d="M141 48h1M177 68h1" />
<path stroke="rgba(235,235,235,0.050980392156862744)" d="M58 49h1" />
<path stroke="rgba(203,203,203,0.13333333333333333)" d="M59 49h1" />
<path stroke="#df535d" d="M94 49h1" />
<path stroke="#f4065d" d="M95 49h1M69 64h1M50 75h1M24 90h1" />
<path stroke="#f8016a" d="M107 49h1M73 62h1M138 67h1M169 85h1M28 88h1M174 199h1M45 210h1M54 215h1M135 222h1M113 235h1M97 239h1" />
<path stroke="#eb2b55" d="M108 49h1" />
<path stroke="#bba4a2" d="M109 49h1" />
<path stroke="#bcbcb9" d="M110 49h1M118 54h1" />
<path stroke="#b8b7b6" d="M111 49h1" />
<path stroke="#b4b4b5" d="M112 49h1M113 50h1M116 51h1M120 53h1M124 55h1M124 56h1M75 59h1M130 59h1M70 61h1M48 74h1M156 74h1M47 75h1M160 76h1M54 232h1" />
<path stroke="rgba(178,183,178,0.20784313725490197)" d="M142 49h1" />
<path stroke="rgba(208,208,208,0.10588235294117647)" d="M143 49h1" />
<path stroke="rgba(234,250,239,0.18823529411764706)" d="M58 50h1" />
<path stroke="#ce7a7b" d="M92 50h1" />
<path stroke="#f10d54" d="M93 50h1M74 61h1" />
<path stroke="#f70465" d="M109 50h1M140 68h1M171 86h1M34 204h1M159 208h1M137 221h1M77 228h1" />
<path stroke="#e84c5e" d="M110 50h1" />
<path stroke="#bebbb9" d="M111 50h1" />
<path stroke="#b3b3b4" d="M112 50h1M65 65h1M61 67h1M57 69h1M55 71h1" />
<path stroke="rgba(232,243,243,0.08627450980392157)" d="M144 50h1" />
<path stroke="rgba(204,245,214,0.09803921568627451)" d="M55 51h1" />
<path stroke="rgba(145,225,185,0.2)" d="M56 51h1" />
<path stroke="#c5a39f" d="M90 51h1" />
<path stroke="#ed1d4d" d="M91 51h1" />
<path stroke="#f80169" d="M92 51h1M126 60h1M66 66h1M47 77h1M157 78h1M21 92h1M36 205h1M152 212h1M130 225h1M88 234h1" />
<path stroke="#f40d5d" d="M111 51h1M161 207h1" />
<path stroke="#dc7374" d="M112 51h1" />
<path stroke="#bdbebb" d="M113 51h1" />
<path stroke="rgba(146,225,182,0.16470588235294117)" d="M146 51h1" />
<path stroke="rgba(200,237,219,0.054901960784313725)" d="M147 51h1" />
<path stroke="#b3b0b2" d="M88 52h1M49 59h1M62 236h1" />
<path stroke="#e63850" d="M89 52h1" />
<path stroke="#f70364" d="M90 52h1M71 63h1M45 78h1M26 89h1" />
<path stroke="#f01e57" d="M113 52h1" />
<path stroke="#ce9995" d="M114 52h1" />
<path stroke="rgba(202,245,221,0.20784313725490197)" d="M147 52h1" />
<path stroke="rgba(232,255,232,0.043137254901960784)" d="M51 53h1" />
<path stroke="rgba(184,237,208,0.16862745098039217)" d="M52 53h1" />
<path stroke="rgba(194,232,213,0.2627450980392157)" d="M53 53h1" />
<path stroke="#babbb9" d="M86 53h1" />
<path stroke="#de5e64" d="M87 53h1" />
<path stroke="#f4075b" d="M88 53h1M43 79h1" />
<path stroke="#f80268" d="M114 53h1M145 71h1M176 89h1M169 202h1M147 215h1M70 224h1M79 229h1M108 238h1" />
<path stroke="#ea3657" d="M115 53h1" />
<path stroke="#c7bab2" d="M116 53h1" />
<path stroke="rgba(173,224,204,0.09803921568627451)" d="M150 53h1" />
<path stroke="#cb8885" d="M85 54h1" />
<path stroke="#f01251" d="M86 54h1" />
<path stroke="#f60662" d="M116 54h1M147 72h1M171 201h1M132 224h1" />
<path stroke="#e45964" d="M117 54h1" />
<path stroke="#b1b7b4" d="M145 54h1" />
<path stroke="rgba(182,200,182,0.054901960784313725)" d="M151 54h1" />
<path stroke="rgba(198,236,217,0.10588235294117647)" d="M48 55h1" />
<path stroke="rgba(221,246,234,0.23529411764705882)" d="M49 55h1" />
<path stroke="rgba(230,233,233,0.3176470588235294)" d="M50 55h1" />
<path stroke="#c4b0ab" d="M83 55h1" />
<path stroke="#ec224d" d="M84 55h1" />
<path stroke="#f80168" d="M85 55h1M40 81h1" />
<path stroke="#f2125a" d="M118 55h1M168 84h1" />
<path stroke="#d38280" d="M119 55h1" />
<path stroke="#b8b3b6" d="M145 55h1" />
<path stroke="rgba(203,229,216,0.15294117647058825)" d="M153 55h1" />
<path stroke="rgba(212,255,212,0.023529411764705882)" d="M154 55h1M104 260h1" />
<path stroke="rgba(187,187,187,0.058823529411764705)" d="M47 56h1M202 204h1" />
<path stroke="rgba(204,237,219,0.3333333333333333)" d="M48 56h1" />
<path stroke="#e44154" d="M82 56h1" />
<path stroke="#f50461" d="M83 56h1M57 71h1M38 82h1" />
<path stroke="#ef2656" d="M120 56h1" />
<path stroke="#c8a49f" d="M121 56h1" />
<path stroke="rgba(231,237,231,0.16862745098039217)" d="M45 57h1" />
<path stroke="rgba(193,193,193,0.3058823529411765)" d="M46 57h1" />
<path stroke="#afb2b1" d="M50 57h1" />
<path stroke="#d97172" d="M80 57h1" />
<path stroke="#f30959" d="M81 57h1M17 94h1" />
<path stroke="#e54059" d="M122 57h1" />
<path stroke="rgba(192,192,192,0.2235294117647059)" d="M156 57h1" />
<path stroke="rgba(221,238,238,0.058823529411764705)" d="M157 57h1" />
<path stroke="rgba(181,183,182,0.9647058823529412)" d="M48 58h1" />
<path stroke="rgba(182,184,183,0.9882352941176471)" d="M49 58h1" />
<path stroke="#c68f8c" d="M78 58h1" />
<path stroke="#ef154f" d="M79 58h1" />
<path stroke="#f40a5e" d="M123 58h1M144 217h1" />
<path stroke="#e06a6d" d="M124 58h1" />
<path stroke="rgba(237,255,255,0.054901960784313725)" d="M41 59h1" />
<path stroke="rgba(174,239,206,0.24705882352941178)" d="M42 59h1" />
<path stroke="#b2afb1" d="M48 59h1" />
<path stroke="#e92c4e" d="M77 59h1" />
<path stroke="#f70267" d="M78 59h1M133 64h1M59 70h1M164 82h1M33 85h1M183 93h1M186 192h1M164 205h1M52 214h1M61 219h1M125 228h1M103 241h1" />
<path stroke="#f11957" d="M125 59h1" />
<path stroke="#d79a93" d="M126 59h1" />
<path stroke="rgba(175,240,204,0.13725490196078433)" d="M160 59h1" />
<path stroke="#e04957" d="M75 60h1" />
<path stroke="#f5055f" d="M76 60h1M31 86h1" />
<path stroke="#ec2f56" d="M127 60h1" />
<path stroke="#bda9a7" d="M128 60h1" />
<path stroke="rgba(242,255,242,0.0784313725490196)" d="M161 60h1" />
<path stroke="rgba(215,248,228,0.14901960784313725)" d="M38 61h1" />
<path stroke="#d47e83" d="M73 61h1" />
<path stroke="#f60563" d="M128 61h1M159 79h1M178 90h1M154 211h1M59 218h1M68 223h1" />
<path stroke="#e65361" d="M129 61h1" />
<path stroke="#b5b3b4" d="M156 61h1M22 75h1M5 84h1M17 92h1M15 94h1M137 237h1M76 244h1" />
<path stroke="rgba(163,195,179,0.9529411764705882)" d="M159 61h1" />
<path stroke="rgba(189,241,212,0.21176470588235294)" d="M163 61h1" />
<path stroke="rgba(191,223,191,0.03137254901960784)" d="M164 61h1" />
<path stroke="#bf9d9e" d="M71 62h1" />
<path stroke="#ec1950" d="M72 62h1" />
<path stroke="#f30f5b" d="M130 62h1M178 197h1" />
<path stroke="#d47677" d="M131 62h1" />
<path stroke="rgba(182,182,182,0.027450980392156862)" d="M165 62h1M191 211h1M18 215h1M143 238h1" />
<path stroke="rgba(191,212,212,0.047058823529411764)" d="M34 63h1" />
<path stroke="rgba(220,247,231,0.2549019607843137)" d="M35 63h1" />
<path stroke="#b5afb2" d="M42 63h1" />
<path stroke="#e73656" d="M70 63h1" />
<path stroke="#ef2056" d="M132 63h1" />
<path stroke="#d5aca1" d="M133 63h1" />
<path stroke="rgba(198,213,205,0.2823529411764706)" d="M166 63h1" />
<path stroke="rgba(221,255,238,0.058823529411764705)" d="M167 63h1" />
<path stroke="rgba(255,255,255,0.011764705882352941)" d="M31 64h1M174 66h1M194 79h1M95 260h1" />
<path stroke="rgba(219,219,219,0.027450980392156862)" d="M32 64h1" />
<path stroke="#d65b6a" d="M68 64h1" />
<path stroke="#e93957" d="M134 64h1" />
<path stroke="#b5acab" d="M135 64h1" />
<path stroke="rgba(188,211,200,0.09019607843137255)" d="M168 64h1" />
<path stroke="rgba(191,191,191,0.03137254901960784)" d="M169 64h1M40 227h1" />
<path stroke="rgba(191,191,191,0.01568627450980392)" d="M170 64h1M21 217h1" />
<path stroke="rgba(237,255,246,0.10980392156862745)" d="M31 65h1" />
<path stroke="#b5b1b3" d="M39 65h1M130 241h1M124 245h1M89 251h1" />
<path stroke="#cd8489" d="M66 65h1" />
<path stroke="#f01054" d="M67 65h1" />
<path stroke="#f6016b" d="M82 65h1M87 65h1" />
<path stroke="#a41656" d="M83 65h1" />
<path stroke="#7b204b" d="M84 65h1" />
<path stroke="#a01755" d="M85 65h1" />
<path stroke="#ce0b61" d="M86 65h1" />
<path stroke="#f7006c" d="M115 65h1M120 65h1M118 71h1" />
<path stroke="#e20666" d="M116 65h1M117 71h1" />
<path stroke="#c60d5f" d="M117 65h1" />
<path stroke="#ab1457" d="M118 65h1" />
<path stroke="#c80c5f" d="M119 65h1" />
<path stroke="#de5f68" d="M136 65h1" />
<path stroke="rgba(221,221,221,0.14901960784313725)" d="M170 65h1" />
<path stroke="rgba(223,255,223,0.03137254901960784)" d="M28 66h1M174 67h1" />
<path stroke="rgba(153,221,187,0.058823529411764705)" d="M29 66h1" />
<path stroke="#ea2250" d="M65 66h1" />
<path stroke="#831e4d" d="M82 66h1M108 67h1" />
<path stroke="#422e3c" d="M83 66h1" />
<path stroke="#333238" d="M84 66h2M117 66h2M83 67h9M112 67h8M83 68h15M106 68h14M83 69h17M103 69h17M86 70h15M103 70h14M92 71h8M103 71h8M97 72h2M104 72h2M84 81h11M107 81h10M85 82h30M87 83h5M93 83h1M108 83h6M92 84h3M107 84h2M93 85h3M106 85h3M94 86h1M106 86h2M99 92h1M101 92h1M98 93h2M101 93h2" />
<path stroke="#353238" d="M86 66h1M111 67h1" />
<path stroke="#3c303a" d="M87 66h1M82 67h1" />
<path stroke="#4c2c3f" d="M88 66h1M110 67h1" />
<path stroke="#642645" d="M89 66h1" />
<path stroke="#861d4e" d="M90 66h1" />
<path stroke="#b11259" d="M91 66h1M120 66h1" />
<path stroke="#db0764" d="M92 66h1M105 67h1" />
<path stroke="#e90468" d="M110 66h1" />
<path stroke="#d10a61" d="M111 66h1" />
<path stroke="#b3125a" d="M112 66h1" />
<path stroke="#961952" d="M113 66h1M96 67h1" />
<path stroke="#79204a" d="M114 66h1" />
<path stroke="#5b2843" d="M115 66h1M120 67h1" />
<path stroke="#432e3c" d="M116 66h1M117 70h1" />
<path stroke="#692446" d="M119 66h1" />
<path stroke="#f21459" d="M137 66h1" />
<path stroke="#cf8683" d="M138 66h1" />
<path stroke="rgba(230,246,238,0.11764705882352941)" d="M171 66h1" />
<path stroke="rgba(187,238,204,0.058823529411764705)" d="M172 66h1" />
<path stroke="rgba(170,227,198,0.03529411764705882)" d="M173 66h1" />
<path stroke="rgba(223,255,237,0.2196078431372549)" d="M28 67h1" />
<path stroke="#e43d58" d="M63 67h1" />
<path stroke="#f60363" d="M64 67h1M19 93h1" />
<path stroke="#363139" d="M92 67h1" />
<path stroke="#402f3b" d="M93 67h1" />
<path stroke="#542a41" d="M94 67h1" />
<path stroke="#712248" d="M95 67h1" />
<path stroke="#c30e5e" d="M97 67h1" />
<path stroke="#ed0369" d="M98 67h1" />
<path stroke="#f3026a" d="M104 67h1" />
<path stroke="#bf0f5d" d="M106 67h1" />
<path stroke="#a21655" d="M107 67h1" />
<path stroke="#662545" d="M109 67h1" />
<path stroke="#ee2a56" d="M139 67h1" />
<path stroke="#cfb3ab" d="M140 67h1" />
<path stroke="rgba(195,240,210,0.06666666666666667)" d="M25 68h1" />
<path stroke="rgba(207,239,223,0.12549019607843137)" d="M26 68h1" />
<path stroke="#d56772" d="M61 68h1" />
<path stroke="#f20959" d="M62 68h1M36 83h1" />
<path stroke="#373139" d="M82 68h1" />
<path stroke="#37363c" d="M98 68h1" />
<path stroke="#43434b" d="M99 68h1" />
<path stroke="#7b8290" d="M100 68h1" />
<path stroke="#9ca7b6" d="M101 68h1" />
<path stroke="#8c95a5" d="M102 68h1" />
<path stroke="#5d606b" d="M103 68h1" />
<path stroke="#474850" d="M104 68h1" />
<path stroke="#39383f" d="M105 68h1" />
<path stroke="#4f2b3f" d="M120 68h1" />
<path stroke="#e3455a" d="M141 68h1" />
<path stroke="#b6b4b1" d="M142 68h1" />
<path stroke="rgba(245,245,245,0.10196078431372549)" d="M175 68h1" />
<path stroke="rgba(207,239,223,0.06274509803921569)" d="M176 68h1" />
<path stroke="rgba(243,255,255,0.08235294117647059)" d="M24 69h1" />
<path stroke="rgba(206,247,225,0.36470588235294116)" d="M25 69h1" />
<path stroke="#ca9797" d="M59 69h1" />
<path stroke="#ef1352" d="M60 69h1M41 80h1" />
<path stroke="#5e2743" d="M82 69h1M83 70h1" />
<path stroke="#414149" d="M100 69h1" />
<path stroke="#808896" d="M101 69h1" />
<path stroke="#5a5d68" d="M102 69h1" />
<path stroke="#901a50" d="M120 69h1" />
<path stroke="#f40b5d" d="M142 69h1" />
<path stroke="#e27b79" d="M143 69h1" />
<path stroke="rgba(191,230,204,0.0784313725490196)" d="M177 69h1" />
<path stroke="rgba(234,255,234,0.047058823529411764)" d="M21 70h1" />
<path stroke="rgba(219,246,237,0.10980392156862745)" d="M22 70h1" />
<path stroke="rgba(241,248,241,0.1411764705882353)" d="M23 70h1" />
<path stroke="#bdadab" d="M57 70h1" />
<path stroke="#e92751" d="M58 70h1" />
<path stroke="#c70d5f" d="M82 70h1" />
<path stroke="#38383e" d="M84 70h1M99 72h1" />
<path stroke="#35343a" d="M85 70h1" />
<path stroke="#211f24" d="M101 70h1" />
<path stroke="#36363c" d="M102 70h1" />
<path stroke="#5d2743" d="M118 70h1" />
<path stroke="#8f1b50" d="M119 70h1" />
<path stroke="#de0765" d="M120 70h1" />
<path stroke="#f01a57" d="M144 70h1M168 203h1" />
<path stroke="#c08d8c" d="M145 70h1" />
<path stroke="rgba(181,190,185,0.21568627450980393)" d="M178 70h1" />
<path stroke="rgba(186,186,186,0.10196078431372549)" d="M179 70h1" />
<path stroke="rgba(198,227,227,0.03529411764705882)" d="M180 70h1" />
<path stroke="rgba(236,255,246,0.21568627450980393)" d="M21 71h1" />
<path stroke="#dc4b60" d="M56 71h1" />
<path stroke="#a1a8bc" d="M84 71h1" />
<path stroke="#a6a8ac" d="M85 71h1" />
<path stroke="#979594" d="M86 71h1" />
<path stroke="#515055" d="M87 71h1" />
<path stroke="#46454b" d="M88 71h1" />
<path stroke="#403f45" d="M89 71h1" />
<path stroke="#3a393f" d="M90 71h1M112 71h1" />
<path stroke="#343339" d="M91 71h1M100 71h1M111 71h1M96 72h1" />
<path stroke="#1c1a1f" d="M101 71h1" />
<path stroke="#3c3c43" d="M102 71h1" />
<path stroke="#424146" d="M113 71h1" />
<path stroke="#6e6d6e" d="M114 71h1" />
<path stroke="#8e8b8b" d="M115 71h1" />
<path stroke="#97999e" d="M116 71h1" />
<path stroke="#ec3557" d="M146 71h1" />
<path stroke="rgba(217,236,223,0.1568627450980392)" d="M180 71h1" />
<path stroke="rgba(243,255,243,0.08235294117647059)" d="M18 72h1" />
<path stroke="rgba(235,255,242,0.14901960784313725)" d="M19 72h1" />
<path stroke="#d27179" d="M54 72h1" />
<path stroke="#f20b57" d="M55 72h1" />
<path stroke="#a3aabe" d="M84 72h1" />
<path stroke="#c6c5c3" d="M85 72h1M116 72h1M85 74h1M95 74h1M106 74h1M116 74h1M89 78h1M91 78h1M110 78h1M112 78h1" />
<path stroke="#817f82" d="M86 72h1M114 72h1M86 75h1M93 75h1M107 75h1M114 75h1M88 77h1M91 77h1M109 77h1M112 77h1" />
<path stroke="#5e5d63" d="M87 72h3M87 73h4M108 73h4M87 74h4M108 74h6M87 75h4M110 75h4M88 76h4M110 76h3" />
<path stroke="#5c5b61" d="M90 72h1" />
<path stroke="#9a99a1" d="M91 72h1" />
<path stroke="#88878f" d="M92 72h1" />
<path stroke="#5d5b5f" d="M93 72h1" />
<path stroke="#6c6a6c" d="M94 72h1" />
<path stroke="#535256" d="M95 72h1" />
<path stroke="#575963" d="M100 72h1" />
<path stroke="#151318" d="M101 72h1" />
<path stroke="#727784" d="M102 72h1" />
<path stroke="#4b4d55" d="M103 72h1" />
<path stroke="#434247" d="M106 72h1" />
<path stroke="#454449" d="M107 72h1" />
<path stroke="#434248" d="M108 72h1" />
<path stroke="#4a494f" d="M109 72h1" />
<path stroke="#504f55" d="M110 72h1" />
<path stroke="#57565c" d="M111 72h1" />
<path stroke="#b0afb7" d="M112 72h2M91 73h2M112 73h2M91 74h2M91 75h2M108 75h2M108 76h2" />
<path stroke="#cbc8c3" d="M115 72h1M94 73h1M115 73h1M94 74h1M115 74h1M94 75h1M115 75h1" />
<path stroke="#dc5160" d="M148 72h1" />
<path stroke="#aeb0b3" d="M149 72h1" />
<path stroke="rgba(180,187,180,0.1607843137254902)" d="M182 72h1" />
<path stroke="rgba(204,204,204,0.0784313725490196)" d="M183 72h1" />
<path stroke="rgba(223,239,239,0.06274509803921569)" d="M17 73h1M61 240h1" />
<path stroke="rgba(237,255,246,0.32941176470588235)" d="M18 73h1" />
<path stroke="rgba(184,243,213,0.592156862745098)" d="M19 73h1" />
<path stroke="#c09698" d="M52 73h1" />
<path stroke="#ed1a50" d="M53 73h1" />
<path stroke="#a3abbe" d="M84 73h1" />
<path stroke="#cac7c3" d="M85 73h1M95 73h1M116 73h1M90 78h1M111 78h1" />
<path stroke="#646368" d="M86 73h1M107 73h1M86 74h1M107 74h1" />
<path stroke="#636268" d="M93 73h1M114 73h1M93 74h1M114 74h1" />
<path stroke="#8d96a6" d="M96 73h1M99 94h3M98 95h4" />
<path stroke="#343237" d="M97 73h2M104 73h1M97 74h2M104 74h1M97 75h8M97 76h8M98 78h6" />
<path stroke="#1c1a20" d="M99 73h1M103 73h1" />
<path stroke="#141217" d="M100 73h1M102 73h1" />
<path stroke="#131116" d="M101 73h1M99 74h5" />
<path stroke="#8991a0" d="M105 73h1" />
<path stroke="#bbb8b5" d="M106 73h1" />
<path stroke="#f3105b" d="M149 73h1M156 210h1" />
<path stroke="#dc8984" d="M150 73h1" />
<path stroke="rgba(202,205,202,0.30196078431372547)" d="M183 73h1" />
<path stroke="rgba(255,255,255,0.03529411764705882)" d="M14 74h1M64 242h1" />
<path stroke="rgba(204,240,219,0.13725490196078433)" d="M15 74h1" />
<path stroke="rgba(171,227,199,0.25098039215686274)" d="M16 74h1" />
<path stroke="#b5b6b6" d="M24 74h1M11 82h1M23 89h1" />
<path stroke="#e72e53" d="M51 74h1" />
<path stroke="#f70266" d="M52 74h1" />
<path stroke="#a3acbe" d="M84 74h1M84 75h1" />
<path stroke="#a2adbf" d="M96 74h1M105 74h1M96 75h1M105 75h1M96 76h1M105 76h1M84 77h2M95 77h12M116 77h1M84 78h3M94 78h2M107 78h1M115 78h2M84 79h12M107 79h10M84 80h33" />
<path stroke="#ee2356" d="M151 74h1M141 219h1" />
<path stroke="#cba59f" d="M152 74h1" />
<path stroke="rgba(204,240,219,0.19607843137254902)" d="M185 74h1" />
<path stroke="rgba(165,230,197,0.12156862745098039)" d="M186 74h1" />
<path stroke="rgba(159,191,191,0.03137254901960784)" d="M187 74h1M34 224h1" />
<path stroke="rgba(255,255,255,0.1450980392156863)" d="M14 75h1" />
<path stroke="rgba(208,249,227,0.4666666666666667)" d="M15 75h1" />
<path stroke="#db5566" d="M49 75h1" />
<path stroke="#bbbdc1" d="M85 75h1M95 75h1M106 75h1M116 75h1" />
<path stroke="#ea435c" d="M153 75h1" />
<path stroke="#c5bcb7" d="M154 75h1" />
<path stroke="rgba(165,214,181,0.12156862745098039)" d="M187 75h1" />
<path stroke="rgba(223,255,234,0.09411764705882353)" d="M11 76h1" />
<path stroke="rgba(195,236,213,0.21568627450980393)" d="M12 76h1" />
<path stroke="#bab2b6" d="M20 76h1" />
<path stroke="#d0878b" d="M47 76h1" />
<path stroke="#f10d55" d="M48 76h1M29 87h1" />
<path stroke="#a2acbf" d="M84 76h1" />
<path stroke="#a7b0c0" d="M85 76h1M95 76h1M106 76h1M116 76h1" />
<path stroke="#b8b6b4" d="M86 76h1M107 76h1" />
<path stroke="#656469" d="M87 76h1M92 76h1M113 76h1" />
<path stroke="#bab7b4" d="M93 76h1M114 76h1" />
<path stroke="#c9c7c3" d="M94 76h1M115 76h1M93 77h1M114 77h1" />
<path stroke="#f5095f" d="M154 76h1M166 204h1" />
<path stroke="#d8646b" d="M155 76h1" />
<path stroke="#c2c3be" d="M156 76h1" />
<path stroke="rgba(188,206,194,0.16470588235294117)" d="M189 76h1" />
<path stroke="rgba(232,255,245,0.30980392156862746)" d="M11 77h1" />
<path stroke="#c1a1a1" d="M45 77h1" />
<path stroke="#eb1e51" d="M46 77h1" />
<path stroke="#aeb5c0" d="M86 77h1M94 77h1M107 77h1M115 77h1" />
<path stroke="#b9b7b4" d="M87 77h1M108 77h1" />
<path stroke="#646268" d="M89 77h2M110 77h2" />
<path stroke="#bab8b4" d="M92 77h1M113 77h1" />
<path stroke="#f21758" d="M156 77h1" />
<path stroke="#d49b9b" d="M157 77h1" />
<path stroke="#bfbfbb" d="M158 77h1" />
<path stroke="rgba(255,255,255,0.03137254901960784)" d="M7 78h1M70 245h1M86 254h1" />
<path stroke="rgba(231,249,237,0.16470588235294117)" d="M8 78h1" />
<path stroke="rgba(230,240,233,0.27450980392156865)" d="M9 78h1" />
<path stroke="#b7b6b7" d="M42 78h1M45 212h1M108 240h1M99 242h1" />
<path stroke="#bab6b7" d="M43 78h1" />
<path stroke="#e43c58" d="M44 78h1" />
<path stroke="#a7b0bf" d="M87 78h1M93 78h1M108 78h1M114 78h1" />
<path stroke="#babdc1" d="M88 78h1M92 78h1M109 78h1M113 78h1" />
<path stroke="#8891a0" d="M96 78h2M104 78h3M96 79h11M95 81h12M94 83h14M96 84h10M97 85h7M97 86h7" />
<path stroke="#e42a59" d="M158 78h1" />
<path stroke="#b59ea3" d="M159 78h1" />
<path stroke="rgba(208,217,217,0.10588235294117647)" d="M193 78h1" />
<path stroke="rgba(255,255,255,0.15294117647058825)" d="M7 79h1" />
<path stroke="#d75d6b" d="M42 79h1" />
<path stroke="#e4566d" d="M160 79h1" />
<path stroke="rgba(194,194,194,0.08235294117647059)" d="M4 80h1" />
<path stroke="rgba(199,216,207,0.23137254901960785)" d="M5 80h1" />
<path stroke="#b6b8b7" d="M38 80h1M117 234h1" />
<path stroke="#b5bcb9" d="M39 80h1" />
<path stroke="#c69091" d="M40 80h1" />
<path stroke="#f30d5d" d="M161 80h1" />
<path stroke="#c4787d" d="M162 80h1" />
<path stroke="#b5b9b7" d="M166 80h1" />
<path stroke="rgba(133,180,156,0.17254901960784313)" d="M196 80h1" />
<path stroke="rgba(170,170,170,0.023529411764705882)" d="M197 80h1M28 221h1M32 223h1M153 232h1M129 246h1" />
<path stroke="rgba(196,177,177,0.050980392156862744)" d="M3 81h1" />
<path stroke="rgba(195,195,195,0.2823529411764706)" d="M4 81h1" />
<path stroke="#baabaa" d="M38 81h1" />
<path stroke="#e92351" d="M39 81h1" />
<path stroke="#ed205a" d="M163 81h1" />
<path stroke="rgba(255,137,177,0.050980392156862744)" d="M0 82h1" />
<path stroke="rgba(241,138,179,0.1450980392156863)" d="M1 82h1" />
<path stroke="#b8b6b7" d="M34 82h1M174 84h1M20 90h1M155 213h1M176 215h1M168 219h1M166 220h1M163 222h1M143 234h1M116 235h1" />
<path stroke="#b9b9ba" d="M35 82h1" />
<path stroke="#b4c3bd" d="M36 82h1" />
<path stroke="#de445c" d="M37 82h1" />
<path stroke="#e6335c" d="M165 82h1" />
<path stroke="#b6b7b7" d="M170 82h1" />
<path stroke="rgba(191,128,143,0.06274509803921569)" d="M200 82h1" />
<path stroke="rgba(255,132,185,0.22745098039215686)" d="M0 83h1" />
<path stroke="rgba(181,181,180,0.9764705882352941)" d="M4 83h1" />
<path stroke="rgba(180,183,181,0.9921568627450981)" d="M5 83h1" />
<path stroke="#b4b6b5" d="M6 83h1" />
<path stroke="#b6b5b6" d="M34 83h1M13 207h1M189 207h1M17 209h1M182 210h2M41 211h1M159 211h1M157 212h1M180 212h1M21 213h2M176 214h2M152 215h1M28 216h1M30 216h1M172 216h1M32 218h1M162 222h1M158 224h1M156 226h1M129 227h1M126 229h1M116 236h1M109 240h1" />
<path stroke="#d16f79" d="M35 83h1" />
<path stroke="#f50761" d="M166 83h1M41 208h1M149 214h1" />
<path stroke="#d76172" d="M167 83h1" />
<path stroke="rgba(146,146,146,0.054901960784313725)" d="M201 83h1" />
<path stroke="#b4b5b2" d="M3 84h1" />
<path stroke="#b4b4b3" d="M4 84h1" />
<path stroke="#b8b4b6" d="M7 84h1M195 203h1M42 224h2M57 232h1" />
<path stroke="#b6bcba" d="M32 84h1" />
<path stroke="#c09896" d="M33 84h1" />
<path stroke="#ed1651" d="M34 84h1" />
<path stroke="#c0747b" d="M169 84h1" />
<path stroke="#a6b5ad" d="M170 84h1" />
<path stroke="#bbb8ba" d="M173 84h1M42 210h1" />
<path stroke="#b9aeae" d="M31 85h1" />
<path stroke="#e62e53" d="M32 85h1" />
<path stroke="#f9016c" d="M96 85h1M104 85h1" />
<path stroke="#f52365" d="M105 85h1" />
<path stroke="#e92759" d="M170 85h1" />
<path stroke="#bfa2a3" d="M171 85h1" />
<path stroke="#afb9b5" d="M0 86h1" />
<path stroke="#b0b8b5" d="M1 86h1" />
<path stroke="#b3b6b5" d="M2 86h1M153 213h1M53 231h1" />
<path stroke="#b5b8b7" d="M28 86h1" />
<path stroke="#b4bcb9" d="M29 86h1" />
<path stroke="#db5163" d="M30 86h1" />
<path stroke="#ffce09" d="M95 86h1M105 86h1M95 87h1M104 87h3M96 88h2M104 88h2M96 89h2M103 89h2M97 90h2M102 90h3M97 91h2M102 91h2M97 92h1M102 92h1" />
<path stroke="#f3853f" d="M96 86h1" />
<path stroke="#ee6457" d="M104 86h1" />
<path stroke="#dc415d" d="M172 86h1" />
<path stroke="#89b098" d="M173 86h1" />
<path stroke="#cc777e" d="M28 87h1" />
<path stroke="#ffcd09" d="M94 87h1" />
<path stroke="#ffce0a" d="M96 87h1M96 90h1M103 92h1" />
<path stroke="#645443" d="M97 87h1M103 87h1" />
<path stroke="#464241" d="M98 87h5M99 88h3M99 89h3M99 90h3M97 96h3M102 96h3M97 97h3M102 97h3M94 98h2M105 98h2M94 99h2M105 99h2M94 100h2M100 100h2M105 100h2M94 101h2M100 101h2M105 101h2M94 102h2M100 102h2M105 102h2M94 103h2M100 103h2M105 103h2M94 104h2M100 104h2M105 104h2" />
<path stroke="#f40a5f" d="M173 87h1M66 222h1M75 227h1" />
<path stroke="#c56871" d="M174 87h1" />
<path stroke="#bbb5b9" d="M175 87h1" />
<path stroke="#b9b9b9" d="M25 88h1M92 238h1" />
<path stroke="#beaaa8" d="M26 88h1" />
<path stroke="#ec1b50" d="M27 88h1" />
<path stroke="#f61767" d="M94 88h1" />
<path stroke="#ffcd0a" d="M95 88h1" />
<path stroke="#484341" d="M98 88h1M102 88h1" />
<path stroke="#c58e48" d="M103 88h1" />
<path stroke="#fa6d3b" d="M106 88h1" />
<path stroke="#f01959" d="M175 88h1" />
<path stroke="#c68c92" d="M176 88h1" />
<path stroke="#b8b7b8" d="M201 88h1M32 205h1" />
<path stroke="#b9b8b9" d="M202 88h1M114 236h1" />
<path stroke="#b5b2b0" d="M24 89h1" />
<path stroke="#e33254" d="M25 89h1" />
<path stroke="#ee6158" d="M95 89h1M105 89h1" />
<path stroke="#796144" d="M98 89h1" />
<path stroke="#7e6644" d="M102 89h1" />
<path stroke="#29282d" d="M106 89h3M108 90h2M109 91h2M120 91h9M105 92h3M110 92h1M119 92h10M107 93h2M111 93h1M119 93h10M108 94h1M111 94h1M119 94h10M108 95h2M111 95h1M119 95h10M109 96h1M111 96h1M119 96h10M109 97h1M111 97h1M119 97h10M109 98h1M111 98h1M119 98h9M109 99h1M111 99h1M108 100h4M108 101h1M110 101h1M67 115h9M127 115h9M67 116h9M127 116h9M69 119h2M132 119h2M69 120h2M93 120h6M101 120h5M132 120h2M69 121h2M93 121h1M95 121h1M97 121h1M101 121h5M132 121h2M69 122h2M93 122h6M104 122h5M132 122h2M69 123h2M93 123h1M95 123h1M97 123h1M101 123h8M132 123h2M69 124h2M93 124h6M101 124h1M108 124h1M132 124h2M69 125h2M101 125h8M114 125h4M132 125h2M69 126h2M93 126h2M96 126h2M99 126h3M108 126h1M114 126h5M132 126h2M71 127h2M93 127h1M95 127h2M98 127h2M101 127h8M112 127h7M130 127h2M71 128h2M93 128h2M96 128h1M98 128h1M100 128h2M108 128h1M112 128h7M130 128h2M71 129h2M93 129h1M95 129h2M98 129h2M101 129h8M112 129h7M130 129h2M71 130h2M112 130h7M130 130h2M71 131h2M92 131h27M130 131h2M110 132h8M92 133h18M71 134h2M130 134h2M71 135h2M92 135h18M130 135h2M68 136h7M128 136h7M68 137h7M94 137h15M128 137h7M72 138h2M129 138h2M72 139h2M93 139h7M129 139h2M72 140h2M93 140h3M129 140h2M72 141h2M93 141h7M129 141h2M72 142h2M93 142h3M129 142h2M96 144h1M96 145h1M70 146h2M96 146h1M131 146h2M70 147h2M96 147h1M131 147h2M96 148h1M96 149h1M96 150h1M70 151h2M96 151h1M131 151h2M70 152h2M96 152h1M131 152h2M96 153h1M96 154h1M96 155h1M96 156h1M96 157h1M100 159h2M100 160h4M100 161h2M96 168h11M96 169h11" />
<path stroke="#47454e" d="M119 89h9M119 90h10M118 91h2M129 91h1M117 92h2M129 92h2M117 93h2M129 93h2M117 94h2M129 94h2M117 95h2M129 95h2M117 96h2M129 96h2M117 97h2M129 97h2M117 98h2M128 98h3M122 99h1M96 106h9M90 107h1M96 107h9M111 107h1M90 108h1M96 108h9M111 108h2M89 109h2M111 109h3M89 110h2M112 110h2M89 111h1M113 111h1M78 113h5M86 113h3M123 113h3M78 114h5M86 114h3M123 114h3M78 115h5M86 115h3M122 115h4M78 116h5M86 116h3M122 116h4M78 117h5M86 117h3M122 117h4M78 118h5M86 118h2M122 118h4M78 119h5M86 119h2M122 119h4M78 120h5M86 120h2M122 120h4M78 121h5M86 121h2M94 121h1M96 121h1M98 121h1M122 121h4M78 122h7M101 122h3M122 122h4M78 123h7M94 123h1M96 123h1M98 123h1M122 123h4M78 124h7M102 124h6M122 124h4M78 125h10M122 125h4M80 126h8M95 126h1M98 126h1M102 126h6M119 126h7M81 127h9M94 127h1M97 127h1M100 127h1M119 127h7M81 128h9M95 128h1M97 128h1M99 128h1M102 128h6M119 128h7M94 129h1M97 129h1M100 129h1M119 129h7M119 130h7M119 131h6M92 132h18M92 134h18M92 136h18M91 139h2M91 140h2M96 140h4M108 140h2M91 141h2M108 141h2M91 142h2M96 142h4M108 142h2M108 143h2M94 144h2M108 144h2M94 145h2M108 145h2M94 146h2M94 147h2M94 148h2M108 148h2M94 149h2M108 149h2M94 150h2M108 150h2M94 151h2M108 151h2M94 152h2M108 152h2M94 153h2M108 153h2M94 154h2M94 155h2M94 156h2M94 157h2M94 159h6M102 159h7M98 160h2M104 160h1M99 161h1M102 161h2M97 162h5M103 162h3M99 163h2M102 163h4M97 164h3M101 164h3M99 165h1M101 165h1M103 165h1M98 166h2M101 166h4M99 167h1M101 167h1M103 167h1M74 173h1M77 173h7M119 173h7M128 173h1M70 174h2M74 174h2M77 174h8M118 174h8M127 174h2M131 174h2M71 176h1M74 176h10M119 176h10M131 176h1M71 177h2M75 177h10M118 177h10M130 177h2M71 179h13M119 179h13M70 180h15M118 180h15M71 182h13M119 182h13M70 183h15M118 183h15M71 185h13M119 185h13M70 186h15M118 186h15M71 188h13M119 188h13M70 189h15M118 189h15M71 191h13M119 191h13M70 192h15M118 192h15M71 194h13M119 194h13M70 195h15M118 195h15M71 197h13M119 197h13M70 198h15M118 198h15M71 200h13M119 200h13M70 201h15M118 201h15M71 203h13M119 203h13M70 204h15M118 204h15M71 206h13M119 206h13M70 207h15M118 207h15M71 209h13M119 209h13M70 210h15M118 210h15M70 211h15M118 211h15M71 213h13M119 213h13M70 214h15M118 214h15" />
<path stroke="#e7355e" d="M177 89h1" />
<path stroke="#baa6a8" d="M178 89h1" />
<path stroke="#c0b9bd" d="M21 90h1" />
<path stroke="#c0c0c0" d="M22 90h1" />
<path stroke="#d7626e" d="M23 90h1" />
<path stroke="#f8096a" d="M95 90h1M105 90h1" />
<path stroke="#d74f65" d="M179 90h1" />
<path stroke="#acbcb4" d="M180 90h1" />
<path stroke="#b2b6b4" d="M20 91h1M143 219h1" />
<path stroke="#c27e81" d="M21 91h1" />
<path stroke="#f00f53" d="M22 91h1" />
<path stroke="#d09777" d="M96 91h1" />
<path stroke="#c1a788" d="M99 91h1M101 91h1" />
<path stroke="#a3abb8" d="M100 91h1M96 92h1M100 92h1M104 92h1M96 93h1M104 93h1M94 94h4M104 94h3M94 95h2M97 95h1M105 95h2M94 96h2M100 96h2M105 96h2M94 97h2M100 97h2M105 97h2M99 98h4M99 99h4" />
<path stroke="#cc917f" d="M104 91h1" />
<path stroke="#f20f5c" d="M180 91h1M91 236h1" />
<path stroke="#ce7882" d="M181 91h1" />
<path stroke="#adadac" d="M182 91h1" />
<path stroke="#c7b2b1" d="M19 92h1" />
<path stroke="#e82350" d="M20 92h1" />
<path stroke="#ffcd0b" d="M98 92h1" />
<path stroke="#e82056" d="M182 92h1" />
<path stroke="#938e80" d="M183 92h1" />
<path stroke="#b6b9b8" d="M17 93h1" />
<path stroke="#e23c58" d="M18 93h1" />
<path stroke="#adaaa8" d="M97 93h1" />
<path stroke="#8992a1" d="M100 93h1M98 94h1M102 94h2M102 95h2" />
<path stroke="#969495" d="M103 93h1" />
<path stroke="#e13b5d" d="M184 93h1" />
<path stroke="#bfabb1" d="M185 93h1" />
<path stroke="#b5b7b6" d="M186 93h1M85 234h1" />
<path stroke="#d36672" d="M16 94h1" />
<path stroke="#d36876" d="M186 94h1" />
<path stroke="#b783a6" d="M96 95h1M104 95h1" />
<path stroke="#f0175a" d="M187 95h1M64 221h1" />
<path stroke="#c29a9d" d="M188 95h1" />
<path stroke="#141416" d="M123 99h3M122 100h4M122 101h4M122 102h4M125 103h1M122 113h1M122 114h1" />
<path stroke="#949ca9" d="M81 102h13M96 102h4M102 102h3M107 102h15M78 103h16M96 103h4M102 103h3M107 103h18M77 104h17M96 104h4M102 104h3M107 104h19M64 105h1M69 105h65M138 105h1M71 106h4M92 106h4M105 106h5M128 106h4M61 107h3M72 107h3M92 107h4M105 107h5M128 107h3M139 107h3M59 108h5M73 108h2M92 108h4M105 108h5M128 108h2M139 108h5M59 109h5M73 109h2M92 109h4M105 109h5M128 109h2M139 109h5M59 110h5M73 110h2M92 110h4M105 110h5M128 110h2M139 110h5M59 111h5M72 111h3M92 111h2M107 111h3M128 111h3M139 111h5M61 112h3M71 112h23M108 112h24M139 112h3M63 113h1M67 113h8M83 113h3M116 113h3M128 113h8M139 113h1M68 114h7M83 114h3M116 114h3M128 114h7M83 115h3M116 115h3M83 116h3M116 116h3M67 117h9M83 117h3M116 117h3M127 117h9M67 118h9M83 118h3M88 118h3M110 118h4M116 118h3M127 118h9M67 119h2M71 119h5M83 119h3M88 119h3M110 119h4M116 119h3M127 119h5M134 119h2M67 120h2M71 120h5M83 120h3M88 120h3M110 120h4M116 120h3M127 120h5M134 120h2M67 121h2M71 121h5M83 121h3M88 121h2M111 121h3M116 121h3M127 121h5M134 121h2M67 122h2M71 122h5M85 122h5M111 122h6M127 122h5M134 122h2M67 123h2M71 123h5M85 123h5M111 123h6M127 123h5M134 123h2M67 124h2M71 124h5M85 124h5M111 124h6M127 124h5M134 124h2M67 125h2M71 125h5M88 125h2M111 125h3M127 125h5M134 125h2M67 126h2M71 126h5M88 126h2M111 126h3M127 126h5M134 126h2M68 127h3M73 127h2M128 127h2M132 127h3M68 128h3M73 128h2M128 128h2M132 128h3M68 129h3M73 129h2M128 129h2M132 129h3M68 130h3M73 130h2M128 130h2M132 130h3M68 131h3M73 131h2M128 131h2M132 131h3M68 132h7M128 132h7M68 133h7M128 133h7M68 134h3M73 134h2M128 134h2M132 134h3M68 135h3M73 135h2M128 135h2M132 135h3M69 138h3M131 138h3M69 139h3M131 139h3M69 140h3M131 140h3M69 141h3M131 141h3M70 142h2M131 142h2M70 143h3M130 143h3M70 144h3M130 144h3M70 145h3M130 145h3M72 146h1M130 146h1M72 147h1M130 147h1M70 148h3M130 148h3M70 149h3M130 149h3M70 150h3M130 150h3M72 151h1M130 151h1M72 152h1M130 152h1M70 153h3M130 153h3M70 154h3M130 154h3" />
<path stroke="#a9bdd5" d="M65 105h2M136 105h2M64 106h3M136 106h3M64 107h3M136 107h3M64 108h3M136 108h3M64 109h3M136 109h3M64 110h3M136 110h3M64 111h3M136 111h3M64 112h3M136 112h3M64 113h3M136 113h3" />
<path stroke="#c9c9cb" d="M67 106h4M132 106h4M67 107h4M77 107h1M125 107h1M132 107h4M67 108h4M77 108h1M125 108h1M132 108h4M67 109h4M77 109h1M125 109h1M132 109h4M67 110h4M77 110h1M125 110h1M132 110h4M67 111h4M132 111h4M67 112h4M132 112h4" />
<path stroke="#929aa7" d="M75 106h1M91 106h1M110 106h1M127 106h1M75 111h1M91 111h1M110 111h1M127 111h1" />
<path stroke="#63666f" d="M76 106h1M90 106h1M111 106h1M126 106h1M75 107h1M110 107h1M127 107h1M75 110h1M110 110h1M127 110h1M76 111h1M90 111h1M111 111h1M126 111h1" />
<path stroke="#44444a" d="M77 106h1M112 106h1M125 106h1M75 108h1M91 108h1M110 108h1M127 108h1M75 109h1M91 109h1M110 109h1M127 109h1" />
<path stroke="#3e3d43" d="M78 106h11M114 106h11M71 107h1M76 107h1M78 107h12M112 107h13M126 107h1M131 107h1M71 108h2M76 108h1M78 108h12M113 108h12M126 108h1M130 108h2M71 109h2M76 109h1M78 109h11M114 109h11M126 109h1M130 109h2M71 110h2M76 110h1M78 110h11M111 110h1M114 110h11M126 110h1M130 110h2M71 111h1M78 111h11M114 111h11M131 111h1" />
<path stroke="#44434a" d="M89 106h1M113 106h1M77 111h1M112 111h1M125 111h1" />
<path stroke="#666973" d="M91 107h1" />
<path stroke="#92abc5" d="M96 109h1M104 109h1" />
<path stroke="#91b0cd" d="M97 109h7M96 110h9M96 111h9M96 112h9M96 113h9M96 114h8M95 115h11M94 116h14M94 117h14M102 170h2M102 171h2M102 172h3M102 173h3M102 174h4M102 175h5M102 176h6M102 177h6M102 178h6M95 179h1M97 179h11M95 180h1M97 180h11M95 181h1M97 181h11M95 182h13M95 183h13M95 184h13M95 185h13M95 186h13M95 187h13M95 188h13M95 189h13M95 190h3M99 190h9M95 191h13M95 192h13M95 193h13M95 194h13M95 195h13M95 196h13M95 197h13M95 198h13M95 199h13" />
<path stroke="#666972" d="M91 110h1" />
<path stroke="#819cb6" d="M94 111h2M105 111h2M94 112h2M105 112h3M92 113h4M105 113h4M92 114h4M105 114h4M91 115h4M106 115h4M91 116h3M108 116h2M91 117h3M108 117h2M91 118h19M91 119h19M91 120h2M99 120h2M106 120h4M90 121h3M99 121h2M106 121h5M90 122h3M99 122h2M109 122h2M90 123h3M99 123h2M109 123h2M90 124h3M99 124h2M109 124h2M90 125h11M109 125h2M90 126h3M109 126h2M90 127h3M109 127h3M90 128h3M109 128h3M90 129h3M109 129h3M90 130h22" />
<path stroke="#9b91a5" d="M75 114h1" />
<path stroke="#a987b7" d="M104 114h1" />
<path stroke="#af7299" d="M127 114h1" />
<path stroke="#e4d9e7" d="M93 137h1M93 138h1M108 138h1M108 139h1M93 143h1M93 144h1M93 145h1M93 146h1M93 147h1M93 148h1M93 149h1M93 150h1M93 151h1M93 152h1M93 153h1M93 154h1M93 155h1M93 156h1M93 157h1M108 157h1" />
<path stroke="#e3e0eb" d="M94 138h14M100 139h8M100 140h8M100 141h8M100 142h8M94 143h14M97 144h1M107 144h1M97 145h1M107 145h1M97 146h1M107 146h2M97 147h1M107 147h2M97 148h1M107 148h1M97 149h1M107 149h1M97 150h1M107 150h1M97 151h1M107 151h1M97 152h1M107 152h1M97 153h1M107 153h1M97 154h1M107 154h2M97 155h1M107 155h2M97 156h1M107 156h1M97 157h1M107 157h1M94 158h14M96 167h1M106 167h1M96 170h3M100 170h2M104 170h3M96 171h3M100 171h2M104 171h3M96 172h2M100 172h2M105 172h2M95 173h3M99 173h3M105 173h3M95 174h1M99 174h3M106 174h2M95 175h1M97 175h5M107 175h1M96 176h6M96 177h6M96 178h6" />
<path stroke="#97a5ba" d="M98 144h1M106 144h1M98 157h1" />
<path stroke="#7f93ab" d="M99 144h7M98 145h9M98 146h9M98 147h9M98 148h9M98 149h9M98 150h9M98 151h9M98 152h9M98 153h9M98 154h9M69 155h5M98 155h9M129 155h5M69 156h5M98 156h9M129 156h5M70 157h3M99 157h7M130 157h3M70 158h3M130 158h3M70 159h3M130 159h3M70 160h3M130 160h3M70 161h3M130 161h3M70 162h3M130 162h3M69 163h5M129 163h5M68 164h6M129 164h6M68 165h6M129 165h6M68 166h8M127 166h8M68 167h8M127 167h8M67 168h10M126 168h10M67 169h10M126 169h10M67 170h3M71 170h3M75 170h2M126 170h2M129 170h3M133 170h3M67 171h3M71 171h3M75 171h2M126 171h2M129 171h3M133 171h3M67 172h3M71 172h3M75 172h1M127 172h1M129 172h3M133 172h3M68 173h2M71 173h3M75 173h1M88 173h6M109 173h6M127 173h1M129 173h3M133 173h2M68 174h2M72 174h2M88 174h6M109 174h6M129 174h2M133 174h2M67 175h3M72 175h2M86 175h8M109 175h8M129 175h2M133 175h3M67 176h4M72 176h2M87 176h7M109 176h7M129 176h2M132 176h4M69 177h2M73 177h2M88 177h6M109 177h6M128 177h2M132 177h2M67 178h4M73 178h2M86 178h8M109 178h8M128 178h2M132 178h4M67 179h1M87 179h7M109 179h7M135 179h1M88 180h6M109 180h6M67 181h2M86 181h8M109 181h8M134 181h2M67 182h1M87 182h7M109 182h7M135 182h1M88 183h6M109 183h6M67 184h2M86 184h8M109 184h8M134 184h2M67 185h1M87 185h7M109 185h7M135 185h1M88 186h6M109 186h6M67 187h2M86 187h8M109 187h8M134 187h2M67 188h1M87 188h7M109 188h7M135 188h1M88 189h6M109 189h6M67 190h2M86 190h8M109 190h8M134 190h2M67 191h1M87 191h7M109 191h7M135 191h1M88 192h6M109 192h6M67 193h2M86 193h8M109 193h8M134 193h2M67 194h1M87 194h7M109 194h7M135 194h1M88 195h6M109 195h6M67 196h2M86 196h8M109 196h8M134 196h2M67 197h1M87 197h7M109 197h7M135 197h1M66 198h1M88 198h6M109 198h6M136 198h1M66 199h3M86 199h8M109 199h8M134 199h3M66 200h2M135 200h2M66 201h1M88 201h8M108 201h7M136 201h1M66 202h3M86 202h10M108 202h9M134 202h3M66 203h2M87 203h9M108 203h8M135 203h2M66 204h1M88 204h8M108 204h7M136 204h1M66 205h3M86 205h10M108 205h9M134 205h3M66 206h2M87 206h9M108 206h8M135 206h2M66 207h1M136 207h1M66 208h3M86 208h9M109 208h8M134 208h3M66 209h2M87 209h8M109 209h7M135 209h2M66 210h1M88 210h7M109 210h6M136 210h1M66 211h1M136 211h1M66 212h1M136 212h1" />
<path stroke="#e3deea" d="M108 156h1" />
<path stroke="#96a5ba" d="M106 157h1" />
<path stroke="#e8aecf" d="M93 158h1" />
<path stroke="#e8afcf" d="M108 158h1" />
<path stroke="#e4dae8" d="M95 160h1M107 160h1M95 161h1M107 161h1M95 162h1M107 162h1M95 163h1M107 163h1M95 164h1M107 164h1M95 165h1M107 165h1M95 166h1M107 166h1M95 167h1M107 167h1M95 168h1M107 168h1M95 169h1M107 169h1M95 170h1M107 170h1M95 171h1M107 171h1M95 172h1M107 172h1" />
<path stroke="#cfcdd7" d="M96 160h1M106 160h1M96 166h1M106 166h1" />
<path stroke="#504e57" d="M97 160h1" />
<path stroke="#4f4d56" d="M105 160h1M97 166h1M105 166h1M98 167h1M104 167h1" />
<path stroke="#85838d" d="M96 161h1M96 165h1M106 165h1" />
<path stroke="#b39d92" d="M97 161h2M104 161h2M102 162h1M96 163h3M101 163h1M100 164h1M104 164h2M97 165h2M100 165h1M102 165h1M104 165h2M100 166h1M100 167h1M102 167h1" />
<path stroke="#87848e" d="M106 161h1" />
<path stroke="#595760" d="M96 162h1M106 162h1M96 164h1M106 164h1" />
<path stroke="#4b4952" d="M106 163h1" />
<path stroke="#b7b4bf" d="M97 167h1M105 167h1" />
<path stroke="#a7feff" d="M99 170h1M99 171h1M98 172h2M98 173h1M97 174h2M96 175h1M95 176h1M95 177h1M95 178h1" />
<path stroke="#686572" d="M70 172h1M74 172h1M77 172h9M117 172h9M128 172h1M132 172h1M70 173h1M84 173h3M94 173h1M108 173h1M116 173h3M132 173h1M67 174h1M85 174h3M94 174h1M108 174h1M115 174h3M135 174h1M70 175h2M74 175h12M94 175h1M108 175h1M117 175h12M131 175h2M84 176h3M94 176h1M108 176h1M116 176h3M67 177h2M85 177h3M94 177h1M108 177h1M115 177h3M134 177h2M71 178h2M75 178h11M94 178h1M108 178h1M117 178h11M130 178h2M68 179h3M84 179h3M94 179h1M108 179h1M116 179h3M132 179h3M67 180h3M85 180h3M94 180h1M108 180h1M115 180h3M133 180h3M69 181h17M94 181h1M108 181h1M117 181h17M68 182h3M84 182h3M94 182h1M108 182h1M116 182h3M132 182h3M67 183h3M85 183h3M94 183h1M108 183h1M115 183h3M133 183h3M69 184h17M94 184h1M108 184h1M117 184h17M68 185h3M84 185h3M94 185h1M108 185h1M116 185h3M132 185h3M67 186h3M85 186h3M94 186h1M108 186h1M115 186h3M133 186h3M69 187h17M94 187h1M108 187h1M117 187h17M68 188h3M84 188h3M94 188h1M108 188h1M116 188h3M132 188h3M67 189h3M85 189h3M94 189h1M108 189h1M115 189h3M133 189h3M69 190h17M94 190h1M108 190h1M117 190h17M68 191h3M84 191h3M94 191h1M108 191h1M116 191h3M132 191h3M67 192h3M85 192h3M94 192h1M108 192h1M115 192h3M133 192h3M69 193h17M94 193h1M108 193h1M117 193h17M68 194h3M84 194h3M94 194h1M108 194h1M116 194h3M132 194h3M67 195h3M85 195h3M94 195h1M108 195h1M115 195h3M133 195h3M69 196h17M94 196h1M108 196h1M117 196h17M68 197h3M84 197h3M94 197h1M108 197h1M116 197h3M132 197h3M67 198h3M85 198h3M94 198h1M108 198h1M115 198h3M133 198h3M69 199h17M94 199h1M108 199h1M117 199h17M68 200h3M84 200h10M109 200h10M132 200h3M67 201h3M85 201h3M115 201h3M133 201h3M69 202h17M117 202h17M68 203h3M84 203h3M116 203h3M132 203h3M67 204h3M85 204h3M115 204h3M133 204h3M69 205h17M117 205h17M68 206h3M84 206h3M116 206h3M132 206h3M67 207h3M85 207h9M110 207h8M133 207h3M69 208h17M117 208h17M68 209h3M84 209h3M116 209h3M132 209h3M67 210h3M85 210h3M115 210h3M133 210h3M67 211h3M85 211h10M109 211h9M133 211h3M67 212h21M115 212h21M69 213h2M84 213h2M117 213h2M132 213h2M68 214h2M85 214h2M116 214h2M133 214h2" />
<path stroke="#7e92a9" d="M76 172h1M126 172h1" />
<path stroke="#c34188" d="M67 173h1" />
<path stroke="#717f93" d="M76 173h1M126 173h1" />
<path stroke="#da257c" d="M135 173h1" />
<path stroke="#4e4f5a" d="M76 174h1M126 174h1" />
<path stroke="#e4d1e3" d="M96 174h1" />
<path stroke="#8fadc9" d="M96 179h1M96 180h1" />
<path stroke="#8eabc7" d="M96 181h1M98 190h1" />
<path stroke="#e43b5f" d="M187 192h1" />
<path stroke="#ee1d55" d="M185 193h1" />
<path stroke="#c6949a" d="M186 193h1" />
<path stroke="#f50565" d="M16 194h1" />
<path stroke="#f40b5e" d="M183 194h1M122 230h1" />
<path stroke="#d1696c" d="M184 194h1" />
<path stroke="#baabaf" d="M16 195h1" />
<path stroke="#e43a6f" d="M17 195h1" />
<path stroke="#f80269" d="M18 195h1M27 200h1" />
<path stroke="#e5445a" d="M182 195h1" />
<path stroke="#b7b6b6" d="M17 196h1M39 208h1M153 214h1M174 216h1M57 219h1M73 227h1M76 229h1M105 242h1" />
<path stroke="#bf98a2" d="M18 196h1" />
<path stroke="#e62564" d="M19 196h1" />
<path stroke="#ed2355" d="M180 196h1" />
<path stroke="#c6a09f" d="M181 196h1" />
<path stroke="#bbbabb" d="M19 197h1M33 205h1" />
<path stroke="#ce899b" d="M20 197h1" />
<path stroke="#f01562" d="M21 197h1" />
<path stroke="#b66663" d="M179 197h1" />
<path stroke="#cf6683" d="M22 198h1" />
<path stroke="#f20b62" d="M23 198h1" />
<path stroke="#f60564" d="M176 198h1M115 234h1" />
<path stroke="#e34e5e" d="M177 198h1" />
<path stroke="#dd4f78" d="M24 199h1" />
<path stroke="#f60466" d="M25 199h1" />
<path stroke="#ea2c54" d="M175 199h1" />
<path stroke="#b9a29e" d="M176 199h1" />
<path stroke="#baa6ab" d="M25 200h1" />
<path stroke="#e2366b" d="M26 200h1" />
<path stroke="#f21359" d="M173 200h1" />
<path stroke="#cf8684" d="M174 200h1" />
<path stroke="#b3b4b4" d="M175 200h1" />
<path stroke="#b8b5b7" d="M2 201h1M7 203h1M9 205h1M29 217h1" />
<path stroke="#b7b5b6" d="M3 201h1M11 207h2M185 209h1M19 211h1M181 211h1M156 213h1M25 215h2M29 216h1M30 217h1M168 218h1M107 241h1" />
<path stroke="#bab9ba" d="M26 201h1M48 213h1M84 234h1" />
<path stroke="#c89da8" d="M27 201h1" />
<path stroke="#e72162" d="M28 201h1" />
<path stroke="#dd5a64" d="M172 201h1" />
<path stroke="#bebebe" d="M173 201h1" />
<path stroke="rgba(182,182,182,0.9254901960784314)" d="M0 202h1" />
<path stroke="#c97a8f" d="M29 202h1" />
<path stroke="#ef1462" d="M30 202h1" />
<path stroke="#eb3457" d="M170 202h1" />
<path stroke="#b2b5b3" d="M4 203h1" />
<path stroke="#bab5b7" d="M5 203h2M186 209h1" />
<path stroke="#b8b7b7" d="M28 203h1M42 211h1M46 213h1M49 214h1M151 215h1M80 231h1M115 236h1M111 238h1" />
<path stroke="#d56785" d="M31 203h1" />
<path stroke="#cd918f" d="M169 203h1" />
<path stroke="#bab4b7" d="M196 203h1" />
<path stroke="#b9b4b6" d="M197 203h1" />
<path stroke="#b3b5b4" d="M198 203h1M17 210h1M89 236h1" />
<path stroke="rgba(180,181,180,0.9921568627450981)" d="M6 204h1" />
<path stroke="#b4b5b4" d="M7 204h1M31 219h1M114 237h1" />
<path stroke="#b8b1b3" d="M32 204h1" />
<path stroke="#e34363" d="M33 204h1" />
<path stroke="#da666c" d="M167 204h1" />
<path stroke="rgba(180,181,180,0.996078431372549)" d="M196 204h1" />
<path stroke="rgba(147,178,162,0.12941176470588237)" d="M2 205h1" />
<path stroke="#a2b6ac" d="M7 205h1" />
<path stroke="#c5acaf" d="M34 205h1" />
<path stroke="#ea2f5d" d="M35 205h1" />
<path stroke="#e63d57" d="M165 205h1" />
<path stroke="#b9b4b7" d="M193 205h1" />
<path stroke="#a2b9ad" d="M195 205h1" />
<path stroke="rgba(154,190,170,0.24705882352941178)" d="M200 205h1" />
<path stroke="rgba(164,182,182,0.054901960784313725)" d="M201 205h1M21 216h1" />
<path stroke="rgba(186,181,184,0.9725490196078431)" d="M9 206h1" />
<path stroke="rgba(181,181,181,0.996078431372549)" d="M10 206h1M154 227h1M115 250h1" />
<path stroke="#c89094" d="M36 206h1" />
<path stroke="#ee1d5a" d="M37 206h1" />
<path stroke="#ef1f56" d="M163 206h1" />
<path stroke="#ca9f9d" d="M164 206h1" />
<path stroke="rgba(186,180,183,0.9803921568627451)" d="M193 206h1" />
<path stroke="rgba(182,182,182,0.08235294117647059)" d="M198 206h1" />
<path stroke="rgba(156,184,170,0.07058823529411765)" d="M5 207h1M15 213h1" />
<path stroke="#b8b8b8" d="M36 207h1M51 215h1M53 216h1M55 217h1" />
<path stroke="#bababa" d="M37 207h1" />
<path stroke="#d47d87" d="M38 207h1" />
<path stroke="#f2105c" d="M39 207h1M117 233h1" />
<path stroke="#d27272" d="M162 207h1" />
<path stroke="rgba(131,193,160,0.3058823529411765)" d="M196 207h1" />
<path stroke="rgba(159,186,172,0.1450980392156863)" d="M197 207h1" />
<path stroke="rgba(180,181,180,0.984313725490196)" d="M13 208h1" />
<path stroke="#e05a70" d="M40 208h1" />
<path stroke="#e7485d" d="M160 208h1" />
<path stroke="rgba(166,183,174,0.2235294117647059)" d="M194 208h1" />
<path stroke="rgba(153,204,153,0.0196078431372549)" d="M195 208h1" />
<path stroke="rgba(170,170,170,0.011764705882352941)" d="M8 209h1M43 229h1" />
<path stroke="rgba(183,183,183,0.15294117647058825)" d="M9 209h1" />
<path stroke="#b9b5b7" d="M15 209h2M156 212h1M32 219h1" />
<path stroke="#bcbabb" d="M40 209h1M44 211h1" />
<path stroke="#b7b2b0" d="M41 209h1" />
<path stroke="#df405f" d="M42 209h1" />
<path stroke="#ed2755" d="M158 209h1" />
<path stroke="#c29f9d" d="M159 209h1" />
<path stroke="rgba(180,180,180,0.2)" d="M193 209h1" />
<path stroke="rgba(159,191,175,0.06274509803921569)" d="M194 209h1" />
<path stroke="rgba(174,174,174,0.07450980392156863)" d="M11 210h1" />
<path stroke="#c7a4a9" d="M43 210h1" />
<path stroke="#ec2b5c" d="M44 210h1" />
<path stroke="#ce817d" d="M157 210h1" />
<path stroke="rgba(182,181,181,0.9921568627450981)" d="M184 210h1" />
<path stroke="rgba(170,185,178,0.12941176470588237)" d="M191 210h1" />
<path stroke="rgba(157,177,167,0.10196078431372549)" d="M12 211h1" />
<path stroke="rgba(173,183,173,0.20784313725490197)" d="M13 211h1" />
<path stroke="#b8b5b6" d="M18 211h1" />
<path stroke="#bab8b9" d="M43 211h1M47 213h1" />
<path stroke="#c48d92" d="M45 211h1" />
<path stroke="#ee1a5a" d="M46 211h1" />
<path stroke="#dd535f" d="M155 211h1" />
<path stroke="#a9b7b0" d="M156 211h1" />
<path stroke="#b4b8b6" d="M157 211h1" />
<path stroke="#b9b7b8" d="M158 211h1M118 234h1M109 239h1" />
<path stroke="rgba(171,185,176,0.22745098039215686)" d="M189 211h1M35 224h1" />
<path stroke="rgba(160,182,168,0.13725490196078433)" d="M190 211h1" />
<path stroke="rgba(146,184,165,0.5803921568627451)" d="M16 212h1" />
<path stroke="#bbb9ba" d="M46 212h1M148 216h1M88 236h1M90 237h1" />
<path stroke="#d77581" d="M47 212h1" />
<path stroke="#f30d5e" d="M48 212h1M57 217h1" />
<path stroke="#eb2f56" d="M153 212h1" />
<path stroke="#c5aeaf" d="M154 212h1" />
<path stroke="#bdb8bb" d="M155 212h1" />
<path stroke="rgba(137,179,158,0.4745098039215686)" d="M186 212h1" />
<path stroke="rgba(147,181,164,0.17647058823529413)" d="M16 213h1" />
<path stroke="rgba(163,184,171,0.23921568627450981)" d="M17 213h1" />
<path stroke="#da576c" d="M49 213h1" />
<path stroke="#f50662" d="M50 213h1M93 237h1" />
<path stroke="#f11658" d="M151 213h1" />
<path stroke="#c78683" d="M152 213h1" />
<path stroke="#b9b8b8" d="M154 213h1M112 237h1" />
<path stroke="rgba(138,182,160,0.13725490196078433)" d="M186 213h1" />
<path stroke="rgba(153,187,170,0.058823529411764705)" d="M187 213h1" />
<path stroke="rgba(176,185,176,0.11372549019607843)" d="M18 214h1" />
<path stroke="rgba(180,181,181,0.9921568627450981)" d="M23 214h1" />
<path stroke="#bfb2b2" d="M50 214h1" />
<path stroke="#e73c62" d="M51 214h1" />
<path stroke="#e06169" d="M150 214h1" />
<path stroke="#bfbcbd" d="M151 214h1" />
<path stroke="#bab7b8" d="M152 214h1" />
<path stroke="rgba(182,182,182,0.10980392156862745)" d="M19 215h1M142 238h1" />
<path stroke="rgba(179,179,179,0.2235294117647059)" d="M20 215h1" />
<path stroke="rgba(174,182,176,0.3686274509803922)" d="M21 215h1" />
<path stroke="#c1a1a3" d="M52 215h1" />
<path stroke="#ea295a" d="M53 215h1" />
<path stroke="#e93756" d="M148 215h1" />
<path stroke="rgba(128,159,143,0.06274509803921569)" d="M182 215h1" />
<path stroke="rgba(169,184,175,0.3254901960784314)" d="M22 216h1" />
<path stroke="#ce8b92" d="M54 216h1" />
<path stroke="#f1175b" d="M55 216h1" />
<path stroke="#f01b57" d="M146 216h1" />
<path stroke="#cf9997" d="M147 216h1" />
<path stroke="rgba(170,184,170,0.07058823529411765)" d="M22 217h1" />
<path stroke="rgba(183,183,183,0.12549019607843137)" d="M23 217h1" />
<path stroke="rgba(176,183,179,0.2901960784313726)" d="M24 217h1" />
<path stroke="#d36f7b" d="M56 217h1" />
<path stroke="#d96a6e" d="M145 217h1" />
<path stroke="rgba(156,170,163,0.1411764705882353)" d="M177 217h1" />
<path stroke="rgba(173,173,173,0.09803921568627451)" d="M178 217h1" />
<path stroke="rgba(157,183,170,0.23529411764705882)" d="M25 218h1" />
<path stroke="#acb6b1" d="M30 218h1" />
<path stroke="#bfbbbe" d="M57 218h1" />
<path stroke="#e0526b" d="M58 218h1" />
<path stroke="#e54158" d="M143 218h1" />
<path stroke="#bab9b7" d="M144 218h1" />
<path stroke="#bcb9bb" d="M145 218h1M128 228h1" />
<path stroke="#b9b6b7" d="M169 218h1M159 224h1" />
<path stroke="rgba(153,166,166,0.0784313725490196)" d="M176 218h1" />
<path stroke="rgba(170,191,170,0.047058823529411764)" d="M25 219h1" />
<path stroke="rgba(166,188,177,0.09019607843137255)" d="M26 219h1" />
<path stroke="rgba(182,182,182,0.13725490196078433)" d="M27 219h1" />
<path stroke="#e4395e" d="M60 219h1" />
<path stroke="#be9994" d="M142 219h1" />
<path stroke="rgba(167,176,176,0.11372549019607843)" d="M174 219h1" />
<path stroke="rgba(180,180,180,0.06666666666666667)" d="M175 219h1M156 230h1" />
<path stroke="rgba(153,153,153,0.0196078431372549)" d="M176 219h1" />
<path stroke="rgba(163,184,177,0.1411764705882353)" d="M28 220h1" />
<path stroke="#bebbbd" d="M60 220h1" />
<path stroke="#ed245a" d="M62 220h1" />
<path stroke="#f30e5c" d="M139 220h1" />
<path stroke="#d57879" d="M140 220h1" />
<path stroke="#c1bcbe" d="M141 220h1" />
<path stroke="rgba(145,171,158,0.22745098039215686)" d="M172 220h1" />
<path stroke="rgba(137,177,157,0.050980392156862744)" d="M29 221h1" />
<path stroke="rgba(155,185,170,0.12941176470588237)" d="M30 221h1" />
<path stroke="#c98086" d="M63 221h1" />
<path stroke="#e24c5d" d="M138 221h1" />
<path stroke="#b3b2b2" d="M139 221h1" />
<path stroke="rgba(152,174,163,0.1843137254901961)" d="M170 221h1" />
<path stroke="rgba(175,175,175,0.06274509803921569)" d="M171 221h1" />
<path stroke="rgba(159,159,159,0.03137254901960784)" d="M172 221h1" />
<path stroke="rgba(177,177,177,0.050980392156862744)" d="M31 222h1" />
<path stroke="rgba(183,183,183,0.2901960784313726)" d="M32 222h1" />
<path stroke="#b7b5b5" d="M38 222h1" />
<path stroke="#bebdbe" d="M64 222h1" />
<path stroke="#db6d7c" d="M65 222h1" />
<path stroke="#ed2956" d="M136 222h1" />
<path stroke="rgba(116,162,139,0.12941176470588237)" d="M169 222h1" />
<path stroke="rgba(174,182,178,0.24705882352941178)" d="M34 223h1" />
<path stroke="#b5b3b2" d="M66 223h1" />
<path stroke="#df4b66" d="M67 223h1" />
<path stroke="#f2135a" d="M134 223h1" />
<path stroke="#cf817f" d="M135 223h1" />
<path stroke="rgba(146,182,146,0.027450980392156862)" d="M168 223h1" />
<path stroke="rgba(85,170,170,0.011764705882352941)" d="M169 223h1" />
<path stroke="rgba(177,185,180,0.4117647058823529)" d="M36 224h1" />
<path stroke="#b0b6b3" d="M40 224h1" />
<path stroke="#bbbaba" d="M67 224h1" />
<path stroke="#e8375f" d="M69 224h1" />
<path stroke="#e25864" d="M133 224h1" />
<path stroke="#b9b6b8" d="M160 224h1" />
<path stroke="rgba(174,174,174,0.08627450980392157)" d="M166 224h1" />
<path stroke="rgba(184,184,184,0.09803921568627451)" d="M37 225h1M47 231h1" />
<path stroke="#ed235b" d="M71 225h1" />
<path stroke="#eb3356" d="M131 225h1" />
<path stroke="rgba(168,188,174,0.14901960784313725)" d="M38 226h1" />
<path stroke="#a2baad" d="M43 226h1" />
<path stroke="#afb6b2" d="M44 226h1" />
<path stroke="#c67f84" d="M72 226h1" />
<path stroke="#f1135b" d="M73 226h1" />
<path stroke="#ef185a" d="M129 226h1" />
<path stroke="#c49293" d="M130 226h1" />
<path stroke="rgba(170,175,175,0.2)" d="M162 226h1" />
<path stroke="rgba(185,180,183,0.9882352941176471)" d="M45 227h1" />
<path stroke="rgba(182,181,181,0.996078431372549)" d="M46 227h1" />
<path stroke="#db6275" d="M74 227h1" />
<path stroke="#d86877" d="M128 227h1" />
<path stroke="rgba(174,188,174,0.07450980392156863)" d="M41 228h1" />
<path stroke="rgba(145,190,167,0.2627450980392157)" d="M42 228h1" />
<path stroke="#de4763" d="M76 228h1" />
<path stroke="#e43c5f" d="M126 228h1" />
<path stroke="#bfb5b6" d="M127 228h1" />
<path stroke="rgba(132,170,151,0.10588235294117647)" d="M159 228h1" />
<path stroke="rgba(168,190,179,0.1843137254901961)" d="M44 229h1" />
<path stroke="rgba(182,182,182,0.792156862745098)" d="M46 229h1" />
<path stroke="rgba(181,181,181,0.9921568627450981)" d="M49 229h1" />
<path stroke="#ea305d" d="M78 229h1" />
<path stroke="#ee205a" d="M124 229h1" />
<path stroke="#c4969a" d="M125 229h1" />
<path stroke="rgba(170,198,170,0.03529411764705882)" d="M44 230h1" />
<path stroke="rgba(186,186,186,0.18823529411764706)" d="M45 230h1" />
<path stroke="rgba(183,183,183,0.3215686274509804)" d="M46 230h1" />
<path stroke="#c6989b" d="M79 230h1" />
<path stroke="#ed1f59" d="M80 230h1" />
<path stroke="#d4737f" d="M123 230h1" />
<path stroke="#bcbbbc" d="M124 230h1" />
<path stroke="#d27a84" d="M81 231h1" />
<path stroke="#f2115c" d="M82 231h1" />
<path stroke="#e24865" d="M121 231h1" />
<path stroke="#b8b5b4" d="M122 231h1" />
<path stroke="rgba(165,172,165,0.13333333333333333)" d="M153 231h1" />
<path stroke="rgba(170,191,184,0.1411764705882353)" d="M48 232h1" />
<path stroke="rgba(176,191,184,0.26666666666666666)" d="M49 232h1" />
<path stroke="rgba(185,185,185,0.37254901960784315)" d="M50 232h1" />
<path stroke="#a9bab2" d="M53 232h1" />
<path stroke="#bab3b7" d="M56 232h1" />
<path stroke="#d96172" d="M83 232h1" />
<path stroke="#ec255b" d="M119 232h1" />
<path stroke="rgba(182,182,182,0.16470588235294117)" d="M152 232h1" />
<path stroke="rgba(174,188,181,0.27058823529411763)" d="M51 233h1" />
<path stroke="rgba(180,182,181,0.9568627450980393)" d="M55 233h1" />
<path stroke="#afb7b3" d="M56 233h1" />
<path stroke="#b1b6b3" d="M57 233h1" />
<path stroke="#c3b6b9" d="M84 233h1" />
<path stroke="#e24262" d="M85 233h1" />
<path stroke="#d28089" d="M118 233h1" />
<path stroke="rgba(179,191,179,0.0784313725490196)" d="M51 234h1" />
<path stroke="rgba(157,196,177,0.20392156862745098)" d="M52 234h1" />
<path stroke="rgba(167,191,179,0.3411764705882353)" d="M53 234h1" />
<path stroke="#a1b7ac" d="M57 234h1" />
<path stroke="#aea19d" d="M86 234h1" />
<path stroke="#e62d5a" d="M87 234h1" />
<path stroke="#dc5067" d="M116 234h1" />
<path stroke="rgba(181,181,181,0.21568627450980393)" d="M148 234h1" />
<path stroke="rgba(155,177,166,0.09019607843137255)" d="M149 234h1" />
<path stroke="rgba(185,185,185,0.1568627450980392)" d="M54 235h1" />
<path stroke="#b3b2b3" d="M61 235h1" />
<path stroke="#c0bbbd" d="M87 235h1" />
<path stroke="#d0969c" d="M88 235h1" />
<path stroke="#ef1b5a" d="M89 235h1M107 239h1M98 240h1" />
<path stroke="#eb305d" d="M114 235h1" />
<path stroke="#c3a9ab" d="M115 235h1" />
<path stroke="rgba(181,180,180,0.9921568627450981)" d="M141 235h1" />
<path stroke="rgba(128,166,144,0.1803921568627451)" d="M146 235h1" />
<path stroke="rgba(156,191,170,0.1411764705882353)" d="M55 236h1" />
<path stroke="rgba(136,198,167,0.22745098039215686)" d="M56 236h1" />
<path stroke="#c7747c" d="M90 236h1" />
<path stroke="#f1145b" d="M112 236h1" />
<path stroke="#c9888d" d="M113 236h1" />
<path stroke="rgba(183,179,183,0.25098039215686274)" d="M144 236h1" />
<path stroke="rgba(154,174,161,0.14901960784313725)" d="M145 236h1" />
<path stroke="rgba(128,170,149,0.047058823529411764)" d="M146 236h1" />
<path stroke="rgba(232,250,240,0.396078431372549)" d="M58 237h1" />
<path stroke="#b2b1b2" d="M64 237h1" />
<path stroke="#c0bdbf" d="M91 237h1" />
<path stroke="#e05b71" d="M92 237h1" />
<path stroke="#f50762" d="M110 237h1" />
<path stroke="#dc6174" d="M111 237h1" />
<path stroke="rgba(185,185,185,0.11372549019607843)" d="M143 237h1" />
<path stroke="rgba(170,212,212,0.023529411764705882)" d="M57 238h1" />
<path stroke="rgba(227,246,236,0.10588235294117647)" d="M58 238h1" />
<path stroke="rgba(243,249,243,0.16862745098039217)" d="M59 238h1" />
<path stroke="rgba(236,239,239,0.3215686274509804)" d="M60 238h1" />
<path stroke="rgba(218,236,228,0.6235294117647059)" d="M61 238h1" />
<path stroke="#e04060" d="M94 238h1" />
<path stroke="#e7365e" d="M109 238h1" />
<path stroke="#bcb0af" d="M110 238h1" />
<path stroke="rgba(191,214,203,0.17254901960784313)" d="M141 238h1" />
<path stroke="rgba(230,255,244,0.2784313725490196)" d="M61 239h1" />
<path stroke="rgba(203,238,219,0.5803921568627451)" d="M62 239h1" />
<path stroke="#eb2a5c" d="M96 239h1" />
<path stroke="#cc949a" d="M108 239h1" />
<path stroke="#b7b3b5" d="M133 239h1" />
<path stroke="rgba(190,205,198,0.2784313725490196)" d="M139 239h1" />
<path stroke="rgba(207,241,221,0.1450980392156863)" d="M62 240h1" />
<path stroke="rgba(237,242,237,0.2235294117647059)" d="M63 240h1" />
<path stroke="rgba(236,240,238,0.4823529411764706)" d="M64 240h1" />
<path stroke="#c5898e" d="M97 240h1" />
<path stroke="#f40960" d="M105 240h1" />
<path stroke="#d26875" d="M106 240h1" />
<path stroke="#b3b6b4" d="M107 240h1" />
<path stroke="rgba(175,212,189,0.21176470588235294)" d="M137 240h1" />
<path stroke="rgba(177,184,177,0.1411764705882353)" d="M138 240h1" />
<path stroke="rgba(191,191,191,0.06274509803921569)" d="M139 240h1" />
<path stroke="rgba(255,255,255,0.1607843137254902)" d="M64 241h1" />
<path stroke="rgba(203,248,223,0.4392156862745098)" d="M65 241h1" />
<path stroke="rgba(176,227,200,0.6862745098039216)" d="M66 241h1" />
<path stroke="#afb3b1" d="M71 241h1" />
<path stroke="#b6b1b3" d="M72 241h1" />
<path stroke="#d87582" d="M99 241h1" />
<path stroke="#f40d5e" d="M100 241h1" />
<path stroke="#e54363" d="M104 241h1" />
<path stroke="#c2b5b7" d="M105 241h1" />
<path stroke="#bbb6b8" d="M106 241h1" />
<path stroke="rgba(172,230,198,0.1568627450980392)" d="M136 241h1" />
<path stroke="rgba(194,243,219,0.08235294117647059)" d="M65 242h1" />
<path stroke="rgba(187,229,208,0.19215686274509805)" d="M66 242h1" />
<path stroke="rgba(230,240,235,0.396078431372549)" d="M67 242h1" />
<path stroke="rgba(216,237,225,0.7098039215686275)" d="M68 242h1" />
<path stroke="#db546a" d="M101 242h1" />
<path stroke="#eb265a" d="M102 242h1" />
<path stroke="#be9a9c" d="M103 242h1" />
<path stroke="rgba(182,194,182,0.08235294117647059)" d="M135 242h1" />
<path stroke="rgba(159,223,191,0.03137254901960784)" d="M136 242h1" />
<path stroke="rgba(235,255,245,0.10196078431372549)" d="M67 243h1" />
<path stroke="rgba(238,255,246,0.34901960784313724)" d="M68 243h1" />
<path stroke="rgba(191,244,216,0.5450980392156862)" d="M69 243h1" />
<path stroke="#b4b1b3" d="M75 243h1" />
<path stroke="rgba(144,221,181,0.3254901960784314)" d="M132 243h1" />
<path stroke="rgba(140,217,179,0.0784313725490196)" d="M133 243h1" />
<path stroke="rgba(255,255,255,0.047058823529411764)" d="M68 244h1" />
<path stroke="rgba(241,255,255,0.07058823529411765)" d="M69 244h1" />
<path stroke="rgba(241,251,244,0.2784313725490196)" d="M70 244h1" />
<path stroke="rgba(226,245,235,0.611764705882353)" d="M71 244h1" />
<path stroke="rgba(201,216,208,0.9058823529411765)" d="M72 244h1" />
<path stroke="rgba(198,241,227,0.07058823529411765)" d="M131 244h1" />
<path stroke="rgba(149,234,191,0.047058823529411764)" d="M132 244h1" />
<path stroke="rgba(128,191,191,0.01568627450980392)" d="M133 244h1M110 257h1" />
<path stroke="rgba(233,255,244,0.27058823529411763)" d="M71 245h1" />
<path stroke="rgba(218,236,226,0.4823529411764706)" d="M72 245h1" />
<path stroke="rgba(214,215,215,0.6039215686274509)" d="M73 245h1" />
<path stroke="#b2adb0" d="M78 245h1" />
<path stroke="rgba(187,187,187,0.23529411764705882)" d="M129 245h1" />
<path stroke="rgba(191,255,191,0.01568627450980392)" d="M130 245h1" />
<path stroke="rgba(219,255,219,0.027450980392156862)" d="M71 246h1" />
<path stroke="rgba(235,255,235,0.050980392156862744)" d="M72 246h1" />
<path stroke="rgba(255,255,255,0.13333333333333333)" d="M73 246h1" />
<path stroke="rgba(233,249,242,0.4627450980392157)" d="M74 246h1" />
<path stroke="rgba(199,235,216,0.8196078431372549)" d="M75 246h1" />
<path stroke="rgba(194,235,214,0.09803921568627451)" d="M127 246h1" />
<path stroke="rgba(179,204,179,0.0392156862745098)" d="M128 246h1" />
<path stroke="rgba(237,255,249,0.16862745098039217)" d="M74 247h1" />
<path stroke="rgba(200,242,220,0.4)" d="M75 247h1" />
<path stroke="rgba(202,227,214,0.5803921568627451)" d="M76 247h1" />
<path stroke="#b9b2b6" d="M119 247h1" />
<path stroke="rgba(191,220,205,0.1411764705882353)" d="M126 247h1" />
<path stroke="rgba(220,246,229,0.11372549019607843)" d="M76 248h1" />
<path stroke="rgba(252,255,252,0.3333333333333333)" d="M77 248h1" />
<path stroke="rgba(218,246,230,0.6705882352941176)" d="M78 248h1" />
<path stroke="rgba(174,201,188,0.07450980392156863)" d="M124 248h1" />
<path stroke="rgba(255,255,255,0.09411764705882353)" d="M77 249h1" />
<path stroke="rgba(217,252,234,0.2901960784313726)" d="M78 249h1" />
<path stroke="rgba(169,229,199,0.4627450980392157)" d="M79 249h1" />
<path stroke="#b2b0b1" d="M85 249h1" />
<path stroke="rgba(170,221,187,0.058823529411764705)" d="M123 249h1" />
<path stroke="rgba(207,243,223,0.25098039215686274)" d="M80 250h1" />
<path stroke="rgba(242,248,243,0.6)" d="M81 250h1" />
<path stroke="rgba(149,202,175,0.18823529411764706)" d="M120 250h1" />
<path stroke="rgba(247,255,251,0.24705882352941178)" d="M81 251h1" />
<path stroke="rgba(239,239,239,0.37254901960784315)" d="M82 251h1" />
<path stroke="rgba(220,220,220,0.5411764705882353)" d="M83 251h1" />
<path stroke="rgba(176,223,199,0.3411764705882353)" d="M118 251h1" />
<path stroke="rgba(133,223,175,0.18823529411764706)" d="M119 251h1" />
<path stroke="rgba(128,212,170,0.023529411764705882)" d="M120 251h1" />
<path stroke="rgba(255,255,255,0.09803921568627451)" d="M83 252h1" />
<path stroke="rgba(239,255,248,0.45098039215686275)" d="M84 252h1" />
<path stroke="rgba(214,237,224,0.796078431372549)" d="M85 252h1" />
<path stroke="rgba(223,239,223,0.06274509803921569)" d="M117 252h1" />
<path stroke="rgba(237,255,243,0.16470588235294117)" d="M84 253h1" />
<path stroke="rgba(221,244,232,0.34901960784313724)" d="M85 253h1" />
<path stroke="rgba(226,233,229,0.4549019607843137)" d="M86 253h1" />
<path stroke="rgba(219,222,221,0.6666666666666666)" d="M87 253h1" />
<path stroke="rgba(179,182,179,0.30196078431372547)" d="M115 253h1" />
<path stroke="rgba(201,201,201,0.12941176470588237)" d="M116 253h1" />
<path stroke="rgba(252,255,255,0.2980392156862745)" d="M87 254h1" />
<path stroke="rgba(213,250,230,0.6431372549019608)" d="M88 254h1" />
<path stroke="rgba(191,232,209,0.2196078431372549)" d="M113 254h1" />
<path stroke="rgba(255,255,255,0.09019607843137255)" d="M87 255h1" />
<path stroke="rgba(209,247,226,0.23921568627450981)" d="M88 255h1" />
<path stroke="rgba(196,235,213,0.40784313725490196)" d="M89 255h1" />
<path stroke="rgba(223,231,226,0.592156862745098)" d="M90 255h1" />
<path stroke="rgba(184,194,189,0.21176470588235294)" d="M112 255h1" />
<path stroke="rgba(182,237,219,0.054901960784313725)" d="M113 255h1" />
<path stroke="rgba(250,255,250,0.2196078431372549)" d="M90 256h1" />
<path stroke="rgba(240,255,248,0.5372549019607843)" d="M91 256h1" />
<path stroke="rgba(187,242,214,0.7647058823529411)" d="M92 256h1" />
<path stroke="rgba(153,224,184,0.09803921568627451)" d="M110 256h1" />
<path stroke="rgba(239,255,239,0.06274509803921569)" d="M90 257h1" />
<path stroke="rgba(250,255,255,0.1843137254901961)" d="M91 257h1" />
<path stroke="rgba(233,251,240,0.27058823529411763)" d="M92 257h1" />
<path stroke="rgba(222,243,232,0.48627450980392156)" d="M93 257h1" />
<path stroke="rgba(177,188,180,0.2549019607843137)" d="M108 257h1" />
<path stroke="rgba(160,219,189,0.13725490196078433)" d="M109 257h1" />
<path stroke="rgba(255,255,255,0.10980392156862745)" d="M93 258h1" />
<path stroke="rgba(246,255,253,0.4392156862745098)" d="M94 258h1" />
<path stroke="#b7bab9" d="M99 258h1" />
<path stroke="rgba(181,181,181,0.3254901960784314)" d="M106 258h1" />
<path stroke="rgba(182,182,182,0.054901960784313725)" d="M107 258h1" />
<path stroke="rgba(255,255,255,0.023529411764705882)" d="M93 259h1" />
<path stroke="rgba(240,255,248,0.13333333333333333)" d="M94 259h1" />
<path stroke="rgba(238,246,242,0.23137254901960785)" d="M95 259h1" />
<path stroke="rgba(237,237,237,0.33725490196078434)" d="M96 259h1" />
<path stroke="rgba(225,234,230,0.6313725490196078)" d="M97 259h1" />
<path stroke="rgba(206,225,214,0.26666666666666666)" d="M104 259h1" />
<path stroke="rgba(191,202,197,0.18823529411764706)" d="M105 259h1" />
<path stroke="rgba(181,181,181,0.09411764705882353)" d="M106 259h1" />
<path stroke="rgba(255,255,255,0.10196078431372549)" d="M96 260h1" />
<path stroke="rgba(244,255,248,0.4392156862745098)" d="M97 260h1" />
<path stroke="rgba(217,245,231,0.792156862745098)" d="M98 260h1" />
<path stroke="rgba(201,219,210,0.3333333333333333)" d="M103 260h1" />
</svg>