<svg id="Layer_2" data-name="Layer 2" xmlns="http://www.w3.org/2000/svg" viewBox="0 0 1200 1200"><defs><style>.cls-1{fill:#edb35f;}.cls-2{fill:#fff;}.cls-3{fill:#15003e;}.cls-4{fill:#0ece7c;}.cls-5{fill:#25e899;}.cls-6{fill:#7c4906;}.cls-7{fill:#231f20;}.cls-8{opacity:0.13;isolation:isolate;}</style></defs><title>obi_wan</title><g id="Layer_63" data-name="Layer 63"><polygon class="cls-1" points="1110.5 893.13 599.99 1187.87 89.5 893.13 89.5 303.64 599.99 8.9 1110.5 303.64 1110.5 893.13"/></g><path class="cls-2" d="M1029,356.21V845.67l-.09.09-.18.09-3.78,2.21-3.41,2-5.71,3.22-38.22,22-.1.09-1.2.73-.55.28-5.06,2.95-7.38,4.14-.91.56L958,886.56l-10.42,6-7.82,4.52L932.9,901l-2.2,1.21-1.21.45-1,.65-9.21,5.25-.28.18-18.42,10.6L895.88,922l-1.3.74-.27.18-1.29.74-.09.09-9.58,5.43-.37.27-.64.38L871.65,936l-4.14,2.39-.09.09-.1.1h-.09l-3.87,2.21-10.32,6-8,4.78-10.87,6.17-.73.47-1.11.64-.37.28-.37.18-.18.09-.92.56-2.68,1.56-.27.09-1.47.83v.09l-3.69,2.12-2.48,1.48-1,.56-1.65.82-.19.18-.37.18-6.35,3.6-.56.37-2.2,1.29-.19.08-2.67,1.57-1.38.74-2,1.2L799.07,978H799l-3.86,2.3-2.67,1.57-.27.19-2.77,1.56-12.53,7.27-4.6,2.68-2.3,1.29-6.45,3.67-.28.19h-.09l-2.85,1.66-.47.28-2.2,1.38-7.75,4.42-5.8,3.32-.55.27-4.6,2.68c-.09.09-.09.09-.09,0l-4.89,2.85-2.67,1.57-7,4.05-.47.27-.45.28-.27.09a.1.1,0,0,1-.1.1l-.18.18-2.31,1.28-9.21,5.35-1.56.92-.37.18-3.5,2-13.08,7.54-3.32,1.94-.83.46-2.21,1.28-7.36,4.25-2.4,1.37-2.58,1.48-.09.1-1.84,1.1-2.13,1.2-3.22,1.84-7.64,4.42-.09.09-.83.46-12.16,7-.19.09-7.27,4.23L633,1074h-.09l-13,7.46-.19.19-2.3,1.29-5.15,3h-.09l-1.21.73-1.74,1-2.49,1.48h-.09l-1.85,1.1-.55-.28-10.49-6.08-.19-.09-1.85-1.09-7.82-4.52-.28-.09-3-1.75-.09-.1-12.9-7.45-.09-.1-.18-.09-12.62-7.28-.28-.17h-.09l-7.64-4.43-.55-.37-3.14-1.75-1.66-1-.18-.09-6.08-3.51-.37-.27-.82-.47-.93-.54-1.2-.64-2.48-1.48-1.11-.65h-.09l-6.63-3.86-2.22-1.21-3.58-2.11-.46-.28-.28-.18L502,1030.8h-.1l-1-.65-3.41-2h-.09l-2.49-1.48-5.71-3.31-.28-.1-.55-.36-.37-.18-11.88-6.91-3.59-2.12-6.27-3.6-5.33-3-1-.55-9.21-5.34-15.84-9.21c-.1-.09-.19-.19-.28-.19l-12.16-7-36.1-20.82-1.48-.82-5.24-3-4.34-2.49-4-2.39-2.76-1.56-3.51-2-9.11-5.34-.37-.18-25.24-14.64-.91-.56-1.67-.92-6.17-3.51-7.55-4.32-.83-.46L308.5,919l-.09-.09-.73-.46h-.09l-1.11-.65h-.09l-2.86-1.65-6.72-3.87c-.09-.09-.09-.09-.19-.09l-17.13-9.95-9.39-5.44-19.43-11.33-.84-.46L248,883.9a.29.29,0,0,1-.19-.09l-2.59-1.48-4.87-2.77-7.56-4.41-.55-.37h-.18l-4.52-2.67-6.44-3.68-6.27-3.6-11.23-6.54-.92-.55h-.1l-3-1.75-3.77-2.22h-.1l-4-2.3-9.12-5.24-.73-.38-.27-.18V356.21l7.17-4.14,14.65-8.47,3.32-2,31.13-17.95,9.77-5.61,53.23-30.78h.1l8.37-4.79,9.68-5.7,16.76-9.68h.1l8-4.7,33.44-19.16,5.9-3.49,8.66-5,1.56-.83,15.29-8.74,7.18-4.15,3.5-2,4.06-2.4,6.17-3.59,4-2.39,4.79-2.77,4.61-2.58,5.43-3.13,10.95-6.27,6.36-3.77,6.91-4,6-3.41h.09l.46-.27,4-2.3,48.72-28.1,1-.56.74-.45,2.48-1.48L587,122.26l5.06-2.94,13.27-7.65,4.7,2.75,10,5.81,26.35,15.21,28.46,16.47,23.94,13.82,2,1.21L744,191.8l9,5.25,47.25,27.26,8.38,4.8,9.57,5.61,21.2,12.07,8,4.61,6.35,3.68,7.65,4.41,4.51,2.59,5.34,3.13,2.77,1.57,7.36,4.23.83.55,16.68,9.58,19.89,11.43,10.31,6,4.61,2.68.37.27v.09l2.4,1.29,6.07,3.59L956,314.21l17.86,10.32,7.19,4,4,2.31,4.52,2.59L1003,341.2l1.56.92,7.83,4.51Z"/><path class="cls-3" d="M729.22,1066.81l14.42-8.29.66,1.14a27.87,27.87,0,0,1,3.09,7.5,17.48,17.48,0,0,1,0,7,18.3,18.3,0,0,1-9.22,12.57,19.6,19.6,0,0,1-15.58,1.93A21,21,0,0,1,707.88,1063a20.42,20.42,0,0,1,9.88-12.76,20.63,20.63,0,0,1,8.6-2.72,25.32,25.32,0,0,1,9.78,1.56l-1.69,5.77q-7.59-3.25-13.75.29a14.36,14.36,0,0,0-7.09,9.18,14.68,14.68,0,0,0,1.66,11.56,14.2,14.2,0,0,0,9.7,7.19,14.5,14.5,0,0,0,10.51-1.38,12.14,12.14,0,0,0,5.46-6.62,10.84,10.84,0,0,0-.16-8.31l-8.72,5Z"/><rect class="cls-3" x="762.3" y="1026.91" width="6.07" height="40.27" transform="translate(-420.49 521.84) rotate(-29.95)"/><polygon class="cls-3" points="790.84 1015.68 808.06 1045.63 802.81 1048.66 785.57 1018.72 777.55 1023.34 774.7 1018.39 795.98 1006.14 798.82 1011.09 790.84 1015.68"/><path class="cls-3" d="M838.35,984.24l3.58,6.23q-6.78-1.2-11.65,1.61a13.94,13.94,0,0,0-6.85,9.08,15.05,15.05,0,0,0,1.71,11.54,14.71,14.71,0,0,0,9,7.14,14.2,14.2,0,0,0,11.27-1.46,13,13,0,0,0,4.19-3.62,15.63,15.63,0,0,0,1.55-2.51,33.75,33.75,0,0,0,1.39-3.28l3.66,6.36a21.88,21.88,0,0,1-8,8,20.26,20.26,0,0,1-15.76,2.13,20,20,0,0,1-12.59-9.67,20.76,20.76,0,0,1-2.42-14.43,20.19,20.19,0,0,1,10.35-14.47,20.52,20.52,0,0,1,10.56-2.69"/><path class="cls-2" d="M863.87,982.67A19.76,19.76,0,0,1,862,966.92a20.61,20.61,0,0,1,9.89-12.74,21.05,21.05,0,0,1,28.59,7.7,19.77,19.77,0,0,1,2,15.87,21.31,21.31,0,0,1-24.84,15.08q-8.91-1.76-13.73-10.16m5.34-3a14.94,14.94,0,0,0,27.53-3.27A15.65,15.65,0,0,0,886,957.68a14.17,14.17,0,0,0-11.37,1.49,14.37,14.37,0,0,0-7,9.08,14.55,14.55,0,0,0,1.57,11.43"/><rect class="cls-3" x="918.73" y="936.85" width="6.08" height="40.26" transform="translate(-354.79 588.37) rotate(-29.97)"/><polygon class="cls-3" points="954.88 961.15 933.43 923.87 974.21 935.85 960.25 911.59 965.51 908.57 986.82 945.6 946.08 933.68 960.14 958.12 954.88 961.15"/><rect class="cls-3" x="675.19" y="433.84" width="13.91" height="13.91"/><rect class="cls-3" x="466.5" y="447.76" width="13.91" height="13.91"/><rect class="cls-3" x="452.58" y="475.58" width="13.91" height="13.92"/><rect class="cls-3" x="452.58" y="461.67" width="13.91" height="13.91"/><rect class="cls-3" x="689.1" y="447.76" width="13.91" height="13.91"/><rect class="cls-3" x="689.1" y="503.41" width="13.91" height="13.91"/><rect class="cls-3" x="689.1" y="517.32" width="13.91" height="13.91"/><rect class="cls-4" x="536.06" y="433.84" width="13.91" height="13.91"/><rect class="cls-5" x="536.06" y="586.89" width="13.91" height="13.91"/><rect class="cls-5" x="522.14" y="586.89" width="13.92" height="13.91"/><rect class="cls-5" x="508.23" y="586.89" width="13.91" height="13.91"/><rect class="cls-5" x="494.32" y="586.89" width="13.91" height="13.91"/><rect class="cls-5" x="494.32" y="572.97" width="13.91" height="13.92"/><rect class="cls-5" x="494.32" y="559.06" width="13.91" height="13.91"/><rect class="cls-5" x="480.41" y="559.06" width="13.91" height="13.91"/><rect class="cls-5" x="522.14" y="559.06" width="13.92" height="13.91"/><rect class="cls-5" x="563.89" y="559.06" width="13.91" height="13.91"/><rect class="cls-5" x="605.62" y="559.06" width="13.92" height="13.91"/><rect class="cls-5" x="619.54" y="559.06" width="13.91" height="13.91"/><rect class="cls-5" x="605.62" y="586.89" width="13.92" height="13.91"/><rect class="cls-5" x="591.71" y="586.89" width="13.91" height="13.91"/><rect class="cls-5" x="577.8" y="586.89" width="13.91" height="13.91"/><rect class="cls-5" x="563.89" y="586.89" width="13.91" height="13.91"/><rect class="cls-5" x="549.98" y="586.89" width="13.91" height="13.91"/><rect class="cls-5" x="647.37" y="559.06" width="13.91" height="13.91"/><rect class="cls-5" x="647.37" y="586.89" width="13.91" height="13.91"/><rect class="cls-5" x="661.28" y="586.89" width="13.91" height="13.91"/><rect class="cls-5" x="661.28" y="572.97" width="13.91" height="13.92"/><rect class="cls-5" x="661.28" y="559.06" width="13.91" height="13.91"/><rect class="cls-5" x="633.46" y="586.89" width="13.91" height="13.91"/><rect class="cls-5" x="619.54" y="586.89" width="13.91" height="13.91"/><rect class="cls-2" x="633.46" y="475.58" width="13.91" height="13.92"/><rect class="cls-2" x="619.54" y="475.58" width="13.91" height="13.92"/><rect class="cls-3" x="981.28" y="712.11" width="13.92" height="13.91"/><rect class="cls-3" x="981.28" y="698.2" width="13.92" height="13.91"/><rect class="cls-3" x="981.28" y="684.28" width="13.92" height="13.91"/><rect class="cls-3" x="967.37" y="739.93" width="13.91" height="13.91"/><rect class="cls-3" x="967.37" y="726.02" width="13.91" height="13.91"/><rect class="cls-3" x="967.37" y="712.11" width="13.91" height="13.91"/><rect class="cls-3" x="967.37" y="698.2" width="13.91" height="13.91"/><rect class="cls-3" x="967.37" y="684.28" width="13.91" height="13.91"/><rect class="cls-3" x="967.37" y="670.37" width="13.91" height="13.91"/><rect class="cls-3" x="967.37" y="656.45" width="13.91" height="13.92"/><rect class="cls-3" x="953.45" y="739.93" width="13.91" height="13.91"/><rect class="cls-3" x="953.45" y="698.2" width="13.91" height="13.91"/><rect class="cls-3" x="953.45" y="684.28" width="13.91" height="13.91"/><rect class="cls-3" x="953.45" y="656.45" width="13.91" height="13.92"/><rect class="cls-3" x="939.54" y="739.93" width="13.91" height="13.91"/><rect class="cls-3" x="939.54" y="698.2" width="13.91" height="13.91"/><rect class="cls-3" x="939.54" y="656.45" width="13.91" height="13.92"/><rect class="cls-3" x="925.63" y="753.84" width="13.91" height="13.92"/><rect class="cls-3" x="925.63" y="739.93" width="13.91" height="13.91"/><rect class="cls-3" x="925.63" y="712.11" width="13.91" height="13.91"/><rect class="cls-3" x="925.63" y="698.2" width="13.91" height="13.91"/><rect class="cls-3" x="925.63" y="656.45" width="13.91" height="13.92"/><rect class="cls-3" x="911.72" y="753.84" width="13.91" height="13.92"/><rect class="cls-3" x="911.72" y="712.11" width="13.91" height="13.91"/><rect class="cls-3" x="911.72" y="698.2" width="13.91" height="13.91"/><rect class="cls-3" x="911.72" y="656.45" width="13.91" height="13.92"/><rect class="cls-3" x="897.8" y="753.84" width="13.92" height="13.92"/><rect class="cls-3" x="897.8" y="712.11" width="13.92" height="13.91"/><rect class="cls-3" x="897.8" y="698.2" width="13.92" height="13.91"/><rect class="cls-3" x="897.8" y="656.45" width="13.92" height="13.92"/><rect class="cls-3" x="883.89" y="767.76" width="13.91" height="13.91"/><rect class="cls-3" x="883.89" y="753.84" width="13.91" height="13.92"/><rect class="cls-3" x="883.89" y="712.11" width="13.91" height="13.91"/><rect class="cls-3" x="883.89" y="670.37" width="13.91" height="13.91"/><rect class="cls-3" x="883.89" y="656.45" width="13.91" height="13.92"/><rect class="cls-3" x="869.97" y="767.76" width="13.91" height="13.91"/><rect class="cls-3" x="869.97" y="753.84" width="13.91" height="13.92"/><rect class="cls-3" x="869.97" y="670.37" width="13.91" height="13.91"/><rect class="cls-3" x="869.97" y="656.45" width="13.91" height="13.92"/><rect class="cls-3" x="856.06" y="837.32" width="13.91" height="13.91"/><rect class="cls-3" x="856.06" y="823.41" width="13.91" height="13.91"/><rect class="cls-3" x="856.06" y="809.5" width="13.91" height="13.91"/><rect class="cls-3" x="856.06" y="795.59" width="13.91" height="13.91"/><rect class="cls-3" x="856.06" y="767.76" width="13.91" height="13.91"/><rect class="cls-3" x="856.06" y="753.84" width="13.91" height="13.92"/><rect class="cls-3" x="856.06" y="670.37" width="13.91" height="13.91"/><rect class="cls-3" x="856.06" y="656.45" width="13.91" height="13.92"/><rect class="cls-3" x="842.15" y="837.32" width="13.91" height="13.91"/><rect class="cls-3" x="842.15" y="823.41" width="13.91" height="13.91"/><rect class="cls-3" x="842.15" y="809.5" width="13.91" height="13.91"/><rect class="cls-3" x="842.15" y="795.59" width="13.91" height="13.91"/><rect class="cls-3" x="842.15" y="781.68" width="13.91" height="13.91"/><rect class="cls-3" x="842.15" y="767.76" width="13.91" height="13.91"/><rect class="cls-3" x="842.15" y="753.84" width="13.91" height="13.92"/><rect class="cls-3" x="842.15" y="739.93" width="13.91" height="13.91"/><rect class="cls-3" x="842.15" y="726.02" width="13.91" height="13.91"/><rect class="cls-3" x="842.15" y="684.28" width="13.91" height="13.91"/><rect class="cls-3" x="842.15" y="670.37" width="13.91" height="13.91"/><rect class="cls-3" x="842.15" y="656.45" width="13.91" height="13.92"/><rect class="cls-3" x="828.24" y="837.32" width="13.91" height="13.91"/><rect class="cls-3" x="828.24" y="823.41" width="13.91" height="13.91"/><rect class="cls-6" x="828.24" y="809.5" width="13.91" height="13.91"/><rect class="cls-6" x="828.24" y="795.59" width="13.91" height="13.91"/><rect class="cls-6" x="828.24" y="781.68" width="13.91" height="13.91"/><rect class="cls-3" x="828.24" y="767.76" width="13.91" height="13.91"/><rect class="cls-3" x="828.24" y="726.02" width="13.91" height="13.91"/><rect class="cls-3" x="828.24" y="712.11" width="13.91" height="13.91"/><rect class="cls-3" x="828.24" y="698.2" width="13.91" height="13.91"/><rect class="cls-3" x="828.24" y="684.28" width="13.91" height="13.91"/><rect class="cls-6" x="828.24" y="670.37" width="13.91" height="13.91"/><rect class="cls-3" x="828.24" y="656.45" width="13.91" height="13.92"/><rect class="cls-3" x="814.33" y="837.32" width="13.91" height="13.91"/><rect class="cls-3" x="814.33" y="823.41" width="13.91" height="13.91"/><rect class="cls-6" x="814.33" y="809.5" width="13.91" height="13.91"/><rect class="cls-6" x="814.33" y="795.59" width="13.91" height="13.91"/><rect class="cls-3" x="814.33" y="781.68" width="13.91" height="13.91"/><rect class="cls-3" x="814.33" y="767.76" width="13.91" height="13.91"/><rect class="cls-3" x="814.33" y="684.28" width="13.91" height="13.91"/><rect class="cls-6" x="814.33" y="670.37" width="13.91" height="13.91"/><rect class="cls-3" x="814.33" y="656.45" width="13.91" height="13.92"/><rect class="cls-3" x="800.41" y="837.32" width="13.92" height="13.91"/><rect class="cls-3" x="800.41" y="823.41" width="13.92" height="13.91"/><rect class="cls-6" x="800.41" y="809.5" width="13.92" height="13.91"/><rect class="cls-6" x="800.41" y="795.59" width="13.92" height="13.91"/><rect class="cls-3" x="800.41" y="781.68" width="13.92" height="13.91"/><rect class="cls-3" x="800.41" y="698.2" width="13.92" height="13.91"/><rect class="cls-3" x="800.41" y="684.28" width="13.92" height="13.91"/><rect class="cls-6" x="800.41" y="670.37" width="13.92" height="13.91"/><rect class="cls-3" x="800.41" y="656.45" width="13.92" height="13.92"/><rect class="cls-3" x="786.49" y="837.32" width="13.91" height="13.91"/><rect class="cls-3" x="786.49" y="823.41" width="13.91" height="13.91"/><rect class="cls-6" x="786.49" y="809.5" width="13.91" height="13.91"/><rect class="cls-6" x="786.49" y="795.59" width="13.91" height="13.91"/><rect class="cls-3" x="786.49" y="781.68" width="13.91" height="13.91"/><rect class="cls-3" x="786.49" y="698.2" width="13.91" height="13.91"/><rect class="cls-3" x="786.49" y="684.28" width="13.91" height="13.91"/><rect class="cls-6" x="786.49" y="670.37" width="13.91" height="13.91"/><rect class="cls-3" x="786.49" y="656.45" width="13.91" height="13.92"/><rect class="cls-3" x="772.58" y="837.32" width="13.91" height="13.91"/><rect class="cls-3" x="772.58" y="823.41" width="13.91" height="13.91"/><rect class="cls-6" x="772.58" y="809.5" width="13.91" height="13.91"/><rect class="cls-3" x="772.58" y="795.59" width="13.91" height="13.91"/><rect class="cls-3" x="772.58" y="781.68" width="13.91" height="13.91"/><rect class="cls-3" x="772.58" y="767.76" width="13.91" height="13.91"/><rect class="cls-3" x="772.58" y="753.84" width="13.91" height="13.92"/><rect class="cls-3" x="772.58" y="739.93" width="13.91" height="13.91"/><rect class="cls-3" x="772.58" y="726.02" width="13.91" height="13.91"/><rect class="cls-3" x="772.58" y="698.2" width="13.91" height="13.91"/><rect class="cls-3" x="772.58" y="684.28" width="13.91" height="13.91"/><rect class="cls-6" x="772.58" y="670.37" width="13.91" height="13.91"/><rect class="cls-3" x="772.58" y="656.45" width="13.91" height="13.92"/><rect class="cls-3" x="772.58" y="642.54" width="13.91" height="13.91"/><rect class="cls-3" x="772.58" y="628.63" width="13.91" height="13.91"/><rect class="cls-3" x="772.58" y="614.72" width="13.91" height="13.91"/><rect class="cls-3" x="758.67" y="837.32" width="13.91" height="13.91"/><rect class="cls-3" x="758.67" y="823.41" width="13.91" height="13.91"/><rect class="cls-6" x="758.67" y="809.5" width="13.91" height="13.91"/><rect class="cls-3" x="758.67" y="795.59" width="13.91" height="13.91"/><rect class="cls-3" x="758.67" y="767.76" width="13.91" height="13.91"/><rect class="cls-3" x="758.67" y="753.84" width="13.91" height="13.92"/><rect class="cls-3" x="758.67" y="739.93" width="13.91" height="13.91"/><rect class="cls-3" x="758.67" y="726.02" width="13.91" height="13.91"/><rect class="cls-3" x="758.67" y="698.2" width="13.91" height="13.91"/><rect class="cls-6" x="758.67" y="684.28" width="13.91" height="13.91"/><rect class="cls-6" x="758.67" y="670.37" width="13.91" height="13.91"/><rect class="cls-6" x="758.67" y="656.45" width="13.91" height="13.92"/><rect class="cls-6" x="758.67" y="642.54" width="13.91" height="13.91"/><rect class="cls-6" x="758.67" y="628.63" width="13.91" height="13.91"/><rect class="cls-6" x="758.67" y="614.72" width="13.91" height="13.91"/><rect class="cls-3" x="758.67" y="600.8" width="13.91" height="13.91"/><rect class="cls-3" x="758.67" y="586.89" width="13.91" height="13.91"/><rect class="cls-3" x="758.67" y="572.97" width="13.91" height="13.92"/><rect class="cls-3" x="758.67" y="559.06" width="13.91" height="13.91"/><rect class="cls-3" x="744.76" y="837.32" width="13.91" height="13.91"/><rect class="cls-3" x="744.76" y="823.41" width="13.91" height="13.91"/><rect class="cls-6" x="744.76" y="809.5" width="13.91" height="13.91"/><rect class="cls-3" x="744.76" y="795.59" width="13.91" height="13.91"/><rect class="cls-3" x="744.76" y="767.76" width="13.91" height="13.91"/><rect class="cls-5" x="744.76" y="753.84" width="13.91" height="13.92"/><rect class="cls-5" x="744.76" y="739.93" width="13.91" height="13.91"/><rect class="cls-3" x="744.76" y="726.02" width="13.91" height="13.91"/><rect class="cls-3" x="744.76" y="698.2" width="13.91" height="13.91"/><rect class="cls-6" x="744.76" y="684.28" width="13.91" height="13.91"/><rect class="cls-3" x="744.76" y="670.37" width="13.91" height="13.91"/><rect class="cls-3" x="744.76" y="656.45" width="13.91" height="13.92"/><rect class="cls-3" x="744.76" y="642.54" width="13.91" height="13.91"/><rect class="cls-3" x="744.76" y="628.63" width="13.91" height="13.91"/><rect class="cls-3" x="744.76" y="614.72" width="13.91" height="13.91"/><rect class="cls-3" x="744.76" y="600.8" width="13.91" height="13.91"/><rect class="cls-6" x="744.76" y="586.89" width="13.91" height="13.91"/><rect class="cls-6" x="744.76" y="572.97" width="13.91" height="13.92"/><rect class="cls-3" x="744.76" y="559.06" width="13.91" height="13.91"/><rect class="cls-3" x="744.76" y="545.15" width="13.91" height="13.91"/><rect class="cls-3" x="744.76" y="531.24" width="13.91" height="13.91"/><rect class="cls-3" x="744.76" y="517.32" width="13.91" height="13.91"/><rect class="cls-3" x="744.76" y="503.41" width="13.91" height="13.91"/><rect class="cls-3" x="744.76" y="489.5" width="13.91" height="13.91"/><rect class="cls-3" x="744.76" y="475.58" width="13.91" height="13.92"/><rect class="cls-3" x="744.76" y="461.67" width="13.91" height="13.91"/><rect class="cls-3" x="744.76" y="447.76" width="13.91" height="13.91"/><rect class="cls-3" x="744.76" y="433.84" width="13.91" height="13.91"/><rect class="cls-3" x="730.85" y="837.32" width="13.91" height="13.91"/><rect class="cls-3" x="730.85" y="823.41" width="13.91" height="13.91"/><rect class="cls-6" x="730.85" y="809.5" width="13.91" height="13.91"/><rect class="cls-3" x="730.85" y="795.59" width="13.91" height="13.91"/><rect class="cls-3" x="730.85" y="767.76" width="13.91" height="13.91"/><rect class="cls-5" x="730.85" y="753.84" width="13.91" height="13.92"/><rect class="cls-5" x="730.85" y="739.93" width="13.91" height="13.91"/><rect class="cls-3" x="730.85" y="726.02" width="13.91" height="13.91"/><rect class="cls-3" x="730.85" y="712.11" width="13.91" height="13.91"/><rect class="cls-6" x="730.85" y="698.2" width="13.91" height="13.91"/><rect class="cls-6" x="730.85" y="684.28" width="13.91" height="13.91"/><rect class="cls-3" x="730.85" y="670.37" width="13.91" height="13.91"/><rect class="cls-7" x="730.85" y="656.45" width="13.91" height="13.92"/><rect class="cls-7" x="730.85" y="642.54" width="13.91" height="13.91"/><rect class="cls-7" x="730.85" y="628.63" width="13.91" height="13.91"/><rect class="cls-7" x="730.85" y="614.72" width="13.91" height="13.91"/><rect class="cls-3" x="730.85" y="600.8" width="13.91" height="13.91"/><rect class="cls-3" x="730.85" y="586.89" width="13.91" height="13.91"/><rect class="cls-3" x="730.85" y="572.97" width="13.91" height="13.92"/><rect class="cls-3" x="730.85" y="559.06" width="13.91" height="13.91"/><rect class="cls-6" x="730.85" y="545.15" width="13.91" height="13.91"/><rect class="cls-6" x="730.85" y="531.24" width="13.91" height="13.91"/><rect class="cls-6" x="730.85" y="517.32" width="13.91" height="13.91"/><rect class="cls-3" x="730.85" y="503.41" width="13.91" height="13.91"/><rect class="cls-3" x="730.85" y="489.5" width="13.91" height="13.91"/><rect class="cls-3" x="730.85" y="475.58" width="13.91" height="13.92"/><rect class="cls-3" x="730.85" y="461.67" width="13.91" height="13.91"/><rect class="cls-3" x="730.85" y="447.76" width="13.91" height="13.91"/><rect class="cls-3" x="730.85" y="433.84" width="13.91" height="13.91"/><rect class="cls-3" x="730.85" y="419.93" width="13.91" height="13.91"/><rect class="cls-3" x="730.85" y="406.02" width="13.91" height="13.91"/><rect class="cls-3" x="730.85" y="392.11" width="13.91" height="13.91"/><rect class="cls-3" x="716.94" y="837.32" width="13.91" height="13.91"/><rect class="cls-3" x="716.94" y="823.41" width="13.91" height="13.91"/><rect class="cls-6" x="716.94" y="809.5" width="13.91" height="13.91"/><rect class="cls-3" x="716.94" y="795.59" width="13.91" height="13.91"/><rect class="cls-3" x="716.94" y="767.76" width="13.91" height="13.91"/><rect class="cls-3" x="716.94" y="753.84" width="13.91" height="13.92"/><rect class="cls-3" x="716.94" y="739.93" width="13.91" height="13.91"/><rect class="cls-3" x="716.94" y="726.02" width="13.91" height="13.91"/><rect class="cls-3" x="716.94" y="712.11" width="13.91" height="13.91"/><rect class="cls-6" x="716.94" y="698.2" width="13.91" height="13.91"/><rect class="cls-3" x="716.94" y="684.28" width="13.91" height="13.91"/><rect class="cls-7" x="716.94" y="670.37" width="13.91" height="13.91"/><rect class="cls-7" x="716.94" y="656.45" width="13.91" height="13.92"/><rect class="cls-7" x="716.94" y="642.54" width="13.91" height="13.91"/><rect class="cls-7" x="716.94" y="628.63" width="13.91" height="13.91"/><rect class="cls-7" x="716.94" y="614.72" width="13.91" height="13.91"/><rect class="cls-7" x="716.94" y="600.8" width="13.91" height="13.91"/><rect class="cls-7" x="716.94" y="586.89" width="13.91" height="13.91"/><rect class="cls-3" x="716.94" y="572.97" width="13.91" height="13.92"/><rect class="cls-3" x="716.94" y="559.06" width="13.91" height="13.91"/><rect class="cls-3" x="716.94" y="545.15" width="13.91" height="13.91"/><rect class="cls-3" x="716.94" y="531.24" width="13.91" height="13.91"/><rect class="cls-6" x="716.94" y="517.32" width="13.91" height="13.91"/><rect class="cls-6" x="716.94" y="503.41" width="13.91" height="13.91"/><rect class="cls-3" x="716.94" y="489.5" width="13.91" height="13.91"/><rect class="cls-3" x="716.94" y="475.58" width="13.91" height="13.92"/><rect class="cls-6" x="716.94" y="461.67" width="13.91" height="13.91"/><rect class="cls-6" x="716.94" y="447.76" width="13.91" height="13.91"/><rect class="cls-6" x="716.94" y="433.84" width="13.91" height="13.91"/><rect class="cls-6" x="716.94" y="419.93" width="13.91" height="13.91"/><rect class="cls-6" x="716.94" y="406.02" width="13.91" height="13.91"/><rect class="cls-6" x="716.94" y="392.11" width="13.91" height="13.91"/><rect class="cls-3" x="716.94" y="378.19" width="13.91" height="13.92"/><rect class="cls-3" x="716.94" y="364.28" width="13.91" height="13.91"/><rect class="cls-3" x="716.94" y="350.36" width="13.91" height="13.91"/><rect class="cls-3" x="703.01" y="837.32" width="13.92" height="13.91"/><rect class="cls-3" x="703.01" y="823.41" width="13.92" height="13.91"/><rect class="cls-6" x="703.01" y="809.5" width="13.92" height="13.91"/><rect class="cls-3" x="703.01" y="795.59" width="13.92" height="13.91"/><rect class="cls-3" x="703.01" y="781.68" width="13.92" height="13.91"/><rect class="cls-3" x="703.01" y="767.76" width="13.92" height="13.91"/><rect class="cls-3" x="703.01" y="726.02" width="13.92" height="13.91"/><rect class="cls-3" x="703.01" y="712.11" width="13.92" height="13.91"/><rect class="cls-3" x="703.01" y="698.2" width="13.92" height="13.91"/><rect class="cls-3" x="703.01" y="684.28" width="13.92" height="13.91"/><rect class="cls-7" x="703.01" y="670.37" width="13.92" height="13.91"/><rect class="cls-7" x="703.01" y="656.45" width="13.92" height="13.92"/><rect class="cls-7" x="703.01" y="642.54" width="13.92" height="13.91"/><rect class="cls-7" x="703.01" y="628.63" width="13.92" height="13.91"/><rect class="cls-7" x="703.01" y="614.72" width="13.92" height="13.91"/><rect class="cls-7" x="703.01" y="600.8" width="13.92" height="13.91"/><rect class="cls-7" x="703.01" y="586.89" width="13.92" height="13.91"/><rect class="cls-7" x="703.01" y="572.97" width="13.92" height="13.92"/><rect class="cls-7" x="703.01" y="559.06" width="13.92" height="13.91"/><rect class="cls-7" x="703.01" y="545.15" width="13.92" height="13.91"/><rect class="cls-3" x="703.01" y="531.24" width="13.92" height="13.91"/><rect class="cls-3" x="703.01" y="517.32" width="13.92" height="13.91"/><rect class="cls-3" x="703.01" y="503.41" width="13.92" height="13.91"/><rect class="cls-3" x="703.01" y="489.5" width="13.92" height="13.91"/><rect class="cls-3" x="703.01" y="475.58" width="13.92" height="13.92"/><rect class="cls-3" x="703.01" y="461.67" width="13.92" height="13.91"/><rect class="cls-3" x="703.01" y="447.76" width="13.92" height="13.91"/><rect class="cls-3" x="703.01" y="433.84" width="13.92" height="13.91"/><rect class="cls-3" x="703.01" y="419.93" width="13.92" height="13.91"/><rect class="cls-6" x="703.01" y="406.02" width="13.92" height="13.91"/><rect class="cls-6" x="703.01" y="392.11" width="13.92" height="13.91"/><rect class="cls-6" x="703.01" y="378.19" width="13.92" height="13.92"/><rect class="cls-6" x="703.01" y="364.28" width="13.92" height="13.91"/><rect class="cls-3" x="703.01" y="350.36" width="13.92" height="13.91"/><rect class="cls-3" x="703.01" y="336.45" width="13.92" height="13.91"/><rect class="cls-3" x="689.1" y="837.32" width="13.91" height="13.91"/><rect class="cls-3" x="689.1" y="823.41" width="13.91" height="13.91"/><rect class="cls-6" x="689.1" y="809.5" width="13.91" height="13.91"/><rect class="cls-6" x="689.1" y="795.59" width="13.91" height="13.91"/><rect class="cls-6" x="689.1" y="781.68" width="13.91" height="13.91"/><rect class="cls-3" x="689.1" y="767.76" width="13.91" height="13.91"/><rect class="cls-3" x="689.1" y="753.84" width="13.91" height="13.92"/><rect class="cls-3" x="689.1" y="739.93" width="13.91" height="13.91"/><rect class="cls-3" x="689.1" y="726.02" width="13.91" height="13.91"/><rect class="cls-6" x="689.1" y="712.11" width="13.91" height="13.91"/><rect class="cls-3" x="689.1" y="698.2" width="13.91" height="13.91"/><rect class="cls-7" x="689.1" y="684.28" width="13.91" height="13.91"/><rect class="cls-7" x="689.1" y="670.37" width="13.91" height="13.91"/><rect class="cls-7" x="689.1" y="656.45" width="13.91" height="13.92"/><rect class="cls-7" x="689.1" y="642.54" width="13.91" height="13.91"/><rect class="cls-7" x="689.1" y="628.63" width="13.91" height="13.91"/><rect class="cls-7" x="689.1" y="614.72" width="13.91" height="13.91"/><rect class="cls-7" x="689.1" y="600.8" width="13.91" height="13.91"/><rect class="cls-7" x="689.1" y="586.89" width="13.91" height="13.91"/><rect class="cls-7" x="689.1" y="572.97" width="13.91" height="13.92"/><rect class="cls-3" x="689.1" y="559.06" width="13.91" height="13.91"/><rect class="cls-3" x="689.1" y="545.15" width="13.91" height="13.91"/><rect class="cls-3" x="689.1" y="531.24" width="13.91" height="13.91"/><rect class="cls-3" x="689.1" y="433.84" width="13.91" height="13.91"/><rect class="cls-3" x="689.1" y="419.93" width="13.91" height="13.91"/><rect class="cls-3" x="689.1" y="406.02" width="13.91" height="13.91"/><rect class="cls-3" x="689.1" y="392.11" width="13.91" height="13.91"/><rect class="cls-3" x="689.1" y="378.19" width="13.91" height="13.92"/><rect class="cls-6" x="689.1" y="364.28" width="13.91" height="13.91"/><rect class="cls-6" x="689.1" y="350.36" width="13.91" height="13.91"/><rect class="cls-3" x="689.1" y="336.45" width="13.91" height="13.91"/><rect class="cls-3" x="689.1" y="322.54" width="13.91" height="13.91"/><rect class="cls-3" x="675.19" y="837.32" width="13.91" height="13.91"/><rect class="cls-3" x="675.19" y="823.41" width="13.91" height="13.91"/><rect class="cls-6" x="675.19" y="809.5" width="13.91" height="13.91"/><rect class="cls-6" x="675.19" y="795.59" width="13.91" height="13.91"/><rect class="cls-3" x="675.19" y="781.68" width="13.91" height="13.91"/><rect class="cls-3" x="675.19" y="767.76" width="13.91" height="13.91"/><rect class="cls-3" x="675.19" y="753.84" width="13.91" height="13.92"/><rect class="cls-3" x="675.19" y="739.93" width="13.91" height="13.91"/><rect class="cls-6" x="675.19" y="726.02" width="13.91" height="13.91"/><rect class="cls-6" x="675.19" y="712.11" width="13.91" height="13.91"/><rect class="cls-3" x="675.19" y="698.2" width="13.91" height="13.91"/><rect class="cls-7" x="675.19" y="684.28" width="13.91" height="13.91"/><rect class="cls-7" x="675.19" y="670.37" width="13.91" height="13.91"/><rect class="cls-7" x="675.19" y="656.45" width="13.91" height="13.92"/><rect class="cls-3" x="675.19" y="642.54" width="13.91" height="13.91"/><rect class="cls-3" x="675.19" y="628.63" width="13.91" height="13.91"/><rect class="cls-3" x="675.19" y="614.72" width="13.91" height="13.91"/><rect class="cls-3" x="675.19" y="600.8" width="13.91" height="13.91"/><rect class="cls-3" x="675.19" y="586.89" width="13.91" height="13.91"/><rect class="cls-3" x="675.19" y="572.97" width="13.91" height="13.92"/><rect class="cls-3" x="675.19" y="559.06" width="13.91" height="13.91"/><rect class="cls-3" x="675.19" y="545.15" width="13.91" height="13.91"/><rect class="cls-3" x="675.19" y="419.93" width="13.91" height="13.91"/><rect class="cls-3" x="675.19" y="392.11" width="13.91" height="13.91"/><rect class="cls-3" x="675.19" y="378.19" width="13.91" height="13.92"/><rect class="cls-3" x="675.19" y="364.28" width="13.91" height="13.91"/><rect class="cls-6" x="675.19" y="350.36" width="13.91" height="13.91"/><rect class="cls-6" x="675.19" y="336.45" width="13.91" height="13.91"/><rect class="cls-3" x="675.19" y="322.54" width="13.91" height="13.91"/><rect class="cls-3" x="675.19" y="308.63" width="13.91" height="13.91"/><rect class="cls-3" x="661.28" y="837.32" width="13.91" height="13.91"/><rect class="cls-3" x="661.28" y="823.41" width="13.91" height="13.91"/><rect class="cls-6" x="661.28" y="809.5" width="13.91" height="13.91"/><rect class="cls-6" x="661.28" y="795.59" width="13.91" height="13.91"/><rect class="cls-3" x="661.28" y="781.68" width="13.91" height="13.91"/><rect class="cls-3" x="661.28" y="753.84" width="13.91" height="13.92"/><rect class="cls-3" x="661.28" y="739.93" width="13.91" height="13.91"/><rect class="cls-6" x="661.28" y="726.02" width="13.91" height="13.91"/><rect class="cls-6" x="661.28" y="712.11" width="13.91" height="13.91"/><rect class="cls-3" x="661.28" y="698.2" width="13.91" height="13.91"/><rect class="cls-5" x="661.28" y="684.28" width="13.91" height="13.91"/><rect class="cls-5" x="661.28" y="670.37" width="13.91" height="13.91"/><rect class="cls-3" x="661.28" y="656.45" width="13.91" height="13.92"/><rect class="cls-3" x="661.28" y="642.54" width="13.91" height="13.91"/><rect class="cls-3" x="661.28" y="600.8" width="13.91" height="13.91"/><rect class="cls-3" x="661.28" y="545.15" width="13.91" height="13.91"/><rect class="cls-3" x="661.28" y="503.41" width="13.91" height="13.91"/><rect class="cls-3" x="661.28" y="489.5" width="13.91" height="13.91"/><rect class="cls-3" x="661.28" y="475.58" width="13.91" height="13.92"/><rect class="cls-3" x="661.28" y="461.67" width="13.91" height="13.91"/><rect class="cls-3" x="661.28" y="447.76" width="13.91" height="13.91"/><rect class="cls-3" x="661.28" y="433.84" width="13.91" height="13.91"/><rect class="cls-3" x="661.28" y="419.93" width="13.91" height="13.91"/><rect class="cls-3" x="661.28" y="406.02" width="13.91" height="13.91"/><rect class="cls-3" x="661.28" y="378.19" width="13.91" height="13.92"/><rect class="cls-3" x="661.28" y="364.28" width="13.91" height="13.91"/><rect class="cls-3" x="661.28" y="350.36" width="13.91" height="13.91"/><rect class="cls-6" x="661.28" y="336.45" width="13.91" height="13.91"/><rect class="cls-6" x="661.28" y="322.54" width="13.91" height="13.91"/><rect class="cls-3" x="661.28" y="308.63" width="13.91" height="13.91"/><rect class="cls-3" x="647.37" y="837.32" width="13.91" height="13.91"/><rect class="cls-3" x="647.37" y="823.41" width="13.91" height="13.91"/><rect class="cls-6" x="647.37" y="809.5" width="13.91" height="13.91"/><rect class="cls-6" x="647.37" y="795.59" width="13.91" height="13.91"/><rect class="cls-3" x="647.37" y="781.68" width="13.91" height="13.91"/><rect class="cls-3" x="647.37" y="753.84" width="13.91" height="13.92"/><rect class="cls-3" x="647.37" y="739.93" width="13.91" height="13.91"/><rect class="cls-6" x="647.37" y="726.02" width="13.91" height="13.91"/><rect class="cls-6" x="647.37" y="712.11" width="13.91" height="13.91"/><rect class="cls-3" x="647.37" y="698.2" width="13.91" height="13.91"/><rect class="cls-5" x="647.37" y="684.28" width="13.91" height="13.91"/><rect class="cls-5" x="647.37" y="670.37" width="13.91" height="13.91"/><rect class="cls-3" x="647.37" y="656.45" width="13.91" height="13.92"/><rect class="cls-3" x="647.37" y="600.8" width="13.91" height="13.91"/><rect class="cls-3" x="647.37" y="572.97" width="13.91" height="13.92"/><rect class="cls-3" x="647.37" y="545.15" width="13.91" height="13.91"/><rect class="cls-3" x="647.37" y="517.32" width="13.91" height="13.91"/><rect class="cls-3" x="647.37" y="503.41" width="13.91" height="13.91"/><rect class="cls-4" x="647.37" y="489.5" width="13.91" height="13.91"/><rect class="cls-4" x="647.37" y="475.58" width="13.91" height="13.92"/><rect class="cls-4" x="647.37" y="461.67" width="13.91" height="13.91"/><rect class="cls-4" x="647.37" y="447.76" width="13.91" height="13.91"/><rect class="cls-4" x="647.37" y="433.84" width="13.91" height="13.91"/><rect class="cls-4" x="647.37" y="419.93" width="13.91" height="13.91"/><rect class="cls-3" x="647.37" y="406.02" width="13.91" height="13.91"/><rect class="cls-3" x="647.37" y="364.28" width="13.91" height="13.91"/><rect class="cls-3" x="647.37" y="350.36" width="13.91" height="13.91"/><rect class="cls-3" x="647.37" y="336.45" width="13.91" height="13.91"/><rect class="cls-6" x="647.37" y="322.54" width="13.91" height="13.91"/><rect class="cls-3" x="647.37" y="308.63" width="13.91" height="13.91"/><rect class="cls-3" x="647.37" y="294.72" width="13.91" height="13.91"/><rect class="cls-3" x="633.46" y="837.32" width="13.91" height="13.91"/><rect class="cls-3" x="633.46" y="823.41" width="13.91" height="13.91"/><rect class="cls-6" x="633.46" y="809.5" width="13.91" height="13.91"/><rect class="cls-3" x="633.46" y="795.59" width="13.91" height="13.91"/><rect class="cls-3" x="633.46" y="781.68" width="13.91" height="13.91"/><rect class="cls-3" x="633.46" y="767.76" width="13.91" height="13.91"/><rect class="cls-3" x="633.46" y="753.84" width="13.91" height="13.92"/><rect class="cls-3" x="633.46" y="739.93" width="13.91" height="13.91"/><rect class="cls-6" x="633.46" y="726.02" width="13.91" height="13.91"/><rect class="cls-6" x="633.46" y="712.11" width="13.91" height="13.91"/><rect class="cls-3" x="633.46" y="698.2" width="13.91" height="13.91"/><rect class="cls-5" x="633.46" y="684.28" width="13.91" height="13.91"/><rect class="cls-5" x="633.46" y="670.37" width="13.91" height="13.91"/><rect class="cls-3" x="633.46" y="656.45" width="13.91" height="13.92"/><rect class="cls-3" x="633.46" y="600.8" width="13.91" height="13.91"/><rect class="cls-3" x="633.46" y="572.97" width="13.91" height="13.92"/><rect class="cls-3" x="633.46" y="559.06" width="13.91" height="13.91"/><rect class="cls-3" x="633.46" y="545.15" width="13.91" height="13.91"/><rect class="cls-3" x="633.46" y="531.24" width="13.91" height="13.91"/><rect class="cls-3" x="633.46" y="517.32" width="13.91" height="13.91"/><rect class="cls-4" x="633.46" y="503.41" width="13.91" height="13.91"/><rect class="cls-2" x="633.46" y="489.5" width="13.91" height="13.91"/><rect class="cls-4" x="633.46" y="461.67" width="13.91" height="13.91"/><rect class="cls-4" x="633.46" y="447.76" width="13.91" height="13.91"/><rect class="cls-4" x="633.46" y="433.84" width="13.91" height="13.91"/><rect class="cls-4" x="633.46" y="419.93" width="13.91" height="13.91"/><rect class="cls-3" x="633.46" y="406.02" width="13.91" height="13.91"/><rect class="cls-3" x="633.46" y="350.36" width="13.91" height="13.91"/><rect class="cls-3" x="633.46" y="336.45" width="13.91" height="13.91"/><rect class="cls-6" x="633.46" y="322.54" width="13.91" height="13.91"/><rect class="cls-6" x="633.46" y="308.63" width="13.91" height="13.91"/><rect class="cls-3" x="633.46" y="294.72" width="13.91" height="13.91"/><rect class="cls-3" x="619.54" y="837.32" width="13.91" height="13.91"/><rect class="cls-3" x="619.54" y="823.41" width="13.91" height="13.91"/><rect class="cls-6" x="619.54" y="809.5" width="13.91" height="13.91"/><rect class="cls-3" x="619.54" y="795.59" width="13.91" height="13.91"/><rect class="cls-3" x="619.54" y="781.68" width="13.91" height="13.91"/><rect class="cls-3" x="619.54" y="767.76" width="13.91" height="13.91"/><rect class="cls-3" x="619.54" y="753.84" width="13.91" height="13.92"/><rect class="cls-3" x="619.54" y="739.93" width="13.91" height="13.91"/><rect class="cls-6" x="619.54" y="726.02" width="13.91" height="13.91"/><rect class="cls-6" x="619.54" y="712.11" width="13.91" height="13.91"/><rect class="cls-3" x="619.54" y="698.2" width="13.91" height="13.91"/><rect class="cls-5" x="619.54" y="684.28" width="13.91" height="13.91"/><rect class="cls-5" x="619.54" y="670.37" width="13.91" height="13.91"/><rect class="cls-3" x="619.54" y="656.45" width="13.91" height="13.92"/><rect class="cls-3" x="619.54" y="600.8" width="13.91" height="13.91"/><rect class="cls-3" x="619.54" y="572.97" width="13.91" height="13.92"/><rect class="cls-3" x="619.54" y="545.15" width="13.91" height="13.91"/><rect class="cls-4" x="619.54" y="531.24" width="13.91" height="13.91"/><rect class="cls-4" x="619.54" y="517.32" width="13.91" height="13.91"/><rect class="cls-4" x="619.54" y="503.41" width="13.91" height="13.91"/><rect class="cls-2" x="619.54" y="489.5" width="13.91" height="13.91"/><rect class="cls-4" x="619.54" y="461.67" width="13.91" height="13.91"/><rect class="cls-2" x="619.54" y="447.76" width="13.91" height="13.91"/><rect class="cls-2" x="619.54" y="433.84" width="13.91" height="13.91"/><rect class="cls-4" x="619.54" y="419.93" width="13.91" height="13.91"/><rect class="cls-3" x="619.54" y="406.02" width="13.91" height="13.91"/><rect class="cls-3" x="619.54" y="392.11" width="13.91" height="13.91"/><rect class="cls-3" x="619.54" y="350.36" width="13.91" height="13.91"/><rect class="cls-3" x="619.54" y="336.45" width="13.91" height="13.91"/><rect class="cls-6" x="619.54" y="322.54" width="13.91" height="13.91"/><rect class="cls-6" x="619.54" y="308.63" width="13.91" height="13.91"/><rect class="cls-3" x="619.54" y="294.72" width="13.91" height="13.91"/><rect class="cls-3" x="605.62" y="837.32" width="13.92" height="13.91"/><rect class="cls-3" x="605.62" y="823.41" width="13.92" height="13.91"/><rect class="cls-6" x="605.62" y="809.5" width="13.92" height="13.91"/><rect class="cls-3" x="605.62" y="795.59" width="13.92" height="13.91"/><rect class="cls-5" x="605.62" y="781.68" width="13.92" height="13.91"/><rect class="cls-5" x="605.62" y="767.76" width="13.92" height="13.91"/><rect class="cls-3" x="605.62" y="753.84" width="13.92" height="13.92"/><rect class="cls-3" x="605.62" y="739.93" width="13.92" height="13.91"/><rect class="cls-6" x="605.62" y="726.02" width="13.92" height="13.91"/><rect class="cls-6" x="605.62" y="712.11" width="13.92" height="13.91"/><rect class="cls-3" x="605.62" y="698.2" width="13.92" height="13.91"/><rect class="cls-5" x="605.62" y="684.28" width="13.92" height="13.91"/><rect class="cls-5" x="605.62" y="670.37" width="13.92" height="13.91"/><rect class="cls-3" x="605.62" y="656.45" width="13.92" height="13.92"/><rect class="cls-3" x="605.62" y="600.8" width="13.92" height="13.91"/><rect class="cls-3" x="605.62" y="572.97" width="13.92" height="13.92"/><rect class="cls-3" x="605.62" y="545.15" width="13.92" height="13.91"/><rect class="cls-4" x="605.62" y="531.24" width="13.92" height="13.91"/><rect class="cls-4" x="605.62" y="517.32" width="13.92" height="13.91"/><rect class="cls-4" x="605.62" y="503.41" width="13.92" height="13.91"/><rect class="cls-4" x="605.62" y="489.5" width="13.92" height="13.91"/><rect class="cls-4" x="605.62" y="475.58" width="13.92" height="13.92"/><rect class="cls-4" x="605.62" y="461.67" width="13.92" height="13.91"/><rect class="cls-2" x="605.62" y="447.76" width="13.92" height="13.91"/><rect class="cls-2" x="605.62" y="433.84" width="13.92" height="13.91"/><rect class="cls-2" x="605.62" y="419.93" width="13.92" height="13.91"/><rect class="cls-4" x="605.62" y="406.02" width="13.92" height="13.91"/><rect class="cls-3" x="605.62" y="392.11" width="13.92" height="13.91"/><rect class="cls-3" x="605.62" y="350.36" width="13.92" height="13.91"/><rect class="cls-3" x="605.62" y="336.45" width="13.92" height="13.91"/><rect class="cls-3" x="605.62" y="322.54" width="13.92" height="13.91"/><rect class="cls-6" x="605.62" y="308.63" width="13.92" height="13.91"/><rect class="cls-3" x="605.62" y="294.72" width="13.92" height="13.91"/><rect class="cls-3" x="591.71" y="837.32" width="13.91" height="13.91"/><rect class="cls-3" x="591.71" y="823.41" width="13.91" height="13.91"/><rect class="cls-6" x="591.71" y="809.5" width="13.91" height="13.91"/><rect class="cls-3" x="591.71" y="795.59" width="13.91" height="13.91"/><rect class="cls-5" x="591.71" y="781.68" width="13.91" height="13.91"/><rect class="cls-5" x="591.71" y="767.76" width="13.91" height="13.91"/><rect class="cls-3" x="591.71" y="753.84" width="13.91" height="13.92"/><rect class="cls-3" x="591.71" y="739.93" width="13.91" height="13.91"/><rect class="cls-6" x="591.71" y="726.02" width="13.91" height="13.91"/><rect class="cls-6" x="591.71" y="712.11" width="13.91" height="13.91"/><rect class="cls-3" x="591.71" y="698.2" width="13.91" height="13.91"/><rect class="cls-5" x="591.71" y="684.28" width="13.91" height="13.91"/><rect class="cls-5" x="591.71" y="670.37" width="13.91" height="13.91"/><rect class="cls-3" x="591.71" y="656.45" width="13.91" height="13.92"/><rect class="cls-3" x="591.71" y="600.8" width="13.91" height="13.91"/><rect class="cls-3" x="591.71" y="572.97" width="13.91" height="13.92"/><rect class="cls-3" x="591.71" y="559.06" width="13.91" height="13.91"/><rect class="cls-3" x="591.71" y="545.15" width="13.91" height="13.91"/><rect class="cls-4" x="591.71" y="531.24" width="13.91" height="13.91"/><rect class="cls-4" x="591.71" y="517.32" width="13.91" height="13.91"/><rect class="cls-4" x="591.71" y="503.41" width="13.91" height="13.91"/><rect class="cls-4" x="591.71" y="489.5" width="13.91" height="13.91"/><rect class="cls-4" x="591.71" y="475.58" width="13.91" height="13.92"/><rect class="cls-4" x="591.71" y="461.67" width="13.91" height="13.91"/><rect class="cls-2" x="591.71" y="447.76" width="13.91" height="13.91"/><rect class="cls-2" x="591.71" y="433.84" width="13.91" height="13.91"/><rect class="cls-2" x="591.71" y="419.93" width="13.91" height="13.91"/><rect class="cls-4" x="591.71" y="406.02" width="13.91" height="13.91"/><rect class="cls-3" x="591.71" y="392.11" width="13.91" height="13.91"/><rect class="cls-3" x="591.71" y="350.36" width="13.91" height="13.91"/><rect class="cls-3" x="591.71" y="336.45" width="13.91" height="13.91"/><rect class="cls-3" x="591.71" y="322.54" width="13.91" height="13.91"/><rect class="cls-6" x="591.71" y="308.63" width="13.91" height="13.91"/><rect class="cls-3" x="591.71" y="294.72" width="13.91" height="13.91"/><rect class="cls-3" x="577.8" y="837.32" width="13.91" height="13.91"/><rect class="cls-3" x="577.8" y="823.41" width="13.91" height="13.91"/><rect class="cls-6" x="577.8" y="809.5" width="13.91" height="13.91"/><rect class="cls-3" x="577.8" y="795.59" width="13.91" height="13.91"/><rect class="cls-3" x="577.8" y="781.68" width="13.91" height="13.91"/><rect class="cls-3" x="577.8" y="767.76" width="13.91" height="13.91"/><rect class="cls-3" x="577.8" y="753.84" width="13.91" height="13.92"/><rect class="cls-3" x="577.8" y="739.93" width="13.91" height="13.91"/><rect class="cls-6" x="577.8" y="726.02" width="13.91" height="13.91"/><rect class="cls-6" x="577.8" y="712.11" width="13.91" height="13.91"/><rect class="cls-3" x="577.8" y="698.2" width="13.91" height="13.91"/><rect class="cls-5" x="577.8" y="684.28" width="13.91" height="13.91"/><rect class="cls-5" x="577.8" y="670.37" width="13.91" height="13.91"/><rect class="cls-3" x="577.8" y="656.45" width="13.91" height="13.92"/><rect class="cls-3" x="577.8" y="600.8" width="13.91" height="13.91"/><rect class="cls-3" x="577.8" y="572.97" width="13.91" height="13.92"/><rect class="cls-3" x="577.8" y="559.06" width="13.91" height="13.91"/><rect class="cls-3" x="577.8" y="545.15" width="13.91" height="13.91"/><rect class="cls-4" x="577.8" y="531.24" width="13.91" height="13.91"/><rect class="cls-4" x="577.8" y="517.32" width="13.91" height="13.91"/><rect class="cls-4" x="577.8" y="503.41" width="13.91" height="13.91"/><rect class="cls-4" x="577.8" y="489.5" width="13.91" height="13.91"/><rect class="cls-4" x="577.8" y="475.58" width="13.91" height="13.92"/><rect class="cls-4" x="577.8" y="461.67" width="13.91" height="13.91"/><rect class="cls-4" x="577.8" y="447.76" width="13.91" height="13.91"/><rect class="cls-4" x="577.8" y="433.84" width="13.91" height="13.91"/><rect class="cls-4" x="577.8" y="419.93" width="13.91" height="13.91"/><rect class="cls-4" x="577.8" y="406.02" width="13.91" height="13.91"/><rect class="cls-3" x="577.8" y="392.11" width="13.91" height="13.91"/><rect class="cls-3" x="577.8" y="350.36" width="13.91" height="13.91"/><rect class="cls-3" x="577.8" y="336.45" width="13.91" height="13.91"/><rect class="cls-3" x="577.8" y="322.54" width="13.91" height="13.91"/><rect class="cls-6" x="577.8" y="308.63" width="13.91" height="13.91"/><rect class="cls-3" x="577.8" y="294.72" width="13.91" height="13.91"/><rect class="cls-3" x="563.89" y="837.32" width="13.91" height="13.91"/><rect class="cls-3" x="563.89" y="823.41" width="13.91" height="13.91"/><rect class="cls-6" x="563.89" y="809.5" width="13.91" height="13.91"/><rect class="cls-6" x="563.89" y="795.59" width="13.91" height="13.91"/><rect class="cls-6" x="563.89" y="781.68" width="13.91" height="13.91"/><rect class="cls-6" x="563.89" y="767.76" width="13.91" height="13.91"/><rect class="cls-6" x="563.89" y="753.84" width="13.91" height="13.92"/><rect class="cls-3" x="563.89" y="739.93" width="13.91" height="13.91"/><rect class="cls-6" x="563.89" y="726.02" width="13.91" height="13.91"/><rect class="cls-6" x="563.89" y="712.11" width="13.91" height="13.91"/><rect class="cls-3" x="563.89" y="698.2" width="13.91" height="13.91"/><rect class="cls-5" x="563.89" y="684.28" width="13.91" height="13.91"/><rect class="cls-5" x="563.89" y="670.37" width="13.91" height="13.91"/><rect class="cls-3" x="563.89" y="656.45" width="13.91" height="13.92"/><rect class="cls-3" x="563.89" y="600.8" width="13.91" height="13.91"/><rect class="cls-3" x="563.89" y="572.97" width="13.91" height="13.92"/><rect class="cls-3" x="563.89" y="545.15" width="13.91" height="13.91"/><rect class="cls-4" x="563.89" y="531.24" width="13.91" height="13.91"/><rect class="cls-4" x="563.89" y="517.32" width="13.91" height="13.91"/><rect class="cls-4" x="563.89" y="503.41" width="13.91" height="13.91"/><rect class="cls-4" x="563.89" y="489.5" width="13.91" height="13.91"/><rect class="cls-4" x="563.89" y="475.58" width="13.91" height="13.92"/><rect class="cls-4" x="563.89" y="461.67" width="13.91" height="13.91"/><rect class="cls-4" x="563.89" y="447.76" width="13.91" height="13.91"/><rect class="cls-4" x="563.89" y="433.84" width="13.91" height="13.91"/><rect class="cls-4" x="563.89" y="419.93" width="13.91" height="13.91"/><rect class="cls-4" x="563.89" y="406.02" width="13.91" height="13.91"/><rect class="cls-3" x="563.89" y="392.11" width="13.91" height="13.91"/><rect class="cls-3" x="563.89" y="350.36" width="13.91" height="13.91"/><rect class="cls-3" x="563.89" y="336.45" width="13.91" height="13.91"/><rect class="cls-3" x="563.89" y="322.54" width="13.91" height="13.91"/><rect class="cls-6" x="563.89" y="308.63" width="13.91" height="13.91"/><rect class="cls-3" x="563.89" y="294.72" width="13.91" height="13.91"/><rect class="cls-3" x="549.98" y="837.32" width="13.91" height="13.91"/><rect class="cls-3" x="549.98" y="823.41" width="13.91" height="13.91"/><rect class="cls-6" x="549.98" y="809.5" width="13.91" height="13.91"/><rect class="cls-6" x="549.98" y="795.59" width="13.91" height="13.91"/><rect class="cls-6" x="549.98" y="781.68" width="13.91" height="13.91"/><rect class="cls-6" x="549.98" y="767.76" width="13.91" height="13.91"/><rect class="cls-6" x="549.98" y="753.84" width="13.91" height="13.92"/><rect class="cls-3" x="549.98" y="739.93" width="13.91" height="13.91"/><rect class="cls-6" x="549.98" y="726.02" width="13.91" height="13.91"/><rect class="cls-6" x="549.98" y="712.11" width="13.91" height="13.91"/><rect class="cls-3" x="549.98" y="698.2" width="13.91" height="13.91"/><rect class="cls-5" x="549.98" y="684.28" width="13.91" height="13.91"/><rect class="cls-5" x="549.98" y="670.37" width="13.91" height="13.91"/><rect class="cls-3" x="549.98" y="656.45" width="13.91" height="13.92"/><rect class="cls-3" x="549.98" y="600.8" width="13.91" height="13.91"/><rect class="cls-3" x="549.98" y="572.97" width="13.91" height="13.92"/><rect class="cls-3" x="549.98" y="559.06" width="13.91" height="13.91"/><rect class="cls-3" x="549.98" y="545.15" width="13.91" height="13.91"/><rect class="cls-4" x="549.98" y="531.24" width="13.91" height="13.91"/><rect class="cls-4" x="549.98" y="517.32" width="13.91" height="13.91"/><rect class="cls-4" x="549.98" y="503.41" width="13.91" height="13.91"/><rect class="cls-4" x="549.98" y="489.5" width="13.91" height="13.91"/><rect class="cls-4" x="549.98" y="475.58" width="13.91" height="13.92"/><rect class="cls-4" x="549.98" y="461.67" width="13.91" height="13.91"/><rect class="cls-4" x="549.98" y="447.76" width="13.91" height="13.91"/><rect class="cls-4" x="549.98" y="433.84" width="13.91" height="13.91"/><rect class="cls-4" x="549.98" y="419.93" width="13.91" height="13.91"/><rect class="cls-4" x="549.98" y="406.02" width="13.91" height="13.91"/><rect class="cls-3" x="549.98" y="392.11" width="13.91" height="13.91"/><rect class="cls-3" x="549.98" y="350.36" width="13.91" height="13.91"/><rect class="cls-3" x="549.98" y="336.45" width="13.91" height="13.91"/><rect class="cls-3" x="549.98" y="322.54" width="13.91" height="13.91"/><rect class="cls-6" x="549.98" y="308.63" width="13.91" height="13.91"/><rect class="cls-3" x="549.98" y="294.72" width="13.91" height="13.91"/><rect class="cls-3" x="536.06" y="837.32" width="13.91" height="13.91"/><rect class="cls-3" x="536.06" y="823.41" width="13.91" height="13.91"/><rect class="cls-6" x="536.06" y="809.5" width="13.91" height="13.91"/><rect class="cls-6" x="536.06" y="795.59" width="13.91" height="13.91"/><rect class="cls-6" x="536.06" y="781.68" width="13.91" height="13.91"/><rect class="cls-6" x="536.06" y="767.76" width="13.91" height="13.91"/><rect class="cls-6" x="536.06" y="753.84" width="13.91" height="13.92"/><rect class="cls-3" x="536.06" y="739.93" width="13.91" height="13.91"/><rect class="cls-6" x="536.06" y="726.02" width="13.91" height="13.91"/><rect class="cls-6" x="536.06" y="712.11" width="13.91" height="13.91"/><rect class="cls-3" x="536.06" y="698.2" width="13.91" height="13.91"/><rect class="cls-5" x="536.06" y="684.28" width="13.91" height="13.91"/><rect class="cls-5" x="536.06" y="670.37" width="13.91" height="13.91"/><rect class="cls-3" x="536.06" y="656.45" width="13.91" height="13.92"/><rect class="cls-3" x="536.06" y="600.8" width="13.91" height="13.91"/><rect class="cls-3" x="536.06" y="572.97" width="13.91" height="13.92"/><rect class="cls-3" x="536.06" y="559.06" width="13.91" height="13.91"/><rect class="cls-3" x="536.06" y="545.15" width="13.91" height="13.91"/><rect class="cls-4" x="536.06" y="531.24" width="13.91" height="13.91"/><rect class="cls-4" x="536.06" y="517.32" width="13.91" height="13.91"/><rect class="cls-4" x="536.06" y="503.41" width="13.91" height="13.91"/><rect class="cls-4" x="536.06" y="489.5" width="13.91" height="13.91"/><rect class="cls-4" x="536.06" y="475.58" width="13.91" height="13.92"/><rect class="cls-4" x="536.06" y="461.67" width="13.91" height="13.91"/><rect class="cls-4" x="536.06" y="447.76" width="13.91" height="13.91"/><rect class="cls-4" x="536.06" y="419.93" width="13.91" height="13.91"/><rect class="cls-3" x="536.06" y="406.02" width="13.91" height="13.91"/><rect class="cls-3" x="536.06" y="392.11" width="13.91" height="13.91"/><rect class="cls-3" x="536.06" y="350.36" width="13.91" height="13.91"/><rect class="cls-3" x="536.06" y="336.45" width="13.91" height="13.91"/><rect class="cls-3" x="536.06" y="322.54" width="13.91" height="13.91"/><rect class="cls-6" x="536.06" y="308.63" width="13.91" height="13.91"/><rect class="cls-3" x="536.06" y="294.72" width="13.91" height="13.91"/><rect class="cls-3" x="522.14" y="837.32" width="13.92" height="13.91"/><rect class="cls-3" x="522.14" y="823.41" width="13.92" height="13.91"/><rect class="cls-6" x="522.14" y="809.5" width="13.92" height="13.91"/><rect class="cls-6" x="522.14" y="795.59" width="13.92" height="13.91"/><rect class="cls-6" x="522.14" y="781.68" width="13.92" height="13.91"/><rect class="cls-6" x="522.14" y="767.76" width="13.92" height="13.91"/><rect class="cls-6" x="522.14" y="753.84" width="13.92" height="13.92"/><rect class="cls-3" x="522.14" y="739.93" width="13.92" height="13.91"/><rect class="cls-6" x="522.14" y="726.02" width="13.92" height="13.91"/><rect class="cls-6" x="522.14" y="712.11" width="13.92" height="13.91"/><rect class="cls-3" x="522.14" y="698.2" width="13.92" height="13.91"/><rect class="cls-5" x="522.14" y="684.28" width="13.92" height="13.91"/><rect class="cls-5" x="522.14" y="670.37" width="13.92" height="13.91"/><rect class="cls-3" x="522.14" y="656.45" width="13.92" height="13.92"/><rect class="cls-3" x="522.14" y="600.8" width="13.92" height="13.91"/><rect class="cls-3" x="522.14" y="572.97" width="13.92" height="13.92"/><rect class="cls-3" x="522.14" y="545.15" width="13.92" height="13.91"/><rect class="cls-3" x="522.14" y="531.24" width="13.92" height="13.91"/><rect class="cls-4" x="522.14" y="517.32" width="13.92" height="13.91"/><rect class="cls-4" x="522.14" y="503.41" width="13.92" height="13.91"/><rect class="cls-4" x="522.14" y="489.5" width="13.92" height="13.91"/><rect class="cls-4" x="522.14" y="475.58" width="13.92" height="13.92"/><rect class="cls-4" x="522.14" y="461.67" width="13.92" height="13.91"/><rect class="cls-4" x="522.14" y="447.76" width="13.92" height="13.91"/><rect class="cls-4" x="522.14" y="433.84" width="13.92" height="13.91"/><rect class="cls-4" x="522.14" y="419.93" width="13.92" height="13.91"/><rect class="cls-3" x="522.14" y="406.02" width="13.92" height="13.91"/><rect class="cls-3" x="522.14" y="350.36" width="13.92" height="13.91"/><rect class="cls-3" x="522.14" y="336.45" width="13.92" height="13.91"/><rect class="cls-6" x="522.14" y="322.54" width="13.92" height="13.91"/><rect class="cls-6" x="522.14" y="308.63" width="13.92" height="13.91"/><rect class="cls-3" x="522.14" y="294.72" width="13.92" height="13.91"/><rect class="cls-3" x="508.23" y="837.32" width="13.91" height="13.91"/><rect class="cls-3" x="508.23" y="823.41" width="13.91" height="13.91"/><rect class="cls-6" x="508.23" y="809.5" width="13.91" height="13.91"/><rect class="cls-6" x="508.23" y="795.59" width="13.91" height="13.91"/><rect class="cls-6" x="508.23" y="781.68" width="13.91" height="13.91"/><rect class="cls-6" x="508.23" y="767.76" width="13.91" height="13.91"/><rect class="cls-6" x="508.23" y="753.84" width="13.91" height="13.92"/><rect class="cls-3" x="508.23" y="739.93" width="13.91" height="13.91"/><rect class="cls-6" x="508.23" y="726.02" width="13.91" height="13.91"/><rect class="cls-6" x="508.23" y="712.11" width="13.91" height="13.91"/><rect class="cls-3" x="508.23" y="698.2" width="13.91" height="13.91"/><rect class="cls-5" x="508.23" y="684.28" width="13.91" height="13.91"/><rect class="cls-5" x="508.23" y="670.37" width="13.91" height="13.91"/><rect class="cls-3" x="508.23" y="656.45" width="13.91" height="13.92"/><rect class="cls-3" x="508.23" y="600.8" width="13.91" height="13.91"/><rect class="cls-3" x="508.23" y="572.97" width="13.91" height="13.92"/><rect class="cls-3" x="508.23" y="559.06" width="13.91" height="13.91"/><rect class="cls-3" x="508.23" y="545.15" width="13.91" height="13.91"/><rect class="cls-3" x="508.23" y="531.24" width="13.91" height="13.91"/><rect class="cls-3" x="508.23" y="517.32" width="13.91" height="13.91"/><rect class="cls-4" x="508.23" y="503.41" width="13.91" height="13.91"/><rect class="cls-4" x="508.23" y="489.5" width="13.91" height="13.91"/><rect class="cls-4" x="508.23" y="475.58" width="13.91" height="13.92"/><rect class="cls-4" x="508.23" y="461.67" width="13.91" height="13.91"/><rect class="cls-4" x="508.23" y="447.76" width="13.91" height="13.91"/><rect class="cls-4" x="508.23" y="433.84" width="13.91" height="13.91"/><rect class="cls-3" x="508.23" y="419.93" width="13.91" height="13.91"/><rect class="cls-3" x="508.23" y="406.02" width="13.91" height="13.91"/><rect class="cls-3" x="508.23" y="364.28" width="13.91" height="13.91"/><rect class="cls-3" x="508.23" y="350.36" width="13.91" height="13.91"/><rect class="cls-3" x="508.23" y="336.45" width="13.91" height="13.91"/><rect class="cls-6" x="508.23" y="322.54" width="13.91" height="13.91"/><rect class="cls-6" x="508.23" y="308.63" width="13.91" height="13.91"/><rect class="cls-3" x="508.23" y="294.72" width="13.91" height="13.91"/><rect class="cls-3" x="494.32" y="837.32" width="13.91" height="13.91"/><rect class="cls-3" x="494.32" y="823.41" width="13.91" height="13.91"/><rect class="cls-6" x="494.32" y="809.5" width="13.91" height="13.91"/><rect class="cls-6" x="494.32" y="795.59" width="13.91" height="13.91"/><rect class="cls-6" x="494.32" y="781.68" width="13.91" height="13.91"/><rect class="cls-6" x="494.32" y="767.76" width="13.91" height="13.91"/><rect class="cls-6" x="494.32" y="753.84" width="13.91" height="13.92"/><rect class="cls-3" x="494.32" y="739.93" width="13.91" height="13.91"/><rect class="cls-6" x="494.32" y="726.02" width="13.91" height="13.91"/><rect class="cls-6" x="494.32" y="712.11" width="13.91" height="13.91"/><rect class="cls-3" x="494.32" y="698.2" width="13.91" height="13.91"/><rect class="cls-5" x="494.32" y="684.28" width="13.91" height="13.91"/><rect class="cls-5" x="494.32" y="670.37" width="13.91" height="13.91"/><rect class="cls-3" x="494.32" y="656.45" width="13.91" height="13.92"/><rect class="cls-3" x="494.32" y="642.54" width="13.91" height="13.91"/><rect class="cls-3" x="494.32" y="600.8" width="13.91" height="13.91"/><rect class="cls-3" x="494.32" y="545.15" width="13.91" height="13.91"/><rect class="cls-3" x="494.32" y="517.32" width="13.91" height="13.91"/><rect class="cls-3" x="494.32" y="503.41" width="13.91" height="13.91"/><rect class="cls-3" x="494.32" y="489.5" width="13.91" height="13.91"/><rect class="cls-3" x="494.32" y="475.58" width="13.91" height="13.92"/><rect class="cls-3" x="494.32" y="461.67" width="13.91" height="13.91"/><rect class="cls-3" x="494.32" y="447.76" width="13.91" height="13.91"/><rect class="cls-3" x="494.32" y="433.84" width="13.91" height="13.91"/><rect class="cls-3" x="494.32" y="419.93" width="13.91" height="13.91"/><rect class="cls-3" x="494.32" y="378.19" width="13.91" height="13.92"/><rect class="cls-3" x="494.32" y="364.28" width="13.91" height="13.91"/><rect class="cls-3" x="494.32" y="350.36" width="13.91" height="13.91"/><rect class="cls-6" x="494.32" y="336.45" width="13.91" height="13.91"/><rect class="cls-6" x="494.32" y="322.54" width="13.91" height="13.91"/><rect class="cls-3" x="494.32" y="308.63" width="13.91" height="13.91"/><rect class="cls-3" x="494.32" y="294.72" width="13.91" height="13.91"/><rect class="cls-3" x="480.41" y="837.32" width="13.91" height="13.91"/><rect class="cls-3" x="480.41" y="823.41" width="13.91" height="13.91"/><rect class="cls-6" x="480.41" y="809.5" width="13.91" height="13.91"/><rect class="cls-6" x="480.41" y="795.59" width="13.91" height="13.91"/><rect class="cls-6" x="480.41" y="781.68" width="13.91" height="13.91"/><rect class="cls-6" x="480.41" y="767.76" width="13.91" height="13.91"/><rect class="cls-6" x="480.41" y="753.84" width="13.91" height="13.92"/><rect class="cls-3" x="480.41" y="739.93" width="13.91" height="13.91"/><rect class="cls-6" x="480.41" y="726.02" width="13.91" height="13.91"/><rect class="cls-6" x="480.41" y="712.11" width="13.91" height="13.91"/><rect class="cls-3" x="480.41" y="698.2" width="13.91" height="13.91"/><rect class="cls-7" x="480.41" y="684.28" width="13.91" height="13.91"/><rect class="cls-7" x="480.41" y="670.37" width="13.91" height="13.91"/><rect class="cls-7" x="480.41" y="656.45" width="13.91" height="13.92"/><rect class="cls-3" x="480.41" y="642.54" width="13.91" height="13.91"/><rect class="cls-3" x="480.41" y="628.63" width="13.91" height="13.91"/><rect class="cls-3" x="480.41" y="614.72" width="13.91" height="13.91"/><rect class="cls-3" x="480.41" y="600.8" width="13.91" height="13.91"/><rect class="cls-3" x="480.41" y="586.89" width="13.91" height="13.91"/><rect class="cls-3" x="480.41" y="572.97" width="13.91" height="13.92"/><rect class="cls-3" x="480.41" y="545.15" width="13.91" height="13.91"/><rect class="cls-3" x="480.41" y="433.84" width="13.91" height="13.91"/><rect class="cls-3" x="480.41" y="419.93" width="13.91" height="13.91"/><rect class="cls-3" x="480.41" y="406.02" width="13.91" height="13.91"/><rect class="cls-3" x="480.41" y="392.11" width="13.91" height="13.91"/><rect class="cls-3" x="480.41" y="378.19" width="13.91" height="13.92"/><rect class="cls-3" x="480.41" y="364.28" width="13.91" height="13.91"/><rect class="cls-6" x="480.41" y="350.36" width="13.91" height="13.91"/><rect class="cls-6" x="480.41" y="336.45" width="13.91" height="13.91"/><rect class="cls-6" x="480.41" y="322.54" width="13.91" height="13.91"/><rect class="cls-3" x="480.41" y="308.63" width="13.91" height="13.91"/><rect class="cls-3" x="480.41" y="294.72" width="13.91" height="13.91"/><rect class="cls-3" x="466.5" y="837.32" width="13.91" height="13.91"/><rect class="cls-3" x="466.5" y="823.41" width="13.91" height="13.91"/><rect class="cls-6" x="466.5" y="809.5" width="13.91" height="13.91"/><rect class="cls-6" x="466.5" y="795.59" width="13.91" height="13.91"/><rect class="cls-6" x="466.5" y="781.68" width="13.91" height="13.91"/><rect class="cls-6" x="466.5" y="767.76" width="13.91" height="13.91"/><rect class="cls-6" x="466.5" y="753.84" width="13.91" height="13.92"/><rect class="cls-3" x="466.5" y="739.93" width="13.91" height="13.91"/><rect class="cls-6" x="466.5" y="726.02" width="13.91" height="13.91"/><rect class="cls-6" x="466.5" y="712.11" width="13.91" height="13.91"/><rect class="cls-3" x="466.5" y="698.2" width="13.91" height="13.91"/><rect class="cls-7" x="466.5" y="684.28" width="13.91" height="13.91"/><rect class="cls-7" x="466.5" y="670.37" width="13.91" height="13.91"/><rect class="cls-7" x="466.5" y="656.45" width="13.91" height="13.92"/><rect class="cls-7" x="466.5" y="642.54" width="13.91" height="13.91"/><rect class="cls-7" x="466.5" y="628.63" width="13.91" height="13.91"/><rect class="cls-7" x="466.5" y="614.72" width="13.91" height="13.91"/><rect class="cls-7" x="466.5" y="600.8" width="13.91" height="13.91"/><rect class="cls-7" x="466.5" y="586.89" width="13.91" height="13.91"/><rect class="cls-3" x="466.5" y="572.97" width="13.91" height="13.92"/><rect class="cls-3" x="466.5" y="559.06" width="13.91" height="13.91"/><rect class="cls-3" x="466.5" y="545.15" width="13.91" height="13.91"/><rect class="cls-3" x="466.5" y="531.24" width="13.91" height="13.91"/><rect class="cls-3" x="466.5" y="517.32" width="13.91" height="13.91"/><rect class="cls-3" x="466.5" y="503.41" width="13.91" height="13.91"/><rect class="cls-3" x="466.5" y="433.84" width="13.91" height="13.91"/><rect class="cls-3" x="466.5" y="419.93" width="13.91" height="13.91"/><rect class="cls-3" x="466.5" y="406.02" width="13.91" height="13.91"/><rect class="cls-3" x="466.5" y="392.11" width="13.91" height="13.91"/><rect class="cls-3" x="466.5" y="378.19" width="13.91" height="13.92"/><rect class="cls-6" x="466.5" y="364.28" width="13.91" height="13.91"/><rect class="cls-6" x="466.5" y="350.36" width="13.91" height="13.91"/><rect class="cls-6" x="466.5" y="336.45" width="13.91" height="13.91"/><rect class="cls-3" x="466.5" y="322.54" width="13.91" height="13.91"/><rect class="cls-3" x="466.5" y="308.63" width="13.91" height="13.91"/><rect class="cls-3" x="452.58" y="837.32" width="13.91" height="13.91"/><rect class="cls-3" x="452.58" y="823.41" width="13.91" height="13.91"/><rect class="cls-6" x="452.58" y="809.5" width="13.91" height="13.91"/><rect class="cls-6" x="452.58" y="795.59" width="13.91" height="13.91"/><rect class="cls-6" x="452.58" y="781.68" width="13.91" height="13.91"/><rect class="cls-6" x="452.58" y="767.76" width="13.91" height="13.91"/><rect class="cls-6" x="452.58" y="753.84" width="13.91" height="13.92"/><rect class="cls-3" x="452.58" y="739.93" width="13.91" height="13.91"/><rect class="cls-6" x="452.58" y="726.02" width="13.91" height="13.91"/><rect class="cls-6" x="452.58" y="712.11" width="13.91" height="13.91"/><rect class="cls-3" x="452.58" y="698.2" width="13.91" height="13.91"/><rect class="cls-7" x="452.58" y="684.28" width="13.91" height="13.91"/><rect class="cls-7" x="452.58" y="670.37" width="13.91" height="13.91"/><rect class="cls-7" x="452.58" y="656.45" width="13.91" height="13.92"/><rect class="cls-7" x="452.58" y="642.54" width="13.91" height="13.91"/><rect class="cls-7" x="452.58" y="628.63" width="13.91" height="13.91"/><rect class="cls-7" x="452.58" y="614.72" width="13.91" height="13.91"/><rect class="cls-7" x="452.58" y="600.8" width="13.91" height="13.91"/><rect class="cls-7" x="452.58" y="586.89" width="13.91" height="13.91"/><rect class="cls-7" x="452.58" y="572.97" width="13.91" height="13.92"/><rect class="cls-7" x="452.58" y="559.06" width="13.91" height="13.91"/><rect class="cls-7" x="452.58" y="545.15" width="13.91" height="13.91"/><rect class="cls-7" x="452.58" y="531.24" width="13.91" height="13.91"/><rect class="cls-7" x="452.58" y="517.32" width="13.91" height="13.91"/><rect class="cls-3" x="452.58" y="503.41" width="13.91" height="13.91"/><rect class="cls-3" x="452.58" y="489.5" width="13.91" height="13.91"/><rect class="cls-3" x="452.58" y="447.76" width="13.91" height="13.91"/><rect class="cls-3" x="452.58" y="433.84" width="13.91" height="13.91"/><rect class="cls-3" x="452.58" y="419.93" width="13.91" height="13.91"/><rect class="cls-3" x="452.58" y="406.02" width="13.91" height="13.91"/><rect class="cls-6" x="452.58" y="392.11" width="13.91" height="13.91"/><rect class="cls-6" x="452.58" y="378.19" width="13.91" height="13.92"/><rect class="cls-6" x="452.58" y="364.28" width="13.91" height="13.91"/><rect class="cls-6" x="452.58" y="350.36" width="13.91" height="13.91"/><rect class="cls-3" x="452.58" y="336.45" width="13.91" height="13.91"/><rect class="cls-3" x="452.58" y="322.54" width="13.91" height="13.91"/><rect class="cls-3" x="438.67" y="837.32" width="13.91" height="13.91"/><rect class="cls-3" x="438.67" y="823.41" width="13.91" height="13.91"/><rect class="cls-6" x="438.67" y="809.5" width="13.91" height="13.91"/><rect class="cls-6" x="438.67" y="795.59" width="13.91" height="13.91"/><rect class="cls-6" x="438.67" y="781.68" width="13.91" height="13.91"/><rect class="cls-6" x="438.67" y="767.76" width="13.91" height="13.91"/><rect class="cls-6" x="438.67" y="753.84" width="13.91" height="13.92"/><rect class="cls-3" x="438.67" y="739.93" width="13.91" height="13.91"/><rect class="cls-6" x="438.67" y="726.02" width="13.91" height="13.91"/><rect class="cls-6" x="438.67" y="712.11" width="13.91" height="13.91"/><rect class="cls-3" x="438.67" y="698.2" width="13.91" height="13.91"/><rect class="cls-3" x="438.67" y="684.28" width="13.91" height="13.91"/><rect class="cls-7" x="438.67" y="670.37" width="13.91" height="13.91"/><rect class="cls-7" x="438.67" y="656.45" width="13.91" height="13.92"/><rect class="cls-7" x="438.67" y="642.54" width="13.91" height="13.91"/><rect class="cls-7" x="438.67" y="628.63" width="13.91" height="13.91"/><rect class="cls-7" x="438.67" y="614.72" width="13.91" height="13.91"/><rect class="cls-7" x="438.67" y="600.8" width="13.91" height="13.91"/><rect class="cls-7" x="438.67" y="586.89" width="13.91" height="13.91"/><rect class="cls-7" x="438.67" y="572.97" width="13.91" height="13.92"/><rect class="cls-3" x="438.67" y="559.06" width="13.91" height="13.91"/><rect class="cls-3" x="438.67" y="545.15" width="13.91" height="13.91"/><rect class="cls-3" x="438.67" y="531.24" width="13.91" height="13.91"/><rect class="cls-3" x="438.67" y="517.32" width="13.91" height="13.91"/><rect class="cls-3" x="438.67" y="503.41" width="13.91" height="13.91"/><rect class="cls-3" x="438.67" y="489.5" width="13.91" height="13.91"/><rect class="cls-3" x="438.67" y="475.58" width="13.91" height="13.92"/><rect class="cls-3" x="438.67" y="461.67" width="13.91" height="13.91"/><rect class="cls-3" x="438.67" y="447.76" width="13.91" height="13.91"/><rect class="cls-6" x="438.67" y="433.84" width="13.91" height="13.91"/><rect class="cls-6" x="438.67" y="419.93" width="13.91" height="13.91"/><rect class="cls-6" x="438.67" y="406.02" width="13.91" height="13.91"/><rect class="cls-6" x="438.67" y="392.11" width="13.91" height="13.91"/><rect class="cls-6" x="438.67" y="378.19" width="13.91" height="13.92"/><rect class="cls-3" x="438.67" y="364.28" width="13.91" height="13.91"/><rect class="cls-3" x="438.67" y="350.36" width="13.91" height="13.91"/><rect class="cls-3" x="424.75" y="837.32" width="13.92" height="13.91"/><rect class="cls-3" x="424.75" y="823.41" width="13.92" height="13.91"/><rect class="cls-6" x="424.75" y="809.5" width="13.92" height="13.91"/><rect class="cls-6" x="424.75" y="795.59" width="13.92" height="13.91"/><rect class="cls-6" x="424.75" y="781.68" width="13.92" height="13.91"/><rect class="cls-6" x="424.75" y="767.76" width="13.92" height="13.91"/><rect class="cls-6" x="424.75" y="753.84" width="13.92" height="13.92"/><rect class="cls-3" x="424.75" y="739.93" width="13.92" height="13.91"/><rect class="cls-6" x="424.75" y="726.02" width="13.92" height="13.91"/><rect class="cls-6" x="424.75" y="712.11" width="13.92" height="13.91"/><rect class="cls-6" x="424.75" y="698.2" width="13.92" height="13.91"/><rect class="cls-3" x="424.75" y="684.28" width="13.92" height="13.91"/><rect class="cls-3" x="424.75" y="670.37" width="13.92" height="13.91"/><rect class="cls-7" x="424.75" y="656.45" width="13.92" height="13.92"/><rect class="cls-7" x="424.75" y="642.54" width="13.92" height="13.91"/><rect class="cls-7" x="424.75" y="628.63" width="13.92" height="13.91"/><rect class="cls-3" x="424.75" y="614.72" width="13.92" height="13.91"/><rect class="cls-3" x="424.75" y="600.8" width="13.92" height="13.91"/><rect class="cls-3" x="424.75" y="586.89" width="13.92" height="13.91"/><rect class="cls-3" x="424.75" y="572.97" width="13.92" height="13.92"/><rect class="cls-3" x="424.75" y="559.06" width="13.92" height="13.91"/><rect class="cls-6" x="424.75" y="545.15" width="13.92" height="13.91"/><rect class="cls-6" x="424.75" y="531.24" width="13.92" height="13.91"/><rect class="cls-6" x="424.75" y="517.32" width="13.92" height="13.91"/><rect class="cls-6" x="424.75" y="503.41" width="13.92" height="13.91"/><rect class="cls-6" x="424.75" y="489.5" width="13.92" height="13.91"/><rect class="cls-6" x="424.75" y="475.58" width="13.92" height="13.92"/><rect class="cls-6" x="424.75" y="461.67" width="13.92" height="13.91"/><rect class="cls-6" x="424.75" y="447.76" width="13.92" height="13.91"/><rect class="cls-6" x="424.75" y="433.84" width="13.92" height="13.91"/><rect class="cls-3" x="424.75" y="419.93" width="13.92" height="13.91"/><rect class="cls-3" x="424.75" y="406.02" width="13.92" height="13.91"/><rect class="cls-3" x="424.75" y="392.11" width="13.92" height="13.91"/><rect class="cls-3" x="424.75" y="378.19" width="13.92" height="13.92"/><rect class="cls-3" x="424.75" y="364.28" width="13.92" height="13.91"/><rect class="cls-3" x="410.84" y="837.32" width="13.91" height="13.91"/><rect class="cls-3" x="410.84" y="823.41" width="13.91" height="13.91"/><rect class="cls-6" x="410.84" y="809.5" width="13.91" height="13.91"/><rect class="cls-6" x="410.84" y="795.59" width="13.91" height="13.91"/><rect class="cls-6" x="410.84" y="781.68" width="13.91" height="13.91"/><rect class="cls-6" x="410.84" y="767.76" width="13.91" height="13.91"/><rect class="cls-6" x="410.84" y="753.84" width="13.91" height="13.92"/><rect class="cls-3" x="410.84" y="739.93" width="13.91" height="13.91"/><rect class="cls-3" x="410.84" y="726.02" width="13.91" height="13.91"/><rect class="cls-6" x="410.84" y="712.11" width="13.91" height="13.91"/><rect class="cls-6" x="410.84" y="698.2" width="13.91" height="13.91"/><rect class="cls-6" x="410.84" y="684.28" width="13.91" height="13.91"/><rect class="cls-3" x="410.84" y="670.37" width="13.91" height="13.91"/><rect class="cls-3" x="410.84" y="656.45" width="13.91" height="13.92"/><rect class="cls-3" x="410.84" y="642.54" width="13.91" height="13.91"/><rect class="cls-3" x="410.84" y="628.63" width="13.91" height="13.91"/><rect class="cls-3" x="410.84" y="614.72" width="13.91" height="13.91"/><rect class="cls-6" x="410.84" y="600.8" width="13.91" height="13.91"/><rect class="cls-6" x="410.84" y="586.89" width="13.91" height="13.91"/><rect class="cls-6" x="410.84" y="572.97" width="13.91" height="13.92"/><rect class="cls-3" x="410.84" y="559.06" width="13.91" height="13.91"/><rect class="cls-3" x="410.84" y="545.15" width="13.91" height="13.91"/><rect class="cls-3" x="410.84" y="531.24" width="13.91" height="13.91"/><rect class="cls-3" x="410.84" y="517.32" width="13.91" height="13.91"/><rect class="cls-3" x="410.84" y="503.41" width="13.91" height="13.91"/><rect class="cls-3" x="410.84" y="489.5" width="13.91" height="13.91"/><rect class="cls-3" x="410.84" y="475.58" width="13.91" height="13.92"/><rect class="cls-3" x="410.84" y="461.67" width="13.91" height="13.91"/><rect class="cls-3" x="410.84" y="447.76" width="13.91" height="13.91"/><rect class="cls-3" x="410.84" y="433.84" width="13.91" height="13.91"/><rect class="cls-3" x="410.84" y="419.93" width="13.91" height="13.91"/><rect class="cls-3" x="396.93" y="837.32" width="13.91" height="13.91"/><rect class="cls-3" x="396.93" y="823.41" width="13.91" height="13.91"/><rect class="cls-6" x="396.93" y="809.5" width="13.91" height="13.91"/><rect class="cls-6" x="396.93" y="795.59" width="13.91" height="13.91"/><rect class="cls-6" x="396.93" y="781.68" width="13.91" height="13.91"/><rect class="cls-6" x="396.93" y="767.76" width="13.91" height="13.91"/><rect class="cls-6" x="396.93" y="753.84" width="13.91" height="13.92"/><rect class="cls-6" x="396.93" y="739.93" width="13.91" height="13.91"/><rect class="cls-3" x="396.93" y="726.02" width="13.91" height="13.91"/><rect class="cls-3" x="396.93" y="712.11" width="13.91" height="13.91"/><rect class="cls-6" x="396.93" y="698.2" width="13.91" height="13.91"/><rect class="cls-6" x="396.93" y="684.28" width="13.91" height="13.91"/><rect class="cls-6" x="396.93" y="670.37" width="13.91" height="13.91"/><rect class="cls-6" x="396.93" y="656.45" width="13.91" height="13.92"/><rect class="cls-6" x="396.93" y="642.54" width="13.91" height="13.91"/><rect class="cls-6" x="396.93" y="628.63" width="13.91" height="13.91"/><rect class="cls-6" x="396.93" y="614.72" width="13.91" height="13.91"/><rect class="cls-6" x="396.93" y="600.8" width="13.91" height="13.91"/><rect class="cls-3" x="396.93" y="586.89" width="13.91" height="13.91"/><rect class="cls-3" x="396.93" y="572.97" width="13.91" height="13.92"/><rect class="cls-3" x="396.93" y="559.06" width="13.91" height="13.91"/><rect class="cls-3" x="383.02" y="837.32" width="13.91" height="13.91"/><rect class="cls-3" x="383.02" y="823.41" width="13.91" height="13.91"/><rect class="cls-6" x="383.02" y="809.5" width="13.91" height="13.91"/><rect class="cls-6" x="383.02" y="795.59" width="13.91" height="13.91"/><rect class="cls-6" x="383.02" y="781.68" width="13.91" height="13.91"/><rect class="cls-6" x="383.02" y="767.76" width="13.91" height="13.91"/><rect class="cls-6" x="383.02" y="753.84" width="13.91" height="13.92"/><rect class="cls-6" x="383.02" y="739.93" width="13.91" height="13.91"/><rect class="cls-6" x="383.02" y="726.02" width="13.91" height="13.91"/><rect class="cls-3" x="383.02" y="712.11" width="13.91" height="13.91"/><rect class="cls-3" x="383.02" y="698.2" width="13.91" height="13.91"/><rect class="cls-3" x="383.02" y="684.28" width="13.91" height="13.91"/><rect class="cls-6" x="383.02" y="670.37" width="13.91" height="13.91"/><rect class="cls-6" x="383.02" y="656.45" width="13.91" height="13.92"/><rect class="cls-6" x="383.02" y="642.54" width="13.91" height="13.91"/><rect class="cls-3" x="383.02" y="628.63" width="13.91" height="13.91"/><rect class="cls-3" x="383.02" y="614.72" width="13.91" height="13.91"/><rect class="cls-3" x="383.02" y="600.8" width="13.91" height="13.91"/><rect class="cls-3" x="369.1" y="837.32" width="13.91" height="13.91"/><rect class="cls-3" x="369.1" y="823.41" width="13.91" height="13.91"/><rect class="cls-6" x="369.1" y="809.5" width="13.91" height="13.91"/><rect class="cls-6" x="369.1" y="795.59" width="13.91" height="13.91"/><rect class="cls-6" x="369.1" y="781.68" width="13.91" height="13.91"/><rect class="cls-6" x="369.1" y="767.76" width="13.91" height="13.91"/><rect class="cls-6" x="369.1" y="753.84" width="13.91" height="13.92"/><rect class="cls-6" x="369.1" y="739.93" width="13.91" height="13.91"/><rect class="cls-6" x="369.1" y="726.02" width="13.91" height="13.91"/><rect class="cls-6" x="369.1" y="712.11" width="13.91" height="13.91"/><rect class="cls-6" x="369.1" y="698.2" width="13.91" height="13.91"/><rect class="cls-3" x="369.1" y="684.28" width="13.91" height="13.91"/><rect class="cls-3" x="369.1" y="670.37" width="13.91" height="13.91"/><rect class="cls-3" x="369.1" y="656.45" width="13.91" height="13.92"/><rect class="cls-3" x="369.1" y="642.54" width="13.91" height="13.91"/><rect class="cls-3" x="355.19" y="837.32" width="13.91" height="13.91"/><rect class="cls-3" x="355.19" y="823.41" width="13.91" height="13.91"/><rect class="cls-6" x="355.19" y="809.5" width="13.91" height="13.91"/><rect class="cls-6" x="355.19" y="795.59" width="13.91" height="13.91"/><rect class="cls-6" x="355.19" y="781.68" width="13.91" height="13.91"/><rect class="cls-6" x="355.19" y="767.76" width="13.91" height="13.91"/><rect class="cls-6" x="355.19" y="753.84" width="13.91" height="13.92"/><rect class="cls-6" x="355.19" y="739.93" width="13.91" height="13.91"/><rect class="cls-6" x="355.19" y="726.02" width="13.91" height="13.91"/><rect class="cls-6" x="355.19" y="712.11" width="13.91" height="13.91"/><rect class="cls-6" x="355.19" y="698.2" width="13.91" height="13.91"/><rect class="cls-6" x="355.19" y="684.28" width="13.91" height="13.91"/><rect class="cls-3" x="355.19" y="670.37" width="13.91" height="13.91"/><rect class="cls-3" x="355.19" y="656.45" width="13.91" height="13.92"/><rect class="cls-3" x="341.28" y="837.32" width="13.91" height="13.91"/><rect class="cls-3" x="341.28" y="823.41" width="13.91" height="13.91"/><rect class="cls-6" x="341.28" y="809.5" width="13.91" height="13.91"/><rect class="cls-6" x="341.28" y="795.59" width="13.91" height="13.91"/><rect class="cls-6" x="341.28" y="781.68" width="13.91" height="13.91"/><rect class="cls-6" x="341.28" y="767.76" width="13.91" height="13.91"/><rect class="cls-6" x="341.28" y="753.84" width="13.91" height="13.92"/><rect class="cls-6" x="341.28" y="739.93" width="13.91" height="13.91"/><rect class="cls-6" x="341.28" y="726.02" width="13.91" height="13.91"/><rect class="cls-6" x="341.28" y="712.11" width="13.91" height="13.91"/><rect class="cls-6" x="341.28" y="698.2" width="13.91" height="13.91"/><rect class="cls-3" x="341.28" y="684.28" width="13.91" height="13.91"/><rect class="cls-3" x="341.28" y="670.37" width="13.91" height="13.91"/><rect class="cls-3" x="327.36" y="837.32" width="13.92" height="13.91"/><rect class="cls-3" x="327.36" y="823.41" width="13.92" height="13.91"/><rect class="cls-6" x="327.36" y="809.5" width="13.92" height="13.91"/><rect class="cls-6" x="327.36" y="795.59" width="13.92" height="13.91"/><rect class="cls-6" x="327.36" y="781.68" width="13.92" height="13.91"/><rect class="cls-6" x="327.36" y="767.76" width="13.92" height="13.91"/><rect class="cls-6" x="327.36" y="753.84" width="13.92" height="13.92"/><rect class="cls-6" x="327.36" y="739.93" width="13.92" height="13.91"/><rect class="cls-3" x="327.36" y="726.02" width="13.92" height="13.91"/><rect class="cls-3" x="327.36" y="712.11" width="13.92" height="13.91"/><rect class="cls-3" x="327.36" y="698.2" width="13.92" height="13.91"/><rect class="cls-3" x="327.36" y="684.28" width="13.92" height="13.91"/><rect class="cls-3" x="313.45" y="837.32" width="13.91" height="13.91"/><rect class="cls-3" x="313.45" y="823.41" width="13.91" height="13.91"/><rect class="cls-6" x="313.45" y="809.5" width="13.91" height="13.91"/><rect class="cls-6" x="313.45" y="795.59" width="13.91" height="13.91"/><rect class="cls-6" x="313.45" y="781.68" width="13.91" height="13.91"/><rect class="cls-3" x="313.45" y="767.76" width="13.91" height="13.91"/><rect class="cls-3" x="313.45" y="753.84" width="13.91" height="13.92"/><rect class="cls-3" x="313.45" y="739.93" width="13.91" height="13.91"/><rect class="cls-3" x="313.45" y="726.02" width="13.91" height="13.91"/><rect class="cls-3" x="299.54" y="837.32" width="13.91" height="13.91"/><rect class="cls-3" x="299.54" y="823.41" width="13.91" height="13.91"/><rect class="cls-3" x="299.54" y="809.5" width="13.91" height="13.91"/><rect class="cls-3" x="299.54" y="795.59" width="13.91" height="13.91"/><rect class="cls-3" x="299.54" y="781.68" width="13.91" height="13.91"/><rect class="cls-3" x="299.54" y="767.76" width="13.91" height="13.91"/><rect class="cls-3" x="299.54" y="753.84" width="13.91" height="13.92"/><g id="Layer_2-2" data-name="Layer 2-2"><g id="Layer_16" data-name="Layer 16"><path class="cls-8" d="M982,328.87l-4.92-2.76-6.63-3.87-7.09-4.15-1-.55L957.85,315l-4.7-2.7-8.28-4.8L878.06,269l-15.72-9-6.63-3.87-4.14-2.39L847.06,251l-.46-.19-3.87-2.29-3.79-2.21L789.82,218,610.23,114.53l-4.91-2.86L601,114.16l-157.58,91-46.23,26.71-12,6.88-4.91,2.85-.92.46h-.09L377,243.49l-3.87,2.29-2.76,1.58-2.49,1.47-1.66.91-13.81,8h-.05L336,267.15l-.1.1-5.33,3.14-7,3.92-.08.09-.29.19-29.93,17.22h-.09l-21.92,12.63L262,309.8l-27.5,15.85-39,22.48-14.18,8.19V845.58l.64.36,15.84,9.21,6.88,3.93,1.37.74,39.8,23,6.36,3.59,4.91,2.85,17.32,10,14.65,8.48,4.23,2.4,12,6.88,31.17,18L386,963.68l6.35,3.69.65.36,1.38.74,1,.65,1.66.91.37.19L415,980.44l8.1,4.61,12.26,7.18,8.2,4.7,1.66.92,2.85,1.66,1.75,1,4.42,2.57L487.14,1022l.83.46,4,2.4,5.72,3.32,6.63,3.86h.09l4.91,2.77,13.91,8,29.2,17,41.27,23.76,9.49,5.53,2.12,1.2.17-.1,1.75-1,1.3-.73.27-.18,2.85-1.66,16.71-9.49.83-.46,6.36-3.69,4.6-2.67,2.22-1.29,35.45-20.44,22.6-13,6.82-3.93,6.08-3.5,6.17-3.58,4.05-2.4,21.4-12.33,3.6-2h.09l2.12-1.29,2-1.11,5.8-3.31,7.37-4.24,11.61-6.73,4.23-2.48h.09l4.25-2.49.09-.09,2.3-1.29,4.92-2.85,3.41-2,3.23-2,5.06-2.86,2-1.2,2.95-1.65L814,970l.19-.1.46-.27,1.2-.74,2.21-1.2,34.81-20.08,3.5-2,10.23-6,27.35-15.72,14.37-8.28,28.1-16.22,17.41-10,33-19.1h.09l.55-.37,24.41-14.09,8.29-4.79,9.49-5.44V356.34Zm30.39,506.94-4.79,2.76-3,1.66-5.33,3.12L929.39,883.7l-9.95,5.71-17.4,10-15.67,9L857.64,925l-11.79,6.81-6.63,3.78-27,15.56-.65.46-1.47.83-1.66,1-5.25,2.94-8.2,4.7-2,1.2-.48.34L785,967l-.84.45-36,20.73-.73.46-7.27,4.14-.74.47-8.38,4.91-19.81,11.41-14.16,8.11-15.48,8.93-10.13,5.81-27.34,15.86-11.32,6.55-.56.37h-.18l-6.88,4-2.57,1.38-17.22,9.94-31.79-18.32-11.32-6.54-5.62-3.22-16.7-9.68-6.64-3.77-6.35-3.69L478.5,997.41l-7.09-4.14L471,993l-16.5-9.49-19-10.87-8.29-4.79-5.34-3.12-2.3-1.39-3.93-2.3-2-1.11-16.11-9.3L394.69,949l-1.75-1-13.81-8-31.51-18.15-36-20.82-2.77-1.57-13.47-7.76-3.93-2.31-27.51-15.83-45.19-26.17-8.29-4.69-3.59-2.12-2.12-1.2-6.17-3.59V366.29l35.89-20.84L262,329.61l8.57-5h.09l.56-.38,29.47-17h.09L313.28,300h.1l16.48-9.49,11.52-6.64,3.93-2.29h.08l7-4,4.23-2.5h.1l27.45-15.83c.09-.1.09-.1.18-.1l7.19-4.15,3.22-1.84,1.84-1.11,2.67-1.56,1.57-.92,2.49-1.38.36-.18,74-42.74L601,134l4.34-2.48,4.91,2.86,155,89.4,64.29,37.13.46.27,3,1.66,1,.55,4.06,2.4,3.22,1.84,11.33,6.54,17.87,10.31,64.66,37.22,13,7.46,5.06,2.94.37.28,7.1,4.06,1.75,1,5,2.86,4.91,2.85,40.13,23.2V835.81Z"/></g></g></svg>