<svg xmlns="http://www.w3.org/2000/svg" xmlns:xlink="http://www.w3.org/1999/xlink" viewBox="0 0 1039.23 1200"><defs><style>.cls-1{fill:none;}.cls-2{fill:#d11e55;}.cls-3{fill:#850041;}.cls-4{fill:url(#linear-gradient);}.cls-5{clip-path:url(#clip-path);}.cls-6{fill:#3a2428;}.cls-7{fill:#600233;}.cls-8{fill:#a35928;}.cls-9{fill:#e26f1e;}.cls-10{fill:#bcf9f8;}.cls-11{fill:#feb24e;}.cls-12{fill:#00edf9;}</style><linearGradient id="linear-gradient" x1="-1092.37" y1="1282.38" x2="2080.6" y2="-60.79" gradientUnits="userSpaceOnUse"><stop offset="0" stop-color="#4d3646"/><stop offset="0.47" stop-color="#39364d"/><stop offset="1" stop-color="#222326"/></linearGradient><clipPath id="clip-path"><polygon class="cls-1" points="91.64 352.36 91.64 847.64 520.57 1095.29 949.51 847.64 949.51 352.36 520.57 104.71 91.64 352.36"/></clipPath></defs><g id="Layer_2" data-name="Layer 2"><g id="ironman"><polygon class="cls-2" points="0 300 0 900 519.62 1200 1039.23 900 1039.23 300 519.62 0 0 300"/><polygon class="cls-3" points="69.61 859.81 69.61 340.19 519.62 80.39 969.62 340.19 969.62 859.81 519.62 1119.62 69.61 859.81"/><polygon class="cls-4" points="90.68 352.36 90.68 847.64 519.62 1095.29 948.55 847.64 948.55 352.36 519.62 104.71 90.68 352.36"/><polygon class="cls-1" points="108.8 372.79 108.8 848.27 520.57 1086.01 932.35 848.27 932.35 372.79 520.57 135.06 108.8 372.79"/><g class="cls-5"><rect class="cls-6" x="453.39" y="496.81" width="19.15" height="19.15"/><rect class="cls-7" x="453.44" y="439.35" width="19.15" height="19.15"/><polygon class="cls-7" points="641.96 784.08 623.5 784.08 623.15 784.08 604.35 784.08 604.35 803.23 604.05 803.23 604.05 822.38 623.2 822.38 623.2 803.23 623.5 803.23 642.31 803.23 642.31 784.08 661.11 784.08 661.11 764.92 641.96 764.92 641.96 784.08"/><polygon class="cls-7" points="607.26 878.65 588.11 878.65 588.11 897.81 605.96 897.81 605.96 916.85 625.11 916.85 625.11 897.7 607.26 897.7 607.26 878.65"/><rect class="cls-7" x="625.26" y="1011.41" width="19.15" height="19.15"/><polygon class="cls-7" points="510.49 535.11 491.68 535.11 491.68 554.26 510.49 554.26 510.83 554.26 529.64 554.26 529.64 535.11 510.83 535.11 510.49 535.11"/><rect class="cls-7" x="453.67" y="554.26" width="19.15" height="19.15"/><polygon class="cls-7" points="416.09 535.11 397.14 535.11 396.94 535.11 377.99 535.11 377.99 554.26 396.94 554.26 397.14 554.26 416.09 554.26 416.09 535.11"/><polygon class="cls-7" points="434.9 611.72 416.02 611.72 416.02 630.87 434.9 630.87 435.17 630.87 454.05 630.87 454.05 611.72 435.17 611.72 434.9 611.72"/><polygon class="cls-7" points="492.18 630.87 473.35 630.87 473.03 630.87 454.19 630.87 454.19 650.02 473.03 650.02 473.35 650.02 491.64 650.02 491.64 669.17 510.79 669.17 510.79 650.02 492.18 650.02 492.18 630.87"/><rect class="cls-7" x="585.7" y="669.17" width="19.15" height="19.15"/><polygon class="cls-7" points="643.47 554.26 643.47 535.11 624.32 535.11 624.32 554.26 642.84 554.26 642.84 573.41 661.99 573.41 661.99 554.26 643.47 554.26"/><rect class="cls-7" x="586.09" y="554.26" width="19.15" height="19.15"/><polygon class="cls-7" points="453.7 420.2 472.85 420.2 472.85 401.05 453.89 401.05 453.89 382.09 434.74 382.09 434.74 401.24 453.7 401.24 453.7 420.2"/><rect class="cls-6" x="587.5" y="515.96" width="19.15" height="19.15"/><rect class="cls-6" x="529.58" y="535.11" width="19.15" height="19.15"/><rect class="cls-6" x="548.53" y="535.11" width="19.15" height="19.15"/><rect class="cls-6" x="567.47" y="535.11" width="19.15" height="19.15"/><rect class="cls-6" x="586.42" y="535.11" width="19.15" height="19.15"/><polygon class="cls-8" points="567.64 401.05 548.68 401.05 548.49 401.05 529.64 401.05 529.53 401.05 510.49 401.05 510.49 420.2 529.53 420.2 529.64 420.2 548.49 420.2 548.68 420.2 567.64 420.2 567.64 401.05"/><rect class="cls-8" x="453.72" y="669.17" width="19.15" height="19.15"/><polygon class="cls-8" points="585.29 745.77 566.52 745.77 566.52 764.92 585.29 764.92 585.67 764.92 604.44 764.92 604.44 745.77 585.67 745.77 585.29 745.77"/><polygon class="cls-8" points="604.55 707.47 586.98 707.47 586.98 726.62 604.55 726.62 604.55 745.77 623.7 745.77 623.7 726.62 606.13 726.62 606.13 707.47 623.7 707.47 623.7 688.32 604.55 688.32 604.55 707.47"/><rect class="cls-8" x="492.04" y="688.32" width="19.15" height="19.15"/><rect class="cls-8" x="568.15" y="420.2" width="19.15" height="19.15"/><polygon class="cls-8" points="510.49 726.62 492.04 726.62 492.04 745.77 510.49 745.77 511.19 745.77 529.64 745.77 529.64 726.62 511.19 726.62 510.49 726.62"/><rect class="cls-8" x="664.98" y="650.02" width="19.15" height="19.15"/><polygon class="cls-8" points="683.72 726.62 683.72 745.77 664.98 745.77 664.98 764.92 684.13 764.92 684.13 745.77 702.87 745.77 702.87 726.62 683.72 726.62"/><polygon class="cls-9" points="529.64 362.75 529.64 343.6 529.64 324.45 510.49 324.45 510.49 343.6 510.49 362.75 510.49 381.9 529.64 381.9 529.64 362.75"/><polygon class="cls-9" points="529.85 381.9 549 381.9 549 362.75 548.94 362.75 548.94 343.6 529.79 343.6 529.79 362.75 529.85 362.75 529.85 381.9"/><polygon class="cls-9" points="605.55 477.66 624.1 477.66 624.26 477.66 643.25 477.66 643.25 458.5 643.25 439.35 643.47 439.35 643.47 420.2 643.47 401.05 624.32 401.05 624.32 420.2 624.32 439.35 624.1 439.35 624.1 458.5 605.55 458.5 605.11 458.5 587.28 458.5 586.4 458.5 568.13 458.5 548.98 458.5 548.98 477.66 548.98 496.81 548.95 496.81 548.95 477.66 548.96 477.66 548.96 458.5 548.75 458.5 548.75 439.35 529.64 439.35 529.6 439.35 510.97 439.35 510.49 439.35 510.42 439.35 510.42 420.2 510.76 420.2 510.76 401.24 511.19 401.24 529.64 401.24 529.64 382.09 511.19 382.09 510.49 382.09 492.04 382.09 492.04 401.05 491.81 401.05 491.61 401.05 472.65 401.05 472.65 420.2 472.78 420.2 472.78 439.35 491.27 439.35 491.82 439.35 491.82 458.5 510.49 458.5 510.49 477.66 529.64 477.66 529.64 458.5 529.81 458.5 529.81 477.66 529.8 477.66 529.8 496.81 530 496.81 530 515.96 549.15 515.96 549.15 496.81 568.13 496.81 568.13 477.66 586.4 477.66 587.28 477.66 605.11 477.66 605.55 477.66"/><rect class="cls-9" x="510.49" y="496.81" width="19.15" height="19.15"/><polygon class="cls-9" points="397.41 630.87 378.26 630.87 378.26 650.02 378.02 650.02 378.02 669.17 396.94 669.17 397.17 669.17 416.1 669.17 416.1 650.02 397.41 650.02 397.41 630.87"/><polygon class="cls-9" points="491.73 688.32 491.73 669.17 473.06 669.17 473.06 650.02 454.19 650.02 453.91 650.02 435.04 650.02 435.04 669.17 453.91 669.17 454.19 669.17 472.58 669.17 472.58 688.32 491.73 688.32"/><rect class="cls-9" x="623.7" y="650.02" width="19.15" height="19.15"/><rect class="cls-9" x="340.64" y="726.62" width="19.15" height="19.15"/><rect class="cls-9" x="530.03" y="382.09" width="19.15" height="19.15"/><rect class="cls-9" x="567.44" y="401.05" width="19.15" height="19.15"/><rect class="cls-9" x="605.96" y="972.68" width="19.15" height="19.15"/><rect class="cls-9" x="588.11" y="992.4" width="19.15" height="19.15"/><polygon class="cls-9" points="641.96 822.38 624.32 822.38 624.32 841.53 605.96 841.53 605.96 860.39 588.11 860.39 588.11 879.54 607.26 879.54 607.26 860.68 625.11 860.68 625.11 841.53 641.96 841.53 641.96 860.68 661.11 860.68 661.11 841.53 661.11 822.38 643.47 822.38 641.96 822.38"/><polygon class="cls-9" points="607.26 917.34 588.11 917.34 588.11 936.49 605.96 936.49 605.96 953.96 625.11 953.96 625.11 934.81 607.26 934.81 607.26 917.34"/><rect class="cls-9" x="491.48" y="745.77" width="19.15" height="19.15"/><polygon class="cls-9" points="529.64 707.47 548.69 707.47 548.69 688.32 529.64 688.32 529.54 688.32 510.49 688.32 510.49 707.47 492.04 707.47 492.04 726.62 511.19 726.62 511.19 707.47 529.54 707.47 529.64 707.47"/><polygon class="cls-9" points="548.69 726.62 529.54 726.62 529.54 745.77 547.76 745.77 547.76 764.92 566.91 764.92 566.91 745.77 548.69 745.77 548.69 726.62"/><polygon class="cls-9" points="567.99 707.47 549 707.47 549 726.62 567.99 726.62 568.15 726.62 587.14 726.62 587.14 707.47 568.15 707.47 567.99 707.47"/><rect class="cls-9" x="624.32" y="324.45" width="19.15" height="19.15"/><rect class="cls-9" x="664.98" y="630.87" width="19.15" height="19.15"/><polygon class="cls-9" points="684.03 745.77 684.03 726.62 664.88 726.62 664.88 745.77 683.72 745.77 683.72 764.92 683.72 784.08 702.87 784.08 702.87 764.92 702.87 745.77 684.03 745.77"/><polygon class="cls-9" points="665.19 688.32 684.13 688.32 684.13 669.17 665.19 669.17 664.98 669.17 646.03 669.17 646.03 688.32 664.98 688.32 665.19 688.32"/><polygon class="cls-10" points="568.15 439.35 568.15 420.2 549 420.2 529.85 420.2 529.85 439.35 549 439.35 568.15 439.35"/><rect class="cls-10" x="492.04" y="764.92" width="19.15" height="19.15"/><rect class="cls-10" x="491.5" y="573.41" width="19.15" height="19.15"/><polygon class="cls-10" points="339.52 841.53 321.75 841.53 321.75 860.68 321.77 860.68 321.77 879.54 321.99 879.54 321.99 897.81 341.14 897.81 341.14 878.65 340.92 878.65 340.92 860.68 358.67 860.68 358.67 841.53 340.9 841.53 339.52 841.53"/><polygon class="cls-10" points="585.94 611.72 585.67 611.72 585.67 592.56 566.52 592.56 566.52 611.72 548.09 611.72 548.09 630.87 567.06 630.87 567.2 630.87 567.2 650.02 586.35 650.02 586.35 630.87 605.09 630.87 605.09 611.72 586.21 611.72 585.94 611.72"/><rect class="cls-10" x="623.92" y="573.41" width="19.15" height="19.15"/><polygon class="cls-10" points="740.21 866.14 740.21 884.4 740.21 885.29 740.21 903.55 759.37 903.55 759.37 885.29 759.37 884.4 759.37 866.14 740.21 866.14"/><rect class="cls-10" x="740.21" y="940.55" width="19.15" height="19.15"/><polygon class="cls-10" points="454.15 1085.11 454.13 1085.11 454.13 1065.99 434.98 1065.99 434.98 1085.14 435 1085.14 435 1104.26 435.22 1104.26 435.22 1121.58 454.37 1121.58 454.37 1102.43 454.15 1102.43 454.15 1085.11"/><polygon class="cls-10" points="605.96 1085.11 605.96 1085.14 605.96 1102.43 605.96 1104.26 605.96 1121.58 625.11 1121.58 625.11 1104.26 625.11 1102.43 625.11 1085.14 625.11 1085.11 625.11 1065.99 605.96 1065.99 605.96 1085.11"/><rect class="cls-10" x="359.07" y="592.56" width="19.15" height="19.15"/><rect class="cls-3" x="453.78" y="611.72" width="19.15" height="19.15"/><polygon class="cls-3" points="511.01 630.87 491.86 630.87 491.86 650.02 472.77 650.02 472.77 669.17 491.93 669.17 491.93 650.02 510.49 650.02 510.49 669.17 529.64 669.17 529.64 650.02 511.01 650.02 511.01 630.87"/><polygon class="cls-3" points="623.7 650.02 604.84 650.02 604.84 669.17 623.99 669.17 623.99 650.02 642.85 650.02 642.85 630.87 623.7 630.87 623.7 650.02"/><polygon class="cls-3" points="586 669.17 567.14 669.17 566.84 669.17 547.99 669.17 547.99 688.32 566.84 688.32 567.14 688.32 586 688.32 586 669.17"/><rect class="cls-3" x="472.72" y="745.77" width="19.15" height="19.15"/><polygon class="cls-3" points="454.09 803.23 454.09 822.38 472.44 822.38 472.44 841.53 454.09 841.53 454.09 860.68 473.24 860.68 473.24 841.53 491.59 841.53 491.59 822.38 473.24 822.38 473.24 803.23 454.09 803.23"/><path class="cls-3" d="M642.31,764.92H642V745.77H622.81v19.15H604.35v19.16h-18.8v19.15H604.7V784.08H642v19.15H622.81v19.15h-34.7v38.3H606v37H588.11v19.15h19.15v-19h36.21V841.53H625.11V822.38h36v-38.3h-18.8Zm-18,95.47H607.26V841.53h17.06Z"/><polygon class="cls-3" points="605.96 934.81 588.11 934.81 588.11 953.62 588.11 953.96 588.11 972.68 588.11 972.77 588.11 991.83 607.26 991.83 607.26 972.77 625.11 972.77 625.11 953.62 607.26 953.62 607.26 936.49 625.11 936.49 625.11 917.34 605.96 917.34 605.96 934.81"/><polygon class="cls-3" points="605.96 1011.41 588.71 1011.41 588.71 1029.1 588.71 1030.56 588.71 1048.25 605.96 1048.25 607.86 1048.25 625.11 1048.25 625.11 1030.56 625.11 1029.1 625.11 1011.55 625.11 1011.41 625.11 992.4 605.96 992.4 605.96 1011.41"/><rect class="cls-3" x="625.26" y="1029.1" width="19.15" height="19.15"/><rect class="cls-3" x="605.96" y="1048.61" width="19.15" height="19.15"/><rect class="cls-3" x="625.26" y="1048.61" width="19.15" height="19.15"/><polygon class="cls-3" points="510.49 803.23 492.04 803.23 492.04 822.38 492.04 841.53 511.19 841.53 511.19 841.38 529.64 841.38 529.64 822.38 529.64 822.23 529.64 803.23 529.64 784.08 510.49 784.08 510.49 803.23"/><rect class="cls-3" x="492.04" y="897.7" width="19.15" height="19.15"/><rect class="cls-3" x="340.17" y="554.26" width="19.15" height="19.15"/><polygon class="cls-3" points="321.75 784.08 302.6 784.08 302.6 803.23 321.75 803.23 321.75 822.38 340.9 822.38 340.9 803.23 340.9 784.08 340.9 764.92 321.75 764.92 321.75 784.08"/><rect class="cls-3" x="264.3" y="822.38" width="19.15" height="19.15"/><rect class="cls-3" x="605.37" y="535.11" width="19.15" height="19.15"/><polygon class="cls-3" points="680.91 573.41 680.91 554.26 661.76 554.26 661.76 573.41 661.76 592.56 680.91 592.56 680.91 573.41"/><rect class="cls-3" x="567.17" y="554.26" width="19.15" height="19.15"/><polygon class="cls-3" points="473.01 382.09 454.23 382.09 454.23 401.24 473.01 401.24 473.38 401.24 492.17 401.24 492.17 382.09 473.38 382.09 473.01 382.09"/><polygon class="cls-3" points="453.89 381.9 472.73 381.9 472.76 381.9 491.88 381.9 491.88 362.75 491.88 343.6 473.38 343.6 473.38 324.45 454.23 324.45 454.23 343.6 454.15 343.6 454.15 324.45 435 324.45 435 343.6 434.74 343.6 434.74 362.75 434.74 381.9 453.61 381.9 453.89 381.9"/><polygon class="cls-3" points="510.49 286.27 492.04 286.27 492.04 305.3 492.04 305.42 492.04 324.45 511.19 324.45 511.19 305.42 529.64 305.42 529.64 286.27 511.19 286.27 510.49 286.27"/><rect class="cls-3" x="605.17" y="286.27" width="19.15" height="19.15"/><rect class="cls-3" x="566.86" y="266.99" width="19.15" height="19.15"/><rect class="cls-3" x="434.66" y="917.34" width="19.15" height="19.15"/><rect class="cls-3" x="415.51" y="1011.41" width="19.15" height="19.15"/><rect class="cls-3" x="435.15" y="1048.61" width="19.15" height="19.15"/><rect class="cls-3" x="472.72" y="934.81" width="19.15" height="19.15"/><polygon class="cls-3" points="605.36 362.75 624.26 362.75 624.26 343.6 624.32 343.6 624.32 324.45 605.42 324.45 605.17 324.45 586.27 324.45 586.27 343.6 586.21 343.6 586.21 362.75 605.11 362.75 605.36 362.75"/><polygon class="cls-3" points="720.88 784.08 720.88 803.23 702.3 803.23 702.3 822.38 720.88 822.38 721.45 822.38 740.04 822.38 740.04 803.23 740.04 784.08 720.88 784.08"/><polygon class="cls-3" points="702.87 688.32 683.72 688.32 683.72 707.47 665.19 707.47 664.88 707.47 646.03 707.47 646.03 726.62 664.88 726.62 665.19 726.62 684.03 726.62 684.03 707.47 702.87 707.47 702.87 688.32"/><path class="cls-3" d="M415.78,592.56v19.16H397.14v19.15h19.15V611.72h18.64V592.56H435V573.41H453.9V554.26h18.69v19.15h19.15V554.26h.14V535.11h19V516h-.06v-38.3H491.69v19.15h0v-38.3h0V439.35H472.81V420.2H453.89v-19h0V382.09H434.78v19h0v38.3h-.17v19.16h18.87v19.15h-.05v19.15h19.15V516h-19.1v19.15H415.89v19.15h-19v19.15h18.91v19.15Zm38-153.21h18.78v19.16H453.73ZM416.07,554.26h18.68v19.15H416.07Z"/><rect class="cls-3" x="340.17" y="592.56" width="19.15" height="19.15"/><rect class="cls-11" x="510.49" y="305.3" width="19.15" height="19.15"/><rect class="cls-11" x="453.52" y="860.39" width="19.15" height="19.15"/><rect class="cls-11" x="510.49" y="707.47" width="19.15" height="19.15"/><rect class="cls-11" x="472.86" y="841.53" width="19.15" height="19.15"/><polygon class="cls-11" points="510.49 841.53 492.04 841.53 492.04 860.68 510.49 860.68 510.49 879.54 529.64 879.54 529.64 860.68 529.64 860.39 529.64 841.53 511.19 841.53 510.49 841.53"/><rect class="cls-11" x="453.68" y="917.34" width="19.15" height="19.15"/><rect class="cls-11" x="473.03" y="917.34" width="19.15" height="19.15"/><rect class="cls-11" x="434.66" y="972.68" width="19.15" height="19.15"/><rect class="cls-11" x="453.52" y="992.4" width="19.15" height="19.15"/><rect class="cls-11" x="606.56" y="477.66" width="19.15" height="19.15"/><polygon class="cls-11" points="606.45 496.81 606.45 477.66 587.3 477.66 568.15 477.66 568.15 496.81 587.3 496.81 606.45 496.81"/><rect class="cls-11" x="510.49" y="515.96" width="19.15" height="19.15"/><rect class="cls-11" x="530.05" y="515.96" width="19.15" height="19.15"/><polygon class="cls-11" points="434.75 592.56 434.68 592.56 434.68 611.72 453.83 611.72 453.83 592.56 453.9 592.56 453.9 573.41 434.99 573.41 434.99 554.26 415.83 554.26 415.83 573.41 434.75 573.41 434.75 592.56"/><rect class="cls-11" x="396.87" y="630.87" width="19.15" height="19.15"/><rect class="cls-11" x="340.64" y="745.77" width="19.15" height="19.15"/><polygon class="cls-11" points="359.25 707.47 340.64 707.47 340.64 726.62 359.25 726.62 359.8 726.62 378.4 726.62 378.4 707.47 359.8 707.47 359.25 707.47"/><polygon class="cls-11" points="378.19 669.17 378.19 650.02 359.04 650.02 359.04 669.17 359.09 669.17 359.09 688.32 378.02 688.32 378.24 688.32 397.17 688.32 397.17 669.17 378.24 669.17 378.19 669.17"/><polygon class="cls-11" points="510.58 688.32 529.14 688.32 529.64 688.32 548.29 688.32 548.29 669.17 529.64 669.17 529.14 669.17 510.58 669.17 510.49 669.17 491.43 669.17 491.43 688.32 510.49 688.32 510.58 688.32"/><path class="cls-11" d="M604.55,688.32H548.29v19.15H530v19.15h18.28v19.15h-37.8v19.15h37.45v19.16H604.7V764.92h18.5V745.77H605V726.62H623.7V707.47H605V688.32H623.7V669.17H604.55Zm-.5,76.6H548.43V745.77h55.62Zm.5-38.3H549.16V707.47h55.39Z"/><polygon class="cls-11" points="605.11 362.75 587.3 362.75 587.24 362.75 587.24 343.6 568.09 343.6 567.63 343.6 567.63 324.45 549 324.45 549 305.3 529.85 305.3 529.85 324.45 529.85 343.6 548.48 343.6 548.94 343.6 548.94 362.75 549 362.75 549 381.9 568.15 381.9 586.27 381.9 587.3 381.9 605.11 381.9 605.42 381.9 624.26 381.9 624.26 362.75 605.42 362.75 605.11 362.75"/><polygon class="cls-11" points="623.92 382.09 605.81 382.09 605.57 382.09 586.75 382.09 586.66 382.09 568.15 382.09 567.6 382.09 549 382.09 549 401.24 567.6 401.24 568.15 401.24 586.4 401.24 586.4 420.2 586.27 420.2 586.27 439.35 567.93 439.35 548.78 439.35 548.78 458.5 567.93 458.5 586.66 458.5 587.08 458.5 605.74 458.5 605.81 458.5 624.89 458.5 624.89 439.35 624.26 439.35 624.26 420.2 624.51 420.2 624.51 401.24 624.72 401.24 643.07 401.24 643.07 382.09 624.72 382.09 623.92 382.09"/><polygon class="cls-11" points="643.41 362.75 643.41 343.6 624.26 343.6 624.26 362.75 624.32 362.75 624.32 381.9 643.47 381.9 643.47 362.75 643.41 362.75"/><rect class="cls-12" x="492.04" y="784.08" width="19.15" height="19.15"/><rect class="cls-12" x="510.49" y="420.2" width="19.15" height="19.15"/><rect class="cls-12" x="358.8" y="611.72" width="19.15" height="19.15"/><rect class="cls-12" x="624.32" y="420.2" width="19.15" height="19.15"/><rect class="cls-12" x="586.03" y="630.87" width="19.15" height="19.15"/><rect class="cls-12" x="548.37" y="630.87" width="19.15" height="19.15"/><polygon class="cls-12" points="339.52 878.65 339.52 879.54 339.52 897.7 321.99 897.7 321.99 916.85 341.14 916.85 341.14 897.81 358.67 897.81 358.67 879.54 358.67 878.65 358.67 860.39 339.52 860.39 339.52 878.65"/><polygon class="cls-12" points="321.99 934.81 321.75 934.81 321.75 953.96 340.9 953.96 340.9 936.49 341.14 936.49 341.14 917.34 321.99 917.34 321.99 934.81"/><rect class="cls-12" x="321.99" y="972.68" width="19.15" height="19.15"/><polygon class="cls-12" points="340.92 1011.41 321.77 1011.41 321.77 1030.56 321.99 1030.56 321.99 1048.25 341.14 1048.25 341.14 1029.1 340.92 1029.1 340.92 1011.41"/><polygon class="cls-12" points="322.62 879.54 322.62 860.39 322.48 860.39 322.48 841.53 303.33 841.53 303.33 860.68 303.47 860.68 303.47 879.54 322.62 879.54"/><polygon class="cls-12" points="720.88 884.4 720.88 885.29 720.88 903.55 740.04 903.55 740.04 885.29 740.04 884.4 740.04 866.14 720.88 866.14 720.88 884.4"/><polygon class="cls-12" points="740.21 940.55 740.21 942.24 740.21 959.36 740.21 959.71 740.21 978.51 759.37 978.51 759.37 959.71 759.37 959.36 759.37 942.24 759.37 940.55 759.37 923.09 740.21 923.09 740.21 940.55"/><polygon class="cls-12" points="454.4 1065.99 454.4 1067.76 454.4 1085.11 454.4 1085.14 454.4 1104.26 473.55 1104.26 473.55 1085.14 473.55 1085.11 473.55 1067.76 473.55 1065.99 473.55 1048.61 454.4 1048.61 454.4 1065.99"/><polygon class="cls-12" points="625.26 1085.11 625.26 1085.14 625.26 1104.26 644.41 1104.26 644.41 1085.14 644.41 1085.11 644.41 1065.99 625.26 1065.99 625.26 1085.11"/><rect class="cls-12" x="435.22" y="1122.09" width="19.15" height="19.15"/><polygon class="cls-12" points="435.22 1160.57 434.98 1160.57 434.98 1179.72 454.13 1179.72 454.13 1160.66 454.37 1160.66 454.37 1141.51 435.22 1141.51 435.22 1160.57"/><polygon class="cls-12" points="435.86 1104.26 435.86 1085.11 435.71 1085.11 435.71 1065.99 416.56 1065.99 416.56 1085.14 416.7 1085.14 416.7 1104.26 435.86 1104.26"/><rect class="cls-12" x="605.96" y="1122.09" width="19.15" height="19.15"/><rect class="cls-12" x="605.96" y="1141.51" width="19.15" height="19.15"/><rect class="cls-12" x="605.96" y="1161.13" width="19.15" height="19.15"/><polygon class="cls-12" points="796 847.27 776.85 847.27 776.85 866.14 758.57 866.14 758.57 884.4 758.57 885.29 758.57 903.44 740.21 903.44 740.21 922.59 758.57 922.59 759.37 922.59 777.72 922.59 777.72 903.55 777.72 903.44 777.72 885.29 777.72 884.4 777.72 866.43 796 866.43 796 847.27"/><polygon class="cls-12" points="607.14 1104.26 607.14 1085.11 606.99 1085.11 606.99 1067.76 607.38 1067.76 607.38 1048.61 588.23 1048.61 588.23 1065.99 587.84 1065.99 587.84 1085.14 587.99 1085.14 587.99 1104.26 607.14 1104.26"/><rect class="cls-12" x="547.76" y="592.56" width="19.15" height="19.15"/><rect class="cls-12" x="585.9" y="592.56" width="19.15" height="19.15"/><polygon class="cls-2" points="549.04 286.27 549.02 286.27 529.89 286.27 529.89 305.42 549 305.42 549 324.45 567.51 324.45 567.51 343.6 586.66 343.6 586.66 324.45 587.28 324.45 605.17 324.45 605.42 324.45 624.32 324.45 624.32 305.3 605.42 305.3 605.42 286.27 587.35 286.27 586.27 286.27 568.2 286.27 568.2 305.3 568.17 305.3 568.17 286.27 549.04 286.27"/><polygon class="cls-2" points="511.19 286.14 529.64 286.14 529.64 266.99 511.19 266.99 510.49 266.99 492.04 266.99 492.04 286.14 510.49 286.14 511.19 286.14"/><polygon class="cls-2" points="549 286.14 568.13 286.14 568.13 266.99 549 266.99 548.98 266.99 529.85 266.99 529.85 286.14 548.98 286.14 549 286.14"/><polygon class="cls-2" points="453.7 324.45 472.83 324.45 472.85 324.45 472.89 324.45 472.89 343.6 491.98 343.6 491.98 362.75 492.04 362.75 492.04 381.9 511.19 381.9 511.19 362.75 511.13 362.75 511.13 343.6 511.19 343.6 511.19 324.45 492.04 324.45 491.98 324.45 491.98 305.3 491.93 305.3 491.93 286.27 472.8 286.27 472.78 286.27 453.65 286.27 453.65 305.42 453.7 305.42 453.7 324.45"/><polygon class="cls-2" points="529.64 496.81 529.64 477.66 510.76 477.66 510.76 458.5 491.61 458.5 491.61 477.66 510.49 477.66 510.49 496.81 529.64 496.81"/><polygon class="cls-2" points="340.9 745.77 340.9 726.62 340.9 707.47 359.04 707.47 359.32 707.47 378.19 707.47 378.19 688.32 359.32 688.32 359.32 669.17 359.32 650.02 340.17 650.02 340.17 669.17 340.17 688.32 340.17 707.47 321.75 707.47 321.75 726.62 321.75 745.77 321.75 764.92 340.9 764.92 340.9 745.77"/><polygon class="cls-2" points="472.72 784.08 472.72 803.23 472.22 803.23 472.22 822.38 454.09 822.38 454.09 841.53 473.24 841.53 473.24 822.38 491.37 822.38 491.37 803.23 491.87 803.23 491.87 784.08 491.87 764.92 472.72 764.92 472.72 784.08"/><polygon class="cls-2" points="492.04 878.65 492.04 879.54 492.04 897.81 511.19 897.81 511.19 879.54 511.19 878.65 511.19 860.39 492.04 860.39 492.04 878.65"/><polygon class="cls-2" points="472.72 878.65 472.72 879.54 472.72 897.7 472.72 897.81 472.72 916.85 491.87 916.85 491.87 897.81 491.87 897.7 491.87 879.54 491.87 878.65 491.87 860.39 472.72 860.39 472.72 878.65"/><polygon class="cls-2" points="566.74 784.08 548.28 784.08 548.28 764.92 529.64 764.92 529.13 764.92 510.49 764.92 510.49 784.08 529.13 784.08 529.13 803.23 529.37 803.23 529.37 822.23 528.78 822.23 528.78 841.38 547.94 841.38 547.94 822.38 548.52 822.38 563.92 822.38 563.92 803.23 566.74 803.23 567.09 803.23 585.89 803.23 585.89 784.08 567.09 784.08 566.74 784.08"/><rect class="cls-2" x="302.6" y="764.92" width="19.15" height="19.15"/><polygon class="cls-2" points="359.8 803.23 340.64 803.23 340.64 822.38 359.25 822.38 359.25 841.53 378.4 841.53 378.4 822.38 359.8 822.38 359.8 803.23"/><polygon class="cls-2" points="283.45 803.23 283.45 822.38 302.6 822.38 321.75 822.38 321.75 803.23 302.6 803.23 283.45 803.23"/><rect class="cls-2" x="245.15" y="822.38" width="19.15" height="19.15"/><polygon class="cls-2" points="472.67 897.81 472.67 897.7 472.67 878.65 453.52 878.65 453.52 897.7 453.52 897.81 453.52 916.85 472.67 916.85 472.67 897.81"/><polygon class="cls-2" points="434.66 1011.41 434.66 1011.55 434.66 1029.1 416.1 1029.1 416.1 1048.25 434.66 1048.25 435.25 1048.25 453.81 1048.25 453.81 1030.56 453.81 1029.1 453.81 1011.55 453.81 1011.41 453.81 992.4 434.66 992.4 434.66 1011.41"/><rect class="cls-2" x="416.09" y="1048.61" width="19.15" height="19.15"/><polygon class="cls-2" points="453.74 934.81 434.66 934.81 434.66 953.62 434.66 953.96 434.66 972.77 453.74 972.77 453.74 991.83 472.89 991.83 472.89 972.77 472.89 972.68 472.89 953.96 472.89 953.62 472.89 934.81 453.81 934.81 453.74 934.81"/><rect class="cls-2" x="396.94" y="669.17" width="19.15" height="19.15"/><polygon class="cls-2" points="568.35 535.11 587.5 535.11 587.5 515.96 606.6 515.96 625.75 515.96 625.75 496.81 606.6 496.81 587.45 496.81 568.3 496.81 549.15 496.81 549.15 515.96 549.2 515.96 549.2 535.11 568.35 535.11"/><polygon class="cls-2" points="721.45 784.08 721.45 764.92 721.45 745.77 702.3 745.77 702.3 764.92 702.3 784.08 683.72 784.08 683.72 803.23 702.3 803.23 702.87 803.23 721.45 803.23 721.45 784.08"/><polygon class="cls-2" points="720.88 841.53 720.88 860.68 740.04 860.68 740.04 841.53 740.04 822.38 720.88 822.38 720.88 841.53"/><polygon class="cls-2" points="777.72 822.38 777.72 803.23 759.37 803.23 758.57 803.23 740.21 803.23 740.21 822.38 758.57 822.38 759.37 822.38 776.85 822.38 776.85 841.53 796 841.53 796 822.38 777.72 822.38"/><polygon class="cls-2" points="683.72 726.62 702.87 726.62 702.87 707.47 684.13 707.47 684.13 688.32 665.19 688.32 664.98 688.32 646.03 688.32 646.03 707.47 664.98 707.47 665.19 707.47 683.72 707.47 683.72 726.62"/><polygon class="cls-2" points="416.02 611.72 416.02 592.56 416.07 592.56 416.07 573.41 397.15 573.41 397.15 554.26 378.23 554.26 378 554.26 359.08 554.26 359.08 573.41 340.17 573.41 340.17 592.56 359.08 592.56 359.32 592.56 377.97 592.56 377.97 611.72 377.73 611.72 377.73 630.87 359.38 630.87 359.38 650.02 378.53 650.02 378.53 630.87 396.88 630.87 396.88 611.72 397.12 611.72 416.02 611.72"/><path class="cls-2" d="M661.76,592.56H662V573.41H643.07V554.26H605v19.15H567.4V554.26H491.5v19.15H453.67v19.15h-.09v19.16h19.08v19.15h37.83V650h18.88v19.15h75.75V650H624V630.87h18.83V611.72h18.91Zm-18.92-19.15v19.15H624.16V573.41Zm-132.35,0v19.15H491.74V573.41Zm94.38,57.46V650H548.68V630.87h-.59V611.72h.25V592.56h18.57V573.41h.26v19.15H604.8v19.16h.38v19.15Z"/></g></g></g></svg>