<?xml version="1.0" encoding="UTF-8"?>
<svg width="415px" height="480px" viewBox="0 0 415 480" version="1.1" xmlns="http://www.w3.org/2000/svg" xmlns:xlink="http://www.w3.org/1999/xlink">
    <!-- Generator: Sketch 55 (78076) - https://sketchapp.com -->
    <title>Group 3 Copy</title>
    <desc>Created with Sketch.</desc>
    <defs>
        <path d="M0.956989247,53.3191045 C0.329838862,50.3658542 0,47.3038623 0,44.1654117 C0,19.7735284 19.9233286,0 44.5,0 C69.0766714,0 89,19.7735284 89,44.1654117 C89,45.5112021 88.9393507,46.8429336 88.8206167,48.1580607 C88.9385942,48.8620025 89,49.5851205 89,50.3225806 L89,74.0860215 C89,81.2657233 83.1797017,87.0860215 76,87.0860215 L13.9569892,87.0860215 C6.7772875,87.0860215 0.956989247,81.2657233 0.956989247,74.0860215 L0.956989247,53.3191045 Z" id="path-1"></path>
        <path d="M6,0 L86,0 C89.3137085,-6.08718376e-16 92,2.6862915 92,6 L92,38 C92,53.463973 79.463973,66 64,66 L28,66 C12.536027,66 1.8937905e-15,53.463973 0,38 L0,6 C-4.05812251e-16,2.6862915 2.6862915,4.16143205e-15 6,3.55271368e-15 Z" id="path-3"></path>
    </defs>
    <g id="Page-1" stroke="none" stroke-width="1" fill="none" fill-rule="evenodd">
        <g id="SpockBot-Copy" transform="translate(-642.000000, -44.000000)">
            <g id="Group-3-Copy" transform="translate(642.000000, 44.000000)">
                <g id="Group-2" fill-rule="nonzero">
                    <polygon id="Path" fill="#0773B7" points="415 120 415 360 207.5 480 41.5749097 384 40.8258123 383.625 1.13686838e-13 360 1.13686838e-13 120 207.5 0"></polygon>
                    <path d="M257.554244,430.698996 L263.406865,427.333764 L263.673438,427.79436 C264.290703,428.861102 264.703086,429.884441 264.929654,430.841552 C265.115843,431.744036 265.112104,432.694038 264.911334,433.69156 C264.447356,435.927938 263.202356,437.627017 261.172595,438.800021 C259.189942,439.940099 257.083163,440.203137 254.845154,439.585392 C252.603406,438.960538 250.905645,437.637868 249.748131,435.624491 C248.565194,433.567337 248.280302,431.411778 248.893829,429.149957 C249.507356,426.888135 250.839843,425.159871 252.902879,423.968533 C254.009172,423.332828 255.173789,422.963528 256.392992,422.861382 C257.565086,422.780936 258.894208,422.996455 260.362037,423.497086 L259.675604,425.839353 C257.623784,424.958945 255.761519,424.998981 254.096658,425.959834 C252.59219,426.822282 251.63582,428.061139 251.21596,429.686882 C250.784884,431.283814 251.011451,432.851187 251.891176,434.382267 C252.796699,435.964606 254.107501,436.93631 255.82732,437.30561 C257.433856,437.64161 258.850465,437.455276 260.095465,436.742867 C261.143433,436.139715 261.880712,435.244715 262.311789,434.053376 C262.735014,432.854929 262.717068,431.736927 262.245987,430.677294 L258.708019,432.712372 L257.554244,430.698996 Z" id="Path" fill="#15003E"></path>
                    <polygon id="Rectangle" fill="#15003E" transform="translate(272.221564, 422.670449) rotate(-29.946709) translate(-272.221564, -422.670449) " points="270.991206 414.493872 273.457409 414.493044 273.451923 430.847025 270.985719 430.847853"></polygon>
                    <polygon id="Path" fill="#15003E" points="282.564163 409.929898 289.556352 422.097713 287.424149 423.325345 280.428595 411.165014 277.17178 413.039575 276.014266 411.02994 284.652622 406.053184 285.806397 408.06282"></polygon>
                    <path d="M301.849699,397.155938 L303.302573,399.687906 C301.469843,399.362757 299.892469,399.582017 298.574564,400.341945 C297.121316,401.182691 296.19037,402.414065 295.795933,404.028957 C295.390654,405.647591 295.624325,407.211596 296.489843,408.716858 C297.340406,410.20416 298.570825,411.172497 300.159041,411.618126 C301.750996,412.060388 303.269672,411.863204 304.733762,411.026199 C305.478893,410.59142 306.052041,410.101639 306.435262,409.553863 C306.658091,409.261267 306.869703,408.925268 307.06337,408.534266 C307.256663,408.143265 307.446591,407.701003 307.625676,407.204113 L309.111451,409.787716 C308.29005,411.190831 307.198338,412.275907 305.854636,413.054168 C303.831978,414.219689 301.699775,414.50106 299.458028,413.916616 C297.208802,413.310096 295.507676,412.002019 294.346424,409.988642 C293.309672,408.183675 292.98814,406.228667 293.364257,404.127736 C293.827861,401.547875 295.237365,399.589501 297.5666,398.248497 C298.837397,397.514013 300.264847,397.148454 301.849699,397.155938" id="Path" fill="#15003E"></path>
                    <path d="M313.101797,398.301309 C311.9555,396.306266 311.703509,394.172035 312.338721,391.903104 C312.974306,389.630432 314.310532,387.905535 316.351509,386.725422 C318.370428,385.56701 320.517212,385.293122 322.788495,385.903384 C325.073986,386.517387 326.793432,387.832573 327.958423,389.856801 C329.126779,391.892253 329.400455,394.044445 328.757766,396.302525 C328.11545,398.568088 326.760905,400.299719 324.694131,401.487316 C322.86514,402.546948 320.857063,402.850395 318.67364,402.426468 C316.263649,401.951653 314.40886,400.573981 313.101797,398.301309 M315.266901,397.084528 C316.168685,398.648159 317.435743,399.63483 319.067703,400.036682 C320.692559,400.442276 322.193288,400.2522 323.566153,399.463088 C325.051928,398.608124 326.008671,397.373008 326.443113,395.758116 C326.862973,394.128257 326.65136,392.567993 325.785842,391.077324 C324.916959,389.564579 323.686541,388.589133 322.090847,388.150613 C320.495527,387.6975 318.954793,387.898426 317.476122,388.753391 C316.000815,389.604614 315.055288,390.832621 314.631689,392.443771 C314.200986,394.047812 314.412599,395.593484 315.266901,397.084528" id="Shape" fill="#FFFFFF"></path>
                    <polygon id="Rectangle" fill="#15003E" transform="translate(335.704152, 386.082564) rotate(-29.967323) translate(-335.704152, -386.082564) " points="334.473449 377.908052 336.940343 377.907224 336.934855 394.257076 334.467961 394.257905"></polygon>
                    <polygon id="Path" fill="#15003E" points="349.153343 387.776393 340.445447 372.634349 356.99946 377.501475 351.333028 367.646742 353.46523 366.418736 362.118541 381.462375 345.578735 376.620693 351.289284 386.544645"></polygon>
                    <polygon id="Path" fill="#FFFFFF" points="380.368188 139.836735 380.368188 338.808961 207.989387 438.482431 35.6105856 338.808961 35.6105856 139.836735 207.989387 40.1632653"></polygon>
                    <path d="M207.989387,40.1632653 L35.2358491,139.879147 L35.2358491,341.935013 L207.61465,442.400638 L380.368188,338.936039 L380.368188,139.879147 L207.989387,40.1632653 Z M373.997667,335.187322 L207.989387,434.528332 L42.7305795,337.811424 L42.7305795,143.627865 L208.364123,48.4104435 L373.997667,144.002736 L373.997667,335.187322 Z" id="Shape" fill="#E6E7E8"></path>
                </g>
                <path d="M251.93047,341.5 L311.830572,341.5" id="Line-3-Copy" stroke="#15003E" stroke-width="4" stroke-linecap="round"></path>
                <path d="M118.830572,341.5 L162.269326,341.5" id="Line-3-Copy-2" stroke="#15003E" stroke-width="4" stroke-linecap="round"></path>
                <path d="M105.830572,341.5 L112.269326,341.5" id="Line-3-Copy-3" stroke="#15003E" stroke-width="4" stroke-linecap="round"></path>
                <g id="banana-minion" opacity="0.052284" transform="translate(305.500000, 176.000000) scale(-1, 1) translate(-305.500000, -176.000000) translate(277.000000, 153.000000)" stroke="#15003E" stroke-linecap="round" stroke-width="4">
                    <path d="M55.8971505,30.5095774 C24.7163191,35.4752929 9.12590339,25.8557202 9.12590339,1.65085928 C9.12590339,1.00270386 6.36941026,3.63653276 4.20197248,1.00270386 C4.12741206,0.944613107 4.12741206,1.82255607 4.20197248,3.63653276 C-2.72766177,17.4992146 -1.08635147,28.6496761 9.12590339,37.0879173 C18.6969157,44.5527433 28.8730979,47.2699907 39.6544498,45.2396596 C47.5187198,43.6574153 52.9329533,39.8437779 55.8971505,33.7987474 C55.9694685,33.7505137 56.337085,32.6541237 57,30.5095774 L55.8971505,30.5095774 Z" id="Path-9" fill="#F2CE51" stroke-linejoin="round"></path>
                    <ellipse id="Oval" fill="#15003E" cx="7" cy="1" rx="3" ry="1"></ellipse>
                </g>
                <g id="banana-minion-copy" opacity="0.052284" transform="translate(128.000000, 130.500000) scale(-1, 1) rotate(42.000000) translate(-128.000000, -130.500000) translate(105.000000, 112.000000)" stroke="#15003E" stroke-linecap="round" stroke-width="3.19999981">
                    <path d="M45.1099811,24.5403123 C19.9465031,28.5344747 7.36476414,20.7969923 7.36476414,1.32786507 C7.36476414,0.806522668 5.14022582,2.92503722 3.39106551,0.806522668 C3.33089394,0.759797499 3.33089394,1.46596902 3.39106551,2.92503722 C-2.2012709,14.0754552 -0.876704693,23.0443047 7.36476414,29.8315856 C15.088739,35.8359022 23.3010965,38.0215143 32.0018367,36.3884219 C38.3484405,35.1157471 42.717822,32.0482561 45.1099811,27.185949 C45.168343,27.1471523 45.465016,26.2652734 46,24.5403123 L45.1099811,24.5403123 Z" id="Path-9" fill="#F2CE51" stroke-linejoin="round"></path>
                    <ellipse id="Oval" fill="#15003E" cx="5.64912281" cy="0.804347826" rx="2.42105263" ry="1"></ellipse>
                </g>
                <g id="banana-minion-copy-5" opacity="0.052284" transform="translate(260.000000, 106.000000) rotate(345.000000) translate(-260.000000, -106.000000) translate(243.000000, 92.000000)" stroke="#15003E" stroke-linecap="round" stroke-width="2.39999986">
                    <path d="M33.3421599,18.5710471 C14.7430675,21.5936566 5.44352132,15.7382645 5.44352132,1.00487086 C5.44352132,0.610341478 3.79929735,2.21354168 2.50643972,0.610341478 C2.46196509,0.574981891 2.46196509,1.10938196 2.50643972,2.21354168 C-1.62702632,10.6516958 -0.647999121,17.4389333 5.44352132,22.575254 C11.1525462,27.1190611 17.2225496,28.7730378 23.6535315,27.5371841 C28.3444995,26.5740789 31.5740423,24.2527344 33.3421599,20.5731506 C33.385297,20.5437909 33.604577,19.8764231 34,18.5710471 L33.3421599,18.5710471 Z" id="Path-9" fill="#F2CE51" stroke-linejoin="round"></path>
                    <ellipse id="Oval" fill="#15003E" cx="4.1754386" cy="0.608695652" rx="1.78947368" ry="1"></ellipse>
                </g>
                <g id="banana-minion-copy-2" opacity="0.052284" transform="translate(84.000000, 283.000000) scale(-1, 1) rotate(4.000000) translate(-84.000000, -283.000000) translate(64.000000, 267.000000)" stroke="#15003E" stroke-linecap="round" stroke-width="2.80000019">
                    <path d="M39.2260705,21.2240539 C17.3447853,24.6784646 6.40414273,17.986588 6.40414273,1.14842384 C6.40414273,0.697533118 4.46976158,2.52976192 2.94875261,0.697533118 C2.89642951,0.657122161 2.89642951,1.2678651 2.94875261,2.52976192 C-1.91414861,12.1733667 -0.762351907,19.9302095 6.40414273,25.8002903 C13.1206426,30.9932127 20.2618231,32.8834718 27.8276841,31.4710676 C33.34647,30.3703759 37.1459322,27.7174107 39.2260705,23.5121721 C39.27682,23.4786182 39.5347965,22.7159122 40,21.2240539 L39.2260705,21.2240539 Z" id="Path-9" fill="#F2CE51" stroke-linejoin="round"></path>
                    <ellipse id="Oval" fill="#15003E" cx="4.9122807" cy="0.695652174" rx="2.10526316" ry="1"></ellipse>
                </g>
                <g id="banana-minion-copy-3" opacity="0.052284" transform="translate(325.000000, 291.000000) rotate(109.000000) translate(-325.000000, -291.000000) translate(305.000000, 275.000000)" stroke="#15003E" stroke-linecap="round" stroke-width="2.80000019">
                    <path d="M39.2260705,21.2240539 C17.3447853,24.6784646 6.40414273,17.986588 6.40414273,1.14842384 C6.40414273,0.697533118 4.46976158,2.52976192 2.94875261,0.697533118 C2.89642951,0.657122161 2.89642951,1.2678651 2.94875261,2.52976192 C-1.91414861,12.1733667 -0.762351907,19.9302095 6.40414273,25.8002903 C13.1206426,30.9932127 20.2618231,32.8834718 27.8276841,31.4710676 C33.34647,30.3703759 37.1459322,27.7174107 39.2260705,23.5121721 C39.27682,23.4786182 39.5347965,22.7159122 40,21.2240539 L39.2260705,21.2240539 Z" id="Path-9" fill="#F2CE51" stroke-linejoin="round"></path>
                    <ellipse id="Oval" fill="#15003E" cx="4.9122807" cy="0.695652174" rx="2.10526316" ry="1"></ellipse>
                </g>
                <g id="Group" transform="translate(97.000000, 133.000000)">
                    <g id="Path-11" transform="translate(66.000000, 14.000000)">
                        <path d="M-1.04301075,53.5267441 C-1.67750372,50.4689701 -2,47.3372549 -2,44.1654117 C-2,18.6655658 18.822124,-2 44.5,-2 C70.177876,-2 91,18.6655658 91,44.1654117 C91,45.4801268 90.9445939,46.7883958 90.8343986,48.0879107 C90.9443996,48.8235116 91,49.5698709 91,50.3225806 L91,74.0860215 C91,82.3702928 84.2842712,89.0860215 76,89.0860215 L13.9569892,89.0860215 C5.672718,89.0860215 -1.04301075,82.3702928 -1.04301075,74.0860215 L-1.04301075,53.5267441 Z" id="Mask-Copy" stroke="#15003E" stroke-width="4" fill="#F8F14A" stroke-linecap="round"></path>
                        <mask id="mask-2" fill="white">
                            <use xlink:href="#path-1"></use>
                        </mask>
                        <path stroke="#15003E" stroke-width="4" d="M-1.04301075,53.5267441 C-1.67750372,50.4689701 -2,47.3372549 -2,44.1654117 C-2,18.6655658 18.822124,-2 44.5,-2 C70.177876,-2 91,18.6655658 91,44.1654117 C91,45.4801268 90.9445939,46.7883958 90.8343986,48.0879107 C90.9443996,48.8235116 91,49.5698709 91,50.3225806 L91,74.0860215 C91,82.3702928 84.2842712,89.0860215 76,89.0860215 L13.9569892,89.0860215 C5.672718,89.0860215 -1.04301075,82.3702928 -1.04301075,74.0860215 L-1.04301075,53.5267441 Z"></path>
                        <path d="M48.631068,-1.0658141e-14 C70.5436893,10.7526882 81.5,23.8082437 81.5,39.1666667 C81.5,54.5250896 82.0108471,70.9131419 83.0325412,88.3308235 L99,97.1480521 L109,45.625 L94,-23.0771147 L40.3134766,-25.5693359 L48.631068,-1.0658141e-14 Z" fill="#E3D158" mask="url(#mask-2)"></path>
                    </g>
                    <g id="Group-Copy" transform="translate(61.000000, 31.625000)">
                        <ellipse id="Oval" stroke="#15003E" stroke-width="3.23999977" fill="#3EB977" cx="49.2427184" cy="23.3333333" rx="17.2427184" ry="14"></ellipse>
                        <circle id="Oval" stroke="#BCBCBC" stroke-width="3.24" cx="49" cy="23.3333333" r="20"></circle>
                        <rect id="Rectangle-Copy-5" fill="#15003E" x="74" y="18" width="25" height="6" rx="1"></rect>
                        <rect id="Rectangle-Copy-7" fill="#15003E" x="0" y="18" width="25" height="6" rx="1"></rect>
                        <rect id="Rectangle-Copy-6" fill="#15003E" x="74" y="25" width="25" height="6" rx="1"></rect>
                        <rect id="Rectangle-Copy-8" fill="#15003E" x="0" y="25" width="25" height="6" rx="1"></rect>
                        <rect id="Rectangle" fill="#83787C" x="72" y="18" width="4" height="14" rx="1"></rect>
                        <rect id="Rectangle-Copy" fill="#83787C" x="22" y="18" width="4" height="14" rx="1"></rect>
                        <circle id="Oval-Copy-2" stroke="#83787C" stroke-width="3.24" cx="49" cy="23.3333333" r="23"></circle>
                        <ellipse id="Oval" fill="#FFFFFF" cx="56.8640777" cy="18.2916667" rx="3.23300971" ry="3.25"></ellipse>
                        <ellipse id="Oval-Copy" fill="#FFFFFF" cx="60.0970874" cy="24.25" rx="1.0776699" ry="1.08333333"></ellipse>
                    </g>
                    <g id="Rectangle-+-Rectangle-Copy-2-Mask-Copy" transform="translate(65.000000, 115.625000)">
                        <path d="M6,-2 L86,-2 C90.418278,-2 94,1.581722 94,6 L94,38 C94,54.5685425 80.5685425,68 64,68 L28,68 C11.4314575,68 -2,54.5685425 -2,38 L-2,6 C-2,1.581722 1.581722,-2 6,-2 Z" id="Mask" stroke="#15003E" stroke-width="4" fill="#F8F14A" stroke-linecap="round"></path>
                        <mask id="mask-4" fill="white">
                            <use xlink:href="#path-3"></use>
                        </mask>
                        <path stroke="#15003E" stroke-width="4" d="M6,-2 L86,-2 C90.418278,-2 94,1.581722 94,6 L94,38 C94,54.5685425 80.5685425,68 64,68 L28,68 C11.4314575,68 -2,54.5685425 -2,38 L-2,6 C-2,1.581722 1.581722,-2 6,-2 Z"></path>
                        <path d="M52.631068,-34.625 C74.5436893,-23.8723118 85.5,-10.8167563 85.5,4.54166667 C85.5,19.9000896 86.0108471,36.2881419 87.0325412,53.7058235 L103,62.5230521 L113,11 L98,-57.7021147 L44.3134766,-60.1943359 L52.631068,-34.625 Z" id="Path-11" fill="#E3D158" mask="url(#mask-4)"></path>
                        <path d="M-2.33171034,39.7175801 C18.6754983,36.1845059 34.4527351,34.4179687 45,34.4179687 C55.553962,34.4179687 71.6614102,36.18675 93.3223444,39.7243124 L93.3223469,39.724297 C94.2896855,39.8822782 95,40.7180084 95,41.6981624 L95,85 C95,86.1045695 94.1045695,87 93,87 L-2,87 C-3.1045695,87 -4,86.1045695 -4,85 L-4.00000698,41.6898875 C-4.00000698,40.7133218 -3.29475082,39.879548 -2.33171034,39.7175801 Z" id="Rectangle-Copy-2" fill="#0773B7" mask="url(#mask-4)"></path>
                        <path d="M28.5154091,5 L63.5509265,5 C67.1949326,5 70.229428,7.79566913 70.5274733,11.4274661 L74.0419116,54.2522544 C74.3581134,58.1052948 71.4909392,61.4851334 67.6378988,61.8013351 C67.3944634,61.8213128 67.1501493,61.8285353 66.905959,61.8229731 L25.3490772,60.876383 C21.4840865,60.7883455 18.4222609,57.583783 18.5102983,53.7187923 C18.512897,53.6047058 18.5182851,53.4907 18.5264578,53.3768769 L21.5333838,11.4986787 C21.7963247,7.83663597 24.8439387,5 28.5154091,5 Z" id="Rectangle" fill="#0773B7" mask="url(#mask-4)"></path>
                        <rect id="Rectangle" fill="#0773B7" mask="url(#mask-4)" transform="translate(13.400371, 6.537552) rotate(11.000000) translate(-13.400371, -6.537552) " x="-1.09962936" y="3.53755192" width="29" height="6" rx="2"></rect>
                        <rect id="Rectangle-Copy-3" fill="#0773B7" mask="url(#mask-4)" transform="translate(80.500000, 5.360352) scale(-1, 1) rotate(11.000000) translate(-80.500000, -5.360352) " x="66" y="2.36035156" width="29" height="6" rx="2"></rect>
                    </g>
                    <circle id="Oval-Copy-4" stroke="#15003E" stroke-width="4" stroke-linecap="round" cx="90" cy="125.625" r="3"></circle>
                    <circle id="Oval-Copy-5" stroke="#15003E" stroke-width="4" stroke-linecap="round" cx="131" cy="125.625" r="3"></circle>
                    <path d="M85,154.227539 C84.5240885,161.04069 82.7740885,165.453776 79.75,167.466797" id="Path-9-Copy-2" stroke="#15003E" stroke-width="4" stroke-linecap="round"></path>
                    <path d="M142,154.227539 C141.524089,161.04069 139.774089,165.453776 136.75,167.466797" id="Path-9-Copy-3" stroke="#15003E" stroke-width="4" stroke-linecap="round" transform="translate(139.375000, 160.847168) scale(-1, 1) translate(-139.375000, -160.847168) "></path>
                    <path d="M92,85.625 C104.892578,91.6009115 117.225911,91.6009115 129,85.625" id="Path-10-Copy" stroke="#15003E" stroke-width="4" stroke-linecap="round"></path>
                    <rect id="Rectangle-Copy-11" stroke="#15003E" stroke-width="4" fill="#0773B7" stroke-linecap="round" x="87" y="188.625" width="18" height="10" rx="2"></rect>
                    <rect id="Rectangle-Copy-12" stroke="#15003E" stroke-width="4" fill="#15003E" stroke-linecap="round" x="76" y="203.625" width="29" height="10" rx="2"></rect>
                    <rect id="Rectangle-Copy-13" stroke="#15003E" stroke-width="4" fill="#0773B7" stroke-linecap="round" x="115" y="188.625" width="18" height="10" rx="2"></rect>
                    <rect id="Rectangle-Copy-15" stroke="#15003E" stroke-width="4" fill="#F8F14A" stroke-linecap="round" transform="translate(170.000000, 127.625000) rotate(90.000000) translate(-170.000000, -127.625000) " x="161" y="122.625" width="18" height="10" rx="2"></rect>
                    <rect id="Rectangle-Copy-16" stroke="#15003E" stroke-width="4" fill="#F8F14A" stroke-linecap="round" transform="translate(51.000000, 127.625000) rotate(90.000000) translate(-51.000000, -127.625000) " x="42" y="122.625" width="18" height="10" rx="2"></rect>
                    <rect id="Rectangle-Copy-14" stroke="#15003E" stroke-width="4" fill="#15003E" stroke-linecap="round" x="115" y="203.71875" width="29" height="10" rx="2"></rect>
                    <g id="Group-5-Copy" transform="translate(181.000000, 115.625000)">
                        <rect id="Rectangle" stroke="#15003E" stroke-width="4" fill="#F8F14A" stroke-linecap="round" x="0" y="0" width="16" height="54" rx="6"></rect>
                        <path d="M3.49414062,25 L13,25" id="Line-Copy" stroke="#15003E" stroke-width="5" stroke-linecap="square"></path>
                        <circle id="Oval" stroke="#15003E" stroke-width="4" fill="#3EB977" stroke-linecap="round" cx="8" cy="50" r="6"></circle>
                        <path d="M3.06091793,66.4832496 C4.08749091,64.4124891 6.13795721,63 8.5,63 C10.8620428,63 12.9125091,64.4124891 13.9390821,66.4832496 C12.3527211,67.4458031 10.4910804,68 8.5,68 C6.50891963,68 4.64727887,67.4458031 3.06091793,66.4832496 Z" id="Combined-Shape" stroke="#15003E" stroke-width="4" fill="#15003E" stroke-linecap="round" stroke-linejoin="round" transform="translate(8.500000, 65.500000) scale(1, -1) translate(-8.500000, -65.500000) "></path>
                        <rect id="Rectangle" fill="#15003E" x="6" y="56" width="4" height="10" rx="2"></rect>
                    </g>
                    <g id="Group-5-Copy-2" transform="translate(26.416375, 109.446774) scale(1, -1) rotate(14.000000) translate(-26.416375, -109.446774) translate(18.416375, 81.446774)" stroke="#15003E">
                        <rect id="Rectangle" stroke-width="4" fill="#F8F14A" stroke-linecap="round" x="0" y="0" width="16" height="54" rx="6"></rect>
                        <path d="M3.49414062,25 L13,25" id="Line-Copy" stroke-width="5" stroke-linecap="square"></path>
                        <circle id="Oval" stroke-width="4" fill="#3EB977" stroke-linecap="round" cx="8" cy="50" r="6"></circle>
                    </g>
                    <g id="banana-minion" transform="translate(0.000000, 49.625000)" stroke-linecap="round">
                        <path d="M55.8971505,30.5095774 C24.7163191,35.4752929 9.12590339,25.8557202 9.12590339,1.65085928 C9.12590339,1.00270386 6.36941026,3.63653276 4.20197248,1.00270386 C4.12741206,0.944613107 4.12741206,1.82255607 4.20197248,3.63653276 C-2.72766177,17.4992146 -1.08635147,28.6496761 9.12590339,37.0879173 C18.6969157,44.5527433 28.8730979,47.2699907 39.6544498,45.2396596 C47.5187198,43.6574153 52.9329533,39.8437779 55.8971505,33.7987474 C55.9694685,33.7505137 56.337085,32.6541237 57,30.5095774 L55.8971505,30.5095774 Z" id="Path-9" stroke="#15003E" stroke-width="4" fill="#F2CE51" stroke-linejoin="round"></path>
                        <path d="M6,18 C9.92808787,32.631608 22.2614212,39.6173605 43,38.9572576" id="Path-10" stroke="#CFAC34" stroke-width="2"></path>
                        <ellipse id="Oval" stroke="#15003E" stroke-width="4" fill="#15003E" cx="7" cy="1" rx="3" ry="1"></ellipse>
                    </g>
                    <path d="M103.875,17.3333333 L99.125,5.58333333" id="Line-5-Copy" stroke="#15003E" stroke-width="4" stroke-linecap="round"></path>
                    <path d="M110.875,17.3333333 L110.875,0.625" id="Line-5-Copy-2" stroke="#15003E" stroke-width="4" stroke-linecap="round"></path>
                    <path d="M118.46875,17.3020833 L123.40625,5.61458333" id="Line-5-Copy-3" stroke="#15003E" stroke-width="4" stroke-linecap="round"></path>
                </g>
                <g id="GitCoinLogo.33910fe99508" transform="translate(200.000000, 266.000000)" fill-rule="nonzero">
                    <polygon id="Path" fill="#00478C" points="11.6020253 6.59761607 13.0149873 9.29772321 11.9427848 13.7134375 9.38926582 11.6902232 9.83686076 8.45111607"></polygon>
                    <path d="M7.82967089,5.69276786 C7.53573874,5.69271363 7.29747363,5.46162839 7.29741772,5.17655357 L7.29741772,1.10792857 C7.29741772,0.822831294 7.53571558,0.591714286 7.82967089,0.591714286 C8.12362619,0.591714286 8.36192405,0.822831294 8.36192405,1.10792857 L8.36192405,5.17655357 C8.36192406,5.46166674 8.12364257,5.69281184 7.82967089,5.69286607" id="Path" fill="#15003E"></path>
                    <path d="M7.03837975,5.17754464 L8.6835443,5.17754464" id="Path" fill="#FFFFFF"></path>
                    <path d="M8.6835443,5.69276786 L7.03837975,5.69276786 C6.74847063,5.68728279 6.5164084,5.45778008 6.5164084,5.17655357 C6.5164084,4.89532706 6.74847063,4.66582435 7.03837975,4.66033929 L8.6835443,4.66033929 C8.97466456,4.66423374 9.20855661,4.89422817 9.20855661,5.17660268 C9.20855661,5.45897719 8.97466456,5.68897162 8.6835443,5.69286607" id="Path" fill="#15003E"></path>
                    <path d="M11.6020253,6.59761607 L13.3508861,4.99888393 C12.012557,3.70088393 10.1636456,2.89798214 8.12151899,2.89798214 C4.03696203,2.89798214 0.725873418,6.10929464 0.725873418,10.0705714 C0.725873418,14.0320446 4.03696203,17.2434554 8.12141772,17.2434554 C9.6438481,17.2434554 10.9827848,17.7824554 12.1588861,17.0175625 L13.6225823,17.2139911 L13.5807595,14.9093929 L9.38936709,11.6902232 L10.2904304,7.57396429 L11.6019241,6.59761607" id="Path" fill="#00478C"></path>
                    <path d="M8.12151899,17.9472589 C3.64324051,17.9472589 0,14.4138036 0,10.0707679 C0,5.72753571 3.64324051,2.19408036 8.12151899,2.19408036 C10.2907342,2.19408036 12.3302278,3.01338393 13.8641013,4.50113393 L14.3927089,5.0138125 L12.0997468,7.10980357 L11.1041013,6.08542857 L12.2789873,5.01135714 C11.1019747,4.09796429 9.65093671,3.60198214 8.12141772,3.60198214 C4.44364557,3.60198214 1.45164557,6.50372321 1.45164557,10.0707679 C1.45164557,13.6375179 4.44364557,16.5394554 8.12141772,16.5394554" id="Path" fill="#15003E"></path>
                    <path d="M12.1978734,13.9012232 L11.1553418,12.9215357 C11.9229367,12.1532054 12.3457215,11.1409107 12.3457215,10.0707679 C12.3457215,8.95377679 11.8906329,7.91005357 11.0644051,7.13160714 L10.5206076,6.61932143 L11.1037975,6.085625 L11.6006076,6.59614286 L12.0757468,6.12176786 C13.1859241,7.16755357 13.7972658,8.57005357 13.7972658,10.0707679 C13.7972658,11.508625 13.2291646,12.8686964 12.1978734,13.9012232" id="Path" fill="#0FCE7C"></path>
                    <path d="M6.45164557,10.0706696 C6.45164557,9.17633036 7.19918987,8.45121429 8.12141772,8.45121429 C9.04364557,8.45121429 9.79129114,9.17633036 9.79129114,10.0707679 C9.79129114,10.9651071 9.04364557,11.690125 8.12141772,11.690125 C7.19918987,11.690125 6.4515443,10.9651071 6.4515443,10.0706696" id="Path" fill="#00478C"></path>
                    <path d="M8.12151899,9.15521429 C7.60081013,9.15521429 7.17741772,9.56594643 7.17741772,10.0707679 C7.17741772,10.5754911 7.60081013,10.9863214 8.12141772,10.9863214 C8.64192405,10.9863214 9.06541772,10.5754911 9.06541772,10.0707679 C9.06541772,9.56594643 8.64192405,9.15521429 8.12141772,9.15521429 M8.12141772,12.394125 C6.80050633,12.394125 5.72577215,11.351875 5.72577215,10.0707679 C5.72577215,8.78966071 6.80050633,7.7473125 8.12141772,7.7473125 C9.44232911,7.7473125 10.516962,8.78966071 10.516962,10.0707679 C10.516962,11.351875 9.44232911,12.394125 8.12141772,12.394125 M13.3508861,4.99878571 L9.13063291,8.780625" id="Shape" fill="#15003E"></path>
                    <polygon id="Path" fill="#15003E" points="9.62329114 9.29772321 8.63797468 8.263625 12.8582278 4.48188393 13.8435443 5.51588393"></polygon>
                    <polyline id="Path" fill="#00478C" points="8.90936709 11.4988036 11.9427848 13.7135357 13.5807595 14.9093929 13.5807595 17.9473571 10.2904304 17.7936518"></polyline>
                    <polygon id="Path" fill="#15003E" points="14.3065316 17.9473571 7.98956962 17.9473571 7.98956962 16.5395536 12.8549873 16.5395536 12.8549873 15.2608036 8.47291139 12.0610804 9.34592405 10.9363304 14.3066329 14.5579821"></polygon>
                    <path d="M5.31017722,7.11383036 C5.01624507,7.11377613 4.77797996,6.88269089 4.77792405,6.59761607 L4.77792405,1.10802679 C4.77792405,0.822902387 5.01624458,0.591763393 5.31022785,0.591763393 C5.60421112,0.591763393 5.84253165,0.822902387 5.84253165,1.10802679 L5.84253165,6.59761607 C5.84241984,6.88270677 5.60412576,7.11377616 5.31017722,7.11383036" id="Path" fill="#15003E"></path>
                </g>
            </g>
        </g>
    </g>
</svg>