<?xml version="1.0" encoding="UTF-8"?>
<svg width="93px" height="107px" viewBox="0 0 93 107" version="1.1" xmlns="http://www.w3.org/2000/svg" xmlns:xlink="http://www.w3.org/1999/xlink">
    <!-- Generator: Sketch 51.3 (57544) - http://www.bohemiancoding.com/sketch -->
    <title>pika_bot</title>
    <desc>Created with Sketch.</desc>
    <defs></defs>
    <g id="Page-1" stroke="none" stroke-width="1" fill="none" fill-rule="evenodd">
        <g id="pika_bot" fill-rule="nonzero">
            <path d="M92.1608,26.8704 L92.1608,80.011 L92.1501,80.0208 L92.1306,80.0306 L91.7204,80.2708 L91.3503,80.4817 L90.7302,80.8313 L86.5808,83.221 L86.57,83.2317 L86.4401,83.3108 L86.3806,83.3411 L85.8308,83.6614 L85.03,84.1106 L84.9304,84.1712 L84.4509,84.4505 L83.32,85.1009 L82.4704,85.5911 L81.7302,86.0208 L81.4909,86.1517 L81.3601,86.2005 L81.2507,86.2708 L80.2507,86.8411 L80.2204,86.8606 L78.2204,88.011 L77.7106,88.3011 L77.57,88.3812 L77.5407,88.4017 L77.4001,88.4817 L77.3903,88.4915 L76.3503,89.0813 L76.3103,89.1106 L76.2409,89.1517 L75.0808,89.8216 L74.6306,90.0813 L74.6208,90.0911 L74.6101,90.1009 L74.6003,90.1009 L74.1804,90.3411 L73.0603,90.9915 L72.1901,91.511 L71.0105,92.181 L70.9304,92.2317 L70.8103,92.3011 L70.7702,92.3313 L70.7302,92.3509 L70.7106,92.3606 L70.6101,92.4212 L70.32,92.5911 L70.2907,92.6009 L70.1306,92.6907 L70.1306,92.7005 L69.7302,92.931 L69.4606,93.0911 L69.3503,93.1517 L69.1706,93.2415 L69.1501,93.261 L69.1101,93.2806 L68.4206,93.6712 L68.3601,93.7112 L68.1208,93.8509 L68.1003,93.8606 L67.8103,94.0306 L67.6608,94.1106 L67.4401,94.2415 L67.2009,94.3812 L67.1901,94.3812 L66.7702,94.6312 L66.4802,94.8011 L66.4509,94.8216 L66.1501,94.9915 L64.7907,95.7806 L64.2907,96.0716 L64.0407,96.2112 L63.3405,96.6106 L63.3103,96.6312 L63.3005,96.6312 L62.9909,96.8108 L62.9401,96.8411 L62.7009,96.9915 L61.8601,97.471 L61.2302,97.8313 L61.1706,97.8606 L60.6706,98.1517 C60.6608,98.1614 60.6608,98.1614 60.6608,98.1517 L60.1306,98.4612 L59.8405,98.6312 L59.0808,99.0716 L59.03,99.1009 L58.9802,99.1312 L58.9509,99.1409 C58.9509,99.1517 58.9401,99.1517 58.9401,99.1517 L58.9206,99.1712 L58.6706,99.3108 L57.6706,99.8909 L57.5007,99.9915 L57.4606,100.011 L57.0808,100.2317 L55.6608,101.0511 L55.3005,101.261 L55.2106,101.3108 L54.9704,101.4505 L54.1706,101.9114 L53.9108,102.0608 L53.6306,102.221 L53.6208,102.2317 L53.4206,102.3509 L53.1901,102.4817 L52.8405,102.681 L52.0105,103.1614 L52.0007,103.1712 L51.9108,103.221 L50.5905,103.9817 L50.57,103.9915 L49.78,104.4505 L49.1706,104.8011 L49.1608,104.8011 L47.7507,105.6106 L47.7302,105.6312 L47.4802,105.7708 L46.9206,106.0911 L46.9108,106.0911 L46.78,106.1712 L46.5905,106.2806 L46.32,106.4407 L46.3103,106.4407 L46.1101,106.5608 L46.0505,106.5306 L44.9108,105.8704 L44.8903,105.8606 L44.6901,105.7415 L43.8405,105.2513 L43.8103,105.2415 L43.4802,105.0511 L43.4704,105.0403 L42.07,104.2317 L42.0603,104.221 L42.0407,104.2112 L40.6706,103.4212 L40.6403,103.4017 L40.6306,103.4017 L39.8005,102.9212 L39.7409,102.8812 L39.4001,102.6907 L39.2204,102.5813 L39.2009,102.5716 L38.5407,102.1907 L38.5007,102.1614 L38.4108,102.1106 L38.3103,102.0511 L38.1804,101.9817 L37.9108,101.8216 L37.7907,101.7513 L37.78,101.7513 L37.0603,101.3313 L36.82,101.2005 L36.4304,100.971 L36.3806,100.9407 L36.3503,100.9212 L34.9509,100.1106 L34.9401,100.1106 L34.8308,100.0403 L34.4606,99.8216 L34.4509,99.8216 L34.1804,99.6614 L33.5603,99.3011 L33.53,99.2903 L33.4704,99.2513 L33.4304,99.2317 L32.1403,98.4817 L31.7507,98.2513 L31.07,97.8606 L30.4909,97.5306 L30.3806,97.471 L29.3806,96.8909 L27.6608,95.8909 C27.6501,95.8812 27.6403,95.8704 27.6306,95.8704 L26.3103,95.1106 L22.3903,92.8509 L22.2302,92.761 L21.6608,92.431 L21.1901,92.1614 L20.7507,91.9017 L20.4509,91.7317 L20.07,91.511 L19.0808,90.931 L19.0407,90.9114 L16.3005,89.3216 L16.2009,89.261 L16.0202,89.1614 L15.3503,88.7806 L14.53,88.3108 L14.4401,88.261 L13.9401,87.971 L13.9304,87.9612 L13.8503,87.9114 L13.8405,87.9114 L13.7204,87.8411 L13.7106,87.8411 L13.4001,87.6614 L12.6706,87.2415 C12.6608,87.2317 12.6608,87.2317 12.6501,87.2317 L10.7907,86.1517 L9.7702,85.5608 L7.6608,84.3313 L7.57,84.2806 L7.3708,84.1614 C7.3708,84.1614 7.3601,84.1614 7.3503,84.1517 L7.07,83.9915 L6.5407,83.6907 L5.7204,83.2112 L5.6608,83.1712 L5.6501,83.1712 C5.6501,83.1712 5.6501,83.1712 5.6403,83.1712 L5.1501,82.8812 L4.4509,82.4817 L3.7702,82.0911 L2.5505,81.3812 L2.4509,81.3216 L2.4401,81.3216 L2.1101,81.1312 L1.7009,80.8909 L1.6901,80.8909 L1.2605,80.6409 L0.2702,80.0716 L0.1901,80.0306 L0.1608,80.011 L0.1608,26.8704 L0.9401,26.4212 L2.53,25.5013 L2.8903,25.2903 L6.2702,23.3411 L7.3308,22.7317 L13.1101,19.3909 L13.1208,19.3909 L14.03,18.8704 L15.0808,18.2513 L16.9001,17.2005 L16.9108,17.2005 L17.78,16.6907 L21.4108,14.6106 L22.0505,14.2317 L22.9909,13.6907 L23.1608,13.6009 L24.82,12.6517 L25.6003,12.2005 L25.9802,11.9817 L26.4206,11.721 L27.0905,11.3313 L27.5202,11.0716 L28.0407,10.7708 L28.5407,10.4915 L29.1306,10.1517 L30.32,9.471 L31.0105,9.0608 L31.7605,8.6312 L32.4108,8.261 L32.4206,8.261 L32.4704,8.2317 L32.9001,7.9817 L38.1901,4.931 L38.3005,4.8704 L38.3806,4.8216 L38.6501,4.6614 L44.1706,1.471 L44.7204,1.1517 L46.1608,0.3216 L46.6706,0.6204 L47.7605,1.2513 L50.6208,2.9017 L53.7106,4.6907 L56.3103,6.1907 L56.53,6.3216 L61.2204,9.0208 L62.2009,9.5911 L67.3308,12.5511 L68.2409,13.0716 L69.28,13.681 L71.5808,14.9915 L72.4509,15.4915 L73.1403,15.8909 L73.9704,16.3704 L74.4606,16.6517 L75.0407,16.9915 L75.3405,17.1614 L76.1403,17.6204 L76.2302,17.681 L78.0407,18.721 L80.2009,19.9612 L81.32,20.6106 L81.82,20.9017 L81.8601,20.931 L81.8601,20.9407 L82.1208,21.0813 L82.78,21.471 L84.2409,22.3108 L86.1804,23.431 L86.9606,23.8704 L87.4001,24.1204 L87.8903,24.4017 L89.3405,25.2415 L89.5105,25.3411 L90.3601,25.8313 L92.1608,26.8704 Z" id="Shape" fill="#FFFFFF"></path>
            <g id="Group" transform="translate(6.000000, 15.000000)">
                <path d="M78.3005,39.1731 C78.3005,17.7566 60.9382,0.3958 39.5222,0.3958 C18.1052,0.3958 0.7448,17.7566 0.7448,39.1731 C0.7448,60.5901 18.1052,77.9505 39.5222,77.9505 C60.9382,77.9505 78.3005,60.5901 78.3005,39.1731" id="Shape" fill="#CBC9D1"></path>
                <path d="M56.6276,68.345 C56.6276,70.094 48.9694,71.511 39.5222,71.511 C30.0749,71.511 22.4177,70.094 22.4177,68.345 C22.4177,66.595 30.0749,65.178 39.5222,65.178 C48.9694,65.178 56.6276,66.595 56.6276,68.345" id="Shape" fill="#999999"></path>
                <path d="M78.6042,39.1731 C78.6042,17.7566 61.2419,0.3958 39.8269,0.3958 C18.4099,0.3958 1.0495,17.7566 1.0495,39.1731 C1.0495,60.5901 18.4099,77.9505 39.8269,77.9505 C61.2419,77.9505 78.6042,60.5901 78.6042,39.1731" id="Shape" fill="#CBC9D1"></path>
                <path d="M56.9313,68.345 C56.9313,70.094 49.2741,71.511 39.8269,71.511 C30.3796,71.511 22.7204,70.094 22.7204,68.345 C22.7204,66.595 30.3796,65.178 39.8269,65.178 C49.2741,65.178 56.9313,66.595 56.9313,68.345" id="Shape" fill="#999999"></path>
                <polygon id="Shape" fill="#F2E21C" points="54.7771 47.6731 53.4177 40.7903 59.5358 40.1937 55.0329 27.1067 80.7839 22.346 75.2585 35.6907 63.7868 34.5853 67.1003 45.3782 57.7517 44.8685 59.111 50.3919 50.7819 50.3919 50.7819 48.3528"></polygon>
            </g>
            <g id="Group" transform="translate(55.000000, 36.000000)">
                <path d="M2.7302,21.7073 C2.2692,21.7073 1.8747,21.3626 1.823,20.8958 C1.7663,20.3929 2.1286,19.9407 2.6315,19.887 L10.6374,19.0042 L6.1569,7.014 C6.0612,6.762 6.0827,6.4808 6.2155,6.2464 C6.3474,6.012 6.5769,5.8479 6.8405,5.7981 L34.8063,0.4485 C35.3015,0.3548 35.7819,0.68 35.8757,1.1751 C35.9694,1.6702 35.6452,2.1497 35.1491,2.2435 L8.2458,7.389 L12.7595,19.4642 C12.8571,19.7269 12.8298,20.0228 12.6813,20.263 C12.5339,20.5022 12.2839,20.6604 12.0026,20.6917 L2.8308,21.7024 C2.7956,21.7063 2.7624,21.7073 2.7302,21.7073 Z" id="Shape" fill="#F7F5A4"></path>
                <polygon id="Shape" fill="#99441A" points="4.6042 23.8685 4.3776 19.8479 5.7487 20.0013 6.3571 20.762 6.2702 21.6097 8.7937 23.9593 10.0788 24.8265 11.2702 29.6048 6.6804 31.177 3.9606 30.4134 0.9255 26.5892 3.9606 25.1429"></polygon>
                <path d="M6.6804,31.6351 C6.6384,31.6351 6.5974,31.6282 6.5563,31.6175 L3.8366,30.8528 C3.7448,30.8255 3.6628,30.7708 3.6032,30.6966 L0.5671,26.8724 C0.4802,26.764 0.4499,26.6214 0.4802,26.4847 C0.5124,26.3489 0.6032,26.2366 0.7292,26.1761 L3.6237,24.7981 L4.1403,23.7728 L3.9226,19.8743 C3.9138,19.7405 3.9655,19.6097 4.0632,19.5159 C4.1628,19.4251 4.2946,19.3802 4.4284,19.3948 L5.7995,19.5472 C5.9196,19.5599 6.03,19.6204 6.1052,19.7142 L6.7155,20.4769 C6.7897,20.5696 6.8239,20.6897 6.8122,20.8099 L6.7487,21.429 L9.0788,23.6009 L10.3356,24.4466 C10.4284,24.5091 10.4968,24.6048 10.5231,24.7161 L11.7136,29.4944 C11.7702,29.7239 11.6423,29.9612 11.4177,30.0374 L6.8278,31.6097 C6.78,31.6272 6.7312,31.6351 6.6804,31.6351 Z M4.2263,30.014 L6.6667,30.6995 L10.7253,29.3079 L9.6784,25.1058 L8.5388,24.3382 C8.5192,24.3245 8.5007,24.3099 8.4831,24.2942 L5.9577,21.9437 C5.8522,21.845 5.8005,21.7044 5.8151,21.5618 L5.8835,20.9007 L5.5105,20.4339 L4.864,20.3616 L5.0603,23.8431 C5.0642,23.9222 5.0476,24.0032 5.0124,24.0745 L4.3679,25.3499 C4.3239,25.4407 4.2487,25.512 4.156,25.555 L1.6394,26.7542 L4.2263,30.014 Z" id="Shape" fill="#99441A"></path>
            </g>
            <g id="Group" transform="translate(32.000000, 36.000000)">
                <path d="M33.1149,29.8489 C33.1149,29.8489 33.112,29.8489 33.111,29.8489 L24.7819,29.8489 C24.531,29.8489 24.3259,29.6458 24.3259,29.3919 L24.3259,27.3528 C24.3259,27.1302 24.486,26.9407 24.7067,26.9026 L28.238,26.3011 L26.9704,19.8782 C26.9431,19.7503 26.9743,19.6204 27.0495,19.5159 C27.1276,19.4134 27.2448,19.347 27.3728,19.3353 L32.9167,18.7962 L28.6003,6.2542 C28.5563,6.1282 28.57,5.9905 28.6384,5.8763 C28.7048,5.761 28.8181,5.6819 28.9499,5.6575 L54.7009,0.8978 C54.8659,0.8665 55.0329,0.93 55.1384,1.0589 C55.2448,1.1888 55.2702,1.3675 55.2058,1.5218 L49.6823,14.8655 C49.6042,15.0501 49.4147,15.1634 49.2155,15.1448 L38.4235,14.1048 L41.5378,24.2444 C41.5817,24.388 41.5524,24.5423 41.4606,24.6595 C41.3688,24.7767 41.2263,24.8421 41.0749,24.8353 L32.3425,24.3587 L33.5437,29.2327 C33.5603,29.2835 33.571,29.3362 33.571,29.3919 C33.571,29.6458 33.3679,29.8489 33.1149,29.8489 Z M25.239,28.9349 L32.529,28.9349 L31.3083,23.9769 C31.2741,23.8372 31.3073,23.6888 31.4001,23.5774 C31.4929,23.4661 31.6306,23.4065 31.778,23.4124 L40.4714,23.887 L37.3493,13.719 C37.3044,13.5726 37.3366,13.4153 37.4323,13.2962 C37.529,13.178 37.6794,13.1165 37.8298,13.1292 L48.9665,14.2024 L54.0397,1.9476 L29.6374,6.4593 L33.9685,19.0442 C34.0153,19.177 33.9968,19.3235 33.9206,19.4407 C33.8454,19.5589 33.7204,19.636 33.5808,19.6497 L27.9636,20.1946 L29.2253,26.5853 C29.2497,26.7044 29.2233,26.8313 29.153,26.9319 C29.0827,27.0335 28.9753,27.1028 28.8542,27.1233 L25.239,27.7395 L25.239,28.9349 Z" id="Shape" fill="#15003E"></path>
                <path d="M4.7507,43.388 C4.7507,43.388 2.5358,45.1126 1.3513,45.9954 C-1.0853,47.8069 3.278,50.0735 6.3933,47.0696 C9.5095,44.0677 8.6032,45.0872 8.0935,43.0472 C7.5837,41.0071 4.7507,43.388 4.7507,43.388" id="Shape" fill="#F2E21C"></path>
            </g>
            <path d="M33.0134,85.6692 C33.5925,84.2601 37.0456,80.2796 38.57,79.6624 L34.2585,78.927 L30.4304,81.6468 L30.656,85.4427 L33.0134,85.6692 Z" id="Shape" fill="#F7F5A4"></path>
            <g id="Group" transform="translate(31.000000, 50.000000)">
                <path d="M3.988,34.9886 C2.6394,34.9886 1.5417,34.4065 1.2526,33.5403 C1.1491,33.2269 1.0222,32.4134 2.0778,31.6272 C3.2155,30.7815 5.3308,29.1351 5.4636,29.0315 C5.6491,28.8763 7.0192,27.764 8.1462,27.764 C8.5563,27.764 9.281,27.9173 9.5368,28.9368 C9.6472,29.3743 9.7731,29.6536 9.8757,29.8782 C10.3327,30.8812 10.1286,31.0755 8.1921,32.9349 L7.7106,33.3987 C6.6472,34.4241 5.3249,34.9886 3.988,34.9886 Z M8.1462,28.678 C7.4597,28.678 6.3708,29.4632 6.0456,29.7376 C6.0407,29.7405 6.0349,29.7444 6.0319,29.7483 C6.0085,29.7659 3.7995,31.4866 2.6247,32.3606 C2.3845,32.5384 2.0007,32.8919 2.1208,33.2532 C2.2546,33.6507 2.9519,34.0765 3.988,34.0765 C4.6237,34.0765 5.8728,33.9026 7.0769,32.7405 L7.5593,32.2776 C8.4558,31.4173 8.948,30.9417 9.1159,30.6741 C9.1833,30.5638 9.1833,30.5638 9.0437,30.2571 C8.9323,30.012 8.78,29.6761 8.6501,29.1575 C8.5388,28.7161 8.3317,28.678 8.1462,28.678 Z" id="Shape" fill="#15003E"></path>
                <path d="M3.822,34.9866 C3.7624,34.9866 3.7009,34.9739 3.6423,34.9495 C3.4108,34.8499 3.3015,34.5813 3.4021,34.3489 L3.8718,33.2513 C3.9704,33.0188 4.239,32.9124 4.4704,33.012 C4.7028,33.1106 4.8112,33.3792 4.7106,33.6106 L4.2419,34.7093 C4.1677,34.8821 3.9987,34.9866 3.822,34.9866 Z" id="Shape" fill="#15003E"></path>
                <path d="M2.1218,34.4368 C2.0144,34.4368 1.905,34.3987 1.819,34.3196 C1.6306,34.1517 1.614,33.8636 1.7819,33.6751 L2.6618,32.6946 C2.8308,32.5062 3.1198,32.4915 3.3083,32.6595 C3.4948,32.8274 3.5124,33.1165 3.3425,33.305 L2.4636,34.2854 C2.3718,34.387 2.2468,34.4368 2.1218,34.4368 Z" id="Shape" fill="#15003E"></path>
                <path d="M24.239,29.388 C24.239,29.388 26.4538,31.1126 27.6384,31.9954 C30.0749,33.8069 25.7126,36.0735 22.5954,33.0696 C19.4792,30.0677 20.3855,31.0872 20.8962,29.0472 C21.4069,27.0071 24.239,29.388 24.239,29.388" id="Shape" fill="#F2E21C"></path>
                <path d="M26.0026,34.9886 C24.6667,34.9886 23.3425,34.4251 22.279,33.3987 L21.7966,32.9349 C19.8601,31.0755 19.6589,30.8812 20.114,29.8782 C20.2165,29.6536 20.3435,29.3743 20.4519,28.9368 C20.7087,27.9173 21.4323,27.764 21.8435,27.764 C22.9694,27.764 24.3405,28.8763 24.528,29.0315 C24.6579,29.1351 26.7751,30.7815 27.9118,31.6272 C28.9675,32.4134 28.8386,33.2269 28.737,33.5403 C28.4489,34.4065 27.3503,34.9886 26.0026,34.9886 Z M21.8435,28.678 C21.6569,28.678 21.4499,28.7161 21.3396,29.1575 C21.2097,29.6761 21.0573,30.012 20.946,30.2571 C20.8054,30.5638 20.8054,30.5638 20.8728,30.6741 C21.0417,30.9417 21.5339,31.4173 22.4304,32.2776 L22.9118,32.7405 C24.1179,33.9026 25.3659,34.0765 26.0026,34.0765 C27.0368,34.0765 27.737,33.6507 27.8688,33.2542 C27.989,32.8919 27.6052,32.5384 27.3649,32.3606 C26.1901,31.4866 23.9802,29.7659 23.9587,29.7483 C23.9548,29.7444 23.9499,29.7405 23.945,29.7376 C23.5944,29.4437 22.531,28.678 21.8435,28.678 Z" id="Shape" fill="#15003E"></path>
                <path d="M26.1667,34.9866 C25.9899,34.9866 25.823,34.8821 25.7478,34.7093 L25.278,33.6106 C25.1794,33.3792 25.2868,33.1106 25.5183,33.012 C25.7507,32.9124 26.0192,33.0188 26.1188,33.2513 L26.5866,34.3489 C26.6872,34.5813 26.5788,34.8499 26.3474,34.9495 C26.2878,34.9739 26.2272,34.9866 26.1667,34.9866 Z" id="Shape" fill="#15003E"></path>
                <path d="M27.8669,34.4368 C27.7409,34.4368 27.6169,34.387 27.5261,34.2854 L26.6472,33.305 C26.4772,33.1165 26.4938,32.8274 26.6833,32.6595 C26.8698,32.4915 27.1589,32.5062 27.3269,32.6946 L28.2067,33.6751 C28.3757,33.8636 28.3591,34.1517 28.1716,34.3196 C28.0847,34.3987 27.9753,34.4368 27.8669,34.4368 Z" id="Shape" fill="#15003E"></path>
                <path d="M29.6452,21.8519 C28.8425,16.2425 26.1608,7.5755 26.071,0.3499 L14.9948,1.2005 L3.9187,0.3499 C3.8288,7.5755 1.1481,16.2425 0.3444,21.8519 C-0.4593,27.4612 3.739,30.4358 6.7761,30.4358 C9.8142,30.4358 12.5827,28.6497 14.9948,28.6497 C17.4069,28.6497 20.1745,30.4358 23.2126,30.4358 C26.2507,30.4358 30.448,27.4612 29.6452,21.8519" id="Shape" fill="#F2E21C"></path>
            </g>
            <path d="M36.5886,51.3704 C36.3855,53.5726 33.5075,68.7864 33.5632,72.3548 C33.6188,75.9241 36.2731,80.6155 39.155,80.4358 C42.0368,80.2562 39.155,80.4358 39.155,80.4358 L38.3933,83.0696 L27.9372,81.3772 L27.4274,74.4573 L30.7409,54.5921 L33.0065,50.3499 L36.5886,51.3704" id="Shape" fill="#F7F5A4"></path>
            <g id="Group" transform="translate(30.000000, 49.000000)">
                <path d="M24.2126,31.8929 C22.5339,31.8929 20.988,31.388 19.4909,30.9017 C18.2399,30.4915 17.0593,30.1067 15.9948,30.1067 C14.9313,30.1067 13.7478,30.4915 12.4987,30.9017 C11.0017,31.388 9.4558,31.8929 7.7761,31.8929 C5.9421,31.8929 3.9753,30.9349 2.6384,29.3929 C1.5847,28.178 0.4245,26.0452 0.8923,22.7864 C1.1735,20.8245 1.6843,18.4817 2.2253,16.0013 C3.2458,11.3216 4.403,6.0159 4.4616,1.345 C4.4626,1.219 4.5163,1.0989 4.6101,1.013 C4.7019,0.928 4.8249,0.8831 4.9528,0.8948 L15.9948,1.7425 L27.0368,0.8948 C27.1628,0.8831 27.2868,0.928 27.3806,1.013 C27.4724,1.0989 27.5271,1.219 27.528,1.345 C27.5856,6.0159 28.7438,11.3216 29.7644,16.0013 C30.3054,18.4817 30.8151,20.8245 31.0964,22.7864 C31.5642,26.0452 30.406,28.178 29.3503,29.3929 C28.0144,30.9349 26.0466,31.8929 24.2126,31.8929 Z M15.9948,29.1946 C17.2028,29.1946 18.4538,29.6009 19.7731,30.0315 C21.2019,30.4983 22.6804,30.9788 24.2126,30.9788 C25.7878,30.9788 27.4938,30.1419 28.6608,28.7942 C29.5905,27.722 30.6101,25.8333 30.194,22.9163 C29.9167,20.9866 29.4089,18.6604 28.8718,16.1956 C27.8767,11.6331 26.7536,6.4827 26.6247,1.8431 L16.03,2.6546 C16.0065,2.6575 15.9841,2.6575 15.9606,2.6546 L5.364,1.8431 C5.237,6.4827 4.114,11.6331 3.1179,16.1956 C2.5808,18.6604 2.0739,20.9866 1.7966,22.9163 C1.3786,25.8333 2.3991,27.722 3.3288,28.7942 C4.4978,30.1419 6.2009,30.9788 7.7761,30.9788 C9.3093,30.9788 10.7868,30.4983 12.2155,30.0325 C13.5368,29.6009 14.7868,29.1946 15.9948,29.1946 Z" id="Shape" fill="#15003E"></path>
                <path d="M4.7819,4.3362 C2.487,13.2552 4.3142,15.969 9.5837,19.0267 C11.1706,19.9485 13.489,18.4319 13.323,17.5823 C13.0739,16.3128 13.323,11.804 9.6687,6.7903" id="Shape" fill="#F2E21C"></path>
            </g>
            <path d="M36.3855,53.5726 C36.3855,53.5726 33.8835,59.6204 35.1608,62.2835 C37.1442,66.4231 41.9313,68.4729 41.9313,68.4729 L38.03,69.3528 L32.781,66.6663 L30.4304,57.5101 L32.697,52.4251 L36.3855,53.5726 Z" id="Shape" fill="#F7F5A4"></path>
            <g id="Group" transform="translate(33.000000, 29.000000)">
                <path d="M7.6999,39.7708 C7.237,39.7708 6.7751,39.6663 6.3542,39.4231 C0.9841,36.304 -1.0149,33.3704 1.3405,24.2239 C1.4021,23.9788 1.6501,23.8313 1.8952,23.8938 C2.1413,23.9563 2.2868,24.2063 2.2243,24.4505 C-0.1009,33.4827 1.9411,35.804 6.8122,38.6321 C7.5573,39.0647 8.571,38.8108 9.2448,38.3685 C9.7438,38.0413 9.8825,37.7366 9.8737,37.6702 C9.8269,37.4319 9.7985,37.1116 9.7624,36.7083 C9.5983,34.8929 9.2575,31.1165 6.2995,27.0589 C6.1511,26.8548 6.196,26.5687 6.3991,26.4202 C6.6032,26.2708 6.8894,26.3157 7.0378,26.5198 C10.1452,30.7835 10.5007,34.7298 10.6726,36.6263 C10.7058,37.0042 10.7331,37.302 10.7702,37.4954 C10.8708,38.0013 10.5388,38.5696 9.862,39.054 C9.279,39.469 8.489,39.7708 7.6999,39.7708 Z" id="Shape" fill="#15003E"></path>
                <path d="M10.0808,38.2376 L9.1755,37.0931" id="Shape" fill="#F2E21C"></path>
                <path d="M10.0808,38.6946 C9.946,38.6946 9.8132,38.636 9.7214,38.5218 L8.8181,37.3772 C8.6618,37.18 8.694,36.8919 8.8923,36.7366 C9.0905,36.5794 9.3776,36.6126 9.5349,36.8108 L10.4382,37.9544 C10.5944,38.1526 10.5612,38.4388 10.364,38.596 C10.28,38.6624 10.1813,38.6946 10.0808,38.6946 Z" id="Shape" fill="#15003E"></path>
                <path d="M8.5954,39.6302 C8.4528,39.6302 8.3132,39.5638 8.2224,39.4388 L7.571,38.5286 C7.4255,38.3235 7.4733,38.0374 7.6784,37.8899 C7.8825,37.7454 8.1687,37.7913 8.3151,37.9964 L8.9655,38.9065 C9.114,39.1116 9.0651,39.3978 8.8601,39.5452 C8.781,39.6019 8.6872,39.6302 8.5954,39.6302 Z" id="Shape" fill="#15003E"></path>
                <path d="M24.1911,24.3362 C26.486,33.2552 24.6599,35.969 19.3903,39.0267 C17.8034,39.9485 15.4831,38.4319 15.6521,37.5823 C15.8991,36.3128 15.6521,31.804 19.3054,26.7903" id="Shape" fill="#F2E21C"></path>
                <path d="M18.2741,39.7708 C17.4851,39.7708 16.695,39.469 16.111,39.054 C15.4343,38.5696 15.1022,38.0013 15.2028,37.4944 C15.2399,37.302 15.2663,37.0042 15.3015,36.6263 C15.4733,34.7298 15.8288,30.7835 18.9362,26.5198 C19.0847,26.3157 19.3698,26.2708 19.5749,26.4202 C19.778,26.5687 19.8239,26.8548 19.6745,27.0589 C16.7165,31.1165 16.3747,34.8929 16.2116,36.7063 C16.1745,37.1116 16.1462,37.4319 16.1003,37.6702 C16.0915,37.7366 16.2302,38.0413 16.7292,38.3685 C17.4021,38.8108 18.4167,39.0647 19.1618,38.6321 C24.0329,35.804 26.073,33.4827 23.7487,24.4505 C23.6862,24.2063 23.8327,23.9563 24.0778,23.8938 C24.323,23.8313 24.571,23.9788 24.6335,24.2239 C26.988,33.3704 24.989,36.304 19.6198,39.4231 C19.1989,39.6663 18.737,39.7708 18.2741,39.7708 Z" id="Shape" fill="#15003E"></path>
                <path d="M15.8933,38.2376 L16.7976,37.0931" id="Shape" fill="#F2E21C"></path>
                <path d="M15.8933,38.6946 C15.7927,38.6946 15.694,38.6624 15.6101,38.596 C15.4118,38.4388 15.3786,38.1526 15.5339,37.9544 L16.4401,36.8108 C16.5964,36.6126 16.8835,36.5794 17.0817,36.7366 C17.28,36.8919 17.3132,37.18 17.156,37.3772 L16.2507,38.5218 C16.1608,38.6351 16.0271,38.6946 15.8933,38.6946 Z" id="Shape" fill="#15003E"></path>
                <path d="M17.3786,39.6302 C17.2858,39.6302 17.194,39.6019 17.114,39.5452 C16.9079,39.3978 16.861,39.1116 17.0085,38.9065 L17.6589,37.9964 C17.8044,37.7913 18.0905,37.7454 18.2966,37.8899 C18.5017,38.0374 18.5485,38.3235 18.4011,38.5286 L17.7507,39.4388 C17.6608,39.5638 17.5212,39.6302 17.3786,39.6302 Z" id="Shape" fill="#15003E"></path>
                <path d="M6.9538,23.7825 C5.03,23.7825 2.2214,22.1731 0.9245,20.9241 C-1.4886,18.6038 1.448,5.2518 3.3112,3.4607 C5.1735,1.6683 10.2028,0.8362 12.986,0.8362 C15.7702,0.8362 20.8005,1.6683 22.6628,3.4607 C24.5271,5.2518 27.4626,18.6038 25.0495,20.9241 C23.7956,22.1312 20.403,23.7171 19.2692,23.7171 L6.9538,23.7825 Z" id="Shape" fill="#F2E21C"></path>
            </g>
            <g id="Group" transform="translate(28.000000, 28.000000)">
                <path d="M5.5778,4.9632 L8.1413,6.4505 C8.1413,6.4505 5.6472,17.3968 7.0759,19.6478 C8.5056,21.9007 13.7448,25.3362 13.7448,25.3362 L10.03,26.1731 L0.5319,23.3704 L1.8923,17.0501 L5.0134,6.9417 L5.5778,4.9632 Z" id="Shape" fill="#F7F5A4"></path>
                <path d="M8.7663,2.5213 L10.6452,4.7928 C10.6452,4.7928 15.8112,1.8899 23.6599,2.5975 L23.6599,1.5208 L21.0563,0.6766 L14.9372,0.6766 L8.7663,2.5213 Z" id="Shape" fill="#F7F5A4"></path>
                <g transform="translate(5.000000, 6.000000)" fill="#EFF4EE" id="Shape">
                    <polygon points="26.4782 6.5521 20.8503 6.5521 20.0488 9.5824 21.7995 8.4818 26.6383 8.4818"></polygon>
                    <path d="M22.6354,3.5208 C22.6354,3.2613 17.9154,1.3835 18.0092,1.194 C16.8091,0.7107 15.2406,0.3441 13.2106,0.3441 C7.1637,0.3441 3.4635,3.4427 3.4635,3.4427 L3.9166,6.3646 L0.2721,6.5521 L0.0133,8.4818 L4.2633,8.4818 L5.9567,10.3373 L20.2708,9.7813 L22.6354,3.5208 Z"></path>
                </g>
            </g>
            <g id="Group" transform="translate(32.000000, 27.000000)">
                <path d="M7.9538,26.2395 C5.8376,26.2395 2.9089,24.5052 1.6071,23.2552 C0.9099,22.5823 0.5554,21.1839 0.5554,19.0979 C0.5554,14.3138 2.4519,6.6136 3.9929,5.1302 C5.9665,3.2332 11.0251,2.3787 13.986,2.3787 C16.9489,2.3787 22.0065,3.2332 23.9812,5.1302 C25.5222,6.6136 27.4177,14.3138 27.4177,19.0979 C27.4177,21.1839 27.0632,22.5823 26.3669,23.2552 C25.0622,24.5101 21.5856,26.1731 20.2692,26.1731 L7.9558,26.2395 C7.9548,26.2395 7.9538,26.2395 7.9538,26.2395 Z M13.986,3.2933 C11.1511,3.2933 6.319,4.1604 4.6257,5.7889 C3.3806,6.9881 1.4704,14.3353 1.4704,19.0979 C1.4704,21.4954 1.9538,22.3187 2.2399,22.596 C3.5827,23.886 6.2585,25.3245 7.9519,25.3265 L20.2673,25.2591 C21.2683,25.2591 24.5368,23.7464 25.7341,22.596 C26.0212,22.3187 26.5036,21.4954 26.5036,19.0979 C26.5036,14.3353 24.5925,6.9881 23.3474,5.7889 C21.6521,4.1604 16.823,3.2933 13.986,3.2933 Z" id="Shape" fill="#15003E"></path>
                <path d="M24.6374,7.9393 C30.7019,8.0306 37.9011,5.2825 42.0036,0.7435 C32.4851,-0.2766 26.0681,2.3147 21.819,5.2903 L22.1774,7.3221 L23.8542,7.2181 L24.6374,7.9393 Z" id="Shape" fill="#F2E21C"></path>
            </g>
            <g id="Group" transform="translate(60.000000, 25.000000)" fill="#15003E">
                <polygon id="Shape" points="1.0563 2.8279 9.613 8.4378 16.5817 3.1678 15.3347 1.0145"></polygon>
                <path d="M9.613,8.8943 C9.5261,8.8943 9.4382,8.8689 9.362,8.8201 L0.8063,3.2103 C0.6472,3.1048 0.569,2.9119 0.612,2.7254 C0.654,2.5389 0.8093,2.3992 0.9997,2.3748 L15.278,0.5618 C15.4606,0.5389 15.6394,0.6268 15.7292,0.7859 L16.9763,2.9388 C17.0925,3.1385 17.0407,3.3929 16.8562,3.5325 L9.8884,8.8016 C9.8073,8.8626 9.7097,8.8943 9.613,8.8943 Z M2.3444,3.1253 L9.5944,7.8792 L15.9851,3.0472 L15.0925,1.5062 L2.3444,3.1253 Z" id="Shape"></path>
            </g>
            <g id="Group" transform="translate(20.000000, 21.000000)">
                <path d="M36.9343,14.3968 C36.8327,14.3968 36.7312,14.3968 36.6306,14.3968 C36.5183,14.3948 36.4108,14.3514 36.3278,14.2747 L35.6901,13.6863 L34.2058,13.7796 C33.9743,13.7937 33.7673,13.6302 33.7263,13.4007 L33.3688,11.3689 C33.3386,11.1946 33.4108,11.0169 33.5583,10.9158 C38.1599,7.6941 43.655,6.0604 49.8894,6.0604 C51.236,6.0604 52.6364,6.1375 54.0524,6.2889 C54.2233,6.3069 54.3688,6.4197 54.4313,6.5799 C54.4919,6.7405 54.4567,6.9222 54.3435,7.0496 C50.3708,11.4446 43.3757,14.3968 36.9343,14.3968 Z M36.8181,13.4837 C36.8571,13.4847 36.8952,13.4847 36.9343,13.4847 C42.7976,13.4847 49.1296,10.9505 53.0222,7.1087 C51.9558,7.0193 50.9079,6.9734 49.8894,6.9734 C43.9538,6.9734 38.7165,8.4964 34.319,11.4998 L34.5554,12.8411 L35.8269,12.7625 C35.9538,12.7532 36.0739,12.7986 36.1657,12.8826 L36.8181,13.4837 Z" id="Shape" fill="#15003E"></path>
                <path d="M18.155,11.2903 C15.1325,7.074 9.9401,2.4993 0.6218,0.303 C3.1433,6.3255 9.6696,11.594 15.7702,13.1995" id="Shape" fill="#F2E21C"></path>
            </g>
            <g id="Group" transform="translate(17.000000, 18.000000)">
                <path d="M21.155,16.1995 C17.112,14.2395 12.07,11.804 8.0476,8.2342 L5.1569,11.2942 L13.9392,18.2317 L19.5886,18.2317 L21.155,16.1995 Z" id="Shape" fill="#F7F5A4"></path>
                <polygon id="Shape" fill="#15003E" points="15.8073 7.6795 5.8747 10.1321 1.0495 2.8489 2.9401 1.2308"></polygon>
                <path d="M5.8747,10.5882 C5.7253,10.5882 5.5808,10.5135 5.4948,10.3841 L0.6687,3.1009 C0.5417,2.9085 0.5778,2.6512 0.7517,2.5018 L2.6423,0.8841 C2.7829,0.7645 2.9802,0.7405 3.1452,0.8226 L16.0114,7.2708 C16.1823,7.3562 16.2829,7.5394 16.2614,7.7303 C16.2409,7.9197 16.1022,8.077 15.9167,8.1224 L5.9851,10.5755 C5.948,10.5838 5.9108,10.5882 5.8747,10.5882 Z M1.653,2.9324 L6.0778,9.6106 L14.4948,7.532 L3.0065,1.7752 L1.653,2.9324 Z" id="Shape" fill="#15003E"></path>
            </g>
            <rect id="Rectangle-path" fill="#EFF4EE" x="53.5417" y="38.5729" width="1.9375" height="2.4792"></rect>
            <path d="M43.0148,47.7411 C43.8281,48.9703 45.6887,48.9473 46.3194,47.5421 C46.5807,46.9598 45.7193,46.4506 45.4559,47.0374 C45.157,47.7035 44.3212,47.9059 43.8783,47.2364 C43.5247,46.7021 42.6583,47.2023 43.0148,47.7411 Z" id="Shape" fill="#15003E"></path>
            <path d="M47.909,47.2364 C47.4682,47.9026 46.6313,47.7057 46.3314,47.0374 C46.0683,46.4513 45.2063,46.9592 45.4679,47.5421 C46.0982,48.9465 47.9585,48.9712 48.7725,47.7411 C49.1286,47.2029 48.263,46.7015 47.909,47.2364 Z" id="Shape" fill="#15003E"></path>
            <ellipse id="Oval" stroke="#15003E" stroke-width="0.75" fill="#0FCE7C" cx="40.4479" cy="39.8021" rx="2.1458" ry="2.2708"></ellipse>
            <path d="M35.7722,34.657 C35.7321,34.657 35.6931,34.6517 35.655,34.6409 C29.1794,32.9378 22.6804,27.4017 20.2009,21.4793 C20.1355,21.3211 20.1628,21.139 20.2731,21.0076 C20.3855,20.8768 20.5612,20.8191 20.7272,20.8587 C28.5485,22.702 34.5378,26.4588 38.5261,32.0237 C38.6735,32.2293 38.6267,32.514 38.4206,32.6609 C38.2155,32.8089 37.9304,32.761 37.7839,32.5569 C34.0827,27.3924 28.5837,23.8353 21.4284,21.9729 C24.0446,27.3284 29.9753,32.2024 35.8864,33.7586 C36.1315,33.8226 36.278,34.0721 36.2136,34.3157 C36.1589,34.5208 35.9743,34.657 35.7722,34.657 Z" id="Shape" fill="#15003E"></path>
            <path d="M57.778,47.2103 C58.031,45.5687 57.406,44.1097 56.3815,43.9524 C55.3581,43.7952 54.3239,44.9993 54.072,46.6419 C53.819,48.2854 54.446,49.7435 55.4685,49.9007 C56.4919,50.0569 57.5271,48.8548 57.778,47.2103" id="Shape" fill="#FF0000"></path>
            <path d="M55.6491,50.3714 C55.5661,50.3714 55.4821,50.3645 55.3991,50.3528 C54.1062,50.1536 53.3239,48.4935 53.6198,46.5726 C53.8913,44.8099 55.0007,43.4827 56.2009,43.4827 C56.2839,43.4827 56.3698,43.4876 56.4519,43.5013 C57.7438,43.6985 58.5251,45.3587 58.2302,47.2796 C57.9606,49.0433 56.8503,50.3714 55.6491,50.3714 Z M56.2009,44.3958 C55.5651,44.3958 54.7429,45.2815 54.5222,46.7112 C54.3171,48.056 54.7907,49.3353 55.5378,49.4495 C55.5749,49.4554 55.612,49.4573 55.6491,49.4573 C56.2849,49.4573 57.1071,48.5726 57.3269,47.1409 C57.5339,45.7991 57.0593,44.5188 56.3132,44.4056 C56.2761,44.3978 56.238,44.3958 56.2009,44.3958 Z" id="Shape" fill="#BF1010"></path>
            <path d="M34.194,47.2103 C33.9421,45.5687 34.5681,44.1097 35.5905,43.9524 C36.6159,43.7952 37.6511,44.9993 37.903,46.6419 C38.155,48.2854 37.529,49.7435 36.5056,49.9007 C35.4821,50.0569 34.447,48.8548 34.194,47.2103" id="Shape" fill="#FF0000"></path>
            <path d="M36.3249,50.3714 C35.1237,50.3714 34.0134,49.0433 33.7429,47.2796 C33.4489,45.3587 34.2292,43.6985 35.5222,43.5013 C35.6042,43.4876 35.6901,43.4827 35.7722,43.4827 C36.9733,43.4827 38.0827,44.8099 38.3542,46.5726 C38.6481,48.4935 37.8659,50.1536 36.5749,50.3528 C36.4919,50.3645 36.4079,50.3714 36.3249,50.3714 Z M35.7722,44.3958 C35.7351,44.3958 35.697,44.3978 35.6599,44.4056 C34.9147,44.5188 34.4392,45.7991 34.6462,47.1409 C34.8669,48.5726 35.6882,49.4573 36.3249,49.4573 C36.361,49.4573 36.3991,49.4554 36.4362,49.4495 C37.1813,49.3353 37.6569,48.056 37.4509,46.7112 C37.2312,45.2815 36.4089,44.3958 35.7722,44.3958 Z" id="Shape" fill="#BF1010"></path>
            <path d="M45.8786,46.1198 C45.7722,46.1198 45.6667,46.0827 45.5808,46.0075 L45.0837,45.5788 C44.9392,45.4538 44.8894,45.2526 44.9548,45.0729 C45.0222,44.8952 45.1931,44.7761 45.3835,44.7761 L46.3757,44.7761 C46.5671,44.7761 46.737,44.8952 46.8034,45.0729 C46.8698,45.2526 46.8181,45.4538 46.6745,45.5788 L46.1784,46.0075 C46.0915,46.0827 45.9851,46.1198 45.8786,46.1198 Z" id="Shape" fill="#15003E"></path>
            <path d="M36.819,41.265 L34.2585,41.265 C34.0046,41.265 33.8015,41.0609 33.8015,40.808 C33.8015,40.557 34.0046,40.3509 34.2585,40.3509 L36.2556,40.3509 L35.6882,37.6634 C35.655,37.5091 35.7048,37.347 35.822,37.2372 C38.113,35.0775 43.0925,33.8875 46.2106,33.8875 C46.4646,33.8875 46.6677,34.0926 46.6677,34.3441 C46.6677,34.596 46.4646,34.8011 46.2106,34.8011 C43.4108,34.8011 38.7312,35.8382 36.6364,37.7298 L37.2673,40.7142 C37.2946,40.848 37.2614,40.9886 37.1735,41.0951 C37.0866,41.2025 36.9577,41.265 36.819,41.265 Z" id="Shape" fill="#15003E"></path>
            <path d="M46.0527,44.307 L38.6523,44.307 L37.0947,42.7503 L33.5986,42.7503 C33.3467,42.7503 33.1416,42.5453 33.1416,42.2943 C33.1416,42.0404 33.3467,41.8373 33.5986,41.8373 L37.4736,41.8373 L39.0313,43.3949 L46.0527,43.3949 C46.3047,43.3949 46.5088,43.598 46.5088,43.8509 C46.5088,44.1029 46.3047,44.307 46.0527,44.307 Z" id="Shape" fill="#15003E"></path>
            <path d="M55.2403,41.265 L57.8008,41.265 C58.0547,41.265 58.2578,41.0609 58.2578,40.808 C58.2578,40.557 58.0547,40.3509 57.8008,40.3509 L55.8037,40.3509 L56.3711,37.6634 C56.4043,37.5091 56.3545,37.347 56.2373,37.2372 C53.9463,35.0775 48.9668,33.8875 45.8487,33.8875 C45.5947,33.8875 45.3916,34.0926 45.3916,34.3441 C45.3916,34.596 45.5947,34.8011 45.8487,34.8011 C48.6485,34.8011 53.3281,35.8382 55.4229,37.7298 L54.792,40.7142 C54.7647,40.848 54.7979,40.9886 54.8858,41.0951 C54.9727,41.2025 55.1016,41.265 55.2403,41.265 Z" id="Shape" fill="#15003E"></path>
            <path d="M46.0482,44.307 L53.4486,44.307 L55.0062,42.7503 L58.5023,42.7503 C58.7542,42.7503 58.9593,42.5453 58.9593,42.2943 C58.9593,42.0404 58.7542,41.8373 58.5023,41.8373 L54.6273,41.8373 L53.0696,43.3949 L46.0482,43.3949 C45.7962,43.3949 45.5921,43.598 45.5921,43.8509 C45.5921,44.1029 45.7962,44.307 46.0482,44.307 Z" id="Shape" fill="#15003E"></path>
            <path d="M41.5573,39.3315 C41.5573,39.754 41.2153,40.096 40.7928,40.096 C40.3715,40.096 40.027,39.754 40.027,39.3315 C40.027,38.9077 40.3714,38.5657 40.7928,38.5657 C41.2153,38.5658 41.5573,38.9078 41.5573,39.3315" id="Shape" fill="#FFFFFF"></path>
            <ellipse id="Oval" stroke="#15003E" stroke-width="0.75" fill="#0FCE7C" cx="51.1667" cy="39.8021" rx="2.1458" ry="2.2708"></ellipse>
            <path d="M52.276,39.3315 C52.276,39.754 51.934,40.096 51.5115,40.096 C51.0902,40.096 50.7457,39.754 50.7457,39.3315 C50.7457,38.9077 51.0901,38.5657 51.5115,38.5657 C51.934,38.5658 52.276,38.9078 52.276,39.3315" id="Shape" fill="#FFFFFF"></path>
            <path d="M34.3142,63.2464 C34.198,63.2464 34.0827,63.2034 33.9938,63.1165 C33.8132,62.9397 33.8103,62.6497 33.9899,62.47 L36.7907,59.6253 C36.8913,59.5228 37.0339,59.4729 37.1765,59.4944 C37.32,59.514 37.445,59.5989 37.5144,59.7239 L38.3132,61.1604 L41.4899,59.0286 C41.6989,58.887 41.9831,58.9446 42.1237,59.1536 C42.2634,59.3645 42.2087,59.6468 41.9987,59.7874 L38.4099,62.1956 C38.3034,62.2659 38.1716,62.2903 38.0485,62.2601 C37.9245,62.2298 37.8181,62.1497 37.7546,62.0374 L37.0134,60.7024 L34.6394,63.1116 C34.5505,63.2024 34.4323,63.2464 34.3142,63.2464 Z" id="Shape" fill="#15003E"></path>
            <path d="M37.281,62.0423 C37.281,61.7942 37.0788,61.595 36.8327,61.595 C36.5847,61.595 36.3855,61.7942 36.3855,62.0423 C36.3855,62.2903 36.5847,62.4905 36.8327,62.4905 C37.0788,62.4905 37.281,62.2903 37.281,62.0423" id="Shape" fill="#15003E"></path>
            <path d="M57.6745,63.2464 C57.5583,63.2464 57.4392,63.2024 57.3503,63.1116 L54.9772,60.7024 L54.2351,62.0374 C54.1726,62.1497 54.0671,62.2298 53.9421,62.2601 C53.8181,62.2903 53.6872,62.2659 53.5808,62.1956 L49.9909,59.7874 C49.7819,59.6468 49.7253,59.3645 49.8649,59.1536 C50.0065,58.9446 50.2907,58.887 50.4997,59.0286 L53.6784,61.1604 L54.4743,59.7239 C54.5446,59.5989 54.6696,59.514 54.8132,59.4944 C54.9558,59.4729 55.0983,59.5228 55.1999,59.6253 L57.9997,62.47 C58.1774,62.6497 58.1755,62.9397 57.9958,63.1165 C57.9069,63.2034 57.7907,63.2464 57.6745,63.2464 Z" id="Shape" fill="#15003E"></path>
            <path d="M54.7097,62.0423 C54.7097,61.7942 54.9099,61.595 55.1569,61.595 C55.405,61.595 55.6062,61.7942 55.6062,62.0423 C55.6062,62.2903 55.405,62.4905 55.1569,62.4905 C54.9099,62.4905 54.7097,62.2903 54.7097,62.0423" id="Shape" fill="#15003E"></path>
            <path d="M62.9919,44.2366 C62.8864,44.2366 62.781,44.2005 62.696,44.1282 L60.736,42.4524 C60.5446,42.2894 60.5212,42.0013 60.6853,41.8089 C60.8483,41.6175 61.1374,41.595 61.3288,41.7581 L63.2888,43.4319 C63.4802,43.5979 63.5026,43.8851 63.3396,44.0774 C63.2487,44.1819 63.1208,44.2366 62.9919,44.2366 Z" id="Shape" fill="#15003E"></path>
            <path d="M69.7858,50.0403 C69.6823,50.0403 69.5769,50.0062 69.4909,49.9339 L64.5095,45.719 C64.3181,45.5569 64.2917,45.2669 64.4567,45.0735 C64.6188,44.8821 64.906,44.8587 65.1003,45.0208 L70.0817,49.2356 C70.2741,49.3997 70.2976,49.6868 70.1355,49.8802 C70.0437,49.9866 69.9147,50.0403 69.7858,50.0403 Z" id="Shape" fill="#15003E"></path>
            <path d="M64.8337,45.7952 C64.7292,45.7952 64.6237,45.7601 64.5368,45.6868 C64.3444,45.5228 64.323,45.2337 64.486,45.0413 C64.6169,44.8899 64.6804,44.6976 64.6657,44.4964 C64.6491,44.2972 64.5563,44.1155 64.404,43.9856 C64.2517,43.8558 64.0603,43.7923 63.8571,43.8079 C63.6579,43.8245 63.4772,43.9163 63.3474,44.0687 C63.1823,44.2591 62.8942,44.2825 62.7019,44.1185 C62.5105,43.9544 62.488,43.6673 62.6511,43.4749 C62.9411,43.136 63.3435,42.931 63.7868,42.8958 C64.2312,42.8626 64.6589,43.0013 64.9987,43.2913 C65.3356,43.5794 65.5407,43.9827 65.5759,44.4261 C65.6101,44.8685 65.4714,45.2981 65.1823,45.636 C65.0915,45.7425 64.9636,45.7952 64.8337,45.7952 Z" id="Shape" fill="#15003E"></path>
            <path d="M64.3239,44.6019 C64.3239,44.3548 64.1247,44.1536 63.8757,44.1536 C63.6286,44.1536 63.4284,44.3548 63.4284,44.6019 C63.4284,44.8499 63.6286,45.0501 63.8757,45.0501 C64.1247,45.0501 64.3239,44.8499 64.3239,44.6019" id="Shape" fill="#15003E"></path>
            <path d="M45.986,29.8362 L45.986,27.5169" id="Shape" fill="#F2E21C"></path>
            <path d="M45.986,30.2933 C45.7341,30.2933 45.529,30.0882 45.529,29.8362 L45.529,27.5169 C45.529,27.2649 45.7341,27.0604 45.986,27.0604 C46.239,27.0604 46.444,27.2649 46.444,27.5169 L46.444,29.8362 C46.444,30.0882 46.239,30.2933 45.986,30.2933 Z" id="Shape" fill="#15003E"></path>
            <path d="M45.986,27.7518 C44.9948,27.7518 44.1862,26.9437 44.1862,25.951 C44.1862,24.9583 44.9948,24.1512 45.986,24.1512 C46.9792,24.1512 47.7868,24.9583 47.7868,25.951 C47.7868,26.9437 46.9792,27.7518 45.986,27.7518 Z M45.986,25.0643 C45.4978,25.0643 45.0983,25.4622 45.0983,25.951 C45.0983,26.4402 45.4978,26.8377 45.986,26.8377 C46.4753,26.8377 46.8737,26.4402 46.8737,25.951 C46.8737,25.4622 46.4753,25.0643 45.986,25.0643 Z" id="Shape" fill="#15003E"></path>
            <path d="M48.8845,79.6829 C48.7966,79.6829 48.7077,79.6565 48.6296,79.6028 C48.4196,79.4612 48.3669,79.1761 48.5095,78.9671 C50.3278,76.2991 49.6296,71.2806 49.6237,71.2308 C49.6022,71.1019 49.6394,70.972 49.7243,70.8704 C49.8454,70.7288 52.7507,67.3782 60.0368,67.8587 C60.2878,67.8753 60.4782,68.0921 60.4626,68.345 C60.445,68.597 60.2272,68.7894 59.9763,68.7708 C53.9792,68.3753 51.1687,70.7229 50.5544,71.3235 C50.6794,72.3792 51.071,76.8313 49.2634,79.4837 C49.1745,79.6116 49.0319,79.6829 48.8845,79.6829 Z" id="Shape" fill="#15003E"></path>
            <path d="M56.4362,68.7259 C56.2185,68.7259 56.0271,68.5716 55.987,68.3509 L55.4772,65.5442 C55.4313,65.2952 55.5944,65.0579 55.8444,65.013 C56.0925,64.969 56.3288,65.1321 56.3747,65.3812 L56.8864,68.1868 C56.9304,68.4339 56.7663,68.6741 56.5183,68.7181 C56.4909,68.7239 56.4626,68.7259 56.4362,68.7259 Z" id="Shape" fill="#15003E"></path>
            <path d="M57.0788,77.2835 C56.4958,77.2835 56.0222,76.8069 56.0222,76.22 L56.0222,75.1614 C56.0222,74.5823 56.4743,74.1165 57.0524,74.0999 C57.5153,74.0862 57.9099,74.0569 58.2282,74.012 C58.5769,73.9612 58.9313,74.0901 59.1677,74.3528 C59.3679,74.5765 59.4655,74.8763 59.4333,75.1761 C59.3815,75.6478 59.3161,76.0325 59.237,76.3187 C59.1306,76.6956 58.823,76.9827 58.4372,77.0647 C58.1062,77.1351 57.6237,77.2288 57.198,77.2786 C57.1579,77.2815 57.1188,77.2835 57.0788,77.2835 Z M58.3806,74.9134 C58.3728,74.9134 58.3649,74.9153 58.3581,74.9163 C58.0056,74.9661 57.5769,74.9993 57.0788,75.013 C56.9987,75.0149 56.9353,75.0804 56.9353,75.1614 L56.9353,76.22 C56.9353,76.3079 57.0095,76.3782 57.0964,76.3694 C57.486,76.3255 57.9353,76.2376 58.2468,76.1712 C58.3015,76.1604 58.3425,76.1204 58.3581,76.0716 C58.4226,75.8372 58.4792,75.4954 58.5251,75.0804 C58.53,75.0247 58.5075,74.9856 58.488,74.9632 C58.4714,74.9446 58.4343,74.9134 58.3806,74.9134 Z" id="Shape" fill="#15003E"></path>
            <path d="M43.1042,79.6829 C42.9577,79.6829 42.8161,79.6116 42.7263,79.4837 C40.9196,76.8313 41.3103,72.386 41.4343,71.3245 C40.8161,70.7288 37.9812,68.3782 32.0144,68.7708 C31.7614,68.7874 31.5446,68.597 31.5271,68.345 C31.5114,68.0921 31.7019,67.8753 31.9538,67.8587 C39.238,67.3782 42.1433,70.7278 42.2634,70.8704 C42.3474,70.97 42.3864,71.1019 42.3679,71.2308 C42.3601,71.2806 41.6647,76.303 43.4821,78.9671 C43.6228,79.1761 43.57,79.4612 43.3601,79.6028 C43.2819,79.6565 43.1921,79.6829 43.1042,79.6829 Z" id="Shape" fill="#15003E"></path>
            <path d="M35.5534,68.7259 C35.5271,68.7259 35.4987,68.7239 35.4704,68.7181 C35.2233,68.6741 35.0593,68.4339 35.1042,68.1868 L35.6149,65.3812 C35.6599,65.1321 35.8991,64.9671 36.1452,65.013 C36.3942,65.0579 36.5583,65.2952 36.5134,65.5442 L36.0026,68.3509 C35.9636,68.5716 35.7702,68.7259 35.5534,68.7259 Z" id="Shape" fill="#15003E"></path>
            <path d="M34.9108,77.2835 L34.9099,77.2835 C34.8718,77.2835 34.8317,77.2815 34.7917,77.2786 C34.3649,77.2288 33.8835,77.1351 33.5515,77.0647 C33.1667,76.9827 32.8601,76.6956 32.7526,76.3187 C32.6726,76.0315 32.6062,75.6478 32.5554,75.1761 C32.5251,74.8763 32.6208,74.5765 32.822,74.3528 C33.0573,74.0901 33.4138,73.9612 33.7624,74.012 C34.0788,74.0569 34.4743,74.0862 34.9353,74.0999 C35.5153,74.1165 35.9685,74.5823 35.9685,75.1614 L35.9685,76.22 C35.9685,76.5042 35.8581,76.7718 35.6579,76.9729 C35.4558,77.1741 35.1921,77.2835 34.9108,77.2835 Z M33.6101,74.9134 C33.5554,74.9134 33.5192,74.9446 33.5017,74.9632 C33.4812,74.9856 33.4587,75.0247 33.4636,75.0804 C33.5085,75.4935 33.5671,75.8362 33.6325,76.0726 C33.6472,76.1204 33.6892,76.1604 33.7429,76.1712 C34.0534,76.2376 34.5046,76.3255 34.8933,76.3694 C34.9001,76.3694 34.905,76.3694 34.9108,76.3694 C34.9606,76.3694 34.9938,76.3421 35.0105,76.3265 C35.031,76.3079 35.0534,76.2718 35.0534,76.22 L35.0534,75.1614 C35.0534,75.0804 34.9909,75.0149 34.9108,75.013 C34.4138,74.9993 33.9841,74.9661 33.6325,74.9163 C33.6247,74.9153 33.6159,74.9134 33.6101,74.9134 Z" id="Shape" fill="#15003E"></path>
            <path d="M45.9616,59.3831 L44.4665,59.3831 C44.2653,59.3831 44.0876,59.2513 44.029,59.0579 L43.6169,57.6839 L40.6296,57.6839 C40.3757,57.6839 40.1726,57.4788 40.1726,57.2269 C40.1726,56.9749 40.3757,56.7708 40.6296,56.7708 L43.9567,56.7708 C44.1589,56.7708 44.3376,56.9017 44.3942,57.095 L44.8073,58.47 L45.9616,58.47 C46.2146,58.47 46.4187,58.6741 46.4187,58.9261 C46.4187,59.18 46.2146,59.3831 45.9616,59.3831 Z" id="Shape" fill="#15003E"></path>
            <path d="M47.4548,59.3831 L45.9616,59.3831 C45.7097,59.3831 45.5046,59.18 45.5046,58.9261 C45.5046,58.6741 45.7097,58.47 45.9616,58.47 L47.1169,58.47 L47.529,57.095 C47.5856,56.9017 47.7644,56.7708 47.9655,56.7708 L51.2937,56.7708 C51.5476,56.7708 51.7507,56.9749 51.7507,57.2269 C51.7507,57.4788 51.5476,57.6839 51.2937,57.6839 L48.3054,57.6839 L47.8933,59.0579 C47.8356,59.2513 47.6579,59.3831 47.4548,59.3831 Z" id="Shape" fill="#15003E"></path>
            <path d="M63.7517,60.3245 C63.6306,60.3245 63.5105,60.2767 63.4206,60.1829 L61.4724,58.1204 C61.2995,57.9358 61.3093,57.6468 61.4909,57.4739 C61.6745,57.302 61.9646,57.3099 62.1374,57.4925 L64.0837,59.555 C64.2575,59.7376 64.2497,60.0276 64.0651,60.1995 C63.9772,60.2835 63.8649,60.3245 63.7517,60.3245 Z" id="Shape" fill="#15003E"></path>
            <path d="M61.8054,58.262 C61.694,58.262 61.5847,58.2239 61.4958,58.1419 C61.3093,57.972 61.2976,57.6829 61.4685,57.4974 C61.6042,57.3499 61.6735,57.1575 61.6657,56.9573 C61.656,56.7581 61.569,56.5726 61.4216,56.4378 C61.1188,56.1585 60.6423,56.179 60.362,56.4837 C60.194,56.6692 59.904,56.6829 59.7175,56.512 C59.5329,56.3401 59.5192,56.052 59.6901,55.8655 C60.3093,55.1897 61.3649,55.1448 62.0397,55.764 C62.3679,56.0647 62.5583,56.4749 62.5778,56.9183 C62.5964,57.3626 62.4421,57.7884 62.1413,58.1165 C62.0524,58.2132 61.9284,58.262 61.8054,58.262 Z" id="Shape" fill="#15003E"></path>
            <path d="M61.3288,57.055 C61.3366,56.8079 61.1442,56.6009 60.8972,56.5911 C60.6501,56.5833 60.4431,56.7767 60.4323,57.0228 C60.4255,57.2708 60.6188,57.4788 60.8649,57.4876 C61.113,57.4964 61.32,57.302 61.3288,57.055" id="Shape" fill="#15003E"></path>
            <path d="M69.8044,58.4974 C69.7116,58.4974 69.6198,58.469 69.5407,58.4134 L65.1726,55.3235 C64.9675,55.177 64.9177,54.8909 65.0651,54.6858 C65.2106,54.4798 65.4938,54.4319 65.7009,54.5765 L70.0681,57.6673 C70.2751,57.8118 70.323,58.0989 70.1774,58.303 C70.0876,58.429 69.948,58.4974 69.8044,58.4974 Z" id="Shape" fill="#15003E"></path>
            <path d="M72.7155,60.5599 C72.6237,60.5599 72.5319,60.5315 72.4519,60.4759 L71.5085,59.8108 C71.3034,59.6644 71.2546,59.3792 71.3991,59.1731 C71.5437,58.9671 71.8298,58.9183 72.0368,59.0638 L72.9802,59.7278 C73.1843,59.8743 73.2341,60.1604 73.0886,60.3645 C72.9997,60.4915 72.8591,60.5599 72.7155,60.5599 Z" id="Shape" fill="#15003E"></path>
            <path d="M71.7722,59.8929 C71.6813,59.8929 71.5886,59.8655 71.5085,59.8099 C71.3034,59.6644 71.2546,59.3782 71.4001,59.1722 C71.6394,58.8353 71.5603,58.3665 71.2233,58.1263 C70.8855,57.888 70.4157,57.9661 70.1774,58.303 C70.031,58.5101 69.7468,58.5579 69.5407,58.4124 C69.3356,58.2659 69.2858,57.9817 69.4323,57.7747 C69.9626,57.0267 71.0046,56.8499 71.7507,57.3821 C72.4997,57.9124 72.6755,58.9534 72.1452,59.7024 C72.0563,59.8274 71.9167,59.8929 71.7722,59.8929 Z" id="Shape" fill="#15003E"></path>
            <path d="M70.8356,59.2259 C70.5954,59.2874 70.3522,59.1399 70.2907,58.9007 C70.2321,58.6614 70.3776,58.4173 70.6169,58.3567 C70.8571,58.2972 71.0993,58.4417 71.1608,58.6819 C71.2204,58.9222 71.0749,59.1663 70.8356,59.2259" id="Shape" fill="#15003E"></path>
            <path d="M54.8435,33.0657 C54.8435,32.8182 55.0446,32.618 55.2917,32.618 C55.5388,32.618 55.7409,32.8182 55.7409,33.0657 C55.7409,33.3138 55.5388,33.5135 55.2917,33.5135 C55.0446,33.5135 54.8435,33.3138 54.8435,33.0657" id="Shape" fill="#15003E"></path>
            <path d="M36.1413,32.6448 C36.1413,32.3982 36.3425,32.1971 36.5886,32.1971 C36.8376,32.1971 37.0378,32.3982 37.0378,32.6448 C37.0378,32.8929 36.8376,33.094 36.5886,33.094 C36.3425,33.094 36.1413,32.8929 36.1413,32.6448" id="Shape" fill="#15003E"></path>
        </g>
    </g>
</svg>