<svg id="Layer_1" data-name="Layer 1" xmlns="http://www.w3.org/2000/svg" viewBox="0 0 1200 1200"><defs><style>.cls-1{fill:#57d39d;}.cls-2{fill:#fff;}.cls-3{fill:#1c1c1c;}.cls-4{opacity:0.13;isolation:isolate;}.cls-5{fill:#1d173a;}.cls-6{fill:#4eb377;}.cls-7{fill:#ffce12;}</style></defs><title>Pixelayed Arts</title><polygon class="cls-1" points="1109.91 306.99 1109.91 901.78 594.87 1199.17 182.7 961.26 180.84 960.15 79.72 901.78 79.72 306.99 594.87 9.6 1109.91 306.99"/><path class="cls-2" d="M1022.35,357.46V851.32l-.09.09-10.14,5.77-3.07,1.77-1.21.64-8.17,4.74-29.19,16.85-1.85,1.12-17.94,10.32-1.49.83-13.75,8-4.4,2.48-1.3.74-4.37,2.51-2.23,1.21-.28.09-.93.37-1,.65-28.16,16.17L885.17,930l-9.79,5.61-.37.28-11.43,6.59-4.18,2.42-.18.19h-.1l-14.32,8.26-8.07,4.84L825,964.91l-.47.28-.64.37-.74.46-3.82,2.23-.28.1-.46.28-.47.19-.56.36v.1l-7.24,4.18-1.68.84-.18.19-.37.17-9.39,5.4-1.3.74-1.39.83-.47.29-3,1.67-2.18,1.28h-.09l-.66.37-5.95,3.53-1.85,1.12-3.07,1.76-2.32,1.3a.09.09,0,0,1-.1.1L772,995.56l-3.91,2.23-.37.28-5.3,3.06-21.66,12.46-5.87,3.33-.56.28L701.8,1036l-.19.09-.09.09-3.72,2.14-3.25,1.85-4.65,2.7-1.29.74-11.62,6.7-9.11,5.3-3.63,2-.09.09-4,2.33-3.72,2.14-21.94,12.64-3.34,2-.37.18-1.68.93-4.64,2.7-17.38,10-5.21,3h-.09l-3,1.77L594.4,1098l-1.3-.74-11.89-6.88-7.93-4.55-.29-.09-8.46-5-1.57-.94-.47-.27-5.67-3.25-1.58-.94-31.23-18-.37-.27-19.24-11.07-44.14-25.65-5.66-3.25-6.42-3.62-8.64-5-2-1.11-.85-.55-.27-.19-20.73-12-11.35-6.49-3.46-2-3.63-2-2.14-1.21-2.41-1.4-2.23-1.39-.84-.46-3.25-1.86-.74-.47-.75-.37-.37-.28-12.08-6.87-.46-.28-1.4-.74-3.4-2.08-15.86-9.2L328,944l-19.42-11.16-7.63-4.36-.83-.46-4.65-2.7-.09-.1-2-1.11h-.09l-9.66-5.58c-.1-.09-.1-.09-.19-.09l-17.31-10-9.47-5.45-12.4-7.19-6.7-4-.37-.19-.19-.09-2.66-1.61a.24.24,0,0,1-.18-.1l-2.41-1.38-.19-.1-30.67-17.66-31.72-18.3-.83-.47-.75-.38-.27-.18V357.46l52.59-30.29,7.16-4.28h.09l2.33-1.3,5.39-3.06,16.31-9.35L272.27,297l7.62-4.46,1.39-.85,19.24-11.06,9.11-5.29,9.38-5.48,3.9-2.23,4.18-2.42,2.33-1.3h.05l5.3-3.07,30-17.28L379.47,235l1.59-.83,15.42-8.83,7.25-4.18,3.53-2,4.09-2.41,10.22-6,4.83-2.8,21.2-12.08L454,192l13-7.43h.11l.45-.28,53.21-30.72,1.76-1,2.52-1.48,56.41-32.62,13.39-7.72,9.85,5.76L665,151.35l24.16,13.94,36.68,21.19,12.45,7.16L800,229.23l9.68,5.67L831,247.06l8.08,4.65,14.13,8.17L866,267.22l7.43,4.28.84.56,16.86,9.66L926.2,302l.36.28v.09l2.42,1.31,2.42,1.48,3.72,2.13,8.54,5,5,2.89.17.09,17.85,10.31,7.25,4.09,4.09,2.33,18,10.4Z"/><path class="cls-3" d="M745.52,1068.62l13.72-7.88.63,1.08a26.37,26.37,0,0,1,2.94,7.14,16.34,16.34,0,0,1,0,6.68,17.4,17.4,0,0,1-8.76,12,18.7,18.7,0,0,1-14.84,1.87,20,20,0,0,1,3.63-39.25,24.24,24.24,0,0,1,9.35,1.49l-1.62,5.49q-7.21-3.09-13.09.28a13.64,13.64,0,0,0-6.75,8.73,14,14,0,0,0,1.58,11,13.52,13.52,0,0,0,9.23,6.84,13.75,13.75,0,0,0,10-1.32,11.53,11.53,0,0,0,5.19-6.3,10.28,10.28,0,0,0-.15-7.91l-8.29,4.77Z"/><rect class="cls-3" x="777.05" y="1030.59" width="5.78" height="38.33" transform="translate(-419.97 529.66) rotate(-29.95)"/><polygon class="cls-3" points="804.16 1019.97 820.56 1048.47 815.56 1051.34 799.16 1022.86 791.52 1027.25 788.81 1022.54 809.06 1010.88 811.76 1015.59 804.16 1019.97"/><path class="cls-3" d="M849.38,990l3.41,5.92q-6.45-1.14-11.09,1.54a13.32,13.32,0,0,0-6.55,8.64,14.37,14.37,0,0,0,1.63,11,14.05,14.05,0,0,0,8.6,6.8,13.57,13.57,0,0,0,10.74-1.39,12.34,12.34,0,0,0,4-3.45,15.09,15.09,0,0,0,1.48-2.39,33.71,33.71,0,0,0,1.32-3.15l3.48,6.05a20.74,20.74,0,0,1-7.63,7.65,19.25,19.25,0,0,1-15,2,19.06,19.06,0,0,1-12-9.21,19.7,19.7,0,0,1-2.3-13.73,19.17,19.17,0,0,1,9.83-13.73,19.45,19.45,0,0,1,10-2.56"/><path class="cls-2" d="M873.68,988.54a18.73,18.73,0,0,1-1.8-15,19.65,19.65,0,0,1,9.42-12.15,20.05,20.05,0,0,1,27.21,7.33,18.92,18.92,0,0,1,1.87,15.11,20.27,20.27,0,0,1-23.65,14.34,18.88,18.88,0,0,1-13.09-9.67m5.08-2.8a14.21,14.21,0,0,0,26.18-3.12,14.87,14.87,0,0,0-10.2-17.82,14.28,14.28,0,0,0-17.49,10.06,13.84,13.84,0,0,0,1.58,10.84"/><rect class="cls-3" x="925.88" y="944.87" width="5.79" height="38.32" transform="translate(-357.34 592.71) rotate(-29.96)"/><polygon class="cls-3" points="960.29 968.06 939.88 932.58 978.7 943.99 965.4 920.89 970.4 918.02 990.69 953.26 951.92 941.92 965.3 965.17 960.29 968.06"/><g class="cls-4"><path d="M988.14,322,983,319.09l-6.92-4-7.4-4.31-1-.57L963,307.5l-4.9-2.8-8.65-5-69.73-40-16.4-9.38-6.93-4L852,243.81,847.31,241l-.48-.2-4-2.39-3.95-2.29-51.27-29.4L600.12,99.18l-5.12-3-4.53,2.58L426,193.39l-48.26,27.77-12.5,7.14-5.13,3-1,.48h-.09l-2.38,1.47-4,2.39-2.88,1.63-2.6,1.53-1.73.95L331,248.05h0l-17.11,9.77-.11.1-5.56,3.25-7.31,4.09-.1.09-.29.19-31.25,17.91h-.09l-22.88,13.12-9.64,5.57-28.71,16.47L167.25,342l-14.8,8.51V859l.67.38L169.65,869l7.18,4.08,1.44.77,41.53,23.93,6.64,3.74,5.13,3,18.07,10.43,15.29,8.82,4.42,2.49,12.5,7.15,32.54,18.74,51.72,29.69,6.64,3.83.67.38,1.44.76,1,.68,1.74,1,.39.19,18.35,10.63,8.46,4.79,12.79,7.46,8.56,4.88,1.73,1,3,1.73,1.82,1,4.62,2.68,34.33,19.62.86.48,4.22,2.49,6,3.46,6.92,4h.1l5.12,2.88,14.52,8.32,30.48,17.61,43.07,24.71,9.9,5.75,2.22,1.24.18-.1,1.83-1,1.35-.77.29-.18,3-1.73,17.43-9.86.87-.48,6.64-3.83,4.81-2.78,2.31-1.34,37-21.25,23.59-13.5,7.11-4.08,6.35-3.64,6.44-3.72,4.24-2.49,22.33-12.82,3.75-2.1h.1l2.21-1.34,2-1.15,6-3.45,7.69-4.4,12.12-7,4.42-2.58h.09l4.43-2.59.1-.09,2.4-1.35,5.13-3,3.56-2,3.37-2,5.29-3,2.05-1.24,3.07-1.72,4.1-2.29.2-.11.48-.28,1.25-.77L817,986l36.34-20.88L857,963l10.67-6.22,28.55-16.34,15-8.6L940.53,915l18.17-10.44,34.45-19.85h.09l.57-.39,25.48-14.64,8.66-5,9.89-5.65V350.51Zm31.73,526.91-5,2.87-3.07,1.72-5.57,3.25-73,41.94-10.38,5.93L904.69,915l-16.34,9.38-30,17.24-12.3,7.08-6.92,3.92L811,968.77l-.68.48-1.53.87-1.74,1-5.47,3.06L793,979.08l-2.11,1.25-.5.36-7.78,4.5-.88.47-37.59,21.54-.77.49-7.59,4.3-.76.48-8.75,5.11-20.67,11.87-14.79,8.42-16.15,9.28-10.58,6-28.53,16.49-11.82,6.8-.59.39h-.18l-7.18,4.2-2.69,1.44-18,10.34-33.17-19-11.83-6.8-5.86-3.35-17.44-10.06-6.92-3.92-6.63-3.83-50.6-29-7.41-4.3-.47-.29-17.22-9.86-19.8-11.3-8.65-5-5.58-3.25-2.4-1.44L397,979,395,977.87l-16.82-9.67-3-1.73-1.83-1-14.42-8.32L326,938.27l-37.58-21.64L285.56,915l-14.06-8.07-4.1-2.4-28.72-16.46-47.17-27.19L182.87,856l-3.75-2.21-2.22-1.25-6.44-3.72v-488l37.46-21.66,28.71-16.47,8.94-5.17h.1l.58-.39L277,299.47h.1l13.07-7.57h.1L307.49,282l12-6.9,4.1-2.39h.09l7.31-4.2,4.42-2.6h.1l28.65-16.46c.1-.1.1-.1.19-.1l7.5-4.31,3.37-1.91,1.92-1.15,2.79-1.63,1.64-.95,2.59-1.43.38-.2,77.21-44.42,128.73-74L595,116.8l5.12,3L762,212.69l67.1,38.59.48.29,3.08,1.72,1,.57,4.24,2.49,3.36,1.91,11.82,6.81,18.66,10.72,67.49,38.68,13.56,7.75,5.28,3.06.39.29,7.4,4.21,1.82,1,5.19,3,5.13,3,41.89,24.12v488Z"/></g><rect class="cls-5" x="621.52" y="604.01" width="11.33" height="11.33"/><rect class="cls-5" x="610.18" y="604.01" width="11.34" height="11.33"/><rect class="cls-5" x="666.84" y="694.66" width="11.33" height="11.33"/><rect class="cls-5" x="530.87" y="694.66" width="11.33" height="11.33"/><rect class="cls-5" x="610.18" y="615.34" width="11.34" height="11.33"/><rect class="cls-6" x="621.52" y="638" width="11.33" height="11.33"/><rect class="cls-6" x="621.52" y="626.67" width="11.33" height="11.33"/><rect class="cls-5" x="598.85" y="626.67" width="11.33" height="11.33"/><rect class="cls-5" x="610.18" y="638" width="11.34" height="11.33"/><rect class="cls-5" x="621.52" y="649.33" width="11.33" height="11.33"/><rect class="cls-5" x="621.52" y="660.66" width="11.33" height="11.33"/><rect class="cls-5" x="610.18" y="660.66" width="11.34" height="11.33"/><rect class="cls-5" x="598.85" y="660.66" width="11.33" height="11.33"/><rect class="cls-5" x="587.52" y="649.33" width="11.33" height="11.33"/><rect class="cls-5" x="576.19" y="638" width="11.33" height="11.33"/><rect class="cls-5" x="576.19" y="626.67" width="11.33" height="11.33"/><rect class="cls-5" x="576.19" y="615.34" width="11.33" height="11.33"/><rect class="cls-5" x="587.52" y="604.01" width="11.33" height="11.33"/><rect class="cls-5" x="598.85" y="604.01" width="11.33" height="11.33"/><rect class="cls-5" x="621.52" y="615.34" width="11.33" height="11.33"/><rect class="cls-5" x="349.58" y="354.73" width="11.33" height="11.33"/><rect class="cls-5" x="360.91" y="354.73" width="11.33" height="11.33"/><rect class="cls-5" x="338.24" y="354.73" width="11.34" height="11.33"/><rect class="cls-5" x="326.91" y="343.4" width="11.33" height="11.33"/><rect class="cls-5" x="644.18" y="377.39" width="11.33" height="11.33"/><rect class="cls-5" x="644.18" y="366.06" width="11.33" height="11.33"/><rect class="cls-5" x="553.53" y="377.39" width="11.33" height="11.33"/><rect class="cls-5" x="553.53" y="366.06" width="11.33" height="11.33"/><rect class="cls-5" x="814.14" y="762.64" width="11.33" height="11.33"/><rect class="cls-5" x="814.14" y="751.31" width="11.33" height="11.33"/><rect class="cls-5" x="802.81" y="943.93" width="11.33" height="11.33"/><rect class="cls-5" x="802.81" y="932.6" width="11.33" height="11.33"/><rect class="cls-5" x="802.81" y="785.3" width="11.33" height="11.33"/><rect class="cls-5" x="802.81" y="773.97" width="11.33" height="11.33"/><rect class="cls-5" x="802.81" y="762.64" width="11.33" height="11.33"/><rect class="cls-5" x="802.81" y="751.31" width="11.33" height="11.33"/><rect class="cls-5" x="802.81" y="739.98" width="11.33" height="11.33"/><rect class="cls-5" x="791.48" y="943.93" width="11.33" height="11.33"/><rect class="cls-5" x="791.48" y="932.6" width="11.33" height="11.33"/><rect class="cls-5" x="791.48" y="796.63" width="11.33" height="11.33"/><rect class="cls-5" x="791.48" y="785.3" width="11.33" height="11.33"/><rect class="cls-5" x="791.48" y="728.65" width="11.33" height="11.33"/><rect class="cls-5" x="791.48" y="717.32" width="11.33" height="11.33"/><rect class="cls-5" x="791.48" y="705.99" width="11.33" height="11.33"/><rect class="cls-5" x="791.48" y="694.66" width="11.33" height="11.33"/><rect class="cls-5" x="791.48" y="683.32" width="11.33" height="11.34"/><rect class="cls-5" x="791.48" y="671.99" width="11.33" height="11.33"/><rect class="cls-5" x="791.48" y="660.66" width="11.33" height="11.33"/><rect class="cls-5" x="791.48" y="649.33" width="11.33" height="11.33"/><rect class="cls-5" x="780.15" y="943.93" width="11.33" height="11.33"/><rect class="cls-5" x="780.15" y="932.6" width="11.33" height="11.33"/><rect class="cls-5" x="780.15" y="796.63" width="11.33" height="11.33"/><rect class="cls-5" x="780.15" y="785.3" width="11.33" height="11.33"/><rect class="cls-5" x="780.15" y="728.65" width="11.33" height="11.33"/><rect class="cls-5" x="780.15" y="694.66" width="11.33" height="11.33"/><rect class="cls-5" x="780.15" y="660.66" width="11.33" height="11.33"/><rect class="cls-5" x="780.15" y="638" width="11.33" height="11.33"/><rect class="cls-5" x="780.15" y="626.67" width="11.33" height="11.33"/><rect class="cls-5" x="780.15" y="615.34" width="11.33" height="11.33"/><rect class="cls-5" x="768.82" y="943.93" width="11.33" height="11.33"/><rect class="cls-5" x="768.82" y="932.6" width="11.33" height="11.33"/><rect class="cls-5" x="768.82" y="796.63" width="11.33" height="11.33"/><rect class="cls-5" x="768.82" y="785.3" width="11.33" height="11.33"/><rect class="cls-5" x="768.82" y="739.98" width="11.33" height="11.33"/><rect class="cls-5" x="768.82" y="728.65" width="11.33" height="11.33"/><rect class="cls-5" x="768.82" y="717.32" width="11.33" height="11.33"/><rect class="cls-5" x="768.82" y="705.99" width="11.33" height="11.33"/><rect class="cls-5" x="768.82" y="694.66" width="11.33" height="11.33"/><rect class="cls-5" x="768.82" y="683.32" width="11.33" height="11.34"/><rect class="cls-5" x="768.82" y="671.99" width="11.33" height="11.33"/><rect class="cls-5" x="768.82" y="660.66" width="11.33" height="11.33"/><rect class="cls-5" x="768.82" y="626.67" width="11.33" height="11.33"/><rect class="cls-5" x="768.82" y="615.34" width="11.33" height="11.33"/><rect class="cls-5" x="768.82" y="604.01" width="11.33" height="11.33"/><rect class="cls-5" x="757.49" y="943.93" width="11.33" height="11.33"/><rect class="cls-5" x="757.49" y="932.6" width="11.33" height="11.33"/><rect class="cls-5" x="757.49" y="785.3" width="11.33" height="11.33"/><rect class="cls-5" x="757.49" y="773.97" width="11.33" height="11.33"/><rect class="cls-5" x="757.49" y="762.64" width="11.33" height="11.33"/><rect class="cls-5" x="757.49" y="751.31" width="11.33" height="11.33"/><rect class="cls-5" x="757.49" y="739.98" width="11.33" height="11.33"/><rect class="cls-5" x="757.49" y="660.66" width="11.33" height="11.33"/><rect class="cls-5" x="757.49" y="649.33" width="11.33" height="11.33"/><rect class="cls-5" x="757.49" y="638" width="11.33" height="11.33"/><rect class="cls-5" x="757.49" y="626.67" width="11.33" height="11.33"/><rect class="cls-5" x="757.49" y="604.01" width="11.33" height="11.33"/><rect class="cls-5" x="757.49" y="592.68" width="11.33" height="11.33"/><rect class="cls-5" x="746.15" y="943.93" width="11.34" height="11.33"/><rect class="cls-5" x="746.15" y="932.6" width="11.34" height="11.33"/><rect class="cls-5" x="746.15" y="638" width="11.34" height="11.33"/><rect class="cls-5" x="746.15" y="626.67" width="11.34" height="11.33"/><rect class="cls-5" x="746.15" y="604.01" width="11.34" height="11.33"/><rect class="cls-5" x="746.15" y="592.68" width="11.34" height="11.33"/><rect class="cls-5" x="746.15" y="581.35" width="11.34" height="11.33"/><rect class="cls-5" x="746.15" y="570.02" width="11.34" height="11.33"/><rect class="cls-5" x="734.82" y="943.93" width="11.33" height="11.33"/><rect class="cls-5" x="734.82" y="932.6" width="11.33" height="11.33"/><rect class="cls-5" x="734.82" y="626.67" width="11.33" height="11.33"/><rect class="cls-5" x="734.82" y="615.34" width="11.33" height="11.33"/><rect class="cls-5" x="734.82" y="604.01" width="11.33" height="11.33"/><rect class="cls-5" x="734.82" y="570.02" width="11.33" height="11.33"/><rect class="cls-5" x="734.82" y="558.69" width="11.33" height="11.33"/><rect class="cls-5" x="723.49" y="943.93" width="11.33" height="11.33"/><rect class="cls-5" x="723.49" y="932.6" width="11.33" height="11.33"/><rect class="cls-5" x="723.49" y="604.01" width="11.33" height="11.33"/><rect class="cls-5" x="723.49" y="592.68" width="11.33" height="11.33"/><rect class="cls-5" x="723.49" y="570.02" width="11.33" height="11.33"/><rect class="cls-5" x="723.49" y="558.69" width="11.33" height="11.33"/><rect class="cls-5" x="723.49" y="547.35" width="11.33" height="11.34"/><rect class="cls-5" x="712.16" y="966.59" width="11.33" height="11.34"/><rect class="cls-5" x="712.16" y="955.26" width="11.33" height="11.33"/><rect class="cls-5" x="712.16" y="943.93" width="11.33" height="11.33"/><rect class="cls-5" x="712.16" y="932.6" width="11.33" height="11.33"/><rect class="cls-5" x="712.16" y="921.27" width="11.33" height="11.33"/><rect class="cls-5" x="712.16" y="592.68" width="11.33" height="11.33"/><rect class="cls-5" x="712.16" y="581.35" width="11.33" height="11.33"/><rect class="cls-5" x="712.16" y="547.35" width="11.33" height="11.34"/><rect class="cls-5" x="712.16" y="536.02" width="11.33" height="11.33"/><rect class="cls-5" x="700.83" y="977.93" width="11.33" height="11.33"/><rect class="cls-5" x="700.83" y="966.59" width="11.33" height="11.34"/><rect class="cls-5" x="700.83" y="955.26" width="11.33" height="11.33"/><rect class="cls-5" x="700.83" y="921.27" width="11.33" height="11.33"/><rect class="cls-5" x="700.83" y="909.94" width="11.33" height="11.33"/><rect class="cls-5" x="700.83" y="581.35" width="11.33" height="11.33"/><rect class="cls-5" x="700.83" y="570.02" width="11.33" height="11.33"/><rect class="cls-5" x="700.83" y="558.69" width="11.33" height="11.33"/><rect class="cls-5" x="700.83" y="547.35" width="11.33" height="11.34"/><rect class="cls-5" x="700.83" y="536.02" width="11.33" height="11.33"/><rect class="cls-5" x="700.83" y="524.69" width="11.33" height="11.33"/><rect class="cls-5" x="689.5" y="977.93" width="11.33" height="11.33"/><rect class="cls-5" x="689.5" y="966.59" width="11.33" height="11.34"/><rect class="cls-5" x="689.5" y="955.26" width="11.33" height="11.33"/><rect class="cls-5" x="689.5" y="921.27" width="11.33" height="11.33"/><rect class="cls-5" x="689.5" y="909.94" width="11.33" height="11.33"/><rect class="cls-5" x="689.5" y="581.35" width="11.33" height="11.33"/><rect class="cls-5" x="689.5" y="570.02" width="11.33" height="11.33"/><rect class="cls-5" x="689.5" y="558.69" width="11.33" height="11.33"/><rect class="cls-5" x="689.5" y="547.35" width="11.33" height="11.34"/><rect class="cls-5" x="689.5" y="536.02" width="11.33" height="11.33"/><rect class="cls-5" x="689.5" y="524.69" width="11.33" height="11.33"/><rect class="cls-5" x="689.5" y="513.36" width="11.33" height="11.33"/><rect class="cls-5" x="678.17" y="977.93" width="11.33" height="11.33"/><rect class="cls-5" x="678.17" y="966.59" width="11.33" height="11.34"/><rect class="cls-5" x="678.17" y="909.94" width="11.33" height="11.33"/><rect class="cls-5" x="678.17" y="887.28" width="11.33" height="11.33"/><rect class="cls-5" x="678.17" y="875.95" width="11.33" height="11.33"/><rect class="cls-5" x="678.17" y="853.29" width="11.33" height="11.33"/><rect class="cls-5" x="678.17" y="830.62" width="11.33" height="11.34"/><rect class="cls-5" x="678.17" y="819.29" width="11.33" height="11.33"/><rect class="cls-5" x="678.17" y="807.96" width="11.33" height="11.33"/><rect class="cls-5" x="678.17" y="785.3" width="11.33" height="11.33"/><rect class="cls-5" x="678.17" y="762.64" width="11.33" height="11.33"/><rect class="cls-5" x="678.17" y="751.31" width="11.33" height="11.33"/><rect class="cls-5" x="678.17" y="739.98" width="11.33" height="11.33"/><rect class="cls-5" x="678.17" y="728.65" width="11.33" height="11.33"/><rect class="cls-5" x="678.17" y="717.32" width="11.33" height="11.33"/><rect class="cls-5" x="678.17" y="705.99" width="11.33" height="11.33"/><rect class="cls-5" x="678.17" y="694.66" width="11.33" height="11.33"/><rect class="cls-5" x="678.17" y="683.32" width="11.33" height="11.34"/><rect class="cls-5" x="678.17" y="671.99" width="11.33" height="11.33"/><rect class="cls-5" x="678.17" y="660.66" width="11.33" height="11.33"/><rect class="cls-5" x="678.17" y="649.33" width="11.33" height="11.33"/><rect class="cls-5" x="678.17" y="638" width="11.33" height="11.33"/><rect class="cls-5" x="678.17" y="626.67" width="11.33" height="11.33"/><rect class="cls-5" x="678.17" y="615.34" width="11.33" height="11.33"/><rect class="cls-5" x="678.17" y="604.01" width="11.33" height="11.33"/><rect class="cls-5" x="678.17" y="592.68" width="11.33" height="11.33"/><rect class="cls-5" x="678.17" y="581.35" width="11.33" height="11.33"/><rect class="cls-5" x="678.17" y="570.02" width="11.33" height="11.33"/><rect class="cls-5" x="678.17" y="558.69" width="11.33" height="11.33"/><rect class="cls-5" x="678.17" y="547.35" width="11.33" height="11.34"/><rect class="cls-5" x="678.17" y="536.02" width="11.33" height="11.33"/><rect class="cls-5" x="678.17" y="524.69" width="11.33" height="11.33"/><rect class="cls-5" x="678.17" y="513.36" width="11.33" height="11.33"/><rect class="cls-5" x="678.17" y="502.03" width="11.33" height="11.33"/><rect class="cls-5" x="666.84" y="977.93" width="11.33" height="11.33"/><rect class="cls-5" x="666.84" y="966.59" width="11.33" height="11.34"/><rect class="cls-5" x="666.84" y="909.94" width="11.33" height="11.33"/><rect class="cls-5" x="666.84" y="898.61" width="11.33" height="11.33"/><rect class="cls-5" x="666.84" y="887.28" width="11.33" height="11.33"/><rect class="cls-5" x="666.84" y="875.95" width="11.33" height="11.33"/><rect class="cls-5" x="666.84" y="864.62" width="11.33" height="11.33"/><rect class="cls-5" x="666.84" y="853.29" width="11.33" height="11.33"/><rect class="cls-5" x="666.84" y="841.96" width="11.33" height="11.33"/><rect class="cls-5" x="666.84" y="830.62" width="11.33" height="11.34"/><rect class="cls-5" x="666.84" y="819.29" width="11.33" height="11.33"/><rect class="cls-5" x="666.84" y="807.96" width="11.33" height="11.33"/><rect class="cls-5" x="666.84" y="796.63" width="11.33" height="11.33"/><rect class="cls-5" x="666.84" y="785.3" width="11.33" height="11.33"/><rect class="cls-5" x="666.84" y="773.97" width="11.33" height="11.33"/><rect class="cls-5" x="666.84" y="762.64" width="11.33" height="11.33"/><rect class="cls-5" x="666.84" y="751.31" width="11.33" height="11.33"/><rect class="cls-5" x="666.84" y="739.98" width="11.33" height="11.33"/><rect class="cls-5" x="666.84" y="728.65" width="11.33" height="11.33"/><rect class="cls-5" x="666.84" y="717.32" width="11.33" height="11.33"/><rect class="cls-5" x="666.84" y="705.99" width="11.33" height="11.33"/><rect class="cls-5" x="666.84" y="513.36" width="11.33" height="11.33"/><rect class="cls-5" x="666.84" y="502.03" width="11.33" height="11.33"/><rect class="cls-5" x="666.84" y="490.7" width="11.33" height="11.33"/><rect class="cls-5" x="666.84" y="388.72" width="11.33" height="11.33"/><rect class="cls-5" x="666.84" y="377.39" width="11.33" height="11.33"/><rect class="cls-5" x="666.84" y="366.06" width="11.33" height="11.33"/><rect class="cls-5" x="655.51" y="977.93" width="11.33" height="11.33"/><rect class="cls-5" x="655.51" y="966.59" width="11.33" height="11.34"/><rect class="cls-5" x="655.51" y="909.94" width="11.33" height="11.33"/><rect class="cls-5" x="655.51" y="875.95" width="11.33" height="11.33"/><rect class="cls-5" x="655.51" y="841.96" width="11.33" height="11.33"/><rect class="cls-5" x="655.51" y="773.97" width="11.33" height="11.33"/><rect class="cls-5" x="655.51" y="728.65" width="11.33" height="11.33"/><rect class="cls-5" x="655.51" y="717.32" width="11.33" height="11.33"/><rect class="cls-5" x="655.51" y="705.99" width="11.33" height="11.33"/><rect class="cls-5" x="655.51" y="604.01" width="11.33" height="11.33"/><rect class="cls-5" x="655.51" y="592.68" width="11.33" height="11.33"/><rect class="cls-5" x="655.51" y="581.35" width="11.33" height="11.33"/><rect class="cls-5" x="655.51" y="570.02" width="11.33" height="11.33"/><rect class="cls-5" x="655.51" y="558.69" width="11.33" height="11.33"/><rect class="cls-7" x="655.51" y="513.36" width="11.33" height="11.33"/><rect class="cls-7" x="655.51" y="502.03" width="11.33" height="11.33"/><rect class="cls-7" x="655.51" y="490.7" width="11.33" height="11.33"/><rect class="cls-5" x="655.51" y="479.37" width="11.33" height="11.33"/><rect class="cls-5" x="655.51" y="400.05" width="11.33" height="11.33"/><rect class="cls-5" x="655.51" y="388.72" width="11.33" height="11.33"/><rect class="cls-5" x="655.51" y="377.39" width="11.33" height="11.33"/><rect class="cls-5" x="655.51" y="366.06" width="11.33" height="11.33"/><rect class="cls-5" x="655.51" y="354.73" width="11.33" height="11.33"/><rect class="cls-5" x="644.18" y="977.93" width="11.33" height="11.33"/><rect class="cls-5" x="644.18" y="966.59" width="11.33" height="11.34"/><rect class="cls-5" x="644.18" y="898.61" width="11.33" height="11.33"/><rect class="cls-5" x="644.18" y="887.28" width="11.33" height="11.33"/><rect class="cls-5" x="644.18" y="875.95" width="11.33" height="11.33"/><rect class="cls-5" x="644.18" y="864.62" width="11.33" height="11.33"/><rect class="cls-5" x="644.18" y="853.29" width="11.33" height="11.33"/><rect class="cls-5" x="644.18" y="841.96" width="11.33" height="11.33"/><rect class="cls-5" x="644.18" y="830.62" width="11.33" height="11.34"/><rect class="cls-5" x="644.18" y="807.96" width="11.33" height="11.33"/><rect class="cls-5" x="644.18" y="773.97" width="11.33" height="11.33"/><rect class="cls-5" x="644.18" y="728.65" width="11.33" height="11.33"/><rect class="cls-5" x="644.18" y="717.32" width="11.33" height="11.33"/><rect class="cls-5" x="644.18" y="683.32" width="11.33" height="11.34"/><rect class="cls-5" x="644.18" y="671.99" width="11.33" height="11.33"/><rect class="cls-5" x="644.18" y="660.66" width="11.33" height="11.33"/><rect class="cls-5" x="644.18" y="649.33" width="11.33" height="11.33"/><rect class="cls-5" x="644.18" y="638" width="11.33" height="11.33"/><rect class="cls-5" x="644.18" y="626.67" width="11.33" height="11.33"/><rect class="cls-5" x="644.18" y="615.34" width="11.33" height="11.33"/><rect class="cls-5" x="644.18" y="604.01" width="11.33" height="11.33"/><rect class="cls-5" x="644.18" y="558.69" width="11.33" height="11.33"/><rect class="cls-5" x="644.18" y="547.35" width="11.33" height="11.34"/><rect class="cls-7" x="644.18" y="536.02" width="11.33" height="11.33"/><rect class="cls-7" x="644.18" y="524.69" width="11.33" height="11.33"/><rect class="cls-7" x="644.18" y="513.36" width="11.33" height="11.33"/><rect class="cls-7" x="644.18" y="502.03" width="11.33" height="11.33"/><rect class="cls-7" x="644.18" y="490.7" width="11.33" height="11.33"/><rect class="cls-5" x="644.18" y="479.37" width="11.33" height="11.33"/><rect class="cls-5" x="644.18" y="468.04" width="11.33" height="11.33"/><rect class="cls-5" x="644.18" y="456.71" width="11.33" height="11.33"/><rect class="cls-5" x="644.18" y="445.38" width="11.33" height="11.33"/><rect class="cls-5" x="644.18" y="434.05" width="11.33" height="11.33"/><rect class="cls-5" x="644.18" y="422.72" width="11.33" height="11.33"/><rect class="cls-5" x="644.18" y="411.38" width="11.33" height="11.34"/><rect class="cls-5" x="644.18" y="400.05" width="11.33" height="11.33"/><rect class="cls-5" x="644.18" y="388.72" width="11.33" height="11.33"/><rect class="cls-5" x="644.18" y="354.73" width="11.33" height="11.33"/><rect class="cls-5" x="644.18" y="343.4" width="11.33" height="11.33"/><rect class="cls-5" x="644.18" y="332.07" width="11.33" height="11.33"/><rect class="cls-5" x="644.18" y="320.74" width="11.33" height="11.33"/><rect class="cls-5" x="644.18" y="230.09" width="11.33" height="11.33"/><rect class="cls-5" x="632.85" y="977.93" width="11.33" height="11.33"/><rect class="cls-5" x="632.85" y="966.59" width="11.33" height="11.34"/><rect class="cls-5" x="632.85" y="909.94" width="11.33" height="11.33"/><rect class="cls-5" x="632.85" y="898.61" width="11.33" height="11.33"/><rect class="cls-5" x="632.85" y="830.62" width="11.33" height="11.34"/><rect class="cls-5" x="632.85" y="819.29" width="11.33" height="11.33"/><rect class="cls-5" x="632.85" y="807.96" width="11.33" height="11.33"/><rect class="cls-5" x="632.85" y="796.63" width="11.33" height="11.33"/><rect class="cls-5" x="632.85" y="785.3" width="11.33" height="11.33"/><rect class="cls-5" x="632.85" y="773.97" width="11.33" height="11.33"/><rect class="cls-5" x="632.85" y="762.64" width="11.33" height="11.33"/><rect class="cls-5" x="632.85" y="751.31" width="11.33" height="11.33"/><rect class="cls-5" x="632.85" y="728.65" width="11.33" height="11.33"/><rect class="cls-5" x="632.85" y="717.32" width="11.33" height="11.33"/><rect class="cls-5" x="632.85" y="683.32" width="11.33" height="11.34"/><rect class="cls-5" x="632.85" y="671.99" width="11.33" height="11.33"/><rect class="cls-5" x="632.85" y="547.35" width="11.33" height="11.34"/><rect class="cls-7" x="632.85" y="536.02" width="11.33" height="11.33"/><rect class="cls-7" x="632.85" y="524.69" width="11.33" height="11.33"/><rect class="cls-5" x="632.85" y="513.36" width="11.33" height="11.33"/><rect class="cls-5" x="632.85" y="479.37" width="11.33" height="11.33"/><rect class="cls-5" x="632.85" y="468.04" width="11.33" height="11.33"/><rect class="cls-5" x="632.85" y="456.71" width="11.33" height="11.33"/><rect class="cls-5" x="632.85" y="434.05" width="11.33" height="11.33"/><rect class="cls-2" x="632.85" y="422.72" width="11.33" height="11.33"/><rect class="cls-2" x="632.85" y="411.38" width="11.33" height="11.34"/><rect class="cls-5" x="632.85" y="400.05" width="11.33" height="11.33"/><rect class="cls-6" x="632.85" y="377.39" width="11.33" height="11.33"/><rect class="cls-6" x="632.85" y="366.06" width="11.33" height="11.33"/><rect class="cls-6" x="632.85" y="354.73" width="11.33" height="11.33"/><rect class="cls-5" x="632.85" y="343.4" width="11.33" height="11.33"/><rect class="cls-2" x="632.85" y="332.07" width="11.33" height="11.33"/><rect class="cls-5" x="632.85" y="320.74" width="11.33" height="11.33"/><rect class="cls-5" x="632.85" y="309.41" width="11.33" height="11.33"/><rect class="cls-5" x="632.85" y="241.42" width="11.33" height="11.33"/><rect class="cls-5" x="632.85" y="230.09" width="11.33" height="11.33"/><rect class="cls-5" x="632.85" y="218.76" width="11.33" height="11.33"/><rect class="cls-5" x="621.52" y="966.59" width="11.33" height="11.34"/><rect class="cls-5" x="621.52" y="955.26" width="11.33" height="11.33"/><rect class="cls-5" x="621.52" y="943.93" width="11.33" height="11.33"/><rect class="cls-5" x="621.52" y="932.6" width="11.33" height="11.33"/><rect class="cls-5" x="621.52" y="921.27" width="11.33" height="11.33"/><rect class="cls-5" x="621.52" y="909.94" width="11.33" height="11.33"/><rect class="cls-5" x="621.52" y="751.31" width="11.33" height="11.33"/><rect class="cls-5" x="621.52" y="739.98" width="11.33" height="11.33"/><rect class="cls-5" x="621.52" y="728.65" width="11.33" height="11.33"/><rect class="cls-5" x="621.52" y="717.32" width="11.33" height="11.33"/><rect class="cls-5" x="621.52" y="683.32" width="11.33" height="11.34"/><rect class="cls-5" x="621.52" y="547.35" width="11.33" height="11.34"/><rect class="cls-7" x="621.52" y="536.02" width="11.33" height="11.33"/><rect class="cls-7" x="621.52" y="524.69" width="11.33" height="11.33"/><rect class="cls-5" x="621.52" y="513.36" width="11.33" height="11.33"/><rect class="cls-5" x="621.52" y="479.37" width="11.33" height="11.33"/><rect class="cls-5" x="621.52" y="468.04" width="11.33" height="11.33"/><rect class="cls-5" x="621.52" y="456.71" width="11.33" height="11.33"/><rect class="cls-5" x="621.52" y="434.05" width="11.33" height="11.33"/><rect class="cls-2" x="621.52" y="422.72" width="11.33" height="11.33"/><rect class="cls-2" x="621.52" y="411.38" width="11.33" height="11.34"/><rect class="cls-5" x="621.52" y="400.05" width="11.33" height="11.33"/><rect class="cls-6" x="621.52" y="377.39" width="11.33" height="11.33"/><rect class="cls-6" x="621.52" y="354.73" width="11.33" height="11.33"/><rect class="cls-5" x="621.52" y="343.4" width="11.33" height="11.33"/><rect class="cls-2" x="621.52" y="332.07" width="11.33" height="11.33"/><rect class="cls-2" x="621.52" y="320.74" width="11.33" height="11.33"/><rect class="cls-5" x="621.52" y="309.41" width="11.33" height="11.33"/><rect class="cls-5" x="621.52" y="298.08" width="11.33" height="11.33"/><rect class="cls-5" x="621.52" y="286.75" width="11.33" height="11.33"/><rect class="cls-5" x="621.52" y="275.41" width="11.33" height="11.34"/><rect class="cls-5" x="621.52" y="264.08" width="11.33" height="11.33"/><rect class="cls-5" x="621.52" y="252.75" width="11.33" height="11.33"/><rect class="cls-5" x="621.52" y="241.42" width="11.33" height="11.33"/><rect class="cls-5" x="621.52" y="230.09" width="11.33" height="11.33"/><rect class="cls-5" x="621.52" y="218.76" width="11.33" height="11.33"/><rect class="cls-5" x="610.18" y="955.26" width="11.34" height="11.33"/><rect class="cls-5" x="610.18" y="943.93" width="11.34" height="11.33"/><rect class="cls-5" x="610.18" y="932.6" width="11.34" height="11.33"/><rect class="cls-5" x="610.18" y="921.27" width="11.34" height="11.33"/><rect class="cls-5" x="610.18" y="728.65" width="11.34" height="11.33"/><rect class="cls-5" x="610.18" y="717.32" width="11.34" height="11.33"/><rect class="cls-5" x="610.18" y="683.32" width="11.34" height="11.34"/><rect class="cls-5" x="610.18" y="547.35" width="11.34" height="11.34"/><rect class="cls-7" x="610.18" y="536.02" width="11.34" height="11.33"/><rect class="cls-7" x="610.18" y="524.69" width="11.34" height="11.33"/><rect class="cls-5" x="610.18" y="513.36" width="11.34" height="11.33"/><rect class="cls-5" x="610.18" y="479.37" width="11.34" height="11.33"/><rect class="cls-5" x="610.18" y="468.04" width="11.34" height="11.33"/><rect class="cls-5" x="610.18" y="456.71" width="11.34" height="11.33"/><rect class="cls-7" x="610.18" y="445.38" width="11.34" height="11.33"/><rect class="cls-5" x="610.18" y="434.05" width="11.34" height="11.33"/><rect class="cls-2" x="610.18" y="422.72" width="11.34" height="11.33"/><rect class="cls-2" x="610.18" y="411.38" width="11.34" height="11.34"/><rect class="cls-5" x="610.18" y="400.05" width="11.34" height="11.33"/><rect class="cls-6" x="610.18" y="388.72" width="11.34" height="11.33"/><rect class="cls-6" x="610.18" y="354.73" width="11.34" height="11.33"/><rect class="cls-5" x="610.18" y="343.4" width="11.34" height="11.33"/><rect class="cls-2" x="610.18" y="332.07" width="11.34" height="11.33"/><rect class="cls-2" x="610.18" y="320.74" width="11.34" height="11.33"/><rect class="cls-2" x="610.18" y="309.41" width="11.34" height="11.33"/><rect class="cls-5" x="610.18" y="298.08" width="11.34" height="11.33"/><rect class="cls-5" x="610.18" y="286.75" width="11.34" height="11.33"/><rect class="cls-5" x="610.18" y="275.41" width="11.34" height="11.34"/><rect class="cls-5" x="610.18" y="264.08" width="11.34" height="11.33"/><rect class="cls-5" x="610.18" y="252.75" width="11.34" height="11.33"/><rect class="cls-5" x="610.18" y="241.42" width="11.34" height="11.33"/><rect class="cls-5" x="610.18" y="230.09" width="11.34" height="11.33"/><rect class="cls-5" x="610.18" y="218.76" width="11.34" height="11.33"/><rect class="cls-5" x="598.85" y="943.93" width="11.33" height="11.33"/><rect class="cls-5" x="598.85" y="728.65" width="11.33" height="11.33"/><rect class="cls-5" x="598.85" y="717.32" width="11.33" height="11.33"/><rect class="cls-5" x="598.85" y="683.32" width="11.33" height="11.34"/><rect class="cls-5" x="598.85" y="547.35" width="11.33" height="11.34"/><rect class="cls-7" x="598.85" y="536.02" width="11.33" height="11.33"/><rect class="cls-7" x="598.85" y="524.69" width="11.33" height="11.33"/><rect class="cls-5" x="598.85" y="513.36" width="11.33" height="11.33"/><rect class="cls-5" x="598.85" y="479.37" width="11.33" height="11.33"/><rect class="cls-5" x="598.85" y="468.04" width="11.33" height="11.33"/><rect class="cls-5" x="598.85" y="456.71" width="11.33" height="11.33"/><rect class="cls-7" x="598.85" y="445.38" width="11.33" height="11.33"/><rect class="cls-5" x="598.85" y="434.05" width="11.33" height="11.33"/><rect class="cls-2" x="598.85" y="422.72" width="11.33" height="11.33"/><rect class="cls-2" x="598.85" y="411.38" width="11.33" height="11.34"/><rect class="cls-5" x="598.85" y="400.05" width="11.33" height="11.33"/><rect class="cls-6" x="598.85" y="388.72" width="11.33" height="11.33"/><rect class="cls-6" x="598.85" y="377.39" width="11.33" height="11.33"/><rect class="cls-6" x="598.85" y="366.06" width="11.33" height="11.33"/><rect class="cls-6" x="598.85" y="354.73" width="11.33" height="11.33"/><rect class="cls-5" x="598.85" y="343.4" width="11.33" height="11.33"/><rect class="cls-2" x="598.85" y="332.07" width="11.33" height="11.33"/><rect class="cls-2" x="598.85" y="320.74" width="11.33" height="11.33"/><rect class="cls-2" x="598.85" y="309.41" width="11.33" height="11.33"/><rect class="cls-5" x="598.85" y="298.08" width="11.33" height="11.33"/><rect class="cls-5" x="598.85" y="286.75" width="11.33" height="11.33"/><rect class="cls-5" x="598.85" y="275.41" width="11.33" height="11.34"/><rect class="cls-5" x="598.85" y="230.09" width="11.33" height="11.33"/><rect class="cls-5" x="587.52" y="955.26" width="11.33" height="11.33"/><rect class="cls-5" x="587.52" y="943.93" width="11.33" height="11.33"/><rect class="cls-5" x="587.52" y="932.6" width="11.33" height="11.33"/><rect class="cls-5" x="587.52" y="921.27" width="11.33" height="11.33"/><rect class="cls-5" x="587.52" y="728.65" width="11.33" height="11.33"/><rect class="cls-5" x="587.52" y="717.32" width="11.33" height="11.33"/><rect class="cls-5" x="587.52" y="683.32" width="11.33" height="11.34"/><rect class="cls-5" x="587.52" y="547.35" width="11.33" height="11.34"/><rect class="cls-7" x="587.52" y="536.02" width="11.33" height="11.33"/><rect class="cls-7" x="587.52" y="524.69" width="11.33" height="11.33"/><rect class="cls-5" x="587.52" y="513.36" width="11.33" height="11.33"/><rect class="cls-5" x="587.52" y="479.37" width="11.33" height="11.33"/><rect class="cls-5" x="587.52" y="468.04" width="11.33" height="11.33"/><rect class="cls-5" x="587.52" y="456.71" width="11.33" height="11.33"/><rect class="cls-7" x="587.52" y="445.38" width="11.33" height="11.33"/><rect class="cls-5" x="587.52" y="434.05" width="11.33" height="11.33"/><rect class="cls-2" x="587.52" y="422.72" width="11.33" height="11.33"/><rect class="cls-2" x="587.52" y="411.38" width="11.33" height="11.34"/><rect class="cls-5" x="587.52" y="400.05" width="11.33" height="11.33"/><rect class="cls-6" x="587.52" y="388.72" width="11.33" height="11.33"/><rect class="cls-6" x="587.52" y="377.39" width="11.33" height="11.33"/><rect class="cls-6" x="587.52" y="366.06" width="11.33" height="11.33"/><rect class="cls-6" x="587.52" y="354.73" width="11.33" height="11.33"/><rect class="cls-5" x="587.52" y="343.4" width="11.33" height="11.33"/><rect class="cls-2" x="587.52" y="332.07" width="11.33" height="11.33"/><rect class="cls-2" x="587.52" y="320.74" width="11.33" height="11.33"/><rect class="cls-2" x="587.52" y="309.41" width="11.33" height="11.33"/><rect class="cls-5" x="587.52" y="298.08" width="11.33" height="11.33"/><rect class="cls-5" x="587.52" y="286.75" width="11.33" height="11.33"/><rect class="cls-5" x="587.52" y="275.41" width="11.33" height="11.34"/><rect class="cls-5" x="576.19" y="966.59" width="11.33" height="11.34"/><rect class="cls-5" x="576.19" y="955.26" width="11.33" height="11.33"/><rect class="cls-5" x="576.19" y="921.27" width="11.33" height="11.33"/><rect class="cls-5" x="576.19" y="909.94" width="11.33" height="11.33"/><rect class="cls-5" x="576.19" y="751.31" width="11.33" height="11.33"/><rect class="cls-5" x="576.19" y="739.98" width="11.33" height="11.33"/><rect class="cls-5" x="576.19" y="728.65" width="11.33" height="11.33"/><rect class="cls-5" x="576.19" y="717.32" width="11.33" height="11.33"/><rect class="cls-5" x="576.19" y="683.32" width="11.33" height="11.34"/><rect class="cls-5" x="576.19" y="547.35" width="11.33" height="11.34"/><rect class="cls-7" x="576.19" y="536.02" width="11.33" height="11.33"/><rect class="cls-7" x="576.19" y="524.69" width="11.33" height="11.33"/><rect class="cls-5" x="576.19" y="513.36" width="11.33" height="11.33"/><rect class="cls-5" x="576.19" y="479.37" width="11.33" height="11.33"/><rect class="cls-5" x="576.19" y="468.04" width="11.33" height="11.33"/><rect class="cls-5" x="576.19" y="456.71" width="11.33" height="11.33"/><rect class="cls-5" x="576.19" y="434.05" width="11.33" height="11.33"/><rect class="cls-2" x="576.19" y="422.72" width="11.33" height="11.33"/><rect class="cls-2" x="576.19" y="411.38" width="11.33" height="11.34"/><rect class="cls-5" x="576.19" y="400.05" width="11.33" height="11.33"/><rect class="cls-6" x="576.19" y="388.72" width="11.33" height="11.33"/><rect class="cls-6" x="576.19" y="377.39" width="11.33" height="11.33"/><rect class="cls-6" x="576.19" y="366.06" width="11.33" height="11.33"/><rect class="cls-6" x="576.19" y="354.73" width="11.33" height="11.33"/><rect class="cls-5" x="576.19" y="343.4" width="11.33" height="11.33"/><rect class="cls-2" x="576.19" y="332.07" width="11.33" height="11.33"/><rect class="cls-2" x="576.19" y="320.74" width="11.33" height="11.33"/><rect class="cls-5" x="576.19" y="309.41" width="11.33" height="11.33"/><rect class="cls-5" x="576.19" y="298.08" width="11.33" height="11.33"/><rect class="cls-5" x="576.19" y="286.75" width="11.33" height="11.33"/><rect class="cls-5" x="576.19" y="275.41" width="11.33" height="11.34"/><rect class="cls-5" x="576.19" y="264.08" width="11.33" height="11.33"/><rect class="cls-5" x="576.19" y="252.75" width="11.33" height="11.33"/><rect class="cls-5" x="564.86" y="977.93" width="11.33" height="11.33"/><rect class="cls-5" x="564.86" y="966.59" width="11.33" height="11.34"/><rect class="cls-5" x="564.86" y="909.94" width="11.33" height="11.33"/><rect class="cls-5" x="564.86" y="830.62" width="11.33" height="11.34"/><rect class="cls-5" x="564.86" y="819.29" width="11.33" height="11.33"/><rect class="cls-5" x="564.86" y="807.96" width="11.33" height="11.33"/><rect class="cls-5" x="564.86" y="796.63" width="11.33" height="11.33"/><rect class="cls-5" x="564.86" y="785.3" width="11.33" height="11.33"/><rect class="cls-5" x="564.86" y="773.97" width="11.33" height="11.33"/><rect class="cls-5" x="564.86" y="762.64" width="11.33" height="11.33"/><rect class="cls-5" x="564.86" y="751.31" width="11.33" height="11.33"/><rect class="cls-5" x="564.86" y="728.65" width="11.33" height="11.33"/><rect class="cls-5" x="564.86" y="717.32" width="11.33" height="11.33"/><rect class="cls-5" x="564.86" y="683.32" width="11.33" height="11.34"/><rect class="cls-5" x="564.86" y="671.99" width="11.33" height="11.33"/><rect class="cls-5" x="564.86" y="547.35" width="11.33" height="11.34"/><rect class="cls-7" x="564.86" y="536.02" width="11.33" height="11.33"/><rect class="cls-7" x="564.86" y="524.69" width="11.33" height="11.33"/><rect class="cls-5" x="564.86" y="513.36" width="11.33" height="11.33"/><rect class="cls-5" x="564.86" y="479.37" width="11.33" height="11.33"/><rect class="cls-5" x="564.86" y="468.04" width="11.33" height="11.33"/><rect class="cls-5" x="564.86" y="456.71" width="11.33" height="11.33"/><rect class="cls-5" x="564.86" y="434.05" width="11.33" height="11.33"/><rect class="cls-2" x="564.86" y="422.72" width="11.33" height="11.33"/><rect class="cls-2" x="564.86" y="411.38" width="11.33" height="11.34"/><rect class="cls-5" x="564.86" y="400.05" width="11.33" height="11.33"/><rect class="cls-6" x="564.86" y="388.72" width="11.33" height="11.33"/><rect class="cls-6" x="564.86" y="377.39" width="11.33" height="11.33"/><rect class="cls-6" x="564.86" y="366.06" width="11.33" height="11.33"/><rect class="cls-6" x="564.86" y="354.73" width="11.33" height="11.33"/><rect class="cls-5" x="564.86" y="343.4" width="11.33" height="11.33"/><rect class="cls-2" x="564.86" y="332.07" width="11.33" height="11.33"/><rect class="cls-5" x="564.86" y="320.74" width="11.33" height="11.33"/><rect class="cls-5" x="564.86" y="309.41" width="11.33" height="11.33"/><rect class="cls-5" x="564.86" y="275.41" width="11.33" height="11.34"/><rect class="cls-5" x="564.86" y="264.08" width="11.33" height="11.33"/><rect class="cls-5" x="564.86" y="252.75" width="11.33" height="11.33"/><rect class="cls-5" x="564.86" y="241.42" width="11.33" height="11.33"/><rect class="cls-5" x="553.53" y="977.93" width="11.33" height="11.33"/><rect class="cls-5" x="553.53" y="966.59" width="11.33" height="11.34"/><rect class="cls-5" x="553.53" y="909.94" width="11.33" height="11.33"/><rect class="cls-5" x="553.53" y="898.61" width="11.33" height="11.33"/><rect class="cls-5" x="553.53" y="887.28" width="11.33" height="11.33"/><rect class="cls-5" x="553.53" y="875.95" width="11.33" height="11.33"/><rect class="cls-5" x="553.53" y="864.62" width="11.33" height="11.33"/><rect class="cls-5" x="553.53" y="853.29" width="11.33" height="11.33"/><rect class="cls-5" x="553.53" y="841.96" width="11.33" height="11.33"/><rect class="cls-5" x="553.53" y="830.62" width="11.33" height="11.34"/><rect class="cls-5" x="553.53" y="807.96" width="11.33" height="11.33"/><rect class="cls-5" x="553.53" y="773.97" width="11.33" height="11.33"/><rect class="cls-5" x="553.53" y="728.65" width="11.33" height="11.33"/><rect class="cls-5" x="553.53" y="717.32" width="11.33" height="11.33"/><rect class="cls-5" x="553.53" y="683.32" width="11.33" height="11.34"/><rect class="cls-5" x="553.53" y="671.99" width="11.33" height="11.33"/><rect class="cls-5" x="553.53" y="660.66" width="11.33" height="11.33"/><rect class="cls-5" x="553.53" y="649.33" width="11.33" height="11.33"/><rect class="cls-5" x="553.53" y="638" width="11.33" height="11.33"/><rect class="cls-5" x="553.53" y="626.67" width="11.33" height="11.33"/><rect class="cls-5" x="553.53" y="615.34" width="11.33" height="11.33"/><rect class="cls-5" x="553.53" y="604.01" width="11.33" height="11.33"/><rect class="cls-5" x="553.53" y="558.69" width="11.33" height="11.33"/><rect class="cls-5" x="553.53" y="547.35" width="11.33" height="11.34"/><rect class="cls-7" x="553.53" y="536.02" width="11.33" height="11.33"/><rect class="cls-7" x="553.53" y="524.69" width="11.33" height="11.33"/><rect class="cls-7" x="553.53" y="513.36" width="11.33" height="11.33"/><rect class="cls-7" x="553.53" y="502.03" width="11.33" height="11.33"/><rect class="cls-7" x="553.53" y="490.7" width="11.33" height="11.33"/><rect class="cls-5" x="553.53" y="479.37" width="11.33" height="11.33"/><rect class="cls-5" x="553.53" y="468.04" width="11.33" height="11.33"/><rect class="cls-5" x="553.53" y="456.71" width="11.33" height="11.33"/><rect class="cls-5" x="553.53" y="445.38" width="11.33" height="11.33"/><rect class="cls-5" x="553.53" y="434.05" width="11.33" height="11.33"/><rect class="cls-5" x="553.53" y="422.72" width="11.33" height="11.33"/><rect class="cls-5" x="553.53" y="411.38" width="11.33" height="11.34"/><rect class="cls-5" x="553.53" y="400.05" width="11.33" height="11.33"/><rect class="cls-5" x="553.53" y="388.72" width="11.33" height="11.33"/><rect class="cls-5" x="553.53" y="354.73" width="11.33" height="11.33"/><rect class="cls-5" x="553.53" y="343.4" width="11.33" height="11.33"/><rect class="cls-5" x="553.53" y="332.07" width="11.33" height="11.33"/><rect class="cls-5" x="553.53" y="320.74" width="11.33" height="11.33"/><rect class="cls-5" x="553.53" y="264.08" width="11.33" height="11.33"/><rect class="cls-5" x="553.53" y="252.75" width="11.33" height="11.33"/><rect class="cls-5" x="553.53" y="241.42" width="11.33" height="11.33"/><rect class="cls-5" x="542.2" y="977.93" width="11.33" height="11.33"/><rect class="cls-5" x="542.2" y="966.59" width="11.33" height="11.34"/><rect class="cls-5" x="542.2" y="909.94" width="11.33" height="11.33"/><rect class="cls-5" x="542.2" y="875.95" width="11.33" height="11.33"/><rect class="cls-5" x="542.2" y="841.96" width="11.33" height="11.33"/><rect class="cls-5" x="542.2" y="807.96" width="11.33" height="11.33"/><rect class="cls-5" x="542.2" y="773.97" width="11.33" height="11.33"/><rect class="cls-5" x="542.2" y="728.65" width="11.33" height="11.33"/><rect class="cls-5" x="542.2" y="717.32" width="11.33" height="11.33"/><rect class="cls-5" x="542.2" y="705.99" width="11.33" height="11.33"/><rect class="cls-5" x="542.2" y="604.01" width="11.33" height="11.33"/><rect class="cls-5" x="542.2" y="592.68" width="11.33" height="11.33"/><rect class="cls-5" x="542.2" y="581.35" width="11.33" height="11.33"/><rect class="cls-5" x="542.2" y="570.02" width="11.33" height="11.33"/><rect class="cls-5" x="542.2" y="558.69" width="11.33" height="11.33"/><rect class="cls-7" x="542.2" y="524.69" width="11.33" height="11.33"/><rect class="cls-7" x="542.2" y="513.36" width="11.33" height="11.33"/><rect class="cls-7" x="542.2" y="502.03" width="11.33" height="11.33"/><rect class="cls-5" x="542.2" y="490.7" width="11.33" height="11.33"/><rect class="cls-5" x="542.2" y="479.37" width="11.33" height="11.33"/><rect class="cls-5" x="542.2" y="400.05" width="11.33" height="11.33"/><rect class="cls-5" x="542.2" y="388.72" width="11.33" height="11.33"/><rect class="cls-5" x="542.2" y="377.39" width="11.33" height="11.33"/><rect class="cls-5" x="542.2" y="366.06" width="11.33" height="11.33"/><rect class="cls-5" x="542.2" y="354.73" width="11.33" height="11.33"/><rect class="cls-5" x="542.2" y="264.08" width="11.33" height="11.33"/><rect class="cls-5" x="542.2" y="252.75" width="11.33" height="11.33"/><rect class="cls-5" x="530.87" y="977.93" width="11.33" height="11.33"/><rect class="cls-5" x="530.87" y="966.59" width="11.33" height="11.34"/><rect class="cls-5" x="530.87" y="909.94" width="11.33" height="11.33"/><rect class="cls-5" x="530.87" y="898.61" width="11.33" height="11.33"/><rect class="cls-5" x="530.87" y="875.95" width="11.33" height="11.33"/><rect class="cls-5" x="530.87" y="864.62" width="11.33" height="11.33"/><rect class="cls-5" x="530.87" y="853.29" width="11.33" height="11.33"/><rect class="cls-5" x="530.87" y="841.96" width="11.33" height="11.33"/><rect class="cls-5" x="530.87" y="830.62" width="11.33" height="11.34"/><rect class="cls-5" x="530.87" y="819.29" width="11.33" height="11.33"/><rect class="cls-5" x="530.87" y="807.96" width="11.33" height="11.33"/><rect class="cls-5" x="530.87" y="796.63" width="11.33" height="11.33"/><rect class="cls-5" x="530.87" y="785.3" width="11.33" height="11.33"/><rect class="cls-5" x="530.87" y="773.97" width="11.33" height="11.33"/><rect class="cls-5" x="530.87" y="762.64" width="11.33" height="11.33"/><rect class="cls-5" x="530.87" y="751.31" width="11.33" height="11.33"/><rect class="cls-5" x="530.87" y="739.98" width="11.33" height="11.33"/><rect class="cls-5" x="530.87" y="728.65" width="11.33" height="11.33"/><rect class="cls-5" x="530.87" y="717.32" width="11.33" height="11.33"/><rect class="cls-5" x="530.87" y="705.99" width="11.33" height="11.33"/><rect class="cls-5" x="530.87" y="502.03" width="11.33" height="11.33"/><rect class="cls-5" x="530.87" y="490.7" width="11.33" height="11.33"/><rect class="cls-5" x="530.87" y="479.37" width="11.33" height="11.33"/><rect class="cls-5" x="530.87" y="388.72" width="11.33" height="11.33"/><rect class="cls-5" x="530.87" y="377.39" width="11.33" height="11.33"/><rect class="cls-5" x="530.87" y="366.06" width="11.33" height="11.33"/><rect class="cls-5" x="519.54" y="977.93" width="11.33" height="11.33"/><rect class="cls-5" x="519.54" y="966.59" width="11.33" height="11.34"/><rect class="cls-5" x="519.54" y="909.94" width="11.33" height="11.33"/><rect class="cls-5" x="519.54" y="887.28" width="11.33" height="11.33"/><rect class="cls-5" x="519.54" y="875.95" width="11.33" height="11.33"/><rect class="cls-5" x="519.54" y="853.29" width="11.33" height="11.33"/><rect class="cls-5" x="519.54" y="830.62" width="11.33" height="11.34"/><rect class="cls-5" x="519.54" y="807.96" width="11.33" height="11.33"/><rect class="cls-5" x="519.54" y="785.3" width="11.33" height="11.33"/><rect class="cls-5" x="519.54" y="762.64" width="11.33" height="11.33"/><rect class="cls-5" x="519.54" y="751.31" width="11.33" height="11.33"/><rect class="cls-5" x="519.54" y="739.98" width="11.33" height="11.33"/><rect class="cls-5" x="519.54" y="728.65" width="11.33" height="11.33"/><rect class="cls-5" x="519.54" y="717.32" width="11.33" height="11.33"/><rect class="cls-5" x="519.54" y="705.99" width="11.33" height="11.33"/><rect class="cls-5" x="519.54" y="694.66" width="11.33" height="11.33"/><rect class="cls-5" x="519.54" y="683.32" width="11.33" height="11.34"/><rect class="cls-5" x="519.54" y="671.99" width="11.33" height="11.33"/><rect class="cls-5" x="519.54" y="660.66" width="11.33" height="11.33"/><rect class="cls-5" x="519.54" y="649.33" width="11.33" height="11.33"/><rect class="cls-5" x="519.54" y="638" width="11.33" height="11.33"/><rect class="cls-5" x="519.54" y="626.67" width="11.33" height="11.33"/><rect class="cls-5" x="519.54" y="615.34" width="11.33" height="11.33"/><rect class="cls-5" x="519.54" y="604.01" width="11.33" height="11.33"/><rect class="cls-5" x="519.54" y="592.68" width="11.33" height="11.33"/><rect class="cls-5" x="519.54" y="581.35" width="11.33" height="11.33"/><rect class="cls-5" x="519.54" y="570.02" width="11.33" height="11.33"/><rect class="cls-5" x="519.54" y="558.69" width="11.33" height="11.33"/><rect class="cls-5" x="519.54" y="547.35" width="11.33" height="11.34"/><rect class="cls-5" x="519.54" y="536.02" width="11.33" height="11.33"/><rect class="cls-5" x="519.54" y="524.69" width="11.33" height="11.33"/><rect class="cls-5" x="519.54" y="513.36" width="11.33" height="11.33"/><rect class="cls-5" x="519.54" y="502.03" width="11.33" height="11.33"/><rect class="cls-5" x="519.54" y="490.7" width="11.33" height="11.33"/><rect class="cls-5" x="508.21" y="977.93" width="11.33" height="11.33"/><rect class="cls-5" x="508.21" y="966.59" width="11.33" height="11.34"/><rect class="cls-5" x="508.21" y="909.94" width="11.33" height="11.33"/><rect class="cls-5" x="508.21" y="581.35" width="11.33" height="11.33"/><rect class="cls-5" x="508.21" y="570.02" width="11.33" height="11.33"/><rect class="cls-5" x="508.21" y="558.69" width="11.33" height="11.33"/><rect class="cls-5" x="508.21" y="547.35" width="11.33" height="11.34"/><rect class="cls-5" x="508.21" y="536.02" width="11.33" height="11.33"/><rect class="cls-5" x="508.21" y="524.69" width="11.33" height="11.33"/><rect class="cls-5" x="508.21" y="513.36" width="11.33" height="11.33"/><rect class="cls-5" x="496.88" y="966.59" width="11.33" height="11.34"/><rect class="cls-5" x="496.88" y="921.27" width="11.33" height="11.33"/><rect class="cls-5" x="496.88" y="909.94" width="11.33" height="11.33"/><rect class="cls-5" x="496.88" y="581.35" width="11.33" height="11.33"/><rect class="cls-5" x="496.88" y="570.02" width="11.33" height="11.33"/><rect class="cls-5" x="496.88" y="558.69" width="11.33" height="11.33"/><rect class="cls-5" x="496.88" y="547.35" width="11.33" height="11.34"/><rect class="cls-5" x="496.88" y="536.02" width="11.33" height="11.33"/><rect class="cls-5" x="496.88" y="524.69" width="11.33" height="11.33"/><rect class="cls-5" x="485.55" y="966.59" width="11.33" height="11.34"/><rect class="cls-5" x="485.55" y="955.26" width="11.33" height="11.33"/><rect class="cls-5" x="485.55" y="943.93" width="11.33" height="11.33"/><rect class="cls-5" x="485.55" y="932.6" width="11.33" height="11.33"/><rect class="cls-5" x="485.55" y="921.27" width="11.33" height="11.33"/><rect class="cls-5" x="485.55" y="570.02" width="11.33" height="11.33"/><rect class="cls-2" x="485.55" y="547.35" width="11.33" height="11.34"/><rect class="cls-5" x="485.55" y="524.69" width="11.33" height="11.33"/><rect class="cls-5" x="474.21" y="943.93" width="11.34" height="11.33"/><rect class="cls-5" x="474.21" y="932.6" width="11.34" height="11.33"/><rect class="cls-5" x="474.21" y="570.02" width="11.34" height="11.33"/><rect class="cls-5" x="474.21" y="558.69" width="11.34" height="11.33"/><rect class="cls-2" x="474.21" y="547.35" width="11.34" height="11.34"/><rect class="cls-5" x="474.21" y="536.02" width="11.34" height="11.33"/><rect class="cls-5" x="474.21" y="524.69" width="11.34" height="11.33"/><rect class="cls-5" x="474.21" y="513.36" width="11.34" height="11.33"/><rect class="cls-5" x="462.88" y="943.93" width="11.33" height="11.33"/><rect class="cls-5" x="462.88" y="932.6" width="11.33" height="11.33"/><rect class="cls-5" x="462.88" y="558.69" width="11.33" height="11.33"/><rect class="cls-5" x="462.88" y="547.35" width="11.33" height="11.34"/><rect class="cls-2" x="462.88" y="536.02" width="11.33" height="11.33"/><rect class="cls-5" x="462.88" y="513.36" width="11.33" height="11.33"/><rect class="cls-5" x="462.88" y="502.03" width="11.33" height="11.33"/><rect class="cls-5" x="451.55" y="943.93" width="11.33" height="11.33"/><rect class="cls-5" x="451.55" y="932.6" width="11.33" height="11.33"/><rect class="cls-5" x="451.55" y="558.69" width="11.33" height="11.33"/><rect class="cls-5" x="451.55" y="547.35" width="11.33" height="11.34"/><rect class="cls-2" x="451.55" y="536.02" width="11.33" height="11.33"/><rect class="cls-2" x="451.55" y="524.69" width="11.33" height="11.33"/><rect class="cls-5" x="451.55" y="513.36" width="11.33" height="11.33"/><rect class="cls-5" x="451.55" y="502.03" width="11.33" height="11.33"/><rect class="cls-5" x="451.55" y="490.7" width="11.33" height="11.33"/><rect class="cls-5" x="440.22" y="943.93" width="11.33" height="11.33"/><rect class="cls-5" x="440.22" y="932.6" width="11.33" height="11.33"/><rect class="cls-5" x="440.22" y="547.35" width="11.33" height="11.34"/><rect class="cls-5" x="440.22" y="536.02" width="11.33" height="11.33"/><rect class="cls-5" x="440.22" y="524.69" width="11.33" height="11.33"/><rect class="cls-2" x="440.22" y="513.36" width="11.33" height="11.33"/><rect class="cls-5" x="440.22" y="490.7" width="11.33" height="11.33"/><rect class="cls-5" x="428.89" y="943.93" width="11.33" height="11.33"/><rect class="cls-5" x="428.89" y="932.6" width="11.33" height="11.33"/><rect class="cls-5" x="428.89" y="536.02" width="11.33" height="11.33"/><rect class="cls-5" x="428.89" y="524.69" width="11.33" height="11.33"/><rect class="cls-5" x="428.89" y="513.36" width="11.33" height="11.33"/><rect class="cls-2" x="428.89" y="502.03" width="11.33" height="11.33"/><rect class="cls-5" x="428.89" y="490.7" width="11.33" height="11.33"/><rect class="cls-5" x="428.89" y="479.37" width="11.33" height="11.33"/><rect class="cls-5" x="417.56" y="943.93" width="11.33" height="11.33"/><rect class="cls-5" x="417.56" y="932.6" width="11.33" height="11.33"/><rect class="cls-5" x="417.56" y="513.36" width="11.33" height="11.33"/><rect class="cls-5" x="417.56" y="502.03" width="11.33" height="11.33"/><rect class="cls-5" x="417.56" y="490.7" width="11.33" height="11.33"/><rect class="cls-5" x="417.56" y="479.37" width="11.33" height="11.33"/><rect class="cls-5" x="417.56" y="468.04" width="11.33" height="11.33"/><rect class="cls-5" x="406.23" y="943.93" width="11.33" height="11.33"/><rect class="cls-5" x="406.23" y="932.6" width="11.33" height="11.33"/><rect class="cls-5" x="406.23" y="502.03" width="11.33" height="11.33"/><rect class="cls-5" x="406.23" y="490.7" width="11.33" height="11.33"/><rect class="cls-2" x="406.23" y="479.37" width="11.33" height="11.33"/><rect class="cls-5" x="406.23" y="468.04" width="11.33" height="11.33"/><rect class="cls-5" x="406.23" y="456.71" width="11.33" height="11.33"/><rect class="cls-5" x="406.23" y="445.38" width="11.33" height="11.33"/><rect class="cls-5" x="406.23" y="434.05" width="11.33" height="11.33"/><rect class="cls-5" x="394.9" y="943.93" width="11.33" height="11.33"/><rect class="cls-5" x="394.9" y="932.6" width="11.33" height="11.33"/><rect class="cls-5" x="394.9" y="490.7" width="11.33" height="11.33"/><rect class="cls-5" x="394.9" y="479.37" width="11.33" height="11.33"/><rect class="cls-5" x="394.9" y="468.04" width="11.33" height="11.33"/><rect class="cls-2" x="394.9" y="456.71" width="11.33" height="11.33"/><rect class="cls-5" x="394.9" y="434.05" width="11.33" height="11.33"/><rect class="cls-5" x="394.9" y="422.72" width="11.33" height="11.33"/><rect class="cls-5" x="394.9" y="411.38" width="11.33" height="11.34"/><rect class="cls-5" x="394.9" y="400.05" width="11.33" height="11.33"/><rect class="cls-5" x="394.9" y="388.72" width="11.33" height="11.33"/><rect class="cls-5" x="383.57" y="479.37" width="11.33" height="11.33"/><rect class="cls-5" x="383.57" y="468.04" width="11.33" height="11.33"/><rect class="cls-2" x="383.57" y="445.38" width="11.33" height="11.33"/><rect class="cls-5" x="383.57" y="434.05" width="11.33" height="11.33"/><rect class="cls-5" x="383.57" y="411.38" width="11.33" height="11.34"/><rect class="cls-5" x="383.57" y="400.05" width="11.33" height="11.33"/><rect class="cls-5" x="383.57" y="388.72" width="11.33" height="11.33"/><rect class="cls-5" x="383.57" y="377.39" width="11.33" height="11.33"/><rect class="cls-5" x="383.57" y="366.06" width="11.33" height="11.33"/><rect class="cls-5" x="383.57" y="354.73" width="11.33" height="11.33"/><rect class="cls-5" x="372.24" y="468.04" width="11.33" height="11.33"/><rect class="cls-5" x="372.24" y="456.71" width="11.33" height="11.33"/><rect class="cls-5" x="372.24" y="434.05" width="11.33" height="11.33"/><rect class="cls-2" x="372.24" y="422.72" width="11.33" height="11.33"/><rect class="cls-5" x="372.24" y="411.38" width="11.33" height="11.34"/><rect class="cls-2" x="372.24" y="400.05" width="11.33" height="11.33"/><rect class="cls-2" x="372.24" y="388.72" width="11.33" height="11.33"/><rect class="cls-2" x="372.24" y="377.39" width="11.33" height="11.33"/><rect class="cls-5" x="372.24" y="343.4" width="11.33" height="11.33"/><rect class="cls-5" x="360.91" y="456.71" width="11.33" height="11.33"/><rect class="cls-5" x="360.91" y="445.38" width="11.33" height="11.33"/><rect class="cls-5" x="360.91" y="434.05" width="11.33" height="11.33"/><rect class="cls-5" x="360.91" y="411.38" width="11.33" height="11.34"/><rect class="cls-2" x="360.91" y="400.05" width="11.33" height="11.33"/><rect class="cls-2" x="360.91" y="388.72" width="11.33" height="11.33"/><rect class="cls-2" x="360.91" y="377.39" width="11.33" height="11.33"/><rect class="cls-5" x="360.91" y="343.4" width="11.33" height="11.33"/><rect class="cls-5" x="360.91" y="332.07" width="11.33" height="11.33"/><rect class="cls-5" x="349.58" y="434.05" width="11.33" height="11.33"/><rect class="cls-5" x="349.58" y="422.72" width="11.33" height="11.33"/><rect class="cls-5" x="349.58" y="411.38" width="11.33" height="11.34"/><rect class="cls-2" x="349.58" y="388.72" width="11.33" height="11.33"/><rect class="cls-5" x="349.58" y="343.4" width="11.33" height="11.33"/><rect class="cls-5" x="349.58" y="332.07" width="11.33" height="11.33"/><rect class="cls-5" x="338.24" y="411.38" width="11.34" height="11.34"/><rect class="cls-5" x="338.24" y="400.05" width="11.34" height="11.33"/><rect class="cls-5" x="338.24" y="377.39" width="11.34" height="11.33"/><rect class="cls-5" x="338.24" y="343.4" width="11.34" height="11.33"/><rect class="cls-5" x="338.24" y="332.07" width="11.34" height="11.33"/><rect class="cls-5" x="326.91" y="388.72" width="11.33" height="11.33"/><rect class="cls-5" x="326.91" y="377.39" width="11.33" height="11.33"/><rect class="cls-5" x="326.91" y="366.06" width="11.33" height="11.33"/><rect class="cls-5" x="326.91" y="354.73" width="11.33" height="11.33"/></svg>