<?xml version="1.0" encoding="UTF-8"?>
<svg width="93px" height="107px" viewBox="0 0 93 107" version="1.1" xmlns="http://www.w3.org/2000/svg" xmlns:xlink="http://www.w3.org/1999/xlink">
    <!-- Generator: Sketch 51.3 (57544) - http://www.bohemiancoding.com/sketch -->
    <title>r2_d2</title>
    <desc>Created with Sketch.</desc>
    <defs></defs>
    <g id="Page-1" stroke="none" stroke-width="1" fill="none" fill-rule="evenodd">
        <g id="r2_d2" fill-rule="nonzero">
            <path d="M92.0563,26.6934 L92.0563,79.834 L92.0456,79.8438 L92.0261,79.8536 L91.6159,80.0938 L91.2458,80.3047 L90.6257,80.6543 L86.4763,83.044 L86.4655,83.0547 L86.3356,83.1338 L86.2761,83.1641 L85.7263,83.4844 L84.9255,83.9336 L84.8259,83.9942 L84.3464,84.2735 L83.2155,84.9239 L82.3659,85.4141 L81.6257,85.8438 L81.3864,85.9747 L81.2556,86.0235 L81.1462,86.0938 L80.1462,86.6641 L80.1159,86.6836 L78.1159,87.834 L77.6062,88.1241 L77.4655,88.2042 L77.4362,88.2247 L77.2956,88.3047 L77.2858,88.3145 L76.2458,88.9043 L76.2058,88.9336 L76.1364,88.9747 L74.9763,89.6446 L74.5261,89.9043 L74.5163,89.9141 L74.5056,89.9239 L74.4958,89.9239 L74.0759,90.1641 L72.9558,90.8145 L72.0856,91.334 L70.906,92.004 L70.8259,92.0547 L70.7058,92.1241 L70.6657,92.1543 L70.6257,92.1739 L70.6062,92.1836 L70.5056,92.2442 L70.2155,92.4141 L70.1862,92.4239 L70.0261,92.5137 L70.0261,92.5235 L69.6257,92.754 L69.3562,92.9141 L69.2458,92.9747 L69.0661,93.0645 L69.0456,93.084 L69.0056,93.1036 L68.3161,93.4942 L68.2556,93.5342 L68.0163,93.6739 L67.9958,93.6836 L67.7058,93.8536 L67.5563,93.9336 L67.3356,94.0645 L67.0964,94.2042 L67.0856,94.2042 L66.6657,94.4542 L66.3757,94.6241 L66.3464,94.6446 L66.0456,94.8145 L64.6862,95.6036 L64.1862,95.8946 L63.9362,96.0342 L63.236,96.4336 L63.2058,96.4542 L63.196,96.4542 L62.8864,96.6338 L62.8356,96.6641 L62.5964,96.8145 L61.7556,97.294 L61.1257,97.6543 L61.0661,97.6836 L60.5661,97.9747 C60.5563,97.9844 60.5563,97.9844 60.5563,97.9747 L60.0261,98.2842 L59.736,98.4542 L58.9763,98.8946 L58.9255,98.9239 L58.8757,98.9542 L58.8464,98.9639 C58.8464,98.9747 58.8356,98.9747 58.8356,98.9747 L58.8161,98.9942 L58.5661,99.1338 L57.5661,99.7139 L57.3962,99.8145 L57.3562,99.834 L56.9763,100.0547 L55.5563,100.8741 L55.196,101.084 L55.1062,101.1338 L54.8659,101.2735 L54.0661,101.7344 L53.8063,101.8838 L53.5261,102.044 L53.5163,102.0547 L53.3161,102.1739 L53.0856,102.3047 L52.736,102.504 L51.906,102.9844 L51.8962,102.9942 L51.8063,103.044 L50.486,103.8047 L50.4655,103.8145 L49.6755,104.2735 L49.0661,104.6241 L49.0563,104.6241 L47.6462,105.4336 L47.6257,105.4542 L47.3757,105.5938 L46.8161,105.9141 L46.8063,105.9141 L46.6755,105.9942 L46.486,106.1036 L46.2155,106.2637 L46.2058,106.2637 L46.0056,106.3838 L45.946,106.3536 L44.8063,105.6934 L44.7858,105.6836 L44.5856,105.5645 L43.736,105.0743 L43.7058,105.0645 L43.3757,104.8741 L43.3659,104.8633 L41.9655,104.0547 L41.9558,104.044 L41.9362,104.0342 L40.5661,103.2442 L40.5358,103.2247 L40.5261,103.2247 L39.696,102.7442 L39.6364,102.7042 L39.2956,102.5137 L39.1159,102.4043 L39.0964,102.3946 L38.4362,102.0137 L38.3962,101.9844 L38.3063,101.9336 L38.2058,101.8741 L38.0759,101.8047 L37.8063,101.6446 L37.6862,101.5743 L37.6755,101.5743 L36.9558,101.1543 L36.7155,101.0235 L36.3259,100.794 L36.2761,100.7637 L36.2458,100.7442 L34.8464,99.9336 L34.8356,99.9336 L34.7263,99.8633 L34.3562,99.6446 L34.3464,99.6446 L34.0759,99.4844 L33.4558,99.1241 L33.4255,99.1133 L33.3659,99.0743 L33.3259,99.0547 L32.0358,98.3047 L31.6462,98.0743 L30.9655,97.6836 L30.3864,97.3536 L30.2761,97.294 L29.2761,96.7139 L27.5563,95.7139 C27.5456,95.7042 27.5358,95.6934 27.5261,95.6934 L26.2058,94.9336 L22.2858,92.6739 L22.1257,92.584 L21.5563,92.254 L21.0856,91.9844 L20.6462,91.7247 L20.3464,91.5547 L19.9655,91.334 L18.9763,90.754 L18.9362,90.7344 L16.196,89.1446 L16.0964,89.084 L15.9157,88.9844 L15.2458,88.6036 L14.4255,88.1338 L14.3356,88.084 L13.8356,87.794 L13.8259,87.7842 L13.7458,87.7344 L13.736,87.7344 L13.6159,87.6641 L13.6062,87.6641 L13.2956,87.4844 L12.5661,87.0645 C12.5563,87.0547 12.5563,87.0547 12.5456,87.0547 L10.6862,85.9747 L9.6657,85.3838 L7.5563,84.1543 L7.4655,84.1036 L7.2663,83.9844 C7.2663,83.9844 7.2556,83.9844 7.2458,83.9747 L6.9655,83.8145 L6.4362,83.5137 L5.6159,83.0342 L5.5563,82.9942 L5.5456,82.9942 C5.5456,82.9942 5.5456,82.9942 5.5358,82.9942 L5.0456,82.7042 L4.3464,82.3047 L3.6657,81.9141 L2.446,81.2042 L2.3464,81.1446 L2.3356,81.1446 L2.0056,80.9542 L1.5964,80.7139 L1.5856,80.7139 L1.156,80.4639 L0.1657,79.8946 L0.0856,79.8536 L0.0563,79.834 L0.0563,26.6934 L0.8356,26.2442 L2.4255,25.3243 L2.7858,25.1133 L6.1657,23.1641 L7.2263,22.5547 L13.0056,19.2139 L13.0163,19.2139 L13.9255,18.6934 L14.9763,18.0743 L16.7956,17.0235 L16.8063,17.0235 L17.6755,16.5137 L21.3063,14.4336 L21.946,14.0547 L22.8864,13.5137 L23.0563,13.4239 L24.7155,12.4747 L25.4958,12.0235 L25.8757,11.8047 L26.3161,11.544 L26.986,11.1543 L27.4157,10.8946 L27.9362,10.5938 L28.4362,10.3145 L29.0261,9.9747 L30.2155,9.294 L30.906,8.8838 L31.656,8.4542 L32.3063,8.084 L32.3161,8.084 L32.3659,8.0547 L32.7956,7.8047 L38.0856,4.754 L38.196,4.6934 L38.2761,4.6446 L38.5456,4.4844 L44.0661,1.294 L44.6159,0.9747 L46.0563,0.1446 L46.5661,0.4434 L47.656,1.0743 L50.5163,2.7247 L53.6062,4.5137 L56.2058,6.0137 L56.4255,6.1446 L61.1159,8.8438 L62.0964,9.4141 L67.2263,12.3741 L68.1364,12.8946 L69.1755,13.504 L71.4763,14.8145 L72.3464,15.3145 L73.0358,15.7139 L73.8659,16.1934 L74.3562,16.4747 L74.9362,16.8145 L75.236,16.9844 L76.0358,17.4434 L76.1257,17.504 L77.9362,18.544 L80.0964,19.7842 L81.2155,20.4336 L81.7155,20.7247 L81.7556,20.754 L81.7556,20.7637 L82.0163,20.9043 L82.6755,21.294 L84.1364,22.1338 L86.0759,23.254 L86.8562,23.6934 L87.2956,23.9434 L87.7858,24.2247 L89.236,25.0645 L89.406,25.1641 L90.2556,25.6543 L92.0563,26.6934 Z" id="Shape" fill="#FFFFFF"></path>
            <path d="M26.4792,86.5768 L64.6794,86.5768 C75.2061,80.1132 82.2292,68.4979 82.2292,55.2395 C82.2292,34.9431 65.7756,18.4895 45.4792,18.4895 C25.1828,18.4895 8.7292,34.9431 8.7292,55.2395 C8.7292,68.5093 15.7641,80.1338 26.3059,86.594 C26.3636,86.5881 26.4175,86.5768 26.4792,86.5768 Z" id="Shape" fill="#85FF93" opacity="0.63"></path>
            <polyline id="Shape" fill="#FFFFFF" points="34.4167 76.2813 57.6042 76.2188 60.1042 70.5313 62.1667 70.0938 62.1042 32.7188 61.6667 30.4063 59.6667 26.1563 56.9167 22.6563 53.6667 20.4063 50.2292 19.1563 43.9167 18.5313 39.4167 19.9688 35.5417 22.4688 32.6042 25.5938 29.9792 31.0313 29.9167 70.0938 31.9167 70.4479"></polyline>
            <polyline id="Shape" fill="#FFFFFF" points="41.6042 78.8646 49.2292 79.3229 50.7292 78.5313 50.8151 76.584 41.7708 76.3646 40.8542 77.6146"></polyline>
            <polyline id="Shape" fill="#FFFFFF" points="44.2292 78.6146 44.1042 81.1563 41.0625 80.9479 39.8125 87.0729 52.2087 87.2334 51.0625 81.1979 48.0208 80.8229 47.8542 78.9063"></polyline>
            <rect id="Rectangle-path" fill="#FFFFFF" x="65.1667" y="40.7813" width="5.9287" height="24.5928"></rect>
            <polyline id="Shape" fill="#FFFFFF" points="65.2604 65.0313 65.1354 74.5625 64.1354 73.1563 62.0729 73.1875 61.0104 74.375 60.9479 81.9375 60.8854 85.7188 72.4167 85.3125 71.0104 79.25 68.3542 79.125 68.2917 77.1875 69.8229 77.1563 69.6667 75.1875 70.9792 74.0313 71.1979 72.0313 69.7292 70.9063 71.0417 65.4688"></polyline>
            <rect id="Rectangle-path" fill="#FFFFFF" transform="translate(23.928850, 53.077600) rotate(-180.000000) translate(-23.928850, -53.077600) " x="20.9645" y="40.7812" width="5.9287" height="24.5928"></rect>
            <polyline id="Shape" fill="#FFFFFF" points="26.7995 65.0313 26.9245 74.5625 27.9245 73.1563 29.987 73.1875 31.0495 74.375 31.112 81.9375 31.1745 85.7188 19.6432 85.3125 21.0495 79.25 23.7057 79.125 23.7682 77.1875 22.237 77.1563 22.3932 75.1875 21.0807 74.0313 20.862 72.0313 22.3307 70.9063 21.0182 65.4688"></polyline>
            <g id="Group" transform="translate(10.000000, 14.000000)">
                <rect id="Rectangle-path" fill="#11083A" x="36.9099" y="4.523" width="1" height="5.1318"></rect>
                <rect id="Rectangle-path" fill="#11083A" x="34.4567" y="4.5875" width="1" height="5.0029"></rect>
                <rect id="Rectangle-path" fill="#11083A" x="19.7595" y="17.9859" width="7.7929" height="1"></rect>
                <polygon id="Shape" fill="#11083A" points="50.5466 21.4268 49.9431 21.4268 49.9431 17.5513 52.2106 17.5513 52.2106 18.1558 50.5466 18.1558"></polygon>
                <rect id="Rectangle-path" fill="#48B980" x="13.2917" y="63.004" width="1" height="2.0244"></rect>
                <rect id="Rectangle-path" fill="#48B980" x="58.1228" y="63.004" width="1" height="2.0244"></rect>
                <path d="M24.8454,55.9639 C24.905,55.8741 24.9958,55.8243 25.1052,55.8243 L20.0651,55.8243 L20.0651,37.4542 C20.0651,37.6241 19.9255,37.754 19.7556,37.754 L19.4558,37.754 L19.4558,56.1241 C19.4558,56.294 19.5954,56.4336 19.7556,56.4336 L24.905,56.4336 L24.8259,56.254 C24.7858,56.1534 24.7956,56.044 24.8454,55.9639 Z M52.2155,26.334 L19.7556,26.334 C19.5954,26.334 19.4558,26.4737 19.4558,26.6338 L19.4558,56.1241 C19.4558,56.294 19.5954,56.4336 19.7556,56.4336 L52.2155,56.4336 C52.3757,56.4336 52.5153,56.294 52.5153,56.1241 L52.5153,26.6338 C52.5153,26.4737 52.3757,26.334 52.2155,26.334 Z M51.905,55.8242 L20.0651,55.8242 L20.0651,26.9434 L51.905,26.9434 L51.905,55.8242 Z M24.8454,55.9639 C24.905,55.8741 24.9958,55.8243 25.1052,55.8243 L20.0651,55.8243 L20.0651,37.4542 C20.0651,37.6241 19.9255,37.754 19.7556,37.754 L19.4558,37.754 L19.4558,56.1241 C19.4558,56.294 19.5954,56.4336 19.7556,56.4336 L24.905,56.4336 L24.8259,56.254 C24.7858,56.1534 24.7956,56.044 24.8454,55.9639 Z" id="Shape" fill="#11083A"></path>
                <rect id="Rectangle-path" fill="#120E3B" x="28.489" y="28.4473" width="14.9931" height="2.1846"></rect>
                <path d="M43.4851,28.1436 L28.4851,28.1436 C28.3259,28.1436 28.1853,28.2842 28.1853,28.4434 L28.1853,30.6338 C28.1853,30.8038 28.3259,30.9336 28.4851,30.9336 L43.4851,30.9336 C43.6452,30.9336 43.7858,30.8038 43.7858,30.6338 L43.7858,28.4434 C43.7858,28.2842 43.6452,28.1436 43.4851,28.1436 Z M43.1755,30.334 L28.7956,30.334 L28.7956,28.754 L43.1755,28.754 L43.1755,30.334 Z" id="Shape" fill="#11083A"></path>
                <rect id="Rectangle-path" fill="#120E3B" x="28.489" y="32.4786" width="14.9931" height="2.1836"></rect>
                <path d="M43.4851,32.1739 L28.4851,32.1739 C28.3259,32.1739 28.1853,32.3135 28.1853,32.4737 L28.1853,34.6641 C28.1853,34.834 28.3259,34.9639 28.4851,34.9639 L43.4851,34.9639 C43.6452,34.9639 43.7858,34.834 43.7858,34.6641 L43.7858,32.4737 C43.7858,32.3135 43.6452,32.1739 43.4851,32.1739 Z M43.1755,34.3633 L28.7956,34.3633 L28.7956,32.7842 L43.1755,32.7842 L43.1755,34.3633 Z" id="Shape" fill="#11083A"></path>
                <rect id="Rectangle-path" fill="#FFCC2E" x="34.1257" y="32.4786" width="6.8789" height="2.1836"></rect>
                <path d="M41.0056,32.1739 L34.1257,32.1739 C33.9558,32.1739 33.8259,32.3135 33.8259,32.4737 L33.8259,34.6641 C33.8259,34.834 33.9558,34.9639 34.1257,34.9639 L41.0056,34.9639 C41.1755,34.9639 41.3054,34.834 41.3054,34.6641 L41.3054,32.4737 C41.3054,32.3135 41.1755,32.1739 41.0056,32.1739 Z M40.7058,34.3633 L34.4255,34.3633 L34.4255,32.7842 L40.7058,32.7842 L40.7058,34.3633 Z" id="Shape" fill="#11083A"></path>
                <rect id="Rectangle-path" fill="#120E3B" x="28.489" y="36.5108" width="14.9931" height="2.1826"></rect>
                <path d="M43.4851,36.2042 L28.4851,36.2042 C28.3259,36.2042 28.1853,36.3438 28.1853,36.5137 L28.1853,38.6934 C28.1853,38.8633 28.3259,38.9942 28.4851,38.9942 L43.4851,38.9942 C43.6452,38.9942 43.7858,38.8633 43.7858,38.6934 L43.7858,36.5137 C43.7858,36.3438 43.6452,36.2042 43.4851,36.2042 Z M43.1755,38.3936 L28.7956,38.3936 L28.7956,36.8135 L43.1755,36.8135 L43.1755,38.3936 Z" id="Shape" fill="#11083A"></path>
                <rect id="Rectangle-path" fill="#FFCC2E" x="31.531" y="36.5108" width="5.4326" height="2.1826"></rect>
                <path d="M36.9655,36.2042 L31.5358,36.2042 C31.3659,36.2042 31.2253,36.3438 31.2253,36.5137 L31.2253,38.6934 C31.2253,38.8633 31.3659,38.9942 31.5358,38.9942 L36.9655,38.9942 C37.1355,38.9942 37.2653,38.8633 37.2653,38.6934 L37.2653,36.5137 C37.2653,36.3438 37.1355,36.2042 36.9655,36.2042 Z M36.655,38.3936 L31.8356,38.3936 L31.8356,36.8135 L36.655,36.8135 L36.655,38.3936 Z" id="Shape" fill="#11083A"></path>
                <path d="M38.0554,62.0742 C38.0056,62.0136 37.9353,61.9833 37.8454,61.9833 L34.1257,61.9833 C34.0358,61.9833 33.9655,62.0136 33.9157,62.0742 C33.8552,62.124 33.8259,62.1933 33.8259,62.2841 L33.8259,70.0341 C33.8259,70.2041 33.9558,70.3339 34.1257,70.3339 L37.8454,70.3339 C38.0153,70.3339 38.1452,70.2041 38.1452,70.0341 L38.1452,62.2841 C38.1452,62.1934 38.1159,62.1241 38.0554,62.0742 Z M37.5456,69.7334 L34.4255,69.7334 L34.4255,62.584 L37.5456,62.584 L37.5456,69.7334 Z" id="Shape" fill="#11083A"></path>
                <path d="M39.1159,55.9239 C39.0554,55.8633 38.9851,55.8243 38.8952,55.8243 L33.0759,55.8243 C32.9851,55.8243 32.905,55.8633 32.8552,55.9239 C32.7956,55.9737 32.7653,56.0635 32.7653,56.1436 L32.7751,56.4336 L33.0554,61.9834 L33.0651,62.0743 L33.0759,62.3038 C33.0856,62.4639 33.2155,62.584 33.3757,62.584 L38.5954,62.584 C38.7556,62.584 38.8952,62.4639 38.8952,62.3038 L38.905,62.0743 L38.9157,61.9834 L39.1853,56.4336 L39.195,56.1436 C39.2058,56.0635 39.1755,55.9737 39.1159,55.9239 Z M38.3054,61.9834 L33.6657,61.9834 L33.3855,56.4336 L38.5856,56.4336 L38.3054,61.9834 Z" id="Shape" fill="#11083A"></path>
                <path d="M47.1257,55.9639 C47.0651,55.8741 46.9753,55.8243 46.8659,55.8243 L25.1052,55.8243 C24.9958,55.8243 24.905,55.8741 24.8454,55.9639 C24.7956,56.044 24.7858,56.1534 24.8259,56.254 L24.905,56.4336 L27.3552,61.9834 L27.5456,62.4034 C27.5954,62.5137 27.7058,62.584 27.8151,62.584 L44.155,62.584 C44.2751,62.584 44.3855,62.5137 44.4255,62.4034 L44.6159,61.9834 L47.0651,56.4336 L47.1452,56.254 C47.1853,56.1534 47.1755,56.044 47.1257,55.9639 Z M43.9558,61.9834 L28.0153,61.9834 L25.5651,56.4336 L46.405,56.4336 L43.9558,61.9834 Z" id="Shape" fill="#11083A"></path>
                <path d="M50.4958,55.9639 C50.4353,55.8741 50.3454,55.8243 50.2458,55.8243 L21.7253,55.8243 C21.6257,55.8243 21.5358,55.8741 21.4753,55.9639 C21.4157,56.044 21.405,56.1534 21.445,56.2442 L21.5251,56.4336 L24.0153,62.4034 C24.0651,62.5137 24.1755,62.584 24.2956,62.584 L47.6755,62.584 C47.7956,62.584 47.905,62.5137 47.9558,62.4034 L50.445,56.4336 L50.5251,56.2442 C50.5651,56.1534 50.5554,56.044 50.4958,55.9639 Z M47.4753,61.9834 L24.4958,61.9834 L22.1755,56.4336 L49.7956,56.4336 L47.4753,61.9834 Z" id="Shape" fill="#11083A"></path>
                <path d="M42.405,72.6133 L42.2956,72.004 L41.3659,66.8838 C41.3356,66.7334 41.2155,66.6338 41.0651,66.6338 L30.905,66.6338 C30.7556,66.6338 30.6355,66.7334 30.6052,66.8838 L29.6755,72.004 L29.5651,72.6133 L29.4851,73.0743 L29.4851,73.1133 C29.4851,73.1133 29.4851,73.1133 29.4851,73.1241 C29.4851,73.2042 29.5056,73.2637 29.5554,73.3243 C29.6159,73.3936 29.695,73.4336 29.7858,73.4336 L42.1853,73.4336 C42.2751,73.4336 42.3552,73.3936 42.4157,73.3243 C42.4655,73.2637 42.4851,73.2042 42.4851,73.1241 C42.4851,73.1133 42.4851,73.1133 42.4851,73.1133 L42.4851,73.0743 L42.405,72.6133 Z M31.155,67.2334 L40.8151,67.2334 L41.8259,72.834 L30.1452,72.834 L30.2155,72.4239 C30.2253,72.3838 30.2351,72.3438 30.2351,72.3038 L31.155,67.2334 Z" id="Shape" fill="#11083A"></path>
                <path d="M38.1159,40.4336 L33.8552,40.4336 C33.695,40.4336 33.5554,40.5635 33.5554,40.7334 L33.5554,48.1241 C33.5554,48.2842 33.695,48.4239 33.8552,48.4239 L38.1159,48.4239 C38.2751,48.4239 38.4157,48.2842 38.4157,48.1241 L38.4157,40.7334 C38.4157,40.5635 38.2751,40.4336 38.1159,40.4336 Z M37.8054,47.8135 L34.1657,47.8135 L34.1657,41.0342 L37.8054,41.0342 L37.8054,47.8135 Z" id="Shape" fill="#11083A"></path>
                <rect id="Rectangle-path" fill="#120E3B" x="21.1198" y="50.6836" width="5.4434" height="3.6934"></rect>
                <path d="M26.5651,50.3838 L21.1159,50.3838 C20.9558,50.3838 20.8151,50.5137 20.8151,50.6836 L20.8151,54.3741 C20.8151,54.544 20.9558,54.6836 21.1159,54.6836 L26.5651,54.6836 C26.7253,54.6836 26.8659,54.544 26.8659,54.3741 L26.8659,50.6836 C26.8659,50.5137 26.7253,50.3838 26.5651,50.3838 Z M26.2556,54.0742 L21.4255,54.0742 L21.4255,50.9833 L26.2556,50.9833 L26.2556,54.0742 Z" id="Shape" fill="#11083A"></path>
                <rect id="Rectangle-path" fill="#49BA81" x="22.5827" y="50.6836" width="2.5186" height="3.6934"></rect>
                <path d="M25.1052,50.3838 L22.5856,50.3838 C22.4157,50.3838 22.2751,50.5137 22.2751,50.6836 L22.2751,54.3741 C22.2751,54.544 22.4157,54.6836 22.5856,54.6836 L25.1052,54.6836 C25.2653,54.6836 25.405,54.544 25.405,54.3741 L25.405,50.6836 C25.405,50.5137 25.2653,50.3838 25.1052,50.3838 Z M24.7956,54.0742 L22.8855,54.0742 L22.8855,50.9833 L24.7956,50.9833 L24.7956,54.0742 Z" id="Shape" fill="#11083A"></path>
                <path d="M38.1159,42.8838 L33.8552,42.8838 C33.695,42.8838 33.5554,43.0137 33.5554,43.1836 L33.5554,45.6241 C33.5554,45.794 33.695,45.9239 33.8552,45.9239 L38.1159,45.9239 C38.2751,45.9239 38.4157,45.794 38.4157,45.6241 L38.4157,43.1836 C38.4157,43.0137 38.2751,42.8838 38.1159,42.8838 Z M37.8054,45.3242 L34.1657,45.3242 L34.1657,43.4833 L37.8054,43.4833 L37.8054,45.3242 Z" id="Shape" fill="#11083A"></path>
                <g>
                    <path d="M49.9001,24.9912 C49.2526,24.9912 48.9255,24.5605 48.6647,24.2148 C48.405,23.874 48.2429,23.6796 47.9118,23.6796 C47.5808,23.6796 47.4187,23.874 47.1589,24.2148 C46.8981,24.5605 46.571,24.9912 45.9235,24.9912 C45.2771,24.9912 44.9509,24.5605 44.6892,24.2148 C44.4304,23.874 44.2663,23.6796 43.9362,23.6796 C43.6052,23.6796 43.4431,23.874 43.1843,24.2148 C42.9216,24.5605 42.5964,24.9912 41.9489,24.9912 C41.3015,24.9912 40.9763,24.5605 40.7155,24.2148 C40.4548,23.874 40.2917,23.6796 39.9616,23.6796 C39.6315,23.6796 39.4685,23.874 39.2077,24.2148 C38.947,24.5605 38.6208,24.9912 37.9733,24.9912 C37.3269,24.9912 36.9997,24.5605 36.739,24.2148 C36.4792,23.874 36.3171,23.6796 35.986,23.6796 C35.655,23.6796 35.4919,23.874 35.2331,24.2148 C34.9714,24.5605 34.6452,24.9912 33.9978,24.9912 C33.3513,24.9912 33.0251,24.5605 32.7644,24.2148 C32.5046,23.874 32.3425,23.6796 32.0105,23.6796 C31.6804,23.6796 31.5183,23.874 31.2585,24.2148 C30.9948,24.5605 30.6706,24.9912 30.0231,24.9912 C29.3757,24.9912 29.0495,24.5605 28.7888,24.2148 C28.528,23.874 28.3659,23.6796 28.0358,23.6796 C27.7048,23.6796 27.5427,23.874 27.2819,24.2148 C27.0202,24.5605 26.695,24.9912 26.0476,24.9912 C25.4011,24.9912 25.0759,24.5605 24.8132,24.2148 C24.5534,23.874 24.3903,23.6796 24.0603,23.6796 C23.7292,23.6796 23.5661,23.874 23.3063,24.2148 C23.0437,24.5605 22.7185,24.9912 22.071,24.9912 C21.905,24.9912 21.7683,24.8554 21.7683,24.6874 C21.7683,24.5214 21.905,24.3857 22.071,24.3857 C22.403,24.3857 22.5651,24.1914 22.8249,23.8505 C23.0856,23.5058 23.4128,23.0751 24.0603,23.0751 C24.7058,23.0751 25.0319,23.5058 25.2937,23.8505 C25.5534,24.1914 25.7175,24.3857 26.0476,24.3857 C26.3786,24.3857 26.5407,24.1914 26.8005,23.8505 C27.0622,23.5058 27.3884,23.0751 28.0358,23.0751 C28.6823,23.0751 29.0075,23.5058 29.2702,23.8505 C29.53,24.1914 29.6931,24.3857 30.0231,24.3857 C30.3532,24.3857 30.5163,24.1914 30.7771,23.8505 C31.0378,23.5058 31.363,23.0751 32.0105,23.0751 C32.6579,23.0751 32.9841,23.5058 33.2458,23.8505 C33.5046,24.1914 33.6667,24.3857 33.9978,24.3857 C34.3288,24.3857 34.4929,24.1914 34.7507,23.8505 C35.0124,23.5058 35.3386,23.0751 35.986,23.0751 C36.6325,23.0751 36.9597,23.5058 37.2204,23.8505 C37.4802,24.1914 37.6433,24.3857 37.9733,24.3857 C38.3044,24.3857 38.4665,24.1914 38.7263,23.8505 C38.988,23.5058 39.3142,23.0751 39.9616,23.0751 C40.6081,23.0751 40.9333,23.5058 41.197,23.8505 C41.4558,24.1914 41.6188,24.3857 41.9489,24.3857 C42.28,24.3857 42.4421,24.1914 42.7028,23.8505 C42.9636,23.5058 43.2888,23.0751 43.9362,23.0751 C44.5837,23.0751 44.9099,23.5058 45.1716,23.8505 C45.4304,24.1914 45.5935,24.3857 45.9235,24.3857 C46.2546,24.3857 46.4177,24.1914 46.6774,23.8505 C46.9392,23.5058 47.2653,23.0751 47.9118,23.0751 C48.5583,23.0751 48.8845,23.5058 49.1462,23.8505 C49.405,24.1914 49.569,24.3857 49.9001,24.3857 C50.0671,24.3857 50.2019,24.5214 50.2019,24.6874 C50.2019,24.8555 50.0671,24.9912 49.9001,24.9912 Z" id="Shape" fill="#11083A"></path>
                    <path d="M44.655,16.2759 C44.655,18.2046 44.0231,19.9864 42.9587,21.4268 L29.0134,21.4268 C27.946,19.9864 27.3171,18.2046 27.3171,16.2759 C27.3171,13.8526 28.3103,11.6622 29.9128,10.0894 C31.8571,9.7584 33.8894,9.5826 35.986,9.5826 C38.0817,9.5826 40.1149,9.7584 42.0583,10.0894 C43.6608,11.6622 44.655,13.8526 44.655,16.2759 Z" id="Shape" fill="#48B980"></path>
                    <path d="M40.989,13.8721 C40.989,14.8389 40.2058,15.6236 39.239,15.6236 C38.2712,15.6236 37.488,14.8389 37.488,13.8721 C37.488,12.9048 38.2712,12.1216 39.239,12.1216 C40.2058,12.1216 40.989,12.9048 40.989,13.8721 Z" id="Shape" fill="#FFFFFF"></path>
                    <path d="M42.2409,16.4898 C42.2409,16.8809 41.9226,17.1983 41.5319,17.1983 C41.1413,17.1983 40.8249,16.8809 40.8249,16.4898 C40.8249,16.0987 41.1413,15.7823 41.5319,15.7823 C41.9226,15.7822 42.2409,16.0987 42.2409,16.4898 Z" id="Shape" fill="#FFFFFF"></path>
                    <path d="M30.1853,9.9537 C30.1355,9.8536 30.0358,9.7837 29.9255,9.7837 C29.905,9.7837 29.8855,9.794 29.8659,9.794 C28.8757,9.9639 27.9157,10.1636 26.9655,10.4136 C26.7155,10.4839 26.4655,10.5538 26.2155,10.6236 C25.9558,10.6939 25.695,10.774 25.4353,10.8536 C25.1052,10.9639 24.7858,11.064 24.4655,11.1739 C23.905,11.3736 23.3552,11.5938 22.8151,11.814 C22.8054,11.814 22.8054,11.8238 22.7956,11.8238 C22.4851,11.9537 22.1853,12.084 21.8855,12.2237 C21.8259,12.254 21.7751,12.294 21.7458,12.3438 C21.0153,13.584 20.445,14.9136 20.0651,16.2837 C19.6657,17.7339 19.4558,19.2237 19.4558,20.7437 L19.4558,21.4239 C19.4558,21.5938 19.5954,21.7339 19.7556,21.7339 L29.0153,21.7339 C29.1257,21.7339 29.2253,21.6636 29.2858,21.564 C29.3054,21.524 29.3151,21.4737 29.3151,21.4239 C29.3151,21.3536 29.2956,21.3038 29.2556,21.2437 C29.2253,21.2037 29.195,21.1636 29.1755,21.1236 C28.155,19.7139 27.6159,18.0337 27.6159,16.274 C27.6159,14.044 28.4851,11.9537 30.0651,10.3736 C30.0759,10.3438 30.1052,10.3238 30.1257,10.3038 C30.195,10.2339 30.2253,10.1436 30.2058,10.0538 C30.2058,10.024 30.2058,9.9839 30.1853,9.9537 Z M20.0651,21.1236 L20.0651,20.7437 C20.0651,20.024 20.1159,19.3038 20.2155,18.5938 C20.2351,18.3936 20.2653,18.1836 20.3151,17.9839 C20.6257,16.1338 21.2751,14.3536 22.2253,12.7339 C23.0251,12.3638 23.8659,12.024 24.7253,11.7237 C24.9851,11.6338 25.2556,11.544 25.5251,11.4639 C25.8454,11.3536 26.1755,11.254 26.5056,11.1636 C27.0456,11.0137 27.6052,10.8736 28.1657,10.7437 C28.4655,10.6739 28.7653,10.6138 29.0759,10.5538 C27.7351,12.1539 27.0153,14.1539 27.0153,16.274 C27.0153,16.8536 27.0651,17.4239 27.1755,17.9839 C27.2155,18.1939 27.2653,18.3936 27.3151,18.5938 C27.5554,19.4839 27.9255,20.334 28.4353,21.1236 L20.0651,21.1236 Z" id="Shape" fill="#11083A"></path>
                    <path d="M52.2155,17.6338 C52.2155,17.6036 52.2058,17.584 52.2058,17.5538 C52.1257,17.1338 52.0251,16.7237 51.905,16.314 C51.5251,14.9537 50.9753,13.6436 50.2556,12.4239 C50.2458,12.3936 50.2351,12.3736 50.2155,12.3438 C50.2058,12.3238 50.1853,12.294 50.1657,12.274 C50.1355,12.254 50.1159,12.2339 50.0856,12.2237 C49.7858,12.084 49.4851,11.9537 49.1755,11.8238 C49.1657,11.8238 49.1657,11.814 49.155,11.814 C48.6159,11.5938 48.0651,11.3736 47.5056,11.1739 C47.1853,11.064 46.8659,10.9639 46.5358,10.8536 C46.2751,10.774 46.0153,10.6939 45.7556,10.6236 C45.5056,10.5538 45.2556,10.4839 45.0056,10.4136 C44.0554,10.1636 43.0954,9.9639 42.1052,9.794 C42.0856,9.794 42.0651,9.7837 42.0456,9.7837 C41.9353,9.7837 41.8356,9.8536 41.7858,9.9537 C41.7653,9.9839 41.7653,10.024 41.7653,10.0538 C41.7458,10.1436 41.7751,10.2339 41.8454,10.3038 C41.8659,10.3238 41.8952,10.3438 41.905,10.3736 C43.4851,11.9537 44.3552,14.044 44.3552,16.274 C44.3552,18.0337 43.8151,19.7139 42.7956,21.1236 C42.7751,21.1636 42.7458,21.2037 42.7155,21.2437 C42.6755,21.3038 42.655,21.3536 42.655,21.4239 C42.655,21.4737 42.6657,21.524 42.6853,21.564 C42.7351,21.6636 42.8454,21.7339 42.9558,21.7339 L52.2155,21.7339 C52.3757,21.7339 52.5153,21.5938 52.5153,21.4239 L52.5153,20.7437 C52.5153,19.6939 52.4157,18.6539 52.2155,17.6338 Z M43.5358,21.1236 C44.4655,19.6739 44.9558,18.0137 44.9558,16.274 C44.9558,14.1539 44.2253,12.1539 42.8952,10.5538 C43.2058,10.6138 43.5056,10.6739 43.8054,10.7437 C44.3659,10.8736 44.9255,11.0137 45.4655,11.1636 C45.7956,11.254 46.1159,11.3536 46.445,11.4639 C46.7155,11.544 46.9753,11.6338 47.2458,11.7237 C48.1052,12.024 48.9353,12.3638 49.7458,12.7339 C50.6257,14.2339 51.2458,15.8638 51.5856,17.5538 C51.6257,17.754 51.6657,17.9537 51.6853,18.1539 C51.8356,19.004 51.905,19.8736 51.905,20.7437 L51.905,21.1236 L43.5358,21.1236 Z" id="Shape" fill="#11083A"></path>
                    <path d="M42.6853,21.564 C42.6657,21.524 42.655,21.4737 42.655,21.4239 C42.655,21.3536 42.6755,21.3038 42.7155,21.2437 C42.7458,21.2037 42.7751,21.1636 42.7956,21.1236 L29.1755,21.1236 C29.195,21.1636 29.2253,21.2037 29.2556,21.2437 C29.2956,21.3038 29.3151,21.3536 29.3151,21.4239 C29.3151,21.4737 29.3054,21.524 29.2858,21.564 C29.2253,21.6636 29.1257,21.7339 29.0153,21.7339 L42.9558,21.7339 C42.8454,21.7339 42.7351,21.6636 42.6853,21.564 Z M52.2155,21.1236 L19.7556,21.1236 C19.5954,21.1236 19.4558,21.2637 19.4558,21.4239 L19.4558,26.6338 C19.4558,26.8038 19.5954,26.9434 19.7556,26.9434 L52.2155,26.9434 C52.3757,26.9434 52.5153,26.8038 52.5153,26.6338 L52.5153,21.4239 C52.5153,21.2637 52.3757,21.1236 52.2155,21.1236 Z M20.0651,26.334 L20.0651,21.7339 L51.905,21.7339 L51.905,26.334 L20.0651,26.334 Z M42.6853,21.564 C42.6657,21.524 42.655,21.4737 42.655,21.4239 C42.655,21.3536 42.6755,21.3038 42.7155,21.2437 C42.7458,21.2037 42.7751,21.1636 42.7956,21.1236 L29.1755,21.1236 C29.195,21.1636 29.2253,21.2037 29.2556,21.2437 C29.2956,21.3038 29.3151,21.3536 29.3151,21.4239 C29.3151,21.4737 29.3054,21.524 29.2858,21.564 C29.2253,21.6636 29.1257,21.7339 29.0153,21.7339 L42.9558,21.7339 C42.8454,21.7339 42.7351,21.6636 42.6853,21.564 Z" id="Shape" fill="#11083A"></path>
                    <rect id="Rectangle-path" fill="#11083A" x="51.9089" y="0.9605" width="1" height="20.4663"></rect>
                    <rect id="Rectangle-path" fill="#11083A" x="19.4577" y="7.2735" width="1" height="14.1533"></rect>
                    <rect id="Rectangle-path" fill="#11083A" x="24.0671" y="18.2901" width="1" height="3.1367"></rect>
                    <path d="M35.9851,9.2837 C35.6755,9.2837 35.3757,9.2837 35.0651,9.3038 C34.8659,9.3038 34.655,9.3038 34.4558,9.314 C32.9255,9.3736 31.405,9.5337 29.9255,9.7837 C30.0358,9.7837 30.1355,9.8536 30.1853,9.9537 C30.2058,9.9839 30.2058,10.024 30.2058,10.0538 C30.6159,9.9839 31.0358,9.9239 31.4558,9.8638 C31.9353,9.8038 32.4157,9.754 32.8952,9.7139 C33.2858,9.6739 33.6755,9.6539 34.0651,9.6338 C34.695,9.6036 35.3356,9.584 35.9851,9.584 C36.2956,9.584 36.6052,9.584 36.905,9.6036 L36.905,9.3038 C36.5954,9.2837 36.2956,9.2837 35.9851,9.2837 Z M50.2155,12.3438 C50.2058,12.3238 50.1853,12.294 50.1657,12.274 C49.4851,11.1138 48.6355,10.024 47.6755,9.064 C44.5554,5.9336 40.3952,4.2237 35.9851,4.2237 C33.0651,4.2237 30.1853,4.9937 27.6755,6.4639 C25.2351,7.8838 23.1853,9.9136 21.7458,12.3438 C21.6853,12.4639 21.695,12.6036 21.7858,12.7037 C21.8454,12.7637 21.9255,12.8038 22.0153,12.8038 C22.0554,12.8038 22.0954,12.794 22.1355,12.774 C22.1657,12.7637 22.195,12.7437 22.2253,12.7339 C23.0251,12.3638 23.8659,12.024 24.7253,11.7237 C24.9851,11.6338 25.2556,11.544 25.5251,11.4639 C25.8454,11.3536 26.1755,11.254 26.5056,11.1636 C27.0456,11.0137 27.6052,10.8736 28.1657,10.7437 C28.4655,10.6739 28.7653,10.6138 29.0759,10.5538 C29.2351,10.5137 29.405,10.4839 29.5651,10.4537 L29.5759,10.4537 C29.7058,10.4336 29.8356,10.4039 29.9655,10.3838 C29.9958,10.3736 30.0358,10.3736 30.0651,10.3736 C31.9851,10.044 33.9753,9.8838 35.9851,9.8838 C37.9958,9.8838 39.9851,10.044 41.905,10.3736 C41.9353,10.3736 41.9753,10.3736 42.0056,10.3838 C42.1355,10.4039 42.2653,10.4336 42.3952,10.4537 L42.405,10.4537 C42.5651,10.4839 42.7351,10.5137 42.8952,10.5538 C43.2058,10.6138 43.5056,10.6739 43.8054,10.7437 C44.3659,10.8736 44.9157,11.0137 45.4655,11.1636 C45.7956,11.254 46.1159,11.3536 46.445,11.4639 C46.7155,11.544 46.9753,11.6338 47.2458,11.7237 C48.1052,12.024 48.9353,12.3638 49.7458,12.7339 C49.7751,12.7437 49.8054,12.7637 49.8356,12.774 C49.9558,12.834 50.0954,12.8038 50.1853,12.7037 C50.2556,12.6236 50.2751,12.524 50.2556,12.4239 C50.2458,12.3936 50.2351,12.3736 50.2155,12.3438 Z M49.155,11.814 C48.6159,11.5938 48.0651,11.3736 47.5056,11.1739 C47.1853,11.064 46.8659,10.9639 46.5358,10.8536 C46.2751,10.774 46.0153,10.6939 45.7556,10.6236 C45.5056,10.5538 45.2556,10.4839 45.0056,10.4136 C44.0554,10.1636 43.0954,9.9639 42.1052,9.794 C42.0856,9.794 42.0651,9.7837 42.0456,9.7837 C40.5651,9.5337 39.0456,9.3736 37.5153,9.314 C37.3151,9.3038 37.1052,9.3038 36.905,9.3038 C36.5954,9.2837 36.2956,9.2837 35.9851,9.2837 C35.6755,9.2837 35.3757,9.2837 35.0651,9.3038 C34.8659,9.3038 34.655,9.3038 34.4558,9.314 C32.9255,9.3736 31.405,9.5337 29.9255,9.7837 C29.905,9.7837 29.8855,9.794 29.8659,9.794 C28.8757,9.9639 27.9157,10.1636 26.9655,10.4136 C26.7155,10.4839 26.4655,10.5538 26.2155,10.6236 C25.9558,10.6939 25.695,10.774 25.4353,10.8536 C25.1052,10.9639 24.7858,11.064 24.4655,11.1739 C23.905,11.3736 23.3552,11.5938 22.8151,11.814 C22.8054,11.814 22.8054,11.8238 22.7956,11.8238 C25.4558,7.9039 29.7653,5.3638 34.4558,4.9039 C34.655,4.8838 34.8552,4.8638 35.0651,4.8536 C35.3659,4.834 35.6755,4.8238 35.9851,4.8238 C36.2956,4.8238 36.5954,4.834 36.905,4.8536 C37.1052,4.8638 37.3151,4.8736 37.5153,4.9039 C41.1853,5.2437 44.5954,6.8438 47.2458,9.4839 C47.9655,10.2037 48.6052,10.9839 49.1755,11.8238 C49.1657,11.8238 49.1657,11.814 49.155,11.814 Z M35.9851,9.2837 C35.6755,9.2837 35.3757,9.2837 35.0651,9.3038 C34.8659,9.3038 34.655,9.3038 34.4558,9.314 C32.9255,9.3736 31.405,9.5337 29.9255,9.7837 C30.0358,9.7837 30.1355,9.8536 30.1853,9.9537 C30.2058,9.9839 30.2058,10.024 30.2058,10.0538 C30.6159,9.9839 31.0358,9.9239 31.4558,9.8638 C31.9353,9.8038 32.4157,9.754 32.8952,9.7139 C33.2858,9.6739 33.6755,9.6539 34.0651,9.6338 C34.695,9.6036 35.3356,9.584 35.9851,9.584 C36.2956,9.584 36.6052,9.584 36.905,9.6036 L36.905,9.3038 C36.5954,9.2837 36.2956,9.2837 35.9851,9.2837 Z" id="Shape" fill="#11083A"></path>
                    <path d="M40.8151,62.584 C40.5153,62.2637 40.0856,62.0743 39.6159,62.0743 L32.3552,62.0743 C31.8855,62.0743 31.4558,62.2637 31.155,62.584 C30.8552,62.8838 30.6657,63.3038 30.6657,63.7735 C30.6657,64.7042 31.4255,65.4639 32.3552,65.4639 L39.6159,65.4639 C40.5456,65.4639 41.3054,64.7042 41.3054,63.7735 C41.3054,63.3038 41.1159,62.8838 40.8151,62.584 Z M39.6159,64.8633 L32.3552,64.8633 C31.7556,64.8633 31.2653,64.3741 31.2653,63.7735 C31.2653,63.1739 31.7556,62.6836 32.3552,62.6836 L39.6159,62.6836 C40.2155,62.6836 40.7058,63.1739 40.7058,63.7735 C40.7058,64.3741 40.2155,64.8633 39.6159,64.8633 Z" id="Shape" fill="#11083A"></path>
                    <path d="M35.9851,49.504 C34.6452,49.504 33.5554,50.5938 33.5554,51.9336 C33.5554,53.2735 34.6452,54.3633 35.9851,54.3633 C37.3259,54.3633 38.4157,53.2735 38.4157,51.9336 C38.4157,50.5938 37.3259,49.504 35.9851,49.504 Z M35.9851,53.7637 C34.9753,53.7637 34.1657,52.9434 34.1657,51.9336 C34.1657,50.9239 34.9753,50.1133 35.9851,50.1133 C36.9958,50.1133 37.8054,50.9239 37.8054,51.9336 C37.8054,52.9434 36.9958,53.7637 35.9851,53.7637 Z" id="Shape" fill="#11083A"></path>
                    <path d="M47.8181,51.1856 C47.8181,51.6456 47.444,52.0186 46.9841,52.0186 C46.5222,52.0186 46.1491,51.6456 46.1491,51.1856 C46.1491,50.7227 46.5222,50.3497 46.9841,50.3497 C47.444,50.3497 47.8181,50.7227 47.8181,51.1856 Z" id="Shape" fill="#FFCC2E"></path>
                    <path d="M46.9851,50.044 C46.3552,50.044 45.8454,50.5538 45.8454,51.1836 C45.8454,51.8135 46.3552,52.3243 46.9851,52.3243 C47.6052,52.3243 48.1159,51.8135 48.1159,51.1836 C48.1159,50.5538 47.6052,50.044 46.9851,50.044 Z M46.9851,51.7139 C46.6853,51.7139 46.4558,51.4737 46.4558,51.1836 C46.4558,50.8936 46.6853,50.6534 46.9851,50.6534 C47.2751,50.6534 47.5153,50.8936 47.5153,51.1836 C47.5153,51.4737 47.2751,51.7139 46.9851,51.7139 Z" id="Shape" fill="#11083A"></path>
                    <path d="M16.905,42.6036 L16.6052,42.6036 L16.6052,51.3741 L16.905,51.3741 C17.0759,51.3741 17.2058,51.5137 17.2058,51.6739 L17.2058,42.3038 C17.2058,42.4737 17.0759,42.6036 16.905,42.6036 Z M16.905,26.334 L10.9255,26.334 C10.7556,26.334 10.6159,26.4737 10.6159,26.6338 L10.6159,51.6739 C10.6159,51.7042 10.6159,51.7237 10.6257,51.754 L10.6355,51.794 C10.6853,51.9034 10.7956,51.9834 10.9255,51.9834 L16.905,51.9834 C17.0759,51.9834 17.2058,51.8438 17.2058,51.6739 L17.2058,26.6338 C17.2058,26.4737 17.0759,26.334 16.905,26.334 Z M11.2253,51.3741 L11.2253,26.9434 L16.6052,26.9434 L16.6052,51.3741 L11.2253,51.3741 Z M16.905,42.6036 L16.6052,42.6036 L16.6052,51.3741 L16.905,51.3741 C17.0759,51.3741 17.2058,51.5137 17.2058,51.6739 L17.2058,42.3038 C17.2058,42.4737 17.0759,42.6036 16.905,42.6036 Z" id="Shape" fill="#11083A"></path>
                    <rect id="Rectangle-path" fill="#120E3B" x="9.3796" y="71.1661" width="11.7402" height="1.1416"></rect>
                    <path d="M21.1159,70.8633 L9.3757,70.8633 C9.2556,70.8633 9.1452,70.9434 9.0954,71.0538 L9.0856,71.0938 C9.0759,71.1133 9.0759,71.1436 9.0759,71.1641 L9.0759,72.3038 C9.0759,72.4737 9.2155,72.6133 9.3757,72.6133 L21.1159,72.6133 C21.2858,72.6133 21.4255,72.4737 21.4255,72.3038 L21.4255,71.1641 C21.4255,71.004 21.2858,70.8633 21.1159,70.8633 Z M20.8151,72.004 L9.6853,72.004 L9.6853,71.4737 L20.8151,71.4737 L20.8151,72.004 Z" id="Shape" fill="#11083A"></path>
                    <rect id="Rectangle-path" fill="#120E3B" x="50.9011" y="71.1661" width="11.7402" height="1.1416"></rect>
                    <path d="M62.9353,71.0938 L62.9255,71.0538 C62.8757,70.9434 62.7653,70.8633 62.6452,70.8633 L50.905,70.8633 C50.7351,70.8633 50.5954,71.004 50.5954,71.1641 L50.5954,72.3038 C50.5954,72.4737 50.7351,72.6133 50.905,72.6133 L62.6452,72.6133 C62.8054,72.6133 62.945,72.4737 62.945,72.3038 L62.945,71.1641 C62.945,71.1436 62.945,71.1133 62.9353,71.0938 Z M62.3356,72.004 L51.2058,72.004 L51.2058,71.4737 L62.3356,71.4737 L62.3356,72.004 Z" id="Shape" fill="#11083A"></path>
                    <polygon id="Shape" fill="#120E3B" points="42.2087 73.2334 29.7624 73.2334 30.1149 74.3741 41.8562 74.3741"></polygon>
                    <path d="M42.4851,73.1241 C42.4851,73.1133 42.4851,73.1133 42.4851,73.1133 C42.4753,73.0938 42.4655,73.0743 42.4558,73.0538 C42.3952,72.9737 42.3054,72.9336 42.2058,72.9336 L29.7653,72.9336 C29.6657,72.9336 29.5759,72.9737 29.5153,73.0538 C29.5056,73.0743 29.4958,73.0938 29.4851,73.1133 C29.4851,73.1133 29.4851,73.1133 29.4851,73.1241 C29.4558,73.1836 29.4558,73.254 29.4753,73.3243 L29.8259,74.4639 C29.8659,74.5938 29.9851,74.6739 30.1159,74.6739 L41.8552,74.6739 C41.9851,74.6739 42.1052,74.5938 42.1452,74.4639 L42.4958,73.3243 C42.5153,73.254 42.5153,73.1836 42.4851,73.1241 Z M41.6355,74.0742 L30.3356,74.0742 L30.1755,73.5341 L41.7956,73.5341 L41.6355,74.0742 Z" id="Shape" fill="#11083A"></path>
                    <path d="M16.905,64.7237 L13.5954,64.7237 C13.4255,64.7237 13.2956,64.8633 13.2956,65.0235 L13.2956,67.1934 C13.2956,67.3633 13.4255,67.4942 13.5954,67.4942 L16.905,67.4942 C17.0759,67.4942 17.2058,67.3633 17.2058,67.1934 L17.2058,65.0235 C17.2058,64.8633 17.0759,64.7237 16.905,64.7237 Z M16.6052,66.8936 L13.8952,66.8936 L13.8952,65.334 L16.6052,65.334 L16.6052,66.8936 Z" id="Shape" fill="#11083A"></path>
                    <rect id="Rectangle-path" fill="#120E3B" x="16.905" y="27.9229" width="2.8545" height="9.5332"></rect>
                    <path d="M19.7556,27.6241 L16.905,27.6241 C16.7351,27.6241 16.6052,27.754 16.6052,27.9239 L16.6052,37.4542 C16.6052,37.6241 16.7351,37.754 16.905,37.754 L19.7556,37.754 C19.9255,37.754 20.0651,37.6241 20.0651,37.4542 L20.0651,27.9239 C20.0651,27.754 19.9255,27.6241 19.7556,27.6241 Z M17.2058,28.2237 L19.4558,28.2237 L19.4558,37.1534 L17.2058,37.1534 L17.2058,28.2237 Z" id="Shape" fill="#11083A"></path>
                    <path d="M16.905,51.3741 L10.9255,51.3741 C10.8259,51.3741 10.7458,51.4239 10.6853,51.4942 C10.6355,51.544 10.6159,51.6036 10.6159,51.6739 C10.6159,51.7042 10.6159,51.7237 10.6257,51.754 L10.6355,51.794 L11.8757,56.7735 L12.0153,57.3741 L12.3952,58.8936 L12.4157,58.9639 C12.445,59.0938 12.5651,59.1934 12.7058,59.1934 L16.905,59.1934 C17.0759,59.1934 17.2058,59.0538 17.2058,58.8838 L17.2058,51.6739 C17.2058,51.5137 17.0759,51.3741 16.905,51.3741 Z M12.945,58.584 L12.6052,57.2042 L12.4558,56.6133 L11.3054,51.9834 L16.6052,51.9834 L16.6052,58.584 L12.945,58.584 Z" id="Shape" fill="#11083A"></path>
                    <path d="M16.905,58.584 L12.7058,58.584 C12.5554,58.584 12.4255,58.6934 12.405,58.8438 L12.3952,58.8936 L12.1452,60.4639 L12.0554,61.0743 L11.7556,62.9542 C11.7351,63.044 11.7653,63.1338 11.8151,63.2042 C11.8757,63.2637 11.9655,63.3038 12.0456,63.3038 L16.905,63.3038 C17.0759,63.3038 17.2058,63.1739 17.2058,63.004 L17.2058,58.8838 C17.2058,58.7237 17.0759,58.584 16.905,58.584 Z M16.6052,62.7042 L12.405,62.7042 L12.6452,61.1739 L12.7458,60.584 L12.9655,59.1934 L16.6052,59.1934 L16.6052,62.7042 Z" id="Shape" fill="#11083A"></path>
                    <path d="M20.8151,68.4141 L20.8151,70.8633 L21.1159,70.8633 C21.2858,70.8633 21.4255,71.004 21.4255,71.1641 L21.4255,66.8243 C21.4255,67.4434 21.195,67.9942 20.8151,68.4141 Z M21.1159,64.7237 L10.9655,64.7237 C10.8259,64.7237 10.7058,64.8135 10.6755,64.9542 L9.0954,71.0538 L9.0856,71.0938 C9.0759,71.1133 9.0759,71.1436 9.0759,71.1641 C9.0759,71.2334 9.0954,71.294 9.1355,71.3536 C9.195,71.4239 9.2858,71.4737 9.3757,71.4737 L21.1159,71.4737 C21.2858,71.4737 21.4255,71.334 21.4255,71.1641 L21.4255,65.0235 C21.4255,64.8633 21.2858,64.7237 21.1159,64.7237 Z M20.8151,70.8633 L9.7653,70.8633 L11.195,65.334 L20.8151,65.334 L20.8151,70.8633 Z M20.8151,68.4141 L20.8151,70.8633 L21.1159,70.8633 C21.2858,70.8633 21.4255,71.004 21.4255,71.1641 L21.4255,66.8243 C21.4255,67.4434 21.195,67.9942 20.8151,68.4141 Z" id="Shape" fill="#11083A"></path>
                    <path d="M16.905,35.4034 L10.9255,35.4034 C10.7556,35.4034 10.6159,35.544 10.6159,35.7042 L10.6159,42.3038 C10.6159,42.3838 10.6452,42.4542 10.695,42.504 C10.7556,42.5635 10.8356,42.6036 10.9255,42.6036 L16.905,42.6036 C17.0759,42.6036 17.2058,42.4737 17.2058,42.3038 L17.2058,35.7042 C17.2058,35.544 17.0759,35.4034 16.905,35.4034 Z M16.6052,42.004 L11.2253,42.004 L11.2253,36.004 L16.6052,36.004 L16.6052,42.004 Z" id="Shape" fill="#11083A"></path>
                    <path d="M19.0153,58.584 C18.2956,58.584 17.6452,58.9034 17.2058,59.4141 C16.8259,59.834 16.6052,60.3936 16.6052,60.9942 L16.6052,66.8936 C16.6159,67.1036 16.6452,67.3038 16.7058,67.4942 C16.9851,68.4942 17.9157,69.2334 19.0153,69.2334 C19.7351,69.2334 20.3757,68.9141 20.8151,68.4141 C21.195,67.9942 21.4255,67.4434 21.4255,66.8243 L21.4255,60.9942 C21.4255,59.6641 20.3454,58.584 19.0153,58.584 Z M20.8151,66.8242 C20.8151,67.8134 20.0056,68.624 19.0153,68.624 C18.0153,68.624 17.2058,67.8134 17.2058,66.8242 L17.2058,60.9941 C17.2058,60.0039 18.0153,59.1933 19.0153,59.1933 C20.0056,59.1933 20.8151,60.0039 20.8151,60.9941 L20.8151,66.8242 Z" id="Shape" fill="#11083A"></path>
                    <path d="M15.0456,58.584 C14.8952,57.4639 13.9353,56.5938 12.7653,56.5938 C12.655,56.5938 12.5554,56.6036 12.4558,56.6133 C12.2556,56.6436 12.0554,56.6934 11.8757,56.7735 C11.0554,57.1241 10.4753,57.9336 10.4753,58.8838 C10.4753,59.9034 11.1452,60.7735 12.0554,61.0743 C12.2458,61.1338 12.4353,61.1739 12.6452,61.1739 C12.6853,61.1836 12.7253,61.1836 12.7653,61.1836 C13.9255,61.1836 14.8855,60.3243 15.0456,59.1934 C15.0554,59.0938 15.0651,58.9942 15.0651,58.8838 C15.0651,58.7842 15.0554,58.6836 15.0456,58.584 Z M12.7653,60.584 C12.7556,60.584 12.7556,60.584 12.7458,60.584 C12.5358,60.584 12.3356,60.544 12.1452,60.4639 C11.5251,60.2139 11.0759,59.6036 11.0759,58.8838 C11.0759,58.2237 11.4558,57.6534 12.0153,57.3741 C12.195,57.2842 12.3952,57.2237 12.6052,57.2042 C12.655,57.1934 12.7155,57.1934 12.7653,57.1934 C13.6052,57.1934 14.2956,57.794 14.4353,58.584 C14.4558,58.6836 14.4655,58.7842 14.4655,58.8838 C14.4655,58.9942 14.4558,59.0938 14.4353,59.1934 C14.2858,59.9834 13.5954,60.584 12.7653,60.584 Z" id="Shape" fill="#11083A"></path>
                    <rect id="Rectangle-path" fill="#48B980" x="13.612" y="32.4854" width="1" height="13.1416"></rect>
                    <path d="M35.986,65.9405 C35.819,65.9405 35.6823,65.8047 35.6823,65.6377 L35.6823,61.7413 C35.6823,61.5743 35.819,61.4395 35.986,61.4395 C36.1521,61.4395 36.2868,61.5743 36.2868,61.7413 L36.2868,65.6377 C36.2868,65.8047 36.1521,65.9405 35.986,65.9405 Z" id="Shape" fill="#48B980"></path>
                    <path d="M15.279,31.1221 C15.279,31.8741 14.6677,32.4854 13.9138,32.4854 C13.1608,32.4854 12.5495,31.8741 12.5495,31.1221 C12.5495,30.3682 13.1608,29.7579 13.9138,29.7579 C14.6677,29.7579 15.279,30.3682 15.279,31.1221 Z" id="Shape" fill="#FFCD2D"></path>
                    <path d="M13.9157,29.4542 C12.9958,29.4542 12.2458,30.2042 12.2458,31.1241 C12.2458,31.9434 12.8356,32.6133 13.6159,32.754 C13.7155,32.7735 13.8151,32.7842 13.9157,32.7842 C14.0153,32.7842 14.1159,32.7735 14.2155,32.754 C14.9958,32.6133 15.5856,31.9434 15.5856,31.1241 C15.5856,30.2042 14.8356,29.4542 13.9157,29.4542 Z M13.9157,32.1836 C13.3259,32.1836 12.8552,31.7042 12.8552,31.1241 C12.8552,30.5342 13.3259,30.0635 13.9157,30.0635 C14.4958,30.0635 14.9753,30.5342 14.9753,31.1241 C14.9753,31.7042 14.4958,32.1836 13.9157,32.1836 Z" id="Shape" fill="#11083A"></path>
                    <path d="M15.279,46.9902 C15.279,47.7451 14.6677,48.3554 13.9138,48.3554 C13.1608,48.3554 12.5495,47.7451 12.5495,46.9902 C12.5495,46.2363 13.1608,45.6269 13.9138,45.6269 C14.6677,45.627 15.279,46.2364 15.279,46.9902 Z" id="Shape" fill="#FFCD2D"></path>
                    <path d="M14.2155,45.3536 C14.1159,45.334 14.0153,45.3243 13.9157,45.3243 C13.8151,45.3243 13.7155,45.334 13.6159,45.3536 C12.8356,45.4942 12.2458,46.1739 12.2458,46.9942 C12.2458,47.9141 12.9958,48.6534 13.9157,48.6534 C14.8356,48.6534 15.5856,47.9141 15.5856,46.9942 C15.5856,46.1739 14.9958,45.4942 14.2155,45.3536 Z M13.9157,48.0538 C13.3259,48.0538 12.8552,47.5743 12.8552,46.9942 C12.8552,46.4034 13.3259,45.9239 13.9157,45.9239 C14.4958,45.9239 14.9753,46.4034 14.9753,46.9942 C14.9753,47.5742 14.4958,48.0538 13.9157,48.0538 Z" id="Shape" fill="#11083A"></path>
                    <path d="M61.0954,26.334 L55.1159,26.334 C54.945,26.334 54.8151,26.4737 54.8151,26.6338 L54.8151,51.6739 C54.8151,51.8438 54.945,51.9834 55.1159,51.9834 L61.0954,51.9834 C61.2653,51.9834 61.3952,51.8438 61.3952,51.6739 L61.3952,26.6338 C61.3952,26.4737 61.2653,26.334 61.0954,26.334 Z M55.4157,51.3741 L55.4157,26.9434 L60.7956,26.9434 L60.7956,51.3741 L55.4157,51.3741 Z" id="Shape" fill="#11083A"></path>
                    <path d="M58.4255,64.7237 L55.1159,64.7237 C54.945,64.7237 54.8151,64.8633 54.8151,65.0235 L54.8151,67.1934 C54.8151,67.3633 54.945,67.4942 55.1159,67.4942 L58.4255,67.4942 C58.5954,67.4942 58.7253,67.3633 58.7253,67.1934 L58.7253,65.0235 C58.7253,64.8633 58.5954,64.7237 58.4255,64.7237 Z M58.1257,66.8936 L55.4157,66.8936 L55.4157,65.334 L58.1257,65.334 L58.1257,66.8936 Z" id="Shape" fill="#11083A"></path>
                    <rect id="Rectangle-path" fill="#120E3B" x="52.2614" y="27.9229" width="2.8545" height="9.5332"></rect>
                    <path d="M55.1159,27.6241 L52.2653,27.6241 C52.0954,27.6241 51.9558,27.754 51.9558,27.9239 L51.9558,37.4542 C51.9558,37.6241 52.0954,37.754 52.2653,37.754 L55.1159,37.754 C55.2858,37.754 55.4157,37.6241 55.4157,37.4542 L55.4157,27.9239 C55.4157,27.754 55.2858,27.6241 55.1159,27.6241 Z M52.5651,28.2237 L54.8151,28.2237 L54.8151,37.1534 L52.5651,37.1534 L52.5651,28.2237 Z" id="Shape" fill="#11083A"></path>
                    <path d="M55.1159,51.9834 C54.945,51.9834 54.8151,51.8438 54.8151,51.6739 L54.8151,58.8838 C54.8151,58.7237 54.945,58.584 55.1159,58.584 L55.4157,58.584 L55.4157,51.9834 L55.1159,51.9834 Z M61.3356,51.4942 C61.2751,51.4239 61.195,51.3741 61.0954,51.3741 L55.1159,51.3741 C54.945,51.3741 54.8151,51.5137 54.8151,51.6739 L54.8151,58.8838 C54.8151,59.0538 54.945,59.1934 55.1159,59.1934 L59.3151,59.1934 C59.4558,59.1934 59.5759,59.0938 59.6052,58.9639 L59.6257,58.8936 L60.0056,57.3741 L60.1452,56.7735 L61.3952,51.754 C61.405,51.7237 61.3952,51.7042 61.3952,51.6739 L61.3952,51.6338 C61.3855,51.584 61.3659,51.5342 61.3356,51.4942 Z M59.5651,56.6133 L59.4157,57.2042 L59.0759,58.584 L55.4157,58.584 L55.4157,51.9834 L60.7155,51.9834 L59.5651,56.6133 Z M55.1159,51.9834 C54.945,51.9834 54.8151,51.8438 54.8151,51.6739 L54.8151,58.8838 C54.8151,58.7237 54.945,58.584 55.1159,58.584 L55.4157,58.584 L55.4157,51.9834 L55.1159,51.9834 Z" id="Shape" fill="#11083A"></path>
                    <path d="M59.9655,61.0742 L59.8757,60.4638 L59.6257,58.8935 L59.6159,58.8437 C59.5954,58.6933 59.4655,58.5839 59.3151,58.5839 L55.1159,58.5839 C54.945,58.5839 54.8151,58.7236 54.8151,58.8837 L54.8151,63.0039 C54.8151,63.1738 54.945,63.3037 55.1159,63.3037 L59.9753,63.3037 C60.0554,63.3037 60.1452,63.2636 60.2058,63.2041 C60.2556,63.1337 60.2858,63.0439 60.2653,62.9541 L59.9655,61.0742 Z M55.4157,62.7042 L55.4157,59.1934 L59.0554,59.1934 L59.2751,60.584 L59.3757,61.1739 L59.6159,62.7042 L55.4157,62.7042 Z" id="Shape" fill="#11083A"></path>
                    <polygon id="Shape" fill="#120E3B" points="61.0983 36.4112 63.2468 36.4112 61.8142 42.2061 61.0983 42.2061"></polygon>
                    <path d="M63.4851,36.2237 C63.4255,36.1534 63.3356,36.1133 63.2458,36.1133 L61.0954,36.1133 C60.9353,36.1133 60.7956,36.2442 60.7956,36.4141 L60.7956,42.2334 C60.8151,42.3936 60.945,42.504 61.0954,42.504 L61.8151,42.504 C61.8259,42.504 61.8454,42.504 61.8552,42.4942 C61.9753,42.4834 62.0759,42.4034 62.1052,42.2735 L62.1159,42.2139 L63.5358,36.4834 C63.5651,36.3936 63.5456,36.3038 63.4851,36.2237 Z M61.5759,41.9034 L61.3952,41.9034 L61.3952,36.7139 L62.8552,36.7139 L61.5759,41.9034 Z" id="Shape" fill="#11083A"></path>
                    <path d="M60.1452,56.7735 C59.9655,56.6934 59.7653,56.6436 59.5651,56.6133 C59.4655,56.6036 59.3659,56.5938 59.2556,56.5938 C58.0856,56.5938 57.1257,57.4639 56.9753,58.584 C56.9655,58.6836 56.9558,58.7842 56.9558,58.8838 C56.9558,58.9942 56.9655,59.0938 56.9753,59.1934 C57.1355,60.3243 58.0954,61.1836 59.2556,61.1836 C59.2956,61.1836 59.3356,61.1836 59.3757,61.1739 C59.5856,61.1739 59.7751,61.1338 59.9655,61.0743 C60.8757,60.7735 61.5456,59.9034 61.5456,58.8838 C61.5456,57.9336 60.9655,57.1241 60.1452,56.7735 Z M59.8757,60.4639 C59.6853,60.544 59.4851,60.584 59.2751,60.584 C59.2653,60.584 59.2653,60.584 59.2556,60.584 C58.4255,60.584 57.7351,59.9834 57.5856,59.1934 C57.5651,59.0938 57.5554,58.9942 57.5554,58.8838 C57.5554,58.7842 57.5651,58.6836 57.5856,58.584 C57.7253,57.794 58.4157,57.1934 59.2556,57.1934 C59.3054,57.1934 59.3659,57.1934 59.4157,57.2042 C59.6257,57.2237 59.8259,57.2842 60.0056,57.3741 C60.5651,57.6534 60.945,58.2237 60.945,58.8838 C60.945,59.6036 60.4958,60.2139 59.8757,60.4639 Z" id="Shape" fill="#11083A"></path>
                    <polygon id="Shape" fill="#120E3B" points="61.0983 45.5391 62.3396 45.5391 61.8142 42.2325 61.0983 42.2325"></polygon>
                    <path d="M62.1159,42.2139 L62.1159,42.1836 C62.0856,42.0538 62.0056,41.9639 61.8855,41.9336 C61.8659,41.9239 61.8356,41.9239 61.8151,41.9239 L61.0954,41.9239 C60.945,41.9239 60.8151,42.044 60.7956,42.2042 L60.7956,45.544 C60.7956,45.7042 60.9353,45.8438 61.0954,45.8438 L62.3356,45.8438 C62.4255,45.8438 62.5153,45.8038 62.5759,45.7334 C62.6257,45.6641 62.655,45.5743 62.6355,45.4942 L62.1159,42.2139 Z M61.3952,45.2334 L61.3952,42.5342 L61.5554,42.5342 L61.9851,45.2334 L61.3952,45.2334 Z" id="Shape" fill="#11083A"></path>
                    <polygon id="Shape" fill="#120E3B" points="10.9226 36.4112 8.7741 36.4112 10.2077 42.2061 10.9226 42.2061"></polygon>
                    <path d="M10.9255,36.1133 L8.7751,36.1133 C8.6853,36.1133 8.5954,36.1534 8.5358,36.2237 C8.4753,36.3038 8.4558,36.3936 8.4851,36.4834 L9.905,42.2139 L9.9157,42.2735 C9.945,42.4034 10.0456,42.4834 10.1657,42.4942 C10.1755,42.504 10.195,42.504 10.2058,42.504 L10.9255,42.504 C11.0759,42.504 11.2058,42.3936 11.2253,42.2334 L11.2253,36.4141 C11.2253,36.2442 11.0856,36.1133 10.9255,36.1133 Z M10.6159,36.7139 L10.6159,41.9034 L10.445,41.9034 L9.1657,36.7139 L10.6159,36.7139 Z" id="Shape" fill="#11083A"></path>
                    <polygon id="Shape" fill="#120E3B" points="10.9226 45.5391 9.6813 45.5391 10.2077 42.2325 10.9226 42.2325"></polygon>
                    <path d="M10.9255,41.9239 L10.2058,41.9239 C10.1853,41.9239 10.155,41.9239 10.1355,41.9336 C10.0153,41.9639 9.9353,42.0538 9.905,42.1836 L9.905,42.2139 L9.3855,45.4942 C9.3659,45.5743 9.3952,45.6641 9.4558,45.7334 C9.5056,45.8038 9.5954,45.8438 9.6853,45.8438 L10.9255,45.8438 C11.0856,45.8438 11.2253,45.7042 11.2253,45.544 L11.2253,42.2042 C11.2058,42.044 11.0759,41.9239 10.9255,41.9239 Z M10.4655,42.5342 L10.6159,42.5342 L10.6159,45.2334 L10.0358,45.2334 L10.4655,42.5342 Z" id="Shape" fill="#11083A"></path>
                    <path d="M52.5056,64.7237 C52.6755,64.7237 52.8054,64.8633 52.8054,65.0235 C52.8054,65.1934 52.6755,65.334 52.5056,65.334 L54.8151,65.334 L54.8151,64.7237 L52.5056,64.7237 Z M62.9353,71.0938 L62.9255,71.0538 L61.3552,64.9542 C61.3151,64.8135 61.195,64.7237 61.0554,64.7237 L50.905,64.7237 C50.7351,64.7237 50.5954,64.8633 50.5954,65.0235 L50.5954,71.1641 C50.5954,71.334 50.7351,71.4737 50.905,71.4737 L62.6452,71.4737 C62.7351,71.4737 62.8259,71.4239 62.8855,71.3536 C62.9255,71.294 62.945,71.2334 62.945,71.1641 C62.945,71.1436 62.945,71.1133 62.9353,71.0938 Z M51.2058,65.334 L60.8259,65.334 L62.2556,70.8633 L51.2058,70.8633 L51.2058,65.334 Z M52.5056,64.7237 C52.6755,64.7237 52.8054,64.8633 52.8054,65.0235 C52.8054,65.1934 52.6755,65.334 52.5056,65.334 L54.8151,65.334 L54.8151,64.7237 L52.5056,64.7237 Z" id="Shape" fill="#11083A"></path>
                    <path d="M61.0954,35.4034 L55.1159,35.4034 C54.945,35.4034 54.8151,35.544 54.8151,35.7042 L54.8151,42.3038 C54.8151,42.4737 54.945,42.6036 55.1159,42.6036 L61.0954,42.6036 C61.1853,42.6036 61.2653,42.5635 61.3151,42.504 C61.3659,42.4542 61.3952,42.3838 61.3952,42.3038 L61.3952,35.7042 C61.3952,35.544 61.2653,35.4034 61.0954,35.4034 Z M55.4157,42.004 L55.4157,36.004 L60.7956,36.004 L60.7956,42.004 L55.4157,42.004 Z" id="Shape" fill="#11083A"></path>
                    <path d="M54.8151,59.4141 C54.3757,58.9034 53.7253,58.584 53.0056,58.584 C51.6755,58.584 50.5954,59.6641 50.5954,60.9942 L50.5954,66.8243 C50.5954,67.4434 50.8259,67.9942 51.2058,68.4141 C51.6452,68.9141 52.2858,69.2334 53.0056,69.2334 C54.1052,69.2334 55.0358,68.4942 55.3151,67.4942 C55.3757,67.3038 55.405,67.1036 55.4157,66.8936 L55.4157,60.9942 C55.4157,60.3936 55.195,59.834 54.8151,59.4141 Z M54.8151,66.8242 C54.8151,67.8134 54.0056,68.624 53.0056,68.624 C52.0153,68.624 51.2058,67.8134 51.2058,66.8242 L51.2058,60.9941 C51.2058,60.0039 52.0153,59.1933 53.0056,59.1933 C54.0056,59.1933 54.8151,60.0039 54.8151,60.9941 L54.8151,66.8242 Z" id="Shape" fill="#11083A"></path>
                    <rect id="Rectangle-path" fill="#48B980" x="57.8044" y="32.4854" width="1" height="13.1416"></rect>
                    <path d="M56.7419,31.1221 C56.7419,31.8741 57.3532,32.4854 58.1071,32.4854 C58.861,32.4854 59.4714,31.8741 59.4714,31.1221 C59.4714,30.3682 58.861,29.7579 58.1071,29.7579 C57.3532,29.7579 56.7419,30.3682 56.7419,31.1221 Z" id="Shape" fill="#FFCD2D"></path>
                    <path d="M58.1052,29.4542 C57.1853,29.4542 56.4353,30.2042 56.4353,31.1241 C56.4353,31.9434 57.0251,32.6133 57.8054,32.754 C57.905,32.7735 58.0056,32.7842 58.1052,32.7842 C58.2058,32.7842 58.3054,32.7735 58.405,32.754 C59.1853,32.6133 59.7751,31.9434 59.7751,31.1241 C59.7751,30.2042 59.0251,29.4542 58.1052,29.4542 Z M58.1052,32.1836 C57.5251,32.1836 57.0456,31.7042 57.0456,31.1241 C57.0456,30.5342 57.5251,30.0635 58.1052,30.0635 C58.695,30.0635 59.1657,30.5342 59.1657,31.1241 C59.1657,31.7042 58.695,32.1836 58.1052,32.1836 Z" id="Shape" fill="#11083A"></path>
                    <path d="M56.7419,46.9902 C56.7419,47.7451 57.3532,48.3554 58.1071,48.3554 C58.861,48.3554 59.4714,47.7451 59.4714,46.9902 C59.4714,46.2363 58.861,45.6269 58.1071,45.6269 C57.3532,45.627 56.7419,46.2364 56.7419,46.9902 Z" id="Shape" fill="#FFCD2D"></path>
                    <path d="M58.405,45.3536 C58.3054,45.334 58.2058,45.3243 58.1052,45.3243 C58.0056,45.3243 57.905,45.334 57.8054,45.3536 C57.0251,45.4942 56.4353,46.1739 56.4353,46.9942 C56.4353,47.9141 57.1853,48.6534 58.1052,48.6534 C59.0251,48.6534 59.7751,47.9141 59.7751,46.9942 C59.7751,46.1739 59.1853,45.4942 58.405,45.3536 Z M58.1052,48.0538 C57.5251,48.0538 57.0456,47.5743 57.0456,46.9942 C57.0456,46.4034 57.5251,45.9239 58.1052,45.9239 C58.695,45.9239 59.1657,46.4034 59.1657,46.9942 C59.1657,47.5742 58.695,48.0538 58.1052,48.0538 Z" id="Shape" fill="#11083A"></path>
                    <path d="M18.4597,65.3301 C18.2917,65.3301 18.156,65.1954 18.156,65.0284 L18.156,60.9463 C18.156,60.7793 18.2917,60.6436 18.4597,60.6436 C18.6257,60.6436 18.7614,60.7793 18.7614,60.9463 L18.7614,65.0284 C18.7614,65.1954 18.6257,65.3301 18.4597,65.3301 Z" id="Shape" fill="#11083A"></path>
                    <path d="M18.4597,67.2364 C18.2917,67.2364 18.156,67.1016 18.156,66.9346 L18.156,65.0284 C18.156,64.8604 18.2917,64.7256 18.4597,64.7256 C18.6257,64.7256 18.7614,64.8604 18.7614,65.0284 L18.7614,66.9346 C18.7614,67.1016 18.6257,67.2364 18.4597,67.2364 Z" id="Shape" fill="#49BA81"></path>
                    <path d="M19.4675,65.3301 C19.2995,65.3301 19.1647,65.1954 19.1647,65.0284 L19.1647,60.9463 C19.1647,60.7793 19.2995,60.6436 19.4675,60.6436 C19.6345,60.6436 19.7692,60.7793 19.7692,60.9463 L19.7692,65.0284 C19.7692,65.1954 19.6345,65.3301 19.4675,65.3301 Z" id="Shape" fill="#11083A"></path>
                    <path d="M19.4675,67.2364 C19.2995,67.2364 19.1647,67.1016 19.1647,66.9346 L19.1647,65.0284 C19.1647,64.8604 19.2995,64.7256 19.4675,64.7256 C19.6345,64.7256 19.7692,64.8604 19.7692,65.0284 L19.7692,66.9346 C19.7692,67.1016 19.6345,67.2364 19.4675,67.2364 Z" id="Shape" fill="#49BA81"></path>
                    <path d="M52.5036,65.3301 C52.3366,65.3301 52.2009,65.1954 52.2009,65.0284 L52.2009,60.9463 C52.2009,60.7793 52.3366,60.6436 52.5036,60.6436 C52.6706,60.6436 52.8054,60.7793 52.8054,60.9463 L52.8054,65.0284 C52.8054,65.1954 52.6706,65.3301 52.5036,65.3301 Z" id="Shape" fill="#11083A"></path>
                    <path d="M52.5036,67.2364 C52.3366,67.2364 52.2009,67.1016 52.2009,66.9346 L52.2009,65.0284 C52.2009,64.8604 52.3366,64.7256 52.5036,64.7256 C52.6706,64.7256 52.8054,64.8604 52.8054,65.0284 L52.8054,66.9346 C52.8054,67.1016 52.6706,67.2364 52.5036,67.2364 Z" id="Shape" fill="#49BA81"></path>
                    <path d="M53.5124,65.3301 C53.3444,65.3301 53.2097,65.1954 53.2097,65.0284 L53.2097,60.9463 C53.2097,60.7793 53.3444,60.6436 53.5124,60.6436 C53.6784,60.6436 53.8142,60.7793 53.8142,60.9463 L53.8142,65.0284 C53.8142,65.1954 53.6784,65.3301 53.5124,65.3301 Z" id="Shape" fill="#11083A"></path>
                    <path d="M53.5124,67.2364 C53.3444,67.2364 53.2097,67.1016 53.2097,66.9346 L53.2097,65.0284 C53.2097,64.8604 53.3444,64.7256 53.5124,64.7256 C53.6784,64.7256 53.8142,64.8604 53.8142,65.0284 L53.8142,66.9346 C53.8142,67.1016 53.6784,67.2364 53.5124,67.2364 Z" id="Shape" fill="#49BA81"></path>
                    <path d="M28.2497,48.4219 L24.8757,48.4219 C24.7097,48.4219 24.5739,48.2862 24.5739,48.1202 C24.5739,47.9532 24.7097,47.8165 24.8757,47.8165 L28.2497,47.8165 C28.4157,47.8165 28.5505,47.9532 28.5505,48.1202 C28.5505,48.2862 28.4157,48.4219 28.2497,48.4219 Z" id="Shape" fill="#11083A"></path>
                    <path d="M28.2497,46.4063 L24.8757,46.4063 C24.7097,46.4063 24.5739,46.2715 24.5739,46.1045 C24.5739,45.9366 24.7097,45.8018 24.8757,45.8018 L28.2497,45.8018 C28.4157,45.8018 28.5505,45.9366 28.5505,46.1045 C28.5505,46.2715 28.4157,46.4063 28.2497,46.4063 Z" id="Shape" fill="#11083A"></path>
                    <path d="M28.2497,44.3907 L24.8757,44.3907 C24.7097,44.3907 24.5739,44.2549 24.5739,44.0889 C24.5739,43.9209 24.7097,43.7852 24.8757,43.7852 L28.2497,43.7852 C28.4157,43.7852 28.5505,43.9209 28.5505,44.0889 C28.5505,44.2549 28.4157,44.3907 28.2497,44.3907 Z" id="Shape" fill="#11083A"></path>
                    <path d="M28.2497,42.375 L24.8757,42.375 C24.7097,42.375 24.5739,42.2403 24.5739,42.0723 C24.5739,41.9053 24.7097,41.7706 24.8757,41.7706 L28.2497,41.7706 C28.4157,41.7706 28.5505,41.9053 28.5505,42.0723 C28.5505,42.2402 28.4157,42.375 28.2497,42.375 Z" id="Shape" fill="#11083A"></path>
                    <path d="M15.8347,56.2911 L14.0993,56.2911 C13.9333,56.2911 13.7956,56.1563 13.7956,55.9874 C13.7956,55.8204 13.9333,55.6856 14.0993,55.6856 L15.8347,55.6856 C16.0017,55.6856 16.1374,55.8204 16.1374,55.9874 C16.1374,56.1563 16.0017,56.2911 15.8347,56.2911 Z" id="Shape" fill="#11083A"></path>
                    <path d="M15.8347,55.252 L14.0993,55.252 C13.9333,55.252 13.7956,55.1172 13.7956,54.9502 C13.7956,54.7823 13.9333,54.6475 14.0993,54.6475 L15.8347,54.6475 C16.0017,54.6475 16.1374,54.7823 16.1374,54.9502 C16.1374,55.1172 16.0017,55.252 15.8347,55.252 Z" id="Shape" fill="#11083A"></path>
                    <path d="M15.8347,54.2149 L14.0993,54.2149 C13.9333,54.2149 13.7956,54.0801 13.7956,53.9131 C13.7956,53.7461 13.9333,53.6104 14.0993,53.6104 L15.8347,53.6104 C16.0017,53.6104 16.1374,53.7461 16.1374,53.9131 C16.1374,54.0801 16.0017,54.2149 15.8347,54.2149 Z" id="Shape" fill="#11083A"></path>
                    <path d="M15.8347,53.1778 L14.0993,53.1778 C13.9333,53.1778 13.7956,53.042 13.7956,52.875 C13.7956,52.7081 13.9333,52.5733 14.0993,52.5733 L15.8347,52.5733 C16.0017,52.5733 16.1374,52.7081 16.1374,52.875 C16.1374,53.042 16.0017,53.1778 15.8347,53.1778 Z" id="Shape" fill="#11083A"></path>
                    <path d="M57.8913,56.2911 L56.156,56.2911 C55.987,56.2911 55.8522,56.1563 55.8522,55.9874 C55.8522,55.8204 55.987,55.6856 56.156,55.6856 L57.8913,55.6856 C58.0583,55.6856 58.194,55.8204 58.194,55.9874 C58.194,56.1563 58.0583,56.2911 57.8913,56.2911 Z" id="Shape" fill="#11083A"></path>
                    <path d="M57.8913,55.252 L56.156,55.252 C55.987,55.252 55.8522,55.1172 55.8522,54.9502 C55.8522,54.7823 55.987,54.6475 56.156,54.6475 L57.8913,54.6475 C58.0583,54.6475 58.194,54.7823 58.194,54.9502 C58.194,55.1172 58.0583,55.252 57.8913,55.252 Z" id="Shape" fill="#11083A"></path>
                    <path d="M57.8913,54.2149 L56.156,54.2149 C55.987,54.2149 55.8522,54.0801 55.8522,53.9131 C55.8522,53.7461 55.987,53.6104 56.156,53.6104 L57.8913,53.6104 C58.0583,53.6104 58.194,53.7461 58.194,53.9131 C58.194,54.0801 58.0583,54.2149 57.8913,54.2149 Z" id="Shape" fill="#11083A"></path>
                    <path d="M57.8913,53.1778 L56.156,53.1778 C55.987,53.1778 55.8522,53.042 55.8522,52.875 C55.8522,52.7081 55.987,52.5733 56.156,52.5733 L57.8913,52.5733 C58.0583,52.5733 58.194,52.7081 58.194,52.875 C58.194,53.042 58.0583,53.1778 57.8913,53.1778 Z" id="Shape" fill="#11083A"></path>
                    <path d="M49.5251,50.004 L48.1657,48.6436 C48.1052,48.584 48.0251,48.5538 47.945,48.5538 L46.0153,48.5538 C45.9353,48.5538 45.8659,48.584 45.8054,48.6436 L44.445,50.004 C44.3855,50.0635 44.3552,50.1436 44.3552,50.2237 L44.3552,52.1436 C44.3552,52.2237 44.3855,52.3038 44.445,52.3633 L45.8054,53.7237 C45.8659,53.7842 45.9353,53.8135 46.0153,53.8135 L47.945,53.8135 C48.0251,53.8135 48.1052,53.7842 48.1657,53.7237 L49.5251,52.3633 C49.5856,52.3038 49.6159,52.2237 49.6159,52.1436 L49.6159,50.2237 C49.6159,50.1436 49.5856,50.0635 49.5251,50.004 Z M49.0056,52.0235 L47.8259,53.2139 L46.1452,53.2139 L44.9558,52.0235 L44.9558,50.3438 L46.1452,49.1641 L47.8259,49.1641 L49.0056,50.3438 L49.0056,52.0235 Z" id="Shape" fill="#11083A"></path>
                    <path d="M46.0358,18.8135 C46.0358,19.5665 46.6452,20.1788 47.3991,20.1788 C48.153,20.1788 48.7634,19.5665 48.7634,18.8135 C48.7634,18.0601 48.153,17.4498 47.3991,17.4498 C46.6452,17.4498 46.0358,18.0601 46.0358,18.8135 Z" id="Shape" fill="#49BA81"></path>
                    <path d="M47.3952,17.1436 C46.4753,17.1436 45.7351,17.8936 45.7351,18.814 C45.7351,19.7339 46.4753,20.4839 47.3952,20.4839 C48.3151,20.4839 49.0651,19.7339 49.0651,18.814 C49.0651,17.8936 48.3151,17.1436 47.3952,17.1436 Z M47.3952,19.8736 C46.8151,19.8736 46.3356,19.3936 46.3356,18.814 C46.3356,18.2339 46.8151,17.754 47.3952,17.754 C47.9851,17.754 48.4558,18.2339 48.4558,18.814 C48.4558,19.3936 47.9851,19.8736 47.3952,19.8736 Z" id="Shape" fill="#11083A"></path>
                    <path d="M30.2351,72.3038 C30.2351,72.3438 30.2253,72.3838 30.2155,72.4239 C30.1657,72.5342 30.0651,72.6133 29.9353,72.6133 L1.7351,72.6133 L0.695,72.0137 C0.7058,72.004 0.7155,72.004 0.7253,72.004 L29.9353,72.004 C30.1052,72.004 30.2351,72.1436 30.2351,72.3038 Z" id="Shape" fill="#11083A"></path>
                    <path d="M71.3659,72.004 L70.3151,72.6133 L42.1355,72.6133 C41.9655,72.6133 41.8356,72.4737 41.8356,72.3038 C41.8356,72.1436 41.9655,72.004 42.1355,72.004 L71.3454,72.004 C71.3552,72.004 71.3552,72.004 71.3659,72.004 Z" id="Shape" fill="#11083A"></path>
                </g>
            </g>
        </g>
    </g>
</svg>