<?xml version="1.0" encoding="utf-8"?>
<!-- Generator: Adobe Illustrator 16.0.0, SVG Export Plug-In . SVG Version: 6.00 Build 0)  -->
<!DOCTYPE svg PUBLIC "-//W3C//DTD SVG 1.1//EN" "http://www.w3.org/Graphics/SVG/1.1/DTD/svg11.dtd">
<svg version="1.1" id="Layer_1" xmlns="http://www.w3.org/2000/svg" xmlns:xlink="http://www.w3.org/1999/xlink" x="0px" y="0px"
	 width="500px" height="500px" viewBox="0 0 500 500" enable-background="new 0 0 500 500" xml:space="preserve">
<g id="Layer_63_25_" enable-background="new    ">
	
		<linearGradient id="SVGID_1_" gradientUnits="userSpaceOnUse" x1="81.4888" y1="80.1562" x2="514.3945" y2="80.1562" gradientTransform="matrix(1 0 0 -1 -47.5 330)">
		<stop  offset="0" style="stop-color:#FFCE08"/>
		<stop  offset="1" style="stop-color:#3E00FF"/>
	</linearGradient>
	<polygon fill="url(#SVGID_1_)" points="466.895,124.874 466.895,374.814 250.461,499.785 77.261,399.809 76.479,399.34 
		33.989,374.814 33.989,124.874 250.461,-0.097 	"/>
</g>
<path fill="#FFFFFF" d="M432.056,146.854v207.511l-0.039,0.037l-4.256,2.423l-1.289,0.741l-0.508,0.273l-3.437,1.991l-12.262,7.067
	l-0.78,0.469l-7.537,4.335l-0.624,0.351l-5.78,3.359l-1.835,1.054l-0.547,0.312l-1.835,1.056l-0.938,0.507l-0.116,0.039
	l-0.392,0.156l-0.43,0.273l-11.832,6.795l-3.202,1.836l-4.1,2.343l-0.156,0.116l-4.803,2.772l-1.759,1.015l-0.077,0.078h-0.039
	l-6.015,3.477l-3.396,2.029l-4.92,2.812l-0.195,0.117l-0.273,0.156l-0.312,0.194l-1.602,0.938l-0.116,0.039l-0.195,0.117
	l-0.195,0.078l-0.233,0.155v0.039l-3.046,1.757l-0.703,0.352l-0.078,0.078l-0.156,0.078l-3.943,2.266l-0.547,0.312l-0.586,0.352
	l-0.194,0.117l-1.25,0.703l-0.938,0.547h-0.039l-0.272,0.156l-2.499,1.482l-0.781,0.468l-1.289,0.742l-0.977,0.547
	c0,0.039-0.038,0.039-0.038,0.039l-1.837,1.056l-1.64,0.938l-0.156,0.117l-2.226,1.287l-9.099,5.232l-2.461,1.406l-0.233,0.117
	l-13.668,7.927l-0.078,0.039l-0.039,0.039l-1.562,0.896l-1.366,0.781l-1.953,1.133l-0.547,0.312l-4.882,2.812l-3.825,2.227
	l-1.523,0.858l-0.038,0.039l-1.681,0.977l-1.562,0.897l-9.217,5.312l-1.406,0.819l-0.155,0.078l-0.703,0.392l-1.951,1.133
	l-7.303,4.217l-2.188,1.25h-0.039l-1.248,0.742l-1.875,1.093l-0.547-0.312l-4.999-2.891l-3.319-1.913l-0.117-0.039l-3.553-2.068
	l-0.664-0.392l-0.195-0.116l-2.382-1.367l-0.664-0.392l-13.121-7.575l-0.156-0.116l-8.083-4.647l-18.548-10.777l-2.382-1.366
	l-2.694-1.522l-3.631-2.107l-0.859-0.469l-0.352-0.234l-0.117-0.078l-8.708-5.037l-4.764-2.773l-1.445-0.818l-1.523-0.859
	l-0.898-0.507l-1.015-0.586l-0.938-0.586l-0.351-0.195l-1.367-0.78l-0.312-0.195l-0.312-0.156l-0.156-0.117l-5.077-2.89
	l-0.195-0.117l-0.586-0.312l-1.445-0.859l-6.678-3.866l-9.801-5.701l-8.162-4.687l-3.202-1.836l-0.352-0.194l-1.953-1.132
	l-0.039-0.039l-0.82-0.469h-0.039l-4.061-2.344c-0.039-0.039-0.039-0.039-0.078-0.039l-7.263-4.218l-3.983-2.305l-5.194-3.006
	l-2.812-1.681l-0.156-0.078l-0.078-0.039l-1.132-0.664c0,0-0.039,0-0.078-0.038l-1.015-0.587l-0.078-0.038l-12.887-7.419
	l-13.316-7.692l-0.352-0.194l-0.312-0.156l-0.117-0.078V146.853l22.102-12.73l3.007-1.796h0.039l0.976-0.547l2.265-1.289
	l6.833-3.944l8.864-5.116l3.202-1.875l0.586-0.352l8.083-4.646l3.827-2.226l3.944-2.304l1.64-0.937l1.757-1.015l0.976-0.547
	c0.039,0,0.039,0,0.039,0l2.226-1.289l12.613-7.263l6.17-3.593l0.664-0.352l6.482-3.709l3.045-1.757l1.484-0.859l1.718-1.016
	l4.295-2.538l2.031-1.171l8.903-5.077l2.694-1.601l5.467-3.124h0.039l0.195-0.117l22.336-12.886l0.742-0.43l1.054-0.625
	l23.704-13.707l5.623-3.241l4.14,2.421L281.91,60.24l10.152,5.857L307.488,75l5.231,3.007l25.931,14.956l4.061,2.382l8.981,5.116
	l3.396,1.953l5.937,3.436l5.35,3.085l3.124,1.796l0.352,0.234l7.068,4.061l14.761,8.513l0.156,0.117v0.039l1.015,0.547l1.017,0.625
	l1.562,0.898l3.592,2.07l2.109,1.21l0.078,0.039l7.497,4.334l3.046,1.718l1.718,0.976l7.576,4.374L432.056,146.854z"/>
<g>
	<path fill="#15003E" d="M303.562,449.312l6.113-3.513l0.278,0.48c0.645,1.112,1.075,2.182,1.312,3.181
		c0.194,0.941,0.19,1.934-0.02,2.975c-0.484,2.335-1.785,4.107-3.905,5.331c-2.069,1.19-4.271,1.466-6.607,0.819
		c-2.343-0.651-4.115-2.032-5.324-4.134c-1.235-2.146-1.533-4.396-0.892-6.757c0.641-2.36,2.031-4.164,4.188-5.407
		c1.155-0.664,2.371-1.049,3.645-1.156c1.226-0.084,2.612,0.143,4.146,0.664l-0.717,2.444c-2.144-0.919-4.088-0.877-5.827,0.126
		c-1.571,0.898-2.569,2.191-3.009,3.89c-0.449,1.667-0.213,3.303,0.705,4.9c0.945,1.65,2.314,2.665,4.11,3.051
		c1.679,0.351,3.158,0.156,4.458-0.587c1.095-0.63,1.865-1.563,2.315-2.808c0.44-1.25,0.423-2.418-0.069-3.523l-3.695,2.124
		L303.562,449.312z"/>
	
		<rect x="317.572" y="432.386" transform="matrix(0.8666 -0.4991 0.4991 0.8666 -177.5048 217.9729)" fill="#15003E" width="2.575" height="17.072"/>
	<polygon fill="#15003E" points="329.686,427.638 336.989,440.336 334.762,441.617 327.455,428.926 324.054,430.883 
		322.845,428.785 331.867,423.592 333.072,425.688 	"/>
	<path fill="#15003E" d="M349.829,414.307l1.518,2.643c-1.915-0.34-3.562-0.11-4.938,0.683c-1.519,0.877-2.49,2.162-2.902,3.849
		c-0.423,1.688-0.18,3.32,0.726,4.893c0.889,1.553,2.174,2.562,3.832,3.028c1.662,0.461,3.249,0.256,4.777-0.618
		c0.778-0.454,1.377-0.965,1.777-1.536c0.231-0.306,0.454-0.656,0.656-1.064c0.201-0.407,0.399-0.869,0.587-1.389l1.552,2.697
		c-0.857,1.464-1.998,2.597-3.401,3.408c-2.111,1.217-4.34,1.511-6.681,0.899c-2.35-0.633-4.126-1.998-5.339-4.1
		c-1.083-1.884-1.419-3.924-1.026-6.116c0.484-2.692,1.957-4.735,4.391-6.138C346.683,414.68,348.174,414.298,349.829,414.307"/>
	<path fill="#FFFFFF" d="M360.651,413.643c-1.197-2.082-1.461-4.311-0.798-6.678c0.663-2.372,2.06-4.172,4.19-5.404
		c2.109-1.209,4.353-1.494,6.724-0.856c2.388,0.642,4.184,2.014,5.399,4.126c1.221,2.124,1.507,4.37,0.835,6.729
		c-0.671,2.363-2.085,4.172-4.244,5.409c-1.91,1.106-4.008,1.423-6.288,0.98C363.953,417.451,362.017,416.014,360.651,413.643
		 M362.912,412.372c0.941,1.632,2.266,2.662,3.97,3.081c1.697,0.424,3.266,0.225,4.699-0.6c1.552-0.892,2.551-2.181,3.005-3.865
		c0.438-1.701,0.217-3.33-0.687-4.885c-0.908-1.58-2.193-2.599-3.859-3.056c-1.666-0.473-3.275-0.264-4.82,0.629
		c-1.541,0.89-2.527,2.171-2.971,3.853C361.799,409.203,362.021,410.816,362.912,412.372"/>
	
		<rect x="383.931" y="394.21" transform="matrix(0.8664 -0.4994 0.4994 0.8664 -149.6465 246.1723)" fill="#15003E" width="2.576" height="17.066"/>
	<polygon fill="#15003E" points="399.235,404.518 390.141,388.713 407.431,393.793 401.513,383.508 403.739,382.227 
		412.777,397.927 395.502,392.874 401.467,403.23 	"/>
</g>
<g id="Layer_2_26_">
	<g id="Layer_16_26_">
		<path opacity="0.13" enable-background="new    " d="M412.026,135.274l-2.069-1.171l-2.812-1.64l-3.007-1.757l-0.43-0.235
			l-1.913-1.093l-1.992-1.132l-3.515-2.031l-28.312-16.323l-6.678-3.827l-2.812-1.64l-1.757-1.016l-1.914-1.132l-0.195-0.078
			l-1.641-0.976l-1.602-0.937l-20.812-11.988L254.42,44.406l-2.07-1.21l-1.834,1.054l-66.812,38.58L164.1,94.154l-5.077,2.929
			l-2.07,1.21l-0.39,0.195c-0.039,0-0.039,0-0.039,0l-0.977,0.585l-1.64,0.977l-1.172,0.664l-1.054,0.625l-0.703,0.39l-5.857,3.397
			h-0.039l-6.951,3.983l-0.039,0.039l-2.265,1.328l-2.968,1.679l-0.039,0.039l-0.117,0.078l-12.691,7.302h-0.039l-9.294,5.35
			l-3.905,2.265l-11.637,6.716l-16.518,9.528l-6.014,3.475v207.433l0.273,0.156l6.716,3.905l2.929,1.679l0.586,0.312l16.869,9.764
			l2.695,1.521l2.069,1.211l7.341,4.258l6.209,3.592l1.796,1.016l5.077,2.93l13.199,7.613l21.009,12.105l2.694,1.562l0.273,0.156
			l0.586,0.312l0.429,0.273l0.703,0.391l0.156,0.078l7.458,4.334l3.437,1.952l5.193,3.046l3.476,1.992l0.703,0.391l1.211,0.702
			l0.742,0.431l1.875,1.094l13.94,8.005l0.352,0.195l1.718,1.016l2.421,1.405l2.812,1.641c0.039,0,0.039,0,0.039,0l2.069,1.171
			l5.896,3.397l12.379,7.186l17.494,10.074l4.022,2.344l0.898,0.507l0.077-0.039l0.742-0.429l0.547-0.312l0.117-0.078l1.21-0.703
			l7.066-4.022l0.353-0.194l2.695-1.562l1.952-1.133l0.938-0.547l15.034-8.669l9.565-5.506l2.892-1.68l2.577-1.483l2.616-1.522
			l1.718-1.016l9.099-5.232l1.523-0.858h0.039l0.896-0.546l0.82-0.47l2.46-1.405l3.124-1.797l4.921-2.851l1.796-1.056h0.039
			l1.796-1.053l0.039-0.039l0.977-0.547l2.069-1.211l1.445-0.82l1.367-0.82l2.146-1.21l0.82-0.509l1.249-0.701l1.68-0.938
			l0.078-0.039l0.194-0.117l0.508-0.312l0.938-0.508l14.762-8.514l1.483-0.858l4.334-2.538l11.599-6.678l6.093-3.514l11.91-6.873
			l7.38-4.258l14.019-8.082h0.039l0.234-0.156l10.349-5.976l3.516-2.03l4.021-2.304v-207.43L412.026,135.274z M424.913,350.165
			l-2.03,1.171l-1.25,0.703l-2.265,1.328l-29.64,17.104l-4.218,2.422l-7.38,4.256l-6.639,3.826l-12.185,7.029l-4.998,2.891
			l-2.812,1.601l-11.441,6.601l-0.272,0.194l-0.625,0.353l-0.703,0.43l-2.227,1.25l-3.476,1.99l-0.859,0.508l-0.194,0.117
			l-3.163,1.836l-0.353,0.194l-15.268,8.786l-0.312,0.195l-3.085,1.757l-0.312,0.194l-3.554,2.07l-8.396,4.843l-6.014,3.476
			l-6.561,3.788l-4.296,2.46l-11.599,6.717l-4.803,2.772l-0.234,0.155h-0.078l-2.929,1.719l-1.095,0.586l-7.303,4.218l-13.472-7.771
			l-4.803-2.771l-2.382-1.366l-7.068-4.101l-2.812-1.602l-2.694-1.562l-20.541-11.832l-3.007-1.758l-0.195-0.117l-6.99-4.021
			l-8.044-4.607l-3.514-2.03l-2.265-1.328l-0.976-0.585l-1.679-0.977l-0.82-0.469l-6.834-3.945l-1.21-0.701l-0.742-0.43
			l-5.857-3.397l-13.355-7.692l-15.269-8.824l-1.171-0.664l-5.701-3.28l-1.679-0.976l-11.676-6.717l-19.173-11.092l-3.515-1.99
			l-1.523-0.898l-0.898-0.508l-2.617-1.522V151.128l15.269-8.825l11.637-6.716l3.631-2.109h0.039l0.234-0.156l12.496-7.224h0.039
			l5.311-3.085h0.039l6.99-4.022l4.881-2.812l1.679-0.977h0.039l2.968-1.718l1.796-1.055h0.039l11.637-6.716
			c0.039-0.039,0.039-0.039,0.078-0.039l3.046-1.757l1.367-0.781l0.781-0.468l1.132-0.664l0.664-0.39l1.055-0.586l0.156-0.078
			l31.357-18.119l52.288-30.186l1.836-1.054l2.069,1.21l65.721,37.917l27.257,15.737l0.195,0.117l1.249,0.703l0.43,0.234
			l1.719,1.015l1.366,0.781l4.804,2.772l7.576,4.374l27.412,15.776l5.507,3.163l2.146,1.25l0.156,0.117l3.007,1.718l0.742,0.43
			l2.107,1.21l2.069,1.21l17.026,9.801v199.039H424.913z"/>
	</g>
</g>
<g id="Page-1_1_">
	<g id="r2_d2">
		<path id="Shape_217_" fill="#FFFFFF" d="M425.727,152.979v200.198l-0.045,0.037l-0.073,0.037l-1.545,0.905l-1.391,0.794
			l-2.34,1.317l-15.629,9.002l-0.044,0.041l-0.485,0.299l-0.229,0.113l-2.067,1.207l-3.017,1.692l-0.376,0.228l-1.81,1.053
			l-4.261,2.45l-3.201,1.847l-2.788,1.619l-0.897,0.492l-0.492,0.185l-0.412,0.266l-3.768,2.148l-0.118,0.072l-7.534,4.334
			l-1.918,1.093l-0.533,0.302l-0.11,0.077l-0.529,0.303l-0.037,0.036l-3.915,2.223l-0.154,0.11l-0.258,0.154l-4.37,2.523l-1.7,0.979
			l-0.036,0.037l-0.037,0.037h-0.036l-1.583,0.904l-4.224,2.451l-3.273,1.957l-4.444,2.523l-0.303,0.191l-0.455,0.261l-0.147,0.115
			l-0.154,0.072l-0.07,0.038l-0.379,0.228l-1.097,0.641l-0.11,0.036l-0.603,0.338v0.038l-1.509,0.868l-1.013,0.603l-0.415,0.229
			l-0.677,0.338l-0.081,0.074l-0.146,0.073l-2.598,1.471l-0.228,0.151l-0.906,0.526l-0.072,0.037l-1.097,0.64l-0.56,0.302
			l-0.832,0.493l-0.904,0.526h-0.037l-1.582,0.942l-1.097,0.639l-0.11,0.078l-1.134,0.641l-5.12,2.972l-1.884,1.097l-0.941,0.526
			l-2.635,1.504l-0.118,0.077h-0.036l-1.162,0.678l-0.191,0.113l-0.905,0.567l-3.164,1.807l-2.377,1.357l-0.221,0.11l-1.883,1.096
			c-0.038,0.038-0.038,0.038-0.038,0l-2.001,1.167l-1.088,0.641l-2.863,1.658l-0.191,0.11l-0.19,0.114l-0.111,0.036
			c0,0.041-0.036,0.041-0.036,0.041l-0.074,0.074l-0.942,0.525l-3.768,2.186l-0.639,0.38l-0.151,0.072l-1.431,0.832l-5.35,3.087
			l-1.361,0.791l-0.335,0.188l-0.909,0.526l-3.009,1.736l-0.979,0.563l-1.061,0.603l-0.036,0.041l-0.75,0.448l-0.868,0.493
			l-1.318,0.751l-3.127,1.809l-0.036,0.038l-0.339,0.188l-4.974,2.865l-0.081,0.038l-2.973,1.729l-2.296,1.32h-0.036l-5.313,3.05
			l-0.081,0.077l-0.941,0.526l-2.104,1.207h-0.037l-0.492,0.302l-0.716,0.412l-1.019,0.603h-0.038l-0.754,0.453l-0.225-0.113
			l-4.293-2.488l-0.077-0.036l-0.755-0.448l-3.2-1.848l-0.114-0.037l-1.243-0.717l-0.037-0.041l-5.275-3.046l-0.037-0.041
			l-0.073-0.036l-5.162-2.977l-0.115-0.073h-0.037l-3.127-1.811l-0.224-0.15l-1.285-0.718l-0.677-0.412l-0.073-0.036l-2.487-1.435
			l-0.15-0.11l-0.339-0.192l-0.379-0.225l-0.489-0.261l-1.015-0.603l-0.453-0.266h-0.041l-2.71-1.582l-0.906-0.493l-1.468-0.865
			l-0.188-0.113l-0.114-0.073l-5.272-3.054h-0.041l-0.412-0.266l-1.392-0.823h-0.039l-1.02-0.604l-2.336-1.357l-0.114-0.041
			l-0.225-0.146l-0.151-0.074l-4.86-2.825l-1.468-0.868l-2.565-1.472l-2.182-1.243l-0.415-0.225l-3.768-2.186l-6.478-3.768
			c-0.041-0.037-0.078-0.077-0.115-0.077l-4.974-2.862l-14.768-8.513l-0.603-0.339l-2.145-1.244l-1.774-1.015l-1.655-0.979
			l-1.13-0.639l-1.435-0.832l-3.727-2.186l-0.151-0.073l-10.323-5.99l-0.376-0.228l-0.68-0.375l-2.524-1.436l-3.09-1.77
			l-0.338-0.188l-1.885-1.094l-0.036-0.036l-0.302-0.188h-0.036l-0.453-0.266h-0.035L129.006,382l-2.748-1.583
			c-0.037-0.036-0.037-0.036-0.078-0.036l-7.005-4.069l-3.844-2.226l-7.947-4.631l-0.342-0.192l-0.75-0.448c0,0-0.041,0-0.078-0.037
			l-1.056-0.604l-1.994-1.134l-3.091-1.806l-0.225-0.15h-0.041c0,0,0,0-0.037,0l-1.847-1.094l-2.634-1.504l-2.564-1.472
			l-4.595-2.675l-0.375-0.225h-0.041l-1.243-0.718l-1.542-0.904h-0.041l-1.619-0.942l-3.73-2.144l-0.302-0.155l-0.11-0.074V152.979
			l2.936-1.692l5.989-3.466l1.357-0.795l12.733-7.343l3.996-2.295l21.772-12.586h0.041l3.425-1.96l3.958-2.333l6.854-3.958h0.041
			l3.274-1.921l13.679-7.836l2.41-1.427l3.543-2.038l0.64-0.338l6.25-3.576l2.939-1.7l1.432-0.824l1.659-0.982l2.524-1.467
			l1.619-0.979l1.96-1.133l1.884-1.053l2.221-1.28l4.481-2.564l2.601-1.545l2.825-1.619l2.451-1.395h0.037l0.188-0.11l1.618-0.942
			l19.93-11.493l0.416-0.228l0.302-0.184l1.015-0.604l20.797-12.019l2.072-1.204l5.427-3.127l1.922,1.125l4.105,2.377l10.772,6.217
			l11.644,6.74l9.79,5.651l0.832,0.493l17.667,10.169l3.693,2.148l19.329,11.151l3.429,1.961l3.915,2.295l8.668,4.938l3.274,1.884
			l2.598,1.504l3.127,1.807l1.85,1.059l2.182,1.28l1.134,0.641l3.01,1.729l0.338,0.229l6.821,3.918l8.139,4.672l4.216,2.446
			l1.884,1.097l0.154,0.111v0.036l0.979,0.53l2.487,1.468l5.504,3.164l7.307,4.221l2.939,1.654l1.651,0.942l1.847,1.06l5.468,3.164
			l0.641,0.375l3.199,1.847L425.727,152.979z"/>
		<linearGradient id="Shape_1_" gradientUnits="userSpaceOnUse" x1="111.8032" y1="250.3584" x2="388.7002" y2="250.3584">
			<stop  offset="0" style="stop-color:#3E00FF"/>
			<stop  offset="0.7393" style="stop-color:#FFCE08"/>
		</linearGradient>
		<path id="Shape_216_" opacity="0.44" fill="url(#Shape_1_)" enable-background="new    " d="M178.673,378.578h143.916
			c39.655-24.348,66.111-68.106,66.111-118.057c0-76.462-61.984-138.45-138.448-138.45c-76.462,0-138.449,61.988-138.449,138.45
			c0,49.994,26.504,93.787,66.217,118.123C178.239,378.622,178.441,378.578,178.673,378.578z"/>
		<linearGradient id="Shape_2_" gradientUnits="userSpaceOnUse" x1="191.623" y1="231.0122" x2="313.1191" y2="231.0122">
			<stop  offset="0" style="stop-color:#3E00FF"/>
			<stop  offset="0.0191" style="stop-color:#5A1EDC"/>
			<stop  offset="0.0465" style="stop-color:#7C42B0"/>
			<stop  offset="0.0768" style="stop-color:#9B6487"/>
			<stop  offset="0.1092" style="stop-color:#B68165"/>
			<stop  offset="0.1446" style="stop-color:#CD9948"/>
			<stop  offset="0.1836" style="stop-color:#E0AC30"/>
			<stop  offset="0.2281" style="stop-color:#EEBB1E"/>
			<stop  offset="0.2812" style="stop-color:#F8C611"/>
			<stop  offset="0.3513" style="stop-color:#FDCC0A"/>
			<stop  offset="0.5065" style="stop-color:#FFCE08"/>
			<stop  offset="0.5897" style="stop-color:#FDCB0B"/>
			<stop  offset="0.6552" style="stop-color:#F5C315"/>
			<stop  offset="0.7146" style="stop-color:#E8B526"/>
			<stop  offset="0.7705" style="stop-color:#D5A23D"/>
			<stop  offset="0.8239" style="stop-color:#BE885C"/>
			<stop  offset="0.8754" style="stop-color:#A16981"/>
			<stop  offset="0.9254" style="stop-color:#7E44AD"/>
			<stop  offset="0.9729" style="stop-color:#571BDF"/>
			<stop  offset="1" style="stop-color:#3E00FF"/>
		</linearGradient>
		<polyline id="Shape_215_" fill="url(#Shape_2_)" points="208.577,339.794 295.93,339.559 305.349,318.132 313.119,316.483 
			312.883,175.679 311.234,166.967 303.7,150.956 293.34,137.77 281.096,129.293 268.146,124.585 244.366,122.23 227.413,127.646 
			212.814,137.064 201.748,148.836 191.859,169.322 191.623,316.483 199.159,317.814 		"/>
		<linearGradient id="Shape_3_" gradientUnits="userSpaceOnUse" x1="232.8286" y1="345.6797" x2="270.3535" y2="345.6797">
			<stop  offset="0" style="stop-color:#3E00FF"/>
			<stop  offset="0.0191" style="stop-color:#5A1EDC"/>
			<stop  offset="0.0465" style="stop-color:#7C42B0"/>
			<stop  offset="0.0768" style="stop-color:#9B6487"/>
			<stop  offset="0.1092" style="stop-color:#B68165"/>
			<stop  offset="0.1446" style="stop-color:#CD9948"/>
			<stop  offset="0.1836" style="stop-color:#E0AC30"/>
			<stop  offset="0.2281" style="stop-color:#EEBB1E"/>
			<stop  offset="0.2812" style="stop-color:#F8C611"/>
			<stop  offset="0.3513" style="stop-color:#FDCC0A"/>
			<stop  offset="0.5065" style="stop-color:#FFCE08"/>
			<stop  offset="0.5897" style="stop-color:#FDCB0B"/>
			<stop  offset="0.6552" style="stop-color:#F5C315"/>
			<stop  offset="0.7146" style="stop-color:#E8B526"/>
			<stop  offset="0.7705" style="stop-color:#D5A23D"/>
			<stop  offset="0.8239" style="stop-color:#BE885C"/>
			<stop  offset="0.8754" style="stop-color:#A16981"/>
			<stop  offset="0.9254" style="stop-color:#7E44AD"/>
			<stop  offset="0.9729" style="stop-color:#571BDF"/>
			<stop  offset="1" style="stop-color:#3E00FF"/>
		</linearGradient>
		<polyline id="Shape_214_" fill="url(#Shape_3_)" points="235.654,349.528 264.378,351.25 270.029,348.27 270.354,340.935 
			236.283,340.11 232.829,344.819 		"/>
		<linearGradient id="Shape_4_" gradientUnits="userSpaceOnUse" x1="228.9053" y1="364.8203" x2="275.6074" y2="364.8203">
			<stop  offset="0" style="stop-color:#3E00FF"/>
			<stop  offset="0.0191" style="stop-color:#5A1EDC"/>
			<stop  offset="0.0465" style="stop-color:#7C42B0"/>
			<stop  offset="0.0768" style="stop-color:#9B6487"/>
			<stop  offset="0.1092" style="stop-color:#B68165"/>
			<stop  offset="0.1446" style="stop-color:#CD9948"/>
			<stop  offset="0.1836" style="stop-color:#E0AC30"/>
			<stop  offset="0.2281" style="stop-color:#EEBB1E"/>
			<stop  offset="0.2812" style="stop-color:#F8C611"/>
			<stop  offset="0.3513" style="stop-color:#FDCC0A"/>
			<stop  offset="0.5065" style="stop-color:#FFCE08"/>
			<stop  offset="0.5897" style="stop-color:#FDCB0B"/>
			<stop  offset="0.6552" style="stop-color:#F5C315"/>
			<stop  offset="0.7146" style="stop-color:#E8B526"/>
			<stop  offset="0.7705" style="stop-color:#D5A23D"/>
			<stop  offset="0.8239" style="stop-color:#BE885C"/>
			<stop  offset="0.8754" style="stop-color:#A16981"/>
			<stop  offset="0.9254" style="stop-color:#7E44AD"/>
			<stop  offset="0.9729" style="stop-color:#571BDF"/>
			<stop  offset="1" style="stop-color:#3E00FF"/>
		</linearGradient>
		<polyline id="Shape_213_" fill="url(#Shape_4_)" points="245.544,348.587 245.072,358.159 233.614,357.372 228.905,380.447 
			275.607,381.055 271.288,358.314 259.83,356.901 259.198,349.684 		"/>
		
			<linearGradient id="Rectangle-path_1_" gradientUnits="userSpaceOnUse" x1="318.7695" y1="252.3857" x2="353.0095" y2="252.3857" gradientTransform="matrix(1 0 0 1 0 0.0029)">
			<stop  offset="0" style="stop-color:#FFCE08"/>
			<stop  offset="0.3775" style="stop-color:#AD7771"/>
			<stop  offset="0.6798" style="stop-color:#7137BD"/>
			<stop  offset="0.8938" style="stop-color:#4C0FED"/>
			<stop  offset="1" style="stop-color:#3E00FF"/>
		</linearGradient>
		<rect id="Rectangle-path_48_" x="324.421" y="206.064" fill="url(#Rectangle-path_1_)" width="22.339" height="92.65"/>
		<linearGradient id="Shape_5_" gradientUnits="userSpaceOnUse" x1="308.291" y1="336.3789" x2="351.7334" y2="336.3789">
			<stop  offset="0" style="stop-color:#FFCE08"/>
			<stop  offset="1" style="stop-color:#3E00FF"/>
		</linearGradient>
		<polyline id="Shape_212_" fill="url(#Shape_5_)" points="324.773,297.411 324.303,333.318 320.535,328.021 312.766,328.139 
			308.762,332.612 308.527,361.103 308.291,375.348 351.733,373.818 346.436,350.979 336.429,350.508 336.193,343.208 
			341.962,343.09 341.373,335.673 346.317,331.317 347.142,323.782 341.609,319.545 346.554,299.06 		"/>
		
			<linearGradient id="Rectangle-path_2_" gradientUnits="userSpaceOnUse" x1="274.624" y1="246.7773" x2="301.0646" y2="246.7773" gradientTransform="matrix(-1 0 0 -1 454.8574 499.1553)">
			<stop  offset="0" style="stop-color:#FFCE08"/>
			<stop  offset="1" style="stop-color:#3E00FF"/>
		</linearGradient>
		<rect id="Rectangle-path_47_" x="157.897" y="206.053" fill="url(#Rectangle-path_2_)" width="22.336" height="92.649"/>
		<linearGradient id="Shape_6_" gradientUnits="userSpaceOnUse" x1="189.1807" y1="336.3799" x2="145.7393" y2="336.3799">
			<stop  offset="0" style="stop-color:#FFCE08"/>
			<stop  offset="1" style="stop-color:#3E00FF"/>
		</linearGradient>
		<polyline id="Shape_211_" fill="url(#Shape_6_)" points="179.879,297.411 180.351,333.318 184.118,328.021 191.888,328.139 
			195.891,332.612 196.127,361.103 196.362,375.348 152.92,373.818 158.218,350.979 168.225,350.508 168.46,343.208 162.692,343.09 
			163.28,335.673 158.335,331.317 157.511,323.782 163.045,319.545 158.1,299.06 		"/>
		<g id="Group_4_" transform="translate(10.000000, 14.000000)">
			<rect id="Rectangle-path_46_" x="245.645" y="108.198" fill="#11083A" width="3.768" height="19.334"/>
			<rect id="Rectangle-path_45_" x="236.401" y="108.442" fill="#11083A" width="3.768" height="18.848"/>
			<rect id="Rectangle-path_44_" x="181.031" y="158.917" fill="#11083A" width="29.359" height="3.768"/>
			<polygon id="Shape_210_" fill="#11083A" points="297.019,171.881 294.744,171.881 294.744,157.281 303.287,157.281 
				303.287,159.558 297.019,159.558 			"/>
			<rect id="Rectangle-path_43_" x="156.665" y="328.516" fill="#48B980" width="3.768" height="7.627"/>
			<rect id="Rectangle-path_42_" x="325.561" y="328.516" fill="#48B980" width="3.768" height="7.627"/>
			<path id="Shape_209_" fill="#11083A" d="M200.192,301.994c0.224-0.338,0.566-0.526,0.979-0.526h-18.988v-69.206
				c0,0.64-0.525,1.129-1.166,1.129h-1.129v69.207c0,0.64,0.526,1.166,1.129,1.166h19.4l-0.298-0.677
				C199.968,302.707,200.004,302.295,200.192,301.994z M303.302,190.369H181.016c-0.603,0-1.129,0.526-1.129,1.129v111.1
				c0,0.64,0.526,1.166,1.129,1.166h122.286c0.604,0,1.134-0.526,1.134-1.166v-111.1
				C304.436,190.895,303.905,190.369,303.302,190.369z M302.133,301.468H182.182V192.664h119.951V301.468z M200.192,301.994
				c0.224-0.338,0.566-0.526,0.979-0.526h-18.988v-69.206c0,0.64-0.525,1.129-1.166,1.129h-1.129v69.207
				c0,0.64,0.526,1.166,1.129,1.166h19.4l-0.298-0.677C199.968,302.707,200.004,302.295,200.192,301.994z"/>
			<rect id="Rectangle-path_41_" x="213.917" y="198.33" fill="#120E3B" width="56.487" height="8.229"/>
			<path id="Shape_208_" fill="#48B980" d="M270.411,197.186h-56.507c-0.6,0-1.13,0.529-1.13,1.129v8.252
				c0,0.641,0.53,1.13,1.13,1.13h56.507c0.604,0,1.133-0.489,1.133-1.13v-8.252C271.544,197.715,271.016,197.186,270.411,197.186z
				 M269.249,205.438h-54.176v-5.953h54.176V205.438z"/>
			<rect id="Rectangle-path_40_" x="213.917" y="213.517" fill="#120E3B" width="56.487" height="8.226"/>
			<path id="Shape_207_" fill="#48B980" d="M270.411,212.369h-56.507c-0.6,0-1.13,0.526-1.13,1.13v8.252
				c0,0.64,0.53,1.129,1.13,1.129h56.507c0.604,0,1.133-0.489,1.133-1.129v-8.252C271.544,212.895,271.016,212.369,270.411,212.369z
				 M269.249,220.618h-54.176v-5.949h54.176V220.618z"/>
			<rect id="Rectangle-path_39_" x="235.154" y="213.517" fill="#FFCC2E" width="25.912" height="8.226"/>
			<path id="Shape_206_" fill="#48B980" d="M261.074,212.369h-25.92c-0.641,0-1.13,0.526-1.13,1.13v8.252
				c0,0.64,0.489,1.129,1.13,1.129h25.92c0.64,0,1.126-0.489,1.126-1.129v-8.252C262.2,212.895,261.714,212.369,261.074,212.369z
				 M259.941,220.618h-23.658v-5.949h23.658V220.618z"/>
			<rect id="Rectangle-path_38_" x="213.917" y="228.708" fill="#120E3B" width="56.487" height="8.223"/>
			<path id="Shape_205_" fill="#48B980" d="M270.411,227.552h-56.507c-0.6,0-1.13,0.527-1.13,1.167v8.212
				c0,0.64,0.53,1.133,1.13,1.133h56.507c0.604,0,1.133-0.493,1.133-1.133v-8.212C271.544,228.079,271.016,227.552,270.411,227.552z
				 M269.249,235.801h-54.176v-5.952h54.176V235.801z"/>
			<rect id="Rectangle-path_37_" x="225.378" y="228.708" fill="#FFCC2E" width="20.465" height="8.223"/>
			<path id="Shape_204_" fill="#48B980" d="M245.851,227.552h-20.454c-0.64,0-1.17,0.527-1.17,1.167v8.212
				c0,0.64,0.53,1.133,1.17,1.133h20.454c0.644,0,1.133-0.493,1.133-1.133v-8.212C246.983,228.079,246.494,227.552,245.851,227.552z
				 M244.681,235.801h-18.154v-5.952h18.154V235.801z"/>
			<path id="Shape_203_" fill="#11083A" d="M249.956,325.014c-0.184-0.228-0.448-0.343-0.787-0.343h-14.015
				c-0.34,0-0.604,0.115-0.792,0.343c-0.228,0.188-0.338,0.449-0.338,0.791v29.197c0,0.64,0.489,1.129,1.13,1.129h14.015
				c0.641,0,1.125-0.489,1.125-1.129v-29.197C250.294,325.463,250.185,325.201,249.956,325.014z M248.035,353.869h-11.752v-26.935
				h11.752V353.869z"/>
			<path id="Shape_202_" fill="#11083A" d="M253.951,301.844c-0.228-0.229-0.492-0.376-0.831-0.376h-21.922
				c-0.342,0-0.644,0.147-0.831,0.376c-0.225,0.188-0.338,0.525-0.338,0.827l0.036,1.093l1.056,20.907l0.037,0.343l0.04,0.865
				c0.037,0.603,0.526,1.056,1.13,1.056h19.666c0.604,0,1.126-0.453,1.126-1.056l0.037-0.865l0.044-0.343l1.015-20.907l0.038-1.093
				C254.29,302.369,254.18,302.031,253.951,301.844z M250.898,324.671h-17.478l-1.054-20.907h19.59L250.898,324.671z"/>
			<path id="Shape_201_" fill="#11083A" d="M284.127,301.994c-0.229-0.338-0.566-0.526-0.979-0.526H201.17
				c-0.412,0-0.754,0.188-0.979,0.526c-0.188,0.301-0.224,0.713-0.074,1.093l0.298,0.677l9.231,20.907l0.717,1.583
				c0.188,0.415,0.604,0.681,1.016,0.681h61.555c0.457,0,0.873-0.266,1.023-0.681l0.715-1.583l9.226-20.907l0.302-0.677
				C284.354,302.707,284.318,302.295,284.127,301.994z M272.185,324.671h-60.05l-9.232-20.907h78.51L272.185,324.671z"/>
			<path id="Shape_200_" fill="#11083A" d="M296.827,301.994c-0.229-0.338-0.566-0.526-0.942-0.526H188.438
				c-0.375,0-0.714,0.188-0.942,0.526c-0.224,0.301-0.265,0.713-0.114,1.056l0.302,0.714l9.382,22.49
				c0.187,0.415,0.603,0.681,1.056,0.681h88.08c0.45,0,0.862-0.266,1.053-0.681l9.382-22.49l0.302-0.714
				C297.085,302.707,297.048,302.295,296.827,301.994z M285.444,324.671h-86.57l-8.741-20.907h104.053L285.444,324.671z"/>
			<path id="Shape_199_" fill="#11083A" d="M266.343,364.718l-0.412-2.296l-3.502-19.288c-0.11-0.566-0.566-0.942-1.134-0.942
				H223.02c-0.562,0-1.013,0.376-1.129,0.942l-3.502,19.288l-0.416,2.296l-0.302,1.737v0.146c0,0,0,0,0,0.041
				c0,0.302,0.077,0.526,0.265,0.754c0.229,0.262,0.527,0.411,0.868,0.411h46.715c0.339,0,0.64-0.149,0.868-0.411
				c0.184-0.228,0.258-0.452,0.258-0.754c0-0.041,0-0.041,0-0.041v-0.146L266.343,364.718z M223.962,344.45h36.392l3.812,21.099
				h-44.007l0.265-1.545c0.036-0.15,0.074-0.302,0.074-0.452L223.962,344.45z"/>
			<path id="Shape_198_" fill="#11083A" d="M250.185,243.486h-16.05c-0.604,0-1.13,0.489-1.13,1.13v27.842
				c0,0.604,0.526,1.13,1.13,1.13h16.05c0.604,0,1.133-0.525,1.133-1.13v-27.842C251.317,243.976,250.788,243.486,250.185,243.486z
				 M249.014,271.289h-13.709v-25.54h13.709V271.289z"/>
			<rect id="Rectangle-path_36_" x="186.156" y="282.102" fill="#120E3B" width="20.507" height="13.914"/>
			<path id="Shape_197_" fill="#11083A" d="M206.67,280.972h-20.529c-0.603,0-1.133,0.489-1.133,1.13v13.903
				c0,0.64,0.53,1.166,1.133,1.166h20.529c0.604,0,1.133-0.526,1.133-1.166v-13.903C207.803,281.461,207.274,280.972,206.67,280.972
				z M205.504,294.875h-18.196V283.23h18.196V294.875z"/>
			<rect id="Rectangle-path_35_" x="191.667" y="282.102" fill="#49BA81" width="9.488" height="13.914"/>
			<path id="Shape_196_" fill="#11083A" d="M201.17,280.972h-9.492c-0.64,0-1.17,0.489-1.17,1.13v13.903
				c0,0.64,0.53,1.166,1.17,1.166h9.492c0.603,0,1.129-0.526,1.129-1.166v-13.903C202.299,281.461,201.773,280.972,201.17,280.972z
				 M200.004,294.875h-7.195V283.23h7.195V294.875z"/>
			<path id="Shape_195_" fill="#11083A" d="M250.185,252.717h-16.05c-0.604,0-1.13,0.489-1.13,1.13v9.193
				c0,0.641,0.526,1.13,1.13,1.13h16.05c0.604,0,1.133-0.489,1.133-1.13v-9.193C251.317,253.206,250.788,252.717,250.185,252.717z
				 M249.014,261.911h-13.709v-6.936h13.709V261.911z"/>
			<g>
				<path id="Shape_194_" fill="#11083A" d="M294.582,185.31c-2.442,0-3.671-1.623-4.657-2.925
					c-0.979-1.284-1.589-2.016-2.833-2.016c-1.251,0-1.857,0.732-2.84,2.016c-0.979,1.303-2.215,2.925-4.649,2.925
					c-2.437,0-3.665-1.623-4.651-2.925c-0.979-1.284-1.597-2.016-2.84-2.016s-1.854,0.732-2.833,2.016
					c-0.985,1.303-2.214,2.925-4.65,2.925c-2.443,0-3.664-1.623-4.65-2.925c-0.979-1.284-1.597-2.016-2.841-2.016
					c-1.242,0-1.853,0.732-2.839,2.016c-0.979,1.303-2.207,2.925-4.65,2.925c-2.437,0-3.665-1.623-4.651-2.925
					c-0.977-1.284-1.587-2.016-2.834-2.016s-1.861,0.732-2.837,2.016c-0.985,1.303-2.215,2.925-4.654,2.925
					c-2.435,0-3.663-1.623-4.646-2.925c-0.979-1.284-1.589-2.016-2.838-2.016c-1.245,0-1.856,0.732-2.834,2.016
					c-0.994,1.303-2.215,2.925-4.654,2.925c-2.44,0-3.669-1.623-4.65-2.925c-0.983-1.284-1.594-2.016-2.836-2.016
					c-1.248,0-1.858,0.732-2.84,2.016c-0.986,1.303-2.212,2.925-4.651,2.925c-2.436,0-3.66-1.623-4.649-2.925
					c-0.979-1.284-1.594-2.016-2.837-2.016c-1.247,0-1.862,0.732-2.84,2.016c-0.989,1.303-2.215,2.925-4.654,2.925
					c-0.625,0-1.139-0.512-1.139-1.145c0-0.625,0.515-1.136,1.139-1.136c1.251,0,1.862-0.732,2.841-2.017
					c0.983-1.298,2.215-2.921,4.654-2.921c2.432,0,3.661,1.623,4.646,2.921c0.979,1.285,1.597,2.017,2.84,2.017
					c1.247,0,1.859-0.732,2.837-2.017c0.985-1.298,2.215-2.921,4.654-2.921c2.435,0,3.66,1.623,4.65,2.921
					c0.979,1.285,1.593,2.017,2.837,2.017c1.243,0,1.857-0.732,2.842-2.017c0.98-1.298,2.205-2.921,4.646-2.921
					c2.438,0,3.667,1.623,4.652,2.921c0.975,1.285,1.585,2.017,2.832,2.017c1.248,0,1.866-0.732,2.838-2.017
					c0.985-1.298,2.215-2.921,4.653-2.921c2.438,0,3.666,1.623,4.652,2.921c0.979,1.285,1.589,2.017,2.833,2.017
					c1.251,0,1.861-0.732,2.84-2.017c0.986-1.298,2.215-2.921,4.649-2.921c2.437,0,3.665,1.623,4.659,2.921
					c0.971,1.285,1.589,2.017,2.832,2.017c1.244,0,1.854-0.732,2.841-2.017c0.979-1.298,2.207-2.921,4.643-2.921
					c2.443,0,3.672,1.623,4.658,2.921c0.971,1.285,1.589,2.017,2.833,2.017c1.243,0,1.861-0.732,2.84-2.017
					c0.985-1.298,2.214-2.921,4.649-2.921c2.437,0,3.665,1.623,4.651,2.921c0.971,1.285,1.589,2.017,2.839,2.017
					c0.626,0,1.134,0.511,1.134,1.136C295.716,184.798,295.208,185.31,294.582,185.31z"/>
				<linearGradient id="Shape_7_" gradientUnits="userSpaceOnUse" x1="209.5029" y1="149.5703" x2="274.8193" y2="149.5703">
					<stop  offset="0" style="stop-color:#8E2ABE"/>
					<stop  offset="1" style="stop-color:#F9006C"/>
				</linearGradient>
				<path id="Shape_193_" fill="url(#Shape_7_)" d="M274.819,152.476c0,7.266-2.377,13.979-6.387,19.405h-52.54
					c-4.021-5.426-6.39-12.14-6.39-19.405c0-9.13,3.742-17.382,9.779-23.307c7.324-1.248,14.981-1.91,22.88-1.91
					c7.897,0,15.557,0.662,22.878,1.91C271.074,135.094,274.819,143.346,274.819,152.476z"/>
				<path id="Shape_192_" fill="#FFFFFF" d="M261.008,143.42c0,3.642-2.95,6.599-6.593,6.599s-6.592-2.957-6.592-6.599
					c0-3.644,2.949-6.595,6.592-6.595S261.008,139.776,261.008,143.42z"/>
				<path id="Shape_191_" fill="#FFFFFF" d="M265.725,153.282c0,1.473-1.199,2.669-2.672,2.669c-1.471,0-2.663-1.196-2.663-2.669
					s1.192-2.666,2.663-2.666C264.525,150.616,265.725,151.809,265.725,153.282z"/>
				<path id="Shape_190_" fill="#11083A" d="M220.309,128.658c-0.186-0.376-0.563-0.64-0.979-0.64c-0.077,0-0.149,0.039-0.224,0.039
					c-3.731,0.64-7.347,1.392-10.927,2.334c-0.942,0.265-1.883,0.528-2.825,0.791c-0.979,0.265-1.962,0.566-2.94,0.866
					c-1.243,0.416-2.445,0.793-3.653,1.207c-2.112,0.752-4.183,1.582-6.217,2.411c-0.037,0-0.037,0.038-0.074,0.038
					c-1.169,0.489-2.299,0.979-3.426,1.506c-0.226,0.114-0.417,0.264-0.528,0.452c-2.752,4.673-4.901,9.681-6.333,14.844
					c-1.504,5.463-2.295,11.075-2.295,16.801v2.562c0,0.641,0.526,1.168,1.129,1.168h34.885c0.416,0,0.791-0.265,1.02-0.641
					c0.074-0.15,0.11-0.34,0.11-0.528c0-0.265-0.074-0.452-0.224-0.678c-0.115-0.151-0.229-0.301-0.302-0.453
					c-3.845-5.311-5.876-11.641-5.876-18.271c0-8.401,3.275-16.275,9.227-22.229c0.041-0.111,0.151-0.187,0.229-0.263
					c0.261-0.263,0.375-0.603,0.302-0.941C220.386,128.923,220.386,128.771,220.309,128.658z M182.182,170.739v-1.432
					c0-2.71,0.192-5.424,0.567-8.099c0.074-0.754,0.188-1.545,0.375-2.298c1.169-6.97,3.616-13.677,7.196-19.778
					c3.013-1.394,6.181-2.675,9.418-3.806c0.979-0.338,1.998-0.677,3.013-0.979c1.206-0.415,2.45-0.791,3.693-1.131
					c2.035-0.564,4.143-1.092,6.255-1.582c1.129-0.263,2.259-0.489,3.429-0.715c-5.051,6.027-7.763,13.562-7.763,21.549
					c0,2.184,0.188,4.332,0.603,6.442c0.151,0.792,0.339,1.544,0.526,2.298c0.906,3.354,2.299,6.556,4.22,9.53H182.182z"/>
				<path id="Shape_189_" fill="#11083A" d="M303.302,157.591c0-0.114-0.036-0.187-0.036-0.302c-0.302-1.582-0.677-3.127-1.133-4.67
					c-1.428-5.125-3.503-10.06-6.211-14.656c-0.037-0.114-0.081-0.189-0.155-0.301c-0.036-0.075-0.109-0.188-0.183-0.263
					c-0.114-0.075-0.191-0.15-0.302-0.189c-1.134-0.527-2.267-1.017-3.429-1.506c-0.037,0-0.037-0.038-0.082-0.038
					c-2.03-0.83-4.105-1.659-6.209-2.411c-1.208-0.414-2.414-0.791-3.657-1.207c-0.979-0.3-1.958-0.601-2.937-0.866
					c-0.942-0.263-1.883-0.526-2.825-0.791c-3.583-0.942-7.196-1.694-10.927-2.334c-0.073,0-0.155-0.039-0.228-0.039
					c-0.412,0-0.788,0.263-0.979,0.64c-0.074,0.114-0.074,0.265-0.074,0.378c-0.073,0.338,0.037,0.678,0.301,0.941
					c0.074,0.076,0.185,0.151,0.222,0.263c5.952,5.954,9.234,13.828,9.234,22.229c0,6.629-2.038,12.959-5.879,18.271
					c-0.074,0.151-0.184,0.301-0.302,0.453c-0.146,0.227-0.229,0.413-0.229,0.678c0,0.188,0.044,0.378,0.118,0.528
					c0.184,0.376,0.603,0.641,1.015,0.641h34.885c0.604,0,1.134-0.528,1.134-1.168v-2.562
					C304.436,165.353,304.06,161.434,303.302,157.591z M270.604,170.739c3.502-5.461,5.349-11.716,5.349-18.271
					c0-7.987-2.752-15.522-7.763-21.549c1.17,0.226,2.304,0.453,3.429,0.715c2.112,0.49,4.224,1.018,6.254,1.582
					c1.244,0.34,2.451,0.716,3.695,1.131c1.015,0.302,1.993,0.641,3.016,0.979c3.238,1.131,6.365,2.413,9.419,3.806
					c3.311,5.651,5.65,11.792,6.931,18.158c0.147,0.754,0.302,1.507,0.376,2.261c0.566,3.203,0.824,6.479,0.824,9.756v1.432H270.604
					z"/>
				<path id="Shape_188_" fill="#11083A" d="M267.402,172.397c-0.074-0.15-0.118-0.34-0.118-0.528c0-0.265,0.082-0.452,0.229-0.678
					c0.118-0.151,0.228-0.301,0.302-0.453h-51.31c0.073,0.151,0.187,0.301,0.302,0.453c0.15,0.227,0.224,0.413,0.224,0.678
					c0,0.188-0.037,0.378-0.11,0.528c-0.229,0.376-0.604,0.641-1.02,0.641h52.516C268.005,173.038,267.586,172.773,267.402,172.397z
					 M303.302,170.739H181.016c-0.603,0-1.129,0.528-1.129,1.131v19.628c0,0.641,0.526,1.167,1.129,1.167h122.286
					c0.604,0,1.134-0.526,1.134-1.167V171.87C304.436,171.267,303.905,170.739,303.302,170.739z M182.182,190.369v-17.331h119.951
					v17.331H182.182z M267.402,172.397c-0.074-0.15-0.118-0.34-0.118-0.528c0-0.265,0.082-0.452,0.229-0.678
					c0.118-0.151,0.228-0.301,0.302-0.453h-51.31c0.073,0.151,0.187,0.301,0.302,0.453c0.15,0.227,0.224,0.413,0.224,0.678
					c0,0.188-0.037,0.378-0.11,0.528c-0.229,0.376-0.604,0.641-1.02,0.641h52.516C268.005,173.038,267.586,172.773,267.402,172.397z
					"/>
				<rect id="Rectangle-path_34_" x="302.147" y="94.777" fill="#11083A" width="3.767" height="77.104"/>
				<rect id="Rectangle-path_33_" x="179.895" y="118.561" fill="#11083A" width="3.768" height="53.32"/>
				<rect id="Rectangle-path_32_" x="197.259" y="160.063" fill="#11083A" width="3.768" height="11.818"/>
				<path id="Shape_187_" fill="#11083A" d="M242.158,126.134c-1.166,0-2.296,0-3.465,0.075c-0.752,0-1.546,0-2.297,0.039
					c-5.765,0.226-11.493,0.829-17.066,1.771c0.416,0,0.793,0.263,0.979,0.64c0.077,0.114,0.077,0.265,0.077,0.378
					c1.545-0.264,3.127-0.49,4.708-0.716c1.807-0.227,3.616-0.415,5.424-0.565c1.471-0.15,2.938-0.226,4.407-0.302
					c2.372-0.114,4.785-0.188,7.232-0.188c1.171,0,2.338,0,3.464,0.074v-1.13C244.46,126.134,243.329,126.134,242.158,126.134z
					 M295.767,137.662c-0.036-0.075-0.109-0.188-0.183-0.263c-2.568-4.371-5.765-8.476-9.383-12.092
					c-11.758-11.793-27.43-18.235-44.043-18.235c-11,0-21.849,2.9-31.305,8.438c-9.193,5.35-16.916,12.997-22.338,22.152
					c-0.229,0.453-0.192,0.979,0.15,1.356c0.224,0.226,0.527,0.376,0.865,0.376c0.151,0,0.301-0.037,0.454-0.112
					c0.112-0.039,0.223-0.115,0.337-0.151c3.013-1.394,6.181-2.675,9.418-3.806c0.979-0.338,1.998-0.677,3.013-0.979
					c1.206-0.415,2.45-0.791,3.693-1.131c2.035-0.564,4.143-1.092,6.255-1.582c1.129-0.263,2.259-0.489,3.429-0.715
					c0.6-0.151,1.239-0.263,1.843-0.377h0.04c0.489-0.076,0.979-0.188,1.468-0.264c0.115-0.039,0.265-0.039,0.375-0.039
					c7.233-1.241,14.731-1.844,22.302-1.844c7.577,0,15.068,0.603,22.301,1.844c0.118,0,0.265,0,0.383,0.039
					c0.489,0.076,0.979,0.188,1.464,0.264h0.037c0.604,0.114,1.243,0.226,1.847,0.377c1.17,0.226,2.304,0.453,3.429,0.715
					c2.112,0.49,4.188,1.018,6.254,1.582c1.244,0.34,2.451,0.716,3.695,1.131c1.015,0.302,1.993,0.641,3.016,0.979
					c3.238,1.131,6.365,2.413,9.419,3.806c0.11,0.037,0.221,0.113,0.338,0.151c0.448,0.226,0.979,0.112,1.317-0.265
					c0.265-0.302,0.338-0.677,0.265-1.055C295.885,137.85,295.841,137.774,295.767,137.662z M291.771,135.666
					c-2.03-0.83-4.105-1.659-6.209-2.411c-1.208-0.414-2.414-0.791-3.657-1.207c-0.979-0.3-1.958-0.601-2.937-0.866
					c-0.942-0.263-1.883-0.526-2.825-0.791c-3.583-0.942-7.196-1.694-10.927-2.334c-0.073,0-0.155-0.039-0.228-0.039
					c-5.578-0.942-11.302-1.545-17.063-1.771c-0.759-0.039-1.545-0.039-2.304-0.039c-1.162-0.075-2.293-0.075-3.464-0.075
					c-1.166,0-2.296,0-3.465,0.075c-0.752,0-1.546,0-2.297,0.039c-5.765,0.226-11.493,0.829-17.066,1.771
					c-0.077,0-0.149,0.039-0.224,0.039c-3.731,0.64-7.347,1.392-10.927,2.334c-0.942,0.265-1.883,0.528-2.825,0.791
					c-0.979,0.265-1.962,0.566-2.94,0.866c-1.243,0.416-2.445,0.793-3.653,1.207c-2.112,0.752-4.183,1.582-6.217,2.411
					c-0.037,0-0.037,0.038-0.074,0.038c10.021-14.768,26.257-24.337,43.928-26.071c0.751-0.075,1.506-0.15,2.297-0.188
					c1.133-0.074,2.299-0.113,3.465-0.113c1.171,0,2.302,0.039,3.464,0.113c0.759,0.039,1.545,0.075,2.304,0.188
					c13.825,1.282,26.673,7.309,36.657,17.255c2.708,2.712,5.121,5.651,7.271,8.815
					C291.816,135.704,291.816,135.666,291.771,135.666z M242.158,126.134c-1.166,0-2.296,0-3.465,0.075
					c-0.752,0-1.546,0-2.297,0.039c-5.765,0.226-11.493,0.829-17.066,1.771c0.416,0,0.793,0.263,0.979,0.64
					c0.077,0.114,0.077,0.265,0.077,0.378c1.545-0.264,3.127-0.49,4.708-0.716c1.807-0.227,3.616-0.415,5.424-0.565
					c1.471-0.15,2.938-0.226,4.407-0.302c2.372-0.114,4.785-0.188,7.232-0.188c1.171,0,2.338,0,3.464,0.074v-1.13
					C244.46,126.134,243.329,126.134,242.158,126.134z"/>
				<path id="Shape_186_" fill="#11083A" d="M260.354,326.935c-1.126-1.207-2.745-1.921-4.518-1.921h-27.353
					c-1.769,0-3.389,0.714-4.521,1.921c-1.129,1.13-1.844,2.712-1.844,4.481c0,3.505,2.863,6.368,6.365,6.368h27.353
					c3.502,0,6.364-2.863,6.364-6.368C262.2,329.646,261.486,328.064,260.354,326.935z M255.836,335.521h-27.353
					c-2.259,0-4.105-1.844-4.105-4.105c0-2.26,1.847-4.106,4.105-4.106h27.353c2.259,0,4.105,1.847,4.105,4.106
					C259.941,333.678,258.095,335.521,255.836,335.521z"/>
				<path id="Shape_185_" fill="#11083A" d="M242.158,277.657c-5.048,0-9.153,4.105-9.153,9.153s4.105,9.153,9.153,9.153
					c5.053,0,9.159-4.105,9.159-9.153S247.211,277.657,242.158,277.657z M242.158,293.705c-3.805,0-6.854-3.09-6.854-6.895
					c0-3.804,3.049-6.857,6.854-6.857c3.811,0,6.855,3.054,6.855,6.857C249.014,290.615,245.969,293.705,242.158,293.705z"/>
				<path id="Shape_184_" fill="#FFCC2E" d="M286.739,283.993c0,1.732-1.413,3.138-3.142,3.138c-1.744,0-3.15-1.405-3.15-3.138
					c0-1.744,1.406-3.149,3.15-3.149C285.326,280.844,286.739,282.249,286.739,283.993z"/>
				<path id="Shape_183_" fill="#11083A" d="M283.598,279.692c-2.37,0-4.29,1.92-4.29,4.293c0,2.372,1.92,4.297,4.29,4.297
					c2.34,0,4.26-1.925,4.26-4.297C287.857,281.612,285.938,279.692,283.598,279.692z M283.598,285.983
					c-1.126,0-1.994-0.905-1.994-1.998s0.868-1.998,1.994-1.998c1.097,0,2.001,0.905,2.001,1.998S284.694,285.983,283.598,285.983z"
					/>
				<path id="Shape_182_" fill="#11083A" d="M170.277,251.661h-1.13v33.041h1.13c0.644,0,1.133,0.527,1.133,1.13v-35.3
					C171.411,251.172,170.921,251.661,170.277,251.661z M170.277,190.369H147.75c-0.64,0-1.167,0.526-1.167,1.129v94.334
					c0,0.114,0,0.188,0.038,0.302l0.039,0.151c0.186,0.412,0.601,0.713,1.09,0.713h22.527c0.644,0,1.133-0.526,1.133-1.166v-94.334
					C171.411,190.895,170.921,190.369,170.277,190.369z M148.88,284.702v-92.038h20.267v92.038H148.88z M170.277,251.661h-1.13
					v33.041h1.13c0.644,0,1.133,0.527,1.133,1.13v-35.3C171.411,251.172,170.921,251.661,170.277,251.661z"/>
				<rect id="Rectangle-path_31_" x="141.927" y="359.266" fill="#120E3B" width="44.229" height="4.301"/>
				<path id="Shape_181_" fill="#11083A" d="M186.141,358.126h-44.229c-0.453,0-0.868,0.301-1.056,0.717l-0.037,0.151
					c-0.037,0.072-0.037,0.188-0.037,0.265v4.293c0,0.64,0.526,1.166,1.129,1.166h44.229c0.641,0,1.167-0.526,1.167-1.166v-4.293
					C187.308,358.654,186.782,358.126,186.141,358.126z M185.008,362.422h-41.93v-1.998h41.93V362.422z"/>
				<rect id="Rectangle-path_30_" x="298.35" y="359.266" fill="#120E3B" width="44.229" height="4.301"/>
				<path id="Shape_180_" fill="#11083A" d="M343.69,358.994l-0.036-0.151c-0.192-0.416-0.604-0.717-1.061-0.717h-44.229
					c-0.641,0-1.162,0.528-1.162,1.133v4.293c0,0.64,0.521,1.166,1.162,1.166h44.229c0.604,0,1.134-0.526,1.134-1.166v-4.293
					C343.728,359.182,343.728,359.066,343.69,358.994z M341.432,362.422h-41.934v-1.998h41.934V362.422z"/>
				<polygon id="Shape_179_" fill="#120E3B" points="265.607,367.055 218.715,367.055 220.044,371.352 264.278,371.352 				"/>
				<path id="Shape_178_" fill="#11083A" d="M266.645,366.643c0-0.041,0-0.041,0-0.041c-0.037-0.073-0.074-0.146-0.11-0.224
					c-0.229-0.302-0.566-0.453-0.942-0.453h-46.866c-0.375,0-0.713,0.151-0.941,0.453c-0.038,0.077-0.074,0.15-0.115,0.224
					c0,0,0,0,0,0.041c-0.109,0.225-0.109,0.489-0.037,0.754l1.321,4.293c0.151,0.489,0.6,0.792,1.093,0.792h44.228
					c0.485,0,0.941-0.303,1.089-0.792l1.324-4.293C266.762,367.132,266.762,366.867,266.645,366.643z M263.447,370.222h-42.572
					l-0.604-2.035h43.775L263.447,370.222z"/>
				<path id="Shape_177_" fill="#11083A" d="M170.277,334.995H157.81c-0.641,0-1.13,0.526-1.13,1.129v8.175
					c0,0.641,0.489,1.134,1.13,1.134h12.468c0.644,0,1.133-0.493,1.133-1.134v-8.175
					C171.411,335.521,170.921,334.995,170.277,334.995z M169.147,343.17h-10.209v-5.875h10.209V343.17z"/>
				<rect id="Rectangle-path_29_" x="170.277" y="196.354" fill="#120E3B" width="10.753" height="35.916"/>
				<path id="Shape_176_" fill="#11083A" d="M181.016,195.229h-10.739c-0.641,0-1.13,0.489-1.13,1.129v35.904
					c0,0.64,0.489,1.129,1.13,1.129h10.739c0.641,0,1.166-0.489,1.166-1.129v-35.904
					C182.182,195.718,181.657,195.229,181.016,195.229z M171.411,197.487h8.477v33.642h-8.477V197.487z"/>
				<path id="Shape_175_" fill="#11083A" d="M170.277,284.702H147.75c-0.375,0-0.677,0.188-0.905,0.453
					c-0.186,0.188-0.262,0.412-0.262,0.677c0,0.114,0,0.188,0.038,0.302l0.039,0.151l4.67,18.76l0.526,2.262l1.432,5.725
					l0.077,0.266c0.11,0.489,0.563,0.863,1.092,0.863h15.82c0.644,0,1.133-0.525,1.133-1.166v-27.162
					C171.411,285.229,170.921,284.702,170.277,284.702z M155.358,311.865l-1.28-5.199l-0.562-2.226l-4.334-17.442h19.966v24.867
					H155.358z"/>
				<path id="Shape_174_" fill="#11083A" d="M170.277,311.865h-15.82c-0.566,0-1.056,0.412-1.133,0.979l-0.036,0.188l-0.942,5.916
					l-0.338,2.299l-1.13,7.082c-0.077,0.339,0.038,0.678,0.225,0.942c0.228,0.225,0.567,0.376,0.868,0.376h18.307
					c0.644,0,1.133-0.49,1.133-1.131v-15.521C171.411,312.391,170.921,311.865,170.277,311.865z M169.147,327.387h-15.824
					l0.906-5.766l0.379-2.222l0.827-5.239h13.712V327.387z"/>
				<path id="Shape_173_" fill="#11083A" d="M185.008,348.898v9.228h1.133c0.641,0,1.167,0.528,1.167,1.133v-16.351
					C187.308,345.241,186.439,347.316,185.008,348.898z M186.141,334.995h-38.239c-0.527,0-0.979,0.338-1.094,0.868l-5.952,22.979
					l-0.037,0.151c-0.037,0.072-0.037,0.188-0.037,0.265c0,0.261,0.073,0.489,0.226,0.714c0.223,0.265,0.565,0.451,0.903,0.451
					h44.229c0.641,0,1.167-0.525,1.167-1.165v-23.135C187.308,335.521,186.782,334.995,186.141,334.995z M185.008,358.126H143.38
					l5.386-20.831h36.242V358.126z M185.008,348.898v9.228h1.133c0.641,0,1.167,0.528,1.167,1.133v-16.351
					C187.308,345.241,186.439,347.316,185.008,348.898z"/>
				<path id="Shape_172_" fill="#11083A" d="M170.277,224.535H147.75c-0.64,0-1.167,0.53-1.167,1.134v24.863
					c0,0.302,0.11,0.566,0.298,0.753c0.229,0.226,0.53,0.376,0.868,0.376h22.527c0.644,0,1.133-0.489,1.133-1.129v-24.863
					C171.411,225.065,170.921,224.535,170.277,224.535z M169.147,249.402H148.88v-22.604h20.267V249.402z"/>
				<path id="Shape_171_" fill="#11083A" d="M178.228,311.865c-2.711,0-5.162,1.203-6.817,3.127
					c-1.431,1.582-2.263,3.69-2.263,5.952v22.226c0.041,0.791,0.151,1.545,0.379,2.263c1.053,3.768,4.559,6.553,8.702,6.553
					c2.71,0,5.125-1.204,6.78-3.087c1.432-1.582,2.3-3.657,2.3-5.99v-21.964C187.308,315.935,183.238,311.865,178.228,311.865z
					 M185.008,342.908c0,3.727-3.05,6.781-6.78,6.781c-3.768,0-6.817-3.055-6.817-6.781v-21.964c0-3.729,3.05-6.784,6.817-6.784
					c3.73,0,6.78,3.055,6.78,6.784V342.908z"/>
				<path id="Shape_170_" fill="#11083A" d="M163.272,311.865c-0.566-4.221-4.183-7.498-8.591-7.498
					c-0.416,0-0.791,0.037-1.166,0.073c-0.754,0.115-1.509,0.302-2.186,0.604c-3.09,1.319-5.275,4.369-5.275,7.949
					c0,3.842,2.524,7.12,5.953,8.252c0.717,0.226,1.432,0.375,2.222,0.375c0.15,0.037,0.302,0.037,0.452,0.037
					c4.371,0,7.989-3.237,8.591-7.498c0.037-0.374,0.074-0.75,0.074-1.166C163.347,312.619,163.309,312.24,163.272,311.865z
					 M154.682,319.399c-0.037,0-0.037,0-0.073,0c-0.791,0-1.545-0.15-2.263-0.452c-2.336-0.942-4.028-3.241-4.028-5.953
					c0-2.486,1.432-4.635,3.539-5.688c0.677-0.338,1.432-0.566,2.222-0.641c0.188-0.04,0.417-0.04,0.604-0.04
					c3.164,0,5.766,2.263,6.291,5.239c0.078,0.375,0.114,0.754,0.114,1.129c0,0.416-0.036,0.792-0.114,1.166
					C160.411,317.137,157.81,319.399,154.682,319.399z"/>
				<rect id="Rectangle-path_28_" x="157.872" y="213.543" fill="#48B980" width="3.768" height="49.509"/>
				<path id="Shape_169_" fill="#48B980" d="M242.162,339.579c-0.629,0-1.144-0.512-1.144-1.141v-14.68
					c0-0.629,0.515-1.136,1.144-1.136c0.627,0,1.134,0.507,1.134,1.136v14.68C243.296,339.067,242.789,339.579,242.162,339.579z"/>
				<path id="Shape_168_" fill="#FFCD2D" d="M164.151,208.407c0,2.833-2.303,5.136-5.143,5.136c-2.836,0-5.139-2.303-5.139-5.136
					c0-2.841,2.303-5.14,5.139-5.14C161.849,203.267,164.151,205.566,164.151,208.407z"/>
				<path id="Shape_167_" fill="#11083A" d="M159.016,202.123c-3.466,0-6.292,2.826-6.292,6.291c0,3.087,2.222,5.611,5.163,6.141
					c0.375,0.073,0.75,0.114,1.129,0.114c0.375,0,0.754-0.041,1.13-0.114c2.939-0.53,5.162-3.054,5.162-6.141
					C165.307,204.949,162.481,202.123,159.016,202.123z M159.016,212.405c-2.222,0-3.995-1.806-3.995-3.992
					c0-2.221,1.773-3.995,3.995-3.995c2.186,0,3.992,1.774,3.992,3.995C163.007,210.6,161.202,212.405,159.016,212.405z"/>
				<path id="Shape_166_" fill="#FFCD2D" d="M164.151,268.188c0,2.844-2.303,5.144-5.143,5.144c-2.836,0-5.139-2.3-5.139-5.144
					c0-2.841,2.303-5.136,5.139-5.136C161.849,263.052,164.151,265.347,164.151,268.188z"/>
				<path id="Shape_165_" fill="#11083A" d="M160.146,262.021c-0.375-0.074-0.754-0.11-1.13-0.11c-0.379,0-0.754,0.036-1.129,0.11
					c-2.94,0.53-5.163,3.091-5.163,6.181c0,3.465,2.825,6.251,6.292,6.251c3.466,0,6.292-2.786,6.292-6.251
					C165.307,265.112,163.085,262.552,160.146,262.021z M159.016,272.194c-2.222,0-3.995-1.807-3.995-3.992
					c0-2.227,1.773-4.032,3.995-4.032c2.186,0,3.992,1.806,3.992,4.032C163.007,270.388,161.202,272.194,159.016,272.194z"/>
				<path id="Shape_164_" fill="#11083A" d="M336.76,190.369h-22.53c-0.641,0-1.133,0.526-1.133,1.129v94.334
					c0,0.64,0.492,1.166,1.133,1.166h22.53c0.64,0,1.126-0.526,1.126-1.166v-94.334C337.886,190.895,337.399,190.369,336.76,190.369
					z M315.362,284.702v-92.038h20.265v92.038H315.362z"/>
				<path id="Shape_163_" fill="#11083A" d="M326.701,334.995h-12.472c-0.641,0-1.133,0.526-1.133,1.129v8.175
					c0,0.641,0.492,1.134,1.133,1.134h12.472c0.641,0,1.125-0.493,1.125-1.134v-8.175
					C327.826,335.521,327.342,334.995,326.701,334.995z M325.567,343.17h-10.205v-5.875h10.205V343.17z"/>
				<rect id="Rectangle-path_27_" x="303.479" y="196.354" fill="#120E3B" width="10.75" height="35.916"/>
				<path id="Shape_162_" fill="#11083A" d="M314.229,195.229h-10.736c-0.64,0-1.17,0.489-1.17,1.129v35.904
					c0,0.64,0.53,1.129,1.17,1.129h10.736c0.64,0,1.133-0.489,1.133-1.129v-35.904C315.362,195.718,314.869,195.229,314.229,195.229
					z M304.619,197.487h8.478v33.642h-8.478V197.487z"/>
				<path id="Shape_161_" fill="#11083A" d="M314.229,286.998c-0.641,0-1.133-0.526-1.133-1.166v27.162
					c0-0.604,0.492-1.129,1.133-1.129h1.133v-24.867H314.229z M337.664,285.155c-0.228-0.266-0.529-0.453-0.904-0.453h-22.53
					c-0.641,0-1.133,0.527-1.133,1.13v27.162c0,0.641,0.492,1.166,1.133,1.166h15.819c0.53,0,0.986-0.374,1.097-0.863l0.073-0.266
					l1.435-5.725l0.522-2.262l4.71-18.911c0.036-0.114,0-0.188,0-0.302v-0.151C337.853,285.494,337.775,285.307,337.664,285.155z
					 M330.991,304.44l-0.56,2.226l-1.28,5.199h-13.789v-24.867h19.963L330.991,304.44z M314.229,286.998
					c-0.641,0-1.133-0.526-1.133-1.166v27.162c0-0.604,0.492-1.129,1.133-1.129h1.133v-24.867H314.229z"/>
				<path id="Shape_160_" fill="#11083A" d="M332.499,321.246l-0.339-2.299l-0.941-5.916l-0.037-0.188
					c-0.073-0.566-0.566-0.979-1.133-0.979h-15.819c-0.641,0-1.133,0.525-1.133,1.129v15.521c0,0.641,0.492,1.131,1.133,1.131
					h18.307c0.302,0,0.64-0.151,0.868-0.376c0.191-0.265,0.302-0.604,0.228-0.942L332.499,321.246z M315.362,327.387V314.16h13.708
					l0.831,5.239l0.376,2.222l0.904,5.766H315.362z"/>
				<polygon id="Shape_159_" fill="#120E3B" points="336.768,228.332 344.86,228.332 339.467,250.164 336.768,250.164 				"/>
				<path id="Shape_158_" fill="#11083A" d="M345.759,227.626c-0.221-0.265-0.56-0.415-0.898-0.415h-8.101
					c-0.604,0-1.133,0.492-1.133,1.132v21.924c0.072,0.604,0.566,1.019,1.133,1.019h2.707c0.044,0,0.118,0,0.155-0.036
					c0.448-0.04,0.831-0.343,0.941-0.832l0.037-0.224l5.35-21.589C346.061,228.266,345.986,227.928,345.759,227.626z
					 M338.569,249.023h-0.684v-19.551h5.504L338.569,249.023z"/>
				<path id="Shape_157_" fill="#11083A" d="M333.176,305.045c-0.677-0.303-1.427-0.489-2.185-0.604
					c-0.376-0.036-0.751-0.073-1.163-0.073c-4.407,0-8.028,3.277-8.595,7.498c-0.036,0.375-0.073,0.754-0.073,1.129
					c0,0.416,0.037,0.792,0.073,1.166c0.607,4.261,4.224,7.498,8.595,7.498c0.146,0,0.301,0,0.449-0.037
					c0.794,0,1.508-0.149,2.222-0.375c3.43-1.132,5.953-4.41,5.953-8.252C338.452,309.414,336.267,306.364,333.176,305.045z
					 M332.16,318.947c-0.713,0.302-1.471,0.452-2.259,0.452c-0.036,0-0.036,0-0.073,0c-3.127,0-5.731-2.263-6.291-5.239
					c-0.081-0.374-0.118-0.75-0.118-1.166c0-0.375,0.037-0.754,0.118-1.129c0.522-2.977,3.127-5.239,6.291-5.239
					c0.185,0,0.412,0,0.604,0.04c0.787,0.074,1.546,0.303,2.222,0.641c2.105,1.053,3.54,3.201,3.54,5.688
					C336.193,315.706,334.501,318.005,332.16,318.947z"/>
				<polygon id="Shape_156_" fill="#120E3B" points="336.768,262.72 341.446,262.72 339.467,250.263 336.768,250.263 				"/>
				<path id="Shape_155_" fill="#11083A" d="M340.601,250.193v-0.114c-0.11-0.489-0.412-0.827-0.865-0.942
					c-0.077-0.036-0.188-0.036-0.269-0.036h-2.707c-0.566,0-1.061,0.453-1.133,1.056v12.582c0,0.604,0.528,1.13,1.133,1.13h4.672
					c0.339,0,0.678-0.151,0.905-0.416c0.185-0.261,0.294-0.599,0.224-0.9L340.601,250.193z M337.886,261.568V251.4h0.603
					l1.619,10.168H337.886z"/>
				<polygon id="Shape_154_" fill="#120E3B" points="147.74,228.332 139.646,228.332 145.046,250.164 147.74,250.164 				"/>
				<path id="Shape_153_" fill="#11083A" d="M147.75,227.211h-8.101c-0.339,0-0.677,0.15-0.902,0.415
					c-0.229,0.302-0.301,0.64-0.192,0.979l5.349,21.589l0.041,0.224c0.11,0.489,0.489,0.792,0.942,0.832
					c0.036,0.036,0.11,0.036,0.15,0.036h2.712c0.566,0,1.056-0.415,1.13-1.019v-21.924
					C148.88,227.703,148.354,227.211,147.75,227.211z M146.584,229.473v19.551h-0.644l-4.819-19.551H146.584z"/>
				<polygon id="Shape_152_" fill="#120E3B" points="147.74,262.72 143.063,262.72 145.046,250.263 147.74,250.263 				"/>
				<path id="Shape_151_" fill="#11083A" d="M147.75,249.101h-2.712c-0.077,0-0.191,0-0.263,0.036
					c-0.454,0.115-0.755,0.453-0.871,0.942v0.114l-1.955,12.358c-0.075,0.302,0.036,0.64,0.263,0.9
					c0.188,0.265,0.527,0.416,0.865,0.416h4.672c0.603,0,1.13-0.525,1.13-1.13v-12.582
					C148.806,249.554,148.317,249.101,147.75,249.101z M146.018,251.4h0.566v10.168h-2.185L146.018,251.4z"/>
				<path id="Shape_150_" fill="#11083A" d="M304.399,334.995c0.639,0,1.125,0.526,1.125,1.129c0,0.641-0.486,1.171-1.125,1.171
					h8.697v-2.3H304.399z M343.69,358.994l-0.036-0.151l-5.916-22.979c-0.154-0.53-0.604-0.868-1.133-0.868h-38.24
					c-0.641,0-1.162,0.526-1.162,1.129v23.135c0,0.64,0.521,1.165,1.162,1.165h44.229c0.34,0,0.686-0.187,0.909-0.451
					c0.151-0.225,0.225-0.453,0.225-0.714C343.728,359.182,343.728,359.066,343.69,358.994z M299.498,337.295h36.245l5.388,20.831
					h-41.633V337.295z M304.399,334.995c0.639,0,1.125,0.526,1.125,1.129c0,0.641-0.486,1.171-1.125,1.171h8.697v-2.3H304.399z"/>
				<path id="Shape_149_" fill="#11083A" d="M336.76,224.535h-22.53c-0.641,0-1.133,0.53-1.133,1.134v24.863
					c0,0.64,0.492,1.129,1.133,1.129h22.53c0.338,0,0.64-0.15,0.824-0.376c0.191-0.187,0.302-0.451,0.302-0.753v-24.863
					C337.886,225.065,337.399,224.535,336.76,224.535z M315.362,249.402v-22.604h20.265v22.604H315.362z"/>
				<path id="Shape_148_" fill="#11083A" d="M313.097,314.992c-1.656-1.924-4.107-3.127-6.814-3.127
					c-5.011,0-9.079,4.069-9.079,9.079v21.964c0,2.333,0.868,4.408,2.295,5.99c1.656,1.883,4.069,3.087,6.784,3.087
					c4.144,0,7.646-2.785,8.697-6.553c0.229-0.718,0.338-1.472,0.383-2.263v-22.226
					C315.362,318.683,314.531,316.574,313.097,314.992z M313.097,342.908c0,3.727-3.047,6.781-6.814,6.781
					c-3.73,0-6.784-3.055-6.784-6.781v-21.964c0-3.729,3.054-6.784,6.784-6.784c3.768,0,6.814,3.055,6.814,6.784V342.908z"/>
				<rect id="Rectangle-path_26_" x="324.361" y="213.543" fill="#48B980" width="3.767" height="49.509"/>
				<path id="Shape_147_" fill="#FFCD2D" d="M320.357,208.407c0,2.833,2.305,5.136,5.145,5.136s5.136-2.303,5.136-5.136
					c0-2.841-2.296-5.14-5.136-5.14S320.357,205.566,320.357,208.407z"/>
				<path id="Shape_146_" fill="#11083A" d="M325.495,202.123c-3.467,0-6.292,2.826-6.292,6.291c0,3.087,2.223,5.611,5.158,6.141
					c0.375,0.073,0.758,0.114,1.134,0.114c0.374,0,0.75-0.041,1.125-0.114c2.942-0.53,5.165-3.054,5.165-6.141
					C331.785,204.949,328.96,202.123,325.495,202.123z M325.495,212.405c-2.187,0-3.997-1.806-3.997-3.992
					c0-2.221,1.811-3.995,3.997-3.995c2.221,0,3.994,1.774,3.994,3.995C329.489,210.6,327.716,212.405,325.495,212.405z"/>
				<path id="Shape_145_" fill="#FFCD2D" d="M320.357,268.188c0,2.844,2.305,5.144,5.145,5.144s5.136-2.3,5.136-5.144
					c0-2.841-2.296-5.136-5.136-5.136S320.357,265.347,320.357,268.188z"/>
				<path id="Shape_144_" fill="#11083A" d="M326.62,262.021c-0.375-0.074-0.751-0.11-1.125-0.11c-0.376,0-0.759,0.036-1.134,0.11
					c-2.936,0.53-5.158,3.091-5.158,6.181c0,3.465,2.825,6.251,6.292,6.251c3.465,0,6.29-2.786,6.29-6.251
					C331.785,265.112,329.562,262.552,326.62,262.021z M325.495,272.194c-2.187,0-3.997-1.807-3.997-3.992
					c0-2.227,1.811-4.032,3.997-4.032c2.221,0,3.994,1.806,3.994,4.032C329.489,270.388,327.716,272.194,325.495,272.194z"/>
				<path id="Shape_143_" fill="#11083A" d="M176.134,337.28c-0.633,0-1.144-0.508-1.144-1.138v-15.379
					c0-0.628,0.511-1.139,1.144-1.139c0.626,0,1.137,0.511,1.137,1.139v15.379C177.271,336.772,176.76,337.28,176.134,337.28z"/>
				<path id="Shape_142_" fill="#49BA81" d="M176.134,344.461c-0.633,0-1.144-0.508-1.144-1.137v-7.182
					c0-0.632,0.511-1.14,1.144-1.14c0.626,0,1.137,0.508,1.137,1.14v7.182C177.271,343.953,176.76,344.461,176.134,344.461z"/>
				<path id="Shape_141_" fill="#11083A" d="M179.931,337.28c-0.633,0-1.141-0.508-1.141-1.138v-15.379
					c0-0.628,0.507-1.139,1.141-1.139c0.629,0,1.136,0.511,1.136,1.139v15.379C181.067,336.772,180.56,337.28,179.931,337.28z"/>
				<path id="Shape_140_" fill="#49BA81" d="M179.931,344.461c-0.633,0-1.141-0.508-1.141-1.137v-7.182
					c0-0.632,0.507-1.14,1.141-1.14c0.629,0,1.136,0.508,1.136,1.14v7.182C181.067,343.953,180.56,344.461,179.931,344.461z"/>
				<path id="Shape_139_" fill="#11083A" d="M304.392,337.28c-0.634,0-1.141-0.508-1.141-1.138v-15.379
					c0-0.628,0.507-1.139,1.141-1.139c0.625,0,1.133,0.511,1.133,1.139v15.379C305.524,336.772,305.017,337.28,304.392,337.28z"/>
				<path id="Shape_138_" fill="#49BA81" d="M304.392,344.461c-0.634,0-1.141-0.508-1.141-1.137v-7.182
					c0-0.632,0.507-1.14,1.141-1.14c0.625,0,1.133,0.508,1.133,1.14v7.182C305.524,343.953,305.017,344.461,304.392,344.461z"/>
				<path id="Shape_137_" fill="#11083A" d="M308.188,337.28c-0.633,0-1.141-0.508-1.141-1.138v-15.379
					c0-0.628,0.508-1.139,1.141-1.139c0.626,0,1.142,0.511,1.142,1.139v15.379C309.329,336.772,308.813,337.28,308.188,337.28z"/>
				<path id="Shape_136_" fill="#49BA81" d="M308.188,344.461c-0.633,0-1.141-0.508-1.141-1.137v-7.182
					c0-0.632,0.508-1.14,1.141-1.14c0.626,0,1.142,0.508,1.142,1.14v7.182C309.329,343.953,308.813,344.461,308.188,344.461z"/>
				<path id="Shape_135_" fill="#11083A" d="M213.016,273.581h-12.71c-0.625,0-1.136-0.511-1.136-1.137
					c0-0.63,0.511-1.145,1.136-1.145h12.71c0.626,0,1.133,0.515,1.133,1.145C214.149,273.07,213.642,273.581,213.016,273.581z"/>
				<path id="Shape_134_" fill="#11083A" d="M213.016,265.987h-12.71c-0.625,0-1.136-0.507-1.136-1.137
					c0-0.633,0.511-1.142,1.136-1.142h12.71c0.626,0,1.133,0.509,1.133,1.142C214.149,265.48,213.642,265.987,213.016,265.987z"/>
				<path id="Shape_133_" fill="#11083A" d="M213.016,258.394h-12.71c-0.625,0-1.136-0.511-1.136-1.137
					c0-0.633,0.511-1.144,1.136-1.144h12.71c0.626,0,1.133,0.511,1.133,1.144C214.149,257.883,213.642,258.394,213.016,258.394z"/>
				<path id="Shape_132_" fill="#11083A" d="M213.016,250.8h-12.71c-0.625,0-1.136-0.507-1.136-1.141
					c0-0.629,0.511-1.136,1.136-1.136h12.71c0.626,0,1.133,0.507,1.133,1.136C214.149,250.293,213.642,250.8,213.016,250.8z"/>
				<path id="Shape_131_" fill="#11083A" d="M166.245,303.227h-6.538c-0.625,0-1.145-0.508-1.145-1.144
					c0-0.63,0.52-1.138,1.145-1.138h6.538c0.628,0,1.141,0.508,1.141,1.138C167.386,302.719,166.874,303.227,166.245,303.227z"/>
				<path id="Shape_130_" fill="#11083A" d="M166.245,299.312h-6.538c-0.625,0-1.145-0.508-1.145-1.138
					c0-0.632,0.52-1.14,1.145-1.14h6.538c0.628,0,1.141,0.508,1.141,1.14C167.386,298.805,166.874,299.312,166.245,299.312z"/>
				<path id="Shape_129_" fill="#11083A" d="M166.245,295.405h-6.538c-0.625,0-1.145-0.508-1.145-1.137
					c0-0.63,0.52-1.141,1.145-1.141h6.538c0.628,0,1.141,0.511,1.141,1.141C167.386,294.897,166.874,295.405,166.245,295.405z"/>
				<path id="Shape_128_" fill="#11083A" d="M166.245,291.498h-6.538c-0.625,0-1.145-0.512-1.145-1.141s0.52-1.137,1.145-1.137
					h6.538c0.628,0,1.141,0.508,1.141,1.137S166.874,291.498,166.245,291.498z"/>
				<path id="Shape_127_" fill="#11083A" d="M324.685,303.227h-6.534c-0.64,0-1.147-0.508-1.147-1.144
					c0-0.63,0.508-1.138,1.147-1.138h6.534c0.633,0,1.141,0.508,1.141,1.138C325.825,302.719,325.317,303.227,324.685,303.227z"/>
				<path id="Shape_126_" fill="#11083A" d="M324.685,299.312h-6.534c-0.64,0-1.147-0.508-1.147-1.138
					c0-0.632,0.508-1.14,1.147-1.14h6.534c0.633,0,1.141,0.508,1.141,1.14C325.825,298.805,325.317,299.312,324.685,299.312z"/>
				<path id="Shape_125_" fill="#11083A" d="M324.685,295.405h-6.534c-0.64,0-1.147-0.508-1.147-1.137
					c0-0.63,0.508-1.141,1.147-1.141h6.534c0.633,0,1.141,0.511,1.141,1.141C325.825,294.897,325.317,295.405,324.685,295.405z"/>
				<path id="Shape_124_" fill="#11083A" d="M324.685,291.498h-6.534c-0.64,0-1.147-0.512-1.147-1.141s0.508-1.137,1.147-1.137
					h6.534c0.633,0,1.141,0.508,1.141,1.137S325.317,291.498,324.685,291.498z"/>
				<path id="Shape_123_" fill="#11083A" d="M293.17,279.541l-5.12-5.125c-0.229-0.225-0.53-0.339-0.832-0.339h-7.271
					c-0.301,0-0.566,0.114-0.794,0.339l-5.121,5.125c-0.225,0.224-0.339,0.526-0.339,0.828v7.232c0,0.302,0.114,0.604,0.339,0.827
					l5.121,5.125c0.228,0.229,0.493,0.34,0.794,0.34h7.271c0.302,0,0.604-0.111,0.832-0.34l5.12-5.125
					c0.229-0.224,0.338-0.525,0.338-0.827v-7.232C293.508,280.067,293.398,279.765,293.17,279.541z M291.213,287.148l-4.444,4.485
					h-6.335l-4.481-4.485v-6.328l4.481-4.443h6.335l4.444,4.443V287.148z"/>
				<path id="Shape_122_" fill="#49BA81" d="M280.021,162.036c0,2.836,2.296,5.143,5.136,5.143c2.841,0,5.144-2.307,5.144-5.143
					c0-2.838-2.303-5.138-5.144-5.138C282.317,156.898,280.021,159.198,280.021,162.036z"/>
				<path id="Shape_121_" fill="#11083A" d="M285.143,155.745c-3.466,0-6.254,2.825-6.254,6.293c0,3.465,2.788,6.291,6.254,6.291
					s6.291-2.826,6.291-6.291C291.434,158.57,288.608,155.745,285.143,155.745z M285.143,166.03c-2.186,0-3.987-1.808-3.987-3.992
					c0-2.186,1.802-3.994,3.987-3.994c2.223,0,3.995,1.808,3.995,3.994C289.138,164.222,287.365,166.03,285.143,166.03z"/>
				<path id="Shape_120_" fill="#11083A" d="M220.497,363.552c0,0.15-0.038,0.302-0.074,0.452c-0.188,0.416-0.567,0.714-1.056,0.714
					h-106.24l-3.918-2.259c0.04-0.037,0.077-0.037,0.114-0.037h110.044C220.007,362.422,220.497,362.948,220.497,363.552z"/>
				<path id="Shape_119_" fill="#11083A" d="M375.449,362.422l-3.959,2.296H265.331c-0.644,0-1.13-0.526-1.13-1.166
					c0-0.604,0.486-1.13,1.13-1.13h110.044C375.411,362.422,375.411,362.422,375.449,362.422z"/>
			</g>
		</g>
	</g>
</g>
</svg>
