<svg id="Layer_2" data-name="Layer 2" xmlns="http://www.w3.org/2000/svg" viewBox="0 0 1200 1200"><defs><style>.cls-1{fill:#0c7a93;}.cls-2{fill:#2dd7e8;}.cls-3{fill:#15003e;}.cls-4{fill:#fff;}.cls-5{opacity:0.13;isolation:isolate;}.cls-6{fill:#25e899;}</style></defs><title>robokop</title><polygon class="cls-1" points="1110.54 301.69 1110.54 896.48 595.5 1193.87 183.33 955.96 181.47 954.85 80.35 896.48 80.35 301.69 595.5 4.3 1110.54 301.69"/><path class="cls-2" d="M1027.75,353.92V847.78l-.09.09-10.13,5.77-3.07,1.76-1.21.65-8.18,4.74-29.18,16.85L974,878.76,956.1,889.08l-1.49.83-13.75,8-4.4,2.48-1.3.74-4.37,2.51-2.23,1.21-.28.09-.93.36-1,.66L898.2,922.11l-7.62,4.38-9.79,5.61-.37.27L869,939l-4.19,2.41-.17.19h-.1l-14.32,8.27-8.08,4.84-11.71,6.69-.47.28-.64.37-.75.46-3.81,2.23-.28.1-.47.27-.46.19-.56.37v.1l-7.24,4.17-1.68.84-.19.19-.36.18-9.39,5.39-1.3.75-1.4.83-.46.29L798,980l-2.18,1.29h-.09l-.65.37-5.95,3.53-1.85,1.12-3.07,1.76-2.32,1.3a.11.11,0,0,1-.1.1L777.41,992l-3.91,2.23-.38.27-5.29,3.07-21.66,12.46-5.88,3.33-.55.28-32.53,18.83-.19.09-.09.09-3.72,2.14-3.25,1.85-4.65,2.7-1.3.74-11.61,6.69-9.11,5.31-3.63,2-.09.09-4,2.33-3.72,2.14L640,1071.33l-3.34,2-.38.18-1.67.93-4.64,2.69-17.39,10-5.2,3h-.09l-3,1.76-4.46,2.6-1.3-.74-11.9-6.88-7.93-4.55-.28-.09-8.46-5-1.58-.93-.46-.28-5.67-3.25-1.58-.93-31.23-18-.37-.28-19.24-11.06-44.14-25.65-5.67-3.25-6.41-3.62-8.64-5-2.05-1.11-.84-.55-.28-.19-20.72-12-11.35-6.48-3.46-2-3.63-2-2.14-1.21-2.41-1.4-2.23-1.4-.84-.45-3.25-1.87-.75-.46-.74-.37-.38-.29-12.07-6.87-.47-.27-1.39-.75-3.4-2.07L356.69,954l-23.33-13.57-19.43-11.15-7.62-4.36-.83-.47-4.65-2.69-.09-.1-2-1.11h-.09L289,915c-.1-.09-.1-.09-.19-.09l-17.31-10L262,899.39l-12.4-7.19-6.69-4-.37-.18-.19-.09-2.66-1.61a.27.27,0,0,1-.18-.1l-2.42-1.39-.18-.1-30.67-17.65L174.55,848.8l-.84-.46L173,848l-.28-.18V353.92l52.6-30.29,7.16-4.29h.08l2.33-1.29,5.4-3.07,16.31-9.34,21.11-12.18L285.3,289l1.39-.84,19.24-11.06,9.1-5.3,9.39-5.48,3.9-2.23,4.18-2.42,2.33-1.29h.05l5.3-3.08,30-17.27,14.68-8.56,1.58-.83,15.43-8.83,7.24-4.19,3.54-2,4.09-2.42,10.22-6,4.83-2.8L453,192.25l6.41-3.81,13-7.43h.1l.46-.28L526.19,150l1.76-1,2.52-1.49,56.41-32.62,13.38-7.71,9.86,5.76,60.31,34.85,24.16,13.94,36.67,21.19,12.45,7.16,61.71,35.59,9.67,5.67,21.35,12.15,8.09,4.65,14.13,8.18,12.73,7.34,7.43,4.28.84.55,16.85,9.67,35.09,20.26.37.28v.09l2.42,1.3,2.42,1.49,3.71,2.13,8.55,5,5,2.88.18.09L972.12,322l7.25,4.08,4.08,2.33,18,10.41Z"/><path class="cls-3" d="M721.92,1073.75l14.55-8.35.66,1.14a28.16,28.16,0,0,1,3.13,7.57,17.59,17.59,0,0,1,0,7.08,18.47,18.47,0,0,1-9.29,12.69,19.85,19.85,0,0,1-15.73,2,21.18,21.18,0,0,1-4.83-38.87,20.76,20.76,0,0,1,8.67-2.74,25.59,25.59,0,0,1,9.92,1.57l-1.72,5.82q-7.63-3.27-13.88.3a14.44,14.44,0,0,0-7.15,9.26,14.83,14.83,0,0,0,1.67,11.66,14.31,14.31,0,0,0,9.79,7.26,14.53,14.53,0,0,0,10.61-1.4,12.22,12.22,0,0,0,5.5-6.68,10.9,10.9,0,0,0-.16-8.39l-8.79,5.06Z"/><rect class="cls-3" x="755.35" y="1033.43" width="6.13" height="40.63" transform="translate(-424.8 519.35) rotate(-29.95)"/><polygon class="cls-3" points="784.09 1022.17 801.47 1052.39 796.17 1055.44 778.78 1025.23 770.69 1029.89 767.81 1024.9 789.28 1012.53 792.15 1017.53 784.09 1022.17"/><path class="cls-3" d="M832,990.44l3.62,6.28q-6.84-1.2-11.75,1.63a14.08,14.08,0,0,0-6.94,9.16,15.25,15.25,0,0,0,1.72,11.65,14.86,14.86,0,0,0,9.12,7.2,14.37,14.37,0,0,0,11.38-1.47,12.92,12.92,0,0,0,4.22-3.66,15.7,15.7,0,0,0,1.57-2.53,33.65,33.65,0,0,0,1.4-3.34l3.69,6.41a22,22,0,0,1-8.09,8.11A20.37,20.37,0,0,1,826.1,1032a20.16,20.16,0,0,1-12.71-9.76,20.84,20.84,0,0,1-2.44-14.55,20.32,20.32,0,0,1,10.43-14.56A20.56,20.56,0,0,1,832,990.44"/><path class="cls-4" d="M857.79,988.85A19.86,19.86,0,0,1,855.88,973a20.82,20.82,0,0,1,10-12.88,21.25,21.25,0,0,1,28.85,7.77,20,20,0,0,1,2,16,21.47,21.47,0,0,1-25.07,15.2q-9-1.77-13.87-10.25m5.38-3a15.06,15.06,0,0,0,27.75-3.3,15.74,15.74,0,0,0-10.81-18.89,14.3,14.3,0,0,0-11.47,1.49,14.47,14.47,0,0,0-7.07,9.17,14.67,14.67,0,0,0,1.68,11.49"/><rect class="cls-3" x="913.13" y="942.56" width="6.14" height="40.62" transform="translate(-358.49 586.43) rotate(-29.97)"/><polygon class="cls-3" points="949.61 967.15 927.97 929.53 969.12 941.62 955.03 917.14 960.33 914.1 981.84 951.46 940.73 939.43 954.92 964.08 949.61 967.15"/><g id="Layer_2-2" data-name="Layer 2-2"><g id="Layer_16" data-name="Layer 16"><path class="cls-5" d="M980.05,326.36l-4.95-2.78-6.69-3.91-7.16-4.18-1-.56-4.56-2.6L951,309.6l-8.35-4.84L875.2,265.92l-15.86-9.11-6.69-3.91-4.18-2.41-4.55-2.69-.47-.19-3.9-2.32-3.82-2.23-49.56-28.54L605,110.1l-5-2.88-4.38,2.51-159,91.83L390,228.51l-12.08,6.94-5,2.87-.93.47H372l-2.3,1.42-3.9,2.32L363,244.12l-2.51,1.49-1.67.92-13.94,8.09h0l-16.54,9.47-.1.1-5.38,3.16-7.07,4-.09.09-.29.19L285.12,289H285l-22.11,12.74-9.32,5.41-27.76,16-39.31,22.68-14.31,8.27V847.69l.65.37,16,9.3,6.94,4,1.39.75,40.15,23.23,6.42,3.63,4.95,2.87,17.48,10.13L281,910.49l4.27,2.42,12.08,6.93L328.76,938l50,28.82,6.41,3.72.66.36,1.39.75,1,.65,1.67.92.38.19L408,983.77l8.18,4.65,12.36,7.24,8.28,4.74,1.67.93,2.88,1.68,1.76,1,4.46,2.6,33.19,19.05.83.46,4.09,2.42,5.76,3.35,6.7,3.9h.08l5,2.79,14,8.08,29.46,17.1,41.63,24,9.57,5.58,2.14,1.21.18-.1,1.77-1,1.31-.74.27-.18,2.88-1.68,16.85-9.57.84-.47,6.42-3.72,4.64-2.69,2.23-1.3,35.78-20.63,22.8-13.1,6.88-4,6.13-3.53,6.23-3.61,4.09-2.42,21.59-12.44,3.63-2h.09l2.14-1.3,2-1.12,5.85-3.34,7.43-4.28,11.72-6.79L778,992h.09l4.28-2.51.09-.09,2.33-1.31,5-2.87,3.44-2,3.26-2,5.1-2.88,2-1.21,3-1.67,4-2.23.19-.1.47-.27,1.21-.75,2.23-1.21,35.13-20.26,3.53-2,10.31-6,27.6-15.86,14.5-8.35L934,902l17.57-10.13,33.29-19.27H985l.56-.37L1010.17,858l8.36-4.84,9.57-5.48V354.08Zm30.67,511.48-4.83,2.78-3,1.68-5.38,3.15L927,886.16l-10,5.76L899.39,902l-15.8,9.11-29,16.73-11.89,6.88L836,938.53l-27.23,15.7-.65.47-1.49.84-1.68,1-5.29,3-8.28,4.74-2,1.21-.48.35-7.53,4.37-.84.46-36.34,20.91-.74.47-7.34,4.18-.74.47-8.46,5-20,11.52-14.29,8.18-15.62,9-10.23,5.86-27.57,16-11.43,6.61-.57.37H627l-6.94,4.09-2.6,1.39-17.38,10L568,1056.19l-11.43-6.6-5.67-3.25-16.85-9.77-6.69-3.8-6.42-3.72-48.91-28.16-7.16-4.19-.46-.27-16.64-9.58-19.14-11-8.37-4.84-5.39-3.15-2.32-1.4-4-2.32-2-1.12-16.25-9.38L387.5,952l-1.76-1-13.94-8.08L340,924.62l-36.32-21-2.8-1.59L287.3,894.2l-4-2.33-27.76-16L210,849.5l-8.35-4.74L198,842.62l-2.14-1.21-6.23-3.62V364.12l36.21-21,27.76-16,8.64-5h.09l.57-.38,29.73-17.18h.09l12.64-7.35h.1l16.63-9.58,11.62-6.69,4-2.32h.09l7.07-4.08L349.1,272h.1l27.7-16c.09-.1.09-.1.18-.1l7.25-4.18,3.25-1.85,1.86-1.12,2.69-1.58,1.59-.93,2.51-1.39.36-.19,74.64-43.11,124.44-71.85L600,127.2l5,2.89,156.41,90.2,64.86,37.46.47.28,3,1.67,1,.56,4.09,2.42,3.25,1.85,11.43,6.6,18,10.41,65.24,37.55,13.11,7.52,5.1,3,.38.28L958.5,334l1.76,1,5,2.88,5,2.88,40.49,23.41V837.84Z"/></g></g><rect class="cls-3" x="380.79" y="759.96" width="13.92" height="13.93"/><rect class="cls-3" x="380.79" y="773.89" width="13.92" height="13.93"/><rect class="cls-3" x="380.79" y="787.82" width="13.92" height="13.92"/><rect class="cls-3" x="366.86" y="773.89" width="13.93" height="13.93"/><rect class="cls-3" x="352.92" y="773.89" width="13.93" height="13.93"/><rect class="cls-3" x="408.64" y="787.82" width="13.93" height="13.92"/><rect class="cls-3" x="422.57" y="746.04" width="13.92" height="13.92"/><rect class="cls-3" x="408.64" y="759.96" width="13.93" height="13.93"/><rect class="cls-3" x="408.64" y="746.04" width="13.93" height="13.92"/><rect class="cls-3" x="408.64" y="773.89" width="13.93" height="13.93"/><rect class="cls-3" x="422.57" y="801.74" width="13.92" height="13.93"/><rect class="cls-3" x="408.64" y="801.74" width="13.93" height="13.93"/><rect class="cls-3" x="394.7" y="746.04" width="13.93" height="13.92"/><rect class="cls-3" x="394.7" y="801.74" width="13.93" height="13.93"/><rect class="cls-3" x="380.79" y="746.04" width="13.92" height="13.92"/><rect class="cls-3" x="380.79" y="801.74" width="13.92" height="13.93"/><rect class="cls-3" x="366.86" y="746.04" width="13.93" height="13.92"/><rect class="cls-3" x="366.86" y="801.74" width="13.93" height="13.93"/><rect class="cls-3" x="352.92" y="746.04" width="13.93" height="13.92"/><rect class="cls-3" x="352.92" y="801.74" width="13.93" height="13.93"/><rect class="cls-3" x="339.01" y="801.74" width="13.92" height="13.93"/><rect class="cls-3" x="339.01" y="746.04" width="13.92" height="13.92"/><rect class="cls-3" x="325.07" y="746.04" width="13.93" height="13.92"/><rect class="cls-3" x="325.07" y="801.74" width="13.93" height="13.93"/><rect class="cls-3" x="297.22" y="773.89" width="13.92" height="13.93"/><rect class="cls-3" x="311.14" y="773.89" width="13.93" height="13.93"/><rect class="cls-3" x="311.14" y="746.04" width="13.93" height="13.92"/><rect class="cls-3" x="311.14" y="801.74" width="13.93" height="13.93"/><rect class="cls-3" x="311.14" y="787.82" width="13.93" height="13.92"/><rect class="cls-3" x="297.22" y="759.96" width="13.92" height="13.93"/><rect class="cls-3" x="297.22" y="746.04" width="13.92" height="13.92"/><rect class="cls-3" x="756.8" y="899.23" width="13.93" height="13.92"/><rect class="cls-3" x="756.8" y="885.3" width="13.93" height="13.93"/><rect class="cls-3" x="756.8" y="871.37" width="13.93" height="13.93"/><rect class="cls-3" x="756.8" y="857.45" width="13.93" height="13.92"/><rect class="cls-3" x="756.8" y="843.52" width="13.93" height="13.93"/><rect class="cls-3" x="756.8" y="829.6" width="13.93" height="13.92"/><rect class="cls-3" x="756.8" y="815.67" width="13.93" height="13.93"/><rect class="cls-3" x="756.8" y="801.74" width="13.93" height="13.93"/><rect class="cls-3" x="756.8" y="787.82" width="13.93" height="13.92"/><rect class="cls-3" x="756.8" y="773.89" width="13.93" height="13.93"/><rect class="cls-3" x="756.8" y="759.96" width="13.93" height="13.93"/><rect class="cls-3" x="756.8" y="509.28" width="13.93" height="13.93"/><rect class="cls-3" x="756.8" y="495.36" width="13.93" height="13.92"/><rect class="cls-3" x="756.8" y="481.43" width="13.93" height="13.93"/><rect class="cls-3" x="756.8" y="467.49" width="13.93" height="13.93"/><rect class="cls-3" x="756.8" y="453.58" width="13.93" height="13.92"/><rect class="cls-3" x="742.88" y="913.15" width="13.92" height="13.93"/><rect class="cls-3" x="742.88" y="899.23" width="13.92" height="13.92"/><rect class="cls-3" x="742.88" y="885.3" width="13.92" height="13.93"/><rect class="cls-3" x="742.88" y="871.37" width="13.92" height="13.93"/><rect class="cls-3" x="742.88" y="829.6" width="13.92" height="13.92"/><rect class="cls-3" x="742.88" y="787.82" width="13.92" height="13.92"/><rect class="cls-3" x="742.88" y="759.96" width="13.92" height="13.93"/><rect class="cls-3" x="742.88" y="746.04" width="13.92" height="13.92"/><rect class="cls-3" x="742.88" y="523.21" width="13.92" height="13.93"/><rect class="cls-3" x="742.88" y="509.28" width="13.92" height="13.93"/><rect class="cls-3" x="742.88" y="453.58" width="13.92" height="13.92"/><rect class="cls-3" x="728.95" y="913.15" width="13.93" height="13.93"/><rect class="cls-3" x="728.95" y="899.23" width="13.93" height="13.92"/><rect class="cls-3" x="728.95" y="885.3" width="13.93" height="13.93"/><rect class="cls-3" x="728.95" y="871.37" width="13.93" height="13.93"/><rect class="cls-3" x="728.95" y="857.45" width="13.93" height="13.92"/><rect class="cls-3" x="728.95" y="843.52" width="13.93" height="13.93"/><rect class="cls-3" x="728.95" y="829.6" width="13.93" height="13.92"/><rect class="cls-3" x="728.95" y="787.82" width="13.93" height="13.92"/><rect class="cls-3" x="728.95" y="746.04" width="13.93" height="13.92"/><rect class="cls-3" x="728.95" y="676.4" width="13.93" height="13.93"/><rect class="cls-3" x="728.95" y="662.48" width="13.93" height="13.92"/><rect class="cls-3" x="728.95" y="648.55" width="13.93" height="13.93"/><rect class="cls-3" x="728.95" y="634.62" width="13.93" height="13.93"/><rect class="cls-3" x="728.95" y="620.7" width="13.93" height="13.92"/><rect class="cls-3" x="728.95" y="606.77" width="13.93" height="13.93"/><rect class="cls-3" x="728.95" y="592.84" width="13.93" height="13.93"/><rect class="cls-3" x="728.95" y="578.92" width="13.93" height="13.92"/><rect class="cls-3" x="728.95" y="564.99" width="13.93" height="13.93"/><rect class="cls-3" x="728.95" y="551.06" width="13.93" height="13.93"/><rect class="cls-3" x="728.95" y="537.14" width="13.93" height="13.92"/><rect class="cls-3" x="728.95" y="523.21" width="13.93" height="13.93"/><rect class="cls-3" x="728.95" y="509.28" width="13.93" height="13.93"/><rect class="cls-3" x="728.95" y="495.36" width="13.93" height="13.92"/><rect class="cls-3" x="728.95" y="481.43" width="13.93" height="13.93"/><rect class="cls-3" x="728.95" y="467.49" width="13.93" height="13.93"/><rect class="cls-3" x="728.95" y="453.58" width="13.93" height="13.92"/><rect class="cls-3" x="728.95" y="439.65" width="13.93" height="13.93"/><rect class="cls-3" x="728.95" y="425.73" width="13.93" height="13.92"/><rect class="cls-3" x="728.95" y="411.8" width="13.93" height="13.93"/><rect class="cls-3" x="728.95" y="397.86" width="13.93" height="13.93"/><rect class="cls-3" x="728.95" y="383.95" width="13.93" height="13.92"/><rect class="cls-3" x="728.95" y="370.02" width="13.93" height="13.93"/><rect class="cls-3" x="728.95" y="356.08" width="13.93" height="13.93"/><rect class="cls-3" x="728.95" y="342.17" width="13.93" height="13.92"/><rect class="cls-3" x="728.95" y="328.23" width="13.93" height="13.93"/><rect class="cls-3" x="728.95" y="314.3" width="13.93" height="13.93"/><rect class="cls-3" x="715.02" y="899.23" width="13.93" height="13.92"/><rect class="cls-3" x="715.02" y="885.3" width="13.93" height="13.93"/><rect class="cls-3" x="715.02" y="871.37" width="13.93" height="13.93"/><rect class="cls-3" x="715.02" y="843.52" width="13.93" height="13.93"/><rect class="cls-3" x="715.02" y="787.82" width="13.93" height="13.92"/><rect class="cls-3" x="715.02" y="746.04" width="13.93" height="13.92"/><rect class="cls-3" x="715.02" y="690.33" width="13.93" height="13.93"/><rect class="cls-3" x="715.02" y="676.4" width="13.93" height="13.93"/><rect class="cls-3" x="715.02" y="662.48" width="13.93" height="13.92"/><rect class="cls-3" x="715.02" y="648.55" width="13.93" height="13.93"/><rect class="cls-3" x="715.02" y="634.62" width="13.93" height="13.93"/><rect class="cls-3" x="715.02" y="620.7" width="13.93" height="13.92"/><rect class="cls-3" x="715.02" y="606.77" width="13.93" height="13.93"/><rect class="cls-3" x="715.02" y="592.84" width="13.93" height="13.93"/><rect class="cls-3" x="715.02" y="578.92" width="13.93" height="13.92"/><rect class="cls-3" x="715.02" y="564.99" width="13.93" height="13.93"/><rect class="cls-3" x="715.02" y="551.06" width="13.93" height="13.93"/><rect class="cls-3" x="715.02" y="537.14" width="13.93" height="13.92"/><rect class="cls-3" x="715.02" y="523.21" width="13.93" height="13.93"/><rect class="cls-3" x="715.02" y="509.28" width="13.93" height="13.93"/><rect class="cls-3" x="715.02" y="495.36" width="13.93" height="13.92"/><rect class="cls-3" x="715.02" y="481.43" width="13.93" height="13.93"/><rect class="cls-3" x="715.02" y="467.49" width="13.93" height="13.93"/><rect class="cls-3" x="715.02" y="453.58" width="13.93" height="13.92"/><rect class="cls-3" x="715.02" y="439.65" width="13.93" height="13.93"/><rect class="cls-3" x="715.02" y="425.73" width="13.93" height="13.92"/><rect class="cls-3" x="715.02" y="411.8" width="13.93" height="13.93"/><rect class="cls-3" x="715.02" y="397.86" width="13.93" height="13.93"/><rect class="cls-3" x="715.02" y="383.95" width="13.93" height="13.92"/><rect class="cls-3" x="715.02" y="370.02" width="13.93" height="13.93"/><rect class="cls-3" x="715.02" y="356.08" width="13.93" height="13.93"/><rect class="cls-3" x="715.02" y="342.17" width="13.93" height="13.92"/><rect class="cls-3" x="715.02" y="328.23" width="13.93" height="13.93"/><rect class="cls-3" x="715.02" y="314.3" width="13.93" height="13.93"/><rect class="cls-3" x="715.02" y="300.39" width="13.93" height="13.92"/><rect class="cls-3" x="701.1" y="899.23" width="13.92" height="13.92"/><rect class="cls-3" x="701.1" y="885.3" width="13.92" height="13.93"/><rect class="cls-3" x="701.1" y="871.37" width="13.92" height="13.93"/><rect class="cls-3" x="701.1" y="857.45" width="13.92" height="13.92"/><rect class="cls-3" x="701.1" y="843.52" width="13.92" height="13.93"/><rect class="cls-3" x="701.1" y="829.6" width="13.92" height="13.92"/><rect class="cls-3" x="701.1" y="815.67" width="13.92" height="13.93"/><rect class="cls-3" x="701.1" y="801.74" width="13.92" height="13.93"/><rect class="cls-3" x="701.1" y="787.82" width="13.92" height="13.92"/><rect class="cls-3" x="701.1" y="773.89" width="13.92" height="13.93"/><rect class="cls-3" x="701.1" y="759.96" width="13.92" height="13.93"/><rect class="cls-3" x="701.1" y="746.04" width="13.92" height="13.92"/><rect class="cls-3" x="701.1" y="704.26" width="13.92" height="13.92"/><rect class="cls-3" x="701.1" y="690.33" width="13.92" height="13.93"/><rect class="cls-3" x="701.1" y="676.4" width="13.92" height="13.93"/><rect class="cls-3" x="701.1" y="662.48" width="13.92" height="13.92"/><rect class="cls-3" x="701.1" y="648.55" width="13.92" height="13.93"/><rect class="cls-3" x="701.1" y="634.62" width="13.92" height="13.93"/><rect class="cls-3" x="701.1" y="620.7" width="13.92" height="13.92"/><rect class="cls-3" x="701.1" y="606.77" width="13.92" height="13.93"/><rect class="cls-3" x="701.1" y="592.84" width="13.92" height="13.93"/><rect class="cls-3" x="701.1" y="578.92" width="13.92" height="13.92"/><rect class="cls-3" x="701.1" y="564.99" width="13.92" height="13.93"/><rect class="cls-6" x="701.1" y="551.06" width="13.92" height="13.93"/><rect class="cls-6" x="701.1" y="537.14" width="13.92" height="13.92"/><rect class="cls-6" x="701.1" y="523.21" width="13.92" height="13.93"/><rect class="cls-6" x="701.1" y="509.28" width="13.92" height="13.93"/><rect class="cls-6" x="701.1" y="495.36" width="13.92" height="13.92"/><rect class="cls-4" x="701.1" y="481.43" width="13.92" height="13.93"/><rect class="cls-6" x="701.1" y="467.49" width="13.92" height="13.93"/><rect class="cls-6" x="701.1" y="453.58" width="13.92" height="13.92"/><rect class="cls-6" x="701.1" y="439.65" width="13.92" height="13.93"/><rect class="cls-6" x="701.1" y="425.73" width="13.92" height="13.92"/><rect class="cls-3" x="701.1" y="411.8" width="13.92" height="13.93"/><rect class="cls-6" x="701.1" y="397.86" width="13.92" height="13.93"/><rect class="cls-3" x="701.1" y="383.95" width="13.92" height="13.92"/><rect class="cls-6" x="701.1" y="370.02" width="13.92" height="13.93"/><rect class="cls-6" x="701.1" y="356.08" width="13.92" height="13.93"/><rect class="cls-6" x="701.1" y="342.17" width="13.92" height="13.92"/><rect class="cls-6" x="701.1" y="328.23" width="13.92" height="13.93"/><rect class="cls-3" x="701.1" y="314.3" width="13.92" height="13.93"/><rect class="cls-3" x="701.1" y="300.39" width="13.92" height="13.92"/><rect class="cls-3" x="701.1" y="286.45" width="13.92" height="13.93"/><rect class="cls-3" x="687.17" y="843.52" width="13.93" height="13.93"/><rect class="cls-3" x="687.17" y="829.6" width="13.93" height="13.92"/><rect class="cls-3" x="687.17" y="815.67" width="13.93" height="13.93"/><rect class="cls-3" x="687.17" y="746.04" width="13.93" height="13.92"/><rect class="cls-3" x="687.17" y="704.26" width="13.93" height="13.92"/><rect class="cls-3" x="687.17" y="690.33" width="13.93" height="13.93"/><rect class="cls-3" x="687.17" y="676.4" width="13.93" height="13.93"/><rect class="cls-3" x="687.17" y="662.48" width="13.93" height="13.92"/><rect class="cls-3" x="687.17" y="648.55" width="13.93" height="13.93"/><rect class="cls-3" x="687.17" y="634.62" width="13.93" height="13.93"/><rect class="cls-3" x="687.17" y="620.7" width="13.93" height="13.92"/><rect class="cls-3" x="687.17" y="606.77" width="13.93" height="13.93"/><rect class="cls-3" x="687.17" y="592.84" width="13.93" height="13.93"/><rect class="cls-3" x="687.17" y="578.92" width="13.93" height="13.92"/><rect class="cls-3" x="687.17" y="564.99" width="13.93" height="13.93"/><rect class="cls-6" x="687.17" y="551.06" width="13.93" height="13.93"/><rect class="cls-6" x="687.17" y="537.14" width="13.93" height="13.92"/><rect class="cls-6" x="687.17" y="523.21" width="13.93" height="13.93"/><rect class="cls-6" x="687.17" y="509.28" width="13.93" height="13.93"/><rect class="cls-4" x="687.17" y="495.36" width="13.93" height="13.92"/><rect class="cls-4" x="687.17" y="481.43" width="13.93" height="13.93"/><rect class="cls-4" x="687.17" y="467.49" width="13.93" height="13.93"/><rect class="cls-6" x="687.17" y="453.58" width="13.93" height="13.92"/><rect class="cls-6" x="687.17" y="439.65" width="13.93" height="13.93"/><rect class="cls-6" x="687.17" y="425.73" width="13.93" height="13.92"/><rect class="cls-3" x="687.17" y="411.8" width="13.93" height="13.93"/><rect class="cls-6" x="687.17" y="397.86" width="13.93" height="13.93"/><rect class="cls-3" x="687.17" y="383.95" width="13.93" height="13.92"/><rect class="cls-6" x="687.17" y="370.02" width="13.93" height="13.93"/><rect class="cls-6" x="687.17" y="356.08" width="13.93" height="13.93"/><rect class="cls-6" x="687.17" y="342.17" width="13.93" height="13.92"/><rect class="cls-6" x="687.17" y="328.23" width="13.93" height="13.93"/><rect class="cls-6" x="687.17" y="314.3" width="13.93" height="13.93"/><rect class="cls-3" x="687.17" y="300.39" width="13.93" height="13.92"/><rect class="cls-3" x="687.17" y="286.45" width="13.93" height="13.93"/><rect class="cls-3" x="687.17" y="272.52" width="13.93" height="13.93"/><rect class="cls-3" x="673.24" y="885.3" width="13.93" height="13.93"/><rect class="cls-3" x="673.24" y="871.37" width="13.93" height="13.93"/><rect class="cls-3" x="673.24" y="857.45" width="13.93" height="13.92"/><rect class="cls-3" x="673.24" y="843.52" width="13.93" height="13.93"/><rect class="cls-3" x="673.24" y="815.67" width="13.93" height="13.93"/><rect class="cls-3" x="673.24" y="746.04" width="13.93" height="13.92"/><rect class="cls-3" x="673.24" y="704.26" width="13.93" height="13.92"/><rect class="cls-3" x="673.24" y="690.33" width="13.93" height="13.93"/><rect class="cls-3" x="673.24" y="676.4" width="13.93" height="13.93"/><rect class="cls-3" x="673.24" y="662.48" width="13.93" height="13.92"/><rect class="cls-3" x="673.24" y="648.55" width="13.93" height="13.93"/><rect class="cls-3" x="673.24" y="634.62" width="13.93" height="13.93"/><rect class="cls-3" x="673.24" y="620.7" width="13.93" height="13.92"/><rect class="cls-3" x="673.24" y="606.77" width="13.93" height="13.93"/><rect class="cls-4" x="673.24" y="592.84" width="13.93" height="13.93"/><rect class="cls-4" x="673.24" y="578.92" width="13.93" height="13.92"/><rect class="cls-3" x="673.24" y="564.99" width="13.93" height="13.93"/><rect class="cls-6" x="673.24" y="551.06" width="13.93" height="13.93"/><rect class="cls-6" x="673.24" y="537.14" width="13.93" height="13.92"/><rect class="cls-6" x="673.24" y="523.21" width="13.93" height="13.93"/><rect class="cls-6" x="673.24" y="509.28" width="13.93" height="13.93"/><rect class="cls-4" x="673.24" y="495.36" width="13.93" height="13.92"/><rect class="cls-4" x="673.24" y="481.43" width="13.93" height="13.93"/><rect class="cls-4" x="673.24" y="467.49" width="13.93" height="13.93"/><rect class="cls-6" x="673.24" y="453.58" width="13.93" height="13.92"/><rect class="cls-6" x="673.24" y="439.65" width="13.93" height="13.93"/><rect class="cls-6" x="673.24" y="425.73" width="13.93" height="13.92"/><rect class="cls-3" x="673.24" y="411.8" width="13.93" height="13.93"/><rect class="cls-6" x="673.24" y="397.86" width="13.93" height="13.93"/><rect class="cls-3" x="673.24" y="383.95" width="13.93" height="13.92"/><rect class="cls-6" x="673.24" y="370.02" width="13.93" height="13.93"/><rect class="cls-6" x="673.24" y="356.08" width="13.93" height="13.93"/><rect class="cls-6" x="673.24" y="342.17" width="13.93" height="13.92"/><rect class="cls-6" x="673.24" y="328.23" width="13.93" height="13.93"/><rect class="cls-6" x="673.24" y="314.3" width="13.93" height="13.93"/><rect class="cls-6" x="673.24" y="300.39" width="13.93" height="13.92"/><rect class="cls-3" x="673.24" y="286.45" width="13.93" height="13.93"/><rect class="cls-3" x="673.24" y="272.52" width="13.93" height="13.93"/><rect class="cls-3" x="673.24" y="258.6" width="13.93" height="13.92"/><rect class="cls-3" x="659.32" y="885.3" width="13.92" height="13.93"/><rect class="cls-3" x="659.32" y="871.37" width="13.92" height="13.93"/><rect class="cls-3" x="659.32" y="857.45" width="13.92" height="13.92"/><rect class="cls-3" x="659.32" y="843.52" width="13.92" height="13.93"/><rect class="cls-3" x="659.32" y="815.67" width="13.92" height="13.93"/><rect class="cls-3" x="659.32" y="746.04" width="13.92" height="13.92"/><rect class="cls-3" x="659.32" y="704.26" width="13.92" height="13.92"/><rect class="cls-3" x="659.32" y="690.33" width="13.92" height="13.93"/><rect class="cls-3" x="659.32" y="676.4" width="13.92" height="13.93"/><rect class="cls-3" x="659.32" y="662.48" width="13.92" height="13.92"/><rect class="cls-3" x="659.32" y="648.55" width="13.92" height="13.93"/><rect class="cls-3" x="659.32" y="634.62" width="13.92" height="13.93"/><rect class="cls-3" x="659.32" y="620.7" width="13.92" height="13.92"/><rect class="cls-3" x="659.32" y="606.77" width="13.92" height="13.93"/><rect class="cls-4" x="659.32" y="592.84" width="13.92" height="13.93"/><rect class="cls-4" x="659.32" y="578.92" width="13.92" height="13.92"/><rect class="cls-3" x="659.32" y="564.99" width="13.92" height="13.93"/><rect class="cls-6" x="659.32" y="551.06" width="13.92" height="13.93"/><rect class="cls-6" x="659.32" y="537.14" width="13.92" height="13.92"/><rect class="cls-6" x="659.32" y="523.21" width="13.92" height="13.93"/><rect class="cls-6" x="659.32" y="509.28" width="13.92" height="13.93"/><rect class="cls-4" x="659.32" y="495.36" width="13.92" height="13.92"/><rect class="cls-4" x="659.32" y="481.43" width="13.92" height="13.93"/><rect class="cls-4" x="659.32" y="467.49" width="13.92" height="13.93"/><rect class="cls-6" x="659.32" y="453.58" width="13.92" height="13.92"/><rect class="cls-6" x="659.32" y="439.65" width="13.92" height="13.93"/><rect class="cls-6" x="659.32" y="425.73" width="13.92" height="13.92"/><rect class="cls-3" x="659.32" y="411.8" width="13.92" height="13.93"/><rect class="cls-6" x="659.32" y="397.86" width="13.92" height="13.93"/><rect class="cls-3" x="659.32" y="383.95" width="13.92" height="13.92"/><rect class="cls-6" x="659.32" y="370.02" width="13.92" height="13.93"/><rect class="cls-6" x="659.32" y="356.08" width="13.92" height="13.93"/><rect class="cls-6" x="659.32" y="342.17" width="13.92" height="13.92"/><rect class="cls-6" x="659.32" y="328.23" width="13.92" height="13.93"/><rect class="cls-6" x="659.32" y="314.3" width="13.92" height="13.93"/><rect class="cls-6" x="659.32" y="300.39" width="13.92" height="13.92"/><rect class="cls-6" x="659.32" y="286.45" width="13.92" height="13.93"/><rect class="cls-3" x="659.32" y="272.52" width="13.92" height="13.93"/><rect class="cls-3" x="659.32" y="258.6" width="13.92" height="13.92"/><rect class="cls-3" x="645.39" y="885.3" width="13.93" height="13.93"/><rect class="cls-3" x="645.39" y="843.52" width="13.93" height="13.93"/><rect class="cls-3" x="645.39" y="815.67" width="13.93" height="13.93"/><rect class="cls-3" x="645.39" y="746.04" width="13.93" height="13.92"/><rect class="cls-3" x="645.39" y="732.11" width="13.93" height="13.93"/><rect class="cls-3" x="645.39" y="718.18" width="13.93" height="13.93"/><rect class="cls-3" x="645.39" y="704.26" width="13.93" height="13.92"/><rect class="cls-3" x="645.39" y="690.33" width="13.93" height="13.93"/><rect class="cls-3" x="645.39" y="676.4" width="13.93" height="13.93"/><rect class="cls-4" x="645.39" y="662.48" width="13.93" height="13.92"/><rect class="cls-4" x="645.39" y="648.55" width="13.93" height="13.93"/><rect class="cls-4" x="645.39" y="634.62" width="13.93" height="13.93"/><rect class="cls-4" x="645.39" y="592.84" width="13.93" height="13.93"/><rect class="cls-4" x="645.39" y="578.92" width="13.93" height="13.92"/><rect class="cls-3" x="645.39" y="564.99" width="13.93" height="13.93"/><rect class="cls-6" x="645.39" y="551.06" width="13.93" height="13.93"/><rect class="cls-6" x="645.39" y="537.14" width="13.93" height="13.92"/><rect class="cls-6" x="645.39" y="523.21" width="13.93" height="13.93"/><rect class="cls-6" x="645.39" y="509.28" width="13.93" height="13.93"/><rect class="cls-4" x="645.39" y="495.36" width="13.93" height="13.92"/><rect class="cls-4" x="645.39" y="481.43" width="13.93" height="13.93"/><rect class="cls-4" x="645.39" y="467.49" width="13.93" height="13.93"/><rect class="cls-6" x="645.39" y="453.58" width="13.93" height="13.92"/><rect class="cls-6" x="645.39" y="439.65" width="13.93" height="13.93"/><rect class="cls-6" x="645.39" y="425.73" width="13.93" height="13.92"/><rect class="cls-3" x="645.39" y="411.8" width="13.93" height="13.93"/><rect class="cls-6" x="645.39" y="397.86" width="13.93" height="13.93"/><rect class="cls-3" x="645.39" y="383.95" width="13.93" height="13.92"/><rect class="cls-6" x="645.39" y="370.02" width="13.93" height="13.93"/><rect class="cls-6" x="645.39" y="356.08" width="13.93" height="13.93"/><rect class="cls-6" x="645.39" y="342.17" width="13.93" height="13.92"/><rect class="cls-6" x="645.39" y="328.23" width="13.93" height="13.93"/><rect class="cls-6" x="645.39" y="314.3" width="13.93" height="13.93"/><rect class="cls-6" x="645.39" y="300.39" width="13.93" height="13.92"/><rect class="cls-6" x="645.39" y="286.45" width="13.93" height="13.93"/><rect class="cls-3" x="645.39" y="272.52" width="13.93" height="13.93"/><rect class="cls-3" x="645.39" y="258.6" width="13.93" height="13.92"/><rect class="cls-3" x="631.47" y="885.3" width="13.92" height="13.93"/><rect class="cls-3" x="631.47" y="843.52" width="13.92" height="13.93"/><rect class="cls-3" x="631.47" y="815.67" width="13.92" height="13.93"/><rect class="cls-3" x="631.47" y="746.04" width="13.92" height="13.92"/><rect class="cls-3" x="631.47" y="732.11" width="13.92" height="13.93"/><rect class="cls-3" x="631.47" y="718.18" width="13.92" height="13.93"/><rect class="cls-3" x="631.47" y="704.26" width="13.92" height="13.92"/><rect class="cls-3" x="631.47" y="690.33" width="13.92" height="13.93"/><rect class="cls-4" x="631.47" y="676.4" width="13.92" height="13.93"/><rect class="cls-4" x="631.47" y="662.48" width="13.92" height="13.92"/><rect class="cls-4" x="631.47" y="648.55" width="13.92" height="13.93"/><rect class="cls-4" x="631.47" y="634.62" width="13.92" height="13.93"/><rect class="cls-4" x="631.47" y="592.84" width="13.92" height="13.93"/><rect class="cls-4" x="631.47" y="578.92" width="13.92" height="13.92"/><rect class="cls-3" x="631.47" y="564.99" width="13.92" height="13.93"/><rect class="cls-6" x="631.47" y="551.06" width="13.92" height="13.93"/><rect class="cls-6" x="631.47" y="537.14" width="13.92" height="13.92"/><rect class="cls-6" x="631.47" y="523.21" width="13.92" height="13.93"/><rect class="cls-6" x="631.47" y="509.28" width="13.92" height="13.93"/><rect class="cls-4" x="631.47" y="495.36" width="13.92" height="13.92"/><rect class="cls-4" x="631.47" y="481.43" width="13.92" height="13.93"/><rect class="cls-4" x="631.47" y="467.49" width="13.92" height="13.93"/><rect class="cls-6" x="631.47" y="453.58" width="13.92" height="13.92"/><rect class="cls-6" x="631.47" y="439.65" width="13.92" height="13.93"/><rect class="cls-6" x="631.47" y="425.73" width="13.92" height="13.92"/><rect class="cls-3" x="631.47" y="411.8" width="13.92" height="13.93"/><rect class="cls-6" x="631.47" y="397.86" width="13.92" height="13.93"/><rect class="cls-3" x="631.47" y="383.95" width="13.92" height="13.92"/><rect class="cls-6" x="631.47" y="370.02" width="13.92" height="13.93"/><rect class="cls-4" x="631.47" y="356.08" width="13.92" height="13.93"/><rect class="cls-4" x="631.47" y="342.17" width="13.92" height="13.92"/><rect class="cls-6" x="631.47" y="328.23" width="13.92" height="13.93"/><rect class="cls-4" x="631.47" y="314.3" width="13.92" height="13.93"/><rect class="cls-4" x="631.47" y="300.39" width="13.92" height="13.92"/><rect class="cls-6" x="631.47" y="286.45" width="13.92" height="13.93"/><rect class="cls-3" x="631.47" y="272.52" width="13.92" height="13.93"/><rect class="cls-3" x="631.47" y="258.6" width="13.92" height="13.92"/><rect class="cls-3" x="617.54" y="885.3" width="13.93" height="13.93"/><rect class="cls-3" x="617.54" y="843.52" width="13.93" height="13.93"/><rect class="cls-3" x="617.54" y="815.67" width="13.93" height="13.93"/><rect class="cls-4" x="617.54" y="773.89" width="13.93" height="13.93"/><rect class="cls-3" x="617.54" y="746.04" width="13.93" height="13.92"/><rect class="cls-3" x="617.54" y="732.11" width="13.93" height="13.93"/><rect class="cls-3" x="617.54" y="718.18" width="13.93" height="13.93"/><rect class="cls-3" x="617.54" y="704.26" width="13.93" height="13.92"/><rect class="cls-3" x="617.54" y="690.33" width="13.93" height="13.93"/><rect class="cls-3" x="617.54" y="676.4" width="13.93" height="13.93"/><rect class="cls-4" x="617.54" y="662.48" width="13.93" height="13.92"/><rect class="cls-4" x="617.54" y="648.55" width="13.93" height="13.93"/><rect class="cls-4" x="617.54" y="634.62" width="13.93" height="13.93"/><rect class="cls-4" x="617.54" y="592.84" width="13.93" height="13.93"/><rect class="cls-4" x="617.54" y="578.92" width="13.93" height="13.92"/><rect class="cls-3" x="617.54" y="564.99" width="13.93" height="13.93"/><rect class="cls-6" x="617.54" y="551.06" width="13.93" height="13.93"/><rect class="cls-6" x="617.54" y="537.14" width="13.93" height="13.92"/><rect class="cls-6" x="617.54" y="523.21" width="13.93" height="13.93"/><rect class="cls-6" x="617.54" y="509.28" width="13.93" height="13.93"/><rect class="cls-4" x="617.54" y="495.36" width="13.93" height="13.92"/><rect class="cls-4" x="617.54" y="481.43" width="13.93" height="13.93"/><rect class="cls-4" x="617.54" y="467.49" width="13.93" height="13.93"/><rect class="cls-6" x="617.54" y="453.58" width="13.93" height="13.92"/><rect class="cls-6" x="617.54" y="439.65" width="13.93" height="13.93"/><rect class="cls-6" x="617.54" y="425.73" width="13.93" height="13.92"/><rect class="cls-3" x="617.54" y="411.8" width="13.93" height="13.93"/><rect class="cls-6" x="617.54" y="397.86" width="13.93" height="13.93"/><rect class="cls-3" x="617.54" y="383.95" width="13.93" height="13.92"/><rect class="cls-6" x="617.54" y="370.02" width="13.93" height="13.93"/><rect class="cls-4" x="617.54" y="356.08" width="13.93" height="13.93"/><rect class="cls-4" x="617.54" y="342.17" width="13.93" height="13.92"/><rect class="cls-6" x="617.54" y="328.23" width="13.93" height="13.93"/><rect class="cls-4" x="617.54" y="314.3" width="13.93" height="13.93"/><rect class="cls-4" x="617.54" y="300.39" width="13.93" height="13.92"/><rect class="cls-6" x="617.54" y="286.45" width="13.93" height="13.93"/><rect class="cls-3" x="617.54" y="272.52" width="13.93" height="13.93"/><rect class="cls-3" x="617.54" y="258.6" width="13.93" height="13.92"/><rect class="cls-3" x="603.61" y="885.3" width="13.93" height="13.93"/><rect class="cls-3" x="603.61" y="843.52" width="13.93" height="13.93"/><rect class="cls-3" x="603.61" y="815.67" width="13.93" height="13.93"/><rect class="cls-4" x="603.61" y="773.89" width="13.93" height="13.93"/><rect class="cls-3" x="603.61" y="746.04" width="13.93" height="13.92"/><rect class="cls-3" x="603.61" y="732.11" width="13.93" height="13.93"/><rect class="cls-3" x="603.61" y="718.18" width="13.93" height="13.93"/><rect class="cls-3" x="603.61" y="704.26" width="13.93" height="13.92"/><rect class="cls-3" x="603.61" y="690.33" width="13.93" height="13.93"/><rect class="cls-3" x="603.61" y="676.4" width="13.93" height="13.93"/><rect class="cls-3" x="603.61" y="662.48" width="13.93" height="13.92"/><rect class="cls-4" x="603.61" y="648.55" width="13.93" height="13.93"/><rect class="cls-4" x="603.61" y="634.62" width="13.93" height="13.93"/><rect x="603.61" y="620.7" width="13.93" height="13.92"/><rect x="603.61" y="606.77" width="13.93" height="13.93"/><rect class="cls-4" x="603.61" y="592.84" width="13.93" height="13.93"/><rect class="cls-4" x="603.61" y="578.92" width="13.93" height="13.92"/><rect class="cls-3" x="603.61" y="564.99" width="13.93" height="13.93"/><rect class="cls-6" x="603.61" y="551.06" width="13.93" height="13.93"/><rect class="cls-6" x="603.61" y="537.14" width="13.93" height="13.92"/><rect class="cls-6" x="603.61" y="523.21" width="13.93" height="13.93"/><rect class="cls-6" x="603.61" y="509.28" width="13.93" height="13.93"/><rect class="cls-4" x="603.61" y="495.36" width="13.93" height="13.92"/><rect class="cls-4" x="603.61" y="481.43" width="13.93" height="13.93"/><rect class="cls-4" x="603.61" y="467.49" width="13.93" height="13.93"/><rect class="cls-6" x="603.61" y="453.58" width="13.93" height="13.92"/><rect class="cls-6" x="603.61" y="439.65" width="13.93" height="13.93"/><rect class="cls-6" x="603.61" y="425.73" width="13.93" height="13.92"/><rect class="cls-3" x="603.61" y="411.8" width="13.93" height="13.93"/><rect class="cls-6" x="603.61" y="397.86" width="13.93" height="13.93"/><rect class="cls-3" x="603.61" y="383.95" width="13.93" height="13.92"/><rect class="cls-6" x="603.61" y="370.02" width="13.93" height="13.93"/><rect class="cls-4" x="603.61" y="356.08" width="13.93" height="13.93"/><rect class="cls-4" x="603.61" y="342.17" width="13.93" height="13.92"/><rect class="cls-6" x="603.61" y="328.23" width="13.93" height="13.93"/><rect class="cls-4" x="603.61" y="314.3" width="13.93" height="13.93"/><rect class="cls-4" x="603.61" y="300.39" width="13.93" height="13.92"/><rect class="cls-6" x="603.61" y="286.45" width="13.93" height="13.93"/><rect class="cls-3" x="603.61" y="272.52" width="13.93" height="13.93"/><rect class="cls-3" x="603.61" y="258.6" width="13.93" height="13.92"/><rect class="cls-3" x="589.69" y="885.3" width="13.92" height="13.93"/><rect class="cls-3" x="589.69" y="843.52" width="13.92" height="13.93"/><rect class="cls-3" x="589.69" y="815.67" width="13.92" height="13.93"/><rect class="cls-4" x="589.69" y="773.89" width="13.92" height="13.93"/><rect class="cls-3" x="589.69" y="746.04" width="13.92" height="13.92"/><rect class="cls-3" x="589.69" y="732.11" width="13.92" height="13.93"/><rect class="cls-3" x="589.69" y="718.18" width="13.92" height="13.93"/><rect class="cls-3" x="589.69" y="704.26" width="13.92" height="13.92"/><rect class="cls-3" x="589.69" y="690.33" width="13.92" height="13.93"/><rect class="cls-3" x="589.69" y="676.4" width="13.92" height="13.93"/><rect class="cls-3" x="589.69" y="662.48" width="13.92" height="13.92"/><rect class="cls-4" x="589.69" y="648.55" width="13.92" height="13.93"/><rect class="cls-4" x="589.69" y="634.62" width="13.92" height="13.93"/><rect x="589.69" y="606.77" width="13.92" height="13.93"/><rect class="cls-4" x="589.69" y="592.84" width="13.92" height="13.93"/><rect class="cls-4" x="589.69" y="578.92" width="13.92" height="13.92"/><rect class="cls-3" x="589.69" y="564.99" width="13.92" height="13.93"/><rect class="cls-6" x="589.69" y="551.06" width="13.92" height="13.93"/><rect class="cls-6" x="589.69" y="537.14" width="13.92" height="13.92"/><rect class="cls-6" x="589.69" y="523.21" width="13.92" height="13.93"/><rect class="cls-6" x="589.69" y="509.28" width="13.92" height="13.93"/><rect class="cls-4" x="589.69" y="495.36" width="13.92" height="13.92"/><rect class="cls-4" x="589.69" y="481.43" width="13.92" height="13.93"/><rect class="cls-4" x="589.69" y="467.49" width="13.92" height="13.93"/><rect class="cls-6" x="589.69" y="453.58" width="13.92" height="13.92"/><rect class="cls-6" x="589.69" y="439.65" width="13.92" height="13.93"/><rect class="cls-6" x="589.69" y="425.73" width="13.92" height="13.92"/><rect class="cls-3" x="589.69" y="411.8" width="13.92" height="13.93"/><rect class="cls-6" x="589.69" y="397.86" width="13.92" height="13.93"/><rect class="cls-3" x="589.69" y="383.95" width="13.92" height="13.92"/><rect class="cls-6" x="589.69" y="370.02" width="13.92" height="13.93"/><rect class="cls-6" x="589.69" y="356.08" width="13.92" height="13.93"/><rect class="cls-6" x="589.69" y="342.17" width="13.92" height="13.92"/><rect class="cls-6" x="589.69" y="328.23" width="13.92" height="13.93"/><rect class="cls-4" x="589.69" y="314.3" width="13.92" height="13.93"/><rect class="cls-4" x="589.69" y="300.39" width="13.92" height="13.92"/><rect class="cls-6" x="589.69" y="286.45" width="13.92" height="13.93"/><rect class="cls-3" x="589.69" y="272.52" width="13.92" height="13.93"/><rect class="cls-3" x="589.69" y="258.6" width="13.92" height="13.92"/><rect class="cls-3" x="575.76" y="885.3" width="13.93" height="13.93"/><rect class="cls-3" x="575.76" y="843.52" width="13.93" height="13.93"/><rect class="cls-3" x="575.76" y="829.6" width="13.93" height="13.92"/><rect class="cls-3" x="575.76" y="815.67" width="13.93" height="13.93"/><rect class="cls-3" x="575.76" y="801.74" width="13.93" height="13.93"/><rect class="cls-3" x="575.76" y="787.82" width="13.93" height="13.92"/><rect class="cls-3" x="575.76" y="773.89" width="13.93" height="13.93"/><rect class="cls-3" x="575.76" y="759.96" width="13.93" height="13.93"/><rect class="cls-3" x="575.76" y="746.04" width="13.93" height="13.92"/><rect class="cls-3" x="575.76" y="732.11" width="13.93" height="13.93"/><rect class="cls-3" x="575.76" y="718.18" width="13.93" height="13.93"/><rect class="cls-3" x="575.76" y="704.26" width="13.93" height="13.92"/><rect class="cls-3" x="575.76" y="690.33" width="13.93" height="13.93"/><rect class="cls-3" x="575.76" y="676.4" width="13.93" height="13.93"/><rect class="cls-3" x="575.76" y="662.48" width="13.93" height="13.92"/><rect class="cls-4" x="575.76" y="648.55" width="13.93" height="13.93"/><rect class="cls-4" x="575.76" y="634.62" width="13.93" height="13.93"/><rect x="575.76" y="606.77" width="13.93" height="13.93"/><rect class="cls-4" x="575.76" y="592.84" width="13.93" height="13.93"/><rect class="cls-4" x="575.76" y="578.92" width="13.93" height="13.92"/><rect class="cls-3" x="575.76" y="564.99" width="13.93" height="13.93"/><rect class="cls-6" x="575.76" y="551.06" width="13.93" height="13.93"/><rect class="cls-6" x="575.76" y="537.14" width="13.93" height="13.92"/><rect class="cls-6" x="575.76" y="523.21" width="13.93" height="13.93"/><rect class="cls-6" x="575.76" y="509.28" width="13.93" height="13.93"/><rect class="cls-4" x="575.76" y="495.36" width="13.93" height="13.92"/><rect class="cls-4" x="575.76" y="481.43" width="13.93" height="13.93"/><rect class="cls-4" x="575.76" y="467.49" width="13.93" height="13.93"/><rect class="cls-6" x="575.76" y="453.58" width="13.93" height="13.92"/><rect class="cls-6" x="575.76" y="439.65" width="13.93" height="13.93"/><rect class="cls-6" x="575.76" y="425.73" width="13.93" height="13.92"/><rect class="cls-3" x="575.76" y="411.8" width="13.93" height="13.93"/><rect class="cls-6" x="575.76" y="397.86" width="13.93" height="13.93"/><rect class="cls-3" x="575.76" y="383.95" width="13.93" height="13.92"/><rect class="cls-6" x="575.76" y="370.02" width="13.93" height="13.93"/><rect class="cls-6" x="575.76" y="356.08" width="13.93" height="13.93"/><rect class="cls-6" x="575.76" y="342.17" width="13.93" height="13.92"/><rect class="cls-6" x="575.76" y="328.23" width="13.93" height="13.93"/><rect class="cls-4" x="575.76" y="314.3" width="13.93" height="13.93"/><rect class="cls-4" x="575.76" y="300.39" width="13.93" height="13.92"/><rect class="cls-6" x="575.76" y="286.45" width="13.93" height="13.93"/><rect class="cls-3" x="575.76" y="272.52" width="13.93" height="13.93"/><rect class="cls-3" x="575.76" y="258.6" width="13.93" height="13.92"/><rect class="cls-3" x="561.83" y="885.3" width="13.93" height="13.93"/><rect class="cls-3" x="561.83" y="843.52" width="13.93" height="13.93"/><rect class="cls-3" x="561.83" y="815.67" width="13.93" height="13.93"/><rect class="cls-4" x="561.83" y="773.89" width="13.93" height="13.93"/><rect class="cls-3" x="561.83" y="746.04" width="13.93" height="13.92"/><rect class="cls-3" x="561.83" y="732.11" width="13.93" height="13.93"/><rect class="cls-3" x="561.83" y="718.18" width="13.93" height="13.93"/><rect class="cls-3" x="561.83" y="704.26" width="13.93" height="13.92"/><rect class="cls-3" x="561.83" y="690.33" width="13.93" height="13.93"/><rect class="cls-3" x="561.83" y="676.4" width="13.93" height="13.93"/><rect class="cls-3" x="561.83" y="662.48" width="13.93" height="13.92"/><rect class="cls-4" x="561.83" y="648.55" width="13.93" height="13.93"/><rect class="cls-4" x="561.83" y="634.62" width="13.93" height="13.93"/><rect x="561.83" y="606.77" width="13.93" height="13.93"/><rect class="cls-4" x="561.83" y="592.84" width="13.93" height="13.93"/><rect class="cls-4" x="561.83" y="578.92" width="13.93" height="13.92"/><rect class="cls-3" x="561.83" y="564.99" width="13.93" height="13.93"/><rect class="cls-6" x="561.83" y="551.06" width="13.93" height="13.93"/><rect class="cls-6" x="561.83" y="537.14" width="13.93" height="13.92"/><rect class="cls-6" x="561.83" y="523.21" width="13.93" height="13.93"/><rect class="cls-6" x="561.83" y="509.28" width="13.93" height="13.93"/><rect class="cls-4" x="561.83" y="495.36" width="13.93" height="13.92"/><rect class="cls-4" x="561.83" y="481.43" width="13.93" height="13.93"/><rect class="cls-4" x="561.83" y="467.49" width="13.93" height="13.93"/><rect class="cls-6" x="561.83" y="453.58" width="13.93" height="13.92"/><rect class="cls-6" x="561.83" y="439.65" width="13.93" height="13.93"/><rect class="cls-6" x="561.83" y="425.73" width="13.93" height="13.92"/><rect class="cls-3" x="561.83" y="411.8" width="13.93" height="13.93"/><rect class="cls-6" x="561.83" y="397.86" width="13.93" height="13.93"/><rect class="cls-3" x="561.83" y="383.95" width="13.93" height="13.92"/><rect class="cls-6" x="561.83" y="370.02" width="13.93" height="13.93"/><rect class="cls-6" x="561.83" y="356.08" width="13.93" height="13.93"/><rect class="cls-6" x="561.83" y="342.17" width="13.93" height="13.92"/><rect class="cls-6" x="561.83" y="328.23" width="13.93" height="13.93"/><rect class="cls-4" x="561.83" y="314.3" width="13.93" height="13.93"/><rect class="cls-4" x="561.83" y="300.39" width="13.93" height="13.92"/><rect class="cls-6" x="561.83" y="286.45" width="13.93" height="13.93"/><rect class="cls-3" x="561.83" y="272.52" width="13.93" height="13.93"/><rect class="cls-3" x="561.83" y="258.6" width="13.93" height="13.92"/><rect class="cls-3" x="547.91" y="885.3" width="13.92" height="13.93"/><rect class="cls-3" x="547.91" y="843.52" width="13.92" height="13.93"/><rect class="cls-3" x="547.91" y="815.67" width="13.92" height="13.93"/><rect class="cls-4" x="547.91" y="773.89" width="13.92" height="13.93"/><rect class="cls-3" x="547.91" y="746.04" width="13.92" height="13.92"/><rect class="cls-3" x="547.91" y="732.11" width="13.92" height="13.93"/><rect class="cls-3" x="547.91" y="718.18" width="13.92" height="13.93"/><rect class="cls-3" x="547.91" y="704.26" width="13.92" height="13.92"/><rect class="cls-3" x="547.91" y="690.33" width="13.92" height="13.93"/><rect class="cls-3" x="547.91" y="676.4" width="13.92" height="13.93"/><rect class="cls-3" x="547.91" y="662.48" width="13.92" height="13.92"/><rect class="cls-4" x="547.91" y="648.55" width="13.92" height="13.93"/><rect class="cls-4" x="547.91" y="634.62" width="13.92" height="13.93"/><rect x="547.91" y="620.7" width="13.92" height="13.92"/><rect x="547.91" y="606.77" width="13.92" height="13.93"/><rect class="cls-4" x="547.91" y="592.84" width="13.92" height="13.93"/><rect class="cls-4" x="547.91" y="578.92" width="13.92" height="13.92"/><rect class="cls-3" x="547.91" y="564.99" width="13.92" height="13.93"/><rect class="cls-6" x="547.91" y="551.06" width="13.92" height="13.93"/><rect class="cls-6" x="547.91" y="537.14" width="13.92" height="13.92"/><rect class="cls-6" x="547.91" y="523.21" width="13.92" height="13.93"/><rect class="cls-6" x="547.91" y="509.28" width="13.92" height="13.93"/><rect class="cls-4" x="547.91" y="495.36" width="13.92" height="13.92"/><rect class="cls-4" x="547.91" y="481.43" width="13.92" height="13.93"/><rect class="cls-4" x="547.91" y="467.49" width="13.92" height="13.93"/><rect class="cls-6" x="547.91" y="453.58" width="13.92" height="13.92"/><rect class="cls-6" x="547.91" y="439.65" width="13.92" height="13.93"/><rect class="cls-6" x="547.91" y="425.73" width="13.92" height="13.92"/><rect class="cls-3" x="547.91" y="411.8" width="13.92" height="13.93"/><rect class="cls-6" x="547.91" y="397.86" width="13.92" height="13.93"/><rect class="cls-3" x="547.91" y="383.95" width="13.92" height="13.92"/><rect class="cls-6" x="547.91" y="370.02" width="13.92" height="13.93"/><rect class="cls-6" x="547.91" y="356.08" width="13.92" height="13.93"/><rect class="cls-6" x="547.91" y="342.17" width="13.92" height="13.92"/><rect class="cls-6" x="547.91" y="328.23" width="13.92" height="13.93"/><rect class="cls-4" x="547.91" y="314.3" width="13.92" height="13.93"/><rect class="cls-4" x="547.91" y="300.39" width="13.92" height="13.92"/><rect class="cls-6" x="547.91" y="286.45" width="13.92" height="13.93"/><rect class="cls-3" x="547.91" y="272.52" width="13.92" height="13.93"/><rect class="cls-3" x="547.91" y="258.6" width="13.92" height="13.92"/><rect class="cls-3" x="533.98" y="885.3" width="13.93" height="13.93"/><rect class="cls-3" x="533.98" y="843.52" width="13.93" height="13.93"/><rect class="cls-3" x="533.98" y="815.67" width="13.93" height="13.93"/><rect class="cls-4" x="533.98" y="773.89" width="13.93" height="13.93"/><rect class="cls-3" x="533.98" y="746.04" width="13.93" height="13.92"/><rect class="cls-3" x="533.98" y="732.11" width="13.93" height="13.93"/><rect class="cls-3" x="533.98" y="718.18" width="13.93" height="13.93"/><rect class="cls-3" x="533.98" y="704.26" width="13.93" height="13.92"/><rect class="cls-3" x="533.98" y="690.33" width="13.93" height="13.93"/><rect class="cls-3" x="533.98" y="676.4" width="13.93" height="13.93"/><rect class="cls-4" x="533.98" y="662.48" width="13.93" height="13.92"/><rect class="cls-4" x="533.98" y="648.55" width="13.93" height="13.93"/><rect class="cls-4" x="533.98" y="634.62" width="13.93" height="13.93"/><rect class="cls-4" x="533.98" y="592.84" width="13.93" height="13.93"/><rect class="cls-4" x="533.98" y="578.92" width="13.93" height="13.92"/><rect class="cls-3" x="533.98" y="564.99" width="13.93" height="13.93"/><rect class="cls-6" x="533.98" y="551.06" width="13.93" height="13.93"/><rect class="cls-6" x="533.98" y="537.14" width="13.93" height="13.92"/><rect class="cls-6" x="533.98" y="523.21" width="13.93" height="13.93"/><rect class="cls-6" x="533.98" y="509.28" width="13.93" height="13.93"/><rect class="cls-4" x="533.98" y="495.36" width="13.93" height="13.92"/><rect class="cls-4" x="533.98" y="481.43" width="13.93" height="13.93"/><rect class="cls-4" x="533.98" y="467.49" width="13.93" height="13.93"/><rect class="cls-6" x="533.98" y="453.58" width="13.93" height="13.92"/><rect class="cls-6" x="533.98" y="439.65" width="13.93" height="13.93"/><rect class="cls-6" x="533.98" y="425.73" width="13.93" height="13.92"/><rect class="cls-3" x="533.98" y="411.8" width="13.93" height="13.93"/><rect class="cls-6" x="533.98" y="397.86" width="13.93" height="13.93"/><rect class="cls-3" x="533.98" y="383.95" width="13.93" height="13.92"/><rect class="cls-6" x="533.98" y="370.02" width="13.93" height="13.93"/><rect class="cls-6" x="533.98" y="356.08" width="13.93" height="13.93"/><rect class="cls-6" x="533.98" y="342.17" width="13.93" height="13.92"/><rect class="cls-6" x="533.98" y="328.23" width="13.93" height="13.93"/><rect class="cls-4" x="533.98" y="314.3" width="13.93" height="13.93"/><rect class="cls-4" x="533.98" y="300.39" width="13.93" height="13.92"/><rect class="cls-6" x="533.98" y="286.45" width="13.93" height="13.93"/><rect class="cls-3" x="533.98" y="272.52" width="13.93" height="13.93"/><rect class="cls-3" x="533.98" y="258.6" width="13.93" height="13.92"/><rect class="cls-3" x="520.05" y="885.3" width="13.93" height="13.93"/><rect class="cls-3" x="520.05" y="843.52" width="13.93" height="13.93"/><rect class="cls-3" x="520.05" y="815.67" width="13.93" height="13.93"/><rect class="cls-4" x="520.05" y="773.89" width="13.93" height="13.93"/><rect class="cls-3" x="520.05" y="746.04" width="13.93" height="13.92"/><rect class="cls-3" x="520.05" y="732.11" width="13.93" height="13.93"/><rect class="cls-3" x="520.05" y="718.18" width="13.93" height="13.93"/><rect class="cls-3" x="520.05" y="704.26" width="13.93" height="13.92"/><rect class="cls-3" x="520.05" y="690.33" width="13.93" height="13.93"/><rect class="cls-4" x="520.05" y="676.4" width="13.93" height="13.93"/><rect class="cls-4" x="520.05" y="662.48" width="13.93" height="13.92"/><rect class="cls-4" x="520.05" y="648.55" width="13.93" height="13.93"/><rect class="cls-4" x="520.05" y="634.62" width="13.93" height="13.93"/><rect class="cls-4" x="520.05" y="592.84" width="13.93" height="13.93"/><rect class="cls-4" x="520.05" y="578.92" width="13.93" height="13.92"/><rect class="cls-3" x="520.05" y="564.99" width="13.93" height="13.93"/><rect class="cls-6" x="520.05" y="551.06" width="13.93" height="13.93"/><rect class="cls-6" x="520.05" y="537.14" width="13.93" height="13.92"/><rect class="cls-6" x="520.05" y="523.21" width="13.93" height="13.93"/><rect class="cls-6" x="520.05" y="509.28" width="13.93" height="13.93"/><rect class="cls-4" x="520.05" y="495.36" width="13.93" height="13.92"/><rect class="cls-4" x="520.05" y="481.43" width="13.93" height="13.93"/><rect class="cls-4" x="520.05" y="467.49" width="13.93" height="13.93"/><rect class="cls-6" x="520.05" y="453.58" width="13.93" height="13.92"/><rect class="cls-6" x="520.05" y="439.65" width="13.93" height="13.93"/><rect class="cls-6" x="520.05" y="425.73" width="13.93" height="13.92"/><rect class="cls-3" x="520.05" y="411.8" width="13.93" height="13.93"/><rect class="cls-6" x="520.05" y="397.86" width="13.93" height="13.93"/><rect class="cls-3" x="520.05" y="383.95" width="13.93" height="13.92"/><rect class="cls-6" x="520.05" y="370.02" width="13.93" height="13.93"/><rect class="cls-6" x="520.05" y="356.08" width="13.93" height="13.93"/><rect class="cls-6" x="520.05" y="342.17" width="13.93" height="13.92"/><rect class="cls-6" x="520.05" y="328.23" width="13.93" height="13.93"/><rect class="cls-4" x="520.05" y="314.3" width="13.93" height="13.93"/><rect class="cls-4" x="520.05" y="300.39" width="13.93" height="13.92"/><rect class="cls-6" x="520.05" y="286.45" width="13.93" height="13.93"/><rect class="cls-3" x="520.05" y="272.52" width="13.93" height="13.93"/><rect class="cls-3" x="520.05" y="258.6" width="13.93" height="13.92"/><rect class="cls-3" x="506.13" y="885.3" width="13.92" height="13.93"/><rect class="cls-3" x="506.13" y="843.52" width="13.92" height="13.93"/><rect class="cls-3" x="506.13" y="815.67" width="13.92" height="13.93"/><rect class="cls-4" x="506.13" y="773.89" width="13.92" height="13.93"/><rect class="cls-3" x="506.13" y="746.04" width="13.92" height="13.92"/><rect class="cls-3" x="506.13" y="732.11" width="13.92" height="13.93"/><rect class="cls-3" x="506.13" y="718.18" width="13.92" height="13.93"/><rect class="cls-3" x="506.13" y="704.26" width="13.92" height="13.92"/><rect class="cls-3" x="506.13" y="690.33" width="13.92" height="13.93"/><rect class="cls-3" x="506.13" y="676.4" width="13.92" height="13.93"/><rect class="cls-4" x="506.13" y="662.48" width="13.92" height="13.92"/><rect class="cls-4" x="506.13" y="648.55" width="13.92" height="13.93"/><rect class="cls-4" x="506.13" y="634.62" width="13.92" height="13.93"/><rect class="cls-4" x="506.13" y="592.84" width="13.92" height="13.93"/><rect class="cls-4" x="506.13" y="578.92" width="13.92" height="13.92"/><rect class="cls-3" x="506.13" y="564.99" width="13.92" height="13.93"/><rect class="cls-6" x="506.13" y="551.06" width="13.92" height="13.93"/><rect class="cls-6" x="506.13" y="537.14" width="13.92" height="13.92"/><rect class="cls-6" x="506.13" y="523.21" width="13.92" height="13.93"/><rect class="cls-6" x="506.13" y="509.28" width="13.92" height="13.93"/><rect class="cls-4" x="506.13" y="495.36" width="13.92" height="13.92"/><rect class="cls-4" x="506.13" y="481.43" width="13.92" height="13.93"/><rect class="cls-4" x="506.13" y="467.49" width="13.92" height="13.93"/><rect class="cls-6" x="506.13" y="453.58" width="13.92" height="13.92"/><rect class="cls-6" x="506.13" y="439.65" width="13.92" height="13.93"/><rect class="cls-6" x="506.13" y="425.73" width="13.92" height="13.92"/><rect class="cls-3" x="506.13" y="411.8" width="13.92" height="13.93"/><rect class="cls-6" x="506.13" y="397.86" width="13.92" height="13.93"/><rect class="cls-3" x="506.13" y="383.95" width="13.92" height="13.92"/><rect class="cls-6" x="506.13" y="370.02" width="13.92" height="13.93"/><rect class="cls-4" x="506.13" y="356.08" width="13.92" height="13.93"/><rect class="cls-4" x="506.13" y="342.17" width="13.92" height="13.92"/><rect class="cls-4" x="506.13" y="328.23" width="13.92" height="13.93"/><rect class="cls-4" x="506.13" y="314.3" width="13.92" height="13.93"/><rect class="cls-4" x="506.13" y="300.39" width="13.92" height="13.92"/><rect class="cls-6" x="506.13" y="286.45" width="13.92" height="13.93"/><rect class="cls-3" x="506.13" y="272.52" width="13.92" height="13.93"/><rect class="cls-3" x="506.13" y="258.6" width="13.92" height="13.92"/><rect class="cls-3" x="492.2" y="885.3" width="13.93" height="13.93"/><rect class="cls-3" x="492.2" y="843.52" width="13.93" height="13.93"/><rect class="cls-3" x="492.2" y="815.67" width="13.93" height="13.93"/><rect class="cls-4" x="492.2" y="773.89" width="13.93" height="13.93"/><rect class="cls-3" x="492.2" y="746.04" width="13.93" height="13.92"/><rect class="cls-3" x="492.2" y="704.26" width="13.93" height="13.92"/><rect class="cls-3" x="492.2" y="690.33" width="13.93" height="13.93"/><rect class="cls-3" x="492.2" y="676.4" width="13.93" height="13.93"/><rect class="cls-3" x="492.2" y="662.48" width="13.93" height="13.92"/><rect class="cls-4" x="492.2" y="648.55" width="13.93" height="13.93"/><rect class="cls-4" x="492.2" y="634.62" width="13.93" height="13.93"/><rect class="cls-4" x="492.2" y="592.84" width="13.93" height="13.93"/><rect class="cls-4" x="492.2" y="578.92" width="13.93" height="13.92"/><rect class="cls-3" x="492.2" y="564.99" width="13.93" height="13.93"/><rect class="cls-6" x="492.2" y="551.06" width="13.93" height="13.93"/><rect class="cls-6" x="492.2" y="537.14" width="13.93" height="13.92"/><rect class="cls-6" x="492.2" y="523.21" width="13.93" height="13.93"/><rect class="cls-6" x="492.2" y="509.28" width="13.93" height="13.93"/><rect class="cls-4" x="492.2" y="495.36" width="13.93" height="13.92"/><rect class="cls-4" x="492.2" y="481.43" width="13.93" height="13.93"/><rect class="cls-4" x="492.2" y="467.49" width="13.93" height="13.93"/><rect class="cls-6" x="492.2" y="453.58" width="13.93" height="13.92"/><rect class="cls-6" x="492.2" y="439.65" width="13.93" height="13.93"/><rect class="cls-6" x="492.2" y="425.73" width="13.93" height="13.92"/><rect class="cls-3" x="492.2" y="411.8" width="13.93" height="13.93"/><rect class="cls-6" x="492.2" y="397.86" width="13.93" height="13.93"/><rect class="cls-3" x="492.2" y="383.95" width="13.93" height="13.92"/><rect class="cls-6" x="492.2" y="370.02" width="13.93" height="13.93"/><rect class="cls-4" x="492.2" y="356.08" width="13.93" height="13.93"/><rect class="cls-4" x="492.2" y="342.17" width="13.93" height="13.92"/><rect class="cls-4" x="492.2" y="328.23" width="13.93" height="13.93"/><rect class="cls-4" x="492.2" y="314.3" width="13.93" height="13.93"/><rect class="cls-4" x="492.2" y="300.39" width="13.93" height="13.92"/><rect class="cls-6" x="492.2" y="286.45" width="13.93" height="13.93"/><rect class="cls-3" x="492.2" y="272.52" width="13.93" height="13.93"/><rect class="cls-3" x="492.2" y="258.6" width="13.93" height="13.92"/><rect class="cls-3" x="478.27" y="885.3" width="13.93" height="13.93"/><rect class="cls-3" x="478.27" y="871.37" width="13.93" height="13.93"/><rect class="cls-3" x="478.27" y="857.45" width="13.93" height="13.92"/><rect class="cls-3" x="478.27" y="843.52" width="13.93" height="13.93"/><rect class="cls-3" x="478.27" y="815.67" width="13.93" height="13.93"/><rect class="cls-4" x="478.27" y="773.89" width="13.93" height="13.93"/><rect class="cls-3" x="478.27" y="746.04" width="13.93" height="13.92"/><rect class="cls-3" x="478.27" y="704.26" width="13.93" height="13.92"/><rect class="cls-3" x="478.27" y="690.33" width="13.93" height="13.93"/><rect class="cls-3" x="478.27" y="676.4" width="13.93" height="13.93"/><rect class="cls-3" x="478.27" y="662.48" width="13.93" height="13.92"/><rect class="cls-3" x="478.27" y="648.55" width="13.93" height="13.93"/><rect class="cls-3" x="478.27" y="634.62" width="13.93" height="13.93"/><rect class="cls-3" x="478.27" y="620.7" width="13.93" height="13.92"/><rect class="cls-3" x="478.27" y="606.77" width="13.93" height="13.93"/><rect class="cls-4" x="478.27" y="592.84" width="13.93" height="13.93"/><rect class="cls-4" x="478.27" y="578.92" width="13.93" height="13.92"/><rect class="cls-3" x="478.27" y="564.99" width="13.93" height="13.93"/><rect class="cls-6" x="478.27" y="551.06" width="13.93" height="13.93"/><rect class="cls-6" x="478.27" y="537.14" width="13.93" height="13.92"/><rect class="cls-6" x="478.27" y="523.21" width="13.93" height="13.93"/><rect class="cls-6" x="478.27" y="509.28" width="13.93" height="13.93"/><rect class="cls-4" x="478.27" y="495.36" width="13.93" height="13.92"/><rect class="cls-4" x="478.27" y="481.43" width="13.93" height="13.93"/><rect class="cls-4" x="478.27" y="467.49" width="13.93" height="13.93"/><rect class="cls-6" x="478.27" y="453.58" width="13.93" height="13.92"/><rect class="cls-6" x="478.27" y="439.65" width="13.93" height="13.93"/><rect class="cls-6" x="478.27" y="425.73" width="13.93" height="13.92"/><rect class="cls-3" x="478.27" y="411.8" width="13.93" height="13.93"/><rect class="cls-6" x="478.27" y="397.86" width="13.93" height="13.93"/><rect class="cls-3" x="478.27" y="383.95" width="13.93" height="13.92"/><rect class="cls-6" x="478.27" y="370.02" width="13.93" height="13.93"/><rect class="cls-6" x="478.27" y="356.08" width="13.93" height="13.93"/><rect class="cls-6" x="478.27" y="342.17" width="13.93" height="13.92"/><rect class="cls-6" x="478.27" y="328.23" width="13.93" height="13.93"/><rect class="cls-6" x="478.27" y="314.3" width="13.93" height="13.93"/><rect class="cls-6" x="478.27" y="300.39" width="13.93" height="13.92"/><rect class="cls-3" x="478.27" y="286.45" width="13.93" height="13.93"/><rect class="cls-3" x="478.27" y="272.52" width="13.93" height="13.93"/><rect class="cls-3" x="478.27" y="258.6" width="13.93" height="13.92"/><rect class="cls-3" x="464.35" y="885.3" width="13.92" height="13.93"/><rect class="cls-3" x="464.35" y="871.37" width="13.92" height="13.93"/><rect class="cls-3" x="464.35" y="857.45" width="13.92" height="13.92"/><rect class="cls-3" x="464.35" y="843.52" width="13.92" height="13.93"/><rect class="cls-3" x="464.35" y="815.67" width="13.92" height="13.93"/><rect class="cls-4" x="464.35" y="801.74" width="13.92" height="13.93"/><rect class="cls-4" x="464.35" y="787.82" width="13.92" height="13.92"/><rect class="cls-4" x="464.35" y="773.89" width="13.92" height="13.93"/><rect class="cls-3" x="464.35" y="746.04" width="13.92" height="13.92"/><rect class="cls-3" x="464.35" y="704.26" width="13.92" height="13.92"/><rect class="cls-3" x="464.35" y="690.33" width="13.92" height="13.93"/><rect class="cls-3" x="464.35" y="676.4" width="13.92" height="13.93"/><rect class="cls-3" x="464.35" y="662.48" width="13.92" height="13.92"/><rect class="cls-3" x="464.35" y="648.55" width="13.92" height="13.93"/><rect class="cls-3" x="464.35" y="634.62" width="13.92" height="13.93"/><rect class="cls-3" x="464.35" y="620.7" width="13.92" height="13.92"/><rect class="cls-3" x="464.35" y="606.77" width="13.92" height="13.93"/><rect class="cls-3" x="464.35" y="592.84" width="13.92" height="13.93"/><rect class="cls-3" x="464.35" y="578.92" width="13.92" height="13.92"/><rect class="cls-3" x="464.35" y="564.99" width="13.92" height="13.93"/><rect class="cls-6" x="464.35" y="551.06" width="13.92" height="13.93"/><rect class="cls-6" x="464.35" y="537.14" width="13.92" height="13.92"/><rect class="cls-6" x="464.35" y="523.21" width="13.92" height="13.93"/><rect class="cls-6" x="464.35" y="509.28" width="13.92" height="13.93"/><rect class="cls-4" x="464.35" y="495.36" width="13.92" height="13.92"/><rect class="cls-4" x="464.35" y="481.43" width="13.92" height="13.93"/><rect class="cls-4" x="464.35" y="467.49" width="13.92" height="13.93"/><rect class="cls-6" x="464.35" y="453.58" width="13.92" height="13.92"/><rect class="cls-6" x="464.35" y="439.65" width="13.92" height="13.93"/><rect class="cls-6" x="464.35" y="425.73" width="13.92" height="13.92"/><rect class="cls-3" x="464.35" y="411.8" width="13.92" height="13.93"/><rect class="cls-6" x="464.35" y="397.86" width="13.92" height="13.93"/><rect class="cls-3" x="464.35" y="383.95" width="13.92" height="13.92"/><rect class="cls-6" x="464.35" y="370.02" width="13.92" height="13.93"/><rect class="cls-6" x="464.35" y="356.08" width="13.92" height="13.93"/><rect class="cls-6" x="464.35" y="342.17" width="13.92" height="13.92"/><rect class="cls-6" x="464.35" y="328.23" width="13.92" height="13.93"/><rect class="cls-6" x="464.35" y="314.3" width="13.92" height="13.93"/><rect class="cls-3" x="464.35" y="300.39" width="13.92" height="13.92"/><rect class="cls-3" x="464.35" y="286.45" width="13.92" height="13.93"/><rect class="cls-3" x="464.35" y="272.52" width="13.92" height="13.93"/><rect class="cls-3" x="450.42" y="829.6" width="13.93" height="13.92"/><rect class="cls-3" x="450.42" y="815.67" width="13.93" height="13.93"/><rect class="cls-3" x="450.42" y="746.04" width="13.93" height="13.92"/><rect class="cls-3" x="450.42" y="690.33" width="13.93" height="13.93"/><rect class="cls-3" x="450.42" y="676.4" width="13.93" height="13.93"/><rect class="cls-3" x="450.42" y="662.48" width="13.93" height="13.92"/><rect class="cls-3" x="450.42" y="648.55" width="13.93" height="13.93"/><rect class="cls-3" x="450.42" y="634.62" width="13.93" height="13.93"/><rect class="cls-3" x="450.42" y="620.7" width="13.93" height="13.92"/><rect class="cls-3" x="450.42" y="606.77" width="13.93" height="13.93"/><rect class="cls-3" x="450.42" y="592.84" width="13.93" height="13.93"/><rect class="cls-3" x="450.42" y="578.92" width="13.93" height="13.92"/><rect class="cls-3" x="450.42" y="564.99" width="13.93" height="13.93"/><rect class="cls-6" x="450.42" y="551.06" width="13.93" height="13.93"/><rect class="cls-6" x="450.42" y="537.14" width="13.93" height="13.92"/><rect class="cls-6" x="450.42" y="523.21" width="13.93" height="13.93"/><rect class="cls-6" x="450.42" y="509.28" width="13.93" height="13.93"/><rect class="cls-6" x="450.42" y="495.36" width="13.93" height="13.92"/><rect class="cls-4" x="450.42" y="481.43" width="13.93" height="13.93"/><rect class="cls-6" x="450.42" y="467.49" width="13.93" height="13.93"/><rect class="cls-6" x="450.42" y="453.58" width="13.93" height="13.92"/><rect class="cls-6" x="450.42" y="439.65" width="13.93" height="13.93"/><rect class="cls-6" x="450.42" y="425.73" width="13.93" height="13.92"/><rect class="cls-3" x="450.42" y="411.8" width="13.93" height="13.93"/><rect class="cls-6" x="450.42" y="397.86" width="13.93" height="13.93"/><rect class="cls-3" x="450.42" y="383.95" width="13.93" height="13.92"/><rect class="cls-6" x="450.42" y="370.02" width="13.93" height="13.93"/><rect class="cls-6" x="450.42" y="356.08" width="13.93" height="13.93"/><rect class="cls-6" x="450.42" y="342.17" width="13.93" height="13.92"/><rect class="cls-6" x="450.42" y="328.23" width="13.93" height="13.93"/><rect class="cls-3" x="450.42" y="314.3" width="13.93" height="13.93"/><rect class="cls-3" x="450.42" y="300.39" width="13.93" height="13.92"/><rect class="cls-3" x="450.42" y="286.45" width="13.93" height="13.93"/><rect class="cls-3" x="450.42" y="272.52" width="13.93" height="13.93"/><rect class="cls-3" x="436.49" y="815.67" width="13.93" height="13.93"/><rect class="cls-3" x="436.49" y="801.74" width="13.93" height="13.93"/><rect class="cls-3" x="436.49" y="787.82" width="13.93" height="13.92"/><rect class="cls-3" x="436.49" y="773.89" width="13.93" height="13.93"/><rect class="cls-3" x="436.49" y="759.96" width="13.93" height="13.93"/><rect class="cls-3" x="436.49" y="746.04" width="13.93" height="13.92"/><rect class="cls-3" x="436.49" y="662.48" width="13.93" height="13.92"/><rect class="cls-3" x="436.49" y="648.55" width="13.93" height="13.93"/><rect class="cls-3" x="436.49" y="634.62" width="13.93" height="13.93"/><rect class="cls-3" x="436.49" y="620.7" width="13.93" height="13.92"/><rect class="cls-3" x="436.49" y="606.77" width="13.93" height="13.93"/><rect class="cls-3" x="436.49" y="592.84" width="13.93" height="13.93"/><rect class="cls-3" x="436.49" y="578.92" width="13.93" height="13.92"/><rect class="cls-3" x="436.49" y="564.99" width="13.93" height="13.93"/><rect class="cls-6" x="436.49" y="551.06" width="13.93" height="13.93"/><rect class="cls-6" x="436.49" y="537.14" width="13.93" height="13.92"/><rect class="cls-6" x="436.49" y="523.21" width="13.93" height="13.93"/><rect class="cls-6" x="436.49" y="509.28" width="13.93" height="13.93"/><rect class="cls-6" x="436.49" y="495.36" width="13.93" height="13.92"/><rect class="cls-4" x="436.49" y="481.43" width="13.93" height="13.93"/><rect class="cls-6" x="436.49" y="467.49" width="13.93" height="13.93"/><rect class="cls-6" x="436.49" y="453.58" width="13.93" height="13.92"/><rect class="cls-6" x="436.49" y="439.65" width="13.93" height="13.93"/><rect class="cls-6" x="436.49" y="425.73" width="13.93" height="13.92"/><rect class="cls-3" x="436.49" y="411.8" width="13.93" height="13.93"/><rect class="cls-6" x="436.49" y="397.86" width="13.93" height="13.93"/><rect class="cls-3" x="436.49" y="383.95" width="13.93" height="13.92"/><rect class="cls-6" x="436.49" y="370.02" width="13.93" height="13.93"/><rect class="cls-6" x="436.49" y="356.08" width="13.93" height="13.93"/><rect class="cls-3" x="436.49" y="342.17" width="13.93" height="13.92"/><rect class="cls-3" x="436.49" y="328.23" width="13.93" height="13.93"/><rect class="cls-3" x="436.49" y="314.3" width="13.93" height="13.93"/><rect class="cls-3" x="436.49" y="300.39" width="13.93" height="13.92"/><rect class="cls-3" x="436.49" y="286.45" width="13.93" height="13.93"/><rect class="cls-3" x="422.57" y="648.55" width="13.92" height="13.93"/><rect class="cls-3" x="422.57" y="634.62" width="13.92" height="13.93"/><rect class="cls-3" x="422.57" y="620.7" width="13.92" height="13.92"/><rect class="cls-3" x="422.57" y="606.77" width="13.92" height="13.93"/><rect class="cls-3" x="422.57" y="592.84" width="13.92" height="13.93"/><rect class="cls-3" x="422.57" y="578.92" width="13.92" height="13.92"/><rect class="cls-3" x="422.57" y="564.99" width="13.92" height="13.93"/><rect class="cls-3" x="422.57" y="551.06" width="13.92" height="13.93"/><rect class="cls-3" x="422.57" y="537.14" width="13.92" height="13.92"/><rect class="cls-3" x="422.57" y="523.21" width="13.92" height="13.93"/><rect class="cls-3" x="422.57" y="509.28" width="13.92" height="13.93"/><rect class="cls-3" x="422.57" y="495.36" width="13.92" height="13.92"/><rect class="cls-3" x="422.57" y="481.43" width="13.92" height="13.93"/><rect class="cls-3" x="422.57" y="467.49" width="13.92" height="13.93"/><rect class="cls-3" x="422.57" y="453.58" width="13.92" height="13.92"/><rect class="cls-3" x="422.57" y="439.65" width="13.92" height="13.93"/><rect class="cls-3" x="422.57" y="425.73" width="13.92" height="13.92"/><rect class="cls-3" x="422.57" y="411.8" width="13.92" height="13.93"/><rect class="cls-3" x="422.57" y="397.86" width="13.92" height="13.93"/><rect class="cls-3" x="422.57" y="383.95" width="13.92" height="13.92"/><rect class="cls-3" x="422.57" y="370.02" width="13.92" height="13.93"/><rect class="cls-3" x="422.57" y="356.08" width="13.92" height="13.93"/><rect class="cls-3" x="422.57" y="342.17" width="13.92" height="13.92"/><rect class="cls-3" x="422.57" y="328.23" width="13.92" height="13.93"/><rect class="cls-3" x="422.57" y="314.3" width="13.92" height="13.93"/><rect class="cls-3" x="422.57" y="300.39" width="13.92" height="13.92"/><rect class="cls-3" x="408.64" y="523.21" width="13.93" height="13.93"/><rect class="cls-3" x="408.64" y="453.58" width="13.93" height="13.92"/><rect class="cls-3" x="394.7" y="523.21" width="13.93" height="13.93"/><rect class="cls-3" x="394.7" y="509.28" width="13.93" height="13.93"/><rect class="cls-3" x="394.7" y="495.36" width="13.93" height="13.92"/><rect class="cls-3" x="394.7" y="481.43" width="13.93" height="13.93"/><rect class="cls-3" x="394.7" y="467.49" width="13.93" height="13.93"/><rect class="cls-3" x="394.7" y="453.58" width="13.93" height="13.92"/></svg>