<?xml version="1.0" encoding="UTF-8"?>
<svg width="93px" height="107px" viewBox="0 0 93 107" version="1.1" xmlns="http://www.w3.org/2000/svg" xmlns:xlink="http://www.w3.org/1999/xlink">
    <!-- Generator: Sketch 51.3 (57544) - http://www.bohemiancoding.com/sketch -->
    <title>saber_bot</title>
    <desc>Created with Sketch.</desc>
    <defs>
        <linearGradient x1="95.9803958%" y1="98.8397429%" x2="4.00234076%" y2="1.15256408%" id="linearGradient-1">
            <stop stop-color="#00FF9D" offset="0%"></stop>
            <stop stop-color="#2BDD9F" offset="100%"></stop>
        </linearGradient>
    </defs>
    <g id="Page-1" stroke="none" stroke-width="1" fill="none" fill-rule="evenodd">
        <g id="saber_bot" transform="translate(0.000000, -1.000000)" fill-rule="nonzero">
            <path d="M92.1308,27.5283 L92.1308,80.6689 L92.1201,80.6787 L92.1006,80.6885 L91.6904,80.9287 L91.3203,81.1396 L90.7002,81.4893 L86.5508,83.8789 L86.54,83.8896 L86.4101,83.9687 L86.3506,83.999 L85.8008,84.3193 L85,84.7686 L84.9004,84.8291 L84.4209,85.1084 L83.29,85.7588 L82.4404,86.249 L81.7002,86.6787 L81.4609,86.8096 L81.3301,86.8584 L81.2207,86.9287 L80.2207,87.499 L80.1904,87.5186 L78.1904,88.6689 L77.6806,88.959 L77.54,89.0391 L77.5107,89.0596 L77.3701,89.1396 L77.3603,89.1494 L76.3203,89.7393 L76.2803,89.7686 L76.2109,89.8096 L75.0508,90.4795 L74.6006,90.7393 L74.5908,90.749 L74.5801,90.7588 L74.5703,90.7588 L74.1504,90.999 L73.0303,91.6494 L72.1601,92.1689 L70.9805,92.8389 L70.9004,92.8896 L70.7803,92.959 L70.7402,92.9893 L70.7002,93.0088 L70.6806,93.0186 L70.5801,93.0791 L70.29,93.249 L70.2607,93.2588 L70.1006,93.3486 L70.1006,93.3584 L69.7002,93.5889 L69.4306,93.749 L69.3203,93.8096 L69.1406,93.8994 L69.1201,93.9189 L69.0801,93.9385 L68.3906,94.3291 L68.3301,94.3691 L68.0908,94.5088 L68.0703,94.5186 L67.7803,94.6885 L67.6308,94.7686 L67.4101,94.8994 L67.1709,95.0391 L67.1601,95.0391 L66.7402,95.2891 L66.4502,95.459 L66.4209,95.4795 L66.1201,95.6494 L64.7607,96.4385 L64.2607,96.7295 L64.0107,96.8691 L63.3105,97.2686 L63.2803,97.2891 L63.2705,97.2891 L62.9609,97.4687 L62.9101,97.499 L62.6709,97.6494 L61.8301,98.1289 L61.2002,98.4893 L61.1406,98.5186 L60.6406,98.8096 C60.6308,98.8193 60.6308,98.8193 60.6308,98.8096 L60.1006,99.1191 L59.8105,99.2891 L59.0508,99.7295 L59,99.7588 L58.9502,99.7891 L58.9209,99.7988 C58.9209,99.8096 58.9101,99.8096 58.9101,99.8096 L58.8906,99.8291 L58.6406,99.9687 L57.6406,100.5488 L57.4707,100.6494 L57.4306,100.6689 L57.0508,100.8896 L55.6308,101.709 L55.2705,101.9189 L55.1806,101.9687 L54.9404,102.1084 L54.1406,102.5693 L53.8808,102.7187 L53.6006,102.8789 L53.5908,102.8896 L53.3906,103.0088 L53.1601,103.1396 L52.8105,103.3389 L51.9805,103.8193 L51.9707,103.8291 L51.8808,103.8789 L50.5605,104.6396 L50.54,104.6494 L49.75,105.1084 L49.1406,105.459 L49.1308,105.459 L47.7207,106.2686 L47.7002,106.2891 L47.4502,106.4287 L46.8906,106.749 L46.8808,106.749 L46.75,106.8291 L46.5605,106.9385 L46.29,107.0986 L46.2803,107.0986 L46.0801,107.2187 L46.0205,107.1885 L44.8808,106.5283 L44.8603,106.5186 L44.6601,106.3994 L43.8105,105.9092 L43.7803,105.8994 L43.4502,105.709 L43.4404,105.6982 L42.04,104.8896 L42.0303,104.8789 L42.0107,104.8691 L40.6406,104.0791 L40.6103,104.0596 L40.6006,104.0596 L39.7705,103.5791 L39.7109,103.5391 L39.3701,103.3486 L39.1904,103.2393 L39.1709,103.2295 L38.5107,102.8486 L38.4707,102.8193 L38.3808,102.7686 L38.2803,102.709 L38.1504,102.6396 L37.8808,102.4795 L37.7607,102.4092 L37.75,102.4092 L37.0303,101.9893 L36.79,101.8584 L36.4004,101.6289 L36.3506,101.5986 L36.3203,101.5791 L34.9209,100.7686 L34.9101,100.7686 L34.8008,100.6982 L34.4306,100.4795 L34.4209,100.4795 L34.1504,100.3193 L33.5303,99.959 L33.5,99.9482 L33.4404,99.9092 L33.4004,99.8896 L32.1103,99.1396 L31.7207,98.9092 L31.04,98.5186 L30.4609,98.1885 L30.3506,98.1289 L29.3506,97.5488 L27.6308,96.5488 C27.6201,96.5391 27.6103,96.5283 27.6006,96.5283 L26.2803,95.7686 L22.3603,93.5088 L22.2002,93.4189 L21.6308,93.0889 L21.1601,92.8193 L20.7207,92.5596 L20.4209,92.3896 L20.04,92.1689 L19.0508,91.5889 L19.0107,91.5693 L16.2705,89.9795 L16.1709,89.9189 L15.9902,89.8193 L15.3203,89.4385 L14.5,88.9687 L14.4101,88.9189 L13.9101,88.6289 L13.9004,88.6191 L13.8203,88.5693 L13.8105,88.5693 L13.6904,88.499 L13.6806,88.499 L13.3701,88.3193 L12.6406,87.8994 C12.6308,87.8896 12.6308,87.8896 12.6201,87.8896 L10.7607,86.8096 L9.7402,86.2187 L7.6308,84.9893 L7.54,84.9385 L7.3408,84.8193 C7.3408,84.8193 7.3301,84.8193 7.3203,84.8096 L7.04,84.6494 L6.5107,84.3486 L5.6904,83.8691 L5.6308,83.8291 L5.6201,83.8291 C5.6201,83.8291 5.6201,83.8291 5.6103,83.8291 L5.1201,83.5391 L4.4209,83.1396 L3.7402,82.749 L2.5205,82.0391 L2.4209,81.9795 L2.4101,81.9795 L2.0801,81.7891 L1.6709,81.5488 L1.6601,81.5488 L1.2305,81.2988 L0.2402,80.7295 L0.1601,80.6885 L0.1308,80.6689 L0.1308,27.5283 L0.9101,27.0791 L2.5,26.1592 L2.8603,25.9482 L6.2402,23.999 L7.3008,23.3896 L13.0801,20.0488 L13.0908,20.0488 L14,19.5283 L15.0508,18.9092 L16.8701,17.8584 L16.8808,17.8584 L17.75,17.3486 L21.3808,15.2686 L22.0205,14.8896 L22.9609,14.3486 L23.1308,14.2588 L24.79,13.3096 L25.5703,12.8584 L25.9502,12.6396 L26.3906,12.3789 L27.0605,11.9893 L27.4902,11.7295 L28.0107,11.4287 L28.5107,11.1494 L29.1006,10.8096 L30.29,10.1289 L30.9805,9.7187 L31.7305,9.2891 L32.3808,8.9189 L32.3906,8.9189 L32.4404,8.8896 L32.8701,8.6396 L38.1601,5.5889 L38.2705,5.5283 L38.3506,5.4795 L38.6201,5.3193 L44.1406,2.1289 L44.6904,1.8096 L46.1308,0.9795 L46.6406,1.2783 L47.7305,1.9092 L50.5908,3.5596 L53.6806,5.3486 L56.2803,6.8486 L56.5,6.9795 L61.1904,9.6787 L62.1709,10.249 L67.3008,13.209 L68.2109,13.7295 L69.25,14.3389 L71.5508,15.6494 L72.4209,16.1494 L73.1103,16.5488 L73.9404,17.0283 L74.4306,17.3096 L75.0107,17.6494 L75.3105,17.8193 L76.1103,18.2783 L76.2002,18.3389 L78.0107,19.3789 L80.1709,20.6191 L81.29,21.2686 L81.79,21.5596 L81.8301,21.5889 L81.8301,21.5986 L82.0908,21.7393 L82.75,22.1289 L84.2109,22.9687 L86.1504,24.0889 L86.9306,24.5283 L87.3701,24.7783 L87.8603,25.0596 L89.3105,25.8994 L89.4805,25.999 L90.3301,26.4893 L92.1308,27.5283 Z" id="Shape" fill="#FFFFFF"></path>
            <circle id="Oval" fill="#05E5CA" opacity="0.49" cx="45.7409" cy="52.3874" r="33.9792"></circle>
            <g id="Group" transform="translate(7.000000, 12.000000)">
                <path d="M51.2363,35.5098 C50.7002,35.2783 50.1601,34.9394 49.6689,34.5244 C49.6357,34.5371 49.5996,34.54 49.5683,34.5557 C49.5683,34.5117 49.5635,34.4707 49.5635,34.4277 C48.8242,33.7783 48.2148,32.96 47.9648,32.0732 C47.9023,31.8477 47.8418,31.6289 47.7812,31.4092 C47.7773,31.4111 47.7744,31.4092 47.7705,31.4092 C47.0752,29.7314 46.0195,28.3066 44.5234,27.4141 C44.5078,27.4004 44.499,27.3828 44.4844,27.3701 C44.0088,26.8281 43.3799,26.8037 42.8672,27.042 C37.8369,25.0986 32.3662,25.9814 29.3691,29.9277 C28.1592,31.1064 27.1826,32.5234 26.0312,33.7793 C25.8857,33.9375 25.8017,34.1025 25.7471,34.2646 C25.6894,34.2646 25.6328,34.2646 25.5742,34.2637 C25.0976,34.2598 24.6211,34.5967 24.4121,35.0127 C24.3281,35.1787 24.2441,35.3496 24.166,35.5195 C23.9111,36.0488 24.0869,36.5654 24.4443,36.9258 C24.5146,37.9473 24.5576,38.9746 24.5381,39.9873 C24.5146,41.3643 26.1738,41.7969 26.9355,41.1113 C27.3711,42.5869 28.164,43.8809 29.4785,44.6201 C30.0312,44.9307 30.5605,44.8203 30.9502,44.5186 C31.5312,44.7539 32.2373,44.5635 32.6094,44.0361 C33.0469,43.4141 32.8867,42.541 32.2734,42.1016 C31.9638,41.8809 31.6426,41.7334 31.3037,41.6475 C30.1367,39.8223 29.8642,37.6543 29.8125,35.5195 C29.9619,35.3584 30.0791,35.1514 30.1367,34.8799 C30.3408,33.9014 30.6533,33.0596 31.0508,32.3369 C31.875,31.5293 32.791,30.8291 33.9834,30.3389 C34.1133,30.4941 34.2763,30.6123 34.4668,30.6836 C34.7783,31.1377 35.3515,31.4443 35.8974,31.2764 C36.8701,30.9775 37.8721,30.7158 38.8994,30.7461 C39.1914,30.7529 39.4336,30.6807 39.6357,30.5586 C40.5801,30.7549 41.4433,30.7939 42.3418,30.6416 C42.9746,30.96 43.6094,31.2705 44.2676,31.4736 C44.4707,31.5371 44.6582,31.5615 44.8359,31.5547 C45.1279,32.043 45.3691,32.584 45.5527,33.165 C45.3252,33.4775 45.2324,33.8711 45.4121,34.2959 C45.8818,35.4014 45.7617,36.5391 45.9375,37.7012 C45.9599,37.8525 46.0176,37.9805 46.0859,38.0986 C46.0762,38.2773 46.0664,38.4541 46.0527,38.6299 C45.8105,39.6875 45.5332,40.6592 44.334,40.9365 C42.5976,41.3369 42.9717,44.1055 44.7051,43.6894 C44.9267,43.6348 45.1328,43.5781 45.331,43.5186 C45.8076,44.3994 47.5508,44.4531 48.0068,43.1533 C48.1592,42.7129 48.291,42.2275 48.4062,41.7227 C48.6094,41.7568 48.8349,41.7461 49.0742,41.6709 C49.7138,41.4648 50.4199,41.4111 50.9248,40.916 C51.4336,40.416 51.6123,39.751 51.7129,39.0605 C51.8721,37.9834 51.8633,36.7363 51.6328,35.6631 C51.499,35.6133 51.3642,35.5674 51.2363,35.5098" id="Shape" fill="#D6D6EA"></path>
                <polygon id="Shape" fill="#25E899" points="27.875 43.7139 46.2187 43.7139 47.7744 44.3086 46.6055 48.4941 29.0293 48.4941"></polygon>
                <path d="M44.1211,53.6689 L31.5127,53.6689 C30.1416,53.6689 29.0293,52.5557 29.0293,51.1836 L29.0293,48.4941 L46.6055,48.4941 L46.6055,51.1836 C46.6055,52.5557 45.4922,53.6689 44.1211,53.6689" id="Shape" fill="#D6D6EA"></path>
                <path d="M44.1211,54.2393 L31.5127,54.2393 C29.8281,54.2393 28.458,52.8662 28.458,51.1836 L28.458,47.9209 L47.1758,47.9209 L47.1758,51.1836 C47.1758,52.8662 45.8056,54.2393 44.1211,54.2393 Z M29.6006,49.0644 L29.6006,51.1836 C29.6006,52.2383 30.459,53.0967 31.5127,53.0967 L44.1211,53.0967 C45.1758,53.0967 46.0342,52.2383 46.0342,51.1836 L46.0342,49.0644 L29.6006,49.0644 Z" id="Shape" fill="#0E2947"></path>
                <path d="M34.5957,43.7139 C31.8369,42.5019 29.9101,39.7461 29.9101,36.54 C29.9101,34.6475 30.5781,32.9102 31.6963,31.5557 C33.1338,29.8154 42.1728,29.7266 43.6055,31.3477 C44.831,32.7305 45.5742,34.5469 45.5742,36.54 C45.5742,39.7451 43.6465,42.501 40.8887,43.7139" id="Shape" fill="#0FCE7C"></path>
                <path d="M34.0986,44.2842 C34.0146,44.2842 33.9316,44.2646 33.8496,44.2256 C30.8066,42.7461 28.918,39.7266 28.918,36.3457 C28.918,34.665 29.3926,33.0312 30.2939,31.626 C30.4629,31.3584 30.8174,31.2822 31.083,31.4531 C31.3476,31.623 31.4258,31.9756 31.2558,32.2393 C30.4736,33.4639 30.0586,34.8838 30.0586,36.3457 C30.0586,39.2842 31.7031,41.9131 34.3496,43.2002 C34.6328,43.3379 34.751,43.6797 34.6133,43.9629 C34.5146,44.165 34.3105,44.2842 34.0986,44.2842" id="Shape" fill="#0E2947"></path>
                <path d="M41.3437,44.2432 C41.1347,44.2432 40.9326,44.1269 40.832,43.9277 C40.6914,43.6445 40.8056,43.3018 41.0879,43.1611 C43.6846,41.8594 45.2988,39.2471 45.2988,36.3447 C45.2988,34.71 44.79,33.1514 43.8271,31.8398 C43.6396,31.5859 43.6953,31.2305 43.9482,31.042 C44.2021,30.8564 44.5596,30.9092 44.7471,31.1641 C45.8535,32.6748 46.4394,34.4648 46.4394,36.3447 C46.4394,39.6816 44.5859,42.6855 41.5976,44.1826 C41.5156,44.2227 41.4297,44.2432 41.3437,44.2432" id="Shape" fill="#0E2947"></path>
                <path d="M47.0488,49.0644 L28.5859,49.0644 L25.582,37.2373 L25.582,37.165 C25.582,30.4199 31.0703,24.9297 37.8164,24.9297 C44.5635,24.9297 50.0527,30.4199 50.0527,37.165 L50.0527,37.2373 L50.0351,37.3066 L47.0488,49.0644 Z M29.4746,47.9209 L46.1601,47.9209 L48.9111,37.0937 C48.874,31.0098 43.9092,26.0713 37.8164,26.0713 C31.7236,26.0713 26.7627,31.0098 26.7236,37.0937 L29.4746,47.9209 Z" id="Shape" fill="#0E2947"></path>
                <path d="M26.1523,37.5674 C25.8379,37.5674 25.582,37.3115 25.582,36.9971 L25.582,25.8955 C25.582,25.5791 25.8379,25.3242 26.1523,25.3242 C26.4678,25.3242 26.7236,25.5791 26.7236,25.8955 L26.7236,36.9971 C26.7236,37.3115 26.4678,37.5674 26.1523,37.5674" id="Shape" fill="#0E2947"></path>
                <path d="M49.4824,37.5674 C49.167,37.5674 48.9121,37.3115 48.9121,36.9971 L48.9121,22.7617 C48.9121,22.4453 49.167,22.1894 49.4824,22.1894 C49.7969,22.1894 50.0527,22.4453 50.0527,22.7617 L50.0527,36.9971 C50.0527,37.3115 49.7969,37.5674 49.4824,37.5674" id="Shape" fill="#0E2947"></path>
                <path d="M27.0605,42.5557 L25.8555,42.5557 C24.5644,42.5557 23.5156,41.5029 23.5156,40.2119 L23.5156,35.7139 C23.5156,34.4228 24.5644,33.3711 25.8555,33.3711 L26.3672,33.3711 C26.6816,33.3711 26.9375,33.626 26.9375,33.9424 C26.9375,34.2568 26.6816,34.5117 26.3672,34.5117 L25.8555,34.5117 C25.1933,34.5117 24.6562,35.0527 24.6562,35.7139 L24.6562,40.2119 C24.6562,40.874 25.1933,41.4121 25.8555,41.4121 L27.0605,41.4121 C27.3769,41.4121 27.6328,41.6689 27.6328,41.9824 C27.6328,42.2978 27.3769,42.5557 27.0605,42.5557" id="Shape" fill="#0E2947"></path>
                <path d="M49.8183,42.5557 L48.6142,42.5557 C48.2988,42.5557 48.043,42.2978 48.043,41.9824 C48.043,41.6689 48.2988,41.4121 48.6142,41.4121 L49.8183,41.4121 C50.4814,41.4121 51.0205,40.874 51.0205,40.2119 L51.0205,35.7139 C51.0205,35.0527 50.4814,34.5117 49.8183,34.5117 L49.3086,34.5117 C48.9941,34.5117 48.7383,34.2568 48.7383,33.9424 C48.7383,33.626 48.9941,33.3711 49.3086,33.3711 L49.8183,33.3711 C51.1103,33.3711 52.1621,34.4228 52.1621,35.7139 L52.1621,40.2119 C52.1621,41.5029 51.1103,42.5557 49.8183,42.5557" id="Shape" fill="#0E2947"></path>
                <path d="M26.2773,35.7852 C26.1338,35.7852 25.9902,35.7314 25.8799,35.623 C25.6543,35.4023 25.6484,35.041 25.8691,34.8154 C29.1103,31.4971 33.418,29.6699 38.0019,29.6699 C42.3183,29.6699 46.4453,31.3174 49.6172,34.3066 C49.8476,34.5234 49.8574,34.8848 49.6406,35.1143 C49.4258,35.3428 49.0644,35.3555 48.8349,35.1396 C45.874,32.3486 42.0263,30.8105 38.0019,30.8105 C33.7265,30.8105 29.708,32.5166 26.6855,35.6133 C26.5742,35.7275 26.4258,35.7852 26.2773,35.7852" id="Shape" fill="#0E2947"></path>
                <path d="M47.7744,44.2842 L27.875,44.2842 C27.5586,44.2842 27.3047,44.0273 27.3047,43.7129 C27.3047,43.3994 27.5586,43.1426 27.875,43.1426 L47.7744,43.1426 C48.0898,43.1426 48.3447,43.3994 48.3447,43.7129 C48.3447,44.0273 48.0898,44.2842 47.7744,44.2842" id="Shape" fill="#0E2947"></path>
                <path d="M41.9111,33.9424 C41.9111,35.0693 40.9961,35.9853 39.8672,35.9853 C38.7383,35.9853 37.8242,35.0693 37.8242,33.9424 C37.8242,32.8144 38.7383,31.8994 39.8672,31.8994 C40.9961,31.8994 41.9111,32.8144 41.9111,33.9424" id="Shape" fill="#FFFFFF"></path>
                <path d="M43.3711,36.9971 C43.3711,37.4531 43.0019,37.8223 42.5439,37.8223 C42.0888,37.8223 41.7168,37.4531 41.7168,36.9971 C41.7168,36.542 42.0888,36.1699 42.5439,36.1699 C43.0019,36.1699 43.3711,36.542 43.3711,36.9971" id="Shape" fill="#FFFFFF"></path>
                <path d="M44.873,47.4346 C44.0644,47.4346 43.6601,46.8232 43.3916,46.418 C43.1367,46.0342 43.0303,45.9131 42.8613,45.9131 C42.6904,45.9131 42.5849,46.0342 42.3301,46.418 C42.0615,46.8232 41.6572,47.4346 40.8476,47.4346 C40.0371,47.4346 39.6328,46.8232 39.3633,46.418 C39.1094,46.0342 39.0019,45.9131 38.834,45.9131 C38.664,45.9131 38.5566,46.0342 38.3008,46.418 C38.0351,46.8232 37.6308,47.4346 36.8174,47.4346 C36.0088,47.4346 35.6025,46.8232 35.3369,46.418 C35.081,46.0342 34.9746,45.9131 34.8066,45.9131 C34.6357,45.9131 34.5293,46.0342 34.2734,46.418 C34.0058,46.8232 33.6006,47.4346 32.791,47.4346 C31.9805,47.4346 31.5752,46.8232 31.3066,46.418 C31.0508,46.0342 30.9453,45.9131 30.7754,45.9131 C30.4609,45.9131 30.2051,45.6572 30.2051,45.3428 C30.2051,45.0264 30.4609,44.7715 30.7754,44.7715 C31.5859,44.7715 31.9922,45.3828 32.2597,45.7881 C32.5137,46.1738 32.6211,46.293 32.791,46.293 C32.9609,46.293 33.0654,46.1738 33.3213,45.7881 C33.5918,45.3828 33.9941,44.7715 34.8066,44.7715 C35.6162,44.7715 36.0215,45.3828 36.2871,45.79 C36.543,46.1738 36.6504,46.293 36.8174,46.293 C36.9892,46.293 37.0957,46.1738 37.3496,45.7881 C37.6191,45.3828 38.0234,44.7715 38.834,44.7715 C39.6435,44.7715 40.0488,45.3828 40.3164,45.79 C40.5722,46.1738 40.6767,46.293 40.8476,46.293 C41.0176,46.293 41.123,46.1738 41.3779,45.79 C41.6465,45.3828 42.0508,44.7715 42.8613,44.7715 C43.6719,44.7715 44.0742,45.3828 44.3428,45.79 C44.5976,46.1738 44.7021,46.293 44.873,46.293 C45.1875,46.293 45.4443,46.5508 45.4443,46.8643 C45.4443,47.1787 45.1875,47.4346 44.873,47.4346" id="Shape" fill="#0E2947"></path>
                <rect id="Rectangle-path" fill="#D6D6EA" x="25.4609" y="62.2041" width="26.0987" height="6.0996"></rect>
                <rect id="Rectangle-path" fill="#D6D6EA" x="28.9756" y="58.2246" width="17.9492" height="3.7949"></rect>
                <path d="M25.0957,68.6328 L51.3945,68.6328" id="Shape" fill="#25E899"></path>
                <rect id="Rectangle-path" fill="#0E2947" x="25.0957" y="68.0635" width="26.2988" height="1.1416"></rect>
                <polygon id="Shape" fill="#0E2947" points="25.0957 68.6328 25.3808 72.4893 27.9844 76.0088 30.2685 76.2266 38.625 77.04 47.1933 76.4258 50.0664 74.4346 51.3945 70.6436 50.8252 68.6328"></polygon>
                <path d="M45.3164,77.293 L31.1748,77.293 C27.5078,77.293 24.5234,74.3125 24.5234,70.6436 L24.5234,62.0742 C24.5234,61.7578 24.7793,61.5039 25.0957,61.5039 L51.3945,61.5039 C51.708,61.5039 51.9648,61.7578 51.9648,62.0742 L51.9648,70.6436 C51.9648,74.3125 48.9824,77.293 45.3164,77.293 Z M25.667,62.6445 L25.667,70.6436 C25.667,73.6807 28.1357,76.1533 31.1748,76.1533 L45.3164,76.1533 C48.3506,76.1533 50.8232,73.6807 50.8232,70.6436 L50.8232,62.6445 L25.667,62.6445 Z" id="Shape" fill="#0E2947"></path>
                <path d="M40.8144,68.9697 C40.8144,67.4717 39.5976,66.2578 38.0976,66.2578 C36.5996,66.2578 35.3838,67.4717 35.3838,68.9697 C35.3838,70.4697 36.5996,71.6855 38.0976,71.6855 C39.5976,71.6855 40.8144,70.4697 40.8144,68.9697" id="Shape" fill="#25E899"></path>
                <path d="M38.0976,72.2568 C36.2871,72.2568 34.8135,70.7822 34.8135,68.9697 C34.8135,67.1592 36.2871,65.6846 38.0976,65.6846 C39.9101,65.6846 41.3847,67.1592 41.3847,68.9697 C41.3847,70.7822 39.9101,72.2568 38.0976,72.2568 M38.0976,66.8262 C36.916,66.8262 35.9551,67.7881 35.9551,68.9697 C35.9551,70.1543 36.916,71.1152 38.0976,71.1152 C39.2812,71.1152 40.2422,70.1543 40.2422,68.9697 C40.2422,67.7881 39.2812,66.8262 38.0976,66.8262" id="Shape" fill="#0E2947"></path>
                <path d="M27.916,75.4541 C27.916,74.7236 27.3222,74.1299 26.5898,74.1299 C25.8584,74.1299 25.2656,74.7236 25.2656,75.4541 C25.2656,76.1875 25.8584,76.7803 26.5898,76.7803 C27.3222,76.7803 27.916,76.1875 27.916,75.4541" id="Shape" fill="#0E2947"></path>
                <path d="M51.2031,75.4541 C51.2031,74.7236 50.6094,74.1299 49.8769,74.1299 C49.1445,74.1299 48.5508,74.7236 48.5508,75.4541 C48.5508,76.1875 49.1445,76.7803 49.8769,76.7803 C50.6094,76.7803 51.2031,76.1875 51.2031,75.4541" id="Shape" fill="#0E2947"></path>
                <path d="M49.7285,74.5518 C49.7285,74.0977 49.3594,73.7295 48.9053,73.7295 C48.4521,73.7295 48.083,74.0977 48.083,74.5518 C48.083,75.0049 48.4521,75.376 48.9053,75.376 C49.3594,75.376 49.7285,75.0049 49.7285,74.5518" id="Shape" fill="#EFF4EE"></path>
                <path d="M28.2353,74.5518 C28.2353,74.0977 27.8681,73.7295 27.4121,73.7295 C26.9599,73.7295 26.5898,74.0977 26.5898,74.5518 C26.5898,75.0049 26.9599,75.376 27.4121,75.376 C27.8681,75.376 28.2353,75.0049 28.2353,74.5518" id="Shape" fill="#EFF4EE"></path>
                <rect id="Rectangle-path" fill="#0E2947" x="17.1611" y="68.3037" width="8.2373" height="4.2119"></rect>
                <rect id="Rectangle-path" fill="#0E2947" x="51.5596" y="68.3037" width="8.2392" height="4.2119"></rect>
                <path d="M47.7627,62.6445 L27.9101,62.6445 L27.9101,57.2949 L47.7627,57.2949 L47.7627,62.6445 Z M29.0527,61.5039 L46.6221,61.5039 L46.6221,58.4375 L29.0527,58.4375 L29.0527,61.5039 Z" id="Shape" fill="#0E2947"></path>
                <path d="M45.2539,56.334 L30.6592,56.334 C30.3437,56.334 30.0869,56.0781 30.0869,55.7637 C30.0869,55.4473 30.3437,55.1924 30.6592,55.1924 L45.2539,55.1924 C45.5703,55.1924 45.8252,55.4473 45.8252,55.7637 C45.8252,56.0781 45.5703,56.334 45.2539,56.334" id="Shape" fill="#25E899"></path>
                <rect id="Rectangle-path" fill="#9393B5" x="44.291" y="62.667" width="6.5664" height="5.3662"></rect>
                <rect id="Rectangle-path" fill="#9393B5" x="41.6279" y="58.4561" width="4.9795" height="3.041"></rect>
                <path d="M65.2217,58.6006 C64.0644,59.9619 63.0527,61.4336 61.9599,62.8457 C60.8545,64.2744 59.1924,65.1592 58.1094,66.6396 C57.5732,67.3633 57.3828,68.1533 57.4365,68.9326 C57.543,68.9678 57.6445,69.0137 57.748,69.0586 C57.7656,69.2148 57.8076,69.3721 57.8887,69.5205 C58.4638,70.6133 59.3281,71.4316 60.3437,72.1123 C60.4912,72.21 60.666,72.292 60.8506,72.3477 C60.9902,72.6523 61.1094,72.9619 61.2012,73.2793 C62.25,73.54 63.3457,73.3701 64.248,72.5449 C64.6816,72.1504 64.7783,71.6475 64.6719,71.1953 C66.5605,69.9062 67.8994,67.9062 69.4668,66.2578 C72.5605,63.0039 75.9472,60.0781 79.1162,56.9072 C79.6982,56.3252 79.5801,55.6152 79.1601,55.1377 C79.1855,55.1123 79.2021,55.082 79.2246,55.0547 C79.2246,55.0596 79.2256,55.0615 79.2256,55.0644 C79.2392,55.0478 79.2461,55.0264 79.2588,55.0098 C79.3037,54.9482 79.3418,54.8848 79.376,54.8164 C79.3926,54.7852 79.4092,54.7559 79.4209,54.7236 C79.4619,54.624 79.4951,54.5234 79.5117,54.415 C79.5312,54.3037 79.5293,54.1934 79.5205,54.0801 C79.5176,54.0508 79.5156,54.0225 79.5078,53.9941 C79.4775,53.7754 79.3984,53.5644 79.2666,53.3828 C79.1982,53.291 79.1201,53.2139 79.0332,53.1426 C79.0254,53.1309 79.0185,53.1221 79.0107,53.1143 C79.0117,53.1162 79.0117,53.1211 79.0117,53.1269 C78.7324,52.8994 78.3769,52.7969 78.0263,52.8232 C78.1269,52.3496 77.958,51.8525 77.5996,51.4746 C77.3125,51.1719 76.9131,51.0381 76.5176,51.0596 C76.4638,50.9394 76.3955,50.8242 76.291,50.7236 C75.5137,49.9629 74.6865,50.1582 74.2148,50.6709 C73.9287,50.6162 73.6123,50.6699 73.293,50.8926 C70.2402,53.0264 67.6308,55.7695 65.2217,58.6006 M74.6933,53.2891 C74.8203,53.2012 74.9209,53.1016 75.0058,52.9951 C75.1211,53.0107 75.2314,53.0156 75.3457,53.0049 C75.4453,53.208 75.5888,53.3877 75.7617,53.5547 C76.0859,53.8643 76.539,53.9521 76.9599,53.8623 C76.8984,54.3467 76.9443,54.7275 77.0957,55.0088 C77.0898,55.0146 77.0859,55.0156 77.0801,55.0205 C75.2978,56.8154 73.417,58.5068 71.5722,60.2344 C71.5137,60.0459 71.4404,59.8564 71.3359,59.6709 C70.8174,58.7598 70.125,58.2295 69.3838,58.0293 C71.0039,56.2607 72.7588,54.6221 74.6933,53.2891" id="Shape" fill="#D6D6EA"></path>
                <path d="M77.0703,50.8789 L79.1797,52.9326 C80.5137,54.2344 80.541,56.3779 79.2392,57.7119 L64.6719,72.6582 C63.3711,73.9912 61.2285,74.0176 59.8945,72.7168 L57.7861,70.6621 C56.4512,69.3623 56.4248,67.2187 57.7236,65.8848 L72.292,50.9394 C73.5898,49.6055 75.7353,49.5762 77.0703,50.8789 Z M60.6914,71.9004 C61.5752,72.7617 62.9941,72.7441 63.8545,71.8603 L78.4219,56.9141 C79.2851,56.0303 79.2666,54.6123 78.3828,53.75 L76.2734,51.6963 C75.3906,50.833 73.9717,50.8506 73.1094,51.7373 L58.542,66.6816 C57.6806,67.5644 57.6992,68.9863 58.582,69.8457 L60.6914,71.9004 Z" id="Shape" fill="#0E2947"></path>
                <path d="M62.206,62.1006 L68.3379,68.0781 C68.5644,68.2978 68.5683,68.6592 68.3476,68.8867 C68.1289,69.1113 67.7676,69.1152 67.541,68.8955 L61.4092,62.9209 C61.1846,62.7002 61.1806,62.3389 61.4004,62.1143 C61.6201,61.8867 61.9814,61.8838 62.206,62.1006" id="Shape" fill="#0E2947"></path>
                <path d="M65.8164,58.4014 L71.9463,64.3769 C72.1719,64.5967 72.1758,64.959 71.957,65.1836 C71.7363,65.4092 71.375,65.415 71.1474,65.1943 L65.0195,59.2187 C64.792,58.9971 64.7861,58.6377 65.0088,58.4102 C65.2285,58.1855 65.5898,58.1826 65.8164,58.4014" id="Shape" fill="#0E2947"></path>
                <path d="M64.875,65.5 L59.2383,71.2812" id="Shape" fill="#25E899"></path>
                <path d="M65.2715,65.0908 C65.498,65.3115 65.5039,65.6728 65.2832,65.8984 L59.6474,71.6797 C59.4267,71.9053 59.0664,71.9102 58.8398,71.6894 C58.6142,71.4697 58.6103,71.1094 58.8291,70.8838 L64.4648,65.1006 C64.6855,64.874 65.0459,64.8721 65.2715,65.0908" id="Shape" fill="#0E2947"></path>
                <path d="M73.8515,53.3838 L69.9316,57.4072 C69.3818,57.9697 69.3945,58.8711 69.957,59.4199 L70.8213,60.2617 C71.3867,60.8115 72.2861,60.8008 72.833,60.2363 L76.7539,56.2148" id="Shape" fill="#EFF4EE"></path>
                <path d="M74.25,52.9766 C74.4746,53.1963 74.4814,53.5566 74.2588,53.7832 L70.3398,57.8057 C70.0127,58.1416 70.0195,58.6816 70.3555,59.0098 L71.2207,59.8525 C71.5556,60.1807 72.0976,60.1748 72.4267,59.8379 L76.3457,55.8184 C76.5664,55.5889 76.9277,55.5859 77.1543,55.8057 C77.3789,56.0264 77.3838,56.3877 77.164,56.6143 L73.2441,60.6357 C72.4746,61.4248 71.2099,61.4375 70.4238,60.6709 L69.5586,59.8271 C68.7695,59.0605 68.7529,57.7939 69.5215,57.0078 L73.4414,52.9893 C73.6601,52.7598 74.0234,52.7568 74.25,52.9766" id="Shape" fill="#0E2947"></path>
                <path d="M76.7539,56.2148 C75.9746,57.0166 74.6894,57.0332 73.8867,56.2519 C73.0869,55.4707 73.0703,54.1855 73.8515,53.3838 C74.6318,52.584 75.916,52.5664 76.7168,53.3467 C77.5195,54.1299 77.5371,55.4141 76.7539,56.2148" id="Shape" fill="#25E899"></path>
                <path d="M77.1172,52.9394 C78.1416,53.9385 78.1631,55.5869 77.164,56.6143 C76.164,57.6387 74.5156,57.6621 73.4892,56.6621 C72.4648,55.6611 72.4404,54.0117 73.4414,52.9893 C74.4414,51.9619 76.0898,51.9404 77.1172,52.9394 M74.2871,55.8428 C74.8613,56.4043 75.7832,56.3916 76.3457,55.8184 C76.9072,55.2402 76.8945,54.3184 76.3193,53.7559 C75.7451,53.1963 74.8203,53.208 74.2588,53.7832 C73.6992,54.3594 73.7109,55.2832 74.2871,55.8428" id="Shape" fill="#0E2947"></path>
                <path d="M8.582,63.4375 C9.6094,67.0156 10.914,70.8291 13.0019,73.9121 C13.5986,74.793 14.8906,75.0762 15.8711,74.8936 C16.9492,74.6934 17.9355,72.9746 18.8769,72.9687 C19.3135,72.9648 19.8701,72.5488 19.9912,72.125 C20.7334,69.5088 19.2724,67.166 18.2168,64.8418 C17.3047,62.8379 16.416,60.8223 15.4961,58.8213 C14.4316,56.5078 12.9726,54.4033 12.1855,51.9687 C12.2431,51.666 12.207,51.3437 12.0586,51.0518 C12.1445,51.2236 12.126,51.1777 12.0058,50.915 C11.9111,50.7383 11.8037,50.5703 11.6826,50.4121 C11.5205,50.1777 11.291,49.9853 11.0732,49.8105 C10.6855,49.4961 10.2334,49.2998 9.7676,49.1338 C8.8721,48.8125 7.7969,48.9766 7.2041,49.7656 C7.1299,49.8652 7.0781,49.9727 7.0351,50.085 C6.2881,49.959 5.5654,50.041 4.9668,50.5566 C4.5908,50.8818 4.3555,51.3418 4.2441,51.8223 C4.2168,51.9414 4.2002,52.0664 4.1943,52.1885 C4.1191,52.3887 4.0859,52.6143 4.1172,52.8691 C4.6191,56.8555 6.5517,60.1543 8.582,63.4375 M14.9375,67.1279 C14.9638,67.1172 14.9883,67.1094 15.0107,67.0967 C15.207,67.5977 15.3672,68.0996 15.4765,68.6094 C15.2646,68.0762 15.0898,67.543 14.9375,67.1279 M6.9238,52.8301 C7.4326,52.8105 7.9092,52.3818 8.0849,51.9277 C8.3847,51.9766 8.6846,51.9268 8.957,51.7812 C8.9922,51.7891 9.0234,51.7978 9.0332,51.8027 C9.1484,51.8535 9.2324,51.9062 9.3086,51.9619 C9.3174,52.0166 9.3222,52.0703 9.3398,52.1279 C9.7763,53.583 10.3779,54.9795 11.041,56.3525 C10.1904,56.6592 9.4355,57.0527 8.4912,57.1006 C8.3994,57.1084 8.3203,57.1289 8.2392,57.1533 C7.6396,55.7764 7.1699,54.3477 6.9238,52.8301" id="Shape" fill="#D6D6EA"></path>
                <path d="M14.0273,66.8184 L17.2265,74.2295" id="Shape" fill="#25E899"></path>
                <path d="M13.8008,66.293 C14.0908,66.168 14.4248,66.3008 14.5527,66.5908 L17.7519,74.0039 C17.876,74.2939 17.7422,74.6289 17.4531,74.7539 C17.1631,74.8789 16.8281,74.7461 16.7021,74.457 L13.5039,67.043 C13.3789,66.7539 13.5117,66.418 13.8008,66.293" id="Shape" fill="#0E2947"></path>
                <path d="M5.8672,47.9072 L8.7431,54.5713" id="Shape" fill="#0E2947"></path>
                <path d="M5.6387,47.3809 C5.9287,47.2559 6.2646,47.3896 6.3906,47.6787 L9.2666,54.3457 C9.3896,54.6328 9.2588,54.9678 8.9687,55.0947 C8.6787,55.2197 8.3437,55.0859 8.2187,54.7959 L5.3418,48.1328 C5.2168,47.8428 5.3515,47.5049 5.6387,47.3809" id="Shape" fill="#0E2947"></path>
                <path d="M5.1553,49.9717 L7.8574,48.8057 C9.5693,48.0674 11.5605,48.8574 12.2988,50.5693 L20.5683,69.7305 C21.3066,71.4414 20.5156,73.4326 18.8027,74.1699 L16.1015,75.3359 C14.3887,76.0752 12.3974,75.2842 11.6592,73.5762 L3.3896,54.4131 C2.6513,52.7021 3.4433,50.71 5.1553,49.9717 Z M18.3515,73.123 C19.4853,72.6348 20.0088,71.3154 19.5205,70.1816 L11.25,51.0195 C10.7617,49.8877 9.4424,49.3643 8.3096,49.8516 L5.6074,51.0195 C4.4726,51.5088 3.9492,52.8271 4.4394,53.9609 L12.709,73.123 C13.1963,74.2559 14.5166,74.7783 15.6484,74.2891 L18.3515,73.123 Z" id="Shape" fill="#0E2947"></path>
                <path d="M6.6611,55.4687 C7.1582,56.6182 8.4902,57.1484 9.6406,56.6504 C10.789,56.1553 11.3203,54.8223 10.8232,53.6728 C10.3281,52.5225 8.9941,51.9941 7.8437,52.4893 C6.6943,52.9844 6.164,54.3203 6.6611,55.4687" id="Shape" fill="#25E899"></path>
                <path d="M7.6172,51.9658 C9.0537,51.3447 10.7285,52.0107 11.3476,53.4463 C11.9668,54.8818 11.3027,56.5547 9.8662,57.1768 C8.4297,57.7949 6.7568,57.1309 6.1387,55.6934 C5.5166,54.2598 6.1816,52.584 7.6172,51.9658 M9.416,56.1289 C10.2734,55.7578 10.6709,54.7568 10.2998,53.8975 C9.9287,53.041 8.9297,52.6416 8.0703,53.0137 C7.2119,53.3838 6.8144,54.3857 7.1836,55.2432 C7.5547,56.1006 8.5547,56.499 9.416,56.1289" id="Shape" fill="#0E2947"></path>
                <path d="M9.8711,67.9902 L17.7305,64.5967 C18.0205,64.4727 18.3555,64.6064 18.4824,64.8936 C18.6064,65.1836 18.4726,65.5195 18.1836,65.6455 L10.3232,69.0361 C10.0332,69.1641 9.6972,69.0283 9.5732,68.7393 C9.4472,68.4492 9.582,68.1143 9.8711,67.9902" id="Shape" fill="#0E2947"></path>
                <path d="M7.8232,63.2432 L15.6836,59.8506 C15.9717,59.7266 16.3086,59.8594 16.4336,60.1484 C16.5576,60.4385 16.4258,60.7734 16.1367,60.9004 L8.2754,64.293 C7.9853,64.417 7.6494,64.2832 7.5254,63.9932 C7.3994,63.7041 7.5332,63.3672 7.8232,63.2432" id="Shape" fill="#0E2947"></path>
                <path d="M4.9375,40.6406 L7.164,45.7978 C7.4746,46.5176 7.1426,47.3555 6.4199,47.667 L5.3115,48.1455 C4.5908,48.4561 3.7529,48.124 3.4414,47.4033 L1.2158,42.2461" id="Shape" fill="#EFF4EE"></path>
                <path d="M0.9883,41.7217 C1.2793,41.5977 1.6152,41.7305 1.7392,42.0195 L3.9658,47.1777 C4.1513,47.6084 4.6543,47.8096 5.0849,47.623 L6.1953,47.1426 C6.626,46.957 6.8262,46.4531 6.6406,46.0234 L4.4131,40.8662 C4.289,40.5762 4.4228,40.2412 4.7129,40.1152 C5.001,39.9902 5.3369,40.125 5.4629,40.4141 L7.6875,45.5703 C8.125,46.5811 7.6582,47.7559 6.6474,48.1914 L5.539,48.6709 C4.5283,49.1055 3.3525,48.6387 2.918,47.6289 L0.6914,42.4717 C0.5654,42.1846 0.6992,41.8477 0.9883,41.7217" id="Shape" fill="#0E2947"></path>
                <path d="M1.2168,42.2461 C1.6611,43.2744 2.8515,43.748 3.8808,43.3057 C4.9072,42.8613 5.3818,41.6689 4.9375,40.6406 C4.4951,39.6123 3.3017,39.1396 2.2744,39.582 C1.2451,40.0264 0.7724,41.2168 1.2168,42.2461" id="Shape" fill="#25E899"></path>
                <path d="M2.0469,39.0586 C3.3633,38.4893 4.8945,39.0996 5.4629,40.415 C6.0303,41.7295 5.4209,43.2607 4.1055,43.8281 C2.79,44.3965 1.2588,43.7891 0.6914,42.4727 C0.123,41.1582 0.7324,39.6269 2.0469,39.0586 M3.6543,42.7803 C4.3916,42.4629 4.7324,41.6045 4.4131,40.8662 C4.0957,40.1279 3.2373,39.7881 2.5,40.1055 C1.7627,40.4258 1.4219,41.2822 1.7392,42.0195 C2.0586,42.7578 2.916,43.0977 3.6543,42.7803" id="Shape" fill="#0E2947"></path>
                <g transform="translate(45.000000, 0.000000)" id="Shape">
                    <path d="M34.3574,60.5 L32.6592,61.3857 C31.9609,61.749 31.0879,61.4736 30.7246,60.7725 L23.334,46.582 C22.9697,45.8809 23.2422,45.0088 23.9453,44.6455 L25.6426,43.7607 C26.3388,43.3975 27.2129,43.6719 27.5771,44.3721 L34.9658,58.5644 C35.3301,59.2646 35.0566,60.1357 34.3574,60.5" fill="#BEC5CE"></path>
                    <path d="M34.5185,60.8086 L32.8203,61.6924 C31.9482,62.1475 30.8691,61.8057 30.416,60.9355 L23.0263,46.7422 C22.5732,45.8682 22.9121,44.791 23.7822,44.3359 L25.4785,43.4521 C26.3545,42.9971 27.4326,43.3379 27.8867,44.2109 L35.2773,58.4033 C35.7314,59.2764 35.3906,60.3555 34.5185,60.8086 Z M24.1055,44.9541 C23.5742,45.2305 23.3672,45.8867 23.6426,46.4189 L31.0332,60.6123 C31.3105,61.1445 31.9668,61.3525 32.501,61.0762 L34.1963,60.1934 C34.7305,59.9141 34.9346,59.2568 34.6582,58.7256 L27.2705,44.5332 C26.9912,44.001 26.3349,43.792 25.8027,44.0693 L24.1055,44.9541 Z" fill="#0E2947"></path>
                    <path d="M26.5019,44.8496 L24.2646,46.0166 C23.5976,46.3633 22.7656,46.1016 22.416,45.4336 C22.0703,44.7646 22.331,43.9326 23,43.585 L25.2373,42.4199 C25.9043,42.0723 26.7363,42.335 27.084,43.0039 C27.4326,43.6709 27.1709,44.5019 26.5019,44.8496" fill="#BEC5CE"></path>
                    <path d="M26.6611,45.1592 L24.4267,46.3252 C23.5859,46.7617 22.5459,46.4336 22.1084,45.5928 C21.6699,44.7539 21.9971,43.7139 22.8379,43.2773 L25.0781,42.1123 C25.915,41.6738 26.9551,42.0029 27.3926,42.8428 C27.8291,43.6816 27.5029,44.7236 26.6611,45.1592 Z M23.1601,43.8936 C22.6601,44.1553 22.4668,44.7734 22.7265,45.2734 C22.9863,45.7715 23.6045,45.9668 24.1035,45.708 L26.3408,44.542 C26.8408,44.2812 27.0361,43.6641 26.7763,43.1641 C26.5156,42.6641 25.8965,42.4687 25.3984,42.7305 L23.1601,43.8936 Z" fill="#0E2947"></path>
                    <path d="M25.3076,44.7852 L24.9346,44.9795 C24.0928,45.417 23.0566,45.0898 22.6172,44.25 C22.1797,43.4102 22.5088,42.3691 23.3486,41.9336 L23.7207,41.7393 C24.5605,41.3008 25.6006,41.6289 26.0381,42.4678 C26.4746,43.3096 26.1465,44.3486 25.3076,44.7852 Z M23.6709,42.5498 C23.1689,42.8115 22.9756,43.4297 23.2353,43.9287 C23.4961,44.4297 24.1142,44.6221 24.6123,44.3633 L24.9863,44.1689 C25.4853,43.9102 25.6816,43.291 25.4209,42.791 C25.1601,42.291 24.543,42.0957 24.043,42.3555 L23.6709,42.5498 Z" fill="#0E2947"></path>
                    <path d="M31.0547,59.0518 C30.7031,59.2363 30.2676,59.0986 30.0849,58.748 L24.8828,48.7578 C24.7002,48.4072 24.8379,47.9717 25.1894,47.7891 C25.539,47.6064 25.9726,47.7432 26.1572,48.0928 L31.3584,58.085 C31.54,58.4355 31.4023,58.8711 31.0547,59.0518" fill="#BEC5CE"></path>
                    <path d="M31.2148,59.3603 C30.6933,59.6318 30.0488,59.4307 29.7763,58.9082 L24.5752,48.918 C24.3037,48.3984 24.5058,47.7549 25.0293,47.4814 C25.5488,47.21 26.1924,47.4131 26.4658,47.9346 L31.667,57.9248 C31.9394,58.4453 31.7344,59.0908 31.2148,59.3603 Z M25.3476,48.0986 C25.168,48.1914 25.0976,48.416 25.1914,48.5967 L30.3926,58.5859 C30.4873,58.7686 30.7109,58.8379 30.8926,58.7451 C31.0732,58.6504 31.1435,58.4258 31.0508,58.2471 L25.8476,48.2559 C25.7529,48.0742 25.5303,48.0039 25.3476,48.0986 Z" fill="#0E2947"></path>
                    <path d="M24.7617,44.2852 C23.8281,44.7725 22.666,44.4043 22.1806,43.4736 L1.0527,2.8945 C0.5674,1.9609 0.9326,0.8008 1.8662,0.3144 C2.7988,-0.1719 3.9609,0.1934 4.4482,1.1269 L25.5742,41.7061 C26.0615,42.6377 25.6953,43.7998 24.7617,44.2852" fill="#0FCE7C"></path>
                    <polygon fill="url(#linearGradient-1)" points="23.2148 43.6709 1.5664 2.0879 3.4531 1.1055 25.1045 42.6865"></polygon>
                </g>
            </g>
        </g>
    </g>
</svg>