<svg xmlns="http://www.w3.org/2000/svg" xmlns:xlink="http://www.w3.org/1999/xlink" viewBox="0 0 407 470.1" enable-background="new 0 0 407 470.1"><style>.st1{fill:#0e2947}.st2{fill:#dde6f1}.st3{fill:#ccd4e0}.st5{fill:#d6d6ea}.st28{fill:#9393b5}.st31{fill:#474141}</style><g id="Layer_5"><defs><path id="SVGID_1_" d="M0 117.5v235L203.5 470 407 352.5v-235L203.5 0z"/></defs><clipPath id="SVGID_2_"><use xlink:href="#SVGID_1_" overflow="visible"/></clipPath><g clip-path="url(#SVGID_2_)"><path class="st1" d="M0 24h514v419H0z"/><path class="st2" d="M0 410.9c28.1-6.4 13.1-12.9 38.6-9.2s3.8 5.2 51.8 2.4c48-2.8 40.1 15.3 60.6 4.7s84.2-16.3 108.6-4.8c0 0 16.1 7.4 41.8 5.5 25.7-1.9 21.6-17.3 38.5-20.3s60.4-10.5 78.8-6 15.4-8.3 37.5-6.8 12.8 19.5 36 14.4c0 0 10.5-12.9 21.8-12.9V446H0v-35.1"/><path class="st2" d="M0 410.9c28.1-6.4 13.1-12.9 38.6-9.2s3.8 5.2 51.8 2.4c48-2.8 40.1 15.3 60.6 4.7s84.2-16.3 108.6-4.8c0 0 16.1 7.4 41.8 5.5 25.7-1.9 21.6-17.3 38.5-20.3s60.4-10.5 78.8-6 15.4-8.3 37.5-6.8 12.8 19.5 36 14.4c0 0 10.5-12.9 21.8-12.9V446H0v-35.1"/><path class="st3" d="M75.7 416.6c17 6 33 3 49 10 9 3 21 5 30 7 23 6 36-23 55-30 8-3 17-3 25 0 20 7 40 9 61 13 8 1 5 15 10 23 14-9 38-7 42-28 2-12 13-20 23-23 24-10 51-3 77 4 10.8 2.6 18.4-1.5 25.2-7.3-3.1-3.8-6.6-8.1-16.8-8.7-22.1-1.5-19.1 11.3-37.5 6.8s-61.9 3-78.8 6-12.8 18.4-38.5 20.3c-25.7 1.9-41.8-5.5-41.8-5.5-24.4-11.5-88-5.7-108.6 4.8-20.5 10.5-12.6-7.5-60.6-4.7s-26.3 1.4-51.8-2.4-10.5 2.8-38.6 9.2v7.2c13.9-2.7 28-4.8 41.7-8.3 10.1-3.4 23.1 2.6 34.1 6.6z"/><path d="M594.2 316.8c0 .5-.1.9-.2 1.4" fill="none" stroke="#25e899" stroke-width="4.5" stroke-linejoin="round" stroke-miterlimit="10"/><path class="st5" d="M205.8 86.2c-1.4-.3-2.8-.7-4.2-1.4-.1 0-.2.1-.2.1 0-.1-.1-.2-.1-.3-2.1-1.1-3.9-2.6-5-4.5-.3-.5-.5-.9-.8-1.4-2.6-3.5-5.8-6.1-9.7-7.3l-.1-.1c-1.4-1-2.9-.7-3.9.2C169 70 157 75.1 152.3 85.9c-2.1 3.4-3.5 7.2-5.5 10.7-.2.4-.3.9-.4 1.3-.1 0-.3.1-.4.1-1.1.3-2 1.3-2.2 2.4-.1.4-.2.9-.3 1.3-.3 1.4.4 2.4 1.4 3.1.7 2.3 1.4 4.6 2 7 .7 3.2 4.8 3.2 6.1 1.2 1.8 3.1 4.4 5.7 7.9 6.6 1.4.4 2.6-.2 3.3-1.1 1.5.2 3-.6 3.5-2.1.6-1.7-.2-3.6-1.9-4.2-.8-.3-1.6-.5-2.5-.5-3.7-3.5-5.6-8.3-6.9-13.2.3-.5.4-1 .4-1.7-.1-2.4.1-4.5.6-6.4 1.4-2.3 3.1-4.5 5.6-6.3.4.3.8.5 1.3.5 1 .9 2.5 1.2 3.6.5 2.1-1.2 4.2-2.4 6.6-2.9.6-.1 1.1-.4 1.6-.9 2.3-.1 4.3-.5 6.3-1.4 1.6.4 3.3.7 4.9.8.5 0 .9 0 1.4-.1 1 1 1.8 2.1 2.6 3.3-.3.8-.3 1.8.3 2.7 1.7 2.3 2.1 4.9 3.2 7.5.1.3.3.6.6.8.1.4.2.8.2 1.2 0 2.6 0 5-2.6 6.3-3.8 1.9-1.3 8.1 2.4 6.1.5-.2.9-.5 1.3-.7 1.6 1.8 5.6.9 5.9-2.4.1-1.1.1-2.3.1-3.5.5 0 1-.2 1.5-.5 1.3-.8 2.9-1.4 3.8-2.8.9-1.4.9-3.1.8-4.7-.2-2.6-1-5.4-2.1-7.8-.3.2-.6.2-.9.1"/><defs><filter id="Adobe_OpacityMaskFilter" filterUnits="userSpaceOnUse" x="156.8" y="107.9" width="48.1" height="37.9"><feColorMatrix values="1 0 0 0 0 0 1 0 0 0 0 0 1 0 0 0 0 0 1 0"/></filter></defs><mask maskUnits="userSpaceOnUse" x="156.8" y="107.9" width="48.1" height="37.9" id="a_11_"><path d="M-203.7 365.2L848 103.3 702.6-480.8-349.2-219l145.5 584.2z" fill="#fff" filter="url(#Adobe_OpacityMaskFilter)"/></mask><path d="M203.9 137.4l-33.5 8.3c-.7.2-1.5-.3-1.6-1-.2-.7.3-1.5 1-1.6l33.5-8.3c.7-.1 1.4.3 1.6 1.1.1.6-.3 1.3-1 1.5m-47.1-19l42.2-10.5 3.9.5-.3 10.3-40.4 10.1-5.4-10.4z" mask="url(#a_11_)" fill="#25e899"/><defs><filter id="Adobe_OpacityMaskFilter_1_" filterUnits="userSpaceOnUse" x="162.2" y="118.6" width="42.1" height="20.7"><feColorMatrix values="1 0 0 0 0 0 1 0 0 0 0 0 1 0 0 0 0 0 1 0"/></filter></defs><mask maskUnits="userSpaceOnUse" x="162.2" y="118.6" width="42.1" height="20.7" id="a_10_"><path d="M-203.7 365.2L848 103.3 702.6-480.8-349.2-219l145.5 584.2z" fill="#fff" filter="url(#Adobe_OpacityMaskFilter_1_)"/></mask><path d="M199.8 131.9l-29 7.2c-3.1.8-6.3-1.1-7.1-4.3l-1.5-6.2 40.4-10.1 1.5 6.2c.8 3.3-1.2 6.5-4.3 7.2" mask="url(#a_10_)" fill="#d6d6ea"/><defs><filter id="Adobe_OpacityMaskFilter_2_" filterUnits="userSpaceOnUse" x="160.5" y="117" width="45.1" height="23.7"><feColorMatrix values="1 0 0 0 0 0 1 0 0 0 0 0 1 0 0 0 0 0 1 0"/></filter></defs><mask maskUnits="userSpaceOnUse" x="160.5" y="117" width="45.1" height="23.7" id="a_9_"><path d="M-203.7 365.2L848 103.3 702.6-480.8-349.2-219l145.5 584.2z" fill="#fff" filter="url(#Adobe_OpacityMaskFilter_2_)"/></mask><path d="M163.8 129.7l1.2 4.9c.6 2.4 3.1 3.9 5.5 3.3l29-7.2c2.4-.6 3.9-3.1 3.3-5.5l-1.2-4.9-37.8 9.4zm36.3 3.6l-29 7.2c-3.9 1-7.8-1.4-8.8-5.3l-1.9-7.5 43-10.7 1.9 7.5c1.1 3.9-1.3 7.8-5.2 8.8z" mask="url(#a_9_)" fill="#0e2947"/><defs><filter id="Adobe_OpacityMaskFilter_3_" filterUnits="userSpaceOnUse" x="156.8" y="80.2" width="37.1" height="34.4"><feColorMatrix values="1 0 0 0 0 0 1 0 0 0 0 0 1 0 0 0 0 0 1 0"/></filter></defs><mask maskUnits="userSpaceOnUse" x="156.8" y="80.2" width="37.1" height="34.4" id="a_8_"><path d="M-203.7 365.2L848 103.3 702.6-480.8-349.2-219l145.5 584.2z" fill="#fff" filter="url(#Adobe_OpacityMaskFilter_3_)"/></mask><path d="M172.2 114.6c-7-1.2-13-6.4-14.9-13.8-1.1-4.3-.5-8.7 1.3-12.5 2.3-4.8 23-10.2 27.2-7.3 3.7 2.6 6.4 6.4 7.5 10.8 1.8 7.4-1 14.8-6.7 19.1" mask="url(#a_8_)" fill="#0fce7c"/><defs><filter id="Adobe_OpacityMaskFilter_4_" filterUnits="userSpaceOnUse" x="154.3" y="79.6" width="41.5" height="36.6"><feColorMatrix values="1 0 0 0 0 0 1 0 0 0 0 0 1 0 0 0 0 0 1 0"/></filter></defs><mask maskUnits="userSpaceOnUse" x="154.3" y="79.6" width="41.5" height="36.6" id="a_7_"><path d="M-203.7 365.2L848 103.3 702.6-480.8-349.2-219l145.5 584.2z" fill="#fff" filter="url(#Adobe_OpacityMaskFilter_4_)"/></mask><path d="M171.4 116.1c-.2 0-.4.1-.6 0-7.8-1.7-13.9-7.5-15.8-15.3-1-3.9-.8-7.9.5-11.6.2-.7 1-1.1 1.7-.8.7.2 1.1 1 .8 1.7-1.1 3.3-1.2 6.8-.4 10.1 1.7 6.7 7 11.8 13.8 13.3.7.2 1.2.9 1 1.6-.1.5-.5.9-1 1m16.6-4.2c-.7.2-1.5-.3-1.6-1-.1-.5 0-1 .4-1.4 5.2-4.5 7.4-11.4 5.8-18.1-.9-3.8-3-7-6-9.5-.6-.5-.7-1.3-.2-1.9.5-.6 1.3-.7 1.9-.2 3.4 2.8 5.8 6.6 6.9 10.9 1.9 7.7-.6 15.6-6.6 20.8-.2.3-.4.4-.6.4" mask="url(#a_7_)" fill="#0e2947"/><defs><filter id="Adobe_OpacityMaskFilter_5_" filterUnits="userSpaceOnUse" x="146.9" y="68.7" width="58.1" height="61.5"><feColorMatrix values="1 0 0 0 0 0 1 0 0 0 0 0 1 0 0 0 0 0 1 0"/></filter></defs><mask maskUnits="userSpaceOnUse" x="146.9" y="68.7" width="58.1" height="61.5" id="a_6_"><path d="M-203.7 365.2L848 103.3 702.6-480.8-349.2-219l145.5 584.2z" fill="#fff" filter="url(#Adobe_OpacityMaskFilter_5_)"/></mask><path d="M162.7 127.1l38.3-9.5.1-26.4c-3.6-13.9-17.8-22.4-31.8-18.9s-22.6 17.7-19.2 31.6l12.6 23.2zm42.3-7.4l-43.5 10.6-13.7-25.4v-.2c-3.9-15.5 5.6-31.2 21.1-35.1 15.5-3.9 31.3 5.6 35.1 21.1v.2l1 .2v28.6z" mask="url(#a_6_)" fill="#0e2947"/><defs><filter id="Adobe_OpacityMaskFilter_6_" filterUnits="userSpaceOnUse" x="141.3" y="56.6" width="62.7" height="48.7"><feColorMatrix values="1 0 0 0 0 0 1 0 0 0 0 0 1 0 0 0 0 0 1 0"/></filter></defs><mask maskUnits="userSpaceOnUse" x="141.3" y="56.6" width="62.7" height="48.7" id="a_5_"><path d="M-203.7 365.2L848 103.3 702.6-480.8-349.2-219l145.5 584.2z" fill="#fff" filter="url(#Adobe_OpacityMaskFilter_6_)"/></mask><path d="M149.3 105.3c-.7.2-1.5-.3-1.6-1l-6.3-25.5c-.2-.7.3-1.5 1-1.6.7-.2 1.5.3 1.6 1l6.3 25.5c.2.7-.3 1.4-1 1.6m53.6-13.4c-.7.2-1.5-.3-1.6-1l-8.1-32.7c-.2-.7.3-1.5 1-1.6.7-.2 1.5.3 1.6 1l8.1 32.7c.2.7-.3 1.4-1 1.6" mask="url(#a_5_)" fill="#0e2947"/><defs><filter id="Adobe_OpacityMaskFilter_7_" filterUnits="userSpaceOnUse" x="142" y="81.9" width="68.7" height="35.1"><feColorMatrix values="1 0 0 0 0 0 1 0 0 0 0 0 1 0 0 0 0 0 1 0"/></filter></defs><mask maskUnits="userSpaceOnUse" x="142" y="81.9" width="68.7" height="35.1" id="a_4_"><path d="M-203.7 365.2L848 103.3 702.6-480.8-349.2-219l145.5 584.2z" fill="#fff" filter="url(#Adobe_OpacityMaskFilter_7_)"/></mask><path d="M154.2 116.2l-2.8.7c-3 .7-6-1.1-6.7-4l-2.6-10.3c-.7-3 1.1-6 4-6.7l1.2-.3c.7-.2 1.5.3 1.6 1 .2.7-.3 1.5-1 1.6l-1.2.3c-1.5.4-2.5 1.9-2.1 3.4l2.6 10.3c.4 1.5 1.9 2.4 3.4 2.1l2.8-.7c.7-.1 1.4.3 1.6 1.1.3.6-.1 1.3-.8 1.5m52.3-13l-2.8.7c-.7.2-1.5-.3-1.6-1-.2-.7.3-1.5 1-1.6l2.8-.7c1.5-.4 2.4-1.9 2.1-3.4l-2.6-10.3c-.4-1.5-1.9-2.4-3.4-2.1l-1.2.3c-.7.2-1.5-.3-1.6-1-.2-.7.3-1.5 1-1.6l1.2-.3c3-.7 6 1.1 6.7 4l2.6 10.3c.6 2.9-1.2 5.9-4.2 6.7" mask="url(#a_4_)" fill="#0e2947"/><defs><filter id="Adobe_OpacityMaskFilter_8_" filterUnits="userSpaceOnUse" x="146.9" y="79.2" width="57" height="40.5"><feColorMatrix values="1 0 0 0 0 0 1 0 0 0 0 0 1 0 0 0 0 0 1 0"/></filter></defs><mask maskUnits="userSpaceOnUse" x="146.9" y="79.2" width="57" height="40.5" id="a_3_"><path d="M-203.7 365.2L848 103.3 702.6-480.8-349.2-219l145.5 584.2z" fill="#fff" filter="url(#Adobe_OpacityMaskFilter_8_)"/></mask><path d="M148.6 101.1c-.3.1-.7 0-1-.1-.6-.4-.9-1.2-.5-1.8 5.5-9.5 14.4-16.1 24.9-18.7 9.9-2.5 20.3-1.1 29.3 4 .6.4.8 1.2.5 1.9-.4.6-1.1.8-1.8.5-8.4-4.7-18.1-6-27.4-3.7-9.8 2.4-18.1 8.7-23.3 17.5-.1.1-.4.3-.7.4m54.2 7.2l-45.7 11.4c-.7.2-1.4-.3-1.6-1-.2-.7.3-1.4 1-1.6l45.7-11.4c.7-.2 1.5.3 1.6 1 .2.7-.2 1.4-1 1.6" mask="url(#a_3_)" fill="#0e2947"/><defs><filter id="Adobe_OpacityMaskFilter_9_" filterUnits="userSpaceOnUse" x="173.9" y="84.3" width="14.7" height="12.3"><feColorMatrix values="1 0 0 0 0 0 1 0 0 0 0 0 1 0 0 0 0 0 1 0"/></filter></defs><mask maskUnits="userSpaceOnUse" x="173.9" y="84.3" width="14.7" height="12.3" id="a_2_"><path d="M-203.7 365.2L848 103.3 702.6-480.8-349.2-219l145.5 584.2z" fill="#fff" filter="url(#Adobe_OpacityMaskFilter_9_)"/></mask><path d="M183.4 87.9c.6 2.6-.9 5.2-3.5 5.9-2.6.6-5.2-.9-5.9-3.5-.6-2.6.9-5.2 3.5-5.9 2.7-.6 5.3 1 5.9 3.5m5.1 6.2c.3 1-.4 2.1-1.4 2.4-1 .3-2.1-.4-2.4-1.4-.3-1 .4-2.1 1.4-2.4 1.1-.3 2.2.4 2.4 1.4" mask="url(#a_2_)" fill="#fff"/><defs><filter id="Adobe_OpacityMaskFilter_10_" filterUnits="userSpaceOnUse" x="163" y="112.1" width="36" height="12.1"><feColorMatrix values="1 0 0 0 0 0 1 0 0 0 0 0 1 0 0 0 0 0 1 0"/></filter></defs><mask maskUnits="userSpaceOnUse" x="163" y="112.1" width="36" height="12.1" id="a_1_"><path d="M-203.7 365.2L848 103.3 702.6-480.8-349.2-219l145.5 584.2z" fill="#fff" filter="url(#Adobe_OpacityMaskFilter_10_)"/></mask><path d="M198 117.2c-1.9.5-3.1-.7-4-1.5-.8-.7-1.1-1-1.5-.9-.4.1-.6.4-.9 1.5-.4 1.1-1 2.7-2.8 3.2-1.9.5-3.1-.7-4-1.5-.8-.7-1.1-1-1.5-.9-.4.1-.6.4-.9 1.5-.4 1.1-1 2.7-2.8 3.2-1.9.5-3.1-.7-4-1.5-.8-.7-1.1-1-1.5-.9-.4.1-.6.4-.9 1.5-.4 1.1-1 2.7-2.8 3.2-1.9.5-3.1-.7-4-1.5-.8-.7-1.1-1-1.5-.9-.7.2-1.5-.3-1.6-1-.2-.7.3-1.5 1-1.6 1.9-.5 3.1.7 4 1.5.8.7 1.1 1 1.5.9.4-.1.6-.4.9-1.5.4-1.1 1-2.7 2.8-3.2 1.9-.5 3.1.7 4 1.5.8.7 1.1.9 1.5.9.4-.1.6-.4.9-1.5.4-1.1 1-2.7 2.8-3.2 1.9-.5 3.1.7 4 1.5.8.7 1.1.9 1.5.9.4-.1.6-.4.9-1.5.4-1.1 1-2.7 2.8-3.2 1.9-.5 3.1.7 4 1.5.8.7 1.1 1 1.5.9.7-.2 1.5.2 1.7.9.1.7-.3 1.5-1.1 1.7" mask="url(#a_1_)" fill="#0e2947"/><path class="st1" d="M209.5 292.2s-.6 9.2-5.6 20.1c-.4.8-.8 1.4-1.3 2-.9 1.2-2.1 2-3.4 2.6-1.7.8-3.7 1.1-5.6.9-4.2-.3-8.6-2.5-11-5.6-.2-.2-.3-.4-.4-.6-.3-.4-.5-.8-.7-1.2-.6-1.2-.9-2.5-.9-3.9 0-2.2.1-4 .2-5.6.5-6 2.3-8.9 6.5-14.2l22.2 4.8v.7zM112.7 263.9c7.3-6.8 17.1-10.9 17.1-10.9l15.8 10.5c-.3 5.6-7.6 12.2-14.3 15.7 1.4-1 2.7-2.4 4.1-4.1 6.1-7.9-8.3-15.3-13-15.9l-9.7 4.7z"/><path class="st2" d="M334.9 326l-90.2-.7c-8.8 25.2-32.6 20.6-44.3 16.6-4.1-4.1-4.3-14.5 3-23.4s15.2.6 24-1.7c8.8-2.2 12.8 0 12.8 0 7.5-9.7 23.4-11.5 23.4-11.5 8.8-6 16.7-1.5 33 0s17.6 9.6 17.6 9.6c5.8-5.1 21.1 1.6 20.7 11.1z"/><path class="st3" d="M230 325.7c9.8-6.8 19.5-8.7 30-11 13.5-3 4.9-5.3 19.1-9 2-.7 23.8 2.7 24.5.6-2-.6-4.3-1-7-1.2-16.3-1.5-24.2-6-33 0 0 0-15.9 1.7-23.4 11.5 0 0-3.9-2.2-12.8 0-8.8 2.2-16.7-7.2-24 1.7-3.8 4.5-5.5 9.5-5.8 13.8.2 0 .3.2.4.1 11.7-14.7 22.3.3 32-6.5z"/><path class="st5" d="M366.5 325.3s-7.4 19-47.5 29.8l-76.7 1h-10.6s-8.3 2.1-18.8-2.1c-2.9-1.2-6-2.8-9.2-5.2-.3-.2-.7-.5-1-.8-.7-.6-1.4-1.2-2.2-1.8-2.4-2.1-4.8-4.6-7.2-7.7.2.1 2.3 1.2 5.8 2.4.4.1.7.3 1.1.4 12.2 4.2 36.9 8.9 46.1-17.3l89.2 1 31 .3z"/><g><path class="st28" d="M230.4 355s-8 2-18.1-2c.1 10.7-1.5 33.2-1.5 33.2-3.9 6 1 8.8 1 8.8 1.9 10.1-2 33.9-2 33.9 4.6 1.6 14.3-15.3 20.1-16.6 5.9-1.4 8 5.1 8 5.1s2.6-16.6 4.1-27V371l-.5-15.9-11.1-.1z"/><path class="st28" d="M200 351.8l.8-3.5-.6-6.8c.3.1.7.3 1.1.4-4.1-4.1-4.3-14.5 3-23.4s15.2.6 24-1.7c8.8-2.2 12.8 0 12.8 0 2.1-9.3 9.8-38.4 12.8-49.8-5.3.8-20.5 3-35.1 3l-1.4 3.8c-4.5 12.9-6.9 18.9-6.9 18.9s-.6 9.2-5.6 20.1c-.4.8-.8 1.4-1.3 2-.8 1.7-1.7 2.3-3.4 2.6-1.7.8-3.7 1.1-5.6.9-4.2-.3-8.6-2.5-11-5.6l-.2-.2-.3-.5-.7-1.2-1.6-2.8c-.4-1.8-.4-4.1.9-6.8.5-6 2.3-8.9 6.5-13.5 0 0 .5-2 1.2-5.2-8.3 4.6-17.5 5.8-19.9 6.1l-.3-.5h-.3c.2.1.2.2.2.5 0 .8 0 2.3-.1 4.5-.1 11-.3 37.4 1 47.6 1.7 13.1 11 48.6 11 53.4 0 0-2.3.9-5.8 4.1-3.6 3.3-.8 4 2.8 6.6 3.6 2.6 4 8.6 3 16.5-1.1 8.5-17.4 8.4-17.2 13.9v3.2c-.2 0 3.6-3.1 11.4-3.9 3.8-.4 1.7.2 10-2.4 8.3-2.5 8.5 1.9 12.4-1.4 3.9-3.2 0-10.2 5.5-9.4 3.9.6 5.6 1.4 5.6 1.4l1.5-20.8s-.9-18.5-3-25.7c-1.9-6.9-5.2-16.9-7.2-24.4z"/></g><path d="M255.8 224.3c-3.6-19.7-12-38.4-13.5-49.5-1-7.6-2.9-20-10-30.6v-.1c-3.1-4.6-7.2-8.8-12.7-12.1-.1-.1-.3-.2-.4-.2.1.1.2.1.4.2.8-1.3 1.5-4.6-.7-10.6-4.7-13.1-13.2-14.9-13.2-14.9-.8 9.3 4.6 3.6-3.1 14.6S174 139.4 174 139.4c-15-2.1-13.7-13.7-13.7-13.7s-9.8 7.5-14.4 18.6c0 0 1.1 36 5.8 58.3 0 0-16.9 38.3-20.1 49.9l15.8 10.5s8.5-7.5 12.9-17.4c2.3-5.2 2.6-9.4 2.4-11.9 1.8 8.3 6.2 27.6 10.2 34.8 0 0 1.6 9-3.8 19-.1.2-.2.4-.3.5h.6c2.4-.2 11.7-1.4 19.9-6.1-.7 3.2-1.2 5.2-1.2 5.2.5 0 1.1.1 1.7.2 6.9.9 19 4.2 20.5 4.6h.2s2.3-6 6.9-18.9l7.7-22.4c-2.1 6.4-4.3 12.8-6.3 18.5 14.6 0 29.8-2.2 35.1-3 1.3-.2 2-.3 2-.3s3.5-21.8-.1-41.5zM162 230c.1.3.2.5.2.7 0 0 .4 1 .5 2.8-.3-1.7-.6-3-.7-3.5z" fill="#25e899"/><path class="st1" d="M367 324.7c-.3-.4-.7-.7-1.2-.7l-30.1-.2c.4-4.3-1.9-8.2-6.4-10.8-4.3-2.4-10.5-3.4-14.8-1-1.5-2.8-5.9-7.6-18.2-8.7-4.7-.4-8.8-1.1-12.3-1.7-8.5-1.5-14.7-2.5-21.3 1.8-2.2.3-12.6 1.9-20.2 8 3.6-14.4 11.2-42.2 11.5-43.6.5-.1.8-.1.8-.1.6-.1 1.1-.6 1.2-1.2.1-.9 3.6-22.2 0-41.9-1.9-10.7-5.2-20.9-8.2-30-2.5-7.7-4.6-14.4-5.3-19.3-1-7.4-2.8-20.4-10.5-31.5-3.6-5.8-9-9.8-11.9-11.6.5-2.1.1-5.3-1.1-10.3-2.4-10-7.8-14.4-12.8-16.3l-2.2.4v3c.7 1.1.6 2.8 0 4.8-.7 2-1.9 4.4-3.8 7.1-6.7 9.7-25.9 15.8-29 16.8-3.6-1.2-5.9-3-7.5-4.9-2.6-3.2-3-6.4-3-6.7 0-.5-.4-1-.9-1.3-.5-.2-1.1-.1-1.5.2-.4.3-10.1 7.9-14.9 19.1-.1.2-.1.4-.1.6 0 .4 1.2 35.8 5.7 58-1.9 4.4-16.2 37-19.7 48.8-2 .7-7.5 2.8-12.4 6.2-.6.4-1.3.9-1.9 1.4h-.1l-12.1-7.6c-.7-.4-1.6-.2-2.1.5-.4.7-.2 1.6.5 2.1l11.4 7.2c-.9.9-1.8 1.9-2.5 3-.1.2-.3.4-.4.7-1.7 2.7-1.9 5.6-.7 8.4.9 1.9 2.4 3.6 4.1 5.1l.2.2c1 .8 2.1 1.5 3.2 2.2l.1.1s.2.1.5.3c2 1.1 4 1.8 5.3 2 .4.1.9.1 1.4.1h.8c.5 0 .9.1 1.4.1 1.5 0 3.1-.2 4.6-.8 1.7-.6 3.1-1.6 4.4-2.8l.4-.4c1-.6 1.9-1.2 2.9-1.9l.1.1 29.3 17c-.1 1-.2 2.8-.3 5.1-.6 10.3-1.5 31-.2 40.8.9 6.7 3.8 19.5 6.4 30.7 2 9 4.2 18.2 4.6 21.6-1.1.6-2.9 1.8-5.3 3.9-1.1 1-2.3 2.3-2.1 3.9.1 1.7 1.7 2.8 3.5 4 .5.3 1 .7 1.6 1.1 2.7 1.9 3.4 6.7 2.4 15.1-.5 3.8-5 5.6-9.4 7.3-4.1 1.6-8 3.2-8 6.7v3s.1 1.1.6 1.3c.2.1.4.2.7.2.3 0 .7-.1.9-.3 0 0 3.6-2.8 10.8-3.6.6-.1 1-.1 1.4-.1 1.8-.1 1.9-.2 6.5-1.6l2.4-.7c3.8-1.2 5.6-.7 7.1-.4 1.6.4 3.3.8 5.8-1.3 2.2-1.9 2.4-4.6 2.6-6.6.1-.9.2-2.2.5-2.4.1-.1.5-.2 1.2-.1 3.6.5 5.2 1.2 5.2 1.3.4.2 1 .2 1.4-.1.3-.2.5-.4.6-.7-.5 3.5-.8 5.9-.8 5.9-.1.7.3 1.4 1 1.7.4.1.8.2 1.2.2 3.2 0 6.7-4 10.8-8.6 3.2-3.6 6.7-7.6 9-8.1 4.4-1 6.1 3.6 6.2 4.1.2.7.9 1.1 1.5 1 .7-.1 1.3-.6 1.4-1.3 0-.2 2.6-16.7 4.1-27 0-.1 0-.1-.1-.2V357h75.2c40.8-10.9 48.7-30.1 49-30.9.2-.5.2-1-.1-1.4zM239.4 175c.7 5.3 2.9 12 5.4 19.9 2.9 9 6.2 19.2 8.1 29.7 3 16.8.8 35.3.1 39.9-4 .7-19 2.9-33.7 3.1 6.6-18.9 14.6-43.4 15.5-53.6 1.2-13.8.1-46.1-.5-59.9 3.3 7.8 4.4 15.7 5.1 20.9zm-37-52.9c.5-.8 1-1.5 1.5-2.2 2.8-4.6 3.9-8.5 3.2-11.4 3.6 2 7.2 5.9 9 13.3 1.1 4.6 1.3 7 1.2 8.2h-.1-.1-.1s-.1 0-.1.1c0 0-.1 0-.1.1 0 0-.1 0-.1.1l-.1.1-.1.1-.1.1-.1.1-.1.1v.1c0 .1-.1.1-.1.2v.2c-.7-.2-1.7-.5-2.3-.7-2.4-.9-5.1-1.8-7.2-.3-.7.5-2 1.2-3.8 1.9-1 .4-2.1.9-3.3 1.4-7 2.7-17 5.8-22.8 5.9v-.2c-.1-.2-.2-.5-.3-.6 6.8-2.6 20.2-8.3 26-16.6zm-50.7 81c.1-.3.2-.6.1-.9-4.4-20.8-5.6-54-5.8-57.7 3.3-7.6 9.1-13.4 12-16.1.8 2.6 2.9 6.7 7.6 9.6 1.2.7 2.6 1.4 4.1 1.9.1.1.2.3.3.4.4.6 1.1 1.1 2.1 1.5l1.2.3c.8.1 1.6.2 2.6.2 7.7 0 20.9-4.5 27.9-7.6 2-.9 3.5-1.6 4.2-2.1.9-.6 2.8.1 4.5.7 2.1.8 4.2 1.5 5.8.5 4.8 3.1 8.4 6.9 11.2 11 .6 1 1.1 2.1 1.6 3.2.2 3.8 2.2 49.1.7 65.6-1.3 15.6-20.5 67.5-23.8 76.3-3.6-1-13.5-3.5-19.6-4.4 1.3-5.7 5.9-25.1 9.3-36.1 3.8-12 4-37.7 4.1-53 0-1.8 0-3.5.1-4.9.3-21.7 5.3-35.3 14.9-40.3.7-.4 1-1.3.6-2s-1.3-1-2-.6c-10.7 5.6-16.2 20-16.6 42.9 0 1.5 0 3.2-.1 5-.1 15.2-.4 40.6-4 52.2-2.9 9.1-6.5 24-8.4 32.2-6.2 3.3-12.9 4.7-16.6 5.3 4.4-9.4 3-17.6 3-17.9 0-.2-.1-.3-.2-.5-4.9-9.1-9.1-32.1-9.1-32.4 0-.2-.1-.4-.2-.6-.2-2.6-1-4.2-1.3-4.7-1-2.7-.7-4.8-.3-7.7.5-3.8 1.2-8.5-.6-16.7-1.6-7.4-1.6-10.4-1.5-14.3.1-3.7.1-8.3-1.2-17.8-.1-.8-.9-1.4-1.7-1.3-.8.1-1.4.9-1.3 1.7 1.3 9.3 1.2 13.6 1.2 17.4-.1 4.1-.1 7.3 1.6 15 1.7 7.7 1.1 12.1.6 15.7-.4 3.1-.8 5.8.5 9.3 0 .1.1.2.2.3.1.2 3.1 4.9-1.9 13.2-4.4 7.3-9.9 13.4-11.9 15.5l-13.8-8.5c4-12.7 19.7-48.4 19.9-48.8zm55.7 89.8c-.2 1.8-.8 5.5-2.2 10.1-1.2-4.2-4.7-7.8-8.6-9.7-3.9-1.9-7.8-2.1-11.1-.7 1-1.2 2.1-2.5 3.5-3.9 5.8.9 15.1 3.3 18.4 4.2zm-71.8-20.3c-.6 1.5-1.3 2.8-2.2 3.9-.5.3-1 .6-1.6.8-2.8 1.4-5.4 2.3-7.3 2.5-3.1-.3-5.8-1.6-6.4-1.9-1-.6-2.1-1.3-3.1-2-3.1-3.9-2.5-7.4-1.3-9.7 0-.1.1-.2.2-.3 1.5-2.8 4.3-4.9 6.9-5.9 1.3-.5 2.5-.7 3.4-.6 2.6.4 8.6 2.7 11 6.8.6 1.1 1 2.2 1 3.3 0 .9-.2 2-.6 3.1zm3.1-.3c.1-.5.2-1 .3-1.4.3-2.3-.1-4.6-1.3-6.6-2.9-4.8-9.4-7.7-13.1-8.2 2.5-1.2 4.5-2 5.6-2.3l14.4 8.9c-.3 2.9-1.9 5.9-4.7 8.7-.5.3-.8.6-1.2.9zm2 2.3c.6-.5 1.1-1.1 1.7-1.6 2.6-2.7 4.9-6.3 5.1-10.5 1.7-1.7 7.8-8.3 12.7-16.5.8-1.3 1.4-2.6 1.9-3.7 1.6 7.6 4.6 19.9 8 26.3.2 1.4 1 9.6-4 18.3-.1.2-.2.4-.2.6 0 .3 0 .6.2.9.3.4.8.7 1.3.7h.1c.1 0 .4 0 .9-.1 2.5-.3 9.9-1.3 17.3-4.7-.3 1.3-.5 2-.5 2-.1.4 0 .9.3 1.2l.1.1c-2.5 2.8-4.5 5.1-5.7 8.4-.1.4-.3.8-.4 1.1l-38.8-22.5zM206 420c-1-.3-2.3-.6-4-.8-1.5-.2-2.6 0-3.5.7-1.3 1-1.5 2.8-1.7 4.5-.2 1.7-.3 3.5-1.6 4.5-1.3 1.1-1.7 1-3.1.7-1.6-.4-4.1-1-8.7.4l-2.4.7c-4.3 1.3-4.3 1.3-5.8 1.4-.4 0-.8.1-1.5.1-4.6.5-9.7 2.7-9.7 2.7v-2.7c0-1.4 3.1-2.7 6-3.9 4.6-1.9 10.4-4.1 11.1-9.6.8-6.4 1.1-14.2-3.5-17.6-.6-.4-1.2-.8-1.7-1.2-.8-.6-2-1.3-2.1-1.7 0 0 0-.4 1.1-1.4 3.2-2.9 5.3-3.8 5.3-3.8.6-.2.9-.8.9-1.4 0-2.4-1.8-10.2-4.6-22.8-2.5-11-5.3-23.5-6.2-30-1.2-8.8-.5-27.6.1-38.1.1-2.1.2-3.9.3-5.2l7.9 4.6c-.7 1.7-1 3.4-1 5 0 .3 0 .5.1.8.4 3.5 2.6 5.7 3.3 6.4 2.3 2.9 5.9 4.9 9.5 5.7 1.2.3 2.4.4 3.5.4 1.5 0 2.9-.2 4.2-.7l-4.1-2.5c-.4.1-.8.1-1.2.2-.8-.1-1.4-.2-1.8-.3-2.9-.6-5.9-2.3-7.8-4.6l-.1-.1c-.6-.8-1.1-1.7-1.4-2.7-.2-.6-.3-1.3-.3-2 0-2.2.2-4.1.5-5.7.3-.6.7-1.3 1.2-1.9.1-.2.3-.4.5-.6 3.9-4.9 9.7-2.5 11.4-1.7 4.3 2.1 8.2 6.8 7.1 11.5-.2.8-.4 1.5-.5 2.1l3.2 1.9c4.4-9.7 5.2-17.9 5.3-19.4.6-1.6 3.8-10.2 7.7-21.2 12.5-.1 25.4-1.7 31.7-2.7-1.7 6.4-9.2 33.9-11.9 45.3-2.1-.5-5.9-1-11.8.5-3.1.8-6-.1-9.2-.9-3.3-.9-6.8-1.9-10.3-.6l.2.1c.9.6 1.6 1.4 1.9 2.4 2.3-.5 4.7.2 7.5 1 3.2.9 6.9 1.9 10.7 1 7.9-2 11.4-.2 11.5-.1h.1s.1 0 .1.1c.1 0 .1 0 .2.1h1.1s.1 0 .1-.1c0 0 .1 0 .1-.1l.1-.1s.1 0 .1-.1l.1-.1c6.9-9 21.9-10.7 22.1-10.7.2 0 .5-.1.7-.3 5.6-3.8 10.7-3 19.1-1.5 3.6.6 7.6 1.3 12.4 1.7 14.5 1.3 16 8.1 16 8.2.1.5.5 1 1 1.2.5.2 1.1.1 1.5-.3 2.6-2.4 8.4-2.3 12.8.2 1.7.9 5.4 3.6 4.8 8l-85.9 1c-.6-1.3-1.2-.9-1.4-.3-2.9 8.4-7.9 14.1-14.7 16.8-10.8 4.3-23.9.4-30.3-2.1-.6-4.8.7-11.9 4.6-17.8-.1 0-.1-.1-.2-.1l-2.3-1.4c-3.8 5.7-5.4 12.6-5.1 18-.5-.2-.8-.4-.8-.4-.6-.3-1.4-.2-1.8.4-.5.5-.5 1.3 0 1.9 2.2 2.8 4.4 5.2 6.6 7.2.5 7.8 4.1 23.8 5.9 29.8 2 6.7 2.9 23.9 2.9 25.3L206 420zm-6-77.5c-.3 0-.6.1-.8.2-.2-.2-.3-.4-.4-.6.4.1.8.3 1.2.4zm7.3 32.6c-1.7-5.8-4.5-18.4-5.5-26.2 2.9 2.2 5.8 3.9 8.6 5 0 9.2-1.1 25.3-1.4 30.5-.4-3.6-1-7-1.7-9.3zM209 421l1.4-19.6v-.2c.1 6.3-.7 14.1-1.4 19.8zm1.1-24.5c.2 1.4.3 3 .3 4.7 0-.4-.1-2.2-.3-4.7zm29.9-6.8c-1 7.1-2.6 17.3-3.5 22.8-1.7-1.8-4.1-3.1-7.5-2.3-3.2.8-6.8 4.8-10.6 9.1-2.1 2.4-5.4 6.1-7.4 7.3.9-6 3.3-23.8 1.7-32.4-.1-.4-.3-.8-.7-1 0 0-1.3-.8-1.6-2.2-.3-1.3.1-2.7 1.2-4.4.1-.2.2-.5.2-.7 0-.2 1.4-19.9 1.5-31.1 4.4 1.5 8.3 1.9 11.3 1.9 2.9 0 4.9-.4 5.5-.5h10v33.5zm77.4-35.7l-87.4-.2h-.4c-.2 0-14 3.3-28.2-8.8v-.7c0-.5-.2-1-.7-1.3 7.4 2.4 18.5 4.5 28.2.5 7.4-3 12.8-8.9 16.1-17.6l118 .9c-3.1 5.2-14.2 18.7-45.6 27.2z"/><path class="st1" d="M207.6 401l-1.4 19.5c-1-.3-2.3-.6-4-.8-1.5-.2-1.9 0-2.7.7-1.3 1-2.3 2.1-2.4 3.8-.2 1.7-.3 4.2-1.6 5.3-1.3 1.1-1.7 1-3.1.7-1.6-.4-4.1-1-8.7.4l-2.4.7c-4.3 1.3-4.3 1.3-5.8 1.4-.4 0-.8.1-1.5.1.3 0-12.9 3.5-10 2v-.6c0-1.5 3.1-2.7 6.1-3.9 4.7-1.9 10.5-4.2 11.2-9.8.8-6.5.4-13.7-4.4-17.2-.6-.4-1.2-.8-1.7-1.2-.9-.6-2-2.1-2.1-2.4 0 0 .8-.4 1.9-1.4 3.2-3 5.3-3.8 5.3-3.8.6-.2 1-.8 1-1.4 0 0 2.5-2.2 8.9-1s12.3-.1 16.1.1c2.1.1 1.3 8.8 1.3 8.8zM240.1 391c-1 7.1-2.6 17.3-3.5 22.8-1.7-1.8-4.1-3.1-7.5-2.3-3.2.8-6.8 4.8-10.6 9.1-2.1 2.4-5.4 6.1-7.4 7.3.9-6 3.3-23.8 1.7-32.4-.1-.4-.3-.8-.7-1 0 0-1.3-.8-1.6-2.2 0 0-2.2-3.7 6.8-4s13.8 3.5 17 2.9 5.8-.2 5.8-.2z"/><path d="M170.8 139.2c12.5 52.4 9.1 72.9 18.3 139.1" fill="none" stroke="#0e2947" stroke-width="2.25" stroke-miterlimit="10"/><path class="st1" d="M208.7 315.3c-1.6.3-3.2 1.3-4.8 3.1-.6.7-1.2 1.5-1.7 2.2-.1 0-.1-.1-.2-.1l-2.3-1.4c.4-.6.8-1.2 1.3-1.8-.5.2-1.1.4-1.7.6-.3.1-.6.3-.9.4l-4.2-2.6c.9-.2 1.7-.3 2.3-.4.7-.1 1.3-.2 1.7-.3.9-.4 1.8-1.1 2.5-2 .3-.7.6-1.8 1-3.3l3.2 2c-.1.2-.2.5-.3.7-.4.8-.9 1.6-1.4 2.3 1.1-1 2.2-1.6 3.3-2l.2.1c1.1.6 1.7 1.5 2 2.5z"/><path class="st31" d="M183.2 298.3l18.7 11.5c-.4 1.5-.7 2.5-1 3.3-.7.9-1.6 1.5-2.5 2-.5.1-1 .2-1.7.3-.7.1-1.5.2-2.3.4l-12.5-7.7-4.2-2.6-7.3-4.5-2.9-1.8-32.4-19.9-3.1-1.9-18.2-11.2-3.8-2.3-10.6-6.5c-2.1-1.3-2.8-4.1-1.5-6.2 1.3-2.1 4.1-2.8 6.2-1.5l12.6 7.7 4.1 2.5 15.4 9.5 2.9 1.8.7.4 2.6 1.6 23.5 14.4 2.5 1.5 11.5 7.1 3.3 2.1zM199.3 317.9c.7-.2 1.2-.3 1.7-.6-.4.6-.9 1.2-1.3 1.8l-1.4-.8c.4-.2.7-.3 1-.4zM206.6 312.7c-1.1.4-2.2 1.1-3.3 2 .5-.7 1-1.4 1.4-2.3.1-.2.2-.5.3-.7l1.6 1z"/><path class="st1" d="M136.1 274.2c-1.4 1.8-2.7 3.1-4.1 4.1-2.8 1.5-5.5 2.5-7.6 1.7-.8.9-1.6.9-2.4 1v-.3c-2.1-.6-5.2-2-7.7-4l-.1-.1-.1-.1c-8.3-10.1 2.9-19.2 8.9-18.4 4.8.8 19.2 8.2 13.1 16.1zM204.4 308.4c-.7 2.8-1.2 4.7-1.7 5.9-.8 1.7-1.7 2.3-3.4 2.6-1.3.3-3.1.4-5.6.9l-11-5.6s-.1-.1-.2-.1c-.5-.5-2-2-2.6-4.5-.4-1.8-.4-4.1.9-6.8.5-1.1 1.3-2.3 2.3-3.6 7.3-9.3 23.6 1.4 21.3 11.2z"/><path class="st2" d="M156.2 443.8c3-5.1 9.2-11.5 15.8-8.8 0 0 5.4-6.8 11.5-5 6 1.7 9 .4 10.6-.3 0 0 2.3-8.7 6.8-10.1 0 0 5.3-4.8 8.5-1.5l-1.8 11.1s2.6 3.6 5.7 0c5.8-6.5 6.9-18.3 20.4-18.3 0 0 37.6 3.5 37.5 31.5M433 164.5c0 1.4-1.1 2.5-2.5 2.5s-2.5-1.1-2.5-2.5 1.1-2.5 2.5-2.5 2.5 1.2 2.5 2.5zM423.5 66c-1.4 0-2.5 1.1-2.5 2.5s1.1 2.5 2.5 2.5 2.5-1.1 2.5-2.5c0-1.3-1.1-2.5-2.5-2.5zm-34 123c-1.4 0-2.5 1.1-2.5 2.5s1.1 2.5 2.5 2.5 2.5-1.1 2.5-2.5-1.1-2.5-2.5-2.5zm-34-100c-1.4 0-2.5 1.1-2.5 2.5s1.1 2.5 2.5 2.5 2.5-1.1 2.5-2.5c0-1.3-1.1-2.5-2.5-2.5zm-84-28c-1.4 0-2.5 1.1-2.5 2.5s1.1 2.5 2.5 2.5 2.5-1.1 2.5-2.5c0-1.3-1.1-2.5-2.5-2.5zm173 135c-1.4 0-2.5 1.1-2.5 2.5s1.1 2.5 2.5 2.5 2.5-1.1 2.5-2.5-1.1-2.5-2.5-2.5zm-75 66c-1.4 0-2.5 1.1-2.5 2.5s1.1 2.5 2.5 2.5 2.5-1.1 2.5-2.5-1.1-2.5-2.5-2.5zm133 73c-1.4 0-2.5 1.1-2.5 2.5s1.1 2.5 2.5 2.5 2.5-1.1 2.5-2.5-1.1-2.5-2.5-2.5zm-69-34c-1.4 0-2.5 1.1-2.5 2.5s1.1 2.5 2.5 2.5 2.5-1.1 2.5-2.5-1.1-2.5-2.5-2.5zm45-38c-1.4 0-2.5 1.1-2.5 2.5s1.1 2.5 2.5 2.5 2.5-1.1 2.5-2.5-1.1-2.5-2.5-2.5zm-160-132c-.8 0-1.5.7-1.5 1.5s.7 1.5 1.5 1.5 1.5-.7 1.5-1.5-.7-1.5-1.5-1.5zm129-15c-.8 0-1.5.7-1.5 1.5s.7 1.5 1.5 1.5 1.5-.7 1.5-1.5-.7-1.5-1.5-1.5zm-146 134c-.8 0-1.5.7-1.5 1.5s.7 1.5 1.5 1.5 1.5-.7 1.5-1.5-.7-1.5-1.5-1.5zm179-196c-.8 0-1.5.7-1.5 1.5s.7 1.5 1.5 1.5 1.5-.7 1.5-1.5-.7-1.5-1.5-1.5zm-66 287c-.8 0-1.5.7-1.5 1.5s.7 1.5 1.5 1.5 1.5-.7 1.5-1.5-.7-1.5-1.5-1.5zm-85 23c-.8 0-1.5.7-1.5 1.5s.7 1.5 1.5 1.5 1.5-.7 1.5-1.5-.7-1.5-1.5-1.5zM303 199c-1.7 0-3 1.3-3 3s1.3 3 3 3 3-1.3 3-3c0-1.6-1.3-3-3-3zm113 38c-1.7 0-3 1.3-3 3s1.3 3 3 3 3-1.3 3-3c0-1.6-1.3-3-3-3zm-21-105c-1.7 0-3 1.3-3 3s1.3 3 3 3 3-1.3 3-3c0-1.6-1.3-3-3-3zm-121-3c-1.7 0-3 1.3-3 3s1.3 3 3 3 3-1.3 3-3c0-1.6-1.3-3-3-3zm105-88c-1.7 0-3 1.3-3 3s1.3 3 3 3 3-1.3 3-3c0-1.6-1.3-3-3-3zM187 170.5c0 1.4-1.1 2.5-2.5 2.5s-2.5-1.1-2.5-2.5 1.1-2.5 2.5-2.5 2.5 1.2 2.5 2.5zM176.5 72c-1.4 0-2.5 1.1-2.5 2.5s1.1 2.5 2.5 2.5 2.5-1.1 2.5-2.5c0-1.3-1.1-2.5-2.5-2.5zm-34 123c-1.4 0-2.5 1.1-2.5 2.5s1.1 2.5 2.5 2.5 2.5-1.1 2.5-2.5-1.1-2.5-2.5-2.5zm-33-99c-1.4 0-2.5 1.1-2.5 2.5s1.1 2.5 2.5 2.5 2.5-1.1 2.5-2.5c0-1.3-1.1-2.5-2.5-2.5zm-84-29c-1.4 0-2.5 1.1-2.5 2.5s1.1 2.5 2.5 2.5 2.5-1.1 2.5-2.5c0-1.3-1.1-2.5-2.5-2.5zm173 136c-1.4 0-2.5 1.1-2.5 2.5s1.1 2.5 2.5 2.5 2.5-1.1 2.5-2.5-1.1-2.5-2.5-2.5zm-75 66c-1.4 0-2.5 1.1-2.5 2.5s1.1 2.5 2.5 2.5 2.5-1.1 2.5-2.5-1.1-2.5-2.5-2.5zm132 72c-1.4 0-2.5 1.1-2.5 2.5s1.1 2.5 2.5 2.5 2.5-1.1 2.5-2.5-1.1-2.5-2.5-2.5zm-69-34c-1.4 0-2.5 1.1-2.5 2.5s1.1 2.5 2.5 2.5 2.5-1.1 2.5-2.5-1.1-2.5-2.5-2.5zm46-38c-1.4 0-2.5 1.1-2.5 2.5s1.1 2.5 2.5 2.5 2.5-1.1 2.5-2.5-1.1-2.5-2.5-2.5zm-161-132c-.8 0-1.5.7-1.5 1.5s.7 1.5 1.5 1.5 1.5-.7 1.5-1.5-.7-1.5-1.5-1.5zm129-14c-.8 0-1.5.7-1.5 1.5s.7 1.5 1.5 1.5 1.5-.7 1.5-1.5-.7-1.5-1.5-1.5zm-145 133c-.8 0-1.5.7-1.5 1.5s.7 1.5 1.5 1.5 1.5-.7 1.5-1.5-.7-1.5-1.5-1.5zm179-195c-.8 0-1.5.7-1.5 1.5s.7 1.5 1.5 1.5 1.5-.7 1.5-1.5-.7-1.5-1.5-1.5zm-67 286c-.8 0-1.5.7-1.5 1.5s.7 1.5 1.5 1.5 1.5-.7 1.5-1.5-.7-1.5-1.5-1.5zm-84 24c-.8 0-1.5.7-1.5 1.5s.7 1.5 1.5 1.5 1.5-.7 1.5-1.5-.7-1.5-1.5-1.5zM57 206c-1.7 0-3 1.3-3 3s1.3 3 3 3 3-1.3 3-3c0-1.6-1.3-3-3-3zm112 37c-1.7 0-3 1.3-3 3s1.3 3 3 3 3-1.3 3-3c0-1.6-1.3-3-3-3zm-21-104c-1.7 0-3 1.3-3 3s1.3 3 3 3 3-1.3 3-3c0-1.6-1.3-3-3-3zm-120-3c-1.7 0-3 1.3-3 3s1.3 3 3 3 3-1.3 3-3c0-1.6-1.3-3-3-3zm105-88c-1.7 0-3 1.3-3 3s1.3 3 3 3 3-1.3 3-3c0-1.6-1.3-3-3-3z"/></g><path d="M203.5 0L407 117.5v235L203.5 470 0 352.5v-235L203.5 0zm0 442.2L383 338.6V131.3L203.5 27.7 24 131.3v207.3l179.5 103.6z" fill="#c4c4d6"/><path class="st28" d="M203.5.2L0 117.7v235l203.5 117.5L407 352.6v-235L203.5.2zM385 339.9L203.5 444.7 22 339.9V130.4L203.5 25.6 385 130.4v209.5z"/></g></svg>