<svg id="Layer_1" data-name="Layer 1" xmlns="http://www.w3.org/2000/svg" viewBox="0 0 110.88 128.04"><defs><style>.cls-1,.cls-3{fill:#9fcd52;}.cls-1{opacity:0.22;isolation:isolate;}.cls-12,.cls-2{fill:#1a0c3d;}.cls-4{fill:#5f495b;}.cls-5{fill:#eff4ee;}.cls-6{fill:#62c08d;}.cls-7{fill:#fecf0f;}.cls-8{fill:none;}.cls-9{fill:#48ba78;}.cls-10,.cls-14,.cls-16{fill:#fff;}.cls-11,.cls-13{fill:#190b3c;}.cls-12,.cls-13{fill-rule:evenodd;}.cls-14,.cls-16{font-size:5px;font-weight:800;}.cls-14{font-family:Muli-ExtraBold, Muli;}.cls-15{letter-spacing:-0.04em;}.cls-16{font-family:Muli-Black, Muli;}.cls-17{letter-spacing:0.02em;}.cls-18{letter-spacing:-0.04em;}.cls-19{letter-spacing:0em;}.cls-20{letter-spacing:0.02em;}</style></defs><title>die cut</title><rect class="cls-1" x="25.81" y="23.53" width="61.5" height="61.5"/><g id="Back"><polygon class="cls-2" points="32.2 93.68 35.9 93.68 37.13 93.68 37.53 93.68 40.37 93.68 40.77 93.68 43.26 93.68 43.66 93.68 46.5 93.68 46.9 93.68 64.47 93.68 64.87 93.68 67.7 93.68 68.1 93.68 70.6 93.68 71 93.68 73.84 93.68 74.24 93.68 75.85 93.68 79.57 93.68 78.17 94.48 74.46 94.48 37.27 94.48 33.59 94.48 32.2 93.68"/></g><g id="Character"><rect class="cls-2" x="44.18" y="51.87" width="23.69" height="0.8"/><path class="cls-3" d="M62.4,59.55H49.66a5.48,5.48,0,0,1-5.48-5.47V40.68c8.13-3.3,16-3.51,23.69,0v13.4a5.47,5.47,0,0,1-5.47,5.47Z"/><path class="cls-2" d="M62.4,60H49.66a5.88,5.88,0,0,1-5.88-5.87V40.68a.41.41,0,0,1,.25-.37A32.83,32.83,0,0,1,56.2,37.73,27.69,27.69,0,0,1,68,40.32a.41.41,0,0,1,.23.36v13.4A5.87,5.87,0,0,1,62.4,60ZM44.58,41V54.08a5.09,5.09,0,0,0,5.08,5.08H62.4a5.07,5.07,0,0,0,5.07-5.08V40.94C60.33,37.74,52.63,37.74,44.58,41Z"/><path class="cls-2" d="M55.9,56.62a4.45,4.45,0,1,1,4.45-4.45A4.45,4.45,0,0,1,55.9,56.62Zm0-8.11a3.66,3.66,0,1,0,3.65,3.66A3.66,3.66,0,0,0,55.9,48.51Z"/><path class="cls-2" d="M48.47,54.28a2.15,2.15,0,1,1,2.15-2.15A2.15,2.15,0,0,1,48.47,54.28Zm0-3.5a1.35,1.35,0,1,0,1.35,1.35A1.35,1.35,0,0,0,48.47,50.78Z"/><path class="cls-2" d="M63.29,54.28a2.15,2.15,0,1,1,2.15-2.15A2.15,2.15,0,0,1,63.29,54.28Zm0-3.5a1.35,1.35,0,1,0,1.35,1.35A1.34,1.34,0,0,0,63.29,50.78Z"/><path class="cls-3" d="M21.89,53.62,33.5,44.08l4.8.48A.82.82,0,0,1,38.74,46l-5.33,4.37-8,3.63Z"/><path class="cls-2" d="M25.45,54.41l-4.55-.5L33.37,43.67l5,.49a1.21,1.21,0,0,1,1,.86,1.23,1.23,0,0,1-.39,1.3l-5.37,4.41Zm-2.58-1.09,2.45.28L33.2,50l5.29-4.34a.43.43,0,0,0-.23-.75l-4.64-.45Z"/><rect class="cls-3" x="33.61" y="42.23" width="3.66" height="2.44" transform="translate(-20.42 48.24) rotate(-55.7)"/><path class="cls-2" d="M35.52,46.2l-2.67-1.83,2.51-3.68L38,42.52Zm-1.56-2,1.35.93,1.61-2.36-1.35-.93Z"/><rect class="cls-2" x="34.12" y="43.18" width="3.66" height="1.22" transform="translate(-20.49 48.81) rotate(-55.7)"/><path class="cls-3" d="M46.55,92.73H36.89a.86.86,0,0,1-.86-.86h0V90.62a.86.86,0,0,1,.86-.86h9.66a.85.85,0,0,1,.86.86h0v1.25a.85.85,0,0,1-.86.86Z"/><path class="cls-2" d="M46.55,93.13H36.89a1.26,1.26,0,0,1-1.26-1.26V90.62a1.26,1.26,0,0,1,1.26-1.26h9.66a1.25,1.25,0,0,1,1.26,1.26v1.25A1.25,1.25,0,0,1,46.55,93.13Zm-9.66-3a.46.46,0,0,0-.46.46v1.25a.46.46,0,0,0,.46.46h9.66a.45.45,0,0,0,.46-.46V90.62a.45.45,0,0,0-.46-.46Z"/><rect class="cls-2" x="37.52" y="92.73" width="2.84" height="1.12"/><path class="cls-2" d="M40.36,94.25H37.52a.39.39,0,0,1-.39-.4V92.73a.39.39,0,0,1,.39-.4h2.84a.4.4,0,0,1,.4.4v1.12A.39.39,0,0,1,40.36,94.25Zm-2.44-.79h2v-.33h-2Z"/><rect class="cls-2" x="43.66" y="92.73" width="2.84" height="1.12"/><path class="cls-2" d="M46.5,94.25H43.66a.39.39,0,0,1-.4-.4V92.73a.4.4,0,0,1,.4-.4H46.5a.4.4,0,0,1,.4.4v1.12A.39.39,0,0,1,46.5,94.25Zm-2.44-.79h2v-.33h-2Z"/><path class="cls-2" d="M45.06,93.47a.4.4,0,0,1-.4-.4V91.64H39.52a.55.55,0,0,0-.55.55v.54a.4.4,0,0,1-.8,0v-.54a1.35,1.35,0,0,1,1.35-1.34h5.94v2.22A.4.4,0,0,1,45.06,93.47Z"/><path class="cls-3" d="M88.81,51.16,75,45.31,70.5,47.13a.82.82,0,0,0,0,1.52l6.35,2.68,8.72,1.19Z"/><path class="cls-2" d="M85.62,52.93l-8.89-1.21L70.33,49a1.23,1.23,0,0,1,0-2.26L75,44.88l14.87,6.28Zm-8.67-2,8.56,1.17,2.27-1L75,45.74,70.65,47.5a.41.41,0,0,0-.26.39.39.39,0,0,0,.25.39Z"/><rect class="cls-3" x="72.2" y="42.31" width="2.44" height="3.66" transform="translate(-11.57 54.85) rotate(-38.2)"/><path class="cls-2" d="M73.53,46.89l-2.76-3.5,2.55-2,2.75,3.5Zm-1.64-3.37,1.77,2.25,1.29-1-1.77-2.24Z"/><rect class="cls-2" x="72.33" y="42.69" width="1.22" height="3.66" transform="translate(-11.91 54.64) rotate(-38.2)"/><path class="cls-3" d="M64.45,92.73h9.66a.86.86,0,0,0,.86-.86h0V90.62a.86.86,0,0,0-.86-.86H64.45a.85.85,0,0,0-.86.86h0v1.25a.85.85,0,0,0,.86.86Z"/><path class="cls-2" d="M74.11,93.13H64.45a1.25,1.25,0,0,1-1.26-1.26V90.62a1.25,1.25,0,0,1,1.26-1.26h9.66a1.26,1.26,0,0,1,1.26,1.26v1.25A1.26,1.26,0,0,1,74.11,93.13Zm-9.66-3a.45.45,0,0,0-.46.46v1.25a.45.45,0,0,0,.46.46h9.66a.46.46,0,0,0,.46-.46V90.62a.49.49,0,0,0-.13-.33.51.51,0,0,0-.33-.13Z"/><path class="cls-3" d="M66.59,89.7H72c.26,0,.47-.39.47-.86V87.59c0-.48-.21-.86-.47-.86H66.59c-.26,0-.48.38-.48.86v1.25C66.11,89.31,66.33,89.7,66.59,89.7Z"/><path class="cls-2" d="M72,90.1H66.59c-.5,0-.88-.54-.88-1.26V87.59c0-.72.38-1.26.88-1.26H72c.5,0,.87.54.87,1.26v1.25C72.84,89.56,72.47,90.1,72,90.1Zm-5.32-.79Zm0,0h5.29a.72.72,0,0,0,.12-.46V87.59a.7.7,0,0,0-.12-.46H66.63a.77.77,0,0,0-.12.46v1.25A.79.79,0,0,0,66.63,89.3Z"/><rect class="cls-2" x="71" y="92.73" width="2.84" height="1.12"/><path class="cls-2" d="M73.83,94.25H71a.39.39,0,0,1-.4-.4V92.73a.4.4,0,0,1,.4-.4h2.83a.39.39,0,0,1,.4.4v1.12A.39.39,0,0,1,73.83,94.25Zm-2.43-.79h2v-.33h-2Z"/><rect class="cls-2" x="64.86" y="92.73" width="2.84" height="1.12"/><path class="cls-2" d="M67.7,94.25H64.86a.39.39,0,0,1-.4-.4V92.73a.4.4,0,0,1,.4-.4H67.7a.4.4,0,0,1,.4.4v1.12A.39.39,0,0,1,67.7,94.25Zm-2.44-.79h2v-.33h-2Z"/><path class="cls-2" d="M66.47,93.47a.4.4,0,0,1-.4-.4V90.85H72a1.34,1.34,0,0,1,.95.39,1.32,1.32,0,0,1,.4,1v.54a.4.4,0,0,1-.8,0v-.54a.55.55,0,0,0-.16-.38.52.52,0,0,0-.39-.17H66.87v1.43A.4.4,0,0,1,66.47,93.47Z"/><path class="cls-3" d="M73.67,81.87l2.66-4.18,1,4.49-.91,1.44Z"/><path class="cls-2" d="M76.75,83.83l-.67-.43.82-1.29-.75-3.39L74,82.09l-.68-.43L76,77.48a.39.39,0,0,1,.4-.18.42.42,0,0,1,.33.31l1,4.49a.4.4,0,0,1-.06.3Z"/><path class="cls-2" d="M76.54,89.06a.43.43,0,0,1-.22-.06l-7.09-4.51a.4.4,0,1,1,.43-.67l7.09,4.5a.39.39,0,0,1,.12.55A.39.39,0,0,1,76.54,89.06Z"/><rect class="cls-3" x="70.33" y="84.98" width="4.67" height="3.55" transform="translate(-39.53 101.58) rotate(-57.58)"/><path class="cls-2" d="M73,90.23,69.37,87.9l2.93-4.61L76,85.62Zm-2.57-2.57,2.32,1.47,2.08-3.26-2.32-1.48Z"/><path class="cls-2" d="M73.94,88.47a.39.39,0,0,1-.21-.06l-3-1.91a.39.39,0,0,1-.12-.55.4.4,0,0,1,.55-.12l3,1.9a.4.4,0,0,1,.12.55A.42.42,0,0,1,73.94,88.47Z"/><path class="cls-3" d="M70.51,79.88l2.66-4.18,1,4.49-.91,1.44Z"/><path class="cls-2" d="M73.59,81.84l-.67-.43.82-1.29L73,76.73,70.85,80.1l-.68-.43,2.66-4.18a.39.39,0,0,1,.4-.18.42.42,0,0,1,.33.31l1,4.48a.39.39,0,0,1-.06.3Z"/><path class="cls-2" d="M73.38,87.07a.36.36,0,0,1-.22-.07l-7.09-4.5A.39.39,0,0,1,66,82a.4.4,0,0,1,.55-.13l7.09,4.51a.39.39,0,0,1,.12.55A.39.39,0,0,1,73.38,87.07Z"/><rect class="cls-3" x="67.17" y="82.99" width="4.67" height="3.55" transform="translate(-39.31 97.99) rotate(-57.58)"/><path class="cls-2" d="M69.88,88.24l-3.67-2.33,2.93-4.61,3.67,2.33Zm-2.57-2.58,2.32,1.48,2.08-3.27L69.39,82.4Z"/><path class="cls-3" d="M69.24,81.82l6.25,4c.57.36,1.2.37,1.42,0l.48-.75c.22-.34-.06-.91-.63-1.27l-6.25-4c-.56-.36-1.2-.37-1.42,0l-.47.75C68.4,80.89,68.68,81.46,69.24,81.82Z"/><path class="cls-2" d="M76.35,86.46h0a2,2,0,0,1-1-.33l-6.25-4c-.77-.48-1.09-1.28-.75-1.82l.47-.75a1.05,1.05,0,0,1,.93-.44,2.17,2.17,0,0,1,1,.34l6.25,4a2.11,2.11,0,0,1,.75.8,1,1,0,0,1,0,1l-.48.75A1,1,0,0,1,76.35,86.46Zm-6.7-6.52c-.12,0-.2,0-.22.07l-.48.74c-.06.1.09.46.51.73l6.25,4a1.41,1.41,0,0,0,.63.22.35.35,0,0,0,.24-.07l.47-.75a.29.29,0,0,0,0-.24,1.25,1.25,0,0,0-.46-.49l-6.25-4a1.27,1.27,0,0,0-.63-.21Z"/><path class="cls-2" d="M70.78,86.48a.39.39,0,0,1-.21-.06l-3-1.91a.39.39,0,0,1-.12-.55.4.4,0,0,1,.55-.12l3,1.9a.4.4,0,0,1,.12.55A.42.42,0,0,1,70.78,86.48Z"/><path class="cls-3" d="M44.81,89.7H39.44c-.27,0-.48-.39-.48-.86V87.59c0-.48.21-.86.48-.86h5.37c.26,0,.48.38.48.86v1.25C45.29,89.31,45.07,89.7,44.81,89.7Z"/><path class="cls-2" d="M44.81,90.1H39.44c-.5,0-.88-.54-.88-1.26V87.59c0-.72.38-1.26.88-1.26h5.37c.5,0,.88.54.88,1.26v1.25C45.69,89.56,45.31,90.1,44.81,90.1Zm-5.33-.8h5.29a.79.79,0,0,0,.12-.46V87.59a.77.77,0,0,0-.12-.46H39.48a.77.77,0,0,0-.12.46v1.25A.79.79,0,0,0,39.48,89.3Z"/><path class="cls-3" d="M37.73,81.87l-2.65-4.18-1,4.49L35,83.62Z"/><path class="cls-2" d="M34.65,83.83l-.91-1.43a.4.4,0,0,1-.06-.3l1-4.49A.39.39,0,0,1,35,77.3a.38.38,0,0,1,.4.18l2.66,4.18-.68.43-2.13-3.37-.76,3.39.82,1.29Z"/><path class="cls-2" d="M34.87,89.06a.4.4,0,0,1-.22-.74l7.09-4.5a.4.4,0,1,1,.43.67L35.08,89A.42.42,0,0,1,34.87,89.06Z"/><rect class="cls-3" x="36.95" y="84.43" width="3.55" height="4.67" transform="translate(-40.48 34.28) rotate(-32.42)"/><path class="cls-2" d="M38.36,90.23l-2.93-4.61,3.67-2.33L42,87.9Zm-1.83-4.36,2.08,3.26,2.32-1.47-2.07-3.27Z"/><path class="cls-2" d="M37.46,88.47a.42.42,0,0,1-.34-.19.4.4,0,0,1,.13-.55l3-1.9a.4.4,0,0,1,.55.12.39.39,0,0,1-.12.55l-3,1.91A.39.39,0,0,1,37.46,88.47Z"/><path class="cls-3" d="M40.89,79.88,38.24,75.7l-1,4.49.92,1.44Z"/><path class="cls-2" d="M37.81,81.84,36.9,80.4a.39.39,0,0,1-.06-.3l1-4.48a.39.39,0,0,1,.32-.31.38.38,0,0,1,.4.18l2.66,4.18-.68.43-2.13-3.37-.76,3.39.82,1.29Z"/><path class="cls-2" d="M38,87.07a.39.39,0,0,1-.34-.19.4.4,0,0,1,.12-.55l7.09-4.51a.42.42,0,0,1,.56.13.41.41,0,0,1-.13.55L38.24,87A.35.35,0,0,1,38,87.07Z"/><rect class="cls-3" x="40.11" y="82.43" width="3.55" height="4.67" transform="translate(-38.92 35.67) rotate(-32.42)"/><path class="cls-2" d="M41.52,88.24l-2.93-4.61,3.67-2.33,2.93,4.61Zm-1.83-4.37,2.08,3.27,2.32-1.48L42,82.4Z"/><path class="cls-3" d="M42.16,81.82l-6.25,4c-.57.36-1.2.37-1.42,0L34,85.06c-.22-.34.06-.91.63-1.27l6.25-4c.56-.36,1.2-.37,1.42,0l.48.75C43,80.89,42.73,81.46,42.16,81.82Z"/><path class="cls-2" d="M35.05,86.46a1,1,0,0,1-.9-.43l-.47-.75a1,1,0,0,1,0-1,2.11,2.11,0,0,1,.75-.8l6.25-4c.77-.49,1.63-.44,2,.1l.47.75c.35.54,0,1.34-.75,1.82l-6.25,4A2.05,2.05,0,0,1,35.05,86.46Zm6.7-6.52a1.35,1.35,0,0,0-.65.21l-6.25,4a1.25,1.25,0,0,0-.46.49.29.29,0,0,0,0,.24l.47.75c.07.1.46.12.88-.15l6.25-4c.42-.26.56-.63.5-.72L42,80S41.87,79.94,41.75,79.94Zm.41,1.88Z"/><path class="cls-2" d="M40.62,86.48a.42.42,0,0,1-.34-.19.41.41,0,0,1,.13-.55l3-1.9A.4.4,0,0,1,44,84a.39.39,0,0,1-.12.55l-3,1.91A.39.39,0,0,1,40.62,86.48Z"/><rect class="cls-2" x="68.99" y="74.25" width="3.36" height="7.49" transform="translate(-29 44.19) rotate(-29.08)"/><path class="cls-4" d="M75.26,78.67l3-1.69L68.64,59.63a2.09,2.09,0,0,0-2.86-.77l-1.87,1a2.11,2.11,0,0,0-.85,2.85l8.27,14.87A2.88,2.88,0,0,0,75.26,78.67Z"/><path class="cls-2" d="M73.81,79.45A3.23,3.23,0,0,1,71,77.81L62.71,62.93a2.51,2.51,0,0,1,1-3.39l1.86-1a2.55,2.55,0,0,1,1.91-.24A2.39,2.39,0,0,1,69,59.44l9.85,17.69L75.45,79A3.35,3.35,0,0,1,73.81,79.45ZM66.83,59a1.76,1.76,0,0,0-.86.23l-1.86,1a1.7,1.7,0,0,0-.7,2.3l8.27,14.88a2.47,2.47,0,0,0,3.38.9l2.69-1.49-9.45-17a1.66,1.66,0,0,0-1-.79A1.74,1.74,0,0,0,66.83,59Z"/><path class="cls-4" d="M69.29,58l-1.36.76,8.78,15.79c.5.91,1.29,1.43,1.75,1.18l.83-.46c.46-.26.43-1.21-.08-2.11L71.68,59.61C71,58.37,69.92,57.64,69.29,58Z"/><path class="cls-2" d="M78.2,76.18a1.47,1.47,0,0,1-.82-.28,3.47,3.47,0,0,1-1-1.17l-9-16.13,1.71-1a1.52,1.52,0,0,1,1.59.23A4.51,4.51,0,0,1,72,59.42L79.56,73c.63,1.14.6,2.28-.07,2.65l-.84.47A1,1,0,0,1,78.2,76.18ZM68.47,58.91l8.59,15.43a2.62,2.62,0,0,0,.76.89c.22.15.38.18.44.14l.84-.46c.17-.1.21-.77-.24-1.57L71.33,59.8a3.85,3.85,0,0,0-1.09-1.27c-.31-.21-.6-.28-.76-.19Zm.82-.92Z"/><rect class="cls-4" x="62.15" y="66.88" width="4.2" height="4.64" transform="translate(-25.54 39.96) rotate(-29.08)"/><path class="cls-2" d="M63.39,72.79,60.74,68l4.37-2.43,2.65,4.76Zm-1.56-4.44,1.87,3.36,3-1.65L64.8,66.7Z"/><rect class="cls-2" x="62.28" y="67.39" width="2.1" height="4.64" transform="translate(-25.9 39.58) rotate(-29.08)"/><path class="cls-2" d="M63.39,72.79,60.74,68l2.54-1.41,2.64,4.76Zm-1.56-4.44,1.87,3.36,1.14-.63L63,67.72Z"/><rect class="cls-4" x="64.86" y="72.58" width="4.2" height="2.98" transform="translate(-27.56 41.89) rotate(-29.08)"/><path class="cls-2" d="M65.69,76.94l-1.83-3.3,4.37-2.43,1.83,3.3Zm-.75-3L66,75.85l3-1.65-1.06-1.91Z"/><rect class="cls-2" x="64.99" y="73.09" width="2.1" height="2.98" transform="translate(-27.93 41.51) rotate(-29.08)"/><rect class="cls-2" x="69.99" y="73.99" width="6.21" height="0.8" transform="translate(-26.94 44.9) rotate(-29.08)"/><rect class="cls-2" x="70.84" y="75.53" width="6.21" height="0.8" transform="translate(-27.58 45.51) rotate(-29.08)"/><path class="cls-2" d="M61.34,66.12a.39.39,0,0,1-.35-.2.4.4,0,0,1,.15-.55l1.5-.83a.41.41,0,0,1,.54.16.39.39,0,0,1-.16.54l-1.49.83A.34.34,0,0,1,61.34,66.12Z"/><path class="cls-2" d="M60.52,64.66a.37.37,0,0,1-.34-.21.4.4,0,0,1,.15-.54l1.49-.83a.4.4,0,0,1,.55.16.41.41,0,0,1-.16.54l-1.49.83A.46.46,0,0,1,60.52,64.66Z"/><path class="cls-2" d="M59.71,63.2a.4.4,0,0,1-.35-.21.39.39,0,0,1,.16-.54L61,61.62a.4.4,0,0,1,.54.15.4.4,0,0,1-.15.55l-1.5.83A.41.41,0,0,1,59.71,63.2Z"/><path class="cls-2" d="M57.81,62.34a.4.4,0,0,1-.35-.21.4.4,0,0,1,.15-.54l3.67-2a.4.4,0,0,1,.55.15.42.42,0,0,1-.16.55l-3.67,2A.45.45,0,0,1,57.81,62.34Z"/><path class="cls-5" d="M70.28,78.05a.46.46,0,0,1-.62-.18.45.45,0,0,1,.17-.62Z"/><circle class="cls-4" cx="66.45" cy="62.45" r="1.44"/><path class="cls-2" d="M66.45,64.29a1.86,1.86,0,0,1-1.61-.94,1.84,1.84,0,0,1,.71-2.5h0a1.84,1.84,0,1,1,1.79,3.21A1.79,1.79,0,0,1,66.45,64.29Zm0-2.88a1.14,1.14,0,0,0-.51.13h0a1,1,0,0,0-.49.63,1,1,0,0,0,.09.79,1,1,0,1,0,1.19-1.51A.9.9,0,0,0,66.45,61.41Z"/><rect class="cls-2" x="69.72" y="62.94" width="0.8" height="12.22" transform="translate(-24.72 42.79) rotate(-29.08)"/><rect class="cls-2" x="37.58" y="76.32" width="7.49" height="3.36" transform="translate(-46.92 76.2) rotate(-60.92)"/><path class="cls-4" d="M36.75,78.67l-3-1.69,9.65-17.35a2.1,2.1,0,0,1,2.87-.77l1.86,1A2.11,2.11,0,0,1,49,62.74L40.67,77.61A2.87,2.87,0,0,1,36.75,78.67Z"/><path class="cls-2" d="M38.19,79.45A3.38,3.38,0,0,1,36.55,79l-3.38-1.89L43,59.44a2.5,2.5,0,0,1,3.41-.93l1.86,1A2.54,2.54,0,0,1,49.49,61a2.36,2.36,0,0,1-.2,1.89L41,77.81A3.21,3.21,0,0,1,38.19,79.45Zm-1.25-1.13a2.47,2.47,0,0,0,3.38-.9L48.6,62.54a1.65,1.65,0,0,0,.13-1.27,1.75,1.75,0,0,0-.84-1l-1.86-1a1.69,1.69,0,0,0-2.32.62l-9.46,17Z"/><path class="cls-4" d="M42.79,57.86l1.36.76L35.3,74.52c-.51.92-1.29,1.45-1.76,1.2l-.83-.46c-.46-.26-.42-1.21.09-2.13L40.39,59.5C41.08,58.24,42.16,57.51,42.79,57.86Z"/><path class="cls-2" d="M33.8,76.18a1,1,0,0,1-.45-.11l-.83-.47c-.68-.37-.7-1.52-.07-2.66L40,59.3a4.41,4.41,0,0,1,1.35-1.55A1.48,1.48,0,0,1,43,57.52l1.71.95-9,16.25a3.58,3.58,0,0,1-1,1.17A1.54,1.54,0,0,1,33.8,76.18Zm8.63-18a1.14,1.14,0,0,0-.59.23,3.94,3.94,0,0,0-1.11,1.28L33.15,73.33c-.45.81-.41,1.48-.24,1.58l.83.46c.06,0,.23,0,.44-.14a2.67,2.67,0,0,0,.77-.9L43.6,58.78l-1-.57A.38.38,0,0,0,42.43,58.18Z"/><rect class="cls-4" x="45.43" y="67.1" width="4.64" height="4.2" transform="translate(-35.94 77.29) rotate(-60.92)"/><path class="cls-2" d="M48.61,72.79l-4.36-2.42,2.64-4.76L51.26,68Zm-3.28-2.73,3,1.65,1.87-3.36-3-1.65Z"/><rect class="cls-2" x="46.35" y="68.66" width="4.64" height="2.1" transform="translate(-35.91 78.36) rotate(-60.92)"/><path class="cls-2" d="M48.61,72.79l-2.53-1.4,2.65-4.76L51.26,68Zm-1.44-1.71,1.13.63,1.87-3.36L49,67.72Z"/><rect class="cls-4" x="43.55" y="71.97" width="2.98" height="4.2" transform="translate(-41.58 77.43) rotate(-60.92)"/><path class="cls-2" d="M46.31,76.94l-4.37-2.43,1.84-3.3,4.37,2.43ZM43,74.2l3,1.65L47.06,74l-3-1.66Z"/><rect class="cls-2" x="44.47" y="73.53" width="2.98" height="2.1" transform="translate(-41.56 78.49) rotate(-60.92)"/><rect class="cls-2" x="38.51" y="71.29" width="0.8" height="6.21" transform="translate(-45.01 72.24) rotate(-60.92)"/><rect class="cls-2" x="37.66" y="72.82" width="0.8" height="6.21" transform="translate(-46.79 72.28) rotate(-60.92)"/><path class="cls-2" d="M50.66,66.12a.34.34,0,0,1-.19-.05L49,65.24a.41.41,0,0,1-.16-.54.42.42,0,0,1,.55-.16l1.49.83a.41.41,0,0,1,.15.55A.39.39,0,0,1,50.66,66.12Z"/><path class="cls-2" d="M51.48,64.66a.49.49,0,0,1-.2,0l-1.49-.83a.4.4,0,0,1-.15-.54.39.39,0,0,1,.54-.16l1.49.83a.4.4,0,0,1-.19.75Z"/><path class="cls-2" d="M52.29,63.2a.45.45,0,0,1-.19-.05l-1.49-.83a.4.4,0,1,1,.38-.7l1.5.83a.4.4,0,0,1,.15.54A.4.4,0,0,1,52.29,63.2Z"/><path class="cls-2" d="M54.19,62.34a.45.45,0,0,1-.19-.05l-3.67-2a.4.4,0,0,1-.15-.55.39.39,0,0,1,.54-.15l3.67,2a.4.4,0,0,1-.2.75Z"/><path class="cls-5" d="M41.73,78.05a.46.46,0,1,0,.44-.8Z"/><circle class="cls-4" cx="45.55" cy="62.45" r="1.44"/><path class="cls-2" d="M45.55,64.29a1.79,1.79,0,0,1-.89-.23,1.82,1.82,0,0,1-.71-2.5,1.83,1.83,0,0,1,1.1-.88,1.85,1.85,0,0,1,2.11,2.67A1.83,1.83,0,0,1,45.55,64.29Zm0-2.88a.92.92,0,0,0-.29,0,1,1,0,0,0-.63.5h0a1.08,1.08,0,0,0-.09.79,1,1,0,0,0,.5.62,1,1,0,0,0,1.41-.4,1,1,0,0,0-.4-1.42A1.13,1.13,0,0,0,45.56,61.41Z"/><rect class="cls-2" x="35.78" y="68.65" width="12.22" height="0.8" transform="translate(-38.82 72.1) rotate(-60.92)"/><path class="cls-2" d="M46.72,58.41a1.19,1.19,0,1,0-1.19,1.2,1.19,1.19,0,0,0,1.19-1.2Z"/><path class="cls-2" d="M67.7,58.41a1.2,1.2,0,1,0-1.2,1.2,1.19,1.19,0,0,0,1.2-1.2Z"/><rect class="cls-2" x="37.01" y="43.15" width="2.92" height="5.12" transform="translate(-20.97 51.74) rotate(-55.7)"/><rect class="cls-2" x="67.92" y="45.17" width="5.12" height="2.92" transform="matrix(0.79, -0.62, 0.62, 0.79, -13.74, 53.58)"/><path class="cls-5" d="M66.37,57.6a.74.74,0,1,0-.74.74h0a.74.74,0,0,0,.74-.74Z"/><path class="cls-5" d="M47,57.6a.74.74,0,1,0-.74.74A.74.74,0,0,0,47,57.6Z"/><path class="cls-2" d="M33.12,75.88a.46.46,0,0,1-.2,0,.4.4,0,0,1-.14-.55L42.9,57.92a.4.4,0,1,1,.69.4L33.47,75.68A.41.41,0,0,1,33.12,75.88Z"/><path class="cls-2" d="M78.88,75.88a.38.38,0,0,1-.34-.2L68.47,58.46a.4.4,0,1,1,.69-.4L79.23,75.28a.41.41,0,0,1-.15.55A.46.46,0,0,1,78.88,75.88Z"/><polygon class="cls-3" points="33.12 44.39 28.71 43.52 24.59 47.05 26.36 49.95 33.12 44.39"/><path class="cls-2" d="M26.25,50.55,24.08,47l4.51-3.88L34,44.17Zm-1.14-3.42,1.35,2.22,5.76-4.73L28.82,44Z"/><polygon class="cls-3" points="70.37 41.09 67.5 37.62 62.08 37.76 61.62 41.12 70.37 41.09"/><path class="cls-2" d="M61.16,41.52l.57-4.15,6-.15,3.53,4.26Zm1.27-3.37-.35,2.57,7.45,0L67.32,38Z"/><polygon class="cls-3" points="75.56 45.41 79.54 43.31 84.5 45.51 83.64 48.79 75.56 45.41"/><path class="cls-2" d="M83.91,49.33l-9.28-3.87,4.9-2.6L85,45.28Zm-7.41-4,6.87,2.87L84,45.73l-4.46-2Z"/><polygon class="cls-3" points="43.24 40.91 46.14 37.46 51.56 37.64 52 41 43.24 40.91"/><path class="cls-2" d="M52.45,41.41,42.4,41.3,46,37.06l5.95.19Zm-8.36-.89,7.45.08L51.21,38l-4.89-.16Z"/><polygon class="cls-3" points="30.28 52.06 34.69 52.93 39.76 48.36 37.05 46.51 30.28 52.06"/><path class="cls-2" d="M34.81,53.36l-5.44-1.07L37,46l3.39,2.31Zm-3.62-1.53,3.39.67,4.54-4.09-2-1.41Z"/><polygon class="cls-3" points="79.14 52.44 74.8 53.6 69.44 49.37 72.03 47.34 79.14 52.44"/><path class="cls-2" d="M74.71,54l-5.92-4.67L72,46.84l8,5.77Zm-4.62-4.67,4.8,3.79,3.34-.89L72,47.84Z"/><path class="cls-3" d="M26.62,50.8l-3.83,4.5-1.74-1.48a2.43,2.43,0,0,1-.28-3.42l.68-.81a2.44,2.44,0,0,1,3.43-.27Z"/><path class="cls-2" d="M22.83,55.86l-2-1.73a2.83,2.83,0,0,1-.32-4l.68-.8a2.83,2.83,0,0,1,4-.33l2,1.74Zm.48-6.72a2,2,0,0,0-1.55.71l-.68.81a2,2,0,0,0,.23,2.86l1.43,1.22,3.32-3.9-1.44-1.22A2,2,0,0,0,23.31,49.14Z"/><path class="cls-3" d="M48.2,68.44l-4.49,5.28a2.91,2.91,0,0,1-4.1.33L22.81,59.76a2.91,2.91,0,0,1-.33-4.1L27,50.38a2.91,2.91,0,0,1,4.1-.33l16.8,14.29A2.91,2.91,0,0,1,48.2,68.44Z"/><path class="cls-2" d="M41.49,75.14a3.24,3.24,0,0,1-2.14-.79L22.55,60.06a3.28,3.28,0,0,1-1.15-2.25,3.32,3.32,0,0,1,.78-2.41l4.49-5.28a3.3,3.3,0,0,1,4.66-.37L48.13,64a3.3,3.3,0,0,1,.37,4.66L44,74a3.28,3.28,0,0,1-2.25,1.15ZM29.19,49.76a2.5,2.5,0,0,0-1.91.88l-4.49,5.28a2.45,2.45,0,0,0-.59,1.83,2.5,2.5,0,0,0,.87,1.71l16.8,14.29a2.51,2.51,0,0,0,3.53-.29l4.5-5.28a2.53,2.53,0,0,0-.29-3.54L30.81,50.35A2.47,2.47,0,0,0,29.19,49.76Zm19,18.68Z"/><path class="cls-2" d="M41.49,75.14a3.28,3.28,0,0,1-2.14-.79l-4.69-4a3.31,3.31,0,0,1-.38-4.66l4.49-5.28A3.32,3.32,0,0,1,43.44,60l4.69,4a3.3,3.3,0,0,1,.37,4.66L44,74A3.28,3.28,0,0,1,41.49,75.14Zm-.2-15.09a2.49,2.49,0,0,0-1.91.89l-4.49,5.28a2.5,2.5,0,0,0,.28,3.53l4.7,4a2.51,2.51,0,0,0,3.53-.29l4.5-5.28a2.53,2.53,0,0,0-.29-3.54l-4.69-4A2.51,2.51,0,0,0,41.29,60.05Zm6.91,8.39Z"/><path class="cls-2" d="M27.56,64.2a.4.4,0,0,1-.4-.37l-.27-3.35a2.44,2.44,0,0,1,.58-1.79l3.25-3.83A2.47,2.47,0,0,1,32.39,54l3.36-.28a.4.4,0,0,1,.43.37.39.39,0,0,1-.36.43l-3.36.27a1.67,1.67,0,0,0-1.13.58l-3.25,3.83a1.68,1.68,0,0,0-.4,1.21L28,63.76a.39.39,0,0,1-.36.43Z"/><path class="cls-2" d="M30.53,66.73a.4.4,0,0,1-.4-.37L29.86,63a2.44,2.44,0,0,1,.58-1.79l3.26-3.83a2.39,2.39,0,0,1,1.67-.85l3.35-.28a.39.39,0,0,1,.43.36.4.4,0,0,1-.36.44l-3.36.27a1.67,1.67,0,0,0-1.13.58l-3.25,3.83A1.6,1.6,0,0,0,30.66,63l.27,3.34a.4.4,0,0,1-.37.43Z"/><path class="cls-3" d="M33.61,62.47l-3-2.59a1,1,0,0,1-.11-1.42h0L31,57.8a1,1,0,0,1,1.43-.11l3,2.58Z"/><path class="cls-2" d="M33.61,62.87a.39.39,0,0,1-.26-.1l-3-2.58a1.42,1.42,0,0,1-.16-2l.56-.65a1.38,1.38,0,0,1,1-.5,1.4,1.4,0,0,1,1,.34l3,2.58a.41.41,0,0,1,0,.56.4.4,0,0,1-.56,0l-3-2.59a.64.64,0,0,0-.45-.14.59.59,0,0,0-.41.21l-.56.66a.59.59,0,0,0-.14.44.61.61,0,0,0,.21.42l3,2.58a.4.4,0,0,1,0,.57A.39.39,0,0,1,33.61,62.87Z"/><path class="cls-2" d="M34.54,63.21a1.81,1.81,0,0,1-1.19-.44,1.84,1.84,0,0,1-.64-1.25,1.81,1.81,0,0,1,.43-1.34,1.84,1.84,0,0,1,3.24,1,1.82,1.82,0,0,1-.44,1.34,1.74,1.74,0,0,1-1.25.64Zm0-2.88a1.06,1.06,0,0,0-.79.37h0a1,1,0,0,0-.24.76,1,1,0,0,0,.36.7,1,1,0,0,0,1.47-.11,1.07,1.07,0,0,0,.24-.76,1,1,0,0,0-.36-.71A1,1,0,0,0,34.54,60.33Zm-1.09.11Z"/><path class="cls-3" d="M43,76.91l-3-2.59a1,1,0,0,1-.11-1.42h0l.55-.65a1,1,0,0,1,1.43-.12h0l3,2.59Z"/><path class="cls-2" d="M43,77.31a.39.39,0,0,1-.26-.1l-3-2.58a1.45,1.45,0,0,1-.49-1,1.42,1.42,0,0,1,.33-1l.56-.65a1.37,1.37,0,0,1,1-.49,1.39,1.39,0,0,1,1,.33l3,2.58a.4.4,0,1,1-.51.61l-3-2.58a.62.62,0,0,0-.45-.15.59.59,0,0,0-.41.21l-.56.66a.55.55,0,0,0-.14.44.61.61,0,0,0,.21.42l3,2.59a.4.4,0,0,1-.26.7Z"/><path class="cls-6" d="M44.84,74.72a1.44,1.44,0,1,0,.16,2,1.43,1.43,0,0,0-.16-2Z"/><path class="cls-2" d="M43.9,77.65a1.81,1.81,0,0,1-1.19-.44,1.84,1.84,0,0,1,1-3.23,1.8,1.8,0,0,1,1.33.43,1.84,1.84,0,0,1-1.19,3.24Zm0-2.88h-.08a1,1,0,0,0-.71.36h0a1,1,0,1,0,1.83.59,1,1,0,0,0-.36-.71A1.06,1.06,0,0,0,43.9,74.77Zm-1.09.11Z"/><path class="cls-2" d="M43.05,64.94a2.8,2.8,0,1,0,.32,3.94,2.79,2.79,0,0,0-.32-3.94Z"/><path class="cls-7" d="M41.24,70.26A3.19,3.19,0,0,1,38.81,65h0a3.19,3.19,0,1,1,2.43,5.26Zm-1.82-4.74a2.39,2.39,0,1,0,3.37-.27,2.39,2.39,0,0,0-3.37.27Z"/><path class="cls-3" d="M49.37,69.39l-3-2.58a1,1,0,0,1-.12-1.43l.56-.65a1,1,0,0,1,1.42-.12h0l3,2.59Z"/><path class="cls-2" d="M49.37,69.79a.39.39,0,0,1-.26-.09l-3-2.59a1.41,1.41,0,0,1-.16-2l.55-.65a1.41,1.41,0,0,1,1-.49,1.42,1.42,0,0,1,1,.33l3,2.58L51,67.5l-3-2.58a.59.59,0,0,0-.44-.15.64.64,0,0,0-.42.22l-.55.65a.6.6,0,0,0,.07.86l3,2.59a.4.4,0,0,1,.05.56A.41.41,0,0,1,49.37,69.79Z"/><path class="cls-6" d="M51.23,67.2a1.44,1.44,0,1,0,.17,2,1.44,1.44,0,0,0-.17-2Z"/><path class="cls-2" d="M50.3,70.13a1.83,1.83,0,0,1-1.4-3h0a1.84,1.84,0,0,1,3.23,1.05,1.82,1.82,0,0,1-.43,1.34A1.84,1.84,0,0,1,50.3,70.13Zm-.79-2.51a1,1,0,1,0,1.83.59A1.08,1.08,0,0,0,51,67.5a1,1,0,0,0-1.46.12Z"/><path class="cls-3" d="M50.56,76.89l-3-2.59a1,1,0,0,1-.11-1.42l.55-.66a1,1,0,0,1,1.43-.11l3,2.58Z"/><path class="cls-2" d="M50.56,77.29a.39.39,0,0,1-.26-.1l-3-2.58a1.42,1.42,0,0,1-.16-2l.56-.66a1.41,1.41,0,0,1,1-.49,1.44,1.44,0,0,1,1,.33l3,2.59a.4.4,0,0,1-.51.61l-3-2.59a.67.67,0,0,0-.45-.14.59.59,0,0,0-.41.21l-.56.66a.61.61,0,0,0,.07.86l3,2.58a.4.4,0,0,1,0,.57A.41.41,0,0,1,50.56,77.29Z"/><path class="cls-7" d="M52.43,74.69a1.44,1.44,0,1,0,.16,2,1.44,1.44,0,0,0-.16-2Z"/><path class="cls-2" d="M51.49,77.63a1.81,1.81,0,0,1-1.19-.44,1.84,1.84,0,0,1-.21-2.59h0a1.84,1.84,0,0,1,2.59-.21,1.81,1.81,0,0,1,.65,1.25A1.86,1.86,0,0,1,52.89,77a1.8,1.8,0,0,1-1.25.64Zm-.79-2.51a1,1,0,0,0-.25.75,1.08,1.08,0,0,0,.37.71,1,1,0,0,0,.76.25,1,1,0,0,0,.7-.37A1,1,0,0,0,52.17,75a1,1,0,0,0-1.47.12Z"/><path class="cls-2" d="M47.68,73a.35.35,0,0,1-.25-.1l-4.73-4a.4.4,0,1,1,.52-.6l4.72,4a.4.4,0,0,1,.05.56A.41.41,0,0,1,47.68,73Z"/><path class="cls-2" d="M40.09,73a.38.38,0,0,1-.25-.09l-1-.85a1.79,1.79,0,0,1-.21-2.51l2.31-2.71a.39.39,0,0,1,.56,0,.4.4,0,0,1,0,.56L39.24,70a1,1,0,0,0,.11,1.38l1,.85a.4.4,0,0,1,0,.56A.41.41,0,0,1,40.09,73Z"/><path class="cls-2" d="M41.22,67.49A.38.38,0,0,1,41,67.4a.41.41,0,0,1,0-.57l2.31-2.71a1.78,1.78,0,0,1,2.5-.2l1,.85a.41.41,0,0,1,.05.57.42.42,0,0,1-.57,0l-1-.85a1,1,0,0,0-1.38.11l-2.3,2.71A.41.41,0,0,1,41.22,67.49Z"/><rect class="cls-2" x="21.23" y="51.99" width="5.93" height="1.22" transform="translate(-31.55 36.94) rotate(-49.61)"/><path class="cls-2" d="M22.86,50.48a.73.73,0,0,0-1,.08.73.73,0,0,0,1.11.95.73.73,0,0,0-.09-1Z"/><path class="cls-8" d="M22.72,51.31l1.16,1"/><path class="cls-2" d="M23.88,52.7a.39.39,0,0,1-.26-.1l-1.16-1A.4.4,0,1,1,23,51l1.16,1a.39.39,0,0,1,0,.56A.41.41,0,0,1,23.88,52.7Z"/><path class="cls-8" d="M24.92,53.24,29.39,57"/><path class="cls-2" d="M29.39,57.44a.38.38,0,0,1-.25-.09l-4.48-3.81a.39.39,0,0,1,0-.56.4.4,0,0,1,.56,0l4.47,3.81a.4.4,0,0,1,.05.56A.41.41,0,0,1,29.39,57.44Z"/><path class="cls-3" d="M83.47,50.78l4,4.4,1.7-1.53a2.43,2.43,0,0,0,.19-3.43l-.71-.78a2.42,2.42,0,0,0-3.43-.19Z"/><path class="cls-2" d="M87.39,55.74l-4.48-5,2-1.8a2.83,2.83,0,0,1,4,.22l.7.78a2.83,2.83,0,0,1-.21,4ZM84,50.81l3.41,3.8,1.41-1.26A2,2,0,0,0,89,50.49l-.7-.79a2,2,0,0,0-2.87-.15Z"/><path class="cls-3" d="M62.37,69,67,74.14a2.89,2.89,0,0,0,4.1.22L87.51,59.63a2.9,2.9,0,0,0,.23-4.1l-4.63-5.16A2.9,2.9,0,0,0,79,50.15L62.59,64.88A2.89,2.89,0,0,0,62.37,69Z"/><path class="cls-2" d="M69.16,75.51a3.29,3.29,0,0,1-2.46-1.1l-4.63-5.16a3.31,3.31,0,0,1,.25-4.67L78.73,49.85a3.31,3.31,0,0,1,4.67.25L88,55.26a3.29,3.29,0,0,1,.84,2.39,3.24,3.24,0,0,1-1.09,2.28L71.37,74.66A3.28,3.28,0,0,1,69.16,75.51ZM80.94,49.8a2.46,2.46,0,0,0-1.67.64L62.85,65.17a2.51,2.51,0,0,0-.19,3.55l4.63,5.16a2.52,2.52,0,0,0,3.55.19L87.25,59.34a2.51,2.51,0,0,0,.19-3.55l-4.63-5.16A2.51,2.51,0,0,0,80.94,49.8Z"/><path class="cls-2" d="M69.17,75.51H69a3.28,3.28,0,0,1-2.28-1.09l-4.63-5.16a3.31,3.31,0,0,1,.25-4.67l4.59-4.12a3.3,3.3,0,0,1,4.67.26l4.63,5.16A3.32,3.32,0,0,1,76,70.55l-4.59,4.11A3.28,3.28,0,0,1,69.17,75.51Zm-6.51-6.79,4.63,5.16a2.52,2.52,0,0,0,3.55.19L75.42,70a2.5,2.5,0,0,0,.19-3.54L71,61.25a2.5,2.5,0,0,0-1.73-.83,2.47,2.47,0,0,0-1.81.64l-4.59,4.11a2.52,2.52,0,0,0-.19,3.55Z"/><path class="cls-2" d="M82.88,64.19h0a.4.4,0,0,1-.38-.42l.18-3.35a1.61,1.61,0,0,0-.42-1.2l-3.36-3.74a1.66,1.66,0,0,0-1.14-.55l-3.36-.18a.41.41,0,0,1-.38-.42.4.4,0,0,1,.42-.38l3.36.19a2.41,2.41,0,0,1,1.7.81l3.35,3.74a2.46,2.46,0,0,1,.63,1.77l-.18,3.36A.4.4,0,0,1,82.88,64.19Z"/><path class="cls-2" d="M80,66.8h0a.39.39,0,0,1-.37-.42L79.76,63a1.65,1.65,0,0,0-.43-1.2L76,58.09a1.68,1.68,0,0,0-1.15-.55l-3.36-.19a.39.39,0,0,1-.37-.42.39.39,0,0,1,.42-.37l3.36.18a2.46,2.46,0,0,1,1.69.82l3.36,3.73a2.42,2.42,0,0,1,.62,1.78l-.18,3.35A.4.4,0,0,1,80,66.8Z"/><path class="cls-3" d="M76.79,62.63l3-2.67a1,1,0,0,0,.08-1.42h0l-.58-.64a1,1,0,0,0-1.42-.08h0l-3,2.66Z"/><path class="cls-2" d="M76.79,63a.37.37,0,0,1-.29-.14.39.39,0,0,1,0-.56l3-2.66a.61.61,0,0,0,.05-.87L79,58.16a.62.62,0,0,0-.87,0l-3,2.66-.54-.59,3-2.67a1.4,1.4,0,0,1,2,.11l.58.64a1.43,1.43,0,0,1-.11,2l-3,2.66A.4.4,0,0,1,76.79,63Z"/><path class="cls-2" d="M75.83,63.4h-.1a1.79,1.79,0,0,1-1.27-.61A1.82,1.82,0,0,1,74,61.46a1.87,1.87,0,0,1,.61-1.27,1.84,1.84,0,1,1,2.46,2.73A1.81,1.81,0,0,1,75.83,63.4Zm0-2.88a1,1,0,0,0-.69.26h0a1.06,1.06,0,0,0-.35.72,1.06,1.06,0,0,0,1,1.1,1.06,1.06,0,0,0,.76-.27,1.05,1.05,0,0,0,.08-1.47A1,1,0,0,0,75.83,60.52Zm-1,0Z"/><path class="cls-2" d="M67.42,65.35a2.79,2.79,0,1,1-.21,4,2.79,2.79,0,0,1,.21-4Z"/><path class="cls-7" d="M69.29,70.62h-.18a3.19,3.19,0,0,1-2-5.56h0a3.19,3.19,0,1,1,4.27,4.75A3.16,3.16,0,0,1,69.29,70.62Zm0-5.58a2.35,2.35,0,0,0-1.59.61h0a2.39,2.39,0,0,0-.8,1.65A2.44,2.44,0,0,0,67.5,69a2.36,2.36,0,0,0,1.66.79,2.33,2.33,0,0,0,1.72-.61,2.39,2.39,0,0,0,.19-3.38A2.43,2.43,0,0,0,69.28,65Zm-1.86.31Z"/><path class="cls-3" d="M63.33,72.31l5.35-4.8a1,1,0,0,0,.08-1.42h0l-.58-.64a1,1,0,0,0-1.42-.08l-5.35,4.8Z"/><path class="cls-2" d="M63.33,72.71a.36.36,0,0,1-.29-.13.39.39,0,0,1,0-.56l5.34-4.8a.61.61,0,0,0,0-.87l-.57-.64a.62.62,0,0,0-.87,0l-5.34,4.8a.41.41,0,0,1-.57,0,.42.42,0,0,1,0-.57l5.35-4.8a1.41,1.41,0,0,1,2,.11l.58.64a1.42,1.42,0,0,1-.11,2l-5.35,4.8A.39.39,0,0,1,63.33,72.71Z"/><path class="cls-7" d="M61.41,70.17a1.44,1.44,0,1,1,1.92,2.14,1.42,1.42,0,0,1-2-.11,1.44,1.44,0,0,1,.11-2Z"/><path class="cls-2" d="M62.37,73.08a1.84,1.84,0,1,1,.1-3.67,1.82,1.82,0,0,1,1.27.6,1.86,1.86,0,0,1,.47,1.33,1.83,1.83,0,0,1-.61,1.27A1.81,1.81,0,0,1,62.37,73.08Zm0-2.88a1,1,0,0,0-.69.27h0a1,1,0,0,0-.35.72,1,1,0,1,0,2.08.11,1,1,0,0,0-.26-.75,1.06,1.06,0,0,0-.72-.35Zm-1,0Z"/><path class="cls-3" d="M69.6,71.92,68,70.11l2.64-2.37,1,1.08a1,1,0,0,1-.07,1.38Z"/><path class="cls-2" d="M69.57,72.49l-2.16-2.41,3.24-2.9,1.24,1.38a1.33,1.33,0,0,1,.35,1,1.38,1.38,0,0,1-.45,1Zm-1-2.35,1.09,1.22,1.62-1.46a.51.51,0,0,0,.19-.39.57.57,0,0,0-.14-.42l-.71-.79Z"/><path class="cls-3" d="M66.17,75.48l3-2.67a1,1,0,0,0,.08-1.43h0l-.58-.63a1,1,0,0,0-1.42-.08h0l-3,2.66Z"/><path class="cls-2" d="M66.17,75.87a.39.39,0,0,1-.3-.13.41.41,0,0,1,0-.56l3-2.67a.59.59,0,0,0,.21-.42.65.65,0,0,0-.16-.44L68.35,71a.62.62,0,0,0-.43-.2.6.6,0,0,0-.44.16l-3,2.66A.4.4,0,0,1,64,73l3-2.67a1.4,1.4,0,0,1,2,.11l.57.64a1.37,1.37,0,0,1,.36,1,1.4,1.4,0,0,1-.46,1l-3,2.66A.39.39,0,0,1,66.17,75.87Z"/><path class="cls-7" d="M64.25,73.33a1.44,1.44,0,1,1-.11,2,1.44,1.44,0,0,1,.11-2Z"/><path class="cls-2" d="M65.21,76.24h-.1A1.84,1.84,0,0,1,64,73h0a1.84,1.84,0,1,1,2.46,2.73A1.8,1.8,0,0,1,65.21,76.24Zm-.7-2.61a1.05,1.05,0,0,0-.08,1.47,1.05,1.05,0,0,0,1.47.08,1,1,0,0,0-1.39-1.55Z"/><rect class="cls-2" x="85.34" y="49.54" width="1.22" height="5.93" transform="translate(-13.09 70.85) rotate(-41.91)"/><path class="cls-2" d="M87.22,50.36a.73.73,0,0,1,1,1.08.74.74,0,0,1-1,0,.73.73,0,0,1,.06-1Z"/><path class="cls-8" d="M87.38,51.19l-1.13,1"/><path class="cls-2" d="M86.25,52.6a.39.39,0,0,1-.3-.13.41.41,0,0,1,0-.56l1.14-1a.4.4,0,0,1,.53.59l-1.13,1A.39.39,0,0,1,86.25,52.6Z"/><path class="cls-8" d="M85.23,53.17l-4.37,3.92"/><path class="cls-2" d="M80.86,57.49a.39.39,0,0,1-.29-.13.4.4,0,0,1,0-.57L85,52.87a.4.4,0,0,1,.53.59l-4.37,3.93A.39.39,0,0,1,80.86,57.49Z"/><path class="cls-8" d="M66.09,69.84l-1.86-2.06"/><path class="cls-2" d="M66.09,70.24a.39.39,0,0,1-.3-.13L63.93,68a.4.4,0,0,1,.6-.53l1.85,2.07a.39.39,0,0,1,0,.56A.37.37,0,0,1,66.09,70.24Z"/><path class="cls-8" d="M67.38,68.68l-1.85-2.07"/><path class="cls-2" d="M67.38,69.08a.39.39,0,0,1-.3-.13l-1.85-2.07a.4.4,0,0,1,0-.56.39.39,0,0,1,.56,0l1.86,2.06a.41.41,0,0,1,0,.57A.39.39,0,0,1,67.38,69.08Z"/><path class="cls-6" d="M74.88,68.55a.45.45,0,1,0-.63,0,.44.44,0,0,0,.63,0Z"/><path class="cls-6" d="M73.89,69.44a.44.44,0,0,0,0-.63.43.43,0,0,0-.62,0,.45.45,0,0,0,0,.63.45.45,0,0,0,.63,0Z"/><rect class="cls-3" x="47.17" y="39.96" width="16.85" height="3.79"/><path class="cls-2" d="M64.42,44.15H46.77V39.56H64.42Zm-16.86-.8H63.62v-3H47.56Z"/><path class="cls-3" d="M46.8,28.48a8.78,8.78,0,0,1,17.55,0l-2.42,7.77H49.22Z"/><path class="cls-3" d="M60.05,39.59H51.1A1.76,1.76,0,0,1,49.28,38l-.06-1.75H61.93L61.87,38A1.75,1.75,0,0,1,60.05,39.59Z"/><path class="cls-2" d="M60.05,40H51.1a2.16,2.16,0,0,1-2.22-2l-.07-2.16H62.34L62.27,38A2.16,2.16,0,0,1,60.05,40ZM49.64,36.64l0,1.35A1.36,1.36,0,0,0,51.1,39.2h8.95A1.36,1.36,0,0,0,61.47,38l.05-1.35Z"/><path class="cls-9" d="M53.21,33a5.63,5.63,0,0,1-3.6-5c0-1.36.11-1.54.41-1.9,1,0,3,1,5.35.94a21.65,21.65,0,0,0,5.68-1.17c.34.4.42.69.38,2.13a5.64,5.64,0,0,1-3.6,5Z"/><path class="cls-2" d="M52.84,33.44a.45.45,0,0,1-.16,0,6.28,6.28,0,0,1-3.79-5.51A6.17,6.17,0,0,1,49.12,26a.41.41,0,0,1,.5-.27.4.4,0,0,1,.27.49,5.22,5.22,0,0,0-.2,1.62A5.48,5.48,0,0,0,53,32.68a.4.4,0,0,1,.2.53A.41.41,0,0,1,52.84,33.44Z"/><path class="cls-2" d="M58.17,33.41a.38.38,0,0,1-.36-.23.39.39,0,0,1,.19-.53,5.43,5.43,0,0,0,3.25-4.77A5.22,5.22,0,0,0,61,26.13a.4.4,0,0,1,.76-.24,6,6,0,0,1,.28,2,6.25,6.25,0,0,1-3.71,5.48A.51.51,0,0,1,58.17,33.41Z"/><path class="cls-2" d="M46.79,28.76a.4.4,0,0,1-.39-.38L46,20.12a.4.4,0,0,1,.8,0l.36,8.26a.4.4,0,0,1-.38.42Z"/><path class="cls-2" d="M64.36,28.76h0a.4.4,0,0,1-.38-.42l.47-10.72a.4.4,0,1,1,.8,0l-.47,10.72A.4.4,0,0,1,64.36,28.76Z"/><path class="cls-3" d="M47.62,31.86h-.89a1.35,1.35,0,0,1-1.37-1.23l-.17-3.19a1.24,1.24,0,0,1,1.28-1.29h.39Z"/><path class="cls-2" d="M47.62,32.26h-.89A1.75,1.75,0,0,1,45,30.65l-.17-3.19a1.57,1.57,0,0,1,.44-1.18,1.7,1.7,0,0,1,1.24-.53h.39a.4.4,0,0,1,0,.8h-.39a.89.89,0,0,0-.66.28.81.81,0,0,0-.22.59l.17,3.19a1,1,0,0,0,1,.85h.89a.4.4,0,1,1,0,.8Z"/><path class="cls-3" d="M63.56,31.86h.89a1.37,1.37,0,0,0,1.38-1.23L66,27.44a1.24,1.24,0,0,0-1.28-1.29h-.39Z"/><path class="cls-2" d="M64.45,32.26h-.89a.4.4,0,0,1,0-.8h.89a1,1,0,0,0,1-.85l.17-3.19a.81.81,0,0,0-.22-.59.91.91,0,0,0-.67-.28h-.39a.4.4,0,1,1,0-.8h.39a1.67,1.67,0,0,1,1.24.53,1.53,1.53,0,0,1,.44,1.18l-.16,3.19A1.77,1.77,0,0,1,64.45,32.26Z"/><path class="cls-2" d="M46.83,27.48a.4.4,0,0,1-.28-.68c1.58-1.62,3.54-1.15,5.62-.66a14.28,14.28,0,0,0,3.41.54A13.69,13.69,0,0,0,59,26.06c2-.55,3.95-1.07,5.49.37a.4.4,0,0,1,0,.56A.41.41,0,0,1,64,27c-1.21-1.14-2.84-.69-4.74-.18a13.84,13.84,0,0,1-3.64.65,15.56,15.56,0,0,1-3.6-.56c-2-.48-3.6-.86-4.86.44A.4.4,0,0,1,46.83,27.48Z"/><path class="cls-2" d="M62.9,33.44H48.27a.4.4,0,0,1,0-.8H62.9a.4.4,0,0,1,0,.8Z"/><path class="cls-10" d="M58.15,29.05a1.51,1.51,0,0,1-1.54,1.44,1.45,1.45,0,1,1,1.54-1.44Z"/><path class="cls-10" d="M59.09,30.86a.6.6,0,0,1-.62.57.59.59,0,0,1-.61-.57.62.62,0,0,1,.63-.58.58.58,0,0,1,.6.58Z"/><path class="cls-6" d="M35.64,38.62a.39.39,0,0,1-.28-.12l-3.44-3.44H30.57a.4.4,0,0,1-.4-.4v-.95H29a.39.39,0,0,1-.4-.4V31.78L27,30.19a.4.4,0,0,1,.57-.57l1.71,1.71a.44.44,0,0,1,.11.29v1.29h1.23a.4.4,0,0,1,.4.4v.95h1.12a.4.4,0,0,1,.28.12l3.56,3.55a.42.42,0,0,1,0,.57A.4.4,0,0,1,35.64,38.62Z"/><path class="cls-2" d="M28.07,31.14a.39.39,0,0,1-.28-.12L27,30.19a.4.4,0,0,1,.57-.57l.83.84a.39.39,0,0,1,0,.56A.39.39,0,0,1,28.07,31.14Z"/><path class="cls-2" d="M35.64,38.62a.39.39,0,0,1-.28-.12L33,36.12a.4.4,0,0,1,0-.57.4.4,0,0,1,.56,0l2.39,2.38a.42.42,0,0,1,0,.57A.4.4,0,0,1,35.64,38.62Z"/><path class="cls-6" d="M42.22,39.27a.39.39,0,0,1-.28-.12.39.39,0,0,1,0-.56l1.33-1.33a.4.4,0,0,1,.56.56L42.5,39.15A.39.39,0,0,1,42.22,39.27Z"/><path class="cls-3" d="M44.06,49.84,35.64,41.5a2.33,2.33,0,0,1,0-3.28l2.66-2.66a2.33,2.33,0,0,1,3.28,0L47,41Z"/><path class="cls-2" d="M43.78,50.13l-8.42-8.35a2.73,2.73,0,0,1,0-3.85L38,35.28a2.72,2.72,0,0,1,3.84,0l5.4,5.4-.56.57-5.41-5.41a1.93,1.93,0,0,0-2.71,0L35.93,38.5a1.91,1.91,0,0,0,0,2.71l8.41,8.35Z"/><path class="cls-2" d="M42,41.14a1.74,1.74,0,0,1-1.26-.52l-.27-.27a1.79,1.79,0,0,1,0-2.52l2-2,2.79,2.79-2,2A1.77,1.77,0,0,1,42,41.14ZM42.44,37,41,38.4a1,1,0,0,0,0,1.39l.27.27a1,1,0,0,0,.7.28,1,1,0,0,0,.69-.28l1.41-1.41Z"/><path class="cls-6" d="M40.93,42.38a.77.77,0,1,0,0,1.09h0a.77.77,0,0,0,0-1.09Z"/><path class="cls-6" d="M39.32,40.76a.77.77,0,0,0-1.09,1.09.76.76,0,0,0,1.09,0h0a.77.77,0,0,0,0-1.09Z"/><path class="cls-6" d="M37.74,39.19a.77.77,0,1,0,0,1.09h0a.77.77,0,0,0,0-1.09Z"/><path class="cls-2" d="M37.14,37.12a.39.39,0,0,1-.28-.12l-4-4a.4.4,0,0,1,.56-.56l4,4a.39.39,0,0,1,0,.56A.39.39,0,0,1,37.14,37.12Z"/><path class="cls-3" d="M64.1,43.48l5.3-5.29a3,3,0,1,1,4.28,4.27h0L68,48.18Z"/><path class="cls-2" d="M68.26,48.46l-.56-.56,5.71-5.72a2.63,2.63,0,0,0-3.73-3.71l-5.3,5.3-.56-.57,5.29-5.29a3.41,3.41,0,0,1,2.43-1h0A3.43,3.43,0,0,1,74,42.75Z"/><path class="cls-2" d="M73.77,38.52a.37.37,0,0,1-.28-.11.4.4,0,0,1,0-.57l4-4a.4.4,0,1,1,.56.56l-4,4A.38.38,0,0,1,73.77,38.52Z"/><path class="cls-2" d="M77.5,38.62a.4.4,0,0,1-.29-.12l-3.45-3.45a.4.4,0,0,1,0-.57.4.4,0,0,1,.56,0l3.46,3.46a.4.4,0,0,1,0,.56A.39.39,0,0,1,77.5,38.62Z"/><path class="cls-6" d="M75.67,36.79a.38.38,0,0,1-.28-.11l-1.63-1.63a.4.4,0,0,1,0-.57.4.4,0,0,1,.56,0L76,36.11a.4.4,0,0,1,0,.57A.37.37,0,0,1,75.67,36.79Z"/><path class="cls-2" d="M78.88,37.23a.39.39,0,0,1-.28-.12l-3.45-3.45a.4.4,0,0,1,0-.57.4.4,0,0,1,.56,0l3.46,3.46a.4.4,0,0,1,0,.56A.4.4,0,0,1,78.88,37.23Z"/><path class="cls-6" d="M76.87,35.22a.39.39,0,0,1-.28-.12l-1.66-1.66a.4.4,0,0,1,.56-.56l1.66,1.65a.4.4,0,0,1,0,.57A.38.38,0,0,1,76.87,35.22Z"/><path class="cls-3" d="M82,33.5a2.7,2.7,0,0,1-3.82-3.83Z"/><path class="cls-2" d="M80.09,34.69h0a3,3,0,0,1-2.19-.91,3.11,3.11,0,0,1,0-4.39.39.39,0,0,1,.28-.11h0a.41.41,0,0,1,.28.11l3.83,3.83a.41.41,0,0,1,.11.28.39.39,0,0,1-.11.28A3.09,3.09,0,0,1,80.09,34.69ZM78.2,30.26a2.3,2.3,0,0,0,1.89,3.63h0a2.32,2.32,0,0,0,1.33-.41Z"/><path class="cls-2" d="M80,31.92a.39.39,0,0,1-.28-.12.4.4,0,0,1,0-.56L83,28a.4.4,0,0,1,.56,0,.4.4,0,0,1,0,.57L80.31,31.8A.4.4,0,0,1,80,31.92Z"/><path class="cls-6" d="M84.09,28.27a.82.82,0,0,0-.82-.81.81.81,0,0,0-.81.81.82.82,0,0,0,.81.82h0a.82.82,0,0,0,.82-.82Z"/><path class="cls-6" d="M69.74,41.6a.41.41,0,0,1-.28-.69l2.05-2a.4.4,0,0,1,.56.56l-2,2A.38.38,0,0,1,69.74,41.6Z"/><path class="cls-2" d="M70.44,45.9h-.79V43.53a.39.39,0,0,1,.11-.28L72,41a.39.39,0,0,1,.56,0l1,1-.56.56-.69-.68-1.87,1.86V45.9Z"/><path class="cls-2" d="M51.73,36a.4.4,0,0,1-.26-.71c1.89-1.6,4.57-2,8-1.28a.39.39,0,1,1-.17.77c-3.14-.69-5.58-.31-7.28,1.12A.39.39,0,0,1,51.73,36Z"/><path class="cls-2" d="M69.23,47.18H41a.4.4,0,0,1,0-.8H69.23a.4.4,0,0,1,0,.8Z"/><path class="cls-2" d="M67.25,57.1H44.81a.4.4,0,0,1,0-.8H67.25a.4.4,0,0,1,0,.8Z"/><path class="cls-2" d="M71.55,45H38.77a.4.4,0,0,1,0-.8H71.55a.4.4,0,1,1,0,.8Z"/><rect class="cls-2" x="60.53" y="46.78" width="0.8" height="9.92"/><rect class="cls-2" x="50.6" y="46.78" width="0.8" height="9.92"/><path class="cls-2" d="M33.4,52.3a.39.39,0,0,1-.3-.13.41.41,0,0,1,0-.57l5.07-4.42a.4.4,0,0,1,.56,0,.39.39,0,0,1,0,.56L33.66,52.2A.35.35,0,0,1,33.4,52.3Z"/><path class="cls-2" d="M76,53.05a.39.39,0,0,1-.23-.07l-5.43-4a.4.4,0,0,1,.47-.65l5.43,4a.4.4,0,0,1,.09.56A.39.39,0,0,1,76,53.05Z"/></g><g id="Reflects"><path class="cls-10" d="M48.46,23.84a14.32,14.32,0,0,1,1.45-1.36c.26-.2.54-.4.81-.59s.28-.19.42-.27l.44-.26.45-.23.23-.11.23-.1.24-.09.12,0,.06,0,.06,0,.24-.08.25-.08.25-.07.12,0,.13,0,.25-.05h.12l.13,0,.26,0,.25,0h1l.26,0,.25,0,.26,0,.12,0,.13,0,.25.05.13,0,.12,0c.16.05.33.09.49.15l.24.09.12,0,.12.05.23.1.23.11.23.11.22.12.22.13.22.13.22.13.2.14.21.15.2.15.2.15.19.16a11.66,11.66,0,0,1,1.43,1.38l0,0A17.9,17.9,0,0,0,61,22.64a13.28,13.28,0,0,0-1.68-1,9.42,9.42,0,0,0-1.83-.69l-.12,0-.12,0L57,20.81l-.12,0-.12,0-.25,0-.24,0-.25,0h-.49a7.88,7.88,0,0,0-1.93.27,9.61,9.61,0,0,0-1.83.7,15.09,15.09,0,0,0-1.69,1,18.38,18.38,0,0,0-1.55,1.21Z"/><path class="cls-10" d="M70.76,37.68l.17,0,.18,0h.34a3.26,3.26,0,0,1,.7.07l.18,0,.17.06.33.14L73,38l.16.1.07.06.08.06a1.49,1.49,0,0,1,.14.12,3.33,3.33,0,0,1,.25.28c0,.05.07.1.1.16a.86.86,0,0,1,.1.16,2,2,0,0,1,.15.33.7.7,0,0,1,.06.17l0,.09,0,.09a3,3,0,0,1,0,1.39h0c0-.22,0-.44-.09-.65a3.26,3.26,0,0,0-.18-.63,2.7,2.7,0,0,0-.69-1.1,3,3,0,0,0-1.1-.67,4.64,4.64,0,0,0-.64-.17c-.21,0-.43-.08-.65-.1Z"/><path class="cls-10" d="M37,37.76a3.55,3.55,0,0,1,.38-.62,6.26,6.26,0,0,1,.45-.57l.26-.26.13-.12.14-.12a4.28,4.28,0,0,1,.61-.44,2.92,2.92,0,0,1,.36-.17l.21-.07.23,0H40l.2,0a1.66,1.66,0,0,1,.38.11,2.73,2.73,0,0,1,.67.37,7258926538342.75,7258926538342.75,0,0,0,.28.26l.12.14.11.15,0,0a4,4,0,0,0-.59-.38,2.93,2.93,0,0,0-.64-.25l-.34-.07h-.35a1.92,1.92,0,0,0-.64.24,5.87,5.87,0,0,0-.58.39c-.19.14-.37.29-.55.44l-.51.48-.5.5Z"/><path class="cls-10" d="M22.08,49.59c-.1.19-.21.36-.31.53l-.31.49-.15.24-.14.24-.12.23a.61.61,0,0,0-.05.12.37.37,0,0,0-.05.11,1.66,1.66,0,0,0-.06.21.93.93,0,0,0,0,.23,1,1,0,0,0,0,.25,2.06,2.06,0,0,0,0,.26,5.1,5.1,0,0,0,.4,1.08l0,0a2.83,2.83,0,0,1-.65-1A1.74,1.74,0,0,1,20.5,52a1.61,1.61,0,0,1,0-.31,1.37,1.37,0,0,1,.07-.29,2.73,2.73,0,0,1,.27-.54,5.64,5.64,0,0,1,.77-.92,5.48,5.48,0,0,1,.44-.4Z"/><path class="cls-10" d="M88.06,49.58a1.82,1.82,0,0,1,.27.15l.25.18a3.68,3.68,0,0,1,.45.43c.07.08.13.17.19.25s.12.18.18.27.1.2.14.3l.06.16,0,.16a1.5,1.5,0,0,1,0,.37,1.1,1.1,0,0,1,0,.18.88.88,0,0,1,0,.17c0,.11-.06.22-.1.33a2.1,2.1,0,0,1-.15.3,2,2,0,0,1-.41.5l-.12.1-.12.1a1.51,1.51,0,0,1-.28.15l0,0a3,3,0,0,0,.68-.94,2.23,2.23,0,0,0,.16-.56,2.83,2.83,0,0,0,0-.29,1.37,1.37,0,0,0,0-.28,3.37,3.37,0,0,0-.5-1c-.11-.16-.22-.32-.34-.47s-.25-.31-.38-.45Z"/><path class="cls-10" d="M43,45.29c2.15-.14,4.29-.22,6.44-.27l.8,0H51l1.61,0h6.44l1.61,0h.8l.81,0c2.14.06,4.29.13,6.44.27v0l-12.88,0L43,45.33Z"/><path class="cls-10" d="M48.05,40.8c1.29-.14,2.59-.22,3.88-.27s2.58-.08,3.88-.07,2.58,0,3.87.07,2.59.13,3.88.27v0H48.05v0Z"/><path class="cls-10" d="M29.93,49.72a11.54,11.54,0,0,1,1.45.86c.46.32.9.66,1.33,1s.84.73,1.23,1.13A11.34,11.34,0,0,1,35.05,54l0,0-.65-.53L33.73,53l-1.28-1.06-1.28-1.08-.63-.54-.64-.54Z"/><path class="cls-10" d="M42,60a10.5,10.5,0,0,1,1.45.87c.46.32.9.65,1.33,1s.84.74,1.23,1.13a11.46,11.46,0,0,1,1.11,1.28l0,0-.65-.53-.64-.53-1.28-1.07-1.28-1.07-.63-.54-.64-.54Z"/><path class="cls-10" d="M38.43,57l.24.08.23.1a3.68,3.68,0,0,1,.44.23,5.89,5.89,0,0,1,.78.56,5.46,5.46,0,0,1,.69.67,2.88,2.88,0,0,1,.3.39,2.43,2.43,0,0,1,.26.44l0,0-.38-.3-.37-.31-.74-.61-.73-.62-.37-.32L38.4,57Z"/><path class="cls-10" d="M35.38,54.32l.22.07.22.08.39.19a5.47,5.47,0,0,1,1.31,1.1c.09.12.18.23.26.36a1.94,1.94,0,0,1,.22.4l0,0-.34-.27L37.31,56l-.66-.54L36,54.91l-.33-.27-.32-.29Z"/><path class="cls-10" d="M75,54.24a11.23,11.23,0,0,1,1.06-1.31c.39-.41.79-.79,1.2-1.16s.85-.72,1.3-1.05A10.4,10.4,0,0,1,80,49.81l0,0-.61.56-.63.56-1.24,1.11-1.25,1.1-.63.56-.63.54Z"/><path class="cls-10" d="M62.25,65.91a15.68,15.68,0,0,1,1.42-1.62c.5-.51,1-1,1.55-1.48s1.08-.93,1.65-1.37a18.62,18.62,0,0,1,1.78-1.22l0,0-.8.72-.79.71-1.6,1.43-1.61,1.42-.8.71-.81.7Z"/><path class="cls-10" d="M69,59.8a2.4,2.4,0,0,1,.11-.23,2.39,2.39,0,0,0,.13-.21c.1-.14.19-.27.3-.4a4.85,4.85,0,0,1,.67-.69,6.18,6.18,0,0,1,.76-.59c.14-.08.28-.17.43-.24a2.72,2.72,0,0,1,.47-.19l0,0-.35.32-.36.33-.71.64-.73.63-.36.32-.36.31Z"/><path class="cls-10" d="M72.36,56.8a1.8,1.8,0,0,1,.08-.21l.11-.19a4,4,0,0,1,.23-.34,4.57,4.57,0,0,1,.56-.6A5.12,5.12,0,0,1,74,55l.38-.19a2.86,2.86,0,0,1,.41-.15l0,0-.3.28-.3.28-.61.54L73,56.3l-.31.27-.31.26Z"/></g><path class="cls-2" d="M62.22,36.64H48.93L46.4,28.55V28.5a8.44,8.44,0,0,1,2.38-6.26,9.53,9.53,0,0,1,13.59,0,8.44,8.44,0,0,1,2.38,6.26v.05l0,.05Zm-12.7-.79H61.64L64,28.41a7.68,7.68,0,0,0-2.17-5.62,8.73,8.73,0,0,0-12.43,0,7.67,7.67,0,0,0-2.16,5.62Z"/><path class="cls-11" d="M38.08,74.75v27.68a18.5,18.5,0,0,0,37,0V74.75Z"/><g id="Group"><polygon class="cls-10" points="81.46 107.58 82.25 109.12 81.65 111.65 80.23 110.49 80.48 108.64 81.46 107.58"/><path class="cls-2" d="M79.37,107.06a.3.3,0,0,1-.3-.29v-2.33a.3.3,0,0,1,.3-.3.29.29,0,0,1,.29.3v2.33a.29.29,0,0,1-.29.29"/><path class="cls-2" d="M79.84,107.06h-.91a.3.3,0,1,1,0-.59h.91a.3.3,0,1,1,0,.59"/><path class="cls-10" d="M81.46,107.58l1-.92a4.1,4.1,0,1,0-2.9,7c.85,0,1.59.31,2.24-.13l.81.11,0-1.32-2.33-1.84.5-2.35.73-.56"/><path class="cls-2" d="M79.53,114.07a4.51,4.51,0,1,1,3.19-7.69l.29.29-1.27,1.2-.55-.58.65-.62a3.7,3.7,0,1,0-2.31,6.6"/><path class="cls-9" d="M81.79,111.76l-.58-.56a2.32,2.32,0,0,0,.66-1.63,2.34,2.34,0,0,0-.71-1.69l-.3-.29.33-.3.27.29.27-.27a3.15,3.15,0,0,1,.06,4.45"/><path class="cls-5" d="M78.6,109.57a.93.93,0,1,1,.93.92.93.93,0,0,1-.93-.92"/><path class="cls-2" d="M79.53,109a.53.53,0,1,0,.52.53.52.52,0,0,0-.52-.53m0,1.85a1.33,1.33,0,1,1,1.33-1.32,1.33,1.33,0,0,1-1.33,1.32"/><path class="cls-2" d="M82.43,106.66l-2.34,2.17"/><polygon class="cls-12" points="82.16 106.37 82.71 106.96 80.36 109.12 79.82 108.53 82.16 106.37"/><polyline class="cls-10" points="79.97 110.38 81.65 111.65 82.56 112.33 82.56 114.07 80.73 113.98"/><polygon class="cls-2" points="82.96 114.07 79.46 114.07 79.46 113.27 82.16 113.27 82.16 112.53 79.73 110.7 80.21 110.06 82.96 112.13 82.96 114.07"/><path class="cls-2" d="M78,107.87a.29.29,0,0,1-.29-.29v-3.14a.29.29,0,0,1,.29-.3.3.3,0,0,1,.3.3v3.14a.3.3,0,0,1-.3.29"/></g><polygon class="cls-13" points="89.58 103.69 58.09 103.69 58.09 103.69 26.6 103.69 27.8 102.07 33.37 101.77 28.21 101.5 29.49 99.78 35.6 99.45 29.95 99.15 30.79 98.01 30.3 97.35 34.44 97.13 29.96 96.89 28.69 95.16 35.38 94.81 28.56 94.44 28.14 94.42 26.6 92.33 58.09 92.33 58.09 92.33 89.58 92.33 87.98 94.5 82.24 94.81 87.55 95.09 86.29 96.8 80.01 97.13 85.82 97.44 85.39 98.01 86.26 99.18 81.17 99.45 86.67 99.74 87.87 101.37 87.05 101.41 80.23 101.77 87.05 102.14 88.49 102.21 89.58 103.69"/><path class="cls-10" d="M56.58,91c7.36,0,13.33.06,13.33.15s-6,.15-13.33.15-13.33-.07-13.33-.15S49.22,91,56.58,91Z"/><path class="cls-10" d="M56.58,90c6.44,0,11.67.07,11.67.15s-5.23.16-11.67.16-11.66-.07-11.66-.16S50.14,90,56.58,90Z"/><path class="cls-10" d="M56.58,89.07c5.52,0,10,.07,10,.15s-4.48.15-10,.15-10-.07-10-.15S51.06,89.07,56.58,89.07Z"/><path class="cls-10" d="M56.58,105c7.36,0,13.33-.07,13.33-.15s-6-.15-13.33-.15-13.33.07-13.33.15S49.22,105,56.58,105Z"/><path class="cls-10" d="M56.58,106.05c6.44,0,11.67-.07,11.67-.15s-5.23-.16-11.67-.16-11.66.07-11.66.16S50.14,106.05,56.58,106.05Z"/><path class="cls-10" d="M56.58,107c5.52,0,10-.07,10-.15s-4.48-.15-10-.15-10,.06-10,.15S51.06,107,56.58,107Z"/><text class="cls-14" transform="translate(48.98 86.73)"><tspan class="cls-15">Y</tspan><tspan x="3" y="0">OUR</tspan></text><text class="cls-16" transform="translate(32.91 99.75)">UTILI<tspan class="cls-17" x="13" y="0">T</tspan><tspan x="16.31" y="0">Y </tspan><tspan class="cls-18" x="21.05" y="0">T</tspan><tspan class="cls-19" x="24.04" y="0">OKEN IS A</tspan></text><text class="cls-14" transform="translate(44.58 111.5)">SECURI<tspan class="cls-20" x="18.47" y="0">T</tspan><tspan x="21.7" y="0">Y</tspan></text><polygon class="cls-10" points="75.14 74.75 75.08 74.75 38.08 74.75 38.02 74.75 38.02 91.33 38.08 91.33 39.28 91.33 39.28 76.02 73.88 76.02 73.88 91.33 75.08 91.33 75.14 91.33 75.14 74.75"/><path class="cls-10" d="M75,104.14H73.76a17.29,17.29,0,0,1-34.36,0H38.14a18.55,18.55,0,0,0,36.89,0Z"/><path class="cls-10" d="M67.77,113a15.67,15.67,0,0,1-22.36,0,16,16,0,0,1-4.51-8.87h-.59A16.55,16.55,0,0,0,45,113.43a16.43,16.43,0,0,0,27.87-9.29h-.6A15.93,15.93,0,0,1,67.77,113Z"/><path class="cls-10" d="M72.73,77.17H40.43a.29.29,0,0,0-.29.29V91.33h.59V77.76h31.7V91.33H73V77.46A.3.3,0,0,0,72.73,77.17Z"/></svg>