<svg id="Layer_1" data-name="Layer 1" xmlns="http://www.w3.org/2000/svg" xmlns:xlink="http://www.w3.org/1999/xlink" viewBox="0 0 110.88 128.04"><defs><style>.cls-1{fill:none;}.cls-2{fill:#d7d7eb;}.cls-14,.cls-3{fill:#62c08d;}.cls-4{fill:#0e2a47;}.cls-5{fill:#48ba78;}.cls-16,.cls-17,.cls-6{fill:#fff;}.cls-7{fill:#eff4ee;}.cls-8{fill:#9393b5;}.cls-9{fill:#bec5ce;}.cls-10{clip-path:url(#clip-path);}.cls-11{fill:url(#linear-gradient);}.cls-12,.cls-13{fill:#1a0c3d;}.cls-13,.cls-14{fill-rule:evenodd;}.cls-15{fill:#190b3c;}.cls-16{font-size:4.98px;}.cls-16,.cls-17{font-family:Muli-ExtraBold, Muli;font-weight:800;}.cls-17{font-size:4.98px;}</style><clipPath id="clip-path"><path class="cls-1" d="M78,61.23a.44.44,0,0,0-.2.59L91.53,87.11a.46.46,0,0,0,.61.18l.43-.21a.43.43,0,0,0,.19-.59L79,61.2a.45.45,0,0,0-.61-.18Z"/></clipPath><linearGradient id="linear-gradient" x1="-66.84" y1="-61.5" x2="-66.4" y2="-61.5" gradientTransform="translate(1687.85 -5820.42) rotate(-117.5) scale(67.38)" gradientUnits="userSpaceOnUse"><stop offset="0" stop-color="#70c388"/><stop offset="1" stop-color="#5bc095"/></linearGradient></defs><title>die cut</title><path class="cls-2" d="M72,75.34a6.29,6.29,0,0,1-1.56-1l-.1,0s0-.08,0-.12a5.12,5.12,0,0,1-1.6-2.36l-.18-.66h0a8.12,8.12,0,0,0-3.25-4s0,0,0,0a1.31,1.31,0,0,0-1.61-.33c-5-1.94-10.51-1.06-13.5,2.89-1.21,1.17-2.19,2.59-3.34,3.85a1.2,1.2,0,0,0-.28.48h-.18a1.38,1.38,0,0,0-1.16.75l-.25.51a1.21,1.21,0,0,0,.28,1.4c.07,1,.12,2,.1,3.07a1.47,1.47,0,0,0,2.39,1.12,5.71,5.71,0,0,0,2.55,3.51,1.28,1.28,0,0,0,1.47-.1,1.41,1.41,0,0,0,1.66-.49A1.39,1.39,0,0,0,53,81.93a2.75,2.75,0,0,0-1-.45,11.76,11.76,0,0,1-1.49-6.13,1.35,1.35,0,0,0,.33-.64,9,9,0,0,1,.91-2.55,9.09,9.09,0,0,1,2.93-2,1.14,1.14,0,0,0,.49.34,1.31,1.31,0,0,0,1.43.59,9.56,9.56,0,0,1,3-.53,1.3,1.3,0,0,0,.73-.18,7.3,7.3,0,0,0,2.71.08A12.07,12.07,0,0,0,65,71.3a1.65,1.65,0,0,0,.56.08A7.11,7.11,0,0,1,66.31,73a1.11,1.11,0,0,0-.14,1.13,13.55,13.55,0,0,1,.53,3.41,1.26,1.26,0,0,0,.14.4l0,.53c-.24,1.06-.52,2-1.72,2.3-1.73.4-1.36,3.17.37,2.76l.63-.17A1.53,1.53,0,0,0,68.77,83a12.85,12.85,0,0,0,.39-1.43,1.56,1.56,0,0,0,.67,0,4.21,4.21,0,0,0,1.85-.76,3.07,3.07,0,0,0,.79-1.85,10,10,0,0,0-.08-3.4c-.13,0-.27-.09-.4-.15"/><polygon class="cls-3" points="48.63 83.54 66.98 83.54 68.53 84.14 67.36 88.32 49.79 88.32 48.63 83.54"/><path class="cls-2" d="M64.88,93.5H52.27A2.49,2.49,0,0,1,49.79,91V88.32H67.36V91a2.49,2.49,0,0,1-2.48,2.49"/><path class="cls-4" d="M64.88,94.07H52.27A3.06,3.06,0,0,1,49.22,91V87.75H67.93V91a3.06,3.06,0,0,1-3.05,3.06M50.36,88.89V91a1.91,1.91,0,0,0,1.91,1.91H64.88A1.91,1.91,0,0,0,66.79,91V88.89Z"/><path class="cls-5" d="M55.35,83.54a7.85,7.85,0,0,1-2.9-12.16c1.44-1.74,10.48-1.83,11.91-.2a7.75,7.75,0,0,1,2,5.19,7.84,7.84,0,0,1-4.68,7.17"/><path class="cls-4" d="M54.86,84.11a.54.54,0,0,1-.25-.06,8.78,8.78,0,0,1-3.56-12.6.58.58,0,0,1,.79-.17.57.57,0,0,1,.17.79,7.64,7.64,0,0,0,3.1,11,.57.57,0,0,1-.25,1.08"/><path class="cls-4" d="M62.1,84.07a.58.58,0,0,1-.51-.31.57.57,0,0,1,.26-.77,7.63,7.63,0,0,0,2.74-11.32.56.56,0,0,1,.12-.8.57.57,0,0,1,.8.12,8.77,8.77,0,0,1-3.15,13,.62.62,0,0,1-.26.06"/><path class="cls-4" d="M67.81,88.89H49.34l-3-11.82V77a12.24,12.24,0,0,1,24.47,0v.08l0,.06ZM50.23,87.75H66.92l2.75-10.83a11.1,11.1,0,0,0-22.19,0Z"/><path class="cls-4" d="M46.91,77.4a.58.58,0,0,1-.57-.58V65.72a.58.58,0,0,1,.57-.57.57.57,0,0,1,.57.57v11.1a.57.57,0,0,1-.57.58"/><path class="cls-4" d="M70.24,77.4a.58.58,0,0,1-.57-.58V62.59a.57.57,0,0,1,.57-.57.56.56,0,0,1,.57.57V76.82a.57.57,0,0,1-.57.58"/><path class="cls-4" d="M47.82,82.38H46.61A2.34,2.34,0,0,1,44.27,80v-4.5a2.34,2.34,0,0,1,2.34-2.34h.52a.57.57,0,0,1,.57.57.58.58,0,0,1-.57.57h-.52a1.2,1.2,0,0,0-1.2,1.2V80a1.2,1.2,0,0,0,1.2,1.2h1.21a.57.57,0,0,1,.57.57.56.56,0,0,1-.57.57"/><path class="cls-4" d="M70.58,82.38H69.37a.57.57,0,0,1-.57-.57.58.58,0,0,1,.57-.57h1.21a1.2,1.2,0,0,0,1.2-1.2v-4.5a1.2,1.2,0,0,0-1.2-1.2h-.51a.57.57,0,0,1-.57-.57.56.56,0,0,1,.57-.57h.51a2.34,2.34,0,0,1,2.34,2.34V80a2.34,2.34,0,0,1-2.34,2.34"/><path class="cls-4" d="M47,75.61a.55.55,0,0,1-.4-.16.57.57,0,0,1,0-.81,16.89,16.89,0,0,1,23.75-.51.57.57,0,0,1,0,.81.58.58,0,0,1-.81,0,15.73,15.73,0,0,0-22.15.47.54.54,0,0,1-.4.17"/><path class="cls-4" d="M68.53,84.11H48.63a.57.57,0,0,1-.57-.57.58.58,0,0,1,.57-.57h19.9a.57.57,0,0,1,.57.57.56.56,0,0,1-.57.57"/><path class="cls-6" d="M62.67,73.77a2,2,0,1,1-2-2,2,2,0,0,1,2,2"/><path class="cls-6" d="M64.13,76.82A.83.83,0,1,1,63.3,76a.83.83,0,0,1,.83.82"/><path class="cls-4" d="M65.63,87.26a1.79,1.79,0,0,1-1.48-1c-.25-.39-.36-.51-.53-.51s-.28.12-.53.51a1.6,1.6,0,0,1-3,0c-.25-.39-.36-.51-.53-.51s-.28.12-.53.51a1.59,1.59,0,0,1-3,0c-.26-.39-.37-.51-.54-.51s-.27.12-.53.51a1.6,1.6,0,0,1-3,0c-.25-.39-.36-.51-.53-.51a.58.58,0,0,1-.57-.57.57.57,0,0,1,.57-.57,1.8,1.8,0,0,1,1.49,1c.25.38.36.5.53.5s.27-.12.53-.5a1.59,1.59,0,0,1,3,0c.25.38.36.5.53.5s.27-.12.53-.5a1.58,1.58,0,0,1,3,0c.26.38.37.5.54.5s.27-.12.53-.5a1.58,1.58,0,0,1,3,0c.26.38.36.5.53.5a.57.57,0,0,1,.57.57.56.56,0,0,1-.57.57"/><rect class="cls-2" x="46.22" y="102.03" width="26.1" height="6.1"/><rect class="cls-2" x="49.73" y="98.05" width="17.95" height="3.79"/><rect class="cls-4" x="45.85" y="107.89" width="26.3" height="1.14"/><polygon class="cls-4" points="45.85 108.46 46.14 112.32 48.74 115.84 51.03 116.05 59.38 116.87 67.95 116.25 70.83 114.26 72.15 110.47 71.58 108.46 45.85 108.46"/><path class="cls-4" d="M66.07,117.12H51.93a6.66,6.66,0,0,1-6.65-6.65V101.9a.58.58,0,0,1,.57-.57h26.3a.57.57,0,0,1,.57.57v8.57a6.65,6.65,0,0,1-6.65,6.65M46.43,102.47v8a5.51,5.51,0,0,0,5.5,5.51H66.07a5.51,5.51,0,0,0,5.51-5.51v-8Z"/><path class="cls-3" d="M61.57,108.8a2.72,2.72,0,1,0-2.71,2.71,2.71,2.71,0,0,0,2.71-2.71"/><path class="cls-4" d="M58.86,112.08a3.29,3.29,0,1,1,3.28-3.28,3.29,3.29,0,0,1-3.28,3.28m0-5.43A2.15,2.15,0,1,0,61,108.8a2.15,2.15,0,0,0-2.14-2.15"/><path class="cls-4" d="M48.67,115.28a1.33,1.33,0,1,0-1.32,1.33,1.32,1.32,0,0,0,1.32-1.33"/><path class="cls-4" d="M72,115.28a1.33,1.33,0,1,0-1.32,1.33A1.32,1.32,0,0,0,72,115.28"/><path class="cls-7" d="M70.49,114.38a.83.83,0,1,0-.83.82.83.83,0,0,0,.83-.82"/><path class="cls-7" d="M49,114.38a.82.82,0,1,0-.82.82.82.82,0,0,0,.82-.82"/><rect class="cls-4" x="37.92" y="108.13" width="8.24" height="4.21"/><rect class="cls-4" x="72.32" y="108.13" width="8.24" height="4.21"/><path class="cls-4" d="M68.52,102.47H48.67V97.12H68.52Zm-18.71-1.14H67.38V98.27H49.81Z"/><path class="cls-3" d="M66,96.16H51.42a.56.56,0,0,1-.57-.57.57.57,0,0,1,.57-.57H66a.57.57,0,0,1,.57.57.56.56,0,0,1-.57.57"/><rect class="cls-8" x="65.05" y="102.49" width="6.57" height="5.37"/><rect class="cls-8" x="62.39" y="98.28" width="4.98" height="3.04"/><path class="cls-2" d="M86,98.43c-1.16,1.36-2.17,2.83-3.26,4.24S80,105,78.87,106.47a3.37,3.37,0,0,0-.68,2.29l.32.13a1.16,1.16,0,0,0,.14.46,7.16,7.16,0,0,0,2.45,2.59,2,2,0,0,0,.51.24,6.12,6.12,0,0,1,.35.93,3.21,3.21,0,0,0,3.05-.74,1.34,1.34,0,0,0,.42-1.35c1.89-1.29,3.23-3.29,4.8-4.93,3.09-3.26,6.48-6.18,9.64-9.36a1.21,1.21,0,0,0,0-1.76l.06-.09h0s0,0,0,0a1.28,1.28,0,0,0,.11-.2.41.41,0,0,0,.05-.09,1.58,1.58,0,0,0,.09-.31,1.22,1.22,0,0,0,0-.33s0-.06,0-.09a1.26,1.26,0,0,0-.25-.61,1,1,0,0,0-.23-.24l0,0h0a1.41,1.41,0,0,0-1-.3,1.49,1.49,0,0,0-.42-1.35,1.39,1.39,0,0,0-1.08-.41,1.27,1.27,0,0,0-.23-.34,1.37,1.37,0,0,0-2.08,0,1.18,1.18,0,0,0-.92.22A44,44,0,0,0,86,98.43m9.47-5.31a1.27,1.27,0,0,0,.31-.3,1.3,1.3,0,0,0,.34,0,1.87,1.87,0,0,0,.42.55,1.32,1.32,0,0,0,1.2.31,2,2,0,0,0,.13,1.15h0c-1.78,1.79-3.66,3.48-5.51,5.21a2.49,2.49,0,0,0-.24-.56,3.24,3.24,0,0,0-2-1.64,31.68,31.68,0,0,1,5.31-4.74"/><path class="cls-4" d="M97.83,90.71l2.11,2.05a3.39,3.39,0,0,1,.06,4.78L85.43,112.49a3.38,3.38,0,0,1-4.78.05l-2.11-2.05a3.39,3.39,0,0,1-.06-4.78L93.05,90.77a3.37,3.37,0,0,1,4.78-.06m-16.38,21a2.24,2.24,0,0,0,3.16,0l14.57-15a2.24,2.24,0,0,0,0-3.16L97,91.52a2.23,2.23,0,0,0-3.16,0L79.3,106.51a2.24,2.24,0,0,0,0,3.16Z"/><path class="cls-4" d="M83,101.93l6.14,6a.57.57,0,1,1-.8.81l-6.13-6a.57.57,0,0,1,0-.81.56.56,0,0,1,.8,0"/><path class="cls-4" d="M86.57,98.23l6.13,6a.58.58,0,0,1,0,.81.57.57,0,0,1-.81,0l-6.13-6a.57.57,0,0,1,.79-.82"/><line class="cls-1" x1="85.63" y1="105.33" x2="80" y2="111.11"/><path class="cls-4" d="M86,104.92a.57.57,0,0,1,0,.81l-5.63,5.78a.58.58,0,0,1-.81,0,.57.57,0,0,1,0-.81l5.63-5.78a.57.57,0,0,1,.81,0"/><path class="cls-7" d="M94.61,93.21l-3.92,4a1.42,1.42,0,0,0,0,2l.86.84a1.41,1.41,0,0,0,2,0l3.92-4"/><path class="cls-4" d="M95,92.8a.58.58,0,0,1,0,.81l-3.92,4a.86.86,0,0,0,0,1.21l.87.84a.86.86,0,0,0,1.21,0l3.91-4a.57.57,0,1,1,.82.79l-3.92,4a2,2,0,0,1-2.82,0l-.86-.85a2,2,0,0,1,0-2.81l3.92-4a.57.57,0,0,1,.81,0"/><path class="cls-3" d="M97.51,96a2,2,0,1,1,0-2.87,2,2,0,0,1,0,2.87"/><path class="cls-4" d="M97.88,92.77a2.6,2.6,0,1,1-3.68,0,2.6,2.6,0,0,1,3.68,0m-2.83,2.9a1.45,1.45,0,0,0,2,0,1.46,1.46,0,1,0-2,0"/><path class="cls-2" d="M29.34,103.27a37.11,37.11,0,0,0,4.42,10.47,2.93,2.93,0,0,0,2.87,1c1.08-.2,2.06-1.92,3-1.92a1.35,1.35,0,0,0,1.11-.85c.74-2.61-.72-5-1.77-7.28-.92-2-1.81-4-2.73-6-1.06-2.31-2.52-4.42-3.31-6.85a1.4,1.4,0,0,0-.12-.92c.08.17.06.13-.06-.14a3.84,3.84,0,0,0-.32-.5,2.89,2.89,0,0,0-.61-.6,4.37,4.37,0,0,0-1.3-.68,2.25,2.25,0,0,0-2.57.63,2,2,0,0,0-.17.32,2.42,2.42,0,0,0-2.06.47A2.37,2.37,0,0,0,25,91.65c0,.12,0,.24-.05.37a1.37,1.37,0,0,0-.07.68c.5,4,2.43,7.28,4.46,10.57M35.7,107l.07,0a8.8,8.8,0,0,1,.46,1.52c-.21-.54-.38-1.07-.53-1.48m-8-14.3a1.41,1.41,0,0,0,1.16-.9,1.5,1.5,0,0,0,.88-.15l.07,0a1.21,1.21,0,0,1,.28.16,1.22,1.22,0,0,0,0,.17,28.41,28.41,0,0,0,1.7,4.22,8.62,8.62,0,0,1-2.55.75L29,97a18.18,18.18,0,0,1-1.32-4.32"/><line class="cls-1" x1="34.79" y1="106.65" x2="37.98" y2="114.06"/><path class="cls-4" d="M34.56,106.12a.58.58,0,0,1,.75.3l3.2,7.41a.57.57,0,0,1-1,.45l-3.2-7.41a.58.58,0,0,1,.3-.75"/><line class="cls-1" x1="26.63" y1="87.73" x2="29.5" y2="94.4"/><path class="cls-4" d="M26.4,87.21a.57.57,0,0,1,.75.3L30,94.17a.57.57,0,1,1-1,.45L26.1,88a.57.57,0,0,1,.3-.75"/><path class="cls-4" d="M25.91,89.8l2.71-1.17a3.39,3.39,0,0,1,4.44,1.77l8.27,19.16A3.39,3.39,0,0,1,39.56,114l-2.7,1.16a3.38,3.38,0,0,1-4.44-1.76L24.15,94.24a3.38,3.38,0,0,1,1.76-4.44M39.11,113A2.24,2.24,0,0,0,40.28,110L32,90.85a2.24,2.24,0,0,0-2.94-1.17l-2.7,1.17a2.23,2.23,0,0,0-1.17,2.94L33.47,113a2.24,2.24,0,0,0,2.94,1.17Z"/><path class="cls-3" d="M27.42,95.3a2.27,2.27,0,1,0,1.18-3,2.26,2.26,0,0,0-1.18,3"/><path class="cls-4" d="M28.38,91.79a2.84,2.84,0,1,1-1.48,3.73,2.85,2.85,0,0,1,1.48-3.73M30.17,96a1.7,1.7,0,1,0-2.23-.89,1.7,1.7,0,0,0,2.23.89"/><path class="cls-4" d="M30.63,107.82l7.86-3.4a.57.57,0,0,1,.45,1l-7.86,3.39a.56.56,0,0,1-.75-.29.57.57,0,0,1,.3-.75"/><path class="cls-4" d="M28.58,103.07l7.86-3.39a.56.56,0,0,1,.75.3.57.57,0,0,1-.29.75L29,104.12a.57.57,0,0,1-.45-1.05"/><path class="cls-7" d="M25.7,80.47l2.22,5.16a1.41,1.41,0,0,1-.74,1.86L26.07,88a1.42,1.42,0,0,1-1.87-.74L22,82.07"/><path class="cls-4" d="M21.75,81.55a.58.58,0,0,1,.75.3L24.72,87a.85.85,0,0,0,1.12.44L27,87a.86.86,0,0,0,.45-1.12l-2.23-5.16a.57.57,0,1,1,1-.45l2.23,5.16a2,2,0,0,1-1,2.62l-1.11.48a2,2,0,0,1-2.62-1L21.45,82.3a.57.57,0,0,1,.3-.75"/><path class="cls-3" d="M22,82.07a2,2,0,0,0,3.72-1.6A2,2,0,0,0,23,79.41,2,2,0,0,0,22,82.07"/><path class="cls-4" d="M22.81,78.89a2.6,2.6,0,1,1-1.36,3.41,2.6,2.6,0,0,1,1.36-3.41m1.6,3.72a1.46,1.46,0,1,0-1.91-.76,1.46,1.46,0,0,0,1.91.76"/><path class="cls-9" d="M100.35,100.64l-1.35.69a1.15,1.15,0,0,1-1.53-.48l-5.87-11a1.11,1.11,0,0,1,.49-1.51l1.34-.69a1.17,1.17,0,0,1,1.54.48l5.86,11a1.12,1.12,0,0,1-.48,1.51"/><path class="cls-4" d="M100.48,100.88l-1.35.68a1.43,1.43,0,0,1-1.91-.58l-5.86-11a1.39,1.39,0,0,1,.6-1.88l1.34-.69a1.44,1.44,0,0,1,1.91.59l5.87,11A1.39,1.39,0,0,1,100.48,100.88ZM92.22,88.53a.83.83,0,0,0-.37,1.14l5.86,11a.87.87,0,0,0,1.16.37l1.35-.69a.84.84,0,0,0,.37-1.14L94.73,88.21a.89.89,0,0,0-1.17-.37Z"/><path class="cls-9" d="M94.12,88.45l-1.78.91a1.09,1.09,0,0,1-1.46-.45,1.06,1.06,0,0,1,.46-1.44l1.77-.91a1.1,1.1,0,0,1,1.47.46,1.06,1.06,0,0,1-.46,1.43"/><path class="cls-4" d="M94.24,88.69l-1.77.91A1.37,1.37,0,0,1,90.63,89a1.32,1.32,0,0,1,.58-1.8L93,86.32a1.37,1.37,0,0,1,1.83.57A1.32,1.32,0,0,1,94.24,88.69Zm-2.77-1a.79.79,0,0,0-.35,1.07.82.82,0,0,0,1.09.34L94,88.21a.78.78,0,0,0,.34-1.07.81.81,0,0,0-1.09-.34Z"/><path class="cls-4" d="M93.17,88.4l-.3.15A1.38,1.38,0,0,1,91,88a1.34,1.34,0,0,1,.58-1.81l.3-.15a1.37,1.37,0,0,1,1.84.57A1.34,1.34,0,0,1,93.17,88.4Zm-1.3-1.74a.79.79,0,0,0-.34,1.08.8.8,0,0,0,1.09.33l.29-.15a.78.78,0,0,0,.35-1.07.82.82,0,0,0-1.09-.34Z"/><path class="cls-9" d="M97.73,99.51h0a.57.57,0,0,1-.77-.24l-4.13-7.78a.56.56,0,0,1,.25-.75.56.56,0,0,1,.76.24L98,98.76a.56.56,0,0,1-.24.75"/><path class="cls-4" d="M97.85,99.75a.86.86,0,0,1-1.14-.35l-4.12-7.78A.81.81,0,0,1,93,90.5a.86.86,0,0,1,1.14.35l4.12,7.78A.81.81,0,0,1,97.85,99.75ZM93.2,91a.28.28,0,0,0-.12.39l4.12,7.78a.3.3,0,0,0,.4.12.28.28,0,0,0,.12-.39L93.6,91.1A.3.3,0,0,0,93.2,91Z"/><path class="cls-5" d="M92.74,88h0a1.53,1.53,0,0,1-2-.63L73.93,55.79a1.48,1.48,0,0,1,.64-2,1.54,1.54,0,0,1,2.05.63L93.38,86a1.48,1.48,0,0,1-.64,2"/><g class="cls-10"><polygon class="cls-11" points="91.74 87.5 77.56 61.43 78.79 60.81 92.97 86.88 91.74 87.5"/></g><g id="Group"><polygon class="cls-6" points="61.25 37.57 62.5 40.03 61.55 44.05 59.3 42.21 59.69 39.26 61.25 37.57"/><path class="cls-12" d="M57.92,36.75a.47.47,0,0,1-.47-.47V32.57a.47.47,0,0,1,.94,0v3.71a.47.47,0,0,1-.47.47"/><path class="cls-12" d="M58.67,36.75H57.22a.47.47,0,0,1,0-.94h1.45a.47.47,0,0,1,0,.94"/><path class="cls-6" d="M61.25,37.57l1.54-1.45a6.53,6.53,0,1,0-4.61,11.14c1.34,0,2.52.49,3.56-.2l1.29.18,0-2.1-3.7-2.93.79-3.75,1.16-.89"/><path class="cls-12" d="M58.18,47.9a7.17,7.17,0,1,1,5.07-12.24l.46.47-2,1.91-.88-.93,1-1a5.89,5.89,0,1,0-3.67,10.49"/><path class="cls-5" d="M61.78,44.22l-.92-.89a3.75,3.75,0,0,0,1-2.6,3.7,3.7,0,0,0-1.13-2.67l-.48-.47.51-.48.44.46.42-.43a5,5,0,0,1,.11,7.08"/><path class="cls-7" d="M56.7,40.73a1.48,1.48,0,1,1,1.48,1.48,1.47,1.47,0,0,1-1.48-1.48"/><path class="cls-12" d="M58.18,39.9a.84.84,0,0,0-.84.83.85.85,0,0,0,.84.84.84.84,0,0,0,.83-.84.83.83,0,0,0-.83-.83m0,3a2.12,2.12,0,1,1,2.11-2.12,2.12,2.12,0,0,1-2.11,2.12"/><path class="cls-12" d="M62.79,36.12l-3.72,3.44"/><polygon class="cls-13" points="62.36 35.65 63.23 36.59 59.5 40.03 58.63 39.09 62.36 35.65"/><polyline class="cls-6" points="58.87 42.03 61.55 44.05 63 45.14 63 47.9 60.09 47.76"/><polygon class="cls-12" points="63.64 47.9 58.06 47.9 58.06 46.62 62.36 46.62 62.36 45.46 58.49 42.55 59.26 41.52 63.64 44.82 63.64 47.9"/><polygon class="cls-14" points="64.09 32.93 64.61 32.41 65.12 32.93 64.61 33.44 64.09 32.93"/><polygon class="cls-14" points="61.88 30.45 62.13 30.21 62.38 30.45 62.13 30.7 61.88 30.45"/><path class="cls-3" d="M64.93,28.3a.37.37,0,0,0-.37-.37.36.36,0,0,0-.37.37.37.37,0,0,0,.37.37.38.38,0,0,0,.37-.37"/><path class="cls-12" d="M55.7,38a.47.47,0,0,1-.47-.47v-5a.47.47,0,1,1,.94,0v5a.47.47,0,0,1-.47.47"/></g><path class="cls-15" d="M82.38,30.3a4.51,4.51,0,0,1-8.95.94,18.51,18.51,0,0,0-28.68.33A4.52,4.52,0,0,1,36,30.16a4.57,4.57,0,0,1,2.39-4.09,27,27,0,0,1,42.54,1A4.52,4.52,0,0,1,82.38,30.3Z"/><path class="cls-15" d="M82.35,49.08a4.51,4.51,0,0,1-2.46,4,27,27,0,0,1-42.51-1.59,4.52,4.52,0,1,1,7.53-4.06,18.5,18.5,0,0,0,28.68.06,4.53,4.53,0,0,1,8.76,1.55Z"/><text class="cls-16" transform="translate(38.71 50.98) rotate(43.87)">N</text><text class="cls-16" transform="translate(41.66 53.8) rotate(35.02)">O</text><text class="cls-16" transform="matrix(0.89, 0.46, -0.46, 0.89, 44.93, 56.05)">T</text><text class="cls-16" transform="translate(47.86 57.52) rotate(22.21)"> </text><text class="cls-16" transform="matrix(0.96, 0.29, -0.29, 0.96, 49.28, 58.14)">Y</text><text class="cls-16" transform="translate(52.36 59.1) rotate(9.25)">O</text><text class="cls-16" transform="translate(56.52 59.75) rotate(0.64)">U</text><text class="cls-16" transform="matrix(0.99, -0.13, 0.13, 0.99, 60.49, 59.77)">R</text><text class="cls-16" transform="matrix(0.97, -0.23, 0.23, 0.97, 64.15, 59.22)"> </text><text class="cls-16" transform="translate(65.67 58.9) rotate(-18.8)">C</text><text class="cls-16" transform="translate(69.06 57.76) rotate(-27.03)">O</text><text class="cls-16" transform="translate(72.71 55.81) rotate(-33.22)">I</text><text class="cls-16" transform="matrix(0.77, -0.63, 0.63, 0.77, 74.14, 54.93)">N</text><text class="cls-16" transform="matrix(0.68, -0.73, 0.73, 0.68, 77.24, 52.36)">S</text><text class="cls-17" transform="translate(41.78 29.86) rotate(-41.06)">N</text><text class="cls-17" transform="matrix(0.85, -0.53, 0.53, 0.85, 44.53, 27.45)">O</text><text class="cls-17" transform="translate(47.62 25.52) rotate(-24.44)">T</text><text class="cls-17" transform="translate(50.43 24.28) rotate(-19.18)"> </text><text class="cls-17" transform="translate(51.65 23.81) rotate(-13.88)">Y</text><text class="cls-17" transform="translate(54.47 23.06) rotate(-5.96)">O</text><text class="cls-17" transform="matrix(1, 0.05, -0.05, 1, 58.28, 22.66)">U</text><text class="cls-17" transform="matrix(0.98, 0.2, -0.2, 0.98, 61.89, 22.85)">R</text><text class="cls-17" transform="matrix(0.96, 0.28, -0.28, 0.96, 65.24, 23.59)"> </text><text class="cls-17" transform="translate(66.53 23.92) rotate(22.57)">K</text><text class="cls-17" transform="translate(69.6 25.2) rotate(30.04)">E</text><text class="cls-17" transform="translate(72.1 26.63) rotate(37.25)">Y</text><text class="cls-17" transform="translate(74.48 28.42) rotate(44.52)">S</text><polygon class="cls-6" points="39.11 29.78 39.33 30.24 39.85 30.32 39.48 30.68 39.56 31.19 39.11 30.95 38.65 31.19 38.73 30.68 38.37 30.32 38.88 30.24 39.11 29.78"/><polygon class="cls-6" points="38.78 47.34 39.01 47.8 39.52 47.88 39.15 48.24 39.24 48.75 38.78 48.51 38.33 48.75 38.41 48.24 38.04 47.88 38.55 47.8 38.78 47.34"/><polygon class="cls-6" points="79.47 47.51 79.7 47.97 80.21 48.04 79.84 48.4 79.92 48.91 79.47 48.67 79.01 48.91 79.1 48.4 78.73 48.04 79.24 47.97 79.47 47.51"/><polygon class="cls-6" points="79.01 30.48 79.24 30.95 79.75 31.02 79.38 31.38 79.47 31.89 79.01 31.65 78.55 31.89 78.64 31.38 78.27 31.02 78.78 30.95 79.01 30.48"/></svg>