<?xml version="1.0" encoding="UTF-8"?>
<svg width="93px" height="107px" viewBox="0 0 93 107" version="1.1" xmlns="http://www.w3.org/2000/svg" xmlns:xlink="http://www.w3.org/1999/xlink">
    <!-- Generator: Sketch 51.3 (57544) - http://www.bohemiancoding.com/sketch -->
    <title>trek_bot</title>
    <desc>Created with Sketch.</desc>
    <defs></defs>
    <g id="Page-1" stroke="none" stroke-width="1" fill="none" fill-rule="evenodd">
        <g id="trek_bot" fill-rule="nonzero">
            <g id="Group">
                <path d="M92.9519,26.5517 L92.9519,79.6917 L92.9419,79.7016 L91.8519,80.3217 L91.5219,80.5116 L91.3919,80.5816 L90.5119,81.0916 L87.3719,82.9016 L87.1719,83.0216 L85.2419,84.1316 L85.0819,84.2216 L83.6019,85.0816 L83.1319,85.3516 L82.9919,85.4316 L82.5219,85.7016 L82.2819,85.8316 L82.2519,85.8416 L82.1519,85.8816 L82.0419,85.9515 L79.0119,87.6916 L78.1919,88.1616 L77.1419,88.7616 L77.1019,88.7916 L75.8719,89.5016 L75.4219,89.7615 L75.4019,89.7815 L75.3919,89.7815 L73.8519,90.6715 L72.9819,91.1915 L71.7219,91.9115 L71.6719,91.9415 L71.6019,91.9815 L71.5219,92.0315 L71.1119,92.2715 L71.0819,92.2815 L71.0319,92.3115 L70.9819,92.3315 L70.9219,92.3715 L70.9219,92.3815 L70.1419,92.8315 L69.9619,92.9215 L69.9419,92.9415 L69.9019,92.9615 L68.8919,93.5415 L68.7519,93.6215 L68.6019,93.7115 L68.5519,93.7415 L68.2319,93.9215 L67.9919,94.0615 L67.9819,94.0615 L67.9119,94.1015 L67.2719,94.4815 L67.0719,94.6015 L66.7419,94.7915 L66.4919,94.9315 C66.4919,94.9415 66.4819,94.9415 66.4819,94.9415 L66.0119,95.2115 L65.5919,95.4515 L65.5519,95.4815 L64.9819,95.8115 L62.6519,97.1515 L62.0219,97.5115 L61.9619,97.5415 L58.4619,99.5715 L58.4419,99.5814 L58.432,99.5914 L58.032,99.8214 L57.682,100.0214 L57.182,100.3114 L57.042,100.3914 L55.792,101.1114 L54.812,101.6814 L54.422,101.9014 L54.412,101.9114 L53.982,102.1614 L53.582,102.3914 L51.222,103.7514 L50.862,103.9614 L50.822,103.9814 L50.642,104.0814 L50.142,104.3714 L48.272,105.4514 L47.712,105.7714 L47.702,105.7714 L47.382,105.9614 L46.902,106.2414 L46.762,106.1614 L45.482,105.4214 L44.632,104.9314 L44.602,104.9214 L43.692,104.3914 L43.522,104.2914 L43.472,104.2614 L42.862,103.9114 L42.692,103.8114 L39.332,101.8714 L39.292,101.8414 L37.222,100.6514 L32.472,97.8914 L31.862,97.5414 L31.172,97.1514 L30.242,96.6114 L30.022,96.4914 L29.932,96.4314 L29.902,96.4114 L27.672,95.1214 L26.452,94.4114 L26.082,94.2014 L25.692,93.9814 L25.462,93.8514 L25.202,93.7014 L24.962,93.5514 L24.872,93.5014 L24.522,93.3014 L24.442,93.2514 L24.362,93.2114 L24.322,93.1814 L23.022,92.4414 L22.972,92.4114 L22.822,92.3314 L22.452,92.1114 L20.742,91.1214 L18.232,89.6614 L16.142,88.4614 L15.322,87.9914 L15.232,87.9414 L14.732,87.6514 L14.722,87.6414 L14.512,87.5214 L14.502,87.5214 L13.462,86.9214 C13.452,86.9114 13.452,86.9114 13.442,86.9114 L11.582,85.8314 L10.562,85.2414 L9.232,84.4714 L8.512,84.0414 L8.472,84.0214 L8.452,84.0114 L8.162,83.8414 C8.162,83.8414 8.152,83.8414 8.142,83.8314 L7.882,83.6814 L7.862,83.6714 L4.562,81.7714 L1.152,79.8014 L1.062,79.7514 L0.982,79.7114 L0.952,79.6914 L0.952,26.5514 L6.612,23.2914 L7.382,22.8314 L7.392,22.8314 L7.642,22.6914 L8.222,22.3614 L9.972,21.3514 L12.242,20.0414 L13.062,19.5614 L13.212,19.4714 L15.282,18.2814 L16.262,17.7114 L17.272,17.1214 L17.692,16.8814 L18.142,16.6214 L18.392,16.4814 C18.402,16.4814 18.402,16.4814 18.402,16.4814 L18.972,16.1514 L22.202,14.2914 L23.782,13.3714 L23.952,13.2814 L25.612,12.3314 L26.392,11.8814 L26.772,11.6614 L27.212,11.4014 L28.312,10.7514 L28.832,10.4514 L31.112,9.1514 L31.802,8.7414 L33.202,7.9414 L33.212,7.9414 L33.262,7.9114 L38.982,4.6114 L39.172,4.5014 L39.442,4.3414 L45.512,0.8314 L46.952,0.0014 L48.012,0.6214 L54.5021,4.3714 L57.1021,5.8714 L61.0521,8.1514 L62.3921,8.9214 L69.0321,12.7514 L70.0721,13.3614 L72.3721,14.6714 L73.2421,15.1714 L74.7621,16.0514 L76.1321,16.8414 L76.9321,17.3014 L77.0221,17.3614 L78.8321,18.4014 L82.6121,20.5814 L82.6521,20.6114 L82.6521,20.6214 L82.9121,20.7614 L83.1721,20.9214 L83.5721,21.1514 L84.4921,21.6814 L85.0321,21.9914 L85.0521,22.0014 L86.9721,23.1114 L87.7521,23.5514 L88.192,23.8014 L90.132,24.9214 L92.9519,26.5517 Z" id="Shape" fill="#FFFFFF"></path>
                <path d="M81.7016,35.8213 C79.3921,31.4987 73.527,30.6776 70.0673,34.1488 C62.5627,41.6781 55.065,49.2144 47.5495,56.7329 C45.5384,58.7448 42.4188,55.6235 44.4291,53.6125 C51.8849,46.1537 59.3233,38.6775 66.7682,31.2078 C70.3614,27.6026 69.391,21.5608 64.8685,19.2253 C59.4332,16.4184 53.2658,14.832 46.7263,14.832 C24.841,14.832 7.0995,32.5736 7.0995,54.4588 C7.0995,54.4713 7.0995,54.4837 7.0995,54.4961 C7.1013,55.9086 8.8365,56.5964 9.8353,55.5976 L19.2818,46.1511 C21.2933,44.1396 24.4129,47.2608 22.4022,49.2715 L11.9112,59.7624 C9.4223,62.2513 8.6621,65.9892 9.9768,69.2543 C11.9776,74.2233 14.9536,78.6939 18.6709,82.4266 C22.1321,85.9021 27.736,85.9652 31.2044,82.4968 C34.323,79.3782 37.4417,76.2595 40.5603,73.1409 C42.5718,71.1294 45.6914,74.2506 43.6806,76.2613 C40.9999,78.9421 38.3191,81.6228 35.6384,84.3036 C32.7158,87.2262 34.1367,92.2691 38.173,93.1585 C41.9051,93.9808 45.8345,94.2769 49.8805,93.9631 C69.6239,92.4319 85.3843,76.139 86.3085,56.3579 C86.6564,48.9129 84.9469,41.8952 81.7016,35.8213 Z" id="Shape" fill="#192C63" opacity="0.4"></path>
                <path d="M56.2662,21.0489 C55.4987,21.8002 55.6898,22.6782 55.487,23.5366 C55.3918,23.3373 55.2878,23.143 55.1874,22.9466 C55.2358,22.7208 55.2736,22.4959 55.2946,22.2728 C55.3346,21.8488 55.3127,21.4164 55.2464,20.9836 C55.247,20.9166 55.2336,20.8566 55.2095,20.7985 C54.9882,19.5834 54.4359,18.3749 53.8927,17.3547 C53.7883,17.1585 53.5712,17.1063 53.3741,17.15 C52.9856,16.4446 52.4799,15.795 51.8297,15.3918 C50.4026,14.5067 48.3462,14.9432 46.7262,14.9573 C45.4765,14.9682 44.1646,14.9271 42.9138,15.1479 C40.5572,15.4238 38.9147,16.5582 38.1,19.2382 C38.0403,19.4344 38.1368,19.614 38.2859,19.7286 C37.8445,20.9386 37.8472,22.3805 38.1144,23.7413 C37.6864,22.3913 36.5929,19.2277 35.7431,21.335 C35.4744,22.0013 35.8621,24.5059 36.3344,25.1857 C36.9823,26.1183 37.9635,25.8479 38.8776,26.0955 C39.5357,27.3633 40.5681,27.1153 42.0854,27.1419 C42.5065,27.1493 42.7396,26.5499 42.4055,26.2802 C40.6665,24.8765 39.5262,21.8924 40.1842,19.7859 C40.5519,18.6087 41.5115,17.9434 42.6815,17.5353 C44.7183,17.0958 47.0636,17.1279 49.1916,17.1804 C49.9232,17.3811 50.6314,17.622 51.3277,17.9425 C51.4972,18.0205 51.6718,17.9872 51.8103,17.8999 C51.8121,17.903 51.8138,17.9059 51.8156,17.909 C51.7691,17.9561 51.7315,18.0097 51.7036,18.0708 C51.4877,18.1906 51.3491,18.4672 51.4909,18.7664 C52.1904,20.2424 52.05,22.3982 51.5763,23.87 C51.5657,23.903 51.5489,23.9534 51.5326,24.0023 C51.2186,24.6471 50.8604,25.24 50.7467,25.9519 C50.7277,25.9523 50.7055,25.9512 50.6869,25.9518 C50.048,25.975 50.079,26.9669 50.7174,26.9438 C51.2356,26.925 51.9564,26.9998 52.6116,26.9313 C52.4746,27.4879 53.2816,27.9011 53.5003,27.328 C53.6165,27.0236 53.7512,26.7092 53.8905,26.3907 C53.9752,26.296 54.053,26.1929 54.1089,26.0648 C54.1784,25.9059 54.2257,25.732 54.2603,25.5505 C54.435,25.1535 54.6049,24.7509 54.7583,24.3466 C54.7983,24.4408 54.8445,24.5314 54.8827,24.6267 C54.5528,24.832 54.5213,25.4316 55.0078,25.5311 C57.1409,25.9673 57.0476,22.7358 57.1279,21.3688 C57.1552,20.9055 56.5487,20.7724 56.2662,21.0489 Z" id="Shape" fill="#FFFFFF"></path>
                <path d="M54.0261,41.5739 L38.9582,41.5739 L38.9582,37.5136 L54.0261,37.5136 L54.0261,41.5739 Z M39.8243,40.7075 L53.1599,40.7075 L53.1599,38.3801 L39.8243,38.3801 L39.8243,40.7075 Z" id="Shape" fill="#15003E"></path>
                <path d="M52.1214,36.7841 L41.044,36.7841 C40.8049,36.7841 40.6109,36.5901 40.6109,36.3509 C40.6109,36.1117 40.8049,35.9177 41.044,35.9177 L52.1215,35.9177 C52.3606,35.9177 52.5546,36.1117 52.5546,36.3509 C52.5546,36.5901 52.3605,36.7841 52.1214,36.7841 Z" id="Shape" fill="#25E899"></path>
                <g transform="translate(23.000000, 35.000000)" id="Shape">
                    <path d="M44.5282,6.8094 L42.2926,6.8094 C41.572,6.8094 40.9002,7.1739 40.5075,7.7782 L33.7814,7.7782 L30.8421,6.141 L30.8421,0.659 L26.5782,0.659 C26.5782,0.659 24.7864,3.1353 24.7864,6.141 L22.4468,6.141 C22.4468,3.1353 20.655,0.659 20.655,0.659 L16.3914,0.659 L16.3914,6.141 L13.8205,7.7782 L7.4114,7.7782 C7.0132,7.2089 6.3622,6.8697 5.6674,6.8698 L3.4318,6.8698 C2.2547,6.8696 1.3003,7.8237 1.3001,9.0008 L1.3001,20.0136 L7.7984,20.0136 L7.7984,11.2864 L13.8497,11.2864 L14.0451,23.9114 L14.3118,40.5028 L14.2704,52.7764 L17.005,53.9175 L20.3342,53.0171 L22.1886,40.4948 L23.8871,30.7155 L25.5403,40.5025 L26.9737,53.0171 L30.1463,54.4075 L33.0372,52.7764 L33.188,40.2618 C33.188,40.2618 33.5564,26.5381 33.5564,23.9113 C33.5564,20.9283 33.825,11.2863 33.825,11.2863 L40.1612,11.2863 L40.1612,19.9534 L46.6595,19.9534 L46.6595,8.9408 C46.6599,7.7641 45.7062,6.8098 44.5294,6.8095 C44.5292,6.8094 44.5286,6.8094 44.5282,6.8094 Z" fill="#231F20"></path>
                    <path d="M30.1461,54.8406 C30.0869,54.8406 30.0276,54.8287 29.9722,54.8042 L26.7997,53.4138 C26.6584,53.3521 26.5609,53.2195 26.5434,53.0663 L25.1097,40.5517 L23.881,33.281 L22.6153,40.5693 L20.7624,53.0807 C20.7373,53.2509 20.6136,53.3903 20.4472,53.4351 L17.118,54.3354 C17.0246,54.3605 16.9265,54.3542 16.8382,54.3172 L14.1035,53.1762 C13.9415,53.1085 13.8365,52.9503 13.8371,52.7748 L13.8788,40.5012 L13.6121,23.9182 L13.4231,11.7195 L8.2313,11.7195 L8.2313,20.0137 C8.2313,20.2528 8.0373,20.4468 7.7982,20.4468 L1.2999,20.4468 C1.0608,20.4468 0.8668,20.2528 0.8668,20.0137 L0.8668,9.0008 C0.8671,7.5867 2.0178,6.4365 3.4314,6.4365 L3.4317,6.4365 L5.6672,6.4365 C6.4246,6.4365 7.1403,6.7724 7.6239,7.3451 L13.6941,7.3451 L15.9582,5.9033 L15.9582,0.659 C15.9582,0.4197 16.1522,0.2258 16.3913,0.2258 L20.655,0.2258 C20.7938,0.2258 20.9245,0.2925 21.006,0.405 C21.079,0.5059 22.7154,2.7999 22.8686,5.7078 L24.3646,5.7078 C24.5178,2.7999 26.1542,0.5059 26.2272,0.405 C26.3087,0.2925 26.4394,0.2258 26.5782,0.2258 L30.8422,0.2258 C31.0813,0.2258 31.2753,0.4198 31.2753,0.659 L31.2753,5.8864 L33.8941,7.3451 L40.2861,7.3451 C40.7696,6.7343 41.5032,6.3762 42.2926,6.3762 L44.5294,6.3762 C45.9433,6.3767 47.093,7.5272 47.0924,8.9409 L47.0924,19.9535 C47.0924,20.1926 46.8984,20.3866 46.6593,20.3866 L40.161,20.3866 C39.9219,20.3866 39.7279,20.1926 39.7279,19.9535 L39.7279,11.7195 L34.2462,11.7195 C34.1948,13.61 33.9892,21.3239 33.9892,23.9113 C33.9892,26.5138 33.6244,40.1361 33.6207,40.2734 L33.47,52.7818 C33.4681,52.936 33.3845,53.0779 33.2497,53.1538 L30.3589,54.7849 C30.2931,54.8221 30.2198,54.8406 30.1461,54.8406 Z M27.3757,52.7203 L30.1217,53.9239 L32.6067,52.5216 L32.7546,40.2565 C32.7584,40.113 33.1231,26.5026 33.1231,23.9113 C33.1231,20.9566 33.3891,11.3707 33.3916,11.2745 C33.3982,11.0398 33.5903,10.8533 33.8247,10.8533 L40.161,10.8533 C40.4001,10.8533 40.5941,11.0473 40.5941,11.2864 L40.5941,19.5204 L46.2262,19.5204 L46.2262,8.9409 C46.2262,8.0046 45.465,7.2428 44.5293,7.2426 L44.5284,6.8094 L44.5284,7.2426 L42.2925,7.2426 C41.7162,7.2426 41.1848,7.5311 40.8708,8.0143 C40.7909,8.1374 40.6543,8.2114 40.5076,8.2114 L33.7815,8.2114 C33.7079,8.2114 33.6352,8.1926 33.5706,8.1569 L30.6312,6.5194 C30.4939,6.4429 30.409,6.2982 30.409,6.141 L30.409,1.0922 L26.8094,1.0922 C26.4205,1.6984 25.2194,3.7633 25.2194,6.141 C25.2194,6.3803 25.0254,6.5742 24.7863,6.5742 L22.4467,6.5742 C22.2076,6.5742 22.0136,6.3802 22.0136,6.141 C22.0136,3.7633 20.8125,1.6984 20.4236,1.0922 L16.8243,1.0922 L16.8243,6.141 C16.8243,6.2891 16.7488,6.4268 16.6241,6.5064 L14.0532,8.1437 C13.9836,8.1879 13.9028,8.2114 13.8204,8.2114 L7.4111,8.2114 C7.2695,8.2114 7.1369,8.1425 7.0561,8.0265 C6.7396,7.5734 6.2204,7.3029 5.6673,7.3029 L3.4318,7.3029 L3.4315,7.3029 C2.4952,7.3029 1.7334,8.0644 1.7331,9.0007 L1.7331,19.5806 L7.3652,19.5806 L7.3652,11.2864 C7.3652,11.0473 7.5592,10.8533 7.7983,10.8533 L13.8497,10.8533 C14.0863,10.8533 14.2793,11.0432 14.2828,11.2798 L14.4783,23.9047 L14.745,40.4959 L14.7046,52.4881 L17.0351,53.4605 L19.9472,52.673 L21.7603,40.4314 L23.4603,30.6412 C23.4963,30.4337 23.6765,30.2824 23.8871,30.2824 L23.888,30.2824 C24.0992,30.2827 24.2791,30.4353 24.3142,30.6434 L25.9672,40.4304 L27.3757,52.7203 Z" fill="#15003E"></path>
                </g>
                <path d="M24.7335,45.2317 L24.7335,54.5798 L30.3654,54.5798 L30.3654,46.2858 C30.3654,46.0464 30.5592,45.8526 30.7986,45.8526 L36.8499,45.8526 C37.0864,45.8526 37.2792,46.0426 37.2831,46.2791 L38.3125,58.9108 L50.065,56.2487 L55.1812,58.9108 L56.3922,46.2765 C56.3973,46.0409 56.5897,45.8526 56.8254,45.8526 L63.1616,45.8526 C63.401,45.8526 63.5948,46.0464 63.5948,46.2858 L63.5948,54.5198 L69.2267,54.5198 L69.2267,45.3386 C69.2267,45.3386 59.552,44.0005 46.5833,44.0005 C33.6146,44.0005 24.7335,45.2317 24.7335,45.2317 Z" id="Shape" fill="#396D87"></path>
                <path d="M27.549,66.6637 L27.549,61.1541" id="Shape" fill="#15003E"></path>
                <path d="M27.5489,67.0968 C27.3098,67.0968 27.1158,66.9028 27.1158,66.6637 L27.1158,61.1541 C27.1158,60.915 27.3098,60.721 27.5489,60.721 C27.788,60.721 27.982,60.915 27.982,61.1541 L27.982,66.6637 C27.9819,66.9028 27.7879,67.0968 27.5489,67.0968 Z" id="Shape" fill="#15003E"></path>
                <path d="M29.2696,61.1541 C29.2825,60.2039 28.5227,59.4232 27.5725,59.4103 C26.6223,59.3974 25.8416,60.1572 25.8287,61.1074 C25.8285,61.1231 25.8285,61.1387 25.8287,61.1544 C25.8418,62.1046 26.6226,62.8642 27.5728,62.8512 C28.5047,62.8384 29.2569,62.086 29.2696,61.1541" id="Shape" fill="#25E899"></path>
                <path d="M27.5492,63.3079 C26.3619,63.3079 25.3957,62.3418 25.3957,61.1541 C25.3957,59.9664 26.3618,59.0003 27.5492,59.0003 C28.7369,59.0003 29.703,59.9664 29.703,61.1541 C29.7029,62.3418 28.7368,63.3079 27.5492,63.3079 Z M27.5492,59.8665 C26.8394,59.8665 26.2619,60.4443 26.2619,61.1541 C26.2619,61.8639 26.8394,62.4417 27.5492,62.4417 C28.259,62.4417 28.8368,61.8638 28.8368,61.1541 C28.8368,60.4443 28.2589,59.8665 27.5492,59.8665 Z" id="Shape" fill="#15003E"></path>
                <path d="M26.0103,72.0055 L26.0103,67.7428 C26.0105,67.1464 26.494,66.663 27.0904,66.663 L28.0075,66.663 C28.6039,66.663 29.0874,67.1464 29.0876,67.7428 L29.0876,72.0055" id="Shape" fill="#EFF4EE"></path>
                <path d="M29.0875,72.4387 C28.8484,72.4387 28.6544,72.2447 28.6544,72.0056 L28.6544,67.7429 C28.6544,67.3863 28.3642,67.0961 28.0076,67.0961 L27.0904,67.0961 C26.7338,67.0961 26.4436,67.3863 26.4433,67.7432 L26.4433,72.0056 C26.4433,72.2447 26.2493,72.4387 26.0102,72.4387 C25.7711,72.4387 25.5771,72.2447 25.5771,72.0056 L25.5771,67.7429 C25.5774,66.9084 26.2562,66.23 27.0903,66.23 L28.0075,66.23 C28.8417,66.23 29.5204,66.9087 29.5204,67.7429 L29.5204,72.0056 C29.5205,72.2448 29.3266,72.4387 29.0875,72.4387 Z" id="Shape" fill="#15003E"></path>
                <path d="M29.0879,72.0055 C29.088,71.1556 28.3991,70.4664 27.5492,70.4663 C26.6992,70.4662 26.0101,71.1551 26.01,72.005 L26.01,72.0061 C26.0105,72.8561 26.6999,73.5447 27.5499,73.5442 C28.3994,73.5438 29.0878,72.855 29.0879,72.0055" id="Shape" fill="#25E899"></path>
                <path d="M27.5489,73.9774 C26.4615,73.9774 25.5772,73.0931 25.5772,72.0057 C25.5772,70.9183 26.4615,70.0337 27.5489,70.0337 C28.6363,70.0337 29.5206,70.9183 29.5206,72.0057 C29.5206,73.0931 28.6362,73.9774 27.5489,73.9774 Z M27.5489,70.8998 C26.9394,70.8998 26.4433,71.3959 26.4433,72.0057 C26.4433,72.6152 26.9394,73.1113 27.5489,73.1113 C28.1584,73.1113 28.6545,72.6152 28.6545,72.0057 C28.6544,71.3959 28.1583,70.8998 27.5489,70.8998 Z" id="Shape" fill="#15003E"></path>
                <path d="M69.6596,55.386 L63.1616,55.386 C62.9225,55.386 62.7285,55.192 62.7285,54.9529 C62.7285,54.7138 62.9225,54.5198 63.1616,54.5198 L69.6596,54.5198 C69.8987,54.5198 70.0927,54.7138 70.0927,54.9529 C70.0927,55.192 69.8987,55.386 69.6596,55.386 Z" id="Shape" fill="#15003E"></path>
                <path d="M67.9489,62.3702 L67.9489,58.1075 C67.9489,57.511 67.4653,57.0274 66.8688,57.0274 L65.9517,57.0274 C65.3552,57.0276 64.8718,57.5111 64.8716,58.1075 L64.8716,62.3702" id="Shape" fill="#EFF4EE"></path>
                <path d="M67.9489,62.8034 C67.7098,62.8034 67.5158,62.6094 67.5158,62.3703 L67.5158,58.1076 C67.5158,57.751 67.2253,57.4605 66.8687,57.4605 L65.9518,57.4605 C65.5952,57.4608 65.3047,57.751 65.3047,58.1076 L65.3047,62.3703 C65.3047,62.6094 65.1107,62.8034 64.8716,62.8034 C64.6325,62.8034 64.4385,62.6094 64.4385,62.3703 L64.4385,58.1076 C64.4385,57.2734 65.1172,56.5947 65.9514,56.5944 L66.8686,56.5944 C67.7031,56.5944 68.3818,57.2732 68.3818,58.1076 L68.3818,62.3703 C68.382,62.6094 68.188,62.8034 67.9489,62.8034 Z" id="Shape" fill="#15003E"></path>
                <path d="M64.8716,62.3702 C64.8709,61.5204 65.5591,60.8309 66.4089,60.8302 C67.2587,60.8295 67.9482,61.5177 67.9489,62.3675 C67.9489,62.3684 67.9489,62.3693 67.9489,62.3702 C67.9482,63.22 67.2587,63.9082 66.4089,63.9075 C65.5602,63.9068 64.8724,63.219 64.8716,62.3702" id="Shape" fill="#25E899"></path>
                <path d="M66.4103,64.342 C65.3229,64.342 64.4386,63.4577 64.4386,62.3703 C64.4386,61.2829 65.3229,60.3986 66.4103,60.3986 C67.4977,60.3986 68.382,61.2829 68.382,62.3703 C68.382,63.4577 67.4977,64.342 66.4103,64.342 Z M66.4103,61.2647 C65.8008,61.2647 65.3047,61.7608 65.3047,62.3703 C65.3047,62.9798 65.8008,63.4759 66.4103,63.4759 C67.0198,63.4759 67.5159,62.9798 67.5159,62.3703 C67.5159,61.7608 67.0198,61.2647 66.4103,61.2647 Z" id="Shape" fill="#15003E"></path>
                <polygon id="Shape" fill="#25E899" points="38.9302 27.2052 52.8538 27.2052 54.0337 27.6554 53.1465 30.8325 39.8065 30.8325"></polygon>
                <path d="M51.2606,34.7602 L41.6924,34.7602 C40.6509,34.7602 39.8066,33.9159 39.8066,32.8743 L39.8066,30.8328 L53.1465,30.8328 L53.1465,32.8743 C53.1464,33.9159 52.3021,34.7602 51.2606,34.7602" id="Shape" fill="#EFF4EE"></path>
                <path d="M51.2606,35.1935 L41.6923,35.1935 C40.4135,35.1935 39.3734,34.1531 39.3734,32.8744 L39.3734,30.3996 L53.5795,30.3996 L53.5795,32.8744 C53.5795,34.1531 52.5395,35.1935 51.2606,35.1935 Z M40.2395,31.2661 L40.2395,32.8744 C40.2395,33.6754 40.8913,34.327 41.6923,34.327 L51.2606,34.327 C52.0616,34.327 52.7134,33.6754 52.7134,32.8744 L52.7134,31.2661 L40.2395,31.2661 Z" id="Shape" fill="#15003E"></path>
                <path d="M44.0307,27.2052 C41.9366,26.2855 40.474,24.1934 40.474,21.7591 C40.474,20.3228 40.9836,19.0052 41.8317,17.9778 C42.9221,16.6564 49.7813,16.589 50.8708,17.819 C51.8348,18.9049 52.3663,20.3071 52.3642,21.7592 C52.3642,24.1931 50.9019,26.2853 48.8081,27.205" id="Shape" fill="#0FCE7C"></path>
                <path d="M43.6546,27.6382 C43.591,27.6382 43.5264,27.6243 43.4653,27.5945 C41.1558,26.4709 39.7212,24.1783 39.7212,21.6112 C39.7212,20.3372 40.0828,19.0988 40.7669,18.0299 C40.8957,17.8281 41.1633,17.77 41.3651,17.8984 C41.5666,18.0274 41.6255,18.2953 41.4964,18.4968 C40.9019,19.4261 40.5873,20.5031 40.5873,21.6112 C40.5873,23.8439 41.8354,25.838 43.8444,26.8154 C44.0594,26.9201 44.149,27.1792 44.0443,27.3943 C43.9695,27.5486 43.815,27.6382 43.6546,27.6382 Z M49.1526,27.6064 C48.9937,27.6064 48.8408,27.5188 48.765,27.3671 C48.6578,27.1532 48.7443,26.893 48.9583,26.7858 C50.9303,25.7982 52.1553,23.8154 52.1553,21.6112 C52.1572,20.3725 51.7708,19.1908 51.0375,18.1928 C50.8959,18.0001 50.9372,17.7289 51.1299,17.5872 C51.3229,17.4454 51.594,17.4872 51.7356,17.6798 C52.5792,18.8278 53.0238,20.1875 53.0213,21.6119 C53.0213,24.1453 51.613,26.425 49.3461,27.5604 C49.2839,27.5917 49.2178,27.6064 49.1526,27.6064 Z" id="Shape" fill="#15003E"></path>
                <path d="M53.4833,31.2657 L39.4696,31.2657 L37.1896,22.235 C37.1896,22.2001 37.1896,22.1646 37.1899,22.1297 C37.1896,22.1222 37.1896,22.1147 37.1896,22.107 L37.1896,13.6809 C37.1896,13.4416 37.3836,13.2477 37.6227,13.2477 C37.8618,13.2477 38.0558,13.4417 38.0558,13.6809 L38.0558,18.3193 C39.5355,15.1494 42.7538,12.9479 46.4766,12.9479 C50.1991,12.9479 53.4167,15.149 54.8971,18.3181 L54.8971,11.3018 C54.8971,11.0625 55.0911,10.8686 55.3302,10.8686 C55.5693,10.8686 55.7633,11.0626 55.7633,11.3018 L55.7633,22.107 C55.7633,22.1103 55.7633,22.1136 55.7633,22.1169 C55.7639,22.1562 55.7639,22.1957 55.7639,22.235 L55.7507,22.3417 L53.4833,31.2657 Z M40.1433,30.3993 L52.8096,30.3993 L54.8972,22.1814 C54.8684,17.5629 51.102,13.8144 46.4764,13.8144 C41.8511,13.8144 38.0848,17.5629 38.0559,22.1814 L40.1433,30.3993 Z" id="Shape" fill="#15003E"></path>
                <path d="M55.5547,26.3247 L54.6406,26.3247 C54.4015,26.3247 54.2075,26.1307 54.2075,25.8915 C54.2075,25.6523 54.4015,25.4583 54.6406,25.4583 L55.5547,25.4583 C56.1341,25.4583 56.4318,24.5925 56.4854,24.4189 C56.5139,24.3266 56.5437,24.2397 56.5731,24.1525 C56.7198,23.7218 56.8583,23.315 56.8583,22.0954 C56.8583,21.4969 56.7941,21.0144 56.7207,20.6581 C55.9827,21.5047 55.6816,21.5047 55.5547,21.5047 C55.3156,21.5047 55.1216,21.3107 55.1216,21.0715 C55.1216,20.8542 55.2814,20.6742 55.4901,20.6431 C55.6668,20.5445 56.1522,20.0168 56.5533,19.4846 C56.6445,19.3638 56.7933,19.2994 56.9425,19.3143 C57.0932,19.3295 57.2248,19.4221 57.2903,19.5587 C57.3078,19.5958 57.7243,20.4869 57.7243,22.0954 C57.7243,23.4584 57.556,23.953 57.3934,24.4315 C57.3661,24.5111 57.3392,24.5905 57.3132,24.675 C56.9933,25.708 56.3359,26.3247 55.5547,26.3247 Z M38.312,26.3247 L37.3979,26.3247 C36.6167,26.3247 35.9592,25.708 35.6393,24.6751 C35.6133,24.5905 35.5863,24.5111 35.5591,24.4315 C35.3965,23.953 35.2282,23.4583 35.2282,22.0954 C35.2282,20.4869 35.6447,19.5958 35.6622,19.5587 C35.7277,19.4221 35.8593,19.3295 36.01,19.3143 C36.1607,19.2993 36.308,19.3638 36.3992,19.4846 C36.8003,20.0169 37.2857,20.5446 37.4625,20.6431 C37.6712,20.6741 37.831,20.8542 37.831,21.0715 C37.831,21.3108 37.637,21.5047 37.3979,21.5047 C37.271,21.5047 36.9698,21.5045 36.2319,20.6581 C36.1586,21.0142 36.0943,21.4967 36.0943,22.0954 C36.0943,23.315 36.2328,23.7218 36.3795,24.1525 C36.409,24.2396 36.4387,24.3266 36.4672,24.419 C36.5208,24.5925 36.8185,25.4583 37.3979,25.4583 L38.312,25.4583 C38.5511,25.4583 38.7451,25.6523 38.7451,25.8915 C38.7451,26.1307 38.5511,26.3247 38.312,26.3247 Z" id="Shape" fill="#15003E"></path>
                <path d="M54.0336,27.6377 L38.9303,27.6377 C38.6912,27.6377 38.4972,27.4437 38.4972,27.2045 C38.4972,26.9653 38.6912,26.7713 38.9303,26.7713 L54.0336,26.7713 C54.2727,26.7713 54.4667,26.9653 54.4667,27.2045 C54.4667,27.4437 54.2727,27.6377 54.0336,27.6377 Z M37.7179,21.1874 C37.6088,21.1874 37.4995,21.1464 37.4152,21.0641 C37.2441,20.8971 37.2407,20.6227 37.408,20.4516 C39.867,17.9328 43.1373,16.5456 46.6169,16.5456 C49.8941,16.5456 53.0249,17.7958 55.4331,20.066 C55.6073,20.2302 55.6155,20.5042 55.4513,20.6783 C55.2871,20.8524 55.0129,20.8604 54.839,20.6965 C52.5922,18.5785 49.6722,17.4121 46.6169,17.4121 C43.3729,17.4121 40.3226,18.7065 38.0279,21.0567 C37.9429,21.1437 37.8304,21.1874 37.7179,21.1874 Z" id="Shape" fill="#15003E"></path>
                <path d="M49.5836,19.7883 C49.5837,20.6448 48.8894,21.3392 48.0329,21.3393 C47.1764,21.3394 46.482,20.6451 46.4819,19.7886 L46.4819,19.7882 C46.482,18.9317 47.1764,18.2374 48.0329,18.2375 C48.8893,18.2377 49.5835,18.9319 49.5836,19.7883 M50.692,22.107 C50.692,22.4534 50.4112,22.7342 50.0648,22.7342 C49.7184,22.7342 49.4376,22.4534 49.4376,22.107 C49.4376,21.7606 49.7184,21.4798 50.0648,21.4798 C50.4112,21.4798 50.692,21.7606 50.692,22.107" id="Shape" fill="#FFFFFF"></path>
                <path d="M51.8322,30.0297 C51.2171,30.0297 50.9097,29.5651 50.7063,29.2577 C50.513,28.9655 50.4321,28.8745 50.3036,28.8745 C50.1751,28.8745 50.0946,28.9655 49.9012,29.2577 C49.6981,29.5651 49.3907,30.0297 48.7759,30.0297 C48.1611,30.0297 47.854,29.5651 47.6506,29.2579 C47.4573,28.9655 47.3764,28.8745 47.2479,28.8745 C47.1191,28.8745 47.0379,28.9655 46.8446,29.2579 C46.6412,29.5653 46.3338,30.0297 45.7187,30.0297 C45.1039,30.0297 44.7968,29.5651 44.5934,29.2579 C44.4001,28.9655 44.3192,28.8745 44.1907,28.8745 C44.0616,28.8745 43.9807,28.9655 43.7871,29.2581 C43.5837,29.5654 43.2763,30.0298 42.6612,30.0298 C42.0461,30.0298 41.7383,29.5654 41.535,29.258 C41.3413,28.9656 41.2605,28.8746 41.1317,28.8746 C40.8926,28.8746 40.6986,28.6806 40.6986,28.4414 C40.6986,28.2022 40.8926,28.0082 41.1317,28.0082 C41.7468,28.0082 42.0543,28.4726 42.2576,28.7799 C42.4513,29.0724 42.5321,29.1635 42.6612,29.1635 C42.79,29.1635 42.8712,29.0725 43.0645,28.7801 C43.2679,28.4727 43.5756,28.0083 44.1907,28.0083 C44.8055,28.0083 45.1126,28.4729 45.316,28.7801 C45.5093,29.0725 45.5902,29.1635 45.7187,29.1635 C45.8475,29.1635 45.9287,29.0725 46.122,28.7801 C46.3254,28.4727 46.6328,28.0083 47.2479,28.0083 C47.8627,28.0083 48.1698,28.4729 48.3732,28.7801 C48.5665,29.0725 48.6474,29.1635 48.7759,29.1635 C48.9044,29.1635 48.9852,29.0725 49.1786,28.7801 C49.3817,28.4728 49.6888,28.0083 50.3036,28.0083 C50.9184,28.0083 51.2255,28.4727 51.4289,28.78 C51.6222,29.0725 51.7034,29.1636 51.8322,29.1636 C52.0713,29.1636 52.2653,29.3576 52.2653,29.5968 C52.2653,29.836 52.0713,30.0297 51.8322,30.0297 Z" id="Shape" fill="#15003E"></path>
                <path d="M67.5287,65.4378 L65.2928,65.4378 C63.8786,65.4378 62.7282,64.2874 62.7282,62.8735 L62.7282,54.9529 C62.7282,54.7138 62.9222,54.5198 63.1613,54.5198 L69.6599,54.5198 C69.899,54.5198 70.093,54.7138 70.093,54.9529 L70.093,62.8735 C70.093,64.2875 68.9426,65.4378 67.5287,65.4378 Z M63.5944,55.386 L63.5944,62.8736 C63.5944,63.8099 64.3565,64.5717 65.2928,64.5717 L67.5287,64.5717 C68.465,64.5717 69.2268,63.8099 69.2268,62.8736 L69.2268,55.386 L63.5944,55.386 Z M28.6669,65.4378 L26.4314,65.4378 C25.0172,65.4378 23.8668,64.2874 23.8668,62.8735 L23.8668,55.0133 C23.8668,54.7742 24.0608,54.5802 24.2999,54.5802 L30.7982,54.5802 C31.0373,54.5802 31.2313,54.7742 31.2313,55.0133 L31.2313,62.8735 C31.2312,64.2875 30.0808,65.4378 28.6669,65.4378 Z M24.7329,55.4465 L24.7329,62.8736 C24.7329,63.8099 25.495,64.5717 26.4313,64.5717 L28.6668,64.5717 C29.6031,64.5717 30.3649,63.8099 30.3649,62.8736 L30.3649,55.4465 L24.7329,55.4465 Z" id="Shape" fill="#15003E"></path>
                <g transform="translate(35.000000, 86.000000)" id="Shape">
                    <path d="M8.516,4.7369 L1.8063,4.7369 C1.4633,4.3775 1.2656,3.9584 1.2656,3.5105 C1.2656,2.1779 3.0099,1.0971 5.1612,1.0971 C7.3131,1.0971 9.0571,2.1778 9.0571,3.5105 C9.057,3.9585 8.8596,4.3776 8.516,4.7369 Z M14.7915,4.7369 L21.5012,4.7369 C21.8442,4.3775 22.0419,3.9584 22.0419,3.5105 C22.0419,2.1779 20.2976,1.0971 18.1463,1.0971 C15.9948,1.0971 14.2504,2.1778 14.2504,3.5105 C14.2505,3.9585 14.4482,4.3776 14.7915,4.7369 Z" fill="#231F20"></path>
                    <path d="M21.5014,5.0984 L14.7916,5.0984 C14.6929,5.0984 14.5986,5.058 14.5303,4.9868 C14.1107,4.5478 13.8888,4.0373 13.8888,3.5105 C13.8888,1.9543 15.759,0.7353 18.1465,0.7353 C20.5337,0.7353 22.4036,1.9543 22.4036,3.5105 C22.4036,4.037 22.1821,4.5474 21.7631,4.9865 C21.6947,5.058 21.6001,5.0984 21.5014,5.0984 Z M14.9536,4.3752 L21.3391,4.3752 C21.5628,4.1029 21.6804,3.8064 21.6804,3.5106 C21.6804,2.3985 20.0622,1.4587 18.1466,1.4587 C16.2307,1.4587 14.6121,2.3985 14.6121,3.5106 C14.612,3.8067 14.7295,4.1032 14.9536,4.3752 Z M8.5161,5.0984 L1.8063,5.0984 C1.7076,5.0984 1.613,5.058 1.545,4.9865 C1.1254,4.5478 0.9039,4.0373 0.9039,3.5105 C0.9039,1.9543 2.7741,0.7353 5.1613,0.7353 C7.5485,0.7353 9.4187,1.9543 9.4187,3.5105 C9.4187,4.0376 9.1972,4.5481 8.7776,4.9868 C8.7091,5.058 8.6148,5.0984 8.5161,5.0984 Z M1.9686,4.3752 L8.3541,4.3752 C8.5778,4.1032 8.6954,3.8068 8.6954,3.5106 C8.6954,2.3985 7.0769,1.4587 5.1613,1.4587 C3.2457,1.4587 1.6272,2.3985 1.6272,3.5106 C1.6271,3.8064 1.7446,4.1029 1.9686,4.3752 Z" fill="#15003E"></path>
                </g>
                <path d="M46.8873,65.8753 C46.7996,65.8753 46.7281,65.8048 46.7269,65.7167 L46.4223,41.1427 C46.4214,41.054 46.4922,40.9813 46.5809,40.9802 C46.5815,40.9802 46.5822,40.9802 46.5828,40.9802 C46.6705,40.9802 46.742,41.0507 46.7432,41.1386 L47.0478,65.7129 C47.0487,65.8013 46.9779,65.874 46.8892,65.8752 C46.8892,65.8753 46.8879,65.8753 46.8873,65.8753 Z" id="Shape" fill="#15003E"></path>
                <path d="M42.9834,87.5066 C42.9279,87.5066 42.874,87.4778 42.8443,87.4264 L40.3812,83.1521 L37.8505,87.1823 C37.8029,87.2578 37.7035,87.2801 37.6293,87.2331 C37.5541,87.1858 37.5315,87.0868 37.5785,87.0119 L40.3932,82.5298 L43.1226,87.266 C43.1668,87.3428 43.1405,87.4409 43.0637,87.4854 C43.0382,87.4997 43.0106,87.5066 42.9834,87.5066 Z M50.3804,87.5066 C50.3528,87.5066 50.3252,87.4997 50.2999,87.485 C50.2231,87.4402 50.1971,87.3421 50.2416,87.2656 L52.9973,82.5284 L55.7581,87.013 C55.8045,87.0882 55.781,87.1872 55.7055,87.2336 C55.6309,87.2803 55.5319,87.2571 55.4849,87.181 L53.0049,83.1533 L50.5193,87.4267 C50.4894,87.4781 50.4355,87.5066 50.3804,87.5066 Z" id="Shape" fill="#396D87"></path>
                <g transform="translate(35.000000, 60.000000)" id="Shape">
                    <path d="M4.2934,4.8988 L1.424,4.8988 C0.926,4.8988 0.8663,4.2814 0.8663,4.2814 L0.8663,1.1537 L5.0109,1.1537 L5.0109,4.2217 C5.0109,4.2218 4.9509,4.8988 4.2934,4.8988 Z" fill="#231F20"></path>
                    <path d="M4.2935,5.3319 L1.424,5.3319 C0.8117,5.3319 0.482,4.8092 0.435,4.3232 C0.4337,4.3094 0.4331,4.2956 0.4331,4.2815 L0.4331,1.1538 C0.4331,0.9147 0.6271,0.7207 0.8662,0.7207 L5.0108,0.7207 C5.2499,0.7207 5.4439,0.9147 5.4439,1.1538 L5.4439,4.2216 C5.4439,4.2404 5.443,4.2586 5.4405,4.2768 C5.3818,4.7867 4.9992,5.3319 4.2935,5.3319 Z M1.2993,4.2505 C1.3081,4.2956 1.346,4.4658 1.424,4.4658 L4.2935,4.4658 C4.4928,4.4658 4.5586,4.3223 4.5777,4.1941 L4.5777,1.5869 L1.2993,1.5869 L1.2993,4.2505 Z" fill="#15003E"></path>
                </g>
                <g transform="translate(35.000000, 59.000000)" id="Shape">
                    <path d="M1.7132,0.7547 L4.186,0.7547 C4.727,0.7547 4.7119,1.2951 4.7119,1.2951 L4.7119,2.1541 L1.08559752,2.1541 L1.0856,1.3474 C1.0855,1.3474 1.0855,0.7547 1.7132,0.7547 Z" fill="#939598"></path>
                    <path d="M4.7118,2.5872 L1.0855,2.5872 C0.8464,2.5872 0.6524,2.3932 0.6524,2.1541 L0.6524,1.3475 C0.6524,0.9351 0.9347,0.3215 1.7131,0.3215 L4.1859,0.3215 C4.5359,0.3215 4.7528,0.4688 4.8731,0.5929 C5.1429,0.8699 5.1467,1.2366 5.1448,1.3071 L5.1448,2.1541 C5.1449,2.3932 4.9509,2.5872 4.7118,2.5872 Z M1.5186,1.721 L4.2787,1.721 L4.2787,1.2951 C4.2778,1.2559 4.263,1.2077 4.2521,1.1967 C4.2521,1.1967 4.2346,1.1876 4.186,1.1876 L1.7132,1.1876 C1.6549,1.1876 1.5186,1.1876 1.5186,1.3474 L1.5186,1.721 Z" fill="#15003E"></path>
                </g>
                <g transform="translate(52.000000, 60.000000)" id="Shape">
                    <path d="M4.3826,5.3125 L1.5845,4.6775 C1.0987,4.5674 1.1773,3.952 1.1773,3.952 L1.8695,0.902 L5.9111,1.8194 L5.2321,4.811 C5.2319,4.8109 5.0237,5.4581 4.3826,5.3125 Z" fill="#231F20"></path>
                    <path d="M4.5634,5.7672 C4.4757,5.7672 4.3835,5.7569 4.2867,5.7349 L1.4887,5.0997 C0.8911,4.9646 0.6855,4.3815 0.7476,3.897 C0.7492,3.8832 0.7517,3.8694 0.7548,3.8559 L1.447,0.8059 C1.4724,0.6937 1.5413,0.5966 1.6385,0.5352 C1.736,0.4741 1.8538,0.454 1.9653,0.4794 L6.0068,1.3969 C6.2403,1.4499 6.3863,1.6821 6.3333,1.9152 L5.6542,4.9066 C5.6514,4.9188 5.6479,4.931 5.6442,4.9433 C5.5289,5.3025 5.1563,5.7669 4.5634,5.7672 Z M1.6065,4.0176 C1.6049,4.0634 1.604,4.2376 1.6801,4.2548 L4.4785,4.89 C4.6725,4.9345 4.7687,4.8082 4.8154,4.6882 L5.3926,2.1459 L2.196,1.4201 L1.6065,4.0176 Z" fill="#15003E"></path>
                </g>
                <g transform="translate(53.000000, 56.000000)" id="Shape">
                    <polygon fill="#BCBEC0" points="4.9815 1.2547 2.7796 0.7551 1.333 5.0068 4.4373 5.7115"></polygon>
                    <path d="M4.4374,6.1447 C4.4054,6.1447 4.3732,6.1413 4.3415,6.134 L1.2373,5.4292 C1.1176,5.4019 1.0151,5.3255 0.955,5.2183 C0.8951,5.1111 0.8836,4.9836 0.923,4.8673 L2.3695,0.6155 C2.4409,0.4055 2.66,0.2846 2.8756,0.3325 L5.0776,0.832 C5.2941,0.8812 5.4386,1.0865 5.4116,1.3071 L4.8673,5.7641 C4.8526,5.8857 4.7868,5.9954 4.6865,6.0659 C4.6129,6.1177 4.5257,6.1447 4.4374,6.1447 Z M1.8982,4.691 L4.0654,5.183 L4.5041,1.5906 L3.0642,1.2638 L1.8982,4.691 Z" fill="#15003E"></path>
                </g>
                <path d="M57.506,57.9449 C57.506,57.9449 56.8315,58.3807 56.6874,59.187 C56.5433,59.9934 57.1989,60.7834 57.1989,60.7834 L57.506,57.9449 Z" id="Shape" fill="#15003E"></path>
                <g transform="translate(51.000000, 43.000000)" fill="#EFF4EE" id="Shape">
                    <path d="M2.5822,1.6977 C2.5212,1.5976 2.4619,1.4965 2.4019,1.3961 C2.2514,1.1448 2.1025,0.8929 1.9498,0.6433 C1.8879,0.5422 1.8365,0.4338 1.7602,0.3417 C1.7336,0.2923 1.7336,0.3475 1.731,0.352 C1.5734,0.6116 1.4172,0.8715 1.2615,1.1321 C1.1453,1.3269 1.0311,1.5226 0.9159,1.718 C0.8992,1.7501 0.9307,1.7498 0.9445,1.7581 C1.2015,1.9121 1.4595,2.0652 1.7162,2.2195 C1.7422,2.2352 1.7614,2.2371 1.7884,2.2211 C2.0474,2.0658 2.307,1.9114 2.5672,1.7584 C2.5979,1.7398 2.5992,1.7256 2.5822,1.6977 Z"></path>
                    <path d="M2.4833,2.0956 C2.2426,2.2371 2.0023,2.3799 1.7619,2.5221 C1.726,2.5211 1.7006,2.4964 1.6721,2.4797 C1.4481,2.3475 1.2245,2.214 1.0005,2.0818 C0.9812,2.0706 0.9642,2.0497 0.9296,2.0616 L1.1924,2.4348 C1.3647,2.6796 1.5367,2.9245 1.7106,3.168 C1.7202,3.1815 1.7209,3.2261 1.7597,3.1982 C1.7783,3.1976 1.786,3.1822 1.7947,3.1696 C2.0383,2.825 2.2815,2.4803 2.5244,2.1354 C2.5356,2.1197 2.5546,2.1023 2.5343,2.0821 C2.5132,2.061 2.4984,2.087 2.4833,2.0956 Z"></path>
                </g>
                <path d="M62.8271,91.7078 L30.2021,91.7078 C30.0646,91.7078 29.9521,91.5953 29.9521,91.4578 L29.9521,91.3484 C29.9521,91.2109 30.0646,91.0984 30.2021,91.0984 L62.8271,91.0984 C62.9646,91.0984 63.0771,91.2109 63.0771,91.3484 L63.0771,91.4578 C63.0771,91.5953 62.9646,91.7078 62.8271,91.7078 Z" id="Shape" fill="#15003E"></path>
            </g>
        </g>
    </g>
</svg>