<svg xmlns="http://www.w3.org/2000/svg" viewBox="0 0 1039.23 1200"><defs><style>.a,.m{fill:#fff}.b{fill:#d6d6ea}.e{fill:#14b1ff}.f{fill:#54536b}.h{fill:#62617d}.i,.r,.s,.x{fill:none}.r,.s,.x{stroke:#15003e}.r,.s{stroke-linecap:round}.s,.x{stroke-linejoin:round}.l{fill:#e3f6ff}.m{opacity:.2}.n{fill:#f0f0ff}.r,.s,.x{stroke-width:3.18px}.q{fill:#25e899}.t{mask:url(#a)}.u{mask:url(#d)}.v{fill:#15003e}.w{mask:url(#e)}.y{mask:url(#j)}.z{mask:url(#m)}.aa{mask:url(#r)}.ab{mask:url(#v)}.ac{fill:#eff4ee}.ad{mask:url(#ab)}</style><mask id="a" x="462.15" y="321.83" width="271.38" height="309.99" maskUnits="userSpaceOnUse"><path class="a" d="M572.09 631.82l161.44-75.77-109.94-234.22-161.44 75.78z"/></mask><mask id="d" x="472.13" y="329.14" width="253.77" height="303.11" maskUnits="userSpaceOnUse"><path class="a" d="M557.56 632.24l168.33-58.88-85.43-244.22L472.13 388z"/></mask><mask id="e" x="558.11" y="332.4" width="314.18" height="291.44" maskUnits="userSpaceOnUse"><path class="a" d="M558.11 475.05l98.33 148.78 215.85-142.65L774 332.4z"/></mask><mask id="j" x="434.61" y="348.94" width="309.35" height="308.76" maskUnits="userSpaceOnUse"><path class="a" d="M618.5 657.7L744 530.94l-183.9-182-125.49 126.75z"/></mask><mask id="m" x="512.75" y="349.63" width="314.18" height="291.44" maskUnits="userSpaceOnUse"><path class="a" d="M512.75 492.29l98.32 148.78 215.86-142.66-98.33-148.78z"/></mask><mask id="r" x="389.25" y="366.17" width="309.35" height="308.76" maskUnits="userSpaceOnUse"><path class="a" d="M573.14 674.93L698.6 548.18l-183.9-182-125.45 126.75z"/></mask><mask id="v" x="527.06" y="436.44" width="269.11" height="193.76" maskUnits="userSpaceOnUse"><path class="a" d="M796.17 614.45l-10.86-178-258.25 15.74 10.86 178z"/></mask><mask id="ab" x="478.6" y="334.3" width="230.76" height="291.56" maskUnits="userSpaceOnUse"><path class="a" d="M535.37 625.86l174-39.13L652.6 334.3l-174 39.13z"/></mask></defs><path class="b" d="M887.02 212.13l-26.77-15.47-175.46-101.3-5.19-2.99-28.43-16.42L535.18 8.98 523.42 2.2 519.61 0l-3.65 2.12-11.9 6.86-144.42 83.39-5.19 2.99-180.92 104.45-21.33 12.32-36.66 21.16-16.57 9.58-5.75 3.32h-.02L0 300v600l129.8 74.95 22.32 12.87 9.94 5.74h.01l7.23 4.19 34.44 19.88L506 1192.14l13.61 7.86 13.65-7.88 108.76-62.78 40-23.1 168.46-97.27 46.04-26.57 25.56-14.76 66.13-38.19 51.02-29.45V300l-152.21-87.87z"/><path class="a" d="M254.4 962.3l-11.84-6.83-1.81-1.04-75.83-43.79-13.11-7.56-24.67-14.25-56.42-32.57V340.05l99.92-57.69 8.13-4.7 3.72-2.14 2.47-1.42 64.06-36.99h.01L510.12 86.36l7.65-4.45 7.9 4.6 317.01 183.03 1.67.96 120.47 69.55v516.21l-164.43 94.93-95.67 55.24-186.95 107.93L254.4 962.3z"/><path fill="#5ecaff" d="M949.59 348.84v351.61l-45.57-22.89-139.2 91.18-89.79 17.76 23.92 30.76 2.19 2.84L792.77 938l-95.67 55.24-98.59 56.92-80.74 46.62L263.7 950.09l-15.35-8.86 47.86-25.44 5.16-4.74 66.16-60.73-1.02-.8-.21.58-.23.22h-.01l-89.46-33.06-16.18-23.83-24.38 10.21-17.28 7.25-16.11-3.14-116.71-22.7V348.84l70.91-40.94 10.23-5.9 8.05-4.64 3.12-1.81 11.85-6.84 7.89-4.55 55.1-31.82h.01l24.01-13.87 235.32-135.86h10.67l88.58 51.14 217.21 125.41 7.86 4.54h.01l13.27 7.66 99.56 57.48z"/><path d="M850 291.35a183.22 183.22 0 0 1-29.66 23.17 181 181 0 0 1-82.46 27.21c-3.12-2.16-6.23-4.37-9.31-6.6q-2.6 3.63-5.33 7.15a182.11 182.11 0 0 1-149.64-78.72 106.89 106.89 0 0 1-144.68-27.69 181.57 181.57 0 0 1-107.22 34.85 182.82 182.82 0 0 1-42.7-5.05 70.62 70.62 0 0 1-60.5 43.13c-1.52.1-3.06.15-4.61.15a70 70 0 0 1-38.73-11.6l3.12-1.8 334.15-192.94 5.1-2.94h.47l5.1 2.94 88.59 51.14z" opacity=".24" fill="#fff"/><path class="e" d="M315.92 847.39l-42.37 9.97 4.99-17.45 37.38 7.48zM804.63 878l18.59-13.22s-7.65 26-8.89 26.86l-16.11 11.46-14.28-25.31-18.36-18.42-.07-.07-1.17-1.18 11.4 6.67L793.15 875z"/><path class="a" d="M850 291.35a183.22 183.22 0 0 1-29.66 23.17 181 181 0 0 1-82.46 27.21c-4.7.37-9.47.55-14.27.55h-.37a182.11 182.11 0 0 1-149.64-78.72 106.89 106.89 0 0 1-144.68-27.69 181.57 181.57 0 0 1-107.22 34.85 182.82 182.82 0 0 1-42.7-5.05 70.62 70.62 0 0 1-60.5 43.13c-1.52.1-3.06.15-4.61.15a70 70 0 0 1-38.73-11.6l3.12-1.8 11.85-6.84 7.89-4.55 55.1-31.82 24-13.87 235.31-135.86 5.1-2.94h.47l5.1 2.94 88.59 51.14 217.2 125.41q-5.52 4.39-11.38 8.23c-3.11 2-6.28 3.94-9.49 5.73a169.09 169.09 0 0 1-31 13.37l-1.31.44-1.35.38-2.67.74-5.36 1.49c-3.58.88-7.22 1.57-10.82 2.38q-5.47.84-10.94 1.61c-3.68.26-7.34.62-11 .8a161.57 161.57 0 0 1-43.57-4.41l-2.68-.6c-.89-.19-1.76-.49-2.64-.73l-5.26-1.52-1.32-.38-1.29-.45-2.59-.91c-1.72-.59-3.46-1.15-5.17-1.79a176.3 176.3 0 0 1-19.91-9.15l-4.83-2.6-4.68-2.88c-3.19-1.82-6.09-4.06-9.14-6.11-1.55-1-2.93-2.21-4.4-3.31l-4.36-3.4-4.14-3.64c-1.4-1.21-2.83-2.38-4.1-3.71-2.62-2.6-5.35-5.1-7.78-7.89l-3.75-4.1-3.52-4.31-1.76-2.16-.9-1.08-.88-1.17-3.56-4.63-7.15-9.24-4-5.17-4.69 3.44c-4.64 3.39-9.29 6.76-13.88 10.21l-1.72 1.28-1.63 1.19c-1.11.78-2.24 1.53-3.39 2.27-2.28 1.48-4.68 2.78-7.1 4.06a87.71 87.71 0 0 1-15.38 6.16 98.1 98.1 0 0 1-16.59 3.4v1.87a80.91 80.91 0 0 0 17.6 0A85.56 85.56 0 0 0 550.9 259a83.12 83.12 0 0 0 8.42-3.32c1.38-.64 2.75-1.29 4.09-2l2-1.08 1.91-1c3.14-1.71 6.26-3.46 9.38-5.21l3.08 5 3.09 5 .78 1.23.84 1.28 1.7 2.54c1.13 1.68 2.27 3.38 3.44 5.05l3.73 4.86c2.41 3.31 5.22 6.28 7.91 9.37a159.72 159.72 0 0 0 38.31 30.8 161.38 161.38 0 0 0 22.28 10.74c1.93.73 3.89 1.38 5.84 2.06s3.87 1.45 5.88 1.93l6 1.63c1 .26 2 .57 3 .79l3 .63a166 166 0 0 0 49.14 3 160.48 160.48 0 0 0 47.59-11.33 157.6 157.6 0 0 0 31.58-17.58c3.37-2.41 6.64-4.95 9.79-7.59q6.84-5.72 13-12.05z"/><path class="f" d="M425.79 782.02l-35.96 23.97-17.64 27.45-5.68 16.08-.21.58-.23.22h-.01l-89.46-33.06-16.18-23.83 61.28-25.68 104.09 14.27zM775.74 864.76l-1.12.05-9.04-5.47-.07-.07-1.16-1.18 11.39 6.67zM698.95 817.26l2.19 2.84-4.64-2.84-73.64-13.51-1.18-.21v-6.49l1.47-.3 51.88-10.25 23.92 30.76z"/><path fill="#7ccef7" d="M645.21 755.5l11.77-43.13-5.7-33.23-.67-1.58-35.3-7.84-32.35 3.92-61.76 34.31-23.53 7.85-37.25 43.13-34.63 23.09 160.6 22.01 35.29-6.98v-26.84l23.53-14.71z"/><path class="h" d="M798.22 903.07l-14.28-25.31-18.36-18.42-.07-.07-1.17-1.18 11.4 6.67L793.15 875l11.48 3 18.59-13.22s-7.65 26-8.89 26.86zM278.54 839.91l37.38 7.48-42.37 9.97 4.99-17.45zM366.51 849.52l-.21.58-.23.22h-.01l-89.46-33.06-16.18-23.83-24.38 10.21-17.28 7.25-16.11-3.14 37.88-12.72 17.07-5.74 64.1-21.54-4.9 43.14 49.71 38.63z"/><path class="i" d="M134.94 1001.57l-.08-.04M367.53 850.32h.01l.72.27M301.37 911.05l-37.67 39.04-5.61 5.81-11.84-6.83-1.83-1.05-4.25-2.45 8.17-4.34h.01l47.86-25.44 5.16-4.74z"/><path stroke-miterlimit="10" stroke-width=".98" stroke="#15003e" fill="none" d="M652.75 679.14l-.18-1.09"/><path stroke-width="3.92" stroke-linejoin="round" stroke-linecap="round" stroke="#15003e" fill="none" d="M134.94 1001.57l-.08-.04"/><path class="f" d="M823.22 864.75s-7.65 26-8.89 26.86l-16.11 11.46-14.28-25.31-18.36-18.42-.07-.07-1.17-1.18 11.4 6.67L793.15 875l11.48 3zM315.92 847.39l-42.37 9.97 4.99-17.45 37.38 7.48z"/><path class="l" d="M836.76 283.7q-6.19 6.32-13 12.05c-3.15 2.64-6.42 5.18-9.79 7.59a157.6 157.6 0 0 1-31.58 17.58 160.48 160.48 0 0 1-47.59 11.33 166 166 0 0 1-49.14-3l-3-.63c-1-.22-2-.53-3-.79l-6-1.63c-2-.48-3.92-1.27-5.88-1.93s-3.91-1.33-5.84-2.06a161.38 161.38 0 0 1-22.28-10.74 159.72 159.72 0 0 1-38.31-30.8c-2.69-3.09-5.5-6.06-7.91-9.37l-3.73-4.86c-1.17-1.67-2.31-3.37-3.44-5.05l-1.7-2.54-.84-1.28-.78-1.23-3.09-5-3.08-5c-3.12 1.75-6.24 3.5-9.38 5.21l-1.91 1-2 1.08c-1.34.7-2.71 1.35-4.09 2a83.12 83.12 0 0 1-8.5 3.37 85.56 85.56 0 0 1-17.49 3.82 80.91 80.91 0 0 1-17.6 0V261a98.1 98.1 0 0 0 16.57-3.36 87.71 87.71 0 0 0 15.38-6.16c2.42-1.28 4.82-2.58 7.1-4.06 1.15-.74 2.28-1.49 3.39-2.27l1.63-1.19 1.72-1.28c4.59-3.45 9.24-6.82 13.88-10.21l4.69-3.44 4 5.17 7.15 9.24 3.56 4.63.88 1.17.9 1.08 1.76 2.16 3.52 4.31 3.75 4.1c2.43 2.79 5.16 5.29 7.78 7.89 1.27 1.33 2.7 2.5 4.1 3.71l4.14 3.64 4.36 3.4c1.47 1.1 2.85 2.32 4.4 3.31 3 2.05 5.95 4.29 9.14 6.11l4.68 2.88 4.83 2.6a176.3 176.3 0 0 0 19.88 9.11c1.71.64 3.45 1.2 5.17 1.79l2.59.91 1.29.45 1.32.38 5.26 1.52c.88.24 1.75.54 2.64.73l2.68.6a161.57 161.57 0 0 0 43.61 4.41c3.67-.18 7.33-.54 11-.8q5.48-.78 10.94-1.61c3.6-.81 7.24-1.5 10.82-2.38l5.36-1.49 2.67-.74 1.35-.38 1.31-.44a169.09 169.09 0 0 0 31-13.37c3.21-1.79 6.38-3.71 9.49-5.73q5.85-3.83 11.38-8.23z"/><path class="a" d="M301.37 911.05l-37.67 39.04-15.35-8.86 47.86-25.44 5.16-4.74z"/><path class="l" d="M320.72 251.06v2.06a91.64 91.64 0 0 1-14.09 2.13 116.06 116.06 0 0 1-14.33.17c-2.38-.14-4.79-.3-7.18-.57l-3.58-.45c-1.19-.15-2.3-.31-3.45-.49-2.1-.33-4.2-.63-6.29-1l-.59 1.63-2.87 7.65c-.1.29-.28.69-.42 1l-.48 1.1-1 2.19c-.74 1.42-1.49 2.84-2.28 4.24s-1.68 2.74-2.63 4-1.89 2.59-3 3.77a50.47 50.47 0 0 1-15 11.76 51.43 51.43 0 0 1-17.53 5.44l-.5.06a59 59 0 0 1-18.18-.89 66.67 66.67 0 0 1-16.63-5.81c-.21-.11-.43-.22-.63-.34l7.89-4.55a39.73 39.73 0 0 0 10.32 1.12 45.16 45.16 0 0 0 14.26-2.85 51.3 51.3 0 0 0 12.15-6.72 58.74 58.74 0 0 0 9.79-9.18 16.28 16.28 0 0 0 1-1.29l1-1.32c.66-.89 1.27-1.82 1.93-2.73l1.7-2.88.75-1.5.38-.76c.13-.25.25-.47.4-.8l1.35-2.91 24-13.87c1.45.49 2.89 1 4.35 1.46 1.08.35 2.2.74 3.25 1.1s2.09.73 3.15 1.07c2.1.68 4.22 1.4 6.36 2 4.27 1.33 8.63 2.5 13 3.66s9.06 2.24 13.63 3.3z"/><path class="m" d="M949.59 348.84v68.3a434.49 434.49 0 0 1-211.68-75.41 181 181 0 0 0 82.46-27.21A183.22 183.22 0 0 0 850 291.35zM723.27 342.28a256 256 0 0 1-341.13 59.17c-67.46 97.49-173.57 166.22-296.2 184V348.84l70.91-40.94 10.23-5.9 8-4.65A70 70 0 0 0 213.86 309c1.55 0 3.09-.05 4.61-.15A70.62 70.62 0 0 0 279 265.67a182.82 182.82 0 0 0 42.73 5.05 181.57 181.57 0 0 0 107.22-34.85 106.89 106.89 0 0 0 144.65 27.69 182.11 182.11 0 0 0 149.67 78.72z"/><path class="n" d="M658.45 712.37l-11.77 43.13-23.53 14.71v33.33l-.29.21-33.04 24.3-50.97 22.54-24.51 5.89 28.43 18.62 5.88 37.26-25.49-5.89 29.41 49.02-17.65 11.76 27.45 25.49v21.57l-8.82 5.88 44.96 29.97-80.74 46.62L263.7 950.09l37.67-39.04 66.16-60.73h.01l.23-.22 5.89-16.66 17.64-27.45 35.71-23.81 34.88-23.25 37.25-43.13 23.53-7.85 61.76-34.31 31.4-3.8h.01l.94-.12 35.3 7.84.67 1.58 5.7 33.23z"/><path fill="#c0c0d4" d="M792.77 938l-95.67 55.24-98.59 56.92-44.96-29.97 8.82-5.88v-21.57l-27.45-25.49 17.65-11.76-29.41-49.02 25.49 5.89-5.88-37.26-28.43-18.62 24.51-5.89 50.97-22.54 33.04-24.3.29-.21v-33.33l23.53-14.71 11.77-43.13-5.7-33.23 14.03 32.74 3.92 45.09-4.9 17.65 9.23 11.88 23.92 30.76 2.19 2.84L792.77 938z"/><path class="f" d="M949.59 700.45v22.46l-45.57-41.43-129.4 112.74-75.67 23.04-23.92-30.76 89.79-17.76 139.2-91.18 45.57 22.89z"/><path class="h" d="M928.53 859.62L792.77 938l-91.63-117.9 64.37 39.17.07.07 18.36 18.42 14.28 25.31 16.11-11.46c1.24-.88 8.89-26.86 8.89-26.86L804.63 878l-11.48-3-17.4-10.19 148.86-5.83z"/><path class="h" d="M949.59 722.91v124.56l-21.06 12.15-3.92-.69-148.86 5.83h-.01l-11.39-6.67 1.16 1.18-64.37-39.17-2.19-2.84 75.67-23.04 129.4-112.74 45.57 41.43zM236.04 803.64l-10.42 19.99-77.44 26.47-62.24-17.33v-.94l49.49 8.47 63.73-31.37 3.49-1.18 16.11 3.14 17.28-7.25z"/><path class="h" d="M366.51 849.53l-.21.57-.23.22-89.47-33.06-16.18-23.83-24.37 10.21-10.43 20-77.44 26.46-62.24-17.33v14.7l48.82 28.17 24.66 14.25 13.12 7.56 75.8 43.78 47.86-25.44 5.16-4.74 66.16-60.73zm-93 7.83l5-17.45 37.38 7.48z"/><path class="f" d="M202.65 807.75l-3.49 1.18-63.73 31.37-49.49-8.47v-46.78l116.71 22.7z"/><path d="M551.24 635.4l142.94-74.74a27.2 27.2 0 0 0 10.46-38.53h0a27.2 27.2 0 0 0-35.64-9.68l-143 74.74a27.2 27.2 0 0 0-10.45 38.53h0a27.18 27.18 0 0 0 35.69 9.68z" stroke-width="3.18" fill="#0fce7c" stroke-linejoin="round" stroke-linecap="round" stroke="#15003e"/><path class="b" d="M663.21 538.24a6.07 6.07 0 0 0-2.21 2.6l-3.19-4.84a7 7 0 0 0 .9-.14 7.63 7.63 0 0 0 3.73-2.08l4.25-4.29a1.59 1.59 0 0 0 0-2.25L641 501.85a7.63 7.63 0 0 0-13 5.46 7.55 7.55 0 0 0 2.26 5.38l21.35 21.14a7.65 7.65 0 0 0 3.6 2 1.59 1.59 0 0 0-.11 1.89l4.55 6.88-2.05 1.4-2.32-3.51a5.59 5.59 0 0 0-2.79-2.18l-25.27-25a1.59 1.59 0 0 0-2.24 2.26l23.2 23a6 6 0 0 0-.7.39 5.6 5.6 0 0 0-2.13 6.77l-12.11 8-4.56-6.9a7 7 0 0 0-6.9-3 1.61 1.61 0 0 0-.46-1.21l-25.66-25.39a7.63 7.63 0 0 0-13 5.46 7.55 7.55 0 0 0 2.26 5.38l21.35 21.13a7.59 7.59 0 0 0 3.6 2 1.56 1.56 0 0 0-.11 1.88l4.55 6.88-2.08 1.38-2.32-3.52a5.65 5.65 0 0 0-2.79-2.18l-25.27-25a1.59 1.59 0 0 0-2.24 2.26l23.2 23a4.8 4.8 0 0 0-.7.39 5.55 5.55 0 0 0-2.42 3.56 5.66 5.66 0 0 0 .28 3.21l-12.1 8-4.56-6.9a7 7 0 1 0-11.69 7.72l-1.83 1.12a1.62 1.62 0 0 0-.68 1 1.57 1.57 0 0 0 .24 1.19l5.71 8.64a1.56 1.56 0 0 0 1 .68 1.52 1.52 0 0 0 .67 0 1.78 1.78 0 0 0 .53-.23l1.85-1.22 1.2 1.83-1.85 1.22a1.59 1.59 0 0 0-.45 2.2l5.72 8.64a1.56 1.56 0 0 0 1 .68 1.52 1.52 0 0 0 .67 0 1.61 1.61 0 0 0 .53-.22l2-1.3a7.06 7.06 0 0 0 6.49 1.89 7 7 0 0 0 4.32-10.7l-3.16-4.77 12.21-8.06a5.63 5.63 0 0 0 8.33-7.41l-2.12-3.2 2.08-1.38 4.31 6.53a1.59 1.59 0 0 0 1.67.67 1.65 1.65 0 0 0 .53-.22 1.59 1.59 0 0 0 .45-2.2l-.24-.37 1.68-1.11 1.21 1.83-1.86 1.22a1.59 1.59 0 0 0-.45 2.2l5.72 8.65a1.6 1.6 0 0 0 1 .68 1.68 1.68 0 0 0 .67 0 1.75 1.75 0 0 0 .53-.22l2-1.3a7 7 0 0 0 3.56 1.91 7 7 0 0 0 7.2-10.75l-3.16-4.77 12.21-8.07a5.63 5.63 0 0 0 8.33-7.4l-2.09-3.16 2.08-1.37 4.31 6.52a1.6 1.6 0 0 0 1.68.68 1.72 1.72 0 0 0 .52-.23 1.59 1.59 0 0 0 .45-2.2l-1.71-2.59a6.53 6.53 0 0 0 1.24-.13 6.11 6.11 0 1 0-4.71-11.06z"/><path class="b" d="M624.73 512.89a1.32 1.32 0 0 0 .34 0 1.6 1.6 0 0 0 1.24-1.56v-7l4.72-4.78a1.59 1.59 0 0 0-2.26-2.23l-5.18 5.24a1.56 1.56 0 0 0-.46 1.13v7.64a1.59 1.59 0 0 0 1.6 1.56zM579.37 530.13h.34a1.6 1.6 0 0 0 1.24-1.56v-7l4.72-4.77a1.59 1.59 0 0 0-2.26-2.24l-5.19 5.25a1.56 1.56 0 0 0-.45 1.12v7.65a1.59 1.59 0 0 0 1.6 1.55z"/><path class="b" d="M725 451.75a9.34 9.34 0 0 0-6.81-2.35l-29 1.77h-.11l-14.27.87h-.11l-14.59.89a9.43 9.43 0 0 0-8.83 10l.08 1.25-.84-2.39L630 469l-5.73-16.4a1.59 1.59 0 0 0-2-1l-9.53 3.33-3.87-11.06-52.21 18.23 3.87 11.07-7.4 2.58a1.65 1.65 0 0 0-.91.81 1.61 1.61 0 0 0-.06 1.22l5.73 16.39-19.34 6.77.39 1.11a9.38 9.38 0 0 0-8.44-.24l-7.42 3.48a9.42 9.42 0 0 0-4.51 12.52l6.24 13.27 6.12 13 12.36 26.32a9.36 9.36 0 0 0 12.51 4.6l7.42-3.48a9.39 9.39 0 0 0 4.51-12.52l-12.36-26.33L545.22 511l17.25-6a18.55 18.55 0 0 0 4.24 4.24 3.69 3.69 0 0 0 4.41 5.33 3.72 3.72 0 0 0 2.26-2.31 18.32 18.32 0 0 0 8.17 0 19.63 19.63 0 0 0 2.08-.6l13.22-4.62a5.86 5.86 0 0 0 .33 2.21 6.09 6.09 0 1 0 11.49-4 6.32 6.32 0 0 0-1.12-1.94l13.21-4.62a18.23 18.23 0 0 0 8.32-5.93 3.64 3.64 0 0 0 3.19.39 3.69 3.69 0 0 0 2.27-4.7 3.71 3.71 0 0 0-2.11-2.19 18.47 18.47 0 0 0 .69-6l19.18-6.71a9.4 9.4 0 0 0 9.47 6.32l14.6-.89h.1l14.27-.87h.12l29-1.77a9.59 9.59 0 0 0 1.52-.21 9.42 9.42 0 0 0 7.31-9.74l-.5-8.19a9.32 9.32 0 0 0-3.19-6.45zM560.23 449.35a1.59 1.59 0 1 0 .69 3.1l39.63-8.92a1.59 1.59 0 0 0-.7-3.1zM539.46 417.91l2.94-.66 7.8 15.41 1.6 7.13a8.51 8.51 0 0 0 10.2 6.44l34.23-7.7a8.52 8.52 0 0 0 6.43-10.17l-1.6-7.12.47-17.28 3-.68a6.53 6.53 0 0 0 4.93-7.79l-2.75-12.23a6.54 6.54 0 0 0-7.16-5.05l-6.49-28.88a1.59 1.59 0 1 0-3.1.69l5.65 25.14a34 34 0 0 0-60.24 13.55l-3.74-16.62a1.59 1.59 0 0 0-3.1.7l4.59 20.38a6.52 6.52 0 0 0-4.19 7.58l2.74 12.25a6.52 6.52 0 0 0 7.79 4.91z"/><path class="q" d="M537 525.36L527.47 505z"/><path class="r" d="M537 525.36L527.47 505"/><path class="s" d="M562.54 570.06l-7.42 3.49a7.82 7.82 0 0 1-10.39-3.77L520 517.13a7.82 7.82 0 0 1 3.75-10.4l7.42-3.48a7.82 7.82 0 0 1 10.4 3.76l24.71 52.65a7.81 7.81 0 0 1-3.74 10.4z"/><g class="t"><path class="q" d="M558.54 556.33a6.31 6.31 0 1 0-3 8.39 6.32 6.32 0 0 0 3-8.39"/></g><g class="t"><path class="r" d="M558.54 556.33a6.31 6.31 0 1 0-3 8.39 6.32 6.32 0 0 0 3-8.39z"/></g><g class="t"><path class="s" d="M526.25 530.42l21.56-10.13m-15.44 23.17l21.57-10.13"/></g><g class="u"><path class="v" d="M542.42 512l21.64-7.57-3.87-11.07-21.64 7.57z"/></g><path class="s" d="M647.2 547.8l6.16 9.31a4 4 0 0 0 6.75-4.46l-6.11-9.31a4 4 0 0 0-5.6-1.14 4 4 0 0 0-1.15 5.6zM618.32 555.59l15.38 23.28a5.41 5.41 0 0 0 7.5 1.52 5.4 5.4 0 0 0 1.53-7.49l-15.38-23.27a5.42 5.42 0 0 0-7.5-1.53 5.43 5.43 0 0 0-1.54 7.5z"/><g class="w"><path class="s" d="M632.788 557.84l14.658-9.687 5.916 8.952-14.658 9.687zM667.07 552.9l-10.61-16.06"/></g><g class="w"><path class="v" d="M624.7 572.16l5.71 8.64 3.18-2.1-5.71-8.64z"/></g><g class="w"><path class="x" d="M624.7 572.16l5.71 8.64 3.18-2.1-5.71-8.64z"/></g><g class="w"><path class="v" d="M616 559l5.71 8.64 3.18-2.1-5.71-8.64z"/></g><g class="w"><path class="x" d="M616 559l5.71 8.64 3.18-2.1-5.71-8.64z"/></g><path class="s" d="M664.09 539.56a4.53 4.53 0 0 1 6.27 1.27 4.53 4.53 0 0 1-7.56 5 4.53 4.53 0 0 1 1.28-6.27zM657.15 548.17l4.73-3.12"/><g class="y"><path class="i" d="M656.05 519l-8.5 8.59"/><path class="x" d="M656.05 519l-8.5 8.59"/></g><g class="y"><path class="x" d="M661.31 532.67l4.25-4.3L639.91 503a6 6 0 1 0-8.51 8.59l21.35 21.14a6 6 0 0 0 8.55 0z"/></g><path class="s" d="M626.1 516.4l28.62 28.33"/><g class="y"><path class="i" d="M644.87 507.89l-8.5 8.59"/><path class="x" d="M644.87 507.89l-8.5 8.59"/></g><path class="s" d="M629.86 498.42l-5.19 5.24.05 7.64M601.84 565l6.16 9.32a4 4 0 0 0 6.75-4.46l-6.16-9.32a4 4 0 0 0-5.6-1.14 4 4 0 0 0-1.15 5.6zM573 572.83l15.39 23.27a5.4 5.4 0 0 0 7.49 1.53 5.41 5.41 0 0 0 1.53-7.5L582 566.86a5.41 5.41 0 0 0-7.5-1.53 5.42 5.42 0 0 0-1.54 7.5z"/><g class="z"><path class="s" d="M587.431 575.083l14.658-9.687 5.916 8.951-14.658 9.688zM621.71 570.13l-10.62-16.05"/></g><g class="z"><path class="v" d="M579.34 589.39l5.71 8.65 3.18-2.1-5.71-8.65z"/></g><g class="z"><path class="x" d="M579.34 589.39l5.71 8.65 3.18-2.1-5.71-8.65z"/></g><g class="z"><path class="v" d="M570.67 576.28l5.71 8.64 3.18-2.1-5.71-8.64z"/></g><g class="z"><path class="x" d="M570.67 576.28l5.71 8.64 3.18-2.1-5.71-8.64z"/></g><path class="s" d="M618.72 556.79a4.54 4.54 0 0 1 6.28 1.28 4.53 4.53 0 0 1-7.56 5 4.52 4.52 0 0 1 1.28-6.26zM611.79 565.41l4.73-3.13"/><g class="aa"><path class="i" d="M610.69 536.19l-8.5 8.59"/><path class="x" d="M610.69 536.19l-8.5 8.59"/></g><g class="aa"><path class="x" d="M616 549.9l4.25-4.29-25.65-25.39a6 6 0 1 0-8.51 8.59l21.36 21.13a6 6 0 0 0 8.55 0z"/></g><path class="s" d="M580.74 533.63l28.62 28.33"/><g class="aa"><path class="i" d="M599.51 525.13l-8.5 8.59"/><path class="x" d="M599.51 525.13l-8.5 8.59"/></g><path class="s" d="M584.5 515.65l-5.19 5.24.05 7.65"/><g class="u"><path class="v" d="M632.78 480.4l21.65-7.57-3.88-11.07-21.64 7.57z"/></g><g class="ab"><path class="s" d="M727.07 466.49l-.5-8.18a7.81 7.81 0 0 0-8.28-7.32l-58.06 3.54a7.82 7.82 0 0 0-7.33 8.27l.5 8.18a7.82 7.82 0 0 0 8.28 7.33l58.06-3.54a7.81 7.81 0 0 0 7.33-8.28zm-52.19-12.86l1.45 23.79m12.93-24.66l1.45 23.78"/></g><g class="ab"><path class="i" d="M675.61 465.52l-22.46 1.37"/><path class="r" d="M675.61 465.52l-22.46 1.37"/></g><g class="ab"><path class="ac" d="M716.82 457.36l-15.62.95a4 4 0 0 0-3.72 4.2l.21 3.35a4 4 0 0 0 4.2 3.71l15.62-.95z"/><path class="r" d="M716.82 457.36l-15.62.95a4 4 0 0 0-3.72 4.2l.21 3.35a4 4 0 0 0 4.2 3.71l15.62-.95"/></g><g class="ab"><path class="q" d="M717.51 468.62a5.64 5.64 0 1 1 5.3-6 5.64 5.64 0 0 1-5.3 6"/></g><g class="ab"><path class="r" d="M717.51 468.62a5.64 5.64 0 1 1 5.3-6 5.64 5.64 0 0 1-5.3 6z"/></g><path class="q" d="M559.69 494.51l69.08-24.17z"/><path class="x" d="M559.69 494.51l69.08-24.17"/><path class="v" d="M559.69 494.51l4.3 9.88 10.08 6.87 6.2-1.53 22.7-5.54 21.94-9.49 5.71-7.87v-11.2l-3.34-4.76z"/><path class="x" d="M620.25 497.21l-37.15 13a16.92 16.92 0 0 1-21.56-10.4l-7.88-22.55 69.08-24.16 7.88 22.54a16.93 16.93 0 0 1-10.37 21.58z"/><path class="q" d="M601.29 481a7.55 7.55 0 1 0-4.63 9.64 7.57 7.57 0 0 0 4.63-9.64z"/><path class="x" d="M601.29 481a7.55 7.55 0 1 0-4.63 9.64 7.57 7.57 0 0 0 4.63-9.64z"/><path class="v" d="M573.38 509.86a3.7 3.7 0 0 0-4.7-2.27 3.69 3.69 0 0 0-2.26 4.71 3.69 3.69 0 0 0 4.7 2.27 3.7 3.7 0 0 0 2.26-4.71zm61.17-21.4a3.69 3.69 0 0 0-4.71-2.26 3.69 3.69 0 0 0-2.26 4.7 3.69 3.69 0 0 0 4.7 2.27 3.69 3.69 0 0 0 2.27-4.7z"/><path class="ac" d="M608.68 505.27a6.09 6.09 0 0 0-11.5 4 6.09 6.09 0 1 0 11.49-4zm21.16-17.83a2.23 2.23 0 1 0 0 .13 1.12 1.12 0 0 0 0-.13zm-56.45 19.75a2.29 2.29 0 1 0-1.41 2.92 2.3 2.3 0 0 0 1.41-2.92z"/><g class="u"><path class="r" d="M562.55 474.14L611.7 457l-3.87-11.07-49.15 17.19z"/></g><path d="M560.57 450.9l39.63-8.9" stroke="#25e899" stroke-width="3.18" stroke-linecap="round" fill="none"/><g class="ad"><path class="q" d="M545.65 419.84l49.8-11.21 4.59.67-.62 12.09-47.72 10.74z"/></g><g class="ad"><path class="ac" d="M595.84 437l-34.23 7.7a6.92 6.92 0 0 1-8.26-5.24l-1.65-7.31 47.72-10.74 1.65 7.32a6.92 6.92 0 0 1-5.23 8.27"/></g><g class="ad"><path class="r" d="M595.84 437l-34.23 7.7a6.92 6.92 0 0 1-8.26-5.24l-1.65-7.31 47.72-10.74 1.65 7.32a6.92 6.92 0 0 1-5.23 8.27z"/></g><path d="M563.89 415.73a21.84 21.84 0 0 1-15.3-31.28c2.84-5.61 27.32-11.37 32.21-7.84a21.86 21.86 0 0 1 .18 35.28" fill="#0fce7c"/><g class="ad"><path class="r" d="M562.55 416a22.85 22.85 0 0 1-16.23-30m36.42-9.42a22.86 22.86 0 0 1-.55 34.89"/></g><g class="ad"><path class="r" d="M537 403.08a32.46 32.46 0 1 1 63.34-14.24l-.89 32.55-47.75 10.74-14.7-29.05zm-.11-.45l-6.79-30.19m70.13 15.94l-8.7-38.71"/></g><g class="ad"><path class="r" d="M542.38 415.63l-3.27.73a4.93 4.93 0 0 1-5.89-3.73l-2.75-12.23a5 5 0 0 1 3.72-5.9l1.39-.31m65.32 8.28l3.27-.74a5 5 0 0 0 3.73-5.9l-2.75-12.23a5 5 0 0 0-5.9-3.73l-1.38.31"/></g><g class="ad"><path class="r" d="M536.11 397.7a45.33 45.33 0 0 1 62-15.35m-52.47 37.48l54-12.15"/></g><g class="ad"><path class="a" d="M577.78 384.7a5.69 5.69 0 0 1-4.3 6.8 5.69 5.69 0 0 1-2.5-11.11 5.69 5.69 0 0 1 6.8 4.31zm5.83 7.41a2.3 2.3 0 0 1-1.73 2.75 2.3 2.3 0 1 1 1.73-2.75z"/></g><g class="ad"><path class="r" d="M593.72 418c-2.73.62-3.66-3.52-6.39-2.91s-1.8 4.76-4.54 5.37-3.66-3.52-6.39-2.91-1.81 4.76-4.54 5.37-3.67-3.52-6.4-2.91-1.8 4.76-4.54 5.37-3.67-3.52-6.4-2.91"/></g><path class="n" d="M455.72 720.11a17.38 17.38 0 0 0-1-1.7h.12a11.79 11.79 0 0 0 5-15.86 11.38 11.38 0 0 0-1.11-1.71 10.43 10.43 0 0 0 1.08-.48 11.75 11.75 0 0 0-1.2-21.42l43.79-23.25a2 2 0 0 0-1.84-3.46l-50.17 26.63a14.2 14.2 0 0 0-1.39.6 1.81 1.81 0 0 0-.55.43l-30.16 16a2 2 0 0 0-.82 2.63 2 2 0 0 0 2.65.81L452 682.42a7.84 7.84 0 1 1 2.64 15.28 1.65 1.65 0 0 0-.38 0l-.18.06-.18.06a1 1 0 0 0-.17.1.83.83 0 0 0-.16.09l-.16.13-.13.11a2.06 2.06 0 0 0-.42.66.94.94 0 0 0 0 .16 1.52 1.52 0 0 0-.06.2 2.56 2.56 0 0 0 0 .39 2.7 2.7 0 0 0 .06.41v.14a2.6 2.6 0 0 0 .1.25v.06a2.35 2.35 0 0 0 .23.32.27.27 0 0 0 .07.08 1.64 1.64 0 0 0 .35.29 7.83 7.83 0 0 1-.62 13.57 7.7 7.7 0 0 1-1.94.69 7.85 7.85 0 0 1-8.55-3.94l-.1-.19a7.85 7.85 0 0 1 3.4-10.49 2 2 0 1 0-1.81-3.48 11.79 11.79 0 0 0-6 13.24 17.39 17.39 0 0 0-6.05 1.83 17.65 17.65 0 1 0 23.78 7.57zm-27.86 14.41a13.73 13.73 0 0 1 5.88-18.52 13.59 13.59 0 0 1 5.93-1.52 11.85 11.85 0 0 0 11.05 5.09 13.09 13.09 0 0 1 1.51 2.31 13.72 13.72 0 1 1-24.37 12.61zM414.62 647.44a17.62 17.62 0 0 0 6.65-8.12 17.49 17.49 0 0 0 16.45.14 17.65 17.65 0 1 0-24.41-22.32 17.5 17.5 0 0 0-15.61-.54 11.76 11.76 0 1 0-8.11 17.84 11.75 11.75 0 0 0 9.6-14.22 13.71 13.71 0 0 1 19.1 15.64 13.75 13.75 0 0 1-5.5 8.08 11.79 11.79 0 0 0-14.74-3.29 11.78 11.78 0 0 0-5 15.86 2 2 0 0 0 3.48-1.8 7.88 7.88 0 0 1 3.36-10.57 7.84 7.84 0 1 1 7.21 13.93 2 2 0 0 0 1.8 3.48 11.76 11.76 0 0 0 5.72-14.11zm-23.29-17.64a8 8 0 0 1-2.36.77 7.84 7.84 0 1 1 5.72-11.34 7.19 7.19 0 0 1 .34.75 7.82 7.82 0 0 1-3.7 9.82zm25.28-10.37a13.73 13.73 0 1 1 5.77 16 17.54 17.54 0 0 0-5.77-16zM485.62 646.69a2 2 0 0 0-2.65-.84l-11.32 5.85a2 2 0 1 0 1.81 3.49l11.31-5.86a2 2 0 0 0 .85-2.64zM494.53 625.52a2 2 0 0 0-2.64-.84l-17.42 9a2 2 0 1 0 1.81 3.48l17.41-9a2 2 0 0 0 .84-2.64zM447.75 635.37a2 2 0 0 0 2.64.84l27-14a2 2 0 1 0-1.81-3.48l-27 14a2 2 0 0 0-.83 2.64zM472.67 630.21a2 2 0 0 0-2.64-.84l-37.44 19.37a2 2 0 0 0 1.8 3.48l37.44-19.37a2 2 0 0 0 .84-2.64zM457.63 652.34a2 2 0 0 0-2.64-.84l-30.48 15.76a2 2 0 1 0 1.81 3.49L456.79 655a2 2 0 0 0 .84-2.66zM412.35 675.76a2 2 0 0 0-2.64-.84l-18.28 9.46a2 2 0 0 0 1.8 3.49l18.28-9.46a2 2 0 0 0 .84-2.65z"/></svg>