<svg xmlns="http://www.w3.org/2000/svg" width="237.228" height="292.885"><path fill="none" stroke="#15003E" stroke-width="2.7" stroke-linecap="round" stroke-miterlimit="10" d="M94.254 100.425h44.258v9.953H94.254z"/><path fill="none" stroke="#25E899" stroke-width="2.7" stroke-linecap="round" stroke-miterlimit="10" d="M99.404 95.451h34.522"/><path fill="#231F20" stroke="#15003E" stroke-width="2.7" stroke-linecap="round" stroke-linejoin="round" stroke-miterlimit="10" d="M181.939 112.462h-6.967a6.634 6.634 0 0 0-5.563 3.019h-20.961l-9.16-5.102V93.295H126s-5.584 7.717-5.584 17.084h-7.291c0-9.367-5.584-17.084-5.584-17.084H94.254v17.084l-8.012 5.102H66.269a6.632 6.632 0 0 0-5.435-2.831h-6.967a6.642 6.642 0 0 0-6.643 6.641v34.32h20.251v-27.197h18.858l.609 39.344.831 51.705-.129 38.249 8.522 3.556 10.375-2.806 5.779-39.024 5.293-30.476 5.152 30.5 4.467 39 9.887 4.333 9.009-5.083.47-39s1.148-42.768 1.148-50.954c0-9.296.837-39.344.837-39.344h19.746v27.01h20.251v-34.32a6.64 6.64 0 0 0-6.641-6.642z"/><path fill="#396D87" d="M48.575 123.127v29.132h17.551v-25.847c0-.746.604-1.35 1.35-1.35h18.858c.737 0 1.338.592 1.35 1.329l3.208 39.365 36.625-8.296 15.944 8.296 3.774-39.373a1.35 1.35 0 0 1 1.35-1.321h19.746c.746 0 1.35.604 1.35 1.35v25.66h17.551V123.46s-30.15-4.17-70.565-4.17-68.092 3.837-68.092 3.837z"/><path fill="#15003E" d="M57.349 189.917v-17.17"/><path fill="none" stroke="#15003E" stroke-width="2.7" stroke-linecap="round" stroke-miterlimit="10" d="M57.349 189.917v-17.17"/><path fill="#25E899" d="M62.711 172.747a5.362 5.362 0 1 0-10.723.001 5.362 5.362 0 0 0 10.723-.001"/><circle fill="none" stroke="#15003E" stroke-width="2.7" stroke-linecap="round" stroke-miterlimit="10" cx="57.35" cy="172.747" r="5.362"/><path fill="#EFF4EE" d="M52.554 206.564V193.28a3.366 3.366 0 0 1 3.366-3.365h2.858a3.366 3.366 0 0 1 3.366 3.365v13.284"/><path fill="none" stroke="#15003E" stroke-width="2.7" stroke-linecap="round" stroke-miterlimit="10" d="M52.554 206.564V193.28a3.366 3.366 0 0 1 3.366-3.365h2.858a3.366 3.366 0 0 1 3.366 3.365v13.284"/><path fill="#25E899" d="M62.145 206.564a4.796 4.796 0 1 0-9.592.002 4.796 4.796 0 0 0 9.592-.002"/><circle fill="none" stroke="#15003E" stroke-width="2.7" stroke-linecap="round" stroke-miterlimit="10" cx="57.349" cy="206.564" r="4.795"/><path fill="none" stroke="#15003E" stroke-width="2.7" stroke-linecap="round" stroke-linejoin="round" stroke-miterlimit="10" d="M188.581 153.422h-20.25"/><path fill="#EFF4EE" d="M183.25 176.537v-13.284a3.366 3.366 0 0 0-3.366-3.366h-2.858a3.367 3.367 0 0 0-3.366 3.366v13.284"/><path fill="none" stroke="#15003E" stroke-width="2.7" stroke-linecap="round" stroke-miterlimit="10" d="M183.25 176.537v-13.284a3.366 3.366 0 0 0-3.366-3.366h-2.858a3.367 3.367 0 0 0-3.366 3.366v13.284"/><path fill="#25E899" d="M173.66 176.537a4.795 4.795 0 1 1 9.59 0 4.795 4.795 0 0 1-9.59 0"/><circle fill="none" stroke="#15003E" stroke-width="2.7" stroke-linecap="round" stroke-miterlimit="10" cx="178.455" cy="176.537" r="4.795"/><path fill="#15003E" d="M196.105 266.079H57.349"/><path fill="none" stroke="#15003E" stroke-width="2.7" stroke-linecap="round" stroke-miterlimit="10" d="M196.105 266.079H57.349"/><path fill="#25E899" d="M92.817 66.95h43.391l3.677 1.403-2.765 9.901H95.548z"/><path fill="#EFF4EE" d="M131.243 90.494h-29.818a5.877 5.877 0 0 1-5.877-5.877v-6.362h41.572v6.362a5.877 5.877 0 0 1-5.877 5.877"/><path fill="none" stroke="#15003E" stroke-width="2.7" stroke-linecap="round" stroke-miterlimit="10" d="M131.243 90.494h-29.818a5.877 5.877 0 0 1-5.877-5.877v-6.362h41.572v6.362a5.877 5.877 0 0 1-5.877 5.877z"/><path fill="#0FCE7C" d="M108.712 66.95c-6.526-2.866-11.084-9.386-11.084-16.972 0-4.476 1.588-8.582 4.231-11.784 3.398-4.118 24.774-4.328 28.169-.495a18.455 18.455 0 0 1 4.654 12.279c0 7.585-4.557 14.105-11.082 16.971"/><path fill="none" stroke="#15003E" stroke-width="2.7" stroke-linecap="round" stroke-miterlimit="10" d="M107.541 66.949c-6.459-3.142-10.909-9.767-10.909-17.432 0-3.841 1.118-7.421 3.046-10.433M131.636 38.065a19.292 19.292 0 0 1 3.745 11.452c0 7.585-4.357 14.152-10.708 17.333"/><path fill="none" stroke="#15003E" stroke-width="2.7" stroke-linecap="round" stroke-miterlimit="10" d="M88.742 51.461c0-15.239 12.353-27.592 27.592-27.592 15.239 0 27.593 12.353 27.593 27.592l-6.807 26.793H95.548l-6.806-26.793zM88.742 51.062V24.803M143.925 51.062V17.389"/><path fill="none" stroke="#15003E" stroke-width="2.7" stroke-linecap="round" stroke-linejoin="round" stroke-miterlimit="10" d="M90.891 62.856h-2.849c-2.304 0-3.642-2.418-4.19-4.19s-1.222-2.875-1.222-7.64 1.222-7.324 1.222-7.324 3.112 4.133 4.19 4.133M141.776 62.856h2.849c2.304 0 3.642-2.418 4.19-4.19s1.222-2.875 1.222-7.64-1.222-7.324-1.222-7.324-3.112 4.133-4.19 4.133"/><path fill="none" stroke="#15003E" stroke-width="2.7" stroke-linecap="round" stroke-miterlimit="10" d="M143.32 45.684c-6.983-6.583-16.31-10.603-26.549-10.603-10.83 0-20.635 4.496-27.732 11.765M92.817 66.948h47.068"/><path fill="#FFF" d="M126.017 43.836a4.833 4.833 0 1 1-9.666 0 4.833 4.833 0 0 1 9.666 0M129.471 51.062a1.954 1.954 0 1 1-3.909 0 1.954 1.954 0 0 1 3.909 0"/><path fill="none" stroke="#15003E" stroke-width="2.7" stroke-linecap="round" stroke-miterlimit="10" d="M133.024 74.402c-2.382 0-2.382-3.6-4.763-3.6-2.38 0-2.38 3.6-4.761 3.6-2.381 0-2.381-3.6-4.762-3.6-2.383 0-2.383 3.6-4.765 3.6-2.381 0-2.381-3.6-4.762-3.6-2.384 0-2.384 3.6-4.767 3.6-2.383 0-2.383-3.6-4.766-3.6"/><path fill="none" stroke="#15003E" stroke-width="2.7" stroke-linecap="round" stroke-linejoin="round" stroke-miterlimit="10" d="M47.224 153.61v24.495a6.642 6.642 0 0 0 6.642 6.642h6.967a6.642 6.642 0 0 0 6.642-6.642V153.61H47.224zM168.33 153.422v24.683a6.643 6.643 0 0 0 6.643 6.642h6.967a6.642 6.642 0 0 0 6.642-6.642v-24.683H168.33z"/><path fill="#231F20" stroke="#15003E" stroke-width="2.254" stroke-linecap="round" stroke-linejoin="round" stroke-miterlimit="10" d="M107.108 264.938h-20.91c-1.069-1.12-1.685-2.426-1.685-3.822 0-4.153 5.436-7.521 12.14-7.521 6.706 0 12.141 3.368 12.141 7.521 0 1.396-.615 2.702-1.686 3.822zM126.665 264.938h20.91c1.069-1.12 1.685-2.426 1.685-3.822 0-4.153-5.436-7.521-12.14-7.521-6.705 0-12.141 3.368-12.141 7.521 0 1.396.616 2.702 1.686 3.822z"/><path fill="none" stroke="#15003E" stroke-linecap="round" stroke-linejoin="round" stroke-miterlimit="10" d="M116.665 110.378l.949 76.582"/><path fill="none" stroke="#396D87" stroke-linecap="round" stroke-miterlimit="10" d="M89.028 253.595l8.329-13.264 8.091 14.04M128.5 254.371l8.167-14.04 8.166 13.264"/><path fill="#231F20" stroke="#15003E" stroke-width="2.7" stroke-linejoin="round" stroke-miterlimit="10" d="M93.949 184.417h-8.942c-1.552 0-1.738-1.924-1.738-1.924v-9.747h12.916v9.561c-.001 0-.187 2.11-2.236 2.11z"/><path fill="#939598" stroke="#15003E" stroke-width="2.7" stroke-linejoin="round" stroke-miterlimit="10" d="M85.908 168.386h7.706c1.686 0 1.639 1.684 1.639 1.684v2.677H83.952v-2.514c0-.001 0-1.847 1.956-1.847z"/><path fill="#231F20" stroke="#15003E" stroke-width="2.7" stroke-linejoin="round" stroke-miterlimit="10" d="M147.205 185.706l-8.72-1.979c-1.514-.343-1.269-2.261-1.269-2.261l2.157-9.505 12.595 2.859-2.116 9.323s-.649 2.017-2.647 1.563z"/><path fill="#BCBEC0" stroke="#15003E" stroke-width="2.7" stroke-linejoin="round" stroke-miterlimit="10" d="M152.188 160.595l-6.862-1.557-4.508 13.25 9.674 2.196z"/><path fill="#15003E" d="M150.706 162.746s-2.102 1.358-2.551 3.871 1.594 4.975 1.594 4.975l.957-8.846z"/><g><path fill="#EFF4EE" d="M138.478 121.463c-.19-.312-.375-.627-.562-.94-.469-.783-.933-1.568-1.409-2.346-.193-.315-.353-.653-.591-.94-.083-.154-.083.018-.091.032-.491.809-.978 1.619-1.463 2.431-.362.607-.718 1.217-1.077 1.826-.052.1.046.099.089.125.801.48 1.605.957 2.405 1.438.081.049.141.055.225.005.807-.484 1.616-.965 2.427-1.442.096-.058.1-.102.047-.189z"/><path fill="#EFF4EE" d="M138.17 122.703c-.75.441-1.499.886-2.248 1.329-.112-.003-.191-.08-.28-.132-.698-.412-1.395-.828-2.093-1.24-.06-.035-.113-.1-.221-.063l.819 1.163c.537.763 1.073 1.526 1.615 2.285.03.042.032.181.153.094.058-.002.082-.05.109-.089.759-1.074 1.517-2.148 2.274-3.223.035-.049.094-.103.031-.166-.066-.066-.112.015-.159.042z"/></g></svg>