<?xml version="1.0" encoding="UTF-8" standalone="no"?><!DOCTYPE svg PUBLIC "-//W3C//DTD SVG 1.1//EN" "http://www.w3.org/Graphics/SVG/1.1/DTD/svg11.dtd"><svg width="100%" height="100%" viewBox="0 0 653 477" version="1.1" xmlns="http://www.w3.org/2000/svg" xmlns:xlink="http://www.w3.org/1999/xlink" xml:space="preserve" xmlns:serif="http://www.serif.com/" style="fill-rule:evenodd;clip-rule:evenodd;stroke-linejoin:round;stroke-miterlimit:1.41421;"><g><path d="M48.376,355.16l35.433,0l0,2.833c0,6.442 -0.759,12.145 -2.277,17.106c-1.481,4.592 -3.981,8.887 -7.498,12.886c-7.961,8.96 -18.087,13.439 -30.38,13.439c-11.996,0 -22.272,-4.331 -30.823,-12.995c-8.555,-8.702 -12.831,-19.143 -12.831,-31.325c0,-12.441 4.35,-22.994 13.053,-31.659c8.699,-8.7 19.289,-13.051 31.768,-13.051c6.701,0 12.958,1.365 18.771,4.091c5.555,2.729 11.016,7.16 16.386,13.294l-9.22,8.83c-7.035,-9.368 -15.608,-14.053 -25.715,-14.053c-9.072,0 -16.681,3.13 -22.827,9.388c-6.147,6.146 -9.22,13.847 -9.22,23.104c0,9.553 3.424,17.422 10.276,23.605c6.404,5.739 13.347,8.608 20.827,8.608c6.368,0 12.088,-2.142 17.162,-6.426c5.072,-4.321 7.905,-9.491 8.497,-15.511l-21.382,0l0,-12.164Z" style="fill:#15003e;fill-rule:nonzero;"/><rect x="129.656" y="314.061" width="12.942" height="85.753" style="fill:#15003e;"/><path d="M216.437,326.224l0,73.59l-12.941,0l0,-73.59l-19.716,0l0,-12.164l52.317,0l0,12.164l-19.66,0Z" style="fill:#15003e;fill-rule:nonzero;"/><path d="M337.54,318.642l0,15.302c-7.479,-6.258 -15.218,-9.387 -23.216,-9.387c-8.812,0 -16.237,3.166 -22.27,9.498c-6.074,6.294 -9.109,13.996 -9.109,23.104c0,8.998 3.035,16.588 9.109,22.772c6.07,6.183 13.513,9.274 22.325,9.274c4.556,0 8.424,-0.739 11.609,-2.222c1.777,-0.739 3.618,-1.738 5.526,-2.997c1.906,-1.259 3.915,-2.779 6.026,-4.556l0,15.635c-7.405,4.203 -15.181,6.304 -23.327,6.304c-12.256,0 -22.716,-4.276 -31.381,-12.831c-8.626,-8.625 -12.939,-19.03 -12.939,-31.211c0,-10.923 3.609,-20.661 10.83,-29.216c8.887,-10.477 20.383,-15.717 34.49,-15.717c7.702,0 15.144,2.083 22.327,6.248" style="fill:#15003e;fill-rule:nonzero;"/><path d="M399.397,343.023c0,9.471 3.183,17.257 9.553,23.362c6.33,6.104 13.643,9.156 21.937,9.156c8.998,0 16.588,-3.108 22.772,-9.323c6.183,-6.288 9.276,-13.946 9.276,-22.973c0,-9.137 -3.056,-16.795 -9.165,-22.974c-6.073,-6.215 -13.589,-9.323 -22.55,-9.323c-8.923,0 -16.459,3.108 -22.605,9.323c-6.146,6.142 -9.218,13.726 -9.218,22.752m-13.053,-0.14c0,-12.069 4.424,-22.438 13.275,-31.102c8.811,-8.664 19.401,-12.995 31.769,-12.995c12.218,0 22.696,4.369 31.434,13.107c8.777,8.738 13.163,19.235 13.163,31.491c0,12.329 -4.406,22.79 -13.218,31.38c-8.849,8.628 -19.532,12.941 -32.046,12.941c-11.072,0 -21.013,-3.832 -29.825,-11.498c-9.701,-8.477 -14.552,-19.586 -14.552,-33.324" style="fill:#0fce7c;fill-rule:nonzero;"/><rect x="514.099" y="314.061" width="12.941" height="85.753" style="fill:#15003e;"/><path d="M577.218,399.814l0,-91.584l62.539,65.424l0,-59.593l12.94,0l0,90.974l-62.538,-65.259l0,60.038l-12.941,0Z" style="fill:#15003e;fill-rule:nonzero;"/><path d="M138.733,472.739l2.071,0c2.502,0 5.12,-0.748 5.12,-3.826c0,-3.049 -3.107,-3.681 -5.523,-3.681l-1.668,0l0,7.507Zm0,-9.665l0.69,0c2.56,0 4.66,-0.517 4.66,-3.624c0,-3.048 -2.071,-3.566 -4.602,-3.566l-0.748,0l0,7.19Zm-2.704,-9.606l2.646,0c4.085,0 7.939,1.064 7.939,5.954c0,1.582 -0.863,3.422 -2.33,4.113l0,0.058c2.56,0.459 4.344,2.962 4.344,5.493c0,4.343 -3.711,6.069 -7.537,6.069l-5.062,0l0,-21.687Z" style="fill:#15003e;fill-rule:nonzero;"/><path d="M161.453,453.468l0,12.799c0,3.538 1.064,6.817 5.235,6.817c4.17,0 5.235,-3.279 5.235,-6.817l0,-12.799l2.703,0l0,13.72c0,4.774 -2.963,8.427 -7.938,8.427c-4.976,0 -7.939,-3.653 -7.939,-8.427l0,-13.72l2.704,0Z" style="fill:#15003e;fill-rule:nonzero;"/><rect x="185.755" y="453.468" width="2.704" height="21.687" style="fill:#15003e;"/><path d="M202.695,472.681l6.587,0l0,2.474l-9.291,0l0,-21.687l2.704,0l0,19.213Z" style="fill:#15003e;fill-rule:nonzero;"/><path d="M221.015,472.681l0.949,0c5.523,0 10.298,-2.071 10.298,-8.37c0,-6.328 -4.775,-8.37 -10.298,-8.37l-0.949,0l0,16.74Zm-2.704,-19.213l4.487,0c6.645,0 12.167,3.508 12.167,10.728c0,7.392 -5.408,10.959 -12.253,10.959l-4.401,0l0,-21.687Z" style="fill:#15003e;fill-rule:nonzero;"/><path d="M258.691,453.468l3.106,0l5.321,9.262l5.322,-9.262l3.106,0l-7.077,12.253l0,9.434l-2.704,0l0,-9.434l-7.075,-12.253Z" style="fill:#15003e;fill-rule:nonzero;"/><path d="M303.386,464.311c0,-4.774 -3.566,-8.772 -8.658,-8.772c-5.091,0 -8.657,3.998 -8.657,8.772c0,4.947 3.969,8.773 8.657,8.773c4.689,0 8.658,-3.826 8.658,-8.773m2.704,0c0,6.443 -5.091,11.304 -11.362,11.304c-6.27,0 -11.361,-4.861 -11.361,-11.304c0,-6.212 5.148,-11.304 11.361,-11.304c6.213,0 11.362,5.092 11.362,11.304" style="fill:#15003e;fill-rule:nonzero;"/><path d="M318.512,453.468l0,12.799c0,3.538 1.064,6.817 5.235,6.817c4.17,0 5.235,-3.279 5.235,-6.817l0,-12.799l2.703,0l0,13.72c0,4.774 -2.963,8.427 -7.938,8.427c-4.976,0 -7.939,-3.653 -7.939,-8.427l0,-13.72l2.704,0Z" style="fill:#15003e;fill-rule:nonzero;"/><path d="M345.604,463.736l0.863,0c2.762,0 5.753,-0.518 5.753,-3.969c0,-3.394 -3.222,-3.883 -5.897,-3.883l-0.719,0l0,7.852Zm10.786,11.419l-3.279,0l-6.385,-9.175l-1.122,0l0,9.175l-2.704,0l0,-21.687l3.28,0c1.926,0 3.998,0.029 5.723,1.006c1.812,1.065 2.848,3.107 2.848,5.178c0,3.106 -2.071,5.695 -5.206,6.069l6.845,9.434Z" style="fill:#15003e;fill-rule:nonzero;"/><path d="M384.257,472.739l2.071,0c2.502,0 5.12,-0.748 5.12,-3.826c0,-3.049 -3.107,-3.681 -5.523,-3.681l-1.668,0l0,7.507Zm0,-9.665l0.69,0c2.56,0 4.66,-0.517 4.66,-3.624c0,-3.048 -2.071,-3.566 -4.602,-3.566l-0.748,0l0,7.19Zm-2.704,-9.606l2.646,0c4.085,0 7.939,1.064 7.939,5.954c0,1.582 -0.863,3.422 -2.33,4.113l0,0.058c2.56,0.459 4.344,2.962 4.344,5.493c0,4.343 -3.711,6.069 -7.536,6.069l-5.063,0l0,-21.687Z" style="fill:#15003e;fill-rule:nonzero;"/><path d="M424.143,458.311c0,-4.774 -3.566,-8.772 -8.658,-8.772c-5.091,0 -8.657,3.998 -8.657,8.772c0,4.947 3.969,8.773 8.657,8.773c4.689,0 8.658,-3.826 8.658,-8.773m2.704,0c0,6.443 -5.091,11.304 -11.362,11.304c-6.27,0 -11.361,-4.861 -11.361,-11.304c0,-6.212 5.148,-11.304 11.361,-11.304c6.213,0 11.362,5.092 11.362,11.304" style="fill:#0fce7c;fill-rule:nonzero;"/><path d="M438.269,453.468l0,12.799c0,3.538 1.064,6.817 5.235,6.817c4.17,0 5.235,-3.279 5.235,-6.817l0,-12.799l2.703,0l0,13.72c0,4.774 -2.963,8.427 -7.938,8.427c-4.976,0 -7.939,-3.653 -7.939,-8.427l0,-13.72l2.704,0Z" style="fill:#15003e;fill-rule:nonzero;"/><path d="M462.399,452.432l16.279,17.056l0,-16.02l2.704,0l0,22.578l-16.279,-17.056l0,16.165l-2.704,0l0,-22.723Z" style="fill:#15003e;fill-rule:nonzero;"/><path d="M498.55,475.155l-2.704,0l0,-19.213l-5.148,0l0,-2.474l13,0l0,2.474l-5.148,0l0,19.213Z" style="fill:#15003e;fill-rule:nonzero;"/><path d="M511.061,453.468l3.106,0l5.321,9.262l5.322,-9.262l3.106,0l-7.076,12.253l0,9.434l-2.704,0l0,-9.434l-7.075,-12.253Z" style="fill:#15003e;fill-rule:nonzero;"/><path d="M359.389,107.903l13.955,27.492l-10.589,44.961l-25.216,-20.601l4.419,-32.978l17.431,-18.874Z" style="fill:#fff;fill-rule:nonzero;"/><path d="M322.138,98.69c-2.902,0 -5.256,-2.354 -5.256,-5.256l0,-41.426c0,-2.903 2.354,-5.256 5.256,-5.256c2.902,0 5.256,2.353 5.256,5.256l0,41.426c0,2.902 -2.354,5.256 -5.256,5.256" style="fill:#15003e;fill-rule:nonzero;"/><path d="M330.57,98.69l-16.246,0c-2.902,0 -5.256,-2.354 -5.256,-5.256c0,-2.902 2.354,-5.256 5.256,-5.256l16.246,0c2.902,0 5.256,2.354 5.256,5.256c0,2.902 -2.354,5.256 -5.256,5.256" style="fill:#15003e;fill-rule:nonzero;"/><path d="M359.389,107.903l17.271,-16.278c-13.216,-13.216 -31.474,-21.39 -51.641,-21.39c-40.334,0 -73.031,32.697 -73.031,73.031c0,40.334 32.697,73.031 73.031,73.031c15.034,0 28.256,5.488 39.87,-2.3l14.455,2l-0.414,-23.465l-41.391,-32.777l8.899,-41.911l12.951,-9.941" style="fill:#fff;fill-rule:nonzero;"/><path d="M325.019,223.464c-44.222,0 -80.199,-35.977 -80.199,-80.198c0,-44.221 35.977,-80.199 80.199,-80.199c21.422,0 41.562,8.342 56.709,23.491l5.22,5.219l-22.642,21.342l-9.833,-10.432l11.602,-10.934c-11.623,-9.302 -25.952,-14.351 -41.056,-14.351c-36.318,0 -65.864,29.546 -65.864,65.864c0,36.317 29.546,65.863 65.864,65.863" style="fill:#15003e;fill-rule:nonzero;"/><path d="M365.275,182.266l-10.296,-9.974c7.581,-7.824 11.755,-18.132 11.755,-29.027c0,-11.372 -4.493,-22 -12.652,-29.925l-5.37,-5.216l5.759,-5.435l4.906,5.199l4.692,-4.83c10.963,10.648 17,24.927 17,40.207c0,14.639 -5.61,28.489 -15.794,39.001" style="fill:#0fce7c;fill-rule:nonzero;"/><path d="M308.53,143.266c0,-9.107 7.382,-16.489 16.489,-16.489c9.107,0 16.49,7.382 16.49,16.489c0,9.106 -7.383,16.489 -16.49,16.489c-9.107,0 -16.489,-7.383 -16.489,-16.489" style="fill:#eff4ee;fill-rule:nonzero;"/><path d="M325.019,133.944c-5.141,0 -9.322,4.182 -9.322,9.322c0,5.139 4.181,9.321 9.322,9.321c5.14,0 9.322,-4.182 9.322,-9.321c0,-5.14 -4.182,-9.322 -9.322,-9.322m0,32.978c-13.044,0 -23.657,-10.612 -23.657,-23.656c0,-13.044 10.613,-23.657 23.657,-23.657c13.044,0 23.657,10.613 23.657,23.657c0,13.044 -10.613,23.656 -23.657,23.656" style="fill:#15003e;fill-rule:nonzero;"/><path d="M376.66,91.624l-41.675,38.506" style="fill:#15003e;fill-rule:nonzero;"/><path d="M371.797,86.36l9.728,10.53l-41.676,38.505l-9.728,-10.529l41.676,-38.506Z" style="fill:#15003e;"/><path d="M332.799,157.806l29.957,22.55l16.174,12.176l0,30.932l-32.492,-1.565" style="fill:#fff;fill-rule:nonzero;"/><path d="M386.098,223.464l-62.381,0l0,-14.334l48.047,0l0,-13.022l-43.275,-32.575l8.621,-11.453l48.988,36.875l0,34.509Z" style="fill:#15003e;fill-rule:nonzero;"/><path d="M391.183,55.952l5.745,-5.745l5.745,5.745l-5.745,5.745l-5.745,-5.745Z" style="fill:#25e899;"/><path d="M366.487,28.258l2.747,-2.747l2.747,2.747l-2.747,2.747l-2.747,-2.747Z" style="fill:#25e899;"/><path d="M400.511,4.141c0,-2.287 -1.854,-4.141 -4.141,-4.141c-2.287,0 -4.141,1.854 -4.141,4.141c0,2.287 1.854,4.141 4.141,4.141c2.287,0 4.141,-1.854 4.141,-4.141" style="fill:#25e899;fill-rule:nonzero;"/><path d="M297.259,113.159c-2.902,0 -5.256,-2.354 -5.256,-5.256l0,-55.894c0,-2.903 2.354,-5.257 5.256,-5.257c2.902,0 5.256,2.354 5.256,5.257l0,55.894c0,2.902 -2.354,5.256 -5.256,5.256" style="fill:#15003e;fill-rule:nonzero;"/></g></svg>