<?xml version="1.0" encoding="utf-8"?>
<!-- Generator: Adobe Illustrator 22.1.0, SVG Export Plug-In . SVG Version: 6.00 Build 0)  -->
<svg version="1.1" id="Layer_1" xmlns:serif="http://www.serif.com/"
	 xmlns="http://www.w3.org/2000/svg" xmlns:xlink="http://www.w3.org/1999/xlink" x="0px" y="0px" viewBox="0 0 1280 1024"
	 style="enable-background:new 0 0 1280 1024;" xml:space="preserve">
<style type="text/css">
	.st0{fill:#FFFFFF;}
	.st1{fill:#48B978;}
	.st2{fill:#190B3C;}
	.st3{fill:#F0F4EE;}
	.st4{fill:#62C08C;}
</style>
<path class="st0" d="M94.8,740.7h69.5v5.6c0,12.6-1.5,23.8-4.5,33.5c-2.9,9-7.8,17.4-14.7,25.3c-15.6,17.6-35.5,26.3-59.6,26.3
	c-23.5,0-43.7-8.5-60.4-25.5C8.4,788.8,0,768.4,0,744.5c0-24.4,8.5-45.1,25.6-62.1c17.1-17.1,37.8-25.6,62.3-25.6
	c13.1,0,25.4,2.7,36.8,8c10.9,5.3,21.6,14,32.1,26.1l-18.1,17.3c-13.8-18.4-30.6-27.5-50.4-27.5c-17.8,0-32.7,6.1-44.7,18.4
	c-12,12-18.1,27.1-18.1,45.3c0,18.7,6.7,34.2,20.1,46.3c12.6,11.2,26.2,16.9,40.8,16.9c12.5,0,23.7-4.2,33.6-12.6
	c9.9-8.5,15.5-18.6,16.7-30.4H94.8C94.8,764.5,94.8,740.7,94.8,740.7z"/>
<rect x="254.1" y="660.1" class="st0" width="25.4" height="168.1"/>
<path class="st0" d="M424.3,684v144.2h-25.4V684h-38.6v-23.8h102.6V684H424.3z"/>
<path class="st0" d="M661.6,669.1v30c-14.7-12.3-29.8-18.4-45.5-18.4c-17.3,0-31.8,6.2-43.7,18.6c-11.9,12.3-17.9,27.4-17.9,45.3
	c0,17.6,5.9,32.5,17.9,44.6c11.9,12.1,26.5,18.2,43.8,18.2c8.9,0,16.5-1.4,22.8-4.4c3.5-1.4,7.1-3.4,10.8-5.9
	c3.7-2.5,7.7-5.4,11.8-8.9v30.6c-14.5,8.2-29.8,12.4-45.7,12.4c-24,0-44.5-8.4-61.5-25.2c-16.9-16.9-25.4-37.3-25.4-61.2
	c0-21.4,7.1-40.5,21.2-57.3c17.4-20.5,40-30.8,67.6-30.8C633,656.8,647.6,660.9,661.6,669.1"/>
<path class="st1" d="M782.9,716.9c0,18.6,6.2,33.8,18.7,45.8c12.4,12,26.7,17.9,43,17.9c17.6,0,32.5-6.1,44.6-18.3
	c12.1-12.3,18.2-27.3,18.2-45c0-17.9-6-32.9-18-45c-11.9-12.2-26.6-18.3-44.2-18.3c-17.5,0-32.3,6.1-44.3,18.3
	C788.9,684.3,782.9,699.2,782.9,716.9 M757.3,716.6c0-23.7,8.7-44,26-61c17.3-17,38-25.5,62.3-25.5c23.9,0,44.5,8.6,61.6,25.7
	c17.2,17.1,25.8,37.7,25.8,61.7c0,24.2-8.6,44.7-25.9,61.5c-17.3,16.9-38.3,25.4-62.8,25.4c-21.7,0-41.2-7.5-58.5-22.5
	C766.8,765.3,757.3,743.5,757.3,716.6"/>
<rect x="1007.7" y="660.1" class="st0" width="25.4" height="168.1"/>
<path class="st0" d="M1131.5,828.2V648.7L1254,776.9V660.1h25.4v178.3l-122.6-127.9v117.7H1131.5z"/>
<path class="st0" d="M704.5,256l27.4,53.9L711.1,398l-49.4-40.4l8.7-64.6L704.5,256L704.5,256z"/>
<path class="st0" d="M631.4,237.9c-5.7,0-10.3-4.6-10.3-10.3v-81.2c0-5.7,4.6-10.3,10.3-10.3c5.7,0,10.3,4.6,10.3,10.3v81.2
	C641.8,233.3,637.1,237.9,631.4,237.9"/>
<path class="st2" d="M648,237.9h-31.8c-5.7,0-10.3-4.6-10.3-10.3s4.6-10.3,10.3-10.3H648c5.7,0,10.3,4.6,10.3,10.3
	C658.3,233.3,653.7,237.9,648,237.9"/>
<path class="st0" d="M704.5,256l33.9-31.9c-25.9-25.9-61.7-41.9-101.2-41.9c-79.1,0-143.2,64.1-143.2,143.2S558,468.5,637.1,468.5
	c29.5,0,55.4,10.8,78.2-4.5l28.3,3.9l-0.8-46l-81.1-64.2l17.4-82.2L704.5,256"/>
<path class="st0" d="M637.1,482.5c-86.7,0-157.2-70.5-157.2-157.2s70.5-157.2,157.2-157.2c42,0,81.5,16.4,111.2,46l10.2,10.2
	l-44.4,41.8l-19.3-20.4l22.7-21.4c-22.8-18.2-50.9-28.1-80.5-28.1c-71.2,0-129.1,57.9-129.1,129.1c0,71.2,57.9,129.1,129.1,129.1"/>
<path class="st1" d="M716,401.8l-20.2-19.6c14.9-15.3,23-35.5,23-56.9c0-22.3-8.8-43.1-24.8-58.7l-10.5-10.2l11.3-10.7l9.6,10.2
	l9.2-9.5c21.5,20.9,33.3,48.9,33.3,78.8C747,354,736,381.2,716,401.8"/>
<path class="st3" d="M604.8,325.3c0-17.9,14.5-32.3,32.3-32.3c17.9,0,32.3,14.5,32.3,32.3c0,17.8-14.5,32.3-32.3,32.3
	S604.8,343.2,604.8,325.3"/>
<path class="st0" d="M637.1,307.1c-10.1,0-18.3,8.2-18.3,18.3c0,10.1,8.2,18.3,18.3,18.3c10.1,0,18.3-8.2,18.3-18.3
	C655.4,315.2,647.2,307.1,637.1,307.1 M637.1,371.7c-25.6,0-46.4-20.8-46.4-46.4c0-25.6,20.8-46.4,46.4-46.4s46.4,20.8,46.4,46.4
	S662.7,371.7,637.1,371.7"/>
<path class="st2" d="M738.3,224.1l-81.7,75.5"/>
<path class="st0" d="M728.8,213.8l19.1,20.6l-81.7,75.5l-19.1-20.6L728.8,213.8z"/>
<path class="st0" d="M652.3,353.8l58.7,44.2l31.7,23.9v60.6l-63.7-3.1"/>
<path class="st0" d="M756.8,482.5H634.5v-28.1h94.2v-25.5l-84.8-63.9l16.9-22.5l96,72.3V482.5z"/>
<path class="st4" d="M766.8,154.2l11.3-11.3l11.3,11.3l-11.3,11.3L766.8,154.2z"/>
<path class="st4" d="M718.4,99.9l5.4-5.4l5.4,5.4l-5.4,5.4L718.4,99.9z"/>
<path class="st4" d="M785.1,52.6c0-4.5-3.6-8.1-8.1-8.1s-8.1,3.6-8.1,8.1s3.6,8.1,8.1,8.1S785.1,57.1,785.1,52.6"/>
<path class="st0" d="M582.7,266.3c-5.7,0-10.3-4.6-10.3-10.3V146.4c0-5.7,4.6-10.3,10.3-10.3s10.3,4.6,10.3,10.3V256
	C593,261.7,588.4,266.3,582.7,266.3"/>
</svg>
