<?xml version="1.0" encoding="utf-8"?>
<!-- Generator: Adobe Illustrator 16.0.0, SVG Export Plug-In . SVG Version: 6.00 Build 0)  -->
<!DOCTYPE svg PUBLIC "-//W3C//DTD SVG 1.1//EN" "http://www.w3.org/Graphics/SVG/1.1/DTD/svg11.dtd">
<svg version="1.1" id="Layer_1" xmlns="http://www.w3.org/2000/svg" xmlns:xlink="http://www.w3.org/1999/xlink" x="0px" y="0px"
	 width="392px" height="456.669px" viewBox="0 0 392 456.669" enable-background="new 0 0 392 456.669" xml:space="preserve">
<g>
	<g>
		<path fill="#FFFFFF" d="M180.14,400.59c0-11.509,0-23.018,0-34.526c0-1.612-2.5-1.612-2.5,0c0,11.509,0,23.018,0,34.526
			C177.64,402.202,180.14,402.202,180.14,400.59L180.14,400.59z"/>
	</g>
</g>
<g>
	<g>
		<path fill="#FFFFFF" d="M156.723,312.962c2.755,9.178,6.345,18.025,10.137,26.815c3.857,8.938,8.992,18.175,10.62,27.852
			c0.267,1.588,2.676,0.912,2.41-0.664c-1.474-8.765-5.971-17.171-9.491-25.271c-4.192-9.644-8.238-19.313-11.266-29.396
			C158.671,310.758,156.258,311.414,156.723,312.962L156.723,312.962z"/>
	</g>
</g>
<g>
	<g>
		<path fill="#FFFFFF" d="M61.117,333.862c0.123,0.083,0.235,0.174,0.356,0.257c0.285,0.072,0.565,0.186,0.838,0.332v-15.143
			c0-1.612-2.5-1.612-2.5,0v13.99C60.246,333.392,60.685,333.568,61.117,333.862z"/>
	</g>
</g>
<g>
	<g>
		<path fill="#FFFFFF" d="M38.894,266.207c2.755,9.178,6.345,18.025,10.138,26.815c3.856,8.938,8.992,18.175,10.619,27.852
			c0.267,1.588,2.676,0.912,2.41-0.664c-1.474-8.765-5.971-17.172-9.492-25.271c-4.191-9.644-8.238-19.313-11.265-29.396
			C40.842,264.003,38.429,264.659,38.894,266.207L38.894,266.207z"/>
	</g>
</g>
<g>
	<g>
		<path fill="#FFFFFF" d="M38.268,261.421c-0.056,1.462-0.105,2.925-0.137,4.389c0.302,0.502,0.609,1.001,0.889,1.519
			c0.765,1.42,2.923,0.157,2.158-1.262C40.306,264.447,39.323,262.909,38.268,261.421z"/>
	</g>
	<g>
		<path fill="#FFFFFF" d="M51.454,244.487c-0.647-1.473-2.801-0.199-2.158,1.262c1.763,4.01-5.343,1.686-6.415,0.973
			c-1.544-1.027-2.963-2.272-4.308-3.606c0.054,1.14,0.085,2.28,0.099,3.422c0.8,0.696,1.622,1.368,2.473,2.007
			c2.044,1.533,4.684,2.858,7.275,2.085C51.108,249.825,52.544,246.967,51.454,244.487z"/>
	</g>
</g>
<g>
	<g>
		<path fill="#FFFFFF" d="M99.681,320.816c0,11.372,0,22.743,0,34.115c0,1.612,2.5,1.612,2.5,0c0-11.372,0-22.743,0-34.115
			C102.181,319.204,99.681,319.204,99.681,320.816L99.681,320.816z"/>
	</g>
</g>
<g>
	<path fill="#FFFFFF" d="M205.303,423.25l-3.486,2.055l1.232,2.09l3.385-1.995l0.729,1.234l-3.387,1.995l1.713,2.907l3.486-2.055
		l0.727,1.233l-4.799,2.829l-5.125-8.699l4.799-2.828L205.303,423.25z"/>
	<path fill="#FFFFFF" d="M209.955,424.767l2.535,4.305l-1.268,0.747l-2.535-4.305l-0.541,0.319l-0.697-1.184l0.541-0.318
		l-1.186-2.011l1.268-0.747l1.186,2.011l0.986-0.581l0.697,1.184L209.955,424.767z"/>
	<path fill="#FFFFFF" d="M208.732,418.468l1.268-0.746l2.643,4.484c0.211-0.672,0.588-1.168,1.133-1.489
		c0.621-0.365,1.234-0.456,1.844-0.272c0.521,0.162,1.008,0.627,1.459,1.394l1.98,3.363l-1.266,0.747l-1.912-3.245
		c-0.26-0.439-0.525-0.711-0.797-0.817c-0.273-0.105-0.582-0.056-0.928,0.148c-0.441,0.261-0.672,0.581-0.691,0.961
		c-0.014,0.383,0.18,0.912,0.578,1.588l1.563,2.653l-1.268,0.747L208.732,418.468z"/>
	<path fill="#FFFFFF" d="M220.604,424.292l-3.68-10.431l6.969,5l-0.891-8.582l7.156,8.382l-1.348,0.794l-3.932-4.757l0.754,7.168
		l-5.834-4.182l2.162,5.807L220.604,424.292z"/>
	<path fill="#FFFFFF" d="M232.568,409.848l1.273-0.75l3.234,5.487l-1.273,0.75l-0.338-0.574c-0.234,0.795-0.652,1.37-1.254,1.725
		c-0.76,0.447-1.547,0.543-2.365,0.286c-0.822-0.27-1.48-0.823-1.973-1.661c-0.486-0.822-0.645-1.652-0.475-2.49
		c0.168-0.839,0.623-1.476,1.363-1.912c0.639-0.376,1.365-0.45,2.184-0.224L232.568,409.848z M231.168,414.347
		c0.311,0.527,0.703,0.872,1.18,1.037c0.484,0.163,0.949,0.115,1.389-0.144c0.469-0.276,0.754-0.661,0.852-1.155
		c0.094-0.504-0.014-1.014-0.316-1.527c-0.303-0.516-0.697-0.854-1.184-1.02c-0.482-0.155-0.953-0.098-1.416,0.175
		c-0.436,0.257-0.703,0.637-0.801,1.14C230.779,413.356,230.877,413.854,231.168,414.347z"/>
	<path fill="#FFFFFF" d="M243.906,410.386c0.152,0.26,0.279,0.492,0.377,0.7c0.1,0.206,0.18,0.394,0.238,0.562
		c0.152,0.467,0.186,0.925,0.098,1.377c-0.16,0.863-0.674,1.551-1.541,2.062c-0.732,0.432-1.451,0.589-2.156,0.474
		c-0.727-0.117-1.34-0.514-1.838-1.187l1.273-0.75c0.207,0.241,0.412,0.403,0.609,0.481c0.465,0.188,0.949,0.134,1.453-0.163
		c0.928-0.547,1.055-1.39,0.385-2.526l-0.451-0.768c-0.201,0.812-0.629,1.41-1.287,1.798c-0.746,0.44-1.518,0.531-2.314,0.271
		c-0.803-0.265-1.447-0.809-1.932-1.632c-0.473-0.8-0.648-1.611-0.531-2.434c0.131-0.877,0.59-1.549,1.379-2.014
		c0.691-0.406,1.418-0.487,2.18-0.242l-0.367-0.621l1.27-0.746L243.906,410.386z M241.156,408.501
		c-0.314-0.534-0.709-0.877-1.182-1.027c-0.482-0.156-0.949-0.102-1.398,0.164c-0.482,0.283-0.756,0.685-0.824,1.205
		c-0.063,0.468,0.055,0.955,0.354,1.462c0.295,0.499,0.662,0.835,1.102,1.007c0.48,0.187,0.961,0.138,1.447-0.147
		c0.484-0.286,0.762-0.688,0.836-1.207C241.563,409.485,241.451,408.999,241.156,408.501z"/>
	<path fill="#FFFFFF" d="M240.813,401.916c-0.129-0.221-0.162-0.461-0.096-0.717c0.066-0.257,0.213-0.45,0.438-0.583
		c0.23-0.136,0.473-0.17,0.729-0.104c0.254,0.063,0.449,0.209,0.584,0.438c0.135,0.229,0.17,0.474,0.104,0.729
		c-0.063,0.254-0.209,0.449-0.438,0.584c-0.23,0.136-0.473,0.169-0.729,0.104C241.146,402.3,240.951,402.149,240.813,401.916z
		 M243.617,403.338l3.232,5.487l-1.268,0.747l-3.232-5.487L243.617,403.338z"/>
	<path fill="#FFFFFF" d="M249.633,400.112l0.992,1.686c-0.498-0.184-0.9-0.272-1.207-0.27c-0.303-0.002-0.609,0.087-0.912,0.266
		c-0.479,0.281-0.775,0.681-0.895,1.201c-0.117,0.521-0.029,1.032,0.268,1.535c0.303,0.515,0.705,0.848,1.203,0.999
		c0.502,0.149,0.992,0.083,1.469-0.198c0.305-0.179,0.535-0.402,0.689-0.672c0.152-0.26,0.27-0.664,0.357-1.212l0.986,1.674
		c-0.357,0.569-0.795,1.006-1.309,1.309c-0.85,0.501-1.721,0.646-2.615,0.433c-0.895-0.215-1.584-0.732-2.066-1.551
		c-0.482-0.819-0.602-1.682-0.354-2.584c0.246-0.905,0.789-1.605,1.631-2.102C248.412,400.308,248.998,400.137,249.633,400.112z"/>
	<path fill="#FFFFFF" d="M249.184,396.983c-0.129-0.221-0.162-0.461-0.096-0.718c0.066-0.256,0.213-0.45,0.438-0.583
		c0.23-0.135,0.473-0.17,0.729-0.104c0.256,0.063,0.449,0.209,0.584,0.438s0.17,0.473,0.104,0.729
		c-0.063,0.254-0.209,0.449-0.438,0.584s-0.473,0.169-0.729,0.103C249.52,397.367,249.322,397.216,249.184,396.983z
		 M251.988,398.405l3.232,5.487l-1.268,0.747l-3.232-5.487L251.988,398.405z"/>
	<path fill="#FFFFFF" d="M257.639,395.075l1.273-0.75l3.232,5.488l-1.271,0.75l-0.34-0.574c-0.234,0.795-0.652,1.369-1.252,1.724
		c-0.76,0.447-1.549,0.543-2.367,0.286c-0.822-0.27-1.479-0.822-1.973-1.66c-0.484-0.822-0.643-1.653-0.475-2.491
		c0.17-0.839,0.623-1.476,1.363-1.911c0.639-0.377,1.367-0.451,2.184-0.225L257.639,395.075z M256.238,399.575
		c0.309,0.526,0.701,0.871,1.178,1.036c0.486,0.163,0.949,0.115,1.389-0.144c0.469-0.276,0.754-0.661,0.854-1.154
		c0.092-0.505-0.014-1.015-0.316-1.528c-0.305-0.516-0.699-0.854-1.186-1.019c-0.48-0.156-0.953-0.098-1.414,0.174
		c-0.436,0.258-0.703,0.637-0.801,1.14C255.848,398.585,255.947,399.083,256.238,399.575z"/>
	<path fill="#FFFFFF" d="M260.512,393.383l1.273-0.75l0.299,0.507c0.184-0.7,0.555-1.215,1.109-1.543
		c0.639-0.376,1.256-0.468,1.848-0.275c0.51,0.16,0.992,0.627,1.449,1.4l1.98,3.363l-1.271,0.75l-1.807-3.065
		c-0.318-0.54-0.613-0.868-0.885-0.987c-0.271-0.125-0.6-0.072-0.986,0.156c-0.422,0.248-0.637,0.563-0.65,0.943
		c-0.012,0.377,0.186,0.907,0.588,1.591l1.559,2.647l-1.271,0.75L260.512,393.383z"/>
	<path fill="#FFFFFF" d="M270.578,388.712l-0.719,1.175c-0.365-0.241-0.67-0.289-0.914-0.146c-0.115,0.068-0.193,0.166-0.23,0.291
		c-0.035,0.126-0.02,0.249,0.051,0.369c0.125,0.21,0.492,0.275,1.102,0.193c0.842-0.106,1.451-0.105,1.83,0
		c0.375,0.107,0.686,0.367,0.93,0.78c0.311,0.529,0.377,1.088,0.197,1.675c-0.182,0.563-0.539,1-1.076,1.316
		c-0.92,0.543-1.836,0.479-2.748-0.193l0.785-1.14c0.307,0.175,0.518,0.274,0.641,0.3c0.236,0.052,0.463,0.015,0.678-0.111
		c0.428-0.253,0.527-0.574,0.297-0.965c-0.133-0.226-0.422-0.339-0.869-0.338c-0.164,0.01-0.328,0.023-0.492,0.039
		c-0.162,0.016-0.328,0.029-0.498,0.043c-0.475,0.036-0.838,0.01-1.096-0.082c-0.326-0.117-0.596-0.355-0.809-0.717
		c-0.281-0.477-0.35-0.966-0.207-1.471c0.15-0.509,0.465-0.904,0.941-1.186C269.074,388.133,269.809,388.188,270.578,388.712z"/>
	<path fill="#FFFFFF" d="M280.133,378.124l0.918,1.556c-1.133-0.188-2.105-0.043-2.916,0.435c-0.895,0.527-1.459,1.291-1.691,2.295
		c-0.24,1.002-0.088,1.964,0.457,2.888c0.537,0.913,1.299,1.501,2.285,1.767c0.984,0.264,1.924,0.133,2.818-0.395
		c0.463-0.271,0.811-0.578,1.045-0.92c0.135-0.181,0.264-0.393,0.381-0.635c0.119-0.24,0.232-0.514,0.34-0.821l0.932,1.584
		c-0.5,0.866-1.164,1.543-1.99,2.029c-1.244,0.732-2.561,0.925-3.949,0.575c-1.393-0.359-2.451-1.157-3.18-2.393
		c-0.652-1.108-0.867-2.312-0.646-3.61c0.273-1.595,1.127-2.813,2.559-3.656C278.275,378.362,279.154,378.129,280.133,378.124z"/>
	<path fill="#FFFFFF" d="M284.5,382.892c-0.469-0.793-0.582-1.635-0.342-2.523c0.238-0.891,0.766-1.576,1.582-2.057
		c0.818-0.482,1.678-0.611,2.578-0.388c0.893,0.228,1.58,0.749,2.061,1.563c0.484,0.822,0.607,1.68,0.367,2.568
		c-0.246,0.889-0.783,1.578-1.613,2.066c-0.822,0.484-1.678,0.609-2.564,0.373C285.686,384.268,284.994,383.733,284.5,382.892z
		 M285.809,382.15c0.322,0.549,0.725,0.896,1.205,1.043c0.492,0.146,0.982,0.073,1.475-0.216c0.496-0.293,0.799-0.686,0.906-1.181
		c0.109-0.493,0.006-1.007-0.309-1.54c-0.313-0.533-0.713-0.873-1.197-1.017c-0.492-0.146-0.982-0.073-1.475,0.216
		c-0.484,0.286-0.783,0.679-0.893,1.179S285.508,381.64,285.809,382.15z"/>
	<path fill="#FFFFFF" d="M291.367,375.201l1.855,3.149c0.535,0.909,1.162,1.152,1.879,0.729c0.719-0.423,0.809-1.088,0.273-1.997
		l-1.855-3.149l1.268-0.747l1.873,3.178c0.258,0.439,0.428,0.85,0.506,1.233c0.063,0.349,0.033,0.713-0.092,1.095
		c-0.209,0.625-0.645,1.13-1.305,1.52c-0.658,0.387-1.309,0.522-1.957,0.402c-0.398-0.074-0.734-0.222-1.012-0.443
		c-0.256-0.193-0.533-0.542-0.828-1.045l-1.873-3.178L291.367,375.201z"/>
	<path fill="#FFFFFF" d="M296.387,372.243l1.273-0.75l0.299,0.507c0.184-0.7,0.555-1.215,1.109-1.542
		c0.639-0.377,1.256-0.469,1.85-0.276c0.508,0.16,0.992,0.627,1.447,1.4l1.982,3.363l-1.273,0.75l-1.807-3.065
		c-0.318-0.54-0.613-0.868-0.885-0.987c-0.271-0.124-0.6-0.071-0.986,0.156c-0.422,0.248-0.637,0.563-0.65,0.944
		c-0.012,0.376,0.186,0.906,0.588,1.59l1.559,2.647l-1.271,0.75L296.387,372.243z"/>
	<path fill="#FFFFFF" d="M307.123,366.235l0.992,1.686c-0.496-0.183-0.898-0.272-1.205-0.27c-0.305-0.002-0.609,0.087-0.914,0.267
		c-0.477,0.28-0.775,0.681-0.893,1.201c-0.119,0.52-0.029,1.032,0.266,1.534c0.305,0.516,0.705,0.849,1.203,0.999
		c0.502,0.149,0.992,0.083,1.471-0.197c0.303-0.18,0.533-0.403,0.689-0.672c0.15-0.261,0.268-0.664,0.355-1.213l0.986,1.674
		c-0.357,0.57-0.795,1.006-1.309,1.31c-0.85,0.5-1.719,0.645-2.613,0.433c-0.896-0.216-1.586-0.733-2.068-1.552
		c-0.482-0.819-0.602-1.681-0.354-2.584c0.246-0.904,0.789-1.605,1.631-2.101C305.902,366.431,306.49,366.26,307.123,366.235z"/>
	<path fill="#FFFFFF" d="M306.676,363.106c-0.131-0.221-0.162-0.461-0.096-0.717c0.066-0.257,0.213-0.451,0.438-0.584
		c0.229-0.135,0.471-0.17,0.729-0.104c0.254,0.063,0.449,0.209,0.584,0.438c0.135,0.229,0.17,0.473,0.102,0.729
		c-0.063,0.254-0.207,0.449-0.436,0.584c-0.23,0.135-0.473,0.169-0.73,0.104C307.01,363.49,306.813,363.34,306.676,363.106z
		 M309.479,364.528l3.234,5.487l-1.268,0.747l-3.234-5.487L309.479,364.528z"/>
	<path fill="#FFFFFF" d="M309.98,358.808l5.605,9.516l-1.268,0.746l-5.605-9.515L309.98,358.808z"/>
	<path fill="#FFFFFF" d="M318.854,362.648c-0.467-0.793-0.582-1.634-0.342-2.524c0.24-0.89,0.768-1.575,1.582-2.055
		c0.818-0.482,1.678-0.612,2.578-0.389c0.895,0.228,1.58,0.749,2.061,1.563c0.484,0.822,0.607,1.68,0.367,2.568
		c-0.246,0.889-0.783,1.577-1.613,2.066c-0.822,0.485-1.678,0.609-2.564,0.374C320.039,364.024,319.35,363.49,318.854,362.648z
		 M320.162,361.907c0.322,0.549,0.725,0.896,1.207,1.043c0.49,0.146,0.98,0.074,1.473-0.217c0.496-0.291,0.799-0.684,0.906-1.18
		c0.109-0.493,0.006-1.007-0.307-1.539c-0.314-0.534-0.715-0.874-1.199-1.018c-0.492-0.146-0.982-0.073-1.475,0.217
		c-0.484,0.285-0.781,0.678-0.893,1.178C319.766,360.892,319.861,361.396,320.162,361.907z"/>
	<path fill="#FFFFFF" d="M326.463,356.114l2.537,4.305l-1.273,0.75l-2.537-4.305l-0.451,0.266l-0.697-1.183l0.451-0.266
		l-1.248-2.118c-0.406-0.691-0.574-1.249-0.502-1.677c0.096-0.593,0.459-1.075,1.09-1.447c0.227-0.132,0.547-0.233,0.967-0.305
		l0.764,1.296l-0.168,0.009c-0.357,0.023-0.623,0.087-0.801,0.19c-0.225,0.133-0.328,0.303-0.313,0.512
		c0.014,0.204,0.154,0.531,0.42,0.981l1.064,1.809l1.381-0.813l0.697,1.183L326.463,356.114z"/>
	<path fill="#FFFFFF" d="M334.146,352.628l2.08,3.531l-1.313,0.774l-5.125-8.698l1.488-0.877c0.729-0.43,1.309-0.703,1.74-0.821
		c0.434-0.118,0.879-0.122,1.33-0.009c0.787,0.193,1.4,0.663,1.838,1.407c0.469,0.796,0.574,1.584,0.314,2.362
		c-0.258,0.781-0.84,1.438-1.746,1.971L334.146,352.628z M333.43,351.411l0.49-0.289c1.205-0.711,1.535-1.529,0.988-2.457
		c-0.529-0.898-1.416-0.98-2.658-0.248l-0.434,0.256L333.43,351.411z"/>
	<path fill="#FFFFFF" d="M337.67,347.917l1.268-0.747l0.289,0.49c0.09-0.381,0.197-0.67,0.324-0.866
		c0.129-0.203,0.318-0.378,0.57-0.526c0.334-0.196,0.748-0.293,1.24-0.29l0.104,1.502c-0.342-0.03-0.627,0.021-0.857,0.156
		c-0.689,0.407-0.729,1.133-0.113,2.177l1.676,2.845l-1.268,0.747L337.67,347.917z"/>
	<path fill="#FFFFFF" d="M346.029,342.991l1.273-0.75l3.234,5.486l-1.273,0.751l-0.338-0.574c-0.234,0.795-0.652,1.37-1.254,1.724
		c-0.76,0.447-1.547,0.543-2.365,0.287c-0.822-0.27-1.48-0.823-1.975-1.661c-0.484-0.822-0.643-1.653-0.473-2.491
		c0.168-0.838,0.623-1.476,1.363-1.912c0.637-0.376,1.365-0.449,2.184-0.223L346.029,342.991z M344.629,347.49
		c0.311,0.526,0.703,0.871,1.18,1.036c0.484,0.164,0.949,0.115,1.387-0.143c0.471-0.277,0.756-0.662,0.854-1.155
		c0.094-0.505-0.014-1.015-0.316-1.528c-0.303-0.516-0.697-0.854-1.184-1.019c-0.482-0.156-0.953-0.098-1.416,0.175
		c-0.436,0.257-0.703,0.637-0.801,1.139C344.24,346.5,344.338,346.998,344.629,347.49z"/>
	<path fill="#FFFFFF" d="M357.367,343.528c0.152,0.26,0.279,0.492,0.377,0.7c0.1,0.206,0.18,0.395,0.238,0.563
		c0.152,0.466,0.186,0.925,0.098,1.376c-0.16,0.863-0.674,1.551-1.541,2.062c-0.732,0.432-1.451,0.59-2.156,0.474
		c-0.729-0.117-1.34-0.513-1.838-1.186l1.273-0.751c0.207,0.241,0.41,0.403,0.609,0.482c0.465,0.187,0.949,0.133,1.453-0.164
		c0.928-0.546,1.055-1.389,0.385-2.526l-0.451-0.767c-0.201,0.812-0.629,1.409-1.287,1.797c-0.746,0.44-1.52,0.532-2.314,0.271
		c-0.803-0.265-1.447-0.809-1.932-1.632c-0.473-0.8-0.648-1.611-0.531-2.434c0.131-0.877,0.59-1.548,1.379-2.013
		c0.691-0.407,1.418-0.488,2.18-0.243l-0.367-0.62l1.27-0.747L357.367,343.528z M354.617,341.644
		c-0.314-0.534-0.709-0.877-1.182-1.027c-0.482-0.156-0.949-0.102-1.398,0.164c-0.482,0.283-0.756,0.685-0.824,1.206
		c-0.063,0.468,0.055,0.954,0.354,1.462c0.295,0.498,0.662,0.835,1.102,1.006c0.48,0.187,0.961,0.139,1.447-0.147
		c0.484-0.285,0.762-0.688,0.836-1.206C355.023,342.628,354.91,342.142,354.617,341.644z"/>
	<path fill="#FFFFFF" d="M357.078,336.481l1.855,3.149c0.535,0.909,1.162,1.151,1.879,0.729c0.717-0.423,0.809-1.089,0.273-1.998
		l-1.857-3.149l1.27-0.747l1.871,3.178c0.26,0.439,0.428,0.851,0.508,1.234c0.063,0.348,0.031,0.713-0.092,1.095
		c-0.209,0.624-0.645,1.13-1.305,1.519c-0.658,0.388-1.311,0.523-1.957,0.403c-0.398-0.074-0.736-0.222-1.014-0.444
		c-0.254-0.192-0.531-0.541-0.828-1.045l-1.871-3.178L357.078,336.481z"/>
	<path fill="#FFFFFF" d="M368.887,333.621l-3.932,2.317c0.299,0.431,0.656,0.703,1.072,0.816c0.414,0.11,0.824,0.047,1.23-0.192
		c0.314-0.187,0.531-0.415,0.65-0.688c0.113-0.27,0.182-0.683,0.201-1.241l1.422-0.034c0,0.379-0.031,0.723-0.098,1.032
		c-0.064,0.311-0.164,0.592-0.299,0.846c-0.135,0.252-0.305,0.481-0.514,0.686s-0.457,0.39-0.742,0.558
		c-0.818,0.482-1.631,0.606-2.436,0.374c-0.809-0.237-1.471-0.795-1.986-1.67c-0.51-0.867-0.684-1.711-0.52-2.531
		c0.172-0.815,0.658-1.459,1.459-1.93c0.807-0.477,1.598-0.595,2.371-0.356c0.766,0.236,1.416,0.806,1.949,1.712L368.887,333.621z
		 M366.975,333.352c-0.576-0.572-1.201-0.658-1.877-0.26c-0.154,0.091-0.283,0.199-0.391,0.325c-0.109,0.126-0.191,0.267-0.252,0.42
		c-0.059,0.153-0.09,0.315-0.096,0.486c-0.006,0.17,0.018,0.346,0.068,0.529L366.975,333.352z"/>
</g>
<g>
	<g>
		<polygon fill="#8E8E8E" points="195.607,452.446 2,340.665 2,117.105 195.607,5.323 389.218,117.105 389.218,340.665 		"/>
	</g>
</g>
<g enable-background="new    ">
	<g>
		<path fill="#FFFFFF" d="M195.604,40.704L32.393,134.798v188.184l163.211,94.084l163.222-94.084V134.798L195.604,40.704z
			 M352.216,319.19l-156.612,90.295L38.985,319.19V138.626L195.604,48.33l156.612,90.296V319.19z"/>
	</g>
</g>
<g>
	<g>
		<path fill="#FFFFFF" d="M67.453,315.972c87.75,0,175.5,0,263.25,0c1.612,0,1.612-2.5,0-2.5c-87.75,0-175.5,0-263.25,0
			C65.841,313.472,65.841,315.972,67.453,315.972L67.453,315.972z"/>
	</g>
</g>
<g>
	<g>
		<path fill="#FFFFFF" d="M67.453,309.14c87.75,0,175.5,0,263.25,0c1.612,0,1.612-2.5,0-2.5c-87.75,0-175.5,0-263.25,0
			C65.841,306.64,65.841,309.14,67.453,309.14L67.453,309.14z"/>
	</g>
</g>
<g>
	<g>
		<path fill="#FFFFFF" d="M106.036,268.806c61.389,0,122.778,0,184.167,0c1.612,0,1.612-2.5,0-2.5c-61.389,0-122.778,0-184.167,0
			C104.424,266.306,104.424,268.806,106.036,268.806L106.036,268.806z"/>
	</g>
</g>
<g>
	<g>
		<path fill="#FFFFFF" d="M330.837,305.506c-13.25-12.945-26.5-25.889-39.75-38.834c-1.153-1.127-2.922,0.64-1.768,1.768
			c13.25,12.945,26.5,25.889,39.75,38.834C330.223,308.4,331.991,306.634,330.837,305.506L330.837,305.506z"/>
	</g>
</g>
<g>
	<g>
		<path fill="#FFFFFF" d="M331.787,314.39c0-2.444,0-4.89,0-7.334c0-1.612-2.5-1.612-2.5,0c0,2.444,0,4.89,0,7.334
			C329.287,316.002,331.787,316.002,331.787,314.39L331.787,314.39z"/>
	</g>
</g>
<g>
	<g>
		<path fill="#FFFFFF" d="M67.338,307.273c13.25-12.945,26.501-25.889,39.75-38.834c1.155-1.128-0.614-2.895-1.768-1.768
			c-13.25,12.945-26.501,25.889-39.75,38.834C64.415,306.634,66.185,308.4,67.338,307.273L67.338,307.273z"/>
	</g>
</g>
<g>
	<g>
		<path fill="#FFFFFF" d="M67.12,314.39c0-2.444,0-4.89,0-7.334c0-1.612-2.5-1.612-2.5,0c0,2.444,0,4.89,0,7.334
			C64.62,316.002,67.12,316.002,67.12,314.39L67.12,314.39z"/>
	</g>
</g>
<g>
	<g>
		<path fill="#FFFFFF" d="M291.123,152.22v37.67h-2.5v-37.67C288.623,150.609,291.123,150.609,291.123,152.22z"/>
	</g>
	<g>
		<rect x="288.623" y="195.89" fill="#FFFFFF" width="2.5" height="31.67"/>
	</g>
	<g>
		<path fill="#FFFFFF" d="M288.623,233.56h2.5v32.66c0,1.619-2.5,1.619-2.5,0V233.56z"/>
	</g>
</g>
<g>
	<g>
		<path fill="#FFFFFF" d="M107.036,153.473c60.833,0,121.667,0,182.5,0c1.612,0,1.612-2.5,0-2.5c-60.833,0-121.667,0-182.5,0
			C105.424,150.973,105.424,153.473,107.036,153.473L107.036,153.473z"/>
	</g>
</g>
<g>
	<g>
		<path fill="#FFFFFF" d="M114.37,162.306c55.222,0,110.444,0,165.666,0c1.612,0,1.612-2.5,0-2.5c-55.222,0-110.444,0-165.666,0
			C112.758,159.806,112.758,162.306,114.37,162.306L114.37,162.306z"/>
	</g>
</g>
<g>
	<g>
		<path fill="#FFFFFF" d="M280.953,160.89v29h-2.5v-29C278.453,159.279,280.953,159.279,280.953,160.89z"/>
	</g>
	<g>
		<rect x="278.453" y="195.89" fill="#FFFFFF" width="2.5" height="31.67"/>
	</g>
	<g>
		<path fill="#FFFFFF" d="M278.453,233.56h2.5v25c0,1.609-2.5,1.609-2.5,0V233.56z"/>
	</g>
</g>
<g>
	<g>
		<path fill="#FFFFFF" d="M279.37,257.64c-55.111,0-110.223,0-165.334,0c-1.612,0-1.612,2.5,0,2.5c55.111,0,110.223,0,165.334,0
			C280.982,260.14,280.982,257.64,279.37,257.64L279.37,257.64z"/>
	</g>
</g>
<g>
	<g>
		<path fill="#FFFFFF" d="M115.12,258.89c0-32.556,0-65.111,0-97.667c0-1.612-2.5-1.612-2.5,0c0,32.556,0,65.111,0,97.667
			C112.62,260.502,115.12,260.502,115.12,258.89L115.12,258.89z"/>
	</g>
</g>
<g>
	<g>
		<path fill="#FFFFFF" d="M104.453,152.223c0,38.223,0,76.444,0,114.667c0,1.612,2.5,1.612,2.5,0c0-38.223,0-76.444,0-114.667
			C106.953,150.61,104.453,150.61,104.453,152.223L104.453,152.223z"/>
	</g>
</g>
<g>
	<path fill="#FFFFFF" d="M326.203,218.556c0,6.628-5.373,12-12,12H212.036c-6.627,0-12-5.372-12-12V204.89c0-6.628,5.373-12,12-12
		h102.167c6.627,0,12,5.372,12,12V218.556z"/>
</g>
<g>
	<path fill="#FFFFFF" d="M212.033,189.89h39.17v-71.67c0-6.621-5.37-12-12-12h-95.67c-6.62,0-12,5.379-12,12v113.67
		c0,6.629,5.38,12,12,12h95.67c6.06,0,11.07-4.49,11.88-10.33h-39.05c-8.271,0-15-6.73-15-15v-13.67
		C197.033,196.619,203.763,189.89,212.033,189.89z M163.203,115.14c1.931,0,3.5,1.569,3.5,3.5c0,1.93-1.569,3.5-3.5,3.5
		s-3.5-1.57-3.5-3.5C159.703,116.709,161.272,115.14,163.203,115.14z M154.623,115.14c1.931,0,3.5,1.569,3.5,3.5
		c0,1.93-1.569,3.5-3.5,3.5c-1.94,0-3.5-1.57-3.5-3.5C151.123,116.709,152.683,115.14,154.623,115.14z M145.953,115.14
		c1.931,0,3.5,1.569,3.5,3.5c0,1.93-1.569,3.5-3.5,3.5s-3.5-1.57-3.5-3.5C142.453,116.709,144.022,115.14,145.953,115.14z
		 M142.703,131.81c-3.22,0-3.22-3.42,0-3.42h96.5c3.22,0,3.22,3.42,0,3.42H142.703z"/>
</g>
<g>
	<path fill="#FFFFFF" d="M212.033,195.89h39.17v31.67h-39.17c-4.96,0-9-4.041-9-9v-13.67
		C203.033,199.929,207.073,195.89,212.033,195.89z"/>
</g>
<g>
	<g>
		<path fill="#FFFFFF" d="M94.536,293.181c69.723,0,139.444,0,209.167,0c0.806,0,0.806-1.25,0-1.25c-69.723,0-139.444,0-209.167,0
			C93.729,291.931,93.729,293.181,94.536,293.181L94.536,293.181z"/>
	</g>
</g>
<g>
	<g>
		<path fill="#FFFFFF" d="M100.078,287.681c66.083,0,132.167,0,198.25,0c0.806,0,0.806-1.25,0-1.25c-66.083,0-132.167,0-198.25,0
			C99.272,286.431,99.272,287.681,100.078,287.681L100.078,287.681z"/>
	</g>
</g>
<g>
	<g>
		<path fill="#FFFFFF" d="M103.953,282.806c63.5,0,127.001,0,190.501,0c0.807,0,0.807-1.25,0-1.25c-63.5,0-127.001,0-190.501,0
			C103.147,281.556,103.147,282.806,103.953,282.806L103.953,282.806z"/>
	</g>
</g>
<g>
	<g>
		<path fill="#FFFFFF" d="M107.703,278.806c61.083,0,122.167,0,183.25,0c0.806,0,0.806-1.25,0-1.25c-61.083,0-122.167,0-183.25,0
			C106.897,277.556,106.897,278.806,107.703,278.806L107.703,278.806z"/>
	</g>
</g>
<g>
	<g>
		<path fill="#FFFFFF" d="M110.62,275.306c59.083,0,118.167,0,177.25,0c0.807,0,0.807-1.25,0-1.25c-59.083,0-118.167,0-177.25,0
			C109.813,274.056,109.813,275.306,110.62,275.306L110.62,275.306z"/>
	</g>
</g>
<g>
	<g>
		<path fill="#FFFFFF" d="M112.703,272.515c57.521,0,115.042,0,172.563,0c0.806,0,0.806-1.25,0-1.25c-57.521,0-115.042,0-172.563,0
			C111.897,271.265,111.897,272.515,112.703,272.515L112.703,272.515z"/>
	</g>
</g>
<g>
	<g>
		<path fill="#FFFFFF" d="M285.261,272.666c6,6.777,12.001,13.554,18,20.332c0.536,0.604,1.416-0.283,0.885-0.885
			c-6-6.777-12.001-13.554-18-20.332C285.609,271.177,284.729,272.064,285.261,272.666L285.261,272.666z"/>
	</g>
</g>
<g>
	<g>
		<path fill="#FFFFFF" d="M112.136,271.781c-5.999,6.778-12,13.555-18,20.332c-0.531,0.602,0.349,1.489,0.885,0.885
			c5.999-6.778,12-13.555,18-20.332C113.552,272.064,112.672,271.177,112.136,271.781L112.136,271.781z"/>
	</g>
</g>
<g>
	
		<rect x="110.203" y="286.706" transform="matrix(0.8063 0.5915 -0.5915 0.8063 192.8749 -9.3436)" fill="#FFFFFF" width="1" height="6.2"/>
</g>
<g>
	
		<rect x="118.078" y="281.643" transform="matrix(0.8063 0.5915 -0.5915 0.8063 191.4058 -14.9827)" fill="#FFFFFF" width="1" height="6.2"/>
</g>
<g>
	
		<rect x="129.984" y="277.581" transform="matrix(0.8005 0.5994 -0.5994 0.8005 194.0253 -22.2855)" fill="#FFFFFF" width="1" height="5.387"/>
</g>
<g>
	
		<rect x="126.995" y="274.334" transform="matrix(0.8383 0.5452 -0.5452 0.8383 171.346 -24.8064)" fill="#FFFFFF" width="1" height="4.276"/>
</g>
<g>
	
		<rect x="138.838" y="271.426" transform="matrix(0.8201 0.5722 -0.5722 0.8201 181.367 -30.5887)" fill="#FFFFFF" width="1" height="3.532"/>
</g>
<g>
	
		<rect x="140.182" y="274.63" transform="matrix(0.9066 0.422 -0.422 0.9066 129.8351 -33.5416)" fill="#FFFFFF" width="1" height="3.747"/>
</g>
<g>
	
		<rect x="143.495" y="278.318" transform="matrix(0.9066 0.422 -0.422 0.9066 131.7007 -34.5951)" fill="#FFFFFF" width="1" height="3.747"/>
</g>
<g>
	
		<rect x="132.026" y="281.956" transform="matrix(0.8693 0.4942 -0.4942 0.8693 157.9943 -28.3057)" fill="#FFFFFF" width="1" height="5.347"/>
</g>
<g>
	
		<rect x="145.276" y="282.268" transform="matrix(0.8693 0.4942 -0.4942 0.8693 159.8802 -34.8136)" fill="#FFFFFF" width="1" height="5.347"/>
</g>
<g>
	
		<rect x="156.203" y="277.681" transform="matrix(0.9646 0.2636 -0.2636 0.9646 79.3666 -31.4034)" fill="#FFFFFF" width="1" height="4.731"/>
</g>
<g>
	
		<rect x="152.766" y="274.247" transform="matrix(0.9308 0.3657 -0.3657 0.9308 111.6417 -36.9088)" fill="#FFFFFF" width="0.999" height="4.097"/>
</g>
<g>
	
		<rect x="164.391" y="274.62" transform="matrix(0.988 0.1543 -0.1543 0.988 44.6378 -22.1252)" fill="#FFFFFF" width="1" height="3.915"/>
</g>
<g>
	
		<rect x="175.309" y="275.888" transform="matrix(0.0304 0.9995 -0.9995 0.0304 448.1302 90.7919)" fill="#FFFFFF" width="3.914" height="1"/>
</g>
<g>
	
		<rect x="187.372" y="275.785" transform="matrix(0.0307 0.9995 -0.9995 0.0307 459.6732 78.5667)" fill="#FFFFFF" width="3.914" height="1"/>
</g>
<g>
	
		<rect x="181.289" y="272.869" transform="matrix(0.0307 0.9995 -0.9995 0.0307 450.8622 81.8203)" fill="#FFFFFF" width="3.914" height="1"/>
</g>
<g>
	
		<rect x="166.622" y="272.869" transform="matrix(0.0309 0.9995 -0.9995 0.0309 436.6017 96.413)" fill="#FFFFFF" width="3.914" height="1"/>
</g>
<g>
	
		<rect x="151.956" y="272.869" transform="matrix(0.0307 0.9995 -0.9995 0.0307 422.4294 111.1395)" fill="#FFFFFF" width="3.914" height="1"/>
</g>
<g>
	
		<rect x="195.622" y="273.453" transform="matrix(0.0307 0.9995 -0.9995 0.0307 465.3391 68.0601)" fill="#FFFFFF" width="3.914" height="1"/>
</g>
<g>
	
		<rect x="209.955" y="272.869" transform="matrix(0.0307 0.9995 -0.9995 0.0307 478.6485 53.1678)" fill="#FFFFFF" width="3.914" height="1"/>
</g>
<g>
	
		<rect x="224.955" y="272.869" transform="matrix(0.0307 0.9995 -0.9995 0.0307 493.1882 38.1749)" fill="#FFFFFF" width="3.914" height="1"/>
</g>
<g>
	
		<rect x="239.955" y="272.869" transform="matrix(0.0307 0.9995 -0.9995 0.0307 507.7278 23.1819)" fill="#FFFFFF" width="3.914" height="1"/>
</g>
<g>
	
		<rect x="254.955" y="272.869" transform="matrix(0.0307 0.9995 -0.9995 0.0307 522.2675 8.189)" fill="#FFFFFF" width="3.914" height="1"/>
</g>
<g>
	
		<rect x="192.684" y="279.763" transform="matrix(0.0307 0.9995 -0.9995 0.0307 468.7993 77.1131)" fill="#FFFFFF" width="3.914" height="1"/>
</g>
<g>
	
		<rect x="199.747" y="275.951" transform="matrix(0.0676 0.9977 -0.9977 0.0676 463.881 56.5133)" fill="#FFFFFF" width="3.913" height="1"/>
</g>
<g>
	
		<rect x="205.997" y="280.201" transform="matrix(0.0676 0.9977 -0.9977 0.0676 473.9485 54.2402)" fill="#FFFFFF" width="3.913" height="1"/>
</g>
<g>
	
		<rect x="212.185" y="275.827" transform="matrix(0.12 0.9928 -0.9928 0.12 462.7635 30.5631)" fill="#FFFFFF" width="3.913" height="0.999"/>
</g>
<g>
	
		<rect x="218.247" y="279.952" transform="matrix(0.12 0.9928 -0.9928 0.12 472.1934 28.1743)" fill="#FFFFFF" width="3.913" height="0.999"/>
</g>
<g>
	
		<rect x="224.559" y="276.076" transform="matrix(0.1799 0.9837 -0.9837 0.1799 457.8248 3.9955)" fill="#FFFFFF" width="3.913" height="1.001"/>
</g>
<g>
	
		<rect x="230.997" y="280.013" transform="matrix(0.1799 0.9837 -0.9837 0.1799 466.9774 0.8922)" fill="#FFFFFF" width="3.913" height="1.001"/>
</g>
<g>
	
		<rect x="239.559" y="284.138" transform="matrix(0.1799 0.9837 -0.9837 0.1799 478.057 -4.1478)" fill="#FFFFFF" width="3.913" height="1.001"/>
</g>
<g>
	
		<rect x="237.122" y="276.138" transform="matrix(0.1799 0.9837 -0.9837 0.1799 468.1886 -8.3107)" fill="#FFFFFF" width="3.913" height="1.001"/>
</g>
<g>
	
		<rect x="243.247" y="279.451" transform="matrix(0.1799 0.9837 -0.9837 0.1799 476.47 -11.6192)" fill="#FFFFFF" width="3.913" height="1.001"/>
</g>
<g>
	
		<rect x="252.666" y="284.077" transform="matrix(0.2156 0.9765 -0.9765 0.2156 477.8138 -25.6846)" fill="#FFFFFF" width="4.456" height="1"/>
</g>
<g>
	
		<rect x="266.166" y="284.265" transform="matrix(0.2156 0.9765 -0.9765 0.2156 488.5859 -38.72)" fill="#FFFFFF" width="4.456" height="1"/>
</g>
<g>
	
		<rect x="250.286" y="289.341" transform="matrix(0.1655 0.9862 -0.9862 0.1655 496.7886 -7.4103)" fill="#FFFFFF" width="4.975" height="1"/>
</g>
<g>
	
		<rect x="266.176" y="289.366" transform="matrix(0.3682 0.9297 -0.9297 0.3682 439.3926 -66.8824)" fill="#FFFFFF" width="5.466" height="1"/>
</g>
<g>
	
		<rect x="282.176" y="289.241" transform="matrix(0.5612 0.8277 -0.8277 0.5612 364.8121 -108.6786)" fill="#FFFFFF" width="5.465" height="1"/>
</g>
<g>
	
		<rect x="248.872" y="275.951" transform="matrix(0.1799 0.9837 -0.9837 0.1799 477.6401 -20.0227)" fill="#FFFFFF" width="3.913" height="1.001"/>
</g>
<g>
	
		<rect x="256.184" y="279.826" transform="matrix(0.1799 0.9837 -0.9837 0.1799 487.4487 -24.0381)" fill="#FFFFFF" width="3.913" height="1.001"/>
</g>
<g>
	
		<rect x="268.934" y="279.514" transform="matrix(0.2323 0.9726 -0.9726 0.2323 480.3146 -48.5156)" fill="#FFFFFF" width="3.914" height="1"/>
</g>
<g>
	
		<rect x="261.184" y="275.826" transform="matrix(0.1799 0.9837 -0.9837 0.1799 487.6144 -32.2368)" fill="#FFFFFF" width="3.913" height="1.001"/>
</g>
<g>
	
		<rect x="141.484" y="287.09" transform="matrix(0.9002 0.4355 -0.4355 0.9002 140.3902 -32.903)" fill="#FFFFFF" width="1" height="5.537"/>
</g>
<g>
	
		<rect x="218.966" y="289.109" transform="matrix(0.2937 0.9559 -0.9559 0.2937 433.4622 -7.3948)" fill="#FFFFFF" width="5.537" height="0.999"/>
</g>
<g>
	
		<rect x="234.632" y="289.275" transform="matrix(0.0876 0.9962 -0.9962 0.0876 505.26 27.8948)" fill="#FFFFFF" width="5.539" height="1"/>
</g>
<g>
	
		<rect x="123.869" y="271.674" transform="matrix(0.7632 0.6461 -0.6461 0.7632 206.0202 -15.6539)" fill="#FFFFFF" width="1.001" height="3.223"/>
</g>
<g>
	
		<rect x="125.828" y="286.831" transform="matrix(0.8063 0.5915 -0.5915 0.8063 195.9757 -18.5621)" fill="#FFFFFF" width="1" height="6.2"/>
</g>
<g>
	<path fill="#FFFFFF" d="M219.745,304.556h-42c-2.734,0-4.959-2.224-4.959-4.957c0-2.734,2.225-4.959,4.959-4.959h42
		c2.733,0,4.958,2.225,4.958,4.959C224.703,302.332,222.479,304.556,219.745,304.556z M177.745,295.64
		c-2.183,0-3.959,1.776-3.959,3.959c0,2.182,1.776,3.957,3.959,3.957h42c2.183,0,3.958-1.775,3.958-3.957
		c0-2.183-1.775-3.959-3.958-3.959H177.745z"/>
</g>
<g>
	<path fill="#8E8E8E" d="M235.222,208.36l-1.238,0.734c-0.232-0.402-0.453-0.664-0.662-0.787c-0.219-0.139-0.501-0.209-0.846-0.209
		c-0.424,0-0.775,0.12-1.056,0.36c-0.279,0.235-0.419,0.533-0.419,0.892c0,0.494,0.367,0.891,1.101,1.192l1.01,0.413
		c0.821,0.332,1.422,0.737,1.803,1.216c0.38,0.479,0.57,1.065,0.57,1.76c0,0.931-0.311,1.7-0.932,2.308
		c-0.624,0.611-1.4,0.918-2.326,0.918c-0.879,0-1.604-0.26-2.177-0.781c-0.563-0.52-0.915-1.251-1.055-2.195l1.547-0.34
		c0.069,0.594,0.192,1.004,0.367,1.231c0.314,0.437,0.773,0.655,1.376,0.655c0.477,0,0.872-0.159,1.187-0.479
		c0.314-0.318,0.472-0.723,0.472-1.213c0-0.195-0.027-0.377-0.082-0.54c-0.055-0.164-0.14-0.315-0.255-0.452
		c-0.116-0.138-0.266-0.267-0.449-0.387s-0.402-0.234-0.655-0.344l-0.977-0.406c-1.386-0.586-2.078-1.443-2.078-2.57
		c0-0.76,0.291-1.396,0.872-1.907c0.581-0.516,1.304-0.773,2.169-0.773C233.655,206.656,234.566,207.225,235.222,208.36z"/>
	<path fill="#8E8E8E" d="M238.854,206.853v6.096c0,0.87,0.142,1.506,0.426,1.908c0.424,0.58,1.021,0.871,1.789,0.871
		c0.773,0,1.372-0.291,1.796-0.871c0.284-0.389,0.426-1.025,0.426-1.908v-6.096h1.527v6.516c0,1.066-0.332,1.944-0.996,2.635
		c-0.747,0.77-1.665,1.154-2.753,1.154s-2.003-0.385-2.746-1.154c-0.664-0.69-0.996-1.568-0.996-2.635v-6.516H238.854z"/>
	<path fill="#8E8E8E" d="M247.243,216.974v-10.121h1.521c0.677,0,1.217,0.053,1.619,0.158c0.406,0.104,0.749,0.281,1.028,0.53
		c0.284,0.259,0.51,0.579,0.676,0.964c0.17,0.389,0.255,0.782,0.255,1.18c0,0.726-0.277,1.34-0.832,1.842
		c0.537,0.184,0.961,0.505,1.271,0.963c0.314,0.455,0.472,0.984,0.472,1.587c0,0.791-0.279,1.46-0.839,2.005
		c-0.336,0.338-0.714,0.57-1.134,0.702c-0.459,0.126-1.033,0.19-1.724,0.19H247.243z M248.771,211.198h0.478
		c0.568,0,0.984-0.125,1.249-0.377c0.265-0.251,0.396-0.621,0.396-1.11c0-0.477-0.136-0.838-0.406-1.085
		c-0.271-0.246-0.664-0.37-1.18-0.37h-0.537V211.198z M248.771,215.538h0.943c0.69,0,1.197-0.136,1.521-0.406
		c0.341-0.293,0.512-0.664,0.512-1.115c0-0.437-0.164-0.804-0.492-1.101c-0.318-0.293-0.889-0.439-1.71-0.439h-0.773V215.538z"/>
	<path fill="#8E8E8E" d="M260.902,208.36l-1.238,0.734c-0.232-0.402-0.453-0.664-0.662-0.787c-0.219-0.139-0.501-0.209-0.846-0.209
		c-0.424,0-0.775,0.12-1.056,0.36c-0.279,0.235-0.419,0.533-0.419,0.892c0,0.494,0.367,0.891,1.101,1.192l1.01,0.413
		c0.821,0.332,1.422,0.737,1.803,1.216c0.38,0.479,0.57,1.065,0.57,1.76c0,0.931-0.311,1.7-0.932,2.308
		c-0.624,0.611-1.4,0.918-2.326,0.918c-0.879,0-1.604-0.26-2.177-0.781c-0.563-0.52-0.915-1.251-1.055-2.195l1.547-0.34
		c0.069,0.594,0.192,1.004,0.367,1.231c0.314,0.437,0.773,0.655,1.376,0.655c0.477,0,0.872-0.159,1.187-0.479
		c0.314-0.318,0.472-0.723,0.472-1.213c0-0.195-0.027-0.377-0.082-0.54c-0.055-0.164-0.14-0.315-0.255-0.452
		c-0.116-0.138-0.266-0.267-0.449-0.387s-0.402-0.234-0.655-0.344l-0.977-0.406c-1.386-0.586-2.078-1.443-2.078-2.57
		c0-0.76,0.291-1.396,0.872-1.907c0.581-0.516,1.304-0.773,2.169-0.773C259.336,206.656,260.247,207.225,260.902,208.36z"/>
	<path fill="#8E8E8E" d="M270.485,207.397v1.809c-0.883-0.738-1.796-1.107-2.74-1.107c-1.04,0-1.916,0.373-2.628,1.121
		c-0.717,0.742-1.075,1.651-1.075,2.727c0,1.062,0.358,1.957,1.075,2.688c0.717,0.729,1.595,1.094,2.635,1.094
		c0.537,0,0.994-0.087,1.37-0.262c0.21-0.088,0.427-0.205,0.652-0.354c0.225-0.148,0.462-0.328,0.711-0.538v1.842
		c-0.874,0.493-1.792,0.741-2.753,0.741c-1.446,0-2.681-0.506-3.703-1.515c-1.019-1.019-1.527-2.246-1.527-3.684
		c0-1.289,0.426-2.438,1.278-3.448c1.049-1.236,2.405-1.854,4.07-1.854C268.759,206.656,269.638,206.903,270.485,207.397z"/>
	<path fill="#8E8E8E" d="M275.84,212.66l3.133,4.313h-1.868l-2.891-4.143h-0.274v4.143h-1.527v-10.121h1.789
		c1.337,0,2.303,0.252,2.897,0.754c0.655,0.56,0.982,1.299,0.982,2.216c0,0.717-0.205,1.333-0.616,1.849
		C277.055,212.187,276.513,212.517,275.84,212.66z M273.939,211.5h0.484c1.446,0,2.17-0.553,2.17-1.658
		c0-1.036-0.704-1.554-2.11-1.554h-0.544V211.5z"/>
	<path fill="#8E8E8E" d="M282.021,206.853v10.121h-1.527v-10.121H282.021z"/>
	<path fill="#8E8E8E" d="M284.453,216.974v-10.121h1.521c0.677,0,1.217,0.053,1.619,0.158c0.406,0.104,0.749,0.281,1.028,0.53
		c0.284,0.259,0.51,0.579,0.676,0.964c0.17,0.389,0.255,0.782,0.255,1.18c0,0.726-0.277,1.34-0.832,1.842
		c0.537,0.184,0.961,0.505,1.271,0.963c0.314,0.455,0.472,0.984,0.472,1.587c0,0.791-0.279,1.46-0.839,2.005
		c-0.336,0.338-0.714,0.57-1.134,0.702c-0.459,0.126-1.033,0.19-1.724,0.19H284.453z M285.98,211.198h0.478
		c0.568,0,0.984-0.125,1.249-0.377c0.265-0.251,0.396-0.621,0.396-1.11c0-0.477-0.136-0.838-0.406-1.085
		c-0.271-0.246-0.664-0.37-1.18-0.37h-0.537V211.198z M285.98,215.538h0.943c0.69,0,1.197-0.136,1.521-0.406
		c0.341-0.293,0.512-0.664,0.512-1.115c0-0.437-0.164-0.804-0.492-1.101c-0.318-0.293-0.889-0.439-1.71-0.439h-0.773V215.538z"/>
	<path fill="#8E8E8E" d="M297.975,208.288h-4.057v2.432h3.938v1.436h-3.938v3.383h4.057v1.436h-5.584v-10.121h5.584V208.288z"/>
</g>
<g>
	<g>
		<path fill="#8E8E8E" d="M201.87,148.806c12,0,24,0,36,0c1.612,0,1.612-2.5,0-2.5c-12,0-24,0-36,0
			C200.258,146.306,200.258,148.806,201.87,148.806L201.87,148.806z"/>
	</g>
</g>
<g>
	<g>
		<path fill="#8E8E8E" d="M146.536,160.14c24.556,0,49.111,0,73.667,0c1.612,0,1.612-2.5,0-2.5c-24.556,0-49.111,0-73.667,0
			C144.924,157.64,144.924,160.14,146.536,160.14L146.536,160.14z"/>
	</g>
</g>
<g>
	<g>
		<path fill="#8E8E8E" d="M195.87,148.806c1.612,0,1.612-2.5,0-2.5S194.258,148.806,195.87,148.806L195.87,148.806z"/>
	</g>
</g>
<g>
	<g>
		<path fill="#8E8E8E" d="M225.203,160.14c1.612,0,1.612-2.5,0-2.5S223.591,160.14,225.203,160.14L225.203,160.14z"/>
	</g>
</g>
<g>
	<g>
		<path fill="#8E8E8E" d="M146.537,176.64c26.333,0,52.667,0,79,0c1.612,0,1.612-2.5,0-2.5c-26.333,0-52.667,0-79,0
			C144.925,174.14,144.925,176.64,146.537,176.64L146.537,176.64z"/>
	</g>
</g>
<g>
	<g>
		<path fill="#8E8E8E" d="M146.537,190.64c14.611,0,29.222,0,43.833,0c1.612,0,1.612-2.5,0-2.5c-14.611,0-29.222,0-43.833,0
			C144.925,188.14,144.925,190.64,146.537,190.64L146.537,190.64z"/>
	</g>
</g>
<g>
	<g>
		<path fill="#8E8E8E" d="M146.537,204.64c14.444,0,28.889,0,43.333,0c1.612,0,1.612-2.5,0-2.5c-14.444,0-28.889,0-43.333,0
			C144.925,202.14,144.925,204.64,146.537,204.64L146.537,204.64z"/>
	</g>
</g>
<g>
	<g>
		<path fill="#8E8E8E" d="M146.537,218.64c14.611,0,29.222,0,43.833,0c1.612,0,1.612-2.5,0-2.5c-14.611,0-29.222,0-43.833,0
			C144.925,216.14,144.925,218.64,146.537,218.64L146.537,218.64z"/>
	</g>
</g>
<g>
	<path fill="#FFFFFF" d="M34.914,122.751l-5.957-10.356l1.555-0.895c0.693-0.399,1.277-0.663,1.75-0.793
		c0.479-0.131,0.934-0.152,1.365-0.062c0.442,0.096,0.861,0.292,1.259,0.588c0.403,0.298,0.722,0.65,0.956,1.057
		c0.427,0.743,0.504,1.534,0.232,2.375c0.658-0.129,1.28-0.05,1.868,0.237c0.591,0.281,1.062,0.729,1.417,1.346
		c0.465,0.81,0.572,1.657,0.321,2.546c-0.146,0.542-0.396,1.005-0.747,1.385c-0.395,0.399-0.945,0.804-1.652,1.21L34.914,122.751z
		 M33.077,115.943l0.489-0.282c0.582-0.334,0.934-0.708,1.057-1.121c0.123-0.412,0.039-0.87-0.248-1.371
		c-0.28-0.486-0.632-0.776-1.055-0.87c-0.423-0.092-0.898,0.013-1.426,0.315l-0.55,0.317L33.077,115.943z M35.632,120.383
		l0.966-0.555c0.707-0.406,1.145-0.844,1.316-1.313c0.177-0.5,0.133-0.98-0.133-1.441c-0.258-0.447-0.641-0.727-1.15-0.837
		c-0.499-0.112-1.17,0.074-2.01,0.558l-0.791,0.455L35.632,120.383z"/>
	<path fill="#FFFFFF" d="M47.023,111.91l-4.682,2.693c0.349,0.514,0.77,0.841,1.26,0.98c0.488,0.135,0.975,0.063,1.457-0.214
		c0.375-0.216,0.635-0.483,0.777-0.804c0.139-0.318,0.225-0.808,0.255-1.467l1.683-0.023c-0.003,0.449-0.047,0.855-0.127,1.221
		c-0.082,0.365-0.203,0.698-0.365,0.995c-0.162,0.299-0.367,0.567-0.617,0.806c-0.249,0.24-0.543,0.456-0.883,0.652
		c-0.975,0.561-1.938,0.697-2.889,0.412c-0.953-0.292-1.729-0.958-2.328-2c-0.595-1.033-0.789-2.033-0.584-3.003
		c0.214-0.962,0.797-1.718,1.749-2.266c0.962-0.554,1.897-0.684,2.81-0.392c0.904,0.288,1.666,0.971,2.286,2.049L47.023,111.91z
		 M44.764,111.567c-0.674-0.684-1.412-0.794-2.217-0.331c-0.184,0.105-0.34,0.232-0.469,0.381s-0.229,0.313-0.301,0.494
		c-0.071,0.181-0.111,0.373-0.121,0.574c-0.008,0.201,0.016,0.41,0.076,0.626L44.764,111.567z"/>
	<path fill="#FFFFFF" d="M51.027,106.27l-0.867,1.381c-0.428-0.289-0.787-0.351-1.078-0.184c-0.139,0.08-0.23,0.194-0.276,0.343
		c-0.045,0.148-0.027,0.294,0.056,0.437c0.144,0.251,0.576,0.332,1.301,0.243c0.998-0.116,1.719-0.108,2.164,0.022
		c0.444,0.131,0.808,0.443,1.091,0.935c0.362,0.631,0.434,1.292,0.213,1.984c-0.221,0.662-0.649,1.177-1.29,1.545
		c-1.095,0.63-2.178,0.542-3.249-0.264l0.944-1.339c0.359,0.211,0.609,0.332,0.753,0.362c0.28,0.065,0.549,0.022,0.804-0.124
		c0.51-0.293,0.631-0.672,0.363-1.137c-0.154-0.27-0.496-0.405-1.021-0.412c-0.196,0.012-0.391,0.026-0.584,0.041
		c-0.193,0.017-0.39,0.031-0.59,0.046c-0.563,0.037-0.994,0.001-1.297-0.112c-0.385-0.142-0.701-0.426-0.947-0.855
		c-0.327-0.568-0.402-1.149-0.227-1.744c0.184-0.601,0.561-1.064,1.128-1.391C49.253,105.565,50.123,105.639,51.027,106.27z"/>
	<path fill="#FFFFFF" d="M54.529,104.646l2.948,5.125l-1.509,0.868l-2.948-5.125l-0.644,0.371l-0.811-1.408l0.644-0.371
		l-1.378-2.395l1.51-0.868l1.377,2.395l1.174-0.675l0.811,1.408L54.529,104.646z"/>
	<path fill="#FFFFFF" d="M59.811,94.646l3.588,6.238c0.512,0.89,1.031,1.456,1.559,1.701c0.775,0.344,1.557,0.29,2.344-0.163
		c0.792-0.455,1.233-1.104,1.326-1.947c0.062-0.566-0.168-1.3-0.688-2.203l-3.588-6.238l1.563-0.899l3.835,6.667
		c0.628,1.092,0.806,2.186,0.532,3.283c-0.313,1.227-1.025,2.16-2.139,2.801s-2.276,0.786-3.488,0.436
		c-1.087-0.314-1.943-1.018-2.572-2.109l-3.835-6.667L59.811,94.646z"/>
	<path fill="#FFFFFF" d="M74.744,92.626l-0.867,1.381c-0.428-0.289-0.787-0.351-1.078-0.184c-0.139,0.08-0.23,0.194-0.276,0.343
		c-0.045,0.148-0.027,0.294,0.056,0.437c0.144,0.251,0.576,0.331,1.301,0.243c0.998-0.115,1.719-0.108,2.164,0.022
		c0.444,0.132,0.808,0.443,1.091,0.935c0.362,0.631,0.434,1.292,0.213,1.984c-0.221,0.662-0.649,1.177-1.29,1.545
		c-1.095,0.63-2.178,0.542-3.249-0.264l0.944-1.339c0.359,0.211,0.609,0.331,0.753,0.362c0.28,0.064,0.549,0.022,0.804-0.124
		c0.51-0.293,0.631-0.671,0.363-1.138c-0.154-0.268-0.496-0.404-1.021-0.411c-0.196,0.012-0.391,0.026-0.584,0.041
		c-0.193,0.017-0.39,0.031-0.59,0.046c-0.563,0.037-0.994,0-1.297-0.112c-0.385-0.142-0.701-0.427-0.947-0.856
		c-0.327-0.568-0.402-1.148-0.227-1.743c0.184-0.601,0.561-1.065,1.128-1.392C72.97,91.922,73.84,91.995,74.744,92.626z"/>
	<path fill="#FFFFFF" d="M83.913,90.688l-4.682,2.693c0.349,0.513,0.77,0.841,1.261,0.98c0.488,0.135,0.974,0.063,1.457-0.215
		c0.375-0.216,0.635-0.483,0.777-0.804c0.139-0.317,0.224-0.807,0.254-1.467l1.684-0.023c-0.004,0.449-0.047,0.856-0.128,1.222
		c-0.082,0.365-0.203,0.698-0.364,0.995c-0.162,0.298-0.367,0.567-0.617,0.806c-0.25,0.239-0.544,0.456-0.884,0.651
		c-0.975,0.561-1.938,0.698-2.888,0.412c-0.953-0.291-1.729-0.957-2.328-2c-0.595-1.033-0.79-2.033-0.585-3.002
		c0.214-0.962,0.797-1.719,1.749-2.267c0.962-0.553,1.898-0.684,2.811-0.392c0.903,0.288,1.666,0.972,2.285,2.05L83.913,90.688z
		 M81.654,90.346c-0.674-0.684-1.413-0.795-2.218-0.331c-0.184,0.104-0.339,0.232-0.468,0.381s-0.229,0.313-0.301,0.493
		c-0.072,0.182-0.111,0.373-0.121,0.574c-0.009,0.202,0.016,0.411,0.075,0.627L81.654,90.346z"/>
	<path fill="#FFFFFF" d="M89.262,87.076c-0.543-0.943-0.667-1.94-0.372-2.991c0.294-1.05,0.927-1.854,1.897-2.413
		c0.975-0.561,1.994-0.703,3.057-0.428c1.054,0.28,1.859,0.905,2.418,1.876c0.563,0.979,0.697,1.994,0.403,3.044
		c-0.302,1.049-0.946,1.857-1.935,2.426c-0.979,0.563-1.992,0.7-3.041,0.41C90.648,88.72,89.838,88.078,89.262,87.076z
		 M90.82,86.215c0.375,0.653,0.847,1.069,1.414,1.249c0.58,0.179,1.162,0.099,1.747-0.238c0.591-0.34,0.953-0.8,1.088-1.384
		c0.135-0.583,0.019-1.192-0.347-1.827s-0.834-1.041-1.405-1.219c-0.579-0.178-1.161-0.099-1.747,0.238
		c-0.577,0.332-0.934,0.793-1.07,1.383C90.363,85.008,90.471,85.607,90.82,86.215z"/>
	<path fill="#FFFFFF" d="M98.349,79.438l2.948,5.125l-1.517,0.872l-2.948-5.125l-0.536,0.309l-0.811-1.408l0.536-0.309l-1.45-2.521
		c-0.474-0.823-0.665-1.486-0.573-1.991c0.12-0.699,0.557-1.267,1.308-1.698c0.269-0.154,0.651-0.271,1.147-0.349l0.888,1.543
		l-0.2,0.009c-0.422,0.021-0.738,0.093-0.948,0.214c-0.269,0.154-0.394,0.355-0.376,0.602c0.014,0.242,0.175,0.631,0.483,1.168
		l1.238,2.152l1.644-0.945l0.811,1.408L98.349,79.438z"/>
	<path fill="#FFFFFF" d="M109.124,68.329l-0.835,1.48c-0.475-0.274-0.854-0.413-1.141-0.415c-0.307-0.014-0.637,0.08-0.989,0.283
		c-0.434,0.249-0.723,0.58-0.868,0.99c-0.146,0.406-0.115,0.793,0.096,1.159c0.291,0.506,0.9,0.696,1.83,0.572l1.275-0.171
		c1.037-0.145,1.891-0.084,2.561,0.183c0.67,0.266,1.211,0.753,1.619,1.465c0.549,0.953,0.684,1.922,0.406,2.909
		c-0.279,0.994-0.893,1.764-1.841,2.309c-0.898,0.517-1.794,0.679-2.687,0.483c-0.883-0.2-1.674-0.743-2.373-1.626l1.383-1.261
		c0.422,0.569,0.789,0.917,1.102,1.046c0.579,0.262,1.177,0.215,1.794-0.141c0.487-0.279,0.799-0.675,0.933-1.188
		c0.135-0.51,0.057-1.017-0.23-1.518c-0.116-0.202-0.25-0.37-0.402-0.506s-0.328-0.24-0.528-0.312
		c-0.199-0.073-0.429-0.117-0.687-0.132c-0.259-0.016-0.551-0.004-0.873,0.033l-1.238,0.16c-1.764,0.216-2.976-0.253-3.64-1.407
		c-0.447-0.777-0.524-1.6-0.23-2.464c0.291-0.87,0.879-1.561,1.765-2.069C106.518,67.508,107.785,67.553,109.124,68.329z"/>
	<path fill="#FFFFFF" d="M113.81,68.669l2.157,3.75c0.623,1.082,1.361,1.376,2.215,0.885s0.971-1.276,0.348-2.358l-2.157-3.75
		l1.509-0.869l2.176,3.783c0.301,0.523,0.496,1.013,0.586,1.467c0.07,0.412,0.029,0.844-0.122,1.293
		c-0.256,0.736-0.776,1.33-1.563,1.783c-0.782,0.45-1.557,0.601-2.32,0.451c-0.47-0.092-0.867-0.271-1.192-0.537
		c-0.3-0.231-0.623-0.647-0.968-1.246l-2.176-3.783L113.81,68.669z"/>
	<path fill="#FFFFFF" d="M118.537,59.566l3.195,5.555c0.242-0.974,0.746-1.682,1.512-2.121c0.881-0.507,1.803-0.599,2.767-0.279
		c0.962,0.315,1.723,0.962,2.283,1.937c0.579,1.007,0.763,2.007,0.55,3.004c-0.21,0.99-0.762,1.742-1.656,2.257
		c-0.756,0.435-1.598,0.533-2.527,0.293l0.394,0.685l-1.51,0.868l-6.517-11.329L118.537,59.566z M126.79,65.611
		c-0.36-0.625-0.823-1.037-1.39-1.235c-0.576-0.204-1.123-0.157-1.643,0.141c-0.554,0.319-0.893,0.773-1.019,1.362
		c-0.122,0.584-0.007,1.184,0.349,1.801c0.365,0.635,0.826,1.045,1.385,1.229c0.564,0.193,1.123,0.131,1.678-0.188
		c0.523-0.301,0.845-0.745,0.965-1.331C127.238,66.794,127.129,66.203,126.79,65.611z"/>
	<path fill="#FFFFFF" d="M132.46,59.423l-0.866,1.381c-0.428-0.289-0.787-0.351-1.078-0.184c-0.139,0.08-0.23,0.194-0.276,0.343
		c-0.045,0.148-0.027,0.294,0.056,0.437c0.144,0.251,0.576,0.331,1.301,0.243c0.998-0.115,1.719-0.108,2.163,0.022
		c0.445,0.132,0.809,0.443,1.092,0.935c0.362,0.631,0.434,1.292,0.213,1.984c-0.221,0.662-0.649,1.177-1.29,1.545
		c-1.095,0.63-2.178,0.542-3.249-0.264l0.944-1.339c0.359,0.211,0.609,0.331,0.752,0.362c0.281,0.064,0.55,0.022,0.805-0.124
		c0.51-0.293,0.631-0.671,0.363-1.138c-0.154-0.268-0.496-0.404-1.021-0.411c-0.196,0.012-0.391,0.026-0.585,0.041
		c-0.192,0.017-0.389,0.031-0.589,0.046c-0.563,0.037-0.994,0.001-1.297-0.112c-0.385-0.142-0.701-0.427-0.947-0.856
		c-0.327-0.568-0.402-1.148-0.228-1.743c0.185-0.601,0.562-1.064,1.128-1.392C130.687,58.719,131.557,58.792,132.46,59.423z"/>
	<path fill="#FFFFFF" d="M138.843,54.644l1.153,2.005c-0.586-0.222-1.061-0.334-1.423-0.333c-0.36-0.007-0.723,0.095-1.085,0.303
		c-0.568,0.327-0.925,0.798-1.072,1.411c-0.146,0.614-0.047,1.221,0.298,1.82c0.353,0.612,0.823,1.011,1.411,1.196
		c0.594,0.183,1.174,0.11,1.742-0.217c0.361-0.208,0.637-0.47,0.824-0.786c0.18-0.307,0.326-0.782,0.436-1.429l1.146,1.991
		c-0.431,0.67-0.951,1.182-1.564,1.533c-1.01,0.582-2.043,0.742-3.099,0.479c-1.058-0.267-1.867-0.888-2.428-1.86
		c-0.562-0.977-0.69-1.997-0.387-3.063c0.303-1.067,0.954-1.89,1.956-2.466C137.396,54.858,138.093,54.664,138.843,54.644z"/>
	<path fill="#FFFFFF" d="M140.143,53.52l1.51-0.867l0.336,0.584c0.109-0.451,0.24-0.792,0.394-1.022
		c0.155-0.237,0.382-0.443,0.683-0.616c0.397-0.229,0.888-0.337,1.471-0.328l0.104,1.779c-0.404-0.041-0.742,0.018-1.016,0.174
		c-0.822,0.474-0.877,1.332-0.161,2.576l1.948,3.387l-1.51,0.867L140.143,53.52z"/>
	<path fill="#FFFFFF" d="M143.49,47.979c-0.151-0.263-0.188-0.547-0.105-0.85s0.256-0.531,0.525-0.686
		c0.272-0.158,0.561-0.194,0.863-0.113c0.301,0.077,0.529,0.252,0.686,0.525c0.156,0.271,0.195,0.561,0.113,0.863
		c-0.078,0.3-0.252,0.529-0.525,0.686c-0.272,0.157-0.561,0.194-0.863,0.112C143.881,48.436,143.65,48.257,143.49,47.979z
		 M146.789,49.696l3.759,6.533l-1.509,0.868l-3.759-6.533L146.789,49.696z"/>
	<path fill="#FFFFFF" d="M156.014,57.816l-1.509,0.868l-5.804-10.088l1.51-0.868l0.408,0.711c0.254-0.938,0.758-1.623,1.514-2.059
		c0.898-0.517,1.828-0.611,2.791-0.284c0.969,0.319,1.74,0.979,2.316,1.98c0.564,0.979,0.74,1.964,0.529,2.953
		c-0.207,0.982-0.754,1.729-1.64,2.237c-0.765,0.44-1.626,0.527-2.581,0.262L156.014,57.816z M155.701,48.971
		c-0.359-0.626-0.822-1.038-1.389-1.236c-0.574-0.199-1.122-0.149-1.645,0.152c-0.555,0.318-0.894,0.77-1.018,1.352
		c-0.122,0.584-0.004,1.188,0.356,1.813c0.353,0.612,0.815,1.019,1.388,1.219c0.564,0.192,1.123,0.13,1.678-0.188
		c0.523-0.302,0.842-0.746,0.955-1.335C156.149,50.152,156.041,49.562,155.701,48.971z"/>
	<path fill="#FFFFFF" d="M159.305,44.371l2.947,5.125l-1.509,0.868l-2.948-5.125l-0.644,0.37l-0.811-1.408l0.644-0.37l-1.377-2.395
		l1.51-0.868l1.377,2.395l1.174-0.675l0.811,1.408L159.305,44.371z"/>
	<path fill="#FFFFFF" d="M158.904,39.111c-0.152-0.263-0.188-0.547-0.105-0.85s0.256-0.531,0.524-0.686
		c0.272-0.157,0.562-0.194,0.863-0.112c0.301,0.076,0.529,0.251,0.687,0.524c0.156,0.271,0.194,0.561,0.112,0.863
		c-0.077,0.3-0.252,0.529-0.524,0.686c-0.273,0.157-0.561,0.194-0.863,0.113C159.295,39.568,159.063,39.39,158.904,39.111z
		 M162.203,40.829l3.758,6.533l-1.509,0.868l-3.759-6.533L162.203,40.829z"/>
	<path fill="#FFFFFF" d="M165.658,43.127c-0.543-0.943-0.667-1.94-0.372-2.991c0.294-1.05,0.927-1.854,1.897-2.413
		c0.975-0.561,1.994-0.703,3.057-0.428c1.054,0.28,1.859,0.906,2.418,1.877c0.563,0.979,0.697,1.993,0.403,3.043
		c-0.302,1.049-0.946,1.857-1.935,2.426c-0.979,0.563-1.992,0.7-3.041,0.41C167.045,44.771,166.234,44.129,165.658,43.127z
		 M167.217,42.266c0.375,0.653,0.847,1.069,1.414,1.249c0.58,0.179,1.162,0.099,1.747-0.238c0.591-0.34,0.953-0.8,1.088-1.384
		c0.135-0.583,0.019-1.192-0.347-1.827s-0.834-1.041-1.405-1.219c-0.579-0.178-1.161-0.099-1.747,0.238
		c-0.577,0.332-0.934,0.793-1.07,1.383C166.76,41.059,166.867,41.658,167.217,42.266z"/>
	<path fill="#FFFFFF" d="M172.371,34.979l1.516-0.872l0.348,0.604c0.227-0.826,0.672-1.431,1.333-1.812
		c0.76-0.437,1.49-0.538,2.19-0.305c0.601,0.196,1.166,0.755,1.695,1.677l2.304,4.004l-1.516,0.872l-2.099-3.649
		c-0.371-0.644-0.717-1.037-1.036-1.18c-0.319-0.15-0.708-0.093-1.169,0.172c-0.501,0.288-0.762,0.658-0.781,1.109
		c-0.018,0.445,0.207,1.074,0.676,1.889l1.813,3.152l-1.517,0.872L172.371,34.979z"/>
	<path fill="#FFFFFF" d="M184.342,29.576l-0.866,1.381c-0.429-0.289-0.788-0.35-1.079-0.183c-0.139,0.08-0.23,0.194-0.276,0.343
		c-0.045,0.148-0.027,0.293,0.056,0.436c0.144,0.252,0.576,0.332,1.301,0.244c0.998-0.116,1.719-0.108,2.164,0.021
		c0.444,0.132,0.808,0.444,1.091,0.936c0.362,0.631,0.434,1.291,0.213,1.984c-0.22,0.662-0.649,1.177-1.289,1.545
		c-1.096,0.63-2.179,0.542-3.25-0.264l0.944-1.339c0.359,0.21,0.609,0.331,0.753,0.362c0.28,0.064,0.549,0.022,0.804-0.124
		c0.51-0.294,0.631-0.672,0.363-1.138c-0.154-0.269-0.496-0.404-1.021-0.411c-0.196,0.011-0.391,0.025-0.584,0.041
		s-0.39,0.031-0.59,0.045c-0.563,0.038-0.994,0.001-1.297-0.112c-0.385-0.141-0.701-0.426-0.947-0.855
		c-0.327-0.568-0.402-1.148-0.227-1.744c0.184-0.6,0.561-1.064,1.128-1.391C182.568,28.872,183.438,28.946,184.342,29.576z"/>
</g>
<g>
	<path fill="#FFFFFF" d="M205.229,425.154l-3.487,2.055l1.232,2.09l3.385-1.995l0.729,1.234l-3.387,1.995l1.713,2.907l3.487-2.055
		l0.727,1.233l-4.8,2.829l-5.125-8.699l4.8-2.828L205.229,425.154z"/>
	<path fill="#FFFFFF" d="M209.881,426.671l2.536,4.305l-1.268,0.747l-2.536-4.305l-0.541,0.319l-0.697-1.184l0.541-0.318
		l-1.185-2.011l1.268-0.747l1.185,2.011l0.986-0.581l0.697,1.184L209.881,426.671z"/>
	<path fill="#FFFFFF" d="M208.658,420.372l1.268-0.746l2.643,4.484c0.211-0.672,0.589-1.168,1.134-1.489
		c0.62-0.365,1.233-0.456,1.843-0.272c0.521,0.162,1.008,0.627,1.459,1.394l1.981,3.363l-1.267,0.747l-1.912-3.245
		c-0.26-0.439-0.525-0.711-0.797-0.817c-0.272-0.105-0.582-0.056-0.927,0.148c-0.442,0.261-0.673,0.581-0.692,0.961
		c-0.014,0.383,0.18,0.912,0.578,1.588l1.563,2.653l-1.268,0.747L208.658,420.372z"/>
	<path fill="#FFFFFF" d="M220.529,426.196l-3.68-10.431l6.969,5l-0.891-8.582l7.156,8.382l-1.347,0.794l-3.933-4.757l0.755,7.168
		l-5.835-4.182l2.162,5.807L220.529,426.196z"/>
	<path fill="#FFFFFF" d="M232.495,411.752l1.272-0.75l3.234,5.487l-1.273,0.75l-0.338-0.574c-0.234,0.795-0.652,1.37-1.254,1.725
		c-0.759,0.447-1.547,0.543-2.365,0.286c-0.822-0.27-1.479-0.823-1.973-1.661c-0.485-0.822-0.644-1.652-0.475-2.49
		c0.168-0.839,0.623-1.476,1.363-1.912c0.639-0.376,1.366-0.45,2.184-0.224L232.495,411.752z M231.094,416.251
		c0.311,0.527,0.703,0.872,1.18,1.037c0.485,0.163,0.949,0.115,1.389-0.144c0.469-0.276,0.754-0.661,0.852-1.155
		c0.094-0.504-0.014-1.014-0.316-1.527c-0.303-0.516-0.697-0.854-1.184-1.02c-0.482-0.155-0.953-0.098-1.416,0.175
		c-0.436,0.257-0.703,0.637-0.801,1.14C230.705,415.261,230.804,415.759,231.094,416.251z"/>
	<path fill="#FFFFFF" d="M243.832,412.29c0.153,0.26,0.279,0.492,0.378,0.7c0.1,0.206,0.179,0.394,0.237,0.562
		c0.152,0.467,0.186,0.925,0.098,1.377c-0.159,0.863-0.674,1.551-1.541,2.062c-0.732,0.432-1.451,0.589-2.156,0.474
		c-0.727-0.117-1.34-0.514-1.838-1.187l1.273-0.75c0.207,0.241,0.412,0.403,0.61,0.481c0.464,0.188,0.948,0.134,1.452-0.163
		c0.928-0.547,1.055-1.39,0.385-2.526l-0.451-0.768c-0.2,0.812-0.629,1.41-1.287,1.798c-0.746,0.44-1.518,0.531-2.313,0.271
		c-0.804-0.265-1.448-0.809-1.933-1.632c-0.472-0.8-0.648-1.611-0.531-2.434c0.131-0.877,0.59-1.549,1.379-2.014
		c0.691-0.406,1.418-0.487,2.18-0.242l-0.366-0.621l1.269-0.746L243.832,412.29z M241.082,410.405
		c-0.314-0.534-0.709-0.877-1.182-1.027c-0.482-0.156-0.949-0.102-1.398,0.164c-0.481,0.283-0.756,0.685-0.823,1.205
		c-0.063,0.468,0.054,0.955,0.353,1.462c0.295,0.499,0.662,0.835,1.102,1.007c0.48,0.187,0.962,0.138,1.447-0.147
		c0.484-0.286,0.763-0.688,0.836-1.207C241.488,411.39,241.377,410.903,241.082,410.405z"/>
	<path fill="#FFFFFF" d="M240.739,403.82c-0.13-0.221-0.163-0.461-0.097-0.717c0.066-0.257,0.213-0.45,0.438-0.583
		c0.23-0.136,0.473-0.17,0.729-0.104c0.255,0.063,0.449,0.209,0.584,0.438c0.135,0.229,0.17,0.474,0.104,0.729
		c-0.063,0.254-0.209,0.449-0.438,0.584c-0.229,0.136-0.473,0.169-0.729,0.104C241.073,404.204,240.877,404.054,240.739,403.82z
		 M243.543,405.242l3.232,5.487l-1.268,0.747l-3.232-5.487L243.543,405.242z"/>
	<path fill="#FFFFFF" d="M249.559,402.017l0.992,1.686c-0.497-0.184-0.899-0.272-1.206-0.27c-0.304-0.002-0.609,0.087-0.913,0.266
		c-0.478,0.281-0.775,0.681-0.894,1.201s-0.029,1.032,0.267,1.535c0.304,0.515,0.705,0.848,1.203,0.999
		c0.502,0.149,0.992,0.083,1.47-0.198c0.304-0.179,0.534-0.402,0.689-0.672c0.151-0.26,0.269-0.664,0.356-1.212l0.986,1.674
		c-0.357,0.569-0.795,1.006-1.309,1.309c-0.85,0.501-1.72,0.646-2.614,0.433c-0.896-0.215-1.585-0.732-2.067-1.551
		c-0.482-0.819-0.602-1.682-0.354-2.584c0.246-0.905,0.789-1.605,1.631-2.102C248.338,402.212,248.925,402.041,249.559,402.017z"/>
	<path fill="#FFFFFF" d="M249.11,398.888c-0.13-0.221-0.163-0.461-0.097-0.718c0.067-0.256,0.213-0.45,0.438-0.583
		c0.229-0.135,0.472-0.17,0.728-0.104c0.256,0.063,0.45,0.209,0.585,0.438s0.169,0.473,0.103,0.729
		c-0.063,0.254-0.208,0.449-0.438,0.584c-0.229,0.135-0.472,0.169-0.729,0.103C249.445,399.271,249.248,399.12,249.11,398.888z
		 M251.914,400.31l3.233,5.487l-1.268,0.747l-3.233-5.487L251.914,400.31z"/>
	<path fill="#FFFFFF" d="M257.564,396.979l1.273-0.75l3.233,5.488l-1.272,0.75l-0.339-0.574c-0.235,0.795-0.653,1.369-1.253,1.724
		c-0.76,0.447-1.548,0.543-2.367,0.286c-0.821-0.27-1.479-0.822-1.973-1.66c-0.484-0.822-0.643-1.653-0.474-2.491
		c0.169-0.839,0.623-1.476,1.362-1.911c0.639-0.377,1.367-0.451,2.185-0.225L257.564,396.979z M256.164,401.479
		c0.31,0.526,0.701,0.871,1.179,1.036c0.485,0.163,0.948,0.115,1.388-0.144c0.47-0.276,0.755-0.661,0.854-1.154
		c0.092-0.505-0.014-1.015-0.316-1.528c-0.304-0.516-0.698-0.854-1.186-1.019c-0.48-0.156-0.953-0.098-1.414,0.174
		c-0.436,0.258-0.703,0.637-0.801,1.14C255.773,400.489,255.873,400.987,256.164,401.479z"/>
	<path fill="#FFFFFF" d="M260.438,395.287l1.273-0.75l0.299,0.507c0.185-0.7,0.555-1.215,1.109-1.543
		c0.639-0.376,1.256-0.468,1.849-0.275c0.51,0.16,0.992,0.627,1.448,1.4l1.981,3.363l-1.272,0.75l-1.807-3.065
		c-0.318-0.54-0.613-0.868-0.885-0.987c-0.271-0.125-0.6-0.072-0.986,0.156c-0.422,0.248-0.637,0.563-0.65,0.943
		c-0.012,0.377,0.186,0.907,0.588,1.591l1.56,2.647l-1.272,0.75L260.438,395.287z"/>
	<path fill="#FFFFFF" d="M270.504,390.616l-0.719,1.175c-0.364-0.241-0.669-0.289-0.913-0.146c-0.116,0.068-0.193,0.166-0.23,0.291
		c-0.036,0.126-0.021,0.249,0.05,0.369c0.125,0.21,0.492,0.275,1.102,0.193c0.842-0.106,1.452-0.105,1.83,0
		c0.375,0.107,0.686,0.367,0.93,0.78c0.312,0.529,0.377,1.088,0.197,1.675c-0.181,0.563-0.539,1-1.076,1.316
		c-0.92,0.543-1.836,0.479-2.748-0.193l0.785-1.14c0.307,0.175,0.519,0.274,0.641,0.3c0.237,0.052,0.463,0.015,0.678-0.111
		c0.428-0.253,0.527-0.574,0.297-0.965c-0.133-0.226-0.422-0.339-0.868-0.338c-0.165,0.01-0.329,0.023-0.492,0.039
		s-0.329,0.029-0.498,0.043c-0.475,0.036-0.839,0.01-1.096-0.082c-0.327-0.117-0.597-0.355-0.809-0.717
		c-0.281-0.477-0.351-0.966-0.208-1.471c0.15-0.509,0.465-0.904,0.941-1.186C269,390.037,269.735,390.092,270.504,390.616z"/>
	<path fill="#FFFFFF" d="M280.06,380.028l0.917,1.556c-1.133-0.188-2.105-0.043-2.916,0.435c-0.895,0.527-1.458,1.291-1.691,2.295
		c-0.24,1.002-0.088,1.964,0.457,2.888c0.537,0.913,1.299,1.501,2.285,1.767c0.985,0.264,1.925,0.133,2.818-0.395
		c0.463-0.271,0.811-0.578,1.045-0.92c0.136-0.181,0.264-0.393,0.381-0.635c0.119-0.24,0.232-0.514,0.34-0.821l0.933,1.584
		c-0.501,0.866-1.165,1.543-1.991,2.029c-1.243,0.732-2.56,0.925-3.949,0.575c-1.392-0.359-2.451-1.157-3.179-2.393
		c-0.653-1.108-0.868-2.312-0.647-3.61c0.274-1.595,1.128-2.813,2.559-3.656C278.201,380.267,279.081,380.033,280.06,380.028z"/>
	<path fill="#FFFFFF" d="M284.426,384.796c-0.468-0.793-0.581-1.635-0.342-2.523c0.239-0.891,0.767-1.576,1.582-2.057
		c0.818-0.482,1.679-0.611,2.579-0.388c0.893,0.228,1.579,0.749,2.06,1.563c0.484,0.822,0.607,1.68,0.367,2.568
		c-0.245,0.889-0.783,1.578-1.613,2.066c-0.822,0.484-1.677,0.609-2.564,0.373C285.611,386.172,284.921,385.638,284.426,384.796z
		 M285.734,384.055c0.323,0.549,0.725,0.896,1.206,1.043c0.491,0.146,0.981,0.073,1.474-0.216c0.496-0.293,0.799-0.686,0.906-1.181
		c0.109-0.493,0.006-1.007-0.308-1.54s-0.714-0.873-1.198-1.017c-0.492-0.146-0.982-0.073-1.475,0.216
		c-0.484,0.286-0.782,0.679-0.893,1.179C285.338,383.039,285.434,383.544,285.734,384.055z"/>
	<path fill="#FFFFFF" d="M291.293,377.105l1.855,3.149c0.536,0.909,1.162,1.152,1.88,0.729s0.808-1.088,0.272-1.997l-1.855-3.149
		l1.268-0.747l1.873,3.178c0.258,0.439,0.428,0.85,0.506,1.233c0.063,0.349,0.033,0.713-0.092,1.095
		c-0.209,0.625-0.644,1.13-1.305,1.52c-0.658,0.387-1.309,0.522-1.957,0.402c-0.398-0.074-0.734-0.222-1.012-0.443
		c-0.256-0.193-0.532-0.542-0.828-1.045l-1.873-3.178L291.293,377.105z"/>
	<path fill="#FFFFFF" d="M296.313,374.147l1.273-0.75l0.299,0.507c0.185-0.7,0.555-1.215,1.109-1.542
		c0.639-0.377,1.256-0.469,1.85-0.276c0.509,0.16,0.992,0.627,1.447,1.4l1.982,3.363L303,377.6l-1.807-3.065
		c-0.317-0.54-0.613-0.868-0.885-0.987c-0.271-0.124-0.6-0.071-0.986,0.156c-0.421,0.248-0.637,0.563-0.65,0.944
		c-0.012,0.376,0.186,0.906,0.588,1.59l1.56,2.647l-1.272,0.75L296.313,374.147z"/>
	<path fill="#FFFFFF" d="M307.049,368.14l0.993,1.686c-0.497-0.183-0.899-0.272-1.206-0.27c-0.305-0.002-0.609,0.087-0.914,0.267
		c-0.477,0.28-0.775,0.681-0.893,1.201c-0.119,0.52-0.029,1.032,0.267,1.534c0.304,0.516,0.704,0.849,1.202,0.999
		c0.503,0.149,0.993,0.083,1.471-0.197c0.304-0.18,0.534-0.403,0.689-0.672c0.15-0.261,0.269-0.664,0.355-1.213l0.986,1.674
		c-0.357,0.57-0.794,1.006-1.309,1.31c-0.849,0.5-1.719,0.645-2.613,0.433c-0.896-0.216-1.586-0.733-2.068-1.552
		c-0.482-0.819-0.601-1.681-0.354-2.584c0.246-0.904,0.789-1.605,1.631-2.101C305.828,368.335,306.416,368.164,307.049,368.14z"/>
	<path fill="#FFFFFF" d="M306.602,365.011c-0.131-0.221-0.162-0.461-0.096-0.717c0.066-0.257,0.213-0.451,0.438-0.584
		c0.229-0.135,0.472-0.17,0.729-0.104c0.254,0.063,0.449,0.209,0.584,0.438c0.135,0.229,0.17,0.473,0.103,0.729
		c-0.063,0.254-0.208,0.449-0.437,0.584c-0.23,0.135-0.473,0.169-0.729,0.104S306.738,365.244,306.602,365.011z M309.405,366.433
		l3.233,5.487l-1.268,0.747l-3.233-5.487L309.405,366.433z"/>
	<path fill="#FFFFFF" d="M309.906,360.712l5.605,9.516l-1.268,0.746l-5.605-9.515L309.906,360.712z"/>
	<path fill="#FFFFFF" d="M318.779,364.553c-0.467-0.793-0.581-1.634-0.342-2.524c0.24-0.89,0.768-1.575,1.582-2.055
		c0.818-0.482,1.679-0.612,2.579-0.389c0.894,0.228,1.579,0.749,2.06,1.563c0.484,0.822,0.607,1.68,0.367,2.568
		c-0.245,0.889-0.783,1.577-1.613,2.066c-0.822,0.485-1.677,0.609-2.564,0.374C319.965,365.929,319.275,365.395,318.779,364.553z
		 M320.088,363.812c0.323,0.549,0.725,0.896,1.207,1.043c0.49,0.146,0.98,0.074,1.473-0.217c0.496-0.291,0.799-0.684,0.907-1.18
		c0.108-0.493,0.006-1.007-0.308-1.539c-0.314-0.534-0.715-0.874-1.199-1.018c-0.491-0.146-0.982-0.073-1.475,0.217
		c-0.484,0.285-0.781,0.678-0.892,1.178S319.787,363.301,320.088,363.812z"/>
	<path fill="#FFFFFF" d="M326.389,358.019l2.537,4.305l-1.273,0.75l-2.537-4.305l-0.45,0.266l-0.697-1.183l0.45-0.266l-1.247-2.118
		c-0.407-0.691-0.575-1.249-0.503-1.677c0.097-0.593,0.459-1.075,1.091-1.447c0.226-0.132,0.547-0.233,0.967-0.305l0.763,1.296
		l-0.168,0.009c-0.357,0.023-0.623,0.087-0.8,0.19c-0.226,0.133-0.329,0.303-0.313,0.512c0.014,0.204,0.154,0.531,0.42,0.981
		l1.064,1.809l1.381-0.813l0.697,1.183L326.389,358.019z"/>
	<path fill="#FFFFFF" d="M334.072,354.532l2.081,3.531l-1.313,0.774l-5.125-8.698l1.488-0.877c0.729-0.43,1.309-0.703,1.74-0.821
		c0.435-0.118,0.879-0.122,1.33-0.009c0.787,0.193,1.4,0.663,1.838,1.407c0.469,0.796,0.574,1.584,0.314,2.362
		c-0.258,0.781-0.84,1.438-1.745,1.971L334.072,354.532z M333.355,353.315l0.49-0.289c1.205-0.711,1.535-1.529,0.988-2.457
		c-0.529-0.898-1.416-0.98-2.658-0.248l-0.434,0.256L333.355,353.315z"/>
	<path fill="#FFFFFF" d="M337.596,349.821l1.268-0.747l0.289,0.49c0.09-0.381,0.197-0.67,0.324-0.866
		c0.129-0.203,0.318-0.378,0.57-0.526c0.334-0.196,0.748-0.293,1.24-0.29l0.104,1.502c-0.342-0.03-0.627,0.021-0.856,0.156
		c-0.69,0.407-0.729,1.133-0.114,2.177l1.677,2.845l-1.268,0.747L337.596,349.821z"/>
	<path fill="#FFFFFF" d="M345.956,344.896l1.272-0.75l3.234,5.486l-1.273,0.751l-0.338-0.574c-0.234,0.795-0.652,1.37-1.254,1.724
		c-0.759,0.447-1.547,0.543-2.365,0.287c-0.822-0.27-1.48-0.823-1.974-1.661c-0.485-0.822-0.643-1.653-0.474-2.491
		c0.168-0.838,0.623-1.476,1.363-1.912c0.638-0.376,1.366-0.449,2.184-0.223L345.956,344.896z M344.555,349.395
		c0.311,0.526,0.703,0.871,1.18,1.036c0.485,0.164,0.949,0.115,1.388-0.143c0.47-0.277,0.755-0.662,0.853-1.155
		c0.094-0.505-0.014-1.015-0.316-1.528c-0.303-0.516-0.697-0.854-1.184-1.019c-0.482-0.156-0.953-0.098-1.416,0.175
		c-0.436,0.257-0.703,0.637-0.801,1.139C344.166,348.404,344.265,348.902,344.555,349.395z"/>
	<path fill="#FFFFFF" d="M357.293,345.433c0.153,0.26,0.279,0.492,0.378,0.7c0.1,0.206,0.179,0.395,0.237,0.563
		c0.152,0.466,0.186,0.925,0.098,1.376c-0.159,0.863-0.674,1.551-1.541,2.062c-0.732,0.432-1.451,0.59-2.156,0.474
		c-0.728-0.117-1.34-0.513-1.838-1.186l1.273-0.751c0.207,0.241,0.411,0.403,0.61,0.482c0.464,0.187,0.948,0.133,1.452-0.164
		c0.928-0.546,1.055-1.389,0.385-2.526l-0.451-0.767c-0.2,0.812-0.629,1.409-1.287,1.797c-0.746,0.44-1.519,0.532-2.314,0.271
		c-0.803-0.265-1.447-0.809-1.932-1.632c-0.472-0.8-0.648-1.611-0.531-2.434c0.131-0.877,0.59-1.548,1.379-2.013
		c0.691-0.407,1.418-0.488,2.18-0.243l-0.366-0.62l1.269-0.747L357.293,345.433z M354.543,343.548
		c-0.314-0.534-0.709-0.877-1.182-1.027c-0.482-0.156-0.949-0.102-1.398,0.164c-0.481,0.283-0.756,0.685-0.823,1.206
		c-0.063,0.468,0.054,0.954,0.353,1.462c0.295,0.498,0.662,0.835,1.102,1.006c0.48,0.187,0.962,0.139,1.447-0.147
		c0.484-0.285,0.763-0.688,0.836-1.206C354.949,344.532,354.837,344.046,354.543,343.548z"/>
	<path fill="#FFFFFF" d="M357.004,338.386l1.855,3.149c0.535,0.909,1.162,1.151,1.879,0.729c0.718-0.423,0.809-1.089,0.273-1.998
		l-1.856-3.149l1.269-0.747l1.872,3.178c0.259,0.439,0.428,0.851,0.507,1.234c0.063,0.348,0.032,0.713-0.092,1.095
		c-0.209,0.624-0.645,1.13-1.305,1.519c-0.658,0.388-1.31,0.523-1.957,0.403c-0.398-0.074-0.735-0.222-1.013-0.444
		c-0.255-0.192-0.532-0.541-0.828-1.045l-1.872-3.178L357.004,338.386z"/>
	<path fill="#FFFFFF" d="M368.813,335.525l-3.932,2.317c0.299,0.431,0.656,0.703,1.072,0.816c0.414,0.11,0.824,0.047,1.23-0.192
		c0.314-0.187,0.531-0.415,0.65-0.688c0.114-0.27,0.182-0.683,0.201-1.241l1.423-0.034c0,0.379-0.032,0.723-0.099,1.032
		c-0.064,0.311-0.164,0.592-0.299,0.846c-0.134,0.252-0.305,0.481-0.514,0.686s-0.456,0.39-0.742,0.558
		c-0.818,0.482-1.63,0.606-2.436,0.374c-0.808-0.237-1.47-0.795-1.985-1.67c-0.511-0.867-0.685-1.711-0.521-2.531
		c0.172-0.815,0.658-1.459,1.459-1.93c0.807-0.477,1.598-0.595,2.371-0.356c0.766,0.236,1.416,0.806,1.949,1.712L368.813,335.525z
		 M366.9,335.256c-0.575-0.572-1.2-0.658-1.876-0.26c-0.154,0.091-0.284,0.199-0.392,0.325c-0.109,0.126-0.191,0.267-0.251,0.42
		c-0.059,0.153-0.091,0.315-0.097,0.486c-0.006,0.17,0.018,0.346,0.069,0.529L366.9,335.256z"/>
</g>
</svg>
