<?xml version="1.0" encoding="utf-8"?>
<!-- Generator: Adobe Illustrator 16.0.0, SVG Export Plug-In . SVG Version: 6.00 Build 0)  -->
<!DOCTYPE svg PUBLIC "-//W3C//DTD SVG 1.1//EN" "http://www.w3.org/Graphics/SVG/1.1/DTD/svg11.dtd">
<svg version="1.1" id="Layer_1" xmlns="http://www.w3.org/2000/svg" xmlns:xlink="http://www.w3.org/1999/xlink" x="0px" y="0px"
	 width="392px" height="456.669px" viewBox="0 0 392 456.669" enable-background="new 0 0 392 456.669" xml:space="preserve">
<g>
	<g>
		<polygon fill="#8E8E8E" points="196.39,451.207 2.782,339.425 2.782,115.866 196.39,4.084 390,115.866 390,339.425 		"/>
	</g>
</g>
<g enable-background="new    ">
	<g>
		<path fill="#FFFFFF" d="M196.386,39.464L33.175,133.559v188.184l163.211,94.084l163.222-94.084V133.559L196.386,39.464z
			 M352.998,317.95l-156.612,90.296L39.767,317.95V137.386l156.619-90.295l156.612,90.295V317.95z"/>
	</g>
</g>
<g>
	<g>
		<path fill="#FFFFFF" d="M180.694,400.923c0-11.509,0-23.018,0-34.526c0-1.612-2.5-1.612-2.5,0c0,11.509,0,23.018,0,34.526
			C178.194,402.535,180.694,402.535,180.694,400.923L180.694,400.923z"/>
	</g>
</g>
<g>
	<g>
		<path fill="#FFFFFF" d="M157.277,313.295c2.755,9.178,6.345,18.025,10.137,26.815c3.857,8.938,8.992,18.175,10.62,27.852
			c0.267,1.588,2.676,0.912,2.41-0.664c-1.474-8.765-5.971-17.171-9.491-25.271c-4.192-9.644-8.238-19.313-11.266-29.396
			C159.226,311.091,156.813,311.747,157.277,313.295L157.277,313.295z"/>
	</g>
</g>
<g>
	<g>
		<path fill="#FFFFFF" d="M159.562,313.154c-6.525-12.109-18.95-19.98-25.341-32.301c-0.571-1.103-3.94-11.967-0.083-10.948
			c2.998,0.792,5.745,4.669,7.69,6.848c5.704,6.393,10.79,13.695,17.699,18.879c2.044,1.533,4.684,2.858,7.275,2.085
			c2.688-0.804,4.125-3.662,3.034-6.142c-0.647-1.473-2.801-0.199-2.158,1.262c1.763,4.01-5.343,1.686-6.415,0.973
			c-3.625-2.413-6.586-5.99-9.433-9.234c-4.681-5.335-9.676-13.873-16.408-16.84c-7.646-3.369-5.071,10.453-3.821,13.405
			c5.565,13.146,19.136,20.906,25.802,33.275C158.168,315.836,160.326,314.573,159.562,313.154L159.562,313.154z"/>
	</g>
</g>
<g>
	<g>
		<path fill="#FFFFFF" d="M169.758,291.874c-1.693-11.908-8.221-23.402-12.708-34.427c-2.091-5.137-4.24-10.407-5.24-15.887
			c-1.396-7.647,5.375-3.749,8.385-0.199c8.158,9.624,11.195,22.632,16.784,33.719c1.416,2.809,3.781,8.88,7.178,9.974
			c4.136,1.331,3.258-6.187,3.114-8.056c-0.122-1.597-2.623-1.608-2.5,0c0.158,2.066,1.173,7.476-1.545,3.832
			c-1.611-2.161-2.857-4.623-4.089-7.012c-2.561-4.967-4.461-10.184-6.639-15.317c-2.646-6.236-10.758-27.582-20.871-23.885
			c-6.936,2.535,1.142,18.81,2.6,22.474c4.542,11.405,11.374,23.165,13.121,35.448C167.573,294.129,169.982,293.45,169.758,291.874
			L169.758,291.874z"/>
	</g>
</g>
<g>
	<g>
		<path fill="#FFFFFF" d="M179.679,221.178c-3.179,7.675-1.378,16.784,0.036,24.666c1.902,10.595,4.336,20.988,5.056,31.771
			c0.106,1.6,2.607,1.61,2.5,0c-0.636-9.521-2.43-18.844-4.32-28.175c-1.744-8.604-4.372-19.119-0.861-27.599
			C182.706,220.353,180.286,219.71,179.679,221.178L179.679,221.178z"/>
	</g>
</g>
<g>
	<g>
		<path fill="#FFFFFF" d="M181.768,222.394c9.104-7.188,13.74,25.534,14.674,30.622c1.242,6.765,1.411,13.649,2.398,20.452
			c0.504,3.476,1.742,11.513,7.037,9.873c1.535-0.475,0.88-2.889-0.664-2.41c-4.43,1.371-5.074-18.938-5.345-21.777
			c-0.548-5.735-1.794-11.474-2.937-17.115c-1.305-6.442-5.815-30.189-16.932-21.412
			C178.735,221.625,180.518,223.381,181.768,222.394L181.768,222.394z"/>
	</g>
</g>
<g>
	<g>
		<path fill="#FFFFFF" d="M206.018,283.02c3.125-3.822,4.266-8.88,5.212-13.615c1.391-6.961,2.004-14.079,2.784-21.127
			c0.697-6.303,1.223-12.907,3.404-18.911c0.55-1.512,1.651-3.896,3.619-3.568c3.871,0.646,4.426,6.999,4.725,9.95
			c0.762,7.516-0.19,15.186-0.703,22.688c-0.593,8.65-0.82,17.383-0.895,26.051c-0.076,8.895,0.061,18.219,2.652,26.802
			c0.679,2.249,1.647,5.736,3.853,7.028c2.524,1.479,5.344-0.969,7.203-2.414c1.271-0.988-0.511-2.744-1.768-1.768
			c-4.046,3.145-5.067,1.446-6.543-2.531c-0.646-1.74-1.06-3.55-1.438-5.363c-0.983-4.725-1.21-9.618-1.379-14.428
			c-0.335-9.563,0.218-19.136,0.595-28.688c0.301-7.618,1.175-15.206,1.136-22.838c-0.024-4.728-0.05-12.975-4.66-15.939
			c-8.955-5.761-10.81,12.035-11.443,16.818c-1,7.537-1.62,15.12-2.718,22.645c-0.827,5.668-1.645,12.842-5.404,17.441
			C203.238,282.488,204.996,284.269,206.018,283.02L206.018,283.02z"/>
	</g>
</g>
<g>
	<g>
		<path fill="#FFFFFF" d="M237.872,315.902c8.278-7.602,20.825-19.619,32.992-13.578c6.136,3.046-10.857,14.373-13.088,16.104
			c-8.38,6.501-12.397,16.601-17.886,25.389c-3.617,5.793-8.086,10.161-13.783,13.849c-3.877,2.509-6.991,5.348-7.861,10.044
			c-0.292,1.575,2.117,2.248,2.41,0.664c1.331-7.182,9.678-9.858,14.516-14.505c5.279-5.069,8.748-11.806,12.297-18.105
			c3.127-5.55,6.365-10.971,11.366-15.008c3.804-3.07,7.844-5.823,11.47-9.115c2.145-1.948,4.762-4.621,4.602-7.752
			c-0.168-3.259-4.214-4.496-6.754-5.158c-12.26-3.198-23.841,7.869-32.048,15.405C234.914,315.228,236.688,316.99,237.872,315.902
			L237.872,315.902z"/>
	</g>
</g>
<g>
	<g>
		<path fill="#FFFFFF" d="M218.064,367.904c-0.004,10.248-0.073,20.497-0.079,30.745c-0.001,1.612,2.499,1.612,2.5,0
			c0.006-10.248,0.075-20.497,0.079-30.745C220.564,366.292,218.064,366.292,218.064,367.904L218.064,367.904z"/>
	</g>
</g>
<g>
	<g>
		<path fill="#FFFFFF" d="M310.688,345.168c0-11.509,0-23.018,0-34.526c0-1.612-2.5-1.612-2.5,0c0,11.509,0,23.018,0,34.526
			C308.188,346.78,310.688,346.78,310.688,345.168L310.688,345.168z"/>
	</g>
</g>
<g>
	<g>
		<path fill="#FFFFFF" d="M329.194,256.876c-3.026,10.082-7.074,19.751-11.265,29.396c-3.521,8.101-8.019,16.507-9.492,25.271
			c-0.266,1.576,2.144,2.252,2.41,0.664c1.626-9.67,6.75-18.925,10.619-27.852c3.808-8.781,7.384-17.641,10.138-26.815
			C332.069,255.992,329.656,255.336,329.194,256.876L329.194,256.876z"/>
	</g>
</g>
<g>
	<g>
		<path fill="#FFFFFF" d="M331.479,258.661c6.518-12.093,18.95-19.979,25.341-32.301c1.519-2.927,4.791-17.309-3.062-14.506
			c-2.799,0.999-5.079,3.689-7.037,5.79c-3.176,3.405-6.098,7.046-9.142,10.567c-2.909,3.366-5.912,6.825-9.487,9.507
			c-1.209,0.907-2.65,1.83-4.188,1.988c-1.252,0.128-3.319-1.216-2.7-2.625c0.643-1.461-1.511-2.734-2.158-1.262
			c-1.078,2.451,0.208,4.949,2.687,5.995c2.483,1.047,5.079-0.225,7.148-1.603c7.04-4.686,12.189-12.375,17.685-18.66
			c2.211-2.528,4.544-5.374,7.479-7.089c4.266-2.492,1.61,8.404,1.078,9.659c-5.563,13.141-19.127,20.893-25.801,33.276
			C328.556,258.818,330.714,260.081,331.479,258.661L331.479,258.661z"/>
	</g>
</g>
<g>
	<g>
		<path fill="#FFFFFF" d="M321.534,236.783c1.744-12.262,8.54-24.08,13.12-35.448c1.474-3.657,9.527-19.941,2.602-22.474
			c-10.143-3.708-18.181,17.662-20.871,23.885c-2.087,4.824-3.875,9.732-6.204,14.453c-1.228,2.485-2.562,4.923-4.083,7.241
			c-2.938,4.476-2.203-0.362-1.986-3.197c0.123-1.608-2.378-1.597-2.5,0c-0.104,1.36-1,9.38,2.797,8.157
			c3.44-1.107,5.533-6.341,7.05-9.211c5.761-10.903,8.954-22.924,16.112-33.122c2.118-3.018,10.254-10.199,9.633-2.223
			c-0.42,5.387-2.988,10.875-4.959,15.825c-4.541,11.405-11.374,23.166-13.12,35.449
			C318.899,237.695,321.309,238.374,321.534,236.783L321.534,236.783z"/>
	</g>
</g>
<g>
	<g>
		<path fill="#FFFFFF" d="M306.793,166.087c3.52,8.499,0.854,18.973-0.861,27.599c-1.857,9.343-3.685,18.646-4.32,28.175
			c-0.107,1.61,2.394,1.6,2.5,0c0.719-10.768,3.074-21.201,5.055-31.771c1.47-7.845,3.201-17.027,0.037-24.666
			C308.596,163.955,306.176,164.598,306.793,166.087L306.793,166.087z"/>
	</g>
</g>
<g>
	<g>
		<path fill="#FFFFFF" d="M308.882,164.871c-10.89-8.598-15.36,14.043-16.734,20.464c-1.205,5.627-2.393,11.388-3.036,17.11
			c-0.33,2.938-0.951,24.12-5.442,22.73c-1.544-0.479-2.199,1.936-0.664,2.41c9.14,2.829,8.416-25.073,9.332-29.775
			c0.998-5.125,5.604-38.414,14.777-31.172C308.365,167.626,310.146,165.869,308.882,164.871L308.882,164.871z"/>
	</g>
</g>
<g>
	<g>
		<path fill="#FFFFFF" d="M262.945,184.06c-0.357,0.028-0.717,0.029-1.072-0.025c-0.228,0.007-0.605,0.061-1.079,0.281
			c-0.129,0.061-0.254,0.127-0.382,0.188c-0.145,7.281,0.845,14.531,1.09,21.8c0.318,9.437,0.843,18.853,0.673,28.3
			c-0.089,4.912-0.413,9.83-1.196,14.684c-0.306,1.893-0.77,3.75-1.323,5.583c-0.42,1.391-0.986,2.767-1.594,4.082
			c-1.24,2.683-3.741,0.628-5.284-0.571c-1.257-0.977-3.039,0.779-1.768,1.768c5.7,4.431,8.373,2.694,10.721-3.635
			c3.039-8.191,2.961-17.707,2.991-26.311c0.032-8.857-0.346-17.762-0.84-26.605C263.518,197.079,262.829,190.581,262.945,184.06z"
			/>
	</g>
	<g>
		<path fill="#FFFFFF" d="M284.632,225.497c-3.581-4.38-4.385-11.037-5.249-16.428c-1.206-7.52-1.779-15.129-2.743-22.68
			c-0.301-2.354-0.727-7.299-1.994-11.527c-0.661,0.487-1.326,0.969-1.999,1.441c-0.045,0.035-0.09,0.068-0.134,0.104
			c1.44,4.824,1.698,10.331,2.238,15.068c0.808,7.086,1.47,14.192,2.722,21.218c0.895,5.022,2.087,10.529,5.392,14.571
			C283.886,228.514,285.644,226.733,284.632,225.497z"/>
	</g>
</g>
<g>
	<g>
		<path fill="#FFFFFF" d="M227.873,244.91c8.771,1.698,17.681,10.228,23.137,15.237c1.185,1.088,2.958-0.676,1.768-1.768
			c-6.857-6.297-15.229-14.1-24.77-15.579C227.979,243.505,227.933,244.208,227.873,244.91z"/>
	</g>
	<g>
		<path fill="#FFFFFF" d="M256.967,300.445c0.812-0.476,1.915-0.63,2.989-0.703c-4.239-3.311-7.785-6.805-10.966-11.681
			c-5.712-8.76-9.479-18.756-17.885-25.389c-0.76-0.6-2.706-1.92-4.927-3.575c-0.115,0.873-0.271,1.743-0.469,2.608
			c1.457,1.091,2.917,2.174,4.337,3.295c5.041,3.978,8.227,9.492,11.366,15.007c3.644,6.399,7.162,12.754,12.297,18.105
			c0.888,0.926,1.904,1.753,2.978,2.536C256.781,300.582,256.867,300.504,256.967,300.445z"/>
	</g>
</g>
<g>
	<g>
		<path fill="#FFFFFF" d="M268.317,312.149c0,18.372,0,36.743,0,55.115c0,1.612,2.5,1.612,2.5,0c0-18.372,0-36.743,0-55.115
			C270.817,310.537,268.317,310.537,268.317,312.149L268.317,312.149z"/>
	</g>
</g>
<g>
	<g>
		<path fill="#FFFFFF" d="M172.343,260.336c0.234,1.003,0.527,1.985,0.845,2.96v-40.654c0-1.612-2.5-1.612-2.5,0v35.336
			C171.456,258.43,172.074,259.188,172.343,260.336z"/>
	</g>
	<g>
		<path fill="#FFFFFF" d="M170.688,346.477v48.691c0,1.612,2.5,1.612,2.5,0v-44.614
			C172.351,349.196,171.515,347.839,170.688,346.477z"/>
	</g>
</g>
<g>
	<g>
		<path fill="#FFFFFF" d="M191.694,168.876c-3.026,10.082-7.074,19.751-11.265,29.396c-3.521,8.101-8.019,16.507-9.492,25.271
			c-0.266,1.576,2.144,2.252,2.41,0.664c1.626-9.67,6.75-18.925,10.619-27.852c3.808-8.781,7.384-17.641,10.138-26.815
			C194.569,167.992,192.156,167.336,191.694,168.876L191.694,168.876z"/>
	</g>
</g>
<g>
	<g>
		<path fill="#FFFFFF" d="M193.979,170.661c6.518-12.093,18.95-19.979,25.341-32.301c1.519-2.927,4.791-17.309-3.062-14.506
			c-2.799,0.999-5.079,3.689-7.037,5.79c-3.176,3.405-6.098,7.046-9.142,10.567c-2.909,3.366-5.912,6.825-9.487,9.507
			c-1.209,0.907-2.65,1.83-4.188,1.988c-1.252,0.128-3.319-1.216-2.7-2.625c0.643-1.461-1.511-2.734-2.158-1.262
			c-1.078,2.451,0.208,4.949,2.687,5.995c2.483,1.047,5.079-0.225,7.148-1.603c7.04-4.686,12.189-12.375,17.685-18.66
			c2.211-2.528,4.544-5.374,7.479-7.089c4.266-2.492,1.61,8.404,1.078,9.659c-5.563,13.141-19.127,20.893-25.801,33.276
			C191.056,170.818,193.214,172.081,193.979,170.661L193.979,170.661z"/>
	</g>
</g>
<g>
	<g>
		<path fill="#FFFFFF" d="M184.034,148.783c1.744-12.262,8.54-24.08,13.12-35.448c1.474-3.657,9.527-19.941,2.602-22.474
			c-10.143-3.708-18.181,17.662-20.871,23.885c-2.087,4.824-3.875,9.732-6.204,14.453c-1.228,2.485-2.562,4.923-4.083,7.241
			c-2.938,4.476-2.203-0.362-1.986-3.197c0.123-1.608-2.378-1.597-2.5,0c-0.104,1.36-1,9.38,2.797,8.157
			c3.44-1.107,5.533-6.341,7.05-9.211c5.761-10.903,8.954-22.924,16.112-33.122c2.118-3.018,10.254-10.199,9.633-2.223
			c-0.42,5.387-2.988,10.875-4.959,15.825c-4.541,11.405-11.374,23.166-13.12,35.449
			C181.399,149.695,183.809,150.374,184.034,148.783L184.034,148.783z"/>
	</g>
</g>
<g>
	<g>
		<path fill="#FFFFFF" d="M169.293,78.087c3.52,8.499,0.854,18.973-0.861,27.599c-1.857,9.343-3.685,18.646-4.32,28.175
			c-0.107,1.61,2.394,1.6,2.5,0c0.719-10.768,3.074-21.201,5.055-31.771c1.47-7.845,3.201-17.027,0.037-24.666
			C171.096,75.955,168.676,76.598,169.293,78.087L169.293,78.087z"/>
	</g>
</g>
<g>
	<g>
		<path fill="#FFFFFF" d="M171.382,76.871c-10.89-8.598-15.36,14.043-16.734,20.464c-1.205,5.627-2.393,11.388-3.036,17.11
			c-0.33,2.938-0.951,24.12-5.442,22.73c-1.544-0.479-2.199,1.936-0.664,2.41c9.14,2.829,8.416-25.073,9.332-29.775
			c0.998-5.125,5.604-38.414,14.777-31.172C170.865,79.626,172.646,77.869,171.382,76.871L171.382,76.871z"/>
	</g>
</g>
<g>
	<g>
		<path fill="#FFFFFF" d="M147.132,137.497c-3.581-4.38-4.385-11.037-5.249-16.429c-1.206-7.519-1.779-15.128-2.743-22.679
			c-0.651-5.103-1.884-22.375-11.015-18.157c-4.92,2.272-5.031,10.698-5.195,15.134c-0.282,7.664,0.814,15.29,1.072,22.937
			c0.318,9.437,0.844,18.854,0.673,28.3c-0.089,4.912-0.413,9.83-1.196,14.683c-0.307,1.893-0.77,3.75-1.323,5.584
			c-0.42,1.391-0.986,2.768-1.594,4.082c-1.24,2.683-3.741,0.628-5.284-0.571c-1.256-0.977-3.039,0.779-1.768,1.768
			c5.701,4.431,8.373,2.694,10.721-3.635c3.039-8.191,2.961-17.707,2.991-26.311c0.032-8.858-0.346-17.762-0.84-26.605
			c-0.44-7.871-1.371-15.713-0.762-23.604c0.301-3.896,4.157-14.941,7.991-7.214c2.733,5.508,2.957,12.718,3.64,18.697
			c0.808,7.085,1.47,14.192,2.722,21.218c0.895,5.021,2.087,10.529,5.392,14.571C146.385,140.514,148.144,138.733,147.132,137.497
			L147.132,137.497z"/>
	</g>
</g>
<g>
	<g>
		<path fill="#FFFFFF" d="M133.136,223.954c-0.792-4.277-3.357-6.903-6.819-9.35c-6.028-4.262-10.725-8.255-14.826-14.543
			c-0.7-1.072-1.366-2.166-2.02-3.268c-0.04,1.046-0.487,2.001-1.198,2.698c2.313,3.766,4.826,7.379,7.938,10.621
			c4.741,4.942,13.144,7.1,14.516,14.505C131.019,226.202,133.428,225.529,133.136,223.954z"/>
	</g>
	<g>
		<path fill="#FFFFFF" d="M115.277,170.38c-8.552-7.853-19.456-18.058-32.049-15.405c-8.651,1.821-7.458,7.862-2.151,12.909
			c3.533,3.361,7.65,6.102,11.47,9.117c1.899,1.498,3.529,3.221,4.998,5.074c0.136-0.906,0.575-1.719,1.222-2.325
			c-1.527-1.834-3.221-3.546-5.161-5.077c-2.589-2.043-18.951-12.436-13.088-16.104c11.265-7.05,25.438,6.643,32.992,13.578
			C114.694,173.235,116.468,171.472,115.277,170.38z"/>
	</g>
</g>
<g>
	<g>
		<path fill="#FFFFFF" d="M133.317,268.897v-44.748c0-1.612-2.5-1.612-2.5,0v46.65C131.3,269.811,132.242,269.159,133.317,268.897z"
			/>
	</g>
	<g>
		<path fill="#FFFFFF" d="M132.907,281.728c-0.061-0.06-0.103-0.127-0.157-0.188c-0.789-0.733-1.298-1.76-1.265-2.89
			c0.008-0.249,0.037-0.523,0.068-0.803c0.007-0.056,0.012-0.111,0.02-0.167c0.015-0.13,0.026-0.256,0.039-0.385
			c-0.211-0.459-0.338-0.957-0.362-1.477c-0.131-0.398-0.291-0.876-0.433-1.396v98.842c0,1.612,2.5,1.612,2.5,0v-91.127
			C133.181,282.001,133.044,281.864,132.907,281.728z"/>
	</g>
</g>
<g>
	<g>
		<path fill="#FFFFFF" d="M61.671,334.195c0.123,0.083,0.235,0.174,0.356,0.257c0.285,0.072,0.565,0.186,0.838,0.332v-15.143
			c0-1.612-2.5-1.612-2.5,0v13.99C60.8,333.725,61.239,333.901,61.671,334.195z"/>
	</g>
</g>
<g>
	<g>
		<path fill="#FFFFFF" d="M39.448,266.54c2.755,9.178,6.345,18.025,10.138,26.815c3.856,8.938,8.992,18.175,10.619,27.852
			c0.267,1.588,2.676,0.912,2.41-0.664c-1.474-8.765-5.971-17.172-9.492-25.271c-4.191-9.644-8.238-19.313-11.265-29.396
			C41.396,264.336,38.983,264.992,39.448,266.54L39.448,266.54z"/>
	</g>
</g>
<g>
	<g>
		<path fill="#FFFFFF" d="M38.822,261.754c-0.056,1.462-0.105,2.925-0.137,4.389c0.302,0.502,0.609,1.001,0.889,1.519
			c0.765,1.42,2.923,0.157,2.158-1.262C40.86,264.78,39.877,263.242,38.822,261.754z"/>
	</g>
	<g>
		<path fill="#FFFFFF" d="M52.008,244.82c-0.647-1.473-2.801-0.199-2.158,1.262c1.763,4.01-5.343,1.686-6.415,0.973
			c-1.544-1.027-2.963-2.272-4.308-3.606c0.054,1.14,0.085,2.28,0.099,3.422c0.8,0.696,1.622,1.368,2.473,2.007
			c2.044,1.533,4.684,2.858,7.275,2.085C51.662,250.158,53.099,247.3,52.008,244.82z"/>
	</g>
</g>
<g>
	<g>
		<path fill="#FFFFFF" d="M39.221,210.692c-0.753-1.849-1.511-3.716-2.223-5.604c-0.073,1.889-0.204,3.772-0.434,5.652
			c4.54,11.278,11.228,22.904,12.954,35.042c0.227,1.591,2.635,0.912,2.41-0.664C50.235,233.211,43.708,221.716,39.221,210.692z"/>
	</g>
	<g>
		<path fill="#FFFFFF" d="M69.441,230.243c-0.122-1.597-2.623-1.608-2.5,0c0.158,2.066,1.173,7.476-1.545,3.832
			c-1.611-2.161-2.856-4.623-4.089-7.012c-2.561-4.967-4.461-10.184-6.639-15.318c-2.271-5.35-8.566-21.811-16.697-24.045
			c-0.02,1.105-0.063,2.209-0.115,3.313c1.604,0.787,3.34,2.215,4.509,3.594c8.158,9.625,11.195,22.632,16.784,33.719
			c1.416,2.809,3.781,8.88,7.178,9.974C70.463,239.63,69.585,232.112,69.441,230.243z"/>
	</g>
</g>
<g>
	<g>
		<path fill="#FFFFFF" d="M61.85,174.423c-3.179,7.675-1.378,16.784,0.037,24.666c1.901,10.595,4.335,20.988,5.055,31.771
			c0.106,1.6,2.607,1.61,2.5,0c-0.635-9.521-2.43-18.844-4.32-28.175c-1.744-8.604-4.372-19.119-0.861-27.599
			C64.877,173.598,62.457,172.955,61.85,174.423L61.85,174.423z"/>
	</g>
</g>
<g>
	<g>
		<path fill="#FFFFFF" d="M63.938,175.639c9.104-7.188,13.74,25.534,14.674,30.622c1.242,6.765,1.411,13.649,2.397,20.452
			c0.505,3.476,1.743,11.513,7.038,9.873c1.535-0.475,0.88-2.889-0.664-2.41c-4.43,1.371-5.073-18.938-5.345-21.777
			c-0.548-5.735-1.794-11.474-2.937-17.115c-1.304-6.442-5.815-30.188-16.932-21.412C60.906,174.869,62.688,176.626,63.938,175.639
			L63.938,175.639z"/>
	</g>
</g>
<g>
	<g>
		<path fill="#FFFFFF" d="M88.188,236.265c3.125-3.822,4.267-8.88,5.212-13.615c1.391-6.961,2.004-14.079,2.784-21.127
			c0.698-6.303,1.223-12.907,3.405-18.911c0.549-1.513,1.65-3.897,3.618-3.569c3.872,0.646,4.426,7,4.725,9.95
			c0.762,7.516-0.19,15.186-0.704,22.688c-0.592,8.651-0.82,17.383-0.894,26.052c-0.076,8.895,0.06,18.219,2.651,26.802
			c0.68,2.249,1.648,5.736,3.854,7.027c2.524,1.479,5.344-0.968,7.203-2.413c1.271-0.988-0.512-2.744-1.768-1.768
			c-4.046,3.145-5.067,1.446-6.543-2.531c-0.646-1.741-1.061-3.55-1.438-5.363c-0.983-4.725-1.211-9.618-1.379-14.428
			c-0.335-9.563,0.218-19.136,0.595-28.688c0.301-7.618,1.175-15.206,1.136-22.838c-0.024-4.728-0.051-12.975-4.66-15.94
			c-8.955-5.762-10.809,12.036-11.443,16.819c-1,7.537-1.621,15.119-2.718,22.645c-0.827,5.668-1.645,12.843-5.404,17.441
			C85.409,235.733,87.168,237.514,88.188,236.265L88.188,236.265z"/>
	</g>
</g>
<g>
	<g>
		<path fill="#FFFFFF" d="M132.907,281.728c-0.061-0.06-0.103-0.127-0.157-0.188c-0.339-0.315-0.612-0.692-0.827-1.101
			c-3.641,5.271-6.472,11.196-9.861,16.623c-3.617,5.793-8.086,10.161-13.783,13.849c-3.877,2.509-6.991,5.348-7.861,10.044
			c-0.292,1.575,2.117,2.248,2.41,0.664c1.331-7.182,9.678-9.858,14.516-14.505c5.279-5.069,8.748-11.806,12.297-18.105
			c1.265-2.245,2.555-4.463,3.965-6.582C133.372,282.193,133.14,281.961,132.907,281.728z"/>
	</g>
	<g>
		<path fill="#FFFFFF" d="M133.128,256.588c-0.059-0.364-0.07-0.726-0.058-1.083c-5.565,3.318-10.62,8.042-14.795,11.875
			c-1.19,1.093,0.583,2.855,1.768,1.768c3.718-3.413,8.302-7.7,13.319-10.859C133.296,257.721,133.221,257.154,133.128,256.588z"/>
	</g>
</g>
<g>
	<g>
		<path fill="#FFFFFF" d="M100.235,321.149c0,11.372,0,22.743,0,34.115c0,1.612,2.5,1.612,2.5,0c0-11.372,0-22.743,0-34.115
			C102.735,319.537,100.235,319.537,100.235,321.149L100.235,321.149z"/>
	</g>
</g>
<g>
	<g>
		<path fill="#FFFFFF" d="M218.865,225.668c0-11.509,0-23.018,0-34.526c0-1.612-2.5-1.612-2.5,0c0,11.509,0,23.018,0,34.526
			C216.365,227.28,218.865,227.28,218.865,225.668L218.865,225.668z"/>
	</g>
</g>
<g>
	<g>
		<path fill="#FFFFFF" d="M197.781,144.13c0.467-0.735,1.075-1.246,1.745-1.561c-0.58-1.721-1.145-3.449-1.668-5.193
			c-0.462-1.54-2.875-0.884-2.41,0.664c0.655,2.186,1.361,4.351,2.104,6.502C197.625,144.404,197.695,144.267,197.781,144.13z"/>
	</g>
	<g>
		<path fill="#FFFFFF" d="M218.616,192.043c-1.475-8.765-5.972-17.172-9.492-25.271c-1.731-3.982-3.433-7.972-5.053-11.99
			c-0.523,0.285-1.102,0.517-1.772,0.726c-0.19,0.059-0.385,0.09-0.579,0.114c1.247,3.093,2.542,6.167,3.865,9.234
			c3.857,8.938,8.992,18.175,10.619,27.852C216.472,194.295,218.88,193.619,218.616,192.043z"/>
	</g>
</g>
<g>
	<g>
		<path fill="#FFFFFF" d="M197.732,137.899c-1.956-3.63-4.448-6.875-7.145-9.977c-0.437,0.801-0.878,1.599-1.324,2.395
			c2.392,2.756,4.586,5.644,6.311,8.844C196.339,140.581,198.497,139.318,197.732,137.899z"/>
	</g>
	<g>
		<path fill="#FFFFFF" d="M178.598,114.696c-2.347-2.826-4.495-5.801-6.206-9.098c-0.261-0.504-1.106-3.05-1.579-5.566
			c-0.388,1.656-0.858,3.3-1.366,4.925c0.113,0.369,0.225,0.688,0.326,0.928c1.813,4.28,4.479,7.986,7.473,11.47
			C177.677,116.46,178.127,115.574,178.598,114.696z"/>
	</g>
	<g>
		<path fill="#FFFFFF" d="M179.999,101.498c1.324,1.484,2.615,3.021,3.904,4.564c0.536-0.784,1.08-1.563,1.635-2.338
			c-3.465-4.478-7.289-9.192-11.944-11.244c-0.727-0.32-1.36-0.483-1.911-0.517c0.018,0.145,0.049,0.28,0.053,0.436
			c0.017,0.731-0.004,1.463-0.054,2.193c0.184-0.021,0.392-0.004,0.627,0.058C175.306,95.442,178.054,99.319,179.999,101.498z"/>
	</g>
	<g>
		<path fill="#FFFFFF" d="M208.008,116.32c-0.647-1.473-2.801-0.199-2.158,1.262c1.763,4.01-5.343,1.686-6.415,0.973
			c-1.131-0.753-2.19-1.63-3.208-2.564c-0.304,0.812-0.618,1.617-0.953,2.413c0.785,0.685,1.59,1.348,2.425,1.974
			c2.044,1.533,4.684,2.858,7.275,2.085C207.662,121.658,209.099,118.8,208.008,116.32z"/>
	</g>
</g>
<g>
	<g>
		<path fill="#FFFFFF" d="M225.441,101.743c-0.122-1.597-2.623-1.608-2.5,0c0.158,2.066,1.173,7.476-1.545,3.832
			c-1.611-2.161-2.856-4.623-4.089-7.012c-2.561-4.967-4.461-10.184-6.639-15.318c-2.646-6.235-10.758-27.581-20.871-23.884
			c-6.936,2.535,1.142,18.81,2.6,22.474c1.428,3.583,3.08,7.201,4.73,10.86c1.008,0.112,1.887,0.402,2.663,1.16
			c0.765,0.745,1.26,1.841,1.21,2.92c-0.045,0.989-0.388,1.852-0.951,2.559c2.475,5.868,4.601,11.844,5.469,17.949
			c0.227,1.591,2.635,0.912,2.41-0.664c-1.693-11.908-8.221-23.403-12.708-34.427c-2.091-5.137-4.24-10.407-5.24-15.887
			c-1.396-7.647,5.375-3.749,8.385-0.199c8.158,9.625,11.195,22.632,16.784,33.719c1.416,2.809,3.781,8.88,7.178,9.974
			C226.463,111.13,225.585,103.612,225.441,101.743z"/>
	</g>
</g>
<g>
	<g>
		<path fill="#FFFFFF" d="M218.613,54.103c-0.514-0.527-1.011-1.066-1.465-1.635c-0.285-0.127-0.57-0.236-0.854-0.344
			c-0.712,6.106,0.544,12.623,1.592,18.465c1.902,10.595,4.336,20.988,5.056,31.771c0.106,1.6,2.607,1.61,2.5,0
			c-0.636-9.521-2.43-18.844-4.32-28.175C219.866,67.989,218.163,60.806,218.613,54.103z"/>
	</g>
</g>
<g>
	<g>
		<path fill="#FFFFFF" d="M243.384,105.676c-4.43,1.371-5.074-18.938-5.345-21.776c-0.548-5.736-1.794-11.475-2.937-17.116
			c-0.057-0.282-0.123-0.606-0.192-0.95c-0.532-0.431-1.063-0.861-1.595-1.292c-0.475-0.284-0.944-0.573-1.417-0.858
			c1.468,6.213,2.358,12.144,2.714,14.078c1.242,6.765,1.411,13.649,2.398,20.452c0.504,3.476,1.742,11.513,7.037,9.873
			C245.583,107.611,244.928,105.197,243.384,105.676z"/>
	</g>
</g>
<g>
	<g>
		<path fill="#FFFFFF" d="M250.967,77.104c-0.552-0.29-1.09-0.602-1.63-0.909c-0.454,4.126-0.912,8.252-1.512,12.361
			c-0.826,5.668-1.645,12.842-5.404,17.441c-1.012,1.236,0.746,3.017,1.768,1.768c3.125-3.822,4.266-8.88,5.212-13.615
			c1.103-5.521,1.717-11.139,2.313-16.743C251.465,77.329,251.216,77.234,250.967,77.104z"/>
	</g>
	<g>
		<path fill="#FFFFFF" d="M274.275,138.88c-4.046,3.145-5.067,1.446-6.542-2.531c-0.646-1.74-1.061-3.55-1.438-5.363
			c-0.983-4.725-1.21-9.618-1.379-14.428c-0.335-9.563,0.218-19.136,0.595-28.688c0.06-1.503,0.145-3.004,0.236-4.505
			c-0.798-0.581-1.599-1.181-2.398-1.792c-0.04,0.535-0.083,1.072-0.119,1.607c-0.592,8.65-0.82,17.383-0.895,26.051
			c-0.076,8.895,0.061,18.219,2.652,26.802c0.679,2.249,1.648,5.736,3.853,7.028c2.524,1.479,5.343-0.969,7.203-2.414
			C277.315,139.659,275.532,137.903,274.275,138.88z"/>
	</g>
</g>
<g>
	<g>
		<path fill="#FFFFFF" d="M276.043,140.647c8.278-7.602,20.825-19.619,32.992-13.578c6.136,3.046-10.857,14.373-13.088,16.104
			c-8.38,6.501-12.397,16.601-17.886,25.389c-3.617,5.793-8.086,10.161-13.783,13.849c-3.877,2.509-6.991,5.348-7.861,10.044
			c-0.292,1.575,2.117,2.248,2.41,0.664c1.331-7.182,9.678-9.858,14.516-14.505c5.279-5.069,8.748-11.806,12.297-18.105
			c3.127-5.55,6.365-10.971,11.366-15.008c3.804-3.07,7.845-5.823,11.47-9.115c2.145-1.948,4.762-4.621,4.602-7.752
			c-0.168-3.259-4.213-4.496-6.754-5.158c-12.26-3.198-23.841,7.869-32.048,15.405C273.085,139.973,274.858,141.735,276.043,140.647
			L276.043,140.647z"/>
	</g>
</g>
<g>
	<g>
		<path fill="#FFFFFF" d="M256.235,192.649c0,11.372,0,56.743,0,68.115c0,1.612,2.5,1.612,2.5,0c0-11.372,0-56.743,0-68.115
			C258.735,191.037,256.235,191.037,256.235,192.649L256.235,192.649z"/>
	</g>
</g>
<g>
	<path fill="#FFFFFF" d="M35.756,106.047l7.617,6.023l-1.333-9.639l1.862-1.071l1.915,15.04l-11.925-9.282L35.756,106.047z"/>
	<path fill="#FFFFFF" d="M49.067,108.6c-0.591-1.028-0.726-2.114-0.404-3.258c0.32-1.144,1.01-2.02,2.066-2.628
		c1.062-0.61,2.171-0.767,3.328-0.468c1.149,0.307,2.027,0.988,2.635,2.045c0.613,1.066,0.76,2.172,0.439,3.316
		c-0.328,1.142-1.03,2.022-2.107,2.642c-1.066,0.614-2.17,0.762-3.312,0.446C50.577,110.389,49.695,109.69,49.067,108.6z
		 M50.767,107.662c0.408,0.711,0.922,1.165,1.539,1.359c0.631,0.195,1.266,0.109,1.903-0.258c0.644-0.37,1.038-0.874,1.185-1.509
		s0.021-1.298-0.377-1.99c-0.398-0.691-0.908-1.134-1.531-1.326c-0.631-0.195-1.266-0.109-1.903,0.258
		c-0.628,0.361-1.017,0.864-1.165,1.507C50.269,106.347,50.385,106.999,50.767,107.662z"/>
	<path fill="#FFFFFF" d="M55.02,93.556l7.099,12.34l-1.645,0.946l-7.098-12.34L55.02,93.556z"/>
	<path fill="#FFFFFF" d="M61.751,96.636l2.35,4.084c0.678,1.179,1.482,1.501,2.412,0.966s1.057-1.393,0.379-2.571l-2.35-4.084
		l1.644-0.946l2.37,4.121c0.328,0.57,0.541,1.103,0.638,1.598c0.077,0.449,0.032,0.918-0.133,1.408
		c-0.278,0.803-0.845,1.45-1.702,1.943c-0.854,0.49-1.695,0.654-2.528,0.49c-0.512-0.101-0.944-0.295-1.299-0.584
		c-0.327-0.254-0.679-0.707-1.054-1.359l-2.371-4.119L61.751,96.636z"/>
	<path fill="#FFFFFF" d="M68.261,92.891l1.651-0.949l0.378,0.656c0.247-0.899,0.73-1.557,1.451-1.972
		c0.828-0.477,1.623-0.587,2.387-0.332c0.654,0.213,1.27,0.821,1.847,1.824l2.509,4.362l-1.65,0.95l-2.286-3.975
		c-0.403-0.701-0.779-1.13-1.128-1.286c-0.348-0.163-0.771-0.101-1.273,0.188c-0.546,0.314-0.83,0.718-0.852,1.209
		c-0.02,0.484,0.227,1.17,0.736,2.057l1.976,3.434l-1.651,0.95L68.261,92.891z"/>
	<path fill="#FFFFFF" d="M79.044,88.729l3.211,5.582l-1.645,0.946l-3.211-5.582l-0.701,0.403l-0.883-1.534l0.701-0.403l-1.5-2.608
		l1.644-0.946l1.501,2.608l1.277-0.735l0.883,1.534L79.044,88.729z"/>
	<path fill="#FFFFFF" d="M89.308,86.034l-5.1,2.934c0.379,0.56,0.837,0.915,1.373,1.067c0.531,0.148,1.061,0.07,1.587-0.232
		c0.409-0.234,0.691-0.527,0.847-0.875c0.151-0.348,0.244-0.88,0.277-1.6l1.833-0.024c-0.003,0.489-0.05,0.932-0.14,1.329
		c-0.088,0.398-0.221,0.761-0.396,1.086c-0.176,0.324-0.4,0.616-0.672,0.877s-0.592,0.497-0.963,0.71
		c-1.062,0.61-2.11,0.76-3.146,0.448c-1.038-0.317-1.884-1.043-2.536-2.178c-0.648-1.125-0.859-2.216-0.637-3.271
		c0.232-1.047,0.868-1.87,1.906-2.467c1.047-0.603,2.066-0.746,3.06-0.429c0.985,0.315,1.815,1.06,2.491,2.234L89.308,86.034z
		 M86.847,85.66c-0.734-0.745-1.539-0.865-2.416-0.361c-0.199,0.115-0.369,0.253-0.51,0.416c-0.141,0.161-0.249,0.341-0.326,0.537
		c-0.079,0.197-0.122,0.406-0.133,0.626c-0.01,0.219,0.018,0.446,0.082,0.683L86.847,85.66z"/>
	<path fill="#FFFFFF" d="M97.585,81.272l-5.1,2.934c0.38,0.56,0.838,0.915,1.373,1.067c0.531,0.147,1.061,0.07,1.587-0.232
		c0.409-0.234,0.692-0.527,0.848-0.876c0.151-0.348,0.243-0.879,0.276-1.599l1.834-0.024c-0.004,0.488-0.051,0.931-0.14,1.329
		s-0.221,0.76-0.397,1.085c-0.176,0.325-0.4,0.616-0.671,0.878c-0.272,0.26-0.593,0.497-0.963,0.71
		c-1.062,0.61-2.11,0.759-3.146,0.447c-1.039-0.316-1.885-1.043-2.537-2.178c-0.647-1.125-0.859-2.216-0.637-3.271
		c0.232-1.048,0.869-1.87,1.906-2.468c1.047-0.603,2.066-0.745,3.061-0.428c0.984,0.314,1.814,1.06,2.49,2.233L97.585,81.272z
		 M95.124,80.898c-0.734-0.745-1.539-0.865-2.415-0.361c-0.2,0.115-0.37,0.253-0.51,0.415c-0.142,0.162-0.25,0.342-0.327,0.538
		c-0.078,0.197-0.121,0.406-0.132,0.625c-0.01,0.22,0.017,0.447,0.081,0.683L95.124,80.898z"/>
	<path fill="#FFFFFF" d="M97.112,76.293l1.645-0.945l0.365,0.636c0.12-0.491,0.264-0.862,0.43-1.113
		c0.168-0.259,0.416-0.482,0.742-0.67c0.434-0.249,0.968-0.369,1.604-0.358l0.112,1.938c-0.44-0.046-0.81,0.019-1.106,0.188
		c-0.896,0.517-0.955,1.451-0.176,2.805l2.123,3.69l-1.645,0.945L97.112,76.293z"/>
	<path fill="#FFFFFF" d="M107.897,71.984c-0.914-1.588-1.115-3.286-0.607-5.096c0.504-1.807,1.568-3.179,3.195-4.114
		c1.607-0.925,3.316-1.143,5.128-0.654c1.815,0.485,3.187,1.534,4.114,3.146c0.934,1.622,1.146,3.331,0.637,5.128
		c-0.512,1.805-1.59,3.182-3.236,4.129c-1.457,0.838-3.055,1.085-4.794,0.744C110.416,74.885,108.938,73.791,107.897,71.984z
		 M109.628,71.019c0.717,1.247,1.726,2.03,3.025,2.354c1.295,0.323,2.488,0.172,3.58-0.456c1.184-0.68,1.946-1.663,2.289-2.95
		c0.337-1.295,0.164-2.538-0.52-3.727c-0.692-1.202-1.674-1.98-2.945-2.332c-1.271-0.357-2.494-0.198-3.674,0.479
		c-1.174,0.675-1.93,1.655-2.267,2.938C108.773,68.6,108.944,69.83,109.628,71.019z"/>
	<path fill="#FFFFFF" d="M120.696,62.726l1.645-0.946l0.365,0.637c0.121-0.492,0.264-0.862,0.43-1.113
		c0.169-0.26,0.416-0.482,0.743-0.67c0.434-0.25,0.968-0.369,1.603-0.358l0.113,1.938c-0.441-0.046-0.811,0.019-1.107,0.189
		c-0.896,0.516-0.954,1.449-0.176,2.803l2.123,3.691l-1.645,0.945L120.696,62.726z"/>
	<path fill="#FFFFFF" d="M137.173,62.494c0.193,0.337,0.354,0.639,0.479,0.907c0.125,0.268,0.224,0.511,0.297,0.729
		c0.191,0.603,0.228,1.194,0.107,1.776c-0.217,1.108-0.888,1.988-2.013,2.636c-0.95,0.546-1.878,0.74-2.786,0.582
		c-0.937-0.162-1.721-0.681-2.354-1.554l1.651-0.95c0.265,0.313,0.524,0.523,0.78,0.63c0.596,0.246,1.221,0.183,1.873-0.193
		c1.203-0.691,1.381-1.775,0.531-3.251l-0.572-0.994c-0.268,1.044-0.828,1.811-1.681,2.301c-0.97,0.558-1.966,0.663-2.987,0.317
		c-1.033-0.353-1.855-1.062-2.471-2.129c-0.596-1.037-0.813-2.086-0.65-3.145c0.18-1.128,0.782-1.986,1.805-2.575
		c0.896-0.516,1.833-0.611,2.812-0.285l-0.462-0.804l1.644-0.945L137.173,62.494z M133.653,60.026
		c-0.398-0.691-0.901-1.138-1.51-1.339c-0.619-0.208-1.221-0.144-1.805,0.193c-0.623,0.358-0.982,0.872-1.076,1.543
		c-0.089,0.602,0.057,1.231,0.435,1.888c0.373,0.648,0.841,1.086,1.405,1.313c0.617,0.247,1.239,0.192,1.867-0.169
		c0.629-0.362,0.994-0.877,1.096-1.546C134.163,61.302,134.025,60.674,133.653,60.026z"/>
	<path fill="#FFFFFF" d="M140.497,51.335l1.65-0.95l4.094,7.117l-1.65,0.949l-0.428-0.745c-0.313,1.022-0.859,1.759-1.639,2.207
		c-0.984,0.566-2.002,0.678-3.055,0.337c-1.056-0.359-1.896-1.082-2.521-2.168c-0.614-1.066-0.806-2.139-0.577-3.217
		s0.823-1.894,1.783-2.445c0.828-0.477,1.767-0.563,2.816-0.259L140.497,51.335z M138.63,57.115
		c0.392,0.682,0.895,1.132,1.506,1.352c0.625,0.218,1.222,0.162,1.791-0.165c0.609-0.351,0.98-0.844,1.115-1.479
		c0.125-0.649-0.004-1.308-0.387-1.975c-0.385-0.667-0.889-1.11-1.514-1.328c-0.618-0.207-1.228-0.14-1.826,0.205
		c-0.565,0.325-0.914,0.812-1.048,1.459C138.142,55.834,138.263,56.478,138.63,57.115z"/>
	<path fill="#FFFFFF" d="M144.223,49.191l1.651-0.95l0.379,0.657c0.246-0.899,0.73-1.558,1.451-1.972
		c0.828-0.477,1.623-0.587,2.386-0.332c0.654,0.213,1.271,0.821,1.847,1.824l2.51,4.362l-1.65,0.95l-2.287-3.975
		c-0.403-0.701-0.779-1.13-1.129-1.286c-0.347-0.163-0.771-0.102-1.272,0.188c-0.546,0.314-0.829,0.718-0.851,1.208
		c-0.02,0.485,0.226,1.171,0.735,2.057l1.976,3.435l-1.651,0.95L144.223,49.191z"/>
	<path fill="#FFFFFF" d="M150.478,41.655c-0.166-0.288-0.203-0.597-0.115-0.927c0.089-0.329,0.279-0.578,0.572-0.746
		c0.297-0.171,0.61-0.213,0.94-0.124c0.327,0.085,0.575,0.275,0.747,0.572c0.17,0.297,0.213,0.611,0.123,0.94
		c-0.084,0.328-0.275,0.576-0.572,0.747s-0.611,0.213-0.939,0.123C150.903,42.152,150.65,41.957,150.478,41.655z M154.071,43.525
		l4.094,7.117l-1.644,0.945l-4.094-7.116L154.071,43.525z"/>
	<path fill="#FFFFFF" d="M161.716,46.537l4.23-2.434l0.892,1.549l-7.489,4.309l1.4-8.234l-3.632,2.089l-0.883-1.534l6.882-3.959
		L161.716,46.537z"/>
	<path fill="#FFFFFF" d="M173.036,37.867l-5.1,2.934c0.38,0.56,0.838,0.915,1.373,1.067c0.531,0.147,1.061,0.07,1.587-0.232
		c0.409-0.235,0.692-0.527,0.847-0.876c0.152-0.348,0.244-0.879,0.277-1.599l1.834-0.024c-0.004,0.488-0.051,0.932-0.14,1.329
		c-0.089,0.398-0.222,0.761-0.397,1.085c-0.176,0.325-0.4,0.617-0.672,0.878s-0.592,0.497-0.963,0.71
		c-1.061,0.61-2.109,0.76-3.146,0.447c-1.038-0.316-1.884-1.043-2.536-2.178c-0.647-1.125-0.859-2.215-0.637-3.27
		c0.232-1.049,0.869-1.871,1.906-2.469c1.047-0.602,2.066-0.745,3.06-0.428c0.985,0.314,1.815,1.059,2.491,2.234L173.036,37.867z
		 M170.575,37.493c-0.734-0.745-1.539-0.866-2.415-0.361c-0.2,0.115-0.37,0.253-0.51,0.415c-0.142,0.162-0.25,0.342-0.327,0.538
		c-0.079,0.197-0.122,0.406-0.133,0.626c-0.01,0.219,0.018,0.446,0.082,0.682L170.575,37.493z"/>
	<path fill="#FFFFFF" d="M172.563,32.888l1.645-0.945l0.365,0.636c0.119-0.491,0.264-0.862,0.43-1.113
		c0.168-0.259,0.416-0.482,0.742-0.67c0.434-0.25,0.968-0.369,1.603-0.357l0.113,1.938c-0.44-0.046-0.81,0.019-1.106,0.189
		c-0.896,0.516-0.955,1.45-0.176,2.804l2.123,3.69l-1.645,0.945L172.563,32.888z"/>
</g>
<g>
	<path fill="#FFFFFF" d="M205.857,423.583l-3.487,2.055l1.232,2.09l3.385-1.995l0.729,1.234l-3.387,1.995l1.713,2.907l3.487-2.055
		l0.727,1.233l-4.8,2.829l-5.125-8.699l4.8-2.828L205.857,423.583z"/>
	<path fill="#FFFFFF" d="M210.509,425.1l2.536,4.305l-1.268,0.747l-2.536-4.305l-0.541,0.319l-0.697-1.184l0.541-0.318l-1.185-2.011
		l1.268-0.747l1.185,2.011l0.986-0.581l0.697,1.184L210.509,425.1z"/>
	<path fill="#FFFFFF" d="M209.286,418.801l1.268-0.746l2.643,4.484c0.211-0.672,0.589-1.168,1.134-1.489
		c0.62-0.365,1.233-0.456,1.843-0.272c0.521,0.162,1.008,0.627,1.459,1.394l1.981,3.363l-1.267,0.747l-1.912-3.245
		c-0.26-0.439-0.525-0.711-0.797-0.817c-0.272-0.105-0.582-0.056-0.927,0.148c-0.442,0.261-0.673,0.581-0.692,0.961
		c-0.014,0.383,0.18,0.912,0.578,1.588l1.563,2.653l-1.268,0.747L209.286,418.801z"/>
	<path fill="#FFFFFF" d="M221.157,424.625l-3.68-10.431l6.969,5l-0.891-8.582l7.156,8.382l-1.347,0.794l-3.933-4.757l0.755,7.168
		l-5.835-4.182l2.162,5.807L221.157,424.625z"/>
	<path fill="#FFFFFF" d="M233.123,410.181l1.272-0.75l3.234,5.487l-1.273,0.75l-0.338-0.574c-0.234,0.795-0.652,1.37-1.254,1.725
		c-0.759,0.447-1.547,0.543-2.365,0.286c-0.822-0.27-1.479-0.823-1.973-1.661c-0.485-0.822-0.644-1.652-0.475-2.49
		c0.168-0.839,0.623-1.476,1.363-1.912c0.639-0.376,1.366-0.45,2.184-0.224L233.123,410.181z M231.722,414.68
		c0.311,0.527,0.703,0.872,1.18,1.037c0.485,0.163,0.949,0.115,1.389-0.144c0.469-0.276,0.754-0.661,0.852-1.155
		c0.094-0.504-0.014-1.014-0.316-1.527c-0.303-0.516-0.697-0.854-1.184-1.02c-0.482-0.155-0.953-0.098-1.416,0.175
		c-0.436,0.257-0.703,0.637-0.801,1.14C231.333,413.689,231.432,414.188,231.722,414.68z"/>
	<path fill="#FFFFFF" d="M244.46,410.719c0.153,0.26,0.279,0.492,0.378,0.7c0.1,0.206,0.179,0.394,0.237,0.562
		c0.152,0.467,0.186,0.925,0.098,1.377c-0.159,0.863-0.674,1.551-1.541,2.062c-0.732,0.432-1.451,0.589-2.156,0.474
		c-0.727-0.117-1.34-0.514-1.838-1.187l1.273-0.75c0.207,0.241,0.412,0.403,0.61,0.481c0.464,0.188,0.948,0.134,1.452-0.163
		c0.928-0.547,1.055-1.39,0.385-2.526l-0.451-0.768c-0.2,0.812-0.629,1.41-1.287,1.798c-0.746,0.44-1.518,0.531-2.313,0.271
		c-0.804-0.265-1.448-0.809-1.933-1.632c-0.472-0.8-0.648-1.611-0.531-2.434c0.131-0.877,0.59-1.549,1.379-2.014
		c0.691-0.406,1.418-0.487,2.18-0.242l-0.366-0.621l1.269-0.746L244.46,410.719z M241.71,408.834
		c-0.314-0.534-0.709-0.877-1.182-1.027c-0.482-0.156-0.949-0.102-1.398,0.164c-0.481,0.283-0.756,0.685-0.823,1.205
		c-0.063,0.468,0.054,0.955,0.353,1.462c0.295,0.499,0.662,0.835,1.102,1.007c0.48,0.187,0.962,0.138,1.447-0.147
		c0.484-0.286,0.763-0.688,0.836-1.207C242.116,409.818,242.005,409.332,241.71,408.834z"/>
	<path fill="#FFFFFF" d="M241.367,402.249c-0.13-0.221-0.163-0.461-0.097-0.717c0.066-0.257,0.213-0.45,0.438-0.583
		c0.23-0.136,0.473-0.17,0.729-0.104c0.255,0.063,0.449,0.209,0.584,0.438c0.135,0.229,0.17,0.474,0.104,0.729
		c-0.063,0.254-0.209,0.449-0.438,0.584c-0.229,0.136-0.473,0.169-0.729,0.104C241.701,402.633,241.505,402.482,241.367,402.249z
		 M244.171,403.671l3.232,5.487l-1.268,0.747l-3.232-5.487L244.171,403.671z"/>
	<path fill="#FFFFFF" d="M250.187,400.445l0.992,1.686c-0.497-0.184-0.899-0.272-1.206-0.27c-0.304-0.002-0.609,0.087-0.913,0.266
		c-0.478,0.281-0.775,0.681-0.894,1.201s-0.029,1.032,0.267,1.535c0.304,0.515,0.705,0.848,1.203,0.999
		c0.502,0.149,0.992,0.083,1.47-0.198c0.304-0.179,0.534-0.402,0.689-0.672c0.151-0.26,0.269-0.664,0.356-1.212l0.986,1.674
		c-0.357,0.569-0.795,1.006-1.309,1.309c-0.85,0.501-1.72,0.646-2.614,0.433c-0.896-0.215-1.585-0.732-2.067-1.551
		c-0.482-0.819-0.602-1.682-0.354-2.584c0.246-0.905,0.789-1.605,1.631-2.102C248.966,400.641,249.553,400.47,250.187,400.445z"/>
	<path fill="#FFFFFF" d="M249.738,397.316c-0.13-0.221-0.163-0.461-0.097-0.718c0.067-0.256,0.213-0.45,0.438-0.583
		c0.229-0.135,0.472-0.17,0.728-0.104c0.256,0.063,0.45,0.209,0.585,0.438s0.169,0.473,0.103,0.729
		c-0.063,0.254-0.208,0.449-0.438,0.584c-0.229,0.135-0.472,0.169-0.729,0.103C250.073,397.7,249.876,397.549,249.738,397.316z
		 M252.542,398.738l3.233,5.487l-1.268,0.747l-3.233-5.487L252.542,398.738z"/>
	<path fill="#FFFFFF" d="M258.192,395.408l1.273-0.75l3.233,5.488l-1.272,0.75l-0.339-0.574c-0.235,0.795-0.653,1.369-1.253,1.724
		c-0.76,0.447-1.548,0.543-2.367,0.286c-0.821-0.27-1.479-0.822-1.973-1.66c-0.484-0.822-0.643-1.653-0.474-2.491
		c0.169-0.839,0.623-1.476,1.362-1.911c0.639-0.377,1.367-0.451,2.185-0.225L258.192,395.408z M256.792,399.908
		c0.31,0.526,0.701,0.871,1.179,1.036c0.485,0.163,0.948,0.115,1.388-0.144c0.47-0.276,0.755-0.661,0.854-1.154
		c0.092-0.505-0.014-1.015-0.316-1.528c-0.304-0.516-0.698-0.854-1.186-1.019c-0.48-0.156-0.953-0.098-1.414,0.174
		c-0.436,0.258-0.703,0.637-0.801,1.14C256.401,398.918,256.501,399.416,256.792,399.908z"/>
	<path fill="#FFFFFF" d="M261.065,393.716l1.273-0.75l0.299,0.507c0.185-0.7,0.555-1.215,1.109-1.543
		c0.639-0.376,1.256-0.468,1.849-0.275c0.51,0.16,0.992,0.627,1.448,1.4l1.981,3.363l-1.272,0.75l-1.807-3.065
		c-0.318-0.54-0.613-0.868-0.885-0.987c-0.271-0.125-0.6-0.072-0.986,0.156c-0.422,0.248-0.637,0.563-0.65,0.943
		c-0.012,0.377,0.186,0.907,0.588,1.591l1.56,2.647l-1.272,0.75L261.065,393.716z"/>
	<path fill="#FFFFFF" d="M271.132,389.045l-0.719,1.175c-0.364-0.241-0.669-0.289-0.913-0.146c-0.116,0.068-0.193,0.166-0.23,0.291
		c-0.036,0.126-0.021,0.249,0.05,0.369c0.125,0.21,0.492,0.275,1.102,0.193c0.842-0.106,1.452-0.105,1.83,0
		c0.375,0.107,0.686,0.367,0.93,0.78c0.312,0.529,0.377,1.088,0.197,1.675c-0.181,0.563-0.539,1-1.076,1.316
		c-0.92,0.543-1.836,0.479-2.748-0.193l0.785-1.14c0.307,0.175,0.519,0.274,0.641,0.3c0.237,0.052,0.463,0.015,0.678-0.111
		c0.428-0.253,0.527-0.574,0.297-0.965c-0.133-0.226-0.422-0.339-0.868-0.338c-0.165,0.01-0.329,0.023-0.492,0.039
		s-0.329,0.029-0.498,0.043c-0.475,0.036-0.839,0.01-1.096-0.082c-0.327-0.117-0.597-0.355-0.809-0.717
		c-0.281-0.477-0.351-0.966-0.208-1.471c0.15-0.509,0.465-0.904,0.941-1.186C269.628,388.466,270.363,388.521,271.132,389.045z"/>
	<path fill="#FFFFFF" d="M280.688,378.457l0.917,1.556c-1.133-0.188-2.105-0.043-2.916,0.435c-0.895,0.527-1.458,1.291-1.691,2.295
		c-0.24,1.002-0.088,1.964,0.457,2.888c0.537,0.913,1.299,1.501,2.285,1.767c0.985,0.264,1.925,0.133,2.818-0.395
		c0.463-0.271,0.811-0.578,1.045-0.92c0.136-0.181,0.264-0.393,0.381-0.635c0.119-0.24,0.232-0.514,0.34-0.821l0.933,1.584
		c-0.501,0.866-1.165,1.543-1.991,2.029c-1.243,0.732-2.56,0.925-3.949,0.575c-1.392-0.359-2.451-1.157-3.179-2.393
		c-0.653-1.108-0.868-2.312-0.647-3.61c0.274-1.595,1.128-2.813,2.559-3.656C278.829,378.695,279.709,378.462,280.688,378.457z"/>
	<path fill="#FFFFFF" d="M285.054,383.225c-0.468-0.793-0.581-1.635-0.342-2.523c0.239-0.891,0.767-1.576,1.582-2.057
		c0.818-0.482,1.679-0.611,2.579-0.388c0.893,0.228,1.579,0.749,2.06,1.563c0.484,0.822,0.607,1.68,0.367,2.568
		c-0.245,0.889-0.783,1.578-1.613,2.066c-0.822,0.484-1.677,0.609-2.564,0.373C286.239,384.601,285.549,384.066,285.054,383.225z
		 M286.362,382.483c0.323,0.549,0.725,0.896,1.206,1.043c0.491,0.146,0.981,0.073,1.474-0.216c0.496-0.293,0.799-0.686,0.906-1.181
		c0.109-0.493,0.006-1.007-0.308-1.54s-0.714-0.873-1.198-1.017c-0.492-0.146-0.982-0.073-1.475,0.216
		c-0.484,0.286-0.782,0.679-0.893,1.179C285.966,381.468,286.062,381.973,286.362,382.483z"/>
	<path fill="#FFFFFF" d="M291.921,375.534l1.855,3.149c0.536,0.909,1.162,1.152,1.88,0.729s0.808-1.088,0.272-1.997l-1.855-3.149
		l1.268-0.747l1.873,3.178c0.258,0.439,0.428,0.85,0.506,1.233c0.063,0.349,0.033,0.713-0.092,1.095
		c-0.209,0.625-0.644,1.13-1.305,1.52c-0.658,0.387-1.309,0.522-1.957,0.402c-0.398-0.074-0.734-0.222-1.012-0.443
		c-0.256-0.193-0.532-0.542-0.828-1.045l-1.873-3.178L291.921,375.534z"/>
	<path fill="#FFFFFF" d="M296.94,372.576l1.273-0.75l0.299,0.507c0.185-0.7,0.555-1.215,1.109-1.542
		c0.639-0.377,1.256-0.469,1.85-0.276c0.509,0.16,0.992,0.627,1.447,1.4l1.982,3.363l-1.273,0.75l-1.807-3.065
		c-0.317-0.54-0.613-0.868-0.885-0.987c-0.271-0.124-0.6-0.071-0.986,0.156c-0.421,0.248-0.637,0.563-0.65,0.944
		c-0.012,0.376,0.186,0.906,0.588,1.59l1.56,2.647l-1.272,0.75L296.94,372.576z"/>
	<path fill="#FFFFFF" d="M307.677,366.568l0.993,1.686c-0.497-0.183-0.899-0.272-1.206-0.27c-0.305-0.002-0.609,0.087-0.914,0.267
		c-0.477,0.28-0.775,0.681-0.893,1.201c-0.119,0.52-0.029,1.032,0.267,1.534c0.304,0.516,0.704,0.849,1.202,0.999
		c0.503,0.149,0.993,0.083,1.471-0.197c0.304-0.18,0.534-0.403,0.689-0.672c0.15-0.261,0.269-0.664,0.355-1.213l0.986,1.674
		c-0.357,0.57-0.794,1.006-1.309,1.31c-0.849,0.5-1.719,0.645-2.613,0.433c-0.896-0.216-1.586-0.733-2.068-1.552
		c-0.482-0.819-0.601-1.681-0.354-2.584c0.246-0.904,0.789-1.605,1.631-2.101C306.456,366.764,307.044,366.593,307.677,366.568z"/>
	<path fill="#FFFFFF" d="M307.229,363.439c-0.131-0.221-0.162-0.461-0.096-0.717c0.066-0.257,0.213-0.451,0.438-0.584
		c0.229-0.135,0.472-0.17,0.729-0.104c0.254,0.063,0.449,0.209,0.584,0.438c0.135,0.229,0.17,0.473,0.103,0.729
		c-0.063,0.254-0.208,0.449-0.437,0.584c-0.23,0.135-0.473,0.169-0.729,0.104S307.366,363.673,307.229,363.439z M310.033,364.861
		l3.233,5.487l-1.268,0.747l-3.233-5.487L310.033,364.861z"/>
	<path fill="#FFFFFF" d="M310.534,359.141l5.605,9.516l-1.268,0.746l-5.605-9.515L310.534,359.141z"/>
	<path fill="#FFFFFF" d="M319.407,362.981c-0.467-0.793-0.581-1.634-0.342-2.524c0.24-0.89,0.768-1.575,1.582-2.055
		c0.818-0.482,1.679-0.612,2.579-0.389c0.894,0.228,1.579,0.749,2.06,1.563c0.484,0.822,0.607,1.68,0.367,2.568
		c-0.245,0.889-0.783,1.577-1.613,2.066c-0.822,0.485-1.677,0.609-2.564,0.374C320.593,364.357,319.903,363.823,319.407,362.981z
		 M320.716,362.24c0.323,0.549,0.725,0.896,1.207,1.043c0.49,0.146,0.98,0.074,1.473-0.217c0.496-0.291,0.799-0.684,0.907-1.18
		c0.108-0.493,0.006-1.007-0.308-1.539c-0.314-0.534-0.715-0.874-1.199-1.018c-0.491-0.146-0.982-0.073-1.475,0.217
		c-0.484,0.285-0.781,0.678-0.892,1.178S320.415,361.729,320.716,362.24z"/>
	<path fill="#FFFFFF" d="M327.017,356.447l2.537,4.305l-1.273,0.75l-2.537-4.305l-0.45,0.266l-0.697-1.183l0.45-0.266l-1.247-2.118
		c-0.407-0.691-0.575-1.249-0.503-1.677c0.097-0.593,0.459-1.075,1.091-1.447c0.226-0.132,0.547-0.233,0.967-0.305l0.763,1.296
		l-0.168,0.009c-0.357,0.023-0.623,0.087-0.8,0.19c-0.226,0.133-0.329,0.303-0.313,0.512c0.014,0.204,0.154,0.531,0.42,0.981
		l1.064,1.809l1.381-0.813l0.697,1.183L327.017,356.447z"/>
	<path fill="#FFFFFF" d="M334.7,352.961l2.081,3.531l-1.313,0.774l-5.125-8.698l1.488-0.877c0.729-0.43,1.309-0.703,1.74-0.821
		c0.435-0.118,0.879-0.122,1.33-0.009c0.787,0.193,1.4,0.663,1.838,1.407c0.469,0.796,0.574,1.584,0.314,2.362
		c-0.258,0.781-0.84,1.438-1.745,1.971L334.7,352.961z M333.983,351.744l0.49-0.289c1.205-0.711,1.535-1.529,0.988-2.457
		c-0.529-0.898-1.416-0.98-2.658-0.248l-0.434,0.256L333.983,351.744z"/>
	<path fill="#FFFFFF" d="M338.224,348.25l1.268-0.747l0.289,0.49c0.09-0.381,0.197-0.67,0.324-0.866
		c0.129-0.203,0.318-0.378,0.57-0.526c0.334-0.196,0.748-0.293,1.24-0.29l0.104,1.502c-0.342-0.03-0.627,0.021-0.856,0.156
		c-0.69,0.407-0.729,1.133-0.114,2.177l1.677,2.845l-1.268,0.747L338.224,348.25z"/>
	<path fill="#FFFFFF" d="M346.584,343.324l1.272-0.75l3.234,5.486l-1.273,0.751l-0.338-0.574c-0.234,0.795-0.652,1.37-1.254,1.724
		c-0.759,0.447-1.547,0.543-2.365,0.287c-0.822-0.27-1.48-0.823-1.974-1.661c-0.485-0.822-0.643-1.653-0.474-2.491
		c0.168-0.838,0.623-1.476,1.363-1.912c0.638-0.376,1.366-0.449,2.184-0.223L346.584,343.324z M345.183,347.823
		c0.311,0.526,0.703,0.871,1.18,1.036c0.485,0.164,0.949,0.115,1.388-0.143c0.47-0.277,0.755-0.662,0.853-1.155
		c0.094-0.505-0.014-1.015-0.316-1.528c-0.303-0.516-0.697-0.854-1.184-1.019c-0.482-0.156-0.953-0.098-1.416,0.175
		c-0.436,0.257-0.703,0.637-0.801,1.139C344.794,346.833,344.893,347.331,345.183,347.823z"/>
	<path fill="#FFFFFF" d="M357.921,343.861c0.153,0.26,0.279,0.492,0.378,0.7c0.1,0.206,0.179,0.395,0.237,0.563
		c0.152,0.466,0.186,0.925,0.098,1.376c-0.159,0.863-0.674,1.551-1.541,2.062c-0.732,0.432-1.451,0.59-2.156,0.474
		c-0.728-0.117-1.34-0.513-1.838-1.186l1.273-0.751c0.207,0.241,0.411,0.403,0.61,0.482c0.464,0.187,0.948,0.133,1.452-0.164
		c0.928-0.546,1.055-1.389,0.385-2.526l-0.451-0.767c-0.2,0.812-0.629,1.409-1.287,1.797c-0.746,0.44-1.519,0.532-2.314,0.271
		c-0.803-0.265-1.447-0.809-1.932-1.632c-0.472-0.8-0.648-1.611-0.531-2.434c0.131-0.877,0.59-1.548,1.379-2.013
		c0.691-0.407,1.418-0.488,2.18-0.243l-0.366-0.62l1.269-0.747L357.921,343.861z M355.171,341.977
		c-0.314-0.534-0.709-0.877-1.182-1.027c-0.482-0.156-0.949-0.102-1.398,0.164c-0.481,0.283-0.756,0.685-0.823,1.206
		c-0.063,0.468,0.054,0.954,0.353,1.462c0.295,0.498,0.662,0.835,1.102,1.006c0.48,0.187,0.962,0.139,1.447-0.147
		c0.484-0.285,0.763-0.688,0.836-1.206C355.577,342.961,355.465,342.475,355.171,341.977z"/>
	<path fill="#FFFFFF" d="M357.632,336.814l1.855,3.149c0.535,0.909,1.162,1.151,1.879,0.729c0.718-0.423,0.809-1.089,0.273-1.998
		l-1.856-3.149l1.269-0.747l1.872,3.178c0.259,0.439,0.428,0.851,0.507,1.234c0.063,0.348,0.032,0.713-0.092,1.095
		c-0.209,0.624-0.645,1.13-1.305,1.519c-0.658,0.388-1.31,0.523-1.957,0.403c-0.398-0.074-0.735-0.222-1.013-0.444
		c-0.255-0.192-0.532-0.541-0.828-1.045l-1.872-3.178L357.632,336.814z"/>
	<path fill="#FFFFFF" d="M369.44,333.954l-3.932,2.317c0.299,0.431,0.656,0.703,1.072,0.816c0.414,0.11,0.824,0.047,1.23-0.192
		c0.314-0.187,0.531-0.415,0.65-0.688c0.114-0.27,0.182-0.683,0.201-1.241l1.423-0.034c0,0.379-0.032,0.723-0.099,1.032
		c-0.064,0.311-0.164,0.592-0.299,0.846c-0.134,0.252-0.305,0.481-0.514,0.686s-0.456,0.39-0.742,0.558
		c-0.818,0.482-1.63,0.606-2.436,0.374c-0.808-0.237-1.47-0.795-1.985-1.67c-0.511-0.867-0.685-1.711-0.521-2.531
		c0.172-0.815,0.658-1.459,1.459-1.93c0.807-0.477,1.598-0.595,2.371-0.356c0.766,0.236,1.416,0.806,1.949,1.712L369.44,333.954z
		 M367.528,333.685c-0.575-0.572-1.2-0.658-1.876-0.26c-0.154,0.091-0.284,0.199-0.392,0.325c-0.109,0.126-0.191,0.267-0.251,0.42
		c-0.059,0.153-0.091,0.315-0.097,0.486c-0.006,0.17,0.018,0.346,0.069,0.529L367.528,333.685z"/>
</g>
</svg>
