<?xml version="1.0" encoding="UTF-8" standalone="no"?>
<!DOCTYPE svg PUBLIC "-//W3C//DTD SVG 1.1//EN" "http://www.w3.org/Graphics/SVG/1.1/DTD/svg11.dtd">
<svg width="100%" height="100%" viewBox="0 0 1200 1200" version="1.1" xmlns="http://www.w3.org/2000/svg" xmlns:xlink="http://www.w3.org/1999/xlink" xml:space="preserve" xmlns:serif="http://www.serif.com/" style="fill-rule:evenodd;clip-rule:evenodd;stroke-miterlimit:10;">
    <g transform="matrix(1,0,0,1,-4215,-2460)">
        <g id="Bender_Prime" transform="matrix(1.5873,0,0,1.42857,4208.65,2461.43)">
            <rect x="4" y="-1" width="756" height="840" style="fill:none;"/>
            <clipPath id="_clip1">
                <rect x="4" y="-1" width="756" height="840"/>
            </clipPath>
            <g clip-path="url(#_clip1)">
                <g transform="matrix(0.39375,0,0,0.805571,4,-30.8674)">
                    <g id="Background">
                        <rect x="0" y="37.076" width="1920" height="1042.74" style="fill:rgb(239,244,238);"/>
                    </g>
                </g>
                <g id="Artwork" transform="matrix(0.63,0,0,0.7,-2651.45,-1723)">
                    <g transform="matrix(1.03332,0,0,0.959264,4903.89,3128.42)">
                        <path d="M0,336.272L-175.208,336.272C-202.421,336.272 -225.346,315.944 -228.6,288.925L-275.797,10.847C-276.492,5.079 -271.989,0 -266.179,0L90.971,0C96.781,0 101.284,5.079 100.589,10.847L53.392,288.925C50.138,315.944 27.213,336.272 0,336.272Z" style="fill:none;stroke:rgb(21,0,62);stroke-width:12px;"/>
                    </g>
                    <g transform="matrix(1.03332,0,0,0.959264,4934.43,3457.15)">
                        <path d="M0,-293.954L-233.957,-293.954C-241.985,-293.954 -248.262,-287.03 -247.479,-279.04L-227.651,-74.154C-226.678,-64.228 -218.332,-56.662 -208.359,-56.662L-30.889,-56.662C-20.736,-56.662 -12.303,-64.496 -11.557,-74.622L13.55,-279.368C14.131,-287.244 7.897,-293.954 0,-293.954Z" style="fill:none;stroke:rgb(21,0,62);stroke-width:12px;"/>
                    </g>
                    <g transform="matrix(1,0,0,1,0,-75.8652)">
                        <g transform="matrix(1.03332,0,0,0.959264,4829.06,3321.88)">
                            <path d="M0,8.99L-13.894,8.99C-16.376,8.99 -18.389,6.976 -18.389,4.495C-18.389,2.012 -16.376,0 -13.894,0L0,0C2.482,0 4.495,2.012 4.495,4.495C4.495,6.976 2.482,8.99 0,8.99" style="fill:rgb(16,7,58);fill-rule:nonzero;stroke:rgb(21,0,62);stroke-width:1px;stroke-linejoin:round;stroke-miterlimit:1.41421;"/>
                        </g>
                        <g transform="matrix(1.03332,0,0,0.959264,4854.53,3400.59)">
                            <path d="M0,-65.181L14.771,-79.103C3.468,-90.406 -12.147,-97.396 -29.394,-97.396C-63.889,-97.396 -91.853,-69.432 -91.853,-34.938C-91.853,-0.443 -63.889,27.521 -29.394,27.521C-16.537,27.521 -5.229,32.215 4.704,25.553L17.066,27.264L16.712,7.196L-18.687,-20.835L-11.076,-56.679L0,-65.181" style="fill:white;fill-rule:nonzero;stroke:rgb(21,0,62);stroke-width:1px;stroke-linejoin:round;stroke-miterlimit:1.41421;"/>
                        </g>
                        <g transform="matrix(1.03332,0,0,0.959264,4859.73,3333.79)">
                            <path d="M0,68.057L-8.805,59.527C-2.322,52.835 1.248,44.02 1.248,34.702C1.248,24.976 -2.595,15.887 -9.572,9.109L-14.165,4.648L-9.24,0L-5.044,4.447L-1.031,0.316C8.345,9.422 13.508,21.634 13.508,34.702C13.508,47.222 8.71,59.067 0,68.057" style="fill:rgb(73,187,129);fill-rule:nonzero;"/>
                        </g>
                        <g transform="matrix(1.03332,0,0,0.959264,4809.59,3367.08)">
                            <path d="M0,-0.001C0,-7.789 6.313,-14.103 14.102,-14.103C21.891,-14.103 28.205,-7.789 28.205,-0.001C28.205,7.787 21.891,14.102 14.102,14.102C6.313,14.102 0,7.787 0,-0.001" style="fill:rgb(233,240,232);fill-rule:nonzero;stroke:rgb(21,0,62);stroke-width:1px;stroke-linejoin:round;stroke-miterlimit:1.41421;"/>
                        </g>
                        <g transform="matrix(-0.75896,0.650977,0.701232,0.704568,4849.4,3363.71)">
                            <path d="M-42.084,-16.466L6.442,-16.466" style="fill:rgb(16,7,58);fill-rule:nonzero;stroke:rgb(21,0,62);stroke-width:1.04px;stroke-linejoin:round;stroke-miterlimit:1.41421;"/>
                        </g>
                        <g transform="matrix(1.03332,0,0,0.959264,4831.03,3432.87)">
                            <path d="M0,-56.152L25.62,-36.867L39.453,-26.454L39.453,0L11.665,-1.339" style="fill:white;fill-rule:nonzero;stroke:rgb(21,0,62);stroke-width:1px;stroke-linejoin:round;stroke-miterlimit:1.41421;"/>
                        </g>
                        <g transform="matrix(1.03332,0,0,0.959264,4832.4,3353.69)">
                            <path d="M0,13.954C0,18.35 -3.577,21.926 -7.972,21.926C-12.369,21.926 -15.945,18.35 -15.945,13.954C-15.945,9.558 -12.369,5.981 -7.972,5.981C-3.577,5.981 0,9.558 0,13.954M32.005,59.146L32.005,70.283L-7.972,70.283L-7.972,70.282C-39.033,70.282 -64.301,45.014 -64.301,13.954C-64.301,-17.106 -39.033,-42.374 -7.972,-42.374C4.922,-42.374 17.155,-38.07 27.086,-30.143L-0.364,-4.78C-2.715,-5.739 -5.281,-6.277 -7.972,-6.277C-19.128,-6.277 -28.205,2.799 -28.205,13.954C-28.205,25.11 -19.128,34.185 -7.972,34.185C-5.988,34.185 -4.075,33.887 -2.262,33.351L32.005,59.146ZM12.26,13.954C12.26,9.983 11.093,6.287 9.109,3.159L25.489,-11.975L25.627,-11.828L40.292,-25.65L40.353,-25.708L44.991,-30.08L40.527,-34.544C28.053,-47.02 11.617,-54.077 -5.941,-54.585L-5.941,-64.092C-5.941,-66.575 -7.955,-68.588 -10.436,-68.588C-12.918,-68.588 -14.931,-66.575 -14.931,-64.092L-14.931,-54.283C-19.153,-53.856 -23.256,-53.027 -27.218,-51.866L-27.218,-64.091C-27.218,-66.574 -29.231,-68.588 -31.713,-68.588C-34.195,-68.588 -36.208,-66.574 -36.208,-64.091L-36.208,-48.527C-59.979,-37.742 -76.561,-13.802 -76.561,13.954C-76.561,51.4 -46.392,81.914 -9.086,82.514L-9.086,82.542L44.264,82.542L44.264,53.029L8.285,25.946C10.771,22.586 12.26,18.445 12.26,13.954" style="fill:rgb(16,7,58);fill-rule:nonzero;"/>
                        </g>
                    </g>
                    <g transform="matrix(1.03332,0,0,0.959264,4640.19,3137.67)">
                        <path d="M0,131.964C-14.053,133.673 -26.831,123.667 -28.54,109.614L-38.608,26.83C-40.317,12.777 -30.311,0 -16.258,-1.709" style="fill:none;stroke:rgb(21,0,62);stroke-width:12px;"/>
                    </g>
                    <g transform="matrix(1.02618,0.121286,-0.112594,0.952633,4456.56,2871.26)">
                        <path d="M0,72.92L-41.458,85.246C-46.969,86.885 -52.923,84.998 -56.485,80.484L-92.525,34.816C-98.632,27.078 -95.001,15.618 -85.552,12.808L-4.75,-11.215C4.498,-13.965 13.676,-6.72 13.15,2.913L10.021,60.223C9.698,66.148 5.687,71.229 0,72.92Z" style="fill:none;stroke:rgb(21,0,62);stroke-width:12px;"/>
                    </g>
                    <g transform="matrix(-1.01571,0.155242,0.184533,0.947692,4399.78,2870.73)">
                        <rect x="-18.301" y="-66.663" width="28.001" height="64" style="fill:none;stroke:rgb(21,0,62);stroke-width:12px;"/>
                    </g>
                    <g transform="matrix(-1.01571,0.155242,0.184533,0.947692,4371.61,2874.85)">
                        <rect x="-17" y="-49.848" width="24.253" height="47.375" style="fill:none;stroke:rgb(21,0,62);stroke-width:12px;"/>
                    </g>
                    <g transform="matrix(-1.01571,0.155242,0.184533,0.947692,4442.83,2864.09)">
                        <rect x="-17.904" y="-43.637" width="24.254" height="41.031" style="fill:none;stroke:rgb(21,0,62);stroke-width:12px;"/>
                    </g>
                    <g transform="matrix(0.425633,0.898321,0.932803,-0.360096,4594.26,2814.58)">
                        <path d="M66.89,-178.304C66.89,-178.304 195.234,-232.664 333.665,-145.995" style="fill:none;stroke:rgb(21,0,62);stroke-width:12px;"/>
                    </g>
                    <g transform="matrix(0.438912,0.893086,0.926628,-0.37289,4571.64,2804.84)">
                        <path d="M68.064,-219.901C68.064,-219.901 232.055,-297.278 425.62,-157.622" style="fill:none;stroke:rgb(21,0,62);stroke-width:12px;"/>
                    </g>
                    <g transform="matrix(0.74541,-0.630863,-0.704023,-0.733936,4534.79,3176.78)">
                        <path d="M-16.073,26.976L45.277,26.976" style="fill:none;stroke:rgb(21,0,62);stroke-width:12px;"/>
                    </g>
                    <g transform="matrix(0.871926,-0.470121,-0.539471,-0.845952,4474.65,3112.82)">
                        <path d="M-10.954,23.514L50.478,23.514" style="fill:none;stroke:rgb(21,0,62);stroke-width:12px;"/>
                    </g>
                    <g transform="matrix(0.934211,-0.357111,-0.422532,-0.899512,4433.69,3043.05)">
                        <path d="M-8.035,20.638L53.007,20.638" style="fill:none;stroke:rgb(21,0,62);stroke-width:12px;"/>
                    </g>
                    <g transform="matrix(1.03332,0,0,0.959264,4996.48,3137.67)">
                        <path d="M0,131.964C14.053,133.673 26.83,123.667 28.539,109.614L38.607,26.83C40.317,12.777 30.31,0 16.257,-1.709" style="fill:none;stroke:rgb(21,0,62);stroke-width:12px;"/>
                    </g>
                    <g transform="matrix(-0.455865,-0.860868,-0.927326,0.423195,5242.86,3256.63)">
                        <path d="M-148.992,138.315C-148.992,138.315 -43.1,105.948 111.081,178.384" style="fill:none;stroke:rgb(21,0,62);stroke-width:12px;"/>
                    </g>
                    <g transform="matrix(-0.469065,-0.854735,-0.920719,0.435449,5294.94,3190.26)">
                        <path d="M-201.572,165.687C-201.572,165.687 -88.054,110.636 131.054,213.848" style="fill:none;stroke:rgb(21,0,62);stroke-width:12px;"/>
                    </g>
                    <g transform="matrix(-0.730456,0.678497,0.730877,0.678106,5097.29,3281.96)">
                        <path d="M-52.359,-21.697L8.991,-21.697" style="fill:none;stroke:rgb(21,0,62);stroke-width:12px;"/>
                    </g>
                    <g transform="matrix(-0.862696,0.52801,0.568773,0.800869,5134.52,3339.87)">
                        <path d="M-56.36,-16.907L5.072,-16.907" style="fill:none;stroke:rgb(21,0,62);stroke-width:12px;"/>
                    </g>
                    <g transform="matrix(-0.928833,0.420337,0.452787,0.862267,5168.09,3399.63)">
                        <path d="M-57.956,-13.374L3.086,-13.374" style="fill:none;stroke:rgb(21,0,62);stroke-width:12px;"/>
                    </g>
                    <g transform="matrix(-0.137867,0.950687,1.02408,0.127987,4929.69,3344.44)">
                        <path d="M138.706,-197.807L172.767,-197.585" style="fill:none;stroke:rgb(21,0,62);stroke-width:12px;"/>
                    </g>
                    <g transform="matrix(-0.132927,0.951293,1.02473,0.123401,4872.16,3338.8)">
                        <path d="M52.363,-201.59L177.129,-201.59" style="fill:none;stroke:rgb(21,0,62);stroke-width:12px;"/>
                    </g>
                    <g transform="matrix(-0.137867,-0.950687,-1.02408,0.127987,5099.27,3243.29)">
                        <path d="M-225.967,197.585L-191.876,197.585" style="fill:none;stroke:rgb(21,0,62);stroke-width:12px;"/>
                    </g>
                    <g transform="matrix(-0.132927,-0.951293,-1.02473,0.123401,5165.65,3239.3)">
                        <path d="M-229.429,201.59L-88.895,201.59" style="fill:none;stroke:rgb(21,0,62);stroke-width:12px;"/>
                    </g>
                    <g transform="matrix(1,0,0,1,4303,2526.5)">
                        <g transform="matrix(1.0359,0,0,0.961659,540.042,105.606)">
                            <path d="M0,27.069C0,12.119 -12.12,0 -27.07,0C-42.02,0 -54.139,12.119 -54.139,27.069" style="fill:none;stroke:rgb(21,0,62);stroke-width:12px;stroke-linejoin:round;"/>
                        </g>
                        <g transform="matrix(1.0359,0,0,0.961659,436.98,345.655)">
                            <path d="M0,-99.1C-9.68,-85 -15.33,-67.94 -15.33,-49.55C-15.33,-31.16 -9.68,-14.1 0,0L-1.3,0C-28.66,0 -50.84,-22.19 -50.84,-49.55C-50.84,-63.23 -45.3,-75.62 -36.33,-84.59C-27.36,-93.55 -14.98,-99.1 -1.3,-99.1L0,-99.1Z" style="fill:rgb(21,0,62);fill-rule:nonzero;"/>
                        </g>
                        <g transform="matrix(1.0359,0,0,0.961659,639.685,298.004)">
                            <path d="M0,0C0,13.68 -5.54,26.07 -14.51,35.04C-23.479,44 -35.86,49.55 -49.54,49.55L-50.84,49.55C-41.16,35.45 -35.51,18.39 -35.51,0C-35.51,-18.39 -41.16,-35.45 -50.84,-49.55L-49.54,-49.55C-22.18,-49.55 0,-27.36 0,0" style="fill:rgb(21,0,62);fill-rule:nonzero;"/>
                        </g>
                        <g transform="matrix(1.0359,0,0,0.961659,584.763,235.447)">
                            <path d="M0,130.104L-140.482,130.104C-176.409,130.104 -205.534,100.979 -205.534,65.052C-205.534,29.125 -176.409,0 -140.482,0L0,0C35.927,0 65.052,29.125 65.052,65.052C65.052,100.979 35.927,130.104 0,130.104Z" style="fill:none;stroke:rgb(21,0,62);stroke-width:12px;"/>
                        </g>
                        <g transform="matrix(1.0359,0,0,0.961659,602.9,298.004)">
                            <path d="M0,0C0,18.39 -5.65,35.45 -15.33,49.55L-160.17,49.55C-169.85,35.45 -175.5,18.39 -175.5,0C-175.5,-18.39 -169.85,-35.45 -160.17,-49.55L-15.33,-49.55C-5.65,-35.45 0,-18.39 0,0" style="fill:rgb(15,206,124);fill-rule:nonzero;"/>
                        </g>
                        <g transform="matrix(1.0359,0,0,0.961659,563.325,287.724)">
                            <path d="M0,0.001C0,13.13 -10.644,23.773 -23.773,23.773C-36.902,23.773 -47.546,13.13 -47.546,0.001C-47.546,-13.128 -36.902,-23.772 -23.773,-23.772C-10.644,-23.772 0,-13.128 0,0.001" style="fill:white;fill-rule:nonzero;"/>
                        </g>
                        <g transform="matrix(1.0359,0,0,0.961659,580.921,321.902)">
                            <path d="M0,0C0,5.309 -4.304,9.612 -9.612,9.612C-14.921,9.612 -19.224,5.309 -19.224,0C-19.224,-5.309 -14.921,-9.612 -9.612,-9.612C-4.304,-9.612 0,-5.309 0,0" style="fill:white;fill-rule:nonzero;"/>
                        </g>
                        <g transform="matrix(1.0359,0,0,0.961659,409.357,521.429)">
                            <path d="M0,-172.666L0,0.667L198.173,0.667L198.173,-173.333" style="fill:none;stroke:rgb(21,0,62);stroke-width:12px;"/>
                        </g>
                        <g transform="matrix(1.0359,0,0,0.961659,614.643,128.752)">
                            <path d="M0,117.678L0,99.087C0,44.363 -44.362,0 -99.086,0C-153.811,0 -198.173,44.363 -198.173,99.087L-198.173,117.081" style="fill:none;stroke:rgb(21,0,62);stroke-width:12px;"/>
                        </g>
                        <g transform="matrix(-1.0359,0,0,0.961659,1547.9,-833.313)">
                            <rect x="922.594" y="1302.28" width="154.812" height="65.628" style="fill:rgb(255,206,8);stroke:rgb(21,0,62);stroke-width:12px;stroke-linejoin:round;"/>
                        </g>
                        <g transform="matrix(1.0359,0,0,0.961659,592.185,445.307)">
                            <path d="M0,16C-11.056,16 -11.056,0 -22.112,0C-33.17,0 -33.17,16 -44.228,16C-55.285,16 -55.285,0 -66.343,0C-77.4,0 -77.4,16 -88.458,16C-99.516,16 -99.516,0 -110.574,0C-121.634,0 -121.634,16 -132.693,16C-143.753,16 -143.753,0 -154.812,0" style="fill:none;stroke:rgb(21,0,62);stroke-width:12px;stroke-linecap:round;"/>
                        </g>
                        <g transform="matrix(1,0,0,1,-3003,-2548)">
                            <path d="M3412.36,3070.07C3412.36,3070.07 3384.19,3085.7 3361.17,3105.65C3337.86,3125.85 3322.16,3149.58 3322.16,3149.58L3707.91,3149.58C3707.91,3149.58 3692.14,3125.85 3668.83,3105.65C3645.81,3085.7 3617.64,3070.07 3617.64,3070.07" style="fill:none;stroke:rgb(21,0,62);stroke-width:11.98px;"/>
                        </g>
                        <g transform="matrix(0.0920287,-0.957857,-1.0318,-0.0854333,615.853,77.9171)">
                            <path d="M-62.143,67.932L74.261,67.932" style="fill:none;stroke:rgb(21,0,62);stroke-width:12px;"/>
                        </g>
                        <g transform="matrix(-0.616331,-0.772929,-0.832599,0.572161,470.683,60.0338)">
                            <path d="M-67.47,34L17.133,34" style="fill:none;stroke:rgb(21,0,62);stroke-width:12px;"/>
                        </g>
                        <g transform="matrix(0,0.961659,1.0359,0,423.172,37.7965)">
                            <circle cx="18.609" cy="0" r="18.609" style="fill:none;stroke:rgb(21,0,62);stroke-width:12px;stroke-linejoin:round;"/>
                        </g>
                        <g transform="matrix(0,0.961659,1.0359,0,553.945,-30)">
                            <circle cx="18.609" cy="0" r="18.609" style="fill:none;stroke:rgb(21,0,62);stroke-width:12px;stroke-linejoin:round;"/>
                        </g>
                        <g transform="matrix(1.0359,0,0,0.961659,396.688,562.329)">
                            <path d="M0,-40.793C1.107,-38.24 1.667,-35.443 1.585,-32.584C1.534,-30.795 1.231,-28.982 0.66,-27.198L-3.041,-15.74C-6.313,-5.58 -17.198,0 -27.358,-3.272C-31.928,-4.745 -35.563,-7.76 -37.895,-11.548" style="fill:none;stroke:rgb(255,206,8);stroke-width:12px;"/>
                        </g>
                        <g transform="matrix(1.0359,0,0,0.961659,403.589,560.866)">
                            <path d="M0,44.609C-9.394,49.678 -21.118,46.173 -26.187,36.78L-31.904,26.188C-36.973,16.795 -33.468,5.07 -24.075,0.001C-14.682,-5.069 -2.957,-1.564 2.112,7.83L7.829,18.422C12.898,27.815 9.393,39.54 0,44.609Z" style="fill:none;stroke:rgb(255,206,8);stroke-width:12px;"/>
                        </g>
                        <g transform="matrix(1.0359,0,0,0.961659,453.167,602.863)">
                            <path d="M0,26.594C-5.6,35.681 -17.506,38.508 -26.593,32.907L-36.84,26.593C-45.927,20.992 -48.753,9.086 -43.153,-0.001C-37.553,-9.088 -25.647,-11.914 -16.56,-6.314L-6.313,0.001C2.773,5.601 5.6,17.507 0,26.594Z" style="fill:none;stroke:rgb(255,206,8);stroke-width:12px;"/>
                        </g>
                        <g transform="matrix(1.0359,0,0,0.961659,510.792,628.83)">
                            <path d="M0,1.455C-0.307,12.124 -9.204,20.525 -19.874,20.219L-31.905,19.873C-42.575,19.567 -50.976,10.67 -50.669,0C-50.363,-10.67 -41.465,-19.07 -30.796,-18.764L-18.764,-18.419C-8.095,-18.112 0.306,-9.214 0,1.455Z" style="fill:none;stroke:rgb(255,206,8);stroke-width:12px;"/>
                        </g>
                        <g transform="matrix(1.0359,0,0,0.961659,564.233,632.405)">
                            <path d="M0,-8.997C1.894,1.507 -5.085,11.559 -15.59,13.453L-27.436,15.589C-37.94,17.484 -47.991,10.504 -49.886,0C-51.78,-10.505 -44.8,-20.556 -34.296,-22.451L-22.45,-24.587C-11.946,-26.481 -1.895,-19.501 0,-8.997Z" style="fill:none;stroke:rgb(255,206,8);stroke-width:12px;"/>
                        </g>
                        <g transform="matrix(1.0359,0,0,0.961659,609.603,617.533)">
                            <path d="M0,-24.075C5.069,-14.682 1.564,-2.957 -7.829,2.112L-18.421,7.828C-27.814,12.898 -39.539,9.393 -44.608,0C-49.678,-9.394 -46.172,-21.118 -36.779,-26.187L-26.187,-31.904C-16.794,-36.973 -5.069,-33.469 0,-24.075Z" style="fill:none;stroke:rgb(255,206,8);stroke-width:12px;"/>
                        </g>
                        <g transform="matrix(1.0359,0,0,0.961659,640.369,591.258)">
                            <path d="M0,-40.234C8.472,-33.741 10.077,-21.61 3.584,-13.138L-3.737,-3.584C-10.229,4.888 -22.361,6.493 -30.833,0C-39.306,-6.492 -40.91,-18.624 -34.417,-27.096L-27.096,-36.65C-20.604,-45.122 -8.472,-46.727 0,-40.234Z" style="fill:none;stroke:rgb(255,206,8);stroke-width:12px;"/>
                        </g>
                        <g transform="matrix(1.0359,0,0,0.961659,659.256,527.711)">
                            <path d="M0,19.07C-3.86,22.171 -8.909,23.797 -14.225,23.204C-24.296,22.074 -31.69,13.408 -31.405,3.463C-31.39,2.923 -31.344,2.383 -31.289,1.845L-30.56,-4.727" style="fill:none;stroke:rgb(255,206,8);stroke-width:12px;"/>
                        </g>
                    </g>
                    <g transform="matrix(1.03332,0,0,0.959264,4369.57,3558.72)">
                        <path d="M0,0L176.391,0" style="fill:none;stroke:rgb(21,0,62);stroke-width:12px;stroke-linecap:round;stroke-linejoin:round;"/>
                    </g>
                    <g transform="matrix(1.03332,0,0,0.959264,5079.77,3558.72)">
                        <path d="M0,0L176.391,0" style="fill:none;stroke:rgb(21,0,62);stroke-width:12px;stroke-linecap:round;stroke-linejoin:round;"/>
                    </g>
                    <g transform="matrix(1.03332,0,0,0.959264,4789.5,3558.72)">
                        <path d="M0,0L54.026,0" style="fill:none;stroke:rgb(21,0,62);stroke-width:12px;stroke-linecap:round;stroke-linejoin:round;"/>
                    </g>
                    <g transform="matrix(1.03332,0,0,0.959264,4789.5,3519.84)">
                        <path d="M0,65.51C0,84.51 -51.49,104.51 -115,104.51C-178.51,104.51 -230,86.96 -230,65.51C-230,14.99 -192.84,-27.4 -142.71,-39L-142.8,-38.33C-143.57,-32.389 -139.12,-27.04 -133.14,-26.719L-94.57,-24.62C-89.2,-24.33 -84.51,-28.21 -83.8,-33.53L-83.2,-37.99C-35.15,-25.07 0,16.37 0,65.51Z" style="fill:none;stroke:rgb(21,0,62);stroke-width:12px;"/>
                    </g>
                    <g transform="matrix(1.03332,0,0,0.959264,4795.44,3620.84)">
                        <path d="M0,-12.451C0,7.499 -54.064,28.499 -120.75,28.499C-187.436,28.499 -241.5,10.071 -241.5,-12.451L-241.5,-39.7C-241.5,-39.7 -230.5,-0.78 -120.75,-0.78C-10.5,-0.78 0,-40.95 0,-40.95L0,-12.451Z" style="fill:rgb(16,7,58);fill-rule:nonzero;stroke:rgb(21,0,62);stroke-width:1px;stroke-linejoin:round;stroke-miterlimit:1.41421;"/>
                    </g>
                    <g transform="matrix(1.02331,0.133156,0.143436,-0.949977,4651.98,3419.17)">
                        <path d="M-0.284,-4.073L18.834,-4.073" style="fill:none;stroke:rgb(21,0,62);stroke-width:12px;"/>
                    </g>
                    <g transform="matrix(1.03332,0,0,0.959264,4842.11,3519.84)">
                        <path d="M0,65.51C0,84.51 51.49,104.51 115,104.51C178.51,104.51 230,86.96 230,65.51C230,14.99 192.84,-27.4 142.71,-39L142.8,-38.33C143.57,-32.389 139.12,-27.04 133.14,-26.719L94.57,-24.62C89.2,-24.33 84.51,-28.21 83.8,-33.53L83.2,-37.99C35.15,-25.07 0,16.37 0,65.51Z" style="fill:none;stroke:rgb(21,0,62);stroke-width:12px;"/>
                    </g>
                    <g transform="matrix(-1.02331,0.133156,0.143436,0.949977,4921.33,3434.65)">
                        <path d="M-58.4,-4.073L-29.058,-4.073" style="fill:none;stroke:rgb(21,0,62);stroke-width:12px;"/>
                    </g>
                    <g transform="matrix(1.03332,0,0,0.959264,4835.87,3619.88)">
                        <path d="M0,-12.451C0,7.499 54.176,28.499 121,28.499C187.824,28.499 242,10.071 242,-12.451L242,-39.7C242,-39.7 230.977,-0.78 121,-0.78C10.522,-0.78 0,-40.95 0,-40.95L0,-12.451Z" style="fill:rgb(16,7,58);fill-rule:nonzero;stroke:rgb(21,0,62);stroke-width:1px;stroke-linejoin:round;stroke-miterlimit:1.41421;"/>
                    </g>
                    <g transform="matrix(1.01785,-0.178126,0.16536,0.944904,5200.09,3519.28)">
                        <path d="M0,-82L43.251,-82C49.001,-82 54.17,-78.495 56.299,-73.153L77.829,-19.108C81.477,-9.95 74.731,0 64.873,0L-19.425,0C-29.072,0 -35.806,-9.561 -32.557,-18.645L-13.225,-72.687C-11.226,-78.272 -5.933,-82 0,-82Z" style="fill:rgb(239,244,238);fill-rule:nonzero;stroke:rgb(21,0,62);stroke-width:12px;"/>
                    </g>
                    <g transform="matrix(1.01785,-0.178126,0.16536,0.944904,3700.88,3212.88)">
                        <rect x="1422.13" y="584.047" width="24.253" height="47.375" style="fill:rgb(239,244,238);stroke:rgb(21,0,62);stroke-width:12px;"/>
                    </g>
                    <g transform="matrix(1.01785,-0.178126,0.16536,0.944904,3699.83,3206.88)">
                        <rect x="1351.13" y="590.391" width="24.253" height="41.031" style="fill:rgb(239,244,238);stroke:rgb(21,0,62);stroke-width:12px;"/>
                    </g>
                    <g transform="matrix(1.01785,-0.178126,0.16536,0.944904,3703.63,3228.59)">
                        <rect x="1393.13" y="567.422" width="28" height="64" style="fill:rgb(239,244,238);stroke:rgb(21,0,62);stroke-width:12px;"/>
                    </g>
                </g>
            </g>
        </g>
    </g>
</svg>
