<?xml version="1.0" encoding="UTF-8" standalone="no"?>
<!DOCTYPE svg PUBLIC "-//W3C//DTD SVG 1.1//EN" "http://www.w3.org/Graphics/SVG/1.1/DTD/svg11.dtd">
<svg width="100%" height="100%" viewBox="0 0 1200 1200" version="1.1" xmlns="http://www.w3.org/2000/svg" xmlns:xlink="http://www.w3.org/1999/xlink" xml:space="preserve" xmlns:serif="http://www.serif.com/" style="fill-rule:evenodd;clip-rule:evenodd;stroke-linecap:round;stroke-miterlimit:10;">
    <g transform="matrix(1,0,0,1,-2915,-5.70655e-14)">
        <g id="Regulus_Main" transform="matrix(1.5873,0,0,1.42857,2908.65,1.42857)">
            <rect x="4" y="-1" width="756" height="840" style="fill:none;"/>
            <clipPath id="_clip1">
                <rect x="4" y="-1" width="756" height="840"/>
            </clipPath>
            <g clip-path="url(#_clip1)">
                <g transform="matrix(0.39375,0,0,0.805571,4,-30.8674)">
                    <g id="Background">
                        <rect x="0" y="37.076" width="1920" height="1042.74" style="fill:rgb(239,244,238);"/>
                    </g>
                </g>
                <g id="Artwork" transform="matrix(0.63,0,0,0.7,59.44,60.6)">
                    <g transform="matrix(-2,0,0,2,203.659,923.386)">
                        <path d="M-308.341,0L0,0" style="fill:none;stroke:rgb(21,0,62);stroke-width:6px;"/>
                    </g>
                    <g>
                        <g transform="matrix(2,0,0,2,407.482,371.127)">
                            <path d="M0,-25.122L96.423,-25.122L104.594,-22.003L98.449,0L6.068,0L0,-25.122Z" style="fill:rgb(37,232,153);fill-rule:nonzero;"/>
                        </g>
                        <g transform="matrix(2,0,0,2,578.262,371.128)">
                            <path d="M0,27.197L-66.263,27.197C-73.475,27.197 -79.321,21.35 -79.321,14.138L-79.321,0L13.059,0L13.059,14.138C13.059,21.35 7.212,27.197 0,27.197Z" style="fill:rgb(239,244,238);fill-rule:nonzero;stroke:rgb(21,0,62);stroke-width:6px;"/>
                        </g>
                        <g transform="matrix(2,0,0,2,478.127,173.849)">
                            <path d="M0,73.517C-14.503,67.148 -24.631,52.658 -24.631,35.803C-24.631,25.856 -21.103,16.732 -15.23,9.615C-7.678,0.465 39.825,0 47.368,8.515C53.803,15.779 57.71,25.335 57.71,35.803C57.71,52.657 47.583,67.145 33.083,73.515" style="fill:rgb(15,206,124);fill-rule:nonzero;"/>
                        </g>
                        <g transform="matrix(2,0,0,2,472.923,197.037)">
                            <path d="M0,61.921C-14.351,54.939 -24.241,40.216 -24.241,23.184C-24.241,14.648 -21.757,6.692 -17.472,0" style="fill:none;stroke:rgb(21,0,62);stroke-width:6px;"/>
                        </g>
                        <g transform="matrix(2,0,0,2,580.011,320.439)">
                            <path d="M0,-63.965C5.232,-56.836 8.322,-48.038 8.322,-38.517C8.322,-21.662 -1.364,-7.069 -15.473,0" style="fill:none;stroke:rgb(21,0,62);stroke-width:6px;"/>
                        </g>
                        <g transform="matrix(2,0,0,2,389.371,248.5)">
                            <path d="M0,1.773C0,-32.09 27.451,-59.541 61.314,-59.541C95.177,-59.541 122.629,-32.09 122.629,1.773L107.504,61.314L15.124,61.314L0,1.773Z" style="fill:none;stroke:rgb(21,0,62);stroke-width:6px;"/>
                        </g>
                        <g transform="matrix(0,-2,-2,0,447.724,191.919)">
                            <path d="M-29.176,29.176L29.176,29.176" style="fill:none;stroke:rgb(21,0,62);stroke-width:6px;"/>
                        </g>
                        <g transform="matrix(0,-2,-2,0,709.457,175.443)">
                            <path d="M-37.414,37.414L37.414,37.414" style="fill:none;stroke:rgb(21,0,62);stroke-width:6px;"/>
                        </g>
                        <g transform="matrix(2,0,0,2,398.923,218.159)">
                            <path d="M0,42.266L-6.329,42.266C-11.45,42.266 -15.64,38.076 -15.64,32.956L-15.64,9.31C-15.64,4.19 -11.45,0 -6.329,0L-3.645,0" style="fill:none;stroke:rgb(21,0,62);stroke-width:6px;"/>
                        </g>
                        <g transform="matrix(2,0,0,2,625.515,218.159)">
                            <path d="M0,42.266L6.33,42.266C11.45,42.266 15.64,38.076 15.64,32.956L15.64,9.31C15.64,4.19 11.45,0 6.33,0L3.645,0" style="fill:none;stroke:rgb(21,0,62);stroke-width:6px;"/>
                        </g>
                        <g transform="matrix(2,0,0,2,390.69,179.244)">
                            <path d="M0,26.145C15.772,9.991 37.56,0 61.626,0C84.383,0 105.102,8.933 120.624,23.562" style="fill:none;stroke:rgb(21,0,62);stroke-width:6px;"/>
                        </g>
                        <g transform="matrix(2,0,0,2,407.482,320.875)">
                            <path d="M0,0L104.594,0" style="fill:none;stroke:rgb(21,0,62);stroke-width:6px;"/>
                        </g>
                        <g transform="matrix(2,0,0,2,555.037,218.159)">
                            <path d="M0,0C0,5.932 -4.809,10.74 -10.74,10.74C-16.672,10.74 -21.48,5.932 -21.48,0C-21.48,-5.932 -16.672,-10.74 -10.74,-10.74C-4.809,-10.74 0,-5.932 0,0" style="fill:white;fill-rule:nonzero;"/>
                        </g>
                        <g transform="matrix(2,0,0,2,570.386,250.272)">
                            <path d="M0,0C0,2.398 -1.944,4.343 -4.343,4.343C-6.741,4.343 -8.685,2.398 -8.685,0C-8.685,-2.398 -6.741,-4.343 -4.343,-4.343C-1.944,-4.343 0,-2.398 0,0" style="fill:white;fill-rule:nonzero;"/>
                        </g>
                        <g transform="matrix(2,0,0,2,586.175,338.003)">
                            <path d="M0,8C-5.29,8 -5.29,0 -10.581,0C-15.871,0 -15.871,8 -21.161,8C-26.453,8 -26.453,0 -31.745,0C-37.039,0 -37.039,8 -42.332,8C-47.624,8 -47.624,0 -52.916,0C-58.212,0 -58.212,8 -63.507,8C-68.803,8 -68.803,0 -74.098,0" style="fill:none;stroke:rgb(21,0,62);stroke-width:6px;"/>
                        </g>
                    </g>
                    <g transform="matrix(0,2,2,0,481.051,572.743)">
                        <path d="M-25.388,-25.388L25.388,-25.388" style="fill:none;stroke:rgb(37,232,153);stroke-width:7px;"/>
                    </g>
                    <g transform="matrix(0,2,2,0,527.962,626.283)">
                        <path d="M-36.984,-36.984L36.984,-36.984" style="fill:none;stroke:rgb(37,232,153);stroke-width:7px;"/>
                    </g>
                    <g transform="matrix(2,0,0,2,422.709,671.141)">
                        <path d="M0,0C0,-16.948 -13.739,-30.687 -30.687,-30.687C-47.635,-30.687 -61.374,-16.948 -61.374,0C-61.374,16.948 -47.635,30.687 -30.687,30.687" style="fill:none;stroke:rgb(37,232,153);stroke-width:7px;"/>
                    </g>
                    <g transform="matrix(2,0,0,2,405.686,703.811)">
                        <path d="M0,28.703C0,12.851 -12.851,0 -28.703,0C-44.555,0 -57.406,12.851 -57.406,28.703" style="fill:rgb(239,244,238);fill-rule:nonzero;stroke:rgb(37,232,153);stroke-width:7px;"/>
                    </g>
                    <g transform="matrix(2,0,0,2,290.873,835.565)">
                        <path d="M0,-37.174C-10.265,-37.174 -18.587,-28.852 -18.587,-18.587C-18.587,-8.321 -10.265,0 0,0C10.265,0 18.587,-8.321 18.587,-18.587" style="fill:rgb(239,244,238);fill-rule:nonzero;stroke:rgb(37,232,153);stroke-width:7px;"/>
                    </g>
                    <g transform="matrix(2,0,0,2,653.317,839.188)">
                        <path d="M0,-31.87C-2.755,-27.198 -4.336,-21.751 -4.336,-15.935C-4.336,1.414 9.729,15.479 27.078,15.479C44.427,15.479 58.492,1.414 58.492,-15.935C58.492,-33.284 44.427,-47.349 27.078,-47.349C25.912,-47.349 24.761,-47.285 23.628,-47.161" style="fill:rgb(239,244,238);fill-rule:nonzero;stroke:rgb(37,232,153);stroke-width:7px;"/>
                    </g>
                    <g transform="matrix(2,0,0,2,623.33,679.035)">
                        <path d="M0,43.382C1.873,49.844 9.897,52.89 17.121,52.89C28.256,52.89 37.283,43.863 37.283,32.728C37.283,21.946 28.818,13.14 18.172,12.593C17.426,12.555 16.697,12.359 16.026,12.031C14.344,11.207 13.182,9.602 12.918,7.747C11.529,-2.007 3.143,-9.508 -6.995,-9.508C-18.104,-9.508 -27.11,-0.502 -27.11,10.607" style="fill:rgb(239,244,238);fill-rule:nonzero;stroke:rgb(37,232,153);stroke-width:7px;"/>
                    </g>
                    <g transform="matrix(2,0,0,2,432.64,809.629)">
                        <path d="M0,-19.326C-7.213,-26.119 -18.566,-25.779 -25.359,-18.566C-32.152,-11.354 -31.812,0 -24.599,6.793" style="fill:rgb(239,244,238);fill-rule:nonzero;stroke:rgb(37,232,153);stroke-width:7px;"/>
                    </g>
                    <g transform="matrix(0,-2,-2,0,552.741,697.49)">
                        <path d="M-28.776,28.776L28.776,28.776" style="fill:rgb(239,244,238);fill-rule:nonzero;stroke:rgb(37,232,153);stroke-width:7px;"/>
                    </g>
                    <g transform="matrix(0,-2,-2,0,526.603,854.629)">
                        <path d="M-15.707,15.707L15.707,15.707" style="fill:rgb(239,244,238);fill-rule:nonzero;stroke:rgb(37,232,153);stroke-width:7px;"/>
                    </g>
                    <g transform="matrix(0,2,2,0,545.436,561.969)">
                        <path d="M-9.246,-9.246L9.246,-9.246" style="fill:rgb(239,244,238);fill-rule:nonzero;stroke:rgb(37,232,153);stroke-width:7px;"/>
                    </g>
                    <g transform="matrix(0,2,2,0,504.863,511.371)">
                        <path d="M-15.151,-15.151L15.151,-15.151" style="fill:rgb(239,244,238);fill-rule:nonzero;stroke:rgb(37,232,153);stroke-width:7px;"/>
                    </g>
                    <g transform="matrix(2,0,0,2,203.659,923.385)">
                        <path d="M0,0L308.341,0L0,0Z" style="fill:rgb(21,0,62);fill-rule:nonzero;"/>
                    </g>
                    <g transform="matrix(0,2,2,0,730.77,656.555)">
                        <path d="M-80.83,-80.83L80.83,-80.83" style="fill:none;stroke:rgb(37,232,153);stroke-width:7px;"/>
                    </g>
                </g>
            </g>
        </g>
    </g>
</svg>
