<?xml version="1.0" encoding="utf-8"?>
<!-- Generator: Adobe Illustrator 16.0.0, SVG Export Plug-In . SVG Version: 6.00 Build 0)  -->
<!DOCTYPE svg PUBLIC "-//W3C//DTD SVG 1.1//EN" "http://www.w3.org/Graphics/SVG/1.1/DTD/svg11.dtd">
<svg version="1.1" id="TREE" xmlns="http://www.w3.org/2000/svg" xmlns:xlink="http://www.w3.org/1999/xlink" x="0px" y="0px"
	 width="792px" height="612px" viewBox="0 0 792 612" enable-background="new 0 0 792 612" xml:space="preserve">
<path fill="none" stroke="#BCBEC0" stroke-width="4.5" stroke-linecap="round" stroke-linejoin="round" stroke-miterlimit="10" d="
	M132.5,452.667c0,0,22.848-9.914,67.5-9.914c40,0,44.5,14.7,73,13.224s38.575-29.078,74.333-26.31S464.806,447.98,486,448
	s100.975-5.127,120-4c55,3.257,83,11.977,83,11.977"/>
<path fill="#D1D3D4" d="M249.333,535.667c3.965,4.696,13,15.601,28.667,17.467s24-2.467,39,4.533s26.667-12.124,48.667,0
	c12.665,6.979,26.642-2.667,52.496,5.333c13.969,4.322,24.285-17.457,57.838-9.866c16.955,3.836,29-10.8,53.146-8.467
	c15.005,1.45,36.52-9,35.187-17s18.668-39-5.666-45s-297,10.414-303,14.207S236.667,520.667,249.333,535.667z"/>
<g>
	<path fill="#FFFFFF" d="M595.388,517.765c-4.19,0-8.007-2.302-9.96-6.007l-14.495-25.123l-52.647-64.495
		c-3.727-4.565-3.343-11.1,0.892-15.198l11.306-10.94l-24.342-18.725c-1.467-1.128-2.643-2.615-3.399-4.301l-24-53.334
		c-1.83-4.066-1.084-8.835,1.902-12.148l1.332-1.479l-24.488-25.932c-2.263-2.395-3.358-5.648-3.007-8.924
		c0.315-2.945,1.771-5.624,4.038-7.487l-22.58-15.6c-3.838-2.651-5.626-7.298-4.555-11.839c1.07-4.541,4.747-7.898,9.366-8.555
		l8.407-1.195l-21.934-30.953c-3.54-4.994-2.485-11.795,2.4-15.483l0.138-0.104l-15.943-15.524
		c-3.63-3.534-4.447-9.096-1.986-13.524l3.761-6.77l-7.459-14.667c-0.174-0.341-0.329-0.692-0.468-1.05l-5.687-14.759
		l-11.359,16.968c-0.215,0.32-0.445,0.629-0.691,0.925l-20.521,24.739c1.211,0.981,2.217,2.21,2.935,3.608
		c2.4,4.678,1.275,10.319-2.735,13.718l-46.603,39.501h1.826c3.488,0,6.833,1.656,8.947,4.431c2.114,2.773,2.825,6.438,1.9,9.801
		l-9.164,33.334c-0.311,1.128-0.792,2.195-1.432,3.174l-20.11,30.756c2.969,0.17,5.767,1.513,7.756,3.742
		c2.595,2.91,3.496,6.882,2.408,10.625L282.47,421.495c-0.484,1.67-1.365,3.228-2.546,4.505l-63.138,63.367
		c-2.064,2.233-5.075,3.55-8.202,3.55c-2.84,0-5.552-1.063-7.638-2.992c-4.554-4.213-4.831-11.345-0.617-15.898l55.423-65.179
		l21.895-59.884c-1.164-0.457-3.068-1.19-6.18-2.364c-3.599-1.357-5.689-3.361-6.212-5.956c-0.801-3.977,2.58-7.314,2.968-7.683
		l0.164-0.154l0.19-0.119c0.048-0.03,5.337-3.433,6.247-8.501c0.477-2.657-0.355-5.415-2.474-8.197
		c-2.652-3.483-2.692-8.488-0.099-12.454l33.036-50.525l4.784-17.402h-17.737c-4.699,0-8.943-2.964-10.562-7.376
		c-1.618-4.412-0.296-9.417,3.288-12.456l48.512-41.119c-1.949-3.95-1.423-8.7,1.438-12.148l37.236-44.889l12.975-19.381
		l3.307-23.451c0.715-5.074,4.771-9.025,9.861-9.607c0.424-0.048,0.854-0.073,1.277-0.073c4.618,0,8.838,2.896,10.499,7.205
		l18.287,47.46l9.91,19.485c1.697,3.339,1.625,7.288-0.194,10.563l-2.488,4.479l19.169,18.664c2.354,2.292,3.586,5.486,3.38,8.765
		c-0.206,3.28-1.828,6.295-4.449,8.274l-1.885,1.423l26.285,37.094c2.252,3.177,2.694,7.375,1.154,10.953
		c-1.316,3.057-3.954,5.373-7.1,6.325l12.494,8.632c3.048,2.105,4.863,5.575,4.855,9.279c-0.008,3.705-1.837,7.167-4.896,9.26
		l-1.804,1.235l22.576,23.907c3.996,4.23,4.074,10.932,0.179,15.255l-3.367,3.736l19.828,44.063l32.426,24.942
		c2.594,1.995,4.188,5.014,4.372,8.28c0.186,3.267-1.057,6.445-3.408,8.722l-12.866,12.451l51.82,40.559
		c0.976,0.633,2.052,1.95,2.091,3.758c0.058,2.637-2.03,5.267-6.382,8.038c-1.306,0.832-2.53,1.729-3.46,2.443l2.355,2.886
		c0.473,0.579,0.89,1.209,1.238,1.869l15.006,26.08c2.933,5.56,0.821,12.378-4.667,15.271
		C599.012,517.315,597.201,517.765,595.388,517.765z"/>
	<path fill="#343333" d="M399.665,67.359c3.684,0,7.049,2.26,8.399,5.764l18.329,47.568l9.962,19.588
		c1.356,2.667,1.298,5.834-0.155,8.451l-3.324,5.983l20.402,19.865c1.881,1.831,2.868,4.393,2.704,7.012
		c-0.165,2.62-1.465,5.038-3.56,6.619l-3.628,2.738l27.548,38.875c1.814,2.56,2.164,5.88,0.924,8.763
		c-1.241,2.882-3.894,4.91-7,5.352l-3.889,0.552l17.07,11.793c2.438,1.685,3.891,4.461,3.885,7.424
		c-0.006,2.963-1.471,5.733-3.916,7.407l-3.977,2.723l24.384,25.821c3.221,3.41,3.282,8.72,0.143,12.205l-4.35,4.826l20.662,45.917
		l32.874,25.287c2.073,1.595,3.351,4.013,3.498,6.624c0.148,2.611-0.847,5.158-2.727,6.978l-14.723,14.248l53.95,42.226
		c0,0,4.423,2.554-4.209,8.052c-2.933,1.868-5.428,4.007-5.428,4.007l3.789,4.643c0.379,0.464,0.711,0.965,0.99,1.495l15.047,26.153
		c2.317,4.396,0.632,9.84-3.766,12.158c-1.338,0.705-2.774,1.04-4.188,1.04c-3.233,0-6.357-1.747-7.97-4.806l-14.627-25.356
		l-52.763-64.636c-2.957-3.623-2.647-8.906,0.713-12.159l13.178-12.752l-26.406-20.313c-1.177-0.905-2.111-2.087-2.72-3.44
		l-24-53.334c-1.465-3.255-0.868-7.067,1.521-9.719l2.723-3.021l-25.914-27.441c-1.808-1.913-2.687-4.522-2.405-7.139
		c0.28-2.617,1.692-4.979,3.864-6.466l1.868-1.279l-25.232-17.433c-3.049-2.106-4.495-5.865-3.645-9.471
		c0.851-3.606,3.825-6.323,7.493-6.844l12.06-1.714l-24.066-33.962c-2.813-3.969-1.963-9.456,1.92-12.387l2.229-1.683
		l-17.821-17.353c-2.911-2.834-3.563-7.268-1.589-10.819l4.342-7.816l-8.001-15.733c-0.14-0.274-0.265-0.556-0.376-0.843
		l-7.243-18.798l-13.77,20.569c-0.171,0.256-0.355,0.502-0.552,0.739l-22.163,26.718c1.809,0.816,3.347,2.229,4.305,4.095
		c1.909,3.722,1.003,8.269-2.188,10.974l-51.282,43.467h7.96c2.808,0,5.456,1.311,7.158,3.544c1.703,2.233,2.265,5.133,1.521,7.841
		l-9.164,33.333c-0.248,0.901-0.634,1.757-1.146,2.54l-22.717,34.744l2.341-0.398c0.502-0.085,1.006-0.126,1.506-0.126
		c2.544,0,4.996,1.076,6.72,3.008c2.063,2.313,2.791,5.524,1.927,8.5L280.31,420.868c-0.39,1.344-1.087,2.577-2.037,3.604
		l-63.081,63.308c-1.773,1.917-4.187,2.888-6.608,2.888c-2.187,0-4.379-0.792-6.11-2.394c-3.648-3.376-3.87-9.07-0.494-12.719
		l55.747-65.557l22.766-62.266c0,0,0.017,0.004,0.026,0.004c0.068,0-0.173-0.192-8.259-3.242c-9.257-3.491-2.491-9.899-2.491-9.899
		s13.258-8.297,4.37-19.969c-2.168-2.847-1.964-6.864-0.005-9.859l33.229-50.82l5.66-20.588h-20.689
		c-3.775,0-7.149-2.356-8.45-5.901c-1.3-3.544-0.25-7.523,2.63-9.965l49.98-42.364c-0.157-0.207-0.305-0.421-0.445-0.644
		c-2.072-3.293-1.793-7.544,0.691-10.539l37.31-44.978l13.326-19.905l3.379-23.961c0.572-4.06,3.816-7.22,7.889-7.686
		C398.985,67.378,399.327,67.359,399.665,67.359 M399.665,62.859c-0.509,0-1.023,0.029-1.529,0.087
		c-6.113,0.699-10.979,5.439-11.837,11.529l-3.235,22.941l-12.625,18.858l-37.162,44.8c-3.042,3.667-3.883,8.561-2.408,12.926
		l-47.264,40.062c-4.301,3.646-5.887,9.653-3.946,14.947c1.942,5.294,7.036,8.852,12.675,8.852h14.785l-3.908,14.216l-32.842,50.23
		c-3.114,4.761-3.037,10.809,0.191,15.048c1.74,2.284,2.412,4.384,2.053,6.417c-0.596,3.379-3.993,6.216-5.251,7.024l-0.381,0.238
		l-0.305,0.295c-0.481,0.455-4.667,4.598-3.626,9.761c0.472,2.341,2.177,5.563,7.624,7.617c1.714,0.646,3.055,1.156,4.104,1.559
		l-20.999,57.433l-55.17,64.878c-2.403,2.637-3.649,6.048-3.511,9.616c0.14,3.604,1.674,6.937,4.321,9.386
		c2.503,2.315,5.758,3.591,9.167,3.591c3.721,0,7.305-1.554,9.848-4.265l63.028-63.254l0.059-0.06l0.056-0.061
		c1.418-1.533,2.475-3.402,3.056-5.407L317.298,309.6c1.304-4.492,0.224-9.258-2.89-12.75c-1.566-1.755-3.549-3.052-5.733-3.794
		l18.291-27.975c0.768-1.174,1.346-2.455,1.718-3.807l9.164-33.335c1.109-4.037,0.257-8.434-2.281-11.762
		c-1.774-2.328-4.271-4-7.043-4.795l42.539-36.056c4.812-4.079,6.162-10.847,3.283-16.46c-0.51-0.994-1.142-1.917-1.875-2.75
		l19.192-23.136c0.291-0.35,0.57-0.724,0.827-1.107l8.948-13.367l4.127,10.71c0.171,0.44,0.359,0.864,0.564,1.267l6.916,13.599
		l-3.18,5.724c-2.953,5.313-1.973,11.987,2.383,16.229l14.22,13.845c-4.277,4.608-4.851,11.636-1.079,16.956l19.801,27.942
		l-4.756,0.676c-5.543,0.788-9.955,4.818-11.24,10.266c-1.285,5.449,0.86,11.025,5.467,14.207l20.394,14.089
		c-1.551,1.97-2.537,4.355-2.811,6.907c-0.422,3.931,0.894,7.834,3.609,10.708l23.063,24.422c-3.535,3.973-4.41,9.661-2.226,14.515
		l24,53.334c0.908,2.021,2.319,3.807,4.079,5.16l22.276,17.136l-9.433,9.129c-5.082,4.919-5.542,12.76-1.07,18.238l52.533,64.354
		l14.406,24.974c2.356,4.397,6.909,7.125,11.906,7.125c2.178,0,4.351-0.539,6.286-1.559c6.586-3.473,9.119-11.653,5.648-18.238
		l-0.038-0.073l-0.042-0.072l-15.009-26.087c-0.409-0.765-0.895-1.492-1.443-2.164l-0.858-1.051c0.456-0.319,0.938-0.643,1.43-0.956
		c1.863-1.188,7.535-4.8,7.422-9.985c-0.057-2.618-1.583-4.55-3.011-5.526l-49.729-38.921l11.011-10.655
		c2.821-2.73,4.313-6.546,4.09-10.466c-0.222-3.919-2.135-7.541-5.248-9.936l-31.978-24.599l-18.993-42.208l2.384-2.645
		c4.676-5.189,4.581-13.23-0.214-18.307l-20.773-21.998c3.45-2.532,5.502-6.557,5.511-10.854c0.009-4.446-2.17-8.608-5.827-11.135
		l-9.342-6.454c2.059-1.424,3.724-3.41,4.735-5.761c1.849-4.295,1.317-9.332-1.385-13.145l-25.023-35.312l0.143-0.107
		c3.146-2.375,5.092-5.994,5.34-9.928c0.246-3.936-1.232-7.77-4.057-10.52l-17.936-17.463l1.652-2.974
		c2.184-3.931,2.271-8.669,0.232-12.676l-9.856-19.382l-18.246-47.353C410.27,66.333,405.207,62.859,399.665,62.859L399.665,62.859z
		"/>
</g>
<g>
	
		<polygon fill="#0FCE7C" stroke="#343333" stroke-width="4.5" stroke-linecap="round" stroke-linejoin="round" stroke-miterlimit="10" points="
		580.333,483 593.666,517.436 551,502.333 546.333,517.436 517.666,499.666 505.666,539.263 478.096,520.273 466.194,532.187 
		433.39,526.42 426.589,543.031 407.354,530.543 384.332,550.134 360.999,531.93 338.999,545.263 313,523.93 279,533.666 
		266.226,509.357 225,523.666 229,503 205.667,492.333 271.667,421 304.333,308.477 281.667,312.333 315.667,260.333 324.83,227 
		292.333,227 362.333,167.667 343.667,172.333 381.272,127 396,105 399.666,79 418.162,127 428.333,147 421.666,159 447,183.667 
		436.402,191.667 469,237.667 442.333,241.457 478.333,266.328 465.666,275 497.281,308.477 489,317.666 513,371 547.666,397.666 
		527,417.666 	"/>
	
		<polyline fill="#0FCE7C" stroke="#343333" stroke-width="4.5" stroke-linecap="round" stroke-linejoin="round" stroke-miterlimit="10" points="
		285.686,439.404 286.567,461.77 313.297,457.031 331.839,472.516 367.172,461.096 379.839,481.096 401.839,467.763 
		425.171,485.967 448.194,466.376 467.429,478.864 474.229,462.253 507.034,468.02 507.194,448.02 577.334,462.667 533.792,425.986 
			"/>
	
		<polyline fill="#0FCE7C" stroke="#343333" stroke-width="4.5" stroke-linecap="round" stroke-linejoin="round" stroke-miterlimit="10" points="
		285.686,371 265.262,412.334 292.458,407.491 311,422.976 352.109,398.104 364.775,418.104 386.775,404.771 410.107,422.976 
		439.766,418.793 459,431.281 465.801,414.67 489,417.667 493.334,395 525.334,403.33 513,371 	"/>
	
		<polyline fill="#0FCE7C" stroke="#343333" stroke-width="4.5" stroke-linecap="round" stroke-linejoin="round" stroke-miterlimit="10" points="
		300.891,320.333 278,339.334 303.544,346.444 322.086,361.929 357.419,350.509 370.086,370.509 392.086,357.176 415.418,375.38 
		438.441,355.789 457.676,368.277 464.477,351.666 486,364 486,346.334 	"/>
	
		<polyline fill="#0FCE7C" stroke="#343333" stroke-width="4.5" stroke-linecap="round" stroke-linejoin="round" stroke-miterlimit="10" points="
		383.805,302.129 407.137,320.333 430.16,300.742 449.395,313.23 456.195,296.619 490.764,301.575 	"/>
	
		<polyline fill="#0FCE7C" stroke="#343333" stroke-width="4.5" stroke-linecap="round" stroke-linejoin="round" stroke-miterlimit="10" points="
		332.669,250.343 360.163,241.457 372.83,261.457 394.83,248.124 418.162,266.328 	"/>
	
		<polyline fill="#0FCE7C" stroke="#343333" stroke-width="4.5" stroke-linecap="round" stroke-linejoin="round" stroke-miterlimit="10" points="
		431.51,202.667 423.334,221 392.643,209.333 	"/>
	
		<polyline fill="#0FCE7C" stroke="#343333" stroke-width="4.5" stroke-linecap="round" stroke-linejoin="round" stroke-miterlimit="10" points="
		362.333,167.667 362.333,181 379,174.333 	"/>
	
		<polyline fill="#0FCE7C" stroke="#343333" stroke-width="4.5" stroke-linecap="round" stroke-linejoin="round" stroke-miterlimit="10" points="
		304.333,308.477 309,314.566 327.667,311.521 332.669,320.333 	"/>
	
		<polyline fill="#0FCE7C" stroke="#343333" stroke-width="4.5" stroke-linecap="round" stroke-linejoin="round" stroke-miterlimit="10" points="
		241.667,473.334 244.667,490.334 268,483.667 271,495.334 299.333,493 316,508 332.669,495.667 	"/>
	
		<polyline fill="#0FCE7C" stroke="#343333" stroke-width="4.5" stroke-linecap="round" stroke-linejoin="round" stroke-miterlimit="10" points="
		298.333,370 304.333,380.333 325,375.38 326.333,391.333 347.333,375.38 368.333,391.333 	"/>
	
		<polyline fill="#0FCE7C" stroke="#343333" stroke-width="4.5" stroke-linecap="round" stroke-linejoin="round" stroke-miterlimit="10" points="
		415.667,340.334 420.333,343.334 423.667,326.334 434.333,342 447.333,334.834 462,339.667 464,330.667 	"/>
	
		<polyline fill="#0FCE7C" stroke="#343333" stroke-width="4.5" stroke-linecap="round" stroke-linejoin="round" stroke-miterlimit="10" points="
		324,285.333 324,292 335,279.333 345.667,303.667 355.333,291.5 	"/>
	
		<polyline fill="#0FCE7C" stroke="#343333" stroke-width="4.5" stroke-linecap="round" stroke-linejoin="round" stroke-miterlimit="10" points="
		326,329 330.333,335.333 351.333,316.334 359,338.667 370.667,324 385,343.334 	"/>
	
		<polyline fill="#0FCE7C" stroke="#343333" stroke-width="4.5" stroke-linecap="round" stroke-linejoin="round" stroke-miterlimit="10" points="
		408.09,287 418.499,293.333 428.757,275.667 437.933,284.5 446.257,265.333 	"/>
	
		<polyline fill="#0FCE7C" stroke="#343333" stroke-width="4.5" stroke-linecap="round" stroke-linejoin="round" stroke-miterlimit="10" points="
		339.667,206.333 339.667,219.333 350.667,209.667 362.333,223 377.667,221 390,236.667 	"/>
	
		<polyline fill="#0FCE7C" stroke="#343333" stroke-width="4.5" stroke-linecap="round" stroke-linejoin="round" stroke-miterlimit="10" points="
		392.643,144 399.666,154.333 406,134.667 415.667,140.333 422.722,135.966 	"/>
	
		<polyline fill="#0FCE7C" stroke="#343333" stroke-width="4.5" stroke-linecap="round" stroke-linejoin="round" stroke-miterlimit="10" points="
		347.333,435 355.5,448 388,429.667 401.667,452.667 421,443.334 437.284,452.667 	"/>
	
		<path fill="#0FCE7C" stroke="#343333" stroke-width="4.5" stroke-linecap="round" stroke-linejoin="round" stroke-miterlimit="10" d="
		M406,505.334c-1,0.666,9.667,13.333,9.667,13.333l9.333-8.333L448,512l11.333-17.666l24.334,9.333l15-17.7l33,4.7"/>
	
		<polyline fill="#0FCE7C" stroke="#343333" stroke-width="4.5" stroke-linecap="round" stroke-linejoin="round" stroke-miterlimit="10" points="
		434,401.141 452,403.667 459.333,386.334 468.801,393.667 481.333,380.666 	"/>
</g>
<g>
	<path fill="#FFFFFF" d="M384.057,545.767c-0.976,0-1.953-0.316-2.768-0.952l-19.611-16.519l-19.346,11.725
		c-1.633,0.988-3.711,0.841-5.187-0.37l-24.128-19.797l-28.849,8.927c-2.072,0.644-4.305-0.286-5.313-2.205l-10.936-20.811
		l-32.952,12c-1.524,0.563-3.572,0.955-4.812-0.097s-1.443-0.674-1.183-3.724l2.578-13.318l-24.997-10.451
		c-2.268-1.018-3.282-3.68-2.265-5.948c1.017-2.268,3.681-3.279,5.947-2.265l26.523,11.49c1.907,0.855,2.974,2.91,2.577,4.962
		c0,0-1.999,4.772,1.314,5.877s27.146-5.882,27.146-5.882c2.119-0.785,4.493,0.126,5.545,2.127c0,0,8.563,12.621,12.344,13.71
		s26.983-3.706,26.983-3.706c1.443-0.446,3.016-0.139,4.185,0.82c0,0,21.112,14.164,24.142,14.481s18.67-6.852,18.67-6.852
		c1.597-0.967,3.627-0.849,5.101,0.301c0,0,17.994,11.17,21.046,11.117s20.12-10.668,20.12-10.668
		c1.538-1.31,3.761-1.434,5.436-0.302c0,0,5.836,5.414,8.642,4.512s10.382-6.186,10.382-6.186c0.8-1.93,3.99-2.148,6.051-1.813
		c0,0,24.521-1.051,27.68-1.496s10.407-7.316,10.407-7.316c1.592-1.757,4.272-1.975,6.13-0.504c0,0,16.037,11.188,20.215,10.718
		s11.266-22.426,11.266-22.426c0.401-1.324,1.39-2.391,2.679-2.891c1.289-0.502,2.737-0.38,3.928,0.327
		c0,0,17.813,3.438,21.056,2.382s2.065-3.363,2.065-3.363c0.374-1.147,1.193-2.097,2.273-2.634c1.081-0.539,2.332-0.621,3.472-0.226
		l48.218,17.867c2.35,0.81,3.598,3.371,2.787,5.721c-0.81,2.35-3.373,3.6-5.721,2.787l-43.891-16.375l-2.996,9.19
		c-0.424,1.3-1.415,2.337-2.694,2.817s-2.707,0.355-3.884-0.344l-22.135-13.159l-11.269,32.374c-0.432,1.426-1.542,2.546-2.964,2.99
		c-1.42,0.445-2.971,0.157-4.139-0.769l-20.558-15.319l-11.781,11.099c-1.025,1.132-2.552,1.665-4.064,1.418l-31.014-5.634
		l-3.118,8.916c-0.752,1.294-1.348,5.004-3.561,5.389s-3.283-1.196-5.773-2.983c-2.134-1.531-11.665-7.189-11.665-7.189
		l-20.419,17.375C386.531,545.479,385.096,545.767,384.057,545.767z"/>
	<path fill="#FFFFFF" d="M425.171,481.376c-0.977,0-1.953-0.316-2.769-0.952l-20.836-16.257l-17.391,10.988
		c-2.092,1.32-4.855,0.706-6.19-1.373l-10.248-15.956l-33.967,11.006c-1.438,0.464-3.013,0.179-4.194-0.765l-17.197-13.727
		l-17.873,3.396c-1.289,0.242-2.616-0.084-3.641-0.898c-1.025-0.815-1.644-2.037-1.696-3.346l-0.424-12.64
		c-0.098-2.483,1.836-4.575,4.319-4.673c2.51-0.115,4.576,1.835,4.674,4.319c0,0-0.071,3.29,1.471,4.062s13.521,0.553,13.521,0.553
		c1.29-0.242,2.621,0.085,3.647,0.904c0,0,14.71,9.086,17.239,9.352s34.557-4.923,34.557-4.923c1.945-0.627,4.069,0.129,5.174,1.85
		c0,0,6.617,8.546,10.114,8.71s16.017-4.229,16.017-4.229c1.605-1.015,3.675-0.91,5.172,0.257c0,0,17.141,10.096,20.715,9.885
		s19.912-13.06,19.912-13.06c1.559-1.328,3.819-1.436,5.497-0.259c0,0,8.962,4.703,11.61,3.754s3.639-5.509,3.639-5.509
		c0.818-1.999,2.939-3.133,5.058-2.705c0,0,23.52,1.831,24.926,0.833s-0.202-10.387-0.202-10.387
		c0.011-1.348,0.626-2.62,1.675-3.467c1.05-0.846,2.424-1.177,3.743-0.902l78.457,16.354c2.434,0.507,3.994,2.891,3.487,5.323
		c-0.507,2.434-2.896,3.992-5.323,3.487l-73.083-15.234l-0.116,14.511c-0.011,1.344-0.622,2.612-1.666,3.459
		c-1.042,0.847-2.409,1.185-3.728,0.915l-26.31-5.333l-4.68,11.43c-0.518,1.266-1.584,2.228-2.896,2.612
		c-1.311,0.388-2.728,0.153-3.849-0.632l-13.056-9.144l-20.375,17.337C427.248,481.017,426.21,481.376,425.171,481.376z"/>
	<path fill="#FFFFFF" d="M456.104,425.289c-0.852,0-1.695-0.241-2.429-0.712l-13.186-8.454l-28.006,3.95
		c-1.206,0.17-2.433-0.157-3.395-0.907l-21.876-17.052l-17.71,10.194c-2.048,1.179-4.658,0.573-5.978-1.388l-10.524-15.637
		l-39.092,24.218c-1.633,1.012-3.729,0.874-5.218-0.341l-17.137-14.011l-26.532,4.917c-2.439,0.448-4.791-1.161-5.245-3.604
		c-0.453-2.444,1.161-4.792,3.605-5.245l28.584-5.297c1.301-0.242,2.643,0.103,3.668,0.941c0,0,14.887,9.958,17.157,9.923
		s37.542-17.098,37.542-17.098c2.058-1.274,4.753-0.694,6.104,1.313c0,0,9.604,8.783,11.896,8.86s17.014-7.057,17.014-7.057
		c1.586-0.913,3.568-0.774,5.011,0.352c0,0,19.266,14.657,22.579,15.157s27.949-1.334,27.949-1.334
		c1.064-0.149,2.15,0.087,3.057,0.668c0,0,5.27,4.826,8.382,4.277s8.28-5.637,8.28-5.637c0.769-2.067,2.924-3.271,5.082-2.85
		c0,0,9.889,1.063,12.476-0.75s5.222-16.516,5.222-16.516c0.238-1.194,0.951-2.241,1.976-2.9s2.272-0.874,3.457-0.6l36.849,9.197
		c2.421,0.564,3.926,2.983,3.362,5.403c-0.564,2.42-2.987,3.927-5.403,3.362l-32.326-8.144l-3.686,18.417
		c-0.486,2.429-2.849,4.014-5.275,3.533l-17.785-3.478l-4.229,11.392c-0.475,1.276-1.501,2.27-2.792,2.701
		C457.065,425.213,456.584,425.289,456.104,425.289z"/>
	<path fill="#FFFFFF" d="M415.418,370.789c-0.977,0-1.953-0.316-2.769-0.952l-20.749-16.188l-16.521,11.205
		c-1.003,0.679-2.238,0.925-3.423,0.685c-1.187-0.241-2.226-0.95-2.883-1.968l-10.362-16.048l-33.646,10.994
		c-1.409,0.462-2.952,0.199-4.13-0.702l-18.701-14.29l-20.946-5.648c-2.393-0.669-3.791-3.152-3.121-5.546
		c0.67-2.393,3.152-3.793,5.546-3.12l21.778,5.88c0.55,0.154,1.065,0.412,1.52,0.759c0,0,12.301,8.288,18.238,9.095
		s32.935-2.779,32.935-2.779c5.69-0.539,11.739,7.85,16.684,8.374s14.65-4.402,14.65-4.402c1.617-1.097,3.755-1.023,5.294,0.177
		c0,0,15.051,9.592,21.213,9.89s19.857-8.346,19.857-8.346c1.558-1.327,3.814-1.437,5.492-0.263c0,0,7.75,2.969,10.375,2.344
		s6.064-3.822,6.064-3.822c2.36-1.837,3.355-2.771,4.592-3.188c1.235-0.417,2.593-0.278,3.719,0.385c0,0,7.938,2.063,10,1.75
		s0.652-4.729,2.78-4.729c2.485,0,4.5,2.015,4.5,4.5v6.756c0,1.614-0.864,3.104-2.266,3.906c-1.401,0.801-3.125,0.791-4.515-0.027
		l-13.667-8.034l-4.833,11.805c-0.518,1.265-1.582,2.226-2.894,2.611c-1.311,0.386-2.727,0.155-3.847-0.627l-12.672-8.848
		l-20.379,17.34C417.495,370.43,416.457,370.789,415.418,370.789z"/>
	<path fill="#FFFFFF" d="M407.137,315.742c-0.977,0-1.953-0.316-2.769-0.952l-19.111-14.912c-1.959-1.529-2.309-4.356-0.78-6.316
		c1.529-1.96,4.357-2.308,6.316-0.78c0,0,11.912,10.078,15.747,10.491s20.634-11.009,20.634-11.009
		c1.557-1.325,3.812-1.435,5.488-0.265c0,0,8.088,5.188,9.838,4.938s5.607-9.829,5.607-9.829c0.81-1.914,2.817-3.026,4.875-2.687
		l37.652,6.19c2.452,0.403,4.113,2.718,3.71,5.17c-0.402,2.453-2.717,4.111-5.171,3.71l-34.157-5.616l-4.562,10.781
		c-0.529,1.25-1.593,2.194-2.896,2.57c-1.303,0.376-2.707,0.145-3.82-0.631l-13.305-9.27l-20.381,17.342
		C409.214,315.383,408.176,315.742,407.137,315.742z"/>
	<path fill="#FFFFFF" d="M419.022,262.41c-0.968,0-1.943-0.311-2.766-0.952l-20.826-16.249l-17.333,11.044
		c-2.07,1.321-4.817,0.736-6.172-1.314l-10.639-16.1l-27.163,7.872c-2.389,0.691-4.883-0.683-5.575-3.07s0.683-4.883,3.07-5.575
		l30.343-8.794c1.892-0.546,3.92,0.198,5.007,1.841c0,0,7.031,12.324,9.906,12.949s16.942-3.56,16.942-3.56
		c1.605-1.025,3.685-0.926,5.187,0.247l22.79,13.612c1.959,1.529,2.309,4.356,0.779,6.316
		C421.686,261.815,420.361,262.41,419.022,262.41z"/>
	<path fill="#FFFFFF" d="M419.347,216.334c-0.533,0-1.073-0.095-1.598-0.294l-22.426-8.524c-2.323-0.883-3.49-3.482-2.607-5.806
		c0.884-2.323,3.483-3.488,5.806-2.607c0,0,14.479,4.772,17.041,4.46s5.614-5.54,5.614-5.54c1.105-2.226,3.805-3.137,6.031-2.03
		c2.227,1.104,3.136,3.805,2.031,6.031l-5.86,11.81C422.599,215.405,421.012,216.334,419.347,216.334z"/>
	<path fill="#FFFFFF" d="M368.942,175.875c-0.9,0-1.793-0.27-2.555-0.795c-1.241-0.855-1.971-2.275-1.945-3.782l0.117-6.789
		l-20.247,5.742c-2.389,0.678-4.879-0.71-5.557-3.102c-0.678-2.391,0.71-4.879,3.102-5.557l26.078-7.396
		c1.369-0.39,2.842-0.106,3.972,0.763c1.129,0.868,1.78,2.22,1.755,3.644c0,0,0.463,2.209,0.588,3.897s1.354,1.363,1.354,1.363
		c2.308-0.924,4.926,0.2,5.85,2.507c0.923,2.308-0.199,4.926-2.507,5.85l-8.333,3.333
		C370.074,175.769,369.507,175.875,368.942,175.875z"/>
	<path fill="#FFFFFF" d="M337.062,316.979c-1.567,0-3.089-0.819-3.918-2.279l-3.45-6.077l-17.289,2.888
		c-1.707,0.28-3.421-0.433-4.417-1.843l-2.961-4.193l-24.967,4.939c-2.44,0.481-4.806-1.103-5.288-3.541s1.103-4.806,3.541-5.288
		l27.832-5.507c1.74-0.345,3.525,0.367,4.549,1.819c0,0,0.806,1.79,3.994,2.603s16.626-1.272,16.626-1.272
		c1.858-0.311,3.722,0.574,4.655,2.217l5.002,8.812c1.227,2.161,0.469,4.908-1.692,6.135
		C338.578,316.79,337.814,316.979,337.062,316.979z"/>
	<path fill="#FFFFFF" d="M316.001,503.409c-1.082,0-2.159-0.389-3.011-1.155l-13.207-11.885l-23.548,1.825
		c-2.174,0.181-4.162-1.25-4.706-3.365l-1.887-7.338l-18.453,4.612c-1.209,0.306-2.493,0.091-3.541-0.59
		c-1.047-0.68-1.765-1.764-1.982-2.993l-1.563-7.92c-0.432-2.447,1.202-4.782,3.649-5.214c2.448-0.432,4.782,1.202,5.214,3.649
		c0,0,0.058,1.803,2.861,2.153s15.968-3.514,15.968-3.514c2.398-0.601,4.833,0.85,5.45,3.244c0,0,0.239,3.461,4.164,6.456
		s19.602-0.129,19.602-0.129c1.231-0.093,2.443,0.317,3.358,1.142c0,0,7.387,6.748,11.382,6.748s9.741-2.871,9.741-2.871
		c1.998-1.478,4.815-1.057,6.294,0.94c1.478,1.998,1.057,4.816-0.941,6.294l-12.169,9.026
		C317.878,503.117,316.938,503.409,316.001,503.409z"/>
	<path fill="#FFFFFF" d="M368.565,387.842c-0.949,0-1.905-0.299-2.719-0.917l-18.296-13.898l-13.318,9.98
		c-1.285,0.963-2.985,1.168-4.461,0.54c-1.477-0.629-2.507-1.996-2.704-3.589l-0.998-8.076l-17.281,5.005
		c-1.987,0.573-4.107-0.276-5.144-2.063L300.844,370c-1.248-2.149-0.707-4.696,1.442-5.944c2.15-1.249,4.903-0.516,6.151,1.632
		l1.225,1.576c2.587,1.486,14.337-0.245,14.337-0.245c1.265-0.368,2.628-0.161,3.729,0.565c1.101,0.726,4.146,3.494,7.208,3.205
		s7.313-4.039,7.313-4.039c5.027-3.104,10.212-0.966,11.813,0.25l17.228,12.759c1.979,1.503,2.365,4.326,0.861,6.305
		C371.267,387.229,369.923,387.842,368.565,387.842z"/>
	<path fill="#FFFFFF" d="M415.233,337.985c-0.851,0-2.434-0.715-2.434-0.715c-2.593-1.118,1.277-4.974,2.867-9.396
		s2.271-7.542,2.271-7.542c0.35-1.781,1.534-4.227,3.313-4.591c1.781-0.362,3.666,0.256,4.688,1.758c0,0,7.945,7.166,11.379,8.114
		s7.6-3.223,7.6-3.223c1.097-0.604,2.393-0.724,3.581-0.333l9.944,3.277c0,0,4.996,0.998,3.059,7.102
		c-1.13,3.559-5.534,1.556-6.74,1.161l-7.216-2.378l-9.471,4.252c-2.031,1.123-4.585,0.513-5.892-1.408l-9.619-13.377l-2.913,13.664
		c-0.287,1.463-1.28,2.688-2.651,3.273C416.432,337.866,415.831,337.985,415.233,337.985z"/>
	<path fill="#FFFFFF" d="M347.696,293.905c-1.705,0-3.335-0.973-4.093-2.624l-7.854-17.112l-6.424,7.397
		c-1.629,1.876-4.471,2.077-6.348,0.447c-1.876-1.629-2.077-4.472-0.447-6.348l11-12.667c1.002-1.155,2.524-1.72,4.036-1.504
		c1.514,0.217,2.813,1.188,3.451,2.578l10.765,23.455c1.037,2.259,0.046,4.93-2.213,5.967
		C348.962,293.773,348.324,293.905,347.696,293.905z"/>
	<path fill="#FFFFFF" d="M386.5,338.251c-1.366,0-2.715-0.619-3.6-1.795l-11.936-15.869l-6.254,7.354
		c-1.062,1.248-2.718,1.821-4.323,1.495c-1.606-0.326-2.908-1.5-3.398-3.063l-4.56-14.531l-18.531,17.078
		c-0.961,0.886-2.258,1.304-3.557,1.163c-1.298-0.147-2.468-0.852-3.207-1.931l-0.977-1.428c-1.403-2.051-0.878-4.852,1.172-6.255
		c0.989-0.676,2.154-0.903,3.25-0.73l20.261-13.224c1.134-1.045,2.722-1.438,4.211-1.039c1.489,0.398,2.67,1.53,3.132,3
		c0,0,3.19,5.395,5.128,5.928s4.441-3.932,4.441-3.932c0.886-1.041,2.188-1.611,3.563-1.583c1.366,0.041,2.64,0.701,3.461,1.793
		l15.316,20.363c1.494,1.986,1.095,4.808-0.891,6.302C388.392,337.957,387.442,338.251,386.5,338.251z"/>
	<path fill="#FFFFFF" d="M416.027,288.717c-0.836,0-1.663-0.233-2.385-0.684l-4.987-3.116c-2.107-1.317-2.748-4.093-1.432-6.201
		c1.317-2.108,5.063-1.459,6.201-1.432s1.138-0.847,1.138-0.847l8.818-13.705c0.694-1.186,1.892-1.99,3.252-2.184
		c1.362-0.193,2.735,0.246,3.731,1.192c0,0,1.761,2.321,3.448,2.134s2.359-2.525,2.359-2.525c0.979-2.285,3.626-3.342,5.91-2.36
		c2.283,0.98,3.34,3.626,2.359,5.91l-4.35,10.133c-0.58,1.353-1.786,2.336-3.228,2.633c-1.441,0.298-2.938-0.13-4.006-1.145
		l-4.575-4.344l-8.371,14.313c-0.614,1.05-1.628,1.807-2.809,2.097C416.748,288.674,416.387,288.717,416.027,288.717z"/>
	<path fill="#FFFFFF" d="M394.507,234.345c-1.332,0-2.651-0.588-3.539-1.716l-10.852-13.784l-15.24,1.137
		c-1.456,0.118-2.872-0.494-3.802-1.618l-9.456-11.426l-4.487,3.099c-2.046,1.413-4.847,0.9-6.26-1.145
		c-1.413-2.045-0.9-4.848,1.145-6.26l7.881-5.444c1.919-1.326,4.536-0.965,6.024,0.833c0,0,8.139,9.729,11.451,10.729
		s14.461,0.941,14.461,0.941c1.497-0.122,2.944,0.527,3.871,1.704l12.333,15.667c1.537,1.953,1.2,4.782-0.752,6.319
		C396.463,234.03,395.481,234.345,394.507,234.345z"/>
	<path fill="#FFFFFF" d="M397.429,146.141c-0.545,0-1.1-0.1-1.639-0.311c-2.314-0.905-3.457-3.516-2.551-5.83l6.421-16.409
		c0.482-1.234,1.484-2.192,2.738-2.62c1.252-0.427,2.632-0.281,3.768,0.401c0,0,7.084,3.627,8.771,3.69s5.102-1.804,5.102-1.804
		c2.045-1.413,4.847-0.902,6.261,1.142c1.414,2.044,0.902,4.847-1.142,6.261l-7.264,5.163c-1.453,1.005-3.361,1.066-4.875,0.158
		l-6.919-4.152l-4.48,11.45C400.926,145.055,399.227,146.141,397.429,146.141z"/>
	<path fill="#FFFFFF" d="M437.942,449.019c-0.759,0-1.528-0.192-2.233-0.597l-14.201-8.139l-15.386,7.625
		c-2.108,1.044-4.666,0.29-5.866-1.733l-11.423-19.223l-28.936,16.273c-2.092,1.177-4.739,0.506-6.017-1.528l-3.876-6.574
		c-1.322-2.104-0.688-4.882,1.417-6.204c2.105-1.32,4.882-0.688,6.204,1.417c0,0,1,1.914,2.813,1.852
		c4.188,0.188,27.813-15.233,27.813-15.233c2.129-1.199,4.826-0.477,6.075,1.623c0,0,8.174,16.173,11.924,16.86
		s13.414-4.285,13.414-4.285c1.345-0.666,2.934-0.619,4.235,0.128l16.284,9.333c2.156,1.236,2.902,3.985,1.667,6.142
		C441.02,448.206,439.502,449.019,437.942,449.019z"/>
	<path fill="#FFFFFF" d="M416.232,512.82c-0.179,0-0.358-0.011-0.538-0.032c-1.244-0.149-2.369-0.812-3.105-1.826l-4.126-5.616
		c-1.458-2.013-0.484-3.029,0.6-3.908c0.581-0.472,2.313-0.188,3.313,0.375s2.422,0.24,4.648-0.067s3.368-2.859,3.368-2.859
		c0.937-0.796,2.159-1.175,3.383-1.045c0,0,13.663,0.597,16.788-1.028s11.391-12.374,11.391-12.374
		c1.104-1.721,3.232-2.481,5.176-1.851c0,0,18.184,5.6,22.684,4.6s10.879-10.607,10.879-10.607c0.971-1.188,2.491-1.8,4.004-1.621
		l34.982,7.238c2.469,0.287,4.786,2.65,3.949,4.99c-0.395,1.103-2.125,1.117-4.617,0.827s-32.91-3.831-32.91-3.831l-11.305,13.825
		c-1.174,1.435-3.108,2.006-4.871,1.432l-22.27-7.221l-9.458,14.744c-0.919,1.432-2.558,2.224-4.259,2.046l-19.189-2.017
		l-5.604,4.758C418.327,512.444,417.294,512.82,416.232,512.82z"/>
	<path fill="#FFFFFF" d="M447.129,400.753c-0.23,0-0.463-0.018-0.696-0.054l-9.843-1.537c-2.455-0.384-4.135-2.686-3.752-5.141
		c0.384-2.456,2.688-4.133,5.141-3.752l6.554,1.023l8.08-16.65c0.549-1.129,1.543-1.979,2.744-2.342
		c1.202-0.365,2.499-0.209,3.583,0.426l9.114,5.351l5.906-6.346c1.691-1.82,4.541-1.922,6.359-0.229
		c1.819,1.693,1.922,4.54,0.229,6.359l-8.365,8.988c-1.438,1.545-3.752,1.883-5.572,0.815l-8.027-4.712l-7.407,15.264
		C450.415,399.785,448.831,400.753,447.129,400.753z"/>
</g>
</svg>
