<svg id="Layer_1" data-name="Layer 1" xmlns="http://www.w3.org/2000/svg" xmlns:xlink="http://www.w3.org/1999/xlink" viewBox="0 0 2960.16 1112.64"><defs><style>.cls-1,.cls-3,.cls-4,.cls-43,.cls-52{fill:none;}.cls-2{clip-path:url(#clip-path);}.cls-3{stroke:#e6e2f2;}.cls-3,.cls-4,.cls-43{stroke-miterlimit:10;}.cls-4{stroke:#dfdcea;}.cls-5{fill:#0c0431;}.cls-36,.cls-6{fill:#fff;}.cls-7{fill:url(#Degradado_sin_nombre_7);}.cls-8{fill:url(#Degradado_sin_nombre_7-2);}.cls-9{fill:url(#Degradado_sin_nombre_13);}.cls-10{fill:url(#Degradado_sin_nombre_13-2);}.cls-11,.cls-41{fill:#fc0;}.cls-12{fill:url(#Degradado_sin_nombre_13-3);}.cls-13{fill:url(#Degradado_sin_nombre_13-4);}.cls-14{fill:url(#Degradado_sin_nombre_7-3);}.cls-15{fill:url(#Degradado_sin_nombre_19);}.cls-16{fill:url(#Degradado_sin_nombre_13-5);}.cls-17{fill:url(#Degradado_sin_nombre_19-2);}.cls-18{fill:url(#Degradado_sin_nombre_19-3);}.cls-19{fill:url(#Degradado_sin_nombre_19-4);}.cls-20{fill:url(#Degradado_sin_nombre_7-4);}.cls-21{fill:url(#Degradado_sin_nombre_7-5);}.cls-22{fill:url(#Degradado_sin_nombre_13-6);}.cls-23{fill:url(#Degradado_sin_nombre_13-7);}.cls-24{fill:url(#Degradado_sin_nombre_19-5);}.cls-25{fill:url(#Degradado_sin_nombre_19-6);}.cls-26{fill:url(#Degradado_sin_nombre_19-7);}.cls-27{fill:url(#Degradado_sin_nombre_7-6);}.cls-28,.cls-34{fill:#ffe0eb;}.cls-29{fill:#f3587d;}.cls-30{fill:#cafff0;}.cls-31{fill:#5932c4;}.cls-32,.cls-33{fill:#f579a6;}.cls-33,.cls-40,.cls-41,.cls-42{fill-opacity:0;}.cls-34{stroke:#f3587d;stroke-width:2px;}.cls-35{fill:#5bf1cd;}.cls-36{stroke:#8c65f7;}.cls-37,.cls-42,.cls-50{fill:#8c65f7;}.cls-38,.cls-40,.cls-49{fill:#02e2ac;}.cls-39{fill:#6f3ff5;}.cls-43{stroke:#9760ff;}.cls-44{fill:#9760ff;}.cls-45{fill:#a3f9e4;}.cls-46{fill:#e6fff9;}.cls-47{fill:#e5fff9;}.cls-48{opacity:0;}.cls-49{stroke:#e5fff9;stroke-miterlimit:3.95;stroke-width:1.19px;}.cls-50{fill-opacity:0.12;}.cls-51{fill:#ebebeb;}.cls-52{stroke:#02e2ac;stroke-linecap:round;stroke-linejoin:round;stroke-dashoffset:398.98px;stroke-width:3px;stroke-dasharray:398.98;}</style><clipPath id="clip-path"><rect class="cls-1" x="-3271.68" y="-4.73" width="3003.13" height="1698.64"/></clipPath><linearGradient id="Degradado_sin_nombre_7" x1="273.58" y1="870.26" x2="325.02" y2="870.26" gradientUnits="userSpaceOnUse"><stop offset="0" stop-color="#003951"/><stop offset="1" stop-color="#000d22"/></linearGradient><linearGradient id="Degradado_sin_nombre_7-2" x1="1408.47" y1="198.82" x2="1459.92" y2="198.82" xlink:href="#Degradado_sin_nombre_7"/><linearGradient id="Degradado_sin_nombre_13" x1="1401.79" y1="939.29" x2="1453.24" y2="939.29" gradientUnits="userSpaceOnUse"><stop offset="0" stop-color="#00424e"/><stop offset="1" stop-color="#00b2ad"/></linearGradient><linearGradient id="Degradado_sin_nombre_13-2" x1="255.11" y1="60.84" x2="306.56" y2="60.84" xlink:href="#Degradado_sin_nombre_13"/><linearGradient id="Degradado_sin_nombre_13-3" x1="840.21" y1="150.5" x2="863.45" y2="150.5" xlink:href="#Degradado_sin_nombre_13"/><linearGradient id="Degradado_sin_nombre_13-4" x1="1400.26" y1="248.78" x2="1423.5" y2="248.78" xlink:href="#Degradado_sin_nombre_13"/><linearGradient id="Degradado_sin_nombre_7-3" x1="1470.99" y1="680.43" x2="1494.23" y2="680.43" xlink:href="#Degradado_sin_nombre_7"/><linearGradient id="Degradado_sin_nombre_19" x1="1429.24" y1="1020.56" x2="1452.48" y2="1020.56" gradientUnits="userSpaceOnUse"><stop offset="0" stop-color="#ffaf00"/><stop offset="1" stop-color="#ff4d00"/></linearGradient><linearGradient id="Degradado_sin_nombre_13-5" x1="485.88" y1="1007.29" x2="509.11" y2="1007.29" xlink:href="#Degradado_sin_nombre_13"/><linearGradient id="Degradado_sin_nombre_19-2" x1="230.75" y1="908.6" x2="253.98" y2="908.6" xlink:href="#Degradado_sin_nombre_19"/><linearGradient id="Degradado_sin_nombre_19-3" x1="327.74" y1="445.95" x2="350.98" y2="445.95" xlink:href="#Degradado_sin_nombre_19"/><linearGradient id="Degradado_sin_nombre_19-4" x1="325.05" y1="198.05" x2="348.29" y2="198.05" xlink:href="#Degradado_sin_nombre_19"/><linearGradient id="Degradado_sin_nombre_7-4" x1="379.15" y1="60.84" x2="402.39" y2="60.84" xlink:href="#Degradado_sin_nombre_7"/><linearGradient id="Degradado_sin_nombre_7-5" x1="2464.81" y1="953.13" x2="2516.26" y2="953.13" xlink:href="#Degradado_sin_nombre_7"/><linearGradient id="Degradado_sin_nombre_13-6" x1="2446.34" y1="143.72" x2="2497.79" y2="143.72" xlink:href="#Degradado_sin_nombre_13"/><linearGradient id="Degradado_sin_nombre_13-7" x1="2677.11" y1="1090.17" x2="2700.35" y2="1090.17" xlink:href="#Degradado_sin_nombre_13"/><linearGradient id="Degradado_sin_nombre_19-5" x1="2421.98" y1="991.48" x2="2445.22" y2="991.48" xlink:href="#Degradado_sin_nombre_19"/><linearGradient id="Degradado_sin_nombre_19-6" x1="2518.98" y1="528.82" x2="2542.22" y2="528.82" xlink:href="#Degradado_sin_nombre_19"/><linearGradient id="Degradado_sin_nombre_19-7" x1="2516.29" y1="280.92" x2="2539.53" y2="280.92" xlink:href="#Degradado_sin_nombre_19"/><linearGradient id="Degradado_sin_nombre_7-6" x1="2570.39" y1="143.72" x2="2593.63" y2="143.72" xlink:href="#Degradado_sin_nombre_7"/></defs><g class="cls-2"><polygon class="cls-3" points="200.3 1571.12 -434.72 2253.71 -1069.75 1571.12 -434.72 888.54 200.3 1571.12"/><polygon class="cls-3" points="162.76 1571.12 -472.27 2253.71 -1107.29 1571.12 -472.27 888.54 162.76 1571.12"/><polygon class="cls-3" points="125.21 1571.12 -509.81 2253.71 -1144.84 1571.12 -509.81 888.54 125.21 1571.12"/><polygon class="cls-3" points="87.67 1571.12 -547.36 2253.71 -1182.38 1571.12 -547.36 888.54 87.67 1571.12"/><polygon class="cls-4" points="-1400.83 -260.56 -696.99 496 6.85 -260.56 -696.99 -1017.11 -1400.83 -260.56"/><polygon class="cls-4" points="-1359.22 -260.56 -655.38 496 48.47 -260.56 -655.38 -1017.11 -1359.22 -260.56"/><polygon class="cls-4" points="-1317.6 -260.56 -613.76 496 90.08 -260.56 -613.76 -1017.11 -1317.6 -260.56"/></g><rect class="cls-5" y="0.79" width="3000.96" height="1123.49"/><polygon class="cls-6" points="1499.61 1024.38 1515.07 1037.5 1530.54 1024.38 1515.07 1011.26 1499.61 1024.38"/><polygon class="cls-6" points="1530.54 1050.62 1546 1063.74 1561.47 1050.62 1546 1037.5 1530.54 1050.62"/><polygon class="cls-6" points="1546 1011.26 1530.54 1024.38 1546 1037.5 1561.47 1024.38 1546 1011.26"/><polygon class="cls-6" points="317.49 1007.29 332.95 994.17 317.49 981.05 302.03 994.17 317.49 1007.29"/><polygon class="cls-6" points="348.42 981.05 363.88 967.93 348.42 954.81 332.95 967.93 348.42 981.05"/><polygon class="cls-6" points="302.03 967.93 317.49 981.05 332.95 967.93 317.49 954.81 302.03 967.93"/><polygon class="cls-6" points="964.74 163.62 980.2 150.5 964.74 137.38 949.27 150.5 964.74 163.62"/><polygon class="cls-6" points="995.66 137.38 1011.13 124.26 995.66 111.14 980.2 124.26 995.66 137.38"/><polygon class="cls-6" points="949.27 124.26 964.74 137.38 980.2 124.26 964.74 111.14 949.27 124.26"/><polygon class="cls-6" points="226.9 477.58 242.37 490.7 257.83 477.58 242.37 464.46 226.9 477.58"/><polygon class="cls-6" points="257.83 503.83 273.29 516.95 288.76 503.83 273.29 490.7 257.83 503.83"/><polygon class="cls-6" points="273.29 464.46 257.83 477.58 273.29 490.7 288.76 477.58 273.29 464.46"/><polygon class="cls-6" points="1554.88 354.49 1570.34 367.61 1585.81 354.49 1570.34 341.37 1554.88 354.49"/><polygon class="cls-6" points="1585.81 380.73 1601.27 393.85 1616.74 380.73 1601.27 367.61 1585.81 380.73"/><polygon class="cls-6" points="1601.27 341.37 1585.81 354.49 1601.27 367.61 1616.74 354.49 1601.27 341.37"/><rect class="cls-6" x="2019.93" y="160.11" width="21.87" height="18.56"/><rect class="cls-6" x="2041.8" y="141.56" width="21.87" height="18.56"/><rect class="cls-6" x="1998.06" y="178.67" width="21.87" height="18.56"/><rect class="cls-6" x="1601.33" y="139.89" width="21.87" height="18.56"/><rect class="cls-6" x="1623.2" y="121.33" width="21.87" height="18.56"/><rect class="cls-6" x="1579.46" y="158.44" width="21.87" height="18.56"/><rect class="cls-6" x="903.8" y="979.39" width="21.87" height="18.56"/><rect class="cls-6" x="925.67" y="960.84" width="21.87" height="18.56"/><rect class="cls-6" x="881.93" y="997.95" width="21.87" height="18.56"/><rect class="cls-6" x="306.56" y="129.35" width="21.87" height="18.56"/><rect class="cls-6" x="328.43" y="110.8" width="21.87" height="18.56"/><rect class="cls-6" x="284.69" y="147.91" width="21.87" height="18.56"/><polygon class="cls-7" points="325.02 870.26 299.3 848.43 273.58 870.26 299.3 892.08 325.02 870.26"/><polygon class="cls-8" points="1459.92 198.82 1434.2 177 1408.47 198.82 1434.2 220.65 1459.92 198.82"/><polygon class="cls-9" points="1453.24 939.29 1427.52 917.47 1401.8 939.29 1427.52 961.12 1453.24 939.29"/><polygon class="cls-10" points="306.56 60.84 280.83 39.02 255.11 60.84 280.83 82.67 306.56 60.84"/><polygon class="cls-11" points="1587.19 693.69 1561.47 671.87 1535.74 693.69 1561.47 715.52 1587.19 693.69"/><polygon class="cls-11" points="892.31 100.87 866.59 79.05 840.87 100.87 866.59 122.7 892.31 100.87"/><polygon class="cls-12" points="863.45 150.5 851.83 140.64 840.21 150.5 851.83 160.36 863.45 150.5"/><polygon class="cls-13" points="1423.5 248.78 1411.88 238.92 1400.26 248.78 1411.88 258.64 1423.5 248.78"/><polygon class="cls-11" points="1542.16 267.34 1530.54 257.48 1518.92 267.34 1530.54 277.2 1542.16 267.34"/><polygon class="cls-14" points="1494.23 680.43 1482.61 670.57 1470.99 680.43 1482.61 690.29 1494.23 680.43"/><polygon class="cls-6" points="1613.63 645.07 1602.01 635.21 1590.39 645.07 1602.01 654.93 1613.63 645.07"/><polygon class="cls-6" points="414.01 998.53 402.39 988.67 390.77 998.53 402.39 1008.39 414.01 998.53"/><polygon class="cls-6" points="318.18 407.77 306.56 397.91 294.94 407.77 306.56 417.63 318.18 407.77"/><polygon class="cls-6" points="292.45 801.31 280.83 791.45 269.21 801.31 280.83 811.17 292.45 801.31"/><polygon class="cls-15" points="1452.47 1020.56 1440.86 1010.7 1429.24 1020.56 1440.86 1030.42 1452.47 1020.56"/><polygon class="cls-16" points="509.11 1007.29 497.5 997.43 485.88 1007.29 497.5 1017.15 509.11 1007.29"/><polygon class="cls-17" points="253.99 908.6 242.37 898.75 230.75 908.6 242.37 918.46 253.99 908.6"/><polygon class="cls-18" points="350.98 445.95 339.36 436.09 327.74 445.95 339.36 455.81 350.98 445.95"/><polygon class="cls-19" points="348.29 198.04 336.67 188.19 325.05 198.04 336.67 207.9 348.29 198.04"/><polygon class="cls-20" points="402.39 60.84 390.77 50.98 379.15 60.84 390.77 70.7 402.39 60.84"/><polygon class="cls-6" points="2508.73 1090.17 2524.19 1077.05 2508.73 1063.92 2493.26 1077.05 2508.73 1090.17"/><polygon class="cls-6" points="2539.66 1063.92 2555.12 1050.8 2539.66 1037.68 2524.19 1050.8 2539.66 1063.92"/><polygon class="cls-6" points="2493.26 1050.8 2508.73 1063.92 2524.19 1050.8 2508.73 1037.68 2493.26 1050.8"/><polygon class="cls-6" points="2418.14 560.46 2433.6 573.58 2449.07 560.46 2433.6 547.34 2418.14 560.46"/><polygon class="cls-6" points="2449.07 586.7 2464.53 599.82 2480 586.7 2464.53 573.58 2449.07 586.7"/><polygon class="cls-6" points="2464.53 547.34 2449.07 560.46 2464.53 573.58 2480 560.46 2464.53 547.34"/><rect class="cls-6" x="2497.79" y="212.23" width="21.87" height="18.56"/><rect class="cls-6" x="2519.66" y="193.67" width="21.87" height="18.56"/><rect class="cls-6" x="2475.92" y="230.78" width="21.87" height="18.56"/><polygon class="cls-21" points="2516.26 953.13 2490.54 931.3 2464.81 953.13 2490.54 974.96 2516.26 953.13"/><polygon class="cls-22" points="2497.79 143.72 2472.07 121.89 2446.34 143.72 2472.07 165.54 2497.79 143.72"/><polygon class="cls-6" points="2605.25 1081.41 2593.63 1071.55 2582.01 1081.41 2593.63 1091.26 2605.25 1081.41"/><polygon class="cls-6" points="2509.41 490.64 2497.79 480.79 2486.17 490.64 2497.79 500.5 2509.41 490.64"/><polygon class="cls-6" points="2483.69 884.18 2472.07 874.33 2460.45 884.18 2472.07 894.04 2483.69 884.18"/><polygon class="cls-23" points="2700.35 1090.17 2688.73 1080.31 2677.11 1090.17 2688.73 1100.03 2700.35 1090.17"/><polygon class="cls-24" points="2445.22 991.48 2433.6 981.62 2421.98 991.48 2433.6 1001.34 2445.22 991.48"/><polygon class="cls-25" points="2542.22 528.82 2530.6 518.96 2518.98 528.82 2530.6 538.68 2542.22 528.82"/><polygon class="cls-26" points="2539.53 280.92 2527.91 271.06 2516.29 280.92 2527.91 290.78 2539.53 280.92"/><polygon class="cls-27" points="2593.63 143.72 2582.01 133.86 2570.39 143.72 2582.01 153.57 2593.63 143.72"/><g id="eydlib7ehv16"><g id="eydlib7ehv17"><path id="eydlib7ehv18" class="cls-28" d="M2569.72,196.51c7.74-5.32,17.66-9.91,22.5-7.25,1.69.72,2.41,2.9,2.41,6.29,0,4.11.49,8.7,3.87,10.16,3.63,1.69,7.5-1.21,12.34-4.84,6-4.84,11.13-8.23,14.52-5.57.48.25.72.49.72,1.7.24,8.46-19.59,28.06-32.9,39.43Z"/><path id="eydlib7ehv19" class="cls-29" d="M2595.6,241.75l-2.9-5.08c13.55-11.37,33.14-31,32.9-39.43a2.2,2.2,0,0,0-.73-1.69c-3.39-2.67-8.22.72-14.51,5.56-4.6,3.63-8.47,6.77-12.34,4.84-3.39-1.7-3.87-6-3.87-10.16,0-3.39-.73-5.57-2.42-6.29-4.84-2.66-14.75,1.69-22.5,7.26l-2.9-5.08c2.18-1.7,18.14-12.58,28.06-7.26,2.66,1.45,5.57,4.35,5.57,11.61a16.89,16.89,0,0,0,.48,4.84c1.45-.49,3.87-2.66,5.81-3.87,6-4.84,14.51-11.37,21.77-5.57a8.17,8.17,0,0,1,2.9,6.29C2631.89,211,2599.47,238.6,2595.6,241.75Z"/></g><g id="eydlib7ehv110"><path id="eydlib7ehv111" class="cls-28" d="M2593.14,236.1c-7.74,5.32-17.65,9.91-22.49,7.25-1.7-.72-2.42-2.9-2.42-6.29,0-4.11-.48-8.7-3.87-10.16-3.63-1.69-7.5,1.21-12.34,4.84-6.05,4.84-11.13,8.23-14.51,5.57-.49-.25-.73-.49-.73-1.7-.24-8.46,19.6-28.06,32.9-39.43Z"/><path id="eydlib7ehv112" class="cls-29" d="M2567.26,190.86l2.9,5.08c-13.54,11.37-33.14,31-32.89,39.43a2.2,2.2,0,0,0,.72,1.69c3.39,2.66,8.23-.72,14.52-5.56,4.59-3.63,8.46-6.77,12.33-4.84,3.39,1.7,3.87,6.05,3.87,10.16,0,3.39.73,5.57,2.42,6.29,4.84,2.66,14.76-1.69,22.5-7.26l2.9,5.08c-2.18,1.7-18.14,12.58-28.06,7.26-2.66-1.45-5.56-4.35-5.56-11.61a16.38,16.38,0,0,0-.49-4.84c-1.45.49-3.87,2.66-5.8,3.87-6,4.84-14.52,11.37-21.77,5.57a8.15,8.15,0,0,1-2.91-6.29C2531,221.58,2563.39,194,2567.26,190.86Z"/></g></g><g id="eydlib7ehv113"><g id="eydlib7ehv114"><path id="eydlib7ehv115" class="cls-30" d="M2489.89,366.57l30.72,44.51,95.07-122.4-94.1-165.22L2434.26,286l37,55.63Z"/><path id="eydlib7ehv116" class="cls-31" d="M2520.37,421.48,2484.81,370l5.08-2.9,30.72,44.51,95.07-122.4-94.1-165.22L2434.26,286.5l37,55.64-6.05,1.69-37.74-57.09.73-1.69,93.13-173.68,101.35,177.79Z"/><path id="eydlib7ehv117" class="cls-31" d="M2524,120.56h-5.81V335.12H2524Z"/><path id="eydlib7ehv118" class="cls-31" d="M2520.13,327.86l-88.78-37.25,2.42-5.56,86.6,36.28,95.31-36,2.18,5.56Z"/><path id="eydlib7ehv119" class="cls-31" d="M2524,334.64h-5.81v77.65H2524Z"/></g></g><g id="eydlib7ehv120_to" data-name="eydlib7ehv120 to"><g id="eydlib7ehv120_tr" data-name="eydlib7ehv120 tr"><g id="eydlib7ehv120"><g id="eydlib7ehv121"><path id="eydlib7ehv122" class="cls-32" d="M2468.85,209.82c-29.76-13.79-51.77-17.18-58.3-8.95-11.13,14.51,21.77,64.1,88,115.87,66.52,51.52,123.13,70.63,134.25,56.6,7-9.19-3.87-32.41-28.3-60l3.87-4.84c27.82,31.69,38.46,56.61,29.27,68.46-3.63,4.84-9.67,6.77-17.66,6.77-28.54,0-80.31-27.57-124.82-62.17-57.08-44-105.95-102.56-89.5-124.09,11.37-14.75,44.75-2.66,65.8,7.26Z"/><path id="eydlib7ehv123" class="cls-33" d="M2574.55,364.52c29.76,13.79,51.77,17.18,58.3,9,11.13-14.51-21.77-64.1-88-115.86C2478.28,206.08,2421.67,187,2410.55,201c-7,9.19,3.87,32.42,28.3,60l-3.87,4.84c-27.82-31.69-38.46-56.6-29.27-68.46,3.63-4.83,9.68-6.77,17.66-6.77,28.54,0,80.31,27.58,124.82,62.17,57.08,44,105.95,102.56,89.5,124.09-11.37,14.76-44.75,2.66-65.8-7.26Z"/></g></g></g></g><g id="eydlib7ehv12"><g id="eydlib7ehv13"><path id="eydlib7ehv14" class="cls-34" d="M1379.52,438.53c9.5,0,19,3.06,22.06,8.83,4.75,8.82-2.72,19-22.74,29.87-27.15,15.27-33.94,30.88-31.91,40,2,7.13,9.51,11.21,20.37,11.54,22.06.34,78.4-36.65,123.54-66.18,14.93-9.84,29.19-19,41.07-26.47,36-22.06,54-46.16,53.62-58.38a9.15,9.15,0,0,0-5.76-8.15c-8.15-3.73-33.27,15.62-51.93,29.53-25.8,20-48.2,37-59.74,28.85-6.79-5.09-7.13-10.52-6.45-14.59,2.38-12.9,22.06-25.12,26.82-27.49,1-.68,11.87-6.11,7.46-16-5.77-12.89-42.08,2.38-97.07,25.46-7.8,3.39-15.95,6.79-24.77,10.18-60.42,25.12-82.48,54.31-82.14,66.86a5.5,5.5,0,0,0,3.73,5.43c11.2,3.74,30.55-10.52,46.16-22.06,7.13-5.43,14.26-10.52,20-13.57A40.88,40.88,0,0,1,1379.52,438.53Z"/></g></g><g id="eydlib7ehv137"><g id="eydlib7ehv138"><path id="eydlib7ehv139" class="cls-35" d="M1719.26,1053.94l-.34-304.79V596.42h-13.24V753.91l1,300Z"/><g id="eydlib7ehv140_to" data-name="eydlib7ehv140 to"><path id="eydlib7ehv140" class="cls-36" d="M1722.28,599.65c0,.67,6.45,84.17,85.19,84.17h2.38c75-1.7,96.05,17.31,98.42,19.68,5.77,37.68-9.16,101.49-18.66,127.28a3.46,3.46,0,0,1-3.06,2.38,4.62,4.62,0,0,1-3.39-2c-8.15-17.65-28.17-46.5-73.65-42.77-63.13,7.47-93-33.26-88.59-28.5Z"/></g><path id="eydlib7ehv141" class="cls-37" d="M1721.64,1056.31h-17.31V790.9h2.37v262.7h12.56V794h2.38v262.35Z"/><path id="eydlib7ehv142" class="cls-37" d="M1705.68,753.91h-2.37V594.05h18v155.1h-2.38V596.42h-13.24V753.91Z"/></g></g><g id="eydlib7ehv144"><g id="eydlib7ehv145"><path id="eydlib7ehv146" class="cls-37" d="M1700.59,754.24c1.36-.67,3.4-.67,4.08.34.34.34.67.68.67,1,.68.34,1,0,1.7,0a62.44,62.44,0,0,1,8.49-3.05,36.72,36.72,0,0,1,5.77-1.7h1c.67.34.67.68.67,1.36,1.7,5.09,3.4,10.18,4.76,15.27.67,2,1,3.73,1.69,5.77.68,2.72.34,5.77.68,8.49.68,2.71,2.38,5.43,1.7,8.48a5.26,5.26,0,0,1-2.72,3.74,17,17,0,0,1-4.41,1.35c-2.71.68-5.43.68-8.48,1.36a11.69,11.69,0,0,1-4.76.34c-2.37-.34-4.07-1.36-6.44-1a8.12,8.12,0,0,0-3.06,1,39.93,39.93,0,0,1-9.16,2,5.79,5.79,0,0,1-2.38-.34c-1.36-.68-2-1-2.37-1.7a42.1,42.1,0,0,1-10.53-22.74c-.68-4.41-.68-6.79.34-8.49,1-2,2-2.37,9.85-6.1A96.45,96.45,0,0,1,1700.59,754.24Z"/><g id="eydlib7ehv147"><path id="eydlib7ehv148" class="cls-6" d="M1678.53,762.73c-9.84-5.43-20.7,13.58-29.87,7.47-2.37-1.36-3.05-3.4-3.73-4.42-12.56-23.75-29.19-45.48-40-69.91-.68-1-5.43-2-8.14-4.75-1-1,.33-4.76-2.72-6.79a37.07,37.07,0,0,0-9.16-3.74c-6.11.34-11.54,0-14.26-4.41-1.7-2.71-.34-6.11.34-8.48,6.79-23.08-6.79-47.18-7.13-48.54a74.21,74.21,0,0,0-6.45-9.16s-8.82-11.54-18.66-19c-17-13.24-59.74-20-80.1,1.36-8.15,8.48-10.86,19.34-12.56,26.47-4.41,17.65-2.72,37-2.72,37,.68,9.5,2.72,18.66-2.71,26.47a25.86,25.86,0,0,1-4.41,4.41c-20.37,15.62-28.17,21.39-35.3,27.5-8.49,7.8-14.6,12.89-18,22.74-1,3-3.73,10.52-2,19.68.68,2.72,2,8.15,12.9,22.06,4.41,5.43,12.9,13.58,21,21.72a31.16,31.16,0,0,1,10.87-25.11c2.37-1.7,4.07-.68,4.75-3.4.34-2-2.72-12.21-3.74-13.91-3-6.11-5.43-4.75-9.84-11.88,3.73-1.7,6.79-2.72,10.52-4.41.34,10.86,6.11,25.11,6.45,44.8.68,32.58-2.37,38.69-2,64.15.68,24.77,1.7,43.44,2.38,58,1.7,27.84-1.36-2.37,1.36,25.8.68,8.48,6.79,20.36,8.14,28.17,2.38,13.91-1.35,26.47,7.47,55a10.7,10.7,0,0,0,2.38,4.08,8.75,8.75,0,0,0,5.43,2.37c8.14-.34,21.38,2.72,25.11-1.7.68-1,1-2,2-8.82.68-8.15,1-12.22,1-17.31,0-8.82.68-17.65,1.36-26.81.67-20.71,4.75-64.49,11.2-64.49.67,0,1.69.34,2.71,2.38a222,222,0,0,1,16.29,31.56,272.77,272.77,0,0,1,10.86,30.89c7.47,28.85,11.2,43.1,10.52,55-.33,2-.67,8.49,2,9.84,2.38,1,4.41-2,9.84-3,3.06-.68,6.45-.34,12.9.68,3.73.68,8.15,1,14.26,2.37a68.83,68.83,0,0,0,2.37-6.79c4.75-17.3.68-30.2-.68-43.1-2.71-20.36,2.72-16,.68-43.1-.68-12.56-2-13.24-5.77-46.5-1.36-13.24-1.69-17.31-2-22.4,0-9.51.67-14.6.67-28.85v-14.6a401.37,401.37,0,0,1,5.44-50.57c1.35-7.8,2.71-15.27,4.41-22.4,2.71,2.72,6.11,9.5,10.18,15.27,4.75,6.79,8.48,11.2,11.54,17.65,8.14,16.29,8.14,19.69,13.24,23.42,2.71,2.38,7.8,4.75,12.89,6.79,2.38.68,5.43,2.38,7.81,2.72,8.48,2,13.92-4.42,27.83-11.2,15.27-7.13,23.42-6.79,24.1-11.54.68-3.74-5.09-5.43-9.17-12.56C1677.51,778.68,1677.51,769.52,1678.53,762.73Z"/><path id="eydlib7ehv149" class="cls-31" d="M1489.14,783.09c-15.27,0-27.49-12.89-27.49-28.51,0-16,12.22-28.85,27.49-28.85s27.5,12.9,27.5,28.85C1516.64,769.86,1504.42,783.09,1489.14,783.09Zm0-55.32c-13.91,0-25.11,11.88-25.11,26.47,0,14.26,11.54,26.48,25.11,26.48s25.12-11.88,25.12-26.48S1503.06,727.77,1489.14,727.77Z"/><path id="eydlib7ehv150" class="cls-38" d="M1599.11,780.38,1593,824.16a11.65,11.65,0,0,1-7.47,9.17l-10.18,3.73,3.74-43.1,5.43-39.38Z"/><path id="eydlib7ehv151" class="cls-37" d="M1431.78,773.25a3.07,3.07,0,0,1,1.7.34c2,1,1,5.09.68,6.79,0,0-.68,6.11-1,20,0,8.49,1.36,11.2-.34,12.22s-5.77-.34-16.63-11.2a19.38,19.38,0,0,1-1-9.5c.68-6.45,4.42-10.18,7.81-13.58C1423.64,777.32,1427.71,773.25,1431.78,773.25Z"/><path id="eydlib7ehv152" class="cls-31" d="M1573.32,839.77l-.68-2.37,12.89-4.41a11.53,11.53,0,0,0,7.47-9.17l6.11-43.78,2.38.34-6.11,43.78a13.16,13.16,0,0,1-9.17,11.2Z"/><path id="eydlib7ehv153" class="cls-35" d="M1619.14,811.6a2.8,2.8,0,0,0-2,1.36l-1.36,2.72a2.2,2.2,0,0,0,.68,3.05L1632,827.9c.68.34,1,.67,1.7.34a4.69,4.69,0,0,0,1.36-1l1.7-3.4a2.22,2.22,0,0,0-.68-3.05l-5.09-3.4-1-5.43-4.42,2.72-5.43-2.72A3.33,3.33,0,0,0,1619.14,811.6Z"/><path id="eydlib7ehv154" class="cls-35" d="M1376.46,737.61c-.68,0-1.7.68-1.7,1.36l-1,14.26a1.22,1.22,0,0,0,.34,1,1.75,1.75,0,0,0,1.35.68l3.06.34c.68,0,1.7-.68,1.7-1.35l.67-5.1,3.4-2.37-3.74-2.38V739a1.81,1.81,0,0,0-1.69-1.7h-2.38Z"/><path id="eydlib7ehv155" class="cls-32" d="M1534,742.37h-5.77a2.54,2.54,0,0,0-2.38,2.37l-.34,23.08a2.32,2.32,0,0,0,2.38,2.38H1534c.67,0,1-.34,1.69-.68a1.87,1.87,0,0,0,.68-1.7V744.74c0-.68-.34-1-.68-1.7C1535.64,742.37,1535,742.37,1534,742.37Z"/><path id="eydlib7ehv156" class="cls-32" d="M1539.38,744.06v23.08a5,5,0,0,0,.67,2,1.05,1.05,0,0,0,.68.34l4.76-.34a2.32,2.32,0,0,0,1.69-2.38l-.34-23.08a4.79,4.79,0,0,0-.68-2,1,1,0,0,0-.67-.34l-4.42.34C1540.05,741.69,1539.38,742.71,1539.38,744.06Z"/><path id="eydlib7ehv157" class="cls-31" d="M1633.73,830.61a6.3,6.3,0,0,1-2.38-.68l-15.61-9.16c-2.37-1.36-2.71-3.74-2-6.11l1.35-2.72a4.61,4.61,0,0,1,6.11-2.37l4.41,2.37,6.45-3.73,1.7,7.81,4.41,2.71c2,1.36,2.38,3.74,1.7,6.11l-2,3.4a6.06,6.06,0,0,1-2.71,2.37Zm-14.59-19a2.8,2.8,0,0,0-2,1.36l-1.36,2.72a2.2,2.2,0,0,0,.68,3.05L1632,827.9c.68.34,1,.67,1.7.34a4.69,4.69,0,0,0,1.36-1l1.7-3.4a2.22,2.22,0,0,0-.68-3.05l-5.09-3.4-1-5.43-4.42,2.72-5.43-2.72A3.33,3.33,0,0,0,1619.14,811.6Z"/><path id="eydlib7ehv158" class="cls-31" d="M1378.84,757.64l-3.4-.34a3.53,3.53,0,0,1-2.71-1.36,4.49,4.49,0,0,1-1-2.71l1-14.26a4,4,0,0,1,4.07-3.73h2.38a3.75,3.75,0,0,1,3.73,3.73v3.74l5.43,3.73-5.43,3.73-.68,3.74A3.16,3.16,0,0,1,1378.84,757.64Zm-2.38-20c-.68,0-1.7.68-1.7,1.36l-1,14.26a1.22,1.22,0,0,0,.34,1,1.75,1.75,0,0,0,1.35.68l3.06.34c.68,0,1.7-.68,1.7-1.35l.67-5.1,3.4-2.37-3.74-2.38V739a1.81,1.81,0,0,0-1.69-1.7h-2.38Z"/><path id="eydlib7ehv159" class="cls-31" d="M1534,772.57h-6.11a5.11,5.11,0,0,1-4.76-4.75l.34-23.08a5.12,5.12,0,0,1,4.76-4.75H1534a4.65,4.65,0,0,1,4.75,4.75v23.08a6,6,0,0,1-1.36,3.39A4.52,4.52,0,0,1,1534,772.57Zm0-30.2h-5.77a2.54,2.54,0,0,0-2.38,2.37l-.34,23.08a2.32,2.32,0,0,0,2.38,2.38H1534c.67,0,1-.34,1.69-.68a1.87,1.87,0,0,0,.68-1.7V744.74c0-.68-.34-1-.68-1.7C1535.64,742.37,1535,742.37,1534,742.37Z"/><path id="eydlib7ehv160" class="cls-31" d="M1540.73,771.55a6.42,6.42,0,0,1-2.37-.67,6.19,6.19,0,0,1-1.36-3.74V744.06c0-2.37,1.7-4.75,3.73-5.09l4.42-.34a4.91,4.91,0,0,1,2.37.68,6.18,6.18,0,0,1,1.36,3.73l.34,23.08c0,2.38-1.7,4.76-3.73,5.09Zm-1.35-27.49v23.08a5,5,0,0,0,.67,2,1.05,1.05,0,0,0,.68.34l4.76-.34a2.32,2.32,0,0,0,1.69-2.38l-.34-23.08a4.79,4.79,0,0,0-.68-2,1,1,0,0,0-.67-.34l-4.42.34C1540.05,741.69,1539.38,742.71,1539.38,744.06Z"/><path id="eydlib7ehv161" class="cls-31" d="M1444.34,959.58c-10.52-12.89-10.18-31.56-10.18-32.58l-5.09-76.7,2.38-.34,5.09,76.7c0,.34-.34,18.67,9.84,30.89Z"/><path id="eydlib7ehv162" class="cls-31" d="M1484.05,1024.75l-31.56-1-3.06-4.41L1441,956.19l2.37-.34,8.15,62.79,2,2.72,29.19.67,1.69-2.37,2.38-52.95h2.37l-2.37,53.63Z"/><path id="eydlib7ehv163" class="cls-31" d="M1532.93,961.62l-6.79-1.7-.34-.67c-11.2-37-34.62-67.55-35-67.89l2-1.35c.34.34,24.1,31.22,35.3,68.22l5.43,1.35Z"/><path id="eydlib7ehv164" class="cls-31" d="M1539,1034.59a353.49,353.49,0,0,0-12.56-74.67l2.37-.67a388.55,388.55,0,0,1,12.9,75Z"/><path id="eydlib7ehv165" class="cls-31" d="M1578.41,1033.57l-2-1.35,3.73-5.43c.34-3.4,1-29.19-3.39-75l2.38-.34c4.75,49.21,3.39,75.35,3.39,75.69v.34Z"/><path id="eydlib7ehv166" class="cls-31" d="M1576.37,954.83l-1.7-1.69,5.1-4.76c-2.72-47.51-8.49-82.13-8.49-82.47l2.38-.34c0,.34,5.77,35.64,8.48,83.15v.68Z"/><path id="eydlib7ehv167" class="cls-31" d="M1432.46,772.57l-1.35,54h2.37l1.36-54Z"/><path id="eydlib7ehv168" class="cls-31" d="M1575.35,805.49,1572,844.87l2.37.34,3.4-39.38Z"/><path id="eydlib7ehv169" class="cls-31" d="M1616.76,811.94l-31.9-56.34a.34.34,0,0,0-.68,0l-5.43,38-2.38-.34,5.09-37.68a2.55,2.55,0,0,1,2.38-2.37,3,3,0,0,1,3.05,1.35l31.91,56.35Z"/><path id="eydlib7ehv170" class="cls-31" d="M1500,711.82c-43.79,0-56.69-31.9-57-32.24-.34-1-16.3-90,35.63-101.49,51.59-11.2,76.37,26.48,76.37,26.48l-2,1.36c-.34-.34-24.1-37-74-25.8-49.55,11.2-33.94,97.75-33.94,98.43.68,1.69,19.35,47.51,92,23.76.34,0,22.06-9.17,30.89-24.78V667.36h2.37v11.2l-.34.34c-9.5,16.29-31.56,25.45-32.58,26.13C1523.42,709.78,1510.87,711.82,1500,711.82Z"/><path id="eydlib7ehv171" class="cls-31" d="M1503.4,697.9c-12.22,0-13.58-7.46-17.31-27.49-.34-2.37-.68-4.41-1-6.79-2.37-13.23-1.7-22.4,2.38-27.49,2.71-3.39,5.77-3.39,5.77-3.39h.68c47.51,0,61.77-19.35,62.11-19.69l.34-.68h2.37a10.18,10.18,0,0,1,9.84,6.79c13.24,33.26,5.1,45.14,4.76,45.82-14.94,25.12-41.75,29.19-61.44,32.24l-1.35.34C1507.81,697.56,1505.44,697.9,1503.4,697.9Zm-10.18-62.79a6.65,6.65,0,0,0-4.08,2.72c-2.37,3-4.75,9.84-2,25.45a55.24,55.24,0,0,1,1,6.79c4.07,23.42,5.09,27.15,22.06,24.78l1.35-.34c19-2.72,45.15-6.79,59.74-30.89,0-.34,8.15-11.54-4.75-43.44a8.91,8.91,0,0,0-7.81-5.43h-1c-2.37,3.39-18.32,20.36-63.46,20.36Z"/><path id="eydlib7ehv172" class="cls-31" d="M1497.63,706.05c-14.26,0-18.33-14.26-22.06-47.52-1.7-16.29-1-23.42,2.37-27.83,3.74-4.75,10.53-5.43,21.73-6.45,3.39-.34,6.78-.68,10.86-1,29.86-3.73,43.1-18,43.1-18l.68-.68.68.34c2,.68,3.39,1.69,3.73,3.05,1,2.72-.68,6.11-.68,6.45l-2.37-1a7.33,7.33,0,0,0,.68-4.07,4,4,0,0,0-1.7-1.7c-2.72,2.72-16.29,14.94-44.12,18.33-3.74.68-7.47.68-10.86,1-10.53,1-17,1.7-20,5.43s-3.73,10.86-1.7,26.13c3.74,35.64,8.49,45.82,19.69,45.82h.34c30.88-.34,54.64-9.84,70.59-28.51l1.7,1.7c-16.29,18.33-40.73,28.51-72.63,28.51Z"/><path id="eydlib7ehv173" class="cls-38" d="M1584.52,682.63a6.3,6.3,0,0,0-2.38.68c-8.48,8.14-32.92,32.58-32.92,67.88,0,33.6,18.33,48.87,24.1,52.61a4,4,0,0,0,3.39.34,3.47,3.47,0,0,0,1.7-2.72l.34-5.09c0-.68,0-1.7-2.38-3.39-10.52-6.11-14.25-33.94-14.59-35,0-43.11,23.42-60.42,32.58-67.2a2.82,2.82,0,0,0,1-2.72c0-1-.68-2.37-1.7-2.37l-7.47-2.72A14.47,14.47,0,0,0,1584.52,682.63Z"/><path id="eydlib7ehv174" class="cls-31" d="M1575,807.19a6.55,6.55,0,0,1-3.39-1c-5.77-4.07-25.12-20-25.12-54.64,0-36.32,25.12-61.43,33.6-69.58a5.32,5.32,0,0,1,6.79-1l7.47,2.72c2,1,2.71,2.71,3.05,4.75a5.12,5.12,0,0,1-2.37,4.75c-8.49,6.45-31.57,23.42-31.57,65.17,0,0,3.74,27.49,13.24,32.92,2.38,1.36,3.73,3.39,3.73,5.43l-.34,5.09a4.79,4.79,0,0,1-3,4.75C1577.05,806.85,1576.37,807.19,1575,807.19Zm9.51-124.56a6.3,6.3,0,0,0-2.38.68c-8.48,8.14-32.92,32.58-32.92,67.88,0,33.6,18.33,48.87,24.1,52.61a4,4,0,0,0,3.39.34,3.47,3.47,0,0,0,1.7-2.72l.34-5.09c0-.68,0-1.7-2.38-3.39-10.52-6.11-14.25-33.94-14.59-35,0-43.11,23.42-60.42,32.58-67.2a2.82,2.82,0,0,0,1-2.72c0-1-.68-2.37-1.7-2.37l-7.47-2.72A14.47,14.47,0,0,0,1584.52,682.63Z"/><path id="eydlib7ehv175" class="cls-31" d="M1648,775.63l-45.48-78.41-6.79-5.09,1.35-2,7.47,5.43,45.48,78.4Z"/><path id="eydlib7ehv176" class="cls-31" d="M1706.7,794,1691.43,798l.68,2.37,15.27-4.07Z"/><path id="eydlib7ehv177" class="cls-31" d="M1702,776.65a3.07,3.07,0,0,1-1.7-.34c-1.35-.68-2.71-1.36-3.39-2.72l-2.38-4.41,2.38-1,2.38,4.41a3.43,3.43,0,0,0,2,1.7,2.09,2.09,0,0,0,2.38-.34l5.43-3c.68-.68,1.36-1,1.7-2a2.83,2.83,0,0,0-.34-2.38l-5.77-9.84a3.15,3.15,0,0,0-4.08-1.36l-22.06,9.51-.68-2.38,22.06-9.5a5.71,5.71,0,0,1,7.13,2.37l5.77,9.85a6.45,6.45,0,0,1,.68,4.41,7.14,7.14,0,0,1-2.71,3.73l-5.44,3.06C1703.65,776.31,1703,776.65,1702,776.65Z"/><path id="eydlib7ehv178" class="cls-31" d="M1711.11,798a5.85,5.85,0,0,1-5.77-4.75L1702.63,776l2.38-.68,2.71,17.31a3.68,3.68,0,0,0,3.73,2.71l16.63-2.71a2.86,2.86,0,0,0,2.38-1.36,3.66,3.66,0,0,0,.68-2.72l-7.81-35.63c-.34-1-.68-2-1.69-2.38a2.07,2.07,0,0,0-2.72,0l-13.58,6.11-1-2,13.57-6.11a5.49,5.49,0,0,1,5.09.34c1.7.68,2.38,2.38,3.06,3.74l7.13,36a5.9,5.9,0,0,1-1,4.76,5.2,5.2,0,0,1-4.08,2.37l-17,2.38Z"/><path id="eydlib7ehv179" class="cls-31" d="M1638.48,824.16l-.68-2.37,51.59-22.07c.68-.33.68-.67.68-1,0-.68,0-1-.68-1.36-11.54-10.52-12.89-25.12-12.22-32.58a1.79,1.79,0,0,0-.67-1.36c-.68-.34-1-.34-1.36,0l-31.57,15.27-1-2.37L1674.12,761a3,3,0,0,1,3.73.34,4.18,4.18,0,0,1,1.7,3.4c-.68,7.12.34,20.7,11.2,30.88,1,.68,1.36,2.38,1.36,3.74a3.29,3.29,0,0,1-2.38,2.71Z"/><path id="eydlib7ehv180" class="cls-38" d="M1443.32,680.25l-2.71.68c-2.38,3.74-20.36,35-9.84,89.61l2.71.67c-.68-9.84-3.39-59.73,16.29-81.11Z"/><path id="eydlib7ehv181" class="cls-31" d="M1436.2,774.27l-7.47-2-.34-.68c-11.88-59.73,10.18-92.31,10.52-92.65l.34-.34,3.74-.68.67,2.37-2.71.68c-2.38,3.74-20.37,35-9.84,89.61l2.71.67c-.68-9.84-3.39-59.73,16.29-81.11l1.7,1.69c-20.7,22.07-15.61,80.44-15.61,81.12Z"/><path id="eydlib7ehv182" class="cls-31" d="M1380.87,738l-2-1.35c21-31.23,55.32-48.2,55.66-48.2l1,2.38C1435.18,690.44,1401.58,707.07,1380.87,738Z"/><path id="eydlib7ehv183" class="cls-31" d="M1417.87,804.14l-2.72-2.38c-26.13-20.7-37.67-45.14-37.67-45.48l2.38-1c0,.34,10.86,22.74,34.62,42.77-.68-6.45.67-20.37,18.32-26.48l.68,2.38c-20.7,7.13-16.29,26.13-16.29,26.81Z"/><path id="eydlib7ehv184" class="cls-31" d="M1412.1,740.33l-1.7,1.7,15.95,17.31,1.7-1.7Z"/><path id="eydlib7ehv185" class="cls-31" d="M1426,741l-9.5,4.75,1,2.38,9.5-4.76Z"/><path id="eydlib7ehv186" class="cls-31" d="M1417.19,800.4l-1.36,2L1432.12,815l1.36-2Z"/><path id="eydlib7ehv187" class="cls-39" d="M1573.66,1031.2c2,1.7,4.41,2.71,6.44,4.41a9.31,9.31,0,0,1,3.06,4.07c3.39,6.11,4.41,12.9,5.43,19.69v.34c0,.34-.34.34-.68.34-6.45,0-12.9-.34-19-.34h-37c-1-1.7-1-3.73-.68-6.11.34-2,1-3.73,1.36-5.77.68-2.72.68-5.43,2.37-7.81.68-1.35,2.38-2.37,2.72-3.73.68-1.7,2.37-2.38,4.07-3a24.86,24.86,0,0,0,4.07-2.38c.34-.34.68-.68,1-.68.68-.34,1-.68,1.7-.68a48.48,48.48,0,0,1,25.12.68c.34,0,.67.34.67,0C1575,1030.86,1574,1031.54,1573.66,1031.2Z"/><path id="eydlib7ehv188" class="cls-37" d="M1548.2,1037.31c1.36,1.36,3.39,1.7,5.09,2a43.22,43.22,0,0,0,6.45.34,8.68,8.68,0,0,0,4.07-.67c3.4-.68,6.11-4.08,6.79-7.47v-.68c0-.34-.34-.34-.68-.68-3.05-2-6.79-2-10.52-1.36s-7.47,1-11.54,1.36C1544.47,1030.52,1546.5,1035.61,1548.2,1037.31Z"/><path id="eydlib7ehv189" class="cls-31" d="M1590,1061.41h-59.74v-1c0-12.9,2.38-20.37,7.13-25.46,5.09-4.75,12.9-6.79,25.12-6.79,8.48.34,14.93,2.72,19.68,7.81,8.83,9.5,8.15,23.76,8.15,24.78Zm-57.36-2.72h54.64c0-3.73-.68-14.25-7.46-21.72-4.42-4.75-10.19-6.79-18-7.13q-16.8-.51-23.42,6.11C1534.28,1040.7,1532.59,1047.49,1532.59,1058.69Z"/><path id="eydlib7ehv190" class="cls-31" d="M1587.57,1051.9h-55.32v2.38h55.32Z"/><path id="eydlib7ehv191" class="cls-31" d="M1565.85,1040.36h-14.59a4.72,4.72,0,0,1-4.76-3.73l-2-5.77,2.37-.68,2,5.77a2.92,2.92,0,0,0,2.38,2h14.59a2.56,2.56,0,0,0,2.38-1.7l2.71-5.77,2.38,1-2.72,5.77C1569.24,1039,1567.55,1040.36,1565.85,1040.36Z"/><path id="eydlib7ehv192" class="cls-31" d="M1484.39,971.12l-1.36-2,6.45-4.08c-.68-5.76-3-42.42,9.85-62.78l2,1c-12.89,21-9.5,61.44-9.16,62.11V966Z"/><path id="eydlib7ehv193" class="cls-31" d="M1570.6,677.54l-.34,2.38,12.22,3.39.68-2.38Z"/><path id="eydlib7ehv194" class="cls-31" d="M1514.26,749.49v-2.37c3.39,0,6.79-.34,10.18-.34v2.37C1521.39,749.15,1517.65,749.15,1514.26,749.49Z"/><path id="eydlib7ehv195" class="cls-31" d="M1465.73,745.76c-20.37-3.73-30.89-8.49-30.89-8.82l1-2.38s10.86,5.09,30.54,8.48Z"/><path id="eydlib7ehv196" class="cls-31" d="M1513.24,765.11v-2.38c3.74,0,7.81-.34,11.54-.68v2.38C1520.71,764.77,1517,764.77,1513.24,765.11Z"/><path id="eydlib7ehv197" class="cls-31" d="M1463.35,760.69c-19-3.73-28.51-8.14-28.85-8.48l1-2.38s9.84,4.75,28.17,8.15Z"/><path id="eydlib7ehv198" class="cls-30" d="M1575.35,865.57c-.68.68-2.37.68-4.41.68a22.82,22.82,0,0,1-6.11-.34c-3.73-.68-4.75-.34-12.22-.68-38.69-1.36-70.25-5.09-70.25-5.09-28.17-3.4-20-4.07-29.19-4.41,0,0-9.51-.34-22.4-5.43a7,7,0,0,1-3.74-3.06,9.37,9.37,0,0,1-1-4.41c-.67-10.86-.67-12.22.34-14.26.68-1,1-2.37,2.38-2.71,2.38-1.36,5.77.34,10.86,2.38,3.4,1.35,7.13,2,10.52,3,2.38.68,9.51,2.71,30.55,6.11,28.51,4.41,48.53,7.47,64.49,6.79,6.78-.34,14.25,1,21,.68,3.73-.34,7.47-.68,9.84,1.35,2,2,2,4.76,2,10.19C1577.39,860.82,1577.39,864.21,1575.35,865.57Z"/><path id="eydlib7ehv199" class="cls-35" d="M1529.53,834.34a5.85,5.85,0,0,0-5.43,5.43l-.68,28.85a5.36,5.36,0,0,0,5.43,5.43l15.28.34a5.83,5.83,0,0,0,5.43-5.43l.68-28.85a5.37,5.37,0,0,0-5.43-5.43Z"/><path id="eydlib7ehv1100" class="cls-31" d="M1544.13,877.11l-15.28-.34a8,8,0,0,1-7.8-8.15l.68-29.18a6.36,6.36,0,0,1,2.37-5.44,8.05,8.05,0,0,1,5.43-2.37l15.28.34a8,8,0,0,1,7.8,8.14l-.68,28.85a6.3,6.3,0,0,1-2.37,5.43A6.18,6.18,0,0,1,1544.13,877.11Zm-14.6-42.43a5.85,5.85,0,0,0-5.43,5.43l-.68,28.51a5.36,5.36,0,0,0,5.43,5.43l15.28.34a5.83,5.83,0,0,0,5.43-5.43l.68-28.85a5.37,5.37,0,0,0-5.43-5.43Z"/><path id="eydlib7ehv1101" class="cls-35" d="M1452.49,823.48c-.68,0-.68.34-1.36.68a1.77,1.77,0,0,0-.68,1.36l-1,36.66a2.41,2.41,0,0,0,2,2l4.75.34a2.4,2.4,0,0,0,2-2l1-36.65a2,2,0,0,0-2-2l-4.75-.34Z"/><path id="eydlib7ehv1102" class="cls-31" d="M1456.56,866.59l-5.09-.34a5,5,0,0,1-3-1.36,4.74,4.74,0,0,1-1-3l1-36.66a5,5,0,0,1,1.35-3,4.75,4.75,0,0,1,3.06-1l4.75.34a4.2,4.2,0,0,1,4.07,4.41l-1,36.65a5.05,5.05,0,0,1-1.35,3.06A3.86,3.86,0,0,1,1456.56,866.59Zm-4.07-43.11c-.68,0-.68.34-1.36.68a1.77,1.77,0,0,0-.68,1.36l-1,36.66a2.41,2.41,0,0,0,2,2l4.75.34a2.4,2.4,0,0,0,2-2l1-36.65a2,2,0,0,0-2-2l-4.75-.34Z"/><path id="eydlib7ehv1103" class="cls-31" d="M1449.09,856.74c-6.44-1.35-11.87-2.71-16.63-4.07a10.18,10.18,0,0,1-7.12-9.84V830.61a4.93,4.93,0,0,1,2.37-4.41c1.36-1,3.4-1,5.09-.68a181.79,181.79,0,0,0,17.65,5.43l-.68,2.38c-6.45-1.7-12.55-3.74-18-5.77a2.65,2.65,0,0,0-2.71.34,3.4,3.4,0,0,0-1.36,2.37l.34,12.22a8.2,8.2,0,0,0,5.43,7.81q6.62,2,16.29,4.07Z"/><path id="eydlib7ehv1104" class="cls-31" d="M1523.76,844.53a502.32,502.32,0,0,1-64.14-8.49l.67-2.37c18,4.07,39.72,6.78,63.81,8.48Z"/><path id="eydlib7ehv1105" class="cls-31" d="M1573.32,867.27c-8.15,0-16-.34-23.08-.68v-2.38c7.46.34,14.93.68,23.08.68a6.26,6.26,0,0,0,2.37-.68,2.86,2.86,0,0,0,.68-2.37V849.28a6.3,6.3,0,0,0-.68-2.38,2.86,2.86,0,0,0-2.37-.68c-4.76,0-12.56,0-22.06-.34v-2.37c9.84.34,17.3.34,22.06.34a5.83,5.83,0,0,1,5.43,5.43v12.56a5.46,5.46,0,0,1-1.7,3.73A4.38,4.38,0,0,1,1573.32,867.27Z"/><path id="eydlib7ehv1106" class="cls-31" d="M1522.41,865.57a544.71,544.71,0,0,1-63.13-6.79l.34-2.37a553.21,553.21,0,0,0,63.13,6.78Z"/><path id="eydlib7ehv1107" class="cls-31" d="M1438.57,829.25h-2.37v23.42h2.37Z"/><path id="eydlib7ehv1108" class="cls-31" d="M1473.19,837.4h-2.37v22.06h2.37Z"/><path id="eydlib7ehv1109" class="cls-31" d="M1495.25,840.11h-2.37v22.07h2.37Z"/><path id="eydlib7ehv1110" class="cls-31" d="M1515.62,842.49h-2.38v21.72h2.38Z"/><path id="eydlib7ehv1111" class="cls-31" d="M1564.49,844.53h-2.37v21.72h2.37Z"/><path id="eydlib7ehv1112" class="cls-39" d="M1484.05,1024.75a5.87,5.87,0,0,1,1.36,1l.68.68c.34.34.34.68.34,1.35,0,3.4-1,6.79-.68,10.19v16.63c0,.34.34.34,0,.68h-76.37v-10.86c.68-3.74,3.06-6.79,5.43-9.85,1.36-1.69,3.06-3.73,4.42-5.43,3.73-4.75,11.2-4.07,17-5.09a45.81,45.81,0,0,1,6.79-.68c12.21-1,4.75-1,17.3,0C1461.31,1024.07,1484.05,1024.75,1484.05,1024.75Z"/><path id="eydlib7ehv1113" class="cls-37" d="M1456.9,1028.48c-1.36,1.36-3.05,2.38-4.41,3.74a8.24,8.24,0,0,1-2.38,1.35,5,5,0,0,1-2.37.34c-3.74.34-7.81.68-11.2.68a19.39,19.39,0,0,1-4.42-.34c-3-.68-5.77-2.37-6.78-5.43v-.34a.33.33,0,0,1,.34-.34c8.14-3.39,17-3.39,25.11-4.41,2.38-.34,6.79-1.36,8.83-.68C1461.31,1024.07,1457.92,1027.13,1456.9,1028.48Z"/><path id="eydlib7ehv1114" class="cls-31" d="M1487.11,1056.65h-78.74l-.34-1c0-.68-2-12.56,4.41-21.39,3.73-5.09,8.82-8.14,16-8.82,13.92-2,23.76-3.73,23.76-3.73l6.79,1.35s-16.29,2.72-29.87,4.75c-6.45.68-11.54,3.74-14.26,8.15-5.09,6.79-4.41,15.61-4.07,18.67h74v-26.48l-3-4.07,2.37-.68,3.06,4.08Z"/><path id="eydlib7ehv1115" class="cls-31" d="M1485.75,1045.79h-75.69v2.38h75.69Z"/><path id="eydlib7ehv1116" class="cls-31" d="M1432.46,1036a10,10,0,0,1-7.46-3.73l-3.4-3.74,2-1.69,3.39,3.73a6.51,6.51,0,0,0,6.79,2.38l17.65-2.38a8.27,8.27,0,0,0,6.45-5.09l1.7-4.07,2.37.34-1.7,4.75a9.52,9.52,0,0,1-8.48,6.45l-17.65,2.37A3.43,3.43,0,0,1,1432.46,1036Z"/><path id="eydlib7ehv1117" class="cls-31" d="M1545.15,957.21a37.63,37.63,0,0,1,10.18-2.72,56.5,56.5,0,0,1,10.86-.68,37.83,37.83,0,0,1-10.18,2.72A39,39,0,0,1,1545.15,957.21Z"/><path id="eydlib7ehv1118" class="cls-31" d="M1446.38,955.17a16.8,16.8,0,0,1,7.13,0,16.21,16.21,0,0,1,6.78,2.38,16.76,16.76,0,0,1-7.12,0A18,18,0,0,1,1446.38,955.17Z"/><path id="eydlib7ehv1119" class="cls-31" d="M1573,637.83l-6.11-18.67-4.75-4.75-5.77-.68c-15.28,19.35-55.33,19-63.47,20.37-8.49,1.35-7.47,20.7-7.47,20.7l6.79,37,5.77,4.08,11.2.34,20-3.4,18.67-5.77,14.26-9.84,9.84-11.54,3-18.67Zm-8.49,16.63c-3.73,1-8.82-5.09-11.2-13.24-2.37-8.48-1.36-16.29,2.38-17.31s8.82,5.09,11.2,13.24C1568.9,645.64,1567.89,653.44,1564.49,654.46Z"/></g></g></g><g id="eydlib7ehv1120"><g id="eydlib7ehv1121"><path id="eydlib7ehv1122" class="cls-40" d="M2524.24,436.72h-6v34.11h6Z"/><path id="eydlib7ehv1123" class="cls-40" d="M2589.07,410.83l-4.6,3.88,23.47,28.54,4.59-3.87Z"/><path id="eydlib7ehv1124" class="cls-40" d="M2672.53,285.53h-40.64v6.05h40.64Z"/><path id="eydlib7ehv1125" class="cls-40" d="M2524,68.55h-5.81v34.11H2524Z"/><path id="eydlib7ehv1126" class="cls-40" d="M2414.42,284.56h-40.64v6.05h40.64Z"/></g></g><g id="eydlib7ehv1127"><g id="eydlib7ehv1128"><path id="eydlib7ehv1129" class="cls-37" d="M2836.05,569.52a5.69,5.69,0,1,0-5.81-5.56A5.68,5.68,0,0,0,2836.05,569.52Z"/><path id="eydlib7ehv1130" class="cls-41" d="M2829,635.8a8.27,8.27,0,0,0,8.23-8,8.23,8.23,0,1,0-16.45,0A8.27,8.27,0,0,0,2829,635.8Z"/><path id="eydlib7ehv1131" class="cls-37" d="M2521.1,490.9a4.28,4.28,0,0,0,4.35-4.11,4.49,4.49,0,0,0-4.35-4.35,4.34,4.34,0,0,0-4.36,4.35A4.29,4.29,0,0,0,2521.1,490.9Z"/><path id="eydlib7ehv1132" class="cls-42" d="M2618.1,455.34a4.13,4.13,0,0,0,4.11-4.35,4.07,4.07,0,0,0-4.11-4.11,4.29,4.29,0,0,0-4.36,4.11A4.5,4.5,0,0,0,2618.1,455.34Z"/><path id="eydlib7ehv1133" class="cls-37" d="M2605.76,559.12a7.89,7.89,0,0,0,8-8,8.44,8.44,0,0,0-8-8.23,8.31,8.31,0,0,0-8.22,8.23A8.11,8.11,0,0,0,2605.76,559.12Z"/><path id="eydlib7ehv1134" class="cls-42" d="M2301.94,427.28a8.1,8.1,0,0,0,8-8.22,7.89,7.89,0,0,0-8-8,8.27,8.27,0,0,0-8.23,8A8.48,8.48,0,0,0,2301.94,427.28Z"/><path id="eydlib7ehv1135" class="cls-37" d="M2543.84,617.17a5.81,5.81,0,1,0-5.81-5.8A5.88,5.88,0,0,0,2543.84,617.17Z"/><path id="eydlib7ehv1136" class="cls-42" d="M2196,572.42a5.69,5.69,0,0,0,0-11.37,5.85,5.85,0,0,0-5.81,5.57A6.23,6.23,0,0,0,2196,572.42Z"/><path id="eydlib7ehv1137" class="cls-37" d="M2333.38,506.14a5.88,5.88,0,0,0,5.81-5.8,5.69,5.69,0,1,0-5.81,5.8Z"/><path id="eydlib7ehv1138" class="cls-41" d="M2348.38,356.89a5.69,5.69,0,1,0,0-11.37,5.69,5.69,0,0,0,0,11.37Z"/><path id="eydlib7ehv1139" class="cls-37" d="M2464.49,137a5.69,5.69,0,0,0,0-11.37,5.84,5.84,0,0,0-5.8,5.56A5.73,5.73,0,0,0,2464.49,137Z"/><path id="eydlib7ehv1140" class="cls-42" d="M2737.11,661.92a5.81,5.81,0,1,0,0-11.61,5.68,5.68,0,0,0-5.56,5.81A5.84,5.84,0,0,0,2737.11,661.92Z"/><path id="eydlib7ehv1141" class="cls-37" d="M2384.91,682.73a5.69,5.69,0,1,0,0-11.37,5.67,5.67,0,0,0-5.56,5.8A5.33,5.33,0,0,0,2384.91,682.73Z"/><path id="eydlib7ehv1142" class="cls-41" d="M2259.85,532.75a8.27,8.27,0,0,0,8.22-8,8.1,8.1,0,0,0-8.22-8,8,8,0,1,0,0,16Z"/><path id="eydlib7ehv1143" class="cls-11" d="M2698.89,386.4a8.27,8.27,0,0,0,8.23-8,8.65,8.65,0,0,0-8.23-8.22,8.31,8.31,0,0,0-8.22,8.22A8.11,8.11,0,0,0,2698.89,386.4Z"/><path id="eydlib7ehv1144" class="cls-42" d="M2687,292.06a4.33,4.33,0,0,0,4.35-4.35,4.13,4.13,0,0,0-4.35-4.11,4.07,4.07,0,0,0-4.11,4.11A4,4,0,0,0,2687,292.06Z"/><path id="eydlib7ehv1145" class="cls-37" d="M2353.7,297.63a4.34,4.34,0,0,0,4.36-4.36,4.14,4.14,0,0,0-4.36-4.11,4.29,4.29,0,0,0-4.35,4.11A4.49,4.49,0,0,0,2353.7,297.63Z"/></g></g><g id="eydlib7ehv1214"><g id="eydlib7ehv1215"><path id="eydlib7ehv1216" class="cls-28" d="M2417.56,389.79a9.29,9.29,0,0,1,4.12,1,4.3,4.3,0,0,1,1.93,2.66c1,4.84-4.84,9.43-14.51,17.17-6.77,5.57-14.52,11.86-19.35,17.9-6.53,8.23-4.6,12.58-2.66,15.24,5.32,6.78,28.54.49,54.91-14.51,25.64-14.51,37.25-27.58,36-30.24-1.69-4.35-7.26-3.38-15.48-1.69-6,1.21-11.37,2.42-14.27-.49-1.7-1.69-2.18-3.87-1.7-6.77,1.21-6.29,12.58-13.54,31.45-24.19,10.4-5.8,27.58-16,28.3-19.83-.48-.49-2.42-1.7-10.64-2.18-.49,0-38.95-1.45-89.5,36.28-11.13,8.23-15.73,12.58-17.66,14.76,3.14-.48,8.22-1.69,12.09-2.66C2408.86,391,2414.18,389.79,2417.56,389.79Z"/><path id="eydlib7ehv1217" class="cls-32" d="M2395.79,452.44c-5.32,0-9.91-1.45-12.57-4.84-5.08-6.29-4.36-13.78,2.41-22.49,5.08-6.78,13.31-13.31,20.32-18.87,4.12-3.39,9.68-8,11.61-10.4a141.58,141.58,0,0,0-14.27,2.66c-11.37,2.66-18.38,4.59-20.32.24-1.69-3.87,1-8,21.05-23,52.49-39.19,91.68-37.49,93.37-37.49,10.16.48,15,2.66,16,6.77,1.69,7-10.16,14.27-31.21,26.37-11.13,6.28-27.82,16-28.54,20.07a3,3,0,0,0,0,1.7c1,.48,5.8-.49,8.95-1,8-1.69,18.87-3.87,22.25,5.56,4.6,12.34-34.59,34.84-38.94,37.25C2439.34,438.17,2413.21,452.44,2395.79,452.44Zm21.77-62.65a9.29,9.29,0,0,1,4.12,1,4.3,4.3,0,0,1,1.93,2.66c1,4.84-4.84,9.43-14.51,17.17-6.77,5.57-14.52,11.86-19.35,17.9-6.53,8.23-4.6,12.58-2.66,15.24,5.32,6.78,28.54.49,54.91-14.51,25.64-14.51,37.25-27.58,36-30.24-1.69-4.35-7.26-3.38-15.48-1.69-6,1.21-11.37,2.42-14.27-.49-1.7-1.69-2.18-3.87-1.7-6.77,1.21-6.29,12.58-13.54,31.45-24.19,10.4-5.8,27.58-16,28.3-19.83-.48-.49-2.42-1.7-10.64-2.18-.49,0-38.95-1.45-89.5,36.28-11.13,8.23-15.73,12.58-17.66,14.76,3.14-.48,8.22-1.69,12.09-2.66C2408.86,391,2414.18,389.79,2417.56,389.79Z"/></g></g><path class="cls-43" d="M1183.5,572.35l173.91-173.91,172.22-172.21,172.21,172.21,173.91,173.91L1703.53,744.57l-173.9,173.91L1355.72,744.57Z"/><rect class="cls-11" x="1520.48" y="915.26" width="13.15" height="13.15" transform="translate(-204.57 1349.79) rotate(-45)"/><rect class="cls-37" x="1860.49" y="565.56" width="13.15" height="13.15" transform="translate(142.29 1487.78) rotate(-45)"/><rect class="cls-6" x="1699.2" y="736.54" width="13.15" height="13.15" transform="translate(-25.85 1423.82) rotate(-45)"/><rect class="cls-11" x="1342.27" y="737.06" width="13.15" height="13.15" transform="translate(-130.76 1171.58) rotate(-45)"/><rect class="cls-37" x="1689.39" y="389.51" width="13.15" height="13.15" transform="translate(216.66 1315.23) rotate(-45)"/><rect class="cls-32" x="1523" y="228.07" width="13.15" height="13.15" transform="translate(282.09 1150.3) rotate(-45)"/><rect class="cls-35" x="1185.51" y="565.56" width="13.15" height="13.15" transform="translate(-55.4 1010.51) rotate(-45)"/><rect class="cls-6" x="1352.09" y="389.51" width="13.15" height="13.15" transform="translate(117.87 1076.73) rotate(-45)"/><path class="cls-43" d="M842.65,570l346.44-346.44,343.08-343.08,343.08,343.08L2221.69,570,1878.62,913.08l-346.45,346.45L1185.73,913.08Z"/><rect class="cls-37" x="2204.77" y="561.64" width="26.17" height="26.17" transform="translate(243.21 1736.6) rotate(-45)"/><rect class="cls-6" x="1869.65" y="896.76" width="26.17" height="26.17" transform="translate(-91.92 1597.79) rotate(-45)"/><rect class="cls-11" x="1159.31" y="897.79" width="26.17" height="26.17" transform="translate(-300.7 1095.8) rotate(-45)"/><rect class="cls-37" x="1852.23" y="205.2" width="26.17" height="26.17" transform="translate(391.99 1382.91) rotate(-45)"/><rect class="cls-35" x="824.19" y="560.61" width="26.17" height="26.17" transform="translate(-160.43 760.07) rotate(-45)"/><rect class="cls-11" x="1178.85" y="205.96" width="26.17" height="26.17" transform="translate(194.22 906.98) rotate(-45)"/><path class="cls-44" d="M1281.45,409.54h24.9v-13h16v-1h-17v13h-23v-9.83h-1Z"/><path class="cls-44" d="M1279.16,396.11h5.53v5.53h-5.53Z"/><path class="cls-44" d="M1321.15,396.59h28.11v-1h-27.13V375.26h-33.78V346.31h-1v29.93h33.78Z"/><path class="cls-44" d="M1285.08,343.68h5.53v5.53h-5.53Z"/><path class="cls-44" d="M1321,396.31h1v13.76h-1Z"/><path class="cls-44" d="M1318.75,407.14h5.53v5.53h-5.53Z"/><path class="cls-44" d="M1307.69,375.32h1v-8h7.15v-4.66h8.51v-4.52h-1v3.54h-8.49v4.64h-7.18Z"/><path class="cls-44" d="M1321.09,355.52h5.53v5.53h-5.53Z"/><path class="cls-44" d="M1294.15,409h1V386.43h35.71v-1h-36.69Z"/><path class="cls-44" d="M1328,383.16h5.53v5.53H1328Z"/><path class="cls-44" d="M1260.65,395.19h31.69l-.17-8.76h8.52v-1h-9.52l.16,8.74h-30.68Z"/><path class="cls-44" d="M1258,391.93h5.52v5.52H1258Z"/><path class="cls-44" d="M1276.76,394.5h11.59V373.78h-11.59Zm10.61-1h-9.63V374.79h9.63Z"/><path class="cls-44" d="M1269,379.59h8.26v-1H1270V367.16h-1Z"/><path class="cls-44" d="M1266.71,364.54h5.53v5.53h-5.53Z"/><path class="cls-44" d="M1287.84,371.8h4.33v4.32h-4.33Z"/><path class="cls-44" d="M1300.1,363.42h15.24v1H1300.1Z"/><path class="cls-44" d="M1297.48,361.16H1303v5.53h-5.52Z"/><path class="cls-44" d="M1772.17,409.54h-24.9v-13h-16v-1h17v13h23v-9.83h1Z"/><path class="cls-44" d="M1774.46,396.11h-5.53v5.53h5.53Z"/><path class="cls-44" d="M1732.47,396.59h-28.11v-1h27.13V375.26h33.78V346.31h1v29.93h-33.78Z"/><path class="cls-44" d="M1768.54,343.68H1763v5.53h5.53Z"/><path class="cls-44" d="M1732.58,396.31h-1v13.76h1Z"/><path class="cls-44" d="M1734.87,407.14h-5.52v5.53h5.52Z"/><path class="cls-44" d="M1745.93,375.32h-1v-8h-7.14v-4.66h-8.52v-4.52h1v3.54h8.48v4.64h7.18Z"/><path class="cls-44" d="M1732.53,355.52H1727v5.53h5.53Z"/><path class="cls-44" d="M1759.47,409h-1V386.43h-35.71v-1h36.69Z"/><path class="cls-44" d="M1725.66,383.16h-5.53v5.53h5.53Z"/><path class="cls-44" d="M1793,395.19h-31.69l.17-8.76h-8.51v-1h9.52l-.17,8.74H1793Z"/><path class="cls-44" d="M1795.6,391.93h-5.53v5.52h5.53Z"/><path class="cls-44" d="M1776.86,394.5h-11.59V373.78h11.59Zm-10.61-1h9.63V374.79h-9.63Z"/><path class="cls-44" d="M1784.62,379.59h-8.26v-1h7.29V367.16h1Z"/><path class="cls-44" d="M1786.91,364.54h-5.52v5.53h5.52Z"/><path class="cls-44" d="M1765.78,371.8h-4.33v4.32h4.33Z"/><path class="cls-44" d="M1753.52,363.42h-15.24v1h15.24Z"/><path class="cls-44" d="M1756.15,361.16h-5.53v5.53h5.53Z"/><path class="cls-39" d="M2099,607.67l-.07-.14-.14-.07-.23.07.23-.07-.23.07.23-.07-.23-.08v-.14l.15-.15.14.29.3-.14.14.29Z"/><g id="ey0lu0nyz23k18"><path id="ey0lu0nyz23k19" class="cls-45" d="M554.86,165.21A193.45,193.45,0,0,1,579.41,331.9c-37.43,22.63-82.53,44.58-131.28,63.33C386.49,419,325.89,435.25,275.05,442a26,26,0,0,1,1,5.06c51.19-6.75,112.31-23.13,174.13-46.95,46.83-18.07,90.36-38.84,126.93-60.62-27.86,78-104.47,134.26-194.32,134.26a209.4,209.4,0,0,1-102.91-26.85A202.59,202.59,0,0,0,426,508.38c110.57,0,200.42-87.31,200.42-194.38C626.25,254.21,598.57,200.84,554.86,165.21Z"/><path id="ey0lu0nyz23k20" class="cls-46" d="M227,266.88c23.68-10.81,47.53-21.79,71.21-32.6a14.3,14.3,0,0,1,13.76,1,13.11,13.11,0,0,1,6.1,12,8.16,8.16,0,0,0,4,7.6,8.46,8.46,0,0,0,8.71.33c36.74-18.91,123.28-69.57,132.33-134.09-13.76-2.53-84.45-14.35-152.36,29.73C248.41,191.73,230.82,252.18,227,266.88Z"/><path id="ey0lu0nyz23k21" class="cls-35" d="M463.1,121.3c-9.05,64.35-95.59,115.18-132.33,134.09a8.64,8.64,0,0,1-12.71-7.93,12.94,12.94,0,0,0-6.1-12,14.3,14.3,0,0,0-13.76-1c-23.68,10.81-47.53,21.79-71.21,32.6a124.26,124.26,0,0,1,4-13l67.39-30.9a14.27,14.27,0,0,1,13.76,1,13.11,13.11,0,0,1,6.09,12,8.2,8.2,0,0,0,4,7.6,8.48,8.48,0,0,0,8.71.34c34.65-17.73,113.7-64,130.07-123.12C461.71,121.13,462.4,121.13,463.1,121.3Z"/><path id="ey0lu0nyz23k22" class="cls-38" d="M226.82,272.62v-5.57L298,234.45a14.3,14.3,0,0,1,13.76,1,13.09,13.09,0,0,1,6.09,12,8.19,8.19,0,0,0,4,7.6,8.44,8.44,0,0,0,8.7.33c36.74-18.91,123.28-69.58,132.34-134.09l5.22.68c-9.4,66.71-97.51,118.55-135.12,137.81a14.07,14.07,0,0,1-14.1-.68A13,13,0,0,1,312.66,247a8.12,8.12,0,0,0-3.83-7.43,9,9,0,0,0-8.54-.68Z"/><path id="ey0lu0nyz23k23" class="cls-38" d="M484.34,503.65l-38.13-30.23a11.1,11.1,0,0,0-15,1.18A16.6,16.6,0,0,1,417,479.67a15.67,15.67,0,0,1-12.19-8.78l-11-22.3a10.85,10.85,0,0,0-11.32-5.91l-8.18,1a11.18,11.18,0,0,0-8.19,5.57L342.78,493l-4.7-2.37,23.33-43.73a16,16,0,0,1,12-8.28l8.18-1a16,16,0,0,1,16.72,8.78l11,22.29a10.91,10.91,0,0,0,17.76,2.53,16.4,16.4,0,0,1,22.11-1.69l38.13,30.23Z"/><path id="ey0lu0nyz23k24" class="cls-47" d="M484.34,503.65l-38.13-30.23a11.1,11.1,0,0,0-15,1.18A16.6,16.6,0,0,1,417,479.67a15.67,15.67,0,0,1-12.19-8.78l-11-22.3a10.85,10.85,0,0,0-11.32-5.91l-8.18,1a11.18,11.18,0,0,0-8.19,5.57L342.78,493a228.06,228.06,0,0,0,141.56,10.64Z"/><path id="ey0lu0nyz23k25" class="cls-35" d="M484.69,503.14a60.44,60.44,0,0,1-6.09,1.35l-32.74-26a11.11,11.11,0,0,0-15,1.18,16.59,16.59,0,0,1-14.28,5.06A15.63,15.63,0,0,1,404.42,476l-11-22.29a10.83,10.83,0,0,0-11.32-5.91l-8,1a10.91,10.91,0,0,0-8.18,5.58l-20.72,38.84c-.7-.34-1.39-.51-1.92-.85l23.33-43.74a10.92,10.92,0,0,1,8.19-5.57l8.18-1a10.83,10.83,0,0,1,11.32,5.91l11,22.29a16.26,16.26,0,0,0,26.47,3.72,11.1,11.1,0,0,1,15-1.19Z"/><path id="ey0lu0nyz23k26" class="cls-47" d="M624.69,360.94,597.35,354a6.27,6.27,0,0,0-7.49,3.55L585,368.21a5.8,5.8,0,0,0,.35,5.57,6.33,6.33,0,0,0,4.88,3A11.36,11.36,0,0,1,600.48,389l-2.78,33.1Z"/><path id="ey0lu0nyz23k27" class="cls-35" d="M625.21,360.44l-2.09,4.73L596,358.24a6.27,6.27,0,0,0-7.49,3.55l-3.31,7.26c.17-.34.17-.84.35-1.18l4.87-10.64a6.45,6.45,0,0,1,7.49-3.55Z"/><path id="ey0lu0nyz23k28" class="cls-38" d="M597.87,422.08l-5.22-.34,2.78-33.1a6.25,6.25,0,0,0-5.57-6.75,11,11,0,0,1-8.71-5.58,11.55,11.55,0,0,1-.69-10.13l4.87-10.64a11.78,11.78,0,0,1,13.59-6.42l27.33,6.93-1.39,4.89L597.52,354a6.26,6.26,0,0,0-7.48,3.55l-4.88,10.64a5.75,5.75,0,0,0,.35,5.57,6.3,6.3,0,0,0,4.87,3A11.37,11.37,0,0,1,600.66,389Z"/><path id="ey0lu0nyz23k29" class="cls-38" d="M425.84,513.28c-113.36,0-205.64-89.51-205.64-199.45s92.28-199.45,205.64-199.45,205.64,89.5,205.64,199.45S539.19,513.28,425.84,513.28Zm0-393.83c-110.57,0-200.42,87.14-200.42,194.38s89.85,194.38,200.42,194.38S626.25,420.9,626.25,313.83,536.41,119.45,425.84,119.45Z"/></g><g id="ey0lu0nyz23k31"><g id="ey0lu0nyz23k32" class="cls-48"><g id="ey0lu0nyz23k33"><path id="ey0lu0nyz23k34" class="cls-49" d="M382.07,311.1l-21,8.25a1.16,1.16,0,0,0-.81,1.15l10.26,55a1.16,1.16,0,0,0,1.52.66l10.88-4.27c1.09-.43.81-1.15.81-1.15L381.25,357,391,353.2c15.24-6,18.88-19.12,17.13-28.9S400.57,303.84,382.07,311.1Zm12.4,17.74c1.25,7.46-2.33,12.21-8.86,14.77l-6.53,2.56-3.55-20.79,6.53-2.56C391.86,319,392.92,322.75,394.47,328.84Z"/><path id="ey0lu0nyz23k35" class="cls-49" d="M441.11,333.57c-1.45.57-1.66-1-1.66-1l-4.32-23.84c-1.14-2.9-.1-6.66-8.67-2.88l-6.53,2.56,5.66,30.43s.42,1.09-1,1.66L414,344.61a1.17,1.17,0,0,1-.9,0,1.13,1.13,0,0,1-.61-.66l-9.9-55.13s-.29-.73,1.17-1.3l10.88-4.27c1.09-.42,1.15.81,1.15.81l2.3,13.33,9.43-3.7c13.06-5.12,18.75-.23,20.5,7.45l5.1,26.88s.43,1.09-1.39,1.8Z"/><path id="ey0lu0nyz23k36" class="cls-49" d="M468.78,277.1l-21,8.25a1.17,1.17,0,0,0-.81,1.16l10.26,55a1.16,1.16,0,0,0,1.52.66l10.88-4.27c1.09-.42.81-1.15.81-1.15L468,323.05l9.79-3.84c15.24-6,18.88-19.12,17.13-28.9S487.28,269.85,468.78,277.1Zm12.4,17.74c1.25,7.47-2.33,12.22-8.86,14.78l-6.53,2.56-3.55-20.79,6.53-2.56C478.57,285,479.62,288.76,481.18,294.84Z"/></g></g><g id="ey0lu0nyz23k37" class="cls-48"><g id="ey0lu0nyz23k38"><path id="ey0lu0nyz23k39" class="cls-11" d="M365,363s-3.52,4.47,4.68,2.27c9.92-2.67,14.72-4.75,24.4-10.87a46.06,46.06,0,0,0,7.87.61C382.45,374.32,348.6,375.41,365,363Zm-8.06-12s-3.63,5.84,4.54,3.54c10.56-3,18.6-6,31.42-14.21a15.23,15.23,0,0,0,6.12,1.06C373.92,360.89,339.3,365.75,356.93,351Z"/><path id="ey0lu0nyz23k40" class="cls-38" d="M372.3,319.16c8.42,4.37,3.48,13.24,3.48,13.24S387.47,319,377,312.19c-9.8-6.35-16.36-8.84,3.78-34.34C380.75,277.85,343.77,304.33,372.3,319.16Z"/><path id="ey0lu0nyz23k41" class="cls-11" d="M421.17,352s4.5,1.45-1.77,6.43c-11.92,9.46-54.26,27.64-68.2,27.17-5-.17,2-5.92,4.29-7.46a17.41,17.41,0,0,1,3.95-2.1c-6.08-1.47-28.14,18.74-9.47,14.64C400.88,379.48,435.79,352.66,421.17,352Zm-64.54-16.59s-19.74,13.79-4.93,10.11c6.26-1.56,18-6.43,28.7-11.72,8.72-4.32,17.12-9.52,17.12-9.52a41.22,41.22,0,0,0-4.31,5.1c-19.83,14.57-63.63,28.77-53.68,17.95C347.94,338.15,356.63,335.38,356.63,335.38Zm47.72,6.38c17.86-20.58,3-27.7-3.64-23.31a18.28,18.28,0,0,0-2.3,1.71,4.45,4.45,0,0,1,1.34-2.25c12.36-10.72,31.29,4.84,4.38,24.62a2.34,2.34,0,0,0,.22-.77Z"/><path id="ey0lu0nyz23k42" class="cls-38" d="M356.05,259.31s17.38,7.53.69,36.28c-13.38,23.07,5.11,25.89,13.5,34.15-15.41-5.75-27.31-11.48-25.05-22.09C348.53,292.08,368.9,277.11,356.05,259.31Z"/><path id="ey0lu0nyz23k43" class="cls-11" d="M380,388c22.13-7.16,54.43-22.42,51.17-32.94,0,0,0,4.46-15.09,14-17,10.75-39.94,19.34-54.29,22.45C361.8,391.52,365.46,392.71,380,388Z"/><path id="ey0lu0nyz23k44" class="cls-38" d="M524.83,283.71l-.66.26-.14-.37,1.77-.7.14.37-.65.26.73,1.83-.46.18Zm3.57-1.31h0l0,2-.3.12L526.79,283h0l.68,1.75L527,285l-.87-2.21.64-.25,1.21,1.32V282l.63-.25.87,2.2-.42.17Zm-53.43,45a10.56,10.56,0,0,1-5,5.18,4.2,4.2,0,0,1-5.95-2.62c-1.13-2.86-.36-5.59,6-8.12l2.36-.94,2.57,6.5Zm8.12,4.12-7.76-19.62c-2-5-6.16-7.19-13.05-4.47a27.89,27.89,0,0,0-9.52,6.38l2.2,3.15a26.14,26.14,0,0,1,7.41-4.78c4-1.57,6.32-.65,7.62,2.66l1,2.48-2,.79c-9.65,3.81-12.52,9.28-10.29,14.91,1.92,4.84,5.88,6.47,11.28,4.33a13.41,13.41,0,0,0,7.09-6.89l1.61,2.81,4.41-1.75Zm18.75-7.42-7,2.77-19.3-24.1,6.12-2.42,11.91,14.79,3.17,4.61a113.71,113.71,0,0,0-3.22-24.09l6-2.36A119.78,119.78,0,0,1,501.84,324.08Zm24.38-17a10.64,10.64,0,0,1-5,5.18,4.2,4.2,0,0,1-6-2.62c-1.13-2.87-.36-5.6,6-8.13l2.37-.94,2.58,6.51Zm8.13,4.11-7.77-19.62c-2-5-6.16-7.19-13.05-4.46a27.75,27.75,0,0,0-9.52,6.38l2.2,3.15a26.08,26.08,0,0,1,7.42-4.79c4-1.56,6.31-.64,7.62,2.67l1,2.48-2,.78c-9.65,3.82-12.52,9.28-10.29,14.91,1.92,4.85,5.87,6.47,11.27,4.33a13.45,13.45,0,0,0,7.1-6.88l1.62,2.8,4.41-1.75Zm-77.18,35.93a15.81,15.81,0,0,1-4.95,8L448.16,353a12.56,12.56,0,0,0,3.06-6.48c.15-1.78-.29-3.8-2.09-8.36l-12.4-31.34,6-2.36,12.23,30.91C457.34,341.45,457.83,344.11,457.17,347.15Z"/></g></g><g id="ey0lu0nyz23k45" class="cls-48"><g id="ey0lu0nyz23k46"><path id="ey0lu0nyz23k47" class="cls-39" d="M413.15,371.39l-36.47-74.77,75.89-29,22.67,80-27.79,20.64"/><path id="ey0lu0nyz23k48" class="cls-50" d="M445.05,361.52,467.48,345l-19.43-68.55-31,11.83"/><path id="ey0lu0nyz23k49" class="cls-51" d="M428.08,317.09l-12.62,4.83-4.57-9.44,13.46-5.14-3.6-9.43L396.86,307l13.51,27.81,21.37-8.16Zm9.28,24.8-11.7,1.19-3.56-7.31-9.42,3.6,6.89,14.52,21.58-2.07Z"/><path id="ey0lu0nyz23k50" class="cls-6" d="M427.91,317.16l3.66,9.59,11.78-4.5L446.86,335l-9.5,6.91,3.79,9.93L458.61,339l-8.49-30.31ZM420.58,298l3.6,9.42,23.05-8.81-2.76-9.74Z"/></g></g><g id="ey0lu0nyz23k51" class="cls-48"><g id="ey0lu0nyz23k52"><path id="ey0lu0nyz23k53" class="cls-39" d="M368,343l-24.48,36.14L397,364.75Zm8.63-41.6q-.84,4.38-1.67,8.76-2.87,15-5.71,30.07c-.1.56-.33,1.06.35,1.57q12.56,9.35,25.06,18.76a36.65,36.65,0,0,0,4.17,2.81l-21.95-62ZM319.66,355.9a1.33,1.33,0,0,0,1.17-.24c3.77-4.38,7.6-8.73,11.19-13.27a24.33,24.33,0,0,0,2.52-5.24q4-8.79,8-17.6a3.38,3.38,0,0,0,.41-1.11c.28-3.74.53-7.48.8-11.33-2.18.08-4.25.12-6.31.25-.29,0-.6.35-.8.61-3.2,4.14-6.54,8.19-9.52,12.49a44.77,44.77,0,0,0-3.46,7.18c-1.79,3.9-3.57,7.81-5.29,11.74a16.26,16.26,0,0,0-1,3.28c-.76,3.71-1.44,7.43-2.18,11.27C316.7,354.63,318.16,355.32,319.66,355.9Zm15.74-11.28,5.47,33.71c8.31-12.27,16.44-24.26,24.5-36.17Zm11.82-25,19.51,19.87c2.35-12.33,4.65-24.41,7-36.76Zm-12.28,22.78L364.33,340c-6.55-6.67-12.86-13.11-19.32-19.68Zm-12.49,19.3v25.87l17-7.81Zm15.13,12.86.2-.14c-1.53-9.64-3-19.23-4.63-29.23l-10.83,13.17C327.24,363.57,332.46,369.09,337.58,374.53Zm32.09-71.78L360.49,304c-4.39.62-8.78,1.25-13.18,1.85-.55.08-.95.14-1,.87-.2,3.51-.45,7-.68,10.52a1.82,1.82,0,0,0,.11.46l24-14.78Zm-18.7.11,25-3.16-8.13-9.19-17,12.13Zm35.4,66.78-19.47,5.23c-8.09,2.17-16.21,4.23-24.24,6.57a68.93,68.93,0,0,0-8.45,3.6c-2.3,1-4.58,2.09-6.87,3.14a1,1,0,0,0-.58.62l59.68-18.88Zm-66.31,11c.07-6.87.13-13.74.22-20.61a1.19,1.19,0,0,0-.85-1.35c-1.45-.56-2.86-1.24-4.48-2l4.8,24.62h.2a5.52,5.52,0,0,0,.11-.71Zm25.36-77.25c3.71-2.85,7.58-5.49,11.39-8.21.25-.18.47-.39.71-.58l-.13-.19-17,10.09C342.37,304.55,343.91,304.56,345.42,303.4Zm70.93,29.13L423,348.67l-8.77,3.7-17.27-42.06,12-5.09q8.41-3.56,13.75-2.14t7.93,7.77a12.2,12.2,0,0,1,.7,7.45,14.53,14.53,0,0,1-3.82,6.93l19.68,13.19-9.72,4.11-16.49-12-4.66,2Zm-3-7.25,2.83-1.19a11.75,11.75,0,0,0,5.55-4,5.54,5.54,0,0,0,.16-5.27,4.93,4.93,0,0,0-3.77-3.4,13.07,13.07,0,0,0-6.78,1.38l-2.66,1.12,4.67,11.36Zm60.76,1.77-2.85-3.63-.45.2a10,10,0,0,1-2.5,5.12,14.38,14.38,0,0,1-5.29,3.67q-5.58,2.35-9.65.52T447,325.39l-8.61-21,8.62-3.65,7.72,18.79a9.72,9.72,0,0,0,3.36,4.71,4.72,4.72,0,0,0,4.58.1,6.36,6.36,0,0,0,4.22-4.67c.4-2.09-.18-5-1.74-8.83l-6.21-15.14,8.62-3.64,13.21,32.17-6.62,2.79Zm19.78-46.82a10.93,10.93,0,0,1,10.59.74q5,3.11,8.17,10.85,3.27,8,1.8,13.72a12.46,12.46,0,0,1-7,8.07,12.18,12.18,0,0,1-10.57-.37l-.59.25,0,4.15-6.59,2.79-18.38-44.76L480,272l4.27,10.42c.55,1.32,1.3,3.49,2.27,6.5l.35-.14A10.9,10.9,0,0,1,493.91,280.23Zm.11,8.19a6,6,0,0,0-3.84,4q-.65,2.63,1.19,7.25l.39.95c1.42,3.45,2.94,5.72,4.56,6.79a5.76,5.76,0,0,0,5.71.21,5.26,5.26,0,0,0,3.2-4.27,14.75,14.75,0,0,0-1.4-7.9q-1.95-4.74-4.51-6.45a5.31,5.31,0,0,0-5.3-.55Zm14.1-13.48,9.44-4L531,286.52a26.76,26.76,0,0,1,3.33,5.14l.17-.07a27.38,27.38,0,0,1-1.08-6.1l-1.58-20.56,9.25-3.91L542.57,303a17.15,17.15,0,0,1-2.14,9.75,14.37,14.37,0,0,1-6.93,5.86,21,21,0,0,1-4.58,1.37l-2.86-7a15.56,15.56,0,0,0,3.54-1.07,6.65,6.65,0,0,0,3.42-3.11,10.05,10.05,0,0,0,.9-5.43l-.14-1.8Z"/></g></g><g id="ey0lu0nyz23k54"><path id="ey0lu0nyz23k55" class="cls-38" d="M310.05,336.46c4.35-1.69,8.88-3.38,13.23-5.24.69-.34,1.74-.34,1.22-1.69s-1.22-.84-2.09-.5c-4.88,1.85-9.75,3.71-14.63,5.74-1.39.67-2.09.51-2.61-1a49,49,0,0,0-1.92-4.55c-1.91-4.73-.34-9.8,4.36-12a152.07,152.07,0,0,1,19.67-7.77c5.23-1.69,9.93.67,12.19,5.4,2.44,5.24,4.53,10.64,6.79,16,2.09,5.41-.17,10.64-5.92,12.84-5.74,2.36-11.49,4.56-17.23,6.76-6.62,2.7-9.58,9.28-6.8,15.87.87,2,1.74,4,2.62,6.08.34,1,.17,1.52-.7,1.86-2.44.84-4.7,2-7.31,2.7a9,9,0,0,1-10.63-5.24L292.46,353c-1.92-4.73.17-9.46,4.87-11.49C301.51,339.83,305.69,338.15,310.05,336.46Zm4-13a3.43,3.43,0,0,0-4.7-1.86,3.49,3.49,0,0,0-2.09,4.4,4.15,4.15,0,0,0,4.7,2.19A3.87,3.87,0,0,0,314.05,323.45Z"/><path id="ey0lu0nyz23k56" class="cls-11" d="M353.92,360.1c-4.18,1.69-8.53,3.38-12.71,5.07-.69.34-1.74.5-1.21,1.52.52,1.35,1.39.67,2.08.5,4.71-1.85,9.41-3.54,13.93-5.57,2.27-1,3.14-.51,3.83,1.69.53,2,1.75,3.88,2.09,5.91A9.38,9.38,0,0,1,356,379.69c-5.92,2.36-12,4.73-17.93,7.09a10,10,0,0,1-12.89-5.23c-2.43-5.58-4.7-11-7-16.55a9.11,9.11,0,0,1,5.22-12c5.57-2.2,11.15-4.39,16.89-6.59,8-3.21,10.8-9.79,7.66-17.56-.87-2-2.78-4.23-2.09-6.08.7-1.69,3.66-1.86,5.75-2.7,5.92-2.37,10.8-.34,13.23,5.4,2.27,5.57,4.71,11,7,16.55,2.61,6.08.69,10.47-5.57,13.17C362.28,356.89,358.1,358.41,353.92,360.1Zm1.4,14.69a3.84,3.84,0,0,0,1.91-4.73,3.69,3.69,0,0,0-6.79,2.87A4.14,4.14,0,0,0,355.32,374.79Z"/><path id="ey0lu0nyz23k57" class="cls-38" d="M445.16,319.23a35.78,35.78,0,0,1-7.31,5.24c-7.49,4-13.76,1.85-16.89-5.58-2.44-5.74-4.87-11.48-7.14-17.22-.52-1.19,2.44-5.07,3.66-4.73.7.17.7,1,1,1.52,2.62,6.08,5.05,12.16,7.66,18.24,2.27,5.23,7,6.75,12,3.88l1.57-1c3.65-2.7,4-3.55,2.26-7.77-2.61-6.25-5-12.5-7.84-18.58-1-2.19.35-2.36,1.75-2.87,1.21-.5,2.61-1.69,3.48.68,3.83,9.79,8.18,19.25,11.84,29.05,3.48,9.45.17,16.55-9.4,20.43-1.57.68-1.92-.51-2.62-1.35-.87-1,0-1.52.88-1.86.34-.17.86-.51,1.21-.67C449.17,331.39,449.17,327.84,445.16,319.23Z"/><path id="ey0lu0nyz23k58" class="cls-38" d="M404.59,354.86c-5.74.68-5.74.68-7.66-4.05-4.52-11-9.05-21.95-13.75-32.76a3.47,3.47,0,0,1,.17-3.88,22,22,0,0,1,14.11-9.46c4-.85,7.48.84,10.27,3.54a23.47,23.47,0,0,1,7.31,15.2c.7,8.11-4.7,14-13.23,14.36a41.89,41.89,0,0,1-4.53-.17Q400.94,346.25,404.59,354.86ZM391.71,324.3a56.36,56.36,0,0,1,3,7.43c.7,2.19,2.09,2.7,4,2.7a21.53,21.53,0,0,0,3.31-.17c4.88-.67,7.66-3.88,7.14-8.61a24.14,24.14,0,0,0-6.27-14.19c-2.61-3-5.74-3.54-9.4-1.69a19,19,0,0,0-5.05,3.89,2,2,0,0,0-.35,2.53C389.44,318.89,390.49,321.59,391.71,324.3Z"/><path id="ey0lu0nyz23k59" class="cls-38" d="M462.05,259.28c3,6.92,5.75,13.68,8.54,20.6a22.63,22.63,0,0,1,8.53-7.09c5.57-2.37,11-.68,13.41,4.9,3,6.58,5.57,13.17,8.35,19.75.35,1,.35,1.53-.87,2a11.06,11.06,0,0,0-2.09.85c-1.39.67-1.91.16-2.43-1-2.09-5.23-4.36-10.64-6.62-15.87a20.17,20.17,0,0,0-2.26-4.22c-2.62-3.38-6.1-3.72-9.41-1.19a24.67,24.67,0,0,0-4.52,4.9c-.7,1-.18,1.69.17,2.53,2.61,6.42,5.22,13,8.18,19.26,1.05,2.19-.34,2.53-1.91,3-1.39.5-2.61,1.52-3.48-.85-5.75-14-11.67-28-17.59-42-.52-1.35-.52-2.19.87-3C460,261,460.84,260.29,462.05,259.28Z"/><path id="ey0lu0nyz23k60" class="cls-38" d="M519.86,292.21a13.35,13.35,0,0,1-13.58-2c-5.4-4.22-8.18-9.62-8-16.21.18-7.09,4.35-11.82,11.67-13.68,5.74-1.52,12.54,1.35,16,6.76a20.14,20.14,0,0,1,3.48,13.34C528.92,286,525.78,289.85,519.86,292.21ZM522.3,273a15.51,15.51,0,0,0-4.53-6.76c-2.61-2.19-5.57-3-8.88-1.52-3.48,1.52-5.39,4.06-5.05,7.77a21.83,21.83,0,0,0,7.49,15.2,7.3,7.3,0,0,0,8.36,1.18,7.77,7.77,0,0,0,4.88-6.92A27.26,27.26,0,0,0,522.3,273Z"/><path id="ey0lu0nyz23k61" class="cls-38" d="M533.45,271.1,528.74,260a2.3,2.3,0,0,1,0-2.36c3.48-5.07,8-8.78,14.11-10.3,5.4-1.35,9.57.67,11.66,5.57,2.79,6.59,5.4,13.17,8.36,19.76.87,2-.35,2.2-1.74,2.7-1.22.34-2.61,1.86-3.66-.5-2.43-6.08-5.05-12-7.48-18.07-1.22-3-3.31-5.24-6.79-5.24-4.18,0-7.14,2.2-9.41,5.41-.52.84,0,1.51.35,2.19,3,7.09,5.75,14,8.88,21.11.87,2,0,2.53-1.74,3-1.57.51-2.61,1.18-3.48-1C536.58,278.36,535,274.82,533.45,271.1Z"/><path id="ey0lu0nyz23k62" class="cls-38" d="M453.35,299.64c-1.22-3-2.61-5.91-3.66-8.95-.52-1.35-1.22-2.2-2.78-1.35-1.22.68-1.75.34-2.27-.85-.52-1.35-.52-2,1.05-2.36,1.74-.34,1.74-1.18,1-2.53-.87-1.69-1.39-3.55-2.26-5.24-.18-.5-.52-1.18.17-1.69,1.22-.84,2.09-2.7,3.48-2.53,1.05,0,1.05,2,1.75,3a7.08,7.08,0,0,1,.69,1.69c.7,1.35.7,3.38,2.09,4.05,1.22.68,2.79-.67,4.18-1.35,1.39-.51,1.74,0,2.09,1s.7,1.69-.7,2.2-3.48.67-4,1.86c-.52,1.52.87,3,1.56,4.56,1.92,4.73,3.84,9.28,5.75,13.85,1.57,3.71,2.79,4.39,6.79,3.71,1.22-.17,1.57.34,1.92,1.18.52,1,0,1.35-.87,1.69-5.4,2.2-10.8,1.52-12.89-4.73C455.61,304.71,454.39,302.18,453.35,299.64Z"/></g></g><g id="ey0lu0nyz23k65"><path id="ey0lu0nyz23k66" class="cls-41" d="M639.83,578.63a6.59,6.59,0,1,0-6.79-6.58A6.59,6.59,0,0,0,639.83,578.63Z"/><path id="ey0lu0nyz23k67" class="cls-37" d="M263.21,77.73a6.59,6.59,0,1,0-6.8-6.58A6.7,6.7,0,0,0,263.21,77.73Z"/><path id="ey0lu0nyz23k68" class="cls-41" d="M616.85,102.73a4.56,4.56,0,1,0-4.7-4.56A4.51,4.51,0,0,0,616.85,102.73Z"/><path id="ey0lu0nyz23k69" class="cls-11" d="M158.91,273.46a4.56,4.56,0,1,0-4.71-4.55A4.72,4.72,0,0,0,158.91,273.46Z"/><path id="ey0lu0nyz23k70" class="cls-42" d="M721.67,429.17a4.56,4.56,0,1,0-4.7-4.56A4.61,4.61,0,0,0,721.67,429.17Z"/><path id="ey0lu0nyz23k71" class="cls-37" d="M532.92,556.85a4.56,4.56,0,1,0-4.7-4.56A4.61,4.61,0,0,0,532.92,556.85Z"/><path id="ey0lu0nyz23k72" class="cls-42" d="M306.74,558a4.56,4.56,0,1,0-4.7-4.56A4.62,4.62,0,0,0,306.74,558Z"/><path id="ey0lu0nyz23k73" class="cls-37" d="M87.34,465.82a9.63,9.63,0,1,0-9.92-9.63A9.78,9.78,0,0,0,87.34,465.82Z"/><path id="ey0lu0nyz23k74" class="cls-41" d="M721.67,335.11a9.63,9.63,0,1,0,0-19.26,9.67,9.67,0,0,0-9.92,9.63A9.78,9.78,0,0,0,721.67,335.11Z"/><path id="ey0lu0nyz23k75" class="cls-37" d="M732.29,536.58a9.63,9.63,0,1,0,0-19.25,9.66,9.66,0,0,0-9.92,9.62A9.78,9.78,0,0,0,732.29,536.58Z"/><path id="ey0lu0nyz23k76" class="cls-42" d="M516,46.15a9.63,9.63,0,1,0,0-19.25,9.66,9.66,0,0,0-9.92,9.62A9.88,9.88,0,0,0,516,46.15Z"/><path id="ey0lu0nyz23k77" class="cls-11" d="M178.58,600.42a6.59,6.59,0,1,0-6.79-6.59A6.59,6.59,0,0,0,178.58,600.42Z"/></g><path id="ey0lu0nyz23k78" class="cls-52" d="M222.81,334.77C207.15,339.33,21.72,513,373.25,417.52S722.05,166.27,595.43,197"/></svg>