<?xml version="1.0" encoding="utf-8"?>
<!-- Generator: Adobe Illustrator 25.2.1, SVG Export Plug-In . SVG Version: 6.00 Build 0)  -->
<svg version="1.1" xmlns="http://www.w3.org/2000/svg" xmlns:xlink="http://www.w3.org/1999/xlink" x="0px" y="0px"
	 viewBox="0 0 3000 1685" style="enable-background:new 0 0 3000 1685;" xml:space="preserve">
<style type="text/css">
	.st0{fill:#FE507C;}
	.st1{clip-path:url(#SVGID_2_);}
	.st2{fill:none;stroke:#FFFFFF;stroke-miterlimit:10;}
	.st3{fill:#FE688E;}
	.st4{fill:#FE7094;}
	.st5{fill:url(#SVGID_3_);stroke:url(#SVGID_4_);stroke-miterlimit:10;}
	.st6{fill:url(#SVGID_5_);stroke:url(#SVGID_6_);stroke-miterlimit:10;}
	.st7{fill:url(#SVGID_7_);stroke:url(#SVGID_8_);stroke-miterlimit:10;}
	.st8{fill:url(#SVGID_9_);stroke:url(#SVGID_10_);stroke-miterlimit:10;}
	.st9{fill:url(#SVGID_11_);stroke:url(#SVGID_12_);stroke-miterlimit:10;}
	.st10{fill:url(#SVGID_13_);stroke:url(#SVGID_14_);stroke-miterlimit:10;}
	.st11{fill:url(#SVGID_15_);stroke:url(#SVGID_16_);stroke-miterlimit:10;}
	.st12{fill:url(#SVGID_17_);stroke:url(#SVGID_18_);stroke-miterlimit:10;}
	.st13{fill:url(#SVGID_19_);stroke:url(#SVGID_20_);stroke-miterlimit:10;}
	.st14{fill:url(#SVGID_21_);stroke:url(#SVGID_22_);stroke-miterlimit:10;}
	.st15{fill:url(#SVGID_23_);stroke:url(#SVGID_24_);stroke-miterlimit:10;}
	.st16{fill:url(#SVGID_25_);stroke:url(#SVGID_26_);stroke-miterlimit:10;}
	.st17{fill:url(#SVGID_27_);stroke:url(#SVGID_28_);stroke-miterlimit:10;}
	.st18{fill:url(#SVGID_29_);stroke:url(#SVGID_30_);stroke-miterlimit:10;}
	.st19{fill:url(#SVGID_31_);stroke:url(#SVGID_32_);stroke-miterlimit:10;}
	.st20{fill:url(#SVGID_33_);stroke:url(#SVGID_34_);stroke-miterlimit:10;}
	.st21{fill:url(#SVGID_35_);stroke:url(#SVGID_36_);stroke-miterlimit:10;}
	.st22{fill:url(#SVGID_37_);stroke:url(#SVGID_38_);stroke-miterlimit:10;}
	.st23{fill:url(#SVGID_39_);stroke:url(#SVGID_40_);stroke-miterlimit:10;}
	.st24{fill:url(#SVGID_41_);stroke:url(#SVGID_42_);stroke-miterlimit:10;}
	.st25{fill:none;stroke:#FFFFFF;stroke-width:3;stroke-miterlimit:10;}
	.st26{fill:#22E28F;}
	.st27{fill:#FDCC2B;}
	.st28{fill:#5C0CFB;}
	.st29{fill:url(#SVGID_43_);}
	.st30{fill:url(#SVGID_44_);}
	.st31{fill:url(#SVGID_45_);}
	.st32{fill:url(#SVGID_46_);}
	.st33{fill:url(#SVGID_47_);}
	.st34{fill:#FE6B90;}
	.st35{fill:none;}
	.st36{fill:none;stroke:#0E0125;stroke-miterlimit:10;}
	.st37{fill:#0E0125;}
	.st38{fill:#0E0133;}
	.st39{fill:#E2E0E7;}
	.st40{fill:none;stroke:#5C0CFB;stroke-width:5;stroke-miterlimit:10;}
	.st41{fill:#E2E0E7;stroke:#5C0CFB;stroke-miterlimit:10;}
	.st42{opacity:0.33;fill:#B08AFB;}
</style>
<g id="Layer_1">
</g>
<g id="Layer_2_1_">
	<g>
		<path class="st0" d="M8394.9,498.9"/>
	</g>
	<g>
		<defs>
			<rect id="SVGID_1_" x="0" width="3000" height="1693.7"/>
		</defs>
		<clipPath id="SVGID_2_">
			<use xlink:href="#SVGID_1_"  style="overflow:visible;"/>
		</clipPath>
		<g class="st1">
			<path class="st2" d="M149.9,1513.6c-2.9-0.3-5.6-0.6-8.1-0.9"/>
			<rect x="-0.1" y="0.8" class="st0" width="3000.1" height="1683.5"/>
			<path class="st3" d="M3000,0.8v1266.7c-155.4,51.8-323.5,92.9-490.2,103.6c-371.2,23.8-405.6,184.3-518.5,313.2H497
				c294.8-103.8,608.8-118.8,608.8-118.8c211.7-69.1,332.6-250.6,315.4-475.2c-17.3-224.6,34.6-207.4,168.5-324
				c133.9-116.6,315.4-190.1,384.5-315.4c69.1-125.3,38.9-194.4,138.2-359.9c20.3-33.9,43.2-63.4,67.6-90.2H3000z"/>
			<path class="st3" d="M1283.5,0.8L1149,126.5c0,0-203.1,144.4-194.4,348.9c8.6,204.4-138.2,403.2-289.5,476.6
				c-151.2,73.4-263.5,159.8-410.4,155.5c-66.8-2-167,43.4-254.8,97.6V713.7c112.3-99.1,235.5-254.4,276.4-354.6
				c60.5-148,47.5-189,229-321.2c16.8-12.2,32.2-24.7,46.3-37.1H1283.5z"/>
			<path class="st4" d="M2180.3,0.8c-24.5,26.8-47.3,56.3-67.6,90.2c-99.4,165.5-69.1,234.6-138.2,359.9
				c-69.1,125.3-250.6,198.7-384.5,315.4c-133.9,116.6-185.8,99.4-168.5,324c17.3,224.6-103.7,406.1-315.4,475.2
				c0,0-313.9,15-608.8,118.8H0.3v-479.2c87.8-54.1,188-99.5,254.8-97.6c146.9,4.3,259.2-82.1,410.4-155.5
				c151.2-73.4,298.1-272.2,289.4-476.6s194.4-348.9,194.4-348.9L1283.8,0.8H2180.3z"/>
			<g>
				<linearGradient id="SVGID_3_" gradientUnits="userSpaceOnUse" x1="-882.9183" y1="78.7057" x2="4967.7485" y2="124.039">
					<stop  offset="0" style="stop-color:#FE6289"/>
					<stop  offset="0.5447" style="stop-color:#5C0CFB;stop-opacity:0.5"/>
					<stop  offset="1" style="stop-color:#FE507C"/>
				</linearGradient>
				<linearGradient id="SVGID_4_" gradientUnits="userSpaceOnUse" x1="1007.9359" y1="93.6052" x2="1072.0715" y2="93.6052">
					<stop  offset="0" style="stop-color:#FE6289"/>
					<stop  offset="8.011582e-02" style="stop-color:#F05F9E;stop-opacity:0.9508"/>
					<stop  offset="0.3583" style="stop-color:#C457E1;stop-opacity:0.7801"/>
					<stop  offset="0.4888" style="stop-color:#B354FB;stop-opacity:0.7"/>
					<stop  offset="1" style="stop-color:#FE507C"/>
				</linearGradient>
				<circle class="st5" cx="1040" cy="93.6" r="32.1"/>
				<linearGradient id="SVGID_5_" gradientUnits="userSpaceOnUse" x1="-891.6785" y1="1209.2921" x2="4958.9883" y2="1254.6254">
					<stop  offset="0" style="stop-color:#FE6289"/>
					<stop  offset="0.5447" style="stop-color:#5C0CFB;stop-opacity:0.5"/>
					<stop  offset="1" style="stop-color:#FE507C"/>
				</linearGradient>
				<linearGradient id="SVGID_6_" gradientUnits="userSpaceOnUse" x1="1553.447" y1="1228.4373" x2="1604.9148" y2="1228.4373">
					<stop  offset="0" style="stop-color:#FE6289"/>
					<stop  offset="8.011582e-02" style="stop-color:#F05F9E;stop-opacity:0.9508"/>
					<stop  offset="0.3583" style="stop-color:#C457E1;stop-opacity:0.7801"/>
					<stop  offset="0.4888" style="stop-color:#B354FB;stop-opacity:0.7"/>
					<stop  offset="1" style="stop-color:#FE507C"/>
				</linearGradient>
				<circle class="st6" cx="1579.2" cy="1228.4" r="25.7"/>
				<linearGradient id="SVGID_7_" gradientUnits="userSpaceOnUse" x1="-884.7181" y1="310.9908" x2="4965.9487" y2="356.3241">
					<stop  offset="0" style="stop-color:#FE6289"/>
					<stop  offset="0.5447" style="stop-color:#5C0CFB;stop-opacity:0.5"/>
					<stop  offset="1" style="stop-color:#FE507C"/>
				</linearGradient>
				<linearGradient id="SVGID_8_" gradientUnits="userSpaceOnUse" x1="175.0219" y1="319.516" x2="256.0482" y2="319.516">
					<stop  offset="0" style="stop-color:#FE6289"/>
					<stop  offset="8.011582e-02" style="stop-color:#F05F9E;stop-opacity:0.9508"/>
					<stop  offset="0.3583" style="stop-color:#C457E1;stop-opacity:0.7801"/>
					<stop  offset="0.4888" style="stop-color:#B354FB;stop-opacity:0.7"/>
					<stop  offset="1" style="stop-color:#FE507C"/>
				</linearGradient>
				<circle class="st7" cx="215.5" cy="319.5" r="40.5"/>
				<linearGradient id="SVGID_9_" gradientUnits="userSpaceOnUse" x1="-888.395" y1="785.5185" x2="4962.2715" y2="830.8518">
					<stop  offset="0" style="stop-color:#FE6289"/>
					<stop  offset="0.5447" style="stop-color:#5C0CFB;stop-opacity:0.5"/>
					<stop  offset="1" style="stop-color:#FE507C"/>
				</linearGradient>
				<linearGradient id="SVGID_10_" gradientUnits="userSpaceOnUse" x1="521.2776" y1="796.6733" x2="581.1907" y2="796.6733">
					<stop  offset="0" style="stop-color:#FE6289"/>
					<stop  offset="8.011582e-02" style="stop-color:#F05F9E;stop-opacity:0.9508"/>
					<stop  offset="0.3583" style="stop-color:#C457E1;stop-opacity:0.7801"/>
					<stop  offset="0.4888" style="stop-color:#B354FB;stop-opacity:0.7"/>
					<stop  offset="1" style="stop-color:#FE507C"/>
				</linearGradient>
				<circle class="st8" cx="551.2" cy="796.7" r="30"/>
				<linearGradient id="SVGID_11_" gradientUnits="userSpaceOnUse" x1="-882.6589" y1="45.2314" x2="4968.0078" y2="90.5648">
					<stop  offset="0" style="stop-color:#FE6289"/>
					<stop  offset="0.5447" style="stop-color:#5C0CFB;stop-opacity:0.5"/>
					<stop  offset="1" style="stop-color:#FE507C"/>
				</linearGradient>
				<linearGradient id="SVGID_12_" gradientUnits="userSpaceOnUse" x1="432.5329" y1="55.4674" x2="444.2214" y2="55.4674">
					<stop  offset="0" style="stop-color:#FE6289"/>
					<stop  offset="8.011582e-02" style="stop-color:#F05F9E;stop-opacity:0.9508"/>
					<stop  offset="0.3583" style="stop-color:#C457E1;stop-opacity:0.7801"/>
					<stop  offset="0.4888" style="stop-color:#B354FB;stop-opacity:0.7"/>
					<stop  offset="1" style="stop-color:#FE507C"/>
				</linearGradient>
				<rect x="433" y="50.1" class="st9" width="10.7" height="10.7"/>
				<linearGradient id="SVGID_13_" gradientUnits="userSpaceOnUse" x1="-890.8055" y1="1096.6194" x2="4959.8613" y2="1141.9528">
					<stop  offset="0" style="stop-color:#FE6289"/>
					<stop  offset="0.5447" style="stop-color:#5C0CFB;stop-opacity:0.5"/>
					<stop  offset="1" style="stop-color:#FE507C"/>
				</linearGradient>
				<linearGradient id="SVGID_14_" gradientUnits="userSpaceOnUse" x1="1664.1556" y1="1116.4615" x2="1675.8441" y2="1116.4615">
					<stop  offset="0" style="stop-color:#FE6289"/>
					<stop  offset="8.011582e-02" style="stop-color:#F05F9E;stop-opacity:0.9508"/>
					<stop  offset="0.3583" style="stop-color:#C457E1;stop-opacity:0.7801"/>
					<stop  offset="0.4888" style="stop-color:#B354FB;stop-opacity:0.7"/>
					<stop  offset="1" style="stop-color:#FE507C"/>
				</linearGradient>
				<rect x="1664.7" y="1111.1" class="st10" width="10.7" height="10.7"/>
				<linearGradient id="SVGID_15_" gradientUnits="userSpaceOnUse" x1="-888.0655" y1="743.0018" x2="4962.6011" y2="788.3351">
					<stop  offset="0" style="stop-color:#FE6289"/>
					<stop  offset="0.5447" style="stop-color:#5C0CFB;stop-opacity:0.5"/>
					<stop  offset="1" style="stop-color:#FE507C"/>
				</linearGradient>
				<linearGradient id="SVGID_16_" gradientUnits="userSpaceOnUse" x1="2166.7146" y1="766.7167" x2="2178.4031" y2="766.7167">
					<stop  offset="0" style="stop-color:#FE6289"/>
					<stop  offset="8.011582e-02" style="stop-color:#F05F9E;stop-opacity:0.9508"/>
					<stop  offset="0.3583" style="stop-color:#C457E1;stop-opacity:0.7801"/>
					<stop  offset="0.4888" style="stop-color:#B354FB;stop-opacity:0.7"/>
					<stop  offset="1" style="stop-color:#FE507C"/>
				</linearGradient>
				<rect x="2167.2" y="761.4" class="st11" width="10.7" height="10.7"/>
				<linearGradient id="SVGID_17_" gradientUnits="userSpaceOnUse" x1="-882.767" y1="59.1908" x2="4967.8994" y2="104.5241">
					<stop  offset="0" style="stop-color:#FE6289"/>
					<stop  offset="0.5447" style="stop-color:#5C0CFB;stop-opacity:0.5"/>
					<stop  offset="1" style="stop-color:#FE507C"/>
				</linearGradient>
				<linearGradient id="SVGID_18_" gradientUnits="userSpaceOnUse" x1="103.9594" y1="66.8816" x2="115.648" y2="66.8816">
					<stop  offset="0" style="stop-color:#FE6289"/>
					<stop  offset="8.011582e-02" style="stop-color:#F05F9E;stop-opacity:0.9508"/>
					<stop  offset="0.3583" style="stop-color:#C457E1;stop-opacity:0.7801"/>
					<stop  offset="0.4888" style="stop-color:#B354FB;stop-opacity:0.7"/>
					<stop  offset="1" style="stop-color:#FE507C"/>
				</linearGradient>
				<rect x="104.5" y="61.5" class="st12" width="10.7" height="10.7"/>
				<linearGradient id="SVGID_19_" gradientUnits="userSpaceOnUse" x1="-883.8599" y1="200.2314" x2="4966.8066" y2="245.5647">
					<stop  offset="0" style="stop-color:#FE6289"/>
					<stop  offset="0.5447" style="stop-color:#5C0CFB;stop-opacity:0.5"/>
					<stop  offset="1" style="stop-color:#FE507C"/>
				</linearGradient>
				<linearGradient id="SVGID_20_" gradientUnits="userSpaceOnUse" x1="275.9657" y1="209.2635" x2="287.6542" y2="209.2635">
					<stop  offset="0" style="stop-color:#FE6289"/>
					<stop  offset="8.011582e-02" style="stop-color:#F05F9E;stop-opacity:0.9508"/>
					<stop  offset="0.3583" style="stop-color:#C457E1;stop-opacity:0.7801"/>
					<stop  offset="0.4888" style="stop-color:#B354FB;stop-opacity:0.7"/>
					<stop  offset="1" style="stop-color:#FE507C"/>
				</linearGradient>
				<rect x="276.5" y="203.9" class="st13" width="10.7" height="10.7"/>
				<linearGradient id="SVGID_21_" gradientUnits="userSpaceOnUse" x1="-883.3391" y1="133.0102" x2="4967.3276" y2="178.3435">
					<stop  offset="0" style="stop-color:#FE6289"/>
					<stop  offset="0.5447" style="stop-color:#5C0CFB;stop-opacity:0.5"/>
					<stop  offset="1" style="stop-color:#FE507C"/>
				</linearGradient>
				<linearGradient id="SVGID_22_" gradientUnits="userSpaceOnUse" x1="2253.2126" y1="157.3588" x2="2264.9011" y2="157.3588">
					<stop  offset="0" style="stop-color:#FE6289"/>
					<stop  offset="8.011582e-02" style="stop-color:#F05F9E;stop-opacity:0.9508"/>
					<stop  offset="0.3583" style="stop-color:#C457E1;stop-opacity:0.7801"/>
					<stop  offset="0.4888" style="stop-color:#B354FB;stop-opacity:0.7"/>
					<stop  offset="1" style="stop-color:#FE507C"/>
				</linearGradient>
				<rect x="2253.7" y="152" class="st14" width="10.7" height="10.7"/>
				<linearGradient id="SVGID_23_" gradientUnits="userSpaceOnUse" x1="-882.8584" y1="70.9806" x2="4967.8081" y2="116.3139">
					<stop  offset="0" style="stop-color:#FE6289"/>
					<stop  offset="0.5447" style="stop-color:#5C0CFB;stop-opacity:0.5"/>
					<stop  offset="1" style="stop-color:#FE507C"/>
				</linearGradient>
				<linearGradient id="SVGID_24_" gradientUnits="userSpaceOnUse" x1="2720.9351" y1="98.9495" x2="2732.6235" y2="98.9495">
					<stop  offset="0" style="stop-color:#FE6289"/>
					<stop  offset="8.011582e-02" style="stop-color:#F05F9E;stop-opacity:0.9508"/>
					<stop  offset="0.3583" style="stop-color:#C457E1;stop-opacity:0.7801"/>
					<stop  offset="0.4888" style="stop-color:#B354FB;stop-opacity:0.7"/>
					<stop  offset="1" style="stop-color:#FE507C"/>
				</linearGradient>
				<rect x="2721.4" y="93.6" class="st15" width="10.7" height="10.7"/>
				<linearGradient id="SVGID_25_" gradientUnits="userSpaceOnUse" x1="-886.3602" y1="522.9141" x2="4964.3066" y2="568.2474">
					<stop  offset="0" style="stop-color:#FE6289"/>
					<stop  offset="0.5447" style="stop-color:#5C0CFB;stop-opacity:0.5"/>
					<stop  offset="1" style="stop-color:#FE507C"/>
				</linearGradient>
				<linearGradient id="SVGID_26_" gradientUnits="userSpaceOnUse" x1="48.3395" y1="530.1834" x2="55.2775" y2="530.1834">
					<stop  offset="0" style="stop-color:#FE6289"/>
					<stop  offset="8.011582e-02" style="stop-color:#F05F9E;stop-opacity:0.9508"/>
					<stop  offset="0.3583" style="stop-color:#C457E1;stop-opacity:0.7801"/>
					<stop  offset="0.4888" style="stop-color:#B354FB;stop-opacity:0.7"/>
					<stop  offset="1" style="stop-color:#FE507C"/>
				</linearGradient>
				<rect x="48.8" y="527.2" class="st16" width="5.9" height="5.9"/>
				<linearGradient id="SVGID_27_" gradientUnits="userSpaceOnUse" x1="-882.7678" y1="59.2904" x2="4967.8989" y2="104.6237">
					<stop  offset="0" style="stop-color:#FE6289"/>
					<stop  offset="0.5447" style="stop-color:#5C0CFB;stop-opacity:0.5"/>
					<stop  offset="1" style="stop-color:#FE507C"/>
				</linearGradient>
				<linearGradient id="SVGID_28_" gradientUnits="userSpaceOnUse" x1="783.2092" y1="72.2259" x2="790.1473" y2="72.2259">
					<stop  offset="0" style="stop-color:#FE6289"/>
					<stop  offset="8.011582e-02" style="stop-color:#F05F9E;stop-opacity:0.9508"/>
					<stop  offset="0.3583" style="stop-color:#C457E1;stop-opacity:0.7801"/>
					<stop  offset="0.4888" style="stop-color:#B354FB;stop-opacity:0.7"/>
					<stop  offset="1" style="stop-color:#FE507C"/>
				</linearGradient>
				<rect x="783.7" y="69.3" class="st17" width="5.9" height="5.9"/>
				<linearGradient id="SVGID_29_" gradientUnits="userSpaceOnUse" x1="-889.3616" y1="910.2774" x2="4961.3052" y2="955.6107">
					<stop  offset="0" style="stop-color:#FE6289"/>
					<stop  offset="0.5447" style="stop-color:#5C0CFB;stop-opacity:0.5"/>
					<stop  offset="1" style="stop-color:#FE507C"/>
				</linearGradient>
				<linearGradient id="SVGID_30_" gradientUnits="userSpaceOnUse" x1="61.997" y1="917.6758" x2="68.9351" y2="917.6758">
					<stop  offset="0" style="stop-color:#FE6289"/>
					<stop  offset="8.011582e-02" style="stop-color:#F05F9E;stop-opacity:0.9508"/>
					<stop  offset="0.3583" style="stop-color:#C457E1;stop-opacity:0.7801"/>
					<stop  offset="0.4888" style="stop-color:#B354FB;stop-opacity:0.7"/>
					<stop  offset="1" style="stop-color:#FE507C"/>
				</linearGradient>
				<rect x="62.5" y="914.7" class="st18" width="5.9" height="5.9"/>
				<linearGradient id="SVGID_31_" gradientUnits="userSpaceOnUse" x1="-890.0534" y1="999.5567" x2="4960.6133" y2="1044.89">
					<stop  offset="0" style="stop-color:#FE6289"/>
					<stop  offset="0.5447" style="stop-color:#5C0CFB;stop-opacity:0.5"/>
					<stop  offset="1" style="stop-color:#FE507C"/>
				</linearGradient>
				<linearGradient id="SVGID_32_" gradientUnits="userSpaceOnUse" x1="281.3759" y1="1008.6603" x2="288.314" y2="1008.6603">
					<stop  offset="0" style="stop-color:#FE6289"/>
					<stop  offset="8.011582e-02" style="stop-color:#F05F9E;stop-opacity:0.9508"/>
					<stop  offset="0.3583" style="stop-color:#C457E1;stop-opacity:0.7801"/>
					<stop  offset="0.4888" style="stop-color:#B354FB;stop-opacity:0.7"/>
					<stop  offset="1" style="stop-color:#FE507C"/>
				</linearGradient>
				<rect x="281.9" y="1005.7" class="st19" width="5.9" height="5.9"/>
				<linearGradient id="SVGID_33_" gradientUnits="userSpaceOnUse" x1="-890.747" y1="1089.0775" x2="4959.9194" y2="1134.4109">
					<stop  offset="0" style="stop-color:#FE6289"/>
					<stop  offset="0.5447" style="stop-color:#5C0CFB;stop-opacity:0.5"/>
					<stop  offset="1" style="stop-color:#FE507C"/>
				</linearGradient>
				<linearGradient id="SVGID_34_" gradientUnits="userSpaceOnUse" x1="171.5529" y1="1097.3356" x2="178.4909" y2="1097.3356">
					<stop  offset="0" style="stop-color:#FE6289"/>
					<stop  offset="8.011582e-02" style="stop-color:#F05F9E;stop-opacity:0.9508"/>
					<stop  offset="0.3583" style="stop-color:#C457E1;stop-opacity:0.7801"/>
					<stop  offset="0.4888" style="stop-color:#B354FB;stop-opacity:0.7"/>
					<stop  offset="1" style="stop-color:#FE507C"/>
				</linearGradient>
				<rect x="172.1" y="1094.4" class="st20" width="5.9" height="5.9"/>
				<linearGradient id="SVGID_35_" gradientUnits="userSpaceOnUse" x1="-889.6727" y1="950.4191" x2="4960.9941" y2="995.7524">
					<stop  offset="0" style="stop-color:#FE6289"/>
					<stop  offset="0.5447" style="stop-color:#5C0CFB;stop-opacity:0.5"/>
					<stop  offset="1" style="stop-color:#FE507C"/>
				</linearGradient>
				<linearGradient id="SVGID_36_" gradientUnits="userSpaceOnUse" x1="492.5075" y1="961.1557" x2="499.4455" y2="961.1557">
					<stop  offset="0" style="stop-color:#FE6289"/>
					<stop  offset="8.011582e-02" style="stop-color:#F05F9E;stop-opacity:0.9508"/>
					<stop  offset="0.3583" style="stop-color:#C457E1;stop-opacity:0.7801"/>
					<stop  offset="0.4888" style="stop-color:#B354FB;stop-opacity:0.7"/>
					<stop  offset="1" style="stop-color:#FE507C"/>
				</linearGradient>
				<rect x="493" y="958.2" class="st21" width="5.9" height="5.9"/>
				<linearGradient id="SVGID_37_" gradientUnits="userSpaceOnUse" x1="-890.1838" y1="1015.996" x2="4960.4829" y2="1061.3293">
					<stop  offset="0" style="stop-color:#FE6289"/>
					<stop  offset="0.5447" style="stop-color:#5C0CFB;stop-opacity:0.5"/>
					<stop  offset="1" style="stop-color:#FE507C"/>
				</linearGradient>
				<linearGradient id="SVGID_38_" gradientUnits="userSpaceOnUse" x1="742.8963" y1="1028.6766" x2="749.8344" y2="1028.6766">
					<stop  offset="0" style="stop-color:#FE6289"/>
					<stop  offset="8.011582e-02" style="stop-color:#F05F9E;stop-opacity:0.9508"/>
					<stop  offset="0.3583" style="stop-color:#C457E1;stop-opacity:0.7801"/>
					<stop  offset="0.4888" style="stop-color:#B354FB;stop-opacity:0.7"/>
					<stop  offset="1" style="stop-color:#FE507C"/>
				</linearGradient>
				<rect x="743.4" y="1025.7" class="st22" width="5.9" height="5.9"/>
				<linearGradient id="SVGID_39_" gradientUnits="userSpaceOnUse" x1="-891.1929" y1="1146.619" x2="4959.4736" y2="1191.9524">
					<stop  offset="0" style="stop-color:#FE6289"/>
					<stop  offset="0.5447" style="stop-color:#5C0CFB;stop-opacity:0.5"/>
					<stop  offset="1" style="stop-color:#FE507C"/>
				</linearGradient>
				<linearGradient id="SVGID_40_" gradientUnits="userSpaceOnUse" x1="919.389" y1="1160.675" x2="926.3271" y2="1160.675">
					<stop  offset="0" style="stop-color:#FE6289"/>
					<stop  offset="8.011582e-02" style="stop-color:#F05F9E;stop-opacity:0.9508"/>
					<stop  offset="0.3583" style="stop-color:#C457E1;stop-opacity:0.7801"/>
					<stop  offset="0.4888" style="stop-color:#B354FB;stop-opacity:0.7"/>
					<stop  offset="1" style="stop-color:#FE507C"/>
				</linearGradient>
				<rect x="919.9" y="1157.7" class="st23" width="5.9" height="5.9"/>
				<linearGradient id="SVGID_41_" gradientUnits="userSpaceOnUse" x1="-887.7034" y1="696.2654" x2="4962.9634" y2="741.5988">
					<stop  offset="0" style="stop-color:#FE6289"/>
					<stop  offset="0.5447" style="stop-color:#5C0CFB;stop-opacity:0.5"/>
					<stop  offset="1" style="stop-color:#FE507C"/>
				</linearGradient>
				<linearGradient id="SVGID_42_" gradientUnits="userSpaceOnUse" x1="1086.9087" y1="711.6246" x2="1102.1602" y2="711.6246">
					<stop  offset="0" style="stop-color:#FE6289"/>
					<stop  offset="8.011582e-02" style="stop-color:#F05F9E;stop-opacity:0.9508"/>
					<stop  offset="0.3583" style="stop-color:#C457E1;stop-opacity:0.7801"/>
					<stop  offset="0.4888" style="stop-color:#B354FB;stop-opacity:0.7"/>
					<stop  offset="1" style="stop-color:#FE507C"/>
				</linearGradient>
				<rect x="1087.4" y="704.5" class="st24" width="14.3" height="14.3"/>
			</g>
			<path class="st25" d="M3000,1394.3"/>
			<g>
				<g>
					<path class="st26" d="M50.3,82.8l92.3,101c3.2,3.5,8.6,3.5,11.9,0.1v0c3.2-3.4,3-8.7-0.6-11.8L50.3,82.8z"/>
					<path class="st27" d="M169.1-37.5l122,133.5c4.2,4.6,11.4,4.7,15.7,0.2l0,0c4.3-4.4,3.9-11.6-0.7-15.6L169.1-37.5z"/>
					<path class="st28" d="M169.1,83.4l183.6,200.8c6.3,6.9,17.2,7,23.6,0.3l0,0c6.4-6.7,5.9-17.4-1.1-23.4L169.1,83.4z"/>
				</g>
				<g>
					<linearGradient id="SVGID_43_" gradientUnits="userSpaceOnUse" x1="-16.1774" y1="13.1295" x2="626.0743" y2="656.7249">
						<stop  offset="0" style="stop-color:#FE6289;stop-opacity:0.2"/>
						<stop  offset="1" style="stop-color:#FE507C"/>
					</linearGradient>
					<path class="st29" d="M50.3,82.8l92.3,101c3.2,3.5,8.6,3.5,11.9,0.1v0c3.2-3.4,3-8.7-0.6-11.8L50.3,82.8z"/>
					<linearGradient id="SVGID_44_" gradientUnits="userSpaceOnUse" x1="103.9948" y1="-106.7918" x2="746.2465" y2="536.8035">
						<stop  offset="0" style="stop-color:#FE6289;stop-opacity:0.2"/>
						<stop  offset="1" style="stop-color:#FE507C"/>
					</linearGradient>
					<path class="st30" d="M169.1-37.5l122,133.5c4.2,4.6,11.4,4.7,15.7,0.2l0,0c4.3-4.4,3.9-11.6-0.7-15.6L169.1-37.5z"/>
					<linearGradient id="SVGID_45_" gradientUnits="userSpaceOnUse" x1="44.5304" y1="-47.4516" x2="686.7822" y2="596.1438">
						<stop  offset="0" style="stop-color:#FE6289;stop-opacity:0.2"/>
						<stop  offset="1" style="stop-color:#FE507C"/>
					</linearGradient>
					<path class="st31" d="M169.1,83.4l183.6,200.8c6.3,6.9,17.2,7,23.6,0.3l0,0c6.4-6.7,5.9-17.4-1.1-23.4L169.1,83.4z"/>
				</g>
			</g>
			<g>
				<circle class="st4" cx="2591.9" cy="512.1" r="187.4"/>
			</g>
			<g>
				<linearGradient id="SVGID_46_" gradientUnits="userSpaceOnUse" x1="926.1293" y1="1972.8811" x2="2999.3943" y2="54.8125">
					<stop  offset="0" style="stop-color:#FE6289"/>
					<stop  offset="0.1912" style="stop-color:#B93EB9;stop-opacity:0.8436"/>
					<stop  offset="0.3936" style="stop-color:#761AE8;stop-opacity:0.6779"/>
					<stop  offset="0.4888" style="stop-color:#5C0CFB;stop-opacity:0.6"/>
					<stop  offset="1" style="stop-color:#FE507C"/>
				</linearGradient>
				<path class="st32" d="M2433.2,528.2c0-103.5,83.9-187.4,187.4-187.4c28.4,0,55.3,6.4,79.4,17.7c-30.6-21.7-67.9-34.5-108.2-34.5
					c-103.5,0-187.4,83.9-187.4,187.4c0,75.1,44.2,139.9,108,169.8C2464.5,647.2,2433.2,591.4,2433.2,528.2z"/>
			</g>
			<linearGradient id="SVGID_47_" gradientUnits="userSpaceOnUse" x1="2932.4761" y1="188.2661" x2="190.6727" y2="2643.553">
				<stop  offset="0" style="stop-color:#FE6289"/>
				<stop  offset="0.1912" style="stop-color:#B93EB9;stop-opacity:0.8436"/>
				<stop  offset="0.3936" style="stop-color:#761AE8;stop-opacity:0.6779"/>
				<stop  offset="0.4888" style="stop-color:#5C0CFB;stop-opacity:0.6"/>
				<stop  offset="1" style="stop-color:#FE507C"/>
			</linearGradient>
			<path class="st33" d="M2591.9,247.3c-60.7,0-116.6,20.5-161.3,55c-6.1-4.1-13.4-6.4-21.3-6.4c-21.3,0-38.5,17.2-38.5,38.5
				c0,8.2,2.6,15.9,7,22.1c-31.9,43.7-50.7,97.5-50.7,155.7c0,146,118.8,264.8,264.8,264.8c146,0,264.8-118.8,264.8-264.8
				S2737.9,247.3,2591.9,247.3z M2591.9,760.2c-136.7,0-248-111.3-248-248c0-53.8,17.2-103.6,46.4-144.3c5.6,3.2,12.1,5,18.9,5
				c21.3,0,38.5-17.2,38.5-38.5c0-7.2-2-14-5.5-19.8c41.6-31.6,93.5-50.4,149.6-50.4c136.7,0,248,111.3,248,248
				S2728.6,760.2,2591.9,760.2z"/>
			<g>
				<polygon class="st34" points="1993.9,1440.6 2040.6,1340.4 2083,1319 2099.6,1359.1 2068,1426.7 2111.6,1405.9 2154.4,1427.3 
					2139.2,1459.9 2064.4,1491.2 2000.1,1471.5 				"/>
				<polygon class="st0" points="1979.2,1449.2 2026,1349 2068.3,1327.6 2084.9,1367.7 2053.4,1435.3 2096.9,1414.5 2139.8,1435.9 
					2124.6,1468.5 2049.7,1499.8 1984.2,1473.7 				"/>
			</g>
			<rect x="-0.1" y="0.8" class="st35" width="3002.9" height="1684.2"/>
			<g>
				<path class="st36" d="M-584.1,595.1C-584.1,595.1-584.1,595.1-584.1,595.1c-0.7-0.2-1.5-0.4-2.5-0.6"/>
				<path class="st36" d="M2210.1,555.9c0,0,164.1-12.1,291.5-42.1c2-0.5,4-1,6-1.4"/>
				<path class="st36" d="M-46.4,337.4c9.1-1.6,18.1-2.6,26.9-3c15.4-0.6,29.6-2,42.9-3.9"/>
				<path class="st36" d="M2886,733.7C2886,733.7,2886,733.7,2886,733.7"/>
				<path class="st36" d="M2509.5,511.9c39-9.7,73.9-21.1,98.5-34.5c105.9-57.5,216.3-58.6,287.4-105.7c0,0,2.3-1.2,6.4-2.9"/>
				<path class="st36" d="M2211.4,556.3c-2.8,0.2-4.2,0.3-4.2,0.3"/>
				<path class="st36" d="M1618.7,280c-63.5-10.6-211.8,3-287.4,52.9c-75.6,49.9-167.9,83.2-257.2,99.8
					c-81.1,15.1-249.5,76.4-279.7,87.5c-0.2,0.1-0.5,0.2-0.7,0.3"/>
				<path class="st36" d="M4116.1,1092.1"/>
				<path class="st36" d="M166.8,297.6c-49.5,7-89.4,23.9-143.4,32.9"/>
				<path class="st36" d="M-586.5,594.5c82.4-24.1,162.2-51.9,215.7-86.2c91.7-58.7,218.7-156.8,324.4-170.9"/>
				<path class="st37" d="M348,805.8c-155.8,15.1-774.5,110.4-1043.8,84.7c-187.4-17.9-377-8.7-475-1.5v-76.6
					c94.6-44,303.2-138.8,400.9-166.4c55.5-15.7,121.2-32.2,185.7-50.9c0,0,0,0,0,0c84.9-24.6,167.7-53,222.7-88.2
					c89-57,211.2-151.1,315-169.4c5.9-0.8,11.7-1.3,17.5-1.5c19.1-0.8,36.3-2.7,52.2-5.4c0,0,0.1,0,0.1,0
					c55.3-7.9,95.3-24.7,143.4-32.9c0.1,0,0.2-0.1,0.3-0.1c19.4-2.7,40.3-3.9,64.2-2.5c0,0,68.4-2,63.8,129.6
					c-4.5,131.6,13.6,155.8,40.8,172.4c27.2,16.6,51.4,36.3,54.5,72.6c3,36.3,43.9,54.5,86.2,65S503.8,790.7,348,805.8z"/>
				<path class="st37" d="M4116.1,1092.1v322.3c-27.3-6.2-59.5-12.7-97.6-19.5c-254.1-45.4-447-113.5-671.6-142.9
					c-224.6-29.5-739.7-158.8-1086.9-211c-347.2-52.2-678.4-201.9-873.6-254.1C1191.4,734.5,789.7,522,789.7,522s0.6-0.2,1.7-0.6
					c0.3-0.1,0.6-0.2,1-0.4c0.4-0.1,0.8-0.3,1.2-0.4c0,0,0,0,0,0c0.6-0.2,1.2-0.4,1.8-0.6c0.4-0.1,0.8-0.3,1.2-0.4c0,0,0.1,0,0.1,0
					c0.6-0.2,1.2-0.4,1.9-0.7c0.3-0.1,0.5-0.2,0.8-0.3c0.3-0.1,0.7-0.3,1-0.4c0.4-0.2,0.9-0.3,1.4-0.5c0.6-0.2,1.3-0.5,2-0.7
					c0.4-0.1,0.8-0.3,1.2-0.4c0.6-0.2,1.2-0.4,1.8-0.6c0.9-0.3,1.8-0.6,2.8-1c1-0.3,1.9-0.7,3-1c0.5-0.2,1-0.4,1.5-0.5
					c0.7-0.3,1.5-0.5,2.2-0.8c0.5-0.2,1.1-0.4,1.6-0.6c0.4-0.1,0.7-0.3,1.1-0.4c0.6-0.2,1.1-0.4,1.7-0.6c1.2-0.4,2.3-0.8,3.5-1.2
					c1.2-0.4,2.4-0.8,3.6-1.3c0.8-0.3,1.7-0.6,2.5-0.9c1.8-0.6,3.6-1.2,5.4-1.9c1.3-0.4,2.6-0.9,3.9-1.3c4.5-1.5,9.2-3.2,14.1-4.8
					c0.9-0.3,1.9-0.6,2.8-1c2.5-0.8,4.9-1.7,7.5-2.5c1-0.4,2-0.7,3-1c1.6-0.5,3.2-1.1,4.9-1.7c0.8-0.3,1.6-0.6,2.5-0.8
					c1.7-0.6,3.3-1.1,5-1.7c1.4-0.5,2.9-1,4.3-1.5c2-0.7,3.9-1.3,6-2c2.4-0.8,4.8-1.6,7.3-2.4c1.1-0.4,2.1-0.7,3.2-1.1
					c1.8-0.6,3.6-1.2,5.4-1.8c2.7-0.9,5.4-1.8,8.1-2.7c1.7-0.6,3.4-1.1,5.2-1.7c1-0.3,2-0.7,3.1-1c1.8-0.6,3.7-1.2,5.5-1.8
					c1.8-0.6,3.7-1.2,5.5-1.8c3.7-1.2,7.4-2.4,11.2-3.5c7.5-2.3,15-4.7,22.4-6.9c0.9-0.3,1.9-0.6,2.8-0.9c3.7-1.1,7.4-2.2,11.1-3.4
					c1.9-0.6,3.7-1.1,5.5-1.6c2-0.6,4-1.2,6-1.8c4.4-1.3,8.7-2.5,12.9-3.7c4.1-1.2,8.1-2.3,12-3.4c1.2-0.3,2.4-0.6,3.6-1
					c0.1,0,0.3-0.1,0.4-0.1c0.1,0,0.1,0,0.1,0c0.1,0,0.2-0.1,0.4-0.1c2.2-0.6,4.5-1.2,6.7-1.8c1-0.3,2-0.5,3-0.8
					c0.8-0.2,1.7-0.4,2.5-0.6c1.7-0.4,3.3-0.9,4.9-1.3c0.8-0.2,1.6-0.4,2.4-0.6c0.8-0.2,1.7-0.4,2.5-0.6c1.2-0.3,2.5-0.6,3.7-0.9
					c0.3-0.1,0.6-0.2,1-0.2c0.9-0.2,1.8-0.4,2.7-0.6c2.4-0.6,4.7-1.1,7-1.6c1.3-0.3,2.6-0.6,3.8-0.9c1.4-0.3,2.9-0.6,4.3-0.9
					c0.7-0.2,1.4-0.3,2.1-0.4c1-0.2,2.1-0.4,3.1-0.6c1-0.2,2-0.4,3-0.6c89.3-16.6,181.5-49.9,257.2-99.8
					c75.6-49.9,223.9-65.2,287.4-54.6c0,0,63.5,37.8-57.5,77.1c-121,39.3-164.9,69.6-59,124c105.9,54.5,299.5,205.7,534,260.2
					c234.5,54.5,298,89.2,476.5,83.2c178.5-6.1,390.3,56,656.5,127.1C3416.2,1017.6,3733.4,1147.3,4116.1,1092.1z"/>
				<path class="st37" d="M3002.8,556.6c-84.7-51.3-223.9-72.4-213.3-40.7c10.6,31.8,63.5,24.9,87.7,59.4
					c24.2,34.4,77.1,63.2,62,93.4c-15.1,30.3-19.6,47.9-53.2,65c-383.5-77.1-654.6-170.4-674.7-177.4c4.7-0.4,13.1-1.1,24.3-2.1
					c0.5-0.1,1-0.1,1.6-0.2c3.4-0.3,7-0.7,10.9-1c0.9-0.1,1.8-0.2,2.7-0.3c9.8-1,21-2.1,33.2-3.5c0.8-0.1,1.5-0.2,2.3-0.3
					c4.7-0.5,9.6-1.1,14.6-1.7c1.5-0.2,3.1-0.4,4.6-0.5c0.3,0,0.5-0.1,0.7-0.1c1.4-0.2,2.8-0.3,4.2-0.5c4.3-0.5,8.7-1.1,13.1-1.6
					c2.5-0.3,5.1-0.6,7.7-1c2.5-0.3,5-0.7,7.5-1c1.8-0.2,3.6-0.5,5.3-0.7c9-1.2,18.1-2.5,27.4-3.9c3.2-0.5,6.5-1,9.7-1.4
					c0.5-0.1,1-0.2,1.5-0.2c5.6-0.9,11.3-1.7,17-2.7c1.9-0.3,3.8-0.6,5.7-0.9c3.8-0.6,7.6-1.3,11.5-1.9c1.9-0.3,3.8-0.6,5.7-1
					c3.8-0.7,7.6-1.3,11.5-2c5.6-1,11.3-2.1,16.9-3.1c0.1,0,0.2-0.1,0.3-0.1c5.7-1.1,11.4-2.2,17-3.4c5.6-1.2,11.2-2.4,16.8-3.6
					c0.1,0,0.2,0,0.3-0.1c3.6-0.8,7.2-1.6,10.8-2.5c1.8-0.4,3.6-0.9,5.4-1.3c2-0.5,4-1,6-1.4c0.6-0.1,1.2-0.3,1.8-0.4
					c40.2-9.9,76.3-21.5,101.6-35.3c105.9-57.5,216.3-58.6,287.4-105.7c1.1-0.7,2.3-1.5,3.4-2.2c21.6-9,93-32.2,146.3,26.2
					c63.5,69.6,25.7,93.8,34.8,119.5C3092,540.2,3087.5,607.9,3002.8,556.6z"/>
				<path class="st38" d="M4116.1,1414.4v284.6l-5286.8-10.6V889c97.9-7.2,287.6-16.4,475,1.5c269.3,25.7,887.9-69.6,1043.8-84.7
					c155.8-15.1,170.9-60.5,128.6-71.1s-83.2-28.7-86.2-65c-3-36.3-27.2-56-54.5-72.6c-27.2-16.6-45.4-40.8-40.8-172.4
					C299.6,293,231.3,295,231.3,295c-23.8-1.4-44.8-0.2-64.2,2.5c22.1-3.7,45.8-5.6,73.5-4c102.9,6,443.2,187.6,549.1,228.4
					c0,0,401.6,212.5,596.8,264.7c195.1,52.2,526.4,201.9,873.6,254.1c347.2,52.2,862.2,181.5,1086.9,211
					c224.6,29.5,417.5,97.6,671.6,142.9C4056.6,1401.6,4088.8,1408.2,4116.1,1414.4z"/>
				<path class="st38" d="M4116.1,840.2v574.1c-238.2-85.3-700-396.8-946.9-462.8c-266.2-71.1-478-133.1-656.5-127.1
					c-178.5,6-242-28.7-476.5-83.2c-234.5-54.5-428.1-205.7-534-260.2c-105.9-54.5-62-84.7,59-124c121-39.3,57.5-77.1,57.5-77.1
					c63.5,10.6,485.6,258.3,591.5,275.9c0,0,0.4,0.1,1.2,0.4c20.1,7,291.2,100.3,674.7,177.4c44.1,8.9,89.6,17.5,136.4,25.8
					c470.5,83.2,676.2,118,898.5,99.8C3995.3,853.3,4060.9,846.2,4116.1,840.2z"/>
				<path class="st38" d="M4116.1,825v15.2c-55.2,6-120.8,13-195.1,19.1c-222.4,18.2-428.1-16.6-898.5-99.8
					c-46.8-8.3-92.4-16.9-136.4-25.8c33.7-17.1,38.1-34.7,53.2-65c15.1-30.3-37.8-59-62-93.4c-24.2-34.4-77.1-27.6-87.7-59.4
					c-10.6-31.8,128.6-10.6,213.3,40.7c84.7,51.3,89.2-16.5,80.2-42.2c-9.1-25.7,28.7-49.9-34.8-119.5
					c-53.3-58.4-124.8-35.2-146.3-26.2c70.7-43.2,164,11.7,226.5,50.4c63.5,39.3,245.1,181.5,379.7,226.9
					c134.6,45.4,231.4,52.9,335.8,101.3c18.8,8.7,38.3,16.8,57.9,24.2C3981.1,801.6,4063.2,820.4,4116.1,825z"/>
				<path class="st38" d="M-586.5,596.2c-66.7,19.6-135.2,36.7-192.7,53c-94.6,26.7-293.1,116.4-391.5,162V413.3
					c27.2,31.4,75.5,72.8,151.3,93.7C-890.4,542.6-631,586-586.5,596.2z"/>
				<path class="st37" d="M4116.1,746.1V825c-52.9-4.6-135-23.4-214.4-53.4c107.4-13.6,134.2-7.6,188.7-21.2
					C4098.3,748.4,4107,747.1,4116.1,746.1z"/>
				<polyline class="st35" points="4116.1,993.2 4116.1,840.2 4116.1,825 				"/>
			</g>
			<g>
				<path class="st28" d="M1572.9,69.5C1572.9,69.5,1572.9,69.5,1572.9,69.5c5,4.8,9.2,15,9.4,15.4l-0.7,0.3c0-0.1-4.1-10-8.9-14.8
					c-0.3-0.3-0.6-0.6-0.9-0.8c-5-3.2-18.2-0.5-19.9-0.1c-0.1,0-0.2,0.1-0.3,0.1c-1.4,0.4-4.8,1.3-5.6,1.7c-5.6,3-7.8,7.6-7.1,14.6
					c0.5,5.3,2.8,9.7,2.8,9.8l-0.6,0.3c0,0-2.3-4.6-2.9-10c-0.5-5.2,0.6-9.5,3.4-12.6c1.7-1.9,4.5-3.2,7-3.9
					C1554.2,67.9,1567.4,65.1,1572.9,69.5z"/>
				<g>
					<g>
						<path class="st39" d="M1757.9,274.4c0-0.1,0-0.1,0-0.2c0,0,0,0,0,0c-0.9-4.8-2.2-8.7-2.6-9.6c0-0.1-0.1-0.2-0.1-0.2
							s-0.6-6.8-0.9-12.4c0,0,0,0,0.1,0c-0.1-2.5-0.3-4.8-0.2-6.1c0-0.1,0-0.3,0-0.4c-0.4,0.6-0.8,1.1-1.2,1.7
							c-5.4,7.3-14.8,16.7-23.5,24.9h0c-1.2,1.1-2.4,2.3-3.6,3.4c0,0-0.1,0.1-0.1,0.1c0.3,0.2,0.5,0.4,0.7,0.6
							c0.3,0.2,0.3,0.7,0,0.9l-4.2,3.8c-0.8-0.2-1.6-0.3-2.4-0.5c-0.1,0-0.2-0.1-0.4-0.1c0,0,0,0,0,0l0,0c0.2,0.2,0.4,0.3,0.6,0.4
							c-3.9,3.6-7.2,6.5-9.1,8.2c-0.8,0.8-1.9,1.2-3,1.2c-0.8,0-1.5-0.2-2.3-0.5c-1.2-0.7-2.7-1.9-4-4c-4.3-6.7-3.2-8.8-3.2-8.8
							s1.3-0.8,3.5-2.3c-0.7-0.6-1.4-1.3-1.8-2c0,0,0,0,0,0c0,0-0.1-0.1-0.1-0.1c-0.1-0.1-0.1-0.2-0.2-0.4l0.2-1.2
							c0.1-0.2,0.2-0.3,0.3-0.5c0.8-0.8,2-0.9,3.4-0.9c0,0,0,0,0,0h0.1c0.8,0,2,0.6,3.1,1.3v0c0,0,0.1-0.1,0.1-0.1
							c1-0.8,2.1-1.6,3.2-2.5c0-0.1-0.1-0.2-0.1-0.2c0,0,0-0.1-0.1-0.1c-0.1-0.3-0.3-0.6-0.3-0.8c-0.1-0.2,0-0.5,0.2-0.7l4.9-4.3
							c0.2-0.1,0.3-0.2,0.5-0.1c0.2,0,0.3,0.1,0.4,0.3c0.1,0.2,0.3,0.5,0.4,0.9c0.1-0.1,0.1-0.1,0.2-0.2c3.7-3.3,7.9-6.9,10.9-11.4
							c0.5-0.7,0.9-1.4,1.3-2.1c0,0,0,0,0,0c0.4-0.6,0.7-1.1,1-1.6c1.4-2.3,2.5-4.2,3.4-6c0.1-0.2,0.2-0.4,0.3-0.6
							c0.3-0.7,0.7-1.3,1-2c0,0,0,0-0.1,0c0,0,0,0,0,0c0.3-0.5,0.5-1.1,0.8-1.6c0,0,0,0,0,0c0.6-1.3,1.3-2.5,1.8-3.6c0,0,0,0,0,0
							c1.2-5.1,3.9-18.2,8-24.6c2.4-3.8,6.3-6,7.5-6.7c-0.9-0.6-4.9-2.9-9-4.4c-0.1,0-0.2-0.1-0.2-0.1c0,0,0-0.1,0-0.1
							c0.4-1.7,0.4-3.4,0-5c-0.5-1.7-1.6-3-2.9-3.9h0c-0.1,0-0.2,0-0.2,0c0,0,0,0,0,0c-3.1-2.2-7.5-2.5-8.8-2.5c-0.1,0-0.2,0-0.3,0
							c0,0,0,0,0,0h0l0,1.9v0l0,0.6l-0.8-8.1v0c0,0,0,0,0.1,0c0.1,0,0.2,0,0.2-0.1c1.2-0.3,2.5-0.8,3.3-1.6c0,0,0,0,0,0
							c0.1-0.2,0.8-1.8,0.8-6.3c0-1-0.2-2-0.5-2.9l-0.6-1.8c-0.8-1.6-2.5-2.6-4.3-2.4l-1.5,0.1l-0.2,0l-0.1,0c0,0,0,0,0,0
							c0,0,0,0,0,0c-2.4-7.2-6.9-14.9-15.4-16.6c-0.1,0-0.2,0-0.2,0c0,0,0,0,0,0c-2.4-0.5-5.2-0.4-8.3,0.3c-0.1,0-0.1,0-0.2,0
							c0,0,0,0-0.1,0c-5.2,1.2-8.8,3.3-11.2,6c0,0-0.1,0.1-0.1,0.1c-3.5,3.9-4.3,9-4,13.9c0,0,0,0,0,0c-0.1,0-0.1,0-0.1,0.1
							c-0.5,0.3-0.9,0.7-1.3,1.1c0,0-0.1,0.1-0.1,0.1c-1,1.1-1.7,2.5-1.7,2.6c-1.1,12.3,5.6,20.8,5.6,20.8c1,0.2,3.3,0.1,5.5,0
							l2.7,7.4c0.2,0,0.4,0,0.4,0l0.8,2.2c0,0-1.3,0.7-3.1,2c-0.6,1.9-0.8,6.2-1,10.6l0,0l0,0c0,0,0,0,0,0v0c-0.2,6.1,0,12.3,0,12.3
							s0,0.7,0.1,1.9c0.1,2.1,0.3,5.8,0.9,9.4c0.4,2.3,0.8,4.5,1.5,6.4c0.3,0.8,0.5,1.5,0.8,2.3c0,0-0.1-0.1-0.2-0.1
							c-1.4-1.1-8.3-7.4-8.3-19.1c0-7.3,0.1-14.4,1.2-19.5c0.3-1.6,0.8-3,1.3-4.1c1.4-2.8,3.2-3.8,4.4-4.2c-0.8,0.2-2,0.6-3.2,1.9
							c0,0,0,0,0,0c-0.5,0.6-1,1.3-1.5,2.3c-0.6,1.1-1,2.5-1.3,4.1c0,0,0,0,0,0c0,0,0,0,0,0c-0.4,0.4-0.7,0.8-1.1,1.2
							c-0.1,0.1-0.2,0.3-0.3,0.4c-2,2.3-3.6,5.1-4.2,8.2c-0.1,0.5-0.2,1.1-0.2,1.6c-0.6,12.2,3.6,25.3-4.2,35.1
							c-0.5,0.6-0.9,1.1-1.4,1.7c-0.2,0.2-0.3,0.4-0.4,0.5c-0.2,0.3-0.5,0.5-0.7,0.8c-0.2,0.2-0.3,0.4-0.5,0.6
							c-0.2,0.3-0.5,0.5-0.7,0.8c-3.6,4-6.3,6.3-7.5,7.2c0,0-0.1,0.1-0.1,0.1c0,0-0.1,0-0.1,0.1c-0.4-0.4-0.8-0.7-1-0.9
							c-0.1-0.1-0.3-0.2-0.4-0.2c-0.2,0-0.3,0.1-0.5,0.2l-4.1,3.5c0,0,0,0,0,0c0,0,0,0,0,0c-0.3,0.3-0.3,0.7,0.1,1
							c0.2,0.2,0.5,0.4,0.8,0.7c0,0,0,0,0,0l-1.8,1.5l-0.1,0.1l-0.1,0.1l-0.5-0.6c0,0-0.2-0.4-0.9-0.3c0,0,0,0,0,0
							c-0.5,0.1-1.2,0.4-2.3,1.2c-0.3,0.3-0.6,0.5-0.9,0.8c0,0-0.1,0.1-0.1,0.1c-1.4,1.6-0.5,2.7-0.5,2.7l0.2,0.3l0,0l-0.5,0.4
							c0,0,0,0-0.1,0.1c0,0-0.1,0.1-0.1,0.1c-0.7,0.8-3.1,3.9-0.5,7.2l3.9,6.1c0,0,1.2,2.1,3.7,1.5c0,0,0,0,0,0
							c0.7-0.2,1.6-0.7,2.5-1.5c1.7-1.5,5.2-4.6,8.6-7.7c0,0.1,0.1,0.1,0.1,0.1c0.1,0.3,0.3,0.5,0.3,0.8c0.2,0.4,0.6,0.5,0.9,0.3
							c0.1,0,0.1-0.1,0.2-0.1l4.4-4c0,0,0.1-0.1,0.1-0.1c0.2-0.2,0.2-0.5,0.1-0.7c-0.2-0.4-0.4-0.8-0.7-1.2c0,0,0,0,0.1-0.1
							c0.1,0,0.1-0.1,0.2-0.1c0.6-0.6,1.2-1.2,1.7-1.7c0.1-0.2,0.3-0.3,0.4-0.5c1-1.1,1.5-1.9,1.5-1.9c3.1-4.3,16.3-16.8,13.7-26.8
							c0,0,0.1,0.1,0.1,0.1c0,0,0.1,0,0.1,0.1c0.1,0.4,0.3,0.8,0.4,1.2c1.7,5,3,9.8,3.2,12.6c0,0.1,0,0.1,0,0.2c0,0,0,0.1,0,0.1
							c-0.1,0-0.1-0.1-0.1-0.1c-0.1-0.1-0.2-0.1-0.2-0.2c0,0,0,0,0,0l-1.6,8v0l0,0.1l-0.2,1l0,0.2c0,0,0,0.1,0,0.1
							c0,0.1,0.1,0.1,0.1,0.2h0c0,0,0,0,0,0c0,0,0.1,0.1,0.1,0.1c0,0-0.1-0.1-0.1-0.1c-0.1-0.1-0.1-0.1-0.2-0.1c0,0,0,0,0,0
							s-15.4,18.4-18.3,24c-2.9,5.7-1.1,24.9-0.8,29.6c0.3,4.7,2.8,12.5,2.8,12.5s0.2,0.4,0.8,0.9c-2.8-1.2-6.7,0.9-7.6,1.4
							c0,0-0.1,0-0.1,0.1c-0.1,0-0.1,0.1-0.1,0.1c-1-0.4-2-0.7-3.2-0.7c-1.4,0-2.7,0.1-3.9,0.4c-1.5,0.3-2.9,0.9-4,1.6c0,0,0,0,0,0
							l0,0c0,0,0,0,0,0c0,0,0,0,0,0c-0.1,0-0.1,0.1-0.2,0.1c0,0,0,0,0,0c-0.5,0.4-0.9,0.8-1.3,1.2c0,0,0,0,0,0
							c-1.2,1.4-1.9,3.1-2,5.4l-0.2,0.7l-0.5,2.4c0,0-0.7,4.6,12.4,6.2c5.5,0.6,10.9,0,15.4-1.1c0,0,0,0,0,0
							c3.7-0.8,6.7-1.9,8.6-2.7c0.5-0.2,0.9-0.5,1.2-0.8c0,0,0,0,0,0c0.5-0.5,0.7-1.3,0.7-2l0-1.2v0l0-0.1l-0.2-10l0-0.1
							c0,0,0,0,0,0c0.1-1.1,2.4-23.3,3.2-29.9c0.1-0.7,0.4-1.3,0.8-1.8c0.1-0.1,0.1-0.1,0.2-0.2c3.2-2.9,14.2-13.2,17.8-16l0.2,0
							l4,0.3c0,0-1.9,14.1-2.8,19.7c-0.1,0.6-0.1,1.1,0,1.7c0.4,4.3,2.8,23,4.5,30.8c0.3,1.5,1.4,2.7,2.8,3.3c0,0,0.1,0,0.1,0
							c-1.6,0.3-2.9,1.4-3.7,2.3c-0.1,0.1-0.1,0.1-0.2,0.2c-0.2,0.3-0.4,0.5-0.5,0.6c0,0,0,0,0,0c0,0,0,0.1-0.1,0.1
							c-0.8,0-1.7,0-2.6,0.2c0,0,0,0,0,0c0,0,0,0,0,0c-0.1,0-0.2,0-0.3,0.1c-2.3,0.6-4,1.1-5.3,1.9c0,0,0,0-0.1,0
							c-0.7,0.4-1.4,1-1.9,1.6c-0.1,0.1-0.1,0.1-0.2,0.2c-0.9,1.2-1.7,2.7-2.5,4.8l-0.8,4.8c0,0,4.9,2.6,12.7,3.9
							c3.3,0.6,6.2,0.4,8.8-0.3c0,0,0,0,0,0c5.1-1.2,9.1-4.1,12.7-6.1c0.4-0.2,0.7-0.5,0.9-0.7c0,0,0,0,0,0c0.8-0.9,0.6-1.9,0.4-2.8
							l-0.1-1.2l-0.7-10.5l0-0.2c0,0,0,0,0,0c0.1-0.6,2.6-24.9,1-30.2c0,0,8.5-20.9,10.7-30C1759.1,283.4,1758.7,278.6,1757.9,274.4
							z"/>
					</g>
					<g>
						<path class="st28" d="M1685.8,220.2c-0.2-0.1-0.4-0.3-0.6-0.4l0.1-0.1c0.2,0.1,0.4,0.3,0.6,0.4L1685.8,220.2z"/>
					</g>
					<g>
						<path class="st28" d="M1701.5,273.6l-1.2-0.8c0,0-0.1,0-0.1-0.1h0l-0.1-0.1c-0.1-0.1-0.1-0.1-0.1-0.1l-0.2-0.1l0.4-2l0.4,1.4
							c0,0.1,0.1,0.3,0.2,0.4L1701.5,273.6z"/>
					</g>
					<g>
						<path class="st28" d="M1699.7,273l2.1-10.9l0.5,0.4c0,0,0.1,0.1,0.3,0.3c0,0,0,0,0,0l0,0c1,0.8,3.8,2.8,8.1,4.7l0.1,0.1
							l0.1,0.1c0,0,0,0.1,0.1,0.1l0.2,0.4l-0.2,0.2c-1,0.8-2.1,1.6-3.2,2.5v0.5l-0.6-0.4c-1.6-1.1-2.5-1.3-2.9-1.3
							c-1.5,0-2.9,0.1-3.5,1.2L1699.7,273z M1704.1,269.1c0.1,0,0.1,0,0.2,0c0.7,0,1.8,0.4,3.1,1.3c1-0.7,1.9-1.5,2.8-2.2
							c-4.2-1.9-6.9-3.9-8-4.7l-1.2,6.2C1701.9,269.2,1703,269.1,1704.1,269.1z"/>
					</g>
					<g>
						<path class="st39" d="M1768.3,211.4l-5,37.3c-0.1,0.5-0.3,1-0.6,1.3c0,0,0,0-0.1,0.1c-0.2,0.3-0.5,0.5-0.9,0.6
							c-2.9,1.3-6.4,1.3-7.2,1.2c-0.2-2.7-0.3-5.2-0.2-6.5c-0.4,0.6-0.8,1.1-1.2,1.7c-5.4,7.3-14.8,16.7-23.5,24.9h0
							c-1.3,1.2-2.5,2.4-3.7,3.5c-1.2-1-3-2.7-4.3-4.3c-0.4-0.5-0.8-1-1.1-1.4c-1.3-2-2.9-4.9-3.8-6.8c3.7-3.4,8-7,11-11.6
							c0.5-0.7,0.9-1.4,1.3-2.1c0.4-0.6,0.7-1.1,1-1.7c1.4-2.3,2.5-4.2,3.4-6c0.5-0.9,0.9-1.8,1.3-2.6c0,0,0,0-0.1,0
							c0.3-0.5,0.5-1.1,0.8-1.6c0.6-1.3,1.3-2.5,1.8-3.6c0,0,0,0,0,0c1.2-5.1,3.9-18.2,8-24.6c2.4-3.8,6.3-6,7.5-6.7
							c-1-0.6-5.1-3-9.3-4.5c0.4-1.8,0.4-3.5,0-5c-0.5-1.7-1.6-3-2.9-3.9c1.1,0.2,6.3,1,11,2.4
							C1772.3,197.8,1768.3,211.4,1768.3,211.4z"/>
						<path class="st28" d="M1725.9,276.1l-0.2-0.2c-1.2-1.1-3-2.7-4.4-4.4c-0.4-0.5-0.8-1-1.1-1.5c-1.4-2.1-3-5.1-3.8-6.8l-0.1-0.2
							l0.2-0.2c0.4-0.4,0.9-0.8,1.3-1.2c3.4-3.1,7-6.3,9.6-10.3c0.5-0.7,0.9-1.4,1.3-2c0.4-0.6,0.7-1.2,1-1.7c1.2-2,2.3-4,3.3-5.9
							c0.3-0.6,0.7-1.3,1-2.1h-0.1l0.3-0.5c0.3-0.5,0.5-1.1,0.8-1.6c0.7-1.4,1.3-2.6,1.8-3.5c0.1-0.5,0.2-1,0.4-1.7
							c1.4-6,4-17.2,7.7-23c2.2-3.4,5.5-5.6,7.1-6.5c-1.4-0.9-5-2.9-8.7-4.2l-0.3-0.1l0.1-0.3c0.4-1.7,0.4-3.4,0-4.9
							c-0.4-1.5-1.4-2.7-2.7-3.7l-1.2-0.9l1.5,0.2c1.4,0.2,6.4,1,11.1,2.4c7.6,2.3,12.8,5.8,15.4,10.5c2.6,4.8,1.5,9.1,1.4,9.6
							l-5,37.3c-0.1,0.6-0.3,1.1-0.7,1.5c0,0,0,0-0.1,0.1c-0.3,0.3-0.6,0.6-1,0.7c-2.9,1.3-6.3,1.3-7.3,1.3l-0.3,0l0-0.3
							c-0.1-2.3-0.2-4.1-0.2-5.3c-0.2,0.3-0.4,0.5-0.6,0.8c-4.5,6.1-12.5,14.5-23.6,25l-0.1,0.1c-1.1,1.1-2.3,2.2-3.6,3.4
							L1725.9,276.1z M1717.2,263.2c0.8,1.7,2.3,4.5,3.6,6.5c0.3,0.4,0.6,0.9,1.1,1.4c1.3,1.5,2.9,3,4.1,4.1
							c1.3-1.2,2.4-2.2,3.5-3.3l0.1-0.1c11-10.4,18.9-18.7,23.4-24.8c0.4-0.6,0.8-1.1,1.2-1.7l0.7-1l0,1.2c0,1,0,3.1,0.2,6.1
							c1.1,0,4.2-0.1,6.7-1.2c0.3-0.1,0.5-0.3,0.7-0.5c0,0,0,0,0,0c0.3-0.3,0.4-0.7,0.5-1.2l5-37.3l0,0c0-0.1,1-3.4-0.5-7.4
							c-2-5.3-7.4-9.4-15.7-11.9c-3.6-1.1-7.5-1.8-9.7-2.2c1,0.9,1.6,2,2,3.2c0.4,1.5,0.5,3.2,0.1,4.9c4.2,1.5,8.2,4,9,4.4l0.5,0.3
							l-0.6,0.3c-1.1,0.6-5,2.8-7.4,6.6c-3.7,5.7-6.2,16.8-7.6,22.8c-0.1,0.6-0.3,1.2-0.4,1.7l0,0.1l0,0c-0.5,0.9-1.1,2.1-1.8,3.5
							c-0.2,0.4-0.4,0.8-0.6,1.1l0.1,0l-0.2,0.5c-0.5,1-0.9,1.8-1.3,2.6c-1,2-2.1,4-3.4,6c-0.3,0.5-0.6,1-1,1.7
							c-0.4,0.6-0.8,1.3-1.3,2.1c-2.7,4.1-6.3,7.3-9.8,10.4C1717.9,262.5,1717.5,262.9,1717.2,263.2z"/>
					</g>
					<g>
						<path class="st28" d="M1733.4,282.4c-3,0-6.4-0.3-10.3-1c-0.2,0-0.5-0.1-0.7-0.1l-0.7-0.1l4.7-4.2c0.1-0.1,0.1-0.1,0.1-0.2
							c0,0,0-0.1-0.1-0.2l0,0c-0.2-0.2-0.4-0.4-0.7-0.6l-0.3-0.3l0.3-0.3c1.3-1.2,2.6-2.4,3.7-3.5l0.1-0.1l0.2,0
							c12.4,0.5,20.5-1.9,25.5-7.7l0.5-0.5l0.2,0.6c0,0,1.6,4.5,2.7,9.9l0,0.1v0.1l-0.1,0.1c0,0,0,0,0,0v0l-0.1,0.1
							c-0.3,0.3-1.4,1.2-4.3,2.5c-0.6,0.2-1.1,0.5-1.7,0.8C1747.7,279.9,1742.2,282.4,1733.4,282.4z M1723.2,280.7
							c15,2.8,22.7-0.8,28.9-3.6c0.6-0.3,1.1-0.5,1.7-0.8c2.7-1.2,3.7-2,4-2.3c-0.8-4.2-1.9-7.7-2.4-9c-2.4,2.6-5.5,4.5-9.3,5.8
							c-4.4,1.5-9.8,2-16.4,1.8c-1,1-2.1,2-3.3,3.1c0.1,0.1,0.3,0.2,0.4,0.3l0,0c0.2,0.2,0.3,0.4,0.3,0.7c0,0.3-0.1,0.5-0.3,0.7
							L1723.2,280.7z"/>
					</g>
					<g>
						<path class="st28" d="M1720.8,281l-1.4-0.3c-0.1,0-0.2,0-0.3-0.1h0c0,0,0,0,0,0c0,0,0,0,0,0c0,0,0,0,0,0c0,0,0,0,0,0
							c0,0,0,0,0,0l0.2-0.7c0,0,0,0,0,0c0,0,0,0,0,0c0,0,0,0,0,0c0.1,0,0.3,0.1,0.4,0.1l0.3,0.1v0.1L1720.8,281z"/>
					</g>
					<g>
						<path class="st28" d="M1739.2,350.7c-0.1,0-0.2,0-0.2,0c-3.1-0.1-6.5-1.1-8.8-2c-1.6-0.6-2.7-1.9-3.1-3.6
							c-1.8-7.9-4.1-26.8-4.5-30.8c-0.1-0.6,0-1.2,0-1.8c0.8-5.1,2.4-17.1,2.7-19.3l-3.7-0.3c-3.7,2.9-14.4,12.9-17.7,15.9
							c-0.1,0.1-0.1,0.1-0.2,0.2c-0.4,0.4-0.6,1-0.7,1.5c-0.8,6.7-3.2,29.7-3.2,29.9l0,0.2l-0.2,0.1c0,0,0,0-0.1,0
							c-0.4,0.2-4,2-8.9,1.4c-2.1-0.3-3.8-0.9-5.3-1.9c-1.2-0.8-1.7-1.6-1.8-1.6l0,0l0,0c-0.1-0.3-2.5-7.9-2.9-12.6
							c0-0.4-0.1-0.9-0.1-1.6c-0.5-6.9-1.8-23,0.9-28.3c2.9-5.6,17.7-23.3,18.3-24l0.3-0.3l0.3,0.2c0,0,0,0,0.1,0l0.1,0
							c0,0,0,0,0.1,0h0.3l0,0.3c0.3,0.5,0.9,1.1,1.7,1.8l0.3,0.3l-0.4,0.3c-1.8,1.2-3.1,2-3.4,2.2c-0.1,0.4-0.5,2.7,3.2,8.4
							c1.1,1.8,2.4,3.1,3.9,3.9c1.6,0.9,3.5,0.6,4.9-0.6c0.9-0.8,2.1-1.9,3.6-3.2c1.6-1.5,3.5-3.1,5.5-5l0.5,0.5
							c-2.1,1.9-3.9,3.5-5.5,5c-1.4,1.3-2.7,2.4-3.5,3.2c-1.6,1.4-3.9,1.7-5.7,0.7c-1.5-0.8-2.9-2.2-4.1-4.1
							c-4.3-6.7-3.3-8.9-3.2-9.2l0-0.1l0.1-0.1c0,0,1.2-0.7,3.1-2c-0.7-0.6-1.1-1.1-1.4-1.6c-1.7,2.1-15.3,18.4-18.1,23.7
							c-2.6,5.1-1.3,21.6-0.8,27.9c0,0.6,0.1,1.2,0.1,1.6c0.3,4.4,2.6,11.7,2.8,12.3c0.1,0.1,0.6,0.7,1.5,1.4c1.3,0.9,3,1.5,5,1.7
							c4.4,0.6,7.7-0.9,8.4-1.2c0.2-2.2,2.4-23.4,3.2-29.8c0.1-0.7,0.4-1.4,0.8-1.9c0.1-0.1,0.2-0.2,0.3-0.3
							c3.3-3.1,14.2-13.2,17.8-16.1l0.1-0.1l4.7,0.4l-0.1,0.4c0,0.1-1.9,14.1-2.8,19.7c-0.1,0.5-0.1,1.1,0,1.6
							c0.4,4,2.7,22.8,4.5,30.7c0.3,1.4,1.3,2.5,2.6,3.1c2.3,0.9,5.6,1.9,8.6,2c4.3,0.1,6.9-2.2,7.5-2.7c0.2-1.9,2.5-24.9,1-29.9
							l0-0.1l0-0.1c0.1-0.2,8.5-21,10.7-30c0.8-3.2,0.7-7.3-0.2-12.3c-0.6,0.5-1.7,1.2-3.9,2.2c-0.6,0.2-1.1,0.5-1.7,0.8
							c-4.7,2.1-10.2,4.7-19,4.7c-3,0-6.4-0.3-10.3-1c-0.2,0-0.5-0.1-0.7-0.1l0.1-0.7c0.2,0,0.5,0.1,0.7,0.1
							c15,2.8,22.7-0.8,28.9-3.6c0.6-0.3,1.1-0.5,1.7-0.8c2.7-1.2,3.7-2,4-2.3l0.1-0.1c0,0,0,0,0,0l0.5-0.7l0.2,0.9
							c1,5.4,1.1,9.8,0.3,13.3c-2.1,8.7-10,28.3-10.6,30c1.5,5.5-1,29.2-1.1,30.2l0,0.1l-0.2,0.2
							C1746.5,348.2,1743.7,350.7,1739.2,350.7z"/>
					</g>
					<g>
						<g>
							<path class="st28" d="M1678.2,359.1c-1.4,0-2.9-0.1-4.4-0.2c-7.8-0.9-10.8-2.9-12-4.5c-0.9-1.2-0.7-2.1-0.7-2.1l0,0l0.6-3.1
								c0.2-3.1,1.5-5.5,3.8-7.1c2-1.4,4.8-2.1,8.1-2.1c0,0,0.1,0,0.1,0c6.2,0,9.8,6.9,10,7.2l-0.6,0.3c0-0.1-3.6-6.8-9.4-6.8
								c-3.3,0-10.9,0.8-11.3,8.6l0,0.1l-0.6,3.1c0,0.1-0.1,0.7,0.6,1.6c1.1,1.4,4,3.3,11.5,4.1c10.1,1.2,20-2.2,23.8-3.7
								c1-0.4,1.7-1.4,1.7-2.5l-0.3-11.4l0.7,0l0.3,11.4c0,1.4-0.8,2.7-2.1,3.2C1694.7,356.4,1686.8,359.1,1678.2,359.1z"/>
						</g>
						<g>
							<path class="st28" d="M1677.7,341.5l-0.4-0.6c0.2-0.1,4.6-2.6,8.4-1.2l-0.2,0.7C1682,339.1,1677.8,341.5,1677.7,341.5z"/>
						</g>
						<g>
							<path class="st28" d="M1679.9,354.6c-3.5,0-7.2-0.3-10.8-0.9c-4-0.7-7.2-3.4-7.3-3.5l0.5-0.5c0,0,3.2,2.7,7,3.4
								c8.2,1.4,17.3,1,21.7-0.2c4.3-1.2,8.8-2.5,8.8-2.5l0.2,0.7c0,0-4.5,1.4-8.8,2.5C1688.5,354.2,1684.4,354.6,1679.9,354.6z"/>
						</g>
						<g>
							<path class="st28" d="M1669.9,346.9c-0.8,0-1.7-0.1-3-0.5c-1.7-0.5-2.6-1.1-2.7-2c-0.2-1.3,1.4-2.3,1.4-2.4l0.4,0.6
								c0,0,0,0,0,0l0,0c-0.3,0.2-1.2,1-1.1,1.7c0.1,0.6,0.9,1.1,2.2,1.4c3.4,0.9,4.2,0.4,5.7-0.6c0.6-0.4,1.2-0.8,2.1-1.3
								c5.2-2.6,7.1,0.8,7.2,0.8l-0.6,0.3c-0.1-0.1-1.7-2.8-6.2-0.6c-0.9,0.4-1.5,0.9-2,1.2C1672.2,346.4,1671.4,346.9,1669.9,346.9
								z"/>
						</g>
					</g>
					<g>
						<g>
							<path class="st28" d="M1728.5,369.9c-1.2,0-2.5-0.1-3.9-0.3c-7.8-1.4-12.8-4-12.8-4l-0.2-0.1l0.9-5.2c2.3-6,4.4-7.4,10.3-8.8
								c3.3-0.8,6.8,0,9.9,2.5c2.4,1.9,3.7,3.9,3.8,4l-0.6,0.4c0,0-1.4-2.1-3.6-3.9c-3-2.4-6.1-3.2-9.3-2.4
								c-5.7,1.4-7.6,2.6-9.8,8.4l-0.8,4.5c1.1,0.5,5.7,2.6,12.4,3.8c8.2,1.4,14.3-2.1,19.1-5c0.8-0.4,1.5-0.9,2.2-1.3
								c1.6-0.9,1.4-2,1.1-3.2l0-0.1l-0.7-11.8l0.7,0l0.7,11.8c0.3,1.2,0.6,2.8-1.5,3.9c-0.7,0.4-1.4,0.8-2.2,1.3
								C1740.1,366.9,1735.1,369.9,1728.5,369.9z"/>
						</g>
						<g>
							<path class="st28" d="M1726,351.8l-0.6-0.4c0.1-0.1,1.9-2.9,4.8-3.5l0.1,0.7C1727.7,349.2,1726,351.8,1726,351.8z"/>
						</g>
						<g>
							<path class="st28" d="M1727.8,365.6c-1.9,0-4-0.2-6.6-0.8c-4-0.8-8.5-3.4-8.7-3.5l0.4-0.6c0,0,4.6,2.6,8.4,3.4
								c6.9,1.4,10,0.9,18-1.7c4.6-1.5,7.6-4.6,7.6-4.6l0.5,0.5c-0.1,0.1-3.1,3.3-7.9,4.8C1734.6,364.7,1731.4,365.6,1727.8,365.6z"
								/>
						</g>
					</g>
					<g>
						<path class="st28" d="M1723.6,359.4c-1.2,0-2.5-0.4-3.9-0.9c-3.4-1.2-2.5-4.9-2.5-4.9l0.7,0.2l-0.3-0.1l0.3,0.1
							c0,0.1-0.7,3,2.1,4c2.9,1.1,5.2,1.6,7.7-1.4c2.8-3.2,6.6-1.1,6.7-1.1l-0.3,0.6c-0.1-0.1-3.4-1.8-5.8,0.9
							C1726.6,358.8,1725.1,359.4,1723.6,359.4z"/>
					</g>
					<g>
						<path class="st28" d="M1709.7,211.7c-0.4,0-0.8,0-1.2,0c-3.8-0.2-6.3-0.9-7.3-2.2c-0.4-0.6-0.5-1.1-0.5-1.3l-5.2-14.1l0.5,0
							c2.3-0.2,4.4-0.4,4.4-0.4c7-0.5,15.9-3.2,16.8-3.5l3.6-3.2c0-1.3-0.4-9.5-2.7-14.7c-1.1-2.6-2.8-4.3-3.9-5.2
							c-1.1-0.9-2.5-1.3-3.9-1c-6,1-20.1,3.3-22,4.1l-0.5,0.2l0-0.5c-0.3-4.8,0.5-8.8,2.5-12.1c2.5-4,6.8-6.8,12.7-8.2
							c0,0,0,0,0.1,0c0.2,0,0.3-0.1,0.5-0.1c3-0.7,5.9-0.8,8.5-0.3c4,0.8,7.5,2.9,10.4,6.4c2.3,2.7,4.1,6.3,5.6,10.6l0.1,0.4
							l-3.4,0.3c-0.6,0.1-1,0.5-1,1.1c-0.1,1.7-0.3,5,0.1,7.3c0.4,2.8,2.5,5.5,3,6.2c0.5,0,2-0.2,3.5-0.6l0.4-0.1l1.7,16.2l-0.2,0.1
							c0,0-3.2,2.1-4.1,4.6c-0.9,2.6-1.1,6.5-1.1,6.6l0,0.2l-0.2,0.1C1726.9,208.4,1717.5,211.7,1709.7,211.7z M1696.6,194.7
							l4.9,13.4l0,0.1c0,0-0.1,0.4,0.3,0.9c0.6,0.8,2.3,1.7,6.8,1.9c7.2,0.3,16.4-2.6,17.9-3.1c0.1-0.9,0.3-4.2,1.1-6.5
							c0.9-2.4,3.5-4.3,4.2-4.8l-1.5-15c-1.8,0.4-3.3,0.5-3.4,0.5l-0.2,0l-0.1-0.1c-0.1-0.1-2.8-3.3-3.3-6.6
							c-0.4-2.3-0.2-5.7-0.1-7.4c0.1-0.9,0.8-1.6,1.7-1.7l2.5-0.2c-2.2-6.6-6.7-14.5-15.2-16.1c-2.5-0.5-5.3-0.4-8.2,0.3
							c-0.2,0-0.3,0.1-0.5,0.1c0,0,0,0,0,0l0,0c-10.3,2.4-15.3,8.9-14.8,19.1c3.2-0.9,16.1-3.1,21.7-4c1.6-0.3,3.2,0.2,4.4,1.2
							c1.2,1,2.9,2.8,4.1,5.5c2.5,5.8,2.7,14.8,2.8,15.2l0,0.2l-4,3.6l-0.1,0c-0.1,0-9.6,3-17,3.5
							C1700.5,194.3,1698.7,194.5,1696.6,194.7z"/>
					</g>
					<g>
						<path class="st28" d="M1681.4,280.2l-0.5-0.5c2.5-2.3,3.8-4.2,3.8-4.2c0.6-0.8,1.5-1.9,2.6-3.2c2.6-3,6.1-7.1,8.5-11.5
							c2.8-5.1,3.6-9.5,2.1-13.1l0.7-0.3c1.5,3.7,0.8,8.3-2.1,13.7c-2.5,4.5-6,8.6-8.6,11.6c-1.1,1.3-2,2.3-2.6,3.1
							C1685.2,275.9,1684,277.8,1681.4,280.2z"/>
					</g>
					<g>
						<path class="st28" d="M1702.8,263.5h-0.7c0-0.1,0-0.2,0-0.3c-0.1-2.6-1.4-7.7-3.6-14l0-0.1V249l0.4,0l0.3-0.1
							c2.2,6.4,3.5,11.6,3.6,14.2C1702.8,263.3,1702.8,263.4,1702.8,263.5z"/>
					</g>
					<g>
						<path class="st28" d="M1755.2,264.3c0-0.1-0.6-6.8-0.9-12.3l0.7,0c0.3,5.5,0.9,12.2,0.9,12.3L1755.2,264.3z"/>
					</g>
					<g>
						<path class="st28" d="M1752.9,203.2c0,0-0.1,0-0.2-0.1l0.4-0.6c0.1,0.1,0.2,0.1,0.2,0.1L1752.9,203.2z"/>
					</g>
					<g>
						<path class="st28" d="M1739.9,197.6c-0.9-0.2-1.7-0.3-2.6-0.4l0,0c-2.9-0.3-4.9-0.2-4.9-0.2l-0.1-0.7c0.1,0,2.1-0.2,5,0.2l0,0
							c0.9,0.1,1.8,0.2,2.7,0.4L1739.9,197.6z"/>
					</g>
					<g>
						<path class="st39" d="M1698.1,246.7c0.3,0.8,0.5,1.5,0.8,2.3c0,0-0.1-0.1-0.2-0.1c-1.4-1.1-8.3-7.4-8.3-19.1
							c0-7.3,0.1-14.4,1.2-19.5c0.3-1.6,0.8-3,1.3-4.1c1.4-2.8,3.2-3.8,4.4-4.2h0c0.7-0.1,1.1-0.1,1.1-0.1l0-0.1l0,0
							c0.2,0,0.4,0,0.4,0l0.8,2.2c0,0-1.3,0.7-3.1,2c-0.6,1.9-0.8,6.2-1,10.6l0,0l0,0c0,0,0,0,0,0v0c-0.2,6.1,0,12.3,0,12.3
							s0,0.7,0.1,1.9c0.1,2.1,0.3,5.8,0.9,9.4C1696.9,242.6,1697.4,244.9,1698.1,246.7z"/>
						<path class="st28" d="M1699.6,250l-0.9-0.7c0,0-0.1-0.1-0.2-0.2c-1.4-1.2-8.4-7.5-8.4-19.4c0-7.1,0.1-14.4,1.2-19.6
							c0.4-1.7,0.8-3,1.4-4.2c1.5-3,3.3-4,4.6-4.3l0.1,0c0.2,0,0.5-0.1,0.6-0.1l0-0.1l0.5,0c0.2,0,0.4,0,0.4,0l0.2,0l1,2.7l-0.3,0.1
							c0,0-1.2,0.7-2.9,1.9c-0.5,1.6-0.8,5.1-0.9,10.4l0,0l0,0c-0.1,6,0,12.2,0,12.3c0,0,0,0.7,0.1,1.9c0.1,2.4,0.4,5.9,0.9,9.4
							c0.4,2.5,0.9,4.7,1.5,6.3l0,0c0.3,0.8,0.6,1.6,0.8,2.3L1699.6,250z M1697.5,202.4c-1.2,0.3-2.8,1.3-4.2,4
							c-0.5,1.1-1,2.4-1.3,4c-1.1,5.2-1.2,12.4-1.2,19.4c0,9.9,5.1,15.9,7.3,18.1c-0.1-0.3-0.2-0.7-0.4-1l0,0
							c-0.6-1.7-1.1-3.9-1.5-6.5c-0.6-3.5-0.8-7.1-0.9-9.5c-0.1-1.2-0.1-1.9-0.1-1.9c0-0.1-0.1-6.2,0-12.2l0,0l0-0.2
							c0.1-5.4,0.5-9,1-10.7l0-0.1l0.1-0.1c1.3-1,2.4-1.6,2.8-1.9l-0.6-1.6l-0.2,0C1698.5,202.3,1698.1,202.3,1697.5,202.4z"/>
					</g>
					<g>
						<path class="st28" d="M1697.5,202.4l-0.2-0.7c0.4-0.1,0.8-0.2,1.2-0.2l0,0.7C1698.3,202.2,1697.9,202.3,1697.5,202.4z"/>
					</g>
					<g>
						<polygon class="st28" points="1698.7,249.3 1698.5,249.2 1698.5,249 1698.9,249 1699.1,248.7 1699.2,248.8 1699,249 
							1699.3,249 1699.3,249 1699,249 						"/>
					</g>
					<g>
						<path class="st39" d="M1743.7,198.3C1743.6,198.3,1743.6,198.3,1743.7,198.3c-1,4.2-4.3,8.8-9,13.9
							c-6.9,7.2-18.5,12.7-28.3,10.7c-9.6-2-10.7-6-10.7-6.1v0l0,0l0.2-3.5c0,0,2.5,6.6,13.8,6.7c7.8,0.1,15.6-3.8,21.7-9.6
							c2.6-2.5,5-5.4,6.8-8.4c1.1-1.8,1.6-3.3,1.9-4.6c1.3-7.3-8.4-8-8.4-8l0-2.4v0l0-0.1c0,0,5.4,0,9.1,2.5c0,0,0,0,0,0
							c0.1,0,0.1,0.1,0.1,0.1h0c1.3,0.9,2.4,2.2,2.9,3.9C1744.1,194.8,1744.1,196.5,1743.7,198.3z"/>
						<path class="st28" d="M1710.6,223.6c-1.5,0-3-0.1-4.4-0.4c-9.8-2-10.9-6.2-11-6.4l0,0l0-0.1l0.2-5.2l0.6,1.6
							c0,0,0.6,1.6,2.6,3.2c1.8,1.5,5.2,3.2,10.9,3.3c0.1,0,0.2,0,0.2,0c7.1,0,14.8-3.4,21.2-9.5c2.6-2.5,4.9-5.3,6.7-8.4
							c1-1.6,1.6-3.2,1.8-4.5c0.3-1.7,0-3.2-0.9-4.4c-2.2-2.8-7.1-3.2-7.2-3.2l-0.3,0l0.1-3.2h0.4c0.2,0,5.5,0,9.2,2.5h0l0.1,0.1
							c0,0,0,0,0.1,0h0l0.1,0.1c1.5,1.1,2.5,2.5,3,4.1c0.5,1.6,0.5,3.4,0,5.2l0,0c0,0,0,0,0,0.1c-1,3.9-3.9,8.5-9.1,13.9
							c-3.5,3.7-8.2,6.9-13.2,8.9C1717.9,222.8,1714.1,223.6,1710.6,223.6z M1696,216.7c0.1,0.4,1.5,3.9,10.4,5.8
							c9.9,2,21.5-3.8,28-10.6c5.1-5.4,8-9.8,8.9-13.6l0,0c0,0,0,0,0,0l0,0h0c0.4-1.7,0.4-3.4,0-4.9c-0.4-1.4-1.3-2.7-2.6-3.6h0
							l-0.1-0.1c0,0,0,0-0.1-0.1l-0.1,0c-3-2.1-7.3-2.4-8.5-2.4l0,1.8c1.2,0.1,5.3,0.8,7.3,3.4c1.1,1.4,1.4,3,1.1,5
							c-0.2,1.4-0.9,3-1.9,4.7c-1.8,3.1-4.1,6-6.8,8.5c-6.5,6.2-14.3,9.7-21.7,9.7c-0.1,0-0.2,0-0.2,0c-5.9-0.1-9.5-1.9-11.4-3.5
							c-1-0.8-1.7-1.7-2.2-2.3L1696,216.7z"/>
					</g>
					<g>
						<polygon class="st28" points="1696,217.6 1695.3,216.9 1695.3,216.7 1695.7,216.7 1695.9,216.5 1695.7,216.7 1696,216.7 
													"/>
					</g>
					<g>
						<path class="st28" d="M1730.9,210.3c0-0.4,0.1-9.7,6.2-13.8l0.4,0.6c-5.8,3.9-5.8,13.1-5.8,13.2L1730.9,210.3z"/>
					</g>
					<g>
						<path class="st28" d="M1759.8,207.9c-0.1-1.9-0.8-3.2-1.9-4.1c-1.7-1.3-4.2-1-4.5-0.9c-0.1,0-0.2,0.1-0.4,0.2l-0.3-0.6
							c0.3-0.1,0.4-0.2,0.4-0.2l0,0l0,0c0.1,0,3-0.6,5.1,1.1c1.3,1,2,2.5,2.2,4.6L1759.8,207.9z"/>
					</g>
					<g>
						<path class="st28" d="M1737.6,234.5l-0.7-0.2c0-0.1,0-0.1,0-0.2l0-0.1l0.7,0.2l0,0.1C1737.7,234.3,1737.7,234.4,1737.6,234.5z
							"/>
					</g>
					<g>
						<path class="st28" d="M1738.8,232.4l-0.7-0.3c5.6-13,11.3-19,15-21.7c4.1-3,6.9-2.8,7-2.8l0,0.7c0,0-2.7-0.1-6.6,2.7
							C1749.9,213.7,1744.4,219.6,1738.8,232.4z"/>
					</g>
					<g>
						<g>
							
								<rect x="1662.9" y="273.2" transform="matrix(0.7642 -0.645 0.645 0.7642 216.0432 1137.9172)" class="st28" width="2.6" height="0.7"/>
						</g>
						<g>
							<path class="st28" d="M1663.8,294.4c-0.2,0-0.4,0-0.6,0c-1.6-0.3-2.4-1.6-2.5-1.7l-3.9-6.1c-3.1-4,0.7-7.8,0.7-7.8l0,0
								l0.5-0.4l0.5,0.5l-0.5,0.4c-0.2,0.2-3.3,3.5-0.6,6.9l0,0l3.9,6.2c0,0,0.7,1.2,2,1.4c1.1,0.2,2.4-0.3,3.7-1.5
								c1.5-1.3,4.4-3.9,8.6-7.7l0.5,0.5c-4.2,3.8-7.1,6.4-8.6,7.7C1666.2,293.9,1665,294.4,1663.8,294.4z"/>
						</g>
						<g>
							<path class="st28" d="M1670.5,268.6l-0.4-0.6c1.2-0.9,5.6-4.5,11.3-11.6c5.5-6.8,4.9-15.2,4.4-24.1
								c-0.2-3.5-0.4-7.2-0.3-10.7c0.2-3.9,2.2-7.8,5.9-11.6l0.5,0.5c-3.6,3.7-5.5,7.4-5.7,11.1c-0.2,3.5,0,7.1,0.3,10.7
								c0.5,8.6,1.1,17.6-4.5,24.6C1676.2,264.1,1671.8,267.7,1670.5,268.6z"/>
						</g>
						<g>
							<path class="st28" d="M1663.3,283.5c-0.8,0-1.5-0.5-1.9-0.9l-3.7-4.2c0-0.1-0.5-0.5-0.4-1.4c0.1-0.9,0.7-1.8,1.9-2.7
								c1.3-1,2.4-1.5,3.1-1.3c0.4,0.1,0.6,0.3,0.6,0.4l3.9,4.6c0.2,0.1,0.6,0.6,0.7,1.3c0,0.9-0.6,1.8-2,2.8l-1.2,0.9
								C1664.1,283.4,1663.7,283.5,1663.3,283.5z M1662,273.8c-0.3,0-1,0.2-2.3,1.2c-1,0.8-1.5,1.5-1.6,2.2c0,0.5,0.2,0.8,0.2,0.8
								l3.7,4.2c0,0,1.1,1.1,2,0.4l1.2-0.9c1.4-1,1.7-1.7,1.7-2.2c0-0.5-0.4-0.8-0.4-0.8l0,0l0,0l-4-4.8l0,0c0,0-0.1-0.1-0.2-0.1
								C1662.1,273.8,1662.1,273.8,1662,273.8z"/>
						</g>
						<g>
							<path class="st28" d="M1676.9,286.4c-0.1,0-0.1,0-0.2,0c-0.3-0.1-0.6-0.3-0.7-0.6c-0.1-0.3-0.3-0.6-0.4-0.9
								c-0.6-1.2-1.7-3.1-3.5-5.2c-2.3-2.6-5.4-5.4-7.1-6.7c-0.3-0.3-0.6-0.5-0.8-0.7c-0.2-0.2-0.4-0.5-0.4-0.8
								c0-0.3,0.1-0.6,0.4-0.8l4.1-3.5c0.4-0.3,1-0.3,1.3,0c0.3,0.2,0.6,0.5,1,0.9c2.9,2.5,8.2,7.4,10.9,11.6
								c0.3,0.4,0.5,0.9,0.7,1.3c0.2,0.4,0.1,0.9-0.2,1.2l0,0l-4.4,4C1677.4,286.3,1677.2,286.4,1676.9,286.4z M1668.8,267.7
								c-0.1,0-0.1,0-0.2,0.1l-4.1,3.5c-0.1,0.1-0.1,0.2-0.1,0.2c0,0.1,0,0.2,0.1,0.2c0.2,0.2,0.5,0.4,0.8,0.7
								c1.7,1.4,4.8,4.2,7.2,6.8c1.9,2.2,3,4.1,3.6,5.4c0.2,0.3,0.3,0.6,0.4,0.9c0,0.1,0.1,0.2,0.2,0.2c0.1,0,0.2,0,0.3-0.1l4.4-4
								c0.1-0.1,0.1-0.3,0.1-0.4c-0.2-0.4-0.4-0.8-0.7-1.2c-2.6-4.1-7.9-8.9-10.8-11.5c-0.4-0.4-0.8-0.7-1-0.9
								C1669,267.7,1668.9,267.7,1668.8,267.7z"/>
						</g>
					</g>
					<g>
						<path class="st28" d="M1697.9,159.8c-1.3,0-1.8-0.3-2-0.6c-1.7-2.3-2.4-4.4-2.4-4.5l0.7-0.2c0,0,0.7,2.2,2.3,4.3
							c0.1,0.1,0.7,0.6,4.9-0.1c2.3-0.4,4.5-1,4.5-1l0,0c0,0,2.3-0.6,6-8.7l0.6,0.3c-3.8,8.2-6.2,9-6.5,9.1c-0.2,0-2.3,0.6-4.5,1
							C1699.9,159.7,1698.7,159.8,1697.9,159.8z"/>
					</g>
					<g>
						<path class="st28" d="M1726.7,182l-0.1-0.1c-0.1-0.1-2.8-3.3-3.3-6.6c-0.4-2.3-0.2-5.7-0.1-7.4c0.1-0.9,0.8-1.6,1.7-1.7
							l4.7-0.5c1.9-0.2,3.8,0.9,4.6,2.6l0,0l0.6,1.8c0.3,1,0.5,2,0.5,3c0.1,5-0.8,6.5-0.8,6.6l0,0l0,0c-0.8,0.7-2.1,1.3-3.8,1.7
							c-1.9,0.5-3.7,0.6-3.8,0.6L1726.7,182z M1730,166.3c-0.1,0-0.2,0-0.4,0l-4.7,0.5c-0.6,0.1-1,0.5-1,1.1c-0.1,1.7-0.3,5,0.1,7.3
							c0.4,2.8,2.5,5.5,3,6.2c0.5,0,2-0.2,3.5-0.6c1.5-0.4,2.7-0.9,3.4-1.5c0.1-0.3,0.8-1.9,0.7-6.1c0-0.9-0.2-1.9-0.5-2.8l-0.6-1.7
							C1732.9,167.2,1731.5,166.3,1730,166.3z"/>
					</g>
					<g>
						<path class="st28" d="M1686.4,170.7c-2.1-8.7-0.5-14.6,1.2-17.9c1.8-3.5,4-5,4.2-5.2c0.4-0.4,5.9-5,19.3-4.4
							c3.8,0.2,7.2,1.5,10.1,3.9c2.3,1.9,4.2,4.5,5.8,7.7c2.6,5.5,3.3,10.9,3.3,11l-0.7,0.1c0-0.1-0.6-5.4-3.2-10.8
							c-3.5-7.1-8.6-10.9-15.3-11.2c-13.4-0.6-18.8,4.2-18.8,4.3l0,0c0,0-2.3,1.5-4,5c-1.6,3.2-3.1,8.8-1.1,17.3L1686.4,170.7z"/>
					</g>
					<g>
						<path class="st28" d="M1763,250.3l-0.5-0.5c0.3-0.3,0.5-0.8,0.6-1.2l5-37.3l0,0c0,0,1-3.4-0.6-7.4c-2-5.3-7.4-9.4-15.7-11.9
							c-5.3-1.6-11.1-2.4-11.2-2.4l0.1-0.7c0.1,0,6,0.9,11.3,2.5c7.6,2.3,12.8,5.8,15.4,10.5c2.6,4.8,1.5,9.1,1.4,9.6l-5,37.3
							C1763.6,249.3,1763.4,249.8,1763,250.3z"/>
					</g>
					<g>
						<polygon class="st28" points="1740.6,189.6 1740.6,189.2 1740.4,189.5 1740.6,189.2 1740.6,188.8 1740.8,188.9 1740.6,189.2 
													"/>
					</g>
					<g>
						<path class="st28" d="M1755.3,252.3c-0.3,0-0.5,0-0.5,0l0-0.7c0,0,3.7,0.2,6.9-1.3c0.3-0.1,0.5-0.3,0.7-0.5l0.5,0.5
							c-0.3,0.3-0.6,0.5-0.9,0.6C1759.4,252.2,1756.5,252.3,1755.3,252.3z"/>
					</g>
					<g>
						<path class="st40" d="M1684.5,272.7"/>
					</g>
					<g>
						<path class="st39" d="M1721.3,187.1l-3.8,3.4c0,0-9.5,2.9-16.9,3.5c0,0-2.1,0.2-4.4,0.4c-2.1,0.1-4.4,0.2-5.5,0
							c0,0-6.6-8.6-5.6-20.8c0-0.1,1.4-2.9,3.1-3.8c0,0,0.1,0,0.1-0.1c2-0.8,16.7-3.3,22.1-4.2c1.5-0.2,3,0.2,4.2,1.1
							c1.3,1.1,2.9,2.8,4,5.4C1721.1,177.8,1721.3,187.1,1721.3,187.1z"/>
						<path class="st28" d="M1692.4,194.9c-0.8,0-1.5,0-1.9-0.1l-0.1,0l-0.1-0.1c-0.1-0.1-1.7-2.2-3.2-5.9c-1.4-3.4-3-8.8-2.4-15.2
							c0-0.3,1.5-3.1,3.3-4.1c0,0,0.1,0,0.2-0.1c2-0.8,16.2-3.2,22.2-4.2c1.6-0.3,3.2,0.2,4.4,1.2c1.2,1,2.9,2.8,4.1,5.5
							c2.5,5.8,2.7,14.8,2.8,15.2l0,0.2l-4,3.6l-0.1,0c-0.1,0-9.6,3-17,3.5c0,0-2.1,0.2-4.4,0.4
							C1694.6,194.8,1693.4,194.9,1692.4,194.9z M1690.8,194.1c0.6,0.1,2.1,0.2,5.2-0.1c2.3-0.2,4.4-0.4,4.4-0.4
							c7-0.5,15.9-3.2,16.8-3.5l3.6-3.2c0-1.3-0.4-9.5-2.7-14.7c-1.1-2.6-2.8-4.3-3.9-5.2c-1.1-0.9-2.5-1.3-3.9-1
							c-6,1-20.1,3.3-22,4.1c0,0-0.1,0-0.1,0c-1.4,0.8-2.7,3.1-2.9,3.6C1684.4,184.9,1690.1,193.1,1690.8,194.1z M1685.4,173.7
							L1685.4,173.7L1685.4,173.7z M1685.4,173.6C1685.4,173.6,1685.4,173.6,1685.4,173.6C1685.4,173.6,1685.4,173.6,1685.4,173.6z"
							/>
					</g>
					<g>
						<path class="st28" d="M1721.3,187.1l-3.8,3.4c0,0-9.5,2.9-16.9,3.5c0,0-2.1,0.2-4.4,0.4c-2.1,0.1-4.4,0.2-5.5,0
							c0,0-6.6-8.6-5.6-20.8c0-0.1,1.4-2.9,3.1-3.8c0,0,0.1,0,0.1-0.1c2-0.8,16.7-3.3,22.1-4.2c1.5-0.2,3,0.2,4.2,1.1
							c1.3,1.1,2.9,2.8,4,5.4C1721.1,177.8,1721.3,187.1,1721.3,187.1z"/>
					</g>
					<g>
						<path class="st28" d="M1717.1,190.5c-0.5-3.7-4-13.5-5.3-16.6c-0.5-1.1-1.6-1.9-2.8-2c-1.6-0.1-4.1-0.2-6.9,0.2
							c-5,0.7-11.6,2.3-11.7,2.3l-0.2-0.7c0.1,0,6.7-1.6,11.8-2.3c2.8-0.4,5.4-0.4,7-0.2c1.5,0.1,2.8,1,3.4,2.4
							c1.2,2.7,4.8,12.7,5.4,16.8L1717.1,190.5z"/>
					</g>
					<g>
						<g>
							<path class="st28" d="M1733.2,243.2l-0.6-0.3c0.2-0.4,0.4-0.8,0.7-1.4l0.6,0.3C1733.6,242.3,1733.3,242.8,1733.2,243.2z"/>
						</g>
						<g>
							<path class="st28" d="M1737.7,234.2l-0.6-0.3c0.4-0.8,0.8-1.4,1-1.8l0.6,0.4C1738.4,232.9,1738.1,233.4,1737.7,234.2z"/>
						</g>
						<g>
							<path class="st28" d="M1754.7,245.7l-0.6-0.4c7.9-11.3,9-20.8,8.6-26.8c-0.4-6.5-2.8-10.4-2.8-10.4l0.6-0.4
								c0.1,0.2,2.4,4,2.9,10.7c0.3,3.9-0.2,7.9-1.3,12C1760.8,235.5,1758.3,240.6,1754.7,245.7z"/>
						</g>
						<g>
							<g>
								<path class="st41" d="M1719.7,280.3c-1.2-1-2.8-2.6-4.7-5.1c-2.2-3-3.5-5.5-4.2-7c-1.2,0.9-2.3,1.8-3.3,2.6v0
									c-1.1-0.7-2.3-1.3-3.1-1.3c-1.6,0-3.2,0.2-3.8,1.4l-0.2,1.2c0,0.2,0.1,0.3,0.2,0.5c0,0,0,0,0,0c0.4,0.6,1.1,1.3,1.8,2
									c-2.2,1.5-3.5,2.3-3.5,2.3s-1.1,2.1,3.2,8.8c1.3,2.1,2.8,3.3,4,4c1.7,0.9,3.8,0.6,5.3-0.7c1.9-1.7,5.1-4.6,9.1-8.2
									C1720.1,280.6,1719.9,280.5,1719.7,280.3z M1719.2,280.3c0.1,0,0.3,0.1,0.4,0.1c0,0,0,0,0,0
									C1719.5,280.3,1719.3,280.3,1719.2,280.3z"/>
							</g>
						</g>
						<g>
							<path class="st28" d="M1699.9,272.1c0-0.1,0-0.1,0-0.2c0-0.1,0-0.2,0-0.2c0-0.1,0-0.1,0-0.2c0-0.3,0.1-0.5,0.2-0.7
								c0-0.1,0.1-0.1,0.1-0.2l0.6,0.4c0,0,0,0.1-0.1,0.1c-0.1,0.2-0.1,0.4-0.2,0.6c0,0,0,0,0,0.1c0,0,0,0.1,0,0.1c0,0,0,0.1,0,0.1
								L1699.9,272.1z"/>
						</g>
						<g>
							<path class="st39" d="M1726.6,277.1l-4.2,3.8l-0.5,0.5c-0.2,0.2-0.5,0.2-0.7,0.1c-0.2-0.1-0.5-0.3-0.9-0.6
								c-0.2-0.1-0.4-0.3-0.6-0.5c-1.2-1-2.8-2.6-4.7-5.1c-2.2-3-3.5-5.5-4.2-7c0-0.1-0.1-0.2-0.1-0.2c-0.2-0.4-0.3-0.7-0.4-1
								c-0.1-0.2,0-0.5,0.2-0.7l4.9-4.3c0.3-0.3,0.8-0.2,0.9,0.2c0.1,0.2,0.3,0.5,0.4,0.9c0.9,1.8,2.4,4.8,3.8,6.8
								c0.3,0.5,0.7,1,1.1,1.4c1.4,1.6,3.2,3.3,4.3,4.3c0.3,0.2,0.5,0.4,0.7,0.6C1726.9,276.4,1726.9,276.9,1726.6,277.1z"/>
							<path class="st28" d="M1721.5,281.9c-0.2,0-0.3,0-0.5-0.1c-0.3-0.2-0.6-0.4-0.9-0.7c-0.2-0.2-0.4-0.3-0.6-0.5
								c-1.6-1.3-3.2-3.1-4.7-5.1c-2.2-3-3.5-5.5-4.3-7.1l0-0.1c0,0,0-0.1-0.1-0.1c-0.2-0.3-0.3-0.7-0.4-1c-0.1-0.4,0-0.8,0.3-1.1
								l4.9-4.3c0.2-0.2,0.5-0.3,0.8-0.2c0.3,0.1,0.5,0.2,0.7,0.5c0.1,0.2,0.3,0.5,0.4,0.9c0.8,1.6,2.4,4.7,3.8,6.7
								c0.3,0.4,0.6,0.9,1.1,1.4c1.4,1.6,3.1,3.2,4.3,4.3c0.3,0.2,0.5,0.4,0.7,0.6l0,0c0.2,0.2,0.3,0.4,0.3,0.7
								c0,0.3-0.1,0.5-0.3,0.7l0,0l-4.7,4.2C1722,281.8,1721.8,281.9,1721.5,281.9z M1715.7,262.2c0,0-0.1,0-0.2,0.1l-4.9,4.3
								c-0.1,0.1-0.1,0.2-0.1,0.3c0.1,0.3,0.2,0.6,0.4,0.9c0,0,0,0.1,0.1,0.1l0.1,0.1c0.7,1.5,2,4,4.2,7c1.9,2.5,3.5,4.1,4.6,5
								c0.2,0.2,0.4,0.3,0.6,0.5c0.4,0.3,0.7,0.5,0.9,0.6c0.1,0.1,0.2,0,0.3,0l4.7-4.2c0.1-0.1,0.1-0.1,0.1-0.2c0,0,0-0.1-0.1-0.2
								l0,0c-0.2-0.2-0.4-0.4-0.7-0.6c-1.2-1.1-3-2.7-4.4-4.3c-0.4-0.5-0.8-1-1.1-1.5c-1.4-2.1-3-5.1-3.8-6.8
								c-0.2-0.3-0.3-0.6-0.4-0.9C1715.9,262.3,1715.8,262.3,1715.7,262.2C1715.8,262.2,1715.8,262.2,1715.7,262.2z"/>
						</g>
					</g>
					<g>
						<path class="st28" d="M1702.9,243.4l-0.6-0.2c-2.4-0.8-4.4-1.7-5.9-2.5l-0.2-0.1l0-0.2c-0.6-3.5-0.8-7.1-0.9-9.5l0-0.8
							l0.6,0.5c0.2,0.2,2.5,1.9,7.8,3.7l0.4,0.1l-0.2,0.4c-0.5,1.1-0.9,2.4-1.1,3.9l0,0c-0.2,1.5-0.2,2.9,0,4.1L1702.9,243.4z
							 M1696.9,240.1c1.3,0.7,3,1.5,5.1,2.2c-0.1-1.2-0.1-2.4,0.1-3.8l0,0c0.2-1.3,0.5-2.6,1-3.7c-3.8-1.3-6-2.6-7-3.2
							C1696.2,233.9,1696.4,237,1696.9,240.1z"/>
					</g>
					<g>
						<path class="st28" d="M1728.2,248.1l-0.4,0c-1.7-0.1-3.3-0.2-4.9-0.4l-0.6-0.1l0.3-0.5c0.8-1.3,1.4-2.8,1.7-4.6
							c0.3-1.4,0.4-2.8,0.4-4l0-0.4l0.4,0c1.2,0.1,2.2,0.2,3.2,0.3l0.4,0L1728.2,248.1z M1723.5,247.1c1.3,0.1,2.6,0.2,4,0.3
							l0.5-8.2c-0.8-0.1-1.6-0.1-2.5-0.2c0,1.1-0.1,2.4-0.4,3.7C1724.8,244.4,1724.3,245.8,1723.5,247.1z"/>
					</g>
					<g>
						<path class="st28" d="M1732.9,243.8l0.6-4.9l0.6,0c0.2,0,0.5,0,0.7,0c0,0,0.1,0,0.1,0l0.5,0l-0.2,0.5c-0.5,1-0.9,1.8-1.3,2.6
							L1732.9,243.8z M1734.1,239.6l0,0.3c0.1-0.1,0.1-0.2,0.2-0.3C1734.2,239.6,1734.1,239.6,1734.1,239.6z"/>
					</g>
					<g>
						<path class="st28" d="M1713.9,252c-1.1,0-1.9-0.1-2-0.1c-0.2,0-2.2-0.3-4.4-1.5c-3-1.6-4.9-4.2-5.4-7.4
							c-0.2-1.3-0.2-2.8,0-4.4c0.2-1.5,0.6-2.9,1.2-4.1c1.8-3.8,5-5.4,7.3-6c2.5-0.7,4.6-0.5,4.7-0.5l0,0l0.3,0.1
							c3.4,0.7,9.7,2,9.8,10.5c0,1.2-0.1,2.6-0.4,4.1l0,0c-0.3,1.9-1,3.5-1.9,4.9c-1.6,2.3-4,3.8-7.1,4.3
							C1715.3,251.9,1714.5,252,1713.9,252z M1714.4,228.7c-0.8,0-2.2,0.1-3.7,0.5c-3.2,0.9-5.5,2.8-6.8,5.6
							c-0.5,1.1-0.9,2.4-1.1,3.9c-0.2,1.5-0.2,2.9,0,4.1c1.2,7.2,9.2,8.3,9.2,8.3l0,0c0.1,0,7.1,1.2,10.6-4c0.8-1.3,1.4-2.8,1.8-4.6
							l0,0c0.3-1.4,0.4-2.8,0.4-4c-0.1-8-5.8-9.1-9.2-9.8l-0.3-0.1C1715.1,228.7,1714.8,228.7,1714.4,228.7z"/>
					</g>
					<g>
						<path class="st39" d="M1733.8,239.1l0,0.1l-0.3,2.5v0l0,0.2c-0.9,1.7-2,3.7-3.4,6c-0.3,0.5-0.7,1.1-1,1.7
							c-0.8-0.1-1.3-0.7-1.3-1.5l0-0.3l0.5-8.9l0-0.2c0-0.8,0.7-1.4,1.5-1.3l2.7,0.2C1733.3,237.6,1733.9,238.3,1733.8,239.1z"/>
						<path class="st28" d="M1729.3,249.9l-0.2,0c-1-0.1-1.7-0.9-1.6-1.9l0-0.3l0.5-9.1c0-0.5,0.2-0.9,0.6-1.2
							c0.4-0.3,0.8-0.5,1.3-0.4l2.7,0.2c0.5,0,0.9,0.3,1.2,0.6c0.3,0.4,0.4,0.8,0.4,1.3l0,0.1l-0.3,2.7l0,0.1c-1,2-2.1,4-3.4,6
							c-0.3,0.5-0.6,1-1,1.7L1729.3,249.9z M1729.7,237.7c-0.3,0-0.5,0.1-0.7,0.3c-0.2,0.2-0.3,0.4-0.4,0.7l0,0.2l-0.5,9.1
							c0,0.5,0.3,0.9,0.8,1.1c0.3-0.5,0.6-1,0.9-1.5c1.2-2,2.3-3.9,3.3-5.9l0.3-2.7c0-0.3-0.1-0.6-0.2-0.8c-0.2-0.2-0.4-0.3-0.7-0.4
							L1729.7,237.7C1729.8,237.7,1729.8,237.7,1729.7,237.7z"/>
					</g>
					<g>
						<path class="st28" d="M1732.9,243.7l0.6-5c0.1-0.8,0.8-1.4,1.6-1.4c0,0,0,0,0,0l1,0l-0.3,0.5c-0.3,0.5-0.5,1.1-0.8,1.6
							c-0.4,0.9-0.8,1.7-1.2,2.4L1732.9,243.7z M1734.9,238c-0.4,0.1-0.7,0.4-0.7,0.8l-0.1,0.9c0.1-0.2,0.2-0.4,0.3-0.6
							C1734.6,238.7,1734.8,238.4,1734.9,238z"/>
					</g>
					<g>
						<path class="st39" d="M1697.8,130.1l-5,10.1c-0.6,1.2-2.1,1.8-3.3,1.2l-1.3-0.8l-1.7,2.2c-0.7,0.9-1.9,1.1-2.8,0.4l-3.3-2.5
							c-0.7-0.5-0.9-1.4-0.4-2.2l1.2-2.1l-3.1-1.8l-6.4-2.4l0.6-1.2l-0.9-0.6c-0.4,0.9-0.7,1.4-0.7,1.4c-23.4-11-36.4-4.4-36.4-4.4
							l-4.7,2.2c4.9,10.5,9.4,20.1,9.4,20.1s5.2,9.3-2.1,14.4l2.4,5.2c1.7-0.6,3.6,0.2,4.4,1.9l2.6,5.6c0.7,1.6,0.3,3.4-1.1,4.4
							c0,0,0,0-0.1,0l15.3,36.6c1.2,1.4,17.7,26.6,17.7,26.6s0,0,0,0l0,0l0,0l14.5,16.1c1.1,1.4,2.1,2.7,2.8,3.8
							c3.2,5.4,2.8,8.9-6.3,14.6c-9.1,5.7-12.7-1.9-12.7-1.9l-1.2-2l-12.3-20.3c0,0-16.4-13.7-21.9-17.7c-5.5-4-7.3-9.9-7.3-9.9
							l-8.2-17.5l-7.8,30.9l18.1,27.8l5.8,7.6l2.5,3.2c0,0-0.8,15.7-6.9,22.8c-5.1,5.9-12.6,5.7-12.6,5.7l-3.9-5.9
							c-0.3-0.3-0.5-0.7-0.8-1.2c-3.2-6.2,2-12.4,2-12.4c0.3-1.7,0.8-10.9,0.8-10.9c-0.6,0.1-0.9,0-0.9,0s-25.6-21.9-29.2-28.8
							c-3.6-6.8-1.1-30.5-1.2-32.3c0-1.3-1.3-5.2-2-7.4c-1.6,0.2-3.1-0.6-3.8-2l-3.1-6.6c-0.7-1.6-0.2-3.3,1-4.4l-8.6-19l-7.8-16.7
							c0,0-3.4-8.5-3.1-14.1l0,0c-0.2,0-0.4-0.1-0.7-0.2l0.4,0.3c-0.3,5.6,3.1,14.1,3.1,14.1l7.8,16.7c-4.1,1.5-6.7,0.1-13.4-13.8
							c-1-2.1-1.8-4-2.4-5.8c-0.7,0.4-10.6,5.8-15.7,9.9c-5.3,4.3-14.5,19.2-14.5,19.2l1.9,0.7c1.1,0.4,1.7,1.6,1.4,2.7l-1.1,4.3
							c-0.1,0.5-0.6,0.8-1.1,0.8l-0.8,0c0,0,0.7,1.6-0.7,2.9c-1.4,1.3-6,0.7-6,0.7s-10.6-3.7-10-8.4c0.7-5.8,5-12.3,5-12.3
							c-0.5-1-0.7-1.7-0.7-1.7l2-3.5c3.1-5,6.4-9.5,9.7-13.3c2.4-2.8,4.9-5.4,7.2-7.6c11-10.5,20.2-14.5,20.2-14.5
							c-0.8-3.4-0.1-6.3,0.8-8.3c0.3-0.7,0.6-1.3,1-1.9l-5.7-12.1c-2.4,1-5.1,0-6.2-2.4l-5-10.6c-1.3-2.8-0.1-6.2,2.7-7.6
							c-0.8-7.6,3.2-15.2,10.6-18.6c9.2-4.3,20.2-0.2,24.6,9.1l0.3,0.6l1.5-0.7c1.9-0.9,4.2-0.1,5.1,1.8l2.9,6.1
							c1.2,2.5,0.1,5.5-2.4,6.7c-0.1,0.1-0.3,0.1-0.5,0.2l3.1,6.5c4.3-0.2,7.6,0.7,10,2.7l2.8,4c0.1,0.2,0.2,0.5,0.3,0.7l0.3,0
							l-0.5-0.7c-0.6-1.6-1.6-2.9-2.8-4l11-3.2c0,0,5.3-3,10.9,5.3c7.6-2.5,18.8-5.4,27.6-4.5c14.6,1.5,29,9.7,29.2,10.1
							c0,0.1-0.1,0.4-0.3,1l1.1,0.6l0.5-0.9c0.2,0.1,5.1,3,5.1,3l12.4,5C1697.8,126.4,1698.6,128.4,1697.8,130.1z"/>
					</g>
					<g>
						<path class="st28" d="M1565.9,137.5c-4.1,0-5.9-3.8-5.9-3.9l-8.5-18.1l0.3-0.1c0.1,0,0.1,0,0.2-0.1l19.8-9.3
							c2.7-1.3,3.8-4.5,2.6-7.1l-4.7-10c-1.2-2.6-4.3-3.7-6.8-2.5l-19.7,9.3l-0.1-0.5c-0.8-8,3.5-15.6,10.8-19
							c9.4-4.4,20.6-0.2,25,9.2l0.4,0.9l-0.5,0.3c-1.4,0.7-2,2.3-1.3,3.7l3.7,7.8c0.7,1.6,2.6,2.4,4.2,1.8l0.3-0.1l7.1,15.1
							l-3.9,2.7c-2.1,2-3.1,5.8-2.4,9.2c0.2,0.8,0.4,1.3,0.4,1.3l0.1,0.3l-0.3,0.2c-0.1,0.1-11.2,5.4-17.3,8.1
							C1568,137.2,1566.9,137.5,1565.9,137.5z M1552.4,115.8l8.2,17.5c0.1,0.2,2.6,5.3,8.4,2.7c5.5-2.5,15.2-7.1,17-8
							c-0.1-0.3-0.2-0.6-0.3-1.1c-0.8-3.6,0.3-7.7,2.7-9.9l0,0l3.4-2.3l-6.6-14c-1.9,0.5-3.9-0.5-4.8-2.3l-3.7-7.8
							c-0.8-1.7-0.1-3.7,1.6-4.6l-0.1-0.2c-4.3-9.1-15.1-13.1-24.1-8.9c-6.8,3.2-11,10.3-10.4,17.7l18.8-8.8
							c2.9-1.4,6.4-0.1,7.8,2.8l4.7,10c0.7,1.5,0.8,3.1,0.2,4.6c-0.5,1.5-1.7,2.7-3.1,3.4L1552.4,115.8z"/>
					</g>
					<g>
						<path class="st28" d="M1569.9,88.7l4.7,10c1.3,2.9,0.1,6.3-2.7,7.6l-19.8,9.3c-0.1,0-0.1,0.1-0.2,0.1c-2.4,1-5.1,0-6.2-2.4
							l-5-10.6c-1.3-2.8-0.1-6.2,2.7-7.6l19.2-9C1565.4,84.7,1568.6,85.9,1569.9,88.7z"/>
					</g>
					<g>
						<path class="st28" d="M1550,116.4c-1.9,0-3.8-1.1-4.7-3l-5-10.6c-1.4-3-0.1-6.6,2.9-8.1l19.2-9c2.9-1.4,6.4-0.1,7.8,2.8
							l4.7,10c0.7,1.5,0.8,3.1,0.2,4.6c-0.5,1.5-1.7,2.7-3.1,3.4l-19.8,9.3c-0.1,0-0.1,0.1-0.2,0.1
							C1551.4,116.3,1550.7,116.4,1550,116.4z M1564.9,85.9c-0.7,0-1.5,0.2-2.2,0.5l-19.2,9c-2.6,1.3-3.8,4.5-2.5,7.1l5,10.6
							c1,2.2,3.6,3.2,5.8,2.2c0.1,0,0.1,0,0.2-0.1l19.8-9.3c1.3-0.6,2.3-1.7,2.8-3c0.5-1.3,0.4-2.8-0.2-4.1l-4.7-10
							C1568.7,87,1566.9,85.9,1564.9,85.9z"/>
					</g>
					<g>
						<path class="st28" d="M1584.3,100.8c-1.6,0-3.1-0.9-3.8-2.4l-3.7-7.8c-0.8-1.7-0.1-3.8,1.7-4.6l1.7-0.8c2.1-1,4.6-0.1,5.6,2
							l2.9,6.1c0.6,1.3,0.7,2.8,0.2,4.1c-0.5,1.4-1.5,2.4-2.8,3.1c-0.2,0.1-0.3,0.1-0.5,0.2C1585.1,100.7,1584.7,100.8,1584.3,100.8
							z M1581.9,85.4c-0.5,0-1,0.1-1.5,0.3l-1.7,0.8c-1.4,0.7-2,2.3-1.3,3.7l3.7,7.8c0.7,1.6,2.6,2.4,4.2,1.8c0.1,0,0.3-0.1,0.4-0.2
							c1.1-0.5,2-1.5,2.4-2.6c0.4-1.2,0.4-2.4-0.2-3.6l-2.9-6.1c-0.4-0.8-1.1-1.5-2-1.8C1582.7,85.4,1582.3,85.4,1581.9,85.4z"/>
					</g>
					<g>
						<path class="st28" d="M1529,187.3l-0.3-0.1c0,0-2.8-1.2-6.9-3.4c-2.5-1.4-4-3.6-4.8-5.2c-0.5-1-0.7-1.8-0.7-1.8l0-0.1l2.1-3.6
							c2.9-4.7,6.2-9.2,9.8-13.3l0.5,0.5c-3.5,4.1-6.8,8.6-9.7,13.2l-1.9,3.3c0.1,0.2,0.3,0.8,0.6,1.5c0.7,1.5,2.1,3.6,4.5,4.9
							c3.3,1.8,5.7,2.9,6.5,3.3c1.3-2.1,9.5-15,14.5-19c5.1-4.1,14.7-9.3,15.7-9.9l0,0l0.4,0.6c0,0,0,0-0.1,0
							c-0.4,0.2-10.5,5.7-15.6,9.9c-5.2,4.2-14.4,18.9-14.5,19.1L1529,187.3z"/>
					</g>
					<g>
						<path class="st28" d="M1535.9,152.7l-0.5-0.5c10.9-10.4,20.2-14.5,20.3-14.5l0.3,0.7C1555.9,138.3,1546.7,142.4,1535.9,152.7z
							"/>
					</g>
					<g>
						<path class="st28" d="M1572.6,178.2c-3.2,0-6.1-3.3-11.4-14.5c-0.9-2-1.7-3.9-2.4-5.8c-2.7-8.2-1.8-13.6-1.3-15.6l0.2-0.8
							l0.4,0.6c1.1,1.6,2.6,2.7,4.6,3.5c0.3,0.1,0.6,0.2,0.9,0.3l0.1,0l0.6,0.5l0,0.2c-0.3,5.4,3,13.6,3.1,13.9l8,17l-0.4,0.1
							C1574.1,178.1,1573.3,178.2,1572.6,178.2z M1557.9,143.3c-0.5,2.3-0.9,7.3,1.5,14.4c0.6,1.9,1.4,3.8,2.3,5.8
							c6.5,13.6,9.1,14.9,12.5,13.7l-7.7-16.3c-0.1-0.3-3.4-8.5-3.2-14.1l-0.2-0.1c-0.3-0.1-0.6-0.2-0.9-0.3
							C1560.6,145.7,1559.1,144.7,1557.9,143.3z"/>
					</g>
					<g>
						
							<rect x="1637.7" y="164" transform="matrix(0.9064 -0.4225 0.4225 0.9064 82.8504 707.702)" class="st28" width="0.7" height="5.8"/>
					</g>
					<g>
						<path class="st28" d="M1670.7,132.5l-0.3-0.2c-12-5.7-21.2-6.6-26.8-6.3c-6,0.3-9.2,1.9-9.2,1.9l-4.7,2.2l-0.3-0.6l4.7-2.2
							c0.1-0.1,3.4-1.7,9.5-2c5.6-0.2,14.8,0.6,26.8,6.2c0.1-0.2,0.3-0.6,0.5-1.1l0.1-0.1c1.7-3.6,4.6-9.9,5.6-12.3l0,0
							c0.2-0.4,0.2-0.6,0.3-0.7c-1.5-1-15-8.4-28.8-9.9c-8.6-0.9-19.7,1.9-27.5,4.5l-0.2-0.7c7.8-2.6,19-5.4,27.8-4.5
							c7.7,0.8,15.2,3.4,20.1,5.5c3,1.2,5.2,2.4,6.6,3.1c2.6,1.4,2.7,1.6,2.7,1.7c0.1,0.2,0.1,0.3-0.3,1.3l0,0
							c-1,2.5-3.9,8.8-5.6,12.4l-0.1,0.1c-0.4,0.9-0.7,1.4-0.7,1.4L1670.7,132.5z M1676.9,117.1L1676.9,117.1L1676.9,117.1z"/>
					</g>
					<g>
						
							<rect x="1601.1" y="114.1" transform="matrix(4.555526e-02 -0.999 0.999 4.555526e-02 1414.4279 1708.7385)" class="st28" width="0.7" height="0.2"/>
					</g>
					<g>
						<path class="st28" d="M1566.8,160.4c-0.6-1.4-3.3-8.8-3-13.9l0.7,0c-0.3,4.9,2.4,12.2,3,13.6L1566.8,160.4z"/>
					</g>
					<g>
						<polygon class="st28" points="1583.3,196.4 1574.8,177.4 1570,167.4 1570.7,167.1 1575.4,177.1 1584,196.1 						"/>
					</g>
					<g>
						<path class="st28" d="M1622.4,278.1c-0.3,0-0.5,0-0.5-0.1l-0.1,0l-0.1,0c-1-0.9-25.7-22-29.3-28.9c-3.1-5.9-1.8-23.5-1.3-30.1
							c0.1-1.2,0.1-2,0.1-2.3c0-0.9-0.7-3.6-2-7.3l-0.1-0.4l0.4-0.1c0.1,0,0.2,0,0.3-0.1c4.9-1.3,17.3-4.8,27.6-10
							c10.5-5.3,22.7-14.1,27.5-17.6l0.4-0.3l15.5,37c1.5,1.8,17,25.6,17.7,26.6l0.1,0.2l-0.1,0.2c-0.1,0.1-1.8,3.1-6.3,6.7
							c-4.6,3.6-8.9,3.8-9.1,3.8l-0.1,0l-0.1-0.1c-0.2-0.1-16.5-13.8-21.9-17.7c-5.4-3.9-7.3-9.6-7.4-10l-7.8-16.5l-7.5,29.8
							l18.1,27.8l-0.1,0.2c0,0.1-1.2,2.6-6.7,6.2c-3.4,2.2-5.5,2.9-6.7,3C1622.7,278.1,1622.5,278.1,1622.4,278.1z M1622.1,277.4
							c0.1,0,0.3,0,0.7,0c1.1-0.1,3.1-0.8,6.4-2.9c4.5-2.9,6-5.1,6.3-5.7l-18.1-27.8l8.1-32l8.7,18.4c0,0.1,1.8,5.8,7.2,9.7
							c5.2,3.8,20.4,16.4,21.9,17.7c0.8-0.1,4.6-0.6,8.6-3.7c3.8-2.9,5.5-5.6,6-6.3c-1.5-2.3-16.4-25.1-17.6-26.4l0,0l0-0.1
							l-15.2-36.2c-5,3.7-17,12.2-27.3,17.4c-10,5-21.7,8.4-27.7,10c0,0,0,0,0,0c0.9,2.7,1.9,5.9,1.9,7.1c0,0.3-0.1,1.1-0.1,2.4
							c-0.5,6.6-1.8,24.1,1.3,29.7C1596.5,255.3,1620.6,276.1,1622.1,277.4z"/>
					</g>
					<g>
						<path class="st28" d="M1568.1,147.3c-1.7,0-3.3-0.2-4.7-0.6c-0.3-0.1-0.7-0.2-1-0.3c-2.1-0.8-3.8-2-5-3.7
							c-0.3-0.5-0.6-1-0.9-1.6c-0.5-1-0.8-2.1-1.1-3.1c-0.8-3.6,0-6.6,0.8-8.5c0.3-0.6,0.6-1.3,1-1.9l0.3-0.6l2.3,4.9l0,0.1
							c-0.8,2.4-0.6,4.8,0.6,7.3c0.7,1.5,1.8,2.5,3.4,3.1c5.2,1.9,13.7-0.6,19.4-3.3c3.6-1.7,15.2-8,15.1-19.7
							c0-3.2-0.9-5.5-2.4-6.9c-1.3-1.1-3.3-1.7-5.8-1.8l-0.2,0l-2-4.2l0.5,0c4.4-0.3,7.8,0.7,10.2,2.8c1.4,1.2,2.5,2.9,3.1,4.9l0,0
							c0.5,1.5,0.8,3.3,0.8,5.2c0,5.3-1.8,10.2-5.5,14.6c-3,3.6-7.2,6.7-12,9C1580.3,145.2,1573.8,147.3,1568.1,147.3z
							 M1557.6,128.5c-0.2,0.4-0.4,0.8-0.6,1.2c-0.8,1.8-1.5,4.7-0.7,8.1c0.2,1,0.6,2,1,2.9c0.2,0.5,0.5,1,0.8,1.5
							c1.1,1.6,2.6,2.7,4.6,3.5c0.3,0.1,0.6,0.2,0.9,0.3c6.2,1.7,15-0.8,21.3-3.7c4.8-2.2,8.9-5.3,11.8-8.8c3.6-4.3,5.3-9,5.3-14.2
							c0-1.9-0.3-3.5-0.7-5l0,0c-0.6-1.9-1.6-3.4-2.9-4.5c-2.2-1.9-5.3-2.8-9.2-2.6l1.3,2.8c2.6,0.1,4.6,0.7,6,2
							c1.8,1.5,2.7,4,2.7,7.4c0.1,12.1-11.8,18.7-15.5,20.4c-5.9,2.8-14.6,5.3-20,3.3c-1.8-0.7-3.1-1.8-3.8-3.4
							c-1.2-2.6-1.4-5.1-0.6-7.6L1557.6,128.5z"/>
					</g>
					<g>
						<path class="st28" d="M1627.7,151c-0.2,0-0.3,0-0.5,0c-3.5-0.5-6.9-2.1-10.1-4.7c-1.7-1.4-3.3-3-4.9-5
							c-0.6-0.8-1.3-1.6-1.9-2.5c-7.2-10.5-6.5-19.6-5.4-24.1c0-0.2,0.1-0.4,0.2-0.6c0.7-1.7,2.3-2.7,4.1-2.6c1.6,0.1,3,1.1,3.6,2.6
							c0.2,0.6,0.3,1.2,0.3,1.8c-0.3,5.1-0.2,14.5,4,20.5c3.7,5.4,7.6,6.8,10.2,7c0.1,0,0.2,0,0.3,0c1.4,0.1,2.5,1,3,2.3l0,0
							l0.3,0.8c0.4,1.2,0.2,2.4-0.6,3.3C1629.6,150.6,1628.7,151,1627.7,151z M1609,112.3c-1.4,0-2.7,0.8-3.2,2.2
							c-0.1,0.2-0.1,0.3-0.1,0.5c-1,4.4-1.7,13.2,5.3,23.5c0.6,0.9,1.2,1.7,1.8,2.5c1.5,1.9,3.1,3.5,4.7,4.8c3.1,2.5,6.4,4,9.7,4.5
							c0.9,0.1,1.8-0.2,2.4-0.9c0.6-0.7,0.8-1.7,0.5-2.6l-0.3-0.8c-0.4-1-1.3-1.7-2.4-1.8c-0.1,0-0.2,0-0.3,0
							c-2.8-0.3-6.8-1.7-10.7-7.3c-4.3-6.2-4.4-15.8-4.1-21c0-0.5,0-1-0.2-1.5c-0.5-1.2-1.6-2.1-3-2.2
							C1609.2,112.3,1609.1,112.3,1609,112.3z"/>
					</g>
					<g>
						<path class="st28" d="M1624.7,304.1c-0.5,0-1.1-0.1-1.6-0.2c-1.5-0.4-2.6-1.3-3.4-2.8c-1.4-2.6-1.4-5.7-0.2-8.8
							c0.8-2.1,1.9-3.6,2.2-3.9c0.3-1.9,0.8-10.7,0.8-10.8l0.7,0c0,0.4-0.5,9.2-0.8,10.9l0,0.1l-0.1,0.1c-0.1,0.1-5,6.1-2,12.1
							c0.7,1.3,1.6,2.1,2.9,2.4c3.7,0.9,8.9-2.5,8.9-2.6l0.1-0.1l0.1,0c0,0,5-0.5,7-15.9l0,0l2-8.2l-5.7-7.5l0.6-0.4l5.9,7.8
							l-2.1,8.6c-2,15-6.8,16.4-7.6,16.5C1631.9,301.7,1628.2,304.1,1624.7,304.1z"/>
					</g>
					<g>
						<path class="st28" d="M1624.8,308.4C1624.8,308.4,1624.8,308.4,1624.8,308.4l-0.2,0l-4-6l0.6-0.4l3.8,5.7
							c1.2,0,7.7-0.4,12.1-5.6c5.7-6.6,6.8-20.9,6.9-22.5l-2.4-3.1l0.6-0.4l2.6,3.3l0,0.1c0,0.6-0.9,15.9-7,23
							C1632.7,308.3,1625.4,308.4,1624.8,308.4z"/>
					</g>
					<g>
						<path class="st28" d="M1692.4,261.1c-0.1-0.2-0.3-0.5-0.4-0.7c-3.2-5.3-13.9-15.2-14-15.3l0.5-0.5c0.4,0.4,11,10.1,14.2,15.5
							c0.2,0.3,0.3,0.5,0.4,0.8L1692.4,261.1z"/>
					</g>
					<g>
						<path class="st28" d="M1675.2,275.7c-1.4-1.1-2.1-2.5-2.2-2.6l-10.2-17.8l0.6-0.4l10.2,17.8l0,0c0,0,0.6,1.3,2,2.4
							L1675.2,275.7z"/>
					</g>
					<g>
						<path class="st28" d="M1683,281.8c-0.7,0-1.4-0.1-2.1-0.3c-3.1-0.9-4.5-3.7-4.6-3.9l-2.1-3.6l1.5,1.2
							c1.8,1.5,5.1,2.5,10.2-0.6c8.8-5.5,9.1-8.8,6.6-13.4l0.6-0.4c1.2,1.5,2.2,2.8,2.8,3.8c1.9,3.1,2.3,5.3,1.5,7.5
							c-0.9,2.4-3.3,4.7-7.9,7.6l-0.2-0.3l0.2,0.3C1687.1,281.1,1685,281.8,1683,281.8z M1676.4,276.5l0.4,0.8c0,0,1.3,2.7,4.2,3.5
							c2.3,0.7,5,0.1,8-1.8l0,0c9.1-5.7,9.2-9.1,6.2-14.1c-0.3-0.5-0.7-1-1.1-1.6c1.3,4.2-1.1,7.5-8,11.8
							C1681.8,277.9,1678.6,277.6,1676.4,276.5z"/>
					</g>
					<g>
						<path class="st28" d="M1589,209.6c-1.5,0-2.9-0.9-3.6-2.3l-3.1-6.6c-0.8-1.7-0.3-3.6,1.1-4.8c0.4-0.3,0.8-0.6,1.3-0.7
							c4.8-1.5,14.7-4.8,27.9-10.5c12.3-5.3,20.5-11.1,25.3-14.9c0.4-0.3,0.8-0.5,1.2-0.7c1.9-0.6,4,0.2,4.9,2.1l2.6,5.6
							c0.8,1.7,0.3,3.8-1.2,4.9l-0.1,0c-4.8,3.5-17.1,12.4-27.6,17.6c-10,5-21.7,8.4-27.7,10c-0.1,0-0.3,0.1-0.4,0.1
							C1589.4,209.6,1589.2,209.6,1589,209.6z M1640.4,169.7c-0.3,0-0.7,0.1-1,0.2c-0.4,0.1-0.7,0.3-1,0.6
							c-4.8,3.9-13.1,9.7-25.5,15c-13.2,5.7-23.1,9-27.9,10.5c-0.4,0.1-0.8,0.3-1.1,0.6c-1.2,0.9-1.6,2.6-0.9,3.9l3.1,6.6
							c0.6,1.3,2,2,3.4,1.8c0.1,0,0.2,0,0.4-0.1c4.9-1.3,17.3-4.8,27.6-10c10.5-5.3,22.7-14.1,27.5-17.6l0,0c1.3-0.9,1.7-2.6,1-4
							l-2.6-5.6C1642.8,170.4,1641.7,169.7,1640.4,169.7z"/>
					</g>
					<g>
						<path class="st28" d="M1612.4,114.8l-0.1-0.3c-0.5-1.2-1.6-2.1-3-2.2c-1.5-0.1-2.9,0.8-3.4,2.1l-0.1,0.2l-4.5-0.2l-0.1-0.2
							c-0.6-1.9-1.6-3.4-2.9-4.5l-0.5-0.4l11.6-3.4c0.3-0.1,1.6-0.8,3.5-0.5c1.9,0.3,4.8,1.5,7.8,5.9l0.3,0.4l-0.5,0.1
							c-3.9,1.3-6.8,2.4-7.8,2.8L1612.4,114.8z M1601.8,113.8l3.5,0.2c0.7-1.5,2.3-2.5,4-2.4c1.5,0.1,2.8,1,3.4,2.3
							c1.2-0.5,3.8-1.5,7.1-2.6c-2.2-3.1-4.6-4.9-7-5.2c-1.9-0.3-3.1,0.4-3.2,0.4l0,0l0,0l-10.4,3.1
							C1600.4,110.8,1601.2,112.2,1601.8,113.8z"/>
					</g>
					<g>
						<path class="st28" d="M1636.7,164.9l-7.1-15.3l0.2-0.2c0.6-0.7,0.8-1.7,0.5-2.6l-0.3-0.8c-0.4-1-1.3-1.7-2.4-1.8
							c-0.1,0-0.2,0-0.3,0l-0.2,0l-5.2-11.2l7.8-3.7l9.6,20.4c0.1,0.2,1.3,2.5,1.7,5.4c0.5,4-0.8,7.3-3.9,9.4L1636.7,164.9z
							 M1630.4,149.7l6.6,14.1c2.7-2,3.8-4.9,3.3-8.5c-0.4-2.9-1.6-5.2-1.6-5.2l0,0l-9.3-19.7l-6.5,3.1l4.7,10.2c0,0,0.1,0,0.1,0
							c1.4,0.1,2.5,1,3,2.3l0.3,0.8C1631.3,147.7,1631.1,148.8,1630.4,149.7z"/>
					</g>
					<g>
						<path class="st26" d="M1536.2,155.7l-1.2,1.2l0.3,1.7c0.1,0.7-0.5,1.4-1.2,1.2l-1.3-0.3l-2,1.4c-0.5,0.3-1.2,0.3-1.6-0.1
							l-0.7-0.6l-0.3-0.3c-0.3-0.3-0.3-0.7,0-0.9l6.5-6.5c0.3-0.3,0.8-0.2,1,0.1l0,0.1l0.8,1.3
							C1536.8,154.3,1536.7,155.1,1536.2,155.7z"/>
					</g>
					<g>
						<path class="st28" d="M1524.6,199.6c-1.1,0-2-0.1-2.2-0.1l0,0l0,0c-0.4-0.2-10.9-3.8-10.3-8.8c0.7-5.8,4.9-12.2,5.1-12.5
							l0.6,0.4c0,0.1-4.3,6.6-4.9,12.2c-0.5,4.3,9.1,7.8,9.7,8c1.3,0.1,4.6,0.3,5.6-0.7c1.2-1.1,0.7-2.4,0.6-2.5l-0.2-0.5l0.5,0
							l0.8,0c0,0,0,0,0,0c0.3,0,0.6-0.2,0.7-0.6l1.1-4.3c0.2-1-0.3-1.9-1.2-2.3l-1.9-0.7l0.3-0.7l1.9,0.7c1.2,0.5,1.9,1.9,1.6,3.2
							l-1.1,4.3c-0.2,0.6-0.7,1.1-1.4,1.1c0,0,0,0,0,0l-0.4,0c0.1,0.7,0,1.8-0.9,2.8C1527.8,199.5,1526.1,199.6,1524.6,199.6z"/>
					</g>
					<g>
						<path class="st28" d="M1690.4,142.1c-0.4,0-0.8-0.1-1.2-0.3l0,0l-11.4-6.7l-6.7-2.5l7.3-15.3l0.3,0.1c0.2,0.1,3.3,1.9,5.1,3
							l12.4,5c0.9,0.4,1.6,1.2,1.9,2.1c0.3,0.9,0.3,2-0.1,2.9l-5,10.1c-0.3,0.7-0.9,1.2-1.6,1.4
							C1691,142.1,1690.7,142.1,1690.4,142.1z M1689.5,141.2c0.5,0.2,1.1,0.3,1.6,0.1c0.5-0.2,1-0.6,1.2-1.1l5-10.1
							c0.3-0.7,0.4-1.5,0.1-2.3c-0.3-0.8-0.8-1.4-1.5-1.7l-12.5-5l0,0c-1.5-0.9-3.9-2.3-4.7-2.8l-6.6,14l6,2.2l0,0L1689.5,141.2z"/>
					</g>
					<g>
						<path class="st28" d="M1672.2,131.7l-1.4-1l6-13.1l1.8,0.9L1672.2,131.7z M1671.7,130.5l0.3,0.2l5.6-11.8l-0.5-0.3
							L1671.7,130.5z"/>
					</g>
					<g>
						
							<rect x="1672.7" y="127.3" transform="matrix(0.4269 -0.9043 0.9043 0.4269 847.4774 1592.5891)" class="st28" width="15.2" height="0.7"/>
					</g>
					<g>
						<path class="st28" d="M1684.6,144.1c-0.5,0-1-0.2-1.4-0.5l-3.3-2.5c-0.8-0.6-1.1-1.8-0.5-2.6l1.4-2.3l0.6,0.4l-1.4,2.3
							c-0.3,0.6-0.2,1.3,0.3,1.7l3.3,2.5c0.7,0.5,1.8,0.4,2.3-0.3l2.2-2.9l0.6,0.4l-2.2,2.9C1686.1,143.7,1685.4,144.1,1684.6,144.1
							z"/>
					</g>
					<g>
						<path class="st28" d="M1570.1,167.6l-3.2-6.9c0,0,0-0.1-0.1-0.4l-0.2-0.4l0.5,0c1.7-0.2,4.6-0.7,9.1-2l0.4-0.1l0.1,0.4
							c0.2,1.2,0.5,2.5,1,3.8c0.4,1,0.8,2,1.4,2.8l0.2,0.4l-0.4,0.1c-3.3,1-6.1,1.7-8.4,2.2L1570.1,167.6z M1567.6,160.6l2.9,6.2
							c2.1-0.4,4.7-1.1,7.6-2c-0.4-0.8-0.8-1.6-1.2-2.6c-0.5-1.2-0.8-2.4-1-3.6C1572.1,159.9,1569.3,160.4,1567.6,160.6z"/>
					</g>
					<g>
						<path class="st28" d="M1598.9,157.8l-0.1-0.5c-0.2-1.3-0.6-2.6-1.2-3.9c-0.5-1-1.1-1.9-1.7-2.7l-0.3-0.4l0.4-0.2
							c1.3-0.6,2.6-1.3,3.9-2l0.3-0.2l3.4,7.2l-0.3,0.2c-1.4,0.7-2.7,1.5-4.1,2.1L1598.9,157.8z M1596.8,150.6
							c0.5,0.7,1,1.5,1.5,2.4c0.6,1.2,1,2.5,1.2,3.6c1.1-0.5,2.2-1.1,3.3-1.7l-2.8-6C1599,149.5,1597.9,150.1,1596.8,150.6z"/>
					</g>
					<g>
						<polygon class="st28" points="1607.3,153.2 1604.2,145.9 1604.9,145.5 1608.3,152.6 						"/>
					</g>
					<g>
						<path class="st28" d="M1611.2,150.8l-3.1-7.2l0.3-0.2c1.8-1.1,3.2-2,4-2.6l0.3-0.2l0.2,0.3c1.5,1.9,3.1,3.5,4.7,4.8l0.4,0.3
							l-0.4,0.3c-1.3,1-3.3,2.5-6.1,4.3L1611.2,150.8z M1609,143.9l2.5,5.8c2.3-1.5,4.1-2.8,5.3-3.7c-1.5-1.3-2.9-2.7-4.3-4.4
							C1611.7,142.2,1610.5,143,1609,143.9z"/>
					</g>
					<g>
						<path class="st28" d="M1587.3,170.4c-2.6,0-6.3-0.9-8.9-5.1c-0.5-0.9-1-1.9-1.4-3c-0.5-1.4-0.9-2.7-1-4
							c-0.6-4.6,1.3-7.5,3-9.1c1.8-1.7,3.7-2.3,3.9-2.4c0.2-0.1,2.1-0.8,4.7-0.8c0,0,0,0,0,0c2.5,0,6,0.8,8.9,4.3
							c0.6,0.8,1.2,1.7,1.8,2.8c0.7,1.4,1.1,2.8,1.3,4.1v0c0.4,3.2-0.7,6.3-3.2,9c-1.9,2-3.8,3.1-3.9,3.1l0,0
							C1592.4,169.3,1590.2,170.3,1587.3,170.4C1587.4,170.4,1587.3,170.4,1587.3,170.4z M1587.6,146.7c-2.5,0-4.4,0.8-4.4,0.8l0,0
							c0,0-1.9,0.6-3.7,2.3c-2.3,2.2-3.3,5-2.8,8.5c0.2,1.2,0.5,2.5,1,3.8c0.4,1,0.8,2,1.4,2.8c2,3.2,4.8,4.8,8.3,4.8
							c2.6,0,4.7-0.9,4.8-1c0.3-0.2,7.6-4.2,6.7-11.4c-0.2-1.3-0.6-2.6-1.2-3.9c-0.5-1-1.1-1.9-1.7-2.7
							C1593.8,148,1591.1,146.7,1587.6,146.7C1587.7,146.7,1587.6,146.7,1587.6,146.7z"/>
					</g>
					<g>
						<path class="st28" d="M1605,157c-0.2,0-0.4,0-0.5-0.1c-0.5-0.2-0.9-0.5-1.2-1l-4.3-9.1c-0.4-1,0-2.1,0.9-2.5l1.9-0.9
							c0.5-0.2,1-0.2,1.5-0.1c0.5,0.2,0.9,0.6,1.1,1l0,0l3.8,9.1c0.4,0.9,0,1.9-0.8,2.4l-1.4,0.9C1605.7,156.9,1605.3,157,1605,157z
							 M1602.6,143.9c-0.2,0-0.3,0-0.5,0.1l-1.9,0.9c-0.6,0.3-0.9,1-0.6,1.6l4.3,9.1c0.1,0.3,0.4,0.5,0.7,0.6c0.3,0.1,0.7,0.1,1-0.1
							l1.4-0.9c0.5-0.3,0.7-0.9,0.5-1.5l-3.8-9.1c-0.1-0.3-0.4-0.5-0.7-0.6C1602.9,143.9,1602.7,143.9,1602.6,143.9z"/>
					</g>
					<g>
						<path class="st28" d="M1609.6,154.8c-0.2,0-0.4,0-0.6-0.1c-0.4-0.2-0.8-0.5-1-0.9l-4.5-9.6c-0.4-0.8-0.1-1.8,0.8-2.3l1.5-0.8
							c0.4-0.2,0.9-0.2,1.4-0.1c0.4,0.2,0.8,0.5,1,0.9l0,0l4.2,9.8c0.4,0.8,0,1.8-0.8,2.2l-1.2,0.6
							C1610.1,154.7,1609.9,154.8,1609.6,154.8z M1606.6,141.7c-0.2,0-0.3,0-0.5,0.1l-1.5,0.8c-0.5,0.2-0.7,0.8-0.5,1.3l4.5,9.6
							c0.1,0.2,0.3,0.4,0.6,0.5c0.3,0.1,0.5,0.1,0.8,0l1.2-0.6c0.5-0.2,0.7-0.8,0.5-1.3l-4.2-9.8c-0.1-0.3-0.3-0.5-0.6-0.6
							C1606.9,141.7,1606.7,141.7,1606.6,141.7z"/>
					</g>
					<g>
						<g>
							<path class="st28" d="M1595.7,249.1l-0.5-0.5c0.2-0.2,3.9-4.4,9.2-5.7l0.2,0.7C1599.4,244.8,1595.7,249,1595.7,249.1z"/>
						</g>
						<g>
							<path class="st28" d="M1638.1,230.6l-0.6-0.3c0.1-0.2,2.1-3.8,8.8-5.8l0.2,0.7C1640.1,227,1638.1,230.5,1638.1,230.6z"/>
						</g>
						<g>
							
								<rect x="1614.7" y="237.4" transform="matrix(0.2344 -0.9721 0.9721 0.2344 1002.9085 1754.0033)" class="st28" width="0.7" height="5.7"/>
						</g>
						<g>
							
								<rect x="1657.5" y="214.6" transform="matrix(0.3006 -0.9537 0.9537 0.3006 951.9058 1733.3445)" class="st28" width="0.7" height="6.1"/>
						</g>
						<g>
							<path class="st28" d="M1625.5,210.1c-0.1-0.2-0.3-0.4-0.4-0.6c-1-1.5-2-3.1-6-2.4l-0.1-0.7c4.5-0.8,5.7,1.1,6.7,2.7
								c0.1,0.2,0.2,0.4,0.4,0.6L1625.5,210.1z"/>
						</g>
					</g>
					<g>
						<path class="st26" d="M1649.9,109l-1.7,0l-0.9,1.4c-0.4,0.6-1.3,0.6-1.7,0l-0.7-1.1l-2.4-0.4c-0.6-0.1-1.1-0.6-1.1-1.2l0-0.9
							l0-0.5c0-0.4,0.3-0.7,0.6-0.7l9.2-0.3c0.4,0,0.7,0.4,0.7,0.8l0,0.1l-0.3,1.5C1651.3,108.5,1650.7,109,1649.9,109z"/>
					</g>
					<g>
						<g>
							<path class="st28" d="M1716.9,247.4c-2,0-6-0.3-8.1-2.4c-1.1-1.1-1.6-2.5-1.5-4.3c0.1-2.1,0.9-3.7,2.2-4.9
								c2.2-1.9,5.1-1.7,5.2-1.7c0.1,0,2.4,0.1,3.6,2.1l0.2,0.3l-3.9,3.6l-0.2-0.3c-0.2-0.2-0.4-0.4-0.7-0.4c-0.4-0.1-0.7,0-1,0.2
								c-0.3,0.2-0.5,0.5-0.6,0.9c-0.1,0.7,0.3,1.4,1.1,1.6c0.5,0.1,1-0.1,1.4-0.5l0.2-0.3l4.4,3.2l-0.6,2.8l-0.3,0
								C1718.1,247.4,1717.7,247.4,1716.9,247.4z M1714.4,234.8c-0.7,0-2.9,0.1-4.5,1.5c-1.2,1-1.8,2.5-1.9,4.4
								c-0.1,1.5,0.3,2.8,1.3,3.7c2.4,2.4,7.4,2.3,8.6,2.2l0.4-1.9l-3.5-2.5c-0.5,0.5-1.2,0.7-1.8,0.5c-1.1-0.2-1.9-1.3-1.6-2.4
								c0.1-0.5,0.4-1,0.9-1.3c0.5-0.3,1-0.4,1.6-0.3c0.3,0.1,0.6,0.2,0.9,0.4l3-2.8c-1.1-1.5-2.9-1.5-2.9-1.5
								C1714.6,234.8,1714.5,234.8,1714.4,234.8z"/>
						</g>
						<g>
							<path class="st28" d="M1717.8,244.5l-3.6-2.6l0.2-0.3c0.1-0.2,0.2-0.3,0.2-0.5c0.1-0.4,0-0.9-0.3-1.2l-0.2-0.3l3.4-3.1
								l0.2,0.2c1.3,1.3,1.9,3.2,1.5,5c-0.2,0.9-0.6,1.8-1.2,2.5L1717.8,244.5z M1715.2,241.7l2.5,1.8c0.4-0.6,0.7-1.2,0.8-1.9
								l0.4,0.1l-0.4-0.1c0.3-1.5-0.1-3-1.1-4.2l-2.3,2.2c0.3,0.4,0.4,1,0.3,1.5C1715.3,241.4,1715.3,241.5,1715.2,241.7z"/>
						</g>
						<g>
							<path class="st28" d="M1713.3,242.9c-0.1,0-0.3,0-0.4,0c-1.1-0.2-1.9-1.3-1.6-2.4c0.1-0.5,0.4-1,0.9-1.3
								c0.5-0.3,1-0.4,1.6-0.3c0.4,0.1,0.8,0.3,1.1,0.6c0.4,0.5,0.6,1.2,0.5,1.8c-0.1,0.3-0.2,0.6-0.4,0.8
								C1714.6,242.5,1714,242.9,1713.3,242.9z M1713.3,239.4c-0.3,0-0.5,0.1-0.8,0.2c-0.3,0.2-0.5,0.5-0.6,0.9
								c-0.1,0.7,0.3,1.4,1.1,1.6c0.5,0.1,1-0.1,1.4-0.5c0.1-0.2,0.2-0.3,0.2-0.5l0,0c0.1-0.4,0-0.9-0.3-1.2
								c-0.2-0.2-0.4-0.4-0.7-0.4C1713.5,239.4,1713.4,239.4,1713.3,239.4z"/>
						</g>
						<g>
							
								<rect x="1708.5" y="235.2" transform="matrix(0.1055 -0.9944 0.9944 0.1055 1296.7605 1912.6371)" class="st28" width="5.9" height="0.7"/>
						</g>
						<g>
							
								<rect x="1712.7" y="233.2" transform="matrix(6.484659e-02 -0.9979 0.9979 6.484659e-02 1369.5142 1928.496)" class="st28" width="1.9" height="0.7"/>
						</g>
					</g>
					<g>
						<g>
							<path class="st28" d="M1588,164.7c-1,0-2-0.1-2.8-0.5c-1.4-0.6-2.5-1.8-3-3.4c-0.6-2-0.6-3.8,0.2-5.3
								c1.3-2.5,4.2-3.4,4.3-3.5c0.1,0,2.2-0.8,4.2,0.6l0.2,0.2l-2.3,4.8l-0.3-0.2c-0.3-0.1-0.5-0.2-0.8-0.1
								c-0.4,0.1-0.7,0.3-0.9,0.6c-0.2,0.3-0.3,0.7-0.2,1c0.1,0.4,0.3,0.7,0.6,0.9c0.3,0.2,0.7,0.3,1,0.2c0.5-0.1,0.9-0.5,1.1-1
								l0.1-0.3l5.3,1.4l0.5,2.9l-0.2,0.1C1594.6,163.1,1591.3,164.7,1588,164.7z M1588.2,152.5c-0.7,0-1.2,0.2-1.2,0.2
								c0,0-2.7,0.8-3.9,3.1c-0.7,1.4-0.8,3-0.2,4.8c0.5,1.5,1.3,2.5,2.6,3c3.1,1.3,7.7-0.6,8.8-1.1l-0.3-1.9l-4.2-1.1
								c-0.3,0.6-0.8,1-1.5,1.2c-0.5,0.1-1.1,0-1.6-0.3c-0.5-0.3-0.8-0.8-0.9-1.3c-0.1-0.5,0-1.1,0.3-1.6c0.3-0.5,0.8-0.8,1.3-0.9
								c0.3-0.1,0.6,0,0.9,0l1.8-3.6C1589.5,152.6,1588.8,152.5,1588.2,152.5z"/>
						</g>
						<g>
							<path class="st28" d="M1593.4,160.5l-4.3-1.1l0.1-0.3c0.1-0.2,0.1-0.4,0-0.6c-0.1-0.4-0.4-0.8-0.7-1l-0.3-0.2l2-4.1l0.3,0.1
								c1.7,0.8,2.9,2.3,3.3,4.1l0,0c0.2,0.9,0.1,1.9-0.2,2.7L1593.4,160.5z M1589.9,158.8l3,0.8c0.2-0.7,0.2-1.4,0.1-2.1
								c-0.3-1.5-1.2-2.8-2.5-3.5l-1.4,2.9c0.4,0.3,0.7,0.8,0.8,1.3C1590,158.5,1590,158.7,1589.9,158.8z"/>
						</g>
						<g>
							<path class="st28" d="M1587.9,160.7c-0.4,0-0.8-0.1-1.2-0.4c-0.5-0.3-0.8-0.8-0.9-1.3c-0.1-0.5,0-1.1,0.3-1.6
								c0.3-0.5,0.8-0.8,1.3-0.9c0.4-0.1,0.9,0,1.3,0.2c0.6,0.3,1,0.8,1.1,1.5l0,0c0.1,0.3,0,0.6,0,0.9c-0.2,0.8-0.8,1.4-1.6,1.5
								C1588.1,160.7,1588,160.7,1587.9,160.7z M1587.9,157.3c-0.1,0-0.2,0-0.2,0c-0.4,0.1-0.7,0.3-0.9,0.6c-0.2,0.3-0.3,0.7-0.2,1
								c0.1,0.4,0.3,0.7,0.6,0.9c0.3,0.2,0.7,0.3,1,0.2c0.5-0.1,0.9-0.5,1.1-1c0.1-0.2,0.1-0.4,0-0.6c-0.1-0.4-0.4-0.8-0.7-1
								C1588.3,157.3,1588.1,157.3,1587.9,157.3z"/>
						</g>
						<g>
							
								<rect x="1583.9" y="151.5" transform="matrix(0.9647 -0.2634 0.2634 0.9647 15.2688 422.7576)" class="st28" width="0.7" height="5.9"/>
						</g>
						<g>
							
								<rect x="1585.2" y="150.8" transform="matrix(0.9531 -0.3026 0.3026 0.9531 28.3974 486.8864)" class="st28" width="0.7" height="1.9"/>
						</g>
					</g>
				</g>
				<path class="st28" d="M1704.1,199.6l11.4-2c0,0,2.4,7.4-3.7,7.7C1704.3,205.7,1704.1,199.6,1704.1,199.6z"/>
				<path class="st28" d="M1559.6,120.6l10.7-4.4c0,0,3.9,6.7-2,8.3C1561.1,126.6,1559.6,120.6,1559.6,120.6z"/>
				<g>
					<path class="st28" d="M1551.3,85c-0.5,0-1-0.1-1.5-0.4c-0.9-0.4-1.6-1.3-1.8-2.2l-0.5-2l0.8-0.2l0.5,2c0.2,0.7,0.7,1.3,1.4,1.7
						c0.7,0.3,1.5,0.4,2.2,0.1l4.3-1.8c1.9-0.8,3.1-2.6,3.1-4.6V75h0.9v2.5c0,2.4-1.4,4.5-3.6,5.4l-4.3,1.8
						C1552.2,84.9,1551.8,85,1551.3,85z"/>
				</g>
				<path class="st42" d="M1564.1,109.6c0.3,0.9,0.6,1.4,0.9,2.6c1.4,5.4,2,10.9,0.9,16.3c-0.6,3.7-1.1,6.9-1.7,10.6
					c0,1.1-1.4,2.3-2.6,3.1c-0.3,0.3,0.3,1.1,0,1.4c-0.9,1.1-2.3,1.1-3.7,1.7c-0.6,0-1.4,0.9-2,1.1c-4.6,2.3-10.9,1.4-14,6
					c-0.6,1.1-0.3,2.9-1.7,4c-0.3,0.6,0.3,1.4,0,2c-2.6,6.3-8.9,9.1-13.7,13.7c-0.3,0.3,0,0.9,0,1.4c-0.6,1.1-0.9,2.3-1.4,2.9
					c-5.1,6.3-5.6,13.3-6,20.5c-3-1.6-6.4-4.1-6-7.1c0.6-5.2,4.1-11,4.9-12.3c-0.4-0.9-0.6-1.5-0.6-1.5l-0.1-0.2l2.1-3.7
					c3-4.7,6.2-9.2,9.8-13.4c2.3-2.7,4.8-5.3,7.2-7.6c9.6-9.2,18-13.5,20-14.4c-0.7-3.5,0.1-6.4,0.9-8.2c0.2-0.6,0.5-1.1,0.8-1.7
					l-5.3-11.3c-0.5,0.2-1,0.2-1.6,0.2c-2.1,0-4-1.2-4.9-3.1l-5-10.6c-1.4-3-0.2-6.6,2.6-8.2c-0.6-7.9,3.7-15.4,10.9-18.8
					c1.4-0.7,2.9-1.1,4.4-1.4c-0.5,0.7-1.4,1.2-1.6,1.9c-1.4,6.6-6.3,11.1-10,16.6 M1627.6,291.7c1.7-5.1,2.6-10.9,2.6-16.3
					c-0.9,0.3-2-0.6-2.3-0.9c-2.6-2.6-3.1-6.3-5.1-9.4c-0.3-0.6-1.1-0.9-1.7-1.4c-6.6-10.9-14.9-20.3-18.9-31.4
					c-3.4-9.1,0.6-19.7-2-29.4c-0.6-2-1.4-4.9-2.9-6.6c-4-4.9-5.4-10.3-9.7-14.9c-0.9-0.9-1.4-2.6-2-3.7c-0.9-2-1.7-3.7-2.9-5.4
					c-0.3-0.6,0-1.4-0.3-1.7c-1.7-1.7-2.6-4-4.6-5.4c-0.6-0.3-1.1,0-1.7,0c-0.9-0.3-0.6-1.4-1.4-1.7c-3.7-0.6-6.3-2.9-9.1-4.3
					c-1.5-0.8-3.8-1.5-5.3,0c0.5,1.3,1.1,2.7,1.7,4c5.2,10.9,8.2,14.6,11.6,14.6c0.7,0,1.4-0.1,2.2-0.4l8.2,18.1
					c-1.2,1.2-1.6,3.1-0.8,4.7l3.1,6.6c0.7,1.5,2.2,2.4,3.8,2.4c0,0,0.1,0,0.1,0c1.2,3.5,1.9,6,1.9,6.8c0,0.3-0.1,1.1-0.1,2.3
					c-0.5,6.7-1.8,24.3,1.4,30.2c3.6,6.9,28.3,28,29.3,28.9l0.1,0.1l0.1,0c0,0,0.2,0.1,0.5,0.1c-0.1,2-0.5,8.4-0.7,10
					c-0.7,0.9-5.1,6.9-2,13c0.2,0.5,0.5,0.9,0.8,1.2l4.1,6.1l0.3,0l0.1,0c0.1,0,0.4,0,0.9,0C1626.5,302.3,1626.2,296.8,1627.6,291.7
					z M1691.6,340.8c0-0.9-0.9-1.7-1.1-2.6c-0.3-2,0.3-4-0.3-5.7c-0.9-2.9-3.1-4.3-3.4-7.4c-0.6-2.9-0.9-5.7-1.4-8.6
					c-0.9-3.7-1.1-7.7,0.9-11.4c2.9-5.1,5.1-10.3,9.1-14.9c2.9-3.7,8-4.9,10.3-9.1c1.4-2.6,3.4-4.6,4-7.4c1.4-6.4-3.7-10.3-7.7-14.7
					c0.2,0.8,0.3,1.5,0.4,2.2l-0.1-0.1l-1.7,8.8l0,0.2l-0.3,1.4c-1.4,1.7-15.5,18.5-18.3,24c-2.7,5.3-1.5,21.4-0.9,28.3
					c0.1,0.6,0.1,1.2,0.1,1.6c0.3,4.4,2.4,11.2,2.8,12.4c-0.1,0-0.3,0-0.4,0c-2.5,0-5.1,1.4-6,1.8l0,0c-1-0.4-2.1-0.6-3.2-0.6
					l-0.1,0c-1.4,0-2.7,0.1-4,0.4c-1.6,0.4-3,0.9-4.2,1.7c0,0,0,0,0,0l-0.1,0l0,0l0,0l0,0c-0.1,0-0.2,0.1-0.2,0.1l0,0
					c-0.5,0.4-1,0.8-1.4,1.3c0,0,0,0,0,0.1c-1.3,1.5-2,3.4-2.2,5.7l-0.1,0.7l-0.5,2.4c0,0.1-0.1,1.1,0.8,2.3
					c1.2,1.6,4.3,3.6,12.1,4.5c1.4,0.2,2.9,0.2,4.4,0.2c3.5,0,7.2-0.4,11.1-1.3l0,0l0.1,0c0.9-0.2,1.8-0.4,2.7-0.7
					C1693.4,351.9,1691.4,345.6,1691.6,340.8z"/>
			</g>
		</g>
	</g>
</g>
</svg>
