<svg id="Layer_1" data-name="Layer 1" xmlns="http://www.w3.org/2000/svg" xmlns:xlink="http://www.w3.org/1999/xlink" viewBox="0 0 3000 1112"><defs><style>.cls-1,.cls-18,.cls-20,.cls-31,.cls-32,.cls-33{fill:none;}.cls-2{fill:#fff;}.cls-3{fill:#f7d600;}.cls-4{fill:url(#Degradado_sin_nombre_24);}.cls-5{fill:url(#Degradado_sin_nombre_25);}.cls-6{fill:#4ac4db;}.cls-7{fill:url(#Nueva_muestra_de_motivo_1);}.cls-8{fill:url(#Nueva_muestra_de_motivo_1-3);}.cls-9{fill:#f5b700;}.cls-10{fill:#e07100;}.cls-11{fill:#f54180;}.cls-12{fill:#4ac5dc;}.cls-13{fill:#4a128f;}.cls-14{fill:url(#Degradado_sin_nombre_27);}.cls-15{clip-path:url(#clip-path);}.cls-16,.cls-28{fill:#25e899;}.cls-16,.cls-18,.cls-19,.cls-20,.cls-21,.cls-22,.cls-24,.cls-25,.cls-26,.cls-31,.cls-33{stroke:#15003e;}.cls-16,.cls-18,.cls-19,.cls-25,.cls-26,.cls-33{stroke-linejoin:round;}.cls-16,.cls-18,.cls-19,.cls-20,.cls-21,.cls-22,.cls-23,.cls-24,.cls-25,.cls-26,.cls-30,.cls-31,.cls-32,.cls-33{stroke-width:7px;}.cls-17,.cls-23,.cls-24,.cls-26{fill:#15003e;}.cls-19,.cls-22{fill:#ffce08;}.cls-20,.cls-21,.cls-22,.cls-23,.cls-24,.cls-30,.cls-32,.cls-33{stroke-linecap:round;}.cls-20,.cls-21,.cls-22,.cls-23,.cls-24,.cls-30,.cls-31,.cls-32{stroke-miterlimit:10;}.cls-21,.cls-25,.cls-27,.cls-30{fill:#eff4ee;}.cls-23{stroke:#ffce08;}.cls-29{fill:#0fce7c;}.cls-30,.cls-32{stroke:#25e899;}</style><linearGradient id="Degradado_sin_nombre_24" x1="-416.83" y1="879.61" x2="1436.78" y2="-267.67" gradientUnits="userSpaceOnUse"><stop offset="0" stop-color="#f5b700"/><stop offset="1" stop-color="#f8d700"/></linearGradient><linearGradient id="Degradado_sin_nombre_25" x1="3082.86" y1="1139.51" x2="2220.44" y2="-17.18" gradientUnits="userSpaceOnUse"><stop offset="0" stop-color="#fffeff"/><stop offset="1" stop-color="#f8d700"/></linearGradient><pattern id="Nueva_muestra_de_motivo_1" data-name="Nueva muestra de motivo 1" width="48" height="48" patternTransform="translate(-70.4 589.13)" patternUnits="userSpaceOnUse" viewBox="0 0 48 48"><rect class="cls-1" width="48" height="48"/><circle class="cls-2" cx="24" cy="48" r="1.2"/><circle class="cls-2" cx="48" cy="48" r="1.2"/><circle class="cls-2" cx="24" cy="24" r="1.2"/><circle class="cls-2" cx="48" cy="24" r="1.2"/><circle class="cls-2" cx="36" cy="36" r="1.2"/><circle class="cls-2" cx="12" cy="36" r="1.2"/><circle class="cls-2" cx="36" cy="12" r="1.2"/><circle class="cls-2" cx="12" cy="12" r="1.2"/><circle class="cls-2" cy="48" r="1.2"/><circle class="cls-2" cy="24" r="1.2" transform="translate(-23.69 20.16) rotate(-80.78)"/><circle class="cls-2" cx="24" r="1.2"/><circle class="cls-2" cx="48" r="1.2"/><circle class="cls-2" r="1.2" transform="translate(0 0) rotate(-80.78)"/></pattern><pattern id="Nueva_muestra_de_motivo_1-3" data-name="Nueva muestra de motivo 1" width="48" height="48" patternTransform="translate(-62.15 610.6)" patternUnits="userSpaceOnUse" viewBox="0 0 48 48"><rect class="cls-1" width="48" height="48"/><circle class="cls-2" cx="24" cy="48" r="1.2"/><circle class="cls-2" cx="48" cy="48" r="1.2"/><circle class="cls-2" cx="24" cy="24" r="1.2"/><circle class="cls-2" cx="48" cy="24" r="1.2"/><circle class="cls-2" cx="36" cy="36" r="1.2"/><circle class="cls-2" cx="12" cy="36" r="1.2"/><circle class="cls-2" cx="36" cy="12" r="1.2"/><circle class="cls-2" cx="12" cy="12" r="1.2"/><circle class="cls-2" cy="48" r="1.2"/><circle class="cls-2" cy="24" r="1.2" transform="translate(-23.69 20.16) rotate(-80.78)"/><circle class="cls-2" cx="24" r="1.2"/><circle class="cls-2" cx="48" r="1.2"/><circle class="cls-2" r="1.2" transform="translate(0 0) rotate(-80.78)"/></pattern><linearGradient id="Degradado_sin_nombre_27" x1="1015" y1="1751.61" x2="2818.91" y2="572.13" gradientTransform="translate(-239.19 -404.54) rotate(9.88)" gradientUnits="userSpaceOnUse"><stop offset="0" stop-color="#4a128f"/><stop offset="1" stop-color="#f54180"/><stop offset="1" stop-color="#f8d700"/></linearGradient><clipPath id="clip-path"><rect class="cls-1" x="1.53" y="43.81" width="435.5" height="996.47"/></clipPath></defs><title>profileheader</title><rect class="cls-3" y="4.26" width="3000" height="1115.31"/><path class="cls-4" d="M1217.88,72.49c-6.08,32.68-31.08,58.68-58.72,76.66C1059,214.34,921.36,197.46,823.88,266.7c-21.32,15.14-40.56,35-49.12,59.93-12.68,37.09.4,78.15,18.24,113s40.72,68,49.28,106.3C859,620.32,817.4,696.33,764.16,750.35,668.36,847.57,532,898.67,396.4,902.44S126.24,865.06,7.52,798.65c-2.52-1.41-5-2.79-7.52-4.25V4.26H1207.8c.52,1.26,1,2.51,1.52,3.81C1217.2,28.52,1221.88,50.91,1217.88,72.49Z"/><path class="cls-5" d="M3000,4.26V621.62a593.63,593.63,0,0,1-55-28.75c-73.6-43.17-143-97-224.84-120.35-212-60.37-429.08,99.37-648.64,82.2-106.36-8.3-207.68-59.44-283.2-135.65s-125.72-176.38-148.72-281.83c-9.52-43.49-14.4-88.76-10.92-133Z"/><path class="cls-6" d="M1354.55,343.51c-109.55-90.3-267.07-125.77-397.47-70.73s-218.8,208.47-183.29,346.9c11.1,43.28,33,83.38,61.14,117.82,97.7,119.35,276.56,161.89,416.54,99.07,92.49-41.51,162.75-126.73,193.35-223.63C1483,492.17,1449.27,421.58,1354.55,343.51Z"/><ellipse class="cls-7" cx="1286.15" cy="369.63" rx="128.93" ry="130.52"/><ellipse class="cls-8" cx="2328.3" cy="931.63" rx="174.78" ry="176.93"/><path class="cls-2" d="M1996.2,329.65h-19V310.46a8.69,8.69,0,1,0-17.37,0v19.19h-19a8.8,8.8,0,0,0,0,17.59h19v19.19a8.69,8.69,0,1,0,17.37,0V347.24h19a8.8,8.8,0,0,0,0-17.59Z"/><path class="cls-9" d="M2234.55,407h-25.34V381.39a11.62,11.62,0,1,0-23.23,0V407h-25.34a11.76,11.76,0,0,0,0,23.51H2186v25.66a11.62,11.62,0,1,0,23.23,0V430.55h25.34a11.76,11.76,0,0,0,0-23.51Z"/><path class="cls-10" d="M510,776.65H484.67V751a11.62,11.62,0,1,0-23.23,0v25.66H436.1a11.76,11.76,0,0,0,0,23.51h25.34v25.66a11.62,11.62,0,1,0,23.23,0V800.16H510a11.76,11.76,0,0,0,0-23.51Z"/><path class="cls-11" d="M2139.36,271.47H2126.8V258.76a5.76,5.76,0,1,0-11.51,0v12.71h-12.56a5.83,5.83,0,0,0,0,11.66h12.56v12.71a5.76,5.76,0,1,0,11.51,0V283.13h12.56a5.83,5.83,0,0,0,0-11.66Z"/><path class="cls-11" d="M590.69,332.62H578.13V319.9a5.76,5.76,0,1,0-11.52,0v12.72H554.05a5.83,5.83,0,0,0,0,11.65h12.56V357a5.76,5.76,0,1,0,11.52,0V344.27h12.56a5.83,5.83,0,0,0,0-11.65Z"/><path class="cls-2" d="M1005.15,437.34H992.59V424.62a5.76,5.76,0,1,0-11.51,0v12.72H968.52a5.83,5.83,0,0,0,0,11.65h12.56v12.72a5.76,5.76,0,1,0,11.51,0V449h12.56a5.83,5.83,0,0,0,0-11.65Z"/><ellipse class="cls-12" cx="1788.05" cy="277.3" rx="24.07" ry="24.37"/><ellipse class="cls-12" cx="616.12" cy="497.76" rx="43.75" ry="44.29"/><ellipse class="cls-12" cx="474.9" cy="1058.9" rx="16.91" ry="17.12"/><ellipse class="cls-13" cx="371.31" cy="969.23" rx="53.18" ry="53.83"/><ellipse class="cls-12" cx="2516.37" cy="742.41" rx="18" ry="18.22"/><ellipse class="cls-11" cx="2611.94" cy="879.65" rx="41.57" ry="42.08"/><ellipse class="cls-13" cx="2524.48" cy="524.2" rx="26.12" ry="26.44"/><ellipse class="cls-13" cx="727.8" cy="381.45" rx="26.12" ry="26.44"/><ellipse class="cls-12" cx="746.85" cy="973" rx="19.05" ry="19.28"/><ellipse class="cls-11" cx="790.66" cy="844.76" rx="43.81" ry="44.35"/><ellipse class="cls-12" cx="2325.61" cy="912.37" rx="32.32" ry="32.72"/><ellipse class="cls-11" cx="2159.32" cy="740.7" rx="38.27" ry="38.75"/><ellipse class="cls-2" cx="2356.36" cy="688.36" rx="35.39" ry="35.82"/><path class="cls-14" d="M2363.25,1116.35c2.22-84.3-41.4-166.8-109.15-206.46-72.5-42.43-160.95-35.53-243.31-47.51C1924.34,849.8,1841.3,815,1770.4,761.55c-130.78-98.54-333.94-123-468.17-7.88-324.38,278.1-553.81,5.81-745.12,364.59"/><g class="cls-15"><line class="cls-16" x1="-92.56" y1="509.34" x2="120.89" y2="509.34"/><polygon class="cls-17" points="-92.56 509.34 -90.25 540.64 -69.1 569.21 -50.57 570.96 17.26 577.57 86.8 572.59 110.11 556.43 120.89 525.66 116.27 509.34 -92.56 509.34"/><path class="cls-18" d="M-92.56,456.1H120.89a0,0,0,0,1,0,0V477a98,98,0,0,1-98,98H5.42a98,98,0,0,1-98-98V456.1A0,0,0,0,1-92.56,456.1Z"/><circle class="cls-16" cx="12.98" cy="512.07" r="36.5"/><circle class="cls-19" cx="79.6" cy="508.08" r="15.76"/><path class="cls-20" d="M286.91,379.84l-95.73,95.73v43.48a7.41,7.41,0,0,0,12.64,5.24l43.93-43.93,39.55-68.79Z"/><polygon class="cls-17" points="224.06 504.06 224.06 439.63 279.96 386.79 281.83 421.94 224.06 504.06"/><path class="cls-21" d="M281.83,368.08h67.57a0,0,0,0,1,0,0v20.08a33.79,33.79,0,0,1-33.79,33.79h0a33.79,33.79,0,0,1-33.79-33.79V368.08A0,0,0,0,1,281.83,368.08Z" transform="translate(631.24 790.02) rotate(-180)"/><rect class="cls-17" x="112.27" y="743.74" width="32.43" height="72.28" transform="translate(256.97 1559.76) rotate(-180)"/><path class="cls-21" d="M135.86,595.59H154.8a40.92,40.92,0,0,1,40.92,40.92V777.1A29.93,29.93,0,0,1,165.79,807h0a29.93,29.93,0,0,1-29.93-29.93V595.59A0,0,0,0,1,135.86,595.59Z" transform="translate(331.58 1402.61) rotate(-180)"/><rect class="cls-21" x="242.34" y="421.94" width="145.68" height="318.45" rx="66" transform="translate(630.36 1162.34) rotate(-180)"/><rect class="cls-20" x="242.34" y="603.53" width="145.68" height="136.86" rx="66" transform="translate(630.36 1343.92) rotate(-180)"/><path class="cls-20" d="M388,526.36l-27.13-27.14a23.59,23.59,0,0,0-16.65-6.9h-57.4a23.54,23.54,0,0,0-16.62,6.88L243,526.36"/><path class="cls-20" d="M388,571l-27.13-27.13a23.55,23.55,0,0,0-16.65-6.9h-57.4a23.53,23.53,0,0,0-16.62,6.87L243,571"/><path class="cls-21" d="M331.64,569.21V523.62a11.55,11.55,0,0,0-11.55-11.55h-9.81a11.55,11.55,0,0,0-11.55,11.55v45.59"/><circle class="cls-22" cx="315.18" cy="569.21" r="16.45"/><circle class="cls-23" cx="315.18" cy="669.71" r="31.91"/><path class="cls-21" d="M311.28,757.6V675.48a11.55,11.55,0,0,0-11.55-11.55h-9.81a11.55,11.55,0,0,0-11.55,11.55V757.6"/><circle class="cls-22" cx="294.82" cy="757.6" r="16.45"/><path class="cls-21" d="M328,660.7h5.64a22.16,22.16,0,0,1,22.16,22.16v18.45a0,0,0,0,1,0,0H328a0,0,0,0,1,0,0V660.7A0,0,0,0,1,328,660.7Z"/><path class="cls-21" d="M359.83,757.6V712a11.55,11.55,0,0,0-11.55-11.55h-9.81A11.55,11.55,0,0,0,326.92,712V757.6"/><circle class="cls-22" cx="343.38" cy="757.6" r="16.45"/><rect class="cls-20" x="95.36" y="653.24" width="40.5" height="44.78" transform="translate(231.22 1351.25) rotate(-180)"/><rect class="cls-24" x="95.36" y="653.24" width="20.25" height="44.78" transform="translate(210.97 1351.25) rotate(-180)"/><rect class="cls-20" x="95.36" y="715" width="40.5" height="28.74" transform="translate(231.22 1458.74) rotate(-180)"/><rect class="cls-17" x="95.36" y="715" width="20.25" height="28.74" transform="translate(210.97 1458.74) rotate(-180)"/><circle class="cls-18" cx="165.79" cy="629.04" r="13.9"/><line class="cls-18" x1="135.86" y1="760.81" x2="195.72" y2="760.81"/><line class="cls-18" x1="135.86" y1="777.73" x2="195.72" y2="777.73"/><line class="cls-18" x1="165.79" y1="760.81" x2="165.79" y2="642.94"/><rect class="cls-17" x="281.61" y="407.2" width="67.79" height="13.9" transform="translate(631.02 828.29) rotate(-180)"/><circle class="cls-17" cx="315.18" cy="386.92" r="8.29"/><line class="cls-21" x1="315.18" y1="391.79" x2="315.18" y2="409.22"/><line class="cls-21" x1="315.62" y1="425.21" x2="315.62" y2="492.32"/><rect class="cls-20" x="169.19" y="487.5" width="21.99" height="32.95" transform="translate(360.37 1007.94) rotate(-180)"/><rect class="cls-17" x="169.19" y="487.5" width="11" height="32.95" transform="translate(349.37 1007.94) rotate(-180)"/><line class="cls-20" x1="123.84" y1="632.65" x2="107.37" y2="632.65"/><line class="cls-20" x1="123.84" y1="616.5" x2="107.37" y2="616.5"/><line class="cls-20" x1="123.84" y1="600.35" x2="107.37" y2="600.35"/><line class="cls-20" x1="135.86" y1="584.2" x2="95.36" y2="584.2"/><rect class="cls-20" x="64.13" y="897.73" width="130.04" height="33.97" rx="16.99" transform="translate(258.3 1829.43) rotate(180)"/><polyline class="cls-25" points="114.06 837.38 114.06 794.65 142.12 822.71 142.12 837.38"/><line class="cls-20" x1="166.32" y1="873.54" x2="93.81" y2="873.54"/><rect class="cls-20" x="103.94" y="837" width="51.95" height="20.46" rx="10.23" transform="translate(259.83 1694.46) rotate(-180)"/><rect class="cls-20" x="114.06" y="857.46" width="30.63" height="40.27" transform="translate(258.76 1755.19) rotate(-180)"/><line class="cls-20" x1="144.7" y1="881.26" x2="114.06" y2="881.26"/><rect class="cls-26" x="144.7" y="931.7" width="32.43" height="12.83" transform="translate(321.82 1876.23) rotate(-180)"/><rect class="cls-26" x="74.59" y="931.7" width="32.43" height="12.83" transform="translate(181.6 1876.23) rotate(-180)"/><path class="cls-27" d="M124.93,778.45a4.4,4.4,0,1,1,0-8.8"/><path class="cls-20" d="M163.61,931.7v-6.15a10.83,10.83,0,0,0-10.83-10.84H89.49v20.85"/><line class="cls-20" x1="92.92" y1="595.59" x2="92.92" y2="807.03"/><line class="cls-20" x1="72.15" y1="615.15" x2="72.15" y2="783.46"/><line class="cls-20" x1="72.15" y1="615.15" x2="72.15" y2="783.46"/><line class="cls-21" x1="311.28" y1="715.32" x2="279.56" y2="715.32"/><line class="cls-21" x1="311.28" y1="695.44" x2="279.56" y2="695.44"/><circle class="cls-17" cx="108.57" cy="564.7" r="10.76"/><rect class="cls-17" x="120.89" y="492.32" width="46.16" height="26.31"/><path class="cls-20" d="M71.55,602.88c0-18.6-24.55-33.67-54.83-33.67s-54.83,15.07-54.83,33.67"/><circle class="cls-27" cx="14.16" cy="586.04" r="17.76"/><circle class="cls-27" cx="100.7" cy="557.38" r="6.68"/><line class="cls-20" x1="-283.77" y1="951.77" x2="315.62" y2="951.77"/><circle class="cls-28" cx="362.29" cy="630.66" r="5.08"/><circle class="cls-28" cx="362.29" cy="645.84" r="5.08"/><rect class="cls-20" x="-65.68" y="398.42" width="151.87" height="34.15"/><circle class="cls-27" cx="50.07" cy="296.17" r="7.21"/><polygon class="cls-28" points="-70.61 261.78 78.28 261.78 90.9 266.6 81.41 300.57 -61.24 300.57 -70.61 261.78"/><path class="cls-21" d="M61.24,342.57H-41.08a20.17,20.17,0,0,1-20.16-20.16V300.57H81.41v21.84A20.17,20.17,0,0,1,61.24,342.57Z"/><path class="cls-29" d="M-16.07,261.78a63.59,63.59,0,0,1-38-58.23,63.29,63.29,0,0,1,14.51-40.44c11.66-14.13,85-14.85,96.66-1.7a63.3,63.3,0,0,1,16,42.14,63.59,63.59,0,0,1-38,58.23"/><path class="cls-20" d="M62.59,162.67A66.14,66.14,0,0,1,75.44,202,66.48,66.48,0,0,1,38.7,261.44"/><path class="cls-20" d="M-84.6,208.63a94.68,94.68,0,0,1,189.36,0L81.41,300.57H-61.24Z"/><line class="cls-20" x1="104.76" y1="207.26" x2="104.76" y2="91.72"/><path class="cls-20" d="M97.73,247.74h9.77a14.42,14.42,0,0,0,14.38-14.38V196.85a14.42,14.42,0,0,0-14.38-14.38h-4.14"/><path class="cls-20" d="M-83.58,192.8a132.58,132.58,0,0,1,95.16-40.38,132.4,132.4,0,0,1,91.11,36.39"/><line class="cls-20" x1="-70.61" y1="261.78" x2="90.9" y2="261.78"/><circle class="cls-2" cx="26.73" cy="182.47" r="16.58"/><circle class="cls-2" cx="48.46" cy="207.26" r="6.71"/><path class="cls-20" d="M67.35,293.44c-8.17,0-8.17-24.53-16.34-24.53s-8.17,24.53-16.35,24.53-8.17-24.53-16.34-24.53S10.15,293.44,2,293.44s-8.18-24.53-16.35-24.53-8.17,24.53-16.35,24.53-8.17-24.53-16.35-24.53"/><line class="cls-30" x1="-57.52" y1="382.88" x2="73.04" y2="382.88"/><line class="cls-30" x1="-45.35" y1="362.16" x2="65.85" y2="362.16"/><rect class="cls-17" x="-38.15" y="432.57" width="101.99" height="23.53"/><path class="cls-31" d="M86.9,430.19l47.73-47.74a27.29,27.29,0,0,1,38.58,0h0a27.27,27.27,0,0,1,0,38.58l-51.33,51.45"/><line class="cls-20" x1="174.04" y1="381.9" x2="210.07" y2="345.87"/><line class="cls-20" x1="176.49" y1="351.61" x2="207.62" y2="382.73"/><line class="cls-32" x1="176.49" y1="351.61" x2="191.18" y2="366.3"/><line class="cls-20" x1="189.01" y1="339.1" x2="220.13" y2="370.22"/><line class="cls-32" x1="187.04" y1="337.13" x2="201.99" y2="352.08"/><path class="cls-33" d="M248.25,340.22a24.38,24.38,0,1,1-34.48-34.48Z"/><line class="cls-33" x1="230.41" y1="322.38" x2="259.67" y2="293.11"/><circle class="cls-28" cx="259.67" cy="293.11" r="7.33"/><line class="cls-32" x1="137.75" y1="409.57" x2="156.19" y2="391.14"/><polyline class="cls-18" points="140.48 451.94 140.48 430.58 160.91 410.15 169.62 418.86"/></g></svg>