<?xml version="1.0" encoding="utf-8"?>
<!-- Generator: Adobe Illustrator 25.2.1, SVG Export Plug-In . SVG Version: 6.00 Build 0)  -->
<svg version="1.1" id="Layer_2" xmlns="http://www.w3.org/2000/svg" xmlns:xlink="http://www.w3.org/1999/xlink" x="0px" y="0px"
	 viewBox="0 0 3000 1687.5" style="enable-background:new 0 0 3000 1687.5;" xml:space="preserve">
<style type="text/css">
	.st0{fill:none;stroke:#5C0CFB;stroke-width:2;stroke-linecap:round;stroke-linejoin:round;stroke-miterlimit:10;}
	.st1{fill:#0E0133;}
	.st2{clip-path:url(#SVGID_2_);}
	.st3{fill:#230282;}
	.st4{fill:#F578A6;}
	.st5{fill:#F35790;}
	.st6{clip-path:url(#SVGID_4_);}
	.st7{fill:#8D60F7;}
	.st8{fill:#5A29C4;}
	.st9{fill:none;}
	.st10{fill:#E2E0E7;}
	.st11{fill:#CFCDD4;}
</style>
<path class="st0" d="M-1172.3,4048.7"/>
<path class="st0" d="M-1148.2,4051.3"/>
<path class="st0" d="M-1126.9,4053.7"/>
<g>
	<g>
		<path class="st0" d="M-1011.6,3849.2c0,10-0.7,18-1.1,22.4c-0.6-0.1-0.9-0.1-0.9-0.1l-116,11.1h0c-3.5-0.1-7-0.1-10.4-0.1
			c-7.4,0-14.3,0.1-20.5,0.4c-3,0.1-5.8,0.3-8.3,0.5c-0.8-1.4-1.1-2.2-1.1-2.2s-2.2-41.4,10.4-79.2c-5.6,2.8-11.4,6.2-16.4,7.2
			l0.1,0.4c0,0-44.4,20.7-55.7,36.7c0,0,40.5,17.3,55.2,37.9c-0.1,0-0.2,0-0.3,0.1c-0.1,0-0.2,0-0.3,0.1c-0.2,0-0.4,0.1-0.6,0.1
			c-1.9,0.3-3.6,0.7-5.2,1.1c-0.6,0.1-1.2,0.3-1.8,0.5c-0.4,0.1-0.9,0.2-1.3,0.4c-0.8,0.3-1.6,0.5-2.4,0.8c-0.4,0.2-0.7,0.3-1.1,0.4
			c0,0,0,0,0,0c-0.5,0.2-0.9,0.4-1.4,0.6c0,0,0,0-0.1,0c-0.9,0.4-1.7,0.8-2.4,1.3c-0.5,0.3-1.1,0.7-1.6,1c-0.2,0.1-0.3,0.2-0.5,0.3
			c-0.3,0.2-0.5,0.4-0.7,0.5c-0.2,0.2-0.4,0.3-0.6,0.5c-0.2,0.2-0.5,0.4-0.7,0.6c0,0,0,0.1-0.1,0.1c-0.1,0.1-0.2,0.2-0.4,0.3
			c-0.1,0.1-0.2,0.2-0.3,0.3c-0.3,0.3-0.6,0.7-0.9,1c-0.3,0.3-0.5,0.6-0.7,1c-0.1,0.1-0.1,0.2-0.2,0.3c-0.1,0.1-0.1,0.2-0.2,0.3
			c-0.1,0.1-0.1,0.2-0.2,0.3c-0.1,0.2-0.2,0.4-0.3,0.6c-0.1,0.1-0.1,0.2-0.1,0.3c-0.4,0.8-0.6,1.4-0.7,2c0,0.1-0.1,0.3-0.1,0.4
			c-0.2,0.9-0.2,1.4-0.2,1.4s-0.1,0.4-0.3,1.2c0,0.2-0.1,0.4-0.1,0.6c0,0.1-0.1,0.3-0.1,0.4c-0.1,0.3-0.1,0.6-0.2,0.9
			c-0.1,0.4-0.2,0.9-0.3,1.4c-0.1,0.3-0.1,0.6-0.2,0.9c-0.1,0.4-0.2,0.9-0.3,1.4c-0.2,1.1-0.5,2.3-0.8,3.6c-0.1,0.4-0.2,0.8-0.2,1.2
			c0,0.1,0,0.2-0.1,0.2c-0.1,0.3-0.1,0.6-0.2,0.9c-0.3,1.3-0.6,2.7-0.8,4.2c-0.1,0.4-0.2,0.9-0.3,1.3c-0.1,0.6-0.2,1.3-0.4,1.9
			c-17.7-11.1-40.1-26.5-51.9-39.9c-6.8-7.8-12.3-14.1-16.6-19.1c-7.7-8.9-7.7-22.2,0-31.1c11.1-12.7,27.2-29.6,40.6-36.9
			c22.8-12.4,47.1-17.8,47.1-17.8s-22.5-30.8-2.4-43.8c18.1-11.7,35.6-3.9,38.7,15.8c4.1-4.4,9.5-8,15.3-5.8
			c6.2,2.4,3.9,10.6-1.3,18.7c-3.6,3.6-6.7,7.6-9.6,11.8c-1.3,1.2-2.5,2.3-3.7,3.3c0,0.9,0,1.8,0.1,2.6c1.2-2,2.4-4,3.7-5.9
			c3.4-3.3,6.9-7.6,9.6-11.8c12-12.2,28.3-20.2,50.3-20c30.7,0.2,49,15.3,59.7,35.3c-16.2,2.5-29.2,14.6-25.2,29.4
			C-1048.5,3817.2-1024.5,3838.4-1011.6,3849.2z"/>
		<path class="st0" d="M-1136.3,3761.3c-2.7,4.3-6.2,8.5-9.6,11.8C-1143,3768.9-1139.9,3764.9-1136.3,3761.3z"/>
		<path class="st0" d="M-1038,4040.6c0,0-21.4,5.5-49.4,10.1c31.1-18.1,19.3-98,12.4-133.2c-2-10.3-3.6-16.8-3.6-16.8
			s0.6-14.2-30.2-17.2c-3.2-0.3-6.8-0.5-10.8-0.7c28,0.9,56.5,3.3,66.2,6c3.8,1.1,7.2,6.2,10.4,13.5c10.7,24.8,17.5,74.9,17.5,74.9
			S-1014.4,4035.2-1038,4040.6z"/>
	</g>
	<path class="st0" d="M-1087.4,4050.7c-3.1,0.5-6.3,1-9.5,1.5c-0.9,0.1-1.9,0.3-2.8,0.4c-0.3,0.1-0.7,0.1-1,0.1
		c-1.5,0.2-3,0.4-4.5,0.6c-2.4,0.3-4.9,0.6-7.3,0.9c-0.8,0.1-1.6,0.2-2.5,0.3c-1,0.1-2.1,0.2-3.1,0.3c-1.4,0.2-2.9,0.3-4.3,0.4
		c-0.4,0-0.8,0.1-1.1,0.1c-1,0.1-2,0.2-3,0.2c-3.6,0.3-7.2,0.6-10.8,0.7c-0.9,0.1-1.9,0.1-2.8,0.1c-2,0.1-3.9,0.1-5.9,0.2
		c-1,0-2,0-3.1,0.1c-1,0-1.9,0-2.9,0c-0.8,0-1.6,0-2.3,0c-1.2,0-2.4,0-3.7-0.1c-0.3,0-0.7,0-1.1,0c-0.6,0-1.2,0-1.8-0.1
		c-0.4,0-0.9,0-1.3-0.1c-0.7,0-1.3-0.1-2-0.1c-0.5,0-1-0.1-1.5-0.1c-0.6-0.1-1.3-0.1-1.9-0.1c-0.7-0.1-1.5-0.1-2.2-0.2
		c-0.4,0-0.9-0.1-1.3-0.1c-1.7-0.2-3.3-0.4-5-0.6c-0.6-0.1-1.3-0.2-1.9-0.3c-0.6-0.1-1.3-0.2-1.9-0.3c0,0-0.1,0-0.1,0
		c-0.6-0.1-1.2-0.2-1.8-0.3c-0.3,0-0.5-0.1-0.8-0.1c-1-0.2-2-0.4-3-0.7c-2.7-0.6-5.1-1.6-7.4-2.9c-30.1-17.5-20-92.8-13.1-129.6
		c0.1-0.7,0.2-1.3,0.4-1.9c0.1-0.4,0.2-0.9,0.3-1.3c0.3-1.5,0.6-2.9,0.8-4.2c0.1-0.3,0.1-0.6,0.2-0.9c0-0.1,0-0.2,0.1-0.2
		c0.1-0.4,0.2-0.8,0.2-1.2c0.3-1.3,0.5-2.5,0.8-3.6c0.1-0.5,0.2-1,0.3-1.4c0.1-0.3,0.1-0.6,0.2-0.9c0.1-0.5,0.2-1,0.3-1.4
		c0.1-0.3,0.1-0.7,0.2-0.9c0-0.2,0.1-0.3,0.1-0.4c0-0.2,0.1-0.4,0.1-0.6c0.2-0.8,0.3-1.2,0.3-1.2s0-0.5,0.2-1.4
		c0-0.1,0.1-0.2,0.1-0.4c0.1-0.6,0.4-1.3,0.7-2c0-0.1,0.1-0.2,0.1-0.3c0.1-0.2,0.2-0.4,0.3-0.6c0.1-0.1,0.1-0.2,0.2-0.3
		c0.1-0.1,0.1-0.2,0.2-0.3c0.1-0.1,0.1-0.2,0.2-0.3c0.2-0.3,0.5-0.6,0.7-1c0.3-0.3,0.6-0.7,0.9-1c0.1-0.1,0.2-0.2,0.3-0.3
		c0.1-0.1,0.2-0.2,0.4-0.3c0,0,0,0,0.1-0.1c0.2-0.2,0.4-0.4,0.7-0.6c0.2-0.1,0.4-0.3,0.6-0.5c0.2-0.2,0.5-0.4,0.7-0.5
		c0.2-0.1,0.3-0.2,0.5-0.3c0.5-0.3,1-0.7,1.6-1c0.7-0.4,1.5-0.9,2.4-1.3c0,0,0,0,0.1,0c0.4-0.2,0.9-0.4,1.4-0.6c0,0,0,0,0,0
		c0.4-0.2,0.7-0.3,1.1-0.4c0.8-0.3,1.5-0.6,2.4-0.8c0.4-0.1,0.9-0.3,1.3-0.4c0.6-0.2,1.2-0.3,1.8-0.5c1.6-0.4,3.3-0.8,5.2-1.1
		c0.2,0,0.4-0.1,0.6-0.1c0.1,0,0.2,0,0.3-0.1c0.1,0,0.2,0,0.3,0c0,0,0,0,0,0c1.6-0.2,3.3-0.5,5.1-0.6c0.8-0.1,1.6-0.2,2.4-0.2
		c2.6-0.2,5.4-0.4,8.3-0.5c6.2-0.3,13.1-0.4,20.5-0.4c3.4,0,6.9,0,10.4,0.1h0c1.9,0,3.9,0.1,5.8,0.1c1.4,0,2.8,0.1,4.2,0.1
		c3.9,0.2,7.6,0.4,10.8,0.7c30.8,3,30.2,17.2,30.2,17.2s1.6,6.5,3.6,16.8C-1068.1,3952.7-1056.3,4032.6-1087.4,4050.7z"/>
	<path class="st0" d="M-1202.6,3905.4c0.1-0.5,0.2-1,0.3-1.4C-1202.4,3904.4-1202.5,3904.8-1202.6,3905.4z"/>
	<path class="st0" d="M-1198.8,3894.2c0.3-0.3,0.6-0.7,0.9-1C-1198.2,3893.5-1198.5,3893.9-1198.8,3894.2z"/>
	<path class="st0" d="M-1193.2,3889.5c0.7-0.4,1.5-0.9,2.4-1.3C-1191.6,3888.7-1192.4,3889.1-1193.2,3889.5z"/>
	<path class="st0" d="M-1188.2,3887.2c0.7-0.3,1.5-0.6,2.4-0.8C-1186.7,3886.6-1187.5,3886.9-1188.2,3887.2z"/>
	<path class="st0" d="M-1182.7,3885.4c1.6-0.4,3.3-0.8,5.2-1.1C-1179.4,3884.7-1181.1,3885-1182.7,3885.4z"/>
	<path class="st0" d="M-1176.4,3884.2c-0.2,0-0.4,0.1-0.6,0.1C-1176.8,3884.2-1176.6,3884.2-1176.4,3884.2
		C-1176.4,3884.2-1176.4,3884.2-1176.4,3884.2z"/>
	<path class="st0" d="M-1202.3,3903.9c-0.1,0.4-0.2,0.9-0.3,1.4C-1202.5,3904.8-1202.4,3904.4-1202.3,3903.9z"/>
	<path class="st0" d="M-1197.9,3893.2c-0.3,0.3-0.6,0.7-0.9,1C-1198.5,3893.9-1198.2,3893.5-1197.9,3893.2z"/>
	<path class="st0" d="M-1190.8,3888.3c-0.9,0.4-1.7,0.8-2.4,1.3C-1192.4,3889.1-1191.6,3888.7-1190.8,3888.3z"/>
	<path class="st0" d="M-1185.9,3886.3c-0.8,0.3-1.6,0.5-2.4,0.8C-1187.5,3886.9-1186.7,3886.6-1185.9,3886.3z"/>
	<path class="st0" d="M-1177.5,3884.4c-1.9,0.3-3.6,0.7-5.2,1.1C-1181.1,3885-1179.4,3884.7-1177.5,3884.4z"/>
	<path class="st0" d="M-1176.4,3884.2c-0.2,0-0.4,0.1-0.6,0.1C-1176.8,3884.2-1176.6,3884.2-1176.4,3884.2
		C-1176.4,3884.2-1176.4,3884.2-1176.4,3884.2z"/>
	<path class="st0" d="M-1136.3,3761.3c-2.7,4.3-6.2,8.5-9.6,11.8C-1143,3768.9-1139.9,3764.9-1136.3,3761.3z"/>
	<path class="st0" d="M-878.4,3871.8c-15.4,28.8-93,89.4-117.6,108.1c-2.9,34.1-6.9,70.5-9,89.6c-2.2,0.1-5.1,0.3-8.5,0.5
		c-8.6,0.5-20.3,1-32.6,1.4c-10,0.3-20.3,0.3-29.7,0.1c-3.3-0.1-6.5-0.2-9.5-0.4c-4.4-0.3-9.9-0.8-16.1-1.5
		c-8.7-0.9-18.6-2.2-28.6-3.5c-7.3-1-14.6-1.9-21.3-2.9c-9.8-1.4-18.4-2.6-24.3-3.5c-1-0.1-2-0.3-2.8-0.4c-1.6-0.2-2.9-0.4-3.7-0.5
		c-0.1-1.2-0.2-2.7-0.4-4.4c0.3,0.1,0.5,0.1,0.8,0.1c0.6,0.1,1.2,0.2,1.8,0.3c0,0,0.1,0,0.1,0c0.6,0.1,1.3,0.2,1.9,0.3
		c0.6,0.1,1.3,0.2,1.9,0.3c1.6,0.2,3.3,0.4,5,0.6c0.4,0.1,0.9,0.1,1.3,0.1c0.7,0.1,1.5,0.1,2.2,0.2c0.6,0,1.2,0.1,1.9,0.1
		c0.5,0,1,0.1,1.5,0.1c0.7,0,1.3,0.1,2,0.1c0.4,0,0.9,0,1.3,0.1c0.6,0,1.2,0,1.8,0.1c0.4,0,0.7,0,1.1,0c1.2,0,2.4,0.1,3.7,0.1
		c0.8,0,1.5,0,2.3,0c1,0,1.9,0,2.9,0c1,0,2,0,3.1-0.1c1.9-0.1,3.9-0.1,5.9-0.2c0.9,0,1.9-0.1,2.8-0.1c3.6-0.2,7.1-0.4,10.8-0.7
		c1-0.1,2-0.2,3-0.2c0.4,0,0.8-0.1,1.1-0.1c1.4-0.1,2.9-0.3,4.3-0.4c1-0.1,2.1-0.2,3.1-0.3c0.8-0.1,1.6-0.2,2.5-0.3
		c2.4-0.3,4.9-0.6,7.3-0.9c1.5-0.2,3-0.4,4.5-0.6c0.3,0,0.7-0.1,1-0.1c0.9-0.1,1.9-0.3,2.8-0.4c3.2-0.5,6.4-1,9.5-1.5
		c28-4.6,49.4-10.1,49.4-10.1c23.6-5.3,12.4-63.4,12.4-63.4s-6.7-50.1-17.5-74.9c-3.1-7.3-6.6-12.4-10.4-13.5
		c-9.8-2.8-38.2-5.2-66.2-6c-1.4,0-2.8-0.1-4.2-0.1c-1.9-0.1-3.9-0.1-5.8-0.1l116-11.1c0,0,0.3,0,0.9,0.1c3.2,0.6,14.4,4.1,18.8,24
		l53.9-18.5c-7.7,0-63.4-21.3-63.4-21.3s-3.3-2.6-8.1-6.6c-12.9-10.8-36.9-32-39.9-43.2c-4-14.8,8.9-26.8,25.2-29.4
		c0.7-0.1,1.4-0.2,2.1-0.3c7.6-0.8,12.8,5.6,16.2,13l5.8-6.4c0,0,17.2,24.6,19.6,44.1C-963.8,3828.9-861.8,3840.6-878.4,3871.8z"/>
</g>
<g>
	<path class="st0" d="M-976.5,4086.8l-4.4,28.1c0,0,13.3,48.9,8.9,91.6c0,0,2.3,77.6-3.1,99.8"/>
	<path class="st0" d="M-1137.3,4287.3l-7.2-64.8c0,0-27.6-49.8-16.9-147.6"/>
	<g>
		<path class="st0" d="M-1026.3,4306.9c0,0-11.6-68.4-16.9-84.4c-5.3-16-20.4-47.1-32-68.4c0,0-9.8,72-12.4,77.3l-8,55.9"/>
		<path class="st0" d="M-992.2,4072.2"/>
		<g>
			<path class="st0" d="M-968.9,4078.8c-0.9,7.5-5.4,7.8-5.4,7.8s-0.8,0.1-2.3,0.2c-2.2,0.2-5.9,0.4-10.7,0.8
				c-1.1,0.1-2.4,0.1-3.6,0.2c-14.5,0.8-36.6,1.8-59.2,1.6c-1.2,0-2.4,0-3.6-0.1c-4.6-0.1-9.1-0.2-13.6-0.4
				c-3.8-0.2-7.7-0.3-11.4-0.6c-8.8-0.5-17.3-1.1-25.2-1.8c-1.2-0.1-2.5-0.2-3.7-0.3c-6.5-0.6-12.6-1.1-18-1.7
				c-1.2-0.1-2.5-0.3-3.7-0.4c-9-0.9-15.8-1.8-19.3-2.2c-1.7-0.2-2.6-0.3-2.6-0.3s-0.4-0.1-1.1-0.4c-1.9-0.7-5.7-2.4-8.8-5.9
				c-2.6-3-4.7-7.2-4.5-13.2c0.3-15.8,6.1-13.5,6.1-13.5s0.4,0.1,1.3,0.2c0.8,0.1,2.1,0.3,3.7,0.5c0.8,0.1,1.8,0.3,2.8,0.4
				c5.8,0.9,14.5,2.1,24.3,3.5c6.7,0.9,14,1.9,21.3,2.9c9.9,1.3,19.9,2.5,28.6,3.5c6.2,0.7,11.7,1.2,16.1,1.5c3,0.2,6.2,0.3,9.5,0.4
				c9.4,0.3,19.7,0.2,29.7-0.1c12.3-0.3,24-0.9,32.6-1.4c3.4-0.2,6.2-0.3,8.5-0.5c0.9-0.1,1.8-0.1,2.5-0.1c0.4,0,0.7,0,1,0
				C-967.4,4059.9-967.9,4071.6-968.9,4078.8z"/>
			<line class="st0" x1="-1155.1" y1="4050.9" x2="-1152" y2="4082.1"/>
			<line class="st0" x1="-1109.6" y1="4057.3" x2="-1107.5" y2="4086.7"/>
			<line class="st0" x1="-1081" y1="4060.8" x2="-1078.7" y2="4088.5"/>
			<line class="st0" x1="-1055.4" y1="4062" x2="-1053.7" y2="4090.4"/>
			<line class="st0" x1="-993.1" y1="4061.2" x2="-990.8" y2="4088.6"/>
			<line class="st0" x1="-1025.7" y1="4062.6" x2="-1023.7" y2="4089"/>
			<line class="st0" x1="-1129.1" y1="4084.7" x2="-1130.9" y2="4054.4"/>
		</g>
		<path class="st0" d="M-1026.3,4306.9c0,0-4.6,4.8-6.1,23v7.7h47.5h13c0,0-0.3-29.4-6.2-35.7"/>
		<path class="st0" d="M-1137.3,4287.3c0,0-9.6,12.2-11.1,30.4v7.7h47.4h13c0.2,0.9-1.5-30-7.7-38"/>
		<line class="st0" x1="-1148" y1="4313.3" x2="-1088.9" y2="4313.3"/>
		<line class="st0" x1="-1032" y1="4324.7" x2="-973" y2="4324.7"/>
	</g>
</g>
<g>
	<rect y="0" class="st1" width="3000" height="1687.5"/>
	<g>
		<defs>
			<rect id="SVGID_1_" y="0" width="3000" height="1687.5"/>
		</defs>
		<clipPath id="SVGID_2_">
			<use xlink:href="#SVGID_1_"  style="overflow:visible;"/>
		</clipPath>
		<g class="st2">
			<g>
				<g>
					<g>
						<g>
							<path class="st3" d="M2646.2,262.1c0,2.4-3.8,2.4-3.8,0C2642.4,259.7,2646.2,259.7,2646.2,262.1z"/>
						</g>
						<g>
							<path class="st3" d="M2685,215.6c0,2.4-3.8,2.4-3.8,0C2681.2,213.2,2685.1,213.2,2685,215.6z"/>
						</g>
						<g>
							<path class="st3" d="M2666.9,190.1c0,2.4-3.8,2.4-3.8,0C2663.1,187.7,2666.9,187.7,2666.9,190.1z"/>
						</g>
						<g>
							<path class="st3" d="M2388,226.8c0,2.4-3.8,2.4-3.8,0C2384.2,224.3,2388,224.3,2388,226.8z"/>
						</g>
						<g>
							<path class="st3" d="M2393.6,183.8c0,2.4-3.8,2.4-3.8,0C2389.9,181.3,2393.7,181.3,2393.6,183.8z"/>
						</g>
						<g>
							<path class="st3" d="M2410.6,305.6c0,2.4-3.8,2.4-3.8,0C2406.8,303.2,2410.6,303.2,2410.6,305.6z"/>
						</g>
						<g>
							<path class="st3" d="M1868.9,462.3c0,2.4-3.8,2.4-3.8,0C1865.1,459.9,1869,459.9,1868.9,462.3z"/>
						</g>
						<g>
							<path class="st3" d="M2463.4,254.5c0.1,3.6-5.7,3.6-5.6,0C2457.8,250.9,2463.5,250.9,2463.4,254.5z"/>
						</g>
						<g>
							<path class="st3" d="M2549.5,173.4c0.1,3.6-5.7,3.6-5.6,0C2543.9,169.8,2549.6,169.8,2549.5,173.4z"/>
						</g>
						<g>
							<path class="st3" d="M2349,352.8c0.1,3.6-5.7,3.6-5.6,0C2343.3,349.2,2349,349.2,2349,352.8z"/>
						</g>
						<g>
							<path class="st3" d="M1934,376.2c0.1,3.6-5.7,3.6-5.6,0C1928.3,372.6,1934,372.6,1934,376.2z"/>
						</g>
						<g>
							<path class="st3" d="M1939.6,505.1c0.1,3.6-5.7,3.6-5.6,0C1933.9,501.4,1939.6,501.4,1939.6,505.1z"/>
						</g>
						<g>
							<path class="st3" d="M2427.1,286.2c0.1,4.9-7.6,4.9-7.5,0C2419.5,281.3,2427.2,281.3,2427.1,286.2z"/>
						</g>
						<g>
							<path class="st3" d="M2335,262.1c0.1,4.9-7.6,4.9-7.5,0C2327.5,257.2,2335.1,257.2,2335,262.1z"/>
						</g>
						<g>
							<path class="st3" d="M2232.1,300c0.1,4.9-7.6,4.9-7.5,0C2224.5,295.2,2232.2,295.2,2232.1,300z"/>
						</g>
						<g>
							<path class="st3" d="M2073.8,413c0.1,4.9-7.6,4.9-7.5,0C2066.2,408.1,2073.8,408.1,2073.8,413z"/>
						</g>
						<g>
							<path class="st3" d="M1971.6,248c0.1,4.9-7.6,4.9-7.5,0C1964,243.1,1971.6,243.1,1971.6,248z"/>
						</g>
						<g>
							<path class="st3" d="M2000.4,145.8c0.1,4.9-7.6,4.9-7.5,0C1992.9,140.9,2000.5,140.9,2000.4,145.8z"/>
						</g>
						<g>
							<path class="st3" d="M1897.8,409.3c0.1,4.9-7.6,4.9-7.5,0C1890.2,404.4,1897.9,404.4,1897.8,409.3z"/>
						</g>
						<g>
							<path class="st3" d="M2708.2,190.1c0.1,4.9-7.6,4.9-7.5,0C2700.7,185.2,2708.3,185.2,2708.2,190.1z"/>
						</g>
						<g>
							<path class="st3" d="M2751.7,131.8c0.1,4.9-7.6,4.9-7.5,0C2744.1,126.9,2751.8,126.9,2751.7,131.8z"/>
						</g>
						<g>
							<path class="st3" d="M2617.1,244.2c0.1,4.9-7.6,4.9-7.5,0C2609.5,239.4,2617.2,239.4,2617.1,244.2z"/>
						</g>
						<g>
							<path class="st3" d="M2188.4,433.9c0.1,7.3-11.4,7.3-11.2,0C2177.1,426.6,2188.5,426.6,2188.4,433.9z"/>
						</g>
						<g>
							<path class="st3" d="M2593.4,244.2c0.1,7.3-11.4,7.3-11.2,0C2582.1,236.9,2593.5,236.9,2593.4,244.2z"/>
						</g>
					</g>
					<g>
						<path class="st3" d="M1059.2,149.2c-1.1,2.2,2.4,3.8,3.4,1.6C1063.7,148.6,1060.2,147,1059.2,149.2z"/>
					</g>
					<g>
						<path class="st3" d="M1043.5,90.8c-1.1,2.2,2.4,3.8,3.4,1.6C1048,90.1,1044.5,88.5,1043.5,90.8z"/>
					</g>
					<g>
						<path class="st3" d="M1070.7,75.2c-1.1,2.2,2.4,3.8,3.4,1.6C1075.2,74.6,1071.7,73,1070.7,75.2z"/>
					</g>
					<g>
						<path class="st3" d="M1308.3,225.7c-1.1,2.2,2.4,3.8,3.4,1.6C1312.8,225.1,1309.3,223.5,1308.3,225.7z"/>
					</g>
					<g>
						<path class="st3" d="M1321.3,184.4c-1.1,2.2,2.4,3.8,3.4,1.6C1325.8,183.8,1322.3,182.2,1321.3,184.4z"/>
					</g>
					<g>
						<path class="st3" d="M1254.7,287.8c-1.1,2.2,2.4,3.8,3.4,1.6C1259.1,287.2,1255.7,285.6,1254.7,287.8z"/>
					</g>
					<g>
						<path class="st3" d="M1680.3,657.7c-1.1,2.2,2.4,3.8,3.4,1.6C1684.7,657.1,1681.2,655.5,1680.3,657.7z"/>
					</g>
					<g>
						<path class="st3" d="M1228.2,219.2c-1.6,3.3,3.6,5.7,5.1,2.4C1234.9,218.3,1229.7,215.9,1228.2,219.2z"/>
					</g>
					<g>
						<path class="st3" d="M1184.2,109.4c-1.6,3.3,3.6,5.7,5.1,2.4C1190.9,108.5,1185.7,106.1,1184.2,109.4z"/>
					</g>
					<g>
						<path class="st3" d="M1290.8,356.6c-1.6,3.3,3.6,5.7,5.1,2.4C1297.5,355.6,1292.3,353.2,1290.8,356.6z"/>
					</g>
					<g>
						<path class="st3" d="M1657.4,552.3c-1.6,3.3,3.6,5.7,5.1,2.4C1664.1,551.4,1658.9,549,1657.4,552.3z"/>
					</g>
					<g>
						<path class="st3" d="M1598.2,666.8c-1.6,3.3,3.6,5.7,5.1,2.4C1604.9,665.9,1599.7,663.5,1598.2,666.8z"/>
					</g>
					<g>
						<path class="st3" d="M1247.9,263.2c-2.1,4.4,4.8,7.6,6.8,3.2C1256.8,262,1249.9,258.8,1247.9,263.2z"/>
					</g>
					<g>
						<path class="st3" d="M1341.6,280.1c-2.1,4.4,4.8,7.6,6.8,3.2C1350.5,278.9,1343.5,275.6,1341.6,280.1z"/>
					</g>
					<g>
						<path class="st3" d="M1419,357.8c-2.1,4.4,4.8,7.6,6.8,3.2C1427.9,356.5,1421,353.3,1419,357.8z"/>
					</g>
					<g>
						<path class="st3" d="M1515.1,526.9c-2.1,4.4,4.8,7.6,6.8,3.2C1524,525.6,1517.1,522.4,1515.1,526.9z"/>
					</g>
					<g>
						<path class="st3" d="M1677.3,420.1c-2.1,4.4,4.8,7.6,6.8,3.2C1686.2,418.9,1679.2,415.7,1677.3,420.1z"/>
					</g>
					<g>
						<path class="st3" d="M1694,315.3c-2.1,4.4,4.8,7.6,6.8,3.2C1702.9,314,1696,310.8,1694,315.3z"/>
					</g>
					<g>
						<path class="st3" d="M1676.4,597.5c-2.1,4.4,4.8,7.6,6.8,3.2C1685.3,596.2,1678.3,593,1676.4,597.5z"/>
					</g>
					<g>
						<path class="st3" d="M1093.1,145.2c-2.1,4.4,4.8,7.6,6.8,3.2C1102.1,144,1095.1,140.8,1093.1,145.2z"/>
					</g>
					<g>
						<path class="st3" d="M1402.3,497.6c-3.2,6.6,7.2,11.4,10.2,4.7C1415.7,495.8,1405.3,491,1402.3,497.6z"/>
					</g>
					<g>
						<path class="st3" d="M1114.6,155.2c-3.2,6.6,7.2,11.4,10.2,4.7C1128,153.4,1117.6,148.5,1114.6,155.2z"/>
					</g>
					<g>
						<path class="st3" d="M2604.6,521.2c0,2.4,3.8,2.4,3.8,0C2608.4,518.8,2604.6,518.8,2604.6,521.2z"/>
					</g>
					<g>
						<path class="st3" d="M2565.8,474.8c0,2.4,3.8,2.4,3.8,0C2569.6,472.3,2565.8,472.3,2565.8,474.8z"/>
					</g>
					<g>
						<path class="st3" d="M2583.9,449.2c0,2.4,3.8,2.4,3.8,0C2587.7,446.8,2583.9,446.8,2583.9,449.2z"/>
					</g>
					<g>
						<path class="st3" d="M2862.8,485.9c0,2.4,3.8,2.4,3.8,0C2866.6,483.5,2862.8,483.5,2862.8,485.9z"/>
					</g>
					<g>
						<path class="st3" d="M2857.2,442.9c0,2.4,3.8,2.4,3.8,0C2861,440.5,2857.1,440.5,2857.2,442.9z"/>
					</g>
					<g>
						<path class="st3" d="M2840.2,564.8c0,2.4,3.8,2.4,3.8,0C2844,562.3,2840.2,562.3,2840.2,564.8z"/>
					</g>
					<g>
						<path class="st3" d="M2787.4,513.7c-0.1,3.6,5.7,3.6,5.6,0C2793.1,510,2787.3,510,2787.4,513.7z"/>
					</g>
					<g>
						<path class="st3" d="M2701.3,432.6c-0.1,3.6,5.7,3.6,5.6,0C2707,428.9,2701.2,428.9,2701.3,432.6z"/>
					</g>
					<g>
						<path class="st3" d="M2901.9,612c-0.1,3.6,5.7,3.6,5.6,0C2907.5,608.3,2901.8,608.3,2901.9,612z"/>
					</g>
					<g>
						<path class="st3" d="M2823.7,545.3c-0.1,4.9,7.6,4.9,7.5,0C2831.3,540.5,2823.6,540.5,2823.7,545.3z"/>
					</g>
					<g>
						<path class="st3" d="M2915.8,521.2c-0.1,4.9,7.6,4.9,7.5,0C2923.4,516.4,2915.7,516.4,2915.8,521.2z"/>
					</g>
					<g>
						<path class="st3" d="M3018.7,559.2c-0.1,4.9,7.6,4.9,7.5,0C3026.3,554.3,3018.6,554.3,3018.7,559.2z"/>
					</g>
					<g>
						<path class="st3" d="M2542.6,449.2c-0.1,4.9,7.6,4.9,7.5,0C2550.2,444.4,2542.5,444.4,2542.6,449.2z"/>
					</g>
					<g>
						<path class="st3" d="M2499.1,390.9c-0.1,4.9,7.6,4.9,7.5,0C2506.7,386,2499.1,386,2499.1,390.9z"/>
					</g>
					<g>
						<path class="st3" d="M2633.7,503.4c-0.1,4.9,7.6,4.9,7.5,0C2641.3,498.5,2633.6,498.5,2633.7,503.4z"/>
					</g>
					<g>
						<path class="st3" d="M2657.4,503.4c-0.1,7.3,11.4,7.3,11.2,0C2668.7,496.1,2657.3,496.1,2657.4,503.4z"/>
					</g>
					<g>
						<path class="st3" d="M1097.3,793.8c1.8-1.6-0.7-4.4-2.5-2.8C1092.9,792.5,1095.5,795.4,1097.3,793.8z"/>
					</g>
					<g>
						<path class="st3" d="M854.8,284.7c1.8-1.6-0.7-4.4-2.5-2.8C850.5,283.5,853,286.3,854.8,284.7z"/>
					</g>
					<g>
						<path class="st3" d="M1091.6,716.3c2.8-2.4-1-6.7-3.7-4.2C1085.1,714.5,1088.9,718.8,1091.6,716.3z"/>
					</g>
					<g>
						<path class="st3" d="M833.6,390.5c2.8-2.4-1-6.7-3.7-4.2C827.1,388.6,830.9,392.9,833.6,390.5z"/>
					</g>
					<g>
						<path class="st3" d="M933.7,309.1c2.8-2.4-1-6.7-3.7-4.2C927.2,307.3,931,311.6,933.7,309.1z"/>
					</g>
					<g>
						<path class="st3" d="M1014.5,766.2c3.7-3.2-1.4-8.9-5-5.6C1005.9,763.7,1011,769.4,1014.5,766.2z"/>
					</g>
					<g>
						<path class="st3" d="M974.6,664c3.7-3.2-1.4-8.9-5-5.6C965.9,661.6,971,667.3,974.6,664z"/>
					</g>
					<g>
						<path class="st3" d="M953.9,470.6c3.7-3.2-1.4-8.9-5-5.6C945.3,468.2,950.4,473.9,953.9,470.6z"/>
					</g>
					<g>
						<path class="st3" d="M762.7,503.7c3.7-3.2-1.4-8.9-5-5.6C754,501.3,759.1,507,762.7,503.7z"/>
					</g>
					<g>
						<path class="st3" d="M705.4,593.2c3.7-3.2-1.4-8.9-5-5.6C696.8,590.8,701.8,596.5,705.4,593.2z"/>
					</g>
					<g>
						<path class="st3" d="M834.3,341.5c3.7-3.2-1.4-8.9-5-5.6C825.6,339.1,830.7,344.8,834.3,341.5z"/>
					</g>
					<g>
						<path class="st3" d="M1045.7,542.5c5.5-4.8-2.1-13.3-7.5-8.4C1032.7,538.8,1040.3,547.4,1045.7,542.5z"/>
					</g>
					<g>
						<path class="st3" d="M186.6,180.8c-1.9,1.6,0.6,4.5,2.4,2.9C190.9,182.1,188.4,179.2,186.6,180.8z"/>
					</g>
					<g>
						<path class="st3" d="M215.7,148.6c-1.9,1.6,0.6,4.5,2.4,2.9C220,149.9,217.5,147,215.7,148.6z"/>
					</g>
					<g>
						<path class="st3" d="M112,214.9c-1.9,1.6,0.6,4.5,2.4,2.9C116.3,216.2,113.8,213.3,112,214.9z"/>
					</g>
					<g>
						<path class="st3" d="M344.6,728.5c-1.9,1.6,0.6,4.5,2.4,2.9C348.9,729.8,346.4,726.9,344.6,728.5z"/>
					</g>
					<g>
						<path class="st3" d="M116.5,141.5c-2.8,2.3,0.9,6.7,3.7,4.3C123,143.4,119.3,139.1,116.5,141.5z"/>
					</g>
					<g>
						<path class="st3" d="M116.1,292.4c-2.8,2.3,0.9,6.7,3.7,4.3C122.6,294.3,118.8,290,116.1,292.4z"/>
					</g>
					<g>
						<path class="st3" d="M367.8,623.2c-2.8,2.3,0.9,6.7,3.7,4.3C374.3,625.1,370.5,620.8,367.8,623.2z"/>
					</g>
					<g>
						<path class="st3" d="M266.2,702.6c-2.8,2.3,0.9,6.7,3.7,4.3C272.6,704.5,268.9,700.1,266.2,702.6z"/>
					</g>
					<g>
						<path class="st3" d="M116,189.7c-3.7,3.1,1.2,8.9,4.9,5.7C124.6,192.3,119.7,186.5,116,189.7z"/>
					</g>
					<g>
						<path class="st3" d="M194.1,244.1c-3.7,3.1,1.2,8.9,4.9,5.7C202.8,246.7,197.8,240.8,194.1,244.1z"/>
					</g>
					<g>
						<path class="st3" d="M232.1,346.9c-3.7,3.1,1.2,8.9,4.9,5.7C240.8,349.5,235.8,343.7,232.1,346.9z"/>
					</g>
					<g>
						<path class="st3" d="M249,540.7c-3.7,3.1,1.2,8.9,4.9,5.7C257.6,543.3,252.7,537.5,249,540.7z"/>
					</g>
					<g>
						<path class="st3" d="M440.9,511.3c-3.7,3.1,1.2,8.9,4.9,5.7C449.5,513.9,444.6,508.1,440.9,511.3z"/>
					</g>
					<g>
						<path class="st3" d="M499.9,423c-3.7,3.1,1.2,8.9,4.9,5.7C508.5,425.6,503.5,419.7,499.9,423z"/>
					</g>
					<g>
						<path class="st3" d="M366.2,672.1c-3.7,3.1,1.2,8.9,4.9,5.7C374.8,674.7,369.8,668.9,366.2,672.1z"/>
					</g>
					<g>
						<path class="st3" d="M158.7,467.1c-5.6,4.7,1.8,13.4,7.3,8.6C171.6,471,164.2,462.3,158.7,467.1z"/>
					</g>
				</g>
			</g>
			<g>
				<g>
					<path class="st1" d="M442.1,284.4c0-2.4,3.8-2.3,3.7,0.1C445.8,286.9,442,286.8,442.1,284.4z"/>
					<path class="st1" d="M402.1,329.9c0-2.4,3.8-2.3,3.7,0.1C405.9,332.4,402,332.3,402.1,329.9z"/>
					<path class="st1" d="M419.6,355.8c0-2.4,3.8-2.3,3.7,0.1C423.4,358.4,419.5,358.3,419.6,355.8z"/>
					<path class="st1" d="M699.3,326c0-2.4,3.8-2.3,3.7,0.1C703.1,328.5,699.2,328.4,699.3,326z"/>
					<path class="st1" d="M692.7,368.9c0-2.4,3.8-2.3,3.7,0.1C696.4,371.4,692.6,371.3,692.7,368.9z"/>
					<path class="st1" d="M678.7,246.6c0-2.4,3.8-2.3,3.7,0.1C682.4,249.1,678.6,249,678.7,246.6z"/>
					<path class="st1" d="M1224,103.2c0-2.4,3.8-2.3,3.7,0.1C1227.8,105.8,1223.9,105.7,1224,103.2z"/>
					<path class="st1" d="M624.6,296.4c0-3.6,5.8-3.5,5.6,0.1C630.2,300.2,624.5,300,624.6,296.4z"/>
					<path class="st1" d="M536.5,375.4c0-3.6,5.8-3.5,5.6,0.1C542.1,379.2,536.4,379,536.5,375.4z"/>
					<path class="st1" d="M741.5,200.9c0-3.6,5.8-3.5,5.6,0.1C747.1,204.7,741.3,204.6,741.5,200.9z"/>
					<path class="st1" d="M1156.9,187.7c0-3.6,5.8-3.5,5.6,0.1C1162.5,191.5,1156.8,191.3,1156.9,187.7z"/>
					<path class="st1" d="M1154.4,58.8c0-3.6,5.8-3.5,5.6,0.1C1160,62.6,1154.3,62.4,1154.4,58.8z"/>
					<path class="st1" d="M661.7,265.6c0-4.9,7.7-4.7,7.5,0.2C669.1,270.7,661.5,270.5,661.7,265.6z"/>
					<path class="st1" d="M753.2,292c0-4.9,7.7-4.7,7.5,0.2C760.6,297,753,296.8,753.2,292z"/>
					<path class="st1" d="M857,256.6c0-4.9,7.7-4.7,7.5,0.2C864.4,261.6,856.8,261.5,857,256.6z"/>
					<path class="st1" d="M1018,147.5c0-4.9,7.7-4.7,7.5,0.2C1025.5,152.6,1017.8,152.4,1018,147.5z"/>
					<path class="st1" d="M1116.2,315c0-4.9,7.7-4.7,7.5,0.2C1123.6,320,1116,319.9,1116.2,315z"/>
					<path class="st1" d="M1084.8,416.4c0-4.9,7.7-4.7,7.5,0.2C1092.2,421.5,1084.6,421.3,1084.8,416.4z"/>
					<path class="st1" d="M1193.9,155.6c0-4.9,7.7-4.7,7.5,0.2C1201.3,160.6,1193.7,160.4,1193.9,155.6z"/>
					<path class="st1" d="M378.3,354.8c0-4.9,7.7-4.7,7.5,0.2C385.8,359.9,378.1,359.7,378.3,354.8z"/>
					<path class="st1" d="M333.4,412.1c0-4.9,7.7-4.7,7.5,0.2C340.9,417.1,333.2,416.9,333.4,412.1z"/>
					<path class="st1" d="M470.7,302.9c0-4.9,7.7-4.7,7.5,0.2C478.2,308,470.5,307.8,470.7,302.9z"/>
					<path class="st1" d="M903.9,123.8c0.1-7.3,11.5-7,11.2,0.3C915.1,131.4,903.6,131.1,903.9,123.8z"/>
					<path class="st1" d="M494.4,303.5c0.1-7.3,11.5-7,11.2,0.3C505.6,311.1,494.1,310.8,494.4,303.5z"/>
				</g>
				<path class="st1" d="M2025.8,436c1.1-2.2-2.3-3.9-3.4-1.7C2021.4,436.5,2024.8,438.2,2025.8,436z"/>
				<path class="st1" d="M2040.1,494.9c1.1-2.2-2.3-3.9-3.4-1.7C2035.6,495.4,2039,497.1,2040.1,494.9z"/>
				<path class="st1" d="M2012.5,509.8c1.1-2.2-2.3-3.9-3.4-1.7C2008,510.3,2011.5,512,2012.5,509.8z"/>
				<path class="st1" d="M1778.6,353.5c1.1-2.2-2.3-3.9-3.4-1.7C1774.2,354,1777.6,355.7,1778.6,353.5z"/>
				<path class="st1" d="M1764.7,394.5c1.1-2.2-2.3-3.9-3.4-1.7C1760.2,395,1763.6,396.7,1764.7,394.5z"/>
				<path class="st1" d="M1833.8,292.7c1.1-2.2-2.3-3.9-3.4-1.7C1829.3,293.2,1832.8,294.9,1833.8,292.7z"/>
				<path class="st1" d="M1417.4-87.5c1.1-2.2-2.3-3.9-3.4-1.7C1413-87,1416.4-85.3,1417.4-87.5z"/>
				<path class="st1" d="M1858.6,361.9c1.7-3.2-3.5-5.8-5-2.5C1851.9,362.7,1857,365.2,1858.6,361.9z"/>
				<path class="st1" d="M1899.9,472.8c1.7-3.2-3.5-5.8-5-2.5C1893.2,473.5,1898.3,476.1,1899.9,472.8z"/>
				<path class="st1" d="M1799.4,223.1c1.7-3.2-3.5-5.8-5-2.5C1792.7,223.9,1797.9,226.4,1799.4,223.1z"/>
				<path class="st1" d="M1437.6,18.4c1.7-3.2-3.5-5.8-5-2.5C1430.9,19.2,1436.1,21.7,1437.6,18.4z"/>
				<path class="st1" d="M1499.7-94.6c1.7-3.2-3.5-5.8-5-2.5C1493-93.8,1498.1-91.3,1499.7-94.6z"/>
				<path class="st1" d="M1840,317.5c2.2-4.3-4.6-7.7-6.7-3.3C1831.1,318.5,1837.9,321.9,1840,317.5z"/>
				<path class="st1" d="M1746.8,298.3c2.2-4.3-4.6-7.7-6.7-3.3C1737.8,299.3,1744.7,302.7,1746.8,298.3z"/>
				<path class="st1" d="M1671.3,218.8c2.2-4.3-4.6-7.7-6.7-3.3C1662.3,219.8,1669.2,223.2,1671.3,218.8z"/>
				<path class="st1" d="M1579.3,47.4c2.2-4.3-4.6-7.7-6.7-3.3C1570.4,48.4,1577.2,51.8,1579.3,47.4z"/>
				<path class="st1" d="M1414.6,150.1c2.2-4.3-4.6-7.7-6.7-3.3C1405.7,151.1,1412.5,154.5,1414.6,150.1z"/>
				<path class="st1" d="M1395.3,254.5c2.2-4.3-4.6-7.7-6.7-3.3C1386.3,255.5,1393.2,258.9,1395.3,254.5z"/>
				<path class="st1" d="M1419.8-27.2c2.2-4.3-4.6-7.7-6.7-3.3C1410.9-26.1,1417.8-22.8,1419.8-27.2z"/>
				<path class="st1" d="M1991.8,439.2c2.2-4.3-4.6-7.7-6.7-3.3C1982.9,440.2,1989.7,443.6,1991.8,439.2z"/>
				<path class="st1" d="M1691.4,79.4c3.3-6.5-7-11.6-10.1-5C1678,80.9,1688.2,86,1691.4,79.4z"/>
				<path class="st1" d="M1970.6,428.7c3.3-6.5-7-11.6-10.1-5C1957.2,430.2,1967.4,435.3,1970.6,428.7z"/>
				<path class="st1" d="M490,26.3c0.1-2.4-3.7-2.5-3.7-0.1C486.2,28.7,490,28.8,490,26.3z"/>
				<path class="st1" d="M527.7,73.7c0.1-2.4-3.7-2.5-3.7-0.1C523.8,76.1,527.7,76.2,527.7,73.7z"/>
				<path class="st1" d="M508.9,98.8c0.1-2.4-3.7-2.5-3.7-0.1C505.1,101.2,508.9,101.3,508.9,98.8z"/>
				<path class="st1" d="M231,55.3c0.1-2.4-3.7-2.5-3.7-0.1C227.2,57.7,231,57.8,231,55.3z"/>
				<path class="st1" d="M235.6,98.5c0.1-2.4-3.7-2.5-3.7-0.1C231.7,100.8,235.6,100.9,235.6,98.5z"/>
				<path class="st1" d="M255.5-23c0.1-2.4-3.7-2.5-3.7-0.1C251.7-20.6,255.5-20.5,255.5-23z"/>
				<path class="st1" d="M307.1,29.4c0.1-3.6-5.6-3.8-5.6-0.1C301.3,32.9,307.1,33.1,307.1,29.4z"/>
				<path class="st1" d="M391.2,112.6c0.1-3.6-5.6-3.8-5.6-0.1C385.4,116.1,391.2,116.3,391.2,112.6z"/>
				<path class="st1" d="M195.1-71.7c0.1-3.6-5.6-3.8-5.6-0.1C189.3-68.1,195-68,195.1-71.7z"/>
				<path class="st1" d="M271.6-3.1c0.2-4.9-7.5-5-7.5-0.2C263.9,1.5,271.5,1.7,271.6-3.1z"/>
				<path class="st1" d="M178.9,18.7c0.2-4.9-7.5-5-7.5-0.2C171.2,23.4,178.9,23.6,178.9,18.7z"/>
				<path class="st1" d="M77-21.7c0.2-4.9-7.5-5-7.5-0.2C69.3-17,76.9-16.9,77-21.7z"/>
				<path class="st1" d="M550.2,99.8c0.2-4.9-7.5-5-7.5-0.2C542.5,104.5,550.2,104.7,550.2,99.8z"/>
				<path class="st1" d="M592.3,159.2c0.2-4.9-7.5-5-7.5-0.2C584.6,163.9,592.2,164.1,592.3,159.2z"/>
				<path class="st1" d="M460.5,43.5c0.2-4.9-7.5-5-7.5-0.2C452.8,48.2,460.4,48.4,460.5,43.5z"/>
				<path class="st1" d="M436.8,42.9c0.3-7.3-11.2-7.6-11.2-0.3C425.3,49.9,436.7,50.2,436.8,42.9z"/>
				<path class="st1" d="M2003.6-209.2c-1.9,1.5,0.6,4.5,2.4,2.9C2007.9-207.9,2005.4-210.8,2003.6-209.2z"/>
				<path class="st1" d="M2233.5,305.6c-1.9,1.5,0.6,4.5,2.4,2.9C2237.8,307,2235.3,304,2233.5,305.6z"/>
				<path class="st1" d="M2007.3-131.7c-2.8,2.3,0.9,6.7,3.6,4.3C2013.8-129.7,2010.1-134.1,2007.3-131.7z"/>
				<path class="st1" d="M2257.3,200.4c-2.8,2.3,0.9,6.7,3.6,4.3C2263.7,202.4,2260,198,2257.3,200.4z"/>
				<path class="st1" d="M2155.2,279.3c-2.8,2.3,0.9,6.7,3.6,4.3C2161.7,281.2,2158,276.9,2155.2,279.3z"/>
				<path class="st1" d="M2085.6-179.6c-3.8,3.1,1.2,8.9,4.8,5.7C2094.2-177,2089.3-182.8,2085.6-179.6z"/>
				<path class="st1" d="M2123.1-76.5c-3.8,3.1,1.2,8.9,4.8,5.7C2131.7-73.9,2126.7-79.7,2123.1-76.5z"/>
				<path class="st1" d="M2138.9,117.3c-3.8,3.1,1.2,8.9,4.8,5.7C2147.5,120,2142.6,114.1,2138.9,117.3z"/>
				<path class="st1" d="M2331,88.9c-3.8,3.1,1.2,8.9,4.8,5.7C2339.6,91.5,2334.6,85.7,2331,88.9z"/>
				<path class="st1" d="M2390.4,0.9c-3.8,3.1,1.2,8.9,4.8,5.7C2399,3.5,2394.1-2.3,2390.4,0.9z"/>
				<path class="st1" d="M2255.4,249.3c-3.8,3.1,1.2,8.9,4.8,5.7C2264,252,2259,246.1,2255.4,249.3z"/>
				<path class="st1" d="M2049,43.2c-5.6,4.6,1.8,13.4,7.3,8.6C2061.9,47.2,2054.5,38.5,2049,43.2z"/>
				<path class="st1" d="M2898.9,425.8c1.9-1.5-0.5-4.5-2.4-2.9C2894.7,424.4,2897.1,427.4,2898.9,425.8z"/>
				<path class="st1" d="M2869.1,457.3c1.9-1.5-0.5-4.5-2.4-2.9C2864.8,455.9,2867.3,458.9,2869.1,457.3z"/>
				<path class="st1" d="M2974.4,393.6c1.9-1.5-0.5-4.5-2.4-2.9C2970.1,392.2,2972.5,395.2,2974.4,393.6z"/>
				<path class="st1" d="M2754.4-125.6c1.9-1.5-0.5-4.5-2.4-2.9C2750.2-127,2752.6-124,2754.4-125.6z"/>
				<path class="st1" d="M2968.1,466.9c2.9-2.3-0.7-6.7-3.5-4.4C2961.6,464.7,2965.3,469.2,2968.1,466.9z"/>
				<path class="st1" d="M2972.2,316c2.9-2.3-0.7-6.7-3.5-4.4C2965.7,313.9,2969.4,318.4,2972.2,316z"/>
				<path class="st1" d="M2728.6-20.8c2.9-2.3-0.7-6.7-3.5-4.4C2722.2-22.9,2725.8-18.5,2728.6-20.8z"/>
				<path class="st1" d="M2832.2-97.7c2.9-2.3-0.7-6.7-3.5-4.4C2825.8-99.8,2829.4-95.4,2832.2-97.7z"/>
				<path class="st1" d="M2969.7,418.7c3.8-3-1-8.9-4.7-5.8C2961.2,415.9,2966,421.8,2969.7,418.7z"/>
				<path class="st1" d="M2893,362.4c3.8-3-1-8.9-4.7-5.8C2884.4,359.6,2889.2,365.5,2893,362.4z"/>
				<path class="st1" d="M2857.5,258.6c3.8-3-1-8.9-4.7-5.8C2848.9,255.8,2853.8,261.8,2857.5,258.6z"/>
				<path class="st1" d="M2845.4,64.5c3.8-3-1-8.9-4.7-5.8C2836.8,61.7,2841.6,67.6,2845.4,64.5z"/>
				<path class="st1" d="M2652.8,89.2c3.8-3-1-8.9-4.7-5.8C2644.3,86.4,2649.1,92.3,2652.8,89.2z"/>
				<path class="st1" d="M2591.7,176.1c3.8-3-1-8.9-4.7-5.8C2583.2,173.3,2588,179.2,2591.7,176.1z"/>
				<path class="st1" d="M2731.5-69.7c3.8-3-1-8.9-4.7-5.8C2722.9-72.5,2727.8-66.6,2731.5-69.7z"/>
				<path class="st1" d="M2933.9,140.3c5.7-4.5-1.5-13.4-7.1-8.7C2921,136.1,2928.3,145,2933.9,140.3z"/>
			</g>
		</g>
	</g>
	<path class="st4" d="M3000,0v528.6c-1.8,0.5-3.7,1-5.6,1.5c-0.4,0.1-0.7,0.2-1.1,0.3c-1.7,0.4-3.4,0.9-5.1,1.3
		c-4.6,1.2-9.2,2.3-13.9,3.3c-2.3,0.5-4.7,1.1-7,1.6c-2.1,0.5-4.2,0.9-6.4,1.3c-2.8,0.6-5.7,1.2-8.5,1.7
		c-40.6,7.8-82.6,11.9-125.5,11.9c-327.5,0-599.2-238.7-650.6-551.6H3000z"/>
	<g>
		<path class="st5" d="M3000,0v500.5c-1.7,0.5-3.5,1-5.3,1.4c-0.4,0.1-0.7,0.2-1.1,0.3c-1.6,0.4-3.2,0.8-4.8,1.2
			c-4.4,1.1-8.7,2.2-13.1,3.2c-2.2,0.5-4.4,1-6.6,1.5c-2,0.4-4,0.9-6,1.3c-2.7,0.6-5.4,1.1-8,1.6c-38.5,7.4-78.2,11.3-118.8,11.3
			c-310,0-567.3-226-615.9-522.2H3000z"/>
		<path class="st4" d="M2772.7,51.1c-55.3,0-100.2,44.9-100.2,100.2c0,55.3,44.9,100.2,100.2,100.2c55.3,0,100.2-44.9,100.2-100.2
			C2872.9,95.9,2828,51.1,2772.7,51.1z M2517.8,192.3c-32.6,0-59.1,26.4-59.1,59.1c0,32.6,26.5,59.1,59.1,59.1
			c32.6,0,59.1-26.5,59.1-59.1C2576.9,218.8,2550.4,192.3,2517.8,192.3z M2918.7,390.2c0,44.6,13.3,86.1,36.3,120.8
			c2.7-0.5,5.4-1.1,8-1.6c2-0.4,4-0.8,6-1.3c2.2-0.5,4.4-1,6.6-1.5c4.4-1,8.8-2.1,13.1-3.2c1.6-0.4,3.2-0.8,4.8-1.2
			c0.4-0.1,0.7-0.2,1.1-0.3c1.8-0.5,3.5-0.9,5.3-1.4V219.8C2950.4,260,2918.7,321.4,2918.7,390.2z"/>
	</g>
	<g>
		<defs>
			<rect id="SVGID_3_" width="3000" height="1687.5"/>
		</defs>
		<clipPath id="SVGID_4_">
			<use xlink:href="#SVGID_3_"  style="overflow:visible;"/>
		</clipPath>
		<g class="st6">
			<path class="st7" d="M1612.4,1276.5l481.4,785.6c-50.7,60-407.3-109-448.6-39.7l-240.5-59.4c0,0-67.8,18.5-172.8,38.6
				l-427.1-260.4L717,1588.4L610.5,1605l-189-243.7h-78.5l-91.8-54.5l-20.2,17L11.8,1508.2l-28.3,7.2l107.7-340.2l112.3-15.1
				l-5.3-89.3l212.9-155.9l161.3,88.3l50.2,85.7l-77.1,277l325.8-523.7l82.7-107.6l111.3,17.2l-168.5,390L1140,763.3l431.3-533
				l54.3,119.7l-83.8,162l125.1,90.1l-26.6,49.2l339.3,289.2L1620.4,777l-78.5,264.9l-49.2,59l85.1,118.1l62.6,12.1L1612.4,1276.5z"
				/>
			<path class="st8" d="M3567.4,1958.3c-196.2,92.5-1150.1,64.7-1287.7,146.1c-125,74-89-157.2-185.9-42.3l-481.4-785.6l27.9-45.4
				l-62.6-12.1l-85.1-118.1l49.2-59l78.5-264.9l359.2,163.5l-339.3-289.2l26.6-49.2L1541.9,512l83.8-162l-54.3-119.7l1.1-1.4
				l617.3,437.5l110.4-59.1l67.9,71.2L3567.4,1958.3z"/>
			<polygon class="st8" points="1140,763.3 896.6,1141.8 1065.1,751.7 			"/>
			<polygon class="st8" points="545.3,1365.8 622.5,1088.8 572.3,1003 695.7,1070.6 871.1,842.2 			"/>
			<path class="st7" d="M335.9,1984.4c-206.7-70.1-378.2-180.3-559.9-260.6v-156.4l207.4-52.2h0l28.3-7.2l219.3-184.4l-37,146.5
				l51.9,30.2L66.3,1692.8l178.3-69.6l-55.9,99.9l47.9-33.3L335.9,1984.4z"/>
			<path class="st8" d="M1231.9,2001.7c-190,36.3-501.8,77.6-753.1,22.7c-49.7-10.8-97.1-24.4-142.8-39.9l-99.3-294.7l-47.9,33.3
				l55.9-99.9l-178.3,69.6L246,1500.5l-51.9-30.2l37-146.5l20.2-17l91.8,54.5h78.5l189,243.7l106.4-16.7l87.8,152.9L1231.9,2001.7z"
				/>
		</g>
	</g>
	<g>
		<path class="st8" d="M686.8,203.7c0,61.3-49.7,110.9-111,110.9c-22.8,0-43.9-6.9-61.5-18.6c-7.6-5-14.5-11-20.6-17.7
			c-8.5-9.3-15.4-20.1-20.3-31.9c-3.4-8.3-5.9-17-7.3-26.1c-0.8-5.4-1.2-10.9-1.2-16.5c0-61.3,49.7-111,110.9-111
			c22.8,0,44,6.9,61.6,18.6c7.6,5,14.5,11,20.6,17.7c8.5,9.3,15.4,20.1,20.3,31.9c3.5,8.3,5.9,17,7.3,26.2
			C686.4,192.6,686.8,198.1,686.8,203.7z"/>
		<g>
			<path class="st7" d="M678.3,161c-21.7,21.7-52.4,45.6-86.8,67.4c-34.3,21.8-69,39.5-97.8,49.9c6.1,6.7,13,12.7,20.6,17.7
				c4.4-1.8,8.8-3.7,13.3-5.7c27.6-12.4,55.4-28.2,76.8-41.7c31.2-19.8,59.4-41.2,81.2-61.4C684.3,178,681.8,169.3,678.3,161z"/>
			<path class="st7" d="M699.8,173.2c-4.4,4.6-9.1,9.2-14.2,14c-1.4-9.1-3.8-17.9-7.3-26.2c0.3-0.3,0.6-0.6,0.9-0.9
				c23.2-23.4,27.6-36.2,27.4-39.5c-2.9-1.6-16.3-3-47.4,8.1c-0.4,0.1-0.8,0.3-1.3,0.5c-6.1-6.7-13-12.7-20.6-17.7
				c40-16.3,77-23.5,89.5-3.7C736.5,122.7,727.6,144.1,699.8,173.2z"/>
			<path class="st7" d="M514.3,296c-22.9,9.3-44.8,15.7-61.7,15.7c-12.6,0-22.5-3.5-27.8-12c-12.5-19.8,9.6-50.2,41.4-79.5
				c1.4,9.1,3.9,17.9,7.3,26.1c-0.3,0.3-0.6,0.6-0.9,0.9c-23.2,23.5-27.6,36.2-27.4,39.5c2.9,1.6,16.3,3,47.4-8.1
				c0.4-0.1,0.8-0.3,1.3-0.5C499.9,285,506.8,291,514.3,296z"/>
		</g>
	</g>
	<g>
		<line class="st9" x1="158.1" y1="1153" x2="158.1" y2="944"/>
		<g>
			<path class="st10" d="M579.1,879.2c-0.9-4.2-5.2-9.1-5.2-9.1l-1.1,1.5c-0.9-1.5-2.2-2.8-3.8-2.5c-0.2,0-0.3,0.1-0.4,0.1
				c-2.8-4.1-7.1-7-13.7-6.4c-4.8,0.4-8.1,2.5-10.5,5.4c0.9-1.9,1.3-3.7-0.1-4.1c-1.3-0.4-2.4,0.5-3.2,1.6c-1.1-4.2-5.1-5.5-8.7-2.6
				c-4.1,3.3,1.5,9.5,1.5,9.5s-5.2,1.7-9.8,4.9c-2.7,1.9-5.9,5.9-8,8.9c-1.5,2.1-1.2,5,0.7,6.8c1,1,2.4,2.2,4,3.8
				c2.8,2.6,8,5.5,12.1,7.5c0,0,0,0,0,0c-0.8,8.7-1.3,27.2,7.3,28.3c0.2,0,0.4,0.1,0.7,0.1c0,0.2,0.1,0.3,0.1,0.5
				c-1.1-0.1-1.8-0.1-1.8-0.1s-1.3-0.4-1,3.1c0.1,1.3,0.6,2.2,1.3,2.8c-0.1,21.2,6.9,31.3,6.9,31.3l2.9,14.3c-0.6,1-2,3.4-1.9,6.4
				l0.2,1.7l10.3-1l2.8-0.3c0,0-1-6.2-2.3-7.9l0.5-12.5c0.5-1.2,1-17,1-17c3,4.4,6.9,10.8,8.4,14.2c1.5,3.4,5.5,18,5.5,18l0.1,0
				c-0.6,1.2-1.2,3-1.2,5.1l0.2,1.7l10.3-1l2.8-0.3c0,0-0.6-3.6-1.4-6.1l0.2,0c0.7-4.9-1.4-22.4-1.4-22.4c0-9.4-3.9-19.7-3.9-19.7
				l0.3-6c0.3-0.1,0.5-0.1,0.5-0.1s1-0.2,1-1.8c0-1.4-0.1-3.5-1.5-3.9c0-4.3,0.1-11.9,0-19.1c4.9-4.6,20.4-19.4,23.1-26
				C605.7,879.5,583.3,879.2,579.1,879.2z M574.3,918.9c0.3,2.7,0.1,5.6-1.3,7C574.4,924.5,574.6,921.6,574.3,918.9z M542.6,871
				c-0.2,0.4-0.5,0.9-0.7,1.4c0-0.2,0-0.4-0.1-0.6C542.1,871.6,542.3,871.3,542.6,871z M525.6,888.7c2.1-3.7,11.3-9.2,11.3-9.2
				l0-0.1c1.1-0.3,2.2-1.2,3.4-1.9c-1.9,8.5-0.5,17.4-0.5,17.4s0.1,0.2,0.3,0.5c-0.2,0-0.4,0.1-0.5,0.1c-0.4,0.1-0.8,0.2-1.1,0.2
				c0,0,0,0,0,0C534.7,891.6,525.6,888.7,525.6,888.7z M533.3,899.9C533.3,899.9,533.3,899.9,533.3,899.9
				C533.3,899.9,533.3,899.9,533.3,899.9z M537.9,895.9C537.9,895.9,537.9,895.9,537.9,895.9C537.9,895.9,537.9,895.9,537.9,895.9z
				 M537.5,896C537.5,896,537.4,896,537.5,896C537.4,896,537.5,896,537.5,896z M537.1,896.2C537,896.2,537,896.2,537.1,896.2
				C537,896.2,537,896.2,537.1,896.2z M536.6,896.3C536.6,896.3,536.6,896.4,536.6,896.3C536.6,896.4,536.6,896.3,536.6,896.3z
				 M536.3,896.5C536.2,896.5,536.2,896.5,536.3,896.5C536.2,896.5,536.2,896.5,536.3,896.5z M535.9,896.7
				C535.9,896.7,535.9,896.7,535.9,896.7C535.9,896.7,535.9,896.7,535.9,896.7z M535.6,896.8C535.6,896.8,535.5,896.8,535.6,896.8
				C535.5,896.8,535.6,896.8,535.6,896.8z M535.3,897C535.3,897,535.3,897,535.3,897C535.3,897,535.3,897,535.3,897z M535,897.2
				C535,897.2,535,897.2,535,897.2C535,897.2,535,897.2,535,897.2z M534.8,897.3C534.8,897.4,534.8,897.4,534.8,897.3
				C534.8,897.4,534.8,897.4,534.8,897.3z M534.6,897.5C534.5,897.5,534.5,897.5,534.6,897.5C534.5,897.5,534.5,897.5,534.6,897.5z
				 M533.5,898.8C533.5,898.8,533.5,898.8,533.5,898.8C533.5,898.8,533.5,898.8,533.5,898.8z M533.5,899
				C533.5,899,533.4,899,533.5,899C533.4,899,533.5,899,533.5,899z M533.4,899.1C533.4,899.1,533.4,899.1,533.4,899.1
				C533.4,899.1,533.4,899.1,533.4,899.1z M533.4,899.2C533.4,899.2,533.4,899.2,533.4,899.2C533.4,899.2,533.4,899.2,533.4,899.2z
				 M533.3,899.3C533.3,899.3,533.3,899.4,533.3,899.3C533.3,899.4,533.3,899.3,533.3,899.3z M533.3,899.4
				C533.3,899.5,533.3,899.5,533.3,899.4C533.3,899.5,533.3,899.5,533.3,899.4z M533.3,899.5C533.3,899.6,533.3,899.6,533.3,899.5
				C533.3,899.6,533.3,899.6,533.3,899.5z M533.3,899.6C533.3,899.6,533.3,899.7,533.3,899.6C533.3,899.7,533.3,899.6,533.3,899.6z
				 M533.3,899.7C533.3,899.7,533.3,899.7,533.3,899.7C533.3,899.7,533.3,899.7,533.3,899.7z M533.3,899.8
				C533.3,899.8,533.3,899.8,533.3,899.8C533.3,899.8,533.3,899.8,533.3,899.8z M533.3,899.8C533.3,899.8,533.3,899.8,533.3,899.8
				C533.3,899.8,533.3,899.8,533.3,899.8z M533.3,899.9C533.3,899.9,533.3,899.9,533.3,899.9C533.3,899.9,533.3,899.9,533.3,899.9z
				 M533.3,900C533.3,899.9,533.3,899.9,533.3,900L533.3,900C533.3,899.9,533.3,899.9,533.3,900z M532.8,903.9
				C532.8,903.9,532.8,903.9,532.8,903.9C532.8,903.9,532.8,903.9,532.8,903.9z M532.9,903.4C532.9,903.4,532.9,903.4,532.9,903.4
				C532.9,903.4,532.9,903.4,532.9,903.4z M532.9,903C532.9,903,532.9,903,532.9,903C532.9,903,532.9,903,532.9,903z M533,902.6
				C533,902.6,533,902.6,533,902.6C533,902.6,533,902.6,533,902.6z M578.2,894.3c-1.4-4.2-3.9-4.7-4.6-4.8c0-1,0-2.7-0.2-4.9
				c1.1,0.8,1.9,1.3,1.9,1.3s12.6,3.4,14.2,3.2L578.2,894.3z"/>
			<path class="st11" d="M585.8,991.7l-13.1,1.3l-0.2-1.7c0-0.3,0-0.5,0-0.8l12.8-1.3C585.6,990.6,585.8,991.7,585.8,991.7z"/>
			<line class="st9" x1="544.8" y1="992" x2="557.6" y2="990.7"/>
			<g>
				<path class="st11" d="M561,930.2c6-1.6,10.5-3.3,10.5-3.3c5-1.7,1.3-14,1.3-14s-4.3-17.9-8-18.6c-2.2-0.4-8.4-0.3-14.5,0.1
					c0.9,0,1.6-0.1,2.3-0.1c6.7,0,6.9,3.1,6.9,3.1S569.2,924.2,561,930.2z"/>
				<path class="st11" d="M547,990.8c0,0.3,0,0.5,0,0.8l0.2,1.7l13.1-1.3c0,0-0.2-1.1-0.5-2.4L547,990.8z"/>
			</g>
		</g>
		<g>
			<path class="st10" d="M579.9,779.9c-0.5-4.3-4.3-9.6-4.3-9.6l-1.3,1.4c-0.7-1.6-1.9-3-3.5-2.8c-0.2,0-0.3,0-0.5,0.1
				c-2.4-4.4-6.3-7.7-13-7.7c-4.8,0-8.3,1.7-11,4.4c1.1-1.8,1.6-3.6,0.3-4.1c-1.3-0.5-2.4,0.3-3.3,1.3c-0.7-4.3-4.5-6-8.4-3.4
				c-4.4,2.8,0.5,9.6,0.5,9.6s-5.3,1.2-10.3,3.9c-2.9,1.6-6.4,5.3-8.8,8c-1.7,1.9-1.7,4.8,0,6.8c0.9,1.1,2.1,2.5,3.6,4.2
				c2.6,2.9,7.4,6.3,11.3,8.7c0,0,0,0,0,0c-1.6,8.6-4,26.9,4.5,28.9c0.2,0.1,0.4,0.1,0.7,0.1c0,0.2,0,0.3,0,0.5
				c-1.1-0.2-1.7-0.3-1.7-0.3s-1.3-0.5-1.3,2.9c0,1.3,0.4,2.2,1,2.9c-2.2,21.1,3.7,31.8,3.7,31.8l1.5,14.5c-0.7,0.9-2.3,3.2-2.5,6.2
				v1.7h10.3h2.8c0,0-0.4-6.2-1.5-8l1.8-12.4c0.6-1.2,2.7-16.9,2.7-16.9c2.5,4.7,5.8,11.4,7,14.9c1.2,3.5,3.7,18.4,3.7,18.4l0.1,0
				c-0.7,1.2-1.5,2.9-1.7,5v1.7h10.3h2.8c0,0-0.2-3.7-0.8-6.2l0.2,0c1.2-4.8,0.8-22.4,0.8-22.4c1-9.3-1.9-20-1.9-20l0.8-5.9
				c0.3,0,0.5,0,0.5,0s1-0.1,1.2-1.7c0.2-1.4,0.3-3.4-1.1-4c0.5-4.3,1.3-11.8,1.9-19c5.4-4.1,22.3-17.3,25.6-23.6
				C606.2,782.8,584,780.3,579.9,779.9z M571.1,819c0,2.7-0.5,5.6-2,6.9C570.7,824.6,571.1,821.7,571.1,819z M544.3,768.1
				c-0.3,0.4-0.6,0.9-0.8,1.3c0-0.2,0-0.4,0-0.6C543.8,768.6,544,768.4,544.3,768.1z M525.6,784.1c2.5-3.5,12.1-8,12.1-8l0-0.1
				c1.1-0.2,2.3-1,3.6-1.6c-2.8,8.2-2.3,17.3-2.3,17.3s0.1,0.2,0.2,0.5c-0.2,0-0.4,0-0.5,0c-0.4,0-0.8,0.1-1.1,0.1c0,0,0,0,0,0
				C534.4,787.9,525.6,784.1,525.6,784.1z M532.2,795.9C532.2,796,532.2,796,532.2,795.9C532.2,796,532.2,796,532.2,795.9z
				 M537.2,792.4C537.2,792.4,537.1,792.4,537.2,792.4C537.1,792.4,537.2,792.4,537.2,792.4z M536.7,792.5
				C536.7,792.5,536.7,792.5,536.7,792.5C536.7,792.5,536.7,792.5,536.7,792.5z M536.3,792.6C536.3,792.6,536.2,792.6,536.3,792.6
				C536.2,792.6,536.3,792.6,536.3,792.6z M535.9,792.7C535.8,792.7,535.8,792.7,535.9,792.7C535.8,792.7,535.8,792.7,535.9,792.7z
				 M535.5,792.9C535.4,792.9,535.4,792.9,535.5,792.9C535.4,792.9,535.4,792.9,535.5,792.9z M535.1,793
				C535.1,793,535.1,793,535.1,793C535.1,793,535.1,793,535.1,793z M534.8,793.1C534.7,793.1,534.7,793.1,534.8,793.1
				C534.7,793.1,534.7,793.1,534.8,793.1z M534.5,793.3C534.4,793.3,534.4,793.3,534.5,793.3C534.4,793.3,534.4,793.3,534.5,793.3z
				 M534.2,793.4C534.2,793.4,534.1,793.4,534.2,793.4C534.1,793.4,534.2,793.4,534.2,793.4z M533.9,793.6
				C533.9,793.6,533.9,793.6,533.9,793.6C533.9,793.6,533.9,793.6,533.9,793.6z M533.7,793.7C533.7,793.7,533.7,793.7,533.7,793.7
				C533.7,793.7,533.7,793.7,533.7,793.7z M532.5,794.9C532.5,794.9,532.5,794.9,532.5,794.9C532.5,794.9,532.5,794.9,532.5,794.9z
				 M532.4,795C532.4,795,532.4,795,532.4,795C532.4,795,532.4,795,532.4,795z M532.4,795.2C532.4,795.2,532.4,795.2,532.4,795.2
				C532.4,795.2,532.4,795.2,532.4,795.2z M532.3,795.3C532.3,795.3,532.3,795.3,532.3,795.3C532.3,795.3,532.3,795.3,532.3,795.3z
				 M532.3,795.4C532.3,795.4,532.3,795.4,532.3,795.4C532.3,795.4,532.3,795.4,532.3,795.4z M532.2,795.5
				C532.2,795.5,532.2,795.5,532.2,795.5C532.2,795.5,532.2,795.5,532.2,795.5z M532.2,795.6C532.2,795.6,532.2,795.6,532.2,795.6
				C532.2,795.6,532.2,795.6,532.2,795.6z M532.2,795.7C532.2,795.7,532.2,795.7,532.2,795.7C532.2,795.7,532.2,795.7,532.2,795.7z
				 M532.2,795.8C532.2,795.8,532.2,795.8,532.2,795.8C532.2,795.8,532.2,795.8,532.2,795.8z M532.2,795.8
				C532.2,795.8,532.2,795.8,532.2,795.8C532.2,795.8,532.2,795.8,532.2,795.8z M532.2,795.9C532.2,795.9,532.2,795.9,532.2,795.9
				C532.2,795.9,532.2,795.9,532.2,795.9z M532.2,795.9C532.2,795.9,532.2,795.9,532.2,795.9C532.2,795.9,532.2,795.9,532.2,795.9z
				 M532.1,796C532.2,796,532.2,796,532.1,796L532.1,796C532.2,796,532.2,796,532.1,796z M531.3,799.9
				C531.3,799.9,531.3,799.9,531.3,799.9C531.3,799.9,531.3,799.9,531.3,799.9z M531.4,799.4C531.4,799.4,531.4,799.4,531.4,799.4
				C531.4,799.4,531.4,799.4,531.4,799.4z M531.5,799C531.5,799,531.5,799,531.5,799C531.5,799,531.5,799,531.5,799z M531.6,798.6
				C531.6,798.6,531.6,798.6,531.6,798.6C531.6,798.6,531.6,798.6,531.6,798.6z M577.4,794.8c-1-4.4-3.4-5.1-4.1-5.2
				c0.1-1,0.2-2.7,0.2-4.9c1.1,0.9,1.8,1.4,1.8,1.4s12.2,4.7,13.8,4.7L577.4,794.8z"/>
			<path class="st11" d="M575.2,892.5h-13.2v-1.7c0-0.3,0.1-0.5,0.1-0.8H575C575.2,891.5,575.2,892.5,575.2,892.5z"/>
			<line class="st9" x1="534.4" y1="888.7" x2="547.3" y2="888.7"/>
			<g>
				<path class="st11" d="M556.7,828.8c6.1-1,10.8-2.2,10.8-2.2c5.1-1.2,2.7-13.8,2.7-13.8s-2.5-18.2-6.1-19.3
					c-2.1-0.6-8.3-1.1-14.4-1.3c0.9,0,1.6,0.1,2.3,0.2c6.7,0.6,6.6,3.7,6.6,3.7S565.5,823.7,556.7,828.8z"/>
				<path class="st11" d="M536.8,887.7c0,0.3-0.1,0.5-0.1,0.8v1.7h13.2c0,0-0.1-1.1-0.2-2.4H536.8z"/>
			</g>
		</g>
		<g>
			<path class="st10" d="M587.1,680.8c-0.2-4.3-3.6-9.9-3.6-9.9l-1.3,1.3c-0.6-1.6-1.7-3.1-3.3-3.1c-0.2,0-0.3,0-0.5,0
				c-2-4.5-5.8-8.1-12.5-8.6c-4.8-0.4-8.4,1.1-11.2,3.6c1.2-1.7,1.9-3.5,0.6-4.1c-1.2-0.6-2.4,0.1-3.4,1c-0.4-4.3-4.1-6.3-8.2-4
				c-4.6,2.5-0.1,9.6-0.1,9.6s-5.4,0.8-10.5,3.2c-3,1.4-6.8,4.8-9.4,7.4c-1.8,1.8-2,4.7-0.5,6.8c0.9,1.2,2,2.6,3.3,4.4
				c2.4,3.1,7,6.8,10.7,9.4c0,0,0,0,0,0c-2.2,8.5-5.8,26.6,2.5,29.1c0.2,0.1,0.4,0.1,0.7,0.2c0,0.2,0,0.3,0,0.5
				c-1.1-0.2-1.7-0.4-1.7-0.4s-1.2-0.6-1.5,2.9c-0.1,1.3,0.3,2.3,0.8,2.9c-3.6,20.9,1.6,32,1.6,32l0.5,14.6c-0.8,0.8-2.5,3-2.9,6
				l-0.1,1.7l10.3,0.7l2.8,0.2c0,0,0.1-6.2-0.9-8.1l2.6-12.3c0.7-1.1,3.8-16.6,3.8-16.6c2.2,4.8,5,11.8,5.9,15.4
				c0.9,3.6,2.4,18.6,2.4,18.6l0.1,0c-0.8,1.1-1.7,2.8-2,4.9l-0.1,1.7l10.3,0.7l2.8,0.2c0,0,0-3.7-0.4-6.2l0.2,0
				c1.5-4.8,2.3-22.3,2.3-22.3c1.6-9.2-0.6-20-0.6-20l1.2-5.8c0.3,0,0.5,0,0.5,0s1,0,1.3-1.6c0.3-1.3,0.5-3.4-0.8-4.1
				c0.8-4.2,2.1-11.7,3.2-18.8c5.6-3.7,23.4-15.7,27.2-21.8C613.2,685.5,591.2,681.5,587.1,680.8z M575.7,719.2
				c-0.2,2.7-0.8,5.5-2.5,6.7C574.9,724.7,575.5,721.9,575.7,719.2z M552.4,666.6c-0.3,0.4-0.6,0.8-0.9,1.2c0-0.2,0-0.4,0-0.6
				C551.9,667.1,552.1,666.9,552.4,666.6z M532.7,681.3c2.7-3.3,12.7-7.2,12.7-7.2l0-0.1c1.1-0.1,2.4-0.8,3.7-1.3
				c-3.3,8-3.4,17.1-3.4,17.1s0.1,0.2,0.2,0.5c-0.2,0-0.4,0-0.5,0c-0.4,0-0.8,0-1.1,0.1c0,0,0,0,0,0
				C541.3,685.7,532.7,681.3,532.7,681.3z M538.4,693.6C538.4,693.6,538.4,693.6,538.4,693.6C538.4,693.6,538.4,693.6,538.4,693.6z
				 M543.7,690.4C543.7,690.4,543.6,690.4,543.7,690.4C543.6,690.4,543.7,690.4,543.7,690.4z M543.2,690.5
				C543.2,690.5,543.2,690.5,543.2,690.5C543.2,690.5,543.2,690.5,543.2,690.5z M542.8,690.5c0,0-0.1,0-0.1,0
				C542.7,690.6,542.7,690.6,542.8,690.5z M542.4,690.6C542.3,690.6,542.3,690.6,542.4,690.6C542.3,690.6,542.3,690.6,542.4,690.6z
				 M542,690.7C541.9,690.7,541.9,690.7,542,690.7C541.9,690.7,541.9,690.7,542,690.7z M541.6,690.8
				C541.5,690.8,541.5,690.8,541.6,690.8C541.5,690.8,541.5,690.8,541.6,690.8z M541.2,690.9C541.2,691,541.2,691,541.2,690.9
				C541.2,691,541.2,691,541.2,690.9z M540.9,691.1C540.9,691.1,540.9,691.1,540.9,691.1C540.9,691.1,540.9,691.1,540.9,691.1z
				 M540.6,691.2C540.6,691.2,540.6,691.2,540.6,691.2C540.6,691.2,540.6,691.2,540.6,691.2z M540.3,691.3
				C540.3,691.3,540.3,691.3,540.3,691.3C540.3,691.3,540.3,691.3,540.3,691.3z M540.1,691.5C540.1,691.5,540.1,691.5,540.1,691.5
				C540.1,691.5,540.1,691.5,540.1,691.5z M538.9,692.6C538.8,692.6,538.8,692.6,538.9,692.6C538.8,692.6,538.8,692.6,538.9,692.6z
				 M538.8,692.7C538.8,692.7,538.8,692.7,538.8,692.7C538.8,692.7,538.8,692.7,538.8,692.7z M538.7,692.8
				C538.7,692.8,538.7,692.8,538.7,692.8C538.7,692.8,538.7,692.8,538.7,692.8z M538.6,692.9C538.6,692.9,538.6,692.9,538.6,692.9
				C538.6,692.9,538.6,692.9,538.6,692.9z M538.6,693C538.6,693.1,538.6,693.1,538.6,693C538.6,693.1,538.6,693.1,538.6,693z
				 M538.5,693.1C538.5,693.2,538.5,693.2,538.5,693.1C538.5,693.2,538.5,693.2,538.5,693.1z M538.5,693.2
				C538.5,693.3,538.5,693.3,538.5,693.2C538.5,693.3,538.5,693.3,538.5,693.2z M538.5,693.3C538.5,693.3,538.5,693.3,538.5,693.3
				C538.5,693.3,538.5,693.3,538.5,693.3z M538.5,693.4C538.5,693.4,538.5,693.4,538.5,693.4C538.5,693.4,538.5,693.4,538.5,693.4z
				 M538.5,693.5C538.5,693.5,538.5,693.5,538.5,693.5C538.5,693.5,538.5,693.5,538.5,693.5z M538.4,693.5
				C538.4,693.5,538.4,693.5,538.4,693.5C538.4,693.5,538.4,693.5,538.4,693.5z M538.4,693.6C538.4,693.6,538.4,693.6,538.4,693.6
				C538.4,693.6,538.4,693.6,538.4,693.6z M538.4,693.7C538.4,693.6,538.4,693.6,538.4,693.7L538.4,693.7
				C538.4,693.6,538.4,693.6,538.4,693.7z M537.3,697.5C537.3,697.5,537.3,697.5,537.3,697.5C537.3,697.5,537.3,697.5,537.3,697.5z
				 M537.4,697C537.5,697,537.5,697,537.4,697C537.5,697,537.5,697,537.4,697z M537.6,696.6C537.6,696.6,537.6,696.6,537.6,696.6
				C537.6,696.6,537.6,696.6,537.6,696.6z M537.7,696.2C537.7,696.2,537.7,696.2,537.7,696.2C537.7,696.2,537.7,696.2,537.7,696.2z
				 M583.7,695.6c-0.7-4.4-3-5.3-3.7-5.5c0.2-1,0.4-2.7,0.6-4.9c1,0.9,1.7,1.6,1.7,1.6s11.8,5.5,13.5,5.6L583.7,695.6z"/>
			<path class="st11" d="M574.9,792.9l-13.2-0.9l0.1-1.7c0-0.3,0.1-0.5,0.1-0.8l12.9,0.9C574.9,791.8,574.9,792.9,574.9,792.9z"/>
			<line class="st9" x1="534.4" y1="786.3" x2="547.3" y2="787.2"/>
			<g>
				<path class="st11" d="M560.7,728.1c6.2-0.6,10.9-1.5,10.9-1.5c5.2-0.8,3.6-13.6,3.6-13.6s-1.2-18.4-4.8-19.6
					c-2.1-0.8-8.2-1.7-14.3-2.3c0.9,0.1,1.6,0.2,2.3,0.3c6.7,1.1,6.3,4.2,6.3,4.2S569.8,723.6,560.7,728.1z"/>
				<path class="st11" d="M536.8,785.5c-0.1,0.2-0.1,0.5-0.1,0.8l-0.1,1.7l13.2,0.9c0,0,0-1.1,0-2.4L536.8,785.5z"/>
			</g>
		</g>
		<g>
			<path class="st10" d="M575.8,578.5c-0.9-4.2-5.2-9.1-5.2-9.1l-1.1,1.5c-0.9-1.5-2.2-2.8-3.8-2.5c-0.2,0-0.3,0.1-0.4,0.1
				c-2.8-4.1-7.1-7-13.7-6.4c-4.8,0.4-8.1,2.5-10.5,5.4c0.9-1.9,1.3-3.7-0.1-4.1c-1.3-0.4-2.4,0.5-3.2,1.6c-1.1-4.2-5.1-5.5-8.7-2.6
				c-4.1,3.3,1.5,9.5,1.5,9.5s-5.2,1.7-9.8,4.9c-2.7,1.9-5.9,5.9-8,8.9c-1.5,2.1-1.2,5,0.7,6.8c1,1,2.4,2.2,4,3.8
				c2.8,2.6,8,5.5,12.1,7.5c0,0,0,0,0,0c-0.8,8.7-1.3,27.2,7.3,28.3c0.2,0,0.4,0.1,0.7,0.1c0,0.2,0.1,0.3,0.1,0.5
				c-1.1-0.1-1.8-0.1-1.8-0.1s-1.3-0.4-1,3.1c0.1,1.3,0.6,2.2,1.3,2.8c-0.1,21.2,6.9,31.3,6.9,31.3l2.9,14.3c-0.6,1-2,3.4-1.9,6.4
				l0.2,1.7l10.3-1l2.8-0.3c0,0-1-6.2-2.3-7.9l0.5-12.5c0.5-1.2,1-17,1-17c3,4.4,6.9,10.8,8.4,14.2c1.5,3.4,5.5,18,5.5,18l0.1,0
				c-0.6,1.2-1.2,3-1.2,5.1l0.2,1.7l10.3-1l2.8-0.3c0,0-0.6-3.6-1.4-6.1l0.2,0c0.7-4.9-1.4-22.4-1.4-22.4c0-9.4-3.9-19.7-3.9-19.7
				l0.3-6c0.3-0.1,0.5-0.1,0.5-0.1s1-0.2,1-1.8c0-1.4-0.1-3.5-1.5-3.9c0-4.3,0.1-11.9,0-19.1c4.9-4.6,20.4-19.4,23.1-26
				C602.4,578.8,580,578.5,575.8,578.5z M571,618.3c0.3,2.7,0.1,5.6-1.3,7C571.1,623.9,571.3,621,571,618.3z M539.3,570.4
				c-0.2,0.4-0.5,0.9-0.7,1.4c0-0.2,0-0.4-0.1-0.6C538.8,570.9,539,570.6,539.3,570.4z M522.2,588.1c2.1-3.7,11.3-9.2,11.3-9.2
				l0-0.1c1.1-0.3,2.2-1.2,3.4-1.9c-1.9,8.5-0.5,17.4-0.5,17.4s0.1,0.2,0.3,0.5c-0.2,0-0.4,0.1-0.5,0.1c-0.4,0.1-0.8,0.2-1.1,0.2
				c0,0,0,0,0,0C531.4,591,522.2,588.1,522.2,588.1z M530,599.3C530,599.3,530,599.3,530,599.3C530,599.3,530,599.3,530,599.3z
				 M534.6,595.2C534.6,595.3,534.6,595.3,534.6,595.2C534.6,595.3,534.6,595.3,534.6,595.2z M534.2,595.4
				C534.1,595.4,534.1,595.4,534.2,595.4C534.1,595.4,534.1,595.4,534.2,595.4z M533.7,595.5C533.7,595.5,533.7,595.6,533.7,595.5
				C533.7,595.6,533.7,595.5,533.7,595.5z M533.3,595.7C533.3,595.7,533.3,595.7,533.3,595.7C533.3,595.7,533.3,595.7,533.3,595.7z
				 M532.9,595.8C532.9,595.9,532.9,595.9,532.9,595.8C532.9,595.9,532.9,595.9,532.9,595.8z M532.6,596
				C532.6,596,532.5,596,532.6,596C532.5,596,532.6,596,532.6,596z M532.3,596.2C532.2,596.2,532.2,596.2,532.3,596.2
				C532.2,596.2,532.2,596.2,532.3,596.2z M532,596.4C531.9,596.4,531.9,596.4,532,596.4C531.9,596.4,531.9,596.4,532,596.4z
				 M531.7,596.5C531.7,596.5,531.7,596.5,531.7,596.5C531.7,596.5,531.7,596.5,531.7,596.5z M531.5,596.7
				C531.4,596.7,531.4,596.7,531.5,596.7C531.4,596.7,531.4,596.7,531.5,596.7z M531.2,596.9C531.2,596.9,531.2,596.9,531.2,596.9
				C531.2,596.9,531.2,596.9,531.2,596.9z M530.2,598.2C530.2,598.2,530.2,598.2,530.2,598.2C530.2,598.2,530.2,598.2,530.2,598.2z
				 M530.1,598.3C530.1,598.3,530.1,598.3,530.1,598.3C530.1,598.3,530.1,598.3,530.1,598.3z M530.1,598.4
				C530.1,598.5,530.1,598.5,530.1,598.4C530.1,598.5,530.1,598.5,530.1,598.4z M530,598.6C530,598.6,530,598.6,530,598.6
				C530,598.6,530,598.6,530,598.6z M530,598.7C530,598.7,530,598.7,530,598.7C530,598.7,530,598.7,530,598.7z M530,598.8
				C530,598.8,530,598.8,530,598.8C530,598.8,530,598.8,530,598.8z M530,598.9C530,598.9,530,598.9,530,598.9
				C530,598.9,530,598.9,530,598.9z M530,599C530,599,530,599,530,599C530,599,530,599,530,599z M530,599.1
				C530,599.1,530,599.1,530,599.1C530,599.1,530,599.1,530,599.1z M530,599.1C530,599.1,530,599.2,530,599.1
				C530,599.2,530,599.1,530,599.1z M530,599.2C530,599.2,530,599.2,530,599.2C530,599.2,530,599.2,530,599.2z M530,599.2
				C530,599.2,530,599.2,530,599.2C530,599.2,530,599.2,530,599.2z M529.9,599.3C530,599.3,530,599.3,529.9,599.3L529.9,599.3
				C530,599.3,530,599.3,529.9,599.3z M529.5,603.3C529.5,603.3,529.5,603.3,529.5,603.3C529.5,603.3,529.5,603.3,529.5,603.3z
				 M529.6,602.8C529.6,602.8,529.6,602.8,529.6,602.8C529.6,602.8,529.6,602.8,529.6,602.8z M529.6,602.4
				C529.6,602.3,529.6,602.3,529.6,602.4C529.6,602.3,529.6,602.3,529.6,602.4z M529.6,601.9C529.6,601.9,529.6,601.9,529.6,601.9
				C529.6,601.9,529.6,601.9,529.6,601.9z M574.9,593.6c-1.4-4.2-3.9-4.7-4.6-4.8c0-1,0-2.7-0.2-4.9c1.1,0.8,1.9,1.3,1.9,1.3
				s12.6,3.4,14.2,3.2L574.9,593.6z"/>
			<path class="st11" d="M582.5,691.1l-13.1,1.3l-0.2-1.7c0-0.3,0-0.5,0-0.8l12.8-1.3C582.3,690,582.5,691.1,582.5,691.1z"/>
			<line class="st9" x1="541.5" y1="691.3" x2="554.3" y2="690"/>
			<g>
				<path class="st11" d="M557.7,629.5c6-1.6,10.5-3.3,10.5-3.3c5-1.7,1.3-14,1.3-14s-4.3-17.9-8-18.6c-2.2-0.4-8.4-0.3-14.5,0.1
					c0.9,0,1.6-0.1,2.3-0.1c6.7,0,6.9,3.1,6.9,3.1S565.9,623.6,557.7,629.5z"/>
				<path class="st11" d="M543.7,690.1c0,0.3,0,0.5,0,0.8l0.2,1.7l13.1-1.3c0,0-0.2-1.1-0.5-2.4L543.7,690.1z"/>
			</g>
		</g>
		<g>
			<path class="st10" d="M588.4,1280.1c-0.9-4.2-5.2-9.1-5.2-9.1l-1.1,1.5c-0.9-1.5-2.2-2.8-3.8-2.5c-0.2,0-0.3,0.1-0.4,0.1
				c-2.8-4.1-7.1-7-13.7-6.4c-4.8,0.4-8.1,2.5-10.5,5.4c0.9-1.9,1.3-3.7-0.1-4.1c-1.3-0.4-2.4,0.5-3.2,1.6c-1.1-4.2-5.1-5.5-8.7-2.6
				c-4.1,3.3,1.5,9.5,1.5,9.5s-5.2,1.7-9.8,4.9c-2.7,1.9-5.9,5.9-8,8.9c-1.5,2.1-1.2,5,0.7,6.8c1,1,2.4,2.2,4,3.8
				c2.8,2.6,8,5.5,12.1,7.5c0,0,0,0,0,0c-0.8,8.7-1.3,27.2,7.3,28.3c0.2,0,0.4,0.1,0.7,0.1c0,0.2,0.1,0.3,0.1,0.5
				c-1.1-0.1-1.8-0.1-1.8-0.1s-1.3-0.4-1,3.1c0.1,1.3,0.6,2.2,1.3,2.8c-0.1,21.2,6.9,31.3,6.9,31.3l2.9,14.3c-0.6,1-2,3.4-1.9,6.4
				l0.2,1.7l10.3-1l2.8-0.3c0,0-1-6.2-2.3-7.9l0.5-12.5c0.5-1.2,1-17,1-17c3,4.4,6.9,10.8,8.4,14.2c1.5,3.4,5.5,18,5.5,18l0.1,0
				c-0.6,1.2-1.2,3-1.2,5.1l0.2,1.7l10.3-1l2.8-0.3c0,0-0.6-3.6-1.4-6.1l0.2,0c0.7-4.9-1.4-22.4-1.4-22.4c0-9.4-3.9-19.7-3.9-19.7
				l0.3-6c0.3-0.1,0.5-0.1,0.5-0.1s1-0.2,1-1.8c0-1.4-0.1-3.5-1.5-3.9c0-4.3,0.1-11.9,0-19.1c4.9-4.6,20.4-19.4,23.1-26
				C614.9,1280.4,592.5,1280.1,588.4,1280.1z M583.6,1319.9c0.3,2.7,0.1,5.6-1.3,7C583.7,1325.5,583.8,1322.6,583.6,1319.9z
				 M551.8,1272c-0.2,0.4-0.5,0.9-0.7,1.4c0-0.2,0-0.4-0.1-0.6C551.3,1272.5,551.6,1272.2,551.8,1272z M534.8,1289.7
				c2.1-3.7,11.3-9.2,11.3-9.2l0-0.1c1.1-0.3,2.2-1.2,3.4-1.9c-1.9,8.5-0.5,17.4-0.5,17.4s0.1,0.2,0.3,0.5c-0.2,0-0.4,0.1-0.5,0.1
				c-0.4,0.1-0.8,0.2-1.1,0.2c0,0,0,0,0,0C544,1292.6,534.8,1289.7,534.8,1289.7z M542.5,1300.9
				C542.5,1300.9,542.5,1300.9,542.5,1300.9C542.5,1300.9,542.5,1300.9,542.5,1300.9z M547.2,1296.8
				C547.2,1296.9,547.1,1296.9,547.2,1296.8C547.1,1296.9,547.2,1296.9,547.2,1296.8z M546.7,1297C546.7,1297,546.7,1297,546.7,1297
				C546.7,1297,546.7,1297,546.7,1297z M546.3,1297.1C546.3,1297.1,546.2,1297.2,546.3,1297.1
				C546.2,1297.2,546.3,1297.1,546.3,1297.1z M545.9,1297.3C545.9,1297.3,545.8,1297.3,545.9,1297.3
				C545.8,1297.3,545.9,1297.3,545.9,1297.3z M545.5,1297.4C545.5,1297.5,545.4,1297.5,545.5,1297.4
				C545.4,1297.5,545.5,1297.5,545.5,1297.4z M545.2,1297.6C545.1,1297.6,545.1,1297.6,545.2,1297.6
				C545.1,1297.6,545.1,1297.6,545.2,1297.6z M544.8,1297.8C544.8,1297.8,544.8,1297.8,544.8,1297.8
				C544.8,1297.8,544.8,1297.8,544.8,1297.8z M544.5,1298C544.5,1298,544.5,1298,544.5,1298C544.5,1298,544.5,1298,544.5,1298z
				 M544.3,1298.1C544.2,1298.1,544.2,1298.2,544.3,1298.1C544.2,1298.2,544.2,1298.1,544.3,1298.1z M544,1298.3
				C544,1298.3,544,1298.3,544,1298.3C544,1298.3,544,1298.3,544,1298.3z M543.8,1298.5C543.8,1298.5,543.8,1298.5,543.8,1298.5
				C543.8,1298.5,543.8,1298.5,543.8,1298.5z M542.8,1299.8C542.8,1299.8,542.8,1299.8,542.8,1299.8
				C542.8,1299.8,542.8,1299.8,542.8,1299.8z M542.7,1299.9C542.7,1299.9,542.7,1299.9,542.7,1299.9
				C542.7,1299.9,542.7,1299.9,542.7,1299.9z M542.6,1300C542.6,1300.1,542.6,1300.1,542.6,1300
				C542.6,1300.1,542.6,1300.1,542.6,1300z M542.6,1300.2C542.6,1300.2,542.6,1300.2,542.6,1300.2
				C542.6,1300.2,542.6,1300.2,542.6,1300.2z M542.6,1300.3C542.6,1300.3,542.6,1300.3,542.6,1300.3
				C542.6,1300.3,542.6,1300.3,542.6,1300.3z M542.6,1300.4C542.6,1300.4,542.5,1300.4,542.6,1300.4
				C542.5,1300.4,542.6,1300.4,542.6,1300.4z M542.5,1300.5C542.5,1300.5,542.5,1300.5,542.5,1300.5
				C542.5,1300.5,542.5,1300.5,542.5,1300.5z M542.5,1300.6C542.5,1300.6,542.5,1300.6,542.5,1300.6
				C542.5,1300.6,542.5,1300.6,542.5,1300.6z M542.5,1300.7C542.5,1300.7,542.5,1300.7,542.5,1300.7
				C542.5,1300.7,542.5,1300.7,542.5,1300.7z M542.5,1300.7C542.5,1300.7,542.5,1300.8,542.5,1300.7
				C542.5,1300.8,542.5,1300.7,542.5,1300.7z M542.5,1300.8C542.5,1300.8,542.5,1300.8,542.5,1300.8
				C542.5,1300.8,542.5,1300.8,542.5,1300.8z M542.5,1300.8C542.5,1300.8,542.5,1300.8,542.5,1300.8
				C542.5,1300.8,542.5,1300.8,542.5,1300.8z M542.5,1300.9C542.5,1300.9,542.5,1300.9,542.5,1300.9L542.5,1300.9
				C542.5,1300.9,542.5,1300.9,542.5,1300.9z M542.1,1304.9C542.1,1304.9,542.1,1304.9,542.1,1304.9
				C542.1,1304.9,542.1,1304.9,542.1,1304.9z M542.1,1304.4C542.1,1304.4,542.1,1304.4,542.1,1304.4
				C542.1,1304.4,542.1,1304.4,542.1,1304.4z M542.2,1304C542.2,1303.9,542.2,1303.9,542.2,1304
				C542.2,1303.9,542.2,1303.9,542.2,1304z M542.2,1303.5C542.2,1303.5,542.2,1303.5,542.2,1303.5
				C542.2,1303.5,542.2,1303.5,542.2,1303.5z M587.4,1295.2c-1.4-4.2-3.9-4.7-4.6-4.8c0-1,0-2.7-0.2-4.9c1.1,0.8,1.9,1.3,1.9,1.3
				s12.6,3.4,14.2,3.2L587.4,1295.2z"/>
			<path class="st11" d="M595,1392.7l-13.1,1.3l-0.2-1.7c0-0.3,0-0.5,0-0.8l12.8-1.3C594.9,1391.6,595,1392.7,595,1392.7z"/>
			<line class="st9" x1="554" y1="1392.9" x2="566.9" y2="1391.6"/>
			<g>
				<path class="st11" d="M570.3,1331.1c6-1.6,10.5-3.3,10.5-3.3c5-1.7,1.3-14,1.3-14s-4.3-17.9-8-18.6c-2.2-0.4-8.4-0.3-14.5,0.1
					c0.9,0,1.6-0.1,2.3-0.1c6.7,0,6.9,3.1,6.9,3.1S578.5,1325.2,570.3,1331.1z"/>
				<path class="st11" d="M556.3,1391.7c0,0.3,0,0.5,0,0.8l0.2,1.7l13.1-1.3c0,0-0.2-1.1-0.5-2.4L556.3,1391.7z"/>
			</g>
		</g>
		<g>
			<path class="st10" d="M589.1,1180.8c-0.5-4.3-4.3-9.6-4.3-9.6l-1.3,1.4c-0.7-1.6-1.9-3-3.5-2.8c-0.2,0-0.3,0-0.5,0.1
				c-2.4-4.4-6.3-7.7-13-7.7c-4.8,0-8.3,1.7-11,4.4c1.1-1.8,1.6-3.6,0.3-4.1c-1.3-0.5-2.4,0.3-3.3,1.3c-0.7-4.3-4.5-6-8.4-3.4
				c-4.4,2.8,0.5,9.6,0.5,9.6s-5.3,1.2-10.3,3.9c-2.9,1.6-6.4,5.3-8.8,8c-1.7,1.9-1.7,4.8,0,6.8c0.9,1.1,2.1,2.5,3.6,4.2
				c2.6,2.9,7.4,6.3,11.3,8.7c0,0,0,0,0,0c-1.6,8.6-4,26.9,4.5,28.9c0.2,0.1,0.4,0.1,0.7,0.1c0,0.2,0,0.3,0,0.5
				c-1.1-0.2-1.7-0.3-1.7-0.3s-1.3-0.5-1.3,2.9c0,1.3,0.4,2.2,1,2.9c-2.2,21.1,3.7,31.8,3.7,31.8l1.5,14.5c-0.7,0.9-2.3,3.2-2.5,6.2
				v1.7h10.3h2.8c0,0-0.4-6.2-1.5-8l1.8-12.4c0.6-1.2,2.7-16.9,2.7-16.9c2.5,4.7,5.8,11.4,7,14.9c1.2,3.5,3.7,18.4,3.7,18.4l0.1,0
				c-0.7,1.2-1.5,2.9-1.7,5v1.7h10.3h2.8c0,0-0.2-3.7-0.8-6.2l0.2,0c1.2-4.8,0.8-22.4,0.8-22.4c1-9.3-1.9-20-1.9-20l0.8-5.9
				c0.3,0,0.5,0,0.5,0s1-0.1,1.2-1.7c0.2-1.4,0.3-3.4-1.1-4c0.5-4.3,1.3-11.8,1.9-19c5.4-4.1,22.3-17.3,25.6-23.6
				C615.5,1183.8,593.2,1181.3,589.1,1180.8z M580.4,1219.9c0,2.7-0.5,5.6-2,6.9C579.9,1225.5,580.3,1222.7,580.4,1219.9z
				 M553.5,1169.1c-0.3,0.4-0.6,0.9-0.8,1.3c0-0.2,0-0.4,0-0.6C553,1169.6,553.3,1169.3,553.5,1169.1z M534.8,1185
				c2.5-3.5,12.1-8,12.1-8l0-0.1c1.1-0.2,2.3-1,3.6-1.6c-2.8,8.2-2.3,17.3-2.3,17.3s0.1,0.2,0.2,0.5c-0.2,0-0.4,0-0.5,0
				c-0.4,0-0.8,0.1-1.1,0.1c0,0,0,0,0,0C543.7,1188.8,534.8,1185,534.8,1185z M541.4,1196.9C541.4,1196.9,541.4,1196.9,541.4,1196.9
				C541.4,1196.9,541.4,1196.9,541.4,1196.9z M546.4,1193.4C546.4,1193.4,546.4,1193.4,546.4,1193.4
				C546.4,1193.4,546.4,1193.4,546.4,1193.4z M546,1193.5C545.9,1193.5,545.9,1193.5,546,1193.5
				C545.9,1193.5,545.9,1193.5,546,1193.5z M545.5,1193.6C545.5,1193.6,545.5,1193.6,545.5,1193.6
				C545.5,1193.6,545.5,1193.6,545.5,1193.6z M545.1,1193.7C545.1,1193.7,545,1193.7,545.1,1193.7
				C545,1193.7,545.1,1193.7,545.1,1193.7z M544.7,1193.8C544.7,1193.8,544.7,1193.8,544.7,1193.8
				C544.7,1193.8,544.7,1193.8,544.7,1193.8z M544.3,1193.9C544.3,1194,544.3,1194,544.3,1193.9C544.3,1194,544.3,1194,544.3,1193.9
				z M544,1194.1C544,1194.1,544,1194.1,544,1194.1C544,1194.1,544,1194.1,544,1194.1z M543.7,1194.2
				C543.7,1194.2,543.7,1194.2,543.7,1194.2C543.7,1194.2,543.7,1194.2,543.7,1194.2z M543.4,1194.4
				C543.4,1194.4,543.4,1194.4,543.4,1194.4C543.4,1194.4,543.4,1194.4,543.4,1194.4z M543.1,1194.5
				C543.1,1194.5,543.1,1194.5,543.1,1194.5C543.1,1194.5,543.1,1194.5,543.1,1194.5z M542.9,1194.7
				C542.9,1194.7,542.9,1194.7,542.9,1194.7C542.9,1194.7,542.9,1194.7,542.9,1194.7z M541.7,1195.9
				C541.7,1195.9,541.7,1195.9,541.7,1195.9C541.7,1195.9,541.7,1195.9,541.7,1195.9z M541.7,1196C541.7,1196,541.7,1196,541.7,1196
				C541.7,1196,541.7,1196,541.7,1196z M541.6,1196.1C541.6,1196.1,541.6,1196.1,541.6,1196.1
				C541.6,1196.1,541.6,1196.1,541.6,1196.1z M541.6,1196.2C541.6,1196.2,541.6,1196.3,541.6,1196.2
				C541.6,1196.3,541.6,1196.2,541.6,1196.2z M541.5,1196.3C541.5,1196.4,541.5,1196.4,541.5,1196.3
				C541.5,1196.4,541.5,1196.4,541.5,1196.3z M541.5,1196.5C541.5,1196.5,541.5,1196.5,541.5,1196.5
				C541.5,1196.5,541.5,1196.5,541.5,1196.5z M541.5,1196.6C541.5,1196.6,541.5,1196.6,541.5,1196.6
				C541.5,1196.6,541.5,1196.6,541.5,1196.6z M541.4,1196.6C541.4,1196.7,541.4,1196.7,541.4,1196.6
				C541.4,1196.7,541.4,1196.7,541.4,1196.6z M541.4,1196.7C541.4,1196.7,541.4,1196.7,541.4,1196.7
				C541.4,1196.7,541.4,1196.7,541.4,1196.7z M541.4,1196.8C541.4,1196.8,541.4,1196.8,541.4,1196.8
				C541.4,1196.8,541.4,1196.8,541.4,1196.8z M541.4,1196.8C541.4,1196.8,541.4,1196.9,541.4,1196.8
				C541.4,1196.9,541.4,1196.8,541.4,1196.8z M541.4,1196.9C541.4,1196.9,541.4,1196.9,541.4,1196.9
				C541.4,1196.9,541.4,1196.9,541.4,1196.9z M541.4,1197C541.4,1196.9,541.4,1196.9,541.4,1197L541.4,1197
				C541.4,1196.9,541.4,1196.9,541.4,1197z M540.6,1200.9C540.6,1200.9,540.6,1200.9,540.6,1200.9
				C540.6,1200.9,540.6,1200.9,540.6,1200.9z M540.7,1200.4C540.7,1200.4,540.7,1200.4,540.7,1200.4
				C540.7,1200.4,540.7,1200.4,540.7,1200.4z M540.7,1200C540.7,1199.9,540.7,1199.9,540.7,1200
				C540.7,1199.9,540.7,1199.9,540.7,1200z M540.8,1199.5C540.8,1199.5,540.8,1199.5,540.8,1199.5
				C540.8,1199.5,540.8,1199.5,540.8,1199.5z M586.7,1195.8c-1-4.4-3.4-5.1-4.1-5.2c0.1-1,0.2-2.7,0.2-4.9c1.1,0.9,1.8,1.4,1.8,1.4
				s12.2,4.7,13.8,4.7L586.7,1195.8z"/>
			<path class="st11" d="M584.5,1293.5h-13.2v-1.7c0-0.3,0.1-0.5,0.1-0.8h12.9C584.4,1292.4,584.5,1293.5,584.5,1293.5z"/>
			<line class="st9" x1="543.7" y1="1289.7" x2="556.6" y2="1289.7"/>
			<g>
				<path class="st11" d="M566,1229.8c6.1-1,10.8-2.2,10.8-2.2c5.1-1.2,2.7-13.8,2.7-13.8s-2.5-18.2-6.1-19.3
					c-2.1-0.6-8.3-1.1-14.4-1.3c0.9,0,1.6,0.1,2.3,0.2c6.7,0.6,6.6,3.7,6.6,3.7S574.7,1224.7,566,1229.8z"/>
				<path class="st11" d="M546,1288.7c0,0.3-0.1,0.5-0.1,0.8v1.7h13.2c0,0-0.1-1.1-0.2-2.4H546z"/>
			</g>
		</g>
		<g>
			<path class="st10" d="M596.4,1081.8c-0.2-4.3-3.6-9.9-3.6-9.9l-1.3,1.3c-0.6-1.6-1.7-3.1-3.3-3.1c-0.2,0-0.3,0-0.5,0
				c-2-4.5-5.8-8.1-12.5-8.6c-4.8-0.4-8.4,1.1-11.2,3.6c1.2-1.7,1.9-3.5,0.6-4.1c-1.2-0.6-2.4,0.1-3.4,1c-0.4-4.3-4.1-6.3-8.2-4
				c-4.6,2.5-0.1,9.6-0.1,9.6s-5.4,0.8-10.5,3.2c-3,1.4-6.8,4.8-9.4,7.4c-1.8,1.8-2,4.7-0.5,6.8c0.9,1.2,2,2.6,3.3,4.4
				c2.4,3.1,7,6.8,10.7,9.4c0,0,0,0,0,0c-2.2,8.5-5.8,26.6,2.5,29.1c0.2,0.1,0.4,0.1,0.7,0.2c0,0.2,0,0.3,0,0.5
				c-1.1-0.2-1.7-0.4-1.7-0.4s-1.2-0.6-1.5,2.8c-0.1,1.3,0.3,2.3,0.8,2.9c-3.6,20.9,1.6,32,1.6,32l0.5,14.6c-0.8,0.8-2.5,3-2.9,6
				l-0.1,1.7l10.3,0.7l2.8,0.2c0,0,0.1-6.2-0.9-8.1l2.6-12.3c0.7-1.1,3.8-16.6,3.8-16.6c2.2,4.8,5,11.8,5.9,15.4
				c0.9,3.6,2.4,18.6,2.4,18.6l0.1,0c-0.8,1.1-1.7,2.8-2,4.9l-0.1,1.7l10.3,0.7l2.8,0.2c0,0,0-3.7-0.4-6.2l0.2,0
				c1.5-4.8,2.3-22.3,2.3-22.3c1.6-9.2-0.6-20-0.6-20l1.2-5.8c0.3,0,0.5,0,0.5,0s1,0,1.3-1.6c0.3-1.3,0.5-3.4-0.8-4.1
				c0.8-4.2,2.1-11.7,3.2-18.8c5.6-3.7,23.4-15.7,27.2-21.8C622.5,1086.5,600.5,1082.4,596.4,1081.8z M585,1120.2
				c-0.2,2.7-0.8,5.5-2.5,6.7C584.1,1125.7,584.8,1122.9,585,1120.2z M561.7,1067.6c-0.3,0.4-0.6,0.8-0.9,1.2c0-0.2,0-0.4,0-0.6
				C561.1,1068.1,561.4,1067.9,561.7,1067.6z M541.9,1082.3c2.7-3.3,12.7-7.2,12.7-7.2l0-0.1c1.1-0.1,2.4-0.8,3.7-1.3
				c-3.3,8-3.4,17.1-3.4,17.1s0.1,0.2,0.2,0.5c-0.2,0-0.4,0-0.5,0c-0.4,0-0.8,0-1.1,0.1c0,0,0,0,0,0
				C550.5,1086.6,541.9,1082.3,541.9,1082.3z M547.7,1094.5C547.7,1094.6,547.7,1094.6,547.7,1094.5
				C547.7,1094.6,547.7,1094.6,547.7,1094.5z M552.9,1091.4C552.9,1091.4,552.9,1091.4,552.9,1091.4
				C552.9,1091.4,552.9,1091.4,552.9,1091.4z M552.5,1091.4C552.4,1091.4,552.4,1091.4,552.5,1091.4
				C552.4,1091.4,552.4,1091.4,552.5,1091.4z M552,1091.5c0,0-0.1,0-0.1,0C552,1091.5,552,1091.5,552,1091.5z M551.6,1091.6
				C551.6,1091.6,551.5,1091.6,551.6,1091.6C551.5,1091.6,551.6,1091.6,551.6,1091.6z M551.2,1091.7
				C551.2,1091.7,551.1,1091.7,551.2,1091.7C551.1,1091.7,551.2,1091.7,551.2,1091.7z M550.8,1091.8
				C550.8,1091.8,550.8,1091.8,550.8,1091.8C550.8,1091.8,550.8,1091.8,550.8,1091.8z M550.5,1091.9
				C550.4,1091.9,550.4,1091.9,550.5,1091.9C550.4,1091.9,550.4,1091.9,550.5,1091.9z M550.1,1092C550.1,1092,550.1,1092,550.1,1092
				C550.1,1092,550.1,1092,550.1,1092z M549.9,1092.2C549.8,1092.2,549.8,1092.2,549.9,1092.2
				C549.8,1092.2,549.8,1092.2,549.9,1092.2z M549.6,1092.3C549.6,1092.3,549.6,1092.3,549.6,1092.3
				C549.6,1092.3,549.6,1092.3,549.6,1092.3z M549.3,1092.4C549.3,1092.4,549.3,1092.4,549.3,1092.4
				C549.3,1092.4,549.3,1092.4,549.3,1092.4z M548.1,1093.5C548.1,1093.5,548.1,1093.5,548.1,1093.5
				C548.1,1093.5,548.1,1093.5,548.1,1093.5z M548,1093.6C548,1093.7,548,1093.7,548,1093.6C548,1093.7,548,1093.7,548,1093.6z
				 M547.9,1093.8C547.9,1093.8,547.9,1093.8,547.9,1093.8C547.9,1093.8,547.9,1093.8,547.9,1093.8z M547.9,1093.9
				C547.9,1093.9,547.9,1093.9,547.9,1093.9C547.9,1093.9,547.9,1093.9,547.9,1093.9z M547.8,1094C547.8,1094,547.8,1094,547.8,1094
				C547.8,1094,547.8,1094,547.8,1094z M547.8,1094.1C547.8,1094.1,547.8,1094.1,547.8,1094.1
				C547.8,1094.1,547.8,1094.1,547.8,1094.1z M547.8,1094.2C547.8,1094.2,547.7,1094.2,547.8,1094.2
				C547.7,1094.2,547.8,1094.2,547.8,1094.2z M547.7,1094.3C547.7,1094.3,547.7,1094.3,547.7,1094.3
				C547.7,1094.3,547.7,1094.3,547.7,1094.3z M547.7,1094.4C547.7,1094.4,547.7,1094.4,547.7,1094.4
				C547.7,1094.4,547.7,1094.4,547.7,1094.4z M547.7,1094.4C547.7,1094.4,547.7,1094.4,547.7,1094.4
				C547.7,1094.4,547.7,1094.4,547.7,1094.4z M547.7,1094.5C547.7,1094.5,547.7,1094.5,547.7,1094.5
				C547.7,1094.5,547.7,1094.5,547.7,1094.5z M547.7,1094.5C547.7,1094.5,547.7,1094.5,547.7,1094.5
				C547.7,1094.5,547.7,1094.5,547.7,1094.5z M547.7,1094.6C547.7,1094.6,547.7,1094.6,547.7,1094.6L547.7,1094.6
				C547.7,1094.6,547.7,1094.6,547.7,1094.6z M546.6,1098.5C546.6,1098.4,546.6,1098.4,546.6,1098.5
				C546.6,1098.4,546.6,1098.4,546.6,1098.5z M546.7,1098C546.7,1098,546.7,1098,546.7,1098C546.7,1098,546.7,1098,546.7,1098z
				 M546.8,1097.5C546.8,1097.5,546.8,1097.5,546.8,1097.5C546.8,1097.5,546.8,1097.5,546.8,1097.5z M546.9,1097.1
				C546.9,1097.1,546.9,1097.1,546.9,1097.1C546.9,1097.1,546.9,1097.1,546.9,1097.1z M592.9,1096.5c-0.7-4.4-3-5.3-3.7-5.5
				c0.2-1,0.4-2.7,0.6-4.9c1,0.9,1.7,1.6,1.7,1.6s11.8,5.5,13.5,5.6L592.9,1096.5z"/>
			<path class="st11" d="M584.1,1193.8l-13.2-0.9l0.1-1.7c0-0.3,0.1-0.5,0.1-0.8l12.9,0.9C584.1,1192.8,584.1,1193.8,584.1,1193.8z"
				/>
			<line class="st9" x1="543.7" y1="1187.2" x2="556.5" y2="1188.1"/>
			<g>
				<path class="st11" d="M570,1129c6.2-0.6,10.9-1.5,10.9-1.5c5.2-0.8,3.6-13.6,3.6-13.6s-1.2-18.4-4.8-19.6
					c-2.1-0.8-8.2-1.7-14.3-2.3c0.9,0.1,1.6,0.2,2.3,0.3c6.7,1.1,6.3,4.2,6.3,4.2S579.1,1124.5,570,1129z"/>
				<path class="st11" d="M546.1,1186.4c-0.1,0.2-0.1,0.5-0.1,0.8l-0.1,1.7l13.2,0.9c0,0,0-1.1,0-2.4L546.1,1186.4z"/>
			</g>
		</g>
		<g>
			<path class="st10" d="M585.1,979.5c-0.9-4.2-5.2-9.1-5.2-9.1l-1.1,1.5c-0.9-1.5-2.2-2.8-3.8-2.5c-0.2,0-0.3,0.1-0.4,0.1
				c-2.8-4.1-7.1-7-13.7-6.4c-4.8,0.4-8.1,2.5-10.5,5.4c0.9-1.9,1.3-3.7-0.1-4.1c-1.3-0.4-2.4,0.5-3.2,1.6c-1.1-4.2-5.1-5.5-8.7-2.6
				c-4.1,3.3,1.5,9.5,1.5,9.5s-5.2,1.7-9.8,4.9c-2.7,1.9-5.9,5.9-8,8.9c-1.5,2.1-1.2,5,0.7,6.8c1,1,2.4,2.2,4,3.8
				c2.8,2.6,8,5.5,12.1,7.5c0,0,0,0,0,0c-0.8,8.7-1.3,27.2,7.3,28.3c0.2,0,0.4,0.1,0.7,0.1c0,0.2,0.1,0.3,0.1,0.5
				c-1.1-0.1-1.8-0.1-1.8-0.1s-1.3-0.4-1,3.1c0.1,1.3,0.6,2.2,1.3,2.8c-0.1,21.2,6.9,31.3,6.9,31.3l2.9,14.3c-0.6,1-2,3.4-1.9,6.4
				l0.2,1.7l10.3-1l2.8-0.3c0,0-1-6.2-2.3-7.9l0.5-12.5c0.5-1.2,1-17,1-17c3,4.4,6.9,10.8,8.4,14.2c1.5,3.4,5.5,18,5.5,18l0.1,0
				c-0.6,1.2-1.2,3-1.2,5.1l0.2,1.7l10.3-1l2.8-0.3c0,0-0.6-3.6-1.4-6.1l0.2,0c0.7-4.9-1.4-22.4-1.4-22.4c0-9.4-3.9-19.7-3.9-19.7
				l0.3-6c0.3-0.1,0.5-0.1,0.5-0.1s1-0.2,1-1.8c0-1.4-0.1-3.5-1.5-3.9c0-4.3,0.1-11.9,0-19.1c4.9-4.6,20.4-19.4,23.1-26
				C611.6,979.8,589.2,979.5,585.1,979.5z M580.2,1019.2c0.3,2.7,0.1,5.6-1.3,7C580.3,1024.8,580.5,1022,580.2,1019.2z M548.5,971.3
				c-0.2,0.4-0.5,0.9-0.7,1.4c0-0.2,0-0.4-0.1-0.6C548,971.9,548.3,971.6,548.5,971.3z M531.5,989.1c2.1-3.7,11.3-9.2,11.3-9.2
				l0-0.1c1.1-0.3,2.2-1.2,3.4-1.9c-1.9,8.5-0.5,17.4-0.5,17.4s0.1,0.2,0.3,0.5c-0.2,0-0.4,0.1-0.5,0.1c-0.4,0.1-0.8,0.2-1.1,0.2
				c0,0,0,0,0,0C540.7,991.9,531.5,989.1,531.5,989.1z M539.2,1000.2C539.2,1000.2,539.2,1000.2,539.2,1000.2
				C539.2,1000.2,539.2,1000.2,539.2,1000.2z M543.9,996.2C543.8,996.2,543.8,996.2,543.9,996.2
				C543.8,996.2,543.8,996.2,543.9,996.2z M543.4,996.3C543.4,996.4,543.3,996.4,543.4,996.3C543.3,996.4,543.4,996.4,543.4,996.3z
				 M543,996.5C542.9,996.5,542.9,996.5,543,996.5C542.9,996.5,542.9,996.5,543,996.5z M542.6,996.6
				C542.5,996.7,542.5,996.7,542.6,996.6C542.5,996.7,542.5,996.7,542.6,996.6z M542.2,996.8C542.2,996.8,542.1,996.8,542.2,996.8
				C542.1,996.8,542.2,996.8,542.2,996.8z M541.8,997C541.8,997,541.8,997,541.8,997C541.8,997,541.8,997,541.8,997z M541.5,997.1
				C541.5,997.2,541.5,997.2,541.5,997.1C541.5,997.2,541.5,997.2,541.5,997.1z M541.2,997.3C541.2,997.3,541.2,997.3,541.2,997.3
				C541.2,997.3,541.2,997.3,541.2,997.3z M540.9,997.5C540.9,997.5,540.9,997.5,540.9,997.5C540.9,997.5,540.9,997.5,540.9,997.5z
				 M540.7,997.7C540.7,997.7,540.7,997.7,540.7,997.7C540.7,997.7,540.7,997.7,540.7,997.7z M540.5,997.8
				C540.5,997.8,540.5,997.8,540.5,997.8C540.5,997.8,540.5,997.8,540.5,997.8z M539.4,999.1C539.4,999.1,539.4,999.1,539.4,999.1
				C539.4,999.1,539.4,999.1,539.4,999.1z M539.4,999.3C539.4,999.3,539.4,999.3,539.4,999.3C539.4,999.3,539.4,999.3,539.4,999.3z
				 M539.3,999.4C539.3,999.4,539.3,999.4,539.3,999.4C539.3,999.4,539.3,999.4,539.3,999.4z M539.3,999.5
				C539.3,999.5,539.3,999.5,539.3,999.5C539.3,999.5,539.3,999.5,539.3,999.5z M539.3,999.6C539.3,999.7,539.2,999.7,539.3,999.6
				C539.2,999.7,539.3,999.7,539.3,999.6z M539.2,999.8C539.2,999.8,539.2,999.8,539.2,999.8C539.2,999.8,539.2,999.8,539.2,999.8z
				 M539.2,999.9C539.2,999.9,539.2,999.9,539.2,999.9C539.2,999.9,539.2,999.9,539.2,999.9z M539.2,1000
				C539.2,1000,539.2,1000,539.2,1000C539.2,1000,539.2,1000,539.2,1000z M539.2,1000C539.2,1000,539.2,1000,539.2,1000
				C539.2,1000,539.2,1000,539.2,1000z M539.2,1000.1C539.2,1000.1,539.2,1000.1,539.2,1000.1
				C539.2,1000.1,539.2,1000.1,539.2,1000.1z M539.2,1000.2C539.2,1000.2,539.2,1000.2,539.2,1000.2
				C539.2,1000.2,539.2,1000.2,539.2,1000.2z M539.2,1000.2C539.2,1000.2,539.2,1000.2,539.2,1000.2
				C539.2,1000.2,539.2,1000.2,539.2,1000.2z M539.2,1000.3C539.2,1000.2,539.2,1000.2,539.2,1000.3L539.2,1000.3
				C539.2,1000.2,539.2,1000.3,539.2,1000.3z M538.8,1004.2C538.8,1004.2,538.8,1004.2,538.8,1004.2
				C538.8,1004.2,538.8,1004.2,538.8,1004.2z M538.8,1003.8C538.8,1003.8,538.8,1003.8,538.8,1003.8
				C538.8,1003.8,538.8,1003.8,538.8,1003.8z M538.8,1003.3C538.8,1003.3,538.8,1003.3,538.8,1003.3
				C538.8,1003.3,538.8,1003.3,538.8,1003.3z M538.9,1002.9C538.9,1002.9,538.9,1002.9,538.9,1002.9
				C538.9,1002.9,538.9,1002.9,538.9,1002.9z M584.1,994.6c-1.4-4.2-3.9-4.7-4.6-4.8c0-1,0-2.7-0.2-4.9c1.1,0.8,1.9,1.3,1.9,1.3
				s12.6,3.4,14.2,3.2L584.1,994.6z"/>
			<path class="st11" d="M591.7,1092l-13.1,1.3l-0.2-1.7c0-0.3,0-0.5,0-0.8l12.8-1.3C591.5,1091,591.7,1092,591.7,1092z"/>
			<line class="st9" x1="550.7" y1="1092.3" x2="563.5" y2="1091"/>
			<g>
				<path class="st11" d="M566.9,1030.5c6-1.6,10.5-3.3,10.5-3.3c5-1.7,1.3-14,1.3-14s-4.3-17.9-8-18.6c-2.2-0.4-8.4-0.3-14.5,0.1
					c0.9,0,1.6-0.1,2.3-0.1c6.7,0,6.9,3.1,6.9,3.1S575.1,1024.5,566.9,1030.5z"/>
				<path class="st11" d="M552.9,1091.1c0,0.3,0,0.5,0,0.8l0.2,1.7l13.1-1.3c0,0-0.2-1.1-0.5-2.4L552.9,1091.1z"/>
			</g>
		</g>
		<g>
			<path class="st10" d="M576.6,479.2c-0.5-4.3-4.3-9.6-4.3-9.6L571,471c-0.7-1.6-1.9-3-3.5-2.8c-0.2,0-0.3,0-0.5,0.1
				c-2.4-4.4-6.3-7.7-13-7.7c-4.8,0-8.3,1.7-11,4.4c1.1-1.8,1.6-3.6,0.3-4.1c-1.3-0.5-2.4,0.3-3.3,1.3c-0.7-4.3-4.5-6-8.4-3.4
				c-4.4,2.8,0.5,9.6,0.5,9.6s-5.3,1.2-10.3,3.9c-2.9,1.6-6.4,5.3-8.8,8c-1.7,1.9-1.7,4.8,0,6.8c0.9,1.1,2.1,2.5,3.6,4.2
				c2.6,2.9,7.4,6.3,11.3,8.7c0,0,0,0,0,0c-1.6,8.6-4,26.9,4.5,28.9c0.2,0.1,0.4,0.1,0.7,0.1c0,0.2,0,0.3,0,0.5
				c-1.1-0.2-1.7-0.3-1.7-0.3s-1.3-0.5-1.3,2.9c0,1.3,0.4,2.2,1,2.9c-2.2,21.1,3.7,31.8,3.7,31.8l1.5,14.5c-0.7,0.9-2.3,3.2-2.5,6.2
				v1.7H544h2.8c0,0-0.4-6.2-1.5-8l1.8-12.4c0.6-1.2,2.7-16.9,2.7-16.9c2.5,4.7,5.8,11.4,7,14.9c1.2,3.5,3.7,18.4,3.7,18.4l0.1,0
				c-0.7,1.2-1.5,2.9-1.7,5v1.7h10.3h2.8c0,0-0.2-3.7-0.8-6.2l0.2,0c1.2-4.8,0.8-22.4,0.8-22.4c1-9.3-1.9-20-1.9-20l0.8-5.9
				c0.3,0,0.5,0,0.5,0s1-0.1,1.2-1.7c0.2-1.4,0.3-3.4-1.1-4c0.5-4.3,1.3-11.8,1.9-19c5.4-4.1,22.3-17.3,25.6-23.6
				C602.9,482.2,580.7,479.7,576.6,479.2z M567.8,518.3c0,2.7-0.5,5.6-2,6.9C567.3,523.9,567.8,521.1,567.8,518.3z M541,467.5
				c-0.3,0.4-0.6,0.9-0.8,1.3c0-0.2,0-0.4,0-0.6C540.4,468,540.7,467.7,541,467.5z M522.3,483.4c2.5-3.5,12.1-8,12.1-8l0-0.1
				c1.1-0.2,2.3-1,3.6-1.6c-2.8,8.2-2.3,17.3-2.3,17.3s0.1,0.2,0.2,0.5c-0.2,0-0.4,0-0.5,0c-0.4,0-0.8,0.1-1.1,0.1c0,0,0,0,0,0
				C531.1,487.2,522.3,483.4,522.3,483.4z M528.8,495.3C528.8,495.3,528.8,495.3,528.8,495.3C528.8,495.3,528.8,495.3,528.8,495.3z
				 M533.9,491.8C533.9,491.8,533.8,491.8,533.9,491.8C533.8,491.8,533.9,491.8,533.9,491.8z M533.4,491.9
				C533.4,491.9,533.3,491.9,533.4,491.9C533.3,491.9,533.4,491.9,533.4,491.9z M533,492C532.9,492,532.9,492,533,492
				C532.9,492,532.9,492,533,492z M532.5,492.1C532.5,492.1,532.5,492.1,532.5,492.1C532.5,492.1,532.5,492.1,532.5,492.1z
				 M532.2,492.2C532.1,492.2,532.1,492.2,532.2,492.2C532.1,492.2,532.1,492.2,532.2,492.2z M531.8,492.3
				C531.8,492.4,531.7,492.4,531.8,492.3C531.7,492.4,531.8,492.4,531.8,492.3z M531.4,492.5C531.4,492.5,531.4,492.5,531.4,492.5
				C531.4,492.5,531.4,492.5,531.4,492.5z M531.1,492.6C531.1,492.6,531.1,492.6,531.1,492.6C531.1,492.6,531.1,492.6,531.1,492.6z
				 M530.8,492.8C530.8,492.8,530.8,492.8,530.8,492.8C530.8,492.8,530.8,492.8,530.8,492.8z M530.6,492.9
				C530.6,492.9,530.6,492.9,530.6,492.9C530.6,492.9,530.6,492.9,530.6,492.9z M530.3,493.1C530.3,493.1,530.3,493.1,530.3,493.1
				C530.3,493.1,530.3,493.1,530.3,493.1z M529.2,494.3C529.2,494.3,529.2,494.3,529.2,494.3C529.2,494.3,529.2,494.3,529.2,494.3z
				 M529.1,494.4C529.1,494.4,529.1,494.4,529.1,494.4C529.1,494.4,529.1,494.4,529.1,494.4z M529,494.5
				C529,494.5,529,494.5,529,494.5C529,494.5,529,494.5,529,494.5z M529,494.6C529,494.6,529,494.7,529,494.6
				C529,494.7,529,494.6,529,494.6z M529,494.7C528.9,494.8,528.9,494.8,529,494.7C528.9,494.8,528.9,494.8,529,494.7z M528.9,494.9
				C528.9,494.9,528.9,494.9,528.9,494.9C528.9,494.9,528.9,494.9,528.9,494.9z M528.9,495C528.9,495,528.9,495,528.9,495
				C528.9,495,528.9,495,528.9,495z M528.9,495C528.9,495.1,528.9,495.1,528.9,495C528.9,495.1,528.9,495.1,528.9,495z M528.9,495.1
				C528.9,495.1,528.9,495.1,528.9,495.1C528.9,495.1,528.9,495.1,528.9,495.1z M528.9,495.2C528.8,495.2,528.8,495.2,528.9,495.2
				C528.8,495.2,528.8,495.2,528.9,495.2z M528.8,495.2C528.8,495.2,528.8,495.3,528.8,495.2C528.8,495.3,528.8,495.2,528.8,495.2z
				 M528.8,495.3C528.8,495.3,528.8,495.3,528.8,495.3C528.8,495.3,528.8,495.3,528.8,495.3z M528.8,495.4
				C528.8,495.3,528.8,495.3,528.8,495.4L528.8,495.4C528.8,495.3,528.8,495.3,528.8,495.4z M528,499.3
				C528,499.3,528,499.3,528,499.3C528,499.3,528,499.3,528,499.3z M528.1,498.8C528.1,498.8,528.1,498.8,528.1,498.8
				C528.1,498.8,528.1,498.8,528.1,498.8z M528.2,498.4C528.2,498.3,528.2,498.3,528.2,498.4C528.2,498.3,528.2,498.3,528.2,498.4z
				 M528.3,497.9C528.3,497.9,528.3,497.9,528.3,497.9C528.3,497.9,528.3,497.9,528.3,497.9z M574.1,494.2c-1-4.4-3.4-5.1-4.1-5.2
				c0.1-1,0.2-2.7,0.2-4.9c1.1,0.9,1.8,1.4,1.8,1.4s12.2,4.7,13.8,4.7L574.1,494.2z"/>
			<path class="st11" d="M571.9,591.9h-13.2v-1.7c0-0.3,0.1-0.5,0.1-0.8h12.9C571.9,590.8,571.9,591.9,571.9,591.9z"/>
			<line class="st9" x1="531.1" y1="588.1" x2="544" y2="588.1"/>
			<g>
				<path class="st11" d="M553.4,528.2c6.1-1,10.8-2.2,10.8-2.2c5.1-1.2,2.7-13.8,2.7-13.8s-2.5-18.2-6.1-19.3
					c-2.1-0.6-8.3-1.1-14.4-1.3c0.9,0,1.6,0.1,2.3,0.2c6.7,0.6,6.6,3.7,6.6,3.7S562.2,523.1,553.4,528.2z"/>
				<path class="st11" d="M533.5,587.1c0,0.3-0.1,0.5-0.1,0.8v1.7h13.2c0,0-0.1-1.1-0.2-2.4H533.5z"/>
			</g>
		</g>
		<g>
			<path class="st10" d="M583.8,380.2c-0.2-4.3-3.6-9.9-3.6-9.9l-1.3,1.3c-0.6-1.6-1.7-3.1-3.3-3.1c-0.2,0-0.3,0-0.5,0
				c-2-4.5-5.8-8.1-12.5-8.6c-4.8-0.4-8.4,1.1-11.2,3.6c1.2-1.7,1.9-3.5,0.6-4.1c-1.2-0.6-2.4,0.1-3.4,1c-0.4-4.3-4.1-6.3-8.2-4
				c-4.6,2.5-0.1,9.6-0.1,9.6s-5.4,0.8-10.5,3.2c-3,1.4-6.8,4.8-9.4,7.4c-1.8,1.8-2,4.7-0.5,6.8c0.9,1.2,2,2.6,3.3,4.4
				c2.4,3.1,7,6.8,10.7,9.4c0,0,0,0,0,0c-2.2,8.5-5.8,26.6,2.5,29.1c0.2,0.1,0.4,0.1,0.7,0.2c0,0.2,0,0.3,0,0.5
				c-1.1-0.2-1.7-0.4-1.7-0.4s-1.2-0.6-1.5,2.9c-0.1,1.3,0.3,2.3,0.8,2.9c-3.6,20.9,1.6,32,1.6,32l0.5,14.6c-0.8,0.8-2.5,3-2.9,6
				l-0.1,1.7l10.3,0.7l2.8,0.2c0,0,0.1-6.2-0.9-8.1l2.6-12.3c0.7-1.1,3.8-16.6,3.8-16.6c2.2,4.8,5,11.8,5.9,15.4
				c0.9,3.6,2.4,18.6,2.4,18.6l0.1,0c-0.8,1.1-1.7,2.8-2,4.9l-0.1,1.7l10.3,0.7l2.8,0.2c0,0,0-3.7-0.4-6.2l0.2,0
				c1.5-4.8,2.3-22.3,2.3-22.3c1.6-9.2-0.6-20-0.6-20l1.2-5.8c0.3,0,0.5,0,0.5,0s1,0,1.3-1.6c0.3-1.3,0.5-3.4-0.8-4.1
				c0.8-4.2,2.1-11.7,3.2-18.8c5.6-3.7,23.4-15.7,27.2-21.8C609.9,384.9,587.9,380.8,583.8,380.2z M572.4,418.6
				c-0.2,2.7-0.8,5.5-2.5,6.7C571.6,424.1,572.2,421.3,572.4,418.6z M549.1,366c-0.3,0.4-0.6,0.8-0.9,1.2c0-0.2,0-0.4,0-0.6
				C548.5,366.5,548.8,366.3,549.1,366z M529.4,380.7c2.7-3.3,12.7-7.2,12.7-7.2l0-0.1c1.1-0.1,2.4-0.8,3.7-1.3
				c-3.3,8-3.4,17.1-3.4,17.1s0.1,0.2,0.2,0.5c-0.2,0-0.4,0-0.5,0c-0.4,0-0.8,0-1.1,0.1c0,0,0,0,0,0
				C537.9,385,529.4,380.7,529.4,380.7z M535.1,392.9C535.1,393,535.1,393,535.1,392.9C535.1,393,535.1,393,535.1,392.9z
				 M540.4,389.8C540.4,389.8,540.3,389.8,540.4,389.8C540.3,389.8,540.4,389.8,540.4,389.8z M539.9,389.8
				C539.9,389.8,539.8,389.8,539.9,389.8C539.8,389.8,539.9,389.8,539.9,389.8z M539.5,389.9c0,0-0.1,0-0.1,0
				C539.4,389.9,539.4,389.9,539.5,389.9z M539,390C539,390,539,390,539,390C539,390,539,390,539,390z M538.6,390.1
				C538.6,390.1,538.6,390.1,538.6,390.1C538.6,390.1,538.6,390.1,538.6,390.1z M538.3,390.2C538.2,390.2,538.2,390.2,538.3,390.2
				C538.2,390.2,538.2,390.2,538.3,390.2z M537.9,390.3C537.9,390.3,537.9,390.3,537.9,390.3C537.9,390.3,537.9,390.3,537.9,390.3z
				 M537.6,390.4C537.6,390.4,537.5,390.4,537.6,390.4C537.5,390.4,537.6,390.4,537.6,390.4z M537.3,390.6
				C537.3,390.6,537.3,390.6,537.3,390.6C537.3,390.6,537.3,390.6,537.3,390.6z M537,390.7C537,390.7,537,390.7,537,390.7
				C537,390.7,537,390.7,537,390.7z M536.8,390.8C536.8,390.8,536.8,390.8,536.8,390.8C536.8,390.8,536.8,390.8,536.8,390.8z
				 M535.5,391.9C535.5,391.9,535.5,391.9,535.5,391.9C535.5,391.9,535.5,391.9,535.5,391.9z M535.4,392
				C535.4,392.1,535.4,392.1,535.4,392C535.4,392.1,535.4,392.1,535.4,392z M535.4,392.2C535.4,392.2,535.4,392.2,535.4,392.2
				C535.4,392.2,535.4,392.2,535.4,392.2z M535.3,392.3C535.3,392.3,535.3,392.3,535.3,392.3C535.3,392.3,535.3,392.3,535.3,392.3z
				 M535.3,392.4C535.3,392.4,535.3,392.4,535.3,392.4C535.3,392.4,535.3,392.4,535.3,392.4z M535.2,392.5
				C535.2,392.5,535.2,392.5,535.2,392.5C535.2,392.5,535.2,392.5,535.2,392.5z M535.2,392.6C535.2,392.6,535.2,392.6,535.2,392.6
				C535.2,392.6,535.2,392.6,535.2,392.6z M535.2,392.7C535.2,392.7,535.2,392.7,535.2,392.7C535.2,392.7,535.2,392.7,535.2,392.7z
				 M535.1,392.8C535.1,392.8,535.1,392.8,535.1,392.8C535.1,392.8,535.1,392.8,535.1,392.8z M535.1,392.8
				C535.1,392.8,535.1,392.8,535.1,392.8C535.1,392.8,535.1,392.8,535.1,392.8z M535.1,392.9C535.1,392.9,535.1,392.9,535.1,392.9
				C535.1,392.9,535.1,392.9,535.1,392.9z M535.1,392.9C535.1,392.9,535.1,392.9,535.1,392.9C535.1,392.9,535.1,392.9,535.1,392.9z
				 M535.1,393C535.1,393,535.1,393,535.1,393L535.1,393C535.1,393,535.1,393,535.1,393z M534,396.9C534,396.8,534,396.8,534,396.9
				C534,396.8,534,396.8,534,396.9z M534.1,396.4C534.1,396.4,534.1,396.4,534.1,396.4C534.1,396.4,534.1,396.4,534.1,396.4z
				 M534.2,395.9C534.2,395.9,534.2,395.9,534.2,395.9C534.2,395.9,534.2,395.9,534.2,395.9z M534.4,395.5
				C534.4,395.5,534.4,395.5,534.4,395.5C534.4,395.5,534.4,395.5,534.4,395.5z M580.3,394.9c-0.7-4.4-3-5.3-3.7-5.5
				c0.2-1,0.4-2.7,0.6-4.9c1,0.9,1.7,1.6,1.7,1.6s11.8,5.5,13.5,5.6L580.3,394.9z"/>
			<path class="st11" d="M571.6,492.2l-13.2-0.9l0.1-1.7c0-0.3,0.1-0.5,0.1-0.8l12.9,0.9C571.6,491.2,571.6,492.2,571.6,492.2z"/>
			<line class="st9" x1="531.1" y1="485.6" x2="544" y2="486.5"/>
			<g>
				<path class="st11" d="M557.4,427.4c6.2-0.6,10.9-1.5,10.9-1.5c5.2-0.8,3.6-13.6,3.6-13.6s-1.2-18.4-4.8-19.6
					c-2.1-0.8-8.2-1.7-14.3-2.3c0.9,0.1,1.6,0.2,2.3,0.3c6.7,1.1,6.3,4.2,6.3,4.2S566.5,422.9,557.4,427.4z"/>
				<path class="st11" d="M533.5,484.8c-0.1,0.2-0.1,0.5-0.1,0.8l-0.1,1.7l13.2,0.9c0,0,0-1.1,0-2.4L533.5,484.8z"/>
			</g>
		</g>
		<g>
			<path class="st10" d="M563.9,388.2c0,0,9.7,1.7,9.6,0.6h0.7h2.8c0,0-0.2-3.7-0.8-6.2l0.2,0c1.2-4.8,0.8-22.4,0.8-22.4
				c1-9.3-1.9-20-1.9-20l0.8-5.9c0.3,0,0.5,0,0.5,0s1-0.1,1.2-1.7c0.2-1.4,0.3-3.4-1.1-4c0.5-4.3,1.3-11.8,1.9-19
				c5.4-4.1,22.3-17.3,25.6-23.6c3-5.5-5.8-14.7-11.4-18.2c0.4-1,2.4-5.8,1.7-7.2c-0.8-1.6-3.1-1.6-3.4,0s-0.4-5.1-4.4-6.1
				c-4-1-9.7,2.7-8.5,6.7c0.9,3.2,5.5,6.8,7.3,8.2l-0.1,0.1c0,0,5.2,14.1,6.8,14.1l-13.3,7.6c-1-4.4-3.4-5.1-4.1-5.2
				c0.1-1,0.2-2.7,0.2-4.9c0.7-7.2-3.2-15.8-3.2-15.8c-2.4-4.4-6.3-7.7-13-7.7c-4.8,0-8.3,1.7-11,4.4c0,0-3.7,3.7-5.1,8.8
				c-2.8,8.2-2.3,17.3-2.3,17.3s0.1,0.2,0.2,0.5c-0.2,0-0.4,0-0.5,0c-0.4,0-0.8,0.1-1.1,0.1c-3.2-4.5-12-8.3-12-8.3
				c2.5-3.5,8.4-11.8,8.4-11.8l0.4-0.6c0,0,1.9-2.7,2.9-4.8c1-2.3,3.6-8.7,1.6-9c-1.9-0.3-3,2.4-3,2.4c-0.7-4.3-4.5-6-8.4-3.4
				c-4.4,2.8,0.5,9.6,0.5,9.6s-0.6,1.4-3.9,5.2c-2.2,2.5-5.3,6.5-7.8,9.3c-1.7,1.9-1.7,4.8,0,6.8c0.9,1.1,2.1,2.5,3.6,4.2
				c2.6,2.9,7.4,6.3,11.3,8.7c0,0,0,0,0,0c-1.6,8.6-4,26.9,4.5,28.9c0.2,0.1,0.4,0.1,0.7,0.1c0,0.2,0,0.3,0,0.5
				c-1.1-0.2-1.7-0.3-1.7-0.3s-1.3-0.5-1.3,2.9c0,1.3,0.4,2.2,1,2.9c-2.2,21.1,3.7,31.8,3.7,31.8l1.5,14.5c-0.7,0.9-2.3,3.2-2.5,6.2
				v1.7h10.3h2.8c0,0-0.4-6.2-1.5-8l1.8-12.4c0.6-1.2,2.7-16.9,2.7-16.9c2.5,4.7,5.8,11.4,7,14.9c1.2,3.5,3.7,18.4,3.7,18.4l0.1,0
				c-0.7,1.2-1.5,2.9-1.7,5V388.2 M533.8,292.4C533.8,292.4,533.8,292.4,533.8,292.4C533.8,292.4,533.8,292.4,533.8,292.4
				L533.8,292.4z M572.8,315.4c0,2.7-0.5,5.6-2,6.9C572.3,321,572.7,318.1,572.8,315.4z"/>
			<g>
				<path class="st11" d="M577.2,389.2H564v-1.7c0-0.3,0.1-0.5,0.1-0.8H577C577.1,388.1,577.2,389.2,577.2,389.2z"/>
				<g>
					<path class="st11" d="M558.7,324c6.1-1,10.8-2.2,10.8-2.2c5.1-1.2,2.7-13.8,2.7-13.8s-2.5-18.2-6.1-19.3
						c-2.1-0.6-8.3-1.1-14.4-1.3c0.9,0,1.6,0.1,2.3,0.2c6.7,0.6,6.6,3.7,6.6,3.7S567.5,318.9,558.7,324z"/>
					<path class="st11" d="M538.7,382.9c0,0.3-0.1,0.5-0.1,0.8v1.7h13.2c0,0-0.1-1.1-0.2-2.4H538.7z"/>
				</g>
			</g>
		</g>
	</g>
</g>
</svg>
