<?xml version="1.0" encoding="utf-8"?>
<!-- Generator: Adobe Illustrator 21.0.0, SVG Export Plug-In . SVG Version: 6.00 Build 0)  -->
<svg version="1.1" id="Layer_9" xmlns="http://www.w3.org/2000/svg" xmlns:xlink="http://www.w3.org/1999/xlink" x="0px" y="0px"
	 viewBox="0 0 3000 1112" style="enable-background:new 0 0 3000 1112;" xml:space="preserve">
<style type="text/css">
	.st0{fill:#FCE33E;}
	.st1{fill:#DB1B28;}
	.st2{fill:#1B1C1E;}
	.st3{fill:none;}
	.st4{fill:#FFFFFF;}
	.st5{fill:#0FCE7C;}
	.st6{fill:#292522;}
</style>
<title>V4</title>
<rect class="st0" width="3000" height="1112"/>
<polygon class="st1" points="1704,234.2 1350,847.4 2058,847.4 "/>
<circle class="st2" cx="1500" cy="556" r="204"/>
<path class="st3" d="M1542.3,511.6l16.6,32.6l-12.6,53.4l-29.9-24.5l5.2-39.2L1542.3,511.6z"/>
<path class="st4" d="M1498.1,500.7c-3.4,0-6.2-2.8-6.2-6.2v-49.2c0-3.4,2.8-6.2,6.2-6.3c3.4,0,6.2,2.8,6.3,6.2l0,0v49.2
	C1504.3,497.9,1501.5,500.7,1498.1,500.7"/>
<path class="st4" d="M1508.1,500.7h-19.3c-3.4-0.1-6.2-2.9-6.1-6.4c0.1-3.4,2.8-6.1,6.1-6.1h19.3c3.4,0,6.2,2.9,6.2,6.3
	C1514.2,497.9,1511.5,500.6,1508.1,500.7"/>
<path class="st3" d="M1542.3,511.6l20.5-19.3c-33.9-33.9-88.8-33.9-122.6,0s-33.9,88.8,0,122.6c16.3,16.3,38.3,25.4,61.3,25.4
	c17.9,0,33.6,6.5,47.3-2.7l17.2,2.4l-0.5-27.9l-49.1-38.9l10.6-49.8L1542.3,511.6"/>
<path class="st4" d="M1501.5,648.8c-52.6,0-95.2-42.6-95.2-95.2s42.6-95.2,95.2-95.2c25.3,0,49.5,10,67.3,27.9l6.2,6.2l-26.9,25.3
	l-11.7-12.4l13.8-13c-33.8-26.9-83-21.4-109.9,12.4s-21.4,83,12.4,109.9c13.8,11,31,17,48.7,17"/>
<path class="st5" d="M1549.3,599.9l-12.2-11.8c19-19.6,18.5-51-1.1-70l-6.4-6.2l6.8-6.5l5.8,6.2l5.6-5.7
	C1574.2,531.4,1574.9,573.5,1549.3,599.9"/>
<path class="st3" d="M1481.9,553.6c10.7,0,19.3,8.6,19.3,19.3s-8.6,19.3-19.3,19.3c-10.7,0-19.3-8.6-19.3-19.3
	C1462.6,562.2,1471.3,553.6,1481.9,553.6"/>
<path class="st4" d="M1501.5,542.5c6.1,0,11.1,5,11.1,11.1s-5,11.1-11.1,11.1s-11.1-5-11.1-11.1S1495.4,542.5,1501.5,542.5
	 M1501.5,581.7c-15.5,0-28.1-12.6-28.1-28.1s12.6-28.1,28.1-28.1s28.1,12.6,28.1,28.1l0,0C1529.6,569.1,1517,581.7,1501.5,581.7
	 M1562.8,492.3l-49.5,45.7"/>
<path class="st4" d="M1519.1,544.3l-11.6-12.5l49.5-45.7l11.6,12.5L1519.1,544.3z"/>
<path class="st3" d="M1510.8,570.9l35.6,26.8l19.2,14.5v36.7L1527,647"/>
<path class="st4" d="M1574,648.8h-74v-17h57v-15.5l-51.4-38.7l10.2-13.6l58.2,43.8L1574,648.8z"/>
<path class="st4" d="M1468.5,517.9c-3.4,0-6.2-2.8-6.2-6.2v-66.4c0-3.4,2.8-6.2,6.2-6.2c3.4,0,6.2,2.8,6.2,6.2v66.4
	C1474.8,515.1,1472,517.9,1468.5,517.9"/>
<path class="st4" d="M812.5,277.4h47.2v3.8c0.1,7.7-0.9,15.4-3,22.8c-2.1,6.4-5.5,12.2-10,17.2c-10.6,11.9-24.1,17.9-40.5,17.9
	c-16,0-29.7-5.8-41.1-17.3c-11.2-11-17.3-26.1-17.1-41.8c0-16.6,5.8-30.6,17.4-42.2c11.6-11.6,25.7-17.4,42.3-17.4
	c8.6-0.1,17.2,1.8,25,5.5c7.4,3.6,14.7,9.5,21.8,17.7l-12.3,11.8c-9.4-12.5-20.8-18.7-34.3-18.7c-12.1,0-22.2,4.2-30.4,12.5
	c-8.2,8.2-12.3,18.5-12.3,30.8c0,12.7,4.6,23.2,13.7,31.5c8.5,7.6,17.8,11.5,27.8,11.5c8.4,0,16.5-3,22.9-8.6
	c6.8-5.8,10.5-12.7,11.3-20.7h-28.5L812.5,277.4L812.5,277.4z"/>
<path class="st4" d="M938.1,222.6v114.3h-17.2V222.6H938.1z"/>
<path class="st4" d="M1036.5,238.9V337h-17.2v-98.1H993v-16.2h69.7v16.2H1036.5z"/>
<path class="st4" d="M1197.9,228.7v20.4c-10-8.3-20.3-12.5-30.9-12.5c-11.2-0.2-22.1,4.4-29.7,12.7c-8.1,8.4-12.1,18.7-12.1,30.8
	c0,12,4,22.1,12.1,30.4c7.8,8.1,18.5,12.6,29.8,12.4c5.3,0.2,10.6-0.9,15.5-3c2.6-1.1,5-2.4,7.4-4c2.8-1.9,5.5-3.9,8-6.1v20.8
	c-9.4,5.5-20.2,8.4-31.1,8.4c-15.7,0.3-30.8-5.9-41.8-17.1c-11.2-10.9-17.5-25.9-17.2-41.6c-0.1-14.3,5-28.2,14.4-38.9
	c11.8-14,27.2-20.9,46-20.9C1178.6,220.5,1188.9,223.4,1197.9,228.7z"/>
<path class="st1" d="M1263,261.1c0-16.1,5.9-29.9,17.7-41.5c11.2-11.3,26.5-17.6,42.3-17.3c16.3,0,30.3,5.8,41.9,17.5
	c11.7,11.6,17.5,25.6,17.5,42c0.3,15.8-6.1,31-17.6,41.8c-11.8,11.5-26,17.2-42.7,17.2c-14.8,0-28-5.1-39.8-15.3
	C1269.4,294.2,1263,279.4,1263,261.1z M1280.4,261.2c0,12.6,4.2,23,12.7,31.1c8.4,8.1,18.2,12.2,29.2,12.2c12,0,22.1-4.1,30.4-12.4
	c8.1-8.1,12.6-19.2,12.4-30.6c0-12.2-4.1-22.4-12.2-30.6c-8.1-8.3-18.1-12.4-30.1-12.4c-11.3-0.2-22.3,4.3-30.1,12.4
	C1284.5,239.1,1280.4,249.2,1280.4,261.2L1280.4,261.2z"/>
<path class="st4" d="M1450.5,222.6v114.3h-17.2V222.6H1450.5z"/>
<path class="st4" d="M1517.4,336.9v-122l83.4,87.2v-79.4h17.2V344l-83.4-87v80L1517.4,336.9z"/>
<path class="st6" d="M809.3,408.5h3.5c5.4,0,10.6,1.4,10.6,7.9c0,2.3-1.2,4.4-3.1,5.5v0.1c3.4,0.8,5.8,3.8,5.8,7.3
	c0,5.8-4.9,8.1-10,8.1h-6.7L809.3,408.5L809.3,408.5z M812.9,421.3h0.9c3.4,0,6.2-0.7,6.2-4.8c0-4.1-2.8-4.8-6.1-4.8h-1L812.9,421.3
	L812.9,421.3z M812.9,434.1h2.8c3.3,0,6.8-1,6.8-5.1s-4.1-4.9-7.4-4.9h-2.2L812.9,434.1z"/>
<path class="st6" d="M843.2,408.5v17.1c0,4.7,1.4,9.1,7,9.1s7-4.4,7-9.1v-17.1h3.6v18.3c0,6.4-3.9,11.2-10.6,11.2
	c-6.6,0-10.6-4.9-10.6-11.2v-18.3H843.2z"/>
<path class="st6" d="M879.2,437.4h-3.6v-28.9h3.6V437.4z"/>
<path class="st6" d="M898.2,434.1h8.8v3.3h-12.4v-28.9h3.6L898.2,434.1L898.2,434.1z"/>
<path class="st6" d="M919,408.5h6c8.9,0,16.2,4.7,16.2,14.3c0,9.9-7.2,14.6-16.3,14.6H919V408.5z M922.6,434.1h1.3
	c7.4,0,13.7-2.8,13.7-11.2c0-8.4-6.4-11.2-13.7-11.2h-1.3V434.1z"/>
<path class="st6" d="M972.8,408.5h4.1l7.1,12.3l7.1-12.3h4.1l-9.4,16.3v12.6h-3.6v-12.6L972.8,408.5z"/>
<path class="st6" d="M1036,422.9c0,8.4-6.9,15.1-15.2,15.1s-15-6.8-15.1-15.1c0-8.4,6.9-15.1,15.2-15.1
	C1029.2,407.9,1036,414.6,1036,422.9z M1032.4,422.9c0.1-6.4-5-11.6-11.4-11.7s-11.6,5-11.7,11.4c0,0.1,0,0.2,0,0.3
	c-0.1,6.4,5,11.6,11.4,11.7c6.4,0.1,11.6-5,11.7-11.4C1032.4,423.1,1032.4,423,1032.4,422.9z"/>
<path class="st6" d="M1052.6,408.5v17.1c0,4.7,1.4,9.1,7,9.1s7-4.4,7-9.1v-17.1h3.6v18.3c0,6.4-3.9,11.2-10.6,11.2
	c-6.6,0-10.6-4.9-10.6-11.2v-18.3H1052.6z"/>
<path class="st6" d="M1103,437.4h-4.4l-8.5-12.2h-1.5v12.2h-3.6v-28.9h4.4c2.6,0,5.3,0,7.6,1.3c2.4,1.5,3.8,4.1,3.8,6.9
	c0.1,4.1-2.9,7.6-6.9,8.1L1103,437.4z M1088.7,422.1h1.2c3.7,0,7.7-0.7,7.7-5.3c0-4.5-4.3-5.2-7.9-5.2h-1L1088.7,422.1z"/>
<path class="st6" d="M1136.6,408.5h3.5c5.4,0,10.6,1.4,10.6,7.9c0,2.3-1.2,4.4-3.1,5.5v0.1c3.4,0.8,5.8,3.8,5.8,7.3
	c0,5.8-4.9,8.1-10,8.1h-6.7L1136.6,408.5z M1140.2,421.3h0.9c3.4,0,6.2-0.7,6.2-4.8c0-4.1-2.8-4.8-6.1-4.8h-1V421.3z M1140.2,434.1
	h2.8c3.3,0,6.8-1,6.8-5.1s-4.1-4.9-7.4-4.9h-2.2L1140.2,434.1z"/>
<path class="st1" d="M1197,414.9c0,8.4-6.9,15.1-15.2,15.1c-8.3,0-15-6.8-15.1-15.1c0-8.4,6.9-15.1,15.2-15.1
	C1190.2,399.9,1196.9,406.6,1197,414.9z M1193.4,414.9c0.1-6.4-5-11.6-11.4-11.7s-11.6,5-11.7,11.4c0,0.1,0,0.2,0,0.3
	c-0.1,6.4,5,11.6,11.4,11.7s11.6-5,11.7-11.4C1193.4,415.1,1193.4,415,1193.4,414.9z"/>
<path class="st6" d="M1212.2,408.5v17.1c0,4.7,1.4,9.1,7,9.1s7-4.4,7-9.1v-17.1h3.6v18.3c0,6.4-3.9,11.2-10.6,11.2
	c-6.6,0-10.6-4.9-10.6-11.2v-18.3H1212.2z"/>
<path class="st6" d="M1244.3,407.1l21.7,22.7v-21.4h3.6v30.1l-21.7-22.7v21.5h-3.6V407.1z"/>
<path class="st6" d="M1292.5,437.4h-3.6v-25.6h-6.9v-3.3h17.3v3.3h-6.9L1292.5,437.4z"/>
<path class="st6" d="M1309.2,408.5h4.1l7.1,12.3l7.1-12.3h4.1l-9.4,16.3v12.6h-3.6v-12.6L1309.2,408.5z"/>
</svg>
