<?xml version="1.0" encoding="utf-8"?>
<!-- Generator: Adobe Illustrator 21.0.2, SVG Export Plug-In . SVG Version: 6.00 Build 0)  -->
<svg version="1.1" id="Layer_1" xmlns="http://www.w3.org/2000/svg" xmlns:xlink="http://www.w3.org/1999/xlink" x="0px" y="0px"
	 viewBox="0 0 841.89 595.28" enable-background="new 0 0 841.89 595.28" xml:space="preserve">
<g>
	<polygon fill="#8C8C8C" points="436.361,589.915 185.442,445.046 185.442,155.31 436.361,10.441 687.281,155.31 687.281,445.045 	
		"/>
</g>
<g enable-background="new    ">
	<path fill="#FFFFFF" d="M436.355,56.293L224.832,178.241v243.887l211.523,121.934L647.89,422.128V178.241L436.355,56.293z
		 M639.326,417.214L436.355,534.24L233.378,417.214V183.2L436.355,66.176L639.326,183.2V417.214z"/>
</g>
<g>
	<path fill="#FFFFFF" d="M516.554,72.898l-5.55-3.176l-2.191,3.827l5.354,3.064l-1.293,2.259l-5.354-3.064l-4.339,7.583
		l-2.404-1.375l9.116-15.928l7.954,4.552L516.554,72.898z"/>
	<path fill="#FFFFFF" d="M519.144,79.188l-5.75,10.048l-2.321-1.329l5.75-10.048L519.144,79.188z M518.863,73.481
		c0.232-0.406,0.58-0.672,1.046-0.798c0.465-0.127,0.904-0.071,1.317,0.165c0.418,0.239,0.691,0.592,0.818,1.057
		c0.13,0.458,0.075,0.897-0.165,1.317s-0.593,0.692-1.058,0.818c-0.458,0.131-0.896,0.076-1.316-0.164
		c-0.42-0.24-0.692-0.593-0.819-1.058C518.561,74.353,518.619,73.907,518.863,73.481z"/>
	<path fill="#FFFFFF" d="M522.083,80.87l2.321,1.329l-0.514,0.897c0.683-0.203,1.236-0.293,1.661-0.269
		c0.435,0.021,0.884,0.164,1.345,0.427c0.611,0.35,1.138,0.916,1.576,1.696l-2.279,1.517c-0.259-0.568-0.599-0.973-1.018-1.212
		c-1.266-0.725-2.446-0.13-3.54,1.781l-2.981,5.21l-2.321-1.329L522.083,80.87z"/>
	<path fill="#FFFFFF" d="M534.846,90.448l-2.504-0.077c0.051-0.792-0.146-1.316-0.594-1.572c-0.213-0.122-0.436-0.156-0.667-0.101
		c-0.232,0.054-0.411,0.191-0.537,0.411c-0.221,0.385,0.008,1.023,0.686,1.913c0.929,1.235,1.478,2.197,1.648,2.889
		c0.17,0.691,0.039,1.414-0.395,2.171c-0.555,0.97-1.377,1.577-2.466,1.821c-1.049,0.222-2.065,0.05-3.049-0.512
		c-1.686-0.965-2.407-2.469-2.169-4.515l2.507,0.216c-0.001,0.639,0.034,1.065,0.104,1.278c0.133,0.423,0.396,0.747,0.787,0.971
		c0.784,0.449,1.381,0.316,1.79-0.399c0.236-0.413,0.154-0.971-0.247-1.675c-0.166-0.25-0.335-0.498-0.506-0.742
		c-0.172-0.244-0.344-0.493-0.518-0.748c-0.485-0.716-0.771-1.317-0.856-1.805c-0.11-0.62,0.022-1.26,0.4-1.921
		c0.5-0.873,1.213-1.424,2.138-1.652c0.938-0.221,1.845-0.081,2.719,0.419C534.403,87.551,534.979,88.763,534.846,90.448z"/>
	<path fill="#FFFFFF" d="M539.713,93.836l-4.511,7.882l-2.32-1.328l4.511-7.882l-0.991-0.566l1.239-2.167l0.991,0.567l2.108-3.683
		l2.32,1.328l-2.108,3.683l1.806,1.033l-1.239,2.166L539.713,93.836z"/>
	<path fill="#FFFFFF" d="M551.654,102.547l-3.701,6.468l-2.404-1.375l9.116-15.928l2.724,1.559c1.334,0.763,2.288,1.433,2.863,2.008
		c0.582,0.58,0.985,1.277,1.214,2.092c0.402,1.418,0.214,2.808-0.565,4.169c-0.835,1.458-1.984,2.334-3.449,2.628
		c-1.464,0.294-3.025-0.033-4.684-0.982L551.654,102.547z M552.93,100.319l0.897,0.514c2.207,1.263,3.798,1.046,4.771-0.652
		c0.94-1.644,0.272-3.118-2.004-4.42l-0.794-0.455L552.93,100.319z"/>
	<path fill="#FFFFFF" d="M562.265,103.868l2.322,1.328l-0.514,0.898c0.682-0.203,1.235-0.293,1.661-0.269
		c0.434,0.021,0.883,0.164,1.344,0.427c0.612,0.35,1.138,0.916,1.576,1.697l-2.279,1.517c-0.259-0.568-0.599-0.973-1.017-1.213
		c-1.267-0.725-2.446-0.13-3.54,1.782l-2.981,5.209l-2.322-1.329L562.265,103.868z"/>
	<path fill="#FFFFFF" d="M572.489,109.72l-5.75,10.048l-2.321-1.329l5.75-10.048L572.489,109.72z M572.209,104.013
		c0.232-0.406,0.58-0.672,1.046-0.799c0.465-0.126,0.904-0.071,1.317,0.165c0.418,0.239,0.691,0.592,0.817,1.057
		c0.131,0.458,0.076,0.897-0.164,1.316s-0.593,0.693-1.059,0.819c-0.457,0.131-0.896,0.076-1.315-0.164s-0.692-0.593-0.819-1.058
		C571.906,104.885,571.965,104.439,572.209,104.013z"/>
	<path fill="#FFFFFF" d="M574.262,121.17l5.973,3.418l-1.251,2.187l-10.573-6.052l11.021-4.155l-5.128-2.935l1.239-2.167
		l9.718,5.563L574.262,121.17z"/>
	<path fill="#FFFFFF" d="M592.874,128.781l-7.201-4.121c-0.41,0.861-0.519,1.671-0.323,2.431c0.199,0.753,0.67,1.342,1.413,1.768
		c0.577,0.33,1.134,0.466,1.669,0.408c0.53-0.062,1.244-0.33,2.144-0.8l1.334,2.215c-0.598,0.342-1.17,0.602-1.719,0.776
		c-0.546,0.176-1.081,0.271-1.603,0.288c-0.521,0.018-1.035-0.047-1.546-0.193c-0.51-0.145-1.026-0.368-1.55-0.667
		c-1.499-0.858-2.428-2.028-2.783-3.511c-0.354-1.489-0.071-3.035,0.846-4.638c0.909-1.589,2.087-2.623,3.528-3.103
		c1.442-0.461,2.897-0.273,4.362,0.565c1.479,0.847,2.378,1.987,2.698,3.421c0.317,1.424,0.001,2.964-0.947,4.622L592.874,128.781z
		 M591.576,125.52c0.387-1.423-0.041-2.489-1.279-3.197c-0.282-0.162-0.57-0.27-0.867-0.326s-0.593-0.061-0.888-0.015
		c-0.297,0.045-0.581,0.14-0.854,0.284c-0.275,0.145-0.533,0.34-0.774,0.585L591.576,125.52z"/>
</g>
<g>
	<g>
		<path fill="#FFFFFF" d="M230.714,398.508c105.759,0,211.517,0,317.276,0c30.079,0,60.158,0,90.237,0c3.217,0,3.223-5,0-5
			c-104.785,0-209.57,0-314.356,0c-31.053,0-62.105,0-93.158,0C227.496,393.508,227.491,398.508,230.714,398.508L230.714,398.508z"
			/>
	</g>
</g>
<g>
	<g>
		<path fill="#FFFFFF" d="M249.213,393.324c0-26.412,0-52.823,0-79.235c0-3.217-5-3.223-5,0c0,26.412,0,52.823,0,79.235
			C244.213,396.541,249.213,396.547,249.213,393.324L249.213,393.324z"/>
	</g>
</g>
<g>
	<g>
		<path fill="#FFFFFF" d="M246.75,311.165c-1.339,0-2.677,0-4.016,0c-3.217,0-3.223,5,0,5c4.637,0,9.274,0,13.91,0
			c3.217,0,3.223-5,0-5c-0.186,0-0.373,0-0.559,0c-3.217,0-3.223,5,0,5c27.737,0,55.474,0,83.21,0c3.217,0,3.223-5,0-5
			c-27.737,0-55.474,0-83.21,0c-3.217,0-3.223,5,0,5c0.186,0,0.373,0,0.559,0c3.217,0,3.223-5,0-5c-4.637,0-9.274,0-13.91,0
			c-3.217,0-3.223,5,0,5c1.339,0,2.677,0,4.016,0C249.967,316.165,249.972,311.165,246.75,311.165L246.75,311.165z"/>
	</g>
</g>
<g>
	<g>
		<path fill="#FFFFFF" d="M337.135,392.901c0-25.847,0-51.694,0-77.54c0-3.217-5-3.223-5,0c0,25.847,0,51.694,0,77.54
			C332.135,396.118,337.135,396.123,337.135,392.901L337.135,392.901z"/>
	</g>
</g>
<g>
	<g>
		<path fill="#FFFFFF" d="M245.4,313.454c0-6.003,0-12.005,0-18.008c0-3.217-5-3.223-5,0c0,6.003,0,12.005,0,18.008
			C240.4,316.671,245.4,316.676,245.4,313.454L245.4,313.454z"/>
	</g>
</g>
<g>
	<g>
		<path fill="#FFFFFF" d="M243.111,297.522c31.991,0,63.981,0,95.972,0c3.217,0,3.223-5,0-5c-31.991,0-63.981,0-95.972,0
			C239.894,292.522,239.889,297.522,243.111,297.522L243.111,297.522z"/>
	</g>
</g>
<g>
	<g>
		<path fill="#FFFFFF" d="M341.583,313.665c0-5.932,0-11.864,0-17.796c0-3.217-5-3.223-5,0c0,5.932,0,11.864,0,17.796
			C336.583,316.883,341.583,316.888,341.583,313.665L341.583,313.665z"/>
	</g>
</g>
<g>
	<g>
		<path fill="#FFFFFF" d="M261.502,393.96c0-12.923,0-25.847,0-38.77c0-3.217-5-3.223-5,0c0,12.923,0,25.847,0,38.77
			C256.502,397.177,261.502,397.182,261.502,393.96L261.502,393.96z"/>
	</g>
</g>
<g>
	<g>
		<path fill="#FFFFFF" d="M258.578,357.478c5.437,0,10.875,0,16.312,0c3.217,0,3.223-5,0-5c-5.437,0-10.875,0-16.312,0
			C255.361,352.478,255.355,357.478,258.578,357.478L258.578,357.478z"/>
	</g>
</g>
<g>
	<g>
		<path fill="#FFFFFF" d="M279.721,394.596c0-12.782,0-25.564,0-38.347c0-3.217-5-3.223-5,0c0,12.782,0,25.564,0,38.347
			C274.721,397.813,279.721,397.818,279.721,394.596L279.721,394.596z"/>
	</g>
</g>
<g>
	<g>
		<path fill="#FFFFFF" d="M292.686,357.266c13.7,0,27.401,0,41.101,0c3.217,0,3.223-5,0-5c-13.7,0-27.401,0-41.101,0
			C289.469,352.266,289.464,357.266,292.686,357.266L292.686,357.266z"/>
	</g>
</g>
<g>
	<g>
		<path fill="#FFFFFF" d="M289.975,347.987c0,2.33,0,4.661,0,6.991c0,3.217,5,3.223,5,0c0-2.33,0-4.661,0-6.991
			C294.975,344.769,289.975,344.764,289.975,347.987L289.975,347.987z"/>
	</g>
</g>
<g>
	<g>
		<path fill="#FFFFFF" d="M333.152,345.274c-12.782,0-25.564,0-38.347,0c-3.217,0-3.223,5,0,5c12.782,0,25.564,0,38.347,0
			C336.369,350.274,336.374,345.274,333.152,345.274L333.152,345.274z"/>
	</g>
</g>
<g>
	<g>
		<path fill="#FFFFFF" d="M294.552,347.563c0-3.672,0-7.344,0-11.017c0-3.217-5-3.223-5,0c0,3.672,0,7.344,0,11.017
			C289.552,350.78,294.552,350.785,294.552,347.563L294.552,347.563z"/>
	</g>
</g>
<g>
	<g>
		<path fill="#FFFFFF" d="M288.873,336.927c2.472,0,4.943,0,7.415,0c3.217,0,3.223-5,0-5c-2.472,0-4.943,0-7.415,0
			C285.656,331.927,285.65,336.927,288.873,336.927L288.873,336.927z"/>
	</g>
</g>
<g>
	<g>
		<path fill="#FFFFFF" d="M289.763,357.308c0,6.356,0,12.711,0,19.067c0,3.217,5,3.223,5,0c0-6.356,0-12.711,0-19.067
			C294.763,354.091,289.763,354.086,289.763,357.308L289.763,357.308z"/>
	</g>
</g>
<g>
	<g>
		<path fill="#FFFFFF" d="M293.534,379.511c12.429,0,24.858,0,37.288,0c3.217,0,3.223-5,0-5c-12.429,0-24.858,0-37.288,0
			C290.317,374.511,290.311,379.511,293.534,379.511L293.534,379.511z"/>
	</g>
</g>
<g>
	<g>
		<path fill="#FFFFFF" d="M289.975,375.528c0,5.508,0,11.016,0,16.525c0,3.217,5,3.223,5,0c0-5.508,0-11.016,0-16.525
			C294.975,372.311,289.975,372.306,289.975,375.528L289.975,375.528z"/>
	</g>
</g>
<g>
	<g>
		<path fill="#FFFFFF" d="M301.201,376.578c0.473-0.646,1.417-1.985,2.37-1.913c0.974,0.073,1.752,1.419,2.211,2.125
			c1.747,2.688,6.078,0.185,4.317-2.524c-1.487-2.287-3.577-4.583-6.529-4.602c-2.959-0.019-5.066,2.177-6.687,4.389
			C294.98,376.653,299.317,379.15,301.201,376.578L301.201,376.578z"/>
	</g>
</g>
<g>
	<g>
		<path fill="#FFFFFF" d="M324.635,375.316c-0.014-2.157-0.246-4.402,0.123-6.538c-1.025,0.582-2.05,1.164-3.075,1.746
			c2.791,1.143,2.349,4.638,2.703,7.152c0.19,1.347,1.891,2.058,3.075,1.746c1.442-0.38,1.934-1.745,1.746-3.075
			c-0.3-2.13-0.268-4.342-1.166-6.336c-0.995-2.212-2.844-3.412-5.03-4.308c-1.169-0.479-2.865,0.529-3.075,1.746
			c-0.452,2.62-0.319,5.223-0.301,7.868C319.656,378.532,324.656,378.54,324.635,375.316L324.635,375.316z"/>
	</g>
</g>
<g>
	<g>
		<path fill="#FFFFFF" d="M300.817,375.85c0.383,0.182,0.776,0.352,1.176,0.492c0.085,0.03,0.17,0.059,0.255,0.086
			c0.48,0.15-0.571-0.275-0.019-0.013c1.179,0.56,2.753,0.366,3.42-0.897c0.588-1.113,0.364-2.822-0.897-3.42
			c-0.383-0.182-0.775-0.351-1.175-0.491c-0.085-0.03-0.17-0.059-0.255-0.086c-0.48-0.15,0.571,0.275,0.018,0.012
			c-1.179-0.561-2.754-0.365-3.42,0.897C299.331,373.544,299.556,375.25,300.817,375.85L300.817,375.85z"/>
	</g>
</g>
<g>
	<g>
		<path fill="#FFFFFF" d="M322.237,373.259c0.107,0.214,0.214,0.428,0.319,0.644c0.058,0.12,0.35,0.772,0.165,0.34
			c-0.178-0.415,0.002,0.061,0.039,0.174c0.147,0.433-0.032-0.694-0.018-0.16c0.034,1.306,1.125,2.562,2.5,2.5
			c1.325-0.059,2.537-1.099,2.5-2.5c-0.034-1.283-0.628-2.399-1.188-3.522c-0.585-1.173-2.338-1.595-3.42-0.897
			C321.934,370.612,321.611,372.004,322.237,373.259L322.237,373.259z"/>
	</g>
</g>
<g>
	<g>
		<path fill="#FFFFFF" d="M255.711,312.394c0-4.614,0-9.228,0-13.842c0-3.217-5-3.223-5,0c0,4.614,0,9.228,0,13.842
			C250.711,315.612,255.711,315.617,255.711,312.394L255.711,312.394z"/>
	</g>
</g>
<g>
	<g>
		<path fill="#FFFFFF" d="M268.422,312.394c0-4.614,0-9.228,0-13.842c0-3.217-5-3.223-5,0c0,4.614,0,9.228,0,13.842
			C263.422,315.612,268.422,315.617,268.422,312.394L268.422,312.394z"/>
	</g>
</g>
<g>
	<g>
		<path fill="#FFFFFF" d="M281.134,312.394c0-4.614,0-9.228,0-13.842c0-3.217-5-3.223-5,0c0,4.614,0,9.228,0,13.842
			C276.134,315.612,281.134,315.617,281.134,312.394L281.134,312.394z"/>
	</g>
</g>
<g>
	<g>
		<path fill="#FFFFFF" d="M293.845,312.394c0-4.614,0-9.228,0-13.842c0-3.217-5-3.223-5,0c0,4.614,0,9.228,0,13.842
			C288.845,315.612,293.845,315.617,293.845,312.394L293.845,312.394z"/>
	</g>
</g>
<g>
	<g>
		<path fill="#FFFFFF" d="M306.557,312.394c0-4.614,0-9.228,0-13.842c0-3.217-5-3.223-5,0c0,4.614,0,9.228,0,13.842
			C301.557,315.612,306.557,315.617,306.557,312.394L306.557,312.394z"/>
	</g>
</g>
<g>
	<g>
		<path fill="#FFFFFF" d="M319.268,312.394c0-4.614,0-9.228,0-13.842c0-3.217-5-3.223-5,0c0,4.614,0,9.228,0,13.842
			C314.268,315.612,319.268,315.617,319.268,312.394L319.268,312.394z"/>
	</g>
</g>
<g>
	<g>
		<path fill="#FFFFFF" d="M331.98,312.394c0-4.614,0-9.228,0-13.842c0-3.217-5-3.223-5,0c0,4.614,0,9.228,0,13.842
			C326.98,315.612,331.98,315.617,331.98,312.394L331.98,312.394z"/>
	</g>
</g>
<g>
	<g>
		<path fill="#FFFFFF" d="M333.109,291.632c0-8.051,0-16.101,0-24.152c0-3.217-5-3.223-5,0c0,8.051,0,16.101,0,24.152
			C328.109,294.849,333.109,294.855,333.109,291.632L333.109,291.632z"/>
	</g>
</g>
<g>
	<g>
		<path fill="#FFFFFF" d="M331.881,267.438c60.026,0,120.053,0,180.079,0c3.217,0,3.223-5,0-5c-60.026,0-120.053,0-180.079,0
			C328.663,262.438,328.658,267.438,331.881,267.438L331.881,267.438z"/>
	</g>
</g>
<g>
	<g>
		<path fill="#FFFFFF" d="M509.883,264.938c0,42.23,0,84.461,0,126.691c0,3.217,5,3.223,5,0c0-0.141,0-0.283,0-0.424
			c0-3.217-5-3.223-5,0c0,0.141,0,0.283,0,0.424c0,3.217,5,3.223,5,0c0-42.23,0-84.461,0-126.691
			C514.883,261.721,509.883,261.716,509.883,264.938L509.883,264.938z"/>
	</g>
</g>
<g>
	<g>
		<path fill="#FFFFFF" d="M451.75,395.443c0-16.949,0-33.897,0-50.846c0-3.217-5-3.223-5,0c0,16.949,0,33.897,0,50.846
			C446.75,398.66,451.75,398.665,451.75,395.443L451.75,395.443z"/>
	</g>
</g>
<g>
	<g>
		<path fill="#FFFFFF" d="M449.25,347.944c13.276,0,26.553,0,39.829,0c3.217,0,3.223-5,0-5c-13.276,0-26.553,0-39.829,0
			C446.033,342.944,446.027,347.944,449.25,347.944L449.25,347.944z"/>
	</g>
</g>
<g>
	<g>
		<path fill="#FFFFFF" d="M485.731,346.716c0,16.101,0,32.202,0,48.303c0,3.217,5,3.223,5,0c0-16.101,0-32.202,0-48.303
			C490.731,343.498,485.731,343.493,485.731,346.716L485.731,346.716z"/>
	</g>
</g>
<g>
	<g>
		<path fill="#FFFFFF" d="M471.241,394.172c0-15.254,0-30.507,0-45.761c0-3.217-5-3.223-5,0c0,15.254,0,30.508,0,45.761
			C466.241,397.389,471.241,397.394,471.241,394.172L471.241,394.172z"/>
	</g>
</g>
<g>
	<g>
		<path fill="#FFFFFF" d="M337.812,262.438c-5.508,0-11.016,0-16.525,0c-3.217,0-3.223,5,0,5c5.508,0,11.016,0,16.525,0
			C341.03,267.438,341.035,262.438,337.812,262.438L337.812,262.438z"/>
	</g>
</g>
<g>
	<g>
		<path fill="#FFFFFF" d="M324.211,263.667c0-8.192,0-16.384,0-24.576c0-3.217-5-3.223-5,0c0,8.192,0,16.384,0,24.576
			C319.211,266.884,324.211,266.89,324.211,263.667L324.211,263.667z"/>
	</g>
</g>
<g>
	<g>
		<path fill="#FFFFFF" d="M322.559,240.32c68.36,0,136.719,0,205.079,0c3.217,0,3.223-5,0-5c-68.36,0-136.719,0-205.079,0
			C319.342,235.32,319.336,240.32,322.559,240.32L322.559,240.32z"/>
	</g>
</g>
<g>
	<g>
		<path fill="#FFFFFF" d="M509.418,267.862c5.791,0,11.582,0,17.372,0c3.217,0,3.223-5,0-5c-5.791,0-11.582,0-17.372,0
			C506.2,262.862,506.195,267.862,509.418,267.862L509.418,267.862z"/>
	</g>
</g>
<g>
	<g>
		<path fill="#FFFFFF" d="M528.867,265.362c0-8.333,0-16.666,0-25c0-3.217-5-3.223-5,0c0,8.333,0,16.666,0,25
			C523.867,268.579,528.867,268.585,528.867,265.362L528.867,265.362z"/>
	</g>
</g>
<g>
	<g>
		<path fill="#FFFFFF" d="M346.993,307.55c25.988,0,51.976,0,77.964,0c3.217,0,3.223-5,0-5c-25.988,0-51.976,0-77.964,0
			C343.775,302.55,343.77,307.55,346.993,307.55L346.993,307.55z"/>
	</g>
</g>
<g>
	<g>
		<path fill="#FFFFFF" d="M421.609,305.615c0,19.115,0,38.229,0,57.344c0,3.217,5,3.223,5,0c0-19.115,0-38.229,0-57.344
			C426.609,302.397,421.609,302.392,421.609,305.615L421.609,305.615z"/>
	</g>
</g>
<g>
	<g>
		<path fill="#FFFFFF" d="M422.979,361.023c-24.293,0-48.586,0-72.879,0c-3.217,0-3.223,5,0,5c24.293,0,48.586,0,72.879,0
			C426.197,366.023,426.202,361.023,422.979,361.023L422.979,361.023z"/>
	</g>
</g>
<g>
	<g>
		<path fill="#FFFFFF" d="M352.035,363.24c0-18.361,0-36.722,0-55.083c0-3.217-5-3.223-5,0c0,18.361,0,36.722,0,55.083
			C347.035,366.457,352.035,366.463,352.035,363.24L352.035,363.24z"/>
	</g>
</g>
<g>
	<g>
		<path fill="#FFFFFF" d="M449.01,321.151c0,4.426,0,8.851,0,13.277c0,3.217,5,3.223,5,0c0-4.426,0-8.851,0-13.277
			C454.01,317.933,449.01,317.928,449.01,321.151L449.01,321.151z"/>
	</g>
</g>
<g>
	<g>
		<path fill="#FFFFFF" d="M451.51,322.239c11.582,0,23.163,0,34.745,0c3.217,0,3.223-5,0-5c-11.582,0-23.163,0-34.745,0
			C448.293,317.239,448.288,322.239,451.51,322.239L451.51,322.239z"/>
	</g>
</g>
<g>
	<g>
		<path fill="#FFFFFF" d="M452.075,337.21c11.393,0,22.786,0,34.18,0c3.217,0,3.223-5,0-5c-11.393,0-22.786,0-34.18,0
			C448.858,332.21,448.853,337.21,452.075,337.21L452.075,337.21z"/>
	</g>
</g>
<g>
	<g>
		<path fill="#FFFFFF" d="M489.037,333.58c0-4.237,0-8.474,0-12.711c0-3.217-5-3.223-5,0c0,4.237,0,8.474,0,12.711
			C484.037,336.797,489.037,336.803,489.037,333.58L489.037,333.58z"/>
	</g>
</g>
<g>
	<g>
		<path fill="#FFFFFF" d="M351.513,282.975c3.217,0,3.223-5,0-5C348.296,277.975,348.29,282.975,351.513,282.975L351.513,282.975z"
			/>
	</g>
</g>
<g>
	<g>
		<path fill="#FFFFFF" d="M362.529,281.845c39.735,0,79.471,0,119.206,0c3.217,0,3.223-5,0-5c-39.735,0-79.471,0-119.206,0
			C359.312,276.845,359.307,281.845,362.529,281.845L362.529,281.845z"/>
	</g>
</g>
<g>
	<g>
		<path fill="#FFFFFF" d="M493.035,280.997c3.217,0,3.223-5,0-5C489.817,275.997,489.812,280.997,493.035,280.997L493.035,280.997z"
			/>
	</g>
</g>
<g>
	<g>
		<path fill="#FFFFFF" d="M514.502,323.652c17.42,0,34.839,0,52.259,0c3.217,0,3.223-5,0-5c-17.42,0-34.839,0-52.259,0
			C511.285,318.652,511.279,323.652,514.502,323.652L514.502,323.652z"/>
	</g>
</g>
<g>
	<g>
		<path fill="#FFFFFF" d="M561.351,394.878c0-23.258,0-46.515,0-69.773c0-3.217-5-3.223-5,0c0,23.258,0,46.515,0,69.773
			C556.351,398.096,561.351,398.101,561.351,394.878L561.351,394.878z"/>
	</g>
</g>
<g>
	<g>
		<path fill="#FFFFFF" d="M515.35,314.894c16.949,0,33.897,0,50.846,0c3.217,0,3.223-5,0-5c-16.949,0-33.897,0-50.846,0
			C512.132,309.894,512.127,314.894,515.35,314.894L515.35,314.894z"/>
	</g>
</g>
<g>
	<g>
		<path fill="#FFFFFF" d="M568.977,319.739c0-1.898,0-3.797,0-5.695c0-3.217-5-3.223-5,0c0,0.015,0,0.03,0,0.045
			c0,3.217,5,3.223,5,0c0-0.015,0-0.03,0-0.045c0-3.217-5-3.223-5,0c0,1.898,0,3.797,0,5.695
			C563.977,322.956,568.977,322.962,568.977,319.739L568.977,319.739z"/>
	</g>
</g>
<g>
	<g>
		<path fill="#FFFFFF" d="M627.168,338.665c0-5.555,0-11.11,0-16.666c0-3.217-5-3.223-5,0c0,5.555,0,11.11,0,16.666
			C622.168,341.882,627.168,341.888,627.168,338.665L627.168,338.665z"/>
	</g>
</g>
<g>
	<g>
		<path fill="#FFFFFF" d="M568.174,320.262c18.737,0,37.475,0,56.212,0c3.217,0,3.223-5,0-5c-18.737,0-37.475,0-56.212,0
			C564.956,315.262,564.951,320.262,568.174,320.262L568.174,320.262z"/>
	</g>
</g>
<g>
	<g>
		<path fill="#FFFFFF" d="M627.168,321.434c0-1.036,0-2.072,0-3.108c0-1.308-1.15-2.56-2.5-2.5c-1.354,0.061-2.5,1.098-2.5,2.5
			c0,1.036,0,2.072,0,3.108c0,1.308,1.15,2.56,2.5,2.5C626.022,323.873,627.168,322.836,627.168,321.434L627.168,321.434z"/>
	</g>
</g>
<g>
	<g>
		<path fill="#FFFFFF" d="M558.67,341.622c2.762,4.342,6.945,7.931,12.363,7.796c5.398-0.134,9.41-4.09,11.727-8.644
			c1.456-2.862-2.856-5.395-4.317-2.524c-3.749,7.367-10.948,7.935-15.456,0.848C561.265,336.391,556.936,338.896,558.67,341.622
			L558.67,341.622z"/>
	</g>
</g>
<g>
	<g>
		<path fill="#FFFFFF" d="M577.313,341.339c7.472,10.152,19.875,9.928,26.351-1.13c1.63-2.782-2.69-5.302-4.317-2.524
			c-4.421,7.547-12.426,8.317-17.717,1.13C579.743,336.251,575.402,338.743,577.313,341.339L577.313,341.339z"/>
	</g>
</g>
<g>
	<g>
		<path fill="#FFFFFF" d="M598.608,341.563c7.798,9.73,23.178,11.476,28.784-1.354c1.276-2.92-3.031-5.468-4.317-2.524
			c-4.369,9.998-15.073,7.651-20.931,0.342C600.132,335.517,596.614,339.075,598.608,341.563L598.608,341.563z"/>
	</g>
</g>
<g>
	<g>
		<path fill="#FFFFFF" d="M598.158,342.62c0,9.51,0,19.021,0,28.531c0,3.217,5,3.223,5,0c0-9.51,0-19.02,0-28.531
			C603.158,339.402,598.158,339.397,598.158,342.62L598.158,342.62z"/>
	</g>
</g>
<g>
	<g>
		<path fill="#FFFFFF" d="M575.277,344.597c0,9.134,0,18.267,0,27.401c0,3.217,5,3.223,5,0c0-9.134,0-18.267,0-27.401
			C580.277,341.38,575.277,341.374,575.277,344.597L575.277,344.597z"/>
	</g>
</g>
<g>
	<g>
		<path fill="#FFFFFF" d="M563.089,375.345c20.244,0,40.488,0,60.732,0c3.217,0,3.223-5,0-5c-20.244,0-40.488,0-60.732,0
			C559.871,370.345,559.866,375.345,563.089,375.345L563.089,375.345z"/>
	</g>
</g>
<g>
	<g>
		<path fill="#FFFFFF" d="M622.733,337.253c0,18.832,0,37.663,0,56.495c0,3.217,5,3.223,5,0c0-18.832,0-37.663,0-56.495
			C627.733,334.036,622.733,334.03,622.733,337.253L622.733,337.253z"/>
	</g>
</g>
<g>
	<path fill="#FFFFFF" d="M406.282,245.541l-1.962,1.163c-0.367-0.637-0.717-1.052-1.049-1.246c-0.347-0.222-0.793-0.333-1.34-0.333
		c-0.671,0-1.229,0.19-1.671,0.571c-0.443,0.374-0.665,0.844-0.665,1.412c0,0.782,0.582,1.412,1.744,1.89l1.6,0.654
		c1.301,0.526,2.253,1.168,2.854,1.926c0.603,0.758,0.903,1.687,0.903,2.788c0,1.474-0.491,2.692-1.474,3.655
		c-0.99,0.969-2.219,1.453-3.687,1.453c-1.391,0-2.54-0.412-3.446-1.235c-0.893-0.824-1.45-1.983-1.672-3.478l2.45-0.54
		c0.11,0.941,0.305,1.592,0.582,1.952c0.498,0.692,1.225,1.038,2.18,1.038c0.755,0,1.381-0.252,1.879-0.758
		c0.499-0.505,0.748-1.146,0.748-1.921c0-0.312-0.043-0.597-0.13-0.856s-0.222-0.499-0.405-0.716
		c-0.183-0.218-0.42-0.422-0.711-0.613c-0.291-0.19-0.637-0.372-1.038-0.545l-1.547-0.644c-2.194-0.928-3.291-2.284-3.291-4.07
		c0-1.205,0.46-2.211,1.381-3.021c0.92-0.816,2.065-1.225,3.437-1.225C403.801,242.841,405.244,243.741,406.282,245.541z"/>
	<path fill="#FFFFFF" d="M412.034,249.424h6.914v-6.271h2.42v16.03h-2.42v-7.486h-6.914v7.486h-2.419v-16.03h2.419V249.424z"/>
	<path fill="#FFFFFF" d="M424.409,251.095c0-2.256,0.827-4.194,2.481-5.814c1.647-1.62,3.627-2.429,5.938-2.429
		c2.284,0,4.243,0.816,5.877,2.45c1.64,1.633,2.46,3.596,2.46,5.887c0,2.305-0.823,4.26-2.471,5.866
		c-1.654,1.613-3.651,2.419-5.99,2.419c-2.07,0-3.929-0.716-5.575-2.149C425.316,255.74,424.409,253.663,424.409,251.095z
		 M426.85,251.126c0,1.772,0.595,3.229,1.785,4.371c1.184,1.142,2.551,1.713,4.102,1.713c1.682,0,3.101-0.582,4.256-1.744
		c1.156-1.177,1.734-2.609,1.734-4.298c0-1.709-0.571-3.142-1.713-4.298c-1.136-1.163-2.54-1.744-4.216-1.744
		c-1.668,0-3.076,0.582-4.226,1.744C427.424,248.019,426.85,249.438,426.85,251.126z"/>
	<path fill="#FFFFFF" d="M446.628,252.673v6.51h-2.419v-16.03h2.741c1.342,0,2.356,0.094,3.042,0.28
		c0.691,0.187,1.301,0.54,1.827,1.059c0.92,0.9,1.381,2.035,1.381,3.405c0,1.468-0.492,2.63-1.475,3.489
		c-0.983,0.858-2.309,1.287-3.977,1.287H446.628z M446.628,250.431h0.903c2.222,0,3.333-0.854,3.333-2.564
		c0-1.654-1.146-2.481-3.437-2.481h-0.8V250.431z"/>
</g>
<g>
	<path fill="#FFFFFF" d="M401.879,361.46c-0.753-0.754-1.506-1.507-2.259-2.26l-46.045-46.044c-1.933-1.934-4.929,1.063-2.995,2.996
		l48.304,48.303C400.817,366.39,403.813,363.393,401.879,361.46z"/>
</g>
<g>
	<path fill="#FFFFFF" d="M419.271,360.128c-0.21-0.331-0.475-0.627-0.726-0.928c-0.267-0.32-0.563-0.509-0.866-0.613
		c-1.478-1.36-2.892-2.859-4.274-4.264c-3.942-4.002-7.982-7.957-11.808-12.072c-8.039-8.648-16.794-16.781-25.141-25.14
		c-1.932-1.935-4.927,1.061-2.995,2.996c8.374,8.387,16.631,16.89,25.14,25.14c5.845,5.667,11.073,12.246,17.343,17.448
		C417.695,364.149,420.643,362.289,419.271,360.128z"/>
</g>
<g>
	<path fill="#FFFFFF" d="M404.705,320.501c-4.708-4.708-9.417-9.416-14.125-14.124c-1.934-1.934-4.93,1.062-2.995,2.996
		c4.707,4.708,9.415,9.416,14.124,14.124C403.642,325.431,406.637,322.434,404.705,320.501z"/>
</g>
<g>
	<path fill="#FFFFFF" d="M409.42,327.79c-2.732,0-2.732,4.237,0,4.237C412.152,332.027,412.152,327.79,409.42,327.79z"/>
</g>
<g>
	<g>
		<circle fill="#FFFFFF" cx="601.816" cy="132.174" r="4.129"/>
	</g>
	<g>
		<circle fill="#FFFFFF" cx="494.464" cy="68.652" r="4.129"/>
	</g>
</g>
<g>
	<path fill="#FFFFFF" d="M219.457,167.643l-4.89-14.365l9.484,6.967l-1.091-11.789l9.689,11.608l-1.859,1.068l-5.324-6.584
		l0.928,9.844l-7.94-5.826l2.878,8L219.457,167.643z"/>
	<path fill="#FFFFFF" d="M236.092,148.009l1.758-1.01l4.354,7.577l-1.759,1.01l-0.456-0.793c-0.333,1.088-0.915,1.87-1.745,2.347
		c-1.048,0.602-2.131,0.72-3.25,0.356c-1.123-0.382-2.017-1.152-2.681-2.309c-0.652-1.137-0.857-2.277-0.612-3.424
		c0.245-1.148,0.877-2.016,1.898-2.603c0.882-0.506,1.882-0.598,2.999-0.273L236.092,148.009z M234.102,154.161
		c0.416,0.726,0.951,1.205,1.602,1.438c0.664,0.231,1.301,0.174,1.906-0.175c0.648-0.372,1.045-0.896,1.188-1.571
		c0.135-0.69-0.002-1.391-0.41-2.102s-0.945-1.182-1.609-1.414c-0.658-0.222-1.307-0.15-1.945,0.216
		c-0.602,0.346-0.973,0.863-1.115,1.553C233.582,152.796,233.711,153.481,234.102,154.161z"/>
	<path fill="#FFFFFF" d="M240.059,145.73l1.751-1.006l0.39,0.678c0.127-0.521,0.279-0.917,0.457-1.185
		c0.18-0.275,0.443-0.513,0.791-0.713c0.461-0.265,1.03-0.392,1.705-0.38l0.121,2.064c-0.47-0.048-0.862,0.019-1.179,0.2
		c-0.954,0.548-1.018,1.542-0.188,2.984l2.256,3.929l-1.75,1.006L240.059,145.73z"/>
	<path fill="#FFFFFF" d="M244.573,135.74l4.603,8.012l1.059-3.866l2.349-1.35l-1.462,5.073l6.056,2.366l-2.271,1.305l-4.341-1.758
		l-0.119,0.44l1.676,2.917l-1.751,1.006l-7.548-13.139L244.573,135.74z"/>
	<path fill="#FFFFFF" d="M263.266,137.987l-5.43,3.119c0.404,0.595,0.891,0.974,1.46,1.138c0.566,0.157,1.13,0.075,1.689-0.247
		c0.436-0.25,0.736-0.562,0.903-0.933c0.16-0.368,0.259-0.935,0.295-1.7l1.951-0.025c-0.004,0.521-0.055,0.992-0.148,1.416
		c-0.096,0.424-0.236,0.808-0.424,1.154c-0.188,0.347-0.426,0.656-0.716,0.933c-0.289,0.277-0.632,0.529-1.025,0.755
		c-1.131,0.649-2.246,0.808-3.349,0.475c-1.104-0.338-2.004-1.111-2.697-2.32c-0.688-1.197-0.914-2.357-0.676-3.479
		c0.25-1.116,0.926-1.992,2.03-2.626c1.114-0.641,2.2-0.792,3.257-0.453c1.049,0.336,1.932,1.128,2.649,2.378L263.266,137.987z
		 M260.646,137.588c-0.78-0.793-1.637-0.922-2.57-0.386c-0.213,0.122-0.394,0.27-0.543,0.441c-0.15,0.173-0.266,0.363-0.349,0.573
		s-0.13,0.432-0.14,0.665c-0.012,0.233,0.018,0.477,0.086,0.726L260.646,137.588z"/>
	<path fill="#FFFFFF" d="M265.51,133.285l3.413,5.942l-1.75,1.005l-3.413-5.942l-0.748,0.429l-0.938-1.635l0.747-0.429l-1.595-2.776
		l1.75-1.005l1.595,2.776l1.361-0.782l0.939,1.635L265.51,133.285z"/>
	<path fill="#FFFFFF" d="M275.594,140.879l-1.75,1.005l-6.722-11.7l1.75-1.005l0.474,0.825c0.295-1.085,0.879-1.881,1.755-2.384
		c1.042-0.599,2.122-0.707,3.237-0.328c1.122,0.369,2.017,1.135,2.684,2.296c0.652,1.136,0.857,2.278,0.612,3.425
		c-0.242,1.139-0.877,2.003-1.903,2.593c-0.887,0.51-1.885,0.611-2.992,0.302L275.594,140.879z M275.236,130.624
		c-0.416-0.726-0.953-1.203-1.609-1.434c-0.664-0.231-1.3-0.174-1.906,0.175c-0.644,0.369-1.036,0.893-1.18,1.567
		c-0.143,0.676-0.006,1.376,0.41,2.102c0.409,0.712,0.945,1.184,1.609,1.415c0.653,0.225,1.302,0.153,1.945-0.217
		c0.606-0.348,0.976-0.865,1.107-1.547C275.756,131.996,275.631,131.309,275.236,130.624z"/>
	<path fill="#FFFFFF" d="M275.23,118.13l7.547,13.139l-1.75,1.005l-7.547-13.139L275.23,118.13z"/>
	<path fill="#FFFFFF" d="M286.228,119.21l1.758-1.01l4.353,7.577l-1.758,1.01l-0.455-0.793c-0.334,1.088-0.916,1.87-1.746,2.347
		c-1.047,0.602-2.131,0.721-3.25,0.356c-1.123-0.382-2.018-1.151-2.682-2.308c-0.652-1.137-0.856-2.277-0.611-3.425
		c0.244-1.147,0.877-2.015,1.898-2.602c0.881-0.506,1.881-0.597,2.998-0.273L286.228,119.21z M284.236,125.361
		c0.417,0.726,0.951,1.205,1.602,1.439c0.664,0.231,1.301,0.174,1.908-0.175c0.647-0.373,1.043-0.896,1.187-1.572
		c0.134-0.69-0.003-1.391-0.411-2.102s-0.944-1.182-1.608-1.414c-0.659-0.222-1.308-0.15-1.944,0.216
		c-0.603,0.346-0.975,0.863-1.116,1.553C283.719,123.997,283.846,124.682,284.236,125.361z"/>
	<path fill="#FFFFFF" d="M296.279,113.871l1.336,2.326c-0.68-0.259-1.229-0.388-1.65-0.387c-0.418-0.008-0.838,0.108-1.258,0.35
		c-0.658,0.378-1.072,0.924-1.243,1.635c-0.171,0.712-0.056,1.415,0.343,2.109c0.408,0.712,0.953,1.175,1.636,1.39
		c0.687,0.212,1.36,0.129,2.019-0.25c0.421-0.241,0.739-0.545,0.957-0.911c0.209-0.354,0.379-0.907,0.506-1.656l1.328,2.31
		c-0.5,0.777-1.104,1.369-1.814,1.777c-1.172,0.673-2.37,0.857-3.594,0.553c-1.226-0.309-2.163-1.03-2.813-2.16
		c-0.649-1.131-0.798-2.314-0.447-3.552c0.353-1.236,1.109-2.188,2.271-2.856C294.602,114.12,295.409,113.895,296.279,113.871z"/>
	<path fill="#FFFFFF" d="M307.1,112.808l-5.43,3.119c0.404,0.595,0.891,0.974,1.461,1.138c0.566,0.156,1.129,0.074,1.689-0.247
		c0.436-0.25,0.736-0.562,0.902-0.933c0.161-0.368,0.26-0.935,0.295-1.7l1.951-0.025c-0.004,0.521-0.054,0.992-0.148,1.416
		c-0.095,0.424-0.236,0.808-0.424,1.154c-0.188,0.347-0.426,0.656-0.715,0.933s-0.632,0.529-1.025,0.755
		c-1.131,0.649-2.246,0.808-3.349,0.475c-1.104-0.338-2.004-1.111-2.698-2.32c-0.688-1.197-0.913-2.357-0.676-3.48
		c0.25-1.116,0.926-1.992,2.031-2.626c1.114-0.64,2.2-0.792,3.257-0.453c1.048,0.336,1.931,1.128,2.649,2.378L307.1,112.808z
		 M304.48,112.408c-0.779-0.794-1.637-0.922-2.57-0.386c-0.213,0.123-0.393,0.27-0.543,0.442c-0.149,0.173-0.266,0.363-0.349,0.573
		c-0.083,0.21-0.13,0.432-0.14,0.666c-0.011,0.233,0.018,0.476,0.086,0.726L304.48,112.408z"/>
	<path fill="#FFFFFF" d="M311.746,106.269l-1.005,1.602c-0.497-0.334-0.913-0.406-1.251-0.213c-0.16,0.093-0.268,0.226-0.32,0.396
		c-0.053,0.173-0.031,0.341,0.064,0.507c0.166,0.291,0.669,0.385,1.506,0.283c1.158-0.134,1.994-0.125,2.51,0.028
		c0.516,0.152,0.937,0.514,1.264,1.084c0.42,0.731,0.503,1.499,0.246,2.301c-0.256,0.768-0.754,1.364-1.496,1.79
		c-1.271,0.73-2.525,0.627-3.767-0.308l1.096-1.551c0.416,0.244,0.706,0.384,0.872,0.421c0.326,0.074,0.637,0.027,0.932-0.143
		c0.592-0.339,0.732-0.779,0.423-1.319c-0.179-0.311-0.573-0.469-1.185-0.477c-0.229,0.013-0.453,0.028-0.678,0.046
		c-0.224,0.018-0.451,0.036-0.684,0.051c-0.651,0.044-1.152,0-1.502-0.129c-0.446-0.165-0.813-0.496-1.1-0.994
		c-0.378-0.658-0.465-1.333-0.261-2.021c0.214-0.696,0.65-1.233,1.31-1.612C309.689,105.453,310.699,105.54,311.746,106.269z"/>
	<path fill="#FFFFFF" d="M320.062,96.144l5.921,10.308l-1.813,1.041l-5.921-10.308l-2.761,1.586l-0.979-1.703l7.327-4.209
		l0.979,1.703L320.062,96.144z"/>
	<path fill="#FFFFFF" d="M325.666,96.555l1.751-1.005l0.39,0.678c0.127-0.521,0.279-0.917,0.457-1.185
		c0.18-0.274,0.443-0.513,0.791-0.712c0.461-0.265,1.03-0.392,1.705-0.38l0.12,2.064c-0.469-0.049-0.862,0.019-1.178,0.2
		c-0.954,0.548-1.018,1.542-0.188,2.984l2.256,3.929l-1.75,1.005L325.666,96.555z"/>
	<path fill="#FFFFFF" d="M337.211,89.923l1.758-1.01l4.353,7.577l-1.758,1.01l-0.456-0.793c-0.334,1.088-0.915,1.871-1.745,2.347
		c-1.048,0.602-2.131,0.72-3.251,0.356c-1.122-0.382-2.017-1.152-2.681-2.308c-0.652-1.137-0.856-2.277-0.612-3.424
		c0.245-1.148,0.877-2.016,1.899-2.603c0.882-0.506,1.882-0.597,2.999-0.273L337.211,89.923z M335.221,96.075
		c0.416,0.726,0.951,1.205,1.602,1.438c0.664,0.231,1.3,0.174,1.906-0.175c0.648-0.372,1.045-0.896,1.188-1.571
		c0.135-0.69-0.002-1.391-0.41-2.102s-0.945-1.182-1.609-1.414c-0.658-0.222-1.307-0.15-1.945,0.216
		c-0.602,0.346-0.973,0.863-1.115,1.553C334.701,94.711,334.83,95.396,335.221,96.075z"/>
	<path fill="#FFFFFF" d="M347.262,84.585l1.336,2.326c-0.679-0.259-1.229-0.388-1.649-0.388c-0.418-0.008-0.837,0.108-1.258,0.35
		c-0.659,0.378-1.073,0.924-1.243,1.635c-0.171,0.712-0.057,1.415,0.343,2.109c0.409,0.712,0.954,1.175,1.636,1.389
		c0.688,0.212,1.359,0.129,2.02-0.25c0.42-0.241,0.738-0.545,0.955-0.911c0.21-0.354,0.379-0.907,0.507-1.656l1.327,2.31
		c-0.499,0.777-1.104,1.369-1.814,1.777c-1.172,0.673-2.369,0.857-3.593,0.553c-1.226-0.309-2.163-1.029-2.813-2.159
		c-0.648-1.131-0.797-2.314-0.446-3.552c0.353-1.236,1.108-2.188,2.271-2.856C345.584,84.834,346.393,84.609,347.262,84.585z"/>
	<path fill="#FFFFFF" d="M347.326,76.717l4.602,8.012l1.059-3.867l2.35-1.349l-1.463,5.073l6.057,2.366l-2.271,1.305l-4.342-1.759
		l-0.119,0.441l1.676,2.917l-1.75,1.005l-7.548-13.139L347.326,76.717z"/>
	<path fill="#FFFFFF" d="M359.063,68.4l9.228,7.431l-2.003-12.506l9.628,8.126l-1.538-11.848l2.347-1.349l2.348,18.907l-9.511-8.031
		l1.994,12.362l-14.839-11.745L359.063,68.4z"/>
	<path fill="#FFFFFF" d="M378.67,59.173c-0.209-0.364-0.258-0.756-0.145-1.175s0.355-0.735,0.727-0.948
		c0.377-0.216,0.775-0.269,1.193-0.154c0.416,0.107,0.73,0.349,0.947,0.726c0.217,0.378,0.27,0.776,0.156,1.194
		c-0.107,0.416-0.35,0.731-0.727,0.948c-0.377,0.216-0.775,0.269-1.193,0.154C379.211,59.806,378.891,59.557,378.67,59.173z
		 M383.23,61.551l5.189,9.034l-2.087,1.198l-5.189-9.034L383.23,61.551z"/>
	<path fill="#FFFFFF" d="M385.875,60.032l2.096-1.205l0.479,0.835c0.313-1.144,0.929-1.978,1.844-2.503
		c1.052-0.604,2.062-0.743,3.028-0.419c0.83,0.272,1.611,1.044,2.343,2.318l3.181,5.538L396.75,65.8l-2.898-5.046
		c-0.512-0.891-0.988-1.435-1.432-1.633c-0.439-0.208-0.979-0.128-1.615,0.237c-0.693,0.398-1.053,0.909-1.08,1.533
		c-0.026,0.616,0.285,1.486,0.932,2.611l2.504,4.359l-2.096,1.205L385.875,60.032z"/>
	<path fill="#FFFFFF" d="M396.291,54.048l2.096-1.204l0.48,0.835c0.313-1.144,0.928-1.978,1.844-2.503
		c1.051-0.604,2.061-0.744,3.028-0.42c0.831,0.272,1.611,1.044,2.343,2.318l3.182,5.538l-2.097,1.204l-2.898-5.046
		c-0.512-0.891-0.989-1.435-1.433-1.632c-0.439-0.208-0.978-0.129-1.614,0.237c-0.692,0.397-1.054,0.908-1.081,1.532
		c-0.025,0.616,0.285,1.486,0.932,2.611l2.504,4.359l-2.096,1.204L396.291,54.048z"/>
	<path fill="#FFFFFF" d="M417.813,48.347l-6.475,3.719c0.482,0.709,1.063,1.162,1.74,1.356c0.676,0.188,1.348,0.09,2.016-0.293
		c0.52-0.299,0.879-0.67,1.076-1.112c0.191-0.438,0.309-1.115,0.353-2.028l2.327-0.029c-0.006,0.62-0.064,1.183-0.178,1.688
		c-0.113,0.505-0.281,0.964-0.506,1.376c-0.223,0.413-0.508,0.784-0.853,1.113c-0.346,0.33-0.753,0.63-1.223,0.899
		c-1.349,0.774-2.679,0.964-3.993,0.566c-1.316-0.403-2.389-1.325-3.217-2.767c-0.82-1.428-1.089-2.812-0.805-4.149
		c0.296-1.33,1.104-2.375,2.42-3.131c1.33-0.764,2.625-0.944,3.885-0.541c1.25,0.4,2.303,1.346,3.158,2.835L417.813,48.347z
		 M414.689,47.871c-0.93-0.946-1.951-1.099-3.064-0.459c-0.254,0.146-0.471,0.321-0.648,0.525c-0.178,0.205-0.316,0.433-0.415,0.683
		s-0.155,0.515-0.168,0.793s0.022,0.567,0.103,0.866L414.689,47.871z"/>
	<path fill="#FFFFFF" d="M417.217,42.027l2.088-1.198l0.463,0.807c0.152-0.623,0.334-1.094,0.547-1.412
		c0.214-0.33,0.527-0.613,0.941-0.85c0.551-0.316,1.229-0.467,2.035-0.453l0.143,2.459c-0.56-0.058-1.027,0.023-1.405,0.24
		c-1.138,0.653-1.213,1.84-0.226,3.559l2.691,4.685l-2.088,1.198L417.217,42.027z"/>
</g>
<g>
	<g>
		<g>
			<path fill="#FFFFFF" d="M524.182,506.026l1.867-1.085l3.838,6.609c0.317-0.984,0.877-1.708,1.68-2.174
				c0.914-0.53,1.816-0.659,2.708-0.384c0.765,0.245,1.474,0.931,2.13,2.061l2.878,4.957l-1.868,1.085l-2.777-4.783
				c-0.376-0.647-0.764-1.051-1.161-1.208c-0.399-0.157-0.853-0.087-1.362,0.209c-0.653,0.379-0.996,0.847-1.026,1.406
				c-0.023,0.561,0.256,1.339,0.834,2.335l2.271,3.911l-1.868,1.085L524.182,506.026z"/>
		</g>
		<g>
			<path fill="#FFFFFF" d="M542.914,503.086l1.877-1.09l4.696,8.088l-1.876,1.09l-0.493-0.847c-0.352,1.166-0.97,2.006-1.855,2.521
				c-1.118,0.649-2.277,0.783-3.478,0.398c-1.204-0.403-2.164-1.223-2.881-2.457c-0.705-1.213-0.928-2.433-0.673-3.663
				c0.256-1.229,0.929-2.16,2.019-2.793c0.942-0.546,2.011-0.649,3.208-0.307L542.914,503.086z M540.815,509.68
				c0.45,0.775,1.024,1.285,1.722,1.531c0.712,0.246,1.392,0.18,2.04-0.196c0.692-0.401,1.113-0.965,1.263-1.689
				c0.14-0.739-0.009-1.489-0.451-2.248c-0.44-0.758-1.016-1.26-1.729-1.505c-0.706-0.234-1.398-0.153-2.08,0.242
				c-0.642,0.373-1.038,0.928-1.187,1.666C540.254,508.222,540.393,508.954,540.815,509.68z"/>
		</g>
		<g>
			<path fill="#FFFFFF" d="M553.646,497.322l1.441,2.482c-0.728-0.273-1.317-0.408-1.768-0.405
				c-0.448-0.007-0.896,0.121-1.344,0.381c-0.703,0.408-1.144,0.993-1.323,1.755c-0.179,0.764-0.053,1.516,0.377,2.257
				c0.441,0.758,1.026,1.251,1.758,1.478c0.737,0.224,1.456,0.132,2.159-0.277c0.448-0.26,0.788-0.588,1.019-0.98
				c0.222-0.381,0.401-0.973,0.534-1.776l1.432,2.465c-0.531,0.834-1.175,1.471-1.933,1.911c-1.251,0.726-2.532,0.931-3.843,0.609
				c-1.314-0.325-2.321-1.091-3.022-2.298c-0.701-1.207-0.866-2.472-0.496-3.797c0.371-1.326,1.175-2.348,2.415-3.068
				C551.852,497.598,552.716,497.351,553.646,497.322z"/>
		</g>
		<g>
			<path fill="#FFFFFF" d="M553.675,488.901l4.966,8.552l1.113-4.143l2.508-1.457l-1.541,5.436l6.494,2.503l-2.425,1.408
				l-4.656-1.861l-0.125,0.472l1.808,3.115l-1.868,1.085l-8.143-14.024L553.675,488.901z"/>
		</g>
		<g>
			<path fill="#FFFFFF" d="M569.685,487.543l1.876-1.09l4.697,8.087l-1.877,1.09l-0.493-0.846c-0.351,1.166-0.97,2.006-1.855,2.521
				c-1.118,0.649-2.277,0.783-3.478,0.397c-1.203-0.403-2.164-1.223-2.881-2.457c-0.705-1.213-0.928-2.433-0.672-3.663
				c0.256-1.229,0.929-2.161,2.019-2.793c0.941-0.546,2.01-0.649,3.207-0.308L569.685,487.543z M567.585,494.137
				c0.451,0.775,1.024,1.285,1.722,1.531c0.712,0.246,1.393,0.18,2.04-0.196c0.692-0.401,1.113-0.964,1.263-1.688
				c0.141-0.739-0.009-1.489-0.451-2.248c-0.44-0.758-1.016-1.26-1.729-1.505c-0.705-0.234-1.398-0.153-2.08,0.242
				c-0.642,0.373-1.038,0.927-1.186,1.666C567.024,492.679,567.164,493.411,567.585,494.137z"/>
		</g>
		<g>
			<path fill="#FFFFFF" d="M576.858,485.709l3.684,6.345l-1.867,1.084l-3.684-6.344l-0.797,0.463l-1.013-1.744l0.797-0.462
				l-1.721-2.965l1.868-1.084l1.721,2.964l1.453-0.844l1.013,1.744L576.858,485.709z"/>
		</g>
		<g>
			<path fill="#FFFFFF" d="M575.123,476.448l1.867-1.085l3.838,6.609c0.317-0.984,0.877-1.708,1.68-2.174
				c0.913-0.531,1.816-0.659,2.708-0.384c0.764,0.245,1.473,0.931,2.129,2.061l2.878,4.957l-1.868,1.085l-2.777-4.783
				c-0.376-0.647-0.764-1.05-1.161-1.207c-0.399-0.157-0.853-0.087-1.362,0.209c-0.653,0.379-0.995,0.846-1.026,1.406
				c-0.022,0.56,0.256,1.339,0.834,2.335l2.271,3.911l-1.868,1.085L575.123,476.448z"/>
		</g>
		<g>
			<path fill="#FFFFFF" d="M589.827,481.178c-0.679-1.168-0.837-2.404-0.478-3.709c0.361-1.303,1.141-2.306,2.343-3.002
				c1.207-0.701,2.47-0.883,3.79-0.547c1.309,0.343,2.313,1.115,3.01,2.316c0.704,1.213,0.875,2.472,0.515,3.776
				c-0.369,1.302-1.164,2.308-2.388,3.018c-1.213,0.705-2.469,0.879-3.771,0.524C591.554,483.21,590.547,482.418,589.827,481.178z
				 M591.756,480.102c0.469,0.808,1.056,1.322,1.762,1.542c0.719,0.219,1.44,0.118,2.166-0.302c0.73-0.425,1.178-0.998,1.343-1.723
				c0.164-0.724,0.017-1.479-0.44-2.267c-0.456-0.786-1.04-1.287-1.75-1.504c-0.719-0.217-1.441-0.117-2.166,0.305
				c-0.715,0.415-1.155,0.988-1.321,1.72C591.183,478.606,591.319,479.349,591.756,480.102z"/>
		</g>
		<g>
			<path fill="#FFFFFF" d="M598.116,471.035l1.877-1.09l0.433,0.747c0.277-1.027,0.825-1.778,1.645-2.253
				c0.942-0.546,1.846-0.677,2.716-0.389c0.747,0.239,1.451,0.93,2.113,2.071l2.878,4.957l-1.877,1.09l-2.623-4.518
				c-0.463-0.797-0.893-1.284-1.292-1.46c-0.396-0.185-0.878-0.111-1.449,0.219c-0.62,0.36-0.942,0.821-0.963,1.382
				c-0.02,0.551,0.263,1.331,0.847,2.338l2.267,3.903l-1.877,1.09L598.116,471.035z"/>
		</g>
		<g>
			<path fill="#FFFFFF" d="M619.409,467.055l4.774-2.772l1.057,1.819l-8.611,4.999l1.322-7.973c0.125-0.791,0.222-1.469,0.29-2.034
				c0.068-0.564,0.102-1.025,0.103-1.381c0.013-0.703-0.101-1.262-0.341-1.677c-0.347-0.598-0.848-0.977-1.503-1.137
				c-0.656-0.16-1.293-0.059-1.913,0.301c-1.295,0.752-1.592,1.949-0.89,3.592l-1.927,1.119c-1.259-2.882-0.678-5.026,1.74-6.43
				c1.168-0.678,2.364-0.875,3.586-0.594c1.228,0.279,2.16,0.966,2.796,2.062c0.405,0.698,0.617,1.489,0.635,2.375
				c0.013,0.458-0.021,1.031-0.105,1.72c-0.085,0.691-0.215,1.522-0.389,2.496L619.409,467.055z"/>
		</g>
		<g>
			<path fill="#FFFFFF" d="M623.653,458.34c-1.186-2.043-1.656-3.949-1.412-5.72c0.213-1.595,0.925-2.747,2.138-3.451
				c1.212-0.704,2.564-0.751,4.057-0.145c1.659,0.666,3.097,2.046,4.316,4.144c1.214,2.093,1.7,4.025,1.455,5.795
				c-0.214,1.596-0.923,2.745-2.129,3.446c-1.207,0.701-2.562,0.751-4.065,0.15C626.353,461.894,624.9,460.487,623.653,458.34z
				 M625.56,457.244c0.826,1.423,1.758,2.461,2.797,3.116c1.03,0.639,1.926,0.736,2.69,0.292c0.758-0.44,1.118-1.267,1.08-2.481
				c-0.036-1.208-0.46-2.513-1.273-3.913c-0.813-1.401-1.737-2.419-2.772-3.054c-1.032-0.629-1.927-0.724-2.684-0.284
				c-0.753,0.437-1.112,1.26-1.077,2.468C624.353,454.592,624.766,455.878,625.56,457.244z"/>
		</g>
		<g>
			<path fill="#FFFFFF" d="M635.412,445.472l-2.217,1.287l0.012-2.426l3.089-1.793l7.443,12.821l-1.935,1.123L635.412,445.472z"/>
		</g>
		<g>
			<path fill="#FFFFFF" d="M646.776,444.681c-1.327-0.118-2.323-0.75-2.988-1.896c-0.604-1.041-0.752-2.118-0.442-3.229
				c0.314-1.116,1.005-1.984,2.074-2.605c1.062-0.617,2.151-0.782,3.265-0.495c1.11,0.28,1.97,0.946,2.581,1.998
				c0.639,1.101,0.694,2.274,0.164,3.514c0.675-0.023,1.314,0.147,1.916,0.507c0.607,0.359,1.104,0.869,1.49,1.533
				c0.659,1.135,0.828,2.281,0.507,3.436c-0.32,1.157-1.059,2.07-2.217,2.742c-1.185,0.687-2.373,0.889-3.567,0.606
				c-1.2-0.281-2.12-0.974-2.763-2.082C645.96,447.271,645.953,445.928,646.776,444.681z M645.602,441.721
				c0.318,0.547,0.77,0.899,1.356,1.055c0.595,0.157,1.159,0.083,1.691-0.226c0.526-0.305,0.867-0.755,1.025-1.35
				c0.158-0.595,0.085-1.155-0.221-1.682c-0.306-0.525-0.756-0.867-1.351-1.026c-0.595-0.157-1.155-0.083-1.681,0.221
				c-0.526,0.306-0.867,0.756-1.026,1.351C645.237,440.659,645.306,441.211,645.602,441.721z M648.659,447.54
				c0.344,0.592,0.845,0.984,1.502,1.171c0.659,0.179,1.285,0.097,1.878-0.247c0.586-0.341,0.966-0.839,1.141-1.495
				c0.171-0.663,0.086-1.286-0.255-1.873c-0.344-0.592-0.844-0.975-1.5-1.15c-0.656-0.174-1.277-0.09-1.864,0.25
				c-0.581,0.337-0.962,0.836-1.141,1.495C648.244,446.348,648.325,446.965,648.659,447.54z"/>
		</g>
	</g>
	<g>
		<g>
			<path fill="#FFFFFF" d="M450.211,561.099c-0.084-0.142-0.168-0.283-0.251-0.426c-0.082-0.143-0.162-0.287-0.205-0.448
				c-0.034-0.126-0.108-0.234-0.166-0.349c-0.042-0.083-0.091-0.163-0.096-0.26c-0.001-0.021-0.006-0.043-0.015-0.062
				c-0.084-0.166-0.148-0.338-0.202-0.517c-0.05-0.163-0.094-0.328-0.142-0.492c-0.066-0.225-0.116-0.456-0.161-0.687
				c-0.064-0.328-0.111-0.658-0.142-0.991c-0.04-0.429-0.05-0.857-0.041-1.288c0.006-0.328,0.052-0.651,0.082-0.977
				c0.027-0.29,0.109-0.57,0.155-0.856c0.06-0.369,0.175-0.72,0.283-1.075c0.168-0.55,0.396-1.076,0.662-1.584
				c0.175-0.333,0.372-0.656,0.576-0.973c0.114-0.176,0.233-0.353,0.368-0.513c0.132-0.156,0.236-0.336,0.397-0.467
				c0.057-0.047,0.066-0.127,0.131-0.167c0.055-0.034,0.091-0.086,0.127-0.142c0.058-0.09,0.156-0.142,0.228-0.224
				c0.116-0.134,0.253-0.25,0.387-0.367c0.156-0.136,0.324-0.259,0.477-0.399c0.144-0.131,0.304-0.238,0.461-0.351
				c0.338-0.242,0.68-0.479,1.051-0.666c0.472-0.239,0.949-0.468,1.45-0.644c0.188-0.066,0.377-0.133,0.568-0.188
				c0.155-0.044,0.305-0.122,0.473-0.12c0.114-0.069,0.253-0.04,0.37-0.095c0.092-0.044,0.194-0.031,0.291-0.054
				c0.211-0.049,0.429-0.073,0.645-0.094c0.409-0.04,0.82-0.062,1.231-0.058c0.411,0.004,0.819,0.052,1.228,0.091
				c0.407,0.039,0.796,0.163,1.199,0.216c0.063,0.008,0.124,0.033,0.185,0.053c0.135,0.044,0.266,0.1,0.403,0.132
				c0.343,0.079,0.661,0.22,0.981,0.36c0.252,0.11,0.506,0.217,0.749,0.345c0.262,0.138,0.515,0.294,0.767,0.452
				c0.338,0.212,0.66,0.448,0.963,0.705c0.172,0.146,0.364,0.273,0.502,0.457c0.146,0.07,0.201,0.24,0.345,0.315
				c0.035,0.018,0.058,0.062,0.083,0.097c0.051,0.07,0.1,0.138,0.172,0.189c0.039,0.028,0.071,0.07,0.1,0.11
				c0.062,0.088,0.119,0.176,0.211,0.24c0.045,0.031,0.075,0.086,0.106,0.133c0.094,0.144,0.186,0.289,0.301,0.418
				c0.125,0.14,0.22,0.3,0.315,0.46c0.113,0.191,0.226,0.383,0.338,0.574c0.094,0.161,0.189,0.321,0.249,0.499
				c0.051,0.15,0.127,0.288,0.2,0.427c0.043,0.082,0.094,0.162,0.093,0.26c0,0.014,0.003,0.029,0.009,0.042
				c0.081,0.159,0.138,0.326,0.186,0.498c0.026,0.095,0.07,0.182,0.086,0.284c0.018,0.117,0.066,0.231,0.097,0.348
				c0.09,0.336,0.155,0.675,0.209,1.019c0.076,0.485,0.112,0.97,0.118,1.461c0.004,0.255-0.027,0.508-0.012,0.762
				c-0.074,0.512-0.106,1.031-0.238,1.535c-0.038,0.144-0.055,0.294-0.096,0.437c-0.067,0.234-0.148,0.463-0.217,0.696
				c-0.076,0.259-0.196,0.501-0.295,0.75c-0.235,0.589-0.558,1.133-0.894,1.668c-0.174,0.186-0.28,0.422-0.458,0.607
				c-0.066,0.069-0.119,0.156-0.184,0.23c-0.144,0.165-0.272,0.346-0.431,0.495c-0.119,0.112-0.212,0.253-0.356,0.338
				c-0.278,0.311-0.623,0.545-0.936,0.816c-0.011,0.009-0.022,0.018-0.034,0.026c-0.411,0.273-0.803,0.579-1.25,0.793
				c-0.335,0.16-0.658,0.345-1.009,0.475c-0.214,0.079-0.429,0.16-0.641,0.245c-0.138,0.055-0.286,0.086-0.428,0.133
				c-0.175,0.057-0.354,0.109-0.535,0.138c-0.215,0.035-0.422,0.117-0.644,0.113c-0.43,0.097-0.868,0.127-1.306,0.141
				c-0.418,0.013-0.838,0.02-1.255-0.042c-0.195-0.029-0.395-0.034-0.59-0.064c-0.238-0.037-0.473-0.097-0.711-0.134
				c-0.453-0.07-0.876-0.243-1.312-0.369c-0.231-0.066-0.446-0.184-0.671-0.274c-0.33-0.132-0.642-0.3-0.951-0.473
				c-0.382-0.213-0.744-0.459-1.096-0.719c-0.195-0.144-0.38-0.302-0.562-0.463c-0.177-0.155-0.34-0.326-0.511-0.485
				c-0.125-0.117-0.218-0.265-0.362-0.362c-0.028-0.019-0.048-0.053-0.068-0.082c-0.077-0.112-0.152-0.223-0.262-0.31
				c-0.059-0.047-0.096-0.124-0.137-0.191c-0.08-0.128-0.169-0.248-0.272-0.359c-0.049-0.052-0.092-0.11-0.129-0.17
				c-0.112-0.184-0.219-0.37-0.328-0.555C450.214,561.098,450.213,561.099,450.211,561.099z M456.98,556.962
				c0.194-0.157,0.371-0.327,0.572-0.46c0.406-0.267,0.817-0.532,1.273-0.71c0.188-0.073,0.354-0.193,0.541-0.26
				c0.34-0.122,0.646-0.305,0.955-0.486c0.167-0.098,0.332-0.197,0.465-0.342c0.033-0.036,0.076-0.067,0.12-0.09
				c0.169-0.089,0.258-0.266,0.414-0.369c0.204-0.278,0.423-0.545,0.54-0.88c0.167-0.478,0.171-0.947-0.036-1.412
				c-0.079-0.177-0.18-0.342-0.293-0.5c-0.183-0.255-0.422-0.443-0.705-0.57c-0.314-0.141-0.643-0.207-0.99-0.209
				c-0.3-0.001-0.59,0.03-0.872,0.133c-0.019,0.007-0.042,0.011-0.063,0.008c-0.069-0.008-0.125,0.026-0.182,0.055
				c-0.28,0.145-0.55,0.307-0.813,0.481c-0.042,0.028-0.089,0.051-0.11,0.099c-0.031,0.071-0.093,0.106-0.151,0.148
				c-0.029,0.021-0.064,0.039-0.083,0.067c-0.115,0.17-0.263,0.312-0.382,0.48c-0.203,0.287-0.371,0.593-0.487,0.92
				c-0.205,0.579-0.297,1.179-0.276,1.796c0.013,0.38,0.073,0.753,0.166,1.119c0.034,0.137,0.054,0.281,0.126,0.409
				c0.042,0.075,0.065,0.156,0.085,0.241C456.822,556.755,456.873,556.873,456.98,556.962z M458.171,556.892
				c-0.093,0.055-0.183,0.113-0.278,0.163c-0.104,0.054-0.18,0.14-0.259,0.222c-0.025,0.025-0.058,0.041-0.087,0.063
				c-0.102,0.077-0.226,0.124-0.296,0.242c-0.066,0.11-0.221,0.14-0.258,0.279c-0.162,0.181-0.281,0.387-0.386,0.606
				c-0.235,0.487-0.22,0.979-0.029,1.464c0.124,0.313,0.338,0.566,0.615,0.774c0.34,0.255,0.721,0.371,1.13,0.385
				c0.365,0.012,0.734-0.009,1.073-0.18c0.037-0.019,0.083-0.021,0.124-0.032c0.041-0.011,0.084-0.02,0.122-0.038
				c0.371-0.172,0.723-0.448,1.019-0.765c0.121-0.13,0.232-0.263,0.339-0.404c0.28-0.37,0.455-0.785,0.591-1.223
				c0.061-0.198,0.079-0.404,0.119-0.606c0.036-0.182,0.045-0.367,0.045-0.55c-0.001-0.364-0.035-0.725-0.109-1.083
				c-0.02-0.1-0.068-0.188-0.084-0.287c-0.034-0.213-0.132-0.405-0.199-0.607c-0.013-0.04-0.038-0.077-0.061-0.114
				c-0.034-0.055-0.06-0.058-0.12-0.014c-0.143,0.107-0.293,0.205-0.42,0.333c-0.05,0.05-0.112,0.089-0.173,0.125
				c-0.271,0.161-0.543,0.32-0.816,0.477c-0.074,0.042-0.153,0.079-0.235,0.104c-0.124,0.039-0.239,0.095-0.352,0.157
				c-0.12,0.065-0.236,0.14-0.363,0.184C458.591,556.648,458.379,556.766,458.171,556.892z"/>
		</g>
		<g>
			<path fill="#FFFFFF" d="M498.052,534.758c0.702,1.192,1.405,2.384,2.107,3.576c0.053,0.09,0.109,0.178,0.157,0.271
				c0.079,0.152,0.058,0.224-0.092,0.326c-0.076,0.051-0.156,0.095-0.235,0.142c-0.562,0.331-1.123,0.665-1.687,0.993
				c-0.537,0.313-0.433,0.341-0.746-0.178c-0.067-0.112-0.132-0.225-0.2-0.337c-0.02-0.033-0.041-0.069-0.071-0.092
				c-0.029-0.022-0.069-0.033-0.101,0.007c-0.052,0.063-0.073,0.138-0.083,0.216c-0.068,0.513-0.295,0.966-0.586,1.377
				c-0.144,0.204-0.287,0.435-0.531,0.558c-0.057,0.029-0.107,0.076-0.15,0.124c-0.276,0.314-0.612,0.52-1.025,0.601
				c-0.05,0.01-0.099,0.033-0.145,0.058c-0.399,0.213-0.834,0.241-1.274,0.273c-0.511,0.037-1.005-0.036-1.491-0.172
				c-0.423-0.118-0.823-0.298-1.192-0.539c-0.151-0.099-0.297-0.205-0.444-0.309c-0.22-0.157-0.43-0.328-0.598-0.543
				c-0.056-0.072-0.102-0.156-0.17-0.214c-0.4-0.341-0.597-0.818-0.853-1.255c-0.045-0.076-0.058-0.171-0.085-0.258
				c-0.027-0.087-0.043-0.18-0.083-0.26c-0.201-0.402-0.252-0.837-0.298-1.275c-0.077-0.736,0.025-1.45,0.289-2.135
				c0.163-0.421,0.402-0.804,0.665-1.177c0.191-0.271,0.497-0.416,0.667-0.697c0.389-0.229,0.731-0.553,1.207-0.611
				c0.038-0.005,0.076-0.021,0.111-0.036c0.491-0.221,1.004-0.223,1.523-0.156c0.206,0.027,0.413,0.061,0.606,0.143
				c0.087,0.037,0.174,0.052,0.266,0.044c0.048-0.004,0.065-0.049,0.051-0.082c-0.036-0.084-0.081-0.163-0.126-0.242
				c-0.103-0.181-0.21-0.361-0.313-0.542c-0.046-0.081-0.024-0.149,0.053-0.199c0.131-0.086,0.258-0.177,0.393-0.258
				c0.505-0.3,1.01-0.6,1.519-0.894c0.146-0.085,0.301-0.156,0.455-0.226c0.079-0.036,0.153-0.012,0.201,0.067
				c0.054,0.089,0.108,0.179,0.161,0.268C496.62,532.329,497.336,533.544,498.052,534.758z M491.518,538.578
				c0.204,0.377,0.506,0.651,0.864,0.872c0.554,0.342,1.135,0.48,1.771,0.263c0.049-0.017,0.101-0.031,0.152-0.034
				c0.163-0.012,0.294-0.096,0.433-0.169c0.25-0.132,0.37-0.401,0.598-0.556c0.291-0.471,0.47-0.968,0.427-1.537
				c-0.018-0.237-0.1-0.451-0.151-0.677c-0.047-0.209-0.128-0.402-0.256-0.566c-0.297-0.381-0.642-0.717-1.09-0.913
				c-0.698-0.305-1.387-0.28-2.05,0.115c-0.202,0.12-0.368,0.269-0.522,0.455c-0.143,0.173-0.267,0.347-0.348,0.551
				C491.046,537.142,491.132,537.873,491.518,538.578z"/>
		</g>
		<g>
			<path fill="#FFFFFF" d="M513.192,525.518c0.729,1.238,1.459,2.476,2.188,3.714c0.148,0.251,0.22,0.288-0.114,0.484
				c-0.676,0.397-1.351,0.795-2.026,1.193c-0.023,0.013-0.045,0.027-0.068,0.039c-0.178,0.092-0.214,0.085-0.316-0.078
				c-0.097-0.155-0.186-0.315-0.28-0.472c-0.033-0.056-0.065-0.114-0.105-0.165c-0.021-0.027-0.058-0.05-0.091-0.056
				c-0.053-0.009-0.062,0.043-0.064,0.078c-0.015,0.209-0.062,0.408-0.129,0.608c-0.128,0.383-0.317,0.722-0.579,1.034
				c-0.137,0.163-0.28,0.301-0.448,0.422c-0.032,0.023-0.067,0.045-0.089,0.076c-0.231,0.322-0.58,0.497-0.922,0.639
				c-0.366,0.152-0.745,0.322-1.15,0.338c-0.752,0.03-1.464-0.095-2.075-0.596c-0.174-0.143-0.336-0.283-0.455-0.473
				c-0.034-0.055-0.069-0.116-0.12-0.154c-0.239-0.178-0.376-0.432-0.522-0.678c-0.978-1.652-1.954-3.306-2.929-4.96
				c-0.18-0.305-0.177-0.311,0.111-0.482c0.651-0.387,1.305-0.77,1.958-1.155c0.045-0.027,0.089-0.054,0.136-0.077
				c0.141-0.069,0.219-0.054,0.304,0.067c0.06,0.085,0.11,0.177,0.163,0.267c0.677,1.148,1.352,2.296,2.03,3.443
				c0.16,0.27,0.325,0.536,0.496,0.799c0.205,0.314,0.602,0.612,0.946,0.777c0.151,0.073,0.314,0.105,0.452,0.079
				c0.429-0.081,0.884-0.133,1.152-0.557c0.076-0.12,0.211-0.178,0.285-0.313c0.201-0.365,0.22-0.747,0.146-1.137
				c-0.073-0.385-0.214-0.744-0.419-1.086c-0.739-1.232-1.462-2.474-2.19-3.713c-0.298-0.506-0.302-0.433,0.185-0.723
				c0.584-0.347,1.17-0.691,1.756-1.034c0.09-0.053,0.182-0.102,0.277-0.146c0.066-0.03,0.131-0.008,0.171,0.051
				c0.066,0.097,0.128,0.197,0.187,0.299C511.76,523.087,512.476,524.302,513.192,525.518z"/>
		</g>
		<g>
			<path fill="#FFFFFF" d="M477.052,548.537c0.337-0.199,0.675-0.397,1.012-0.597c0.156-0.092,0.214-0.128,0.357,0.054
				c0.229,0.291,0.539,0.438,0.914,0.381c0.376-0.057,0.737-0.163,1.048-0.4c0.18-0.136,0.304-0.321,0.436-0.494
				c0.102-0.133,0.119-0.305,0.045-0.482c-0.147-0.352-0.342-0.496-0.722-0.467c-0.246,0.019-0.492,0.056-0.733,0.109
				c-0.531,0.116-1.055,0.276-1.59,0.366c-0.505,0.085-1.003,0.229-1.524,0.218c-0.418-0.009-0.819-0.062-1.192-0.265
				c-0.241-0.131-0.472-0.271-0.617-0.517c-0.033-0.056-0.075-0.108-0.123-0.152c-0.139-0.126-0.231-0.278-0.276-0.461
				c-0.019-0.075-0.052-0.148-0.087-0.218c-0.372-0.753-0.249-1.485,0.121-2.189c0.141-0.269,0.3-0.544,0.56-0.73
				c0.104-0.227,0.316-0.338,0.508-0.471c0.053-0.037,0.104-0.08,0.148-0.127c0.417-0.453,0.984-0.675,1.501-0.972
				c0.21-0.025,0.407-0.089,0.586-0.2c0.173-0.107,0.39-0.038,0.562-0.147c0.604-0.069,1.204-0.116,1.79,0.127
				c0.44,0.182,0.825,0.429,1.122,0.804c0.073,0.092,0.152,0.179,0.222,0.274c0.12,0.164,0.106,0.224-0.075,0.342
				c-0.044,0.029-0.089,0.054-0.134,0.08c-0.596,0.351-1.192,0.703-1.789,1.054c-0.068,0.04-0.134,0.083-0.204,0.116
				c-0.112,0.053-0.196,0.034-0.278-0.06c-0.051-0.059-0.09-0.129-0.143-0.186c-0.154-0.163-0.336-0.285-0.565-0.295
				c-0.391-0.018-0.754,0.069-1.025,0.375c-0.127,0.144-0.291,0.254-0.355,0.457c-0.131,0.412,0.135,0.882,0.564,0.934
				c0.191,0.023,0.394,0.017,0.583-0.018c0.486-0.091,0.967-0.208,1.451-0.313c0.605-0.131,1.198-0.323,1.821-0.36
				c0.468-0.027,0.929-0.01,1.357,0.23c0.172,0.096,0.341,0.2,0.466,0.344c0.272,0.314,0.506,0.647,0.668,1.047
				c0.328,0.81,0.206,1.571-0.126,2.331c-0.108,0.247-0.41,0.644-0.617,0.833c-0.124,0.113-0.182,0.282-0.342,0.368
				c-0.137,0.073-0.283,0.156-0.381,0.271c-0.245,0.287-0.573,0.448-0.886,0.634c-0.146,0.086-0.296,0.162-0.463,0.206
				c-0.125,0.033-0.256,0.075-0.362,0.146c-0.28,0.186-0.609,0.236-0.919,0.309c-0.255,0.06-0.527,0.105-0.802,0.097
				c-0.378-0.011-0.754-0.05-1.101-0.189c-0.369-0.147-0.739-0.315-0.991-0.651c-0.243-0.127-0.367-0.358-0.505-0.577
				c-0.021-0.033-0.041-0.067-0.058-0.102c-0.052-0.105-0.04-0.159,0.069-0.227c0.211-0.13,0.426-0.254,0.639-0.381
				C476.759,548.709,476.905,548.623,477.052,548.537C477.052,548.537,477.052,548.537,477.052,548.537z"/>
		</g>
		<g>
			<path fill="#FFFFFF" d="M519.151,519.87c-0.304,0.179-0.607,0.358-0.911,0.536c-0.079,0.046-0.159,0.091-0.241,0.13
				c-0.066,0.031-0.128,0.014-0.172-0.045c-0.078-0.103-0.145-0.213-0.249-0.299c-0.466-0.382-1.094-0.251-1.5,0.105
				c-0.097,0.086-0.186,0.183-0.266,0.286c-0.283,0.363-0.257,0.88,0.277,1.129c0.045,0.021,0.1,0.028,0.15,0.029
				c0.234,0.005,0.467,0.009,0.699-0.042c0.482-0.105,0.966-0.199,1.446-0.322c0.337-0.087,0.676-0.188,1.018-0.243
				c0.491-0.079,0.986-0.149,1.491-0.051c0.421,0.082,0.769,0.281,1.091,0.543c0.049,0.04,0.082,0.101,0.116,0.157
				c0.124,0.2,0.247,0.4,0.367,0.602c0.388,0.653,0.391,1.346,0.217,2.059c-0.116,0.476-0.406,0.857-0.669,1.253
				c-0.251,0.183-0.393,0.483-0.686,0.623c-0.08,0.038-0.152,0.102-0.216,0.166c-0.396,0.394-0.869,0.659-1.393,0.841
				c-0.111,0.038-0.221,0.082-0.325,0.136c-0.625,0.324-1.299,0.413-1.988,0.381c-0.5-0.023-0.967-0.177-1.385-0.466
				c-0.38-0.263-0.699-0.581-0.921-0.989c-0.083-0.153-0.069-0.227,0.09-0.321c0.662-0.394,1.326-0.784,1.99-1.174
				c0.023-0.013,0.045-0.027,0.069-0.037c0.151-0.065,0.239-0.056,0.337,0.089c0.187,0.277,0.453,0.376,0.767,0.368
				c0.451-0.011,1.13-0.25,1.41-0.641c0.13-0.182,0.274-0.339,0.283-0.576c0.008-0.213-0.189-0.5-0.388-0.571
				c-0.191-0.068-0.386-0.077-0.577-0.041c-0.37,0.07-0.735,0.167-1.105,0.235c-0.407,0.074-0.802,0.207-1.217,0.247
				c-0.191,0.019-0.375,0.088-0.568,0.118c-0.432,0.067-0.895,0.091-1.3,0.036c-0.605-0.083-1.07-0.399-1.414-0.88
				c-0.423-0.589-0.632-1.245-0.528-1.984c0.063-0.449,0.256-0.839,0.508-1.202c0.153-0.221,0.335-0.422,0.512-0.625
				c0.059-0.067,0.142-0.114,0.215-0.167c0.125-0.092,0.26-0.165,0.342-0.312c0.041-0.073,0.135-0.12,0.212-0.167
				c0.266-0.165,0.534-0.328,0.804-0.487c0.191-0.113,0.38-0.228,0.61-0.252c0.063-0.006,0.126-0.036,0.182-0.067
				c0.314-0.168,0.652-0.226,1.002-0.267c0.231-0.028,0.456-0.045,0.689-0.043c0.568,0.005,1.073,0.191,1.521,0.51
				c0.303,0.216,0.585,0.474,0.747,0.829c0.049,0.108,0.04,0.155-0.064,0.228c-0.021,0.015-0.044,0.028-0.066,0.042
				C519.826,519.472,519.488,519.67,519.151,519.87C519.151,519.869,519.151,519.869,519.151,519.87z"/>
		</g>
		<g>
			<path fill="#FFFFFF" d="M499.687,533.612c-0.345-0.585-0.689-1.17-1.034-1.754c-0.046-0.079-0.091-0.159-0.142-0.234
				c-0.085-0.125-0.166-0.151-0.3-0.08c-0.207,0.111-0.407,0.235-0.611,0.352c-0.09,0.052-0.18,0.108-0.275,0.15
				c-0.135,0.059-0.218,0.033-0.297-0.093c-0.111-0.177-0.214-0.359-0.32-0.538c-0.179-0.304-0.361-0.606-0.535-0.912
				c-0.102-0.179-0.087-0.235,0.093-0.348c0.21-0.131,0.427-0.253,0.64-0.38c0.078-0.047,0.156-0.095,0.233-0.144
				c0.079-0.051,0.089-0.131,0.06-0.206c-0.038-0.096-0.092-0.187-0.144-0.277c-0.337-0.574-0.677-1.147-1.013-1.722
				c-0.195-0.334-0.193-0.337,0.139-0.534c0.607-0.359,1.214-0.716,1.822-1.074c0.067-0.04,0.135-0.081,0.206-0.112
				c0.066-0.029,0.135-0.011,0.178,0.042c0.065,0.081,0.121,0.17,0.174,0.259c0.333,0.562,0.664,1.124,0.995,1.687
				c0.257,0.437,0.239,0.375,0.616,0.157c0.35-0.203,0.697-0.411,1.047-0.615c0.09-0.052,0.182-0.102,0.277-0.144
				c0.065-0.028,0.128-0.012,0.171,0.05c0.023,0.032,0.045,0.064,0.065,0.098c0.279,0.472,0.558,0.944,0.834,1.418
				c0.093,0.16,0.08,0.228-0.055,0.333c-0.072,0.056-0.152,0.102-0.23,0.148c-0.337,0.2-0.675,0.398-1.012,0.597
				c-0.078,0.047-0.156,0.095-0.231,0.147c-0.074,0.051-0.091,0.126-0.059,0.206c0.024,0.06,0.058,0.117,0.091,0.173
				c0.531,0.9,1.065,1.797,1.591,2.699c0.134,0.229,0.308,0.417,0.5,0.597c0.109,0.103,0.238,0.164,0.37,0.209
				c0.131,0.044,0.264,0.051,0.416,0.008c0.423-0.119,0.804-0.303,1.141-0.582c0.03-0.025,0.062-0.047,0.095-0.068
				c0.099-0.062,0.174-0.052,0.237,0.033c0.031,0.042,0.057,0.088,0.083,0.133c0.279,0.472,0.557,0.945,0.835,1.417
				c0.033,0.056,0.066,0.113,0.092,0.172c0.048,0.108,0.038,0.171-0.061,0.235c-0.567,0.369-1.049,0.862-1.671,1.152
				c-0.141,0.066-0.27,0.154-0.432,0.174c-0.088,0.011-0.173,0.055-0.255,0.093c-0.852,0.399-1.647,0.314-2.404-0.25
				c-0.392-0.292-0.717-0.632-0.962-1.054c-0.315-0.542-0.635-1.08-0.954-1.62C499.69,533.611,499.688,533.612,499.687,533.612z"/>
		</g>
		<g>
			<path fill="#FFFFFF" d="M483.865,542.907c-0.338-0.573-0.676-1.147-1.014-1.72c-0.053-0.09-0.104-0.181-0.164-0.266
				c-0.07-0.098-0.162-0.122-0.274-0.067c-0.105,0.051-0.205,0.114-0.307,0.173c-0.181,0.104-0.358,0.216-0.543,0.312
				c-0.178,0.092-0.258,0.07-0.357-0.094c-0.282-0.47-0.561-0.942-0.835-1.416c-0.115-0.199-0.1-0.244,0.109-0.372
				c0.245-0.15,0.495-0.29,0.741-0.44c0.216-0.131,0.23-0.182,0.108-0.408c-0.093-0.172-0.197-0.338-0.296-0.507
				c-0.258-0.439-0.517-0.877-0.775-1.316c-0.053-0.09-0.102-0.182-0.144-0.277c-0.029-0.065-0.011-0.128,0.051-0.171
				c0.032-0.022,0.064-0.045,0.098-0.064c0.674-0.398,1.348-0.797,2.024-1.192c0.175-0.102,0.244-0.085,0.358,0.077
				c0.052,0.074,0.096,0.155,0.142,0.234c0.305,0.517,0.61,1.034,0.914,1.552c0.046,0.079,0.09,0.159,0.141,0.235
				c0.12,0.179,0.166,0.193,0.348,0.088c0.395-0.229,0.788-0.461,1.181-0.694c0.459-0.272,0.419-0.232,0.648,0.155
				c0.24,0.404,0.479,0.808,0.715,1.215c0.117,0.202,0.108,0.247-0.076,0.388c-0.082,0.063-0.173,0.116-0.263,0.169
				c-0.314,0.187-0.63,0.371-0.944,0.557c-0.078,0.047-0.156,0.095-0.231,0.147c-0.075,0.053-0.083,0.132-0.052,0.21
				c0.029,0.072,0.071,0.139,0.111,0.207c0.503,0.855,1.011,1.707,1.509,2.564c0.16,0.275,0.357,0.511,0.598,0.716
				c0.233,0.198,0.479,0.262,0.788,0.175c0.411-0.115,0.776-0.3,1.104-0.567c0.04-0.033,0.084-0.063,0.131-0.084
				c0.064-0.028,0.13-0.018,0.177,0.037c0.042,0.049,0.078,0.104,0.111,0.16c0.279,0.472,0.557,0.944,0.835,1.417
				c0.026,0.045,0.053,0.09,0.074,0.138c0.053,0.123,0.037,0.192-0.069,0.27c-0.073,0.054-0.153,0.1-0.227,0.153
				c-0.106,0.076-0.219,0.145-0.311,0.236c-0.368,0.364-0.833,0.579-1.272,0.834c-0.066,0.038-0.145,0.057-0.221,0.072
				c-0.117,0.023-0.223,0.07-0.329,0.12c-0.838,0.393-1.629,0.3-2.37-0.245c-0.38-0.279-0.707-0.61-0.946-1.023
				c-0.328-0.564-0.662-1.125-0.993-1.687C483.869,542.905,483.867,542.906,483.865,542.907z"/>
		</g>
	</g>
</g>
</svg>
