<?xml version="1.0" encoding="utf-8"?>
<!-- Generator: Adobe Illustrator 21.0.2, SVG Export Plug-In . SVG Version: 6.00 Build 0)  -->
<svg version="1.1" id="Layer_1" xmlns="http://www.w3.org/2000/svg" xmlns:xlink="http://www.w3.org/1999/xlink" x="0px" y="0px"
	 viewBox="0 0 221 225" enable-background="new 0 0 221 225" xml:space="preserve">
<g>
	<g>
		<g>
			<g>
				<circle fill="#FFFFFF" cx="110.824" cy="112.728" r="108.124"/>
			</g>
		</g>
	</g>
</g>
<g>
	<g>
		<g>
			<g>
				<path fill="#FFFFFF" d="M110.824,204.897c-50.822,0-92.17-41.347-92.17-92.169c0-50.822,41.348-92.169,92.17-92.169
					s92.169,41.347,92.169,92.169C202.993,163.551,161.646,204.897,110.824,204.897z M110.824,21.558
					c-50.271,0-91.17,40.898-91.17,91.169s40.898,91.169,91.17,91.169c50.271,0,91.169-40.898,91.169-91.169
					S161.095,21.558,110.824,21.558z"/>
			</g>
		</g>
	</g>
	<g>
		<g>
			<g>
				<path d="M110.824,13.892c-54.498,0-98.835,44.337-98.835,98.835c0,54.497,44.338,98.835,98.835,98.835
					s98.835-44.338,98.835-98.835C209.659,58.23,165.322,13.892,110.824,13.892z"/>
			</g>
		</g>
	</g>
</g>
<g>
	<g>
		<g>
			<g>
				<g>
					<path fill="#FFFFFF" d="M89.16,169.734c-22.529-8.975-38.504-30.982-38.504-56.673c0-5.888,0.841-11.582,2.406-16.971
						l-1.604-1.604c-1.817,5.875-2.802,12.111-2.802,18.575c0,26.813,16.847,49.746,40.504,58.825V169.734z"/>
				</g>
			</g>
		</g>
	</g>
	<g>
		<g>
			<g>
				<g>
					<path fill="#FFFFFF" d="M135.826,171.204c8.028-3.352,15.23-8.299,21.179-14.474h-2.814
						c-5.051,4.921-11.513,8.965-18.365,11.911V171.204z"/>
				</g>
			</g>
		</g>
	</g>
	<g>
		<g>
			<g>
				<g>
					<path fill="#FFFFFF" d="M87.41,54.949c-3.512,1.474-6.874,3.237-10.031,5.293c0.482,0.482,0.964,0.964,1.447,1.447
						c2.719-1.744,5.595-3.26,8.585-4.561V54.949z"/>
				</g>
			</g>
		</g>
	</g>
	<g>
		<g>
			<g>
				<g>
					<path fill="#FFFFFF" d="M133.103,53.837c0.051,0.771,0.165,1.53,0.368,2.271c22.892,8.798,39.188,31.001,39.188,56.953
						c0,5.777-0.85,11.366-2.266,16.419h2.076c1.417-5.238,2.19-10.739,2.19-16.419C174.66,85.851,157.313,62.631,133.103,53.837z"
						/>
				</g>
			</g>
		</g>
	</g>
</g>
<g>
	<g>
		<g>
			<g>
				<g>
					<g>
						<g>
							<line fill="#FFFFFF" x1="73.118" y1="116.672" x2="73.118" y2="104.743"/>
						</g>
					</g>
				</g>
			</g>
			<g>
				<g>
					<g>
						<g>
							<path fill="#FFFFFF" d="M73.118,117.515c-0.466,0-0.843-0.378-0.843-0.843v-11.929c0-0.466,0.377-0.843,0.843-0.843
								c0.466,0,0.843,0.378,0.843,0.843v11.929C73.961,117.138,73.584,117.515,73.118,117.515z"/>
						</g>
					</g>
				</g>
			</g>
		</g>
		<g>
			<g>
				<g>
					<g>
						<g>
							<line fill="#FFFFFF" x1="91.165" y1="107.115" x2="130.019" y2="107.115"/>
						</g>
					</g>
				</g>
			</g>
			<g>
				<g>
					<g>
						<g>
							<polygon fill="#FFFFFF" points="130.02,106.271 130.02,107.309 129.298,107.539 129.177,107.576 127.977,107.958 
								91.164,107.958 91.164,106.271 							"/>
						</g>
					</g>
				</g>
			</g>
		</g>
		<g>
			<g>
				<g>
					<g>
						<g>
							<polygon fill="#FFFFFF" points="129.298,107.539 129.177,107.576 127.977,107.958 97.291,117.706 96.119,118.077 
								95.436,118.012 95.248,117.759 94.733,117.065 94.545,116.806 93.477,115.367 93.379,115.235 91.613,112.849 91.585,112.812 
								91.226,107.958 91.164,107.115 129.177,107.115 							"/>
						</g>
					</g>
				</g>
			</g>
		</g>
		<g>
			<g>
				<g>
					<g>
						<g>
							<path fill="#FFFFFF" d="M130.02,96.58H91.164c-0.464,0-0.843,0.377-0.843,0.843v12.663c0,0.958,0.138,1.886,0.396,2.763
								c0.304,1.034,0.773,1.998,1.38,2.861c0.371,0.531,0.793,1.026,1.262,1.473c0.475,0.455,0.998,0.863,1.557,1.214
								c0.022,0.014,0.042,0.028,0.065,0.042l1.138-0.363l1.172-0.371c-0.661-0.247-1.279-0.579-1.844-0.984
								c-0.067-0.042-0.132-0.09-0.197-0.141c-0.008-0.006-0.017-0.011-0.023-0.017c-0.483-0.368-0.925-0.79-1.313-1.254
								c-0.079-0.09-0.152-0.18-0.222-0.273c-1.057-1.372-1.686-3.092-1.686-4.953V98.266h37.17v9.309l0.121-0.037l0.722-0.23
								l0.247-0.079l0.596-0.188v-9.618C130.863,96.957,130.484,96.58,130.02,96.58z"/>
						</g>
					</g>
				</g>
			</g>
		</g>
		<g>
			<g>
				<g>
					<g>
						<g>
							<path fill="#FFFFFF" d="M115.204,107.115c-0.031-0.289-0.084-0.571-0.163-0.843c-0.582-2.027-2.454-3.513-4.666-3.513
								c-2.212,0-4.081,1.487-4.663,3.513c-0.082,0.273-0.135,0.554-0.166,0.843c-0.017,0.163-0.025,0.329-0.025,0.498
								c0,0.115,0.003,0.23,0.014,0.346c0.141,2.015,1.521,3.696,3.381,4.284c0.461,0.146,0.95,0.225,1.459,0.225
								c1.574,0,2.971-0.75,3.859-1.914c0.559-0.728,0.914-1.622,0.981-2.594c0.011-0.115,0.014-0.23,0.014-0.346
								C115.23,107.444,115.221,107.278,115.204,107.115z M110.375,110.78c-1.627,0-2.977-1.24-3.148-2.822
								c-0.014-0.112-0.02-0.228-0.02-0.346c0-0.169,0.014-0.334,0.039-0.498c0.048-0.298,0.135-0.579,0.261-0.843
								c0.503-1.079,1.599-1.827,2.867-1.827c1.268,0,2.364,0.748,2.87,1.827c0.124,0.264,0.211,0.545,0.259,0.843
								c0.025,0.163,0.039,0.329,0.039,0.498c0,0.118-0.006,0.233-0.02,0.346C113.352,109.54,112.006,110.78,110.375,110.78z"/>
						</g>
					</g>
				</g>
			</g>
		</g>
		<g>
			<g>
				<g>
					<g>
						<g>
							<path fill="#FFFFFF" d="M92.915,119.094c-0.672-0.16-1.206-0.666-1.411-1.321c-0.056-0.183-0.087-0.379-0.087-0.582
								c0-0.593,0.264-1.124,0.68-1.481c0.343-0.295,0.79-0.475,1.276-0.475c0.003,0,0.003,0,0.006,0
								c0.056,0,0.11,0.003,0.163,0.008c0.129,0.008,0.253,0.034,0.374,0.067c0.616,0.177,1.11,0.649,1.313,1.254
								c0.003,0.008,0.006,0.014,0.008,0.022c0.028,0.084,0.048,0.169,0.062,0.259c0.022,0.112,0.034,0.228,0.034,0.346
								c0,0.197-0.028,0.388-0.084,0.568c-0.07,0.233-0.183,0.45-0.332,0.638c-0.02,0.028-0.045,0.056-0.07,0.084L92.915,119.094z"
								/>
						</g>
					</g>
				</g>
			</g>
		</g>
		<g>
			<g>
				<g>
					<g>
						<g>
							<circle fill="#FFFFFF" cx="94.59" cy="115.859" r="1.215"/>
						</g>
					</g>
				</g>
			</g>
		</g>
		<g>
			<g>
				<g>
					<g>
						<g>
							<path fill="#FFFFFF" d="M79.741,106.628c-0.826-1.619-2.51-2.729-4.447-2.729h-4.351c-2.752,0-4.992,2.24-4.992,4.992v18.768
								l1.686-0.534v-18.234c0-1.821,1.481-3.305,3.305-3.305h4.351c1.821,0,3.305,1.484,3.305,3.305v14.751l0.557-0.177l1.13-0.36
								v-14.214C80.286,108.076,80.089,107.309,79.741,106.628z"/>
						</g>
					</g>
				</g>
			</g>
		</g>
		<g>
			<g>
				<g>
					<g>
						<g>
							<path fill="#FFFFFF" d="M79.442,117.515H66.794c-0.466,0-0.843-0.378-0.843-0.843s0.377-0.843,0.843-0.843h12.649
								c0.466,0,0.843,0.378,0.843,0.843S79.908,117.515,79.442,117.515z"/>
						</g>
					</g>
				</g>
			</g>
		</g>
		<g>
			<g>
				<g>
					<g>
						<g>
							<path fill="#FFFFFF" d="M79.156,123.465l-0.557,0.177l-4.753,1.509h-7.052c-0.467,0-0.843-0.377-0.843-0.843
								c0-0.464,0.377-0.843,0.843-0.843H79.156z"/>
						</g>
					</g>
				</g>
			</g>
		</g>
		<g>
			<g>
				<g>
					<g>
						<g>
							<rect x="79.442" y="106.629" fill="#FFFFFF" width="12.171" height="6.22"/>
						</g>
					</g>
				</g>
			</g>
		</g>
		<g>
			<g>
				<g>
					<g>
						<g>
							<polygon fill="#FFFFFF" points="132.162,106.628 130.863,107.042 130.267,107.23 130.267,106.628 							"/>
						</g>
					</g>
				</g>
			</g>
		</g>
		<g>
			<g>
				<g>
					<g>
						<g>
							<path fill="#FFFFFF" d="M95.326,90.362v7.904h29.33v-7.904H95.326z M97.013,96.58v-4.531h25.958v4.531H97.013z"/>
						</g>
					</g>
				</g>
			</g>
		</g>
		<g>
			<g>
				<g>
					<g>
						<g>
							<path fill="#FFFFFF" d="M120.948,88.942H99.385c-0.466,0-0.843-0.378-0.843-0.843c0-0.466,0.377-0.843,0.843-0.843h21.563
								c0.466,0,0.843,0.378,0.843,0.843C121.791,88.565,121.414,88.942,120.948,88.942z"/>
						</g>
					</g>
				</g>
			</g>
		</g>
		<g>
			<g>
				<g>
					<g>
						<g>
							<g>
								<g>
									<path fill="#FFFFFF" d="M96.133,76.517v4.815c0,2.49,2.027,4.514,4.514,4.514h18.624c2.49,0,4.514-2.024,4.514-4.514
										v-4.815H96.133z M122.099,81.331c0,1.56-1.268,2.828-2.828,2.828h-18.624c-1.557,0-2.828-1.268-2.828-2.828v-3.128h24.28
										V81.331z"/>
								</g>
							</g>
						</g>
					</g>
				</g>
				<g>
					<g>
						<g>
							<g>
								<g>
									<path fill="#FFFFFF" d="M104.468,71.14c-0.124,0-0.25-0.027-0.368-0.085c-4.495-2.187-7.288-6.65-7.288-11.646
										c0-2.481,0.704-4.891,2.036-6.971c0.251-0.392,0.772-0.507,1.165-0.255c0.392,0.251,0.506,0.773,0.255,1.165
										c-1.158,1.808-1.77,3.904-1.77,6.062c0,4.346,2.429,8.227,6.339,10.13c0.419,0.204,0.593,0.708,0.389,1.127
										C105.081,70.966,104.78,71.14,104.468,71.14z"/>
								</g>
							</g>
						</g>
					</g>
				</g>
				<g>
					<g>
						<g>
							<g>
								<g>
									<path fill="#FFFFFF" d="M115.17,71.078c-0.309,0-0.607-0.17-0.755-0.466c-0.209-0.416-0.04-0.923,0.376-1.132
										c3.838-1.923,6.223-5.783,6.223-10.072c0-2.414-0.752-4.715-2.176-6.654c-0.275-0.376-0.194-0.903,0.181-1.179
										c0.375-0.276,0.903-0.195,1.179,0.181c1.637,2.231,2.502,4.877,2.502,7.652c0,4.932-2.741,9.369-7.154,11.58
										C115.426,71.05,115.297,71.078,115.17,71.078z"/>
								</g>
							</g>
						</g>
					</g>
				</g>
				<g>
					<g>
						<g>
							<g>
								<g>
									<path fill="#FFFFFF" d="M128.036,60.416v-0.003c-0.011-1.192-0.141-2.358-0.379-3.483
										c-0.003-0.017-0.003-0.031-0.008-0.045c-0.006-0.042-0.014-0.082-0.025-0.121v-0.003c-0.003-0.02-0.008-0.039-0.014-0.059
										c-0.126-0.573-0.281-1.136-0.461-1.686c-0.225-0.691-0.492-1.363-0.795-2.013c-2.881-6.172-9.143-10.459-16.392-10.459
										c-7.246,0-13.511,4.286-16.39,10.459c-0.304,0.649-0.571,1.321-0.795,2.013c-0.18,0.551-0.334,1.113-0.461,1.686
										c-0.045,0.197-0.087,0.396-0.121,0.599c-0.039,0.197-0.076,0.399-0.107,0.601c0,0.003,0,0.006,0,0.006
										c-0.124,0.818-0.191,1.656-0.2,2.504v0.003c-0.003,0.07-0.003,0.138-0.003,0.208v0.104l1.566,6.17l0.43,1.686l2.254,8.876
										l0.188,0.742H123.6l0.186-0.731l2.257-8.888l0.427-1.686l1.54-6.068l0.028-0.101v-0.104
										C128.038,60.554,128.038,60.487,128.036,60.416z M109.959,44.232c6.886,0,12.797,4.27,15.22,10.304
										c0.374,0.93,0.666,1.906,0.863,2.912c0.197,0.995,0.304,2.021,0.309,3.072l-2.268,8.933l-0.349,1.363l-0.082,0.323
										l-1.366,5.377H97.634l-1.366-5.377l-0.214-0.843l-0.216-0.843L93.57,60.52c0.006-0.829,0.073-1.644,0.197-2.44
										c0.157-1.015,0.41-1.998,0.748-2.943C96.774,48.788,102.845,44.232,109.959,44.232z"/>
								</g>
							</g>
						</g>
					</g>
				</g>
				<g>
					<g>
						<g>
							<g>
								<g>
									<path fill="#FFFFFF" d="M92.726,61.217c-0.466,0-0.843-0.378-0.843-0.843V43.972c0-0.466,0.377-0.843,0.843-0.843
										s0.843,0.378,0.843,0.843v16.402C93.569,60.84,93.192,61.217,92.726,61.217z"/>
								</g>
							</g>
						</g>
					</g>
				</g>
				<g>
					<g>
						<g>
							<g>
								<g>
									<path fill="#FFFFFF" d="M127.194,61.217c-0.466,0-0.843-0.378-0.843-0.843V39.341c0-0.466,0.377-0.843,0.843-0.843
										s0.843,0.378,0.843,0.843v21.033C128.038,60.84,127.66,61.217,127.194,61.217z"/>
								</g>
							</g>
						</g>
					</g>
				</g>
				<g>
					<g>
						<g>
							<g>
								<g>
									<path fill="#FFFFFF" d="M94.068,68.584h-1.779c-1.908,0-3.46-1.552-3.46-3.46v-6.646c0-1.908,1.552-3.46,3.46-3.46h0.754
										c0.466,0,0.843,0.378,0.843,0.843c0,0.466-0.377,0.843-0.843,0.843h-0.754c-0.978,0-1.774,0.796-1.774,1.774v6.646
										c0,0.978,0.796,1.774,1.774,1.774h1.779c0.466,0,0.843,0.378,0.843,0.843S94.534,68.584,94.068,68.584z"/>
								</g>
							</g>
						</g>
					</g>
				</g>
				<g>
					<g>
						<g>
							<g>
								<g>
									<path fill="#FFFFFF" d="M127.693,68.584h-1.779c-0.466,0-0.843-0.378-0.843-0.843s0.377-0.843,0.843-0.843h1.779
										c0.978,0,1.774-0.796,1.774-1.774v-6.646c0-0.978-0.796-1.774-1.774-1.774h-0.755c-0.466,0-0.843-0.378-0.843-0.843
										c0-0.466,0.377-0.843,0.843-0.843h0.755c1.908,0,3.46,1.552,3.46,3.46v6.646C131.153,67.032,129.601,68.584,127.693,68.584
										z"/>
								</g>
							</g>
						</g>
					</g>
				</g>
				<g>
					<g>
						<g>
							<g>
								<g>
									<path fill="#FFFFFF" d="M92.911,58.584c-0.212,0-0.425-0.08-0.589-0.24c-0.333-0.325-0.34-0.859-0.014-1.192
										c4.787-4.903,11.153-7.603,17.925-7.603c6.378,0,12.473,2.433,17.161,6.852c0.339,0.319,0.355,0.853,0.035,1.192
										c-0.32,0.338-0.853,0.355-1.192,0.035c-4.374-4.123-10.058-6.393-16.004-6.393c-6.314,0-12.252,2.52-16.719,7.095
										C93.349,58.499,93.13,58.584,92.911,58.584z"/>
								</g>
							</g>
						</g>
					</g>
				</g>
				<g>
					<g>
						<g>
							<g>
								<g>
									<path fill="#FFFFFF" d="M124.67,71.14H95.271c-0.466,0-0.843-0.378-0.843-0.843c0-0.466,0.377-0.843,0.843-0.843h29.399
										c0.466,0,0.843,0.378,0.843,0.843C125.514,70.762,125.136,71.14,124.67,71.14z"/>
								</g>
							</g>
						</g>
					</g>
				</g>
				<g>
					<g>
						<g>
							<g>
								<g>
									<circle fill="#FFFFFF" cx="112.99" cy="55.861" r="3.019"/>
								</g>
							</g>
						</g>
					</g>
				</g>
				<g>
					<g>
						<g>
							<g>
								<g>
									<circle fill="#FFFFFF" cx="116.945" cy="60.374" r="1.221"/>
								</g>
							</g>
						</g>
					</g>
				</g>
			</g>
			<g>
				<g>
					<g>
						<g>
							<g>
								<path fill="#FFFFFF" d="M120.385,75.795c-1.197,0-1.795-0.904-2.19-1.502c-0.376-0.569-0.534-0.746-0.784-0.746
									s-0.407,0.177-0.784,0.746c-0.396,0.598-0.993,1.502-2.19,1.502c-1.197,0-1.795-0.904-2.191-1.502
									c-0.376-0.569-0.534-0.746-0.784-0.746c-0.251,0-0.408,0.177-0.785,0.746c-0.396,0.598-0.994,1.502-2.191,1.502
									c-1.197,0-1.795-0.904-2.191-1.502c-0.377-0.569-0.534-0.746-0.784-0.746c-0.251,0-0.408,0.177-0.785,0.746
									c-0.396,0.598-0.994,1.502-2.192,1.502s-1.796-0.904-2.192-1.502c-0.377-0.569-0.534-0.746-0.785-0.746
									c-0.466,0-0.843-0.378-0.843-0.843c0-0.466,0.377-0.843,0.843-0.843c1.197,0,1.795,0.904,2.192,1.502
									c0.377,0.569,0.534,0.747,0.785,0.747s0.409-0.177,0.785-0.747c0.396-0.598,0.994-1.502,2.192-1.502
									s1.795,0.904,2.191,1.502c0.377,0.569,0.534,0.746,0.784,0.746c0.251,0,0.408-0.177,0.785-0.746
									c0.396-0.598,0.994-1.502,2.191-1.502c1.197,0,1.795,0.904,2.19,1.502c0.377,0.569,0.534,0.746,0.784,0.746
									s0.408-0.177,0.784-0.746c0.396-0.598,0.993-1.502,2.19-1.502s1.795,0.904,2.19,1.502c0.376,0.569,0.534,0.746,0.784,0.746
									c0.466,0,0.843,0.378,0.843,0.843C121.228,75.418,120.851,75.795,120.385,75.795z"/>
							</g>
						</g>
					</g>
				</g>
			</g>
		</g>
	</g>
	<g>
		<g>
			<g>
				<g>
					<g>
						<g>
							<line fill="#FFFFFF" x1="149.214" y1="109.306" x2="149.214" y2="121.235"/>
						</g>
					</g>
				</g>
			</g>
			<g>
				<g>
					<g>
						<g>
							<path fill="#FFFFFF" d="M149.214,108.463c0.466,0,0.843,0.378,0.843,0.843v11.929c0,0.466-0.377,0.843-0.843,0.843
								c-0.466,0-0.843-0.378-0.843-0.843v-11.929C148.371,108.841,148.748,108.463,149.214,108.463z"/>
						</g>
					</g>
				</g>
			</g>
		</g>
		<g>
			<g>
				<g>
					<g>
						<g>
							<line fill="#FFFFFF" x1="131.167" y1="118.864" x2="92.313" y2="118.864"/>
						</g>
					</g>
				</g>
			</g>
			<g>
				<g>
					<g>
						<g>
							<polygon fill="#FFFFFF" points="92.312,119.707 92.312,118.67 93.034,118.439 93.155,118.403 94.355,118.02 131.168,118.02 
								131.168,119.707 							"/>
						</g>
					</g>
				</g>
			</g>
		</g>
		<g>
			<g>
				<g>
					<g>
						<g>
							<polygon fill="#FFFFFF" points="93.034,118.439 93.155,118.403 94.355,118.02 125.041,108.273 126.213,107.902 
								126.896,107.966 127.084,108.219 127.598,108.914 127.787,109.172 128.855,110.611 128.953,110.743 130.718,113.13 
								130.747,113.166 131.106,118.02 131.168,118.864 93.155,118.864 							"/>
						</g>
					</g>
				</g>
			</g>
		</g>
		<g>
			<g>
				<g>
					<g>
						<g>
							<path fill="#FFFFFF" d="M92.312,129.398h38.856c0.464,0,0.843-0.377,0.843-0.843v-12.663c0-0.958-0.138-1.886-0.396-2.763
								c-0.304-1.034-0.773-1.998-1.38-2.861c-0.371-0.531-0.793-1.026-1.262-1.473c-0.475-0.455-0.998-0.863-1.557-1.214
								c-0.022-0.014-0.042-0.028-0.065-0.042l-1.138,0.363l-1.172,0.371c0.661,0.247,1.279,0.579,1.844,0.984
								c0.067,0.042,0.132,0.09,0.197,0.141c0.008,0.006,0.017,0.011,0.023,0.017c0.483,0.368,0.925,0.79,1.313,1.254
								c0.079,0.09,0.152,0.18,0.222,0.273c1.057,1.372,1.686,3.092,1.686,4.953v11.819h-37.17v-9.309l-0.121,0.037l-0.722,0.23
								l-0.247,0.079l-0.596,0.188v9.618C91.469,129.022,91.848,129.398,92.312,129.398z"/>
						</g>
					</g>
				</g>
			</g>
		</g>
		<g>
			<g>
				<g>
					<g>
						<g>
							<path fill="#FFFFFF" d="M107.127,118.864c0.031,0.29,0.084,0.571,0.163,0.843c0.582,2.027,2.454,3.513,4.666,3.513
								s4.081-1.487,4.663-3.513c0.082-0.273,0.135-0.554,0.166-0.843c0.017-0.163,0.025-0.329,0.025-0.498
								c0-0.115-0.003-0.23-0.014-0.346c-0.141-2.015-1.521-3.696-3.381-4.284c-0.461-0.146-0.95-0.225-1.459-0.225
								c-1.574,0-2.971,0.75-3.859,1.914c-0.559,0.728-0.913,1.622-0.981,2.594c-0.011,0.115-0.014,0.23-0.014,0.346
								C107.102,118.535,107.111,118.701,107.127,118.864z M111.956,115.198c1.627,0,2.977,1.24,3.148,2.822
								c0.014,0.112,0.02,0.228,0.02,0.346c0,0.169-0.014,0.334-0.039,0.498c-0.048,0.298-0.135,0.579-0.261,0.843
								c-0.503,1.079-1.599,1.827-2.867,1.827c-1.268,0-2.364-0.748-2.87-1.827c-0.124-0.264-0.211-0.545-0.259-0.843
								c-0.025-0.163-0.039-0.329-0.039-0.498c0-0.118,0.006-0.233,0.02-0.346C108.98,116.438,110.326,115.198,111.956,115.198z"/>
						</g>
					</g>
				</g>
			</g>
		</g>
		<g>
			<g>
				<g>
					<g>
						<g>
							<path fill="#FFFFFF" d="M129.417,106.884c0.672,0.16,1.206,0.666,1.411,1.321c0.056,0.183,0.087,0.379,0.087,0.582
								c0,0.593-0.264,1.124-0.68,1.481c-0.343,0.295-0.79,0.475-1.276,0.475c-0.003,0-0.003,0-0.006,0
								c-0.056,0-0.11-0.003-0.163-0.008c-0.129-0.008-0.253-0.034-0.374-0.067c-0.616-0.177-1.11-0.649-1.313-1.254
								c-0.003-0.008-0.006-0.014-0.008-0.022c-0.028-0.084-0.048-0.169-0.062-0.259c-0.022-0.112-0.034-0.228-0.034-0.346
								c0-0.197,0.028-0.388,0.084-0.568c0.07-0.233,0.183-0.45,0.332-0.638c0.02-0.028,0.045-0.056,0.07-0.084L129.417,106.884z"/>
						</g>
					</g>
				</g>
			</g>
		</g>
		<g>
			<g>
				<g>
					<g>
						<g>
							<circle fill="#FFFFFF" cx="127.742" cy="110.12" r="1.215"/>
						</g>
					</g>
				</g>
			</g>
		</g>
		<g>
			<g>
				<g>
					<g>
						<g>
							<path fill="#FFFFFF" d="M142.591,119.35c0.826,1.619,2.51,2.729,4.447,2.729h4.351c2.752,0,4.992-2.24,4.992-4.992V98.32
								l-1.686,0.534v18.234c0,1.821-1.481,3.305-3.305,3.305h-4.351c-1.821,0-3.305-1.484-3.305-3.305v-14.751l-0.557,0.177
								l-1.13,0.36v14.214C142.046,117.902,142.243,118.67,142.591,119.35z"/>
						</g>
					</g>
				</g>
			</g>
		</g>
		<g>
			<g>
				<g>
					<g>
						<g>
							<path fill="#FFFFFF" d="M142.889,108.463h12.649c0.466,0,0.843,0.378,0.843,0.843s-0.377,0.843-0.843,0.843h-12.649
								c-0.466,0-0.843-0.378-0.843-0.843S142.424,108.463,142.889,108.463z"/>
						</g>
					</g>
				</g>
			</g>
		</g>
		<g>
			<g>
				<g>
					<g>
						<g>
							<path fill="#FFFFFF" d="M143.176,102.513l0.557-0.177l4.753-1.509h7.052c0.467,0,0.843,0.377,0.843,0.843
								c0,0.464-0.377,0.843-0.843,0.843H143.176z"/>
						</g>
					</g>
				</g>
			</g>
		</g>
		<g>
			<g>
				<g>
					<g>
						<g>
							
								<rect x="130.718" y="113.129" transform="matrix(-1 -1.224647e-16 1.224647e-16 -1 273.6077 232.4787)" fill="#FFFFFF" width="12.171" height="6.22"/>
						</g>
					</g>
				</g>
			</g>
		</g>
		<g>
			<g>
				<g>
					<g>
						<g>
							<polygon fill="#FFFFFF" points="90.17,119.35 91.469,118.937 92.065,118.748 92.065,119.35 							"/>
						</g>
					</g>
				</g>
			</g>
		</g>
		<g>
			<g>
				<g>
					<g>
						<g>
							<path fill="#FFFFFF" d="M127.005,135.616v-7.904h-29.33v7.904H127.005z M125.319,129.398v4.531H99.361v-4.531H125.319z"/>
						</g>
					</g>
				</g>
			</g>
		</g>
		<g>
			<g>
				<g>
					<g>
						<g>
							<path fill="#FFFFFF" d="M101.384,137.036h21.563c0.466,0,0.843,0.378,0.843,0.843c0,0.466-0.377,0.843-0.843,0.843h-21.563
								c-0.466,0-0.843-0.378-0.843-0.843C100.541,137.414,100.918,137.036,101.384,137.036z"/>
						</g>
					</g>
				</g>
			</g>
		</g>
		<g>
			<g>
				<g>
					<g>
						<g>
							<g>
								<g>
									<path fill="#FFFFFF" d="M126.199,149.462v-4.815c0-2.49-2.027-4.514-4.514-4.514H103.06c-2.49,0-4.514,2.024-4.514,4.514
										v4.815H126.199z M100.233,144.647c0-1.56,1.268-2.828,2.828-2.828h18.624c1.557,0,2.828,1.268,2.828,2.828v3.128h-24.28
										V144.647z"/>
								</g>
							</g>
						</g>
					</g>
				</g>
				<g>
					<g>
						<g>
							<g>
								<g>
									<path fill="#FFFFFF" d="M117.864,154.838c0.124,0,0.25,0.027,0.368,0.085c4.495,2.187,7.288,6.65,7.288,11.646
										c0,2.481-0.704,4.891-2.036,6.971c-0.251,0.392-0.772,0.507-1.165,0.255c-0.392-0.251-0.506-0.773-0.255-1.165
										c1.158-1.808,1.77-3.904,1.77-6.062c0-4.346-2.429-8.227-6.339-10.13c-0.419-0.204-0.593-0.708-0.389-1.127
										C117.251,155.013,117.552,154.838,117.864,154.838z"/>
								</g>
							</g>
						</g>
					</g>
				</g>
				<g>
					<g>
						<g>
							<g>
								<g>
									<path fill="#FFFFFF" d="M107.162,154.9c0.309,0,0.607,0.17,0.755,0.466c0.209,0.416,0.04,0.923-0.376,1.132
										c-3.838,1.923-6.223,5.783-6.223,10.072c0,2.414,0.752,4.715,2.176,6.654c0.275,0.376,0.194,0.903-0.181,1.179
										c-0.375,0.276-0.903,0.195-1.179-0.181c-1.637-2.231-2.502-4.877-2.502-7.652c0-4.932,2.741-9.369,7.154-11.58
										C106.906,154.929,107.035,154.9,107.162,154.9z"/>
								</g>
							</g>
						</g>
					</g>
				</g>
				<g>
					<g>
						<g>
							<g>
								<g>
									<path fill="#FFFFFF" d="M94.296,165.562v0.003c0.011,1.192,0.141,2.358,0.379,3.483c0.003,0.017,0.003,0.031,0.008,0.045
										c0.006,0.042,0.014,0.081,0.025,0.121v0.003c0.003,0.02,0.008,0.039,0.014,0.059c0.126,0.573,0.281,1.136,0.461,1.686
										c0.225,0.691,0.492,1.363,0.795,2.013c2.881,6.172,9.143,10.459,16.392,10.459c7.246,0,13.511-4.286,16.39-10.459
										c0.304-0.649,0.571-1.321,0.795-2.013c0.18-0.551,0.334-1.113,0.461-1.686c0.045-0.197,0.087-0.396,0.121-0.599
										c0.039-0.197,0.076-0.399,0.107-0.601c0-0.003,0-0.006,0-0.006c0.124-0.818,0.191-1.656,0.2-2.504v-0.003
										c0.003-0.07,0.003-0.138,0.003-0.208v-0.104l-1.566-6.17l-0.43-1.686l-2.254-8.876l-0.188-0.742H98.732l-0.186,0.731
										l-2.257,8.888l-0.427,1.686l-1.54,6.068l-0.028,0.101v0.104C94.293,165.424,94.293,165.492,94.296,165.562z
										 M112.372,181.747c-6.886,0-12.797-4.27-15.22-10.304c-0.374-0.93-0.666-1.906-0.863-2.912
										c-0.197-0.995-0.304-2.021-0.309-3.072l2.268-8.933l0.349-1.363l0.082-0.323l1.366-5.377h24.653l1.366,5.377l0.214,0.843
										l0.216,0.843l2.268,8.933c-0.006,0.829-0.073,1.644-0.197,2.44c-0.157,1.015-0.41,1.998-0.748,2.943
										C125.558,177.19,119.486,181.747,112.372,181.747z"/>
								</g>
							</g>
						</g>
					</g>
				</g>
				<g>
					<g>
						<g>
							<g>
								<g>
									<path fill="#FFFFFF" d="M129.606,164.761c0.466,0,0.843,0.378,0.843,0.843v16.402c0,0.466-0.377,0.843-0.843,0.843
										c-0.466,0-0.843-0.378-0.843-0.843v-16.402C128.763,165.139,129.14,164.761,129.606,164.761z"/>
								</g>
							</g>
						</g>
					</g>
				</g>
				<g>
					<g>
						<g>
							<g>
								<g>
									<path fill="#FFFFFF" d="M95.137,164.761c0.466,0,0.843,0.378,0.843,0.843v21.033c0,0.466-0.377,0.843-0.843,0.843
										s-0.843-0.378-0.843-0.843v-21.033C94.294,165.139,94.672,164.761,95.137,164.761z"/>
								</g>
							</g>
						</g>
					</g>
				</g>
				<g>
					<g>
						<g>
							<g>
								<g>
									<path fill="#FFFFFF" d="M128.264,157.394h1.779c1.908,0,3.46,1.552,3.46,3.46v6.646c0,1.908-1.552,3.46-3.46,3.46h-0.754
										c-0.466,0-0.843-0.378-0.843-0.843s0.377-0.843,0.843-0.843h0.754c0.978,0,1.774-0.796,1.774-1.774v-6.646
										c0-0.978-0.796-1.774-1.774-1.774h-1.779c-0.466,0-0.843-0.378-0.843-0.843
										C127.42,157.772,127.798,157.394,128.264,157.394z"/>
								</g>
							</g>
						</g>
					</g>
				</g>
				<g>
					<g>
						<g>
							<g>
								<g>
									<path fill="#FFFFFF" d="M94.639,157.394h1.779c0.466,0,0.843,0.378,0.843,0.843c0,0.466-0.377,0.843-0.843,0.843h-1.779
										c-0.978,0-1.774,0.796-1.774,1.774v6.646c0,0.978,0.796,1.774,1.774,1.774h0.755c0.466,0,0.843,0.378,0.843,0.843
										s-0.377,0.843-0.843,0.843h-0.755c-1.908,0-3.46-1.552-3.46-3.46v-6.646C91.179,158.947,92.731,157.394,94.639,157.394z"/>
								</g>
							</g>
						</g>
					</g>
				</g>
				<g>
					<g>
						<g>
							<g>
								<g>
									<path fill="#FFFFFF" d="M129.421,167.395c0.212,0,0.425,0.08,0.589,0.24c0.333,0.325,0.34,0.859,0.014,1.192
										c-4.787,4.903-11.153,7.603-17.925,7.603c-6.378,0-12.473-2.433-17.161-6.852c-0.339-0.319-0.355-0.853-0.035-1.192
										c0.32-0.338,0.853-0.355,1.192-0.035c4.374,4.123,10.058,6.393,16.004,6.393c6.314,0,12.252-2.52,16.719-7.095
										C128.982,167.48,129.201,167.395,129.421,167.395z"/>
								</g>
							</g>
						</g>
					</g>
				</g>
				<g>
					<g>
						<g>
							<g>
								<g>
									<path fill="#FFFFFF" d="M97.661,154.839h29.399c0.466,0,0.843,0.378,0.843,0.843s-0.377,0.843-0.843,0.843H97.661
										c-0.466,0-0.843-0.378-0.843-0.843S97.196,154.839,97.661,154.839z"/>
								</g>
							</g>
						</g>
					</g>
				</g>
				<g>
					<g>
						<g>
							<g>
								<circle fill="#FFFFFF" cx="109.342" cy="170.118" r="3.019"/>
							</g>
						</g>
					</g>
				</g>
				<g>
					<g>
						<g>
							<g>
								<circle fill="#FFFFFF" cx="105.387" cy="165.604" r="1.221"/>
							</g>
						</g>
					</g>
				</g>
			</g>
			<g>
				<g>
					<g>
						<g>
							<g>
								<path fill="#FFFFFF" d="M101.947,150.183c1.197,0,1.795,0.904,2.19,1.502c0.376,0.569,0.534,0.746,0.784,0.746
									s0.407-0.177,0.784-0.746c0.396-0.598,0.993-1.502,2.19-1.502c1.197,0,1.795,0.904,2.191,1.502
									c0.376,0.569,0.534,0.746,0.784,0.746c0.251,0,0.408-0.177,0.785-0.746c0.396-0.598,0.994-1.502,2.191-1.502
									s1.795,0.904,2.191,1.502c0.377,0.569,0.534,0.746,0.784,0.746c0.251,0,0.408-0.177,0.785-0.746
									c0.396-0.598,0.994-1.502,2.192-1.502s1.796,0.904,2.192,1.502c0.377,0.569,0.534,0.746,0.785,0.746
									c0.466,0,0.843,0.378,0.843,0.843c0,0.466-0.377,0.843-0.843,0.843c-1.197,0-1.795-0.904-2.192-1.502
									c-0.377-0.569-0.534-0.747-0.785-0.747s-0.409,0.177-0.785,0.747c-0.396,0.598-0.994,1.502-2.192,1.502
									s-1.795-0.904-2.191-1.502c-0.377-0.569-0.534-0.746-0.784-0.746c-0.251,0-0.408,0.177-0.785,0.746
									c-0.396,0.598-0.994,1.502-2.191,1.502c-1.197,0-1.795-0.904-2.19-1.502c-0.377-0.569-0.534-0.746-0.784-0.746
									s-0.408,0.177-0.784,0.746c-0.396,0.598-0.993,1.502-2.19,1.502c-1.197,0-1.795-0.904-2.19-1.502
									c-0.376-0.569-0.534-0.746-0.784-0.746c-0.466,0-0.843-0.378-0.843-0.843C101.104,150.561,101.481,150.183,101.947,150.183z
									"/>
							</g>
						</g>
					</g>
				</g>
			</g>
		</g>
	</g>
	<g>
		<g>
			<g>
				<g>
					<g>
						<polygon fill="#FFFFFF" points="166.137,96.198 135.066,106.066 133.768,106.479 133.172,106.668 132.924,106.747 
							132.202,106.977 132.081,107.014 130.881,107.396 100.196,117.144 99.024,117.515 97.885,117.877 97.75,117.919 
							95.819,118.532 83.19,122.543 82.061,122.903 81.504,123.08 76.751,124.589 70.542,126.563 68.855,127.097 57.654,130.655 
							57.143,129.047 68.855,125.326 70.542,124.792 71.177,124.589 76.487,122.903 81.504,121.309 83.19,120.775 94.408,117.211 
							96.263,116.621 96.977,116.396 97.45,116.244 98.141,116.025 98.155,116.019 98.554,115.893 111.821,111.679 117.139,109.99 
							125.307,107.396 127.963,106.553 130.617,105.709 132.081,105.246 133.768,104.709 165.625,94.59 						"/>
					</g>
				</g>
			</g>
		</g>
	</g>
</g>
<g>
	<g>
		<g>
			<g>
				<g>
					<path fill="#FFFFFF" d="M62.441,65.882"/>
				</g>
			</g>
		</g>
	</g>
	<g>
		<g>
			<g>
				<g>
					<path fill="#FFFFFF" d="M62.441,67.054c-0.66,0-1.196-0.525-1.196-1.173v-9.244c0-0.648,0.536-1.173,1.196-1.173
						c0.66,0,1.196,0.525,1.196,1.173v9.244C63.637,66.529,63.101,67.054,62.441,67.054z"/>
				</g>
			</g>
		</g>
	</g>
	<g>
		<g>
			<g>
				<g>
					<line fill="#FFFFFF" x1="60.663" y1="65.882" x2="64.36" y2="65.882"/>
				</g>
			</g>
		</g>
	</g>
	<g>
		<g>
			<g>
				<g>
					<path fill="#FFFFFF" d="M64.36,67.054h-3.697c-0.66,0-1.196-0.525-1.196-1.173c0-0.648,0.536-1.173,1.196-1.173h3.697
						c0.66,0,1.196,0.525,1.196,1.173C65.556,66.529,65.02,67.054,64.36,67.054z"/>
				</g>
			</g>
		</g>
	</g>
	<g>
		<g>
			<g>
				<g>
					<path fill="#FFFFFF" d="M63.097,94.896c-10.063,0-18.25-8.028-18.25-17.896s8.187-17.896,18.25-17.896
						c4.875,0,9.458,1.861,12.904,5.242l1.188,1.165l-5.152,4.762l-2.237-2.328l2.64-2.44c-2.645-2.076-5.905-3.202-9.342-3.202
						c-8.264,0-14.988,6.593-14.988,14.697c0,8.104,6.723,14.697,14.988,14.697"/>
				</g>
			</g>
		</g>
	</g>
	<g>
		<g>
			<g>
				<g>
					<path fill="#FFFFFF" d="M72.257,85.704l-2.343-2.226c1.725-1.746,2.675-4.046,2.675-6.477c0-2.538-1.023-4.909-2.879-6.678
						l-1.222-1.164l1.31-1.213l1.116,1.16l1.068-1.078c2.495,2.376,3.868,5.562,3.868,8.972
						C75.851,80.267,74.574,83.358,72.257,85.704z"/>
				</g>
			</g>
		</g>
	</g>
	<g>
		<g>
			<g>
				<g>
					<path fill="#FFFFFF" d="M71.085,84.591"/>
				</g>
			</g>
		</g>
	</g>
	<g>
		<g>
			<g>
				<g>
					<path fill="#FFFFFF" d="M63.097,82.28c-2.968,0-5.383-2.368-5.383-5.279c0-2.911,2.415-5.279,5.383-5.279
						c2.968,0,5.383,2.368,5.383,5.279C68.48,79.912,66.065,82.28,63.097,82.28z M63.097,74.921c-1.17,0-2.121,0.933-2.121,2.08
						c0,1.147,0.952,2.08,2.121,2.08c1.17,0,2.121-0.933,2.121-2.08C65.218,75.854,64.266,74.921,63.097,74.921z"/>
				</g>
			</g>
		</g>
	</g>
	<g>
		<g>
			<g>
				<g>
					<line fill="#FFFFFF" x1="74.848" y1="65.478" x2="65.364" y2="74.07"/>
				</g>
			</g>
		</g>
	</g>
	<g>
		<g>
			<g>
				<g>
					<polygon fill="#FFFFFF" points="66.471,75.245 64.258,72.895 73.741,64.303 75.954,66.652 					"/>
				</g>
			</g>
		</g>
	</g>
	<g>
		<g>
			<g>
				<g>
					<polygon fill="#FFFFFF" points="76.995,94.897 62.8,94.897 62.8,91.698 73.733,91.698 73.733,88.792 63.886,81.523 
						65.848,78.968 76.995,87.196 					"/>
				</g>
			</g>
		</g>
	</g>
	<g>
		<g>
			<g>
				<g>
					<path fill="#FFFFFF" d="M71.234,84.709"/>
				</g>
			</g>
		</g>
	</g>
	<g>
		<g>
			<g>
				<g>
					<path fill="#FFFFFF" d="M56.78,70.283c-0.66,0-1.196-0.525-1.196-1.173V56.637c0-0.648,0.536-1.173,1.196-1.173
						s1.196,0.525,1.196,1.173V69.11C57.976,69.758,57.44,70.283,56.78,70.283z"/>
				</g>
			</g>
		</g>
	</g>
</g>
<g>
	<g>
		<g>
			<path fill="#FFFFFF" d="M111.076,207.397c-52.245,0-94.75-42.505-94.75-94.75s42.505-94.75,94.75-94.75s94.75,42.505,94.75,94.75
				S163.321,207.397,111.076,207.397z M111.076,18.897c-51.694,0-93.75,42.056-93.75,93.75c0,51.694,42.056,93.75,93.75,93.75
				s93.75-42.056,93.75-93.75C204.826,60.953,162.771,18.897,111.076,18.897z"/>
		</g>
	</g>
</g>
<g>
	<g>
		<circle cx="106.784" cy="64.342" r="3.019"/>
	</g>
	<g>
		<circle cx="102.828" cy="59.829" r="1.221"/>
	</g>
	<g>
		<circle cx="111.631" cy="112.62" r="11.028"/>
	</g>
</g>
<g>
	<g>
		<g>
			<circle fill="#FFFFFF" cx="111.506" cy="112.62" r="8.07"/>
		</g>
	</g>
</g>
<g>
	<g>
		<g>
			<g>
				<g>
					<path fill="#FFFFFF" d="M140.585,131.525v2.5c1.003,0.161,1.823,0.493,2.461,0.994c0.638,0.502,1.246,1.271,1.823,2.309
						l-2.486,1.39c-0.748-1.36-1.726-2.04-2.933-2.04c-0.748,0-1.369,0.221-1.862,0.663c-0.493,0.442-0.739,0.995-0.739,1.658
						c0,0.604,0.2,1.105,0.599,1.505c0.392,0.391,1.181,0.855,2.372,1.39c1.028,0.467,1.879,0.908,2.551,1.32
						c0.671,0.412,1.177,0.81,1.517,1.193c0.961,1.037,1.441,2.292,1.441,3.762c0,1.446-0.433,2.721-1.301,3.826
						c-0.859,1.097-2.006,1.836-3.443,2.219v2.64h-2.232v-2.563c-1.666-0.272-2.937-0.846-3.813-1.721
						c-0.877-0.876-1.522-2.228-1.939-4.056l2.806-0.587c0.383,1.293,0.85,2.215,1.402,2.768c0.579,0.527,1.348,0.79,2.309,0.79
						c0.935,0,1.717-0.301,2.346-0.905c0.62-0.595,0.931-1.364,0.931-2.308c0-0.842-0.259-1.518-0.778-2.028
						c-0.263-0.246-0.653-0.524-1.167-0.835c-0.514-0.31-1.172-0.648-1.97-1.014c-1.65-0.74-2.734-1.42-3.252-2.04
						c-0.825-0.927-1.238-2.036-1.238-3.329c0-0.612,0.098-1.182,0.294-1.709c0.195-0.527,0.478-1.006,0.847-1.435
						c0.37-0.429,0.827-0.801,1.371-1.116c0.544-0.315,1.161-0.561,1.85-0.74v-2.5H140.585z"/>
				</g>
			</g>
		</g>
	</g>
	<g>
		<g>
			<g>
				<path fill="#FFFFFF" d="M151.243,135.785H147.7l1.699-2.892h4.936v20.485h-3.091V135.785z"/>
			</g>
		</g>
	</g>
	<g>
		<g>
			<g>
				<path fill="#FFFFFF" d="M158.928,143.003c0-3.264,0.761-5.869,2.282-7.815c1.363-1.76,3.012-2.64,4.95-2.64
					c1.937,0,3.586,0.88,4.949,2.64c1.521,1.946,2.282,4.595,2.282,7.947c0,3.344-0.761,5.988-2.282,7.934
					c-1.363,1.76-3.008,2.64-4.936,2.64s-3.582-0.88-4.962-2.64C159.689,149.124,158.928,146.435,158.928,143.003z M161.967,143.016
					c0,2.273,0.393,4.162,1.18,5.665c0.787,1.477,1.791,2.216,3.012,2.216c1.212,0,2.216-0.738,3.011-2.216
					c0.796-1.468,1.194-3.321,1.194-5.559c0-2.238-0.398-4.095-1.194-5.572c-0.796-1.468-1.8-2.203-3.011-2.203
					c-1.204,0-2.203,0.734-2.999,2.203C162.365,139.009,161.967,140.832,161.967,143.016z"/>
			</g>
		</g>
	</g>
	<g>
		<g>
			<g>
				<path fill="#FFFFFF" d="M175.699,143.003c0-3.264,0.761-5.869,2.282-7.815c1.363-1.76,3.012-2.64,4.95-2.64
					s3.586,0.88,4.949,2.64c1.521,1.946,2.282,4.595,2.282,7.947c0,3.344-0.761,5.988-2.282,7.934
					c-1.363,1.76-3.008,2.64-4.936,2.64c-1.928,0-3.582-0.88-4.962-2.64C176.46,149.124,175.699,146.435,175.699,143.003z
					 M178.738,143.016c0,2.273,0.393,4.162,1.18,5.665c0.787,1.477,1.791,2.216,3.012,2.216c1.212,0,2.216-0.738,3.011-2.216
					c0.796-1.468,1.194-3.321,1.194-5.559c0-2.238-0.398-4.095-1.194-5.572c-0.796-1.468-1.8-2.203-3.011-2.203
					c-1.204,0-2.203,0.734-2.999,2.203C179.136,139.009,178.738,140.832,178.738,143.016z"/>
			</g>
		</g>
	</g>
</g>
<g>
	<g>
		<g>
			<path d="M48.692,128.224c-4.547,0-8.652-1.725-11.872-4.988c-3.2-3.253-4.886-7.372-4.886-11.919
				c0-4.632,1.722-8.795,4.979-12.038c3.239-3.239,7.407-4.957,12.041-4.957c2.525,0,4.937,0.53,7.168,1.576l0.115,0.055
				c2.07,1.018,4.037,2.581,5.845,4.647l4.37,4.991l-1.79,1.714v4.211c0,2.133-0.275,4.111-0.817,5.88l-0.03,0.096
				c-0.625,1.937-1.661,3.738-3.08,5.352C57.601,126.373,53.445,128.224,48.692,128.224z M49.016,111.658L49.016,111.658
				L49.016,111.658z"/>
		</g>
		<g>
			<path fill="#FFFFFF" d="M49.754,110.879h7.971v0.637c0,1.449-0.171,2.732-0.512,3.848c-0.333,1.033-0.896,1.999-1.687,2.899
				c-1.791,2.016-4.069,3.023-6.834,3.023c-2.699,0-5.01-0.974-6.934-2.923c-1.924-1.957-2.886-4.306-2.886-7.046
				c0-2.799,0.979-5.173,2.936-7.122c1.957-1.957,4.339-2.936,7.146-2.936c1.507,0,2.915,0.307,4.223,0.92
				c1.249,0.614,2.478,1.611,3.686,2.99l-2.074,1.986c-1.583-2.107-3.511-3.161-5.784-3.161c-2.041,0-3.752,0.704-5.135,2.112
				c-1.383,1.383-2.074,3.115-2.074,5.197c0,2.149,0.77,3.919,2.311,5.31c1.441,1.291,3.003,1.936,4.685,1.936
				c1.433,0,2.719-0.482,3.861-1.446c1.141-0.972,1.778-2.135,1.911-3.489h-4.81V110.879z"/>
		</g>
	</g>
	<g>
		<g>
			<path d="M77.887,94.697H61.1v32.276c-0.333,0.158-0.64,0.35-0.945,0.589c-0.159-0.039-0.341-0.123-0.572-0.274
				c-0.71-0.465-1.396-0.813-2.191-1.107c-0.621-0.23-1.244,0.425-1.227,1.005c0.008,0.272,0.035,0.537,0.057,0.803
				c-0.413,0.266-0.651,0.797-0.313,1.346c0.525,0.852,0.943,1.713,1.282,2.657c0.488,1.165,2.352,0.64,1.911-0.591
				c-0.069-0.164-0.121-0.329-0.183-0.493c2.473,0.033,5.487-1.786,7.607-3.045h11.361V94.697z"/>
		</g>
		<g>
			<path fill="#FFFFFF" d="M70.949,101.634v19.29h-2.911v-19.29H70.949z"/>
		</g>
	</g>
	<g>
		<g>
			<polygon points="94.497,127.862 77.711,127.862 77.711,111.308 73.275,111.308 73.275,94.697 98.919,94.697 98.919,111.308 
				94.497,111.308 			"/>
		</g>
		<g>
			<path fill="#FFFFFF" d="M87.559,104.37v16.554h-2.911V104.37h-4.435v-2.736h11.769v2.736H87.559z"/>
		</g>
	</g>
	<g>
		<g>
			<path d="M118.281,96.662c-2.68-1.553-5.54-2.341-8.502-2.341c-5.216,0-9.728,2.07-13.059,5.997
				c-2.665,3.156-4.073,6.976-4.073,11.048c0,2.791,0.645,5.412,1.885,7.776c-0.161,0.01-0.312-0.01-0.336-0.071
				c-0.469-1.19-2.384-0.609-1.911,0.591c0.389,0.988,1.315,1.568,2.384,1.497c0.34-0.023,0.65-0.115,0.94-0.247
				c0.588,0.846,1.254,1.654,2.012,2.412c3.238,3.197,7.365,4.887,11.934,4.887c3.039,0,5.957-0.781,8.671-2.321l3.514-1.994v-25.23
				L118.281,96.662z"/>
		</g>
		<g>
			<path fill="#FFFFFF" d="M114.801,102.665v3.442c-1.682-1.408-3.423-2.112-5.222-2.112c-1.982,0-3.652,0.712-5.01,2.137
				c-1.366,1.416-2.049,3.148-2.049,5.197c0,2.024,0.683,3.731,2.049,5.122c1.366,1.391,3.04,2.086,5.022,2.086
				c1.025,0,1.895-0.166,2.611-0.5c0.4-0.166,0.814-0.391,1.243-0.674c0.429-0.283,0.881-0.625,1.355-1.025v3.517
				c-1.666,0.946-3.415,1.418-5.247,1.418c-2.757,0-5.11-0.962-7.059-2.886c-1.941-1.94-2.911-4.281-2.911-7.021
				c0-2.457,0.812-4.648,2.436-6.572c1.999-2.357,4.585-3.536,7.758-3.536C111.511,101.259,113.186,101.728,114.801,102.665z"/>
		</g>
	</g>
	<g>
		<g>
			<path d="M147.889,96.241c-3.258-3.258-7.4-4.981-11.977-4.981c-4.588,0-8.741,1.699-12,4.904
				c-3.317,3.247-5.07,7.381-5.07,11.954c0,3.302,0.833,6.305,2.42,8.897c-0.714-0.273-1.667,0.271-1.341,1.168
				c0.299,0.825,0.684,1.542,1.25,2.216c0.654,0.779,1.873,0.249,1.904-0.501c0.165,0.015,0.329,0.03,0.492,0.046
				c0.302,0.307,0.602,0.616,0.932,0.904c3.226,2.807,7.12,4.29,11.263,4.29c4.61,0,8.777-1.688,12.052-4.881
				c3.315-3.233,5.068-7.391,5.068-12.027C152.882,103.639,151.152,99.489,147.889,96.241z"/>
		</g>
		<g>
			<path fill="#FFFFFF" d="M125.78,108.118c0-2.715,0.995-5.047,2.986-6.996c1.982-1.949,4.364-2.923,7.146-2.923
				c2.749,0,5.105,0.983,7.071,2.949c1.974,1.966,2.961,4.327,2.961,7.084c0,2.774-0.991,5.127-2.974,7.059
				c-1.991,1.941-4.394,2.911-7.209,2.911c-2.491,0-4.727-0.862-6.709-2.586C126.871,113.707,125.78,111.208,125.78,108.118z
				 M128.716,108.149c0,2.13,0.716,3.882,2.149,5.255c1.424,1.373,3.069,2.059,4.935,2.059c2.024,0,3.731-0.699,5.122-2.097
				c1.391-1.414,2.087-3.137,2.087-5.168c0-2.055-0.687-3.778-2.062-5.168c-1.366-1.398-3.057-2.097-5.072-2.097
				c-2.007,0-3.702,0.699-5.085,2.097C129.407,104.413,128.716,106.119,128.716,108.149z"/>
		</g>
	</g>
	<g>
		<g>
			<path d="M147.581,94.697v25.543c-0.411-0.217-0.882-0.319-1.358-0.351c-0.403-0.027-0.752,0.281-0.897,0.648
				c-0.326,0.116-0.603,0.41-0.678,0.732c-0.133,0.571,0.235,1.025,0.747,1.201c-0.138-0.047,0.029,0.056,0.073,0.098
				c0.085,0.082,0.167,0.169,0.252,0.251c0.204,0.195,0.426,0.376,0.685,0.491c0.386,0.172,0.806,0.163,1.177,0.021v4.531h16.786
				V94.697H147.581z"/>
		</g>
		<g>
			<path fill="#FFFFFF" d="M157.43,101.634v19.29h-2.911v-19.29H157.43z"/>
		</g>
	</g>
	<g>
		<g>
			<path d="M175.848,94.697v3.046L161.78,83.025v44.837h7.884c-0.174,0.154-0.376,0.254-0.648,0.151
				c-1.201-0.451-2.018,1.042-0.934,1.769c1.148,0.769,2.661,0.714,3.96,0.406c0.363-0.086,0.606-0.268,0.782-0.5
				c0.706-0.019,1.338-1.052,0.706-1.79c-0.01-0.012-0.022-0.024-0.033-0.036h5.07v-3.177l14.068,14.68V94.697H175.848z"/>
		</g>
		<g>
			<path fill="#FFFFFF" d="M168.717,120.924v-20.602l14.068,14.717v-13.406h2.911v20.465l-14.068-14.68v13.506H168.717z"/>
		</g>
	</g>
</g>
<g>
	<path fill="#FFFFFF" d="M140.86,32.194l-1.538,4.173c0.627-0.303,1.228-0.349,1.802-0.137c0.663,0.244,1.123,0.694,1.381,1.35
		c0.259,0.652,0.255,1.345-0.017,2.078c-0.278,0.756-0.73,1.299-1.355,1.629c-0.622,0.329-1.268,0.368-1.939,0.121
		c-0.568-0.209-0.995-0.614-1.28-1.216l-0.189,0.514l-1.135-0.418l3.138-8.512L140.86,32.194z M141.31,39.281
		c0.174-0.47,0.188-0.9,0.041-1.29c-0.147-0.398-0.415-0.668-0.805-0.812c-0.418-0.154-0.811-0.132-1.181,0.063
		c-0.365,0.193-0.633,0.521-0.804,0.985c-0.177,0.478-0.188,0.906-0.038,1.286c0.147,0.386,0.429,0.656,0.845,0.81
		c0.395,0.145,0.773,0.119,1.141-0.078C140.879,40.046,141.148,39.724,141.31,39.281z"/>
	<path fill="#FFFFFF" d="M143.505,40.06c0.321-0.684,0.84-1.15,1.555-1.399c0.715-0.25,1.424-0.209,2.127,0.122
		c0.707,0.333,1.191,0.856,1.458,1.57c0.258,0.711,0.222,1.419-0.108,2.122c-0.334,0.709-0.859,1.189-1.574,1.438
		c-0.717,0.245-1.433,0.199-2.148-0.139c-0.71-0.334-1.19-0.857-1.441-1.568C143.119,41.501,143.162,40.785,143.505,40.06z
		 M144.612,40.605c-0.222,0.473-0.272,0.907-0.148,1.301c0.129,0.401,0.404,0.701,0.829,0.9c0.427,0.202,0.834,0.225,1.219,0.07
		c0.386-0.155,0.688-0.462,0.903-0.923c0.217-0.46,0.263-0.888,0.136-1.283c-0.128-0.401-0.404-0.701-0.828-0.901
		c-0.418-0.197-0.822-0.217-1.213-0.061C145.12,39.866,144.821,40.165,144.612,40.605z"/>
	<path fill="#FFFFFF" d="M152.063,41.448l-1.499,2.6c-0.434,0.751-0.355,1.297,0.237,1.639c0.592,0.342,1.104,0.138,1.538-0.612
		l1.502-2.6l1.046,0.604l-1.515,2.624c-0.209,0.362-0.436,0.649-0.677,0.861c-0.224,0.186-0.496,0.311-0.819,0.377
		c-0.531,0.103-1.069-0.003-1.615-0.318c-0.542-0.313-0.902-0.726-1.078-1.237c-0.107-0.315-0.139-0.616-0.092-0.903
		c0.034-0.261,0.172-0.599,0.411-1.015l1.515-2.623L152.063,41.448z"/>
	<path fill="#FFFFFF" d="M156.407,44.038l0.999,0.688l-0.273,0.398c0.585-0.105,1.097-0.007,1.532,0.294
		c0.502,0.345,0.782,0.772,0.846,1.28c0.057,0.436-0.125,0.957-0.543,1.563l-1.821,2.64l-0.999-0.689l1.659-2.405
		c0.292-0.425,0.436-0.759,0.43-1.002c-0.001-0.244-0.153-0.471-0.457-0.681c-0.329-0.227-0.64-0.28-0.929-0.158
		c-0.284,0.122-0.611,0.451-0.98,0.987l-1.434,2.078l-0.999-0.689L156.407,44.038z"/>
	<path fill="#FFFFFF" d="M161.742,49.294l-2.528,3.232l-0.951-0.745l2.527-3.232l-0.406-0.317l0.695-0.889l0.405,0.318l1.183-1.511
		l0.951,0.745l-1.182,1.51l0.741,0.579l-0.694,0.889L161.742,49.294z"/>
	<path fill="#FFFFFF" d="M162.394,53.902l1.057-4.749l1.051,0.928l-0.792,3.314l3.11-1.266l1.023,0.903l-8.473,3.294l-1.035-0.914
		L162.394,53.902z"/>
	<path fill="#FFFFFF" d="M171.51,56.829l-1.299,2.962l3.093-0.941l0.901,1.016l-5.986,1.678l2.394-5.728L171.51,56.829z"/>
	<path fill="#FFFFFF" d="M172.67,62.056c0.604-0.454,1.279-0.625,2.029-0.512c0.748,0.113,1.356,0.48,1.823,1.101
		c0.47,0.624,0.655,1.313,0.557,2.069c-0.104,0.75-0.465,1.358-1.086,1.826c-0.626,0.472-1.313,0.651-2.062,0.538
		c-0.748-0.118-1.36-0.493-1.837-1.125c-0.472-0.627-0.652-1.313-0.543-2.06C171.657,63.15,172.029,62.538,172.67,62.056z
		 M173.397,63.055c-0.418,0.315-0.664,0.675-0.739,1.082c-0.073,0.413,0.031,0.809,0.313,1.183c0.284,0.378,0.633,0.588,1.047,0.631
		c0.413,0.043,0.822-0.089,1.229-0.395s0.646-0.664,0.719-1.072c0.073-0.414-0.031-0.809-0.313-1.184
		c-0.278-0.368-0.627-0.575-1.045-0.619C174.189,62.638,173.785,62.763,173.397,63.055z"/>
	<path fill="#FFFFFF" d="M179.595,67.274l-2.541,1.601c-0.732,0.462-0.916,0.983-0.552,1.562c0.365,0.579,0.914,0.637,1.646,0.174
		l2.541-1.601l0.645,1.021l-2.563,1.616c-0.354,0.224-0.688,0.372-1,0.447c-0.285,0.06-0.585,0.044-0.9-0.048
		c-0.519-0.156-0.945-0.501-1.281-1.034c-0.335-0.531-0.46-1.063-0.378-1.597c0.052-0.329,0.164-0.609,0.339-0.842
		c0.152-0.215,0.432-0.45,0.837-0.706l2.563-1.615L179.595,67.274z"/>
	<path fill="#FFFFFF" d="M183.918,75.265l-1.417,0.754c0.167-0.401,0.255-0.728,0.263-0.979c0.013-0.25-0.049-0.504-0.185-0.76
		c-0.214-0.401-0.531-0.66-0.955-0.776c-0.422-0.116-0.844-0.061-1.269,0.165c-0.433,0.23-0.721,0.547-0.863,0.951
		c-0.14,0.408-0.103,0.812,0.11,1.214c0.136,0.256,0.311,0.453,0.526,0.59c0.208,0.132,0.536,0.245,0.982,0.335l-1.409,0.749
		c-0.455-0.313-0.797-0.687-1.027-1.12c-0.38-0.714-0.468-1.435-0.262-2.16c0.21-0.728,0.658-1.275,1.349-1.642
		c0.688-0.366,1.399-0.433,2.133-0.198s1.288,0.707,1.665,1.415C183.801,74.256,183.921,74.744,183.918,75.265z"/>
	<path fill="#FFFFFF" d="M188.253,74.886l0.486,1.107l-3.913,1.722c0.526,0.238,0.894,0.594,1.104,1.069
		c0.236,0.541,0.252,1.05,0.045,1.529c-0.185,0.41-0.609,0.762-1.279,1.056l-2.935,1.292l-0.486-1.106l2.832-1.246
		c0.382-0.169,0.631-0.359,0.743-0.571c0.112-0.211,0.102-0.468-0.03-0.77c-0.171-0.387-0.41-0.605-0.719-0.658
		c-0.311-0.047-0.761,0.059-1.351,0.319l-2.314,1.019l-0.487-1.107L188.253,74.886z"/>
	<path fill="#FFFFFF" d="M186.028,87.657l-1.232-3.54c-0.396,0.172-0.672,0.416-0.832,0.733c-0.155,0.315-0.169,0.656-0.042,1.021
		c0.098,0.284,0.248,0.496,0.448,0.635c0.198,0.135,0.521,0.256,0.968,0.362l-0.202,1.151c-0.305-0.061-0.577-0.143-0.815-0.245
		s-0.449-0.228-0.632-0.376c-0.183-0.149-0.339-0.324-0.471-0.525c-0.131-0.201-0.24-0.43-0.33-0.687
		c-0.256-0.737-0.226-1.412,0.092-2.023c0.322-0.612,0.877-1.056,1.665-1.33c0.78-0.272,1.488-0.276,2.122-0.012
		c0.629,0.271,1.069,0.766,1.319,1.486c0.254,0.727,0.222,1.383-0.094,1.967c-0.314,0.58-0.88,1.011-1.693,1.295L186.028,87.657z
		 M186.554,86.161c0.553-0.371,0.723-0.861,0.512-1.47c-0.048-0.139-0.114-0.261-0.199-0.368c-0.085-0.107-0.185-0.197-0.298-0.269
		c-0.115-0.072-0.24-0.124-0.377-0.156c-0.136-0.032-0.281-0.042-0.437-0.03L186.554,86.161z"/>
	<path fill="#FFFFFF" d="M189.185,88.178l0.319,1.165l-0.451,0.124c0.284,0.152,0.489,0.3,0.618,0.443
		c0.133,0.146,0.231,0.333,0.295,0.565c0.084,0.308,0.071,0.656-0.036,1.046l-1.213-0.241c0.098-0.265,0.118-0.503,0.061-0.713
		c-0.176-0.636-0.742-0.821-1.703-0.558l-2.614,0.718l-0.32-1.165L189.185,88.178z"/>
</g>
<g>
	<path fill="#FFFFFF" d="M77.321,192.294l1.785-4.074c-0.643,0.266-1.247,0.275-1.807,0.03c-0.646-0.284-1.078-0.76-1.296-1.43
		c-0.22-0.668-0.174-1.359,0.141-2.073c0.322-0.738,0.807-1.253,1.451-1.546c0.64-0.29,1.288-0.292,1.942-0.005
		c0.555,0.244,0.957,0.673,1.206,1.291l0.22-0.501l1.107,0.485l-3.642,8.309L77.321,192.294z M77.296,185.192
		c-0.202,0.459-0.241,0.888-0.118,1.286c0.123,0.405,0.375,0.691,0.755,0.858c0.406,0.178,0.8,0.181,1.182,0.007
		c0.375-0.171,0.663-0.483,0.861-0.936c0.205-0.466,0.243-0.893,0.116-1.28c-0.124-0.395-0.39-0.681-0.796-0.859
		c-0.384-0.168-0.765-0.165-1.143,0.01C77.772,184.455,77.485,184.76,77.296,185.192z"/>
	<path fill="#FFFFFF" d="M75.151,184.283c-0.363,0.663-0.907,1.099-1.635,1.304c-0.729,0.206-1.436,0.123-2.117-0.25
		c-0.685-0.374-1.138-0.925-1.361-1.655c-0.214-0.725-0.136-1.429,0.235-2.111c0.376-0.688,0.93-1.135,1.658-1.341
		c0.729-0.201,1.441-0.111,2.137,0.268c0.688,0.376,1.136,0.927,1.343,1.652C75.623,182.868,75.534,183.579,75.151,184.283z
		 M74.076,183.672c0.251-0.458,0.327-0.888,0.228-1.289c-0.104-0.408-0.362-0.724-0.773-0.949c-0.415-0.227-0.819-0.274-1.213-0.143
		c-0.395,0.131-0.712,0.42-0.957,0.867c-0.244,0.446-0.314,0.87-0.212,1.273c0.104,0.408,0.361,0.724,0.773,0.949
		c0.405,0.221,0.807,0.266,1.207,0.133C73.527,184.38,73.843,184.099,74.076,183.672z"/>
	<path fill="#FFFFFF" d="M66.691,182.385l1.654-2.505c0.478-0.724,0.431-1.273-0.14-1.65c-0.571-0.376-1.094-0.203-1.572,0.52
		l-1.655,2.506l-1.008-0.665l1.668-2.529c0.231-0.35,0.474-0.623,0.729-0.82c0.233-0.172,0.514-0.281,0.84-0.327
		c0.536-0.071,1.066,0.067,1.592,0.414c0.523,0.345,0.857,0.778,1.003,1.298c0.089,0.321,0.102,0.624,0.038,0.908
		c-0.05,0.258-0.207,0.587-0.471,0.988l-1.669,2.528L66.691,182.385z"/>
	<path fill="#FFFFFF" d="M62.509,179.54l-0.957-0.748l0.298-0.38c-0.591,0.07-1.095-0.059-1.513-0.385
		c-0.479-0.375-0.735-0.818-0.767-1.329c-0.031-0.438,0.181-0.947,0.635-1.528l1.976-2.526l0.956,0.748l-1.799,2.302
		c-0.318,0.406-0.48,0.731-0.489,0.975c-0.014,0.244,0.125,0.479,0.416,0.706c0.315,0.248,0.622,0.319,0.917,0.213
		c0.291-0.104,0.637-0.413,1.039-0.927l1.554-1.989l0.957,0.748L62.509,179.54z"/>
	<path fill="#FFFFFF" d="M57.498,173.974l2.716-3.075l0.906,0.8l-2.717,3.075l0.387,0.342l-0.747,0.845l-0.386-0.342l-1.271,1.438
		l-0.905-0.801l1.27-1.437l-0.706-0.622l0.748-0.846L57.498,173.974z"/>
	<path fill="#FFFFFF" d="M57.124,169.335l-1.338,4.677l-0.994-0.989l0.989-3.261L52.6,170.84l-0.967-0.962l8.654-2.782l0.978,0.975
		L57.124,169.335z"/>
	<path fill="#FFFFFF" d="M48.197,165.868l1.474-2.879l-3.143,0.754l-0.839-1.068l6.076-1.316l-2.733,5.574L48.197,165.868z"/>
	<path fill="#FFFFFF" d="M47.353,160.582c-0.63,0.417-1.315,0.547-2.056,0.39c-0.74-0.158-1.326-0.561-1.755-1.208
		c-0.432-0.65-0.575-1.35-0.431-2.099c0.147-0.742,0.545-1.328,1.192-1.758c0.654-0.433,1.35-0.572,2.091-0.414
		c0.74,0.163,1.328,0.574,1.765,1.233c0.434,0.654,0.573,1.35,0.419,2.088C48.429,159.549,48.021,160.138,47.353,160.582z
		 M46.688,159.54c0.436-0.289,0.702-0.634,0.802-1.035c0.099-0.41,0.017-0.809-0.241-1.2c-0.262-0.394-0.597-0.625-1.008-0.692
		c-0.41-0.067-0.826,0.039-1.25,0.32c-0.424,0.281-0.684,0.624-0.781,1.027c-0.098,0.409-0.018,0.81,0.241,1.2
		c0.256,0.385,0.591,0.611,1.005,0.68C45.871,159.909,46.281,159.809,46.688,159.54z"/>
	<path fill="#FFFFFF" d="M40.754,154.958l2.631-1.446c0.759-0.417,0.974-0.926,0.645-1.526c-0.33-0.6-0.875-0.69-1.634-0.272
		l-2.631,1.446l-0.583-1.059l2.655-1.46c0.367-0.201,0.71-0.33,1.026-0.386c0.287-0.043,0.585-0.01,0.895,0.102
		c0.508,0.187,0.914,0.556,1.216,1.108c0.302,0.549,0.396,1.088,0.283,1.616c-0.071,0.326-0.201,0.599-0.39,0.821
		c-0.164,0.206-0.458,0.423-0.877,0.655l-2.655,1.459L40.754,154.958z"/>
	<path fill="#FFFFFF" d="M36.916,146.723l1.459-0.668c-0.191,0.391-0.297,0.712-0.321,0.962c-0.028,0.249,0.019,0.505,0.139,0.769
		c0.189,0.414,0.491,0.691,0.906,0.832s0.84,0.111,1.277-0.088c0.446-0.204,0.752-0.503,0.918-0.898
		c0.164-0.398,0.151-0.803-0.038-1.217c-0.121-0.264-0.284-0.47-0.491-0.62c-0.199-0.145-0.52-0.277-0.959-0.394l1.451-0.663
		c0.436,0.34,0.755,0.733,0.959,1.18c0.336,0.735,0.381,1.459,0.131,2.172c-0.252,0.714-0.733,1.234-1.443,1.558
		s-1.424,0.347-2.142,0.069c-0.717-0.278-1.244-0.782-1.578-1.511C36.972,147.737,36.882,147.243,36.916,146.723z"/>
	<path fill="#FFFFFF" d="M32.567,146.842l-0.42-1.133l4.009-1.485c-0.511-0.269-0.857-0.646-1.038-1.133
		c-0.205-0.554-0.189-1.064,0.046-1.529c0.208-0.397,0.654-0.724,1.339-0.978l3.007-1.113l0.419,1.133l-2.901,1.075
		c-0.394,0.146-0.651,0.32-0.776,0.525c-0.126,0.204-0.13,0.461-0.017,0.77c0.147,0.396,0.373,0.63,0.678,0.7
		c0.307,0.066,0.762-0.013,1.367-0.237l2.373-0.879l0.419,1.134L32.567,146.842z"/>
	<path fill="#FFFFFF" d="M35.55,134.225l1.019,3.608c0.405-0.148,0.695-0.375,0.873-0.683c0.175-0.306,0.208-0.645,0.104-1.017
		c-0.081-0.29-0.218-0.51-0.41-0.66c-0.19-0.147-0.505-0.287-0.944-0.42l0.271-1.137c0.302,0.079,0.568,0.177,0.8,0.293
		c0.232,0.117,0.435,0.255,0.609,0.415c0.173,0.159,0.319,0.343,0.438,0.551c0.118,0.208,0.214,0.444,0.289,0.706
		c0.211,0.751,0.14,1.422-0.213,2.014c-0.358,0.592-0.938,1.001-1.741,1.228c-0.796,0.225-1.502,0.186-2.12-0.116
		c-0.611-0.307-1.021-0.829-1.229-1.562c-0.208-0.741-0.138-1.394,0.212-1.957c0.348-0.56,0.938-0.957,1.767-1.191L35.55,134.225z
		 M34.936,135.688c-0.574,0.337-0.773,0.815-0.598,1.436c0.04,0.142,0.098,0.269,0.176,0.38c0.079,0.112,0.173,0.208,0.282,0.286
		c0.11,0.079,0.231,0.139,0.366,0.179c0.135,0.04,0.279,0.059,0.434,0.056L34.936,135.688z"/>
	<path fill="#FFFFFF" d="M32.431,133.518l-0.249-1.182l0.458-0.097c-0.273-0.169-0.471-0.329-0.59-0.479
		c-0.124-0.153-0.212-0.347-0.261-0.582c-0.066-0.312-0.033-0.659,0.099-1.042l1.197,0.313c-0.114,0.258-0.148,0.494-0.103,0.708
		c0.136,0.645,0.69,0.864,1.665,0.658l2.654-0.56l0.249,1.183L32.431,133.518z"/>
</g>
</svg>
