<svg xmlns="http://www.w3.org/2000/svg" viewBox="0 0 899.21 1415.66"><defs><style>.cls-1{fill:#ffce3a;}.cls-2{fill:#4d91ce;}.cls-3{fill:#efe5f1;}.cls-4{fill:#d1946a;}.cls-5{fill:#c9c9c8;}.cls-6{fill:#333;}</style></defs><title>gitcoin_avatar2</title><g id="BODY"><path class="cls-1" d="M769.88,689.1c7.1,12.72,10,23,14.15,37.17q2.73,9.51,4.82,19.15l11-88-37.4,19a104,104,0,0,1,6.47,10.83C769.25,688,769.58,688.56,769.88,689.1Z"/><path class="cls-2" d="M261.29,824.76V610a326.87,326.87,0,0,0-63.4,39.61v13.76h51.5v60.56a8,8,0,1,1-16,0V679.45H191.21l-6.35,2.15,19.3,32.34,21.48,52.8v58.1Z"/><path class="cls-2" d="M664.23,770l5.27-18.1-7.79-3.41c-5.93-3.22-20.15-12.59-24.31-30-5.62-23.58,12.09-43.9,23.44-52.2A60.28,60.28,0,0,1,697,655.07l3.13-11.27c-8.83-5.38-19.12-11.08-31.16-17.07-9.81-4.89-23.25-10.31-38.44-15.92V823.88l25.47-.06Z"/><path class="cls-3" d="M681.13,769.24l27.62,25.55v28.9l70.36-.16.09-.71c.1-2.14.19-4.27.25-6.39l-.49-.2.52-1.29a279.72,279.72,0,0,0-10.82-84.19c-3.94-13.66-6.54-22.68-12.73-33.77-.35-.63-.72-1.32-1.13-2.08-4-7.42-11.74-22-40.58-42l-16.1,57.89Z"/><path class="cls-4" d="M692.49,671.31a43.17,43.17,0,0,0-22.24,8c-.22.16-21.87,16.23-17.29,35.43,2.59,10.86,11.88,17.13,16.07,19.46l5,2.17,8.72-30Z"/><polygon class="cls-1" points="823.38 613.32 817.55 644.65 803.88 754.24 856.98 622.14 823.38 613.32"/><path class="cls-3" d="M542.44,746.65c-25.89,4.46-45.19,16.93-57.19,27.06l-21.6,50.57,150.89-.36V758A109.28,109.28,0,0,0,594,749.44,116,116,0,0,0,542.44,746.65Z"/><polygon class="cls-1" points="672.21 823.78 692.75 823.73 692.75 801.85 677.69 787.92 672.21 823.78"/><path class="cls-5" d="M181.89,663.3c-1.33,1.22-2.66,2.44-4,3.68l4-1.35Z"/><path class="cls-3" d="M189.81,721.17l-24.75-41.49c-2.48,2.53-5.08,5.24-7.74,8.13l-1.07,2.12-.59-.3c-13.71,15.17-29,35.46-40.44,63.47A215.74,215.74,0,0,0,100,817.65l.32,1.15-.42.12c-.15,2.07-.29,4.14-.38,6.22l77.35-.18V788.15l29.22-27Z"/><path class="cls-1" d="M140.87,682.1,94.94,658.71V761.92q2.48-7.54,5.47-14.92A226.51,226.51,0,0,1,140.87,682.1Z"/><path class="cls-3" d="M366.13,714.48l49.95,13.39h37.78l53.51-8.7,43.71-14.32,25.35-22.12L585.29,661V604.73c-11,18.81-30.1,43.19-61.4,59.94-40.59,21.7-79,18.25-93.51,17-12.88-1.15-39.68-3.56-68.06-20.52a146.89,146.89,0,0,1-46.47-44.57v48.72l12.39,24.37Z"/><polygon class="cls-1" points="192.87 824.92 209.64 824.88 209.64 779.73 192.87 795.22 192.87 824.92"/><polygon class="cls-1" points="78.94 743.28 78.94 638.76 79.22 638.76 79.22 619.92 46.44 628.52 78.94 743.28"/><path class="cls-3" d="M351.68,730.8c30.53,5.26,52.93,20.26,66.33,31.93l1.4,1.2,25.79,60.39h1L472,763.93l1.39-1.2c13.41-11.67,35.81-26.67,66.34-31.93A130.44,130.44,0,0,1,598.58,734a123,123,0,0,1,16,6V605q-6.52-2.29-13.25-4.61v63.73l-11.5,28.21-30.68,26.77-48,15.71-.61.1-55.39,9H414l-54.46-14.6-43.59-28.6-16.09-31.63v-74.5L295.19,596q-9.1,3.24-17.9,6.9v137A124.53,124.53,0,0,1,292.84,734,130.41,130.41,0,0,1,351.68,730.8Z"/><path class="cls-3" d="M406.17,773.71c-12-10.13-31.31-22.6-57.2-27.06a116.08,116.08,0,0,0-51.55,2.79,110.2,110.2,0,0,0-20.13,8.35v66.93l150.52-.36Z"/><path class="cls-6" d="M277.29,840.81h0L794,839.58l.59-7.39q.3-3.95.51-7.88l1-7.81,82.52-205.3-67.81-17.8-7.65,41.09-.47-.06-.46,3.74L752,663.75c-12.88-13.58-35.23-31.17-75.93-51.44-20.18-10-54.16-21.95-87.88-33.32l-6.85-2.3-3,6.6c-7.57,16.75-25.68,47.75-62,67.17S445,666.78,431.8,665.6c-12.6-1.13-36.06-3.23-61.31-18.33-32.93-19.68-48.89-49.93-55.48-66.22l-2.69-6.66-21.71,6.15-.49.15c-49.88,17.66-93.38,44.74-129.29,80.49-2.67,2.67-5.56,5.55-8.6,8.67l-57-29V599.09l-68.64,18L83.83,819.32c-.3,4.58-.49,9.18-.54,13.8l-.08,8.15,169.9-.41ZM817.55,644.65l5.83-31.33,33.6,8.82-53.1,132.1Zm-203,179.27-150.89.36,21.6-50.57c12-10.13,31.3-22.6,57.19-27.06A116,116,0,0,1,594,749.44,109.28,109.28,0,0,1,614.54,758Zm78.21-.19-20.54,0,5.48-35.86,15.06,13.93ZM669,734.21c-4.19-2.33-13.48-8.6-16.07-19.46-4.58-19.2,17.07-35.27,17.29-35.43a43.17,43.17,0,0,1,22.24-8l-9.75,35.08-8.72,30Zm130.8-76.78-11,88q-2.08-9.64-4.82-19.15c-4.1-14.2-7-24.45-14.15-37.17-.3-.54-.63-1.14-1-1.8a104,104,0,0,0-6.47-10.83Zm-45,37.47c.41.76.78,1.45,1.13,2.08,6.19,11.09,8.79,20.11,12.73,33.77a279.72,279.72,0,0,1,10.82,84.19l-.52,1.29.49.2c-.06,2.12-.15,4.25-.25,6.39l-.09.71-70.36.16v-28.9l-27.62-25.55,17-58.43,16.1-57.89C743.06,672.91,750.84,687.48,754.8,694.9ZM630.54,610.81c15.19,5.61,28.63,11,38.44,15.92,12,6,22.33,11.69,31.16,17.07L697,655.07a60.28,60.28,0,0,0-36.17,11.23c-11.35,8.3-29.06,28.62-23.44,52.2,4.16,17.43,18.38,26.8,24.31,30l7.79,3.41L664.23,770,656,823.82l-25.47.06Zm-314.69,5.72a146.89,146.89,0,0,0,46.47,44.57c28.38,17,55.18,19.37,68.06,20.52,14.47,1.3,52.92,4.75,93.51-17,31.3-16.75,50.44-41.13,61.4-59.94V661l-8.86,21.74-25.35,22.12-43.71,14.32-53.51,8.7H416.08l-49.95-13.39-37.89-24.86-12.39-24.37Zm-38.56-13.68q8.79-3.66,17.9-6.9l4.66-1.32v74.5l16.09,31.63,43.59,28.6L414,744h41.16l55.39-9,.61-.1,48-15.71,30.68-26.77,11.5-28.21V600.43q6.72,2.31,13.25,4.61v135a123,123,0,0,0-16-6,130.44,130.44,0,0,0-58.84-3.23c-30.53,5.26-52.93,20.26-66.34,31.93l-1.39,1.2-25.8,60.39h-1l-25.79-60.39-1.4-1.2c-13.4-11.67-35.8-26.67-66.33-31.93A130.41,130.41,0,0,0,292.84,734a124.53,124.53,0,0,0-15.55,5.85Zm0,154.94a110.2,110.2,0,0,1,20.13-8.35A116.08,116.08,0,0,1,349,746.65c25.89,4.46,45.2,16.93,57.2,27.06l21.64,50.65-150.52.36Zm-198.07-119h-.28V743.28L46.44,628.52l32.78-8.6ZM181.89,663.3v2.33l-4,1.35C179.23,665.74,180.56,664.52,181.89,663.3Zm-86.95-4.59,45.93,23.39A226.51,226.51,0,0,0,100.41,747q-3,7.38-5.47,14.92ZM176.87,825l-77.35.18c.09-2.08.23-4.15.38-6.22l.42-.12-.32-1.15a215.74,215.74,0,0,1,15.22-64.55c11.41-28,26.73-48.3,40.44-63.47l.59.3,1.07-2.12c2.66-2.89,5.26-5.6,7.74-8.13l24.75,41.49,16.28,40-29.22,27Zm32.77-.08-16.77,0v-29.7l16.77-15.49Zm-5.48-110.94-19.3-32.34,6.35-2.15h42.18v44.47a8,8,0,1,0,16,0V663.36h-51.5V649.6A326.87,326.87,0,0,1,261.29,610V824.76l-35.65.08v-58.1Z"/></g></svg>