<?xml version="1.0" encoding="utf-8"?>
<!-- Generator: Adobe Illustrator 21.0.2, SVG Export Plug-In . SVG Version: 6.00 Build 0)  -->
<svg version="1.1" id="Layer_1" xmlns="http://www.w3.org/2000/svg" xmlns:xlink="http://www.w3.org/1999/xlink" x="0px" y="0px"
	 viewBox="0 0 841.89 595.28" enable-background="new 0 0 841.89 595.28" xml:space="preserve">
<g id="Layer_63_9_">
	<g>
		<polygon fill="#793DF4" points="665.43,423.344 466.028,538.468 266.63,423.344 266.63,193.095 466.028,77.971 665.43,193.095 		
			"/>
	</g>
</g>
<g id="Layer_63_4_">
	<g>
		<g>
			<path fill="#0DFFF8" d="M465.129,525.487l-0.675-0.387L276.973,416.855V199.584L465.129,90.956l0.675,0.387l187.485,108.242
				v217.271L465.129,525.487z M279.672,415.295l185.457,107.079L650.59,415.295V201.144L465.129,94.069L279.672,201.144V415.295z"/>
		</g>
	</g>
</g>
<g>
	<g>
		<g>
			<g>
				<g>
					<path fill="#FFFFFF" d="M476.315,459.029l-8.404-12.325l-7.35,11.57l-8.903-13.063l0.169-0.263l15.005-23.631l17.31,25.387
						L476.315,459.029z M467.884,444.986l8.404,12.325l6.724-10.589l-16.151-23.687l-14.071,22.159l7.744,11.362L467.884,444.986z"
						/>
				</g>
			</g>
		</g>
	</g>
	<g>
		<g>
			<g>
				<g>
					<polygon fill="#0DFFF8" points="467.855,441.957 472.577,448.861 476.649,442.432 467.258,428.698 459.079,441.61 
						463.748,448.447 					"/>
				</g>
			</g>
		</g>
	</g>
</g>
<g>
	<g>
		<g>
			<g>
				<rect x="441.572" y="469.874" fill="#0DFFF8" width="54.26" height="3.464"/>
			</g>
		</g>
	</g>
</g>
<g>
	<g>
		<g>
			<g>
				<polyline fill="#0DFFF8" points="462.35,470.085 468.439,460.22 474.316,470.398 				"/>
			</g>
		</g>
	</g>
</g>
<g>
	<g>
		<g>
			<rect x="571.27" y="328.695" fill="#FFFFFF" width="23.328" height="0.878"/>
		</g>
	</g>
</g>
<g>
	<g>
		<g>
			<rect x="554.683" y="321.103" fill="#FFFFFF" width="23.325" height="0.879"/>
		</g>
	</g>
</g>
<g>
	<g>
		<g>
			<rect x="579.164" y="314.912" fill="#FFFFFF" width="19.172" height="0.882"/>
		</g>
	</g>
</g>
<g>
	<g>
		<g>
			<rect x="580.348" y="320.52" fill="#FFFFFF" width="4.511" height="1.824"/>
		</g>
	</g>
</g>
<g>
	<g>
		<g>
			<rect x="598.171" y="328.28" fill="#FFFFFF" width="4.511" height="1.82"/>
		</g>
	</g>
</g>
<g>
	<g>
		<g>
			<path fill="#FFFFFF" d="M545.995,340.574l5.407,3.306l-10.115,7.153l-9.795-5.987l5.544-3.917l4.388,2.681L545.995,340.574z
				 M549.329,343.95l-3.288-2.01l-4.571,3.236l-4.388-2.684l-3.517,2.487l7.68,4.691L549.329,343.95z"/>
		</g>
	</g>
</g>
<g>
	<g>
		<g>
			<path fill="#FFFFFF" d="M542.355,296.629l9.795,5.987l-5.54,3.917l-4.388-2.681l-4.571,3.232l-5.407-3.299L542.355,296.629z
				 M550.077,302.686l-7.676-4.694l-8.084,5.72l3.288,2.013l4.571-3.239l4.388,2.684L550.077,302.686z"/>
		</g>
	</g>
</g>
<g>
	<g>
		<g>
			<path fill="#FFFFFF" d="M542.159,306.674l13.199,8.07l-12.771,9.033l12.258,7.494l-13.66,9.661l-25.461-15.56L542.159,306.674z
				 M553.285,314.811l-11.084-6.774l-24.403,17.264l23.343,14.267l11.633-8.231l-12.258-7.491L553.285,314.811z"/>
		</g>
	</g>
</g>
<g>
	<g>
		<g>
			<polygon fill="#0DFFF8" points="536.541,323.815 543.69,318.738 536.878,314.589 522.645,324.683 536.33,333.024 
				543.413,328.003 			"/>
		</g>
	</g>
</g>
<g>
	<g>
		<g>
			<rect x="503.586" y="324.226" fill="#FFFFFF" width="4.511" height="1.82"/>
		</g>
	</g>
</g>
<g>
	<g>
		<g>
			<rect x="488.401" y="324.226" fill="#FFFFFF" width="4.511" height="1.82"/>
		</g>
	</g>
</g>
<g>
	<g>
		<g>
			<rect x="473.217" y="324.226" fill="#FFFFFF" width="4.511" height="1.82"/>
		</g>
	</g>
</g>
<g>
	<g>
		<g>
			<g>
				<circle fill="#0DFFF8" cx="431.011" cy="315.914" r="13.864"/>
			</g>
		</g>
	</g>
	<g>
		<g>
			<g>
				<path fill-rule="evenodd" clip-rule="evenodd" fill="#793DF4" d="M436.172,316.096c-1.686-2.951-3.341-5.85-5.056-8.847
					c-1.707,2.983-3.369,5.889-5.059,8.843c0.868,0.489,1.711,0.959,2.551,1.434c0.734,0.414,1.461,0.836,2.199,1.23
					c0.141,0.074,0.372,0.126,0.492,0.06C432.915,317.93,434.521,317.024,436.172,316.096z"/>
			</g>
		</g>
		<g>
			<g>
				<path fill-rule="evenodd" clip-rule="evenodd" fill="#793DF4" d="M435.969,317.242c-1.504,0.843-3.011,1.679-4.504,2.54
					c-0.267,0.155-0.46,0.141-0.72-0.007c-1.356-0.784-2.723-1.549-4.082-2.319c-0.127-0.071-0.26-0.127-0.517-0.257
					c1.69,2.431,3.306,4.746,4.968,7.136c1.648-2.368,3.271-4.697,4.894-7.023C435.993,317.288,435.983,317.263,435.969,317.242z"/>
			</g>
		</g>
	</g>
</g>
<g>
	<g>
		<g>
			<g>
				<circle fill="#0DFFF8" cx="320.42" cy="315.914" r="13.865"/>
			</g>
		</g>
	</g>
	<g>
		<g>
			<g>
				<path fill-rule="evenodd" clip-rule="evenodd" fill="#793DF4" d="M325.58,316.096c-1.686-2.951-3.341-5.85-5.056-8.847
					c-1.707,2.983-3.369,5.889-5.059,8.843c0.868,0.489,1.711,0.959,2.55,1.434c0.734,0.414,1.462,0.836,2.203,1.23
					c0.137,0.074,0.369,0.126,0.489,0.06C322.323,317.93,323.929,317.024,325.58,316.096z"/>
			</g>
		</g>
		<g>
			<g>
				<path fill-rule="evenodd" clip-rule="evenodd" fill="#793DF4" d="M325.376,317.242c-1.503,0.843-3.011,1.679-4.504,2.54
					c-0.267,0.155-0.46,0.141-0.72-0.007c-1.353-0.784-2.72-1.549-4.083-2.319c-0.126-0.071-0.26-0.127-0.516-0.257
					c1.693,2.431,3.306,4.746,4.968,7.136c1.648-2.368,3.271-4.697,4.894-7.023C325.401,317.288,325.39,317.263,325.376,317.242z"/>
			</g>
		</g>
	</g>
</g>
<g>
	<g>
		<g>
			<g>
				<circle fill="#0DFFF8" cx="375.888" cy="326.039" r="13.864"/>
			</g>
		</g>
	</g>
	<g>
		<g>
			<g>
				<path fill-rule="evenodd" clip-rule="evenodd" fill="#793DF4" d="M381.048,326.218c-1.686-2.948-3.341-5.846-5.055-8.847
					c-1.707,2.986-3.37,5.892-5.059,8.843c0.868,0.489,1.711,0.963,2.551,1.437c0.734,0.411,1.462,0.833,2.199,1.23
					c0.141,0.074,0.372,0.123,0.492,0.06C377.792,328.056,379.397,327.146,381.048,326.218z"/>
			</g>
		</g>
		<g>
			<g>
				<path fill-rule="evenodd" clip-rule="evenodd" fill="#793DF4" d="M380.845,327.364c-1.504,0.847-3.011,1.683-4.504,2.54
					c-0.267,0.155-0.46,0.144-0.72-0.007c-1.353-0.784-2.719-1.546-4.083-2.315c-0.127-0.074-0.26-0.13-0.517-0.26
					c1.693,2.431,3.306,4.747,4.968,7.136c1.648-2.368,3.271-4.697,4.894-7.023C380.869,327.413,380.859,327.388,380.845,327.364z"
					/>
			</g>
		</g>
	</g>
</g>
<g>
	<g>
		<g>
			<g>
				<path fill="#FFFFFF" d="M415.433,217.393h-12.346v-39.574h-4.964v-12.346h11.106c1.707,0,3.197,0.587,4.413,1.753
					c1.205,1.261,1.792,2.723,1.792,4.388V217.393z M405.578,214.902h7.364v-43.287c0-1.022-0.344-1.88-1.065-2.628
					c-0.706-0.675-1.588-1.022-2.649-1.022h-8.615v7.371h4.964V214.902z"/>
			</g>
		</g>
	</g>
	<g>
		<g>
			<g>
				<path fill="#FFFFFF" d="M448.866,217.393h-19.787c-1.728,0-3.211-0.629-4.384-1.862c-1.195-1.138-1.82-2.614-1.82-4.35v-9.893
					h12.346v3.759h7.441v-7.441h-9.932V185.26h9.932v-7.441h-7.441v3.689h-12.346v-9.893c0-1.676,0.615-3.148,1.841-4.367
					c1.177-1.177,2.646-1.774,4.364-1.774h19.787c1.665,0,3.13,0.587,4.35,1.753c1.202,1.261,1.792,2.723,1.792,4.388v14.889
					c0,1.669-0.59,3.131-1.753,4.346c-0.218,0.211-0.439,0.397-0.668,0.573c0.221,0.172,0.436,0.362,0.646,0.569
					c1.177,1.181,1.774,2.649,1.774,4.371v14.819c0,1.725-0.598,3.194-1.771,4.371C452.014,216.775,450.545,217.393,448.866,217.393
					z M425.358,203.776v7.406c0,1.047,0.359,1.894,1.096,2.596c0.741,0.77,1.588,1.124,2.624,1.124h19.787
					c1.008,0,1.862-0.358,2.607-1.107c0.703-0.703,1.044-1.556,1.044-2.614v-14.819c0-1.054-0.341-1.904-1.044-2.607
					c-0.745-0.752-1.602-1.114-2.607-1.114v-2.484c1.019,0,1.88-0.351,2.632-1.065c0.671-0.706,1.019-1.571,1.019-2.59v-14.889
					c0-1.022-0.348-1.88-1.065-2.628c-0.706-0.675-1.567-1.022-2.586-1.022h-19.787c-1.051,0-1.904,0.341-2.607,1.04
					c-0.752,0.748-1.114,1.602-1.114,2.61v7.409h7.371v-3.689h12.419v12.416h-9.928v7.368h9.928v12.416h-12.419v-3.759H425.358z"/>
			</g>
		</g>
	</g>
	<g>
		<g>
			<g>
				<path fill="#FFFFFF" d="M488.44,217.393h-19.787c-1.736,0-3.211-0.629-4.388-1.862c-1.194-1.138-1.823-2.614-1.823-4.35v-9.893
					h12.353v3.759h7.437v-7.441h-9.925V185.26h9.925v-7.441h-7.437v3.689h-12.353v-9.893c0-1.676,0.625-3.148,1.845-4.367
					c1.173-1.177,2.645-1.774,4.367-1.774h19.787c1.665,0,3.127,0.587,4.35,1.753c1.202,1.261,1.792,2.723,1.792,4.388v14.889
					c0,1.669-0.59,3.131-1.75,4.346c-0.225,0.211-0.446,0.397-0.675,0.573c0.225,0.172,0.439,0.362,0.646,0.569
					c1.18,1.181,1.778,2.649,1.778,4.371v14.819c0,1.725-0.598,3.194-1.778,4.371C491.585,216.775,490.119,217.393,488.44,217.393z
					 M464.932,203.776v7.406c0,1.047,0.359,1.894,1.089,2.596c0.748,0.77,1.592,1.124,2.631,1.124h19.787
					c1.005,0,1.859-0.358,2.607-1.107c0.703-0.703,1.044-1.556,1.044-2.614v-14.819c0-1.054-0.341-1.904-1.044-2.607
					c-0.748-0.752-1.602-1.114-2.607-1.114v-2.484c1.016,0,1.88-0.351,2.628-1.065c0.675-0.706,1.022-1.571,1.022-2.59v-14.889
					c0-1.022-0.348-1.88-1.065-2.628c-0.706-0.675-1.57-1.022-2.586-1.022h-19.787c-1.051,0-1.901,0.341-2.607,1.04
					c-0.752,0.748-1.114,1.602-1.114,2.61v7.409h7.375v-3.689h12.412v12.416h-9.925v7.368h9.925v12.416h-12.412v-3.759H464.932z"/>
			</g>
		</g>
	</g>
	<g>
		<g>
			<g>
				<path fill="#FFFFFF" d="M514.713,217.393H501.45l0.654-1.693c6.998-18.199,11.857-30.83,14.57-37.881h-14.658v-12.346h32.705
					l-0.65,1.693c-8.453,21.951-14.801,38.429-19.056,49.433L514.713,217.393z M505.072,214.902h7.933
					c4.135-10.698,10.16-26.346,18.09-46.938h-26.589v7.371h15.793l-0.65,1.687C517.172,183.451,512.313,196.081,505.072,214.902z"
					/>
			</g>
		</g>
	</g>
</g>
<g>
	<g>
		<g>
			<g>
				<g>
					<g>
						<polygon fill="#0DFFF8" points="405.568,179.973 406.78,179.973 406.78,214.888 407.191,214.888 407.191,179.573 
							405.568,179.573 						"/>
					</g>
				</g>
			</g>
		</g>
		<g>
			<g>
				<g>
					<g>
						<path fill="#0DFFF8" d="M415.577,171.172c-1.015-0.966-2.259-1.458-3.693-1.458h-10.062v10.259h1.261v-0.4h-0.861v-9.454
							h9.661c1.325,0,2.473,0.453,3.404,1.342c0.903,0.941,1.353,2.069,1.353,3.352v44.331h-9.451v-1.764h-0.411v2.168h10.273
							v-44.735C417.053,173.424,416.554,172.202,415.577,171.172z"/>
					</g>
				</g>
			</g>
		</g>
	</g>
	<g>
		<g>
			<g>
				<g>
					<g>
						<polygon fill="#0DFFF8" points="426.571,181.498 426.571,183.662 436.836,183.662 436.836,179.973 446.358,179.973 
							446.358,189.498 436.432,189.498 436.432,199.76 446.358,199.76 446.358,209.281 436.836,209.281 436.836,207.528 
							436.432,207.528 436.432,209.685 446.758,209.685 446.758,199.356 436.836,199.356 436.836,189.905 446.758,189.905 
							446.758,179.573 436.432,179.573 436.432,183.258 426.978,183.258 426.978,181.498 						"/>
					</g>
				</g>
			</g>
		</g>
		<g>
			<g>
				<g>
					<g>
						<path fill="#0DFFF8" d="M456.62,189.698v-14.886c0-1.388-0.492-2.61-1.469-3.64c-1.015-0.966-2.238-1.458-3.629-1.458h-19.78
							c-1.44,0-2.663,0.492-3.64,1.469c-1.015,1.016-1.531,2.238-1.531,3.629v4.198h0.407v-4.198c0-1.282,0.475-2.403,1.412-3.344
							c0.899-0.896,2.024-1.349,3.352-1.349h19.78c1.283,0,2.407,0.453,3.341,1.342c0.899,0.941,1.353,2.069,1.353,3.352v14.886
							c0,1.283-0.453,2.41-1.346,3.341c-0.941,0.899-2.066,1.353-3.348,1.353v0.408c1.283,0,2.403,0.478,3.341,1.416
							c0.899,0.892,1.353,2.02,1.353,3.344v14.823c0,1.321-0.453,2.449-1.353,3.341c-0.938,0.941-2.059,1.419-3.341,1.419h-19.78
							c-1.328,0-2.453-0.478-3.352-1.419c-0.938-0.893-1.412-2.024-1.412-3.341v-8.45h5.752v-0.408h-6.159v8.857
							c0,1.437,0.516,2.656,1.531,3.626c0.974,1.026,2.2,1.539,3.64,1.539h19.78c1.391,0,2.614-0.513,3.633-1.532
							c0.973-0.977,1.465-2.196,1.465-3.633V199.56c0-1.433-0.492-2.659-1.465-3.633c-0.647-0.646-1.374-1.089-2.175-1.325
							c0.801-0.232,1.528-0.657,2.178-1.275C456.128,192.312,456.62,191.089,456.62,189.698z"/>
					</g>
				</g>
			</g>
		</g>
	</g>
	<g>
		<g>
			<g>
				<g>
					<g>
						<path fill="#0DFFF8" d="M496.194,189.698v-14.886c0-1.388-0.492-2.61-1.469-3.64c-1.022-0.966-2.245-1.458-3.636-1.458h-19.78
							c-1.433,0-2.656,0.492-3.633,1.469c-1.015,1.016-1.535,2.238-1.535,3.629v8.85h10.266v-3.689h5.997v-0.4h-6.401v3.685h-9.451
							v-8.446c0-1.282,0.475-2.403,1.412-3.344c0.893-0.896,2.024-1.349,3.345-1.349h19.78c1.289,0,2.414,0.453,3.344,1.342
							c0.899,0.941,1.356,2.069,1.356,3.352v14.886c0,1.283-0.457,2.41-1.349,3.341c-0.938,0.899-2.062,1.353-3.352,1.353v0.408
							c1.286,0,2.41,0.478,3.352,1.416c0.892,0.892,1.349,2.02,1.349,3.344v14.823c0,1.321-0.457,2.449-1.349,3.341
							c-0.941,0.941-2.062,1.419-3.352,1.419h-19.78c-1.321,0-2.445-0.478-3.352-1.419c-0.931-0.893-1.406-2.024-1.406-3.341v-8.45
							h5.903v-0.408h-6.314v8.857c0,1.437,0.523,2.656,1.535,3.626c0.974,1.026,2.2,1.539,3.633,1.539h19.78
							c1.398,0,2.617-0.513,3.636-1.532c0.977-0.977,1.469-2.196,1.469-3.633V199.56c0-1.433-0.492-2.659-1.469-3.633
							c-0.646-0.646-1.374-1.089-2.175-1.325c0.801-0.232,1.528-0.657,2.182-1.275C495.702,192.312,496.194,191.089,496.194,189.698
							z"/>
					</g>
				</g>
			</g>
		</g>
		<g>
			<g>
				<g>
					<g>
						<polygon fill="#0DFFF8" points="484.544,179.573 484.544,179.973 485.928,179.973 485.928,189.498 476.003,189.498 
							476.003,195.277 476.407,195.277 476.407,189.905 486.332,189.905 486.332,179.573 						"/>
					</g>
				</g>
			</g>
		</g>
		<g>
			<g>
				<g>
					<g>
						<polygon fill="#0DFFF8" points="476.003,197.424 476.003,199.76 485.928,199.76 485.928,209.281 476.407,209.281 
							476.407,207.366 476.003,207.366 476.003,209.685 486.332,209.685 486.332,199.356 476.407,199.356 476.407,197.424 						"/>
					</g>
				</g>
			</g>
		</g>
	</g>
	<g>
		<g>
			<g>
				<g>
					<g>
						<path fill="#0DFFF8" d="M506.123,179.573v-1.757h-0.408v2.157h15.132c-2.382,6.19-6.865,17.844-13.431,34.915h0.432
							c6.633-17.247,11.137-28.946,13.484-35.042l0.109-0.274H506.123z"/>
					</g>
				</g>
			</g>
		</g>
		<g>
			<g>
				<g>
					<g>
						<path fill="#0DFFF8" d="M505.715,169.714v5.614h0.408v-5.21h29.146c-8.365,21.73-14.668,38.074-18.891,49.025H506.21
							c0.228-0.594,0.453-1.184,0.681-1.764h-0.436c-0.235,0.629-0.481,1.258-0.724,1.893l-0.109,0.274h11.028l0.053-0.126
							c4.247-11,10.596-27.481,19.045-49.433l0.109-0.274H505.715z"/>
					</g>
				</g>
			</g>
		</g>
	</g>
</g>
<g>
	<path fill="#FFFFFF" d="M323.251,245.247c0,5.537,0,13.828,0,24.874c0,0.871-0.295,1.602-0.885,2.192
		c-0.618,0.618-1.349,0.927-2.192,0.927c-2.08,0-5.2,0-9.359,0c-0.675,0-1.701,0-3.078,0c-0.703,0-1.743,0-3.12,0
		c0-3.457,0-7.771,0-12.943c0-5.172,0-11.215,0-18.129c1.209,0,3.022,0,5.439,0c0.169,0,0.422,0,0.759,0c2.08,0,5.2,0,9.359,0
		c0.843,0,1.574,0.295,2.192,0.885C322.956,243.673,323.251,244.404,323.251,245.247z M310.814,267.044c1.405,0,3.485,0,6.24,0
		c0-0.281,0-0.689,0-1.223c0-3.879,0-9.697,0-17.454c-1.378,0-3.457,0-6.24,0c0,2.08,0,5.186,0,9.317
		C310.814,259.764,310.814,262.884,310.814,267.044z"/>
</g>
<g>
	<path fill="#FFFFFF" d="M348.125,245.247c0,5.537,0,13.828,0,24.874c0,0.871-0.295,1.602-0.885,2.192
		c-0.618,0.618-1.349,0.927-2.192,0.927c-2.782,0-6.928,0-12.437,0c-0.871,0-1.602-0.309-2.192-0.927
		c-0.618-0.59-0.927-1.321-0.927-2.192c0-2.08,0-5.2,0-9.359c0-1.715,0-3.851,0-6.408c0-2.614,0-5.649,0-9.106
		c0-0.843,0.309-1.574,0.927-2.192c0.59-0.59,1.321-0.885,2.192-0.885c2.754,0,6.9,0,12.437,0c0.843,0,1.574,0.295,2.192,0.885
		C347.83,243.673,348.125,244.404,348.125,245.247z M335.688,267.044c1.406,0,3.485,0,6.24,0c0-0.281,0-0.689,0-1.223
		c0-3.879,0-9.697,0-17.454c-1.377,0-3.457,0-6.24,0c0,2.08,0,5.186,0,9.317C335.688,259.764,335.688,262.884,335.688,267.044z"/>
</g>
<g>
	<path fill="#FFFFFF" d="M372.999,245.247c0,6.239,0,15.571,0,27.994c-1.377,0-3.443,0-6.197,0c0-5.537,0-13.828,0-24.874
		c-1.377,0-3.457,0-6.24,0c0,5.537,0,13.828,0,24.874c-1.377,0-3.443,0-6.197,0c0-3.457,0-7.771,0-12.943c0-5.172,0-11.215,0-18.129
		c1.377,0,3.443,0,6.197,0c2.08,0,5.2,0,9.36,0c0.843,0,1.574,0.295,2.192,0.885C372.704,243.673,372.999,244.404,372.999,245.247z"
		/>
</g>
<g>
	<path fill="#FFFFFF" d="M379.239,242.169c1.04,0,3.106,0,6.198,0c0,2.052,0,6.198,0,12.437c-1.012,0-3.078,0-6.198,0
		c0-1.04,0-2.6,0-4.68C379.239,247.875,379.239,245.289,379.239,242.169z"/>
</g>
<g>
	<path fill="#FFFFFF" d="M410.311,248.367c-3.091,0-5.158,0-6.197,0c0,12.451,0,20.743,0,24.874c-3.12,0-5.2,0-6.24,0
		c0-12.423,0-20.714,0-24.874c-3.092,0-5.158,0-6.198,0c0-1.546,0-2.839,0-3.879c0-1.04,0-1.813,0-2.319c9.332,0,15.543,0,18.635,0
		C410.311,244.924,410.311,246.989,410.311,248.367z"/>
</g>
<g>
	<path fill="#FFFFFF" d="M460.06,242.169c0,6.212,0,15.529,0,27.952c0,0.871-0.295,1.602-0.885,2.192
		c-0.618,0.618-1.349,0.927-2.192,0.927c-2.782,0-6.928,0-12.437,0c-0.871,0-1.602-0.309-2.192-0.927
		c-0.618-0.59-0.927-1.321-0.927-2.192c0-0.675,0-1.532,0-2.572c0-1.04,0-2.249,0-3.626c1.377,0,3.443,0,6.197,0
		c0,0.675,0,1.714,0,3.12c1.406,0,3.485,0,6.24,0c0-5.537,0-13.829,0-24.874C455.239,242.169,457.305,242.169,460.06,242.169z"/>
</g>
<g>
	<path fill="#FFFFFF" d="M484.934,242.169c0,6.212,0,15.529,0,27.952c0,0.871-0.295,1.602-0.885,2.192
		c-0.618,0.618-1.349,0.927-2.192,0.927c-2.783,0-6.928,0-12.437,0c-0.871,0-1.602-0.309-2.192-0.927
		c-0.618-0.59-0.927-1.321-0.927-2.192c0-3.091,0-6.97,0-11.636c0-4.666,0-10.104,0-16.316c1.377,0,3.443,0,6.198,0
		c0,5.509,0,13.8,0,24.874c1.405,0,3.485,0,6.24,0c0-5.537,0-13.829,0-24.874C480.113,242.169,482.179,242.169,484.934,242.169z"/>
</g>
<g>
	<path fill="#FFFFFF" d="M503.61,251.486c0-0.703,0-1.742,0-3.12c-1.377,0-3.457,0-6.239,0c0,1.377,0,3.457,0,6.239
		c2.08,0,5.2,0,9.359,0c0.843,0,1.574,0.295,2.192,0.885c0.59,0.618,0.885,1.349,0.885,2.192c0,2.782,0,6.928,0,12.437
		c0,0.871-0.295,1.602-0.885,2.192c-0.618,0.618-1.349,0.927-2.192,0.927c-2.782,0-6.928,0-12.437,0
		c-0.871,0-1.602-0.309-2.192-0.927c-0.618-0.59-0.927-1.321-0.927-2.192c0-1.377,0-3.443,0-6.197c1.377,0,3.443,0,6.198,0
		c0,0.675,0,1.714,0,3.12c1.405,0,3.485,0,6.239,0c0-1.406,0-3.485,0-6.24c-2.08,0-5.186,0-9.317,0
		c-0.871,0-1.602-0.295-2.192-0.885c-0.618-0.618-0.927-1.363-0.927-2.234c0-1.377,0-3.106,0-5.186c0-2.08,0-4.497,0-7.251
		c0-0.843,0.309-1.574,0.927-2.192c0.59-0.59,1.321-0.885,2.192-0.885c2.754,0,6.9,0,12.437,0c0.843,0,1.574,0.295,2.192,0.885
		c0.59,0.618,0.885,1.349,0.885,2.192c0,1.405,0,3.485,0,6.239C508.431,251.486,506.365,251.486,503.61,251.486z"/>
</g>
<g>
	<path fill="#FFFFFF" d="M534.682,248.367c-3.091,0-5.157,0-6.197,0c0,12.451,0,20.743,0,24.874c-3.12,0-5.2,0-6.24,0
		c0-12.423,0-20.714,0-24.874c-3.092,0-5.158,0-6.197,0c0-1.546,0-2.839,0-3.879c0-1.04,0-1.813,0-2.319c9.331,0,15.543,0,18.634,0
		C534.682,244.924,534.682,246.989,534.682,248.367z"/>
</g>
<g>
	<path fill="#FFFFFF" d="M565.796,242.169c1.04,0,3.106,0,6.197,0c0,3.879,0,11.65,0,23.314c0,1.293,0,3.879,0,7.757
		c-1.012,0-3.077,0-6.197,0c0-2.586,0-6.465,0-11.636S565.796,249.955,565.796,242.169z"/>
</g>
<g>
	<path fill="#FFFFFF" d="M590.67,251.486c0-0.703,0-1.742,0-3.12c-1.377,0-3.457,0-6.239,0c0,4.16,0,10.385,0,18.677
		c1.405,0,3.485,0,6.239,0c0-0.703,0-1.743,0-3.12c1.378,0,3.443,0,6.198,0c0,1.377,0,3.443,0,6.197
		c0,0.871-0.295,1.602-0.885,2.192c-0.618,0.618-1.349,0.927-2.192,0.927c-2.782,0-6.928,0-12.437,0
		c-0.871,0-1.602-0.309-2.192-0.927c-0.618-0.59-0.927-1.321-0.927-2.192c0-2.08,0-5.2,0-9.359c0-1.715,0-3.851,0-6.408
		c0-2.614,0-5.649,0-9.106c0-0.843,0.309-1.574,0.927-2.192c0.59-0.59,1.321-0.885,2.192-0.885c2.754,0,6.9,0,12.437,0
		c0.843,0,1.574,0.295,2.192,0.885c0.59,0.618,0.885,1.349,0.885,2.192c0,1.405,0,3.485,0,6.239
		C595.491,251.486,593.425,251.486,590.67,251.486z"/>
</g>
<g>
	<path fill="#FFFFFF" d="M621.742,245.247c0,5.537,0,13.828,0,24.874c0,0.871-0.295,1.602-0.885,2.192
		c-0.618,0.618-1.349,0.927-2.192,0.927c-2.782,0-6.928,0-12.437,0c-0.871,0-1.602-0.309-2.192-0.927
		c-0.618-0.59-0.927-1.321-0.927-2.192c0-2.08,0-5.2,0-9.359c0-1.715,0-3.851,0-6.408c0-2.614,0-5.649,0-9.106
		c0-0.843,0.309-1.574,0.927-2.192c0.59-0.59,1.321-0.885,2.192-0.885c2.754,0,6.9,0,12.437,0c0.843,0,1.574,0.295,2.192,0.885
		C621.447,243.673,621.742,244.404,621.742,245.247z M609.305,267.044c1.406,0,3.485,0,6.24,0c0-0.281,0-0.689,0-1.223
		c0-3.879,0-9.697,0-17.454c-1.377,0-3.457,0-6.24,0c0,2.08,0,5.186,0,9.317C609.305,259.764,609.305,262.884,609.305,267.044z"/>
</g>
<g>
	<path fill="#FFFFFF" d="M634.179,267.044c0,1.377,0,2.403,0,3.077c0,1.377,0,2.417,0,3.12c-2.754,2.754-4.82,4.82-6.198,6.198
		c0-1.718,0-3.008,0-3.879c1.349-1.152,2.234-1.925,2.656-2.319c-1.321,0-2.206,0-2.656,0c0-1.574,0-2.881,0-3.921
		c0-1.012,0-1.771,0-2.277C630.736,267.044,632.802,267.044,634.179,267.044z"/>
</g>
<g>
	<path fill="#FFFFFF" d="M399.212,379.326c0-0.538,0-1.335,0-2.389c-1.054,0-2.649,0-4.778,0c0,1.054,0,2.645,0,4.778
		c1.592,0,3.981,0,7.164,0c0.646,0,1.208,0.225,1.679,0.675c0.453,0.474,0.681,1.033,0.681,1.679c0,2.133,0,5.305,0,9.524
		c0,0.668-0.228,1.226-0.681,1.679c-0.471,0.471-1.033,0.71-1.679,0.71c-2.129,0-5.302,0-9.521,0c-0.668,0-1.23-0.239-1.676-0.71
		c-0.475-0.453-0.713-1.012-0.713-1.679c0-1.054,0-2.638,0-4.746c1.054,0,2.638,0,4.746,0c0,0.52,0,1.314,0,2.392
		c1.072,0,2.67,0,4.778,0c0-1.079,0-2.67,0-4.778c-1.592,0-3.97,0-7.136,0c-0.668,0-1.23-0.228-1.676-0.681
		c-0.475-0.471-0.713-1.044-0.713-1.711c0-1.054,0-2.375,0-3.97c0-1.588,0-3.44,0-5.551c0-0.65,0.239-1.208,0.713-1.679
		c0.446-0.45,1.008-0.678,1.676-0.678c2.111,0,5.284,0,9.521,0c0.646,0,1.208,0.228,1.679,0.678
		c0.453,0.471,0.681,1.029,0.681,1.679c0,1.075,0,2.667,0,4.778C402.901,379.326,401.32,379.326,399.212,379.326z"/>
</g>
<g>
	<path fill="#FFFFFF" d="M423.005,372.19c0,4.761,0,11.893,0,21.403c0,0.668-0.228,1.226-0.678,1.679
		c-0.475,0.471-1.03,0.71-1.683,0.71c-2.125,0-5.301,0-9.521,0c-0.667,0-1.226-0.239-1.676-0.71
		c-0.474-0.453-0.706-1.012-0.706-1.679c0-2.368,0-5.333,0-8.91c0-3.573,0-7.733,0-12.493c1.047,0,2.632,0,4.74,0
		c0,4.22,0,10.568,0,19.049c1.082,0,2.67,0,4.782,0c0-4.244,0-10.589,0-19.049C419.312,372.19,420.896,372.19,423.005,372.19z"/>
</g>
<g>
	<path fill="#FFFFFF" d="M439.7,384.069c0.643,0,1.202,0.239,1.676,0.713c0.453,0.45,0.675,1.012,0.675,1.679
		c0,1.592,0,3.97,0,7.132c0,0.668-0.221,1.226-0.675,1.679c-0.474,0.471-1.033,0.71-1.676,0.71c-1.599,0-3.988,0-7.174,0
		c-1.051,0-2.635,0-4.739,0c0-1.051,0-2.635,0-4.743c0-1.079,0-2.67,0-4.778c0-1.057,0-2.638,0-4.746c0-0.541,0-1.209,0-2.003
		c0-0.797,0-1.721,0-2.775c0-1.054,0-2.635,0-4.747c1.047,0,2.631,0,4.739,0c1.599,0,3.988,0,7.174,0
		c0.643,0,1.202,0.228,1.676,0.678c0.453,0.471,0.675,1.029,0.675,1.679c0,1.592,0,3.98,0,7.167c0,0.643-0.221,1.202-0.675,1.679
		C440.901,383.844,440.343,384.069,439.7,384.069z M432.525,381.715c1.082,0,2.67,0,4.782,0c0-0.2,0-0.478,0-0.843
		c0-0.882,0-2.192,0-3.935c-1.054,0-2.653,0-4.782,0C432.525,377.99,432.525,379.582,432.525,381.715z M432.525,391.239
		c1.082,0,2.67,0,4.782,0c0-0.193,0-0.474,0-0.84c0-0.885,0-2.196,0-3.938c-1.054,0-2.653,0-4.782,0
		C432.525,387.515,432.525,389.107,432.525,391.239z"/>
</g>
<g>
	<path fill="#FFFFFF" d="M456.353,379.326c0-0.538,0-1.335,0-2.389c-1.054,0-2.646,0-4.782,0c0,1.054,0,2.645,0,4.778
		c1.598,0,3.988,0,7.174,0c0.643,0,1.202,0.225,1.676,0.675c0.453,0.474,0.675,1.033,0.675,1.679c0,2.133,0,5.305,0,9.524
		c0,0.668-0.221,1.226-0.675,1.679c-0.474,0.471-1.033,0.71-1.676,0.71c-2.136,0-5.305,0-9.524,0c-0.668,0-1.226-0.239-1.683-0.71
		c-0.471-0.453-0.706-1.012-0.706-1.679c0-1.054,0-2.638,0-4.746c1.051,0,2.635,0,4.74,0c0,0.52,0,1.314,0,2.392
		c1.082,0,2.67,0,4.782,0c0-1.079,0-2.67,0-4.778c-1.595,0-3.97,0-7.132,0c-0.668,0-1.226-0.228-1.683-0.681
		c-0.471-0.471-0.706-1.044-0.706-1.711c0-1.054,0-2.375,0-3.97c0-1.588,0-3.44,0-5.551c0-0.65,0.235-1.208,0.706-1.679
		c0.457-0.45,1.015-0.678,1.683-0.678c2.104,0,5.284,0,9.524,0c0.643,0,1.202,0.228,1.676,0.678
		c0.453,0.471,0.675,1.029,0.675,1.679c0,1.075,0,2.667,0,4.778C460.045,379.326,458.468,379.326,456.353,379.326z"/>
</g>
<g>
	<path fill="#FFFFFF" d="M475.398,379.326c0-0.538,0-1.335,0-2.389c-1.051,0-2.642,0-4.774,0c0,3.186,0,7.954,0,14.302
		c1.075,0,2.667,0,4.774,0c0-0.541,0-1.335,0-2.392c1.058,0,2.638,0,4.747,0c0,1.057,0,2.639,0,4.746
		c0,0.668-0.222,1.226-0.678,1.679c-0.474,0.471-1.033,0.71-1.676,0.71c-2.136,0-5.305,0-9.525,0c-0.667,0-1.226-0.239-1.683-0.71
		c-0.474-0.453-0.706-1.012-0.706-1.679c0-1.588,0-3.98,0-7.167c0-1.311,0-2.948,0-4.912c0-1.996,0-4.321,0-6.967
		c0-0.65,0.232-1.208,0.706-1.679c0.457-0.45,1.016-0.678,1.683-0.678c2.105,0,5.284,0,9.525,0c0.643,0,1.202,0.228,1.676,0.678
		c0.457,0.471,0.678,1.029,0.678,1.679c0,1.075,0,2.667,0,4.778C479.095,379.326,477.513,379.326,475.398,379.326z"/>
</g>
<g>
	<path fill="#FFFFFF" d="M496.837,384.069c0.643,0,1.202,0.239,1.679,0.713c0.453,0.45,0.678,1.012,0.678,1.679
		c0,2.108,0,5.281,0,9.521c-1.054,0-2.635,0-4.746,0c0-2.108,0-5.284,0-9.521c-1.054,0-2.646,0-4.775,0c0,2.108,0,5.281,0,9.521
		c-1.057,0-2.638,0-4.75,0c0-2.108,0-5.284,0-9.521c0-1.057,0-2.638,0-4.746c0-1.058,0-2.382,0-3.97c0-1.595,0-3.443,0-5.555
		c1.057,0,2.638,0,4.75,0c1.588,0,3.977,0,7.164,0c0.643,0,1.202,0.228,1.679,0.678c0.453,0.471,0.678,1.029,0.678,1.679
		c0,1.592,0,3.98,0,7.167c0,0.643-0.225,1.202-0.678,1.679C498.038,383.844,497.48,384.069,496.837,384.069z M494.448,381.715
		c0-0.2,0-0.478,0-0.843c0-0.882,0-2.192,0-3.935c-1.054,0-2.646,0-4.775,0c0,1.054,0,2.645,0,4.778
		C490.745,381.715,492.336,381.715,494.448,381.715z"/>
</g>
<g>
	<path fill="#FFFFFF" d="M503.969,372.19c0.798,0,2.382,0,4.75,0c0,2.972,0,8.92,0,17.851c0,0.991,0,2.972,0,5.941
		c-0.773,0-2.354,0-4.75,0c0-1.982,0-4.95,0-8.906C503.969,383.113,503.969,378.152,503.969,372.19z"/>
</g>
<g>
	<path fill="#FFFFFF" d="M527.764,374.547c0,2.133,0,5.305,0,9.521c0,0.667-0.225,1.24-0.678,1.711
		c-0.474,0.453-1.033,0.681-1.676,0.681c-1.598,0-3.984,0-7.171,0c0,2.108,0,5.281,0,9.521c-1.054,0-2.635,0-4.743,0
		c0-1.051,0-2.378,0-3.97c0-1.57,0-3.418,0-5.551c0-1.057,0-2.638,0-4.746c0-1.075,0-2.674,0-4.778c0-1.054,0-2.635,0-4.747
		c1.051,0,2.631,0,4.743,0c1.595,0,3.981,0,7.171,0c0.643,0,1.202,0.228,1.676,0.678
		C527.54,373.339,527.764,373.897,527.764,374.547z M518.24,381.715c1.079,0,2.667,0,4.778,0c0-0.2,0-0.478,0-0.843
		c0-0.882,0-2.192,0-3.935c-1.054,0-2.649,0-4.778,0C518.24,377.99,518.24,379.582,518.24,381.715z"/>
</g>
<g>
	<path fill="#FFFFFF" d="M546.81,376.937c-2.368,0-3.952,0-4.746,0c0,9.535,0,15.88,0,19.046c-2.386,0-3.98,0-4.774,0
		c0-9.511,0-15.859,0-19.046c-2.368,0-3.953,0-4.747,0c0-1.184,0-2.175,0-2.969c0-0.801,0-1.392,0-1.778c7.143,0,11.9,0,14.268,0
		C546.81,374.301,546.81,375.883,546.81,376.937z"/>
</g>
<g>
	<path fill="#FFFFFF" d="M551.588,372.19c0.794,0,2.378,0,4.746,0c0,2.972,0,8.92,0,17.851c0,0.991,0,2.972,0,5.941
		c-0.776,0-2.357,0-4.746,0c0-1.982,0-4.95,0-8.906C551.588,383.113,551.588,378.152,551.588,372.19z"/>
</g>
<g>
	<path fill="#FFFFFF" d="M575.384,374.547c0,4.241,0,10.586,0,19.046c0,0.668-0.228,1.226-0.678,1.679
		c-0.478,0.471-1.04,0.71-1.683,0.71c-2.125,0-5.305,0-9.521,0c-0.668,0-1.226-0.239-1.679-0.71
		c-0.478-0.453-0.713-1.012-0.713-1.679c0-1.588,0-3.98,0-7.167c0-1.311,0-2.948,0-4.912c0-1.996,0-4.321,0-6.967
		c0-0.65,0.236-1.208,0.713-1.679c0.453-0.45,1.012-0.678,1.679-0.678c2.108,0,5.281,0,9.521,0c0.643,0,1.205,0.228,1.683,0.678
		C575.155,373.339,575.384,373.897,575.384,374.547z M565.856,391.239c1.079,0,2.67,0,4.778,0c0-0.218,0-0.527,0-0.938
		c0-2.972,0-7.424,0-13.365c-1.057,0-2.645,0-4.778,0c0,1.591,0,3.973,0,7.132C565.856,385.663,565.856,388.053,565.856,391.239z"/>
</g>
<g>
	<path fill="#FFFFFF" d="M594.43,374.547c0,4.778,0,11.924,0,21.435c-1.058,0-2.638,0-4.75,0c0-4.241,0-10.586,0-19.046
		c-1.054,0-2.646,0-4.775,0c0,4.237,0,10.589,0,19.046c-1.054,0-2.635,0-4.746,0c0-2.649,0-5.952,0-9.911s0-8.59,0-13.881
		c1.054,0,2.635,0,4.746,0c1.592,0,3.981,0,7.164,0c0.646,0,1.205,0.228,1.683,0.678C594.205,373.339,594.43,373.897,594.43,374.547
		z"/>
</g>
<g>
	<path fill="#FFFFFF" d="M608.729,379.326c0-0.538,0-1.335,0-2.389c-1.054,0-2.649,0-4.778,0c0,1.054,0,2.645,0,4.778
		c1.591,0,3.98,0,7.167,0c0.646,0,1.202,0.225,1.679,0.675c0.453,0.474,0.678,1.033,0.678,1.679c0,2.133,0,5.305,0,9.524
		c0,0.668-0.225,1.226-0.678,1.679c-0.478,0.471-1.033,0.71-1.679,0.71c-2.129,0-5.305,0-9.524,0c-0.668,0-1.226-0.239-1.676-0.71
		c-0.471-0.453-0.71-1.012-0.71-1.679c0-1.054,0-2.638,0-4.746c1.05,0,2.631,0,4.743,0c0,0.52,0,1.314,0,2.392
		c1.079,0,2.67,0,4.778,0c0-1.079,0-2.67,0-4.778c-1.592,0-3.974,0-7.136,0c-0.668,0-1.226-0.228-1.676-0.681
		c-0.471-0.471-0.71-1.044-0.71-1.711c0-1.054,0-2.375,0-3.97c0-1.588,0-3.44,0-5.551c0-0.65,0.239-1.208,0.71-1.679
		c0.45-0.45,1.008-0.678,1.676-0.678c2.111,0,5.287,0,9.524,0c0.646,0,1.202,0.228,1.679,0.678c0.453,0.471,0.678,1.029,0.678,1.679
		c0,1.075,0,2.667,0,4.778C612.418,379.326,610.837,379.326,608.729,379.326z"/>
</g>
<g>
	<path fill="#FFFFFF" d="M331.415,372.141c0,4.782,0,11.955,0,21.519c0,0.671-0.228,1.233-0.682,1.688
		c-0.477,0.476-1.038,0.714-1.688,0.714c-2.143,0-5.334,0-9.575,0c-0.671,0-1.233-0.238-1.688-0.714
		c-0.476-0.454-0.714-1.017-0.714-1.688c0-2.38,0-5.366,0-8.958s0-7.778,0-12.561c1.06,0,2.65,0,4.771,0c0,4.241,0,10.624,0,19.148
		c1.082,0,2.683,0,4.803,0c0-4.262,0-10.646,0-19.148C327.704,372.141,329.293,372.141,331.415,372.141z"/>
	<path fill="#FFFFFF" d="M345.792,379.313c0-0.541,0-1.342,0-2.402c-1.06,0-2.661,0-4.803,0c0,1.061,0,2.661,0,4.804
		c1.601,0,4.002,0,7.205,0c0.649,0,1.211,0.228,1.688,0.682c0.454,0.477,0.682,1.038,0.682,1.688c0,2.143,0,5.334,0,9.575
		c0,0.671-0.228,1.233-0.682,1.688c-0.477,0.476-1.038,0.714-1.688,0.714c-2.143,0-5.334,0-9.575,0
		c-0.671,0-1.233-0.238-1.688-0.714c-0.476-0.454-0.714-1.017-0.714-1.688c0-1.061,0-2.65,0-4.771c1.06,0,2.65,0,4.771,0
		c0,0.52,0,1.32,0,2.401c1.081,0,2.683,0,4.803,0c0-1.081,0-2.683,0-4.803c-1.602,0-3.992,0-7.173,0
		c-0.671,0-1.233-0.228-1.688-0.682c-0.476-0.476-0.714-1.05-0.714-1.721c0-1.06,0-2.391,0-3.992c0-1.601,0-3.462,0-5.582
		c0-0.649,0.238-1.212,0.714-1.688c0.454-0.455,1.017-0.682,1.688-0.682c2.121,0,5.313,0,9.575,0c0.649,0,1.211,0.227,1.688,0.682
		c0.454,0.476,0.682,1.038,0.682,1.688c0,1.082,0,2.683,0,4.804C349.503,379.313,347.914,379.313,345.792,379.313z"/>
	<path fill="#FFFFFF" d="M360.139,376.911c0,2.121,0,3.722,0,4.804c3.201,0,5.604,0,7.205,0c0,2.121,0,3.711,0,4.771
		c-3.203,0-5.604,0-7.205,0c0,2.12,0,3.722,0,4.803c4.262,0,7.453,0,9.574,0c0,2.121,0,3.712,0,4.771c-4.241,0-7.433,0-9.574,0
		c-2.121,0-3.712,0-4.771,0c0-1.06,0-1.99,0-2.791s0-1.461,0-1.98c0-2.401,0-4.002,0-4.803c0-2.402,0-3.992,0-4.771
		c0-2.401,0-4.003,0-4.804c0-2.38,0-3.97,0-4.771c2.401,0,3.992,0,4.771,0c4.803,0,7.994,0,9.574,0c0,2.38,0,3.971,0,4.771
		C365.472,376.911,362.281,376.911,360.139,376.911z"/>
</g>
<g>
	<path fill="none" stroke="#FFFFFF" stroke-width="0.25" stroke-miterlimit="10" d="M446.178,488.14
		c0.274,0,0.512,0.101,0.713,0.302c0.191,0.191,0.288,0.43,0.288,0.713c0,0.676,0,1.686,0,3.028c0,0.284-0.097,0.521-0.288,0.713
		c-0.201,0.201-0.438,0.302-0.713,0.302c-0.676,0-1.69,0-3.043,0c-0.447,0-1.119,0-2.015,0c0-0.447,0-1.119,0-2.015
		c0-0.457,0-1.133,0-2.028c0-0.448,0-1.12,0-2.016c0-0.228,0-0.512,0-0.85s0-0.73,0-1.179c0-0.447,0-1.119,0-2.015
		c0.447,0,1.119,0,2.015,0c0.677,0,1.69,0,3.043,0c0.274,0,0.512,0.096,0.713,0.288c0.191,0.2,0.288,0.438,0.288,0.712
		c0,0.677,0,1.691,0,3.043c0,0.274-0.097,0.512-0.288,0.713C446.689,488.044,446.452,488.14,446.178,488.14z M443.135,487.139
		c0.457,0,1.133,0,2.028,0c0-0.082,0-0.2,0-0.356c0-0.374,0-0.932,0-1.672c-0.447,0-1.123,0-2.028,0
		C443.135,485.559,443.135,486.234,443.135,487.139z M443.135,491.183c0.457,0,1.133,0,2.028,0c0-0.082,0-0.201,0-0.356
		c0-0.375,0-0.933,0-1.672c-0.447,0-1.123,0-2.028,0C443.135,489.602,443.135,490.277,443.135,491.183z"/>
	<path fill="none" stroke="#FFFFFF" stroke-width="0.25" stroke-miterlimit="10" d="M451.222,485.11c0,0.896,0,1.572,0,2.028
		c1.353,0,2.367,0,3.043,0c0,0.896,0,1.567,0,2.016c-1.353,0-2.366,0-3.043,0c0,0.896,0,1.571,0,2.028c1.8,0,3.148,0,4.044,0
		c0,0.896,0,1.567,0,2.015c-1.791,0-3.139,0-4.044,0c-0.896,0-1.567,0-2.015,0c0-0.447,0-0.841,0-1.179s0-0.617,0-0.836
		c0-1.015,0-1.69,0-2.028c0-1.015,0-1.687,0-2.016c0-1.014,0-1.69,0-2.028c0-1.005,0-1.677,0-2.015c1.015,0,1.686,0,2.015,0
		c2.028,0,3.377,0,4.044,0c0,1.005,0,1.677,0,2.015C453.475,485.11,452.127,485.11,451.222,485.11z"/>
	<path fill="none" stroke="#FFFFFF" stroke-width="0.25" stroke-miterlimit="10" d="M471.439,491.183c0,1.005,0,1.677,0,2.015
		c-2.02,0-3.367,0-4.044,0c-0.749,0-1.252,0-1.508,0s-0.425,0-0.507,0c0-2.531,0-4.638,0-6.318c0-1.682,0-2.942,0-3.783
		c1.015,0,1.686,0,2.015,0c0,4.039,0,6.734,0,8.087C469.195,491.183,470.544,491.183,471.439,491.183z"/>
	<path fill="none" stroke="#FFFFFF" stroke-width="0.25" stroke-miterlimit="10" d="M475.482,485.11c0,0.896,0,1.572,0,2.028
		c1.353,0,2.367,0,3.043,0c0,0.896,0,1.567,0,2.016c-1.353,0-2.366,0-3.043,0c0,0.896,0,1.571,0,2.028c1.8,0,3.148,0,4.044,0
		c0,0.896,0,1.567,0,2.015c-1.791,0-3.139,0-4.044,0c-0.896,0-1.567,0-2.015,0c0-0.447,0-0.841,0-1.179s0-0.617,0-0.836
		c0-1.015,0-1.69,0-2.028c0-1.015,0-1.687,0-2.016c0-1.014,0-1.69,0-2.028c0-1.005,0-1.677,0-2.015c1.015,0,1.686,0,2.015,0
		c2.028,0,3.377,0,4.044,0c0,1.005,0,1.677,0,2.015C477.735,485.11,476.388,485.11,475.482,485.11z"/>
	<path fill="none" stroke="#FFFFFF" stroke-width="0.25" stroke-miterlimit="10" d="M483.569,485.11c0,0.896,0,1.572,0,2.028
		c1.353,0,2.367,0,3.043,0c0,0.896,0,1.567,0,2.016c-1.353,0-2.366,0-3.043,0c0,0.896,0,1.571,0,2.028c1.8,0,3.148,0,4.044,0
		c0,0.896,0,1.567,0,2.015c-1.791,0-3.139,0-4.044,0c-0.896,0-1.567,0-2.015,0c0-0.447,0-0.841,0-1.179s0-0.617,0-0.836
		c0-1.015,0-1.69,0-2.028c0-1.015,0-1.687,0-2.016c0-1.014,0-1.69,0-2.028c0-1.005,0-1.677,0-2.015c1.015,0,1.686,0,2.015,0
		c2.028,0,3.377,0,4.044,0c0,1.005,0,1.677,0,2.015C485.822,485.11,484.475,485.11,483.569,485.11z"/>
	<path fill="none" stroke="#FFFFFF" stroke-width="0.25" stroke-miterlimit="10" d="M495.7,485.11c-1.006,0-1.677,0-2.016,0
		c0,4.048,0,6.744,0,8.087c-1.014,0-1.69,0-2.028,0c0-4.039,0-6.734,0-8.087c-1.005,0-1.677,0-2.015,0c0-0.502,0-0.923,0-1.261
		s0-0.59,0-0.754c3.033,0,5.053,0,6.059,0C495.7,483.991,495.7,484.663,495.7,485.11z"/>
</g>
<g>
	<g>
		<g>
			<g>
				<path fill="#0DFFF8" d="M404.872,154.702c0.372,0,0.696,0.141,0.97,0.411c0.26,0.26,0.387,0.583,0.387,0.966
					c0,0.917,0,2.291,0,4.111c0,0.386-0.127,0.71-0.387,0.97c-0.274,0.274-0.597,0.408-0.97,0.408c-0.917,0-2.294,0-4.132,0
					c-0.604,0-1.518,0-2.733,0c0-0.608,0-1.518,0-2.733c0-0.622,0-1.535,0-2.754c0-0.608,0-1.518,0-2.733c0-0.313,0-0.695,0-1.152
					c0-0.46,0-0.991,0-1.602c0-0.604,0-1.518,0-2.733c0.608,0,1.518,0,2.733,0c0.92,0,2.294,0,4.132,0c0.372,0,0.696,0.13,0.97,0.39
					c0.26,0.271,0.387,0.594,0.387,0.966c0,0.921,0,2.298,0,4.132c0,0.369-0.127,0.692-0.387,0.966
					C405.568,154.572,405.244,154.702,404.872,154.702z M400.741,153.345c0.622,0,1.539,0,2.754,0c0-0.112,0-0.274,0-0.485
					c0-0.509,0-1.265,0-2.27c-0.604,0-1.525,0-2.754,0C400.741,151.202,400.741,152.116,400.741,153.345z M400.741,158.833
					c0.622,0,1.539,0,2.754,0c0-0.116,0-0.274,0-0.485c0-0.506,0-1.265,0-2.27c-0.604,0-1.525,0-2.754,0
					C400.741,156.687,400.741,157.604,400.741,158.833z"/>
			</g>
		</g>
	</g>
	<g>
		<g>
			<g>
				<path fill="#0DFFF8" d="M411.72,150.591c0,1.216,0,2.133,0,2.754c1.834,0,3.211,0,4.128,0c0,1.216,0,2.126,0,2.733
					c-1.837,0-3.211,0-4.128,0c0,1.219,0,2.133,0,2.754c2.442,0,4.272,0,5.488,0c0,1.216,0,2.126,0,2.733c-2.431,0-4.261,0-5.488,0
					c-1.216,0-2.129,0-2.737,0c0-0.608,0-1.142,0-1.598c0-0.461,0-0.84,0-1.135c0-1.377,0-2.294,0-2.754c0-1.377,0-2.287,0-2.733
					c0-1.377,0-2.294,0-2.754c0-1.367,0-2.277,0-2.733c1.377,0,2.291,0,2.737,0c2.751,0,4.582,0,5.488,0c0,1.363,0,2.277,0,2.733
					C414.776,150.591,412.946,150.591,411.72,150.591z"/>
			</g>
		</g>
	</g>
</g>
</svg>
