<?xml version="1.0" encoding="utf-8"?>
<!-- Generator: Adobe Illustrator 21.0.2, SVG Export Plug-In . SVG Version: 6.00 Build 0)  -->
<svg version="1.1" id="Layer_1" xmlns="http://www.w3.org/2000/svg" xmlns:xlink="http://www.w3.org/1999/xlink" x="0px" y="0px"
	 viewBox="0 0 841.89 595.28" enable-background="new 0 0 841.89 595.28" xml:space="preserve">
<g id="Layer_63">
	<g>
		<g>
			<polygon fill="#793DF4" points="658.782,413.655 455.626,530.946 252.475,413.655 252.475,179.074 455.626,61.783 
				658.782,179.074 			"/>
		</g>
	</g>
</g>
<g>
	<g>
		<g>
			<path fill="#FFFFFF" d="M350.237,342.918h-22.479v-72.047h-9.034v-22.477h20.213c3.114,0,5.817,1.072,8.04,3.191
				c2.19,2.291,3.261,4.954,3.261,7.986V342.918z M332.29,338.386h13.42v-78.816c0-1.854-0.634-3.418-1.94-4.786
				c-1.289-1.228-2.892-1.861-4.832-1.861h-15.681v13.423h9.034V338.386z"/>
		</g>
	</g>
	<g>
		<g>
			<path fill="#FFFFFF" d="M411.106,342.918h-36.024c-3.153,0-5.841-1.142-7.986-3.39c-2.173-2.072-3.315-4.757-3.315-7.914v-18.016
				h22.479v6.84h13.544v-13.545h-18.076v-22.479h18.076v-13.545H386.26v6.715h-22.479v-18.015c0-3.053,1.124-5.727,3.35-7.95
				c2.141-2.142,4.818-3.227,7.95-3.227h36.024c3.032,0,5.695,1.072,7.914,3.191c2.191,2.291,3.261,4.954,3.261,7.986v27.111
				c0,3.035-1.07,5.695-3.189,7.914c-0.397,0.376-0.802,0.723-1.221,1.038c0.408,0.315,0.802,0.662,1.185,1.045
				c2.144,2.141,3.225,4.818,3.225,7.95v26.985c0,3.135-1.081,5.809-3.221,7.953C416.836,341.79,414.159,342.918,411.106,342.918z
				 M368.31,318.127v13.487c0,1.897,0.651,3.44,1.987,4.714c1.349,1.41,2.892,2.058,4.785,2.058h36.024
				c1.833,0,3.386-0.659,4.746-2.022c1.281-1.278,1.901-2.831,1.901-4.75v-26.985c0-1.915-0.619-3.472-1.901-4.747
				c-1.36-1.363-2.917-2.026-4.746-2.026v-4.528c1.854,0,3.418-0.633,4.786-1.936c1.228-1.288,1.861-2.856,1.861-4.71v-27.111
				c0-1.854-0.633-3.418-1.936-4.786c-1.289-1.228-2.856-1.861-4.71-1.861h-36.024c-1.915,0-3.469,0.623-4.746,1.901
				c-1.364,1.36-2.026,2.914-2.026,4.746v13.491h13.419v-6.715h22.604v22.601H386.26v13.42h18.073v22.601h-22.604v-6.84H368.31z"/>
		</g>
	</g>
	<g>
		<g>
			<path fill="#FFFFFF" d="M483.149,342.918h-36.023c-3.157,0-5.841-1.142-7.989-3.39c-2.173-2.072-3.311-4.757-3.311-7.914v-18.016
				h22.479v6.84h13.545v-13.545h-18.072v-22.479h18.072v-13.545h-13.545v6.715h-22.479v-18.015c0-3.053,1.127-5.727,3.35-7.95
				c2.14-2.142,4.818-3.227,7.95-3.227h36.023c3.032,0,5.695,1.072,7.914,3.191c2.191,2.291,3.264,4.954,3.264,7.986v27.111
				c0,3.035-1.074,5.695-3.189,7.914c-0.401,0.376-0.805,0.723-1.224,1.038c0.408,0.315,0.806,0.662,1.185,1.045
				c2.144,2.141,3.228,4.818,3.228,7.95v26.985c0,3.135-1.085,5.809-3.228,7.953C488.88,341.79,486.202,342.918,483.149,342.918z
				 M440.357,318.127v13.487c0,1.897,0.648,3.44,1.983,4.714c1.353,1.41,2.892,2.058,4.786,2.058h36.023
				c1.836,0,3.386-0.659,4.75-2.022c1.278-1.278,1.901-2.831,1.901-4.75v-26.985c0-1.915-0.623-3.472-1.901-4.747
				c-1.363-1.363-2.917-2.026-4.75-2.026v-4.528c1.854,0,3.418-0.633,4.786-1.936c1.228-1.288,1.865-2.856,1.865-4.71v-27.111
				c0-1.854-0.637-3.418-1.94-4.786c-1.289-1.228-2.856-1.861-4.711-1.861h-36.023c-1.915,0-3.465,0.623-4.746,1.901
				c-1.36,1.36-2.023,2.914-2.023,4.746v13.491h13.42v-6.715h22.601v22.601h-18.073v13.42h18.073v22.601h-22.601v-6.84H440.357z"/>
		</g>
	</g>
	<g>
		<g>
			<path fill="#FFFFFF" d="M530.981,342.918h-24.143l1.185-3.078c12.746-33.138,21.591-56.129,26.531-68.969h-26.685v-22.477h59.537
				l-1.185,3.076c-15.388,39.972-26.946,69.971-34.681,89.998L530.981,342.918z M513.431,338.386h14.443
				c7.524-19.483,18.498-47.968,32.934-85.463H512.4v13.423h28.75l-1.185,3.075C535.459,281.122,526.614,304.113,513.431,338.386z"
				/>
		</g>
	</g>
</g>
<g>
	<g>
		<g>
			<g>
				<g>
					<polygon fill="#0DFFF8" points="332.279,274.794 334.487,274.794 334.487,338.361 335.228,338.361 335.228,274.056 
						332.279,274.056 					"/>
				</g>
			</g>
		</g>
		<g>
			<g>
				<g>
					<path fill="#0DFFF8" d="M350.502,258.772c-1.858-1.768-4.12-2.667-6.73-2.667h-18.319v18.688h2.295v-0.737h-1.557v-17.21
						h17.582c2.413,0,4.507,0.827,6.203,2.448c1.639,1.711,2.463,3.765,2.463,6.092V346.1h-17.21v-3.207h-0.741v3.945h18.692v-81.45
						C353.179,262.86,352.281,260.641,350.502,258.772z"/>
				</g>
			</g>
		</g>
	</g>
	<g>
		<g>
			<g>
				<g>
					<polygon fill="#0DFFF8" points="370.514,277.561 370.514,281.509 389.203,281.509 389.203,274.794 406.535,274.794 
						406.535,292.129 388.462,292.129 388.462,310.814 406.535,310.814 406.535,328.153 389.203,328.153 389.203,324.953 
						388.462,324.953 388.462,328.886 407.272,328.886 407.272,310.08 389.203,310.08 389.203,292.867 407.272,292.867 
						407.272,274.056 388.462,274.056 388.462,280.772 371.252,280.772 371.252,277.561 					"/>
				</g>
			</g>
		</g>
		<g>
			<g>
				<g>
					<path fill="#0DFFF8" d="M425.223,292.498v-27.111c0-2.527-0.898-4.746-2.681-6.615c-1.851-1.768-4.074-2.667-6.601-2.667
						h-36.023c-2.613,0-4.839,0.898-6.611,2.674c-1.854,1.854-2.792,4.077-2.792,6.608v7.646h0.737v-7.646
						c0-2.327,0.866-4.374,2.577-6.085c1.632-1.632,3.676-2.455,6.089-2.455h36.023c2.33,0,4.381,0.827,6.082,2.448
						c1.632,1.711,2.462,3.765,2.462,6.092v27.111c0,2.334-0.83,4.385-2.448,6.082c-1.715,1.636-3.766,2.462-6.096,2.462v0.737
						c2.327,0,4.374,0.87,6.085,2.581c1.633,1.629,2.459,3.676,2.459,6.089v26.985c0,2.409-0.827,4.46-2.459,6.089
						c-1.711,1.711-3.758,2.577-6.085,2.577h-36.023c-2.409,0-4.457-0.862-6.096-2.584c-1.707-1.629-2.57-3.676-2.57-6.082V322.05
						h10.477v-0.737h-11.215v16.122c0,2.617,0.938,4.843,2.789,6.604c1.772,1.861,3.995,2.799,6.615,2.799h36.023
						c2.531,0,4.757-0.938,6.611-2.792c1.772-1.772,2.67-3.999,2.67-6.612v-26.985c0-2.613-0.898-4.839-2.67-6.611
						c-1.178-1.178-2.502-1.983-3.959-2.419c1.457-0.415,2.781-1.188,3.963-2.316C424.324,297.252,425.223,295.028,425.223,292.498z
						"/>
				</g>
			</g>
		</g>
	</g>
	<g>
		<g>
			<g>
				<g>
					<path fill="#0DFFF8" d="M497.266,292.498v-27.111c0-2.527-0.898-4.746-2.678-6.615c-1.854-1.768-4.077-2.667-6.607-2.667
						h-36.02c-2.613,0-4.836,0.898-6.611,2.674c-1.854,1.854-2.796,4.077-2.796,6.608v16.122h18.689v-6.715h10.917v-0.737h-11.655
						v6.715h-17.21v-15.385c0-2.327,0.866-4.374,2.577-6.085c1.629-1.632,3.68-2.455,6.089-2.455h36.02
						c2.334,0,4.385,0.827,6.085,2.448c1.633,1.711,2.463,3.765,2.463,6.092v27.111c0,2.334-0.83,4.385-2.452,6.082
						c-1.711,1.636-3.762,2.462-6.096,2.462v0.737c2.33,0,4.377,0.87,6.092,2.581c1.629,1.629,2.456,3.676,2.456,6.089v26.985
						c0,2.409-0.827,4.46-2.456,6.089c-1.711,1.711-3.758,2.577-6.092,2.577h-36.02c-2.405,0-4.453-0.862-6.095-2.584
						c-1.704-1.629-2.57-3.676-2.57-6.082V322.05h10.749v-0.737h-11.49v16.122c0,2.617,0.945,4.843,2.792,6.604
						c1.772,1.861,3.999,2.799,6.615,2.799h36.02c2.534,0,4.757-0.938,6.611-2.792c1.772-1.772,2.674-3.995,2.674-6.612v-26.985
						c0-2.613-0.902-4.839-2.674-6.611c-1.174-1.178-2.502-1.983-3.955-2.419c1.453-0.415,2.781-1.188,3.966-2.316
						C496.368,297.252,497.266,295.028,497.266,292.498z"/>
				</g>
			</g>
		</g>
		<g>
			<g>
				<g>
					<polygon fill="#0DFFF8" points="476.055,274.056 476.055,274.794 478.578,274.794 478.578,292.129 460.505,292.129 
						460.505,302.649 461.243,302.649 461.243,292.867 479.315,292.867 479.315,274.056 					"/>
				</g>
			</g>
		</g>
		<g>
			<g>
				<g>
					<polygon fill="#0DFFF8" points="460.505,306.554 460.505,310.814 478.578,310.814 478.578,328.153 461.243,328.153 
						461.243,324.656 460.505,324.656 460.505,328.886 479.315,328.886 479.315,310.08 461.243,310.08 461.243,306.554 					"/>
				</g>
			</g>
		</g>
	</g>
	<g>
		<g>
			<g>
				<g>
					<path fill="#0DFFF8" d="M515.339,274.056v-3.196h-0.741v3.934h27.551c-4.335,11.264-12.5,32.48-24.458,63.568h0.791
						c12.081-31.41,20.277-52.704,24.551-63.804l0.194-0.501H515.339z"/>
				</g>
			</g>
		</g>
		<g>
			<g>
				<g>
					<path fill="#0DFFF8" d="M514.598,256.106v10.226h0.741v-9.486h53.069c-15.231,39.56-26.696,69.316-34.395,89.254h-18.509
						c0.415-1.081,0.83-2.151,1.239-3.207h-0.791c-0.437,1.138-0.88,2.284-1.324,3.444l-0.193,0.501h20.081l0.093-0.233
						c7.735-20.027,19.293-50.026,34.678-89.998l0.193-0.501H514.598z"/>
				</g>
			</g>
		</g>
	</g>
</g>
<g>
	<g>
		<g>
			<rect x="320.13" y="369.051" fill="#0DFFF8" width="261.583" height="0.849"/>
		</g>
	</g>
</g>
<g>
	<g>
		<g>
			
				<rect x="516.21" y="290.381" transform="matrix(0.389 -0.9212 0.9212 0.389 83.8127 707.98)" fill="#0DFFF8" width="118.859" height="0.849"/>
		</g>
	</g>
</g>
<g>
	<g>
		<g>
			<polygon fill="#0DFFF8" points="306.066,404.681 305.784,276.892 306.632,276.892 306.918,404.678 			"/>
		</g>
	</g>
</g>
<g>
	<g>
		<g>
			
				<rect x="531.582" y="316.32" transform="matrix(0.3877 -0.9218 0.9218 0.3877 57.7174 722.9265)" fill="#FFFFFF" width="82.869" height="3.397"/>
		</g>
	</g>
</g>
<g>
	<g>
		<g>
			<rect x="294.65" y="240.708" fill="#FFFFFF" width="3.397" height="95.413"/>
		</g>
	</g>
</g>
<g>
	<g>
		<g>
			<rect x="348.714" y="177.083" fill="#FFFFFF" width="3.397" height="54.063"/>
		</g>
	</g>
</g>
<g>
	<g>
		<g>
			<g>
				
					<rect x="611.269" y="314.266" transform="matrix(0.087 -0.9962 0.9962 0.087 248.6818 900.5222)" fill="#FFFFFF" width="8.69" height="0.658"/>
			</g>
		</g>
	</g>
	<g>
		<g>
			<g>
				
					<rect x="602.976" y="300.923" transform="matrix(0.0867 -0.9962 0.9962 0.0867 256.5508 882.3652)" fill="#FFFFFF" width="13.129" height="0.66"/>
			</g>
		</g>
	</g>
	<g>
		<g>
			<g>
				<polygon fill="#FFFFFF" points="609.575,309.59 609.282,312.937 607.932,312.822 608.222,309.475 				"/>
			</g>
		</g>
	</g>
	<g>
		<g>
			<g>
				<polygon fill="#FFFFFF" points="615.377,322.361 615.087,325.712 613.738,325.597 614.028,322.247 				"/>
			</g>
		</g>
	</g>
	<g>
		<g>
			<g>
				<path fill="#FFFFFF" d="M617.446,296.65l-5.602-10.216l-6.586,8.437l-5.988-10.935l0.172-0.218l13.509-17.3l11.59,21.155
					L617.446,296.65z M611.97,284.895l5.598,10.219l5.96-7.624l-10.699-19.533l-12.549,16.061l5.104,9.31L611.97,284.895z"/>
			</g>
		</g>
	</g>
	<g>
		<g>
			<g>
				<path fill="#FFFFFF" d="M614.726,267.424l-1.629-2.975l-1.919,2.456l-2.058-3.758l4.389-5.613l3.687,6.73L614.726,267.424z
					 M613.223,262.91l1.629,2.978l1.331-1.704l-2.799-5.112l-3.25,4.156l1.17,2.137L613.223,262.91z"/>
			</g>
		</g>
	</g>
	<g>
		<g>
			<g>
				<polygon fill="#0DFFF8" points="612.17,282.644 615.32,288.364 618.968,283.678 612.711,272.288 605.373,281.702 
					608.487,287.372 				"/>
			</g>
		</g>
	</g>
</g>
<g>
	<g>
		<g>
			<path fill="#0DFFF8" d="M311.794,212.721c0.924,0,1.722,0.34,2.402,1.017c0.648,0.648,0.97,1.448,0.97,2.404
				c0,2.28,0,5.682,0,10.21c0,0.956-0.322,1.756-0.97,2.404c-0.68,0.678-1.478,1.016-2.402,1.016c-2.28,0-5.699,0-10.259,0
				c-1.507,0-3.773,0-6.794,0c0-1.51,0-3.775,0-6.792c0-1.541,0-3.819,0-6.838c0-1.511,0-3.775,0-6.794c0-0.769,0-1.723,0-2.863
				c0-1.14,0-2.465,0-3.975c0-1.509,0-3.773,0-6.792c1.514,0,3.773,0,6.794,0c2.28,0,5.699,0,10.259,0
				c0.924,0,1.722,0.324,2.402,0.97c0.648,0.678,0.97,1.48,0.97,2.404c0,2.28,0,5.7,0,10.257c0,0.924-0.322,1.727-0.97,2.404
				C313.516,212.397,312.717,212.721,311.794,212.721z M301.535,209.347c1.539,0,3.819,0,6.837,0c0-0.277,0-0.676,0-1.201
				c0-1.262,0-3.141,0-5.638c-1.507,0-3.787,0-6.837,0C301.535,204.019,301.535,206.298,301.535,209.347z M301.535,222.98
				c1.539,0,3.819,0,6.837,0c0-0.279,0-0.678,0-1.203c0-1.262,0-3.141,0-5.635c-1.507,0-3.787,0-6.837,0
				C301.535,217.65,301.535,219.928,301.535,222.98z"/>
		</g>
	</g>
	<g>
		<g>
			<path fill="#0DFFF8" d="M328.8,202.509c0,3.019,0,5.299,0,6.838c4.556,0,7.975,0,10.255,0c0,3.02,0,5.283,0,6.794
				c-4.56,0-7.978,0-10.255,0c0,3.019,0,5.298,0,6.838c6.064,0,10.609,0,13.63,0c0,3.017,0,5.281,0,6.792c-6.038,0-10.585,0-13.63,0
				c-3.021,0-5.283,0-6.797,0c0-1.51,0-2.835,0-3.975c0-1.14,0-2.078,0-2.817c0-3.42,0-5.7,0-6.838c0-3.421,0-5.684,0-6.794
				c0-3.418,0-5.699,0-6.838c0-3.388,0-5.652,0-6.792c3.422,0,5.688,0,6.797,0c6.833,0,11.379,0,13.63,0c0,3.388,0,5.654,0,6.792
				C336.392,202.509,331.846,202.509,328.8,202.509z"/>
		</g>
	</g>
</g>
<g>
	<g>
		<g>
			<g>
				<path fill="#FFFFFF" d="M609.199,361.123l-6.805-9.457l-5.509,9.174l-7.277-10.119l11.444-19.057l14.082,19.583L609.199,361.123
					z M602.331,350.12l6.804,9.46l4.983-8.294l-13.001-18.08l-10.491,17.471l6.196,8.619L602.331,350.12z"/>
			</g>
		</g>
	</g>
	<g>
		<g>
			<g>
				<polygon fill="#0DFFF8" points="602.255,347.861 606.078,353.155 609.131,348.058 601.525,337.52 595.397,347.761 
					599.177,353.005 				"/>
			</g>
		</g>
	</g>
</g>
<g>
	<g>
		<g>
			<polyline fill="#0DFFF8" points="598.028,367.076 602.792,359.38 607.374,367.333 			"/>
		</g>
	</g>
</g>
<g>
	<g>
		<g>
			<rect x="593.835" y="366.913" fill="#0DFFF8" width="18.608" height="2.772"/>
		</g>
	</g>
</g>
<g id="Layer_63_1_">
	<g>
		<path fill="#0DFFF8" d="M454.71,517.72l-0.687-0.394l-191.01-110.282V185.685L454.71,75.009l191.701,110.676v221.358
			L454.71,517.72z M265.762,405.455L454.71,514.549l188.952-109.094V187.271L454.71,78.184L265.762,187.271V405.455z"/>
	</g>
</g>
<g>
	<g>
		<g>
			<g>
				<path fill="#FFFFFF" d="M462.292,453.53l-8.562-12.557l-7.488,11.787l-9.07-13.308l0.168-0.269l15.291-24.075l17.636,25.865
					L462.292,453.53z M453.701,439.223l8.562,12.556l6.851-10.788l-16.454-24.133l-14.336,22.576l7.889,11.576L453.701,439.223z"/>
			</g>
		</g>
	</g>
	<g>
		<g>
			<g>
				<polygon fill="#0DFFF8" points="453.672,436.141 458.483,443.171 462.632,436.621 453.064,422.629 444.731,435.783 
					449.488,442.749 				"/>
			</g>
		</g>
	</g>
</g>
<g>
	<g>
		<g>
			<rect x="426.895" y="464.58" fill="#0DFFF8" width="55.281" height="3.529"/>
		</g>
	</g>
</g>
<g>
	<g>
		<g>
			<polyline fill="#0DFFF8" points="448.063,464.794 454.266,454.743 460.255,465.117 			"/>
		</g>
	</g>
</g>
<g>
	<path fill="#FFFFFF" d="M484.57,106.952c-1.278,2.223-3.193,5.545-5.738,9.965c-0.49-0.283-1.224-0.705-2.205-1.269
		c1.135-1.969,2.835-4.922,5.101-8.854c-0.254-0.145-0.623-0.358-1.113-0.641c0.14-0.24,0.315-0.546,0.53-0.915
		c0.211-0.371,0.458-0.802,0.744-1.292c0.487,0.283,1.221,0.705,2.205,1.271c0.304,0.179,0.516,0.435,0.612,0.773
		C484.788,106.333,484.746,106.653,484.57,106.952z"/>
	<path fill="#FFFFFF" d="M489.778,115.848c0.301,0.174,0.498,0.433,0.591,0.78c0.089,0.331,0.043,0.65-0.133,0.96
		c-0.429,0.743-1.067,1.847-1.911,3.32c-0.179,0.308-0.433,0.508-0.766,0.598c-0.347,0.093-0.666,0.054-0.967-0.12
		c-0.991-0.569-2.466-1.419-4.428-2.55c-0.312-0.177-0.508-0.438-0.591-0.779c-0.1-0.336-0.064-0.66,0.118-0.972
		c0.122-0.209,0.272-0.474,0.458-0.794c0.186-0.331,0.408-0.711,0.655-1.14c0.494,0.283,1.224,0.705,2.205,1.271
		c-0.107,0.191-0.268,0.471-0.483,0.841c0.497,0.286,1.238,0.714,2.223,1.28c0.29-0.501,0.716-1.24,1.282-2.223
		c-0.494-0.281-1.232-0.707-2.223-1.276c0.283-0.492,0.705-1.228,1.271-2.207c0.497,0.284,1.238,0.712,2.223,1.276
		c0.29-0.499,0.716-1.239,1.278-2.219c-0.491-0.284-1.232-0.71-2.223-1.28c-0.111,0.19-0.268,0.465-0.476,0.825
		c-0.487-0.283-1.224-0.705-2.205-1.271c0.247-0.431,0.619-1.075,1.113-1.936c0.175-0.301,0.433-0.497,0.784-0.59
		c0.329-0.089,0.651-0.043,0.963,0.134c0.977,0.566,2.455,1.416,4.424,2.55c0.304,0.174,0.501,0.428,0.598,0.764
		c0.086,0.342,0.039,0.662-0.136,0.961c-0.426,0.741-1.063,1.852-1.919,3.333c-0.172,0.301-0.426,0.501-0.762,0.6
		C490.401,116.067,490.079,116.022,489.778,115.848z"/>
	<path fill="#FFFFFF" d="M498.637,120.949c0.301,0.174,0.494,0.433,0.587,0.78c0.089,0.331,0.047,0.65-0.133,0.961
		c-0.426,0.739-1.063,1.844-1.911,3.316c-0.179,0.31-0.433,0.51-0.766,0.6c-0.347,0.093-0.666,0.055-0.967-0.12
		c-0.991-0.569-2.466-1.421-4.428-2.549c-0.312-0.181-0.512-0.44-0.59-0.78c-0.101-0.336-0.061-0.66,0.118-0.97
		c0.122-0.211,0.276-0.476,0.458-0.796c0.19-0.33,0.412-0.711,0.655-1.14c0.494,0.283,1.224,0.705,2.208,1.271
		c-0.107,0.19-0.272,0.471-0.483,0.841c0.497,0.286,1.238,0.714,2.219,1.278c0.286-0.499,0.716-1.24,1.281-2.219
		c-0.49-0.285-1.232-0.711-2.223-1.282c0.283-0.489,0.705-1.224,1.271-2.205c0.497,0.286,1.239,0.712,2.219,1.28
		c0.29-0.501,0.716-1.242,1.281-2.221c-0.491-0.284-1.232-0.71-2.219-1.28c-0.111,0.192-0.268,0.464-0.476,0.825
		c-0.494-0.283-1.228-0.707-2.208-1.271c0.251-0.431,0.619-1.075,1.117-1.938c0.172-0.299,0.433-0.494,0.78-0.589
		c0.329-0.089,0.651-0.045,0.959,0.136c0.981,0.564,2.455,1.414,4.431,2.549c0.297,0.174,0.497,0.428,0.598,0.764
		c0.082,0.342,0.036,0.66-0.136,0.961c-0.426,0.741-1.067,1.851-1.919,3.333c-0.172,0.299-0.43,0.501-0.766,0.6
		C499.257,121.168,498.938,121.123,498.637,120.949z"/>
	<path fill="#FFFFFF" d="M511.767,121.157c-4.718,3.823-8.265,6.694-10.627,8.607c-1.056-0.605-1.847-1.061-2.373-1.365
		c4.249-3.444,7.084-5.74,8.505-6.892c-1.7-0.981-2.838-1.634-3.408-1.962c0.315-0.551,0.583-1.011,0.798-1.38
		c0.211-0.371,0.369-0.648,0.476-0.827c2.141,1.233,3.565,2.054,4.274,2.463c0.211,0.122,0.347,0.201,0.419,0.242
		C510.693,120.537,511.337,120.91,511.767,121.157z"/>
	<path fill="#FFFFFF" d="M514.255,137.318c-0.49-0.283-1.228-0.705-2.205-1.269c0.566-0.983,1.414-2.455,2.549-4.428
		c-0.49-0.281-1.231-0.711-2.219-1.28c-0.566,0.981-1.417,2.459-2.549,4.426c-0.494-0.281-1.227-0.703-2.208-1.269
		c0.479-0.831,1.199-2.082,2.162-3.751c0.397-0.692,0.891-1.552,1.486-2.583c0.598-1.039,1.296-2.251,2.09-3.631
		c0.176-0.301,0.433-0.497,0.78-0.59c0.333-0.091,0.651-0.045,0.963,0.134c0.977,0.564,2.455,1.416,4.424,2.55
		c0.304,0.172,0.501,0.428,0.602,0.764c0.083,0.342,0.036,0.662-0.136,0.961C518.715,129.576,516.799,132.897,514.255,137.318z
		 M515.869,129.415c0.05-0.091,0.125-0.22,0.222-0.39c0.24-0.412,0.591-1.02,1.056-1.831c-0.49-0.283-1.228-0.709-2.219-1.28
		c-0.283,0.492-0.709,1.232-1.281,2.221C514.147,128.423,514.888,128.849,515.869,129.415z"/>
	<path fill="#FFFFFF" d="M524.377,140.214c-0.562,0.981-0.985,1.716-1.267,2.205c-2.209-1.271-3.687-2.123-4.428-2.549
		c-0.82-0.472-1.368-0.791-1.65-0.95c-0.279-0.161-0.466-0.269-0.555-0.322c1.593-2.771,2.921-5.076,3.984-6.917
		c1.06-1.84,1.854-3.221,2.384-4.143c1.109,0.641,1.847,1.063,2.205,1.271c-2.545,4.424-4.245,7.375-5.097,8.855
		C521.925,138.798,523.4,139.648,524.377,140.214z"/>
	<path fill="#FFFFFF" d="M533.236,145.313c-0.566,0.981-0.988,1.716-1.271,2.205c-2.209-1.271-3.683-2.121-4.424-2.547
		c-0.824-0.474-1.371-0.79-1.654-0.95c-0.279-0.163-0.462-0.269-0.555-0.32c1.597-2.771,2.925-5.079,3.984-6.919
		c1.06-1.842,1.858-3.221,2.388-4.143c1.109,0.641,1.84,1.063,2.205,1.273c-2.549,4.422-4.245,7.374-5.101,8.855
		C530.781,143.899,532.255,144.749,533.236,145.313z"/>
	<path fill="#FFFFFF" d="M540.556,137.739c0.372,0.213,1.106,0.637,2.209,1.273c-0.795,1.38-2.391,4.147-4.779,8.301
		c-0.265,0.458-0.795,1.38-1.589,2.758c-0.362-0.206-1.096-0.63-2.209-1.271c0.709-1.23,1.593-2.765,2.653-4.607
		C537.904,142.351,539.142,140.2,540.556,137.739z"/>
	<path fill="#FFFFFF" d="M545.249,155.169c-0.487-0.281-1.224-0.703-2.201-1.269c0.562-0.979,1.41-2.455,2.548-4.426
		c-0.494-0.283-1.235-0.709-2.223-1.281c-0.565,0.982-1.417,2.459-2.548,4.428c-0.491-0.283-1.228-0.705-2.209-1.269
		c0.476-0.831,1.199-2.082,2.162-3.753c0.397-0.691,0.891-1.55,1.486-2.583c0.601-1.04,1.296-2.25,2.09-3.63
		c0.175-0.302,0.433-0.497,0.784-0.59c0.33-0.089,0.652-0.047,0.963,0.134c0.977,0.564,2.452,1.414,4.424,2.549
		c0.304,0.176,0.501,0.428,0.597,0.764c0.086,0.342,0.04,0.662-0.136,0.961C549.709,147.426,547.797,150.748,545.249,155.169z
		 M546.863,147.267c0.054-0.089,0.129-0.218,0.226-0.39c0.24-0.41,0.59-1.02,1.056-1.831c-0.49-0.283-1.231-0.709-2.223-1.28
		c-0.283,0.49-0.709,1.23-1.281,2.221C545.141,146.274,545.883,146.7,546.863,147.267z"/>
	<path fill="#FFFFFF" d="M559.846,150.306c-1.278,2.219-3.193,5.545-5.738,9.965c-0.49-0.283-1.228-0.705-2.205-1.269
		c1.135-1.972,2.835-4.924,5.097-8.855c-0.49-0.283-1.232-0.709-2.223-1.278c-1.135,1.97-2.831,4.922-5.097,8.852
		c-0.49-0.281-1.224-0.703-2.208-1.271c0.708-1.23,1.593-2.765,2.652-4.607c1.063-1.842,2.302-3.993,3.719-6.454
		c0.49,0.283,1.224,0.705,2.205,1.273c0.741,0.424,1.854,1.063,3.336,1.917c0.297,0.174,0.497,0.43,0.594,0.764
		C560.064,149.687,560.018,150.004,559.846,150.306z"/>
	<path fill="#FFFFFF" d="M565.219,156.359c0.143-0.253,0.354-0.621,0.637-1.111c-0.49-0.285-1.232-0.711-2.219-1.28
		c-0.852,1.48-2.13,3.698-3.83,6.649c0.497,0.286,1.239,0.714,2.219,1.28c0.143-0.25,0.358-0.621,0.641-1.111
		c0.487,0.283,1.224,0.705,2.208,1.271c-0.286,0.489-0.709,1.224-1.274,2.205c-0.179,0.311-0.433,0.512-0.766,0.601
		c-0.344,0.091-0.666,0.052-0.967-0.122c-0.988-0.569-2.466-1.419-4.428-2.547c-0.312-0.181-0.508-0.442-0.591-0.782
		c-0.1-0.336-0.061-0.661,0.118-0.972c0.426-0.739,1.067-1.849,1.918-3.331c0.351-0.61,0.791-1.371,1.314-2.282
		c0.537-0.929,1.16-2.01,1.869-3.241c0.172-0.301,0.433-0.497,0.78-0.59c0.329-0.089,0.648-0.043,0.963,0.136
		c0.98,0.564,2.455,1.414,4.424,2.549c0.304,0.174,0.501,0.428,0.602,0.766c0.082,0.34,0.039,0.66-0.136,0.959
		c-0.286,0.5-0.712,1.242-1.278,2.223C566.933,157.345,566.199,156.923,565.219,156.359z"/>
	<path fill="#FFFFFF" d="M572.492,159.068c-0.566,0.981-0.991,1.722-1.281,2.221c1.482,0.854,2.591,1.493,3.329,1.918
		c-0.562,0.981-0.984,1.715-1.267,2.207c-1.478-0.852-2.588-1.494-3.329-1.92c-0.569,0.982-0.995,1.722-1.281,2.223
		c1.969,1.133,3.447,1.983,4.424,2.549c-0.566,0.981-0.988,1.716-1.267,2.205c-1.958-1.127-3.436-1.979-4.428-2.549
		c-0.981-0.564-1.714-0.988-2.205-1.269c0.566-0.983,0.988-1.716,1.27-2.207c0.287-0.501,0.537-0.936,0.752-1.305
		c0.211-0.371,0.39-0.677,0.526-0.916c0.641-1.111,1.063-1.847,1.271-2.207c0.641-1.111,1.067-1.851,1.281-2.221
		c0.63-1.101,1.056-1.836,1.267-2.207c1.113,0.641,1.847,1.061,2.208,1.271c2.223,1.28,3.698,2.13,4.421,2.55
		c-0.63,1.099-1.056,1.835-1.267,2.207C574.958,160.488,573.48,159.638,572.492,159.068z"/>
	<path fill="#FFFFFF" d="M574.844,170.356c0.208-0.358,0.365-0.628,0.469-0.809c1.109,0.639,1.843,1.061,2.205,1.271
		c-0.63,1.101-1.056,1.835-1.267,2.205c-1.103-0.636-1.84-1.058-2.208-1.271C574.364,171.194,574.633,170.727,574.844,170.356z"/>
	<path fill="#FFFFFF" d="M590.84,168.157c-1.131,1.972-2.835,4.922-5.097,8.854c-0.179,0.311-0.437,0.512-0.766,0.603
		c-0.351,0.091-0.666,0.054-0.97-0.122c-0.988-0.569-2.466-1.421-4.424-2.549c-0.315-0.181-0.512-0.44-0.594-0.78
		c-0.097-0.336-0.061-0.661,0.122-0.97c0.426-0.741,1.067-1.852,1.918-3.333c0.351-0.61,0.788-1.371,1.314-2.282
		c0.533-0.931,1.156-2.012,1.865-3.243c0.176-0.299,0.433-0.494,0.784-0.589c0.329-0.089,0.648-0.045,0.959,0.136
		c0.985,0.564,2.455,1.414,4.428,2.549c0.301,0.174,0.498,0.428,0.598,0.766C591.059,167.538,591.016,167.856,590.84,168.157z
		 M581.945,173.368c0.498,0.286,1.239,0.714,2.223,1.28c0.057-0.1,0.14-0.245,0.25-0.437c0.791-1.382,1.987-3.452,3.576-6.214
		c-0.487-0.283-1.228-0.709-2.219-1.278c-0.426,0.741-1.063,1.847-1.911,3.316C583.438,170.775,582.797,171.888,581.945,173.368z"/>
	<path fill="#FFFFFF" d="M596.052,177.054c0.304,0.175,0.497,0.435,0.59,0.782c0.089,0.331,0.043,0.651-0.136,0.961
		c-0.562,0.981-1.414,2.455-2.549,4.428c-0.487-0.283-1.224-0.705-2.205-1.273c0.566-0.979,1.414-2.455,2.549-4.426
		c-0.487-0.283-1.227-0.709-2.219-1.278c-0.562,0.979-1.414,2.455-2.549,4.426c-0.494-0.285-1.228-0.707-2.208-1.271
		c0.566-0.979,1.414-2.455,2.552-4.428c0.279-0.489,0.705-1.224,1.267-2.207c0.283-0.489,0.641-1.104,1.067-1.845
		c0.426-0.739,0.92-1.6,1.486-2.581c0.487,0.281,1.224,0.705,2.208,1.271c0.741,0.426,1.847,1.065,3.329,1.917
		c0.304,0.175,0.501,0.429,0.598,0.766c0.086,0.344,0.036,0.661-0.136,0.963c-0.426,0.739-1.067,1.849-1.918,3.333
		c-0.172,0.297-0.423,0.499-0.762,0.598C596.675,177.272,596.356,177.229,596.052,177.054z M595.572,175.319
		c0.054-0.089,0.129-0.218,0.225-0.39c0.236-0.41,0.587-1.02,1.056-1.831c-0.49-0.281-1.231-0.709-2.223-1.278
		c-0.279,0.49-0.705,1.229-1.278,2.221C593.851,174.329,594.592,174.755,595.572,175.319z"/>
	<path fill="#FFFFFF" d="M605.072,179.308c0.143-0.249,0.354-0.619,0.637-1.109c-0.494-0.283-1.231-0.709-2.219-1.28
		c-0.856,1.482-2.13,3.698-3.83,6.649c0.498,0.288,1.239,0.714,2.219,1.28c0.286-0.501,0.716-1.242,1.281-2.221
		c-0.254-0.143-0.619-0.356-1.113-0.641c0.283-0.49,0.705-1.226,1.271-2.207c0.741,0.428,1.847,1.065,3.315,1.91
		c-0.283,0.494-0.705,1.228-1.271,2.207c-0.426,0.743-1.063,1.847-1.908,3.32c-0.182,0.31-0.433,0.51-0.766,0.598
		c-0.347,0.093-0.666,0.054-0.97-0.12c-0.988-0.571-2.463-1.419-4.424-2.55c-0.311-0.179-0.512-0.438-0.594-0.779
		c-0.1-0.336-0.057-0.66,0.122-0.972c0.426-0.739,1.067-1.849,1.919-3.331c0.351-0.61,0.791-1.371,1.314-2.282
		c0.537-0.929,1.16-2.01,1.868-3.241c0.172-0.301,0.43-0.498,0.78-0.591c0.33-0.091,0.651-0.045,0.959,0.134
		c0.981,0.566,2.456,1.414,4.424,2.55c0.304,0.172,0.505,0.428,0.605,0.764c0.082,0.342,0.036,0.662-0.14,0.961
		c-0.286,0.5-0.712,1.242-1.278,2.223C606.783,180.298,606.049,179.876,605.072,179.308z"/>
</g>
<g>
	<path fill="#FFFFFF" d="M392.299,176.261c0,4.795,0,11.964,0,21.509c-1.056,0-2.645,0-4.761,0c0-4.254,0-10.625,0-19.112
		c-1.056,0-2.656,0-4.793,0c0,4.254,0,10.626,0,19.112c-1.059,0-2.645,0-4.764,0c0-4.254,0-10.625,0-19.112
		c-1.056,0-2.656,0-4.793,0c0,4.254,0,10.626,0,19.112c-1.059,0-2.645,0-4.764,0c0-1.793,0-4.492,0-8.098c0-1.489,0-3.347,0-5.571
		c0-2.246,0-4.859,0-7.839c0-0.648,0.236-1.21,0.713-1.684c0.458-0.455,1.02-0.68,1.689-0.68c1.575,0,3.959,0,7.155,0
		c0.67,0,1.232,0.225,1.686,0.68c0.476,0.474,0.712,1.036,0.712,1.684c0-0.648,0.226-1.21,0.68-1.684
		c0.476-0.455,1.038-0.68,1.686-0.68c1.597,0,3.995,0,7.191,0c0.648,0,1.21,0.225,1.682,0.68
		C392.074,175.051,392.299,175.613,392.299,176.261z"/>
	<path fill="#FFFFFF" d="M411.413,197.769c-1.059,0-2.645,0-4.764,0c0-2.117,0-5.301,0-9.555c-1.056,0-2.656,0-4.793,0
		c0,2.116,0,5.301,0,9.555c-1.059,0-2.645,0-4.761,0c0-1.793,0-4.492,0-8.098c0-1.489,0-3.347,0-5.571c0-2.246,0-4.859,0-7.839
		c0-0.648,0.236-1.21,0.712-1.684c0.454-0.455,1.013-0.68,1.682-0.68c2.119,0,5.305,0,9.557,0c0.648,0,1.21,0.225,1.686,0.68
		c0.451,0.474,0.68,1.036,0.68,1.684C411.413,181.055,411.413,188.225,411.413,197.769z M406.649,183.452c0-0.195,0-0.474,0-0.843
		c0-0.884,0-2.201,0-3.952c-1.056,0-2.656,0-4.793,0c0,1.06,0,2.656,0,4.795C402.937,183.452,404.534,183.452,406.649,183.452z"/>
	<path fill="#FFFFFF" d="M430.524,185.816c0,2.656,0,6.64,0,11.953c-1.06,0-2.645,0-4.761,0c0-2.117,0-5.301,0-9.555
		c-1.06,0-2.656,0-4.796,0c0,2.116,0,5.301,0,9.555c-1.056,0-2.645,0-4.76,0c0-2.656,0-5.972,0-9.945c0-3.973,0-8.616,0-13.928
		c1.059,0,2.645,0,4.76,0c0,2.115,0,5.301,0,9.555c0.24,0,0.584,0,1.038,0c0.862-2.139,2.158-5.323,3.887-9.555
		c1.189,0,2.982,0,5.376,0c-0.991,2.115-2.484,5.301-4.471,9.555c0.304,0,0.759,0,1.364,0c0.644,0,1.206,0.227,1.682,0.68
		C430.299,184.608,430.524,185.168,430.524,185.816z"/>
	<path fill="#FFFFFF" d="M440.826,178.657c0,2.117,0,3.716,0,4.795c3.196,0,5.591,0,7.191,0c0,2.117,0,3.703,0,4.762
		c-3.197,0-5.595,0-7.191,0c0,2.116,0,3.714,0,4.793c4.252,0,7.438,0,9.557,0c0,2.117,0,3.705,0,4.762c-4.235,0-7.42,0-9.557,0
		c-2.116,0-3.705,0-4.761,0c0-1.057,0-1.986,0-2.786c0-0.798,0-1.457,0-1.976c0-2.396,0-3.995,0-4.793c0-2.398,0-3.986,0-4.762
		c0-2.396,0-3.995,0-4.795c0-2.375,0-3.963,0-4.761c2.395,0,3.984,0,4.761,0c4.793,0,7.978,0,9.557,0c0,2.375,0,3.962,0,4.761
		C446.148,178.657,442.963,178.657,440.826,178.657z"/>
	<path fill="#FFFFFF" d="M379.714,218.734c0.648,0,1.206,0.238,1.682,0.714c0.454,0.453,0.68,1.015,0.68,1.684
		c0,2.115,0,5.301,0,9.555c-1.056,0-2.645,0-4.761,0c0-2.115,0-5.301,0-9.555c-1.06,0-2.656,0-4.793,0c0,2.115,0,5.301,0,9.555
		c-1.06,0-2.649,0-4.764,0c0-2.115,0-5.301,0-9.555c0-1.06,0-2.645,0-4.762c0-1.058,0-2.386,0-3.984c0-1.598,0-3.456,0-5.571
		c1.059,0,2.645,0,4.764,0c1.596,0,3.994,0,7.191,0c0.648,0,1.206,0.225,1.682,0.68c0.454,0.474,0.68,1.036,0.68,1.684
		c0,1.598,0,3.995,0,7.191c0,0.648-0.225,1.21-0.68,1.684C380.92,218.509,380.362,218.734,379.714,218.734z M377.315,216.37
		c0-0.194,0-0.474,0-0.841c0-0.886,0-2.203,0-3.954c-1.06,0-2.656,0-4.793,0c0,1.06,0,2.658,0,4.795
		C373.6,216.37,375.2,216.37,377.315,216.37z"/>
	<path fill="#FFFFFF" d="M391.633,211.575c0,2.117,0,3.716,0,4.795c3.196,0,5.591,0,7.191,0c0,2.117,0,3.703,0,4.762
		c-3.197,0-5.595,0-7.191,0c0,2.115,0,3.714,0,4.793c4.252,0,7.438,0,9.553,0c0,2.117,0,3.705,0,4.762c-4.231,0-7.416,0-9.553,0
		c-2.116,0-3.705,0-4.761,0c0-1.058,0-1.987,0-2.785c0-0.8,0-1.458,0-1.977c0-2.396,0-3.995,0-4.793c0-2.398,0-3.986,0-4.762
		c0-2.397,0-3.995,0-4.795c0-2.375,0-3.962,0-4.761c2.394,0,3.984,0,4.761,0c4.793,0,7.978,0,9.553,0c0,2.375,0,3.963,0,4.761
		C396.956,211.575,393.77,211.575,391.633,211.575z"/>
	<path fill="#FFFFFF" d="M420.301,230.688c-1.059,0-2.645,0-4.761,0c0-2.115,0-5.301,0-9.555c-1.059,0-2.66,0-4.796,0
		c0,2.115,0,5.301,0,9.555c-1.056,0-2.645,0-4.761,0c0-1.792,0-4.492,0-8.099c0-1.489,0-3.347,0-5.571c0-2.246,0-4.859,0-7.839
		c0-0.648,0.236-1.21,0.712-1.684c0.455-0.455,1.013-0.68,1.686-0.68c2.115,0,5.301,0,9.553,0c0.648,0,1.21,0.225,1.686,0.68
		c0.451,0.474,0.68,1.036,0.68,1.684C420.301,213.974,420.301,221.143,420.301,230.688z M415.54,216.37c0-0.194,0-0.474,0-0.841
		c0-0.886,0-2.203,0-3.954c-1.059,0-2.66,0-4.796,0c0,1.06,0,2.658,0,4.795C411.825,216.37,413.421,216.37,415.54,216.37z"/>
	<path fill="#FFFFFF" d="M439.412,225.926c0,2.377,0,3.964,0,4.762c-4.771,0-7.957,0-9.553,0c-1.772,0-2.961,0-3.565,0
		c-0.605,0-1.002,0-1.199,0c0-5.981,0-10.96,0-14.933c0-3.973,0-6.953,0-8.94c2.398,0,3.984,0,4.764,0c0,9.545,0,15.916,0,19.111
		C434.111,225.926,437.296,225.926,439.412,225.926z"/>
	<path fill="#FFFFFF" d="M464.3,218.734c0.648,0,1.21,0.238,1.682,0.714c0.455,0.453,0.68,1.015,0.68,1.684c0,2.115,0,5.301,0,9.555
		c-1.056,0-2.645,0-4.761,0c0-2.115,0-5.301,0-9.555c-1.06,0-2.656,0-4.793,0c0,2.115,0,5.301,0,9.555c-1.059,0-2.645,0-4.764,0
		c0-2.115,0-5.301,0-9.555c0-1.06,0-2.645,0-4.762c0-1.058,0-2.386,0-3.984c0-1.598,0-3.456,0-5.571c1.06,0,2.645,0,4.764,0
		c1.597,0,3.995,0,7.191,0c0.648,0,1.21,0.225,1.682,0.68c0.455,0.474,0.68,1.036,0.68,1.684c0,1.598,0,3.995,0,7.191
		c0,0.648-0.225,1.21-0.68,1.684C465.509,218.509,464.948,218.734,464.3,218.734z M461.902,216.37c0-0.194,0-0.474,0-0.841
		c0-0.886,0-2.203,0-3.954c-1.06,0-2.656,0-4.793,0c0,1.06,0,2.658,0,4.795C458.186,216.37,459.786,216.37,461.902,216.37z"/>
	<path fill="#FFFFFF" d="M476.219,211.575c0,2.117,0,3.716,0,4.795c3.196,0,5.595,0,7.191,0c0,2.117,0,3.703,0,4.762
		c-3.197,0-5.595,0-7.191,0c0,2.115,0,3.714,0,4.793c4.256,0,7.438,0,9.557,0c0,2.117,0,3.705,0,4.762c-4.235,0-7.42,0-9.557,0
		c-2.115,0-3.705,0-4.761,0c0-1.058,0-1.987,0-2.785c0-0.8,0-1.458,0-1.977c0-2.396,0-3.995,0-4.793c0-2.398,0-3.986,0-4.762
		c0-2.397,0-3.995,0-4.795c0-2.375,0-3.962,0-4.761c2.395,0,3.984,0,4.761,0c4.793,0,7.979,0,9.557,0c0,2.375,0,3.963,0,4.761
		C481.542,211.575,478.356,211.575,476.219,211.575z"/>
	<path fill="#FFFFFF" d="M489.921,206.815c0.884,0,2.667,0,5.344,0c0.605,2.873,1.804,8.637,3.597,17.298
		c0.605-2.873,1.8-8.639,3.594-17.298c0.888,0,2.667,0,5.348,0c-1.081,3.973-3.264,11.93-6.547,23.873c-0.798,0-2.395,0-4.793,0
		C495.383,226.715,493.204,218.756,489.921,206.815z"/>
	<path fill="#FFFFFF" d="M516.678,211.575c0,2.117,0,3.716,0,4.795c3.197,0,5.595,0,7.191,0c0,2.117,0,3.703,0,4.762
		c-3.197,0-5.591,0-7.191,0c0,2.115,0,3.714,0,4.793c4.256,0,7.442,0,9.557,0c0,2.117,0,3.705,0,4.762c-4.235,0-7.42,0-9.557,0
		c-2.116,0-3.705,0-4.761,0c0-1.058,0-1.987,0-2.785c0-0.8,0-1.458,0-1.977c0-2.396,0-3.995,0-4.793c0-2.398,0-3.986,0-4.762
		c0-2.397,0-3.995,0-4.795c0-2.375,0-3.962,0-4.761c2.395,0,3.984,0,4.761,0c4.793,0,7.978,0,9.557,0c0,2.375,0,3.963,0,4.761
		C522,211.575,518.815,211.575,516.678,211.575z"/>
	<path fill="#FFFFFF" d="M545.346,209.179c0,4.795,0,11.964,0,21.509c-1.06,0-2.645,0-4.761,0c0-4.254,0-10.626,0-19.113
		c-1.059,0-2.656,0-4.796,0c0,4.254,0,10.626,0,19.113c-1.056,0-2.645,0-4.761,0c0-2.656,0-5.97,0-9.944c0-3.975,0-8.618,0-13.929
		c1.06,0,2.645,0,4.761,0c1.6,0,3.994,0,7.191,0c0.648,0,1.21,0.225,1.686,0.68C545.12,207.969,545.346,208.531,545.346,209.179z"/>
	<path fill="#FFFFFF" d="M564.456,206.815c0,4.772,0,11.93,0,21.477c0,0.669-0.225,1.229-0.68,1.684
		c-0.472,0.474-1.034,0.712-1.682,0.712c-2.141,0-5.322,0-9.557,0c-0.669,0-1.231-0.238-1.686-0.712
		c-0.472-0.455-0.712-1.015-0.712-1.684c0-2.377,0-5.357,0-8.942c0-3.585,0-7.764,0-12.535c1.06,0,2.645,0,4.764,0
		c0,4.233,0,10.602,0,19.111c1.077,0,2.678,0,4.793,0c0-4.254,0-10.624,0-19.111C560.755,206.815,562.341,206.815,564.456,206.815z"
		/>
	<path fill="#FFFFFF" d="M574.013,211.575c0,2.117,0,3.716,0,4.795c3.196,0,5.594,0,7.191,0c0,2.117,0,3.703,0,4.762
		c-3.197,0-5.591,0-7.191,0c0,2.115,0,3.714,0,4.793c4.256,0,7.438,0,9.557,0c0,2.117,0,3.705,0,4.762c-4.235,0-7.42,0-9.557,0
		c-2.116,0-3.705,0-4.761,0c0-1.058,0-1.987,0-2.785c0-0.8,0-1.458,0-1.977c0-2.396,0-3.995,0-4.793c0-2.398,0-3.986,0-4.762
		c0-2.397,0-3.995,0-4.795c0-2.375,0-3.962,0-4.761c2.395,0,3.984,0,4.761,0c4.793,0,7.978,0,9.557,0c0,2.375,0,3.963,0,4.761
		C579.336,211.575,576.15,211.575,574.013,211.575z"/>
	<path fill="#FFFFFF" d="M593.124,225.926c0,1.059,0,1.847,0,2.366c0,1.058,0,1.856,0,2.396c-2.115,2.115-3.701,3.703-4.761,4.761
		c0-1.317,0-2.309,0-2.978c1.038-0.886,1.718-1.48,2.04-1.782c-1.013,0-1.693,0-2.04,0c0-1.21,0-2.214,0-3.012
		c0-0.779,0-1.362,0-1.75C590.479,225.926,592.068,225.926,593.124,225.926z"/>
</g>
<g>
	<path fill="#FFFFFF" d="M334.319,377.796c0,4.721,0,11.805,0,21.251c0,0.662-0.225,1.217-0.673,1.668
		c-0.469,0.469-1.027,0.705-1.668,0.705c-2.116,0-5.266,0-9.453,0c-0.666,0-1.221-0.236-1.668-0.705
		c-0.472-0.451-0.705-1.006-0.705-1.668c0-2.352,0-5.301,0-8.848c0-3.547,0-7.681,0-12.403c1.045,0,2.617,0,4.711,0
		c0,4.188,0,10.491,0,18.91c1.07,0,2.652,0,4.746,0c0-4.209,0-10.513,0-18.91C330.654,377.796,332.225,377.796,334.319,377.796z"/>
	<path fill="#FFFFFF" d="M348.519,384.88c0-0.533,0-1.324,0-2.373c-1.045,0-2.627,0-4.743,0c0,1.049,0,2.631,0,4.746
		c1.579,0,3.952,0,7.116,0c0.641,0,1.196,0.222,1.664,0.673c0.451,0.469,0.673,1.024,0.673,1.664c0,2.116,0,5.269,0,9.457
		c0,0.662-0.222,1.217-0.673,1.668c-0.469,0.469-1.024,0.705-1.664,0.705c-2.115,0-5.269,0-9.457,0
		c-0.662,0-1.217-0.236-1.668-0.705c-0.469-0.451-0.705-1.006-0.705-1.668c0-1.045,0-2.616,0-4.71c1.049,0,2.62,0,4.714,0
		c0,0.512,0,1.303,0,2.369c1.067,0,2.649,0,4.743,0c0-1.067,0-2.649,0-4.743c-1.582,0-3.941,0-7.084,0
		c-0.662,0-1.217-0.225-1.668-0.673c-0.469-0.469-0.705-1.038-0.705-1.7c0-1.045,0-2.359,0-3.941c0-1.582,0-3.418,0-5.512
		c0-0.641,0.236-1.199,0.705-1.668c0.451-0.448,1.006-0.673,1.668-0.673c2.094,0,5.248,0,9.457,0c0.641,0,1.196,0.225,1.664,0.673
		c0.451,0.469,0.673,1.027,0.673,1.668c0,1.067,0,2.649,0,4.743C352.184,384.88,350.613,384.88,348.519,384.88z"/>
	<path fill="#FFFFFF" d="M362.686,382.507c0,2.094,0,3.676,0,4.746c3.164,0,5.534,0,7.116,0c0,2.094,0,3.662,0,4.711
		c-3.161,0-5.534,0-7.116,0c0,2.094,0,3.676,0,4.743c4.209,0,7.363,0,9.457,0c0,2.094,0,3.665,0,4.714c-4.188,0-7.342,0-9.457,0
		c-2.094,0-3.665,0-4.711,0c0-1.049,0-1.969,0-2.756c0-0.791,0-1.442,0-1.958c0-2.369,0-3.952,0-4.743c0-2.373,0-3.941,0-4.711
		c0-2.373,0-3.955,0-4.746c0-2.348,0-3.919,0-4.71c2.37,0,3.941,0,4.711,0c4.746,0,7.896,0,9.457,0c0,2.352,0,3.919,0,4.71
		C367.955,382.507,364.802,382.507,362.686,382.507z"/>
	<path fill="#FFFFFF" d="M405.253,384.88c0-0.533,0-1.324,0-2.373c-1.045,0-2.627,0-4.743,0c0,1.049,0,2.631,0,4.746
		c1.582,0,3.955,0,7.116,0c0.641,0,1.196,0.222,1.668,0.673c0.448,0.469,0.673,1.024,0.673,1.664c0,2.116,0,5.269,0,9.457
		c0,0.662-0.225,1.217-0.673,1.668c-0.472,0.469-1.027,0.705-1.668,0.705c-2.115,0-5.269,0-9.457,0
		c-0.662,0-1.217-0.236-1.664-0.705c-0.473-0.451-0.705-1.006-0.705-1.668c0-1.045,0-2.616,0-4.71c1.045,0,2.616,0,4.71,0
		c0,0.512,0,1.303,0,2.369c1.07,0,2.649,0,4.743,0c0-1.067,0-2.649,0-4.743c-1.579,0-3.941,0-7.084,0
		c-0.662,0-1.217-0.225-1.664-0.673c-0.473-0.469-0.705-1.038-0.705-1.7c0-1.045,0-2.359,0-3.941c0-1.582,0-3.418,0-5.512
		c0-0.641,0.232-1.199,0.705-1.668c0.447-0.448,1.002-0.673,1.664-0.673c2.094,0,5.247,0,9.457,0c0.641,0,1.196,0.225,1.668,0.673
		c0.448,0.469,0.673,1.027,0.673,1.668c0,1.067,0,2.649,0,4.743C408.919,384.88,407.347,384.88,405.253,384.88z"/>
	<path fill="#FFFFFF" d="M428.878,377.796c0,4.721,0,11.805,0,21.251c0,0.662-0.222,1.217-0.673,1.668
		c-0.469,0.469-1.024,0.705-1.664,0.705c-2.116,0-5.269,0-9.457,0c-0.662,0-1.221-0.236-1.668-0.705
		c-0.469-0.451-0.705-1.006-0.705-1.668c0-2.352,0-5.301,0-8.848c0-3.547,0-7.681,0-12.403c1.049,0,2.62,0,4.71,0
		c0,4.188,0,10.491,0,18.91c1.07,0,2.652,0,4.746,0c0-4.209,0-10.513,0-18.91C425.212,377.796,426.783,377.796,428.878,377.796z"/>
	<path fill="#FFFFFF" d="M445.45,389.59c0.641,0,1.195,0.236,1.668,0.705c0.448,0.451,0.673,1.006,0.673,1.668
		c0,1.582,0,3.941,0,7.084c0,0.662-0.225,1.217-0.673,1.668c-0.472,0.469-1.027,0.705-1.668,0.705c-1.582,0-3.952,0-7.116,0
		c-1.049,0-2.617,0-4.711,0c0-1.049,0-2.62,0-4.714c0-1.067,0-2.649,0-4.743c0-1.049,0-2.617,0-4.711c0-0.537,0-1.199,0-1.99
		c0-0.788,0-1.707,0-2.756c0-1.045,0-2.616,0-4.71c1.045,0,2.617,0,4.711,0c1.582,0,3.952,0,7.116,0
		c0.641,0,1.195,0.225,1.668,0.673c0.448,0.469,0.673,1.027,0.673,1.668c0,1.579,0,3.952,0,7.116c0,0.641-0.225,1.196-0.673,1.664
		C446.646,389.368,446.091,389.59,445.45,389.59z M438.334,387.253c1.067,0,2.649,0,4.743,0c0-0.193,0-0.472,0-0.834
		c0-0.877,0-2.18,0-3.912c-1.045,0-2.627,0-4.743,0C438.334,383.556,438.334,385.138,438.334,387.253z M438.334,396.706
		c1.067,0,2.649,0,4.743,0c0-0.19,0-0.469,0-0.834c0-0.873,0-2.176,0-3.909c-1.045,0-2.627,0-4.743,0
		C438.334,393.012,438.334,394.591,438.334,396.706z"/>
	<path fill="#FFFFFF" d="M461.991,384.88c0-0.533,0-1.324,0-2.373c-1.049,0-2.631,0-4.747,0c0,1.049,0,2.631,0,4.746
		c1.582,0,3.955,0,7.116,0c0.644,0,1.199,0.222,1.668,0.673c0.448,0.469,0.673,1.024,0.673,1.664c0,2.116,0,5.269,0,9.457
		c0,0.662-0.225,1.217-0.673,1.668c-0.469,0.469-1.024,0.705-1.668,0.705c-2.115,0-5.265,0-9.453,0
		c-0.662,0-1.217-0.236-1.668-0.705c-0.469-0.451-0.705-1.006-0.705-1.668c0-1.045,0-2.616,0-4.71c1.049,0,2.617,0,4.71,0
		c0,0.512,0,1.303,0,2.369c1.07,0,2.653,0,4.747,0c0-1.067,0-2.649,0-4.743c-1.582,0-3.945,0-7.084,0
		c-0.662,0-1.217-0.225-1.668-0.673c-0.469-0.469-0.705-1.038-0.705-1.7c0-1.045,0-2.359,0-3.941c0-1.582,0-3.418,0-5.512
		c0-0.641,0.236-1.199,0.705-1.668c0.451-0.448,1.006-0.673,1.668-0.673c2.094,0,5.244,0,9.453,0c0.644,0,1.199,0.225,1.668,0.673
		c0.448,0.469,0.673,1.027,0.673,1.668c0,1.067,0,2.649,0,4.743C465.656,384.88,464.085,384.88,461.991,384.88z"/>
	<path fill="#FFFFFF" d="M480.901,384.88c0-0.533,0-1.324,0-2.373c-1.045,0-2.627,0-4.743,0c0,3.164,0,7.896,0,14.2
		c1.067,0,2.649,0,4.743,0c0-0.533,0-1.324,0-2.369c1.049,0,2.62,0,4.714,0c0,1.045,0,2.616,0,4.71c0,0.662-0.225,1.217-0.673,1.668
		c-0.472,0.469-1.027,0.705-1.668,0.705c-2.115,0-5.269,0-9.457,0c-0.662,0-1.217-0.236-1.664-0.705
		c-0.472-0.451-0.709-1.006-0.709-1.668c0-1.582,0-3.952,0-7.116c0-1.303,0-2.928,0-4.872c0-1.987,0-4.295,0-6.923
		c0-0.641,0.236-1.199,0.709-1.668c0.448-0.448,1.002-0.673,1.664-0.673c2.094,0,5.248,0,9.457,0c0.641,0,1.196,0.225,1.668,0.673
		c0.448,0.469,0.673,1.027,0.673,1.668c0,1.067,0,2.649,0,4.743C484.566,384.88,482.995,384.88,480.901,384.88z"/>
	<path fill="#FFFFFF" d="M502.185,389.59c0.641,0,1.199,0.236,1.668,0.705c0.447,0.451,0.673,1.006,0.673,1.668
		c0,2.094,0,5.247,0,9.457c-1.045,0-2.617,0-4.711,0c0-2.094,0-5.248,0-9.457c-1.049,0-2.631,0-4.746,0c0,2.094,0,5.247,0,9.457
		c-1.045,0-2.617,0-4.711,0c0-2.094,0-5.248,0-9.457c0-1.049,0-2.617,0-4.711c0-1.049,0-2.362,0-3.944c0-1.582,0-3.418,0-5.512
		c1.045,0,2.617,0,4.711,0c1.582,0,3.955,0,7.116,0c0.641,0,1.199,0.225,1.668,0.673c0.447,0.469,0.673,1.027,0.673,1.668
		c0,1.579,0,3.952,0,7.116c0,0.641-0.226,1.196-0.673,1.664C503.384,389.368,502.825,389.59,502.185,389.59z M499.815,387.253
		c0-0.193,0-0.472,0-0.834c0-0.877,0-2.18,0-3.912c-1.049,0-2.631,0-4.746,0c0,1.049,0,2.631,0,4.746
		C496.139,387.253,497.721,387.253,499.815,387.253z"/>
	<path fill="#FFFFFF" d="M509.268,377.796c0.791,0,2.362,0,4.714,0c0,2.95,0,8.855,0,17.725c0,0.985,0,2.95,0,5.899
		c-0.769,0-2.341,0-4.714,0c0-1.969,0-4.915,0-8.849C509.268,388.642,509.268,383.716,509.268,377.796z"/>
	<path fill="#FFFFFF" d="M532.893,380.137c0,2.116,0,5.266,0,9.453c0,0.662-0.225,1.232-0.673,1.7
		c-0.469,0.448-1.024,0.673-1.664,0.673c-1.582,0-3.955,0-7.12,0c0,2.094,0,5.247,0,9.457c-1.045,0-2.616,0-4.71,0
		c0-1.049,0-2.363,0-3.945c0-1.561,0-3.397,0-5.512c0-1.049,0-2.617,0-4.711c0-1.07,0-2.652,0-4.746c0-1.045,0-2.616,0-4.71
		c1.049,0,2.616,0,4.71,0c1.582,0,3.955,0,7.12,0c0.641,0,1.196,0.225,1.664,0.673C532.667,378.938,532.893,379.496,532.893,380.137
		z M523.436,387.253c1.07,0,2.653,0,4.747,0c0-0.193,0-0.472,0-0.834c0-0.877,0-2.18,0-3.912c-1.049,0-2.631,0-4.747,0
		C523.436,383.556,523.436,385.138,523.436,387.253z"/>
	<path fill="#FFFFFF" d="M551.807,382.507c-2.352,0-3.923,0-4.714,0c0,9.468,0,15.771,0,18.914c-2.369,0-3.952,0-4.742,0
		c0-9.446,0-15.75,0-18.914c-2.352,0-3.923,0-4.714,0c0-1.174,0-2.158,0-2.95c0-0.787,0-1.378,0-1.761c7.098,0,11.819,0,14.171,0
		C551.807,379.89,551.807,381.462,551.807,382.507z"/>
	<path fill="#FFFFFF" d="M556.549,377.796c0.791,0,2.362,0,4.711,0c0,2.95,0,8.855,0,17.725c0,0.985,0,2.95,0,5.899
		c-0.766,0-2.337,0-4.711,0c0-1.969,0-4.915,0-8.849C556.549,388.642,556.549,383.716,556.549,377.796z"/>
	<path fill="#FFFFFF" d="M580.174,380.137c0,4.21,0,10.513,0,18.91c0,0.662-0.225,1.217-0.673,1.668
		c-0.472,0.469-1.027,0.705-1.668,0.705c-2.116,0-5.269,0-9.457,0c-0.662,0-1.217-0.236-1.664-0.705
		c-0.469-0.451-0.705-1.006-0.705-1.668c0-1.582,0-3.952,0-7.116c0-1.303,0-2.928,0-4.872c0-1.987,0-4.295,0-6.923
		c0-0.641,0.236-1.199,0.705-1.668c0.447-0.448,1.002-0.673,1.664-0.673c2.094,0,5.247,0,9.457,0c0.641,0,1.195,0.225,1.668,0.673
		C579.948,378.938,580.174,379.496,580.174,380.137z M570.717,396.706c1.07,0,2.649,0,4.746,0c0-0.211,0-0.522,0-0.927
		c0-2.95,0-7.374,0-13.273c-1.049,0-2.631,0-4.746,0c0,1.582,0,3.945,0,7.084C570.717,391.173,570.717,393.546,570.717,396.706z"/>
	<path fill="#FFFFFF" d="M599.084,380.137c0,4.743,0,11.837,0,21.284c-1.045,0-2.617,0-4.71,0c0-4.21,0-10.517,0-18.914
		c-1.049,0-2.627,0-4.743,0c0,4.21,0,10.517,0,18.914c-1.049,0-2.62,0-4.714,0c0-2.631,0-5.91,0-9.84c0-3.934,0-8.526,0-13.784
		c1.049,0,2.62,0,4.714,0c1.579,0,3.952,0,7.116,0c0.641,0,1.196,0.225,1.664,0.673
		C598.862,378.938,599.084,379.496,599.084,380.137z"/>
	<path fill="#FFFFFF" d="M613.283,384.88c0-0.533,0-1.324,0-2.373c-1.045,0-2.627,0-4.743,0c0,1.049,0,2.631,0,4.746
		c1.582,0,3.955,0,7.116,0c0.641,0,1.196,0.222,1.668,0.673c0.447,0.469,0.673,1.024,0.673,1.664c0,2.116,0,5.269,0,9.457
		c0,0.662-0.226,1.217-0.673,1.668c-0.472,0.469-1.027,0.705-1.668,0.705c-2.116,0-5.269,0-9.457,0
		c-0.662,0-1.217-0.236-1.664-0.705c-0.472-0.451-0.705-1.006-0.705-1.668c0-1.045,0-2.616,0-4.71c1.045,0,2.617,0,4.711,0
		c0,0.512,0,1.303,0,2.369c1.07,0,2.649,0,4.743,0c0-1.067,0-2.649,0-4.743c-1.578,0-3.941,0-7.084,0
		c-0.662,0-1.217-0.225-1.664-0.673c-0.472-0.469-0.705-1.038-0.705-1.7c0-1.045,0-2.359,0-3.941c0-1.582,0-3.418,0-5.512
		c0-0.641,0.233-1.199,0.705-1.668c0.448-0.448,1.002-0.673,1.664-0.673c2.094,0,5.248,0,9.457,0c0.641,0,1.196,0.225,1.668,0.673
		c0.447,0.469,0.673,1.027,0.673,1.668c0,1.067,0,2.649,0,4.743C616.949,384.88,615.377,384.88,613.283,384.88z"/>
	<path fill="#FFFFFF" d="M622.74,398.439c0-0.77,0-1.346,0-1.733c2.373,0,3.945,0,4.711,0c0,2.352,0,3.923,0,4.714
		c-2.348,0-3.92,0-4.711,0C622.74,400.221,622.74,399.23,622.74,398.439z"/>
</g>
<text transform="matrix(1 0 0 1 426.584 486.0461)" fill="none" stroke="#FFFFFF" stroke-width="0.25" stroke-miterlimit="10" font-family="'Cornerstone'" font-size="14.2998px">BE LEET</text>
</svg>
