<?xml version="1.0" encoding="utf-8"?>
<!-- Generator: Adobe Illustrator 21.0.2, SVG Export Plug-In . SVG Version: 6.00 Build 0)  -->
<svg version="1.1" id="Layer_1" xmlns="http://www.w3.org/2000/svg" xmlns:xlink="http://www.w3.org/1999/xlink" x="0px" y="0px"
	 viewBox="0 0 841.89 595.28" enable-background="new 0 0 841.89 595.28" xml:space="preserve">
<circle fill="#793DF4" cx="451.635" cy="293.661" r="247.339"/>
<g>
	<g>
		<path fill="#FFFFFF" d="M424.695,368.373l-26.199-38.422l-22.897,36.057l-27.744-40.708l47.292-74.47l53.947,79.134
			L424.695,368.373z M398.417,324.603l26.195,38.418l20.96-33.004l-50.341-73.833l-43.856,69.065l24.137,35.411L398.417,324.603z"/>
	</g>
	<g>
		<linearGradient id="SVGID_1_" gradientUnits="userSpaceOnUse" x1="398.3544" y1="336.6803" x2="398.3544" y2="273.8336">
			<stop  offset="0" style="stop-color:#2E74FF"/>
			<stop  offset="0.6634" style="stop-color:#6FFFEF"/>
		</linearGradient>
		<polygon fill="url(#SVGID_1_)" points="398.329,315.167 413.047,336.68 425.74,316.645 396.459,273.834 370.969,314.079 
			385.524,335.389 		"/>
	</g>
</g>
<g>
	<g>
		<path fill="#FFFFFF" d="M420.276,244.236l-26.191-38.422l-22.901,36.057l-27.748-40.708l47.297-74.474l53.943,79.139
			L420.276,244.236z M393.998,200.467l26.199,38.413l20.96-33.004l-50.337-73.829l-43.865,69.06l24.142,35.415L393.998,200.467z"/>
	</g>
	<g>
		<linearGradient id="SVGID_2_" gradientUnits="userSpaceOnUse" x1="393.9378" y1="212.5442" x2="393.9378" y2="149.6974">
			<stop  offset="0" style="stop-color:#2E74FF"/>
			<stop  offset="0.651" style="stop-color:#6CF8F0"/>
			<stop  offset="1" style="stop-color:#6FFFEF"/>
		</linearGradient>
		<polygon fill="url(#SVGID_2_)" points="393.915,191.03 408.637,212.544 421.322,192.509 392.041,149.697 366.554,189.948 
			381.109,211.253 		"/>
	</g>
</g>
<linearGradient id="SVGID_3_" gradientUnits="userSpaceOnUse" x1="400.9655" y1="412.9661" x2="400.9655" y2="372.0788">
	<stop  offset="0" style="stop-color:#2E74FF"/>
	<stop  offset="1" style="stop-color:#6FFFEF"/>
</linearGradient>
<polygon fill="url(#SVGID_3_)" points="417.52,402.171 400.149,372.079 381.576,402.171 316.409,402.171 316.409,412.966 
	485.522,412.966 485.522,402.171 "/>
<g>
	<path fill="none" stroke="#FFFFFF" stroke-width="0.5" stroke-miterlimit="10" d="M345.219,443.434c0-0.837,0-2.065,0-3.698
		c-1.632,0-4.094,0-7.396,0c0,1.633,0,4.094,0,7.396c2.465,0,6.163,0,11.094,0c1,0,1.866,0.354,2.599,1.049
		c0.704,0.733,1.049,1.599,1.049,2.599c0,3.302,0,8.216,0,14.751c0,1.033-0.346,1.899-1.049,2.598c-0.733,0.733-1.599,1.1-2.599,1.1
		c-3.294,0-8.212,0-14.742,0c-1.033,0-1.899-0.367-2.603-1.1c-0.729-0.699-1.095-1.565-1.095-2.598c0-1.637,0-4.082,0-7.346
		c1.628,0,4.081,0,7.346,0c0,0.8,0,2.028,0,3.698c1.666,0,4.131,0,7.396,0c0-1.67,0-4.131,0-7.404c-2.465,0-6.147,0-11.044,0
		c-1.033,0-1.899-0.346-2.603-1.049c-0.729-0.729-1.095-1.616-1.095-2.649c0-1.629,0-3.682,0-6.143c0-2.474,0-5.335,0-8.6
		c0-1,0.366-1.866,1.095-2.607c0.704-0.696,1.57-1.041,2.603-1.041c3.265,0,8.183,0,14.742,0c1,0,1.866,0.345,2.599,1.041
		c0.704,0.742,1.049,1.608,1.049,2.607c0,1.666,0,4.131,0,7.396C350.937,443.434,348.484,443.434,345.219,443.434z"/>
	<path fill="none" stroke="#FFFFFF" stroke-width="0.5" stroke-miterlimit="10" d="M382.067,439.736c-3.273,0-5.718,0-7.346,0
		c0,14.764,0,24.591,0,29.493c-3.707,0-6.172,0-7.405,0c0-14.73,0-24.562,0-29.493c-3.669,0-6.114,0-7.35,0c0-1.836,0-3.365,0-4.602
		c0-1.232,0-2.149,0-2.744c11.065,0,18.432,0,22.101,0C382.067,435.654,382.067,438.103,382.067,439.736z"/>
	<path fill="none" stroke="#FFFFFF" stroke-width="0.5" stroke-miterlimit="10" d="M411.564,469.229c-1.641,0-4.09,0-7.354,0
		c0-3.265,0-8.184,0-14.751c-1.632,0-4.098,0-7.4,0c0,3.273,0,8.183,0,14.751c-1.629,0-4.082,0-7.346,0c0-2.766,0-6.93,0-12.498
		c0-2.299,0-5.168,0-8.595c0-3.469,0-7.505,0-12.098c0-1,0.362-1.866,1.099-2.607c0.7-0.696,1.566-1.041,2.599-1.041
		c3.265,0,8.183,0,14.751,0c0.999,0,1.866,0.345,2.598,1.041c0.7,0.742,1.054,1.608,1.054,2.607
		C411.564,443.434,411.564,454.499,411.564,469.229z M404.21,447.132c0-0.3,0-0.733,0-1.299c0-1.37,0-3.398,0-6.097
		c-1.632,0-4.098,0-7.4,0c0,1.633,0,4.094,0,7.396C398.475,447.132,400.941,447.132,404.21,447.132z"/>
	<path fill="none" stroke="#FFFFFF" stroke-width="0.5" stroke-miterlimit="10" d="M437.405,450.78c1,0,1.866,0.371,2.599,1.099
		c0.699,0.7,1.049,1.566,1.049,2.599c0,3.273,0,8.183,0,14.751c-1.629,0-4.086,0-7.351,0c0-3.265,0-8.184,0-14.751
		c-1.632,0-4.093,0-7.4,0c0,3.273,0,8.183,0,14.751c-1.629,0-4.073,0-7.338,0c0-3.265,0-8.184,0-14.751c0-1.629,0-4.082,0-7.346
		c0-1.628,0-3.682,0-6.147c0-2.47,0-5.331,0-8.595c1.628,0,4.073,0,7.338,0c2.473,0,6.172,0,11.103,0c1,0,1.866,0.345,2.599,1.041
		c0.699,0.742,1.049,1.608,1.049,2.607c0,2.465,0,6.163,0,11.094c0,1.004-0.35,1.87-1.049,2.599
		C439.271,450.43,438.405,450.78,437.405,450.78z M433.703,447.132c0-0.3,0-0.733,0-1.299c0-1.37,0-3.398,0-6.097
		c-1.632,0-4.093,0-7.4,0c0,1.633,0,4.094,0,7.396C427.968,447.132,430.438,447.132,433.703,447.132z"/>
	<path fill="none" stroke="#FFFFFF" stroke-width="0.5" stroke-miterlimit="10" d="M470.546,439.736c-3.265,0-5.714,0-7.346,0
		c0,14.764,0,24.591,0,29.493c-3.698,0-6.168,0-7.396,0c0-14.73,0-24.562,0-29.493c-3.669,0-6.114,0-7.355,0
		c0-1.836,0-3.365,0-4.602c0-1.232,0-2.149,0-2.744c11.069,0,18.437,0,22.097,0C470.546,435.654,470.546,438.103,470.546,439.736z"
		/>
</g>
<g>
	<g>
		<linearGradient id="SVGID_4_" gradientUnits="userSpaceOnUse" x1="612.0339" y1="324.6823" x2="612.0339" y2="245.9439">
			<stop  offset="0" style="stop-color:#2E74FF"/>
			<stop  offset="0.6832" style="stop-color:#6FFFEF"/>
		</linearGradient>
		<path fill="url(#SVGID_4_)" d="M651.399,285.311c0,21.739-17.62,39.371-39.359,39.371c-21.748,0-39.372-17.632-39.372-39.371
			c0-21.743,17.624-39.367,39.372-39.367C633.779,245.944,651.399,263.568,651.399,285.311z"/>
	</g>
	<g>
		<g>
			<g>
				<path fill-rule="evenodd" clip-rule="evenodd" fill="#793DF4" d="M597.381,285.827c4.797-8.379,9.495-16.612,14.359-25.12
					c4.848,8.483,9.566,16.721,14.364,25.104c-2.461,1.379-4.843,2.736-7.242,4.081c-2.082,1.171-4.148,2.362-6.247,3.49
					c-0.387,0.208-1.05,0.354-1.391,0.167C606.635,291.033,602.078,288.459,597.381,285.827z"/>
			</g>
			<g>
				<path fill-rule="evenodd" clip-rule="evenodd" fill="#793DF4" d="M597.96,289.08c4.273,2.395,8.558,4.773,12.793,7.213
					c0.758,0.433,1.307,0.4,2.045-0.025c3.844-2.224,7.729-4.394,11.594-6.584c0.358-0.191,0.733-0.366,1.47-0.725
					c-4.81,6.896-9.383,13.472-14.109,20.248c-4.685-6.717-9.295-13.33-13.897-19.927
					C597.889,289.201,597.931,289.138,597.96,289.08z"/>
			</g>
		</g>
	</g>
</g>
<g>
	<linearGradient id="SVGID_5_" gradientUnits="userSpaceOnUse" x1="480.4036" y1="307.3246" x2="480.4036" y2="265.0756">
		<stop  offset="0" style="stop-color:#2E74FF"/>
		<stop  offset="0.6832" style="stop-color:#6FFFEF"/>
	</linearGradient>
	<path fill="url(#SVGID_5_)" d="M486.738,269.265c0,8.479,0,21.168,0,38.06c-1.866,0-4.676,0-8.424,0c0-7.529,0-18.799,0-33.824
		c-0.958,0-2.37,0-4.244,0c0-0.916,0-2.078,0-3.494c0-1.412,0-3.057,0-4.931c1.874,0,4.685,0,8.433,0c1.178,0,2.194,0.4,3.036,1.203
		C486.338,267.12,486.738,268.112,486.738,269.265z"/>
	<linearGradient id="SVGID_6_" gradientUnits="userSpaceOnUse" x1="507.8979" y1="307.3246" x2="507.8979" y2="265.0756">
		<stop  offset="0" style="stop-color:#2E74FF"/>
		<stop  offset="0.6832" style="stop-color:#6FFFEF"/>
	</linearGradient>
	<path fill="url(#SVGID_6_)" d="M520.562,269.265c0,7.53,0,18.799,0,33.824c0,1.178-0.4,2.178-1.2,2.977
		c-0.837,0.837-1.836,1.258-2.982,1.258c-3.781,0-9.424,0-16.912,0c-1.179,0-2.178-0.42-2.982-1.258
		c-0.841-0.8-1.254-1.799-1.254-2.977c0-2.832,0-7.076,0-12.731c0-2.336,0-5.235,0-8.716c0-3.552,0-7.679,0-12.377
		c0-1.154,0.412-2.145,1.254-2.986c0.804-0.803,1.803-1.203,2.982-1.203c3.74,0,9.383,0,16.912,0c1.145,0,2.145,0.4,2.982,1.203
		C520.162,267.12,520.562,268.112,520.562,269.265z M503.658,298.9c1.908,0,4.739,0,8.479,0c0-0.383,0-0.937,0-1.666
		c0-5.272,0-13.185,0-23.733c-1.874,0-4.698,0-8.479,0c0,2.832,0,7.055,0,12.677C503.658,289.001,503.658,293.245,503.658,298.9z"/>
	<linearGradient id="SVGID_7_" gradientUnits="userSpaceOnUse" x1="543.7294" y1="307.3246" x2="543.7294" y2="265.0756">
		<stop  offset="0" style="stop-color:#2E74FF"/>
		<stop  offset="0.6832" style="stop-color:#6FFFEF"/>
	</linearGradient>
	<path fill="url(#SVGID_7_)" d="M548.485,286.177c4.931,9.404,8.616,16.45,11.065,21.148c-4.202,0-7.359,0-9.462,0
		c-2.832-6.117-4.951-10.699-6.363-13.755c-2.832,6.11-4.947,10.699-6.359,13.755c-4.202,0-7.362,0-9.458,0
		c4.927-9.403,8.612-16.45,11.057-21.148c-5.539-10.549-9.224-17.582-11.057-21.101c4.731,0,7.888,0,9.458,0
		c3.169,6.838,5.293,11.407,6.359,13.701c3.169-6.838,5.297-11.407,6.363-13.701c4.739,0,7.896,0,9.462,0
		C554.011,275.628,550.318,282.658,548.485,286.177z"/>
</g>
</svg>
