<?xml version="1.0" encoding="utf-8"?>
<!-- Generator: Adobe Illustrator 21.0.2, SVG Export Plug-In . SVG Version: 6.00 Build 0)  -->
<svg version="1.1" id="Layer_1" xmlns="http://www.w3.org/2000/svg" xmlns:xlink="http://www.w3.org/1999/xlink" x="0px" y="0px"
	 viewBox="0 0 841.89 595.28" enable-background="new 0 0 841.89 595.28" xml:space="preserve">
<g>
	<path fill="none" stroke="#FFFFFF" stroke-width="4" stroke-miterlimit="10" d="M245.323,203.686c0,36.478,0,91.035,0,163.661
		c-8.054,0-20.131,0-36.233,0c0-32.369,0-80.845,0-145.422c-4.11,0-10.19,0-18.239,0c0-3.943,0-8.954,0-15.035
		c0-6.077,0-13.144,0-21.197c8.049,0,20.126,0,36.233,0c5.091,0,9.447,1.724,13.063,5.175
		C243.597,194.485,245.323,198.756,245.323,203.686z"/>
	<path fill="none" stroke="#FFFFFF" stroke-width="4" stroke-miterlimit="10" d="M372.751,276.397c4.93,0,9.201,1.81,12.817,5.422
		c3.451,3.451,5.175,7.726,5.175,12.817c0,12.163,0,30.318,0,54.472c0,5.094-1.724,9.366-5.175,12.817
		c-3.616,3.616-7.887,5.422-12.817,5.422c-16.267,0-40.507,0-72.711,0c-5.095,0-9.366-1.806-12.817-5.422
		c-3.616-3.451-5.422-7.723-5.422-12.817c0-3.451,0-7.804,0-13.063c0-5.424,0-11.665,0-18.732c8.049,0,20.126,0,36.233,0
		c0,3.123,0,7.726,0,13.802c8.214,0,20.372,0,36.478,0c0-8.215,0-20.373,0-36.478c-8.052,0-20.211,0-36.478,0
		c0-8.049,0-20.125,0-36.232c8.214,0,20.372,0,36.478,0c0-8.215,0-20.373,0-36.479c-8.052,0-20.211,0-36.478,0
		c0,3.124,0,7.641,0,13.556c-8.054,0-20.131,0-36.233,0c0-7.063,0-17.661,0-31.795c0-4.93,1.806-9.201,5.422-12.817
		c3.451-3.451,7.722-5.175,12.817-5.175c16.102,0,40.338,0,72.711,0c4.93,0,9.201,1.724,12.817,5.175
		c3.451,3.616,5.175,7.887,5.175,12.817c0,12.162,0,30.401,0,54.718c0,4.929-1.724,9.204-5.175,12.816
		C381.952,274.671,377.681,276.397,372.751,276.397z"/>
	<path fill="none" stroke="#FFFFFF" stroke-width="4" stroke-miterlimit="10" d="M518.174,276.397c4.929,0,9.201,1.81,12.817,5.422
		c3.451,3.451,5.174,7.726,5.174,12.817c0,12.163,0,30.318,0,54.472c0,5.094-1.723,9.366-5.174,12.817
		c-3.616,3.616-7.888,5.422-12.817,5.422c-16.268,0-40.508,0-72.712,0c-5.095,0-9.366-1.806-12.817-5.422
		c-3.616-3.451-5.422-7.723-5.422-12.817c0-3.451,0-7.804,0-13.063c0-5.424,0-11.665,0-18.732c8.049,0,20.126,0,36.233,0
		c0,3.123,0,7.726,0,13.802c8.214,0,20.372,0,36.478,0c0-8.215,0-20.373,0-36.478c-8.052,0-20.211,0-36.478,0
		c0-8.049,0-20.125,0-36.232c8.214,0,20.372,0,36.478,0c0-8.215,0-20.373,0-36.479c-8.052,0-20.211,0-36.478,0
		c0,3.124,0,7.641,0,13.556c-8.054,0-20.131,0-36.233,0c0-7.063,0-17.661,0-31.795c0-4.93,1.806-9.201,5.422-12.817
		c3.451-3.451,7.722-5.175,12.817-5.175c16.102,0,40.338,0,72.712,0c4.929,0,9.201,1.724,12.817,5.175
		c3.451,3.616,5.174,7.887,5.174,12.817c0,12.162,0,30.401,0,54.718c0,4.929-1.723,9.204-5.174,12.816
		C527.375,274.671,523.103,276.397,518.174,276.397z"/>
	<path fill="none" stroke="#FFFFFF" stroke-width="4" stroke-miterlimit="10" d="M681.587,185.693
		c-31.056,80.683-54.391,141.231-70.001,181.654c-17.252,0-30.235,0-38.943,0c27.933-72.626,46.583-121.101,55.949-145.422
		c-27.936,0-46.583,0-55.949,0c0-9.035,0-16.595,0-22.676c0-6.077,0-10.599,0-13.556c35.161,0,58.577,0,70.247,0
		c3.451,0,5.75,0,6.902,0C663.922,185.693,674.52,185.693,681.587,185.693z"/>
</g>
<g>
	<g>
		<g>
			<linearGradient id="SVGID_1_" gradientUnits="userSpaceOnUse" x1="216.6157" y1="362.7261" x2="216.6157" y2="232.9238">
				<stop  offset="0" style="stop-color:#2E74FF"/>
				<stop  offset="1" style="stop-color:#6FFFEF"/>
			</linearGradient>
			<polygon fill="url(#SVGID_1_)" points="213.638,234.413 218.104,234.413 218.104,362.726 219.593,362.726 219.593,232.924 
				213.638,232.924 			"/>
		</g>
		<g>
			<linearGradient id="SVGID_2_" gradientUnits="userSpaceOnUse" x1="227.8451" y1="379.8357" x2="227.8451" y2="196.6922">
				<stop  offset="0" style="stop-color:#2E74FF"/>
				<stop  offset="1" style="stop-color:#6FFFEF"/>
			</linearGradient>
			<path fill="url(#SVGID_2_)" d="M250.419,202.074c-3.742-3.571-8.31-5.382-13.577-5.382h-36.976v37.72h4.63v-1.489h-3.141v-34.743
				h35.487c4.87,0,9.093,1.672,12.525,4.945c3.298,3.457,4.97,7.595,4.97,12.303v162.918h-34.743v-6.478h-1.489v7.967h37.72V215.429
				C255.825,210.326,254.015,205.841,250.419,202.074z"/>
		</g>
	</g>
	<g>
		<g>
			<linearGradient id="SVGID_3_" gradientUnits="userSpaceOnUse" x1="327.9153" y1="343.6031" x2="327.9153" y2="232.9238">
				<stop  offset="0" style="stop-color:#2E74FF"/>
				<stop  offset="1" style="stop-color:#6FFFEF"/>
			</linearGradient>
			<polygon fill="url(#SVGID_3_)" points="290.815,239.998 290.815,247.969 328.537,247.969 328.537,234.413 363.526,234.413 
				363.526,269.403 327.048,269.403 327.048,307.122 363.526,307.122 363.526,342.114 328.537,342.114 328.537,335.654 
				327.048,335.654 327.048,343.603 365.015,343.603 365.015,305.634 328.537,305.634 328.537,270.89 365.015,270.89 
				365.015,232.924 327.048,232.924 327.048,246.48 292.304,246.48 292.304,239.998 			"/>
		</g>
		<g>
			<linearGradient id="SVGID_4_" gradientUnits="userSpaceOnUse" x1="346.0311" y1="379.8357" x2="346.0311" y2="196.6922">
				<stop  offset="0" style="stop-color:#2E74FF"/>
				<stop  offset="1" style="stop-color:#6FFFEF"/>
			</linearGradient>
			<path fill="url(#SVGID_4_)" d="M401.247,270.146v-54.717c0-5.104-1.81-9.589-5.406-13.355c-3.741-3.571-8.227-5.382-13.329-5.382
				h-72.712c-5.276,0-9.764,1.815-13.343,5.394c-3.742,3.742-5.641,8.231-5.641,13.343v15.425h1.489v-15.425
				c0-4.702,1.751-8.837,5.206-12.29c3.289-3.29,7.424-4.958,12.289-4.958h72.712c4.708,0,8.846,1.672,12.277,4.945
				c3.298,3.456,4.97,7.595,4.97,12.303v54.717c0,4.712-1.672,8.853-4.944,12.279c-3.455,3.297-7.595,4.969-12.303,4.969v1.489
				c4.699,0,8.833,1.752,12.289,5.208c3.289,3.288,4.958,7.424,4.958,12.288v54.472c0,4.866-1.669,9.002-4.958,12.29
				c-3.452,3.453-7.588,5.206-12.289,5.206h-72.712c-4.86,0-8.991-1.748-12.303-5.219c-3.444-3.286-5.192-7.415-5.192-12.277
				v-31.052h21.157v-1.489h-22.646v32.541c0,5.284,1.902,9.777,5.629,13.331c3.579,3.752,8.073,5.654,13.355,5.654h72.712
				c5.112,0,9.601-1.897,13.343-5.641c3.579-3.578,5.393-8.069,5.393-13.344v-54.472c0-5.275-1.814-9.764-5.393-13.342
				c-2.374-2.375-5.047-4.005-7.987-4.882c2.938-0.839,5.613-2.4,7.998-4.676C399.436,279.74,401.247,275.256,401.247,270.146z"/>
		</g>
	</g>
	<g>
		<g>
			<linearGradient id="SVGID_5_" gradientUnits="userSpaceOnUse" x1="491.452" y1="379.8357" x2="491.452" y2="196.6922">
				<stop  offset="0" style="stop-color:#2E74FF"/>
				<stop  offset="1" style="stop-color:#6FFFEF"/>
			</linearGradient>
			<path fill="url(#SVGID_5_)" d="M546.668,270.146v-54.717c0-5.105-1.81-9.589-5.404-13.355c-3.743-3.571-8.228-5.382-13.33-5.382
				H455.22c-5.275,0-9.764,1.815-13.342,5.394c-3.743,3.742-5.642,8.231-5.642,13.343v32.539h37.721v-13.556h22.035v-1.489h-23.524
				v13.556h-34.743v-31.051c0-4.702,1.75-8.837,5.204-12.29c3.289-3.29,7.424-4.958,12.289-4.958h72.713
				c4.705,0,8.846,1.672,12.277,4.945c3.299,3.456,4.969,7.595,4.969,12.303v54.717c0,4.712-1.67,8.853-4.944,12.279
				c-3.455,3.297-7.596,4.969-12.301,4.969v1.489c4.696,0,8.833,1.752,12.288,5.208c3.29,3.288,4.958,7.422,4.958,12.288v54.472
				c0,4.866-1.667,9.002-4.958,12.288c-3.453,3.456-7.587,5.208-12.288,5.208H455.22c-4.859,0-8.991-1.748-12.301-5.219
				c-3.445-3.286-5.192-7.415-5.192-12.277v-31.052h21.702v-1.489h-23.192v32.541c0,5.284,1.903,9.777,5.628,13.331
				c3.579,3.752,8.073,5.654,13.355,5.654h72.713c5.109,0,9.598-1.897,13.342-5.641c3.578-3.578,5.393-8.067,5.393-13.344v-54.472
				c0-5.275-1.815-9.764-5.393-13.342c-2.375-2.375-5.049-4.005-7.989-4.882c2.94-0.839,5.616-2.4,8.002-4.676
				C544.858,279.743,546.668,275.256,546.668,270.146z"/>
		</g>
		<g>
			<linearGradient id="SVGID_6_" gradientUnits="userSpaceOnUse" x1="491.4531" y1="290.6402" x2="491.4531" y2="232.9238">
				<stop  offset="0" style="stop-color:#2E74FF"/>
				<stop  offset="1" style="stop-color:#6FFFEF"/>
			</linearGradient>
			<polygon fill="url(#SVGID_6_)" points="503.85,232.924 503.85,234.413 508.946,234.413 508.946,269.403 472.469,269.403 
				472.469,290.64 473.958,290.64 473.958,270.89 510.437,270.89 510.437,232.924 			"/>
		</g>
		<g>
			<linearGradient id="SVGID_7_" gradientUnits="userSpaceOnUse" x1="491.4531" y1="343.6031" x2="491.4531" y2="298.5196">
				<stop  offset="0" style="stop-color:#2E74FF"/>
				<stop  offset="1" style="stop-color:#6FFFEF"/>
			</linearGradient>
			<polygon fill="url(#SVGID_7_)" points="472.469,298.52 472.469,307.122 508.946,307.122 508.946,342.114 473.958,342.114 
				473.958,335.061 472.469,335.061 472.469,343.603 510.437,343.603 510.437,305.634 473.958,305.634 473.958,298.52 			"/>
		</g>
	</g>
	<g>
		<g>
			<linearGradient id="SVGID_8_" gradientUnits="userSpaceOnUse" x1="610.5471" y1="362.7261" x2="610.5471" y2="226.4739">
				<stop  offset="0" style="stop-color:#2E74FF"/>
				<stop  offset="1" style="stop-color:#6FFFEF"/>
			</linearGradient>
			<path fill="url(#SVGID_8_)" d="M583.146,232.924v-6.45h-1.489v7.939h55.612c-8.754,22.737-25.232,65.558-49.369,128.314h1.594
				c24.389-63.403,40.927-106.385,49.554-128.79l0.388-1.012H583.146z"/>
		</g>
		<g>
			<linearGradient id="SVGID_9_" gradientUnits="userSpaceOnUse" x1="636.8745" y1="379.8357" x2="636.8745" y2="196.6922">
				<stop  offset="0" style="stop-color:#2E74FF"/>
				<stop  offset="1" style="stop-color:#6FFFEF"/>
			</linearGradient>
			<path fill="url(#SVGID_9_)" d="M581.657,196.692v20.639h1.489v-19.15h107.118c-30.739,79.858-53.885,139.915-69.427,180.166
				h-37.351c0.839-2.183,1.669-4.34,2.491-6.478h-1.594c-0.882,2.295-1.772,4.612-2.674,6.955l-0.391,1.011h40.539l0.185-0.478
				c15.608-40.422,38.943-100.973,69.999-181.655l0.391-1.011H581.657z"/>
		</g>
	</g>
</g>
<g>
	<rect x="189.115" y="424.669" fill="#0DFFF8" width="528.008" height="1.714"/>
</g>
<g>
	
		<rect x="584.904" y="265.875" transform="matrix(0.3879 -0.9217 0.9217 0.3879 185.5845 812.9268)" fill="#0DFFF8" width="239.921" height="1.715"/>
</g>
<g>
	
		<rect x="160.447" y="238.647" transform="matrix(1 -0.0022 0.0022 1 -0.8173 0.3597)" fill="#0DFFF8" width="1.714" height="257.941"/>
</g>
<g>
	
		<rect x="615.933" y="318.232" transform="matrix(0.3879 -0.9217 0.9217 0.3879 131.7085 841.6592)" fill="#FFFFFF" width="167.277" height="6.858"/>
</g>
<g>
	<rect x="137.687" y="165.609" fill="#FFFFFF" width="6.857" height="192.59"/>
</g>
<g>
	<g>
		<path fill="#FFFFFF" d="M219.215,449.629c0,5.855,0,14.612,0,26.268c-1.292,0-3.231,0-5.815,0c0-5.194,0-12.976,0-23.34
			c-1.292,0-3.244,0-5.855,0c0,5.194,0,12.976,0,23.34c-1.293,0-3.231,0-5.816,0c0-5.194,0-12.976,0-23.34c-1.292,0-3.243,0-5.855,0
			c0,5.194,0,12.976,0,23.34c-1.292,0-3.23,0-5.815,0c0-2.19,0-5.484,0-9.891c0-1.819,0-4.087,0-6.804c0-2.743,0-5.933,0-9.574
			c0-0.79,0.29-1.475,0.87-2.056c0.554-0.556,1.239-0.833,2.057-0.833c1.925,0,4.839,0,8.742,0c0.818,0,1.504,0.277,2.058,0.833
			c0.579,0.58,0.87,1.266,0.87,2.056c0-0.79,0.277-1.475,0.832-2.056c0.579-0.556,1.266-0.833,2.057-0.833c1.951,0,4.878,0,8.783,0
			c0.791,0,1.477,0.277,2.057,0.833C218.938,448.154,219.215,448.839,219.215,449.629z"/>
	</g>
	<g>
		<path fill="#FFFFFF" d="M242.556,449.629c0,5.196,0,12.976,0,23.342c0,0.817-0.277,1.502-0.83,2.056
			c-0.581,0.58-1.267,0.871-2.058,0.871c-2.611,0-6.501,0-11.67,0c-0.818,0-1.503-0.29-2.057-0.871
			c-0.58-0.554-0.87-1.239-0.87-2.056c0-1.953,0-4.879,0-8.784c0-1.607,0-3.612,0-6.013c0-2.453,0-5.301,0-8.545
			c0-0.79,0.29-1.475,0.87-2.056c0.554-0.556,1.239-0.833,2.057-0.833c2.585,0,6.474,0,11.67,0c0.791,0,1.477,0.277,2.058,0.833
			C242.279,448.154,242.556,448.839,242.556,449.629z M230.885,470.083c1.319,0,3.27,0,5.855,0c0-0.263,0-0.647,0-1.147
			c0-3.641,0-9.098,0-16.377c-1.292,0-3.243,0-5.855,0c0,1.951,0,4.866,0,8.741C230.885,463.252,230.885,466.178,230.885,470.083z"
			/>
	</g>
	<g>
		<path fill="#FFFFFF" d="M265.897,449.629c0,5.855,0,14.612,0,26.268c-1.292,0-3.231,0-5.816,0c0-5.194,0-12.976,0-23.34
			c-1.293,0-3.243,0-5.855,0c0,5.194,0,12.976,0,23.34c-1.292,0-3.23,0-5.815,0c0-3.243,0-7.292,0-12.145c0-4.853,0-10.522,0-17.011
			c1.292,0,3.23,0,5.815,0c1.952,0,4.88,0,8.783,0c0.791,0,1.477,0.277,2.058,0.833C265.62,448.154,265.897,448.839,265.897,449.629
			z"/>
	</g>
	<g>
		<path fill="#FFFFFF" d="M277.566,452.558c0,2.585,0,4.536,0,5.855c3.903,0,6.83,0,8.782,0c0,2.585,0,4.522,0,5.815
			c-3.903,0-6.83,0-8.782,0c0,2.585,0,4.536,0,5.855c5.195,0,9.086,0,11.671,0c0,2.585,0,4.523,0,5.815c-5.17,0-9.059,0-11.671,0
			c-2.585,0-4.523,0-5.815,0c0-2.585,0-4.522,0-5.815c0-1.319,0-2.467,0-3.442c0-0.976,0-1.781,0-2.413c0-2.928,0-4.866,0-5.815
			c0-2.929,0-4.88,0-5.855c0-2.902,0-4.839,0-5.817c2.928,0,4.866,0,5.815,0c5.855,0,9.746,0,11.671,0c0,2.902,0,4.842,0,5.817
			C284.068,452.558,280.178,452.558,277.566,452.558z"/>
	</g>
	<g>
		<path fill="#FFFFFF" d="M312.577,452.558c-2.585,0-4.523,0-5.816,0c0,11.683,0,19.462,0,23.34c-2.927,0-4.879,0-5.855,0
			c0-11.656,0-19.438,0-23.34c-2.901,0-4.839,0-5.815,0c0-1.451,0-2.665,0-3.641c0-0.976,0-1.701,0-2.176c8.756,0,14.584,0,17.486,0
			C312.577,449.326,312.577,451.265,312.577,452.558z"/>
	</g>
	<g>
		<path fill="#FFFFFF" d="M318.432,446.741c0.975,0,2.914,0,5.815,0c0,3.641,0,10.933,0,21.878c0,1.214,0,3.641,0,7.279
			c-0.949,0-2.887,0-5.815,0c0-3.243,0-7.292,0-12.145C318.432,458.9,318.432,453.23,318.432,446.741z"/>
	</g>
	<g>
		<path fill="#FFFFFF" d="M347.589,446.741c0,2.27,0,3.985,0,5.143c0,0.29,0,0.516,0,0.674c-4.721,7.779-8.268,13.621-10.642,17.525
			c4.747,0,8.294,0,10.642,0c0,2.585,0,4.523,0,5.815c-7.78,0-13.608,0-17.486,0c0-1.161,0-2.163,0-3.007c0-0.844,0-1.556,0-2.136
			c0-0.341,0-0.567,0-0.672c5.327-8.757,8.874-14.598,10.642-17.525c-5.328,0-8.875,0-10.642,0c0-2.902,0-4.839,0-5.817
			C337.883,446.741,343.711,446.741,347.589,446.741z"/>
	</g>
	<g>
		<path fill="#FFFFFF" d="M359.257,452.558c0,2.585,0,4.536,0,5.855c3.903,0,6.83,0,8.783,0c0,2.585,0,4.522,0,5.815
			c-3.903,0-6.83,0-8.783,0c0,2.585,0,4.536,0,5.855c5.195,0,9.086,0,11.671,0c0,2.585,0,4.523,0,5.815c-5.17,0-9.059,0-11.671,0
			c-2.585,0-4.522,0-5.815,0c0-2.585,0-4.522,0-5.815c0-1.319,0-2.467,0-3.442c0-0.976,0-1.781,0-2.413c0-2.928,0-4.866,0-5.815
			c0-2.929,0-4.88,0-5.855c0-2.902,0-4.839,0-5.817c2.927,0,4.866,0,5.815,0c5.855,0,9.746,0,11.671,0c0,2.902,0,4.842,0,5.817
			C365.759,452.558,361.869,452.558,359.257,452.558z"/>
	</g>
	<g>
		<path fill="#FFFFFF" d="M400.124,472.971c0-2.902,0-6.543,0-10.92c0-4.377,0-9.48,0-15.311c1.293,0,3.23,0,5.815,0
			c0,5.17,0,12.951,0,23.342c1.319,0,3.27,0,5.855,0c0-5.196,0-12.976,0-23.342c1.292,0,3.231,0,5.816,0c0,5.17,0,12.951,0,23.342
			c1.318,0,3.27,0,5.855,0c0-5.196,0-12.976,0-23.342c1.291,0,3.23,0,5.815,0c0,5.83,0,14.572,0,26.23
			c0,0.817-0.277,1.502-0.83,2.056c-0.58,0.58-1.266,0.871-2.057,0.871c-1.952,0-4.88,0-8.783,0c-0.791,0-1.478-0.29-2.057-0.871
			c-0.555-0.554-0.831-1.239-0.831-2.056c0,0.817-0.29,1.502-0.87,2.056c-0.555,0.58-1.24,0.871-2.058,0.871
			c-1.952,0-4.865,0-8.742,0c-0.818,0-1.503-0.29-2.057-0.871C400.414,474.473,400.124,473.788,400.124,472.971z"/>
	</g>
	<g>
		<path fill="#FFFFFF" d="M435.135,446.741c0.976,0,2.914,0,5.815,0c0,3.641,0,10.933,0,21.878c0,1.214,0,3.641,0,7.279
			c-0.949,0-2.887,0-5.815,0c0-3.243,0-7.292,0-12.145C435.135,458.9,435.135,453.23,435.135,446.741z"/>
	</g>
	<g>
		<path fill="#FFFFFF" d="M464.29,452.558c-2.585,0-4.523,0-5.816,0c0,11.683,0,19.462,0,23.34c-2.928,0-4.88,0-5.855,0
			c0-11.656,0-19.438,0-23.34c-2.901,0-4.839,0-5.815,0c0-1.451,0-2.665,0-3.641c0-0.976,0-1.701,0-2.176c8.756,0,14.584,0,17.486,0
			C464.29,449.326,464.29,451.265,464.29,452.558z"/>
	</g>
	<g>
		<path fill="#FFFFFF" d="M487.631,446.741c0,5.17,0,9.06,0,11.672c0,2.585,0,4.522,0,5.815c0,5.197,0,9.085,0,11.67
			c-2.585,0-4.523,0-5.816,0c0-5.194,0-9.085,0-11.67c-2.585,0-4.536,0-5.855,0c0,5.197,0,9.085,0,11.67c-2.585,0-4.523,0-5.815,0
			c0-2.585,0-4.853,0-6.804c0-1.953,0-3.574,0-4.866c0-2.928,0-4.866,0-5.815c0-5.855,0-9.746,0-11.672c2.928,0,4.866,0,5.815,0
			c0,5.83,0,9.719,0,11.672c2.927,0,4.879,0,5.855,0c0-5.855,0-9.746,0-11.672C484.4,446.741,486.339,446.741,487.631,446.741z"/>
	</g>
	<g>
		<path fill="#FFFFFF" d="M528.495,455.484c0-0.659,0-1.634,0-2.926c-1.29,0-3.241,0-5.853,0c0,1.292,0,3.243,0,5.855
			c1.951,0,4.88,0,8.781,0c0.79,0,1.478,0.277,2.058,0.83c0.554,0.58,0.83,1.266,0.83,2.056c0,2.612,0,6.502,0,11.672
			c0,0.817-0.277,1.502-0.83,2.056c-0.58,0.58-1.268,0.871-2.058,0.871c-2.612,0-6.5,0-11.67,0c-0.817,0-1.505-0.29-2.058-0.871
			c-0.58-0.554-0.87-1.239-0.87-2.056c0-1.292,0-3.232,0-5.817c1.295,0,3.232,0,5.817,0c0,0.634,0,1.609,0,2.928
			c1.317,0,3.268,0,5.853,0c0-1.319,0-3.27,0-5.855c-1.951,0-4.866,0-8.741,0c-0.817,0-1.505-0.277-2.058-0.83
			c-0.58-0.58-0.87-1.279-0.87-2.098c0-1.29,0-2.913,0-4.866c0-1.951,0-4.219,0-6.804c0-0.79,0.29-1.475,0.87-2.056
			c0.554-0.556,1.241-0.833,2.058-0.833c2.585,0,6.473,0,11.67,0c0.79,0,1.478,0.277,2.058,0.833c0.554,0.58,0.83,1.266,0.83,2.056
			c0,1.319,0,3.27,0,5.855C533.018,455.484,531.08,455.484,528.495,455.484z"/>
	</g>
	<g>
		<path fill="#FFFFFF" d="M557.652,446.741c0,5.83,0,14.572,0,26.23c0,0.817-0.277,1.502-0.83,2.056
			c-0.58,0.58-1.268,0.871-2.058,0.871c-2.611,0-6.5,0-11.67,0c-0.817,0-1.504-0.29-2.058-0.871
			c-0.58-0.554-0.871-1.239-0.871-2.056c0-2.902,0-6.543,0-10.92c0-4.377,0-9.48,0-15.311c1.295,0,3.232,0,5.817,0
			c0,5.17,0,12.951,0,23.342c1.317,0,3.268,0,5.853,0c0-5.196,0-12.976,0-23.342C553.13,446.741,555.067,446.741,557.652,446.741z"
			/>
	</g>
	<g>
		<path fill="#FFFFFF" d="M578.108,461.299c0.79,0,1.473,0.29,2.054,0.87c0.554,0.554,0.83,1.241,0.83,2.058
			c0,1.951,0,4.866,0,8.743c0,0.817-0.277,1.502-0.83,2.056c-0.58,0.58-1.264,0.871-2.054,0.871c-1.955,0-4.879,0-8.786,0
			c-1.29,0-3.228,0-5.813,0c0-1.292,0-3.23,0-5.815c0-1.319,0-3.27,0-5.855c0-1.292,0-3.23,0-5.815c0-0.661,0-1.478,0-2.453
			c0-0.975,0-2.109,0-3.402c0-1.293,0-3.232,0-5.817c1.29,0,3.228,0,5.813,0c1.951,0,4.879,0,8.786,0
			c0.79,0,1.473,0.277,2.054,0.833c0.554,0.58,0.83,1.266,0.83,2.056c0,1.953,0,4.88,0,8.784c0,0.79-0.277,1.475-0.83,2.056
			C579.581,461.022,578.898,461.299,578.108,461.299z M569.322,458.413c1.321,0,3.272,0,5.857,0c0-0.239,0-0.58,0-1.029
			c0-1.083,0-2.69,0-4.826c-1.295,0-3.246,0-5.857,0C569.322,453.85,569.322,455.801,569.322,458.413z M569.322,470.083
			c1.321,0,3.272,0,5.857,0c0-0.239,0-0.58,0-1.029c0-1.08,0-2.69,0-4.826c-1.295,0-3.246,0-5.857,0
			C569.322,465.52,569.322,467.471,569.322,470.083z"/>
	</g>
	<g>
		<path fill="#FFFFFF" d="M598.519,455.484c0-0.659,0-1.634,0-2.926c-1.295,0-3.246,0-5.857,0c0,1.292,0,3.243,0,5.855
			c1.951,0,4.88,0,8.786,0c0.79,0,1.473,0.277,2.054,0.83c0.554,0.58,0.83,1.266,0.83,2.056c0,2.612,0,6.502,0,11.672
			c0,0.817-0.277,1.502-0.83,2.056c-0.58,0.58-1.263,0.871-2.054,0.871c-2.612,0-6.505,0-11.674,0c-0.817,0-1.5-0.29-2.054-0.871
			c-0.58-0.554-0.871-1.239-0.871-2.056c0-1.292,0-3.232,0-5.817c1.29,0,3.228,0,5.813,0c0,0.634,0,1.609,0,2.928
			c1.321,0,3.273,0,5.857,0c0-1.319,0-3.27,0-5.855c-1.951,0-4.866,0-8.746,0c-0.817,0-1.5-0.277-2.054-0.83
			c-0.58-0.58-0.871-1.279-0.871-2.098c0-1.29,0-2.913,0-4.866c0-1.951,0-4.219,0-6.804c0-0.79,0.29-1.475,0.871-2.056
			c0.554-0.556,1.237-0.833,2.054-0.833c2.585,0,6.478,0,11.674,0c0.79,0,1.473,0.277,2.054,0.833c0.554,0.58,0.83,1.266,0.83,2.056
			c0,1.319,0,3.27,0,5.855C603.041,455.484,601.104,455.484,598.519,455.484z"/>
	</g>
	<g>
		<path fill="#FFFFFF" d="M621.859,455.484c0-0.659,0-1.634,0-2.926c-1.295,0-3.246,0-5.857,0c0,3.902,0,9.743,0,17.525
			c1.321,0,3.272,0,5.857,0c0-0.658,0-1.636,0-2.928c1.29,0,3.228,0,5.812,0c0,1.292,0,3.232,0,5.817
			c0,0.817-0.277,1.502-0.83,2.056c-0.58,0.58-1.263,0.871-2.054,0.871c-2.612,0-6.505,0-11.674,0c-0.817,0-1.5-0.29-2.054-0.871
			c-0.58-0.554-0.87-1.239-0.87-2.056c0-1.953,0-4.879,0-8.784c0-1.607,0-3.612,0-6.013c0-2.453,0-5.301,0-8.545
			c0-0.79,0.29-1.475,0.87-2.056c0.554-0.556,1.237-0.833,2.054-0.833c2.585,0,6.478,0,11.674,0c0.79,0,1.473,0.277,2.054,0.833
			c0.554,0.58,0.83,1.266,0.83,2.056c0,1.319,0,3.27,0,5.855C626.381,455.484,624.443,455.484,621.859,455.484z"/>
	</g>
	<g>
		<path fill="#FFFFFF" d="M648.127,461.299c0.79,0,1.478,0.29,2.058,0.87c0.554,0.554,0.83,1.241,0.83,2.058
			c0,2.585,0,6.476,0,11.67c-1.295,0-3.232,0-5.817,0c0-2.585,0-6.473,0-11.67c-1.29,0-3.241,0-5.853,0c0,2.585,0,6.476,0,11.67
			c-1.295,0-3.232,0-5.817,0c0-2.585,0-6.473,0-11.67c0-1.292,0-3.23,0-5.815c0-1.292,0-2.915,0-4.866c0-1.953,0-4.221,0-6.806
			c1.295,0,3.232,0,5.817,0c1.951,0,4.88,0,8.781,0c0.79,0,1.478,0.277,2.058,0.833c0.554,0.58,0.83,1.266,0.83,2.056
			c0,1.953,0,4.88,0,8.784c0,0.79-0.277,1.475-0.83,2.056C649.605,461.022,648.917,461.299,648.127,461.299z M645.198,458.413
			c0-0.239,0-0.58,0-1.029c0-1.083,0-2.69,0-4.826c-1.29,0-3.241,0-5.853,0c0,1.292,0,3.243,0,5.855
			C640.662,458.413,642.613,458.413,645.198,458.413z"/>
	</g>
	<g>
		<path fill="#FFFFFF" d="M656.868,446.741c0.978,0,2.915,0,5.817,0c0,3.641,0,10.933,0,21.878c0,1.214,0,3.641,0,7.279
			c-0.951,0-2.888,0-5.817,0c0-3.243,0-7.292,0-12.145C656.868,458.9,656.868,453.23,656.868,446.741z"/>
	</g>
	<g>
		<path fill="#FFFFFF" d="M686.025,449.629c0,2.612,0,6.502,0,11.67c0,0.819-0.277,1.518-0.83,2.098
			c-0.58,0.554-1.268,0.83-2.058,0.83c-1.951,0-4.879,0-8.781,0c0,2.585,0,6.476,0,11.67c-1.295,0-3.232,0-5.817,0
			c0-1.292,0-2.913,0-4.866c0-1.924,0-4.192,0-6.804c0-1.292,0-3.23,0-5.815c0-1.319,0-3.27,0-5.855c0-1.293,0-3.232,0-5.817
			c1.295,0,3.232,0,5.817,0c1.951,0,4.88,0,8.781,0c0.79,0,1.478,0.277,2.058,0.833
			C685.748,448.154,686.025,448.839,686.025,449.629z M674.355,458.413c1.317,0,3.268,0,5.853,0c0-0.239,0-0.58,0-1.029
			c0-1.083,0-2.69,0-4.826c-1.29,0-3.241,0-5.853,0C674.355,453.85,674.355,455.801,674.355,458.413z"/>
	</g>
	<g>
		<path fill="#FFFFFF" d="M709.365,452.558c-2.585,0-4.523,0-5.813,0c0,11.683,0,19.462,0,23.34c-2.929,0-4.88,0-5.857,0
			c0-11.656,0-19.438,0-23.34c-2.902,0-4.839,0-5.813,0c0-1.451,0-2.665,0-3.641c0-0.976,0-1.701,0-2.176c8.755,0,14.585,0,17.483,0
			C709.365,449.326,709.365,451.265,709.365,452.558z"/>
	</g>
	<g>
		<path fill="#FFFFFF" d="M715.222,446.741c0.973,0,2.911,0,5.812,0c0,3.641,0,10.933,0,21.878c0,1.214,0,3.641,0,7.279
			c-0.946,0-2.888,0-5.812,0c0-3.243,0-7.292,0-12.145C715.222,458.9,715.222,453.23,715.222,446.741z"/>
	</g>
	<g>
		<path fill="#FFFFFF" d="M744.374,449.629c0,5.196,0,12.976,0,23.342c0,0.817-0.277,1.502-0.83,2.056
			c-0.58,0.58-1.264,0.871-2.054,0.871c-2.611,0-6.505,0-11.674,0c-0.817,0-1.5-0.29-2.053-0.871
			c-0.58-0.554-0.871-1.239-0.871-2.056c0-1.953,0-4.879,0-8.784c0-1.607,0-3.612,0-6.013c0-2.453,0-5.301,0-8.545
			c0-0.79,0.29-1.475,0.871-2.056c0.554-0.556,1.237-0.833,2.053-0.833c2.585,0,6.478,0,11.674,0c0.79,0,1.473,0.277,2.054,0.833
			C744.097,448.154,744.374,448.839,744.374,449.629z M732.704,470.083c1.321,0,3.272,0,5.857,0c0-0.263,0-0.647,0-1.147
			c0-3.641,0-9.098,0-16.377c-1.295,0-3.246,0-5.857,0c0,1.951,0,4.866,0,8.741C732.704,463.252,732.704,466.178,732.704,470.083z"
			/>
	</g>
	<g>
		<path fill="#FFFFFF" d="M767.718,449.629c0,5.855,0,14.612,0,26.268c-1.295,0-3.232,0-5.817,0c0-5.194,0-12.976,0-23.34
			c-1.29,0-3.241,0-5.853,0c0,5.194,0,12.976,0,23.34c-1.295,0-3.232,0-5.817,0c0-3.243,0-7.292,0-12.145c0-4.853,0-10.522,0-17.011
			c1.295,0,3.232,0,5.817,0c1.951,0,4.879,0,8.781,0c0.79,0,1.478,0.277,2.058,0.833
			C767.441,448.154,767.718,448.839,767.718,449.629z"/>
	</g>
	<g>
		<path fill="#FFFFFF" d="M785.241,455.484c0-0.659,0-1.634,0-2.926c-1.29,0-3.241,0-5.853,0c0,1.292,0,3.243,0,5.855
			c1.951,0,4.88,0,8.781,0c0.79,0,1.478,0.277,2.058,0.83c0.554,0.58,0.83,1.266,0.83,2.056c0,2.612,0,6.502,0,11.672
			c0,0.817-0.277,1.502-0.83,2.056c-0.58,0.58-1.268,0.871-2.058,0.871c-2.612,0-6.5,0-11.67,0c-0.817,0-1.504-0.29-2.058-0.871
			c-0.58-0.554-0.871-1.239-0.871-2.056c0-1.292,0-3.232,0-5.817c1.295,0,3.232,0,5.817,0c0,0.634,0,1.609,0,2.928
			c1.317,0,3.268,0,5.853,0c0-1.319,0-3.27,0-5.855c-1.951,0-4.866,0-8.741,0c-0.817,0-1.504-0.277-2.058-0.83
			c-0.58-0.58-0.871-1.279-0.871-2.098c0-1.29,0-2.913,0-4.866c0-1.951,0-4.219,0-6.804c0-0.79,0.29-1.475,0.871-2.056
			c0.553-0.556,1.241-0.833,2.058-0.833c2.585,0,6.474,0,11.67,0c0.79,0,1.478,0.277,2.058,0.833c0.554,0.58,0.83,1.266,0.83,2.056
			c0,1.319,0,3.27,0,5.855C789.763,455.484,787.826,455.484,785.241,455.484z"/>
	</g>
	<g>
		<path fill="#FFFFFF" d="M802.728,470.083c0,1.293,0,2.255,0,2.888c0,1.293,0,2.268,0,2.926c-2.585,2.585-4.523,4.522-5.817,5.815
			c0-1.609,0-2.821,0-3.638c1.268-1.083,2.098-1.808,2.496-2.176c-1.241,0-2.071,0-2.496,0c0-1.478,0-2.703,0-3.679
			c0-0.951,0-1.663,0-2.136C799.495,470.083,801.433,470.083,802.728,470.083z"/>
	</g>
	<g>
		<path fill="#FFFFFF" d="M230.886,498.242c0,5.855,0,14.612,0,26.268c-1.292,0-3.231,0-5.816,0c0-5.194,0-12.976,0-23.34
			c-1.293,0-3.243,0-5.855,0c0,5.194,0,12.976,0,23.34c-1.292,0-3.23,0-5.815,0c0-3.243,0-7.293,0-12.145c0-4.853,0-10.522,0-17.011
			c1.292,0,3.23,0,5.815,0c1.952,0,4.88,0,8.783,0c0.791,0,1.477,0.277,2.058,0.833
			C230.609,496.766,230.886,497.451,230.886,498.242z"/>
	</g>
	<g>
		<path fill="#FFFFFF" d="M254.225,498.242c0,5.196,0,12.976,0,23.342c0,0.817-0.277,1.502-0.83,2.056
			c-0.581,0.58-1.267,0.871-2.058,0.871c-2.611,0-6.501,0-11.67,0c-0.818,0-1.503-0.29-2.057-0.871
			c-0.58-0.554-0.871-1.239-0.871-2.056c0-1.953,0-4.88,0-8.784c0-1.607,0-3.612,0-6.013c0-2.453,0-5.302,0-8.545
			c0-0.79,0.29-1.475,0.871-2.056c0.554-0.556,1.239-0.833,2.057-0.833c2.585,0,6.474,0,11.67,0c0.791,0,1.477,0.277,2.058,0.833
			C253.949,496.766,254.225,497.451,254.225,498.242z M242.555,518.695c1.319,0,3.27,0,5.855,0c0-0.263,0-0.647,0-1.147
			c0-3.641,0-9.098,0-16.378c-1.292,0-3.243,0-5.855,0c0,1.951,0,4.866,0,8.741C242.555,511.865,242.555,514.791,242.555,518.695z"
			/>
	</g>
	<g>
		<path fill="#FFFFFF" d="M277.566,501.17c-2.585,0-4.523,0-5.816,0c0,11.683,0,19.462,0,23.34c-2.927,0-4.879,0-5.855,0
			c0-11.656,0-19.438,0-23.34c-2.901,0-4.839,0-5.815,0c0-1.451,0-2.665,0-3.641c0-0.976,0-1.701,0-2.176c8.756,0,14.584,0,17.486,0
			C277.566,497.938,277.566,499.878,277.566,501.17z"/>
	</g>
	<g>
		<path fill="#FFFFFF" d="M306.762,495.353c0.976,0,2.914,0,5.815,0c0,3.641,0,10.933,0,21.878c0,1.214,0,3.641,0,7.279
			c-0.949,0-2.887,0-5.815,0c0-2.427,0-6.065,0-10.918C306.762,508.74,306.762,502.659,306.762,495.353z"/>
	</g>
	<g>
		<path fill="#FFFFFF" d="M330.102,504.097c0-0.659,0-1.634,0-2.926c-1.292,0-3.243,0-5.855,0c0,3.902,0,9.743,0,17.525
			c1.319,0,3.27,0,5.855,0c0-0.659,0-1.636,0-2.929c1.293,0,3.231,0,5.816,0c0,1.292,0,3.232,0,5.817
			c0,0.817-0.277,1.502-0.83,2.056c-0.581,0.58-1.267,0.871-2.058,0.871c-2.611,0-6.501,0-11.67,0c-0.818,0-1.503-0.29-2.057-0.871
			c-0.58-0.554-0.87-1.239-0.87-2.056c0-1.953,0-4.88,0-8.784c0-1.607,0-3.612,0-6.013c0-2.453,0-5.302,0-8.545
			c0-0.79,0.29-1.475,0.87-2.056c0.554-0.556,1.239-0.833,2.057-0.833c2.585,0,6.475,0,11.67,0c0.791,0,1.477,0.277,2.058,0.833
			c0.554,0.58,0.83,1.266,0.83,2.056c0,1.319,0,3.27,0,5.855C334.625,504.097,332.687,504.097,330.102,504.097z"/>
	</g>
	<g>
		<path fill="#FFFFFF" d="M359.258,498.242c0,5.196,0,12.976,0,23.342c0,0.817-0.277,1.502-0.83,2.056
			c-0.582,0.58-1.267,0.871-2.058,0.871c-2.611,0-6.501,0-11.67,0c-0.818,0-1.503-0.29-2.057-0.871
			c-0.58-0.554-0.871-1.239-0.871-2.056c0-1.953,0-4.88,0-8.784c0-1.607,0-3.612,0-6.013c0-2.453,0-5.302,0-8.545
			c0-0.79,0.29-1.475,0.871-2.056c0.554-0.556,1.239-0.833,2.057-0.833c2.585,0,6.474,0,11.67,0c0.791,0,1.477,0.277,2.058,0.833
			C358.982,496.766,359.258,497.451,359.258,498.242z M347.588,518.695c1.319,0,3.27,0,5.855,0c0-0.263,0-0.647,0-1.147
			c0-3.641,0-9.098,0-16.378c-1.293,0-3.243,0-5.855,0c0,1.951,0,4.866,0,8.741C347.588,511.865,347.588,514.791,347.588,518.695z"
			/>
	</g>
	<g>
		<path fill="#FFFFFF" d="M370.21,511.148c0-0.431,0-1.069,0-1.915c-0.846,0-2.122,0-3.83,0c0,0.846,0,2.123,0,3.83
			c1.278,0,3.192,0,5.745,0c0.518,0,0.967,0.183,1.347,0.544c0.362,0.38,0.542,0.826,0.542,1.344c0,1.708,0,4.252,0,7.634
			c0,0.534-0.181,0.982-0.542,1.344c-0.381,0.379-0.829,0.569-1.347,0.569c-1.707,0-4.252,0-7.632,0
			c-0.536,0-0.983-0.19-1.346-0.569c-0.379-0.362-0.569-0.81-0.569-1.344c0-0.846,0-2.114,0-3.806c0.845,0,2.113,0,3.802,0
			c0,0.415,0,1.054,0,1.918c0.864,0,2.14,0,3.83,0c0-0.864,0-2.138,0-3.83c-1.277,0-3.182,0-5.718,0
			c-0.536,0-0.983-0.181-1.346-0.545c-0.379-0.379-0.569-0.835-0.569-1.371c0-0.846,0-1.906,0-3.185c0-1.275,0-2.759,0-4.449
			c0-0.516,0.19-0.964,0.569-1.344c0.363-0.366,0.81-0.545,1.346-0.545c1.691,0,4.234,0,7.632,0c0.518,0,0.967,0.178,1.347,0.545
			c0.362,0.379,0.542,0.828,0.542,1.344c0,0.864,0,2.138,0,3.83C373.168,511.148,371.901,511.148,370.21,511.148z"/>
	</g>
</g>
<g>
	<rect x="296.939" y="102.06" fill="#FFFFFF" width="35.073" height="1.325"/>
</g>
<g>
	<rect x="321.88" y="113.476" fill="#FFFFFF" width="35.074" height="1.325"/>
</g>
<g>
	<rect x="291.314" y="122.782" fill="#FFFFFF" width="28.827" height="1.325"/>
</g>
<g>
	<rect x="311.581" y="112.936" fill="#FFFFFF" width="6.783" height="2.736"/>
</g>
<g>
	<rect x="277.541" y="122.036" fill="#FFFFFF" width="6.783" height="2.736"/>
</g>
<g>
	<rect x="265.381" y="121.291" fill="#FFFFFF" width="6.783" height="2.736"/>
</g>
<g>
	<rect x="284.78" y="101.272" fill="#FFFFFF" width="6.783" height="2.736"/>
</g>
<g>
	<path fill="#FFFFFF" d="M370.017,85.519l-8.129-4.968l15.206-10.758l14.728,9.001l-8.333,5.895l-6.599-4.033L370.017,85.519z
		 M365.004,80.446l4.943,3.021l6.873-4.863l6.599,4.034l5.286-3.739l-11.543-7.055L365.004,80.446z"/>
</g>
<g>
	<path fill="#FFFFFF" d="M375.486,151.599l-14.727-9.001l8.332-5.894l6.598,4.032l6.874-4.863l8.129,4.968L375.486,151.599z
		 M363.876,142.493l11.541,7.055l12.159-8.602l-4.943-3.021l-6.874,4.863l-6.599-4.033L363.876,142.493z"/>
</g>
<g>
	<path fill="#FFFFFF" d="M375.789,136.494l-19.849-12.132l19.201-13.583l-18.431-11.266l20.539-14.532l38.285,23.397
		L375.789,136.494z M359.055,124.257l16.664,10.185l36.698-25.959l-35.1-21.45l-17.492,12.375l18.431,11.266L359.055,124.257z"/>
</g>
<g>
	<g>
		
			<rect x="776.784" y="314.088" transform="matrix(0.087 -0.9962 0.9962 0.087 403.6157 1069.9236)" fill="#FFFFFF" width="17.538" height="1.327"/>
	</g>
	<g>
		
			<rect x="760.044" y="287.154" transform="matrix(0.0869 -0.9962 0.9962 0.0869 419.3335 1033.1604)" fill="#FFFFFF" width="26.498" height="1.329"/>
	</g>
	<g>
		
			<rect x="768.314" y="306.543" transform="matrix(0.0869 -0.9962 0.9962 0.0869 397.932 1049.9575)" fill="#FFFFFF" width="6.782" height="2.737"/>
	</g>
	<g>
		
			<rect x="780.029" y="332.323" transform="matrix(0.0869 -0.9962 0.9962 0.0869 382.9232 1085.1575)" fill="#FFFFFF" width="6.786" height="2.737"/>
	</g>
	<g>
		<path fill="#FFFFFF" d="M789.252,278.533l-11.301-20.625l-13.297,17.027l-12.092-22.067l0.346-0.445l27.273-34.917l23.391,42.697
			L789.252,278.533z M778.2,254.8l11.302,20.625l12.025-15.389l-21.596-39.425l-25.324,32.42l10.297,18.795L778.2,254.8z"/>
	</g>
	<g>
		<path fill="#FFFFFF" d="M783.763,219.538l-3.288-6.006l-3.871,4.958l-4.156-7.586l8.857-11.338l7.444,13.592L783.763,219.538z
			 M780.729,210.423l3.288,6.008l2.688-3.44l-5.654-10.318l-6.558,8.396l2.362,4.314L780.729,210.423z"/>
	</g>
	<g>
		<linearGradient id="SVGID_10_" gradientUnits="userSpaceOnUse" x1="778.6077" y1="261.8027" x2="778.6077" y2="229.3512">
			<stop  offset="0" style="stop-color:#2E74FF"/>
			<stop  offset="0.5644" style="stop-color:#00FFEF"/>
		</linearGradient>
		<polygon fill="url(#SVGID_10_)" points="778.607,250.256 784.959,261.803 792.33,252.345 779.691,229.351 764.885,248.358 
			771.169,259.8 		"/>
	</g>
</g>
<g>
	<g>
		<path fill="#FFFFFF" d="M108.932,357.65l-15.255-22.371l-13.335,20.996l-16.159-23.706l27.541-43.365l31.414,46.079
			L108.932,357.65z M93.626,332.163l15.255,22.371l12.207-19.219l-29.312-42.994l-25.541,40.217l14.056,20.621L93.626,332.163z"/>
	</g>
	<g>
		<linearGradient id="SVGID_11_" gradientUnits="userSpaceOnUse" x1="93.5907" y1="339.1966" x2="93.5907" y2="302.5979">
			<stop  offset="0" style="stop-color:#2E74FF"/>
			<stop  offset="0.6634" style="stop-color:#6FFFEF"/>
		</linearGradient>
		<polygon fill="url(#SVGID_11_)" points="93.578,326.668 102.149,339.197 109.537,327.529 92.488,302.598 77.645,326.036 
			86.124,338.444 		"/>
	</g>
</g>
<g>
	<g>
		<path fill="#FFFFFF" d="M106.361,285.363l-15.255-22.37l-13.335,20.995l-16.159-23.705l27.541-43.367l31.414,46.079
			L106.361,285.363z M91.054,259.875l15.255,22.372l12.207-19.218l-29.312-42.994L63.663,260.25l14.056,20.622L91.054,259.875z"/>
	</g>
	<g>
		<linearGradient id="SVGID_12_" gradientUnits="userSpaceOnUse" x1="91.0193" y1="266.9098" x2="91.0193" y2="230.311">
			<stop  offset="0" style="stop-color:#2E74FF"/>
			<stop  offset="0.651" style="stop-color:#6CF8F0"/>
			<stop  offset="1" style="stop-color:#6FFFEF"/>
		</linearGradient>
		<polygon fill="url(#SVGID_12_)" points="91.006,254.381 99.578,266.91 106.965,255.242 89.916,230.311 75.073,253.749 
			83.552,266.158 		"/>
	</g>
</g>
<g>
	<linearGradient id="SVGID_13_" gradientUnits="userSpaceOnUse" x1="411.5081" y1="532.1931" x2="411.5081" y2="485.7162">
		<stop  offset="0" style="stop-color:#2E31FF"/>
		<stop  offset="0.7228" style="stop-color:#00FFEF"/>
	</linearGradient>
	<polygon fill="url(#SVGID_13_)" points="408.465,509.891 402.188,524.548 416.69,524.528 429.189,495.376 400.057,495.411 
		393.827,509.92 	"/>
</g>
<g>
	<linearGradient id="SVGID_14_" gradientUnits="userSpaceOnUse" x1="373.4841" y1="110.7321" x2="405.1218" y2="110.7321">
		<stop  offset="0" style="stop-color:#2E74FF"/>
		<stop  offset="0.4802" style="stop-color:#6FFFEF"/>
	</linearGradient>
	<polygon fill="url(#SVGID_14_)" points="384.234,110.72 373.484,118.352 383.725,124.592 405.122,109.413 384.548,96.873 
		373.897,104.424 	"/>
</g>
<g>
	<rect x="427.002" y="107.367" fill="#FFFFFF" width="6.783" height="2.736"/>
</g>
<g>
	<rect x="449.834" y="107.367" fill="#FFFFFF" width="6.781" height="2.736"/>
</g>
<g>
	<rect x="472.664" y="107.367" fill="#FFFFFF" width="6.783" height="2.736"/>
</g>
<linearGradient id="SVGID_15_" gradientUnits="userSpaceOnUse" x1="95.1126" y1="383.6193" x2="95.1126" y2="359.8109">
	<stop  offset="0" style="stop-color:#2E74FF"/>
	<stop  offset="1" style="stop-color:#6FFFEF"/>
</linearGradient>
<polygon fill="url(#SVGID_15_)" points="104.752,377.333 94.636,359.811 83.823,377.333 45.874,377.333 45.874,383.619 
	144.351,383.619 144.351,377.333 "/>
<g>
	<path fill="none" stroke="#FFFFFF" stroke-width="0.5" stroke-miterlimit="10" d="M62.651,401.361c0-0.487,0-1.203,0-2.154
		c-0.951,0-2.386,0-4.308,0c0,0.951,0,2.386,0,4.308c1.436,0,3.59,0,6.463,0c0.581,0,1.086,0.203,1.513,0.612
		c0.407,0.426,0.612,0.931,0.612,1.513c0,1.92,0,4.784,0,8.587c0,0.603-0.204,1.107-0.612,1.513
		c-0.427,0.427-0.932,0.641-1.513,0.641c-1.922,0-4.785,0-8.588,0c-0.602,0-1.106-0.214-1.513-0.641
		c-0.427-0.406-0.641-0.911-0.641-1.513c0-0.951,0-2.377,0-4.279c0.951,0,2.377,0,4.279,0c0,0.467,0,1.183,0,2.154
		c0.97,0,2.406,0,4.308,0c0-0.971,0-2.406,0-4.308c-1.436,0-3.58,0-6.433,0c-0.602,0-1.106-0.203-1.513-0.612
		c-0.427-0.426-0.641-0.942-0.641-1.542c0-0.951,0-2.145,0-3.58c0-1.438,0-3.105,0-5.007c0-0.583,0.213-1.087,0.641-1.516
		c0.407-0.406,0.912-0.609,1.513-0.609c1.902,0,4.765,0,8.588,0c0.581,0,1.086,0.203,1.513,0.609
		c0.407,0.429,0.612,0.933,0.612,1.516c0,0.969,0,2.406,0,4.308C65.979,401.361,64.553,401.361,62.651,401.361z"/>
	<path fill="none" stroke="#FFFFFF" stroke-width="0.5" stroke-miterlimit="10" d="M84.107,399.206c-1.903,0-3.329,0-4.28,0
		c0,8.596,0,14.322,0,17.174c-2.154,0-3.59,0-4.308,0c0-8.578,0-14.304,0-17.174c-2.135,0-3.561,0-4.279,0c0-1.067,0-1.96,0-2.678
		c0-0.719,0-1.252,0-1.6c6.443,0,10.732,0,12.867,0C84.107,396.829,84.107,398.256,84.107,399.206z"/>
	<path fill="none" stroke="#FFFFFF" stroke-width="0.5" stroke-miterlimit="10" d="M101.282,416.381c-0.952,0-2.378,0-4.28,0
		c0-1.902,0-4.763,0-8.587c-0.951,0-2.386,0-4.308,0c0,1.902,0,4.763,0,8.587c-0.951,0-2.377,0-4.279,0c0-1.612,0-4.036,0-7.277
		c0-1.339,0-3.009,0-5.007c0-2.02,0-4.368,0-7.045c0-0.583,0.213-1.087,0.641-1.516c0.407-0.406,0.912-0.609,1.513-0.609
		c1.902,0,4.765,0,8.588,0c0.581,0,1.086,0.203,1.513,0.609c0.408,0.429,0.612,0.933,0.612,1.516
		C101.282,401.361,101.282,407.803,101.282,416.381z M97.002,403.515c0-0.176,0-0.426,0-0.757c0-0.797,0-1.98,0-3.551
		c-0.951,0-2.386,0-4.308,0c0,0.951,0,2.386,0,4.308C93.664,403.515,95.1,403.515,97.002,403.515z"/>
	<path fill="none" stroke="#FFFFFF" stroke-width="0.5" stroke-miterlimit="10" d="M116.333,405.64c0.581,0,1.086,0.214,1.513,0.641
		c0.407,0.406,0.612,0.911,0.612,1.513c0,1.902,0,4.763,0,8.587c-0.952,0-2.379,0-4.28,0c0-1.902,0-4.763,0-8.587
		c-0.951,0-2.386,0-4.308,0c0,1.902,0,4.763,0,8.587c-0.951,0-2.377,0-4.279,0c0-1.902,0-4.763,0-8.587c0-0.951,0-2.377,0-4.279
		c0-0.951,0-2.145,0-3.58c0-1.438,0-3.105,0-5.007c0.951,0,2.377,0,4.279,0c1.436,0,3.59,0,6.463,0c0.581,0,1.086,0.203,1.513,0.609
		c0.407,0.429,0.612,0.933,0.612,1.516c0,1.435,0,3.589,0,6.462c0,0.583-0.204,1.087-0.612,1.513
		C117.419,405.434,116.914,405.64,116.333,405.64z M114.178,403.515c0-0.176,0-0.426,0-0.757c0-0.797,0-1.98,0-3.551
		c-0.951,0-2.386,0-4.308,0c0,0.951,0,2.386,0,4.308C110.839,403.515,112.276,403.515,114.178,403.515z"/>
	<path fill="none" stroke="#FFFFFF" stroke-width="0.5" stroke-miterlimit="10" d="M135.633,399.206c-1.903,0-3.329,0-4.28,0
		c0,8.596,0,14.322,0,17.174c-2.154,0-3.59,0-4.308,0c0-8.578,0-14.304,0-17.174c-2.135,0-3.561,0-4.279,0c0-1.067,0-1.96,0-2.678
		c0-0.719,0-1.252,0-1.6c6.443,0,10.733,0,12.867,0C135.633,396.829,135.633,398.256,135.633,399.206z"/>
</g>
<g>
	<g>
		<circle fill="#FFFFFF" cx="542.907" cy="107.378" r="20.847"/>
	</g>
	<g>
		<g>
			<g>
				<path fill-rule="evenodd" clip-rule="evenodd" fill="#793DF4" d="M535.147,107.651c2.536-4.435,5.027-8.794,7.603-13.301
					c2.567,4.487,5.067,8.855,7.605,13.296c-1.301,0.733-2.569,1.445-3.835,2.158c-1.101,0.619-2.196,1.252-3.308,1.848
					c-0.208,0.112-0.558,0.187-0.737,0.091C540.045,110.41,537.632,109.045,535.147,107.651z"/>
			</g>
			<g>
				<path fill-rule="evenodd" clip-rule="evenodd" fill="#793DF4" d="M535.456,109.372c2.259,1.271,4.527,2.53,6.772,3.821
					c0.402,0.23,0.692,0.213,1.08-0.012c2.038-1.179,4.094-2.328,6.143-3.485c0.187-0.107,0.386-0.194,0.775-0.387
					c-2.545,3.656-4.969,7.139-7.469,10.73c-2.48-3.561-4.92-7.063-7.359-10.562C535.415,109.441,535.435,109.406,535.456,109.372z"
					/>
			</g>
		</g>
	</g>
</g>
<g>
	<g>
		<circle fill="#FFFFFF" cx="709.195" cy="107.378" r="20.847"/>
	</g>
	<g>
		<g>
			<g>
				<path fill-rule="evenodd" clip-rule="evenodd" fill="#793DF4" d="M701.436,107.651c2.536-4.435,5.027-8.794,7.603-13.301
					c2.567,4.487,5.067,8.855,7.605,13.296c-1.301,0.733-2.569,1.445-3.835,2.158c-1.101,0.619-2.196,1.252-3.308,1.848
					c-0.208,0.112-0.558,0.187-0.737,0.091C706.333,110.41,703.92,109.045,701.436,107.651z"/>
			</g>
			<g>
				<path fill-rule="evenodd" clip-rule="evenodd" fill="#793DF4" d="M701.744,109.372c2.259,1.271,4.527,2.53,6.772,3.821
					c0.402,0.23,0.692,0.213,1.08-0.012c2.038-1.179,4.094-2.328,6.143-3.485c0.187-0.107,0.386-0.194,0.775-0.387
					c-2.545,3.656-4.969,7.139-7.469,10.73c-2.48-3.561-4.92-7.063-7.359-10.562C701.704,109.441,701.724,109.406,701.744,109.372z"
					/>
			</g>
		</g>
	</g>
</g>
<g>
	<g>
		<circle fill="#FFFFFF" cx="625.792" cy="122.6" r="20.848"/>
	</g>
	<g>
		<g>
			<g>
				<path fill-rule="evenodd" clip-rule="evenodd" fill="#793DF4" d="M618.033,122.872c2.536-4.435,5.027-8.794,7.603-13.301
					c2.567,4.487,5.067,8.855,7.605,13.296c-1.301,0.733-2.569,1.445-3.835,2.158c-1.1,0.619-2.196,1.253-3.308,1.848
					c-0.208,0.112-0.558,0.187-0.734,0.09C622.93,125.631,620.517,124.266,618.033,122.872z"/>
			</g>
			<g>
				<path fill-rule="evenodd" clip-rule="evenodd" fill="#793DF4" d="M618.341,124.593c2.259,1.271,4.527,2.53,6.772,3.822
					c0.402,0.231,0.692,0.213,1.08-0.011c2.038-1.18,4.094-2.329,6.143-3.486c0.188-0.106,0.386-0.194,0.775-0.387
					c-2.545,3.656-4.969,7.138-7.469,10.73c-2.48-3.56-4.92-7.063-7.359-10.563C618.301,124.663,618.321,124.628,618.341,124.593z"
					/>
			</g>
		</g>
	</g>
</g>
<g>
	<g>
		<linearGradient id="SVGID_16_" gradientUnits="userSpaceOnUse" x1="116.5861" y1="471.7166" x2="116.5861" y2="437.8098">
			<stop  offset="0" style="stop-color:#2E74FF"/>
			<stop  offset="0.6832" style="stop-color:#6FFFEF"/>
		</linearGradient>
		<circle fill="url(#SVGID_16_)" cx="116.586" cy="454.763" r="16.953"/>
	</g>
	<g>
		<g>
			<g>
				<path fill-rule="evenodd" clip-rule="evenodd" fill="#793DF4" d="M110.276,454.984c2.064-3.607,4.086-7.152,6.182-10.817
					c2.088,3.652,4.119,7.201,6.185,10.813c-1.06,0.594-2.088,1.176-3.118,1.757c-0.895,0.502-1.786,1.018-2.692,1.502
					c-0.166,0.089-0.452,0.152-0.597,0.074C114.259,457.228,112.297,456.118,110.276,454.984z"/>
			</g>
			<g>
				<path fill-rule="evenodd" clip-rule="evenodd" fill="#793DF4" d="M110.525,456.386c1.839,1.031,3.682,2.056,5.509,3.107
					c0.327,0.185,0.561,0.172,0.88-0.011c1.656-0.958,3.329-1.893,4.993-2.835c0.153-0.085,0.316-0.158,0.632-0.312
					c-2.07,2.971-4.04,5.801-6.076,8.721c-2.016-2.893-4-5.741-5.982-8.585C110.495,456.44,110.511,456.413,110.525,456.386z"/>
			</g>
		</g>
	</g>
</g>
<g>
	<linearGradient id="SVGID_17_" gradientUnits="userSpaceOnUse" x1="55.7744" y1="464.0758" x2="55.7744" y2="445.8792">
		<stop  offset="0" style="stop-color:#2E74FF"/>
		<stop  offset="0.6832" style="stop-color:#6FFFEF"/>
	</linearGradient>
	<path fill="url(#SVGID_17_)" d="M58.503,447.683c0,3.654,0,9.119,0,16.393c-0.807,0-2.017,0-3.63,0c0-3.243,0-8.098,0-14.567
		c-0.412,0-1.021,0-1.827,0c0-0.395,0-0.897,0-1.504c0-0.609,0-1.317,0-2.125c0.806,0,2.016,0,3.63,0c0.51,0,0.946,0.174,1.308,0.52
		C58.33,446.761,58.503,447.189,58.503,447.683z"/>
	<linearGradient id="SVGID_18_" gradientUnits="userSpaceOnUse" x1="67.6132" y1="464.0758" x2="67.6132" y2="445.8792">
		<stop  offset="0" style="stop-color:#2E74FF"/>
		<stop  offset="0.6832" style="stop-color:#6FFFEF"/>
	</linearGradient>
	<path fill="url(#SVGID_18_)" d="M73.07,447.683c0,3.243,0,8.098,0,14.567c0,0.509-0.173,0.937-0.519,1.283
		c-0.363,0.362-0.79,0.542-1.283,0.542c-1.63,0-4.058,0-7.284,0c-0.51,0-0.939-0.181-1.283-0.542
		c-0.363-0.346-0.544-0.775-0.544-1.283c0-1.219,0-3.047,0-5.482c0-1.005,0-2.255,0-3.752c0-1.531,0-3.308,0-5.333
		c0-0.493,0.181-0.922,0.544-1.283c0.345-0.346,0.773-0.52,1.283-0.52c1.613,0,4.04,0,7.284,0c0.493,0,0.921,0.174,1.283,0.52
		C72.897,446.761,73.07,447.189,73.07,447.683z M65.786,460.446c0.823,0,2.04,0,3.654,0c0-0.165,0-0.402,0-0.716
		c0-2.27,0-5.679,0-10.221c-0.807,0-2.025,0-3.654,0c0,1.219,0,3.038,0,5.458C65.786,456.183,65.786,458.011,65.786,460.446z"/>
	<linearGradient id="SVGID_19_" gradientUnits="userSpaceOnUse" x1="83.0433" y1="464.0758" x2="83.0433" y2="445.8792">
		<stop  offset="0" style="stop-color:#2E74FF"/>
		<stop  offset="0.6832" style="stop-color:#6FFFEF"/>
	</linearGradient>
	<path fill="url(#SVGID_19_)" d="M85.092,454.966c2.123,4.049,3.711,7.085,4.765,9.109c-1.81,0-3.169,0-4.074,0
		c-1.218-2.634-2.132-4.609-2.74-5.926c-1.219,2.634-2.132,4.609-2.74,5.926c-1.811,0-3.17,0-4.074,0
		c2.123-4.049,3.711-7.085,4.764-9.109c-2.387-4.542-3.975-7.572-4.764-9.087c2.04,0,3.398,0,4.074,0
		c1.365,2.946,2.279,4.913,2.74,5.902c1.366-2.946,2.279-4.913,2.74-5.902c2.041,0,3.4,0,4.074,0
		C87.471,450.424,85.882,453.451,85.092,454.966z"/>
</g>
<g>
	<linearGradient id="SVGID_20_" gradientUnits="userSpaceOnUse" x1="158.4874" y1="143.5329" x2="158.4874" y2="74.7952">
		<stop  offset="0" style="stop-color:#2E74FF"/>
		<stop  offset="1" style="stop-color:#6FFFEF"/>
	</linearGradient>
	<path fill="url(#SVGID_20_)" d="M172.291,109.117c1.865,0,3.481,0.685,4.849,2.053c1.306,1.306,1.959,2.923,1.959,4.849
		c0,4.603,0,11.472,0,20.612c0,1.929-0.653,3.545-1.959,4.851c-1.368,1.368-2.984,2.051-4.849,2.051c-4.603,0-11.505,0-20.706,0
		c-3.047,0-7.617,0-13.71,0c0-3.046,0-7.616,0-13.71c0-3.108,0-7.709,0-13.804c0-3.046,0-7.616,0-13.71c0-1.554,0-3.481,0-5.782
		c0-2.299,0-4.973,0-8.021c0-3.046,0-7.615,0-13.71c3.046,0,7.616,0,13.71,0c4.601,0,11.503,0,20.706,0
		c1.865,0,3.481,0.653,4.849,1.959c1.306,1.368,1.959,2.985,1.959,4.849c0,4.603,0,11.505,0,20.706c0,1.865-0.653,3.483-1.959,4.849
		C175.772,108.464,174.156,109.117,172.291,109.117z M151.585,102.309c3.108,0,7.709,0,13.804,0c0-0.559,0-1.367,0-2.425
		c0-2.548,0-6.342,0-11.379c-3.047,0-7.649,0-13.804,0C151.585,91.553,151.585,96.154,151.585,102.309z M151.585,129.823
		c3.108,0,7.709,0,13.804,0c0-0.56,0-1.367,0-2.425c0-2.549,0-6.342,0-11.378c-3.047,0-7.649,0-13.804,0
		C151.585,119.066,151.585,123.667,151.585,129.823z"/>
	<linearGradient id="SVGID_21_" gradientUnits="userSpaceOnUse" x1="213.5151" y1="143.5329" x2="213.5151" y2="74.7952">
		<stop  offset="0" style="stop-color:#2E74FF"/>
		<stop  offset="1" style="stop-color:#6FFFEF"/>
	</linearGradient>
	<path fill="url(#SVGID_21_)" d="M206.613,88.505c0,6.095,0,10.695,0,13.804c9.201,0,16.103,0,20.706,0c0,6.094,0,10.664,0,13.71
		c-9.203,0-16.105,0-20.706,0c0,6.095,0,10.695,0,13.804c12.249,0,21.42,0,27.514,0c0,6.094,0,10.664,0,13.71
		c-12.188,0-21.359,0-27.514,0c-6.094,0-10.664,0-13.71,0c0-3.046,0-5.72,0-8.021c0-2.299,0-4.196,0-5.689
		c0-6.902,0-11.502,0-13.804c0-6.902,0-11.471,0-13.71c0-6.902,0-11.502,0-13.804c0-6.838,0-11.409,0-13.71
		c6.902,0,11.472,0,13.71,0c13.804,0,22.975,0,27.514,0c0,6.841,0,11.411,0,13.71C221.939,88.505,212.768,88.505,206.613,88.505z"/>
</g>
<g>
	<g>
		<path fill="#FFFFFF" d="M772.607,408.671l-13.735-19.092L747.754,408.1l-14.69-20.429l23.096-38.467l28.422,39.525
			L772.607,408.671z M758.743,386.463l13.735,19.092l10.056-16.741l-26.244-36.494l-21.177,35.266l12.511,17.398L758.743,386.463z"
			/>
	</g>
	<g>
		<linearGradient id="SVGID_22_" gradientUnits="userSpaceOnUse" x1="758.6052" y1="392.5881" x2="758.6052" y2="361.0207">
			<stop  offset="0" style="stop-color:#2E74FF"/>
			<stop  offset="0.5099" style="stop-color:#00FFEF"/>
		</linearGradient>
		<polygon fill="url(#SVGID_22_)" points="758.591,381.898 766.307,392.588 772.468,382.298 757.12,361.021 744.742,381.697 
			752.379,392.285 		"/>
	</g>
</g>
<g>
	<linearGradient id="SVGID_23_" gradientUnits="userSpaceOnUse" x1="759.4913" y1="427.62" x2="759.4913" y2="406.2006">
		<stop  offset="0" style="stop-color:#2E74FF"/>
		<stop  offset="0.7228" style="stop-color:#00FFEF"/>
	</linearGradient>
	<polyline fill="url(#SVGID_23_)" points="750.061,420.682 759.678,405.146 768.921,421.207 	"/>
</g>
<g>
	<linearGradient id="SVGID_24_" gradientUnits="userSpaceOnUse" x1="760.3732" y1="427.62" x2="760.3732" y2="406.2006">
		<stop  offset="0" style="stop-color:#2E74FF"/>
		<stop  offset="0.7228" style="stop-color:#00FFEF"/>
	</linearGradient>
	<rect x="741.595" y="420.356" fill="url(#SVGID_24_)" width="37.556" height="5.592"/>
</g>
<g>
	<linearGradient id="SVGID_25_" gradientUnits="userSpaceOnUse" x1="448.7409" y1="532.193" x2="448.7409" y2="485.7161">
		<stop  offset="0" style="stop-color:#2E74FF"/>
		<stop  offset="0.7228" style="stop-color:#00FFEF"/>
	</linearGradient>
	<path fill="url(#SVGID_25_)" d="M453.124,498.199c0,5.868,0,14.648,0,26.335c-1.296,0-3.24,0-5.83,0c0-5.21,0-13.009,0-23.4
		c-0.662,0-1.64,0-2.935,0c0-0.636,0-1.442,0-2.42c0-0.978,0-2.116,0-3.411c1.296,0,3.239,0,5.83,0c0.819,0,1.52,0.277,2.102,0.833
		C452.846,496.717,453.124,497.405,453.124,498.199z"/>
	<linearGradient id="SVGID_26_" gradientUnits="userSpaceOnUse" x1="467.7585" y1="532.193" x2="467.7585" y2="485.7161">
		<stop  offset="0" style="stop-color:#2E74FF"/>
		<stop  offset="0.7228" style="stop-color:#00FFEF"/>
	</linearGradient>
	<path fill="url(#SVGID_26_)" d="M473.629,509.898c0.794,0,1.481,0.292,2.063,0.873c0.556,0.556,0.832,1.243,0.832,2.063
		c0,1.958,0,4.879,0,8.766c0,0.819-0.277,1.507-0.832,2.063c-0.582,0.583-1.269,0.873-2.063,0.873c-2.617,0-6.518,0-11.7,0
		c-0.82,0-1.508-0.29-2.063-0.873c-0.582-0.556-0.873-1.243-0.873-2.063c0-0.556,0-1.254,0-2.103c0-0.873,0-1.877,0-3.013
		c1.296,0,3.239,0,5.83,0c0,0.502,0,1.243,0,2.221c1.321,0,3.278,0,5.87,0c0-1.321,0-3.279,0-5.87c-1.296,0-3.252,0-5.87,0
		c0-1.295,0-3.239,0-5.831c1.321,0,3.278,0,5.87,0c0-1.321,0-3.277,0-5.868c-1.296,0-3.252,0-5.87,0c0,0.502,0,1.228,0,2.181
		c-1.296,0-3.239,0-5.83,0c0-1.136,0-2.842,0-5.116c0-0.795,0.29-1.482,0.873-2.062c0.555-0.556,1.242-0.833,2.063-0.833
		c2.59,0,6.491,0,11.7,0c0.794,0,1.481,0.277,2.063,0.833c0.556,0.58,0.832,1.268,0.832,2.062c0,1.955,0,4.891,0,8.804
		c0,0.795-0.277,1.482-0.832,2.062C475.11,509.621,474.422,509.898,473.629,509.898z"/>
	<linearGradient id="SVGID_27_" gradientUnits="userSpaceOnUse" x1="491.1595" y1="532.193" x2="491.1595" y2="485.7161">
		<stop  offset="0" style="stop-color:#2E74FF"/>
		<stop  offset="0.7228" style="stop-color:#00FFEF"/>
	</linearGradient>
	<path fill="url(#SVGID_27_)" d="M497.03,509.898c0.794,0,1.481,0.292,2.063,0.873c0.556,0.556,0.832,1.243,0.832,2.063
		c0,1.958,0,4.879,0,8.766c0,0.819-0.277,1.507-0.832,2.063c-0.581,0.583-1.269,0.873-2.063,0.873c-2.617,0-6.518,0-11.7,0
		c-0.82,0-1.508-0.29-2.063-0.873c-0.582-0.556-0.873-1.243-0.873-2.063c0-0.556,0-1.254,0-2.103c0-0.873,0-1.877,0-3.013
		c1.296,0,3.239,0,5.831,0c0,0.502,0,1.243,0,2.221c1.321,0,3.278,0,5.87,0c0-1.321,0-3.279,0-5.87c-1.296,0-3.252,0-5.87,0
		c0-1.295,0-3.239,0-5.831c1.321,0,3.278,0,5.87,0c0-1.321,0-3.277,0-5.868c-1.296,0-3.252,0-5.87,0c0,0.502,0,1.228,0,2.181
		c-1.296,0-3.239,0-5.831,0c0-1.136,0-2.842,0-5.116c0-0.795,0.29-1.482,0.873-2.062c0.555-0.556,1.242-0.833,2.063-0.833
		c2.59,0,6.491,0,11.7,0c0.794,0,1.481,0.277,2.063,0.833c0.556,0.58,0.832,1.268,0.832,2.062c0,1.955,0,4.891,0,8.804
		c0,0.795-0.277,1.482-0.832,2.062C498.511,509.621,497.823,509.898,497.03,509.898z"/>
	<linearGradient id="SVGID_28_" gradientUnits="userSpaceOnUse" x1="514.56" y1="532.193" x2="514.56" y2="485.7161">
		<stop  offset="0" style="stop-color:#2E74FF"/>
		<stop  offset="0.7228" style="stop-color:#00FFEF"/>
	</linearGradient>
	<path fill="url(#SVGID_28_)" d="M523.326,495.304c-4.998,12.982-8.752,22.726-11.263,29.23c-2.777,0-4.866,0-6.268,0
		c4.496-11.688,7.496-19.487,9.005-23.4c-4.496,0-7.498,0-9.005,0c0-1.455,0-2.672,0-3.65c0-0.978,0-1.705,0-2.181
		c5.659,0,9.426,0,11.304,0c0.556,0,0.926,0,1.112,0C520.482,495.304,522.187,495.304,523.326,495.304z"/>
	<linearGradient id="SVGID_29_" gradientUnits="userSpaceOnUse" x1="537.9611" y1="532.193" x2="537.9611" y2="485.7161">
		<stop  offset="0" style="stop-color:#2E74FF"/>
		<stop  offset="0.7228" style="stop-color:#00FFEF"/>
	</linearGradient>
	<path fill="url(#SVGID_29_)" d="M546.726,524.534c-1.295,0-3.239,0-5.83,0c0-2.592,0-6.491,0-11.701c-1.295,0-3.252,0-5.868,0
		c0,2.592,0,6.491,0,11.701c-1.297,0-3.239,0-5.831,0c0-2.194,0-5.5,0-9.915c0-1.824,0-4.098,0-6.822c0-2.75,0-5.951,0-9.598
		c0-0.795,0.29-1.482,0.873-2.062c0.554-0.556,1.241-0.833,2.063-0.833c2.589,0,6.491,0,11.699,0c0.795,0,1.482,0.277,2.063,0.833
		c0.556,0.58,0.832,1.268,0.832,2.062C546.726,504.068,546.726,512.847,546.726,524.534z M540.895,507.003c0-0.237,0-0.58,0-1.031
		c0-1.083,0-2.697,0-4.837c-1.295,0-3.252,0-5.868,0c0,1.295,0,3.252,0,5.868C536.348,507.003,538.304,507.003,540.895,507.003z"/>
	<linearGradient id="SVGID_30_" gradientUnits="userSpaceOnUse" x1="561.3621" y1="532.193" x2="561.3621" y2="485.7161">
		<stop  offset="0" style="stop-color:#2E74FF"/>
		<stop  offset="0.7228" style="stop-color:#00FFEF"/>
	</linearGradient>
	<path fill="url(#SVGID_30_)" d="M570.128,518.704c0,2.592,0,4.536,0,5.831c-5.844,0-9.743,0-11.701,0c-2.168,0-3.623,0-4.362,0
		c-0.741,0-1.23,0-1.469,0c0-7.324,0-13.42,0-18.284c0-4.866,0-8.514,0-10.947c2.935,0,4.88,0,5.831,0c0,11.685,0,19.487,0,23.4
		C563.637,518.704,567.536,518.704,570.128,518.704z"/>
	<linearGradient id="SVGID_31_" gradientUnits="userSpaceOnUse" x1="584.7643" y1="532.193" x2="584.7643" y2="485.7161">
		<stop  offset="0" style="stop-color:#2E74FF"/>
		<stop  offset="0.7228" style="stop-color:#00FFEF"/>
	</linearGradient>
	<path fill="url(#SVGID_31_)" d="M593.53,518.704c0,2.592,0,4.536,0,5.831c-5.846,0-9.746,0-11.701,0c-2.17,0-3.623,0-4.364,0
		c-0.741,0-1.23,0-1.467,0c0-7.324,0-13.42,0-18.284c0-4.866,0-8.514,0-10.947c2.935,0,4.877,0,5.831,0c0,11.685,0,19.487,0,23.4
		C587.037,518.704,590.938,518.704,593.53,518.704z"/>
	<linearGradient id="SVGID_32_" gradientUnits="userSpaceOnUse" x1="602.3137" y1="532.193" x2="602.3137" y2="485.7161">
		<stop  offset="0" style="stop-color:#2E74FF"/>
		<stop  offset="0.7228" style="stop-color:#00FFEF"/>
	</linearGradient>
	<path fill="url(#SVGID_32_)" d="M599.398,495.304c0.978,0,2.922,0,5.831,0c0,3.647,0,10.96,0,21.933c0,1.217,0,3.647,0,7.297
		c-0.951,0-2.895,0-5.831,0c0-3.252,0-7.31,0-12.176C599.398,507.494,599.398,501.809,599.398,495.304z"/>
	<linearGradient id="SVGID_33_" gradientUnits="userSpaceOnUse" x1="619.8652" y1="532.193" x2="619.8652" y2="485.7161">
		<stop  offset="0" style="stop-color:#2E74FF"/>
		<stop  offset="0.7228" style="stop-color:#00FFEF"/>
	</linearGradient>
	<path fill="url(#SVGID_33_)" d="M628.631,524.534c-1.297,0-3.241,0-5.83,0c0-2.592,0-6.491,0-11.701c-1.297,0-3.252,0-5.871,0
		c0,2.592,0,6.491,0,11.701c-1.297,0-3.239,0-5.831,0c0-2.194,0-5.5,0-9.915c0-1.824,0-4.098,0-6.822c0-2.75,0-5.951,0-9.598
		c0-0.795,0.29-1.482,0.873-2.062c0.556-0.556,1.243-0.833,2.062-0.833c2.592,0,6.491,0,11.701,0c0.792,0,1.48,0.277,2.063,0.833
		c0.554,0.58,0.833,1.268,0.833,2.062C628.631,504.068,628.631,512.847,628.631,524.534z M622.801,507.003c0-0.237,0-0.58,0-1.031
		c0-1.083,0-2.697,0-4.837c-1.297,0-3.252,0-5.871,0c0,1.295,0,3.252,0,5.868C618.251,507.003,620.209,507.003,622.801,507.003z"/>
	<linearGradient id="SVGID_34_" gradientUnits="userSpaceOnUse" x1="643.2651" y1="532.193" x2="643.2651" y2="485.7161">
		<stop  offset="0" style="stop-color:#2E74FF"/>
		<stop  offset="0.7228" style="stop-color:#00FFEF"/>
	</linearGradient>
	<path fill="url(#SVGID_34_)" d="M652.031,498.199c0,5.868,0,14.648,0,26.335c-1.297,0-3.241,0-5.83,0c0-5.21,0-13.009,0-23.4
		c-1.297,0-3.252,0-5.871,0c0,5.208,0,13.009,0,23.4c-1.297,0-3.239,0-5.831,0c0-3.252,0-7.31,0-12.176c0-4.864,0-10.549,0-17.054
		c1.295,0,3.239,0,5.831,0c1.955,0,4.891,0,8.806,0c0.792,0,1.48,0.277,2.063,0.833
		C651.752,496.717,652.031,497.405,652.031,498.199z"/>
	<linearGradient id="SVGID_35_" gradientUnits="userSpaceOnUse" x1="666.6652" y1="532.193" x2="666.6652" y2="485.7161">
		<stop  offset="0" style="stop-color:#2E74FF"/>
		<stop  offset="0.7228" style="stop-color:#00FFEF"/>
	</linearGradient>
	<path fill="url(#SVGID_35_)" d="M669.601,504.068c0-0.659,0-1.638,0-2.933c-1.297,0-3.252,0-5.871,0c0,3.913,0,9.77,0,17.569
		c1.321,0,3.279,0,5.871,0c0-0.661,0-1.638,0-2.935c1.295,0,3.239,0,5.831,0c0,1.297,0,3.239,0,5.83
		c0,0.819-0.279,1.507-0.833,2.063c-0.583,0.583-1.27,0.873-2.063,0.873c-2.618,0-6.52,0-11.701,0c-0.819,0-1.507-0.29-2.063-0.873
		c-0.583-0.556-0.873-1.243-0.873-2.063c0-1.955,0-4.891,0-8.804c0-1.614,0-3.623,0-6.029c0-2.46,0-5.315,0-8.567
		c0-0.795,0.29-1.482,0.873-2.062c0.556-0.556,1.243-0.833,2.063-0.833c2.592,0,6.491,0,11.701,0c0.792,0,1.48,0.277,2.063,0.833
		c0.554,0.58,0.833,1.268,0.833,2.062c0,1.322,0,3.279,0,5.868C674.134,504.068,672.19,504.068,669.601,504.068z"/>
	<linearGradient id="SVGID_36_" gradientUnits="userSpaceOnUse" x1="690.0651" y1="532.193" x2="690.0651" y2="485.7161">
		<stop  offset="0" style="stop-color:#2E74FF"/>
		<stop  offset="0.7228" style="stop-color:#00FFEF"/>
	</linearGradient>
	<path fill="url(#SVGID_36_)" d="M687.13,501.134c0,2.592,0,4.547,0,5.868c3.913,0,6.848,0,8.806,0c0,2.592,0,4.536,0,5.831
		c-3.915,0-6.851,0-8.806,0c0,2.592,0,4.549,0,5.87c5.208,0,9.11,0,11.701,0c0,2.592,0,4.536,0,5.831c-5.183,0-9.083,0-11.701,0
		c-2.592,0-4.536,0-5.831,0c0-2.592,0-4.534,0-5.831c0-1.321,0-2.471,0-3.451c0-0.978,0-1.784,0-2.42c0-2.935,0-4.877,0-5.831
		c0-2.935,0-4.891,0-5.868c0-2.909,0-4.853,0-5.831c2.935,0,4.88,0,5.831,0c5.871,0,9.77,0,11.701,0c0,2.909,0,4.851,0,5.831
		C693.648,501.134,689.748,501.134,687.13,501.134z"/>
	<linearGradient id="SVGID_37_" gradientUnits="userSpaceOnUse" x1="707.6144" y1="532.1931" x2="707.6144" y2="485.7158">
		<stop  offset="0" style="stop-color:#2E74FF"/>
		<stop  offset="0.7228" style="stop-color:#00FFEF"/>
	</linearGradient>
	<path fill="url(#SVGID_37_)" d="M704.699,520.847c0-0.953,0-1.667,0-2.143c2.935,0,4.88,0,5.83,0c0,2.909,0,4.853,0,5.831
		c-2.908,0-4.853,0-5.83,0C704.699,523.055,704.699,521.825,704.699,520.847z"/>
	<linearGradient id="SVGID_38_" gradientUnits="userSpaceOnUse" x1="725.1661" y1="532.193" x2="725.1661" y2="485.7161">
		<stop  offset="0" style="stop-color:#2E74FF"/>
		<stop  offset="0.7228" style="stop-color:#00FFEF"/>
	</linearGradient>
	<path fill="url(#SVGID_38_)" d="M733.932,498.199c0,5.21,0,13.009,0,23.4c0,0.819-0.279,1.507-0.833,2.063
		c-0.582,0.583-1.27,0.873-2.062,0.873c-2.618,0-6.52,0-11.701,0c-0.819,0-1.507-0.29-2.063-0.873
		c-0.583-0.556-0.873-1.243-0.873-2.063c0-1.955,0-4.891,0-8.804c0-1.614,0-3.623,0-6.029c0-2.46,0-5.315,0-8.567
		c0-0.795,0.29-1.482,0.873-2.062c0.556-0.556,1.243-0.833,2.063-0.833c2.591,0,6.491,0,11.701,0c0.792,0,1.48,0.277,2.062,0.833
		C733.653,496.717,733.932,497.405,733.932,498.199z M722.231,518.704c1.321,0,3.279,0,5.87,0c0-0.263,0-0.647,0-1.15
		c0-3.65,0-9.123,0-16.42c-1.297,0-3.252,0-5.87,0c0,1.955,0,4.877,0,8.764C722.231,511.856,722.231,514.791,722.231,518.704z"/>
	<linearGradient id="SVGID_39_" gradientUnits="userSpaceOnUse" x1="748.566" y1="532.193" x2="748.566" y2="485.7161">
		<stop  offset="0" style="stop-color:#2E74FF"/>
		<stop  offset="0.7228" style="stop-color:#00FFEF"/>
	</linearGradient>
	<path fill="url(#SVGID_39_)" d="M754.437,509.898c0.792,0,1.48,0.292,2.062,0.873c0.554,0.556,0.833,1.243,0.833,2.063
		c0,2.592,0,6.491,0,11.701c-1.297,0-3.241,0-5.83,0c0-2.592,0-6.491,0-11.701c-1.297,0-3.252,0-5.871,0c0,2.592,0,6.491,0,11.701
		c-1.297,0-3.239,0-5.831,0c0-2.592,0-6.491,0-11.701c0-1.295,0-3.239,0-5.831c0-1.295,0-2.92,0-4.877c0-1.957,0-4.23,0-6.822
		c1.295,0,3.239,0,5.831,0c1.955,0,4.891,0,8.806,0c0.792,0,1.48,0.277,2.062,0.833c0.554,0.58,0.833,1.268,0.833,2.062
		c0,1.955,0,4.891,0,8.804c0,0.795-0.279,1.482-0.833,2.062C755.917,509.621,755.229,509.898,754.437,509.898z M751.501,507.003
		c0-0.237,0-0.58,0-1.031c0-1.083,0-2.697,0-4.837c-1.297,0-3.252,0-5.871,0c0,1.295,0,3.252,0,5.868
		C746.952,507.003,748.91,507.003,751.501,507.003z"/>
	<linearGradient id="SVGID_40_" gradientUnits="userSpaceOnUse" x1="771.9659" y1="532.193" x2="771.9659" y2="485.7161">
		<stop  offset="0" style="stop-color:#2E74FF"/>
		<stop  offset="0.7228" style="stop-color:#00FFEF"/>
	</linearGradient>
	<path fill="url(#SVGID_40_)" d="M774.901,504.068c0-0.659,0-1.638,0-2.933c-1.297,0-3.252,0-5.87,0c0,3.913,0,9.77,0,17.569
		c1.321,0,3.279,0,5.87,0c0-1.321,0-3.279,0-5.87c-0.663,0-1.641,0-2.935,0c0-1.295,0-3.239,0-5.831c1.955,0,4.877,0,8.766,0
		c0,1.297,0,3.241,0,5.831c0,1.958,0,4.879,0,8.766c0,0.819-0.279,1.507-0.832,2.063c-0.583,0.583-1.27,0.873-2.063,0.873
		c-2.618,0-6.52,0-11.701,0c-0.819,0-1.507-0.29-2.063-0.873c-0.583-0.556-0.873-1.243-0.873-2.063c0-1.955,0-4.891,0-8.804
		c0-1.614,0-3.623,0-6.029c0-2.46,0-5.315,0-8.567c0-0.795,0.29-1.482,0.873-2.062c0.556-0.556,1.243-0.833,2.063-0.833
		c2.592,0,6.491,0,11.701,0c0.792,0,1.48,0.277,2.063,0.833c0.553,0.58,0.832,1.268,0.832,2.062c0,1.322,0,3.279,0,5.868
		C779.435,504.068,777.49,504.068,774.901,504.068z"/>
</g>
</svg>
