<?xml version="1.0" encoding="utf-8"?>
<!-- Generator: Adobe Illustrator 21.0.2, SVG Export Plug-In . SVG Version: 6.00 Build 0)  -->
<svg version="1.1" id="Layer_1" xmlns="http://www.w3.org/2000/svg" xmlns:xlink="http://www.w3.org/1999/xlink" x="0px" y="0px"
	 viewBox="0 0 841.89 595.28" enable-background="new 0 0 841.89 595.28" xml:space="preserve">
<g>
	<g>
		<rect x="16.879" y="25.038" fill="#793DF4" width="804.691" height="548.477"/>
	</g>
</g>
<g>
	<path fill="none" stroke="#FFFFFF" stroke-width="4" stroke-miterlimit="10" d="M317.231,249.732c0,18.756,0,46.807,0,84.149
		c-4.141,0-10.351,0-18.629,0c0-16.643,0-41.568,0-74.771c-2.113,0-5.239,0-9.378,0c0-2.027,0-4.604,0-7.73
		c0-3.125,0-6.758,0-10.899c4.139,0,10.348,0,18.63,0c2.617,0,4.857,0.887,6.716,2.661
		C316.344,245.001,317.231,247.197,317.231,249.732z"/>
	<path fill="none" stroke="#FFFFFF" stroke-width="4" stroke-miterlimit="10" d="M382.75,287.117c2.535,0,4.731,0.931,6.59,2.788
		c1.774,1.774,2.661,3.972,2.661,6.59c0,6.254,0,15.588,0,28.008c0,2.619-0.887,4.816-2.661,6.59
		c-1.859,1.859-4.055,2.788-6.59,2.788c-8.364,0-20.827,0-37.385,0c-2.62,0-4.816-0.929-6.59-2.788
		c-1.859-1.774-2.788-3.971-2.788-6.59c0-1.774,0-4.012,0-6.716c0-2.789,0-5.998,0-9.632c4.139,0,10.348,0,18.63,0
		c0,1.606,0,3.972,0,7.096c4.224,0,10.475,0,18.756,0c0-4.224,0-10.475,0-18.756c-4.14,0-10.392,0-18.756,0
		c0-4.139,0-10.348,0-18.629c4.224,0,10.475,0,18.756,0c0-4.224,0-10.475,0-18.756c-4.14,0-10.392,0-18.756,0
		c0,1.606,0,3.929,0,6.97c-4.141,0-10.351,0-18.63,0c0-3.631,0-9.081,0-16.348c0-2.535,0.928-4.731,2.788-6.59
		c1.774-1.774,3.97-2.661,6.59-2.661c8.279,0,20.74,0,37.385,0c2.535,0,4.731,0.887,6.59,2.661c1.774,1.859,2.661,4.055,2.661,6.59
		c0,6.253,0,15.631,0,28.134c0,2.534-0.887,4.733-2.661,6.59C387.481,286.23,385.285,287.117,382.75,287.117z"/>
	<path fill="none" stroke="#FFFFFF" stroke-width="4" stroke-miterlimit="10" d="M457.522,287.117c2.534,0,4.731,0.931,6.59,2.788
		c1.774,1.774,2.66,3.972,2.66,6.59c0,6.254,0,15.588,0,28.008c0,2.619-0.886,4.816-2.66,6.59c-1.859,1.859-4.056,2.788-6.59,2.788
		c-8.365,0-20.828,0-37.386,0c-2.62,0-4.816-0.929-6.59-2.788c-1.859-1.774-2.788-3.971-2.788-6.59c0-1.774,0-4.012,0-6.716
		c0-2.789,0-5.998,0-9.632c4.139,0,10.348,0,18.63,0c0,1.606,0,3.972,0,7.096c4.224,0,10.475,0,18.756,0c0-4.224,0-10.475,0-18.756
		c-4.14,0-10.392,0-18.756,0c0-4.139,0-10.348,0-18.629c4.224,0,10.475,0,18.756,0c0-4.224,0-10.475,0-18.756
		c-4.14,0-10.392,0-18.756,0c0,1.606,0,3.929,0,6.97c-4.141,0-10.351,0-18.63,0c0-3.631,0-9.081,0-16.348
		c0-2.535,0.928-4.731,2.788-6.59c1.774-1.774,3.97-2.661,6.59-2.661c8.279,0,20.74,0,37.386,0c2.534,0,4.731,0.887,6.59,2.661
		c1.774,1.859,2.66,4.055,2.66,6.59c0,6.253,0,15.631,0,28.134c0,2.534-0.886,4.733-2.66,6.59
		C462.253,286.23,460.056,287.117,457.522,287.117z"/>
	<path fill="none" stroke="#FFFFFF" stroke-width="4" stroke-miterlimit="10" d="M541.543,240.481
		c-15.968,41.484-27.966,72.616-35.992,93.4c-8.871,0-15.546,0-20.023,0c14.362-37.342,23.952-62.266,28.767-74.771
		c-14.363,0-23.951,0-28.767,0c0-4.645,0-8.533,0-11.659c0-3.125,0-5.449,0-6.97c18.079,0,30.118,0,36.118,0
		c1.774,0,2.956,0,3.549,0C532.46,240.481,537.909,240.481,541.543,240.481z"/>
</g>
<g>
	<g>
		<g>
			<linearGradient id="SVGID_1_" gradientUnits="userSpaceOnUse" x1="302.4713" y1="331.5049" x2="302.4713" y2="264.7653">
				<stop  offset="0" style="stop-color:#2E74FF"/>
				<stop  offset="1" style="stop-color:#6FFFEF"/>
			</linearGradient>
			<polygon fill="url(#SVGID_1_)" points="300.94,265.531 303.237,265.531 303.237,331.505 304.002,331.505 304.002,264.765 
				300.94,264.765 			"/>
		</g>
		<g>
			<linearGradient id="SVGID_2_" gradientUnits="userSpaceOnUse" x1="308.245" y1="340.302" x2="308.245" y2="246.1362">
				<stop  offset="0" style="stop-color:#2E74FF"/>
				<stop  offset="1" style="stop-color:#6FFFEF"/>
			</linearGradient>
			<path fill="url(#SVGID_2_)" d="M319.852,248.903c-1.924-1.836-4.273-2.767-6.981-2.767h-19.012v19.394h2.38v-0.765h-1.615
				v-17.863h18.246c2.504,0,4.675,0.86,6.44,2.543c1.696,1.777,2.555,3.905,2.555,6.326v83.766h-17.863v-3.331h-0.766v4.096h19.394
				V255.77C322.631,253.146,321.701,250.84,319.852,248.903z"/>
		</g>
	</g>
	<g>
		<g>
			<linearGradient id="SVGID_3_" gradientUnits="userSpaceOnUse" x1="359.6976" y1="321.6725" x2="359.6976" y2="264.7653">
				<stop  offset="0" style="stop-color:#2E74FF"/>
				<stop  offset="1" style="stop-color:#6FFFEF"/>
			</linearGradient>
			<polygon fill="url(#SVGID_3_)" points="340.622,268.402 340.622,272.501 360.017,272.501 360.017,265.531 378.008,265.531 
				378.008,283.522 359.252,283.522 359.252,302.916 378.008,302.916 378.008,320.907 360.017,320.907 360.017,317.586 
				359.252,317.586 359.252,321.673 378.773,321.673 378.773,302.15 360.017,302.15 360.017,284.286 378.773,284.286 
				378.773,264.765 359.252,264.765 359.252,271.735 341.388,271.735 341.388,268.402 			"/>
		</g>
		<g>
			<linearGradient id="SVGID_4_" gradientUnits="userSpaceOnUse" x1="369.012" y1="340.302" x2="369.012" y2="246.1362">
				<stop  offset="0" style="stop-color:#2E74FF"/>
				<stop  offset="1" style="stop-color:#6FFFEF"/>
			</linearGradient>
			<path fill="url(#SVGID_4_)" d="M397.402,283.904V255.77c0-2.624-0.931-4.931-2.78-6.867c-1.924-1.836-4.23-2.767-6.853-2.767
				h-37.386c-2.713,0-5.02,0.933-6.86,2.773c-1.924,1.924-2.9,4.232-2.9,6.86v7.931h0.766v-7.931c0-2.418,0.9-4.544,2.677-6.319
				c1.691-1.692,3.817-2.549,6.319-2.549h37.386c2.42,0,4.548,0.86,6.312,2.543c1.696,1.777,2.555,3.905,2.555,6.326v28.134
				c0,2.423-0.86,4.552-2.542,6.314c-1.777,1.695-3.905,2.555-6.326,2.555v0.766c2.416,0,4.541,0.901,6.319,2.678
				c1.691,1.691,2.549,3.817,2.549,6.318v28.008c0,2.502-0.858,4.629-2.549,6.319c-1.775,1.776-3.902,2.677-6.319,2.677h-37.386
				c-2.499,0-4.623-0.899-6.326-2.683c-1.771-1.689-2.67-3.813-2.67-6.312v-15.966h10.878v-0.766h-11.644v16.731
				c0,2.717,0.978,5.027,2.894,6.854c1.84,1.929,4.151,2.907,6.867,2.907h37.386c2.628,0,4.936-0.976,6.86-2.9
				c1.84-1.84,2.773-4.149,2.773-6.861v-28.008c0-2.712-0.932-5.02-2.773-6.86c-1.221-1.221-2.595-2.059-4.107-2.51
				c1.51-0.432,2.886-1.234,4.112-2.404C396.471,288.837,397.402,286.531,397.402,283.904z"/>
		</g>
	</g>
	<g>
		<g>
			<linearGradient id="SVGID_5_" gradientUnits="userSpaceOnUse" x1="443.7823" y1="340.302" x2="443.7823" y2="246.1362">
				<stop  offset="0" style="stop-color:#2E74FF"/>
				<stop  offset="1" style="stop-color:#6FFFEF"/>
			</linearGradient>
			<path fill="url(#SVGID_5_)" d="M472.172,283.904V255.77c0-2.625-0.931-4.931-2.779-6.867c-1.925-1.836-4.23-2.767-6.854-2.767
				h-37.387c-2.712,0-5.02,0.933-6.86,2.773c-1.925,1.924-2.901,4.232-2.901,6.86v16.731h19.395v-6.97h11.33v-0.765h-12.095v6.97
				h-17.863V255.77c0-2.418,0.9-4.544,2.676-6.319c1.691-1.692,3.817-2.549,6.319-2.549h37.387c2.419,0,4.548,0.86,6.312,2.543
				c1.696,1.777,2.555,3.905,2.555,6.326v28.134c0,2.423-0.859,4.552-2.542,6.314c-1.777,1.695-3.906,2.555-6.325,2.555v0.766
				c2.415,0,4.541,0.901,6.318,2.678c1.692,1.691,2.549,3.816,2.549,6.318v28.008c0,2.502-0.857,4.629-2.549,6.318
				c-1.775,1.777-3.901,2.678-6.318,2.678h-37.387c-2.498,0-4.623-0.899-6.325-2.683c-1.771-1.689-2.67-3.813-2.67-6.312v-15.966
				h11.159v-0.766h-11.925v16.731c0,2.717,0.978,5.027,2.894,6.854c1.84,1.929,4.151,2.907,6.867,2.907h37.387
				c2.627,0,4.935-0.976,6.86-2.9c1.84-1.84,2.773-4.148,2.773-6.861v-28.008c0-2.712-0.933-5.02-2.773-6.86
				c-1.221-1.221-2.596-2.059-4.108-2.51c1.512-0.432,2.888-1.234,4.114-2.404C471.241,288.838,472.172,286.531,472.172,283.904z"/>
		</g>
		<g>
			<linearGradient id="SVGID_6_" gradientUnits="userSpaceOnUse" x1="443.7829" y1="294.4409" x2="443.7829" y2="264.7653">
				<stop  offset="0" style="stop-color:#2E74FF"/>
				<stop  offset="1" style="stop-color:#6FFFEF"/>
			</linearGradient>
			<polygon fill="url(#SVGID_6_)" points="450.157,264.765 450.157,265.531 452.777,265.531 452.777,283.522 434.022,283.522 
				434.022,294.441 434.787,294.441 434.787,284.286 453.544,284.286 453.544,264.765 			"/>
		</g>
		<g>
			<linearGradient id="SVGID_7_" gradientUnits="userSpaceOnUse" x1="443.7829" y1="321.6725" x2="443.7829" y2="298.4922">
				<stop  offset="0" style="stop-color:#2E74FF"/>
				<stop  offset="1" style="stop-color:#6FFFEF"/>
			</linearGradient>
			<polygon fill="url(#SVGID_7_)" points="434.022,298.492 434.022,302.916 452.777,302.916 452.777,320.907 434.787,320.907 
				434.787,317.28 434.022,317.28 434.022,321.673 453.544,321.673 453.544,302.15 434.787,302.15 434.787,298.492 			"/>
		</g>
	</g>
	<g>
		<g>
			<linearGradient id="SVGID_8_" gradientUnits="userSpaceOnUse" x1="505.0167" y1="331.5049" x2="505.0167" y2="261.4489">
				<stop  offset="0" style="stop-color:#2E74FF"/>
				<stop  offset="1" style="stop-color:#6FFFEF"/>
			</linearGradient>
			<path fill="url(#SVGID_8_)" d="M490.928,264.765v-3.316h-0.765v4.082h28.594c-4.501,11.691-12.974,33.708-25.384,65.974h0.819
				c12.54-32.599,21.043-54.699,25.479-66.219l0.2-0.52H490.928z"/>
		</g>
		<g>
			<linearGradient id="SVGID_9_" gradientUnits="userSpaceOnUse" x1="518.5533" y1="340.302" x2="518.5533" y2="246.1362">
				<stop  offset="0" style="stop-color:#2E74FF"/>
				<stop  offset="1" style="stop-color:#6FFFEF"/>
			</linearGradient>
			<path fill="url(#SVGID_9_)" d="M490.163,246.136v10.612h0.765v-9.846h55.076c-15.805,41.06-27.706,71.939-35.697,92.635h-19.205
				c0.432-1.122,0.858-2.231,1.281-3.331h-0.82c-0.453,1.18-0.911,2.371-1.375,3.576l-0.201,0.52h20.844l0.095-0.246
				c8.025-20.784,20.023-51.917,35.991-93.4l0.201-0.52H490.163z"/>
		</g>
	</g>
</g>
<g>
	<rect x="288.332" y="363.354" fill="#0DFFF8" width="271.483" height="0.881"/>
</g>
<g>
	
		<rect x="491.832" y="281.707" transform="matrix(0.3879 -0.9217 0.9217 0.3879 78.7364 682.8619)" fill="#0DFFF8" width="123.359" height="0.882"/>
</g>
<g>
	
		<rect x="273.592" y="267.708" transform="matrix(1 -0.0022 0.0022 1 -0.7423 0.6103)" fill="#0DFFF8" width="0.881" height="132.624"/>
</g>
<g>
	
		<rect x="507.786" y="308.628" transform="matrix(0.3879 -0.9217 0.9217 0.3879 51.0332 697.6313)" fill="#FFFFFF" width="86.008" height="3.526"/>
</g>
<g>
	<rect x="261.889" y="230.154" fill="#FFFFFF" width="3.526" height="99.023"/>
</g>
<g>
	<g>
		<path fill="#FFFFFF" d="M303.808,376.187c0,3.01,0,7.513,0,13.506c-0.664,0-1.661,0-2.99,0c0-2.671,0-6.672,0-12
			c-0.664,0-1.668,0-3.01,0c0,2.671,0,6.672,0,12c-0.665,0-1.661,0-2.99,0c0-2.671,0-6.672,0-12c-0.664,0-1.668,0-3.01,0
			c0,2.671,0,6.672,0,12c-0.664,0-1.661,0-2.99,0c0-1.126,0-2.82,0-5.086c0-0.935,0-2.101,0-3.498c0-1.411,0-3.051,0-4.923
			c0-0.406,0.149-0.759,0.448-1.057c0.285-0.286,0.637-0.428,1.058-0.428c0.99,0,2.488,0,4.495,0c0.421,0,0.773,0.142,1.058,0.428
			c0.298,0.298,0.447,0.651,0.447,1.057c0-0.406,0.142-0.759,0.428-1.057c0.298-0.286,0.651-0.428,1.058-0.428
			c1.003,0,2.508,0,4.516,0c0.407,0,0.759,0.142,1.058,0.428C303.665,375.429,303.808,375.781,303.808,376.187z"/>
	</g>
	<g>
		<path fill="#FFFFFF" d="M315.809,376.187c0,2.672,0,6.672,0,12.002c0,0.42-0.142,0.772-0.427,1.057
			c-0.299,0.298-0.651,0.448-1.058,0.448c-1.342,0-3.343,0-6,0c-0.421,0-0.773-0.149-1.058-0.448
			c-0.298-0.285-0.448-0.637-0.448-1.057c0-1.004,0-2.509,0-4.516c0-0.826,0-1.857,0-3.092c0-1.261,0-2.726,0-4.393
			c0-0.406,0.149-0.759,0.448-1.057c0.285-0.286,0.637-0.428,1.058-0.428c1.329,0,3.329,0,6,0c0.407,0,0.759,0.142,1.058,0.428
			C315.666,375.429,315.809,375.781,315.809,376.187z M309.808,386.704c0.678,0,1.681,0,3.01,0c0-0.135,0-0.333,0-0.59
			c0-1.872,0-4.678,0-8.421c-0.664,0-1.668,0-3.01,0c0,1.003,0,2.502,0,4.494C309.808,383.192,309.808,384.696,309.808,386.704z"/>
	</g>
	<g>
		<path fill="#FFFFFF" d="M327.81,376.187c0,3.01,0,7.513,0,13.506c-0.664,0-1.661,0-2.99,0c0-2.671,0-6.672,0-12
			c-0.665,0-1.668,0-3.011,0c0,2.671,0,6.672,0,12c-0.664,0-1.661,0-2.99,0c0-1.668,0-3.75,0-6.245c0-2.495,0-5.41,0-8.747
			c0.664,0,1.661,0,2.99,0c1.004,0,2.509,0,4.516,0c0.407,0,0.759,0.142,1.058,0.428C327.667,375.429,327.81,375.781,327.81,376.187
			z"/>
	</g>
	<g>
		<path fill="#FFFFFF" d="M333.81,377.693c0,1.329,0,2.332,0,3.01c2.007,0,3.512,0,4.516,0c0,1.329,0,2.325,0,2.99
			c-2.007,0-3.512,0-4.516,0c0,1.329,0,2.332,0,3.01c2.671,0,4.672,0,6.001,0c0,1.329,0,2.325,0,2.99c-2.658,0-4.658,0-6.001,0
			c-1.329,0-2.325,0-2.99,0c0-1.329,0-2.325,0-2.99c0-0.678,0-1.268,0-1.77c0-0.502,0-0.916,0-1.241c0-1.506,0-2.502,0-2.99
			c0-1.506,0-2.509,0-3.01c0-1.492,0-2.488,0-2.991c1.505,0,2.502,0,2.99,0c3.01,0,5.011,0,6.001,0c0,1.492,0,2.489,0,2.991
			C337.153,377.693,335.153,377.693,333.81,377.693z"/>
	</g>
	<g>
		<path fill="#FFFFFF" d="M351.811,377.693c-1.329,0-2.326,0-2.99,0c0,6.007,0,10.007,0,12c-1.505,0-2.509,0-3.01,0
			c0-5.993,0-9.994,0-12c-1.491,0-2.488,0-2.99,0c0-0.746,0-1.37,0-1.872c0-0.502,0-0.875,0-1.119c4.502,0,7.498,0,8.991,0
			C351.811,376.031,351.811,377.029,351.811,377.693z"/>
	</g>
	<g>
		<path fill="#FFFFFF" d="M354.822,374.702c0.501,0,1.498,0,2.99,0c0,1.872,0,5.621,0,11.249c0,0.624,0,1.872,0,3.743
			c-0.488,0-1.485,0-2.99,0c0-1.668,0-3.75,0-6.245C354.822,380.954,354.822,378.039,354.822,374.702z"/>
	</g>
	<g>
		<path fill="#FFFFFF" d="M369.813,374.702c0,1.167,0,2.049,0,2.644c0,0.149,0,0.265,0,0.347c-2.427,4-4.251,7.003-5.472,9.011
			c2.441,0,4.264,0,5.472,0c0,1.329,0,2.325,0,2.99c-4,0-6.997,0-8.991,0c0-0.597,0-1.112,0-1.546c0-0.434,0-0.8,0-1.098
			c0-0.176,0-0.292,0-0.346c2.739-4.502,4.563-7.506,5.472-9.011c-2.74,0-4.563,0-5.472,0c0-1.492,0-2.488,0-2.991
			C364.823,374.702,367.819,374.702,369.813,374.702z"/>
	</g>
	<g>
		<path fill="#FFFFFF" d="M375.813,377.693c0,1.329,0,2.332,0,3.01c2.007,0,3.512,0,4.516,0c0,1.329,0,2.325,0,2.99
			c-2.007,0-3.512,0-4.516,0c0,1.329,0,2.332,0,3.01c2.671,0,4.672,0,6.001,0c0,1.329,0,2.325,0,2.99c-2.658,0-4.658,0-6.001,0
			c-1.329,0-2.325,0-2.99,0c0-1.329,0-2.325,0-2.99c0-0.678,0-1.268,0-1.77c0-0.502,0-0.916,0-1.241c0-1.506,0-2.502,0-2.99
			c0-1.506,0-2.509,0-3.01c0-1.492,0-2.488,0-2.991c1.505,0,2.502,0,2.99,0c3.01,0,5.011,0,6.001,0c0,1.492,0,2.489,0,2.991
			C379.155,377.693,377.155,377.693,375.813,377.693z"/>
	</g>
	<g>
		<path fill="#FFFFFF" d="M396.825,388.189c0-1.492,0-3.364,0-5.615c0-2.251,0-4.874,0-7.872c0.665,0,1.661,0,2.99,0
			c0,2.658,0,6.659,0,12.002c0.678,0,1.681,0,3.01,0c0-2.672,0-6.672,0-12.002c0.664,0,1.661,0,2.99,0c0,2.658,0,6.659,0,12.002
			c0.678,0,1.681,0,3.011,0c0-2.672,0-6.672,0-12.002c0.664,0,1.661,0,2.99,0c0,2.998,0,7.492,0,13.487
			c0,0.42-0.142,0.772-0.427,1.057c-0.298,0.298-0.651,0.448-1.058,0.448c-1.004,0-2.509,0-4.516,0c-0.407,0-0.76-0.149-1.058-0.448
			c-0.285-0.285-0.427-0.637-0.427-1.057c0,0.42-0.149,0.772-0.447,1.057c-0.285,0.298-0.638,0.448-1.058,0.448
			c-1.004,0-2.501,0-4.495,0c-0.421,0-0.773-0.149-1.058-0.448C396.974,388.961,396.825,388.609,396.825,388.189z"/>
	</g>
	<g>
		<path fill="#FFFFFF" d="M414.826,374.702c0.502,0,1.498,0,2.99,0c0,1.872,0,5.621,0,11.249c0,0.624,0,1.872,0,3.743
			c-0.488,0-1.485,0-2.99,0c0-1.668,0-3.75,0-6.245C414.826,380.954,414.826,378.039,414.826,374.702z"/>
	</g>
	<g>
		<path fill="#FFFFFF" d="M429.817,377.693c-1.329,0-2.326,0-2.99,0c0,6.007,0,10.007,0,12c-1.505,0-2.509,0-3.011,0
			c0-5.993,0-9.994,0-12c-1.491,0-2.488,0-2.99,0c0-0.746,0-1.37,0-1.872c0-0.502,0-0.875,0-1.119c4.502,0,7.499,0,8.991,0
			C429.817,376.031,429.817,377.029,429.817,377.693z"/>
	</g>
	<g>
		<path fill="#FFFFFF" d="M441.818,374.702c0,2.658,0,4.659,0,6.001c0,1.329,0,2.325,0,2.99c0,2.672,0,4.671,0,6
			c-1.329,0-2.326,0-2.99,0c0-2.671,0-4.671,0-6c-1.329,0-2.332,0-3.01,0c0,2.672,0,4.671,0,6c-1.329,0-2.325,0-2.99,0
			c0-1.329,0-2.495,0-3.498c0-1.004,0-1.837,0-2.502c0-1.506,0-2.502,0-2.99c0-3.01,0-5.011,0-6.001c1.505,0,2.502,0,2.99,0
			c0,2.998,0,4.997,0,6.001c1.505,0,2.509,0,3.01,0c0-3.01,0-5.011,0-6.001C440.156,374.702,441.153,374.702,441.818,374.702z"/>
	</g>
	<g>
		<path fill="#FFFFFF" d="M462.829,379.198c0-0.339,0-0.84,0-1.505c-0.663,0-1.666,0-3.009,0c0,0.664,0,1.668,0,3.01
			c1.003,0,2.509,0,4.515,0c0.406,0,0.76,0.142,1.058,0.427c0.285,0.298,0.427,0.651,0.427,1.057c0,1.343,0,3.343,0,6.001
			c0,0.42-0.142,0.772-0.427,1.057c-0.298,0.298-0.652,0.448-1.058,0.448c-1.343,0-3.342,0-6,0c-0.42,0-0.774-0.149-1.058-0.448
			c-0.298-0.285-0.448-0.637-0.448-1.057c0-0.664,0-1.662,0-2.991c0.666,0,1.662,0,2.991,0c0,0.326,0,0.827,0,1.506
			c0.677,0,1.68,0,3.009,0c0-0.678,0-1.681,0-3.01c-1.003,0-2.502,0-4.494,0c-0.42,0-0.774-0.142-1.058-0.427
			c-0.298-0.298-0.448-0.658-0.448-1.079c0-0.663,0-1.498,0-2.502c0-1.003,0-2.169,0-3.498c0-0.406,0.149-0.759,0.448-1.057
			c0.285-0.286,0.638-0.428,1.058-0.428c1.329,0,3.328,0,6,0c0.406,0,0.76,0.142,1.058,0.428c0.285,0.298,0.427,0.651,0.427,1.057
			c0,0.678,0,1.681,0,3.01C465.154,379.198,464.158,379.198,462.829,379.198z"/>
	</g>
	<g>
		<path fill="#FFFFFF" d="M477.82,374.702c0,2.998,0,7.492,0,13.487c0,0.42-0.142,0.772-0.427,1.057
			c-0.298,0.298-0.652,0.448-1.058,0.448c-1.343,0-3.342,0-6,0c-0.42,0-0.774-0.149-1.058-0.448
			c-0.298-0.285-0.448-0.637-0.448-1.057c0-1.492,0-3.364,0-5.615c0-2.251,0-4.874,0-7.872c0.666,0,1.662,0,2.991,0
			c0,2.658,0,6.659,0,12.002c0.677,0,1.68,0,3.009,0c0-2.672,0-6.672,0-12.002C475.495,374.702,476.491,374.702,477.82,374.702z"/>
	</g>
	<g>
		<path fill="#FFFFFF" d="M488.338,382.188c0.406,0,0.758,0.149,1.056,0.448c0.285,0.285,0.427,0.638,0.427,1.058
			c0,1.003,0,2.502,0,4.496c0,0.42-0.142,0.772-0.427,1.057c-0.298,0.298-0.65,0.448-1.056,0.448c-1.005,0-2.509,0-4.517,0
			c-0.663,0-1.66,0-2.989,0c0-0.664,0-1.661,0-2.99c0-0.678,0-1.681,0-3.01c0-0.664,0-1.661,0-2.99c0-0.34,0-0.76,0-1.261
			c0-0.501,0-1.085,0-1.749c0-0.665,0-1.662,0-2.991c0.663,0,1.66,0,2.989,0c1.003,0,2.509,0,4.517,0
			c0.406,0,0.758,0.142,1.056,0.428c0.285,0.298,0.427,0.651,0.427,1.057c0,1.004,0,2.509,0,4.516c0,0.406-0.142,0.759-0.427,1.057
			C489.095,382.045,488.744,382.188,488.338,382.188z M483.82,380.704c0.679,0,1.682,0,3.012,0c0-0.123,0-0.298,0-0.529
			c0-0.557,0-1.383,0-2.481c-0.666,0-1.669,0-3.012,0C483.82,378.358,483.82,379.361,483.82,380.704z M483.82,386.704
			c0.679,0,1.682,0,3.012,0c0-0.123,0-0.298,0-0.529c0-0.556,0-1.383,0-2.481c-0.666,0-1.669,0-3.012,0
			C483.82,384.358,483.82,385.361,483.82,386.704z"/>
	</g>
	<g>
		<path fill="#FFFFFF" d="M498.832,379.198c0-0.339,0-0.84,0-1.505c-0.666,0-1.669,0-3.012,0c0,0.664,0,1.668,0,3.01
			c1.003,0,2.509,0,4.517,0c0.406,0,0.757,0.142,1.056,0.427c0.285,0.298,0.427,0.651,0.427,1.057c0,1.343,0,3.343,0,6.001
			c0,0.42-0.142,0.772-0.427,1.057c-0.298,0.298-0.65,0.448-1.056,0.448c-1.343,0-3.344,0-6.003,0c-0.42,0-0.771-0.149-1.056-0.448
			c-0.298-0.285-0.448-0.637-0.448-1.057c0-0.664,0-1.662,0-2.991c0.663,0,1.66,0,2.989,0c0,0.326,0,0.827,0,1.506
			c0.679,0,1.683,0,3.012,0c0-0.678,0-1.681,0-3.01c-1.003,0-2.502,0-4.497,0c-0.42,0-0.771-0.142-1.056-0.427
			c-0.298-0.298-0.448-0.658-0.448-1.079c0-0.663,0-1.498,0-2.502c0-1.003,0-2.169,0-3.498c0-0.406,0.149-0.759,0.448-1.057
			c0.285-0.286,0.636-0.428,1.056-0.428c1.329,0,3.331,0,6.003,0c0.406,0,0.757,0.142,1.056,0.428
			c0.285,0.298,0.427,0.651,0.427,1.057c0,0.678,0,1.681,0,3.01C501.158,379.198,500.161,379.198,498.832,379.198z"/>
	</g>
	<g>
		<path fill="#FFFFFF" d="M510.833,379.198c0-0.339,0-0.84,0-1.505c-0.666,0-1.669,0-3.012,0c0,2.006,0,5.01,0,9.011
			c0.679,0,1.682,0,3.012,0c0-0.338,0-0.841,0-1.506c0.663,0,1.66,0,2.989,0c0,0.664,0,1.662,0,2.991
			c0,0.42-0.142,0.772-0.427,1.057c-0.298,0.298-0.65,0.448-1.056,0.448c-1.343,0-3.344,0-6.002,0c-0.42,0-0.771-0.149-1.056-0.448
			c-0.298-0.285-0.448-0.637-0.448-1.057c0-1.004,0-2.509,0-4.516c0-0.826,0-1.857,0-3.092c0-1.261,0-2.726,0-4.393
			c0-0.406,0.149-0.759,0.448-1.057c0.285-0.286,0.636-0.428,1.056-0.428c1.329,0,3.331,0,6.002,0c0.406,0,0.757,0.142,1.056,0.428
			c0.285,0.298,0.427,0.651,0.427,1.057c0,0.678,0,1.681,0,3.01C513.158,379.198,512.162,379.198,510.833,379.198z"/>
	</g>
	<g>
		<path fill="#FFFFFF" d="M524.339,382.188c0.406,0,0.76,0.149,1.058,0.448c0.285,0.285,0.427,0.638,0.427,1.058
			c0,1.329,0,3.329,0,6c-0.666,0-1.662,0-2.991,0c0-1.329,0-3.328,0-6c-0.663,0-1.667,0-3.009,0c0,1.329,0,3.329,0,6
			c-0.666,0-1.662,0-2.991,0c0-1.329,0-3.328,0-6c0-0.664,0-1.661,0-2.99c0-0.664,0-1.499,0-2.502c0-1.004,0-2.17,0-3.499
			c0.666,0,1.662,0,2.991,0c1.003,0,2.509,0,4.515,0c0.406,0,0.76,0.142,1.058,0.428c0.285,0.298,0.427,0.651,0.427,1.057
			c0,1.004,0,2.509,0,4.516c0,0.406-0.142,0.759-0.427,1.057C525.099,382.045,524.745,382.188,524.339,382.188z M522.833,380.704
			c0-0.123,0-0.298,0-0.529c0-0.557,0-1.383,0-2.481c-0.663,0-1.667,0-3.009,0c0,0.664,0,1.668,0,3.01
			C520.501,380.704,521.504,380.704,522.833,380.704z"/>
	</g>
	<g>
		<path fill="#FFFFFF" d="M528.833,374.702c0.503,0,1.499,0,2.991,0c0,1.872,0,5.621,0,11.249c0,0.624,0,1.872,0,3.743
			c-0.489,0-1.485,0-2.991,0c0-1.668,0-3.75,0-6.245C528.833,380.954,528.833,378.039,528.833,374.702z"/>
	</g>
	<g>
		<path fill="#FFFFFF" d="M543.825,376.187c0,1.343,0,3.343,0,6c0,0.421-0.142,0.78-0.427,1.079
			c-0.298,0.285-0.652,0.427-1.058,0.427c-1.003,0-2.509,0-4.515,0c0,1.329,0,3.329,0,6c-0.666,0-1.662,0-2.991,0
			c0-0.664,0-1.498,0-2.502c0-0.989,0-2.155,0-3.498c0-0.664,0-1.661,0-2.99c0-0.678,0-1.681,0-3.01c0-0.665,0-1.662,0-2.991
			c0.666,0,1.662,0,2.991,0c1.003,0,2.509,0,4.515,0c0.406,0,0.76,0.142,1.058,0.428
			C543.682,375.429,543.825,375.781,543.825,376.187z M537.824,380.704c0.677,0,1.68,0,3.009,0c0-0.123,0-0.298,0-0.529
			c0-0.557,0-1.383,0-2.481c-0.663,0-1.667,0-3.009,0C537.824,378.358,537.824,379.361,537.824,380.704z"/>
	</g>
	<g>
		<path fill="#FFFFFF" d="M555.825,377.693c-1.329,0-2.325,0-2.989,0c0,6.007,0,10.007,0,12c-1.506,0-2.509,0-3.012,0
			c0-5.993,0-9.994,0-12c-1.492,0-2.488,0-2.989,0c0-0.746,0-1.37,0-1.872c0-0.502,0-0.875,0-1.119c4.501,0,7.499,0,8.989,0
			C555.825,376.031,555.825,377.029,555.825,377.693z"/>
	</g>
	<g>
		<path fill="#FFFFFF" d="M558.837,374.702c0.5,0,1.497,0,2.989,0c0,1.872,0,5.621,0,11.249c0,0.624,0,1.872,0,3.743
			c-0.487,0-1.485,0-2.989,0c0-1.668,0-3.75,0-6.245C558.837,380.954,558.837,378.039,558.837,374.702z"/>
	</g>
	<g>
		<path fill="#FFFFFF" d="M573.826,376.187c0,2.672,0,6.672,0,12.002c0,0.42-0.142,0.772-0.427,1.057
			c-0.298,0.298-0.65,0.448-1.056,0.448c-1.343,0-3.344,0-6.003,0c-0.42,0-0.771-0.149-1.056-0.448
			c-0.298-0.285-0.448-0.637-0.448-1.057c0-1.004,0-2.509,0-4.516c0-0.826,0-1.857,0-3.092c0-1.261,0-2.726,0-4.393
			c0-0.406,0.149-0.759,0.448-1.057c0.285-0.286,0.636-0.428,1.056-0.428c1.329,0,3.331,0,6.003,0c0.406,0,0.758,0.142,1.056,0.428
			C573.683,375.429,573.826,375.781,573.826,376.187z M567.826,386.704c0.679,0,1.682,0,3.012,0c0-0.135,0-0.333,0-0.59
			c0-1.872,0-4.678,0-8.421c-0.666,0-1.669,0-3.012,0c0,1.003,0,2.502,0,4.494C567.826,383.192,567.826,384.696,567.826,386.704z"/>
	</g>
	<g>
		<path fill="#FFFFFF" d="M585.828,376.187c0,3.01,0,7.513,0,13.506c-0.666,0-1.662,0-2.991,0c0-2.671,0-6.672,0-12
			c-0.663,0-1.666,0-3.009,0c0,2.671,0,6.672,0,12c-0.666,0-1.662,0-2.991,0c0-1.668,0-3.75,0-6.245c0-2.495,0-5.41,0-8.747
			c0.666,0,1.662,0,2.991,0c1.003,0,2.509,0,4.515,0c0.406,0,0.76,0.142,1.058,0.428
			C585.686,375.429,585.828,375.781,585.828,376.187z"/>
	</g>
	<g>
		<path fill="#FFFFFF" d="M594.838,379.198c0-0.339,0-0.84,0-1.505c-0.663,0-1.667,0-3.009,0c0,0.664,0,1.668,0,3.01
			c1.003,0,2.509,0,4.515,0c0.406,0,0.76,0.142,1.058,0.427c0.285,0.298,0.427,0.651,0.427,1.057c0,1.343,0,3.343,0,6.001
			c0,0.42-0.142,0.772-0.427,1.057c-0.298,0.298-0.652,0.448-1.058,0.448c-1.343,0-3.342,0-6,0c-0.42,0-0.774-0.149-1.058-0.448
			c-0.298-0.285-0.448-0.637-0.448-1.057c0-0.664,0-1.662,0-2.991c0.666,0,1.662,0,2.991,0c0,0.326,0,0.827,0,1.506
			c0.677,0,1.68,0,3.009,0c0-0.678,0-1.681,0-3.01c-1.003,0-2.502,0-4.495,0c-0.42,0-0.774-0.142-1.058-0.427
			c-0.298-0.298-0.448-0.658-0.448-1.079c0-0.663,0-1.498,0-2.502c0-1.003,0-2.169,0-3.498c0-0.406,0.149-0.759,0.448-1.057
			c0.285-0.286,0.638-0.428,1.058-0.428c1.329,0,3.328,0,6,0c0.406,0,0.76,0.142,1.058,0.428c0.285,0.298,0.427,0.651,0.427,1.057
			c0,0.678,0,1.681,0,3.01C597.163,379.198,596.167,379.198,594.838,379.198z"/>
	</g>
	<g>
		<path fill="#FFFFFF" d="M603.829,386.704c0,0.665,0,1.159,0,1.485c0,0.665,0,1.166,0,1.505c-1.329,1.329-2.325,2.325-2.991,2.99
			c0-0.828,0-1.451,0-1.871c0.652-0.557,1.079-0.93,1.283-1.119c-0.638,0-1.065,0-1.283,0c0-0.76,0-1.39,0-1.891
			c0-0.489,0-0.855,0-1.098C602.167,386.704,603.163,386.704,603.829,386.704z"/>
	</g>
	<g>
		<path fill="#FFFFFF" d="M309.809,401.182c0,3.01,0,7.513,0,13.506c-0.664,0-1.661,0-2.99,0c0-2.671,0-6.672,0-12
			c-0.665,0-1.668,0-3.011,0c0,2.671,0,6.672,0,12c-0.664,0-1.661,0-2.99,0c0-1.668,0-3.75,0-6.245c0-2.495,0-5.41,0-8.747
			c0.664,0,1.661,0,2.99,0c1.004,0,2.509,0,4.516,0c0.407,0,0.759,0.142,1.058,0.428
			C309.666,400.424,309.809,400.776,309.809,401.182z"/>
	</g>
	<g>
		<path fill="#FFFFFF" d="M321.809,401.182c0,2.672,0,6.672,0,12.002c0,0.42-0.142,0.772-0.427,1.057
			c-0.299,0.298-0.651,0.448-1.058,0.448c-1.342,0-3.343,0-6,0c-0.421,0-0.773-0.149-1.058-0.448
			c-0.298-0.285-0.448-0.637-0.448-1.057c0-1.004,0-2.509,0-4.516c0-0.826,0-1.857,0-3.092c0-1.261,0-2.726,0-4.393
			c0-0.406,0.149-0.759,0.448-1.057c0.285-0.286,0.637-0.428,1.058-0.428c1.329,0,3.329,0,6,0c0.407,0,0.759,0.142,1.058,0.428
			C321.667,400.424,321.809,400.776,321.809,401.182z M315.808,411.699c0.678,0,1.681,0,3.01,0c0-0.135,0-0.333,0-0.59
			c0-1.872,0-4.678,0-8.421c-0.664,0-1.668,0-3.01,0c0,1.003,0,2.502,0,4.495C315.808,408.187,315.808,409.691,315.808,411.699z"/>
	</g>
	<g>
		<path fill="#FFFFFF" d="M333.81,402.688c-1.329,0-2.326,0-2.99,0c0,6.007,0,10.007,0,12c-1.505,0-2.509,0-3.01,0
			c0-5.993,0-9.994,0-12c-1.491,0-2.488,0-2.99,0c0-0.746,0-1.37,0-1.872c0-0.502,0-0.875,0-1.119c4.502,0,7.498,0,8.991,0
			C333.81,401.026,333.81,402.023,333.81,402.688z"/>
	</g>
	<g>
		<path fill="#FFFFFF" d="M348.821,399.697c0.502,0,1.498,0,2.99,0c0,1.872,0,5.621,0,11.249c0,0.624,0,1.872,0,3.743
			c-0.488,0-1.485,0-2.99,0c0-1.248,0-3.118,0-5.613C348.821,406.58,348.821,403.453,348.821,399.697z"/>
	</g>
	<g>
		<path fill="#FFFFFF" d="M360.822,404.193c0-0.339,0-0.84,0-1.505c-0.664,0-1.668,0-3.01,0c0,2.006,0,5.01,0,9.011
			c0.678,0,1.681,0,3.01,0c0-0.339,0-0.841,0-1.506c0.665,0,1.661,0,2.99,0c0,0.664,0,1.662,0,2.991c0,0.42-0.142,0.772-0.427,1.057
			c-0.299,0.298-0.651,0.448-1.058,0.448c-1.342,0-3.343,0-6,0c-0.421,0-0.773-0.149-1.058-0.448
			c-0.298-0.285-0.448-0.637-0.448-1.057c0-1.004,0-2.509,0-4.516c0-0.826,0-1.857,0-3.092c0-1.261,0-2.726,0-4.393
			c0-0.406,0.149-0.759,0.448-1.057c0.285-0.286,0.637-0.428,1.058-0.428c1.329,0,3.329,0,6,0c0.407,0,0.759,0.142,1.058,0.428
			c0.285,0.298,0.427,0.651,0.427,1.057c0,0.678,0,1.681,0,3.01C363.148,404.193,362.151,404.193,360.822,404.193z"/>
	</g>
	<g>
		<path fill="#FFFFFF" d="M375.813,401.182c0,2.672,0,6.672,0,12.002c0,0.42-0.142,0.772-0.427,1.057
			c-0.299,0.298-0.651,0.448-1.058,0.448c-1.342,0-3.343,0-6,0c-0.421,0-0.773-0.149-1.058-0.448
			c-0.298-0.285-0.448-0.637-0.448-1.057c0-1.004,0-2.509,0-4.516c0-0.826,0-1.857,0-3.092c0-1.261,0-2.726,0-4.393
			c0-0.406,0.149-0.759,0.448-1.057c0.285-0.286,0.637-0.428,1.058-0.428c1.329,0,3.329,0,6,0c0.407,0,0.759,0.142,1.058,0.428
			C375.671,400.424,375.813,400.776,375.813,401.182z M369.812,411.699c0.678,0,1.681,0,3.01,0c0-0.135,0-0.333,0-0.59
			c0-1.872,0-4.678,0-8.421c-0.665,0-1.668,0-3.01,0c0,1.003,0,2.502,0,4.495C369.812,408.187,369.812,409.691,369.812,411.699z"/>
	</g>
	<g>
		<path fill="#FFFFFF" d="M381.444,407.818c0-0.222,0-0.55,0-0.985c-0.435,0-1.091,0-1.969,0c0,0.435,0,1.091,0,1.97
			c0.657,0,1.641,0,2.954,0c0.266,0,0.497,0.094,0.693,0.28c0.186,0.195,0.279,0.425,0.279,0.691c0,0.878,0,2.186,0,3.925
			c0,0.274-0.093,0.505-0.279,0.691c-0.196,0.195-0.426,0.293-0.693,0.293c-0.877,0-2.186,0-3.924,0
			c-0.275,0-0.506-0.098-0.692-0.293c-0.195-0.186-0.293-0.417-0.293-0.691c0-0.435,0-1.087,0-1.957c0.434,0,1.086,0,1.955,0
			c0,0.214,0,0.542,0,0.986c0.444,0,1.1,0,1.969,0c0-0.444,0-1.099,0-1.969c-0.656,0-1.636,0-2.94,0
			c-0.275,0-0.506-0.093-0.692-0.28c-0.195-0.195-0.293-0.429-0.293-0.705c0-0.435,0-0.98,0-1.638c0-0.655,0-1.419,0-2.287
			c0-0.265,0.098-0.496,0.293-0.691c0.186-0.188,0.417-0.28,0.692-0.28c0.869,0,2.177,0,3.924,0c0.266,0,0.497,0.092,0.693,0.28
			c0.186,0.195,0.279,0.426,0.279,0.691c0,0.444,0,1.099,0,1.97C382.965,407.818,382.313,407.818,381.444,407.818z"/>
	</g>
</g>
<g>
	<rect x="343.771" y="197.48" fill="#FFFFFF" width="18.033" height="0.681"/>
</g>
<g>
	<rect x="356.594" y="203.349" fill="#FFFFFF" width="18.034" height="0.681"/>
</g>
<g>
	<rect x="340.879" y="208.134" fill="#FFFFFF" width="14.822" height="0.681"/>
</g>
<g>
	<rect x="351.299" y="203.072" fill="#FFFFFF" width="3.487" height="1.407"/>
</g>
<g>
	<rect x="333.797" y="207.751" fill="#FFFFFF" width="3.487" height="1.407"/>
</g>
<g>
	<rect x="327.545" y="207.368" fill="#FFFFFF" width="3.487" height="1.407"/>
</g>
<g>
	<rect x="337.519" y="197.075" fill="#FFFFFF" width="3.487" height="1.407"/>
</g>
<g>
	<path fill="#FFFFFF" d="M381.345,188.975l-4.179-2.554l7.818-5.531l7.573,4.628l-4.284,3.031l-3.393-2.074L381.345,188.975z
		 M378.767,186.367l2.542,1.553l3.534-2.5l3.393,2.074l2.718-1.922l-5.935-3.627L378.767,186.367z"/>
</g>
<g>
	<path fill="#FFFFFF" d="M384.157,222.951l-7.572-4.628l4.284-3.031l3.393,2.073l3.534-2.5l4.179,2.554L384.157,222.951z
		 M378.187,218.269l5.934,3.627l6.252-4.423l-2.542-1.553l-3.534,2.5l-3.393-2.073L378.187,218.269z"/>
</g>
<g>
	<path fill="#FFFFFF" d="M384.312,215.184l-10.206-6.238l9.873-6.984l-9.477-5.792l10.561-7.472l19.685,12.03L384.312,215.184z
		 M375.709,208.893l8.568,5.237l18.869-13.347l-18.047-11.029l-8.994,6.363l9.477,5.792L375.709,208.893z"/>
</g>
<g>
	<g>
		
			<rect x="590.49" y="306.497" transform="matrix(0.087 -0.9962 0.9962 0.087 237.5317 872.868)" fill="#FFFFFF" width="9.017" height="0.682"/>
	</g>
	<g>
		
			<rect x="581.883" y="292.649" transform="matrix(0.0869 -0.9962 0.9962 0.0869 245.6325 853.9831)" fill="#FFFFFF" width="13.624" height="0.683"/>
	</g>
	<g>
		
			<rect x="586.135" y="302.618" transform="matrix(0.0869 -0.9962 0.9962 0.0869 234.6442 862.6337)" fill="#FFFFFF" width="3.487" height="1.407"/>
	</g>
	<g>
		
			<rect x="592.158" y="315.873" transform="matrix(0.0869 -0.9962 0.9962 0.0869 226.9212 880.7269)" fill="#FFFFFF" width="3.489" height="1.407"/>
	</g>
	<g>
		<path fill="#FFFFFF" d="M596.9,288.216l-5.811-10.605l-6.837,8.755l-6.217-11.346l0.178-0.229l14.023-17.953l12.027,21.953
			L596.9,288.216z M591.218,276.013l5.811,10.605l6.183-7.912l-11.104-20.271l-13.021,16.669l5.294,9.664L591.218,276.013z"/>
	</g>
	<g>
		<path fill="#FFFFFF" d="M594.078,257.883l-1.691-3.088l-1.99,2.549l-2.137-3.9l4.554-5.83l3.828,6.988L594.078,257.883z
			 M592.518,253.196l1.691,3.089l1.382-1.769l-2.907-5.305l-3.372,4.317l1.214,2.218L592.518,253.196z"/>
	</g>
	<g>
		<linearGradient id="SVGID_10_" gradientUnits="userSpaceOnUse" x1="591.4275" y1="279.6137" x2="591.4275" y2="262.9283">
			<stop  offset="0" style="stop-color:#2E74FF"/>
			<stop  offset="0.5644" style="stop-color:#00FFEF"/>
		</linearGradient>
		<polygon fill="url(#SVGID_10_)" points="591.427,273.677 594.693,279.614 598.483,274.751 591.985,262.928 584.372,272.701 
			587.603,278.584 		"/>
	</g>
</g>
<g>
	<g>
		<path fill="#FFFFFF" d="M247.104,328.895l-7.843-11.502l-6.856,10.795l-8.308-12.189l14.16-22.297l16.152,23.692L247.104,328.895z
			 M239.234,315.791l7.843,11.502l6.276-9.882l-15.071-22.106l-13.132,20.678l7.227,10.603L239.234,315.791z"/>
	</g>
	<g>
		<linearGradient id="SVGID_11_" gradientUnits="userSpaceOnUse" x1="239.2162" y1="319.4069" x2="239.2162" y2="300.5891">
			<stop  offset="0" style="stop-color:#2E74FF"/>
			<stop  offset="0.6634" style="stop-color:#6FFFEF"/>
		</linearGradient>
		<polygon fill="url(#SVGID_11_)" points="239.21,312.965 243.617,319.407 247.415,313.408 238.649,300.589 231.017,312.64 
			235.377,319.02 		"/>
	</g>
</g>
<g>
	<g>
		<path fill="#FFFFFF" d="M245.782,291.728l-7.843-11.502l-6.856,10.795l-8.308-12.188l14.16-22.298l16.152,23.692L245.782,291.728z
			 M237.912,278.623l7.843,11.503l6.276-9.881l-15.071-22.106l-13.132,20.677l7.227,10.603L237.912,278.623z"/>
	</g>
	<g>
		<linearGradient id="SVGID_12_" gradientUnits="userSpaceOnUse" x1="237.8941" y1="282.2396" x2="237.8941" y2="263.4218">
			<stop  offset="0" style="stop-color:#2E74FF"/>
			<stop  offset="0.651" style="stop-color:#6CF8F0"/>
			<stop  offset="1" style="stop-color:#6FFFEF"/>
		</linearGradient>
		<polygon fill="url(#SVGID_12_)" points="237.888,275.798 242.295,282.24 246.093,276.241 237.327,263.422 229.695,275.473 
			234.055,281.853 		"/>
	</g>
</g>
<g>
	<linearGradient id="SVGID_13_" gradientUnits="userSpaceOnUse" x1="402.678" y1="418.6388" x2="402.678" y2="394.742">
		<stop  offset="0" style="stop-color:#2E31FF"/>
		<stop  offset="0.7228" style="stop-color:#00FFEF"/>
	</linearGradient>
	<polygon fill="url(#SVGID_13_)" points="401.113,407.172 397.886,414.708 405.342,414.698 411.769,399.709 396.79,399.727 
		393.587,407.187 	"/>
</g>
<g>
	<linearGradient id="SVGID_14_" gradientUnits="userSpaceOnUse" x1="383.1274" y1="201.9386" x2="399.3944" y2="201.9386">
		<stop  offset="0" style="stop-color:#2E74FF"/>
		<stop  offset="0.4802" style="stop-color:#6FFFEF"/>
	</linearGradient>
	<polygon fill="url(#SVGID_14_)" points="388.655,201.932 383.127,205.856 388.393,209.065 399.394,201.26 388.816,194.813 
		383.34,198.695 	"/>
</g>
<g>
	<rect x="410.644" y="200.208" fill="#FFFFFF" width="3.487" height="1.407"/>
</g>
<g>
	<rect x="422.384" y="200.208" fill="#FFFFFF" width="3.487" height="1.407"/>
</g>
<g>
	<rect x="434.122" y="200.208" fill="#FFFFFF" width="3.487" height="1.407"/>
</g>
<linearGradient id="SVGID_15_" gradientUnits="userSpaceOnUse" x1="239.9987" y1="342.2474" x2="239.9987" y2="330.006">
	<stop  offset="0" style="stop-color:#2E74FF"/>
	<stop  offset="1" style="stop-color:#6FFFEF"/>
</linearGradient>
<polygon fill="url(#SVGID_15_)" points="244.955,339.016 239.754,330.006 234.194,339.016 214.682,339.016 214.682,342.247 
	265.315,342.247 265.315,339.016 "/>
<g>
	<path fill="none" stroke="#FFFFFF" stroke-width="0.5" stroke-miterlimit="10" d="M223.308,351.369c0-0.25,0-0.619,0-1.108
		c-0.489,0-1.227,0-2.215,0c0,0.489,0,1.227,0,2.215c0.739,0,1.846,0,3.323,0c0.299,0,0.558,0.104,0.778,0.315
		c0.209,0.219,0.314,0.479,0.314,0.778c0,0.987,0,2.46,0,4.415c0,0.31-0.105,0.569-0.314,0.778c-0.22,0.219-0.479,0.329-0.778,0.329
		c-0.988,0-2.46,0-4.416,0c-0.309,0-0.569-0.11-0.778-0.329c-0.22-0.209-0.329-0.468-0.329-0.778c0-0.489,0-1.222,0-2.2
		c0.489,0,1.222,0,2.2,0c0,0.24,0,0.608,0,1.107c0.499,0,1.237,0,2.215,0c0-0.499,0-1.237,0-2.215c-0.739,0-1.841,0-3.308,0
		c-0.309,0-0.569-0.104-0.778-0.314c-0.22-0.219-0.329-0.484-0.329-0.793c0-0.489,0-1.103,0-1.841c0-0.739,0-1.596,0-2.574
		c0-0.3,0.11-0.559,0.329-0.779c0.209-0.209,0.469-0.313,0.778-0.313c0.978,0,2.45,0,4.416,0c0.299,0,0.558,0.104,0.778,0.313
		c0.209,0.22,0.314,0.48,0.314,0.779c0,0.498,0,1.237,0,2.215C225.019,351.369,224.286,351.369,223.308,351.369z"/>
	<path fill="none" stroke="#FFFFFF" stroke-width="0.5" stroke-miterlimit="10" d="M234.34,350.262c-0.979,0-1.712,0-2.201,0
		c0,4.42,0,7.364,0,8.83c-1.108,0-1.846,0-2.215,0c0-4.411,0-7.354,0-8.83c-1.098,0-1.831,0-2.2,0c0-0.549,0-1.008,0-1.377
		c0-0.37,0-0.644,0-0.823c3.313,0,5.518,0,6.616,0C234.34,349.04,234.34,349.773,234.34,350.262z"/>
	<path fill="none" stroke="#FFFFFF" stroke-width="0.5" stroke-miterlimit="10" d="M243.171,359.092c-0.49,0-1.223,0-2.201,0
		c0-0.978,0-2.449,0-4.415c-0.489,0-1.227,0-2.215,0c0,0.978,0,2.449,0,4.415c-0.489,0-1.222,0-2.2,0c0-0.829,0-2.075,0-3.742
		c0-0.689,0-1.547,0-2.574c0-1.039,0-2.246,0-3.622c0-0.3,0.11-0.559,0.329-0.779c0.209-0.209,0.469-0.313,0.778-0.313
		c0.978,0,2.45,0,4.416,0c0.299,0,0.558,0.104,0.778,0.313c0.21,0.22,0.314,0.48,0.314,0.779
		C243.171,351.369,243.171,354.682,243.171,359.092z M240.97,352.477c0-0.091,0-0.219,0-0.389c0-0.41,0-1.018,0-1.826
		c-0.489,0-1.227,0-2.215,0c0,0.489,0,1.227,0,2.215C239.254,352.477,239.992,352.477,240.97,352.477z"/>
	<path fill="none" stroke="#FFFFFF" stroke-width="0.5" stroke-miterlimit="10" d="M250.909,353.57c0.299,0,0.558,0.11,0.778,0.329
		c0.209,0.209,0.314,0.468,0.314,0.778c0,0.978,0,2.449,0,4.415c-0.49,0-1.223,0-2.201,0c0-0.978,0-2.449,0-4.415
		c-0.489,0-1.227,0-2.215,0c0,0.978,0,2.449,0,4.415c-0.489,0-1.222,0-2.2,0c0-0.978,0-2.449,0-4.415c0-0.489,0-1.222,0-2.2
		c0-0.489,0-1.103,0-1.841c0-0.739,0-1.596,0-2.574c0.489,0,1.222,0,2.2,0c0.739,0,1.846,0,3.323,0c0.299,0,0.558,0.104,0.778,0.313
		c0.209,0.22,0.314,0.48,0.314,0.779c0,0.738,0,1.845,0,3.323c0,0.3-0.105,0.559-0.314,0.778
		C251.468,353.464,251.208,353.57,250.909,353.57z M249.801,352.477c0-0.091,0-0.219,0-0.389c0-0.41,0-1.018,0-1.826
		c-0.489,0-1.227,0-2.215,0c0,0.489,0,1.227,0,2.215C248.085,352.477,248.823,352.477,249.801,352.477z"/>
	<path fill="none" stroke="#FFFFFF" stroke-width="0.5" stroke-miterlimit="10" d="M260.833,350.262c-0.978,0-1.712,0-2.201,0
		c0,4.42,0,7.364,0,8.83c-1.108,0-1.846,0-2.215,0c0-4.411,0-7.354,0-8.83c-1.098,0-1.831,0-2.2,0c0-0.549,0-1.008,0-1.377
		c0-0.37,0-0.644,0-0.823c3.313,0,5.518,0,6.616,0C260.833,349.04,260.833,349.773,260.833,350.262z"/>
</g>
<g>
	<g>
		<circle fill="#FFFFFF" cx="470.239" cy="200.214" r="10.719"/>
	</g>
	<g>
		<g>
			<g>
				<path fill-rule="evenodd" clip-rule="evenodd" fill="#793DF4" d="M466.249,200.354c1.304-2.28,2.585-4.521,3.909-6.839
					c1.32,2.307,2.605,4.553,3.91,6.836c-0.669,0.377-1.321,0.743-1.972,1.11c-0.566,0.318-1.129,0.644-1.701,0.95
					c-0.107,0.057-0.287,0.096-0.379,0.047C468.767,201.773,467.526,201.071,466.249,200.354z"/>
			</g>
			<g>
				<path fill-rule="evenodd" clip-rule="evenodd" fill="#793DF4" d="M466.407,201.239c1.161,0.654,2.327,1.301,3.482,1.965
					c0.206,0.118,0.356,0.11,0.555-0.006c1.048-0.606,2.105-1.197,3.158-1.792c0.096-0.055,0.199-0.1,0.398-0.199
					c-1.308,1.88-2.555,3.67-3.84,5.517c-1.275-1.831-2.53-3.631-3.784-5.431C466.387,201.275,466.397,201.257,466.407,201.239z"/>
			</g>
		</g>
	</g>
</g>
<g>
	<g>
		<circle fill="#FFFFFF" cx="555.738" cy="200.214" r="10.719"/>
	</g>
	<g>
		<g>
			<g>
				<path fill-rule="evenodd" clip-rule="evenodd" fill="#793DF4" d="M551.748,200.354c1.304-2.28,2.585-4.521,3.909-6.839
					c1.32,2.307,2.605,4.553,3.91,6.836c-0.669,0.377-1.321,0.743-1.972,1.11c-0.566,0.318-1.129,0.644-1.701,0.95
					c-0.107,0.057-0.287,0.096-0.379,0.047C554.267,201.773,553.026,201.071,551.748,200.354z"/>
			</g>
			<g>
				<path fill-rule="evenodd" clip-rule="evenodd" fill="#793DF4" d="M551.907,201.239c1.161,0.654,2.327,1.301,3.482,1.965
					c0.207,0.118,0.356,0.11,0.555-0.006c1.048-0.606,2.105-1.197,3.158-1.792c0.096-0.055,0.199-0.1,0.398-0.199
					c-1.308,1.88-2.555,3.67-3.84,5.517c-1.275-1.831-2.529-3.631-3.784-5.431C551.886,201.275,551.896,201.257,551.907,201.239z"/>
			</g>
		</g>
	</g>
</g>
<g>
	<g>
		<circle fill="#FFFFFF" cx="512.855" cy="208.041" r="10.719"/>
	</g>
	<g>
		<g>
			<g>
				<path fill-rule="evenodd" clip-rule="evenodd" fill="#793DF4" d="M508.866,208.18c1.304-2.28,2.585-4.521,3.909-6.839
					c1.32,2.307,2.605,4.553,3.91,6.836c-0.669,0.377-1.321,0.743-1.972,1.11c-0.566,0.318-1.129,0.644-1.701,0.95
					c-0.107,0.057-0.287,0.096-0.378,0.046C511.384,209.599,510.143,208.897,508.866,208.18z"/>
			</g>
			<g>
				<path fill-rule="evenodd" clip-rule="evenodd" fill="#793DF4" d="M509.024,209.065c1.161,0.654,2.328,1.301,3.482,1.965
					c0.207,0.119,0.356,0.11,0.555-0.006c1.048-0.607,2.105-1.198,3.158-1.792c0.096-0.055,0.199-0.1,0.398-0.199
					c-1.308,1.88-2.555,3.67-3.84,5.517c-1.275-1.831-2.529-3.631-3.784-5.431C509.003,209.101,509.014,209.083,509.024,209.065z"/>
			</g>
		</g>
	</g>
</g>
<g>
	<g>
		<linearGradient id="SVGID_16_" gradientUnits="userSpaceOnUse" x1="251.0396" y1="387.544" x2="251.0396" y2="370.1103">
			<stop  offset="0" style="stop-color:#2E74FF"/>
			<stop  offset="0.6832" style="stop-color:#6FFFEF"/>
		</linearGradient>
		<circle fill="url(#SVGID_16_)" cx="251.04" cy="378.827" r="8.717"/>
	</g>
	<g>
		<g>
			<g>
				<path fill-rule="evenodd" clip-rule="evenodd" fill="#793DF4" d="M247.795,378.941c1.061-1.855,2.101-3.677,3.179-5.562
					c1.074,1.878,2.118,3.702,3.18,5.559c-0.545,0.305-1.074,0.605-1.603,0.903c-0.46,0.258-0.918,0.523-1.384,0.772
					c-0.085,0.046-0.232,0.078-0.307,0.038C249.843,380.094,248.834,379.524,247.795,378.941z"/>
			</g>
			<g>
				<path fill-rule="evenodd" clip-rule="evenodd" fill="#793DF4" d="M247.923,379.662c0.946,0.53,1.893,1.057,2.832,1.598
					c0.168,0.095,0.289,0.088,0.452-0.006c0.852-0.492,1.712-0.973,2.567-1.458c0.079-0.044,0.162-0.081,0.325-0.161
					c-1.064,1.528-2.077,2.983-3.124,4.484c-1.036-1.487-2.057-2.952-3.076-4.414C247.908,379.689,247.916,379.675,247.923,379.662z
					"/>
			</g>
		</g>
	</g>
</g>
<g>
	<linearGradient id="SVGID_17_" gradientUnits="userSpaceOnUse" x1="219.7724" y1="383.6153" x2="219.7724" y2="374.2593">
		<stop  offset="0" style="stop-color:#2E74FF"/>
		<stop  offset="0.6832" style="stop-color:#6FFFEF"/>
	</linearGradient>
	<path fill="url(#SVGID_17_)" d="M221.175,375.187c0,1.879,0,4.688,0,8.429c-0.415,0-1.037,0-1.866,0c0-1.668,0-4.164,0-7.49
		c-0.212,0-0.525,0-0.939,0c0-0.203,0-0.461,0-0.774c0-0.313,0-0.677,0-1.093c0.414,0,1.036,0,1.866,0
		c0.262,0,0.487,0.09,0.672,0.267C221.086,374.713,221.175,374.933,221.175,375.187z"/>
	<linearGradient id="SVGID_18_" gradientUnits="userSpaceOnUse" x1="225.8595" y1="383.6153" x2="225.8595" y2="374.2593">
		<stop  offset="0" style="stop-color:#2E74FF"/>
		<stop  offset="0.6832" style="stop-color:#6FFFEF"/>
	</linearGradient>
	<path fill="url(#SVGID_18_)" d="M228.665,375.187c0,1.668,0,4.164,0,7.49c0,0.262-0.089,0.482-0.267,0.66
		c-0.187,0.186-0.406,0.279-0.66,0.279c-0.838,0-2.087,0-3.745,0c-0.262,0-0.483-0.093-0.66-0.279
		c-0.187-0.178-0.279-0.398-0.279-0.66c0-0.627,0-1.567,0-2.819c0-0.517,0-1.159,0-1.929c0-0.787,0-1.701,0-2.742
		c0-0.254,0.093-0.474,0.279-0.66c0.177-0.178,0.398-0.267,0.66-0.267c0.829,0,2.077,0,3.745,0c0.254,0,0.473,0.09,0.66,0.267
		C228.576,374.713,228.665,374.933,228.665,375.187z M224.92,381.749c0.423,0,1.049,0,1.879,0c0-0.085,0-0.207,0-0.368
		c0-1.167,0-2.92,0-5.255c-0.415,0-1.041,0-1.879,0c0,0.627,0,1.562,0,2.806C224.92,379.557,224.92,380.497,224.92,381.749z"/>
	<linearGradient id="SVGID_19_" gradientUnits="userSpaceOnUse" x1="233.7931" y1="383.6153" x2="233.7931" y2="374.2593">
		<stop  offset="0" style="stop-color:#2E74FF"/>
		<stop  offset="0.6832" style="stop-color:#6FFFEF"/>
	</linearGradient>
	<path fill="url(#SVGID_19_)" d="M234.847,378.932c1.091,2.082,1.908,3.643,2.45,4.684c-0.931,0-1.629,0-2.095,0
		c-0.626-1.354-1.096-2.37-1.409-3.047c-0.627,1.354-1.096,2.37-1.409,3.047c-0.931,0-1.63,0-2.095,0
		c1.091-2.082,1.908-3.643,2.45-4.684c-1.227-2.336-2.044-3.893-2.45-4.672c1.049,0,1.747,0,2.095,0
		c0.702,1.515,1.172,2.526,1.409,3.035c0.702-1.515,1.172-2.526,1.409-3.035c1.049,0,1.748,0,2.095,0
		C236.07,376.596,235.253,378.152,234.847,378.932z"/>
</g>
<g>
	<linearGradient id="SVGID_20_" gradientUnits="userSpaceOnUse" x1="272.5838" y1="218.8036" x2="272.5838" y2="183.4611">
		<stop  offset="0" style="stop-color:#2E74FF"/>
		<stop  offset="1" style="stop-color:#6FFFEF"/>
	</linearGradient>
	<path fill="url(#SVGID_20_)" d="M279.681,201.108c0.959,0,1.79,0.352,2.493,1.055c0.671,0.671,1.007,1.503,1.007,2.493
		c0,2.366,0,5.899,0,10.598c0,0.992-0.336,1.823-1.007,2.494c-0.704,0.704-1.534,1.055-2.493,1.055c-2.366,0-5.915,0-10.646,0
		c-1.567,0-3.917,0-7.049,0c0-1.566,0-3.916,0-7.049c0-1.598,0-3.964,0-7.097c0-1.566,0-3.916,0-7.049c0-0.799,0-1.79,0-2.973
		c0-1.182,0-2.557,0-4.124c0-1.566,0-3.915,0-7.049c1.566,0,3.916,0,7.049,0c2.365,0,5.914,0,10.646,0
		c0.959,0,1.79,0.336,2.493,1.007c0.671,0.704,1.007,1.535,1.007,2.493c0,2.367,0,5.915,0,10.646c0,0.959-0.336,1.791-1.007,2.493
		C281.471,200.773,280.64,201.108,279.681,201.108z M269.035,197.608c1.598,0,3.964,0,7.097,0c0-0.287,0-0.703,0-1.247
		c0-1.31,0-3.261,0-5.851c-1.567,0-3.933,0-7.097,0C269.035,192.077,269.035,194.443,269.035,197.608z M269.035,211.754
		c1.598,0,3.964,0,7.097,0c0-0.288,0-0.703,0-1.247c0-1.311,0-3.261,0-5.85c-1.567,0-3.933,0-7.097,0
		C269.035,206.224,269.035,208.59,269.035,211.754z"/>
	<linearGradient id="SVGID_21_" gradientUnits="userSpaceOnUse" x1="300.8771" y1="218.8036" x2="300.8771" y2="183.4611">
		<stop  offset="0" style="stop-color:#2E74FF"/>
		<stop  offset="1" style="stop-color:#6FFFEF"/>
	</linearGradient>
	<path fill="url(#SVGID_21_)" d="M297.328,190.51c0,3.134,0,5.499,0,7.097c4.731,0,8.28,0,10.646,0c0,3.133,0,5.483,0,7.049
		c-4.732,0-8.281,0-10.646,0c0,3.134,0,5.499,0,7.097c6.298,0,11.013,0,14.147,0c0,3.133,0,5.483,0,7.049
		c-6.267,0-10.982,0-14.147,0c-3.133,0-5.483,0-7.049,0c0-1.566,0-2.941,0-4.124c0-1.182,0-2.158,0-2.925c0-3.549,0-5.914,0-7.097
		c0-3.549,0-5.898,0-7.049c0-3.549,0-5.914,0-7.097c0-3.516,0-5.866,0-7.049c3.549,0,5.899,0,7.049,0c7.097,0,11.813,0,14.147,0
		c0,3.517,0,5.867,0,7.049C305.208,190.51,300.493,190.51,297.328,190.51z"/>
</g>
<g>
	<g>
		<path fill="#FFFFFF" d="M588.342,355.128l-7.062-9.816l-5.717,9.523l-7.553-10.504l11.875-19.778l14.614,20.322L588.342,355.128z
			 M581.214,343.71l7.062,9.816l5.17-8.608l-13.494-18.764l-10.888,18.133l6.433,8.945L581.214,343.71z"/>
	</g>
	<g>
		<linearGradient id="SVGID_22_" gradientUnits="userSpaceOnUse" x1="581.1429" y1="346.8589" x2="581.1429" y2="330.6281">
			<stop  offset="0" style="stop-color:#2E74FF"/>
			<stop  offset="0.5099" style="stop-color:#00FFEF"/>
		</linearGradient>
		<polygon fill="url(#SVGID_22_)" points="581.135,341.363 585.103,346.859 588.271,341.568 580.379,330.628 574.015,341.259 
			577.941,346.703 		"/>
	</g>
</g>
<g>
	<linearGradient id="SVGID_23_" gradientUnits="userSpaceOnUse" x1="581.5985" y1="364.871" x2="581.5985" y2="353.8579">
		<stop  offset="0" style="stop-color:#2E74FF"/>
		<stop  offset="0.7228" style="stop-color:#00FFEF"/>
	</linearGradient>
	<polyline fill="url(#SVGID_23_)" points="576.75,361.304 581.694,353.316 586.447,361.574 	"/>
</g>
<g>
	<linearGradient id="SVGID_24_" gradientUnits="userSpaceOnUse" x1="582.0519" y1="364.871" x2="582.0519" y2="353.8579">
		<stop  offset="0" style="stop-color:#2E74FF"/>
		<stop  offset="0.7228" style="stop-color:#00FFEF"/>
	</linearGradient>
	<rect x="572.397" y="361.136" fill="url(#SVGID_24_)" width="19.31" height="2.875"/>
</g>
<g>
	<linearGradient id="SVGID_25_" gradientUnits="userSpaceOnUse" x1="421.8218" y1="418.6387" x2="421.8218" y2="394.742">
		<stop  offset="0" style="stop-color:#2E74FF"/>
		<stop  offset="0.7228" style="stop-color:#00FFEF"/>
	</linearGradient>
	<path fill="url(#SVGID_25_)" d="M424.075,401.16c0,3.017,0,7.531,0,13.541c-0.666,0-1.666,0-2.998,0c0-2.679,0-6.689,0-12.031
		c-0.34,0-0.843,0-1.509,0c0-0.327,0-0.741,0-1.244c0-0.503,0-1.088,0-1.754c0.666,0,1.665,0,2.998,0
		c0.421,0,0.782,0.142,1.081,0.428C423.932,400.398,424.075,400.752,424.075,401.16z"/>
	<linearGradient id="SVGID_26_" gradientUnits="userSpaceOnUse" x1="431.5999" y1="418.6387" x2="431.5999" y2="394.742">
		<stop  offset="0" style="stop-color:#2E74FF"/>
		<stop  offset="0.7228" style="stop-color:#00FFEF"/>
	</linearGradient>
	<path fill="url(#SVGID_26_)" d="M434.618,407.175c0.408,0,0.762,0.15,1.061,0.449c0.286,0.286,0.428,0.639,0.428,1.061
		c0,1.007,0,2.509,0,4.507c0,0.421-0.142,0.775-0.428,1.061c-0.299,0.3-0.653,0.449-1.061,0.449c-1.346,0-3.351,0-6.016,0
		c-0.422,0-0.775-0.149-1.061-0.449c-0.299-0.286-0.449-0.639-0.449-1.061c0-0.286,0-0.645,0-1.081c0-0.449,0-0.965,0-1.549
		c0.666,0,1.665,0,2.998,0c0,0.258,0,0.639,0,1.142c0.679,0,1.685,0,3.018,0c0-0.679,0-1.686,0-3.018c-0.666,0-1.672,0-3.018,0
		c0-0.666,0-1.665,0-2.998c0.679,0,1.685,0,3.018,0c0-0.679,0-1.685,0-3.017c-0.666,0-1.672,0-3.018,0c0,0.258,0,0.631,0,1.121
		c-0.666,0-1.665,0-2.998,0c0-0.584,0-1.461,0-2.631c0-0.409,0.149-0.762,0.449-1.06c0.285-0.286,0.639-0.428,1.061-0.428
		c1.332,0,3.337,0,6.016,0c0.408,0,0.762,0.142,1.061,0.428c0.286,0.298,0.428,0.652,0.428,1.06c0,1.005,0,2.515,0,4.527
		c0,0.409-0.142,0.762-0.428,1.06C435.38,407.033,435.026,407.175,434.618,407.175z"/>
	<linearGradient id="SVGID_27_" gradientUnits="userSpaceOnUse" x1="443.6319" y1="418.6387" x2="443.6319" y2="394.742">
		<stop  offset="0" style="stop-color:#2E74FF"/>
		<stop  offset="0.7228" style="stop-color:#00FFEF"/>
	</linearGradient>
	<path fill="url(#SVGID_27_)" d="M446.65,407.175c0.408,0,0.762,0.15,1.061,0.449c0.286,0.286,0.428,0.639,0.428,1.061
		c0,1.007,0,2.509,0,4.507c0,0.421-0.142,0.775-0.428,1.061c-0.299,0.3-0.652,0.449-1.061,0.449c-1.346,0-3.351,0-6.016,0
		c-0.422,0-0.775-0.149-1.061-0.449c-0.299-0.286-0.449-0.639-0.449-1.061c0-0.286,0-0.645,0-1.081c0-0.449,0-0.965,0-1.549
		c0.666,0,1.665,0,2.998,0c0,0.258,0,0.639,0,1.142c0.679,0,1.685,0,3.018,0c0-0.679,0-1.686,0-3.018c-0.666,0-1.672,0-3.018,0
		c0-0.666,0-1.665,0-2.998c0.679,0,1.685,0,3.018,0c0-0.679,0-1.685,0-3.017c-0.666,0-1.672,0-3.018,0c0,0.258,0,0.631,0,1.121
		c-0.666,0-1.665,0-2.998,0c0-0.584,0-1.461,0-2.631c0-0.409,0.149-0.762,0.449-1.06c0.285-0.286,0.639-0.428,1.061-0.428
		c1.332,0,3.337,0,6.016,0c0.408,0,0.762,0.142,1.061,0.428c0.286,0.298,0.428,0.652,0.428,1.06c0,1.005,0,2.515,0,4.527
		c0,0.409-0.142,0.762-0.428,1.06C447.412,407.033,447.058,407.175,446.65,407.175z"/>
	<linearGradient id="SVGID_28_" gradientUnits="userSpaceOnUse" x1="455.6636" y1="418.6387" x2="455.6636" y2="394.742">
		<stop  offset="0" style="stop-color:#2E74FF"/>
		<stop  offset="0.7228" style="stop-color:#00FFEF"/>
	</linearGradient>
	<path fill="url(#SVGID_28_)" d="M460.171,399.672c-2.57,6.675-4.5,11.685-5.791,15.029c-1.428,0-2.502,0-3.223,0
		c2.311-6.009,3.854-10.019,4.63-12.031c-2.311,0-3.855,0-4.63,0c0-0.748,0-1.374,0-1.877c0-0.503,0-0.877,0-1.121
		c2.909,0,4.847,0,5.812,0c0.286,0,0.476,0,0.572,0C458.708,399.672,459.585,399.672,460.171,399.672z"/>
	<linearGradient id="SVGID_29_" gradientUnits="userSpaceOnUse" x1="467.6956" y1="418.6387" x2="467.6956" y2="394.742">
		<stop  offset="0" style="stop-color:#2E74FF"/>
		<stop  offset="0.7228" style="stop-color:#00FFEF"/>
	</linearGradient>
	<path fill="url(#SVGID_29_)" d="M472.202,414.701c-0.666,0-1.665,0-2.998,0c0-1.332,0-3.337,0-6.016c-0.666,0-1.672,0-3.017,0
		c0,1.333,0,3.337,0,6.016c-0.667,0-1.665,0-2.998,0c0-1.128,0-2.828,0-5.098c0-0.938,0-2.107,0-3.507c0-1.414,0-3.06,0-4.935
		c0-0.409,0.149-0.762,0.449-1.06c0.285-0.286,0.638-0.428,1.061-0.428c1.331,0,3.337,0,6.015,0c0.409,0,0.762,0.142,1.061,0.428
		c0.286,0.298,0.428,0.652,0.428,1.06C472.202,404.178,472.202,408.692,472.202,414.701z M469.204,405.687c0-0.122,0-0.298,0-0.53
		c0-0.557,0-1.386,0-2.487c-0.666,0-1.672,0-3.017,0c0,0.666,0,1.672,0,3.017C466.866,405.687,467.872,405.687,469.204,405.687z"/>
	<linearGradient id="SVGID_30_" gradientUnits="userSpaceOnUse" x1="479.7276" y1="418.6387" x2="479.7276" y2="394.742">
		<stop  offset="0" style="stop-color:#2E74FF"/>
		<stop  offset="0.7228" style="stop-color:#00FFEF"/>
	</linearGradient>
	<path fill="url(#SVGID_30_)" d="M484.235,411.703c0,1.333,0,2.332,0,2.998c-3.005,0-5.01,0-6.016,0c-1.114,0-1.863,0-2.243,0
		c-0.381,0-0.632,0-0.755,0c0-3.766,0-6.9,0-9.401c0-2.502,0-4.377,0-5.628c1.509,0,2.509,0,2.998,0c0,6.008,0,10.02,0,12.031
		C480.897,411.703,482.902,411.703,484.235,411.703z"/>
	<linearGradient id="SVGID_31_" gradientUnits="userSpaceOnUse" x1="491.7601" y1="418.6387" x2="491.7601" y2="394.742">
		<stop  offset="0" style="stop-color:#2E74FF"/>
		<stop  offset="0.7228" style="stop-color:#00FFEF"/>
	</linearGradient>
	<path fill="url(#SVGID_31_)" d="M496.267,411.703c0,1.333,0,2.332,0,2.998c-3.006,0-5.011,0-6.016,0c-1.116,0-1.863,0-2.244,0
		c-0.381,0-0.632,0-0.754,0c0-3.766,0-6.9,0-9.401c0-2.502,0-4.377,0-5.628c1.509,0,2.508,0,2.998,0c0,6.008,0,10.02,0,12.031
		C492.929,411.703,494.935,411.703,496.267,411.703z"/>
	<linearGradient id="SVGID_32_" gradientUnits="userSpaceOnUse" x1="500.7834" y1="418.6387" x2="500.7834" y2="394.742">
		<stop  offset="0" style="stop-color:#2E74FF"/>
		<stop  offset="0.7228" style="stop-color:#00FFEF"/>
	</linearGradient>
	<path fill="url(#SVGID_32_)" d="M499.285,399.672c0.503,0,1.502,0,2.998,0c0,1.875,0,5.635,0,11.277c0,0.626,0,1.875,0,3.752
		c-0.489,0-1.489,0-2.998,0c0-1.672,0-3.759,0-6.261C499.285,405.939,499.285,403.016,499.285,399.672z"/>
	<linearGradient id="SVGID_33_" gradientUnits="userSpaceOnUse" x1="509.8078" y1="418.6387" x2="509.8078" y2="394.742">
		<stop  offset="0" style="stop-color:#2E74FF"/>
		<stop  offset="0.7228" style="stop-color:#00FFEF"/>
	</linearGradient>
	<path fill="url(#SVGID_33_)" d="M514.315,414.701c-0.667,0-1.666,0-2.998,0c0-1.332,0-3.337,0-6.016c-0.667,0-1.672,0-3.018,0
		c0,1.333,0,3.337,0,6.016c-0.667,0-1.665,0-2.998,0c0-1.128,0-2.828,0-5.098c0-0.938,0-2.107,0-3.507c0-1.414,0-3.06,0-4.935
		c0-0.409,0.149-0.762,0.449-1.06c0.286-0.286,0.639-0.428,1.06-0.428c1.332,0,3.337,0,6.016,0c0.407,0,0.761,0.142,1.061,0.428
		c0.285,0.298,0.428,0.652,0.428,1.06C514.315,404.178,514.315,408.692,514.315,414.701z M511.317,405.687c0-0.122,0-0.298,0-0.53
		c0-0.557,0-1.386,0-2.487c-0.667,0-1.672,0-3.018,0c0,0.666,0,1.672,0,3.017C508.978,405.687,509.985,405.687,511.317,405.687z"/>
	<linearGradient id="SVGID_34_" gradientUnits="userSpaceOnUse" x1="521.8392" y1="418.6387" x2="521.8392" y2="394.742">
		<stop  offset="0" style="stop-color:#2E74FF"/>
		<stop  offset="0.7228" style="stop-color:#00FFEF"/>
	</linearGradient>
	<path fill="url(#SVGID_34_)" d="M526.346,401.16c0,3.017,0,7.531,0,13.541c-0.667,0-1.666,0-2.998,0c0-2.679,0-6.689,0-12.031
		c-0.667,0-1.672,0-3.019,0c0,2.678,0,6.689,0,12.031c-0.667,0-1.665,0-2.998,0c0-1.672,0-3.759,0-6.261c0-2.501,0-5.424,0-8.769
		c0.666,0,1.665,0,2.998,0c1.005,0,2.515,0,4.528,0c0.407,0,0.761,0.142,1.061,0.428
		C526.203,400.398,526.346,400.752,526.346,401.16z"/>
	<linearGradient id="SVGID_35_" gradientUnits="userSpaceOnUse" x1="533.8706" y1="418.6387" x2="533.8706" y2="394.742">
		<stop  offset="0" style="stop-color:#2E74FF"/>
		<stop  offset="0.7228" style="stop-color:#00FFEF"/>
	</linearGradient>
	<path fill="url(#SVGID_35_)" d="M535.38,404.178c0-0.339,0-0.842,0-1.508c-0.667,0-1.672,0-3.018,0c0,2.012,0,5.023,0,9.034
		c0.679,0,1.686,0,3.018,0c0-0.34,0-0.842,0-1.509c0.666,0,1.665,0,2.998,0c0,0.667,0,1.665,0,2.998
		c0,0.421-0.143,0.775-0.428,1.061c-0.3,0.3-0.653,0.449-1.061,0.449c-1.346,0-3.352,0-6.016,0c-0.421,0-0.775-0.149-1.06-0.449
		c-0.3-0.286-0.449-0.639-0.449-1.061c0-1.005,0-2.515,0-4.526c0-0.83,0-1.863,0-3.1c0-1.265,0-2.733,0-4.405
		c0-0.409,0.149-0.762,0.449-1.06c0.286-0.286,0.639-0.428,1.06-0.428c1.332,0,3.338,0,6.016,0c0.407,0,0.761,0.142,1.061,0.428
		c0.285,0.298,0.428,0.652,0.428,1.06c0,0.68,0,1.686,0,3.017C537.711,404.178,536.711,404.178,535.38,404.178z"/>
	<linearGradient id="SVGID_36_" gradientUnits="userSpaceOnUse" x1="545.902" y1="418.6387" x2="545.902" y2="394.742">
		<stop  offset="0" style="stop-color:#2E74FF"/>
		<stop  offset="0.7228" style="stop-color:#00FFEF"/>
	</linearGradient>
	<path fill="url(#SVGID_36_)" d="M544.393,402.67c0,1.333,0,2.338,0,3.017c2.012,0,3.521,0,4.528,0c0,1.332,0,2.332,0,2.998
		c-2.013,0-3.522,0-4.528,0c0,1.333,0,2.339,0,3.018c2.678,0,4.684,0,6.016,0c0,1.333,0,2.332,0,2.998c-2.665,0-4.67,0-6.016,0
		c-1.333,0-2.332,0-2.998,0c0-1.332,0-2.331,0-2.998c0-0.679,0-1.27,0-1.774c0-0.503,0-0.917,0-1.244c0-1.509,0-2.508,0-2.998
		c0-1.509,0-2.515,0-3.017c0-1.495,0-2.495,0-2.998c1.509,0,2.509,0,2.998,0c3.018,0,5.023,0,6.016,0c0,1.496,0,2.494,0,2.998
		C547.744,402.67,545.739,402.67,544.393,402.67z"/>
	<linearGradient id="SVGID_37_" gradientUnits="userSpaceOnUse" x1="554.9252" y1="418.6388" x2="554.9252" y2="394.7418">
		<stop  offset="0" style="stop-color:#2E74FF"/>
		<stop  offset="0.7228" style="stop-color:#00FFEF"/>
	</linearGradient>
	<path fill="url(#SVGID_37_)" d="M553.426,412.805c0-0.49,0-0.857,0-1.102c1.509,0,2.509,0,2.998,0c0,1.496,0,2.495,0,2.998
		c-1.495,0-2.495,0-2.998,0C553.426,413.94,553.426,413.308,553.426,412.805z"/>
	<linearGradient id="SVGID_38_" gradientUnits="userSpaceOnUse" x1="563.9497" y1="418.6387" x2="563.9497" y2="394.742">
		<stop  offset="0" style="stop-color:#2E74FF"/>
		<stop  offset="0.7228" style="stop-color:#00FFEF"/>
	</linearGradient>
	<path fill="url(#SVGID_38_)" d="M568.457,401.16c0,2.679,0,6.689,0,12.031c0,0.421-0.143,0.775-0.428,1.061
		c-0.299,0.3-0.653,0.449-1.06,0.449c-1.346,0-3.352,0-6.016,0c-0.421,0-0.775-0.149-1.061-0.449
		c-0.3-0.286-0.449-0.639-0.449-1.061c0-1.005,0-2.515,0-4.526c0-0.83,0-1.863,0-3.1c0-1.265,0-2.733,0-4.405
		c0-0.409,0.149-0.762,0.449-1.06c0.286-0.286,0.639-0.428,1.061-0.428c1.332,0,3.338,0,6.016,0c0.407,0,0.761,0.142,1.06,0.428
		C568.313,400.398,568.457,400.752,568.457,401.16z M562.44,411.703c0.679,0,1.686,0,3.018,0c0-0.135,0-0.333,0-0.591
		c0-1.877,0-4.691,0-8.443c-0.667,0-1.672,0-3.018,0c0,1.005,0,2.508,0,4.506C562.44,408.182,562.44,409.691,562.44,411.703z"/>
	<linearGradient id="SVGID_39_" gradientUnits="userSpaceOnUse" x1="575.9811" y1="418.6387" x2="575.9811" y2="394.742">
		<stop  offset="0" style="stop-color:#2E74FF"/>
		<stop  offset="0.7228" style="stop-color:#00FFEF"/>
	</linearGradient>
	<path fill="url(#SVGID_39_)" d="M579,407.175c0.407,0,0.761,0.15,1.06,0.449c0.285,0.286,0.428,0.639,0.428,1.061
		c0,1.333,0,3.337,0,6.016c-0.667,0-1.667,0-2.998,0c0-1.332,0-3.337,0-6.016c-0.667,0-1.672,0-3.018,0c0,1.333,0,3.337,0,6.016
		c-0.667,0-1.665,0-2.998,0c0-1.332,0-3.337,0-6.016c0-0.666,0-1.665,0-2.998c0-0.666,0-1.501,0-2.508c0-1.007,0-2.175,0-3.507
		c0.666,0,1.665,0,2.998,0c1.005,0,2.515,0,4.528,0c0.407,0,0.761,0.142,1.06,0.428c0.285,0.298,0.428,0.652,0.428,1.06
		c0,1.005,0,2.515,0,4.527c0,0.409-0.144,0.762-0.428,1.06C579.761,407.033,579.407,407.175,579,407.175z M577.49,405.687
		c0-0.122,0-0.298,0-0.53c0-0.557,0-1.386,0-2.487c-0.667,0-1.672,0-3.018,0c0,0.666,0,1.672,0,3.017
		C575.151,405.687,576.158,405.687,577.49,405.687z"/>
	<linearGradient id="SVGID_40_" gradientUnits="userSpaceOnUse" x1="588.0125" y1="418.6387" x2="588.0125" y2="394.742">
		<stop  offset="0" style="stop-color:#2E74FF"/>
		<stop  offset="0.7228" style="stop-color:#00FFEF"/>
	</linearGradient>
	<path fill="url(#SVGID_40_)" d="M589.522,404.178c0-0.339,0-0.842,0-1.508c-0.667,0-1.672,0-3.018,0c0,2.012,0,5.023,0,9.034
		c0.679,0,1.686,0,3.018,0c0-0.679,0-1.686,0-3.018c-0.341,0-0.844,0-1.509,0c0-0.666,0-1.665,0-2.998c1.005,0,2.508,0,4.507,0
		c0,0.667,0,1.667,0,2.998c0,1.007,0,2.509,0,4.507c0,0.421-0.143,0.775-0.428,1.061c-0.3,0.3-0.653,0.449-1.061,0.449
		c-1.346,0-3.352,0-6.016,0c-0.421,0-0.775-0.149-1.06-0.449c-0.3-0.286-0.449-0.639-0.449-1.061c0-1.005,0-2.515,0-4.526
		c0-0.83,0-1.863,0-3.1c0-1.265,0-2.733,0-4.405c0-0.409,0.149-0.762,0.449-1.06c0.286-0.286,0.639-0.428,1.06-0.428
		c1.333,0,3.338,0,6.016,0c0.407,0,0.761,0.142,1.061,0.428c0.285,0.298,0.428,0.652,0.428,1.06c0,0.68,0,1.686,0,3.017
		C591.853,404.178,590.853,404.178,589.522,404.178z"/>
</g>
</svg>
