<?xml version="1.0" encoding="utf-8"?>
<!-- Generator: Adobe Illustrator 21.0.2, SVG Export Plug-In . SVG Version: 6.00 Build 0)  -->
<svg version="1.1" id="Layer_1" xmlns="http://www.w3.org/2000/svg" xmlns:xlink="http://www.w3.org/1999/xlink" x="0px" y="0px"
	 viewBox="0 0 841.89 595.28" enable-background="new 0 0 841.89 595.28" xml:space="preserve">
<g id="Layer_63_5_">
	<g>
		<polygon fill="#0DFFF8" points="672.949,437.21 437.754,573 202.562,437.21 202.562,165.633 437.754,29.843 672.949,165.633 		"/>
	</g>
</g>
<g id="Layer_63_2_">
	<g>
		<path fill="#1C1C1A" d="M436.693,558.301L214.232,429.863V172.98L436.693,44.544l1.061,0.611L659.158,172.98v256.883l-1.061,0.609
			L436.693,558.301z M218.475,427.41l218.218,125.993L654.914,427.41v-251.98L436.693,49.442L218.475,175.429V427.41z"/>
	</g>
</g>
<g>
	<g>
		<polygon fill="#793DF4" points="437.894,391.738 390.073,435.925 388.403,434.123 436.229,389.932 		"/>
	</g>
</g>
<g>
	<g>
		
			<rect x="428.984" y="395.844" transform="matrix(0.7345 -0.6786 0.6786 0.7345 -146.9164 418.6576)" fill="#793DF4" width="65.109" height="2.456"/>
	</g>
</g>
<g>
	<g>
		
			<rect x="400.569" y="450.976" transform="matrix(0.7344 -0.6787 0.6787 0.7344 -193.4187 410.1086)" fill="#793DF4" width="53.52" height="2.459"/>
	</g>
</g>
<g>
	<g>
		
			<rect x="422.125" y="425.556" transform="matrix(0.7344 -0.6788 0.6788 0.7344 -176.7692 404.5065)" fill="#793DF4" width="12.588" height="5.081"/>
	</g>
</g>
<g>
	<g>
		
			<rect x="387.171" y="480.849" transform="matrix(0.7345 -0.6786 0.6786 0.7345 -223.5642 395.3284)" fill="#793DF4" width="12.589" height="5.082"/>
	</g>
</g>
<g>
	<g>
		
			<rect x="369.651" y="495.157" transform="matrix(0.7344 -0.6788 0.6788 0.7344 -237.9492 387.3908)" fill="#793DF4" width="12.594" height="5.075"/>
	</g>
</g>
<g>
	<g>
		
			<rect x="370.88" y="443.417" transform="matrix(0.7345 -0.6786 0.6786 0.7345 -202.489 374.3508)" fill="#793DF4" width="12.594" height="5.081"/>
	</g>
</g>
<g>
	<g>
		<polygon fill="#793DF4" points="469.111,302.85 483.188,300.036 486.404,284.89 458.383,290.497 451.922,320.93 465.866,318.141 
					"/>
	</g>
</g>
<g>
	<g>
		<polygon fill="#793DF4" points="545.849,388.995 531.772,391.805 528.557,406.951 556.578,401.348 563.034,370.91 
			549.094,373.703 		"/>
	</g>
</g>
<g>
	<path fill="#1C1C1A" d="M496.262,390.876l9.071-42.716l-39.326,7.857l9.937-46.819l82.813-16.56l-19.013,89.543L496.262,390.876z
		 M510.82,342.74l-9.071,42.708l34.424-6.879l17.098-80.501l-73.755,14.744l-8.023,37.785L510.82,342.74z"/>
</g>
<g>
	<polygon fill="#FFFFFF" points="518.341,335.944 513.298,359.896 535.125,355.503 545.178,307.848 501.322,316.674 
		496.312,340.382 	"/>
</g>
<g>
	
		<rect x="572.484" y="272.544" transform="matrix(0.7345 -0.6786 0.6786 0.7345 -33.0188 465.7623)" fill="#FFFFFF" width="12.589" height="5.076"/>
</g>
<g>
	
		<rect x="603.614" y="243.778" transform="matrix(0.7344 -0.6788 0.6788 0.7344 -5.1772 479.4068)" fill="#FFFFFF" width="12.589" height="5.079"/>
</g>
<g>
	
		<rect x="634.744" y="215.016" transform="matrix(0.7344 -0.6788 0.6788 0.7344 22.6152 492.8962)" fill="#FFFFFF" width="12.591" height="5.078"/>
</g>
<g>
	<g>
		<g>
			
				<rect x="298.388" y="403.139" transform="matrix(0.7659 -0.643 0.643 0.7659 -186.3297 296.9767)" fill="#793DF4" width="32.558" height="2.465"/>
		</g>
	</g>
	<g>
		<g>
			<polygon fill="#793DF4" points="353.548,338.053 315.879,369.68 314.292,367.79 351.969,336.155 			"/>
		</g>
	</g>
	<g>
		<g>
			
				<rect x="299.169" y="374.677" transform="matrix(0.7656 -0.6433 0.6433 0.7656 -171.0632 284.8996)" fill="#793DF4" width="12.592" height="5.079"/>
		</g>
	</g>
	<g>
		<g>
			
				<rect x="280.71" y="423.901" transform="matrix(0.7657 -0.6433 0.6433 0.7657 -207.0496 284.5534)" fill="#793DF4" width="12.598" height="5.079"/>
		</g>
	</g>
	<g>
		<path fill="#1C1C1A" d="M366.328,362.299l12.233-41.912l-39.803,4.902l13.41-45.953l83.829-10.31l-25.664,87.864L366.328,362.299z
			 M384.445,315.39l-12.241,41.912l34.838-4.281l23.07-78.997l-74.654,9.183l-10.824,37.084L384.445,315.39z"/>
	</g>
	<g>
		<g>
			<polygon fill="#793DF4" points="443.066,262.944 439.498,275.148 450.981,273.738 458.076,249.444 435.002,252.281 
				431.472,264.373 			"/>
		</g>
	</g>
	<g>
		<polygon fill="#FFFFFF" points="390.202,310.579 383.385,334.079 405.476,331.336 419.064,284.558 374.678,290.078 
			367.911,313.347 		"/>
	</g>
</g>
<g>
	<g>
		<g>
			<circle fill="#793DF4" cx="526.867" cy="208.233" r="38.703"/>
		</g>
	</g>
	<g>
		<g>
			<path fill-rule="evenodd" clip-rule="evenodd" fill="#0DFFF8" d="M512.461,208.738c4.708-8.234,9.332-16.325,14.115-24.694
				c4.765,8.329,9.407,16.439,14.118,24.684c-2.416,1.361-4.765,2.683-7.119,4.007c-2.043,1.15-4.078,2.325-6.141,3.431
				c-0.385,0.208-1.036,0.348-1.367,0.168C521.553,213.86,517.073,211.326,512.461,208.738z"/>
		</g>
		<g>
			<path fill-rule="evenodd" clip-rule="evenodd" fill="#0DFFF8" d="M513.033,211.933c4.194,2.36,8.404,4.697,12.573,7.095
				c0.75,0.427,1.284,0.395,2.01-0.023c3.779-2.188,7.596-4.322,11.4-6.469c0.348-0.199,0.717-0.361,1.438-0.719
				c-4.724,6.788-9.224,13.253-13.866,19.92c-4.604-6.612-9.133-13.112-13.663-19.609
				C512.959,212.062,512.996,211.997,513.033,211.933z"/>
		</g>
	</g>
</g>
<g>
	<path fill="#1C1C1A" d="M241.698,187.372c2.109,3.512,5.258,8.769,9.448,15.768c-0.775,0.462-1.94,1.163-3.489,2.091
		c-1.869-3.121-4.67-7.788-8.396-14.011c-0.398,0.236-0.987,0.586-1.761,1.053c-0.224-0.381-0.518-0.864-0.866-1.453
		c-0.352-0.584-0.758-1.266-1.226-2.045c0.779-0.466,1.939-1.163,3.489-2.091c0.497-0.294,1.015-0.379,1.562-0.255
		C240.998,186.578,241.416,186.891,241.698,187.372z"/>
	<path fill="#1C1C1A" d="M258.175,187.018c0.477-0.288,0.995-0.356,1.55-0.216c0.535,0.131,0.945,0.443,1.239,0.934
		c0.701,1.173,1.753,2.922,3.145,5.25c0.294,0.491,0.377,1.003,0.245,1.538c-0.141,0.555-0.448,0.972-0.924,1.257
		c-1.57,0.939-3.904,2.337-7.008,4.196c-0.493,0.294-1.007,0.371-1.55,0.226c-0.547-0.128-0.97-0.437-1.264-0.928
		c-0.195-0.334-0.447-0.75-0.75-1.258c-0.319-0.522-0.676-1.125-1.082-1.803c0.775-0.464,1.939-1.162,3.489-2.091
		c0.182,0.298,0.447,0.74,0.796,1.328c0.796-0.477,1.968-1.177,3.522-2.107c-0.477-0.791-1.177-1.964-2.113-3.516
		c-0.775,0.464-1.948,1.167-3.514,2.105c-0.464-0.775-1.161-1.939-2.093-3.493c0.796-0.475,1.969-1.175,3.518-2.105
		c-0.472-0.792-1.177-1.964-2.109-3.514c-0.775,0.466-1.948,1.169-3.51,2.107c0.178,0.3,0.435,0.736,0.779,1.305
		c-0.779,0.464-1.943,1.163-3.489,2.091c-0.41-0.682-1.024-1.701-1.836-3.06c-0.286-0.481-0.365-0.995-0.22-1.55
		c0.133-0.537,0.443-0.951,0.937-1.245c1.55-0.928,3.887-2.329,7.003-4.195c0.477-0.286,0.99-0.365,1.537-0.238
		c0.543,0.147,0.957,0.46,1.239,0.939c0.704,1.169,1.757,2.93,3.158,5.269c0.286,0.477,0.369,0.988,0.244,1.54
		C258.966,186.321,258.651,186.729,258.175,187.018z"/>
	<path fill="#1C1C1A" d="M272.189,178.62c0.477-0.286,0.99-0.356,1.554-0.213c0.527,0.131,0.941,0.443,1.235,0.934
		c0.704,1.173,1.753,2.922,3.149,5.25c0.29,0.489,0.373,1.001,0.241,1.537c-0.141,0.555-0.448,0.972-0.928,1.258
		c-1.562,0.939-3.899,2.337-7.003,4.198c-0.493,0.292-1.007,0.369-1.545,0.222c-0.551-0.126-0.97-0.435-1.268-0.926
		c-0.199-0.336-0.448-0.752-0.75-1.258c-0.315-0.522-0.68-1.125-1.082-1.803c0.779-0.464,1.94-1.163,3.489-2.093
		c0.182,0.3,0.448,0.742,0.8,1.328c0.791-0.474,1.964-1.175,3.514-2.107c-0.477-0.789-1.177-1.962-2.109-3.516
		c-0.771,0.466-1.948,1.169-3.514,2.107c-0.464-0.775-1.16-1.939-2.089-3.494c0.791-0.474,1.964-1.175,3.514-2.107
		c-0.477-0.79-1.177-1.962-2.109-3.512c-0.775,0.466-1.944,1.169-3.514,2.107c0.182,0.3,0.443,0.735,0.788,1.305
		c-0.779,0.464-1.943,1.161-3.494,2.091c-0.41-0.682-1.019-1.703-1.836-3.062c-0.29-0.479-0.36-0.995-0.219-1.55
		c0.132-0.535,0.447-0.949,0.937-1.241c1.55-0.93,3.887-2.331,7.003-4.198c0.477-0.286,0.99-0.365,1.537-0.238
		c0.543,0.145,0.953,0.46,1.243,0.939c0.701,1.169,1.753,2.928,3.158,5.269c0.282,0.474,0.365,0.986,0.24,1.537
		C272.977,177.926,272.666,178.334,272.189,178.62z"/>
	<path fill="#1C1C1A" d="M282.707,160.442c1.666,9.571,2.913,16.752,3.742,21.549c-1.662,0.997-2.917,1.747-3.755,2.248
		c-1.5-8.609-2.503-14.359-3.004-17.241c-2.694,1.612-4.488,2.689-5.391,3.231c-0.522-0.872-0.957-1.602-1.31-2.184
		c-0.352-0.589-0.609-1.026-0.783-1.314c3.39-2.03,5.644-3.381,6.771-4.055c0.332-0.199,0.551-0.334,0.663-0.4
		C281,161.462,282.027,160.848,282.707,160.442z"/>
	<path fill="#1C1C1A" d="M307.21,169.555c-0.779,0.464-1.94,1.16-3.494,2.09c-0.932-1.55-2.329-3.887-4.198-7.005
		c-0.775,0.464-1.948,1.169-3.518,2.107c0.937,1.552,2.329,3.885,4.198,7.005c-0.775,0.464-1.939,1.163-3.489,2.091
		c-0.783-1.312-1.973-3.29-3.56-5.938c-0.655-1.09-1.467-2.449-2.449-4.086c-0.982-1.647-2.13-3.56-3.439-5.743
		c-0.286-0.479-0.356-0.995-0.216-1.552c0.133-0.535,0.443-0.949,0.932-1.243c1.55-0.928,3.887-2.329,7.008-4.198
		c0.477-0.284,0.99-0.362,1.533-0.236c0.543,0.147,0.957,0.46,1.243,0.939C299.863,157.299,303.021,162.556,307.21,169.555z
		 M297.426,161.147c-0.083-0.145-0.207-0.346-0.369-0.615c-0.39-0.651-0.966-1.616-1.736-2.897
		c-0.775,0.464-1.948,1.167-3.518,2.105c0.468,0.775,1.169,1.948,2.109,3.514C294.704,162.777,295.877,162.077,297.426,161.147z"/>
	<path fill="#1C1C1A" d="M319.132,157.668c0.928,1.552,1.629,2.716,2.093,3.491c-3.502,2.095-5.839,3.493-7.008,4.198
		c-1.301,0.779-2.171,1.299-2.615,1.565s-0.733,0.441-0.874,0.526c-2.632-4.384-4.82-8.037-6.564-10.951
		c-1.744-2.913-3.054-5.099-3.929-6.558c1.757-1.054,2.926-1.751,3.494-2.092c4.193,7.007,6.991,11.675,8.396,14.021
		C315.245,159.997,317.583,158.6,319.132,157.668z"/>
	<path fill="#1C1C1A" d="M333.151,149.272c0.924,1.55,1.621,2.714,2.089,3.489c-3.502,2.097-5.839,3.495-7.007,4.198
		c-1.297,0.779-2.172,1.301-2.615,1.567c-0.443,0.265-0.734,0.439-0.875,0.526c-2.636-4.386-4.819-8.04-6.564-10.953
		c-1.749-2.911-3.058-5.097-3.929-6.558c1.761-1.052,2.922-1.749,3.494-2.091c4.194,7.005,6.991,11.676,8.396,14.019
		C329.26,151.601,331.597,150.202,333.151,149.272z"/>
	<path fill="#1C1C1A" d="M328.266,133.146c0.584-0.35,1.749-1.046,3.493-2.091c1.31,2.188,3.933,6.566,7.869,13.139
		c0.439,0.729,1.31,2.186,2.619,4.37c-0.568,0.342-1.732,1.038-3.493,2.091c-1.165-1.946-2.623-4.376-4.368-7.289
		C332.638,140.452,330.603,137.047,328.266,133.146z"/>
	<path fill="#1C1C1A" d="M356.262,140.168c-0.775,0.466-1.939,1.16-3.489,2.091c-0.937-1.55-2.329-3.887-4.198-7.005
		c-0.779,0.466-1.952,1.169-3.518,2.107c0.932,1.554,2.329,3.885,4.198,7.005c-0.775,0.464-1.943,1.163-3.494,2.091
		c-0.783-1.312-1.968-3.29-3.556-5.938c-0.655-1.09-1.471-2.449-2.449-4.086c-0.986-1.647-2.134-3.56-3.44-5.743
		c-0.29-0.479-0.36-0.995-0.219-1.552c0.132-0.533,0.443-0.947,0.937-1.241c1.55-0.93,3.887-2.329,7.003-4.198
		c0.477-0.286,0.99-0.365,1.537-0.238c0.538,0.147,0.957,0.46,1.239,0.941C348.923,127.912,352.073,133.169,356.262,140.168z
		 M346.479,131.76c-0.083-0.143-0.203-0.346-0.369-0.615c-0.386-0.651-0.966-1.616-1.732-2.897
		c-0.779,0.464-1.952,1.169-3.518,2.105c0.464,0.777,1.164,1.948,2.109,3.514C343.76,133.393,344.928,132.69,346.479,131.76z"/>
	<path fill="#1C1C1A" d="M360.829,116.003c2.109,3.514,5.259,8.771,9.448,15.77c-0.775,0.464-1.94,1.162-3.494,2.09
		c-1.869-3.12-4.662-7.788-8.396-14.013c-0.775,0.466-1.948,1.169-3.51,2.107c1.869,3.12,4.662,7.788,8.396,14.013
		c-0.779,0.462-1.94,1.162-3.494,2.091c-1.164-1.948-2.627-4.376-4.372-7.289c-1.745-2.913-3.78-6.317-6.116-10.219
		c0.775-0.464,1.939-1.162,3.489-2.092c1.173-0.703,2.93-1.755,5.271-3.158c0.477-0.286,0.99-0.367,1.537-0.238
		C360.133,115.211,360.547,115.524,360.829,116.003z"/>
	<path fill="#1C1C1A" d="M373.46,113.211c-0.236-0.398-0.589-0.982-1.053-1.757c-0.779,0.466-1.948,1.169-3.518,2.107
		c1.405,2.341,3.506,5.849,6.307,10.522c0.792-0.475,1.964-1.175,3.514-2.105c-0.236-0.398-0.584-0.982-1.053-1.757
		c0.775-0.464,1.94-1.16,3.489-2.091c0.468,0.775,1.16,1.935,2.097,3.489c0.29,0.491,0.373,1.003,0.241,1.537
		c-0.141,0.553-0.448,0.972-0.924,1.258c-1.566,0.939-3.904,2.337-7.008,4.195c-0.493,0.294-1.007,0.371-1.545,0.222
		c-0.551-0.124-0.97-0.433-1.268-0.924c-0.7-1.172-1.753-2.928-3.158-5.273c-0.58-0.965-1.301-2.169-2.163-3.613
		c-0.883-1.469-1.906-3.178-3.071-5.124c-0.29-0.481-0.361-0.997-0.219-1.552c0.132-0.534,0.447-0.949,0.937-1.243
		c1.55-0.928,3.887-2.329,7.003-4.196c0.477-0.286,0.99-0.367,1.537-0.238c0.543,0.147,0.954,0.46,1.243,0.939
		c0.472,0.792,1.173,1.96,2.101,3.514C376.174,111.585,375.01,112.283,373.46,113.211z"/>
	<path fill="#1C1C1A" d="M382.908,105.166c0.928,1.55,1.633,2.723,2.105,3.512c2.342-1.403,4.103-2.457,5.275-3.16
		c0.924,1.554,1.624,2.718,2.089,3.493c-2.342,1.403-4.103,2.457-5.271,3.16c0.932,1.554,1.633,2.727,2.105,3.516
		c3.12-1.869,5.457-3.27,7.008-4.198c0.932,1.55,1.628,2.714,2.092,3.489c-3.104,1.861-5.441,3.257-7.008,4.198
		c-1.554,0.928-2.718,1.627-3.493,2.093c-0.932-1.55-1.629-2.715-2.093-3.489c-0.472-0.791-0.886-1.481-1.235-2.07
		c-0.352-0.582-0.642-1.069-0.87-1.448c-1.057-1.759-1.749-2.919-2.092-3.493c-1.049-1.755-1.753-2.928-2.105-3.512
		c-1.044-1.744-1.741-2.909-2.093-3.497c1.757-1.052,2.922-1.751,3.489-2.091c3.518-2.107,5.855-3.506,7.011-4.198
		c1.044,1.744,1.741,2.909,2.093,3.497C386.812,102.827,384.475,104.225,382.908,105.166z"/>
	<path fill="#1C1C1A" d="M400.503,110.665c-0.344-0.569-0.601-0.998-0.766-1.282c1.753-1.052,2.917-1.751,3.493-2.091
		c1.036,1.741,1.736,2.905,2.084,3.489c-1.741,1.044-2.905,1.74-3.489,2.091C401.299,111.989,400.851,111.251,400.503,110.665z"/>
	<path fill="#1C1C1A" d="M409.886,86.618c1.869,3.114,4.666,7.788,8.396,14.011c0.29,0.491,0.373,1.003,0.24,1.54
		c-0.141,0.551-0.448,0.97-0.924,1.258c-1.562,0.939-3.899,2.335-7.003,4.196c-0.497,0.294-1.011,0.369-1.545,0.222
		c-0.555-0.124-0.974-0.435-1.268-0.924c-0.701-1.172-1.757-2.93-3.162-5.273c-0.576-0.966-1.297-2.17-2.159-3.616
		c-0.883-1.467-1.907-3.176-3.075-5.124c-0.286-0.479-0.356-0.995-0.219-1.552c0.132-0.535,0.443-0.949,0.937-1.243
		c1.554-0.928,3.891-2.329,7.008-4.196c0.472-0.286,0.986-0.365,1.537-0.236C409.185,85.824,409.6,86.137,409.886,86.618z
		 M410.234,103.094c0.791-0.477,1.964-1.177,3.518-2.107c-0.1-0.16-0.236-0.39-0.415-0.69c-1.313-2.188-3.274-5.464-5.892-9.832
		c-0.779,0.464-1.952,1.167-3.514,2.105c0.701,1.173,1.749,2.922,3.141,5.246C407.776,98.994,408.829,100.748,410.234,103.094z"/>
	<path fill="#1C1C1A" d="M426.362,86.261c0.472-0.286,0.99-0.356,1.55-0.216c0.535,0.132,0.941,0.446,1.239,0.937
		c0.932,1.554,2.325,3.887,4.198,7.005c-0.775,0.464-1.94,1.162-3.489,2.092c-0.932-1.55-2.329-3.887-4.202-7.007
		c-0.775,0.466-1.944,1.167-3.514,2.107c0.933,1.554,2.329,3.887,4.198,7.008c-0.775,0.462-1.939,1.161-3.494,2.091
		c-0.928-1.55-2.329-3.887-4.198-7.005c-0.464-0.775-1.161-1.939-2.093-3.493c-0.464-0.775-1.044-1.749-1.749-2.922
		c-0.704-1.173-1.517-2.536-2.449-4.088c0.775-0.466,1.939-1.162,3.493-2.093c1.169-0.702,2.93-1.755,5.275-3.16
		c0.472-0.284,0.982-0.365,1.533-0.238c0.543,0.149,0.953,0.462,1.239,0.94c0.7,1.169,1.757,2.93,3.162,5.269
		c0.278,0.477,0.361,0.989,0.236,1.538C427.149,85.565,426.834,85.975,426.362,86.261z M423.569,85.581
		c-0.091-0.145-0.211-0.348-0.373-0.615c-0.385-0.651-0.966-1.616-1.732-2.899c-0.779,0.466-1.948,1.167-3.518,2.107
		c0.464,0.775,1.164,1.948,2.105,3.512C420.842,87.212,422.015,86.512,423.569,85.581z"/>
	<path fill="#1C1C1A" d="M436.527,75.429c-0.236-0.398-0.584-0.982-1.049-1.757c-0.779,0.466-1.952,1.167-3.518,2.107
		c1.401,2.341,3.506,5.849,6.307,10.521c0.788-0.474,1.96-1.175,3.514-2.107c-0.477-0.79-1.177-1.962-2.105-3.517
		c-0.398,0.238-0.987,0.589-1.761,1.055c-0.464-0.775-1.16-1.939-2.092-3.494c1.172-0.702,2.921-1.751,5.25-3.145
		c0.468,0.775,1.164,1.943,2.097,3.494c0.7,1.172,1.749,2.922,3.141,5.25c0.294,0.489,0.373,1.003,0.241,1.535
		c-0.137,0.555-0.448,0.974-0.92,1.258c-1.567,0.941-3.904,2.339-7.008,4.198c-0.493,0.294-1.007,0.371-1.545,0.222
		c-0.555-0.126-0.974-0.433-1.268-0.924c-0.7-1.173-1.753-2.928-3.158-5.273c-0.58-0.965-1.301-2.169-2.163-3.613
		c-0.878-1.469-1.906-3.178-3.075-5.126c-0.282-0.479-0.356-0.997-0.216-1.55c0.133-0.534,0.443-0.949,0.933-1.243
		c1.554-0.928,3.891-2.329,7.007-4.198c0.477-0.284,0.99-0.365,1.537-0.238c0.543,0.149,0.957,0.462,1.243,0.94
		c0.472,0.792,1.173,1.96,2.101,3.512C439.241,73.8,438.081,74.498,436.527,75.429z"/>
</g>
<g>
	<path fill="#793DF4" d="M263.317,217.404c1.77,2.936,4.422,7.337,7.952,13.198c0.282,0.462,0.356,0.945,0.232,1.446
		c-0.128,0.526-0.418,0.924-0.866,1.194c-1.102,0.665-2.76,1.662-4.964,2.994c-0.361,0.216-0.903,0.543-1.637,0.984
		c-0.369,0.224-0.924,0.557-1.654,0.996c-1.106-1.834-2.486-4.123-4.14-6.866c-1.653-2.745-3.589-5.951-5.797-9.62
		c0.642-0.387,1.604-0.967,2.884-1.741c0.091-0.054,0.224-0.135,0.402-0.242c1.107-0.665,2.76-1.662,4.969-2.992
		c0.448-0.271,0.928-0.348,1.446-0.232C262.654,216.661,263.048,216.956,263.317,217.404z M263.686,232.946
		c0.746-0.448,1.848-1.115,3.311-1.996c-0.087-0.149-0.22-0.365-0.39-0.648c-1.239-2.058-3.104-5.145-5.582-9.262
		c-0.734,0.441-1.836,1.106-3.311,1.995c0.667,1.105,1.657,2.751,2.98,4.946C261.357,229.083,262.356,230.739,263.686,232.946z"/>
	<path fill="#793DF4" d="M276.516,209.447c1.77,2.938,4.422,7.337,7.956,13.198c0.278,0.462,0.352,0.945,0.228,1.446
		c-0.129,0.526-0.419,0.924-0.866,1.194c-1.475,0.891-3.676,2.217-6.597,3.978c-0.464,0.28-0.949,0.348-1.463,0.209
		c-0.514-0.116-0.912-0.404-1.194-0.866c-0.663-1.105-1.662-2.76-2.992-4.967c-0.547-0.91-1.231-2.043-2.051-3.4
		c-0.833-1.388-1.806-2.998-2.909-4.832c-0.269-0.449-0.34-0.937-0.211-1.461c0.124-0.504,0.418-0.893,0.883-1.171
		c1.458-0.881,3.659-2.207,6.597-3.978c0.447-0.269,0.928-0.348,1.446-0.232C275.853,208.707,276.246,208.999,276.516,209.447z
		 M276.889,224.991c0.742-0.449,1.848-1.115,3.307-1.995c-0.087-0.149-0.22-0.367-0.39-0.648c-1.239-2.06-3.1-5.147-5.582-9.262
		c-0.733,0.439-1.836,1.104-3.311,1.995c0.663,1.102,1.657,2.751,2.979,4.944C274.56,221.129,275.554,222.784,276.889,224.991z"/>
	<path fill="#793DF4" d="M289.714,201.491c1.993,3.311,4.981,8.263,8.955,14.856c-0.734,0.439-1.828,1.1-3.29,1.981
		c-1.774-2.938-4.422-7.337-7.956-13.198c-0.729,0.441-1.836,1.106-3.311,1.995c1.77,2.938,4.422,7.339,7.956,13.198
		c-0.729,0.441-1.828,1.102-3.29,1.983c-1.106-1.834-2.482-4.123-4.14-6.868c-1.653-2.743-3.584-5.951-5.797-9.618
		c0.734-0.441,1.828-1.102,3.29-1.983c1.102-0.665,2.76-1.664,4.964-2.994c0.448-0.269,0.933-0.346,1.447-0.232
		C289.055,200.751,289.445,201.043,289.714,201.491z"/>
	<path fill="#793DF4" d="M292.039,197.863c0.555-0.332,1.649-0.993,3.29-1.983c0.655,1.09,1.981,3.29,3.978,6.599
		c-0.539,0.325-1.633,0.986-3.29,1.983c-0.332-0.551-0.829-1.38-1.496-2.482C293.866,200.89,293.038,199.518,292.039,197.863z"/>
	<path fill="#793DF4" d="M310.509,191.214c-1.637,0.988-2.735,1.649-3.286,1.983c3.982,6.605,6.635,11.006,7.956,13.198
		c-1.657,0.997-2.76,1.664-3.311,1.995c-3.974-6.591-6.626-10.992-7.956-13.198c-1.641,0.988-2.739,1.649-3.29,1.983
		c-0.493-0.821-0.907-1.509-1.239-2.06c-0.331-0.551-0.58-0.962-0.742-1.231c4.952-2.984,8.247-4.971,9.888-5.959
		C309.411,189.386,310.07,190.482,310.509,191.214z"/>
	<path fill="#793DF4" d="M334.925,172.015c1.989,3.294,4.969,8.238,8.943,14.831c0.278,0.462,0.352,0.945,0.228,1.446
		c-0.128,0.526-0.418,0.924-0.866,1.194c-1.475,0.891-3.676,2.217-6.597,3.978c-0.464,0.278-0.949,0.348-1.463,0.209
		c-0.514-0.116-0.911-0.404-1.193-0.868c-0.216-0.356-0.489-0.812-0.821-1.363c-0.331-0.551-0.721-1.194-1.16-1.925
		c0.733-0.439,1.827-1.1,3.29-1.981c0.216,0.356,0.547,0.909,0.998,1.655c0.742-0.449,1.848-1.115,3.311-1.995
		c-1.774-2.938-4.426-7.339-7.956-13.2C332.368,173.556,333.467,172.895,334.925,172.015z"/>
	<path fill="#793DF4" d="M348.124,164.058c1.989,3.296,4.969,8.24,8.943,14.831c0.278,0.462,0.356,0.945,0.232,1.448
		c-0.133,0.524-0.423,0.922-0.87,1.193c-1.475,0.889-3.676,2.215-6.597,3.977c-0.464,0.28-0.949,0.348-1.458,0.209
		c-0.518-0.116-0.916-0.404-1.194-0.866c-0.99-1.641-2.23-3.699-3.721-6.175c-1.492-2.476-3.233-5.362-5.222-8.657
		c0.733-0.441,1.828-1.102,3.29-1.983c1.761,2.923,4.413,7.322,7.956,13.198c0.746-0.449,1.848-1.115,3.311-1.995
		c-1.774-2.938-4.422-7.339-7.956-13.199C345.567,165.599,346.665,164.939,348.124,164.058z"/>
	<path fill="#793DF4" d="M361.016,163.028c-0.224-0.373-0.555-0.924-0.999-1.655c-0.729,0.441-1.831,1.106-3.311,1.995
		c0.443,0.731,1.107,1.836,1.997,3.311c1.102-0.665,2.76-1.662,4.965-2.992c0.447-0.272,0.932-0.348,1.446-0.232
		c0.514,0.139,0.903,0.433,1.172,0.881c0.891,1.475,2.217,3.676,3.978,6.599c0.278,0.462,0.356,0.945,0.232,1.446
		c-0.132,0.526-0.418,0.924-0.866,1.193c-1.479,0.889-3.68,2.215-6.601,3.978c-0.46,0.278-0.949,0.348-1.459,0.208
		c-0.518-0.114-0.916-0.402-1.193-0.866c-0.443-0.729-1.102-1.826-1.985-3.288c0.733-0.441,1.831-1.1,3.29-1.983
		c0.216,0.359,0.547,0.911,0.998,1.655c0.746-0.449,1.848-1.115,3.311-1.995c-0.452-0.746-1.115-1.848-1.997-3.311
		c-1.102,0.665-2.751,1.66-4.944,2.98c-0.46,0.28-0.945,0.356-1.447,0.232c-0.526-0.131-0.928-0.427-1.206-0.889
		c-0.44-0.732-0.995-1.647-1.658-2.751c-0.667-1.105-1.438-2.385-2.32-3.848c-0.269-0.448-0.34-0.934-0.207-1.461
		c0.124-0.502,0.415-0.891,0.879-1.171c1.463-0.881,3.659-2.207,6.601-3.978c0.448-0.269,0.928-0.346,1.446-0.23
		c0.51,0.139,0.9,0.433,1.169,0.881c0.452,0.744,1.115,1.848,1.997,3.311C363.572,161.487,362.478,162.148,361.016,163.028z"/>
	<path fill="#793DF4" d="M376.506,151.436c-1.641,0.988-2.735,1.649-3.286,1.983c3.978,6.606,6.63,11.007,7.953,13.199
		c-1.654,0.998-2.756,1.662-3.311,1.995c-3.97-6.593-6.622-10.992-7.956-13.198c-1.637,0.988-2.735,1.649-3.286,1.981
		c-0.493-0.821-0.908-1.506-1.239-2.058c-0.336-0.551-0.58-0.962-0.742-1.231c4.952-2.984,8.246-4.97,9.887-5.959
		C375.404,149.608,376.066,150.704,376.506,151.436z"/>
	<path fill="#793DF4" d="M391.035,138.195c0.551-0.331,1.649-0.994,3.286-1.983c1.243,2.059,3.73,6.183,7.459,12.372
		c0.415,0.686,1.239,2.057,2.478,4.117c-0.535,0.323-1.633,0.984-3.286,1.981c-0.825-1.372-2.068-3.429-3.721-6.175
		C395.597,145.764,393.525,142.327,391.035,138.195z"/>
	<path fill="#793DF4" d="M407.213,135.183c-0.224-0.371-0.555-0.924-0.999-1.656c-0.729,0.441-1.831,1.107-3.311,1.997
		c1.33,2.207,3.323,5.51,5.976,9.911c0.746-0.45,1.848-1.115,3.311-1.995c-0.224-0.373-0.559-0.926-0.999-1.656
		c0.729-0.441,1.827-1.102,3.29-1.983c0.439,0.731,1.098,1.827,1.981,3.288c0.278,0.462,0.356,0.945,0.232,1.446
		c-0.132,0.526-0.418,0.924-0.866,1.193c-1.479,0.891-3.679,2.217-6.601,3.978c-0.46,0.28-0.949,0.348-1.459,0.209
		c-0.518-0.116-0.916-0.404-1.193-0.866c-0.667-1.104-1.666-2.76-2.996-4.967c-0.547-0.909-1.231-2.043-2.047-3.402
		c-0.837-1.386-1.807-2.996-2.913-4.832c-0.269-0.448-0.34-0.932-0.211-1.458c0.128-0.504,0.418-0.893,0.883-1.171
		c1.463-0.883,3.659-2.209,6.601-3.978c0.448-0.269,0.928-0.348,1.442-0.232c0.514,0.139,0.903,0.433,1.173,0.881
		c0.452,0.746,1.115,1.85,1.997,3.311C409.769,133.641,408.675,134.302,407.213,135.183z"/>
	<path fill="#793DF4" d="M421.704,121.934c1.774,2.938,4.426,7.339,7.956,13.2c0.278,0.462,0.356,0.943,0.232,1.447
		c-0.133,0.526-0.418,0.924-0.866,1.193c-1.479,0.889-3.676,2.215-6.602,3.978c-0.46,0.278-0.949,0.348-1.458,0.207
		c-0.518-0.114-0.916-0.404-1.194-0.866c-0.663-1.104-1.662-2.76-2.992-4.967c-0.551-0.909-1.235-2.043-2.051-3.4
		c-0.837-1.386-1.807-2.998-2.914-4.832c-0.269-0.448-0.339-0.934-0.207-1.461c0.124-0.502,0.415-0.893,0.878-1.171
		c1.463-0.881,3.663-2.207,6.602-3.978c0.448-0.269,0.928-0.346,1.446-0.232C421.045,121.195,421.435,121.487,421.704,121.934z
		 M422.077,137.479c0.746-0.45,1.848-1.115,3.311-1.995c-0.091-0.149-0.22-0.365-0.39-0.649c-1.243-2.057-3.104-5.145-5.582-9.262
		c-0.733,0.441-1.836,1.107-3.315,1.995c0.667,1.105,1.662,2.752,2.984,4.944C419.748,133.616,420.747,135.272,422.077,137.479z"/>
	<path fill="#793DF4" d="M435.276,129.524c0.443,0.729,0.771,1.274,0.986,1.632c0.439,0.732,0.771,1.283,0.998,1.656
		c-0.584,2.341-1.019,4.098-1.31,5.269c-0.547-0.91-0.961-1.596-1.239-2.058c0.348-1.042,0.568-1.736,0.667-2.08
		c-0.701,0.423-1.173,0.707-1.409,0.85c-0.505-0.835-0.92-1.527-1.256-2.081c-0.323-0.536-0.564-0.938-0.725-1.208
		C433.448,130.625,434.546,129.963,435.276,129.524z"/>
	<path fill="#793DF4" d="M354.7,208.438c-0.224-0.373-0.555-0.924-0.999-1.656c-0.729,0.441-1.831,1.107-3.311,1.995
		c0.443,0.732,1.107,1.836,1.997,3.311c1.102-0.665,2.76-1.662,4.965-2.992c0.447-0.271,0.932-0.348,1.446-0.232
		c0.514,0.139,0.903,0.433,1.173,0.881c0.891,1.475,2.217,3.676,3.978,6.599c0.278,0.462,0.356,0.945,0.232,1.447
		c-0.132,0.526-0.418,0.924-0.866,1.193c-1.479,0.889-3.679,2.215-6.601,3.978c-0.46,0.278-0.949,0.348-1.459,0.207
		c-0.518-0.114-0.916-0.402-1.193-0.866c-0.443-0.729-1.102-1.825-1.985-3.288c0.734-0.441,1.828-1.1,3.29-1.983
		c0.216,0.358,0.547,0.911,0.998,1.655c0.746-0.448,1.848-1.115,3.311-1.995c-0.452-0.746-1.115-1.848-1.997-3.311
		c-1.102,0.665-2.751,1.66-4.944,2.981c-0.46,0.278-0.945,0.354-1.446,0.23c-0.527-0.13-0.928-0.427-1.206-0.889
		c-0.439-0.732-0.995-1.647-1.657-2.752c-0.667-1.104-1.438-2.385-2.321-3.848c-0.269-0.448-0.34-0.934-0.211-1.459
		c0.128-0.503,0.418-0.893,0.883-1.172c1.463-0.881,3.659-2.207,6.601-3.978c0.448-0.269,0.928-0.346,1.442-0.23
		c0.514,0.139,0.903,0.433,1.173,0.881c0.451,0.744,1.115,1.848,1.997,3.311C357.257,206.896,356.163,207.557,354.7,208.438z"/>
	<path fill="#793DF4" d="M368.21,193.557c1.985,3.297,4.964,8.24,8.938,14.831c0.278,0.462,0.356,0.945,0.232,1.447
		c-0.133,0.526-0.418,0.924-0.866,1.193c-1.479,0.891-3.676,2.217-6.602,3.978c-0.46,0.28-0.949,0.348-1.458,0.209
		c-0.518-0.116-0.916-0.404-1.194-0.866c-0.99-1.641-2.229-3.699-3.721-6.175c-1.492-2.476-3.232-5.362-5.222-8.659
		c0.734-0.439,1.832-1.1,3.29-1.981c1.761,2.922,4.413,7.322,7.956,13.199c0.746-0.45,1.848-1.115,3.311-1.995
		c-1.77-2.938-4.422-7.339-7.956-13.201C365.653,195.098,366.747,194.437,368.21,193.557z"/>
	<path fill="#793DF4" d="M384.736,194.819c0.448-0.272,0.937-0.34,1.463-0.209c0.502,0.124,0.891,0.416,1.169,0.881
		c0.667,1.102,1.658,2.749,2.98,4.944c0.278,0.462,0.356,0.945,0.232,1.446c-0.128,0.527-0.418,0.922-0.866,1.194
		c-1.102,0.665-2.759,1.662-4.969,2.992c-0.729,0.441-1.827,1.102-3.286,1.983c-0.439-0.732-1.102-1.828-1.981-3.288
		c-0.452-0.746-1.115-1.851-1.997-3.311c-0.439-0.732-1.102-1.828-1.981-3.288c-0.228-0.373-0.505-0.835-0.837-1.388
		c-0.332-0.551-0.721-1.193-1.161-1.923c-0.439-0.732-1.102-1.828-1.981-3.288c0.729-0.441,1.828-1.102,3.287-1.983
		c1.106-0.665,2.759-1.664,4.969-2.994c0.447-0.269,0.928-0.346,1.446-0.23c0.51,0.139,0.899,0.431,1.169,0.878
		c0.667,1.104,1.666,2.76,2.996,4.967c0.269,0.448,0.348,0.93,0.232,1.446C385.477,194.158,385.183,194.547,384.736,194.819z
		 M378.785,196.178c0.746-0.45,1.848-1.115,3.311-1.995c-0.078-0.135-0.199-0.328-0.348-0.582c-0.369-0.611-0.92-1.521-1.645-2.729
		c-0.734,0.441-1.836,1.107-3.311,1.995C377.231,193.598,377.894,194.701,378.785,196.178z M382.763,202.777
		c0.746-0.45,1.848-1.115,3.311-1.995c-0.083-0.135-0.199-0.328-0.348-0.582c-0.369-0.611-0.92-1.521-1.649-2.729
		c-0.729,0.441-1.831,1.106-3.307,1.995C381.209,200.198,381.872,201.302,382.763,202.777z"/>
	<path fill="#793DF4" d="M394.296,184.57c-0.224-0.371-0.555-0.924-0.994-1.655c-0.734,0.441-1.836,1.107-3.311,1.997
		c0.439,0.729,1.106,1.834,1.993,3.311c1.106-0.667,2.76-1.664,4.969-2.994c0.448-0.269,0.928-0.348,1.446-0.232
		c0.51,0.139,0.903,0.433,1.169,0.881c0.891,1.477,2.217,3.676,3.978,6.599c0.282,0.462,0.356,0.945,0.232,1.446
		c-0.129,0.527-0.418,0.924-0.866,1.194c-1.475,0.891-3.676,2.217-6.597,3.978c-0.464,0.278-0.953,0.348-1.463,0.209
		c-0.518-0.116-0.912-0.404-1.194-0.866c-0.439-0.731-1.102-1.827-1.981-3.29c0.729-0.439,1.828-1.1,3.29-1.981
		c0.216,0.356,0.547,0.91,0.995,1.656c0.746-0.45,1.848-1.115,3.311-1.996c-0.448-0.746-1.115-1.85-1.993-3.311
		c-1.107,0.665-2.752,1.657-4.944,2.979c-0.464,0.278-0.945,0.356-1.446,0.23c-0.526-0.13-0.928-0.425-1.21-0.889
		c-0.439-0.729-0.99-1.647-1.658-2.752c-0.663-1.102-1.438-2.385-2.321-3.848c-0.269-0.448-0.339-0.934-0.207-1.461
		c0.124-0.501,0.418-0.891,0.878-1.169c1.463-0.883,3.663-2.209,6.602-3.978c0.448-0.271,0.928-0.348,1.446-0.232
		c0.51,0.139,0.903,0.433,1.169,0.881c0.452,0.746,1.119,1.848,1.997,3.311C396.857,183.029,395.759,183.69,394.296,184.57z"/>
	<path fill="#793DF4" d="M407.499,176.616c-0.224-0.373-0.56-0.926-0.999-1.655c-0.733,0.439-1.836,1.105-3.311,1.995
		c1.33,2.207,3.323,5.511,5.972,9.911c0.746-0.45,1.852-1.115,3.311-1.996c-0.224-0.373-0.555-0.924-0.994-1.655
		c0.729-0.441,1.823-1.1,3.286-1.983c0.443,0.732,1.102,1.828,1.985,3.29c0.278,0.462,0.352,0.943,0.228,1.446
		c-0.129,0.524-0.419,0.922-0.866,1.194c-1.475,0.889-3.676,2.215-6.597,3.976c-0.464,0.28-0.949,0.348-1.463,0.209
		c-0.514-0.116-0.911-0.404-1.193-0.866c-0.663-1.104-1.662-2.76-2.992-4.967c-0.547-0.91-1.231-2.043-2.051-3.4
		c-0.833-1.388-1.807-2.998-2.909-4.832c-0.274-0.448-0.34-0.935-0.211-1.461c0.124-0.501,0.418-0.893,0.883-1.171
		c1.458-0.881,3.659-2.207,6.597-3.978c0.447-0.269,0.928-0.346,1.446-0.232c0.51,0.141,0.903,0.433,1.172,0.881
		c0.448,0.746,1.115,1.85,1.994,3.311C410.055,175.075,408.957,175.736,407.499,176.616z"/>
	<path fill="#793DF4" d="M424.335,170.952c0.448-0.269,0.933-0.34,1.459-0.209c0.501,0.124,0.891,0.418,1.172,0.881
		c0.879,1.461,2.205,3.661,3.978,6.599c-0.733,0.439-1.831,1.1-3.29,1.983c-0.883-1.463-2.209-3.663-3.978-6.601
		c-0.729,0.441-1.836,1.106-3.311,1.995c0.883,1.463,2.209,3.663,3.978,6.602c-0.734,0.439-1.828,1.1-3.29,1.981
		c-0.878-1.461-2.204-3.661-3.978-6.599c-0.439-0.732-1.098-1.828-1.981-3.288c-0.439-0.732-0.995-1.647-1.657-2.752
		c-0.667-1.104-1.438-2.387-2.321-3.848c0.733-0.441,1.828-1.102,3.29-1.983c1.102-0.665,2.756-1.662,4.964-2.994
		c0.448-0.269,0.932-0.346,1.446-0.23c0.514,0.139,0.903,0.433,1.173,0.881c0.663,1.102,1.662,2.758,2.992,4.964
		c0.269,0.448,0.348,0.93,0.232,1.448C425.073,170.29,424.783,170.682,424.335,170.952z M421.696,170.315
		c-0.083-0.135-0.199-0.328-0.353-0.582c-0.369-0.611-0.916-1.521-1.645-2.729c-0.729,0.441-1.832,1.106-3.311,1.995
		c0.439,0.732,1.106,1.836,1.997,3.311C419.131,171.861,420.233,171.196,421.696,170.315z"/>
	<path fill="#793DF4" d="M424.315,159.738c0.551-0.331,1.649-0.993,3.29-1.981c1.239,2.058,3.726,6.181,7.455,12.37
		c0.414,0.688,1.243,2.06,2.482,4.117c-0.538,0.323-1.632,0.984-3.29,1.983c-0.825-1.374-2.064-3.431-3.721-6.174
		C428.877,167.307,426.805,163.869,424.315,159.738z"/>
	<path fill="#793DF4" d="M441.786,151.433c0.891,1.477,2.217,3.676,3.978,6.599c0.282,0.462,0.361,0.953,0.249,1.469
		c-0.141,0.512-0.435,0.901-0.883,1.171c-1.102,0.665-2.76,1.664-4.964,2.994c0.878,1.463,2.204,3.661,3.974,6.599
		c-0.729,0.441-1.823,1.102-3.286,1.983c-0.439-0.731-0.995-1.649-1.658-2.751c-0.659-1.09-1.43-2.372-2.321-3.848
		c-0.439-0.732-1.102-1.828-1.981-3.288c-0.452-0.746-1.115-1.851-1.997-3.311c-0.439-0.732-1.102-1.828-1.981-3.29
		c0.729-0.439,1.828-1.1,3.286-1.981c1.107-0.665,2.76-1.664,4.969-2.994c0.448-0.269,0.928-0.346,1.446-0.232
		C441.127,150.693,441.52,150.986,441.786,151.433z M438.18,160.378c0.746-0.45,1.852-1.115,3.311-1.995
		c-0.079-0.135-0.195-0.33-0.348-0.582c-0.369-0.611-0.916-1.521-1.645-2.729c-0.734,0.439-1.836,1.106-3.311,1.995
		C436.626,157.799,437.294,158.901,438.18,160.378z"/>
	<path fill="#793DF4" d="M455.983,145.135c-1.637,0.988-2.735,1.649-3.286,1.981c3.982,6.607,6.635,11.006,7.956,13.2
		c-1.657,0.997-2.76,1.662-3.311,1.995c-3.974-6.593-6.626-10.992-7.956-13.2c-1.641,0.99-2.735,1.649-3.29,1.983
		c-0.493-0.821-0.908-1.506-1.239-2.058c-0.332-0.553-0.581-0.963-0.742-1.231c4.952-2.986,8.246-4.971,9.887-5.961
		C454.885,143.307,455.544,144.403,455.983,145.135z"/>
	<path fill="#793DF4" d="M457.313,139.849c0.551-0.331,1.649-0.993,3.29-1.981c1.239,2.058,3.725,6.181,7.455,12.37
		c0.415,0.686,1.243,2.06,2.482,4.117c-0.539,0.323-1.633,0.984-3.29,1.983c-0.824-1.374-2.068-3.431-3.721-6.175
		C461.876,147.418,459.804,143.98,457.313,139.849z"/>
	<path fill="#793DF4" d="M474.784,131.545c1.774,2.938,4.426,7.339,7.956,13.198c0.278,0.464,0.356,0.945,0.232,1.448
		c-0.129,0.524-0.418,0.922-0.866,1.192c-1.475,0.891-3.676,2.217-6.602,3.978c-0.46,0.28-0.949,0.348-1.458,0.209
		c-0.518-0.116-0.916-0.404-1.194-0.866c-0.667-1.105-1.662-2.76-2.992-4.967c-0.551-0.91-1.231-2.043-2.051-3.4
		c-0.837-1.388-1.806-2.998-2.913-4.832c-0.269-0.447-0.34-0.934-0.207-1.461c0.124-0.502,0.418-0.893,0.878-1.171
		c1.463-0.881,3.663-2.207,6.602-3.978c0.448-0.269,0.928-0.346,1.446-0.232C474.125,130.804,474.515,131.097,474.784,131.545z
		 M475.157,147.088c0.746-0.449,1.848-1.115,3.311-1.995c-0.091-0.149-0.22-0.365-0.39-0.648c-1.243-2.058-3.104-5.147-5.582-9.262
		c-0.733,0.439-1.836,1.104-3.311,1.995c0.663,1.102,1.658,2.751,2.979,4.944C472.828,143.226,473.827,144.882,475.157,147.088z"/>
	<path fill="#793DF4" d="M487.983,123.59c1.997,3.311,4.981,8.261,8.955,14.854c-0.729,0.439-1.828,1.1-3.286,1.983
		c-1.774-2.938-4.426-7.339-7.956-13.2c-0.734,0.441-1.836,1.106-3.311,1.995c1.77,2.938,4.422,7.339,7.956,13.198
		c-0.733,0.441-1.827,1.102-3.29,1.983c-1.106-1.834-2.486-4.123-4.14-6.868c-1.653-2.743-3.589-5.951-5.797-9.618
		c0.729-0.441,1.828-1.102,3.286-1.983c1.107-0.665,2.76-1.662,4.969-2.994c0.448-0.269,0.928-0.346,1.447-0.23
		C487.324,122.848,487.718,123.143,487.983,123.59z"/>
	<path fill="#793DF4" d="M499.893,120.927c-0.224-0.373-0.559-0.926-0.999-1.655c-0.729,0.439-1.836,1.104-3.311,1.995
		c0.439,0.731,1.106,1.834,1.997,3.311c1.102-0.665,2.756-1.664,4.964-2.994c0.448-0.269,0.928-0.348,1.446-0.232
		c0.51,0.141,0.899,0.433,1.173,0.881c0.887,1.478,2.213,3.676,3.974,6.599c0.282,0.462,0.356,0.945,0.232,1.446
		c-0.129,0.526-0.418,0.924-0.866,1.194c-1.475,0.891-3.676,2.217-6.597,3.978c-0.464,0.28-0.953,0.348-1.463,0.209
		c-0.514-0.116-0.912-0.404-1.194-0.866c-0.439-0.732-1.098-1.828-1.981-3.29c0.729-0.439,1.828-1.1,3.29-1.981
		c0.216,0.359,0.547,0.909,0.995,1.655c0.746-0.449,1.852-1.115,3.311-1.995c-0.448-0.746-1.115-1.85-1.994-3.311
		c-1.106,0.665-2.751,1.658-4.944,2.98c-0.464,0.278-0.945,0.356-1.446,0.232c-0.526-0.131-0.928-0.427-1.21-0.889
		c-0.439-0.732-0.99-1.649-1.657-2.754c-0.663-1.102-1.438-2.385-2.316-3.848c-0.274-0.447-0.34-0.932-0.211-1.458
		c0.124-0.502,0.418-0.893,0.883-1.171c1.459-0.883,3.659-2.207,6.597-3.978c0.448-0.269,0.928-0.348,1.446-0.232
		c0.51,0.139,0.903,0.433,1.173,0.881c0.447,0.746,1.115,1.848,1.993,3.311C502.449,119.384,501.351,120.045,499.893,120.927z"/>
</g>
<text transform="matrix(0.8513 -0.5247 0.5247 0.8513 308.2046 251.2169)" fill="#793DF4" font-family="'Cornerstone'" font-size="26.3624px">USE</text>
</svg>
