<?xml version="1.0" encoding="utf-8"?>
<!-- Generator: Adobe Illustrator 21.0.2, SVG Export Plug-In . SVG Version: 6.00 Build 0)  -->
<svg version="1.1" id="Layer_1" xmlns="http://www.w3.org/2000/svg" xmlns:xlink="http://www.w3.org/1999/xlink" x="0px" y="0px"
	 viewBox="0 0 180.4054 137.1622" style="enable-background:new 0 0 180.4054 137.1622;" xml:space="preserve">
<style type="text/css">
	.st0{fill:#FFC145;}
	.st1{fill:#9393B5;}
	.st2{fill:#0E2947;}
	.st3{fill:#EDBA54;}
	.st4{fill:#143954;}
	.st5{fill:#0092FF;}
	.st6{fill:#FFE292;}
	.st7{fill:#0FCE7C;}
	.st8{fill:#079973;}
	.st9{fill:#3BFFA6;}
	.st10{fill:#FFFFFF;}
	.st11{fill:#40F4DE;}
	.st12{fill:#E6E6FF;}
	.st13{fill:#D6D6EA;}
	.st14{fill:#3386FF;}
	.st15{fill:#1866C4;}
	.st16{fill:#57BBFF;}
</style>
<g>
	<g>
		<path class="st0" d="M49.7375,51.902c0.3917-1.2197,2.2961-0.6347,1.9033,0.5884c-0.9057,2.8195-0.0659,4.6002,1.3367,7.0254
			c0.5037,0.8709,0.6963,1.7731,1.4929,2.4805c0.5465,0.4855,1.0568,0.621,1.4959,1.2401c0.7316,1.0316-0.7266,2.3928-1.4687,1.3466
			c-0.6242-0.8802-1.7066-1.1612-2.3094-2.0957c-0.6558-1.0167-1.2226-2.2889-1.7942-3.3578
			C49.0979,56.7063,48.9021,54.5026,49.7375,51.902z"/>
	</g>
	<g>
		<path class="st0" d="M130.5338,50.402c-0.3917-1.2197-2.2961-0.6347-1.9033,0.5884c0.9058,2.8195,0.0659,4.6002-1.3367,7.0254
			c-0.5036,0.8709-0.6962,1.7731-1.4929,2.4805c-0.5465,0.4855-1.0567,0.621-1.4958,1.2401
			c-0.7317,1.0316,0.7265,2.3928,1.4686,1.3466c0.6243-0.8802,1.7067-1.1612,2.3095-2.0957
			c0.6557-1.0167,1.2225-2.2889,1.7941-3.3578C131.1734,55.2063,131.3692,53.0026,130.5338,50.402z"/>
	</g>
	<g>
		<g>
			<path class="st1" d="M71.9664,80.9846c0.2276-0.1494,0.4024-0.3613,0.5215-0.6035c0.8565-0.3604,1.4736-1.1611,2.2715-1.7783
				c0.1269-0.0645,0.2549-0.1231,0.3857-0.1758c0.5196,0.165,1.125,0.083,1.5547-0.3379c0.1504-0.1494,0.3018-0.2988,0.4522-0.4482
				c0.7783-0.7666,0.3174-1.9073-0.5059-2.3516c-0.6377-1.0508-1.7314-1.9434-2.4346-2.832
				c-0.4082-0.5147-0.9795-0.5772-1.4795-0.3789c-0.1484-0.1612-0.3261-0.2969-0.5195-0.3907
				c-0.0635-0.1347-0.1445-0.2548-0.2441-0.3623c-0.0615-0.7119-0.5801-1.4052-1.4209-1.3144
				c-0.0469,0.0049-0.0938,0.0156-0.1426,0.0224c-0.0107-0.1357-0.0361-0.2714-0.084-0.3974
				c-0.2392-0.586-0.8467-0.9287-1.4707-0.8623c-0.5908,0.0625-1.1035,0.2627-1.6035,0.5781
				c-0.7715,0.4844-1.4668,1.2148-1.2666,2.1904c0.0957,0.4688,0.5107,0.916,0.9941,1.0821
				c0.0342,0.5615,0.4493,1.1113,0.9854,1.3564c-0.1299,0.3477-0.1162,0.7178,0.0156,1.0459
				c-0.3545,0.7744,0.0176,1.8213,0.8359,2.127c0.0411,0.539,0.3575,1.0683,0.8165,1.3408
				c-0.2305,0.7099-0.1905,1.4785,0.248,2.0605C70.3688,81.2112,71.2477,81.4592,71.9664,80.9846z"/>
		</g>
		<g>
			<g>
				<path class="st2" d="M68.3619,68.2883c5.2159,5.2149,10.4317,10.4307,15.6455,15.6455
					c0.9668,0.9668,2.4678-0.5332,1.4991-1.5009c-5.2149-5.2149-10.4297-10.4297-15.6436-15.6446
					C68.8951,65.8206,67.3942,67.3215,68.3619,68.2883L68.3619,68.2883z"/>
			</g>
		</g>
		<g>
			<g>
				<path class="st2" d="M64.3844,71.0266C70.3467,83.6,72.7051,88.571,73.8639,91.0168c0.5879,1.2364,2.416,0.1582,1.833-1.0693
					c-1.1587-2.4419-3.513-7.4158-9.4815-19.9902C65.6305,68.7209,63.8014,69.7991,64.3844,71.0266L64.3844,71.0266z"/>
			</g>
		</g>
		<g>
			<g>
				<path class="st2" d="M65.7945,71.3254c1.2452-0.9101,2.502-1.8017,3.7286-2.7382c0.458-0.3477,0.6992-0.9043,0.3798-1.4493
					c-0.2656-0.4541-0.9902-0.7314-1.4511-0.3808c-1.2256,0.9336-2.4834,1.8261-3.7266,2.7363
					C63.6324,70.2932,64.6891,72.136,65.7945,71.3254L65.7945,71.3254z"/>
			</g>
		</g>
		<g>
			<g>
				<path class="st2" d="M63.8541,65.8704c0.6768,1.0371,1.3516,2.0732,2.0283,3.1103c0.7432,1.1416,2.5811,0.0801,1.8311-1.0713
					c-0.6748-1.0351-1.3516-2.0722-2.0283-3.1084C64.9421,63.6604,63.1061,64.72,63.8541,65.8704L63.8541,65.8704z"/>
			</g>
		</g>
	</g>
	<g>
		<path class="st1" d="M40.0605,68.0607c1.3807-1.433,3.1158-2.0642,4.8555-2.9437c0.8335-0.4214,1.5476-0.9728,2.3369-1.4604
			c0.5781-0.3573,1.6249-0.5914,2.3337-0.9617c-0.5819-1.342-1.8475-2.421-2.4763-3.685c-1.2874,0.7408-2.7437,1.223-3.7122,2.2976
			c-0.8574,0.9514-2.2-0.5215-1.3464-1.4686c1.3798-1.531,3.5391-1.807,5.0255-3.255c0.5905-0.5752,1.7536-0.0923,1.6691,0.765
			c-0.084,0.8525,1.3141,1.9485,1.7444,2.7032c0.3781,0.6634,0.9782,1.6823,1.1275,2.4292
			c0.1501,0.7503,0.1259,1.1214-0.5272,1.6244c-0.6013,0.4632-1.6472,0.6157-2.3169,0.9586
			c-0.8183,0.4189-1.5157,1.042-2.3154,1.4961c-1.7424,0.9894-3.6223,1.4855-5.0518,2.969
			C40.5173,70.4528,39.1722,68.9826,40.0605,68.0607z"/>
	</g>
	<g>
		<path class="st1" d="M35.3312,63.3622c1.285,0,1.2189,1.9917-0.0612,1.9917C33.9849,65.3539,34.0511,63.3622,35.3312,63.3622z"/>
	</g>
	<g>
		<path class="st1" d="M38.9145,69.3206c1.285,0,1.219,1.9917-0.0613,1.9917C37.5683,71.3123,37.6343,69.3206,38.9145,69.3206z"/>
	</g>
	<g>
		<g>
			<path class="st1" d="M35.6339,64.1366c0.4284-0.6209,1.0712-0.9295,1.7782-1.1434c-0.0041-0.0808-0.0231-0.1539-0.0123-0.2422
				c0.0357-0.2323,0.1487-0.4015,0.2976-0.5752c0.3365-0.391,0.7697-0.3762,1.1074-0.1722c1.285-1.0236,3.0517-1.6219,4.6335-2.1792
				c0.954-0.6632,2.016-1.1902,2.9579-1.8765c0.3359-0.2444,0.7722-0.1738,1.0809,0.0619c0.4107-0.0084,0.8406,0.2311,0.9867,0.6464
				c0.3991,1.1263,1.0998,2.0364,1.3447,3.2135c0.1693,0.1276,0.3428,0.2563,0.5212,0.3884
				c0.4367,0.3228,0.3442,0.9751,0.0487,1.3415c-1.0264,1.2677-2.6747,1.8554-4.1031,2.5444
				c-1.817,0.8782-3.5328,1.7489-5.3797,2.5241c-0.1259,0.6481-0.3909,1.2599-0.7847,1.7349
				c-0.3117,0.374-1.0087,0.4169-1.3423,0.0467c-1.3612-1.5021-2.1692-3.5819-3.0989-5.3573
				C35.5231,64.8131,35.4361,64.4242,35.6339,64.1366z"/>
		</g>
		<g>
			<g>
				<path class="st2" d="M51.6301,62.911C46.0656,66.2463,40.5,69.5797,34.9346,72.9134c-0.8273,0.4955-0.0739,1.793,0.7571,1.2952
					c5.5654-3.3337,11.131-6.6671,16.6955-10.0024C53.2143,63.7104,52.4609,62.413,51.6301,62.911L51.6301,62.911z"/>
			</g>
		</g>
		<g>
			<g>
				<path class="st2" d="M48.4221,55.0855c-6.2019,3.6398-12.4037,7.2796-18.6055,10.9196c-0.832,0.4883-0.078,1.7854,0.7571,1.2952
					c6.2018-3.64,12.4036-7.2798,18.6055-10.9196C50.0112,55.8924,49.2572,54.5954,48.4221,55.0855L48.4221,55.0855z"/>
			</g>
		</g>
	</g>
	<g>
		<g>
			
				<ellipse transform="matrix(0.2432 -0.97 0.97 0.2432 -42.6354 85.0773)" class="st3" cx="33.2047" cy="69.8618" rx="4.8536" ry="4.8544"/>
			<path class="st4" d="M33.2157,75.2177c-0.437,0-0.8774-0.0537-1.3125-0.1631c-2.8633-0.7188-4.6099-3.6318-3.8926-6.4951
				c0.7163-2.8633,3.6313-4.6118,6.4966-3.8906c1.3867,0.3467,2.5552,1.2139,3.29,2.4404c0.7349,1.2271,0.9482,2.667,0.6001,4.0547
				c-0.3472,1.3867-1.2139,2.5557-2.4409,3.29C35.1141,74.9589,34.1722,75.2177,33.2157,75.2177z M33.2054,65.5077
				c-1.9512,0-3.731,1.3208-4.2251,3.2949l0,0c-0.583,2.3281,0.8374,4.6973,3.1665,5.2813
				c1.1274,0.2852,2.2983,0.1104,3.2954-0.4873c0.998-0.5977,1.7026-1.5479,1.9854-2.6758
				c0.2827-1.1284,0.1094-2.2998-0.4883-3.2974s-1.5474-1.7026-2.6753-1.9849C33.91,65.5502,33.5551,65.5077,33.2054,65.5077z"/>
		</g>
		<g>
			<path class="st5" d="M30.1163,78.3919c-0.1699,0.6833,0.2444,1.3755,0.9284,1.5475l0,0c0.6819,0.1715,1.3755-0.2443,1.5461-0.927
				l1.1973-4.7756c0.1713-0.6845-0.2431-1.3768-0.927-1.5475l0,0c-0.6832-0.1713-1.376,0.2438-1.5468,0.9277L30.1163,78.3919z"/>
			<path class="st4" d="M31.3578,80.4784c-0.145,0-0.291-0.0176-0.4351-0.0547c-0.9478-0.2373-1.5273-1.2031-1.292-2.1523
				l1.1987-4.7764c0.1147-0.459,0.4023-0.8467,0.8091-1.0908c0.4058-0.2451,0.8828-0.3174,1.3442-0.2002
				c0.46,0.1152,0.8481,0.4033,1.0918,0.8096c0.2432,0.4072,0.3135,0.8848,0.1982,1.3447l-1.1973,4.7764
				c-0.1147,0.459-0.4023,0.8467-0.8096,1.0908C31.9867,80.3925,31.6747,80.4784,31.3578,80.4784z M30.601,78.5136
				c-0.1021,0.415,0.1514,0.8369,0.5659,0.9404c0.1992,0.0537,0.4072,0.0205,0.585-0.0859
				c0.1782-0.1064,0.3037-0.2764,0.3535-0.4766l1.1978-4.7764c0.0503-0.2012,0.0195-0.4102-0.0869-0.5879
				c-0.106-0.1768-0.2754-0.3027-0.4761-0.3525c-0.2002-0.0498-0.4097-0.0195-0.5874,0.0869s-0.3032,0.2754-0.3535,0.4766
				L30.601,78.5136z"/>
		</g>
		<g>
			<path class="st5" d="M24.2044,73.5667c-0.5913,0.384-0.7582,1.1734-0.3722,1.7652l0,0c0.3837,0.5898,1.1745,0.7539,1.7651,0.3708
				l4.1231-2.689c0.5911-0.3866,0.7573-1.1754,0.3715-1.7658l0,0c-0.3846-0.5891-1.174-0.756-1.7651-0.3708L24.2044,73.5667z"/>
			<path class="st4" d="M24.9022,76.4091c-0.5815,0-1.1509-0.2842-1.4893-0.8047c-0.2593-0.3975-0.3481-0.8721-0.2505-1.3359
				c0.0981-0.4639,0.3711-0.8613,0.7686-1.1211l4.1226-2.6895c0.8203-0.5322,1.9229-0.3022,2.457,0.5166
				c0.5347,0.8184,0.3032,1.9209-0.5161,2.457l-4.124,2.6904C25.5712,76.3163,25.2343,76.4091,24.9022,76.4091z M29.0228,71.1703
				c-0.1455,0-0.2925,0.0405-0.4229,0.1255l-4.123,2.6895c-0.1738,0.1133-0.293,0.2871-0.3359,0.4893
				c-0.0425,0.2031-0.0034,0.4102,0.1104,0.584c0.2314,0.3584,0.7139,0.46,1.0742,0.2246l4.1221-2.6885
				c0.3574-0.2344,0.4595-0.7158,0.2261-1.0732C29.5253,71.2939,29.2762,71.1703,29.0228,71.1703z"/>
		</g>
	</g>
	<g>
		<path class="st0" d="M49.6806,55.2814c0.0044,0.2825,0.145,0.4515,0.3335,0.5318c-0.1211,0.7904-0.0796,1.6028,0.1141,2.3894
			c-0.0184,0.0864-0.0269,0.1767-0.0086,0.265c0.2364,1.1587,0.5514,2.9279,1.9394,3.0133c0.0528,0.1014,0.1304,0.1728,0.2137,0.228
			c1.1049,1.3755,2.6235,2.2929,4.2221,3.3302c0.2794,0.1837,0.6519,0.1479,0.8893-0.0544
			c4.6288,1.7745,8.2483-0.8123,10.9926-4.3143c0.1994-0.2546,0.1723-0.514,0.0326-0.714c1.0235-1.5606,1.96-3.4306,1.7635-4.9013
			c-0.0254-0.189-0.1548-0.337-0.3198-0.4315c0.0173-0.8951-0.0471-2.0018-0.6668-2.3853
			c-0.3558-1.0388-0.8324-2.0401-1.3657-3.0589c-0.2032-0.3895-0.5874-0.4348-0.8899-0.2843
			c-0.5151-1.1759-1.9092-2.1181-3.2179-2.2567c-1.5609-1.2744-3.316-2.2221-5.4492-2.1645
			c-1.703,0.0467-4.1276,1.9876-4.9567,3.3596c-0.0089,0.0142-0.0144,0.0331-0.0219,0.0499
			c-1.0953,0.6542-1.9873,1.5374-2.6475,2.6893c-0.4021,0.7048-0.8292,1.9539-0.5327,2.8149
			c-0.1738,0.091-0.3141,0.2539-0.3505,0.5043C49.6767,54.4453,49.6719,54.7192,49.6806,55.2814z M56.3005,53.8113
			c0.1926-0.2575,0.4382-0.4613,0.7104-0.5899c0.044-0.1956,0.0879-0.3911,0.1365-0.5839c0.3115-0.2019,0.6137-0.4241,0.9065-0.6564
			c0.1406,0.1185,0.3273,0.1879,0.5557,0.1429c0.7463-0.1472,1.6352-0.2442,2.4785-0.4363c-0.0108,0.2685,0.1047,0.5284,0.4051,0.62
			c1.2184,0.3725,1.7314,2.0358,2.3658,3.0876c0.0037,0.0075,0.0069,0.0171,0.012,0.0258l0.0008-0.0007
			c0.0333,0.0518,0.0643,0.112,0.0981,0.1604c0.0442,0.0658,0.0985,0.1077,0.1536,0.1475
			c-0.2332,0.5035-0.4575,1.0134-0.6629,1.5315c-0.3184,0.4897-0.6623,0.9695-0.9964,1.4517
			c-0.114-0.0983-0.2538-0.1655-0.4119-0.1768c-0.4814-0.0271-1.1761,0.3106-1.8004,0.7809
			c-0.059,0.0266-0.1179,0.0534-0.1748,0.0792c-0.4893-0.1416-0.9878-0.2426-1.4876-0.3424
			c-0.145-0.2548-0.3342-0.4127-0.5461-0.515c-0.5915,0.0924-1.1958-0.1896-1.5347-0.7159
			C55.8197,56.7517,55.4865,54.8989,56.3005,53.8113z"/>
	</g>
	<g>
		<path class="st6" d="M62.9767,66.1169c0.1628-0.0734,0.3217-0.1554,0.4771-0.2395c0.3022-0.3204,0.6744-0.574,1.0611-0.7915
			c0.2558-0.147,0.54,0.0676,0.5399,0.3088c1.0584-1.1799,1.8816-2.3665,2.4675-3.6222c0.0339-0.0325,0.0718-0.0522,0.1038-0.0957
			c1.3294-1.8432,1.6369-4.2711,1.6427-6.4907c0.0068-2.2293-0.1041-5.0478-1.7076-6.774c-0.3847-0.4142-0.9311-0.1974-1.136,0.1873
			c-1.201-1.8151-2.9107-3.209-5.1732-3.6879c-0.8941-0.1887-1.1796,1.205-0.2839,1.3833c3.7282,0.7525,5.2629,4.3048,5.9963,7.6554
			c1.054,4.796-0.6178,8.327-3.9941,11.5788c-0.233,0.2233-0.248,0.4908-0.1491,0.7181
			C62.8583,66.1938,62.9061,66.1475,62.9767,66.1169z"/>
	</g>
	<g>
		<path class="st2" d="M59.6024,66.7348c-2.7466,0-5.5-0.9873-7.6772-2.9873c-4.6113-4.2354-4.917-11.4336-0.6812-16.0454
			c2.0513-2.2339,4.8501-3.5352,7.8809-3.6641c3.0464-0.1284,5.9311,0.9297,8.1641,2.9814
			c4.6118,4.2354,4.918,11.4336,0.6821,16.0459l0,0C65.7352,65.4999,62.6732,66.7348,59.6024,66.7348z M59.618,45.5273
			c-0.1426,0-0.2856,0.0034-0.4292,0.0093c-2.6304,0.1118-5.0596,1.2412-6.8403,3.1802c-3.6763,4.0029-3.4111,10.25,0.5913,13.9263
			c4.0034,3.6768,10.2505,3.4111,13.9268-0.5923c3.6763-4.0029,3.4106-10.2505-0.5923-13.9268
			C64.4413,46.4408,62.0917,45.5273,59.618,45.5273z"/>
	</g>
	<g>
		<path class="st2" d="M59.7274,60.3652c-1.1567,0-2.3164-0.416-3.2339-1.2583c-1.9424-1.7842-2.0713-4.8159-0.2871-6.7583
			c0.8643-0.9409,2.043-1.4893,3.3193-1.543c1.2725-0.0576,2.4971,0.3921,3.438,1.2563c1.9424,1.7842,2.0718,4.8159,0.2881,6.7578
			C62.3104,59.8451,61.0209,60.3652,59.7274,60.3652z M59.7318,52.3012c-0.0474,0-0.0947,0.001-0.1426,0.0029
			c-0.876,0.0371-1.6851,0.4131-2.2783,1.0591s-0.8994,1.4844-0.8623,2.3604c0.0376,0.876,0.4136,1.6855,1.0596,2.2788
			c1.334,1.2256,3.4146,1.1367,4.6392-0.1973c1.2241-1.333,1.1353-3.4136-0.1982-4.6387
			C61.3383,52.6054,60.5555,52.3012,59.7318,52.3012z"/>
	</g>
	<g>
		<path class="st5" d="M23.5863,66.8999c-0.6996,0.0774-1.2042,0.7078-1.1268,1.4088l0,0c0.0788,0.6995,0.7105,1.2028,1.4101,1.124
			l4.8924-0.5439c0.7002-0.0795,1.2049-0.71,1.1253-1.4087l0,0c-0.0774-0.701-0.7076-1.2043-1.4086-1.1269L23.5863,66.8999z"/>
		<path class="st4" d="M23.7225,69.9408c-0.3994,0-0.7847-0.1343-1.1021-0.3872c-0.3711-0.2954-0.6045-0.7178-0.6582-1.189
			c-0.1069-0.9746,0.5967-1.854,1.5688-1.9619l4.8921-0.5464c0.4736-0.0542,0.936,0.082,1.3057,0.3779
			c0.3706,0.2964,0.603,0.7192,0.6553,1.1909c0.0537,0.4673-0.0791,0.9302-0.374,1.3008c-0.2959,0.3716-0.7192,0.606-1.1919,0.6597
			l-4.8936,0.5439C23.8573,69.9369,23.7899,69.9408,23.7225,69.9408z M28.6215,66.8456c-0.0293,0-0.0581,0.0015-0.0874,0.0049
			l-4.8926,0.5464c-0.4248,0.0469-0.7319,0.4316-0.6851,0.8569c0.0229,0.2041,0.125,0.3887,0.2871,0.5176
			c0.1621,0.1294,0.3652,0.1899,0.5698,0.1641l4.8936-0.5439c0.2061-0.0229,0.3911-0.1255,0.5205-0.2886
			c0.1284-0.1611,0.1865-0.3623,0.1631-0.5659c-0.0229-0.208-0.1245-0.3926-0.2861-0.5215
			C28.9657,66.9042,28.7968,66.8456,28.6215,66.8456z"/>
	</g>
	<g>
		<g>
			<path class="st1" d="M108.3048,79.4846c-0.2276-0.1494-0.4024-0.3613-0.5215-0.6035c-0.8565-0.3604-1.4736-1.1611-2.2715-1.7783
				c-0.1269-0.0645-0.2549-0.1231-0.3857-0.1758c-0.5196,0.165-1.125,0.083-1.5547-0.3379
				c-0.1504-0.1494-0.3018-0.2988-0.4522-0.4482c-0.7783-0.7666-0.3174-1.9073,0.5059-2.3516
				c0.6377-1.0508,1.7314-1.9434,2.4346-2.832c0.4082-0.5147,0.9795-0.5772,1.4795-0.3789
				c0.1484-0.1612,0.3261-0.2969,0.5195-0.3907c0.0635-0.1347,0.1445-0.2548,0.2441-0.3623
				c0.0615-0.7119,0.5801-1.4052,1.4209-1.3144c0.0469,0.0049,0.0938,0.0156,0.1426,0.0224
				c0.0107-0.1357,0.0361-0.2714,0.084-0.3974c0.2392-0.586,0.8467-0.9287,1.4707-0.8623c0.5908,0.0625,1.1035,0.2627,1.6035,0.5781
				c0.7715,0.4844,1.4668,1.2148,1.2666,2.1904c-0.0957,0.4688-0.5107,0.916-0.9941,1.0821
				c-0.0342,0.5615-0.4493,1.1113-0.9854,1.3564c0.1299,0.3477,0.1162,0.7178-0.0156,1.0459
				c0.3545,0.7744-0.0176,1.8213-0.8359,2.127c-0.0411,0.539-0.3575,1.0683-0.8165,1.3408c0.2305,0.7099,0.1905,1.4785-0.248,2.0605
				C109.9025,79.7112,109.0236,79.9592,108.3048,79.4846z"/>
		</g>
		<g>
			<g>
				<path class="st2" d="M111.9094,66.7883c-5.2159,5.2149-10.4317,10.4307-15.6455,15.6455
					c-0.9668,0.9668-2.4678-0.5332-1.4991-1.5009c5.2149-5.2149,10.4297-10.4297,15.6436-15.6446
					C111.3762,64.3206,112.8771,65.8215,111.9094,66.7883L111.9094,66.7883z"/>
			</g>
		</g>
		<g>
			<g>
				<path class="st2" d="M115.8868,69.5266c-5.9622,12.5734-8.3205,17.5444-9.4795,19.9902
					c-0.5879,1.2364-2.416,0.1582-1.833-1.0693c1.1587-2.4419,3.513-7.4158,9.4815-19.9902
					C114.6407,67.2209,116.4699,68.2991,115.8868,69.5266L115.8868,69.5266z"/>
			</g>
		</g>
		<g>
			<g>
				<path class="st2" d="M114.4768,69.8254c-1.2452-0.9101-2.502-1.8017-3.7286-2.7382c-0.458-0.3477-0.6992-0.9043-0.3798-1.4493
					c0.2656-0.4541,0.9902-0.7314,1.4511-0.3808c1.2256,0.9336,2.4834,1.8261,3.7266,2.7363
					C116.6389,68.7932,115.5821,70.636,114.4768,69.8254L114.4768,69.8254z"/>
			</g>
		</g>
		<g>
			<g>
				<path class="st2" d="M116.4172,64.3704c-0.6768,1.0371-1.3516,2.0732-2.0283,3.1103c-0.7432,1.1416-2.5811,0.0801-1.8311-1.0713
					c0.6748-1.0351,1.3516-2.0722,2.0283-3.1084C115.3292,62.1604,117.1651,63.22,116.4172,64.3704L116.4172,64.3704z"/>
			</g>
		</g>
	</g>
	<g>
		<g>
			<path class="st7" d="M86.3438,65.2844c-1.5039-0.5137-3.5869-1.5293-4.289-3.1045c-0.0528-0.0595-0.1074-0.1172-0.1563-0.1797
				c-0.2295-0.2841-0.2168-0.582-0.0791-0.8046c-0.0029-0.0362-0.0088-0.0723-0.0097-0.1094
				c-0.2579-0.6758-0.4327-1.4141-0.584-2.0918c-0.3321-0.8067-0.3946-1.7393-0.2071-2.6319
				c0.0362-0.2236,0.0899-0.4365,0.1612-0.6318c-0.0352-0.5088,0.0517-1.0381,0.2617-1.5537
				c0.4277-1.0586,1.3428-2.3975,2.5039-2.8057c2.0928-1.7207,5.1133-3.247,7.6318-1.8193c0.1309,0.0752,0.21,0.1797,0.2637,0.2939
				c0.7402-0.1669,1.7686,0.2188,2.2539,0.6778c0.3067,0.291,0.2861,0.6943,0.1113,0.9804c0.0186,0.0137,0.0401,0.0284,0.0596,0.044
				c0.2139-0.0205,0.4385,0.0361,0.6045,0.2158c0.6191,0.669,1.1582,1.2725,1.54,2.1045c0.0596,0.127,0.0704,0.2471,0.0596,0.3643
				c0.0596,0.0634,0.1133,0.1298,0.1738,0.1923c0.295,0.295,0.1709,0.6993-0.0947,0.9434c0.4629,1.9268,0.6934,5.0225-0.8359,6.2832
				c-0.3936,0.7412-1.083,1.3682-1.7705,1.8066c-0.8408,1.1026-2.2149,1.9004-3.5586,1.9825
				C89.0451,65.7649,87.6183,65.7209,86.3438,65.2844z"/>
		</g>
		<g>
			<path class="st8" d="M92.1262,64.6653c2.58-2.1543,2.9218-4.374,2.584-7.6338c-0.2647-2.5215-1.0391-4.4883-3.1407-5.9443
				c-1.6299-1.128-3.6494-0.71-5.5127-0.6436c-0.9091,0.0332-0.998-1.3848-0.0859-1.4111c2.7764-0.0791,4.6914-0.2705,7.1152,1.3886
				c0.3848,0.2647,0.7276,0.5967,1.0332,0.9639c0.1592-0.0254,0.335,0.0137,0.5098,0.1445c1.6162,1.211,1.915,3.0498,2.2158,4.9395
				c0.2705,1.709,0.9717,3.8623-0.5078,5.2197c-0.1836,0.166-0.3887,0.2041-0.5771,0.166c-0.4707,1.3994-1.3155,2.6924-2.6573,3.833
				C92.4112,66.2756,91.424,65.2502,92.1262,64.6653z"/>
		</g>
		<g>
			<path class="st9" d="M84.1252,64.5354c-0.0068-0.0029-0.0098-0.0107-0.0166-0.0156c-1.1348-0.6065-1.8311-1.8321-2.5664-2.9746
				c-0.1455-0.2246-0.1377-0.4561-0.0557-0.6534c-0.2402-0.5791-0.3887-1.1962-0.4746-1.8281
				c-0.2314-0.6328-0.3828-1.2744-0.3457-1.9414c0.0811-1.4863,0.541-3.1103,1.4941-4.3027
				c0.0596-0.1612,0.168-0.2725,0.2979-0.3448c0.1182-0.122,0.2344-0.2451,0.3643-0.3535c0.1904-0.1591,0.3877-0.1884,0.5595-0.1367
				c0.2813-0.8808,0.7149-1.6933,1.3526-2.3769c0.6211-0.67,1.6191,0.333,0.999,0.999c-4.1631,4.4609,2.3447,17.2119,8.5869,13.4931
				c0.7852-0.4687,1.2861,0.4395,0.5049,0.9024c-1.5567,0.9258-2.9541,1.376-4.4326,0.9385
				c-0.0801,0.2304-0.251,0.4287-0.5528,0.4853C87.8526,66.7952,85.7696,65.5442,84.1252,64.5354z"/>
		</g>
		<g>
			<path class="st10" d="M91.9406,66.4651c-0.499-0.167-1.1387-0.375-1.9785-0.6397c-10.0752-3.1826-7.4228-14.497-7.4228-14.497
				l-1.8282,6.4824l3.1807,6.8935c0,0,5.0996,1.3584,7.7744,1.9825C91.7579,66.6125,91.8469,66.5364,91.9406,66.4651z"/>
		</g>
		<g>
			
				<ellipse transform="matrix(0.9296 -0.3686 0.3686 0.9296 -15.8615 34.5935)" class="st10" cx="82.6122" cy="58.8118" rx="1.4876" ry="3.0639"/>
		</g>
		<g>
			<path class="st4" d="M89.0184,67.2963c-5.4243,0-9.8374-4.4131-9.8374-9.8379c0-5.4253,4.4131-9.8389,9.8374-9.8389
				c5.4263,0,9.8403,4.4136,9.8403,9.8389C98.8588,62.8832,94.4447,67.2963,89.0184,67.2963z M89.0184,49.6195
				c-4.3218,0-7.8374,3.5166-7.8374,7.8389c0,4.3218,3.5156,7.8379,7.8374,7.8379c4.3228,0,7.8403-3.5161,7.8403-7.8379
				C96.8588,53.1362,93.3412,49.6195,89.0184,49.6195z"/>
		</g>
	</g>
	<g>
		<circle class="st11" cx="99.5563" cy="79.8038" r="5.008"/>
	</g>
	<g>
		<circle class="st11" cx="84.589" cy="79.8038" r="5.0081"/>
	</g>
	<g>
		<path class="st12" d="M73.5304,74.9592c0.1142-0.3418,0.2666-0.6533,0.4316-0.9531c0.3408-0.6768,0.7344-1.3271,1.1279-1.9844
			c0.2442-0.4092,0.5957-0.6465,0.9834-0.7597c0.1504-0.8086,0.7227-1.5293,1.6407-1.6045c4.4804-0.376,8.9443-0.5547,13.4003,0.124
			c4.0079,0.6103,8.3799-0.8223,12.2198,0.6572c1.1054,0.4258,1.372,1.6475,1.0381,2.6485
			c0.2295,0.0126,0.4589,0.0205,0.6875,0.0351c2.3046,0.1416,2.1533,3.9004-0.1202,4.0078
			c-0.4707,0.0225-0.9433,0.0283-1.413,0.0449c-0.5977,0.419-1.4385,0.6172-2.1094,0.3663
			c-0.1914-0.0723-0.3613-0.1729-0.5176-0.2959c-3.3613,0.0488-6.7334-0.0079-10.0898-0.002
			c-4.5118,0.0059-9.1426,0.3018-13.6358-0.2012c-0.1133,0.1651-0.2422,0.3008-0.3877,0.4092
			c-0.5595,0.4336-1.3066,0.4727-1.959,0.2109C73.8165,77.2825,73.0304,76.2463,73.5304,74.9592z"/>
	</g>
	<g>
		<path class="st13" d="M111.7757,93.5612c0.1011-0.1725,0.1676-0.3645,0.2209-0.5597c-0.3354,0.0318-0.6699,0.0191-0.9814-0.0575
			c-0.1856,0.071-0.3797,0.126-0.5862,0.1446c-2.4419,0.2194-3.0332-1.8387-2.9169-4.3568
			c-0.0556-0.0687-0.117-0.1311-0.1616-0.2117c-1.2787-2.3114-0.7458-4.6187-0.3055-7.0036
			c-0.0183-0.1568-0.0227-0.3173,0.0038-0.4829c0.0365-0.2168,0.0533-0.4361,0.0826-0.6538
			c0.0007-0.0076-0.0005-0.0141,0.0002-0.0217c0.0209-0.1832,0.0485-0.3648,0.0716-0.5472
			c0.0136-0.1304,0.0382-0.2596,0.0493-0.3903l0.0016,0.0002c0.0202-0.1484,0.036-0.2974,0.0582-0.4459
			c0.0704-0.4727,0.3341-0.7824,0.6731-0.9725c-0.0518-0.0313-0.0979-0.0693-0.1533-0.0959
			c-0.3408-0.1738-0.75-0.2598-1.2237-0.2109c-1.6337,0.2031-3.2528,0.372-4.873,0.4775c-2.2285-0.0225-4.4619-0.0625-6.6884-0.0703
			c-0.2197,0-0.417,0.041-0.6016,0.1064c-0.8691-0.1064-1.7392-0.1836-2.623-0.1777c-0.0634,0-0.1123,0.0137-0.17,0.0215
			c-0.5439-0.0215-1.08-0.0342-1.625-0.0215c-0.0996,0.0068-0.1865,0.0215-0.2753,0.0361c-0.2002-0.0224-0.3974-0.042-0.6026-0.0625
			c-0.6426-0.1347-1.1787,0.0762-1.5683,0.4551c-1.0118-0.0625-2.0303-0.0986-3.0429-0.0986c-0.4015,0-0.797,0.0068-1.1935,0.0146
			c-0.3389-0.2178-0.75-0.3447-1.209-0.331c-2.8563,0.0859-5.6924,0.1894-8.5341-0.1524c-0.8506-0.1055-1.4991,0.2246-1.917,0.7354
			c-0.176,0.0138-0.3541,0.0284-0.5316,0.0413c0.064,4.3744-0.0681,8.8191-0.1342,13.1886c-0.012,0.7917-0.5495,1.314-1.2505,1.4797
			c3.919,0.3499,8.1554,0.3839,12.1546,0.0755c0.248,0.0342,0.5029,0.0703,0.749,0.1123c0.8213,0.1192,1.6416,0.253,2.4834,0.3848
			c0.3174,0.0498,0.5947,0.0215,0.8409-0.0772c0.4101-0.1484,0.7147-0.4687,0.9043-0.8613
			c0.9198,0.0488,1.8329,0.0703,2.7518,0.0703c0.1193,0.0918,0.2334,0.168,0.3526,0.2305c0.6572,0.3926,1.2812,0.4414,1.9101,0.3428
			c0.5939,0.1279,1.1875,0.2256,1.8732,0.2324c0.2479,0.0068,0.4676-0.0283,0.6649-0.084c0.1476,0.084,0.3125,0.1533,0.4883,0.2022
			H74.0091c-0.2528,0.2575-0.6063,0.4291-1.0801,0.4196c-2.5287-0.0355-0.9764,0.2093-3.4769,0.2724
			c-0.6023,0.0152-1.1394-0.0216-1.62-0.1405v8.0285h44.6504v-8.58h-1.0098c0.0454-0.0471,0.0784-0.1054,0.1193-0.1568
			c0.1178,0.0009,0.236,0.008,0.3534,0.0034c0.333-0.0156,0.6807-0.0498,1.0195-0.0986
			C113.3069,93.6685,112.761,93.613,111.7757,93.5612z M96.7579,93.9661c0.4805-0.0489,0.9688-0.1182,1.4561-0.1954
			c0.4902-0.0859,1.0752-0.2802,1.5713-0.1474c0.416,0.1133,0.8194,0.2314,1.2158,0.3428H96.7579z"/>
	</g>
	<g>
		<path class="st13" d="M104.1262,93.9661c0.0417-0.0318,0.073-0.0735,0.111-0.109c0.1486,0.0346,0.3005,0.0769,0.4476,0.109
			H104.1262z"/>
	</g>
	<g>
		<path class="st13" d="M104.5921,93.4006c0.0083-0.0154,0.0202-0.0283,0.0281-0.0439c0.1201,0,0.2402,0.0068,0.3682,0.0146
			c0.6352,0.0111,1.2758,0.0191,1.9261,0.0411C106.0628,93.3995,105.2548,93.3945,104.5921,93.4006z"/>
	</g>
	<g>
		<path class="st9" d="M78.2756,65.3635c-0.8936,0.3233-1.4863,1.3008-1.21,2.2783c0.1153,0.501,0.4082,0.9151,0.7901,1.1914
			c0.0634,0.0958,0.1337,0.1875,0.2373,0.2666c0.0498,0.0391,0.1162,0.1104,0.1699,0.1661
			c0.0586,0.1464,0.1299,0.2881,0.2226,0.4179c0.295,0.4043,0.6905,0.5928,1.1358,0.7813c0.6172,0.2597,1.4463-0.042,1.8974-0.4844
			c0.4434-0.4385,0.6631-1.1152,0.5381-1.7353C80.5861,67.5579,79.2941,66.595,78.2756,65.3635z"/>
	</g>
	<g>
		<path class="st7" d="M98.7551,66.5354c0.0722-0.1484,0.1377-0.2979,0.2187-0.4404c0.5-0.8721,1.4981-1.336,2.4619-0.8799
			c0.834,0.3965,1.4053,1.6015,0.878,2.4619c-0.0196,0.0332-0.041,0.0664-0.0596,0.1025c-0.0576,0.1084-0.1094,0.2217-0.165,0.333
			c-0.2803,0.5518-0.6582,1.1631-1.2247,1.459c-0.2763,0.1436-0.5634,0.2295-0.8535,0.252
			c-0.2509,0.1719-0.5664,0.2822-0.959,0.2822c-0.0742,0-0.1396-0.0146-0.2109-0.0225c-0.0019,0-0.0029,0.001-0.0068,0.001
			c-1.0811,0.001-1.585-0.792-1.5791-1.626C97.1496,67.5559,97.6309,66.6038,98.7551,66.5354z"/>
	</g>
	<g>
		<path class="st1" d="M110.4339,93.8967c0.3877-0.0146,0.7703-0.0215,1.1229-0.0215c0.4678,0,0.9326,0,1.4082-0.0078
			c0.8882-0.0042-3.5264-0.0221-6.714-0.0437C107.6093,94.0304,109.1083,93.9432,110.4339,93.8967z"/>
	</g>
	<g>
		<path class="st1" d="M106.251,93.8237c-0.1862-0.0283-0.3689-0.064-0.549-0.1043c-0.7989,0.0195-1.5979,0.04-2.397,0.0621
			C102.7484,93.7954,104.2613,93.8102,106.251,93.8237z"/>
	</g>
	<g>
		<path class="st1" d="M112.4825,95.2883c-0.1328-0.1826-0.3389-0.332-0.5996-0.3965c-0.0215-0.0127-0.0439-0.0214-0.0645-0.0273
			c-0.0486-0.0834-0.1145-0.1565-0.1829-0.2267c0.7527,0.0025,1.3235,0.0053,1.5755,0.0083
			c-0.5531-0.0474-1.108-0.0695-1.6631-0.091c-0.2658-0.2227-0.6299-0.3411-1.0234-0.2345
			c-0.1622,0.0419-0.3262,0.0908-0.4862,0.1328c-0.0632,0.0163-0.1106,0.0448-0.164,0.0688
			c-0.9767-0.001-1.9553,0.0193-2.9359,0.0607c-0.1542-0.1899-0.3805-0.3135-0.6921-0.3268
			c-0.9701-0.0347-1.941,0.0346-2.9143,0.1585c-0.2519-0.1216-0.5431-0.1637-0.8036-0.0521
			c-0.149,0.0605-0.2766,0.1454-0.4051,0.2298c-0.0205,0.0035-0.0411,0.006-0.0617,0.0095
			c-0.0739,0.0018-0.0515,0.0034,0.0361,0.005c-0.0293,0.0195-0.064,0.0324-0.0927,0.0526
			c-0.1778-0.0429-0.3526-0.0771-0.5292-0.1064c-0.1144-0.043-0.2413-0.0703-0.3976-0.0703c-0.0498,0-0.1064-0.0069-0.1631-0.0069
			c-0.7569-0.0849-1.541-0.0927-2.333-0.0576c-1.4629-0.0557-2.9472-0.1064-4.3779,0.0068c0-0.0136-0.0068-0.0273-0.0068-0.041
			c1.3369-0.2675,2.7159-0.6572,4.0244-1.2041c0.0146,0.0088,0.0283,0.0088,0.0488,0.0166c0.0781,0.0352,0.1632,0.0635,0.255,0.0772
			c0.0067,0,0.0145,0.0078,0.0214,0.0078c0.0498,0.0049,0.0928,0.0049,0.1347,0.0127h0.084
			c0.4385,0.042,0.8692,0.0498,1.3018,0.0273c1.4277,0.0303,2.8554,0.0576,4.2695-0.0752c0.2061,0.1055,0.4248,0.1973,0.6514,0.2744
			c0.2297,0.0804,0.4692,0.144,0.7135,0.1987c1.2167-0.0298,2.4334-0.055,3.6507-0.0639c0.1953,0.1123,0.416,0.1621,0.6494,0.0986
			c0.2325-0.0556,0.46-0.121,0.6924-0.1777c0.3108-0.0789,0.4939-0.3081,0.5812-0.5823c-0.0912-0.0119-0.1807-0.0297-0.2687-0.0516
			c-0.1826,0.0717-0.3733,0.1277-0.5779,0.1461c-0.869,0.078-1.4946-0.1425-1.9464-0.5594
			c0.0272-0.1337,0.0333-0.2805,0.0621-0.4604c0.0141-0.088-0.0005-0.1693-0.0265-0.2449c0.1432-3.726,0.234-7.6628-0.1573-11.3515
			c-0.0078-0.0729-0.0442-0.13-0.0891-0.1768c-0.0393-0.4336-0.0879-0.8606-0.1526-1.2722
			c-0.0486-0.3088-0.3814-0.5091-0.6548-0.4856c0.0887-0.168,0.2003-0.3134,0.3412-0.4238
			c0.0107-0.0685,0.0265-0.1371,0.0265-0.2056c-0.0156-0.5312-0.3623-1.0527-1.039-1.0527h-0.9288
			c0.1281-0.1211,0.2208-0.2695,0.2491-0.4668c0.0146-0.0713,0.0273-0.1484,0.0411-0.2187c0.1211-0.2686,0.1698-0.4961,0.1649-0.793
			c0.0547-0.2686,0.1181-0.5371,0.1836-0.8057c0.2539-1.1465-1.2383-1.4785-1.8701-0.7285
			c-0.7187-0.1279-1.4062-0.2129-2.1338-0.2471c0.1699-0.0586,0.3272-0.1494,0.4668-0.3125c0.2695-0.29,0.4102-0.5156,0.6231-0.8818
			c0.2041-0.3623,0.0712-0.8643-0.2129-1.1621c0.1416-0.5147-0.0362-1.1221-0.6446-1.2783
			c-0.7207-0.1836-1.4199-0.2061-2.1192-0.1631c-0.0146,0-0.0292-0.0078-0.0507-0.0078c-0.0918,0-0.1836,0.0078-0.2685,0.0146
			c0,0,0-0.0068-0.0059-0.0068c-0.0499,0.0068-0.1064,0.0068-0.1631,0.0146c-0.039,0.003-0.0761,0.0088-0.1151,0.0137
			c0.2782,1.0098,0.5067,2.0567,0.6757,3.126c0.0341,0.0156,0.0546,0.0342,0.0898,0.041c0.1406,0.0498,0.29,0.085,0.4375,0.0996
			c0.1416,0.2188,0.3535,0.3955,0.6095,0.4893c-0.0568-0.0078-0.1066-0.0078-0.1633-0.0078
			c-0.3271,0.0019-0.6199-0.0508-0.9032-0.1182c0.3584,2.5879,0.3759,5.25-0.1055,7.6357c-0.4189,2.0743-1.04,3.75-1.9834,5.2803
			c-0.0732,0.2041-0.1465,0.3975-0.2178,0.5654c-1.1035,2.5674-3.2529,4.2217-5.5917,5.6221
			c-0.251,0.1543-0.3829,0.3467-0.4336,0.5508c-0.7706,0.1904-1.5411,0.3047-2.2969,0.3047c-0.043,0-0.085,0-0.1211,0.0068
			c-0.3096,0.0225-0.5126,0.1172-0.6221,0.2471c0.0528,0.2471,0.0977,0.4961,0.1445,0.7451c0.21,0.1992,0.5489,0.3516,1,0.3516
			c0.4249,0,0.8848-0.0215,1.3516-0.0645v0.4805c-0.1758,0.334-0.1836,0.7363,0,1.0537c0,2.1855-0.0068,4.3633,0.0078,6.5478
			h20.4629c0.0636-0.0849,0.1143-0.1836,0.1328-0.29c0.0138-0.0488,0.0293-0.1055,0.0293-0.1621
			c0.0781-1.0596,0.0918-2.2344-0.0293-3.3867c-0.0185-0.1983-0.041-0.3955-0.0692-0.5948c-0.0138-0.5087-0.0929-1.0185-0.254-1.456
			c0.1338-0.0645,0.2402-0.1484,0.3232-0.2471C112.7941,96.2717,112.7941,95.6858,112.4825,95.2883z"/>
	</g>
	<g>
		<path class="st10" d="M79.0216,66.1204c-0.0635,1.1162,0.251,2.163,0.5908,3.206c0.1406,0.4307-0.5078,0.7051-0.6533,0.2715
			c-0.3828-1.1475-0.7012-2.2939-0.6455-3.5107C78.3351,65.6321,79.0471,65.6643,79.0216,66.1204z"/>
	</g>
	<g>
		<rect x="66.2121" y="94.7112" class="st10" width="5" height="8.6328"/>
	</g>
	<g>
		<g>
			<path class="st2" d="M67.1466,93.1243c24.5703,0,21.1406-0.001,45.7129-0.001c1.0254,0,1.0254,1.5918,0,1.5918
				c-24.5723,0-21.1426,0-45.7129,0C66.1202,94.7151,66.1202,93.1243,67.1466,93.1243L67.1466,93.1243z"/>
		</g>
	</g>
	<g>
		<g>
			<path class="st2" d="M73.3868,76.6858c11.1953,0,22.3897,0,33.5869-0.001c1.0244,0,1.0244,1.5899,0,1.5899
				c-11.1972,0.0009-22.3916,0.0009-33.5869,0.0009C72.3595,78.2756,72.3595,76.6858,73.3868,76.6858L73.3868,76.6858z"/>
		</g>
	</g>
	<g>
		<g>
			<path class="st2" d="M105.8243,76.7727c0-1.0801,0-2.1611,0-3.2402c0-1.0254,1.5889-1.0254,1.5889,0c0,1.0791,0,2.1601,0,3.2402
				C107.4133,77.7981,105.8243,77.7981,105.8243,76.7727L105.8243,76.7727z"/>
		</g>
	</g>
	<g>
		<g>
			<path class="st2" d="M72.4132,76.9495c0-1.0909,0-2.1788,0-3.2705c0-1.0245,1.5918-1.0245,1.5918,0c0,1.0917,0,2.1796,0,3.2705
				C74.0051,77.9768,72.4132,77.9768,72.4132,76.9495L72.4132,76.9495z"/>
		</g>
	</g>
	<g>
		<g>
			<path class="st2" d="M73.1212,74.0344c-1.0264,0-1.0264-1.5928,0-1.5928C74.1466,72.4416,74.1466,74.0344,73.1212,74.0344
				L73.1212,74.0344z"/>
		</g>
	</g>
	<g>
		<g>
			<path class="st2" d="M73.1212,72.4416c11.1562,0,22.3125,0,33.4687,0c1.0254,0,1.0254,1.5918,0,1.5918
				c-11.1562,0-22.3125,0.001-33.4687,0.001C72.0948,74.0344,72.0948,72.4416,73.1212,72.4416L73.1212,72.4416z"/>
		</g>
	</g>
	<g>
		<g>
			<path class="st2" d="M104.8498,72.0793c0,0.0157,0,0.0323,0,0.0479c0,1.0264-1.5889,1.0264-1.5889,0c0-0.8828,0-1.7637,0-2.6455
				c0-1.0283,1.5889-1.0283,1.5889,0c0,0.8818,0,1.7627,0,2.6455c0,1.0264-1.5889,1.0264-1.5889,0c0-0.0156,0-0.0322,0-0.0479
				C103.2608,71.053,104.8498,71.053,104.8498,72.0793L104.8498,72.0793z"/>
		</g>
	</g>
	<g>
		<g>
			<path class="st2" d="M103.8801,70.4084c-9.2022,0.001-18.4053,0.001-27.6055,0.001c-1.0264,0-1.0264-1.5898,0-1.5898
				c9.2002,0,18.4033,0,27.6055-0.001C104.9054,68.8186,104.9054,70.4084,103.8801,70.4084L103.8801,70.4084z"/>
		</g>
	</g>
	<g>
		<g>
			<path class="st2" d="M74.7999,72.4416c0-0.9716,0-1.9433,0-2.916c0-1.0254,1.5908-1.0254,1.5908,0c0,0.9727,0,1.9444,0,2.916
				C76.3907,73.468,74.7999,73.468,74.7999,72.4416L74.7999,72.4416z"/>
		</g>
	</g>
	<g>
		<g>
			<path class="st2" d="M101.4337,68.9348c0-1.6689,0-3.3389,0-5.0068c0-1.0274,1.5908-1.0274,1.5908,0c0,1.6679,0,3.3379,0,5.0068
				C103.0246,69.9612,101.4337,69.9612,101.4337,68.9348L101.4337,68.9348z"/>
		</g>
	</g>
	<g>
		<g>
			<path class="st2" d="M102.4953,64.3137c-1.7275,1.7285-3.456,3.4561-5.1836,5.1846c-0.7256,0.7265-1.8515-0.3985-1.125-1.124
				c1.7266-1.7286,3.4561-3.458,5.1836-5.1866C102.0969,62.4622,103.2237,63.5862,102.4953,64.3137L102.4953,64.3137z"/>
		</g>
	</g>
	<g>
		<g>
			<path class="st2" d="M81.2785,69.0286c-1.3164-1.3174-2.6328-2.6338-3.9482-3.9493c-0.7256-0.7265,0.4004-1.8515,1.125-1.125
				c1.3164,1.3174,2.6328,2.6319,3.9472,3.9483C83.1291,68.6291,82.0041,69.7532,81.2785,69.0286L81.2785,69.0286z"/>
		</g>
	</g>
	<g>
		<g>
			<path class="st2" d="M78.4522,64.5774c0,1.3545,0,2.709,0,4.0644c0,1.0274-1.5908,1.0274-1.5908,0c0-1.3554,0-2.7099,0-4.0644
				C76.8615,63.55,78.4522,63.55,78.4522,64.5774L78.4522,64.5774z"/>
		</g>
	</g>
	<g>
		<g>
			<path class="st4" d="M112.8176,101.678c-13.7161,0-27.4323,0-41.1484,0c-0.4826,0-0.4834,0.75,0,0.75c0.0285,0,0.057,0,0.0855,0
				c0.4826,0,0.4834-0.75,0-0.75c-1.6275,0-3.255,0-4.8824,0c-0.4826,0-0.4834,0.75,0,0.75c1.6275,0,3.255,0,4.8824,0
				c0.4826,0,0.4834-0.75,0-0.75c-0.0285,0-0.057,0-0.0855,0c-0.4826,0-0.4834,0.75,0,0.75c13.7161,0,27.4323,0,41.1484,0
				C113.3001,102.428,113.3009,101.678,112.8176,101.678L112.8176,101.678z"/>
		</g>
	</g>
	<g>
		<path class="st5" d="M108.4269,97.8186c0,0.7207-0.583,1.3047-1.3046,1.3047H72.8946c-0.7207,0-1.3047-0.584-1.3047-1.3047l0,0
			c0-0.7217,0.584-1.3057,1.3047-1.3057h34.2276C107.8438,96.5129,108.4269,97.0969,108.4269,97.8186L108.4269,97.8186z"/>
		<path class="st4" d="M107.1224,99.623h-34.228c-0.9951,0-1.8047-0.8096-1.8047-1.8047c0-0.9961,0.8096-1.8057,1.8047-1.8057
			h34.228c0.9951,0,1.8047,0.8096,1.8047,1.8057C108.9271,98.8134,108.1176,99.623,107.1224,99.623z M72.8944,97.0126
			c-0.4438,0-0.8047,0.3613-0.8047,0.8057c0,0.4434,0.3608,0.8047,0.8047,0.8047h34.228c0.4434,0,0.8047-0.3613,0.8047-0.8047
			c0-0.4443-0.3613-0.8057-0.8047-0.8057H72.8944z"/>
	</g>
	<g>
		<g>
			<path class="st2" d="M67.8872,101.8144c0-2.6111,0-5.2223,0-7.8334c0-0.9652-1.5-0.9668-1.5,0c0,2.6111,0,5.2223,0,7.8334
				C66.3872,102.7796,67.8872,102.7812,67.8872,101.8144L67.8872,101.8144z"/>
		</g>
	</g>
	<g>
		<g>
			<path class="st2" d="M113.6509,101.8144c0-2.6111,0-5.2223,0-7.8334c0-0.9652-1.5-0.9668-1.5,0c0,2.6111,0,5.2223,0,7.8334
				C112.1509,102.7796,113.6509,102.7812,113.6509,101.8144L113.6509,101.8144z"/>
		</g>
	</g>
	<g>
		<g>
			<path class="st2" d="M66.9093,102.7758c15.3552,0,30.7105,0,46.0657,0c0.9652,0,0.9668-1.5,0-1.5c-15.3552,0-30.7105,0-46.0657,0
				C65.9442,101.2758,65.9426,102.7758,66.9093,102.7758L66.9093,102.7758z"/>
		</g>
	</g>
	<g>
		<g>
			<path class="st2" d="M106.4195,78.0342c0.5903,0.625,1.1806,1.25,1.7709,1.875c0.6642,0.7033,1.7235-0.3588,1.0607-1.0607
				c-0.5903-0.625-1.1806-1.25-1.7709-1.875C106.816,76.2703,105.7566,77.3324,106.4195,78.0342L106.4195,78.0342z"/>
		</g>
	</g>
	<g>
		<g>
			<path class="st2" d="M108.0123,79.4414c0,4.3479,0,8.6957,0,13.0436c0,0.9652,1.5,0.9668,1.5,0c0-0.1187,0-0.2374,0-0.3561
				c0-0.9652-1.5-0.9668-1.5,0c0,0.1187,0,0.2374,0,0.3561c0,0.9652,1.5,0.9668,1.5,0c0-4.3479,0-8.6957,0-13.0436
				C109.5123,78.4762,108.0123,78.4746,108.0123,79.4414L108.0123,79.4414z"/>
		</g>
	</g>
	<g>
		<g>
			<path class="st2" d="M72.482,76.9736c-0.5902,0.625-1.1805,1.25-1.7708,1.875c-0.6626,0.7015,0.3962,1.7642,1.0607,1.0607
				c0.5903-0.625,1.1806-1.25,1.7708-1.875C74.2052,77.3326,73.1464,76.27,72.482,76.9736L72.482,76.9736z"/>
		</g>
	</g>
	<g>
		<g>
			<path class="st2" d="M70.4498,79.4414c0,4.6597,0,9.3195,0,13.9792c0,0.9652,1.5,0.9668,1.5,0c0-0.1272,0-0.2545,0-0.3817
				c0-0.9652-1.5-0.9668-1.5,0c0,0.1272,0,0.2545,0,0.3817c0,0.9652,1.5,0.9668,1.5,0c0-4.6597,0-9.3195,0-13.9792
				C71.9498,78.4762,70.4498,78.4746,70.4498,79.4414L70.4498,79.4414z"/>
		</g>
	</g>
	<g>
		<path class="st1" d="M140.2107,66.5607c-1.3807-1.433-3.1158-2.0642-4.8554-2.9437c-0.8335-0.4214-1.5476-0.9728-2.3369-1.4604
			c-0.5782-0.3573-1.6249-0.5914-2.3338-0.9617c0.5819-1.342,1.8475-2.421,2.4763-3.685c1.2874,0.7408,2.7437,1.223,3.7122,2.2976
			c0.8574,0.9514,2.2001-0.5215,1.3464-1.4686c-1.3797-1.531-3.539-1.807-5.0255-3.255c-0.5904-0.5752-1.7535-0.0923-1.6691,0.765
			c0.084,0.8525-1.314,1.9485-1.7443,2.7032c-0.3782,0.6634-0.9783,1.6823-1.1276,2.4292c-0.15,0.7503-0.1259,1.1214,0.5272,1.6244
			c0.6013,0.4632,1.6472,0.6157,2.3169,0.9586c0.8184,0.4189,1.5158,1.042,2.3154,1.4961c1.7425,0.9894,3.6224,1.4855,5.0518,2.969
			C139.7541,68.9528,141.0991,67.4826,140.2107,66.5607z"/>
	</g>
	<g>
		<path class="st1" d="M144.94,61.8622c-1.2849,0-1.2189,1.9917,0.0613,1.9917C146.2863,63.8539,146.2204,61.8622,144.94,61.8622z"
			/>
	</g>
	<g>
		<path class="st1" d="M141.3568,67.8206c-1.285,0-1.219,1.9917,0.0613,1.9917C142.7029,69.8123,142.6369,67.8206,141.3568,67.8206z
			"/>
	</g>
	<g>
		<g>
			<path class="st1" d="M144.6373,62.6366c-0.4284-0.6209-1.0712-0.9295-1.7782-1.1434c0.0042-0.0808,0.0231-0.1539,0.0124-0.2422
				c-0.0357-0.2323-0.1487-0.4015-0.2977-0.5752c-0.3365-0.391-0.7697-0.3762-1.1074-0.1722
				c-1.2849-1.0236-3.0516-1.6219-4.6335-2.1792c-0.954-0.6632-2.0159-1.1902-2.9579-1.8765
				c-0.3358-0.2444-0.7722-0.1738-1.0809,0.0619c-0.4107-0.0084-0.8406,0.2311-0.9867,0.6464
				c-0.399,1.1263-1.0998,2.0364-1.3447,3.2135c-0.1693,0.1276-0.3427,0.2563-0.5211,0.3884
				c-0.4367,0.3228-0.3443,0.9751-0.0488,1.3415c1.0265,1.2677,2.6747,1.8554,4.1031,2.5444
				c1.817,0.8782,3.5329,1.7489,5.3797,2.5241c0.126,0.6481,0.391,1.2599,0.7847,1.7349c0.3117,0.374,1.0087,0.4169,1.3424,0.0467
				c1.3611-1.5021,2.1691-3.5819,3.0989-5.3573C144.7482,63.3131,144.8353,62.9242,144.6373,62.6366z"/>
		</g>
		<g>
			<g>
				<path class="st2" d="M127.8842,62.7062c5.5645,3.3353,11.1301,6.6687,16.6955,10.0024
					c0.8302,0.4973,1.5853-0.7991,0.7571-1.2952c-5.5654-3.3337-11.131-6.6671-16.6955-10.0024
					C127.8113,60.9135,127.0562,62.2099,127.8842,62.7062L127.8842,62.7062z"/>
			</g>
		</g>
		<g>
			<g>
				<path class="st2" d="M131.0922,54.8807c6.2018,3.6398,12.4037,7.2796,18.6054,10.9196c0.8343,0.4897,1.59-0.8063,0.7571-1.2952
					c-6.2017-3.64-12.4036-7.2798-18.6054-10.9196C131.015,53.0959,130.2593,54.3919,131.0922,54.8807L131.0922,54.8807z"/>
			</g>
		</g>
	</g>
	<g>
		<g>
			
				<ellipse transform="matrix(0.97 -0.2432 0.2432 0.97 -12.2108 37.8226)" class="st3" cx="147.0667" cy="68.3618" rx="4.8544" ry="4.8536"/>
			<path class="st4" d="M147.0551,73.7177c-0.9561,0-1.8984-0.2588-2.7402-0.7637c-1.2266-0.7344-2.0938-1.9033-2.4414-3.29
				c-0.3477-1.3877-0.1348-2.8276,0.6006-4.0547c0.7354-1.2266,1.9033-2.0938,3.291-2.4404
				c2.8594-0.7207,5.7783,1.0278,6.4961,3.8906c0.7168,2.8633-1.0293,5.7764-3.8945,6.4951
				C147.932,73.664,147.4926,73.7177,147.0551,73.7177z M147.0658,64.0077c-0.3496,0-0.7041,0.0425-1.0586,0.1309
				c-1.1279,0.2822-2.0781,0.9873-2.6758,1.9849s-0.7705,2.1689-0.4873,3.2974c0.2822,1.1279,0.9873,2.0781,1.9844,2.6758
				c0.998,0.5977,2.1689,0.7715,3.2949,0.4873c2.3301-0.584,3.751-2.9531,3.167-5.2813
				C150.7963,65.3285,149.017,64.0077,147.0658,64.0077z"/>
		</g>
		<g>
			<path class="st5" d="M150.155,76.8919c0.1699,0.6833-0.2444,1.3755-0.9284,1.5475l0,0c-0.6818,0.1715-1.3754-0.2443-1.5461-0.927
				l-1.1973-4.7756c-0.1713-0.6845,0.2432-1.3768,0.927-1.5475l0,0c0.6832-0.1713,1.3761,0.2438,1.5468,0.9277L150.155,76.8919z"/>
			<path class="st4" d="M148.9135,78.9784c-0.3164,0-0.6289-0.0859-0.9082-0.2529c-0.4072-0.2432-0.6953-0.6309-0.8105-1.0918
				l-1.1973-4.7744c-0.1152-0.4619-0.0439-0.9395,0.1992-1.3457c0.2441-0.4072,0.6318-0.6948,1.0928-0.8096
				c0.457-0.1157,0.9365-0.0439,1.3438,0.1997s0.6943,0.6318,0.8096,1.0923l1.1973,4.7744c0.2354,0.9492-0.3438,1.916-1.291,2.1543
				C149.2045,78.9609,149.059,78.9784,148.9135,78.9784z M147.722,71.6508c-0.0635,0-0.127,0.0078-0.1895,0.0234
				c-0.2021,0.0503-0.3711,0.1753-0.4775,0.353s-0.1377,0.3867-0.0869,0.5889l1.1973,4.7744
				c0.0498,0.2012,0.1758,0.3711,0.3535,0.4775c0.1777,0.1055,0.3867,0.1377,0.5859,0.0859
				c0.4141-0.1035,0.668-0.5264,0.5645-0.9414l-1.1973-4.7734c-0.0498-0.2021-0.1758-0.3711-0.3535-0.4775
				C147.9965,71.6884,147.8607,71.6508,147.722,71.6508z"/>
		</g>
		<g>
			<path class="st5" d="M156.0668,72.0667c0.5913,0.384,0.7582,1.1734,0.3722,1.7652l0,0
				c-0.3837,0.5898-1.1745,0.7539-1.7651,0.3708l-4.1231-2.689c-0.5911-0.3866-0.7573-1.1754-0.3714-1.7658l0,0
				c0.3845-0.5891,1.1739-0.756,1.765-0.3708L156.0668,72.0667z"/>
			<path class="st4" d="M155.3685,74.9091c-0.332,0-0.667-0.0928-0.9658-0.2861l-4.125-2.6904
				c-0.8203-0.5366-1.0527-1.6392-0.5176-2.458c0.5342-0.8179,1.6377-1.0488,2.457-0.5171l4.1221,2.6895
				c0.3984,0.2593,0.6709,0.6567,0.7695,1.1206c0.0977,0.4639,0.0088,0.9385-0.251,1.3379
				C156.5189,74.6249,155.9496,74.9091,155.3685,74.9091z M151.2484,69.6703c-0.2529,0-0.502,0.1235-0.6504,0.3511
				c-0.2344,0.3574-0.1318,0.8394,0.2266,1.0737l4.123,2.689c0.3564,0.2334,0.8408,0.1328,1.0723-0.2246
				c0.1143-0.1748,0.1533-0.3828,0.1104-0.5859c-0.043-0.2012-0.1621-0.375-0.3359-0.4883h-0.001l-4.1221-2.6895
				C151.5414,69.7109,151.3939,69.6703,151.2484,69.6703z"/>
		</g>
	</g>
	<g>
		<path class="st0" d="M130.5171,52.3919c-0.0364-0.2504-0.1766-0.4133-0.3505-0.5043c0.2966-0.861-0.1306-2.1101-0.5327-2.8149
			c-0.6601-1.1519-1.5522-2.0351-2.6474-2.6893c-0.0076-0.0168-0.0131-0.0357-0.022-0.0499
			c-0.8291-1.372-3.2537-3.3129-4.9567-3.3596c-2.1331-0.0576-3.8883,0.8901-5.4492,2.1645
			c-1.3087,0.1386-2.7027,1.0808-3.2179,2.2567c-0.3025-0.1505-0.6866-0.1052-0.8899,0.2843
			c-0.5333,1.0188-1.0099,2.0201-1.3657,3.0589c-0.6196,0.3835-0.6841,1.4902-0.6667,2.3853
			c-0.1651,0.0945-0.2945,0.2425-0.3199,0.4315c-0.1965,1.4707,0.74,3.3407,1.7636,4.9013c-0.1398,0.2-0.1669,0.4594,0.0326,0.714
			c2.7442,3.502,6.3637,6.0888,10.9925,4.3143c0.2375,0.2023,0.6099,0.2381,0.8893,0.0544
			c1.5986-1.0373,3.1172-1.9547,4.2222-3.3302c0.0832-0.0552,0.1609-0.1266,0.2136-0.228c1.3881-0.0854,1.703-1.8546,1.9395-3.0133
			c0.0183-0.0883,0.0097-0.1786-0.0087-0.265c0.1937-0.7866,0.2352-1.599,0.1141-2.3894c0.1885-0.0803,0.3291-0.2493,0.3335-0.5318
			C130.5993,53.2192,130.5946,52.9453,130.5171,52.3919z M123.7626,56.3215c-0.3389,0.5263-0.9431,0.8083-1.5347,0.7159
			c-0.2119,0.1023-0.4011,0.2602-0.5461,0.515c-0.4998,0.0998-0.9983,0.2008-1.4876,0.3424
			c-0.0568-0.0258-0.1158-0.0526-0.1748-0.0792c-0.6242-0.4703-1.3189-0.808-1.8004-0.7809
			c-0.1581,0.0113-0.2978,0.0785-0.4118,0.1768c-0.3342-0.4822-0.678-0.962-0.9965-1.4517
			c-0.2053-0.5181-0.4297-1.028-0.6628-1.5315c0.055-0.0398,0.1093-0.0817,0.1535-0.1475c0.0338-0.0484,0.0648-0.1086,0.0982-0.1604
			l0.0007,0.0007c0.0051-0.0087,0.0083-0.0183,0.0121-0.0258c0.6344-1.0518,1.1473-2.7151,2.3657-3.0876
			c0.3004-0.0916,0.4159-0.3515,0.4052-0.62c0.8432,0.1921,1.7321,0.2891,2.4785,0.4363c0.2284,0.045,0.415-0.0244,0.5556-0.1429
			c0.2929,0.2323,0.595,0.4545,0.9065,0.6564c0.0486,0.1928,0.0926,0.3883,0.1365,0.5839c0.2722,0.1286,0.5178,0.3324,0.7104,0.5899
			C124.7847,53.3989,124.4516,55.2517,123.7626,56.3215z"/>
	</g>
	<g>
		<path class="st6" d="M117.2945,64.6169c-0.1628-0.0734-0.3217-0.1554-0.4771-0.2395c-0.3022-0.3204-0.6743-0.574-1.0611-0.7915
			c-0.2557-0.147-0.54,0.0676-0.5398,0.3088c-1.0585-1.1799-1.8816-2.3665-2.4676-3.6222
			c-0.0338-0.0325-0.0717-0.0522-0.1038-0.0957c-1.3294-1.8432-1.6368-4.2711-1.6427-6.4907
			c-0.0068-2.2293,0.1041-5.0478,1.7077-6.774c0.3846-0.4142,0.9311-0.1974,1.1359,0.1873c1.201-1.8151,2.9108-3.209,5.1732-3.6879
			c0.8941-0.1887,1.1797,1.205,0.284,1.3833c-3.7282,0.7525-5.263,4.3048-5.9964,7.6554c-1.054,4.796,0.6178,8.327,3.9941,11.5788
			c0.233,0.2233,0.248,0.4908,0.1491,0.7181C117.413,64.6938,117.3652,64.6475,117.2945,64.6169z"/>
	</g>
	<g>
		<path class="st2" d="M120.6752,65.2406c-0.1641,0-0.3291-0.0034-0.4941-0.0107c-3.0303-0.1289-5.8291-1.4302-7.8809-3.6646l0,0
			c-2.0518-2.2339-3.1104-5.1333-2.9824-8.1636c0.1289-3.0308,1.4297-5.8301,3.665-7.8823
			c2.2334-2.0513,5.1113-3.1182,8.1641-2.9814c3.0303,0.1289,5.8291,1.4302,7.8809,3.6641
			c2.0518,2.2344,3.1113,5.1338,2.9824,8.1641c-0.1289,3.0308-1.4307,5.8296-3.665,7.8813
			C126.2328,64.1879,123.5258,65.2406,120.6752,65.2406z M120.6527,44.0273c-2.4736,0-4.8232,0.9136-6.6553,2.5967
			c-1.9395,1.7813-3.0693,4.2109-3.1807,6.8413s0.8076,5.1465,2.5889,7.0854l0,0c1.7803,1.9395,4.209,3.0688,6.8389,3.1807
			c2.6396,0.1152,5.1475-0.8071,7.0869-2.5884c1.9385-1.7813,3.0684-4.2104,3.1797-6.8403
			c0.1123-2.6299-0.8076-5.1465-2.5889-7.0859c-1.7803-1.939-4.209-3.0679-6.8398-3.1802
			C120.9388,44.0307,120.7963,44.0273,120.6527,44.0273z"/>
	</g>
	<g>
		<path class="st2" d="M120.5443,58.8652c-1.2939,0-2.583-0.52-3.5254-1.5454c-1.7832-1.9419-1.6543-4.9736,0.2881-6.7578
			c0.9424-0.8643,2.1719-1.3071,3.4385-1.2563c1.2764,0.0537,2.4561,0.6021,3.3203,1.543c1.7832,1.9419,1.6543,4.9736-0.2871,6.7583
			C122.8607,58.4491,121.7006,58.8652,120.5443,58.8652z M120.5424,50.8027c-0.7949,0-1.5908,0.2856-2.2197,0.8638
			c-1.334,1.2251-1.4229,3.3057-0.1982,4.6387c1.2246,1.3335,3.3057,1.4219,4.6396,0.1973c1.332-1.2251,1.4209-3.3062,0.1963-4.6392
			C122.3148,51.1596,121.4291,50.8027,120.5424,50.8027z"/>
	</g>
	<g>
		<path class="st5" d="M156.6851,65.3999c0.6995,0.0774,1.2042,0.7078,1.1267,1.4088l0,0c-0.0788,0.6995-0.7105,1.2028-1.41,1.124
			l-4.8925-0.5439c-0.7002-0.0795-1.2049-0.71-1.1253-1.4087l0,0c0.0774-0.701,0.7077-1.2043,1.4087-1.1269L156.6851,65.3999z"/>
		<path class="st4" d="M156.5482,68.4408c-0.0674,0-0.1348-0.0039-0.2031-0.0112l-4.8916-0.5439
			c-0.4727-0.0537-0.8965-0.2881-1.1924-0.6597c-0.2949-0.3706-0.4277-0.8335-0.374-1.3032
			c0.0518-0.4692,0.2842-0.8921,0.6553-1.1885c0.3701-0.2964,0.835-0.4326,1.3047-0.3779l4.8926,0.5464
			c0.9727,0.1079,1.6768,0.9873,1.5693,1.9604c-0.0537,0.4727-0.2871,0.895-0.6582,1.1904
			C157.3334,68.3066,156.9476,68.4408,156.5482,68.4408z M151.6498,65.3456c-0.1758,0-0.3447,0.0586-0.4834,0.1694
			c-0.1611,0.1294-0.2627,0.3135-0.2852,0.5195c-0.0234,0.2061,0.0342,0.4072,0.1621,0.5684
			c0.1299,0.1631,0.3154,0.2656,0.5215,0.2886l4.8926,0.5439c0.2051,0.0259,0.4082-0.0342,0.5703-0.1641
			c0.1621-0.1289,0.2637-0.3135,0.2871-0.519c0.0469-0.4238-0.2607-0.8086-0.6855-0.8555l-4.8926-0.5464
			C151.7074,65.3471,151.6791,65.3456,151.6498,65.3456z"/>
	</g>
	<g>
		<path class="st14" d="M98.2983,41.8163c-0.1218-0.4037-0.5174-0.6117-0.9225-0.5239c-1.0807,0.2345-1.6182,1.8255-2.0051,3.3738
			c-0.3303,0.6154-0.6606,1.2309-0.9908,1.8463c-0.5649,0.9566-1.2334,1.8915-1.6823,2.9117
			c-0.1073,0.1854-0.2145,0.3711-0.3217,0.5565c-2.5021-1.3092-5.9037-0.4316-8.4052,0.6274
			c-0.2028-0.6224-0.6992-2.0036-0.9021-2.6297c-0.1599-0.6062-0.3211-1.2115-0.4509-1.8305
			c-0.0791-0.3776-0.3374-0.5356-0.6147-0.5389l-0.0466-2.5081c-0.0179-0.9642-1.518-0.9673-1.5,0
			c0.0454,2.4454,0.0909,4.8908,0.1364,7.3363c0.0258,1.3906-0.1611,3.0149,0.1425,4.4356
			c-0.3348,0.2628-0.481,0.7573-0.0855,1.0912c0.8449,0.7133,1.7244,1.3201,2.6564,1.8825
			c0.0771,0.1711,0.2216,0.3105,0.4656,0.3564c0.0461,0.0087,0.0973,0.0121,0.1445,0.0197
			c0.0346,0.0191,0.0645,0.0421,0.0993,0.0612c0.2415,0.132,0.4708,0.1162,0.66,0.0226c0.9985,0.0714,2.0968,0.0668,2.9608,0.4323
			c0.0941,0.1736,0.2317,0.3232,0.4067,0.3949c0.07,0.0288,0.1402,0.0575,0.2102,0.0862c0.0539,0.0221,0.0994,0.0184,0.1494,0.0278
			c0.0347,0.0346,0.075,0.0608,0.1078,0.0983c0.1734,0.1981,0.4844,0.2591,0.7297,0.1929c0.0325-0.0088,0.065-0.0176,0.0974-0.0263
			c0.2333-0.0631,0.4804-0.2746,0.5238-0.5239c0.004-0.0228,0.008-0.0455,0.0119-0.0683c0.355-0.053,0.7099-0.1058,1.0649-0.1587
			c1.601,0.12,3.6583-0.1557,4.7697-0.9695c0.1889-0.1384,0.3517-0.3005,0.5022-0.4731c0.3941,0.2852,1.0832,0.2123,1.1966-0.3663
			l0.2754-0.4325c0.2126-0.1664,0.2433-0.4889,0.1929-0.7298c-0.2881-1.3777-0.1232-2.5584,0.0073-3.9236
			c0.0191-0.1997-0.047-0.3586-0.1553-0.4788c0.0758-1.7514,0.1363-3.5036,0.1928-5.2563c0.0043-0.1311-0.0349-0.2406-0.0902-0.3394
			c0.0533-0.472,0.1153-0.9454,0.208-1.4266C98.2165,43.4391,98.5721,42.7231,98.2983,41.8163z"/>
	</g>
	<g>
		<polyline class="st15" points="96.2207,42.0248 95.0957,58.2331 97.4707,57.3581 98.2207,41.2331 95.1791,44.4414 		"/>
	</g>
	<g>
		<polyline class="st16" points="80.3041,41.8164 80.2207,56.9414 82.9915,57.7539 83.0854,47.6446 80.6373,42.1914 		"/>
	</g>
	<g>
		<polygon class="st16" points="87.5123,58.5456 88.6998,54.1081 89.0123,60.0248 		"/>
	</g>
	<g>
		<g>
			<path class="st2" d="M80.1256,57.4908c2.2226,1.4845,4.7556,2.232,7.4271,2.214c0.9649-0.0065,0.967-1.5065,0-1.5
				c-2.4313,0.0163-4.6483-0.6589-6.6701-2.0092C80.0777,55.658,79.3259,56.9567,80.1256,57.4908L80.1256,57.4908z"/>
		</g>
	</g>
	<g>
		<g>
			<path class="st2" d="M87.0594,59.3533c0.3243,0.477,0.6815,0.9308,1.0058,1.4078c0.5396,0.7938,1.8398,0.0442,1.2952-0.7571
				c-0.3243-0.477-0.6815-0.9308-1.0058-1.4078C87.8151,57.8025,86.5148,58.5521,87.0594,59.3533L87.0594,59.3533z"/>
		</g>
	</g>
	<g>
		<g>
			<path class="st2" d="M89.1495,61.0241c0.5435-0.4142,1.0871-0.8284,1.6307-1.2426c0.3246-0.2473,0.4869-0.6434,0.2691-1.0261
				c-0.1817-0.3192-0.7046-0.5141-1.0261-0.2691c-0.5436,0.4142-1.0872,0.8284-1.6307,1.2426
				c-0.3246,0.2473-0.4869,0.6434-0.2691,1.0261C88.305,61.0742,88.828,61.2691,89.1495,61.0241L89.1495,61.0241z"/>
		</g>
	</g>
	<g>
		<g>
			<path class="st2" d="M90.5228,59.7673c2.6169-0.0428,5.1069-0.622,7.487-1.7064c0.8772-0.3997,0.1157-1.6929-0.7571-1.2952
				c-2.1355,0.9729-4.3853,1.4633-6.73,1.5016C89.5585,58.2831,89.5555,59.7831,90.5228,59.7673L90.5228,59.7673z"/>
		</g>
	</g>
	<g>
		<g>
			<path class="st2" d="M80.8457,56.2331c0-5.7639,0-11.5278,0-17.2917c0-0.9652-1.5-0.9668-1.5,0c0,5.7639,0,11.5278,0,17.2917
				C79.3457,57.1983,80.8457,57.1999,80.8457,56.2331L80.8457,56.2331z"/>
		</g>
	</g>
	<g>
		<g>
			<path class="st2" d="M79.5203,39.1598c1.153,3.6674,2.3059,7.3349,3.4588,11.0023c0.2885,0.9177,1.7371,0.5258,1.4464-0.3988
				c-1.1529-3.6674-2.3058-7.3349-3.4588-11.0023C80.6782,37.8433,79.2297,38.2352,79.5203,39.1598L79.5203,39.1598z"/>
		</g>
	</g>
	<g>
		<g>
			<path class="st2" d="M98.9291,57.0664c0-6,0-12,0-18c0-0.9652-1.5-0.9668-1.5,0c0,6,0,12,0,18
				C97.4291,58.0316,98.9291,58.0332,98.9291,57.0664L98.9291,57.0664z"/>
		</g>
	</g>
	<g>
		<g>
			<path class="st2" d="M97.49,38.2883c-1.8784,3.5342-3.7569,7.0684-5.6353,10.6026c-0.4528,0.852,0.8415,1.6107,1.2952,0.7571
				c1.8784-3.5342,3.7569-7.0684,5.6353-10.6026C99.2381,38.1933,97.9438,37.4346,97.49,38.2883L97.49,38.2883z"/>
		</g>
	</g>
	<g>
		<circle class="st7" cx="85.0541" cy="54.4727" r="1.2188"/>
	</g>
	<g>
		<circle class="st7" cx="93.2728" cy="54.6289" r="1.2187"/>
	</g>
	<g>
		<circle class="st10" cx="84.8197" cy="54.2539" r="0.4688"/>
	</g>
	<g>
		<circle class="st10" cx="93.0541" cy="54.3008" r="0.4688"/>
	</g>
</g>
</svg>
