<svg xmlns="http://www.w3.org/2000/svg" viewBox="0 0 899.21 1415.66"><defs><style>.cls-1{fill:none;}.cls-2{fill:#27aae1;}.cls-3{fill:#333;}</style></defs><title>gitcoin_avatar2</title><g id="EARS"><path class="cls-1" d="M-132.48-77.59h603.7v241.5h-603.7Z"/></g><g id="ACCESSORIES"><g id="ACC_-_Glasses" data-name="ACC - Glasses"><path class="cls-2" d="M667,700.62l-2.46-8c-2-6.63-4.44-13.28-7.16-19.78a204.29,204.29,0,0,0-31.65-53.65,218.6,218.6,0,0,0-41.39-38.78c-21.35-15-40.65-22.62-54.75-28.19-18.14-7.16-35.27-13.92-58.5-16.65-8.7-1-27.32-2.14-54.36,1.82-51.65,7.55-89.24,27.06-107.06,38-37.32,23-79.69,72.55-84.75,78.54l-24.08,48.54c26,8.09,64.56,17,100.79,23.06,74.19,12.43,150.9,25.29,247,29.63,37.55,1.69,81.85,3.27,135.57.92l-17-55.45Z"/><path class="cls-2" d="M70.83,647.28c-7.31.59-23,2.35-27.79,6.89,5.43,3.68,22.2,12.43,72.17,27.21,21.24,6.28,42.64,12,59.26,16.19l22.32-45C136.6,646.92,96.24,645.24,70.83,647.28Z"/><path class="cls-2" d="M830.21,719.76c-17.77-4.46-43.46-8.21-78.86-11.47l0,.21L728,706.33q-15.42-1.2-32.93-2.3l15.81,51.62c17.88-1.6,44-4.17,70-7.65,52.89-7.08,70.39-13.37,75.89-16.13C853.42,726.36,839.19,722,830.21,719.76Z"/><path class="cls-2" d="M295.15,555.11c19.55-12,60.77-33.42,117.22-41.68,30.19-4.42,51.57-3.1,61.62-1.92,26.83,3.14,46.46,10.89,65.44,18.39,14.5,5.73,36.4,14.37,60.35,31.2a245.4,245.4,0,0,1,46.47,43.48,227.27,227.27,0,0,1,35.29,59.68c1.91,4.57,3.68,9.22,5.3,13.88l33.91,3.17c-4.14-34.62-6.49-90.75-6.65-159.93,0-11.3,0-20.26.07-27.45.14-23.55.09-27.73-2.53-37.13-3.16-11.41-14.2-41-48.17-69.21-16.87-14-44.08-30.4-154.08-47.42-104.52-16.17-162-7.74-191.76,2.19-17.39,5.79-30.79,13.72-42.18,25-11,10.87-20.13,25.31-27.84,44.12C223.19,471,206.2,589.61,201.39,626l16.52,1.22C229,613.24,259.53,577,295.15,555.11Z"/><path class="cls-3" d="M836.75,696.28c-20.12-5-49.17-9.22-89.42-12.76-4.33-32.76-6.9-91.3-7.07-161.9,0-11.22,0-20.12.07-27.27.15-24.14.18-30.63-3.36-43.37-3.77-13.59-16.8-48.71-56.2-81.45-20.54-17.07-50.39-35.26-167.38-53.36C425,302.5,356.1,303.6,308.54,319.44c-21.36,7.12-38,17-52.23,31.07-13.38,13.21-24.23,30.22-33.17,52-25.7,62.71-43.22,186-47.9,221.53l-.28,0-.16,2.17c-48.79-4-83.21-5.05-106.53-3.18-13.58,1.09-49.66,4-52.66,30.86-1.5,13.41,14.06,22.18,29.48,29C57.94,688.59,76.07,695,99,702c26,7.93,57.71,16.45,94.18,25.33,27.29,8.46,67,17.65,104.13,23.86,60.9,10.21,123.46,20.69,197.14,26.63q25.51,2.06,52.94,3.33c40.15,1.81,87.92,3.5,146.73.51v-.13l.88,0c38.14-3.14,71.36-6.71,98.73-10.61,23.75-3.38,42.7-7,56.32-10.66,16.26-4.42,33-10.76,33.65-24.32C885.05,708.4,850,699.59,836.75,696.28Zm-662.28,1.29c-16.62-4.24-38-9.91-59.26-16.19-50-14.78-66.74-23.53-72.17-27.21,4.8-4.54,20.48-6.3,27.79-6.89,25.41-2,65.77-.36,126,5.3Zm73.14-286.13c7.71-18.81,16.82-33.25,27.84-44.12,11.39-11.24,24.79-19.17,42.18-25,29.79-9.93,87.24-18.36,191.76-2.19,110,17,137.21,33.4,154.08,47.42,34,28.23,45,57.8,48.17,69.21,2.62,9.4,2.67,13.58,2.53,37.13,0,7.19-.1,16.15-.07,27.45.16,69.18,2.51,125.31,6.65,159.93l-33.91-3.17c-1.62-4.66-3.39-9.31-5.3-13.88a227.27,227.27,0,0,0-35.29-59.68,245.4,245.4,0,0,0-46.47-43.48c-23.95-16.83-45.85-25.47-60.35-31.2-19-7.5-38.61-15.25-65.44-18.39-10.05-1.18-31.43-2.5-61.62,1.92-56.45,8.26-97.67,29.66-117.22,41.68C259.53,577,229,613.24,217.91,627.22L201.39,626C206.2,589.61,223.19,471,247.61,411.44ZM548.53,755.17c-96-4.34-172.76-17.2-246.95-29.63-36.23-6.07-74.81-15-100.79-23.06l24.08-48.54c5.06-6,47.43-55.59,84.75-78.54,17.82-11,55.41-30.47,107.06-38,27-4,45.66-2.84,54.36-1.82,23.23,2.73,40.36,9.49,58.5,16.65,14.1,5.57,33.4,13.19,54.75,28.19a218.6,218.6,0,0,1,41.39,38.78,204.29,204.29,0,0,1,31.65,53.65c2.72,6.5,5.12,13.15,7.16,19.78l2.46,8,.18,0,17,55.45C630.38,758.44,586.08,756.86,548.53,755.17ZM780.9,748c-26,3.48-52.1,6-70,7.65L695.11,704q17.52,1.11,32.93,2.3l23.29,2.17,0-.21c35.4,3.26,61.09,7,78.86,11.47,9,2.26,23.21,6.6,26.58,12.11C851.29,734.63,833.79,740.92,780.9,748Z"/></g></g></svg>