<svg xmlns="http://www.w3.org/2000/svg" viewBox="0 0 899.21 1415.66"><defs><style>.cls-1{fill:#f3e96e;}.cls-2{fill:#58b6e7;}.cls-3{fill:#d1946a;}.cls-4{fill:#c9c9c8;}.cls-5{fill:#333;}</style></defs><title>gitcoin_avatar2</title><g id="BODY"><path class="cls-1" d="M772.92,689.1c7.1,12.72,10.06,23,14.15,37.17q2.74,9.51,4.83,19.15l11-88-37.41,19A102.65,102.65,0,0,1,772,687.3C772.3,688,772.62,688.56,772.92,689.1Z"/><path class="cls-1" d="M264.33,824.76V610a326.49,326.49,0,0,0-63.39,39.61v13.76h51.49v60.56a8,8,0,1,1-16,0V679.45H194.25l-6.35,2.15,19.3,32.34,21.48,52.8v58.1Z"/><path class="cls-1" d="M667.28,770l5.26-18.1-7.79-3.41c-5.92-3.22-20.15-12.59-24.31-30-5.62-23.58,12.1-43.9,23.45-52.2,13-9.49,27-11.31,36.16-11.23l3.13-11.27c-8.83-5.38-19.12-11.08-31.16-17.07-9.81-4.89-23.25-10.31-38.44-15.92V823.88l25.48-.06Z"/><path class="cls-2" d="M684.18,769.24l27.61,25.55v28.9l70.36-.16.09-.71q.16-3.21.25-6.39l-.49-.2.52-1.29a279.4,279.4,0,0,0-10.82-84.19c-3.93-13.66-6.53-22.68-12.73-33.77-.35-.63-.72-1.32-1.12-2.08-4-7.42-11.74-22-40.59-42l-16.09,57.89Z"/><path class="cls-3" d="M695.54,671.31a43.23,43.23,0,0,0-22.25,8c-.21.16-21.86,16.23-17.29,35.43,2.59,10.86,11.88,17.13,16.07,19.46l5,2.17,8.73-30Z"/><polygon class="cls-1" points="826.43 613.32 820.6 644.65 806.92 754.24 860.02 622.14 826.43 613.32"/><path class="cls-2" d="M545.49,746.65c-25.89,4.46-45.2,16.93-57.2,27.06l-21.6,50.57,150.89-.36V758A109.19,109.19,0,0,0,597,749.44,116.07,116.07,0,0,0,545.49,746.65Z"/><polygon class="cls-2" points="675.25 822.78 695.79 822.73 695.79 800.85 680.73 786.92 675.25 822.78"/><path class="cls-4" d="M184.94,663.3c-1.33,1.22-2.67,2.44-4,3.68l4-1.35Z"/><path class="cls-2" d="M192.86,721.17,168.1,679.68c-2.48,2.53-5.07,5.24-7.74,8.13l-1.06,2.12-.59-.3c-13.71,15.17-29,35.46-40.44,63.47A215.75,215.75,0,0,0,103,817.65l.33,1.15-.43.12q-.22,3.11-.38,6.22l77.35-.18V788.15l29.22-27Z"/><path class="cls-1" d="M143.91,682.1,98,658.71V761.92q2.49-7.54,5.48-14.92A226.29,226.29,0,0,1,143.91,682.1Z"/><path class="cls-4" d="M369.18,714.48l49.95,13.39h37.78l53.5-8.7,43.71-14.32,25.35-22.12L588.34,661V604.73c-11,18.81-30.1,43.19-61.41,59.94-40.58,21.7-79,18.25-93.51,17-12.88-1.15-39.68-3.56-68.06-20.52a147,147,0,0,1-46.47-44.57v48.72l12.4,24.37Z"/><polygon class="cls-2" points="195.91 824.92 212.68 824.88 212.68 779.73 195.91 795.22 195.91 824.92"/><polygon class="cls-1" points="81.98 743.28 81.98 638.76 82.26 638.76 82.26 619.92 49.49 628.52 81.98 743.28"/><path class="cls-2" d="M354.72,730.8c30.54,5.26,52.93,20.26,66.34,31.93l1.39,1.2,25.8,60.39h1l25.8-60.39,1.39-1.2c13.41-11.67,35.8-26.67,66.34-31.93A130.46,130.46,0,0,1,601.63,734a123.45,123.45,0,0,1,16,6V605c-4.34-1.53-8.77-3.07-13.24-4.61v63.73l-11.51,28.21-30.67,26.77-48,15.71-.61.1-55.38,9H417l-54.45-14.6L319,700.76l-16.09-31.63v-74.5L298.23,596q-9.11,3.24-17.9,6.9v137A125.72,125.72,0,0,1,295.88,734,130.43,130.43,0,0,1,354.72,730.8Z"/><path class="cls-2" d="M409.21,773.71c-12-10.13-31.3-22.6-57.19-27.06a116,116,0,0,0-51.55,2.79,110.29,110.29,0,0,0-20.14,8.35v66.93l150.52-.36Z"/><path class="cls-5" d="M280.33,840.81h0l516.76-1.23.58-7.39c.21-2.63.37-5.26.51-7.88l1-7.81,82.53-205.3-67.82-17.8-7.65,41.09-.46-.06-.47,3.74-50.22,25.58c-12.88-13.58-35.24-31.17-75.94-51.44-20.18-10-54.16-21.95-87.88-33.32l-6.84-2.3-3,6.6c-7.56,16.75-25.68,47.75-62,67.17S448,666.78,434.84,665.6c-12.6-1.13-36-3.23-61.3-18.33-32.93-19.68-48.9-49.93-55.48-66.22l-2.7-6.66-21.71,6.15-.49.15c-49.88,17.66-93.37,44.74-129.28,80.49-2.68,2.67-5.57,5.55-8.61,8.67l-57-29V599.09l-68.64,18L86.88,819.32c-.31,4.58-.5,9.18-.54,13.8l-.08,8.15,169.9-.41ZM820.6,644.65l5.83-31.33L860,622.14l-53.1,132.1Zm-203,179.27-150.89.36,21.6-50.57c12-10.13,31.31-22.6,57.2-27.06A116.07,116.07,0,0,1,597,749.44,109.19,109.19,0,0,1,617.58,758Zm78.21-.19-20.54,0,5.48-35.86,15.06,13.93Zm-23.72-89.52c-4.19-2.33-13.48-8.6-16.07-19.46-4.57-19.2,17.08-35.27,17.29-35.43a43.23,43.23,0,0,1,22.25-8l-9.75,35.08-8.73,30Zm130.81-76.78-11,88q-2.1-9.64-4.83-19.15c-4.09-14.2-7.05-24.45-14.15-37.17-.3-.54-.62-1.14-1-1.8a102.65,102.65,0,0,0-6.48-10.83Zm-45,37.47c.4.76.77,1.45,1.12,2.08,6.2,11.09,8.8,20.11,12.73,33.77a279.4,279.4,0,0,1,10.82,84.19l-.52,1.29.49.2q-.09,3.18-.25,6.39l-.09.71-70.36.16v-28.9l-27.61-25.55,17-58.43,16.09-57.89C746.11,672.91,753.88,687.48,757.85,694.9ZM633.58,610.81c15.19,5.61,28.63,11,38.44,15.92,12,6,22.33,11.69,31.16,17.07l-3.13,11.27c-9.17-.08-23.17,1.74-36.16,11.23-11.35,8.3-29.07,28.62-23.45,52.2,4.16,17.43,18.39,26.8,24.31,30l7.79,3.41L667.28,770l-8.22,53.79-25.48.06Zm-314.69,5.72a147,147,0,0,0,46.47,44.57c28.38,17,55.18,19.37,68.06,20.52,14.47,1.3,52.93,4.75,93.51-17,31.31-16.75,50.44-41.13,61.41-59.94V661l-8.87,21.74-25.35,22.12-43.71,14.32-53.5,8.7H419.13l-49.95-13.39-37.89-24.86-12.4-24.37Zm-38.56-13.68q8.81-3.66,17.9-6.9l4.66-1.32v74.5L319,700.76l43.6,28.6L417,744H458.2l55.38-9,.61-.1,48-15.71,30.67-26.77,11.51-28.21V600.43c4.47,1.54,8.9,3.08,13.24,4.61v135a123.45,123.45,0,0,0-16-6,130.46,130.46,0,0,0-58.84-3.23c-30.54,5.26-52.93,20.26-66.34,31.93l-1.39,1.2-25.8,60.39h-1l-25.8-60.39-1.39-1.2c-13.41-11.67-35.8-26.67-66.34-31.93A130.43,130.43,0,0,0,295.88,734a125.72,125.72,0,0,0-15.55,5.85Zm0,154.94a110.29,110.29,0,0,1,20.14-8.35A116,116,0,0,1,352,746.65c25.89,4.46,45.2,16.93,57.19,27.06l21.64,50.65-150.52.36Zm-198.07-119H82V743.28L49.49,628.52l32.77-8.6ZM184.94,663.3v2.33L181,667C182.27,665.74,183.61,664.52,184.94,663.3Zm-87-4.59,45.93,23.39A226.29,226.29,0,0,0,103.46,747q-3,7.38-5.48,14.92ZM179.91,825l-77.35.18q.15-3.12.38-6.22l.43-.12-.33-1.15a215.75,215.75,0,0,1,15.23-64.55c11.4-28,26.73-48.3,40.44-63.47l.59.3,1.06-2.12c2.67-2.89,5.26-5.6,7.74-8.13l24.76,41.49,16.27,40-29.22,27Zm32.77-.08-16.77,0v-29.7l16.77-15.49ZM207.2,713.94,187.9,681.6l6.35-2.15h42.18v44.47a8,8,0,1,0,16,0V663.36H200.94V649.6A326.49,326.49,0,0,1,264.33,610V824.76l-35.65.08v-58.1Z"/></g></svg>