<svg id="Layer_1" data-name="Layer 1" xmlns="http://www.w3.org/2000/svg" xmlns:xlink="http://www.w3.org/1999/xlink" viewBox="0 0 350 350">
  <defs>
    <style>
      .cls-1, .cls-4 {
        stroke-miterlimit: 10;
      }

      .cls-1 {
        fill: url(#linear-gradient);
        stroke: url(#linear-gradient-2);
      }

      .cls-2 {
        fill: url(#linear-gradient-3);
      }

      .cls-3 {
        fill: url(#linear-gradient-4);
      }

      .cls-4 {
        fill: url(#linear-gradient-5);
        stroke: url(#linear-gradient-6);
      }

      .cls-5 {
        fill: url(#linear-gradient-7);
      }

      .cls-6 {
        fill: url(#linear-gradient-8);
      }
    </style>
    <linearGradient id="linear-gradient" x1="203.76" y1="54.14" x2="355.68" y2="54.14" gradientTransform="matrix(1, 0, 0, -1, -14.65, 213.12)" gradientUnits="userSpaceOnUse">
      <stop offset="0" stop-color="#7e2265"/>
      <stop offset="1" stop-color="#ec2427"/>
    </linearGradient>
    <linearGradient id="linear-gradient-2" x1="203.26" y1="54.14" x2="356.18" y2="54.14" gradientTransform="matrix(1, 0, 0, -1, -14.65, 213.12)" gradientUnits="userSpaceOnUse">
      <stop offset="0" stop-color="#2484c7"/>
      <stop offset="1" stop-color="#c4de8c"/>
    </linearGradient>
    <linearGradient id="linear-gradient-3" x1="222.56" y1="55.43" x2="250.7" y2="55.43" gradientTransform="matrix(1, 0, 0, -1, -14.65, 213.12)" gradientUnits="userSpaceOnUse">
      <stop offset="0" stop-color="#1572ba"/>
      <stop offset="1" stop-color="#b1d236"/>
    </linearGradient>
    <linearGradient id="linear-gradient-4" x1="248.14" y1="61.52" x2="342.99" y2="61.52" gradientTransform="matrix(1, 0, 0, -1, -14.65, 213.12)" gradientUnits="userSpaceOnUse">
      <stop offset="0" stop-color="#e8b121"/>
      <stop offset="1" stop-color="#b8d435"/>
    </linearGradient>
    <linearGradient id="linear-gradient-5" x1="187.08" y1="54.14" x2="339.01" y2="54.14" gradientTransform="translate(348.8 213.12) rotate(180)" xlink:href="#linear-gradient"/>
    <linearGradient id="linear-gradient-6" x1="186.58" y1="54.14" x2="339.51" y2="54.14" gradientTransform="translate(348.8 213.12) rotate(180)" xlink:href="#linear-gradient-2"/>
    <linearGradient id="linear-gradient-7" x1="205.85" y1="55.43" x2="234" y2="55.43" gradientTransform="translate(348.8 213.12) rotate(180)" xlink:href="#linear-gradient-3"/>
    <linearGradient id="linear-gradient-8" x1="231.43" y1="61.52" x2="326.28" y2="61.52" gradientTransform="translate(348.8 213.12) rotate(180)" xlink:href="#linear-gradient-4"/>
  </defs>
  <g id="Wings_1">
    <path class="cls-1" d="M189.12,180.35c-.41-1.14,6.81-3.51,15.53-11.65,7.07-6.6,12.41-11.59,14.22-19.72.89-4,.57-7.2,3.1-9.54a8.91,8.91,0,0,1,9.3-1.37,11.17,11.17,0,0,1,5,4.78c6.82,11.65,103.6,0,104.75,4.09.72,2.52-50.84,20.73-50.2,23.18.18.7,4.55.1,4.65.8s-4,1.84-4.34,1.93c-8.9,2.51-21.3-1.46-30.07-2.84-10.32-1.62-18.8-.1-35.74,3-7.73,1.39-15,3-15,3C196.57,179.05,189.52,181.48,189.12,180.35Z"/>
    <path class="cls-2" d="M207.92,174c-.4-.73,6.3-3,11.16-11.42,6.59-11.4,8.37-17.39,8.37-17.39.25-.86.85-3,2.47-3.75a4.78,4.78,0,0,1,5.58,1.88c2.7,4.5-5.38,14.94-6.35,16.19C220.52,170.71,208.46,175,207.92,174Z"/>
    <path class="cls-3" d="M237.83,145.4c-.52.31.7,2.69.46,4.95-.4,3.9-4.9,5.36-4.8,6.31.47,4.26,95-4.28,94.84-5.8-.07-.73-22.39-3-48.19.69,0,0-32.61,4.68-41.07-5.29C239,146.18,238.18,145.19,237.83,145.4Z"/>
    <path class="cls-4" d="M161.7,180.35c.4-1.14-6.81-3.51-15.54-11.65-7.06-6.6-12.41-11.59-14.22-19.72-.89-4-.57-7.2-3.1-9.54a8.88,8.88,0,0,0-9.29-1.37,11.12,11.12,0,0,0-5,4.78c-6.83,11.65-103.6,0-104.76,4.09-.72,2.52,50.85,20.73,50.21,23.18-.18.7-4.56.1-4.65.8s4,1.84,4.34,1.93c8.9,2.51,21.29-1.46,30.06-2.84,10.33-1.62,18.8-.1,35.75,3,7.73,1.39,15,3,15,3C154.28,179.05,161.32,181.48,161.7,180.35Z"/>
    <path class="cls-5" d="M142.93,174c.4-.73-6.3-3-11.16-11.42-6.6-11.4-8.37-17.39-8.37-17.39-.25-.86-.85-3-2.48-3.75a4.79,4.79,0,0,0-5.58,1.88c-2.69,4.5,5.39,14.94,6.36,16.19C130.33,170.71,142.39,175,142.93,174Z"/>
    <path class="cls-6" d="M113,145.4c.51.31-.7,2.69-.47,4.95.41,3.9,4.91,5.36,4.81,6.31-.47,4.26-95-4.28-94.84-5.8.06-.73,22.38-3,48.19.69,0,0,32.61,4.68,41.07-5.29C111.85,146.18,112.7,145.19,113,145.4Z"/>
  </g>
</svg>
