<?xml version="1.0" encoding="UTF-8" standalone="no"?><!DOCTYPE svg PUBLIC "-//W3C//DTD SVG 1.1//EN" "http://www.w3.org/Graphics/SVG/1.1/DTD/svg11.dtd"><svg width="100%" height="100%" viewBox="0 0 567 391" version="1.1" xmlns="http://www.w3.org/2000/svg" xmlns:xlink="http://www.w3.org/1999/xlink" xml:space="preserve" xmlns:serif="http://www.serif.com/" style="fill-rule:evenodd;clip-rule:evenodd;stroke-linejoin:round;stroke-miterlimit:1.41421;"><g id="Layer-1" serif:id="Layer 1"><g><clipPath id="_clip1"><rect x="24.798" y="-57.05" width="527.75" height="406.169" clip-rule="nonzero"/></clipPath><g clip-path="url(#_clip1)"><path d="M331.492,187.155c-0.335,0 -0.607,-0.272 -0.607,-0.607c0,-0.335 0.272,-0.607 0.607,-0.607c0.335,0 0.607,0.272 0.607,0.607c0,0.335 -0.272,0.607 -0.607,0.607" style="fill:#fecd09;fill-rule:nonzero;"/><path d="M333.193,187.155c-0.335,0 -0.607,-0.272 -0.607,-0.607c0,-0.335 0.272,-0.607 0.607,-0.607c0.335,0 0.607,0.272 0.607,0.607c0,0.335 -0.272,0.607 -0.607,0.607" style="fill:#fecd09;fill-rule:nonzero;"/><path d="M334.895,187.155c-0.335,0 -0.607,-0.272 -0.607,-0.607c0,-0.335 0.272,-0.607 0.607,-0.607c0.335,0 0.607,0.272 0.607,0.607c0,0.335 -0.272,0.607 -0.607,0.607" style="fill:#fecd09;fill-rule:nonzero;"/><path d="M336.597,187.155c-0.335,0 -0.607,-0.272 -0.607,-0.607c0,-0.335 0.272,-0.607 0.607,-0.607c0.335,0 0.607,0.272 0.607,0.607c0,0.335 -0.272,0.607 -0.607,0.607" style="fill:#fecd09;fill-rule:nonzero;"/><path d="M338.249,187.155c-0.335,0 -0.607,-0.272 -0.607,-0.607c0,-0.335 0.272,-0.607 0.607,-0.607c0.335,0 0.607,0.272 0.607,0.607c0,0.335 -0.272,0.607 -0.607,0.607" style="fill:#fecd09;fill-rule:nonzero;"/><path d="M339.951,187.155c-0.335,0 -0.607,-0.272 -0.607,-0.607c0,-0.335 0.272,-0.607 0.607,-0.607c0.335,0 0.607,0.272 0.607,0.607c0,0.335 -0.272,0.607 -0.607,0.607" style="fill:#fecd09;fill-rule:nonzero;"/><path d="M333.193,188.832c-0.335,0 -0.607,-0.272 -0.607,-0.607c0,-0.335 0.272,-0.607 0.607,-0.607c0.335,0 0.607,0.272 0.607,0.607c0,0.335 -0.272,0.607 -0.607,0.607" style="fill:#fecd09;fill-rule:nonzero;"/><path d="M334.895,188.832c-0.335,0 -0.607,-0.272 -0.607,-0.607c0,-0.335 0.272,-0.607 0.607,-0.607c0.335,0 0.607,0.272 0.607,0.607c0,0.335 -0.272,0.607 -0.607,0.607" style="fill:#fecd09;fill-rule:nonzero;"/><path d="M336.597,188.832c-0.335,0 -0.607,-0.272 -0.607,-0.607c0,-0.335 0.272,-0.607 0.607,-0.607c0.335,0 0.607,0.272 0.607,0.607c0,0.335 -0.272,0.607 -0.607,0.607" style="fill:#fecd09;fill-rule:nonzero;"/><path d="M338.249,188.832c-0.335,0 -0.607,-0.272 -0.607,-0.607c0,-0.335 0.272,-0.607 0.607,-0.607c0.335,0 0.607,0.272 0.607,0.607c0,0.335 -0.272,0.607 -0.607,0.607" style="fill:#fecd09;fill-rule:nonzero;"/><path d="M339.951,188.832c-0.335,0 -0.607,-0.272 -0.607,-0.607c0,-0.335 0.272,-0.607 0.607,-0.607c0.335,0 0.607,0.272 0.607,0.607c0,0.335 -0.272,0.607 -0.607,0.607" style="fill:#fecd09;fill-rule:nonzero;"/><path d="M334.895,190.542c-0.335,0 -0.607,-0.272 -0.607,-0.607c0,-0.335 0.272,-0.607 0.607,-0.607c0.335,0 0.607,0.272 0.607,0.607c0,0.335 -0.272,0.607 -0.607,0.607" style="fill:#fecd09;fill-rule:nonzero;"/><path d="M336.597,190.542c-0.335,0 -0.607,-0.272 -0.607,-0.607c0,-0.335 0.272,-0.607 0.607,-0.607c0.335,0 0.607,0.272 0.607,0.607c0,0.335 -0.272,0.607 -0.607,0.607" style="fill:#fecd09;fill-rule:nonzero;"/><path d="M338.249,190.542c-0.335,0 -0.607,-0.272 -0.607,-0.607c0,-0.335 0.272,-0.607 0.607,-0.607c0.335,0 0.607,0.272 0.607,0.607c0,0.335 -0.272,0.607 -0.607,0.607" style="fill:#fecd09;fill-rule:nonzero;"/><path d="M339.951,190.542c-0.335,0 -0.607,-0.272 -0.607,-0.607c0,-0.335 0.272,-0.607 0.607,-0.607c0.335,0 0.607,0.272 0.607,0.607c0,0.335 -0.272,0.607 -0.607,0.607" style="fill:#fecd09;fill-rule:nonzero;"/><path d="M336.597,192.219c-0.335,0 -0.607,-0.272 -0.607,-0.607c0,-0.335 0.272,-0.607 0.607,-0.607c0.335,0 0.607,0.272 0.607,0.607c0,0.335 -0.272,0.607 -0.607,0.607" style="fill:#fecd09;fill-rule:nonzero;"/><path d="M338.249,192.219c-0.335,0 -0.607,-0.272 -0.607,-0.607c0,-0.335 0.272,-0.607 0.607,-0.607c0.335,0 0.607,0.272 0.607,0.607c0,0.335 -0.272,0.607 -0.607,0.607" style="fill:#fecd09;fill-rule:nonzero;"/><path d="M339.951,192.219c-0.335,0 -0.607,-0.272 -0.607,-0.607c0,-0.335 0.272,-0.607 0.607,-0.607c0.335,0 0.607,0.272 0.607,0.607c0,0.335 -0.272,0.607 -0.607,0.607" style="fill:#fecd09;fill-rule:nonzero;"/><path d="M338.249,193.87c-0.335,0 -0.607,-0.272 -0.607,-0.607c0,-0.335 0.272,-0.607 0.607,-0.607c0.335,0 0.607,0.272 0.607,0.607c0,0.335 -0.272,0.607 -0.607,0.607" style="fill:#fecd09;fill-rule:nonzero;"/><path d="M339.951,193.87c-0.335,0 -0.607,-0.272 -0.607,-0.607c0,-0.335 0.272,-0.607 0.607,-0.607c0.335,0 0.607,0.272 0.607,0.607c0,0.335 -0.272,0.607 -0.607,0.607" style="fill:#fecd09;fill-rule:nonzero;"/><path d="M339.951,195.548c-0.335,0 -0.607,-0.272 -0.607,-0.607c0,-0.335 0.272,-0.607 0.607,-0.607c0.335,0 0.607,0.272 0.607,0.607c0,0.335 -0.272,0.607 -0.607,0.607" style="fill:#fecd09;fill-rule:nonzero;"/><path d="M457.488,183.519c-0.215,0 -0.389,-0.174 -0.389,-0.389c0,-0.215 0.174,-0.39 0.389,-0.39c0.215,0 0.389,0.175 0.389,0.39c0,0.215 -0.174,0.389 -0.389,0.389" style="fill:#fecd09;fill-rule:nonzero;"/><path d="M458.58,183.519c-0.215,0 -0.389,-0.174 -0.389,-0.389c0,-0.215 0.174,-0.39 0.389,-0.39c0.215,0 0.389,0.175 0.389,0.39c0,0.215 -0.174,0.389 -0.389,0.389" style="fill:#fecd09;fill-rule:nonzero;"/><path d="M459.671,183.519c-0.215,0 -0.389,-0.174 -0.389,-0.389c0,-0.215 0.174,-0.39 0.389,-0.39c0.215,0 0.389,0.175 0.389,0.39c0,0.215 -0.174,0.389 -0.389,0.389" style="fill:#fecd09;fill-rule:nonzero;"/><path d="M460.763,183.519c-0.215,0 -0.389,-0.174 -0.389,-0.389c0,-0.215 0.174,-0.39 0.389,-0.39c0.215,0 0.389,0.175 0.389,0.39c0,0.215 -0.174,0.389 -0.389,0.389" style="fill:#fecd09;fill-rule:nonzero;"/><path d="M461.823,183.519c-0.215,0 -0.389,-0.174 -0.389,-0.389c0,-0.215 0.174,-0.39 0.389,-0.39c0.215,0 0.389,0.175 0.389,0.39c0,0.215 -0.174,0.389 -0.389,0.389" style="fill:#fecd09;fill-rule:nonzero;"/><path d="M462.914,183.519c-0.215,0 -0.389,-0.174 -0.389,-0.389c0,-0.215 0.174,-0.39 0.389,-0.39c0.215,0 0.389,0.175 0.389,0.39c0,0.215 -0.174,0.389 -0.389,0.389" style="fill:#fecd09;fill-rule:nonzero;"/><path d="M458.58,184.596c-0.215,0 -0.389,-0.174 -0.389,-0.389c0,-0.215 0.174,-0.389 0.389,-0.389c0.215,0 0.389,0.174 0.389,0.389c0,0.215 -0.174,0.389 -0.389,0.389" style="fill:#fecd09;fill-rule:nonzero;"/><path d="M459.671,184.596c-0.215,0 -0.389,-0.174 -0.389,-0.389c0,-0.215 0.174,-0.389 0.389,-0.389c0.215,0 0.389,0.174 0.389,0.389c0,0.215 -0.174,0.389 -0.389,0.389" style="fill:#fecd09;fill-rule:nonzero;"/><path d="M460.763,184.596c-0.215,0 -0.389,-0.174 -0.389,-0.389c0,-0.215 0.174,-0.389 0.389,-0.389c0.215,0 0.389,0.174 0.389,0.389c0,0.215 -0.174,0.389 -0.389,0.389" style="fill:#fecd09;fill-rule:nonzero;"/><path d="M461.823,184.596c-0.215,0 -0.389,-0.174 -0.389,-0.389c0,-0.215 0.174,-0.389 0.389,-0.389c0.215,0 0.389,0.174 0.389,0.389c0,0.215 -0.174,0.389 -0.389,0.389" style="fill:#fecd09;fill-rule:nonzero;"/><path d="M462.914,184.596c-0.215,0 -0.389,-0.174 -0.389,-0.389c0,-0.215 0.174,-0.389 0.389,-0.389c0.215,0 0.389,0.174 0.389,0.389c0,0.215 -0.174,0.389 -0.389,0.389" style="fill:#fecd09;fill-rule:nonzero;"/><path d="M459.671,185.692c-0.215,0 -0.389,-0.174 -0.389,-0.389c0,-0.215 0.174,-0.39 0.389,-0.39c0.215,0 0.389,0.175 0.389,0.39c0,0.215 -0.174,0.389 -0.389,0.389" style="fill:#fecd09;fill-rule:nonzero;"/><path d="M460.763,185.692c-0.215,0 -0.389,-0.174 -0.389,-0.389c0,-0.215 0.174,-0.39 0.389,-0.39c0.215,0 0.389,0.175 0.389,0.39c0,0.215 -0.174,0.389 -0.389,0.389" style="fill:#fecd09;fill-rule:nonzero;"/><path d="M461.823,185.692c-0.215,0 -0.389,-0.174 -0.389,-0.389c0,-0.215 0.174,-0.39 0.389,-0.39c0.215,0 0.389,0.175 0.389,0.39c0,0.215 -0.174,0.389 -0.389,0.389" style="fill:#fecd09;fill-rule:nonzero;"/><path d="M462.914,185.692c-0.215,0 -0.389,-0.174 -0.389,-0.389c0,-0.215 0.174,-0.39 0.389,-0.39c0.215,0 0.389,0.175 0.389,0.39c0,0.215 -0.174,0.389 -0.389,0.389" style="fill:#fecd09;fill-rule:nonzero;"/><path d="M460.763,186.768c-0.215,0 -0.389,-0.174 -0.389,-0.389c0,-0.215 0.174,-0.389 0.389,-0.389c0.215,0 0.389,0.174 0.389,0.389c0,0.215 -0.174,0.389 -0.389,0.389" style="fill:#fecd09;fill-rule:nonzero;"/><path d="M461.823,186.768c-0.215,0 -0.389,-0.174 -0.389,-0.389c0,-0.215 0.174,-0.389 0.389,-0.389c0.215,0 0.389,0.174 0.389,0.389c0,0.215 -0.174,0.389 -0.389,0.389" style="fill:#fecd09;fill-rule:nonzero;"/><path d="M462.914,186.768c-0.215,0 -0.389,-0.174 -0.389,-0.389c0,-0.215 0.174,-0.389 0.389,-0.389c0.215,0 0.389,0.174 0.389,0.389c0,0.215 -0.174,0.389 -0.389,0.389" style="fill:#fecd09;fill-rule:nonzero;"/><path d="M461.823,187.827c-0.215,0 -0.389,-0.174 -0.389,-0.389c0,-0.215 0.174,-0.39 0.389,-0.39c0.215,0 0.389,0.175 0.389,0.39c0,0.215 -0.174,0.389 -0.389,0.389" style="fill:#fecd09;fill-rule:nonzero;"/><path d="M462.914,187.827c-0.215,0 -0.389,-0.174 -0.389,-0.389c0,-0.215 0.174,-0.39 0.389,-0.39c0.215,0 0.389,0.175 0.389,0.39c0,0.215 -0.174,0.389 -0.389,0.389" style="fill:#fecd09;fill-rule:nonzero;"/><path d="M462.914,188.903c-0.215,0 -0.389,-0.174 -0.389,-0.389c0,-0.215 0.174,-0.39 0.389,-0.39c0.215,0 0.389,0.175 0.389,0.39c0,0.215 -0.174,0.389 -0.389,0.389" style="fill:#fecd09;fill-rule:nonzero;"/><path d="M396.124,166.994l0.972,5.359l-5.967,0l4.995,-5.359Z" style="fill:#f8006d;fill-rule:nonzero;"/><rect x="292.103" y="222.203" width="3.334" height="14.153" style="fill:#f8006d;"/><path d="M406.164,237.07l-18.137,0l0,-3.334l16.47,0l0,-58.772l-16.47,0l0,-3.334l18.137,0c0.921,0 1.667,0.746 1.667,1.667l0,62.106c0,0.92 -0.746,1.667 -1.667,1.667" style="fill:#f8006d;fill-rule:nonzero;"/><path d="M363.588,233.736l22.772,0l0,-103.447c0,-6.278 -5.107,-11.386 -11.386,-11.386c-6.278,0 -11.386,5.108 -11.386,11.386l0,103.447Zm24.439,3.334l-26.106,0c-0.921,0 -1.667,-0.746 -1.667,-1.667l0,-105.114c0,-8.116 6.603,-14.72 14.72,-14.72c8.117,0 14.72,6.604 14.72,14.72l0,105.114c0,0.921 -0.746,1.667 -1.667,1.667" style="fill:#f8006d;fill-rule:nonzero;"/><path d="M439.267,180.59l-27.057,-27.057l-21.527,21.527l-2.358,-2.358l22.706,-22.705c0.651,-0.651 1.706,-0.651 2.357,0l28.236,28.236l-2.357,2.357Z" style="fill:#f8006d;fill-rule:nonzero;"/><path d="M320.373,182.995l-2.358,-2.357l24.286,-24.287c0.626,-0.625 1.732,-0.625 2.358,0.001l18.441,18.441l-2.358,2.357l-17.262,-17.262l-23.107,23.107Z" style="fill:#f8006d;fill-rule:nonzero;"/><path d="M424.183,233.736l40.772,0l0,-52.657l-40.772,0l0,52.657Zm42.438,3.334l-44.105,0c-0.921,0 -1.668,-0.746 -1.668,-1.667l0,-55.991c0,-0.921 0.747,-1.667 1.668,-1.667l44.105,0c0.921,0 1.667,0.746 1.667,1.667l0,55.991c0,0.921 -0.746,1.667 -1.667,1.667" style="fill:#f8006d;fill-rule:nonzero;"/><rect x="413.309" y="222.203" width="3.334" height="14.153" style="fill:#f8006d;"/><rect x="429.111" y="188.332" width="30.091" height="3.334" style="fill:#f8006d;"/><rect x="429.111" y="194.997" width="30.091" height="3.334" style="fill:#f8006d;"/><rect x="429.111" y="202.408" width="30.091" height="3.334" style="fill:#f8006d;"/><rect x="429.111" y="210.026" width="30.091" height="3.334" style="fill:#f8006d;"/><rect x="429.111" y="217.203" width="30.091" height="3.334" style="fill:#f8006d;"/><rect x="429.111" y="223.869" width="30.091" height="3.334" style="fill:#f8006d;"/><path d="M245.071,237.07l-1.786,0c-0.545,0 -1.056,-0.267 -1.368,-0.714c-0.312,-0.448 -0.385,-1.02 -0.196,-1.531l3.573,-9.666c0.102,-0.278 0.277,-0.524 0.507,-0.712l11.448,-9.377l4.381,-12.905c0.079,-0.233 0.21,-0.447 0.381,-0.624l10.934,-11.275l7.505,-9.484c0.316,-0.4 0.798,-0.633 1.307,-0.633l6.687,0l2.926,-6.415c0.271,-0.594 0.864,-0.975 1.517,-0.975l33.697,0l0,3.334l-32.625,0l-2.926,6.415c-0.272,0.594 -0.864,0.975 -1.517,0.975l-6.952,0l-7.057,8.917c-0.034,0.044 -0.071,0.087 -0.11,0.127l-10.731,11.065l-4.414,13.001c-0.1,0.296 -0.281,0.557 -0.522,0.754l-11.466,9.392l-3.193,8.64l0,1.691Z" style="fill:#f8006d;fill-rule:nonzero;"/><rect x="395.619" y="179.6" width="10.546" height="3.334" style="fill:#f8006d;"/><rect x="395.619" y="188.332" width="10.546" height="3.334" style="fill:#f8006d;"/><path d="M273.261,207.812l-4.857,0l0,-3.334l3.987,0l2.502,-3.589c0.312,-0.447 0.823,-0.713 1.368,-0.713l3.16,0l0,3.334l-2.29,0l-2.503,3.588c-0.311,0.447 -0.822,0.714 -1.367,0.714" style="fill:#f8006d;fill-rule:nonzero;"/><rect x="395.619" y="197.325" width="10.546" height="3.334" style="fill:#f8006d;"/><rect x="388.59" y="220.536" width="10.546" height="3.334" style="fill:#f8006d;"/><rect x="388.59" y="209.407" width="15.256" height="3.334" style="fill:#f8006d;"/><path d="M380.076,235.744l-3.334,0l0,-8.541l-4.596,0l0,8.541l-3.334,0l0,-10.208c0,-0.921 0.746,-1.667 1.667,-1.667l7.93,0c0.921,0 1.667,0.746 1.667,1.667l0,10.208Z" style="fill:#f8006d;fill-rule:nonzero;"/><path d="M302.17,233.736l40.241,0l0,-50.253l-40.241,0l0,50.253Zm41.908,3.334l-43.575,0c-0.921,0 -1.667,-0.746 -1.667,-1.667l0,-53.586c0,-0.921 0.746,-1.668 1.667,-1.668l43.575,0c0.921,0 1.667,0.747 1.667,1.668l0,53.586c0,0.921 -0.746,1.667 -1.667,1.667" style="fill:#f8006d;fill-rule:nonzero;"/><path d="M322.29,188.395c-1.221,0 -2.215,0.994 -2.215,2.215c0,1.221 0.994,2.214 2.215,2.214c1.221,0 2.214,-0.993 2.214,-2.214c0,-1.221 -0.993,-2.215 -2.214,-2.215m0,7.764c-3.059,0 -5.549,-2.49 -5.549,-5.549c0,-3.06 2.49,-5.549 5.549,-5.549c3.059,0 5.549,2.489 5.549,5.549c0,3.059 -2.49,5.549 -5.549,5.549" style="fill:#f8006d;fill-rule:nonzero;"/><path d="M307.787,206.426l-2.317,0l0,-4.763l2.317,0l0,4.763Zm9.526,0l-4.763,0l0,-4.763l4.763,0l0,4.763Zm9.526,0l-4.763,0l0,-4.763l4.763,0l0,4.763Zm9.526,0l-4.763,0l0,-4.763l4.763,0l0,4.763Z" style="fill:#f8006d;fill-rule:nonzero;"/><path d="M307.787,215.31l-2.317,0l0,-4.763l2.317,0l0,4.763Zm9.526,0l-4.763,0l0,-4.763l4.763,0l0,4.763Zm9.526,0l-4.763,0l0,-4.763l4.763,0l0,4.763Zm9.526,0l-4.763,0l0,-4.763l4.763,0l0,4.763Z" style="fill:#f8006d;fill-rule:nonzero;"/><path d="M307.787,223.058l-2.317,0l0,-4.763l2.317,0l0,4.763Zm9.526,0l-4.763,0l0,-4.763l4.763,0l0,4.763Zm9.526,0l-4.763,0l0,-4.763l4.763,0l0,4.763Zm9.526,0l-4.763,0l0,-4.763l4.763,0l0,4.763Z" style="fill:#f8006d;fill-rule:nonzero;"/><path d="M307.787,230.989l-2.317,0l0,-4.763l2.317,0l0,4.763Zm9.526,0l-4.763,0l0,-4.763l4.763,0l0,4.763Zm9.526,0l-4.763,0l0,-4.763l4.763,0l0,4.763Zm9.526,0l-4.763,0l0,-4.763l4.763,0l0,4.763Z" style="fill:#f8006d;fill-rule:nonzero;"/><path d="M345.745,233.736l8.12,0l0,-35.357l-8.12,0l0,35.357Zm9.787,3.334l-11.454,0c-0.921,0 -1.667,-0.746 -1.667,-1.667l0,-38.691c0,-0.92 0.746,-1.667 1.667,-1.667l11.454,0c0.921,0 1.667,0.747 1.667,1.667l0,38.691c0,0.921 -0.746,1.667 -1.667,1.667" style="fill:#f8006d;fill-rule:nonzero;"/><rect x="344.078" y="202.683" width="11.454" height="3.334" style="fill:#f8006d;"/><rect x="344.078" y="210.547" width="11.454" height="3.334" style="fill:#f8006d;"/><rect x="344.078" y="218.111" width="11.454" height="3.334" style="fill:#f8006d;"/><rect x="344.078" y="225.022" width="11.454" height="3.334" style="fill:#f8006d;"/><rect x="393.929" y="204.9" width="3.334" height="4.809" style="fill:#f8006d;"/><rect x="269.037" y="225.022" width="17.462" height="3.334" style="fill:#f8006d;"/><path d="M254.735,153.301c-3.959,0 -7.179,3.221 -7.179,7.179c0,3.959 3.22,7.179 7.179,7.179c3.958,0 7.179,-3.22 7.179,-7.179c0,-3.958 -3.221,-7.179 -7.179,-7.179m0,17.692c-5.797,0 -10.513,-4.716 -10.513,-10.513c0,-5.797 4.716,-10.513 10.513,-10.513c5.797,0 10.513,4.716 10.513,10.513c0,5.797 -4.716,10.513 -10.513,10.513" style="fill:#fecd09;fill-rule:nonzero;"/><rect x="187.399" y="195.676" width="81.006" height="3.334" style="fill:#f8006d;"/><path d="M260.495,213.48c-0.087,-0.041 -8.823,-4.176 -21.481,-6.217c-11.608,-1.871 -29.004,-2.314 -45.957,6.204l-1.497,-2.98c17.789,-8.937 35.971,-8.466 48.093,-6.498c13.105,2.128 21.915,6.308 22.284,6.485l-1.442,3.006Z" style="fill:#f8006d;fill-rule:nonzero;"/><rect x="255.379" y="197.343" width="3.334" height="12.778" style="fill:#f8006d;"/><rect x="250.068" y="197.344" width="3.334" height="11.266" style="fill:#f8006d;"/><rect x="227.786" y="195.888" width="3.334" height="8.858" style="fill:#f8006d;"/><rect x="222.476" y="195.888" width="3.334" height="8.858" style="fill:#f8006d;"/><rect x="200.978" y="195.888" width="3.334" height="11.909" style="fill:#f8006d;"/><rect x="195.667" y="195.888" width="3.334" height="13.813" style="fill:#f8006d;"/><path d="M247.487,209.026l-6.499,-9.138l-6.867,6.635l-2.317,-2.397l8.261,-7.982c0.349,-0.338 0.828,-0.505 1.312,-0.461c0.483,0.044 0.923,0.298 1.205,0.694l7.622,10.717l-2.717,1.932Z" style="fill:#f8006d;fill-rule:nonzero;"/><path d="M205.772,208.432l-2.321,-2.394l10.2,-9.892c0.349,-0.338 0.827,-0.509 1.312,-0.463c0.485,0.044 0.925,0.298 1.207,0.694l5.274,7.415l-2.717,1.932l-4.149,-5.832l-8.806,8.54Z" style="fill:#f8006d;fill-rule:nonzero;"/><path d="M203.28,236.406l-7.179,-9.535l-4.902,-4.377c-0.303,-0.27 -0.497,-0.642 -0.545,-1.045l-1.987,-16.568l-4.735,-11.632l-8.009,-5.971c-0.047,-0.036 -0.093,-0.074 -0.137,-0.114l-6.802,-6.306l-7.178,0l0,-3.334l7.832,0c0.42,0 0.825,0.158 1.133,0.445l7.217,6.689l8.31,6.196c0.243,0.182 0.433,0.427 0.547,0.708l4.995,12.269c0.056,0.138 0.093,0.283 0.111,0.43l1.938,16.166l4.555,4.066c0.082,0.073 0.156,0.154 0.221,0.241l7.278,9.666l-2.663,2.006Z" style="fill:#f8006d;fill-rule:nonzero;"/><path d="M233.83,231.861c-4.005,0 -7.263,-3.258 -7.263,-7.263l3.334,0c0,2.167 1.762,3.929 3.929,3.929l0,3.334Z" style="fill:#f8006d;fill-rule:nonzero;"/><path d="M222.511,231.861l0,-3.334c2.166,0 3.929,-1.762 3.929,-3.929l3.334,0c0,4.005 -3.258,7.263 -7.263,7.263" style="fill:#f8006d;fill-rule:nonzero;"/><path d="M222.511,231.861c-4.005,0 -7.263,-3.258 -7.263,-7.263l3.334,0c0,2.167 1.762,3.929 3.929,3.929l0,3.334Z" style="fill:#f8006d;fill-rule:nonzero;"/><path d="M211.191,231.861l0,-3.334c2.167,0 3.929,-1.762 3.929,-3.929l3.334,0c0,4.005 -3.258,7.263 -7.263,7.263" style="fill:#f8006d;fill-rule:nonzero;"/><path d="M211.191,231.861c-4.005,0 -7.263,-3.258 -7.263,-7.263l3.334,0c0,2.167 1.762,3.929 3.929,3.929l0,3.334Z" style="fill:#f8006d;fill-rule:nonzero;"/><path d="M199.872,231.861l0,-3.334c2.166,0 3.929,-1.762 3.929,-3.929l3.334,0c0,4.005 -3.258,7.263 -7.263,7.263" style="fill:#f8006d;fill-rule:nonzero;"/><path d="M245.149,231.861c-4.005,0 -7.263,-3.258 -7.263,-7.263l3.334,0c0,2.167 1.762,3.929 3.929,3.929l0,3.334Z" style="fill:#f8006d;fill-rule:nonzero;"/><path d="M233.83,231.861l0,-3.334c2.167,0 3.929,-1.762 3.929,-3.929l3.334,0c0,4.005 -3.258,7.263 -7.263,7.263" style="fill:#f8006d;fill-rule:nonzero;"/><path d="M165.033,188.422l-6.252,-10.847l-25.903,0l0,-3.334l26.867,0c0.596,0 1.146,0.318 1.444,0.834l6.732,11.682l-2.888,1.665Z" style="fill:#f8006d;fill-rule:nonzero;"/><path d="M183.418,214.462l-7.969,0c-0.442,0 -0.867,-0.176 -1.179,-0.488l-2.579,-2.579l-19.502,0l0,-3.334l20.192,0c0.442,0 0.866,0.176 1.179,0.488l2.579,2.579l7.279,0l0,3.334Z" style="fill:#f8006d;fill-rule:nonzero;"/><path d="M403.846,210.121c0,-6.147 4.983,-11.13 11.13,-11.13c6.146,0 11.129,4.983 11.129,11.13c0,6.147 -4.983,11.13 -11.129,11.13c-6.147,0 -11.13,-4.983 -11.13,-11.13" style="fill:#ecf4ee;fill-rule:nonzero;"/><path d="M414.975,200.659c-5.218,0 -9.462,4.245 -9.462,9.463c0,5.217 4.244,9.462 9.462,9.462c5.218,0 9.462,-4.245 9.462,-9.462c0,-5.218 -4.244,-9.463 -9.462,-9.463m0,22.259c-7.056,0 -12.797,-5.74 -12.797,-12.796c0,-7.056 5.741,-12.797 12.797,-12.797c7.056,0 12.797,5.741 12.797,12.797c0,7.056 -5.741,12.796 -12.797,12.796" style="fill:#f8006d;fill-rule:nonzero;"/><path d="M367.877,161.481l14.039,0l0,-6.336l-14.039,0l0,6.336Zm15.716,3.353l-17.393,0c-0.926,0 -1.676,-0.751 -1.676,-1.677l0,-9.689c0,-0.926 0.75,-1.676 1.676,-1.676l17.393,0c0.926,0 1.676,0.75 1.676,1.676l0,9.689c0,0.926 -0.75,1.677 -1.676,1.677" style="fill:#f8006d;fill-rule:nonzero;"/><path d="M367.877,177.595l14.039,0l0,-6.336l-14.039,0l0,6.336Zm15.716,3.353l-17.393,0c-0.926,0 -1.676,-0.751 -1.676,-1.677l0,-9.689c0,-0.926 0.75,-1.676 1.676,-1.676l17.393,0c0.926,0 1.676,0.75 1.676,1.676l0,9.689c0,0.926 -0.75,1.677 -1.676,1.677" style="fill:#f8006d;fill-rule:nonzero;"/><path d="M367.868,218.587l14.058,0l0,-30.715l-14.058,0l0,30.715Zm15.725,3.334l-17.393,0c-0.92,0 -1.667,-0.746 -1.667,-1.667l0,-34.049c0,-0.92 0.747,-1.667 1.667,-1.667l17.393,0c0.92,0 1.667,0.747 1.667,1.667l0,34.049c0,0.921 -0.747,1.667 -1.667,1.667" style="fill:#f8006d;fill-rule:nonzero;"/><path d="M374.974,127.905c-2.933,0 -5.319,2.386 -5.319,5.319c0,2.932 2.386,5.318 5.319,5.318c2.933,0 5.319,-2.386 5.319,-5.318c0,-2.933 -2.386,-5.319 -5.319,-5.319m0,13.971c-4.771,0 -8.653,-3.881 -8.653,-8.652c0,-4.772 3.882,-8.653 8.653,-8.653c4.771,0 8.653,3.881 8.653,8.653c0,4.771 -3.882,8.652 -8.653,8.652" style="fill:#f8006d;fill-rule:nonzero;"/><rect x="74.503" y="234.077" width="491.529" height="3.334" style="fill:#f8006d;"/><path d="M104.262,233.736l15.083,0l0,-76.673c0,-4.158 -3.383,-7.541 -7.542,-7.541c-4.158,0 -7.541,3.383 -7.541,7.541l0,76.673Zm16.75,3.334l-18.417,0c-0.921,0 -1.667,-0.746 -1.667,-1.667l0,-78.34c0,-5.996 4.879,-10.875 10.875,-10.875c5.997,0 10.876,4.879 10.876,10.875l0,78.34c0,0.921 -0.746,1.667 -1.667,1.667" style="fill:#f8006d;fill-rule:nonzero;"/><path d="M535.81,235.467l-18.417,0l0,-82.383c0,-5.086 4.123,-9.208 9.209,-9.208c5.085,0 9.208,4.122 9.208,9.208l0,82.383Z" style="fill:#fff;fill-rule:nonzero;"/><path d="M519.06,233.8l15.082,0l0,-80.716c0,-4.158 -3.382,-7.541 -7.541,-7.541c-4.158,0 -7.541,3.383 -7.541,7.541l0,80.716Zm16.749,3.334l-18.416,0c-0.921,0 -1.667,-0.746 -1.667,-1.667l0,-82.383c0,-5.997 4.879,-10.875 10.875,-10.875c5.997,0 10.876,4.878 10.876,10.875l0,82.383c0,0.921 -0.747,1.667 -1.668,1.667" style="fill:#f8006d;fill-rule:nonzero;"/><path d="M92.919,242.548l-18.417,0l0,-58.04c0,-5.086 4.123,-9.209 9.209,-9.209c5.085,0 9.208,4.123 9.208,9.209l0,58.04Z" style="fill:#fff;fill-rule:nonzero;"/><path d="M76.17,240.881l15.083,0l0,-56.374c0,-4.158 -3.383,-7.541 -7.542,-7.541c-4.158,0 -7.541,3.383 -7.541,7.541l0,56.374Zm16.75,3.334l-18.417,0c-0.921,0 -1.667,-0.746 -1.667,-1.667l0,-58.041c0,-5.996 4.878,-10.875 10.875,-10.875c5.997,0 10.876,4.879 10.876,10.875l0,58.041c0,0.921 -0.747,1.667 -1.667,1.667" style="fill:#f8006d;fill-rule:nonzero;"/><path d="M524.349,242.548l-18.417,0l0,-58.04c0,-5.086 4.123,-9.209 9.209,-9.209c5.085,0 9.208,4.123 9.208,9.209l0,58.04Z" style="fill:#fff;fill-rule:nonzero;"/><path d="M507.599,240.881l15.083,0l0,-56.374c0,-4.158 -3.383,-7.541 -7.541,-7.541c-4.159,0 -7.542,3.383 -7.542,7.541l0,56.374Zm16.75,3.334l-18.417,0c-0.921,0 -1.667,-0.746 -1.667,-1.667l0,-58.041c0,-5.996 4.879,-10.875 10.876,-10.875c5.996,0 10.875,4.879 10.875,10.875l0,58.041c0,0.921 -0.747,1.667 -1.667,1.667" style="fill:#f8006d;fill-rule:nonzero;"/><path d="M132.878,235.403l-18.417,0l0,-106.873c0,-5.085 4.123,-9.208 9.209,-9.208c5.085,0 9.208,4.123 9.208,9.208l0,106.873Z" style="fill:#fff;fill-rule:nonzero;"/><path d="M116.128,233.736l15.083,0l0,-105.206c0,-4.158 -3.384,-7.541 -7.542,-7.541c-4.158,0 -7.541,3.383 -7.541,7.541l0,105.206Zm16.75,3.334l-18.417,0c-0.921,0 -1.667,-0.746 -1.667,-1.667l0,-106.873c0,-5.996 4.878,-10.875 10.875,-10.875c5.997,0 10.876,4.879 10.876,10.875l0,106.873c0,0.921 -0.747,1.667 -1.667,1.667" style="fill:#f8006d;fill-rule:nonzero;"/><path d="M56.564,237.351l-54.957,0c-0.888,0 -1.607,-0.72 -1.607,-1.607c0,-0.886 0.719,-1.606 1.607,-1.606l54.957,0c0.887,0 1.607,0.72 1.607,1.606c0,0.887 -0.72,1.607 -1.607,1.607" style="fill:#f8006d;fill-rule:nonzero;"/><path d="M39.325,233.22l8.12,0l0,-35.357l-8.12,0l0,35.357Zm9.787,3.334l-11.454,0c-0.921,0 -1.667,-0.746 -1.667,-1.667l0,-38.69c0,-0.921 0.746,-1.667 1.667,-1.667l11.454,0c0.921,0 1.667,0.746 1.667,1.667l0,38.69c0,0.921 -0.746,1.667 -1.667,1.667" style="fill:#f8006d;fill-rule:nonzero;"/><rect x="37.658" y="202.168" width="11.454" height="3.334" style="fill:#f8006d;"/><rect x="37.658" y="210.032" width="11.454" height="3.334" style="fill:#f8006d;"/><rect x="37.658" y="217.595" width="11.454" height="3.334" style="fill:#f8006d;"/><rect x="37.658" y="224.507" width="11.454" height="3.334" style="fill:#f8006d;"/></g></g><path d="M212.744,162.831l-15.357,4.286l-15,41.785l-20,18.572l-25.714,41.786l-6.072,31.785l101.927,2.857l31.645,-42.883l-53.215,-2.831l-16.785,-8.928l16.428,-21.429l15.357,-41.071l-2.857,-25l-10.357,1.071Z" style="fill:#fff;fill-rule:nonzero;"/><path d="M88.529,354.957c4.725,0 8.571,-3.846 8.571,-8.571c0,-4.725 -3.846,-8.572 -8.571,-8.572c-4.725,0 -8.571,3.847 -8.571,8.572c0,4.725 3.846,8.571 8.571,8.571" style="fill:#3e00fe;fill-rule:nonzero;"/><path d="M365.594,280.714l-105.427,0c-12.41,0 -22.5,10.091 -22.5,22.5c0,6.29 2.595,11.983 6.772,16.071c-4.173,4.085 -6.772,9.782 -6.772,16.072c0,6.29 2.599,11.983 6.772,16.071c-4.173,4.085 -6.772,9.781 -6.772,16.072c0,3.449 0.783,6.718 2.172,9.643l-48.984,0c-18.416,0 -35.906,-8.906 -46.779,-23.827c-1.209,-1.662 -3.139,-2.645 -5.194,-2.645l-16.264,0l0,-62.775l16.264,0c1.716,0 3.361,-0.687 4.571,-1.904c1.205,-1.223 1.875,-2.876 1.857,-4.591c-0.192,-18.462 8.51,-36.053 23.284,-47.051c19.319,-14.393 31.878,-35.445 35.364,-59.284c0.373,-2.549 1.717,-4.801 3.78,-6.338c2.067,-1.539 4.607,-2.18 7.156,-1.807c5.262,0.77 8.916,5.675 8.145,10.936c-4.231,28.953 -19.478,54.522 -42.927,71.987c-0.022,0.016 -0.042,0.042 -0.068,0.058c-0.23,0.176 -0.452,0.364 -0.652,0.569c-0.018,0.017 -0.035,0.038 -0.051,0.059c-0.184,0.188 -0.351,0.389 -0.511,0.599c-0.037,0.05 -0.079,0.099 -0.112,0.15c-0.164,0.226 -0.314,0.465 -0.448,0.715c-0.013,0.026 -0.026,0.055 -0.038,0.081c-0.122,0.233 -0.222,0.477 -0.314,0.723c-0.017,0.046 -0.034,0.092 -0.05,0.138c-0.092,0.272 -0.167,0.549 -0.222,0.829c-0.008,0.038 -0.008,0.071 -0.017,0.104c-0.042,0.244 -0.071,0.49 -0.084,0.742c-0.004,0.071 -0.012,0.146 -0.012,0.222c0,0.054 -0.009,0.108 -0.009,0.162c0,0.235 0.013,0.461 0.039,0.687c0,0.016 0.004,0.033 0.007,0.046c0.03,0.284 0.089,0.561 0.155,0.837c0.005,0.025 0.009,0.055 0.018,0.084l10.454,39.337c0.766,2.876 3.365,4.776 6.211,4.776c0.544,0 1.101,-0.071 1.653,-0.218c3.432,-0.913 5.475,-4.432 4.562,-7.864l-8.308,-31.252l173.279,0c5.32,0 9.643,4.324 9.643,9.643c0,5.316 -4.323,9.643 -9.643,9.643m-62.169,22.5c0,5.315 -4.327,9.643 -9.642,9.643l-33.616,0c-5.32,0 -9.643,-4.328 -9.643,-9.643c0,-5.32 4.323,-9.643 9.643,-9.643l33.616,0c5.315,0 9.642,4.323 9.642,9.643m-52.901,32.143c0,-5.32 4.323,-9.643 9.643,-9.643l18.49,0c5.316,0 9.643,4.323 9.643,9.643c0,5.315 -4.327,9.643 -9.643,9.643l-18.49,0c-5.32,0 -9.643,-4.328 -9.643,-9.643m20.571,41.786l-10.928,0c-5.32,0 -9.643,-4.328 -9.643,-9.643c0,-5.316 4.323,-9.643 9.643,-9.643l10.928,0c5.314,0 9.643,4.327 9.643,9.643c0,5.315 -4.329,9.643 -9.643,9.643m94.499,-128.572l-164.376,0c18.586,-18.511 30.678,-42.413 34.545,-68.852c1.795,-12.275 -6.734,-23.726 -19.01,-25.521c-5.947,-0.871 -11.873,0.627 -16.695,4.218c-4.821,3.591 -7.956,8.843 -8.823,14.791c-2.988,20.441 -13.756,38.492 -30.326,50.831c-16.31,12.149 -26.568,30.87 -28.225,51.005l-10.066,0l0,-10.714c0,-3.553 -2.875,-6.429 -6.429,-6.429l-29.803,0c-3.548,0 -6.428,2.876 -6.428,6.429c0,3.549 2.88,6.428 6.428,6.428l23.374,0l0,97.057l-23.374,0c-3.548,0 -6.428,2.879 -6.428,6.428c0,3.553 2.88,6.429 6.428,6.429l29.803,0c3.554,0 6.429,-2.876 6.429,-6.429l0,-10.714l13.091,0c13.373,16.636 33.746,26.472 55.146,26.472l80.24,0c12.405,0 22.5,-10.095 22.5,-22.5c0,-4.655 -1.424,-8.982 -3.851,-12.577c6.805,-3.872 11.413,-11.192 11.413,-19.566c0,-3.671 -0.887,-7.132 -2.452,-10.192c10.044,-2.251 17.578,-11.237 17.578,-21.951c0,-3.449 -0.783,-6.718 -2.176,-9.643l51.487,0c12.409,0 22.5,-10.095 22.5,-22.5c0,-12.409 -10.091,-22.5 -22.5,-22.5" style="fill:#3e00fe;fill-rule:nonzero;"/><ellipse cx="488.817" cy="43.615" rx="8.571" ry="8.572" style="fill:#3e00fe;"/><path d="M363.101,226.76l15.357,-4.286l15,-41.785l20,-18.572l25.714,-41.786l6.072,-31.785l-101.927,-2.857l-31.645,42.883l53.215,2.831l16.785,8.928l-16.428,21.429l-15.357,41.071l2.857,25l10.357,-1.071Z" style="fill:#fff;fill-rule:nonzero;"/><path d="M438.463,102.104c-1.715,0 -3.36,0.687 -4.57,1.904c-1.205,1.222 -1.875,2.876 -1.859,4.591c0.193,18.462 -8.512,36.053 -23.282,47.051c-19.319,14.393 -31.879,35.445 -35.365,59.284c-0.372,2.549 -1.716,4.801 -3.784,6.338c-2.063,1.539 -4.604,2.18 -7.153,1.807c-5.26,-0.77 -8.914,-5.675 -8.148,-10.936c4.236,-28.953 19.482,-54.522 42.928,-71.987c2.222,-1.652 3.135,-4.549 2.264,-7.178c-0.874,-2.628 -3.331,-4.406 -6.102,-4.406l-181.644,0c-5.316,0 -9.643,-4.324 -9.643,-9.643c0,-5.316 4.327,-9.643 9.643,-9.643l86.94,0c3.549,0 6.428,-2.876 6.428,-6.429c0,-3.548 -2.879,-6.428 -6.428,-6.428l-15.126,0c-5.319,0 -9.643,-4.324 -9.643,-9.643c0,-5.316 4.324,-9.643 9.643,-9.643l15.126,0c3.549,0 6.428,-2.876 6.428,-6.429c0,-3.548 -2.879,-6.428 -6.428,-6.428c-5.319,0 -9.643,-4.323 -9.643,-9.643c0,-5.315 4.324,-9.643 9.643,-9.643l7.563,0c3.549,0 6.428,-2.876 6.428,-6.428c0,-3.549 -2.879,-6.429 -6.428,-6.429c-5.32,0 -9.643,-4.323 -9.643,-9.643c0,-5.315 4.323,-9.643 9.643,-9.643l80.236,0c18.415,0 35.905,8.906 46.778,23.827c1.21,1.661 3.144,2.645 5.198,2.645l16.26,0l0,62.775l-16.26,0Zm52.497,17.143l-23.38,0l0,-97.061l23.38,0c3.548,0 6.428,-2.879 6.428,-6.428c0,-3.553 -2.88,-6.429 -6.428,-6.429l-29.808,0c-3.549,0 -6.429,2.876 -6.429,6.429l0,10.714l-13.088,0c-13.371,-16.636 -33.745,-26.472 -55.148,-26.472l-80.236,0c-12.409,0 -22.5,10.095 -22.5,22.5c0,4.654 1.418,8.978 3.846,12.572c-6.81,3.872 -11.409,11.197 -11.409,19.571c0,3.666 0.879,7.127 2.44,10.187c-10.04,2.255 -17.566,11.246 -17.566,21.956c0,3.449 0.779,6.721 2.173,9.643l-51.487,0c-12.405,0 -22.5,10.095 -22.5,22.5c0,12.409 10.095,22.5 22.5,22.5l164.367,0c-18.587,18.511 -30.665,42.418 -34.532,68.852c-1.795,12.275 6.73,23.726 19.01,25.521c1.1,0.159 2.205,0.239 3.302,0.239c4.804,0 9.467,-1.536 13.393,-4.457c4.817,-3.591 7.952,-8.844 8.822,-14.791c2.988,-20.441 13.757,-38.492 30.322,-50.831c16.315,-12.149 26.573,-30.87 28.23,-51.005l10.061,0l0,10.714c0,3.553 2.88,6.429 6.429,6.429l29.808,0c3.548,0 6.428,-2.876 6.428,-6.429c0,-3.549 -2.88,-6.424 -6.428,-6.424" style="fill:#3e00fe;fill-rule:nonzero;"/></g></svg>