<?xml version="1.0" encoding="UTF-8"?>
<svg width="860px" height="224px" viewBox="0 0 860 224" version="1.1" xmlns="http://www.w3.org/2000/svg" xmlns:xlink="http://www.w3.org/1999/xlink">
    <!-- Generator: Sketch 48.2 (47327) - http://www.bohemiancoding.com/sketch -->
    <title>GitcoinLogo.min</title>
    <desc>Created with Sketch.</desc>
    <defs></defs>
    <g id="Page-1" stroke="none" stroke-width="1" fill="none" fill-rule="evenodd">
        <g id="GitcoinLogo.min">
            <g id="Logotype" transform="translate(207.000000, 116.000000)">
                <path d="M48.38,57.16 L83.8,57.16 L83.8,59.99 C83.8,66.44 83.04,72.14 81.52,77.09 C79.9387127,81.862263 77.3849433,86.2547464 74.02,89.99 C66.06,98.95 55.94,103.42 43.64,103.42 C31.64,103.42 21.37,99.09 12.82,90.42 C4.28,81.73 0,71.3 0,59.1 C0,46.66 4.35,36.11 13.05,27.45 C21.75,18.75 32.35,14.39 44.82,14.39 C51.3036947,14.3440002 57.7160259,15.7446692 63.59,18.49 C69.15,21.21 74.61,25.65 79.98,31.78 L70.76,40.61 C63.72,31.24 55.15,26.56 45.04,26.56 C35.97,26.56 28.36,29.69 22.22,35.94 C16.07,42.09 13,49.79 13,59.04 C13,68.6 16.42,76.47 23.27,82.65 C29.67,88.39 36.62,91.26 44.1,91.26 C50.41115,91.2822095 56.5132451,88.9992579 61.26,84.84 C66.33,80.51 69.16,75.34 69.76,69.32 L48.38,69.32 L48.38,57.16 Z" id="Shape" fill="#FFFFFF" fill-rule="nonzero"></path>
                <polygon id="Shape" fill="#FFFFFF" points="129.66 16.06 142.6 16.06 142.6 101.81 129.66 101.81"></polygon>
                <path d="M216.44,28.22 L216.44,101.82 L203.5,101.82 L203.5,28.22 L183.78,28.22 L183.78,16.06 L236.1,16.06 L236.1,28.22 L216.44,28.22 Z M337.54,20.64 L337.54,35.94 C330.06,29.69 322.32,26.56 314.32,26.56 C305.52,26.56 298.09,29.72 292.05,36.06 C285.98,42.35 282.95,50.06 282.95,59.16 C282.95,68.16 285.98,75.75 292.05,81.93 C298.12,88.11 305.57,91.2 314.38,91.2 C318.94,91.2 322.8,90.47 325.98,88.98 C327.913645,88.156276 329.765195,87.1518185 331.51,85.98 C333.605728,84.5804171 335.619065,83.0612324 337.54,81.43 L337.54,97.06 C330.452973,101.175823 322.405476,103.348957 314.21,103.36 C301.96,103.36 291.5,99.09 282.83,90.54 C274.21,81.91 269.89,71.51 269.89,59.33 C269.89,48.4 273.5,38.67 280.72,30.11 C289.61,19.63 301.11,14.39 315.22,14.39 C322.92,14.39 330.36,16.48 337.54,20.64 Z" id="Shape" fill="#FFFFFF" fill-rule="nonzero"></path>
                <path d="M399.4,45.02 C399.4,54.49 402.58,62.28 408.95,68.39 C415.28,74.49 422.59,77.54 430.89,77.54 C439.89,77.54 447.48,74.44 453.66,68.22 C459.84,61.93 462.93,54.27 462.93,45.25 C462.93,36.11 459.88,28.45 453.77,22.27 C447.7,16.06 440.18,12.95 431.22,12.95 C422.3,12.95 414.76,16.05 408.62,22.27 C402.47,28.41 399.4,36 399.4,45.02 M386.34,44.88 C386.34,32.81 390.77,22.45 399.62,13.78 C408.43,5.12 419.02,0.78 431.39,0.78 C443.61,0.78 454.09,5.16 462.82,13.89 C471.6,22.63 475.98,33.13 475.98,45.39 C475.98,57.71 471.58,68.17 462.77,76.76 C453.92,85.39 443.23,89.71 430.72,89.71 C419.65,89.71 409.71,85.87 400.9,78.21 C391.2,69.73 386.34,58.62 386.34,44.88" id="Shape" fill="#0FCE7C" fill-rule="nonzero"></path>
                <polygon id="Shape" fill="#FFFFFF" points="514.1 16.06 527.04 16.06 527.04 101.81 514.1 101.81"></polygon>
                <polygon id="Path" fill="#FFFFFF" points="577.22 101.81 577.22 10.23 639.76 75.65 639.76 16.06 652.7 16.06 652.7 107.03 590.16 41.78 590.16 101.81 577.22 101.81"></polygon>
            </g>
            <g id="Helmet">
                <polygon id="Shape" fill="#FFFFFF" fill-rule="nonzero" points="115.39 107.9 129.34 135.4 118.76 180.36 93.54 159.76 97.96 126.78 115.39 107.9"></polygon>
                <path d="M78.14,98.69 C75.2349822,98.69 72.88,96.3350178 72.88,93.43 L72.88,52.01 C73.0027475,49.1968324 75.3191557,46.9792924 78.135,46.9792924 C80.9508443,46.9792924 83.2672525,49.1968324 83.39,52.01 L83.39,93.43 C83.39,96.33 81.04,98.69 78.14,98.69" id="Shape" fill="#15003E" fill-rule="nonzero"></path>
                <path d="M86.57,98.69 L70.32,98.69 C67.5068324,98.5672525 65.2892924,96.2508443 65.2892924,93.435 C65.2892924,90.6191557 67.5068324,88.3027475 70.32,88.18 L86.57,88.18 C89.3831676,88.3027475 91.6007076,90.6191557 91.6007076,93.435 C91.6007076,96.2508443 89.3831676,98.5672525 86.57,98.69" id="Shape" fill="#15003E" fill-rule="nonzero"></path>
                <path d="M115.39,107.9 L132.66,91.63 C109.28744,68.2574329 73.1304132,63.4972664 44.5049855,80.0241636 C15.8795578,96.5510608 1.92346722,130.244047 10.4784223,162.171562 C19.0333773,194.099076 47.9662038,216.300007 81.02,216.3 C96.05,216.3 109.28,221.79 120.89,214 L135.34,216 L134.93,192.53 L93.53,159.76 L102.43,117.84 L115.39,107.9" id="Shape" fill="#FFFFFF" fill-rule="nonzero"></path>
                <path d="M81.02,223.46 C36.8,223.46 0.82,187.49 0.82,143.26 C0.82,99.05 36.8,63.06 81.02,63.06 C102.299981,63.0066224 122.716926,71.468672 137.72,86.56 L142.95,91.78 L120.31,113.12 L110.47,102.69 L122.07,91.75 C110.425643,82.421488 95.9401342,77.3577353 81.02,77.4 C44.6609018,77.4440913 15.1985711,106.910896 15.16,143.27 C15.2040803,179.625199 44.6648007,209.08592 81.02,209.13" id="Shape" fill="#15003E" fill-rule="nonzero"></path>
                <path d="M121.27,182.27 L110.97,172.29 C118.528941,164.523341 122.749706,154.107814 122.73,143.27 C122.73,131.89 118.24,121.27 110.08,113.34 L104.71,108.12 L110.47,102.69 L115.37,107.89 L120.07,103.06 C130.979242,113.582659 137.119674,128.102974 137.07,143.26 C137.097827,157.824383 131.427075,171.821808 121.27,182.26" id="Shape" fill="#0FCE7C" fill-rule="nonzero"></path>
                <path d="M64.53,143.27 C64.53,134.162824 71.9128245,126.78 81.02,126.78 C90.1271755,126.78 97.51,134.162824 97.51,143.27 C97.51,152.377176 90.1271755,159.76 81.02,159.76 C71.9128245,159.76 64.53,152.377176 64.53,143.27" id="Shape" fill="#EFF4EE" fill-rule="nonzero"></path>
                <path d="M81.02,133.94 C75.9887717,134.104781 71.9954096,138.231074 71.9954096,143.265 C71.9954096,148.298926 75.9887717,152.425219 81.02,152.59 C86.0512283,152.425219 90.0445904,148.298926 90.0445904,143.265 C90.0445904,138.231074 86.0512283,134.104781 81.02,133.94 M81.02,166.92 C67.961413,166.908981 57.3765392,156.328581 57.36,143.27 C57.3710279,130.207513 67.9575134,119.621028 81.02,119.61 C94.0824866,119.621028 104.668972,130.207513 104.68,143.27 C104.663461,156.328581 94.078587,166.908981 81.02,166.92 M132.66,91.62 L90.99,130.13" id="Shape" fill="#15003E" fill-rule="nonzero"></path>
                <polygon id="Shape" fill="#15003E" points="127.8 86.36 137.53 96.89 95.85 135.39 86.12 124.87 127.8 86.36"></polygon>
                <polyline id="Shape" fill="#FFFFFF" fill-rule="nonzero" points="88.8 157.8 118.76 180.36 134.93 192.53 134.93 223.46 102.43 221.9"></polyline>
                <polygon id="Shape" fill="#15003E" fill-rule="nonzero" points="142.1 223.46 79.72 223.46 79.72 209.13 127.76 209.13 127.76 196.11 84.49 163.53 93.11 152.08 142.1 188.96 142.1 223.46"></polygon>
                <path d="M147.18,55.95 L152.93,50.21 L158.67,55.95 L152.93,61.7 L147.18,55.95 Z M122.49,28.26 L125.23,25.51 L127.98,28.26 L125.23,31 L122.49,28.26 Z" id="Shape" fill="#25E899"></path>
                <path d="M156.51,4.14 C156.51,1.85354114 154.656459,1.40005226e-16 152.37,0 C150.083541,-1.40005226e-16 148.23,1.85354114 148.23,4.14 C148.23,6.42645886 150.083541,8.28 152.37,8.28 C154.656459,8.28 156.51,6.42645886 156.51,4.14" id="Shape" fill="#25E899" fill-rule="nonzero"></path>
                <path d="M53.26,113.16 C50.3549822,113.16 48,110.805018 48,107.9 L48,52 C48.1227475,49.1868324 50.4391557,46.9692924 53.255,46.9692924 C56.0708443,46.9692924 58.3872525,49.1868324 58.51,52 L58.51,107.9 C58.51,110.8 56.16,113.16 53.26,113.16" id="Shape" fill="#15003E" fill-rule="nonzero"></path>
            </g>
        </g>
    </g>
</svg>