<?xml version="1.0" encoding="UTF-8"?>
<svg width="208px" height="300px" viewBox="0 0 208 300" version="1.1" xmlns="http://www.w3.org/2000/svg" xmlns:xlink="http://www.w3.org/1999/xlink">
    <!-- Generator: Sketch 48.2 (47327) - http://www.bohemiancoding.com/sketch -->
    <title>Layer-1</title>
    <desc>Created with Sketch.</desc>
    <defs></defs>
    <g id="Page-1" stroke="none" stroke-width="1" fill="none" fill-rule="evenodd">
        <g id="GitCoinTips" transform="translate(-47.000000, -484.000000)" fill-rule="nonzero">
            <g id="Layer-1" transform="translate(47.000000, 484.000000)">
                <g id="Group">
                    <path d="M129.852,194.461 C112.826,211.867 80.726,208.565 67.327,188.538 C62.114,180.738 61.125,171.734 61.682,162.588 C62.12,155.448 65.707,149.075 69.856,143.362 C71.022,141.754 72.239,140.185 73.477,138.633 L73.563,138.633 C73.728,138.365 73.91,138.104 74.125,137.865 C74.171,137.785 74.216,137.706 74.268,137.633 C74.467,137.291 74.706,136.984 74.961,136.7 C75.115,136.512 75.269,136.33 75.422,136.148 C75.496,136.074 75.576,136.018 75.649,135.949 C78.667,132.254 81.738,128.6 84.54,124.734 C88.24,119.623 93.317,112.672 92.549,105.946 C92.544,105.878 92.521,105.821 92.51,105.759 L95.301,105.759 C95.307,107.266 95.557,108.748 96.279,110.119 C97.478,112.398 99.911,112.995 102.282,112.967 C101.35,114.172 100.906,115.74 101.031,117.361 C101.19,119.486 102.304,121.096 103.918,122.057 C102.657,122.966 101.792,124.33 101.764,125.996 C101.73,128.07 103.259,129.275 105.016,129.861 C103.18,130.686 101.798,132.317 101.764,134.426 C101.73,136.535 103.305,137.752 105.101,138.32 C105.226,138.553 105.431,138.746 105.738,138.86 C109.143,140.116 113.9,139.252 117.34,138.542 C117.709,138.468 118.164,138.365 118.63,138.234 C118.71,138.291 118.801,138.349 118.903,138.395 C130.039,143.316 137.441,152.418 138.873,164.6 C140.135,175.338 137.549,186.588 129.852,194.461 Z M63.285,135.791 C60.977,130.691 57.447,120.107 60.943,108.311 L77.059,108.311 C77.923,108.311 78.378,107.674 78.423,107.004 C79.674,105.025 80.356,102.825 81.266,100.688 C82.51,97.772 84.517,96.635 87.672,96.561 L100.86,96.561 C100.912,96.68 100.974,96.794 101.065,96.908 C103.851,100.358 103.72,105.713 103.685,110.062 C103.652,110.067 103.623,110.062 103.589,110.067 C101.673,110.334 99.576,110.283 98.581,108.397 C97.677,106.674 98.172,104.133 98.513,102.342 C98.86,100.551 96.12,99.789 95.772,101.586 C95.687,102.023 95.614,102.467 95.545,102.916 L91.663,102.916 C90.98,101.586 88.639,102.348 89.048,104.002 C90.242,108.834 85.813,112.199 81.516,112.916 C79.708,113.217 80.475,115.957 82.266,115.656 C84.557,115.275 86.728,114.269 88.445,112.824 C87.468,115.104 86.103,117.27 84.87,119.22 C81.623,124.348 77.747,129.061 73.91,133.75 C73.358,134.426 72.784,135.108 72.216,135.791 L63.285,135.791 Z M60.409,139.19 C57.305,132.692 52.706,118.833 58.834,101.876 L61.012,101.876 C53.775,116.866 58.596,131.055 61.41,137.127 C61.381,137.639 61.591,138.155 62.04,138.428 C62.16,138.667 62.273,138.883 62.381,139.076 C61.722,139.07 61.068,139.133 60.409,139.19 Z M61.841,95.015 C62.927,96.913 65.877,100.54 67.207,105.469 L65.087,105.469 C64.962,104.19 64.581,102.962 64.456,101.683 C64.411,101.188 64.161,100.836 63.831,100.608 C63.905,99.852 63.45,99.033 62.466,99.033 L59.948,99.033 C60.511,97.709 61.142,96.367 61.841,95.015 Z M113.952,86.17 C113.128,87.568 112.491,89.08 111.974,90.7 C111.911,90.831 111.866,90.979 111.849,91.138 C111.809,91.32 111.803,91.484 111.831,91.639 C111.877,94.378 111.86,97.112 111.752,99.852 C111.695,101.393 112.104,104.23 110.729,105.258 C109.654,106.06 107.926,105.867 106.715,105.622 C106.613,105.6 106.522,105.594 106.431,105.594 C106.215,101.74 105.493,97.891 103.077,94.896 C102.913,94.69 102.73,94.565 102.543,94.492 C102.344,94.055 101.94,93.719 101.315,93.719 L89.673,93.719 C89.792,93.52 89.861,93.27 89.849,92.969 C89.775,91.404 89.229,89.904 88.422,88.518 C96.648,90.763 105.766,88.83 113.952,86.17 Z M100.479,82.844 C105.175,81.52 112.059,79.297 116.544,82.287 C108.21,85.26 98.285,88.17 89.531,85.897 C93.271,85.237 97.012,83.827 100.479,82.844 Z M119.432,104.906 C119.705,106.583 120.251,110.022 119.074,110.767 C117.937,111.488 116.283,111.648 114.981,111.858 C112.491,112.25 109.029,112.75 106.545,111.921 C106.511,111.818 106.466,111.722 106.409,111.637 C106.482,111.472 106.522,111.278 106.522,111.057 C106.522,110.21 106.522,109.34 106.517,108.465 C109.313,108.908 112.281,108.498 113.872,105.884 C114.054,105.594 114.174,105.258 114.276,104.906 L119.432,104.906 Z M119.074,118.998 C117.937,119.726 116.283,119.879 114.981,120.09 C112.877,120.425 110.081,120.834 107.767,120.447 C107.574,120.322 107.352,120.237 107.079,120.215 C105.311,120.055 104.203,119.016 103.862,117.299 C103.612,116.02 104.248,114.513 105.436,113.961 C105.527,114.029 105.624,114.086 105.738,114.127 C109.143,115.383 113.9,114.519 117.34,113.809 C117.932,113.69 118.716,113.513 119.449,113.234 C119.727,114.945 120.228,118.271 119.074,118.998 Z M119.074,135.5 C117.937,136.223 116.283,136.382 114.981,136.586 C112.9,136.922 110.144,137.325 107.841,136.961 C107.67,136.751 107.415,136.604 107.079,136.574 C105.766,136.473 103.987,136.018 103.896,134.426 C103.816,133.022 105.135,132.004 106.334,131.635 C106.886,131.465 107.102,130.998 107.074,130.549 C110.28,131.345 114.441,130.498 117.459,129.781 C117.999,129.656 118.699,129.481 119.364,129.219 C119.591,130.651 120.358,134.682 119.074,135.5 Z M119.097,126.69 C118.005,127.428 116.436,127.627 115.168,127.866 C112.741,128.32 109.262,128.912 106.863,128.031 C106.585,127.929 106.34,127.934 106.136,128.008 C105.044,127.775 103.964,127.224 103.896,125.996 C103.816,124.592 105.135,123.568 106.334,123.199 C106.477,123.153 106.596,123.086 106.698,123.006 C106.829,123.023 106.954,123.045 107.079,123.057 C107.42,123.086 107.693,123.012 107.903,122.875 C110.979,123.278 114.583,122.613 117.34,122.045 C117.954,121.914 118.772,121.738 119.529,121.438 C119.807,123.222 120.12,125.996 119.097,126.69 Z M140.221,157.216 C137.344,147.683 130.244,140.64 121.421,136.444 C122.581,134.153 121.978,130.885 121.615,128.475 C121.569,128.195 121.456,127.985 121.297,127.85 C121.331,127.803 121.359,127.758 121.382,127.713 C122.592,125.394 121.984,122.102 121.615,119.652 C121.609,119.623 121.598,119.601 121.592,119.578 C122.525,117.31 121.962,114.258 121.615,111.978 C121.586,111.824 121.541,111.699 121.478,111.591 C122.559,109.307 121.973,106.117 121.615,103.752 C121.746,102.967 121.297,102.064 120.262,102.064 L114.588,102.064 C114.595,101.273 114.566,100.506 114.595,99.852 C114.719,97.096 114.719,94.338 114.674,91.575 C115.589,88.676 116.902,86.277 119.182,84.214 C119.449,83.975 119.574,83.662 119.585,83.344 C120.183,82.861 120.45,81.957 119.75,81.258 C117.352,78.848 114.276,78.068 111.081,78.068 C108.404,78.068 105.641,78.615 103.134,79.206 C96.977,80.655 90.185,84.095 83.738,83.305 C83.477,83.271 83.261,83.311 83.073,83.39 C82.067,83.606 81.322,84.867 82.306,85.732 C82.42,85.828 82.533,85.931 82.652,86.039 C82.704,86.096 82.761,86.147 82.829,86.197 C84.722,87.943 86.888,90.393 87.007,92.969 C87.019,93.241 87.098,93.463 87.212,93.656 C87.223,93.679 87.229,93.701 87.246,93.719 L86.535,93.719 C86.291,93.719 86.086,93.775 85.904,93.861 C83.471,94.196 81.408,95.197 79.839,97.352 C78.077,99.768 77.593,102.91 76.03,105.469 L69.595,105.469 C67.617,97.812 63.336,93.014 62.831,92.28 C62.654,91.877 62.285,91.565 61.71,91.565 L2.022,91.565 L2.022,145.125 L61.71,145.125 C62.313,145.125 62.694,144.783 62.859,144.357 C63.933,142.413 64.86,140.509 65.656,138.633 L69.862,138.633 C68.259,140.611 66.73,142.651 65.502,144.852 C63.177,149.013 60.346,152.992 59.403,157.744 C57.106,169.307 59.067,182.023 66.031,191.636 C72.466,200.516 82.647,206.075 93.334,207.94 C112.969,211.361 135.093,201.181 140.596,181.097 C142.682,173.474 142.5,164.771 140.221,157.216 Z" id="Shape" fill="#15003E"></path>
                    <path d="M142.198,271.312 C141.516,270.3 140.498,268.628 139.487,266.417 C138.98,265.827 138.622,265.127 138.554,264.394 C138.549,264.332 138.56,264.274 138.571,264.223 L138.571,264.217 C138.35,263.632 138.134,263.03 137.929,262.393 C137.724,261.762 137.531,261.102 137.355,260.42 L138.947,260.42 C138.958,260.568 138.975,260.716 138.998,260.864 C139.01,260.977 139.026,261.085 139.043,261.2 C139.129,261.739 139.242,262.274 139.339,262.807 C139.503,262.842 139.652,262.944 139.76,263.092 C139.969,263.376 140.072,263.626 140.135,263.973 C140.175,264.207 140.214,264.461 140.31,264.684 C140.373,264.837 140.396,264.997 140.368,265.144 C140.868,265.827 141.459,266.413 142.266,266.838 C142.295,266.85 142.312,266.867 142.335,266.884 L142.34,266.884 C142.357,266.901 142.375,266.917 142.391,266.935 L144.54,266.935 C143.869,268.373 143.091,269.834 142.198,271.312 Z M135.343,256.435 C134.916,255.702 134.115,255.617 133.399,255.924 C132.466,256.322 131.881,257.152 131.488,258.05 C131.335,258.409 131.187,258.76 130.988,259.096 C130.966,259.129 130.948,259.159 130.937,259.181 C130.891,259.226 130.846,259.272 130.795,259.318 C130.806,259.3 130.772,259.318 130.681,259.38 C130.681,259.358 130.306,259.482 130.329,259.477 C129.851,259.579 129.561,259.858 129.419,260.193 L106.641,260.193 C99.734,260.239 93.748,256.31 88.592,252.064 C86.307,250.182 84.278,248.022 82.271,245.862 C80.389,243.833 77.814,240.467 77.627,237.62 C77.314,232.776 83.186,237.881 84.471,239.052 C86.711,241.098 88.62,243.458 90.798,245.561 C92.896,247.59 95.505,249.022 98.029,250.45 C100.502,251.842 102.741,253.156 105.646,253.297 C107.482,253.388 107.471,250.592 105.646,250.5 C101.888,250.319 97.705,247.22 94.692,245.128 C91.304,242.781 88.837,239.228 85.807,236.465 C84.426,235.198 82.629,233.612 80.691,232.844 C80.349,232.02 80.116,231.196 80.065,230.406 C79.753,225.489 85.625,230.673 86.909,231.867 C89.15,233.942 91.059,236.34 93.237,238.478 C95.334,240.541 97.944,241.997 100.473,243.452 C102.94,244.868 105.18,246.203 108.085,246.345 C109.921,246.436 109.909,243.594 108.085,243.502 C104.327,243.321 100.143,240.166 97.13,238.045 C93.743,235.653 91.275,232.043 88.251,229.235 C87.859,228.871 87.432,228.484 86.984,228.092 C86.483,227.051 86.137,225.995 86.074,225.005 C85.756,220.083 91.628,225.267 92.918,226.46 C95.152,228.536 97.063,230.94 99.239,233.078 C101.337,235.135 103.946,236.59 106.476,238.045 C108.943,239.461 111.183,240.797 114.094,240.945 C115.924,241.03 115.912,238.188 114.094,238.102 C110.33,237.916 106.146,234.766 103.134,232.64 C99.745,230.247 97.279,226.636 94.254,223.829 C93.373,223.01 92.322,222.06 91.178,221.276 C91.082,216.791 96.767,221.804 98.034,222.982 C100.268,225.056 102.178,227.456 104.355,229.592 C106.453,231.656 109.062,233.112 111.592,234.561 C113.758,235.812 115.754,236.988 118.18,237.358 C118.425,237.54 118.726,237.66 119.056,237.682 C121.449,237.835 123.791,236.198 123.888,233.703 C123.905,233.253 123.746,232.924 123.502,232.691 C123.445,232.532 123.365,232.373 123.24,232.224 C121.682,230.332 119.482,229.501 117.294,228.564 C115.736,227.899 114.406,227.148 113.473,225.687 C113.013,224.954 112.308,222.43 113.605,221.93 C113.94,221.799 114.44,221.828 114.895,221.862 C120.21,223.271 125.23,225.511 130.186,227.865 C131.312,231.958 132.824,235.942 132.677,240.251 C132.614,242.082 135.456,242.076 135.519,240.251 C135.547,239.381 135.519,238.529 135.439,237.682 L141.738,237.682 C143.779,242.104 145.956,249.37 143.812,257.579 L135.473,257.579 C135.576,257.191 135.53,256.753 135.343,256.435 Z M144.415,234.333 C147.343,240.211 150.76,251.046 145.728,264.138 C145.615,264.11 145.49,264.092 145.359,264.092 L143.602,264.092 C149.23,252.815 146.115,242.223 143.437,236.454 C143.506,235.874 143.261,235.254 142.71,234.982 C142.63,234.823 142.551,234.675 142.471,234.527 C142.994,234.499 143.511,234.453 144.028,234.414 C144.165,234.408 144.296,234.374 144.415,234.333 Z M142.323,227.7 C141.8,227.7 141.459,227.978 141.294,228.342 C139.873,230.553 138.719,232.725 137.77,234.839 L135.001,234.839 C134.455,232.139 133.569,229.496 132.847,226.813 C132.762,226.5 132.602,226.273 132.409,226.108 C132.301,225.858 132.102,225.636 131.773,225.483 C126.747,223.095 121.654,220.793 116.287,219.298 C116.077,219.15 115.816,219.053 115.492,219.047 L115.406,219.047 C115.366,219.042 115.327,219.025 115.287,219.019 C114.969,218.934 114.685,218.957 114.44,219.053 C113.15,219.082 111.985,219.287 111.075,220.423 C109.79,222.032 109.921,224.238 110.541,226.08 C112.183,230.962 117.953,230.667 120.989,233.975 C120.83,234.402 120.358,234.668 119.824,234.783 C119.647,234.692 119.442,234.629 119.21,234.618 C115.447,234.43 111.262,231.281 108.25,229.155 C104.862,226.767 102.395,223.158 99.37,220.349 C97.426,218.542 94.675,216.081 91.861,216.216 C89.968,216.307 88.825,218.178 88.478,219.923 C87.91,219.758 87.33,219.667 86.745,219.696 C84.516,219.809 83.323,222.379 83.255,224.317 C83.238,224.766 83.272,225.205 83.328,225.63 C82.487,225.273 81.617,225.062 80.742,225.102 C78.514,225.215 77.314,227.785 77.251,229.723 C77.218,230.702 77.365,231.627 77.632,232.52 C75.836,233.043 74.87,235.244 74.807,236.943 C74.705,239.848 76.245,242.281 77.729,244.691 C79.741,247.954 82.959,250.831 85.801,253.372 C91.264,258.266 98.114,262.66 105.618,263.001 C105.715,263.024 105.822,263.036 105.93,263.036 L130.186,263.036 C130.891,263.036 131.318,262.615 131.483,262.103 C132.352,261.807 133.034,261.21 133.501,260.42 L135.166,260.42 C135.177,260.471 135.189,260.528 135.2,260.58 C136.963,267.628 140.214,272.267 141.135,273.478 C141.261,273.978 141.652,274.405 142.323,274.405 L205.53,274.405 L205.53,227.7 L142.323,227.7 Z" id="Shape" fill="#15003E"></path>
                    <path d="M130.374,248.056 C127.895,248.176 125.309,247.601 123.336,246.037 C122.012,244.993 121.267,243.577 120.619,242.047 C119.914,240.376 122.364,238.926 123.075,240.61 C123.524,241.672 124.013,242.974 124.939,243.707 C126.497,244.941 128.43,245.311 130.374,245.214 C132.209,245.123 132.199,247.965 130.374,248.056" id="Shape" fill="#15003E"></path>
                    <path d="M145.728,264.138 C145.614,264.11 145.489,264.092 145.359,264.092 L143.602,264.092 C149.229,252.815 146.115,242.223 143.437,236.453 C143.505,235.873 143.261,235.254 142.709,234.982 C142.63,234.823 142.55,234.675 142.471,234.527 C142.994,234.498 143.511,234.452 144.028,234.413 C144.165,234.408 144.295,234.373 144.415,234.333 C147.342,240.211 150.759,251.046 145.728,264.138 Z M142.198,271.312 C141.517,270.3 140.498,268.628 139.486,266.417 C139.18,265.736 138.873,265.002 138.571,264.223 L138.571,264.217 C138.35,263.638 138.134,263.03 137.929,262.393 C137.724,261.762 137.531,261.102 137.355,260.42 L138.946,260.42 C138.957,260.568 138.975,260.716 138.998,260.864 C139.009,260.977 139.026,261.085 139.043,261.2 C139.128,261.739 139.243,262.274 139.339,262.807 C139.395,263.092 139.447,263.376 139.493,263.66 C139.583,263.705 139.668,263.774 139.726,263.893 C140.18,264.86 140.805,266.286 141.875,266.782 C141.931,266.782 141.994,266.786 142.056,266.81 C142.09,266.81 142.26,266.867 142.334,266.884 L142.34,266.884 C142.381,266.889 142.415,266.917 142.448,266.935 L144.541,266.935 C143.869,268.372 143.09,269.834 142.198,271.312 Z M135.342,256.435 C134.917,255.701 134.114,255.617 133.398,255.924 C132.466,256.322 131.88,257.152 131.488,258.05 C131.335,258.409 131.186,258.76 130.988,259.096 C130.965,259.129 130.948,259.159 130.937,259.181 C130.891,259.226 130.846,259.272 130.794,259.318 C130.806,259.3 130.772,259.318 130.681,259.38 C130.681,259.358 130.306,259.482 130.329,259.477 C129.851,259.578 129.561,259.858 129.419,260.193 L106.641,260.193 C99.733,260.239 93.748,256.31 88.592,252.064 C86.307,250.182 84.277,248.022 82.27,245.862 C80.389,243.832 77.814,240.467 77.627,237.619 C77.314,232.776 83.186,237.881 84.471,239.052 C86.71,241.098 88.62,243.457 90.797,245.561 C92.895,247.59 95.504,249.022 98.028,250.45 C100.501,251.842 102.741,253.156 105.646,253.297 C107.481,253.388 107.472,250.592 105.646,250.5 C101.889,250.319 97.705,247.22 94.692,245.128 C91.305,242.781 88.837,239.228 85.808,236.465 C84.426,235.198 82.629,233.612 80.691,232.844 C80.35,232.02 80.116,231.196 80.065,230.406 C79.752,225.489 85.625,230.673 86.909,231.867 C89.149,233.942 91.059,236.34 93.236,238.478 C95.335,240.541 97.943,241.996 100.473,243.451 C102.941,244.867 105.181,246.202 108.085,246.345 C109.92,246.436 109.91,243.594 108.085,243.502 C104.328,243.321 100.144,240.166 97.131,238.045 C93.744,235.653 91.276,232.043 88.252,229.235 C87.86,228.87 87.432,228.484 86.984,228.092 C86.484,227.051 86.138,225.994 86.075,225.005 C85.755,220.082 91.628,225.267 92.919,226.46 C95.152,228.535 97.062,230.94 99.24,233.077 C101.337,235.135 103.947,236.59 106.477,238.045 C108.943,239.461 111.184,240.797 114.094,240.945 C115.925,241.03 115.913,238.188 114.094,238.102 C110.331,237.915 106.147,234.766 103.134,232.64 C99.746,230.246 97.279,226.636 94.255,223.828 C93.374,223.01 92.322,222.06 91.179,221.276 C91.083,216.791 96.768,221.804 98.035,222.982 C100.269,225.056 102.179,227.455 104.356,229.592 C106.453,231.656 109.063,233.112 111.593,234.561 C113.758,235.812 115.754,236.988 118.181,237.358 C118.425,237.539 118.727,237.659 119.057,237.682 C121.45,237.835 123.792,236.198 123.889,233.702 C123.906,233.253 123.747,232.924 123.502,232.691 C123.445,232.532 123.366,232.372 123.241,232.224 C121.683,230.331 119.483,229.501 117.295,228.564 C115.737,227.899 114.407,227.148 113.474,225.687 C113.014,224.953 112.309,222.43 113.605,221.93 C113.94,221.799 114.441,221.827 114.896,221.862 C120.211,223.271 125.23,225.511 130.187,227.865 C131.313,231.957 132.825,235.942 132.677,240.251 C132.614,242.081 135.457,242.076 135.52,240.251 C135.548,239.381 135.52,238.529 135.44,237.682 L141.739,237.682 C143.779,242.104 145.957,249.369 143.813,257.578 L135.474,257.578 C135.577,257.191 135.53,256.753 135.343,256.435 L135.342,256.435 Z M142.33,230.706 C142.54,231.019 142.785,231.4 143.051,231.844 C142.58,231.878 142.107,231.901 141.636,231.895 C141.857,231.497 142.09,231.105 142.33,230.706 Z M205.531,227.7 L142.324,227.7 C141.801,227.7 141.46,227.978 141.295,228.342 C139.874,230.553 138.72,232.725 137.771,234.839 L135.002,234.839 C134.456,232.139 133.57,229.495 132.848,226.813 C132.763,226.5 132.603,226.273 132.41,226.108 C132.302,225.858 132.102,225.636 131.773,225.483 C126.748,223.095 121.655,220.793 116.287,219.298 C116.078,219.15 115.816,219.053 115.493,219.047 L115.407,219.047 C115.367,219.042 115.328,219.025 115.288,219.019 C114.97,218.934 114.686,218.956 114.441,219.053 C113.15,219.081 111.985,219.286 111.076,220.423 C109.791,222.032 109.921,224.238 110.541,226.079 C112.184,230.962 117.954,230.667 120.99,233.975 C120.831,234.402 120.358,234.668 119.825,234.783 C119.648,234.692 119.443,234.629 119.21,234.617 C115.447,234.43 111.263,231.281 108.25,229.155 C104.862,226.767 102.396,223.158 99.371,220.349 C97.427,218.542 94.676,216.08 91.862,216.216 C89.969,216.307 88.826,218.178 88.479,219.923 C87.911,219.758 87.331,219.667 86.746,219.696 C84.517,219.809 83.324,222.379 83.255,224.317 C83.238,224.766 83.272,225.204 83.329,225.63 C82.488,225.273 81.618,225.062 80.743,225.102 C78.515,225.215 77.315,227.784 77.252,229.723 C77.218,230.701 77.366,231.627 77.633,232.52 C75.837,233.043 74.871,235.243 74.808,236.943 C74.706,239.848 76.246,242.281 77.73,244.691 C79.742,247.953 82.959,250.83 85.802,253.371 C91.265,258.266 98.115,262.659 105.619,263.001 C105.715,263.024 105.823,263.035 105.931,263.035 L130.187,263.035 C130.892,263.035 131.319,262.615 131.483,262.103 C132.353,261.807 133.035,261.21 133.501,260.42 L135.167,260.42 C135.178,260.471 135.189,260.528 135.201,260.579 C136.963,267.628 140.215,272.267 141.136,273.478 C141.261,273.978 141.653,274.405 142.324,274.405 L205.531,274.405 L205.531,271.84 L144.348,271.84 C151.59,259.453 151.1,248.539 149.322,241.434 C148.003,236.153 145.848,232.236 144.461,230.087 L205.531,230.087 L205.531,227.7 Z" id="Shape" fill="#15003E"></path>
                    <path d="M140.163,234.686 C140.191,234.737 140.226,234.789 140.254,234.839 L140.095,234.839 C140.118,234.789 140.141,234.737 140.163,234.686" id="Shape" fill="#15003E"></path>
                    <path d="M37.666,135.76 C37.666,133.633 35.941,131.908 33.814,131.908 C31.687,131.908 29.961,133.633 29.961,135.76 C29.961,137.888 31.687,139.613 33.814,139.613 C35.941,139.613 37.666,137.888 37.666,135.76" id="Shape" fill="#0FCE7C"></path>
                    <path d="M27.718,135.76 C27.718,133.633 25.994,131.908 23.866,131.908 C21.739,131.908 20.014,133.633 20.014,135.76 C20.014,137.888 21.739,139.613 23.866,139.613 C25.994,139.613 27.718,137.888 27.718,135.76" id="Shape" fill="#0FCE7C"></path>
                    <path d="M47.756,135.76 C47.756,133.633 46.032,131.908 43.904,131.908 C41.777,131.908 40.052,133.633 40.052,135.76 C40.052,137.888 41.777,139.613 43.904,139.613 C46.032,139.613 47.756,137.888 47.756,135.76" id="Shape" fill="#0FCE7C"></path>
                    <path d="M162.1,264.282 C162.1,266.41 163.825,268.134 165.952,268.134 C168.079,268.134 169.804,266.41 169.804,264.282 C169.804,262.154 168.079,260.429 165.952,260.429 C163.825,260.429 162.1,262.154 162.1,264.282" id="Shape" fill="#0FCE7C"></path>
                    <path d="M152.151,264.282 C152.151,266.41 153.876,268.134 156.003,268.134 C158.13,268.134 159.855,266.41 159.855,264.282 C159.855,262.154 158.13,260.429 156.003,260.429 C153.876,260.429 152.151,262.154 152.151,264.282" id="Shape" fill="#0FCE7C"></path>
                    <path d="M172.189,264.282 C172.189,266.41 173.914,268.134 176.042,268.134 C178.168,268.134 179.893,266.41 179.893,264.282 C179.893,262.154 178.168,260.429 176.042,260.429 C173.914,260.429 172.189,262.154 172.189,264.282" id="Shape" fill="#0FCE7C"></path>
                    <path d="M129.852,194.461 C112.826,211.867 80.726,208.565 67.327,188.538 C62.114,180.738 61.125,171.734 61.682,162.588 C62.12,155.448 65.707,149.075 69.856,143.362 C71.022,141.754 72.239,140.185 73.477,138.633 L73.563,138.633 C73.728,138.365 73.91,138.104 74.125,137.865 C74.171,137.785 74.216,137.706 74.268,137.633 C74.467,137.291 74.706,136.984 74.961,136.7 C75.115,136.512 75.269,136.33 75.422,136.148 C75.496,136.074 75.576,136.018 75.649,135.949 C78.667,132.254 81.738,128.6 84.54,124.734 C88.24,119.623 93.317,112.672 92.549,105.946 C92.544,105.878 92.521,105.821 92.51,105.759 L95.301,105.759 C95.307,107.266 95.557,108.748 96.279,110.119 C97.478,112.398 99.911,112.995 102.282,112.967 C101.35,114.172 100.906,115.74 101.031,117.361 C101.19,119.486 102.304,121.096 103.918,122.057 C102.657,122.966 101.792,124.33 101.764,125.996 C101.73,128.07 103.259,129.275 105.016,129.861 C103.18,130.686 101.798,132.317 101.764,134.426 C101.73,136.535 103.305,137.752 105.101,138.32 C105.226,138.553 105.431,138.746 105.738,138.86 C109.143,140.116 113.9,139.252 117.34,138.542 C117.709,138.468 118.164,138.365 118.63,138.234 C118.71,138.291 118.801,138.349 118.903,138.395 C130.039,143.316 137.441,152.418 138.873,164.6 C140.135,175.338 137.549,186.588 129.852,194.461 Z M63.285,135.791 C60.977,130.691 57.447,120.107 60.943,108.311 L77.059,108.311 C77.923,108.311 78.378,107.674 78.423,107.004 C79.674,105.025 80.356,102.825 81.266,100.688 C82.51,97.772 84.517,96.635 87.672,96.561 L100.86,96.561 C100.912,96.68 100.974,96.794 101.065,96.908 C103.851,100.358 103.72,105.713 103.685,110.062 C103.652,110.067 103.623,110.062 103.589,110.067 C101.673,110.334 99.576,110.283 98.581,108.397 C97.677,106.674 98.172,104.133 98.513,102.342 C98.86,100.551 96.12,99.789 95.772,101.586 C95.687,102.023 95.614,102.467 95.545,102.916 L91.663,102.916 C90.98,101.586 88.639,102.348 89.048,104.002 C90.242,108.834 85.813,112.199 81.516,112.916 C79.708,113.217 80.475,115.957 82.266,115.656 C84.557,115.275 86.728,114.269 88.445,112.824 C87.468,115.104 86.103,117.27 84.87,119.22 C81.623,124.348 77.747,129.061 73.91,133.75 C73.358,134.426 72.784,135.108 72.216,135.791 L63.285,135.791 Z M60.409,139.19 C57.305,132.692 52.706,118.833 58.834,101.876 L61.012,101.876 C53.775,116.866 58.596,131.055 61.41,137.127 C61.381,137.639 61.591,138.155 62.04,138.428 C62.16,138.667 62.273,138.883 62.381,139.076 C61.722,139.07 61.068,139.133 60.409,139.19 Z M113.952,86.17 C113.128,87.568 112.491,89.08 111.974,90.7 C111.911,90.831 111.866,90.979 111.849,91.138 C111.809,91.32 111.803,91.484 111.831,91.639 C111.877,94.378 111.86,97.112 111.752,99.852 C111.695,101.393 112.104,104.23 110.729,105.258 C109.654,106.06 107.926,105.867 106.715,105.622 C106.613,105.6 106.522,105.594 106.431,105.594 C106.215,101.74 105.493,97.891 103.077,94.896 C102.913,94.69 102.73,94.565 102.543,94.492 C102.344,94.055 101.94,93.719 101.315,93.719 L89.673,93.719 C89.792,93.52 89.861,93.27 89.849,92.969 C89.775,91.404 89.229,89.904 88.422,88.518 C96.648,90.763 105.766,88.83 113.952,86.17 Z M100.479,82.844 C105.175,81.52 112.059,79.297 116.544,82.287 C108.21,85.26 98.285,88.17 89.531,85.897 C93.271,85.237 97.012,83.827 100.479,82.844 Z M119.432,104.906 C119.705,106.583 120.251,110.022 119.074,110.767 C117.937,111.488 116.283,111.648 114.981,111.858 C112.491,112.25 109.029,112.75 106.545,111.921 C106.511,111.818 106.466,111.722 106.409,111.637 C106.482,111.472 106.522,111.278 106.522,111.057 C106.522,110.21 106.522,109.34 106.517,108.465 C109.313,108.908 112.281,108.498 113.872,105.884 C114.054,105.594 114.174,105.258 114.276,104.906 L119.432,104.906 Z M119.074,118.998 C117.937,119.726 116.283,119.879 114.981,120.09 C112.877,120.425 110.081,120.834 107.767,120.447 C107.574,120.322 107.352,120.237 107.079,120.215 C105.311,120.055 104.203,119.016 103.862,117.299 C103.612,116.02 104.248,114.513 105.436,113.961 C105.527,114.029 105.624,114.086 105.738,114.127 C109.143,115.383 113.9,114.519 117.34,113.809 C117.932,113.69 118.716,113.513 119.449,113.234 C119.727,114.945 120.228,118.271 119.074,118.998 Z M119.074,135.5 C117.937,136.223 116.283,136.382 114.981,136.586 C112.9,136.922 110.144,137.325 107.841,136.961 C107.67,136.751 107.415,136.604 107.079,136.574 C105.766,136.473 103.987,136.018 103.896,134.426 C103.816,133.022 105.135,132.004 106.334,131.635 C106.886,131.465 107.102,130.998 107.074,130.549 C110.28,131.345 114.441,130.498 117.459,129.781 C117.999,129.656 118.699,129.481 119.364,129.219 C119.591,130.651 120.358,134.682 119.074,135.5 Z M119.097,126.69 C118.005,127.428 116.436,127.627 115.168,127.866 C112.741,128.32 109.262,128.912 106.863,128.031 C106.585,127.929 106.34,127.934 106.136,128.008 C105.044,127.775 103.964,127.224 103.896,125.996 C103.816,124.592 105.135,123.568 106.334,123.199 C106.477,123.153 106.596,123.086 106.698,123.006 C106.829,123.023 106.954,123.045 107.079,123.057 C107.42,123.086 107.693,123.012 107.903,122.875 C110.979,123.278 114.583,122.613 117.34,122.045 C117.954,121.914 118.772,121.738 119.529,121.438 C119.807,123.222 120.12,125.996 119.097,126.69 Z M140.221,157.216 C137.344,147.683 130.244,140.64 121.421,136.444 C122.581,134.153 121.978,130.885 121.615,128.475 C121.569,128.195 121.456,127.985 121.297,127.85 C121.331,127.803 121.359,127.758 121.382,127.713 C122.592,125.394 121.984,122.102 121.615,119.652 C121.609,119.623 121.598,119.601 121.592,119.578 C122.525,117.31 121.962,114.258 121.615,111.978 C121.586,111.824 121.541,111.699 121.478,111.591 C122.559,109.307 121.973,106.117 121.615,103.752 C121.746,102.967 121.297,102.064 120.262,102.064 L114.588,102.064 C114.595,101.273 114.566,100.506 114.595,99.852 C114.719,97.096 114.719,94.338 114.674,91.575 C115.589,88.676 116.902,86.277 119.182,84.214 C119.449,83.975 119.574,83.662 119.585,83.344 C120.183,82.861 120.45,81.957 119.75,81.258 C117.352,78.848 114.276,78.068 111.081,78.068 C108.404,78.068 105.641,78.615 103.134,79.206 C96.977,80.655 90.185,84.095 83.738,83.305 C83.477,83.271 83.261,83.311 83.073,83.39 C82.067,83.606 81.322,84.867 82.306,85.732 C82.42,85.828 82.533,85.931 82.652,86.039 C82.704,86.096 82.761,86.147 82.829,86.197 C84.722,87.943 86.888,90.393 87.007,92.969 C87.019,93.241 87.098,93.463 87.212,93.656 C87.223,93.679 87.229,93.701 87.246,93.719 L86.535,93.719 C86.291,93.719 86.086,93.775 85.904,93.861 C83.471,94.196 81.408,95.197 79.839,97.352 C78.077,99.768 77.593,102.91 76.03,105.469 L71.255,105.469 C70.973,105.699 70.61,105.832 70.166,105.783 C69.91,105.756 69.656,105.719 69.403,105.678 C68.874,106.162 68.148,106.379 67.543,106.123 C66.372,106.955 64.636,107.041 63.512,106.088 C62.907,105.574 63.413,104.686 64.061,104.609 C63.339,104.25 62.947,103.501 63.127,102.587 C63.315,101.63 63.463,100.596 63.488,99.565 C63.461,99.51 63.439,99.454 63.414,99.399 C63.187,99.18 62.875,99.033 62.466,99.033 L59.948,99.033 C60.366,98.05 60.834,97.055 61.328,96.055 C60.383,94.758 59.584,93.425 59.683,91.565 L2.022,91.565 L2.022,94.128 L59.744,94.128 C52.365,108.476 52.848,121.119 54.633,129.327 C55.69,134.21 57.282,138.07 58.589,140.685 C58.601,141.1 58.823,141.521 59.158,141.788 C59.306,142.066 59.448,142.328 59.584,142.566 L2.022,142.566 L2.022,145.125 L61.71,145.125 C62.313,145.125 62.694,144.783 62.859,144.357 C63.933,142.413 64.86,140.509 65.656,138.633 L69.862,138.633 C68.259,140.611 66.73,142.651 65.502,144.852 C63.177,149.013 60.346,152.992 59.403,157.744 C57.106,169.307 59.067,182.023 66.031,191.636 C72.466,200.516 82.647,206.075 93.334,207.94 C112.969,211.361 135.093,201.181 140.596,181.097 C142.682,173.474 142.5,164.771 140.221,157.216 Z" id="Shape" fill="#15003E"></path>
                    <path d="M102.707,191.364 L102.707,182.899 C106.22,180.801 109.727,178.699 113.241,176.601 C109.727,181.524 106.22,186.447 102.707,191.364 Z M101.814,191.432 C98.301,186.51 94.789,181.593 91.281,176.67 C94.789,178.767 98.301,180.864 101.814,182.968 L101.814,191.432 Z M114.531,174.794 C114.474,174.873 114.417,174.947 114.36,175.026 C110.438,177.374 106.516,179.721 102.593,182.064 C102.405,181.871 102.053,181.887 101.894,182.109 C97.983,179.773 94.066,177.431 90.155,175.094 C90.099,175.015 90.047,174.935 89.99,174.861 C89.564,174.264 88.575,174.833 89.001,175.435 C93.259,181.404 97.511,187.368 101.763,193.331 C102.099,193.797 102.775,193.547 102.849,193.132 C107.073,187.209 111.296,181.291 115.515,175.373 C115.946,174.77 114.952,174.196 114.531,174.794 Z" id="Shape" fill="#15003E"></path>
                    <path d="M102.89,178.784 L102.89,166.448 C106.847,168.273 110.831,170.041 114.759,171.939 C110.803,174.22 106.847,176.505 102.89,178.784 Z M102.89,152.435 C106.664,158.472 110.445,164.51 114.219,170.547 C110.467,168.757 106.664,167.062 102.89,165.317 L102.89,152.435 Z M101.634,165.386 C97.853,167.131 94.056,168.824 90.298,170.615 C94.078,164.578 97.853,158.541 101.634,152.499 L101.634,165.386 Z M101.634,178.852 C97.677,176.567 93.721,174.287 89.764,172.008 C93.686,170.109 97.671,168.336 101.634,166.511 L101.634,178.852 Z M116.084,171.582 C111.684,164.55 107.284,157.517 102.884,150.492 C102.708,150.208 102.395,150.196 102.173,150.327 C101.98,150.287 101.769,150.344 101.639,150.555 C97.239,157.586 92.839,164.618 88.44,171.644 C88.212,172.013 88.508,172.354 88.838,172.394 C93.243,174.941 97.654,177.482 102.06,180.023 C102.276,180.142 102.474,180.046 102.583,179.887 C106.949,177.369 111.314,174.85 115.68,172.332 C116.015,172.286 116.311,171.945 116.084,171.582 Z" id="Shape" fill="#15003E"></path>
                    <path d="M130.374,248.056 C127.895,248.176 125.309,247.601 123.336,246.037 C122.012,244.993 121.267,243.577 120.619,242.047 C119.914,240.376 122.364,238.926 123.075,240.61 C123.524,241.672 124.013,242.974 124.939,243.707 C126.497,244.941 128.43,245.311 130.374,245.214 C132.209,245.123 132.199,247.965 130.374,248.056" id="Shape" fill="#15003E"></path>
                    <polygon id="Shape" fill="#15003E" points="79.564 24.583 79.564 53.136 74.543 53.136 74.543 24.583 66.893 24.583 66.893 19.863 87.192 19.863 87.192 24.583 79.564 24.583"></polygon>
                    <path d="M95.597,53.136 L90.748,53.136 L90.748,32.147 L95.597,32.147 L95.597,53.136 Z M90.016,23.419 C90.016,22.572 90.325,21.839 90.942,21.221 C91.56,20.604 92.3,20.294 93.162,20.294 C94.038,20.294 94.786,20.604 95.403,21.221 C96.021,21.825 96.33,22.565 96.33,23.441 C96.33,24.318 96.021,25.065 95.403,25.682 C94.8,26.3 94.06,26.609 93.184,26.609 C92.307,26.609 91.56,26.3 90.942,25.682 C90.325,25.065 90.016,24.31 90.016,23.419 Z" id="Shape" fill="#15003E"></path>
                    <path d="M118.117,42.771 C118.117,40.76 117.571,39.123 116.479,37.858 C115.373,36.58 113.979,35.94 112.299,35.94 C110.517,35.94 109.073,36.558 107.967,37.793 C106.861,39.029 106.307,40.652 106.307,42.664 C106.307,44.631 106.861,46.255 107.967,47.534 C109.058,48.784 110.495,49.409 112.277,49.409 C113.958,49.409 115.344,48.776 116.436,47.512 C117.556,46.248 118.117,44.667 118.117,42.771 Z M106.588,64.558 L101.739,64.558 L101.739,32.147 L106.588,32.147 L106.588,34.431 C108.498,32.521 110.668,31.565 113.096,31.565 C115.983,31.565 118.361,32.628 120.229,34.754 C122.125,36.867 123.073,39.532 123.073,42.75 C123.073,45.896 122.132,48.518 120.25,50.615 C118.383,52.699 116.027,53.74 113.182,53.74 C110.725,53.74 108.527,52.756 106.588,50.788 L106.588,64.558 Z" id="Shape" fill="#15003E"></path>
                    <path d="M140.399,35.724 L136.391,37.858 C135.758,36.565 134.976,35.918 134.042,35.918 C133.596,35.918 133.215,36.066 132.899,36.36 C132.584,36.655 132.425,37.032 132.425,37.492 C132.425,38.296 133.359,39.093 135.227,39.883 C137.798,40.99 139.529,42.009 140.42,42.944 C141.311,43.877 141.756,45.134 141.756,46.714 C141.756,48.741 141.009,50.436 139.515,51.8 C138.064,53.093 136.312,53.74 134.257,53.74 C130.737,53.74 128.245,52.023 126.779,48.589 L130.917,46.671 C131.491,47.677 131.93,48.317 132.232,48.589 C132.82,49.135 133.524,49.409 134.343,49.409 C135.981,49.409 136.8,48.662 136.8,47.167 C136.8,46.305 136.168,45.5 134.904,44.753 C134.415,44.509 133.926,44.273 133.439,44.042 C132.95,43.813 132.454,43.576 131.951,43.331 C130.543,42.642 129.552,41.953 128.978,41.262 C128.245,40.386 127.878,39.258 127.878,37.879 C127.878,36.055 128.503,34.546 129.753,33.354 C131.032,32.161 132.584,31.565 134.408,31.565 C137.094,31.565 139.091,32.952 140.399,35.724" id="Shape" fill="#15003E"></path>
                    <path d="M8.645,4.868 C6.095,4.868 4.021,6.796 4.021,9.167 L4.021,291.032 C4.021,293.401 6.095,295.33 8.645,295.33 L198.907,295.33 C201.456,295.33 203.53,293.401 203.53,291.032 L203.53,9.166 C203.53,6.796 201.456,4.867 198.907,4.867 L8.645,4.867 L8.645,4.868 Z M198.907,299.331 L8.645,299.331 C3.891,299.331 0.022,295.608 0.022,291.032 L0.022,9.167 C0.022,4.591 3.891,0.868 8.646,0.868 L198.907,0.868 C203.662,0.868 207.53,4.591 207.53,9.167 L207.53,291.032 C207.53,295.608 203.662,299.331 198.907,299.331 Z" id="Shape" fill="#15003E"></path>
                </g>
            </g>
        </g>
    </g>
</svg>