<?xml version="1.0" encoding="UTF-8" standalone="no"?><!DOCTYPE svg PUBLIC "-//W3C//DTD SVG 1.1//EN" "http://www.w3.org/Graphics/SVG/1.1/DTD/svg11.dtd"><svg width="100%" height="100%" viewBox="0 0 85 81" version="1.1" xmlns="http://www.w3.org/2000/svg" xmlns:xlink="http://www.w3.org/1999/xlink" xml:space="preserve" xmlns:serif="http://www.serif.com/" style="fill-rule:evenodd;clip-rule:evenodd;stroke-linejoin:round;stroke-miterlimit:1.41421;"><rect id="Artboard1" x="0" y="0" width="84.358" height="80.642" style="fill:none;"/><clipPath id="_clip1"><rect x="0" y="0" width="84.358" height="80.642"/></clipPath><g clip-path="url(#_clip1)"><g id="Layer-5" serif:id="Layer 5"><path d="M-84.358,156.045c0,3.004 2.241,5.438 5.008,5.438l218.299,0c2.767,0 5.008,-2.434 5.008,-5.438l0,-159.357c0,-3.004 -2.241,-5.439 -5.008,-5.439l-218.299,0c-2.767,0 -5.008,2.435 -5.008,5.439l0,159.357Z" style="fill:#fff;fill-rule:nonzero;"/><path d="M-79.35,-7.446c-2.042,0 -3.704,1.854 -3.704,4.134l0,159.357c0,2.28 1.662,4.134 3.704,4.134l218.299,0c2.043,0 3.703,-1.854 3.703,-4.134l0,-159.357c0,-2.28 -1.66,-4.134 -3.703,-4.134l-218.299,0Zm218.299,170.235l-218.299,0c-3.479,0 -6.313,-3.024 -6.313,-6.744l0,-159.357c0,-3.718 2.834,-6.743 6.313,-6.743l218.299,0c3.481,0 6.314,3.025 6.314,6.743l0,159.357c0,3.72 -2.833,6.744 -6.314,6.744" style="fill:#171650;fill-rule:nonzero;"/><path d="M4.639,79.886l0,-0.821c0,-0.148 -0.039,-0.289 -0.106,-0.409l0.112,-0.113c0.106,0.073 0.208,0.149 0.312,0.222c-0.141,-0.159 -0.282,-0.323 -0.417,-0.497c-0.01,-0.005 -0.019,-0.01 -0.028,-0.014c-0.496,0.305 -1.105,0.451 -1.772,0.325c-0.704,-0.133 -1.399,-0.289 -2.09,-0.454c-0.004,0 -0.008,-0.001 -0.014,-0.001c-0.433,-0.013 -0.867,-0.014 -1.301,-0.016c-0.309,0 -0.581,-0.086 -0.815,-0.222c-0.1,-0.012 -0.198,-0.021 -0.297,-0.033c-1.105,-0.003 -2.197,-0.037 -3.276,-0.198c-0.464,-0.015 -0.928,-0.028 -1.392,-0.044c0.521,0.517 1.043,1.032 1.564,1.549c0.084,0.084 0.177,0.148 0.273,0.191l0,0.37c-0.39,0.053 -0.744,0.335 -0.744,0.84l0,79.926l10.314,0l0,-79.926c0,-0.311 -0.133,-0.533 -0.323,-0.675" style="fill:#31ffa6;fill-rule:nonzero;"/><path d="M36.826,54.923c-1.35,-0.958 -2.741,-1.863 -4.093,-2.828l0,-5.929c0,-1.137 -1.778,-1.137 -1.778,0l0,9.505c-0.003,0.004 -0.003,0.004 -0.007,0.008l-1.067,1.057c-0.102,0.103 -0.173,0.225 -0.216,0.36l-6.265,0c-0.14,0 -0.261,0.024 -0.365,0.067c-1.835,-1.815 -3.666,-3.632 -5.497,-5.451c-0.811,-0.804 -2.069,0.445 -1.259,1.249c1.838,1.821 3.678,3.641 5.512,5.465c0.086,0.083 0.178,0.147 0.274,0.19l0,0.37c-0.39,0.056 -0.743,0.339 -0.743,0.842l0,100.421c0,0.085 0.011,0.167 0.029,0.237l10.284,0l0,-100.658c0,-0.31 -0.131,-0.536 -0.324,-0.676l0,-0.823c0,-0.148 -0.039,-0.285 -0.106,-0.409l0.113,-0.112c0.157,0.112 0.31,0.221 0.465,0.331c0.017,0.011 0.033,0.02 0.048,0.037c0.004,0.002 0.011,0.005 0.015,0.011c0.301,0.213 0.608,0.431 0.906,0.648c0.267,0.185 0.53,0.381 0.794,0.567c0.002,0.006 0.006,0.006 0.009,0.01c0.282,0.202 0.559,0.202 0.783,0.088c0.004,0 0.004,0 0.008,-0.003c0.036,-0.011 0.073,-0.026 0.107,-0.042c-0.015,-0.008 -0.032,-0.011 -0.047,-0.018c-1.31,-0.667 -2.06,-2.309 -2.203,-3.762c-0.07,-0.19 -0.124,-0.387 -0.153,-0.597c-0.056,-0.416 0.094,-0.825 0.543,-0.947c0.095,-0.026 0.194,-0.032 0.292,-0.02c0.41,-0.202 0.911,-0.184 1.25,0.228c0.802,0.979 1.618,2.34 1.645,3.675c0.415,-0.506 0.813,-1.022 1.118,-1.613c0.381,-0.356 0.488,-1.076 -0.072,-1.478" style="fill:#ffce08;fill-rule:nonzero;"/><path d="M52.322,56.651l0,-2.046c0,-1.144 1.778,-1.144 1.778,0l0,2.046c0,1.147 -1.778,1.147 -1.778,0" style="fill:#31ffa6;fill-rule:nonzero;"/><path d="M55.256,56.473l0,-2.668c0,-1.144 1.779,-1.144 1.779,0l0,2.668c0,1.147 -1.779,1.147 -1.779,0" style="fill:#31ffa6;fill-rule:nonzero;"/><path d="M58.99,56.473l0,-3.112c0,-1.146 1.778,-1.146 1.778,0l0,3.112c0,1.147 -1.778,1.147 -1.778,0" style="fill:#31ffa6;fill-rule:nonzero;"/><path d="M69.102,55.315c-0.777,-1.16 -1.481,-2.365 -2.239,-3.537c-0.618,-0.952 -2.158,-0.07 -1.535,0.892c0.594,0.92 1.16,1.859 1.749,2.779c-0.683,0.49 -1.369,0.98 -2.052,1.473c-0.113,0.081 -0.229,0.164 -0.341,0.245c-0.132,0.093 -0.229,0.207 -0.289,0.327l-0.605,0l0,-3.234c0,-1.134 -1.777,-1.134 -1.777,0l0,3.349c0,0.347 0.163,0.587 0.391,0.72c-0.003,0.013 -0.003,0.031 -0.003,0.047c0,0.479 0.401,0.88 0.889,0.88l1.6,0c0.081,0 0.159,-0.009 0.234,-0.035l0,1.16c-0.125,0.039 -0.244,0.11 -0.359,0.223c-1.835,1.815 -3.667,3.63 -5.498,5.45c-0.106,-0.045 -0.228,-0.071 -0.366,-0.071l-6.266,0c-0.044,-0.13 -0.114,-0.253 -0.219,-0.355l-1.066,-1.057c-0.002,-0.006 -0.002,-0.006 -0.007,-0.009l0,-9.508c0,-1.135 -1.778,-1.135 -1.778,0l0,5.93c-0.396,0.283 -0.797,0.561 -1.198,0.837c0.086,-0.038 0.172,-0.076 0.266,-0.103c0.777,-0.22 1.385,0.212 1.625,0.832c0.376,0.08 0.697,0.339 0.806,0.822c0.165,0.713 0.06,1.569 -0.099,2.281c-0.163,0.725 -0.62,1.143 -1.175,1.586c-0.416,0.329 -1.207,0.358 -1.486,-0.141c-0.233,0.209 -0.506,0.372 -0.836,0.457c-0.134,0.036 -0.262,0.041 -0.387,0.029c0.108,0.13 0.214,0.263 0.319,0.398c0.199,0.261 0.479,0.438 0.787,0.438l0.005,0c0.19,0.029 0.389,-0.002 0.553,-0.12c0.003,-0.003 0.005,-0.003 0.009,-0.01c0.253,-0.18 0.513,-0.365 0.765,-0.55c0.012,0 0.018,-0.008 0.028,-0.014c0.31,-0.223 0.616,-0.445 0.923,-0.664c0.013,-0.011 0.031,-0.02 0.044,-0.031c0.005,-0.004 0.012,-0.008 0.016,-0.011c0.152,-0.109 0.301,-0.219 0.454,-0.324c0.035,0.035 0.074,0.074 0.111,0.109c-0.067,0.124 -0.107,0.265 -0.107,0.414l0,0.821c-0.192,0.14 -0.323,0.366 -0.323,0.677l0,91.532c0,0.085 0.011,0.167 0.028,0.237l10.285,0l0,-91.769c0,-0.507 -0.352,-0.792 -0.742,-0.844l0,-0.37c0.095,-0.042 0.186,-0.104 0.273,-0.191l5.512,-5.465c0.159,-0.161 0.243,-0.337 0.258,-0.512c0.342,-0.09 0.623,-0.365 0.623,-0.817l0,-2.469c0,-0.101 -0.013,-0.196 -0.042,-0.281c0.55,-0.39 1.102,-0.789 1.658,-1.184c0.536,-0.123 0.975,-0.684 0.584,-1.269" style="fill:#f9006c;fill-rule:nonzero;"/><path d="M46.506,64.146c0.275,-0.574 0.604,-1.173 1.057,-1.629c-0.701,0.481 -1.402,0.962 -2.091,1.454c-0.559,0.406 -0.452,1.132 -0.071,1.491c0.165,0.322 0.358,0.619 0.564,0.907c-0.073,-0.755 0.225,-1.572 0.541,-2.223" style="fill:#31ffa6;fill-rule:nonzero;"/><path d="M76.571,60.283c-2.126,-2.801 -4.256,-5.606 -6.385,-8.41c-0.693,-0.913 0.852,-1.798 1.534,-0.899c1.925,2.533 3.842,5.06 5.764,7.592c0.597,-0.454 1.198,-0.91 1.798,-1.365c-0.696,-0.92 -1.389,-1.838 -2.09,-2.755c-0.292,-0.387 -0.059,-0.993 0.32,-1.218c0.454,-0.265 0.923,-0.063 1.214,0.321c0.795,1.046 1.59,2.09 2.386,3.135c0.244,0.321 0.121,0.795 -0.141,1.072c-0.024,0.273 -0.19,0.526 -0.436,0.712c-0.8,0.606 -1.6,1.216 -2.401,1.824c-0.007,0.002 -0.011,0.008 -0.017,0.011c-0.339,0.409 -1.11,0.551 -1.546,-0.02" style="fill:#31ffa6;fill-rule:nonzero;"/><path d="M4.963,80.865l0,80.618c0,1.15 -1.778,1.15 -1.778,0l0,-80.618c0,-0.216 0.063,-0.396 0.171,-0.529c0.295,-0.38 0.904,-0.431 1.284,-0.152c0.19,0.144 0.323,0.368 0.323,0.681" style="fill:#171650;fill-rule:nonzero;"/><path d="M-4.43,82.114l7.823,0c1.148,0 1.148,-1.778 0,-1.778l-7.823,0c-1.146,0 -1.146,1.778 0,1.778" style="fill:#171650;fill-rule:nonzero;"/><path d="M-3.274,79.89l6.757,0c1.146,0 1.146,-1.776 0,-1.776l-6.757,0c-1.147,0 -1.147,1.776 0,1.776" style="fill:#171650;fill-rule:nonzero;"/><path d="M4.639,79.357l0,0.979c0,0.302 -0.161,0.576 -0.398,0.739c-0.144,0.092 -0.31,0.149 -0.492,0.149c-0.213,0 -0.413,-0.078 -0.565,-0.211c-0.196,-0.163 -0.324,-0.409 -0.324,-0.677l0,-0.979c0,-0.209 0.079,-0.402 0.2,-0.555c0.163,-0.202 0.416,-0.336 0.689,-0.336c0.196,0 0.384,0.069 0.531,0.183c0.106,0.078 0.191,0.178 0.253,0.295c0.067,0.121 0.106,0.264 0.106,0.413" style="fill:#171650;fill-rule:nonzero;"/><path d="M5.792,77.325c0,0.048 -0.005,0.09 -0.016,0.137c0,0.02 -0.006,0.039 -0.009,0.059c-0.037,0.155 -0.115,0.3 -0.232,0.42c-0.264,0.263 -0.522,0.524 -0.786,0.786l-0.281,0.282c-0.042,0.04 -0.086,0.073 -0.13,0.105c-0.347,0.232 -0.826,0.197 -1.129,-0.105c-0.06,-0.065 -0.109,-0.132 -0.148,-0.206c-0.115,-0.21 -0.136,-0.463 -0.069,-0.69c0.042,-0.133 0.114,-0.257 0.217,-0.363l1.067,-1.068c0.004,-0.003 0.004,-0.003 0.007,-0.006c0.346,-0.335 0.91,-0.331 1.252,0.006c0.174,0.178 0.26,0.41 0.257,0.643" style="fill:#171650;fill-rule:nonzero;"/><path d="M6.062,67.089l0,9.602c0,0.281 -0.108,0.494 -0.271,0.634c-0.032,0.03 -0.064,0.056 -0.099,0.077c-0.083,0.052 -0.175,0.091 -0.275,0.117c-0.458,0.113 -1.017,-0.099 -1.116,-0.644c-0.01,-0.057 -0.018,-0.121 -0.018,-0.184l0,-9.602c0,-0.912 1.123,-1.097 1.587,-0.559c0.118,0.138 0.192,0.324 0.192,0.559" style="fill:#171650;fill-rule:nonzero;"/><path d="M5.882,66.378c0,0.051 -0.002,0.101 -0.013,0.152c-0.075,0.412 -0.445,0.736 -0.875,0.736l-1.335,0c-0.127,0 -0.245,-0.029 -0.354,-0.077c-0.314,-0.14 -0.534,-0.457 -0.534,-0.811l0,-0.005c0,-0.196 0.068,-0.376 0.178,-0.522c0.14,-0.19 0.352,-0.321 0.59,-0.357c0.039,-0.003 0.078,-0.007 0.12,-0.007l1.335,0c0.484,0 0.888,0.406 0.888,0.891" style="fill:#171650;fill-rule:nonzero;"/><path d="M3.305,68.599l0,-2.044c0,-1.147 -1.778,-1.147 -1.778,0l0,2.044c0,1.147 1.778,1.147 1.778,0" style="fill:#171650;fill-rule:nonzero;"/><path d="M3.54,65.494c-0.003,0.263 -0.103,0.526 -0.306,0.694c-0.116,0.1 -0.274,0.166 -0.463,0.185c-0.029,0.005 -0.057,0.005 -0.088,0.005l-2.756,0c-0.374,0 -0.626,-0.19 -0.754,-0.447c-0.16,-0.313 -0.136,-0.721 0.071,-1.006c0.071,-0.096 0.162,-0.181 0.281,-0.238c0.114,-0.056 0.244,-0.089 0.402,-0.089l2.756,0c0.576,0 0.859,0.449 0.857,0.896" style="fill:#171650;fill-rule:nonzero;"/><path d="M-1.407,65.755l0,2.667c0,1.146 1.777,1.146 1.777,0l0,-2.667c0,-1.147 -1.777,-1.147 -1.777,0" style="fill:#171650;fill-rule:nonzero;"/><path d="M-0.828,65.932c-0.112,0.057 -0.245,0.089 -0.401,0.089l-2.578,0c-0.136,0 -0.257,-0.024 -0.36,-0.068c-0.303,-0.127 -0.47,-0.419 -0.498,-0.725c-0.025,-0.277 0.064,-0.567 0.266,-0.764c0.142,-0.135 0.339,-0.221 0.592,-0.221l2.578,0c0.372,0 0.622,0.188 0.754,0.445c0.032,0.067 0.06,0.139 0.078,0.213c0.091,0.387 -0.053,0.844 -0.431,1.031" style="fill:#171650;fill-rule:nonzero;"/><path d="M7.651,80.542c-0.22,0.109 -0.491,0.104 -0.768,-0.097c-0.004,0 -0.007,-0.004 -0.011,-0.007c-0.003,-0.003 -0.003,-0.003 -0.007,-0.003c-0.26,-0.189 -0.524,-0.38 -0.787,-0.57c-0.297,-0.217 -0.604,-0.435 -0.906,-0.653c-0.003,-0.004 -0.011,-0.007 -0.014,-0.013c-0.015,-0.011 -0.032,-0.022 -0.047,-0.033c-0.155,-0.111 -0.31,-0.225 -0.466,-0.335c-0.14,-0.103 -0.28,-0.202 -0.422,-0.306c-0.01,-0.006 -0.026,-0.018 -0.037,-0.025c-0.109,-0.079 -0.19,-0.171 -0.251,-0.27c-0.299,-0.476 -0.064,-1.127 0.366,-1.355c0.224,-0.114 0.505,-0.114 0.786,0.088c0.202,0.146 0.405,0.292 0.605,0.438c0.028,0.022 0.055,0.042 0.084,0.061c0.078,0.057 0.156,0.114 0.231,0.17c0.016,0.013 0.032,0.022 0.048,0.033c0.003,0.002 0.007,0.006 0.01,0.011c0.303,0.213 0.607,0.433 0.909,0.653l0.004,0c0.011,0.008 0.023,0.015 0.029,0.021c0.082,0.062 0.167,0.122 0.249,0.182c0.17,0.124 0.338,0.245 0.508,0.365c0.009,0.008 0.011,0.012 0.019,0.016c0.646,0.469 0.398,1.373 -0.132,1.629" style="fill:#171650;fill-rule:nonzero;"/><path d="M10.225,77.408c-0.246,0.236 -0.6,0.314 -0.968,0.051c-0.259,-0.19 -0.522,-0.374 -0.785,-0.556c-0.801,-0.562 -1.61,-1.11 -2.41,-1.667c-0.335,-0.232 -0.666,-0.464 -0.996,-0.701c-0.922,-0.662 -0.035,-2.205 0.894,-1.536c0.034,0.024 0.068,0.045 0.102,0.071c1.35,0.966 2.74,1.881 4.093,2.851c0.556,0.407 0.45,1.132 0.07,1.487" style="fill:#171650;fill-rule:nonzero;"/><path d="M10.31,77.251c-0.024,0.054 -0.053,0.104 -0.085,0.157c-0.521,1.02 -1.306,1.815 -1.994,2.721c-0.157,0.202 -0.358,0.351 -0.58,0.413c-0.203,0.052 -0.419,0.035 -0.638,-0.094c-0.031,-0.02 -0.067,-0.042 -0.096,-0.066c-0.123,-0.1 -0.224,-0.242 -0.284,-0.395c-0.102,-0.25 -0.106,-0.538 0.06,-0.755c0.101,-0.131 0.204,-0.259 0.307,-0.386c0.074,-0.094 0.15,-0.186 0.225,-0.275c0.007,-0.013 0.017,-0.028 0.031,-0.039c0.43,-0.53 0.86,-1.045 1.216,-1.629c0.111,-0.173 0.21,-0.359 0.302,-0.547c0.502,-1.032 2.035,-0.129 1.536,0.895" style="fill:#171650;fill-rule:nonzero;"/><path d="M23.1,59.954l0,101.291c0,0.086 -0.011,0.168 -0.03,0.238c-0.208,0.833 -1.511,0.833 -1.719,0c-0.019,-0.07 -0.029,-0.152 -0.029,-0.238l0,-101.291c0,-0.51 0.352,-0.794 0.743,-0.851c0.32,-0.045 0.662,0.057 0.863,0.318c0.104,0.135 0.172,0.312 0.172,0.533" style="fill:#171650;fill-rule:nonzero;"/><path d="M31.634,59.954l0,101.529c0,1.15 -1.777,1.15 -1.777,0l0,-101.529c0,-0.221 0.068,-0.398 0.173,-0.533c0.296,-0.381 0.903,-0.431 1.281,-0.15c0.192,0.142 0.323,0.37 0.323,0.683" style="fill:#171650;fill-rule:nonzero;"/><path d="M22.242,61.198l7.824,0c1.147,0 1.147,-1.777 0,-1.777l-7.824,0c-1.146,0 -1.146,1.777 0,1.777" style="fill:#171650;fill-rule:nonzero;"/><path d="M23.841,58.352l0,1.068c0,0.433 -0.325,0.803 -0.741,0.873c-0.048,0.013 -0.098,0.017 -0.147,0.017c-0.476,0 -0.878,-0.396 -0.888,-0.873l0,-1.085c0,-0.408 0.292,-0.764 0.674,-0.859c0.069,-0.019 0.14,-0.03 0.214,-0.03c0.088,0 0.177,0.016 0.263,0.043l0.004,0c0.356,0.114 0.621,0.455 0.621,0.846" style="fill:#171650;fill-rule:nonzero;"/><path d="M31.009,58.204c-0.047,0.401 -0.33,0.771 -0.854,0.771l-6.755,0c-0.283,0 -0.494,-0.106 -0.634,-0.266c-0.292,-0.328 -0.3,-0.878 -0.027,-1.216c0.077,-0.098 0.175,-0.176 0.295,-0.227c0.105,-0.043 0.225,-0.068 0.366,-0.068l6.755,0c0.177,0 0.331,0.042 0.452,0.117c0.123,0.071 0.22,0.175 0.288,0.294c0.02,0.039 0.042,0.082 0.056,0.126c0.054,0.149 0.077,0.312 0.058,0.469" style="fill:#171650;fill-rule:nonzero;"/><path d="M31.311,58.443l0,0.978c0,0.302 -0.16,0.576 -0.398,0.739c-0.143,0.092 -0.31,0.15 -0.49,0.15c-0.215,0 -0.415,-0.083 -0.566,-0.212c-0.196,-0.162 -0.324,-0.407 -0.324,-0.677l0,-0.978c0,-0.208 0.074,-0.399 0.199,-0.552c0.165,-0.206 0.412,-0.339 0.691,-0.339c0.195,0 0.383,0.068 0.529,0.183c0.107,0.078 0.193,0.177 0.253,0.294c0.067,0.126 0.106,0.264 0.106,0.414" style="fill:#171650;fill-rule:nonzero;"/><path d="M32.463,56.416c0,0.046 -0.004,0.089 -0.015,0.13c0,0.021 -0.004,0.043 -0.011,0.06c-0.035,0.159 -0.111,0.303 -0.229,0.419l-1.069,1.07c-0.041,0.039 -0.084,0.072 -0.13,0.109c-0.346,0.229 -0.826,0.193 -1.129,-0.109c-0.06,-0.062 -0.109,-0.129 -0.148,-0.203c-0.116,-0.214 -0.136,-0.467 -0.068,-0.694c0.043,-0.136 0.114,-0.261 0.216,-0.362l1.067,-1.068c0.004,-0.003 0.004,-0.003 0.007,-0.007c0.346,-0.335 0.912,-0.33 1.254,0.007c0.173,0.178 0.258,0.413 0.255,0.648" style="fill:#171650;fill-rule:nonzero;"/><path d="M32.733,46.174l0,9.602c0,0.284 -0.105,0.497 -0.27,0.64c-0.032,0.024 -0.065,0.05 -0.096,0.071c-0.068,0.046 -0.146,0.081 -0.225,0.107c-0.007,0.002 -0.013,0.002 -0.019,0.002c-0.034,0.008 -0.066,0.016 -0.097,0.023c-0.003,0.003 -0.011,0.003 -0.014,0.003c-0.445,0.074 -0.943,-0.146 -1.04,-0.662c-0.01,-0.057 -0.017,-0.121 -0.017,-0.184l0,-9.602c0,-1.147 1.778,-1.147 1.778,0" style="fill:#171650;fill-rule:nonzero;"/><path d="M30.333,46.35l1.333,0c0.485,0 0.889,-0.403 0.889,-0.889c0,-0.484 -0.404,-0.887 -0.889,-0.887l-1.333,0c-0.484,0 -0.889,0.403 -0.889,0.887c0,0.486 0.405,0.889 0.889,0.889" style="fill:#171650;fill-rule:nonzero;"/><path d="M29.977,47.685l0,-2.046c0,-1.146 -1.777,-1.146 -1.777,0l0,2.046c0,1.146 1.777,1.146 1.777,0" style="fill:#171650;fill-rule:nonzero;"/><path d="M26.599,45.462l2.756,0c1.145,0 1.145,-1.777 0,-1.777l-2.756,0c-1.146,0 -1.146,1.777 0,1.777" style="fill:#171650;fill-rule:nonzero;"/><path d="M25.265,44.84l0,2.667c0,1.146 1.777,1.146 1.777,0l0,-2.667c0,-1.147 -1.777,-1.147 -1.777,0" style="fill:#171650;fill-rule:nonzero;"/><path d="M22.865,45.106l2.578,0c1.146,0 1.146,-1.778 0,-1.778l-2.578,0c-1.146,0 -1.146,1.778 0,1.778" style="fill:#171650;fill-rule:nonzero;"/><path d="M21.531,44.396l0,3.11c0,1.147 1.778,1.147 1.778,0l0,-3.11c0,-1.146 -1.778,-1.146 -1.778,0" style="fill:#171650;fill-rule:nonzero;"/><path d="M20.197,45.997l1.422,0c0.485,0 0.891,-0.406 0.891,-0.891c0,-0.484 -0.406,-0.887 -0.891,-0.887l-1.422,0c-0.484,0 -0.889,0.403 -0.889,0.887c0,0.485 0.405,0.891 0.889,0.891" style="fill:#171650;fill-rule:nonzero;"/><path d="M18.507,45.374l0,3.378c0,1.145 1.78,1.145 1.78,0l0,-3.378c0,-1.147 -1.78,-1.147 -1.78,0" style="fill:#171650;fill-rule:nonzero;"/><path d="M15.397,49.196l0,2.489c0,1.148 1.779,1.148 1.779,0l0,-2.489c0,-1.146 -1.779,-1.146 -1.779,0" style="fill:#171650;fill-rule:nonzero;"/><path d="M22.766,58.709c-0.214,0.107 -0.464,0.129 -0.701,0.021c-0.097,-0.042 -0.189,-0.106 -0.275,-0.192c-1.834,-1.838 -3.673,-3.673 -5.511,-5.513c-0.811,-0.81 0.448,-2.069 1.258,-1.258c1.832,1.835 3.663,3.667 5.498,5.499c0.003,0.003 0.01,0.01 0.015,0.012c0.07,0.073 0.128,0.151 0.166,0.229l0.004,0c0.245,0.466 -0.032,0.991 -0.454,1.202" style="fill:#171650;fill-rule:nonzero;"/><path d="M13.697,47.651c1.007,0.73 2.015,1.457 3.022,2.186c0.931,0.673 1.818,-0.87 0.898,-1.536c-0.112,-0.082 -0.228,-0.164 -0.34,-0.246c-0.932,-0.673 -1.817,0.87 -0.898,1.535c0.114,0.083 0.227,0.165 0.34,0.247c0.3,-0.512 0.598,-1.023 0.898,-1.536c-1.008,-0.728 -2.016,-1.457 -3.024,-2.184c-0.93,-0.673 -1.817,0.87 -0.896,1.534" style="fill:#171650;fill-rule:nonzero;"/><path d="M34.345,59.619c-0.004,0.004 -0.004,0.004 -0.008,0.004c-0.223,0.113 -0.501,0.113 -0.782,-0.09c-0.004,-0.002 -0.008,-0.002 -0.01,-0.011c-0.263,-0.187 -0.526,-0.382 -0.794,-0.571c-0.298,-0.218 -0.604,-0.436 -0.906,-0.654c-0.004,-0.004 -0.011,-0.007 -0.015,-0.011c-0.014,-0.015 -0.031,-0.024 -0.048,-0.035c-0.155,-0.111 -0.307,-0.222 -0.464,-0.335c-0.142,-0.1 -0.28,-0.201 -0.423,-0.307c-0.011,-0.006 -0.026,-0.017 -0.036,-0.024c-0.11,-0.078 -0.191,-0.17 -0.252,-0.27c-0.299,-0.476 -0.065,-1.129 0.365,-1.355c0.225,-0.114 0.507,-0.114 0.788,0.089c0.201,0.145 0.403,0.294 0.606,0.437c0.03,0.022 0.058,0.042 0.083,0.06c0.079,0.057 0.157,0.115 0.231,0.172c0.014,0.011 0.032,0.021 0.046,0.032c0.003,0.003 0.011,0.008 0.014,0.011c0.299,0.215 0.602,0.433 0.9,0.651c0.004,0 0.004,0.003 0.006,0.003c0,0 0.006,0 0.006,0.004c0.091,0.067 0.184,0.131 0.276,0.198c0.171,0.126 0.338,0.245 0.509,0.366c0.008,0.007 0.01,0.011 0.017,0.015c0.636,0.461 0.406,1.348 -0.109,1.621" style="fill:#171650;fill-rule:nonzero;"/><path d="M17.413,50.411l1.6,0c0.485,0 0.889,-0.403 0.889,-0.889c0,-0.484 -0.404,-0.887 -0.889,-0.887l-1.6,0c-0.485,0 -0.89,0.403 -0.89,0.887c0,0.486 0.405,0.889 0.89,0.889" style="fill:#171650;fill-rule:nonzero;"/><path d="M19.724,44.768c-1.062,-0.767 -2.124,-1.532 -3.185,-2.3c-0.932,-0.673 -1.817,0.871 -0.897,1.535c1.062,0.768 2.123,1.534 3.184,2.301c0.932,0.673 1.818,-0.871 0.898,-1.536" style="fill:#171650;fill-rule:nonzero;"/><path d="M36.898,56.497c-0.241,0.232 -0.601,0.31 -0.968,0.047c-0.259,-0.189 -0.521,-0.374 -0.785,-0.555c-0.8,-0.563 -1.61,-1.11 -2.412,-1.669c-0.335,-0.231 -0.665,-0.462 -0.995,-0.7c-0.921,-0.662 -0.035,-2.205 0.896,-1.537c0.033,0.025 0.067,0.046 0.099,0.072c1.352,0.971 2.743,1.884 4.093,2.852c0.559,0.406 0.453,1.131 0.072,1.49" style="fill:#171650;fill-rule:nonzero;"/><path d="M36.983,56.341c-0.023,0.054 -0.052,0.103 -0.085,0.156c-0.522,1.017 -1.305,1.81 -1.995,2.718c-0.149,0.194 -0.345,0.345 -0.558,0.404c-0.004,0.004 -0.004,0.004 -0.008,0.004c-0.206,0.062 -0.43,0.039 -0.651,-0.09c-0.031,-0.017 -0.062,-0.042 -0.091,-0.062c-0.126,-0.101 -0.228,-0.242 -0.289,-0.4c-0.101,-0.248 -0.107,-0.536 0.061,-0.752c0.099,-0.132 0.201,-0.261 0.306,-0.388c0.075,-0.093 0.149,-0.185 0.225,-0.275c0.005,-0.013 0.016,-0.028 0.03,-0.039c0.43,-0.529 0.86,-1.044 1.217,-1.628c0.109,-0.174 0.209,-0.359 0.303,-0.547c0.501,-1.033 2.032,-0.128 1.535,0.899" style="fill:#171650;fill-rule:nonzero;"/><path d="M60.978,68.919l0,92.564c0,1.15 -1.777,1.15 -1.777,0l0,-92.564c0,-0.22 0.062,-0.398 0.169,-0.532c0.2,-0.257 0.545,-0.364 0.866,-0.318c0.39,0.054 0.742,0.338 0.742,0.85" style="fill:#171650;fill-rule:nonzero;"/><path d="M52.443,68.919l0,92.326c0,0.086 -0.011,0.168 -0.029,0.238c-0.209,0.833 -1.511,0.833 -1.721,0c-0.017,-0.07 -0.027,-0.152 -0.027,-0.238l0,-92.326c0,-0.313 0.131,-0.54 0.322,-0.683c0.381,-0.28 0.988,-0.23 1.284,0.151c0.107,0.134 0.171,0.312 0.171,0.532" style="fill:#171650;fill-rule:nonzero;"/><path d="M60.058,68.387l-7.824,0c-1.147,0 -1.147,1.778 0,1.778l7.824,0c1.146,0 1.146,-1.778 0,-1.778" style="fill:#171650;fill-rule:nonzero;"/><path d="M60.236,67.318l0,1.085c-0.012,0.48 -0.409,0.872 -0.891,0.872c-0.049,0 -0.099,-0.004 -0.144,-0.015c-0.417,-0.067 -0.744,-0.437 -0.744,-0.874l0,-1.068c0,-0.391 0.267,-0.732 0.63,-0.851l0.002,0c0.083,-0.022 0.168,-0.039 0.256,-0.039c0.075,0 0.147,0.011 0.214,0.028c0.387,0.098 0.677,0.454 0.677,0.862" style="fill:#171650;fill-rule:nonzero;"/><path d="M59.535,67.675c-0.144,0.159 -0.353,0.267 -0.634,0.267l-6.758,0c-0.521,0 -0.806,-0.371 -0.849,-0.775c-0.021,-0.158 0,-0.324 0.056,-0.471c0.015,-0.042 0.038,-0.082 0.059,-0.121c0,-0.003 0.002,-0.003 0.002,-0.003c0.065,-0.116 0.161,-0.221 0.281,-0.292c0.122,-0.075 0.275,-0.116 0.451,-0.116l6.758,0c0.138,0 0.26,0.025 0.366,0.071c0.12,0.053 0.214,0.127 0.292,0.221c0.278,0.337 0.271,0.891 -0.024,1.219" style="fill:#171650;fill-rule:nonzero;"/><path d="M52.766,67.408l0,0.979c0,0.273 -0.124,0.518 -0.323,0.678c-0.154,0.132 -0.352,0.21 -0.566,0.21c-0.181,0 -0.351,-0.057 -0.493,-0.153c-0.236,-0.159 -0.396,-0.431 -0.396,-0.735l0,-0.979c0,-0.149 0.04,-0.292 0.107,-0.416c0.064,-0.117 0.149,-0.218 0.255,-0.296c0.149,-0.11 0.331,-0.178 0.527,-0.178c0.278,0 0.529,0.132 0.691,0.339c0.128,0.149 0.198,0.343 0.198,0.551" style="fill:#171650;fill-rule:nonzero;"/><path d="M52.568,66.857c-0.039,0.075 -0.09,0.142 -0.151,0.202c-0.301,0.303 -0.782,0.338 -1.123,0.108c-0.046,-0.033 -0.092,-0.069 -0.13,-0.108c-0.023,-0.021 -0.047,-0.047 -0.069,-0.067c-0.037,-0.036 -0.076,-0.075 -0.111,-0.111c-0.043,-0.044 -0.081,-0.083 -0.123,-0.124c-0.257,-0.256 -0.508,-0.508 -0.765,-0.765c-0.126,-0.124 -0.208,-0.275 -0.239,-0.438c-0.004,-0.01 -0.008,-0.024 -0.008,-0.039c-0.01,-0.045 -0.012,-0.092 -0.012,-0.139c-0.004,-0.231 0.081,-0.465 0.259,-0.638c0.337,-0.342 0.906,-0.347 1.247,-0.008c0.005,0.003 0.005,0.003 0.007,0.008l1.067,1.065c0.104,0.105 0.174,0.228 0.218,0.361c0.068,0.225 0.045,0.478 -0.067,0.693" style="fill:#171650;fill-rule:nonzero;"/><path d="M51.343,55.14l0,9.601c0,0.065 -0.007,0.128 -0.018,0.184c-0.085,0.471 -0.503,0.694 -0.913,0.673l-0.004,0c-0.122,-0.004 -0.242,-0.028 -0.347,-0.078c-0.045,-0.018 -0.086,-0.039 -0.125,-0.064c-0.037,-0.024 -0.069,-0.05 -0.1,-0.08c-0.164,-0.14 -0.271,-0.353 -0.271,-0.635l0,-9.601c0,-1.146 1.778,-1.146 1.778,0" style="fill:#171650;fill-rule:nonzero;"/><path d="M51.966,53.539l-1.332,0c-0.485,0 -0.889,0.404 -0.889,0.889c0,0.484 0.404,0.889 0.889,0.889l1.332,0c0.485,0 0.891,-0.405 0.891,-0.889c0,-0.485 -0.406,-0.889 -0.891,-0.889" style="fill:#171650;fill-rule:nonzero;"/><path d="M54.1,54.605l0,2.046c0,1.147 -1.778,1.147 -1.778,0l0,-2.046c0,-1.145 1.778,-1.145 1.778,0" style="fill:#171650;fill-rule:nonzero;"/><path d="M55.701,52.65l-2.755,0c-1.146,0 -1.146,1.777 0,1.777l2.755,0c1.146,0 1.146,-1.777 0,-1.777" style="fill:#171650;fill-rule:nonzero;"/><path d="M57.035,53.805l0,2.668c0,1.147 -1.779,1.147 -1.779,0l0,-2.668c0,-1.144 1.779,-1.144 1.779,0" style="fill:#171650;fill-rule:nonzero;"/><path d="M59.435,52.295l-2.577,0c-1.148,0 -1.148,1.778 0,1.778l2.577,0c1.146,0 1.146,-1.778 0,-1.778" style="fill:#171650;fill-rule:nonzero;"/><path d="M60.768,53.36l0,3.112c0,1.148 -1.778,1.148 -1.778,0l0,-3.112c0,-1.146 1.778,-1.146 1.778,0" style="fill:#171650;fill-rule:nonzero;"/><path d="M62.102,53.184l-1.421,0c-0.484,0 -0.89,0.403 -0.89,0.889c0,0.485 0.406,0.888 0.89,0.888l1.421,0c0.485,0 0.891,-0.403 0.891,-0.888c0,-0.486 -0.406,-0.889 -0.891,-0.889" style="fill:#171650;fill-rule:nonzero;"/><path d="M63.791,54.339l0,3.377c0,0.802 -0.863,1.043 -1.387,0.727c-0.227,-0.136 -0.39,-0.376 -0.39,-0.727l0,-3.377c0,-1.146 1.777,-1.146 1.777,0" style="fill:#171650;fill-rule:nonzero;"/><path d="M66.902,58.161l0,2.49c0,0.455 -0.281,0.733 -0.623,0.822c-0.511,0.145 -1.154,-0.133 -1.154,-0.822l0,-2.49c0,-0.043 0.003,-0.084 0.007,-0.123c0.019,-0.139 0.061,-0.256 0.128,-0.353c0.194,-0.301 0.574,-0.427 0.92,-0.368l0.006,0c0.297,0.05 0.575,0.236 0.674,0.56c0.029,0.085 0.042,0.18 0.042,0.284" style="fill:#171650;fill-rule:nonzero;"/><path d="M66.279,61.473c-0.015,0.177 -0.099,0.355 -0.258,0.519l-5.512,5.511c-0.086,0.087 -0.178,0.151 -0.273,0.194c-0.24,0.106 -0.487,0.085 -0.701,-0.022c-0.424,-0.211 -0.701,-0.74 -0.448,-1.207l0.002,0c0.04,-0.078 0.093,-0.148 0.164,-0.219c0.004,-0.005 0.01,-0.01 0.014,-0.014c1.831,-1.835 3.663,-3.667 5.498,-5.498c0.116,-0.114 0.235,-0.184 0.36,-0.225c0.587,-0.191 1.212,0.374 1.154,0.961" style="fill:#171650;fill-rule:nonzero;"/><path d="M68.607,56.619c-0.029,0.02 -0.061,0.042 -0.089,0.063c-0.556,0.399 -1.108,0.8 -1.658,1.195c-0.31,0.224 -0.62,0.448 -0.927,0.673c-0.006,0 -0.008,0.004 -0.011,0.006c-0.055,0.039 -0.107,0.078 -0.162,0.117l-0.179,0.128c-0.157,0.115 -0.31,0.164 -0.456,0.168c-0.597,0.014 -1.033,-0.783 -0.73,-1.37c0.06,-0.12 0.157,-0.234 0.289,-0.331c0.112,-0.081 0.228,-0.163 0.341,-0.245c0.684,-0.498 1.369,-0.992 2.052,-1.487c0.211,-0.152 0.42,-0.302 0.631,-0.454c0.93,-0.673 1.817,0.87 0.899,1.537" style="fill:#171650;fill-rule:nonzero;"/><path d="M51.692,66.28c-0.06,0.1 -0.142,0.192 -0.253,0.271c-0.01,0.006 -0.018,0.014 -0.028,0.021c0,0 -0.002,0 -0.002,0.003c-0.144,0.101 -0.282,0.204 -0.425,0.307c-0.152,0.106 -0.302,0.216 -0.454,0.327c-0.004,0.004 -0.011,0.008 -0.016,0.01c-0.012,0.01 -0.031,0.022 -0.044,0.033c-0.307,0.219 -0.613,0.444 -0.923,0.669c-0.01,0.006 -0.016,0.013 -0.028,0.013c-0.252,0.189 -0.512,0.374 -0.765,0.554c-0.003,0.008 -0.006,0.008 -0.009,0.012c-0.164,0.118 -0.363,0.15 -0.553,0.121l-0.005,0c-0.271,-0.047 -0.528,-0.218 -0.659,-0.443c-0.264,-0.446 -0.074,-0.93 0.32,-1.214c0.003,-0.004 0.008,-0.008 0.011,-0.008c0.17,-0.124 0.342,-0.247 0.516,-0.373c0.088,-0.068 0.181,-0.135 0.273,-0.199c0,0 0.003,0 0.003,-0.004c0.005,0 0.005,-0.002 0.008,-0.002c0.3,-0.218 0.602,-0.436 0.898,-0.653c0.006,-0.002 0.012,-0.007 0.017,-0.009c0.013,-0.011 0.031,-0.022 0.046,-0.032c0.078,-0.058 0.151,-0.111 0.229,-0.169c0.03,-0.021 0.058,-0.039 0.087,-0.059c0.202,-0.146 0.405,-0.296 0.607,-0.443c0.282,-0.201 0.559,-0.201 0.783,-0.088c0.431,0.224 0.669,0.876 0.366,1.355" style="fill:#171650;fill-rule:nonzero;"/><path d="M65.779,58.488c0,0.065 -0.008,0.125 -0.019,0.185c-0.07,0.321 -0.323,0.584 -0.635,0.669c-0.075,0.024 -0.154,0.035 -0.235,0.035l-1.6,0c-0.488,0 -0.889,-0.405 -0.889,-0.889c0,-0.013 0,-0.031 0.003,-0.045c0.021,-0.464 0.412,-0.844 0.886,-0.844l1.6,0c0.131,0 0.255,0.032 0.37,0.086c0.303,0.139 0.519,0.451 0.519,0.803" style="fill:#171650;fill-rule:nonzero;"/><path d="M63.472,55.271c1.063,-0.768 2.124,-1.535 3.188,-2.301c0.919,-0.665 0.034,-2.208 -0.9,-1.535c-1.06,0.767 -2.122,1.532 -3.184,2.3c-0.92,0.666 -0.035,2.209 0.896,1.536" style="fill:#171650;fill-rule:nonzero;"/><path d="M50.565,62.585c-0.331,0.239 -0.666,0.473 -1,0.704c-0.8,0.559 -1.61,1.108 -2.41,1.666c-0.264,0.185 -0.527,0.37 -0.787,0.554c-0.365,0.264 -0.725,0.185 -0.967,-0.046c-0.381,-0.359 -0.487,-1.085 0.071,-1.491c1.352,-0.967 2.742,-1.88 4.093,-2.852c0.031,-0.024 0.068,-0.046 0.099,-0.07c0.936,-0.669 1.823,0.873 0.901,1.535" style="fill:#171650;fill-rule:nonzero;"/><path d="M48.993,68.041c-0.06,0.156 -0.16,0.295 -0.284,0.395c-0.029,0.021 -0.061,0.045 -0.092,0.064c-0.144,0.084 -0.285,0.121 -0.425,0.121l-0.005,0c-0.307,0 -0.588,-0.179 -0.787,-0.442c-0.693,-0.906 -1.474,-1.7 -1.999,-2.716c-0.031,-0.054 -0.059,-0.103 -0.085,-0.157c-0.497,-1.027 1.035,-1.931 1.536,-0.899c0.092,0.187 0.193,0.372 0.303,0.548c0.354,0.583 0.79,1.098 1.22,1.628c0.01,0.011 0.02,0.024 0.031,0.039c0.062,0.07 0.117,0.142 0.175,0.216c0.121,0.146 0.238,0.297 0.352,0.446c0.166,0.216 0.164,0.508 0.06,0.757" style="fill:#171650;fill-rule:nonzero;"/><path d="M68.518,56.683c-0.337,0.075 -0.712,-0.019 -0.954,-0.384c-0.166,-0.253 -0.328,-0.506 -0.487,-0.762c-0.589,-0.928 -1.155,-1.875 -1.749,-2.802c-0.623,-0.971 0.917,-1.859 1.535,-0.901c0.758,1.181 1.462,2.399 2.239,3.569c0.391,0.59 -0.048,1.154 -0.584,1.28" style="fill:#171650;fill-rule:nonzero;"/><path d="M68.361,54.37c0.9,-0.651 1.856,-1.223 2.784,-1.837c0.954,-0.629 0.064,-2.169 -0.896,-1.535c-0.928,0.614 -1.885,1.185 -2.786,1.837c-0.391,0.284 -0.581,0.767 -0.318,1.218c0.226,0.386 0.823,0.602 1.216,0.317" style="fill:#171650;fill-rule:nonzero;"/><path d="M78.117,60.303c-0.339,0.409 -1.11,0.552 -1.546,-0.02c-2.126,-2.8 -4.256,-5.606 -6.385,-8.41c-0.693,-0.913 0.852,-1.798 1.535,-0.898c1.924,2.532 3.841,5.059 5.763,7.592c0.208,0.273 0.42,0.547 0.625,0.822c0.256,0.338 0.206,0.671 0.008,0.914" style="fill:#171650;fill-rule:nonzero;"/><path d="M80.971,57.756c-0.024,0.273 -0.19,0.526 -0.437,0.712c-0.799,0.606 -1.599,1.217 -2.4,1.824c-0.008,0.002 -0.012,0.008 -0.017,0.011c-0.389,0.272 -0.983,0.043 -1.2,-0.331c-0.27,-0.456 -0.067,-0.925 0.316,-1.217c0.083,-0.063 0.167,-0.123 0.251,-0.188c0.596,-0.455 1.198,-0.911 1.798,-1.366c0.117,-0.089 0.239,-0.18 0.357,-0.27c0.388,-0.296 0.99,-0.061 1.214,0.319c0.101,0.173 0.136,0.342 0.118,0.506" style="fill:#171650;fill-rule:nonzero;"/><path d="M80.971,57.756c-0.056,0.058 -0.118,0.106 -0.181,0.146c-0.456,0.265 -0.922,0.068 -1.216,-0.317c-0.097,-0.127 -0.196,-0.257 -0.292,-0.384c-0.697,-0.92 -1.389,-1.838 -2.09,-2.755c-0.292,-0.386 -0.06,-0.993 0.32,-1.217c0.453,-0.266 0.923,-0.064 1.214,0.32c0.795,1.046 1.59,2.091 2.386,3.136c0.244,0.32 0.121,0.795 -0.141,1.071" style="fill:#171650;fill-rule:nonzero;"/><path d="M77.105,55.545c1.001,-0.76 2.004,-1.521 3.005,-2.282c0.387,-0.292 0.587,-0.76 0.318,-1.215c-0.221,-0.381 -0.829,-0.615 -1.217,-0.32c-1.001,0.76 -2.002,1.521 -3.002,2.28c-0.386,0.294 -0.586,0.762 -0.321,1.218c0.224,0.38 0.832,0.612 1.217,0.319" style="fill:#171650;fill-rule:nonzero;"/><path d="M69.965,39.849c3.097,4.081 6.122,8.214 9.219,12.298c0.682,0.899 2.228,0.016 1.535,-0.899c-3.097,-4.081 -6.122,-8.214 -9.219,-12.295c-0.683,-0.903 -2.228,-0.019 -1.535,0.896" style="fill:#171650;fill-rule:nonzero;"/><path d="M66.057,42.694c3.008,3.96 6.016,7.921 9.023,11.882c0.686,0.9 2.232,0.015 1.536,-0.897c-3.008,-3.962 -6.016,-7.923 -9.024,-11.882c-0.685,-0.902 -2.23,-0.018 -1.535,0.897" style="fill:#171650;fill-rule:nonzero;"/><path d="M67.645,42.6c1.12,-0.592 2.173,-1.287 3.208,-2.015c0.931,-0.653 0.042,-2.197 -0.896,-1.535c-1.036,0.728 -2.09,1.423 -3.209,2.014c-1.013,0.535 -0.114,2.07 0.897,1.536" style="fill:#171650;fill-rule:nonzero;"/><path d="M19.009,35.309c-3.854,5.941 -7.706,11.881 -11.561,17.82c-0.625,0.965 0.916,1.856 1.537,0.897c3.853,-5.94 7.707,-11.879 11.559,-17.819c0.626,-0.964 -0.914,-1.856 -1.535,-0.898" style="fill:#171650;fill-rule:nonzero;"/><path d="M8.578,52.576c-1.238,-4.554 -2.478,-9.107 -3.717,-13.663c-0.301,-1.106 -2.017,-0.635 -1.715,0.475c1.24,4.552 2.479,9.106 3.719,13.661c0.3,1.105 2.016,0.634 1.713,-0.473" style="fill:#171650;fill-rule:nonzero;"/><path d="M4.24,39.761c5.247,-1.216 10.553,-2.169 15.812,-3.334c1.119,-0.248 0.644,-1.963 -0.473,-1.716c-5.26,1.166 -10.564,2.12 -15.813,3.335c-1.115,0.26 -0.641,1.975 0.474,1.715" style="fill:#171650;fill-rule:nonzero;"/><path d="M46.832,14.961c0.926,0 0.926,-1.432 0,-1.432c-0.924,0 -0.924,1.432 0,1.432" style="fill:#31ffa6;fill-rule:nonzero;"/><path d="M46.211,17.495l0,8.794c0,0.923 1.434,0.923 1.434,0l0,-8.794c0,-0.926 -1.434,-0.926 -1.434,0" style="fill:#171650;fill-rule:nonzero;"/><path d="M47.645,11.187l0,-6.117c0,-0.925 -1.434,-0.925 -1.434,0l0,6.117c0,0.923 1.434,0.923 1.434,0" style="fill:#171650;fill-rule:nonzero;"/><path d="M46.928,2.919c0.925,0 0.925,-1.434 0,-1.434c-0.925,0 -0.925,1.434 0,1.434" style="fill:#171650;fill-rule:nonzero;"/><path d="M49.605,14.771l9.557,0c0.925,0 0.925,-1.434 0,-1.434l-9.557,0c-0.926,0 -0.926,1.434 0,1.434" style="fill:#171650;fill-rule:nonzero;"/><path d="M61.455,14.579c0.926,0 0.926,-1.434 0,-1.434c-0.924,0 -0.924,1.434 0,1.434" style="fill:#171650;fill-rule:nonzero;"/><path d="M43.678,13.338l-7.646,0c-0.923,0 -0.923,1.434 0,1.434l7.646,0c0.926,0 0.926,-1.434 0,-1.434" style="fill:#171650;fill-rule:nonzero;"/><path d="M33.356,14.961c0.924,0 0.924,-1.432 0,-1.432c-0.923,0 -0.923,1.432 0,1.432" style="fill:#171650;fill-rule:nonzero;"/><path d="M51.391,8.768l-2.102,2.102c-0.654,0.653 0.36,1.668 1.014,1.013c0.7,-0.699 1.401,-1.4 2.103,-2.101c0.655,-0.655 -0.361,-1.668 -1.015,-1.014" style="fill:#171650;fill-rule:nonzero;"/><path d="M42.024,10.164c0.575,0.573 1.148,1.146 1.722,1.72c0.654,0.654 1.669,-0.361 1.013,-1.014c-0.573,-0.573 -1.146,-1.146 -1.719,-1.721c-0.656,-0.654 -1.67,0.36 -1.016,1.015" style="fill:#171650;fill-rule:nonzero;"/><path d="M49.098,17.428c0.699,0.701 1.4,1.402 2.101,2.103c0.655,0.655 1.669,-0.36 1.014,-1.014c-0.701,-0.701 -1.402,-1.402 -2.103,-2.103c-0.655,-0.653 -1.667,0.36 -1.012,1.014" style="fill:#171650;fill-rule:nonzero;"/><path d="M43.266,16.796c-0.445,0.446 -0.891,0.893 -1.337,1.339c-0.654,0.654 0.359,1.668 1.014,1.014c0.446,-0.448 0.891,-0.893 1.339,-1.339c0.654,-0.654 -0.361,-1.667 -1.016,-1.014" style="fill:#171650;fill-rule:nonzero;"/><path d="M53.045,21.462c0.926,0 0.926,-1.434 0,-1.434c-0.925,0 -0.925,1.434 0,1.434" style="fill:#171650;fill-rule:nonzero;"/><path d="M53.428,8.655c0.923,0 0.923,-1.436 0,-1.436c-0.926,0 -0.926,1.436 0,1.436" style="fill:#171650;fill-rule:nonzero;"/><path d="M41.002,7.314c0.926,0 0.926,-1.433 0,-1.433c-0.924,0 -0.924,1.433 0,1.433" style="fill:#171650;fill-rule:nonzero;"/><path d="M39.951,20.888c0.926,0 0.926,-1.434 0,-1.434c-0.925,0 -0.925,1.434 0,1.434" style="fill:#171650;fill-rule:nonzero;"/></g></g></svg>